<svg width="113.12mm" height="161.85mm" version="1.1" viewBox="0 0 113.12 161.85" xmlns="http://www.w3.org/2000/svg">
 <defs>
  <clipPath id="a">
   <path d="m424.87 145.47c-3.303 0-5.98-2.689-5.98-6.006v-11.906c0-3.318 2.677-6.006 5.98-6.006h31.785c3.304 0 5.98 2.688 5.98 6.006v11.906c0 3.317-2.676 6.006-5.98 6.006z"/>
  </clipPath>
 </defs>
 <g transform="translate(-12.233 -11.969)">
  <g transform="translate(-245 7.8317)">
   <g transform="matrix(8.5681,0,0,-8.5681,-3534.9,1219)">
    <g clip-path="url(#a)">
     <g transform="translate(451.23,130.06)">
      <path d="m0 0 3.281 1.352c0.336 0.136 0.51 0.567 5e-3 0.815l-1.331 0.824-3.268-2.188c0.414-0.281 0.85-0.549 1.313-0.803" fill="#bdbcbc"/>
     </g>
     <g transform="translate(449.18,130.39)">
      <path d="m0 0c-0.456-0.354-0.823-0.761-0.997-1.472l-7e-3 1.34c-3e-3 -0.01-6e-3 -0.019-9e-3 -0.028l-1e-3 0.259v-2.016c-9e-3 -0.446 0.389-0.731 0.886-0.68l3.46 0.153c1.305 0.059 1.351 1.327 0.331 1.85-0.407 0.184-0.795 0.379-1.166 0.583-0.463 0.254-0.899 0.523-1.313 0.804z" fill="#656263"/>
     </g>
     <g transform="translate(453.93,134.85)">
      <path d="m0 0-4.753-3.147c-0.455-0.35-0.821-0.751-1-1.444l7e-3 -1.34c0.174 0.711 0.541 1.118 0.997 1.472l1.184 0.793 3.268 2.187 0.246 0.165c1.135 0.6 1.584 1.435 1.708 2.382l0.034 1.086c-0.167-0.852-0.637-1.602-1.691-2.154" fill="#e3b644"/>
     </g>
     <g transform="translate(455.79,141.42)">
      <path d="m0 0c-0.108 0.49-0.598 0.426-0.958 0.188l-5.072-3.089c-1.062-0.495-1.421-1.354-1.523-2.087l-0.069-3.458-1e-3 -0.067-0.01-0.509 0.01-1.909 1e-3 -0.259c2e-3 9e-3 6e-3 0.018 8e-3 0.028 0.179 0.692 0.546 1.094 1.001 1.444l4.752 3.147c1.055 0.552 1.524 1.302 1.691 2.154 0.015 0.076 0.028 0.152 0.039 0.229z" fill="#bf1b2c"/>
     </g>
    </g>
   </g>
  </g>
  <path d="m12.233 90.334 41.319-38.842 1.21e-4 104.94-20.108 17.389v-78.617l-21.211 18.491z" fill="#bdbcbc"/>
 </g>
</svg>
