<svg version="1.0" viewBox="0 0 800 800" xml:space="preserve" xmlns="http://www.w3.org/2000/svg"><path d="m83.932 0c-30.198 0-83.932 36.542-83.932 76.535v639.51c0 30.198 36.542 83.953 76.535 83.953h639.53c30.198 0 83.932-36.542 83.932-76.535v-639.51c0-30.198-36.542-83.953-76.535-83.953h-606.71z" fill="#00aeef"/><path d="m100.71 25.62c-38.996 0-76.972 35.21-76.972 65.366v609.76c0 38.996 35.231 76.972 65.387 76.972h609.74c38.996 0 76.993-35.231 76.993-65.387v-609.74c0-38.996-35.231-76.972-65.387-76.972h-592.25z" fill="#009957" Googl="true"/><path d="m475.9 227.98v45.342l22.9-19.066v-26.276zm-182.8 25.15c-23.562 0-45.342 19.068-45.342 52.822v80.911c0 33.754 21.78 52.822 45.342 52.822 23.564 0 45.321-19.068 45.321-52.822v-80.911c0-33.754-21.756-52.822-45.321-52.822zm111.17 0c-23.562 0-45.321 19.068-45.321 52.822v80.911c0 33.754 21.759 52.822 45.321 52.822 23.564 0 45.342-19.068 45.342-52.822v-80.911c0-33.754-21.777-52.822-45.342-52.822zm-203.37 1.5419-22.671 19.066v27.838l22.671-19.066v155.61h22.879v-183.45zm326.93 0v99.206h21.546c5.386-11.079 11.899-15.211 20.65-15.211 18.85 0 23.108 14.943 23.108 35.298-4e-5 17.264-2e-3 39.424-22.442 39.424-12.793 0-20.432-8.2365-22.9-21.379h-22.879c3.3673 34.27 26.028 47.675 46.675 47.675 15.933 0 28.059-10.056 34.569-19.587 6.9546-10.05 9.8559-19.591 9.8559-44.071 0-30.406-3.814-39.416-12.565-50.238-5.8352-7.2138-16.369-13.398-28.484-13.398-9.8751 0-17.956 3.0864-25.588 10.044v-41.487h63.512v-26.276zm-234.73 24.734c13.464 0 22.421 10.309 22.421 28.088v77.827c0 17.779-8.9567 28.068-22.421 28.068-13.465 0-22.442-10.289-22.442-28.068v-77.827c0-17.779 8.9766-28.088 22.442-28.088zm111.17 0c13.465 0 22.442 10.309 22.442 28.088v77.827c0 17.779-8.9766 28.068-22.442 28.068-13.464 0-22.421-10.289-22.421-28.068v-77.827c0-17.779 8.9566-28.088 22.421-28.088zm-120.08 201.02c-9.5692 0.37457-15.086 6.507-15.086 15.086-5e-5 7.4764 4.5533 13.291 13.044 14.523 2.5555 0.36261 4.2925 0.64681 6.5012 0.93769 4.4175 0.58178 6.4179 3.3481 6.4179 6.9804 0 4.2833-3.6573 7.1888-9.731 7.1888-5.2485 0-10.213-2.0462-13.94-5.1676l-4.9176 5.876c5.1768 4.7909 11.547 7.1264 18.795 7.1264 10.563 0 17.253-5.5135 17.253-15.024 0-7.0446-4.2791-13.716-13.461-14.878-2.3463-0.2909-4.2099-0.59596-5.5218-0.81265-4.9701-0.79928-6.9804-3.7032-6.9804-6.6054 0-4.9359 3.6523-7.3971 8.2098-7.3971 4.3491-2e-5 8.579 1.5828 12.169 3.9799l4.1257-6.4595c-4.4891-3.1214-9.8634-5.3551-15.94-5.3551-0.31706 0-0.62898-0.0111-0.93764 0zm308.12 0c-7.7323-5e-5 -13.052 4.7725-15.399 9.2725-1.5878 3.0497-2.1254 4.5883-2.1254 17.003 2e-5 12.415 0.53765 13.933 2.1254 16.982 2.3462 4.5 7.6664 9.2934 15.399 9.2934 7.7322-2e-5 13.05-4.7934 15.399-9.2934 1.5878-3.0498 2.1462-4.5675 2.1462-16.982-2e-5 -12.415-0.55841-13.953-2.1462-17.003-2.3488-4.5-7.6664-9.2725-15.399-9.2725zm-166.91 0.41671v51.697h7.4597v-22.067h9.5226l10.148 22.067h8.835l-11.377-22.942c5.9361-2.1795 9.5226-7.6147 9.5226-14.294-3e-5 -4.6451-2.1329-8.5724-4.8967-11.044-2.6246-2.3938-5.8803-3.4173-10.023-3.4173zm-241.75 0.0199v51.676h16.711c7.3163-3e-5 12.416-3.7732 15.315-8.564 2.2121-3.629 2.7714-5.6585 2.7714-17.274 0-10.816-0.20752-12.774-2.6255-17.128-3.1739-5.6636-8.4899-8.71-14.982-8.71zm56.406 0-17.878 51.676h7.8764l3.7923-11.544h18.628l3.8132 11.544h7.8556l-17.878-51.676zm84.14 0v51.676h7.4597v-22.587h19.462v22.587h7.4597v-51.676h-7.4597v22.129h-19.462v-22.128zm46.113 0v51.676h7.4597v-51.676zm14.086 0v6.9596h13.461v44.716h7.4597v-44.716h13.461v-6.9596zm97.268 0-17.878 51.676h7.8556l3.8132-11.544h18.628l3.8132 11.544h7.8556l-17.878-51.676zm30.714 0v51.676h16.711c7.3197-3e-5 12.416-3.7732 15.315-8.564 2.2096-3.629 2.7714-5.6585 2.7714-17.274 0-10.816-0.20752-12.774-2.6255-17.128-3.1747-5.6636-8.4924-8.71-14.982-8.71zm44.862 0v51.676h7.4597v-51.676zm-124.38 6.9596h11.669c2.5554-2e-5 4.0782 0.51429 5.4593 1.6044 1.5178 1.1611 2.4796 3.1914 2.4796 5.8761-3e-5 4.3566-2.763 8.189-8.3557 8.189h-11.252zm-241.75 0.43762h8.8974c4.0049 0 6.492 1.0877 8.7724 4.3549 1.9995 2.8305 2.2087 5.0851 2.2087 14.378 0 9.5818-0.22003 11.035-1.8753 13.648-1.9345 2.9756-4.895 4.5008-9.1058 4.5008h-8.8974zm328.73 0h8.8974c4.0049 0 6.4945 1.0877 8.7725 4.3549 2.0028 2.8305 2.2087 5.0851 2.2087 14.378 0 9.5818-0.21923 11.035-1.8753 13.648-1.9337 2.9756-4.8942 4.5008-9.1058 4.5008h-8.8974zm72.472 0c3.5206 0 6.0844 1.7403 7.6055 3.7715 1.9312 2.6163 2.4796 4.0724 2.4796 14.669 0 10.597-0.54843 12.036-2.4796 14.648-1.5211 2.0346-4.0849 3.7924-7.6055 3.7924-3.5232 2e-5 -6.0661-1.7578-7.5847-3.7924-1.9337-2.613-2.5005-4.0516-2.5005-14.648-2e-5 -10.597 0.56675-12.053 2.5005-14.669 1.5186-2.0312 4.0616-3.7715 7.5847-3.7715zm-349.21 3.1881h0.12509l7.1263 22.567h-14.378zm241.61 0h0.12509l7.1054 22.567h-14.357zm133.07 33.694v7.3972h7.043v-7.3972z" fill="#fff" fill-rule="evenodd"/></svg>
