<?xml version="1.0" encoding="UTF-8" standalone="no"?>
<!DOCTYPE svg PUBLIC "-//W3C//DTD SVG 20010904//EN" "http://www.w3.org/TR/2001/REC-SVG-20010904/DTD/svg10.dtd">
<svg version="1.0" xmlns="http://www.w3.org/2000/svg" width="600.000000pt" height="600.000000pt" viewBox="0 0 600.000000 600.000000" preserveAspectRatio="xMidYMid meet">
<metadata>
Created by potrace 1.11, written by Peter Selinger 2001-2013
</metadata>
<g transform="translate(0.000000,600.000000) scale(0.100000,-0.100000)" fill="#000000" stroke="none">
<path d="M2728 5725 c-2 -2 -33 -7 -68 -10 -36 -3 -90 -10 -120 -15 -30 -5 -71 -12 -90 -15 -81 -13 -253 -59 -365 -96 -363 -123 -705 -331 -990 -603 -44 -42 -89 -76 -100 -77 -11 0 -27 -2 -35 -3 -20 -4 -133 -17 -195 -22 -73 -6 -80 -10 -100 -54 -42 -94 -162 -166 -330 -199 -94 -18 -228 -35 -267 -33 -34 2 -33 -22 7 -218 3 -14 12 -59 21 -100 8 -41 16 -79 18 -85 1 -5 6 -31 10 -57 11 -63 20 -65 171 -43 17 2 57 7 90 10 33 3 70 8 82 11 28 5 28 7 2 -58 -60 -150 -134 -415 -154 -548 -4 -25 -9 -58 -12 -75 -12 -72 -14 -103 -17 -330 -3 -193 0 -267 15 -375 18 -138 26 -181 35 -212 3 -10 7 -30 10 -45 15 -86 82 -296 136 -427 24 -60 46 -157 46 -206 0 -8 5 -49 11 -90 5 -41 13 -97 16 -125 3 -27 8 -59 10 -70 2 -11 4 -34 4 -52 1 -28 4 -31 31 -29 17 1 30 -3 30 -8 0 -6 5 -4 11 4 9 13 10 13 6 0 -2 -8 -11 -14 -20 -14 -9 1 -13 -4 -11 -11 4 -10 14 -8 42 5 36 18 37 18 48 -2 9 -17 12 -18 23 -4 11 13 11 16 -3 16 -19 0 -21 16 -4 26 6 4 8 3 5 -2 -3 -6 3 -15 13 -22 13 -8 21 -8 25 -1 5 7 11 6 20 -1 7 -6 19 -9 26 -8 7 2 15 -5 17 -16 2 -12 0 -16 -7 -11 -6 3 -9 10 -7 14 3 3 -4 7 -15 7 -18 0 -18 -1 3 -18 13 -10 27 -13 32 -8 5 5 28 -16 55 -48 25 -31 59 -72 76 -90 33 -37 34 -46 8 -48 -10 -1 -56 -9 -103 -17 -47 -9 -101 -19 -120 -22 -86 -15 -381 -66 -515 -90 -132 -23 -136 -24 -180 -31 -22 -3 -43 -9 -48 -13 -4 -4 -6 -198 -5 -432 l3 -425 240 42 c132 24 260 46 285 49 25 3 61 10 80 15 19 5 51 11 70 13 19 3 103 17 185 31 146 26 177 31 240 42 17 3 102 18 190 34 88 16 189 34 225 39 36 6 76 13 90 16 14 2 36 6 50 8 14 3 63 12 110 20 47 9 105 19 130 22 25 3 52 8 60 10 51 13 94 13 127 0 95 -37 323 -93 448 -110 23 -3 52 -7 65 -10 91 -17 406 -24 557 -12 501 41 1000 232 1391 533 72 56 91 66 155 78 63 13 205 38 292 52 17 2 41 6 55 9 14 3 39 7 55 10 17 3 39 7 50 9 11 2 63 11 115 20 52 9 106 18 120 21 14 3 54 10 90 15 81 13 86 14 190 34 47 8 102 18 124 22 21 3 48 8 60 10 11 2 49 9 84 15 l62 11 0 429 c0 236 -2 429 -4 429 -2 0 -57 -9 -123 -20 -65 -12 -131 -23 -148 -26 -16 -2 -100 -17 -185 -33 -85 -15 -156 -27 -157 -26 -1 0 10 32 26 71 15 38 36 94 47 124 10 30 23 58 29 62 5 4 7 8 3 8 -12 0 8 45 20 45 6 0 17 8 24 17 9 13 17 15 28 8 12 -8 13 -11 2 -22 -8 -7 -13 -8 -12 -3 5 25 -1 28 -16 7 -8 -12 -19 -20 -23 -18 -4 3 -8 -1 -8 -9 0 -13 3 -13 18 1 10 9 22 13 28 10 5 -4 16 0 23 7 10 12 15 12 23 1 8 -10 15 -9 34 7 13 11 22 22 19 24 -2 3 -14 -4 -26 -15 -17 -16 -22 -17 -22 -6 0 8 -6 17 -12 20 -7 2 -2 4 11 3 14 -1 26 4 28 13 4 13 3 13 -7 0 -9 -12 -10 -10 -5 9 5 16 4 21 -4 17 -7 -5 -8 -1 -4 10 5 13 3 15 -8 9 -7 -5 -4 4 9 19 14 18 19 33 13 40 -11 14 -11 48 1 63 7 9 1 11 -21 8 -25 -3 -29 -2 -19 9 7 7 19 13 27 12 7 -1 15 7 16 17 2 9 -1 15 -6 11 -5 -3 -6 -10 -3 -16 4 -6 -1 -8 -15 -3 -14 4 -21 2 -21 -6 0 -7 -2 -10 -5 -7 -8 8 6 39 15 33 5 -3 12 0 16 6 4 8 3 9 -4 5 -7 -4 -12 -3 -12 3 0 5 -6 11 -12 14 -7 2 -2 2 12 0 l25 -3 -25 15 c-14 8 -19 14 -12 15 6 0 12 5 12 11 0 5 -4 7 -10 4 -5 -3 -10 -2 -10 3 0 15 13 22 25 14 6 -4 2 1 -8 11 -11 9 -15 17 -11 17 11 0 12 29 18 320 5 292 -11 436 -80 712 -33 133 -33 137 -18 180 33 88 12 300 -62 623 -14 61 -29 121 -34 135 -4 14 -18 59 -30 100 -12 41 -28 92 -36 113 -8 21 -11 43 -8 49 4 7 2 8 -4 4 -7 -4 -12 -1 -12 9 0 20 -61 134 -98 185 -123 169 -358 233 -742 205 -128 -10 -116 -12 -202 39 -129 76 -290 149 -468 214 -129 47 -361 99 -560 127 -52 7 -506 16 -512 10z m2873 -3209 c-9 -11 -9 -15 1 -19 8 -4 7 -6 -4 -6 -21 -1 -23 10 -6 27 17 17 23 15 9 -2z m8 -50 c8 -10 8 -16 -2 -24 -10 -9 -13 -6 -13 13 0 29 0 29 15 11z m-81 -116 c-7 -10 -14 -17 -17 -15 -4 4 18 35 25 35 2 0 -1 -9 -8 -20z m-4758 -864 c0 -3 -4 -8 -10 -11 -5 -3 -10 -1 -10 4 0 6 5 11 10 11 6 0 10 -2 10 -4z" Googl="true"/>
<path d="M5630 2419 c0 -5 -5 -7 -11 -3 -8 5 -8 1 0 -14 13 -25 31 -38 31 -23 0 6 -5 11 -11 11 -6 0 -8 9 -4 20 3 11 4 20 1 20 -3 0 -6 -5 -6 -11z"/>
<path d="M5530 2279 c0 -5 5 -7 10 -4 6 3 10 8 10 11 0 2 -4 4 -10 4 -5 0 -10 -5 -10 -11z"/>
<path d="M765 1450 c-4 -6 -11 -7 -17 -4 -6 4 -8 2 -4 -4 3 -5 0 -13 -6 -15 -8 -3 -8 -6 -2 -6 6 -1 19 8 29 19 10 11 15 20 12 20 -3 0 -9 -5 -12 -10z"/>
<path d="M649 1432 c-15 -13 -19 -21 -10 -26 7 -5 10 -2 9 6 -3 15 34 18 44 3 4 -5 6 0 5 13 -2 27 -17 28 -48 4z"/>
<path d="M770 1420 c0 -5 5 -10 11 -10 5 0 7 5 4 10 -3 6 -8 10 -11 10 -2 0 -4 -4 -4 -10z"/>
<path d="M711 1413 c-1 -17 16 -25 25 -12 4 7 3 9 -4 5 -5 -3 -13 0 -15 6 -4 9 -6 10 -6 1z"/>
</g>
</svg>