<?xml version="1.0" encoding="UTF-8" standalone="no"?>
<!-- Created with Inkscape (http://www.inkscape.org/) -->
<svg xmlns:rdf="http://www.w3.org/1999/02/22-rdf-syntax-ns#" xmlns="http://www.w3.org/2000/svg" height="593.02" width="600" version="1.1" xmlns:cc="http://creativecommons.org/ns#" xmlns:dc="http://purl.org/dc/elements/1.1/">
 <defs>
  <clipPath id="clipPath14828" clipPathUnits="userSpaceOnUse">
   <path d="m369.13,422.61,17.041,0,0,17.039-17.041,0,0-17.039z"/>
  </clipPath>
 </defs>
 <metadata>
  <rdf:RDF>
   <cc:Work rdf:about="">
    <dc:format>image/svg+xml</dc:format>
    <dc:type rdf:resource="http://purl.org/dc/dcmitype/StillImage"/>
    <dc:title/>
   </cc:Work>
  </rdf:RDF>
 </metadata>
 <g transform="translate(-171.91818,-214.23377)">
  <g fill="#000" transform="matrix(46.645417,0,0,-46.645417,-17138.35,20721.938)">
   <g fill="#000" clip-path="url(#clipPath14828)">
    <g fill="#000" transform="translate(383.1933,433.1121)">
     <path d="M0,0-0.248,0.248,0.27,0.766,0.015,1.022-1.273-0.266-1.017-0.522-0.46,0.036-0.212-0.212-0.77-0.77-0.514-1.026,0.773,0.262,0.518,0.518,0,0zm-0.365,0.978,0.212,0.212-0.691,0.691-0.212-0.212,0.219-0.219-1.076-1.076,0.254-0.254,1.076,1.077,0.218-0.219zm-1.543,1.152c0.02,0.206,0.039,0.924-0.583,1.546-0.398,0.398-0.925,0.618-1.486,0.618-0.542,0-1.049-0.209-1.428-0.588l-0.604-0.604,1.061-1.063,0.594,0.595c0.083,0.082,0.232,0.171,0.402,0.171,0.139,0,0.267-0.058,0.381-0.172,0.237-0.238,0.237-0.545-0.001-0.783l-0.84-0.84c-0.196-0.196-0.345-0.283-0.484-0.283-0.196,0-0.41,0.175-0.691,0.458l-0.066,0.065-0.952-0.952,0.065-0.065c0.305-0.306,0.435-0.496,0.451-0.658,0.015-0.155-0.079-0.319-0.324-0.564l-0.932-0.93c-0.152-0.152-0.316-0.232-0.475-0.232-0.134,0-0.26,0.057-0.372,0.169-0.109,0.109-0.167,0.239-0.167,0.375,0.001,0.155,0.076,0.316,0.214,0.453l0.549,0.548-1.061,1.064-0.594-0.595c-0.479-0.478-0.699-1.037-0.639-1.619,0.048-0.461,0.277-0.928,0.627-1.278,0.414-0.415,0.89-0.625,1.415-0.625,0.133,0,0.272,0.014,0.411,0.041,0.502,0.096,0.761,0.245,1.628,1.111,0.874,0.873,1.142,1.14,0.97,2.004,0.197-0.044,0.337-0.062,0.465-0.062,0.464,0,0.772,0.262,1.415,0.904,0.84,0.839,1.003,1.231,1.051,1.791m-9.159-3.213,6.593,6.597-1.024,1.025-6.592-6.598,1.023-1.024zm4.192-4.195c0.442-0.442,0.903,0.107,1.199-0.188,0.081-0.081,0.154-0.186,0.054-0.288-0.114-0.112-0.216-0.037-0.31,0.056-0.027,0.032-0.055,0.063-0.085,0.093h-0.004l-0.271-0.272c0.014-0.018,0.03-0.033,0.045-0.05,0.264-0.263,0.517-0.362,0.81-0.068,0.288,0.287,0.305,0.555,0.014,0.846-0.435,0.432-0.953-0.089-1.206,0.164-0.068,0.068-0.115,0.151-0.032,0.234,0.13,0.131,0.238-0.016,0.333-0.103l0.267,0.268-0.028,0.028c-0.235,0.239-0.477,0.315-0.737,0.055-0.243-0.244-0.309-0.516-0.049-0.775m2.4,0.288-1.145,1.146,0.228,0.228-0.254,0.254-0.741-0.742,0.254-0.254,0.23,0.23,1.145-1.145,0.283,0.283zm0.651,0.651-0.565,0.565,0.106,0.105c0.124,0.125,0.245,0.025,0.346-0.069,0.057-0.053,0.111-0.11,0.169-0.164,0.067-0.059,0.143-0.119,0.233-0.147l0.3,0.3c-0.116,0.039-0.213,0.109-0.304,0.188-0.152,0.133-0.352,0.397-0.582,0.273,0.112,0.212-0.046,0.375-0.188,0.518-0.239,0.233-0.477,0.267-0.726,0.019l-0.477-0.477,1.399-1.4,0.289,0.289zm-0.66,0.934-0.137-0.137-0.364,0.365,0.127,0.127c0.137,0.137,0.236,0.021,0.34-0.083,0.092-0.092,0.144-0.163,0.034-0.272m1.472,2.679-0.657-0.659,1.398-1.399,0.658,0.658-0.256,0.256-0.372-0.373-0.339,0.339,0.335,0.335-0.248,0.248-0.335-0.335-0.303,0.303,0.373,0.373-0.254,0.254zm-0.065-2.353-0.338,0.339,0.334,0.335-0.247,0.248-0.335-0.336-0.304,0.304,0.373,0.373-0.253,0.254-0.658-0.659,1.398-1.4,0.658,0.659-0.255,0.256-0.373-0.373zm0.705,2.485,1.145-1.146,0.283,0.284-1.145,1.146,0.228,0.228-0.254,0.253-0.741-0.741,0.254-0.254,0.23,0.23z" fill-rule="nonzero" fill="#000"/>
    </g>
   </g>
  </g>
 </g>
</svg>
