<svg version="1.1" viewBox="0 0 819.33 333.39" xml:space="preserve" xmlns="http://www.w3.org/2000/svg">
<style type="text/css">
	.st0{fill:#DC3935;}
</style>
<g transform="translate(-.36667 -1.5)" fill="#dc3935">
	<path class="st0" d="m706.7 83.6c9.2 0.6 23.9 6.5 27.1 19 2.6 10.2 1.4 20.1-2.4 29.9-1.1 2.8-2.6 5.1-4.4 7.5-3.1 4.2-4.8 5.5-8.5 8.6-4 3.4-14.6 8.6-19.6 10.3-8.9 3.1-9 2.7-18.9 4.4l-11.2 0.7c-6.9 0-6 0.8-10-1.9 0-7.5 10-53.3 12-64.5 1.8-9.8-11.5-7.6-25.7-7.6-6.5 0-40.3 0.4-43.7 0.9-14.9 2.2-17.6 9.1-20.5 23.7l-10.8 55.2c-1.3 6.3-2.5 11.8-3.6 18.3-1.1 6.6-6.2 19.1 5.2 23.5 5.9 2.3 53.9 1.3 64.8 1.3l31.3-0.5c7.2 0 14.1-0.9 20.9-1.4l9.6-1.4c3.3-0.5 6.1-0.9 9.3-1.6 14.1-2.8 21.7-5.1 34.4-9.8 7.8-2.9 15.6-6.4 22.7-10.5 16.6-9.7 30.6-19.2 42.1-34.9 6.1-8.4 11.1-19 12.9-31.3l-0.4-20.3c-1.4-11-3.9-13.1-5.2-17.2 0-1.9 0.1-0.3-0.5-0.5-0.8-5.3-8.1-13.5-11.3-17.7-4.5-5.7-17.9-14.5-24.8-18-25.2-12.5-54.6-16.1-84.1-16.1-25.6 0-197.3-0.6-200.2 0.3-3.9 1.2-3.8 5-4.7 9.5l-7 35.7c-0.7 3.7-1.5 7.9-2.3 12-1.1 5.6-0.9 7.9-3.3 11.4-9.5 0-59.7 0.7-64.6-0.5-1-4.2 1.2-11.7 2.2-16.3l6.4-32.5c4.2-21 5.6-19.5-13.8-19.5-9.9 0-13 0-20.4 3.8l-9.5 5.2c-2.2 1.1-4 2.3-6.2 3.3l-12.7 6.9c-13.8 6.9-30.5 16.5-44.5 23.9-1.2 0.6-2.1 1-3.2 1.6l-9.5 5.2c-6.1 3.1-4.8 2.5-6.9 12.6-1.7 8.6 1.2 8.7 9.2 8.7 22.2 0 21.2-2.9 18.7 9.7-0.7 3.4-1.2 6.1-1.9 9.5l-14.7 75c-0.7 3.4-1.4 6.2-1.9 9.5-0.6 3.6 2.1 5.6 5.1 6h45.1c9.9 0 17.6 1 25.7-1.8 1.6-0.6 2.3-1.2 3.6-2.1 7.6-5.1 9.2-14.5 10.9-22.8l7.6-37.5c0.5-2 0.8-2.5 2.1-3.6 2.1-1.8 11.6-1.1 16-1.1 6.9 0 41.5-0.9 45.1 0.5 5.1 0.7 2.7 8.3 2.3 10.3l-7.8 39.3c-4.1 20.1-2.4 18.8 24.5 18.8 8.1 0 40.2 0.5 45.7-0.8 2-0.5 3.9-1.2 5.4-2.2 5-3.3 7.6-8.4 9.5-14.2 2.9-8.7 6.4-28.6 8.4-38.6l2.7-12.5c0.3-5.6 6.4-37.8 9.2-44.5 7.6-18.7 19.4-16.8 36.4-16.8h79.8c5.5 0.1 17.6 0 26.8 0.5z" Googl="true"/>
	<path class="st0" d="m195.6 270.3c0 10.6 2.2 18.9 5.5 26.8 5.9 13.8 17.8 25.2 31.3 31.8 16.3 8 37.9 7.9 54.2 0.2 5.3-2.5 7.7-4.1 12.1-7.4 4.9-3.7 9.9-9 13.5-14 12.2-16.8 14.6-38.1 8-57.9-4.6-13.7-16.6-28.5-29-34.7l-5.4-2.7c-22.6-11.3-52.9-5.3-71.1 12.9-9.1 9.1-14.2 18.3-17.3 30.7-1 4.1-1.8 9-1.8 14.3z"/>
	<path class="st0" d="m120.6 189.1c0 13.5 2.1 21.7 11.8 31.5 10.2 10.3 27.7 12.2 42.4 8.4 2.1-0.5 4-1.3 6.1-2 12.3-4 26-14.9 33.6-24.8 12-15.8 19.6-39.9 9.2-57.8-0.4-0.8-1.3-2.2-1.8-2.9-0.6-0.9-1.3-1.8-2.1-2.6-0.6-0.6-0.6-0.5-1.1-1.3l-2.2-2.1c-1.6-1.2-0.8-1.2-3.9-3.2-12.6-8.4-26-8.1-40.3-4.6l-11.6 4.5c-1.2 0.7-1.2 0.8-2.4 1.4-5.8 3.2-11.8 7.4-16.4 12.1-5.5 5.5-10.3 11.4-14 18.3-3.1 5.8-7.3 16.7-7.3 25.1z"/>
	<path class="st0" d="m167.1 92.2c0 10.2 4.6 17.1 12.4 22.2 2.2 1.4 4.7 2.8 7 3.9 2.2 1 5.1 1.9 7.8 2.7 3.4 1 5.5 1.1 9.2 1.7 6.3 1 13.5 0.7 20.1-0.1 15.4-1.9 33.6-9.1 42.9-21.7 6.9-9.3 8.5-20.3 1.1-30-15-19.7-50.7-18.9-71.1-10.6-12.8 5.3-29.4 16.8-29.4 31.9z"/>
	<path class="st0" d="m47 223.3c0 15.9 2.9 31.7 15.2 40.4 16.4 11.7 33.3-2.2 42.8-16.2 6.8-10.2 11.9-26.8 11.9-39 0-12-0.5-21.4-6.9-32-4-6.5-11.2-13.1-19.2-13.1-11.2 0-17.9 3.9-25.5 12-10.9 11.3-18.3 32.5-18.3 47.9z"/>
	<path class="st0" d="m61.2 121.7c0 11.1 7 18.5 17.6 18.5 10.4 0 18.5-2.6 26.3-7.4 6.5-4 11.7-7.1 17.5-12.9l5.7-5.7c0.9-1 0.8-1.2 1.7-2.1 6.2-6.9 14.8-21.2 14.8-31.2 0-5.9-0.5-12-5.5-15.9-12.9-10-30.5-1.6-42.5 5.4-3.3 2-6.3 4.6-9 6.7-3.5 2.8-9.5 8.4-12 11.8-1 1.4-2.2 2.8-3.3 4.3-5.2 7.2-11.3 17.9-11.3 28.5z"/>
	<path class="st0" d="m0.4 200.5c0 5-0.3 9 0.9 13.8 0.9 3.6 3 8 5.8 10.3 3.2 2.6 5.7 2.5 9.4 2.5 3.1 0 5.8-1.8 7.9-3 1.6-0.9 1.7-1.3 3-2.2 2.7-2 5.9-6 7.9-8.7 3-3.9 6.2-10 7.9-14.4 5-12.5 8.8-29.9 2.8-42.6-5.3-11.2-16.1-9.4-25-1.9-11.8 10.1-20.6 31-20.6 46.2z"/>
	<path class="st0" d="m156.7 35.7c0 6.5 1.7 10.1 8.4 13.5 17.4 8.7 47.9 1.3 63-11.4 5.6-4.8 8.9-8.9 8.9-16.7 0-4.9-4.5-8.8-7.9-10.6-14.7-7.9-39.6-2.2-53.2 4.6-4.4 2.2-8.2 4.9-11.9 8-2.5 1.9-7.3 8.4-7.3 12.6z"/>
	<path class="st0" d="m0.9 135v2.9c0 14.5 14.5 15.3 24.3 5.3 9.3-9.4 18.9-22.7 18.9-39.5 0-4.2-1.2-7.1-2.8-9.5-1.5-2.1-5.2-4.2-8.8-3.5-4.6 0.8-9.2 3.2-12.3 6.3l-1.7 1.7c-0.5 0.5-0.3 0.2-0.8 0.6-8.3 7.3-16.8 24.8-16.8 35.7z"/>
	<path class="st0" d="m99.2 30.5c0 17.5 26.1 11.2 35.9 7 3.5-1.5 5.3-2.4 8.2-4.1 7-4.1 17.1-12.9 17.1-21.4 0-8.6-9.9-10.5-17.1-10.5-12.7 0-28.4 7.8-37.6 17-2.4 2.4-6.5 7.4-6.5 12z"/>
	<path class="st0" d="m36.5 73.7c0 14.6 18.6 7.1 25.6 2.8l3.1-2.1c10.6-7.8 25-21.2 25-34.9 0-5.4-4.3-7.6-9.5-7.6-7.1 0-16.7 5.9-21.9 9.9-3.1 2.3-9 7.4-11.1 10.2-1 1.4-1.4 1.6-2.4 2.8-3.5 4.7-8.8 12.5-8.8 18.9z"/>
	
		<path class="st0" d="m399.4 291.4c-0.2 0.1-0.4 0.2-0.6 0.2h-6.9c-0.2 0-0.4-0.1-0.6-0.3s-0.2-0.5-0.2-0.7v-21.7c0-0.3-0.1-0.4-0.3-0.4-0.1 0-0.3 0.1-0.4 0.4l-4.7 8.6c-0.3 0.6-0.9 0.9-1.6 0.9h-4.2c-0.7 0-1.2-0.3-1.6-0.9l-4.7-8.6c-0.1-0.2-0.3-0.4-0.4-0.4-0.2 0-0.3 0.1-0.3 0.4v21.7c0 0.3-0.1 0.5-0.2 0.7-0.2 0.2-0.4 0.3-0.6 0.3h-6.9c-0.2 0-0.4-0.1-0.6-0.2s-0.3-0.3-0.3-0.6v-36.2c0-0.6 0.2-1 0.5-1.3s0.8-0.5 1.4-0.5h4.9c1 0 1.8 0.5 2.3 1.4l8 14.8c0.2 0.5 0.4 0.7 0.6 0.7 0.1 0 0.3-0.2 0.6-0.7l8-14.8c0.5-0.9 1.2-1.4 2.3-1.4h4.9c0.6 0 1 0.2 1.4 0.5 0.3 0.3 0.5 0.8 0.5 1.3v36.1c0 0.4-0.1 0.6-0.3 0.7z"/>
		<path class="st0" d="m435.6 284.4c-0.8 1.9-1.9 3.5-3.2 4.6-1.4 1.1-2.9 1.9-4.8 2.4-1.8 0.5-3.8 0.7-5.9 0.7s-4-0.2-5.9-0.7c-1.8-0.5-3.4-1.2-4.8-2.4-1.4-1.1-2.4-2.7-3.2-4.6s-1.2-4.4-1.2-7.4v-23.2c0-0.3 0.1-0.5 0.3-0.7s0.5-0.3 0.7-0.3h6.8c0.3 0 0.5 0.1 0.7 0.3s0.3 0.4 0.3 0.7v23.2c0 1.3 0.1 2.5 0.3 3.4 0.2 1 0.5 1.7 1 2.3s1.1 1.1 1.9 1.4 1.8 0.4 2.9 0.4c1.2 0 2.2-0.1 2.9-0.4 0.8-0.3 1.4-0.7 1.9-1.4 0.5-0.6 0.8-1.4 1-2.3 0.2-1 0.3-2.1 0.3-3.4v-23.2c0-0.3 0.1-0.5 0.3-0.7s0.5-0.3 0.7-0.3h6.8c0.3 0 0.5 0.1 0.8 0.3 0.2 0.2 0.3 0.4 0.3 0.7v23.2c0.3 3.1-0.1 5.5-0.9 7.4z"/>
		<path class="st0" d="m468.7 280.7c0 1.4-0.2 2.8-0.7 4.1-0.5 1.4-1.3 2.6-2.4 3.6-1.1 1.1-2.6 2-4.4 2.6-1.8 0.7-4 1-6.7 1-2.1 0-3.9-0.1-5.5-0.3s-3-0.5-4.3-0.8c-0.3-0.1-0.5-0.2-0.7-0.4s-0.3-0.4-0.3-0.7v-5.1c0-0.4 0.1-0.6 0.3-0.8 0.2-0.1 0.4-0.2 0.7-0.2h0.2c0.5 0.1 1.2 0.1 2.2 0.2 0.9 0.1 1.9 0.1 2.8 0.2 1 0.1 1.9 0.1 2.8 0.2s1.6 0.1 2.1 0.1c1.8 0 3-0.3 3.7-0.9 0.6-0.6 1-1.5 1-2.8 0-0.8-0.2-1.4-0.7-2-0.5-0.5-1.4-1.2-2.7-2l-7.2-4.3c-1.2-0.7-2.2-1.5-3-2.2-0.8-0.8-1.4-1.6-1.9-2.4s-0.8-1.7-1-2.6-0.3-1.8-0.3-2.7c0-1.4 0.2-2.7 0.7-4 0.4-1.2 1.2-2.3 2.2-3.2s2.4-1.6 4.1-2.2c1.7-0.5 3.8-0.8 6.3-0.8 0.9 0 2 0 3 0.1 1.1 0.1 2.1 0.2 3.1 0.3s1.9 0.2 2.8 0.4c0.9 0.1 1.5 0.3 2 0.4 0.2 0.1 0.4 0.2 0.5 0.3 0.2 0.1 0.2 0.3 0.2 0.6v5.3c0 0.2-0.1 0.5-0.2 0.6-0.1 0.2-0.4 0.3-0.7 0.3h-0.1c-0.4 0-1-0.1-1.8-0.1-0.9-0.1-1.8-0.1-2.9-0.2s-2.2-0.1-3.3-0.2-2.1-0.1-3-0.1c-1.5 0-2.5 0.2-3.1 0.7s-0.9 1.1-0.9 2.1c0 0.4 0.1 0.7 0.2 1s0.3 0.5 0.5 0.8c0.3 0.3 0.6 0.5 1.1 0.8s1 0.6 1.7 1l6.7 3.6c2.7 1.5 4.6 3.1 5.5 4.8 0.9 1.8 1.4 3.7 1.4 5.9z"/>
		<path class="st0" d="m483.2 291.3c-0.2 0.2-0.4 0.3-0.7 0.3h-7c-0.3 0-0.5-0.1-0.7-0.3s-0.3-0.5-0.3-0.7v-36.6c0-0.7 0.3-1 0.9-1h7c0.7 0 1 0.3 1 1v36.6c0 0.2-0.1 0.5-0.2 0.7z"/>
		<path class="st0" d="m513.9 290.8c-0.2 0.2-0.5 0.3-0.9 0.4-0.6 0.2-1.5 0.4-2.9 0.6s-3 0.3-4.8 0.3c-2 0-3.9-0.3-5.7-0.8-1.9-0.6-3.5-1.5-4.9-2.8s-2.6-3-3.4-5.1c-0.9-2.1-1.3-4.7-1.3-7.8v-6.6c0-3.1 0.4-5.7 1.3-7.8s2-3.8 3.4-5.1 3.1-2.2 4.9-2.8c1.9-0.6 3.8-0.8 5.7-0.8 1.8 0 3.5 0.1 4.8 0.3 1.4 0.2 2.4 0.4 2.9 0.6 0.4 0.1 0.7 0.2 0.9 0.4 0.2 0.1 0.3 0.4 0.3 0.8v5.1c0 0.7-0.3 1-1 1h-0.2c-1-0.1-2.2-0.2-3.5-0.3s-2.7-0.2-4.2-0.2c-0.9 0-1.7 0.1-2.5 0.4s-1.5 0.7-2.1 1.4-1 1.6-1.4 2.7c-0.3 1.1-0.5 2.6-0.5 4.3v6.5c0 1.7 0.2 3.2 0.5 4.3s0.8 2 1.4 2.7 1.3 1.1 2.1 1.4 1.6 0.4 2.5 0.4c1.5 0 2.9-0.1 4.2-0.2s2.5-0.2 3.5-0.3h0.2c0.7 0 1 0.3 1 1v5c-0.1 0.6-0.2 0.8-0.3 1z"/>
		<path class="st0" d="m558.7 260c-0.2 0.2-0.5 0.3-0.8 0.3h-8.4v30.3c0 0.3-0.1 0.5-0.3 0.7s-0.5 0.3-0.7 0.3h-6.8c-0.3 0-0.5-0.1-0.7-0.3s-0.3-0.5-0.3-0.7v-30.3h-8.5c-0.3 0-0.5-0.1-0.7-0.3s-0.3-0.4-0.3-0.7v-5.4c0-0.3 0.1-0.5 0.3-0.7s0.5-0.3 0.7-0.3h25.8c0.3 0 0.5 0.1 0.8 0.3 0.2 0.2 0.3 0.4 0.3 0.7v5.4c-0.1 0.3-0.2 0.5-0.4 0.7z"/>
		<path class="st0" d="m585.4 291.4c-0.9 0.1-2.1 0.3-3.6 0.4-1.5 0.2-3.7 0.2-6.5 0.2-1.7 0-3.3-0.1-4.8-0.4s-2.9-0.8-4.1-1.6-2.1-1.9-2.8-3.4-1-3.4-1-5.7v-17.3c0-2.4 0.3-4.3 1-5.7 0.7-1.5 1.6-2.6 2.8-3.4s2.5-1.3 4.1-1.6c1.5-0.3 3.2-0.4 4.8-0.4 1.4 0 2.6 0 3.7 0.1s2 0.1 2.8 0.2 1.5 0.1 2.1 0.2 1.1 0.1 1.5 0.2c0.7 0.1 1 0.5 1 1v4.8c0 0.3-0.1 0.5-0.3 0.7s-0.5 0.3-0.7 0.3h-10.6c-1.2 0-2.1 0.3-2.6 0.8s-0.8 1.4-0.8 2.8v4.7h13.5c0.3 0 0.5 0.1 0.7 0.3s0.3 0.5 0.3 0.7v4.9c0 0.3-0.1 0.5-0.3 0.7s-0.5 0.3-0.7 0.3h-13.5v5.5c0 1.4 0.3 2.3 0.8 2.8s1.4 0.8 2.6 0.8h10.6c0.3 0 0.5 0.1 0.7 0.3s0.3 0.5 0.3 0.7v4.8c0 0.8-0.3 1.2-1 1.3z"/>
		<path class="st0" d="m614.1 291.4c-0.4 0.1-1 0.2-1.7 0.3s-1.4 0.1-2.2 0.2-1.6 0.1-2.4 0.2c-0.8 0-1.5 0.1-2.2 0.1-1.7 0-3.3-0.1-4.8-0.4s-2.9-0.8-4.1-1.6-2.1-1.9-2.8-3.4-1-3.4-1-5.7v-27.1c0-0.3 0.1-0.5 0.3-0.7s0.5-0.3 0.7-0.3h6.8c0.3 0 0.5 0.1 0.7 0.3s0.3 0.5 0.3 0.7v26.9c0 1.4 0.3 2.3 0.8 2.8s1.4 0.8 2.6 0.8h8.9c0.3 0 0.5 0.1 0.7 0.3s0.3 0.5 0.3 0.7v4.8c0.2 0.6-0.2 0.9-0.9 1.1z"/>
		<path class="st0" d="m641.7 291.4c-0.9 0.1-2.1 0.3-3.6 0.4-1.5 0.2-3.7 0.2-6.5 0.2-1.7 0-3.3-0.1-4.8-0.4s-2.9-0.8-4.1-1.6-2.1-1.9-2.8-3.4-1-3.4-1-5.7v-17.3c0-2.4 0.3-4.3 1-5.7 0.7-1.5 1.6-2.6 2.8-3.4s2.5-1.3 4.1-1.6c1.5-0.3 3.2-0.4 4.8-0.4 1.4 0 2.6 0 3.7 0.1s2 0.1 2.8 0.2 1.5 0.1 2.1 0.2 1.1 0.1 1.5 0.2c0.7 0.1 1 0.5 1 1v4.8c0 0.3-0.1 0.5-0.3 0.7s-0.5 0.3-0.7 0.3h-10.6c-1.2 0-2.1 0.3-2.6 0.8s-0.8 1.4-0.8 2.8v4.7h13.6c0.3 0 0.5 0.1 0.7 0.3s0.3 0.5 0.3 0.7v4.9c0 0.3-0.1 0.5-0.3 0.7s-0.5 0.3-0.7 0.3h-13.5v5.5c0 1.4 0.3 2.3 0.8 2.8s1.4 0.8 2.6 0.8h10.6c0.3 0 0.5 0.1 0.7 0.3s0.3 0.5 0.3 0.7v4.8c0 0.8-0.4 1.2-1.1 1.3z"/>
		<path class="st0" d="m679.9 253.8v0.1 0.2l-7.8 32.3c-0.3 1.2-0.8 2.3-1.4 3-0.6 0.8-1.3 1.3-2.1 1.7s-1.6 0.7-2.5 0.8-1.8 0.2-2.7 0.2-1.8-0.1-2.7-0.2-1.7-0.4-2.5-0.8-1.5-1-2.1-1.7c-0.6-0.8-1-1.8-1.4-3l-7.8-32.3v-0.1-0.1c0-0.2 0.1-0.4 0.3-0.6s0.4-0.2 0.7-0.2h7.2c0.3 0 0.5 0.1 0.7 0.3s0.3 0.4 0.4 0.7l6.5 30c0.1 0.5 0.3 0.8 0.7 0.8s0.6-0.3 0.7-0.8l6.5-30c0.1-0.3 0.2-0.5 0.3-0.7 0.2-0.2 0.4-0.3 0.6-0.3h7.3c0.8-0.2 1.1 0.1 1.1 0.7z"/>
		<path class="st0" d="m693.6 291.3c-0.2 0.2-0.4 0.3-0.7 0.3h-7c-0.3 0-0.5-0.1-0.7-0.3s-0.3-0.5-0.3-0.7v-36.6c0-0.7 0.3-1 0.9-1h7c0.7 0 1 0.3 1 1v36.6c0.1 0.2 0 0.5-0.2 0.7z"/>
		<path class="st0" d="m725.9 280.7c0 1.4-0.2 2.8-0.7 4.1-0.5 1.4-1.3 2.6-2.4 3.6-1.1 1.1-2.6 2-4.4 2.6-1.8 0.7-4 1-6.7 1-2.1 0-3.9-0.1-5.5-0.3s-3-0.5-4.3-0.8c-0.3-0.1-0.5-0.2-0.7-0.4s-0.3-0.4-0.3-0.7v-5.1c0-0.4 0.1-0.6 0.3-0.8 0.2-0.1 0.4-0.2 0.7-0.2h0.2c0.5 0.1 1.2 0.1 2.2 0.2 0.9 0.1 1.9 0.1 2.8 0.2 1 0.1 1.9 0.1 2.8 0.2s1.6 0.1 2.1 0.1c1.8 0 3-0.3 3.7-0.9 0.6-0.6 1-1.5 1-2.8 0-0.8-0.2-1.4-0.7-2-0.5-0.5-1.4-1.2-2.7-2l-7.2-4.3c-1.2-0.7-2.2-1.5-3-2.2-0.8-0.8-1.4-1.6-1.9-2.4s-0.8-1.7-1-2.6-0.3-1.8-0.3-2.7c0-1.4 0.2-2.7 0.7-4 0.4-1.2 1.2-2.3 2.2-3.2s2.4-1.6 4.1-2.2c1.7-0.5 3.8-0.8 6.3-0.8 0.9 0 2 0 3 0.1 1.1 0.1 2.1 0.2 3.1 0.3s1.9 0.2 2.8 0.4c0.9 0.1 1.5 0.3 2 0.4 0.2 0.1 0.4 0.2 0.5 0.3 0.2 0.1 0.2 0.3 0.2 0.6v5.3c0 0.2-0.1 0.5-0.2 0.6-0.1 0.2-0.4 0.3-0.7 0.3h-0.1c-0.4 0-1-0.1-1.8-0.1-0.9-0.1-1.8-0.1-2.9-0.2s-2.2-0.1-3.3-0.2-2.1-0.1-3-0.1c-1.5 0-2.5 0.2-3.1 0.7s-0.9 1.1-0.9 2.1c0 0.4 0.1 0.7 0.2 1s0.3 0.5 0.5 0.8c0.3 0.3 0.6 0.5 1.1 0.8s1 0.6 1.7 1l6.7 3.6c2.7 1.5 4.6 3.1 5.5 4.8 0.9 1.8 1.4 3.7 1.4 5.9z"/>
		<path class="st0" d="m740.4 291.3c-0.2 0.2-0.4 0.3-0.7 0.3h-7c-0.3 0-0.5-0.1-0.7-0.3s-0.3-0.5-0.3-0.7v-36.6c0-0.7 0.3-1 0.9-1h7c0.7 0 1 0.3 1 1v36.6c0 0.2-0.1 0.5-0.2 0.7z"/>
		<path class="st0" d="m777.8 275.4c0 3-0.4 5.6-1.2 7.7s-1.9 3.8-3.3 5.2c-1.4 1.3-3 2.3-4.9 2.9s-3.9 0.9-6 0.9-4.2-0.3-6-0.9c-1.9-0.6-3.5-1.6-4.9-2.9s-2.5-3.1-3.3-5.2-1.2-4.7-1.2-7.7v-6.2c0-3 0.4-5.6 1.2-7.7s1.9-3.8 3.3-5.2c1.4-1.3 3-2.3 4.9-2.9s3.9-0.9 6-0.9 4.2 0.3 6 0.9c1.9 0.6 3.5 1.6 4.9 2.9s2.5 3.1 3.3 5.2 1.2 4.7 1.2 7.7zm-8.9-6.3c0-3.2-0.5-5.5-1.6-6.8-1.1-1.4-2.7-2.1-4.9-2.1s-3.8 0.7-4.8 2.1-1.6 3.7-1.6 6.8v6.2c0 3.2 0.5 5.5 1.6 6.8 1 1.4 2.7 2.1 4.8 2.1 2.2 0 3.8-0.7 4.9-2.1s1.6-3.7 1.6-6.8z"/>
		<path class="st0" d="m814.3 291c-0.4 0.4-0.9 0.6-1.4 0.6h-5.1c-0.6 0-1-0.1-1.5-0.3-0.4-0.2-0.8-0.6-1.2-1.3l-11.9-20.5c-0.2-0.3-0.3-0.4-0.5-0.4s-0.3 0.1-0.3 0.4v21.1c0 0.3-0.1 0.5-0.3 0.7s-0.5 0.3-0.7 0.3h-6.1c-0.3 0-0.5-0.1-0.7-0.3s-0.3-0.5-0.3-0.7v-35.6c0-0.6 0.2-1 0.6-1.4s0.8-0.6 1.4-0.6h5.3c0.5 0 0.9 0.1 1.2 0.4s0.6 0.7 0.9 1.2l12.3 21.4c0.2 0.3 0.3 0.4 0.4 0.4 0.2 0 0.3-0.2 0.3-0.5v-22c0-0.3 0.1-0.5 0.3-0.7s0.5-0.3 0.7-0.3h6.1c0.3 0 0.5 0.1 0.7 0.3s0.3 0.4 0.3 0.7v35.7c0.1 0.6-0.1 1-0.5 1.4z"/>
	
</g>
</svg>
