<svg version="1.1" viewBox="0 0 800 445.29" xml:space="preserve" xmlns="http://www.w3.org/2000/svg">
<style type="text/css">
	.st0{fill:#98181E;}
</style>
<g transform="scale(2.1164)">
	
		<path class="st0" d="m30.7 166.6h6.8c0.6 0 1.1 0.3 1.4 0.8l13.6 26.6 11.2-26.5c0.3-0.5 0.7-0.9 1.4-0.9h6.6c0.5 0 0.7 0.1 0.8 0.4 0.2 0.3 0.1 0.5 0 0.9l-16 35.1c-1.1 2.5-2.5 4.3-4.2 5.5-1.6 1.2-3.7 1.8-6.2 1.8h-8.3c-0.7 0-1.1-0.4-1.1-1.1v-5c0-0.7 0.4-1.1 1.1-1.1h7.6c1.4 0 2.3-0.5 3-1.5l-18.5-33.6c-0.5-0.9-0.2-1.4 0.8-1.4z"/>
		<path class="st0" d="m121.4 168-16.9 16.7 18.2 24.3c0.3 0.4 0.4 0.7 0.3 1s-0.5 0.4-0.9 0.4h-7.4c-0.5 0-1-0.3-1.4-0.7l-14.9-19.8-5.7 5.6v13.7c0 0.7-0.4 1.1-1.1 1.1h-5.9c-0.7 0-1.1-0.4-1.1-1.1v-41.5c0-0.7 0.4-1.1 1.1-1.1h5.9c0.7 0 1.1 0.4 1.1 1.1v18.9l19.5-19.4c0.4-0.4 0.8-0.5 1.4-0.5h7.2c0.5 0 0.8 0.2 0.9 0.4 0.2 0.2 0.1 0.5-0.3 0.9z"/>
		<path class="st0" d="m135.3 209.2v-41.5c0-0.7 0.4-1.1 1.1-1.1h19.1c4.7 0 8.4 1.2 11.1 3.5 2.8 2.3 4.2 5.6 4.2 9.7v1.4c0 4.1-1.4 7.2-4.2 9.7-2.8 2.4-6.5 3.6-11.1 3.6h-12.2v14.6c0 0.7-0.4 1.1-1.1 1.1h-5.8c-0.7 0.1-1.1-0.2-1.1-1zm27.3-27.9v-1.3c0-2.2-0.7-3.8-2.3-5.1-1.4-1.3-3.5-1.8-6.1-1.8h-11.1v14.9h11.1c2.6 0 4.6-0.6 6.1-1.8 1.6-1.1 2.3-2.8 2.3-4.9z"/>
		<path class="st0" d="m192.6 166.6h7c0.6 0 1.1 0.3 1.4 0.9l16.9 41.6c0.2 0.4 0.2 0.7 0 0.9-0.2 0.3-0.5 0.4-0.9 0.4h-6.4c-0.5 0-1-0.3-1.3-0.9l-3.3-8.4h-20.4l-3.3 8.4c-0.3 0.5-0.6 0.9-1.3 0.9h-5.9c-0.5 0-0.7-0.1-0.9-0.4s-0.2-0.5 0-0.9l17-41.6c0.3-0.6 0.7-0.9 1.4-0.9zm-4.6 28.2h15.7l-7.9-20.6z"/>
		<path class="st0" d="m230.3 156.5v5.5c0 0.7-0.4 1.1-1.1 1.1h-5.8c-0.7 0-1.1-0.4-1.1-1.1v-5.5c0-0.7 0.4-1.1 1.1-1.1h5.8c0.7-0.1 1.1 0.3 1.1 1.1zm6.5 11.3v41.5c0 0.7-0.4 1.1-1.1 1.1h-5.9c-0.7 0-1.1-0.4-1.1-1.1v-41.5c0-0.7 0.4-1.1 1.1-1.1h5.9c0.7-0.1 1.1 0.4 1.1 1.1zm6.3-11.3v5.5c0 0.7-0.4 1.1-1.1 1.1h-5.8c-0.7 0-1.1-0.4-1.1-1.1v-5.5c0-0.7 0.4-1.1 1.1-1.1h5.8c0.7-0.1 1.1 0.3 1.1 1.1z"/>
		<path class="st0" d="m262.8 167.8v16.9h21v-16.9c0-0.7 0.4-1.1 1.1-1.1h5.9c0.7 0 1.1 0.4 1.1 1.1v41.5c0 0.7-0.4 1.1-1.1 1.1h-5.9c-0.7 0-1.1-0.4-1.1-1.1v-17.4h-21v17.4c0 0.7-0.4 1.1-1.1 1.1h-6c-0.7 0-1.1-0.4-1.1-1.1v-41.5c0-0.7 0.4-1.1 1.1-1.1h5.9c0.9-0.1 1.2 0.4 1.2 1.1z"/>
		<path class="st0" d="m322 166.6h7c0.6 0 1.1 0.3 1.4 0.9l16.9 41.6c0.2 0.4 0.2 0.7 0 0.9-0.2 0.3-0.5 0.4-0.9 0.4h-6.4c-0.5 0-1-0.3-1.3-0.9l-3.3-8.4h-20.4l-3.3 8.4c-0.3 0.5-0.6 0.9-1.3 0.9h-6c-0.5 0-0.7-0.1-0.9-0.4s-0.2-0.5 0-0.9l17-41.6c0.4-0.6 0.9-0.9 1.5-0.9zm-4.6 28.2h15.7l-7.9-20.6z"/>
	
</g>
<path class="st0" d="m266.67 177.78v88.889h-266.67v-88.889h88.889v-88.889h-88.889v-88.889h177.78v177.78zm444.44 0v-177.78h-177.78v88.889h88.889v88.889h-88.889v88.889h266.67v-88.889zm-266.67-88.889v-88.889h-88.889v88.889h-88.889v88.889h88.889v88.889h88.889v-88.889h88.889v-88.889z" stroke-width="2.1164" Googl="true"/>
</svg>
