<svg version="1.1" viewBox="0 0 800 396.53" xml:space="preserve" xmlns="http://www.w3.org/2000/svg">
	<style type="text/css">
		.st0{fill:#C70025;}
	</style>
	<path class="st0" d="m10.726 396.21c-7.2555 0-10.726-2.8391-10.726-7.2555v-99.054h5.0473c7.2555 0 10.726 2.8391 10.726 7.2555v99.054zm83.281 0c-7.2555 0-11.356-2.8391-11.356-7.2555v-47.634c0-7.571-5.6782-12.303-13.249-12.303h-11.356c-7.2555 0-11.672 4.7319-11.672 12.303v55.205h-3.1546c-7.2555 0-11.356-2.8391-11.356-7.2555v-72.555h4.7319c4.4164 0 8.2019 2.5237 8.2019 7.2555 5.0473-5.0473 11.987-7.2555 20.82-7.2555h2.2082c18.297 0 29.022 10.095 29.022 31.546v48.265zm50.789 0c-18.297 0-27.76-5.3628-27.76-26.814v-40.379h-12.618v-2.8391c0-6.3092 2.2082-9.7792 6.3092-9.7792h6.3092v-20.82c0-1.5773 1.2618-3.1546 3.1546-3.1546h8.5174c1.5773 0 3.1546 1.2618 3.1546 3.1546v20.82h25.868v2.8391c0 6.3092-2.2082 9.7792-6.3092 9.7792h-19.558v44.164c0 7.571 4.4164 10.726 11.672 10.726h9.4637c4.1009 0 6.3091 3.47 6.3091 9.7792v2.5237zm81.703-34.069h-44.795v9.4637c0 7.571 5.6782 12.303 13.249 12.303h30.284c3.7855 0 6.3092 2.8391 6.3092 8.8328v3.47h-35.016c-18.297 0-29.022-10.095-29.022-31.546v-16.719c0-21.451 10.726-31.546 29.022-31.546h6.9401c18.297 0 29.022 10.095 29.022 31.546v8.2019c0.31546 2.8391-2.8391 5.9937-5.9937 5.9937m-8.2019-21.136c0-7.571-5.6782-12.303-13.249-12.303h-10.095c-7.2555 0-13.249 4.7319-13.249 12.303v10.095h36.278zm72.871-11.987h-17.035c-7.2555 0-11.672 4.7319-11.672 12.303v55.205h-3.1546c-7.2555 0-11.356-2.8391-11.356-7.2555v-72.555h4.7319c4.4164 0 8.2019 2.5237 8.2019 7.2555 3.47-3.7855 7.2555-7.2555 14.826-7.2555h21.767v2.8391c0 5.9937-2.2082 9.4637-6.3092 9.4637m77.603 67.192c-7.2555 0-11.356-2.8391-11.356-7.2555v-47.634c0-7.571-5.6782-12.303-13.249-12.303h-11.356c-7.2555 0-11.672 4.7319-11.672 12.303v55.205h-3.1546c-7.2555 0-11.356-2.8391-11.356-7.2555v-72.555h4.7319c4.4164 0 8.2019 2.5237 8.2019 7.2555 5.0473-5.0473 11.987-7.2555 20.82-7.2555h2.2082c18.297 0 29.022 10.095 29.022 31.546v48.265zm74.132 0c-4.4164 0-8.2019-4.101-8.2019-8.8328-3.1546 5.0473-11.356 8.8328-19.243 8.8328h-3.7855c-18.297 0-29.022-9.7792-29.022-25.237v-1.8928c0-15.142 10.726-23.975 29.022-23.975h21.767v-6.3092c0-7.571-5.6782-10.095-11.672-10.095h-26.183c-4.101 0-6.3092-3.47-6.3092-9.7792v-2.5236h30.915c18.297 0 27.76 5.6782 27.76 27.129v52.681zm-9.7792-40.063h-23.028c-7.2555 0-12.934 4.7319-12.934 12.303v3.1546c0 7.571 5.6782 12.303 12.934 12.303h11.672c7.2555 0 11.672-4.7319 11.672-12.303zm62.461 40.063c-18.297 0-27.76-5.3628-27.76-26.814v-40.379h-12.618v-2.8391c0-6.3092 2.2082-9.7792 6.3092-9.7792h6.3091v-20.82c0-1.5773 1.2618-3.1546 3.1546-3.1546h8.5174c1.5773 0 3.1546 1.2618 3.1546 3.1546v20.82h25.868v2.8391c0 6.3092-2.2082 9.7792-6.3092 9.7792h-19.558v44.164c0 7.571 4.4164 10.726 11.672 10.726h9.4637c4.101 0 6.3092 3.47 6.3092 9.7792v2.5237zm38.17-90.852h-10.41c-3.1546 0-5.3628-2.5237-5.3628-5.3628v-4.4164c0-3.1546 2.5237-5.3628 5.3628-5.3628h10.41c3.1546 0 5.3628 2.5237 5.3628 5.3628v4.4164c0.31546 2.8391-2.2082 5.3628-5.3628 5.3628m-0.63091 90.852c-7.2555 0-11.356-2.8391-11.356-7.2555v-72.555h4.7319c7.2555 0 9.7792 2.8391 9.7792 7.2555v72.555zm54.574 0h-7.2555c-18.297 0-29.022-10.095-29.022-31.546v-16.719c0-21.451 10.726-31.546 29.022-31.546h6.9401c18.297 0 29.022 10.095 29.022 31.546v16.719c0.31545 21.451-10.41 31.546-28.707 31.546m14.511-55.205c0-7.571-5.6782-12.303-12.934-12.303h-10.095c-7.2555 0-12.934 4.7319-12.934 12.303v30.599c0 7.571 5.6782 12.303 12.934 12.303h10.095c7.2555 0 12.934-4.7319 12.934-12.303zm88.959 55.205c-7.2555 0-11.356-2.8391-11.356-7.2555v-47.634c0-7.571-5.6782-12.303-13.249-12.303h-11.356c-7.2555 0-11.672 4.7319-11.672 12.303v55.205h-3.1546c-7.2555 0-11.356-2.8391-11.356-7.2555v-72.555h4.7319c4.4164 0 8.2019 2.5237 8.2019 7.2555 5.0473-5.0473 11.987-7.2555 20.82-7.2555h2.2082c18.297 0 29.022 10.095 29.022 31.546v48.265zm74.132 0c-4.4164 0-8.2019-4.101-8.2019-8.8328-3.1546 5.0473-11.356 8.8328-19.243 8.8328h-3.7855c-18.297 0-29.022-9.7792-29.022-25.237v-1.8928c0-15.142 10.726-23.975 29.022-23.975h21.767v-6.3092c0-7.571-5.6782-10.095-11.672-10.095h-26.183c-4.1009 0-6.3092-3.47-6.3092-9.7792v-2.5236h30.915c18.297 0 27.76 5.6782 27.76 27.129v52.681zm-9.7792-40.063h-23.344c-7.2555 0-12.934 4.7319-12.934 12.303v3.1546c0 7.571 5.6782 12.303 12.934 12.303h11.672c7.2555 0 11.672-4.7319 11.672-12.303zm41.325 40.063c-7.2555 0-11.356-2.8391-11.356-7.2555v-101.89h3.1546c7.2555 0 11.356 2.8391 11.356 7.2555v101.89zm-619.24-396.21h-177.29v89.905h88.644v89.905h-88.644v89.905h265.93v-89.905h-88.644zm265.93 89.905v-89.905h-88.644v89.905h-88.644v89.905h88.644v89.905h88.644v-89.905h88.644v-89.905zm266.25 89.905v-179.81h-177.29v89.905h88.644v89.905h-88.644v89.905h265.93v-89.905z" stroke-width="3.1546"/>
</svg>
