<svg Googl="true" version="1.1" viewBox="0 0 800 220.44" xml:space="preserve" xmlns="http://www.w3.org/2000/svg">


<g opacity=".978"><g transform="matrix(.91623 0 0 .91623 .039813 -.0090434)" fill="#353535">
	<path class="st0" d="m209.3 76.8h-13.5v-27.9h13.5v-26.7h33.7v26.7h22v27.9h-22v43.9c0 6.5 2.7 9.2 10.2 9.2h12v28.4h-17c-22.7 0-38.7-9.7-38.7-38.2v-43.3z"/>
	<path class="st0" d="m271.1 48.9h33.7l15.5 78.3 18.5-78.3h35.4l18.7 77.8 15.2-77.8h31.7l-29.7 109.5h-37.2l-17.2-71.1-18 71.1h-36.9z"/>
	<path class="st0" d="m496.7 160.1c-32.2 0-55.4-21.7-55.4-56.4s22.7-56.4 55.4-56.4c31.9 0 54.6 21.2 54.6 54.6 0 3.2-0.2 6.5-0.5 9.7h-76.1c1.2 14.2 10 21 20.7 21 9.5 0 14.7-4.7 17.5-10.7h35.9c-5.5 21.5-24.7 38.2-52.1 38.2zm-21.7-67.1h41.9c0-12-9.5-19-20.7-19-10.8 0.3-19.2 6.8-21.2 19z"/>
	<path class="st0" d="m641.9 99c0-15-8.2-23.2-21-23.2-12.7 0-21 8.2-21 23.2v59.4h-33.7v-109.5h33.7v14.5c6.7-9.2 18.5-15.7 33.2-15.7 25.4 0 42.2 17.2 42.2 46.7v64.1h-33.4z"/>
	<path class="st0" d="m699 76.8h-13.5v-27.9h13.5v-26.7h33.7v26.7h22v27.9h-22v43.9c0 6.5 2.7 9.2 10.2 9.2h12v28.4h-17c-22.7 0-38.7-9.7-38.7-38.2v-43.3z"/>
	<path class="st0" d="m818.5 160.1c-32.2 0-55.4-21.7-55.4-56.4s22.7-56.4 55.4-56.4c31.9 0 54.6 21.2 54.6 54.6 0 3.2-0.2 6.5-0.5 9.7h-76.1c1.2 14.2 10 21 20.7 21 9.5 0 14.7-4.7 17.5-10.7h35.9c-5.2 21.5-24.7 38.2-52.1 38.2zm-21.7-67.1h41.9c0-12-9.5-19-20.7-19-10.7 0.3-19.2 6.8-21.2 19z"/>
</g><g transform="matrix(.91623 0 0 .91623 .039813 -.0090434)">
	<path class="st0" d="m85.3 12.7-71.4 64.1c-22 19.7-17.2 55.4 9 68.6l72.8 37.2c32.7 16.5 71.1-7 71.1-43.7v-90c0.1-42.2-50.1-64.6-81.5-36.2zm53.9 127.7c0 10.5-8.5 18.7-18.7 18.7-10.5 0-18.7-8.5-18.7-18.7v-38.9c0-4.2-2.2-8-6-10-4-2.2-17.2-7-23.5-10.2-3.7-2-6.2-5.7-6.2-10.2 0-3.2 1.5-6.2 3.7-8.5l30.2-27.2c4.5-4 9.7-6 15.5-6 3 0 6 0.5 9 1.7 2.7 1.2 5.5 2.7 7.7 5 3.2 3 7 8.5 7 17z" fill="#e33f24"/>
</g><g transform="scale(.98415 1.0161)" fill="#393939" opacity=".999" aria-label="ENSCHEDE"><path d="m550.01 215.47-18.616-27.43v27.43h-9.176v-44.691h8.1857l18.616 27.367v-27.367h9.1759v44.691z" stroke-width="1.6093"/><path d="m602.14 202.74q0 6.6414-5.1596 10.521-4.9558 3.6824-12.763 3.6824-11.338 0-17.651-6.1811l6.11-5.918q4.0734 3.9454 11.677 3.9454 8.5541 0 8.5541-5.7866 0-2.5645-1.4936-3.9454-1.3578-1.1836-4.277-1.6439l-5.8384-0.78907q-6.1779-0.85483-9.3687-3.8796-3.4623-3.3536-3.4623-9.2059 0-6.3784 4.4807-10.258 4.6164-3.9454 12.356-3.9454 9.776 0 15.614 5.4578l-5.9743 5.7208q-3.4623-3.222-9.9118-3.222-3.598 0-5.6347 1.7754-1.833 1.5782-1.833 4.1426 0 2.0384 1.4257 3.3536 1.6293 1.4466 4.4806 1.8412l5.7027 0.78908q6.11 0.85483 9.2329 3.6166 3.7339 3.4193 3.7339 9.9292z" stroke-width="1.6704"/><path d="m644.52 202.15q-1.2909 7.0359-6.3829 10.981-4.9485 3.8139-12.407 3.8139-8.1758 0-13.77-5.129-3.299-3.0248-4.1596-7.0359-0.86061-3.9454-0.86061-11.639 0-7.6935 0.86061-11.639 0.86061-4.0111 4.1596-7.0359 5.594-5.129 13.77-5.129 7.4586 0 12.407 3.8139 5.092 3.9454 6.3829 10.981h-10.112q-1.793-6.6414-8.6061-6.6414-4.1596 0-6.3829 2.433-2.5101 2.433-2.5101 13.217t2.5101 13.217q2.2233 2.433 6.3829 2.433 6.8132 0 8.6061-6.6414z" stroke-width="1.7168"/><path d="m677.36 215.47v-18.513h-16.836v18.513h-9.7106l2.6e-4 -45.047h9.7106l-2.6e-4 18.446h16.836l2.6e-4 -18.446h9.7106l-2.6e-4 45.047z" stroke-width="1.6944"/><path d="m697.08 215.47v-45.736h30.331v8.0557h-20.732v11.079h18.173v8.1538h-18.173v10.982h20.732v7.4648z" stroke-width="1.6303"/><path d="m743.87 177.58h7.3655c3.18 0 5.6118 0.93608 7.2954 2.8082 1.4497 1.5743 2.1746 5.5314 2.1746 11.871 0 6.5526-0.72486 10.616-2.1746 12.19-1.6835 1.8722-4.1153 2.8082-7.2954 2.8082l-7.3655-2.2e-4 -2e-5 7.9144h8.2774c5.6586 0 10.078-1.4467 13.258-4.34 2.4318-2.2551 3.975-5.1484 4.6297-8.68 0.28059-1.5743 0.42088-4.8719 0.42088-9.8927 0-4.9782-0.14029-8.2332-0.42088-9.765-0.65471-3.4039-2.198-6.2334-4.6297-8.4885-3.18-2.8933-7.5993-4.34-13.258-4.34h-18.028v45.506h9.7505z" stroke-width="1.6728"/><path d="m485.02 215.47v-45.736h30.331v8.0557h-20.732v11.079h18.173v8.1538h-18.173v10.982h20.732v7.4648z" stroke-width="1.6303"/><path d="m777.55 215.47v-45.736h30.331v8.0557h-20.732v11.079h18.173v8.1538h-18.173v10.982h20.732v7.4648z" stroke-width="1.6303"/></g></g></svg>
