<svg viewBox="0 0 800.02 524.12" xmlns="http://www.w3.org/2000/svg">
    <g transform="translate(-1191.4 -2048.2) scale(3.1758)">
        <path d="M502.52 646.04h124.07v125.31H502.52z" fill="#e4f4fc"/>
        <linearGradient id="a" x1="734.4" x2="734.4" y1="42.057" y2="168.84" gradientTransform="matrix(1 0 0 -1 -295.57 813.41)" gradientUnits="userSpaceOnUse">
            <stop stop-color="#1b181c" offset="0"/>
            <stop stop-color="#514e51" stop-opacity=".863" offset="1"/>
        </linearGradient>
        <path d="M375.15 771.36H502.5V646.05H375.15z" fill="url(#a)"/>
        <g stroke="#e4f4fc" stroke-miterlimit="3.864" stroke-width="3">
            <path d="M558.14 693.19l18.541-18.419h38.323l-18.419 18.419z" fill="#e75d53"/>
            <path d="M570.21 693.19h26.378l26.879 27.172h-26.068z" fill="#d1438f"/>
            <path d="M578.84 701.8l18.436 18.472v38.409l-18.436-18.419z" fill="#635faa"/>
            <path d="M578.84 713.96v26.309L551.65 767.2v-26.051z" fill="#008fd0"/>
            <path d="M570.22 722.5l-18.541 18.436h-38.324l18.42-18.436z" fill="#00a4c1"/>
            <path d="M558.05 722.5h-26.257l-26.982-27.19h26.05z" fill="#57ab36"/>
            <path d="M549.58 714.08l-18.438-18.558v-38.324l18.438 18.419z" fill="#f5c825"/>
            <path d="M549.54 701.8l.02-26.17 27.171-27.086v26.067L549.543 701.8z" fill="#f0a33a"/>
        </g>
        <path d="M549.54 693.21h8.614l6.007-6.025 6.077 6.025h8.614v8.596l6.077 6.077-6.077 6.077v8.546h-8.614l-6.077 6.076-6.075-6.076h-8.546v-8.615l-6.077-6.077 6.077-6.076z" fill="#e4f4fc" shape-rendering="crispEdges"/>
        <path d="M403.93 697.77v-3.8c0-4.01.445-11.286 5.205-11.594 4.124-.435 5.649 3.785 5.649 7.795 0 5.803-1.078 9.182-4.313 13.402l-6.813 8.438c-7.173 9.281-14.088 20.566-14.088 33.647v2.636h40.295v-14.228H406.62c.806-4.445 6.453-11.09 8.884-13.823l5.838-6.646c5.734-7.065 8.422-12.772 8.422-22.684 0-14.664-7.344-21.73-19.464-21.73-13.557 0-20.643 8.86-20.643 24.476v4.109h14.273m44.212 50.528l-1.346-62.093h.177l10.16 62.093h11.012l10.42-62.093h.16l-1.506 62.093h14.105v-79.202h-20.662l-7.902 46.78h-.16l-7.646-46.78h-20.838v79.202h14.026" fill="#fff"/>
    </g>
    <g style="font-feature-settings:normal;font-variant-caps:normal;font-variant-ligatures:normal;font-variant-numeric:normal" aria-label="MONDE">
        <path d="M149.627 410.823h-41.664l-18.26 55.815-6.737 23.021h-.355l-6.56-23.187-18.438-55.65H14.176v109.312h27.125V469.95l-.886-33.62h.354l28.899 83.804H94.31l28.898-83.805h.355l-.887 33.621v50.184h26.949zM255.766 405.681c-33.468 0-53.948 22.12-53.948 59.22 0 37.098 20.481 59.218 53.948 59.218 33.469 0 53.782-22.12 53.782-59.219 0-37.098-20.314-59.219-53.782-59.219zm0 23.514c15.818 0 24.477 12.192 24.477 35.705 0 23.514-8.659 35.706-24.477 35.706-15.984 0-24.643-12.192-24.643-35.706 0-23.513 8.659-35.705 24.643-35.705z"/>
        <g stroke-width="2.453">
            <path d="M463.72 410.823h-26.947v55.152l.709 20.537h-.177l-8.865-16.562-36.344-59.127h-33.863v109.312h26.948v-55.152l-.709-20.537h.177l8.865 16.562 36.344 59.127h33.863zM573.182 410.823H523.54v109.312h49.642c36.699 0 56.733-19.709 56.733-54.655s-20.034-54.655-56.733-54.655zm-3.014 87.78h-16.134v-66.249h16.134c19.856 0 28.543 11.263 28.543 33.124s-8.687 33.125-28.543 33.125zM713.535 498.109v-22.36h48.223v-20.702h-48.223v-22.193h60.634v-22.028h-91.127v109.312h93.432v-22.027z"/>
        </g>
    </g>
</svg>
