<svg data-name="Layer 2" version="1.1" viewBox="0 0 414.62 412.09" xmlns="http://www.w3.org/2000/svg">
 <defs>
  <style>.cls-1 {stroke-width: .7px;}
   .cls-1, .cls-2, .cls-3, .cls-4, .cls-5, .cls-6 {fill: #ed1c4e;}
   .cls-1, .cls-2, .cls-3, .cls-4, .cls-6 {stroke: #ed1c4e;}
   .cls-2 {stroke-width: .5px;}
   .cls-3 {stroke-width: .48px;}
   .cls-4, .cls-6 {stroke-width: .66px;}
   .cls-6 {fill-rule: evenodd;}</style>
 </defs>
 <g data-name="Layer 1">
  <g fill="#ed1c4e">
   <path d="m167.08 70c0 7.96-6.45 14.41-14.4 14.41s-14.4-6.45-14.4-14.41 6.45-14.39 14.4-14.39 14.4 6.45 14.4 14.39z"/>
   <path d="m203.51 70c0 7.96-6.45 14.41-14.4 14.41s-14.4-6.45-14.4-14.41 6.45-14.39 14.4-14.39 14.4 6.45 14.4 14.39z"/>
   <path d="m239.85 69.86c0 7.96-6.44 14.4-14.4 14.4s-14.4-6.44-14.4-14.4 6.45-14.39 14.4-14.39 14.4 6.44 14.4 14.39z"/>
   <path d="m276.27 69.86c0 7.96-6.43 14.4-14.39 14.4s-14.4-6.44-14.4-14.4 6.45-14.39 14.4-14.39 14.39 6.44 14.39 14.39z"/>
  </g>
  <path class="cls-4" d="m184.8 28.19v-10.84h17.01v-17.02h10.92v17.02h17.02v10.84h-17.02v17.09h-10.92v-17.09z"/>
  <path class="cls-1" d="m149.31 161.36c0.64 0.63-0.01 1.93-1.97 3.88-0.38 0.38-1.25 0.64-2.65 0.75 0.01 1.27-1.1 3-3.3 5.2-1.26 1.26-2.3 2.23-3.11 2.92l-0.76-0.19-0.85-0.85c-0.43-0.44-0.91-0.91-1.41-1.41-0.45-0.44-0.7-0.69-0.76-0.75-1-1.01-1.54-2.18-1.61-3.49-1.06 0.19-2.5-0.62-4.34-2.46-1.64-1.64-1.92-2.98-0.85-4.04 0.06-0.06 0.36-0.37 0.93-0.93 0.56-0.56 1.08-1.09 1.59-1.59l1.12-1.12 2.06-0.19c0.44-1.7 1.34-3.21 2.71-4.59l1.5-1.5 0.09-0.1c0.38-0.38 1.62 0.49 3.73 2.59 1.72 1.73 2.33 3.35 1.83 4.87 2.04 0.02 3.76 0.72 5.17 2.13l0.86 0.87z"/>
  <path class="cls-1" d="m286.72 161.36c0.64 0.63-0.01 1.93-1.97 3.88-0.38 0.37-1.26 0.63-2.65 0.75 0.02 1.27-1.08 2.99-3.29 5.2-1.25 1.25-2.29 2.23-3.11 2.91l-0.76-0.19-0.85-0.85c-0.44-0.44-0.9-0.91-1.41-1.41-0.45-0.44-0.69-0.7-0.76-0.76-1.01-1.01-1.55-2.16-1.62-3.49-1.07 0.19-2.5-0.63-4.34-2.46-1.64-1.64-1.91-2.98-0.85-4.05 0.05-0.05 0.37-0.36 0.93-0.93 0.56-0.55 1.08-1.09 1.59-1.59l1.13-1.12 2.06-0.19c0.43-1.7 1.34-3.21 2.71-4.59l1.59-1.59c0.38-0.38 1.62 0.49 3.72 2.59 1.73 1.73 2.33 3.35 1.83 4.87 2.04 0.02 3.76 0.72 5.16 2.13l0.87 0.87z"/>
  <path class="cls-2" d="m235.93 127.4c0.11 0.61 0.18 1.46 0.18 2.55 0 2.55-0.91 4.68-2.73 6.38 1.1 0.86 1.64 2.25 1.64 4.2 0 3.29-1.94 9.79-5.82 19.52-1.94 4.86-4.07 8.15-6.36 9.84 0 0.12 0.06 0.37 0.18 0.73v0.73c0 1.09-0.72 2.8-2.18 5.11-2.19 3.65-4.42 7.24-6.73 10.76-2.3 3.53-4.97 5.57-8 6.79 0.48 0.49 0.73 1.48 0.73 2.32 0 1.59-0.97 3.62-2.91 6.12-1.95 2.5-3.91 4.83-5.92 7.02-2 2.19-3.73 3.52-5.18 4.01v0.55c0 1.21-1.76 4.07-5.27 8.57l-3.46 4.38c-0.97 0.24-1.76 0.36-2.36 0.36-1.34 0-2.67-0.36-4-1.09l-0.37-1.1 0.37-0.18 0.18-8.96c0.49-0.61 1.03-1.09 1.63-1.46-1.33-1.71-2-3.97-2-6.77 0-2.56 0.42-5.18 1.28-7.86l4.37-7.5c0.97-0.86 2.06-1.29 3.27-1.29-0.12-0.37-0.18-0.85-0.18-1.46 0-1.71 1.11-4.51 3.31-8.41 3.93-6.83 6.5-11.46 7.73-13.9 1.35-1.46 2.51-2.2 3.5-2.2 0.49 0 0.86 0.06 1.1 0.18-0.6-1.09-0.91-2.36-0.91-3.82 2.91-5.09 5.75-10.43 8.54-16 0.73-2.06 2.19-3.39 4.37-4-0.97-0.84-1.45-2.06-1.45-3.63 0-0.61 0.15-2.16 0.46-4.64 0.3-2.48 0.45-4.64 0.45-6.45s-0.67-4.36-2-7.64c-0.73-0.24-1.1-1.21-1.1-2.91v-5.64c0.83-1.09 1.85-2 3.09-2.73-2.06-1.33-3.09-3.03-3.09-5.09 0-4.61 0.49-6.91 1.46-6.91 4.97 0.12 8.78 2.37 11.45 6.73 0.97-0.49 1.64-0.73 2-0.73 0.25 0 0.73 0.12 1.46 0.36 5.82 4.99 8.91 13.38 9.28 25.17zm-32.37-17.17v7.82c0 0.61-0.15 1.4-0.45 2.37-0.8 2.66-1.19 5.7-1.19 9.09v2.73c0 1.46-0.21 2.43-0.64 2.91-0.42 0.48-1.48 0.73-3.18 0.73s-3.16-0.16-4.36-0.46c-1.22-0.3-2.25-0.82-3.09-1.55-2.3 1.46-4.73 2.18-7.27 2.18-0.62 0-1.64-0.11-3.09-0.36-0.36-0.12-0.85-0.49-1.45-1.1 0-6.79 0.11-11.15 0.32-13.09 0.33-2.79 1.03-4.18 2.12-4.18h0.32c0.11 0.12 0.22-0.14 0.33-0.14v-3.13c0-3.64 1.15-6.76 3.46-9.37 2.3-2.6 5.09-4.03 8.37-4.27v-0.18c0-0.97 0.54-1.76 1.63-2.37 1.58-0.6 3.09-1.21 4.54-1.81 1.1-0.12 2.06-0.19 2.91-0.19 0.97 0 1.45 1.21 1.45 3.64s-0.79 5.03-2.36 8.18c0.3 0.24 0.84 1.09 1.64 2.55zm33.27 103.46c-0.74 1.21-1.35 2.06-1.82 2.55 1.21 0.61 1.82 1.88 1.82 3.82l-0.18 5.45c-1.58 1.21-3.28 1.82-5.09 1.82h-0.73c-0.25-0.12-0.48-0.5-0.73-0.5-5.7 0-11.76 0.14-18.18-0.23l-1.82-1.27c-0.86 0.94-1.76 1.61-2.73 2h-12.18c-0.97 0-1.45-0.42-1.45-1.28 0-0.36 0.11-0.73 0.35-1.1 3.87-6.36 7.39-9.83 10.56-10.45v-2.2c0-1.96 2.46-4.77 7.38-8.43h9.89c0.71 0 2.09 0.32 4.13 0.98l1.44 1.57c1.31-1.46 2.4-2.25 3.23-2.37l2.34-0.18 1.62 0.18c1.44 0.85 2.16 2.06 2.16 3.63v6z"/>
  <path class="cls-3" d="m13.93 258.47c0 0.59-0.24 1.09-0.72 1.49h-1.59c-2.3 0-3.7-0.4-4.18-1.2-0.86 0.8-1.87 1.2-3.02 1.2h-1.88c-1.54 0-2.3-1.04-2.3-3.12 0-1.59 0.45-3.47 1.34-5.66-0.89-0.89-1.34-2.03-1.34-3.42v-5.5l0.59-1.04c0.4-0.1 0.94-0.14 1.63-0.14 1.59 0 3.08 0.54 4.46 1.63l1.34-1.63h3.43c1.08 0 1.88 0.54 2.38 1.63v4.16c0 1.39-0.4 2.48-1.2 3.27 0.8 0.99 1.2 2.23 1.2 3.72v1.48c-0.1 1.09-0.15 2.14-0.15 3.13zm22.3 80c1.09 1.59 1.63 3.13 1.63 4.62 0 1.79-0.22 3.01-0.67 3.65-0.45 0.65-1.51 0.97-3.19 0.97-1.29 0-2.38-0.05-3.28-0.15-0.99-0.49-1.73-1.09-2.23-1.79-1.89 1.29-3.22 1.93-4.01 1.93h-2.09c-2.68 0-4.02-0.84-4.02-2.53v-20.55c0.32-2.19 1.02-4.12 2.09-5.81-0.96-0.2-1.65-0.64-2.09-1.34v-25.47c0.12-0.69 0.67-1.19 1.64-1.49-1.09-1.09-1.64-2.08-1.64-2.98v-17.13c0-1.39-0.07-3.2-0.22-5.43s-0.23-3.8-0.23-4.7c0-5.86 1-8.98 2.98-9.38l-0.67-0.45c-0.45-0.3-1.01-0.84-1.68-1.64-0.12-0.6-0.18-1.49-0.18-2.69 0-3.28 0.66-4.91 1.97-4.91 0.3 0 0.7-0.05 1.21-0.14h1.21c2.81 0 4.63 0.79 5.44 2.38 1.82-1.59 3.02-2.38 3.62-2.38 3.43 0 5.29 0.45 5.6 1.34 0 0.4 0.05 1 0.15 1.79v1.48c0 3.08-0.69 4.92-2.08 5.51 0.69 0.3 1.34 0.75 1.93 1.34 0.1 1.29 0.15 3.18 0.15 5.66 0 4.57-0.25 9.68-0.74 15.34-0.5 1.2-1.04 2.04-1.63 2.53 0.95 0.2 1.75 0.8 2.38 1.79v24.87c-0.21 0.2-0.53 0.52-0.96 0.97s-0.8 0.82-1.12 1.12c1.39 1.19 2.08 3.03 2.08 5.51v25.47c0 1-0.45 1.89-1.34 2.68zm19.49-96.21v5.1c0 1.7-0.5 3-1.48 3.9 0.98 2.2 1.48 3.89 1.48 5.09 0 2.4-0.89 3.6-2.68 3.6h-2.23c-0.49 0-1.14-0.4-1.93-1.2-0.3 0.8-1.49 1.2-3.57 1.2s-3.12-0.55-3.12-1.63v-2.5c-0.1-0.98-0.15-1.68-0.15-2.07 0-1.38 0.49-2.61 1.49-3.69-0.7-0.49-1.14-2.95-1.34-7.38 0.6-1.08 1.39-1.62 2.38-1.62h3.57l1.2 1.63c1.39-1.09 2.77-1.63 4.16-1.63 0.69 0 1.24 0.05 1.63 0.14l0.6 1.05z"/>
  <path class="cls-3" d="m77.88 297.5c-0.3 10.89-0.45 18.96-0.45 24.21-0.4 0.6-0.8 1.29-1.19 2.08 0.09 0.1 0.35 0.32 0.74 0.67s0.69 0.62 0.89 0.82v17.68c0 1.68-0.55 3.02-1.65 4.01-1.1 0.39-2.34 0.59-3.74 0.59-0.8 0-1.9-0.09-3.3-0.27l-1.35-1.36c-0.6 0.99-1.4 1.54-2.4 1.64h-5.7l-0.9-0.74v-12.52c0-1.39 0.59-2.62 1.79-3.72-1.1-1.39-1.69-2.53-1.79-3.43v-27.55c0.34-1.39 1.09-2.59 2.23-3.58-1.49-1.49-2.23-2.58-2.23-3.28v-19.8c0-6.86 0.59-10.92 1.79-12.22-1.2-0.79-1.79-2.33-1.79-4.62 0 0.1 0.07-1.39 0.22-4.46 0.15-3.08 0.22-6.21 0.22-9.39 0.29-0.7 0.73-1.09 1.31-1.19 1.27 0.11 2.4 0.16 3.38 0.16 2.73 0 4.58 0.79 5.56 2.37 1.46-1.68 3.18-2.52 5.13-2.52 0.39 0 1.07 0.1 2.05 0.3 0.59 0.39 0.98 0.89 1.17 1.48v18.27c-0.66 0.39-1.16 0.84-1.49 1.34 0.99 0.7 1.49 1.23 1.49 1.63v27.33l-1.93 2.38c1.01 0.79 1.66 2.02 1.93 3.71zm35.09 13.86c-0.39 1-1.08 1.89-2.08 2.68 0.54 0.5 1.07 0.8 1.61 0.89l0.47 1.05v16.09c0 1.19-0.54 2.14-1.63 2.83l1.63 2.09v9.08c-0.59 1-1.44 1.49-2.53 1.49h-0.45c-3.97 0-6.05-0.64-6.25-1.93-0.69 1-1.51 1.52-2.46 1.56-0.94 0.05-1.86 0.13-2.75 0.23s-1.39 0.15-1.49 0.15c-1.18 0-2.13-0.49-2.82-1.48-0.3-5.54-0.45-9.73-0.45-12.6v-4.74l1.49-1.78c-1-1.18-1.49-2.52-1.49-4v-20.6h-1.03c-1.27 0-2.45-0.55-3.52-1.64-0.98 1.09-2.35 1.64-4.11 1.64-0.79 0-1.38-0.05-1.76-0.16l-0.44-0.89v-4.28c0-1.57 0.54-2.8 1.63-3.69-1.09-0.88-1.63-2.11-1.63-3.68v-4.58c0.29-1.08 1.14-1.62 2.53-1.62 0.39 0 1.19 0.09 2.38 0.27l1.63 1.22c0.9-0.99 1.93-1.48 3.12-1.48h1.19v-13.64c0-0.99 0.49-2.28 1.49-3.86-1-1.18-1.49-2.77-1.49-4.74v-17.64c0-1.38 0.8-2.12 2.4-2.22 1 0 2.54-0.1 4.65-0.3 1.59 0 2.7 0.65 3.3 1.93l0.45-0.48c0.6-0.54 1.4-0.97 2.4-1.29 0.69-0.11 1.59-0.16 2.7-0.16 1.2 0 1.9 0.1 2.1 0.3l1.04 0.89c0.1 1.59 0.15 4.02 0.15 7.3 0 1.1-0.59 1.79-1.78 2.09 0.4 0.4 0.84 0.95 1.34 1.64l0.45 22.79-1.18 1.35 1.18 2.09v31.87z"/>
  <path class="cls-3" d="m141.68 343.09c0 1.69-0.54 3.03-1.63 4.02-1.39 0.4-2.43 0.59-3.12 0.59-0.5 0-1.14-0.1-1.93-0.3l-1.49-1.49c-0.59 1.08-1.34 1.68-2.23 1.79h-7.88l-0.89-0.74v-14.89c0.11-1.19 0.7-2.43 1.78-3.73-0.99-1.59-1.49-3.47-1.49-5.66v-2.54l0.3-26.66c0.29-1.38 0.94-2.58 1.93-3.57-1.69-1.58-2.53-4.07-2.53-7.44 0-0.7 0.05-1.74 0.15-3.13 0.1-1.38 0.15-2.43 0.15-3.12v-2.84c-0.2-1.88-0.29-3.77-0.29-5.65v-1.34c0-1.69 0.64-3.52 1.93-5.51-1.29-0.79-1.93-2.33-1.93-4.62 0 0.1 0.08-1.39 0.22-4.46 0.15-3.08 0.22-6.2 0.22-9.39 0.29-0.69 0.74-1.09 1.32-1.19 1.28 0.1 2.41 0.15 3.4 0.15 2.75 0 4.62 0.74 5.61 2.23 1.47-1.58 3.2-2.38 5.16-2.38 0.39 0 1.08 0.1 2.07 0.3 0.59 0.39 0.98 0.89 1.18 1.49v6.53c-0.39 0.5-0.84 1.34-1.34 2.53 0.89 0.59 1.34 1.09 1.34 1.48v36.23l-1.78 2.38c1.09 1.09 1.69 2.33 1.78 3.71v40.69c-0.24 0.39-0.71 1.09-1.42 2.08l-0.36-0.3c0.18 0.2 0.77 0.8 1.78 1.79v2.98zm26.03-100.69c0.09 0.79 0.15 1.87 0.15 3.25 0 2.85-0.64 4.57-1.93 5.16 1.29 0.59 1.93 1.67 1.93 3.25v4.57c-0.5 0.6-1.2 1.09-2.1 1.48h-4.66c-1.4 0-2.4-0.59-3-1.78-0.6 0.7-1.31 1.29-2.11 1.78h-7.81l-1.09-1.09c-0.23-1.19-0.35-2.12-0.35-2.82 0-1.39 0.24-2.91 0.74-4.6l1.18-0.89c-1.09-0.89-1.73-1.73-1.93-2.52 0-4.05 0.45-6.33 1.34-6.82 0.69-0.1 1.69-0.15 2.97-0.15 2.28 0 4.62 0.3 7 0.89l0.89 0.9c1.79-1.19 3.62-1.79 5.5-1.79 0.5 0 1.24 0.09 2.23 0.27l1.04 0.93zm-1.78 58.43c0 1.01-1.54 1.52-4.61 1.52-0.59 0-1.49-0.5-2.68-1.49-0.99 0.99-3.22 1.49-6.69 1.49-1.99 0-3.57-0.05-4.76-0.16l-0.45-0.74v-4.76c0-1.59 0.49-2.92 1.49-4.02-1-0.69-1.49-2.48-1.49-5.35 0-2.58 0.83-3.87 2.51-3.87h5.75l1.77 1.48c1.68-0.99 3.59-1.48 5.76-1.48h2.51c0.59 0 0.88 1.66 0.88 4.98 0 2.72-0.8 4.49-2.38 5.29 1.58 1.61 2.38 3.53 2.38 5.74v1.36zm2.83 46.28c-1.08 0.39-2.06 0.59-2.94 0.59-4.01 0-6.46-0.59-7.34-1.79-1.17 1.19-2.69 1.79-4.55 1.79h-6.3c-0.59-0.49-0.88-1.24-0.88-2.23v-3.57c0.37-1.09 1.11-2.09 2.23-2.98-0.65-0.3-1.35-0.84-2.1-1.63-0.09-0.8-0.13-1.79-0.13-2.98 0-3.08 0.89-4.91 2.67-5.51h5.95c1.58 0 2.92 0.5 4.01 1.49 1.19-0.99 3.22-1.49 6.1-1.49h1.19c0.59 0.1 1.09 0.15 1.49 0.15 0.49 1.67 0.74 3.2 0.74 4.57 0 0.89-0.03 1.57-0.08 2.07-0.05 0.49-0.36 0.94-0.89 1.33-0.54 0.39-0.81 0.64-0.81 0.74 0.1 0.3 0.45 0.5 1.04 0.59 0.49 2.17 0.74 4.13 0.74 5.9 0 1.29-0.05 2.27-0.15 2.95z"/>
  <path class="cls-3" d="m209.5 316.62c0 1.29 0.05 2.93 0.15 4.91v4.16c0 5.66-0.29 8.83-0.89 9.52-0.6 0.7-0.94 1.24-1.04 1.63 1.18 0.5 1.78 1.59 1.78 3.27 0 1.19 0.05 2.33 0.16 3.42v1.34c0 1.79-1.25 2.68-3.74 2.68h-4.8l-1.05-1.95-0.15-0.28c-0.3 1.49-1.9 2.23-4.79 2.23-1.21 0-2.15-0.05-2.85-0.15-1.2-0.5-1.8-1.34-1.8-2.53 0.1-2.88 0.15-5.89 0.15-9.07v-4.46c-0.11-1.88-0.15-3.27-0.15-4.16v-0.6c0-1.59 0.6-2.97 1.79-4.16-1.19-1.79-1.79-3.07-1.79-3.87v-20.82c0.1-1.29 0.7-2.32 1.79-3.12-0.09-0.3-0.25-0.67-0.51-1.12s-0.47-0.77-0.64-0.96l-0.38-1.64c-0.18-4.17-0.26-7.09-0.26-8.77v-15.32c0-1.39 0.6-3.17 1.79-5.36-0.37-0.2-0.96-0.74-1.79-1.63v-6.69c0-2.09 0.1-5.6 0.3-10.57 0.39-0.99 1.52-1.48 3.39-1.48 2.85 0 4.77 0.65 5.75 1.93 1.28-1.29 2.46-1.93 3.54-1.93h3.1c1.28 0 2.31 0.54 3.1 1.63v8.93l-1.78 2.08c0.97 0.7 1.56 1.63 1.78 2.82v33.32l-0.64 1.19c-0.64 0.39-1.17 0.7-1.59 0.89 0.96 0.5 1.7 1.39 2.23 2.68v18.74l-1.34 1.94 1.19 1.34zm35.16-8.03c0.86 6.35 1.28 10.66 1.28 12.94 0 5.06-1.64 8.68-4.91 10.86 0.49 0.69 0.74 1.34 0.74 1.93 0-0.3-0.4 1.29-1.19 4.76-4.37 4.16-9.27 6.84-14.72 8.03-0.3-0.2-1.04-0.59-2.23-1.19-0.5 1.09-2.23 1.64-5.21 1.64h-3.27 0.59c-0.88-0.29-1.34-0.73-1.34-1.32v-0.44l0.17-5.71c1.57-0.59 2.36-1.07 2.36-1.46l-1.93-1.9c-0.39-2.15-0.59-3.61-0.59-4.39 0-1.07 0.05-1.91 0.15-2.49 0.8-0.58 1.4-0.88 1.8-0.88h1.21c2.21-0.2 4.07-0.89 5.57-2.08 2.41-3.18 3.62-6.64 3.62-10.41l2.53-1.64c-1-0.1-1.84-1.24-2.53-3.42-0.9-3.07-1.94-5.41-3.13-6.99-1.89-1.59-3.97-2.38-6.25-2.38h-1.93l-0.59-1.03v-5.9c0-0.98 0.49-1.62 1.48-1.92-0.2-0.39-0.6-0.98-1.19-1.77-0.2-2.17-0.29-3.69-0.29-4.58v-1.33c0.29-0.98 0.79-1.62 1.48-1.92h1.04c3.57 0 5.95-1.28 7.14-3.84 0.1-0.29 0.54-1.97 1.34-5.03 0.5-1.77 1.34-3 2.53-3.7l-0.45-0.74c-0.99-0.19-2.03-1.7-3.12-4.5-1.09-2.81-2.78-4.65-5.06-5.54h-1.93c-1.99 0-2.97-0.84-2.97-2.53v-1.34c0-2.08 0.59-3.92 1.78-5.5-1.49-1.49-2.23-3.37-2.23-5.65 0-0.89 0.05-1.59 0.15-2.09 0.89-1.39 2.08-2.08 3.57-2.08 0.59 0 1.04 0.05 1.34 0.14 6.45 0.7 10.61 1.34 12.5 1.93 2.77 0.8 4.16 2.04 4.16 3.72 0 0.59-0.15 1.29-0.45 2.08h1.04c1.28 0 2.28 0.05 2.98 0.15 3.07 5.26 4.61 11 4.61 17.25v0.89c-0.99 0.8-1.68 1.54-2.08 2.23 0.99 0.7 1.68 1.54 2.08 2.54-0.29 8.43-2.62 14.33-6.99 17.7-0.99 0.5-2.47 0.95-4.46 1.34-1.1 0.3-1.69 0.75-1.78 1.34 0.09 0.39 0.49 0.69 1.19 0.89 3.07 0.7 5.35 1.59 6.84 2.68 1.79 1.39 3.32 3.66 4.61 6.84v0.45c0 1.39-0.64 2.53-1.93 3.42 1.07 0.4 2.03 1.04 2.88 1.93z"/>
  <path class="cls-3" d="m270.78 343.09c0 1.69-0.55 3.03-1.63 4.02-1.39 0.4-2.43 0.59-3.13 0.59-0.49 0-1.14-0.1-1.93-0.3l-1.49-1.49c-0.59 1.08-1.34 1.68-2.23 1.79h-7.88l-0.9-0.74v-14.89c0.11-1.19 0.7-2.43 1.79-3.73-0.99-1.59-1.49-3.47-1.49-5.66v-2.54l0.29-26.66c0.3-1.38 0.95-2.58 1.94-3.57-1.69-1.58-2.53-4.07-2.53-7.44 0-0.7 0.05-1.74 0.15-3.13 0.1-1.38 0.15-2.43 0.15-3.12v-2.84c-0.2-1.88-0.3-3.77-0.3-5.65v-1.34c0-1.69 0.64-3.52 1.93-5.51-1.29-0.79-1.93-2.33-1.93-4.62 0 0.1 0.08-1.39 0.22-4.46 0.15-3.08 0.22-6.2 0.22-9.39 0.29-0.69 0.74-1.09 1.33-1.19 1.28 0.1 2.41 0.15 3.39 0.15 2.75 0 4.62 0.74 5.61 2.23 1.48-1.58 3.2-2.38 5.17-2.38 0.39 0 1.08 0.1 2.06 0.3 0.59 0.39 0.98 0.89 1.18 1.49v6.53c-0.4 0.5-0.84 1.34-1.34 2.53 0.9 0.59 1.34 1.09 1.34 1.48v36.23l-1.79 2.38c1.09 1.09 1.69 2.33 1.79 3.71v40.69c-0.24 0.39-0.71 1.09-1.43 2.08l-0.36-0.3c0.18 0.2 0.78 0.8 1.79 1.79v2.98zm26.03-100.69c0.09 0.79 0.15 1.87 0.15 3.25 0 2.85-0.65 4.57-1.93 5.16 1.28 0.59 1.93 1.67 1.93 3.25v4.57c-0.5 0.6-1.21 1.09-2.11 1.48h-4.66c-1.4 0-2.4-0.59-3.01-1.78-0.6 0.7-1.3 1.29-2.1 1.78h-7.82l-1.09-1.09c-0.23-1.19-0.35-2.12-0.35-2.82 0-1.39 0.25-2.91 0.74-4.6l1.19-0.89c-1.1-0.89-1.73-1.73-1.93-2.52 0-4.05 0.45-6.33 1.34-6.82 0.7-0.1 1.69-0.15 2.98-0.15 2.28 0 4.61 0.3 6.99 0.89l0.89 0.9c1.79-1.19 3.62-1.79 5.51-1.79 0.49 0 1.24 0.09 2.23 0.27l1.04 0.93zm-1.78 58.43c0 1.01-1.54 1.52-4.62 1.52-0.59 0-1.49-0.5-2.68-1.49-0.99 0.99-3.22 1.49-6.69 1.49-1.99 0-3.57-0.05-4.76-0.16l-0.45-0.74v-4.76c0-1.59 0.49-2.92 1.48-4.02-0.99-0.69-1.48-2.48-1.48-5.35 0-2.58 0.83-3.87 2.51-3.87h5.75l1.78 1.48c1.67-0.99 3.59-1.48 5.75-1.48h2.51c0.59 0 0.89 1.66 0.89 4.98 0 2.72-0.8 4.49-2.38 5.29 1.58 1.61 2.38 3.53 2.38 5.74v1.36zm2.82 46.28c-1.08 0.39-2.06 0.59-2.94 0.59-4.01 0-6.46-0.59-7.34-1.79-1.18 1.19-2.7 1.79-4.55 1.79h-6.31c-0.59-0.49-0.88-1.24-0.88-2.23v-3.57c0.37-1.09 1.11-2.09 2.23-2.98-0.66-0.3-1.35-0.84-2.1-1.63-0.09-0.8-0.13-1.79-0.13-2.98 0-3.08 0.89-4.91 2.68-5.51h5.95c1.58 0 2.92 0.5 4.02 1.49 1.19-0.99 3.22-1.49 6.09-1.49h1.19c0.6 0.1 1.1 0.15 1.49 0.15 0.5 1.67 0.74 3.2 0.74 4.57 0 0.89-0.03 1.57-0.08 2.07-0.05 0.49-0.35 0.94-0.89 1.33s-0.81 0.64-0.81 0.74c0.1 0.3 0.45 0.5 1.04 0.59 0.5 2.17 0.74 4.13 0.74 5.9 0 1.29-0.05 2.27-0.15 2.95z"/>
  <path class="cls-3" d="m332.51 321.52v0.45c0 0.2-0.1 0.5-0.3 0.89-0.69 0.5-1.39 0.75-2.08 0.75h-0.45c-1.29 0-2.93-0.05-4.91-0.15h-4.01l-0.89 0.89c-0.6 3.67-1.34 7.04-2.24 10.12-0.59 0.99-1.34 1.68-2.23 2.08 0.2 0.2 0.47 0.52 0.82 0.97s0.57 0.82 0.67 1.12c-0.5 5.45-1.19 8.3-2.08 8.55-0.9 0.25-2.29 0.38-4.17 0.38h-1.93c-0.69-0.4-1.39-0.99-2.08-1.79l-1.04 1.04-1.34 0.74h-1.93c-1.19 0-2.88-0.1-5.06-0.3-0.39-0.59-0.6-1.14-0.6-1.64v-0.3c1.59-6.05 2.88-12.1 3.87-18.14 0.21-1.19 0.8-2.14 1.79-2.83 0-0.1 0.05-0.3 0.15-0.59v-0.45c0-0.39-0.11-0.89-0.3-1.49-0.11-0.09-0.15-0.34-0.15-0.74 0-0.59 0.55-3.12 1.64-7.58 1.28-5.26 2.23-10.36 2.82-15.32 0.39-0.89 1.09-1.83 2.08-2.83 0-0.19-0.2-0.84-0.59-1.93 2.38-17.95 4.51-26.92 6.4-26.92h0.15c-0.11-0.3-0.28-0.69-0.52-1.2l-0.52-1.04c0.69-3.77 1.83-9.32 3.42-16.66 0-1.59 0.35-2.38 1.04-2.38h0.45c0.39 0.39 0.64 1.24 0.74 2.52 0.3 3.37 1.02 7.02 2.16 10.94 1.14 3.91 1.71 6.27 1.71 7.06 0 1.39-0.5 2.78-1.49 4.16 1.59 0.99 2.38 1.73 2.38 2.23v0.3c0 2.18 0.42 4.96 1.27 8.33 0.84 3.38 1.26 5.66 1.26 6.84 0 0.2-0.54 2.83-1.63 7.89-0.4 0.7-0.99 1.34-1.79 1.93l0.75 1.04c0.29 0.4 0.45 0.99 0.45 1.79 0 0.4-0.3 2.38-0.9 5.95 0.3 0.29 0.64 0.44 1.04 0.44h1.19c0.3 0.1 0.5 0.15 0.6 0.15 0.19 0 0.39-0.05 0.59-0.15h0.6c1.88 0.2 3.02 2.63 3.42 7.29-0.4 0.39-0.8 0.99-1.2 1.79l1.64 1.48c0.6 1.2 1.04 2.63 1.34 4.31zm29.38 18.23c0.35 1.74 0.52 2.66 0.52 2.75 0 1.49-0.65 3.03-1.94 4.61-1.19 0.3-2.38 0.45-3.57 0.45-0.89 0-1.59-0.05-2.09-0.15-0.79-0.39-1.44-0.84-1.93-1.34-0.8 1-1.54 1.49-2.23 1.49-0.3 0-1.07-0.05-2.31-0.14-1.24-0.1-2.36-0.15-3.35-0.15-0.4-0.4-0.94-0.84-1.63-1.34l-0.45-1.77-4.91-24.56v-0.45c-0.09-0.19-0.15-0.34-0.15-0.44 0-1.18 0.54-2.22 1.63-3.11-1.69-0.3-2.64-0.94-2.85-1.93l-3.9-21.74 0.64-2.98c-1.19-0.6-2.78-7.24-4.76-19.95v-0.3c0-0.3 0.1-0.64 0.3-1.04 0.2-0.39 0.3-0.64 0.3-0.74 0-0.5-0.42-0.89-1.27-1.2l-0.33-1.63c-0.6-3.56-1.96-10.35-4.07-20.36-0.09-0.2-0.13-0.45-0.13-0.74 0-1.1 0.69-1.64 2.08-1.64h1.79c1.18 0.1 2.33 0.15 3.42 0.15s1.88 0.5 2.38 1.49c0.39-0.67 0.84-1.11 1.34-1.32s1.29-0.31 2.38-0.31c1.99 0 3.72 0.52 5.21 1.55 0.39 1.5 0.74 2.67 1.04 3.51 0.7 3.27 1.99 9.72 3.87 19.34-0.29 1.29-0.74 2.29-1.34 2.97 0.29 0.7 0.64 1.09 1.04 1.19 1.39 2.58 2.34 5.01 2.84 7.29 2.69 13.68 4.03 21.07 4.03 22.16 0 0.5-0.05 0.84-0.16 1.04l-0.91 2.68c1.37 0.5 2.2 1.39 2.5 2.68 1.59 8.23 3.19 16.21 4.79 23.94l-0.74 1.93c0.89 0.5 1.51 1.54 1.86 3.12 0.35 1.59 0.69 3.25 1.04 4.98z"/>
  <path class="cls-3" d="m372.52 258.47c0 0.59-0.24 1.09-0.72 1.49h-1.59c-2.3 0-3.7-0.4-4.18-1.2-0.86 0.8-1.87 1.2-3.02 1.2h-1.88c-1.54 0-2.3-1.04-2.3-3.12 0-1.59 0.45-3.47 1.34-5.66-0.89-0.89-1.34-2.03-1.34-3.42v-5.5l0.59-1.04c0.4-0.1 0.94-0.14 1.63-0.14 1.59 0 3.08 0.54 4.46 1.63l1.34-1.63h3.42c1.09 0 1.88 0.54 2.38 1.63v4.16c0 1.39-0.4 2.48-1.2 3.27 0.8 0.99 1.2 2.23 1.2 3.72v1.48c-0.1 1.09-0.15 2.14-0.15 3.13zm22.3 80c1.1 1.59 1.64 3.13 1.64 4.62 0 1.79-0.22 3.01-0.67 3.65-0.45 0.65-1.51 0.97-3.19 0.97-1.29 0-2.38-0.05-3.28-0.15-0.99-0.49-1.73-1.09-2.23-1.79-1.89 1.29-3.22 1.93-4.02 1.93h-2.08c-2.68 0-4.02-0.84-4.02-2.53v-20.55c0.33-2.19 1.02-4.12 2.09-5.81-0.96-0.2-1.65-0.64-2.09-1.34v-25.47c0.12-0.69 0.67-1.19 1.64-1.49-1.1-1.09-1.64-2.08-1.64-2.98v-17.13c0-1.39-0.07-3.2-0.22-5.43s-0.23-3.8-0.23-4.7c0-5.86 0.99-8.98 2.98-9.38l-0.67-0.45c-0.45-0.3-1.01-0.84-1.68-1.64-0.12-0.6-0.18-1.49-0.18-2.69 0-3.28 0.66-4.91 1.97-4.91 0.3 0 0.7-0.05 1.21-0.14h1.21c2.82 0 4.63 0.79 5.44 2.38 1.81-1.59 3.02-2.38 3.63-2.38 3.42 0 5.29 0.45 5.59 1.34 0 0.4 0.04 1 0.15 1.79v1.48c0 3.08-0.69 4.92-2.08 5.51 0.69 0.3 1.34 0.75 1.93 1.34 0.1 1.29 0.15 3.18 0.15 5.66 0 4.57-0.25 9.68-0.74 15.34-0.5 1.2-1.04 2.04-1.63 2.53 0.95 0.2 1.75 0.8 2.38 1.79v24.87c-0.21 0.2-0.53 0.52-0.96 0.97s-0.8 0.82-1.12 1.12c1.39 1.19 2.08 3.03 2.08 5.51v25.47c0 1-0.45 1.89-1.34 2.68zm19.49-96.21v5.1c0 1.7-0.5 3-1.49 3.9 0.99 2.2 1.49 3.89 1.49 5.09 0 2.4-0.89 3.6-2.68 3.6h-2.23c-0.5 0-1.14-0.4-1.93-1.2-0.3 0.8-1.49 1.2-3.57 1.2s-3.12-0.55-3.12-1.63v-2.5c-0.1-0.98-0.15-1.68-0.15-2.07 0-1.38 0.49-2.61 1.49-3.69-0.7-0.49-1.14-2.95-1.34-7.38 0.59-1.08 1.39-1.62 2.38-1.62h3.57l1.2 1.63c1.38-1.09 2.77-1.63 4.16-1.63 0.69 0 1.24 0.05 1.63 0.14l0.6 1.05z"/>
  <path class="cls-5" d="m112.59 411.1v-46.59h18.75v6.73h-11.56v12.21h8.33v6.73h-8.33v13.92h11.56v6.99h-18.75z"/>
  <path class="cls-5" d="m134.11 401.79 6.19-1.39c0.28 2 0.76 3.44 1.42 4.3 0.67 0.87 1.6 1.3 2.81 1.3 0.9 0 1.62-0.27 2.16-0.82 0.53-0.55 0.81-1.29 0.81-2.21 0-1.79-2.17-4.32-6.51-7.6-0.05-0.05-0.1-0.08-0.16-0.13-2.17-1.63-3.71-3.22-4.62-4.77s-1.37-3.3-1.37-5.25c0-2.81 0.87-5.08 2.61-6.8 1.73-1.72 4.01-2.58 6.83-2.58 2.64 0 4.78 0.8 6.42 2.38 1.63 1.6 2.54 3.77 2.74 6.54l-6.06 1.45c-0.23-1.46-0.63-2.55-1.19-3.27s-1.3-1.08-2.22-1.08c-0.87 0-1.54 0.28-2.03 0.82-0.49 0.55-0.74 1.28-0.74 2.2 0 1.51 1.52 3.45 4.55 5.83 0.81 0.67 1.45 1.18 1.9 1.55 2.38 2 4.01 3.75 4.89 5.27s1.32 3.21 1.32 5.11c0 2.84-0.88 5.11-2.62 6.81-1.75 1.7-4.07 2.56-6.95 2.56s-5.02-0.9-6.83-2.71-2.91-4.32-3.32-7.54z"/>
  <path class="cls-5" d="m160.12 403.85v-21.79h-3.96v-5.35h3.96v-9.89h6.38v9.89h4.76v5.35h-4.76v21.17c0 0.99 0.24 1.73 0.73 2.22 0.48 0.5 1.18 0.74 2.1 0.74 0.22 0 0.48-0.02 0.8-0.07 0.3-0.05 0.68-0.14 1.11-0.25l0.03 5.61c-0.6 0.19-1.2 0.33-1.8 0.41-0.6 0.09-1.24 0.13-1.9 0.13-2.5 0-4.35-0.68-5.59-2.04-1.24-1.37-1.85-3.41-1.85-6.14z"/>
  <path class="cls-5" d="m176.55 397.95v-7.31h6.86v7.31zm0 13.15v-7.31h6.86v7.31z"/>
  <path class="cls-5" d="m202.39 411.1v-6.73c4.94-6.81 8.62-12.6 11.04-17.37 2.41-4.77 3.62-8.61 3.62-11.53 0-1.75-0.29-3.11-0.87-4.11s-1.36-1.5-2.35-1.5c-1.31 0-2.26 0.48-2.84 1.45-0.58 0.96-0.89 2.63-0.94 5l-0.06 1.74h-6.99v-0.87c0-4.32 0.95-7.66 2.85-10.04s4.58-3.56 8.04-3.56c2.98 0 5.37 1.01 7.15 3.01 1.79 2.01 2.68 4.73 2.68 8.17s-0.91 7.12-2.72 11.23c-1.81 4.12-5.44 10.24-10.88 18.38h13.02v6.73z"/>
  <path class="cls-5" d="m229.2 375.27c0-3.67 0.96-6.55 2.88-8.63 1.92-2.09 4.59-3.13 8-3.13s5.82 1.07 7.72 3.22 2.85 5.06 2.85 8.73v23.87c0 4.08-0.93 7.23-2.8 9.44s-4.52 3.32-7.96 3.32-6.13-1.11-7.96-3.32-2.74-5.42-2.74-9.63v-23.88zm6.67 25.87c0 1.31 0.36 2.36 1.09 3.16s1.7 1.2 2.91 1.2 2.06-0.39 2.72-1.16c0.67-0.78 1.03-1.84 1.04-3.19v-27.26c0-1.1-0.36-1.99-1.07-2.67-0.72-0.69-1.66-1.04-2.82-1.04s-2.05 0.35-2.78 1.04c-0.73 0.68-1.09 1.55-1.09 2.61v27.32z"/>
  <path class="cls-5" d="m255.23 411.1v-6.73c4.95-6.81 8.62-12.6 11.04-17.37 2.41-4.77 3.63-8.61 3.63-11.53 0-1.75-0.29-3.11-0.87-4.11s-1.36-1.5-2.35-1.5c-1.31 0-2.26 0.48-2.84 1.45-0.58 0.96-0.89 2.63-0.94 5l-0.06 1.74h-6.99v-0.87c0-4.32 0.95-7.66 2.85-10.04s4.58-3.56 8.04-3.56c2.98 0 5.37 1.01 7.15 3.01 1.79 2.01 2.68 4.73 2.68 8.17s-0.91 7.12-2.72 11.23c-1.81 4.12-5.44 10.24-10.88 18.38h13.02v6.73h-20.75z"/>
  <path class="cls-5" d="m280.97 399.75v-6.15l11.95-29.1h6.74v29.1h4.35v6.15h-4.35v11.34h-6.74v-11.34zm11.96-6.15v-17.01l-5.79 17.01z"/>
 </g>
</svg>
