<svg width="140.02mm" height="211.67mm" version="1.1" viewBox="0 0 140.02 211.67" xmlns="http://www.w3.org/2000/svg" xmlns:xlink="http://www.w3.org/1999/xlink">
 <defs>
  <path id="d" d="m0 0.022h39v58.955h-39z"/>
  <path id="b" d="m-4.082-3.152h27.649v62.583h-27.649z"/>
  <clipPath id="c">
   <use width="100%" height="100%" overflow="visible" xlink:href="#d"/>
  </clipPath>
  <clipPath id="a">
   <use width="100%" height="100%" overflow="visible" xlink:href="#b"/>
  </clipPath>
 </defs>
 <g transform="translate(36.475 15.042)" fill="#e6003c">
  <path transform="matrix(3.5903 0 0 3.5903 -36.475 -15.121)" d="m19.486 0.022-19.486 19.302v39.654l19.486-20.298z" clip-path="url(#a)" opacity=".8"/>
  <path transform="matrix(3.5903 0 0 3.5903 -36.475 -15.121)" d="m37.864 18.226-2.472-2.449v5.385c-0.778 0.366-1.748 0.669-2.947 0.994-4.185 1.118-5.369 0.546-5.369 3.3h5.76l2.555-2.53 3.609-3.575zm-16.02 7.23c0-4.745 1.02-5.536 7.269-6.982 3.525-0.818 3.773-0.764 3.773-2.864 0-2.045-0.688-2.291-2.892-2.263-2.504 0-2.89 0.191-2.918 2.373v1.009h-5.232v-1.009c0-5.077 2.409-6.406 6.827-6.6l-9.184-9.097v38.657l9.056-8.97h-6.699z" clip-path="url(#c)"/>
 </g>
</svg>
