<svg xmlns="http://www.w3.org/2000/svg" height="147.04" width="600" viewBox="0 0 158.75 38.905">
    <path d="M20.209 0c-3.148 0-6.112.79-8.699 2.19-1.291 1.07-2.893 2.84-2.986 5.25-.029 1.22.54 2 .698 2.13 2.896-3.39 7.205-5.55 12.018-5.55 8.715 0 15.78 7.06 15.78 15.78 0 4.13-1.588 7.89-4.186 10.7l-.148 1.16a18.227 18.227 0 0 0 5.816-13.37C38.502 8.19 30.312 0 20.209 0" fill="#068cce"/>
    <path d="M25.237 23.77c-3.352-4.34-3.485-4.51-5.236-6.88-4.273.12-20.264-5.44-9.712-14.61-1.423.39-4.016 2.53-4.969 5.36-2.086 6.2 3.423 15.64 19.917 16.13" fill="#068cce"/>
    <path d="M26.279 26.22c-7.275.59-17.078-3.1-20.847-9.3-1.991-3.28-2.55-7.86.432-11.62 0 0-1.618.98-2.775 3.39-4.373 9.27 3.333 23.08 21.769 25.27.004 0 1.239-.75 4.743-3.4-1.144-1.55-1.605-2.15-3.322-4.34" fill="#26b9f1"/>
    <path d="M1.89 10.53c-.143.14-1.394 2.04-1.771 5.13-1.023 8.23 4.56 19.24 17.699 23.24.002 0 1.342-.67 4.951-2.93C10.917 34.25-2.43 22.37 1.89 10.53" fill="#80d6f7"/>
    <g fill="#068cce">
        <path d="M55.571 15.56c.714-.05 1.38-.21 1.998-.47a3.862 3.862 0 0 0 1.523-1.13c.398-.5.598-1.16.598-1.98 0-1.24-.413-2.18-1.236-2.84a4.417 4.417 0 0 0-2.842-.99c-1.483 0-2.602.49-3.358 1.46-.755.98-1.119 2.2-1.091 3.69h-5.561c.055-1.49.323-2.84.803-4.06s1.154-2.27 2.019-3.15a8.902 8.902 0 0 1 3.11-2.04c1.207-.48 2.554-.72 4.037-.72 1.153 0 2.306.17 3.46.51 1.154.35 2.194.86 3.114 1.55.91.69 1.66 1.52 2.24 2.51s.87 2.13.87 3.42c0 1.4-.34 2.64-1.01 3.71-.68 1.07-1.69 1.8-3.03 2.18v.08c1.59.36 2.84 1.13 3.75 2.31.9 1.18 1.36 2.6 1.36 4.24 0 1.51-.3 2.86-.89 4.04s-1.38 2.17-2.37 2.97c-.99.79-2.13 1.4-3.417 1.81-1.291.41-2.636.62-4.036.62-1.621 0-3.096-.24-4.428-.7-1.333-.47-2.466-1.15-3.398-2.04-.935-.9-1.655-1.99-2.163-3.28-.509-1.29-.749-2.77-.721-4.45h5.561c.027.77.151 1.51.371 2.21.219.7.535 1.3.947 1.81s.926.91 1.545 1.21c.618.31 1.352.46 2.203.46 1.318 0 2.43-.41 3.337-1.22.906-.81 1.359-1.91 1.359-3.31 0-1.1-.21-1.94-.638-2.52-.427-.57-.969-.99-1.628-1.25s-1.379-.41-2.161-.46c-.784-.04-1.532-.06-2.246-.06v-4.12c.632.06 1.305.06 2.019 0M84.565 3.33l11 29.41h-6.71l-2.23-6.55h-10.99l-2.31 6.55h-6.51l11.12-29.41zm.38 18.04l-3.71-10.79h-.08l-3.84 10.79zM111.965 3.33c1.4 0 2.67.12 3.83.37 1.15.25 2.14.65 2.96 1.21.83.57 1.47 1.32 1.92 2.25s.68 2.09.68 3.46c0 1.48-.34 2.72-1.01 3.71s-1.67 1.8-2.99 2.43c1.82.52 3.17 1.43 4.06 2.74.89 1.3 1.34 2.87 1.34 4.71 0 1.49-.29 2.77-.87 3.86a7.431 7.431 0 0 1-2.32 2.65c-.98.69-2.09 1.2-3.34 1.53s-2.53.49-3.85.49h-14.25V3.33zm-.83 11.9c1.16 0 2.1-.27 2.85-.82.74-.55 1.11-1.44 1.11-2.68 0-.68-.13-1.25-.37-1.69a2.8 2.8 0 0 0-.99-1.03c-.41-.24-.89-.41-1.42-.51a9.1 9.1 0 0 0-1.67-.15h-6.06v6.88zm.37 12.48c.64 0 1.24-.06 1.82-.18.57-.12 1.08-.33 1.52-.62s.79-.68 1.05-1.17c.26-.5.39-1.13.39-1.9 0-1.51-.42-2.58-1.27-3.23-.86-.65-1.98-.97-3.38-.97h-7.05v8.07zM133.545 3.33l12.28 19.73h.08V3.33h6.05v29.41h-6.46l-12.24-19.69h-.08v19.69h-6.05V3.33zM156.555 3.18c1.19 0 2.2.94 2.2 2.18 0 1.25-1.01 2.2-2.2 2.2-1.2 0-2.21-.95-2.21-2.2 0-1.24 1.01-2.18 2.21-2.18m0 4.05c1.01 0 1.8-.8 1.8-1.87 0-1.05-.79-1.86-1.8-1.86-1.03 0-1.81.81-1.81 1.86 0 1.07.78 1.87 1.81 1.87m-.85-3.14h.99c.6 0 .89.24.89.73 0 .46-.29.65-.67.69l.73 1.13h-.43l-.69-1.1h-.43v1.1h-.39zm.39 1.13h.42c.35 0 .67-.02.67-.42 0-.34-.29-.39-.56-.39h-.53z"/>
    </g>
</svg>
