<svg width="200mm" height="313.493" viewBox="0 0 200 82.945" xmlns="http://www.w3.org/2000/svg">
    <path d="M96.465 35.584c-2.048-.39-4.234-1.45-5.758-2.793L89.55 31.77l3.094-3.118.875.768c1.52 1.335 3.5 2.111 5.4 2.117 1.89.005 2.945-.454 3.453-1.504.667-1.382-.386-2.748-2.792-3.623-5.646-2.053-6.83-2.774-7.729-4.704-1.43-3.07-.177-6.416 2.912-7.777 3.647-1.607 8.166-1.054 11.429 1.397l1.583 1.19-1.46 1.472c-.804.81-1.519 1.474-1.59 1.474s-.684-.417-1.362-.927c-2.646-1.988-6.016-2.04-6.752-.104-.508 1.337.483 2.236 3.596 3.263 5.258 1.734 7.128 3.329 7.644 6.52.332 2.05-.822 4.69-2.581 5.905-2.134 1.475-5.664 2.062-8.805 1.465zm19.844.09c-2.266-.4-4.138-1.681-4.897-3.351-.629-1.385-.577-3.852.113-5.333 1.292-2.775 4.926-4.5 11.155-5.294l2.317-.295-.055-.885a3.455 3.455 0 0 0-1.691-2.783c-.629-.37-1.18-.467-2.54-.448-1.941.027-2.873.354-4.46 1.565l-1.044.797-1.477-1.5-1.476-1.5.927-.812c2.39-2.094 6.258-3.174 9.557-2.668 3.463.53 5.735 2.156 6.827 4.887.493 1.232.52 1.659.597 9.228l.08 7.935h-4.897v-2.145l-.753.61c-1.205.977-2.43 1.546-4.08 1.896-1.68.356-2.609.377-4.203.096zm5.747-4.532c2.044-1.019 3.057-2.736 3.057-5.18 0-1.105.039-1.097-2.855-.592-3.604.628-5.312 1.553-5.941 3.22-.36.953.08 2.144 1 2.705 1.108.675 3.213.607 4.74-.153zm18.211 4.546c-2.292-.49-3.713-1.503-4.681-3.34l-.626-1.186-.067-10.18-.068-10.182 2.38-2.388c1.31-1.313 2.624-2.495 2.625-2.397.001.115.111 1.73.111 3.832v3.823h6.505l-.133 4.055-3.186.064-3.186.064v12.07l.677.678c.557.557.872.677 1.768.677.711 0 1.371-.173 1.895-.496l.803-.497 3.082 3.104-.695.588c-1.78 1.504-4.805 2.222-7.204 1.71zM0 0v82.945h82.941V0zm20.045 12.977h34.051l-5.21 5.213-5.208 5.213H30.464l-5.21-5.213zm36.118.937c.062.058 1.79 1.769 3.842 3.802l3.73 3.696-11.071 11.074c-6.09 6.09-11.126 11.075-11.192 11.075-.066 0-1.76-1.644-3.766-3.652-2.005-2.009-3.647-3.755-3.647-3.882 0-.292 21.954-22.255 22.105-22.113zm-.337 17.959l.847.804c1.315 1.25 3.464 4.02 4.354 5.615 3.445 6.17 3.344 14.132-.262 20.559-1.485 2.649-5.18 6.379-7.825 7.9-3.982 2.289-7.122 3.192-11.583 3.33-1.657.05-3.273.046-3.591-.011l-1.97-.344C29.82 68.69 24.123 64.97 20.284 59.6l-.873-1.221 4.01-4.108c2.205-2.259 4.081-4.138 4.17-4.176.067.079.41.572 1.023 1.476 2.703 4.833 7.525 7.558 12.743 7.2 6.407-.44 10.589-4.986 10.265-11.16-.124-2.354-.975-4.287-2.736-6.21l-1.237-1.351 4.089-4.088zM171.83 13.596h5.34v21.805h-5.34v-9.355H163v9.355h-5.233V13.596h5.234v7.983h8.829zM180.21 35.37V13.596h7.583c2.868 0 5.138.445 6.809 1.334 1.67.89 3 2.199 3.986 3.926.986 1.727 1.412 3.61 1.412 5.65 0 1.456-.204 2.85-.748 4.183a10.588 10.588 0 0 1-2.325 3.511 10.17 10.17 0 0 1-3.578 2.357c-.795.323-1.525.539-2.19.648-.664.11-1.932.164-3.804.164zm7.266-17.348h-2.1v12.992h2.19c5.858-.047 7.397-3.351 7.398-7.049.001-3.32-1.8-5.936-7.488-5.943z" fill="#fff"/>
</svg>
