<svg width="200mm" height="111.96mm" version="1.1" viewBox="0 0 200 111.96" xmlns="http://www.w3.org/2000/svg">
 <g transform="translate(104.46 -41.252)">
  <path d="m25.752 89.285c-2.7646-0.5256-5.7149-1.9568-7.772-3.7701l-1.5637-1.3784 4.1764-4.2085 1.1808 1.0368c2.0524 1.8021 4.7246 2.8496 7.2895 2.8577 2.5505 8e-3 3.9758-0.61279 4.6606-2.0302 0.90109-1.865-0.5204-3.71-3.7681-4.8908-7.6205-2.7706-9.2191-3.7435-10.432-6.3494-1.9297-4.1445-0.23891-8.6606 3.9301-10.497 4.9228-2.1689 11.023-1.4232 15.428 1.8859l2.1365 1.6049-1.9711 1.9888c-1.0841 1.0938-2.0494 1.9888-2.145 1.9888s-0.92341-0.56323-1.8396-1.2516c-3.5705-2.6828-8.1198-2.7524-9.1133-0.13937-0.68576 1.8037 0.65203 3.0174 4.8538 4.4034 7.0981 2.3415 9.6214 4.4941 10.318 8.8027 0.44756 2.7664-1.11 6.3293-3.4843 7.9702-2.8799 1.9902-7.6448 2.7827-11.885 1.9766zm26.786 0.12098c-3.0589-0.53977-5.5858-2.2689-6.6099-4.523-0.84895-1.8688-0.77857-5.1996 0.1521-7.1981 1.7447-3.7466 6.6493-6.0742 15.058-7.1463l3.1275-0.39873-0.0737-1.1936c-0.0971-1.5738-0.94718-2.973-2.283-3.7578-0.84853-0.49849-1.5923-0.62951-3.4291-0.60408-2.6201 0.0362-3.8774 0.47754-6.0195 2.1127l-1.4099 1.0762-3.9857-4.05 1.251-1.0957c3.227-2.8265 8.4479-4.2843 12.901-3.6024 4.6744 0.71587 7.7413 2.9112 9.2151 6.5965 0.66561 1.6643 0.70286 2.2398 0.8063 12.456l0.10849 10.712h-6.6115v-2.8949l-1.0164 0.82385c-1.6263 1.3182-3.2787 2.0859-5.5062 2.558-2.2676 0.48062-3.5218 0.50922-5.6744 0.12938zm7.7577-6.1176c2.7582-1.3745 4.1266-3.6926 4.1266-6.9907 0-1.4927 0.0523-1.4818-3.8544-0.80056-4.8649 0.84835-7.1696 2.0974-8.0194 4.3461-0.48665 1.2878 0.1076 2.8946 1.3509 3.6527 1.4944 0.91118 4.3362 0.81894 6.3963-0.20764zm24.582 6.1366c-3.094-0.66053-5.0115-2.0282-6.3193-4.5072l-0.84468-1.6012-0.0908-13.743-0.0908-13.743 3.2126-3.2236c1.7669-1.773 3.5413-3.3686 3.5435-3.2366 2e-3 0.15549 0.14945 2.3351 0.14945 5.1732v5.1603h8.7812l-0.09031 2.7365-0.0903 2.7365-8.6005 0.174v16.293l0.91418 0.91417c0.75155 0.75155 1.1761 0.91418 2.3869 0.91418 0.95945 0 1.8505-0.23351 2.5568-0.67001l1.0841-0.67003 4.1605 4.19-0.93824 0.79302c-2.4021 2.0303-6.4867 3.0003-9.7243 2.3091z" fill="#2d383e" stroke-width=".31274"/>
  <path d="m-104.46 41.252h111.96v111.96h-111.96z" fill="#e40a22"/>
  <path d="m-53.482 135.83c-0.43002-0.0767-1.6263-0.28579-2.6583-0.46477-8.0662-1.3989-15.757-6.4197-20.939-13.669l-1.1785-1.6488 5.4123-5.5443c2.9767-3.0494 5.5097-5.586 5.6287-5.6369 0.09131 0.10638 0.55582 0.77124 1.382 1.9915 3.6487 6.5245 10.157 10.202 17.2 9.7192 8.6483-0.59311 14.293-6.7297 13.856-15.063-0.16685-3.1789-1.3163-5.7885-3.6936-8.3853l-1.6681-1.8222 11.036-11.036 1.1429 1.0855c1.7756 1.6865 4.6769 5.4273 5.8782 7.5791 4.6497 8.3287 4.5128 19.076-0.35366 27.752-2.0056 3.5754-6.9937 8.6107-10.563 10.663-5.3747 3.0905-9.6133 4.309-15.635 4.4946-2.2361 0.0689-4.4175 0.0626-4.8475-0.014zm-0.08189-40.714c-2.7071-2.7111-4.9221-5.069-4.9221-5.2397 0-0.39511 29.634-30.04 29.837-29.849 0.08311 0.0785 2.417 2.3878 5.1864 5.1317l5.0352 4.989-14.946 14.948c-8.2203 8.2217-15.019 14.948-15.107 14.948-0.08865 0-2.3762-2.2182-5.0833-4.9293zm-16.806-29.316-7.0315-7.0368h45.963l-14.063 14.073h-17.837z" fill="#fff" stroke-width=".31274"/>
 </g>
</svg>
