<svg version="1.0" viewBox="0 0 799.57 427.83" xml:space="preserve" xmlns="http://www.w3.org/2000/svg">
 <g transform="matrix(.79315 0 0 .79315 0 .002931)">
  <g transform="scale(2.0497)">
   <path d="m117.76 0.0016013c-9.97 0.052235-18.913 1.2979-25.456 3.6612l15.546 127.93-15.546 127.88c10.468 3.7813 27.04 4.7605 44.235 2.4551 40.304-5.4037 80.194-11.957 120-18.521 27.477-4.531 36.181-32.722 36.181-48.069v-127.54c0-15.347-8.7038-43.538-36.181-48.069-39.81-6.566-79.7-13.077-120-18.48-6.45-0.86454-12.8-1.28-18.78-1.2491z" fill="url(#a)"/>
   <path d="m110.39 0.56152c-5.09-0.03135-9.34 0.73078-13.692 1.6368-21.913 4.5603-44.509 10.195-66.892 15.722-26.536 6.551-29.806 51.664-29.806 58.492v110.27c0 6.828 3.2699 51.984 29.806 58.535 22.383 5.5263 44.561 11.161 66.891 15.721 4.3565 0.88967 8.6048 1.6271 13.697 1.5937 13.028-0.0857 20.727-3.2715 29.16-11.888 10.035-10.253 13.697-27.651 13.697-43.503v-151.14c0-15.852-3.6621-33.25-13.697-43.503-8.43-8.6209-16.13-11.85-29.16-11.935z" fill="#00a232"/>
  </g>
  <path d="m439.05 159.63v77.869l-72.749-1.3243v69.394l72.749-1.3242v78.311l58.093-3.8846v-75.574l63.037-1.1477v-62.154l-63.037-1.1478v-75.397l-58.093-3.6197z" fill="#fff"/>
  <path d="m232.58 69.243-90.51 14.22-90.186 191.46c-13.231 28.09-22.691 107.71 42.788 113.95l70.78 6.7257v65.912l67.129 9.2238v-68.73l36.319 3.4589v-86.794l-36.319-1.217v-248.21zm-67.129 102.87v143.1l-45.543-1.4732c-17.028-0.56316-17.789-13.523-13.58-22.035l59.122-119.59z" fill="#fff"/>
 </g>
 <g transform="translate(-.43364 -.00018252)" fill="#c8c8c8" stroke-width="327.72">
  <path d="m544.85 155.76h19.887v73.074q0 9.2498 4.6248 14.491 4.7791 5.0874 12.796 5.0874 8.0164 0 12.641-5.0874 4.7792-5.2416 4.7792-14.491v-73.074h19.733v75.078q0 15.879-10.175 25.437-10.175 9.5581-26.978 9.5581-16.65 0-26.979-9.5581-10.329-9.5582-10.329-25.437z" style="white-space:pre"/>
  <path d="m633.85 155.76h19.733v44.091h35.303v-44.091h19.733v107.91h-19.733v-46.403h-35.303v46.403h-19.733z" style="white-space:pre"/>
  <path d="m725.23 155.76h39.466q16.341 0 25.745 9.5582 9.5582 9.404 9.5582 25.437v37.924q0 16.033-9.5582 25.591-9.404 9.404-25.745 9.404h-39.466zm39.466 90.494q7.3998 0 11.408-5.0874 4.1624-5.0874 4.1624-14.337v-34.224q0-9.2498-4.1624-14.183-4.0082-5.0874-11.408-5.0874h-19.733v72.919z" style="white-space:pre"/>
 </g>
 <defs>
  <linearGradient id="a" x1="54.221" x2="54.221" y1="-4.565" y2="45.828" gradientTransform="matrix(5.2236,0,0,5.2236,23.034,23.273)" gradientUnits="userSpaceOnUse">
   <stop stop-color="#b4f25c" offset="0"/>
   <stop stop-color="#7da840" offset="1"/>
  </linearGradient>
 </defs>
</svg>
