<svg xmlns="http://www.w3.org/2000/svg" height="263.16" width="600">
    <defs>
        <linearGradient id="a" y2="45.828" gradientUnits="userSpaceOnUse" x2="54.221" gradientTransform="matrix(5.22358 0 0 5.22358 23.034 23.273)" y1="-4.565" x1="54.221">
            <stop stop-color="#b4f25c" offset="0"/>
            <stop stop-color="#7da840" offset="1"/>
        </linearGradient>
    </defs>
    <path fill="#bbbaba" d="M363.02 203.41v-55.339h44.213v55.339h46.82V60.63h-46.82v48.191H363.02V60.63h-46.798v142.78h46.798zM509.57 93.95h8.924c24.972 0 34.705 7.934 34.705 37.672 0 26.973-11.913 38.481-33.716 38.481h-9.913V93.952zm14.68 109.46c45.81 0 75.75-20.64 75.75-74.36 0-46.996-28.57-68.417-74.58-68.417h-62.644v142.78h61.475z"/>
    <path fill="url(#a)" d="M117.76.002c-9.97.052-18.913 1.298-25.456 3.66l15.546 127.93-15.546 127.88c10.468 3.782 27.04 4.761 44.235 2.456 40.304-5.404 80.194-11.957 120-18.521 27.477-4.531 36.181-32.722 36.181-48.07V67.798c0-15.346-8.704-43.537-36.181-48.068-39.81-6.566-79.7-13.077-120-18.48-6.45-.865-12.8-1.28-18.78-1.25z"/>
    <path fill="#00a232" d="M110.39.562c-5.09-.032-9.34.73-13.692 1.636-21.913 4.56-44.509 10.195-66.892 15.722C3.27 24.471 0 69.584 0 76.412v110.27c0 6.828 3.27 51.984 29.806 58.535 22.383 5.527 44.561 11.161 66.891 15.721 4.357.89 8.605 1.627 13.697 1.594 13.028-.086 20.727-3.271 29.16-11.888 10.035-10.253 13.697-27.651 13.697-43.503V56.001c0-15.852-3.662-33.25-13.697-43.503-8.43-8.62-16.13-11.85-29.16-11.935z"/>
    <path fill="#FFF" d="M214.2 77.877v37.99l-35.492-.646v33.855l35.492-.646v38.205l28.342-1.895v-36.87l30.754-.56v-30.323l-30.754-.56V79.643L214.2 77.877zM113.47 33.781l-44.158 6.938-44 93.401c-6.454 13.71-11.07 52.55 20.876 55.6L80.719 193v32.16l32.751 4.5v-33.54l17.72 1.69v-42.34l-17.72-.59V33.78zM80.719 83.969v69.811l-22.219-.72c-8.307-.27-8.679-6.59-6.625-10.75l28.844-58.341z"/>
</svg>
