<svg width="211.67mm" height="146.59mm" version="1.1" viewBox="0 0 211.67 146.59" xml:space="preserve" xmlns="http://www.w3.org/2000/svg" xmlns:xlink="http://www.w3.org/1999/xlink">
 <path d="m103.43 146.59h4.2102v-7.6863h7.6406v-3.736h-7.6406v-5.0528h9.3247v-3.736h-13.535zm29.97 0h4.522l-9.1688-20.578h-1.4034l-9.2 20.578h4.522l1.1539-2.6336h8.4203zm-2.6197-6.0327h-5.4888s2.7444-6.8289 2.7444-6.8289zm28.723-14.546-8.701 10.932-8.701-10.932h-1.3722v20.578h4.2102v-10.779s5.1769 6.3695 5.1769 6.3695h1.3722l5.1769-6.3695v10.779h4.2102v-20.578zm6.1125 20.578h4.2102v-20.211h-4.2102zm8.9193 0h13.223v-3.736h-9.0129v-16.475h-4.2101zm32.902-20.211h-4.6468s-4.522 8.0232-4.522 8.0232-4.5532-8.0232-4.5532-8.0232h-4.6779l7.1105 12.28v7.9313h4.2102v-7.9619z" fill="#fff" stroke-width=".38629" aria-label="FAMILY"/>
 <defs>
  <linearGradient id="c" x1="109.85" x2="158.64" y1="139.53" y2="137.06" gradientTransform="matrix(1.4924,0,0,1.4924,-43.556,-63.613)" gradientUnits="userSpaceOnUse">
   <stop stop-color="#b1b1b1" offset="0"/>
   <stop stop-color="#fff" offset="1"/>
  </linearGradient>
  <linearGradient id="b" x1="148.27" x2="148.67" y1="100.18" y2="143.74" gradientTransform="matrix(1.4924,0,0,1.4924,-43.556,-63.613)" gradientUnits="userSpaceOnUse">
   <stop stop-color="#fff" offset="0"/>
   <stop stop-color="#adabae" offset="1"/>
  </linearGradient>
  <linearGradient id="a" x1="101.03" x2="99.57" y1="163.93" y2="88.298" gradientTransform="matrix(1.4924,0,0,1.4924,-43.556,-63.613)" gradientUnits="userSpaceOnUse">
   <stop stop-color="#fff" offset="0"/>
   <stop stop-color="#b0abb2" offset="1"/>
  </linearGradient>
  <linearGradient id="e" x1="63.609" x2="63.531" y1="61.381" y2="137.82" gradientUnits="userSpaceOnUse">
   <stop stop-color="#adabae" offset="0"/>
   <stop stop-color="#fff" offset="1"/>
  </linearGradient>
  <linearGradient id="d" x1="-17.385" x2="44.287" y1="158.45" y2="158.45" gradientUnits="userSpaceOnUse">
   <stop stop-color="#fff" offset="0"/>
   <stop stop-color="#abafa0" offset="1"/>
  </linearGradient>
 <linearGradient id="f" x1="-17.973" x2="41.725" y1="91.301" y2="110.52" gradientUnits="userSpaceOnUse">
  <stop stop-color="#fff" offset="0"/>
  <stop stop-color="#ddd9da" offset="1"/>
 </linearGradient>
 </defs>
 <g transform="matrix(.99996 0 0 .99996 17.385 -60.661)" stroke-width=".39488">
  <path d="m187.95 116.86c-8.3709-2.0382-22.079 35.527-29.537 34.815l-1.3808 0.0614-27.484 0.23438c-5.394-0.2039-7.3696-1.4837-9.1543-7.3418h-2e-3c-10.813-35.719-7.4693 27.791 22.346 36.88 17.894 0.0143 22.098 0.31092 24.285-0.18115 3.2552-0.7324 5.8915-1.6387 7.7793-2.6738 0.4344-0.2382 1.6789-0.88463 2.7676-1.4356 2.2616-1.1445 7.4986-5.9753 9.6445-8.8984 3.3609-4.578 6.1275-9.6761 7.0254-15.627 0.0509-25.524-0.0911-36.209 0.0491-36.189z" fill="url(#c)"/>
  <path d="m59.885 197.18c-3.033-0.91457-4.5662-1.8466-7.0572-4.2902-2.8269-2.7731-3.972-4.9323-4.5699-8.6177-0.61113-3.7664-0.38854-42.133-0.38854-42.133 0.16019-0.0486 42.762-0.26869 45.836 0.45476 7.3209 1.7231 12.55 9.4929 11.585 17.214-1.1777 9.4257-8.0897 14.628-19.434 14.628h-4.4503v4.2898c0 4.8395-0.45497 7.8117-1.5496 10.123-1.6746 3.5361-5.5703 6.8498-9.676 8.2304-2.2887 0.76958-7.8949 0.82432-10.295 0.10059z" fill="#d60405"/>
  <path d="m116.94 180.71c-2.7323-0.57185-10.106-2.5812-14.908-8.2884l-0.97028-1.1531 1.5748-2.0651c9.0631-11.885 0.44642-26.399-9.825-28.134l-1.5378-0.25982v-73.496l4.2449 0.22827c12.823 0.68954 20.297 5.2456 23.009 14.025 1.6319 5.2833 1.7021 6.756 1.7658 37.001 0.066 31.307 0.15765 32.965 2.1734 39.29 0.9649 3.0275 3.2399 7.8445 4.7556 10.069 1.5393 2.2595 4.951 5.697 7.5529 7.6102 4.6496 3.4188 11.24 5.7843 11.212 5.9722-5.8e-4 4e-3 -0.72417 0.0137-12.264 0-11.445-0.0134-13.487-0.11076-16.782-0.80035z" fill="url(#a)"/>
  <path d="m-6.257 173.42c-4.2992-1.1332-8.1647-4.6945-9.9163-9.136-1.6809-7.1278-1.0453-14.905-1.2119-22.145h61.672v31.905l-24.186-0.026c-19.801-0.0213-24.58-0.12984-26.358-0.59845z" fill="url(#d)"/>
  <path d="m158.41 151.67c0.0296 0.0526 1.8863-0.58277 3.1587-2.0372 2.7779-3.8899 2.7656-3.0983 2.7656-30.707 0-25.33 0.24991-30.612 1.652-34.918 3.4007-10.445 10.833-15.552 24.428-16.787 2.4777-0.16839 2.952-0.20664 3.8711-0.12889v58.435c-1.843 5.7644-4.5889 10.284-7.5615 13.919-4.5957 5.6192-10.502 9.2982-18.046 11.241-3.5724 0.73184-9.4856 1.2438-10.265 0.98825z" fill="url(#b)"/>
  <path d="m-17.386 136.5c0-2.1942 1.5155-5.6508 2.7818-7.6304 0.97079-1.5175 12.298-17.614 16.914-24.034 1.1283-1.5696 3.0412-4.2754 4.2508-6.0128 3.7105-5.3297 5.6973-8.129 8.6881-12.241 3.038-4.1771 4.4368-6.1489 6.8632-9.6745 4.386-6.3731 8.1767-11.4 9.4674-12.555 2.7554-2.4657 6.1509-3.635 10.555-3.635h2.1524v41.35l-5.4295 7.5716c-2.9862 4.1643-7.4362 10.364-9.8888 13.778-2.4526 3.4135-4.8825 6.8282-5.3999 7.5884-0.51737 0.76015-1.8175 2.6259-2.8891 4.1462l-1.9485 2.9583-36.117 4.5e-4z" fill="url(#f)"/>
  <path d="m47.869 99.387v-38.724h12.312c10.016 0.12223 12.281 0.40233 14.024 0.97842 6.459 2.1348 6.8454 8.2371 6.8352 9.641v66.828l-33.171 1e-3z" fill="url(#e)"/>
 </g>
</svg>
