<?xml version="1.0" encoding="UTF-8"?>
<svg class="LiveSubNavButton_logo__3Ddza LiveSubNavButton_activeLogo__15G-Q layout_mbXs__3-F25" fill="rgb(255, 59, 1)" version="1.1" viewBox="0 0 523.9 128" xml:space="preserve" xmlns="http://www.w3.org/2000/svg" xmlns:cc="http://creativecommons.org/ns#" xmlns:dc="http://purl.org/dc/elements/1.1/" xmlns:rdf="http://www.w3.org/1999/02/22-rdf-syntax-ns#"><metadata><rdf:RDF><cc:Work rdf:about=""><dc:format>image/svg+xml</dc:format><dc:type rdf:resource="http://purl.org/dc/dcmitype/StillImage"/><dc:title/></cc:Work></rdf:RDF></metadata><path class="st0" d="m495.2 27.9 23.4-0.9 5.2-22.4c0.3-1.2-0.5-2.5-1.7-2.8-0.2 0-0.4-0.1-0.5-0.1h-18.9c-1.1 0-2 0.8-2.3 1.8l-5.2 24.4z"/><path class="st0" d="m181.1 39.8-4.3-35.4c-0.2-1.3-1.3-2.3-2.6-2.3h-22c-0.9 0-1.7 0.4-2.1 1.1l-25.8 38.6 24.6-0.9 8.2-13.5 0.8 13.1 23.2-0.7z"/><path class="st0" d="m252.3 3c-5.4-2.1-11.1-3.1-16.9-3-6.3-0.1-12.5 1.2-18.2 3.6-11.1 4.7-20 13.4-24.9 24.4-1.7 3.7-2.9 7.6-3.5 11.6l26.6-1c0.3-1.2 0.6-2.3 1.1-3.4 0.9-2.4 2.3-4.6 3.9-6.5 1.6-1.8 3.6-3.4 5.8-4.4 2.3-1.1 4.8-1.7 7.4-1.6 2.4 0 4.7 0.4 6.9 1.3 1.2 0.5 2.4 1.3 3.3 2.2s2.4 0.9 3.3 0l14.4-14.2c1-0.9 1-2.5 0.1-3.4l-0.1-0.1c-2.7-2.3-5.8-4.2-9.2-5.5"/><path class="st0" d="m266.5 22.7h16l-3.1 13.5 24.7-0.9 2.9-12.6h16.4c1.1 0 2-0.7 2.2-1.8l3.7-15.9c0.3-1.2-0.5-2.5-1.7-2.8-0.2 0-0.3-0.1-0.5-0.1h-56.9c-1.1 0-2 0.7-2.2 1.8l-3.7 15.9c-0.3 1.2 0.5 2.5 1.7 2.8 0.1 0 0.3 0.1 0.5 0.1"/><path class="st0" d="m327.8 34.4 24.8-0.9 6.5-28.4c0.3-1.3-0.6-2.7-1.9-2.9-0.2 0-0.3-0.1-0.5-0.1h-19.5c-1.2 0-2.1 0.8-2.4 1.9l-7 30.4z"/><path class="st0" d="m433 9.7c-3.2-3.1-7-5.5-11.2-7-5.1-1.8-10.5-2.6-15.8-2.5-6.4-0.1-12.8 1.1-18.8 3.5-11 4.3-19.9 12.8-24.8 23.6-0.9 1.9-1.6 3.9-2.2 5.9l26.7-1c0.7-1.3 1.5-2.4 2.5-3.5 1.6-1.9 3.6-3.5 5.9-4.6 2.3-1.2 4.9-1.8 7.5-1.8 2 0 4 0.3 5.8 1.1 1.6 0.6 3 1.6 4.2 2.9 1.1 1.3 1.9 2.7 2.4 4.3 0 0.2 0.1 0.4 0.1 0.6l26-1c-0.1-3.3-0.7-6.6-1.7-9.8-1.4-4-3.7-7.7-6.6-10.7"/><path class="st0" d="m454.7 3.9-6 26 39.2-1.4-8.3-24.8c-0.3-1-1.2-1.6-2.2-1.6h-20.4c-1.1 0-2.1 0.7-2.3 1.8"/><path class="st0" d="m131.5 69.9h24.2l0.9 9.2c0.1 1.2 1.1 2.1 2.4 2.1h20.5c1.3 0 2.4-1 2.4-2.4v-0.3l-4.1-34.1-23.3 0.9 0.4 5.8h-12.9l3.3-5.4-24.7 1-20.6 30.8c-0.7 1.1-0.4 2.6 0.7 3.3 0.4 0.3 0.9 0.4 1.3 0.4h21.4c0.8 0 1.6-0.4 2-1.1l6.1-10.2z"/><path class="st0" d="m232.6 58.9c-2.4 1.1-5 1.7-7.6 1.7-4.6 0-7.9-1.3-10.1-3.8-2.2-2.6-3.2-5.9-2.9-9.3 0.1-1.5 0.3-2.9 0.6-4.4l-26.6 1.1c-0.4 2-0.6 4.1-0.7 6.2-0.3 4.6 0.3 9.2 1.7 13.6 1.3 3.9 3.5 7.5 6.5 10.4 3.1 3 6.8 5.3 10.8 6.6 4.8 1.6 9.8 2.4 14.9 2.3 3.4 0 6.9-0.3 10.2-1 2.9-0.6 5.7-1.4 8.4-2.4 2.4-0.9 4.6-2.1 6.8-3.4 1.3-0.8 2.5-1.6 3.5-2.5 1-0.8 1.3-2.2 0.6-3.3l-8.4-13.7c-0.7-1.2-2.2-1.5-3.4-0.8l-0.1 0.1c-1.3 1.1-2.7 1.9-4.2 2.6"/><path class="st0" d="m300.6 39.6-24.7 1-8.6 37.5c-0.3 1.4 0.5 2.8 1.9 3.1 0.2 0 0.4 0.1 0.6 0.1h19.2c1.2 0 2.2-0.8 2.5-2l9.1-39.7z"/><path class="st0" d="m349.2 37.7-24.8 1-9.2 39.6c-0.3 1.3 0.5 2.5 1.8 2.8 0.2 0 0.3 0.1 0.5 0.1h19.8c1.1 0 2-0.8 2.3-1.8l9.6-41.7z"/><path class="st0" d="m363 73.6c3.2 3.1 7 5.5 11.2 7 5.1 1.7 10.4 2.6 15.7 2.5 6.5 0.1 12.9-1.1 18.9-3.5 5.5-2.2 10.5-5.4 14.8-9.5 4.2-4 7.6-8.8 9.9-14.1 2.5-5.5 3.9-11.4 4.2-17.4 0.1-1.5 0.1-2.9 0-4.4l-26.1 1c0.5 1.7 0.7 3.4 0.6 5.2-0.1 2.6-0.7 5.2-1.7 7.6-0.9 2.4-2.3 4.6-3.9 6.5s-3.6 3.4-5.8 4.5c-2.3 1.1-4.9 1.7-7.5 1.7-2 0-4-0.3-5.9-1.1-3.2-1.3-5.6-3.9-6.6-7.2-0.5-1.7-0.7-3.5-0.6-5.3 0.2-3.8 1.4-7.5 3.3-10.8l-26.8 1.1c-1.2 3.8-1.9 7.8-2.1 11.8-0.3 4.6 0.3 9.3 1.7 13.7 1.5 4 3.7 7.7 6.7 10.7"/><path class="st0" d="m504.2 79.4 11.1-48.3-23.5 0.9-2.8 13.4h-0.4l-4.4-13.1-38.8 1.5-10.2 44.5c-0.3 1.3 0.5 2.5 1.7 2.8 0.2 0 0.4 0.1 0.6 0.1h18.8c1.1 0 2.1-0.8 2.3-1.9l7.4-35.1h0.4l12.2 35.4c0.3 1 1.2 1.6 2.2 1.6h21c1.2 0 2.2-0.7 2.4-1.8"/><path class="st0" d="m75.3 2.1h-31l-7.9 23.9h38.9c1.8 0 3.3-1.5 3.3-3.3v-17.3c0.1-1.8-1.4-3.3-3.3-3.3m-48.8 82.8c0-1.8-1.4-3.3-3.3-3.3h-19.9c-1.8 0-3.3 1.5-3.3 3.3 0 23 18.1 41.9 41.1 43v-26.7c-8.3-0.9-14.6-7.9-14.6-16.3m13.7-82.8h-23.6c-1.4 0-2.7 0.9-3.1 2.3l-11.1 33.5h26.1l11.7-35.8zm-22.8 63.7h25.6c13.2 0 25.4 6.9 32.3 18.2 3.9 6.5 5.8 14.1 5.4 21.7 3.5-6.4 5.4-13.5 5.4-20.8 0-23.8-19.2-43-43-43.1h-41.1l10.1 20.6c1 2.1 3.1 3.4 5.3 3.4m58 27.8c2.7 8.8 0.4 18.3-6 24.9 0 0-7.9 8.5-24.4 9.4v-26.5c9-1.1 15.5-9.3 14.4-18.4-0.6-5.1-3.5-9.6-7.9-12.2 11.4 3 20.4 11.6 23.9 22.8"/></svg>
