<svg version="1.1" viewBox="0 0 1036 1036" xmlns="http://www.w3.org/2000/svg">
 <path d="m329.4 0-329.4 329.45v706.55h1036v-1036h-706.59z" fill="#d40026" fill-rule="evenodd"/>
 <path d="m565.44 397.32c-46.542 0.7812-94.183 7.1486-135.06 30.462l0.032-98.402 347.64 0.066v-145.35h-406.1l-118.48 118.79v280.16h173.92c12.211-18.298 28.467-44.565 85.221-44.565 72.066 0 106.59 45.689 106.59 108.62 0 54.806-29.404 108.56-103.55 108.56-51.803-1.3712-86.083-30.031-91.444-81.048h-206.52c22.912 159.96 151.66 218.15 296.97 221.16 170.81 5.4616 306.25-62.076 316.74-263.92 0-140.13-114.72-234.53-265.98-234.53z" fill="#fff" fill-rule="evenodd" Googl="true"/>
</svg>
