<svg xmlns="http://www.w3.org/2000/svg" height="982" width="3497.9" viewBox="0 0 3279.281 920.625">
    <g fill="#fff">
        <path d="M529.34 36.562H311.48l-55.505 168.119H529.34c12.844 0 23.27-10.426 23.27-23.306V59.832c0-12.845-10.426-23.27-23.27-23.27M186.194 618.449c0-12.845-10.426-23.27-23.27-23.27H23.27c-12.88 0-23.27 10.425-23.27 23.27 0 162.496 128.09 294.963 288.808 302.15V733.481c-57.57-6.796-102.614-55.648-102.614-115.032M282.71 36.562H116.586c-10.034 0-18.93 6.44-22.096 16.011l-77.815 235.9H199.63zM122.268 484.117h180.145c96.068 0 180.358 51.272 226.969 127.913 0 0 44.155 66.785 38.036 152.676 0 0 37.715-59.846 37.715-146.236 0-167.123-135.455-302.578-302.542-302.578H14.316l70.806 145.027s9.927 23.198 37.146 23.198"/>
        <path d="M529.874 679.591c31.027 108.415-42.34 175.022-42.34 175.022s-55.791 59.633-171.321 65.895V733.496c57.57-6.725 102.294-55.648 102.294-115.032 0-42.448-22.878-79.416-56.893-99.59 0 0 125.528 25.724 168.26 160.717"/>
    </g>
    <g fill="#fff">
        <path d="M973.21 38.07c-21.437 0-169.606-1.649-226.702 105.313-19.842 36.455-20.64 71.262-20.64 86.655-.749 62.363 30.941 100.433 48.396 115.86 26.91 24.293 68.187 43.706 145.029 59.1 49.983 10.548 85.645 15.427 105.443 22.677 16.595 5.703 22.986 12.953 26.938 21.096.824 2.44 3.985 7.285 3.985 13.744 0 28.313-34.909 43.775-84.84 43.775-38.844 0-97.482-12.164-129.21-40.51-7.91-6.46-15.067-15.36-26.955-34.841L698.36 543.226c11.7 13.435 23.767 24.98 40.242 37.555 66.548 51.059 144.239 64.837 225.905 64.837 23.773 0 118.125 1.615 190.246-52.673 21.097-15.978 60.164-52.296 70.85-116.033v362.495l160.15-164.824v-81.707c4.948 9.208 12.92 17.695 18.417 21.715 8.52 5.841 16.527 11.305 25.46 14.603l240.655-250.654c-11.373-98.818-64.252-180.903-176.78-180.903-46.73 0-77.619 15.393-92.737 27.522-4.742 3.23-7.903 6.494-15.805 16.252v-32.436h-159.36v200.317c-15.084-86.861-87.274-113.215-118.404-123.317-55.49-18.691-107.834-25.976-127.677-29.205-15.022-2.44-48.337-8.9-62.566-17.833-8.002-5.67-14.317-15.359-14.317-25.907 0-19.448 19.045-28.347 22.227-29.996 16.613-7.285 38.046-7.285 41.977-7.285 42.025 0 98.334 8.934 130.804 39.72 4.776 4.02 8.762 8.9 15.874 18.623l105.106-101.567c-11.75-12.095-21.337-21.921-36.18-32.917-80.024-59.957-180.691-61.538-209.237-61.538zm477.53 285.048c7.938 0 29.31 3.127 43.534 21.819 15.909 20.959 17.524 52.913 17.524 77.755 0 29.653-3.986 68.514-33.329 86.45-13.469 7.765-24.533 8.52-31.68 8.52-5.566 0-15.874 0-28.552-6.974-31.749-17.111-34.085-58.343-34.085-89.473 0-31.989 1.615-72.396 34.875-90.332 12.679-7.009 25.426-7.765 31.714-7.765zM1834.12 205.642l-163.347 170.94V628.61h163.346zM1752.378 204.44c45.045 0 81.57-37.35 81.57-83.426 0-46.041-36.525-83.322-81.57-83.322s-81.605 37.28-81.605 83.322c0 46.077 36.559 83.426 81.605 83.426M2033.027 511.145l42.778-42.125 88.82 159.6h186.264l-48-78.855-6.323-10.342-108.954-178.911 156.164-151.56H2144.8L2033.027 328.9V.01l-163.311 169.909V628.62h163.311z"/>
        <path d="M2481.765 198.358c-22.093 0-100.468 3.848-156.818 59.064-22.815 22.575-60.095 73.874-60.095 157.059 0 42.537 10.308 83.39 29.996 118.162l6.047 9.93c20.891 32.436 50.578 58.824 88.752 74.87 29.686 12.473 60.85 17.111 93.595 17.111 32.676 0 63.944-4.638 93.63-17.11 58.755-24.705 97.72-73.737 114.83-132.148h-141.287c-7.421 15.874-23.776 36.696-59.03 36.043l-.55-.275c-41.815.722-61.297-28.793-66.623-44.324-3.848-12.438-3.848-31.13-3.848-31.13h278.966c0-36.558-.756-70.746-11.407-105.759-8.35-27.213-22.85-53.635-41.85-74.663-57.037-62.982-137.714-66.83-164.308-66.83zm2.99 101.842c12.231 0 41.093 4.639 51.71 38.105 3.093 10.102 3.093 17.867 3.849 22.54H2421.91c1.478-8.555 5.326-41.232 34.188-54.426 4.604-2.336 16.493-5.463 28.656-6.219zM3189.348 29.837l89.97-.045v290.243l-120.68 125.808v-237.17l-84.42-.148.06-84.434c26.078-1.495 52.584-8.555 73.497-24.776 22.096-16.812 36.186-42.49 41.573-69.47zM2932.716 208.68H2982l-.015 94.986h92.767l.014 47.02-92.766.015-.015 94.986h-49.269v-94.971l-91.893-.015-.104-46.887 92.012-.162z"/>
    </g>
</svg>
