<svg width="123" height="72" viewBox="0 0 123 72" fill="none" xmlns="http://www.w3.org/2000/svg">
<g clip-path="url(#clip0_3_2133)">
<path d="M115 12.1221H9V60.8779H115V12.1221Z" fill="#FFCE78"/>
<path d="M54.3191 15.89H12.7679V57.4412H54.3191V15.89Z" fill="#561212"/>
<path d="M98.9758 51.3752H89.6387L82.4547 27.9807H78.5211V51.5408H70.0121V28.1463H60.8613V21.9353H88.9969L94.2348 41.3963L99.9488 21.9353H108.623L98.9758 51.3752Z" fill="#561212"/>
<path d="M44.1746 38.2908C46.3071 36.9865 47.777 35.1854 47.777 32.8873C47.777 29.1193 43.6778 26.0139 38.4606 26.0139C37.7981 26.0139 37.3219 26.0139 36.6594 26.1795V26.0139V21.4385H18.4821V27.1732H29.1235L18.1715 46.3029H25.6867L31.0903 36.9865C31.5871 37.4834 32.0633 37.8146 32.7258 38.1252C30.1172 39.4295 28.316 41.5619 28.316 44.0049C28.316 47.9385 32.8914 51.2096 38.4606 51.2096C44.0297 51.2096 48.6051 47.9385 48.6051 44.0049C48.5844 41.7275 46.7832 39.4502 44.1746 38.2908ZM38.4399 30.7756C40.0754 30.7756 41.5453 32.0799 41.5453 33.7154C41.5453 35.351 40.241 36.6553 38.4399 36.6553C36.8043 36.6553 35.3344 35.351 35.3344 33.7154C35.3344 32.0799 36.8043 30.7756 38.4399 30.7756ZM38.4399 46.4686C36.4731 46.4686 34.6719 45.1643 34.6719 43.5287C34.6719 41.8932 36.3074 40.5889 38.4399 40.5889C40.5723 40.5889 42.2078 41.8932 42.2078 43.5287C42.2078 45.1643 40.4067 46.4686 38.4399 46.4686Z" fill="#FFCE78"/>
</g>
<defs>
<clipPath id="clip0_3_2133">
<rect width="106" height="48.7559" fill="white" transform="translate(9 12.1221)"/>
</clipPath>
</defs>
</svg>
