<svg width="797.631" height="381.543" viewBox="0 0 211.04 100.95" xmlns="http://www.w3.org/2000/svg">
    <g fill="#fff">
        <g stroke-width=".073" style="font-feature-settings:normal;font-variant-caps:normal;font-variant-ligatures:normal;font-variant-numeric:normal" aria-label="RADIO">
            <path d="M117.328 50.098h3.992l-3.458-5.764c1.787-.875 2.993-2.624 2.993-4.553 0-2.983-2.483-5.383-5.57-5.383h-6.497v15.7h3.713v-5.159h1.764zm-4.827-12.335h2.785c1.02 0 1.856.874 1.856 2.018 0 1.144-.835 2.019-1.856 2.019H112.5zM133.394 50.098h4.061l-5.523-15.7h-4.734l-5.523 15.7h4.06l.813-2.467h6.034zm-5.732-5.832l1.903-5.764 1.903 5.764zM145.338 34.435h-6.498v15.7h6.498c4.48 0 7.89-3.41 7.89-7.85s-3.41-7.85-7.89-7.85zm0 12.245h-2.785V37.89h2.785c2.553 0 4.317 1.704 4.317 4.396s-1.764 4.396-4.317 4.396zM155.339 34.435v15.7h3.713v-15.7zM169.572 50.45c4.665 0 8.448-3.544 8.448-8.164s-3.783-8.164-8.448-8.164c-4.664 0-8.447 3.544-8.447 8.164s3.783 8.164 8.447 8.164zm0-3.5c-2.645 0-4.734-1.86-4.734-4.664 0-2.804 2.089-4.665 4.734-4.665s4.734 1.861 4.734 4.665c0 2.803-2.088 4.665-4.734 4.665z"/>
        </g>
        <g style="font-feature-settings:normal;font-variant-caps:normal;font-variant-ligatures:normal;font-variant-numeric:normal" aria-label="REGIO TV">
            <path d="M117.204 74.92h3.933l-3.407-5.764c1.76-.874 2.95-2.624 2.95-4.553 0-2.983-2.447-5.382-5.488-5.382h-6.403V74.92h3.659V69.76h1.738zm-4.756-12.335h2.744c1.006 0 1.83.874 1.83 2.018s-.824 2.019-1.83 2.019h-2.744zM126.513 71.463v-2.781h5.717v-3.41h-5.717v-2.6h6.289v-3.455h-9.947v15.7h10.061v-3.454z" stroke-width=".072"/>
            <path d="M148.578 66.188h-6.258v3.14h3.81v2.177c-1.196.579-2.612.245-3.647.245-2.772 0-4.484-1.95-4.484-4.62 0-2.758 1.793-4.71 4.199-4.71 1.61 0 2.894.808 3.485 1.84l2.773-1.75a7.146 7.146 0 0 0-6.238-3.588c-4.2 0-7.48 3.633-7.48 8.186 0 4.508 3.22 8.142 7.705 8.142 3.995 0 6.136-1.135 6.136-1.135z" stroke-width=".068"/>
            <g stroke-width=".072">
                <path d="M151.837 59.23v15.699h3.658v-15.7zM165.86 75.23c4.596 0 8.323-3.543 8.323-8.163s-3.727-8.164-8.323-8.164-8.323 3.544-8.323 8.164 3.727 8.163 8.323 8.163zm0-3.498c-2.607 0-4.665-1.862-4.665-4.665s2.058-4.666 4.665-4.666 4.664 1.862 4.664 4.666-2.057 4.665-4.664 4.665zM192.24 59.23h-11.89v3.453h4.115V74.93h3.659V62.683h4.116zM197.66 74.92h4.665l5.214-15.699h-4.002l-3.544 11.55-3.544-11.55h-4.002z"/>
            </g>
        </g>
        <g style="font-feature-settings:normal;font-variant-caps:normal;font-variant-ligatures:normal;font-variant-numeric:normal" aria-label="INTERNET">
            <path d="M109.088 85.233v15.7h3.792v-15.7z" stroke-width=".074"/>
            <path d="M125.338 85.233v8.522l-5.773-8.522h-3.858v15.7h3.951V92.41l5.774 8.523h3.858v-15.7z" stroke-width=".075"/>
            <g stroke-width=".074">
                <path d="M142.723 85.233h-12.324v3.454h4.266v12.245h3.792V88.687h4.266zM148.152 97.51v-2.78h5.924v-3.41h-5.924V88.72h6.517v-3.454h-10.31v15.7h10.429V97.51zM165.625 100.95h4.077l-3.532-5.764c1.825-.875 3.058-2.624 3.058-4.553 0-2.982-2.536-5.382-5.688-5.382h-6.636v15.7h3.792v-5.159h1.8zm-4.93-12.335h2.844c1.043 0 1.896.875 1.896 2.018s-.853 2.019-1.896 2.019h-2.844zM191.154 97.51v-2.78h5.925v-3.41h-5.925V88.72h6.517v-3.454h-10.309v15.7h10.428V97.51zM211.045 85.233h-12.324v3.454h4.266v12.245h3.792V88.687h4.266z"/>
            </g>
            <path d="M180.466 85.233v8.522l-5.773-8.522h-3.858v15.7h3.951V92.41l5.774 8.523h3.858v-15.7z" stroke-width=".075"/>
        </g>
    </g>
    <path d="M167.305 16.37s27.185-3.257 28.556 23.252c0 0-.001 1.794-1.516 1.872-1.276.079-1.514-1.872-1.514-1.872s-.816-22.55-25.207-20.132c0 0-1.507-.07-1.666-1.397-.08-1.638 1.347-1.723 1.347-1.723z" fill="#e7402b"/>
    <path d="M168.427 23.85s18.513-2.51 20.258 16.224c0 0-.001 1.794-1.516 1.872-1.276.079-1.514-1.872-1.514-1.872s-.442-14.699-16.908-13.104c0 0-1.507-.07-1.666-1.397-.08-1.638 1.347-1.723 1.347-1.723z" fill="#e7402b"/>
    <path d="M60.725 34.97L.387 99.32c-.93 1.079.125 1.076.125 1.076h24.265l6.767-7.514H62.84l-.002 7.514H81.87V34.97zm2.116 26.134v10.111s.002.7-.7.713l-10.316.137s-.822.12-.312-.387L62.394 60.85s.447-.424.447.255z" fill="#05499a"/>
    <path d="M93.211 0h10.135c.79.006.708.928.708.928v98.545s.124.928-.708.928h-17.13c-.704-.044-.553-.928-.553-.928v-67.67s.024-.567-.553-.553H67.421c-3.024-.756 0-3.738 0-3.738L92.287.439c.357-.382.445-.44.924-.44z" fill="#e7402b"/>
</svg>
