<svg width="600" height="369.01" xmlns="http://www.w3.org/2000/svg">
    <defs>
        <linearGradient id="c" x1="41.003" x2="224.32" y1="231.43" y2="8.966" gradientUnits="userSpaceOnUse">
            <stop stop-color="#c63d45" offset="0"/>
            <stop stop-color="#bb3a3f" offset=".285"/>
            <stop stop-color="#ba373d" offset=".53"/>
            <stop stop-color="#A93035" offset="1"/>
        </linearGradient>
        <radialGradient id="d" cx="99.874" cy="1552.7" r="33.914" gradientTransform="matrix(-5.4475 14.961 1.7105 .62268 -2013.1 -2396.3)" gradientUnits="userSpaceOnUse">
            <stop stop-color="#FFBAB9" offset="0"/>
            <stop stop-color="#eb5254" offset=".106"/>
            <stop stop-color="#a93035" stop-opacity="0" offset="1"/>
        </radialGradient>
    </defs>
    <path d="M407.82 0h74.89v233.58a1361.06 1361.06 0 0 1 38.395 5.426L600 251.976l-78.896 3.671c-12.79.787-25.65.81-38.395 2.129.04 17.401.04 34.802 0 52.197 11.593 0 23.187-.068 34.785.04-.039 18.883.061 37.777 0 56.661h-101.42c-34.145 0-70.283.496-101.64 2.196-9.065.355-18.67.328-26.91-3.987-5.123-3.157-10.722-6.797-12.705-12.813l-16.429-47.242c-11.554 4.246-22.826 9.245-34.003 14.401-19.895 9.47-39.503 20.197-56.061 34.908-6.257 4.892-12.733 10.307-20.737 11.879-6.145.691-12.232.433-18.535.433l-104.5-.785c-2.78.061-5.252-1.398-7.617-2.674-5.914-3.246-11.126-8.031-14.255-14.059-3.313-7.724-3.818-16.527 0-26.994l110.45-298.3C118.254 11.762 124.162.002 138.615.002h116.83c11.854 0 16.911 13.309 20.22 22.737l74.849 204.97c19.097-.268 38.21-.216 57.29.288V85.657l-30.689 16.76-27.118-67.311L407.828.013m-258.35 259.2c5.572-3.32 12.026-4.572 18.204-6.28 22.327-5.532 44.9-10.076 67.592-13.812l-40.205-116.44" fill="#9B9B9B"/>
    <linearGradient id="a" x1="21.467" x2="52.076" y1="494.41" y2="506.79" gradientTransform="matrix(4 0 0 -4 -7.46 2186.2)" gradientUnits="userSpaceOnUse">
        <stop stop-color="#2B2B2D" offset="0"/>
        <stop stop-color="#656565" offset=".468"/>
        <stop stop-color="#7F7F7F" offset=".691"/>
        <stop stop-color="#8F8F8F" offset=".914"/>
        <stop stop-color="#4C4C4C" offset="1"/>
    </linearGradient>
    <path d="M138.61 0c-14.454 0-20.361 11.762-25.482 23.637L2.678 321.927c-3.818 10.467-3.314 19.271 0 26.994 3.128 6.027 8.341 10.811 14.255 14.057 2.365 1.275 4.837 2.734 7.617 2.672l104.5.791c6.303 0 12.395.256 18.54-.434 8.003-1.572 14.479-6.99 20.736-11.883 16.558-14.71 36.167-25.434 56.062-34.904 11.177-5.156 22.449-10.156 34.002-14.402l-23.133-65.713c-22.692 3.735-45.262 8.278-67.588 13.811-6.178 1.708-12.633 2.962-18.205 6.281l45.592-136.52v-.004L235.521.003 138.608 0z" fill="url(#a)"/>
    <path d="M138.609 0c-14.454 0-20.361 11.761-25.483 23.637L2.677 321.934c-3.818 10.467-3.314 19.27 0 26.994 3.129 6.028 8.342 10.81 14.256 14.057 2.365 1.275 4.837 2.734 7.618 2.672l104.5.785c6.175 0 12.39.263 18.533-.427.62-.122 1.216-.303 1.817-.47-2.335-.275-4.471-1.458-6.516-2.56-5.914-3.246-11.127-8.03-14.256-14.057-3.314-7.723-3.817-16.527 0-26.994L235.523 0H138.61z" fill="#9B1D21"/>
    <path d="M407.8 227.99l-57.287-.288 26.918 82.271h30.375v-81.984l-.006.001z" fill="#9B9B9B"/>
    <linearGradient id="b" x1="122.54" x2="126.55" y1="635.12" y2="634.98" gradientTransform="matrix(4 0 0 -4 -7.46 2786.2)" gradientUnits="userSpaceOnUse">
        <stop stop-color="#494949" offset="0"/>
        <stop stop-color="#9B9B9B" offset="1"/>
    </linearGradient>
    <path d="M482.71 233.58v24.199c12.745-1.319 25.607-1.347 38.396-2.133l78.897-3.668-78.896-12.973a1360.672 1360.672 0 0 0-38.397-5.425z" fill="url(#b)"/>
    <path d="M374.98 237.48c-.85.003-1.699 0-2.549.04-1.145 0-2.288.04-3.434.076-.06.002-.119 0-.18 0-10.747.392-21.993 1.683-32.016 4.775h-.063c-3.544 1.135-7.477 1.918-10.184 4.67-8.71 14.645-9.611 33.363-9.58 49.816h-.004c-.001.449-.04.898-.04 1.348 0 .252.004.504.004.756a11.62 11.62 0 0 0-.004.324c.004.49.004.98 0 1.471 0 1.146.04 2.288.075 3.434.002.06.005.12.005.18.392 10.748 1.682 21.993 4.774 32.016.004.04 0 .044 0 .064 1.135 3.544 1.918 7.476 4.67 10.184 15.036 8.941 34.385 9.664 51.146 9.586v.04c.85-.004 6.569 0 7.418-.04 1.146 0 2.29-.04 3.434-.076.061-.002.12 0 .181 0 10.747-.393 21.994-1.683 32.016-4.775 0-.004.044 0 .063 0 3.545-1.135 7.477-1.918 10.184-4.67 8.709-14.645 9.611-33.363 9.581-49.816h.004c.001-.449.04-.898.04-1.348-.001-.252-.004-.504-.004-.756.002-.108.004-.216.004-.324-.004-.49-.004-.98 0-1.471 0-1.146-.04-2.289-.076-3.434-.002-.061-.004-.12-.004-.18-.393-10.748-1.683-21.994-4.776-32.016-.004 0 0-.044 0-.064-1.134-3.544-1.917-7.477-4.67-10.184-15.035-8.942-35.479-9.665-52.241-9.586-.449-.001-3.323-.04-3.774-.04z" fill="#9B1D21"/>
    <g fill="#fff">
        <path d="M336.14 271.164a1.5 1.5 0 0 0-1.5 1.5v7.676a1.5 1.5 0 0 0 1.5 1.5h10.084l.1 38.38v.008a1.502 1.502 0 0 0 1.5 1.496h8.84a1.5 1.5 0 0 0 1.5-1.496v-.008l.1-38.38h10.084a1.5 1.5 0 0 0 1.5-1.5v-7.676a1.5 1.5 0 0 0-1.5-1.5H336.14zM375.92 271.248a1.5 1.5 0 0 0-1.5 1.5l22.552 48.28c.296.632.876 1.38 1.576 1.376.696-.004 1.264-.756 1.56-1.388l22.572-48.268a1.5 1.5 0 0 0-1.5-1.5h-8.596c-.636.008-1.2.42-1.4 1.024l-11.32 24.312c-.24.5-.76 1.008-1.312 1.004s-1.072-.52-1.308-1.02l-11.316-24.264a1.501 1.501 0 0 0-1.408-1.056h-8.6z"/>
    </g>
    <path d="M138.61 0c-14.454 0-20.361 11.762-25.483 23.638l-81.087 219c51.67-6.754 99.749-23.503 139-48.422L235.528.006z" fill="url(#c)" stroke-width=".562"/>
    <path d="M138.61 0c-14.454 0-20.361 11.762-25.483 23.638l-81.087 219c51.67-6.754 99.749-23.503 139-48.422L235.528.006z" fill="url(#d)" stroke-width=".562"/>
</svg>
