<svg version="1.1" viewBox="0 0 764.38 548.52" xmlns="http://www.w3.org/2000/svg">
 <g transform="translate(8.2248 5.867)">
  <g fill="#fff">
   <rect x="129.42" y="56.114" width="437.29" height="120.71"/>
   <rect x="72.479" y="165.44" width="517" height="177.65"/>
   <rect x="177.25" y="265.65" width="448.68" height="218.64"/>
  </g>
  <path d="m136.47 535.82c-8.69-0.76-29.46-5.48-38.646-8.78-64.513-23.18-103.75-85.9-97.091-155.22 1.5542-16.17 1.9409-17.8 34.638-145.77 16.202-63.41 55.171-219.61 55.664-223.12 0.366-2.6131 1.058-3.0898 4.188-2.8893 7.097 0.45441 94.497 8.6718 123.75 11.635 6.875 0.69635 24.312 2.393 38.75 3.7704s28.781 2.7713 31.875 3.0977c3.0938 0.32636 26.156 2.6072 51.25 5.0685 114.13 11.195 231.74 23.092 232.01 23.469 0.1507 0.21663 55.486 139.25 134.82 338.75 22.37 56.252 40.673 102.72 40.673 103.27 0 0.5443-6.0469 1.373-13.438 1.8415-7.3906 0.46851-15.688 1.0968-18.438 1.3961-2.75 0.29934-12.875 1.1277-22.5 1.8408-9.625 0.71307-20.594 1.5636-24.375 1.89-11.145 0.96216-51.776 4.2473-70 5.6596-9.2812 0.71931-26.719 2.1055-38.75 3.0804-12.031 0.97492-36.5 2.9344-54.375 4.3544-50.891 4.0429-93.11 7.4594-100.62 8.143-3.7812 0.34394-20.938 1.7456-38.125 3.1147-17.188 1.3692-38 3.0613-46.25 3.7603-15.699 1.3301-60.428 4.9203-101.88 8.1769-13.406 1.0534-30.238 2.457-37.405 3.1192-12.321 1.1385-34.729 1.3081-45.72 0.34605zm155.99-105.71c-15.226-41.154-16.611-45.655-16.605-53.984 6e-3 -9.5814 3.0384-14.937 10.334-18.248 4.3383-1.9694 8.224-2.4048 21.661-2.4273 9.0056-0.0151 20.678 0.33634 25.938 0.78097l9.5636 0.80842v98.384h28.75l-8.4e-4 -77.188-8.2e-4 -77.188 19.688 0.29084c10.829 0.15996 37.266 0.30058 58.751 0.3125l39.062 0.0217v34.876l-9.0625-4.2764c-5.2345-2.4701-12.892-4.861-18.13-5.6604-29.641-4.5242-59.248 14.096-67.945 42.731-2.235 7.3583-2.5835 10.978-2.1011 21.824 0.54164 12.179 0.90718 13.666 5.77 23.48 9.3809 18.931 25.502 31.194 45.444 34.569 14.85 2.5128 25.139 0.28136 45.087-9.7785 0.51563-0.26003 0.9375 3.2304 0.9375 7.7564v8.2292h28.614l0.38008-37.812 0.38007-37.812 3.6862-6.6544c4.0043-7.2286 10.23-12.848 17.766-16.035 6.084-2.573 25.13-2.941 33.046-0.6385 8.2332 2.3947 17.086 9.6406 21.628 17.703 3.4356 6.0978 3.8735 8.0055 3.8735 16.875 0 8.7516-0.46364 10.837-3.7139 16.705-7.213 13.023-17.743 18.93-35.036 19.654l-11.25 0.47109-0.35344 13.772-0.35343 13.772h11.653c19.3 0 34.38-5.5324 46.353-17.004 12.524-12.001 19.294-26.436 20.458-43.621 1.229-18.143-4.7163-34.118-17.898-48.091-13.42-14.226-27.948-19.981-50.534-20.016-13.138-0.0204-22.979 2.0573-32.43 6.8461-3.4031 1.7245-6.4874 3.1354-6.854 3.1354s-0.66655-7.875-0.66655-17.5v-17.5h85v-28.34l-67.706-0.82954c-37.238-0.45623-89.269-0.82952-115.62-0.82952h-47.919v-148.75h113.75v26.25h-41.25v33.874c0 36.868-0.5903 40.535-6.994 43.453-5.3602 2.4422-12.487 1.7493-16.374-1.592l-3.5072-3.0152-0.7332-72.72h-28.776l0.38007 37.812 0.38008 37.812 3.5086 7.146c10.836 22.069 34.069 31.135 54.735 21.358 9.3322-4.4146 16.291-10.979 20.943-19.754 3.1756-5.9908 3.3389-7.2607 3.938-30.625l0.625-24.375 13.125-0.75565v76.38h28.75v-131.25h17.5v-27.5h-84.796c-46.638 0-102.61-0.3721-124.38-0.82688l-39.579-0.82688v29.154h15v26.25h-34.76l2.4019-6.3212c3.1335-8.2467 4.2433-22.399 2.4905-31.758-2.96-15.844-14.42-32.732-27.34-40.305-17.76-10.412-41.69-10.524-59.74-0.28-15.83 8.982-29.12 30.085-29.26 46.485l-0.0306 3.4375 28.124-4e-3 2.1293-7.2466c3.6902-12.559 13.174-20.111 26.61-21.189 12.974-1.0415 25.281 6.2996 30.168 17.996 4.3698 10.458 0.36097 27.355-8.1991 34.558-4.4049 3.7064-6.6377 4.4365-15.082 4.9314l-5.625 0.32965-0.35189 13.896-0.35187 13.896 6.22 0.8251c17.043 2.2609 33.29 27.183 34.811 53.399 1.2061 20.787-5.5184 39.576-18.997 53.078-29.805 29.857-84.432 23.361-107.74-12.811-4.1648-6.4627-8.4162-18.13-9.8278-26.971l-0.74846-4.6875h-30.25l0.72986 8.7058c1.5644 18.66 12.329 40.915 27.128 56.086 20.284 20.794 47.293 31.371 76.198 29.839 16.398-0.86886 25.08-3.1146 39.432-10.2 45.069-22.25 66.034-73.356 49.929-121.71-1.7575-5.2768-5.1323-12.869-7.4996-16.871-2.3673-4.0019-4.3042-7.5175-4.3042-7.812 0-0.29447 7.5938-0.53541 16.875-0.53541h16.875v76.25h28.75v-131.25h17.5v148.75h-46.25v28.75h22.426c12.334 0 22.648 0.42187 22.919 0.9375 0.27085 0.51562 0.23965 7.0003-0.0694 14.41l-0.56175 13.473-24.544-0.83512c-36.213-1.2321-50.669 2.1937-62.185 14.737-7.4104 8.0712-9.8541 16.153-9.7597 32.277l0.0769 13.125 11.026 30.625c6.0644 16.844 11.495 31.891 12.068 33.438 1.0041 2.7097 1.6095 2.8125 16.561 2.8125h15.518l-9.3651-25.312zm148.87-10.383c-28.415-10.495-29.12-50.741-1.1067-63.207 13.578-6.042 28.083-2.6975 38.486 8.8741 14.748 16.403 9.9078 42.668-9.7364 52.836-6.5238 3.3768-20.504 4.1339-27.643 1.497z" fill="#d21812"/>
  <path d="m130.67 541.94c-38.316-4.17-67.685-17.54-93.705-42.64-23.062-22.24-36.944-48.42-43.216-81.48-2.5698-13.55-2.6438-43.22-0.1431-57.43 1.0264-5.83 9.7202-41.27 19.319-78.75 28.192-110.07 71.009-281.36 71.009-284.06 0-1.3718 0.95505-2.8607 2.1223-3.3087 1.8563-0.71234 25.706 1.3198 93.277 7.9476 9.86 0.96715 27.435 2.675 39.056 3.7953 83.461 8.0459 208.99 20.477 331.02 32.782 14.79 1.4913 27.287 3.0891 27.77 3.5507 0.48343 0.46154 18.445 44.921 39.915 98.799 110.56 277.45 140.19 352.77 139.04 353.48-0.68573 0.4238-14.345 1.7481-30.355 2.9429-30.781 2.2972-101.95 7.9437-114.9 9.1164-4.2257 0.38253-26.123 2.1295-48.66 3.8821s-44.146 3.479-48.02 3.8363c-3.8736 0.35732-14.534 1.2306-23.69 1.9406-9.1558 0.71001-19.816 1.5804-23.69 1.9341-3.8736 0.35376-32.397 2.6554-63.386 5.1147-59.456 4.7185-99.067 7.9235-110.77 8.9622-3.8736 0.34394-14.534 1.2062-23.69 1.9163-9.1557 0.71001-19.816 1.5764-23.69 1.9254-66.312 5.9739-98.007 7.5655-114.61 5.7554zm132.53-35.285c134.54-9.9055 453.47-34.833 454.05-35.489 0.14269-0.16103-10.535-27.376-23.728-60.477-13.19-33.1-48.95-123.28-79.46-200.4-30.52-77.12-56.11-140.9-56.87-141.73-0.89-0.965-66.6-7.999-182.58-19.541-258.81-25.756-268.23-26.68-268.61-26.356-1.33 1.127-82.762 329.21-84.737 341.38-1.9012 11.717-1.6682 31.078 0.52449 43.599 10.228 58.402 55.386 100.08 114.93 106.08 13.125 1.3222 10.736 1.4557 126.49-7.0667z"/>
 </g>
</svg>
