<svg width="600" height="600" version="1.1" viewBox="0 0 158.75 158.75" xmlns="http://www.w3.org/2000/svg">
 <g transform="translate(-5.0473 -41.45)" fill="#515050">
  <path d="m79.411 185.93c-35.953 0-65.113-29.15-65.113-65.11 0-35.953 29.16-65.102 65.113-65.102 35.949 0 65.109 29.149 65.109 65.102 0 35.96-29.16 65.11-65.109 65.11m5.017-144.48c-43.841 0-79.381 35.54-79.381 79.37 3e-4 43.84 35.54 79.38 79.381 79.38 43.832 0 79.372-35.54 79.372-79.38 0-43.83-35.54-79.37-79.372-79.37"/>
  <path d="m131.59 130.66c-0.45-1.52-1.08-2.83-1.83-3.98-0.75-1.13-1.61-2.1-2.51-2.95-0.89-0.83-1.83-1.53-2.73-2.14 0.83-0.52 1.69-1.12 2.5-1.85 0.81-0.72 1.58-1.58 2.25-2.6s1.23-2.19 1.63-3.56c0.4-1.38 0.62-2.94 0.62-4.73 0-2.83-0.58-5.42-1.66-7.69-1.05-2.254-2.59-4.209-4.51-5.751-1.88-1.531-4.13-2.659-6.62-3.352-2.46-0.67-5.16-0.893-8-0.636-2.67 0.256-5.18 0.916-7.43 1.932-2.21 1.006-4.165 2.369-5.796 4.022-1.609 1.654-2.905 3.595-3.787 5.815-0.872 2.2-1.363 4.68-1.363 7.39l12.946-0.46c0-0.9 0.16-1.72 0.44-2.43 0.29-0.72 0.69-1.33 1.19-1.83 0.5-0.52 1.09-0.92 1.74-1.21 0.64-0.28 1.35-0.44 2.06-0.48 0.73-0.04 1.44 0.04 2.11 0.26 0.66 0.22 1.28 0.55 1.8 1.02 0.53 0.47 0.96 1.08 1.25 1.8 0.32 0.74 0.48 1.6 0.48 2.58 0 0.7-0.1 1.42-0.32 2.1-0.23 0.7-0.57 1.34-1.05 1.91s-1.08 1.05-1.83 1.4c-0.75 0.34-1.63 0.54-2.68 0.56l-1.96 0.03v12.15l1.96 0.03c0.94 0.02 1.81 0.22 2.6 0.56 0.8 0.33 1.51 0.81 2.1 1.42 0.59 0.6 1.06 1.32 1.39 2.12 0.32 0.81 0.5 1.69 0.5 2.64 0 1.13-0.16 2.09-0.47 2.91-0.31 0.81-0.76 1.48-1.32 2-0.57 0.52-1.24 0.89-2.01 1.12-0.77 0.22-1.62 0.3-2.55 0.25-0.86-0.06-1.67-0.25-2.42-0.56-0.73-0.32-1.39-0.75-1.93-1.32-0.54-0.56-0.98-1.24-1.28-2.06-0.3-0.8-0.46-1.73-0.46-2.78l-12.89-0.56c0 3.24 0.559 6.03 1.553 8.4 0.995 2.38 2.425 4.37 4.156 6 1.743 1.64 3.811 2.91 6.051 3.84 2.27 0.94 4.74 1.52 7.22 1.77 2.69 0.28 5.35 0.18 7.85-0.35 2.52-0.54 4.88-1.51 6.9-2.95 2.04-1.46 3.74-3.38 4.94-5.81 1.2-2.45 1.88-5.37 1.88-8.8 0-1.95-0.26-3.67-0.71-5.19"/>
  <path d="m36.145 129.14 3.463-13.14 3.33 13.37-6.793-0.23zm-0.425-31.604-13.06 47.574 9.083 0.93 1.821-7.04 11.988 0.87 1.899 7.76 11.106 1.13-15.452-51.916-7.385 0.692z"/>
  <path d="m77.286 134.83c-0.156 0.57-0.413 1.1-0.759 1.55-0.358 0.46-0.816 0.83-1.397 1.07-0.581 0.25-1.274 0.37-2.112 0.33l-7.932-0.47v-9.46l7.932 0.21c0.838 0.01 1.531 0.19 2.112 0.48 0.581 0.27 1.039 0.68 1.397 1.16 0.346 0.47 0.603 1 0.759 1.58 0.157 0.58 0.235 1.19 0.235 1.78s-0.078 1.2-0.235 1.77m-12.2-27.62 7.318-0.36c0.827-0.04 1.519 0.07 2.089 0.29 0.57 0.23 1.017 0.57 1.363 0.99 0.347 0.42 0.57 0.91 0.727 1.43 0.156 0.53 0.223 1.09 0.223 1.65 0 0.54-0.067 1.1-0.223 1.65-0.157 0.53-0.38 1.04-0.727 1.48-0.346 0.43-0.793 0.81-1.363 1.08-0.57 0.26-1.262 0.41-2.089 0.43l-7.318 0.14v-8.78zm22.915 18.24c-0.704-0.99-1.464-1.76-2.201-2.39-0.715-0.61-1.397-1.08-1.944-1.44 0.413-0.3 0.983-0.76 1.609-1.37 0.625-0.63 1.318-1.4 1.955-2.36 0.637-0.95 1.229-2.09 1.665-3.4 0.424-1.31 0.703-2.8 0.703-4.47 0-2.53-0.391-4.83-1.139-6.86-0.738-2-1.855-3.718-3.296-5.081-1.43-1.34-3.184-2.335-5.251-2.938-2.034-0.592-4.357-0.782-6.938-0.547l-19.061 1.754v27.592l7.128 23.68 0.358 1.2 12.614 1.29c2.223 0.22 4.357 0.08 6.29-0.46 1.966-0.53 3.72-1.46 5.206-2.77 1.509-1.32 2.715-3.02 3.553-5.09 0.849-2.09 1.307-4.55 1.307-7.37 0-2.05-0.29-3.81-0.748-5.29-0.47-1.48-1.106-2.68-1.81-3.68"/>
 </g>
</svg>
