<svg version="1.0" viewBox="0 0 600 229.77" xml:space="preserve" xmlns="http://www.w3.org/2000/svg" xmlns:xlink="http://www.w3.org/1999/xlink"><defs><linearGradient id="a"><stop stop-color="#fff" stop-opacity=".78431" offset="0"/><stop stop-color="#fff" stop-opacity="0" offset=".3"/><stop stop-opacity="0" offset=".6"/><stop stop-opacity=".78431" offset="1"/></linearGradient><radialGradient id="d" cx="394.34" cy="68.142" r="76.86" gradientTransform="matrix(-1.8519e-8 2.1438 -1.9618 -1.6947e-8 525.42 -789.17)" gradientUnits="userSpaceOnUse" xlink:href="#a"/><radialGradient id="c" cx="49.257" cy="57.392" r="76.93" gradientTransform="matrix(0 2.0841 -2.1381 0 167 -42.87)" gradientUnits="userSpaceOnUse" xlink:href="#a"/><radialGradient id="b" cx="218.35" cy="63.959" r="76.93" gradientTransform="matrix(-6.0125e-8 2.2129 -2.0817 -5.656e-8 351.5 -426.7)" gradientUnits="userSpaceOnUse" xlink:href="#a"/></defs><g transform="matrix(1.2173 0 0 1.2173 -2.9437 -3.0405)"><path d="m474.8 14.985-104.18-12.309c-15.765-1.8639-29.005 11.057-29.005 28.926v130.55c0 17.868 13.24 30.78 29.005 28.923l104.18-12.31c11.49-1.36 20.531-14.216 20.531-28.759v-106.26c0-14.54-9.0411-27.401-20.532-28.76z" fill="#ec2238"/><path d="m474.8 14.985-104.18-12.309c-15.765-1.8639-29.005 11.057-29.005 28.926v130.55c0 17.868 13.24 30.78 29.005 28.923l104.18-12.31c11.49-1.36 20.531-14.216 20.531-28.759v-106.26c0-14.54-9.0411-27.401-20.532-28.76z" fill="url(#d)"/><path d="m415.75 52.844-48.938 48.906v25.219l65.625-2.4688v23.156l25.219-1.7188v-22.375l12.469-0.46875v-21.969l-12.469 0.0937v-45.906l-41.906-2.4687zm16.688 18.969v29.531l-29.719 0.1875 29.719-29.719z" fill="#fff"/><path d="m132.89 18.301-99.003-11.812c-14.982-1.7886-27.57 10.61-27.57 27.755v125.26c0 17.145 12.588 29.534 27.57 27.752l99.003-11.812c10.92-1.3046 19.511-13.64 19.511-27.595v-101.96c0-13.952-8.5907-26.293-19.511-27.595z" fill="#ec2238" stroke="#ec2238" stroke-width="7.5615"/><path d="m28 2.7188c-16.182 1.6866-26.804 18.503-25.469 33.964 0.028068 41.528-0.056199 83.057 0.042246 124.58 0.070207 16.352 14.822 32.196 31.77 29.733 33.415-4.0125 66.844-7.9248 100.25-12 15.122-2.9959 22.601-19.894 21.593-34.076-0.0711-33.968 0.14301-67.943-0.10848-101.91-0.66075-13.43-10.218-28.136-24.668-28.685-32.895-3.8949-65.778-7.9088-98.681-11.729-1.5759-0.098858-3.1611-0.066402-4.73 0.11588z" color="#000000" fill="url(#c)" style="block-progression:tb;text-indent:0;text-transform:none"/><path d="m68.871 51.895-47.163 101.23 31.625-2.1479 7.395-17.166 52.665-2.433 6.4062 15.077 24.318-1.6461-37.587-90.616-37.659-2.2934zm1.0037 60.031 15.84-36.697 4.7819 0.14254 14.894 35.913-35.516 0.64141z" fill="#fff"/><path d="m302.45 18.301-99.003-11.812c-14.981-1.7886-27.571 10.61-27.571 27.756v125.26c0 17.145 12.589 29.534 27.571 27.752l99.003-11.812c10.92-1.3046 19.511-13.64 19.511-27.595v-101.96c0-13.952-8.5907-26.293-19.511-27.595z" fill="#ec2238" stroke="#ec2238" stroke-width="7.5615"/><path d="m197.56 2.7188c-16.182 1.6864-26.804 18.503-25.469 33.964 0.028 41.528-0.0561 83.057 0.0422 124.58 0.0628 16.357 14.814 32.213 31.77 29.733 33.415-4.0125 66.844-7.9248 100.25-12 15.122-2.9958 22.601-19.894 21.593-34.076-0.0711-33.968 0.14301-67.943-0.10848-101.91-0.66079-13.43-10.218-28.136-24.668-28.685-32.895-3.8949-65.778-7.9088-98.681-11.729-1.576-0.098856-3.1612-0.066398-4.7301 0.11588z" color="#000000" fill="url(#b)" style="block-progression:tb;text-indent:0;text-transform:none"/><path d="m294.59 99.889c7.685-3.5228 9.5796-7.6811 9.5796-21.126 0-10.221-1.6857-15.952-5.7173-19.684-3.1071-2.7616-7.4376-3.8396-17.506-4.5948l-13.703-0.8374-60.098-3.6653v102.06l75.37-5.1224c11.64-0.92648 16.148-2.3192 19.758-6.4666 2.8359-3.2546 4.4057-10.311 4.4057-19.818 0-7.5019-1.1512-12.982-3.6693-16.317-1.6906-2.2756-3.4882-3.213-8.4195-4.4236zm-27.346-24.145 6.0004 0.32071c8.375 0.25439 9.6122 1.2709 9.6122 7.3624 0 6.7922-1.3422 7.3257-15.492 7.1773l-35.005-0.35931v-15.577l34.885 1.0759zm7.2634 49.571-7.1426 0.40583-35.005 1.3155v-16.769l35.116-0.5454 7.4851-0.1168c9.7845-0.0148 10.67 0.52065 10.67 7.2891 9.8e-4 6.8962-1.4412 8.0582-11.124 8.4205z" fill="#fff"/></g></svg>
