<?xml version="1.0" encoding="UTF-8" standalone="no"?>
<!-- Created with Inkscape (http://www.inkscape.org/) -->

<svg
   xmlns:dc="http://purl.org/dc/elements/1.1/"
   xmlns:cc="http://creativecommons.org/ns#"
   xmlns:rdf="http://www.w3.org/1999/02/22-rdf-syntax-ns#"
   xmlns:svg="http://www.w3.org/2000/svg"
   xmlns="http://www.w3.org/2000/svg"
   xmlns:xlink="http://www.w3.org/1999/xlink"
   version="1.0"
   width="600"
   height="229.7693"
   viewBox="0 0 599.99999 229.7693"
   id="Layer_1"
   xml:space="preserve"><metadata
     id="metadata13"><rdf:RDF><cc:Work
         rdf:about=""><dc:format>image/svg+xml</dc:format><dc:type
           rdf:resource="http://purl.org/dc/dcmitype/StillImage" /><dc:title></dc:title></cc:Work></rdf:RDF></metadata><defs
     id="defs11"><linearGradient
       id="linearGradient3610"><stop
         id="stop3612"
         style="stop-color:#ffffff;stop-opacity:0.78431374"
         offset="0" /><stop
         id="stop3620"
         style="stop-color:#ffffff;stop-opacity:0"
         offset="0.30000001" /><stop
         id="stop3618"
         style="stop-color:#000000;stop-opacity:0"
         offset="0.60000002" /><stop
         id="stop3614"
         style="stop-color:#000000;stop-opacity:0.78431374"
         offset="1" /></linearGradient><radialGradient
       cx="394.33716"
       cy="68.142326"
       r="76.860374"
       fx="394.33716"
       fy="68.142326"
       id="radialGradient3628"
       xlink:href="#linearGradient3610"
       gradientUnits="userSpaceOnUse"
       gradientTransform="matrix(-1.8519057e-8,2.1438369,-1.9618217,-1.6946759e-8,525.42158,-789.17086)" /><radialGradient
       cx="218.35413"
       cy="63.959412"
       r="76.929649"
       fx="218.35413"
       fy="63.959412"
       id="radialGradient3643"
       xlink:href="#linearGradient3610"
       gradientUnits="userSpaceOnUse"
       gradientTransform="matrix(-6.0124644e-8,2.2129245,-2.0817286,-5.6560082e-8,351.50028,-426.70367)" /><radialGradient
       cx="49.25658"
       cy="57.39185"
       r="76.929619"
       fx="49.25658"
       fy="57.39185"
       id="radialGradient3658"
       xlink:href="#linearGradient3610"
       gradientUnits="userSpaceOnUse"
       gradientTransform="matrix(0,2.084087,-2.1380883,0,167.00228,-42.870335)" /><radialGradient
       cx="394.33716"
       cy="68.142326"
       r="76.860374"
       fx="394.33716"
       fy="68.142326"
       id="radialGradient3368"
       xlink:href="#linearGradient3610"
       gradientUnits="userSpaceOnUse"
       gradientTransform="matrix(-1.8519057e-8,2.1438369,-1.9618217,-1.6946759e-8,525.42158,-789.17086)" /><radialGradient
       cx="49.25658"
       cy="57.39185"
       r="76.929619"
       fx="49.25658"
       fy="57.39185"
       id="radialGradient3370"
       xlink:href="#linearGradient3610"
       gradientUnits="userSpaceOnUse"
       gradientTransform="matrix(0,2.084087,-2.1380883,0,167.00228,-42.870335)" /><radialGradient
       cx="218.35413"
       cy="63.959412"
       r="76.929649"
       fx="218.35413"
       fy="63.959412"
       id="radialGradient3372"
       xlink:href="#linearGradient3610"
       gradientUnits="userSpaceOnUse"
       gradientTransform="matrix(-6.0124644e-8,2.2129245,-2.0817286,-5.6560082e-8,351.50028,-426.70367)" /></defs><g
     transform="matrix(1.2172584,0,0,1.2172584,-2.943694,-3.0404672)"
     id="g3357"><path
       d="M 474.79719,14.985114 370.61352,2.6765656 C 354.84848,0.81271384 341.6085,13.733968 341.6085,31.602397 l 0,130.546833 c 0,17.86843 13.23998,30.77978 29.00502,28.92286 l 104.18466,-12.30954 c 11.48996,-1.36003 20.53107,-14.21595 20.53107,-28.75855 l 0,-106.259346 c 0,-14.539628 -9.04111,-27.401492 -20.53206,-28.75954 z"
       id="path2274"
       style="fill:#ec2238;fill-opacity:1" /><path
       d="M 474.79719,14.985114 370.61352,2.6765656 C 354.84848,0.81271384 341.6085,13.733968 341.6085,31.602397 l 0,130.546833 c 0,17.86843 13.23998,30.77978 29.00502,28.92286 l 104.18466,-12.30954 c 11.48996,-1.36003 20.53107,-14.21595 20.53107,-28.75855 l 0,-106.259346 c 0,-14.539628 -9.04111,-27.401492 -20.53206,-28.75954 z"
       id="path3608"
       style="fill:url(#radialGradient3368);fill-opacity:1;stroke:none" /><path
       d="m 415.75,52.84375 -48.9375,48.90625 0,25.21875 65.625,-2.46875 0,23.15625 25.21875,-1.71875 0,-22.375 12.46875,-0.46875 0,-21.96875 -12.46875,0.0937 0,-45.90625 -41.90625,-2.4687 z m 16.6875,18.96875 0,29.53125 -29.71875,0.1875 29.71875,-29.71875 z"
       id="path3652"
       style="fill:#ffffff;fill-opacity:1;stroke:none" /><path
       d="M 132.89273,18.301048 33.889836,6.4893946 C 18.907754,4.70077 6.3200734,17.099393 6.3200734,34.244256 V 159.50737 c 0,17.14486 12.5876806,29.53359 27.5697626,27.75189 l 99.002894,-11.81165 c 10.91982,-1.3046 19.51056,-13.63987 19.51056,-27.59451 V 45.895557 c 0,-13.951668 -8.59074,-26.292881 -19.51056,-27.594509 z"
       id="path12001"
       style="fill:#ec2238;fill-opacity:1;stroke:#ec2238;stroke-width:7.56151724;stroke-opacity:1" /><path
       d="M 28,2.71875 C 11.818231,4.4053681 1.1960825,21.221701 2.53125,36.68305 2.559318,78.211016 2.475051,119.74032 2.573496,161.26745 2.643703,177.61988 17.395175,193.46351 34.34375,191 c 33.41536,-4.01248 66.84419,-7.92483 100.25111,-12.00005 15.1215,-2.99586 22.60105,-19.89388 21.59264,-34.07586 -0.0711,-33.96834 0.14301,-67.943367 -0.10848,-101.907473 C 155.41827,29.587051 145.86056,14.880173 131.41102,14.33189 98.515807,10.436955 65.633106,6.4231238 32.730035,2.602868 31.154099,2.5040105 29.568903,2.5364661 28,2.71875 z"
       id="path3645"
       style="font-size:medium;font-style:normal;font-variant:normal;font-weight:normal;font-stretch:normal;text-indent:0;text-align:start;text-decoration:none;line-height:normal;letter-spacing:normal;word-spacing:normal;text-transform:none;direction:ltr;block-progression:tb;writing-mode:lr-tb;text-anchor:start;color:#000000;fill:url(#radialGradient3370);fill-opacity:1;fill-rule:nonzero;stroke:none;stroke-width:7.56151724;marker:none;visibility:visible;display:inline;overflow:visible;enable-background:accumulate;font-family:Bitstream Vera Sans;-inkscape-font-specification:Bitstream Vera Sans" /><path
       d="m 68.871454,51.894922 -47.163468,101.225068 31.625101,-2.14793 7.395027,-17.16565 52.664946,-2.43301 6.40619,15.07711 24.31817,-1.64609 -37.58686,-90.616059 -37.659106,-2.293439 z m 1.003688,60.031268 15.840266,-36.696992 4.781873,0.142536 14.893989,35.913046 -35.516128,0.64141 z"
       id="path2276"
       style="fill:#ffffff" /><path
       d="M 302.44583,18.301048 203.44294,6.4893946 C 188.46185,4.70077 175.87218,17.099393 175.87218,34.245246 V 159.50836 c 0,17.14486 12.58868,29.53359 27.57076,27.75189 l 99.00289,-11.81165 c 10.91982,-1.3046 19.51056,-13.63987 19.51056,-27.59451 V 45.895557 c 0,-13.951668 -8.59074,-26.292881 -19.51056,-27.594509 z"
       id="path2270"
       style="fill:#ec2238;fill-opacity:1;stroke:#ec2238;stroke-width:7.56151724;stroke-opacity:1" /><path
       d="m 197.5625,2.71875 c -16.18194,1.6864133 -26.80408,18.502864 -25.46875,33.9643 0.028,41.527971 -0.0561,83.05728 0.0422,124.58441 0.0628,16.35697 14.81356,32.21306 31.77029,29.73254 33.41536,-4.01248 66.8442,-7.92483 100.25112,-12.00005 15.12152,-2.99584 22.6011,-19.89386 21.59268,-34.07586 -0.0711,-33.96834 0.14301,-67.943367 -0.10848,-101.907473 C 324.98077,29.587051 315.42306,14.880173 300.97352,14.33189 268.07832,10.436953 235.19563,6.4231344 202.29257,2.6028666 200.71662,2.5040104 199.13142,2.536469 197.5625,2.71875 z"
       id="path3630"
       style="font-size:medium;font-style:normal;font-variant:normal;font-weight:normal;font-stretch:normal;text-indent:0;text-align:start;text-decoration:none;line-height:normal;letter-spacing:normal;word-spacing:normal;text-transform:none;direction:ltr;block-progression:tb;writing-mode:lr-tb;text-anchor:start;color:#000000;fill:url(#radialGradient3372);fill-opacity:1;fill-rule:nonzero;stroke:none;stroke-width:7.56151724;marker:none;visibility:visible;display:inline;overflow:visible;enable-background:accumulate;font-family:Bitstream Vera Sans;-inkscape-font-specification:Bitstream Vera Sans" /><path
       d="m 294.58955,99.888858 c 7.68504,-3.522809 9.57958,-7.681089 9.57958,-21.125963 0,-10.220995 -1.68568,-15.952116 -5.71726,-19.683779 -3.10708,-2.761629 -7.43759,-3.839555 -17.50616,-4.594796 l -13.70322,-0.837397 -60.09758,-3.665344 0,102.055531 75.36969,-5.12237 c 11.64041,-0.92648 16.1481,-2.31918 19.75801,-6.46657 2.83587,-3.25456 4.40574,-10.31107 4.40574,-19.81839 0,-7.50193 -1.15117,-12.98164 -3.6693,-16.31737 -1.69063,-2.27562 -3.48817,-3.21299 -8.4195,-4.423552 z m -27.34607,-24.144948 6.00036,0.320706 c 8.37496,0.254386 9.61225,1.270943 9.61225,7.362363 0,6.79222 -1.34221,7.325739 -15.49185,7.177264 l -35.00537,-0.359308 0,-15.576971 34.88461,1.075946 z m 7.26338,49.57074 -7.14262,0.40583 -35.00537,1.31548 0,-16.76872 35.11623,-0.5454 7.48511,-0.1168 c 9.78448,-0.0148 10.67038,0.52065 10.67038,7.28911 9.8e-4,6.89616 -1.4412,8.05822 -11.12373,8.4205 z"
       id="path2278"
       style="fill:#ffffff" /></g></svg>