<svg width="552.1" height="174.85" version="1.1" viewBox="0 0 146.08 46.261" xml:space="preserve" xmlns="http://www.w3.org/2000/svg">
 <g transform="translate(74.223 349.43)">
  <path d="m13.795-346.35 1.0383 4.3478 5.737-1.9804v25.764h5.5396v-31.027h-4.5322z"/>
  <path d="m-6.4915-322.78-14.525-9.0582v28.672l14.525-9.0591v9.0591l22.999-14.338-22.999-14.334" fill="#942c97"/>
  <path d="m-33.717-337.59c-1.3481 0-2.4793-1.1529-2.4793-2.579 0-1.4444 1.1121-2.5964 2.4793-2.5964 1.3689 0 2.4801 1.152 2.4801 2.5964 0 1.4261-1.1112 2.579-2.4801 2.579m-0.06766-8.1049c-1.4261 0-2.8106 0.58815-3.8664 1.643-1.0358 1.034-1.6014 2.3812-1.6014 3.8464 0 1.4626 0.52743 2.8132 1.5432 3.8664 1.0731 1.1312 2.363 1.6786 3.9653 1.6786 1.5806 0 2.9087-0.56646 3.9843-1.6404 1.0523-1.0531 1.5814-2.363 1.5814-3.9444 0-1.4253-0.60464-2.8705-1.7193-3.9262-1.0531-0.99413-2.3622-1.5233-3.8872-1.5233"/>
  <path d="m-44.043-341.66c0.25764 0.11624 0.6029 0.22034 0.97678 0.34352 2.1609 0.70873 3.2132 1.5484 3.1134 3.2773-0.12405 2.0967-1.9076 3.5133-4.5022 3.3615-1.9926-0.11538-3.3068-1.1052-3.7224-2.5669l2.7994-0.79982c0.10844 0.62632 0.48058 1.0436 1.0557 1.0757 0.61851 0.0356 1.1433-0.35827 1.1737-0.87703 0.04771-0.81803-0.81283-0.83711-2.1279-1.3238-1.8226-0.66969-2.6883-1.6968-2.5964-3.2678 0.11798-2.0412 1.7627-3.3866 4.3192-3.2392 1.8451 0.10583 3.0908 1.0826 3.4413 2.4558l-2.6849 0.76599c-0.08154-0.56387-0.40164-0.95943-0.88657-0.98806-0.24203-0.0148-0.48579 0.0625-0.68097 0.22901-0.3895 0.33745-0.4216 0.91779-0.0746 1.2952 0.1119 0.12405 0.24723 0.2082 0.39644 0.25851"/>
  <path d="m-13.777-345.42h-3.0735v5.9709c0 1.0254-0.70353 1.8608-1.5693 1.8608-0.86835 0-1.5701-0.83538-1.5701-1.8608v-5.9709h-3.0735v4.4242c0 1.5979 0.09282 2.6979 0.30449 3.3684 0.288 0.91866 0.80069 1.6586 1.5233 2.1817 0.73736 0.53177 1.6873 0.78681 2.8158 0.78681 0.99847 0 1.82-0.18911 2.5157-0.60724l0.97505 0.3496h1.152"/>
  <path d="m-69.039-340.25h3.2426l-1.6708-4.3443zm3.2158-8.654 5.3766 13.984h-3.3008l-1.0271-2.6727h-5.1945l-0.9577 2.6727h-3.2964l4.7286-12.666"/>
  <path d="m-27.161-334.92h3.0735v-14.408l-3.0735 1.1008"/>
  <path d="m-54.062-337.59c-1.3472 0-2.4801-1.1529-2.4801-2.579 0-1.4444 1.113-2.5964 2.4801-2.5964 1.3663 0 2.4801 1.152 2.4801 2.5964 0 1.4261-1.1138 2.579-2.4801 2.579m0.47451-8.1049c-0.63413 0-1.2353 0.13793-1.7948 0.38083-0.36174 0.15354-0.707 0.36347-1.0332 0.61591v-4.6254l-3.0735 1.1008v13.307h1.152l1.9215-0.68791c0.34439 0.26371 0.68965 0.46584 1.0453 0.61418 0.52916 0.2186 1.1017 0.32877 1.7081 0.32877h0.01648c1.3524 0 2.5513-0.54217 3.5263-1.5823 0.98633-1.0462 1.486-2.3691 1.4825-3.908 0.0035-1.5849-0.47538-2.9286-1.4357-3.9652-0.94989-1.0306-2.1461-1.5823-3.515-1.5788"/>
  <path d="m-7.1377-345.42h-1.2709v-3.9045l-3.0744 1.1017v2.8028h-1.2735v2.6545h1.2735v7.849h3.0744v-7.849h1.2709"/>
  <path d="m0.77022-341.4-0.086748-0.15268c-0.45022-0.78507-1.2735-1.309-2.2129-1.309-0.94122 0-1.7636 0.52396-2.2138 1.309l-0.08761 0.15268zm-0.51875 3.175 2.8939 1.0392c-0.20299 0.31229-0.44242 0.6107-0.72174 0.88917-1.0722 1.0731-2.4021 1.6395-3.9835 1.6395-1.6005 0-2.8896-0.54738-3.9644-1.6803-1.015-1.0514-1.5424-2.4012-1.5424-3.8664 0-1.4634 0.5682-2.8106 1.6014-3.8464 1.054-1.0549 2.442-1.6404 3.8655-1.6404 1.5242 0 2.8323 0.52569 3.8889 1.5224 0.78334 0.74257 1.3125 1.6794 1.558 2.6675 0.10497 0.41292 0.15875 0.83799 0.15875 1.2587 0 0.49186-0.051181 0.95683-0.15354 1.3949h-7.6243l0.030362 0.0537c0.45196 0.7816 1.2795 1.3099 2.2121 1.3099 0.68965 0 1.3186-0.28454 1.7809-0.7417"/>
  <path d="m-29.259-320.21c-1.3481 0-2.481-1.1529-2.481-2.5773 0-1.4461 1.1147-2.5981 2.481-2.5981 1.3689 0 2.481 1.152 2.481 2.5981 0 1.4244-1.1121 2.5773-2.481 2.5773m-0.06853-8.1066c-1.4261 0-2.8106 0.58815-3.8672 1.6448-1.0332 1.0332-1.6005 2.3812-1.6005 3.8464 0 1.4626 0.52743 2.8141 1.5424 3.8664 1.0748 1.1312 2.363 1.6786 3.9661 1.6786 1.5823 0 2.9087-0.56646 3.9852-1.6395 1.0514-1.0548 1.5806-2.3639 1.5806-3.9453 0-1.4253-0.60377-2.8714-1.7193-3.9262-1.0531-0.99499-2.3622-1.525-3.8872-1.525"/>
  <path d="m-69.44-324.66c1.5016 0 2.4029-0.75211 2.4029-1.9978 0-1.2856-0.81456-1.9718-2.3596-1.9718h-1.329v3.9696zm-4.7824-7.1871h4.5257c2.3804 0 3.4326 0.23509 4.3973 1.0297 1.0939 0.90044 1.7593 2.3587 1.7593 3.9037 0 2.3812-1.394 4.1396-3.561 4.5048l3.8828 4.8692h-4.183l-3.3242-4.6324v4.6324h-3.4968"/>
  <path d="m-35.857-317.54h-3.2175v-10.725h3.2175zm0-11.884h-3.2175v-2.4229h3.2175z"/>
  <path d="m-45.971-320.21c-1.3672 0-2.4819-1.1529-2.4819-2.5773 0-1.4461 1.1147-2.5981 2.4819-2.5981 1.3663 0 2.4801 1.152 2.4801 2.5981 0 1.4244-1.1338 2.5773-2.4801 2.5773m2.3526-10.634v3.5254c-0.32617-0.25243-0.67056-0.4615-1.0332-0.61677-0.55953-0.24204-1.159-0.3817-1.794-0.3817-1.3689-3e-3 -2.5651 0.55085-3.5159 1.5806-0.95943 1.0375-1.4383 2.3804-1.4365 3.9653-0.0017 1.538 0.4962 2.8618 1.4843 3.908 0.97505 1.0401 2.1739 1.5823 3.5263 1.5823h0.01648c0.60464 0 1.1789-0.11017 1.7081-0.32791 0.35567-0.1492 0.70093-0.35219 1.0444-0.61591l1.9232 0.68965h1.1503v-14.41"/>
  <path d="m-57.748-320.21c-1.3663 0-2.4793-1.1529-2.4793-2.5773 0-1.4461 1.113-2.5981 2.4793-2.5981 1.368 0 2.481 1.152 2.481 2.5981 0 1.4244-1.1338 2.5773-2.481 2.5773m2.3543-8.0494v0.94122c-0.32704-0.25243-0.67143-0.4615-1.034-0.61677-0.55953-0.24204-1.1598-0.3817-1.794-0.3817-1.3689-3e-3 -2.5651 0.55085-3.515 1.5806-0.96117 1.0375-1.44 2.3804-1.4374 3.9653-0.0026 1.538 0.4962 2.8618 1.4843 3.908 0.97418 1.0401 2.1739 1.5823 3.5246 1.5823h0.01735c0.6055 0 1.1798-0.11017 1.7072-0.32791 0.35654-0.1492 0.70266-0.35219 1.0471-0.61591l1.9215 0.68965h1.1503v-10.725"/>
  <path d="m41.283-344.53c-4.8093 0-7.8082 4.8527-7.8082 11.027 0 6.1739 3.0891 11.116 7.8975 11.116 4.8067 0 7.8073-4.8961 7.8073-11.028 0-6.1322-3.0891-11.115-7.8967-11.115m0 27.04c-8.1162 0-13.41-7.0587-13.41-15.925 0-8.8657 5.381-16.013 13.499-16.013 8.1144 0 13.409 7.0578 13.409 15.925 0 8.8665-5.3818 16.013-13.498 16.013"/>
  <path d="m64.01-318.02c-3.0023 0-6.3231-1.0809-8.9645-3.162l2.1618-3.2808c2.2806 1.7202 4.7607 2.6007 6.9234 2.6007 2.0785 0 3.28-0.88049 3.28-2.2815v-0.0798c0-1.6413-2.2381-2.2017-4.7217-2.9607-3.1221-0.87963-6.6024-2.1618-6.6024-6.2034v-0.0798c0-4.0008 3.3216-6.4428 7.5228-6.4428 2.6406 0 5.5233 0.9204 7.7631 2.4003l-1.9206 3.4422c-2.0412-1.2405-4.2012-2.0004-5.9631-2.0004-1.8798 0-2.9598 0.88049-2.9598 2.121v0.0798c0 1.5207 2.2797 2.1609 4.7616 2.9616 3.0813 0.95857 6.5642 2.3604 6.5642 6.1609v0.0815c0 4.4424-3.4439 6.6432-7.8446 6.6432"/>
 </g>
</svg>
