<svg xmlns="http://www.w3.org/2000/svg" height="301.13" width="600" version="1.0">
    <path d="M591.022 293.207v-2.64h1.731c1.498 0 1.878.468 1.878 1.263 0 .937-.497 1.377-2.083 1.377h-1.526zm4.9-1.292c0-1.672-.97-2.406-2.964-2.406h-3.226v8.42h1.292v-3.668h1.437l2.257 3.668h1.409l-2.406-3.697c1.263-.178 2.2-.82 2.2-2.318m-3.343 7.921c-3.375 0-6.014-2.58-6.014-6.131 0-3.492 2.64-6.102 6.014-6.102 3.343 0 5.956 2.612 5.956 6.102 0 3.55-2.612 6.131-5.956 6.131m0-13.407c-4.019 0-7.422 3.08-7.422 7.276 0 4.225 3.403 7.305 7.422 7.305 3.96 0 7.364-3.08 7.364-7.305 0-4.195-3.403-7.276-7.364-7.276m-201.282-222.9c0 23.762-12.204 39.752-30.745 53.6 0 0-13.936 10.795-21.504 15.988l59.79 72.257c1.7-2.318 20.975-25.465 20.975-25.465h148.065v-64.541H419.812v-46l157.803-.07V-.113l-223.168.029c23.323 12.057 36.847 35.263 36.847 63.632M445.95 227.19c-10.21 11.735-10.591 13.143-14.258 17.367l46.616 56.415h99.071l.03-73.754-131.46-.03zm-304.52-54.332l29.777-89.155 29.073 89.155h-58.85zM272.183-.084l-152.465-.03L-.067 300.971l101.331.029 19.568-55.857 94.848.07c-3.432-10.326-5.193-21.914-5.193-34.734 0-39.314 27.841-64.836 53.952-82.555-12.233-14.258-29.924-35.878-29.924-65.276 0-28.193 13.554-50.9 37.67-62.753m48.377 89.975c9.682-6.894 17.25-15.108 17.25-25.904 0-14.288-9.24-25.083-24.848-25.083-16.458 0-24.878 10.795-24.878 25.083 0 11.236 9.27 22.032 19.803 34.559 4.224-2.612 12.673-8.655 12.673-8.655m-54.008 121.865c0 25.494 23.557 48.582 48.845 48.582 17.72 0 30.774-5.603 44.679-18.13l-63.193-77.597c-18.13 12.996-30.335 25.083-30.335 47.145" fill="#FFF"/>
</svg>
