<svg width="629.71" height="256.11" viewBox="0 0 629.71 256.12" xmlns="http://www.w3.org/2000/svg" xmlns:xlink="http://www.w3.org/1999/xlink">
    <defs>
        <linearGradient id="a" x1="126.21" x2="135.97" y1="73.249" y2="28.145" gradientUnits="userSpaceOnUse" xlink:href="#b"/>
        <linearGradient id="b">
            <stop stop-color="#a95026" offset="0"/>
            <stop stop-color="#e47121" offset="1"/>
        </linearGradient>
    </defs>
    <style>
        .st0{fill:#1d1d1b}.st1{fill:#ed7302}.st2{fill:#b1b1b1}.st3{fill:#fff}
    </style>
    <g stroke-width="1.745">
        <path class="st0" d="M561.13 170.98l-10.992 42.222c-4.013 15.703-20.762 28.614-36.988 28.614H61.26c-16.226 0-26.171-12.911-22.158-28.614l10.993-42.226c4.187-15.702 20.762-28.613 36.988-28.613h451.89c16.226 0 26.171 12.911 22.158 28.614z" fill="#1d1d1b"/>
        <path class="st2" d="M572.29 128.06H57.6c-19.02 0-38.212 15.179-42.574 33.673L.894 222.45c-4.362 18.49 7.676 33.67 26.694 33.67h514.69c19.018 0 38.21-15.179 42.571-33.673l14.31-60.888c4.19-18.494-7.68-33.499-26.87-33.499zm-11.69 42.92l-10.992 42.222c-4.013 15.703-20.762 28.614-36.988 28.614H61.44c-16.226 0-26.171-12.911-22.158-28.614l10.987-42.226c4.013-15.702 20.588-28.613 36.814-28.613h451.36c16.226 0 26.171 12.911 22.158 28.614z" fill="#b1b1b1"/>
        <path class="st2" fill="#b1b1b1" d="M285.81 147.25h8.026v89.504h-8.026z"/>
        <g fill="#fff">
            <path class="st3" d="M326.289 177.261c2.442-3.664 5.757-7.851 13.783-7.851 9.945 0 18.843 7.676 18.843 23.379 0 12.562-5.583 24.426-19.192 24.426-8.375 0-11.341-4.537-12.737-6.98h-.175v23.555h-12.05v-62.984h11.515zm10.468 30.358c7.677 0 9.77-8.375 9.77-13.783 0-7.153-2.617-13.958-10.119-13.958-8.2 0-10.119 7.328-10.119 14.656 0 6.63 2.792 13.085 10.468 13.085zM408.289 216.169h-11.52v-6.456h-.175c-2.791 4.886-7.502 7.677-13.783 7.677-8.898 0-15.528-5.06-15.528-16.749v-29.836h12.04v28.265c0 6.98 4.187 8.375 7.85 8.375 4.014 0 9.248-2.268 9.248-10.294v-26.172h12.039v45.188zM431.839 216.169h-12.04v-61.415h12.04zM468.999 184.589c-.524-2.966-1.57-5.932-8.026-5.932-6.455 0-7.328 2.442-7.328 4.362 0 7.153 28.44 1.919 28.44 18.669 0 13.26-12.738 15.703-19.89 15.703-10.295 0-21.46-3.664-21.81-15.703h12.388c0 3.838 2.443 6.63 9.945 6.63 6.107 0 7.677-2.966 7.677-4.711 0-7.677-28.265-1.92-28.265-18.843 0-6.63 4.187-15.18 18.32-15.18 8.898 0 19.541 2.269 20.413 15.006zM529.889 202.909c-3.14 10.992-12.213 14.481-20.064 14.481-12.737 0-22.681-6.106-22.681-24.95 0-5.409 1.92-23.03 21.809-23.03 8.898 0 21.286 4.187 21.286 25.124v2.094h-31.231c.349 3.49 1.047 11.166 10.643 11.166 3.315 0 6.804-1.745 7.677-4.886zm-11.86-13.958c-.698-7.328-5.409-9.596-9.247-9.596-5.583 0-8.55 3.664-9.247 9.596z"/>
        </g>
    </g>
    <path class="st0" d="M590.43 42.919L579.444 85.14c-4.013 15.702-20.762 28.612-36.987 28.612H61.067c-16.225 0-26.17-12.91-22.157-28.612l10.997-42.221c4.013-15.702 20.762-28.612 36.988-28.612h481.38c16.225 0 26.171 12.91 22.158 28.612z" fill="#1d1d1b" stroke-width="1.745"/>
    <g transform="translate(-.009) scale(1.2719)" fill="url(#a)">
        <path class="st1" d="M78.752 41.151l4.801 7.544 8.642-2.331-5.624 6.995 4.938 7.407-8.367-3.155-5.624 6.996.548-8.916-8.367-3.155 8.642-2.469zM149.67 59.943l2.743-12.756h-20.027l1.92-7.408h20.301l3.155-13.305h-40.19l-11.249 46.775h19.89l2.88-13.306zM171.342 51.164l10.836 22.085h16.598l11.248-46.775h-16.46l-5.35 20.85-10.7-20.85h-17.146l-10.973 46.775h17.42z"/>
        <path class="st1" d="M76.009 48.147l.686-15.089 8.23 12.62L99.602 41.7l-9.465 11.796 8.23 12.62-14.128-5.35-.137.138 2.195 12.345h19.752l-7.681-46.775H79.3L44.734 73.249h20.301l8.78-12.345h1.508l.274-3.43-14.128-5.35z"/>
    </g>
    <path class="st2" d="M57.763 0C38.745 0 19.552 15.004 15.191 33.672L.885 94.387c-4.362 18.494 7.677 33.672 26.693 33.672h544.37c19.017 0 38.208-15.178 42.571-33.672l14.309-60.889C633.191 15.004 621.146 0 602.13 0H57.77zm532.68 42.919L579.452 85.14c-4.013 15.702-20.762 28.612-36.987 28.612H61.425c-16.225 0-26.17-12.91-22.157-28.612l10.991-42.221c4.012-15.702 20.761-28.612 36.987-28.612h481.04c16.225 0 26.171 12.91 22.158 28.612z" fill="#b1b1b1" stroke-width="1.745"/>
    <path class="st2" fill="#b1b1b1" stroke-width="1.745" d="M285.96 19.191h8.026v89.502h-8.026z"/>
    <g fill="#fff" stroke-width=".975" style="font-feature-settings:normal;font-variant-caps:normal;font-variant-ligatures:normal;font-variant-numeric:normal" aria-label="family">
        <path d="M312.13 40.956h6.44v-3.472q0-5.814 1.156-8.678 1.197-2.864 4.335-4.643 3.179-1.823 8.01-1.823 4.954 0 9.701 1.562l-1.568 8.505q-2.767-.694-5.326-.694-2.519 0-3.633 1.258-1.074 1.215-1.074 4.73v3.254h8.67v9.59h-8.67v36.493H318.57V50.545h-6.44zM354.115 55.013l-10.528-1.996q1.775-6.683 6.11-9.894 4.335-3.21 12.881-3.21 7.762 0 11.56 1.952 3.798 1.91 5.326 4.903 1.569 2.95 1.569 10.892l-.124 14.233q0 6.075.537 8.982.578 2.864 2.105 6.162h-11.477q-.455-1.215-1.115-3.602-.29-1.085-.413-1.432-2.973 3.038-6.358 4.556-3.385 1.52-7.225 1.52-6.77 0-10.693-3.863-3.88-3.862-3.88-9.763 0-3.905 1.775-6.943 1.775-3.08 4.954-4.686 3.22-1.649 9.248-2.864 8.133-1.605 11.27-2.994v-1.215q0-3.515-1.65-4.99-1.652-1.519-6.235-1.519-3.096 0-4.83 1.302-1.734 1.258-2.808 4.47zm15.523 9.893q-2.23.781-7.06 1.866t-6.316 2.126q-2.271 1.693-2.271 4.296 0 2.56 1.817 4.426 1.816 1.866 4.624 1.866 3.137 0 5.986-2.17 2.106-1.649 2.766-4.035.454-1.562.454-5.945zM391.646 40.956h10.693v6.291q5.738-7.333 13.665-7.333 4.21 0 7.307 1.823 3.097 1.822 5.079 5.51 2.89-3.688 6.234-5.51 3.344-1.823 7.142-1.823 4.83 0 8.175 2.083 3.344 2.04 4.995 6.031 1.198 2.951 1.198 9.547v29.462h-11.602v-26.34q0-6.855-1.197-8.851-1.61-2.604-4.954-2.604-2.436 0-4.583 1.562t-3.096 4.6q-.95 2.994-.95 9.503v22.13h-11.601V61.782q0-6.725-.62-8.678-.619-1.953-1.94-2.907-1.28-.955-3.51-.955-2.683 0-4.83 1.519-2.147 1.519-3.096 4.383-.908 2.863-.908 9.502v22.39h-11.602zM467.651 34.696V23.414h11.601v11.282zm0 52.331V40.945h11.601v46.082zM491.1 87.026V23.413h11.601v63.613zM509.053 40.956h12.345l10.486 32.717 10.239-32.717h12.014l-15.482 44.346-2.767 8.028q-1.527 4.035-2.93 6.161-1.363 2.126-3.18 3.428-1.775 1.345-4.418 2.083-2.6.738-5.903.738-3.345 0-6.565-.738l-1.032-9.546q2.725.564 4.913.564 4.046 0 5.986-2.517 1.94-2.473 2.973-6.335z"/>
    </g>
    <g transform="translate(-.002 128.06) scale(1.2719)" fill="url(#a)">
        <path class="st1" d="M77.518 64.607l.548-8.916-8.367-3.155 8.642-2.469.411-8.916 4.801 7.544 8.642-2.331-5.624 6.995 4.938 7.407-8.367-3.155zM117.571 26.474l-11.248 46.775h19.89l2.88-13.306h20.576l2.744-12.756h-20.027l1.92-7.408h20.301l3.155-13.305zM177.515 26.474h-17.147l-10.973 46.775h17.42l4.527-22.085 10.836 22.085h16.598l11.248-46.775h-16.46l-5.35 20.85z"/>
        <path class="st1" d="M84.239 60.766l-.137.138 2.195 12.345h19.752l-7.681-46.775H79.3L44.734 73.249h20.301l8.78-12.345h1.508l.274-3.43-14.128-5.35 14.54-3.977.686-15.089 8.23 12.62L99.602 41.7l-9.465 11.796 8.23 12.62z"/>
    </g>
</svg>
