<svg version="1.1" viewBox="0 0 600 129.65" xml:space="preserve" xmlns="http://www.w3.org/2000/svg"><defs><linearGradient id="a" x1="162.52" x2="177.37" y1="94.32" y2="19.33" gradientUnits="userSpaceOnUse"><stop stop-color="#215062" offset="0"/><stop stop-color="#2a89a5" offset="1"/></linearGradient></defs><path d="m561.54 43.452-11.128 42.745c-4.0625 15.897-21.019 28.968-37.446 28.968h-451.12c-16.427 0-26.495-13.071-22.432-28.968l11.13-42.74c4.063-15.897 21.02-28.968 37.446-28.968h451.3c16.25 0 26.318 13.071 22.256 28.968z" fill="#1D1D1B" stroke-width="1.7663"/><g transform="translate(-.00022646)" fill="#0091ad"><path transform="matrix(1.7663,0,0,1.7663,-2.0981,-3.1794)" d="m64.3 40.7 3.6 5.4-6.1-2.3-4.1 5.1 0.4-6.5-6.1-2.3 6.2-1.8 0.4-6.5 3.5 5.5 6.3-1.7z"/><path transform="matrix(1.7663,0,0,1.7663,-2.0981,-3.1794)" d="m99.1 30.8h14.8l2.3-9.7h-29.3l-8.2 34.1h14.5l2.1-9.7h15l2-9.3h-14.6z"/><path transform="matrix(1.7663,0,0,1.7663,-2.0981,-3.1794)" d="m154.3 21.1h-12l-3.9 15.2-7.8-15.2h-12.5l-8 34.1h12.7l3.3-16.1 7.9 16.1h12.1z"/><path transform="matrix(1.7663,0,0,1.7663,-2.0981,-3.1794)" d="m57.1 25.9 6 9.2 10.7-2.9-6.9 8.6 6 9.2-10.3-3.9-0.1 0.1 1.6 9h14.4l-5.6-34.1h-13.9l-25.2 34.1h14.8l6.4-9h1.1l0.2-2.5-10.3-3.9 10.6-2.9z"/></g><g transform="translate(-.00022646)" stroke-width="1.7663"><path d="m571.96 0h-513.47c-19.256 0-38.686 15.367-43.102 34.09l-14.483 61.468c-4.4162 18.902 7.7715 34.092 27.024 34.092h513.65c19.253 0 38.682-15.367 43.098-34.09l14.48-61.647c4.24-18.723-7.95-33.913-27.2-33.913zm-11.834 43.452-11.128 42.745c-4.0626 15.897-21.019 28.968-37.446 28.968h-449.35c-16.427 0-26.495-13.071-22.432-28.968l11.124-42.74c4.062-15.897 21.019-28.968 37.446-28.968h449.35c16.427 0 26.495 13.071 22.432 28.968z" fill="#B1B1B1"/><path d="m289.52 19.43h8.1251v90.612h-8.1251z" fill="#b1b1b1"/><g fill="#fff"><path d="m360.53 89.199h-12.19v-27.908c0-3.356-0.17663-9.0082-7.9484-9.0082-5.299 0-9.5381 3.7093-9.5381 10.598v26.318h-12.18v-45.924h11.658v6.712h0.17663c1.5897-2.8261 5.1223-7.9485 13.777-7.9485 9.0082 0 16.074 5.299 16.074 15.367v31.794z"/><path d="m411.4 75.775c-3.1794 11.128-12.364 14.66-20.313 14.66-12.894 0-22.962-6.1821-22.962-25.258 0-5.4756 1.943-23.315 22.079-23.315 9.0082 0 21.549 4.2392 21.549 25.435v2.1196h-31.617c0.35326 3.5326 1.0598 11.304 10.775 11.304 3.356 0 6.8886-1.7663 7.7718-4.9457zm-11.84-14.13c-0.70653-7.4186-5.4756-9.7148-9.3615-9.7148-5.6522 0-8.655 3.7093-9.3615 9.7148z"/><path d="m466.33 89.199h-12.541l-7.2419-33.56-7.2419 33.56h-12.54l-12.9-46.101h12.894l7.2419 33.03h0.17664l6.5354-33.03h12.188l6.8887 33.03h0.17663l7.2419-33.03h12.541z"/><path d="m512.08 57.229c-0.5299-3.0027-1.5897-6.0055-8.1251-6.0055s-7.4186 2.4729-7.4186 4.4158c0 7.2419 28.791 1.943 28.791 18.9 0 13.424-12.894 15.897-20.136 15.897-10.421 0-21.726-3.7093-22.079-15.897h12.541c0 3.8859 2.4729 6.712 10.068 6.712 6.1821 0 7.7718-3.0027 7.7718-4.7691 0-7.7718-28.614-1.943-28.614-19.076 0-6.712 4.2392-15.367 18.546-15.367 9.0082 0 19.783 2.2962 20.666 15.19z"/></g></g></svg>
