<svg xmlns="http://www.w3.org/2000/svg" viewBox="0 0 600 204.341" height="204.34" width="600">
    <style>
        .st1{fill:#b1b1b1}.st2{fill:#fff}.st3{fill:#e5332a}
    </style>
    <g stroke-width="1.668">
        <path d="M562.33 41.202L551.821 81.57c-3.837 15.013-19.85 27.357-35.363 27.357H77.918c-15.513 0-25.021-12.344-21.185-27.357l10.509-40.371c3.837-15.013 19.85-27.357 35.363-27.357h438.54c15.513 0 25.021 12.344 21.185 27.357z" fill="#1d1d1b"/>
        <path d="M573.51 0H74.42C56.235 0 37.886 14.512 33.716 32.194L20.037 90.41c-4.17 17.68 7.34 32.19 25.522 32.19h499.26c18.182 0 36.531-14.512 40.701-32.194l13.68-58.212C603.2 14.512 591.86 0 573.51 0zm-11.176 41.202L551.825 81.57c-3.837 15.013-19.85 27.357-35.363 27.357H77.922c-15.513 0-25.021-12.344-21.185-27.357l10.509-40.371c3.837-15.013 19.85-27.357 35.363-27.357h438.54c15.513 0 25.021 12.344 21.185 27.357z" class="st1" fill="#b1b1b1"/>
        <path class="st1" fill="#b1b1b1" d="M292.6 18.349h7.673v85.573H292.6z"/>
    </g>
    <g stroke-width="1.668" fill="#fff">
        <path d="M331.14 47.207c2.335-3.503 5.505-7.506 13.178-7.506 9.508 0 18.015 7.34 18.015 22.352 0 12.01-5.338 23.353-18.349 23.353-8.007 0-10.843-4.337-12.177-6.673h-.167v22.52h-11.51V40.87h11.01zm10.009 29.025c7.34 0 9.341-8.007 9.341-13.178 0-6.84-2.502-13.345-9.675-13.345-7.84 0-9.674 7.006-9.674 14.012 0 6.339 2.835 12.511 10.009 12.511zM370.34 40.868h11.009v7.506h.167c2.335-4.337 5.004-8.674 12.01-8.674.667 0 1.501 0 2.168.167v11.677c-1-.167-2.168-.167-3.336-.167-8.84 0-10.509 5.505-10.509 10.342v22.686h-11.51zM412.71 35.864H401.2V25.188h11.51zm0 5.004v43.537H401.2V40.868zM485.93 84.405h-11.51V58.049c0-6.505-2.836-8.507-6.172-8.507-5.671 0-7.84 3.836-7.84 8.84v26.023h-11.51v-26.19c0-3.67 0-8.84-6.84-8.84-5.337 0-7.172 3.836-7.172 8.507v26.523h-11.51V40.868h11.01v6.339h.166c1.501-2.836 4.67-7.507 12.344-7.507 6.339 0 9.174 2.336 12.177 7.006 1.501-2.168 4.67-7.006 11.677-7.006 8.507 0 15.18 5.005 15.18 14.512zM533.64 71.728c-3.003 10.509-11.677 13.845-19.183 13.845-12.177 0-21.685-5.838-21.685-23.854 0-5.171 1.835-22.019 20.851-22.019 8.507 0 20.351 4.003 20.351 24.02v2.003h-29.69c.334 3.336 1 10.676 10.175 10.676 3.17 0 6.506-1.668 7.34-4.67zm-11.17-13.345c-.667-7.006-5.171-9.175-8.84-9.175-5.339 0-8.175 3.503-8.842 9.175z" class="st2"/>
    </g>
    <g fill="#e5332a">
        <path class="st3" d="M120.79 59.384l10.51-2.835-6.84 8.34 6.006 9.175-10.176-3.837-6.672 8.34.5-10.842-10.175-3.837 10.509-2.836.5-10.842zM204.53 57.55h-24.355l2.335-9.175h24.688l3.837-16.014H162.16L148.48 89.243h24.188l3.503-16.347h25.021zM240.727 89.243h20.184l13.679-56.882h-20.018l-6.505 25.355-12.845-25.355h-21.018L200.86 89.243h21.184l5.505-26.856z"/>
        <path class="st3" d="M93.934 63.388l17.682-4.67.834-18.35 10.176 15.347 17.681-4.838-11.51 14.346 10.01 15.346-17.182-6.505-.167.166 2.669 15.013h24.02l-9.34-56.882H115.62L73.583 89.243h24.688l10.843-15.013h1.668l.334-4.337z"/>
    </g>
    <path d="M544.65 136.78H45.56c-13.011 0-24.854-5.338-32.194-14.846-.167-.167-.334-.5-.5-.667L.854 172.147c-4.17 17.68 7.34 32.19 25.522 32.19h499.25c18.182 0 36.53-14.512 40.7-32.194l10.844-46.373c-9.509 7.006-20.851 11.009-32.528 11.009z" stroke-width="1.668" fill="#e20613"/>
    <g stroke-width="1.668" fill="#fff">
        <path d="M164.33 191v-42.036h20.184c12.01 0 17.849 5.505 17.849 14.179 0 9.008-5.338 14.846-17.515 14.846h-7.006V191zm19.517-22.853c3.17 0 5.505-1.335 5.505-4.837 0-3.837-4.504-4.504-7.34-4.504h-3.836v9.341zM199.36 191l15.013-42.036h14.012L243.398 191H229.72l-1.668-5.505h-13.678L212.873 191zm22.019-29.358l-4.337 15.013h8.674zM274.42 165.14c-.334-4.337-3.17-6.84-7.506-6.84-4.838 0-7.84 4.171-7.84 12.345 0 5.838 1.334 11.51 8.34 11.51 4.504 0 6.506-3.17 7.006-7.173h13.178c-1.168 10.843-9.008 17.348-20.017 17.348-13.845 0-22.352-8.507-22.352-22.186 0-13.678 9.175-22.019 21.018-22.019 12.844 0 20.017 6.339 21.185 17.181h-13.01zM294.1 191v-42.036h13.845V191zM316.62 191v-42.036h32.694v9.842h-18.849v7.673h15.013v9.842h-15.013v14.846H316.62zM355.66 191v-42.036h13.845V191zM404.36 165.14c-.334-4.337-3.17-6.84-7.506-6.84-4.838 0-7.84 4.171-7.84 12.345 0 5.838 1.334 11.51 8.34 11.51 4.504 0 6.506-3.17 7.006-7.173h13.178c-1.168 10.843-9.008 17.348-20.017 17.348-13.845 0-22.352-8.507-22.352-22.186 0-13.678 9.175-22.019 21.018-22.019 12.844 0 20.017 6.339 21.185 17.181h-13.011z" class="st2"/>
    </g>
</svg>
