<svg viewBox="0 0 600 100.68" xmlns="http://www.w3.org/2000/svg">
    <defs>
        <linearGradient id="a" x1="133.85" x2="135.98" y1="72.074" y2="25.769" gradientUnits="userSpaceOnUse">
            <stop stop-color="#23235f" offset="0"/>
            <stop stop-color="#3a4adb" offset="1"/>
        </linearGradient>
    </defs>
    <style>
        .st1{fill:#5586c5}.st2{fill:#b1b1b1}.st3{fill:#fff}
    </style>
    <path d="M569.12 33.743l-8.641 33.194c-3.155 12.345-16.323 22.495-29.08 22.495H48.02c-12.755 0-20.574-10.15-17.42-22.495l8.647-33.194c3.155-12.345 16.323-22.495 29.08-22.495h483.37c12.756 0 20.575 10.15 17.42 22.495z" fill="#1d1d1b" stroke-width="1.372"/>
    <g fill="url(#a)">
        <path class="st1" d="M83.553 48.695l8.642-2.331-5.624 6.995 4.938 7.407-8.367-3.155-5.624 6.996.548-8.916-8.367-3.155 8.642-2.469.411-8.916zM152.413 47.187h-20.027l1.92-7.408h20.301l3.155-13.305h-40.19l-11.249 46.775h19.89l2.88-13.306h20.576zM182.178 73.249h16.598l11.248-46.775h-16.46l-5.35 20.85-10.7-20.85h-17.146l-10.973 46.775h17.42l4.527-22.085z"/>
        <path class="st1" d="M61.469 52.125l14.54-3.978.686-15.089 8.23 12.62L99.602 41.7l-9.465 11.796 8.23 12.62-14.128-5.35-.137.138 2.195 12.345h19.752l-7.681-46.775H79.3L44.734 73.249h20.301l8.78-12.345h1.508l.274-3.43z"/>
    </g>
    <path class="st2" d="M578.31 0H45.42C30.468 0 15.379 11.796 11.95 26.473L.703 74.207c-3.43 14.54 6.035 26.473 20.986 26.473h532.89c14.951 0 30.039-11.933 33.469-26.473l11.25-47.871C602.728 11.796 593.258 0 578.308 0zm-9.19 33.743l-8.642 33.194c-3.154 12.345-16.323 22.495-29.079 22.495H48.3c-12.756 0-20.575-10.15-17.42-22.495l8.641-33.194c3.154-12.345 16.322-22.495 29.08-22.495h483.1c12.755 0 20.574 10.15 17.42 22.495z" fill="#b1b1b1" stroke-width="1.372"/>
    <path class="st2" fill="#b1b1b1" stroke-width="1.372" d="M224.83 15.088h6.31v70.366h-6.31z"/>
    <g fill="#fff" stroke-width="1.372">
        <path class="st3" d="M267.9 44.442c-.411-2.332-1.234-4.664-6.31-4.664s-5.76 1.92-5.76 3.43c0 5.623 22.357 1.508 22.357 14.677 0 10.425-10.013 12.345-15.637 12.345-8.093 0-16.87-2.881-17.146-12.346h9.74c0 3.018 1.92 5.213 7.818 5.213 4.8 0 6.035-2.332 6.035-3.704 0-6.035-22.221-1.508-22.221-14.814 0-5.212 3.292-11.933 14.402-11.933 6.995 0 15.363 1.784 16.048 11.796zM293.83 38.681c1.92-2.88 4.527-6.173 10.836-6.173 7.819 0 14.814 6.036 14.814 18.38 0 9.876-4.39 19.203-15.088 19.203-6.584 0-8.916-3.566-10.013-5.486h-.14v18.517h-9.464V33.606h9.053zm8.367 23.867c6.036 0 7.682-6.584 7.682-10.836 0-5.624-2.058-10.973-7.956-10.973-6.447 0-7.956 5.761-7.956 11.522-.137 5.212 2.195 10.287 8.23 10.287zM356.92 58.844c-2.469 8.642-9.602 11.385-15.774 11.385-10.013 0-17.832-4.8-17.832-19.615 0-4.252 1.509-18.106 17.146-18.106 6.996 0 16.734 3.292 16.734 19.752v1.646h-24.553c.274 2.743.823 8.779 8.367 8.779 2.606 0 5.35-1.372 6.036-3.841zm-9.327-10.973c-.549-5.761-4.252-7.544-7.27-7.544-4.39 0-6.721 2.88-7.27 7.544zM394.37 56.238c-.411 3.704-3.292 13.991-16.46 13.991-13.442 0-16.597-10.287-16.597-17.832 0-11.522 5.075-19.889 17.146-19.889 5.624 0 14.951 2.606 15.774 13.717h-9.602c-.411-2.332-1.783-5.761-5.76-5.761h-.412c-5.898 0-7.407 5.898-7.407 10.287 0 3.84.137 11.659 7.27 11.659 4.8 0 6.446-4.527 6.446-6.31h9.602zM411.38 33.606h5.898v6.721h-5.898v19.478c0 2.058 0 2.88 3.84 2.88.55 0 1.235 0 1.921-.136v7.132c-1.509 0-3.018.137-4.39.137h-1.234c-8.093 0-9.601-3.154-9.601-7.68v-21.81h-4.801v-6.722h4.8v-9.739h9.465zM423.18 33.606h9.053v6.173h.137c1.92-3.567 4.115-7.133 9.876-7.133.549 0 1.235 0 1.783.137v9.602c-.823-.137-1.783-.137-2.743-.137-7.27 0-8.641 4.526-8.641 8.504v18.655h-9.465zM480.65 69.269h-9.053v-5.075h-.137c-2.195 3.84-5.898 6.035-10.836 6.035-6.996 0-12.208-3.978-12.208-13.168V33.606h9.464v22.221c0 5.487 3.292 6.584 6.173 6.584 3.155 0 7.27-1.783 7.27-8.093V33.743h9.464V69.27zM540.59 69.269h-9.46V47.597c0-5.35-2.332-6.995-5.075-6.995-4.664 0-6.447 3.154-6.447 7.27v21.397h-9.464V47.734c0-3.017 0-7.27-5.624-7.27-4.39 0-5.899 3.155-5.899 6.996v21.809h-9.464V33.606h9.053v5.212h.137c1.235-2.331 3.84-6.172 10.15-6.172 5.212 0 7.544 1.92 10.013 5.76 1.235-1.782 3.84-5.76 9.602-5.76 6.995 0 12.482 4.115 12.482 11.933z"/>
    </g>
</svg>
