<svg width="295.045" height="295.045" viewBox="0 0 276.61 276.61" xmlns="http://www.w3.org/2000/svg">
    <defs>
        <clipPath id="a">
            <path d="M69.916 622.32c0-.507.41-.91.917-.91.226 0 .443.075.617.244v.068l-.197.212-.065.002a.53.53 0 0 0-.341-.123.502.502 0 0 0-.497.515c0 .286.209.524.497.524a.382.382 0 0 0 .195-.046h.063l.151.241-.003.07s-.167.118-.42.118a.915.915 0 0 1-.917-.915m-.435.915l-.051-.05v-1.728l.051-.047h.311l.05.047v1.728l-.05.05h-.311zm-1.759 0l-.049-.05v-1.043a.318.318 0 0 0-.321-.324.315.315 0 0 0-.315.324v.912l-.049.051h-.316l-.05-.051v-.933c0-.387.326-.711.73-.711.406 0 .736.324.736.711v1.064l-.05.05h-.316zm-1.261 0l-.044-.026-.836-.954h-.006l-.827.948-.043.026h-.042l-.045-.041v-1.721l.043-.057h.302l.048.04v.822h.009l.491-.541.043-.021h.049l.043.021.492.545h.007v-.826l.052-.04h.302l.049.057v1.726l-.044.042h-.043zm2.287-.003c-.391 0-.586-.253-.586-.504 0-.302.274-.473.492-.559.172-.067.263-.149.263-.256 0-.088-.074-.153-.178-.153-.166 0-.35.136-.358.141l-.086-.017-.121-.21.012-.069c.06-.06.241-.195.571-.195.374 0 .598.261.598.524 0 .344-.311.496-.512.577-.2.081-.273.152-.273.248 0 .067.066.129.158.129.154 0 .191-.038.256-.062l.085.032.109.174-.015.081c-.08.053-.17.119-.401.119h-.014"/>
        </clipPath>
        <linearGradient id="b" x2="1" gradientTransform="matrix(0 1.8248 1.8248 0 68.04 621.41)" gradientUnits="userSpaceOnUse">
            <stop stop-color="#feedc9" offset="0"/>
            <stop stop-color="#f8d960" offset="1"/>
        </linearGradient>
        <clipPath id="c">
            <path d="M65.544 625.29l-.906-1.569c-.059-.102-.011-.183.107-.183h1.769v-.008h.503l.049.051v.451l.029.029h.666l.049.051v.452l-.045.049h-.631l-.068.068.068.069h.627l.049.048v.451l-.049.048h-1.198l-.049-.048v-1.272l-.757 1.313c-.029.052-.068.077-.106.077-.039 0-.078-.026-.107-.077m-.043-1.176l.13.223.042.001.128-.225-.023-.04h-.255l-.022.041zm4.359.965a.905.905 0 0 1-.277-.665c0-.108.016-.209.048-.304l-.124-.046-.199-.053.002.001v.003a.777.777 0 0 1 .207.523.746.746 0 0 1-.225.541.738.738 0 0 1-.536.229h-.819l-.067-.062v-1.667l.067-.041h.448l.061.042v.197c.144-.133.316-.226.499-.275l.002.002c.101-.027.204-.039.305-.039l.134.006c.149.017.42.111.57.191a.911.911 0 0 1 .57-.191c.261 0 .483.093.666.276.184.186.276.407.276.667s-.092.482-.276.665a.901.901 0 0 1-.666.277.905.905 0 0 1-.666-.277m.385-.945a.38.38 0 0 0-.115.28.38.38 0 0 0 .115.279.385.385 0 0 0 .281.116.382.382 0 0 0 .279-.116.375.375 0 0 0 .118-.279.376.376 0 0 0-.118-.28.378.378 0 0 0-.279-.116.381.381 0 0 0-.281.116m-1.799.225v.358l.021.021-.004-.006h.293a.207.207 0 0 0 .208-.206.208.208 0 0 0-.208-.206h-.292l-.018.039z"/>
        </clipPath>
        <linearGradient id="d" x2="1" gradientTransform="matrix(0 1.9029 1.9029 0 68.04 623.47)" gradientUnits="userSpaceOnUse">
            <stop stop-color="#f7d44b" offset="0"/>
            <stop stop-color="#f6bd17" offset="1"/>
        </linearGradient>
    </defs>
    <path d="M69.888 30.251L45.12 35.707l-14.311 3.17-13.255 2.943-2.8.8-2.628 1.171C4.187 47.905-.67 56.503.158 65.587l.429 2.914L3.472 81.67l3.17 14.34 5.428 24.681 18.854 85.498 5.485 24.738 3.142 14.34 2.942 13.226.8 2.8c3.456 9.455 12.94 15.511 22.91 14.626l2.942-.4 13.17-2.914 14.368-3.2 24.71-5.427 85.412-18.825 24.795-5.485 14.34-3.17 13.198-2.914 2.856-.829 2.628-1.142c7.885-4.114 12.77-12.77 11.97-21.768l-.4-2.913-2.914-13.198-3.2-14.368-5.427-24.767-18.882-85.413-5.456-24.738-3.143-14.34-2.913-13.197-.829-2.857C229.972 4.6 220.488-1.429 210.49-.515l-2.914.4L194.38 2.8 179.98 6l-24.624 5.427-85.47 18.825z" fill="#f7e219"/>
    <path d="M265.765 137.66c0-70.359-57.018-127.377-127.376-127.377S11.013 67.301 11.013 137.66 68.031 265.035 138.39 265.035s127.376-57.018 127.376-127.376" fill="#050606"/>
    <path d="M84.17 186.507v25.338l.944.571h4.57l.372-.57v-9.999h10.569v9.998l1.085.571h4.542l.258-.57V188.42l-.258-.686h-4.542l-1.085.686v7.541h-10.57v-9.455l-.37-1.114h-4.571l-.943 1.114zm131.719 26.31h-13.626l-.714-.743v-25.31l.714-.743h4.542l.742.743v20.425h5.485l1.057.743 2.542 4.142-.742.742zm-33.451-26.11l.714-.686h15.883l.743.686-2.543 4.2-1.057.742h-7.741v3.542h7.77l.714.714v4.2l-.714.742h-7.77v6.313h10.598l.743.714v4.2l-.743.742h-15.883l-.714-.742v-25.367zm-24.167 0l.714-.686h.657l.486.172 14.797 14.254V188.65l.743-.742h4.485l.742.742v23.51l-.742.657h-.6l-.457-.171-14.826-14.654h-.057v14.14l-.743.685h-4.428l-.714-.685-.057-25.424zm-24.081 0l.686-.686h.628l.486.172 14.797 14.254V188.65l.743-.742h4.513l.743.742v23.51l-.743.657h-.6l-.486-.171-14.825-14.654h-.029v14.14l-.743.685h-4.456l-.714-.685v-25.424zm-1.2 25.024l-.657 1.085h-4.199l-1.285-.914-6.485-14.34h-.143l-6.399 14.34-1.37.914h-4.114l-.572-1.085 11.684-25.31.657-.4h.428l.6.4 11.855 25.31zm-59.417-25.71c3.685 0 6.17 1.714 6.17 1.714l.057 1.057-2.2 3.542h-.97l-2.857-.685c-4.228 0-7.313 3.485-7.313 7.684 0 4.114 3.114 7.57 7.313 7.57l5.028-1.828.942.057 2.885 3.085v1c-2.542 2.485-5.741 3.6-9.055 3.6-7.456 0-13.455-5.914-13.455-13.341a13.423 13.423 0 0 1 13.455-13.455" fill="#fff"/>
    <g clip-path="url(#a)" transform="matrix(28.566 0 0 -28.566 -1805.27 17926.85)">
        <path d="M69.916 622.32c0-.507.41-.91.917-.91.226 0 .443.075.617.244v.068l-.197.212-.065.002a.53.53 0 0 0-.341-.123.502.502 0 0 0-.497.515c0 .286.209.524.497.524a.382.382 0 0 0 .195-.046h.063l.151.241-.003.07s-.167.118-.42.118a.915.915 0 0 1-.917-.915m-.435.915l-.051-.05v-1.728l.051-.047h.311l.05.047v1.728l-.05.05h-.311zm-1.759 0l-.049-.05v-1.043a.318.318 0 0 0-.321-.324.315.315 0 0 0-.315.324v.912l-.049.051h-.316l-.05-.051v-.933c0-.387.326-.711.73-.711.406 0 .736.324.736.711v1.064l-.05.05h-.316zm-1.261 0l-.044-.026-.836-.954h-.006l-.827.948-.043.026h-.042l-.045-.041v-1.721l.043-.057h.302l.048.04v.822h.009l.491-.541.043-.021h.049l.043.021.492.545h.007v-.826l.052-.04h.302l.049.057v1.726l-.044.042h-.043zm2.287-.003c-.391 0-.586-.253-.586-.504 0-.302.274-.473.492-.559.172-.067.263-.149.263-.256 0-.088-.074-.153-.178-.153-.166 0-.35.136-.358.141l-.086-.017-.121-.21.012-.069c.06-.06.241-.195.571-.195.374 0 .598.261.598.524 0 .344-.311.496-.512.577-.2.081-.273.152-.273.248 0 .067.066.129.158.129.154 0 .191-.038.256-.062l.085.032.109.174-.015.081c-.08.053-.17.119-.401.119h-.014" fill="url(#b)"/>
    </g>
    <g clip-path="url(#c)" transform="matrix(28.566 0 0 -28.566 -1805.27 17926.85)">
        <path d="M65.544 625.29l-.906-1.569c-.059-.102-.011-.183.107-.183h1.769v-.008h.503l.049.051v.451l.029.029h.666l.049.051v.452l-.045.049h-.631l-.068.068.068.069h.627l.049.048v.451l-.049.048h-1.198l-.049-.048v-1.272l-.757 1.313c-.029.052-.068.077-.106.077-.039 0-.078-.026-.107-.077m-.043-1.176l.13.223.042.001.128-.225-.023-.04h-.255l-.022.041zm4.359.965a.905.905 0 0 1-.277-.665c0-.108.016-.209.048-.304l-.124-.046-.199-.053.002.001v.003a.777.777 0 0 1 .207.523.746.746 0 0 1-.225.541.738.738 0 0 1-.536.229h-.819l-.067-.062v-1.667l.067-.041h.448l.061.042v.197c.144-.133.316-.226.499-.275l.002.002c.101-.027.204-.039.305-.039l.134.006c.149.017.42.111.57.191a.911.911 0 0 1 .57-.191c.261 0 .483.093.666.276.184.186.276.407.276.667s-.092.482-.276.665a.901.901 0 0 1-.666.277.905.905 0 0 1-.666-.277m.385-.945a.38.38 0 0 0-.115.28.38.38 0 0 0 .115.279.385.385 0 0 0 .281.116.382.382 0 0 0 .279-.116.375.375 0 0 0 .118-.279.376.376 0 0 0-.118-.28.378.378 0 0 0-.279-.116.381.381 0 0 0-.281.116m-1.799.225v.358l.021.021-.004-.006h.293a.207.207 0 0 0 .208-.206.208.208 0 0 0-.208-.206h-.292l-.018.039z" fill="url(#d)"/>
    </g>
</svg>
