<svg width="211.67mm" height="158.18mm" version="1.1" viewBox="0 0 211.67 158.18" xmlns="http://www.w3.org/2000/svg">
 <g transform="translate(2.1823 -44.892)">
  <g transform="matrix(4.3618 0 0 4.2412 -342.16 -409.28)" fill="#fff" aria-label="agi">
   <path d="m88.393 133.68c-1.3434-0.15288-2.3864-0.63063-3.1288-1.4332-0.28283-0.30575-0.51263-0.64017-0.6894-1.0033-0.14142-0.30575-0.24748-0.66884-0.31818-1.0893-0.03535-0.2102-0.05303-0.5064-0.05303-0.8886s0.01768-0.6784 0.05303-0.8886c0.17677-0.87905 0.56566-1.6243 1.1667-2.2358 0.60101-0.59241 1.3611-1.0224 2.2803-1.2899 0.47728-0.15288 1.149-0.28665 2.0152-0.40131 1.202-0.15287 2.1919-0.31531 2.9697-0.4873 0.24748-0.0573 0.5303-0.13377 0.84849-0.22932 0.31818-0.0956 0.49495-0.15287 0.5303-0.17198 0.05303-0.0382 0.07071-0.27707 0.05304-0.71662 0-0.42041-0.02652-0.76439-0.07955-1.0319-0.10606-0.45863-0.28725-0.83605-0.54356-1.1322-0.25631-0.29621-0.62311-0.5303-1.1004-0.70229-0.47727-0.15287-1.0518-0.22931-1.7235-0.22931-1.0606 0-1.8561 0.18154-2.3864 0.54463-0.53031 0.36308-0.73984 1.0033-1.0227 1.9205-0.07071 0.2102-0.10606 0.33441-0.10606 0.37264-0.03535 0.0191-0.07071 0.0287-0.10606 0.0287-0.72682 8e-3 -2.0362-3e-3 -2.0362-3e-3 0.04994-2.3849 1.1168-3.8841 2.9793-4.5837 0.86616-0.30575 1.8914-0.45863 3.0758-0.45863 0.7601 0 1.3965 0.0478 1.9091 0.14333 0.51263 0.0956 0.99874 0.26753 1.4583 0.51596 0.5303 0.26754 0.95455 0.60196 1.2727 1.0033 0.31818 0.40131 0.54798 0.90772 0.6894 1.5192 0.07071 0.26753 0.1149 0.61629 0.13258 1.0463 0.01768 0.42997 0.02652 1.6769 0.02652 3.7407 0.03535 3.2104 0.08839 5.1119 0.15909 5.7043 0.08808 0.45196 1.4154 0.30503 1.4154 0.30503l0.02834 1.8054c-1.9125 0.0311-3.0384 0.57342-3.7771-1.5084-0.03536-0.24843-0.05746-0.37742-0.06629-0.38697-0.0088-0.01-0.0928 0.0621-0.2519 0.21498-1.202 1.0702-2.5013 1.7199-3.8977 1.9492-0.14142 0.0382-0.4375 0.0573-0.88826 0.0573zm2.0682-2.1212c0.70708-0.11466 1.3434-0.37264 1.9091-0.77395 0.60101-0.40131 1.0429-0.90772 1.3258-1.5192 0.15909-0.34397 0.26957-0.72617 0.33144-1.1466 0.06187-0.42041 0.0928-0.99371 0.0928-1.7199v-0.8026l-0.15909 0.0573c-0.74243 0.30576-1.9621 0.61152-3.6591 0.91727-0.95455 0.15288-1.6174 0.2962-1.9886 0.42997-0.37121 0.13377-0.68056 0.34398-0.92803 0.63063-0.38889 0.42041-0.59217 0.94593-0.60985 1.5766 0 0.74528 0.26515 1.3472 0.79546 1.8059 0.31818 0.26753 0.72917 0.44908 1.233 0.54463 0.50379 0.0955 1.0562 0.0955 1.6572 0z" stroke-width=".75618"/>
   <path d="m104.87 139.65c-1.0865-0.14034-2.0275-0.47115-2.823-0.99244-0.8935-0.57784-1.4491-1.4586-1.6589-2.4059-0.0964-0.4038-0.17475-0.88026-0.14551-1.1122h2.2991c0.0388 0 0.0679 0.0196 0.0873 0.0596 0.11124 0.88568 0.72788 1.6479 1.3678 1.9548 0.29103 0.16039 0.55781 0.26063 0.80033 0.30073 0.24253 0.0401 0.58692 0.0701 1.0332 0.0902 0.81489 0.0401 1.4697-0.0251 1.9645-0.19548 0.49475-0.17042 0.94585-0.45612 1.3533-0.85709 0.25223-0.28069 0.45595-0.56138 0.61117-0.84207 0.17462-0.38093 0.29103-0.75684 0.34923-1.1278s0.097-0.99744 0.11642-1.8796l0.0291-1.1428-0.43655 0.42102c-0.64027 0.64157-1.329 1.0826-2.0663 1.3232-0.52385 0.1604-1.0962 0.2406-1.7171 0.2406-2.4835-0.0201-4.2879-1.213-5.4132-3.5788-0.34924-0.70171-0.58207-1.4134-0.69848-2.1352-0.23283-1.1227-0.28133-2.2455-0.14551-3.3682 0.13581-1.1628 0.43654-2.2254 0.90219-3.1878 0.65967-1.4034 1.6395-2.3858 2.9394-2.9472 0.42685-0.2005 0.9216-0.34085 1.4843-0.42104 0.56266-0.0802 1.0768-0.10022 1.5425-0.0601 0.69848 0.0802 1.3096 0.2506 1.8335 0.51124 0.52385 0.26063 1.0283 0.65159 1.5134 1.1729l0.46565 0.48117v-1.8044h2.3282v7.0372c0 4.7115-0.0194 7.3279-0.0582 7.8492-0.097 1.5638-0.32984 2.7367-0.69848 3.5186-0.40744 0.8621-1.0235 1.5588-1.848 2.0901s-1.7898 0.87715-2.8958 1.0375c-0.81489 0.0802-1.6201 0.0702-2.4156-0.0301zm2.532-8.4507c0.54326-0.1604 1.0429-0.45111 1.4988-0.87213 0.45595-0.42104 0.80034-0.91224 1.0332-1.4736 0.32983-0.84207 0.49475-1.9047 0.49475-3.1878 0-1.0626-0.11156-1.9548-0.33469-2.6765-0.22312-0.72177-0.58691-1.3433-1.0914-1.8646-0.54326-0.58142-1.1447-0.95233-1.8044-1.1127-0.19402-0.0401-0.49475-0.0601-0.90219-0.0601-0.40745 0-0.70818 0.0301-0.9022 0.0903-0.23283 0.0601-0.48505 0.16539-0.75668 0.31578-0.27163 0.15037-0.48506 0.30575-0.64027 0.46613-0.58207 0.52128-1.0089 1.1578-1.2805 1.9097-0.27163 0.75185-0.40744 1.7092-0.40744 2.872 0 1.1227 0.11641 2.065 0.34923 2.8269 0.23283 0.76186 0.60147 1.3834 1.1059 1.8646 0.54326 0.52128 1.1932 0.85209 1.9499 0.99243 0.19402 0.0401 0.47535 0.0501 0.84399 0.0301 0.36864-0.0201 0.64997-0.0602 0.84399-0.12029z" stroke-width=".81146"/>
   <path d="m116.45 125.62v-7.5753h2.5611v15.122h-2.5611zm0-11.864v-1.458h2.5611v2.9445h-2.5611z" stroke-width=".79116"/>
  </g>
  <path d="m-2.1401 44.892c-0.022994 0-0.04223 0.01924-0.04223 0.04223v158.09c0 0.0232 0.019236 0.0445 0.04223 0.0445h211.58c0.0228 0 0.0422-0.0195 0.0422-0.0422v-158.1c1e-5 -0.02299-0.0194-0.04223-0.0422-0.04223zm199.4 12.033v134.07l-187.27 5e-3v-134.07z" fill="#ff2728" stroke-opacity=".98824" stroke-width="11.38"/>
 </g>
</svg>
