<svg version="1.1" viewBox="0 0 800 264.94" xmlns="http://www.w3.org/2000/svg">
 <defs>
  <linearGradient id="a" x1="23.448" x2="0" y1="56.014" y2="56.014" gradientTransform="scale(2.3883 .41871)" gradientUnits="userSpaceOnUse">
   <stop stop-color="#40C8EC" offset="0"/>
   <stop stop-color="#8E44F1" offset="1"/>
  </linearGradient>
 </defs>
 <g transform="matrix(14.286 0 0 14.286 0 -264.93)" fill-rule="evenodd">
  <path d="m0 18.545h56v9.818h-56z" fill="url(#a)"/>
  <path d="m4.615 24.086h1.401l-0.7-1.987-0.7 1.987zm-2.018 2.044a0.155 0.155 0 0 1-0.052-0.113c0-0.031 3e-3 -0.054 8e-3 -0.07l1.834-4.995c0.053-0.15 0.158-0.226 0.315-0.226h1.228c0.157 0 0.262 0.076 0.315 0.226l1.834 4.995a0.237 0.237 0 0 1 7e-3 0.07c0 0.042-0.017 0.08-0.05 0.113a0.159 0.159 0 0 1-0.115 0.05h-1.023a0.273 0.273 0 0 1-0.268-0.17l-0.283-0.756h-2.062l-0.285 0.756a0.273 0.273 0 0 1-0.267 0.172h-1.022a0.158 0.158 0 0 1-0.114-0.05zm6.76-8e-3a0.186 0.186 0 0 1-0.059-0.136v-5.065c0-0.057 0.02-0.104 0.06-0.14a0.197 0.197 0 0 1 0.137-0.055h1.102c0.058 0 0.105 0.019 0.142 0.055a0.19 0.19 0 0 1 0.055 0.14v4.036h2.361c0.058 0 0.106 0.02 0.146 0.059s0.059 0.087 0.059 0.144v0.826c0 0.057-0.02 0.104-0.06 0.14a0.206 0.206 0 0 1-0.145 0.055h-3.66a0.19 0.19 0 0 1-0.137-0.059m6.875-2.037h1.4l-0.7-1.987zm-2.02 2.045a0.155 0.155 0 0 1-0.05-0.113c0-0.031 2e-3 -0.054 7e-3 -0.07l1.834-4.995c0.053-0.15 0.158-0.226 0.315-0.226h1.228c0.157 0 0.262 0.076 0.315 0.226l1.834 4.995a0.237 0.237 0 0 1 8e-3 0.07c0 0.042-0.018 0.08-0.052 0.113a0.159 0.159 0 0 1-0.114 0.05h-1.023a0.273 0.273 0 0 1-0.268-0.17l-0.283-0.756h-2.062l-0.283 0.755a0.273 0.273 0 0 1-0.268 0.172h-1.023a0.158 0.158 0 0 1-0.114-0.05zm9.064-5.404c0.692 0 1.234 0.156 1.625 0.468s0.587 0.75 0.587 1.317c0 0.363-0.086 0.673-0.256 0.927a1.69 1.69 0 0 1-0.705 0.592l1.063 1.901a0.162 0.162 0 0 1-0.024 0.199 0.154 0.154 0 0 1-0.118 0.05h-1.11a0.329 0.329 0 0 1-0.322-0.21l-0.866-1.69h-0.756v1.706c0 0.057-0.02 0.104-0.059 0.14a0.206 0.206 0 0 1-0.145 0.055h-1.079a0.19 0.19 0 0 1-0.137-0.059 0.186 0.186 0 0 1-0.06-0.136v-5.056c0-0.057 0.019-0.105 0.056-0.144a0.186 0.186 0 0 1 0.141-0.059h2.165zm-8e-3 1.122h-0.874v1.286h0.874c0.226 0 0.397-0.056 0.516-0.167 0.118-0.112 0.177-0.267 0.177-0.464a0.647 0.647 0 0 0-0.177-0.475c-0.119-0.12-0.29-0.18-0.516-0.18zm5.328 2.237h1.401l-0.7-1.987-0.7 1.987zm-2.017 2.045a0.155 0.155 0 0 1-0.052-0.113c0-0.031 3e-3 -0.054 8e-3 -0.07l1.834-4.995c0.053-0.15 0.158-0.226 0.315-0.226h1.228c0.157 0 0.262 0.076 0.315 0.226l1.834 4.995a0.237 0.237 0 0 1 7e-3 0.07c0 0.042-0.017 0.08-0.05 0.113a0.159 0.159 0 0 1-0.115 0.05h-1.024a0.273 0.273 0 0 1-0.268-0.17l-0.283-0.756h-2.062l-0.284 0.755a0.273 0.273 0 0 1-0.267 0.172h-1.023a0.158 0.158 0 0 1-0.114-0.05zm9.236-1.001c0.204 0 0.363-0.059 0.476-0.175a0.6 0.6 0 0 0 0.17-0.433 0.602 0.602 0 0 0-0.174-0.44c-0.115-0.117-0.273-0.175-0.472-0.175h-1.056v1.223h1.055zm-0.071-2.244c0.194 0 0.344-0.052 0.449-0.156a0.545 0.545 0 0 0 0.157-0.405 0.53 0.53 0 0 0-0.153-0.394c-0.103-0.101-0.254-0.152-0.453-0.152h-0.984v1.107zm-2.405 3.237a0.186 0.186 0 0 1-0.059-0.136v-5.056c0-0.057 0.019-0.105 0.055-0.144a0.186 0.186 0 0 1 0.142-0.059h2.432c0.667 0 1.162 0.135 1.488 0.406 0.325 0.27 0.488 0.654 0.488 1.153 0 0.25-0.067 0.465-0.2 0.647a1.29 1.29 0 0 1-0.446 0.397c0.215 0.093 0.397 0.248 0.544 0.464 0.146 0.215 0.22 0.458 0.22 0.728 0 0.525-0.175 0.933-0.524 1.223-0.349 0.291-0.848 0.437-1.499 0.437h-2.503a0.19 0.19 0 0 1-0.138-0.059zm6.179 0a0.186 0.186 0 0 1-0.06-0.136v-5.065c0-0.057 0.02-0.104 0.06-0.14a0.197 0.197 0 0 1 0.138-0.055h1.125c0.058 0 0.105 0.019 0.142 0.055a0.19 0.19 0 0 1 0.055 0.14v5.065a0.193 0.193 0 0 1-0.197 0.195h-1.125a0.19 0.19 0 0 1-0.138-0.059m4.62 0a0.186 0.186 0 0 1-0.059-0.136v-1.66l-1.818-3.35a0.156 0.156 0 0 1 0.028-0.199 0.16 0.16 0 0 1 0.114-0.05h1.038a0.29 0.29 0 0 1 0.181 0.054 0.352 0.352 0 0 1 0.103 0.117l1.094 1.956 1.094-1.956a0.351 0.351 0 0 1 0.102-0.117 0.29 0.29 0 0 1 0.181-0.055h1.04a0.16 0.16 0 0 1 0.113 0.05 0.156 0.156 0 0 1 0.028 0.2l-1.818 3.35v1.66c0 0.057-0.02 0.104-0.06 0.14a0.206 0.206 0 0 1-0.145 0.055h-1.078a0.19 0.19 0 0 1-0.138-0.059m5.482-2.037h1.4l-0.7-1.987zm-2.021 2.045a0.155 0.155 0 0 1-0.051-0.113c0-0.031 2e-3 -0.054 8e-3 -0.07l1.834-4.995c0.052-0.15 0.157-0.226 0.315-0.226h1.227c0.158 0 0.263 0.076 0.315 0.226l1.834 4.995a0.237 0.237 0 0 1 8e-3 0.07c0 0.042-0.017 0.08-0.051 0.113a0.159 0.159 0 0 1-0.114 0.05h-1.024a0.273 0.273 0 0 1-0.267-0.17l-0.283-0.756h-2.063l-0.283 0.755a0.273 0.273 0 0 1-0.268 0.172h-1.023a0.158 0.158 0 0 1-0.114-0.05z" fill="#fff"/>
  <path d="m6.332 29.22h-3.138c-0.185 0-0.285 0.114-0.285 0.328v7.057c0 0.214 0.1 0.314 0.285 0.329h3.523c1.483 0 2.125-0.943 2.125-2.157 0-1.086-0.599-1.615-1.34-1.872 0.499-0.2 1.112-0.714 1.112-1.743 0-1.071-0.642-1.943-2.282-1.943zm-1.726 1.357h1.355c0.7 0 0.956 0.271 0.956 0.857 0 0.643-0.342 0.985-0.942 0.985h-1.369zm0 3.071h1.47c0.613 0 0.998 0.214 0.998 0.957 0 0.757-0.3 0.972-1.07 0.972h-1.398zm11.305 0.243v-4.343c0-0.214-0.1-0.329-0.285-0.329h-1.141c-0.185 0-0.271 0.115-0.271 0.33v4.528c0 1.157-0.314 1.585-1.312 1.585-0.913 0-1.298-0.3-1.298-1.585v-4.529c0-0.214-0.086-0.329-0.271-0.329h-1.141c-0.185 0-0.285 0.115-0.285 0.33v4.342c0 1.886 0.442 3.2 3.01 3.2 2.48 0 2.994-1.314 2.994-3.2zm6.599-3.472v-0.685c0-0.3-0.029-0.357-0.443-0.443a9.431 9.431 0 0 0-1.954-0.2c-2.281 0-2.938 0.686-2.938 2.271 0 1.543 0.8 1.943 2.468 2.429 1.084 0.314 1.455 0.457 1.455 0.957 0 0.743-0.271 0.843-1.44 0.843-1.441 0-1.812-0.2-2.226-0.2-0.157 0-0.242 0.071-0.242 0.286v0.757c0 0.271 0.028 0.357 0.356 0.428 0.614 0.143 1.298 0.2 2.054 0.2 2.125 0 3.21-0.343 3.21-2.443 0-1.728-1.356-2.07-2.468-2.37-1.327-0.358-1.44-0.472-1.44-1 0-0.544 0.213-0.672 1.354-0.672 0.984 0 1.697 0.185 1.983 0.185 0.214 0 0.27-0.1 0.27-0.343zm3.289 6.186v-7.057c0-0.214-0.086-0.329-0.271-0.329h-1.14c-0.186 0-0.286 0.115-0.286 0.33v7.056c0 0.214 0.1 0.329 0.285 0.329h1.141c0.185 0 0.271-0.115 0.271-0.329zm7.597 0v-7.057c0-0.214-0.1-0.329-0.286-0.329h-1.14c-0.186 0-0.271 0.115-0.271 0.33v4.385l-2.525-4.443c-0.128-0.229-0.2-0.272-0.456-0.272h-1.141c-0.186 0-0.286 0.115-0.286 0.33v7.056c0 0.214 0.1 0.329 0.286 0.329h1.14c0.186 0 0.272-0.115 0.272-0.329v-4.214l2.467 4.257c0.143 0.243 0.257 0.286 0.456 0.286h1.198c0.186 0 0.286-0.115 0.286-0.329zm6.37-6.214v-0.872c0-0.185-0.114-0.3-0.328-0.3h-4.279c-0.185 0-0.285 0.115-0.285 0.33v7.056c0 0.214 0.1 0.329 0.285 0.329h4.35c0.214 0 0.328-0.1 0.328-0.286v-0.886c0-0.185-0.114-0.285-0.328-0.285h-2.924v-1.843h2.582c0.214 0 0.314-0.1 0.314-0.286v-0.743c0-0.186-0.1-0.286-0.314-0.286h-2.597v-1.642h2.867c0.214 0 0.328-0.1 0.328-0.286zm6.427 0.028v-0.685c0-0.3-0.028-0.357-0.442-0.443a9.431 9.431 0 0 0-1.954-0.2c-2.282 0-2.938 0.686-2.938 2.271 0 1.543 0.799 1.943 2.467 2.429 1.084 0.314 1.455 0.457 1.455 0.957 0 0.743-0.27 0.843-1.44 0.843-1.44 0-1.812-0.2-2.225-0.2-0.157 0-0.243 0.071-0.243 0.286v0.757c0 0.271 0.029 0.357 0.357 0.428 0.613 0.143 1.298 0.2 2.054 0.2 2.125 0 3.209-0.343 3.209-2.443 0-1.728-1.355-2.07-2.468-2.37-1.326-0.358-1.44-0.472-1.44-1 0-0.544 0.214-0.672 1.355-0.672 0.984 0 1.697 0.185 1.982 0.185 0.214 0 0.271-0.1 0.271-0.343zm6.598 0v-0.685c0-0.3-0.028-0.357-0.442-0.443a9.431 9.431 0 0 0-1.954-0.2c-2.282 0-2.938 0.686-2.938 2.271 0 1.543 0.799 1.943 2.468 2.429 1.084 0.314 1.454 0.457 1.454 0.957 0 0.743-0.27 0.843-1.44 0.843-1.44 0-1.811-0.2-2.225-0.2-0.157 0-0.242 0.071-0.242 0.286v0.757c0 0.271 0.028 0.357 0.356 0.428 0.613 0.143 1.298 0.2 2.054 0.2 2.125 0 3.209-0.343 3.209-2.443 0-1.728-1.355-2.07-2.467-2.37-1.327-0.358-1.441-0.472-1.441-1 0-0.544 0.214-0.672 1.355-0.672 0.984 0 1.697 0.185 1.982 0.185 0.214 0 0.271-0.1 0.271-0.343z" fill="#fff" fill-rule="nonzero"/>
 </g>
</svg>
