<svg xmlns="http://www.w3.org/2000/svg" height="237.1" width="600" viewBox="0 0 158.75 62.734">
    <path d="M0 49.04h158.75V13.43H0l-.002 35.61z" fill="#504748"/>
    <path d="M35.242 8.83v45.16l88.05 8.74V0" fill="#bc0d1d"/>
    <path d="M0 13.42v35.63h86.632V31.21l17.78-17.79" fill="#504748"/>
    <g fill="#fff">
        <path d="M144.512 26.81c-.14 0-.25-.11-.25-.25v-6.33c0-.14-.11-.26-.25-.26h-5.59c-.13 0-.25.12-.25.26v6.33c0 .14-.12.25-.25.25h-7.3c-.14 0-.25.12-.25.26v5.63c0 .14.11.25.25.25h7.3c.13 0 .25.12.25.26v7.43c0 .14.12.25.25.25h5.59c.14 0 .25-.11.25-.25v-7.43c0-.14.11-.26.25-.26h6.79c.14 0 .25-.11.25-.25v-5.63c0-.14-.11-.26-.25-.26M29.271 41.01h5.036V20.04h-5.036v20.97zM46.842 31.95c-.39-1.51-1.37-2.26-2.938-2.26-1.594 0-2.545.75-2.853 2.26h5.791zm-5.93 2.91c.027 2.13 1.063 3.19 3.077 3.19 1.062 0 1.873-.45 2.463-1.34h4.86c-.3 1.06-.75 1.9-1.28 2.51-1.37 1.57-3.41 2.35-6.07 2.35-2.464 0-4.448-.67-5.933-2.04-1.482-1.37-2.21-3.21-2.21-5.48 0-2.32.7-4.17 2.129-5.54 1.428-1.37 3.384-2.04 5.817-2.04 2.437 0 4.307.7 5.677 2.1 1.37 1.39 2.07 3.32 2.07 5.76v.53M69.282 41.01l-5.56-5.76v5.76h-5.04V20.04h5.04v11.91l5.28-5.09h6.91l-7.13 6.55 7.55 7.6M77.062 26.86h5.04v14.16h-5.04V26.86zm2.52-1.4c-.76 0-1.43-.28-1.99-.81-.56-.56-.84-1.2-.84-1.96 0-1.59 1.26-2.85 2.83-2.85 1.56 0 2.85 1.26 2.85 2.82 0 1.57-1.31 2.8-2.85 2.8M94.062 41.01V32.9c0-.98-.37-1.65-1.12-2.07a2.61 2.61 0 0 0-1.2-.31c-1.77 0-2.66.98-2.66 2.91v7.58h-5.04V26.86h5.04v1.79c1.23-1.4 2.77-2.1 4.59-2.1 1.7 0 3.07.5 4.11 1.54.86.87 1.31 2.18 1.31 3.92v9M111.392 31.62c-.65-.65-1.4-.95-2.29-.95-.9 0-1.65.3-2.3.95-.64.64-.95 1.39-.95 2.26 0 1.82 1.43 3.28 3.25 3.28.89 0 1.64-.31 2.29-.96.64-.64.95-1.4.95-2.29 0-.92-.31-1.68-.95-2.29m3.69 7.97c-1.62 1.31-3.6 1.96-5.98 1.96-2.49 0-4.54-.7-6.16-2.1-1.62-1.43-2.43-3.22-2.43-5.37 0-2.38.84-4.31 2.54-5.74 1.6-1.34 3.58-2.01 5.96-2.01 2.55 0 4.65.7 6.24 2.13 1.62 1.42 2.43 3.24 2.43 5.48 0 2.38-.86 4.25-2.6 5.65M17.445 26.53l-2.295 6.68h4.532l-2.237-6.68zm5.09 14.48l-1.371-3.63h-7.523l-1.428 3.63H6.452l8.055-20.97h5.93l7.916 20.97"/>
    </g>
</svg>
