<svg width="600" height="182.5" viewBox="0 0 158.75 48.288" xmlns="http://www.w3.org/2000/svg" xmlns:xlink="http://www.w3.org/1999/xlink">
    <defs>
        <linearGradient id="a" x1="-.074" x2="1.082" gradientTransform="rotate(55 -66.465 157.251) scale(120.967)" gradientUnits="userSpaceOnUse">
            <stop stop-color="#2a97db" offset=".063"/>
            <stop stop-color="#2a97db" offset=".063"/>
            <stop stop-color="#2996da" offset=".066"/>
            <stop stop-color="#2996da" offset=".07"/>
            <stop stop-color="#2995d9" offset=".074"/>
            <stop stop-color="#2994d8" offset=".078"/>
            <stop stop-color="#2993d7" offset=".082"/>
            <stop stop-color="#2992d6" offset=".086"/>
            <stop stop-color="#2992d5" offset=".09"/>
            <stop stop-color="#2991d5" offset=".094"/>
            <stop stop-color="#2890d4" offset=".098"/>
            <stop stop-color="#288fd3" offset=".102"/>
            <stop stop-color="#288ed2" offset=".105"/>
            <stop stop-color="#288dd1" offset=".109"/>
            <stop stop-color="#288dd1" offset=".113"/>
            <stop stop-color="#288cd0" offset=".117"/>
            <stop stop-color="#288bcf" offset=".121"/>
            <stop stop-color="#288bce" offset=".125"/>
            <stop stop-color="#288ace" offset=".129"/>
            <stop stop-color="#288acd" offset=".133"/>
            <stop stop-color="#2889cc" offset=".137"/>
            <stop stop-color="#2788cc" offset=".141"/>
            <stop stop-color="#2787cb" offset=".145"/>
            <stop stop-color="#2786ca" offset=".148"/>
            <stop stop-color="#2785c9" offset=".152"/>
            <stop stop-color="#2785c8" offset=".156"/>
            <stop stop-color="#2784c7" offset=".16"/>
            <stop stop-color="#2783c7" offset=".164"/>
            <stop stop-color="#2783c6" offset=".168"/>
            <stop stop-color="#2682c5" offset=".172"/>
            <stop stop-color="#2681c5" offset=".176"/>
            <stop stop-color="#2680c4" offset=".18"/>
            <stop stop-color="#2680c3" offset=".184"/>
            <stop stop-color="#257fc3" offset=".188"/>
            <stop stop-color="#257ec2" offset=".191"/>
            <stop stop-color="#257ec1" offset=".195"/>
            <stop stop-color="#257dc0" offset=".199"/>
            <stop stop-color="#257cbf" offset=".203"/>
            <stop stop-color="#257bbf" offset=".207"/>
            <stop stop-color="#257bbe" offset=".211"/>
            <stop stop-color="#257abd" offset=".215"/>
            <stop stop-color="#2579bc" offset=".219"/>
            <stop stop-color="#2579bc" offset=".223"/>
            <stop stop-color="#2578bb" offset=".227"/>
            <stop stop-color="#2577ba" offset=".23"/>
            <stop stop-color="#2576b9" offset=".234"/>
            <stop stop-color="#2576b9" offset=".238"/>
            <stop stop-color="#2575b8" offset=".242"/>
            <stop stop-color="#2474b7" offset=".246"/>
            <stop stop-color="#2474b7" offset=".25"/>
            <stop stop-color="#2473b6" offset=".254"/>
            <stop stop-color="#2473b5" offset=".258"/>
            <stop stop-color="#2372b4" offset=".262"/>
            <stop stop-color="#2371b3" offset=".266"/>
            <stop stop-color="#2370b3" offset=".27"/>
            <stop stop-color="#2370b2" offset=".273"/>
            <stop stop-color="#236fb1" offset=".277"/>
            <stop stop-color="#236fb1" offset=".281"/>
            <stop stop-color="#236eb0" offset=".285"/>
            <stop stop-color="#236daf" offset=".289"/>
            <stop stop-color="#236cae" offset=".293"/>
            <stop stop-color="#236cad" offset=".297"/>
            <stop stop-color="#236bad" offset=".301"/>
            <stop stop-color="#226aac" offset=".305"/>
            <stop stop-color="#226aac" offset=".309"/>
            <stop stop-color="#2269ab" offset=".313"/>
            <stop stop-color="#2269aa" offset=".316"/>
            <stop stop-color="#2268aa" offset=".32"/>
            <stop stop-color="#2267a9" offset=".324"/>
            <stop stop-color="#2267a8" offset=".328"/>
            <stop stop-color="#2266a7" offset=".332"/>
            <stop stop-color="#2165a6" offset=".336"/>
            <stop stop-color="#2164a6" offset=".34"/>
            <stop stop-color="#2164a5" offset=".344"/>
            <stop stop-color="#2163a4" offset=".348"/>
            <stop stop-color="#2163a4" offset=".352"/>
            <stop stop-color="#2162a3" offset=".355"/>
            <stop stop-color="#2162a2" offset=".359"/>
            <stop stop-color="#2161a1" offset=".363"/>
            <stop stop-color="#2060a1" offset=".367"/>
            <stop stop-color="#2060a0" offset=".371"/>
            <stop stop-color="#205f9f" offset=".375"/>
            <stop stop-color="#205e9f" offset=".379"/>
            <stop stop-color="#205e9e" offset=".383"/>
            <stop stop-color="#205d9d" offset=".387"/>
            <stop stop-color="#205d9d" offset=".391"/>
            <stop stop-color="#205c9c" offset=".395"/>
            <stop stop-color="#205b9b" offset=".398"/>
            <stop stop-color="#205b9a" offset=".402"/>
            <stop stop-color="#205a9a" offset=".406"/>
            <stop stop-color="#1f5a99" offset=".41"/>
            <stop stop-color="#1f5999" offset=".414"/>
            <stop stop-color="#1f5998" offset=".418"/>
            <stop stop-color="#1f5897" offset=".422"/>
            <stop stop-color="#1f5897" offset=".426"/>
            <stop stop-color="#1f5796" offset=".43"/>
            <stop stop-color="#1f5695" offset=".434"/>
            <stop stop-color="#1f5694" offset=".438"/>
            <stop stop-color="#1f5594" offset=".441"/>
            <stop stop-color="#1e5493" offset=".445"/>
            <stop stop-color="#1e5492" offset=".449"/>
            <stop stop-color="#1e5392" offset=".453"/>
            <stop stop-color="#1e5391" offset=".457"/>
            <stop stop-color="#1e5290" offset=".461"/>
            <stop stop-color="#1e5290" offset=".465"/>
            <stop stop-color="#1e518f" offset=".469"/>
            <stop stop-color="#1d518e" offset=".473"/>
            <stop stop-color="#1d508d" offset=".477"/>
            <stop stop-color="#1d4f8d" offset=".48"/>
            <stop stop-color="#1d4f8c" offset=".484"/>
            <stop stop-color="#1d4e8c" offset=".488"/>
            <stop stop-color="#1d4e8b" offset=".492"/>
            <stop stop-color="#1d4d8a" offset=".496"/>
            <stop stop-color="#1d4d8a" offset=".5"/>
            <stop stop-color="#1d4c89" offset=".504"/>
            <stop stop-color="#1d4c88" offset=".508"/>
            <stop stop-color="#1d4b87" offset=".512"/>
            <stop stop-color="#1c4a87" offset=".516"/>
            <stop stop-color="#1c4a86" offset=".52"/>
            <stop stop-color="#1c4a86" offset=".523"/>
            <stop stop-color="#1c4985" offset=".527"/>
            <stop stop-color="#1c4984" offset=".531"/>
            <stop stop-color="#1c4884" offset=".535"/>
            <stop stop-color="#1c4783" offset=".539"/>
            <stop stop-color="#1c4782" offset=".543"/>
            <stop stop-color="#1c4681" offset=".547"/>
            <stop stop-color="#1b4681" offset=".551"/>
            <stop stop-color="#1b4580" offset=".555"/>
            <stop stop-color="#1b457f" offset=".559"/>
            <stop stop-color="#1b447f" offset=".563"/>
            <stop stop-color="#1b447e" offset=".566"/>
            <stop stop-color="#1b437e" offset=".57"/>
            <stop stop-color="#1b437d" offset=".574"/>
            <stop stop-color="#1b427c" offset=".578"/>
            <stop stop-color="#1a427b" offset=".582"/>
            <stop stop-color="#1a417b" offset=".586"/>
            <stop stop-color="#1a417a" offset=".59"/>
            <stop stop-color="#1a407a" offset=".594"/>
            <stop stop-color="#1a4079" offset=".598"/>
            <stop stop-color="#1a3f78" offset=".602"/>
            <stop stop-color="#1a3f78" offset=".605"/>
            <stop stop-color="#1a3e77" offset=".609"/>
            <stop stop-color="#1a3e76" offset=".613"/>
            <stop stop-color="#193d75" offset=".617"/>
            <stop stop-color="#193d75" offset=".621"/>
            <stop stop-color="#193c74" offset=".625"/>
            <stop stop-color="#193c74" offset=".629"/>
            <stop stop-color="#193b73" offset=".633"/>
            <stop stop-color="#193b73" offset=".637"/>
            <stop stop-color="#193a72" offset=".641"/>
            <stop stop-color="#193a71" offset=".645"/>
            <stop stop-color="#193971" offset=".648"/>
            <stop stop-color="#193970" offset=".652"/>
            <stop stop-color="#18386f" offset=".656"/>
            <stop stop-color="#18386f" offset=".66"/>
            <stop stop-color="#18386e" offset=".664"/>
            <stop stop-color="#18376d" offset=".668"/>
            <stop stop-color="#18376d" offset=".672"/>
            <stop stop-color="#18366c" offset=".676"/>
            <stop stop-color="#18366c" offset=".68"/>
            <stop stop-color="#18356b" offset=".684"/>
            <stop stop-color="#18356a" offset=".688"/>
            <stop stop-color="#17346a" offset=".691"/>
            <stop stop-color="#173469" offset=".695"/>
            <stop stop-color="#173368" offset=".699"/>
            <stop stop-color="#173368" offset=".703"/>
            <stop stop-color="#173367" offset=".707"/>
            <stop stop-color="#173267" offset=".711"/>
            <stop stop-color="#173266" offset=".715"/>
            <stop stop-color="#173165" offset=".719"/>
            <stop stop-color="#173165" offset=".723"/>
            <stop stop-color="#163064" offset=".727"/>
            <stop stop-color="#163063" offset=".73"/>
            <stop stop-color="#162f63" offset=".734"/>
            <stop stop-color="#162f62" offset=".738"/>
            <stop stop-color="#162f62" offset=".742"/>
            <stop stop-color="#162e61" offset=".746"/>
            <stop stop-color="#162e61" offset=".75"/>
            <stop stop-color="#162e60" offset=".754"/>
            <stop stop-color="#162d5f" offset=".758"/>
            <stop stop-color="#162d5f" offset=".762"/>
            <stop stop-color="#152c5e" offset=".766"/>
            <stop stop-color="#152c5d" offset=".77"/>
            <stop stop-color="#152b5d" offset=".773"/>
            <stop stop-color="#152b5c" offset=".777"/>
            <stop stop-color="#152b5c" offset=".781"/>
            <stop stop-color="#152a5b" offset=".785"/>
            <stop stop-color="#152a5a" offset=".789"/>
            <stop stop-color="#152959" offset=".793"/>
            <stop stop-color="#152959" offset=".797"/>
            <stop stop-color="#142958" offset=".801"/>
            <stop stop-color="#142858" offset=".805"/>
            <stop stop-color="#142857" offset=".809"/>
            <stop stop-color="#142857" offset=".813"/>
            <stop stop-color="#142756" offset=".816"/>
            <stop stop-color="#142756" offset=".82"/>
            <stop stop-color="#142655" offset=".824"/>
            <stop stop-color="#142654" offset=".828"/>
            <stop stop-color="#132654" offset=".832"/>
            <stop stop-color="#132553" offset=".836"/>
            <stop stop-color="#132553" offset=".84"/>
            <stop stop-color="#132452" offset=".844"/>
            <stop stop-color="#132451" offset=".848"/>
            <stop stop-color="#132451" offset=".852"/>
            <stop stop-color="#132350" offset=".855"/>
            <stop stop-color="#13234f" offset=".859"/>
            <stop stop-color="#13234f" offset=".863"/>
            <stop stop-color="#12224e" offset=".867"/>
            <stop stop-color="#12224e" offset=".871"/>
            <stop stop-color="#12224d" offset=".875"/>
            <stop stop-color="#12214d" offset=".879"/>
            <stop stop-color="#12214c" offset=".883"/>
            <stop stop-color="#12204c" offset=".887"/>
            <stop stop-color="#12204b" offset=".891"/>
            <stop stop-color="#12204a" offset=".895"/>
            <stop stop-color="#121f4a" offset=".898"/>
            <stop stop-color="#121f49" offset=".902"/>
            <stop stop-color="#111f49" offset=".906"/>
            <stop stop-color="#111e48" offset=".91"/>
            <stop stop-color="#111e48" offset=".914"/>
            <stop stop-color="#111e47" offset=".918"/>
            <stop stop-color="#111d47" offset=".922"/>
            <stop stop-color="#111d46" offset=".926"/>
            <stop stop-color="#111d46" offset=".93"/>
            <stop stop-color="#111d46" offset=".938"/>
            <stop stop-color="#111d46" offset="1"/>
        </linearGradient>
        <linearGradient id="c" x1="-.074" x2="1.082" gradientTransform="rotate(55 -41.609 142.538) scale(113.014)" gradientUnits="userSpaceOnUse" xlink:href="#a"/>
        <linearGradient id="b" x1="-.074" x2="1.082" gradientTransform="rotate(55 -41.609 142.538) scale(113.014)" gradientUnits="userSpaceOnUse" xlink:href="#a"/>
    </defs>
    <g fill="url(#b)" transform="translate(-50.69 -118.7)">
        <path d="M66.016 166.99a3.284 3.284 0 0 1-3.17-2.43c-.053-.201-.946-3.563-.948-8.6 0-1.203.055-2.509.183-3.89a42.015 42.015 0 0 1-3.155-1.612c-4.55-2.58-7.126-5.145-7.275-5.291a3.269 3.269 0 0 1-.961-2.325 3.28 3.28 0 0 1 3.283-3.282 3.28 3.28 0 0 1 2.324.966l.053.05c.051.051.142.131.26.238.244.22.618.55 1.124.95a33.748 33.748 0 0 0 4.428 2.98c.361.204.74.41 1.13.611a37.255 37.255 0 0 1 3.69-8.906c1.245-2.152 3.366-4.957 4.405-6.098 0 0 .027-.003.075-.003.327 0 1.682.112 2.987 1.463.997 1.037 1.17 2.36 1.172 3.121.001.373-.037.613-.042.62-.004.006-.427.51-.997 1.27a29.588 29.588 0 0 0-1.912 2.912c-3.361 5.818-4.204 11.769-4.204 16.227-.002 3.986.68 6.73.724 6.893a3.28 3.28 0 0 1-2.319 4.022c-.288.08-.573.114-.855.114"/>
        <path d="M90.11 166.98a3.282 3.282 0 0 1-3.178-4.135l.018-.07c.017-.074.046-.188.08-.349.065-.319.164-.809.257-1.445.182-1.19.362-2.886.367-4.916l-.001-.41a33.735 33.735 0 0 0-.035-1.282 37.146 37.146 0 0 1-9.557 1.256c-2.488 0-5.975-.435-7.484-.766-.007-.003-.467-.71-.474-1.904a5.17 5.17 0 0 1 .21-1.478c.59-2.058 2.648-2.847 2.675-2.847.025 0 .669.116 1.597.226 1.12.136 2.28.201 3.476.201 6.72 0 12.297-2.245 16.154-4.474 3.452-1.991 5.488-3.95 5.61-4.072v.003a3.266 3.266 0 0 1 2.32-.965c.84 0 1.68.32 2.322.962a3.243 3.243 0 0 1 .965 2.335 3.287 3.287 0 0 1-.96 2.309c-.146.143-2.61 2.596-6.973 5.121a42.466 42.466 0 0 1-3.46 1.783c.117 1.248.172 2.437.183 3.542v.365c-.001 5.03-.894 8.38-.945 8.581a3.285 3.285 0 0 1-3.167 2.43M206.97 156.68c-.834 0-1.577-.362-2.043-.995l-6.638-9.01-6.638 9.01c-.448.614-1.231.995-2.041.995-1.342 0-2.474-1.043-2.474-2.276 0-.45.148-.894.434-1.28l7.786-10.373-7.661-10.178a2.174 2.174 0 0 1-.437-1.286c0-1.235 1.135-2.277 2.476-2.277.834 0 1.579.365 2.045.997l6.51 8.82 6.514-8.82c.45-.614 1.231-.997 2.043-.997 1.295 0 2.435 1.064 2.435 2.277 0 .452-.153.893-.439 1.283l-7.66 10.182 7.825 10.369c.289.39.437.834.437 1.283 0 1.233-1.133 2.276-2.474 2.276"/>
    </g>
    <path d="M128.2 129.01c-1.116 0-2.175.671-2.58 1.633l-9.093 23.008a2.07 2.07 0 0 0-.146.752c0 1.234 1.115 2.277 2.436 2.277 1.055 0 1.948-.563 2.33-1.482l2.194-5.489h9.718l2.152 5.496c.373.883 1.306 1.475 2.33 1.475 1.362 0 2.474-1.021 2.474-2.277 0-.195-.037-.515-.146-.758l-9.088-22.959c-.373-.97-1.458-1.676-2.58-1.676zm0 8.415l3.112 7.845h-6.224z" fill="url(#c)" transform="translate(-50.69 -118.7)"/>
    <g fill="url(#b)" transform="translate(-50.69 -118.7)">
        <path d="M180.74 156.3h-12.275c-1.634 0-3.014-1.247-3.014-2.724v-21.468c0-1.477 1.38-2.726 3.014-2.726h11.982c1.392 0 2.48 1.001 2.48 2.277 0 1.213-1.088 2.165-2.48 2.165h-9.959v6.31h9.423c1.392 0 2.48.983 2.48 2.238 0 1.238-1.088 2.205-2.48 2.205h-9.423v7.285h10.252c1.365 0 2.475.986 2.475 2.2 0 1.234-1.11 2.238-2.475 2.238M159.37 156.3h-12.316c-1.634 0-3.013-1.264-3.013-2.764v-22.213c0-1.255 1.152-2.316 2.516-2.316 1.366 0 2.52 1.076 2.52 2.353v20.502h10.252c1.39 0 2.477.966 2.477 2.2 0 1.276-1.048 2.238-2.436 2.238M88.475 145.34c-1.627 0-2.845-.987-2.857-1.007a32.25 32.25 0 0 0-.605-1.497 28.726 28.726 0 0 0-1.563-3.11c-3.357-5.823-8.089-9.526-11.95-11.755-3.453-1.994-6.167-2.777-6.33-2.822a3.284 3.284 0 1 1 1.696-6.345c.198.053 3.556.96 7.919 3.476a41.409 41.409 0 0 1 3.277 2.109 40.468 40.468 0 0 1 2.977-1.93c4.507-2.653 8.016-3.598 8.221-3.655a3.282 3.282 0 0 1 4.129 3.147 3.286 3.286 0 0 1-2.437 3.198c-.01.004-.035.01-.071.02-.069.022-.184.056-.336.11-.312.096-.787.259-1.383.496a33.538 33.538 0 0 0-4.794 2.346c-.358.208-.722.434-1.095.671a37.38 37.38 0 0 1 5.867 7.647c1.242 2.156 2.61 5.394 3.08 6.866.004.01-.713 1.401-2.797 1.919a3.885 3.885 0 0 1-.948.116"/>
    </g>
</svg>
