<svg width="600" height="182.5" version="1.1" viewBox="0 0 158.75 48.2875" xmlns="http://www.w3.org/2000/svg" xmlns:xlink="http://www.w3.org/1999/xlink">
 <g transform="translate(-50.69 -118.7)" fill="#fff">
  <path d="m66.016 166.99c-1.4496 0-2.7773-0.96679-3.1695-2.4308-0.0531-0.20036-0.94627-3.5618-0.94868-8.5985 0-1.2034 0.05552-2.5093 0.18346-3.8901-1.137-0.52504-2.1967-1.067-3.155-1.6125-4.5503-2.5805-7.126-5.1453-7.2757-5.2914-0.64211-0.64332-0.96317-1.4846-0.96075-2.3246 0.0012-0.84125 0.32226-1.6813 0.96317-2.3222 0.64332-0.63969 1.4822-0.95955 2.3198-0.95955 0.84126 0 1.6825 0.32347 2.3246 0.96559l0.0531 0.0495c0.05069 0.0519 0.14122 0.13156 0.2595 0.23898 0.24381 0.21967 0.61797 0.55039 1.1237 0.94869 1.003 0.80384 2.5057 1.8913 4.4284 2.98 0.36089 0.20518 0.73988 0.41037 1.1297 0.61194 0.78091-2.8786 1.9517-5.8961 3.6897-8.9063 1.2456-2.152 3.3663-4.957 4.4055-6.0976 0 0 0.02654-3e-3 0.07483-3e-3 0.32709 0 1.6825 0.11225 2.9873 1.4629 0.99696 1.0368 1.1696 2.3596 1.172 3.1212 0.0012 0.37295-0.03742 0.61314-0.04225 0.61918-0.0036 7e-3 -0.42727 0.51055-0.99696 1.2709-0.6747 0.90524-1.3144 1.8744-1.9119 2.9112-3.3614 5.8188-4.2039 11.769-4.2039 16.227-0.0024 3.9866 0.67953 6.7301 0.72419 6.893 0.07242 0.27277 0.10863 0.54916 0.11225 0.81953 0.0157 1.4629-0.9523 2.805-2.4308 3.2021-0.28847 0.0809-0.57331 0.11466-0.85575 0.11466"/>
  <path d="m90.11 166.98c-0.28364 0-0.57211-0.0362-0.85937-0.11346-1.4773-0.3971-2.4465-1.7392-2.4309-3.2021 0.0024-0.27036 0.03983-0.54675 0.11225-0.81953 0.0036-0.0133 0.0084-0.035 0.01811-0.07 0.0169-0.0736 0.04586-0.18829 0.07966-0.34882 0.06517-0.31864 0.16415-0.80867 0.25709-1.4447 0.18225-1.1901 0.36209-2.8859 0.36692-4.916 0-0.13518 0-0.27037-0.0012-0.41038-0.0036-0.41278-0.01449-0.84488-0.035-1.2818-2.8823 0.76523-6.0807 1.2553-9.5568 1.2553-2.4876 0-5.9745-0.43451-7.4833-0.76522-0.0072-3e-3 -0.4671-0.70971-0.47434-1.9046-0.0036-0.4321 0.0519-0.92817 0.21002-1.4773 0.59021-2.0579 2.6481-2.8472 2.6747-2.8472 0.02534 0 0.66867 0.11586 1.5968 0.22569 1.1201 0.1364 2.2812 0.20157 3.4761 0.20157 6.7204 0 12.297-2.245 16.154-4.4743 3.452-1.9915 5.4881-3.9504 5.6112-4.0723v3e-3c0.6397-0.64211 1.4798-0.96437 2.3198-0.96437 0.83885 0 1.6801 0.31985 2.321 0.96196 0.21122 0.2076 0.38503 0.43693 0.52746 0.68073 0.29449 0.50935 0.43933 1.0827 0.43812 1.6536-5e-3 0.83644-0.32346 1.6704-0.95954 2.309-0.14725 0.14362-2.6107 2.5962-6.9739 5.1212-1.0428 0.60109-2.2027 1.2046-3.4604 1.7827 0.11708 1.248 0.1726 2.4369 0.18346 3.5425 0 0.12191 0.0012 0.24261 0 0.36451-0.0012 5.0295-0.89437 8.3812-0.94506 8.5816-0.39589 1.4653-1.7212 2.4296-3.1671 2.4296"/>
  <path d="m206.97 156.68c-0.83402 0-1.5775-0.36209-2.0434-0.99454l-6.6372-9.0101-6.6384 9.0101c-0.44779 0.61314-1.2311 0.99454-2.041 0.99454-1.3422 0-2.4743-1.0428-2.4743-2.2764 0-0.44899 0.14844-0.89316 0.43451-1.2794l7.7862-10.373-7.6619-10.178c-0.28484-0.38865-0.43692-0.83402-0.43692-1.2866 0-1.2347 1.1358-2.2764 2.4767-2.2764 0.83402 0 1.5787 0.36451 2.0446 0.99696l6.5104 8.8194 6.5141-8.8194c0.44899-0.61436 1.2311-0.99696 2.0422-0.99696 1.2951 0 2.4357 1.0633 2.4357 2.2764 0 0.45262-0.15328 0.89317-0.43934 1.283l-7.6607 10.182 7.826 10.369c0.28847 0.38985 0.43693 0.83402 0.43693 1.283 0 1.2335-1.1334 2.2764-2.4743 2.2764"/>
  <path d="m128.2 129.01c-1.1164 0-2.175 0.67132-2.5805 1.6333l-9.0924 23.008c-0.10139 0.27398-0.14581 0.50113-0.14581 0.75218 0 1.2335 1.1152 2.2764 2.4357 2.2764 1.0549 0 1.9481-0.56245 2.3295-1.4822l2.1943-5.4884h9.7186l2.1518 5.4956c0.37296 0.88351 1.306 1.4749 2.3295 1.4749 1.3627 0 2.4743-1.0211 2.4743-2.2764 0-0.19553-0.0372-0.51538-0.14581-0.75798l-9.0885-22.959c-0.37295-0.97042-1.458-1.6767-2.5805-1.6767zm0 8.415 3.1116 7.8454h-6.2232z"/>
  <path d="m180.74 156.3h-12.275c-1.6342 0-3.0138-1.2468-3.0138-2.7242v-21.468c0-1.4773 1.3796-2.7254 3.0138-2.7254h11.982c1.3916 0 2.4791 1.0006 2.4791 2.2764 0 1.213-1.0875 2.1653-2.4791 2.1653h-9.9588v6.3101h9.4229c1.3916 0 2.4791 0.98248 2.4791 2.2377 0 1.2384-1.0875 2.2051-2.4791 2.2051h-9.4229v7.2853h10.252c1.3651 0 2.4743 0.9861 2.4743 2.2003 0 1.2335-1.1092 2.2377-2.4743 2.2377"/>
  <path d="m159.37 156.3h-12.316c-1.6342 0-3.0126-1.2637-3.0126-2.764v-22.213c0-1.2552 1.1514-2.3162 2.5153-2.3162 1.3663 0 2.5202 1.0766 2.5202 2.3536v20.502h10.252c1.3892 0 2.4767 0.96558 2.4767 2.2003 0 1.2758-1.0476 2.2377-2.4357 2.2377"/>
  <path d="m88.475 145.34c-1.627 0-2.8448-0.9873-2.8569-1.0066-0.0024-7e-3 -0.22932-0.62521-0.6047-1.4978-0.44055-1.0368-0.96558-2.0748-1.563-3.1104-3.3578-5.8224-8.0892-9.5255-11.951-11.754-3.452-1.9939-6.1664-2.7773-6.3294-2.8219-1.4785-0.39347-2.449-1.7368-2.4369-3.1985 0.0012-0.27037 0.03742-0.54677 0.10984-0.81954 0.07724-0.28605 0.1895-0.55279 0.33071-0.7966 0.58418-1.0114 1.6729-1.6415 2.8424-1.6415 0.28123 0 0.56607 0.0362 0.84971 0.11104 0.19794 0.0531 3.5558 0.95955 7.919 3.4761 1.0428 0.6047 2.1484 1.3035 3.2769 2.1086 1.0235-0.7278 2.0241-1.3711 2.9776-1.93 4.5069-2.6529 8.0155-3.598 8.2207-3.6547 0.28364-0.0748 0.56848-0.11104 0.8485-0.11104 1.452 0 2.7785 0.96919 3.1695 2.4381 0.07363 0.27277 0.10984 0.54676 0.11104 0.81954 0.01328 1.4616-0.95955 2.8026-2.4369 3.1985-0.01087 4e-3 -0.035 0.01-0.07121 0.0206-0.0688 0.0206-0.18346 0.0555-0.33554 0.10862-0.31261 0.0966-0.78695 0.2595-1.3832 0.49607-1.1973 0.46589-2.8895 1.2239-4.7941 2.3464-0.35847 0.2076-0.72177 0.43451-1.0947 0.67109 2.1026 2.117 4.1291 4.6408 5.8671 7.6474 1.242 2.1557 2.6095 5.394 3.0802 6.8653 0.0036 0.0108-0.71332 1.4013-2.7978 1.9191-0.3283 0.0821-0.64452 0.11587-0.94748 0.11587"/>
 </g>
</svg>
