<svg Googl="true" version="1.1" viewBox="0 0 800 135.23" xml:space="preserve" xmlns="http://www.w3.org/2000/svg">
<g transform="matrix(.54311 0 0 .54311 0 1.7379)">
	<path class="st0" d="m1316.1 245.8c-1.3-4.8-2.4-9.6-4-14.3-8-23.4-16.2-46.8-24.3-70.2-5.9-16.9-11.8-33.7-17.8-50.6-6.4-18.2-12.7-36.5-19.2-54.6-6.5-18.2-13.3-36.2-20-54.4-1.2-3.2 0.7-3.6 3.3-3.6 11.2 0.1 22.3 0 33.5 0 11 0 22 0.1 33 0 3.5 0 5.4 0.5 6.6 4.7 5.8 19.7 12.4 39.2 18.5 58.9 5.1 16.3 10.1 32.5 14.9 48.9 3.9 13.2 7.6 26.6 11.6 40.4 4.9-14.9 9.9-29.1 14.4-43.5 6.1-19.5 11.7-39.1 17.8-58.6 3.8-12.3 8.2-24.4 12.2-36.6 1.1-3.2 2.2-6.5 2.6-9.8 0.4-4 2.7-4.3 5.8-4.3 20.8 0.1 41.7 0 62.5 0 1.8 0 3.6-0.2 5.5-0.3v4c-3.6 9.8-7.4 19.5-10.9 29.3-5.4 15.3-10.3 30.7-15.7 46-6.9 19.6-14.2 39-21.1 58.5-7.2 20.4-14.2 41-21.3 61.4-5.6 16.2-11.3 32.5-17 48.7z" fill="#b11016"/><g fill="#fff">
	<path class="st0" d="m705.1 245.8c6.4-18.5 12.7-37.1 19.1-55.6 7-20.4 14-40.7 21.2-61 7-19.7 14.3-39.3 21.2-59 5.3-15 10.4-30.1 15.5-45.2 2.8-8.1 5.3-16.2 8.3-24.2 0.5-1.2 2.7-2.5 4.2-2.6 22.3-0.2 44.6-0.1 67.1-0.1 5.8 16.5 11.5 32.9 17.2 49.2 4.7 13.5 9.5 27 14.2 40.5 4.4 12.8 8.6 25.6 13.1 38.3 6.9 19.4 14 38.7 20.9 58.2 5.5 15.6 10.7 31.3 16 47 1.6 4.8 3.3 9.6 4.9 14.4h-76c-2.5-9.1-4.8-18.3-7.6-27.3-3.2-10.5-6.9-20.8-10-31.2-4.8-16-9-32.2-13.9-48.2-4.5-14.7-9.4-29.2-14.4-44.5-0.8 1.5-1.5 2.6-1.8 3.7l-8.7 29.1c-4.8 15.7-9.6 31.3-14.6 46.9-5.1 16.2-10.4 32.4-15.6 48.6-2.5 7.7-4.9 15.3-7.4 23z"/>
	<path class="st0" d="m0.1 242.8c2.7-6.6 5.6-13.1 8-19.7 5.9-16.5 11.7-33 17.4-49.6 8-23.1 15.7-46.3 23.7-69.4 6.8-19.4 14-38.7 20.9-58.2 5.6-15.8 10.9-31.6 16.5-47.8h65.7c2.5 0 4.7-0.1 5.8 3.2 5.9 17.5 12.1 34.9 18.1 52.4 8 23.3 16 46.6 24.1 69.8 5.9 17 12 34 17.9 51 6.3 17.9 12.5 35.8 18.9 53.7 2.1 5.9 4.6 11.7 6.9 17.6h-76c-0.8-2.8-1.7-5.5-2.5-8.3-4.7-14.9-9.6-29.7-14.1-44.6-5.4-17.7-10.4-35.5-15.7-53.2-3.8-12.6-7.7-25.2-11.6-37.8-0.8-2.4-1.9-4.8-2.9-7.1-1.1 1.7-0.9 3.1-1.3 4.3-5.1 16.2-10.3 32.5-15.6 48.7-4.3 13.5-8.7 26.9-13.1 40.4-3.7 11.5-7.4 22.9-10.8 34.5-2.3 7.7-4.3 15.4-6.4 23.1h-74c0.1-1 0.1-2 0.1-3z"/>
	<path class="st0" d="m515.1 245.8v-245.8h174.2v71.4h-103.2v174.4z"/>
	<path class="st0" d="m286.1 245.8c0-18.5 0.1-37 0.1-55.5v-190.3h70.7v174.8h97.2v71z"/>
	</g><path class="st0" d="m1184.1-3.2c3.5 0.9 7.1 1.6 10.5 2.8 13.5 5.1 21.8 14.7 25.1 28.9 4.6 19.4-4.9 35.5-19.7 43.9-10.9 6.2-23 6.7-34.9 1.4-11.3-5-18.6-13.2-22.5-25-6.5-19.8 5-43.5 25.1-49.2 3.1-0.9 6.2-1.8 9.3-2.7 2.4-0.1 4.8-0.1 7.1-0.1z" fill="#b11016"/>
	<path class="st0" d="m1121.2 244.3h-69.1v-175.3h-72v-70.5h141c0.1 81.8 0.1 163.5 0.1 245.8z" fill="#b11016"/>
	<path class="st0" d="m641.5 94.8c22.4-1.6 40.6 17.7 39.9 40.6-0.6 20.2-16.5 40-42.7 38.4-23-1.5-37.5-19.6-37.3-39.7 0.2-20.6 15.3-40.5 40.1-39.3z" fill="#fff"/>
</g>
</svg>
