<svg xmlns="http://www.w3.org/2000/svg" height="884.02" width="600" viewBox="0 0 158.75 233.896">
    <path d="M80.429 1.318c-2.82 2.009-5.17 6.56-5.15 13.506.02 4.27 1.19 9.39 4.44 15.11-4.35 6.03-5.15 11.58-3.31 16.9 1.4 4.03 2.13 5.08 2.76 7.5 1.6 6.15-.17 13.53-4.95 24.89-3.87 9.27-8.9 18.97-8.9 30.79.02 2.7.25 5.33.63 7.92.45-.44 1.4-1.35 2.57-2.44-.57-9.26 3.06-18.56 7.51-26.92 6.49-12.2 7.3-24.62 6.04-31.42 4.56 4.94 12.23 12.32 16.72 19.9 1.52 2.55 2.42 4.97 2.65 7.42.21 5.99-1.64 10.28-5.26 14.49-3.07 3.56-2.01 6.69-1.88 7.3.23 1.02 1.48 4.89 2.36 7.42 3.4-6.75 12.77-10.55 17.02-16.16.98 6.91-4.15 13.48-7.95 17.89-.9.99-1.89 2.01-3.01 3.1-7.2 6.98-11.92 11.78-14.43 16.23-.64.99-1.68 3.2-2.2 4.91-.73 2.13-1.66 5.75-2.45 12.14-.59 3.75-1.26 8.25-1.48 10.25-.5 4.56-1.85 11.79-7.36 13.86-.3.12-.6.19-.91.26v.02c-5.25 1.17-10.64-3.3-14.55-11.33-.81.61-1.69 1.17-2.65 1.6 5.3 12.71 13.29 18.55 20.28 18.55 5.29 0 9.48-2.7 10.82-10.6.69-3.98 1.18-8.39 1.62-12.67.21-2.06 1.21-13.7 3.06-17.93 2.27-4.73 7.27-9.31 14.71-17.07 4.6-4.84 7.1-8.85 8.41-12.09 4.33-8.04-1.04-27.17-2.08-30.6-.03-.13-.05-.16-.11-.16-.11 0-.14.03-.22.17-.01.03-.02.06-.04.08-1.92 3.17-5.34 6.06-8.52 8.41 1.79-4.98 1.31-8.76.6-11.95v-.02c-.04-.18-.1-.37-.14-.55l-.01.02c-3.22-12.69-16.02-23.99-21.79-30.5-7.5-8.44-4.94-13.87-2.18-17.33.52.78 1.06 1.59 1.66 2.42 10.2 14.03 29.42 36.29 39.49 57.48 2.55 5.36 4.51 10.63 5.59 15.64 3.96 21.96-11.14 44.29-33.81 38.01h-.01c-.15-.04-.3-.08-.43-.12-.62 1.94-1.2 5.06-1.77 9.31 3.44 1.47 7.16 2.37 10.77 2.53.27.01.53.02.8.02 18.62.21 33.2-13.93 30.51-43.59 0 0-1.12-12.34-7.41-25.34-10.08-22.83-28.71-45.42-40.15-60.01-3.63-4.65-5.76-8.65-6.83-12.12-2.15-6.74-.79-11.966 1.97-14.258.58-.502 1.32-1.067 1.99-1.412.41-.22.26-.701-.04-.753-.06 0-.15-.021-.25-.021-.4 0-1.18.177-2.75 1.318m-13.78 39.726c-3.04.09-5.42 2.68-5.34 5.76.1 3.1 2.63 5.54 5.66 5.45 1.67-.05 3.1-.86 4.08-2.03l.12-.14c.65 4.46-1.44 8.02-6.34 12.14-5 4.28-16.7 9.87-25.019 16.55-11.719 9.41-14.482 19.65-15.193 27.95-.304 3.7.23 8.56 1.224 12.59 1.245 5.05 3.045 8.93 3.045 8.93s.094.16.241.44c-.304 5.49.24 15.07 3.285 22.31 4.091 9.34 11.447 16.98 21.997 14.73 10.65-2.54 11.84-20.13 13.06-32.97.31-2.1.63-2.46 1.26-3.01 1.72-1.47 5.86-5.43 7.84-7.2 1.22-1.09 2.29-2.18 2.98-3.59.88-1.69.42-3.95.42-3.95l-1.2-8.47c-.3 1.21-1.74 2.89-3.78 4.97-2.12 2.18-7.78 7.1-8.29 7.64-.51.52-2.34 1.89-3.14 8.34-2.04 17.57-5.44 25.86-11.56 28.66-1.61.76-3.42 1.13-5.43 1.18-11.206-.11-14.157-13.98-14.105-21.57.011-.45.021-.91.042-1.33 2.606 3.57 6.446 7.09 11.196 6.36 7.567-1.17 5.197-14.14 4.097-17.14-1.06-3.02-3.992-12.04-10.344-11.6-4.488.31-6.581 5.66-7.533 10.19-.869-3.58-1.329-7.78-1.047-11.05.66-7.85 3.307-17.64 14.544-27.29 8-6.86 17.08-11.76 22.12-15.81 3.21-2.56 5.21-5.44 6.33-8.14-.31 2.62-.95 5.45-2.19 8.76-4.65 12.45-18.79 33-18.98 62.05 0 8.92.83 16.64 2.22 23.23.78-.52 1.49-1.22 2.18-2.06-.99-4.72-1.56-9.95-1.56-15.51 0-28.99 14.04-49.52 18.61-61.94 2.4-6.54 2.46-11.31 2.46-16.02 0-5.77-1.26-11.8-2.45-14.15-1.28-2.25-2.86-3.26-5.25-3.26zm-33.264 88.19c.869-2.78 2.428-5.29 5.159-6.86 4.467-2.12 6.215 3.31 6.215 3.31-.314 3.67-3.055 5.61-6.121 5.61-1.789 0-3.704-.68-5.253-2.06m26.134-78.59c-3.03.09-5.43 2.67-5.32 5.77.07 3.08 2.61 5.5 5.65 5.41 3.04-.08 5.43-2.68 5.33-5.75-.09-3.03-2.53-5.43-5.48-5.43zm32.87 32.95c-.53.57-3.05 3.38-5.47 6.08-2.17 2.39-4.23 4.68-4.68 5.19-1.04 1.17-1.58 2.32-1.44 2.94l.62 3.13c.17-.58.83-1.65 1.56-2.47.52-.58 3.04-3.39 5.46-6.06 2.16-2.41 4.22-4.69 4.68-5.22 1.05-1.14 1.58-2.31 1.45-2.91l-.64-3.16c-.16.59-.81 1.65-1.54 2.48m-43.54 4.67s-4.425 3.2-6.204 7.41c-1.088 2.59-1.015 5.38-.397 6.73.627 1.35 2.103 2.64 4.018 1.09 1.343-1.09 1.923-2.61 2.213-3.91.18-.77.25-1.26.25-1.64 0-.47-.16-.88-.6-.76-1.28.43-.52 2.18-1.43 3.02-.695.43-2.495.19-2.851-1.61-.355-1.8 1.015-4.12 2.25-5.66 1.241-1.55 3.431-3.56 3.431-3.56s1.56-1.3 1.03-1.95c-.02-.04-.09-.06-.15-.06-.45 0-1.56.9-1.56.9m34.21 33.72l7.09 3.4 3.91-8.47-7.07-3.4zm-13.45 9.08c2.99 7.11 7.53 13.29 12.76 17.83.54-3.73 1.13-6.35 1.68-8.23-5.33-3.87-9.13-8.05-11.58-12.24zm36.68 5.93l7.09 3.42 3.91-8.46-7.07-3.4zm-38.53 17.74l6.03 5.06 5.88-7.17-6.04-5.09zm-1.35 12.59l6.04 5.06 5.87-7.2-6.03-5.07zm28.4-5.32c-.28.13-.37.6-.19 1.24.19.63 1.24 3.36 1.24 3.36.75 2.05 2 4.43 3.69 5.65 1.81 1.29 2.74.84 3.1.7.27-.15 1.43-.86 1.02-2.74-.45-1.97-.69-2.51-1.05-3.23-.35-.72-.83-1.17-1.12-1.06-.16.03-.03.69-.03 1.1-.01.71-.26 1.26-.86 1.53-.52.23-1.82.7-2.81-1.1-.83-1.44-1.55-3.35-1.85-4.13-.24-.61-.62-1.35-1-1.35-.04 0-.07.02-.14.03" fill="#d5a10f"/>
    <path d="M82.899 211.764v-5.05h-13.66v4.34h7.02l-7.24 10.4v5.08h14.03v-4.38h-7.37zm48.13 2.4c-.29.36-.71.52-1.68.62h-1.95v-3.73h1.51c.12 0 .24.02.37.02.77.03 1.09.13 1.44.34.86.49 1.05 1.85.31 2.75m4.26 5.18c-.74-1.76-1.01-2.11-1.72-2.45.11-.02.24-.08.34-.14 2.21-1.02 3.28-3.57 2.44-6.41-.69-2.34-2.49-3.63-5.91-3.63h-8.03v19.82h5.09v-7.41h1.17c.83 0 1.32.35 1.75 1.41l.27.63.14.36 1.93 5.01h5.27l-2.47-6.5c-.09-.25-.16-.46-.27-.69m11.88-.96l1.87-6.29 1.87 6.29zm4.69-11.67h-5.62l-6.76 19.82h5.1l1.14-3.63h6.52l1.11 3.63h5.4zm-97.68 11.67l1.86-6.29 1.89 6.29zm-.93-11.67l-6.761 19.82h5.101l1.15-3.63h6.5l1.11 3.63h5.42l-6.9-19.82zm-45.58 11.67l1.873-6.29 1.884 6.29zm-.92-11.67L0 226.534h5.085l1.151-3.63h6.519l1.098 3.63h5.41l-6.885-19.82zm103.23 12.17h6.62v-4.23h-6.62v-3.6h7.7v-4.34h-12.77v19.82h13.45v-4.22h-8.38zm-17.55 0h6.65v-4.23h-6.65v-3.6h7.72v-4.34h-12.78v19.82h13.46v-4.22h-8.4zm-54.039 6.39c0 3.03-1.099 4.13-3.537 3.43a2.166 2.166 0 0 1-.408-.13l-1.203 4.3c.272.13.544.24.837.35 5.671 2.13 9.396-1.02 9.396-6.53v-19.98H38.39zm-4.531-3.17h-6.236v-15.39h-5.117v19.82h11.353z" fill="#00549c"/>
</svg>
