<svg enable-background="new 0 0 242.167 80" version="1.1" viewBox="0 0 789.69 300" xml:space="preserve" xmlns="http://www.w3.org/2000/svg">
<path transform="matrix(3.747 0 0 3.747 0 .24355)" d="m80 80h-30v-50h-50v-30h80z" fill="#7d1321"/>
<g transform="matrix(3.747 0 0 3.747 0 .24355)" fill="#fff">
	<path d="m85.59 12.905c0-2.66 0.812-4.704 2.436-6.132 1.54-1.344 3.668-2.016 6.384-2.016 2.715 0 4.865 0.687 6.447 2.058 1.582 1.372 2.373 3.402 2.373 6.09v9.576c0 2.661-0.792 4.683-2.373 6.069-1.582 1.386-3.731 2.079-6.447 2.079s-4.845-0.672-6.384-2.016c-1.624-1.399-2.436-3.444-2.436-6.132zm7.476 11.046c0 1.092 0.448 1.638 1.344 1.638s1.344-0.546 1.344-1.638v-13.02c0-1.092-0.448-1.638-1.344-1.638s-1.344 0.546-1.344 1.638z"/>
	<path d="m105.29 5.387h7.476v1.89c1.064-1.68 2.604-2.52 4.62-2.52 3.388 0 5.083 2.184 5.083 6.552v18.69h-7.476v-18.438c0-1.176-0.393-1.764-1.176-1.764-0.7 0-1.05 0.603-1.05 1.806v18.396h-7.476v-24.612z"/>
	<path d="m141.66 22.481c0 5.433-2.787 8.148-8.357 8.148-2.717 0-4.83-0.672-6.342-2.016-1.625-1.428-2.437-3.471-2.437-6.132v-9.576c0-2.631 0.784-4.647 2.353-6.048 1.567-1.4 3.682-2.1 6.342-2.1 2.576 0 4.626 0.721 6.152 2.163s2.289 3.438 2.289 5.985v5.166h-9.66v6.426c0 1.064 0.398 1.596 1.195 1.596 0.939 0 1.409-1.064 1.409-3.192 0-0.615-0.019-1.162-0.056-1.638l-0.112-1.302h7.224zm-7.224-11.466c0-1.148-0.435-1.722-1.302-1.722-0.756 0-1.135 0.532-1.135 1.596v3.15h2.437z"/>
	<path d="m155.69 29.999v-30.064h3.979v12.345h15.627v-12.345h3.979v30.064h-3.979v-14.171h-15.627v14.171z"/>
	<path d="m185.9 29.999v-30.064h10.355c2.338 0 4.123 0.144 5.354 0.431 1.723 0.396 3.191 1.114 4.409 2.153 1.586 1.34 2.772 3.052 3.558 5.137s1.18 4.467 1.18 7.146c0 2.283-0.268 4.307-0.801 6.07s-1.217 3.223-2.051 4.378-1.747 2.064-2.738 2.728c-0.99 0.664-2.188 1.166-3.588 1.507-1.402 0.341-3.012 0.513-4.83 0.513h-10.848zm3.978-3.548h6.418c1.982 0 3.539-0.185 4.666-0.554 1.129-0.369 2.027-0.889 2.697-1.559 0.943-0.943 1.678-2.211 2.205-3.804s0.79-3.524 0.79-5.793c0-3.145-0.516-5.561-1.548-7.25-1.031-1.689-2.287-2.82-3.764-3.394-1.065-0.41-2.781-0.615-5.146-0.615h-6.316v22.969z"/>
</g>
</svg>
