<svg enable-background="new 0 0 242.167 80" version="1.1" viewBox="0 0 529.71 299.76" xml:space="preserve" xmlns="http://www.w3.org/2000/svg">
 <path d="M 187.35,112.41 H 0 V 0 H 299.76 V 299.76 H 187.35 Z" fill="#7d1321" stroke-width="3.747"/>
 <g transform="matrix(3.747 0 0 3.747 0 .00355)" fill="#fff">
  <path d="m84.876 5.387h1.554v-3.78h7.728v3.78h1.974v4.032h-1.974v15.54c0 0.672 0.447 1.008 1.344 1.008h0.63v4.032h-4.116c-2.184 0-3.661-0.413-4.431-1.239-0.771-0.826-1.155-2.345-1.155-4.557v-14.784h-1.554z"/>
  <path d="m103.36 5.387 1.386 17.808 1.974-17.808h6.426l1.974 17.808 1.218-17.808h6.384l-2.853 24.612h-8.348l-1.479-13.346-1.891 13.346h-8.527l-3.194-24.612z"/>
  <path d="m123.73 12.905c0-2.66 0.812-4.704 2.436-6.132 1.54-1.344 3.668-2.016 6.384-2.016 2.715 0 4.865 0.687 6.447 2.058 1.582 1.372 2.373 3.402 2.373 6.09v9.576c0 2.661-0.792 4.683-2.373 6.069-1.582 1.386-3.731 2.079-6.447 2.079s-4.845-0.672-6.384-2.016c-1.624-1.399-2.436-3.444-2.436-6.132zm7.476 11.046c0 1.092 0.448 1.638 1.344 1.638s1.344-0.546 1.344-1.638v-13.02c0-1.092-0.448-1.638-1.344-1.638s-1.344 0.546-1.344 1.638z"/>
 </g>
</svg>
