<?xml version="1.0" encoding="utf-8"?>
<!-- Generator: Adobe Illustrator 16.0.0, SVG Export Plug-In . SVG Version: 6.00 Build 0)  -->
<!DOCTYPE svg PUBLIC "-//W3C//DTD SVG 1.1//EN" "http://www.w3.org/Graphics/SVG/1.1/DTD/svg11.dtd">
<svg version="1.1" id="Layer_1" xmlns="http://www.w3.org/2000/svg" xmlns:xlink="http://www.w3.org/1999/xlink" x="0px" y="0px"
	 width="242.167px" height="80px" viewBox="0 0 242.167 80" enable-background="new 0 0 242.167 80" xml:space="preserve">
<polygon fill="#7D1321" points="80,80 50,80 50,30 0,30 0,0 80,0 "/>
<g>
	<path d="M84.876,5.387h1.554v-3.78h7.728v3.78h1.974v4.032h-1.974v15.54c0,0.672,0.447,1.008,1.344,1.008h0.63v4.032h-4.116
		c-2.184,0-3.661-0.413-4.431-1.239c-0.771-0.826-1.155-2.345-1.155-4.557V9.419h-1.554V5.387z"/>
	<path d="M97.476,0.011h7.476v7.266c0.952-1.68,2.534-2.52,4.746-2.52c3.304,0,4.956,2.184,4.956,6.552v18.69h-7.476V11.561
		c0-1.176-0.393-1.764-1.176-1.764c-0.7,0-1.05,0.603-1.05,1.806v18.396h-7.476V0.011z"/>
	<path d="M116.922,5.387h7.224v3.15c0.98-2.156,2.548-3.416,4.704-3.78v8.946l-1.176-0.084c-2.184-0.168-3.276,0.91-3.276,3.234
		v13.146h-7.476V5.387z"/>
	<path d="M147.078,22.481c0,5.433-2.787,8.148-8.358,8.148c-2.716,0-4.83-0.672-6.342-2.016c-1.624-1.428-2.436-3.471-2.436-6.132
		v-9.576c0-2.631,0.784-4.647,2.352-6.048c1.568-1.4,3.682-2.1,6.342-2.1c2.576,0,4.626,0.721,6.153,2.163
		c1.526,1.442,2.289,3.438,2.289,5.985v5.166h-9.66v6.426c0,1.064,0.398,1.596,1.195,1.596c0.939,0,1.409-1.064,1.409-3.192
		c0-0.615-0.019-1.162-0.056-1.638l-0.112-1.302h7.224V22.481z M139.854,11.015c0-1.148-0.435-1.722-1.302-1.722
		c-0.756,0-1.134,0.532-1.134,1.596v3.15h2.436V11.015z"/>
	<path d="M165.725,22.481c0,5.433-2.787,8.148-8.358,8.148c-2.716,0-4.83-0.672-6.342-2.016c-1.624-1.428-2.436-3.471-2.436-6.132
		v-9.576c0-2.631,0.784-4.647,2.352-6.048c1.568-1.4,3.682-2.1,6.342-2.1c2.576,0,4.626,0.721,6.153,2.163
		c1.526,1.442,2.289,3.438,2.289,5.985v5.166h-9.66v6.426c0,1.064,0.398,1.596,1.195,1.596c0.939,0,1.409-1.064,1.409-3.192
		c0-0.615-0.019-1.162-0.056-1.638l-0.112-1.302h7.224V22.481z M158.501,11.015c0-1.148-0.435-1.722-1.302-1.722
		c-0.756,0-1.134,0.532-1.134,1.596v3.15h2.436V11.015z"/>
	<path d="M179.755,29.999V-0.065h3.979V12.28h15.627V-0.065h3.979v30.064h-3.979V15.828h-15.627v14.171H179.755z"/>
	<path d="M209.963,29.999V-0.065h10.356c2.338,0,4.122,0.144,5.353,0.431c1.723,0.396,3.192,1.114,4.409,2.153
		c1.586,1.34,2.772,3.052,3.558,5.137s1.179,4.467,1.179,7.147c0,2.283-0.267,4.307-0.8,6.07s-1.217,3.223-2.051,4.378
		s-1.747,2.064-2.738,2.728s-2.188,1.166-3.589,1.507s-3.011,0.513-4.83,0.513H209.963z M213.942,26.451h6.419
		c1.982,0,3.538-0.185,4.666-0.554s2.027-0.889,2.697-1.559c0.943-0.943,1.678-2.211,2.205-3.804s0.79-3.524,0.79-5.793
		c0-3.145-0.516-5.561-1.548-7.25s-2.287-2.82-3.763-3.394c-1.066-0.41-2.782-0.615-5.147-0.615h-6.316V26.451z"/>
</g>
</svg>
