<svg xmlns="http://www.w3.org/2000/svg" height="265.29" width="600" viewBox="0 0 158.75 70.19">
    <g fill="#fff">
        <path d="M137.483 0h-11.05c-2.29 0-4.14 1.81-4.23 4.08v47.08h-7.94V26.05c0-1.57.85-2.93 2.12-3.67.44-.28.21-.72 0-.72h-11.05c-2.29 0-4.14 1.81-4.23 4.08v29.84c0 6.53-4 11.64-12.07 13.33-.71.19-.82.5-.76.7.1.33.41.58 1.79.58h12.38c5.24 0 11.82-5.29 11.82-11.82V56.9h21.1V4.39c0-1.57.85-2.93 2.12-3.67.44-.28.21-.72 0-.72M158.493 0h-11.05c-2.28 0-4.14 1.81-4.22 4.08h-.01V56.9h13.16V4.39c0-1.57.86-2.93 2.12-3.67.45-.28.22-.72 0-.72"/>
        <path d="M93.303 56.9V26.05c0-1.57.85-2.93 2.12-3.67.44-.28.22-.72 0-.72h-11.05c-2.28 0-4.14 1.81-4.23 4.08v25.42h-11.79V4.08h-.01A4.226 4.226 0 0 0 64.123 0h-11.05c-.22 0-.45.44 0 .72 1.26.74 2.11 2.1 2.11 3.67V56.9h37.78zM66.413 70.19h-11.23v-7.48h11.23z"/>
    </g>
    <path d="M49.923 21.66H38.876a4.237 4.237 0 0 0-4.234 4.08v26.09c0 1.25-2.44 7.35-9.549 7.35-7.107 0-9.546-6.1-9.546-7.35V25.74a4.25 4.25 0 0 0-4.246-4.08H.255c-.217 0-.446.44 0 .73a4.213 4.213 0 0 1 2.115 3.66h.01v25.78c0 4.05 2.325 11.16 22.713 11.16 20.391 0 22.71-7.11 22.71-11.16V26.05c0-1.57.85-2.93 2.12-3.66.44-.29.22-.73 0-.73" fill="#a20b31"/>
    <path d="M30.706 34.94H19.483v-7.48h11.223zM81.543 70.19h-11.23v-7.48h11.23z" fill="#fff"/>
</svg>
