<svg version="1.1" viewBox="0 0 675.72 800" xmlns="http://www.w3.org/2000/svg">
 <g transform="matrix(8.1867 0 0 8.1867 -276.65 -214.93)" fill="#821a0e">
  <path d="m60.734 88.625c-0.039063-0.625-0.09375-1.1523-0.10938-1.6797-0.070312-2.1523-0.10938-4.3203-0.19531-6.4727-0.01172-0.20703-0.10938-0.45703-0.26172-0.61328-0.01563-0.01172-0.02734-0.02734-0.04297-0.03906-9.082-7.043-13.141-19.055-8.832-30 3.2617-8.2773 11.137-14.555 19.93-15.891 8.793-1.3203 18.18 2.3477 23.734 9.3047 6.25 7.8359 7.2774 19.32 2.5156 28.141-1.6406 3.043-3.8633 5.6094-6.5547 7.7773-0.33594 0.26562-0.43359 0.54297-0.40234 0.95703 0.08203 2.5 0.13672 5 0.20703 7.5 0 0.11328 0.04297 0.21094 0.07031 0.33594 6.8047-3.3359 13.957-11.086 16.289-21.348 2.0703-7.9453 0.84766-19.082-6.2226-27.863-4.4844-5.5664-10.152-9.1641-16.152-11-8.3047-2.6094-17.484-1.7344-25.18 2.3359-9.8594 5.2227-16.5 15.402-17.305 26.527-0.97266 13.18 6.4727 26.43 18.512 32.027zm27.043-25.305c0.05469-0.04297 0.09766-0.09766 0.14062-0.15234 0.73438-0.82031 1.4141-1.6836 1.9844-2.6133 0.47266-0.77734 0.90234-1.582 1.332-2.3867 0.08594-0.15234 0.15625-0.32031 0.18359-0.5 0.039062-0.30859-0.14062-0.55859-0.29297-0.79297-0.39062-0.59766-0.80469-1.1953-1.1953-1.793-0.33203-0.51172-0.65234-1.0273-0.98438-1.5547-0.11328-0.16797-0.23828-0.27734-0.44531-0.23438-0.10938 0.01172-0.22266 0.03906-0.32031 0.08203-0.23438 0.08203-0.47266 0.17969-0.69531 0.29297-0.5 0.23438-1.0117 0.45703-1.4023 0.88672-0.02734 0.04297-0.08203 0.07031-0.125 0.08594-0.33203 0.13672-0.66406 0.27734-1 0.42969-0.47266 0.20703-0.52734 0.32031-0.38672 0.72266 0.01172 0.05469 0.03906 0.09766 0.08203 0.13672 0.27734 0.40234 0.625 0.72266 1.125 0.76562 0.54297 0.03906 1.0703-0.04297 1.582-0.23828 0.05859-0.02734 0.11328-0.05469 0.16797-0.08203 0.01563 0.45703 0.26562 0.77734 0.51562 1.0977-0.02734 0.01172-0.05859 0.02734-0.08594 0.04297-0.65234 0.20703-1.2891 0.46875-1.8867 0.83203-0.82031 0.48437-1.3633 1.1953-1.5703 2.1094-0.15234 0.66797-0.23438 1.3633-0.34766 2.043-0.01172 0.04297-0.02734 0.08203-0.04297 0.125-0.03906-0.26562-0.06641-0.51562-0.05469-0.76562 0.02734-0.45703 0.05469-0.91406 0.125-1.3594 0.04297-0.30469 0.125-0.59766 0.27734-0.875 0.40234-0.70703 0.97266-1.2227 1.668-1.6094 0.42969-0.25 0.89062-0.47266 1.3203-0.69531-0.070308-0.14062-0.15234-0.29297-0.23828-0.44531-0.47266 0.25-0.95703 0.33203-1.4844 0.25-0.17969-0.02734-0.375-0.02734-0.55469-0.01563-0.125 0-0.18359 0.07031-0.18359 0.21094 0.015625 0.19532 0.015625 0.375 0.015625 0.57032 0 0.45703-0.23438 0.78906-0.59766 1.0391-0.33203 0.23828-0.72266 0.30469-1.1367 0.25 0 0.05469 0 0.08594 0.01172 0.125 0.05469 0.19531-0.01172 0.375-0.13672 0.51562-0.23828 0.27734-0.55859 0.44531-0.90625 0.55469-0.28906 0.08203-0.56641 0.04297-0.81641-0.14062-0.097658-0.066406-0.16797-0.16406-0.26563-0.23438-0.51172-0.47266-1.043-0.92969-1.5547-1.4023-0.15234-0.125-0.29297-0.26562-0.42969-0.40234 0 0.08203 0.01172 0.16406 0.03906 0.23438 0.07031 0.22266 0.125 0.46094 0.19531 0.67969 0.02734 0.11328 0.05469 0.23828 0.11328 0.32031 0.05469 0.08594 0.17969 0.125 0.25 0.17969-0.05859 0-0.05859 0.05859-0.04297 0.14062 0.08203 0.42969 0.15234 0.85938 0.25 1.293 0.09766 0.38672 0.23438 0.77734 0.45703 1.1094 0.25 0.34766 0.54297 0.66797 0.73828 1.0547 0.23438 0.47266 0.42969 0.93359 0.42969 1.4883 0 4.2773-0.16797 8.6797 0.02734 12.945 0 0.03906-0.02734 2.7344-0.07031 5.9688-0.02734 2.5703-0.07031 5.4727-0.10938 7.668 2.6367-0.52734 5.2891-1.3867 7.8594-2.6367-0.097657-2.8203-0.23438-6.0703-0.34766-8.3906-0.082031-1.793-0.13672-3.0273-0.13672-3.0703-0.29297-4.4297-0.42969-8.9297-1.1797-13.305-0.04297-0.19531-0.04297-0.40234 0.13672-0.55469zm-7.4453-8.918c-0.17969 0.22266-0.22266 0.5-0.22266 0.82031-0.02734 0.20703 0.07031 0.38672 0.22266 0.57031 0.66797 0.70703 1.3203 1.4297 1.9727 2.1523 0.26562 0.28906 0.51562 0.58203 0.84766 0.78906 0.5 0.32031 1.0977-0.02734 1.25-0.38672 0.22266-0.51562 0.125-0.98828-0.22266-1.3906-0.55469-0.63672-1.082-1.2773-1.5391-1.9844-0.22266-0.34766-0.48828-0.65234-0.86328-0.86328-0.48438-0.28906-1.1523-0.054687-1.4453 0.29297zm2.625-2.5117c-0.94141 0.31641-1.1523 1.1367-0.63672 1.9414 0.17969 0.27734 0.38672 0.52734 0.58203 0.77734 0.41797 0.54297 0.82031 1.0977 1.25 1.6406 0.125 0.15234 0.26562 0.29297 0.40234 0.44531 0.11328 0.10938 0.23828 0.125 0.33594 0.02734-0.32031-0.26562-0.55859-0.59766-0.71094-0.98828-0.10938-0.27734-0.05469-0.5 0.17969-0.65234 0.21094-0.13672 0.44531-0.25 0.66797-0.35938 0.19531-0.08203 0.39062-0.15234 0.59766-0.23828-0.09766-0.17969-0.17969-0.34375-0.27734-0.51172-0.30469-0.51562-0.625-1.0273-0.92969-1.5547-0.30859-0.51562-0.91797-0.71093-1.4609-0.52734zm-3.3594 4.2344c-0.36328 0.14062-0.75 0.48438-0.73828 0.82031 0.01563 0.47266 0.19531 0.76172 0.47266 1 0.22266 0.17969 0.47266 0.33203 0.66797 0.53906 0.44531 0.46094 0.91797 0.86328 1.4453 1.2383 0.38672 0.27734 0.76172 0.26172 1.1094-0.04297 0.23828-0.20703 0.27734-0.63672 0.07031-0.875-0.72265-0.77734-1.4297-1.582-2.125-2.3867-0.26562-0.30859-0.51562-0.43359-0.90234-0.29297zm6.3867-1.8477c0.05859-0.04297 0.09766-0.07031 0.14062-0.09766 0.14062-0.09766 0.27734-0.20703 0.42969-0.28906 0.40234-0.21094 0.80469-0.39062 1.2227-0.58594 0.08203-0.03906 0.125-0.08203 0.07031-0.19531-0.11328-0.20703-0.20703-0.4414-0.30468-0.65234-0.16797-0.33203-0.30859-0.66406-0.5-0.98438-0.46094-0.72266-1.293-0.84766-1.9336-0.30469-0.05469 0.03906-0.09375 0.08203-0.13672 0.13672-0.17969 0.22266-0.29297 0.5-0.23828 0.79297 0.03125 0.15234 0.125 0.30469 0.19531 0.44531 0.30469 0.60938 0.67969 1.1797 1.0547 1.7344zm-8.6523 16.68c0.04297-0.03906 0.08594-0.09766 0.125-0.13672 0.65234-0.72266 1.25-1.4883 1.75-2.3203 0.41797-0.69531 0.79297-1.4023 1.1836-2.125 0.06641-0.14062 0.13672-0.29297 0.15234-0.44531 0.03906-0.26172-0.11328-0.48438-0.26562-0.69531-0.34766-0.52734-0.70703-1.0547-1.0547-1.582-0.29297-0.45703-0.58203-0.91797-0.875-1.375-0.09766-0.13672-0.20703-0.25-0.40234-0.20703-0.09766 0.01172-0.19531 0.03906-0.27734 0.07031-0.21094 0.08203-0.41797 0.16406-0.61328 0.25-0.44531 0.20703-0.90234 0.40234-1.2344 0.78906-0.02734 0.02734-0.07031 0.05469-0.11328 0.07031-0.28906 0.125-0.59766 0.25-0.88672 0.375-0.41797 0.19531-0.47266 0.27734-0.33594 0.64062 0.01563 0.03906 0.04297 0.08203 0.07031 0.125 0.23828 0.35938 0.55469 0.63672 1 0.67969 0.47266 0.03906 0.96094-0.02734 1.4023-0.21094 0.05859-0.01172 0.09766-0.03906 0.14062-0.06641 0.01172 0.40234 0.23438 0.67969 0.45703 0.97266-0.02734 0.01172-0.05469 0.02734-0.07031 0.03906-0.58203 0.19531-1.1523 0.41797-1.6797 0.73828-0.72266 0.42969-1.207 1.0547-1.3867 1.875-0.14062 0.59766-0.21094 1.207-0.30859 1.8047 0 0.04297-0.02734 0.07031-0.03906 0.10938-0.04297-0.22266-0.07031-0.44141-0.05469-0.66406 0.01172-0.40234 0.05469-0.80859 0.10938-1.2109 0.04297-0.26172 0.10938-0.52734 0.23438-0.76172 0.34766-0.625 0.86328-1.0859 1.4727-1.4297 0.39062-0.22264 0.79297-0.41796 1.168-0.62499-0.070312-0.125-0.14062-0.26562-0.20703-0.39062-0.41797 0.22266-0.84766 0.29297-1.3086 0.22266-0.16406-0.02734-0.33203-0.01563-0.5-0.01563-0.10938 0-0.16406 0.07031-0.15234 0.18359 0.01563 0.16406 0.01563 0.33203 0.01563 0.5 0 0.40234-0.20703 0.69141-0.52734 0.91406-0.29297 0.21094-0.64062 0.26562-1.0156 0.22266 0 0.04297 0 0.07031 0.01562 0.11328 0.05469 0.17969-0.01562 0.33203-0.125 0.45703-0.21094 0.25-0.5 0.40234-0.80469 0.48438-0.26562 0.08594-0.5 0.04297-0.72266-0.125-0.085939-0.054682-0.15234-0.13671-0.22266-0.20703-0.46094-0.41797-0.91797-0.82031-1.3906-1.2344-0.125-0.11328-0.25-0.23828-0.38672-0.36328 0 0.08203 0.01172 0.14062 0.02734 0.20703 0.05469 0.19531 0.10938 0.40625 0.16406 0.59766 0.03125 0.09766 0.04297 0.21094 0.09766 0.29297 0.05859 0.07031 0.15234 0.10938 0.22266 0.16797-0.05469 0-0.05469 0.05469-0.03906 0.125 0.08203 0.375 0.13672 0.76172 0.21875 1.1367 0.08594 0.34766 0.21094 0.69531 0.41797 0.98828 0.20703 0.31641 0.48828 0.58203 0.65234 0.94141 0.21094 0.41797 0.39062 0.83594 0.375 1.3086 0 3.7891-0.13672 5.7617 0.02734 9.5391 0 0 0 1.0859-0.01172 2.5703-0.01562 2.457-0.02734 6-0.05469 7.5 2.1914 0.20703 4.5273 0.19531 6.9023-0.07031-0.04297-0.35938-0.11328-0.72266-0.11328-0.78906-0.09766-1.4336-0.22266-3.8906-0.35938-6.6406-0.26562-4.7617-0.61328-10.359-1.0273-12.82 0-0.17969 0-0.35938 0.16406-0.5zm-6.5977-7.8867c-0.15234 0.19531-0.20703 0.44531-0.19141 0.72266-0.02734 0.17969 0.05469 0.34766 0.19141 0.5 0.58594 0.63672 1.168 1.2617 1.75 1.9023 0.23828 0.25 0.46094 0.51172 0.75 0.69531 0.44531 0.27734 0.97266-0.01563 1.1133-0.33594 0.19531-0.45703 0.10938-0.875-0.19531-1.2344-0.48438-0.57031-0.95703-1.1406-1.3594-1.7656-0.19531-0.30469-0.43359-0.57031-0.76562-0.75-0.44531-0.25-1.043-0.05469-1.293 0.26562zm2.3359-2.2383c-0.83594 0.29297-1.0273 1-0.57031 1.7227 0.15234 0.23828 0.34766 0.46094 0.51562 0.69531 0.35938 0.48438 0.73438 0.97266 1.0938 1.4453 0.11328 0.13672 0.23828 0.26172 0.36328 0.38672 0.09766 0.09766 0.22266 0.11328 0.29297 0.02734-0.28125-0.23438-0.5-0.52734-0.625-0.875-0.09766-0.25-0.05859-0.44141 0.16406-0.58203 0.19531-0.125 0.39062-0.22266 0.59766-0.32031 0.16797-0.082027 0.34766-0.13672 0.52734-0.20703-0.08203-0.15234-0.15234-0.30469-0.25-0.44531-0.27734-0.45703-0.55469-0.91406-0.82031-1.375-0.27734-0.45703-0.81641-0.63672-1.2891-0.47266zm-2.9883 3.75c-0.31641 0.125-0.66406 0.43359-0.65234 0.72266 0.01562 0.42969 0.17969 0.67969 0.41797 0.89062 0.19531 0.16406 0.41797 0.28906 0.58203 0.47266 0.39062 0.40234 0.82031 0.76172 1.2773 1.0977 0.33594 0.23438 0.68359 0.23438 0.98828-0.042969 0.20703-0.19531 0.25-0.57031 0.05469-0.77734-0.64062-0.69531-1.2773-1.4023-1.8906-2.1133-0.20703-0.25-0.42969-0.375-0.77734-0.25zm5.668-1.625c0.05469-0.02734 0.08203-0.05469 0.125-0.08203 0.125-0.08203 0.25-0.19531 0.375-0.25 0.35938-0.17969 0.72266-0.34766 1.082-0.51562 0.08594-0.03906 0.11328-0.08203 0.05859-0.16406-0.09766-0.19531-0.18359-0.39062-0.28125-0.58594-0.13672-0.28906-0.26172-0.59375-0.44141-0.875-0.40234-0.63672-1.1406-0.75-1.7109-0.27734-0.03906 0.04297-0.08203 0.08594-0.125 0.125-0.16406 0.19531-0.25 0.44531-0.20703 0.69531 0.02734 0.14062 0.10938 0.26562 0.17969 0.39062 0.27734 0.52734 0.61328 1.0391 0.94531 1.5391zm-5.918 10.016c0.05859-0.07031 0.05859-0.17969 0.08594-0.27734 0.03906-0.19531 0.08203-0.375 0.125-0.57031 0.01172-0.05469 0.02734-0.125 0.01172-0.19531-0.10938 0.11328-0.22266 0.23828-0.33203 0.34766-0.40234 0.40234-0.80469 0.82031-1.207 1.2227-0.07031 0.07031-0.125 0.15234-0.19531 0.20703-0.19531 0.16797-0.41797 0.21094-0.66797 0.15234-0.29297-0.06641-0.55469-0.19141-0.76172-0.41406-0.11328-0.11328-0.18359-0.25-0.14062-0.41797v-0.09766c-0.34766 0.05469-0.66797 0.02734-0.94531-0.15234-0.30469-0.17968-0.51172-0.44531-0.53907-0.82031-0.015625-0.15234-0.015625-0.30469-0.015625-0.45703 0-0.10938-0.05469-0.16797-0.15234-0.16797-0.15234 0-0.30469 0.01563-0.45703 0.04297-0.43359 0.09766-0.83594 0.05469-1.2227-0.125-0.05859 0.125-0.11328 0.25-0.16797 0.375 0.35938 0.16797 0.75 0.32031 1.1094 0.5 0.58594 0.29297 1.0859 0.67969 1.4453 1.2344 0.14062 0.22266 0.22266 0.46094 0.26562 0.69531 0.07031 0.36328 0.125 0.73828 0.16406 1.1133 0.03125 0.20703 0.01563 0.41406-0.01172 0.625-0.01563-0.02734-0.02734-0.07031-0.04297-0.09766-0.125-0.55469-0.23438-1.1133-0.38672-1.6523-0.22266-0.75-0.69531-1.293-1.3906-1.6523-0.5-0.26562-1.043-0.44531-1.5977-0.58594-0.02734 0-0.03906-0.01172-0.07031-0.02734 0.19531-0.27734 0.39062-0.55469 0.375-0.92969 0.04297 0.01172 0.09766 0.04297 0.14062 0.05469 0.42969 0.14062 0.875 0.17969 1.3047 0.11328 0.40234-0.05859 0.67969-0.33594 0.89062-0.68359 0.02734-0.03906 0.03906-0.08203 0.05469-0.125 0.09766-0.33203 0.05469-0.41406-0.34766-0.56641-0.27734-0.11328-0.55469-0.19531-0.84766-0.30859-0.03906-0.01172-0.08203-0.02734-0.10938-0.05469-0.33594-0.33203-0.76562-0.5-1.1953-0.66797-0.19531-0.06641-0.39062-0.13672-0.58203-0.19141-0.08594-0.02734-0.18359-0.04297-0.26562-0.05859-0.16797-0.01172-0.27734 0.08594-0.35938 0.22266-0.25 0.44531-0.48828 0.89062-0.73828 1.3203-0.28906 0.51562-0.59766 1.0156-0.88672 1.5273-0.11328 0.21094-0.25 0.41797-0.19531 0.66797 0.027342 0.13671 0.097654 0.27734 0.16797 0.40234 0.40234 0.64062 0.78906 1.2773 1.207 1.8906 0.51172 0.73438 1.1094 1.4141 1.75 2.0391 0.04297 0.04297 0.07031 0.08594 0.125 0.125 0.16797 0.125 0.16797 0.27734 0.15234 0.47266-0.10938 1.043-0.17969 2.707-0.22266 4.6406-0.05469 2.4844-0.07031 5.4141-0.07031 8.0273 1.1523 0.44531 2.3477 0.83203 3.5859 1.1367 0.63672 0.18359 1.3047 0.34766 1.9844 0.48828-0.027347-2.3203-0.042972-5.0859-0.082035-7.6133-0.04297-2.6367-0.09766-5-0.17969-6.3164-0.03125-0.44531 0.10938-0.83594 0.27734-1.2383 0.13672-0.33203 0.375-0.59766 0.55469-0.90234 0.17969-0.29297 0.26172-0.60938 0.32031-0.92969 0.05469-0.36328 0.09766-0.71094 0.15234-1.0703 0.01172-0.07031 0-0.10938-0.04297-0.10938 0.04297-0.05859 0.14062-0.09766 0.17969-0.16797zm-3.9727-1.8047c-0.26172 0.34766-0.31641 0.75-0.10938 1.1523 0.14062 0.28906 0.65234 0.53906 1.043 0.25 0.26172-0.19531 0.45703-0.44531 0.65234-0.69531 0.5-0.625 1-1.2344 1.5117-1.8594 0.125-0.15625 0.19531-0.30859 0.15234-0.47266-0.01172-0.26562-0.06641-0.48828-0.21875-0.65234-0.25-0.28125-0.80859-0.43359-1.2109-0.18359-0.28906 0.18359-0.5 0.44531-0.66406 0.75-0.33594 0.59766-0.73828 1.1523-1.1562 1.7109zm0.75-4.2109c-0.44141-0.125-0.94141 0.07031-1.1641 0.51562-0.22266 0.44531-0.46094 0.875-0.67969 1.3203-0.07031 0.13672-0.125 0.27734-0.19531 0.42969 0.17969 0.05469 0.34766 0.09766 0.5 0.16797 0.19531 0.08203 0.38672 0.16406 0.57031 0.26172 0.20703 0.11328 0.26172 0.29297 0.17969 0.52734-0.11328 0.32031-0.29297 0.59766-0.52734 0.84766 0.06641 0.07031 0.17969 0.05469 0.26172-0.04297 0.11328-0.125 0.22266-0.25 0.30469-0.375 0.32031-0.45703 0.625-0.92969 0.93359-1.4023 0.15234-0.22266 0.30469-0.44141 0.44141-0.66406 0.375-0.71094 0.16797-1.3633-0.625-1.5859zm2.9727 3.293c-0.31641-0.09766-0.51172 0.02734-0.70703 0.27734-0.52734 0.69531-1.0703 1.3906-1.625 2.0703-0.16797 0.19531-0.10938 0.55469 0.09766 0.72266 0.29297 0.23438 0.60938 0.22266 0.90234-0.02734 0.40234-0.33594 0.77734-0.69531 1.125-1.0859 0.15234-0.17969 0.34766-0.30469 0.51562-0.47266 0.20703-0.20703 0.34375-0.44141 0.33203-0.84375 0-0.28125-0.33203-0.54297-0.64062-0.64062zm-4.7617-3.7656c-0.55469-0.40234-1.2227-0.26172-1.5547 0.34766-0.14062 0.26562-0.25 0.55859-0.36328 0.83594-0.07031 0.17969-0.13672 0.375-0.22266 0.55469-0.03906 0.08203-0.01172 0.125 0.07031 0.15234 0.34766 0.14062 0.67969 0.26562 1.0273 0.41797 0.125 0.05469 0.23828 0.13672 0.36328 0.22266 0.02734 0.02734 0.06641 0.03906 0.125 0.06641 0.27734-0.47266 0.55469-0.97266 0.77734-1.4727 0.05469-0.125 0.125-0.23438 0.13672-0.375 0.02734-0.23438-0.07031-0.46875-0.23438-0.63672-0.04297-0.05469-0.08594-0.08203-0.125-0.11328zm-13.625 47.375v-6.457h-3.0977v6.375c0 0.77735-0.17969 1.3633-0.52734 1.75-0.36328 0.39063-0.92969 0.58204-1.7227 0.58204h-4.6523c-0.77734 0-1.3359-0.17969-1.6523-0.55469-0.33594-0.375-0.5-0.95703-0.5-1.7617v-6.375h-3.0977v6.457c0 1.582 0.47266 2.832 1.4297 3.7344 0.95703 0.90625 2.2773 1.3633 3.9844 1.3633h4.4727c1.668-0.01563 2.9727-0.47266 3.918-1.3906 0.97266-0.91406 1.4453-2.1523 1.4453-3.7226zm-8.9609 10.098h3.1406v-3.0976h-3.1406zm53.656-25.5h-2.5312v2.6953h2.5312zm-4.3086 6.8086h2.4727v-3.0977h-2.4727zm6.1836-3.0977h-2.5v3.0977h2.5zm18.527 1.3594v-5.793h-3.0977c-1.5859 0.09766-2.8633 0.53125-3.8359 1.3086-1.1094 0.875-1.6641 2.082-1.6641 3.5977v11.055h0.0117v0.17969c0 1.5-1.0391 2.25-3.1094 2.25h-2.1797l-0.0273-8.707h-3.0703v8.6914h-3.0156v-8.707h-3.1367v8.707h-4v-8.707h-3.0156v8.707h-8.0547l3.1367-2.7188c0-1.8203-0.60938-3.3203-1.8438-4.5312-1.2227-1.207-2.875-1.8047-4.9609-1.8047-2.082 0-3.7227 0.59765-4.957 1.8047-1.2227 1.2109-1.8477 2.7109-1.8477 4.5312l3.1094 2.7188h-7.0938v-8.707h-5.1133c-1.582 0-2.8047 0.52735-3.668 1.582-0.85938 1.0586-1.2891 2.5703-1.2891 4.5312 0 0.98437 0.15234 1.8594 0.45703 2.5938 0.30469 0.73828 0.70703 1.3086 1.2227 1.7109 0.51562 0.38672 1.043 0.67969 1.582 0.85938 0.54297 0.17969 1.1133 0.27734 1.7109 0.27734h2.1523c-0.25 1.2774-0.97266 1.918-2.1406 1.918h-10.875v3.0977h11.055c1.5156 0 2.7227-0.55469 3.5977-1.668 0.48828-0.60938 0.83594-1.332 1.043-2.1797 0.125-0.35937 0.22266-0.75 0.27734-1.168h8.375c0.86328 0 1.668-0.10937 2.418-0.34765 0.70703 0.23828 1.5117 0.34765 2.4023 0.34765h28.457v-0.0117c1.5859-0.0977 2.875-0.52734 3.8476-1.3047 1.1133-0.875 1.668-2.0859 1.668-3.5977v-11.059h-0.0156v-0.17969c0-1.3203 0.80469-2.0547 2.418-2.2227v18.375h0.082c0.5-0.20703 0.96094-0.45703 1.3633-0.77734 1.0273-0.80469 1.5664-1.8867 1.6523-3.2344 0.0117-0.125 0.0117-0.23828 0.0117-0.36328zm-55.738 12.582h-1.9727c-0.60938 0-1.082-0.25-1.4141-0.73438-0.33594-0.5-0.51562-1.1094-0.51562-1.8594 0-2.2227 0.64062-3.3359 1.9297-3.3359h1.9727zm13.875-0.44141c-0.97266-0.79297-2.1367-1.8203-3.5117-3.0703 0.05469-0.79297 0.40234-1.4727 1.0664-2.0274 0.66797-0.55468 1.4883-0.82031 2.4609-0.79297 0.98438 0.0156 1.8047 0.30469 2.4297 0.84766 0.64062 0.55469 0.97266 1.207 1.0273 1.9727zm-36.359-11.238c-0.46094 0.33594-0.875 0.625-1.2773 0.90234 0.81641 0.32031 1.6367 0.11328 2.25-0.51172 0.15234-0.16797 0.34766-0.29297 0.52734-0.44531-0.01562-0.0156-0.05469-0.0703-0.11328-0.125 0.83594-0.875 1.7773-1.5547 2.9023-1.9844-0.85938 0.10937-1.6367 0.4414-2.3164 0.96875-0.16797 0.125-0.33594 0.28125-0.5 0.40625-0.21094 0.15234-0.375 0.41406-0.71094 0.27734-0.08203-0.043-0.22266 0.0547-0.35938 0.0977-0.69531-1.25-1.7227-2.0859-3.1133-2.4336-0.5-0.125-1-0.17969-1.5664 0.0273 1.8594 0.32031 3.1367 1.4062 4.2773 2.8203zm1.0391-5.7617c0.68359 0.20703 1.0586 0.73438 1.4062 1.3047 0.02734 0.04297 0.02734 0.09765 0.05469 0.17968-0.40234 0.30469-0.79297 0.59766-1.1797 0.89063 0.94141 0.30469 2.4844-0.125 3.125-0.94531 0.19141-0.23828 0.41406-0.22266 0.66406-0.14063-0.35938-0.56641-0.57032-0.65234-1.1797-0.40234 0.16797-0.35938 0.27734-0.67969 0.45703-0.97266 0.18359-0.28906 0.40234-0.53906 0.59766-0.83203-0.82031 0.30469-1.2617 1.0156-1.8477 1.6797-1.0547-1.207-2.5664-1.25-3.9727-1.5703-0.01172 0.03125-0.01172 0.04297-0.02734 0.07031 0.34766 0.14062 0.68359 0.29297 1.0273 0.42969 0.28125 0.08594 0.57031 0.21094 0.875 0.30859zm9.9336 4.5977c0.58203-0.16797 0.77734-0.59766 0.85938-1.1406-0.44531 0.57031-1.082 0.76563-1.7344 0.94531-0.41797 0.125-0.64062 0.41407-0.79297 0.85938-0.375-0.75-1.0547-0.77735-1.707-0.90235-0.47266-0.082-0.94531-0.16796-1.3359-0.48437-0.06641-0.0586-0.16406-0.0859-0.26172-0.0977 0.19531 0.34766 0.44531 0.57032 0.82031 0.72266 0.48438 0.17969 0.92969 0.45703 1.3867 0.69141 0.11328 0.0586 0.22266 0.15625 0.33203 0.22265-0.01172 0.043-0.03906 0.0977-0.05469 0.14063-0.47266 0.19531-0.94531 0.38672-1.4297 0.58203 0.40234 0.0703 0.83203 0.15234 1.25 0.19531 0.75 0.0703 1.4727-0.0273 2.0703-0.55469 0.125-0.11328 0.30469-0.14062 0.45703-0.21093-0.58203-0.30469-0.58203-0.30469-0.94531-0.20704 0.32031-0.38671 0.66797-0.63671 1.0859-0.76171zm6.1367-5.7383c-0.55469 0.14062-1.1367 0.20703-1.6094 0.55469-0.34766 0.25-0.69531 0.51562-1.0273 0.77734-0.18359 0.14062-0.32031 0.30859-0.59766 0.22266-0.09766-0.02734-0.21094 0.04297-0.36328 0.07031-0.60938-1.082-1.5-1.832-2.707-2.168-0.47266-0.13672-0.95703-0.17969-1.457-0.01172 1.6094 0.32031 2.7617 1.3047 3.8047 2.582-0.41797 0.30469-0.80469 0.57032-1.1523 0.83595 0.67969 0.28906 1.4844 0.10937 2.0703-0.50001 0.125-0.14062 0.28906-0.23828 0.48438-0.40625-0.02734-0.01172-0.09766-0.03906-0.20703-0.08203 0.5-0.38672 0.90234-0.76172 1.3594-1.0703 0.42969-0.28906 0.92969-0.52734 1.4023-0.80469zm2.4297 0.65234c0.29297-0.32031 0.58594-0.65234 0.93359-0.91406 0.35938-0.28125 0.78906-0.48828 1.1797-0.72266-0.67969 0.08203-1.25 0.42969-1.7656 0.875-0.125 0.10938-0.30469 0.15234-0.45703 0.22266-0.30469 0.13672-0.39062-0.125-0.52734-0.29297-0.67969-0.89062-1.5547-1.3633-2.707-1.2383 1.1094 0.28125 1.9297 0.94531 2.6523 1.8633-0.27734 0.20703-0.52734 0.40234-0.80859 0.625 0.58594 0.15234 1.0859 0.05469 1.5-0.41797zm9.0703 0.69531c-0.34766 0.10938-0.70703 0.22266-1.0547 0.35938-0.20703 0.08594-0.40234 0.25-0.625 0.39062-0.14062-0.34766-0.52734-0.41797-0.89062-0.54297-0.34375-0.10938-0.66406-0.26172-1-0.40234 0.07031 0.22266 0.29297 0.33594 0.53125 0.46094 0.31641 0.17969 0.60938 0.375 0.91406 0.56641-0.01172 0.04297-0.02734 0.08594-0.02734 0.14062-0.27734 0.09766-0.57031 0.17968-0.85938 0.27734 0.76172 0.27734 1.5273 0.40234 2.25-0.17969-0.125-0.07031-0.27734-0.14062-0.47266-0.23828 0.23438-0.09766 0.44531-0.23438 0.67969-0.28906 0.33203-0.08594 0.47266-0.30859 0.55469-0.54297z" fill="#821a0e"/>
 </g>
</svg>
