<svg viewBox="0 0 800 191.93" xmlns="http://www.w3.org/2000/svg" xmlns:xlink="http://www.w3.org/1999/xlink">
    <defs>
        <path id="a" d="M80.08 43.67l-.75-2.26-.76 2.26zm-1.42-5H80l2.66 8h-1.58l-.52-1.57H78.1l-.53 1.57H76z"/>
        <path id="b" d="M86.67 38.67h1.69v6.38H92v1.62h-5.33z"/>
        <path id="c" d="M97.16 40.29h-2.49v-1.62h6.67v1.62h-2.5v6.38h-1.68z"/>
        <path id="d" d="M104 38.67h5.08v1.61h-3.46v2.1h2.6v1.44h-2.6v1.23h3.71v1.62H104z"/>
        <path id="e" d="M115.13 43.02a.95.95 0 0 0 .71-.43c.14-.18.2-.45.2-.8 0-.33-.06-.6-.2-.83-.14-.22-.3-.38-.49-.47-.18-.1-.33-.15-.47-.15h-1.12v2.68zm-3.01-4.34h2.76c.41 0 .84.13 1.28.38a3.14 3.14 0 0 1 1.53 2.74c0 .55-.11 1.04-.34 1.48-.24.44-.57.79-1 1.05l1.27 2.58H116l-1.1-2.23-1.13.01v2.22h-1.64z"/>
        <path id="f" d="M120.85 38.69h1.68l2.62 4.85v-4.85h1.63v8.22h-1.7l-2.6-4.86v4.86h-1.63z"/>
        <path id="g" d="M134.38 43.81l-.82-2.33-.84 2.33zm-1.57-5.16h1.5l2.9 8.27h-1.72l-.57-1.62h-2.7l-.59 1.62h-1.73z"/>
        <path id="h" d="M141.63 40.33h-2.46v-1.67h6.58v1.67h-2.47v6.59h-1.65z"/>
        <path id="i" d="M148.91 46.91h1.65v-8.23h-1.65z"/>
        <path id="j" d="M153.32 38.68h1.74l1.9 5.4 1.92-5.4h1.74l-2.9 8.23h-1.5z"/>
        <path id="k" d="M163.39 38.69h1.68l2.62 4.85v-4.85h1.63v8.22h-1.7l-2.6-4.86v4.86h-1.63z"/>
        <path id="l" d="M176.92 43.81l-.82-2.33-.84 2.33zm-1.57-5.16h1.5l2.9 8.27h-1.72l-.57-1.62h-2.7l-.59 1.62h-1.73z"/>
        <path id="m" d="M190.96 40.33h-2.46v-1.67h6.58v1.67h-2.47v6.59h-1.65z"/>
        <path id="n" d="M197.84 38.68h1.74l1.9 5.4 1.92-5.4h1.74l-2.9 8.23h-1.5z"/>
        <path id="o" d="M54.86 42.91c-.48 0-.97-.03-1.45-.06-.43 0-.9 0-1.37.02-.46.02-.9.01-1.38-.02-.5 0-.99.02-1.47.05-.38.03-.77.02-1.19-.02.13-.27.27-.54.42-.8.2-.33.43-.67.66-1l.08-.13-.11-.14c-.1-.1-.17-.2-.24-.3-.08-.12-.24-.27-.58-.27-.15 0-.3.02-.44.06a.79.79 0 0 0-.41.26.44.44 0 0 0-.1.18.1.1 0 0 1-.02.05l-.02.02v.03c-.07.2-.16.4-.26.6l-.3.64-.02.03c-.06.31-.19.6-.37.87h-5.03c-.14 0-.3 0-.46.02-.19.02-.37.1-.54.21l-.26.17.3.19c.1.06.2.12.27.18.11.1.24.16.37.2a5.06 5.06 0 0 0 1.9.27c.44 0 .88-.01 1.3-.03a31.88 31.88 0 0 1 1.5 0l.17.02c.05.12.05.24.03.34a9.8 9.8 0 0 0-.16.5c-.04.13-.1.26-.18.38l-.02.02a8.4 8.4 0 0 0-.46 1.2l-.36 1.23v.04l-.11.76c-.05.26-.07.52-.07.78.05.55.28 1.05.68 1.51a2.32 2.32 0 0 0 1.9.85c.47 0 .9-.12 1.3-.34.24-.13.43-.33.56-.58l.25-.44c.05.17.13.3.24.42.12.12.26.24.43.35l.02.02a1.36 1.36 0 0 0 .73.18c.21-.02.4-.08.57-.17.24-.12.45-.27.6-.47l.44-.55.03-.04.4-.85c.15-.29.3-.57.48-.84l.04-.07-.01-.07a.41.41 0 0 0 .02-.2.582.582 0 0 1 .05-.4 7.12 7.12 0 0 0 .6-1.4c.05-.1.07-.22.04-.4l-.07-.43-.3.27a.38.38 0 0 1-.12.09.42.42 0 0 0-.2.12c-.28.25-.5.54-.65.85l-.47.93c-.2.38-.45.74-.74 1.07-.3.34-.58.7-.83 1.08l-.04.01a2.16 2.16 0 0 1-.05-.35v-.58c0-.3 0-.64-.02-.99-.02-.33-.02-.66.01-1V47a8.09 8.09 0 0 1-.05-.44c-.02-.2-.09-.39-.2-.59l-.07-.13h-.14c-.47 0-.61.05-.69.09-.13.07-.2.24-.24.55v.06a.2.2 0 0 1 0 .05l-.03.1-.01.06c-.04.72-.04 1.5 0 2.3a5.33 5.33 0 0 0 .07.82.56.56 0 0 0-.2-.04h-.05c-.14.05-.28.1-.4.16l-.34.2a3.35 3.35 0 0 1-1.47.4c-.18 0-.31-.04-.4-.1-.07-.05-.18-.2-.27-.53a7.97 7.97 0 0 1-.06-.85c0-.18.03-.34.06-.48l.1-.5.21-.68a10.9 10.9 0 0 0 .43-1.67h.04l.05-.11.23-.52c.1-.18.18-.37.24-.57v-.02c.03-.15.08-.26.16-.3.1-.07.23-.1.4-.1h.28l1.55-.07a41.8 41.8 0 0 0 2.9-.18l1.34-.1c1 0 1.89-.14 2.65-.42l.93-.34-1.04-.07c-.5-.04-1-.06-1.49-.07"/>
        <path id="p" d="M75.6 59.11h-4.08L54.49 20.86l-.21-.48-3.99 11.52.8.62 1.33-3.6 13.36 30.2h-4.09l.4.88h13.9z"/>
    </defs>
    <g fill="#505153" transform="translate(-193.77 -98.728) scale(4.8444)">
        <use width="100%" height="100%" xlink:href="#a"/>
        <use width="100%" height="100%" xlink:href="#b"/>
        <use width="100%" height="100%" xlink:href="#c"/>
        <use width="100%" height="100%" xlink:href="#d"/>
        <use width="100%" height="100%" xlink:href="#e"/>
        <use width="100%" height="100%" xlink:href="#f"/>
        <use width="100%" height="100%" xlink:href="#g"/>
        <use width="100%" height="100%" xlink:href="#h"/>
        <use width="100%" height="100%" xlink:href="#i"/>
        <use width="100%" height="100%" xlink:href="#j"/>
        <use width="100%" height="100%" xlink:href="#k"/>
        <use width="100%" height="100%" xlink:href="#l"/>
        <use width="100%" height="100%" xlink:href="#m"/>
        <use width="100%" height="100%" xlink:href="#n"/>
    </g>
    <use transform="translate(-193.77 -98.728) scale(4.8444)" width="100%" height="100%" fill="#aa111b" xlink:href="#o"/>
    <use transform="translate(-193.77 -98.728) scale(4.8444)" width="100%" height="100%" fill="#aa111b" xlink:href="#p"/>
</svg>
