<svg version="1.1" viewBox="0 0 800 192" xmlns="http://www.w3.org/2000/svg">
 <defs>
  <clipPath id="d" transform="translate(0)">
   <path d="m247.9 30a27.94 27.94 0 0 1-28 27.91h-189.83a27.94 27.94 0 0 1-27.97-27.91 27.94 27.94 0 0 1 28-27.91h189.83a27.94 27.94 0 0 1 27.97 27.91z" fill="none"/>
  </clipPath>
  <linearGradient id="c" x2="250" y1="30" y2="30" gradientUnits="userSpaceOnUse">
   <stop stop-color="#ff4045" offset=".05"/>
   <stop stop-color="#ff4944" offset=".26"/>
   <stop stop-color="#ff6340" offset=".62"/>
   <stop stop-color="#ff853b" offset="1"/>
  </linearGradient>
 </defs>
 <g transform="matrix(3.2 0 0 3.2 0 .00026134)" clip-path="url(#d)">
  <rect width="250" height="60" fill="url(#c)"/>
 </g>
 <path d="m401.92 153.34h52.064a11.584 11.584 0 0 0 11.04-8.064l2.976-9.344h38.4l5.536 17.408h32l-39.2-114.69h-35.2l-38.4 112.29v-112.29h-18.688a17.44 17.44 0 0 0-14.88 8.32l-23.904 39.04-23.904-39.04a17.44 17.44 0 0 0-14.88-8.32h-18.592v114.69h29.312v-59.264l28.128 45.984 28.192-45.984v59.264m74.88-45.088 10.272-32 10.272 32zm179.81-69.6a12.8 12.8 0 0 1 11.104 6.4l12.256 20.928 16-27.296h33.632l-32.832 55.904 33.856 58.752h-25.6a12.608 12.608 0 0 1-11.072-6.08l-14.048-23.936-17.504 30.016h-33.376l34.304-58.752-32-54.688v75.712c0 23.904-18.016 39.936-44.8 39.936s-44.8-16-44.8-39.936v-76.8h29.344v74.592c0 9.088 5.056 13.504 15.456 13.504 10.4 0 15.456-4.416 15.456-13.504v-74.752zm-592.61 114.69h32l5.536-17.408h38.4l5.536 17.408h50.176a10.4 10.4 0 0 0 10.4-10.368v-45.472l39.808 55.84h22.048v-114.69h-29.376v55.84l-34.912-48.992a16.288 16.288 0 0 0-13.28-6.848h-13.632v112.29l-37.344-109.57-0.928-2.72h-22.912a17.056 17.056 0 0 0-16 11.52zm46.56-45.088 10.272-32 10.272 32zm166.85-69.6h29.344v114.69h-29.344z" fill="#fff" stroke-width="3.2" Googl="true"/>
 <path d="m771.81 28.128a96 96 0 0 0-68.032-28.128h-607.55a96 96 0 0 0-96.224 96 96 96 0 0 0 96.224 96h607.55a96 96 0 0 0 96.224-96 95.584 95.584 0 0 0-28.192-67.872zm21.472 67.872a89.408 89.408 0 0 1-89.6 89.312h-607.46a89.408 89.408 0 0 1-89.504-89.312 89.408 89.408 0 0 1 89.6-89.312h607.46a89.408 89.408 0 0 1 89.504 89.312z" fill="#fff" stroke-width="3.2"/>
</svg>
