<svg xmlns="http://www.w3.org/2000/svg" width="2671" height="434" viewBox="0 0 2136 347">
    <g fill="#1ab68e" fill-rule="evenodd">
        <path d="M2092.3 26.28c4.4-.002 8.9.604 12.6 3.067 3.1 2.052 4.6 5.665 5.1 9.216.7 4.725.5 9.865-2 14.072-2.4 4.212-7.3 6.149-12 6.42l12.7 21.584h-12.1l-12.5-21.474h-8.9l-.2 21.474h-11.3V26.295zm-17.3 9.907v13.005c5.3.025 10.5.075 15.8 0 2.8-.041 6.5-.528 7.8-3.438 1.1-2.388 1.3-5.9-.9-7.726-2.2-1.751-5.4-1.864-7.9-1.861zM1530.9 1.41h135.3L1767 104.39 1868.2 1.41h135.1l-168.6 172.35 168.4 172.38-134.5.03-101.4-103.35-39.7 40.65-67.5-69.22 39.5-40.49zM357.11 2.207c-14.34.038-27.06 5.679-36.1 14.98C209.37 131.616 96.39 248.226.8 346.156l137.52.03 162.04-165.6-.02 82.44-80.58.16 80.58 82.97h108.22l-.02-290.68c.12-13.926-5.27-27.84-15.06-37.822-9.17-9.351-22.02-15.489-36.37-15.452zM454.93 13.56c9.46-7.765 21.71-12.105 33.88-11.67 12.77.456 25.3 6.04 34.25 15.26l148.63 151.62.04-166.41 102.64.18-.06 291.88c-.16 16.03-8.27 31.73-21.21 41.19-14.49 10.59-34.5 13.69-51.24 6.76-7.38-3.05-13.87-7.9-19.25-13.74L538.42 181.51l-.01 164.76s-68.48.06-102.72.13c-.01-97.32-.02-194.65.01-291.97-.05-15.58 7.16-30.965 19.23-40.87zM801.85 2.435v343.77l102.64-.05V2.475l-102.64-.044zm51.28 12.25c21.84 0 39.6 17.731 39.6 39.6 0 21.87-17.76 39.597-39.6 39.597-21.92 0-39.6-17.728-39.6-39.597s17.68-39.6 39.6-39.6zM981.96 2.39c-28.6.015-50.28 25.194-50.27 52.864l.06 290.94 102.65-.23.1-164.11 90.7 91.71 90.4-91.71.2 164.34 102.6-.08-.3-295.59c-1.2-31.384-35.3-55.95-65.3-46.092-9.6 2.96-17.4 8.653-24.4 15.346L1125 125.428l-107.4-109.26c-13.1-11.25-25.25-13.777-35.64-13.77zM1385.7 3.57c13.7-3.094 28.6-.067 40 7.99 4.9 3.403 8.8 7.83 13 12.03L1753 346.17l-137.2-.14-162.1-164.96-.2 81.83 80.3.25-80.4 82.98-108.2-.01c.2-96.9.1-193.8.1-290.7 0-7.51 1.4-15.019 4.4-21.92 6.5-14.86 20.1-26.354 36-29.93z"/>
        <path d="M2085.1 2.937c-28.1 0-50.8 22.723-50.8 50.75s22.7 50.753 50.8 50.753c28 0 50.7-22.726 50.7-50.753s-22.7-50.75-50.7-50.75zm0 10.75c22.1 0 40 17.91 40 40 0 22.091-17.9 40-40 40s-40-17.909-40-40c0-22.09 17.9-40 40-40z"/>
    </g>
</svg>
