<svg version="1.1" viewBox="0 0 600 161.44" xmlns="http://www.w3.org/2000/svg">
 <defs>
  <linearGradient id="a" x1="134.84" x2="663.98" y1="584.32" y2="584.32" gradientTransform="matrix(1.1309 0 0 1.1309 238.06 -1355.4)" gradientUnits="userSpaceOnUse">
   <stop stop-color="#e99a07" offset="0"/>
   <stop stop-color="#ffd89c" offset=".5"/>
   <stop stop-color="#e99a07" offset="1"/>
  </linearGradient>
 </defs>
 <g transform="translate(-390.56 774.52)">
  <path d="m990.56-734.91-0.57511 0.47364c-76.832 70.1-219.53 117.29-383.04 117.29-19.149 0-38.162-0.71046-56.77-1.9622 20.637 2.7742 41.782 4.635 63.502 5.4808 9.3037 0.33831 19.013 0.54131 28.689 0.54131 9.6421 0 19.318-0.203 28.994-0.54131 142.87-5.7852 263.89-53.725 318.63-120.61l0.57511-0.67663zm-322.28 76.223 7.4092-59.51h-21.145l-3.3832 30.685c-4.0598-10.759-8.7963-21.01-14.446-30.685h-21.382l-7.646 59.51h21.382l3.1802-30.99 14.852 30.99h21.179zm28.825 0 7.2062-59.51h-21.619l-7.6798 59.51h22.092zm109.28-16.205h-18.269l0.91346-6.5634h16.036l1.7931-14.751h-16.036l0.91346-6.631h17.593l1.9961-15.36h-38.94l-7.443 59.51h39.177l2.2667-16.205zm-43.034 16.205-17.356-30.956 21.855-28.554h-24.528l-7.443 11.537-6.1236-11.537h-23.412l15.799 27.505-23.885 32.005h24.528l9.9127-14.751 8.3226 14.751h22.329zm-167.4-59.51h-26.795l-27.471 59.51h22.938l3.1802-7.9166h14.615l0.71047 7.9166h21.145l-8.3226-59.51zm-14.412 38.128h-8.5594c0.43981-1.7931 1.8269-6.1574 4.5335-12.991 1.1164-3.0449 1.7931-5.6499 2.4697-7.8152l1.5563 20.807zm183.13-89.31c18.574 0 37.012 0.60897 55.044 1.8269-9.8789-1.3194-19.825-2.402-29.907-3.2817-19.453-1.6578-39.279-2.5712-59.476-2.5712-20.333 0-40.158 0.8458-59.645 2.5712-125.08 10.894-229.14 55.417-277.96 115.57 74.328-68.239 213.04-114.11 371.95-114.11"/>
  <path d="m988.97-736.49-0.57518 0.47364c-76.832 70.1-219.53 117.29-383.04 117.29-19.149 0-38.162-0.71047-56.77-1.9622 20.637 2.7742 41.782 4.635 63.502 5.4808 9.3038 0.33831 19.013 0.54131 28.689 0.54131 9.6421 0 19.318-0.203 28.994-0.54131 142.87-5.7852 263.89-53.725 318.63-120.61l0.57518-0.67664zm-322.28 76.223 7.4092-59.51h-21.145l-3.3832 30.685c-4.0598-10.759-8.7963-21.01-14.446-30.685h-21.382l-7.646 59.51h21.382l3.1802-30.99 14.852 30.99h21.179zm28.825 0 7.2062-59.51h-21.619l-7.6798 59.51h22.092zm109.28-16.205h-18.269l0.91346-6.5634h16.036l1.7931-14.751h-16.036l0.91345-6.631h17.593l1.9961-15.36h-38.94l-7.443 59.51h39.177l2.2667-16.205zm-43.034 16.205-17.356-30.956 21.855-28.554h-24.528l-7.443 11.537-6.1236-11.537h-23.412l15.799 27.505-23.885 32.005h24.528l9.9127-14.751 8.3226 14.751h22.329zm-167.4-59.51h-26.795l-27.471 59.51h22.938l3.1802-7.9166h14.615l0.71046 7.9166h21.145l-8.3226-59.51zm-14.412 38.128h-8.5594c0.43981-1.7931 1.8269-6.1574 4.5335-12.991 1.1164-3.0449 1.7931-5.6499 2.4697-7.8152l1.5563 20.807zm182.56-88.842c18.574 0 37.012 0.60897 55.044 1.8269-9.8789-1.3194-19.825-2.4021-29.907-3.2817-19.453-1.6578-39.279-2.5712-59.476-2.5712-20.333 0-40.158 0.84579-59.645 2.5712-125.08 10.894-229.14 55.417-277.96 115.57 74.328-68.239 213.04-114.11 371.95-114.11" fill="url(#a)"/>
 </g>
</svg>
