<?xml version="1.0" encoding="UTF-8" standalone="no"?>
<!-- Created with Inkscape (http://www.inkscape.org/) -->
<svg xmlns:rdf="http://www.w3.org/1999/02/22-rdf-syntax-ns#" xmlns="http://www.w3.org/2000/svg" height="161.44" width="600" version="1.1" xmlns:cc="http://creativecommons.org/ns#" xmlns:xlink="http://www.w3.org/1999/xlink" xmlns:dc="http://purl.org/dc/elements/1.1/">
 <defs>
  <linearGradient id="linearGradient20083" y2="584.32" gradientUnits="userSpaceOnUse" x2="663.98" gradientTransform="matrix(1.1309224,0,0,1.1309224,238.06179,-1355.414)" y1="584.32" x1="134.84">
   <stop stop-color="#e99a07" offset="0"/>
   <stop stop-color="#ffd89c" offset="0.5"/>
   <stop stop-color="#e99a07" offset="1"/>
  </linearGradient>
 </defs>
 <metadata>
  <rdf:RDF>
   <cc:Work rdf:about="">
    <dc:format>image/svg+xml</dc:format>
    <dc:type rdf:resource="http://purl.org/dc/dcmitype/StillImage"/>
    <dc:title/>
   </cc:Work>
  </rdf:RDF>
 </metadata>
 <g fill-rule="nonzero" transform="translate(-390.5565,774.51836)">
  <path d="m990.56-734.91-0.57511,0.47364c-76.832,70.1-219.53,117.29-383.04,117.29-19.149,0-38.162-0.71046-56.77-1.9622,20.637,2.7742,41.782,4.635,63.502,5.4808,9.3037,0.33831,19.013,0.54131,28.689,0.54131,9.6421,0,19.318-0.203,28.994-0.54131,142.87-5.7852,263.89-53.725,318.63-120.61l0.57511-0.67663zm-322.28,76.223,7.4092-59.51-21.145,0-3.3832,30.685c-4.0598-10.759-8.7963-21.01-14.446-30.685h-21.382l-7.646,59.51h21.382l3.1802-30.99,14.852,30.99h21.179zm28.825,0,7.2062-59.51-21.619,0-7.6798,59.51,22.092,0zm109.28-16.205-18.269,0,0.91346-6.5634,16.036,0,1.7931-14.751-16.036,0,0.91346-6.631,17.593,0,1.9961-15.36-38.94,0-7.443,59.51,39.177,0,2.2667-16.205zm-43.034,16.205-17.356-30.956,21.855-28.554-24.528,0-7.443,11.537-6.1236-11.537-23.412,0,15.799,27.505-23.885,32.005,24.528,0,9.9127-14.751,8.3226,14.751,22.329,0zm-167.4-59.51-26.795,0-27.471,59.51,22.938,0,3.1802-7.9166,14.615,0,0.71047,7.9166,21.145,0-8.3226-59.51zm-14.412,38.128-8.5594,0c0.43981-1.7931,1.8269-6.1574,4.5335-12.991,1.1164-3.0449,1.7931-5.6499,2.4697-7.8152l1.5563,20.807zm183.13-89.31c18.574,0,37.012,0.60897,55.044,1.8269-9.8789-1.3194-19.825-2.402-29.907-3.2817-19.453-1.6578-39.279-2.5712-59.476-2.5712-20.333,0-40.158,0.8458-59.645,2.5712-125.08,10.894-229.14,55.417-277.96,115.57,74.328-68.239,213.04-114.11,371.95-114.11" fill="#000"/>
  <path d="m988.97-736.49-0.57518,0.47364c-76.832,70.1-219.53,117.29-383.04,117.29-19.149,0-38.162-0.71047-56.77-1.9622,20.637,2.7742,41.782,4.635,63.502,5.4808,9.3038,0.33831,19.013,0.54131,28.689,0.54131,9.6421,0,19.318-0.203,28.994-0.54131,142.87-5.7852,263.89-53.725,318.63-120.61l0.57518-0.67664zm-322.28,76.223,7.4092-59.51-21.145,0-3.3832,30.685c-4.0598-10.759-8.7963-21.01-14.446-30.685h-21.382l-7.646,59.51h21.382l3.1802-30.99,14.852,30.99h21.179zm28.825,0,7.2062-59.51-21.619,0-7.6798,59.51,22.092,0zm109.28-16.205-18.269,0,0.91346-6.5634,16.036,0,1.7931-14.751-16.036,0,0.91345-6.631,17.593,0,1.9961-15.36-38.94,0-7.443,59.51,39.177,0,2.2667-16.205zm-43.034,16.205-17.356-30.956,21.855-28.554-24.528,0-7.443,11.537-6.1236-11.537-23.412,0,15.799,27.505-23.885,32.005,24.528,0,9.9127-14.751,8.3226,14.751,22.329,0zm-167.4-59.51-26.795,0-27.471,59.51,22.938,0,3.1802-7.9166,14.615,0,0.71046,7.9166,21.145,0-8.3226-59.51zm-14.412,38.128-8.5594,0c0.43981-1.7931,1.8269-6.1574,4.5335-12.991,1.1164-3.0449,1.7931-5.6499,2.4697-7.8152l1.5563,20.807zm182.56-88.842c18.574,0,37.012,0.60897,55.044,1.8269-9.8789-1.3194-19.825-2.4021-29.907-3.2817-19.453-1.6578-39.279-2.5712-59.476-2.5712-20.333,0-40.158,0.84579-59.645,2.5712-125.08,10.894-229.14,55.417-277.96,115.57,74.328-68.239,213.04-114.11,371.95-114.11" fill="url(#linearGradient20083)"/>
 </g>
</svg>
