<svg width="800" height="428.33" version="1.0" viewBox="-1.7947 -1.7947 90.096 48.245" xmlns="http://www.w3.org/2000/svg">
 <path d="m-1.7483 17.295s46.017-17.464 41.816 0.70464c14.559-4.8669 22.822-7.3578 32.254-7.9486 9.001-0.75 15.984 1.3306 15.984 1.3306v15.622s-10.304-3.4818-26.35 0.1371c-18.073 4.7349-36.924 14.157-33.783-0.01109 1.1391-5.1381-5.9355-2.8397-11.462-1.3679-11.472 3.0564-18.46 6.131-18.46 6.131v-14.598" fill="#00a6eb" Googl="true"/>
 <g fill="#1b1c20">
  <path d="m1.2144-1.7947-3.0161 9.3387h3.4919l0.30444-1.2036h2.5534l0.30343 1.2036h3.506l-3.0161-9.3387zm2.0504 3.2278 0.68751 2.6855h-1.3629z" fill-rule="evenodd"/>
  <g>
   <path d="m12.988-1.7947v9.3387h3.2409v-3.0947c0-0.48992-0.0131-0.96572-0.02722-1.4546 0.15927 0.27722 0.31754 0.54234 0.48992 0.81955 0.21168 0.33064 0.42339 0.66129 0.64818 0.97883l1.8256 2.751h3.2409v-9.3387h-3.2409v3.5454c0 0.36996 0.0131 0.74093 0.0262 1.1109-0.17136-0.30443-0.34374-0.59476-0.52922-0.89919l-0.4758-0.75403-2.0111-3.003h-3.1875"/>
   <path d="m34.3-1.7947h-7.1562v2.8044h1.8518v6.5343h3.4395v-6.5343h1.8649z"/>
   <path d="m39.036-1.7947v9.3387h6.3629v-2.6058h-3.1885v-0.87298h2.8579v-2.4869h-2.8579v-0.76713h3.0958v-2.6058z"/>
   <path d="m51.417-1.7947v9.3387h3.2409v-3.0947c0-0.48992-0.01311-0.96572-0.02621-1.4546 0.15827 0.27722 0.31753 0.54234 0.48992 0.81955 0.21068 0.33064 0.42339 0.66129 0.64818 0.97883l1.8256 2.751h3.2399v-9.3387h-3.2399v3.5454c0 0.36996 0.0121 0.74093 0.02622 1.1109-0.17238-0.30443-0.34375-0.59476-0.52924-0.89919l-0.47681-0.75403-2.0101-3.003h-3.1885"/>
   <path d="m66.804-1.7947v9.3387h3.2409v-3.0947c0-0.48992-0.01411-0.96572-0.02722-1.4546 0.15927 0.27722 0.31753 0.54234 0.48992 0.81955 0.21169 0.33064 0.42339 0.66129 0.64818 0.97883l1.8256 2.751h3.2399v-9.3387h-3.2399v3.5454c0 0.36996 0.01311 0.74093 0.02622 1.1109-0.17238-0.30443-0.34376-0.59476-0.52923-0.89919l-0.47681-0.75403-2.0101-3.003h-3.1875"/>
   <path d="m81.87-1.7947v9.3387h6.3619v-2.6058h-3.1875v-0.87298h2.8568v-2.4869h-2.8568v-0.76713h3.0947v-2.6058z"/>
  </g>
  <path d="m-1.714 36.9v9.3256h3.6905c1.1381-0.0131 1.6139-0.05242 2.1825-0.19859 2.13-0.54234 3.2671-2.2218 3.2671-4.372 0-2.2016-1.1905-3.3659-1.8911-3.8689-0.88609-0.62097-1.8649-0.80645-2.9103-0.85988-0.27822-0.01311-0.56854-0.02621-0.85988-0.02621zm3.4395 2.8841c0.50201 0.0131 1.005 0.0131 1.4546 0.2631 0.78024 0.43548 0.82056 1.2258 0.82056 1.503 0 1.2127-0.78125 1.6079-1.244 1.7258-0.2641 0.07964-0.4758 0.10585-1.0181 0.10585l-0.0131-3.5978" fill-rule="evenodd"/>
  <path d="m8.6146 36.887v5.2117c0 0.75403 0 1.4284 0.27823 2.13 0.19858 0.50201 0.4889 0.89919 0.91229 1.2429 1.1643 0.96572 2.7913 0.96572 3.1875 0.96572 1.4687 0 2.3286-0.4496 2.8447-0.82056 0.10585-0.09173 0.27722-0.2248 0.50202-0.4627 0.82055-0.9123 0.84677-1.9839 0.85988-3.1351v-5.132h-3.4385v5.371c0 0.30343-0.0131 0.58165-0.18548 0.84576-0.15928 0.22581-0.39718 0.34375-0.66129 0.34375-0.17238 0-0.34375-0.05242-0.48993-0.14516-0.27722-0.18448-0.38306-0.4627-0.38306-1.0978v-5.3175zm1.5212-0.79334c0.2379 0.2248 0.55543 0.35685 0.88609 0.36996 0.6885 0 1.2571-0.55544 1.2571-1.256 0-0.68851-0.55544-1.2439-1.2439-1.2439-0.6875 0-1.256 0.54234-1.256 1.2439 0 0.4627 0.2379 0.76713 0.35685 0.88609m3.7964 0c0.2379 0.2379 0.55544 0.36996 0.88608 0.36996 0.68851 0 1.244-0.55544 1.2571-1.2429 0-0.6885-0.55544-1.2571-1.2571-1.2571-0.6875 0-1.2429 0.54234-1.2429 1.2439 0 0.4627 0.2379 0.76713 0.35685 0.88609" fill-rule="evenodd"/>
  <g>
   <path d="m25.494 37.522c-0.42338-0.19859-1.1905-0.62197-2.3679-0.80746-0.42339-0.06552-0.75404-0.07863-0.9123-0.07863-1.4153 0-2.8579 0.54234-3.5192 1.8911-0.11894 0.2379-0.34374 0.75403-0.34374 1.4818 0 1.6663 1.2298 2.2359 1.7853 2.4335 0.37096 0.11895 0.97984 0.25202 1.376 0.31754 0.25101 0.05343 0.67439 0.10585 0.67439 0.48992 0 0.29032-0.30344 0.56855-0.88609 0.56855-0.83267 0-1.6401-0.55544-2.2883-1.005l-1.0847 2.5655c0.63508 0.33064 1.9445 1.0585 3.8357 1.0585 1.1119 0 2.0111-0.25101 2.8447-0.99193 0.96572-0.88609 1.0847-1.8649 1.0847-2.381 0-0.63508-0.17238-1.8921-1.7329-2.5-0.39717-0.14516-1.0847-0.30443-1.495-0.39718-0.26511-0.05242-0.7016-0.10585-0.7016-0.4758 0-0.29133 0.25202-0.46371 0.76713-0.4758 0.74092 0 1.3498 0.35685 1.9718 0.72681l0.99194-2.4204"/>
   <path d="m33.851 37.522c-0.42339-0.19859-1.1905-0.62197-2.3679-0.80746-0.42338-0.06552-0.75403-0.07863-0.9123-0.07863-1.4153 0-2.8578 0.54234-3.5191 1.8911-0.11896 0.2379-0.34375 0.75403-0.34375 1.4818 0 1.6663 1.2308 2.2359 1.7863 2.4335 0.36996 0.11895 0.97882 0.25202 1.375 0.31754 0.25101 0.05343 0.67438 0.10585 0.67438 0.48992 0 0.29032-0.30342 0.56855-0.88608 0.56855-0.83267 0-1.6401-0.55544-2.2883-1.005l-1.0847 2.5655c0.63509 0.33064 1.9446 1.0585 3.8357 1.0585 1.1119 0 2.0111-0.25101 2.8447-0.99193 0.96573-0.88609 1.0847-1.8649 1.0847-2.381 0-0.63508-0.17237-1.8921-1.7328-2.5-0.39718-0.14516-1.0847-0.30443-1.495-0.39718-0.26411-0.05242-0.70161-0.10585-0.70161-0.4758 0-0.29133 0.25202-0.46371 0.76714-0.4758 0.74092 0 1.3498 0.35685 1.9718 0.72681l0.99194-2.4204"/>
   <path d="m35.33 36.887v9.3387h6.3629v-2.6058h-3.1875v-0.87298h2.8569v-2.4869h-2.8569v-0.76714h3.0947v-2.6058z"/>
   <path d="m47.135 36.887h-3.4395v9.3387h6.376v-3.0554h-2.9365z"/>
  </g>
  <g fill-rule="evenodd">
   <path d="m51.202 36.9v9.3256h3.6905c1.1371-0.0131 1.6139-0.05242 2.1825-0.19859 2.13-0.54234 3.2671-2.2218 3.2671-4.372 0-2.2016-1.1905-3.3659-1.8911-3.8689-0.88609-0.62097-1.8649-0.80645-2.9103-0.85988-0.27721-0.01311-0.56855-0.02621-0.85987-0.02621zm3.4395 2.8841c0.50201 0.0131 1.005 0.0131 1.4546 0.2631 0.78025 0.43548 0.82057 1.2258 0.82057 1.503 0 1.2127-0.78125 1.6079-1.244 1.7258-0.2641 0.07964-0.4758 0.10585-1.0181 0.10585l-0.0131-3.5978"/>
   <path d="m66.042 36.649c-1.4153 0-2.3548 0.4627-2.8447 0.76713-0.52822 0.34375-1.626 1.2298-2.0232 2.9103-0.13206 0.55544-0.14617 1.0444-0.14617 1.2429 0 2.1169 1.1643 3.8226 3.1623 4.5373 0.88609 0.31754 1.6532 0.34375 2.0101 0.34375 2.871 0 4.9476-2.0504 4.9476-4.9203 0-0.60887-0.09274-1.0978-0.14516-1.3095-0.39718-1.5212-1.495-2.4072-1.9315-2.6986-1.2308-0.83367-2.5-0.88609-3.0292-0.87298m0.03932 3.0947c0.71472-0.0131 1.2964 0.41028 1.5484 1.0716 0.05242 0.11895 0.13205 0.37097 0.13205 0.74092 0 1.0323-0.63507 1.5081-0.97883 1.6663-0.13205 0.06653-0.35684 0.14617-0.71471 0.14617-1.0182 0-1.6401-0.82056-1.6532-1.7863 0-1.005 0.59476-1.4939 0.93851-1.6663 0.31754-0.15927 0.59576-0.17238 0.72782-0.17238"/>
   <path d="m72.368 36.887v9.3387h3.2016v-3.4264l1.7329 3.4264h3.624l-2.2611-3.7429c0.29032-0.10585 0.50201-0.19859 0.75403-0.37097 0.42239-0.30444 0.97783-0.89919 0.97783-2.1159 0-0.96572-0.36996-1.5353-0.60786-1.8387-0.67439-0.88709-1.6532-1.1774-2.7248-1.2439-0.27823-0.02621-0.55545-0.02621-0.83367-0.02621zm3.2016 2.5262h0.4496c0.13306 0 1.0585-0.07863 1.0585 0.76714 0 0.23891-0.07964 0.39718-0.13206 0.47681-0.21169 0.31754-0.56956 0.33064-0.9133 0.33064h-0.4627v-1.5746"/>
  </g>
  <path d="m81.818 36.887v9.3387h3.4395v-3.2278h2.5665v-2.5131h-2.5665v-0.89919h2.9234v-2.6986z"/>
 </g>
 <g fill="#fff">
  <g>
   <path d="m42.027 22.578-1.4345 0.49294 1.0706 3.1109c0.10988 0.29536 0.2127 0.59375 0.42136 0.84879 0.22682 0.2631 0.47279 0.37298 0.60484 0.42843 0.58065 0.21875 1.2258 0.08972 1.7853-0.10282 0.75302-0.25907 1.5111-0.64415 1.7449-1.4546 0.1744-0.5877-7e-3 -1.0464-0.06955-1.25l-1.0726-3.1169-1.4274 0.49193 0.99394 2.8881c0.07662 0.24496 0.15525 0.49697 0.06957 0.76008-0.05243 0.1502-0.1744 0.37802-0.54032 0.50403-0.70968 0.24496-0.9748-0.29335-1.0635-0.50302-0.03125-0.06754-0.05545-0.1371-0.08568-0.20363l-0.99698-2.8941"/>
   <path d="m46.476 21.127 1.5151 4.9566 1.4587-0.44556-0.63609-2.0776 2.1875 1.6028 1.872-0.57157-2.879-1.8911 1.2399-3.0282-1.8135 0.55443-0.88104 2.4345-0.60584-1.9798z"/>
   <path d="m59.359 17.262-1.4587 0.41835-0.13005 3.3145-1.8528-2.746-1.1371 0.32661-0.10887 3.3074-1.9113-2.7288-1.4728 0.42238 3.2006 4.4748 1.3639-0.39113 0.0877-3.1038 1.7571 2.5746 1.3488-0.38609z"/>
   <path d="m62.563 16.592 0.23689 1.2177 0.80342-0.15625 0.75303 3.8699 1.37-0.26613-0.98892-5.0877z"/>
  </g>
  <path d="m67.595 15.555c-0.65222 0.09879-1.0192 0.38004-1.2077 0.5625-0.43951 0.41734-0.79234 1.1794-0.60988 2.4728 0.15221 1.0837 0.56956 1.6552 0.94254 1.9657 0.41632 0.3498 0.7752 0.39516 0.99899 0.40827 0.23992 0.01815 0.45866-0.0121 0.54133-0.02419 0.65322-0.09173 1.1744-0.35786 1.5262-0.91129 0.27722-0.4244 0.45666-1.0504 0.30545-2.126-0.13911-0.99596-0.48185-1.5262-0.8115-1.8508-0.26713-0.26613-0.76914-0.62601-1.6855-0.49697m0.12903 1.1905c0.38206-0.06149 0.57156 0.25302 0.63003 0.34173 0.249 0.40927 0.31452 0.93346 0.33368 1.0645 0.05645 0.40726 0.10382 1.0161-0.16532 1.3881-0.12803 0.18044-0.29133 0.21875-0.3881 0.23185-0.03831 0.0051-0.12097 0.01714-0.20968-0.01512-0.34274-0.0998-0.61795-0.63911-0.7248-1.3962-0.10181-0.72681-0.03327-1.2177 0.21673-1.4607 0.03931-0.04234 0.14213-0.13105 0.30746-0.15423" fill-rule="evenodd"/>
  <path d="m72.534 15.203-1.9083 3.1663 0.05343 1.004 2.4466-0.12802 0.05745 1.1139 1.371-0.07157-0.05746-1.1139 0.63609-0.03427-0.05847-1.1069-0.6361 0.03327-0.15523-2.9546zm0.44959 1.3296 0.08368 1.6058-1.0756 0.05645z" fill-rule="evenodd"/>
  <path d="m75.883 18.858-0.85685 2.3639h1.0685l1.1915-2.3639z"/>
  <path d="m79.977 19.253c0.53126-0.41835 1.2419-0.96774 1.5333-1.5978 0.10181-0.20464 0.16128-0.4506 0.18044-0.66935 0.06452-0.73891-0.29335-1.1754-0.51108-1.379-0.23287-0.21169-0.55847-0.40322-1.2389-0.4627-0.36995-0.03226-0.63205 4e-3 -0.78729 0.03427-0.69758 0.1381-1.2268 0.62298-1.4587 1.2661-0.08972 0.24193-0.11189 0.49798-0.12601 0.57762l1.4798 0.1371c-0.0016-0.06653-4e-3 -0.125 8.06e-4 -0.18347 0.03427-0.3881 0.32056-0.70161 0.73588-0.66532 0.37802 0.03226 0.55243 0.29839 0.52219 0.64919-0.02622 0.38105-0.23085 0.62903-0.48286 0.90121-0.14214 0.1502-0.3004 0.29839-0.45061 0.44758-0.23991 0.22177-0.47983 0.43649-0.71875 0.65222l-0.59374 0.52218c-0.27318 0.24193-0.54637 0.49798-0.8125 0.75504l4.1633 0.36391 0.10585-1.2137-1.5413-0.13508"/>
 </g>
</svg>
