<svg version="1.1" viewBox="0 0 443.07 390.36" xmlns="http://www.w3.org/2000/svg">
 <g transform="translate(-128.46 -337.18)">
  <path d="m354.05 616.42c-68.392 0-123.83-55.44-123.83-123.83 0-68.387 55.438-123.82 123.83-123.82 68.39 0 123.83 55.437 123.83 123.82 0 68.389-55.437 123.83-123.83 123.83zm0-279.24c-86.614 0-156.83 70.21-156.83 156.82 0 86.612 156.83 233.54 156.83 233.54s156.82-146.93 156.82-233.54c0-86.609-70.21-156.82-156.82-156.82" fill="#00b0e3"/>
  <path d="m539.21 538.13-237.2 41.783-2e-3 -43.894 237.2-41.842v43.953z" fill="#f08889"/>
  <path d="m571.54 488.6-443.07 78.093v-104.07l443.07-78.093z" fill="#e73040"/>
  <path d="m521.36 529.14v-8.1925l-4.1954 0.74112v8.1904l-5.2561 0.92748v-19.487l5.2561-0.92712v7.1573l4.1954-0.73968v-7.1577l5.2532-0.92711v19.488zm-19.521 3.6959c-2.5232 0.44381-4.8155 0.12101-6.6923-1.5045-1.6144-1.4197-2.3483-3.8359-2.3483-6.6036 0-2.4327 0.41042-4.3512 1.4097-6.288 1.7314-3.3526 4.6952-5.2449 8.2762-5.8769 2.0844-0.36876 4.2858-0.1964 5.2255 0.50485l-2.2313 4.0833c-0.90988-0.50988-1.9379-0.69193-3.0535-0.49553-0.90989 0.16087-1.7598 0.53323-2.2891 1.1591-0.99749 1.1544-1.321 2.2169-1.321 4.5103 0 3.2151 0.14758 4.7268 0.99858 5.5257 0.67576 0.63699 1.5257 0.96303 2.6115 0.77164 1.3224-0.23339 2.3788-0.72782 3.5228-1.9074l2.2607 3.0126c-1.2916 1.3742-3.3763 2.5803-6.3695 3.1085m-13.869-0.65351c-0.88044 1.7774-3.1411 3.6866-7.1922 4.4011-3.2277 0.56914-5.4891 0.15692-6.6934-1.2528-0.79067-0.8948-0.99712-1.3619-0.99712-3.9616v-13.253l5.2833-0.93107v12.721c0 1.7892 0.58851 2.8876 2.4377 2.562 1.8779-0.33069 2.4072-1.4302 2.4072-3.3314v-12.805l5.2532-0.92604v13.476c0 1.6772-0.0876 2.4478-0.49874 3.3016m-31.543 8.4144v-19.487l11.888-2.0966-0.38169 4.1792-6.2528 1.1013v3.2722l5.1078-0.90054v3.9695l-5.1078 0.89983v3.9706l7.0151-1.2359v4.1652zm-21.914-11.533-1.4668 0.25746v3.9717l1.4984-0.26464c1.7892-0.3167 2.4061-1.2356 2.4061-2.5498 0-1.3986-0.79281-1.7048-2.4377-1.4147zm3.0819 14.834-2.1426-5.0751c-0.79067-1.8725-1.2618-2.0406-2.4061-1.8402v7.7175l-5.255 0.92497v-19.486l7.0446-1.2417c6.0184-1.0618 7.9562 0.91814 7.9562 4.1609 0 3.3548-1.8492 5.3864-4.2557 6.2008 0.70234 0.0732 1.5544 0.81724 2.0542 1.7361 0.67468 1.1939 2.4072 4.4959 3.0819 5.8313l-6.0776 1.0718zm-18.923-17.556c-1.4086 0.24847-2.6119-0.54542-2.6119-1.833 0-1.312 1.1429-2.5498 2.4948-2.7878 1.437-0.25458 2.6402 0.56877 2.6402 1.8819 0 1.2866-1.1738 2.5009-2.5232 2.739zm-7.0345 1.2399c-1.4104 0.24812-2.6148-0.54471-2.6148-1.8334 0-1.3117 1.1462-2.5487 2.497-2.7867 1.437-0.25243 2.6413 0.56804 2.6413 1.883 0 1.2855-1.1738 2.4988-2.5235 2.7372zm10.635 16.234c-0.88043 1.7774-3.1422 3.6855-7.19 4.3993-3.2305 0.56983-5.4891 0.15656-6.6945-1.2521-0.79175-0.89588-0.99642-1.362-0.99642-3.9623v-13.252l5.2837-0.93143v12.721c0 1.7896 0.58637 2.8887 2.4356 2.562 1.879-0.33069 2.4054-1.4309 2.4054-3.3332v-12.804l5.255-0.92533v13.476c0 1.6761-0.0876 2.4467-0.49874 3.3027m-19.934-9.0791-5.6334 0.99354v3.2711l4.5781-0.80718v3.9699l-4.5781 0.80683v8.1369l-5.2564 0.92603v-19.488l11.272-1.9856zm-33.81 5.9534-1.4668 0.25854v3.9717l1.4962-0.26463c1.7914-0.3167 2.4072-1.2348 2.4072-2.5498 0-1.3975-0.79283-1.706-2.4366-1.4158zm3.0819 14.835-2.1415-5.0751c-0.79283-1.8736-1.2632-2.0417-2.4072-1.8402v7.7164l-5.255 0.92713v-19.488l7.0453-1.2417c6.0166-1.0618 7.9555 0.91814 7.9555 4.1609 0 3.3548-1.8496 5.3864-4.2564 6.2026 0.70306 0.0714 1.5551 0.81651 2.0539 1.7354 0.6747 1.195 2.4061 4.497 3.0819 5.8313zm-26.704 4.7289v-19.488l11.889-2.0959-0.38061 4.1781-6.2536 1.1024v3.2715l5.1074-0.90198v3.9706l-5.1074 0.90091v3.9695l7.0158-1.2356v4.1648l-12.271 2.1641zm-10.451 1.832v-19.486l5.3713-0.94757v19.487zm-10.394 1.823v-8.1904l-4.1964 0.73897v8.1925l-5.255 0.92604v-19.487l5.255-0.9264v7.1577l4.1964-0.74111v-7.1573l5.2532-0.92532v19.487zm209.93-88.991v-48.617l-10.363 5.7925-2.111-13.317 17.081-8.39 10.554-1.8628v63.721zm-54.026-28.045c-4.2241 0.74434-7.2948 4.5907-7.6765 9.4722l14.393-2.5376c0.19032-5.3203-2.4937-7.6787-6.7167-6.9347zm20.629 14.017-28.403 5.0069c0.0977 6.2137 3.9358 9.1229 11.803 7.7365 4.7034-0.82945 9.5972-2.6363 14.011-5.3964l1.3426 10.62c-5.372 3.1178-11.802 5.2887-17.655 6.3228-15.641 2.7573-24.279-3.1767-24.279-19.698 0-14.443 8.1577-26.548 22.936-29.154 14.394-2.5386 20.727 5.879 20.727 18.151 0 1.9828-0.19103 4.0938-0.48044 6.4112m-80.7-5.4065 0.19318-0.0359c2.8775-5.3221 8.1552-9.8392 15.736-11.177 10.652-1.8779 14.202 4.1997 14.202 12.319v33.133l-14.681 2.5882v-29.829c0-3.777-1.0546-5.8575-4.4133-5.265-5.0884 0.89659-9.4058 7.8891-9.4058 14.779v22.752l-14.681 2.5885v-35.967c-2.3034 0.0288-5.5645 0.22585-8.3473 0.52711v-9.2489c7.0036-1.9918 14.874-3.758 21.974-4.7246 0 1.7921-0.0966 5.208-0.57595 7.5584m-57.479 10.135 0.19138-0.0323c2.8794-5.3225 8.1559-9.8396 15.735-11.177 10.652-1.8768 14.202 4.1986 14.202 12.317v33.136l-14.681 2.5885v-29.832c0-3.776-1.0546-5.8546-4.4133-5.2632-5.0851 0.89767-9.4026 7.8902-9.4026 14.781v22.752l-14.682 2.5892v-35.967c-2.3034 0.0288-5.5666 0.22514-8.3494 0.52747v-9.251c7.0069-1.991 14.874-3.7569 21.975-4.7239 0 1.7925-0.0955 5.2072-0.57487 7.5573m-45.773 10.054c-4.2208 0.74183-7.292 4.5882-7.6776 9.4708l14.393-2.5386c0.19426-5.3189-2.4937-7.6783-6.7157-6.9322zm20.632 14.014-28.404 5.0069c0.0938 6.2137 3.9329 9.1257 11.802 7.7365 4.7024-0.82872 9.595-2.6363 14.011-5.3946l1.3426 10.618c-5.3753 3.1185-11.803 5.2898-17.658 6.3239-15.642 2.7573-24.277-3.1778-24.277-19.698 0-14.442 8.1559-26.549 22.935-29.154 14.393-2.5386 20.728 5.8801 20.728 18.152 0 1.9817-0.19425 4.0916-0.47935 6.4094m-59.306 31.414c-11.036 1.9462-14.588-1.0165-14.588-12.533v-21.807l-7.195 1.2682v-11.045l7.195-1.269v-13.877l14.588-6.4417v17.748l10.363-1.828v11.046l-10.268 1.8097v18.503c0 4.8133 1.2478 6.1997 4.8937 5.5573 1.7282-0.30628 3.8392-1.0564 5.3742-1.7038v11.422c-3.1666 1.3142-6.911 2.5397-10.363 3.1501m-58.039-30.359 0.19138-0.0359c2.8797-5.321 8.1559-9.8392 15.739-11.177 10.651-1.8769 14.202 4.1986 14.202 12.317v33.136l-14.682 2.5892v-29.833c0-3.7763-1.0567-5.8546-4.4133-5.2632-5.0862 0.89767-9.4051 7.888-9.4051 14.781v22.75l-14.681 2.5892v-35.965c-2.3024 0.0251-5.5652 0.22478-8.3491 0.52712v-9.2532c7.0069-1.9889 14.873-3.7548 21.976-4.7236 0 1.7943-0.097 5.2101-0.57738 7.5602m-45.1 27.306c-10.558 1.8604-13.051 5.1318-13.051 8.5315 0 2.3591 1.725 3.7559 4.7957 3.2133 4.8959-0.86428 8.2557-5.7986 8.2557-10.422zm1.3426 20.059c0-2.3616 0-4.8144 0.38277-7.2421l-0.0948 0.0144c-2.3031 5.3142-7.9645 9.524-14.586 10.689-9.1157 1.6093-13.915-2.8316-13.915-10.382 0-11.896 11.706-19.624 26.871-22.296v-1.7953c0-3.87-2.2086-5.3692-8.5415-4.2517-4.223 0.74435-9.98 3.0801-13.913 5.8507l-1.154-11.691c4.8956-2.3745 11.323-4.734 17.274-5.7842 16.409-2.8916 21.015 2.3368 21.015 13.098v20.392c2.3024-0.0287 5.5634-0.22801 8.3473-0.52927v9.2511c-6.9099 1.9738-14.777 3.7386-21.686 4.674" fill="#fff"/>
 </g>
</svg>
