<svg version="1.1" viewBox="0 0 800 713.46" xml:space="preserve" xmlns="http://www.w3.org/2000/svg">
<style type="text/css">
	.st0{fill:#D71920;}
	.st1{fill:#FFD288;}
</style>
<g transform="matrix(7.1282 0 0 7.1282 -4.5621 .92667)">
	<path d="m112.34 80.16c0.01-0.23 0.01-0.68 0.1-1.18 0-0.38 0.01-0.91-0.08-1.69 0.09 0.03 0.09 0.03 0.09-0.05-0.08-0.25-0.17-0.36-0.08-0.41l0.08 0.03v-0.15c-0.08-0.18-0.08-0.41-0.16-0.81 0.09-0.35 0.09-0.81 0.1-1.41-0.08-0.03-0.08-0.03-0.09-0.1l0.01-0.91c0.09-0.2 0.09-0.28 0.09-0.2v-0.3c-0.08-0.26-0.08-0.33-0.08-0.41l0.01-0.68c0-0.15 0-0.38-0.08-0.71l0.01-0.68 0.27-1.43c0-0.38-0.08-0.93-0.24-1.67v-0.6c0.09-0.27 0.09-0.5 0.09-0.65 0-0.23 0.01-0.6-0.08-1.24-0.08-0.56-0.08-0.94 0.01-1.21 0.06-1.06 0.13-1.65 0.16-1.77l-0.06-0.02-0.16-1.04 0.01-0.83c0.09 0.03 0.09 0.03 0.09-0.05l0.01-0.68-0.09-0.03v-0.38l-0.08-0.03c0-0.38 0.21-1.47-0.04-1.78l0.03-1.14c-0.08-0.18-0.08-0.48 0.01-0.91l0.12-2.09c-0.08-0.33-0.08-0.56-0.07-0.79-0.08-0.11-0.09-0.26 0.01-0.46 0.1-0.73 0.19-1.31 0.11-1.79v-0.23l0.01-0.45c0.01-0.91 0.02-1.37 0.02-1.37-0.08-0.1-0.08-0.18-0.08-0.41l0.04-2.88c0.05-2.65 0.43-7.44 0.52-7.25l-0.24-1.3 0.03-1.67c0.1-0.96 0.2-1.53 0.2-1.61l-0.63-0.78-1.12 0.05c0.01-0.09-0.36-0.02-1.03 0-0.22 0.03-0.68 0.11-1.19 0.11-0.38 0.06-2.03 0.53-2.79 0.74 0.01-0.09 0.01-0.09-0.06-0.08-0.24 0.13-0.33 0.23-0.39 0.15l0.01-0.09-0.15 0.02c-0.16 0.11-0.39 0.15-0.78 0.3-0.36-0.03-0.1 0.05-0.7 0.15-0.01 0.09-0.01 0.09-0.09 0.1l-0.9 0.15c-0.22-0.05-0.29-0.04-0.22-0.05l-0.3 0.05c-0.24 0.13-0.31 0.14-0.39 0.15l-0.68 0.11c-0.15 0.03-0.38 0.06-0.69 0.2l-0.68 0.11-1.47-0.02c-0.38 0.06-0.91 0.24-1.61 0.53l-0.6 0.1c-0.29-0.04-0.52 0-0.66 0.02-0.23 0.04-0.6 0.1-1.22 0.29-0.54 0.18-0.91 0.24-1.2 0.2-1.06 0.12-5.47 0.43-5.59 0.42l-0.01 0.06-1 0.34-0.83 0.14c0.01-0.09 0.01-0.09-0.06-0.08l-0.68 0.11-0.01 0.09-0.37 0.06-0.01 0.08c-0.21 0.04-0.64 0.05-1.04 0.1v-0.11l-0.06-2.83c0.09-0.43 0.18-0.7 0.09-0.88 0-0.08-0.08-0.26-0.17-0.43 0.18-0.4 0.27-0.9 0.19-1.61v-0.07c0-0.23-0.17-0.51-0.17-0.59v-0.3c0.09-0.12 0.09-0.2 0.09-0.28l0.02-1.89c0-0.08 0-0.23 0.09-0.28 0.1-0.65-0.26 0.38-0.34-0.34 0-0.08 0-0.08-0.09-0.1-0.07-1.31-0.07-2.07-0.06-2.3 0.09 0.03 0.09 1.43 0.18 0.78 0.01-0.22 0.01-0.68 0.1-1.18 0-0.38 0.01-0.91-0.07-1.69 0.09 0.03 0.09 0.03 0.09-0.05-0.08-0.25-0.17-0.36-0.08-0.41l0.08 0.03v-0.15c-0.08-0.18-0.08-0.41-0.16-0.81 0.09-0.35 0.09-0.8 0.1-1.41-0.08-0.03-0.08-0.03-0.09-0.1l0.01-0.91c0.09-0.2 0.09-0.28 0.09-0.2v-0.3c-0.08-0.26-0.08-0.33-0.08-0.41v-0.68c0-0.15 0-0.38-0.08-0.71v-0.68l0.27-1.43c0-0.38-0.08-0.93-0.24-1.67v-0.6c0.09-0.27 0.09-0.5 0.09-0.65 0-0.23 0.01-0.6-0.08-1.24-0.08-0.56-0.08-0.94 0.01-1.21 0.06-1.06 0.13-1.65 0.16-1.77l-0.06-0.02-0.16-1.04 0.01-0.83c0.09 0.03 0.09 0.03 0.09-0.05l0.01-0.68-0.09-0.03v-0.38l-0.08-0.03c0-0.38 0.21-1.47-0.04-1.78l0.03-1.14c-0.08-0.18-0.08-0.48 0.01-0.91-0.27-0.09-0.08-0.35-0.49-0.35s-0.68 0.19-0.96 0.16c-0.27-0.03-0.69 0.24-0.69 0.24-0.15 0.03-0.52 0-1.03 0-0.07 0.01-0.07 0.01-0.14-0.06l-0.08 0.01 0.35 0.37c0.01-0.09-0.14-0.07-0.35-0.11l-0.3 0.05c-0.4 0.24-0.63 0.37-0.7 0.29-0.29-0.04 1.64-0.33 1.11-0.16l-0.9 0.15-0.23 0.04c-0.29-0.04-0.5-0.09-0.73-0.05l-0.49 0.17c-0.24 0.13-0.46 0.16-0.61 0.19-0.75 0.12-1.13 0.19-1.13 0.19l-2.8 0.55c-0.44-0.01-0.73-0.05-0.89 0.07-0.08 0.01-0.24 0.13-0.4 0.24-0.43-0.1-0.94-0.1-1.63 0.1l-0.07 0.01c-0.23 0.04-0.48 0.26-0.55 0.27l-0.3 0.05c-0.14-0.07-0.21-0.05-0.29-0.04l-1.88 0.31c-0.08 0.01-0.23 0.04-0.29-0.04-0.67 0.02-1.42 0.14-2.11 0.35-0.07 0.02-0.07 0.02-0.09 0.1-1.29 0.3-2.04 0.43-2.27 0.46 0.01-0.09-0.36-0.02-1.03 0-0.22 0.03-0.68 0.11-1.19 0.11-0.38 0.06-0.9 0.15-1.66 0.37 0.01-0.09 0.01-0.09-0.06-0.07-0.24 0.13-0.32 0.23-0.39 0.15l0.01-0.09-0.15 0.02c-0.16 0.11-0.39 0.15-0.77 0.3-0.36-0.02-0.81 0.05-1.42 0.15-0.01 0.09-0.01 0.09-0.09 0.1l-0.9 0.15c-0.22-0.05-0.29-0.04-0.22-0.05l-0.3 0.05c-0.24 0.13-0.31 0.14-0.39 0.15l-0.68 0.11c-0.15 0.03-0.38 0.06-0.69 0.2l-0.66 0.12-1.47-0.02c-0.38 0.06-0.91 0.24-1.61 0.53l-0.6 0.1c-0.29-0.04-0.51 0-0.66 0.02-0.23 0.04-0.6 0.1-1.21 0.29-0.54 0.18-0.91 0.24-1.2 0.2-1.06 0.12-1.66 0.16-1.78 0.15l-0.01 0.06-1 0.34-0.83 0.14c0.01-0.09 0.01-0.09-0.06-0.08l-0.68 0.11-0.02 0.11-0.37 0.06-0.01 0.08c-0.38 0.07-1.5 0.05-1.76 0.35l-1.14 0.17c-0.16 0.11-0.46 0.16-0.9 0.15l-2.1 0.24c-0.32 0.13-0.54 0.17-0.77 0.21-0.09 0.1-0.24 0.13-0.46 0.07-0.74 0.03-1.33 0.04-1.79 0.2l-0.23 0.03-0.45 0.07c-0.9 0.14-1.36 0.22-1.36 0.22-0.09 0.1-0.16 0.11-0.39 0.15l-2.86 0.46c-2.64 0.41-3.85 0.61-3.68 0.49l-1.25 0.46-1.66 0.26c-0.97 0.07-1.56 0.07-1.63 0.09-0.22 0.03-1.07 0.25-2.36 0.55 0 0-0.98 0.16-0.75 0.12-0.3 0.05-0.88-0.03-1.11 0-0.15 0.02-0.46 0.16-1.01 0.33-0.09 0.1-0.24 0.13-0.48 0.25-0.39 0.15-0.92 0.23-1.43 0.23-0.51-0.01-0.8-0.05-0.96-0.02-0.31 0.14-0.3 0.05-2.11 0.33 0 0-0.23 0.04-0.68 0.11-0.07 0.01 0.37 0.18-0.01 0.24h0.01c-0.12 0.02-0.29 0.05-0.54 0.09-0.3 0.05 0.63-0.01 0.16 0.15l-0.38 0.06-1.96 0.31-0.3 0.05s-0.7 0.31-1.08 0-0.95 1.07-0.95 1.07c-0.04 0.84 0.14 0.59 0.04 0.94l0.13 0.89-0.09 2.19-0.01 0.3-0.09 1.99-0.01 0.38c0.06 0.48 0.13 0.89 0.12 1.2-0.01 0.24-0.02 0.41-0.03 0.53-0.01 0.38-0.11 0.66-0.21 0.78 0 0.23 0.15 0.67 0.15 0.74l-0.03 0.69c-0.08 1.82-0.16 1.8-0.09 2.13-0.01 0.15-0.11 0.43-0.21 0.93-0.11 0.51-0.13 1.04-0.06 1.45 0.07 0.26 0.07 0.41 0.15 0.51 0.06 0.56 0.14 0.89 0.13 1.05-0.01 0.23-0.2 0.78-0.22 1.09 0.01-0.23-0.03 0.76-0.03 0.76 0.03 1.32 0.08 2.19 0.07 2.42 0 0.08-0.11 0.66-0.24 1.62l-0.07 1.67 0.2 1.3c-0.08-0.18-0.13 1.04-0.25 3.7l-0.12 2.89c-0.01 0.23-0.01 0.3 0.07 0.41 0 0-0.02 0.46-0.05 1.37l-0.03 0.69c0.07 0.49-0.04 1.07-0.16 1.8-0.1 0.2-0.1 0.35-0.02 0.46-0.01 0.23-0.02 0.45 0.05 0.79l-0.17 2.1c-0.1 0.43-0.11 0.73-0.03 0.91l-0.06 1.15c0.25 0.31 0.01 1.41 0 1.79l0.08 0.03-0.01 0.38 0.08 0.03-0.02 0.68c0 0.08 0 0.08-0.09 0.05l-0.03 0.83 0.14 1.05 0.06 0.02c-0.03 0.12-0.11 0.71-0.2 1.78-0.1 0.27-0.11 0.65-0.04 1.21 0.07 0.64 0.06 1.01 0.05 1.24 0 0.15-0.01 0.38-0.11 0.66l-0.02 0.61 1.23-0.18 0.38-0.06c0.47-0.16 0.86-0.31 1.16-0.36 0.24-0.04 0.42-0.07 0.54-0.09h-0.01c0.38-0.06 0.66-0.02 0.8 0.05 0.22-0.04 0.63-0.28 0.71-0.29 0.45-0.07 0.68-0.11 0.68-0.11 1.81-0.29-0.09 0.18 0.23 0.04 0.15-0.02 0.82-0.36 1.33-0.35 0.52 0 2.21-0.31 2.61-0.45 0.24-0.11 0.4-0.14 0.49-0.23 0.55-0.15 0.86-0.28 1.02-0.3 0.23-0.03 0.8 0.07 1.11 0.04-0.23 0.03 0.76-0.09 0.76-0.09 1.31-0.25 2.16-0.44 2.38-0.47 0.07-0.01 0.56 0 1.36-0.02-0.03 0.33-0.1 0.69-0.17 1.11-0.1 0.2-0.11 0.35-0.02 0.46-0.01 0.23-0.02 0.45 0.04 0.79l-0.2 2.09c-0.11 0.42-0.12 0.73-0.04 0.91l-0.07 1.14c0.24 0.32-0.01 1.4-0.02 1.78l0.08 0.03-0.01 0.38 0.09 0.03-0.03 0.68c0 0.07 0 0.07-0.09 0.05l-0.04 0.83 0.13 1.04 0.06 0.02c-0.04 0.11-0.12 0.71-0.22 1.76-0.1 0.27-0.12 0.65-0.06 1.21 0.06 0.64 0.05 1.01 0.04 1.24 0 0.15-0.01 0.38-0.11 0.65l-0.02 0.6c0.14 0.74 0.2 1.3 0.19 1.68l-0.32 1.42-0.08 0.65c0.07 0.33 0.06 0.56 0.06 0.71l-0.03 0.68c0 0.08-0.01 0.15 0.07 0.41l-0.01 0.3c0-0.08 0 0-0.1 0.2l-0.04 0.9c0 0.08 0 0.08 0.08 0.1-0.02 0.61-0.04 1.06-0.14 1.41 0.07 0.4 0.06 0.63 0.14 0.81l-0.01 0.15-0.08-0.03c-0.09 0.05-0.01 0.15 0.07 0.41 0 0.07 0 0.07-0.09 0.05 0.06 0.78 0.03 1.31 0.02 1.69-0.11 0.5-0.13 0.95-0.14 1.18-0.11 0.65-0.13 1.03-0.21 1-0.01 0.23-0.04 0.98-0.01 2.3 0.08 0.03 0.08 0.03 0.08 0.11 0.06 0.71 0.03 1.47-0.09 2.12-0.09 0.05-0.09 0.2-0.1 0.27l0.13 0.19c0.62-0.16 1.97-0.4 4-0.63 0.08-0.01 0.23-0.04 0.44 0.02l0.38-0.06 0.62-0.29c0.83-0.13 1.42-0.14 1.79-0.11l0.86-0.31 2.19-0.35 0.3-0.05 1.96-0.31 0.38-0.06c0.46-0.16 0.86-0.31 1.16-0.36 0.24-0.04 0.42-0.07 0.54-0.09h-0.01c0.38-0.06 0.67-0.02 0.81 0.05 0.22-0.04 0.63-0.27 0.7-0.29 0.45-0.07 0.68-0.11 0.68-0.11 1.81-0.29 1.8-0.2 2.11-0.33 0.15-0.02 0.44 0.02 0.96 0.02s1.05-0.08 1.43-0.23c0.24-0.12 0.39-0.15 0.48-0.25 0.54-0.17 0.85-0.31 1.01-0.33 0.23-0.04 0.8 0.04 1.11 0-0.23 0.04 0.75-0.12 0.75-0.12 1.3-0.29 2.14-0.51 2.36-0.55 0.08-0.01 0.67-0.02 1.63-0.09l1.66-0.26 1.25-0.46c-0.16 0.12 1.04-0.08 3.68-0.49l2.86-0.46c0.23-0.04 0.3-0.05 0.39-0.14 0 0 0.45-0.07 1.36-0.22l0.45-0.07 0.23-0.04c0.47-0.16 1.06-0.17 1.79-0.2 0.22 0.06 0.36 0.03 0.46-0.07 0.23-0.03 0.45-0.07 0.77-0.21l2.1-0.24c0.44 0.02 0.74-0.03 0.9-0.15l1.14-0.17c0.26-0.3 1.38-0.28 1.76-0.35l0.02-0.08 0.37-0.06 0.01-0.09 0.68-0.11c0.07-0.01 0.07-0.01 0.06 0.08l0.83-0.14 1-0.34 0.01-0.06c0.12 0.01 0.72-0.03 1.78-0.15 0.29 0.04 0.66-0.02 1.2-0.2 0.61-0.19 0.99-0.25 1.21-0.29 0.15-0.03 0.38-0.07 0.67-0.02l0.6-0.1c0.7-0.29 1.24-0.46 1.61-0.53l1.47 0.02 0.68-0.11c0.31-0.14 0.54-0.18 0.69-0.2l0.68-0.11c0.08-0.01 0.15-0.02 0.39-0.15l0.3-0.05c-0.07 0.01 0 0 0.22 0.05l0.9-0.15c0.07-0.01 0.07-0.01 0.09-0.1 0.6-0.1 1.05-0.18 1.42-0.15 0.39-0.15 0.61-0.19 0.78-0.3l0.15-0.02-0.01 0.09c0.06 0.07 0.15-0.03 0.39-0.15 0.07-0.01 0.07-0.01 0.06 0.07 0.76-0.21 1.29-0.3 1.67-0.37 0.51 0.01 0.97-0.07 1.19-0.11 0.67-0.02 1.04-0.09 1.03 0 0.23-0.04 0.98-0.16 2.27-0.46 0.01-0.09 0.01-0.09 0.09-0.1 0.69-0.21 1.44-0.33 2.11-0.35 0.06 0.07 0.22 0.05 0.29 0.04l1.88-0.31c0.07-0.01 0.15-0.03 0.29 0.04l0.3-0.05c0.07-0.01 0.32-0.23 0.55-0.27l0.07-0.01c0.69-0.2 1.2-0.2 1.63-0.1 0.16-0.12 0.32-0.23 0.4-0.24 0.16-0.12 0.45-0.08 0.89-0.07l2.8-0.55s0.37-0.06 1.12-0.19c0.15-0.03 0.38-0.07 0.61-0.19l0.53-0.09c0.23-0.04 0.44 0.02 0.73 0.06l0.23-0.04 0.18-0.15c0.54-0.17 0.9-0.15 1.19-0.11 0.06 0.07 0.3-0.05 0.7-0.29l1.43-0.43c0.22 0.05 0.37 0.03 0.35 0.11l1.15-0.37 0.08-0.01c0.07 0.08 0.07 0.08 0.14 0.06 0.52 0 0.88 0.03 1.03 0 0.38-0.06 1.24-0.46 1.61-0.53l0.18-0.81-0.36-1.21c0.03 0.04 0.04-0.34 0.13-0.99" Googl="true"/><g fill="#d71920">
	<path class="st0" d="m53.66 48.14c0.01-0.01 0.01-0.01 0.02-0.01-0.01-0.04-0.02-0.04-0.02 0.01"/>
	<path class="st0" d="m71.66 19.4c-0.02 0.01-0.03 0.01-0.05 0.02 0.03 0.06 0.04 0.05 0.05-0.02"/>
	<path class="st0" d="m64.91 21.51c-0.01-0.01-0.01-0.02-0.02-0.02 0.01 0.1 0.01 0.1 0.02 0.02"/>
	<path class="st0" d="m70.31 42.63c-0.02 0.02-0.03 0.03-0.04 0.05 0.01 0.02 0.02 0.01 0.04-0.05"/>
	<path class="st0" d="m64.23 43.3-0.01-0.02c0.01 0.07 0.01 0.08 0.01 0.02"/>
	<path class="st0" d="m49.96 39.08c0-0.01 0.01-0.04 0.01-0.06 0 0-0.01 0.02-0.01 0.06"/>
	<path class="st0" d="m70.92 24.3c0.02 0.01 0.03 0.03 0.04 0.04 0.06-0.02 0.05-0.04-0.04-0.04"/></g><g fill="#ffd288">
	<path class="st1" d="m44.02 80.62c-0.06-0.11-0.05-0.23-0.05-0.3-0.27-0.85-0.89-2.31-0.88-2.63v-0.08c-0.11-0.18-0.17-0.32-0.17-0.36 0 0-0.39-1.5-0.85-3.28-0.08-0.32 0.02-0.71-0.06-1.04-0.06-0.25-0.32-0.44-0.38-0.69-0.21-0.81-0.53-1.31-0.7-1.97-0.06-0.23 0-0.74-0.05-0.93-0.17-0.68-0.28-0.86-0.28-0.88 0.42-0.23 0.54-0.25 0.54-0.29 0.18-0.07 0.24-0.12 0.3-0.17l0.54-0.56 0.12-0.02c-0.06 0.05 0.37-1.06 0.85-1.34v-0.08c0.06-0.01 0.06-0.01 0.12-0.06 0.25-0.31 0.43-0.58 0.5-0.74 0.07-0.28 0.08-0.48 0.14-0.6 0.18-1.82 0.28-3.15 0.31-4.05 0.01-0.19 0.14-0.64 0.15-0.8-0.11-0.33-0.16-0.52-0.16-0.55-0.05-0.26-0.04-0.54 0.02-0.74l-0.1-0.46c-0.05-0.26-0.04-0.46-0.04-0.57l-0.12-0.1 0.01-0.16c-0.06 0.01-0.06 0.01-0.12-0.02v-0.12l-0.12-0.06v-0.12c-0.06-0.03-0.17-0.12-0.17-0.24l-0.12 0.02v-0.08c-0.11-0.17-0.17-0.24-0.17-0.2l-0.11-0.17c-0.29-0.07-0.47-0.15-0.64-0.24l-0.12 0.02c-0.17-0.13-0.35-0.17-0.58-0.25-0.65 0.08-1.12 0-1.47-0.21l-0.06 0.01c-0.23-0.04-0.41-0.04-0.76-0.14-0.77 0.1-0.95 0.09-1.13 0.12l-0.21 0.06c-0.06 0.01-0.06 0.01-0.12-0.02-0.53 0.05-1.06 0.11-1.48 0.18l-0.36 0.06c-0.18 0.07-0.36 0.1-0.42 0.11-0.3 0.05-1.3 0.11-1.77 0.23-0.06 0.05-0.12 0.06-0.18 0.07l-1.13 0.2c-1.66 0.29-2.67 0.54-3.09 0.8-0.22 1.15-0.4 2.26-0.15 2.44 0.02 0.01 0.05 0.02 0.11 0.02-0.22 1.11-0.17 3.26-0.17 3.26 0.06 0.11 0.05 0.18-0.01 0.23 0.06 0.03 0.06 0.07 0.12 0.06v0.12l0.05 0.18-0.19 0.45c0.05 0.18 0.05 0.34 0.1 0.41l-0.13 0.25c-0.23 1.58-0.21 2.61-0.2 2.34 0.05 0.26 0.04 0.49 0.1 0.64-0.01 0.35-0.08 0.59-0.15 0.76l-0.01 0.15c-0.07 0.4-0.08 0.59-0.02 0.62 0.06 0.14 0.11 0.25 0.11 0.37l-0.01 0.32c0 0.04 0.06 0.07-0.01 0.19l0.12 0.02c0.05 0.3 0.04 0.49-0.14 0.56v0.08c-0.06 0.16-0.07 0.24-0.13 0.29v0.08l-0.06 0.01c-0.06 0.05-0.07 0.13-0.01 0.27l0.06-0.01c0 0.04 0 0.08-0.06 0.13-0.06 0.16-0.07 0.28-0.13 0.37v0.04l-0.06 0.05-0.01 0.19c-0.08 0.43-0.09 0.82-0.05 1.24-0.01 0.12 0.11 0.37 0.1 0.48l-0.2 0.57 0.06 0.07c0 0.15-0.01 0.27-0.07 0.36 0 0.08-0.01 0.16 0.05 0.19 0.04 0.45 0.03 0.88-0.05 1.32l-0.14 0.6c0 0.04 0 0.16 0.05 0.26-0.01 0.19-0.01 0.31-0.01 0.31l-0.02 0.58c0 0.04 0 0.04-0.06 0.09-0.02 0.43-0.02 0.62-0.02 0.62 0.04 0.57 0.03 0.76 0.04 0.65l-0.01 0.35c-0.06 0.16-0.07 0.28-0.07 0.36 0.04 0.35 0.04 0.54 0.09 0.59-0.01 0.03-0.03 0.08-0.06 0.18l-0.05 1.39c-0.03 0.85 0.01 1.35 0.12 1.52l0.24 0.08h0.24c0.29-0.01 0.71-0.07 1.31-0.2 0.24-0.08 0.36-0.09 0.36-0.09 0.3-0.05 0.54-0.08 0.72-0.07 0.06-0.01 0.12-0.02 0.12-0.06l0.24-0.04c0.24-0.08 0.42-0.1 0.48-0.11l0.3-0.05 0.66-0.18c0.18-0.03 0.3-0.05 0.36-0.02l0.66-0.22 0.01-0.16c0.06-0.05 0.06-0.09 0.06-0.13 0 0.04-0.05-0.18-0.16-0.59v-0.08c0.01-0.2 0.2-0.73 0.21-0.92 0.06-0.16 0.07-0.32 0.02-0.43l-0.2-0.53c0.01-0.15 0.14-0.6 0.15-0.76 0.01-0.19-0.1-0.64-0.09-0.83 0.07-0.24 0.14-0.45 0.14-0.56 0-0.15-0.1-0.49-0.1-0.64l0.21-0.92c0.07-0.2 0.07-0.28 0.07-0.32-0.05-0.34-0.04-0.65-0.09-0.83-0.01 0.27 0.02-0.5 0.03-0.78 0.08-0.59 0.1-0.52 0.1-0.67 0.06-0.09 0.06-0.13 0.07-0.17v-0.08c-0.06-0.03-0.06-0.07-0.06-0.11 0-0.08 0.01-0.19 0.07-0.4l0.01-0.39c0.01-0.2 0.01-0.31-0.05-0.42l0.02-0.66c0.07-0.16 0.01-0.15 0.01-0.35 0 0.08 0 0.04-0.06-0.07 0-0.04 0-0.08 0.06-0.13s0.06-0.05 0-0.08l0.36-0.21 0.18-0.03c0.06-0.01 0.06-0.01 0.06 0.03 0.29-0.01-0.02-0.04 0.1-0.06 0.36-0.06 1.43 2.11 1.37 2.15 0 0.04 0 0.08 0.05 0.14l-0.01 0.2c0 0.12 0.49 1.72 0.43 1.8 0.05 0.07 0.05 0.11 0.05 0.14 0.06 0.07 0.06 0.15-0.01 0.19 0.05 0.18 0.05 0.8 0.05 0.83-0.01 0.16 0.79 2.09 0.84 2.28l0.15 0.67c0.05 0.42 0.04 0.69-0.03 0.9 0.06 0.11 0.05 0.15 0.11 0.18-0.01 0.15-0.01 0.23-0.01 0.23 0.03 1 0.61 1.64 0.78 1.93 0.23 0.08 0.41 0.13 0.59 0.1 0.3-0.01 0.1-0.06 0.28-0.05 0.06 0.03-0.32 0.01-0.14-0.06 0.6-0.1 1.01-0.16 1.31-0.25 0.54-0.09 1.07-0.17 1.73-0.24 0.78-0.09 1.26-0.24 1.44-0.39 0.11-0.1 0.12-0.33-0.05-0.69m-9.41-14.02c0.06-0.05 0.06-0.09 0.07-0.2l0.01-0.35c0-0.04 0-0.12-0.05-0.15 0.01-0.23 0.01-0.35 0.01-0.35 0.08-0.63 0.09-1.02 0.1-1.17 0-0.04 0-0.08-0.05-0.11l0.01-0.23c0.06-0.05 0.06-0.13 0.07-0.21 0.08-0.51 0.04-1.16 0.01-2.01l0.01-0.15c0-0.04 0-0.08-0.06-0.11 0-0.02 0.14-1.56 0.05-2.67 0.06-0.01 0.11-0.02 0.11-0.02 0.18-0.07 0.36-0.22 0.55-0.36l0.35-0.06c0.06 0.03 0.24 0.04 0.47 0.03l0.18 0.05c0.3-0.05 0.54-0.13 0.78-0.25 0.12 0.1 0.23 0.11 0.35 0.13 0.23 0.07 0.35 0.09 0.41 0.08 0.28 0.46 0.39 0.74 0.38 0.86l-0.01 0.35-0.01 0.27-0.01 0.31-0.01 0.27-0.04 1.21c0 0.04-0.01 0.15 0.05 0.26l-0.04 0.28c0 0.08-0.01 0.19-0.07 0.4l-0.01 0.43c0 0.04 0 0.08 0.05 0.11l-0.01 0.27c-0.06 0.05-0.06 0.09-0.06 0.13-0.1 1.29-0.19 2.08-0.2 2.28l-0.01 0.12-0.06 0.01v0.15c0 0.04 0 0.08-0.06 0.09-0.07 0.2-0.19 0.34-0.25 0.47l-0.12 0.14-0.12 0.02c-0.18 0.15-0.37 0.29-0.48 0.35l-0.77 0.13s-0.06 0.01-0.12 0.06l-0.18 0.03c-0.06-0.03-0.06-0.03-0.12-0.02-0.18 0.03-0.42 0.07-0.78 0.17-0.26 0.08-0.38 0.1-0.45 0.08 0.04-0.03 0.05-0.26 0.12-0.69-0.01 0 0-0.16 0.01-0.43"/>
	<path class="st1" d="m80.61 50.88-0.01 0.08c0-0.04 0-0.07 0.01-0.08"/>
	<path class="st1" d="m55.57 77.47 0.01-0.01c-0.01-0.04-0.01-0.04-0.01 0.01"/>
	<path class="st1" d="m37.38 57.54c-0.01 0.01-0.01 0.01-0.02 0.01 0.02 0.04 0.02 0.04 0.02-0.01"/>
	<path class="st1" d="m48.6 59.71v0"/>
	<path class="st1" d="m72.89 50.24 0.05-0.01c-0.03-0.06-0.04-0.05-0.05 0.01"/>
	<path class="st1" d="m85.03 60.17c0.07-0.29 0.13-0.46 0.13-0.54 0-0.12-0.11-0.42-0.11-0.58 0 0.12 0.01-0.4 0.01-0.4 0.08-0.69 0.15-1.14 0.15-1.26 0-0.04-0.05-0.35-0.1-0.85l0.02-0.88 0.19-0.67c-0.06 0.09-0.05-0.55-0.02-1.94l0.04-1.51c0-0.12 0-0.16 0.06-0.21 0 0 0.01-0.24 0.02-0.72l0.01-0.24v-0.12c0.07-0.25 0.02-0.56-0.03-0.94-0.06-0.11-0.05-0.19 0.01-0.24 0-0.12 0.01-0.24 0.07-0.41l-0.04-1.1c-0.05-0.23-0.05-0.39 0.01-0.48-0.23-0.23-0.35-0.29-0.52-0.29l-0.12 0.02c-0.47 0.05-0.77 0.11-0.95 0.14-0.77 0.15-1.6 0.23-1.54 0.22-0.06 0.01-0.18 0.03-0.3 0.1-1.01 0.23-1.54 0.37-1.61 0.42-0.18 0.15-0.3 0.29-0.31 0.49l-0.06 0.01-0.01 0.2-0.06 0.01-0.01 0.36c0 0.04 0 0.04 0.06 0.03l-0.01 0.44-0.13 0.54-0.04 0.01c0.02 0.06 0.05 0.38 0.08 0.93 0.06 0.15 0.05 0.35-0.01 0.63-0.07 0.33-0.07 0.53-0.08 0.65 0 0.08-0.01 0.2 0.05 0.35l-0.01 0.32c-0.13 0.38-0.19 0.67-0.2 0.87l0.16 0.76-0.01 0.36c-0.06 0.17-0.07 0.29-0.07 0.37l-0.01 0.36c0 0.04 0 0.08-0.06 0.21l-0.01 0.16c0-0.04 0 0 0.06 0.11l-0.01 0.48c0 0.04 0 0.04-0.06 0.05-0.01 0.32-0.02 0.56 0.04 0.74-0.06 0.21-0.07 0.33-0.13 0.42v0.08l0.06-0.01c0.06 0.03 0 0.08-0.06 0.21 0 0.04 0 0.04 0.06 0.03-0.07 0.41-0.08 0.69-0.08 0.89 0.05 0.27 0.05 0.51 0.05 0.62 0.05 0.35 0.04 0.55 0.1 0.53 0 0.12-0.01 0.52-0.09 1.2-0.06 0.01-0.06 0.01-0.06 0.05-0.07 0.37-0.08 0.77-0.03 1.11 0.06 0.03 0.06 0.11 0.05 0.15l-0.02 0.99c0 0.04 0 0.08 0.05 0.15v0.16c0 0.04-0.12 0.18-0.13 0.3v0.04c-0.07 0.37-0.02 0.64 0.1 0.85-0.06 0.09-0.12 0.18-0.12 0.22-0.06 0.09-0.01 0.24 0.05 0.47l-0.1 1.48s-0.01 0.2-0.01 0.59c0 0.08-0.01 0.2-0.07 0.33l-0.01 0.28c0 0.12 0.06 0.23 0.11 0.38v0.12l-0.01 0.48c-0.07 0.29-0.01 0.48 0.04 0.63 0.06 0.03 0 0.16-0.13 0.38v0.16c0.05 0.11 0.05 0.19 0.11 0.18l-0.13 0.6v0.04c0.06 0.03 0.06 0.03 0.06 0.07 0.05 0.27 0.11 0.46 0.1 0.54 0 0.2-0.19 0.67-0.2 0.87 0 0.12-0.01 0.32 0.04 0.66 0 0.12-0.01 0.2-0.07 0.25v0.12l-0.06 0.01v0.16c0 0.04 0 0.04-0.06 0.05-0.06 0.17-0.07 0.33-0.01 0.52-0.26 1.08 0.63 0.8 1.41 0.74 0 0 0.42-0.07 1.31-0.23 0.12-0.02 0.3-0.05 0.53-0.14l0.48-0.08c1.02-0.18 1.62-0.36 1.68-0.57 0.01-0.36 0.01-0.56 0.01-0.56 0-0.2 0.01-0.36-0.05-0.43v-0.08c0-0.04 0-0.08-0.06-0.11v-0.2c0.01-0.32 0.02-0.48 0.07-0.49v-0.16l-0.06-0.03 0.13-0.46c0.07-0.33 0.09-1.05 0.05-2.11 0-0.04 0-0.12-0.05-0.23v-0.2l0.13-0.34c0.01-0.44-0.04-0.75-0.09-0.93l0.13-0.46 0.03-1.16v-0.16l0.02-1.04 0.01-0.2c0.07-0.25 0.13-0.46 0.13-0.62 0.01-0.4 0.01-0.48 0.01-0.28 0.01-0.2-0.05-0.35-0.11-0.42 0-0.12 0.13-0.34 0.13-0.38 0-0.24 0.01-0.36 0.01-0.36 0.02-0.96-0.04-0.94 0.03-1.11 0-0.08-0.05-0.23-0.11-0.5-0.05-0.27-0.04-0.55 0.02-0.76 0.07-0.13 0.07-0.21 0.14-0.26"/>
	<path class="st1" d="m87.6 68.09v-0.08c-0.01 0.09-0.01 0.12 0 0.08"/>
	<path class="st1" d="m101.96 66.12 0.04-2 0.01-0.52 0.02-0.76 0.01-0.68 0.01-0.36 0.01-0.6c-0.03-0.14-0.04-0.23-0.05-0.26 0.06-0.23 0.06-0.38 0.06-0.5v-0.16c-0.11-0.42-0.1-0.9 0.03-1.49l0.01-0.68v-0.12c0.06-0.52 0.11-0.72 0.13-0.65-0.02-0.19-0.1-0.54-0.1-0.68 0-0.2 0.13-0.62 0.13-0.79 0-0.2-0.1-0.78-0.1-0.98l0.03-1.52c0-0.04 0.12-0.22 0.12-0.26s-0.11-0.1-0.11-0.22l0.01-0.48 0.12-0.1-0.12-0.1 0.02-0.76c0.06-0.13 0.06-0.21 0.12-0.26 0-0.04-0.11-0.18-0.11-0.22l0.02-0.72c0-0.2 0.01-0.32 0.01-0.32l0.02-0.96c0-0.2 0.13-0.83 0.14-1.03l-0.16-0.69c-0.17-0.57-0.28-0.9-0.33-0.97-0.11-0.26-0.17-0.37-0.23-0.39l-0.12-0.02-0.28-0.46-0.47-0.35c-0.24-0.07-0.41-0.16-0.47-0.27l-0.12 0.02c-0.06-0.03-0.12-0.02-0.12-0.06l-0.23-0.15-0.23-0.03c-0.41-0.04-0.77-0.09-1-0.08l-0.06-0.03-0.06 0.01-0.12-0.06-0.95 0.02c0-0.04 0-0.04-0.06-0.07-0.12 0.02-0.18 0.04-0.18 0.04-0.3 0.06-0.53 0.1-0.77 0.11-0.65 0.09-1.07 0.17-1.25 0.2-0.18 0.07-0.3 0.1-0.36 0.11l-0.42 0.08c-0.18 0-0.3 0.02-0.41 0.04l-0.06 0.05-0.12 0.02c-0.47 0.13-0.83 0.2-1.07 0.25l-0.18 0.04c-0.78 0.31-1.31 0.53-1.67 0.72l-0.6 0.23c-0.36 0.19-0.66 0.33-0.84 0.36-0.06 0.09-0.12 0.18-0.12 0.22-0.48 0.41-0.72 0.61-0.72 0.65-0.43 0.68-0.31 0.81-0.79 1.06l-0.32 0.97c-0.19 0.51-0.26 1-0.27 1.44-0.02 0.84-0.03 1.16-0.08 0.89 0 0.16 0.11 0.58 0.1 0.74 0 0.08-0.06 0.25-0.13 0.46-0.06 0.21-0.07 0.33-0.01 0.44 0 0.04 0 0.04 0.06 0.03 0.05 0.19 0.05 0.39-0.02 0.6-0.06 0.05-0.06 0.05-0.06 0.09l-0.02 1c-0.06 0.13-0.06 0.25-0.06 0.29 0 0.12-0.01 0.24 0.05 0.39l-0.03 1.24c0.05 0.35 0.04 0.59 0.1 0.69 0.05 0.27-0.02 0.64-0.09 1.13-0.07 0.61-0.08 0.97-0.09 1.17v0.77c0-0.08-0.01 0.16 0.04 0.71-0.08 0.69-0.09 1.21-0.1 1.57l0.11 0.34c0.05 0.19 0.11 0.3 0.11 0.42 0 0.08-0.06 0.21-0.13 0.34v0.04l-0.06 0.05c-0.07 0.29-0.07 0.49-0.07 0.61 0 0.04 0 0.08 0.06 0.11v0.08c-0.01 0.4-0.02 0.68-0.08 0.89l0.1 0.78c0 0.12-0.01 0.4-0.08 0.85-0.04 0.26-0.06 0.4-0.07 0.45 0 0.05 0.01 0.09 0.05 0.11v0.28c0.06 0.03 0.06 0.03 0.06 0.07l-0.01 0.24c0 0.04 0 0.08 0.05 0.11 0 0.02-0.02 0.06-0.06 0.13-0.06 0.13-0.07 0.41-0.02 0.84 0.06 0.03 0.06 0.03 0.06 0.07v0.08c-0.06 0.01-0.06 0.05-0.06 0.09s0 0.04 0.06 0.03v0.08c0.16 0.61 0.21 0.91 0.21 0.95 0.06 0.19 0.23 0.28 0.41 0.32v0.2l0.12-0.02v0.08l0.06-0.01v0.08l0.06-0.01v0.08l0.17 0.13v0.04l0.06-0.01v0.12c0.35 0.18 1.18 0.59 1.41 0.58l0.24 0.12 0.3-0.05c0.06 0.03 0.06 0.07 0.06 0.11 0.18 0.01 0.24 0 0.3-0.05l0.39 0.09c0.06 0.03 0.06 0.03 0.12-0.02l0.12 0.06 0.06-0.01c0.06 0.03 0.3 0.03 0.6-0.03l1.43-0.1 0.3-0.05c0.59-0.07 1.07-0.15 1.37-0.17 0.9-0.16 1.85-0.41 2.93-0.81v-0.04c0.18-0.07 0.3-0.09 0.36-0.15l0.12-0.02v-0.04l0.12-0.02c0.06-0.05 0.06-0.05 0.12-0.02l1.51-1c0.12-0.18 0.25-0.32 0.37-0.39 0.97-1.02 1.03-1.07 1.04-1.39 0.06-0.05 0.06-0.05 0.06-0.09l0.13-0.54c0.06-0.25 0.13-0.38 0.13-0.34 0.06-0.13 0.06-0.17 0.12-0.22v-0.08c0.06-0.21 0.07-0.33 0.13-0.38 0.06-0.51 0.06-0.83 0.07-1.03m-5.88 2.36c-0.67 0.68-0.61 0.91-0.91 0.96-0.3 0.09-0.6 0.23-0.78 0.3-0.06 0.01-0.47-0.03-1.36-0.07-0.05-0.19-0.17-0.33-0.23-0.36-0.06-0.15-0.11-0.5-0.04-1.03l-0.05-0.03c0-0.02 0.02-0.09 0.06-0.21 0.07-0.61 0.03-1.28-0.01-1.95-0.05-0.31-0.05-0.51-0.05-0.55v-0.28c0.06-0.13 0.07-0.25 0.07-0.33s0-0.2-0.05-0.31l0.01-0.28c0.14-0.78 0.21-1.35 0.16-1.7 0-0.04 0-0.12-0.05-0.23l0.01-0.24c0-0.19 0.13-0.74 0.14-0.96 0-0.04-0.01-0.25-0.04-0.65 0 0 0.02-0.96 0.07-2.88 0-0.04 0-0.04 0.06-0.09 0-0.04 0-0.12-0.06-0.15l0.01-0.32c0.06-0.09 0.06-0.13 0.06-0.17v-0.12c-0.04-0.05-0.05-0.08-0.06-0.08l0.13-0.69c0 0.04 0-0.12-0.05-0.47 0 0 0-0.16 0.01-0.48l0.01-0.32c0.06-0.13 0.07-0.25 0.07-0.33 0.01-0.36-0.09-1.34-0.08-1.78 0.08-1.17 0.1-2.01 0.17-2.46 0.09-1.41 0.16-1.62 0.45-1.68 0.67-0.73 1.55-0.78 1.32-0.73 0.77-0.11 1.3 0.15 1.46 0.79v0.12c0.11 0.22 0.11 0.46-0.02 0.72-0.07 0.21-0.07 0.37-0.07 0.45l0.06 0.07-0.04 1.76-0.01 0.28-0.01 0.32c0 0.16 0.1 0.58 0.1 0.74-0.07 0.49-0.08 0.81-0.14 1.02 0 0.12 0.11 0.34 0.11 0.46-0.06-0.03-0.06 0.01-0.12 0.06l0.11 0.62-0.06 2.44-0.12 0.14c-0.07 0.53-0.08 1.05-0.03 1.56l-0.01 0.32-0.01 0.68v0.04c0.04 0.59 0.04 0.99-0.03 1.2v0.12l-0.01 0.2 0.1 0.98c-0.06-0.07-0.06 0.29-0.14 1.14-0.01 0.16 0.11 0.58 0.1 0.74 0 0.16-0.13 0.5-0.13 0.66 0 0.2 0.1 0.7 0.1 0.9v0.12c-0.06 0.17-0.13 0.3-0.13 0.38 0-0.12 0.11 0.46 0.1 0.66 0 0.04-0.07 0.21-0.13 0.46-0.07 0.25-0.08 0.41-0.02 0.52"/>
	<path class="st1" d="m77.42 68.17 0.01-0.24c0-0.04 0-0.12-0.05-0.15v-0.08c0-0.04 0-0.08 0.06-0.09 0.13-0.38 0.14-0.82 0.09-1.32l-0.16-0.6c0.02-0.63 0.03-1.11 0.1-1.4-0.05-0.27-0.05-0.43-0.04-0.55-0.1-0.77-0.09-1.21-0.03-1.3 0.06-0.05 0.06-0.09 0.12-0.1 0.07-0.29 0.13-0.5 0.13-0.66l0.04-1.51c0.07-0.65 0.09-1.08 0.09-1.32 0.07-0.37 0.08-0.76 0.03-1.23 0-0.12-0.11-0.41-0.1-0.57l0.19-0.47s0.01-0.12-0.05-0.39c-0.05-0.19-0.05-0.31 0.01-0.4l0.04-1.55-0.16-0.56c-0.04-0.94-0.02-1.66-0.01-2.09-0.05-0.15-0.05-0.27-0.11-0.33l-0.11-0.41v-0.08l-0.17-0.21c-0.11-0.29-0.17-0.48-0.22-0.51 0.01-0.24 0.01-0.4-0.05-0.46 0-0.04-0.59-0.09-0.65-0.04-0.06 0.01-0.12 0.02-0.18 0.07-0.06-0.11-0.06-0.19-0.11-0.22 0.18-0.07 0.24-0.2 0.19-0.39-0.24 0-0.47 0.05-0.65 0.08-0.41 0.04-0.71 0.09-0.89 0.17-1-0.25-0.88-0.19-0.88-0.19-0.29 0.02-0.53 0.06-0.71 0.09-0.47 0.09-1.02 0.43-1.02 0.51-0.18 0.07-0.3 0.13-0.42 0.16-0.12 0.02-0.18-0.01-0.23-0.11l0.36-0.07c0.18-0.07 0.24-0.12 0.24-0.16 0.01-0.18 0.01-0.3 0.02-0.36l-1.02 0.19c-0.53 0.1-0.89 0.17-1.19 0.18-0.06 0.05-0.06 0.05-0.12 0.06l-1.25 0.23c-0.12 0.1-0.18 0.19-0.12 0.22-0.06 0.05-0.18 0.11-0.3 0.14-0.18 0.03-0.3 0.05-0.3 0.01s-0.06-0.03-0.12 0.02c-0.35-0.04-0.53-0.07-0.54-0.09-0.23 0.16-0.31 0.29-1.24 0.42-0.42 0.04-0.71 0.09-0.77 0.1l-0.47-0.07-0.3 0.29c-0.06-0.03-0.18-0.05-0.3 0.02v-0.04c-0.06-0.03-0.24 0-0.53 0.18l-0.18 0.11c-0.01 0.32 0.16 0.44 0.4 0.43-0.05 0.03-0.07 0.05-0.11 0.09h-0.01c-0.21 0.16-0.37 0.29-0.42 0.36v0.16c-0.06 0.01-0.06 0.01-0.06 0.05v0.04l-0.06 0.05c-0.06 0.13-0.07 0.21-0.07 0.33l0.16 0.48-0.01 0.28c-0.06 0.17-0.07 0.29-0.07 0.33-0.01 0.31 0.14 1.11 0.14 1.43-0.06 0.17-0.07 0.29-0.07 0.33l-0.02 0.47c0 0.04 0 0.08-0.06 0.13-0.06 0.17-0.07 0.48-0.03 0.91 0 0 0 0.12-0.01 0.39 0.05 0.15 0.05 0.27 0.11 0.33 0.03 0.9 0.01 1.57-0.06 2.09 0.03 0.21 0.04 0.33 0.04 0.37-0.06 0.27-0.07 0.46-0.13 0.59l-0.01 0.43c0.05 0.19 0.05 0.31 0.05 0.38 0 0.12-0.01 0.28-0.07 0.48l-0.02 0.51c0 0.12-0.01 0.2 0.05 0.23l0.06 0.03v0.2l-0.01 0.32c-0.08 0.68-0.1 1.31-0.05 1.85l0.11 0.37v0.12c-0.06 0.09-0.06 0.13-0.07 0.17-0.07 0.56-0.14 0.77-0.13 0.65v0.2c-0.06 0.05-0.06 0.05-0.06 0.09-0.07 0.25-0.07 0.44-0.08 0.6l0.15 0.58c-0.01 0-0.02 0.03-0.05 0.07l-0.01 0.43s-0.01 0.31-0.03 0.91l-0.13 0.5c-0.01 0.2 0.16 0.64 0.15 0.84l0.06 0.03-0.01 0.16c0 0.04 0 0.04 0.06 0.03-0.01 0.32-0.2 0.98-0.21 1.18 0 0.04-0.01 0.2 0.05 0.46l-0.04 1.38c0.04 0.74 0.02 1.29 0.01 1.69-0.01 0.2-0.01 0.32-0.01 0.32 0.05 0.34 0.05 0.54 0.04 0.66 0.05 0.5 0.03 0.9 0.09 1.08v0.08c0.06 0.19 0.11 0.26 0.17 0.28 0.18 0.09 0.41 0.09 0.65 0.05 0.06-0.01 0.06-0.01 0.06 0.03 0.12-0.02 0.84-0.14 2.21-0.41 1.01-0.21 1.91-0.37 2.57-0.44 0.24-0.04 0.42-0.07 0.48-0.12 0.12-0.02 0.3-0.05 0.47-0.04l0.72-0.12c0.12-0.06 0.18-0.07 0.24-0.08 1.01-0.21 1.67-0.33 2.09-0.4l0.66-0.27 0.96-0.33c0.06-0.01 0.06-0.01 0.12-0.06l0.06-0.05c0.18 0.01 0.55-0.41 0.96-0.52 0.06-0.13 0.18-0.27 0.24-0.32-0.18-0.01 0-0.08 0.42-0.15 0.06-0.01 0.12-0.06 0.18-0.15v-0.08l0.18-0.23 0.06-0.05 0.49-0.72c0.06-0.17 0.13-0.3 0.13-0.42 0.06-0.05 0.06-0.17 0.01-0.36 0-0.04 0-0.04 0.06-0.05l0.01-0.48c0.06-0.13 0.13-0.42 0.14-0.86l0.01-0.2c0.06-0.13 0.06-0.21 0.06-0.25s0-0.08-0.06-0.19l0.01-0.48c0.06-0.09 0.06-0.17 0.07-0.21 0-0.04 0-0.12-0.06-0.15l0.01-0.32c0.06-0.13 0.13-0.42 0.14-0.93 0.01-0.25 0.01-0.41-0.04-0.52m-12.95 9.31c0.01 0 0 0 0 0m4.02-3.72c0.07-0.53 0.08-0.77 0.08-0.8l-0.11-0.45c0-0.12 0.13-0.42 0.13-0.54s0.01-0.24-0.05-0.39c-0.04-0.5-0.04-0.86-0.03-1.02 0 0 0-0.12 0.01-0.32-0.05-0.15-0.05-0.27-0.05-0.35s0.01-0.2 0.07-0.4l0.02-0.48c-0.05-0.19-0.05-0.31-0.05-0.31l0.13-0.49c-0.05-0.27-0.04-0.5-0.04-0.7v-0.16c0.06-0.13 0.06-0.21 0.07-0.25 0.07-0.13 0.07-0.25 0.01-0.36-0.05-0.15-0.11-0.26-0.11-0.3 0.07-0.33 0.07-0.52 0.07-0.6 0.01-0.2-0.1-0.57-0.1-0.73 0-0.08 0.07-0.21 0.13-0.42l0.01-0.43v-0.08c-0.03-0.22-0.06-0.35-0.08-0.38l0.16-0.46 0.01-0.44c-0.05-0.19-0.05-0.35-0.05-0.42 0-0.04 0.01-0.16 0.07-0.33l0.01-0.28c0-0.2 0.01-0.39-0.04-0.58 0.07-0.37 0.14-0.58 0.14-0.58 0.07-0.33-0.09-1.01-0.09-1.2 0.07-0.37 0.07-0.6 0.14-0.73l-0.16-0.52 0.08-0.64c0.01-0.36 0.02-0.63-0.04-0.86l0.01-0.16-0.06-0.07c0-0.12 0.13-0.38 0.13-0.5 0.07-0.25 0.08-0.72 0.04-1.38 0.02-0.59 0.09-1.08 0.21-1.38l0.36-0.18c0.3-0.05 0.47-0.09 0.47-0.09l0.71-0.13c0-0.04 0.12-0.06 0.36-0.03l0.18 0.01 0.17 0.17 0.35 0.09c0.46 0.51 0.39 0.91 0.38 1.35-0.06 0.09-0.06 0.13-0.12 0.14 0.04-0.01 0.05-0.01 0.07 0-0.05 0.09-0.1 0.48-0.16 1.2-0.07 0.37-0.08 0.64-0.02 0.91 0.05 0.19 0.05 0.35 0.05 0.47-0.05-0.19-0.06 0.05-0.08 0.72l-0.01 0.28c0.06 0.11 0.05 0.23 0.05 0.27l-0.04 1.63-0.06 2.26 0.11 0.45-0.03 0.99-0.01 0.4c-0.01 0.32-0.14 0.74-0.03 1.11 0.05 0.19 0.05 0.31 0.11 0.38-0.06-0.11-0.06 0.05-0.13 0.5l-0.02 0.67c0.06 0.15 0.05 0.19 0.11 0.14-0.07 0.21-0.19 0.43-0.25 0.56 0 0.12 0.11 0.49 0.1 0.65 0 0.16-0.13 0.54-0.14 0.69l0.11 0.3-0.01 0.2v0.12c0 0.06 0 0.15-0.01 0.28 0 0 0 0.08-0.01 0.24-0.06 0.05-0.06 0.05-0.12 0.06l-0.01 0.32-0.01 0.28-0.03 1.07-0.31 0.65v0.12 0.08c0.05 0.39 0.16 0.56 0.22 0.55l-0.12 0.14-0.12 0.02-0.16-0.31c-0.12-0.02-0.3 0.05-0.48 0.16l-0.06 0.05c-0.18 0.07-0.36 0.14-0.54 0.17l-0.12 0.02c-0.06 0.05-0.12 0.06-0.3 0.09-0.47 0.13-0.83 0.23-1.07 0.27"/>
	<path class="st1" d="m60.99 77.78c-0.06-0.11-0.06-0.15-0.05-0.19-0.05-0.19-0.05-0.34 0.01-0.47s0.07-0.25 0.07-0.29l-0.16-0.52c-0.05-0.27-0.05-0.5-0.04-0.62-0.04-0.5-0.1-0.73-0.1-0.77l-0.21-1.02 0.02-0.79c-0.06-0.11-0.05-0.19-0.11-0.22v-0.16c0-0.04 0-0.08-0.06-0.11l-0.1-0.73c-0.04-0.1-0.05-0.14-0.05-0.16 0.06-0.13 0.07-0.28 0.07-0.4 0.01-0.2-0.05-0.38-0.1-0.57v-0.12c-0.05-0.15-0.05-0.27-0.05-0.34v-0.16c-0.05-0.34-0.16-0.64-0.39-0.91 0.06-0.05 0.12-0.14 0.12-0.18l0.01-0.35c0.04-0.13 0.06-0.19 0.06-0.2 0-0.03-0.01-0.05-0.05-0.04v-0.12l-0.17-0.24 0.02-0.59-0.11-0.29v-0.08c-0.05-0.27-0.1-0.45-0.1-0.65l0.02-0.48c0.07-0.48-0.26-1.25-0.25-1.56-0.03-0.89-0.27-0.89-0.25-1.48 0.06-0.05 0.06-0.05 0.12-0.06l0.01-0.2c0-0.04 0-0.08 0.06-0.09 0-0.12-0.05-0.27-0.16-0.48 0.06-0.05 0.06-0.13 0-0.16 0.01-0.35-0.04-0.58-0.1-0.73-0.04-0.7-0.08-1.24-0.01-1.6-0.06-0.07-0.06-0.15 0.01-0.2l-0.1-0.27c0.01-0.03 0.02-0.09 0.06-0.19-0.06-0.11-0.05-0.22-0.05-0.42 0 0 0-0.08 0.01-0.28l-0.12-0.1v-0.12l0.04-1.26-0.06-0.03c-0.06-0.11-0.05-0.19-0.05-0.22-0.06-0.19-0.05-0.3-0.11-0.33-0.05-0.3-0.04-0.54-0.04-0.66l-0.06-0.03c0-0.04 0-0.04 0.06-0.09l-0.04-0.54c-0.06-0.07-0.06-0.15 0.01-0.2 0-0.04 0-0.08-0.06-0.11-0.04-0.81-0.02-1.52 0.07-2.2-0.53-0.1-0.53-0.22-0.76-0.29-0.29-0.02-0.53-0.02-0.71 0.01-0.11-0.17-0.23-0.23-0.29-0.18-0.06 0.09-0.13 0.18-0.13 0.26-0.12 0.1-0.6 0.23-1.49 0.35-0.53 0.06-1.07 0.15-1.6 0.25l-0.3 0.05c-0.24 0-0.29 0.01-0.24 0-0.12 0.02-0.24 0.04-0.3 0.09l-0.24 0.04-0.47 0.16c-0.02 0-0.12 0.01-0.24 0.01l-0.18 0.03-0.12-0.02-0.12 0.02-0.12 0.06-0.12 0.02c-0.06-0.03-0.12-0.02-0.18-0.01-0.24 0.04-0.6 0.11-1.13 0.24-0.18 0.07-0.24 0.16-0.18 0.27-0.36 0.3-0.54 0.41-0.79 0.72-0.01 0.19 0.05 0.26 0.11 0.25-0.06 0.17-0.07 0.28-0.13 0.37 0.04 0.58 0.09 1 0.08 1.31-0.07 0.25-0.13 0.33-0.13 0.22-0.12-0.02-0.18 0.07-0.24 0.2 0.05 0.26 0.1 0.49 0.04 0.69l-0.14 0.49c-0.07 0.52-0.09 0.91-0.09 1.18l-0.06 0.05-0.07 0.25v0.12c0 0.04 0 0.04-0.05 0.05 0.01 0.04 0.02 0.11 0.05 0.23 0.06 0.03-0.01 0.2-0.08 0.56-0.02 0.63-0.04 1.09 0.01 1.4-0.07 0.21-0.07 0.36-0.07 0.48l-0.01 0.19-0.26 0.63c0.05 0.38 0.04 0.69 0.03 0.89-0.07 0.17-0.07 0.28-0.13 0.37l-0.12 0.22-0.25 2.26c-0.01 0.35-0.02 0.59 0.04 0.69-0.06 0.05-0.06 0.13-0.06 0.17-0.06 0.17-0.13 0.29-0.13 0.37l-0.03 1.02-0.2 0.66c-0.01 0.43-0.02 0.78 0.03 1.01l-0.32 0.68-0.03 0.94c-0.06 0.13-0.07 0.21-0.07 0.28-0.01 0.12-0.01 0.2 0.05 0.22-0.06 0.01-0.06 0.01-0.06 0.05-0.06 0.05-0.06 0.05 0 0.08l-0.12 0.18c-0.08 0.52-0.15 0.92-0.16 1.12l-0.44 2.56c-0.09 0.87-0.17 1.58-0.19 2.17 0 0.04 0 0.08-0.07 0.16v0.16l-0.02 0.63c-0.07 0.4-0.14 0.64-0.08 0.75 0.06 0.03 0.17 0.09 0.17 0.13l0.35 0.14 0.3-0.05c0.06-0.01 0.12-0.02 0.18 0.01 0.3-0.09 0.48-0.12 0.6-0.14 0.18-0.03 0.36-0.06 0.42-0.03 1.13-0.19 2.03-0.33 2.62-0.47 0.06-0.13 0.12-0.06 0.3-0.28l0.12-0.18c0.03-0.07 0.07-0.11 0.09-0.14-0.03-0.02-0.02-0.22-0.01-0.61 0 0.04 0 0 0.06-0.17 0-0.12 0.01-0.2 0.01-0.2 0.15-0.92 0.22-1.48 0.17-1.71l0.01-0.24 0.16-0.26c0.06-0.05 0-0.12-0.05-0.15-0.06-0.07-0.14-1.48-0.08-1.49 0.36-0.1 0.66-0.19 0.84-0.18 0.9-0.19 1.37-0.27 1.49-0.25 0.06 0.03 0.12-0.02 0.18-0.07l0.3-0.05c0.48-0.04 0.77-0.01 0.95 0.08 0.1 0.45 0.3 2.2 0.29 2.47l0.28 0.42s0 0.03-0.05 0.08c0.01 0.02 0.02 0.06 0.04 0.12l0.1 0.69v0.08c0.05 0.3 0.1 0.53 0.1 0.65l0.06-0.01c0.06 0.07 0.06 0.15-0.01 0.2l1.01 0.15c0.06-0.01 0.42-0.07 1.07-0.22 1.19-0.24 1.97-0.37 2.33-0.43 0.66-0.23 1.02-0.33 1.08-0.38 0.05-0.13 0.11-0.34 0.06-0.52m-9.31-9.04c0.03-1.06-0.11-0.66-0.11-0.66l0.06-0.01c0.08-0.68 0.09-1.15 0.1-1.46l0.13-0.61s0.01-0.31 0.03-0.98l-0.06 0.01 0.01-0.23c0.06-0.13 0.06-0.21 0.07-0.24l0.02-0.51-0.17-0.36v-0.12l0.13-0.29c0.06-0.21 0.19-0.38 0.25-0.51l0.03-0.9c0.01-0.27 0.08-0.8 0.28-1.49v-0.08c0.13-0.45 0.14-0.85 0.09-1.15 0.2-0.62 0.33-0.96 0.33-1.03v-0.04c0.07-0.44 0.14-0.69 0.14-0.81l-0.12 0.02c0.01-0.2 0.01-0.31 0.01-0.31 0-0.12 0.01-0.19 0.01-0.24 0.01-0.12 0.07-0.28 0.25-0.51l-0.29-0.18c-0.06-0.03-0.05-0.22 0.02-0.51 0.06-0.05 0.06-0.05 0.06-0.09v-0.12c-0.06-0.03-0.06-0.07-0.06-0.07 0.06-0.05 0.06-0.05 0.06-0.09l0.02-0.78 0.24-0.12c0.06-0.01 0.06-0.01 0.06 0.03 0.06 0.03 0.05 0.18-0.01 0.43l0.23 0.35c-0.07 0.29-0.13 0.45-0.14 0.57 0.11 0.25 0.17 0.32 0.28 0.38 0.04 0.07 0.07 0.1 0.09 0.13-0.04 0.03-0.15 0.25-0.29 0.65-0.01 0.35-0.02 0.67 0.03 0.85v0.08c0 0.04 0 0.08-0.06 0.13 0.06 0.03 0.05 0.11 0.05 0.15v0.16c0.05 0.38 0.04 0.69-0.03 0.94l0.11 0.14-0.01 0.39-0.01 0.2v0.08c0.05 0.11 0.11 0.18 0.11 0.25l-0.02 0.74 0.16 0.6v0.2l0.11 0.41 0.05 0.03c-0.01 0.02-0.02 0.06-0.06 0.13l-0.01 0.16c-0.07 0.36-0.08 0.64-0.09 0.87-0.01 0.27 0.04 0.5 0.1 0.69l0.07-0.01v0.04c0.06 0.03 0.06 0.07 0.06 0.11 0.06 0.03 0.06 0.11-0.01 0.23 0.06-0.09 0.11 0.49 0.18 1.76l0.06 0.03v0.12c0.06 0.03 0.06 0.07 0.05 0.11 0.06 0.11 0.05 0.22-0.01 0.35l-0.06 0.05v0.16c-0.07 0.36-0.08 0.52-0.08 0.56 0.05 0.19 0.05 0.38 0.1 0.49l-0.02 0.43c-0.06 0.21-0.07 0.36-0.07 0.44-0.01 0.31-0.18 0.03-0.03 0.98l-0.01 0.27c0.06 0.15 0.11 0.26 0.11 0.29l0.1 0.42-0.72 0.36c-0.3 0.13-0.54 0.25-0.66 0.35-0.23-0.12-0.34-0.11-1.05 0.01-0.06-0.03-0.12-0.06-0.12-0.1l-0.18 0.03-0.17-0.09c0-0.04 0.01-0.32 0.08-0.76 0.06-0.13 0.18 0.2 0.13 0.02 0-0.04 0-0.08-0.05-0.19l0.01-0.2c0.01-0.2 0.14-0.8 0.15-1z"/></g><g fill="#d71920">
	<path class="st0" d="m47.72 21.49c0.06-0.22 0.06-0.34 0.01-0.46l-0.12-0.06v-0.17c-0.11-0.23-0.23-0.38-0.34-0.45l-0.12 0.02-0.35-0.07-0.89 0.18-0.18 0.03c-1.13 0.3-2.02 0.48-2.67 0.63l-0.18 0.24c-0.06 0.14 0 0.21 0.05 0.33 0.06-0.01 0.06 0.03 0.06 0.07-0.3 0.09-0.42 0.27-0.42 0.49 0.05 0.24 0.11 0.44 0.11 0.61 0.05 0.28 0.05 0.62-0.02 1.05v0.12l-0.01 0.46c0 0.13 0 0.21 0.05 0.24 0 0.21-0.19 0.82-0.19 0.95v0.09c0.06 0.16 0.11 0.27 0.11 0.4v0.13c-0.01 0.29-0.07 0.6-0.14 0.86 0.06 0.16 0.11 0.27 0.11 0.36l-0.01 0.21c0.06 0.2 0.05 0.37-0.01 0.59l-0.12 0.1-0.01 0.51v0.08l-0.01 0.34c0.17 0.39 0.22 0.88 0.15 1.44l-0.06 0.13-0.01 0.5c0 0.17-0.13 0.57-0.13 0.73 0.13 0.27 0.25 0.44 0.25 0.44l-0.26 0.49v0.08c0.06 0.07 0.11 0.11 0.11 0.11l0.18-0.03v0.08c0.18 0.01 0.18 0.01 0.12 0.06 0 0-0.08 0.85-0.08 0.89 0 0 0.17 0.22 0.11 0.36 0.05 0.2 0.11 0.36 0.11 0.48 0 0 0.05 0.54-0.01 0.59-0.18 0.07-0.39-0.79-0.5-0.9 0-0.04-0.58-1.19-0.58-1.19v-0.04c0.12-0.15 0.07-0.51 0.13-0.57 0.06-0.05-0.22-0.97-0.22-0.97-0.12-0.27-0.22-0.55-0.28-0.92v-0.17l-0.18-0.06 0.01-0.29-0.17-0.31c-0.05-0.54-0.04-0.91-0.03-1.12-0.11-0.44-0.17-0.64-0.17-0.52-0.16-1.02-0.32-1.62-0.38-1.74-0.05-0.29-0.05-0.5-0.05-0.66l-0.33-1.16c-0.16-0.94-0.21-1.35-0.14-1.65l-0.11-0.28v-0.25l-0.11-0.06c-0.05-0.33-0.11-0.57-0.11-0.57 0.06-0.14 0.06-0.26 0.01-0.29-0.17-0.18-0.59-0.24-1.24-0.23-0.18 0.03-0.65 0.1-1.54 0.2-0.42 0.28-0.66 0.48-0.72 0.62-0.24 0.08-0.47 0.16-0.77 0.16-0.29 0-0.53 0.04-0.59 0.05l-0.24 0.12c0 0.08 0 0.08-0.06 0.05-0.06-0.07-0.29-0.08-0.59-0.03-0.71 0.16-1.19 0.27-1.42 0.39-0.19 0.58-0.19 0.74-0.19 0.74v0.21c-0.12 0.23-0.18 0.36-0.18 0.41 0.06 0.2 0.11 0.4 0.23 0.51 0 0.04-0.06 0.22-0.25 0.54-0.06 0.22-0.07 0.39-0.01 0.55 0.06 0.03 0.18 0.18 0.23 0.17-0.06 0.09 0 0.21 0.11 0.4 0.05 0.16 0.05 0.29-0.01 0.42l-0.12 0.02c-0.06 0.05-0.06 0.14-0.06 0.18-0.19 0.58-0.25 0.92-0.26 1.05 0.06 0.07 0.06 0.16 0.12 0.19l-0.01 0.67c-0.01 0.1 0.03 0.17 0.08 0.2-0.03 0.03-0.04 0.21-0.09 0.55l-0.02 0.93c0.05 0.54 0.04 0.87-0.02 0.97-0.06 0.14 0 0.21 0.11 0.23 0 0.04-0.24 0.33-0.18 0.45 0 0.13 0.05 0.2 0.23 0.21 0.06 0.16-0.36 0.35-0.36 0.48-0.12 0.23 0.35 0.15 0.23 0.34-0.06 0.05-0.12 0.15-0.12 0.19-0.01 0.38 0.05 0.62 0.22 0.68-0.18 0.45-0.25 0.84-0.2 1.12v0.13c0.06 0.12 0.05 0.33-0.01 0.63-0.06 0.35-0.07 0.55-0.07 0.68l-0.01 0.29c0.05 0.12 0.05 0.24 0.05 0.29-0.06 0.05-0.06 0.05-0.06 0.09-0.07 0.26-0.07 0.39-0.01 0.42s0.06 0.03 0.06 0.08c-0.06 0.05 0 0.08 0 0.08 0.06 0.2 0.06 0.29-0.01 0.34 0 0.04 0 0.04-0.06 0.09 0 0.13 0.05 0.41 0.22 0.84v0.21l-0.24 0.21c-0.18 0.24-0.19 0.41-0.13 0.57v0.21l0.12-0.02c0.06 0.12 0.05 0.33-0.01 0.63l-0.06 0.09v0.37c0.05 0.28 0.11 0.48 0.11 0.52s-0.02 0.34-0.07 0.94c-0.08 1.4 0.13 2.62 0.13 2.79-0.07 0.39-0.25 0.63-0.31 0.68s0 0.17 0.05 0.45l-0.01 0.34c-0.06 0.18-0.07 0.3-0.13 0.36 0.11 0.32 0.23 0.51 0.34 0.61-0.06 0.18-0.12 0.31-0.18 0.37-0.06 0.05 0 0.13 0.06 0.16-0.06 0.13-0.06 0.22-0.06 0.26 0.06 0.07 0.05 0.12 0.05 0.12-0.06 0.01-0.12 0.02-0.12 0.06-0.06 0.22-0.01 0.46 0.04 0.79v0.17c-0.12 0.23-0.24 0.42-0.3 0.59l-0.06 0.14c0 0.04 0 0.08-0.06 0.13l-0.01 0.55c0.18 0.05 0.47 0.05 0.95-0.07 0.3-0.22 0.65-0.36 0.65-0.4 0.06-0.01 0.12-0.02 0.12 0.02 0.88-0.07 1.41-0.11 1.65-0.15 0.53-0.09 1.01-0.25 1.36-0.52 0.06-0.13 0.07-0.47 0.02-0.92-0.05-0.58-0.04-1.04 0.02-1.34-0.05-0.24-0.11-0.4-0.05-0.49 0.07-0.64 0.14-1.07 0.08-1.35 0.07-0.47 0.13-0.77 0.13-0.82-0.04-0.91-0.09-1.49-0.09-1.7v-0.12c0.06-0.14 0.12-0.23 0.12-0.27 0.06-0.18 0.01-0.38-0.11-0.57v-0.12c-0.06-0.03-0.06-0.03-0.06-0.07 0-0.21 0.01-0.34 0.07-0.47l-0.11-0.15c0-0.21 0.01-0.29 0.01-0.29-0.02-0.12-0.03-0.2-0.04-0.25l0.18-0.65c0-0.13 0.01-0.21 0.01-0.21l-0.15-1.61c-0.06-0.03-0.12-0.11-0.11-0.15 0-0.09 0-0.17 0.06-0.31 0-0.04 0-0.04 0.06-0.05 0-0.04 0.18-0.33 0-0.68 0-0.04 0.01-0.29 0.44-0.94l-0.04-0.26 0.04-0.69c-0.29-0.25 0.5-0.51 0.5-0.51 0.17 0.35 0.22 0.67 0.16 0.94l0.14 0.17c0.06 0.03 0.06 0.07 0.06 0.12l0.12-0.02v0.08c0.46 0.3 0.49 1.76 0.38 1.95 0 0.29 0.05 0.62 0.16 0.89v0.08l0.05 0.24 0.18 0.18c0.05 0.16 0.11 0.27 0.11 0.4 0.05 0.53 0.51 0.88 0.57 0.91 0.23 0.04-0.07 0.55-0.13 0.57-0.06 0.3-0.13 0.61-0.07 0.81-0.06 0.05-0.06 0.05-0.12 0.06 0.06 0.03 0.18 0.01 0.16 0.89 0.06 0.03 0.11 0.06 0.11 0.11l0.17 0.51v0.13l0.17 0.35 0.16 1.15 0.17 0.22c0 0.21-0.01 0.38-0.07 0.47 0.06 0.2 0.05 0.32 0.11 0.4l0.25 2.72c0.06 0.07 0.12 0.1 0.17 0.1l0.35 0.11c0.12 0.02 0.3-0.01 0.53-0.09 0.65-0.24 0.71-0.33 1.01-0.38 0.18-0.03 0.47 0.09 0.47 0.09l2.18-0.24c0.41-0.03 0.77-0.09 1-0.17 0.3-0.05 0.65-0.15 0.95-0.33 0-0.13 0.06-0.18 0.24-0.25 0.06-0.14 0.06-0.26 0.01-0.33 0.07-0.3 0.07-0.64 0.08-0.93 0.07-0.97 0.08-1.39 0.14-1.27 0-0.04-0.18-0.05-0.17-0.18 0.13-0.31 0.19-0.66 0.2-0.95v-0.25l0.01-0.46c0.07-0.22 0.07-0.34 0.07-0.43v-0.21c-0.06-0.03-0.06-0.07-0.06-0.11 0-0.13 0.13-0.44 0.13-0.56l0.01-0.33 0.02-1.21c0.02-1.09 0.04-1.71 0.1-1.89 0.07-0.51 0.13-0.85 0.08-0.97 0-0.08 0-0.13-0.06-0.16v-0.17c-0.11-0.19-0.11-0.52 0.08-0.93 0.06-0.05 0.06-0.18 0.01-0.34 0-0.04 0-0.04-0.06-0.07 0.06-0.09 0.06-0.14 0.06-0.18l0.02-0.84c-0.06-0.03-0.06-0.03-0.12-0.02l0.13-0.69c0-0.04 0-0.04-0.06-0.07l0.01-0.46c-0.04-0.02-0.05-0.04-0.05-0.07 0.01-0.09 0.03-0.32 0.07-0.69v-0.08c0.13-0.48 0.19-0.78 0.19-0.82l-0.17-0.56c-0.04-0.9-0.03-1.6 0.04-2.08 0 0-0.01-0.03-0.05-0.05l0.03-1.76c0-0.13 0.01-0.33 0.07-0.55l0.01-0.42c0.06-0.3 0.07-0.51 0.07-0.6 0-0.04 0-0.08-0.06-0.12l-0.08-2.12-0.05-0.07v-0.29l0.12-0.02v-0.21c0.07-0.34 0.13-0.56 0.13-0.6 0-0.13-0.05-0.41-0.1-0.86v-0.13c0.01-0.05 0.08-0.57 0.21-1.46"/>
	<path class="st0" d="m61.9 18.51v-0.08c-0.12-0.11-0.17-0.18-0.17-0.22-0.35-0.15-0.65-0.23-0.88-0.23l-1.96 0.31s-0.36 0.05-1.01 0.16l-0.65 0.02c-0.47 0.03-0.83 0.09-1.13 0.14-0.24 0.04-0.47 0.07-0.65 0.14l-0.24 0.04c-0.22 0.07-0.44 0.14-0.67 0.19h-0.23l-0.24 0.04c-0.24 0-0.89 0.1-2.01 0.28l-0.83 0.13c-0.36 0.1-0.59 0.13-0.77 0.16s-5.22 0.97-5.4 0.96l-0.23 0.04c-0.36 0.1-0.66 0.14-0.83 0.21l-0.42 0.36v0.08c-0.06 0.14-0.12 0.23-0.12 0.27l-0.24 0.37v0.08c-0.06 0.18-0.13 0.35-0.13 0.52 0.06 0.03 0.11 0.15 0.11 0.32v0.04c0.06 0.16 0.05 0.28 0.11 0.36 0.47 0.22 0.34 0.4 1.83 0.17l5.76-1.05 0.06-0.05c0.3-0.09 0.48-0.12 0.59-0.13 0.06 0.03 0.18 0.05 0.24 0.05 0.18 0.1 0.23 0.17 0.29 0.25l-0.01 0.42c0 0.08 0 0.12-0.06 0.18 0 0.04 0 0.17 0.05 0.28 0.04 0.7 0.04 0.95 0.1 0.73l-0.01 0.17-0.12 0.27c0.06 0.03 0.06 0.07 0.12 0.07 0.06 0.07 0.05 0.41-0.02 0.96-0.07 0.38 0.04 1.08-0.03 1.8-0.01 0.21-0.07 0.38-0.13 0.52 0.04 0.7 0.03 1.24 0.09 1.61-0.01 0.33-0.07 0.59-0.13 0.73 0 0.17 0.11 0.61 0.1 0.77 0 0.17-0.13 0.6-0.13 0.77l0.1 0.65-0.02 1.13c-0.01 0.42 0.04 0.74 0.1 0.94 0.05 0.16-0.07 0.26-0.01 0.29-0.07 0.3-0.07 0.51-0.01 0.63l-0.12 0.02c0 0.29-0.01 0.46-0.01 0.46-0.01 0.32-0.01 0.49-0.01 0.51v0.12l-0.01 0.29c0.04 0.3 0.09 0.46 0.11 0.43-0.01 0.12-0.09 0.33-0.11 0.46 0.02-0.03 0.06 0.03 0.1 0.17-0.01 0.29 0.05 0.45-0.02 0.83-0.07 0.22-0.13 0.35-0.13 0.44-0.01 0.25 0.05 0.45 0.1 0.65l-0.13 0.52c0.05 0.2 0.11 0.36 0.11 0.48 0.04 0.66 0.1 0.73 0.1 0.86-0.06 0.05-0.06 0.05-0.06 0.09-0.07 0.76-0.08 1.05-0.08 0.89l-0.01 0.63-0.14 1.14v0.04c-0.07 0.3-0.13 0.48-0.13 0.56 0.11 0.35 0.17 0.51 0.23 0.46-0.06 0.05-0.06 0.09 0 0.12-0.06 0.22-0.13 0.44-0.13 0.56 0 0.21 0.05 0.41 0.1 0.69-0.06 0.34-0.07 0.59-0.13 0.73 0.05 0.62 0.4 0.85 0.93 0.63 0.18 0.01 0.29 0.07 0.71 0.01 0.23-0.04 0.71-0.25 0.89-0.28l0.24-0.04 0.23 0.08c0.18 0.01 0.47-0.04 0.77-0.13l0.65-0.24c0.3-0.01 0.47-0.04 0.53-0.05 0.18-0.03 0.35-0.06 0.53-0.13 0.19-0.7 0.32-1.05 0.32-1.09 0.06-0.3-0.05-0.57 0.03-1.62 0-0.04 0-0.04 0.06-0.05 0-0.04 0-0.12-0.05-0.2v-0.25c-0.09-1.14-0.15-1.22-0.14-1.76 0-0.08 0-0.21 0.07-0.38l0.01-0.37c-0.05-0.28-0.05-0.49-0.11-0.6 0-0.12 0.12-0.45 0.13-0.62-0.01 0.03-0.06-0.1-0.11-0.42-0.06-0.07 0-0.25 0.13-0.48 0.06-0.26 0.07-0.55 0.02-0.87-0.05-0.28-0.05-0.45-0.11-0.48 0-0.12 0.25-0.58 0.19-0.74-0.05-0.25-0.29-0.41-0.33-0.56 0.01-0.03 0.02-0.1 0.06-0.22 0.06-0.3 0.07-0.55 0.01-0.75 0.07-0.3 0.19-0.53 0.25-0.66 0.01-0.17-0.11-0.52-0.1-0.65 0.06-0.34 0.07-0.51 0.07-0.55l-0.1-0.44c0.01-0.05 0.02-0.15 0.05-0.3l0.02-0.92c0-0.04 0-0.08-0.06-0.12v-0.16l0.06-0.05c0.06-0.18 0.08-0.76 0.04-1.79 0-0.08 0.01-0.21-0.05-0.41l0.01-0.62c0.07-0.3 0.07-0.43 0.07-0.47-0.04-0.7-0.03-1.24-0.09-1.56l0.2-0.99c0.01-0.62 0.02-1.08-0.03-1.36 0.08-0.8 0.15-1.23 0.09-1.3 0-0.13-0.11-0.48-0.11-0.61 0.06-0.22 0.19-0.74 0.2-0.9 0.13-0.35 0.25-0.62 0.43-0.77 0.47-0.12 0.83-0.17 1.07-0.17 0.12-0.02 0.23 0 0.29 0.04l0.06-0.01c0.06-0.01 0.06-0.01 0.06 0.03l0.42-0.07c0.3 0 1.01-0.29 1.25-0.32 0.18-0.24 0.3-0.46 0.37-0.68l0.05-0.09v-0.13c0.01-0.29 0.01-0.5-0.05-0.61 0.06-0.18 0.07-0.3 0.07-0.34 0.06-0.13 0.06-0.3 0.01-0.41"/>
	<path class="st0" d="m74.28 15.95c-0.12-0.11-0.35-0.11-0.77-0.04-0.77 0.12-1.19 0.19-1.19 0.19-1.33 0.18-1.95 0.27-1.91 0.24-0.32 0.11-0.54 0.3-0.65 0.58l-0.43 0.44-0.01 0.54-0.12 0.19-0.26 1.03-0.18 0.28c-0.13 0.47-0.2 0.86-0.14 1.1-0.12 0.14-0.18 0.28-0.19 0.36-0.07 0.3-0.13 0.48-0.13 0.6-0.51 1.61-0.45 1.6-0.45 1.77-0.06 0.22-0.12 0.35-0.13 0.43-0.01 0.45-0.02 0.79 0.04 0.99-0.06 0.17-0.06 0.26-0.13 0.31-0.06 0.3-0.07 0.34-0.13 0.39v0.17l-0.12 0.02c-0.06 0.09-0.06 0.13-0.06 0.17-0.06 0.13-0.07 0.26-0.01 0.37s0.06 0.2 0.05 0.24c0 0.21-0.07 0.34-0.19 0.4s-0.24-0.04-0.35-0.27c-0.06 0.01-0.06-0.03 0-0.08l0.01-0.41v-0.17c-0.05-0.2-0.05-0.45 0.02-0.66v-0.04c0.06-0.22 0.18-0.32 0.3-0.38 0.06-0.18 0.13-0.31 0.07-0.38 0.06-0.13 0.07-0.42 0.02-0.87 0-0.04 0-0.04-0.06-0.03-0.11-0.4-0.16-0.68-0.16-0.88-0.06-0.11-0.06-0.2-0.11-0.23l-0.16-0.68c0-0.04 0-0.04-0.06-0.03-0.16-0.72-0.27-1.11-0.33-1.19l0.01-0.58-0.4-0.6 0.01-0.62c-0.29-0.41-0.46-0.8-0.51-1.16l-0.11 0.02-0.24-0.13-1.12 0.06-0.24 0.04-0.06 0.05c-0.18 0.03-0.41 0.07-0.83 0.09-0.3 0.05-0.89 0.14-1.78 0.32l-0.42 0.07c-0.3 0.09-0.48 0.16-0.66 0.31-0.06 0.13-0.02 0.87 0.07 2.18 0 0.04 0 0.04 0.06 0.03 0 0.29 0.05 0.36 0.11 0.35 0.05 0.28 0.11 0.44 0.17 0.51l0.11 0.61v0.08l0.06-0.01v0.08l0.1 0.73c0.05 0.36 0.17 0.51 0.23 0.5v0.21c0.06 0.2 0.11 0.31 0.17 0.35v0.12c0.05 0.28 0.11 0.52 0.1 0.73v0.17l0.12 0.11c0.11 0.52 0.16 0.88 0.15 1.13l0.33 0.94 0.27 1.15c0.06-0.01 0.06 0.03 0 0.08l0.12 0.11v0.08c0.05 0.36 0.05 0.57 0.1 0.6l0.06 0.07v0.08l0.11 0.44-0.01 0.54c0.12 0.11 0.23 0.33 0.28 0.66 0.11 0.44 0.16 0.68 0.16 0.72v0.04c0.06 0.12 0.06 0.16 0.11 0.19l-0.01 0.5c0.05 0.32 0.1 0.73 0.27 1.15 0.06-0.01 0.06-0.01 0.06 0.03 0.05 0.36 0.11 0.52 0.11 0.52l0.06 0.12c0.16 0.51 0.16 0.51 0.22 0.54v0.04c0.05 0.28 0.1 0.98 0.07 2.14l-0.01 0.5c0 0.04 0 0.12-0.06 0.26l-0.01 0.5c0.06 0.11 0.06 0.24 0.06 0.28 0 0.08-0.01 0.17-0.07 0.3l-0.01 0.5c0.06 0.07 0.06 0.16 0.06 0.2l-0.02 1.04c0.05 0.2 0.05 0.36 0.05 0.45-0.08 0.88-0.13 0.89-0.14 0.93 0 0.08 0 0.12 0.05 0.15-0.01 0.13-0.03 0.51-0.08 1.17l-0.01 0.42c-0.03 0.23-0.05 0.38-0.06 0.45l0.16 0.53-0.03 1.33c0.23 0.29 0.17 0.38 1.53 0.15l2.73-0.46c0.3-0.09 0.48-0.12 0.65-0.15 0.06-0.01 0.06-0.01 0.12-0.06 0.3-0.09 0.48-0.21 0.48-0.29l0.18-0.03c0-0.04 0-0.12 0.06-0.18l0.06-0.01v-0.17c0.07-0.59 0.08-0.92-0.04-0.98-0.06 0.01-0.06-0.03 0-0.08-0.05-0.2-0.05-0.28-0.05-0.28 0-0.16 0.07-0.38 0.13-0.43v-0.12l0.01-0.62c0.05-0.07 0.06-0.13 0.09-0.17-0.02-0.06-0.03-0.36-0.06-0.9-0.04-0.78-0.03-1.6 0.06-2.56 0-0.08 0-0.21-0.05-0.4l0.01-0.62c0.06-0.09 0.06-0.18 0.06-0.22l0.06-2.61 0.03-1.36c0.06-0.05 0.06-0.05 0-0.08 0.37-0.51 0.49-0.91 0.44-1.27 0.18-0.24 0.24-0.37 0.3-0.5 0.07-0.3 0.07-0.55 0.07-0.67l0.06-0.05v-0.08c0.06-0.22 0.12-0.35 0.18-0.4 0.2-0.82 0.33-1.41 0.33-1.37l0.19-0.4v-0.17l0.32-0.92c0.07-0.8 0.2-1.31 0.45-1.52v-0.41c0.2-1.15 0.33-1.62 0.32-1.37v-0.12c0.06-0.05 0.19-0.44 0.25-0.49l0.06-0.18c0.06-0.13 0.12-0.18 0.12-0.23 0.07-0.26 0.07-0.46 0.07-0.63l0.12-0.1v-0.21l0.12-0.27c0.07-0.3 0.07-0.55 0.07-0.67 0.07-0.46 0.13-0.76 0.2-0.9 0.19-0.65 0.32-1 0.32-1.04 0.06-0.13 0.06-0.17 0-0.16 0.06-0.05 0.06-0.05 0.12-0.06l0.2-0.98c0.07-0.38 0.13-0.64 0.14-0.72v-0.12l0.06-0.05c0.06-0.05 0.06-0.13 0-0.17l0.06-0.05v-0.16c0.06-0.01 0.06-0.01 0.06-0.05 0.1-0.34 0.11-0.63-0.06-0.85"/>
	<path class="st0" d="m18.98 47.87s-0.55-0.17-0.92-0.72c-0.1-0.15-1.19-0.94-1.19-0.94s-0.39-0.24-0.72-0.62c-0.34-0.38-1.01-0.72-1.17-0.89-0.15-0.17-1.06-0.61-1.06-0.61s0.04-0.15 0.09-0.17c0.21-0.05 1.63-0.34 1.81-0.41 0.23-0.08 0.67-0.16 0.79-0.21 0.13-0.04 0.75-0.18 0.75-0.18l0.62-0.18c0.46-0.01 0.72-0.26 0.86-0.21l0.48-0.08 0.06 0.04c0-0.04 0.08-0.05 0.17-0.1 0.07-0.13 0.01 0.09 0 0 0-0.04 0.04 0.02-0.01-0.1l-0.06-0.01c0.01-0.21 0.03-0.02 0.04-0.23l-0.16-0.25c0.05-1.11 0.02-0.41 0.02-0.41l0.06-0.01c0.09-0.71 0.11-1.21 0.13-1.53l0.15-0.64s0.02-0.33 0.05-1.03l-0.06 0.01 0.01-0.25c0.07-0.14 0.07-0.22 0.07-0.26l0.03-0.54-0.16-0.37 0.01-0.12 0.14-0.31c0.07-0.22 0.2-0.41 0.27-0.54l0.04-0.95c0.01-0.29 0.1-0.84 0.32-1.58v-0.08c0.15-0.48 0.17-0.89 0.12-1.21 0.22-0.66 0.35-1.02 0.36-1.1v-0.04c0.08-0.47 0.16-0.73 0.16-0.86l-0.12 0.03c0.01-0.21 0.02-0.33 0.02-0.33 0-0.12 0.01-0.2 0.01-0.25 0.01-0.12 0.08-0.3 0.27-0.55l-0.29-0.18c-0.06-0.03-0.05-0.23 0.03-0.54 0.06-0.06 0.06-0.06 0.06-0.1l0.01-0.13c-0.06-0.03-0.06-0.07-0.06-0.07 0.06-0.06 0.06-0.06 0.07-0.1l0.04-0.83 0.25-0.14c0.06-0.02 0.06-0.02 0.06 0.03 0.06 0.03 0.05 0.19-0.02 0.46l0.22 0.36c-0.08 0.31-0.14 0.49-0.15 0.61 0.11 0.26 0.17 0.33 0.28 0.39 0.03 0.07 0.07 0.11 0.09 0.13-0.05 0.03-0.16 0.27-0.31 0.7-0.02 0.37-0.04 0.7 0.02 0.9v0.08c0 0.04-0.01 0.08-0.07 0.14 0.06 0.03 0.05 0.11 0.05 0.15-0.01 0.13-0.01 0.17-0.01 0.17 0.04 0.4 0.02 0.73-0.05 0.99l0.11 0.14-0.03 0.63v0.08c0.05 0.11 0.11 0.18 0.11 0.27l-0.04 0.79 0.15 0.63-0.01 0.21 0.1 0.43 0.05 0.03c-0.01 0.02-0.02 0.06-0.06 0.14l-0.01 0.17c-0.08 0.38-0.09 0.68-0.1 0.93-0.02 0.29 0.03 0.53 0.09 0.72l0.06 0.03v0.04c0.06 0.03 0.06 0.07 0.05 0.11 0.06 0.03 0.06 0.11-0.01 0.25 0.07-0.1 0.1 0.51 0.15 1.86l0.06 0.03-0.01 0.12c0.06 0.03 0.06 0.07 0.05 0.11 0.06 0.11 0.05 0.24-0.02 0.37l-0.06 0.05c0 0.13-0.01 0.17-0.01 0.17-0.08 0.38-0.09 0.55-0.09 0.59 0.05 0.2 0.04 0.4 0.1 0.52l-0.02 0.46c-0.07 0.22-0.08 0.39-0.08 0.47-0.02 0.33 0.01 0.99 0.14 1.99l-0.01 0.29c0.05 0.16 0.11 0.27 0.11 0.31l0.19 0.96 0.23 0.69s-0.2 0.39 0 0.78-0.35 0.87-0.2 1.15c0.14 0.28 0.04 0.76-0.07 0.93s0.11 0.28 0.11 0.28c0.09 0.48 0.14 0.89 0.12 1.18l0.28 0.45s0 0.04-0.05 0.08c0.01 0.02 0.02 0.07 0.04 0.13l0.09 0.73-0.01 0.08c0.05 0.32 0.09 0.57 0.09 0.69l0.06-0.01c0.06 0.07 0.05 0.16-0.01 0.21l1.01 0.18c0.06-0.01 0.42-0.06 1.08-0.2 1.2-0.22 1.99-0.34 2.35-0.4 0.67-0.23 1.03-0.33 1.09-0.38 0.07-0.14 0.14-0.36 0.09-0.56-0.05-0.12-0.05-0.16-0.05-0.2-0.05-0.2-0.04-0.37 0.03-0.51s0.07-0.26 0.07-0.31l-0.19-0.59c-0.05-0.29-0.03-0.54-0.03-0.67-0.03-0.54-0.08-0.79-0.08-0.83l-0.18-1.1 0.02-0.34c-0.06-0.12-0.04-0.15-0.09-0.19l0.01-0.17c0-0.04 0-0.09-0.05-0.12l-0.22-1.53c-0.03-0.11 0.38-0.67 0.48-0.76l0.3-0.54 0.49-0.91v-0.34l0.5-0.45c-0.01-0.04 0.08-0.13 0.22-0.26 0.21-0.21 0.44-1.02 0.61-1.41 0.22-0.5 0.77-1.38 0.77-1.41l0.13-0.46s-0.81 0.27-1.29 0.48c-0.32 0.14-0.56 0.15-0.82 0.33 0.06-0.05-0.49 0.13-0.49 0.09l-0.34 0.11c0.05-0.14-0.85 0.33-0.95 0.15 0-0.03-0.13 0.01-0.17 0.02l0.09-0.91v-0.08c-0.04-0.29-0.09-0.49-0.08-0.7l0.01-0.26s-0.12-0.16-0.1-0.5c-0.01-0.96-0.25-0.95-0.22-1.59 0.06-0.05 0.06-0.05 0.12-0.07l0.01-0.21c0-0.04 0.01-0.08 0.07-0.1 0.01-0.13-0.05-0.28-0.16-0.51 0.07-0.05 0.07-0.14 0.01-0.17 0.02-0.38-0.03-0.62-0.08-0.78-0.02-0.75-0.05-1.33 0.03-1.72-0.06-0.07-0.05-0.16 0.01-0.21l-0.1-0.29c0.01-0.03 0.03-0.1 0.06-0.2-0.06-0.11-0.05-0.24-0.04-0.45 0 0 0-0.08 0.02-0.3l-0.12-0.1c0-0.09 0.01-0.13 0.01-0.13l0.07-1.35-0.06-0.03c-0.06-0.11-0.05-0.2-0.05-0.24-0.05-0.2-0.05-0.32-0.1-0.35-0.04-0.32-0.03-0.58-0.02-0.7l-0.06-0.03c0-0.04 0-0.04 0.07-0.1l-0.03-0.58c-0.06-0.07-0.05-0.15 0.01-0.21 0-0.04 0-0.08-0.05-0.11-0.01-0.87 0.02-1.63 0.13-2.36-0.55-0.08-0.54-0.2-0.78-0.27-0.3-0.01-0.55 0.01-0.73 0.05-0.11-0.18-0.23-0.23-0.29-0.18-0.06 0.1-0.13 0.2-0.14 0.28-0.13 0.12-0.62 0.28-1.54 0.46-0.55 0.09-1.11 0.22-1.66 0.36l-0.31 0.07c-0.24 0.02-0.31 0.03-0.24 0.02-0.12 0.03-0.25 0.06-0.31 0.11l-0.25 0.06-0.49 0.2c-0.02 0-0.12 0.02-0.25 0.02l-0.19 0.04-0.12-0.01-0.12 0.03-0.12 0.07-0.12 0.03c-0.06-0.03-0.12-0.01-0.18 0-0.25 0.06-0.62 0.14-1.17 0.31-0.19 0.09-1.61 0.4-1.55 0.51-0.38 0.33-0.57 0.46-0.83 0.8-0.01 0.2 0.05 0.27 0.11 0.26-0.07 0.18-0.07 0.3-0.14 0.39 0.03 0.6 0.07 1.03 0.06 1.36-0.07 0.26-0.14 0.35-0.13 0.23-0.12-0.01-0.19 0.08-0.25 0.22 0.05 0.27 0.1 0.5 0.03 0.72l-0.16 0.54c-0.08 0.54-0.1 0.95-0.11 1.24l-0.07 0.05-0.07 0.26v0.12c0 0.04 0 0.04-0.06 0.05 0.01 0.04 0.02 0.12 0.04 0.23 0.06 0.03-0.01 0.2-0.09 0.58-0.03 0.65-0.05 1.14-0.01 1.45-0.07 0.22-0.08 0.38-0.08 0.5l-0.01 0.2-0.27 0.66c0.04 0.39 0.03 0.72 0.02 0.92-0.07 0.18-0.07 0.3-0.14 0.39l-0.13 0.23-0.28 2.35c-0.02 0.36-0.03 0.61 0.03 0.72-0.06 0.05-0.07 0.13-0.07 0.17-0.07 0.17-0.13 0.31-0.13 0.39l-0.05 1.05-0.21 0.68c-0.02 0.44-0.03 0.81 0.02 1.04l-0.33 0.7-0.04 0.97c-0.07 0.13-0.07 0.21-0.07 0.29-0.01 0.12-0.01 0.2 0.05 0.23-0.06 0.01-0.06 0.01-0.06 0.05-0.06 0.05-0.06 0.05 0 0.08l-0.13 0.18c-0.08 0.54-0.16 0.95-0.17 1.15l-0.48 2.64c-0.1 0.89-0.19 1.63-0.21 2.23 0 0.04 0 0.08-0.07 0.17l-0.01 0.16-0.03 0.64c-0.08 0.41-0.15 0.66-0.09 0.77 0.06 0.03 0.17 0.1 0.17 0.14l0.35 0.15 0.3-0.04c0.06-0.01 0.12-0.02 0.18 0.02 0.3-0.08 0.48-0.1 0.6-0.12 0.18-0.02 0.36-0.05 0.42-0.02 1.14-0.16 3.39-0.5 3.99-0.63 0.07-0.13 0.12-0.06 0.31-0.29l0.13-0.18c0.04-0.07 0.07-0.12 0.09-0.15-0.03-0.02-0.02-0.23 0-0.64 0 0.04 0 0 0.06-0.17 0.01-0.12 0.01-0.21 0.01-0.21 0.16-0.96 0.25-1.54 0.2-1.78l0.01-0.25 0.43-2.67c0.06-0.05 0.01-0.12-0.05-0.15-0.04-0.05 0.03-0.1 0.09-0.11"/>
	</g><path class="st1" d="m27.8 90.45c0.24 0.03 0.43-0.01 0.62-0.13 0-0.08 0-0.08 0.05-0.09l0.19-0.04v-0.08l0.14-0.03c0.05-0.09 0.14-0.11 0.29-0.14 0.43 0 0.67-0.05 0.82-0.08 0.24-0.05 0.77-0.4 1.01-0.45 0.1-0.02 0.34 0.01 0.67 0.02 0.05-0.01 0.05-0.01 0.1 0.06l0.05-0.01 0.72-0.31c0 0.08 0.1 0.06 0.24 0.11l0.19-0.04c0.24-0.21 0.39-0.32 0.43-0.25 0.19 0.04 0.43 0.08 0.77-0.07l0.58-0.12 0.15-0.03c0.19 0.04 0.34 0.1 0.48 0.07l0.34-0.07c0.14-0.11 0.29-0.14 0.38-0.16 0.48-0.1 0.72-0.15 0.72-0.15l1.78-0.44c0.29 0.02 0.48 0.06 0.58-0.04 0.05-0.01 0.15-0.11 0.24-0.21 0.29 0.11 0.63 0.12 1.06-0.05l0.05-0.01c0.15-0.03 0.29-0.22 0.34-0.23l0.19-0.04c0.09 0.06 0.14 0.05 0.19 0.04l1.2-0.25c0.05-0.01 0.14-0.03 0.19 0.04 0.43 0 0.91-0.1 1.35-0.27 0.05-0.01 0.05-0.01 0.05-0.09 0.82-0.25 1.3-0.34 1.44-0.37 0 0.08 0.24 0.03 0.67 0.02 0.14-0.02 0.43-0.09 0.77-0.07 0.24-0.05 0.58-0.12 1.06-0.3 0 0.08 0 0.08 0.05 0.07 0.15-0.11 0.19-0.2 0.24-0.13v0.08l0.1-0.02c0.1-0.1 0.24-0.13 0.48-0.26 0.24 0.03 0.53-0.03 0.91-0.11 0-0.08 0-0.08 0.05-0.09l0.58-0.12c0.14 0.05 0.19 0.04 0.14 0.05l0.19-0.04c0.15-0.11 0.19-0.12 0.24-0.13l0.43-0.09c0.1-0.02 0.24-0.05 0.43-0.17l0.43-0.09 0.96 0.05c0.24-0.05 0.58-0.2 1.01-0.45l0.38-0.08c0.19 0.04 0.34 0.01 0.43-0.01 0.14-0.03 0.38-0.08 0.77-0.24 0.34-0.15 0.58-0.2 0.77-0.15 0.68-0.09 1.07-0.11 1.15-0.1v-0.06l0.63-0.29 0.53-0.11c0 0.08 0 0.08 0.05 0.07l0.43-0.09v-0.08l0.24-0.05v-0.08c0.24-0.05 0.97-0.01 1.12-0.28l0.73-0.13c0.1-0.1 0.29-0.14 0.58-0.11l1.35-0.17c0.2-0.12 0.34-0.15 0.49-0.17 0.05-0.09 0.15-0.11 0.29-0.05 0.48-0.01 0.87-0.01 1.16-0.14l0.14-0.03 0.29-0.05c0.58-0.11 0.87-0.17 0.87-0.17 0.05-0.09 0.1-0.1 0.25-0.13l1.83-0.35c1.69-0.32 2.47-0.47 2.37-0.36l0.78-0.39 1.06-0.2c0.63-0.04 1.01-0.03 1.06-0.04 0.14-0.02 0.68-0.21 1.5-0.45 0 0 0.63-0.12 0.48-0.09 0.19-0.04 0.58 0.05 0.72 0.02 0.1-0.02 0.29-0.13 0.63-0.28 0.05-0.09 0.15-0.11 0.29-0.22 0.24-0.13 0.58-0.19 0.92-0.18 0.34 0.02 0.53 0.06 0.63 0.04 0.19-0.12 0.19-0.04 1.35-0.26 0 0 0.15-0.03 0.43-0.08 0.05-0.01 0.29-0.22 0.44-0.25 0.1 0.06 0.29 0.11 0.53 0.06-0.24 0.05-0.14 0.03 0.34-0.06 0.19-0.04 0.44-0.17 0.73-0.3l0.24-0.05 1.26-0.24 0.19-0.04 1.4-0.27 0.53-0.26c0.24 0.03 0.63 0.04 1.16-0.06l0.39-0.24 0.24-0.05c0.14 0.06 0.24 0.03 0.29 0.03 1.31-0.17 2.18-0.33 2.56-0.49l0.53-0.26 0.05 0.07 0.19-0.03c0-0.08 0.2-0.12 0.58-0.2 0.19-0.03 0.29-0.05 0.24-0.04 0.05 0.07 0.09 0.06 0.14 0.05l0.1-0.02c0.09 0.06 0.29 0.03 0.53-0.02 0 0 0.24-0.05 0.68-0.13l0.66-0.86c-0.24-0.04-0.43 0-0.63 0.11 0 0.08 0 0.08-0.05 0.09l-0.19 0.03v0.08l-0.14 0.02c-0.05 0.09-0.15 0.11-0.29 0.14-0.43-0.01-0.68 0.03-0.82 0.06-0.24 0.04-0.78 0.38-1.02 0.42-0.1 0.02-0.34-0.02-0.67-0.04-0.05 0.01-0.05 0.01-0.1-0.06l-0.05 0.01-0.73 0.29c0-0.08-0.1-0.07-0.24-0.12l-0.19 0.03c-0.25 0.2-0.39 0.31-0.44 0.24-0.19-0.05-0.43-0.09-0.77 0.05l-0.58 0.1-0.14 0.03c-0.19-0.05-0.34-0.11-0.48-0.08l-0.34 0.06c-0.15 0.1-0.29 0.13-0.39 0.15-0.48 0.08-0.72 0.13-0.72 0.13l-1.79 0.39c-0.29-0.03-0.48-0.08-0.58 0.02-0.05 0.01-0.15 0.11-0.25 0.2-0.29-0.11-0.62-0.13-1.06 0.02l-0.05 0.01c-0.15 0.03-0.29 0.21-0.34 0.22l-0.19 0.03c-0.09-0.07-0.14-0.06-0.19-0.05l-1.21 0.21c-0.05 0.01-0.15 0.02-0.19-0.05-0.43-0.01-0.92 0.07-1.35 0.24-0.05 0.01-0.05 0.01-0.05 0.09-0.82 0.22-1.31 0.31-1.45 0.33 0-0.08-0.24-0.04-0.67-0.04-0.14 0.02-0.44 0.07-0.77 0.05-0.24 0.04-0.58 0.1-1.07 0.27 0-0.08 0-0.08-0.05-0.07-0.15 0.11-0.2 0.19-0.24 0.12v-0.08l-0.1 0.02c-0.1 0.09-0.24 0.12-0.49 0.25-0.24-0.04-0.53 0.01-0.92 0.08 0 0.08 0 0.08-0.05 0.09l-0.58 0.1c-0.14-0.06-0.19-0.05-0.14-0.06l-0.19 0.04c-0.15 0.11-0.2 0.11-0.25 0.12l-0.43 0.08c-0.1 0.02-0.24 0.04-0.44 0.16l-0.43 0.08-0.96-0.07c-0.24 0.04-0.58 0.18-1.02 0.42l-0.39 0.07c-0.19-0.05-0.34-0.02-0.43 0-0.14 0.02-0.39 0.07-0.77 0.22-0.34 0.14-0.58 0.18-0.77 0.13-0.69 0.07-1.08 0.08-1.16 0.07v0.06l-0.63 0.27-0.53 0.09c0-0.08 0-0.08-0.05-0.07l-0.43 0.08v0.08l-0.24 0.04v0.08c-0.24 0.05-0.98-0.02-1.13 0.25l-0.73 0.11c-0.1 0.1-0.29 0.13-0.58 0.1l-1.36 0.14c-0.2 0.11-0.34 0.14-0.49 0.16-0.05 0.09-0.15 0.11-0.29 0.05-0.48 0-0.87-0.02-1.16 0.11l-0.12 0.06-0.29 0.05c-0.58 0.1-0.87 0.14-0.87 0.14-0.05 0.09-0.1 0.09-0.25 0.12l-1.84 0.3c-1.7 0.27-2.48 0.4-2.38 0.3l-0.79 0.37-1.07 0.17c-0.63 0.02-1.01 0-1.06 0.01-0.14 0.02-0.68 0.19-1.51 0.41 0 0-0.63 0.1-0.49 0.08-0.2 0.03-0.58-0.07-0.72-0.04-0.1 0.01-0.29 0.13-0.64 0.26-0.05 0.09-0.15 0.11-0.3 0.21-0.25 0.12-0.59 0.18-0.92 0.15-0.34-0.03-0.53-0.08-0.63-0.06-0.2 0.11-0.19 0.03-1.36 0.22 0 0-0.15 0.02-0.44 0.07-0.05 0.01-0.3 0.21-0.44 0.24-0.1-0.07-0.29-0.12-0.53-0.07 0.24-0.04 0.15-0.02-0.34 0.05-0.19 0.03-0.44 0.15-0.73 0.28l-0.24 0.04-1.26 0.2-0.19 0.03-1.41 0.23-0.54 0.25c-0.24-0.04-0.63-0.06-1.16 0.03l-0.39 0.23-0.24 0.04c-0.14-0.06-0.24-0.04-0.29-0.03-1.31 0.13-2.18 0.27-2.57 0.42l-0.54 0.25-0.05-0.07-0.19 0.03c0 0.08-0.2 0.12-0.58 0.18-0.19 0.03-0.29 0.04-0.24 0.04-0.05-0.08-0.09-0.07-0.14-0.06l-0.1 0.02c-0.09-0.06-0.29-0.03-0.53 0 0 0-0.24 0.04-0.68 0.11-0.25 0.12-0.37 0.95-0.4 2.34" fill="#ffd288"/>
	<path class="st0" d="m17.23 21.97c-0.01 0.08-0.01 0.08 0.05 0.07 0.18-0.11 0.25-0.19 0.3-0.13v0.08l0.12-0.02c0.12-0.1 0.3-0.13 0.6-0.25 0.29 0.02 0.65-0.04 1.12-0.12 0.01-0.07 0.01-0.07 0.06-0.09l0.71-0.12c0.17 0.05 0.23 0.04 0.17 0.05l0.24-0.04c0.18-0.11 0.24-0.12 0.3-0.13l0.53-0.09c0.12-0.02 0.3-0.05 0.54-0.17l0.53-0.09 1.17 0.02c0.3-0.05 0.72-0.2 1.26-0.44l0.47-0.08c0.23 0.04 0.41 0.01 0.53-0.02 0.18-0.03 0.47-0.08 0.95-0.24 0.42-0.15 0.72-0.2 0.95-0.16 0.84-0.1 1.31-0.13 1.41-0.12v-0.05l0.78-0.29 0.65-0.11c0 0.08 0 0.08 0.05 0.07l0.53-0.09 0.01-0.08 0.29-0.05 0.01-0.07c0.29-0.05 1.19-0.03 1.38-0.29l0.9-0.14c0.13-0.1 0.36-0.14 0.71-0.12l1.66-0.2c0.25-0.11 0.42-0.14 0.6-0.17 0.07-0.09 0.19-0.11 0.36-0.06 0.59-0.02 1.05-0.02 1.42-0.16l0.54-0.09c0.71-0.12 1.07-0.18 1.07-0.18 0.07-0.08 0.13-0.09 0.3-0.12l2.26-0.37c2.08-0.34 3.03-0.49 2.91-0.4l0.97-0.39 1.31-0.21c0.77-0.05 1.23-0.05 1.29-0.06 0.18-0.03 0.84-0.21 1.86-0.45 0 0 0.77-0.13 0.59-0.1 0.24-0.04 0.7 0.04 0.88 0.01 0.12-0.02 0.36-0.13 0.79-0.28 0.06-0.09 0.18-0.11 0.37-0.21 0.3-0.12 0.72-0.19 1.13-0.19 0.41 0.01 0.64 0.05 0.76 0.03 0.24-0.12 0.24-0.04 1.66-0.27 0 0 0.18-0.03 0.54-0.09 0.06-0.01 0.37-0.21 0.55-0.24 0.11 0.06 0.34 0.1 0.64 0.05-0.3 0.05-0.18 0.03 0.42-0.07 0.24-0.04 0.54-0.16 0.9-0.3l0.3-0.05 1.55-0.25 0.24-0.04 1.73-0.28 0.67-0.26c0.29 0.03 0.76 0.03 1.42-0.08l0.49-0.23 0.3-0.05c0.17 0.05 0.29 0.03 0.35 0.02 1.6-0.18 2.67-0.36 3.15-0.52l0.67-0.26 0.05 0.07 0.24-0.04c0.01-0.08 0.24-0.12 0.72-0.2 0.24-0.04 0.36-0.06 0.3-0.05 0.05 0.07 0.11 0.06 0.17 0.05l0.12-0.02c0.11 0.06 0.35 0.02 0.65-0.03 0 0 0.3-0.05 0.83-0.14 0.3-0.13 0.48-0.91 0.58-2.23l0.01-0.33-1.01 0.08c-0.29-0.01-0.53 0.04-0.76 0.16 0 0.08 0 0.08-0.06 0.09l-0.23 0.05v0.08l-0.18 0.03c-0.06 0.09-0.18 0.12-0.35 0.16-0.53 0.03-0.82 0.09-1 0.13-0.29 0.06-0.94 0.43-1.24 0.49-0.12 0.03-0.41 0.01-0.82 0.02-0.06 0.01-0.06 0.01-0.11-0.05l-0.11-0.01-0.89 0.34c0-0.08-0.12-0.05-0.29-0.09l-0.23 0.05c-0.3 0.22-0.47 0.33-0.53 0.27-0.24-0.03-0.53-0.04-0.94 0.12l-0.71 0.15-0.18 0.04c-0.23-0.03-0.41-0.07-0.58-0.03l-0.41 0.09c-0.18 0.11-0.35 0.15-0.47 0.18-0.59 0.12-0.88 0.18-0.88 0.18l-2.18 0.53c-0.35 0-0.58-0.03-0.7 0.08-0.06 0.01-0.18 0.11-0.3 0.21-0.35-0.08-0.76-0.07-1.29 0.12l-0.06 0.01c-0.18 0.04-0.36 0.23-0.42 0.24l-0.24 0.05c-0.11-0.05-0.18-0.04-0.23-0.03l-1.47 0.3c-0.06 0.01-0.18 0.03-0.23-0.03-0.53 0.03-1.11 0.15-1.65 0.35-0.06 0.01-0.06 0.01-0.06 0.09-1 0.29-1.59 0.41-1.76 0.45 0-0.08-0.29-0.01-0.82 0.02-0.18 0.03-0.53 0.11-0.94 0.12-0.29 0.06-0.71 0.15-1.29 0.35 0-0.08 0-0.08-0.06-0.06-0.18 0.11-0.24 0.2-0.3 0.14v-0.08l-0.12 0.02c-0.12 0.1-0.3 0.14-0.59 0.28-0.29-0.01-0.65 0.06-1.11 0.16 0 0.08 0 0.08-0.06 0.09l-0.71 0.15c-0.18-0.04-0.23-0.03-0.18-0.04l-0.23 0.05c-0.18 0.11-0.24 0.12-0.3 0.14l-0.53 0.11c-0.12 0.02-0.29 0.06-0.53 0.19l-0.53 0.11-1.17 0.02c-0.29 0.06-0.71 0.22-1.24 0.49l-0.47 0.1c-0.23-0.03-0.41 0.01-0.53 0.04-0.18 0.03-0.47 0.1-0.94 0.27-0.41 0.16-0.71 0.22-0.94 0.19-0.83 0.13-1.31 0.17-1.41 0.17v0.05l-0.77 0.32-0.65 0.13c0-0.08 0-0.08-0.06-0.06l-0.53 0.11v0.08l-0.29 0.06v0.07c-0.29 0.07-1.19 0.07-1.37 0.34l-0.89 0.17c-0.12 0.1-0.36 0.15-0.71 0.14l-1.63 0.24c-0.24 0.12-0.42 0.16-0.59 0.19-0.06 0.09-0.18 0.12-0.36 0.07-0.59 0.04-1.06 0.06-1.41 0.21l-0.18 0.03-0.35 0.07c-0.71 0.14-1.06 0.21-1.06 0.21-0.06 0.09-0.12 0.1-0.3 0.13l-2.24 0.45c-2.07 0.41-3.01 0.6-2.89 0.5l-0.95 0.42-1.3 0.26c-0.76 0.08-1.23 0.09-1.29 0.11l-0.24 0.21z" fill="#d71920"/>
</g>
</svg>
