<svg fill="none" viewBox="0 0 1414 446" xmlns="http://www.w3.org/2000/svg" xmlns:xlink="http://www.w3.org/1999/xlink">
 <linearGradient id="a">
  <stop stop-color="#706f6f" offset=".02"/>
  <stop stop-color="#747373" offset=".13"/>
  <stop stop-color="#807f7f" offset=".25"/>
  <stop stop-color="#949493" offset=".37"/>
  <stop stop-color="#9d9d9c" offset=".41"/>
  <stop stop-color="#7e7e7d" offset=".58"/>
  <stop stop-color="#4e4e4d" offset=".86"/>
  <stop stop-color="#3c3c3b" offset="1"/>
 </linearGradient>
 <linearGradient id="ay" x1="1.2996" x2="1413.6" y1="332.44" y2="332.44" gradientUnits="userSpaceOnUse" xlink:href="#a"/>
 <linearGradient id="ax" x1="20.013" x2="20.013" y1="393.19" y2="473.44" gradientUnits="userSpaceOnUse" xlink:href="#a"/>
 <linearGradient id="aw" x1="76.935" x2="76.935" y1="393.19" y2="473.44" gradientUnits="userSpaceOnUse" xlink:href="#a"/>
 <linearGradient id="av" x1="135.74" x2="135.74" y1="393.19" y2="473.44" gradientUnits="userSpaceOnUse" xlink:href="#a"/>
 <linearGradient id="au" x1="224.5" x2="224.5" y1="393.19" y2="473.44" gradientUnits="userSpaceOnUse" xlink:href="#a"/>
 <linearGradient id="at" x1="279.21" x2="279.21" y1="393.19" y2="473.44" gradientUnits="userSpaceOnUse" xlink:href="#a"/>
 <linearGradient id="as" x1="349.84" x2="349.84" y1="393.19" y2="473.44" gradientUnits="userSpaceOnUse" xlink:href="#a"/>
 <linearGradient id="ar" x1="425.09" x2="425.09" y1="393.19" y2="473.44" gradientUnits="userSpaceOnUse" xlink:href="#a"/>
 <linearGradient id="aq" x1="497.48" x2="497.48" y1="393.19" y2="473.44" gradientUnits="userSpaceOnUse" xlink:href="#a"/>
 <linearGradient id="ap" x1="562.32" x2="562.32" y1="393.19" y2="473.44" gradientUnits="userSpaceOnUse" xlink:href="#a"/>
 <linearGradient id="ao" x1="621.59" x2="621.59" y1="393.19" y2="473.44" gradientUnits="userSpaceOnUse" xlink:href="#a"/>
 <linearGradient id="an" x1="670.64" x2="670.64" y1="393.19" y2="473.44" gradientUnits="userSpaceOnUse" xlink:href="#a"/>
 <linearGradient id="am" x1="729.97" x2="729.97" y1="393.19" y2="473.44" gradientUnits="userSpaceOnUse" xlink:href="#a"/>
 <linearGradient id="al" x1="805.28" x2="805.28" y1="393.19" y2="473.44" gradientUnits="userSpaceOnUse" xlink:href="#a"/>
 <linearGradient id="ak" x1="921.4" x2="921.4" y1="393.19" y2="473.44" gradientUnits="userSpaceOnUse" xlink:href="#a"/>
 <linearGradient id="aj" x1="1002.6" x2="1002.6" y1="393.19" y2="473.44" gradientUnits="userSpaceOnUse" xlink:href="#a"/>
 <linearGradient id="ai" x1="1074.9" x2="1074.9" y1="393.19" y2="473.44" gradientUnits="userSpaceOnUse" xlink:href="#a"/>
 <linearGradient id="ah" x1="1140.8" x2="1140.8" y1="393.19" y2="473.44" gradientUnits="userSpaceOnUse" xlink:href="#a"/>
 <linearGradient id="ag" x1="1242.8" x2="1242.8" y1="393.19" y2="473.44" gradientUnits="userSpaceOnUse" xlink:href="#a"/>
 <linearGradient id="af" x1="1312.8" x2="1312.8" y1="393.19" y2="473.44" gradientUnits="userSpaceOnUse" xlink:href="#a"/>
 <linearGradient id="ae" x1="1386.7" x2="1386.7" y1="393.19" y2="473.44" gradientUnits="userSpaceOnUse" xlink:href="#a"/>
 <linearGradient id="ad" x1="377.07" x2="449.13" y1="-6.9452" y2="305.28" gradientUnits="userSpaceOnUse" xlink:href="#a"/>
 <linearGradient id="ac" x1="967.14" x2="1029.8" y1="-27.673" y2="243.61" gradientUnits="userSpaceOnUse" xlink:href="#a"/>
 <linearGradient id="ab" x1="104.23" x2="166.86" y1="37.305" y2="308.59" gradientUnits="userSpaceOnUse" xlink:href="#a"/>
 <linearGradient id="aa" x1="685.59" x2="753.62" y1="-21.825" y2="272.92" gradientUnits="userSpaceOnUse" xlink:href="#a"/>
 <linearGradient id="ba" x1="1258" x2="1326" y1="-39.564" y2="255.18" gradientUnits="userSpaceOnUse" xlink:href="#a"/>
 <clipPath id="az">
  <path d="m0 0.78729h1414v444.91h-1414z"/>
 </clipPath>
 <g clip-path="url(#az)">
  <path d="m1.2996 332.18 176.55-1.559 176.55-0.91 353.03-0.715 353.1 0.715 176.54 0.91 176.55 1.559v0.585l-176.55 1.56-176.54 0.909-353.1 0.715-353.03-0.78-176.55-0.844-176.55-1.56z" fill="url(#ay)"/>
  <path d="m4.1586 391.37h9.0321v45.68h22.678v7.797h-31.71v-53.412z" fill="url(#ax)"/>
  <path d="m60.365 391.37h32.489v7.797h-23.522v14.88h21.703v7.798h-21.703v15.205h24.172v7.797h-33.204v-53.412z" fill="url(#aw)"/>
  <path d="m131.26 399.17h-14.36v-7.797h37.687v7.797h-14.36v45.68h-9.032v-45.68z" fill="url(#av)"/>
  <path d="m228.98 391.37v53.412h-9.032v-53.412z" fill="url(#au)"/>
  <path d="m258.42 391.37h8.707l24.107 37.882v-37.882h8.707v53.412h-8.707l-24.107-37.882v37.882h-8.707z" fill="url(#at)"/>
  <path d="m329.05 391.37h8.707l24.107 37.882v-37.882h8.707v53.412h-8.707l-24.107-37.882v37.882h-8.707z" fill="url(#as)"/>
  <path d="m453.55 418.08c0 15.595-12.346 27.616-28.461 27.616s-28.46-12.086-28.46-27.616 12.345-27.616 28.46-27.616 28.461 12.086 28.461 27.616zm-9.162 0c0-11.176-8.577-19.688-19.299-19.688-10.721 0-19.298 8.577-19.298 19.688s8.577 19.689 19.298 19.689c10.722 0 19.299-8.578 19.299-19.689z" fill="url(#ar)"/>
  <path d="m497.48 433.42 15.14-42.041h9.617l-19.688 53.412h-10.072l-19.688-53.412h9.616l15.14 42.041z" fill="url(#aq)"/>
  <path d="m587.02 444.79h-9.747l-4.418-12.931h-21.053l-4.419 12.931h-9.747l19.689-53.412h10.071l19.689 53.412zm-32.619-20.663h15.724l-7.862-22.937z" fill="url(#ap)"/>
  <path d="m617.1 399.17h-14.36v-7.797h37.687v7.797h-14.36v45.68h-9.032v-45.68z" fill="url(#ao)"/>
  <path d="m675.13 391.37v53.412h-9.032v-53.412z" fill="url(#an)"/>
  <path d="m758.43 418.08c0 15.595-12.346 27.616-28.461 27.616s-28.461-12.086-28.461-27.616 12.346-27.616 28.461-27.616 28.461 12.086 28.461 27.616zm-9.162 0c0-11.176-8.578-19.688-19.299-19.688-10.722 0-19.299 8.577-19.299 19.688s8.577 19.689 19.299 19.689c10.721 0 19.299-8.578 19.299-19.689z" fill="url(#am)"/>
  <path d="m784.49 391.37h8.707l24.107 37.882v-37.882h8.707v53.412h-8.707l-24.107-37.882v37.882h-8.707z" fill="url(#al)"/>
  <path d="m918.6 428.48-15.01-22.353v38.727h-8.707v-53.412h8.382l18.194 27.161 18.194-27.161h8.382v53.412h-8.707v-38.727l-15.01 22.353h-5.653z" fill="url(#ak)"/>
  <path d="m1031 418.08c0 15.595-12.35 27.616-28.46 27.616-16.119 0-28.465-12.086-28.465-27.616s12.346-27.616 28.465-27.616c16.11 0 28.46 12.086 28.46 27.616zm-9.17 0c0-11.176-8.57-19.688-19.29-19.688-10.726 0-19.303 8.577-19.303 19.688s8.577 19.689 19.303 19.689c10.72 0 19.29-8.578 19.29-19.689z" fill="url(#aj)"/>
  <path d="m1074.9 433.42 15.14-42.041h9.61l-19.69 53.412h-10.07l-19.69-53.412h9.62l15.14 42.041z" fill="url(#ai)"/>
  <path d="m1124.1 391.37h32.49v7.797h-23.52v14.88h21.7v7.798h-21.7v15.205h24.17v7.797h-33.2v-53.412z" fill="url(#ah)"/>
  <path d="m1242.8 414.12 13.51-22.742h9.62l-18.65 31.514v21.898h-9.03v-21.898l-18.65-31.514h9.62l13.51 22.742z" fill="url(#ag)"/>
  <path d="m1341.3 418.08c0 15.595-12.35 27.616-28.46 27.616-16.12 0-28.46-12.086-28.46-27.616s12.34-27.616 28.46-27.616c16.11 0 28.46 12.086 28.46 27.616zm-9.16 0c0-11.176-8.58-19.688-19.3-19.688s-19.3 8.577-19.3 19.688 8.58 19.689 19.3 19.689 19.3-8.578 19.3-19.689z" fill="url(#af)"/>
  <path d="m1406.5 425.88c0 12.087-8.84 19.754-19.76 19.754-10.91 0-19.75-7.732-19.75-19.754v-34.503h9.03v35.608c0 6.563 4.81 10.787 10.79 10.787s10.79-4.224 10.79-10.787v-35.608h9.03v34.503z" fill="url(#ae)"/>
  <path d="m514.63 28.468c-20.339-18.454-47.435-27.681-81.288-27.681-41.847 0-72.322 7.0177-93.7 27.226h-3.573l-2.34-22.158h-40.611v253.94h44.705v-136.13c0-27.746 7.927-48.539 23.847-62.25 15.92-13.71 36.258-20.598 60.95-20.598s42.496 6.3679 56.402 19.039c13.905 12.671 20.793 32.229 20.793 58.676v141.2h45.225v-151.86c0-34.569-10.137-61.015-30.475-79.469z" fill="url(#ad)"/>
  <path d="m926.4 185.46-3.314 0.065v-179.54h-45.225v253.87h42.301l210.34-253.87h-53.15z" fill="url(#ac)"/>
  <path d="m0 259.86h53.348c1.4945-1.754 5.7181-6.823 7.7974-9.357 2.4042-2.924 5.0033-5.653 7.9274-8.187 16.894-14.555 38.468-21.833 64.719-21.833s45.16 6.758 59.91 20.208c5.718 5.264 10.267 11.697 13.776 19.104h45.225v-253.81h-42.301zm145.03-73.946c-11.046 0-21.313 0.455-30.93 1.495l89.996-107.02h3.314v118.65c-17.609-8.707-38.403-13.126-62.38-13.126z" fill="url(#ab)"/>
  <path d="m792.22 147.18c0 26.446-6.952 45.94-20.793 58.676-13.905 12.671-32.684 19.039-56.401 19.039h-7.083c-23.717 0-42.496-6.368-56.401-19.039-13.906-12.671-20.793-32.23-20.793-58.676v-141.2h-45.226v151.86c0 34.568 10.137 61.015 30.475 79.469 20.339 18.453 47.435 27.226 81.289 27.68 5.913 0.065 23.327 0.065 28.46 0 33.854-0.584 60.95-9.227 81.289-27.68 20.338-18.454 30.475-44.966 30.475-79.469v-151.86h-45.226v141.2z" fill="url(#aa)"/>
  <path d="m1368.8 5.9856v141.2c0 26.446-6.95 45.94-20.79 58.676-13.9 12.671-32.68 19.039-56.4 19.039h-7.08c-23.72 0-42.5-6.368-56.4-19.039-13.91-12.671-20.8-32.23-20.8-58.676v-141.2h-45.22v151.86c0 34.568 10.13 61.015 30.47 79.469 20.34 18.453 47.44 27.226 81.29 27.68 5.91 0.065 23.33 0.065 28.46 0 33.86-0.584 60.95-9.227 81.29-27.68 20.34-18.454 30.47-44.966 30.47-79.469v-151.86h-45.22z" fill="url(#ba)"/>
 </g>
</svg>
