<svg xmlns="http://www.w3.org/2000/svg" height="269.91" viewBox="0 0 204.3 269.909" width="204.3">
    <path d="M.074 269.45l2.507-6.75 2.369-6.373 2.293-.001c1.905 0 2.328.088 2.5.524 1.163 2.943 4.657 12.459 4.657 12.684 0 .16-.938.291-2.088.291h-2.088l-.36-1.2-.36-1.2H4.824l-.323 1.2-.323 1.2h-2.12c-1.571 0-2.085-.097-1.983-.375zm8.547-5.1a69.553 69.553 0 0 1-.687-2.1c-.299-.949-.63-1.725-.734-1.725-.229 0-1.2 2.995-1.2 3.701 0 .393.294.499 1.382.499.982 0 1.34-.108 1.239-.375zm7.579 4.02c0-1.437.05-1.54.74-1.54.423 0 .871-.248 1.05-.58.175-.33.31-2.605.31-5.25v-4.67h11.4v13.527l-2.025-.089-2.025-.089-.082-5.025-.082-5.025h-2.893l-.197 3.887c-.108 2.138-.341 4.204-.518 4.592-.49 1.075-1.42 1.497-3.646 1.657l-2.032.145v-1.54zm15.9-5.258v-6.782H36v5.1h1.896c2.47 0 4.806.703 5.572 1.677.874 1.111 1.104 3.12.501 4.39-.83 1.751-2.035 2.126-7.294 2.27l-4.575.127v-6.782zm7.629 3.246c1.121-1.121-.142-2.325-2.28-2.172-1.297.094-1.3.096-1.391 1.369l-.093 1.275h1.646c1.096 0 1.803-.158 2.117-.472zm7.071-1.628v-5.1h-4.2v-3.3h12.6v3.3H51v10.2h-4.2v-5.1zm10.8-1.644v-6.756h11.1v3h-6.9v2.1h6.3v2.7h-6.3v2.7h7.233l-.092 1.425-.091 1.425-5.625.081-5.625.082v-6.757zm13.2-.027v-6.772l4.645.097 4.645.096.96.96c.816.817.976 1.221 1.071 2.7.203 3.16-1.404 4.59-5.161 4.59H75v5.1h-4.2v-6.771zm6.9-1.63c.722-.722.734-.874.133-1.732-.348-.498-.768-.667-1.65-.667H75v3h1.05c.65 0 1.279-.229 1.65-.6zm7.5 1.65v-6.75h4.2v4.827l2.175-.088 2.175-.088.088-2.325.087-2.325H98.1v13.5h-4.2v-5.4h-4.5v5.4h-4.2v-6.75zm14.7 6.355c0-.233 1.07-3.242 2.377-6.689l2.378-6.265h4.648l2.498 6.6c1.374 3.63 2.498 6.633 2.499 6.675 0 .04-1 .075-2.22.075h-2.22l-.266-1.125-.267-1.125h-4.724l-.352 1.05c-.35 1.045-.36 1.05-2.352 1.138-1.562.07-2-.004-2-.334zm8.4-4.883c0-.341-1.26-4.321-1.367-4.321-.126 0-1.333 3.83-1.333 4.231 0 .148.608.269 1.35.269s1.35-.08 1.35-.179zm9 .179v-5.1h-4.2v-3.3h12.6v3.3h-4.2v10.2h-4.2v-5.1zm10.8-1.65v-6.75h3.9v7.311l2.475-3.648 2.475-3.648 2.03-.008 2.031-.008-.08 6.675-.081 6.675-1.875.09-1.875.089v-3.464c0-1.906-.114-3.465-.254-3.465s-1.287 1.553-2.551 3.45l-2.298 3.45H128.1v-6.75zm15-.02v-6.77l4.931.094 4.931.096.92.88c.77.74.918 1.11.918 2.3 0 1.208-.133 1.528-.909 2.18l-.908.765.9.466c1.16.6 1.517 1.3 1.517 2.984 0 1.07-.179 1.561-.825 2.271-1.057 1.162-2.824 1.504-7.766 1.504H143.1v-6.77zm7.983 3.012c.464-.71.462-.795-.04-1.35-.406-.45-.924-.592-2.14-.592H147.3v2.7h1.643c1.426 0 1.709-.1 2.14-.758zm-.573-4.992c1.047-.87-.037-2.05-1.882-2.05H147.3v1.15c0 .632.101 1.251.225 1.376.291.292 2.48-.056 2.985-.476zm6.69 2v-6.75h4.2v4.826l2.175-.088 2.175-.088.088-2.325.087-2.325h4.175v13.5h-4.2v-5.4h-4.5v5.4h-4.2v-6.75zm14.925 6.578c-.124-.125-.225-3.176-.225-6.778v-6.55h4.2v5.015l2.504.156c2.952.184 4.527.833 5.208 2.144.63 1.213.622 3.232-.015 4.205-.982 1.498-2.06 1.796-6.947 1.922-2.475.063-4.601.012-4.725-.114zm7.715-3.417c1.018-1.125-.178-2.111-2.56-2.111h-1.18v2.7h1.603c1.213 0 1.734-.144 2.137-.59zm5.56-3.161v-6.75h4.2v13.5h-4.2v-6.75zm6.213 6.562c-.117-.117-.213-3.16-.213-6.762v-6.55h3.9v3.45c0 1.897.101 3.445.225 3.44.124-.005 1.279-1.557 2.567-3.45l2.342-3.44h3.866v13.5h-3.882l-.084-3.574-.084-3.573-2.404 3.498-2.404 3.499-1.808.087c-.995.049-1.904-.008-2.021-.125zm5.28-14.244c-.887-.256-2.193-1.512-2.193-2.11 0-.476 1.246-.266 2.018.341.42.33 1.015.6 1.322.6.308 0 .83-.27 1.16-.6.633-.632 2.1-.826 2.1-.277 0 .485-1.688 2.077-2.203 2.077a3.48 3.48 0 0 0-.848.123c-.22.067-.83-.002-1.355-.154zM.014 230.528v-15h28.8v30h-9.3v-22.814l-5.024.083-5.025.082-.079 11.325-.078 11.325H.014v-15zm35.4 0v-15h24.9v6.3h-15.6v4.8h14.4v6.3h-14.4v5.7h15.9v6.9h-25.2v-15zm30.6-.018v-15.02l9.676.1c9.125.094 9.752.135 11.025.736 1.655.781 3.407 2.56 4.056 4.117 1.208 2.9.815 7.514-.852 10.005-1.933 2.889-5.019 3.98-11.254 3.98h-3.35v11.1h-9.3V230.51zm14.513-2.667c1.143-.435 2.052-2.03 1.865-3.277-.303-2.026-2.007-3.038-5.117-3.038h-1.96v6.988l2.212-.187c1.217-.102 2.567-.321 3-.486zm16.088 2.685v-15h9.845c11.037 0 11.941.125 14.066 1.944 1.689 1.446 2.49 3.198 2.482 5.426-.01 2.8-1.314 4.981-3.705 6.197l-.862.439 1.312.522c2.927 1.166 4.329 3.002 4.65 6.094.352 3.401-1.265 6.545-4.088 7.949-2.387 1.186-4.78 1.417-14.775 1.423l-8.925.006v-15zm16.983 8.016c1.883-.984 2.051-3.54.318-4.835-.745-.557-1.255-.63-4.347-.63h-3.504l-.087 2.676c-.048 1.472-.012 2.873.08 3.113.24.624 6.217.368 7.54-.324zm-1.083-11.704c1.097-.555 1.64-1.872 1.316-3.187-.396-1.6-1.663-2.124-5.14-2.124h-2.776v5.7l2.925-.005c1.754-.003 3.225-.156 3.675-.383zm17.1 3.71v-15.022h9.3v11.307l4.593.198c4.998.216 7.31.679 9.591 1.92 2.878 1.566 4.116 3.953 4.116 7.932 0 3.914-1.657 6.32-5.376 7.808-1.597.639-2.149.674-11.95.774l-10.274.104V230.55zm15.775 8.34c1.647-.414 2.525-1.44 2.525-2.95 0-.802-.213-1.308-.773-1.834-.718-.676-1.039-.735-4.5-.827l-3.727-.1v6.05h2.567c1.412 0 3.17-.153 3.908-.338zm14.225-8.362v-15h9.3v30h-9.3v-15zm15.6.008v-15.008h8.99l.08 8.118.08 8.117 5.5-8.117 5.5-8.118h8.95v30h-9V229.23l-5.509 8.075-5.508 8.075-4.542.083-4.54.082v-15.008zm11.23-17.522c-1.702-.792-3.175-2.383-3.655-3.947l-.318-1.038h1.921c1.397 0 1.922.108 1.922.397 0 .608 1.288 1.683 2.396 2.001 1.567.45 3.297-.08 4.4-1.345.899-1.032 1.026-1.08 2.598-.994l1.653.09-.407 1.2c-.508 1.497-2.66 3.512-4.264 3.993-1.97.59-4.527.444-6.247-.357zm-90.13-9.38c-15.94-1.38-27.057-4.34-39.45-10.53-20.217-10.08-36.324-26.27-46.198-46.44-4.956-10.12-7.75-19.07-9.469-30.3C.381 111.024.06 98.32.595 92.585c3.94-42.192 33.184-77.362 74.002-88.998C83.639 1.01 91.185.012 101.864-.015c10.23-.026 16.33.688 25.32 2.967 28.2 7.149 52.043 26.053 65.47 51.911 5.537 10.661 8.858 21.186 10.668 33.804.761 5.312.758 20.992-.005 26.346-3.219 22.558-12.742 42.085-28.267 57.958-16.314 16.68-36.97 26.978-60.087 29.958-4.458.575-15.387.99-18.645.708zm17.063-14.676c19.602-2.677 36.74-11.11 50.603-24.898 13.596-13.522 21.932-29.827 25.092-49.076.573-3.491.663-5.215.676-13.024.016-9.739-.342-13.253-2.094-20.557-7.307-30.454-30.704-55.117-60.604-63.883-7.787-2.283-14.156-3.269-22.637-3.504-23.853-.662-46.104 8.038-63.414 24.794-25.654 24.846-33.697 62.5-20.417 95.61 7.892 19.675 22.788 36.006 41.538 45.54 10.448 5.314 20.875 8.327 32.697 9.451 3.921.373 14.429.122 18.564-.442zm31.526-33.375l-18.16-.077-.973-3.673c-.535-2.02-1.798-6.745-2.806-10.5l-1.834-6.827-19.517.077-19.517.077-.519 1.8c-.285.99-1.562 5.682-2.838 10.425l-2.32 8.625H58.582c-14.144 0-17.805-.077-17.692-.375.079-.206.71-2.13 1.404-4.275.694-2.145 5.988-18.183 11.765-35.64 7.61-22.977 10.602-31.657 10.855-31.463.192.148 4.433 3.338 9.424 7.09 8.007 6.019 9.055 6.9 8.905 7.496-.093.37-2.572 8.088-5.51 17.15-2.937 9.062-5.31 16.514-5.272 16.559.038.045 6.59-4.657 14.562-10.45 12.613-9.166 14.575-10.493 15.117-10.23.343.166 6.9 4.882 14.573 10.479 7.672 5.597 13.992 10.07 14.044 9.939.083-.208-3.104-10.166-9.009-28.15-1.185-3.61-1.723-5.67-1.55-5.935.145-.223 4.45-3.496 9.565-7.274 5.917-4.369 9.37-6.739 9.491-6.515.106.194 3.905 11.422 8.442 24.952s9.89 29.46 11.892 35.397c2.003 5.938 3.604 10.933 3.558 11.1-.055.201-6.196.277-18.244.226zM67.263 76.01l7.9-23.839 7.8-23.537 19.2-.002 19.2-.003 7.77 23.467c4.274 12.907 7.829 23.636 7.9 23.842.103.296-2.492.375-12.326.375h-12.456l-.76-2.475-5.193-16.95c-2.438-7.961-4.508-14.475-4.6-14.475s-1.76 4.894-3.707 10.875-4.43 13.61-5.52 16.95l-1.98 6.075H78.826c-7.708 0-11.629-.102-11.563-.302z"/>
</svg>
