<svg width="599.99" height="222.95" version="1.1" viewBox="0 0 158.75 58.991" xmlns="http://www.w3.org/2000/svg">
 <g transform="translate(-54.333 -130.2)" fill="#fff">
  <path d="m203.71 130.2c-5.1801 0-9.3727 4.2052-9.3727 9.3727 0 5.1981 4.1928 9.4126 9.3727 9.4126 5.178 0 9.3727-4.2144 9.3727-9.4126 7e-3 -5.1673-4.1914-9.3727-9.372-9.3727zm0 1.3871c4.397 0 8.0056 3.5764 8.0056 7.9859 0 4.4392-3.6086 8.0455-8.0056 8.0455s-8.0055-3.6059-8.0055-8.0455c0-4.4094 3.6087-7.9859 8.0055-7.9859zm-106.41 2.3186c-0.35508 0-0.63412 0.28951-0.63412 0.63412v39.829c0 0.34461 0.27968 0.6341 0.63412 0.6341h5.6276c0.3552 0 0.63412-0.29014 0.63412-0.6341v-39.829c0-0.34461-0.27892-0.63412-0.63412-0.63412zm42.902 0.0192c-0.35508 0-0.63411 0.28949-0.63411 0.6341v39.81c0 0.35376 0.27903 0.63409 0.63411 0.63409h5.6474c0.35441 0 0.63409-0.28097 0.63409-0.63409v-12.305c0-4.7034 2.7539-8.6993 6.2618-8.6993 2.5379 0 3.2894 1.6689 3.2894 4.4784l-0.0192 16.526c0 0.35379 0.29079 0.63412 0.6341 0.63412h5.6079c0.34331 0 0.63411-0.28098 0.63411-0.63412v-18.191c0-4.6948-1.9415-8.58-7.9859-8.58-4.1504 0-7.2319 1.9955-8.7982 5.0134l-0.12678-0.059c0.38013-1.5678 0.4954-3.827 0.4954-5.4493v-12.543c0-0.34461-0.27968-0.63409-0.63411-0.63409h-5.6474zm67.316 0.0594-9.4722 3.4083v2.3383l3.1309-1.1295v7.0544l6.341-2.259v-9.4126zm-136.87 12.642c-5.192 0-10.175 5.1239-12.821 9.3923-1.2318 2.1656-2.8779 5.6083-3.3488 9.0163-0.47338 3.398 0.08172 7.0861 3.4876 9.0163 5.1571 2.9364 10.655 0.38936 14.505-2.5562 0.3459-0.24464 0.69123-0.55627 1.0899-0.89168 0.98839-0.84303 1.8252-1.6708 2.4769-2.3779 0.01917-0.0276 0.06087-0.0721 0.07933-0.099 0.80492-0.84303 1.6443-1.7624 2.4769-2.7147l0.09898 0.1982c2.8003 5.0026 6.4888 9.8178 12.108 9.3923 0.6793-0.11767 0.66516-0.70132 0.67374-1.4267 0.0096-1.4139-0.03954-4.5972-0.03954-4.5972 0.01917-0.50709-0.36949-0.76847-1.0304-0.83227-0.30844-0.0271-0.90112-0.035-1.2286-0.1982-1.4942-0.73391-2.2056-2.0866-3.4281-4.0622-0.80754-1.3053-1.5584-2.7239-2.3383-4.2009 1.5868-1.9486 7.8077-9.8089 7.8071-9.8089 1.7495-2.3931 0.78185-2.5567-0.81231-2.5567l-5.053-0.0192c-0.73327 0.0362-1.2261 0.29893-1.4069 0.53504-0.42676 0.53459-1.1181 1.4532-1.8428 2.3779-0.77923 1.0154-1.5245 2.0116-2.2788 2.9724-2.2202-3.6064-4.8053-6.5592-9.1748-6.5592zm112.73 0.2774c-5.2012 0-10.153 5.124-12.801 9.3923-1.2415 2.1656-2.8866 5.6196-3.3488 9.036-0.47081 3.398 0.0798 7.0658 3.4876 8.9967 7.1222 4.0505 14.891-2.337 18.072-5.8258 0.22672-0.24462 0.33435-0.8386 0.0793-1.2286l-2.9922-3.8442c-0.54327-0.64387-1.1268-0.71623-1.8627 0-1.8933 1.8486-2.9098 3.3825-5.9447 4.6963-2.2295 0.96087-3.4776 0.4565-3.9235-0.27741-1.16-1.8854 2.0679-7.1381 2.4572-7.8274 2.4826-3.978 5.0913-5.883 6.757-5.9645 0.34526-0.0192 0.97899 0.17783 1.6051 0.81241 0.6148 0.61624 1.264 1.5441 1.9618 2.6949 1.4153 2.3563 2.8851 5.4238 4.518 8.3423 2.791 5.002 6.36 9.5414 11.988 9.1152 0.67014-0.10857 0.65389-0.68155 0.65389-1.407 0.01-1.4225-0.0395-4.617-0.0395-4.617 0.0276-0.49856-0.35885-0.75843-1.0106-0.8124-0.30845-0.0276-0.90113-0.0436-1.2286-0.1982-1.5033-0.73391-2.0264-1.8383-3.2498-3.8046-1.2968-2.1026-2.3278-4.6292-3.7056-7.0944-2.8443-5.1118-5.6361-10.185-11.473-10.185zm-58.496 0.43597c-4.0505 0-6.9066 1.8776-8.4215 5.0133h-0.11887c0.1553-1.0332 0.23918-2.2816 0.25761-3.3687 0.01-0.0276 5.8e-4 -0.59445 0-0.59445 0-0.35314-0.2684-0.63412-0.6143-0.63412h-5.1521c-0.3525 0-0.63412 0.28098-0.63412 0.63412v40.167c0 0.35314 0.28162 0.63412 0.63412 0.63412h5.6276c0.35509 0 0.6539-0.28098 0.6539-0.63412v-13.693c1.1416 0.16321 2.1518 0.21785 3.4479 0.21785 9.2801 0 14.148-5.884 14.148-15.218-6.5e-4 -7.9383-3.4575-12.524-9.8286-12.524zm-2.0013 5.6673c3.125 0 4.5972 2.5889 4.5972 7.6092 0 6.6429-2.8686 9.1152-6.757 9.1152-1.3942 0-2.5207-0.14955-3.6064-0.47556v-7.4507c0-4.5857 2.15-8.7982 5.7664-8.7982zm-52.27 0.77233c0.33416-0.0192 0.97899 0.17783 1.6051 0.81243 0.61689 0.61624 1.3228 1.5348 2.0212 2.6949 0.3268 0.54315 0.6745 1.1276 1.0106 1.7438-1.2693 1.5316-2.4996 2.9431-3.7254 4.2207-1.8677 1.8217-3.193 3.2919-6.2023 4.5972-2.2294 0.96085-3.4606 0.4473-3.9037-0.27744-1.1508-1.8854 2.0679-7.1577 2.4571-7.847 2.4846-3.9781 5.0788-5.8632 6.7373-5.9447z" fill-rule="evenodd"/>
 </g>
</svg>
