<svg width="600" height="237.48" viewBox="0 0 158.75 62.834" xmlns="http://www.w3.org/2000/svg">
    <path d="M80.78 47.73v11.116h1.13V47.73zm7.61 0v3.527a15.1 15.1 0 0 0-1.388-.06c-2.361 0-3.904 1.505-3.904 4.202 0 2.209.92 3.586 2.794 3.586 1.22 0 2.19-.721 2.616-1.803l.02.02c-.092.456-.14 1.187-.14 1.644h1.13V47.729h-1.13zm32.1 0v11.116h1.13v-3.963l2.992 3.963h1.486l-3.25-4.122 3.012-3.448h-1.387l-2.853 3.409v-6.956h-1.13zm28.158 0v11.116h1.13V47.73zm-70.506.634a.795.795 0 0 0-.634.773c0 .442.35.773.793.773a.78.78 0 0 0 .792-.773c0-.427-.366-.773-.792-.773-.055 0-.107-.01-.159 0zm-42.412.139c-1.188 0-2.145.014-2.952.06v10.284h1.981v-4.24h.06l2.873 4.24h2.457L37.672 55.4c-.259-.35-.543-.748-.832-1.13 1.554-.243 2.616-1.349 2.616-2.872 0-2.103-1.456-2.893-3.726-2.893zm9.115 0c-1.264 0-2.521.049-3.329.08v10.244c.869.03 1.807.08 2.874.08 3.351 0 5.667-1.836 5.667-5.37 0-3.611-2.027-5.034-5.212-5.034zm27.98.02c-1.234 0-2.172.024-2.873.039v10.285c.884.014 1.853.059 2.477.059 3.245 0 3.924-1.979 3.924-3.091 0-1.097-.657-2.15-2.18-2.378v-.04c1.158-.335 1.942-1.31 1.942-2.437 0-1.493-1.05-2.438-3.29-2.438zm-47.062.039l-3.606 10.285h2.001l.714-2.1h3.884l.733 2.1h2.18l-3.666-10.285zm46.844.911c1.813 0 2.28.71 2.28 1.684 0 1.22-.947 1.942-2.775 1.942-.396 0-.67-.005-.99-.019v-3.586c.441-.015.983-.02 1.485-.02zm-37.08.653c1.25 0 1.863.476 1.863 1.467 0 .96-.734 1.565-1.922 1.565a8.8 8.8 0 0 1-.713-.02v-2.971c.198-.03.483-.04.772-.04zm9.175.04c2.346 0 3.21 1.318 3.21 3.527 0 2.438-1.394 3.527-3.329 3.527-.396 0-.815-.033-1.09-.08v-6.935c.32-.03.752-.04 1.21-.04zm-17.913.673h.02c.121.58.277 1.081.475 1.645l.951 2.695h-2.853l.931-2.616c.198-.594.354-1.19.476-1.724zm76.27.279c-1.325 0-2.268.746-2.695 1.843h-.04c.077-.457.12-1.197.12-1.685h-1.13v7.57h1.15V55.2c0-1.798.962-3.13 2.318-3.13 1.097 0 1.407.693 1.407 1.882v4.894h1.15v-5.29c0-1.341-.543-2.438-2.28-2.438zm34.38 0c-1.325 0-2.288.746-2.714 1.843h-.04a12.15 12.15 0 0 0 .139-1.685h-1.13v7.57h1.13V55.2c0-1.798.962-3.13 2.318-3.13 1.097 0 1.427.693 1.427 1.882v4.894h1.13v-5.29c0-1.341-.523-2.438-2.26-2.438zm-27.405.019c-2.057 0-3.29 1.348-3.29 2.933 0 .975.369 1.757 1.13 2.2-.533.243-.832.71-.832 1.228 0 .487.28.877.753 1.09-.716.365-1.308 1.076-1.308 2.021 0 1.447 1.231 2.22 3.15 2.22 2.332 0 3.984-1.195 3.984-2.795 0-1.325-.891-2.12-2.537-2.12h-1.486c-.944 0-1.367-.212-1.367-.654 0-.274.174-.536.555-.673.274.06.7.099 1.05.099 2.179 0 3.29-1.239 3.29-2.854 0-.716-.292-1.314-.734-1.664h1.368v-.892h-2.576a4.745 4.745 0 0 0-1.15-.139zm7.193 0c-1.92 0-2.972.955-2.972 2.22 0 2.696 3.706 1.56 3.706 3.388 0 .792-.766 1.288-1.863 1.288-.594 0-1.217-.12-1.704-.258l-.02 1.05a8.533 8.533 0 0 0 1.606.16c1.98 0 3.15-1.058 3.15-2.399 0-2.574-3.685-1.535-3.685-3.348 0-.747.532-1.19 1.644-1.19.518 0 1.083.09 1.586.258l.019-.99c-.472-.092-.994-.179-1.466-.179zm11.87 0c-1.02 0-1.9.255-2.615.575l.099.99c.67-.426 1.587-.653 2.318-.653 1.31 0 1.724.64 1.724 1.783v.634c-2.956 0-4.597 1.09-4.597 2.675 0 1.204.857 1.843 2.06 1.843 1.296 0 2.27-.764 2.636-1.724h.04c-.077.442-.08 1.006-.08 1.585h1.13c-.03-.67-.04-1.512-.04-2.259v-2.972c0-1.432-.588-2.477-2.675-2.477zm14.941 0c-1.02 0-1.9.255-2.615.575l.099.99c.67-.426 1.587-.653 2.318-.653 1.31 0 1.724.64 1.724 1.783v.634c-2.956 0-4.597 1.09-4.597 2.675 0 1.204.877 1.843 2.08 1.843 1.296 0 2.27-.764 2.636-1.724h.02c-.077.442-.08 1.006-.08 1.585h1.13c-.031-.67-.02-1.512-.02-2.259v-2.972c0-1.432-.608-2.477-2.695-2.477zm-66.34.139v7.57h1.15v-7.57zm13.712 0v5.29c0 1.341.542 2.438 2.28 2.438 1.325 0 2.287-.746 2.714-1.843l.02.02a11.887 11.887 0 0 0-.12 1.664h1.13v-7.57h-1.15v3.646c0 1.798-.942 3.131-2.298 3.131-1.097 0-1.427-.674-1.427-1.863v-4.914h-1.15zm18.567.753c1.25 0 2.002.703 2.002 1.922s-.812 1.882-2.061 1.882c-1.28 0-2.021-.648-2.021-1.882 0-1.112.77-1.922 2.08-1.922zm-23.085.06c.488 0 .969.056 1.487.178v2.675c0 1.34-.751 3.11-2.26 3.11-1.249 0-1.822-1.027-1.822-2.734 0-2.285 1.041-3.23 2.596-3.23zM72.11 53.97c1.692 0 3.032.435 3.032 1.882 0 1.204-.802 2.1-2.615 2.1-.67 0-1.133-.053-1.407-.098V53.99c.243-.015.808-.02.99-.02zm58.516 1.327v.12c0 1.31-.878 2.635-2.219 2.635-.747 0-1.248-.444-1.248-1.13 0-.731.618-1.625 3.467-1.625zm14.941 0v.12c0 1.31-.878 2.635-2.219 2.635-.747 0-1.229-.444-1.229-1.13 0-.731.6-1.625 3.448-1.625zm-36.857 3.587c.137.014.343.02.496.02h1.545c1.158 0 1.724.48 1.724 1.287 0 1.006-.974 1.704-2.635 1.704-1.265 0-2.2-.51-2.2-1.486 0-.64.415-1.19 1.07-1.526z" fill="#fff"/>
    <path d="M149.38 0c-5.18 0-9.373 4.205-9.373 9.373 0 5.198 4.193 9.412 9.373 9.412 5.178 0 9.373-4.214 9.373-9.412C158.76 4.205 154.56 0 149.38 0zm0 1.387c4.397 0 8.006 3.577 8.006 7.986 0 4.44-3.609 8.046-8.006 8.046s-8.005-3.606-8.005-8.046c0-4.41 3.608-7.986 8.005-7.986zM42.97 3.706a.635.635 0 0 0-.634.634v39.829c0 .344.28.634.634.634h5.628c.355 0 .634-.29.634-.634V4.339a.635.635 0 0 0-.634-.633zm42.902.019a.635.635 0 0 0-.634.634v39.81c0 .354.279.634.634.634h5.647a.63.63 0 0 0 .634-.634V31.864c0-4.703 2.754-8.7 6.262-8.7 2.538 0 3.29 1.67 3.29 4.48l-.02 16.525c0 .354.291.634.635.634h5.607a.637.637 0 0 0 .635-.634V25.98c0-4.696-1.942-8.58-7.986-8.58-4.15 0-7.232 1.995-8.798 5.012l-.127-.059c.38-1.567.495-3.827.495-5.449V4.36a.635.635 0 0 0-.634-.634h-5.647zm67.316.06l-9.472 3.408V9.53l3.13-1.13v7.055l6.342-2.26V3.785zM16.318 16.425c-5.192 0-10.175 5.124-12.821 9.393C2.265 27.984.619 31.427.148 34.835c-.473 3.398.082 7.086 3.488 9.016 5.157 2.937 10.655.39 14.505-2.556.346-.245.691-.556 1.09-.892a28.953 28.953 0 0 0 2.477-2.378c.019-.027.06-.072.079-.099a84.588 84.588 0 0 0 2.477-2.714l.099.198c2.8 5.003 6.489 9.818 12.108 9.392.68-.117.665-.701.674-1.426.01-1.414-.04-4.598-.04-4.598.02-.507-.37-.768-1.03-.832-.309-.027-.902-.035-1.229-.198-1.494-.734-2.206-2.087-3.428-4.062-.808-1.306-1.558-2.724-2.338-4.201 1.586-1.949 7.807-9.81 7.807-9.81 1.75-2.392.782-2.556-.813-2.556l-5.053-.019c-.733.036-1.226.299-1.407.535-.426.535-1.118 1.453-1.842 2.378-.78 1.015-1.525 2.011-2.28 2.972-2.22-3.606-4.804-6.559-9.174-6.559zm112.73.278c-5.201 0-10.153 5.124-12.801 9.392-1.242 2.166-2.887 5.62-3.349 9.036-.47 3.398.08 7.066 3.488 8.997 7.122 4.05 14.89-2.337 18.072-5.826.227-.245.334-.839.08-1.229l-2.993-3.844c-.543-.644-1.127-.716-1.863 0-1.893 1.849-2.91 3.383-5.944 4.696-2.23.961-3.478.457-3.924-.277-1.16-1.885 2.068-7.138 2.457-7.827 2.483-3.978 5.091-5.883 6.757-5.965.345-.02.98.178 1.605.813.615.616 1.264 1.544 1.962 2.694 1.415 2.357 2.885 5.424 4.518 8.343 2.791 5.002 6.36 9.541 11.988 9.115.67-.109.654-.682.654-1.407.01-1.423-.04-4.617-.04-4.617.028-.499-.358-.759-1.01-.812-.309-.028-.901-.044-1.229-.199-1.503-.734-2.026-1.838-3.25-3.804-1.296-2.103-2.327-4.63-3.705-7.095-2.844-5.111-5.636-10.185-11.473-10.185zm-58.496.436c-4.05 0-6.907 1.877-8.422 5.013h-.118c.155-1.033.239-2.282.257-3.369.01-.027 0-.594 0-.594a.618.618 0 0 0-.614-.634h-5.152a.63.63 0 0 0-.634.634v40.167a.63.63 0 0 0 .634.634h5.627a.646.646 0 0 0 .654-.634V44.664c1.142.163 2.152.218 3.448.218 9.28 0 14.148-5.884 14.148-15.218 0-7.939-3.457-12.524-9.828-12.524zm-2.001 5.667c3.125 0 4.597 2.589 4.597 7.61 0 6.642-2.869 9.114-6.757 9.114-1.394 0-2.52-.15-3.607-.475v-7.45c0-4.587 2.15-8.8 5.767-8.8zm-52.27.772c.334-.019.979.178 1.605.813.617.616 1.323 1.535 2.021 2.695.327.543.674 1.127 1.01 1.743-1.269 1.532-2.499 2.944-3.725 4.221-1.868 1.822-3.193 3.292-6.202 4.597-2.23.961-3.46.448-3.904-.277-1.15-1.886 2.068-7.158 2.457-7.847 2.485-3.978 5.08-5.863 6.738-5.945z" fill="#db502b" fill-rule="evenodd"/>
</svg>
