<svg width="600" height="237.48" version="1.1" viewBox="0 0 158.75 62.834319" xmlns="http://www.w3.org/2000/svg" xmlns:xlink="http://www.w3.org/1999/xlink">
 <g transform="translate(-54.33 -130.2)" fill="#fff">
  <path d="m135.11 177.93v11.116h1.1295v-11.116zm7.6092 0v3.5272c-0.518-0.0458-0.94525-0.0594-1.3871-0.0594-2.3615 0-3.9037 1.5043-3.9037 4.2009 0 2.2092 0.92009 3.5866 2.794 3.5866 1.2188 0 2.1891-0.72147 2.6157-1.8032l0.0192 0.0192c-0.0913 0.45706-0.13877 1.1877-0.13877 1.6447h1.1295v-11.117h-1.1295zm32.101 0v11.116h1.1295v-3.9632l2.9922 3.9632h1.4862l-3.2498-4.1217 3.012-3.448h-1.3871l-2.8534 3.4083v-6.9555h-1.1295zm28.158 0v11.116h1.1295v-11.116zm-70.506 0.63409c-0.36306 0.0729-0.63409 0.39954-0.63409 0.77284 0 0.44184 0.35079 0.77286 0.79263 0.77286 0.42657 0 0.79261-0.331 0.79261-0.77286 0-0.42657-0.36604-0.77284-0.79261-0.77284-0.0551 0-0.10665-0.01-0.15866 0zm-42.412 0.13877c-1.1884 0-2.145 0.0144-2.9525 0.0594v10.285h1.9816v-4.2406h0.05944l2.8732 4.2406h2.4571l-2.4769-3.448c-0.259-0.35041-0.54278-0.7486-0.83227-1.1294 1.554-0.24378 2.6157-1.3497 2.6157-2.8732 0-2.1025-1.4553-2.8931-3.7254-2.8931zm9.1152 0c-1.2645 0-2.5216 0.0489-3.329 0.0793v10.245c0.86839 0.0304 1.8068 0.0793 2.8732 0.0793 3.3518 0 5.6673-1.8354 5.6673-5.3701 0-3.6108-2.0273-5.0332-5.2116-5.0332zm27.98 0.0192c-1.2341 0-2.1724 0.0245-2.8732 0.0395v10.285c0.88367 0.0144 1.8523 0.0594 2.4769 0.0594 3.2452 0 3.9235-1.979 3.9235-3.0913 0-1.0969-0.65617-2.1494-2.1797-2.3779v-0.0395c1.1579-0.33518 1.9419-1.3099 1.9419-2.4374 0-1.493-1.0498-2.4374-3.2894-2.4374zm-47.062 0.0395-3.6065 10.285h2.0014l0.71335-2.1005h3.8839l0.73315 2.1005h2.1797l-3.6659-10.285zm46.844 0.91153c1.813 0 2.2788 0.70923 2.2788 1.6843 0 1.2188-0.94594 1.942-2.7742 1.942-0.39614 0-0.67081-5e-3 -0.99078-0.0192v-3.5866c0.44181-0.0144 0.98342-0.0192 1.4862-0.0192zm-37.08 0.65313c1.2493 0 1.8627 0.47606 1.8627 1.4664 0 0.95984-0.73379 1.5655-1.9221 1.5655-0.3047 0-0.57624-5e-3 -0.71338-0.0192v-2.9723c0.19796-0.0304 0.48335-0.0395 0.77286-0.0395zm9.1748 0.0395c2.3462 0 3.2101 1.3181 3.2101 3.5272 0 2.4377-1.3941 3.5272-3.329 3.5272-0.39614 0-0.81564-0.0336-1.0899-0.0793v-6.9358c0.31995-0.0304 0.75167-0.0395 1.2087-0.0395zm-17.913 0.67373h0.01917c0.12199 0.57895 0.2775 1.081 0.47558 1.6448l0.95114 2.6949h-2.8535l0.93137-2.6157c0.19796-0.59417 0.35369-1.1907 0.47556-1.724zm76.27 0.27839c-1.3255 0-2.2683 0.7459-2.6949 1.8428h-0.0395c0.0762-0.45706 0.11887-1.1968 0.11887-1.6843h-1.1294v7.5699h1.1493v-3.6461c0-1.7978 0.96253-3.1309 2.3184-3.1309 1.097 0 1.407 0.69415 1.407 1.8825v4.8945h1.1493v-5.2908c0-1.3407-0.54197-2.4374-2.2788-2.4374zm34.38 0c-1.3255 0-2.2882 0.7459-2.7147 1.8428h-0.0395c0.0762-0.45706 0.13876-1.1968 0.13876-1.6843h-1.1295v7.5699h1.1295v-3.6461c0-1.7978 0.9625-3.1309 2.3184-3.1309 1.0969 0 1.4267 0.69415 1.4267 1.8825v4.8945h1.1295v-5.2908c0-1.3407-0.52215-2.4374-2.259-2.4374zm-27.405 0.0192c-2.0568 0-3.2894 1.3482-3.2894 2.9327 0 0.97506 0.36773 1.7577 1.1295 2.1996-0.53324 0.24376-0.83227 0.71057-0.83227 1.2286 0 0.48754 0.28072 0.87658 0.75302 1.0899-0.71611 0.36563-1.3079 1.0766-1.3079 2.0212 0 1.4474 1.231 2.2194 3.1507 2.2194 2.331 0 3.983-1.1943 3.983-2.794 0-1.3255-0.89099-2.1203-2.5364-2.1203h-1.4862c-0.94462 0-1.3672-0.2121-1.3672-0.65389 0-0.27425 0.17399-0.53663 0.55484-0.67374 0.27422 0.0609 0.69979 0.099 1.0502 0.099 2.1787 0 3.2894-1.2385 3.2894-2.8535 0-0.71609-0.29135-1.3141-0.73314-1.6645h1.3672v-0.89166h-2.576c-0.39613-0.0915-0.72274-0.13876-1.1493-0.13876zm7.1932 0c-1.9197 0-2.9723 0.95483-2.9723 2.2194 0 2.6967 3.7056 1.5602 3.7056 3.3885 0 0.79224-0.76574 1.288-1.8627 1.288-0.59419 0-1.2166-0.12055-1.7042-0.25761l-0.0192 1.0502c0.45706 0.0916 1.0414 0.15865 1.605 0.15865 1.9806 0 3.1507-1.057 3.1507-2.3977 0-2.5748-3.6857-1.5359-3.6857-3.3488 0-0.74652 0.53253-1.1889 1.6448-1.1889 0.518 0 1.0825 0.0901 1.5853 0.25759l0.0192-0.99078c-0.4723-0.0913-0.99409-0.17831-1.4664-0.17831zm11.87 0c-1.0208 0-1.8996 0.25473-2.6157 0.57466l0.099 0.99078c0.67038-0.42657 1.5872-0.65387 2.3184-0.65387 1.3103 0 1.724 0.64076 1.724 1.7834v0.63409c-2.9557 0-4.5973 1.0906-4.5973 2.6751 0 1.2036 0.85724 1.8428 2.0608 1.8428 1.295 0 2.2698-0.76416 2.6355-1.724h0.0395c-0.0762 0.44182-0.0793 1.0063-0.0793 1.5853h1.1294c-0.0304-0.67038-0.0395-1.5125-0.0395-2.259v-2.9724c0-1.4321-0.58786-2.4769-2.6752-2.4769zm14.941 0c-1.0208 0-1.8996 0.25473-2.6157 0.57466l0.099 0.99078c0.67038-0.42657 1.5872-0.65387 2.3184-0.65387 1.3102 0 1.724 0.64076 1.724 1.7834v0.63409c-2.9557 0-4.5972 1.0906-4.5972 2.6751 0 1.2036 0.87702 1.8428 2.0806 1.8428 1.295 0 2.2698-0.76416 2.6354-1.724h0.0192c-0.0762 0.44182-0.0793 1.0063-0.0793 1.5853h1.1295c-0.0304-0.67038-0.0192-1.5125-0.0192-2.259v-2.9724c0-1.4321-0.60766-2.4769-2.6949-2.4769zm-66.34 0.13876v7.5699h1.1493v-7.5699zm13.712 0v5.2908c0 1.3408 0.54194 2.4374 2.2788 2.4374 1.3254 0 2.2882-0.7459 2.7147-1.8428l0.0192 0.0192c-0.0762 0.45706-0.11887 1.177-0.11887 1.6645h1.1295v-7.5699h-1.1493v3.6461c0 1.7978-0.94266 3.1309-2.2986 3.1309-1.0969 0-1.4267-0.67431-1.4267-1.8627v-4.9143h-1.1493zm18.567 0.75302c1.2493 0 2.0014 0.70326 2.0014 1.9221s-0.81152 1.8825-2.0608 1.8825c-1.2797 0-2.0212-0.64845-2.0212-1.8825 0-1.1122 0.77039-1.9221 2.0806-1.9221zm-23.085 0.0594c0.48754 0 0.96815 0.0566 1.4862 0.17831v2.6752c0 1.3407-0.75064 3.111-2.259 3.111-1.2493 0-1.823-1.0282-1.823-2.7346 0-2.2853 1.0418-3.23 2.5959-3.23zm-14.782 1.8825c1.6912 0 3.0318 0.43512 3.0318 1.8825 0 1.2036-0.80265 2.1005-2.6157 2.1005-0.67036 0-1.1327-0.0534-1.4069-0.099v-3.8641c0.24376-0.0144 0.80797-0.0192 0.99078-0.0192zm58.516 1.3277v0.11887c0 1.3103-0.87862 2.6355-2.2194 2.6355-0.74654 0-1.2484-0.4439-1.2484-1.1295 0-0.73131 0.61874-1.6249 3.4678-1.6249zm14.941 0v0.11887c0 1.3103-0.87862 2.6355-2.2194 2.6355-0.74652 0-1.2286-0.4439-1.2286-1.1295 0-0.73131 0.59891-1.6249 3.448-1.6249zm-36.857 3.5866c0.13709 0.0144 0.34305 0.0192 0.49541 0.0192h1.5456c1.1579 0 1.724 0.48054 1.724 1.288 0 1.0056-0.9748 1.7042-2.6355 1.7042-1.2645 0-2.1996-0.5111-2.1996-1.4862 0-0.63987 0.41492-1.1907 1.0701-1.5258z"/>
  <path d="m203.71 130.2c-5.1801 0-9.3727 4.2052-9.3727 9.3727 0 5.1981 4.1928 9.4126 9.3727 9.4126 5.178 0 9.3727-4.2144 9.3727-9.4126 7e-3 -5.1673-4.1914-9.3727-9.372-9.3727zm0 1.3871c4.397 0 8.0056 3.5764 8.0056 7.9859 0 4.4392-3.6086 8.0455-8.0056 8.0455s-8.0055-3.6059-8.0055-8.0455c0-4.4094 3.6087-7.9859 8.0055-7.9859zm-106.41 2.3186c-0.35508 0-0.63412 0.28951-0.63412 0.63412v39.829c0 0.34461 0.27968 0.6341 0.63412 0.6341h5.6276c0.3552 0 0.63412-0.29014 0.63412-0.6341v-39.829c0-0.34461-0.27892-0.63412-0.63412-0.63412zm42.902 0.0192c-0.35508 0-0.63411 0.28949-0.63411 0.6341v39.81c0 0.35376 0.27903 0.63409 0.63411 0.63409h5.6474c0.35441 0 0.63409-0.28097 0.63409-0.63409v-12.305c0-4.7034 2.7539-8.6993 6.2618-8.6993 2.5379 0 3.2894 1.6689 3.2894 4.4784l-0.0192 16.526c0 0.35379 0.29079 0.63412 0.6341 0.63412h5.6079c0.34331 0 0.63411-0.28098 0.63411-0.63412v-18.191c0-4.6948-1.9415-8.58-7.9859-8.58-4.1504 0-7.2319 1.9955-8.7982 5.0134l-0.12678-0.059c0.38013-1.5678 0.4954-3.827 0.4954-5.4493v-12.543c0-0.34461-0.27968-0.63409-0.63411-0.63409h-5.6474zm67.316 0.0594-9.4722 3.4083v2.3383l3.1309-1.1295v7.0544l6.341-2.259v-9.4126zm-136.87 12.642c-5.192 0-10.175 5.1239-12.821 9.3923-1.2318 2.1656-2.8779 5.6083-3.3488 9.0163-0.47338 3.398 0.08172 7.0861 3.4876 9.0163 5.1571 2.9364 10.655 0.38936 14.505-2.5562 0.3459-0.24464 0.69123-0.55627 1.0899-0.89168 0.98839-0.84303 1.8252-1.6708 2.4769-2.3779 0.01917-0.0276 0.06087-0.0721 0.07933-0.099 0.80492-0.84303 1.6443-1.7624 2.4769-2.7147l0.09898 0.1982c2.8003 5.0026 6.4888 9.8178 12.108 9.3923 0.6793-0.11767 0.66516-0.70132 0.67374-1.4267 0.0096-1.4139-0.03954-4.5972-0.03954-4.5972 0.01917-0.50709-0.36949-0.76847-1.0304-0.83227-0.30844-0.0271-0.90112-0.035-1.2286-0.1982-1.4942-0.73391-2.2056-2.0866-3.4281-4.0622-0.80754-1.3053-1.5584-2.7239-2.3383-4.2009 1.5868-1.9486 7.8077-9.8089 7.8071-9.8089 1.7495-2.3931 0.78185-2.5567-0.81231-2.5567l-5.053-0.0192c-0.73327 0.0362-1.2261 0.29893-1.4069 0.53504-0.42676 0.53459-1.1181 1.4532-1.8428 2.3779-0.77923 1.0154-1.5245 2.0116-2.2788 2.9724-2.2202-3.6064-4.8053-6.5592-9.1748-6.5592zm112.73 0.2774c-5.2012 0-10.153 5.124-12.801 9.3923-1.2415 2.1656-2.8866 5.6196-3.3488 9.036-0.47081 3.398 0.0798 7.0658 3.4876 8.9967 7.1222 4.0505 14.891-2.337 18.072-5.8258 0.22672-0.24462 0.33435-0.8386 0.0793-1.2286l-2.9922-3.8442c-0.54327-0.64387-1.1268-0.71623-1.8627 0-1.8933 1.8486-2.9098 3.3825-5.9447 4.6963-2.2295 0.96087-3.4776 0.4565-3.9235-0.27741-1.16-1.8854 2.0679-7.1381 2.4572-7.8274 2.4826-3.978 5.0913-5.883 6.757-5.9645 0.34526-0.0192 0.97899 0.17783 1.6051 0.81241 0.6148 0.61624 1.264 1.5441 1.9618 2.6949 1.4153 2.3563 2.8851 5.4238 4.518 8.3423 2.791 5.002 6.36 9.5414 11.988 9.1152 0.67014-0.10857 0.65389-0.68155 0.65389-1.407 0.01-1.4225-0.0395-4.617-0.0395-4.617 0.0276-0.49856-0.35885-0.75843-1.0106-0.8124-0.30845-0.0276-0.90113-0.0436-1.2286-0.1982-1.5033-0.73391-2.0264-1.8383-3.2498-3.8046-1.2968-2.1026-2.3278-4.6292-3.7056-7.0944-2.8443-5.1118-5.6361-10.185-11.473-10.185zm-58.496 0.43597c-4.0505 0-6.9066 1.8776-8.4215 5.0133h-0.11887c0.1553-1.0332 0.23918-2.2816 0.25761-3.3687 0.01-0.0276 5.8e-4 -0.59445 0-0.59445 0-0.35314-0.2684-0.63412-0.6143-0.63412h-5.1521c-0.3525 0-0.63412 0.28098-0.63412 0.63412v40.167c0 0.35314 0.28162 0.63412 0.63412 0.63412h5.6276c0.35509 0 0.6539-0.28098 0.6539-0.63412v-13.693c1.1416 0.16321 2.1518 0.21785 3.4479 0.21785 9.2801 0 14.148-5.884 14.148-15.218-6.5e-4 -7.9383-3.4575-12.524-9.8286-12.524zm-2.0013 5.6673c3.125 0 4.5972 2.5889 4.5972 7.6092 0 6.6429-2.8686 9.1152-6.757 9.1152-1.3942 0-2.5207-0.14955-3.6064-0.47556v-7.4507c0-4.5857 2.15-8.7982 5.7664-8.7982zm-52.27 0.77233c0.33416-0.0192 0.97899 0.17783 1.6051 0.81243 0.61689 0.61624 1.3228 1.5348 2.0212 2.6949 0.3268 0.54315 0.6745 1.1276 1.0106 1.7438-1.2693 1.5316-2.4996 2.9431-3.7254 4.2207-1.8677 1.8217-3.193 3.2919-6.2023 4.5972-2.2294 0.96085-3.4606 0.4473-3.9037-0.27744-1.1508-1.8854 2.0679-7.1577 2.4571-7.847 2.4846-3.9781 5.0788-5.8632 6.7373-5.9447z" fill-rule="evenodd"/>
 </g>
</svg>
