<svg width="211.67mm" height="70.554mm" version="1.1" viewBox="0 0 211.67 70.554" xmlns="http://www.w3.org/2000/svg">
 <g transform="matrix(13.333 0 0 13.333 1194.4 -2424.1)" stroke-width=".26458">
  <path d="m-73.705 181.81h-5.2917v5.2917h5.2917z"/>
  <path d="m-76.069 182.86c0.39793 0 0.70564 0.0871 0.92287 0.26088 0.21749 0.17383 0.32597 0.41646 0.32597 0.72787 0 0.26617-0.06297 0.49821-0.18918 0.69612-0.12594 0.19844-0.30533 0.35004-0.53763 0.45588-0.23283 0.10583-0.50694 0.15875-0.82285 0.15875h-0.7112l-0.17277 0.8755h-0.74348l0.63818-3.175h1.2898zm-0.26882 1.701c0.24606 0 0.43603-0.0561 0.56965-0.16801 0.13361-0.11192 0.20055-0.27199 0.20055-0.48075 0-0.15108-0.0508-0.26458-0.15266-0.34025-0.10186-0.0754-0.24871-0.11324-0.44-0.11324h-0.57891l-0.22331 1.1022h0.62442z" fill="#fff"/>
  <path d="m-84.289 181.81h-5.2917v5.2917h5.2917z"/>
  <path d="m-88.688 186.04h0.82021l1.3441-3.1665-0.82074-1e-3zm2.164-1.233 0.52361 1.233h0.82021l-0.93371-2.1992z" fill="#fff"/>
 </g>
 <path d="m141.11 2.7e-4h-70.554v70.554h70.554z" fill="#14c65b" stroke-width="3.5277" data-darkreader-inline-fill=""/>
 <path d="m117.48 38.988v-8.9955h-8.4665v8.9955h-7.5493l10.555-24.877h-9.8846l-12.192 28.737v4.5578l6.7238 0.04h12.347v8.9955h8.4665v-8.9955h2.815v-8.4595z" fill="#fff" stroke-width="3.5277" data-darkreader-inline-fill=""/>
</svg>
