<svg xmlns="http://www.w3.org/2000/svg" viewBox="0 0 562.5 204.486" height="218.12" width="600">
    <g fill="#ed174f">
        <path d="M342.73 92.76c-30.57 0-48.88 23.1-54.48 36.05-8.65 20 1.2 32.85 12.81 36.09 13.31 3.68 30.86-3.24 44.41-20.08l-14.56-13.41c-8.7 10.88-22.18 17.56-28.27 13.31-6.02-4.23-1.19-16.59 4.6-23.98 6.94-8.83 18.5-16.21 27.88-17.28 17.37-1.91 23.21 8.45 17.9 28.19l-9.08 33.9h19.82l9.09-33.9c7.47-27.93-10.43-38.89-30.12-38.89M450.8 93.645h-50.6l-19.27 71.895h19.83s16.2-60.54 16.63-62.03h22.57c7.49 0 11.19 3.39 9.7 8.85l-14.22 53.18h19.82l13.95-52.08c3.14-11.65-4.45-19.815-18.41-19.815M63.577 85.468c-33.653 0-53.811 25.432-59.959 39.682-9.505 21.99 1.302 36.12 14.112 39.68 14.626 4.06 33.927-3.56 48.844-22.08l-16.013-14.76c-9.557 11.96-24.422 19.3-31.118 14.63-6.628-4.63-1.285-18.24 5.086-26.36 7.604-9.76 20.294-17.862 30.656-18.992 19.112-2.141 25.5 9.262 19.712 31.012l-10.002 37.27H86.68l10.001-37.27c8.239-30.738-11.44-42.812-33.104-42.812M195.94 93.645l-19.27 71.895h19.8l19.26-71.895h-19.79zM214.82 59.628c-6.2 0-12.59 5.035-14.27 11.252-1.66 6.199 2.04 11.252 8.24 11.252 6.22 0 12.59-5.053 14.25-11.252 1.68-6.217-2.01-11.252-8.22-11.252M146.83 93.645c-13.97 0-25.91 8.165-29.01 19.815l-13.97 52.08h19.81l14.28-53.18c1.44-5.46 7.01-8.85 14.46-8.85h25.81l10.41-9.865h-41.79zM258.25 93.645c-13.97 0-25.91 8.165-29.03 19.815l-13.95 52.08h19.81l14.25-53.18c1.46-5.46 7.02-8.85 14.47-8.85h25.83l10.41-9.865h-41.79zM508.2 151.82c-11.27-1.35-19.86-10.53-11.68-27.28 6.13-12.45 18.82-21.25 29.25-22.06 14.77-1.16 20.98 6.37 16.17 24.44-3.94 14.59-18.51 26.7-33.74 24.9m25.74-59.562c-13.56 0-39.51 6.611-52.78 34.462-11.17 23.44.67 37.67 16.9 39.87 12.81 1.73 29.12-3.86 36.65-12.76l-3.11 11.59c-4.85 18.05-16.56 28.84-31.38 28.84h-6.51l-2.75 10.23h10.97c18.18-.5 42.05-11 49.55-39.07l9.15-34.13c7.51-28.05-8.84-39.032-26.69-39.032M32.1 21.921l-.496-8.546c-.103-2.123-.069-4.47-.034-6.473h-.12c-1.028 2.004-2.244 4.418-3.34 6.473l-4.915 8.546H32.1zM20.917 26.7l-5.583 9.83H8.826L29.018 1.85h8.083l2.158 34.68h-6.833l-.565-9.83H20.917zM44.911 30.669c1.164.874 3.631 1.833 5.908 1.833 2.775 0 4.316-1.165 4.744-2.809.445-1.712-.359-2.534-3.168-3.648-4.436-1.661-5.737-4.333-4.984-7.312 1.182-4.436 5.72-7.827 11.526-7.827 2.774 0 5.035.651 6.302 1.49l-2.431 4.436c-.874-.617-2.706-1.456-4.933-1.456-2.26 0-3.802 1.147-4.196 2.689-.428 1.575.583 2.295 3.46 3.476 4.161 1.61 5.6 3.922 4.675 7.638-1.199 4.573-5.6 7.861-12.262 7.861-3.014 0-5.566-.719-7.142-1.747l2.501-4.624zM65.082 36.523l6.593-25.055h6.32l-6.594 25.055h-6.319zM80.238 4.48c-.496 1.85-2.277 3.391-4.487 3.391-2.106 0-3.117-1.541-2.62-3.391.531-1.952 2.346-3.46 4.453-3.46 2.175 0 3.1 1.508 2.654 3.46M94.751 24.28c-4.47-.052-8.974.89-9.984 4.675-.651 2.483.65 3.614 2.671 3.614 2.569 0 4.796-1.644 5.892-3.46.274-.462.394-.925.496-1.37l.925-3.459zm4.539 6.216c-.6 2.278-1.079 4.487-1.199 6.029h-5.686l.274-2.775h-.171c-2.004 1.97-4.984 3.357-8.272 3.357-5.052 0-6.919-3.665-5.926-7.484 1.644-6.268 8.118-9.522 17.349-9.454l.12-.411c.428-1.644.479-4.384-3.956-4.384-2.449 0-5.241.771-7.211 1.85l-.171-4.093c2.158-1.148 5.686-2.227 9.642-2.227 8.037 0 9.007 5.087 7.557 10.601l-2.35 8.991zM119.82.882c-2.64 4.727-6.28 9.967-9.01 13.17l-4.04.411c2.35-3.836 5.07-8.906 6.78-13.067l6.27-.514zM112.06 30.669c1.13.874 3.61 1.833 5.87 1.833 2.8 0 4.34-1.165 4.75-2.809.46-1.712-.34-2.534-3.14-3.648-4.45-1.661-5.75-4.333-4.98-7.312 1.18-4.436 5.7-7.827 11.53-7.827 2.77 0 5 .651 6.3 1.49l-2.45 4.436c-.89-.617-2.71-1.456-4.93-1.456-2.26 0-3.8 1.147-4.2 2.689-.41 1.575.58 2.295 3.46 3.476 4.16 1.61 5.62 3.922 4.68 7.638-1.18 4.573-5.62 7.861-12.25 7.861-3.03 0-5.58-.719-7.16-1.747l2.52-4.624zM158.56 1.853l-3.67 13.889h14.68l3.63-13.889h6.35l-9.11 34.663h-6.34l4.03-15.276h-14.68l-4 15.276h-6.32l9.09-34.663h6.34zM196.9 21.353c.66-2.312.62-6.114-3.59-6.114-3.91 0-6.49 3.545-7.43 6.114h11.02zm-12.17 4.418c-1.03 4.539 1.95 6.491 6.03 6.491 2.91 0 5.1-.479 7.21-1.147l-.19 4.333c-2.42.907-5.55 1.592-9.15 1.592-8.13 0-11.61-4.983-9.6-12.656 1.83-6.936 7.74-13.478 15.77-13.478 8.13 0 9.04 6.696 7.6 12.194a17.508 17.508 0 0 1-.89 2.671h-16.78zM220.45 24.28c-4.45-.052-8.95.89-9.95 4.675-.65 2.483.65 3.614 2.64 3.614 2.59 0 4.81-1.644 5.89-3.46.29-.462.4-.925.52-1.37l.9-3.459zm4.56 6.216c-.62 2.278-1.08 4.487-1.17 6.029h-5.73l.27-2.775h-.14c-2 1.97-5 3.357-8.29 3.357-5.05 0-6.91-3.665-5.92-7.484 1.68-6.268 8.12-9.522 17.37-9.454l.12-.411c.41-1.644.44-4.384-3.96-4.384-2.48 0-5.26.771-7.25 1.85l-.15-4.093c2.14-1.148 5.67-2.227 9.64-2.227 8.03 0 9.01 5.087 7.56 10.601l-2.35 8.991zM234.57 19.555c.89-3.409 1.49-5.875 1.9-8.084h5.46l-.97 4.744h.15c2.14-3.511 5.53-5.309 8.27-5.309.6 0 .98.034 1.44.154l-1.54 5.926c-.53-.12-1.09-.154-1.87-.154-2.96 0-5.58 1.901-6.9 4.778-.24.565-.48 1.233-.65 1.884l-3.44 13.033h-6.3l4.45-16.972zM265.12 5.038l-1.69 6.44h6.03l-1.24 4.727h-6.02l-2.92 11.063c-.8 3.1-.39 4.641 2.03 4.641 1.14 0 1.78-.068 2.55-.274l-1.17 4.796c-1.01.342-2.81.668-4.74.668-2.38 0-4.08-.771-4.92-2.056-1.01-1.455-1.04-3.767-.17-7.056l3.1-11.782h-3.53l1.22-4.727h3.56l1.22-4.693 6.69-1.747zM276.7 26.186a7.566 7.566 0 0 0-.24 1.49c0 2.569 1.71 4.418 4.45 4.418 3.98 0 7.21-3.134 8.55-8.22 1.15-4.419-.02-8.015-4.23-8.015-2.55 0-5.41 1.832-6.8 4.624-.26.445-.5 1.027-.67 1.644l-1.06 4.059zM277.25 0h6.32l-3.91 14.917h.1c2.2-2.415 5.31-4.008 9.08-4.008 6.13 0 9.16 5.087 7.11 12.708-2.38 9.008-9.25 13.478-14.9 13.478-3.24 0-5.82-1.233-6.8-4.316h-.1l-1.3 3.751h-5.4c.55-1.696 1.37-4.47 2.06-7.056L277.25 0zM317.22 21.353c.65-2.312.62-6.114-3.59-6.114-3.91 0-6.48 3.545-7.4 6.114h10.99zm-12.17 4.418c-1.03 4.539 1.97 6.491 6.02 6.491 2.93 0 5.11-.479 7.25-1.147l-.21 4.333c-2.41.907-5.56 1.592-9.16 1.592-8.15 0-11.63-4.983-9.59-12.656 1.83-6.936 7.72-13.478 15.76-13.478 8.13 0 9.06 6.696 7.6 12.194a15.235 15.235 0 0 1-.91 2.671h-16.76zM340.77 24.28c-4.45-.052-8.94.89-9.95 4.675-.65 2.483.63 3.614 2.64 3.614 2.58 0 4.81-1.644 5.89-3.46.29-.462.39-.925.51-1.37l.91-3.459zm4.56 6.216c-.62 2.278-1.08 4.487-1.17 6.029h-5.72l.28-2.775h-.16c-2 1.97-5 3.357-8.29 3.357-5.02 0-6.92-3.665-5.91-7.484 1.65-6.268 8.1-9.522 17.37-9.454l.1-.411c.41-1.644.47-4.384-3.95-4.384-2.49 0-5.24.771-7.25 1.85l-.13-4.093c2.14-1.148 5.68-2.227 9.62-2.227 8.03 0 9.01 5.087 7.55 10.601l-2.34 8.991zM365.64 5.038l-1.69 6.44h6.02l-1.25 4.727h-6.01l-2.91 11.063c-.8 3.1-.39 4.641 2.02 4.641 1.13 0 1.78-.068 2.55-.274l-1.14 4.796c-1.05.342-2.81.668-4.76.668-2.38 0-4.08-.771-4.92-2.056-1.01-1.455-1.04-3.767-.15-7.056l3.08-11.782h-3.55l1.24-4.727h3.56l1.22-4.693 6.69-1.747z"/>
    </g>
</svg>
