<svg version="1.1" viewBox="0 0 600 318.06" xmlns="http://www.w3.org/2000/svg">
 <g transform="matrix(1.4177 0 0 1.4177 -.0018083 -.00014177)" fill="#eb741b">
  <path d="m4.4205 53.028s0.38895-35.914 56.01-36.043c23.078 0.12963 51.861 6.353 51.731 29.561v55.621h-40.84v-24.375c-0.12968 0.25932-10.113 3.7599-17.762 6.0936-5.0565 1.4262-9.0757 4.4082-9.5943 9.5943-0.12968 4.4082 4.9267 8.557 4.7971 8.6867h-40.452c0.2604-0.13-8.6856-3.375-8.2967-13.099 0.77791-18.281 14.91-25.023 50.046-29.042 18.929-2.334 21.133-4.149 21.263-8.687-0.13-4.149-2.463-8.557-12.965-8.686-15.688 0-14.651 10.502-14.391 10.372h-39.544z"/>
  <path d="m134.33 19.578v82.588h41.748v-39.544c0.12963-7.1309 2.0744-10.372 4.7971-12.576 2.7227-3.1117 7.7792-5.3157 13.484-5.3157h11.669v-25.153c-0.12963-0.25932-6.2233-2.982-14.78-1.6855-13.743 1.9448-18.54 13.225-18.67 13.354v-11.669h-38.247z"/>
  <path d="m216.01 19.578v25.153h16.984v33.45c0.12964 7.6495-0.12967 13.484 5.1861 19.189 4.7972 4.7971 10.891 4.5378 18.281 4.7971h17.892v-57.436h24.764v-25.153h-24.764v-19.578h-41.359v19.578h-16.984z"/>
  <path d="m363.04 60.029h19.448c0 0.12964 1.8152-16.725-17.762-16.595-19.189-0.25932-17.114 16.725-16.984 16.595h15.299v20.744h-14.391v21.393h-30.079c0-0.12969-12.576-11.409-12.058-33.969 0.25931-51.472 55.88-50.564 57.695-50.305 69.623 0.51859 58.344 63.141 58.344 62.881h-59.51v-20.744z"/>
 </g>
 <g transform="matrix(.68375 0 0 -.68375 106.85 424.1)">
  <g transform="scale(.1)">
   <path d="m2375.6 2304.1c0-218.27-176.95-395.22-395.22-395.22s-395.22 176.95-395.22 395.22c0 218.28 176.95 395.22 395.22 395.22s395.22-176.94 395.22-395.22" fill="#4fc071"/>
   <path d="m3794 2844.5c-62.74 49.63-211.02 165.75-485.63 162.84-88.73-0.93-154.36-13.75-194-24.36l32.83 328.1h775.75v358.05h-1103.9l-134.28-1106.9 287.94-29.38c108.05 88.7 223.79 113.65 307.31 114.14 94.71 0.56 186.74-26.54 253.6-84.1 75.33-64.86 128.29-155.33 128.29-275.15 0-223.77-193.94-378.92-390.86-378.92-158.12 0-301.35 86.52-387.86 208.85l-289.41-241.66c184.98-208.87 432.61-325.22 692.2-325.22 432.62 0 778.71 295.37 778.71 736.95 0 229.77-103.96 424.91-270.66 556.78" fill="#fff"/>
  </g>
 </g>
</svg>
