<svg enable-background="new 0 0 80 16" version="1.1" viewBox="0 0 800 160" xml:space="preserve" xmlns="http://www.w3.org/2000/svg">
	<style type="text/css">
		.st0{fill:#c1d1d5;}
		.st1{fill:#f39f1e;}
	</style>
	<path class="st0" d="m312 0v30h51v130h34v-130h51v-30z"/>
	<path class="st0" d="m578 94c19-9 31-24 31-44 0-13-5-24-13-33-10-11-24-17-46-17h-86v160h34v-61h46l33 61h39zm-25-24h-55v-41h53c6 0 13 1 19 7 4 4 5 8 5 14 0 12-10 20-22 20z"/>
	<path class="st0" d="m642 124-18 36h38l15-33 3-7c-13 0-26 1-38 4z"/>
	<path class="st0" d="m763 160-14-34-12-30-23-54h-1l-16 37c-11-1-22-2-33-1l35-78h29l72 160z"/>
	<path class="st0" d="m144 82c-13-3-25-4-38-3l-16-37h-1l-24 55-13 29-15 34h-37l75-160h30z"/>
	<path class="st0" d="m166 139-1-1c-15-10-30-16-45-18l3 6 15 34h39z"/>
	<path class="st0" d="m312 113c0 26-20 47-45 47h-56l-24-18 17-24 16 12h47c9 0 17-8 17-18s-8-18-17-18h-37c-25 0-46-21-46-47s20-47 46-47h63v30h-63c-9 0-17 8-17 18s8 18 17 18h37c25-1 45 20 45 47z"/>
	<path class="st1" d="m192 112-17 23c-2-1-4-3-7-4-5-3-10-5-15-7-1-1-2-1-4-1-2-1-5-2-7-2-1 0-2-1-4-1-5-1-11-2-16-3-7 0-14 0-20 1-21 4-43 18-62 42l15-32 12-28c10-5 20-9 31-11 4-1 9-1 13-2 13-1 26 1 38 4 1 0 2 1 4 1 1 0 2 1 4 1 2 1 5 2 7 3s3 1 5 2 3 2 5 2c1 1 3 2 5 2 4 4 9 7 13 10z"/>
	<path class="st1" d="m768 160c-13-26-36-38-54-43-3-1-7-2-10-3s-5-1-8-1c-2 0-3 0-5-1h-22c-9 0-18 1-26 3-8 1-15 4-21 6-2 1-3 1-5 2-3 1-7 3-10 5l-15-27c7-4 15-8 23-11 2-1 3-1 5-2 12-4 25-6 39-8 12 0 24 0 36 1 1 0 3 0 4 1 3 0 5 1 8 1 1 0 3 1 4 1 4 1 9 2 13 3 6 2 11 4 16 6l13 31z"/>
</svg>
