<svg xmlns="http://www.w3.org/2000/svg" height="742.33" width="600" viewBox="0 0 158.75 196.408">
    <defs>
        <linearGradient id="f" gradientUnits="userSpaceOnUse" gradientTransform="translate(-308.61 390.94) scale(28.821)" x1="0" x2="1" y1="0" y2="0">
            <stop stop-color="#650360" offset="0"/>
            <stop stop-color="#a670a2" offset=".989"/>
            <stop stop-color="#a670a2" offset="1"/>
        </linearGradient>
        <linearGradient id="e" gradientUnits="userSpaceOnUse" gradientTransform="translate(-301.75 427.85) scale(56.113)" x1="0" x2="1" y1="0" y2="0">
            <stop stop-color="#650360" offset="0"/>
            <stop stop-color="#a670a2" offset=".989"/>
            <stop stop-color="#a670a2" offset="1"/>
        </linearGradient>
        <linearGradient id="d" gradientUnits="userSpaceOnUse" gradientTransform="translate(-343.9 408.87) scale(41.12)" x1="0" x2="1" y1="0" y2="0">
            <stop stop-color="#650360" offset="0"/>
            <stop stop-color="#a670a2" offset=".989"/>
            <stop stop-color="#a670a2" offset="1"/>
        </linearGradient>
        <linearGradient id="c" gradientUnits="userSpaceOnUse" gradientTransform="translate(-372.85 381.37) scale(69.064)" x1="0" x2="1" y1="0" y2="0">
            <stop stop-color="#650360" offset="0"/>
            <stop stop-color="#a670a2" offset=".989"/>
            <stop stop-color="#a670a2" offset="1"/>
        </linearGradient>
        <linearGradient id="b" gradientUnits="userSpaceOnUse" gradientTransform="translate(-272.36 381.57) scale(56.451)" x1="0" x2="1" y1="0" y2="0">
            <stop stop-color="#650360" offset="0"/>
            <stop stop-color="#a670a2" offset=".989"/>
            <stop stop-color="#a670a2" offset="1"/>
        </linearGradient>
        <linearGradient id="a" gradientUnits="userSpaceOnUse" gradientTransform="translate(-310.65 324.7) scale(37.644)" x1="0" x2="1" y1="0" y2="0">
            <stop stop-color="#650360" offset="0"/>
            <stop stop-color="#a670a2" offset=".989"/>
            <stop stop-color="#a670a2" offset="1"/>
        </linearGradient>
    </defs>
    <g fill="#650360">
        <path d="M30.85 186.56H19.33l-.77-.87-.69.87H2.97c-.04 0 .03-.62.03-1.96v-5.31c0-2.09.78-3.84 2.35-5.32 1.6-1.46 3.43-2.18 5.54-2.18h7.67v-3h5.47v12.82h6.82zm-21.2-28.04c1.31 0 2.12 1.07 2.12 2.12 0 1.17-.68 2.22-1.99 2.22h-.19c-1.28 0-2.16-1.14-2.16-2.22 0-1.15.85-2.12 2-2.12zm1.44 18.49c-1.34 0-2.42 1.14-2.42 2.41v2.19h9.89v-4.67zm4.37-18.49c.62 0 1.14.23 1.59.72.36.42.53.91.53 1.46 0 1.08-.72 2.16-1.99 2.16h-.26c-1.27 0-2.16-1.05-2.16-2.22 0-1.15.85-2.12 2.03-2.12z"/>
        <path d="M35.61 181.61h.69c.26 0 .45-.1.58-.13.23-.13.36-.3.39-.46.04-.09.07-.33.07-.75v-6.59h5.54v7.93h7.57v4.95H29.74v-4.95zm.3 9.94c1.4 0 2.31 1.14 2.31 2.44 0 .7-.17 1.21-.52 1.6-.36.49-.92.76-1.6.76h-.26c-1.44 0-2.41-1.15-2.41-2.48 0-.62.16-1.18.52-1.67.52-.62 1.04-.65 1.66-.65zm6.39.07c.75 0 1.37.23 1.79.71.42.56.62 1.12.62 1.73 0 .59-.16 1.14-.52 1.63-.46.49-1.02.72-1.7.72h-.26c-.75 0-1.34-.23-1.73-.72-.42-.49-.62-1.08-.62-1.76 0-.39.07-.78.23-1.14.1-.16.19-.36.33-.52.36-.42.91-.65 1.66-.65z"/>
        <path d="M70.44 186.56H49.01v-4.99h16.54l-.07-3.71h-11.8v-3.01c0-1.72.09-3.06.26-4.01.26-1.33.78-2.47 1.6-3.45 1.85-2.35 3.78-3.23 6.61-3.23h8.29zm-8.02-17.38c-.98 0-1.93.39-2.81 1.21-.78.88-.91 2.22-.91 2.48h6.78l-.07-3.63zm.74-15c1.31 0 2.19 1.14 2.19 2.22 0 1.17-.75 2.12-2.05 2.12h-.2c-1.34 0-2.15-.92-2.15-2.19 0-1.17.75-2.15 2.02-2.15zM88.76 186.56H73.73v-28.85h4.96v23.9h10.07z"/>
        <path d="M108.85 181.61h5.81v4.95H87.14v-4.95h16.76v-3.75H92.09v-3.01c0-1.72.1-3.06.26-4 .27-1.34.78-2.48 1.6-3.46 1.86-2.35 3.79-3.23 6.62-3.23h8.28zm-10.56-27.43c.68 0 1.24.23 1.69.65.3.46.46.95.46 1.47 0 .56-.16 1.08-.46 1.57-.42.42-.91.65-1.46.65h-.3c-1.3 0-2.11-1.14-2.11-2.22 0-1.14.84-2.12 1.98-2.12zm2.54 15c-.98 0-1.92.39-2.8 1.21-.4.42-.65.91-.79 1.47-.03.26-.09.58-.12 1.01h6.78l-.07-3.62zm3.29-15c1.21 0 2.12 1.05 2.12 2.22 0 1.14-.78 2.12-1.98 2.12h-.2c-1.34 0-2.22-1.04-2.22-2.22 0-.52.17-1.01.52-1.47.43-.42.92-.65 1.54-.65z"/>
        <path d="M118.18 181.61h.46c.88.13.98-.23 1.07-1.11v-6.75h4.96v7.86h6.72v4.95h-17.32v-4.95zm.46-19.96c1.43 0 2.21 1.04 2.21 2.22 0 .55-.19 1.04-.55 1.46-.39.46-.88.69-1.47.69h-.26c-1.33 0-2.15-1.04-2.15-2.22 0-1.17.75-2.15 2.09-2.15zm2.94-4.79c1.33 0 2.14 1.14 2.14 2.22 0 .48-.19.97-.55 1.46-.36.39-.85.59-1.47.59h-.19c-1.44 0-2.12-.98-2.12-2.15 0-1.15.65-2.12 1.99-2.12zm2.86 4.85c1.44 0 2.22 1.15 2.22 2.16 0 .59-.2 1.11-.55 1.53-.4.43-.92.62-1.54.62h-.19c-1.34 0-2.12-.98-2.12-2.15 0-1.18.81-2.16 1.99-2.16z"/>
        <path d="M137 181.61v-23.9h5.02v28.85h-11.51v-4.95zM145.41 186.56h4.93V157.7h-4.93z"/>
    </g>
    <path fill="url(#a)" d="M-293.95 329.65c-.6 0-1.14.37-1.33.93l-15.3 45.36c-.14.42-.07.88.18 1.24.27.37.7.57 1.14.57h13.83l20.54 18.32c.46.41 1.15.46 1.68.14.52-.35.74-.98.56-1.58l-19.98-64.01c-.18-.57-.73-.96-1.3-.97h-.02" transform="translate(373.44 -329.05)"/>
    <path d="M77.63 48.36l20.92 18.66c.46.41 1.15.46 1.67.14.52-.35.76-.98.57-1.58L80.81 1.57c-.17-.58-.72-.96-1.3-.97-.61-.01-1.16.36-1.35.94l-15.3 45.35c-.14.42-.07.89.18 1.24.27.37.7.57 1.13.57h14.4c-.35 0-.68-.1-.94-.34z" stroke="#650360" stroke-width="1.194" fill="none"/>
    <path fill="url(#b)" d="M-264.55 386.51c-.43 0-.84.22-1.09.59-.29.36-.36.81-.21 1.24l4.42 13.1-10.81 25.29c-.27.58-.08 1.24.39 1.61.5.41 1.18.41 1.69.06l54.3-39.38c.5-.35.68-.98.51-1.55-.19-.57-.74-.96-1.31-.96zm3.27 15.39l.02.03c-.01-.01-.01-.02-.02-.03" transform="translate(373.44 -329.05)"/>
    <path d="M112.22 71.9L101.2 97.67c-.27.59-.08 1.25.39 1.62.5.41 1.18.41 1.7.06l54.29-39.39c.5-.34.68-.97.51-1.55-.19-.56-.74-.95-1.31-.95h-47.89c-.43 0-.84.21-1.09.58-.3.36-.35.82-.21 1.24l4.58 13.6c-.11-.32-.08-.66.05-.98z" stroke="#650360" stroke-width="1.194" fill="none"/>
    <path fill="url(#c)" d="M-371.46 386.31c-.6 0-1.13.39-1.3.96-.22.57.01 1.2.5 1.55l38.75 28.13c.35.25.81.33 1.25.18.42-.14.73-.46.88-.9l4.12-13.22 23.56-14.12c.55-.32.82-.95.62-1.55a1.36 1.36 0 0 0-1.32-1.03zm43.78 16.95c-.01.01-.02.01-.03.02z" transform="translate(373.44 -329.05)"/>
    <path d="M45.73 74.22l24.01-14.38c.55-.32.82-.95.62-1.55a1.35 1.35 0 0 0-1.32-1.03H1.98c-.59 0-1.13.39-1.3.96-.22.58.01 1.19.5 1.55l38.75 28.12c.35.27.81.34 1.25.19.41-.14.73-.46.88-.89l4.28-13.73c-.12.32-.32.61-.61.76z" stroke="#650360" stroke-width="1.194" fill="none"/>
    <path fill="url(#d)" d="M-321.52 413.82c-.61 0-1.16.37-1.32.95l-21.01 63.71c-.16.56.05 1.18.52 1.55.49.34 1.13.34 1.61.01l38.84-28c.36-.25.55-.67.55-1.13 0-.43-.19-.86-.55-1.11l-11.25-8.04-6.06-26.85c-.14-.61-.66-1.05-1.3-1.09h-.03" transform="translate(373.44 -329.05)"/>
    <path d="M59.42 113.2l-6.17-27.34c-.14-.62-.66-1.05-1.3-1.09-.62-.01-1.18.36-1.35.95l-21.01 63.71c-.16.56.04 1.18.52 1.55.49.34 1.13.34 1.61.02l38.85-28.01c.36-.25.54-.66.54-1.13 0-.43-.18-.86-.54-1.11l-11.71-8.37c.26.2.48.49.56.82z" stroke="#650360" stroke-width="1.194" fill="none"/>
    <path fill="url(#e)" d="M-261.7 433.14l-11.17 8.19-27.35-2.63c-.65-.06-1.23.31-1.43.88-.23.59-.04 1.25.45 1.61l53.98 39.81c.48.36 1.14.36 1.64 0 .46-.36.69-.97.51-1.54l-14.48-45.63a1.44 1.44 0 0 0-.88-.89c-.14-.05-.28-.07-.42-.07-.3 0-.59.09-.85.27m-10.68 8.24c.02 0 .04 0 .06.01z" transform="translate(373.44 -329.05)"/>
    <path d="M101.12 112.34l-27.9-2.69c-.65-.06-1.23.31-1.43.88-.23.58-.04 1.25.45 1.61l53.98 39.81c.48.36 1.14.36 1.63 0 .47-.35.7-.97.52-1.54l-14.48-45.63a1.44 1.44 0 0 0-.88-.89c-.43-.15-.88-.06-1.27.2l-11.57 8.49c.25-.19.62-.29.95-.24z" stroke="#650360" stroke-width="1.194" fill="none"/>
    <path fill="url(#f)" d="M-296.04 395.88l-12.57 21.52v6.51h15.69v8.12h9.45v-8.12h4.01v-7.45h-4.01v-20.58zm-3.39 20.47l3.06-6.02c1.33-2.49 2.33-4.83 3.5-7.28h.23c-.12 2.56-.28 4.9-.28 7.24v6.17h-6.57z" transform="translate(373.44 -329.05)"/>
    <path d="M80.52 102.98v-8.12H64.83v-6.51L77.4 66.83h12.57v20.58h4.01v7.45h-4.01v8.12zm0-15.57v-6.17c0-2.35.16-4.68.28-7.24h-.23c-1.17 2.45-2.17 4.79-3.5 7.29l-3.06 6-.06.12z" stroke="#6e005f" stroke-width="1.194" fill="none"/>
</svg>
