<svg width="600" height="334.67" viewBox="0 0 606 338.02" xmlns="http://www.w3.org/2000/svg" xmlns:xlink="http://www.w3.org/1999/xlink">
    <g transform="translate(-73.626 -.001) scale(1.3136)">
        <defs>
            <path id="a" d="M0 0h517.39v257.33H0z"/>
        </defs>
        <clipPath id="b">
            <use width="100%" height="100%" overflow="visible" xlink:href="#a"/>
        </clipPath>
        <g clip-path="url(#b)">
            <defs>
                <path id="c" d="M0 0h517.39v257.33H0z"/>
            </defs>
            <clipPath id="d">
                <use width="100%" height="100%" overflow="visible" xlink:href="#c"/>
            </clipPath>
            <path transform="translate(56.05)" d="M167.27 190.15l-11.901-18.183c-1.234-1.993-3.043-4.478-5-5.974 3.846-1.596 9.28-5.36 10.951-11.106 1.432-4.959.993-12.01-.22-16.418-1.543-5.399-8.045-9.917-14.987-9.917h-20.935c-1.764 0-2.756 1.212-2.756 2.756v58.842c0 1.543.992 2.756 2.756 2.756h6.39c1.762 0 2.754-1.213 2.754-2.756v-22.59h2.756c2.533 0 4.297 1.983 5.729 4.299l11.461 18.291c.992 1.543 2.314 2.756 4.738 2.756h6.832c1.543 0 2.424-1.323 1.432-2.756m-24.682-30.962h-8.266v-21.709h8.266c3.635 0 6.611 2.313 7.271 4.297.993 2.976.883 9.367 0 12.231-.771 2.534-3.636 5.181-7.271 5.181M103.22 128.44H66.195c-1.543 0-2.754.992-2.754 2.754v4.078c0 1.762 1.211 2.864 2.754 2.864h12.562v51.901c0 1.543.99 2.754 2.754 2.754h6.391c1.763 0 2.755-1.211 2.755-2.754v-51.901h12.563c1.543 0 2.754-1.103 2.754-2.864v-4.078c0-1.762-1.211-2.754-2.754-2.754M38.018 131.41c-.551-1.652-2.094-2.974-4.076-2.974H22.371c-1.984 0-3.527 1.321-4.078 2.974L.221 189.263c-.221.55-.221.991-.221 1.431 0 1.322.772 2.093 2.315 2.093h6.722c2.315 0 3.637-.99 4.297-3.524l3.688-13.886h22.267l3.688 13.886c.662 2.534 1.984 3.524 4.297 3.524h6.722c1.543 0 2.315-.771 2.315-2.093 0-.44 0-.881-.221-1.432zm-18.51 34.603l7.49-28.211h2.315l7.49 28.211z" clip-path="url(#d)"/>
            <g clip-path="url(#d)">
                <defs>
                    <path id="e" d="M221.55 0h295.83v257.33H221.55z"/>
                </defs>
                <clipPath id="f">
                    <use width="100%" height="100%" overflow="visible" xlink:href="#e"/>
                </clipPath>
                <path d="M440.16.194C355.745 3.299 289.99 27.29 259.03 40.446c-25.215 10.709-38.486 23.717-37.42 47.553 1.776 39.593 19.3 91.724 25.046 105.7 6.168 15.002 15.053 40.322 38.898 48.316 15.985 5.361 76.116 16.598 131.79 15.189 55.981-1.418 66.938-6.896 75.136-35.479 5.98-20.868 19.323-65.942 22.794-118.97 4.7-71.767 8.999-105.66-75.118-102.56" clip-path="url(#f)" fill="#c20b19"/>
            </g>
            <path d="M476.61 145.14l-2.984 14.93c-.746 3.359-2.613 4.479-5.973 4.851l-13.81.746c-20.151 1.121-30.602-5.597-31.348-32.095l-1.496-52.625c-.37-7.836-4.851-12.688-13.433-11.571l-24.26 3.362c-4.48.744-5.597 4.105-5.227 7.838l8.654 102.02c.887 5.159 3.741 7.504 8.607 7.399l10.893-.285c3.379.043 5.501 1.076 5.535 5.2l.28 14.225c-.112 2.637-1.416 4.639-4.798 4.6l-58.357-.396c-2.636-.116-5.385-1.345-5.824-5.801l-1.029-10.399c-.293-2.974 1.719-5.42 4.688-5.713l10.473-.285c2.975-.295 5.424-2.035 4.65-6.086l-8.403-101.5c-.371-4.477-2.609-6.344-7.836-5.598l-25.221 3.379c-8.581 1.119-10.646 6.803-9.702 14.93l4.693 37.015c3.691 23.372-7.046 34.887-24.595 35.321l-15.023.608c-3.732 0-5.225-.745-5.969-4.478l-2.328-12.536c-.598-3.333 1.122-5.97 4.477-5.97l10.919-.78c5.704-.589 9.063-4.792 8.522-10.142l-4.557-35.695c-3.562-23.996 5.945-35.444 26.473-39.174l93.068-16.102c25.004-4.48 37.633 6.496 38.613 26.805l1.396 58.695c.375 5.228 3.734 8.957 8.585 8.957h16.422c3.358.001 5.971 2.613 5.225 6.346" clip-path="url(#d)" fill="#fff"/>
        </g>
    </g>
</svg>
