<svg width="717.75pt" height="393.79pt" version="1.1" viewBox="0 0 717.75 393.79" xml:space="preserve" xmlns="http://www.w3.org/2000/svg"><g transform="matrix(2.0074 0 0 2.0074 -.0016059 -.71363)"><path d="m102.84 6.0469c5.9219-3.7852 13.016-5.293 19.949-5.6914 3.7969 0.23438 7.6094 0.17969 11.414 0 8.5977 0.55469 17.613 2.9688 23.902 9.1953 5.8203 5.7227 8.3008 13.984 8.8203 21.965 0.30859 5.6562 0.10156 11.324 0.16406 16.984-0.0742 7.1602 0.46094 14.535-1.832 21.441-1.3945 4.418-4.1719 8.5547-8.2774 10.848-2.0742 1.2773-4.4805 1.7695-6.7812 2.4727 4.4024 0.64844 8.6875 2.7031 11.66 6.0664 2.3477 2.6523 3.7305 6.0273 4.4531 9.4609 0.91796 4.3398 0.75 8.8008 0.77734 13.207-8e-3 8.4922 0.0117 16.984-0.0156 25.473-0.0391 8.1562-1.6094 16.691-6.5508 23.371-4.3047 5.9258-11.16 9.5391-18.242 10.922-6.2695 1.3281-12.707 1.0273-19.062 1.0078-8.3125-0.23437-17.016-2.2461-23.406-7.8633-6.0234-5.1914-8.9844-13.051-9.9453-20.781 7.1602-7.0664 14.121-14.34 21.375-21.301 0.17969 5.5664-0.2539 11.156 0.41797 16.695 0.58203 4.3711 2.2891 8.957 6.0234 11.57 3.8984 2.7695 8.9297 2.875 13.516 2.5664 3.8477-0.26172 7.7461-1.875 10.148-4.9922 3-3.8555 3.7305-8.918 3.8555-13.668 0.0117-8.9922 0-17.984 8e-3 -26.977 4e-3 -3.8828-0.83593-8.0508-3.5859-10.961-2.7812-2.9453-6.9844-3.9648-10.906-4.0547-6.6328-0.02734-13.262 0.03125-19.898-0.02344 0.0469-6.2695-0.0508-12.539 0.0547-18.809 5.1133 0.0625 10.227 0.0078 15.344 0.03125 4.8633 0.03125 10.234-0.28125 14.137-3.5469 3.6328-3.0664 4.6953-8.0781 4.8359-12.617 0.0352-6.8477 0.0273-13.703 0-20.555-0.17187-5.4336-1.3203-11.52-5.75-15.141-3.9922-3.2695-9.4375-3.2852-14.32-3.043-3.8477 0.21484-7.7852 1.7109-10.262 4.7734-2.9375 3.6055-3.7969 8.4023-3.9766 12.938-0.13281 5.6367 0.0273 11.285-0.0859 16.922-7.125-0.0039-14.25 0.04297-21.375-0.02344 0.03516-5.8047 0.0039-11.609 0.01563-17.414-0.01953-5.9375 0.65234-11.965 2.8516-17.512 2.0664-5.2695 5.7422-9.9297 10.551-12.938z" fill="#f54a1c" Googl="true"/><path d="m295.54 65.37c1.132 0.97701 2.244 1.9858 3.2767 3.074v0.14297c-1.2193 0.89757-2.2758 1.9937-3.3164 3.086-28.057 28.158-56.141 56.293-84.193 84.455-13.393 13.472-26.888 26.848-40.202 40.398h-0.36937c-0.88571-1.0525-1.8747-2.0096-2.7484-3.0621 1.0326-1.2987 2.2996-2.3789 3.4514-3.5665 41.346-41.535 82.806-82.95 124.1-124.53z" fill="#f54a1c" stroke-width="1.0167"/><path d="m189.7 12.086c5.7266-6.6914 14.395-10.062 22.93-11.246 4.75-0.91406 9.5781-0.09375 14.363-0.48047 9.6602 0.50391 19.805 3.3008 26.789 10.367 6.082 6.0742 8.6524 14.859 8.6953 23.293 4e-3 9.2109-8e-3 18.422 4e-3 27.629-7.3594 0.02734-14.719 0.03125-22.078 0-0.0547-8.0117 0.0273-16.035-0.0391-24.047-0.13281-4.7305-1.1797-9.832-4.6406-13.293-3.4453-3.3945-8.5039-4.3555-13.172-4.3555-4.6836 0.0078-9.793 0.82812-13.328 4.1719-3.4258 3.1953-4.6055 8.0508-4.8281 12.574-0.125 4.6055-0.0391 9.2109-0.0547 13.816-0.0352 4.1289 0.72656 8.5156 3.4609 11.758 2.9609 3.5156 7.0703 5.75 10.988 8.0156 6.8555 3.7812 13.719 7.5469 20.566 11.34 5.7812 3.3594 11.613 6.957 16.066 12.035l0.0508 0.32422c-5.0625 5.2578-10.305 10.332-15.406 15.547-0.36328 0.39453-0.80078 0.69531-1.2578 0.97656-1.8984-3.8672-5.5078-6.4609-9.0703-8.6719-9.6914-5.6992-19.75-10.754-29.316-16.676-5.3711-3.4531-10.699-7.3945-14.105-12.918-3.0469-4.8125-4.1094-10.602-4.0938-16.227 0-7.3438-0.0234-14.691 0.0156-22.035 0.0898-7.8203 2.2305-15.914 7.4609-21.898z" fill="#eae4d4"/><path d="m33.395 2.0938c9.2852 0.019531 18.57-0.015625 27.859 0.015625 8.4727 42.289 17 84.574 25.457 126.87 0.42969 1.0078-0.59766 1.5898-1.1641 2.2461-5.8438 5.7266-11.492 11.664-17.41 17.32-0.98828-5.8125-2.0312-11.613-3.0234-17.418-12.023-0.0703-24.051-0.0156-36.07-0.0273-2.418 13.254-4.8125 26.508-7.2227 39.77-7.2695 0-14.543 4e-3 -21.82-8e-3v-1.0469c0.78906-2.4648 1.1289-5.043 1.6602-7.5625 10.586-53.383 21.105-106.79 31.734-160.16m13.312 30.43c-4.7344 26.516-9.5625 53.016-14.293 79.531 9.6914 0.0195 19.383 0.0156 29.074 4e-3 -4.7539-27.043-9.5977-54.074-14.332-81.117-0.17188 0.51953-0.34375 1.043-0.44922 1.582z" fill="#eae4d4"/><path d="m182.21 108.92c7.3633-0.043 14.73-0.0156 22.094-0.0117 0.0664 8.3711-8e-3 16.746 0.0352 25.121 0.0156 3.2578 0.46094 6.543 1.6758 9.582-5.7188 5.75-11.371 11.586-17.223 17.191-4.8086-6.3594-6.4883-14.48-6.5586-22.316-0.0508-9.8594-4e-3 -19.715-0.0234-29.566z" fill="#eae4d4"/><path transform="matrix(.5357 0 0 .46324 0 .35546)" d="m556.19 365.09h-13.735v-45.374h-50.882v45.374h-13.664v-79.063l13.664-17.744v39.176h50.882v-45.628h13.735z" fill="#eae4d4" stroke-width="1.5026"/><path transform="matrix(.5357 0 0 .46324 0 .35546)" d="m582.09 261.83h35.64q9.3679 0 16.13 0.9861 6.7618 0.91566 12.89 4.6487 6.1983 3.6626 10.777 10.143 4.6488 6.4801 7.2549 14.932 2.6766 8.3818 2.6766 20.356 0 22.821-10.847 37.542-10.847 14.651-37.331 14.651h-37.19zm13.664 91.003h22.117q6.7618 0 12.044-0.84523 5.3531-0.84523 10.777-4.5783 5.494-3.7331 9.0862-12.256 3.5922-8.5227 3.5922-22.539 0-7.7479-1.4087-14.439-1.3383-6.7618-5.0714-12.256-3.6626-5.5644-8.4523-8.1001-4.7896-2.6061-9.3679-3.1696-4.5079-0.56348-11.622-0.56348h-21.694z" fill="#eae4d4" stroke-width="1.5026"/></g></svg>
