<svg width="600" height="216.39" viewBox="0 0 158.75 57.254" xmlns="http://www.w3.org/2000/svg">
    <g fill-rule="evenodd">
        <g fill="#0081f9">
            <path d="M153.214 19.11c-3.052.05-4.71 1.314-4.525 3.255.36 3.803 9.933 6.92 9.962 15.389.023 6.646-4.193 14.07-16.4 14.288-7.238.057-17.335-1.997-17.335-1.997l4.733-10.333c5.527 1.538 9.365 2.764 13.494 2.711 2.926-.038 4.437-1.365 4.429-3.42-.016-4.59-8.628-6.29-9.485-15.295-.7-7.373 3.94-13.125 14.655-13.299 2.128-.033 4.2.088 6.006.37l-1.139 8.959a14.479 14.479 0 0 0-4.395-.628s1.42-.025 0 0zM115.804 36.03l-.15.008a2.75 2.75 0 0 0-.147-.732c-.785-4.524-2.427-22.512-2.545-23.802-.005-.056-11.274-.077-11.274-.077l-.187.057 6.098 39.263h11.394l17.642-38.036-11.525-2.302zM91.364 10.41a34.958 34.958 0 0 0-4.938.313c-9.799 1.313-22.186 14.206-19.75 28.564 1.473 8.68 5.68 12.77 11.838 12.763 6.626-.01 11.362-5.595 13.62-11.421h.089c-.416 4.134.094 10.646.094 10.646h11.785c-2.27-18.266-3.776-25.037-5.543-39.934 0 0-2.768-.893-7.195-.93zm-3.576 9.114c.894.042 1.482.36 1.845.879.304.434.066 2.115.066 2.115-.537 7.45-5.71 18.129-10.079 17.813-1.56-.114-2.42-1.514-2.765-4.534-.839-7.315 5.177-15.113 8.977-16.037.773-.189 1.42-.262 1.957-.237z"/>
        </g>
        <path d="M30.523 0l-.704.313c-.438.225-10.843 5.701-19.953 21.569C.779 37.707.055 49.92.028 50.432L0 50.975l.478.254c.463.246 11.547 6.026 29.728 6.026h.638c18.178 0 29.362-5.777 29.829-6.023l.485-.257-.033-.55c-.03-.51-.857-12.72-9.942-28.542C42.073 6.014 31.668.538 31.23.312zm.053 14.314c2.83 2.44 6.638 6.62 10.25 12.707 3.607 6.077 5.26 11.262 6.019 14.85-3.588 1.165-9.043 2.371-16.268 2.371-7.223 0-12.677-1.206-16.263-2.371.758-3.588 2.41-8.773 6.015-14.85 3.614-6.087 7.42-10.268 10.247-12.707z" fill="#bdc3c7"/>
    </g>
</svg>
