<svg width="600" height="107.4" viewBox="0 0 158.75 28.417" xmlns="http://www.w3.org/2000/svg">
    <g fill="#e51839">
        <path d="M36.272 17.782L30.15 28.179h-4.78l8.548-14.324L25.912.238h4.786l5.574 9.689L41.846.238h4.794l-8.014 13.617 8.563 14.324h-4.787zM48.64.238h17.855v4H52.878v7.97h11.617v3.762H52.878v8.202h13.617v4.007H48.64zM70.422 21.385c2.123 1.697 4.946 2.787 7.927 2.787 3.451 0 5.538-1.567 5.538-3.884 0-1.957-1.14-3.452-3.653-3.77-1.256-.15-2.238-.31-3.69-.505-4.822-.664-7.421-3.804-7.421-7.855 0-4.78 3.335-8.158 9.11-8.158 3.452 0 6.513 1.22 9.062 2.902L84.94 6.397c-2.036-1.293-4.426-2.16-6.902-2.16-2.592 0-4.671 1.337-4.671 4 0 1.575 1.133 3.141 3.963 3.575.744.115 1.805.274 3.134.433 5.22.628 7.66 4.238 7.66 8.043 0 5.14-3.812 8.13-9.819 8.13-4.115 0-7.732-1.257-10.671-3.849zM91.855 21.385c2.123 1.697 4.946 2.787 7.927 2.787 3.451 0 5.538-1.567 5.538-3.884 0-1.957-1.14-3.452-3.653-3.77-1.256-.15-2.238-.31-3.69-.505-4.83-.664-7.422-3.804-7.422-7.855 0-4.78 3.336-8.158 9.112-8.158 3.451 0 6.512 1.22 9.068 2.902l-2.354 3.495c-2.043-1.293-4.44-2.16-6.91-2.16-2.591 0-4.67 1.337-4.67 4 0 1.575 1.133 3.141 3.963 3.575.744.115 1.805.274 3.141.433 5.22.628 7.653 4.238 7.653 8.043 0 5.14-3.805 8.13-9.819 8.13-4.115 0-7.725-1.257-10.671-3.849zM11.847 18.172L19.76 7.364l-.008 10.808h-7.905zM20.417.223L-.001 28.185h4.498l4.556-6.216h10.685l.014 6.216h4.238V.223h-3.574zM149.575 28.056h-3.574L136.904.375h4.419l6.469 20.425L154.26.375h4.49z"/>
        <path d="M149.575 28.056h-3.574L136.904.375h4.419l6.469 20.425L154.26.375h4.49z"/>
        <path d="M115.645.224v4.31h9.465v23.652h4.556V4.534h8.736V.224z"/>
    </g>
</svg>
