<svg width="200mm" height="71.09mm" viewBox="0 0 200 71.09" xmlns="http://www.w3.org/2000/svg" xmlns:xlink="http://www.w3.org/1999/xlink">
    <defs>
        <linearGradient id="e" x2="1" gradientTransform="scale(2.302 -2.302) rotate(45 357.29 230.55)" gradientUnits="userSpaceOnUse">
            <stop stop-color="#fff" offset="0"/>
            <stop stop-color="#a4a7a6" offset="1"/>
        </linearGradient>
        <linearGradient id="c" x2="1" gradientTransform="scale(2.302 -2.302) rotate(45 358.233 232.825)" gradientUnits="userSpaceOnUse">
            <stop stop-color="#fff" offset="0"/>
            <stop stop-color="#a4a7a6" offset="1"/>
        </linearGradient>
        <clipPath id="b">
            <path d="M610.3 388.24h23.811v9.572H610.3z"/>
        </clipPath>
        <linearGradient id="d" x2="1" gradientTransform="rotate(45 -96.048 119.17) scale(.81224)" gradientUnits="userSpaceOnUse" xlink:href="#a"/>
        <linearGradient id="a" x2="1" gradientTransform="rotate(45 -96.048 119.17) scale(.81224)" gradientUnits="userSpaceOnUse">
            <stop stop-color="#fff" offset="0"/>
            <stop stop-color="#222526" offset="1"/>
        </linearGradient>
        <linearGradient id="f" x2="1" gradientTransform="scale(.81223) rotate(45 -119.196 144.443)" gradientUnits="userSpaceOnUse" xlink:href="#a">
            <stop stop-color="#fff" offset="0"/>
            <stop stop-color="#222526" offset="1"/>
            <stop stop-color="#d9dcdd" offset="1"/>
        </linearGradient>
        <linearGradient id="g" x2="1" gradientTransform="matrix(2.8507 0 0 -2.8507 614.37 425.66)" gradientUnits="userSpaceOnUse">
            <stop stop-color="#fff" offset="0"/>
            <stop stop-color="#28292a" offset="1"/>
        </linearGradient>
    </defs>
    <path d="M114.833.042H97.161" fill="#2d2e30"/>
    <path d="M88.213 50.743L93.91 70.77h3.968l3.088-15.232 3.077 15.232h3.969l5.696-20.027h-2.533c-1.039 0-1.735.523-2.076 1.555l-3.045 12.547-2.87-14.102h-4.447l-2.87 14.102-3.044-12.547c-.342-1.032-1.038-1.555-2.077-1.555h-2.533zM121.86 58.53c-1.076 0-1.9.386-2.471 1.15-.58.81-.869 1.864-.869 3.163v8.001h-3.911V50.818h1.96c1.306 0 1.951.654 1.951 1.96v4.661c1.997-2.3 4.454-2.939 7.37-1.9 2.183.802 3.222 2.895 3.103 6.272v9.033h-3.911v-8.001c0-1.492-.267-2.546-.802-3.162-.616-.765-1.425-1.15-2.42-1.15M132.738 55.164c1.269 0 1.9.631 1.9 1.9v13.694h-3.912V55.164zm0-4.431c1.306 0 1.937.631 1.9 1.9v1.15h-3.912v-3.05zM154.05 61.265c-.23-2.07-1.187-3.11-2.88-3.11-1.685 0-2.68 1.04-2.991 3.11zm3.912 4.721c-.46 1.76-1.225 3.043-2.301 3.852-1.262.846-2.761 1.27-4.49 1.27-4.714-.156-7.074-2.88-7.074-8.173s2.375-7.964 7.133-8c4.95 0 7.274 3.05 6.962 9.15h-10.065c.149 2.376 1.188 3.564 3.103 3.564.92 0 1.754-.378 2.53-1.092.431-.395.885-.571 1.33-.571z" fill="#e6d596"/>
    <g clip-path="url(#b)" transform="matrix(7.42235 0 0 -7.42235 -4529.841 2952.655)">
        <path d="M626.97 393.64l-1.786-1.786h3.572z" fill="#f1e7c0"/>
        <path d="M628.75 391.86l-1.786 1.786.595-1.786z" fill="#ccbc8b"/>
    </g>
    <path d="M167.557 50.746v7.822h8.243v-7.822h4.478V71.11H175.8V62.33h-8.243v8.779h-4.478V50.746zM190.405 67.367c.634-.063 1.289-.084 1.882-.316.602-.231 1.18-.578 1.63-1.041.513-.528.886-1.2 1.135-1.892.326-.907.41-1.895.431-2.86.02-.93-.046-1.878-.294-2.775-.208-.753-.496-1.517-.988-2.124a4.808 4.808 0 0 0-1.808-1.357c-.866-.372-1.848-.393-2.786-.473-1.062-.084-3.196 0-3.196 0v12.837s2.668.105 3.995 0zm.316-16.6c1.314 0 2.534.21 3.67.62a8.014 8.014 0 0 1 2.932 1.893c.83.831 1.472 1.881 1.945 3.133.463 1.252.694 2.734.694 4.427 0 1.48-.19 2.848-.568 4.1-.378 1.262-.956 2.344-1.724 3.259a8.346 8.346 0 0 1-2.88 2.155c-1.157.515-2.513.778-4.069.778h-8.789V50.768z" fill="#fff"/>
    <path d="M136.572 50.698v17.038c-.037 1.729.687 2.65 2.164 2.783s2.848.144 4.11.033v-2.99h-1.208c-.764 0-1.152-.325-1.152-.979v-8.632l.402-.011h.207c1.207 0 1.785-.579 1.75-1.75v-1.066h-2.359V52.6c.037-1.264-.594-1.898-1.892-1.902h-2.022z" fill="#e6d596"/>
    <path d="M114.83.177H97.155" fill="#2d2e30"/>
    <path d="M97.152.177L79.47 17.86l-8.8-8.834-17.692-.008 17.659 17.65-8.825 8.858L35.303 9.018-.04 44.352h17.675l4.42-4.413h26.5l4.421 4.413-13.262 13.262h17.683l22.088-22.136 8.825 8.833h17.683l17.675-17.675 17.683 17.675 35.317-35.325-17.7.008-17.625 17.642-17.708-17.642L97.12 35.502l-8.817-8.8L114.827.176H97.152M35.32 26.669l4.42 4.437h-8.857z" fill="#fff"/>
    <path d="M621.15 426.74l1.084-1.082v.001l-1.082 1.082zm-1.084-1.08l1.087-1.089.005.006h-.006l-1.084 1.085z" fill="url(#c)" transform="matrix(8.14134 0 0 -8.14134 -4968.583 3500.83)"/>
    <path d="M55.561 102.62l.381.382h.001l.382.382h.003l.38-.38v-.002l-.383-.38v-.001l-.382-.383z" fill="url(#d)" transform="matrix(23.0777 0 0 23.0777 -1211.537 -2341.746)"/>
    <path d="M614.64 426.74l.541-.542h.002l-.54.544zm1.623-1.625l.545-.546.001.002-.542.544z" fill="url(#e)" transform="matrix(8.14134 0 0 -8.14134 -4968.583 3500.83)"/>
    <path d="M54.411 102.24l-.381.381.19.192.038.039.345.343.19.192.383-.382zm.19.955h.002zm.192.193z" fill="url(#f)" transform="matrix(23.0777 0 0 23.0777 -1211.537 -2341.746)"/>
    <path d="M613.56 426.2l-1.085-1.083h3.794l-.973.974-.109.109z" fill="url(#g)" transform="matrix(8.14134 0 0 -8.14134 -4968.583 3500.83)"/>
</svg>
