<svg Googl="true" version="1.1" viewBox="0 0 964.16 500" xml:space="preserve" xmlns="http://www.w3.org/2000/svg">
<style type="text/css">
	.st0{fill:#ffffff;}
	.st1{fill:#EA6903;}
</style>
<g transform="matrix(8.9429 0 0 8.9429 .19922 -.53658)">
	
		<path class="st0" d="m107.79 43-0.08 0.14-7 12.82h-3.37l3-5.34-4.26-7.62h3.5l2.42 4.52 2.37-4.52zm-17.79-16.4-2.42-4.6h-3.5l4.26 7.61-3.08 5.49-0.07 0.14h3.41l7.11-13.1 0.08-0.14h-3.41zm-50.09 4.24h-3.37l0.06-0.13 5.33-13h2.91l5.27 13.09h-3.36l-1-2.44h-4.84zm2-4.91h3l-1.48-4zm41.09-9.38h-3v14.29h3zm16.61 10.73 3.26 3.56h4.13l-4.6-4.84 4.29-4h-4l-3.07 3v-8.45h-3v14.29h3zm-55.1 19.17 4.07 5.31h-3.95l-3.38-4.84v4.88h-3.25v-13.12h4.7c1.24-0.07 2.47 0.34 3.42 1.14 0.8 0.79 1.22 1.88 1.18 3 0.05 1.01-0.34 1.99-1.06 2.7-0.5 0.44-1.09 0.76-1.73 0.93zm-0.51-3.64c0.02-0.48-0.19-0.94-0.57-1.24-0.49-0.29-1.05-0.42-1.62-0.38h-0.62v3.34h0.6c0.64 0.06 1.28-0.13 1.78-0.53 0.3-0.32 0.45-0.75 0.43-1.19zm34.56-20.81h-1.76v-2.76h-3v2.76h-1v2.43h1v6.38h3v-6.35h1.76zm-18.39 8.84v-2.51h-4.08l4.56-6.33h-9v2.51h3.79l-4.58 6.3zm12.28 20.92h3v-8.76h-3zm-4.13-29.76h3v8.81h-3v-0.81c-0.6 0.76-1.54 1.19-2.51 1.14-1.26 0.07-2.49-0.42-3.36-1.34-0.86-0.88-1.33-2.07-1.31-3.3-0.02-1.32 0.48-2.6 1.39-3.55 0.84-0.8 1.96-1.23 3.12-1.2 1-0.04 1.98 0.35 2.67 1.08zm0.18 4.38c0.01-0.57-0.22-1.11-0.62-1.51-0.42-0.37-0.95-0.58-1.51-0.58s-1.1 0.21-1.5 0.6c-0.41 0.39-0.63 0.93-0.62 1.49-0.01 0.55 0.19 1.09 0.57 1.49 0.43 0.42 1 0.65 1.6 0.64 1.16-0.01 2.09-0.96 2.08-2.12v-0.01zm5.5 11.27c-0.95 0.02-1.7 0.81-1.68 1.76s0.81 1.7 1.76 1.68c0.93-0.02 1.68-0.78 1.68-1.72 0-0.95-0.77-1.72-1.72-1.72h-0.04zm12.15 6.43c1.8 1.81 1.8 4.74 0 6.55-2.27 1.89-5.56 1.89-7.83 0-1.8-1.81-1.8-4.74 0-6.55 2.27-1.89 5.56-1.89 7.83 0zm-1.76 3.28c0.02-0.59-0.21-1.15-0.63-1.56-0.87-0.79-2.19-0.79-3.06 0-0.83 0.87-0.83 2.24 0 3.11 0.42 0.4 0.98 0.61 1.55 0.59 0.56 0.01 1.11-0.2 1.51-0.59 0.4-0.41 0.62-0.97 0.59-1.55zm-28.68-4.36h3v8.81h-3v-0.84c-0.6 0.76-1.54 1.18-2.51 1.13-1.26 0.07-2.49-0.42-3.36-1.34-0.86-0.88-1.33-2.07-1.31-3.3-0.02-1.32 0.48-2.59 1.39-3.54 0.84-0.8 1.97-1.24 3.13-1.21 1-0.04 1.97 0.35 2.66 1.08v-0.79zm0.18 4.39c0.01-0.57-0.21-1.12-0.62-1.52-0.42-0.37-0.95-0.57-1.51-0.57s-1.09 0.21-1.5 0.59c-0.4 0.39-0.63 0.94-0.62 1.5-0.01 0.55 0.19 1.08 0.57 1.48 0.43 0.42 1 0.65 1.6 0.64 0.53 0.01 1.04-0.2 1.42-0.57 0.44-0.41 0.68-1 0.66-1.6zm37.4-1.12-0.75-0.27-0.32-0.1c-0.18-0.04-0.35-0.1-0.51-0.18-0.16-0.09-0.23-0.19-0.23-0.31 0.01-0.12 0.06-0.24 0.15-0.32 0.21-0.16 0.48-0.23 0.74-0.22 0.54 0.03 1.06 0.19 1.52 0.47l0.07 0.05 1.23-1.92-0.08-0.05c-0.91-0.52-1.95-0.78-3-0.75-0.99-0.06-1.96 0.26-2.73 0.89-0.58 0.53-0.9 1.29-0.88 2.07-0.02 0.61 0.22 1.2 0.66 1.63 0.42 0.38 0.92 0.66 1.46 0.82l0.71 0.21c0.29 0.07 0.58 0.17 0.85 0.3 0.16 0.08 0.27 0.24 0.27 0.42-0.01 0.19-0.1 0.37-0.26 0.48-0.25 0.14-0.54 0.2-0.83 0.18-0.4 0-0.79-0.09-1.15-0.26-0.34-0.17-0.65-0.39-0.94-0.63l-0.09-0.07-1.3 2h0.06c1.02 0.86 2.33 1.31 3.67 1.26 1.07 0.08 2.13-0.28 2.93-1 0.62-0.62 0.96-1.46 0.94-2.33 0.02-0.62-0.23-1.22-0.69-1.64-0.44-0.36-0.95-0.63-1.5-0.78zm-26.05-8.79h3v14.28h-3v-0.86c-0.67 0.78-1.66 1.21-2.69 1.15-1.15 0.05-2.28-0.38-3.09-1.2-0.93-0.94-1.44-2.21-1.41-3.53-0.03-1.31 0.48-2.57 1.42-3.48 0.85-0.77 1.97-1.19 3.12-1.18 1-0.04 1.96 0.35 2.65 1.08zm0.18 9.9c0.01-0.57-0.21-1.12-0.61-1.52-0.4-0.41-0.96-0.64-1.53-0.61-0.54-0.02-1.06 0.18-1.45 0.55-0.85 0.8-0.89 2.15-0.08 3 0.39 0.41 0.93 0.65 1.49 0.66 0.57 0 1.13-0.22 1.55-0.61 0.41-0.38 0.64-0.91 0.63-1.47z"/>
	
	<path class="st1" d="m36.32 16.92c-4.8 0.56-6.14 5.54-9.75 9.84-4.83 5.74-12 2.79-12 2.79 4.83-0.6 6.21-5.62 9.91-9.9 4.92-5.65 11.84-2.73 11.84-2.73zm-17.39 8.42s6-4.77 3.42-11.8c-2-5.3-5.71-9.06-3.72-13.48 0 0-5.94 4.84-3.47 11.8 1.89 5.32 5.77 9.06 3.77 13.48zm-0.34-1s0.57-7.73-6.07-10.67c-5.18-2.3-10.63-2.09-12.52-6.57 0 0-0.74 7.69 6.31 10.66 5.24 2.24 10.41 2.09 12.28 6.57zm-7.9 13h13.48l3.15-6.34h-16.63zm2.15 18.63h1.16l7.74-17.78h-8.9z"/>
</g>
</svg>
