<svg width="200mm" height="368.33" viewBox="0 0 200 97.454" xmlns="http://www.w3.org/2000/svg">
    <path d="M0 0h97.862v97.454H0zM102.143 0h97.862v97.454h-97.862z" fill="#ce2127" fill-rule="evenodd"/>
    <path d="M16.84 9.27v40.638c-.162 1.302.009 2.612 0 3.924 0 18.508 15.004 33.51 33.511 33.51 18.508 0 33.51-15.004 33.51-33.51 0-18.508-15.004-33.51-33.51-33.51-3.856.008-7.68.687-11.306 1.999V9.27zm33.525 31.842a12.336 12.336 0 0 1 12.336 12.336 12.336 12.336 0 0 1-12.336 12.336 12.336 12.336 0 0 1-12.336-12.336 12.336 12.336 0 0 1 12.336-12.336z" fill="#fff" opacity=".99" stroke-width="1.032" paint-order="stroke markers fill"/>
    <path d="M142.508 25.83l20.903-12.899v71.266h-20.903z" fill="#fff" opacity=".99" stroke-width="1.021" paint-order="stroke markers fill"/>
</svg>
