<?xml version="1.0" encoding="UTF-8" standalone="no"?>
<!-- Created with Inkscape (http://www.inkscape.org/) -->

<svg
   xmlns:dc="http://purl.org/dc/elements/1.1/"
   xmlns:cc="http://creativecommons.org/ns#"
   xmlns:rdf="http://www.w3.org/1999/02/22-rdf-syntax-ns#"
   xmlns:svg="http://www.w3.org/2000/svg"
   xmlns="http://www.w3.org/2000/svg"
   xmlns:inkscape="http://www.inkscape.org/namespaces/inkscape"
   version="1.0"
   width="405"
   height="435"
   id="svg2">
  <metadata
     id="metadata33">
    <rdf:RDF>
      <cc:Work
         rdf:about="">
        <dc:format>image/svg+xml</dc:format>
        <dc:type
           rdf:resource="http://purl.org/dc/dcmitype/StillImage" />
      </cc:Work>
    </rdf:RDF>
  </metadata>
  <defs
     id="defs31" />
  <g
     transform="translate(-15.504518,-501.40064)"
     id="layer1">
    <path
       d="m 55.98461,696.10234 c -3.225762,13.53144 -0.921646,27.69128 6.660988,42.77276 7.750207,15.5842 18.93564,24.33984 33.891445,26.14124 14.662507,2.05276 28.822347,-3.22576 42.102427,-16.21259 13.11252,-12.90305 22.11951,-30.16297 26.89532,-52.28248 4.7758,-22.1614 2.84872,-36.32124 -6.15828,-42.89844 -8.75563,-6.40963 -21.11407,-8.3786 -36.44691,-5.65556 -15.5842,2.72305 -29.618319,8.00157 -42.647045,16.08692 -12.986833,8.12724 -21.114076,19.06132 -24.297945,32.04815"
       inkscape:connector-curvature="0"
       id="path44392"
       style="fill:#f57115;fill-rule:nonzero;stroke:none" />
    <path
       d="m 89.708482,557.3108 c -13.280084,3.97984 -24.339838,13.02873 -33.598193,27.18857 -9.677285,14.41119 -11.604364,28.57103 -5.823128,42.47951 5.529877,13.7828 17.259919,23.29251 35.148234,28.19399 17.636955,5.15284 37.117165,4.27309 58.608275,-2.68115 21.6168,-6.95424 32.9698,-15.70988 34.22659,-26.81153 1.04733,-10.80839 -3.30955,-22.37086 -13.23819,-34.47794 -10.30568,-11.9814 -21.91004,-21.65869 -35.39959,-28.73861 -13.53144,-7.2056 -26.93717,-8.88132 -39.923998,-5.15284"
       inkscape:connector-curvature="0"
       id="path44394"
       style="fill:#fff100;fill-rule:nonzero;stroke:none" />
    <path
       d="m 227.36887,517.13164 c -10.05432,-9.50972 -23.58577,-14.53688 -40.46865,-15.5842 -17.21803,-1.13111 -30.49811,4.27308 -39.50511,16.25448 -9.13267,11.68815 -11.60436,26.64396 -6.95424,44.65795 4.35688,17.76264 14.78824,34.26848 31.67112,49.43375 16.88288,15.08149 30.12107,20.48568 40.30107,16.12881 9.92865,-4.52444 17.76264,-14.20173 23.16684,-28.7386 5.4042,-14.91391 7.87588,-29.74404 7.33127,-44.9512 -0.62839,-15.29095 -5.90691,-27.77507 -15.5423,-37.20099"
       inkscape:connector-curvature="0"
       id="path44398"
       style="fill:#5a7b4e;fill-rule:nonzero;stroke:none" />
    <path
       d="m 335.11769,616.29616 c 3.22576,-13.53144 0.92164,-27.69128 -6.70288,-42.77276 -7.70832,-15.41663 -18.93564,-24.29795 -33.84956,-26.14124 -14.66255,-2.05276 -28.86428,3.22576 -42.10247,16.38017 -13.1544,12.73547 -22.1614,29.99539 -26.9372,52.15679 -4.73391,22.11951 -2.80684,36.32124 6.20016,42.85655 8.75564,6.45152 21.11408,8.3786 36.44692,5.65556 15.5842,-2.68116 29.61836,-7.95968 42.60519,-16.08692 13.02872,-8.08535 21.11408,-19.06132 24.33984,-32.04815"
       inkscape:connector-curvature="0"
       id="path44400"
       style="fill:#4e499b;fill-rule:nonzero;stroke:none" />
    <path
       d="m 297.24641,755.0877 c 13.1544,-3.97984 24.33984,-13.11251 33.64008,-27.27235 9.50972,-14.32741 11.56247,-28.61293 5.78124,-42.39573 -5.65556,-13.7828 -17.25992,-23.29251 -35.27392,-28.19399 -17.63695,-5.27852 -37.07531,-4.35687 -58.60831,2.59737 -21.6168,7.07991 -32.92791,15.83555 -34.10091,26.89531 -1.17301,10.80839 3.35144,22.41276 13.23819,34.39416 10.18,12.10708 21.78436,21.74247 35.3158,28.82239 13.48955,7.24749 27.02099,8.75564 40.00783,5.15284"
       inkscape:connector-curvature="0"
       id="path44402"
       style="fill:#ee1457;fill-rule:nonzero;stroke:none" />
    <path
       d="m 159.50219,795.01174 c 10.01243,9.38403 23.54387,14.53687 40.42676,15.58419 17.25992,1.00544 30.49811,-4.39876 39.5051,-16.33827 9.17457,-11.73004 11.60437,-26.56017 6.95424,-44.57416 -4.35687,-17.76264 -14.78823,-34.22659 -31.67111,-49.43375 -16.84099,-15.20716 -30.12107,-20.61136 -40.30108,-16.08692 -9.88675,4.35688 -17.76263,14.15984 -23.16683,28.69671 -5.4042,14.83013 -7.87589,29.74404 -7.33128,44.9512 0.6284,15.33284 5.90692,27.81696 15.5842,37.201"
       inkscape:connector-curvature="0"
       id="path44404"
       style="fill:#ee1c23;fill-rule:nonzero;stroke:none" />
    <path
       d="m 256.69397,620.15032 c -8.3367,-10.68272 -21.61679,-18.68429 -39.63078,-23.96281 -19.06132,-5.52987 -37.61992,-4.98526 -55.7596,1.29869 -18.93564,6.5772 -31.1684,19.31268 -36.69827,38.12264 -5.52988,18.68428 -2.72305,35.65095 8.33671,51.10947 10.72461,14.57876 25.7642,23.04115 45.32823,25.51284 18.5586,2.17844 36.06988,-1.8014 52.28248,-11.9814 15.5842,-10.05432 25.7642,-23.33441 30.91704,-39.67268 5.02716,-16.58963 3.47712,-29.99539 -4.77581,-40.42675"
       inkscape:connector-curvature="0"
       id="path44406"
       style="fill:#faca43;fill-rule:nonzero;stroke:none" />
    <path
       d="m 189.74895,705.02555 c 4.65012,-0.54461 8.88131,-5.27852 12.86115,-14.28551 -6.95424,11.18543 -16.21259,13.48954 -27.81696,6.91234 5.27852,5.27852 10.43136,7.75021 14.95581,7.37317"
       inkscape:connector-curvature="0"
       id="path44408"
       style="fill:#ee114d;fill-rule:nonzero;stroke:none" />
    <path
       d="m 204.95611,678.88431 c 1.25679,-2.05275 1.92708,-4.52444 1.92708,-7.49884 0,-2.93251 -0.67029,-5.52988 -1.92708,-7.58264 -1.29869,-2.05276 -2.72305,-3.10008 -4.52445,-3.10008 -1.8014,0 -3.35144,1.04732 -4.65012,3.10008 -1.25679,2.05276 -1.92708,4.65013 -1.92708,7.58264 0,2.9744 0.67029,5.44609 1.92708,7.49884 1.29868,2.05276 2.84872,3.22577 4.65012,3.22577 1.8014,0 3.22576,-1.17301 4.52445,-3.22577"
       inkscape:connector-curvature="0"
       id="path44410"
       style="fill:#221e1f;fill-rule:nonzero;stroke:none" />
    <path
       d="m 174.03907,678.88431 c 1.29868,-2.05275 1.92708,-4.52444 1.92708,-7.49884 0,-2.93251 -0.6284,-5.52988 -1.92708,-7.58264 -1.17301,-2.05276 -2.72305,-3.10008 -4.52445,-3.10008 -1.8014,0 -3.30955,1.04732 -4.60823,3.10008 -1.173,2.05276 -1.8014,4.65013 -1.8014,7.58264 0,2.9744 0.6284,5.44609 1.8014,7.49884 1.29868,2.05276 2.80683,3.22577 4.60823,3.22577 1.8014,0 3.35144,-1.17301 4.52445,-3.22577"
       inkscape:connector-curvature="0"
       id="path44412"
       style="fill:#221e1f;fill-rule:nonzero;stroke:none" />
    <path
       d="m 182.66903,615.50019 c 0.25136,-0.12568 0.25136,-0.12568 0.25136,-0.25136 0.62839,-0.62839 1.29868,-1.25679 2.05275,-1.67572 l 0.12568,0 c 0.41893,0.12568 0.54461,0.67029 0.41893,1.55004 -0.12568,0.92165 -1.173,1.29869 -2.84872,1.04733 l 0,-0.12568 c 0,-0.12568 0,-0.25136 0,-0.37704 l 0,-0.16757 z m 12.73547,4.27309 c -0.12568,0 -0.12568,0 -0.25136,0.12568 -3.60279,1.42436 -7.07991,1.29868 -10.68271,-0.37704 2.17843,-0.25136 3.6028,-1.42436 4.52444,-3.35144 0.6284,-1.55004 0.37704,-3.10008 -0.54461,-4.52445 -0.87975,-1.173 -2.05275,-1.55004 -3.47712,-1.173 -2.93251,0.67029 -4.90148,2.47169 -5.52987,5.44609 -0.37704,-0.12568 -0.87976,-0.25136 -1.29869,-0.41893 -1.67572,-0.75407 -2.68115,-1.92708 -3.47712,-3.35144 -0.62839,-1.50815 -0.62839,-3.18387 0,-5.11095 0.67029,-1.96897 1.92708,-2.72304 3.89605,-2.346 -2.22033,-0.87976 -4.27308,-0.37704 -5.9488,1.42436 -1.42437,1.42436 -1.92708,3.22576 -1.55005,5.4042 0,0.37703 0,0.62839 0.12568,0.92164 1.17301,3.47712 3.6028,5.52988 7.49885,6.28395 0.75408,0.25136 1.38247,0.79597 1.92708,1.42437 0.62839,0.92164 1.25679,1.55004 2.05276,1.92707 3.97983,1.8014 8.08535,0.92165 12.73547,-2.30411"
       inkscape:connector-curvature="0"
       id="path44414"
       style="fill:#ee114d;fill-rule:nonzero;stroke:none" />
    <path
       d="m 405.79119,886.67364 c 0,0 0.16758,0.12568 0.41893,0.12568 l 1.92708,0 0,6.32584 0.6284,0.37704 0.54461,-0.37704 0.12567,-0.62839 0,-5.69745 1.67573,0 0.62839,-0.12568 0.25136,-0.37704 -0.25136,-0.62839 -5.94881,0 c -0.25135,0.12568 -0.25135,0.37703 -0.25135,0.62839 l 0.25135,0.37704"
       inkscape:connector-curvature="0"
       id="path44416"
       style="fill:#3569a7;fill-rule:nonzero;stroke:none" />
    <path
       d="m 414.96576,885.66821 -1.8014,0 -0.12568,0.75407 0,6.32585 0.12568,0.37703 0.37704,0.37704 0.75407,-0.75407 0,-5.4042 1.55005,5.52987 0.79596,0.6284 0.6284,-0.25136 0.25136,-0.37704 0,-0.75407 1.55004,-4.7758 0,5.4042 0.12568,0.37703 0.37703,0.37704 0.67029,-0.37704 0.25136,-0.37703 0,-6.32585 -0.50272,-0.75407 -1.8014,0 -0.12568,0.37703 -1.42436,4.77581 c -0.54461,-1.42437 -0.79596,-2.84873 -1.04732,-4.14741 l -0.37704,-0.6284 -0.25136,-0.37703"
       inkscape:connector-curvature="0"
       id="path44418"
       style="fill:#3569a7;fill-rule:nonzero;stroke:none" />
    <path
       d="m 400.00996,901.37809 1.92708,-3.47712 0.54461,-1.55005 c 0,-0.62839 -0.29326,-1.29868 -0.79597,-1.8014 -0.6284,-0.50271 -1.29869,-0.79596 -1.92708,-0.79596 -0.75407,0 -1.42436,0.41893 -2.05276,1.04732 -0.79596,1.04733 -1.55004,2.34601 -2.30411,4.10552 l -6.07449,15.87745 -4.60823,-15.5842 -0.79597,-3.35144 c -0.37703,-1.17301 -1.29868,-1.8014 -2.42979,-1.8014 -0.79597,0 -1.42436,0.25136 -1.92708,0.62839 -0.54461,0.50272 -0.79597,1.17301 -0.79597,1.92708 0,0.87976 0.37704,2.47169 1.04733,4.77581 l 1.55004,5.15284 c 1.92708,6.82856 3.6028,12.10707 5.11095,15.70987 0.41893,1.29869 1.42436,1.92708 2.72304,1.92708 0.87975,0 1.8014,-0.50271 2.30412,-1.55004 l 2.22033,-4.52444 6.28395,-16.71531"
       inkscape:connector-curvature="0"
       id="path44420"
       style="fill:#6961ac;fill-rule:nonzero;stroke:none" />
    <path
       d="m 376.84312,895.84821 c -0.37703,-0.67029 -1.04732,-0.79597 -1.8014,-0.79597 l -21.36543,-0.87975 c -0.92165,-0.12568 -1.67572,0.25136 -2.17844,0.87975 -0.41893,0.54461 -0.67028,1.04733 -0.67028,1.67572 0,1.29868 0.67028,2.05276 2.05275,2.47169 l 6.70288,0.62839 0.92165,0 1.25679,18.80996 -0.25136,1.67573 c 0,0.75407 0.25136,1.25679 0.92165,1.80139 0.50271,0.37704 1.13111,0.6284 1.8014,0.6284 1.00543,0 1.67572,-0.37704 2.05276,-1.42436 0.50271,-0.75408 0.62839,-1.50815 0.62839,-2.55548 l -1.00543,-19.06132 9.13267,0.37704 c 0.75408,0 1.42437,-0.25136 1.8014,-0.75407 0.50272,-0.41893 0.75408,-1.04733 0.75408,-1.67572 0,-0.79597 -0.25136,-1.29869 -0.75408,-1.8014"
       inkscape:connector-curvature="0"
       id="path44422"
       style="fill:#6961ac;fill-rule:nonzero;stroke:none" />
    <path
       d="m 344.66929,886.42228 4.60823,0 c 2.05276,0 3.6028,-0.50272 5.02717,-1.92708 1.29868,-1.29868 2.05275,-2.93251 2.05275,-4.7758 0,-3.47712 -1.55004,-5.52988 -4.23119,-6.40963 l -6.45152,-0.6284 -1.29869,0 0,-0.54461 c 0,-7.58263 -2.42979,-11.18543 -7.45695,-10.93407 -1.92708,0 -3.47712,0.62839 -4.90149,1.8014 -1.55004,1.42436 -2.17843,2.9744 -2.05275,4.90148 l 0.12568,4.85959 -3.85416,-0.0838 c -1.92708,0 -3.6028,0.6284 -4.90148,2.05276 -1.29869,1.25679 -2.05276,2.93251 -2.05276,4.85959 -0.12568,3.89605 2.05276,6.20017 6.45152,6.70288 l 4.73391,0.37704 0.41893,24.08848 c 0,1.92708 0.75408,3.47712 2.4298,4.90148 l -0.12568,0.12568 c 1.42436,0.92165 2.9744,1.42436 4.65012,1.42436 4.98527,0.25136 7.33128,-3.10008 7.45696,-10.18 l -0.6284,-20.61136"
       inkscape:connector-curvature="0"
       id="path44424"
       style="fill:#6961ac;fill-rule:nonzero;stroke:none" />
    <path
       d="m 314.12929,874.85981 c -1.29868,-0.79597 -3.35144,-1.04732 -6.03259,-1.04732 -6.45153,0 -11.22733,0.50271 -14.15984,1.42436 l -0.16757,0 c -6.0326,2.05276 -9.13268,5.90691 -9.007,11.73004 -0.12568,3.97984 1.8014,7.45696 5.94881,10.30568 1.55004,1.00543 4.73391,2.68115 9.63539,4.85959 2.34601,1.04732 3.6028,1.55004 3.89605,1.92708 -0.29325,0.67029 -2.09465,0.92164 -5.32041,0.92164 l -3.85416,-1.04732 c -2.42979,-0.75408 -4.23119,-1.13111 -5.52988,-1.13111 -4.35687,0 -6.45152,2.05275 -6.45152,5.90691 -0.12568,3.47712 2.09465,6.07449 6.82856,7.87589 l 0,-0.29325 c 2.84872,1.173 5.94881,1.67572 9.42593,1.8014 4.73391,0 8.88132,-1.00544 12.23276,-2.80684 4.60823,-2.59736 6.82856,-6.32584 6.82856,-11.22732 0.12568,-3.85416 -1.96898,-7.07992 -5.94881,-10.01243 -1.8014,-1.42436 -5.02716,-3.10008 -10.05432,-5.27852 l -3.85416,-1.8014 7.75021,-0.29325 c 0.87975,2.09465 2.93251,3.22576 5.78123,3.22576 3.72848,0.25136 5.65556,-2.55547 5.65556,-8.50428 0,-3.18387 -1.13111,-5.27852 -3.47712,-6.40963 l -0.12568,-0.12568"
       inkscape:connector-curvature="0"
       id="path44426"
       style="fill:#6961ac;fill-rule:nonzero;stroke:none" />
    <path
       d="m 283.21225,890.02508 0,-2.55547 c 0,-7.87589 -3.05819,-11.73005 -9.13268,-11.60437 -4.7758,0 -9.13267,1.17301 -12.86115,3.6028 -1.17301,-1.92708 -3.10008,-2.93251 -5.78124,-2.93251 -2.22033,0 -3.89605,0.75408 -5.02716,2.05276 l 0,0.12568 c -1.173,1.173 -1.8014,2.68115 -1.8014,4.7758 l 0,29.61836 c 0,1.88518 0.50272,3.47712 1.50815,4.73391 1.17301,1.42436 2.84873,2.05276 5.02716,2.05276 2.09465,0 3.72848,-0.6284 5.02716,-1.8014 1.29869,-1.38247 2.05276,-3.10009 2.05276,-4.98527 l 0,-17.25992 c 1.55004,-2.97441 3.89605,-4.90148 6.82856,-5.94881 l 0.41893,0 0,0.92165 c 0.12568,4.35687 2.30412,6.5772 6.66099,6.5772 4.39877,0.0838 6.70288,-2.34601 7.07992,-7.37317"
       inkscape:connector-curvature="0"
       id="path44428"
       style="fill:#6961ac;fill-rule:nonzero;stroke:none" />
    <path
       d="m 244.33554,859.65265 c -1.55004,-1.29868 -3.22577,-1.92708 -5.27852,-1.92708 -2.17844,0 -3.97984,0.6284 -5.4042,1.92708 l 0,0.12568 c -1.55004,1.42436 -2.4298,3.22576 -2.4298,5.27852 0,2.05275 0.75408,3.72847 2.4298,5.27852 1.42436,1.29868 3.22576,2.05275 5.4042,2.05275 2.05275,0 3.72848,-0.75407 5.27852,-2.05275 1.55004,-1.55005 2.47168,-3.22577 2.47168,-5.27852 0,-2.05276 -0.92164,-3.85416 -2.47168,-5.27852 l 0,-0.12568"
       inkscape:connector-curvature="0"
       id="path44430"
       style="fill:#6961ac;fill-rule:nonzero;stroke:none" />
    <path
       d="m 242.7855,875.61388 -0.12568,0 c -1.13112,-1.42436 -2.68116,-2.05275 -4.73391,-2.05275 -2.09465,0 -3.77037,0.62839 -5.02717,2.05275 -1.42436,1.17301 -2.09465,2.84873 -2.09465,4.77581 l -0.50271,28.98996 c 0,1.75951 0.67029,3.47712 2.05276,4.85959 l 0,0.12568 c 1.29868,1.173 2.9744,1.67572 5.02716,1.67572 1.92708,0 3.6028,-0.50272 5.02716,-1.67572 l 0,-0.12568 c 1.29868,-1.38247 1.92708,-3.10008 1.92708,-4.85959 l 0.37703,-28.98996 c 0,-1.8014 -0.62839,-3.47712 -1.92707,-4.77581"
       inkscape:connector-curvature="0"
       id="path44432"
       style="fill:#6961ac;fill-rule:nonzero;stroke:none" />
    <path
       d="m 219.9957,857.47421 c -4.2312,-1.173 -7.83399,-1.67572 -10.68272,-1.67572 l -13.36387,1.42436 -2.72304,-0.54461 c -2.17844,0 -3.72848,0.79597 -5.02717,2.05276 -1.42436,1.42436 -2.05275,2.97441 -2.05275,4.90148 l -0.12568,49.05672 c 0,1.92708 0.62839,3.77037 1.8014,5.02716 l 0.12568,0 c 1.173,1.29868 2.80683,1.92708 4.7758,1.92708 2.05276,0 3.72848,-0.6284 5.27852,-1.92708 1.42436,-1.25679 2.30411,-3.10008 2.30411,-5.02716 l 0,-20.44379 6.82856,-1.173 11.05976,0.37703 c 1.92708,0 3.47712,-0.50271 4.90148,-1.8014 l 0,-0.12568 c 1.42436,-1.29868 2.05276,-2.9744 2.17844,-4.90148 0.12568,-4.10551 -2.05276,-6.40963 -6.40963,-6.95424 l -11.73005,-0.62839 -6.82856,0.62839 0,-7.07992 4.2312,-0.50271 0.16757,0 4.60823,-0.25136 c 4.14741,-0.12568 7.62453,0.25136 10.55704,1.25679 l 2.59737,0.54461 c 1.8014,0 3.47712,-0.75408 4.73391,-2.22033 l 0.16757,0 c 1.25679,-1.38247 1.92708,-3.05819 1.92708,-4.85959 0.37703,-2.9744 -2.59737,-5.27852 -9.17457,-7.07992 l -0.12568,0"
       inkscape:connector-curvature="0"
       id="path44434"
       style="fill:#6961ac;fill-rule:nonzero;stroke:none" />
    <path
       d="m 184.59611,881.39512 c 0,-1.8014 -0.75408,-3.43523 -2.4298,-4.85959 -1.42436,-1.173 -3.10008,-1.8014 -4.90148,-1.8014 -2.59737,0 -4.52445,1.13111 -5.94881,3.6028 l 0,0.12568 c -1.63383,2.55547 -3.47712,5.65556 -5.11095,9.38403 l -2.72304,6.20017 c -3.72848,-7.37317 -7.07992,-12.77737 -9.92864,-16.50585 l 0,-0.12568 c -1.42437,-1.8014 -3.22577,-2.68115 -5.4042,-2.68115 -1.8014,0 -3.47712,0.6284 -4.90148,2.05276 l -0.12568,0.12568 c -1.42437,1.29868 -2.17844,3.10008 -2.17844,4.90148 l 0.50272,2.42979 0.79596,1.55005 1.67572,2.84872 0.12568,0 11.85572,21.49111 c -5.02716,10.8084 -7.37317,17.25992 -7.37317,19.56404 0,1.92708 0.79597,3.6028 2.34601,4.90148 1.25679,1.17301 2.93251,1.8014 4.90149,1.8014 3.05819,0 5.40419,-1.42436 6.5353,-4.65012 l 2.34601,-6.66099 c 1.55004,-4.02173 3.85416,-9.04889 6.66099,-15.08148 l 12.40033,-25.26149 0,-0.12568 c 0.6284,-1.13111 0.87976,-2.17843 0.87976,-3.22576"
       inkscape:connector-curvature="0"
       id="path44436"
       style="fill:#f14337;fill-rule:nonzero;stroke:none" />
    <path
       d="m 118.27947,885.16549 c 1.29869,-0.54461 2.4298,-0.79597 3.47712,-0.92165 2.05276,0 3.6028,0.6284 4.90148,2.17844 l 0.12568,0.12568 c 1.17301,1.67572 1.67572,3.89605 1.67572,6.32584 0,2.4298 -0.62839,4.52445 -2.17843,6.0326 l 0,0.16757 c -1.55004,1.63383 -3.47712,2.42979 -5.94881,2.42979 -1.8014,-0.12567 -3.85416,-0.50271 -6.15827,-1.42436 l 0,-12.48411 c 1.55004,-1.17301 2.93251,-1.92708 4.10551,-2.4298 z m 18.55861,-7.49885 c -3.89605,-4.48255 -8.88132,-6.78667 -15.08149,-6.78667 l -5.27852,0.87976 -2.30411,0.75407 0,-10.13811 0.25136,-2.9744 c 0,-4.14741 -2.05276,-6.45152 -6.0326,-6.32584 -2.47169,-0.12568 -4.39876,1.173 -5.69741,3.72847 l -0.25135,0 c -0.92165,1.55005 -1.29869,3.47712 -1.29869,5.57177 l -0.25135,45.45392 c 0,1.8014 0.79596,3.30955 2.05275,4.60823 1.29869,1.29868 2.72305,1.92708 4.65009,1.92708 1.29868,0 2.55547,-0.37704 3.72847,-1.00543 2.84873,1.00543 5.90692,1.42436 9.007,1.42436 6.20017,0 11.35301,-2.09465 15.5842,-6.45153 4.14741,-4.27308 6.20016,-9.42592 6.20016,-15.45852 0,-2.9744 -0.41893,-5.65555 -1.29868,-8.25292 -0.87975,-2.55547 -2.30411,-4.90148 -4.10551,-6.95424 l 0.12568,0"
       inkscape:connector-curvature="0"
       id="path44438"
       style="fill:#f14337;fill-rule:nonzero;stroke:none" />
    <path
       d="m 83.131238,887.34016 -0.377037,4.48255 c 0,2.59737 0.377037,6.45152 0.879753,11.60436 l -2.178437,1.17301 0.125679,0 -3.477119,0.50271 c -1.550042,0 -2.555474,-0.50271 -3.225762,-1.42436 -0.879753,-1.42436 -1.424362,-3.35144 -1.424362,-5.90691 0,-2.72305 1.047325,-5.27852 2.974403,-7.33128 1.927079,-2.05276 4.147408,-3.10008 6.702882,-3.10008 z m 13.531442,7.20559 0.251358,-4.7758 0.251358,-2.80683 c 0.628395,-0.79597 1.047325,-1.8014 1.047325,-2.9744 0.125679,-2.84873 -2.052757,-5.27852 -6.577202,-7.33128 -3.351441,-1.42436 -6.200166,-2.22033 -8.755639,-2.22033 -6.451524,0 -11.981401,2.34601 -16.505846,6.70288 -4.608231,4.52445 -7.079918,9.92864 -7.079918,16.25449 l 0,0.0838 c 0,6.70288 1.67572,11.73004 4.901482,14.9558 l 0.125679,0 c 3.100082,3.47712 8.001564,5.27852 14.285516,5.4042 l 4.775803,-0.87976 0.125679,0 4.650124,-1.96897 c 2.429794,2.09465 4.356873,2.97441 5.529877,2.84873 1.67572,-0.12568 3.351441,-0.6284 4.775803,-1.67572 l 0.125679,-0.12568 c 1.298683,-1.25679 1.927082,-2.80683 1.927082,-4.60823 0.12568,-0.37704 -0.37704,-1.96897 -1.550045,-4.27309 l 0.125679,0 -1.550041,-3.6028 c -0.628395,-1.8014 -0.879753,-4.7758 -0.879753,-9.007"
       inkscape:connector-curvature="0"
       id="path44442"
       style="fill:#f14337;fill-rule:nonzero;stroke:none" />
    <path
       d="m 29.550079,901.75135 0,-8.62996 7.205598,0 c 1.550041,0.12568 3.225762,0.79597 5.027161,1.8014 1.67572,0.92165 2.597366,1.92708 2.848725,2.97441 l -4.650124,1.80139 c -3.728478,1.00544 -7.205598,1.8014 -10.43136,2.05276 z m 9.04889,-31.67111 c 1.38247,1.00543 2.304116,2.05275 2.304116,3.22576 -0.125679,3.35144 -3.100083,5.27852 -8.755639,5.78123 l -2.597367,0 0,-11.05975 3.351441,0 c 2.09465,0 3.854157,0.62839 5.697449,2.05276 z M 55.062922,873.306 C 55.188601,867.48287 52.339876,862.74896 46.935678,859.02048 42.453126,855.79472 37.803002,854.119 32.90152,854.119 l -9.258355,0.87975 c -5.027161,0.67029 -7.875886,2.47169 -8.127244,5.82313 l 0,47.381 c -0.125679,1.92707 0.795967,3.60279 2.346009,5.27851 1.550041,1.67572 3.351441,2.4298 5.404198,2.4298 8.62996,0 15.835557,-1.00543 21.742472,-3.22576 2.597366,-1.00543 5.278519,-2.4298 7.624527,-4.48255 l 0.125679,0 c 3.979836,-3.35145 6.032594,-6.95424 5.906915,-10.55704 l 0,-0.16757 c 0,-2.93252 -1.173005,-5.90692 -3.47712,-8.71375 -1.424362,-1.67572 -2.848725,-3.10008 -4.398766,-4.27309 l 2.597366,-3.35144 c 1.173005,-2.17843 1.675721,-4.73391 1.675721,-7.83399"
       inkscape:connector-curvature="0"
       id="path44444"
       style="fill:#f14337;fill-rule:nonzero;stroke:none" />
  </g>
</svg>
