<svg width="576.4" height="465.28" xmlns="http://www.w3.org/2000/svg" xmlns:xlink="http://www.w3.org/1999/xlink">
    <defs>
        <linearGradient id="b" x2="1" gradientTransform="scale(-71.449 71.449) rotate(50 -3.357 -2.145)" gradientUnits="userSpaceOnUse">
            <stop stop-color="#f6891e" offset="0"/>
            <stop stop-color="#ffc54b" offset=".32"/>
            <stop stop-color="#ec7b23" offset="1"/>
        </linearGradient>
        <clipPath id="c">
            <path d="M0 350.5h453.333V0H0z"/>
        </clipPath>
        <clipPath id="d">
            <path d="M0 350.5h453.333V0H0z"/>
        </clipPath>
        <clipPath id="e">
            <path d="M0 350.5h453.333V0H0z"/>
        </clipPath>
        <clipPath id="f">
            <path d="M0 350.5h453.333V0H0z"/>
        </clipPath>
        <linearGradient id="g" x2="1" gradientTransform="matrix(0 46.076 46.076 0 257.65 287.8)" gradientUnits="userSpaceOnUse">
            <stop stop-color="#f6891e" offset="0"/>
            <stop stop-color="#ffc758" offset=".479"/>
            <stop stop-color="#ffc758" offset=".86"/>
            <stop stop-color="#ffc758" offset="1"/>
        </linearGradient>
        <clipPath id="h">
            <path d="M0 350.5h453.333V0H0z"/>
        </clipPath>
        <clipPath id="i">
            <path d="M0 350.5h453.333V0H0z"/>
        </clipPath>
        <radialGradient id="j" cx="0" cy="0" r="1" gradientTransform="matrix(8.8909 0 0 -8.8909 299.85 307.65)" gradientUnits="userSpaceOnUse">
            <stop stop-color="#fff200" offset="0"/>
            <stop stop-color="#f89a50" offset=".26"/>
            <stop stop-color="#f89a50" offset=".466"/>
            <stop stop-color="#ffc758" offset="1"/>
        </radialGradient>
        <clipPath id="k">
            <path d="M0 350.5h453.333V0H0z"/>
        </clipPath>
        <linearGradient id="l" x2="1" gradientTransform="scale(-19.6361 19.6361) rotate(70 -17.62 -3.38)" gradientUnits="userSpaceOnUse">
            <stop stop-color="#f6891e" offset="0"/>
            <stop stop-color="#ffc758" offset=".348"/>
            <stop stop-color="#ec7b23" offset="1"/>
        </linearGradient>
        <radialGradient id="m" cx="0" cy="0" r="1" gradientTransform="matrix(50.759 0 0 -50.759 243.73 241.35)" gradientUnits="userSpaceOnUse">
            <stop stop-color="#dd7c1b" offset="0"/>
            <stop stop-color="#ffd579" offset=".28"/>
            <stop stop-color="#ffd579" offset=".539"/>
            <stop stop-color="#ecb028" offset="1"/>
        </radialGradient>
        <clipPath id="o">
            <path d="M0 350.5h453.333V0H0z"/>
        </clipPath>
        <clipPath id="p">
            <path d="M0 350.5h453.333V0H0z"/>
        </clipPath>
        <clipPath id="q">
            <path d="M0 350.5h453.333V0H0z"/>
        </clipPath>
        <clipPath id="r">
            <path d="M0 350.5h453.333V0H0z"/>
        </clipPath>
        <clipPath id="s">
            <path d="M0 350.5h453.333V0H0z"/>
        </clipPath>
        <clipPath id="t">
            <path d="M0 350.5h453.333V0H0z"/>
        </clipPath>
        <radialGradient id="u" cx="0" cy="0" r="1" gradientTransform="matrix(14.08 0 0 -14.08 264.71 227.25)" gradientUnits="userSpaceOnUse">
            <stop stop-color="#ba3c7f" offset="0"/>
            <stop stop-color="#ed0a6f" offset=".734"/>
            <stop stop-color="#ed0a6f" offset="1"/>
        </radialGradient>
        <clipPath id="v">
            <path d="M0 350.5h453.333V0H0z"/>
        </clipPath>
        <clipPath id="w">
            <path d="M268.98 233.26h4.098v-5.061h-4.098z"/>
        </clipPath>
        <radialGradient id="y" cx="41.984" cy="226.75" r="9.338" gradientTransform="matrix(1 0 0 1.0001 0 -.02)" gradientUnits="userSpaceOnUse" xlink:href="#a"/>
        <radialGradient id="a" cx="275.21" cy="158.85" r="14.413" gradientTransform="matrix(.95821 0 0 .95663 31.544 -.243)" gradientUnits="userSpaceOnUse">
            <stop stop-color="#f5a55d" offset="0"/>
            <stop stop-color="#fbb577" offset=".7"/>
            <stop stop-color="#ffd583" stop-opacity="0" offset="1"/>
        </radialGradient>
        <filter id="n" x="-.096" y="-.096" width="1.192" height="1.192" color-interpolation-filters="sRGB">
            <feGaussianBlur stdDeviation=".666"/>
        </filter>
        <radialGradient id="A" cx="275.21" cy="158.85" r="14.413" gradientTransform="matrix(.95821 0 0 .95663 -246.51 -134.77)" gradientUnits="userSpaceOnUse" xlink:href="#a"/>
        <filter id="B" x="-.096" y="-.096" width="1.192" height="1.192" color-interpolation-filters="sRGB">
            <feGaussianBlur stdDeviation="1.114"/>
        </filter>
        <filter id="x" x="-.096" y="-.096" width="1.192" height="1.192" color-interpolation-filters="sRGB">
            <feGaussianBlur stdDeviation="1.154"/>
        </filter>
        <filter id="z" x="-.096" y="-.096" width="1.192" height="1.192" color-interpolation-filters="sRGB">
            <feGaussianBlur stdDeviation=".627"/>
        </filter>
    </defs>
    <g transform="matrix(1.3333 0 0 -1.3333 -.577 466.45)">
        <path d="M190.33 211.33c-1.167-3.666-49.297-92.137-49.297-92.137-2.871-9.843-1.969-13.452-.164-16.077s6.644-6.973 23.131-2.378c16.486 4.593 31.249 23.953 35.107 31.333 5.659 10.829 8.21 19.022 11.013 31.602 2.626 11.792 1.488 21.233 1.576 27.789.117 8.699 10.673 12.604 9.439 15.858-1.485 3.915-13.26 5.966-21.821 5.966-4.786 0-8.566-.641-8.984-1.956" fill="url(#b)" transform="scale(.99998)"/>
        <g clip-path="url(#c)" transform="scale(.99998)">
            <path d="M200.9 187.44c4.135-.611 10.15-3.618 10.902-4.417 1.08-2.914-2.472-27.858-6.055-36.441 0 7.583-8.583 14.25-11.75 16.083-.858.497 6.903 24.775 6.903 24.775" fill="#eee1a2"/>
            <path d="M207.17 151c1.583 5 2.75 10.333 3 13.666-.583 1.917-9.25 7.501-11 7.834s-4.333-6.667-4.333-6.667 10.5-6.5 12.333-14.833" fill="#bb2025"/>
        </g>
        <g clip-path="url(#d)" transform="scale(.99998)">
            <path d="M103.09 182.21c-8.298-4.583-18.6-11.989-21.177-28.46s-4.127-32.92 5.602-41.233c6.163-5.266 14.502-7.17 31.262-2.465 12.772 3.586 36.639 15.799 46.274 22.857 9.636 7.059 17.816 10.982 20.505 14.118 2.689 3.137 7.17 10.42 6.05 15.126s-81.008 24.203-88.516 20.057" fill="#34a749"/>
            <path d="M107.83 179.25c-6.041-3.625-12.5-12.5-14.25-18.75s-6.833-24.834.114-35.414c5.295-8.064 10.636-9.754 27.386-5.254s35.25 15.584 40.5 18.834 23.951 14.504 25.701 17.004 1.846 6.875.346 7.125S114.08 183 107.83 179.25" fill="#cedda2"/>
            <path d="M109.73 178.23c-2.826-1.784-10.186-6.913-14.051-17.991-3.866-11.078-4.981-26.765-.669-33.53 4.312-6.766 12.666-7.437 21.262-5.725 17.174 3.42 35.064 14.098 49.514 22.676 2.379 1.412 21.04 12.415 20.742 15.388-7.732 0-40.146 7.063-45.424 8.624-5.279 1.562-22.156 6.395-31.374 10.558" fill="#99c945"/>
            <path d="M140.67 145.92c0-8.698-7.833-16.583-17.5-16.916-8.751-.302-17.338 7.968-17.417 16.666-.083 9.167 6.163 18.425 17.667 18.334 10.667-.084 17.25-9.386 17.25-18.084" fill="#df1e26"/>
            <path d="M138.5 146.42c0-8.422-6.865-15.25-15.333-15.25s-15.334 6.828-15.334 15.25c0 8.423 6.866 15.251 15.334 15.251s15.333-6.828 15.333-15.251" fill="#bf2026"/>
        </g>
        <g clip-path="url(#e)" transform="scale(.99998)">
            <path d="M198.25 266.42c-3.5 10.75-17.993 42.083-34.417 42.083-16.166 0-29.385-27.016-31.5-31.333-4-8.167 28.501-74.833 54.167-75.167 25.667-.333 25 20.667 24.833 25.834-.154 4.796-13.083 38.583-13.083 38.583" fill="#5ab147"/>
            <path d="M194.83 260.33c-2.833 7.667-15.837 33.331-29.5 33-13.75-.333-21.833-16.833-24.667-21.667-2.833-4.833 27.5-67.666 51.5-55.666 11.323 5.662 2.667 44.333 2.667 44.333" fill="#cedda2"/>
            <path d="M192.82 260.51c-2.657 7.19-14.853 31.258-27.665 30.947-12.895-.312-20.475-15.785-23.132-20.318-2.658-4.533 11.409-57.205 30.165-69.085 18.756-11.878 23.5-13.344 27.153-11.091 10.105 6.232 10.694 12.59 7.797 30.729-2.804 17.551-14.318 38.818-14.318 38.818" fill="#a2cb47"/>
            <path d="M189.5 240.5c0-17.305-11.305-31.333-25.25-31.333S139 223.195 139 240.5s11.305 31.333 25.25 31.333 25.25-14.028 25.25-31.333" fill="#df1e26"/>
            <path d="M187.58 240c.188-16.25-10.5-26.938-21.063-27.125-13.121-.233-26.538 9.77-26.538 26.568 0 16.799 10.639 30.417 23.763 30.417 13.123 0 23.644-13.062 23.838-29.86" fill="#bf2026"/>
        </g>
        <g clip-path="url(#f)" transform="scale(.99998)">
            <path d="M93.606 299.05c-13.669-2.749-23.174-15.493-29.102-32.739-5.927-17.245-6.87-29.102-4.58-42.44s21.832-30.034 35.434-38.397c18.188-11.183 77.479-27.619 94.041-26.407 5.524.404 14.003 19.199 11.317 28.966-2.965 10.781-33.01 52.008-35.974 56.319-3.04 4.422-44.999 59.954-71.136 54.698" fill="#5bb146"/>
            <path d="M93.667 290c-7.169-1.247-15.333-9.667-20-24s-5.167-27.333-1.833-40c3.333-12.667 17.499-26.5 25.166-32.333 7.667-5.834 38.834-24.834 91.334-30.167 4 6.166 7.518 14.588 7.333 18.833-.458 10.542-3.374 12.895-11.333 24.834-17.667 26.5-29.154 39.868-36.167 48.5C130.834 277 109 292.667 93.667 290" fill="#c4d898"/>
            <path d="M94.256 287.62c-6.448-1.122-13.792-8.695-17.989-21.588-4.199-12.892-5.644-26.272-2.767-37.697 4.458-17.708 16.274-24.804 23.833-32.167 8-7.791 42.777-25.536 90-30.333 3.598 5.546 6.737 14.866 6.334 18.667-1.05 9.894-9.341 18.761-16.5 29.5-15.891 23.836-26.901 35.727-33.294 43.421-15.569 18.738-35.825 32.595-49.617 30.197" fill="#9bca44"/>
            <path d="M149.08 230.25c0-18.226-14.719-33-32.875-33s-32.875 14.774-32.875 33 14.719 33 32.875 33 32.875-14.774 32.875-33" fill="#df1e26"/>
            <path d="M147.08 230.25c0-17.121-13.823-31-30.875-31s-30.875 13.879-30.875 31 13.823 31 30.875 31 30.875-13.879 30.875-31" fill="#bc2025"/>
        </g>
        <path d="M244.9 290.56c-1.139-4.014 5.812-3.124 6.625-.687.813 2.438 7.313 18.25 8.688 21.375 1.374 3.125 7.374 15.437 10.312 18.375 0 0-4.75 3-7.5 4.25-1.812-2.938-16.813-38.688-18.125-43.313" fill="url(#g)" transform="scale(.99998)"/>
        <g clip-path="url(#h)" transform="scale(.99998)">
            <path d="M282.19 339.39c0-5.773-4.681-10.454-10.454-10.454-5.774 0-10.454 4.681-10.454 10.454s4.68 10.454 10.454 10.454c5.773 0 10.454-4.681 10.454-10.454" fill="#f7b03b"/>
        </g>
        <g clip-path="url(#i)" transform="scale(.99998)">
            <path d="M277.78 339.91a6.371 6.371 0 1 0-12.743 0 6.371 6.371 0 0 0 12.743 0" fill="#c02026"/>
        </g>
        <path d="M290.96 307.65a8.89 8.89 0 0 1 8.892-8.891 8.891 8.891 0 1 1-8.892 8.891" fill="url(#j)" transform="scale(.99998)"/>
        <g clip-path="url(#k)" transform="scale(.99998)">
            <path d="M305.57 307.78a5.58 5.58 0 1 0-11.161 0 5.58 5.58 0 0 0 11.161 0" fill="#c02026"/>
        </g>
        <path d="M274.27 280.75l4.469-3.406c8.344 9.469 16.5 17.312 20.828 22.016-2.459.255-4.844 1.327-6.719 4.015-.752-2.405-15.391-20.25-18.578-22.625" fill="url(#l)" transform="scale(.99998)"/>
        <path d="M191 241.83c0-27.246 28.334-48.333 57.167-49.166 36.822-1.065 51.626 26.543 47.667 53.499-3.501 23.834-21.418 42.501-51.001 43.834a56.1 56.1 0 0 1-2.521.057C213.904 290.052 191 268.296 191 241.83" fill="url(#m)" transform="scale(.99998)"/>
        <g transform="translate(-27.798 400.74) scale(.99998)" fill="#fecf74" filter="url(#n)">
            <path d="M311.33-176.77l-.42-.004h-.007a8.288 8.288 0 0 1-1.118-.084 8.288 8.288 0 0 1-.412-.064h-.007a8.421 8.421 0 0 1-.39-.087 8.378 8.378 0 0 1-.41-.106H308.557a8.526 8.526 0 0 1-.408-.136c-.12-.04-.236-.086-.353-.131l-.012-.002a8.39 8.39 0 0 1-.399-.18 8.414 8.414 0 0 1-.363-.175l-.008-.002a8.24 8.24 0 0 1-.343-.198c-.002 0-.004-.003-.006-.004h-.004a8.408 8.408 0 0 1-.35-.216l-.006-.001-.003-.004a8.304 8.304 0 0 1-.332-.239 8.376 8.376 0 0 1-.33-.249l-.008-.006a8.379 8.379 0 0 1-.32-.281 8.508 8.508 0 0 1-.28-.26l-.003-.004-.003-.004a8.36 8.36 0 0 1-.305-.328 8.376 8.376 0 0 1-.256-.291l-.004-.003-.001-.004c-.081-.101-.159-.205-.235-.31a8.35 8.35 0 0 1-.263-.367l-.001-.003-.003-.004a8.34 8.34 0 0 1-.2-.324v-.004l-.005-.006a8.33 8.33 0 0 1-.206-.362l-.001-.004-.004-.006a8.281 8.281 0 0 1-.18-.375 8.367 8.367 0 0 1-.166-.363v-.006l-.004-.006a8.233 8.233 0 0 1-.148-.406 8.313 8.313 0 0 1-.121-.368l-.001-.006v-.004a8.291 8.291 0 0 1-.109-.419 8.258 8.258 0 0 1-.085-.38v-.006l-.003-.006a8.322 8.322 0 0 1-.061-.425 8.198 8.198 0 0 1-.05-.383v-.004a8.333 8.333 0 0 1-.037-.722v-.006c.002-.24.015-.48.037-.72v-.004c.013-.13.028-.26.047-.389 0-.004.003-.007.003-.01v-.004a8.41 8.41 0 0 1 .058-.387v-.006l.001-.006a8.19 8.19 0 0 1 .099-.429 8.31 8.31 0 0 1 .096-.38v-.005l.003-.004c.038-.126.08-.251.123-.376.048-.14.098-.275.153-.412v-.008c.052-.123.108-.244.165-.364.055-.122.112-.242.173-.36l.003-.007.003-.003c.072-.135.148-.268.228-.398l.003-.007.003-.003c.059-.1.12-.2.182-.298l.003-.004.003-.003a8.44 8.44 0 0 1 .27-.378l.002-.006h.003c.07-.096.14-.19.214-.282l.006-.008c.089-.106.18-.21.274-.312.095-.107.193-.212.293-.315l.004-.006.006-.003c.094-.091.19-.181.289-.268.098-.091.198-.182.3-.268l.006-.004.006-.003c.11-.088.223-.174.337-.256.109-.083.218-.162.331-.24l.006-.002.006-.004c.115-.074.232-.144.35-.213l.001-.003c.002-.002.006-.002.01-.003a8.25 8.25 0 0 1 .342-.197l.004-.001.004-.003c.116-.06.234-.117.353-.172a8.39 8.39 0 0 1 .409-.184l.012-.002c.114-.045.226-.087.342-.126.138-.05.279-.095.42-.138l.005-.003h.003c.132-.038.265-.071.399-.102.132-.033.268-.062.401-.088l.003-.003h.004c.135-.024.269-.044.405-.061a8.288 8.288 0 0 1 1.125-.087l.004.001h.006c.235.002.469.013.703.035.14.014.278.032.415.052.138.017.275.037.412.061h.006l.006.003c.125.025.248.053.372.084l-.01-.004c.15.033.298.073.446.115h.004l.006.001c.114.036.228.075.34.115l.012.004c.139.046.276.095.412.149l.012.006.098.044a41.074 41.074 0 0 1 5.074 8.048c-.006.11-.006.221-.016.331v.001c-.013.14-.03.279-.05.417v.004a8.385 8.385 0 0 1-.061.396v.006l-.001.006c-.029.146-.062.29-.098.434a8.141 8.141 0 0 1-.09.348v.008a8.31 8.31 0 0 1-.141.428l-.003.007a8.266 8.266 0 0 1-.135.363l-.001.004-.003.004c-.05.12-.103.24-.158.357l-.003.007c-.059.13-.12.258-.185.384l-.003.006-.003.003a8.391 8.391 0 0 1-.202.35l-.003.004a8.29 8.29 0 0 1-.213.349l-.004.007v.003c-.075.11-.154.219-.233.325l-.006.009c-.08.111-.164.221-.25.328l-.007.008a8.395 8.395 0 0 1-.255.292l-.01.009a8.313 8.313 0 0 1-.294.316l-.004.004-.003.004c-.089.086-.181.17-.274.252l-.007.007a8.469 8.469 0 0 1-.32.284l-.004.003-.003.003a8.312 8.312 0 0 1-.321.243l-.01.006a8.246 8.246 0 0 1-.332.24l-.004.003-.006.001a8.291 8.291 0 0 1-.353.217l-.006.004a8.31 8.31 0 0 1-.344.198h-.004l-.003.002c-.116.06-.237.118-.356.173l-.007.003a8.399 8.399 0 0 1-.401.178l-.003.001-.006.001c-.114.045-.23.088-.346.128-.138.05-.276.096-.416.139h-.01a8.357 8.357 0 0 1-.403.105h-.009a8.414 8.414 0 0 1-.38.087h-.007l-.004.001a8.393 8.393 0 0 1-.438.065h.015c-.127.019-.256.034-.384.047h-.005c-.099.01-.197.01-.296.016zm-.426-1.008h.004c.209 0 .418-.011.625-.03.113-.012.225-.026.337-.043h.009l.006-.003c.127-.016.251-.033.378-.056a7.52 7.52 0 0 0 .338-.076h.004l.003-.003c.12-.027.238-.056.356-.09.124-.037.246-.078.368-.122l.006-.001h.003c.103-.035.206-.075.307-.115.12-.05.238-.102.355-.158l.008-.002c.104-.048.208-.098.31-.15.106-.058.21-.116.312-.178l.007-.007c.104-.06.209-.123.31-.188.101-.069.2-.14.298-.213l.006-.004.004-.001c.099-.071.194-.146.289-.222.096-.08.19-.162.281-.247l.004-.004.003-.004c.081-.072.162-.144.24-.22.092-.093.182-.19.268-.287l.001-.004.004-.004a7.4 7.4 0 0 0 .229-.26 7.43 7.43 0 0 0 .221-.29l.003-.005.004-.003c.07-.093.138-.189.204-.285.067-.104.131-.21.193-.317l.001-.006.004-.004c.06-.099.118-.199.173-.3.058-.113.115-.23.167-.346l.002-.008c.05-.106.099-.211.144-.32.041-.105.08-.212.117-.32v-.004l.002-.003c.044-.124.085-.249.123-.375.029-.104.057-.209.082-.314v-.003l.003-.004c.031-.123.058-.248.083-.373.021-.12.038-.239.053-.359l.001-.006v-.006a7.364 7.364 0 0 0 .076-.981 7.183 7.183 0 0 0-.026-.551v-.003l-.003-.003a7.292 7.292 0 0 0-.072-.588 40.185 40.185 0 0 0-3.377-5.096 7.293 7.293 0 0 0-.788-.416l-.003-.001-.004-.001a7.286 7.286 0 0 0-.306-.14l.01.007a7.38 7.38 0 0 0-.373-.136l-.004-.003-.006-.001a7.248 7.248 0 0 0-.309-.101 7.303 7.303 0 0 0-.382-.099h-.012a7.362 7.362 0 0 0-.328-.075 7.357 7.357 0 0 0-.36-.055h-.005l-.004-.003a7.378 7.378 0 0 0-.985-.073 7.358 7.358 0 0 0-.98.074l-.004-.003h-.004a7.432 7.432 0 0 0-.354.054c-.118.023-.235.05-.352.08h-.01a7.272 7.272 0 0 0-.35.09l-.009.003c-.12.036-.239.075-.357.118l-.006.001-.004.003c-.102.035-.203.07-.304.109l-.003.003h-.006c-.117.05-.235.102-.35.157l-.004.001-.003.003c-.107.05-.214.101-.319.156a7.426 7.426 0 0 0-.305.174h-.003l-.004.005c-.103.06-.206.122-.306.186l-.006.003-.006.004c-.095.065-.19.131-.281.2l-.004.005-.006.004c-.1.071-.198.147-.295.224-.09.076-.18.154-.266.234l-.006.004-.004.006a7.309 7.309 0 0 0-.255.235l-.01.01a7.338 7.338 0 0 0-.248.266l-.008.008c-.082.09-.162.182-.24.276l-.006.006a7.224 7.224 0 0 0-.189.247v.004l-.005.004c-.081.107-.159.217-.234.328l-.006.01a7.305 7.305 0 0 0-.158.26l-.004.004-.001.006a7.3 7.3 0 0 0-.207.359 7.344 7.344 0 0 0-.15.306l-.001.008c-.05.106-.099.214-.144.322l-.003.007c-.047.12-.092.24-.133.362l-.001.004a7.41 7.41 0 0 0-.11.333l.004-.006c-.032.111-.062.222-.088.334v.003l-.003.007c-.032.125-.06.25-.085.377 0 .003-.002.004-.003.007v.004c-.02.113-.034.225-.048.338l-.001.007v.006a7.364 7.364 0 0 0-.046.35v.004c-.019.208-.029.416-.03.624v.005c0 .21.011.418.03.626v.004c.012.111.026.223.043.334v.006l.003.006c.015.124.032.25.054.373v.001l.001.01c.022.11.048.217.075.324v.012c.029.124.06.247.094.37l.003.01c.033.105.069.208.106.312v.01c.04.119.084.238.13.354.047.112.098.221.15.33l.003.012c.048.108.101.216.155.32v.002l.005.01c.058.107.118.212.182.315l.003.006.003.003c.056.096.112.193.172.287l.007.01c.073.106.147.211.225.314l.003.003.003.004c.066.092.134.181.205.27l.006.009c.07.084.143.166.218.247l.004.004.004.003c.086.098.174.194.265.287l.004.004.003.004c.078.075.157.147.237.219l.006.004.003.004c.092.085.186.167.282.247.094.076.191.15.29.221l.003.001.006.004c.095.072.191.141.29.208l.009.006c.1.065.205.128.309.188l.004.003.003.004c.1.06.202.117.304.173.105.054.213.106.32.155l.003.001.004.001c.115.055.232.108.35.157h.006l.003.004c.1.039.201.077.303.111l.004.001h.006c.122.044.243.086.366.123.116.033.233.063.35.09h.007l.004.003c.113.028.227.053.342.076h.01c.117.022.235.04.354.055h.005a7.39 7.39 0 0 0 .984.076z"/>
        </g>
        <g clip-path="url(#o)" transform="scale(.99998)">
            <path d="M254.99 215.26c10.585-2.773 15.093-3.322 20.415-2.716 3.157.359 6.91 3.245 7.81 2.03.52-.703-2.356-1.656-4.403-2.178-3.103-.791-5.226-.406-10.15-1.7-3.12-.821-3.704-5.238-3.787-7.154 0 0-.042-1.25 0-4.5-4.917-.584-13.416 1.25-16.083 2.375s-6.792 2.583-11.001 7.5c-4.208 4.916-5.083 14.333-6.833 18.25-1.433 3.207-4.283 4.181-6.141 6.833-.953 1.281-1.487 2.321-1.052 2.59.784.484 2.947-2.929 4.215-4.384 1.385-1.588 4.147-4.021 5.769-5.414 3.396-2.917 12.773-9.314 21.241-11.532" fill="#c12026"/>
            <path d="M237.72 208.97c4.476 0 13.232-2.024 16.151-3.425s3.541-2.257 3.659-2.841c.106-.53-.026-2.548.388-2.608.545-.078.857 2.024 1.868 2.725 1.046.725 4.009.35 5.021-.428.078-1.557.078-3.347.078-3.347-5.916-.389-10.431.778-13.816 1.634-3.386.857-8.601 2.88-13.349 8.29" fill="#e67f8f"/>
        </g>
        <g clip-path="url(#p)" transform="scale(.99998)">
            <path d="M77.078 78.401c-6.015 0-10.89 4.838-10.89 10.806s4.875 10.806 10.89 10.806 10.89-4.838 10.89-10.806-4.875-10.806-10.89-10.806m0-31.832c-6.015 0-10.89 4.838-10.89 10.806s4.875 10.806 10.89 10.806 10.89-4.838 10.89-10.806-4.875-10.806-10.89-10.806M96.02 73.978c12.253 3.161 13.522 10.814 13.225 13.135-1.99 15.562-24.125 20.439-40.878 20.942-24.627.74-40.88-1.675-54.451-9.55C3.624 92.534-3.005 80.244 4.2 70.024c5.812-8.245 20.104-11.393 22.449.503-4.523.335-8.581 7.712-7.874 12.9 1.006 7.372 8.377 13.235 18.597 15.748-4.021-8.376-3.184-18.763-3.519-21.779s1.006-36.355-3.685-39.036c4.523-3.352 11.708-4.819 15.406-4.8 7.677-.061 15.421 1.617 18.437 6.308 4.691-3.016 18.932-6.367 25.633-6.367s25.633 2.513 26.973 15.749c1.34 13.235-10.209 21.545-20.597 24.728" fill="#c02026"/>
            <path d="M77.078 78.401c-6.015 0-10.89 4.838-10.89 10.806s4.875 10.806 10.89 10.806 10.89-4.838 10.89-10.806-4.875-10.806-10.89-10.806zm0-31.832c-6.015 0-10.89 4.838-10.89 10.806s4.875 10.806 10.89 10.806 10.89-4.838 10.89-10.806-4.875-10.806-10.89-10.806zM96.02 73.978c12.253 3.161 13.522 10.814 13.225 13.135-1.99 15.562-24.125 20.439-40.878 20.942-24.627.74-40.88-1.675-54.451-9.55C3.624 92.534-3.005 80.244 4.2 70.024c5.812-8.245 20.104-11.393 22.449.503-4.523.335-8.581 7.712-7.874 12.9 1.006 7.372 8.377 13.235 18.597 15.748-4.021-8.376-3.184-18.763-3.519-21.779s1.006-36.355-3.685-39.036c4.523-3.352 11.708-4.819 15.406-4.8 7.677-.061 15.421 1.617 18.437 6.308 4.691-3.016 18.932-6.367 25.633-6.367s25.633 2.513 26.973 15.749c1.34 13.235-10.209 21.545-20.597 24.728z" fill="none" stroke="#e61e25" stroke-width="1.5"/>
            <path d="M135.77 50.625c-5.972 0-10.813 4.813-10.813 10.75 0 5.938 4.841 10.75 10.813 10.75 5.971 0 10.813-4.812 10.813-10.75 0-5.937-4.842-10.75-10.813-10.75m52.12-2.811c-2.817.673-4.593 2.767-4.599 5.196-.008 3.171.208 23.49.208 27.49-1 1-8.125 2.913-12.291 2.875-6.879-.063-11.112-2.746-11.112-2.746s-.226-.247-.909-4.001c-2.791 3.382-9.978 4.904-15.474 4.988s-15.135-1.437-20.716-8.963c-5.581-7.525-3.467-16.657-.254-23.083 5.074-10.148 17.588-14.797 23.676-14.797 6.427 0 13.782 2.537 17.08 7.356 8.033-7.61 14.543-7.694 19.448-7.103 4.904.592 7.44 4.567 7.694 7.273s-1.606 5.242-2.751 5.515" fill="#c02026"/>
            <path d="M135.77 50.625c-5.972 0-10.813 4.813-10.813 10.75 0 5.938 4.841 10.75 10.813 10.75 5.971 0 10.813-4.812 10.813-10.75 0-5.937-4.842-10.75-10.813-10.75zm52.12-2.811c-2.817.673-4.593 2.767-4.599 5.196-.008 3.171.208 23.49.208 27.49-1 1-8.125 2.913-12.291 2.875-6.879-.063-11.112-2.746-11.112-2.746s-.226-.247-.909-4.001c-2.791 3.382-9.978 4.904-15.474 4.988s-15.135-1.437-20.716-8.963c-5.581-7.525-3.467-16.657-.254-23.083 5.074-10.148 17.588-14.797 23.676-14.797 6.427 0 13.782 2.537 17.08 7.356 8.033-7.61 14.543-7.694 19.448-7.103 4.904.592 7.44 4.567 7.694 7.273s-1.606 5.242-2.751 5.515z" fill="none" stroke="#e61e25" stroke-width="1.5"/>
            <path d="M235.62 72.166c-5.96 0-10.792-4.794-10.792-10.708S229.66 50.75 235.62 50.75s10.792 4.794 10.792 10.708-4.832 10.708-10.792 10.708m-44.587 33.28c3.481 3.738 8.656 4.813 11.178 4.759 4.503-.096 10.635-2.299 12.743-4.79 0-3.665-.126-28.04-.126-28.04 4.875 3.875 11.624 4.209 15.959 4.209 7.416 0 16.25-6.49 19.541-12.209 3.334-5.792 4.917-11.459 3.667-18.042s-7.913-12.052-12.667-13.999c-5.473-2.242-16.959-3.312-23.75-2.24-12.083 1.906-18.916 5.572-23.291 12.823-3.138 5.201-3.584 10.167-3.625 13.75-.041 3.5.371 43.779.371 43.779" fill="#c02026"/>
            <path d="M235.62 72.166c-5.96 0-10.792-4.794-10.792-10.708S229.66 50.75 235.62 50.75s10.792 4.794 10.792 10.708-4.832 10.708-10.792 10.708zm-44.587 33.28c3.481 3.738 8.656 4.813 11.178 4.759 4.503-.096 10.635-2.299 12.743-4.79 0-3.665-.126-28.04-.126-28.04 4.875 3.875 11.624 4.209 15.959 4.209 7.416 0 16.25-6.49 19.541-12.209 3.334-5.792 4.917-11.459 3.667-18.042s-7.913-12.052-12.667-13.999c-5.473-2.242-16.959-3.312-23.75-2.24-12.083 1.906-18.916 5.572-23.291 12.823-3.138 5.201-3.584 10.167-3.625 13.75-.041 3.5.371 43.779.371 43.779z" fill="none" stroke="#e61e25" stroke-width="1.5"/>
            <path d="M269.38 80.958c4.672.067 11.877-3.394 12.894-4.815.068-2.235.016-25.446.064-28.018.049-2.631 1.618-4.415 3.892-4.476 4.011-.106 6.413 6.186 6.64 13.262.142 4.4.239 16.117.239 19.435 2.437 3.52 9.48 4.334 11.172 4.334 3.25-.069 10.158-2.506 12.798-4.47 0-5.294-.686-44.212-.574-49.544.25-11.834-5.477-24.211-25.833-25-2.545-.099-12.327-.375-21.524 5.131-9.198 5.506-6.829 12.888-6.521 13.657.308.77 2.149 3.407 5.506 4.184 3.322.768 4.921.399 7.751-.585 2.899-1.009 6.151-3.692 7.105-7.29.954-3.599-.585-6.521-3.322-7.69 1.354-.83 3.907-.769 5.599-.43 2.645.431 6.768 3.476 7.445 12.243.26 3.367.022 12.315-.04 15.946-2.596-3.373-6.918-6.435-14.75-6.375-5.542.042-17.645 3.355-19.792 18.209 0 4.25.084 25.292.084 27.542 0 1.166 5.097 4.663 11.167 4.75" fill="#c02026"/>
            <path d="M269.38 80.958c4.672.067 11.877-3.394 12.894-4.815.068-2.235.016-25.446.064-28.018.049-2.631 1.618-4.415 3.892-4.476 4.011-.106 6.413 6.186 6.64 13.262.142 4.4.239 16.117.239 19.435 2.437 3.52 9.48 4.334 11.172 4.334 3.25-.069 10.158-2.506 12.798-4.47 0-5.294-.686-44.212-.574-49.544.25-11.834-5.477-24.211-25.833-25-2.545-.099-12.327-.375-21.524 5.131-9.198 5.506-6.829 12.888-6.521 13.657.308.77 2.149 3.407 5.506 4.184 3.322.768 4.921.399 7.751-.585 2.899-1.009 6.151-3.692 7.105-7.29.954-3.599-.585-6.521-3.322-7.69 1.354-.83 3.907-.769 5.599-.43 2.645.431 6.768 3.476 7.445 12.243.26 3.367.022 12.315-.04 15.946-2.596-3.373-6.918-6.435-14.75-6.375-5.542.042-17.645 3.355-19.792 18.209 0 4.25.084 25.292.084 27.542 0 1.166 5.097 4.663 11.167 4.75z" fill="none" stroke="#e61e25" stroke-width="1.5"/>
            <path d="M342.08 97.167l27.083 3.416-7.333-19.916 8.166-.084-2.666-7h-8s-7-18.584-8-22 .115-5.854 1.333-6.083c2.667-.5 5.744 1.366 8 4.25 1.5 1.917 5.5 7.583 6.25 10.25 4.167-1.5 6.333-2.417 6.333-2.417-1.75-6.916-10.75-16.166-16.083-20.166s-13.667-7.417-22-5.5-12.603 9.767-9.916 18.667c2.666 8.833 8.416 23.083 8.416 23.083l-7 .167 2.417 7h6.917z" fill="#f09b20"/>
            <path d="M342.08 97.167l27.083 3.416-7.333-19.916 8.166-.084-2.666-7h-8s-7-18.584-8-22 .115-5.854 1.333-6.083c2.667-.5 5.744 1.366 8 4.25 1.5 1.917 5.5 7.583 6.25 10.25 4.167-1.5 6.333-2.417 6.333-2.417-1.75-6.916-10.75-16.166-16.083-20.166s-13.667-7.417-22-5.5-12.603 9.767-9.916 18.667c2.666 8.833 8.416 23.083 8.416 23.083l-7 .167 2.417 7h6.917z" fill="none" stroke="#febd15" stroke-width="1.5"/>
            <path d="M385.96 81.25l26-.125S403.21 57 401.835 53.5s-.88-7.03.625-7.25c5.125-.75 8.375 2.75 13 7.5-2.5 6.75 1.414 18.33 2.875 21 3.625 6.625 7.375 7.75 9 7.75s5.5-2.75 4.5-9.75-4.058-14.722-10.25-22.25c-6.375-7.75-14.875-13.125-19.625-15.625s-12.625-3.5-16.75-2.375-10.5 5.5-10.375 12.875S385.96 81.25 385.96 81.25" fill="#f09b20"/>
            <path d="M385.96 81.25l26-.125S403.21 57 401.835 53.5s-.88-7.03.625-7.25c5.125-.75 8.375 2.75 13 7.5-2.5 6.75 1.414 18.33 2.875 21 3.625 6.625 7.375 7.75 9 7.75s5.5-2.75 4.5-9.75-4.058-14.722-10.25-22.25c-6.375-7.75-14.875-13.125-19.625-15.625s-12.625-3.5-16.75-2.375-10.5 5.5-10.375 12.875S385.96 81.25 385.96 81.25z" fill="none" stroke="#febd15" stroke-width="1.5"/>
        </g>
        <g clip-path="url(#q)" transform="scale(.99998)">
            <path d="M230.77 261.25c-1.643-5.317-2.503-10.098-1.332-16.353 1.172-6.255 5.286-11.139 9.489-12.206 7.848-1.991 13.572 1.001 19.844 1.289.437.02 5.499-.23 5.499-.23l5.438 21.875c-5.688 2.437-30.372 5.812-38.938 5.625M270.65 255.5s-4.688-19.438-4.875-22c7.75-1.125 6-6 13.25-6.875s11.75 5.25 13.313 8.937c1.562 3.688 2.269 10.194 1.197 12.753-3.51 1.56-22.885 7.185-22.885 7.185" fill="#fff"/>
        </g>
        <g clip-path="url(#r)" transform="scale(.99998)">
            <path d="M282.54 243.93c0-3.107-2.406-5.626-5.375-5.626s-5.375 2.519-5.375 5.626 2.406 5.626 5.375 5.626 5.375-2.519 5.375-5.626" fill="#231f20"/>
            <path d="M281.51 243.88c0-1.076-.829-1.948-1.852-1.948-1.022 0-1.851.872-1.851 1.948s.829 1.948 1.851 1.948c1.023 0 1.852-.872 1.852-1.948" fill="#fff"/>
        </g>
        <g clip-path="url(#s)" transform="scale(.99998)">
            <path d="M253.67 252c0-3.958-3.06-7.166-6.834-7.166-3.773 0-6.833 3.208-6.833 7.166 0 3.959 3.06 7.167 6.833 7.167 3.774 0 6.834-3.208 6.834-7.167" fill="#231f20"/>
            <path d="M252.38 251.86a2.417 2.417 0 1 0-4.835.001 2.417 2.417 0 0 0 4.835-.001" fill="#fff"/>
        </g>
        <g clip-path="url(#t)" transform="scale(.99998)">
            <path d="M268.5 256.17c-14.348 3.831-37.762 4.958-37.762 4.958 1.045 3.489 2.806 8.042 4.928 11.375 4.666 7.334 11.442 10.522 15.666 10.25 9.089-.585 18.041-9.367 21.417-16.833 3.615 2.351 5.415 2.651 6.833 2.417 8.084-1.334 12.782-11.002 13.947-20.018 0 0-10.681 4.02-25.029 7.851" fill="#f5b059"/>
            <path d="M268.5 256.17c-14.348 3.831-37.762 4.958-37.762 4.958 1.045 3.489 3.053 7.889 5.407 11.063 4.749 6.405 10.765 8.992 14.989 8.72 9.089-.586 17.723-9.348 21.099-16.815 3.616 2.351 5.477 2.352 6.9 2.149 4.951-.708 13.231-8.91 14.396-17.926 0 0-10.681 4.02-25.029 7.851" fill="#f9e0b4"/>
        </g>
        <path d="M258.26 234.13c-.793-2.79 2.166-6.074 6.608-7.336s8.683-.024 9.476 2.766c.793 2.791-2.164 6.075-6.606 7.337-1.18.336-2.346.494-3.438.494-3.015 0-5.458-1.212-6.04-3.261" fill="url(#u)" transform="scale(.99998)"/>
        <g clip-path="url(#v)" transform="scale(.99998)">
            <path d="M274.35 229.56c-.793-2.79-5.034-4.029-9.477-2.767-4.441 1.262-7.4 4.546-6.607 7.336.793 2.791 5.036 4.03 9.478 2.768s7.399-4.546 6.606-7.337z" fill="none" stroke="#231f20" stroke-width=".25"/>
            <g clip-path="url(#w)" opacity=".62">
                <path d="M270.33 233.26c.881-.097 2.515-.94 2.729-1.807.216-.867-1.625-3.504-4.08-3.235.962 1.092 1.313 4.292 1.351 5.042" fill="#fff"/>
            </g>
        </g>
        <path transform="matrix(.75 0 0 -.75 208.14 248.95)" d="M17.198 2.77C9.236 2.77 2.77 9.236 2.77 17.198c0 7.962 6.466 14.426 14.428 14.426 7.962 0 14.428-6.464 14.428-14.426S25.16 2.77 17.198 2.77zm0 1c7.421 0 13.428 6.006 13.428 13.428 0 7.421-6.006 13.426-13.428 13.426-7.421 0-13.428-6.004-13.428-13.426C3.77 9.776 9.776 3.77 17.198 3.77z" color="#000" fill="#ffdb8f" filter="url(#x)" style="font-feature-settings:normal;font-variant-alternates:normal;font-variant-caps:normal;font-variant-ligatures:normal;font-variant-numeric:normal;font-variant-position:normal;isolation:auto;mix-blend-mode:normal;shape-padding:0;text-decoration-color:#000;text-decoration-line:none;text-decoration-style:solid;text-indent:0;text-orientation:mixed;text-transform:none;white-space:normal"/>
        <g transform="translate(241.11 -11.1) scale(.99998)" fill="url(#y)" filter="url(#z)">
            <path d="M41.985 234.58a7.834 7.834 0 0 1-.664-.034 7.834 7.834 0 0 1-.394-.047 7.834 7.834 0 0 1-.388-.06 7.834 7.834 0 0 1-.375-.083 7.834 7.834 0 0 1-.384-.098 7.834 7.834 0 0 1-.392-.13 7.834 7.834 0 0 1-.334-.122 7.834 7.834 0 0 1-.384-.172 7.834 7.834 0 0 1-.34-.165 7.834 7.834 0 0 1-.332-.19 7.834 7.834 0 0 1-.339-.207 7.834 7.834 0 0 1-.32-.23 7.834 7.834 0 0 1-.31-.235 7.834 7.834 0 0 1-.309-.272 7.834 7.834 0 0 1-.262-.243 7.834 7.834 0 0 1-.293-.315 7.834 7.834 0 0 1-.24-.274 7.834 7.834 0 0 1-.226-.296 7.834 7.834 0 0 1-.246-.346 7.834 7.834 0 0 1-.192-.313 7.834 7.834 0 0 1-.2-.349 7.834 7.834 0 0 1-.17-.353 7.834 7.834 0 0 1-.16-.353 7.834 7.834 0 0 1-.142-.39 7.834 7.834 0 0 1-.114-.345 7.834 7.834 0 0 1-.103-.405 7.834 7.834 0 0 1-.08-.359 7.834 7.834 0 0 1-.062-.41 7.834 7.834 0 0 1-.045-.36 7.834 7.834 0 0 1-.034-.678 7.834 7.834 0 0 1 .034-.679 7.834 7.834 0 0 1 .046-.377 7.834 7.834 0 0 1 .056-.375 7.834 7.834 0 0 1 .094-.415 7.834 7.834 0 0 1 .092-.357 7.834 7.834 0 0 1 .116-.355 7.834 7.834 0 0 1 .145-.394 7.834 7.834 0 0 1 .157-.352 7.834 7.834 0 0 1 .162-.338 7.834 7.834 0 0 1 .221-.384 7.834 7.834 0 0 1 .176-.287 7.834 7.834 0 0 1 .258-.36 7.834 7.834 0 0 1 .208-.273 7.834 7.834 0 0 1 .264-.301 7.834 7.834 0 0 1 .275-.296 7.834 7.834 0 0 1 .283-.261 7.834 7.834 0 0 1 .283-.25 7.834 7.834 0 0 1 .326-.248 7.834 7.834 0 0 1 .312-.224 7.834 7.834 0 0 1 .339-.207 7.834 7.834 0 0 1 .332-.19 7.834 7.834 0 0 1 .34-.166 7.834 7.834 0 0 1 .384-.171 7.834 7.834 0 0 1 .334-.122 7.834 7.834 0 0 1 .392-.13 7.834 7.834 0 0 1 .384-.098 7.834 7.834 0 0 1 .375-.084 7.834 7.834 0 0 1 .388-.06 7.834 7.834 0 0 1 .394-.047 7.834 7.834 0 0 1 .664-.034 7.834 7.834 0 0 1 .662.034 7.834 7.834 0 0 1 .39.047 7.834 7.834 0 0 1 .397.06 7.834 7.834 0 0 1 .35.08 7.834 7.834 0 0 1 .42.106 7.834 7.834 0 0 1 .33.11 7.834 7.834 0 0 1 .398.145 7.834 7.834 0 0 1 .327.147 7.834 7.834 0 0 1 .396.191 7.834 7.834 0 0 1 .534.307 40.658 40.658 0 0 1 3.509 5.294 7.834 7.834 0 0 1 .09.725 7.834 7.834 0 0 1 .03.589 7.834 7.834 0 0 1-.032.663 7.834 7.834 0 0 1-.049.396 7.834 7.834 0 0 1-.057.384 7.834 7.834 0 0 1-.092.41 7.834 7.834 0 0 1-.087.334 7.834 7.834 0 0 1-.134.408 7.834 7.834 0 0 1-.13.35 7.834 7.834 0 0 1-.152.343 7.834 7.834 0 0 1-.177.368 7.834 7.834 0 0 1-.192.333 7.834 7.834 0 0 1-.206.338 7.834 7.834 0 0 1-.225.313 7.834 7.834 0 0 1-.24.317 7.834 7.834 0 0 1-.247.281 7.834 7.834 0 0 1-.286.306 7.834 7.834 0 0 1-.264.245 7.834 7.834 0 0 1-.309.272 7.834 7.834 0 0 1-.309.235 7.834 7.834 0 0 1-.32.23 7.834 7.834 0 0 1-.339.206 7.834 7.834 0 0 1-.333.19 7.834 7.834 0 0 1-.34.166 7.834 7.834 0 0 1-.383.172 7.834 7.834 0 0 1-.334.121 7.834 7.834 0 0 1-.393.13 7.834 7.834 0 0 1-.388.1 7.834 7.834 0 0 1-.366.082 7.834 7.834 0 0 1-.41.062 7.834 7.834 0 0 1-.36.045 7.834 7.834 0 0 1-.679.034z"/>
        </g>
        <circle class="cls-1" transform="matrix(.75 0 0 -.75 208.14 248.95)" cx="17.198" cy="17.197" r="13.927" fill="url(#A)" filter="url(#B)"/>
    </g>
</svg>
