<svg version="1.1" viewBox="0 0 800 147.32" xmlns="http://www.w3.org/2000/svg">
 <g transform="matrix(.80038 0 0 .80038 -.36267 -.34389)" stroke-width="1.2494" fill="#fff">
  <path d="m0.45312 0.49219h60.906c5.5352 0.015624 11.086-0.11328 16.605 0.40625 8.3359 0.74609 16.711 2.5977 24.133 6.5664 6.3359 3.4219 12.133 8.2656 15.512 14.727 5.3203 9.9766 6.1133 21.691 5.2969 32.77-0.72266 9.832-4.6836 19.789-12.43 26.164-2.332 2.1094-5.1953 3.4531-7.7578 5.2266 9.0703 1.0508 18.215 4.1328 24.914 10.566l28.715-74.906 40.027-0.01563 38.418 101.96-0.0156-101.96 36.379 0.03125 67.465 86.152 0.0703-86.211c13.594-0.06641 27.191-0.07031 40.789 0.02344 8.8906 0.0625 17.895-0.45703 26.637 1.5547 8.0117 1.8086 15.816 4.7617 22.914 8.9297 6.7891 4.1836 13.031 9.3672 17.988 15.648 9.4922 11.887 15.117 26.922 15.359 42.164l26.086-68.297h39.992l38.508 102.21 17.402-102.21c11.949 0 23.902-0.0039 35.855 0.0078 9.4922 24.973 19 49.941 28.496 74.918 10.16-24.902 20.125-49.883 30.219-74.812 12.102 0 36.316 0.0039 36.316 0.0039l14.973 99.242 38.051-99.234 40.02-0.01563 38.934 103.3 28.613-39.285-58.465-85.676 58.395 0.011718 28.113 47.508 28.094-47.523 58.836 0.09375-58.883 85.598 68.047 98.348-57.492 0.0117-38.598-59.75-41.84 59.762-57.91-4e-3 17.336-23.801-8.125-22.746s-33.715-4e-3 -50.566 4e-3c-3.2188 8.125-6.4375 16.242-9.6524 24.363-17.688-4e-3 -35.371 8e-3 -53.055-4e-3 -3.5156-26.863-7.168-53.922-10.711-80.785-11.426 24.734-22.836 54.187-33.746 80.676l-14.711 4e-3 -32.18-80.902-11.953 80.902h-54.531l-8.7344-24.363h-50.562l-9.6562 24.363-38.586 0.0312 8.5586-22.25c-4.5938 4.8633-9.9297 9.0195-15.793 12.246-10.582 5.9102-22.465 9.8242-34.664 9.9531l-54.129 0.0352-67.43-86.246-0.14844 86.234h-60.926l-8.7383-24.367h-50.566l-9.6523 24.359-9.4492 8e-3c-4.9609 6.4844-11.598 11.668-19.051 14.996-11.512 5.0195-24.168 6.9297-36.652 7.1562-25.199 0.0508-50.402 8e-3 -75.598 0.0156m47.809-111.25c21.316 1.3672 30.672-4.3125 31.27-17.004 0.87109-18.477-14.109-19.465-31.266-18.941m327.25 94.223c25.605 1.3906 47.379-3.6055 48.742-36.684-0.0937-29.207-14.785-42.695-48.746-41.926m-214.54 57h30.34l-15.016-44.867m330.89 3.293c-4.7109 13.859-9.4258 27.715-14.145 41.574h30.34c-4.9492-14.938-11.184-26.656-16.195-41.574-0.7539 0.93359 0.40235-1.1055 0 0m265.7 41.68 30.336 4e-3 -14.859-44.832m-740.11 43.453 0.0039 39.078c17.887-0.0586 42.969 2.3672 44.105-18.137 0.05469-23.586-23.688-20.945-44.109-20.941z"/>
 </g>
</svg>
