<svg width="200mm" height="40.95mm" version="1.1" viewBox="0 0 200 40.95" xmlns="http://www.w3.org/2000/svg">
 <g transform="translate(350.92 40.046)">
  <g transform="matrix(.35277 0 0 .35277 -357.17 -46.296)">
   <path d="m583.08 69.752c-5.9988-24.062-29.459-42.459-62.759-49.206-0.66792-0.12614-15.692-2.9285-28.619-2.8286-14.616 0.10595-30.11 2.0211-43.614 5.3915-22.699 5.6544-43.298 15.309-59.798 27.585h-355.67c-8.2176 0-14.906 6.3737-14.906 14.213v55.012c0 6.7631 4.9684 12.441 11.605 13.877h531.15l0.45-0.46204c19.506-20.128 27.379-42.705 22.166-63.582z" fill="#fff"/>
   <path d="m32.625 56.031c-5.2724 2e-6 -9.5625 3.9849-9.5625 8.875v55c0 4.8947 4.2901 8.875 9.5625 8.875h76.688v-72.75zm81.875 0v72.75h236.62c-0.10487-0.38231-0.24702-0.73913-0.34375-1.125-3.6762-14.742-0.75526-30.632 8.4375-45.938 5.558-9.2562 13.207-17.902 22.375-25.688z" fill="#003d7f"/>
   <path d="m415.21 116.87 63.839-39.605c18.322-11.217 22.927-24.607 13.789-33.438-7.3814-7.3942-19.789-10.323-37.022-2.4711l-12.507 5.5045-5.209-7.155 13.659-7.2815c6.4821-3.2308 13.204-6.1714 20.212-8.1255-7.8063 0.88724-15.487 2.227-22.595 4.0039-19.313 4.8146-37.026 12.579-51.835 22.398-2.5841 1.7139-5.0591 3.5086-7.4622 5.3483-10.998 8.4154-20.015 18.032-26.266 28.435-8.4497 14.066-11.151 28.548-7.8282 41.883 0.20268 0.82382 0.48012 1.6267 0.7278 2.4364h58.498zm104.05-91.076c-0.0762-0.0117-6.126-1.1385-13.701-1.941 3.3027 0.83233 5.1342 1.6182 5.1342 1.6182 8.6294 3.037 15.351 8.2676 19.112 15.331 6.3181 12.171-2.408 24.909-16.793 34.534l-56.583 37.837h72.443l0.29055 15.628h28.669c17.6-18.54 24.738-39.005 20.061-57.75-5.4904-22.011-27.409-38.93-58.633-45.258z" fill="#ec701a"/>
   <path d="m83.027 92.355c5.6711-1.9616 9.7335-6.4857 9.7335-13.208 0-1.6806-0.85642-5.7689-3.9409-8.4068-2.0459-1.7352-4.9911-3.7896-14.515-4.0206-1.9662-0.04996-7.9448 0.16441-7.9448 0.16441v0.33945c1.6852 1.2979 3.5036 3.432 4.3731 5.8985 0.91205-0.02516 2.29-0.09992 3.6429-0.02516 3.8278 0.20126 5.495 0.9124 7.2184 2.2688 1.7302 1.3613 2.6543 3.6978 2.6543 5.8153-0.0202 2.8906-1.3861 5.8808-5.5626 7.5827-3.381 1.378-7.4696 1.6852-7.4696 1.6852v1.0502s2.4498 1.1672 4.8901 4.4029c2.109 2.7808 14.335 20.776 14.335 20.776h10.1s-16.318-22.734-17.515-24.322zm-32.314 17.382h-5.6459v-36.687c0.06768 0 2.5296-0.0333 4.067-0.0333 6.306 0 9.8143 3.269 9.9106 7.7517 0.06803 2.7142-0.74303 5.332-3.5167 7.2517-2.2638 1.5672-5.428 2.0378-5.428 2.0378v1.1799s4.3778 0.65516 6.6012 1.6937c4.1336 1.9233 5.3688 4.928 5.3936 8.809 0.04642 6.131-5.8773 7.9962-11.382 7.9962zm10.114-19.918c3.8774-2.29 6.3641-5.6594 6.3641-10.693 0-5.3819-3.1844-12.482-16.558-12.482-6.469 0-13.657 0.23563-13.657 0.23563v49.799h11.407c14.511 0 22.179-5.3486 22.179-15.461 0-6.025-3.7814-10.009-9.7345-11.398zm89.74 3.8647c-0.74799 0-2.2224 0-3.0965 0.06767v10.23c1.0123 0.20126 2.4201 0.26433 4.1053 0.26433 4.8565 0 7.0753-2.2854 7.0753-5.5166 0-3.6964-3.2311-5.0457-8.084-5.0457zm1.0804-14.344c-1.3447 0-2.8988 0.06804-4.1768 0.06804v9.562c1.1434 0.06308 2.2854 0.06308 2.7641 0.06308 4.7782 0 7.8066-1.6806 7.8066-5.1807 0-2.6295-1.479-4.5124-6.3939-4.5124zm-0.0716 30.161c-2.4247 0-6.6001-0.0631-11.385-0.12968v-35.018c3.3062 0 8.2212-0.13925 12.864-0.13925 9.0237 0 12.662 3.3073 12.662 8.5592 0 3.5702-2.0877 6.4655-5.721 7.8768v0.06803c4.2466 1.012 6.3308 4.1039 6.3308 7.8768 0 4.8529-3.1677 10.906-14.751 10.906zm36.56-22.011c-0.67288-1.8234-1.3493-3.9111-1.8149-5.5283h-0.068c-0.39897 1.6806-1.08 3.6418-1.7518 5.4567l-3.7729 9.8993h11.046zm7.9483 21.881-2.4952-6.8063h-14.613l-2.5544 6.8063h-7.2765l13.268-35.018h8.5532l13.202 35.018zm24.783-11.718v11.718h-7.2765v-11.651l-12.259-23.367h8.0128l5.197 10.037c1.0042 2.0165 1.9495 4.1088 2.8272 6.4609h0.067c0.94181-2.4201 2.0842-4.7137 3.1642-6.7968l5.1211-9.7012h7.5409zm16.978 11.718v-35.018h20.608v5.726h-13.339v8.5582h12.726v5.5127h-12.726v9.4273h13.339v5.794zm39.66-29.632c-1.2136 0-2.1589 0-3.1046 0.13819v10.096c1.0219 0.06307 2.2355 0.13465 3.3739 0.13465 3.836 0 6.3273-2.2188 6.3273-5.5166 0-3.1677-2.4913-4.8518-6.5966-4.8518zm7.278 29.632-10.037-14.415h-0.34547v14.415h-7.2719v-35.018c2.5668-0.13925 7.1422-0.20587 11.453-0.20587 8.3519 0 13.2 3.2393 13.2 9.7048 0 5.7189-3.9706 9.1548-9.5669 10.034 0.80646 0.93614 1.7518 2.2854 2.8322 3.768l8.6843 11.718zm37.908 0-12.058-18.986c-1.3482-2.0927-2.6213-4.584-3.5632-6.6763h-0.067c0.13003 1.9577 0.19311 4.1134 0.19311 7.3442l0.0712 18.318h-7.0753v-35.018h9.7062l11.781 18.654c1.3479 2.1554 2.6926 4.4454 3.8431 6.869h0.0631c-0.13819-2.2224-0.20126-5.5913-0.20126-10.1l-0.0631-15.423h7.0622v35.018z" fill="#fff"/>
  </g>
 </g>
</svg>
