<svg version="1.1" viewBox="0 0 627.28 244.18" xmlns="http://www.w3.org/2000/svg">
 <path d="m134.77 124.08 24.511-42.383s25.532-9.702 55.149 21.191c0 0 14.809-22.213 50.043-19.149l21.447 41.872s-40.851-5.872-75.574 25.532c0 0-27.83-27.064-75.574-27.064z" fill="#cd9934"/>
 <path d="m313.32 167.23 2.213-25.021-39.319-59.234 23.745 55.66s-57.426-12.766-88.064 25.532c0 0-26.064-35.234-91.17-25.532l22.979-54.638-45.447 73.277s80.426-7.915 103.66 23.234l3.128 3.894h13.021s34.638-47.936 95.255-17.17z" fill="#065a38"/>
 <path d="M352.301,137.106s-12-54.383-19.915-70.723l7.775-24.659c.376-1.191,2.047-1.23,2.468-.054,2.559,7.152,8.115,22.951,9.671,29.564,2.043,8.681,7.66,44.681,9.191,54.128s7.149,41.617,10.723,53.617,9.191,25.277,21.447,23.489,18.894-5.617,25.532-16.851,6.638-17.872,10.213-20.936,5.362-2.298,6.638-2.298,5.362,5.617,10.468,7.915,15.83,4.851,25.787-2.553,18.638-14.553,17.872-21.191-2.553-8.872-3.83-12.862c-1.168-3.652-3.407-15.298.726-23.705.446-.908,1.769-.831,2.091.129,1.582,4.711,5.297,15.116,8.417,18.821,14.879,22.891,37.503,7.679,41.106-13.233,1.021-4.895,1.021-9.235,2.043-9.235s2.553.511,2.298,3.574,1.277,16.34-1.277,26.043-11.745,24.511-22.468,24.766-20.681-6.128-22.723-9.702c0,0,0,25.787-20.426,36.511s-34.277,2.362-35.745,1.532-2.303-2.749-6.128-2.553c-2.489.128-4.596,1.021-5.872,5.106s-8.17,32.17-31.149,32.681-29.872-18.383-31.149-21.447-7.66-19.404-8.936-29.106-2.043-25.277-4.851-36.766Z" fill="#cd9934"/>
 <path d="M376.556,137.872v23.148c0,.47.381.852.852.852h0c.398,0,.742-.27.83-.658,1.276-5.638,10.285-45.957,10.451-61.115.012-1.102-1.35-1.623-2.063-.783-9.742,11.48-54.545,62.981-92.538,85.087-24.745,16.865-68.242,30.157-101.107,32.87-82.881,4.015-143.887-62.138-66.382-129.19,12.255-9.957,19.66-14.043,19.66-14.043l3.319-1.787h0c.135-.943-.597-1.787-1.55-1.787h-1.769s-55.149,24-63.319,76.085c-8.666,113.604,126.306,105.186,190.723,73.809,20.936-11.489,71.745-44.447,102.894-82.489Z" fill="#cd9934"/>
 <path d="m416.04 107.68s9.191 10.532 18.957 13.787l-8.043 16.468s-12.638-3.83-18.957-13.021l8.043-17.234z" fill="#cd9934"/>
 <path d="M454.307,212.5c1.593,2.535,6.27,8.853,15.459,13.083.458.211.636.771.367,1.198l-8.539,13.54c-.181.287-.512.433-.847.377-1.749-.295-7.46-2.188-16.79-14.14-.224-.286-.239-.693-.034-.992l8.995-13.095c.339-.494,1.069-.48,1.388.028Z" fill="#cd9934"/>
 <path d="M481.307,210.525c1.593,2.535,6.27,8.853,15.459,13.083.458.211.636.771.367,1.198l-8.539,13.54c-.181.287-.512.433-.847.377-1.749-.295-7.46-2.188-16.79-14.14-.224-.286-.239-.693-.034-.992l8.995-13.095c.339-.494,1.069-.48,1.388.028Z" fill="#cd9934"/>
 <path d="M526.47,173.774c1.87,2.338,7.233,8.084,16.843,11.245.479.158.719.694.5,1.149l-6.948,14.422c-.147.306-.459.489-.798.471-1.771-.094-7.66-1.327-18.285-12.143-.255-.259-.316-.661-.146-.982l7.452-14.031c.281-.529,1.008-.598,1.383-.13Z" fill="#cd9934"/>
 <path d="M416.245,109.321c1.87,2.338,7.233,8.084,16.843,11.245.479.158.719.694.5,1.149l-6.948,14.422c-.147.306-.459.489-.798.471-1.771-.094-7.66-1.327-18.285-12.143-.255-.259-.316-.661-.146-.982l7.452-14.031c.281-.529,1.008-.598,1.383-.13Z" fill="#cd9934"/>
 <path d="m36.025 153.17c2.117-69.036 138.88-120.86 305.48-115.75 66.177 2.029 127.09 12.743 176.37 29.24-53.908-24.343-128.97-40.684-212.37-43.24-166.59-5.108-303.36 46.716-305.48 115.75-1.276 41.612 46.675 79.974 121.45 105.01-53.777-24.284-86.503-56.532-85.446-91.008z" fill="#cd9934"/>
 <path d="m329.7 0c-75.579 0-144.56 12.554-197.05 33.225 45.798-12.81 99.975-20.225 158.05-20.225 164.35 0 297.57 59.327 297.57 132.51 0 34.871-30.26 66.592-79.713 90.25-1.428 0.683-0.566 2.843 0.934 2.336 71.562-24.199 117.78-62.487 117.78-105.59 0-73.183-133.23-132.51-297.58-132.51z" fill="#006d41"/>
</svg>
