<svg version="1.1" viewBox="0 0 800 350.13" xml:space="preserve" xmlns="http://www.w3.org/2000/svg">
 <g fill="#fff" stroke-width="2">
  <path d="m146.63 0v139.89h139.58v-139.89zm174.2 0v139.89h139.67v-139.89zm174.27 0v139.89h139.6v-139.89zm76.263 29.953c4.3426 0 8.4275 0.46594 12.255 1.3961 3.901 0.85859 7.5074 2.1456 10.82 3.8627v15.11c-3.0178-2.0168-6.2945-3.5288-9.8275-4.5373-3.533-1.0804-7.2255-1.6235-11.149-1.6235-5.4041 0-10.033 1.0106-13.882 3.0275-3.7755 2.0168-6.6998 4.9315-8.7726 8.749-1.9988 3.8176-2.9961 8.463-2.9961 13.937 0 5.4743 0.96152 10.157 2.8863 14.047 1.9988 3.8176 4.8476 6.7361 8.549 8.7529 3.7755 2.0168 8.3287 3.0235 13.659 3.0235 8.1432 0 15.571-2.1228 22.416-6.3726v14.788c-3.2386 1.7887-6.9937 3.1826-11.263 4.1843-4.269 1.0732-8.756 1.6118-13.467 1.6118-6.2564 0-11.889-0.89755-16.894-2.6863-5.0051-1.8603-9.2386-4.5068-12.698-7.9412-3.4594-3.4344-6.1089-7.62-7.949-12.557-1.8401-5.0084-2.7569-10.622-2.7569-16.847 0-6.0817 0.9569-11.558 2.8706-16.424 1.9137-4.9369 4.6718-9.1569 8.2784-12.663 3.6066-3.5059 7.9126-6.1907 12.918-8.051 5.0787-1.8603 10.748-2.7882 17.004-2.7882zm-384.69 0.86275h29.314c8.638 0 15.327 1.7497 20.071 5.251 4.7438 3.4283 7.1176 8.3905 7.1176 14.882 0 3.7201-0.84974 6.9654-2.549 9.7373-1.6993 2.6989-4.6134 4.8502-7.9412 6.4549 4.6022 1.5318 8.5064 3.9741 10.914 7.3294 2.4781 3.2824 3.7176 7.294 3.7176 12.035 0 4.6683-1.2045 8.68-3.6118 12.035-2.3365 3.3554-5.6965 5.9451-10.086 7.7686-4.3898 1.8236-9.6676 2.7765-15.827 2.7765h-31.118zm174.3 0h29.314c8.638 0 15.327 1.7497 20.071 5.251 4.7438 3.4283 7.1177 8.3905 7.1177 14.882 0 3.7201-0.84974 6.9654-2.549 9.7373-1.6993 2.6989-4.6134 4.8502-7.9412 6.4549 4.6022 1.5318 8.5064 3.9741 10.914 7.3294 2.4781 3.2824 3.7176 7.294 3.7176 12.035 0 4.6683-1.2044 8.68-3.6118 12.035-2.3365 3.3554-5.7004 5.9451-10.09 7.7686-4.3898 1.8236-9.6636 2.7765-15.824 2.7765h-31.118zm-158.48 12.62v19.529h12.063c4.1275 0 7.2612-0.87983 9.3961-2.6353 2.2061-1.8286 3.3059-4.3503 3.3059-7.5686 0-6.2173-4.2335-9.3255-12.702-9.3255zm174.2 0v19.529h12.161c4.1275 0 7.2612-0.87983 9.3961-2.6353 2.2061-1.8286 3.3059-4.3503 3.3059-7.5686 0-6.2173-4.2335-9.3255-12.702-9.3255zm-174.2 31.816v21.216h13.878c4.768 0 8.4342-0.91905 10.996-2.6745 2.5619-1.8286 3.8432-4.4236 3.8432-7.7882 0-7.1681-4.8781-10.753-14.627-10.753zm174.2 0v21.216h13.976c4.768 0 8.4342-0.91905 10.996-2.6745 2.5619-1.8286 3.8431-4.4236 3.8431-7.7882 0-7.1681-4.8781-10.753-14.627-10.753z"/>
  <path d="m762.98 348.77c-3.7974-11.558-7.5948-22.897-11.392-34.016h-63.534c-3.7974 11.266-7.5948 22.604-11.392 34.016h-36.25c9.9317-27.506 20.111-54.353 30.334-80.542 10.37-26.189 20.813-51.646 31.329-76.372h36.368c6.615 15.939 21.324 51.867 31.548 78.203 10.37 26.189 20.375 52.669 30.014 78.711zm-65.286-62.107h44.035c-3.5053-10.241-7.1567-20.41-10.954-30.505-3.6514-10.241-7.3028-20.263-10.954-30.066-7.5948 20.044-14.971 40.234-22.127 60.571z"/>
  <path d="m417.68 350.13c-3.8123-11.604-7.6246-22.987-11.437-34.15h-63.783c-3.8123 11.31-7.6246 22.693-11.437 34.15h-36.392c9.9707-27.613 20.19-54.566 30.453-80.857 10.411-26.292 20.894-51.849 31.452-76.671h36.51c6.641 16.002 21.408 52.071 31.672 78.509 10.411 26.292 20.454 52.875 30.132 79.02zm-65.542-62.351h44.208c-3.5191-10.282-7.1847-20.49-10.997-30.625-3.6657-10.282-7.3314-20.343-10.997-30.184-7.6246 20.123-15.029 40.392-22.214 60.808z"/>
  <path d="m191.14 292.85v57.283h-33.431v-157.53h57.405c20.674 0 36.51 4.333 47.507 12.999 11.144 8.666 16.715 21.077 16.715 37.234 0 10.429-2.4927 19.315-7.478 26.659-4.8387 7.344-11.804 12.999-20.894 16.965 6.5982 10.429 13.123 20.729 19.575 31.305 6.4516 10.428 12.903 21.352 19.355 32.368h-38.93c-10.557-19.388-21.481-38.483-32.771-57.283h-3.2991zm0-26.659h21.994c10.411 0 18.328-1.836 23.754-5.508 5.4252-3.8189 8.1378-9.7675 8.1378-17.846s-2.7126-14.027-8.1378-17.846c-5.2786-3.8189-13.123-5.7283-23.534-5.7283h-22.214z"/>
  <path d="m0 192.6h60.044c16.569 0 30.718 3.0845 42.449 9.2534 11.877 6.169 20.894 15.129 27.053 26.879 6.1584 11.604 9.2375 25.704 9.2375 42.301 0 16.597-3.1525 30.845-9.4575 42.742-6.1583 11.75-14.699 20.38-26.429 26.696-6.2124 3.2671-13.237 5.7823-20.955 7.4256-6.8543 1.4595-12.331 2.2312-22.118 2.2312h-59.824zm58.064 128.45c5.8915 0 11.025-0.68768 15.803-2.063 7.1149-2.0476 13.199-5.7294 17.848-10.826 7.9179-8.6659 11.877-20.967 11.877-37.124 0-16.01-3.8856-28.201-11.657-36.573-7.6246-8.519-18.842-12.779-33.651-12.779h-24.413v99.364z"/>
  <path d="m533.26 319.58c-6.4264-12.875-12.707-25.75-18.841-38.625-6.1343-13.021-12.054-25.969-18.042-38.844v106.66h-32.447v-156.91h40.631c6.8646 16.094 13.875 32.187 21.032 48.281 7.1567 15.947 14.459 31.749 21.908 47.403 7.3027-15.655 14.532-31.383 21.689-47.184 7.1567-15.947 14.195-32.114 20.913-48.501h39.353v156.91h-32.265v-107.1c-5.9883 13.168-11.981 26.262-18.261 39.283-6.1343 12.875-12.342 25.75-18.622 38.625z"/>
 </g>
</svg>
