<svg version="1.1" viewBox="0 0 800 387.04" xmlns="http://www.w3.org/2000/svg">
 <path d="m283.89 0v154.85h-154.79v-154.85zm-42.858 95.904c0-5.286-1.3529-9.7704-4.0646-13.447-2.7697-3.7467-6.7066-6.4536-11.799-8.1324 3.6756-1.8007 6.4801-4.223 8.4195-7.261 1.8639-3.0264 2.7988-6.6104 2.7988-10.74 0-7.2262-2.642-12.774-7.9318-16.642-5.284-3.8745-12.74-5.8088-22.344-5.8088h-32.703v87.097h34.729c6.8401 0 12.705-0.99912 17.611-2.9974 4.9008-2.0679 8.675-4.9665 11.317-8.7132 2.642-3.7409 3.9659-8.1904 3.9659-13.354zm-36.57-26.227h-13.442v-21.673h13.442c9.3486 0 14.029 3.4504 14.029 10.351 0 3.5492-1.1904 6.3258-3.5768 8.324-2.3865 1.9982-5.8705 2.9973-10.452 2.9973zm18.477 25.553c0 3.7409-1.4516 6.6104-4.3549 8.6145-2.8336 1.9982-6.8982 2.9973-12.182 2.9973h-15.387v-23.52h15.678c10.829 0 16.247 3.9732 16.247 11.908zm254.43-95.23v154.85h-154.78v-154.85zm-42.852 95.904c0-5.286-1.3587-9.7704-4.0646-13.447-2.7755-3.7467-6.7066-6.4536-11.805-8.1324 3.6756-1.8007 6.4859-4.223 8.4195-7.261 1.8697-3.0264 2.8046-6.6104 2.8046-10.74 0-7.2262-2.642-12.774-7.9318-16.642-5.2898-3.8745-12.74-5.8088-22.35-5.8088h-32.697v87.097h34.729c6.8343 0 12.705-0.99912 17.606-2.9974 4.9008-2.0679 8.675-4.9665 11.323-8.7132 2.642-3.7409 3.9601-8.1904 3.9601-13.354zm-36.57-26.227h-13.448v-21.673h13.454c9.3486 0 14.029 3.4504 14.029 10.351 0 3.5492-1.1962 6.3258-3.5827 8.324-2.3807 1.9982-5.8646 2.9973-10.452 2.9973zm18.477 25.553c0 3.7409-1.4517 6.6104-4.3549 8.6145-2.8336 1.9982-6.8982 2.9973-12.188 2.9973h-15.382v-23.52h15.678c10.829 0 16.247 3.9732 16.247 11.908zm99.641-95.23h154.79v154.85h-154.79v-154.85zm111.16 98.808a46.54 46.558 0 0 1-24.957 7.0635c-5.8704 0-10.87-1.0921-14.998-3.2878a22.042 22.05 0 0 1-9.4763-9.7762c-2.1949-4.2579-3.2923-9.4161-3.2923-15.48 0-6.0005 1.1323-11.13 3.3852-15.393a23.313 23.322 0 0 1 9.6737-9.6717c4.2562-2.1957 9.3834-3.2936 15.387-3.2936 4.3201 0 8.4428 0.58088 12.38 1.7426 3.931 1.1618 7.5776 2.8405 10.934 5.0304v-16.933a48.27 48.289 0 0 0-11.996-4.3566 58.989 59.012 0 0 0-13.738-1.5451c-6.9679 0-13.256 1.0282-18.866 3.0961-5.6091 2.126-10.417 5.1292-14.412 8.9979a38.741 38.756 0 0 0-9.1918 14.034c-2.131 5.4835-3.1936 11.577-3.1936 18.292 0 6.9706 1.0336 13.192 3.0949 18.675 2.0033 5.5474 4.9356 10.224 8.8028 14.034 3.873 3.8687 8.5821 6.8079 14.127 8.8062 5.6092 2.0621 11.898 3.0961 18.86 3.0961 5.2259 0 10.225-0.58088 14.998-1.7426 4.7033-1.1618 8.8666-2.7418 12.484-4.74v-16.648z" fill="#2e6b46" stroke-width=".8"/>
 <path d="m0 212.9h119.86v31.194h-82.429v37.729h73.135v31.2h-73.129v42.806h87.059v31.2h-124.5z" fill="#2e6b46" stroke-width=".8"/>
 <path d="m250.46 212.9c11.994 28.924 23.747 57.9 35.259 86.918 11.412 29.118 22.494 58.194 33.235 87.212h-41.218a5699.8 5699.8 0 0 0-12.624-37.729h-70.671a3450.9 3450.9 0 0 0-12.624 37.729h-40.194a3621.7 3621.7 0 0 1 33.665-89.388 3649.2 3649.2 0 0 1 34.824-84.741zm-45.424 105.21h49.047a4759 4759 0 0 0-12.041-33.959 5420 5420 0 0 0-12.335-33.235 3685.7 3685.7 0 0 0-24.671 67.194zm131.04 68.929v-174.14h63.559c22.929 0 40.488 4.7882 52.676 14.365 12.288 9.5765 18.429 23.312 18.429 41.212 0 11.512-2.7059 21.329-8.1235 29.459-5.4176 8.1235-13.159 14.365-23.218 18.718a4189.4 4189.4 0 0 1 21.618 34.682 1932.8 1932.8 0 0 1 21.476 35.694h-43.094a1679 1679 0 0 0-36.282-63.265h-30.035v63.265h-37zm37-92.729h24.382c11.512 0 20.271-2.0824 26.265-6.2353 6-4.1647 9-10.694 9-19.594 0-9.0941-2.9529-15.724-8.8529-19.882s-14.606-6.2353-26.118-6.2353h-24.671v51.941z" fill="#2e6b46" stroke-width=".8"/>
 <path d="m484.38 212.9h147.14v32.647h-54.853v141.49h-37.435v-141.49h-54.853zm164.85 0h37.441v66.747h75.747v-66.747h37.582v174.13h-37.582v-74.729h-75.747v74.729h-37.441z" fill="#2e6b46" stroke-width=".8"/>
</svg>
