<svg width="600" height="308.3" version="1.1" viewBox="0 0 158.75 81.570599" xmlns="http://www.w3.org/2000/svg">
 <g transform="translate(-150.09 -22.003)">
  <path d="m150.09 60.594a7.4979 7.4979 0 0 1 1.2173 -0.1905q13.476-0.01714 26.951 0c0.36194 0 0.72388 0.05524 1.1696 0.09144v7.717h-1.6821c-5.8654 0-11.731 0.04191-17.594-0.03239-1.3335-0.01714-1.6421 0.421-1.6059 1.663 0.0819 2.8689 0.0267 5.7416 0.0267 8.7495h16.295v7.5189h-16.276v16.676h-8.5018q0-21.101 0-42.193z"/>
  <path d="m202.83 60.386c1.3925 0 2.6841-0.01524 3.9756 0 4.6043 0.06286 9.2181-0.03619 13.807 0.24955 6.4216 0.39814 11.43 4.1909 12.954 9.5572 1.6649 5.8349 0.2705 13.043-6.7474 16.223a5.7435 5.7435 0 0 0 -0.57149 0.35813l9.6334 15.96c-3.1318 0-5.9949 0.04-8.8543-0.0457-0.39432-0.0114-0.8858-0.57149-1.143-0.99249-2.4136-4.0804-4.8138-8.1704-7.1474-12.297-0.50672-0.89533-1.0801-1.2192-2.0955-1.1735-1.7602 0.08191-3.528 0.02286-5.511 0.02286v14.413h-8.2999zm8.3818 20.383h1.4573c2.465-0.02095 4.9434 0.11049 7.3912-0.10668 3.1356-0.27812 5.2767-2.6841 5.4501-5.7454 0.17335-3.0613-1.5678-5.8349-4.5719-6.2978-3.1718-0.49148-6.435-0.38099-9.7363-0.53529v12.685z"/>
  <path d="m237.96 90.886 7.9361-2.1355c0.13144 0.29908 0.2305 0.49529 0.30669 0.70103 1.905 5.1053 6.8731 7.757 12.104 6.2635a7.1836 7.1836 0 0 0 3.2994 -2.1336c1.6344-1.905 1.0915-4.7795-1.1868-6.1492-1.7716-1.0649-3.7718-1.7602-5.7016-2.545-3.0956-1.2554-6.2864-2.286-9.3038-3.7109-2.7336-1.282-4.7891-3.4118-5.5872-6.4445-0.95248-3.6194-0.22479-6.9245 2.2059-9.7934 6.715-7.9265 23.241-7.6198 28.296 4.3814 0.21145 0.501 0.34861 1.0344 0.57149 1.7145l-7.9285 2.1926c-2.364-5.3148-6.5969-7.4865-11.43-5.9301a6.6674 6.6674 0 0 0 -1.8592 0.92391c-2.1431 1.564-2.2555 4.4081-0.061 5.8749 1.5583 1.042 3.3699 1.7411 5.1262 2.446 2.4974 1.0039 5.0844 1.7888 7.5646 2.8327a24.13 24.13 0 0 1 4.2442 2.385c7.0769 4.8634 5.7682 14.125 0.27241 18.25-4.2633 3.1984-9.1324 3.989-14.287 3.3699-6.8579-0.82294-11.514-4.5719-14.097-10.936-0.18669-0.47434-0.30098-0.96582-0.48577-1.5564z"/>
  <path d="m295.64 102.66h-8.3456v-34.394h-13.129v-7.7741h34.67v7.6579h-13.201v34.51z"/>
  <path d="m193.8 102.66h-8.1818v-42.187h8.1818z"/>
  <g>
   <path d="m186.29 22.003v29.58h31.416v-29.58zm8.2475 4.1489h6.686c2.4242 0 4.1988 0.70012 5.3485 1.7498 1.2122 1.0497 1.7368 2.4743 1.7368 3.8365 0 1.1497-0.30005 2.1244-0.87491 2.9242-0.46238 0.53734-1.087 1.0495-1.8618 1.4244 2.8988 0.77449 4.6737 2.8494 4.674 5.5108v7.62e-4c-1.9e-4 1.3369-0.57541 2.8616-1.8123 3.9736-1.2869 1.1247-3.2488 1.8618-6.0481 1.8618h-7.8482zm3.774 3.317v5.5238h1.7872c1.5246 0 2.6117-0.24972 3.274-0.7621 0.71233-0.48735 0.9999-1.1747 0.9999-2.1995 0-0.72479-0.20021-1.3125-0.71259-1.7498-0.49985-0.44987-1.3616-0.81242-2.7238-0.81242zm2e-3 8.8562v5.8103h3.6238c1.812 0 2.9238-0.46175 3.5362-0.99909 0.66233-0.56235 0.84976-1.2372 0.84976-1.9495 0-0.79975-0.32429-1.4876-1.0616-2.025-0.72478-0.53735-1.8499-0.83677-3.4745-0.83677z"/>
   <path d="m222.48 22.003v29.58h31.416v-29.58zm17.133 3.899c2.2996 0 4.6234 0.48747 7.6226 1.6622l0.21263 0.07467v3.9988l-0.49994-0.26215c-2.6491-1.4621-4.9363-2.124-7.3856-2.124-4.8986 0.02493-8.422 3.2237-8.422 7.5853 0.0125 4.4238 3.4237 7.5228 8.5348 7.5228 2.4118 0 5.0491-0.84952 7.4984-2.2741l0.51132-0.33682v4.0231l-0.22482 0.12499c-2.1621 1.0747-4.5491 1.8367-8.0357 1.8367h-0.0373c-4.1986 0-7.2355-1.524-9.2474-3.636-1.987-2.0993-2.8869-4.7863-2.8869-7.0106 0-3.1993 1.2872-6.0737 3.4867-8.0357 2.187-1.9995 5.2743-3.149 8.8733-3.149z"/>
   <path d="m150.09 22.003v29.58h31.404v-29.58zm8.2102 4.1489h6.6738c2.4495 0 4.1866 0.70012 5.3988 1.7498 1.1622 1.0497 1.7368 2.4743 1.7368 3.8365 0 1.1497-0.28743 2.1244-0.91224 2.9242-0.4374 0.53734-1.0497 1.0495-1.8245 1.4244 2.8364 0.77449 4.6355 2.8494 4.6359 5.5108v7.62e-4c-1.9e-4 1.3369-0.52543 2.8616-1.8123 3.9736-1.2495 1.1247-3.2366 1.8618-6.0359 1.8618h-7.8604zm3.8162 3.317v5.5238h1.7368c1.5496 0 2.6495-0.24972 3.3243-0.7621 0.66233-0.48735 1.0121-1.1747 1.0121-2.1995 0-0.72479-0.23708-1.3125-0.73694-1.7498-0.49985-0.44987-1.3749-0.81242-2.7871-0.81242zm-7.6e-4 8.8652v5.7981h3.649c1.762 0 2.8498-0.46175 3.4996-0.99909 0.59984-0.56235 0.82459-1.2372 0.88709-1.9495-0.0625-0.79979-0.38743-1.4876-1.0997-2.025-0.71232-0.53734-1.8496-0.82459-3.4867-0.82459z"/>
  </g>
 </g>
</svg>
