<svg width="200mm" height="67.929mm" version="1.1" viewBox="0 0 200 67.929" xmlns="http://www.w3.org/2000/svg" xmlns:xlink="http://www.w3.org/1999/xlink">
 <defs>
  <linearGradient id="linearGradient3542">
   <stop stop-color="#176d7b" offset="0"/>
   <stop stop-color="#60a9bb" offset="1"/>
  </linearGradient>
  <radialGradient id="radialGradient9914-5" cx="686.14" cy="1061" r="21.994" gradientTransform="matrix(.25253 0 0 .25215 136.82 -170.07)" gradientUnits="userSpaceOnUse">
   <stop stop-color="#f58220" offset="0"/>
   <stop stop-color="#f58220" offset=".015873"/>
   <stop stop-color="#f58220" offset=".031746"/>
   <stop stop-color="#f58220" offset=".047619"/>
   <stop stop-color="#f58220" offset=".063492"/>
   <stop stop-color="#f58320" offset=".079365"/>
   <stop stop-color="#f58320" offset=".095238"/>
   <stop stop-color="#f58320" offset=".11111"/>
   <stop stop-color="#f58320" offset=".12698"/>
   <stop stop-color="#f58320" offset=".14286"/>
   <stop stop-color="#f58320" offset=".15873"/>
   <stop stop-color="#f58320" offset=".1746"/>
   <stop stop-color="#f58420" offset=".19048"/>
   <stop stop-color="#f58420" offset=".20635"/>
   <stop stop-color="#f68520" offset=".22222"/>
   <stop stop-color="#f68520" offset=".2381"/>
   <stop stop-color="#f68621" offset=".25397"/>
   <stop stop-color="#f68620" offset=".26984"/>
   <stop stop-color="#f68620" offset=".28571"/>
   <stop stop-color="#f68720" offset=".30159"/>
   <stop stop-color="#f68821" offset=".31746"/>
   <stop stop-color="#f68821" offset=".33333"/>
   <stop stop-color="#f68921" offset=".34921"/>
   <stop stop-color="#f68921" offset=".36508"/>
   <stop stop-color="#f68a21" offset=".38095"/>
   <stop stop-color="#f68a21" offset=".39682"/>
   <stop stop-color="#f68b21" offset=".4127"/>
   <stop stop-color="#f68c22" offset=".42857"/>
   <stop stop-color="#f78d22" offset=".44444"/>
   <stop stop-color="#f78d22" offset=".46032"/>
   <stop stop-color="#f78f23" offset=".47619"/>
   <stop stop-color="#f78f22" offset=".49206"/>
   <stop stop-color="#f79023" offset=".50794"/>
   <stop stop-color="#f79123" offset=".52381"/>
   <stop stop-color="#f79224" offset=".53968"/>
   <stop stop-color="#f79324" offset=".55556"/>
   <stop stop-color="#f79324" offset=".57143"/>
   <stop stop-color="#f89525" offset=".5873"/>
   <stop stop-color="#f89624" offset=".60317"/>
   <stop stop-color="#f89725" offset=".61905"/>
   <stop stop-color="#f89825" offset=".63492"/>
   <stop stop-color="#f89926" offset=".65079"/>
   <stop stop-color="#f89a26" offset=".66667"/>
   <stop stop-color="#f99b27" offset=".68254"/>
   <stop stop-color="#f99d28" offset=".69841"/>
   <stop stop-color="#f99d28" offset=".71429"/>
   <stop stop-color="#f99f29" offset=".73016"/>
   <stop stop-color="#f9a028" offset=".74603"/>
   <stop stop-color="#faa229" offset=".76191"/>
   <stop stop-color="#faa32a" offset=".77778"/>
   <stop stop-color="#faa42a" offset=".79365"/>
   <stop stop-color="#faa52b" offset=".80952"/>
   <stop stop-color="#faa72b" offset=".8254"/>
   <stop stop-color="#faa82c" offset=".84127"/>
   <stop stop-color="#fbaa2d" offset=".85714"/>
   <stop stop-color="#fbab2d" offset=".87302"/>
   <stop stop-color="#fbad2e" offset=".88889"/>
   <stop stop-color="#fbaf2f" offset=".90476"/>
   <stop stop-color="#fcb030" offset=".92063"/>
   <stop stop-color="#fcb230" offset=".93651"/>
   <stop stop-color="#fcb331" offset=".95238"/>
   <stop stop-color="#fdb632" offset=".96825"/>
   <stop stop-color="#fdb733" offset=".98413"/>
   <stop stop-color="#fdb934" offset="1"/>
  </radialGradient>
  <linearGradient id="linearGradient3544" x1="24.061" x2="816.03" y1="1181.3" y2="912.31" gradientUnits="userSpaceOnUse" xlink:href="#linearGradient3542"/>
 </defs>
 <g transform="translate(-142.89 -59.911)">
  <path d="m309.13 91.913c-2.6132 0.46773-4.5956 2.7546-4.5956 5.5011 0 3.0891 2.5018 5.5909 5.5936 5.5909 2.7818 0 5.0878-2.034 5.5147-4.6989v-1.7866c-0.37527-2.3359-2.1999-4.1904-4.5222-4.6065z" fill="url(#radialGradient9914-5)" stroke-width=".25253"/>
  <g transform="matrix(.25253 0 0 .25253 136.82 -170.47)" fill="url(#linearGradient3544)">
   <g transform="matrix(10.768 0 0 -10.768 -1741.2 3196.9)">
    <g transform="translate(172.94 208.31)" fill="url(#linearGradient3544)">
     <path d="m0 0c0.083 0.028 0.165 0.071 0.227 0.133l0.06 0.075c0.051 0.083 0.064 0.165 0.068 0.213l1e-3 0.033v0.025c0 0.019-3e-3 0.057-0.014 0.098-0.012 0.049-0.035 0.105-0.077 0.156l-0.026 0.031-0.059 0.051c-0.036 0.026-0.079 0.051-0.123 0.07-0.061 0.026-0.128 0.043-0.201 0.058-0.038 8e-3 -0.078 0.013-0.118 0.017-0.027 2e-3 -0.051 5e-3 -0.078 6e-3l-0.07 4e-3h-0.644v-1.028h0.667l0.035 3e-3c0.023 0 0.054 2e-3 0.094 4e-3 0.071 7e-3 0.166 0.02 0.258 0.051m-0.68 1.556 0.071 3e-3c0.068 6e-3 0.158 0.015 0.251 0.04l0.053 0.017c0.071 0.025 0.14 0.064 0.194 0.116 0.043 0.042 0.07 0.09 0.09 0.134 0.023 0.056 0.031 0.109 0.033 0.146 3e-3 0.035 3e-3 0.055 3e-3 0.055v0.041c-3e-3 0.043-0.012 0.111-0.045 0.179-0.015 0.031-0.038 0.061-0.068 0.092-0.037 0.034-0.08 0.062-0.127 0.084-0.091 0.039-0.194 0.055-0.282 0.062-0.039 2e-3 -0.073 2e-3 -0.102 2e-3h-0.445v-0.972h0.322s0.023 0 0.052 1e-3m-1.047 1.558h1.221c0.656 0 0.947-0.344 0.947-0.344s0.265-0.229 0.265-0.627c0-0.396-0.18-0.56-0.231-0.611-0.109-0.107-0.25-0.175-0.25-0.175s0.312-0.065 0.556-0.309c0.289-0.287 0.266-0.66 0.266-0.66s0.023-0.36-0.288-0.669c-0.38-0.381-1.072-0.363-1.072-0.363h-1.414zm-1.453-4.485h5.542v5.216h-5.542zm17.218 1.022-0.037-0.019c-0.027-0.013-0.057-0.027-0.084-0.04-0.03-0.013-0.06-0.026-0.087-0.039-0.047-0.018-0.086-0.033-0.119-0.047-0.026-0.01-0.048-0.018-0.064-0.024l-0.031-0.01c-0.032-0.012-0.067-0.023-0.101-0.035-0.033-8e-3 -0.062-0.018-0.094-0.026-0.042-0.011-0.088-0.024-0.135-0.032-0.033-7e-3 -0.063-0.014-0.096-0.019-0.053-9e-3 -0.106-0.018-0.165-0.026-0.036-2e-3 -0.074-8e-3 -0.114-0.01l-0.019-2e-3c-0.1-8e-3 -0.21-0.014-0.325-0.014l-0.047 1e-3c-0.031 0-0.063 1e-3 -0.094 3e-3 -0.065 4e-3 -0.128 0.01-0.188 0.016-0.062 6e-3 -0.122 0.017-0.178 0.028-0.07 0.013-0.138 0.03-0.201 0.048-0.039 0.012-0.074 0.022-0.108 0.035-0.036 0.012-0.07 0.023-0.103 0.037-0.09 0.036-0.171 0.076-0.243 0.116-0.038 0.021-0.073 0.041-0.106 0.063-0.031 0.022-0.061 0.04-0.088 0.061l-0.067 0.051-0.065 0.053c-0.03 0.026-0.054 0.049-0.079 0.073l-0.016 0.016c-0.03 0.029-0.058 0.059-0.086 0.093-0.025 0.026-0.049 0.056-0.074 0.086-0.021 0.029-0.044 0.058-0.065 0.091-0.016 0.023-0.032 0.047-0.049 0.074-0.019 0.029-0.038 0.063-0.057 0.096-0.031 0.058-0.06 0.121-0.087 0.185-0.017 0.039-0.031 0.08-0.046 0.122-0.012 0.036-0.021 0.071-0.033 0.107-7e-3 0.027-0.013 0.054-0.019 0.084l-9e-3 0.039c-7e-3 0.036-0.011 0.07-0.016 0.105l-3e-3 0.021c-3e-3 0.029-5e-3 0.061-7e-3 0.089-3e-3 0.029-3e-3 0.06-3e-3 0.089 0 0.039 3e-3 0.078 4e-3 0.116 3e-3 0.051 9e-3 0.101 0.016 0.148 0.02 0.155 0.057 0.3 0.109 0.435 0.041 0.107 0.093 0.209 0.149 0.303l0.032 0.047 0.046 0.069c0.022 0.03 0.043 0.061 0.068 0.087 0.02 0.026 0.043 0.051 0.065 0.076l0.067 0.072c0.027 0.027 0.058 0.054 0.086 0.08 0.032 0.028 0.066 0.055 0.101 0.082l0.052 0.039 0.06 0.042c0.036 0.024 0.076 0.047 0.114 0.07 0.041 0.024 0.084 0.048 0.128 0.067 0.051 0.026 0.108 0.051 0.167 0.073 0.111 0.043 0.233 0.082 0.366 0.109l0.063 0.014 0.048 8e-3 0.037 4e-3 0.031 6e-3 0.025 2e-3c0.033 5e-3 0.065 9e-3 0.098 0.012l0.07 4e-3c0.038 3e-3 0.079 5e-3 0.12 7e-3h0.06c0.049 0 0.101-2e-3 0.153-5e-3 0.028-2e-3 0.06-3e-3 0.09-6e-3 0.041-4e-3 0.086-0.01 0.127-0.014l0.029-6e-3c0.027-4e-3 0.053-8e-3 0.075-0.011 0.031-6e-3 0.06-0.011 0.091-0.017 0.027-8e-3 0.054-0.014 0.082-0.018l0.049-0.011c0.027-8e-3 0.052-0.014 0.078-0.021l0.064-0.018 0.018-6e-3 0.064-0.017c0.027-9e-3 0.056-0.02 0.082-0.028l0.068-0.022c0.029-0.011 0.055-0.02 0.081-0.028 0.043-0.015 0.081-0.03 0.115-0.043 0.076-0.03 0.12-0.048 0.12-0.048v-0.698l-0.073 0.041c-0.027 0.014-0.06 0.032-0.098 0.051l-0.072 0.037c-0.031 0.016-0.064 0.032-0.098 0.046-0.042 0.019-0.085 0.039-0.13 0.057-0.033 0.014-0.068 0.027-0.104 0.04 0 0-0.021 8e-3 -0.06 0.02-0.022 9e-3 -0.052 0.019-0.087 0.028-0.023 8e-3 -0.047 0.016-0.076 0.023-0.041 0.01-0.088 0.022-0.138 0.032-0.033 6e-3 -0.07 0.013-0.106 0.018-0.041 7e-3 -0.084 0.012-0.129 0.016l-0.07 5e-3c-0.037 2e-3 -0.074 4e-3 -0.11 5e-3h-0.048c-0.049 0-0.102-3e-3 -0.154-7e-3 -0.027-2e-3 -0.053-5e-3 -0.081-9e-3 -0.027-2e-3 -0.055-7e-3 -0.082-0.012l-0.076-0.016-0.074-0.018c-0.026-6e-3 -0.054-0.015-0.079-0.026l-0.073-0.027-0.072-0.028c-0.151-0.069-0.298-0.167-0.428-0.296l-0.025-0.027-0.049-0.056-0.034-0.044c-0.03-0.038-0.056-0.078-0.08-0.119l-0.03-0.056-0.035-0.071-0.021-0.054-0.025-0.076c-0.01-0.029-0.018-0.056-0.024-0.082-0.01-0.041-0.017-0.079-0.02-0.113-0.011-0.061-0.014-0.112-0.016-0.153v-0.045c0-0.017 0-0.044 2e-3 -0.074l4e-3 -0.059c5e-3 -0.058 0.013-0.126 0.033-0.203 6e-3 -0.023 0.015-0.051 0.023-0.078 0.011-0.033 0.023-0.07 0.04-0.103l0.027-0.065 0.041-0.075 0.032-0.051 0.036-0.052 0.041-0.054c0.028-0.033 0.058-0.066 0.09-0.097l9e-3 -8e-3 5e-3 -6e-3 0.014-0.013 0.022-0.02 0.055-0.045 0.062-0.045 0.051-0.034 0.049-0.029c0.034-0.019 0.07-0.038 0.104-0.055l0.05-0.021 0.029-0.012 0.045-0.017c0.1-0.035 0.204-0.064 0.307-0.08 0.062-0.012 0.126-0.018 0.188-0.021 0.052-4e-3 0.105-6e-3 0.155-6e-3 0.024 0 0.048 0 0.077 2e-3 0.04 2e-3 0.086 4e-3 0.136 0.01 0.032 3e-3 0.065 7e-3 0.099 0.013l0.045 7e-3c0.125 0.023 0.267 0.058 0.422 0.113 0.083 0.029 0.168 0.064 0.256 0.106 0.049 0.022 0.099 0.051 0.151 0.077 0.046 0.025 0.092 0.053 0.141 0.082l0.051 0.029 0.025 0.017zm-4.444-1.022h5.543v5.216h-5.543zm-4.932 4.485h1.219c0.656 0 0.947-0.344 0.947-0.344s0.265-0.229 0.265-0.627c0-0.396-0.18-0.56-0.23-0.611-0.109-0.107-0.25-0.175-0.25-0.175s0.311-0.065 0.558-0.309c0.285-0.287 0.263-0.66 0.263-0.66s0.022-0.36-0.287-0.669c-0.381-0.381-1.071-0.363-1.071-0.363h-1.414zm-1.455-4.485h5.545v5.216h-5.545zm3.181 1.371c0.083 0.028 0.164 0.071 0.226 0.133l0.061 0.075c0.052 0.083 0.064 0.165 0.067 0.213l1e-3 0.033v0.025c-1e-3 0.019-2e-3 0.057-0.013 0.098-0.013 0.049-0.035 0.105-0.078 0.156l-0.024 0.031-0.061 0.051c-0.036 0.026-0.077 0.051-0.123 0.07-0.061 0.026-0.128 0.043-0.201 0.058-0.038 8e-3 -0.078 0.013-0.117 0.017-0.025 2e-3 -0.052 5e-3 -0.079 6e-3l-0.069 4e-3h-0.644v-1.028h0.666l0.036 3e-3c0.022 0 0.053 2e-3 0.092 4e-3 0.073 7e-3 0.167 0.02 0.26 0.051m-0.681 1.556 0.072 3e-3c0.067 6e-3 0.157 0.015 0.25 0.04l0.053 0.017c0.072 0.025 0.143 0.064 0.195 0.116 0.043 0.042 0.07 0.09 0.089 0.134 0.023 0.056 0.03 0.109 0.033 0.146 5e-3 0.035 4e-3 0.055 4e-3 0.055l-1e-3 0.041c-3e-3 0.043-0.01 0.111-0.044 0.179-0.015 0.031-0.038 0.061-0.069 0.092-0.035 0.034-0.079 0.062-0.126 0.084-0.091 0.039-0.195 0.055-0.283 0.062-0.037 2e-3 -0.071 2e-3 -0.101 2e-3h-0.445v-0.972h0.322s0.023 0 0.051 1e-3" fill="url(#linearGradient3544)"/>
    </g>
   </g>
   <g transform="matrix(10.768 0 0 -10.768 -1741.2 3196.9)">
    <g transform="translate(227.61 192.87)" fill="url(#linearGradient3544)">
     <path d="m0 0c-0.7 0.47-0.91 0.695-0.948 1.444-3e-3 0.055-0.014 0.173-0.173 0.173h-1.943c-0.096 0-0.174-0.078-0.174-0.173v-0.521c0-0.868 0.294-1.447 1.17-2.11 0.577-0.438 1.157-0.728 1.157-1.469 0-0.564-0.419-0.905-0.939-0.905-0.796 0-1.2 0.489-1.244 1.276l-0.016 0.282h-2.296c-0.183 0-0.214-0.141-0.211-0.21 0.114-2.214 1.595-3.484 3.782-3.484 1.807 0 3.614 0.979 3.614 3.026 0 1.44-0.679 1.959-1.779 2.671m4.406 5.679c0.142 0.901 0.716 1.518 1.576 1.518 0.816 0 1.404-0.687 1.447-1.518zm5.464-1.124c0.023 2.409-1.307 4.29-3.888 4.29-2.192 0-4.012-1.634-4.012-3.911 0-2.494 1.648-3.954 4.069-3.954 1.596 0 3.126 0.687 3.638 2.263 7e-3 0.023 0.059 0.201-0.086 0.201h-2.134c-0.229-0.544-0.802-0.818-1.389-0.818-1.032 0-1.619 0.674-1.662 1.691h5.257c0.228 0 0.207 0.16 0.207 0.238m-29.976 1.124c0.142 0.901 0.715 1.518 1.576 1.518 0.816 0 1.404-0.687 1.447-1.518zm1.576 3.166c-2.192 0-4.012-1.634-4.012-3.911 0-2.494 1.648-3.954 4.069-3.954 1.596 0 3.126 0.687 3.637 2.263 8e-3 0.023 0.06 0.201-0.085 0.201h-2.134c-0.229-0.544-0.802-0.818-1.39-0.818-1.031 0-1.618 0.674-1.661 1.691h5.258c0.227 0 0.206 0.16 0.206 0.238 0.023 2.409-1.308 4.29-3.888 4.29m8.329-6.003c-1.119 0-1.49 1.131-1.49 2.148 0 0.946 0.371 1.992 1.49 1.992 1.059 0 1.447-0.988 1.447-2.063 0-0.946-0.259-2.077-1.447-2.077m3.623 8.581h-2.088c-0.096 0-0.174-0.078-0.174-0.174v-3.417s-0.013-4e-3 -0.03-4e-3c-0.501 0.673-1.203 1.017-2.12 1.017-2.106 0-3.137-1.835-3.137-3.768 0-2.092 0.988-4.097 3.324-4.097 1.387 0 2.055 1.073 2.063 1.073 7e-3 0 0.014-0.078 0.014-0.173v-0.513c0-0.095 0.078-0.173 0.174-0.173h1.974c0.095 0 0.172 0.078 0.172 0.173v9.882c0 0.096-0.077 0.174-0.172 0.174m-16.711 0h-2.089c-0.096 0-0.174-0.078-0.174-0.174v-9.882c0-0.095 0.078-0.173 0.174-0.173h2.089c0.095 0 0.173 0.078 0.173 0.173v9.882c0 0.096-0.078 0.174-0.173 0.174m-2.908-2.794h-2.132c-0.096 0-0.193-0.075-0.216-0.168l-1.133-4.463c-0.023-0.093-0.049-0.168-0.057-0.168-7e-3 0-0.031 0.076-0.052 0.169l-1.013 4.461c-0.021 0.093-0.116 0.169-0.211 0.169h-1.974c-0.096 0-0.19-0.076-0.211-0.169l-0.985-4.474c-0.021-0.094-0.044-0.17-0.052-0.17s-0.034 0.076-0.058 0.168l-1.16 4.478c-0.024 0.092-0.121 0.167-0.216 0.167h-2.117c-0.095 0-0.15-0.074-0.122-0.165l2.217-7.105c0.029-0.09 0.13-0.165 0.225-0.165h2.119c0.095 0 0.191 0.076 0.212 0.169l1.081 4.605c0.021 0.093 0.046 0.169 0.054 0.169s0.033-0.076 0.054-0.169l1.095-4.605c0.022-0.093 0.118-0.169 0.214-0.169h2.117c0.096 0 0.197 0.075 0.225 0.165l2.218 7.105c0.028 0.091-0.027 0.165-0.122 0.165m-15.312-5.787c-1.131 0-1.475 1.117-1.475 2.062 0 0.946 0.344 2.078 1.475 2.078 1.133 0 1.49-1.132 1.49-2.078 0-0.945-0.357-2.062-1.49-2.062m0 6.003c-2.306 0-3.91-1.706-3.91-3.941s1.604-3.924 3.91-3.924c2.307 0 3.926 1.689 3.926 3.924s-1.619 3.941-3.926 3.941m-7.155 0c-1.578 0-2.342-1.233-2.35-1.233s-0.014 3e-3 -0.014 3e-3v0.841c0 0.095-0.078 0.173-0.173 0.173h-2.017c-0.095 0-0.174-0.078-0.174-0.173v-7.089c0-0.095 0.079-0.173 0.174-0.173h2.088c0.095 0 0.174 0.078 0.174 0.173v3.882c0 0.816 0.401 1.59 1.318 1.59 0.959 0 1.217-0.479 1.217-1.653v-3.819c0-0.095 0.079-0.173 0.174-0.173h2.088c0.096 0 0.174 0.078 0.174 0.173v4.597c0 1.076-0.201 2.881-2.679 2.881m-9.456-1.445 3.664 3.896c0.066 0.07 0.041 0.127-0.054 0.127h-2.963c-0.095 0-0.224-0.059-0.286-0.132l-3.207-3.728-0.047-4e-3v3.69c0 0.096-0.078 0.174-0.173 0.174h-2.319c-0.095 0-0.173-0.078-0.173-0.174v-9.882c0-0.095 0.078-0.173 0.173-0.173h2.319c0.095 0 0.173 0.078 0.173 0.173v2.806c0 0.138 3e-3 0.183 0.119 0.3l0.971 1.014 2.655-4.147c0.052-0.081 0.172-0.146 0.267-0.146h2.963c0.095 0 0.129 0.064 0.075 0.143z" fill="url(#linearGradient3544)"/>
    </g>
   </g>
  </g>
 </g>
</svg>
