<svg width="200mm" height="92.208mm" version="1.1" viewBox="0 0 200 92.208" xmlns="http://www.w3.org/2000/svg" xmlns:xlink="http://www.w3.org/1999/xlink">
 <defs>
  <linearGradient id="linearGradient1139" x1="-163.76" x2="436.23" y1="-436.36" y2="-712.97" gradientUnits="userSpaceOnUse">
   <stop stop-color="#8cc740" offset="0"/>
   <stop stop-color="#05aa4d" offset="1"/>
  </linearGradient>
 </defs>
 <g transform="matrix(.33333 0 0 .33333 54.592 237.66)" fill="url(#linearGradient1139)">
  <path d="m318.33-659.99c0-7.3715-4.816-12.974-12.482-15.087 1.9657-1.032 3.6857-2.3097 4.7669-3.8332 1.72-2.1132 2.408-4.7669 2.408-7.8629 0-3.7349-1.4743-7.568-4.5212-10.369-3.1452-2.8503-7.9612-4.7177-14.448-4.7177h-18.183v57.596h21.181c7.6663 0 12.974-2.1132 16.315-5.16 3.5874-3.096 4.9634-7.0274 4.9634-10.566m20.247 26.881h-85.017v-79.857h85.017z"/>
  <path d="m307.8-661.14c-0.0491 1.8183-0.58972 3.7349-2.3097 5.16-1.72 1.4743-4.6194 2.7029-9.5829 2.7029h-9.7303v-15.824h9.3372c4.3737 0 7.4206 1.032 9.4355 2.408 1.9657 1.2286 2.8012 3.1452 2.8503 5.5532"/>
  <path d="m299.9-679.95c1.8674-1.2286 2.6046-3.1452 2.6046-6.1429 0-1.8183-0.344-3.44-1.8183-4.816-1.4252-1.1303-3.8332-1.9166-7.7155-1.9166h-6.7817v14.89h4.6686c4.1772 0 7.1749-0.688 9.0423-2.0149"/>
  <path d="m419.42-659.7-1.2777 0.78629c-6.536 4.0297-13.76 6.2412-20.296 6.2412-13.809 0-23.048-8.256-23.048-20.296 0-11.794 9.4846-20.444 22.704-20.444 6.7817 0 12.875 1.6709 19.952 5.7006l1.376 0.63886v-10.517l-0.49143-0.19657c-8.3543-3.3909-14.497-4.816-20.689-4.816-9.6812 0-17.986 3.0469-23.933 8.6492-5.8972 5.4549-9.5829 13.023-9.5829 21.574 0 6.0446 2.6537 13.367 7.912 18.92 5.4057 5.7497 13.662 9.976 25.161 9.976 9.3372 0 15.775-2.2114 21.721-5.0617l0.49143-0.19657v-10.959zm16.807 26.586h-84.87v-79.857h84.87z"/>
  <path d="m220.62-659.99c0-7.3715-5.0617-12.974-12.728-15.087 2.1132-1.032 3.7349-2.3097 5.16-3.8332 1.4252-2.1132 2.1623-4.7669 2.1623-7.8629 0-3.7349-1.376-7.568-4.6194-10.369-3.1452-2.8503-7.912-4.7177-14.35-4.7177h-18.183v57.596h21.23c7.6663 0 12.826-2.1132 16.266-5.16 3.44-3.096 5.0617-7.0274 5.0617-10.566m20.1 26.881h-84.968v-79.857h84.968z"/>
  <path d="m201.97-679.95c1.8674-1.2286 2.8012-3.1452 2.8012-6.1429 0-1.8183-0.58971-3.44-1.9657-4.816-1.3269-1.1303-3.6366-1.9166-7.6172-1.9166h-6.9292v14.89h4.7669c4.1772 0 7.0766-0.688 8.944-2.0149"/>
  <path d="m207.16-666.71c-2.1132-1.3269-5.16-2.408-9.3863-2.408h-9.5338v15.824h9.976c4.816 0 7.7646-1.2286 9.4355-2.6537 1.72-1.4743 2.2606-3.3909 2.2606-5.2092 0-2.408-0.88457-4.3246-2.752-5.5532"/>
  <path d="m-162.62-631.86h22.999v84.379c0 16.119-0.29485 24.178-0.29485 37.693 0.44228 8.7475-0.58972 11.843 19.215 22.753-3.096 5.3074-6.7326 12.974-9.4846 18.134-12.433-5.5532-26.537-12.63-31.501-25.898-4.0789-10.664-0.93372-26.685-0.93372-44.032v-93.028z" fill-rule="evenodd"/>
  <path d="m168.26-601.15h21.132v30.616h43c-0.24572 24.178 0 46.096 0 63.051 0.39314 11.549 11.991 14.399 15.775 14.694 3.784 0.39314 6.6834 0 10.467 0 6.8309 0 16.709-8.944 16.709-21.328 0-11.794 0.63886-36.661 0.24571-56.416h20.1c0 36.268-0.344 66.884-0.344 88.408 0 50.175-39.56 45.801-63.739 45.605v-19.313c5.7989 0 16.905 0.688 22.508 0 27.618-3.1452 22.458-29.191 22.213-29.191-10.025 15.775-40.69 14.694-52.436 2.8012-13.318-13.269-11.991-41.084-11.598-67.965h-22.901v47.914c0.344 5.4549 1.1303 6.88 7.8137 12.925-2.752 6.0446-5.8972 11.843-8.4035 17.003-29.781-14.792-18.871-33.417-20.542-78.875-4.8652 0.19657-10.123 0.24572-11.794 0.24572 0-4.8652 0.0491-14.104 0.14743-19.559h11.647v-30.616z" fill-rule="evenodd"/>
  <path d="m304.53-601.15h20.247v79.563c0 14.497-2.1623 26.881 8.2069 31.992-2.752 5.16-6.3886 11.401-9.976 16.414-6.3394-3.4892-14.202-8.944-17.102-17.79-2.8503-9.3863-1.376-23.884-1.376-34.548v-75.631z" fill-rule="evenodd"/>
  <path d="m151.49-558.92c-3.0469 3.9314-8.4035 9.2389-11.106 13.514-13.17-8.6-26.095-14.939-37.152-8.4035-6.3886 2.8503-13.416 16.021 6.192 19.559 19.412 5.3566 51.698 4.0297 44.966 35.236-6.0937 28.405-38.626 32.336-64.869 21.574-4.8652-1.9166-12.138-5.4549-15.382-9.5829 4.2754-4.5212 9.8778-9.7795 13.563-14.497 4.7669 3.1452 9.976 7.2732 15.431 9.6812 19.51 9.1406 44.671-9.8778 21.721-19.854-20.1-6.7326-58.333-3.7349-46.44-41.575 1.5726-4.2263 7.224-10.664 10.762-13.318 22.016-16.021 57.694 0 62.313 7.6663" fill-rule="evenodd"/>
  <path d="m-112.92-570.52h21.23v95.878h-21.23z" fill-rule="evenodd"/>
  <path d="m15.794-554.69c24.768 0 28.65 20.935 28.65 21.672h-53.664c2.0149-14.301 12.286-21.574 25.014-21.672m16.217 61.92c-19.559 8.256-40.199-4.816-41.231-22.065h78.236c0-42.656-29.977-69.243-71.454-54.745-20.247 7.1257-23.736 19.706-29.83 36.562h-19.166c-0.14743-19.362-0.44229-23.884-0.44229-35.383 0-16.807 18.674-15.087 22.606-12.286 2.6537-5.7497 6.3395-15.382 7.6663-19.313-17.053-4.5212-34.892-2.3097-44.18 10.271-3.3909 4.816-6.7326 9.0423-6.7326 16.414v40.297c-4.6686 0.0983-8.4526-0.0983-12.63 0.19657 0 4.3246 0.04914 11.991 0.09829 17.986h12.531v71.012h21.082v-71.012h19.166c4.0297 44.229 64.623 57.841 95.927 20.05 0.29486-0.0983 0.63886-0.58972 1.0811-0.88458-5.2583-2.7029-11.205-6.536-17.593-10.074-1.376 0-10.418 10.959-15.136 12.974" fill-rule="evenodd"/>
  <path d="m382.28-554.6c23.785 0 28.749 20.935 28.749 21.967-8.0595 0-42.263 0.19657-54.303 0.19657-0.39315-1.032 5.0126-22.164 25.554-22.164m16.021 61.527c-19.461 8.3543-40.002-4.7177-41.133-21.77h55.532c7.6663 0 16.758 0.19657 23.49 0.19657-0.78629-26.881-11.942-46.686-31.058-54.942-33.958-14.202-64.672 7.4206-71.012 35.53-1.6709 7.3715-1.4743 20.247 0.58972 25.997 6.1429 17.102 14.006 26.488 29.732 31.501 46.588 14.694 65.016-18.92 65.557-19.313-5.4057-2.6537-9.8778-6.0446-16.021-9.5829-6.0937 7.0275-11.008 10.369-15.677 12.384" fill-rule="evenodd"/>
  <path d="m-89.358-593.47c0 7.3715-6.0937 13.269-13.318 13.269-7.1749 0-13.269-5.8972-13.269-13.269 0-7.3715 6.0937-13.416 13.269-13.416 7.224 0 13.318 6.0446 13.318 13.416" fill-rule="evenodd"/>
 </g>
</svg>
