<svg version="1.1" viewBox="0 0 800 676.33" xml:space="preserve" xmlns="http://www.w3.org/2000/svg">
<path d="m56.634 676.33q-8.2484 0-16.357-1.8174-7.9688-1.8174-15.378-5.732v-19.293q14.959 9.0872 31.735 9.0872 9.5066 0 14.4-3.2155 5.0329-3.2155 5.0329-8.9474 0-4.3339-2.5165-6.7106-2.3767-2.5164-6.431-3.9145-4.0543-1.5378-9.0872-2.7961-8.2484-1.9572-14.54-4.4737-6.2912-2.5164-10.625-5.8717-4.3339-3.4951-6.5708-8.2484-2.2368-4.8932-2.2368-11.604 0-9.5066 4.7533-16.357 4.8931-6.8504 13.701-10.485 8.8076-3.7747 20.971-3.7747 7.9688 0 15.658 1.8174 7.6892 1.8174 13.841 4.8932v19.013q-6.1514-3.7747-13.98-5.8718-7.6892-2.097-15.518-2.097-8.528 0-13.281 2.9359-4.6135 2.9358-4.6135 8.3882 0 3.9145 2.2368 6.2912 2.2369 2.2369 6.2912 3.7747 4.1941 1.3981 9.7862 2.7961 7.13 1.8174 13.281 4.0543 6.1514 2.097 10.765 5.4523 4.7533 3.3553 7.2698 8.528 2.6563 5.1727 2.6563 12.722 0 9.926-4.8931 17.056-4.8931 6.9902-14.12 10.765-9.227 3.6349-22.229 3.6349z" fill="#eb504a" stroke-width="2.1976"/><path d="m157.35 676.33q-11.883 0-21.39-3.4951-9.5066-3.6349-16.077-10.345-6.5708-6.7106-10.066-16.357-3.4951-9.7862-3.4951-21.949 0-11.883 3.6349-21.39 3.6349-9.6464 10.485-16.497 6.8504-6.8504 16.357-10.485 9.6464-3.6349 21.53-3.6349 8.2484 0 15.518 1.8174 7.4096 1.6777 13.701 5.033v19.852q-5.7319-3.9145-12.442-5.8718-6.7106-2.097-14.12-2.097-10.206 0-17.475 3.9145-7.13 3.9145-11.044 11.324-3.7747 7.4096-3.7747 18.035 0 10.625 3.6349 18.174 3.7747 7.4096 10.765 11.324 7.13 3.9145 17.196 3.9145 15.378 0 28.38-8.2484v19.433q-6.1514 3.4951-14.26 5.4523-8.1086 2.097-17.056 2.097z" fill="#eb504a" stroke-width="2.1976"/><path d="m248.53 572.17q11.324 0 20.411 3.6349 9.227 3.6349 15.658 10.485 6.5708 6.7106 10.066 16.357 3.4951 9.5066 3.4951 21.53 0 11.883-3.4951 21.53t-10.066 16.497q-6.431 6.8504-15.658 10.485-9.0872 3.6349-20.411 3.6349-11.324 0-20.551-3.6349-9.0872-3.6349-15.658-10.485-6.431-6.8504-9.926-16.497-3.4951-9.6464-3.4951-21.53 0-12.023 3.4951-21.53 3.4951-9.6465 9.926-16.357 6.5708-6.8504 15.658-10.485 9.227-3.6349 20.551-3.6349zm0 85.42q8.528 0 14.679-3.9145 6.1514-4.0543 9.3668-11.464 3.2155-7.4096 3.2155-18.035 0-10.625-3.2155-18.035-3.2155-7.4096-9.3668-11.324-6.1514-3.9145-14.679-3.9145-8.528 0-14.679 3.9145-6.1514 3.9145-9.3668 11.324-3.2155 7.4096-3.2155 18.035 0 10.625 3.2155 18.035 3.2155 7.4096 9.3668 11.464 6.1513 3.9145 14.679 3.9145z" fill="#eb504a" stroke-width="2.1976"/><path d="m299.93 574.27h84.441v18.734h-31.456v81.226h-21.53v-81.226h-31.456z" fill="#eb504a" stroke-width="2.1976"/><path d="m397.54 574.27h21.53v81.226h47.393v18.734h-68.923z" fill="#eb504a" stroke-width="2.1976"/><path d="m551.25 674.23q-3.6349-11.044-7.2698-21.67h-40.543q-3.6349 10.765-7.2698 21.67h-23.068q9.5067-26.283 19.293-51.308 9.926-25.025 19.992-48.652h23.207q10.345 24.885 20.132 50.05 9.926 25.025 19.153 49.91zm-41.661-39.564h28.101q-3.3553-9.7863-6.9902-19.433-3.4951-9.7862-6.9902-19.153-7.2698 19.153-14.12 38.586z" fill="#eb504a" stroke-width="2.1976"/><path d="m648.36 674.23q-10.905-17.475-22.089-34.951-11.184-17.615-22.089-34.112v69.063h-20.691v-99.96h21.809q11.324 16.916 22.229 33.972 11.044 16.916 21.949 34.392v-68.364h20.691v99.96z" fill="#eb504a" stroke-width="2.1976"/><path d="m688.03 574.27h38.166q15.798 0 26.982 5.8718 11.324 5.8717 17.196 17.056 5.8718 11.044 5.8718 26.842t-6.0116 27.122q-5.8718 11.184-17.056 17.196-11.184 5.8718-27.122 5.8718h-38.027zm36.908 81.505q13.98 0 21.39-8.1086 7.5494-8.2484 7.5494-23.627 0-15.239-7.4096-23.207-7.2698-8.1086-21.39-8.1086h-15.518v63.051z" fill="#eb504a" stroke-width="2.1976"/><path d="m144.67 0v158.61h158.61v-158.61zm198.22 0v158.61h158.61v-158.61zm198.06 0v158.61h158.61v-158.61zm86.47 33.755c4.9324 0 9.5568 0.46446 14.027 1.5434 4.47 1.0789 8.4766 2.4654 12.33 4.4692v17.263c-3.391-2.312-7.243-4.0068-11.251-5.24-4.1617-1.2331-8.4788-1.8508-12.64-1.6967-6.1655 0-11.406 1.0796-15.722 3.3916-4.3158 2.1579-7.7064 5.7026-9.8644 9.8643-2.312 4.3157-3.3916 9.5562-3.3916 15.722 0 6.1653 1.0796 11.561 3.3916 15.877 2.158 4.3158 5.5493 7.7075 9.7109 10.02 4.3159 2.312 9.4016 3.3897 15.413 3.3897 9.2482 0 17.727-2.4651 25.588-7.2434v17.108h-0.15526c-3.6993 2.0038-8.0138 3.7007-12.792 4.7796-4.9323 1.233-10.02 1.6949-15.415 1.6949-7.0902 0-13.564-1.0792-19.267-3.0829-5.7031-2.158-10.481-5.0868-14.489-8.9402-4.0076-3.8534-6.9356-8.6305-9.0936-14.334-2.1579-5.7029-3.083-12.023-3.083-19.113 0-6.9362 1.0785-13.101 3.2364-18.805 2.158-5.549 5.3947-10.328 9.4023-14.335 4.1617-4.0075 9.0943-7.0898 14.797-9.0936 5.703-2.1578 12.176-3.2382 19.267-3.2382zm-438.21 0.92608h33.447c9.8647 0 17.572 2.0038 22.967 5.8572 5.3948 4.0075 8.1695 9.5559 8.1695 16.954 0 4.3159-0.92391 7.8623-2.9277 11.099-2.0037 3.0826-4.7782 5.5471-8.6315 7.3968 5.2406 1.6954 9.2469 4.4712 12.021 8.3246 2.7745 3.6993 4.1624 8.3233 4.1624 13.718 0.15415 5.3949-1.2326 10.018-4.0071 13.871-2.7744 3.8534-6.6287 6.783-11.561 8.7868-5.0865 2.0038-11.098 3.0811-18.034 3.0811h-35.606zm198.37 0h33.447c9.8647 0 17.572 2.0038 22.967 5.8572 5.3948 4.0075 8.1695 9.5559 8.1695 16.954 0 4.3159-0.92395 7.8623-2.9277 11.099-2.0038 3.0826-4.7781 5.5471-8.6315 7.3968 5.2407 1.6954 9.2468 4.4712 12.021 8.3246 2.7745 3.6993 4.1623 8.3233 4.1623 13.718-0.15451 5.3949-1.542 10.018-4.1623 13.871-2.7745 3.8534-6.6269 6.783-11.559 8.7868-5.0866 2.0038-11.098 3.0811-18.034 3.0811h-35.452zm-180.34 14.489v22.196h13.718c4.7782 0 8.3242-1.0793 10.79-3.0829 2.4662-2.0038 3.6984-4.9331 3.6984-8.4781 0-7.0903-4.7781-10.635-14.489-10.635zm198.22 0v22.196h13.718c4.7783 0 8.3241-1.0793 10.79-3.0829 2.4662-2.0038 3.6985-4.9331 3.6985-8.4781 0-7.0903-4.7781-10.635-14.489-10.635zm-198.22 36.223v24.044h15.722c5.3948 0 9.5566-1.0792 12.485-3.083 2.9286-2.0037 4.3158-4.9314 4.3158-8.7849 0.15427-8.1692-5.3945-12.176-16.492-12.176zm198.22 0v24.044h15.722c5.3947 0 9.5566-1.0792 12.485-3.083 2.9286-2.0037 4.3157-4.9314 4.3157-8.7849 0.15413-8.1692-5.3945-12.176-16.492-12.176z" fill="#eb504a" stroke-width="2.1721"/>
<path d="m138.04 232.14q31.496 0 56.771 10.058 25.664 10.058 43.55 29.013 18.275 18.569 27.997 45.261 9.721 26.306 9.721 59.574 0 32.882-9.721 59.574-9.7211 26.692-27.997 45.648-17.887 18.955-43.55 29.013-25.275 10.058-56.771 10.058t-57.16-10.058q-25.275-10.058-43.55-29.013-17.887-18.955-27.608-45.648-9.721-26.692-9.721-59.574 0-33.269 9.721-59.574 9.721-26.692 27.608-45.261 18.276-18.955 43.55-29.013 25.664-10.058 57.16-10.058zm0 236.36q23.719 0 40.828-10.832 17.109-11.219 26.052-31.721 8.9433-20.503 8.9433-49.903t-8.9433-49.903q-8.9434-20.503-26.052-31.335-17.109-10.832-40.828-10.832-23.719 0-40.828 10.832-17.109 10.832-26.052 31.335-8.9434 20.503-8.9434 49.903t8.9434 49.903q8.9433 20.503 26.052 31.721 17.109 10.832 40.828 10.832z" fill="#eb504a" stroke-width="2.1721" Googl="true"/><path d="m493.57 514.54q-30.174-48.356-61.122-96.712-30.948-48.743-61.122-94.39v191.1h-57.253v-276.59h60.348q31.335 46.808 61.509 94.004 30.561 46.808 60.735 95.164v-189.17h57.253v276.59z" fill="#eb504a" stroke-width="2.1721"/><path d="m602.32 237.94h190.33v49.516h-130.75v59.961h116.05v49.516h-116.05v68.085h138.1v49.516h-197.68z" fill="#eb504a" stroke-width="2.1721"/></svg>
