<svg width="200mm" height="69.37mm" viewBox="0 0 200 69.37" xmlns="http://www.w3.org/2000/svg">
    <g fill="#e61512">
        <path d="M102.36 15.177c-.645-.45-1.66-.742-3.086-.742h-3.067v5.137h3.204c1.601 0 2.558-.371 3.105-.86.547-.488.743-1.113.743-1.738.02-.742-.274-1.348-.899-1.797M100.68 10.822c.586-.43.879-1.035.899-1.953 0-.625-.176-1.172-.645-1.563-.45-.41-1.211-.684-2.461-.684h-2.266v4.884h1.563c1.347-.02 2.324-.254 2.91-.684" stroke-width=".195"/>
        <path d="M0 69.367V45.512h7.538c2.257 0 4.085.61 5.439 1.85 1.354 1.22 2.03 2.867 2.03 4.943 0 1.4-.338 2.618-1.037 3.679a5.995 5.995 0 0 1-2.844 2.324c-1.218.474-2.934.722-5.19.722H3.408v10.336zm6.951-20.831H3.408v7.447h3.724c1.376 0 2.46-.315 3.204-.97.745-.654 1.129-1.602 1.129-2.798.022-2.438-1.512-3.657-4.514-3.679zm16.43-3.114h2.415l10.652 23.945H32.95l-3.16-7.064H19.657l-3.002 7.064h-3.498zm5.01 13.857l-3.836-8.622-3.566 8.622zM39.18 69.367v-23.81h5.958c2.415 0 4.31.609 5.732 1.782 1.422 1.197 2.122 2.821 2.122 4.853 0 1.376-.339 2.595-1.038 3.588-.7 1.016-1.67 1.783-2.98 2.257.746.496 1.513 1.196 2.235 2.054.722.857 1.738 2.37 3.07 4.513.834 1.354 1.489 2.37 1.985 3.047l1.264 1.715h-4.04l-1.038-1.58c-.045-.045-.113-.158-.203-.293l-.654-.925-1.061-1.738-1.128-1.85c-.723-.971-1.377-1.761-1.964-2.348-.564-.587-1.106-.993-1.58-1.241-.45-.27-1.24-.384-2.37-.384h-.902v10.36zm4.424-20.921h-1.038v7.515h1.286c1.738 0 2.911-.158 3.543-.452a3.345 3.345 0 0 0 1.512-1.331c.361-.61.542-1.286.542-2.054 0-.745-.203-1.422-.587-2.03a3.237 3.237 0 0 0-1.693-1.287c-.7-.226-1.895-.361-3.565-.361zm16.543-2.89h3.43v20.719h10.697v3.092H60.145m17.445-23.81h3.43v23.81h-3.43M94.2 45.422h2.392l10.652 23.945h-3.498l-3.182-7.064H90.453l-3.002 7.064h-3.475zm5.01 13.857l-3.836-8.621-3.566 8.62zm30.241-13.722h3.16v23.81h-3.43v-18.53l-7.335 9.209h-.61l-7.402-9.208v18.529h-3.408v-23.81h3.205l7.921 9.772m15.888-9.772h13.496v3.024h-10.088v7.267h9.75v3.046h-9.75v7.403h10.404v3.024H137.44m36.357-23.764h3.25v23.81h-2.934l-15.91-18.325v18.325h-3.205v-23.81h2.753l16.046 18.461m6.319-18.506h19.883v3.024h-8.283v20.831h-3.43v-20.83h-8.17" stroke-width=".226"/>
        <path d="M85.53 0h27.816v26.175H85.53zm21.213 17.346c0-2.383-1.582-4.18-4.102-4.883.684-.352 1.23-.782 1.621-1.29.528-.703.782-1.562.782-2.559a4.58 4.58 0 0 0-1.524-3.418c-1.035-.938-2.617-1.543-4.747-1.543h-5.938v18.85h6.954c2.48 0 4.22-.684 5.352-1.66a4.64 4.64 0 0 0 1.602-3.497zM53.48 0h27.816v26.175H53.48zm21.213 17.346c0-2.383-1.582-4.18-4.102-4.883.684-.352 1.23-.782 1.621-1.29.528-.703.782-1.562.782-2.559a4.58 4.58 0 0 0-1.524-3.418c-1.035-.938-2.617-1.543-4.747-1.543h-5.957v18.85h6.954c2.48 0 4.219-.684 5.352-1.66a4.596 4.596 0 0 0 1.621-3.497zM117.59 0h27.816v26.175H117.59zm22.288 17.482l-.45.273c-2.148 1.31-4.492 2.012-6.621 2.012-4.552-.02-7.56-2.715-7.58-6.641 0-3.848 3.146-6.68 7.463-6.7 2.187 0 4.18.566 6.543 1.875l.43.234V5.02l-.195-.078c-2.676-1.055-4.727-1.523-6.778-1.523-3.145 0-5.9 1.035-7.833 2.812-1.954 1.758-3.106 4.259-3.106 7.13 0 1.993.82 4.337 2.598 6.192 1.758 1.856 4.473 3.223 8.184 3.204h.02c3.086 0 5.215-.684 7.15-1.64l.155-.079z" stroke-width=".195"/>
        <path d="M68.62 10.822c.586-.43.879-1.035.899-1.953 0-.625-.176-1.172-.645-1.563-.45-.41-1.211-.684-2.461-.684h-2.266v4.884h1.563c1.347-.02 2.324-.254 2.91-.684M70.3 15.177c-.645-.45-1.66-.742-3.086-.742h-3.067v5.137h3.204c1.601 0 2.558-.371 3.105-.86.547-.488.743-1.113.743-1.738.02-.742-.274-1.348-.899-1.797" stroke-width=".195"/>
    </g>
</svg>
