<svg version="1.1" viewBox="0 0 420.8 100" xmlns="http://www.w3.org/2000/svg">
 <g transform="matrix(1.5904 0 0 1.5904 -679.63 -4363.5)" fill="#e5e8e4" stroke-width=".62875">
  <path d="m523.99 2759c0 2.5937-3.2276 2.4396-3.2276 2.4396h-3.2275v-4.6862h3.2275c3.3215-0.021 3.2276 2.2466 3.2276 2.2466m-6.4548-9.3943h2.4594c2.5539 0.1375 2.4574 2.0364 2.4574 2.0364 0 2.3633-2.8238 2.4012-2.8238 2.4012h-2.093zm5.8581 5.3597s2.2091-0.942 2.1894-3.4386c0 0 0.33602-4.0918-5.0856-4.591h-6.016v17.154h6.8955s5.7618 0.028 5.7618-4.8396c-1.2e-4 0 0.13534-3.3057-3.7454-4.285m-15.569-11.392h25.328v23.869h-25.328zm-13.042 15.426c0 2.5934-3.2275 2.4397-3.2275 2.4397h-3.2278v-4.6861h3.2278c3.3218-0.02 3.2275 2.2464 3.2275 2.2464m-6.4554-9.3946h2.4599c2.554 0.139 2.4574 2.0365 2.4574 2.0365 0 2.363-2.8238 2.4012-2.8238 2.4012h-2.0935zm5.8587 5.3598s2.2095-0.9418 2.1896-3.4386c0 0 0.33569-4.0921-5.0859-4.5912h-6.0163v17.155h6.8962s5.7617 0.028 5.7617-4.8403c0 0 0.13518-3.3056-3.7454-4.2851m-15.569-11.391h25.328v23.868h-25.328zm78.578 4.5913v3.1693s-3.0936-1.9005-6.5124-1.9391c0 0-6.3783-0.1283-6.6654 6.1135 0 0-0.2304 5.7373 6.5889 6.0643 0 0 2.8611 0.3449 6.7425-2.1302v3.2829s-5.2066 3.0929-11.238 0.7104c0 0-5.0703-1.8516-5.2634-7.9274 0 0-0.21086-6.249 6.5515-8.3224 0 0 1.8059-0.6927 5.051-0.384 1.2e-4 0 1.9396 0.192 4.7461 1.3627m-20.162 19.278h25.328v-23.869h-25.328z"/>
  <path d="m570.96 2757.1v6.9185h-2.3542v-17.177h5.5492q3.267 0 4.9967 1.346 1.7536 1.321 1.7536 3.7947 0 1.7301-0.93683 2.9312-0.93679 1.2013-2.6665 1.7535 2.4022 3.5796 4.6363 7.3516h-2.7626q-1.009-1.7779-2.0658-3.4843-1.033-1.7288-2.162-3.4587-0.38439 0.028-0.81685 0.028zm0-1.9214h3.0027q2.2821 0 3.4112-0.7934 1.1292-0.7925 1.1292-2.403 0-3.2178-4.5163-3.2178h-3.0268z"/>
  <path d="m597.31 2764.1q-0.43239-1.1776-0.8648-2.3305-0.40842-1.1532-0.84077-2.306h-8.0714q-0.86485 2.2819-1.7055 4.6365h-2.4743q1.7055-4.5163 3.4351-8.8166 1.7536-4.2998 3.5553-8.3604h2.4983q1.8737 4.3 3.6034 8.6001 1.7535 4.3003 3.4111 8.5765zm-9.0086-6.6544h6.5338q-0.81674-2.0905-1.6334-4.1318-0.81684-2.0423-1.6336-4.0608-0.84082 2.0424-1.6575 4.0846-0.81684 2.0421-1.6096 4.108z"/>
  <path d="m601.73 2746.9h5.9816q2.6424 0 4.5402 1.0088 1.9217 0.9863 2.9307 2.8836 1.033 1.8979 1.033 4.6365 0 2.7376-1.033 4.6838-1.009 1.922-2.9307 2.9552-1.8978 1.0086-4.5643 1.0086h-5.9575zm5.7894 15.159q2.9787 0 4.5882-1.6812 1.6335-1.6826 1.6335-4.9486 0-3.2199-1.6095-4.8526-1.5855-1.658-4.5883-1.658h-3.4352v13.14z"/>
  <path d="m618.9 2746.9h2.3782v17.177h-2.3782z"/>
  <path d="m632.31 2746.5q1.8737 0 3.3871 0.625 1.5375 0.6249 2.6185 1.8014 1.105 1.1769 1.6816 2.8351 0.57648 1.6335 0.57648 3.6752 0 2.0421-0.60051 3.6997-0.57654 1.6328-1.6575 2.8101-1.081 1.177-2.6184 1.8254-1.5134 0.6251-3.3871 0.6251-1.8738 0-3.4112-0.6251-1.5134-0.6484-2.5944-1.8254-1.081-1.1773-1.6816-2.8101-0.5765-1.6576-0.5765-3.6997 0-2.0417 0.5765-3.6752 0.57657-1.6582 1.6576-2.8351 1.1049-1.1765 2.6184-1.8014 1.5373-0.625 3.4112-0.625zm0 15.832q1.8016 0 3.0988-0.8172 1.2972-0.8409 1.9939-2.3781 0.69662-1.562 0.69662-3.6997 0-2.1372-0.69662-3.6752-0.69666-1.537-1.9939-2.3538-1.2972-0.8412-3.0988-0.8412-1.8017 0-3.0989 0.8412-1.2972 0.8168-1.9938 2.3538-0.69668 1.538-0.69668 3.6752 0 2.1377 0.69668 3.6997 0.6966 1.5372 1.9938 2.3781 1.2972 0.8172 3.0989 0.8172z"/>
  <g transform="matrix(.93545 0 0 .93545 -62.153 1911.7)">
   <path d="m523.25 927.29h24.92v6.72h-8.56v21.88h-7.8v-21.88h-8.56z"/>
   <path d="m561.3 940.57q-1.68 0-2.76 1.36v13.96h-7.48v-29.8h7.48v10.64q2.24-2.2 5.36-2.2 3.4 0 5.2 2.12 1.84 2.12 1.84 6.12v13.12h-7.48v-12.88q0-2.44-2.16-2.44z"/>
   <path d="m586.59 941.09q-1.44 0-2.52 0.52t-2 1.64v12.64h-7.48v-20.84h6.4l0.48 3.32q2.04-3.68 5.32-3.68 1.36 0 2.4 0.52v6.56q-0.52-0.36-1.2-0.52-0.64-0.16-1.4-0.16z"/>
   <path d="m608.99 955.05q-1.6 0.68-3.44 1-1.8 0.36-3.96 0.36-3.64 0-6.2-1.28-2.52-1.28-3.84-3.68-1.32-2.44-1.32-5.96 0-2.52 0.72-4.52 0.72-2.04 2.08-3.48t3.24-2.2q1.92-0.76 4.28-0.76 3 0 5.08 1.24 2.12 1.24 3.2 3.64t1.08 5.8v1.76h-12.6q0.32 2.12 1.6 3 1.28 0.84 3.88 0.84 1.8 0 3.24-0.32 1.48-0.36 2.96-1.16zm-8.52-15.44q-2.6 0-3.12 3.48h5.84q-0.16-1.84-0.84-2.64-0.64-0.84-1.88-0.84z"/>
   <path d="m630.95 955.05q-1.6 0.68-3.44 1-1.8 0.36-3.96 0.36-3.64 0-6.2-1.28-2.52-1.28-3.84-3.68-1.32-2.44-1.32-5.96 0-2.52 0.72-4.52 0.72-2.04 2.08-3.48t3.24-2.2q1.92-0.76 4.28-0.76 3 0 5.08 1.24 2.12 1.24 3.2 3.64t1.08 5.8v1.76h-12.6q0.32 2.12 1.6 3 1.28 0.84 3.88 0.84 1.8 0 3.24-0.32 1.48-0.36 2.96-1.16zm-8.52-15.44q-2.6 0-3.12 3.48h5.84q-0.16-1.84-0.84-2.64-0.64-0.84-1.88-0.84z"/>
   <path d="m657.6 956.49q-3.52 0-6.32-1-2.76-1.04-4.72-2.96-1.92-1.92-2.96-4.68-1-2.8-1-6.28 0-3.36 1.08-6.08 1.08-2.76 3.08-4.72 2.04-1.96 4.84-3 2.84-1.08 6.32-1.08 4.68 0 8.28 1.76v7.04q-1.56-1.04-3.36-1.56-1.76-0.52-3.72-0.52-4.04 0-6.24 2.12t-2.2 6.04 2.12 6.08q2.12 2.12 6.04 2.12 2.08 0 3.92-0.52 1.88-0.52 3.76-1.64v6.92q-1.8 0.92-4.08 1.44-2.24 0.52-4.84 0.52z"/>
   <path d="m679.22 934.53q3.28 0 5.68 1.36 2.4 1.32 3.68 3.8 1.32 2.44 1.32 5.8 0 2.48-0.76 4.52-0.72 2-2.12 3.44t-3.4 2.2q-1.96 0.76-4.4 0.76t-4.44-0.76q-1.96-0.76-3.36-2.2t-2.16-3.44q-0.72-2.04-0.72-4.52 0-3.36 1.28-5.8 1.32-2.48 3.72-3.8 2.4-1.36 5.68-1.36zm0 15.92q1.48 0 2.28-1.28 0.84-1.28 0.84-3.64 0-2.44-0.84-3.72-0.8-1.32-2.28-1.32t-2.32 1.32q-0.8 1.28-0.8 3.72 0 2.36 0.8 3.64 0.84 1.28 2.32 1.28z"/>
   <path d="m705.92 955.89-0.36-2.4q-2.44 2.92-6.04 2.92-3.4 0-5.2-2.08-1.76-2.12-1.76-6.08v-13.2h7.48v12.96q0 1.16 0.52 1.76 0.56 0.6 1.56 0.6 1.6 0 2.72-1.36v-13.96h7.48v20.84z"/>
   <path d="m726.33 940.57q-1.68 0-2.76 1.36v13.96h-7.48v-20.84h6.4l0.36 2.44q2.48-2.96 6.08-2.96 3.4 0 5.2 2.12 1.84 2.12 1.84 6.12v13.12h-7.48v-12.88q0-2.44-2.16-2.44z"/>
   <path d="m753.49 955.49q-1.16 0.44-2.44 0.68-1.24 0.24-2.6 0.24-3.76 0-5.72-1.88-1.92-1.92-1.92-5.56v-7.84h-3.16v-5.76h3.16v-4.88l7.48-1.64v6.52h4.8v5.76h-4.8v6.84q0 2.48 2.52 2.48 1.28 0 2.68-0.6z"/>
   <path d="m760.21 925.57q1.96 0 3.08 0.96 1.12 0.92 1.12 2.64t-1.12 2.68q-1.12 0.92-3.08 0.92t-3.08-0.92q-1.08-0.96-1.08-2.68t1.08-2.64q1.12-0.96 3.08-0.96zm-3.72 9.48h7.48v20.84h-7.48z"/>
   <path d="m785.7 955.05q-1.6 0.68-3.44 1-1.8 0.36-3.96 0.36-3.64 0-6.2-1.28-2.52-1.28-3.84-3.68-1.32-2.44-1.32-5.96 0-2.52 0.72-4.52 0.72-2.04 2.08-3.48t3.24-2.2q1.92-0.76 4.28-0.76 3 0 5.08 1.24 2.12 1.24 3.2 3.64t1.08 5.8v1.76h-12.6q0.32 2.12 1.6 3 1.28 0.84 3.88 0.84 1.8 0 3.24-0.32 1.48-0.36 2.96-1.16zm-8.52-15.44q-2.6 0-3.12 3.48h5.84q-0.16-1.84-0.84-2.64-0.64-0.84-1.88-0.84z"/>
   <path d="m796.57 956.41q-3.84 0-7.2-1.4v-5.68q1.52 0.88 3.2 1.36t3.2 0.48q1.56 0 2.28-0.36 0.76-0.36 0.76-1.08 0-0.68-0.68-0.96-0.68-0.32-1.68-0.56-2.68-0.64-4.32-1.48-1.6-0.84-2.32-2.12t-0.72-3.16q0-2.12 1.08-3.68 1.12-1.56 3.2-2.4t4.96-0.84q1.88 0 3.68 0.4 1.8 0.36 3.28 1.08v5.64q-1.28-0.88-2.92-1.36-1.6-0.52-3.12-0.52-1.4 0-2.2 0.36-0.76 0.36-0.76 1.04 0 0.4 0.2 0.68 0.24 0.24 0.76 0.44 0.56 0.16 1.52 0.4 2.6 0.56 4.2 1.44 1.64 0.84 2.36 2.12 0.76 1.28 0.76 3.12 0 2.28-1.16 3.88-1.12 1.56-3.24 2.36t-5.12 0.8z"/>
  </g>
 </g>
</svg>
