<svg version="1.1" viewBox="0 0 506.23 220" xmlns="http://www.w3.org/2000/svg">
 <path d="m12.304 162.36v21.045h-12.304v-57.876h21.126c7.6082 0 13.45 1.5924 17.525 4.7772 4.0733 3.1836 6.1105 7.7436 6.1118 13.68 0.31549 7.0281-3.8851 13.475-10.442 16.026 2.4277 3.8313 4.8289 7.6764 7.2034 11.535 2.3739 3.8588 4.7485 7.8114 7.1237 11.858h-14.327c-3.8857-7.1237-7.9058-14.139-12.06-21.045zm0-9.7937h8.0943c3.8307 0 6.7448-0.68774 8.7423-2.0632 1.9951-1.3785 2.9932-3.5508 2.9945-6.5169 0-2.9685-0.98471-5.1545-2.9541-6.5581-1.9706-1.4024-4.8713-2.1036-8.702-2.1036h-8.175zm85.071 30.838c-1.4042-4.2615-2.8072-8.4432-4.2089-12.545h-23.474c-1.4042 4.1539-2.8072 8.3357-4.2089 12.545h-13.355c3.6694-10.143 7.4066-20.046 11.212-29.707 3.8038-9.6571 7.6486-19.046 11.534-28.167h13.436c3.9926 9.6058 7.8915 19.252 11.696 28.939 3.805 9.6864 7.4882 19.332 11.049 28.936h-13.681zm-24.122-22.907h16.27c-1.2954-3.7781-2.6309-7.5416-4.0064-11.29-1.3761-3.7507-2.7387-7.4338-4.0879-11.049-2.8066 7.3913-5.5319 14.838-8.1759 22.34zm44.844-34.968h22.098c6.0971 0 11.318 1.1329 15.663 3.3987 4.2454 2.1708 7.7104 5.6086 9.9147 9.8367 2.267 4.2884 3.3999 9.4814 3.3987 15.579 0 6.0995-1.1463 11.32-3.439 15.663-2.2071 4.2563-5.668 7.7322-9.9146 9.9577-4.3183 2.2951-9.5526 3.4415-15.703 3.439h-22.017zm21.37 47.191c5.3944 0 9.5361-1.579 12.425-4.7369 2.8854-3.1549 4.3287-7.7014 4.3299-13.64 0-5.879-1.4164-10.371-4.2493-13.476-2.8335-3.1042-6.9752-4.6553-12.425-4.6535h-8.9852v36.506zm39.58-47.191h12.465v57.876h-12.465zm51.076-1.2154c4.0505-0.057 8.0747 0.65788 11.858 2.1063 3.4234 1.3286 6.5169 3.3859 9.0659 6.0293 2.5699 2.7169 4.5418 5.9423 5.7882 9.4683 2.6974 8.1059 2.6974 16.867 0 24.973-1.2449 3.5509-3.2162 6.8034-5.7882 9.5498-2.5387 2.6661-5.6342 4.7394-9.0659 6.0723-7.6567 2.8048-16.06 2.8048-23.717 0-3.4314-1.333-6.5265-3.4064-9.065-6.0723-2.5728-2.7463-4.5442-5.9992-5.7882-9.5508-2.697-8.1053-2.697-16.866 0-24.971 1.2452-3.5268 3.2171-6.7529 5.7882-9.4692 2.5484-2.6437 5.6416-4.7011 9.065-6.0293 3.7835-1.448 7.808-2.1628 11.859-2.1063zm0 49.458c2.9978 0.081 5.9534-0.7206 8.4995-2.3052 2.4283-1.6054 4.3179-3.9037 5.4234-6.5966 2.4809-6.7401 2.4809-14.143 0-20.883-1.0982-2.6873-2.9902-4.9755-5.4234-6.559-5.2636-3.0199-11.734-3.0199-16.998 0-2.434 1.5825-4.3264 3.871-5.4234 6.559-2.4833 6.7397-2.4833 14.144 0 20.883 1.1046 2.6934 2.9944 4.992 5.4234 6.5966 2.5456 1.5849 5.501 2.3865 8.4985 2.3052zm-230.12-137.05v73.367h73.367v-73.367zm51.164 51.777c-1.3576 1.8503-3.2176 3.2723-5.3592 4.0971-2.6654 1.0246-5.5063 1.5151-8.361 1.4436h-16.442v-41.269h15.487c4.5633 0 8.0986 0.91352 10.606 2.7406 2.505 1.8219 3.9196 4.7865 3.7598 7.8798 0.04453 1.7959-0.42245 3.5675-1.3465 5.1081-0.96909 1.5051-2.3528 2.6979-3.9844 3.4344 2.2188 0.66022 4.1727 2.0035 5.5838 3.8386 1.324 1.858 2.0039 4.098 1.9358 6.3785 0.06006 2.2616-0.59808 4.484-1.8799 6.3482zm-10.493-20.174c1.1573-0.97758 1.7905-2.4404 1.7113-3.9532 0-3.2704-2.2261-4.9055-6.6782-4.9055h-6.3409v10.274h6.3409c1.7698 0.12075 3.5262-0.37939 4.967-1.4143zm-3.901 7.8798h-7.4069v11.14h7.2951c2.0256 0.12538 4.0414-0.36819 5.78-1.4152 1.3335-0.9145 2.0979-2.4546 2.0201-4.0696 0-3.7714-2.5628-5.6568-7.6883-5.6562zm54.94-39.483v73.367h73.367v-73.367zm51.163 51.777c-1.3576 1.8504-3.2176 3.2723-5.3592 4.0971-2.6654 1.0246-5.5064 1.5151-8.361 1.4436h-16.442v-41.269h15.487c4.5634 0 8.0986 0.91352 10.606 2.7406 2.505 1.8219 3.9196 4.7865 3.7598 7.8798 0.0445 1.7959-0.42245 3.5675-1.3465 5.1081-0.96909 1.5051-2.3528 2.6979-3.9844 3.4344 2.2188 0.66022 4.1728 2.0035 5.5838 3.8386 1.324 1.858 2.0039 4.098 1.9358 6.3785 0.0601 2.2616-0.59802 4.4841-1.8799 6.3482zm-10.493-20.174c1.1573-0.97758 1.7905-2.4404 1.7112-3.9532 0-3.2704-2.2261-4.9055-6.6782-4.9055h-6.3409v10.274h6.3409c1.7698 0.12075 3.5262-0.37939 4.967-1.4143zm-3.901 7.8798h-7.4069v11.14h7.2951c2.0255 0.12566 4.0413-0.36759 5.78-1.4143 1.3335-0.9145 2.098-2.4546 2.0202-4.0696 0-3.7714-2.5628-5.6568-7.6883-5.6562zm54.94 33.884h73.367v-73.367h-73.367zm52.692-18.664c-1.8725 1.0052-3.8705 1.7566-5.9413 2.2346-2.328 0.55532-4.7139 0.83071-7.1072 0.82034-3.0322 0.0443-6.0486-0.44401-8.9119-1.4427-5.0964-1.7404-9.1118-5.724-10.893-10.806-1.008-2.8413-1.5012-5.8397-1.4564-8.8542-0.0433-2.9639 0.4706-5.9096 1.5151-8.6837 0.95839-2.506 2.4491-4.7741 4.3693-6.648 1.9562-1.8818 4.2888-3.3281 6.8441-4.2438 2.8699-1.0153 5.8973-1.5131 8.9412-1.4702 2.1848-0.01139 4.3638 0.226 6.4949 0.7076 1.9722 0.44731 3.8802 1.1411 5.6791 2.0651v8.0338c-1.5974-1.0574-3.3451-1.8679-5.1842-2.4042-1.9119-0.55339-3.8932-0.82965-5.8835-0.82034-2.5104-0.07269-5.0004 0.47113-7.252 1.5839-1.9659 1.0216-3.5719 2.6206-4.6022 4.582-1.1286 2.2629-1.6791 4.7702-1.6022 7.2978-0.0734 2.5299 0.45563 5.041 1.5435 7.3262 0.97835 1.9663 2.5462 3.5781 4.4848 4.6104 2.2097 1.1136 4.6622 1.6583 7.1356 1.5848 4.1778 0.02679 8.2777-1.1306 11.825-3.3382v7.8643z" fill="#fff" stroke-width="1.0026"/>
 <path d="m476.5 84.046h-12.991v54.542h12.87c8.2016 0 14.605-2.3996 19.032-7.1338 4.4042-4.7112 6.6361-11.546 6.6361-20.312 0-8.6901-2.1925-15.446-6.5169-20.08-4.3446-4.6562-10.748-7.0164-19.03-7.0164zm1.176 75.189h-34.753v-95.836h34.883c9.6755 0 18.066 1.8946 24.934 5.6324 1.1995 0.66201 2.363 1.3871 3.4858 2.1723-18.622-49.402-69.719-78.604-121.73-69.573-52.009 9.0312-90.251 53.747-91.132 106.53-0.88102 52.786 35.848 98.753 87.526 109.51 51.679 10.762 103.72-16.719 123.98-65.472-0.71677 0.46104-1.4491 0.912-2.2044 1.33-6.824 3.7809-15.234 5.6984-24.993 5.6984zm-51.672 25.525h-31.594v-115.21c-5.7598 2.9483-11.552 5.9669-17.377 9.0558-5.8289 3.0907-11.341 6.1099-16.535 9.0576v-29.067c5.6144-3.2294 11.863-6.6348 18.747-10.216 6.8781-3.5802 14.11-7.1961 21.695-10.848h25.064z" fill="#fff" stroke-width="1.0026"/>
</svg>
