<?xml version="1.0" encoding="UTF-8" standalone="no"?>
<svg xmlns="http://www.w3.org/2000/svg" height="239.05" width="600" version="1.1" viewBox="0 0 158.75 63.247853">
 <g transform="translate(-48.904 -87.392)">
  <g fill="#fff">
   <g fill-rule="evenodd">
    <path d="m78.881 89.234h13.005v12.246h-13.005zm8.1928 1.7052c-0.0552-0.012-0.114-0.016-0.1752-0.0322l-0.0692-0.008c-0.099-0.014-0.1958-0.0242-0.30186-0.0346-0.0692-0.008-0.1372-0.01-0.20738-0.014-0.1256-0.01-0.2408-0.012-0.35946-0.012-0.053 0-0.0864 0.002-0.1394 0.002-0.1026 0-0.1958 0.01-0.28574 0.014-0.0552 0.002-0.1094 0.008-0.1636 0.01-0.076 0.008-0.1498 0.014-0.22466 0.03l-0.0668 0.004-0.0714 0.008-0.083 0.016c-0.038 0.004-0.076 0.01-0.1118 0.0218-0.0508 0.006-0.1026 0.014-0.1532 0.0288-0.30532 0.0646-0.59566 0.1498-0.85142 0.25346-0.1394 0.053-0.27306 0.1128-0.39404 0.174-0.106 0.0484-0.20162 0.1014-0.29954 0.1578-0.0944 0.0506-0.1774 0.1072-0.26846 0.1602-0.0484 0.0368-0.0956 0.0692-0.1474 0.1038-0.0368 0.03-0.076 0.0564-0.1164 0.0864-0.0806 0.061-0.1636 0.1302-0.2385 0.1948-0.068 0.0634-0.1336 0.1256-0.20046 0.1866-0.053 0.053-0.1106 0.1072-0.1578 0.1706-0.0564 0.0564-0.1072 0.1152-0.1568 0.1798-0.0552 0.0634-0.1038 0.1302-0.1532 0.20278-0.0426 0.0508-0.0748 0.1038-0.1106 0.1602-0.0276 0.038-0.0496 0.0726-0.0692 0.1072-0.1394 0.22466-0.25578 0.462-0.35602 0.71318-0.1222 0.31798-0.20968 0.65902-0.25808 1.015-0.012 0.1176-0.023 0.23274-0.0312 0.35256-0.008 0.091-0.01 0.182-0.01 0.27306 0 0.0714 0 0.1406 0.002 0.20738 0.008 0.0702 0.016 0.137 0.023 0.21198l0.002 0.0508c0.012 0.083 0.0242 0.1624 0.0404 0.2431 0.008 0.0346 0.012 0.061 0.018 0.0956 0.014 0.0646 0.0312 0.128 0.0438 0.1948 0.0242 0.083 0.0484 0.166 0.0796 0.25002 0.0288 0.098 0.068 0.197 0.106 0.29264 0.0634 0.144 0.1326 0.28918 0.20392 0.42744 0.0438 0.0784 0.091 0.1544 0.1348 0.23272 0.038 0.0554 0.0784 0.1152 0.113 0.1716 0.0508 0.0714 0.1048 0.1406 0.1578 0.20738 0.053 0.0748 0.1118 0.136 0.1682 0.20508 0.068 0.0784 0.136 0.151 0.20624 0.2166l0.0346 0.0358c0.0576 0.053 0.1176 0.1118 0.1844 0.1762 0.0508 0.0368 0.099 0.0794 0.1544 0.1222 0.0472 0.038 0.099 0.0784 0.1544 0.1186 0.068 0.0472 0.1348 0.0898 0.20738 0.144 0.0818 0.0426 0.1624 0.0956 0.24426 0.1464 0.1752 0.0934 0.36408 0.1902 0.57492 0.27306 0.0748 0.0322 0.1568 0.0588 0.2431 0.0852 0.0806 0.0322 0.166 0.0588 0.25 0.083 0.152 0.0404 0.31108 0.083 0.47584 0.114 0.1314 0.0242 0.2742 0.0484 0.41476 0.0622 0.1428 0.018 0.28688 0.031 0.43898 0.0404 0.0772 0.004 0.152 0.004 0.22696 0.008h0.1094c0.2696 0 0.52308-0.008 0.7581-0.03l0.0484-0.006c0.0934-0.004 0.182-0.014 0.2673-0.0264 0.1394-0.018 0.26038-0.0368 0.3825-0.061 0.0772-0.008 0.152-0.0264 0.22352-0.0426 0.1152-0.0242 0.2166-0.0508 0.32376-0.0772 0.0714-0.02 0.144-0.0404 0.2166-0.0622 0.084-0.0208 0.1602-0.0484 0.23964-0.0772l0.0748-0.0242c0.038-0.012 0.0888-0.0322 0.1464-0.0564 0.0784-0.0288 0.1716-0.0634 0.27652-0.114 0.0692-0.0242 0.1382-0.0588 0.21084-0.0888 0.0588-0.0322 0.1278-0.0634 0.1958-0.0956 0.0266-0.012 0.0576-0.0322 0.0842-0.0404v-1.6729c-0.02 0.014-0.0392 0.0276-0.0576 0.0404l-0.114 0.0646c-0.114 0.075-0.22352 0.136-0.33528 0.1982-0.121 0.0634-0.24194 0.1268-0.35832 0.1866-0.20622 0.0898-0.4067 0.1728-0.5945 0.2454-0.36752 0.1278-0.69818 0.20854-0.99198 0.26154-0.038 0.006-0.0702 0.014-0.1048 0.02-0.0818 0.01-0.1602 0.0208-0.23618 0.0288-0.1152 0.014-0.22006 0.018-0.31684 0.0208-0.0692 0.004-0.121 0.01-0.1786 0.01-0.1176 0-0.2431-0.006-0.36638-0.012-0.1452-0.012-0.29034-0.0288-0.44358-0.053-0.2408-0.0426-0.48274-0.1048-0.71546-0.1878-0.0404-0.012-0.0726-0.0264-0.1072-0.0426-0.0242-0.006-0.045-0.014-0.0714-0.0288-0.0368-0.016-0.076-0.0288-0.114-0.0484-0.0842-0.0404-0.1624-0.083-0.24426-0.128-0.0346-0.0242-0.0726-0.045-0.1152-0.0668-0.0404-0.0264-0.0784-0.0506-0.1198-0.0806-0.0462-0.0288-0.0944-0.0692-0.1418-0.1038-0.046-0.0346-0.091-0.0772-0.1336-0.1094l-0.0518-0.0508-0.03-0.0242-0.014-0.012-0.018-0.0218c-0.0772-0.0726-0.1452-0.1498-0.21084-0.22468-0.0334-0.0392-0.0634-0.0852-0.1002-0.1278-0.0276-0.0426-0.0552-0.0806-0.0784-0.1232-0.0312-0.0404-0.06-0.0772-0.076-0.1198-0.0358-0.0564-0.0668-0.1128-0.1002-0.174-0.02-0.0506-0.0414-0.099-0.0646-0.1498-0.0346-0.083-0.0646-0.1706-0.0888-0.24772-0.022-0.0588-0.0392-0.129-0.0564-0.19-0.0392-0.1716-0.0634-0.32836-0.0784-0.46546-0.01-0.0552-0.01-0.1038-0.012-0.1464-0.001-0.0668-0.001-0.1232-0.001-0.1682v-0.1048c0.001-0.0956 0.014-0.2189 0.0288-0.35486 0.016-0.0852 0.0312-0.174 0.0564-0.2696 0.014-0.0646 0.0322-0.1232 0.0472-0.1902 0.022-0.0588 0.0404-0.1176 0.0702-0.1844 0.012-0.0368 0.0288-0.0794 0.0496-0.1198 0.0254-0.0564 0.0496-0.113 0.0806-0.1682 0.0218-0.045 0.0484-0.0876 0.0714-0.1314 0.0576-0.0934 0.1164-0.189 0.189-0.27996 0.023-0.0404 0.0496-0.0692 0.0772-0.1048 0.0346-0.0404 0.0714-0.0876 0.1118-0.1256 0.018-0.0208 0.0404-0.0414 0.061-0.0668 0.30762-0.30646 0.6498-0.53114 1.0035-0.69474 0.0552-0.023 0.114-0.0506 0.167-0.0714 0.061-0.0242 0.114-0.0426 0.174-0.0646 0.0552-0.018 0.1198-0.0322 0.1844-0.053 0.0554-0.018 0.121-0.0322 0.1762-0.046 0.06-0.012 0.1222-0.0264 0.1786-0.0368 0.061-0.01 0.1232-0.018 0.1902-0.03 0.0646-0.006 0.1278-0.012 0.1936-0.018 0.121-0.01 0.23848-0.018 0.3537-0.018 0.046 0 0.0818 0 0.1176 0.006 0.091 0 0.1716 0.002 0.25346 0.006 0.0564 0.006 0.114 0.006 0.1706 0.012 0.1026 0.01 0.20854 0.0242 0.30302 0.0426 0.084 0.008 0.1694 0.0242 0.2477 0.0368 0.1186 0.0242 0.22812 0.0508 0.32952 0.0806 0.06 0.016 0.1176 0.0288 0.174 0.0484 0.0772 0.023 0.1486 0.045 0.20278 0.061 0.0898 0.0346 0.144 0.053 0.144 0.053 0.0796 0.03 0.1614 0.0646 0.23964 0.0968 0.1094 0.0404 0.20854 0.083 0.30532 0.1302 0.0794 0.038 0.1556 0.0726 0.22926 0.1048 0.0588 0.0346 0.1152 0.061 0.167 0.0876 0.091 0.0484 0.1694 0.0944 0.2339 0.1232l0.1658 0.0934v-1.6372s-0.1014-0.045-0.27536-0.1118c-0.0796-0.0276-0.1716-0.06-0.27766-0.0968-0.0588-0.0242-0.1186-0.046-0.1866-0.0668-0.0518-0.016-0.1026-0.0368-0.1578-0.0508-0.0646-0.0242-0.1232-0.045-0.1936-0.0692-0.0484-0.008-0.0968-0.0264-0.151-0.0426l-0.046-0.01c-0.045-0.014-0.0934-0.0254-0.1418-0.0438-0.061-0.01-0.1256-0.0288-0.1808-0.0484-0.0404-0.004-0.083-0.014-0.1232-0.0208-0.0646-0.016-0.1278-0.0346-0.1948-0.0484-0.0668-0.01-0.1336-0.0242-0.20624-0.0368"/>
    <path d="m68.887 96.004v2.4045h1.56s0.0312-0.004 0.076-0.004c0.06-0.002 0.1324-0.006 0.22582-0.012 0.1648-0.016 0.39056-0.0426 0.60948-0.1198 0.1948-0.0646 0.38366-0.1636 0.52882-0.30992 0.0564-0.0564 0.1038-0.1152 0.144-0.174 0.1176-0.1958 0.1498-0.39056 0.1578-0.50232 0.001-0.046 0.001-0.0748 0.001-0.0748s0.002-0.0208 0-0.0564c0-0.0484-0.004-0.1382-0.0312-0.23388-0.0266-0.1164-0.0818-0.24656-0.1808-0.36984-0.02-0.018-0.0426-0.0426-0.0634-0.0668-0.0414-0.0426-0.0864-0.083-0.1372-0.1256-0.0876-0.0552-0.1854-0.114-0.29148-0.1578-0.1382-0.061-0.29726-0.106-0.47354-0.1406-0.0842-0.016-0.1808-0.0322-0.27536-0.0358-0.0576-0.01-0.1152-0.01-0.1774-0.014-0.0542-0.006-0.113-0.006-0.1682-0.006z"/>
    <path d="m68.887 92.346v2.2766h0.87094c0.0564 0 0.1106 0 0.1682-0.008 0.1578-0.012 0.3733-0.0346 0.5853-0.091 0.045-0.014 0.0888-0.0264 0.1268-0.0404 0.1694-0.0634 0.32836-0.1464 0.46084-0.2719 0.098-0.099 0.1636-0.20854 0.20624-0.31338 0.0554-0.1336 0.075-0.25578 0.0796-0.3468 0.008-0.083 0.008-0.1256 0.008-0.1256s0-0.0404-0.002-0.099c-0.006-0.099-0.0242-0.26154-0.1026-0.41362-0.0392-0.0772-0.091-0.1498-0.1624-0.22006-0.0864-0.0794-0.1866-0.1486-0.2961-0.197-0.2143-0.0968-0.46086-0.1302-0.66248-0.1418-0.091-0.008-0.174-0.008-0.2408-0.008z"/>
    <path d="m63.893 89.234h13.008v12.246h-13.008zm3.4115 1.7178v8.8184h3.3216s1.6188 0.0404 2.5105-0.84912c0.72698-0.7293 0.67514-1.5715 0.67514-1.5715s0.0518-0.87446-0.621-1.5542c-0.57606-0.56916-1.3065-0.72354-1.3065-0.72354s0.33066-0.152 0.58414-0.41132c0.1186-0.1198 0.54264-0.50002 0.54264-1.4263 0-0.93784-0.62446-1.4782-0.62446-1.4782s-0.6832-0.80418-2.2202-0.80418z"/>
    <path d="m53.897 96.004v2.4045h1.5623s0.03-0.004 0.0806-0.004c0.0508-0.002 0.1278-0.006 0.22006-0.012 0.167-0.016 0.38826-0.0426 0.60718-0.1198 0.1948-0.0646 0.38596-0.1636 0.53574-0.30992 0.0542-0.0564 0.098-0.1152 0.1382-0.174 0.1176-0.1958 0.1498-0.39056 0.1578-0.50232 0.004-0.046 0.004-0.0748 0.004-0.0748v-0.0564c-0.004-0.0484-0.01-0.1382-0.0312-0.23388-0.0312-0.1164-0.0852-0.24656-0.1832-0.36984-0.018-0.018-0.0392-0.0426-0.06-0.0668-0.046-0.0426-0.091-0.083-0.1394-0.1256-0.0888-0.0552-0.1866-0.114-0.29148-0.1578-0.1406-0.061-0.29726-0.106-0.47238-0.1406-0.083-0.016-0.1762-0.0322-0.27536-0.0358-0.0552-0.01-0.1176-0.01-0.1762-0.014-0.053-0.006-0.1128-0.006-0.1658-0.006z"/>
    <path d="m53.897 92.346v2.2766h0.8734c0.0506 0 0.1176 0 0.1706-0.008 0.1532-0.012 0.37216-0.0346 0.5853-0.091 0.0426-0.014 0.0806-0.0264 0.1256-0.0404 0.167-0.0634 0.3295-0.1464 0.45394-0.2719 0.1002-0.099 0.1658-0.20854 0.212-0.31338 0.0506-0.1336 0.0738-0.25578 0.0794-0.3468 0.008-0.083 0.008-0.1256 0.008-0.1256v-0.099c-0.008-0.099-0.0266-0.26152-0.1048-0.4136-0.0392-0.0772-0.0944-0.1498-0.159-0.22006-0.0888-0.0794-0.1924-0.1486-0.30762-0.197-0.2097-0.0968-0.45164-0.1302-0.66018-0.1418-0.0864-0.008-0.167-0.008-0.23274-0.008z"/>
    <path d="m48.904 89.234h13.008v12.246h-13.008zm3.4126 1.7178v8.8184h3.3193s1.6188 0.0404 2.5128-0.84912c0.72586-0.7293 0.67286-1.5715 0.67286-1.5715s0.053-0.87446-0.61986-1.5542c-0.5772-0.56916-1.3077-0.72354-1.3077-0.72354s0.3318-0.152 0.58528-0.41132c0.1198-0.1198 0.54496-0.50002 0.54496-1.4263 0-0.93784-0.62446-1.4782-0.62446-1.4782s-0.6786-0.80418-2.2179-0.80418z"/>
    <path d="m50.356 105.76h0.93668c1.4056 0 1.9748 0.57952 1.9874 1.5277 0.012 0.84796-0.4309 1.6487-1.9874 1.6487h-0.93668zm-1.4517-1.2443v10.119h1.4517v-4.3896h0.60948c0.74428 0 1.3492 0.23274 2.6879 2.3135l1.3353 2.0762h1.7328c-0.69474-0.96204-0.9482-1.3065-1.3814-2.0013-0.76964-1.2639-1.3353-2.1983-2.2513-2.8055 1.0819-0.43204 1.6913-1.3054 1.6913-2.4782 0-1.7524-1.2777-2.8342-3.3239-2.8342z"/>
    <path d="m61.477 106.68 1.6337 3.6603h-3.1465zm0.53576-2.2282h-1.0289l-4.3459 10.178h1.4828l1.28-2.9806h4.3009l1.3515 2.9806h1.4793z"/>
    <path d="m69.198 105.82h2.2351c2.8389 0 4.1281 1.7236 4.1281 3.7559 0 1.2455-0.7558 3.7514-4.0486 3.7514h-2.3146zm-1.454 8.8127h3.9461c3.3389 0 5.369-2.4633 5.369-5.0567 0-2.3907-1.6464-5.0625-5.3839-5.0625h-3.9311z"/>
   </g>
   <path d="m78.63 114.63h1.6637v-10.119h-1.6637z"/>
   <path d="m83.362 109.57c0-2.2282 1.6787-3.8573 3.9345-3.8573 2.2697 0 3.9461 1.6291 3.9461 3.8573 0 2.2063-1.6764 3.8551-3.9461 3.8551-2.2559 0-3.9345-1.6487-3.9345-3.8551m-1.4978 0c0 2.7409 2.0934 5.1904 5.4024 5.1904 3.4253 0 5.4738-2.4656 5.4738-5.1904 0-2.8204-2.105-5.1961-5.4438-5.1961-3.279 0-5.4323 2.3884-5.4323 5.1961" fill-rule="evenodd"/>
  </g>
  <path d="m137.06 111.3c2.1729 0 3.9415-1.7685 3.9415-3.9403 0-2.1775-1.7685-3.9426-3.9415-3.9426-2.1729 0-3.9449 1.7651-3.9449 3.9426 0 2.1718 1.772 3.9403 3.9449 3.9403m14.174 9.3657c-0.0276-2.6476-0.36638-5.15-0.98852-7.437-0.35026-1.2823-0.79844-2.4898-1.3238-3.5958-1.1878-2.484-2.8008-4.4426-4.7883-5.8667 0.0714 0.1394 0.1544 0.2696 0.22466 0.41248 0.44242 0.93668 0.67862 1.9782 0.67862 3.0416 0 0.1176-0.002 0.2408-0.012 0.36408-0.083 1.5761-0.64866 3.0739-1.6476 4.3355-0.50464 0.63598-1.1003 1.1832-1.7708 1.6372-1.2616 0.85258-2.7225 1.3019-4.2214 1.3019-0.67746 0-1.3572-0.099-2.0335-0.29956-3.181-0.9482-5.7699-3.8977-8.2792-6.7457l-0.27528-0.31568c-1.969-2.2386-4.203-4.7791-6.2446-4.8217-0.20392-0.008-0.42054 0.01-0.62216 0.0588-0.66362 0.1498-1.3077 0.5611-1.9805 1.2558-0.24078 0.2454-0.48966 0.53458-0.7293 0.85258l-0.63022 0.90212c-0.60946 0.93552-1.5081 2.4875-2.3262 4.5763-0.30876 0.78114-0.57836 1.5738-0.79958 2.3596-0.50578 1.7282-0.81226 3.4622-0.924 5.1477-0.0218 0.45164-0.0438 0.90788-0.0438 1.3538 0 0.1152 0.006 0.2362 0.006 0.35026 0.016 0.71316 0.0634 1.4275 0.1498 2.1211l0.1568 1.0208c0.2189 1.2604 0.57492 2.5036 1.0473 3.6926 0.29956 0.74542 0.65096 1.4897 1.0508 2.2086l0.4309 0.74542c0.25346 0.41478 0.52422 0.82032 0.80418 1.2155 0.33412 0.47928 0.6959 0.9482 1.0842 1.4102l0.86526 0.97816c0.76616 0.82032 1.6164 1.6199 2.5831 2.4229-0.9194-1.6291-2.1614-3.908-2.9149-6.4001-0.4355-1.4321-0.6521-2.7571-0.6521-3.976 0-2.7916 1.1383-5.0083 3.3976-6.6248 1.9874-1.4206 4.1684-1.8307 6.4842-1.2236 2.3388 0.61178 4.839 2.2651 7.6628 5.0487 0.82378 0.818 1.6856 1.7363 2.628 2.8112 1.1452 1.3008 2.2282 2.6153 3.2732 3.8838 1.4655 1.7766 2.8412 3.4518 3.9967 4.5844 0.3514 0.33872 0.66248 0.61408 0.95282 0.83874 0.45164 0.35026 0.82724 0.55302 1.121 0.60948 0.50232 0.0934 1.0127-0.35486 1.2708-0.63136 0.1682-0.1808 0.34102-0.3998 0.515-0.65096l0.43896-0.727 0.26154-0.52076c0.25346-0.5369 0.49426-1.1464 0.71316-1.8112 0.38482-1.1406 0.69474-2.4183 0.93208-3.7905l0.182-1.1948c0.114-0.86526 0.1994-1.7559 0.24886-2.6395 0.0368-0.62216 0.053-1.2535 0.053-1.878 0-0.1278-0.006-0.25924-0.006-0.39058" fill="#a7be0f"/>
  <path d="m163.49 118.81c-0.1164-17.465-14.369-31.529-31.833-31.413-17.465 0.1164-31.529 14.369-31.413 31.835 0.1176 17.464 14.369 31.528 31.833 31.412 7.1398-0.0484 13.709-2.4598 18.976-6.4865 0.1084-0.0794 0.182-0.20162 0.1808-0.34564-0.001-0.23964-0.197-0.43204-0.43666-0.43088-0.1716 0.001-0.27306 0.0922-0.27306 0.0922-4.9046 3.7053-10.999 5.9231-17.62 5.9669-16.342 0.1094-29.678-13.05-29.786-29.392-0.1094-16.343 13.05-29.679 29.392-29.788 16.342-0.1082 29.678 13.051 29.787 29.393 0.0218 3.3493-0.51384 6.5718-1.5185 9.58h0.001c-0.016 0.0484-0.0266 0.099-0.0254 0.152 0.001 0.26614 0.21892 0.48044 0.48506 0.47814 0.31914-0.001 0.4574-0.32144 0.4574-0.32144 1.1832-3.355 1.8181-6.9681 1.7927-10.731" fill="#a7be0f"/>
  <g fill="#fff">
   <path d="m161.69 143.72c-0.78344 0-2.7259-0.1832-3.8331-1.8791-0.55648-0.85258-0.727-1.6003-0.727-3.2006v-5.6939h1.5785v5.7549c0 1.4056 0.1912 2.0819 0.7604 2.6776 0.5346 0.56224 1.3238 0.87102 2.2213 0.87102 1.7801 0 2.4759-1.159 2.6465-1.5151 0.1982-0.4021 0.30532-1.1245 0.30532-2.0335v-5.7549h1.5773v5.6939c0 1.469-0.1498 2.2248-0.5945 2.9956-0.27996 0.4885-1.3918 2.0842-3.9345 2.0842"/>
   <path d="m174.24 143.59h-6.3852v-10.642h1.5773v9.1998h4.8079v1.2132z"/>
   <path d="m178.1 143.72c-0.93208 0-1.901-0.33412-2.8031-0.96548l-0.0968-0.068v-2.0485l0.39056 0.39172c0.45624 0.45624 1.3849 1.2201 2.4806 1.2201 1.3664 0 1.666-1.0634 1.666-1.4736 0-0.45394 0-1.0185-2.1533-2.0335-1.7317-0.8134-2.4713-1.7098-2.4713-2.999 0-1.6983 1.3641-2.9287 3.2444-2.9287 1.2316 0 2.0589 0.49082 2.4126 0.69936l0.113 0.068v1.856l-0.3664-0.27306c-0.3848-0.28574-1.1844-0.88138-2.1752-0.88138-1.651 0-1.6694 1.3249-1.6694 1.3388 0 0.89406 0.95626 1.3756 1.7996 1.7985 1.9252 0.95396 2.8308 1.5888 2.8308 3.2778 0 1.9621-1.6499 3.0209-3.2018 3.0209"/>
   <path d="m187.12 143.59h-1.5773v-9.1987h-3.673v-1.4437h8.9256v1.4436h-3.6753v8.9694z"/>
   <path d="m197.99 143.59h-6.2504v-10.642h6.1317v1.4436h-4.5544v3.1119h4.4196v1.4425h-4.4196v3.2018h4.6731v1.2132z"/>
   <path d="m200.77 137.49h1.083c0.7846 0 2.1026-0.20278 2.1026-1.56 0-0.9897-0.74774-1.5347-2.1026-1.5347h-1.083zm6.8886 6.104h-1.9161l-0.0668-0.1072-0.96664-1.5393c-0.4286-0.6717-0.8664-1.2985-1.3031-1.8619-0.59796-0.76156-1.0934-1.1498-2.1338-1.1498h-0.50234v4.6581h-1.5773v-10.642h2.8262c3.3285 0 3.5878 2.2674 3.5878 2.9621 0 1.1464-0.5634 2.0393-1.5969 2.5497 0.63252 0.5415 1.1901 1.4206 2.2351 3.0624 0.38134 0.61062 0.60372 0.924 1.007 1.492l0.151 0.21428z"/>
  </g>
 </g>
</svg>
