<?xml version="1.0" encoding="UTF-8" standalone="no"?>
<!-- Created with Inkscape (http://www.inkscape.org/) -->

<svg
   xmlns:dc="http://purl.org/dc/elements/1.1/"
   xmlns:cc="http://creativecommons.org/ns#"
   xmlns:rdf="http://www.w3.org/1999/02/22-rdf-syntax-ns#"
   xmlns:svg="http://www.w3.org/2000/svg"
   xmlns="http://www.w3.org/2000/svg"
   xmlns:sodipodi="http://sodipodi.sourceforge.net/DTD/sodipodi-0.dtd"
   xmlns:inkscape="http://www.inkscape.org/namespaces/inkscape"
   version="1.1"
   id="svg815"
   width="1184"
   height="235"
   viewBox="0 0 1184 235"
   sodipodi:docname="BBCRadioNewcastle.default.svg"
   inkscape:version="0.92.2 (5c3e80d, 2017-08-06)">
  <metadata
     id="metadata821">
    <rdf:RDF>
      <cc:Work
         rdf:about="">
        <dc:format>image/svg+xml</dc:format>
        <dc:type
           rdf:resource="http://purl.org/dc/dcmitype/StillImage" />
        <dc:title></dc:title>
      </cc:Work>
    </rdf:RDF>
  </metadata>
  <defs
     id="defs819">
    <clipPath
       id="clipPath140-4">
      <path
         inkscape:connector-curvature="0"
         d="m 33.625,28.775 h 186.196 v 81.777 H 33.625 Z"
         id="path142-0" />
    </clipPath>
  </defs>
  <sodipodi:namedview
     pagecolor="#ffffff"
     bordercolor="#666666"
     borderopacity="1"
     objecttolerance="10"
     gridtolerance="10"
     guidetolerance="10"
     inkscape:pageopacity="0"
     inkscape:pageshadow="2"
     inkscape:window-width="1920"
     inkscape:window-height="1017"
     id="namedview817"
     showgrid="false"
     inkscape:zoom="0.96102398"
     inkscape:cx="502.57438"
     inkscape:cy="179.90954"
     inkscape:window-x="1272"
     inkscape:window-y="-8"
     inkscape:window-maximized="1"
     inkscape:current-layer="svg815"
     fit-margin-top="0"
     fit-margin-left="0"
     fit-margin-right="0"
     fit-margin-bottom="0" />
  <g
     id="g848"
     transform="translate(-1.2736834,-116.86404)">
    <path
       inkscape:connector-curvature="0"
       style="fill:#000000;fill-opacity:1;fill-rule:nonzero;stroke:none;stroke-width:6.71008444"
       id="path144"
       d="m 230.49018,118.45173 h 99.43674 v 93.6191 h -99.43674 z m 62.65206,13.02427 c -0.42274,-0.0738 -0.87903,-0.12078 -1.33531,-0.23485 l -0.53681,-0.0671 c -0.75153,-0.10065 -1.49635,-0.18117 -2.30156,-0.26169 -0.5368,-0.0671 -1.05348,-0.0805 -1.58358,-0.10737 -0.95954,-0.0738 -1.85198,-0.10065 -2.75113,-0.10065 -0.40932,0 -0.6643,0.0268 -1.0669,0.0268 -0.78508,0 -1.49635,0.0738 -2.1942,0.10065 -0.41603,0.0134 -0.83205,0.0604 -1.24137,0.0805 -0.58378,0.0604 -1.14742,0.10065 -1.71778,0.22143 l -0.50997,0.0403 -0.55022,0.0671 -0.63075,0.11407 c -0.28853,0.047 -0.58378,0.0872 -0.85218,0.16775 -0.3959,0.0604 -0.78508,0.1275 -1.17427,0.22815 -2.34182,0.48312 -4.55614,1.14071 -6.51549,1.93921 -1.06019,0.40932 -2.08013,0.85218 -3.01283,1.32189 -0.80521,0.36905 -1.54332,0.77837 -2.28814,1.20781 -0.72468,0.38919 -1.36214,0.81863 -2.05328,1.22795 -0.36906,0.28182 -0.73811,0.53009 -1.12059,0.7985 -0.28853,0.22143 -0.58377,0.42944 -0.89244,0.65088 -0.62403,0.4697 -1.25478,0.9998 -1.82514,1.48964 -0.52339,0.48983 -1.01993,0.96625 -1.53661,1.42924 -0.4026,0.40932 -0.84547,0.81863 -1.20781,1.30847 -0.42274,0.42945 -0.81192,0.87902 -1.20111,1.36886 -0.41603,0.48983 -0.78508,0.9998 -1.16755,1.55003 -0.32209,0.38918 -0.57036,0.7985 -0.84548,1.22794 -0.21472,0.28854 -0.37576,0.55023 -0.53009,0.81863 -1.0602,1.71778 -1.94593,3.52951 -2.71759,5.4553 -0.93941,2.42905 -1.60371,5.03927 -1.97276,7.76357 -0.10065,0.89244 -0.18117,1.77146 -0.24156,2.69074 -0.047,0.69785 -0.0738,1.38899 -0.0738,2.08684 0,0.55023 0,1.08032 0.0268,1.59029 0.047,0.53681 0.10736,1.04677 0.16775,1.61713 l 0.0201,0.38247 c 0.10065,0.63746 0.18788,1.24808 0.30866,1.86541 0.0604,0.26169 0.10065,0.4697 0.14091,0.7314 0.10736,0.48983 0.23486,0.97967 0.34222,1.48964 0.18117,0.63745 0.36905,1.2682 0.5972,1.90566 0.22143,0.75153 0.52338,1.50977 0.81863,2.24117 0.47641,1.10716 1.01322,2.20762 1.55003,3.27452 0.3355,0.59049 0.69784,1.18097 1.03335,1.77146 0.29524,0.42945 0.60391,0.88573 0.8656,1.30847 0.38918,0.55694 0.7985,1.08032 1.20781,1.597 0.40932,0.57036 0.8589,1.03335 1.28834,1.57016 0.51668,0.59049 1.04006,1.14742 1.57687,1.65068 l 0.26169,0.2684 c 0.43616,0.40932 0.89916,0.85889 1.40912,1.34873 0.38919,0.28853 0.75153,0.61733 1.18098,0.93941 0.36234,0.28854 0.75824,0.59049 1.18097,0.90586 0.51668,0.36235 1.02664,0.69114 1.58358,1.10046 0.62404,0.32208 1.24137,0.7314 1.87211,1.12058 1.33531,0.71127 2.78469,1.44938 4.39511,2.08684 0.57036,0.24156 1.1944,0.44286 1.85869,0.65088 0.61062,0.24156 1.26821,0.44957 1.91238,0.63074 1.16084,0.30867 2.37537,0.63746 3.63686,0.87902 1.00652,0.18118 2.09355,0.36906 3.17387,0.46971 1.09375,0.14091 2.1942,0.24827 3.34834,0.30866 0.59048,0.0403 1.16755,0.0403 1.73791,0.0604 h 0.83876 c 2.05999,0 4.00592,-0.0604 5.79751,-0.22814 l 0.36906,-0.0403 c 0.71798,-0.0403 1.38898,-0.12078 2.04657,-0.2013 1.0602,-0.14091 1.9929,-0.28853 2.91889,-0.46971 0.59049,-0.0604 1.16084,-0.2013 1.71107,-0.32879 0.88573,-0.18117 1.65739,-0.38919 2.47602,-0.59049 0.55023,-0.14091 1.10046,-0.30195 1.65739,-0.4697 0.63746,-0.16776 1.22124,-0.36906 1.83857,-0.5972 l 0.57035,-0.18117 c 0.28854,-0.10066 0.67101,-0.24157 1.11388,-0.42945 0.6039,-0.22143 1.31517,-0.48984 2.11367,-0.87231 0.5301,-0.18788 1.0602,-0.45629 1.61042,-0.67772 0.44958,-0.24827 0.97968,-0.48984 1.50306,-0.73811 0.20131,-0.0805 0.44287,-0.24156 0.64417,-0.30866 v -12.78271 c -0.15433,0.10065 -0.30866,0.20801 -0.44286,0.30866 l -0.87903,0.48313 c -0.8656,0.58377 -1.70436,1.04677 -2.56325,1.51648 -0.91257,0.48983 -1.84527,0.97967 -2.73771,1.42924 -1.57016,0.69114 -3.10677,1.3286 -4.53602,1.87883 -2.81153,0.97967 -5.34794,1.59029 -7.59582,2.00631 -0.28182,0.0403 -0.53009,0.10065 -0.7985,0.14091 -0.62403,0.0738 -1.22123,0.16105 -1.80501,0.22815 -0.87902,0.10065 -1.68423,0.14091 -2.41563,0.15433 -0.53681,0.0268 -0.9327,0.0671 -1.37557,0.0671 -0.89244,0 -1.85869,-0.0403 -2.7981,-0.0805 -1.11388,-0.10065 -2.22104,-0.22814 -3.38859,-0.40932 -1.84528,-0.32879 -3.69726,-0.7985 -5.47543,-1.43595 -0.30867,-0.10066 -0.55023,-0.20802 -0.81863,-0.3288 -0.18118,-0.0537 -0.34222,-0.11407 -0.55023,-0.21472 -0.27511,-0.12749 -0.57036,-0.22814 -0.8656,-0.36906 -0.64417,-0.30866 -1.24137,-0.63745 -1.87212,-0.97967 -0.2684,-0.18788 -0.55022,-0.34892 -0.87902,-0.50996 -0.30195,-0.20131 -0.6039,-0.3959 -0.91928,-0.61733 -0.34221,-0.22144 -0.71798,-0.5301 -1.08032,-0.79179 -0.34893,-0.26841 -0.69114,-0.5972 -1.01993,-0.84547 l -0.3959,-0.38248 -0.22814,-0.18117 -0.12078,-0.10065 -0.13421,-0.17446 c -0.59048,-0.54352 -1.11387,-1.14072 -1.61713,-1.71108 -0.25498,-0.30195 -0.48312,-0.65758 -0.76495,-0.97967 -0.21472,-0.32879 -0.41602,-0.61733 -0.6039,-0.94612 -0.23486,-0.30195 -0.44958,-0.59049 -0.57707,-0.91257 -0.2684,-0.42945 -0.50997,-0.85889 -0.76495,-1.3286 -0.14762,-0.38247 -0.32208,-0.75824 -0.48984,-1.14742 -0.2684,-0.63075 -0.49654,-1.29505 -0.67771,-1.89225 -0.17447,-0.44957 -0.30867,-0.98638 -0.44287,-1.45608 -0.29524,-1.30847 -0.47642,-2.50958 -0.59049,-3.54964 -0.0671,-0.42944 -0.0671,-0.7985 -0.10065,-1.12058 -0.0134,-0.51668 -0.0134,-0.94613 -0.0134,-1.29505 v -0.79179 c 0.0134,-0.74482 0.11407,-1.68423 0.22814,-2.71758 0.12079,-0.65088 0.23486,-1.33531 0.42945,-2.06671 0.11407,-0.48984 0.24827,-0.93941 0.36905,-1.44938 0.16105,-0.44957 0.30196,-0.89915 0.5301,-1.40241 0.10065,-0.28853 0.22143,-0.61732 0.37577,-0.92599 0.19459,-0.42944 0.38247,-0.85889 0.61732,-1.28833 0.17447,-0.34222 0.37577,-0.67101 0.54352,-0.99981 0.44287,-0.71127 0.89244,-1.44937 1.44938,-2.14722 0.18117,-0.30196 0.37576,-0.52339 0.59049,-0.79179 0.26169,-0.30867 0.55022,-0.67101 0.85889,-0.95955 0.14091,-0.16775 0.30195,-0.32208 0.46299,-0.51667 2.34853,-2.34853 4.96546,-4.0596 7.67634,-5.30768 0.41602,-0.18117 0.8656,-0.38918 1.27492,-0.55023 0.4697,-0.18788 0.8656,-0.32879 1.32859,-0.48983 0.42945,-0.14091 0.91928,-0.24828 1.40912,-0.40932 0.42945,-0.14762 0.9327,-0.24827 1.34873,-0.34892 0.45628,-0.10065 0.9327,-0.2013 1.36885,-0.28854 0.46971,-0.0805 0.93942,-0.14091 1.44938,-0.22143 0.49655,-0.0604 0.97967,-0.10065 1.48293,-0.14091 0.92599,-0.0805 1.82514,-0.14091 2.70417,-0.14091 0.34892,0 0.62403,0 0.89915,0.0403 0.69785,0 1.30846,0.0201 1.93921,0.0604 0.42945,0.0403 0.8656,0.0403 1.30176,0.0805 0.78508,0.0805 1.59029,0.18117 2.31498,0.32208 0.64416,0.0671 1.29504,0.18789 1.89895,0.28854 0.89915,0.18788 1.73791,0.38918 2.50957,0.61733 0.463,0.12078 0.89915,0.22143 1.33531,0.36234 0.59049,0.18788 1.14071,0.34893 1.55003,0.46971 0.69114,0.2684 1.10045,0.40931 1.10045,0.40931 0.61062,0.22143 1.23466,0.48984 1.83857,0.73811 0.83876,0.30195 1.597,0.63075 2.32839,0.9998 0.61733,0.28854 1.1944,0.55023 1.75805,0.7985 0.44957,0.2617 0.87902,0.46971 1.28162,0.67101 0.69114,0.36906 1.28834,0.71127 1.78489,0.93941 l 1.26149,0.71127 v -12.5143 c 0,0 -0.77166,-0.34893 -2.10025,-0.8589 -0.60391,-0.20801 -1.30847,-0.45628 -2.1271,-0.7381 -0.44958,-0.18789 -0.90586,-0.34893 -1.42925,-0.50326 -0.38918,-0.12749 -0.77837,-0.28853 -1.20781,-0.38919 -0.48984,-0.19459 -0.93271,-0.34892 -1.47622,-0.5368 -0.36906,-0.0671 -0.7314,-0.20131 -1.15414,-0.3288 l -0.34892,-0.0738 c -0.34893,-0.10736 -0.71798,-0.19459 -1.08704,-0.32879 -0.46299,-0.0805 -0.95954,-0.22814 -1.38227,-0.37577 -0.30867,-0.0336 -0.63746,-0.11407 -0.93942,-0.16104 -0.48983,-0.12078 -0.98638,-0.26169 -1.49634,-0.36234 -0.50997,-0.0872 -1.01994,-0.18789 -1.57016,-0.29525" />
    <g
       id="g146"
       transform="matrix(6.7100846,0,0,-6.7100846,154.07171,170.21332)">
      <path
         inkscape:connector-curvature="0"
         style="fill:#000000;fill-opacity:1;fill-rule:nonzero;stroke:none"
         id="path148"
         d="m 0,0 v -2.74 h 1.778 c 0,0 0.035,0.003 0.086,0.003 0.068,0.004 0.152,0.009 0.258,0.016 0.187,0.019 0.445,0.049 0.694,0.136 0.223,0.073 0.437,0.186 0.603,0.353 0.063,0.065 0.118,0.132 0.164,0.198 0.134,0.223 0.171,0.445 0.18,0.572 0.002,0.053 0.002,0.086 0.002,0.086 0,0 10e-4,0.024 0,0.064 0,0.055 -0.005,0.158 -0.036,0.268 -0.03,0.131 -0.094,0.28 -0.207,0.42 -0.022,0.021 -0.048,0.049 -0.071,0.076 -0.047,0.049 -0.099,0.094 -0.157,0.143 -0.1,0.064 -0.212,0.131 -0.332,0.18 -0.158,0.07 -0.339,0.122 -0.54,0.161 -0.096,0.018 -0.205,0.037 -0.314,0.04 -0.065,0.012 -0.13,0.012 -0.202,0.018 C 1.845,0 1.778,0 1.714,0 Z" />
    </g>
    <g
       id="g150"
       transform="matrix(6.7100846,0,0,-6.7100846,154.07171,142.24368)">
      <path
         inkscape:connector-curvature="0"
         style="fill:#000000;fill-opacity:1;fill-rule:nonzero;stroke:none"
         id="path152"
         d="m 0,0 v -2.594 h 0.858 0.135 c 0.064,0 0.126,0 0.191,0.009 0.18,0.012 0.425,0.039 0.667,0.103 0.052,0.015 0.101,0.031 0.145,0.046 0.193,0.073 0.374,0.168 0.525,0.31 0.111,0.114 0.186,0.238 0.234,0.356 0.064,0.153 0.086,0.293 0.092,0.397 0.009,0.094 0.009,0.143 0.009,0.143 0,0 0,0.046 -0.003,0.112 -0.006,0.113 -0.028,0.299 -0.117,0.473 -0.045,0.087 -0.104,0.17 -0.184,0.249 -0.1,0.092 -0.214,0.17 -0.339,0.225 C 1.97,-0.061 1.688,-0.022 1.459,-0.009 1.355,0 1.261,0 1.184,0 Z" />
    </g>
    <path
       inkscape:connector-curvature="0"
       style="fill:#000000;fill-opacity:1;fill-rule:nonzero;stroke:none;stroke-width:6.71008444"
       id="path154"
       d="m 115.89535,118.45173 h 99.45688 v 93.6191 h -99.45688 z m 26.0821,13.13163 V 199.013 h 25.39767 c 0,0 12.38011,0.30867 19.19755,-6.49536 5.55595,-5.57608 5.16006,-12.01105 5.16006,-12.01105 0,0 0.39589,-6.69666 -4.75074,-11.89027 -4.40182,-4.35484 -9.99132,-5.53582 -9.99132,-5.53582 0,0 2.53641,-1.16084 4.47563,-3.14032 0.89915,-0.91928 4.14683,-3.82475 4.14683,-10.9106 0,-7.17308 -4.77758,-11.29978 -4.77758,-11.29978 0,0 -5.22045,-6.14644 -16.97651,-6.14644 z" />
    <g
       id="g156"
       transform="matrix(6.7100846,0,0,-6.7100846,39.456077,170.21332)">
      <path
         inkscape:connector-curvature="0"
         style="fill:#000000;fill-opacity:1;fill-rule:nonzero;stroke:none"
         id="path158"
         d="m 0,0 v -2.74 h 1.781 c 0,0 0.033,0.003 0.091,0.003 0.058,0.004 0.146,0.009 0.251,0.016 0.191,0.019 0.443,0.049 0.692,0.136 0.222,0.073 0.439,0.186 0.61,0.353 0.062,0.065 0.112,0.132 0.158,0.198 0.134,0.223 0.17,0.445 0.18,0.572 0.005,0.053 0.005,0.086 0.005,0.086 v 0.064 c -0.005,0.055 -0.01,0.158 -0.036,0.268 -0.035,0.131 -0.097,0.28 -0.208,0.42 -0.02,0.021 -0.045,0.049 -0.069,0.076 -0.052,0.049 -0.104,0.094 -0.158,0.143 -0.101,0.064 -0.213,0.131 -0.332,0.18 -0.161,0.07 -0.34,0.122 -0.539,0.161 -0.095,0.018 -0.201,0.037 -0.313,0.04 C 2.049,-0.012 1.979,-0.012 1.912,-0.006 1.851,0 1.782,0 1.723,0 Z" />
    </g>
    <g
       id="g160"
       transform="matrix(6.7100846,0,0,-6.7100846,39.456077,142.24368)">
      <path
         inkscape:connector-curvature="0"
         style="fill:#000000;fill-opacity:1;fill-rule:nonzero;stroke:none"
         id="path162"
         d="m 0,0 v -2.594 h 0.861 0.134 c 0.057,0 0.134,0 0.194,0.009 0.175,0.012 0.424,0.039 0.668,0.103 0.049,0.015 0.091,0.031 0.143,0.046 0.19,0.073 0.375,0.168 0.517,0.31 0.115,0.114 0.189,0.238 0.242,0.356 0.057,0.153 0.084,0.293 0.091,0.397 0.008,0.094 0.008,0.143 0.008,0.143 v 0.112 c -0.008,0.113 -0.03,0.299 -0.12,0.473 -0.044,0.087 -0.106,0.17 -0.18,0.249 -0.102,0.092 -0.22,0.17 -0.351,0.225 -0.239,0.11 -0.514,0.149 -0.753,0.162 C 1.357,0 1.265,0 1.189,0 Z" />
    </g>
    <path
       inkscape:connector-curvature="0"
       style="fill:#000000;fill-opacity:1;fill-rule:nonzero;stroke:none;stroke-width:6.71008444"
       id="path164"
       d="M 1.2736834,118.45173 H 100.74398 v 93.6191 H 1.2736834 Z M 27.362492,131.58336 V 199.013 h 25.39096 c 0,0 12.380106,0.30867 19.210972,-6.49536 5.54924,-5.57608 5.146635,-12.01105 5.146635,-12.01105 0,0 0.402605,-6.69666 -4.73732,-11.89027 -4.415235,-4.35484 -9.998026,-5.53582 -9.998026,-5.53582 0,0 2.529702,-1.16084 4.475627,-3.14032 0.912571,-0.91928 4.166962,-3.82475 4.166962,-10.9106 0,-7.17308 -4.78429,-11.29978 -4.78429,-11.29978 0,0 -5.186895,-6.14644 -16.956384,-6.14644 z" />
  </g>
  <g
     aria-label="NEWCASTLE"
     style="font-style:normal;font-variant:normal;font-weight:bold;font-stretch:normal;font-size:136.59712219px;line-height:1.25;font-family:'Gill Sans MT';-inkscape-font-specification:'Gill Sans MT Bold';letter-spacing:0px;word-spacing:0px;opacity:1;fill:#000000;fill-opacity:1;stroke:none;stroke-width:1.42288673"
     id="text912"
     transform="translate(-1.2736834,-116.86404)">
    <path
       d="m 94.652959,258.82042 v 91.86003 H 75.386682 L 24.623659,291.82954 v 58.85091 H 1.7408457 V 258.82042 H 22.716758 l 49.053388,56.15495 v -56.15495 z"
       style="font-size:134.66667175px;letter-spacing:0.13px;stroke-width:1.42288673"
       id="path924"
       inkscape:connector-curvature="0" />
    <path
       d="m 190.71929,333.84712 v 16.83333 h -67.72787 v -91.86003 h 66.8073 v 16.83333 h -43.92448 v 19.26628 h 41.88606 v 16.83334 h -41.88606 v 22.09375 z"
       style="font-size:134.66667175px;letter-spacing:0.13px;opacity:1;stroke-width:1.42288673"
       id="path926"
       inkscape:connector-curvature="0" />
    <path
       d="m 277.11071,291.96105 -28.40625,59.90299 h -9.86328 l -40.3737,-93.04362 h 24.26367 l 21.63347,50.76302 23.60612,-50.76302 h 18.41146 l 23.60612,50.76302 21.50195,-50.76302 h 24.26367 l -40.24219,93.04362 h -9.86328 z"
       style="font-size:134.66667175px;letter-spacing:0.13px;stroke-width:1.42288673"
       id="path928"
       inkscape:connector-curvature="0" />
    <path
       d="m 446.37009,322.66873 v 20.05534 q -17.22787,9.13997 -36.09962,9.13997 -24.46093,0 -38.99284,-13.47981 -14.46614,-13.54558 -14.46614,-33.3379 0,-19.79231 15.25521,-33.60091 15.32096,-13.80859 39.97917,-13.80859 19.6608,0 33.27213,8.08789 v 20.44987 q -16.70182,-9.403 -31.62825,-9.403 -14.66342,0 -24.00066,7.89063 -9.27148,7.82487 -9.27148,19.98958 0,12.23047 9.13997,20.18685 9.20573,7.95638 23.54037,7.95638 7.10156,0 13.67708,-1.84114 6.57552,-1.9069 19.59506,-8.28516 z"
       style="font-size:134.66667175px;letter-spacing:0.13px;stroke-width:1.42288673"
       id="path930"
       inkscape:connector-curvature="0" />
    <path
       d="m 517.71397,258.82042 40.76823,91.86003 h -24.59245 l -7.56185,-18.14844 h -41.097 l -6.83854,18.14844 h -24.26368 l 37.02019,-91.86003 z m 1.84115,57.66732 -14.79492,-35.70508 -13.47982,35.70508 z"
       style="font-size:134.66667175px;letter-spacing:0.13px;stroke-width:1.42288673"
       id="path932"
       inkscape:connector-curvature="0" />
    <path
       d="m 630.87818,264.73839 v 17.95117 q -18.27995,-8.2194 -29.12956,-8.2194 -6.18099,0 -9.86328,2.10417 -3.61653,2.03841 -3.61653,5.45768 0,2.63021 2.6302,4.9974 2.63021,2.36718 12.82227,6.11523 10.19206,3.74805 16.30729,6.97005 6.11524,3.22201 10.52084,9.07422 4.47135,5.85222 4.47135,14.79492 0,12.75652 -9.73177,20.31836 -9.66602,7.56185 -25.51302,7.56185 -17.09636,0 -33.14063,-8.87695 v -19.79232 q 9.20573,6.18099 16.30729,9.00847 7.10157,2.82747 15.05795,2.82747 13.47982,0 13.47982,-8.48242 0,-2.89323 -2.69597,-5.45768 -2.69596,-2.56446 -13.01953,-6.24675 -10.25781,-3.68229 -16.30729,-6.83854 -5.98373,-3.15625 -10.38933,-9.00847 -4.33984,-5.85221 -4.33984,-14.99218 0,-11.83594 9.53451,-19.06901 9.5345,-7.29883 25.51302,-7.29883 14.72917,0 31.10221,7.10156 z"
       style="font-size:134.66667175px;letter-spacing:0.13px;stroke-width:1.42288673"
       id="path934"
       inkscape:connector-curvature="0" />
    <path
       d="m 732.07494,258.82042 v 16.83333 H 698.8028 v 75.0267 h -22.88281 v -75.0267 h -33.27214 v -16.83333 z"
       style="font-size:134.66667175px;letter-spacing:0.13px;stroke-width:1.42288673"
       id="path936"
       inkscape:connector-curvature="0" />
    <path
       d="m 815.32048,333.84712 v 16.83333 h -70.0293 v -91.86003 h 22.88281 v 75.0267 z"
       style="font-size:134.66667175px;letter-spacing:0.13px;stroke-width:1.42288673"
       id="path938"
       inkscape:connector-curvature="0" />
    <path
       d="m 896.26363,333.84712 v 16.83333 h -67.72787 v -91.86003 h 66.8073 v 16.83333 h -43.92448 v 19.26628 h 41.88607 v 16.83334 h -41.88607 v 22.09375 z"
       style="font-size:134.66667175px;letter-spacing:0.13px;stroke-width:1.42288673"
       id="path940"
       inkscape:connector-curvature="0" />
  </g>
</svg>
