<?xml version="1.0" encoding="UTF-8" standalone="no"?>
<svg
   viewBox="0 0 512 183.55049"
   version="1.1"
   id="svg4"
   width="512"
   height="183.55049"
   xmlns="http://www.w3.org/2000/svg"
   xmlns:svg="http://www.w3.org/2000/svg">
  <defs
     id="defs8" />
    <g fill="#FFF">
<path
     d="M 53.476066,0 V 55.859164 H 109.33523 V 0 Z m 38.622622,39.42061 c -0.957586,1.436378 -2.393964,2.553561 -4.149538,3.191952 -2.074769,0.797988 -4.149538,1.117183 -6.383904,1.117183 H 69.116632 V 12.129418 h 11.810223 c 2.872757,-0.159597 5.745514,0.638391 8.139478,2.234367 1.915172,1.436378 3.032355,3.670745 2.872757,6.064709 0,1.436379 -0.319195,2.713159 -0.957585,3.830343 -0.797988,1.117183 -1.755574,2.074769 -3.032355,2.553562 1.755574,0.478792 3.191952,1.595976 4.309136,2.872756 0.957585,1.436379 1.595976,3.191953 1.436378,4.787929 0,1.755573 -0.478793,3.511147 -1.595976,4.947526 z M 84.118807,24.099239 c 0.957586,-0.797988 1.436379,-1.915171 1.276781,-3.032354 0,-2.553562 -1.755573,-3.670745 -5.107123,-3.670745 h -4.787929 v 7.820282 h 4.787929 c 1.436378,0 2.872757,-0.319195 3.830342,-1.117183 z m -2.872757,5.905112 h -5.585916 v 8.458673 h 5.585916 c 1.595977,0.159598 3.032355,-0.319195 4.468734,-1.117183 0.957585,-0.638391 1.595976,-1.915172 1.595976,-3.032355 -0.319196,-2.872757 -2.234367,-4.309135 -6.06471,-4.309135 z M 123.22022,0 v 55.859164 h 55.85917 V 0 Z m 38.62262,39.42061 c -0.95758,1.436378 -2.39396,2.553561 -4.14953,3.191952 -2.07477,0.797988 -4.14954,1.117183 -6.38391,1.117183 H 138.86079 V 12.129418 h 11.81022 c 2.87276,-0.159597 5.74552,0.638391 8.13948,2.234367 1.91517,1.436378 3.03235,3.670745 2.87276,6.064709 0,1.436379 -0.3192,2.713159 -0.95759,3.830343 -0.79799,1.117183 -1.75557,2.074769 -3.03235,2.553562 1.75557,0.478792 3.19195,1.595976 4.30913,2.872756 0.95759,1.436379 1.59598,3.191953 1.43638,4.787929 0,1.755573 -0.47879,3.511147 -1.59598,4.947526 z m -7.97988,-15.321371 c 0.95759,-0.797988 1.43638,-1.915171 1.27678,-3.032354 0,-2.553562 -1.75557,-3.670745 -5.10712,-3.670745 h -4.78793 v 7.820282 h 4.78793 c 1.43638,0 2.87276,-0.319195 3.83034,-1.117183 z m -2.87275,5.905112 h -5.58592 v 8.458673 h 5.58592 c 1.59597,0.159598 3.03235,-0.319195 4.46873,-1.117183 0.95759,-0.638391 1.59598,-1.915172 1.59598,-3.032355 -0.1596,-2.872757 -2.23437,-4.309135 -6.06471,-4.309135 z m 41.97417,25.854813 h 55.85916 V 0 h -55.85916 z m 40.2186,-14.204188 c -1.43638,0.797988 -2.87276,1.276781 -4.46874,1.755574 -1.75557,0.478793 -3.51114,0.63839 -5.42632,0.63839 -2.23436,0 -4.62833,-0.319195 -6.7031,-1.117183 -1.91517,-0.63839 -3.67074,-1.755574 -5.10712,-3.191952 -1.43638,-1.436379 -2.55356,-3.191952 -3.19195,-5.107124 -0.79799,-2.234366 -1.11718,-4.468733 -1.11718,-6.703099 0,-2.234367 0.31919,-4.468733 1.11718,-6.543502 0.79799,-1.915172 1.91517,-3.670745 3.35155,-5.107124 1.43638,-1.436378 3.19195,-2.553562 5.26672,-3.191952 2.23437,-0.797988 4.46873,-1.117183 6.8627,-1.117183 1.59597,0 3.35155,0.159597 4.94752,0.478793 1.43638,0.319195 2.87276,0.797988 4.30914,1.595976 v 6.064709 c -1.27678,-0.797988 -2.55356,-1.436379 -3.98994,-1.755574 -1.43638,-0.478793 -3.03236,-0.63839 -4.46873,-0.63839 -1.91518,0 -3.83035,0.319195 -5.58592,1.276781 -1.43638,0.797988 -2.71316,1.915171 -3.51115,3.511147 -0.79799,1.755574 -1.27678,3.670745 -1.27678,5.585916 0,1.915172 0.3192,3.830343 1.11718,5.585917 0.79799,1.436378 1.91518,2.713159 3.35155,3.511147 1.75558,0.797988 3.51115,1.276781 5.42632,1.276781 3.19195,0 6.22431,-0.797988 8.93747,-2.553562 z m 46.92169,-7.97988 v 15.161773 h -8.93746 V 7.0222948 h 15.32137 c 5.42632,0 9.73545,1.1171833 12.60821,3.5111472 3.03235,2.393964 4.62833,6.064709 4.46873,9.895052 0,2.553562 -0.63839,4.947526 -1.91517,7.022295 -1.43638,2.074769 -3.35155,3.511147 -5.58592,4.468733 1.75558,2.713159 3.51115,5.585916 5.26673,8.299076 1.75557,2.713159 3.51114,5.585916 5.10712,8.618271 h -10.37385 c -2.87275,-5.107124 -5.74551,-10.214247 -8.77786,-15.161773 z m 0,-7.181893 h 5.90512 c 2.23436,0.159598 4.46873,-0.319195 6.3839,-1.436378 1.43638,-1.117183 2.23437,-2.872757 2.23437,-4.787929 0.15959,-1.915171 -0.63839,-3.670745 -2.07477,-4.787928 -1.91517,-1.117183 -4.14954,-1.595976 -6.22431,-1.595976 h -5.90511 z m 61.76428,22.343666 c -0.95759,-3.032355 -2.07477,-6.064709 -3.03236,-9.097064 h -16.91734 c -0.95759,3.032355 -2.07477,6.064709 -3.03236,9.097064 h -9.57585 c 2.71316,-7.34149 5.42632,-14.523383 8.13947,-21.545678 2.71316,-7.022295 5.58592,-13.725394 8.29908,-20.4284938 h 9.73545 c 2.87276,7.0222948 5.74552,13.8849918 8.45868,20.9072868 2.71316,7.022295 5.42632,14.04459 7.97988,20.907287 H 341.86895 Z M 324.47281,32.238717 h 11.81022 l -2.87275,-8.139478 c -0.95759,-2.713159 -1.91518,-5.426319 -3.03236,-7.97988 -2.07477,5.426318 -3.98994,10.69304 -5.90511,16.119358 z M 356.87112,7.0222948 h 15.95977 c 3.98994,-0.1595976 7.82028,0.7979881 11.33143,2.3939642 3.03235,1.595976 5.58591,3.98994 7.18189,7.181892 1.75557,3.511148 2.55356,7.341491 2.39396,11.331431 0.1596,3.98994 -0.79799,7.820283 -2.55356,11.33143 -1.59598,3.032355 -4.14954,5.585916 -7.18189,7.181893 -3.51115,1.755573 -7.34149,2.553561 -11.33143,2.553561 H 356.71153 V 7.0222948 Z m 15.48097,34.1538882 c 3.35155,0.159598 6.7031,-0.957585 8.93747,-3.351549 2.23437,-2.71316 3.35155,-6.224307 3.19195,-9.895052 0.3192,-3.511148 -0.79799,-7.022295 -3.03235,-9.735454 -2.39397,-2.393965 -5.58592,-3.670745 -8.93747,-3.35155 h -6.5435 V 41.176183 Z M 400.92006,7.0222948 h 8.93747 V 48.836869 h -8.93747 z m 36.86705,-0.9575856 c 2.87276,0 5.90511,0.4787928 8.61827,1.5959761 2.55357,0.9575856 4.78793,2.3939637 6.54351,4.3091357 1.91517,1.915171 3.35155,4.309135 4.14953,6.862697 0.95759,2.872757 1.43638,5.905112 1.43638,9.097064 0,3.032354 -0.47879,6.064709 -1.43638,8.937466 -0.95758,2.553562 -2.39396,4.947526 -4.14953,6.862697 -1.91518,1.915171 -4.14954,3.35155 -6.54351,4.309136 -5.58591,2.074769 -11.65062,2.074769 -17.07694,0 -2.55356,-0.957586 -4.78793,-2.393965 -6.5435,-4.309136 -1.91517,-1.915171 -3.35155,-4.309135 -4.14954,-6.862697 -0.95759,-2.872757 -1.43638,-5.905112 -1.43638,-8.937466 0,-3.032355 0.47879,-6.064709 1.43638,-9.097064 0.95758,-2.553562 2.39396,-4.947526 4.14954,-6.862697 1.91517,-1.915172 4.14953,-3.3515501 6.5435,-4.3091357 2.71316,-1.1171833 5.58592,-1.5959761 8.45867,-1.5959761 z m 0,35.7498648 c 2.23437,0 4.30914,-0.478793 6.06471,-1.595976 1.75558,-1.117184 3.19195,-2.872757 3.98994,-4.787929 0.95759,-2.393964 1.43638,-4.947525 1.27678,-7.501087 0,-2.553562 -0.31919,-5.107124 -1.27678,-7.501088 -0.79799,-1.915171 -2.23436,-3.670745 -3.98994,-4.787928 -3.83034,-2.234367 -8.45867,-2.234367 -12.28901,0 -1.75558,1.117183 -3.19196,2.872757 -3.98994,4.787928 -0.95759,2.393964 -1.43638,4.947526 -1.27679,7.501088 0,2.553562 0.3192,5.107123 1.27679,7.501087 0.79798,1.915172 2.23436,3.670745 3.98994,4.787929 1.91517,1.117183 4.14953,1.755573 6.2243,1.595976 z"
     id="path2" />
  <path
     d="m 41.825441,183.53725 c -7.820283,0.1596 -15.480968,-1.43638 -22.503263,-4.94752 C 13.097871,175.39777 8.1503448,170.29065 4.9583926,164.22594 1.4472452,157.04405 -0.1487309,149.22377 0.01086671,141.40348 V 83.629148 H 21.077751 v 60.008702 c 0,6.8627 1.755574,12.28902 5.426319,15.95976 3.670745,3.67075 8.777869,5.58592 15.321371,5.58592 6.703099,0 11.810223,-1.91517 15.32137,-5.58592 3.670745,-3.67074 5.426319,-8.93747 5.426319,-15.95976 V 83.629148 h 21.066885 v 57.774332 c 0.159597,7.82029 -1.436379,15.64057 -4.947526,22.66286 -3.191953,6.22431 -8.299076,11.17184 -14.363785,14.36379 -7.022295,3.51115 -14.68298,5.26672 -22.503263,5.10712 z M 99.120983,83.629148 h 21.066887 v 79.479612 h 46.28331 v 18.35372 H 99.120983 Z M 207.80696,183.53725 c -5.42632,0 -10.69304,-0.63839 -15.95976,-1.75557 -5.26673,-1.11719 -10.37385,-3.03236 -15.16178,-5.58592 v -18.99211 c 9.25666,5.74551 20.1093,8.93746 30.96194,8.93746 6.22431,0 10.85264,-1.11718 14.20419,-3.19195 3.03235,-1.75557 4.94752,-5.10712 4.78792,-8.77787 0.1596,-2.39396 -0.79798,-4.78793 -2.39396,-6.7031 -1.75557,-1.75557 -3.98994,-3.03235 -6.3839,-3.83034 -2.87276,-1.11718 -5.90512,-1.91517 -8.93747,-2.71316 -4.78793,-1.11718 -9.57586,-2.55356 -14.20419,-4.30914 -3.67074,-1.43637 -7.18189,-3.35155 -10.37384,-5.74551 -2.71316,-2.07477 -4.94753,-4.94753 -6.38391,-8.13948 -1.59597,-3.51115 -2.23436,-7.34149 -2.23436,-11.33143 -0.1596,-5.74551 1.43638,-11.33143 4.78792,-15.959759 3.35155,-4.628331 7.97989,-8.299076 13.4062,-10.373845 6.54351,-2.553562 13.5658,-3.830342 20.4285,-3.670745 5.10712,0 10.21425,0.638391 15.32137,1.755574 4.62833,1.117183 9.25666,2.713159 13.5658,4.787928 v 18.513327 c -4.30914,-2.55357 -8.77787,-4.46874 -13.5658,-5.74552 -4.94753,-1.276779 -10.05465,-2.074767 -15.32137,-2.074767 -5.58592,0 -9.89505,0.957586 -12.92741,2.872757 -2.87276,1.75557 -4.62833,4.78793 -4.62833,8.13948 -0.1596,2.23436 0.63839,4.46873 2.23437,6.06471 1.75557,1.75557 3.83034,2.87275 6.2243,3.67074 2.71316,0.95759 5.90512,1.91517 9.57586,2.87276 4.62833,1.11718 8.93747,2.55356 12.92741,3.83034 3.83034,1.27678 7.34149,3.03236 10.53344,5.42632 3.03235,2.07477 5.42632,4.94753 7.18189,8.29908 1.75558,3.83034 2.71316,8.13947 2.55356,12.44861 0.1596,5.90511 -1.43637,11.65063 -4.78792,16.59815 -3.51115,4.78793 -8.29908,8.45867 -13.885,10.53344 -6.7031,3.03236 -14.20418,4.30914 -21.54567,4.14954 z m 46.6025,-99.908102 h 82.51196 v 18.353722 h -30.80234 v 79.47961 H 285.0522 V 101.98287 H 254.24986 V 83.629148 Z m 93.5242,0 h 67.19059 v 17.555732 h -46.28331 v 21.22649 h 41.01659 v 17.55573 h -41.01659 v 24.09924 h 48.83687 v 17.55574 h -69.74415 z m 102.78086,62.243072 v 35.59026 H 429.96683 V 83.629148 h 35.74986 c 12.92741,0 22.66286,2.713159 29.52556,8.139478 6.8627,5.426319 10.37385,13.087004 10.37385,23.141654 0.47879,11.81022 -6.54351,22.82246 -17.71534,27.13159 4.14954,6.54351 8.13948,12.92741 12.12942,19.47091 3.98994,6.5435 7.97988,13.2466 11.96982,20.1093 h -24.25884 c -6.5435,-11.96982 -13.40619,-23.93964 -20.42849,-35.59027 z m 0,-16.59816 h 13.72539 c 6.54351,0 11.33143,-1.11718 14.84258,-3.51114 3.35155,-2.39397 5.10712,-6.06471 5.10712,-11.01224 0,-4.94752 -1.59597,-8.77787 -4.94752,-11.01223 -3.35155,-2.39397 -8.29908,-3.51115 -14.68298,-3.51115 h -13.88499 z"
     fill="#28a000"
     id="path825" />
  </g>
</svg>
