<?xml version="1.0" encoding="UTF-8" standalone="no"?>
<svg
   viewBox="0 0 544.45996 179.694"
   version="1.1"
   id="svg828"
   width="544.45996"
   height="179.694"
   xmlns="http://www.w3.org/2000/svg"
   xmlns:svg="http://www.w3.org/2000/svg">
  <defs
     id="defs832" />
    <g fill="#FFF">
<path
     d="m 76.039,104.198 a 32.853,32.853 0 0 0 -11.761,7.822 34.672,34.672 0 0 0 -7.508,12.286 51.279,51.279 0 0 0 0,32.393 35.103,35.103 0 0 0 7.508,12.39 32.496,32.496 0 0 0 11.76,7.875 44.705,44.705 0 0 0 30.766,0 32.516,32.516 0 0 0 11.76,-7.875 35.124,35.124 0 0 0 7.507,-12.39 51.279,51.279 0 0 0 0,-32.393 34.693,34.693 0 0 0 -7.508,-12.286 32.872,32.872 0 0 0 -11.76,-7.822 44.694,44.694 0 0 0 -30.764,0 z m 4.356,58.433 a 18.771,18.771 0 0 1 -7.034,-8.557 39.185,39.185 0 0 1 0,-27.09 18.46,18.46 0 0 1 7.034,-8.506 22.138,22.138 0 0 1 22.05,0 18.489,18.489 0 0 1 7.036,8.506 39.207,39.207 0 0 1 0,27.09 18.8,18.8 0 0 1 -7.035,8.557 21.805,21.805 0 0 1 -22.05,0 z m 119.281,15.488 q -6.198,-9.868 -12.707,-19.635 -6.51,-9.766 -13.23,-19.425 6.195,-8.923 12.128,-17.956 5.933,-9.03 11.709,-18.06 h -18.797 q -3.465,6.3 -7.14,12.443 -3.676,6.142 -7.455,12.022 -3.887,-5.984 -7.507,-12.128 -3.623,-6.142 -7.088,-12.337 h -19.215 q 5.67,9.031 11.655,18.165 5.985,9.136 12.285,18.06 -6.93,9.765 -13.336,19.425 -6.405,9.663 -12.704,19.426 h 18.795 q 3.78,-6.93 7.98,-13.86 4.197,-6.93 8.715,-13.86 4.41,6.827 8.61,13.755 4.197,6.93 8.085,13.965 z m 10.395,0 h 16.169 v -29.715 h 29.925 v -13.44 H 226.24 v -18.48 h 33.915 v -13.44 h -50.084 z m 78.697,-73.92 a 32.852,32.852 0 0 0 -11.761,7.822 34.672,34.672 0 0 0 -7.508,12.285 51.279,51.279 0 0 0 0,32.393 35.103,35.103 0 0 0 7.508,12.39 32.496,32.496 0 0 0 11.76,7.875 44.705,44.705 0 0 0 30.766,0 32.516,32.516 0 0 0 11.76,-7.875 35.106,35.106 0 0 0 7.508,-12.39 51.279,51.279 0 0 0 0,-32.393 34.675,34.675 0 0 0 -7.509,-12.286 32.872,32.872 0 0 0 -11.76,-7.822 44.694,44.694 0 0 0 -30.764,0 z m 4.356,58.432 a 18.771,18.771 0 0 1 -7.034,-8.557 39.185,39.185 0 0 1 0,-27.09 18.46,18.46 0 0 1 7.034,-8.506 22.138,22.138 0 0 1 22.05,0 18.489,18.489 0 0 1 7.036,8.506 39.207,39.207 0 0 1 0,27.09 18.801,18.801 0 0 1 -7.035,8.557 21.805,21.805 0 0 1 -22.05,0 z m 85.68,-11.813 h 1.577 q 8.083,13.442 15.644,27.3 h 18.585 q -4.621,-7.874 -9.239,-15.382 -4.623,-7.506 -9.346,-14.962 a 22.524,22.524 0 0 0 10.027,-8.086 22.291,22.291 0 0 0 3.519,-12.704 q 0,-11.551 -7.928,-17.746 -7.93,-6.194 -22.733,-6.195 h -27.404 v 75.076 h 15.96 v -27.3 z m -11.339,-35.07 h 10.606 q 7.453,0 11.286,2.73 3.832,2.731 3.834,8.506 0,5.775 -3.886,8.452 -3.885,2.677 -11.34,2.678 h -10.5 z m 56.594,62.37 h 28.56 q 11.969,0 20.37,-4.462 a 30.34,30.34 0 0 0 12.863,-12.915 q 4.463,-8.45 4.464,-20.317 0,-11.864 -4.41,-20.214 a 29.798,29.798 0 0 0 -12.865,-12.757 q -8.453,-4.41 -20.317,-4.41 h -28.665 z m 16.17,-13.86 v -47.355 h 11.655 q 10.604,0 16.118,6.038 5.513,6.04 5.512,17.483 0,11.55 -5.618,17.692 -5.618,6.143 -16.117,6.142 z"

     id="path824" />
  <path
     d="m 0,0.001 v 75 h 75 v -75 z m 51.927,52.93 a 12.254,12.254 0 0 1 -5.478,4.188 22.274,22.274 0 0 1 -8.548,1.475 H 21.094 V 16.407 h 15.832 q 6.998,0 10.842,2.802 a 9.363,9.363 0 0 1 3.844,8.054 9.68,9.68 0 0 1 -1.377,5.222 9.482,9.482 0 0 1 -4.073,3.511 11.246,11.246 0 0 1 5.708,3.924 10.684,10.684 0 0 1 1.979,6.52 10.94,10.94 0 0 1 -1.922,6.49 z M 41.2,32.307 a 4.953,4.953 0 0 0 1.75,-4.042 q 0,-5.014 -6.827,-5.015 h -6.482 v 10.503 h 6.482 A 7.79,7.79 0 0 0 41.2,32.307 Z m -3.987,8.054 h -7.572 v 11.388 h 7.457 a 10.227,10.227 0 0 0 5.909,-1.446 4.767,4.767 0 0 0 2.065,-4.16 q 0,-5.781 -7.86,-5.782 z M 93.75,0 v 75 h 75 V 0 Z m 51.927,52.93 a 12.254,12.254 0 0 1 -5.478,4.188 22.274,22.274 0 0 1 -8.548,1.475 H 114.844 V 16.407 h 15.832 q 6.998,0 10.842,2.802 a 9.363,9.363 0 0 1 3.844,8.054 9.68,9.68 0 0 1 -1.377,5.222 9.482,9.482 0 0 1 -4.073,3.511 11.246,11.246 0 0 1 5.708,3.924 10.684,10.684 0 0 1 1.979,6.52 10.94,10.94 0 0 1 -1.922,6.49 z M 134.95,32.307 a 4.953,4.953 0 0 0 1.75,-4.042 q 0,-5.014 -6.827,-5.015 h -6.482 v 10.503 h 6.482 a 7.79,7.79 0 0 0 5.077,-1.446 z m -3.987,8.054 h -7.572 v 11.388 h 7.457 a 10.227,10.227 0 0 0 5.909,-1.446 4.767,4.767 0 0 0 2.065,-4.16 q 0,-5.781 -7.86,-5.782 z M 187.5,75 h 75 V 0 h -75 z m 53.866,-19.08 a 24.475,24.475 0 0 1 -6.074,2.284 30.726,30.726 0 0 1 -7.265,0.839 26.488,26.488 0 0 1 -9.11,-1.475 18.608,18.608 0 0 1 -6.849,-4.25 18.418,18.418 0 0 1 -4.287,-6.796 25.917,25.917 0 0 1 -1.49,-9.051 24.205,24.205 0 0 1 1.55,-8.878 18.962,18.962 0 0 1 4.465,-6.795 19.67,19.67 0 0 1 6.997,-4.338 26.283,26.283 0 0 1 9.14,-1.504 29.431,29.431 0 0 1 6.64,0.723 24.662,24.662 0 0 1 5.806,2.111 v 8.213 a 19.458,19.458 0 0 0 -5.3,-2.458 21.271,21.271 0 0 0 -6.014,-0.839 15.701,15.701 0 0 0 -7.414,1.62 11.09,11.09 0 0 0 -4.704,4.684 15.65,15.65 0 0 0 -1.637,7.46 16.318,16.318 0 0 0 1.578,7.49 10.78,10.78 0 0 0 4.585,4.714 15.2,15.2 0 0 0 7.295,1.619 22.605,22.605 0 0 0 12.088,-3.412 z M 304.522,45.182 V 65.629 H 292.568 V 9.399 h 20.526 q 11.089,0 17.027,4.64 5.936,4.642 5.937,13.291 a 15.945,15.945 0 0 1 -10.145,15.571 q 3.539,5.586 7,11.207 3.46,5.624 6.92,11.521 h -13.92 q -5.662,-10.38 -11.718,-20.447 z m 0,-9.515 h 7.865 q 5.583,0 8.493,-2.006 2.909,-2.005 2.91,-6.331 0,-4.324 -2.871,-6.37 -2.871,-2.044 -8.454,-2.044 h -7.943 z m 83.047,29.963 q -2.046,-6.212 -4.09,-12.19 h -22.806 q -2.046,6.057 -4.09,12.19 H 343.607 Q 348.954,50.845 354.5,36.767 360.044,22.691 365.706,9.399 h 13.055 q 5.819,14 11.364,28.116 5.543,14.117 10.735,28.115 z M 364.134,43.374 h 15.807 q -1.888,-5.504 -3.893,-10.971 -2.006,-5.465 -3.972,-10.735 -4.09,10.775 -7.942,21.705 z M 407.701,9.4 h 21.47 a 32.53,32.53 0 0 1 15.217,3.303 22.32,22.32 0 0 1 9.634,9.555 32.046,32.046 0 0 1 3.303,15.139 32.213,32.213 0 0 1 -3.342,15.217 22.726,22.726 0 0 1 -9.634,9.673 32.146,32.146 0 0 1 -15.257,3.343 h -21.391 z m 20.762,45.849 q 7.863,0 12.072,-4.601 4.205,-4.6 4.207,-13.251 0,-8.571 -4.129,-13.095 -4.128,-4.521 -12.072,-4.522 h -8.728 v 35.469 z m 38.455,-45.85 h 12.112 v 56.23 H 466.918 Z M 516.543,8.22 a 31,31 0 0 1 11.52,2.045 24.63,24.63 0 0 1 8.81,5.858 25.995,25.995 0 0 1 5.621,9.202 38.41,38.41 0 0 1 0,24.262 26.31,26.31 0 0 1 -5.622,9.28 24.357,24.357 0 0 1 -8.808,5.897 33.48,33.48 0 0 1 -23.042,0 24.343,24.343 0 0 1 -8.809,-5.898 26.294,26.294 0 0 1 -5.623,-9.28 38.41,38.41 0 0 1 0,-24.261 25.98,25.98 0 0 1 5.623,-9.202 24.616,24.616 0 0 1 8.809,-5.858 30.992,30.992 0 0 1 11.52,-2.045 z m 0,48.051 a 14.862,14.862 0 0 0 8.257,-2.241 14.084,14.084 0 0 0 5.27,-6.41 29.362,29.362 0 0 0 0,-20.29 13.849,13.849 0 0 0 -5.27,-6.37 16.582,16.582 0 0 0 -16.515,0 13.83,13.83 0 0 0 -5.269,6.37 29.35,29.35 0 0 0 0,20.29 14.064,14.064 0 0 0 5.269,6.41 14.855,14.855 0 0 0 8.258,2.241 z"
     id="path826" />
  </g>
</svg>
