<svg xmlns="http://www.w3.org/2000/svg" width="1184" height="235" viewBox="0 0 1184 235"><defs><clipPath><path d="M33.625 28.775h186.196v81.777h-186.196z"/></clipPath></defs><g fill="#fff"><path d="M229.216 1.588h99.437v93.619h-99.437zm62.652 13.024c-.423-.074-.879-.121-1.335-.235l-.537-.067c-.752-.101-1.496-.181-2.302-.262-.537-.067-1.053-.081-1.584-.107-.96-.074-1.852-.101-2.751-.101l-1.067.027c-.785 0-1.496.074-2.194.101-.416.013-.832.06-1.241.081-.584.06-1.147.101-1.718.221l-.51.04-.55.067-.631.114c-.289.047-.584.087-.852.168-.396.06-.785.128-1.174.228-2.342.483-4.556 1.141-6.515 1.939-1.06.409-2.08.852-3.013 1.322-.805.369-1.543.778-2.288 1.208-.725.389-1.362.819-2.053 1.228-.369.282-.738.53-1.121.798-.289.221-.584.429-.892.651-.624.47-1.255 1-1.825 1.49-.523.49-1.02.966-1.537 1.429-.403.409-.845.819-1.208 1.308-.423.429-.812.879-1.201 1.369-.416.49-.785 1-1.168 1.55-.322.389-.57.798-.845 1.228-.215.289-.376.55-.53.819-1.06 1.718-1.946 3.53-2.718 5.455-.939 2.429-1.604 5.039-1.973 7.764-.101.892-.181 1.771-.242 2.691-.047.698-.074 1.389-.074 2.087 0 .55 0 1.08.027 1.59.047.537.107 1.047.168 1.617l.02.382c.101.637.188 1.248.309 1.865.06.262.101.47.141.731l.342 1.49c.181.637.369 1.268.597 1.906.221.752.523 1.51.819 2.241.476 1.107 1.013 2.208 1.55 3.275l1.033 1.771c.295.429.604.886.866 1.308.389.557.798 1.08 1.208 1.597.409.57.859 1.033 1.288 1.57.517.59 1.04 1.147 1.577 1.651l.262.268c.436.409.899.859 1.409 1.349l1.181.939c.362.289.758.59 1.181.906.517.362 1.027.691 1.584 1.1.624.322 1.241.731 1.872 1.121 1.335.711 2.785 1.449 4.395 2.087.57.242 1.194.443 1.859.651.611.242 1.268.45 1.912.631 1.161.309 2.375.637 3.637.879 1.007.181 2.094.369 3.174.47 1.094.141 2.194.248 3.348.309.59.04 1.168.04 1.738.06h.839c2.06 0 4.006-.06 5.798-.228l.369-.04c.718-.04 1.389-.121 2.047-.201 1.06-.141 1.993-.289 2.919-.47.59-.06 1.161-.201 1.711-.329.886-.181 1.657-.389 2.476-.59.55-.141 1.1-.302 1.657-.47.637-.168 1.221-.369 1.839-.597l.57-.181c.289-.101.671-.242 1.114-.429.604-.221 1.315-.49 2.114-.872.53-.188 1.06-.456 1.61-.678.45-.248.98-.49 1.503-.738.201-.081.443-.242.644-.309v-12.783l-.443.309-.879.483c-.866.584-1.704 1.047-2.563 1.516-.913.49-1.845.98-2.738 1.429-1.57.691-3.107 1.329-4.536 1.879-2.812.98-5.348 1.59-7.596 2.006l-.798.141-1.805.228c-.879.101-1.684.141-2.416.154-.537.027-.933.067-1.376.067-.892 0-1.859-.04-2.798-.081-1.114-.101-2.221-.228-3.389-.409-1.845-.329-3.697-.798-5.475-1.436-.309-.101-.55-.208-.819-.329-.181-.054-.342-.114-.55-.215l-.866-.369c-.644-.309-1.241-.637-1.872-.98-.268-.188-.55-.349-.879-.51-.302-.201-.604-.396-.919-.617-.342-.221-.718-.53-1.08-.792l-1.02-.845-.396-.382-.228-.181-.121-.101-.134-.174c-.59-.544-1.114-1.141-1.617-1.711-.255-.302-.483-.658-.765-.98-.215-.329-.416-.617-.604-.946-.235-.302-.45-.59-.577-.913-.268-.429-.51-.859-.765-1.329-.148-.382-.322-.758-.49-1.147-.268-.631-.497-1.295-.678-1.892-.174-.45-.309-.986-.443-1.456-.295-1.308-.476-2.51-.59-3.55-.067-.429-.067-.798-.101-1.121-.013-.517-.013-.946-.013-1.295v-.792c.013-.745.114-1.684.228-2.718.121-.651.235-1.335.429-2.067l.369-1.449c.161-.45.302-.899.53-1.402.101-.289.221-.617.376-.926.195-.429.382-.859.617-1.288l.544-1c.443-.711.892-1.449 1.449-2.147.181-.302.376-.523.59-.792.262-.309.55-.671.859-.96l.463-.517c2.349-2.349 4.965-4.06 7.676-5.308.416-.181.866-.389 1.275-.55.47-.188.866-.329 1.329-.49l1.409-.409c.429-.148.933-.248 1.349-.349.456-.101.933-.201 1.369-.289.47-.081.939-.141 1.449-.221.497-.06.98-.101 1.483-.141.926-.081 1.825-.141 2.704-.141.349 0 .624 0 .899.04.698 0 1.308.02 1.939.06l1.302.081c.785.081 1.59.181 2.315.322.644.067 1.295.188 1.899.289.899.188 1.738.389 2.51.617.463.121.899.221 1.335.362.59.188 1.141.349 1.55.47.691.268 1.1.409 1.1.409.611.221 1.235.49 1.839.738.839.302 1.597.631 2.328 1 .617.289 1.194.55 1.758.798.45.262.879.47 1.282.671.691.369 1.288.711 1.785.939l1.261.711v-12.514s-.772-.349-2.1-.859l-2.127-.738c-.45-.188-.906-.349-1.429-.503-.389-.127-.778-.289-1.208-.389-.49-.195-.933-.349-1.476-.537-.369-.067-.731-.201-1.154-.329l-.349-.074c-.349-.107-.718-.195-1.087-.329-.463-.081-.96-.228-1.382-.376-.309-.034-.637-.114-.939-.161-.49-.121-.986-.262-1.496-.362-.51-.087-1.02-.188-1.57-.295"/><path d="M152.798 53.349v18.385h11.93s.235-.02.577-.02c.456-.027 1.02-.06 1.731-.107 1.255-.127 2.986-.329 4.657-.913 1.496-.49 2.932-1.248 4.046-2.369.423-.436.792-.886 1.1-1.329.899-1.496 1.147-2.986 1.208-3.838l.013-.577v-.429c0-.369-.034-1.06-.242-1.798-.201-.879-.631-1.879-1.389-2.818-.148-.141-.322-.329-.476-.51-.315-.329-.664-.631-1.053-.96-.671-.429-1.423-.879-2.228-1.208-1.06-.47-2.275-.819-3.623-1.08-.644-.121-1.376-.248-2.107-.268-.436-.081-.872-.081-1.355-.121-.409-.04-.859-.04-1.288-.04z"/><path d="M152.798 25.38v17.406h6.662999999999999c.429 0 .845 0 1.282-.06 1.208-.081 2.852-.262 4.476-.691.349-.101.678-.208.973-.309 1.295-.49 2.51-1.127 3.523-2.08.745-.765 1.248-1.597 1.57-2.389.429-1.027.577-1.966.617-2.664.06-.631.06-.96.06-.96s0-.309-.02-.752c-.04-.758-.188-2.006-.785-3.174-.302-.584-.698-1.141-1.235-1.671-.671-.617-1.436-1.141-2.275-1.51-1.631-.738-3.523-1-5.059-1.087-.698-.06-1.329-.06-1.845-.06z"/><path d="M114.622 1.588h99.457v93.619h-99.457zm26.082 13.132v67.43h25.398s12.38.309 19.198-6.495c5.556-5.576 5.16-12.011 5.16-12.011s.396-6.697-4.751-11.89c-4.402-4.355-9.991-5.536-9.991-5.536s2.536-1.161 4.476-3.14c.899-.919 4.147-3.825 4.147-10.911 0-7.173-4.778-11.3-4.778-11.3s-5.22-6.146-16.977-6.146z"/><path d="M38.182 53.349v18.385h11.951s.221-.02.611-.02l1.684-.107c1.282-.127 2.973-.329 4.643-.913 1.49-.49 2.946-1.248 4.093-2.369.416-.436.752-.886 1.06-1.329.899-1.496 1.141-2.986 1.208-3.838.034-.356.034-.577.034-.577v-.429c-.034-.369-.067-1.06-.242-1.798-.235-.879-.651-1.879-1.396-2.818l-.463-.51c-.349-.329-.698-.631-1.06-.96-.678-.429-1.429-.879-2.228-1.208-1.08-.47-2.281-.819-3.617-1.08-.637-.121-1.349-.248-2.1-.268-.429-.081-.899-.081-1.349-.121-.409-.04-.872-.04-1.268-.04z"/><path d="M38.182 25.38v17.406h6.676c.382 0 .899 0 1.302-.06 1.174-.081 2.845-.262 4.482-.691l.96-.309c1.275-.49 2.516-1.127 3.469-2.08.772-.765 1.268-1.597 1.624-2.389.382-1.027.564-1.966.611-2.664.054-.631.054-.96.054-.96v-.752c-.054-.758-.201-2.006-.805-3.174-.295-.584-.711-1.141-1.208-1.671-.684-.617-1.476-1.141-2.355-1.51-1.604-.738-3.449-1-5.053-1.087-.651-.06-1.268-.06-1.778-.06z"/><path d="M0 1.588h99.47v93.619h-99.47zm26.089 13.132v67.43h25.391s12.38.309 19.211-6.495c5.549-5.576 5.147-12.011 5.147-12.011s.403-6.697-4.737-11.89c-4.415-4.355-9.998-5.536-9.998-5.536s2.53-1.161 4.476-3.14c.913-.919 4.167-3.825 4.167-10.911 0-7.173-4.784-11.3-4.784-11.3s-5.187-6.146-16.956-6.146z"/></g><g style="line-height:1.25;-inkscape-font-specification:'Gill Sans MT Bold'" font-weight="bold" font-size="134.667" font-family="Gill Sans MT" letter-spacing=".13" word-spacing="0" fill="#fff"><path d="M93.379 141.956v91.86h-19.266l-50.763-58.851v58.851h-22.883v-91.86h20.976l49.053 56.155v-56.155z"/><path d="M189.446 216.983v16.833h-67.728v-91.86h66.807v16.833h-43.924v19.266h41.886v16.833h-41.886v22.094z"/><path d="M275.837 175.097l-28.406 59.903h-9.863l-40.374-93.044h24.264l21.633 50.763 23.606-50.763h18.411l23.606 50.763 21.502-50.763h24.264l-40.242 93.044h-9.863z"/><path d="M445.096 205.805v20.055q-17.228 9.14-36.1 9.14-24.461 0-38.993-13.48-14.466-13.546-14.466-33.338t15.255-33.601q15.321-13.809 39.979-13.809 19.661 0 33.272 8.088v20.45q-16.702-9.403-31.628-9.403-14.663 0-24.001 7.891-9.271 7.825-9.271 19.99 0 12.23 9.14 20.187 9.206 7.956 23.54 7.956 7.102 0 13.677-1.841 6.576-1.907 19.595-8.285z"/><path d="M516.44 141.956l40.768 91.86h-24.592l-7.562-18.148h-41.097l-6.839 18.148h-24.264l37.02-91.86zm1.841 57.667l-14.795-35.705-13.48 35.705z"/><path d="M629.604 147.874v17.951q-18.28-8.219-29.13-8.219-6.181 0-9.863 2.104-3.617 2.038-3.617 5.458 0 2.63 2.63 4.997t12.822 6.115q10.192 3.748 16.307 6.97 6.115 3.222 10.521 9.074 4.471 5.852 4.471 14.795 0 12.757-9.732 20.318-9.666 7.562-25.513 7.562-17.096 0-33.141-8.877v-19.792q9.206 6.181 16.307 9.008 7.102 2.827 15.058 2.827 13.48 0 13.48-8.482 0-2.893-2.696-5.458-2.696-2.564-13.02-6.247-10.258-3.682-16.307-6.839-5.984-3.156-10.389-9.008-4.34-5.852-4.34-14.992 0-11.836 9.535-19.069 9.534-7.299 25.513-7.299 14.729 0 31.102 7.102z"/><path d="M730.801 141.956v16.833h-33.272v75.027h-22.883v-75.027h-33.272v-16.833z"/><path d="M814.047 216.983v16.833h-70.029v-91.86h22.883v75.027z"/><path d="M894.99 216.983v16.833h-67.728v-91.86h66.807v16.833h-43.924v19.266h41.886v16.833h-41.886v22.094z"/></g></svg>