<svg version="1.1" viewBox="0 0 500 51.113" xml:space="preserve" xmlns="http://www.w3.org/2000/svg"><g><path d="m489.43 49.77q-5.2831-8.4665-10.702-16.933-5.4185-8.5342-10.702-16.527v33.459h-10.024v-48.428h10.566q5.4863 8.1955 10.769 16.459 5.3508 8.1955 10.634 16.662v-33.121h10.024v48.428z"/><path d="m427.73 0.32639q5.4863 0 9.8888 1.761 4.4703 1.761 7.5859 5.0799 3.1834 3.2511 4.8767 7.9246 1.6933 4.6058 1.6933 10.431 0 5.7572-1.6933 10.431-1.6933 4.6735-4.8767 7.9923-3.1156 3.3188-7.5859 5.0799-4.4026 1.761-9.8888 1.761-5.4862 0-9.9566-1.761-4.4026-1.761-7.5859-5.0799-3.1157-3.3189-4.809-7.9923-1.6933-4.6735-1.6933-10.431 0-5.8249 1.6933-10.431 1.6933-4.6735 4.809-7.9246 3.1834-3.3188 7.5859-5.0799 4.4703-1.761 9.9566-1.761zm0 41.384q4.1316 0 7.1118-1.8965 2.9802-1.9642 4.538-5.554 1.5578-3.5898 1.5578-8.7374 0-5.1476-1.5578-8.7374-1.5578-3.5898-4.538-5.4863-2.9802-1.8965-7.1118-1.8965t-7.1118 1.8965q-2.9802 1.8965-4.538 5.4863-1.5578 3.5898-1.5578 8.7374 0 5.1476 1.5578 8.7374 1.5578 3.5898 4.538 5.554 2.9802 1.8965 7.1118 1.8965z"/><path d="m361.4 1.3424h40.91v9.076h-15.24v39.352h-10.431v-39.352h-15.24z"/><path d="m316.81 1.3424h40.91v9.076h-15.24v39.352h-10.431v-39.352h-15.24z"/><path d="m290.61 50.786q-6.5022 0-11.176-2.4383-4.6058-2.5061-7.1118-7.1795-2.4384-4.6735-2.4384-11.243v-28.583h10.431v29.734q0 5.1476 2.6415 7.9246 2.7093 2.7093 7.6537 2.7093 4.9444 0 7.5859-2.7093 2.7093-2.777 2.7093-7.9246v-29.734h10.431v28.583q0 6.57-2.5061 11.243-2.4383 4.6735-7.1118 7.1795-4.6735 2.4383-11.108 2.4383z"/><path d="m264.24 35.818q0 4.3348-2.3029 7.4505-2.2352 3.1157-6.4345 4.809-4.1994 1.6933-10.092 1.6933h-19.845v-48.428h18.694q8.2632 0 12.801 3.2511 4.538 3.1834 4.538 9.2115 0 3.4543-1.6256 6.0281-1.6256 2.5061-4.809 3.9962 4.4026 1.4224 6.7054 4.538 2.3706 3.0479 2.3706 7.4505zm-28.583-14.562h7.6537q3.9284 0 5.9604-1.6256 2.0997-1.6933 2.0997-4.6735 0-5.7572-8.0601-5.7572h-7.6537zm0 20.658h8.8051q4.538 0 6.9764-1.6256 2.4383-1.6933 2.4383-4.8089 0-6.6377-9.2792-6.6377h-8.9406z"/><path d="m160.94 1.3424h18.491q7.6537 0 13.072 2.8447 5.4862 2.8447 8.331 8.2633 2.8447 5.3508 2.8447 13.004t-2.9125 13.14q-2.8447 5.4185-8.2633 8.331-5.4185 2.8447-13.14 2.8447h-18.423zm17.881 39.488q6.7732 0 10.363-3.9284 3.6575-3.9962 3.6575-11.447 0-7.3827-3.5898-11.243-3.522-3.9284-10.363-3.9284h-7.5182v30.547z"/><path d="m119.21 1.3424h33.324v8.6697h-22.893v10.498h20.32v8.6697h-20.32v11.921h24.18v8.6697h-34.611z"/><path d="m83.353 32.16v17.61h-10.295v-48.428h17.678q9.5502 0 14.63 3.9962 5.1476 3.9962 5.1476 11.447 0 4.809-2.3029 8.1955-2.2351 3.3866-6.4345 5.2153 3.0479 4.8089 6.0281 9.6856 2.9802 4.8089 5.9604 9.8888h-11.988q-4.8767-8.9406-10.092-17.61-0.54185 0-1.016 0zm0-8.1955h6.7732q4.8089 0 7.315-1.6933 2.5061-1.761 2.5061-5.4863 0-3.7252-2.5061-5.4863-2.4383-1.761-7.2473-1.761h-6.8409z"/><circle cx="25.556" cy="25.556" r="25.556" fill="#e8100d"/></g></svg>
