<?xml version="1.0" encoding="UTF-8" standalone="no"?>
<svg
   viewBox="0 0 550.20099 179.70679"
   version="1.1"
   id="svg1361"
   width="550.20099"
   height="179.70679"
   xmlns="http://www.w3.org/2000/svg"
   xmlns:svg="http://www.w3.org/2000/svg">
  <defs
     id="defs1365" />
    <g fill="#FFF">
<path
     d="m 0.001,178.118 h 51.766 v -14.07 H 16.17 V 103.042 H 0 Z m 63.315,0 h 53.654 v -13.44 H 79.485 v -18.48 h 31.5 v -13.44 h -31.5 v -16.276 h 35.49 v -13.44 h -51.66 z m 66.15,0 h 16.168 v -75.076 h -16.169 z m 78.225,0.053 a 42.436,42.436 0 0 0 10.71,-4.148 v -14.595 a 39.012,39.012 0 0 1 -21.314,6.195 26.168,26.168 0 0 1 -12.864,-2.94 19.308,19.308 0 0 1 -8.085,-8.558 30.366,30.366 0 0 1 -2.783,-13.597 29.113,29.113 0 0 1 2.887,-13.545 19.853,19.853 0 0 1 8.295,-8.506 27.036,27.036 0 0 1 13.074,-2.94 36.532,36.532 0 0 1 10.606,1.522 33.852,33.852 0 0 1 9.344,4.463 v -14.91 a 42.668,42.668 0 0 0 -10.236,-3.833 50.46,50.46 0 0 0 -11.709,-1.312 45.134,45.134 0 0 0 -16.12,2.73 33.947,33.947 0 0 0 -20.211,20.213 45.121,45.121 0 0 0 -2.73,16.118 48.307,48.307 0 0 0 2.625,16.432 33.596,33.596 0 0 0 7.56,12.338 32.69,32.69 0 0 0 12.074,7.718 45.501,45.501 0 0 0 16.067,2.677 52.71,52.71 0 0 0 12.81,-1.522 z m 21.21,-0.053 h 53.655 v -13.44 h -37.485 v -18.48 h 31.5 v -13.44 h -31.5 v -16.276 h 35.49 v -13.44 h -51.66 z m 103.214,-1.208 a 22.808,22.808 0 0 0 10.607,-8.084 21.839,21.839 0 0 0 3.675,-12.758 21.243,21.243 0 0 0 -1.943,-9.555 17.27,17.27 0 0 0 -5.46,-6.405 32.38,32.38 0 0 0 -8.14,-4.148 q -4.62,-1.627 -9.975,-2.992 -4.199,-1.048 -7.296,-2.153 a 12.266,12.266 0 0 1 -4.778,-2.834 6.424,6.424 0 0 1 -1.68,-4.673 7.018,7.018 0 0 1 3.518,-6.301 q 3.516,-2.205 9.921,-2.205 a 44.718,44.718 0 0 1 11.709,1.575 39.654,39.654 0 0 1 10.449,4.41 v -14.28 a 47.875,47.875 0 0 0 -10.396,-3.675 51.026,51.026 0 0 0 -11.762,-1.365 40.51,40.51 0 0 0 -15.75,2.782 23.099,23.099 0 0 0 -10.236,7.928 20.79,20.79 0 0 0 -3.623,12.286 20.463,20.463 0 0 0 1.68,8.662 16.847,16.847 0 0 0 4.934,6.195 31.849,31.849 0 0 0 7.98,4.463 77.981,77.981 0 0 0 10.921,3.36 70.267,70.267 0 0 1 6.825,2.047 13.106,13.106 0 0 1 4.882,2.94 6.888,6.888 0 0 1 1.838,5.093 7.59,7.59 0 0 1 -3.728,6.72 q -3.728,2.417 -10.867,2.415 a 45.15,45.15 0 0 1 -23.835,-6.825 v 14.49 a 46.772,46.772 0 0 0 11.602,4.305 55.363,55.363 0 0 0 12.233,1.365 44.814,44.814 0 0 0 16.695,-2.783 z m 18.9,-59.798 h 23.625 v 61.006 h 16.17 v -61.006 h 23.627 v -14.07 h -63.42 z m 72.87,61.006 h 53.652 v -13.44 h -37.485 v -18.48 h 31.5 v -13.44 h -31.5 v -16.276 h 35.49 v -13.44 h -51.659 z m 90.51,-27.3 h 1.577 q 8.083,13.441 15.644,27.3 h 18.585 q -4.621,-7.875 -9.24,-15.383 -4.622,-7.505 -9.345,-14.962 a 22.524,22.524 0 0 0 10.027,-8.085 22.291,22.291 0 0 0 3.518,-12.705 q 0,-11.551 -7.927,-17.746 -7.93,-6.194 -22.733,-6.195 h -27.404 v 75.076 h 15.959 v -27.3 z m -11.338,-35.072 h 10.605 q 7.454,0 11.287,2.73 3.832,2.732 3.834,8.506 0,5.776 -3.887,8.452 -3.884,2.678 -11.339,2.678 h -10.5 z"

     id="path1357" />
  <path
     d="m 2.625,0 v 75 h 75 V 0 Z m 51.927,52.929 a 12.254,12.254 0 0 1 -5.478,4.19 22.274,22.274 0 0 1 -8.547,1.474 H 23.719 V 16.406 h 15.832 q 6.998,0 10.842,2.802 a 9.363,9.363 0 0 1 3.844,8.054 9.68,9.68 0 0 1 -1.377,5.222 9.482,9.482 0 0 1 -4.073,3.51 11.246,11.246 0 0 1 5.708,3.925 10.684,10.684 0 0 1 1.979,6.52 10.94,10.94 0 0 1 -1.922,6.49 z M 43.825,32.307 a 4.953,4.953 0 0 0 1.75,-4.042 q 0,-5.014 -6.827,-5.015 h -6.482 v 10.503 h 6.482 a 7.79,7.79 0 0 0 5.077,-1.446 z m -3.987,8.054 h -7.572 v 11.388 h 7.457 a 10.227,10.227 0 0 0 5.91,-1.446 4.767,4.767 0 0 0 2.064,-4.16 q 0,-5.781 -7.859,-5.782 z M 96.375,0 v 75 h 75 V 0 Z m 51.927,52.929 a 12.254,12.254 0 0 1 -5.478,4.19 22.274,22.274 0 0 1 -8.547,1.474 H 117.469 V 16.406 h 15.832 q 6.998,0 10.842,2.802 a 9.363,9.363 0 0 1 3.844,8.054 9.68,9.68 0 0 1 -1.377,5.222 9.482,9.482 0 0 1 -4.073,3.51 11.246,11.246 0 0 1 5.708,3.925 10.684,10.684 0 0 1 1.979,6.52 10.94,10.94 0 0 1 -1.922,6.49 z M 137.575,32.307 a 4.953,4.953 0 0 0 1.75,-4.042 q 0,-5.014 -6.827,-5.015 h -6.482 v 10.503 h 6.482 a 7.79,7.79 0 0 0 5.077,-1.446 z m -3.987,8.054 h -7.572 v 11.388 h 7.458 a 10.227,10.227 0 0 0 5.908,-1.446 4.767,4.767 0 0 0 2.065,-4.16 q 0,-5.781 -7.859,-5.782 z M 190.125,75 h 75 V 0 h -75 z m 53.866,-19.08 a 24.475,24.475 0 0 1 -6.074,2.284 30.726,30.726 0 0 1 -7.265,0.838 26.488,26.488 0 0 1 -9.11,-1.474 18.608,18.608 0 0 1 -6.849,-4.251 18.418,18.418 0 0 1 -4.287,-6.796 25.917,25.917 0 0 1 -1.49,-9.05 24.205,24.205 0 0 1 1.55,-8.878 18.962,18.962 0 0 1 4.465,-6.796 19.67,19.67 0 0 1 6.997,-4.337 26.283,26.283 0 0 1 9.14,-1.504 29.431,29.431 0 0 1 6.64,0.723 24.662,24.662 0 0 1 5.806,2.111 v 8.212 a 19.458,19.458 0 0 0 -5.3,-2.457 21.271,21.271 0 0 0 -6.014,-0.839 15.701,15.701 0 0 0 -7.414,1.62 11.09,11.09 0 0 0 -4.704,4.684 15.65,15.65 0 0 0 -1.637,7.46 16.318,16.318 0 0 0 1.578,7.49 10.78,10.78 0 0 0 4.585,4.713 15.2,15.2 0 0 0 7.295,1.62 22.605,22.605 0 0 0 12.088,-3.413 z M 307.147,45.182 V 65.629 H 295.193 V 9.399 h 20.526 q 11.09,0 17.027,4.64 5.936,4.641 5.937,13.29 a 15.945,15.945 0 0 1 -10.145,15.572 q 3.54,5.586 7,11.207 3.46,5.624 6.92,11.521 h -13.92 Q 322.876,55.249 316.82,45.182 Z m 0,-9.516 h 7.865 q 5.583,0 8.493,-2.005 2.909,-2.006 2.91,-6.331 0,-4.324 -2.871,-6.37 -2.87,-2.044 -8.454,-2.045 h -7.943 z m 83.047,29.963 q -2.046,-6.211 -4.09,-12.19 h -22.806 q -2.046,6.058 -4.09,12.19 h -12.975 q 5.347,-14.784 10.892,-28.862 5.544,-14.076 11.206,-27.368 h 13.055 q 5.819,14 11.364,28.116 5.544,14.116 10.735,28.114 z M 366.759,43.373 h 15.807 q -1.888,-5.503 -3.893,-10.97 -2.006,-5.465 -3.972,-10.735 -4.09,10.775 -7.942,21.705 z M 410.326,9.399 h 21.47 a 32.53,32.53 0 0 1 15.217,3.303 22.32,22.32 0 0 1 9.634,9.556 32.046,32.046 0 0 1 3.303,15.138 32.213,32.213 0 0 1 -3.342,15.218 22.726,22.726 0 0 1 -9.634,9.673 32.146,32.146 0 0 1 -15.257,3.342 h -21.39 z m 20.762,45.85 q 7.863,0 12.072,-4.601 4.205,-4.6 4.208,-13.252 0,-8.57 -4.13,-13.094 -4.128,-4.521 -12.072,-4.522 h -8.728 v 35.469 z m 38.456,-45.85 h 12.111 v 56.23 h -12.111 z m 49.624,-1.18 a 31,31 0 0 1 11.52,2.046 24.63,24.63 0 0 1 8.81,5.858 25.994,25.994 0 0 1 5.621,9.202 38.41,38.41 0 0 1 0,24.261 26.31,26.31 0 0 1 -5.622,9.28 24.357,24.357 0 0 1 -8.808,5.898 33.48,33.48 0 0 1 -23.042,0 24.343,24.343 0 0 1 -8.809,-5.898 26.294,26.294 0 0 1 -5.623,-9.28 38.41,38.41 0 0 1 0,-24.261 25.98,25.98 0 0 1 5.623,-9.202 24.616,24.616 0 0 1 8.809,-5.858 30.992,30.992 0 0 1 11.52,-2.045 z m 0,48.052 a 14.862,14.862 0 0 0 8.258,-2.241 14.084,14.084 0 0 0 5.269,-6.41 29.362,29.362 0 0 0 0,-20.29 13.849,13.849 0 0 0 -5.27,-6.37 16.582,16.582 0 0 0 -16.515,0 13.83,13.83 0 0 0 -5.269,6.37 29.35,29.35 0 0 0 0,20.29 14.064,14.064 0 0 0 5.27,6.41 14.855,14.855 0 0 0 8.257,2.24 z"
     id="path1359" />
  </g>
</svg>
