<?xml version="1.0" encoding="UTF-8" standalone="no"?>
<svg
   viewBox="0 0 813.14819 219.47204"
   version="1.1"
   id="svg4"
   width="813.14819"
   height="219.47205"
   xmlns="http://www.w3.org/2000/svg"
   xmlns:svg="http://www.w3.org/2000/svg">
  <defs
     id="defs8" />
    <g fill="#FFF">
<path
     id="path30764"
     d="m 548.27512,64.072266 v 91.271484 h 62.9336 V 138.23828 H 567.93528 V 64.072266 Z m 72.07813,0 V 155.34375 H 640.0134 V 64.072266 Z m 28.16601,0 c 5.53175,15.233176 11.19146,30.467995 16.97852,45.701174 5.87216,15.23317 11.82873,30.42223 17.87109,45.57031 h 21.19141 c 6.04237,-15.14808 11.95708,-30.33714 17.74414,-45.57031 5.87216,-15.233179 11.57372,-30.467998 17.10547,-45.701174 h -21.0625 c -3.91477,11.914216 -7.87317,23.786119 -11.87305,35.615234 -3.99988,11.82912 -8.08382,23.65917 -12.2539,35.48828 -4.17009,-11.82911 -8.25598,-23.65916 -12.25586,-35.48828 -3.99988,-11.829115 -7.95632,-23.701018 -11.8711,-35.615234 z m 99.39649,0 v 91.271484 h 65.23242 v -16.33789 h -45.57422 v -22.46875 h 38.29688 V 100.19922 H 767.57395 V 80.412109 h 43.14844 V 64.072266 Z"
     style="fill:#00e5df" />
  <path
     d="M 12.27574,161.97135 V 182.9674 H 0 v -57.74188 h 21.07744 c 7.59064,0 13.41881,1.58873 17.48451,4.76618 4.06387,3.17684 6.09641,7.72629 6.09763,13.64834 0.31476,7.01185 -3.87613,13.44387 -10.41755,15.98846 2.42272,3.82245 4.8183,7.65862 7.18676,11.5085 2.36846,3.84989 4.73752,7.79335 7.1072,11.8304 H 34.24203 c -3.87671,-7.1072 -7.88754,-14.10588 -12.03249,-20.99605 z m 0,-9.77103 h 8.07561 c 3.82184,0 6.72923,-0.68615 8.72214,-2.05845 1.99109,-1.37535 2.98694,-3.54232 2.98755,-6.50091 0,-2.96225 -0.98244,-5.14354 -2.94731,-6.54389 -1.96609,-1.39913 -4.86006,-2.09869 -8.6819,-2.09869 h -8.15609 z m 84.87305,30.76708 c -1.40095,-4.25103 -2.80069,-8.42311 -4.19921,-12.51624 H 69.53021 c -1.40096,4.14434 -2.80069,8.31642 -4.19921,12.51624 H 52.00637 c 3.6609,-10.12005 7.38947,-19.99959 11.1857,-29.63863 3.79502,-9.63477 7.63088,-19.00222 11.50759,-28.10233 h 13.4051 c 3.9834,9.58356 7.87322,19.20766 11.66945,28.87231 3.79624,9.66403 7.47085,19.28722 11.02384,28.86957 H 97.14879 Z M 73.08381,160.11408 h 16.23262 c -1.29244,-3.76941 -2.62481,-7.52419 -3.99712,-11.26434 -1.37291,-3.74198 -2.73241,-7.4166 -4.0785,-11.02385 -2.80069,7.37423 -5.51969,14.80362 -8.157,22.28819 z m 44.74006,-34.88856 h 22.04676 c 6.083,0 11.29178,1.13028 15.62633,3.39083 4.23562,2.16579 7.69259,5.5956 9.89174,9.814 2.26177,4.27847 3.39204,9.45951 3.39082,15.54312 0,6.08544 -1.14369,11.29421 -3.43106,15.62632 -2.20198,4.24647 -5.65486,7.71435 -9.89174,9.93472 -4.30773,2.28981 -9.52991,3.4335 -15.66656,3.43106 h -21.96629 z m 21.31976,47.08291 c 5.38192,0 9.51377,-1.57531 12.39554,-4.72594 2.87873,-3.14758 4.3187,-7.68362 4.31992,-13.60811 0,-5.86536 -1.41315,-10.34683 -4.23945,-13.44442 -2.82691,-3.09637 -6.95906,-4.64394 -12.39645,-4.64272 h -8.96447 v 36.42119 z m 39.48831,-47.08291 h 12.43577 v 57.74188 h -12.43577 z m 50.95748,-1.21166 c 4.0411,-0.0567 8.05605,0.65645 11.8304,2.10143 3.41549,1.32553 6.50181,3.37809 9.04494,6.01534 2.5641,2.71086 4.53136,5.92919 5.77483,9.4473 2.69098,8.08685 2.69098,16.82767 0,24.91452 -1.24162,3.54287 -3.20843,6.78787 -5.77483,9.52778 -2.53285,2.65992 -5.62118,4.72849 -9.04494,6.05831 -7.63904,2.79829 -16.02267,2.79829 -23.66171,0 -3.42342,-1.32997 -6.51142,-3.39852 -9.04403,-6.05831 -2.56673,-2.73966 -4.53358,-5.98474 -5.77483,-9.52778 -2.69098,-8.08685 -2.69098,-16.82767 0,-24.91452 1.24229,-3.51868 3.20969,-6.73724 5.77483,-9.4473 2.54246,-2.63764 5.62857,-4.69026 9.04403,-6.01534 3.77464,-1.44507 7.78991,-2.15825 11.83131,-2.10143 z m 0,49.34254 c 2.99062,0.081 5.93909,-0.7188 8.47889,-2.29987 2.4227,-1.60166 4.30792,-3.8947 5.41088,-6.58138 2.47514,-6.72451 2.47514,-14.1106 0,-20.83511 -1.09568,-2.6811 -2.98335,-4.96404 -5.41088,-6.54389 -5.25112,-3.0129 -11.70666,-3.0129 -16.95778,0 -2.42842,1.57884 -4.31636,3.8621 -5.41087,6.54389 -2.47754,6.72408 -2.47754,14.11103 0,20.83511 1.10208,2.68721 2.98748,4.98048 5.41087,6.58138 2.53965,1.58142 5.48822,2.38121 8.47889,2.29987 z M 0,36.618719 V 109.81592 H 73.1972 V 36.618719 Z m 51.04527,51.657048 c -1.35436,1.846388 -3.21008,3.26539 -5.34686,4.08856 -2.65935,1.021921 -5.49368,1.510985 -8.34172,1.439364 H 20.95307 V 52.630036 h 15.45167 c 4.55341,0 8.08049,0.911719 10.58124,2.735156 2.49897,1.817508 3.91018,4.774795 3.75112,7.860716 0.0444,1.791766 -0.42147,3.559238 -1.34335,5.096297 -0.96684,1.50165 -2.34737,2.691623 -3.97516,3.426489 2.21364,0.658699 4.1631,1.998873 5.5709,3.829768 1.32096,1.85366 1.99924,4.088574 1.93135,6.363741 0.0599,2.256355 -0.5967,4.473665 -1.87557,6.333564 z M 40.5756,68.149372 c 1.15488,-0.97552 1.78665,-2.435321 1.7073,-3.94499 0,-3.262801 -2.22093,-4.894201 -6.66277,-4.894201 h -6.32625 v 10.250206 h 6.32625 c 1.7657,0.120779 3.51823,-0.378232 4.95547,-1.411015 z m -3.89104,7.860716 H 29.29479 V 87.12446 H 36.573 c 2.02081,0.125364 4.03197,-0.366742 5.76659,-1.411015 1.3301,-0.912213 2.09278,-2.448297 2.01548,-4.059297 0,-3.762707 -2.55684,-5.64406 -7.67051,-5.64406 z M 91.4965,36.618719 v 73.197201 h 73.19721 V 36.618719 Z m 51.04528,51.657048 c -1.35436,1.846388 -3.21008,3.26539 -5.34686,4.08856 -2.65935,1.021945 -5.49369,1.51101 -8.34173,1.439364 H 112.44957 V 52.630036 h 15.45167 c 4.5528,0 8.07988,0.911719 10.58124,2.735156 2.49897,1.817509 3.91019,4.774796 3.75112,7.860716 0.0444,1.791766 -0.42147,3.559238 -1.34334,5.096297 -0.96685,1.501651 -2.34737,2.691623 -3.97517,3.426489 2.21364,0.6587 4.1631,1.998874 5.5709,3.829768 1.32096,1.853659 1.99924,4.088573 1.93135,6.363741 0.0599,2.256355 -0.59669,4.473665 -1.87556,6.333564 z M 132.0721,68.149372 c 1.15488,-0.97552 1.78665,-2.435321 1.7073,-3.94499 0,-3.262801 -2.22092,-4.894201 -6.66277,-4.894201 h -6.32625 v 10.250206 h 6.32625 c 1.76571,0.120779 3.51823,-0.378232 4.95547,-1.411015 z m -3.89104,7.860716 H 120.7913 V 87.12446 h 7.2782 c 2.02082,0.125365 4.03198,-0.366742 5.7666,-1.411015 1.3301,-0.912214 2.09277,-2.448298 2.01547,-4.059297 0,-3.763317 -2.55684,-5.64467 -7.67051,-5.64406 z m 54.81195,33.805832 h 73.1972 V 36.618719 h -73.1972 z M 235.5636,91.193816 c -1.86818,1.002844 -3.86153,1.752579 -5.92754,2.229458 -2.32259,0.554035 -4.70301,0.828794 -7.09074,0.818444 -3.02517,0.04419 -6.03461,-0.442988 -8.89132,-1.439363 -5.08464,-1.73638 -9.09076,-5.710815 -10.86746,-10.781508 -1.00565,-2.834773 -1.49771,-5.826168 -1.45308,-8.833704 -0.0433,-2.957061 0.46951,-5.89592 1.5116,-8.663613 0.95617,-2.50018 2.44347,-4.763108 4.35924,-6.632594 1.95181,-1.877147 4.27893,-3.319794 6.82829,-4.233045 2.86324,-1.013291 5.88363,-1.510239 8.92058,-1.467711 2.17975,-0.01137 4.35371,0.225474 6.47988,0.705964 1.96764,0.446277 3.87127,1.13848 5.666,2.060283 v 8.01526 c -1.59371,-1.054955 -3.33737,-1.863588 -5.17219,-2.398634 -1.90744,-0.552107 -3.88422,-0.827729 -5.86993,-0.818443 -2.50464,-0.07252 -4.98888,0.470042 -7.23523,1.58019 -1.96135,1.01926 -3.56365,2.614541 -4.59151,4.571396 -1.12603,2.257697 -1.67522,4.759189 -1.59848,7.280947 -0.0733,2.524051 0.45454,5.029363 1.53995,7.309296 0.97594,1.962129 2.54023,3.570534 4.47446,4.600658 2.20463,1.110736 4.65156,1.653869 7.11909,1.580191 4.16817,0.02673 8.25862,-1.128016 11.79748,-3.330471 v 7.846999 z"
     id="path2" />
  <path
     d="m 402.26455,0 c -44.3838,0 -84.39759,26.736332 -101.38158,67.74088 -16.98394,41.00446 -7.59311,88.20136 23.79084,119.58531 31.38395,31.38395 78.58085,40.77478 119.58531,23.79084 C 485.26367,194.13304 512,154.11925 512,109.73545 512,49.130234 462.86977,0 402.26455,0 Z m 46.63574,164.98999 c -4.83385,7.145 -11.80357,12.60891 -20.90918,16.39173 -9.10682,3.78222 -20.10414,5.67333 -32.99196,5.67333 -7.57536,0.0237 -15.13706,-0.64446 -22.59087,-1.99627 -7.25609,-1.34192 -14.33934,-3.49115 -21.11767,-6.40764 v -26.47825 c 13.16935,6.10304 27.51206,9.2582 42.02684,9.24521 10.08835,0 17.75886,-1.92647 23.01153,-5.7794 5.2545,-3.85049 7.88053,-9.34915 7.87809,-16.49598 0,-14.56799 -11.20704,-21.8529 -33.62111,-21.85473 -5.463,0 -10.89216,0.24569 -16.28749,0.73706 -5.39411,0.49198 -11.52283,1.29701 -18.38617,2.41509 l 7.14469,-83.004806 h 85.69058 v 25.83081 h -59.35316 l -2.61353,31.326727 c 3.17371,-0.543798 6.37248,-0.929567 9.58448,-1.15588 3.01163,-0.210326 5.77879,-0.315184 8.30148,-0.314575 10.64495,0 19.82006,1.820999 27.52531,5.462997 7.39257,3.363567 13.58611,8.897817 17.75703,15.866827 4.12971,6.93467 6.19608,15.23464 6.19913,24.89989 6.1e-4,9.95057 -2.41539,18.49652 -7.24802,25.63786 z"
     fill="#00e5df"
     id="path825" />
  </g>
</svg>
