<svg version="1.1" viewBox="0 0 512 219.41" xmlns="http://www.w3.org/2000/svg">
 <g fill="#fff">
  <path d="m12.272 161.93v20.99h-12.272v-57.725h21.071c7.5885 0 13.415 1.5883 17.48 4.7648 4.0627 3.1759 6.0947 7.7241 6.0959 13.644 0.31467 7.0099-3.875 13.44-10.415 15.984 2.4214 3.8214 4.8166 7.6564 7.1856 11.505 2.3678 3.8488 4.7362 7.7911 7.1052 11.827h-14.29c-3.8756-7.1052-7.8853-14.102-12.029-20.99zm0-9.7692h8.0733c3.8201 0 6.7267-0.68596 8.7197-2.0579 1.9905-1.375 2.9861-3.5413 2.9867-6.4991 0-2.9614-0.98216-5.1421-2.9465-6.542-1.9655-1.3987-4.8587-2.0981-8.6794-2.0981h-8.1538zm84.85 30.759c-1.4006-4.2498-2.7999-8.4207-4.198-12.513h-23.413c-1.4006 4.1432-2.7999 8.3141-4.198 12.513h-13.322c3.6599-10.117 7.3874-19.994 11.183-29.63 3.7939-9.632 7.6287-18.997 11.504-28.095h13.401c3.9823 9.5808 7.871 19.202 11.666 28.864 3.7946 9.6613 7.4681 19.282 11.021 28.861zm-24.058-22.848h16.228c-1.2921-3.7683-2.6241-7.522-3.996-11.261-1.3725-3.7409-2.7316-7.4145-4.0773-11.021-2.8005 7.3727-5.5187 14.8-8.1547 22.282zm44.726-34.878h22.04c6.0813 0 11.289 1.13 15.622 3.3899 4.2345 2.1651 7.6905 5.594 9.8889 9.8112 2.2611 4.2772 3.3911 9.4568 3.3899 15.539 0 6.0837-1.1434 11.291-3.4301 15.622-2.2014 4.2453-5.6532 7.7122-9.8889 9.9319-4.3065 2.2892-9.5272 3.4325-15.662 3.4301h-21.96zm21.315 47.07c5.3804 0 9.5114-1.5749 12.393-4.7246 2.8779-3.1467 4.3175-7.6814 4.3187-13.604 0-5.8637-1.4128-10.344-4.2382-13.441-2.8255-3.0955-6.9565-4.6426-12.393-4.6414h-8.9619v36.411zm39.477-47.07h12.433v57.725h-12.433zm50.944-1.2113c4.04-0.0568 8.0538 0.65617 11.827 2.1008 3.4145 1.3252 6.5 3.3771 9.0424 6.0136 2.5634 2.7101 4.5301 5.9275 5.7732 9.4446 2.6902 8.0849 2.6902 16.823 0 24.908-1.2416 3.5417-3.2078 6.7857-5.7732 9.5251-2.5321 2.6592-5.6196 4.7272-9.0424 6.0566-7.6369 2.7975-16.018 2.7975-23.655 0-3.4224-1.3296-6.5096-3.3976-9.0415-6.0566-2.566-2.7389-4.5323-5.983-5.7732-9.5251-2.6902-8.0849-2.6902-16.823 0-24.908 1.2419-3.5177 3.2088-6.7353 5.7732-9.4446 2.5417-2.6369 5.627-4.6889 9.0415-6.0136 3.7736-1.4446 7.7877-2.1576 11.828-2.1008zm0 49.329c2.99 0.0808 5.9379-0.71873 8.4774-2.2992 2.4223-1.6009 4.307-3.8934 5.4093-6.5795 2.4744-6.7226 2.4744-14.107 0-20.829-1.0954-2.6803-2.9825-4.9626-5.4093-6.542-5.2503-3.012-11.705-3.012-16.955 0-2.4277 1.5784-4.3151 3.861-5.4093 6.542-2.4768 6.7222-2.4768 14.107 0 20.829 1.1017 2.6865 2.9866 4.9791 5.4093 6.5795 2.5394 1.5807 5.4873 2.3802 8.4774 2.2992zm-229.53-136.68v73.176h73.176v-73.176zm51.031 51.642c-1.3539 1.8459-3.2091 3.2645-5.3453 4.0874-2.6586 1.0217-5.4921 1.5106-8.3394 1.439h-16.399v-41.162h15.447c4.5521 0 8.0782 0.91146 10.578 2.7344 2.4983 1.817 3.9091 4.7734 3.7501 7.8585 0.04441 1.7913-0.42135 3.5582-1.343 5.0948-0.96658 1.5012-2.3467 2.6909-3.974 3.4255 2.213 0.65851 4.1619 1.9983 5.5693 3.8287 1.3206 1.8531 1.9987 4.0874 1.9308 6.3619 0.0599 2.2557-0.59652 4.4724-1.875 6.3318zm-10.467-20.121c1.1546-0.97524 1.7861-2.4346 1.7068-3.9439 0-3.2619-2.2203-4.8928-6.6609-4.8928h-6.3245v10.247h6.3245c1.7652 0.12074 3.5172-0.37812 4.9541-1.4106zm-3.8899 7.8585h-7.3877v11.111h7.2761c2.0202 0.12533 4.0308-0.36664 5.765-1.4106 1.3297-0.91195 2.0922-2.4476 2.0149-4.0581 0-3.7622-2.5561-5.6431-7.6683-5.6425zm54.796-39.38v73.176h73.176v-73.176zm51.031 51.642c-1.3539 1.8459-3.2091 3.2645-5.3453 4.0874-2.6586 1.0217-5.4921 1.5106-8.3394 1.439h-16.399v-41.162h15.447c4.5521 0 8.0782 0.91146 10.578 2.7344 2.4983 1.817 3.9091 4.7734 3.7501 7.8585 0.0444 1.7913-0.42136 3.5582-1.343 5.0948-0.96658 1.5012-2.3467 2.6909-3.974 3.4255 2.213 0.65851 4.1619 1.9983 5.5693 3.8287 1.3206 1.8531 1.9987 4.0874 1.9308 6.3619 0.0599 2.2557-0.59652 4.4724-1.875 6.3318zm-10.467-20.121c1.1546-0.97524 1.7861-2.4346 1.7068-3.9439 0-3.2619-2.2203-4.8928-6.6609-4.8928h-6.3245v10.247h6.3245c1.7652 0.12074 3.5172-0.37812 4.9541-1.4106zm-3.8899 7.8585h-7.3877v11.111h7.2761c2.0202 0.12533 4.0308-0.36664 5.765-1.4106 1.3297-0.91195 2.0922-2.4476 2.0149-4.0581 0-3.7622-2.5561-5.6431-7.6683-5.6425zm54.796 33.796h73.176v-73.176h-73.176zm52.556-18.616c-1.8676 1.0026-3.8604 1.7521-5.9259 2.2288-2.3219 0.55388-4.7017 0.82856-7.0887 0.81821-3.0243 0.04418-6.0329-0.44286-8.8888-1.439-5.0832-1.7359-9.0882-5.7092-10.864-10.778-1.0054-2.834-1.4973-5.8245-1.4527-8.8312-0.0432-2.9562 0.46938-5.8942 1.5112-8.6612 0.95592-2.4995 2.4428-4.7617 4.358-6.6307 1.9513-1.8766 4.2777-3.3189 6.8264-4.2318 2.8624-1.013 5.882-1.5098 8.918-1.4673 2.1791-0.01137 4.3525 0.22541 6.478 0.70576 1.9671 0.44615 3.8702 1.1382 5.6644 2.0597v8.013c-1.5933-1.0547-3.3364-1.8631-5.1707-2.398-1.9069-0.55195-3.8831-0.82749-5.8683-0.81821-2.5039-0.0725-4.9875 0.46991-7.2332 1.5797-1.9608 1.019-3.5626 2.6138-4.5902 4.5701-1.1257 2.2571-1.6748 4.7578-1.598 7.2789-0.0733 2.5233 0.45442 5.0279 1.5395 7.3072 0.97566 1.9616 2.5395 3.5695 4.4732 4.5994 2.204 1.1104 4.6502 1.6534 7.1171 1.5797 4.167 0.02687 8.2563-1.1276 11.794-3.3295v7.8448z"/>
  <path d="m368.61 131.75h42.648v-59.451c-7.4258 10.085-14.709 20.064-21.85 29.936-7.143 9.8734-14.075 19.712-20.797 29.516zm33.687-131.75c-44.371 0-84.374 26.729-101.35 67.722-16.979 40.993-7.591 88.176 23.784 119.55 31.375 31.375 78.559 40.763 119.55 23.784 40.993-16.979 67.722-56.982 67.722-101.35 0-60.588-49.116-109.7-109.7-109.7zm54.547 156.12h-15.756v28.15h-29.83v-28.15h-71.218v-24.579c10.782-15.827 21.741-31.373 32.877-46.639 11.134-15.263 23.074-31.088 35.819-47.476h32.352v94.324h15.756z" fill="#004be1"/>
 </g>
</svg>
