<?xml version="1.0" encoding="UTF-8"?>
<!-- Generator: Adobe Illustrator 19.1.0, SVG Export Plug-In . SVG Version: 6.00 Build 0)  -->
<svg id="Layer_1" width="191.1" height="66.345" version="1.1" xmlns="http://www.w3.org/2000/svg" xmlns:cc="http://creativecommons.org/ns#" xmlns:dc="http://purl.org/dc/elements/1.1/" xmlns:rdf="http://www.w3.org/1999/02/22-rdf-syntax-ns#">
 <metadata id="metadata45">
  <rdf:RDF>
   <cc:Work rdf:about="">
    <dc:format>image/svg+xml</dc:format>
    <dc:type rdf:resource="http://purl.org/dc/dcmitype/StillImage"/>
    <dc:title/>
   </cc:Work>
  </rdf:RDF>
 </metadata>
 <style id="style3" type="text/css">.st0{fill:#000000;}</style>
 <g id="Local_-_WHITE" transform="translate(176 -105.56)">
  <g id="Radio_Lincolnshire">
   <path id="path7" class="st0" d="m-176 130.3h7.3c1.6 0 2.9 0.5 3.9 1.4s1.5 2 1.5 3.3c0 1.8-0.9 3.1-2.8 4 0.8 0.4 1.6 1.4 2.3 3s1.5 3.2 2.1 4.6h-4.5c-0.3-0.5-0.7-1.6-1.4-3.1s-1.2-2.5-1.7-2.9-1-0.6-1.5-0.6h-1.1v6.6h-4.1v-16.3zm4.1 3v3.7h2.2c0.7 0 1.2-0.2 1.6-0.5s0.6-0.8 0.6-1.4c0-1.2-0.8-1.9-2.3-1.9h-2.1v0.1z"/>
   <path id="path9" class="st0" d="m-149.9 130.3 7.3 16.4h-4.4l-1.3-3.2h-7.3l-1.2 3.2h-4.3l6.6-16.4h4.6zm0.3 10.3-2.7-6.4-2.4 6.4h5.1z"/>
   <path id="path11" class="st0" d="m-140.5 130.3h7.2c2.8 0 5 0.8 6.6 2.3s2.4 3.5 2.4 5.9c0 2.5-0.8 4.5-2.5 6s-4 2.2-7 2.2h-6.8v-16.4h0.1zm4 3v10.4h2.7c1.7 0 3-0.5 4-1.4s1.4-2.2 1.4-3.8-0.5-2.9-1.4-3.8-2.3-1.4-4-1.4h-2.7z"/>
   <path id="path13" class="st0" d="m-116.8 130.3v16.4h-4.1v-16.4h4.1z"/>
   <path id="path15" class="st0" d="m-104.1 130.1c2.8 0 5 0.8 6.8 2.5s2.6 3.6 2.6 5.9-0.9 4.2-2.6 5.9-4 2.5-6.7 2.5c-2.8 0-5-0.8-6.8-2.5s-2.6-3.6-2.6-5.9c0-2.2 0.9-4.2 2.6-5.9s3.9-2.5 6.7-2.5zm0 13.4c1.5 0 2.8-0.5 3.7-1.4s1.4-2.1 1.4-3.6-0.5-2.7-1.4-3.6-2.2-1.4-3.7-1.4c-1.6 0-2.8 0.5-3.8 1.4s-1.4 2.1-1.4 3.6 0.5 2.7 1.4 3.6 2.2 1.4 3.8 1.4z"/>
   <path id="path17" class="st0" d="m-163.5 168.7v3h-12.5v-16.4h4.1v13.4h8.4z"/>
   <path id="path19" class="st0" d="m-156.7 155.3v16.4h-4.1v-16.4h4.1z"/>
   <path id="path21" class="st0" d="m-136.2 155.3v16.4h-3.4l-9-10.5v10.5h-4.1v-16.4h3.7l8.7 10v-10h4.1z"/>
   <path id="path23" class="st0" d="m-117 166.7v3.6c-2 1.1-4.2 1.6-6.4 1.6-2.9 0-5.2-0.8-6.9-2.4s-2.6-3.6-2.6-5.9 0.9-4.3 2.7-6 4.2-2.5 7.1-2.5c2.3 0 4.3 0.5 5.9 1.4v3.6c-2-1.1-3.9-1.7-5.6-1.7s-3.2 0.5-4.3 1.4-1.7 2.1-1.7 3.6 0.5 2.7 1.6 3.6 2.5 1.4 4.2 1.4c0.8 0 1.7-0.1 2.4-0.3s2.1-0.7 3.6-1.4z"/>
   <path id="path25" class="st0" d="m-104.8 155.1c2.8 0 5 0.8 6.8 2.5s2.6 3.6 2.6 5.9-0.9 4.2-2.6 5.9-4.1 2.5-6.8 2.5c-2.8 0-5-0.8-6.8-2.5s-2.6-3.6-2.6-5.9c0-2.2 0.9-4.2 2.6-5.9s4-2.5 6.8-2.5zm0 13.4c1.5 0 2.8-0.5 3.7-1.4s1.4-2.1 1.4-3.6-0.5-2.7-1.4-3.6-2.2-1.4-3.7-1.4c-1.6 0-2.8 0.5-3.8 1.4s-1.4 2.1-1.4 3.6 0.5 2.7 1.4 3.6 2.2 1.4 3.8 1.4z"/>
   <path id="path27" class="st0" d="m-79.8 168.7v3h-12.4v-16.4h4.1v13.4h8.3z"/>
   <path id="path29" class="st0" d="m-60.7 155.3v16.4h-3.4l-9-10.5v10.5h-4.1v-16.4h3.7l8.7 10v-10h4.1z"/>
   <path id="path31" class="st0" d="m-45.6 156.3v3.2c-2.2-1-3.9-1.5-5.2-1.5-0.7 0-1.3 0.1-1.8 0.4s-0.7 0.6-0.7 1c0 0.3 0.2 0.6 0.5 0.9s1.1 0.6 2.3 1.1c1.2 0.4 2.2 0.9 2.9 1.2s1.4 0.9 1.9 1.6 0.8 1.6 0.8 2.6c0 1.5-0.6 2.7-1.7 3.6s-2.7 1.3-4.6 1.3c-2 0-4-0.5-5.9-1.6v-3.5c1.1 0.7 2.1 1.3 2.9 1.6s1.7 0.5 2.7 0.5c1.6 0 2.4-0.5 2.4-1.5 0-0.3-0.2-0.7-0.5-1s-1.1-0.7-2.3-1.1-2.2-0.8-2.9-1.2-1.3-0.9-1.9-1.6-0.8-1.6-0.8-2.7c0-1.4 0.6-2.5 1.7-3.4s2.6-1.3 4.5-1.3c1.9 0.2 3.7 0.6 5.7 1.4z"/>
   <path id="path33" class="st0" d="m-25.7 155.3v16.4h-4.1v-6.6h-8.2v6.6h-4.1v-16.4h4.1v6.6h8.2v-6.6h4.1z"/>
   <path id="path35" class="st0" d="m-17.6 155.3v16.4h-4.1v-16.4h4.1z"/>
   <path id="path37" class="st0" d="m-13.5 155.3h7.3c1.6 0 2.9 0.5 3.9 1.4s1.5 2 1.5 3.3c0 1.8-0.9 3.1-2.8 4 0.8 0.4 1.6 1.4 2.3 3s1.5 3.2 2.1 4.6h-4.5c-0.3-0.5-0.7-1.6-1.4-3.1s-1.2-2.5-1.7-2.9-1-0.6-1.5-0.6h-1.2v6.6h-4.1l0.1-16.3zm4 3v3.7h2.2c0.7 0 1.2-0.2 1.6-0.5s0.6-0.8 0.6-1.4c0-1.2-0.8-1.9-2.3-1.9h-2.1v0.1z"/>
   <path id="path39" class="st0" d="m15.1 168.7v3h-12.1v-16.4h11.9v3h-7.8v3.4h7.5v3h-7.5v3.9l8 0.1z"/>
  </g>
 </g>
 <g id="g6" transform="matrix(.19532 0 0 .19532 -5.3982 -184.03)">
  <g id="g8" transform="matrix(.82302 0 0 -.82302 189.64 997.28)">
   <path id="path10" d="m0 0c0-11.25-14-10.583-14-10.583h-14v20.333h14c14.417 0.083 14-9.75 14-9.75m-28 40.75h10.667c11.083-0.584 10.666-8.833 10.666-8.833 0-10.25-12.25-10.417-12.25-10.417h-9.083v19.25zm25.417-23.25s9.583 4.083 9.5 14.917c0 0 1.457 17.749-22.063 19.916h-26.104v-74.416h29.917s25-0.084 25 21c0 0 0.583 14.333-16.25 18.583m-67.545 49.416h109.88v-103.54h-109.88v103.54z"/>
  </g>
  <g id="g12" transform="matrix(.82302 0 0 -.82302 85.355 997.28)">
   <path id="path14" d="m0 0c0-11.25-14-10.583-14-10.583h-14v20.333h14c14.417 0.083 14-9.75 14-9.75m-28 40.75h10.667c11.083-0.584 10.666-8.833 10.666-8.833 0-10.25-12.25-10.417-12.25-10.417h-9.083v19.25zm25.417-23.25s9.583 4.083 9.5 14.917c0 0 1.457 17.749-22.063 19.916h-26.104v-74.416h29.917s25-0.084 25 21c0 0 0.583 14.333-16.25 18.583m-67.545 49.416h109.88v-103.54h-109.88v103.54z"/>
  </g>
  <g id="g16" transform="matrix(.82302 0 0 -.82302 308.19 958.6)">
   <path id="path18" d="m0 0v-13.75s-13.417 8.25-28.25 8.417c0 0-27.666 0.54-28.916-26.522 0 0-1-24.895 28.583-26.312 0 0 12.417-1.5 29.25 9.25v-14.25s-22.583-13.416-48.75-3.083c0 0-22 8.04-22.834 34.395 0 0-0.917 27.105 28.417 36.105 0 0 7.834 3 21.917 1.667 0 0 8.416-0.834 20.583-5.917m-87.461-83.627h109.88v103.54h-109.88v-103.54z"/>
  </g>
 </g>
</svg>
