<svg version="1.1" viewBox="0 0 745.06 134.78" xmlns="http://www.w3.org/2000/svg">
 <g fill="#FFF">
  <path d="m50.011 102.25h-21.42v9.528h10.08v11.34a28.015 28.015 0 0 1-4.174 0.945 28.996 28.996 0 0 1-4.253 0.316q-8.505 0-13.072-4.922-4.568-4.921-4.568-14.057a21.525 21.525 0 0 1 2.205-10.16 14.958 14.958 0 0 1 6.379-6.378 21.518 21.518 0 0 1 10.159-2.206 35.934 35.934 0 0 1 9.252 1.142 29.971 29.971 0 0 1 7.915 3.347v-11.182a37.866 37.866 0 0 0-8.623-2.875 47.606 47.606 0 0 0-9.804-0.985 35.65 35.65 0 0 0-12.404 2.048 25.825 25.825 0 0 0-15.552 15.16 32.713 32.713 0 0 0-2.127 12.089 35.276 35.276 0 0 0 2.008 12.285 24.619 24.619 0 0 0 15.12 15.08 35.602 35.602 0 0 0 12.325 2.008 54.103 54.103 0 0 0 7.403-0.511 46.684 46.684 0 0 0 7.087-1.536 33.967 33.967 0 0 0 6.063-2.441zm9.922 31.342h38.825v-10.554h-26.698v-45.753h-12.127zm57.764-55.44a24.647 24.647 0 0 0-8.82 5.866 26.009 26.009 0 0 0-5.631 9.214 38.46 38.46 0 0 0 0 24.295 26.327 26.327 0 0 0 5.63 9.293 24.372 24.372 0 0 0 8.821 5.906 33.537 33.537 0 0 0 23.074 0 24.387 24.387 0 0 0 8.82-5.906 26.343 26.343 0 0 0 5.63-9.293 38.46 38.46 0 0 0 0-24.295 26.025 26.025 0 0 0-5.63-9.214 24.661 24.661 0 0 0-8.82-5.867 33.52 33.52 0 0 0-23.074 0zm3.267 43.824a14.074 14.074 0 0 1-5.275-6.417 29.39 29.39 0 0 1 0-20.318 13.846 13.846 0 0 1 5.275-6.379 16.6 16.6 0 0 1 16.538 0 13.868 13.868 0 0 1 5.277 6.379 29.407 29.407 0 0 1 0 20.318 14.096 14.096 0 0 1-5.277 6.417 16.354 16.354 0 0 1-16.538 0zm81.822 9.923a19.516 19.516 0 0 0 8.308-8.308 27.626 27.626 0 0 0 2.875-13.073v-33.232h-12.128v34.571q0 5.986-3.111 9.174-3.113 3.19-8.86 3.19-5.749 0-8.859-3.19-3.113-3.189-3.111-9.174v-34.571h-12.127v33.232a27.613 27.613 0 0 0 2.874 13.073 19.576 19.576 0 0 0 8.269 8.308 30.546 30.546 0 0 0 25.87 0zm58.117 1.732a31.806 31.806 0 0 0 8.033-3.11v-10.947a29.259 29.259 0 0 1-15.986 4.646 19.613 19.613 0 0 1-9.647-2.205 14.481 14.481 0 0 1-6.064-6.418 22.77 22.77 0 0 1-2.087-10.197 21.839 21.839 0 0 1 2.165-10.16 14.892 14.892 0 0 1 6.222-6.378 20.263 20.263 0 0 1 9.804-2.206 27.399 27.399 0 0 1 7.954 1.142 25.387 25.387 0 0 1 7.008 3.347v-11.182a32.002 32.002 0 0 0-7.677-2.875 37.845 37.845 0 0 0-8.781-0.985 33.857 33.857 0 0 0-12.089 2.048 25.459 25.459 0 0 0-15.158 15.16 33.841 33.841 0 0 0-2.048 12.089 36.232 36.232 0 0 0 1.968 12.324 25.195 25.195 0 0 0 5.67 9.253 24.519 24.519 0 0 0 9.056 5.788 34.132 34.132 0 0 0 12.05 2.008 39.534 39.534 0 0 0 9.607-1.142zm15.908-0.04h40.242v-10.08h-28.115v-13.859h23.626v-10.08h-23.626v-12.206h26.618v-10.08h-38.745zm76.466-0.905a17.115 17.115 0 0 0 7.954-6.063 16.382 16.382 0 0 0 2.756-9.569 15.93 15.93 0 0 0-1.456-7.165 12.955 12.955 0 0 0-4.096-4.805 24.258 24.258 0 0 0-6.103-3.11q-3.466-1.221-7.482-2.244-3.149-0.786-5.472-1.615a9.186 9.186 0 0 1-3.584-2.126 4.816 4.816 0 0 1-1.26-3.505 5.263 5.263 0 0 1 2.64-4.725 14.015 14.015 0 0 1 7.44-1.654 33.516 33.516 0 0 1 8.782 1.181 29.747 29.747 0 0 1 7.835 3.307v-10.71a35.916 35.916 0 0 0-7.796-2.756 38.299 38.299 0 0 0-8.82-1.023 30.373 30.373 0 0 0-11.813 2.087 17.324 17.324 0 0 0-7.678 5.946 15.591 15.591 0 0 0-2.716 9.214 15.343 15.343 0 0 0 1.259 6.496 12.635 12.635 0 0 0 3.7 4.646 23.887 23.887 0 0 0 5.986 3.348 58.633 58.633 0 0 0 8.19 2.52 52.86 52.86 0 0 1 5.119 1.535 9.837 9.837 0 0 1 3.662 2.205 5.167 5.167 0 0 1 1.379 3.82 5.692 5.692 0 0 1-2.796 5.04q-2.797 1.812-8.151 1.81a33.862 33.862 0 0 1-17.876-5.118v10.868a35.122 35.122 0 0 0 8.701 3.229 41.555 41.555 0 0 0 9.175 1.023 33.611 33.611 0 0 0 12.52-2.087zm12.915-44.848h17.72v45.754h12.127v-45.754h17.719v-10.552h-47.567zm54.024 45.754h40.24v-10.08h-28.114v-13.86h23.625v-10.08h-23.625v-12.206h26.618v-10.08h-38.744zm68.51-20.476h1.182q6.063 10.083 11.734 20.476h13.938q-3.465-5.907-6.929-11.537-3.467-5.63-7.01-11.222a16.898 16.898 0 0 0 7.52-6.064 16.717 16.717 0 0 0 2.64-9.528q0-8.664-5.946-13.31-5.947-4.645-17.05-4.645h-20.553v56.306h11.97v-20.476zm-8.504-26.302h7.954q5.59 0 8.465 2.048 2.874 2.048 2.875 6.379 0 4.332-2.915 6.339-2.913 2.009-8.504 2.008h-7.875zm69.931 45.872a17.115 17.115 0 0 0 7.954-6.063 16.382 16.382 0 0 0 2.757-9.569 15.93 15.93 0 0 0-1.457-7.165 12.955 12.955 0 0 0-4.096-4.805 24.258 24.258 0 0 0-6.103-3.11q-3.465-1.221-7.482-2.244-3.149-0.786-5.472-1.615a9.186 9.186 0 0 1-3.584-2.126 4.816 4.816 0 0 1-1.26-3.505 5.263 5.263 0 0 1 2.64-4.725 14.015 14.015 0 0 1 7.44-1.654 33.516 33.516 0 0 1 8.782 1.181 29.747 29.747 0 0 1 7.835 3.307v-10.71a35.916 35.916 0 0 0-7.796-2.756 38.299 38.299 0 0 0-8.82-1.023 30.373 30.373 0 0 0-11.813 2.087 17.321 17.321 0 0 0-7.679 5.946 15.591 15.591 0 0 0-2.717 9.214 15.343 15.343 0 0 0 1.26 6.496 12.635 12.635 0 0 0 3.7 4.646 23.876 23.876 0 0 0 5.987 3.348 58.633 58.633 0 0 0 8.19 2.52 52.86 52.86 0 0 1 5.12 1.535 9.837 9.837 0 0 1 3.66 2.205 5.167 5.167 0 0 1 1.38 3.82 5.692 5.692 0 0 1-2.796 5.04q-2.797 1.812-8.151 1.81a33.866 33.866 0 0 1-17.877-5.118v10.868a35.114 35.114 0 0 0 8.702 3.229 41.555 41.555 0 0 0 9.175 1.023 33.611 33.611 0 0 0 12.521-2.087zm67.96 0.906v-56.306h-12.127v21.577h-24.492v-21.577h-12.127v56.306h12.127v-24.177h24.492v24.177zm10.553 0h12.127v-56.306h-12.127zm43.155-20.476h1.182q6.063 10.083 11.734 20.476h13.938q-3.466-5.907-6.93-11.537-3.466-5.63-7.008-11.221a16.898 16.898 0 0 0 7.52-6.065 16.717 16.717 0 0 0 2.639-9.528q0-8.664-5.946-13.31-5.948-4.645-17.05-4.645h-20.553v56.306h11.97v-20.476zm-8.504-26.302h7.954q5.59 0 8.465 2.048 2.874 2.048 2.875 6.379 0 4.332-2.915 6.339-2.913 2.009-8.504 2.008h-7.875zm41.5 46.778h40.241v-10.08h-28.114v-13.86h23.625v-10.08h-23.625v-12.206h26.618v-10.08h-38.745z"/>
  <path d="m168.36 0v56.25h56.25v-56.25zm38.946 39.697a9.19 9.19 0 0 1-4.109 3.142 16.706 16.706 0 0 1-6.41 1.107h-12.606v-31.641h11.874q5.249 0 8.132 2.102a7.022 7.022 0 0 1 2.882 6.04 7.26 7.26 0 0 1-1.032 3.917 7.111 7.111 0 0 1-3.055 2.633 8.434 8.434 0 0 1 4.28 2.943 8.013 8.013 0 0 1 1.485 4.89 8.204 8.204 0 0 1-1.441 4.867zm-8.046-15.466a3.714 3.714 0 0 0 1.313-3.031q0-3.761-5.12-3.762h-4.862v7.877h4.862a5.842 5.842 0 0 0 3.807-1.084zm-2.99 6.04h-5.679v8.541h5.593a7.67 7.67 0 0 0 4.432-1.084 3.575 3.575 0 0 0 1.549-3.12q0-4.336-5.895-4.337zm42.403-30.27v56.25h56.25v-56.25zm38.945 39.696a9.19 9.19 0 0 1-4.108 3.142 16.706 16.706 0 0 1-6.41 1.107h-12.607v-31.641h11.875q5.248 0 8.131 2.102a7.022 7.022 0 0 1 2.883 6.04 7.26 7.26 0 0 1-1.033 3.917 7.111 7.111 0 0 1-3.055 2.633 8.434 8.434 0 0 1 4.281 2.943 8.013 8.013 0 0 1 1.485 4.89 8.204 8.204 0 0 1-1.442 4.867zm-8.045-15.466a3.714 3.714 0 0 0 1.312-3.031q0-3.761-5.12-3.762h-4.861v7.877h4.861a5.842 5.842 0 0 0 3.808-1.084zm-2.99 6.04h-5.68v8.541h5.594a7.67 7.67 0 0 0 4.431-1.084 3.575 3.575 0 0 0 1.549-3.12q0-4.336-5.894-4.337zm42.402 25.98h56.25v-56.25h-56.25zm40.4-14.31a18.357 18.357 0 0 1-4.556 1.712 23.045 23.045 0 0 1-5.448 0.63 19.866 19.866 0 0 1-6.833-1.107 13.956 13.956 0 0 1-5.136-3.188 13.813 13.813 0 0 1-3.216-5.096 19.438 19.438 0 0 1-1.117-6.789 18.154 18.154 0 0 1 1.162-6.658 14.222 14.222 0 0 1 3.35-5.096 14.753 14.753 0 0 1 5.247-3.253 19.712 19.712 0 0 1 6.855-1.128 22.073 22.073 0 0 1 4.98 0.542 18.496 18.496 0 0 1 4.354 1.583v6.16a14.594 14.594 0 0 0-3.975-1.844 15.954 15.954 0 0 0-4.51-0.629 11.776 11.776 0 0 0-5.56 1.215 8.318 8.318 0 0 0-3.529 3.513 11.738 11.738 0 0 0-1.228 5.595 12.238 12.238 0 0 0 1.184 5.618 8.085 8.085 0 0 0 3.439 3.535 11.4 11.4 0 0 0 5.47 1.214 16.954 16.954 0 0 0 9.067-2.559zm47.367-8.054v15.336h-8.965v-42.173h15.394q8.317 0 12.77 3.48t4.453 9.968a11.958 11.958 0 0 1-7.609 11.679q2.654 4.189 5.25 8.405 2.595 4.217 5.19 8.64h-10.44q-4.247-7.785-8.788-15.335zm0-7.137h5.898a11.208 11.208 0 0 0 6.37-1.504 5.36 5.36 0 0 0 2.183-4.748 5.466 5.466 0 0 0-2.153-4.777q-2.153-1.533-6.34-1.534h-5.958zm62.285 22.473q-1.534-4.66-3.067-9.143h-17.105q-1.534 4.543-3.067 9.143h-9.732q4.01-11.088 8.17-21.647 4.158-10.557 8.404-20.526h9.791q4.364 10.5 8.523 21.086 4.158 10.588 8.051 21.087zm-17.576-16.692h11.855q-1.416-4.128-2.92-8.228t-2.978-8.052q-3.068 8.082-5.957 16.28zm32.675-25.48h16.103a24.398 24.398 0 0 1 11.413 2.476 16.74 16.74 0 0 1 7.225 7.167 27.248 27.248 0 0 1-0.03 22.767 17.044 17.044 0 0 1-7.225 7.255 24.11 24.11 0 0 1-11.442 2.507h-16.044zm15.572 34.386q5.897 0 9.054-3.45 3.154-3.451 3.155-9.94 0-6.427-3.097-9.82-3.096-3.39-9.054-3.391h-6.546v26.601zm28.841-34.387h9.084v42.173h-9.084zm37.218-0.885a23.25 23.25 0 0 1 8.641 1.534 18.473 18.473 0 0 1 6.607 4.394 19.496 19.496 0 0 1 4.216 6.901 28.807 28.807 0 0 1 0 18.196 19.732 19.732 0 0 1-4.216 6.96 18.268 18.268 0 0 1-6.607 4.424 25.11 25.11 0 0 1-17.281 0 18.257 18.257 0 0 1-6.607-4.424 19.72 19.72 0 0 1-4.217-6.96 28.807 28.807 0 0 1 0-18.196 19.485 19.485 0 0 1 4.217-6.9 18.462 18.462 0 0 1 6.607-4.395 23.244 23.244 0 0 1 8.64-1.534zm0 36.039a11.147 11.147 0 0 0 6.194-1.681 10.563 10.563 0 0 0 3.952-4.807 22.021 22.021 0 0 0 0-15.218 10.387 10.387 0 0 0-3.952-4.777 12.437 12.437 0 0 0-12.387 0 10.372 10.372 0 0 0-3.952 4.777 22.012 22.012 0 0 0 0 15.218 10.548 10.548 0 0 0 3.952 4.807 11.141 11.141 0 0 0 6.194 1.68z"/>
 </g>
</svg>
