<svg version="1.1" viewBox="0 0 544.35 179.81" xmlns="http://www.w3.org/2000/svg">
 <g fill="#FFF">
  <path d="m80.1 178.2c3.7-0.9 7.3-2.3 10.7-4.1v-14.6c-6.4 4.1-13.8 6.2-21.3 6.2-4.5 0.1-8.9-0.9-12.9-2.9-3.5-1.9-6.3-4.9-8.1-8.6-2-4.3-2.9-8.9-2.8-13.6-0.1-4.7 0.8-9.3 2.9-13.5 1.8-3.6 4.7-6.6 8.3-8.5 4-2.1 8.5-3.1 13.1-2.9 3.6 0 7.2 0.5 10.6 1.5 3.3 1 6.5 2.5 9.3 4.5v-14.9c-3.2-1.7-6.7-3-10.2-3.8-3.8-0.9-7.8-1.3-11.7-1.3-5.5-0.1-11 0.8-16.1 2.7a33.65 33.65 0 0 0-20.2 20.2c-1.9 5.2-2.8 10.6-2.7 16.1-0.1 5.6 0.8 11.1 2.6 16.4 1.6 4.6 4.2 8.8 7.6 12.3 3.4 3.4 7.5 6.1 12.1 7.7 5.2 1.9 10.6 2.8 16.1 2.7 4.2 0 8.5-0.6 12.7-1.6zm70.7-2.3c4.7-2.5 8.6-6.3 11.1-11.1 2.6-4.8 3.8-10.6 3.8-17.4v-44.3h-16.2v46.1c0 5.3-1.4 9.4-4.1 12.2-2.8 2.8-6.7 4.3-11.8 4.3s-9-1.4-11.8-4.3c-2.8-2.8-4.1-6.9-4.1-12.2v-46.1h-16.2v44.3c0 6.8 1.3 12.6 3.8 17.4 2.5 4.7 6.3 8.6 11 11.1 4.8 2.6 10.6 3.8 17.3 3.8 5.9 0.2 11.8-1.1 17.2-3.8zm74.7-11.7c3-6.2 6-12.3 9-18.5s5.9-12.4 8.8-18.7v51.2h15.4v-75.1h-18.9c-3.2 7.8-6.5 15.6-10 23.2-3.4 7.6-6.9 15.1-10.4 22.6-3.6-7.5-7.1-15.1-10.5-22.7-3.4-7.7-6.8-15.3-10.1-23h-19.4v75.1h15.4v-51c2.9 6.2 5.8 12.3 8.7 18.5s6 12.4 9 18.5h13zm103.2-19.3c-2.7-3.4-6.3-5.8-10.4-7 3-1.3 5.6-3.5 7.5-6.2 1.7-2.8 2.6-6 2.5-9.3 0-6.2-2.3-11-7-14.3s-11.3-5-19.8-5h-29v75.1h30.8c5.3 0.1 10.6-0.8 15.6-2.6 4-1.5 7.5-4.1 10-7.5 2.4-3.4 3.6-7.4 3.5-11.6 0-4.1-1.2-8.2-3.7-11.6zm-40.7-29.6h11.9c8.3 0 12.5 3 12.5 8.9 0.1 2.8-1.1 5.4-3.2 7.2-2.1 1.7-5.2 2.6-9.3 2.6h-11.9zm0 30.4h13.9c9.6 0 14.4 3.4 14.4 10.3 0.1 3-1.3 5.8-3.8 7.4-2.5 1.7-6.1 2.6-10.8 2.6h-13.6v-20.3zm81.9 5.2h1.6c5.4 9 10.6 18.1 15.6 27.3h18.6c-3.1-5.2-6.2-10.4-9.2-15.4l-9.3-15c4.1-1.7 7.5-4.5 10-8.1 2.4-3.8 3.7-8.2 3.5-12.7 0-7.7-2.6-13.6-7.9-17.7s-12.9-6.2-22.7-6.2h-27.4v75.1h16v-27.3zm-11.3-35.1h10.6c5 0 8.7 0.9 11.3 2.7s3.8 4.7 3.8 8.5c0 3.9-1.3 6.7-3.9 8.5s-6.4 2.7-11.3 2.7h-10.5zm55.7 62.4h16.2v-75.1h-16.2zm101.1 0c-4.6-12.5-9.4-25-14.3-37.5-4.9-12.6-10-25.1-15.2-37.5h-17.4c-5 11.8-10 24-15 36.5-4.9 12.5-9.8 25.4-14.5 38.5h17.3c1.8-5.5 3.6-10.9 5.5-16.3h30.4c1.8 5.3 3.6 10.7 5.5 16.3zm-38.4-58.7c1.7 4.7 3.5 9.5 5.3 14.3 1.8 4.9 3.5 9.7 5.2 14.6h-21.1c3.4-9.7 7-19.3 10.6-28.9z"/>
  <path d="m0 0v75h75v-75zm51.9 53c-1.4 1.9-3.3 3.3-5.5 4.2-2.7 1-5.6 1.5-8.5 1.5h-16.8v-42.2h15.8c4.7 0 8.3 0.9 10.8 2.8 2.6 1.9 4 4.9 3.8 8.1 0 1.8-0.4 3.6-1.4 5.2-1 1.5-2.4 2.8-4.1 3.5 2.3 0.7 4.3 2 5.7 3.9s2 4.2 2 6.5c0.2 2.3-0.5 4.6-1.8 6.5zm-10.7-20.6c1.2-1 1.8-2.5 1.7-4 0-3.3-2.3-5-6.8-5h-6.5v10.5h6.5c1.8 0 3.6-0.5 5.1-1.5zm-4 8h-7.6v11.4h7.5c2.1 0.1 4.1-0.4 5.9-1.4 1.4-0.9 2.1-2.5 2.1-4.2-0.1-3.9-2.7-5.8-7.9-5.8zm56.5-40.4v75h75v-75zm51.9 53c-1.4 1.9-3.3 3.3-5.5 4.2-2.7 1-5.6 1.5-8.5 1.5h-16.8v-42.2h15.8c4.7 0 8.3 0.9 10.8 2.8 2.6 1.9 4 4.9 3.8 8.1 0 1.8-0.4 3.6-1.4 5.2-1 1.5-2.4 2.8-4.1 3.5 2.3 0.7 4.3 2 5.7 3.9s2 4.2 2 6.5c0.2 2.3-0.4 4.6-1.8 6.5zm-10.7-20.6c1.2-1 1.8-2.5 1.7-4 0-3.3-2.3-5-6.8-5h-6.5v10.5h6.5c1.9 0 3.6-0.5 5.1-1.5zm-4 8h-7.6v11.4h7.5c2.1 0.1 4.1-0.4 5.9-1.4 1.4-0.9 2.1-2.5 2.1-4.2 0-3.9-2.6-5.8-7.9-5.8zm56.6 34.6h75v-75h-75zm53.8-19c-1.9 1-4 1.8-6.1 2.3-2.4 0.6-4.8 0.8-7.3 0.8-3.1 0-6.2-0.5-9.1-1.5-2.6-0.9-4.9-2.4-6.8-4.3s-3.4-4.2-4.3-6.8c-1-2.9-1.5-6-1.5-9.1 0-3 0.5-6 1.5-8.9 1-2.6 2.5-4.9 4.5-6.8s4.4-3.4 7-4.3c2.9-1 6-1.5 9.1-1.5 2.2 0 4.5 0.2 6.6 0.7 2 0.5 4 1.2 5.8 2.1v8.2c-1.6-1.1-3.4-1.9-5.3-2.5-2-0.6-4-0.8-6-0.8-2.6-0.1-5.1 0.5-7.4 1.6-2 1-3.7 2.7-4.7 4.7-1.2 2.3-1.7 4.9-1.6 7.5-0.1 2.6 0.5 5.2 1.6 7.5 1 2 2.6 3.7 4.6 4.7 2.3 1.1 4.8 1.7 7.3 1.6 4.3 0 8.5-1.2 12.1-3.4zm63.2-10.8v20.4h-12v-56.2h20.5c7.4 0 13.1 1.5 17 4.6 4 3.1 5.9 7.5 5.9 13.3 0.3 6.8-3.8 13.1-10.1 15.6 2.4 3.7 4.7 7.5 7 11.2s4.6 7.6 6.9 11.5h-13.9c-3.8-6.9-7.7-13.7-11.7-20.4zm0-9.5h7.9c3.7 0 6.6-0.7 8.5-2s2.9-3.4 2.9-6.3-1-5-2.9-6.4-4.7-2-8.5-2h-7.9zm83 30c-1.4-4.1-2.7-8.2-4.1-12.2h-22.8c-1.4 4-2.7 8.1-4.1 12.2h-13c3.6-9.9 7.2-19.5 10.9-28.9s7.4-18.5 11.2-27.4h13.1c3.9 9.3 7.7 18.7 11.4 28.1s7.3 18.8 10.7 28.1zm-23.4-22.3h15.8c-1.3-3.7-2.6-7.3-3.9-11-1.3-3.6-2.7-7.2-4-10.7-2.7 7.2-5.3 14.4-7.9 21.7zm43.6-34h21.5c5.3-0.1 10.5 1 15.2 3.3 4.1 2.1 7.5 5.4 9.6 9.6 2.3 4.7 3.5 9.9 3.3 15.1 0.1 5.3-1 10.5-3.3 15.2-2.1 4.1-5.5 7.5-9.6 9.7-4.7 2.4-10 3.5-15.3 3.3h-21.4zm20.7 45.9c5.2 0 9.3-1.5 12.1-4.6s4.2-7.5 4.2-13.3c0-5.7-1.4-10.1-4.1-13.1-2.8-3-6.8-4.5-12.1-4.5h-8.7v35.5zm38.5-45.9h12.1v56.2h-12.1zm49.6-1.1c3.9-0.1 7.8 0.6 11.5 2 3.3 1.3 6.3 3.3 8.8 5.9s4.4 5.8 5.6 9.2c2.6 7.9 2.6 16.4 0 24.3-1.2 3.5-3.1 6.6-5.6 9.3-2.5 2.6-5.5 4.6-8.8 5.9-7.4 2.7-15.6 2.7-23 0-3.3-1.3-6.3-3.3-8.8-5.9-2.5-2.7-4.4-5.8-5.6-9.3-2.6-7.9-2.6-16.4 0-24.3 1.2-3.4 3.1-6.6 5.6-9.2s5.5-4.6 8.8-5.9c3.7-1.4 7.6-2.1 11.5-2zm0 48c2.9 0.1 5.8-0.7 8.3-2.2 2.4-1.6 4.2-3.8 5.3-6.4 2.4-6.5 2.4-13.7 0-20.3-1.1-2.6-2.9-4.8-5.3-6.4-5.1-2.9-11.4-2.9-16.5 0-2.4 1.5-4.2 3.8-5.3 6.4-2.4 6.5-2.4 13.7 0 20.3 1.1 2.6 2.9 4.9 5.3 6.4s5.3 2.3 8.2 2.2z"/>
 </g>
</svg>
