<?xml version="1.0" encoding="UTF-8" standalone="no"?>
<svg xmlns:rdf="http://www.w3.org/1999/02/22-rdf-syntax-ns#" xmlns="http://www.w3.org/2000/svg" height="238.93" width="600" version="1.1" xmlns:cc="http://creativecommons.org/ns#" xmlns:dc="http://purl.org/dc/elements/1.1/" viewBox="0 0 158.75 63.216394">
 <g fill="#fff">
  <path d="m29.53 1.9473h12.814v12.059h-12.814zm8.075 1.6782-0.172-0.0288-0.07-0.0082-0.295-0.0328-0.205-0.0164-0.357-0.0123h-0.136l-0.283 0.0164-0.156 0.0123-0.23 0.0246-0.061 0.0041-0.07 0.0123-0.086 0.0165-0.107 0.0164-0.147 0.0287-0.842 0.2544-0.389 0.1641-0.296 0.16-0.262 0.16-0.144 0.0985-0.115 0.0862-0.238 0.1928-0.193 0.1806-0.16 0.1682-0.152 0.1805-0.151 0.197-0.111 0.1559-0.066 0.1108-0.353 0.7016-0.25 0.9971-0.033 0.3487-0.008 0.2708v0.2052l0.021 0.2051 0.008 0.0493 0.037 0.2421 0.02 0.0902 0.041 0.197 0.078 0.2421 0.107 0.2872 0.201 0.4263 0.131 0.226 0.111 0.168 0.156 0.205 0.164 0.201 0.205 0.218 0.033 0.037 0.185 0.168 0.147 0.123 0.152 0.115 0.205 0.14 0.242 0.147 0.567 0.271 0.234 0.082 0.25 0.082 0.468 0.111 0.41 0.062 0.435 0.041 0.217 0.012h0.111l0.747-0.037 0.045-0.004 0.267-0.025 0.377-0.057 0.218-0.045 0.316-0.074 0.221-0.062 0.23-0.078 0.074-0.024 0.147-0.054 0.275-0.11 0.206-0.091 0.192-0.094 0.087-0.041v-1.6454l-0.062 0.0364-0.111 0.07-0.328 0.193-0.357 0.181-0.587 0.238-0.976 0.262-0.103 0.017-0.23 0.032-0.316 0.021-0.176 0.008-0.357-0.012-0.435-0.049-0.714-0.189-0.098-0.041-0.074-0.029-0.107-0.049-0.246-0.119-0.111-0.07-0.119-0.082-0.135-0.102-0.136-0.107-0.053-0.049-0.029-0.025-0.012-0.012-0.021-0.017-0.209-0.2254-0.094-0.1231-0.082-0.1272-0.074-0.1149-0.094-0.1723-0.066-0.1436-0.09-0.2503-0.054-0.1806-0.078-0.4636-0.008-0.1436-0.004-0.1641v-0.1067l0.033-0.3488 0.053-0.2626 0.049-0.1887 0.062-0.1806 0.049-0.119 0.082-0.1682 0.07-0.1272 0.185-0.279 0.078-0.0985 0.11-0.1272 0.058-0.0615 0.989-0.6852 0.168-0.0698 0.168-0.0615 0.181-0.0575 0.176-0.0451 0.172-0.0328 0.193-0.0328 0.189-0.0206 0.349-0.0123h0.119l0.25 0.0082 0.164 0.0123 0.296 0.037 0.246 0.041 0.324 0.078 0.168 0.0492 0.205 0.0615 0.136 0.0493 0.242 0.0944 0.299 0.1312 0.226 0.1067 0.164 0.0821 0.23 0.1272 0.168 0.0903v-1.6167l-0.275-0.1107-0.275-0.0944-0.18-0.0657-0.156-0.0492-0.193-0.0656-0.148-0.0452-0.045-0.0123-0.139-0.0369-0.181-0.0493-0.115-0.0246-0.197-0.0451z"/>
  <path d="m19.685 8.6197v2.3713h1.539l0.078-0.004 0.217-0.016 0.6-0.119 0.525-0.3 0.139-0.18 0.156-0.4885 0.004-0.0739v-0.0615l-0.033-0.2298-0.176-0.3611-0.062-0.0697-0.139-0.1149-0.287-0.16-0.464-0.1354-0.271-0.0369-0.184-0.0165-0.156-0.0041z"/>
  <path d="m19.685 5.0119v2.2485h0.743l0.115-0.0082 0.168-0.0082 0.579-0.0862 0.123-0.041 0.451-0.2626 0.205-0.3119 0.078-0.3364 0.008-0.1272-0.004-0.0985-0.098-0.4103-0.16-0.2093-0.296-0.1928-0.648-0.1436-0.238-0.0123z"/>
  <path d="m14.767 1.9514h12.814v12.059h-12.814zm3.361 1.6864v8.6902h3.274s1.592 0.041 2.47-0.837c0.714-0.718 0.665-1.5508 0.665-1.5508s0.049-0.8617-0.611-1.5264c-0.567-0.5621-1.285-0.7139-1.285-0.7139l0.579-0.4021c0.111-0.119 0.529-0.4965 0.529-1.4115 0-0.9191-0.611-1.4484-0.611-1.4484s-0.673-0.8001-2.191-0.8001z"/>
  <path d="m4.9179 8.6197v2.3713h1.5428l0.078-0.004 0.2133-0.016 0.5991-0.119 0.5334-0.3 0.1313-0.18 0.1559-0.4885 0.0123-0.0739v-0.0615l-0.0369-0.2298-0.1806-0.3611-0.0615-0.0697-0.1313-0.1149-0.2872-0.16-0.4678-0.1354-0.2708-0.0369-0.1764-0.0165-0.16-0.0041z"/>
  <path d="m4.9179 5.0119v2.2485h0.7509l0.1108-0.0082 0.1682-0.0082 0.5786-0.0862 0.1231-0.041 0.4472-0.2626 0.2051-0.3119 0.078-0.3364 0.0082-0.1272v-0.0985l-0.1026-0.4103-0.1559-0.2093-0.2995-0.1928-0.6524-0.1436-0.2298-0.0123z"/>
  <path d="m0.00041032 1.9514h12.814v12.059h-12.814zm3.3645 1.6864v8.6902h3.2661s1.5961 0.041 2.4783-0.837c0.7139-0.718 0.6647-1.5508 0.6647-1.5508s0.0492-0.8617-0.6114-1.5264c-0.5662-0.5621-1.2883-0.7139-1.2883-0.7139l0.5785-0.4021c0.1149-0.119 0.5334-0.4965 0.5334-1.4115 0-0.9191-0.6155-1.4484-0.6155-1.4484s-0.6688-0.8001-2.1869-0.8001z"/>
  <path d="m1.432 18.225h0.9232c1.3827 0 1.9448 0.566 1.9572 1.506 0.0164 0.833-0.4227 1.621-1.9572 1.621h-0.9232zm-1.432-1.231v9.967h1.432v-4.321h0.599c0.7386 0 1.3294 0.23 2.6465 2.277l1.3171 2.044h1.7069c-0.6852-0.944-0.9314-1.285-1.3581-1.97-0.7591-1.239-1.313-2.162-2.2198-2.761 1.0627-0.427 1.6659-1.289 1.6659-2.442 0-1.727-1.2556-2.794-3.2743-2.794z"/>
  <path d="m12.387 19.131 1.608 3.611h-3.102zm0.525-2.191h-1.005l-4.288 10.02h1.4607l1.2593-2.929h4.239l1.329 2.929h1.461z"/>
  <path d="m19.993 18.281h2.199c2.799 0 4.071 1.698 4.071 3.701 0 1.226-0.747 3.696-3.989 3.696h-2.281zm-1.432 8.682h3.886c3.29 0 5.289-2.425 5.289-4.981 0-2.356-1.621-4.99-5.302-4.99h-3.873z"/>
  <path d="m29.391 26.964h1.432v-9.971h-1.432z"/>
  <path d="m33.949 21.981c0-2.195 1.65-3.799 3.874-3.799 2.236 0 3.885 1.604 3.885 3.799 0 2.175-1.649 3.804-3.885 3.804-2.224 0-3.874-1.629-3.874-3.804m-1.477 0c0 2.704 2.06 5.117 5.322 5.117 3.373 0 5.391-2.429 5.391-5.117 0-2.778-2.076-5.116-5.362-5.116-3.229 0-5.351 2.355-5.351 5.116"/>
 </g>
 <g fill="#449637">
  <path d="m85.188 24.188c8.002 0 13.59 6.101 13.59 14.832 0 4.223-1.658 8.17-4.661 11.116-3.065 2.999-7.127 4.595-11.411 4.501-7.225 0-14.558-3.59-15.867-11.546h11.51c0.894 1.341 2.371 2.133 4.185 2.133 3.52 0 5.416-3.196 5.416-6.204 0-2.978-1.678-5.978-5.416-5.978-2.241 0-3.476 0.649-4.899 2.585l-0.337 0.46h-10.081l5.182-25.751h26.921l-1.867 9.388h-16.971s-0.8 3.676-1.169 5.777c1.686-0.887 3.611-1.313 5.875-1.313m-1.834-24.188c-17.442 0-31.589 14.152-31.589 31.61 0 17.459 14.147 31.606 31.589 31.606 17.446 0 31.586-14.147 31.586-31.606 0-17.458-14.14-31.61-31.586-31.61"/>
  <path d="m128.13 31.68 2.12-16.167h-3.99l-2.12 16.167z"/>
  <path d="m126.92 10.385-0.43 2.888h3.99l0.43-2.888z"/>
  <path d="m138.56 31.68 8.04-16.167h-4.27s-3.7 7.928-4.56 9.778c-0.41-1.969-2-9.778-2-9.778h-4.2l3.82 16.167z"/>
  <path d="m154.72 21.772h-5.43c0.43-1.637 1.59-2.634 3.11-2.634 0.73 0 1.32 0.225 1.72 0.66 0.4 0.439 0.6 1.092 0.6 1.904zm2.63-4.497c-1.1-1.252-2.72-1.945-4.57-1.945-3.23 0-6.97 2.171-7.77 8.255-0.37 2.819 0.08 4.969 1.32 6.385 1.09 1.239 2.77 1.891 4.89 1.891 2.33 0 4.46-0.898 6.15-2.601l0.33-0.332-2.62-2.511-0.32 0.287c-0.92 0.837-2.15 1.354-3.22 1.354-0.95 0-1.7-0.279-2.17-0.809-0.38-0.434-0.57-1.05-0.57-1.797l0.02-0.242h9.47l0.39-2.925 0.07-1.022c0-1.551-0.48-2.942-1.4-3.988"/>
  <path d="m124.32 10.383h-4l-2.8 21.279h3.99z"/>
  <path d="m118.81 40.775c-0.89 0-1.49-0.262-2.02-0.874l-0.13-0.147-1.49 1.276 0.14 0.152c0.85 0.919 1.91 1.378 3.18 1.378 1.91 0 3.35-0.972 3.56-2.425 0.11-0.697-0.02-1.288-0.36-1.707-0.34-0.422-0.88-0.664-1.62-0.714l-1.2-0.09c-0.39-0.029-0.56-0.135-0.63-0.221l-0.05-0.242c0.03-0.177 0.1-0.71 1.19-0.71 0.65 0 1.17 0.188 1.74 0.636l0.14 0.11 1.34-1.337-0.15-0.144c-0.75-0.718-1.66-1.054-2.86-1.054-1.77 0-3.05 0.952-3.27 2.425-0.09 0.607 0.03 1.14 0.35 1.542 0.35 0.444 0.91 0.71 1.63 0.768l1.29 0.119 0.56 0.188 0.04 0.304c-0.07 0.48-0.58 0.767-1.38 0.767"/>
  <path d="m127.07 36.538c0.38 0 0.63 0.09 0.79 0.275 0.31 0.352 0.23 1.07 0.13 1.78-0.18 1.186-0.41 2.093-1.6 2.093l-0.77-0.271c-0.31-0.365-0.24-1.104-0.14-1.764 0.16-1.116 0.41-2.113 1.59-2.113m-2.89-1.789-1.36 9.162h1.88c0.12-0.808 0.25-1.703 0.3-2.011 0.49 0.439 1.01 0.661 1.62 0.661 1.1 0 1.83-0.554 2.25-1.018 0.54-0.578 0.73-1.12 0.99-2.892 0.26-1.797 0.24-2.347-0.13-2.938-0.3-0.48-0.88-1.05-2-1.05-0.6 0-1.21 0.213-1.75 0.586l0.08-0.5z"/>
  <path d="m132.94 38.633c0.16-1.063 0.29-1.292 0.58-1.633 0.24-0.275 0.68-0.464 1.11-0.464 0.41 0 0.79 0.177 0.93 0.435l0.17 0.673c0 0.222-0.03 0.517-0.09 0.948-0.16 1.063-0.28 1.288-0.57 1.629-0.24 0.283-0.69 0.468-1.11 0.468-0.41 0-0.79-0.181-0.94-0.435-0.18-0.328-0.24-0.55-0.08-1.621m0.8 3.931c0.97 0 1.81-0.337 2.5-0.997 0.73-0.698 1.05-1.408 1.27-2.934 0.23-1.522 0.13-2.236-0.42-2.95-0.51-0.677-1.26-1.022-2.24-1.022-0.97 0-1.81 0.337-2.5 0.997-0.74 0.698-1.05 1.408-1.27 2.918-0.08 0.5-0.12 0.919-0.12 1.276 0 0.73 0.17 1.21 0.53 1.69 0.51 0.681 1.27 1.022 2.25 1.022"/>
  <path d="m143.1 34.664c-0.67 0-1.28 0.209-1.79 0.595l0.08-0.509h-1.88l-1.15 7.726h1.88l0.68-4.579c0.15-1.005 0.88-1.358 1.46-1.358l0.78 0.312 0.15 0.119 1.53-1.555-0.16-0.14c-0.47-0.41-0.98-0.611-1.58-0.611"/>
  <path d="m153.09 36.451c0.65 0 1.17 0.189 1.74 0.636l0.14 0.111 1.34-1.338-0.15-0.147c-0.75-0.714-1.65-1.051-2.86-1.051-1.77 0-3.05 0.952-3.27 2.425-0.09 0.607 0.03 1.141 0.35 1.539 0.35 0.447 0.91 0.71 1.63 0.771l1.29 0.115 0.56 0.193 0.04 0.303c-0.07 0.481-0.59 0.764-1.38 0.764-0.88 0-1.49-0.259-2.02-0.87l-0.13-0.148-1.49 1.276 0.14 0.152c0.85 0.915 1.91 1.379 3.18 1.379 1.92 0 3.35-0.973 3.57-2.425 0.1-0.698-0.02-1.289-0.36-1.711-0.35-0.423-0.89-0.661-1.63-0.714l-1.2-0.086c-0.39-0.033-0.56-0.136-0.63-0.222l-0.05-0.242c0.03-0.177 0.1-0.71 1.19-0.71"/>
  <path d="m117.46 46.542 0.87 0.336c0.19 0.218 0.29 0.525 0.29 0.915l-0.01 0.132h-2.73c0.22-0.85 0.8-1.383 1.58-1.383m2.41 4.805-1.18-1.153-0.12 0.106c-0.46 0.415-1.08 0.673-1.61 0.673-0.48 0-0.85-0.143-1.08-0.406l-0.28-0.87 0.02-0.209h4.6l0.2-1.371 0.05-0.549c0-0.718-0.22-1.359-0.64-1.847-0.52-0.591-1.28-0.919-2.16-0.919-1.54 0-3.35 1.038-3.78 3.951-0.2 1.354-0.01 2.384 0.58 3.065 0.5 0.583 1.31 0.895 2.31 0.895 1.12 0 2.14-0.427 2.97-1.243z"/>
  <path d="m125.75 44.89-1.71 2.236c-0.19-0.407-1.05-2.236-1.05-2.236h-2.16l1.96 3.766-3.24 3.968h2.22l1.83-2.318c0.19 0.393 1.13 2.318 1.13 2.318h2.17l-2.04-3.923 3.12-3.811z"/>
  <path d="m130.06 50.824-0.03-0.156 0.01-0.144s0.51-3.426 0.62-4.16h1.07l0.22-1.473h-1.08c0.03-0.144 0.09-0.583 0.16-1.042h-1.83c-0.07 0.471-0.14 0.931-0.16 1.042h-0.74l-0.22 1.473h0.75l-0.64 4.242-0.02 0.386c0 0.435 0.12 0.808 0.37 1.091 0.3 0.353 0.77 0.542 1.35 0.542h0.92l0.26-1.74h-0.75z"/>
  <path d="m141.44 49.833c-0.15 1.03-0.48 1.141-1.69 1.141-0.47 0-0.81-0.103-0.98-0.295l-0.12-0.337 0.01-0.111c0.09-0.615 0.73-0.742 1.25-0.742h1.58zm-0.7-5.034c-1.22 0-2.1 0.365-2.78 1.14l-0.11 0.132 1.3 1.112 0.11-0.14c0.29-0.373 0.62-0.5 1.35-0.5 0.61 0 0.96 0.082 1.12 0.258l0.1 0.324-0.01 0.173-0.09 0.623h-1.92c-1.76 0-2.72 1.174-2.9 2.335l-0.03 0.386c0 0.504 0.16 0.947 0.46 1.3 0.44 0.505 1.13 0.772 2.01 0.772 0.78 0 1.33-0.144 1.73-0.456l-0.05 0.37h1.82l0.78-5.195c0.11-0.78-0.02-1.395-0.39-1.83-0.47-0.537-1.29-0.804-2.5-0.804"/>
  <path d="m136.48 44.8c-0.7 0-1.33 0.23-1.85 0.648l0.08-0.562h-1.83l-1.15 7.739h1.83l0.68-4.596c0.16-1.034 0.91-1.403 1.51-1.403l0.66 0.213 1.52-1.522c-0.43-0.345-0.91-0.517-1.45-0.517"/>
  <path d="m147.2 40.674-0.04-0.156 0.02-0.144s0.5-3.426 0.61-4.16h1.08l0.22-1.474h-1.08c0.02-0.143 0.09-0.586 0.16-1.042h-1.84c-0.07 0.472-0.13 0.932-0.15 1.042h-0.75l-0.21 1.474h0.74l-0.63 4.242-0.03 0.386c0 0.435 0.13 0.808 0.37 1.091 0.31 0.353 0.77 0.542 1.35 0.542h0.92l0.26-1.74h-0.75z"/>
 </g>
</svg>
