<svg version="1.1" viewBox="0 0 512 219.43" xmlns="http://www.w3.org/2000/svg">
 <g fill="#FFF">
  <path d="m34.194 159.63c3.1054-1.2894 5.7723-3.4483 7.68-6.2172 1.8969-2.9021 2.8545-6.3176 2.7429-9.7828 0-5.9429-2.0114-10.514-6.1257-13.623-4.1143-3.1086-9.8743-4.7543-17.463-4.7543h-21.029v57.691h12.251v-21.029h9.9657c4.1143 6.8571 8.1371 13.897 12.069 21.029h14.263c-2.3771-4.0228-4.7543-7.9543-7.1314-11.794-2.3771-3.9314-4.7543-7.7714-7.2229-11.52zm-5.12-9.5086c-2.0114 1.3714-4.9371 2.1029-8.6857 2.1029h-8.0457v-17.189h8.1371c3.84 0 6.6743 0.73143 8.6857 2.1029 2.0114 1.3714 2.9257 3.5657 2.9257 6.5828 0 2.8343-1.0057 5.0286-3.0171 6.4zm58.971-24.96h-13.349c-3.84 9.1429-7.68 18.469-11.52 28.069s-7.4971 19.474-11.154 29.623h13.349c1.3714-4.2057 2.8343-8.4114 4.2057-12.526h23.406c1.3714 4.1143 2.8343 8.2286 4.2057 12.526h13.623c-3.5657-9.6-7.2229-19.2-11.063-28.891-3.84-9.6914-7.68-19.2-11.703-28.8zm-14.994 34.926c2.6514-7.4971 5.3943-14.903 8.1371-22.309 1.3714 3.5657 2.7429 7.3143 4.1143 11.063 1.3714 3.7486 2.7429 7.4972 4.0229 11.246zm82.377-31.543c-4.2971-2.2857-9.5086-3.3829-15.634-3.3829h-22.034v57.691h21.943c6.1257 0 11.337-1.0971 15.634-3.4743 4.2452-2.2176 7.6959-5.7003 9.8743-9.9657 2.4277-4.8459 3.6211-10.216 3.4743-15.634 0-6.1257-1.0971-11.246-3.3828-15.543-2.2175-4.1683-5.6653-7.5522-9.8743-9.6914zm-3.9314 39.04c-2.9257 3.1086-7.04 4.7543-12.434 4.7543h-8.8686v-36.389h8.96c5.3943 0 9.6 1.5543 12.434 4.6628 2.8343 3.1086 4.2057 7.5886 4.2057 13.44s-1.3714 10.331-4.2972 13.531zm27.063-42.423h12.434v57.691h-12.434zm71.863 6.9486c-2.5374-2.6518-5.6277-4.712-9.0514-6.0343-3.7678-1.4234-7.7667-2.1364-11.794-2.1029-4.0283-0.0419-8.0287 0.67135-11.794 2.1029-3.4412 1.2883-6.5387 3.3533-9.0514 6.0343-2.5244 2.7268-4.4823 5.9278-5.76 9.4171-2.6819 8.0726-2.6819 16.796 0 24.869 1.2552 3.5274 3.215 6.7625 5.76 9.5086 2.5127 2.681 5.6102 4.746 9.0514 6.0343 3.7678 1.4234 7.7667 2.1364 11.794 2.1028 4.0283 0.0419 8.0287-0.67134 11.794-2.1028 3.4412-1.2883 6.5387-3.3533 9.0514-6.0343 2.5258-2.7605 4.483-5.9916 5.76-9.5086 1.3993-3.9935 2.0803-8.2033 2.0114-12.434 0.084-4.2321-0.59743-8.4445-2.0114-12.434-1.2561-3.4998-3.2165-6.7048-5.76-9.4171zm-6.9486 32.366c-1.1172 2.6736-2.9924 4.962-5.3943 6.5829-5.259 3.0472-11.747 3.0472-17.006 0-2.4257-1.5946-4.3075-3.891-5.3943-6.5829-1.3364-3.3068-1.9595-6.8586-1.8286-10.423-0.0857-3.561 0.53585-7.1037 1.8286-10.423 1.1172-2.6736 2.9924-4.962 5.3943-6.5829 2.5636-1.5448 5.5102-2.337 8.5028-2.2857 2.9979-0.0956 5.9569 0.69985 8.5029 2.2857 2.4456 1.5724 4.3332 3.8759 5.3943 6.5829 1.3364 3.3068 1.9595 6.8586 1.8286 10.423 0.0773 3.5604-0.54395 7.1014-1.8286 10.423zm-206.81-88.503h-7.4057v11.154h7.3143c2.0127 0.11515 4.0151-0.36161 5.76-1.3714 1.3294-0.89558 2.0926-2.422 2.0114-4.0229 0-3.84-2.56-5.76-7.68-5.76zm36.48-39.314h-73.143v73.143h73.143zm-22.126 51.657c-1.3702 1.8187-3.2007 3.239-5.3029 4.1143-2.6566 1.0068-5.4793 1.5031-8.32 1.4629h-16.457v-41.143h15.451c4.5714 0 8.0457 0.91428 10.606 2.7429 2.4797 1.8342 3.8848 4.7815 3.7486 7.8629 0.03589 1.802-0.43962 3.5772-1.3714 5.12-0.94832 1.4905-2.3161 2.6675-3.9314 3.3829 2.2174 0.65996 4.1695 2.004 5.5771 3.84 1.3244 1.8651 1.999 4.1139 1.92 6.4 0.02416 2.2219-0.64717 4.3958-1.92 6.2171zm-10.423-20.114c1.1446-0.97972 1.7834-2.4255 1.7371-3.9314 0-3.2914-2.1943-4.9371-6.6743-4.9371h-6.4v10.24h6.4c1.7522 0.10204 3.4886-0.38031 4.9371-1.3714zm91.429 0c1.1446-0.97972 1.7834-2.4255 1.7371-3.9314 0-3.2914-2.1943-4.9371-6.6743-4.9371h-6.3086v10.24h6.3086c1.7551 0.13066 3.5009-0.35428 4.9372-1.3714zm32.64-31.543h-73.143v73.143h73.143zm-22.126 51.657c-1.3702 1.8187-3.2007 3.239-5.3028 4.1143-2.6566 1.0068-5.4793 1.5031-8.32 1.4629h-16.457v-41.143h15.451c4.5714 0 8.0457 0.91428 10.606 2.7429 2.4797 1.8342 3.8848 4.7815 3.7486 7.8629 0.0359 1.802-0.43962 3.5772-1.3714 5.12-0.94832 1.4905-2.3161 2.6675-3.9314 3.3829 2.2174 0.65996 4.1695 2.004 5.5771 3.84 1.3244 1.8651 1.999 4.1139 1.92 6.4-0.0629 2.2084-0.7267 4.3578-1.92 6.2171zm-14.354-12.343h-7.4057v11.154h7.3143c2.0127 0.11515 4.0151-0.36161 5.76-1.3714 1.3294-0.89557 2.0926-2.422 2.0114-4.0229 0-3.84-2.56-5.76-7.68-5.76zm128-39.314h-73.143v73.143h73.143zm-26.606 56.777c-2.3355 0.55972-4.7299 0.836-7.1314 0.82286-3.0208 0.05922-6.0268-0.43662-8.8686-1.4629-5.1024-1.7161-9.1209-5.7008-10.88-10.789-1.0262-2.8418-1.5221-5.8478-1.4628-8.8686-0.0754-2.9706 0.45341-5.9256 1.5543-8.6857 0.98072-2.5068 2.4757-4.7804 4.3886-6.6743 1.9551-1.8807 4.2945-3.3156 6.8572-4.2057 2.8737-1.0251 5.9095-1.5207 8.96-1.4629 2.1843 2e-3 4.3615 0.24727 6.4914 0.73143 1.9727 0.45234 3.8782 1.1592 5.6686 2.1029v8.0457c-1.5894-1.0827-3.3518-1.8866-5.2114-2.3771-1.9007-0.55445-3.8715-0.83159-5.8514-0.82286-2.4963-0.05624-4.9707 0.47623-7.2229 1.5543-1.9661 1.0059-3.5655 2.6053-4.5714 4.5714-1.1301 2.2668-1.665 4.7838-1.5543 7.3143-0.0556 2.5256 0.47645 5.0296 1.5543 7.3143 0.97071 1.9604 2.5396 3.5613 4.48 4.5714 2.2011 1.1307 4.6595 1.6665 7.1314 1.5543 4.1632 0.03723 8.252-1.1038 11.794-3.2914v7.8629c-1.9571 0.94959-4.0108 1.6853-6.1257 2.1943z"/>
  <path d="m402.29 0c-44.375 0-84.381 26.731-101.36 67.728-16.981 40.997-7.5916 88.184 23.786 119.56s78.566 40.767 119.56 23.786c40.997-16.981 67.728-56.987 67.728-101.36 0-60.594-49.121-109.71-109.71-109.71zm53.76 183.13h-101.94v-2.6514c-0.0558-6.9607 0.55652-13.911 1.8286-20.754 1.218-5.9586 3.3457-11.694 6.3086-17.006 3.3177-5.6092 7.3772-10.745 12.069-15.269 5.8465-5.5724 12.146-10.649 18.834-15.177 5.5744-3.7996 10.946-7.889 16.091-12.251 3.9314-3.4743 6.7657-6.6743 8.32-9.7829 1.5677-3.0878 2.3822-6.5028 2.3771-9.9657 0-13.074-8.1371-19.566-24.32-19.566-6.6908-0.01517-13.336 1.0976-19.657 3.2914-6.7432 2.4354-13.043 5.9561-18.651 10.423v-28.526c6.641-4.1523 13.847-7.3241 21.394-9.4171 7.6582-2.0723 15.564-3.0875 23.497-3.0171 10.149 0 18.926 1.7371 26.423 5.12 7.0976 3.1099 13.157 8.1859 17.463 14.629 4.1143 6.3086 6.2171 13.806 6.2171 22.4 0.0503 5.1364-0.50206 10.261-1.6457 15.269-1.1135 4.5542-2.9999 8.8836-5.5771 12.8-3.0723 4.4349-6.6978 8.4597-10.789 11.977-5.3771 4.6128-11.059 8.8586-17.006 12.709-5.1647 3.3158-10.14 6.9176-14.903 10.789-3.5435 2.9015-6.79 6.1479-9.6914 9.6914-2.3721 2.9741-4.2548 6.3073-5.5771 9.8743h68.846v24.411z" fill="#ff881d"/>
 </g>
</svg>
