<?xml version="1.0" encoding="UTF-8" standalone="no"?>
<svg xmlns:rdf="http://www.w3.org/1999/02/22-rdf-syntax-ns#" xmlns="http://www.w3.org/2000/svg" height="249.57" width="600" version="1.1" xmlns:cc="http://creativecommons.org/ns#" xmlns:dc="http://purl.org/dc/elements/1.1/" viewBox="0 0 158.75 66.031539">
 <g transform="translate(-278.69 -143.41)">
  <g fill="#fff">
   <g stroke-width="3.1942">
    <rect height="43.921" width="37.133" stroke="#fff" y="153.88" x="347.5"/>
    <path d="m317.97 147.21c-0.06-0.02-0.12-0.03-0.18-0.04l-0.07-0.01c-0.1-0.01-0.2-0.02-0.31-0.03-0.07-0.01-0.14-0.01-0.21-0.02-0.14-0.01-0.26-0.01-0.37-0.01h-0.15c-0.1 0-0.2 0.01-0.3 0.01-0.05 0.01-0.1 0.01-0.16 0.02-0.08 0-0.15 0.01-0.23 0.02l-0.07 0.01-0.08 0.01-0.08 0.01c-0.04 0.01-0.08 0.02-0.11 0.03-0.06 0-0.11 0.01-0.16 0.02-0.32 0.07-0.61 0.16-0.88 0.26-0.14 0.06-0.28 0.12-0.4 0.18-0.11 0.06-0.21 0.11-0.31 0.17-0.1 0.05-0.19 0.11-0.28 0.16-0.05 0.04-0.1 0.07-0.15 0.11l-0.12 0.09c-0.09 0.07-0.17 0.14-0.25 0.2-0.07 0.06-0.13 0.13-0.2 0.19-0.05 0.06-0.12 0.11-0.16 0.18-0.06 0.06-0.12 0.12-0.16 0.18-0.06 0.07-0.11 0.14-0.16 0.21-0.05 0.05-0.08 0.11-0.12 0.17-0.03 0.04-0.05 0.07-0.07 0.11-0.14 0.23-0.26 0.47-0.37 0.73-0.12 0.33-0.21 0.68-0.26 1.05-0.01 0.12-0.02 0.23-0.03 0.36-0.01 0.09-0.01 0.19-0.01 0.28v0.21c0.01 0.08 0.02 0.15 0.02 0.22l0.01 0.05c0.01 0.09 0.02 0.17 0.04 0.25 0 0.04 0.01 0.07 0.02 0.1 0.01 0.07 0.03 0.14 0.04 0.2 0.03 0.09 0.05 0.17 0.08 0.26 0.04 0.1 0.08 0.2 0.11 0.29 0.07 0.16 0.14 0.3 0.21 0.44 0.05 0.09 0.1 0.17 0.14 0.24s0.08 0.12 0.12 0.18c0.05 0.08 0.11 0.15 0.16 0.22s0.11 0.14 0.18 0.2c0.06 0.08 0.14 0.16 0.21 0.23l0.03 0.04c0.06 0.05 0.12 0.12 0.19 0.18 0.05 0.03 0.1 0.08 0.16 0.12 0.05 0.04 0.11 0.09 0.16 0.12 0.07 0.06 0.14 0.1 0.21 0.15 0.09 0.05 0.17 0.1 0.26 0.16 0.17 0.09 0.37 0.19 0.58 0.28 0.08 0.03 0.17 0.06 0.25 0.09 0.09 0.03 0.18 0.05 0.26 0.08 0.16 0.04 0.32 0.08 0.49 0.12 0.14 0.02 0.28 0.04 0.43 0.06s0.3 0.03 0.45 0.04c0.08 0.01 0.16 0.01 0.23 0.01h0.12c0.28 0 0.54-0.01 0.78-0.03h0.04c0.1-0.01 0.19-0.02 0.28-0.04 0.14-0.01 0.27-0.03 0.39-0.06 0.08-0.01 0.16-0.02 0.23-0.04 0.12-0.02 0.23-0.05 0.34-0.08 0.07-0.02 0.15-0.04 0.22-0.06 0.09-0.03 0.17-0.06 0.25-0.08l0.07-0.03c0.04-0.01 0.09-0.03 0.15-0.05 0.08-0.04 0.18-0.07 0.29-0.12l0.21-0.09c0.07-0.04 0.14-0.07 0.21-0.1 0.02-0.02 0.06-0.03 0.09-0.05v-1.71c-0.02 0.01-0.05 0.02-0.07 0.04l-0.11 0.07c-0.12 0.07-0.23 0.14-0.35 0.2s-0.24 0.13-0.37 0.19c-0.21 0.1-0.41 0.18-0.61 0.25-0.37 0.13-0.72 0.22-1.02 0.27-0.04 0.01-0.07 0.02-0.11 0.02-0.08 0.01-0.16 0.03-0.24 0.03-0.12 0.02-0.23 0.02-0.33 0.02-0.06 0.01-0.12 0.01-0.18 0.01-0.12 0-0.25 0-0.38-0.01-0.15-0.01-0.29-0.03-0.45-0.05-0.25-0.05-0.5-0.11-0.74-0.2-0.04-0.01-0.08-0.03-0.11-0.04-0.02-0.01-0.05-0.02-0.07-0.03-0.04-0.02-0.08-0.03-0.12-0.05-0.09-0.04-0.17-0.08-0.25-0.13-0.04-0.02-0.08-0.05-0.12-0.07-0.04-0.03-0.08-0.05-0.12-0.08-0.05-0.03-0.1-0.07-0.14-0.11-0.06-0.03-0.1-0.08-0.15-0.11l-0.05-0.05-0.03-0.03-0.01-0.02-0.03-0.02c-0.07-0.07-0.14-0.15-0.21-0.23-0.03-0.04-0.07-0.09-0.1-0.13s-0.06-0.09-0.09-0.13-0.05-0.08-0.07-0.12c-0.04-0.06-0.07-0.12-0.1-0.18-0.03-0.05-0.05-0.1-0.07-0.15-0.04-0.09-0.07-0.18-0.09-0.26-0.03-0.06-0.05-0.13-0.06-0.19-0.04-0.18-0.07-0.34-0.08-0.48-0.01-0.06-0.01-0.11-0.01-0.15-0.01-0.07-0.01-0.13-0.01-0.18v-0.11c0.01-0.09 0.02-0.22 0.04-0.36 0.01-0.09 0.03-0.18 0.05-0.28 0.01-0.06 0.03-0.12 0.05-0.19 0.03-0.06 0.04-0.12 0.07-0.19 0.01-0.04 0.03-0.08 0.05-0.13 0.03-0.06 0.06-0.11 0.08-0.17 0.03-0.05 0.05-0.09 0.08-0.13 0.06-0.1 0.12-0.2 0.19-0.3 0.03-0.03 0.05-0.07 0.08-0.1 0.04-0.04 0.08-0.09 0.12-0.13 0.02-0.02 0.04-0.05 0.06-0.07 0.31-0.31 0.67-0.55 1.03-0.71 0.06-0.03 0.12-0.06 0.18-0.08s0.11-0.04 0.17-0.06 0.13-0.04 0.19-0.06c0.06-0.01 0.13-0.03 0.18-0.05 0.07-0.01 0.13-0.02 0.19-0.03s0.13-0.02 0.19-0.03c0.07-0.01 0.14-0.02 0.2-0.02 0.13-0.01 0.25-0.02 0.37-0.02h0.12c0.09 0 0.17 0.01 0.26 0.01 0.06 0.01 0.12 0.01 0.18 0.01 0.1 0.02 0.21 0.03 0.31 0.04 0.08 0.02 0.17 0.03 0.25 0.04 0.12 0.03 0.23 0.06 0.34 0.09 0.06 0.01 0.12 0.03 0.18 0.05 0.08 0.02 0.15 0.05 0.21 0.06 0.09 0.04 0.15 0.05 0.15 0.05 0.08 0.03 0.16 0.07 0.24 0.1 0.11 0.05 0.22 0.09 0.32 0.14 0.08 0.04 0.16 0.08 0.23 0.11s0.12 0.06 0.17 0.09c0.1 0.04 0.18 0.09 0.24 0.12l0.18 0.1v-1.68s-0.11-0.04-0.29-0.11c-0.08-0.03-0.17-0.07-0.28-0.11-0.06-0.02-0.13-0.04-0.19-0.07-0.05-0.02-0.11-0.04-0.17-0.05-0.06-0.02-0.13-0.05-0.19-0.07-0.06-0.01-0.11-0.03-0.16-0.04l-0.05-0.02c-0.04-0.01-0.1-0.02-0.14-0.04-0.07-0.01-0.13-0.03-0.19-0.05-0.04-0.01-0.08-0.01-0.13-0.02-0.06-0.02-0.13-0.04-0.2-0.05-0.07-0.02-0.14-0.03-0.21-0.03m-8.43-1.76h13.38v12.59h-13.38z"/>
    <path d="m299.25 152.41v2.48h1.61s0.03-0.01 0.08-0.01c0.06 0 0.13 0 0.23-0.01 0.17-0.02 0.4-0.05 0.63-0.13 0.2-0.06 0.39-0.16 0.54-0.31 0.06-0.06 0.11-0.12 0.15-0.18 0.12-0.2 0.16-0.4 0.16-0.52 0.01-0.05 0.01-0.08 0.01-0.08v-0.06c0-0.04-0.01-0.14-0.04-0.24-0.03-0.11-0.08-0.25-0.18-0.38-0.02-0.02-0.05-0.04-0.07-0.06-0.04-0.05-0.09-0.09-0.14-0.13-0.09-0.06-0.19-0.12-0.3-0.17-0.14-0.06-0.31-0.11-0.49-0.14-0.08-0.02-0.18-0.03-0.28-0.04-0.06-0.01-0.12-0.01-0.18-0.01-0.06-0.01-0.12-0.01-0.18-0.01z"/>
    <path d="m299.25 148.65v2.34h0.78 0.12c0.06 0 0.12 0 0.18-0.01 0.16-0.01 0.38-0.03 0.6-0.09 0.05-0.01 0.09-0.03 0.13-0.04 0.17-0.07 0.34-0.15 0.47-0.28 0.1-0.1 0.17-0.22 0.21-0.33 0.06-0.13 0.08-0.26 0.09-0.35v-0.13-0.1c0-0.1-0.02-0.27-0.11-0.43-0.04-0.08-0.09-0.15-0.16-0.22-0.09-0.09-0.19-0.16-0.31-0.21-0.22-0.09-0.47-0.13-0.68-0.14-0.09-0.01-0.18-0.01-0.25-0.01z"/>
    <path d="m297.63 147.21v9.08h3.41s1.67 0.04 2.59-0.88c0.75-0.75 0.69-1.61 0.69-1.61s0.06-0.91-0.64-1.6c-0.59-0.59-1.34-0.75-1.34-0.75s0.34-0.16 0.6-0.42c0.12-0.12 0.56-0.51 0.56-1.47s-0.64-1.51-0.64-1.51-0.7-0.84-2.29-0.84zm-3.51-1.76h13.38v12.59h-13.38z"/>
    <path d="m283.83 152.41v2.48h1.61s0.03-0.01 0.08-0.01c0.06 0 0.14 0 0.23-0.01 0.17-0.02 0.4-0.05 0.62-0.13 0.21-0.06 0.4-0.16 0.55-0.31 0.06-0.06 0.11-0.12 0.15-0.18 0.12-0.2 0.15-0.4 0.16-0.52 0.01-0.05 0.01-0.08 0.01-0.08v-0.06c-0.01-0.04-0.02-0.14-0.04-0.24-0.03-0.11-0.08-0.25-0.19-0.38-0.01-0.02-0.03-0.04-0.06-0.06-0.04-0.05-0.09-0.09-0.14-0.13-0.09-0.06-0.19-0.12-0.3-0.17-0.14-0.06-0.31-0.11-0.48-0.14-0.09-0.02-0.19-0.03-0.29-0.04-0.06-0.01-0.12-0.01-0.18-0.01-0.06-0.01-0.12-0.01-0.17-0.01z"/>
    <path d="m283.83 148.65v2.34h0.78 0.12c0.05 0 0.12 0 0.18-0.01 0.15-0.01 0.38-0.03 0.6-0.09 0.04-0.01 0.09-0.03 0.13-0.04 0.17-0.07 0.34-0.15 0.47-0.28 0.1-0.1 0.17-0.22 0.21-0.33 0.06-0.13 0.08-0.26 0.09-0.35v-0.13-0.1c-0.01-0.1-0.03-0.27-0.11-0.43-0.03-0.08-0.09-0.15-0.16-0.22-0.09-0.09-0.19-0.16-0.31-0.21-0.22-0.09-0.47-0.13-0.68-0.14-0.09-0.01-0.18-0.01-0.24-0.01z"/>
    <path d="m282.21 147.21v9.08h3.41s1.67 0.04 2.58-0.88c0.75-0.75 0.7-1.61 0.7-1.61s0.05-0.91-0.64-1.6c-0.59-0.59-1.34-0.75-1.34-0.75s0.34-0.16 0.6-0.42c0.12-0.12 0.56-0.52 0.56-1.47 0-0.96-0.64-1.52-0.64-1.52s-0.7-0.83-2.29-0.83zm-3.52-1.76h13.39v12.59h-13.39z"/>
    <path d="m278.69 161.16v10.42h1.5v-4.53h0.62c0.77 0 1.39 0.25 2.77 2.39l1.37 2.13h1.79c-0.72-0.99-0.98-1.34-1.42-2.06-0.79-1.29-1.37-2.25-2.32-2.88 1.11-0.44 1.74-1.34 1.74-2.55 0-1.8-1.31-2.92-3.42-2.92zm1.5 1.29h0.97c1.44 0 2.03 0.59 2.04 1.57 0.01 0.87-0.44 1.69-2.04 1.69h-0.97z"/>
    <path d="m292.18 161.11h-1.05l-4.48 10.46h1.53l1.32-3.06h4.42l1.39 3.06h1.53zm-0.55 2.28 1.68 3.77h-3.24z"/>
    <path d="m298.08 171.58h4.06c3.44 0 5.52-2.54 5.52-5.21 0-2.46-1.69-5.21-5.53-5.21h-4.05zm1.5-9.07h2.3c2.92 0 4.24 1.77 4.24 3.86 0 1.29-0.77 3.87-4.16 3.87h-2.38z"/>
   </g>
   <path style="color-rendering:auto;text-decoration-color:#000000;color:#000000;font-variant-numeric:normal;shape-rendering:auto;solid-color:#000000;text-decoration-line:none;font-variant-position:normal;mix-blend-mode:normal;block-progression:tb;font-feature-settings:normal;shape-padding:0;font-variant-alternates:normal;text-indent:0;font-variant-caps:normal;image-rendering:auto;white-space:normal;text-decoration-style:solid;font-variant-ligatures:normal;isolation:auto;text-transform:none" d="m309.39 161.16v10.41h1.49v-10.41z"/>
   <path d="m312.61 166.37c0 2.82 2.16 5.34 5.56 5.34 3.52 0 5.63-2.53 5.63-5.34 0-2.9-2.16-5.34-5.6-5.34-3.38 0-5.59 2.46-5.59 5.34m1.54 0c0-2.29 1.73-3.97 4.05-3.97 2.33 0 4.06 1.68 4.06 3.97 0 2.28-1.73 3.97-4.06 3.97-2.32 0-4.05-1.69-4.05-3.97" stroke-width="3.1942"/>
  </g>
  <g fill="#853f98">
   <path d="m365.76 143.41c-18.23 0-33 14.78-33 33.02 0 18.23 14.77 33.01 33 33.01 18.22 0 33-14.78 33-33.01 0-18.24-14.78-33.02-33-33.02m17.91 46.13h-6.72l0.02 8.51-12.02 0.01-0.02-7.65s-0.01-0.85-1.02-0.88l-17.2 0.01 0.01-7.05c0-1.03 0.51-2.54 1.12-3.37l18.39-24.65c0.62-0.83 1.96-1.5 2.99-1.5h7.76l-0.01 26.68 6.71-0.02z" stroke-width="3.1942"/>
   <path d="m365.96 172.19c-2.6 0.06-4.69 2.22-4.63 4.83 0.06 2.27 1.76 4.13 3.97 4.53l1.7 0.3c-0.45 3.01-1.57 5.26-4.1 7.12 3.41-1.51 6.03-4.78 7.24-8.24 1.2-3.46 0.52-8.63-4.18-8.54" stroke-width="3.1942"/>
   <path d="m390.5 153.41 5.78 0.01 2.7 4.55 2.82-4.53 4.19-0.03-4.87 7.17 5.14 7.61h-4.16l-3.13-5.11-3.09 5.11-2.34-0.44-3.04-14.34z"/>
  </g>
  <path d="m388.76 153.17c-5.98 0-7.82 4.94-7.82 7.63 0 4.53 3.42 7.83 7.82 7.83 5.81 0 7.12-5.22 7.12-5.22h-4.08s-1.13 1.74-3.15 1.74c-2.91 0-3.37-2.61-3.37-2.61h10.87v-1.74c0-3.03-1.88-7.63-7.39-7.63zm-0.11 3.26c2.84 0 3.37 2.64 3.37 2.64l-6.74-0.03s0.46-2.61 3.37-2.61z" fill="#fff"/>
  <g fill="#853f98">
   <path d="m414.41 164.71v3.48h-1.31c-2.97 0-5.21-2.49-5.21-4.78v-6.52h-1.74v-3.48h1.74v-3.48h3.47v3.48h2.61v3.48h-2.61v5.21c0 1.69 0.68 2.61 2.18 2.61h0.87z"/>
   <path d="m415.28 168.19v-14.78h3.47v1.52s0.78-1.71 4.78-1.71v3.67h-1.76c-1.85 0-3.02 1.86-3.02 3.37v7.93z"/>
   <path d="m430.84 153.17c-3.44 0-6.95 2.01-6.95 5l3.56 0.03c0-0.87 1.25-2.01 3.36-2.01 1.53 0 2.72 0.73 2.72 1.41 0 0.96-1.24 1.46-4.4 1.82-2.29 0.21-5.84 0.89-5.84 4.21 0 1.9 1.43 4.86 5.92 4.86 3.4 0 4.76-2.14 4.76-2.14 0 1.15 0.13 1.84 0.13 1.84h3.34s-0.43-1.5-0.43-2.82v-7.66c0-1.94-1.84-4.54-6.17-4.54zm2.69 8.12v1.25c0 0.99-0.78 2.61-3.83 2.61-2.14 0-2.69-0.83-2.69-1.52 0-1.21 1.73-1.39 2.8-1.55 1.34-0.13 2.22-0.29 3.72-0.79z"/>
  </g>
 </g>
</svg>
