<?xml version="1.0" encoding="UTF-8" standalone="no"?>
<svg
   viewBox="0 0 544.45996 178.13069"
   version="1.1"
   id="svg1634"
   width="544.45996"
   height="178.13069"
   xmlns="http://www.w3.org/2000/svg"
   xmlns:svg="http://www.w3.org/2000/svg">
  <defs
     id="defs1638" />
    <g fill="#FFF">
<path
     d="m 103.023,178.118 h 28.56 q 11.968,0 20.37,-4.463 a 30.336,30.336 0 0 0 12.861,-12.914 q 4.463,-8.451 4.463,-20.318 0,-11.864 -4.41,-20.213 a 29.795,29.795 0 0 0 -12.863,-12.758 q -8.453,-4.41 -20.317,-4.41 h -28.664 z m 16.168,-13.86 v -47.356 h 11.656 q 10.604,0 16.118,6.038 5.513,6.04 5.512,17.483 0,11.551 -5.618,17.693 -5.618,6.142 -16.117,6.142 z m 60.166,13.86 h 53.656 v -13.44 h -37.486 v -18.48 h 31.5 v -13.439 h -31.5 v -16.276 h 35.49 v -13.44 h -51.66 z m 91.77,-27.3 h 1.576 q 8.083,13.441 15.644,27.3 h 18.585 q -4.621,-7.875 -9.24,-15.382 -4.622,-7.506 -9.345,-14.963 a 22.524,22.524 0 0 0 10.027,-8.085 22.291,22.291 0 0 0 3.519,-12.705 q 0,-11.55 -7.928,-17.746 -7.93,-6.194 -22.733,-6.194 h -27.404 v 75.075 h 15.96 v -27.3 z m -11.34,-35.07 h 10.606 q 7.453,0 11.286,2.73 3.832,2.73 3.834,8.505 0,5.776 -3.886,8.452 -3.885,2.678 -11.34,2.678 h -10.5 z m 112.509,29.138 a 20.599,20.599 0 0 0 -10.447,-6.983 17.225,17.225 0 0 0 7.454,-6.248 16.862,16.862 0 0 0 2.52,-9.292 q 0,-9.345 -7.034,-14.333 -7.036,-4.986 -19.846,-4.987 h -28.98 v 75.075 h 30.766 a 41.802,41.802 0 0 0 15.644,-2.625 22.359,22.359 0 0 0 10.028,-7.455 19.088,19.088 0 0 0 3.518,-11.55 18.643,18.643 0 0 0 -3.623,-11.602 z m -40.689,-29.664 h 11.867 q 12.493,0 12.495,8.926 a 8.706,8.706 0 0 1 -3.202,7.192 q -3.206,2.574 -9.293,2.573 h -11.867 z m 0,30.451 h 13.862 q 14.383,0 14.385,10.29 a 8.407,8.407 0 0 1 -3.781,7.403 q -3.78,2.574 -10.815,2.572 h -13.651 z m 102.48,-19.215 q 7.034,-11.656 13.86,-23.415 h -17.955 q -4.41,8.295 -8.926,16.537 -4.515,8.245 -9.24,16.433 -4.62,-8.085 -9.187,-16.381 -4.566,-8.293 -8.871,-16.59 h -18.375 q 6.717,11.761 13.755,23.416 7.033,11.655 14.384,23.205 v 28.455 h 16.17 v -28.455 q 7.35,-11.55 14.385,-23.205 z"

     id="path1630" />
  <path
     d="M 0,0 V 75 H 75 V 0 Z m 51.927,52.93 a 12.254,12.254 0 0 1 -5.478,4.189 22.274,22.274 0 0 1 -8.548,1.475 H 21.094 V 16.406 h 15.832 q 6.998,0 10.842,2.803 a 9.363,9.363 0 0 1 3.844,8.054 9.68,9.68 0 0 1 -1.377,5.222 9.482,9.482 0 0 1 -4.073,3.51 11.246,11.246 0 0 1 5.708,3.924 10.684,10.684 0 0 1 1.979,6.52 10.94,10.94 0 0 1 -1.922,6.49 z M 41.2,32.308 a 4.953,4.953 0 0 0 1.75,-4.042 q 0,-5.014 -6.827,-5.015 h -6.482 v 10.502 h 6.482 A 7.79,7.79 0 0 0 41.2,32.308 Z m -3.987,8.054 h -7.572 v 11.387 h 7.457 a 10.227,10.227 0 0 0 5.909,-1.445 4.767,4.767 0 0 0 2.065,-4.16 q 0,-5.782 -7.86,-5.782 z M 93.75,0 v 75 h 75 V 0 Z m 51.927,52.93 a 12.254,12.254 0 0 1 -5.478,4.189 22.274,22.274 0 0 1 -8.548,1.475 H 114.844 V 16.406 h 15.832 q 6.998,0 10.842,2.803 a 9.363,9.363 0 0 1 3.844,8.054 9.68,9.68 0 0 1 -1.377,5.222 9.482,9.482 0 0 1 -4.073,3.51 11.246,11.246 0 0 1 5.708,3.924 10.684,10.684 0 0 1 1.979,6.52 10.94,10.94 0 0 1 -1.922,6.49 z M 134.95,32.308 a 4.953,4.953 0 0 0 1.75,-4.042 q 0,-5.014 -6.827,-5.015 h -6.482 v 10.502 h 6.482 a 7.79,7.79 0 0 0 5.077,-1.445 z m -3.987,8.054 h -7.572 v 11.387 h 7.457 a 10.227,10.227 0 0 0 5.909,-1.445 4.767,4.767 0 0 0 2.065,-4.16 q 0,-5.782 -7.86,-5.782 z M 187.5,75 h 75 V 0 h -75 z m 53.866,-19.08 a 24.475,24.475 0 0 1 -6.074,2.284 30.726,30.726 0 0 1 -7.265,0.839 26.488,26.488 0 0 1 -9.11,-1.475 18.608,18.608 0 0 1 -6.849,-4.25 18.418,18.418 0 0 1 -4.287,-6.796 25.917,25.917 0 0 1 -1.49,-9.051 24.205,24.205 0 0 1 1.55,-8.877 18.963,18.963 0 0 1 4.465,-6.796 19.67,19.67 0 0 1 6.997,-4.338 26.283,26.283 0 0 1 9.14,-1.503 29.431,29.431 0 0 1 6.64,0.723 24.662,24.662 0 0 1 5.806,2.11 v 8.213 a 19.458,19.458 0 0 0 -5.3,-2.458 21.271,21.271 0 0 0 -6.014,-0.838 15.701,15.701 0 0 0 -7.414,1.62 11.09,11.09 0 0 0 -4.704,4.683 15.65,15.65 0 0 0 -1.637,7.46 16.318,16.318 0 0 0 1.578,7.49 10.78,10.78 0 0 0 4.585,4.714 15.2,15.2 0 0 0 7.295,1.62 22.605,22.605 0 0 0 12.088,-3.413 z M 304.522,45.183 V 65.63 H 292.568 V 9.4 h 20.526 q 11.089,0 17.027,4.64 5.936,4.64 5.937,13.29 a 15.945,15.945 0 0 1 -10.145,15.572 q 3.539,5.585 7,11.206 3.46,5.624 6.92,11.522 h -13.92 Q 320.251,55.249 314.195,45.183 Z m 0,-9.516 h 7.865 q 5.583,0 8.493,-2.006 2.909,-2.005 2.91,-6.33 0,-4.325 -2.871,-6.37 -2.871,-2.045 -8.454,-2.045 h -7.943 z m 83.047,29.963 q -2.046,-6.212 -4.09,-12.19 h -22.806 q -2.046,6.057 -4.09,12.19 H 343.607 Q 348.954,50.846 354.5,36.768 360.044,22.692 365.706,9.4 h 13.055 q 5.819,14 11.364,28.115 5.543,14.117 10.735,28.115 z M 364.134,43.374 h 15.807 q -1.888,-5.504 -3.893,-10.97 -2.006,-5.466 -3.972,-10.736 -4.09,10.776 -7.942,21.706 z M 407.701,9.4 h 21.47 a 32.53,32.53 0 0 1 15.217,3.303 22.32,22.32 0 0 1 9.634,9.555 32.046,32.046 0 0 1 3.303,15.139 32.213,32.213 0 0 1 -3.342,15.218 22.726,22.726 0 0 1 -9.634,9.672 32.146,32.146 0 0 1 -15.257,3.343 h -21.391 z m 20.762,45.849 q 7.862,0 12.072,-4.6 4.205,-4.601 4.207,-13.252 0,-8.57 -4.129,-13.094 -4.128,-4.522 -12.072,-4.522 h -8.729 v 35.468 z m 38.455,-45.85 h 12.112 v 56.23 H 466.918 Z M 516.543,8.22 a 31.001,31.001 0 0 1 11.52,2.045 24.63,24.63 0 0 1 8.81,5.859 25.994,25.994 0 0 1 5.621,9.201 38.41,38.41 0 0 1 0,24.262 26.31,26.31 0 0 1 -5.622,9.28 24.357,24.357 0 0 1 -8.808,5.898 33.48,33.48 0 0 1 -23.042,0 24.343,24.343 0 0 1 -8.809,-5.899 26.294,26.294 0 0 1 -5.623,-9.28 38.41,38.41 0 0 1 0,-24.261 25.98,25.98 0 0 1 5.623,-9.201 24.616,24.616 0 0 1 8.809,-5.86 30.992,30.992 0 0 1 11.52,-2.044 z m 0,48.051 a 14.862,14.862 0 0 0 8.257,-2.241 14.084,14.084 0 0 0 5.27,-6.41 29.362,29.362 0 0 0 0,-20.29 13.849,13.849 0 0 0 -5.27,-6.37 16.582,16.582 0 0 0 -16.515,0 13.83,13.83 0 0 0 -5.269,6.37 29.35,29.35 0 0 0 0,20.29 14.064,14.064 0 0 0 5.269,6.41 14.855,14.855 0 0 0 8.258,2.241 z"
     id="path1632" />
  </g>
</svg>
