<svg version="1.1" viewBox="0 0 871.31 302.78" xmlns="http://www.w3.org/2000/svg">
 <g transform="translate(-3.0031 -536.36)">
  <path d="m18.741 761.11h-3.6334v26.698h4.601c6.1413 0 10.347-0.53317 12.618-1.5798 2.2906-1.0466 4.0678-2.6263 5.3316-4.7392 1.2638-2.1327 1.9154-4.5418 1.9154-7.2471 0-2.6658-0.71089-5.0749-2.1327-7.2273-1.402-2.1524-3.3965-3.6927-5.9635-4.5813-2.5473-0.88861-6.8127-1.323-12.737-1.323m-15.738 74.288v-84.576h21.188c8.5504 0 15.343 2.1129 20.359 6.3585 5.0354 4.2258 7.5433 9.9524 7.5433 17.18 0 4.9367-1.2243 9.1823-3.6927 12.776-2.4486 3.5939-5.9833 6.2795-10.584 8.0567 2.7053 1.7772 5.3514 4.2061 7.9185 7.2668 2.5868 3.0608 6.2203 8.4122 10.9 16.034 2.9423 4.7985 5.3119 8.4122 7.0891 10.841l4.4825 6.0623h-14.415l-3.6927-5.5884c-0.11848-0.19747-0.35544-0.53317-0.71089-1.0268l-2.3696-3.3372-3.7519-6.161-4.0481-6.6152c-2.4881-3.4754-4.7787-6.24-6.8719-8.2739-2.0734-2.0734-3.9494-3.5544-5.6279-4.443-1.6785-0.90836-4.5023-1.3625-8.4516-1.3625h-3.1595v36.808z" fill="#fff"/>
  <path d="m77.526 750.81h47.945v10.782h-35.841v25.789h34.636v10.841h-34.636v26.263h36.986v10.782h-49.091z" fill="#fff"/>
  <path d="m166.88 761.59h-15.126v62.894h15.482c6.0623 0 10.762-0.41469 14.119-1.2441 3.3372-0.80962 6.1413-1.876 8.3727-3.1397 2.2511-1.2638 4.2851-2.8238 6.1413-4.6998 5.9833-6.0425 8.9651-13.685 8.9651-22.926 0-9.0836-3.0608-16.489-9.202-22.235-2.2511-2.1327-4.8577-3.8901-7.7803-5.2527-2.9225-1.3823-5.7068-2.2906-8.3134-2.7251-2.6263-0.45418-6.8522-0.6714-12.658-0.6714m-27.251 73.675v-84.457h28.514c11.512 0 20.616 1.7377 27.31 5.1934 6.6942 3.436 12.026 8.5109 15.975 15.205 3.9691 6.7139 5.9438 14.02 5.9438 21.919 0 5.6476-1.0861 11.058-3.278 16.232-2.1722 5.1737-5.2922 9.6957-9.3205 13.625-4.1074 4.0284-8.9058 7.0694-14.356 9.1428-3.1792 1.244-6.1018 2.0734-8.7676 2.5078-2.6658 0.41469-7.7408 0.6319-15.264 0.6319z" fill="#fff"/>
  <path d="m290.37 797.79h-11.315v26.816h11.927c6.6152 0 11.098-0.51342 13.467-1.5402 2.3499-1.0268 4.2456-2.6461 5.6871-4.8182 1.4218-2.1722 2.1524-4.522 2.1524-7.0299 0-2.5671-0.77013-4.9367-2.2709-7.0694-1.5205-2.1524-3.6729-3.7322-6.4572-4.7787-2.7843-1.0663-7.1681-1.5797-13.191-1.5797m-0.90836-36.196h-10.407v25.414h8.037c6.4572 0 11.058-1.2243 13.783-3.6927 2.7251-2.4684 4.0876-5.6476 4.0876-9.5575 0-8.116-5.1737-12.164-15.501-12.164m6.1215 73.794h-28.633v-84.576h22.156c6.9706 0 12.421 0.94785 16.331 2.8238 3.9296 1.8562 6.9114 4.4628 8.9651 7.7408 2.0537 3.2977 3.0805 7.0891 3.0805 11.414 0 8.3134-4.2851 14.257-12.895 17.851 6.1808 1.1651 11.098 3.7124 14.751 7.6223 3.6532 3.9296 5.4699 8.6096 5.4699 14.06 0 4.3048-1.1058 8.1752-3.3175 11.552-2.2314 3.3964-5.4896 6.161-9.7747 8.2937-4.3048 2.1327-9.676 3.2187-16.133 3.2187" fill="#fff"/>
  <path d="m395.59 750.81h12.164v48.005c0 6.4967-0.47392 11.414-1.4218 14.711-0.94785 3.3175-2.1129 6.0623-3.5149 8.2739-1.3823 2.1919-3.1002 4.1666-5.1144 5.8846-6.6942 5.7858-15.462 8.6689-26.263 8.6689-11.019 0-19.865-2.8633-26.52-8.5899-2.0142-1.7772-3.7124-3.7716-5.1144-5.9636-1.402-2.2116-2.5474-4.8972-3.4557-8.0962-0.90836-3.1792-1.3625-8.1752-1.3625-15.008v-47.886h12.164v48.005c0 7.958 0.90836 13.487 2.7251 16.587 1.8167 3.12 4.5813 5.6081 8.2937 7.484 3.7124 1.876 8.0962 2.804 13.151 2.804 7.1878 0 13.033-1.876 17.555-5.6278 2.3696-2.0142 4.0876-4.3838 5.1342-7.1484 1.0466-2.7251 1.5797-7.4446 1.5797-14.099z" fill="#fff"/>
  <path d="m417.32 750.69h70.654v10.782h-29.482v73.912h-12.164v-73.912h-29.008z" fill="#fff"/>
  <path d="m492.2 750.69h70.654v10.782h-29.482v73.912h-12.164v-73.912h-29.008z" fill="#fff"/>
  <path d="m608.23 761.11c-9.676 0-17.634 3.0213-23.854 9.0836-6.24 6.0425-9.36 13.783-9.36 23.183 0 9.123 3.1398 16.706 9.3798 22.768 6.2598 6.0425 14.08 9.0836 23.459 9.0836 9.439 0 17.318-3.1003 23.637-9.2613 6.2992-6.1808 9.4587-13.882 9.4587-23.064 0-8.9651-3.1595-16.508-9.4587-22.63-6.319-6.1018-14.08-9.1625-23.262-9.1625m-0.49368-11.493c13.072 0 23.953 4.1271 32.642 12.401 8.6886 8.2739 13.033 18.641 13.033 31.121 0 12.46-4.3838 22.788-13.151 30.963-8.7676 8.1752-19.826 12.263-33.175 12.263-12.756 0-23.38-4.0876-31.852-12.263-8.4912-8.1752-12.737-18.424-12.737-30.726 0-12.638 4.2653-23.084 12.816-31.358 8.5504-8.2739 19.372-12.401 32.424-12.401" fill="#fff"/>
  <path d="m735.5 750.81h11.493v84.576h-10.407l-56.535-65.145v65.145h-11.394v-84.576h9.8142l57.029 65.698z" fill="#fff"/>
  <path d="m482.35 536.36h167.57v157.13h-167.57zm105.69 21.84-0.23697-0.079h-0.47392l-0.079-0.079h-0.90835l-0.0987-0.079h-0.53316l-0.9281-0.23696-0.31595-0.079h-0.86886l-0.29621-0.0592h-0.39493l-0.39494-0.0987h-0.15798l-0.23696-0.13823h-0.45417l-0.21722-0.0987h-1.4218l-0.15798-0.079h-1.718l-0.29621-0.079h-0.61215l-0.25671-0.15797h-7.5433l-0.2962 0.15797h-0.84912l-0.23696 0.079h-0.71089l-0.0592 0.079h-2.0339l-0.23697 0.0987h-0.39493l-0.0592 0.13823h-0.61215l-0.15798 0.0987h-0.6319l-0.079 0.0592-0.78987 0.079-1.0071 0.23696-1.0071 0.079h-0.45418l-0.15797 0.079h-0.31595l-0.15797 0.079h-0.31595l-0.079 0.15797h-0.77013l-0.079 0.079h-0.31595l-0.079 0.079h-0.39494l-0.0592 0.079h-0.15797l-0.079 0.15798-0.77013 0.0987-0.71089 0.13823-0.78987 0.15797-0.69114 0.15798-0.69114 0.23696-0.71089 0.15798-0.69113 0.23696-0.69114 0.15797-0.6319 0.13823-0.69114 0.3357-0.71089 0.079-0.69114 0.31595-0.55291 0.23697-1.402 0.45417-0.55291 0.23697-0.37519 0.17772-0.31595 0.0592-0.2962 0.15797-0.31595 0.17772-0.41468 0.0592-0.37519 0.15798-0.31595 0.23696-0.21722 0.079-0.31595 0.079-0.2962 0.23696-0.3357 0.079-0.37519 0.17772-0.31595 0.13823-0.21721 0.15797-0.31595 0.15797-0.23696 0.15798-0.39494 0.079-0.15798 0.15797-0.21721 0.0592-0.25671 0.17772-0.21721 0.079-0.31595 0.13823-0.23697 0.0987-0.23696 0.15798-0.23696 0.13823-0.21722 0.079-0.23696 0.17772-0.31595 0.0593-0.15797 0.15797-0.23696 0.15797-0.21722 0.079-0.15797 0.23696-0.31595 0.079-0.23697 0.0987-0.23696 0.21721-0.23696 0.079-0.21722 0.079-0.23696 0.21721h-0.23696l-0.23696 0.17772-0.13823 0.23697h-0.23696l-0.23696 0.15797-0.23697 0.23696h-0.23696l-0.15797 0.15798-0.23697 0.15797-0.15797 0.13823-0.13823 0.079-0.079 0.0987-0.15797 0.0592-0.079 0.0987-0.13823 0.079-0.079 0.079-0.15798 0.0592-0.0987 0.0987-0.13823 0.0592-0.079 0.0987-0.15797 0.0592-0.079 0.079-0.15797 0.0987-0.23697 0.15798-0.079 0.15797h-0.079l-0.15798 0.0592h-0.079l-0.13823 0.13823v0.0987l-0.15798 0.079-0.0987 0.079h-0.0592l-0.15798 0.15797-0.0987 0.079-0.0592 0.079-0.079 0.079h-0.15797l-0.079 0.079-0.079 0.15798-0.079 0.079h-0.21722l-0.15797 0.13822-0.23697 0.25671-0.15797 0.079-0.23696 0.21722-0.079 0.079-0.31595 0.15798-0.0592 0.25671-0.31595 0.0592-0.079 0.15797-0.31595 0.17772-0.079 0.15798-0.29621 0.15797-0.079 0.15798-0.23696 0.15797-0.079 0.21722-0.31595 0.0987-0.079 0.13823-0.23696 0.17772-0.13823 0.15798-0.0987 0.13822-0.21721 0.15798-0.0987 0.079-0.21721 0.23696-0.15798 0.15797h-0.23696l-0.079 0.23697-0.15798 0.15797-0.21721 0.079-0.079 0.21721-0.23696 0.0987-0.079 0.31595-0.079 0.079-0.23696 0.079-0.0592 0.23696h-0.0987l-0.21721 0.15798-0.0987 0.23696-0.0592 0.0592-0.23696 0.15798-0.0987 0.0987-0.0592 0.13823-0.23697 0.15797-0.079 0.15798-0.079 0.17772-0.23696 0.13823-0.13823 0.31595-0.23696 0.079-0.079 0.15798-0.0987 0.15797-0.13823 0.079-0.0592 0.17772-0.17772 0.13823-0.15798 0.079-0.079 0.23696-0.13822 0.079-0.17773 0.079-0.0592 0.23697-0.079 0.079-0.23697 0.13823v0.23696l-0.15797 0.11848-0.079 0.19747-0.15797 0.0987-0.15798 0.13823-0.15797 0.2567-0.21718 0.21718-0.15797 0.17772-0.079 0.15798-0.15797 0.21721-0.15798 0.15798-0.079 0.17772-0.15797 0.15797-0.15798 0.13823-0.0592 0.15798-0.15797 0.15797-0.15798 0.15797-0.079 0.23697-0.15798 0.079-0.079 0.079-0.079 0.25671-0.079 0.0592-0.079 0.079-0.079 0.21721-0.13823 0.17773-0.17772 0.21721-0.079 0.079-0.0592 0.0987-0.0987 0.23696-0.0592 0.079-0.0987 0.079-0.0592 0.23696-0.079 0.0592-0.079 0.079-0.079 0.0987-0.079 0.15798-0.079 0.0592-0.079 0.079-0.0592 0.079v0.15798l-0.0987 0.079-0.0592 0.079v0.079l-0.0987 0.079-0.0592 0.079v0.079l-0.0987 0.079v0.15797l-0.37519 0.39494-0.31595 0.71089-0.2962 0.47392-0.3357 0.61215-0.2962 0.49368-0.31595 0.55291-0.2962 0.61215-0.31595 0.55291-0.23697 0.6319-0.31595 0.55291-0.23696 0.55291-0.31595 0.6319-0.21721 0.53317-0.47393 1.2638-0.21721 0.63189-0.31595 0.6319-0.31595 0.78988-0.23696 0.77012-0.31595 0.78988-0.21722 0.78987-0.25671 0.86886-0.21721 0.77013-0.0987 0.88861-0.2962 0.77012-0.15797 0.80963-0.23697 0.77012-0.0592 0.86886-0.25671 0.86886-0.13822 0.75038-0.15798 0.88861-0.079 0.94785-0.079 0.23696v0.31595l-0.079 0.23697v1.3428l-0.13823 0.2962v0.6319l-0.0987 0.23696v1.1651l-0.079 0.17772v6.9114l0.079 0.23696v0.6319l0.0987 0.13822v0.65165l0.13823 0.23696v0.9281l0.079 0.23697v0.39493l0.079 0.15798v0.23696l0.079 0.15798v0.39493l0.15798 0.31595v0.78988l0.0987 0.15797v0.2962l0.0395 0.0987v0.23696l0.0987 0.079v0.21721l0.15797 0.079v0.47392l0.0592 0.15798v0.0987l0.079 0.21722v0.079l0.15798 0.23696v0.23696l0.0987 0.21722v0.49367l0.0592 0.0592v0.25671l0.079 0.13822v0.15798l0.15797 0.23696 0.0592 0.17772v0.47393l0.0987 0.15797 0.0592 0.21722 0.15797 0.15797v0.47393l0.0987 0.079 0.0592 0.3357 0.0987 0.0592 0.13823 0.31595v0.079l0.079 0.31595v0.15797l0.079 0.23696 0.079 0.23697 0.15798 0.23696v0.31595l0.15797 0.15797 0.079 0.21722 0.15797 0.23696v0.23696l0.0592 0.23696 0.0987 0.23697 0.0592 0.2567 0.17772 0.23697 0.079 0.21721 0.0592 0.23696 0.15797 0.31595 0.079 0.31595 0.15798 0.23697 0.13822 0.39493 0.17773 0.2962 0.13822 0.39494 0.15798 0.31595 0.31595 0.39494 0.079 0.31595 0.15798 0.41468 0.15797 0.2962 0.15798 0.39494 0.21721 0.3357 0.17773 0.2962 0.13822 0.39494 0.15798 0.23696 0.23696 0.39494 0.079 0.23696 0.079 0.079 0.15797 0.31594 0.0592 0.0593 0.0987 0.31595 0.13822 0.079 0.0987 0.17772 0.13823 0.23697 0.079 0.13822 0.079 0.23697 0.15797 0.17772 0.079 0.13823 0.079 0.23696 0.15797 0.15797 0.079 0.15798 0.13823 0.15797 0.0987 0.15798 0.0592 0.15797 0.0987 0.079 0.0592 0.21721 0.0987 0.079 0.13823 0.0987 0.079 0.23696 0.079 0.079 0.079 0.15797 0.079 0.23696h0.13823l0.0987 0.13823 0.0592 0.25671 0.0987 0.0592 0.0592 0.23696 0.15797 0.079 0.0987 0.15797 0.13823 0.17773 0.079 0.15797 0.15798 0.15798 0.15797 0.21721 0.079 0.15798 0.15797 0.17772 0.15798 0.13822 0.079 0.21722 0.13822 0.17772v0.0592l0.23697 0.23696 0.15797 0.17773v0.15797l0.23696 0.13823 0.15798 0.15797v0.23697l0.23696 0.0987 0.13823 0.21722 0.0987 0.17772 0.15798 0.079 0.0592 0.23697 0.23696 0.13822 0.15797 0.23697v0.079l0.23697 0.15798 0.13822 0.15797 0.17773 0.13823 0.0592 0.25671 0.15797 0.079 0.15798 0.15797 0.17772 0.15798 0.0592 0.15797 0.23696 0.15798 0.079 0.23696 0.23696 0.15797 0.13823 0.15798 0.079 0.23696 0.23696 0.15798 0.15797 0.15797 0.21722 0.23696 0.0987 0.15798 0.23696 0.079 0.15798 0.21722 0.13823 0.17772 0.17772 0.23696 0.0592 0.079 0.31595 0.2962 0.39494 0.47393h0.079l0.21722 0.15797 0.079 0.15798 0.079 0.079 0.23696 0.15798 0.079 0.15797 0.23696 0.15798 0.0592 0.15797 0.15798 0.079 0.25671 0.15798 0.0592 0.13822 0.23696 0.15798 0.079 0.17772 0.15797 0.0592 0.23697 0.23696 0.23696 0.17772h0.079l0.079 0.15798 0.0592 0.079 0.23697 0.15797 0.15797 0.0592 0.15797 0.23696 0.079 0.079h0.079l0.21721 0.25671 0.0987 0.079 0.0592 0.0592 0.25671 0.079 0.0592 0.15797 0.079 0.0987 0.23696 0.079v0.0592l0.15797 0.079 0.079 0.15797h0.15798l0.0592 0.079 0.31595 0.31595h0.079l0.15798 0.0987 0.15797 0.0592 0.079 0.23696h0.15797l0.079 0.079 0.13823 0.079 0.25671 0.079 0.0592 0.15798 0.15797 0.079 0.15798 0.15798 0.15797 0.079 0.23697 0.15798 0.0592 0.079 0.17772 0.15797 0.15797 0.079 0.13823 0.15797 0.17772 0.079 0.15798 0.079 0.21721 0.13823 0.15798 0.15797 0.15797 0.0987 0.13823 0.15797 0.15797 0.0592 0.23697 0.15798h0.15797l0.15798 0.2567 0.23696 0.0592 0.13823 0.079 0.25671 0.0987 0.21721 0.19746h0.15798l0.23696 0.19747 0.15797 0.21722h0.23696l0.21722 0.15797 0.17772 0.15798 0.23696 0.079 0.19747 0.0987 0.25671 0.13823 0.23696 0.15797 0.39494 0.15798 0.2962 0.23696 0.55291 0.21721 0.45418 0.23697 0.39494 0.25671 0.45418 0.23696 0.41468 0.23696 0.53316 0.21722 0.47393 0.2567 0.45418 0.15798 0.39493 0.23696 0.55291 0.13823 0.45418 0.3357 0.47393 0.0592 0.45417 0.33569 0.6319 0.13823h0.079l0.21722 0.079 0.15797 0.15797h0.23696l0.15798 0.079 0.23696 0.0987 0.15797 0.0592 0.23697 0.15798h0.15797l0.21722 0.079 0.15797 0.079 0.21722 0.079 0.15797 0.15798h0.25671l0.15797 0.079 0.21722 0.079h0.15797l0.23697 0.079 0.15797 0.15797h0.53317l0.079 0.079 0.3357 0.079 0.11848 0.0987 0.25671 0.0592 0.15798 0.079 0.23696 0.0592h0.13823l0.23696 0.0987 0.15797 0.079 0.23696 0.079 0.29621 0.0592 0.25671 0.079 0.37519 0.0987 0.39493 0.079 0.29621 0.13823 0.41468 0.0987 0.37519 0.0592 0.39494 0.079 0.37519 0.0987 0.39493 0.15798 0.39494 0.0592 0.37519 0.079 0.39494 0.079h0.39493l0.39494 0.15798 0.37519 0.079 0.47393 0.079h0.2962l0.31595 0.079 0.31595 0.13823h0.31595l0.31595 0.0987 0.37519 0.079h0.55291l0.39493 0.079 0.37519 0.0987h0.31595l0.31595 0.13823h0.39494l0.2962 0.079h0.94785l0.37519 0.079h0.31595l0.37519 0.079h0.41469l0.2962 0.15798h0.77012l0.39494 0.079h1.3823l0.39494 0.079h0.39493l0.39494 0.0592h2.6263l0.17772 0.17772h1.3823l0.6319-0.17772h3.1792l0.6319-0.0592h1.244l0.6319-0.079h2.4091l0.55291-0.079h1.2243l0.15798-0.15798h0.21721l0.25671-0.079h0.61216l0.13822-0.079h1.4218l0.23696-0.079h0.47392l0.29621-0.13823 0.23696-0.0987h0.31595l0.2962-0.079h0.71089l0.23696-0.079h0.31595l0.2962-0.0987h0.31595l0.31595-0.13823 0.21721-0.079h0.6319l0.31595-0.079h0.39494l0.0592-0.079h0.15798l0.23696-0.15798h0.55291l0.13823-0.079h0.39493l0.15798-0.079h0.15797l0.15798-0.0592h0.23696l0.13823-0.15798h0.61215l0.3357-0.0987 0.21721-0.079 0.31595-0.0592h0.23696l0.21722-0.0987 0.31595-0.0592 0.25671-0.079h0.2962l0.23696-0.079 0.23696-0.0987 0.29621-0.079 0.23696-0.0592 0.23696-0.079 0.25671-0.079h0.2962l0.15798-0.0987 0.15797-0.0592h0.15798l0.21721-0.079 0.13823-0.0592h0.17772l0.15798-0.0987h0.23696l0.15797-0.079 0.15798-0.079h0.37519l0.15797-0.15797h0.15798l0.13823-0.079h0.23696l0.15797-0.079 0.079-0.079h0.31595l0.0592-0.15798h0.31595l0.0987-0.079 0.29621-0.079 0.079-0.079h0.31595l0.0987-0.15798 0.2962-0.0592h0.079l0.31595-0.0987 0.0592-0.079h0.47392l0.9281-0.37519 0.0987-0.0987h0.13823l0.079-0.15798h0.079l0.079-0.079h0.31595l0.21721-0.0592h0.079l0.0987-0.0987 0.0593-0.13823h0.21721l0.0987-0.0987h0.31595l0.13823-0.079 0.23696-0.0592 0.15798-0.15797 0.25671-0.079h0.2962l0.0592-0.15798 0.3357-0.0987 0.13823-0.15797h0.23696l0.31595-0.079 0.15797-0.0592 0.2962-0.079 0.31595-0.17772 0.15798-0.0592 0.23696-0.079 0.39494-0.0987v-0.0592l0.13823-0.079 0.25671-0.0592 0.0592-0.11848 0.15797-0.0592 0.15798-0.079 0.31594-0.0987 0.0593-0.0592 0.15797-0.079 0.17772-0.079 0.13823-0.079 0.23696-0.0592 0.15798-0.0987 0.23696-0.079 0.079-0.079 0.31595-0.079v-0.079l0.15797-0.079 0.13823-0.0592 0.17772-0.0987h0.13823l0.15797-0.079 0.15798-0.15798 0.15797-0.079 0.15798-0.079h0.13822l0.15798-0.079 0.15797-0.13823 0.31595-0.19747h0.39494v-0.0592h0.0592l0.0987-0.13822h0.0592l0.079-0.0987h0.079l0.079-0.079h0.23696l0.079-0.0592h0.0592l0.0987-0.079h0.15798v-21.544h-0.15798v0.15797h-0.0987l-0.0592 0.079h-0.13823l-0.0987 0.079h-0.079v0.079h-0.079v0.079l-1.481 0.92811-0.29621 0.079-0.31594 0.17772-0.21722 0.13823-0.31595 0.17772-0.15797 0.13823-0.39494 0.23696-0.23696 0.15798-0.31595 0.13823-0.21722 0.17772-0.33569 0.15797-0.21722 0.15798-0.31595 0.15797-0.21721 0.15798-0.31595 0.15797-0.23697 0.079-0.23696 0.21721-0.31595 0.079-0.2962 0.25671-0.47393 0.21722-0.39493 0.23696-0.2962 0.0987-0.31595 0.079-0.15798 0.21722-0.2962 0.0987-0.41469 0.13823-0.47392 0.31595-0.31595 0.079-0.27646 0.17773-0.33569 0.15797-0.13823 0.15798-0.61215 0.13822-0.47393 0.23697-0.47392 0.23696-0.55291 0.23696-0.45418 0.23696-0.39494 0.21722-0.53316 0.17772-0.57266 0.23696-0.37519 0.13823-0.47392 0.15797-0.45418 0.23697-0.53317 0.17772-0.39493 0.23696-0.47393 0.079-0.45417 0.21721-0.49368 0.17772-0.90835 0.29621-0.86886 0.23696-0.84912 0.2962-0.84911 0.3357-0.78987 0.23696-1.6982 0.47392-0.77013 0.23697-0.78987 0.15797-0.77013 0.23696-0.86886 0.079-0.61215 0.23696-1.56 0.31595-0.69114 0.15798-0.71089 0.079h-0.39494l-0.0592 0.15798h-0.41468l-0.15798 0.0592h-0.21721l-0.15798 0.0987h-0.9281l-0.23696 0.079h-0.39494l-0.0592 0.0592h-0.39493l-0.21722 0.17772h-0.55291l-0.25671 0.079h-1.6192l-0.23696 0.0592h-0.77013l-0.31595 0.079h-0.9281l-0.23696 0.15797h-2.1722l-0.079 0.079-0.31595-0.079h-2.6461l-0.31595-0.15797h-1.4613l-0.39493-0.079h-0.37519l-0.31595-0.0592h-1.1058l-0.2962-0.079h-0.39494l-0.39493-0.17772h-0.23697l-0.39493-0.0592-0.29621-0.079h-0.71088l-0.37519-0.0987h-0.2962l-0.73064-0.21722-0.53316-0.079-0.6319-0.0987-0.53317-0.0592-0.61215-0.15797-0.55291-0.15798-0.53317-0.079-0.63189-0.15798-0.53317-0.15797-0.6319-0.15798-0.55291-0.23696-0.61215-0.15798-0.55291-0.13822-0.61216-0.17773-0.55291-0.23696-0.55291-0.15797-0.13823-0.079h-0.23696l-0.079-0.15797h-0.079l-0.079-0.0987h-0.13823l-0.15797-0.0592h-0.079l-0.079-0.079h-0.25671l-0.0592-0.15797h-0.0987l-0.13823-0.0592h-0.15798l-0.079-0.0987h-0.13823v-0.079h-0.41468l-0.0593-0.17773h-0.0987l-0.0592-0.0592h-0.079l-0.079-0.0592h-0.0987l-0.0592-0.079h-0.21721l-0.079-0.0987h-0.0987l-0.13822-0.13823h-0.0987l-0.0592-0.079h-0.0987l-0.21722-0.079-0.15797-0.0987-0.23697-0.13823-0.15797-0.079h-0.21722l-0.079-0.15797-0.3357-0.17773-0.0592-0.0592-0.31595-0.0987-0.21721-0.0592-0.17773-0.079-0.21721-0.15797-0.15798-0.079-0.23696-0.17772-0.15797-0.15798h-0.079l-0.23696-0.0592-0.079-0.079-0.079-0.0987-0.13823-0.0592h-0.15797v-0.079l-0.079-0.079h-0.17772l-0.15797-0.079v-0.0592l-0.0592-0.0987h-0.23697v-0.079l-0.079-0.079h-0.079l-0.21722-0.079v-0.079l-0.079-0.079-0.0987-0.0592-0.13823-0.0987-0.1579-0.1579h-0.079l-0.15797-0.0592-0.15798-0.17773h-0.15797l-0.079-0.079-0.0592-0.079v-0.079h-0.0987l-0.21722-0.15797v-0.079l-0.15797-0.0592h-0.17773l-0.079-0.0987-0.0592-0.15798-0.23697-0.0592-0.079-0.079-0.079-0.0987-0.0592-0.13823-0.23696-0.0987v-0.0592h-0.15798l-0.15797-0.079-0.079-0.079-0.079-0.15797-0.23696-0.0987v-0.079l-0.15797-0.0592-0.0593-0.15797h-0.17772l-0.21721-0.23696-0.23698-0.23698-0.23697-0.079-0.079-0.079v-0.079l-0.13823-0.079-0.17772-0.079v-0.079l-0.77013-0.6319-0.21722-0.31595-0.2567-0.21721-0.31595-0.17772-0.21722-0.31595-0.15797-0.0593-0.15798-0.23696-0.15797-0.15797-0.15798-0.23696-0.23696-0.15798-0.15798-0.23696-0.15797-0.079-0.13823-0.15797-0.15797-0.23697-0.15798-0.15797-0.15797-0.23696-0.13823-0.15798-0.15798-0.23696-0.15797-0.0592-0.15797-0.17772-0.31598-0.31598-0.0987-0.13823-0.0592-0.0987-0.079-0.079-0.0592-0.15797-0.0987-0.079-0.31593-0.31593-0.079-0.0592-0.079-0.17772-0.0592-0.0592-0.0592-0.0987v-0.079l-0.11848-0.13822-0.0592-0.0987-0.158-0.158-0.079-0.13823-0.23696-0.25671-0.079-0.13823-0.0592-0.17772-0.0987-0.0592-0.0592-0.23696-0.079-0.079h-0.079v-0.079l-0.0987-0.23696-0.0592-0.079h-0.079l-0.079-0.0592-0.079-0.0987-0.079-0.15798-0.079-0.079v-0.079l-0.079-0.079-0.079-0.15797-0.079-0.0592v-0.0987l-0.079-0.13823-0.0592-0.0987-0.0987-0.079v-0.079l-0.0592-0.15798-0.0987-0.15797-0.079-0.15798-0.0592-0.079-0.15797-0.2962-0.079-0.0987-0.079-0.21722-0.079-0.079-0.0592-0.079-0.079-0.23697-0.15798-0.31594-0.0987-0.15798-0.079-0.079v-0.0987l-0.0592-0.21722-0.079-0.079v-0.31595h-0.15797l-0.079-0.15798-0.0987-0.17772v-0.0592l-0.0592-0.0592v-0.17772l-0.15798-0.15798v-0.079l-0.079-0.13823-0.079-0.17772-0.079-0.079v-0.079l-0.15798-0.23696-0.079-0.13823-0.079-0.23696-0.0592-0.25671v-0.13823l-0.15798-0.23696-0.0987-0.17772-0.13823-0.45418-0.079-0.15797v-0.23697l-0.0987-0.17772-0.0592-0.21721-0.079-0.15798v-0.39493l-0.15797-0.079-0.079-0.21722v-0.0987l-0.079-0.15798v-0.15797l-0.079-0.13823v-0.31595l-0.13823-0.15797v-0.17772l-0.079-0.13823v-0.17772l-0.0987-0.13823v-0.17772l-0.0592-0.0592v-0.17773l-0.15798-0.45417-0.158-0.78988-0.079-0.39493v-0.39494l-0.15798-0.2962-0.158-0.78988v-0.78987l-0.0592-0.41469-0.17772-0.2962v-0.39493l-0.079-0.31595v-0.55292l-0.0592-0.15797v-7.4643l0.0592-0.31595v-0.6319l0.079-0.2962v-0.55291l0.17772-0.39494 0.0592-0.31595v-0.78987l0.079-0.23696v-0.23697l0.079-0.15797v-0.23696l0.15798-0.23696v-0.39494l0.079-0.31595v-0.13823l0.079-0.31595 0.079-0.25671 0.15798-0.079v-0.61216l0.0592-0.15797v-0.15798l0.0987-0.23696v-0.079l0.079-0.17772v-0.13823l0.13823-0.079v-0.31595l0.079-0.15798 0.079-0.15797 0.079-0.15798v-0.13822l0.15797-0.17773v-0.47392l0.079-0.15798 0.0592-0.079v-0.15798l0.0987-0.15797v-0.079l0.079-0.23696 0.079-0.0592v-0.15798l0.0592-0.23696 0.0987-0.0987 0.15798-0.0592v-0.3357l0.0592-0.21722 0.079-0.079v-0.15798l0.079-0.0987 0.15798-0.0592v-0.31595l0.079-0.15798v-0.079l0.15797-0.15798v-0.15797l0.15798-0.15798v-0.15797l0.0592-0.079v-0.15798l0.0987-0.079 0.079-0.23696 0.15797-0.079v-0.2962l0.079-0.17773 0.0592-0.079 0.079-0.15798 0.0987-0.13823 0.079-0.0987 0.079-0.13823v-0.15797h0.079l0.0592-0.0987 0.079-0.21721 0.079-0.079 0.079-0.15797 0.079-0.15798 0.079-0.15797 0.0592-0.0987 0.079-0.13823v-0.0987l0.0987-0.0592 0.0592-0.079 0.0987-0.15797 0.0592-0.15798 0.15797-0.23696 0.15798-0.21722 0.079-0.2567 0.15797-0.23697 0.15798-0.21721 0.15797-0.17772 0.15798-0.31595 0.15797-0.21722 0.13823-0.17772 0.17772-0.31595 0.13823-0.13823 0.15797-0.31595 0.17772-0.15797 0.11848-0.23696 0.25671-0.15798v-0.23696h0.079l0.0592-0.079 0.1777-0.1777 0.29621-0.2962 0.079-0.15798v-0.079l0.158-0.158 0.079-0.0592 0.079-0.0987h0.079l0.0592-0.15798 0.0987-0.079 0.0592-0.15797 0.0987-0.079 0.0592-0.079 0.079-0.15797h0.079l0.079-0.15798 0.15798-0.15797 0.079-0.079h0.079l0.079-0.21721 0.15797-0.0987 0.0592-0.0592h0.079l0.17772-0.0987v-0.13823l0.0592-0.079v-0.079h0.079l0.079-0.0987 0.079-0.13823 0.079-0.0592v-0.0987h0.15798v-0.0987h0.079l0.079-0.15797h0.079l0.6319-0.69114 0.77013-0.71089 0.69114-0.71088 0.77012-0.6319 0.78988-0.71089 0.77012-0.45418 0.92811-0.71088 0.78987-0.45418 0.84911-0.65165 0.71089-0.47392 0.84911-0.53316 0.86887-0.47393 0.9281-0.39494 0.77012-0.49367 0.86887-0.37519 0.90835-0.39493 0.079-0.15798 0.17772-0.079h0.21721l0.29621-0.15797 0.0987-0.079h0.15798l0.15797-0.15797h0.21722l0.15797-0.079 0.079-0.079h0.15797l0.17772-0.0592h0.13823l0.079-0.17772h0.15797l0.13823-0.079h0.17772l0.13823-0.079 0.0592-0.079h0.17772l0.15798-0.15798h0.31595l0.079-0.079 0.15797-0.079h0.13823l0.31595-0.15798h0.13823l0.0987-0.079 0.15798-0.079h0.15797l0.13823-0.0592h0.17772l0.13823-0.0987h0.15797l0.15798-0.079 0.15797-0.0592h0.0592l0.15798-0.0987h0.15797l0.15798-0.0592h0.15797l0.15798-0.0987h0.15797l0.31595-0.13823h0.079l0.15797-0.0987h0.15798l0.079-0.0593h0.21722l0.15797-0.0987h0.079l0.15798-0.0592h0.47392l0.15798-0.15797h0.21721l0.31595-0.158h0.0987l0.15798-0.079h0.51342l0.0987-0.15797h0.2962l0.23697-0.079h0.53316l0.25671-0.079h0.53317l0.23696-0.079h0.31595l0.0592-0.15798h0.31595l0.15797-0.079h0.69114l0.079-0.079h0.78987l0.21722-0.0987h0.39493l0.079-0.0592h0.84912l0.25671-0.15797h0.67139l0.15797-0.079h8.0172l0.23696 0.079h0.71089l0.13823 0.15797h1.1651l0.23696 0.0592h0.47393l0.31595 0.0987h0.9281l0.2962 0.079h0.39494l0.31595 0.079h0.21721l0.25671 0.15798h0.23697l0.13822 0.079h0.71089l0.23696 0.079h0.45418l0.079 0.079h0.31595l0.079 0.15797h0.92811l0.15797 0.079h0.23696l0.0592 0.079 0.31595 0.079h0.15798l0.2962 0.15797h0.3357l0.23696 0.0592 0.21721 0.0987 0.31595 0.0593 0.23697 0.0987h0.2962l0.23696 0.079 0.31595 0.0592 0.23696 0.0987h0.23696l0.31595 0.0592 0.15798 0.0987 0.23696 0.0592 0.37519 0.079h0.079l0.15797 0.0987h0.15798l0.079 0.0592h0.15798l0.13823 0.079h0.15797l0.15798 0.079 0.15797 0.079h0.079l0.15797 0.079h0.15798l0.0592 0.079h0.17772l0.13823 0.079h0.31595l0.23696 0.15798 0.15797 0.079h0.15798l0.21721 0.079 0.15798 0.079h0.47392l0.13823 0.17772 0.17772 0.0592h0.13823l0.17772 0.079h0.15798l0.13823 0.079h0.15797l0.15798 0.15797 0.23696 0.079 0.15797 0.079h0.21722l0.17772 0.079h0.15797l0.0592 0.079h0.15798l0.17772 0.15798h0.0395l0.0987 0.079h0.39494l0.13822 0.079 0.23697 0.0592 0.15797 0.17772 0.23696 0.0592h0.15798l0.23696 0.11848 0.15797 0.0593 0.21722 0.13822 0.15797 0.0987h0.25671l0.21722 0.079 0.13823 0.0593 0.23696 0.079 0.15797 0.17772h0.23697l0.21721 0.0592 0.25671 0.0987 0.15797 0.23696h0.29621l0.23696 0.0592 0.25671 0.15798 0.2962 0.079 0.21722 0.17773 0.17772 0.0592 0.31595 0.079 0.21721 0.15798 0.23696 0.0987 0.21722 0.0592 0.17772 0.15798 0.2962 0.079 0.31595 0.15797 0.079 0.0987 0.31595 0.0592 0.079 0.079 0.2962 0.079 0.0987 0.079 0.27646 0.15797h0.0987l0.21722 0.15798 0.17772 0.0987 0.23696 0.0592h0.0592l0.15798 0.079 0.25671 0.15797 0.21721 0.15798h0.13823l0.25671 0.079h0.079l0.079 0.15797 0.21721 0.0592 0.079 0.079h0.15797l0.23696 0.0987v0.079l0.17773 0.15797 0.19746 0.079h0.0987l0.0592 0.079 0.15797 0.079 0.15798 0.15797 0.079 0.0592h0.15797l0.15798 0.079 0.23696 0.0987 0.13823 0.15798 0.25671 0.0592 0.15797 0.079 0.21722 0.079 0.31594 0.15798 0.0593 0.079 0.33569 0.079 0.079 0.15798 0.13823 0.079 0.23696 0.079 0.15797 0.079 0.31595 0.15797 0.23697 0.17773 0.15797 0.0592 2.1722 1.2638v-21.07l-0.079-0.079h-0.079l-0.15798-0.13822h-0.079l-0.15798-0.0987h-0.23696l-0.23696-0.079-0.21722-0.23696-0.23696-0.079h-0.31595l-0.31595-0.15797-0.21721-0.21722-0.39494-0.0987-0.39494-0.079-0.37519-0.15797-0.33569-0.0592-0.21722-0.0987-0.15797-0.0592-0.21722-0.0987-0.15797-0.0592-0.25671-0.079-0.13823-0.15797-0.31595-0.0987-0.23696-0.0592-0.23697-0.079-0.21721-0.079-0.15798-0.079-0.31595-0.0987-0.23696-0.0593-0.15797-0.079-0.2962-0.079-0.079-0.0987-0.23696-0.0592-0.0987-0.079h-0.13823l-0.21721-0.0592-0.0987-0.0987h-0.21721l-0.0987-0.079-0.23696-0.079h-0.13823l-0.2567-0.15798h-0.15798l-0.0592-0.079-0.21722-0.079h-0.0987l-0.23696-0.079h-0.13823l-0.23696-0.0987h-0.079l-0.079-0.13823h-0.079l-0.23697-0.079-0.0592-0.079h-0.41468l-0.0592-0.0592h-0.15798l-0.15797-0.17772h-0.079l-0.21721-0.079-0.25671-0.079h-0.23696l-0.21722-0.0592h-0.0987l-0.19747-0.17772h-0.0987l-0.31595-0.158h-0.37519l-0.0987-0.079h-0.13823l-0.17772-0.079h-0.13823l-0.23696-0.15798h-0.13823l-0.0987-0.0592h-0.15798l-0.079-0.0987h-0.21722l-0.13823-0.0592h-0.0987l-0.15798-0.15798h-0.37519l-0.079-0.079h-0.079l-0.57266-0.15797-0.13823-0.15798h-0.53316l-0.0987-0.079h-0.15797l-0.0592-0.0987h-0.23696l-0.15798-0.0592h-0.079l-0.15797-0.17772h-0.2962l-0.15798-0.079h-0.15797l-0.15798-0.0592h-0.15797l-0.15798-0.0987h-0.15797l-0.15798-0.0592h-0.23696l-0.13823-0.079h-0.17772l-0.13823-0.079h-0.15797l-0.15798-0.079h-0.23696l-0.13823-0.079h-0.079l-0.079-0.079h-0.31595l-0.079-0.079h-0.23696v-0.079h-0.37519v-0.079h-0.23696l-0.15798-0.079h-0.15797l-0.15798-0.079h-0.15797l-0.15798-0.079h-0.15797l-0.13823-0.079h-0.31595l-0.15797-0.079h-0.079l-0.23696-0.0592h-0.13823l-0.17772-0.0987h-0.61215l-0.23697-0.15798h-0.31595l-0.15797-0.079h-0.23696l-0.13823-0.079h-0.31595l-0.079-0.079h-0.53316l-0.15798-0.15797z" fill="#fff"/>
  <path d="m353.68 623.13v30.825h21.228l0.0987-0.0987h1.0663l0.23696-0.0592h1.402l0.37519-0.15798h0.78987l0.53317-0.079 0.47392-0.079 0.45418-0.079 0.47392-0.15797h0.55292l0.45417-0.0592 0.47393-0.17773 0.6319-0.079 0.45417-0.15798 0.47393-0.079 0.6319-0.15797 0.45418-0.13823 0.63189-0.17772 0.37519-0.23696 0.47393-0.15798 0.45418-0.079 0.53316-0.31595 0.41468-0.23697 0.45418-0.15797 0.39494-0.23696 0.45418-0.21722 0.39493-0.31595 0.55291-0.17772 0.37519-0.31595 0.31595-0.2962 0.39494-0.39494 0.39494-0.25671 0.39494-0.2962 0.37519-0.31595 0.079-0.13823 0.15798-0.17772 0.15797-0.15797 0.23696-0.21722 0.15798-0.15797 0.0592-0.15798 0.15797-0.17772 0.079-0.079 0.079-0.15797 0.15797-0.13823 0.079-0.15798 0.15798-0.0987 0.079-0.21721 0.079-0.079 0.15798-0.0987 0.21721-0.45417 0.23696-0.55292 0.23697-0.39493 0.23696-0.47393 0.15797-0.47392 0.15798-0.45418 0.13822-0.41468 0.17773-0.45418 0.0592-0.39494 0.079-0.39493 0.079-0.31595 0.079-0.39494v-0.39494l0.079-0.39493v-0.23697l0.079-0.21721v-0.9676h0.079v-0.78987l-0.079-0.079v-1.1651l-0.079-0.31595v-0.0592l-0.079-0.25671v-0.23696l-0.079-0.21722v-0.23696l-0.079-0.25671v-0.13823l-0.079-0.33569-0.13823-0.29621-0.0987-0.17772-0.079-0.37519-0.0592-0.31595-0.15798-0.31595-0.15797-0.25671-0.079-0.2962-0.15797-0.31595-0.23697-0.33569-0.13823-0.21722-0.15797-0.31595-0.25671-0.31595-0.13823-0.31595-0.23696-0.31595-0.23696-0.23696-0.079-0.0592-0.079-0.0987v-0.0593h-0.0592v-0.079l-0.0987-0.079-0.0592-0.0987-0.0987-0.0592v-0.079h-0.0592l-0.0987-0.079v-0.079h-0.079l-0.0592-0.0987-0.15797-0.13823h-0.079l-0.15797-0.15797v-0.15798h-0.15798l-0.15797-0.079-0.0592-0.23696-0.15798-0.079h-0.0987l-0.13823-0.0987-0.079-0.21721-0.15797-0.079h-0.0987l-0.13823-0.0592-0.079-0.0987-0.079-0.15797-0.23696-0.13823-0.23697-0.23696-0.21721-0.079-0.15798-0.0987-0.23696-0.23697-0.15797-0.0592-0.31595-0.15797-0.23696-0.0987-0.21722-0.13822-0.23696-0.15798-0.15798-0.079-0.31595-0.17772-0.31594-0.0592-0.21722-0.17772-0.47392-0.13823-0.37519-0.17772-0.31595-0.0592-0.39494-0.23696-0.23696-0.15798h-0.39494l-0.37519-0.23696-0.31595-0.079-0.37519-0.079-0.78987-0.31595-0.39494-0.079h-0.37519l-0.55291-0.079-0.37519-0.15797-0.39494-0.15798h-0.55291l-0.21722-0.079h-0.31595l-0.15797-0.15798h-0.25671l-0.13823-0.079h-1.0071l-0.15797-0.079h-0.47393l-0.21721-0.079h-0.41468l-0.21722-0.15798h-0.9281l-0.15798-0.079z" fill="#fff"/>
  <path d="m353.68 576.05v29.324h11.196l0.15798-0.079h2.0142l0.39494-0.079h0.37519l0.47392-0.15798h0.92811l0.39493-0.079 0.47393-0.079h0.61215l0.39494-0.079 0.47392-0.15797 0.53317-0.079 0.47392-0.079 0.53316-0.079 0.47393-0.15798 0.53316-0.15797 0.55292-0.079 0.079-0.079h0.079l0.079-0.079h0.23696l0.079-0.079h0.23696l0.079-0.079h0.13822l0.0987-0.079h0.21721l0.079-0.0592h0.23696l0.31595-0.17772 0.37519-0.13823 0.39494-0.25671 0.47392-0.13823 0.37519-0.0987 0.41469-0.31595 0.35544-0.0592 0.39494-0.3357 0.39494-0.23696 0.39493-0.13823 0.23696-0.31595 0.37519-0.17772 0.29621-0.2962 0.41468-0.31595 0.2962-0.23696 0.39494-0.23696 0.23696-0.31595 0.15798-0.23697 0.23696-0.21721 0.15797-0.25671 0.29621-0.2962 0.079-0.25671 0.29621-0.23696 0.0987-0.31595 0.23696-0.13823 0.079-0.31595 0.15798-0.3357 0.15797-0.13822 0.079-0.23697 0.13823-0.39493 0.15797-0.15798 0.079-0.23696 0.079-0.39494 0.23696-0.23696 0.079-0.31595v-0.31595l0.0593-0.2962 0.15797-0.31595 0.0987-0.3357v-0.21721l0.079-0.23696v-0.31595l0.079-0.31595v-0.17773l0.13823-0.2962v-0.47392l0.079-0.15798v-3.6927l-0.079-0.2962v-0.31595l-0.13823-0.3357-0.079-0.39493v-0.31595l-0.079-0.31595-0.0987-0.39494-0.15797-0.2962-0.0593-0.41468-0.079-0.37519-0.23696-0.39494-0.079-0.37519-0.23696-0.25671-0.13823-0.21722v-0.17772l-0.23696-0.23696-0.079-0.15797-0.079-0.15798-0.079-0.15797-0.23696-0.23697-0.0987-0.13822-0.0592-0.17773-0.23697-0.15797v-0.13823l-0.15797-0.23696-0.21722-0.15798-0.31597-0.31596-0.079-0.15798-0.31595-0.23696-0.15798-0.15798-0.31595-0.23696-0.13822-0.15797-0.15798-0.23697-0.23696-0.15797-0.23696-0.079-0.29621-0.23696-0.31595-0.079-0.15797-0.15797-0.25671-0.15798-0.21721-0.15797-0.23697-0.23696h-0.31595l-0.23696-0.15798-0.21721-0.079-0.55292-0.23696-0.53316-0.23696-0.55291-0.13823-0.53317-0.15797-0.55291-0.15798-0.53316-0.15797-0.53317-0.15798-0.57266-0.079-0.53316-0.15798-0.53317-0.079-0.55291-0.079h-0.55291l-0.55291-0.15798-0.47393-0.079-0.53316-0.079h-0.37519l-0.31595-0.079z" fill="#fff"/>
  <path d="m289.47 536.36h167.47v157.13h-167.47zm43.937 22.077v113.19h43.601l1.0861-0.079 1.481-0.079 1.718-0.15798 2.0142-0.15797 2.2709-0.31595 2.3104-0.37519 2.5671-0.57266 2.6658-0.69114 2.7053-0.86886 2.6461-1.0861 2.7251-1.2835 2.5671-1.481 2.3301-1.8167 2.3499-1.876 1.6192-1.8957 1.402-1.7377 1.2243-1.718 1.0268-1.797 0.84911-1.7377 0.69114-1.639 0.6319-1.6587 0.39494-1.5008 0.37519-1.402 0.25671-1.2638 0.13823-1.1058 0.079-1.0071v-0.78987l0.079-0.47392v-1.639l-0.079-0.80962-0.079-1.0071-0.13823-1.0268-0.25671-1.323-0.21722-1.4218-0.47392-1.4218-0.47393-1.639-0.69114-1.6587-0.77012-1.6587-0.94785-1.718-1.1651-1.7377-1.323-1.639-1.481-1.6587-1.4613-1.3428-1.402-1.1848-1.402-1.0861-1.481-1.0268-1.402-0.86886-1.4613-0.71089-1.3428-0.77012-1.3033-0.49367-1.0861-0.55292-1.0861-0.37519-1.0268-0.39493-0.77012-0.23697-0.71089-0.15797-0.45418-0.079-0.31595-0.15797h-0.079v-0.0592l0.15797-0.0987h0.23696l0.2962-0.23696 0.39494-0.15797 0.37519-0.31595 0.47393-0.23697 0.55291-0.31595 0.6319-0.2962 0.53316-0.49367 0.61215-0.37519 0.71089-0.47392 0.55291-0.47393 0.69114-0.6319 0.61215-0.57266 0.71089-0.45417 0.23696-0.39494 0.39494-0.39494 0.51342-0.61215 0.57266-0.47392 0.45417-0.71089 0.71089-0.86886 0.55291-0.86886 0.53317-1.0071 0.61215-1.1848 0.47392-1.2638 0.53317-1.402 0.39493-1.5008 0.39494-1.6587 0.21722-1.876 0.31595-2.0339v-2.0537l-0.15798-2.2906-0.21721-2.0339-0.31595-1.9549-0.6319-1.9154-0.53317-1.639-0.71088-1.481-0.69114-1.5008-0.77013-1.2638-0.78987-1.1651-0.69114-0.9676-0.61216-0.84911-0.55291-0.71089-0.55291-0.53316-0.39494-0.39494-0.23696-0.25671-0.0592-0.0592-0.23696-0.15797-0.23696-0.3357-0.53317-0.45418-0.71088-0.71088-1.0071-0.78988-1.1651-0.86886-1.402-0.94785-1.6192-0.90835-1.876-0.9676-2.1919-0.86886-2.3104-0.9281-2.5671-0.80962-2.804-0.61215-3.041-0.53317-3.3372-0.3357-3.4952-0.079z" fill="#fff"/>
  <path d="m160.78 623.13v30.825h21.149l0.0592-0.0987h1.1058l0.15797-0.0592h1.402l0.37519-0.15798h0.86886l0.53317-0.079 0.39493-0.079 0.47393-0.079 0.61215-0.15797h0.39494l0.53316-0.0592 0.47393-0.17773 0.55291-0.079 0.47392-0.15798 0.53317-0.079 0.53316-0.15797 0.55291-0.13823 0.53317-0.17772 0.47392-0.23696 0.47393-0.15798 0.45417-0.079 0.47393-0.31595 0.47392-0.23697 0.45418-0.15797 0.39494-0.23696 0.37519-0.21722 0.55291-0.31595 0.39494-0.17772 0.45417-0.31595 0.39494-0.2962 0.39494-0.39494 0.47392-0.25671 0.37519-0.2962 0.39494-0.31595v-0.13823l0.23696-0.17772 0.079-0.15797 0.0592-0.079 0.25671-0.13823 0.0592-0.15797 0.079-0.15798 0.15798-0.17772 0.15797-0.079v-0.15797l0.079-0.13823 0.21722-0.15798 0.079-0.0987v-0.21721l0.0987-0.079 0.21721-0.0987 0.15798-0.45417 0.23696-0.55292 0.31595-0.39493 0.13823-0.47393 0.25671-0.47392 0.0592-0.45418 0.23696-0.41468 0.15797-0.45418v-0.39494l0.079-0.39493 0.15798-0.31595 0.079-0.39494v-1.0268l0.079-0.21721v-0.9676h0.079v-0.78987l-0.079-0.079v-1.1651l-0.079-0.31595v-0.55291l-0.079-0.21722v-0.23696l-0.15798-0.25671v-0.13823l-0.079-0.33569-0.079-0.29621-0.079-0.17772-0.15797-0.37519-0.079-0.31595-0.0592-0.31595-0.25671-0.25671-0.0592-0.2962-0.079-0.31595-0.31595-0.33569-0.079-0.21722-0.23696-0.31595-0.15797-0.31595-0.23697-0.31595-0.13822-0.31595-0.23697-0.23696-0.079-0.0592-0.079-0.0987v-0.0593h-0.15798v-0.079l-0.079-0.079v-0.0987l-0.0592-0.0592v-0.079h-0.0987l-0.15797-0.079v-0.079h-0.0592v-0.0987l-0.15798-0.13823h-0.15797l-0.079-0.15797-0.079-0.15798h-0.079l-0.15798-0.079-0.079-0.23696-0.15797-0.079h-0.13823l-0.0987-0.0987-0.0592-0.21721-0.23697-0.079-0.15797-0.0592-0.15798-0.0987-0.079-0.15797-0.15798-0.13823-0.21721-0.23696-0.31595-0.079-0.15798-0.0987-0.25671-0.23697-0.21721-0.0592-0.23696-0.15797-0.31595-0.0987-0.13823-0.13822-0.23696-0.15798-0.23697-0.079-0.23696-0.17772-0.2962-0.0592-0.31595-0.17772-0.17772-0.0592-0.21722-0.079-0.39493-0.17772-0.29621-0.0592-0.39493-0.23696-0.31595-0.15798h-0.37519l-0.39494-0.23696-0.3357-0.079-0.35544-0.079-0.41468-0.15798-0.37519-0.15797-0.37519-0.079h-0.41469l-0.45417-0.079-0.37519-0.15797-0.41469-0.15798h-0.61215l-0.23696-0.079h-0.23696l-0.21722-0.15798h-0.23696l-0.15798-0.079h-0.9281l-0.23696-0.079h-0.39494l-0.2962-0.079h-0.39494l-0.079-0.15798h-1.0071l-0.23697-0.079z" fill="#fff"/>
  <path d="m160.78 576.05v29.324h11.196l0.079-0.079h2.0932l0.31595-0.079h0.45418l0.31595-0.15798h0.9281l0.94785-0.158h0.53316l0.47392-0.079 0.45418-0.15797 0.47393-0.079 0.6319-0.079 0.45417-0.079 0.55291-0.15798 0.55292-0.15797 0.45417-0.079 0.15798-0.079h0.079l0.0592-0.079h0.25671l0.0592-0.079h0.15797l0.15798-0.079h0.079l0.079-0.079h0.23696l0.079-0.0592h0.15797l0.39494-0.17772 0.45418-0.13823 0.39494-0.25671 0.37519-0.13823 0.39493-0.0987 0.39494-0.31595 0.39494-0.0592 0.37519-0.3357 0.39493-0.23696 0.39494-0.13823 0.21722-0.31595 0.47392-0.17772 0.23696-0.2962 0.31595-0.31595 0.31595-0.23696 0.37519-0.23696 0.23696-0.31595 0.23697-0.23697 0.13822-0.21721 0.25671-0.25671 0.21722-0.2962 0.15797-0.25671 0.23696-0.23696 0.13823-0.31595 0.15798-0.13823 0.15797-0.31595 0.15798-0.3357 0.0987-0.13822 0.13823-0.23697 0.15797-0.39493 0.0592-0.15798 0.17773-0.23696 0.079-0.39494 0.15798-0.23696 0.0592-0.31595 0.0987-0.31595 0.079-0.2962 0.079-0.31595 0.0592-0.3357 0.0987-0.21721 0.0592-0.23696v-0.31595l0.079-0.31595v-0.17773l0.079-0.2962v-0.47392l0.079-0.15798v-1.5797h0.079v-1.2638l-0.079-0.29621v-0.55291l-0.079-0.2962v-0.31595l-0.079-0.3357-0.079-0.39493v-0.31595l-0.15797-0.31595-0.0592-0.39494-0.079-0.2962-0.079-0.41468-0.15797-0.37519-0.15798-0.39494-0.15797-0.37519-0.15798-0.25671-0.15797-0.21722-0.079-0.17772-0.15797-0.23696-0.0592-0.15797-0.0987-0.15798-0.15797-0.15797-0.15798-0.23697-0.0592-0.13822-0.15797-0.17773-0.15798-0.15797-0.0592-0.13823-0.15797-0.23696-0.15798-0.15798-0.15797-0.079-0.15798-0.23696-0.15797-0.15798-0.23696-0.23696-0.23697-0.15798-0.39493-0.39493-0.21722-0.23697-0.15797-0.15797-0.31595-0.079-0.23696-0.23696-0.31595-0.079-0.21722-0.15797-0.23696-0.15798-0.15798-0.15797-0.2962-0.23696h-0.31595l-0.15797-0.15798-0.31595-0.079-0.47393-0.23696-0.61215-0.23696-0.47392-0.13823-0.6319-0.15797-0.45418-0.15798-0.6319-0.15797-0.47392-0.15798-0.53317-0.079-0.61215-0.15798-0.47392-0.079-0.6319-0.079h-0.45418l-0.6319-0.15798-0.37519-0.079-0.55291-0.079h-0.45418l-0.25671-0.079z" fill="#fff"/>
  <path d="m96.461 536.36h167.39v157.13h-167.39zm43.877 22.077v113.19h43.621l1.0663-0.079 1.5008-0.079 1.7772-0.15798 1.9549-0.15797 2.2511-0.31595 2.4881-0.37519 2.5671-0.57266 2.6263-0.69114 2.6658-0.86886 2.6263-1.0861 2.7251-1.2835 2.5671-1.481 2.4091-1.8167 2.2511-1.876 1.6982-1.8957 1.3428-1.7377 1.1651-1.718 1.0861-1.797 0.9281-1.7377 0.6319-1.639 0.6319-1.6587 0.35545-1.5008 0.41468-1.402 0.13823-1.2638 0.23696-1.1058v-1.797l0.079-0.47392v-1.639l-0.079-0.80962v-1.0071l-0.23696-1.0268-0.13823-1.323-0.31595-1.4218-0.45418-1.4218-0.39493-1.639-0.71089-1.6587-0.78988-1.6587-1.9944-3.4557-1.3428-1.639-1.481-1.6587-1.4613-1.3428-1.402-1.1848-1.481-1.0861-1.481-1.0268-1.402-0.86886-1.3033-0.71089-1.481-0.77012-1.1848-0.49367-1.1453-0.55292-1.1058-0.37519-1.0861-0.39493-0.69114-0.23697-0.78988-0.15797-0.37519-0.079-0.31595-0.15797h-0.079v-0.0592l0.079-0.0987h0.31595l0.31595-0.23696 0.37519-0.15797 0.39494-0.31595 0.45418-0.23697 0.47392-0.31595 0.61215-0.2962 0.6319-0.49367 0.55291-0.37519 1.3823-0.94785 0.57266-0.6319 0.61215-0.57266 0.69114-0.45417 0.78988-0.78988 0.37519-0.61215 0.55291-0.47392 0.53316-0.71089 0.6319-0.86886 0.53317-0.86886 0.6319-1.0071 0.55291-1.1848 0.53316-1.2638 0.55292-1.402 0.37519-1.5008 0.39493-1.6587 0.23696-1.876 0.23697-2.0339 0.079-2.0537-0.15797-2.2906-0.25671-2.0339-0.35544-1.9549-0.55291-1.9154-0.55292-1.639-1.402-2.9818-0.69114-1.2638-0.84912-1.1651-0.71088-0.9676-0.69114-0.84911-0.55291-0.71089-0.55292-0.53316-0.61215-0.65165-0.079-0.0592-0.079-0.15797-0.39494-0.3357-0.53316-0.45418-0.6319-0.71088-1.0861-0.78988-1.0861-0.86886-1.481-0.94785-1.639-0.90835-1.8562-0.9676-2.0932-0.86886-2.4091-0.9281-2.5671-0.80962-2.804-0.61215-3.041-0.53317-3.3372-0.3357-3.5742-0.079z" fill="#fff"/>
  <path d="m826.03 742.52 48.28 48.33-48.28 48.289-48.272-48.338 48.272-48.28z" fill="#fff"/>
  <path d="m821.24 777.21 5.2791-4.8743-0.033 36.813-5.2461-5.5517v-10.443h-20.703v16.036l-5.2709-5.5435v-26.42l5.2709-4.8908v15.928h20.703v-11.054z"/>
  <path d="m826.49 809.14 5.2791-4.7008h6.7084c2.6354 0 4.6843-0.17349 6.1466-0.51221 1.4706-0.37177 2.6767-0.82616 3.6516-1.3714 0.98312-0.57004 1.8671-1.264 2.685-2.0654 2.6024-2.6354 3.8994-5.9731 3.8994-10.005 0-3.9573-1.3384-7.1793-4.0068-9.666-0.98313-0.93355-2.115-1.7101-3.4038-2.305-1.264-0.60309-2.4702-0.99138-3.6186-1.1814-1.1318-0.19002-2.9659-0.28916-5.5104-0.28916h-6.5844l-5.2296-4.7008h12.376c5.0065 0 8.9803 0.76006 11.888 2.2637 2.9246 1.5036 5.2461 3.7094 6.9727 6.634 1.7101 2.9163 2.5859 6.097 2.5859 9.5503 0 2.4537-0.48743 4.8082-1.4292 7.0636-0.95833 2.2471-2.3132 4.2299-4.0647 5.94-1.7845 1.7597-3.8746 3.0816-6.2457 3.9738-1.3879 0.54526-2.6767 0.91703-3.8251 1.107-1.1566 0.18175-3.379 0.26437-6.6588 0.26437h-11.616 11.616c3.2798 0 5.5022-0.0826 6.6588-0.26437 1.1484-0.19001 2.4372-0.56178 3.8251-1.107 2.3711-0.89225 4.4612-2.2141 6.2457-3.9738 1.7514-1.7101 3.1063-3.6929 4.0647-5.94 0.94182-2.2554 1.4292-4.6099 1.4292-7.0636 0-3.4533-0.87573-6.634-2.5859-9.5503-1.7267-2.9246-4.0482-5.1304-6.9727-6.634-2.9081-1.5036-6.8818-2.2637-11.888-2.2637h-12.376l5.2296 4.7008h6.5844c2.5446 0 4.3786 0.0991 5.5104 0.28916 1.1484 0.19001 2.3545 0.5783 3.6186 1.1814 1.2888 0.59483 2.4206 1.3714 3.4038 2.305 2.6685 2.4867 4.0068 5.7087 4.0068 9.666 0 4.0316-1.2971 7.3693-3.8994 10.005-0.81789 0.80137-1.7019 1.4953-2.685 2.0654-0.97486 0.54526-2.181 0.99965-3.6516 1.3714-1.4623 0.33872-3.5112 0.51221-6.1466 0.51221h-6.7084l-5.2791 4.7008z" fill="#fff"/>
  <path d="m826.49 809.14 5.2791-4.7008h6.7084c2.6354 0 4.6843-0.17349 6.1466-0.51221 1.4706-0.37177 2.6767-0.82616 3.6516-1.3714 0.98312-0.57004 1.8671-1.264 2.685-2.0654 2.6024-2.6354 3.8994-5.9731 3.8994-10.005 0-3.9573-1.3384-7.1793-4.0068-9.666-0.98313-0.93355-2.115-1.7101-3.4038-2.305-1.264-0.60309-2.4702-0.99138-3.6186-1.1814-1.1318-0.19002-2.9659-0.28916-5.5104-0.28916h-6.5844l-5.2296-4.7008h12.376c5.0065 0 8.9803 0.76006 11.888 2.2637 2.9246 1.5036 5.2461 3.7094 6.9727 6.634 1.7101 2.9163 2.5859 6.097 2.5859 9.5503 0 2.4537-0.48743 4.8082-1.4292 7.0636-0.95833 2.2471-2.3132 4.2299-4.0647 5.94-1.7845 1.7597-3.8746 3.0816-6.2457 3.9738-1.3879 0.54526-2.6767 0.91703-3.8251 1.107-1.1566 0.18175-3.379 0.26437-6.6588 0.26437h-11.616z"/>
  <path d="m831.76 777.07-5.2708-4.7339v36.797l5.2708-4.7008v-11.277-4.8908-11.194z" fill="#838181"/>
  <path d="m800.53 793.16-0.0165 16.011 5.2791-4.7504-0.0165-11.26h-5.2461z" fill="#838181"/>
  <path d="m805.91 788.27-0.0991-11.037-5.2791-4.8908v15.928h5.3782z" fill="#838181"/>
 </g>
</svg>
