<svg version="1.1" viewBox="0 0 490.25 165.07" xml:space="preserve" xmlns="http://www.w3.org/2000/svg">
<g transform="scale(.50231)" fill="#3c53fa" stroke-width="1.9908"><path d="m234.08 0v145.38h145.38v-145.38zm181.69 0v145.38h145.38v-145.38zm181.55 0v145.38h145.38v-145.38zm79.26 30.941c4.5211 0 8.7598 0.42574 12.857 1.4147 4.0972 0.98894 7.7697 2.2598 11.302 4.0965v15.824c-3.1083-2.1192-6.639-3.6727-10.312-4.803-3.8147-1.1302-7.7718-1.6965-11.586-1.5552-5.6514 0-10.455 0.98955-14.411 3.1088-3.956 1.978-7.0638 5.227-9.0418 9.0418-2.1192 3.9558-3.1088 8.7593-3.1088 14.411 0 5.6512 0.98956 10.597 3.1088 14.553 1.978 3.9559 5.0865 7.0648 8.9012 9.1841 3.956 2.1193 8.6176 3.1071 14.128 3.1071 8.477 0 16.249-2.2595 23.454-6.6394v15.681h-0.1423c-3.3908 1.8367-7.3455 3.3921-11.725 4.3811-4.521 1.1302-9.1844 1.5536-14.129 1.5536-6.499 0-12.433-0.98915-17.66-2.8258-5.2275-1.978-9.6073-4.6626-13.281-8.1947-3.6734-3.5321-6.3573-7.9108-8.3353-13.138-1.9779-5.2274-2.8259-11.02-2.8259-17.519 0-6.3578 0.98859-12.009 2.9665-17.236 1.978-5.0863 4.9448-9.4666 8.6183-13.14 3.8146-3.6733 8.336-6.4986 13.563-8.3353 5.2275-1.9779 11.161-2.9682 17.66-2.9682zm-401.67 0.84886h30.658c9.0421 0 16.107 1.8368 21.052 5.3688 4.9449 3.6733 7.4882 8.7591 7.4882 15.541 0 3.956-0.84687 7.2066-2.6836 10.174-1.8366 2.8256-4.3797 5.0845-7.9118 6.7801 4.8036 1.5541 8.4758 4.0983 11.019 7.6305 2.5431 3.3908 3.8153 7.6292 3.8153 12.574 0.14128 4.945-1.1298 9.1827-3.673 12.715-2.5431 3.5321-6.0759 6.2174-10.597 8.0541-4.6624 1.8367-10.172 2.8242-16.53 2.8242h-32.636zm181.83 0h30.658c9.0422 0 16.107 1.8368 21.052 5.3688 4.9449 3.6733 7.4882 8.7591 7.4882 15.541 0 3.956-0.84691 7.2066-2.6836 10.174-1.8367 2.8256-4.3796 5.0845-7.9118 6.7801 4.8037 1.5541 8.4758 4.0983 11.019 7.6305 2.5431 3.3908 3.8152 7.6292 3.8152 12.574-0.1416 4.945-1.4134 9.1827-3.8152 12.715-2.5431 3.5321-6.0743 6.2174-10.595 8.0541-4.6624 1.8367-10.172 2.8242-16.53 2.8242h-32.496zm-165.3 13.281v20.345h12.574c4.3798 0 7.63-0.98929 9.8905-2.8259 2.2606-1.8368 3.39-4.5217 3.39-7.7712 0-6.4991-4.3797-9.7482-13.281-9.7482zm181.69 0v20.345h12.574c4.3798 0 7.63-0.98929 9.8906-2.8259 2.2606-1.8368 3.3901-4.5217 3.3901-7.7712 0-6.4991-4.3797-9.7482-13.281-9.7482zm-181.69 33.202v22.039h14.411c4.9449 0 8.7597-0.9892 11.444-2.8259 2.6844-1.8366 3.9559-4.5202 3.9559-8.0524 0.14142-7.488-4.9447-11.161-15.117-11.161zm181.69 0v22.039h14.411c4.9449 0 8.7597-0.9892 11.444-2.8259 2.6844-1.8366 3.9559-4.5202 3.9559-8.0524 0.14128-7.488-4.9447-11.161-15.117-11.161z"/><path d="m41.497 328.62q-10.508 0-20.837-2.3153-10.152-2.3153-19.591-7.302v-24.577q19.056 11.576 40.428 11.576 12.111 0 18.344-4.0962 6.4115-4.0962 6.4115-11.398 0-5.521-3.2057-8.5486-3.0276-3.2058-8.1925-4.9867-5.1648-1.9591-11.576-3.5619-10.508-2.4934-18.522-5.6991-8.0144-3.2058-13.535-7.4801-5.521-4.4524-8.3706-10.508-2.8496-6.2334-2.8496-14.782 0-12.111 6.0553-20.837 6.2334-8.7268 17.454-13.357 11.22-4.8086 26.715-4.8086 10.152 0 19.947 2.3153 9.7953 2.3153 17.632 6.2334v24.221q-7.8363-4.8086-17.81-7.4801-9.7953-2.6715-19.769-2.6715-10.864 0-16.919 3.74-5.8772 3.74-5.8772 10.686 0 4.9867 2.8496 8.0144 2.8496 2.8496 8.0144 4.8086 5.3429 1.781 12.467 3.5619 9.083 2.3153 16.919 5.1648 7.8363 2.6714 13.713 6.9458 6.0553 4.2743 9.261 10.864 3.3838 6.5896 3.3838 16.207 0 12.645-6.2334 21.728-6.2334 8.9048-17.988 13.713-11.754 4.6305-28.317 4.6305z" istyle="fill:#3c53fa"/><path d="m172.86 328.62q-15.138 0-27.249-4.4524-12.111-4.6305-20.481-13.179-8.3706-8.5487-12.823-20.837-4.4524-12.467-4.4524-27.961 0-15.138 4.6305-27.249 4.6305-12.289 13.357-21.015 8.7268-8.7268 20.837-13.357 12.289-4.6305 27.427-4.6305 10.508 0 19.769 2.3153 9.4391 2.1372 17.454 6.4115v25.29q-7.302-4.9867-15.851-7.4801-8.5487-2.6715-17.988-2.6715-13.001 0-22.262 4.9867-9.083 4.9867-14.07 14.426-4.8086 9.4391-4.8086 22.975t4.6305 23.153q4.8086 9.4391 13.713 14.426 9.0829 4.9867 21.906 4.9867 19.591 0 36.154-10.508v24.755q-7.8363 4.4524-18.166 6.9458-10.33 2.6714-21.728 2.6714z" istyle="fill:#3c53fa"/><path d="m289.92 195.93q14.426 0 26.002 4.6305 11.754 4.6305 19.947 13.357 8.3706 8.5487 12.823 20.837 4.4524 12.111 4.4524 27.427 0 15.138-4.4524 27.427-4.4524 12.289-12.823 21.015-8.1925 8.7268-19.947 13.357-11.576 4.6305-26.002 4.6305-14.426 0-26.18-4.6305-11.576-4.6305-19.947-13.357-8.1925-8.7268-12.645-21.015-4.4524-12.289-4.4524-27.427 0-15.316 4.4524-27.427 4.4524-12.289 12.645-20.837 8.3706-8.7268 19.947-13.357 11.754-4.6305 26.18-4.6305zm0 108.82q10.864 0 18.7-4.9867 7.8363-5.1648 11.932-14.604t4.0962-22.975-4.0962-22.975q-4.0962-9.4391-11.932-14.426-7.8363-4.9867-18.7-4.9867-10.864 0-18.7 4.9867-7.8363 4.9867-11.932 14.426-4.0962 9.4392-4.0962 22.975t4.0962 22.975 11.932 14.604q7.8363 4.9867 18.7 4.9867z" istyle="fill:#3c53fa"/><path d="m357.21 198.6h107.57v23.865h-40.072v103.47h-27.427v-103.47h-40.072z" istyle="fill:#3c53fa"/><path d="m481.26 198.6h27.427v103.47h60.375v23.865h-87.802z" istyle="fill:#3c53fa"/><path d="m680.76 325.94q-4.6305-14.07-9.261-27.605h-51.648q-4.6305 13.713-9.261 27.605h-29.386q12.111-33.482 24.577-65.362 12.645-31.879 25.468-61.978h29.564q13.179 31.701 25.646 63.759 12.645 31.879 24.399 63.581zm-53.073-50.401h35.798q-4.2743-12.467-8.9048-24.755-4.4524-12.467-8.9048-24.399-9.261 24.399-17.988 49.155z" istyle="fill:#3c53fa"/><path d="m810.4 325.94q-13.892-22.262-28.139-44.524-14.248-22.44-28.139-43.456v87.98h-26.358v-127.34h27.783q14.426 21.55 28.317 43.278 14.07 21.55 27.961 43.812v-87.089h26.358v127.34z" istyle="fill:#3c53fa"/><path d="m863.61 198.6h48.62q20.125 0 34.373 7.4801 14.426 7.4801 21.906 21.728 7.4801 14.07 7.4801 34.195t-7.6582 34.551q-7.4801 14.248-21.728 21.906-14.248 7.4801-34.551 7.4801h-48.442zm47.018 103.83q17.81 0 27.249-10.33 9.6173-10.508 9.6173-30.098 0-19.413-9.4392-29.564-9.2611-10.33-27.249-10.33h-19.769v80.322z" istyle="fill:#3c53fa"/></g></svg>
