<svg xmlns="http://www.w3.org/2000/svg" height="87.374" width="600" viewBox="0 0 158.75 23.118">
    <g fill="#fff">
        <path d="M22.29 12.36c0 1.274-1.585 1.198-1.585 1.198h-1.586v-2.302h1.586c1.632-.01 1.585 1.104 1.585 1.104m-3.17-4.615h1.207c1.255.066 1.208 1 1.208 1 0 1.161-1.387 1.18-1.387 1.18h-1.029zm2.878 2.633s1.085-.462 1.075-1.69c0 0 .165-2.01-2.498-2.255h-2.956v8.428h3.388s2.83.01 2.83-2.378c0 0 .067-1.624-1.84-2.105m-7.649-5.596h12.443v11.726H14.348zM7.94 12.36c0 1.274-1.585 1.198-1.585 1.198H4.769v-2.302h1.586c1.632-.01 1.585 1.104 1.585 1.104M4.77 7.745h1.207c1.255.066 1.208 1 1.208 1 0 1.161-1.387 1.18-1.387 1.18H4.769zm2.878 2.633s1.085-.462 1.075-1.69c0 0 .165-2.01-2.498-2.255H3.269v8.428h3.388s2.83.01 2.83-2.378c0 0 .067-1.624-1.84-2.105M-.001 4.782h12.443v11.726H-.002zM38.6 7.04v1.557s-1.52-.934-3.2-.953c0 0-3.132-.061-3.274 3.003 0 0-.113 2.82 3.237 2.98 0 0 1.406.17 3.313-1.047v1.613s-2.558 1.52-5.521.35c0 0-2.491-.911-2.586-3.896 0 0-.104-3.069 3.218-4.088 0 0 .887-.34 2.482-.189 0 0 .953.094 2.331.67m-9.904 9.47h12.443V4.784H28.696z"/>
        <g stroke-width=".503">
            <path d="M46.91 15.91c-1.1-.099-1.967-.32-2.938-.753l-.42-.186V12.8l.125.075c.824.5 1.645.877 2.257 1.04 1.17.31 2.399.2 2.772-.25.103-.125.133-.21.147-.421.016-.229.003-.29-.101-.453-.208-.325-.533-.49-1.887-.96-1.677-.581-2.319-.917-2.85-1.493-.469-.506-.688-1.081-.69-1.807-.002-.88.375-1.584 1.126-2.107.833-.58 1.88-.823 3.337-.776a9.862 9.862 0 0 1 3.151.655l.237.094v.975c0 .536-.007.975-.015.975s-.207-.077-.442-.17c-2.072-.827-3.804-.931-4.437-.27-.122.129-.143.183-.143.373 0 .178.025.254.131.388.218.277.59.456 1.913.923 1.584.559 2.036.787 2.61 1.317.64.59.88 1.128.88 1.964 0 1.205-.651 2.107-1.911 2.645-.759.324-1.887.48-2.852.393zM67.54 5.66c-.473 0-.949.024-1.222.079-1.127.225-1.978.697-2.753 1.526-.643.687-1.065 1.43-1.281 2.281-.095.374-.103.472-.103 1.243 0 .77.008.869.103 1.243a5.322 5.322 0 0 0 1.84 2.816c.736.578 1.684.95 2.68 1.054 1.51.156 2.959-.202 3.99-.976.156-.117.427-.37.618-.566 1.006-1.03 1.473-2.158 1.473-3.587 0-1.104-.285-2.035-.913-2.926-.81-1.148-1.839-1.81-3.24-2.108-.254-.055-.719-.08-1.192-.079zm-.03 2.061c.964 0 1.725.324 2.283.975.473.553.678 1.203.677 2.093 0 .928-.238 1.605-.766 2.17-.449.482-.966.747-1.663.85a3.417 3.417 0 0 1-1.62-.141c-.876-.292-1.526-1.043-1.767-2.014-.114-.461-.114-1.281 0-1.746.338-1.37 1.398-2.187 2.857-2.187zM53.12 5.75v5.003c0 2.75.016 5.02.032 5.034.015.016.57.016 1.242.016h1.228v-4.028l1.647-.015c1.212-.016 1.367-.03 1.667-.11.73-.197 1.344-.61 1.762-1.196.373-.522.521-1.03.52-1.73 0-.53-.065-.812-.3-1.29-.14-.287-.243-.433-.55-.74a2.96 2.96 0 0 0-1.4-.818c-.316-.089-.4-.097-2.942-.11L53.12 5.75zm2.502 1.84l1.16.016c.953.023 1.247.075 1.54.3.29.22.413.766.284 1.21-.127.437-.446.678-1.023.772a8.741 8.741 0 0 1-.975.047h-.986V7.59zM74.37 5.77v10.037h2.502v-4.09l.828.015c.458.014.546.026.708.11.317.166.505.337.74.693.279.422.417.703.912 1.825.215.486.446 1.025.52 1.18l.14.267h2.738l-.094-.205c-.625-1.378-1.408-3.044-1.542-3.288-.234-.425-.594-.88-.85-1.054-.118-.08-.22-.146-.22-.157 0-.012.122-.08.268-.157.676-.36 1.181-.991 1.337-1.652.08-.338.08-.982 0-1.322-.209-.885-.996-1.7-1.935-2.014-.544-.18-1.024-.188-3.598-.188H74.37zm2.502 1.825h1.096c.88 0 1.183.051 1.463.236.338.223.505.687.409 1.148-.072.345-.256.56-.614.74l-.283.157-.897.016-1.175.015V7.595zM87.36 11.71V7.601h-3.875V5.766h10.27v1.835h-3.892l-.01 4.098-.011 4.098-1.241.01-1.24.012V11.71z"/>
        </g>
        <path d="M101.06.22h.564v22.668h-.564z"/>
        <g color="#000">
            <path style="text-decoration-color:#000;font-variant-numeric:normal;font-variant-ligatures:normal;text-decoration-line:none;font-variant-position:normal;mix-blend-mode:normal;solid-color:#000;font-feature-settings:normal;shape-padding:0;font-variant-alternates:normal;text-indent:0;font-variant-caps:normal;white-space:normal;text-decoration-style:solid;text-orientation:mixed;isolation:auto;text-transform:none" d="M116.61 0c-4.355 0-7.9 3.546-7.9 7.9 0 4.356 3.545 7.902 7.9 7.902s7.902-3.546 7.902-7.901c0-4.356-3.547-7.901-7.902-7.901zm0 1.39a6.5 6.5 0 0 1 6.512 6.51 6.502 6.502 0 0 1-6.512 6.512 6.5 6.5 0 0 1-6.51-6.511 6.5 6.5 0 0 1 6.51-6.511zM133.73 0c-4.355 0-7.9 3.546-7.9 7.9 0 4.356 3.545 7.902 7.9 7.902s7.902-3.546 7.902-7.901c0-4.356-3.547-7.901-7.902-7.901zm0 1.39a6.501 6.501 0 0 1 6.512 6.51 6.502 6.502 0 0 1-6.512 6.512 6.5 6.5 0 0 1-6.51-6.511 6.5 6.5 0 0 1 6.51-6.511zM150.85 0c-4.355 0-7.9 3.546-7.9 7.9 0 4.356 3.545 7.902 7.9 7.902s7.902-3.546 7.902-7.901c0-4.356-3.547-7.901-7.902-7.901zm0 1.39a6.5 6.5 0 0 1 6.512 6.51 6.502 6.502 0 0 1-6.512 6.512 6.5 6.5 0 0 1-6.51-6.511 6.5 6.5 0 0 1 6.51-6.511z"/>
            <path style="text-decoration-color:#000;font-variant-numeric:normal;font-variant-ligatures:normal;text-decoration-line:none;font-variant-position:normal;mix-blend-mode:normal;solid-color:#000;font-feature-settings:normal;shape-padding:0;font-variant-alternates:normal;text-indent:0;font-variant-caps:normal;white-space:normal;text-decoration-style:solid;text-orientation:mixed;isolation:auto;text-transform:none" d="M125.17 7.31c-4.355 0-7.9 3.545-7.9 7.9 0 4.356 3.545 7.902 7.9 7.902s7.9-3.546 7.9-7.901c0-4.356-3.545-7.901-7.9-7.901zm0 1.39a6.5 6.5 0 0 1 6.51 6.51 6.5 6.5 0 0 1-6.51 6.512c-3.604 0-6.51-2.907-6.51-6.511s2.906-6.511 6.51-6.511zM142.29 7.31c-4.355 0-7.9 3.545-7.9 7.9 0 4.356 3.545 7.902 7.9 7.902s7.9-3.546 7.9-7.901c0-4.356-3.545-7.901-7.9-7.901zm0 1.39a6.5 6.5 0 0 1 6.51 6.51 6.5 6.5 0 0 1-6.51 6.512c-3.604 0-6.51-2.907-6.51-6.511s2.906-6.511 6.51-6.511z"/>
        </g>
    </g>
</svg>
