<svg width="200mm" height="292.76mm" viewBox="0 0 200 292.76" xmlns="http://www.w3.org/2000/svg">
    <g stroke-width="1.083" fill="#d41c6f">
        <path d="M139.446 0v56.952h60.552V-.001zm32.339 7.468h.671c.53 0 1.065 0 1.663.067.27 0 .603.066.935.066.468 0 .936.067 1.398.134l.339.067c.265.067.53.066.794.132.271.067.604.135 1.072.335.332.066.597.133.93.2.203.066.332.066.535.133.333.066.597.133.868.2.197.066.468.134.665.2l.203.067c.197.066.468.133.665.2.333.066.665.2.936.266.265.067.462.2.733.267.333.134.597.267.868.333.462.2.93.334 1.263.467.8.333 1.268.534 1.268.534v7.603l-.8-.4c-.265-.2-.666-.4-1.066-.6l-.8-.401c-.333-.2-.665-.4-1.065-.535l-1.404-.6c-.4-.133-.733-.265-1.133-.399 0 0-.265-.133-.665-.266-.271-.068-.536-.134-.936-.268-.197-.133-.468-.2-.8-.266-.469-.134-.998-.2-1.534-.333-.332-.068-.733-.133-1.133-.2l-1.404-.201c-.264 0-.53-.066-.8-.066-.4-.067-.8-.068-1.195-.068h-.535c-.536 0-1.066 0-1.669.068-.265 0-.536 0-.868.066-.265.066-.53.067-.862.133l-.8.201-.801.2c-.271.067-.604.2-.868.267s-.536.133-.8.267c-.272.133-.537.2-.801.333-1.669.8-3.27 1.867-4.668 3.267l-.264.267c-.204.2-.407.4-.536.6-.136.134-.271.334-.4.467-.333.467-.604.867-.869 1.334-.135.2-.197.4-.332.6l-.4.8-.203.597c-.062.339-.197.604-.265.868-.136.271-.197.604-.265.868-.135.468-.203.869-.27 1.269-.062.665-.13 1.2-.13 1.669v1.262c0 .203.068.4.068.671.061.665.197 1.398.4 2.198.061.265.197.604.265.868.067.333.264.733.4 1.133.135.204.197.4.332.665.136.271.333.536.468.8.136.204.197.333.333.536l.4.598c.135.203.332.4.468.603.265.4.597.733.93 1.065l.135.136.136.13.264.202c.204.204.4.333.604.536.197.13.462.333.665.462.135.068.332.203.53.339.203.129.338.197.535.332.4.197.733.4 1.133.597.203.136.332.203.536.271.135.062.197.062.332.13s.333.135.468.203c1.065.4 2.198.665 3.331.868.74.13 1.404.197 2.07.265.535.067 1.132.067 1.668.067h.8c.4-.067.936-.067 1.466-.135.332 0 .665-.068 1.065-.136.135 0 .339-.061.468-.061 1.336-.203 2.937-.604 4.6-1.2.935-.34 1.871-.672 2.801-1.14.536-.265 1.072-.53 1.669-.862.468-.339 1.003-.603 1.533-.936l.536-.332c.067-.068.197-.136.264-.204v7.802l-.4.203c-.332.197-.665.333-.93.468-.338.135-.67.265-.935.4-.536.197-.998.4-1.337.53-.264.135-.468.203-.665.27l-.332.13c-.4.068-.733.203-1.133.339-.333.061-.665.197-1.004.264-.462.136-.93.197-1.465.333-.333.068-.733.135-1.065.197-.604.068-1.201.203-1.805.27-.4.069-.862.069-1.262.136h-.203c-1.065.062-2.266.13-3.534.13h-.468c-.4-.068-.733-.068-1.066-.068a246.5 246.5 0 0 1-2.068-.197c-.665-.136-1.33-.203-1.934-.333-.8-.135-1.533-.332-2.198-.535l-1.2-.4c-.401-.13-.801-.265-1.134-.4-1.003-.401-1.872-.801-2.672-1.27-.4-.196-.794-.4-1.133-.664-.4-.197-.665-.468-.997-.665a2.919 2.919 0 0 1-.733-.536c-.203-.197-.468-.4-.671-.597-.333-.271-.598-.536-.862-.8l-.204-.204a14.392 14.392 0 0 1-.93-.997c-.27-.271-.535-.604-.8-.936-.27-.333-.468-.665-.739-.998-.197-.27-.332-.535-.53-.8a15.15 15.15 0 0 1-.603-1.072 17.55 17.55 0 0 1-.93-2 7.591 7.591 0 0 1-.535-1.33c-.136-.333-.197-.733-.333-1.134-.067-.332-.135-.603-.203-.936 0-.197-.061-.332-.061-.468-.068-.4-.136-.732-.204-1.133v-.197c0-.332-.067-.67-.067-1.003v-.93c0-.4.067-.868.067-1.268 0-.536.068-1.066.136-1.601.197-1.669.597-3.27 1.2-4.736.462-1.2 1.066-2.334 1.67-3.335.129-.2.196-.332.332-.532.197-.267.332-.467.53-.734.27-.334.467-.6.738-.933.265-.267.462-.534.733-.801.197-.267.462-.533.733-.8.264-.267.597-.6.93-.867.338-.333.67-.666 1.07-.933.13-.134.333-.267.53-.4.203-.134.468-.334.671-.467.4-.267.862-.534 1.263-.801.468-.267.936-.467 1.404-.734.53-.267 1.2-.533 1.798-.8a31.54 31.54 0 0 1 4.002-1.2c.265-.066.468-.066.733-.134.203 0 .332-.067.535-.067l.4-.066.333-.066.265-.067c.332-.067.733-.067 1.071-.134.265 0 .462-.066.733-.066.4-.067.862-.067 1.33-.067zM69.69 0v56.952h60.483V-.001zM85.562 8h13.405c7.13 0 10.332 3.735 10.332 3.735s2.869 2.534 2.869 6.87c0 4.332-2.001 6.136-2.537 6.666-1.2 1.2-2.734 1.933-2.734 1.933s3.405.74 6.071 3.405c3.135 3.134 2.87 7.198 2.87 7.198s.265 3.873-3.134 7.272c-4.138 4.132-11.675 3.935-11.675 3.935H85.563zm12.333 6.269c-.868.133-5 .133-5 .133v10.604h4.07c.265 0 .53 0 .8-.068.734-.067 1.731-.135 2.735-.468l.597-.197c.8-.265 1.533-.67 2.137-1.268.461-.467.8-1 .997-1.467.265-.6.333-1.2.4-1.6s.068-.6.068-.6v-.468c0-.467-.135-1.2-.468-1.934-.197-.333-.4-.666-.733-1-.4-.4-.868-.667-1.404-.933-.997-.468-2.13-.6-3.066-.667-.4 0-.8-.067-1.133-.067zm-5 17.14v11.201h7.666c.271 0 .604 0 1.004-.068.8-.061 1.798-.197 2.802-.53.93-.332 1.798-.8 2.463-1.47.27-.266.467-.53.67-.795a4.252 4.252 0 0 0 .733-2.34v-.597c0-.203-.067-.665-.135-1.066-.13-.535-.4-1.132-.868-1.736-.062-.135-.197-.197-.265-.332-.197-.204-.4-.4-.665-.598-.4-.27-.868-.535-1.336-.739-.665-.264-1.398-.468-2.198-.665-.4-.067-.869-.135-1.269-.197-.265 0-.53-.067-.868-.067h-.8zM0 0v56.952h60.484V-.001zM15.873 8H29.21c7.137 0 10.339 3.735 10.339 3.735s2.869 2.534 2.869 6.87c0 4.332-2.007 6.136-2.537 6.666-1.2 1.2-2.734 1.933-2.734 1.933s3.4.74 6.065 3.405c3.134 3.134 2.87 7.198 2.87 7.198s.264 3.873-3.135 7.272c-4.131 4.132-11.668 3.935-11.668 3.935H15.873zm12.272 6.269c-.8.133-4.938.133-4.938.133v10.604h4.07c.265 0 .536 0 .8-.068.733-.067 1.73-.135 2.734-.468l.598-.197c.8-.265 1.539-.67 2.136-1.268.468-.467.8-1 .998-1.467.27-.6.338-1.2.4-1.6V18.87c0-.467-.13-1.2-.462-1.934-.203-.333-.4-.666-.733-1-.4-.4-.868-.667-1.404-.933-.997-.468-2.13-.6-3.066-.667-.4 0-.8-.067-1.133-.067zm-4.938 17.14v11.201h7.672c.265 0 .597 0 .997-.068.8-.061 1.805-.197 2.87-.53.936-.332 1.798-.8 2.469-1.47a6.89 6.89 0 0 0 .665-.795 4.252 4.252 0 0 0 .733-2.34v-.597c0-.203-.068-.665-.136-1.066-.13-.535-.4-1.132-.862-1.736-.068-.135-.203-.197-.27-.332-.198-.204-.401-.4-.666-.598-.4-.27-.868-.535-1.336-.739-.665-.264-1.398-.468-2.198-.665-.4-.067-.868-.135-1.269-.197-.264 0-.53-.067-.868-.067h-.8zM.067 81.624h48.615v211.064H.067zM75.49 81.624h48.747v211.064H75.49zM151.115 81.624h48.748V238.67h-48.748zM151.115 249.34h48.748v43.412h-48.748z"/>
    </g>
</svg>
