<svg width="1e3" height="404.42" enable-background="new -259.994 -57.568 1000 221.422" version="1.1" viewBox="-259.99 -57.568 1e3 404.42" xml:space="preserve" xmlns="http://www.w3.org/2000/svg">
 <path d="m441 257.3c-6.93 18.097-14.795 33.76-30.524 40.86-14.787 6.604-24.857 9.041-56.961 9.041-64.505 0-63.239-29.117-47.515-69.725 25.797-66.531 33.981-69.477 101.33-69.477 69.537 0 57.896 35.97 41.214 75.112l-0.937 2.193h-83.705l-6.604 17.373c-2.834 7.105-5.978 16.63 6.604 16.63 11.95 0 16.679-8.557 21.72-22.009h55.382zm-67.654-36.941h26.427l3.154-7.837c5.028-12.96 2.823-16.633-6.926-16.633-8.809 0-14.478 3.674-19.511 16.633zm-238.83 19.323c-21.085 54.564-33.045 67.52-75.525 67.52-16.367 0-29.583-6.848-30.517-18.831h-0.635l-22.339 58.478h-61.043l67.337-175.42h60.104l-5.667 15.171h0.627c4.41-6.368 15.733-16.628 42.165-16.628 49.409 0 41.223 29.349 25.493 69.715zm-61.051-36.439c-11.956 0-17.304 9.533-27.057 34.48-9.444 24.715-11.331 34.256 0.625 34.256 11.957 0 17.623-9.541 27.068-34.256 9.747-24.947 11.324-34.48-0.636-34.48zm159.65 5.367-12.583 32.299h17.937l-4.725 11.983c-4.721 12.978-11.021 22.011-26.112 22.011-15.11 0-11.331-12.708-7.248-23.47l27.692-71.933c4.101-10.518 9.438-21.522 24.55-21.522 12.28 0 13.535 6.838 8.179 19.813l-2.502 7.096h59.137c13.554-34.99 9.456-59.204-52.842-59.204-76.79 0-84.659 11.498-115.5 91.008-19.506 49.909-33.046 90.511 30.838 90.511 28.637 0 36.497-2.201 52.865-17.614h0.622l-3.771 14.19h43.742l36.811-95.168zm497.14-38.9c-16.687 0-34.313 8.565-45.307 21.286h-0.651l7.563-19.572h-59.157l-50.976 132.35h61.042l26.443-68.496c5.966-15.662 14.457-24.214 35.546-24.214 6.304 0 8.81 0 11.337 0.236 2.815 0.251 5.338 0.492 7.556 0.748l16.356-41.614c-1.574-0.233-3.148-0.726-9.752-0.726zm-151.8 114.49c-2.515 6.855-3.458 13.466-1.879 19.573h-57.262c-0.33-4.637 0.635-9.527 2.51-13.93l-0.63-0.261c-12.28 12.978-14.164 17.614-46.569 17.614-28.645 0-40.921-13.934-31.163-39.129 11.331-29.379 32.104-37.431 56.639-41.597l30.212-5.131c13.525-2.198 18.884-5.152 22.346-13.716 2.523-6.608-1.257-10.261-7.86-10.261-12.907 0-17.635 7.584-20.45 15.155h-53.498c16.048-42.558 35.554-44.522 85.898-44.522 55.707 0 59.801 17.614 51.923 38.169zm-38.065-44.522c-4.724 1.97-9.77 3.187-17.317 5.133-11.006 2.95-15.095 9.06-17.919 16.888-3.153 7.838-1.579 13.2 6.913 13.2 11.95 0 17.944-8.549 20.768-16.138zm-658.04 67.52c-67.342 0-61.367-33.998-47.52-69.725 22.341-57.248 33.982-69.477 101.34-69.477 69.54 0 55.999 37.43 43.419 69.721-20.461 52.358-29.905 69.481-97.234 69.481zm42.479-108.62c-12.585 0-17.311 8.077-28.949 38.894-11.959 30.83-13.218 38.907-1.885 38.907 12.263 0 16.989-8.077 28.949-38.907 11.641-30.817 12.9-38.894 1.885-38.894zm-25.605-32.055 15.739-41.101h-148.53l-15.728 41.101h42.788l-53.49 137.25h62.93l53.499-137.25z"/>
 <path d="m-4.03-57.568v139.89h139.58v-139.89zm174.2 0v139.89h139.67v-139.89zm174.27 0v139.89h139.6v-139.89zm76.263 29.953c4.3426 0 8.4275 0.46594 12.255 1.3961 3.901 0.85859 7.5074 2.1456 10.82 3.8627v15.11c-3.0178-2.0168-6.2945-3.5288-9.8275-4.5373-3.533-1.0804-7.2255-1.6235-11.149-1.6235-5.4041 0-10.033 1.0106-13.882 3.0275-3.7755 2.0168-6.6998 4.9315-8.7726 8.749-1.9988 3.8176-2.9961 8.463-2.9961 13.937 0 5.4743 0.96152 10.157 2.8863 14.047 1.9988 3.8176 4.8476 6.7361 8.549 8.7529 3.7755 2.0168 8.3287 3.0235 13.659 3.0235 8.1432 0 15.571-2.1228 22.416-6.3726v14.788c-3.2386 1.7887-6.9937 3.1826-11.263 4.1843-4.269 1.0732-8.756 1.6118-13.467 1.6118-6.2564 0-11.889-0.89755-16.894-2.6863-5.0051-1.8603-9.2386-4.5068-12.698-7.9412s-6.1089-7.62-7.949-12.557c-1.8401-5.0084-2.7569-10.622-2.7569-16.847 0-6.0817 0.9569-11.558 2.8706-16.424 1.9137-4.9369 4.6718-9.1569 8.2784-12.663 3.6066-3.5059 7.9126-6.1907 12.918-8.051 5.0787-1.8603 10.748-2.7882 17.004-2.7882zm-384.69 0.86275h29.314c8.638 0 15.327 1.7497 20.071 5.251 4.7438 3.4283 7.1176 8.3905 7.1176 14.882 0 3.7201-0.84974 6.9654-2.549 9.7373-1.6993 2.6989-4.6134 4.8502-7.9412 6.4549 4.6022 1.5318 8.5064 3.9741 10.914 7.3294 2.4781 3.2824 3.7176 7.294 3.7176 12.035 0 4.6683-1.2045 8.68-3.6118 12.035-2.3365 3.3554-5.6965 5.9451-10.086 7.7686-4.3898 1.8236-9.6676 2.7765-15.827 2.7765h-31.118zm174.3 0h29.314c8.638 0 15.327 1.7497 20.071 5.251 4.7438 3.4283 7.1177 8.3905 7.1177 14.882 0 3.7201-0.84974 6.9654-2.549 9.7373-1.6993 2.6989-4.6134 4.8502-7.9412 6.4549 4.6022 1.5318 8.5064 3.9741 10.914 7.3294 2.4781 3.2824 3.7176 7.294 3.7176 12.035 0 4.6683-1.2044 8.68-3.6118 12.035-2.3365 3.3554-5.7004 5.9451-10.09 7.7686-4.3898 1.8236-9.6636 2.7765-15.824 2.7765h-31.118zm-158.48 12.62v19.529h12.063c4.1275 0 7.2612-0.87983 9.3961-2.6353 2.2061-1.8286 3.3059-4.3503 3.3059-7.5686 0-6.2173-4.2335-9.3255-12.702-9.3255zm174.2 0v19.529h12.161c4.1275 0 7.2612-0.87983 9.3961-2.6353 2.2061-1.8286 3.3059-4.3503 3.3059-7.5686 0-6.2173-4.2335-9.3255-12.702-9.3255zm-174.2 31.816v21.216h13.878c4.768 0 8.4342-0.91905 10.996-2.6745 2.5619-1.8286 3.8432-4.4236 3.8432-7.7882 0-7.1681-4.8781-10.753-14.627-10.753zm174.2 0v21.216h13.976c4.768 0 8.4342-0.91905 10.996-2.6745 2.5619-1.8286 3.8431-4.4236 3.8431-7.7882 0-7.1681-4.8781-10.753-14.627-10.753z" stroke-width="2"/>
</svg>
