<svg Googl="true" version="1.1" viewBox="0 0 1135.5 590.48" xml:space="preserve" xmlns="http://www.w3.org/2000/svg">
<path d="m156.44 212.1h208.28v46.207h-77.586v200.34h-53.103v-200.34h-77.586z" fill="#0fa88b" stroke-width="1.9362"/><path d="m600.59 458.65q-11.77-41.724-23.193-83.448-11.078-41.724-21.809-83.448-10.385 41.724-21.463 83.448-11.077 41.724-22.847 83.448h-56.426q-17.655-60.345-33.925-122.07-16.27-61.724-30.809-124.48h58.157q8.6543 47.931 18.347 95.862 9.6928 47.931 20.424 94.138 23.193-90 43.964-179.66h51.926q10.385 44.138 21.116 88.276 11.077 43.793 22.501 87.586 10.385-45.517 20.078-92.414t18.001-93.793h57.118q-14.539 62.759-30.809 124.48-16.27 61.724-33.925 122.07z" fill="#0fa88b" stroke-width="1.9362"/><path d="m854.42 206.93q27.931 0 50.345 8.9655 22.759 8.9655 38.621 25.862 16.207 16.552 24.828 40.345 8.6207 23.448 8.6207 53.103 0 29.31-8.6207 53.103-8.6207 23.793-24.828 40.69-15.862 16.897-38.621 25.862-22.414 8.9655-50.345 8.9655-27.931 0-50.69-8.9655-22.414-8.9655-38.621-25.862-15.862-16.897-24.483-40.69-8.6207-23.793-8.6207-53.103 0-29.655 8.6207-53.103 8.6207-23.793 24.483-40.345 16.207-16.897 38.621-25.862 22.759-8.9655 50.69-8.9655zm0 210.69q21.034 0 36.207-9.6552 15.172-10 23.103-28.276 7.931-18.276 7.931-44.483t-7.931-44.483q-7.931-18.276-23.103-27.931-15.172-9.6552-36.207-9.6552-21.034 0-36.207 9.6552-15.172 9.6552-23.103 27.931-7.931 18.276-7.931 44.483t7.931 44.483q7.931 18.276 23.103 28.276 15.172 9.6552 36.207 9.6552z" fill="#0fa88b" stroke-width="1.9362"/><path d="m319.23 0v141.38h141.38v-141.38zm176.69 0v141.38h141.38v-141.38zm176.55 0v141.38h141.38v-141.38zm77.078 30.089c4.3967 0 8.5187 0.41401 12.503 1.3757 3.9845 0.96173 7.5559 2.1976 10.991 3.9838v15.388c-3.0227-2.0609-6.4562-3.5716-10.029-4.6708-3.7097-1.0991-7.5578-1.6498-11.267-1.5124-5.4958 0-10.167 0.96231-14.014 3.0232-3.8471 1.9235-6.8693 5.0831-8.7929 8.7929-2.0609 3.847-3.0232 8.5182-3.0232 14.014 0 5.4956 0.96232 10.305 3.0232 14.152 1.9236 3.847 4.9465 6.8703 8.6562 8.9313 3.8471 2.0609 8.3804 3.0215 13.739 3.0215 8.2436 0 15.801-2.1973 22.808-6.4567v15.25h-0.13843c-3.2975 1.7862-7.1433 3.2988-11.403 4.2605-4.3966 1.0991-8.9316 1.5108-13.74 1.5108-6.3201 0-12.09-0.96192-17.174-2.7481-5.0836-1.9236-9.3428-4.5343-12.915-7.9691-3.5723-3.4349-6.1823-7.693-8.1059-12.777-1.9235-5.0835-2.7481-10.717-2.7481-17.037 0-6.1828 0.96137-11.678 2.8848-16.762 1.9236-4.9462 4.8087-9.206 8.381-12.778 3.7096-3.5722 8.1065-6.3197 13.19-8.1059 5.0836-1.9234 10.854-2.8865 17.174-2.8865zm-390.61 0.82549h29.814c8.7932 0 15.663 1.7862 20.472 5.221 4.8088 3.5722 7.2821 8.5179 7.2821 15.113 0 3.8471-0.82356 7.0083-2.6097 9.8935-1.7861 2.7478-4.2592 4.9446-7.694 6.5934 4.6714 1.5113 8.2425 3.9855 10.716 7.4204 2.4731 3.2975 3.7103 7.4192 3.7103 12.228 0.13747 4.8089-1.0987 8.9299-3.5719 12.365-2.4731 3.4348-5.9087 6.0462-10.305 7.8324-4.534 1.7862-9.8922 2.7464-16.075 2.7464h-31.738zm176.83 0h29.814c8.7933 0 15.663 1.7862 20.472 5.221 4.8088 3.5722 7.2821 8.5179 7.2821 15.113 0 3.8471-0.82359 7.0083-2.6097 9.8935-1.7862 2.7478-4.2591 4.9446-7.694 6.5934 4.6714 1.5113 8.2424 3.9855 10.716 7.4204 2.4731 3.2975 3.7102 7.4192 3.7102 12.228-0.13766 4.8089-1.3745 8.9299-3.7102 12.365-2.4731 3.4348-5.9071 6.0462-10.304 7.8324-4.5341 1.7862-9.8922 2.7464-16.075 2.7464h-31.601zm-160.75 12.915v19.785h12.228c4.2592 0 7.42-0.96206 9.6183-2.7481 2.1983-1.7862 3.2967-4.3973 3.2967-7.5573 0-6.3202-4.2592-9.4799-12.915-9.4799zm176.69 0v19.785h12.228c4.2593 0 7.42-0.96206 9.6183-2.7481 2.1983-1.7862 3.2968-4.3973 3.2968-7.5573 0-6.3202-4.2592-9.4799-12.915-9.4799zm-176.69 32.288v21.433h14.014c4.8088 0 8.5186-0.96196 11.129-2.7481 2.6105-1.786 3.847-4.3958 3.847-7.8307 0.13747-7.2818-4.8086-10.854-14.701-10.854zm176.69 0v21.433h14.014c4.8088 0 8.5186-0.96196 11.129-2.7481 2.6105-1.786 3.847-4.3958 3.847-7.8307 0.13747-7.2818-4.8086-10.854-14.701-10.854z" fill="#0fa88b" stroke-width="1.9362"/>
<path d="m50.518 588.85q-8.4923-13.609-17.202-27.219-8.71-13.718-17.202-26.566v53.784h-16.114v-77.846h16.985q8.8189 13.174 17.311 26.457 8.6011 13.174 17.093 26.783v-53.24h16.114v77.846z" fill="#0fa88b" stroke-width="1.9362"/><path d="m119.04 509.37q8.8189 0 15.896 2.8307 7.1858 2.8308 12.194 8.1656 5.1171 5.226 7.839 12.738 2.7219 7.4035 2.7219 16.767 0 9.2544-2.7219 16.767-2.7219 7.5124-7.839 12.847-5.0083 5.3349-12.194 8.1656-7.0769 2.8307-15.896 2.8307-8.8189 0-16.005-2.8307-7.0769-2.8308-12.194-8.1656-5.0083-5.3349-7.7302-12.847-2.7219-7.5124-2.7219-16.767 0-9.3633 2.7219-16.767 2.7219-7.5124 7.7302-12.738 5.1171-5.3349 12.194-8.1656 7.1858-2.8307 16.005-2.8307zm0 66.523q6.6414 0 11.432-3.0485 4.7905-3.1574 7.2946-8.9278 2.5041-5.7704 2.5041-14.045t-2.5041-14.045q-2.5041-5.7704-7.2946-8.8189-4.7905-3.0485-11.432-3.0485t-11.432 3.0485q-4.7905 3.0485-7.2946 8.8189-2.5041 5.7704-2.5041 14.045t2.5041 14.045q2.5041 5.7704 7.2946 8.9278 4.7905 3.0485 11.432 3.0485z" fill="#0fa88b" stroke-width="1.9362"/><path d="m186.82 560.54v28.308h-16.549v-77.846h28.416q15.351 0 23.517 6.4237 8.2745 6.4236 8.2745 18.4 0 7.7301-3.7018 13.174-3.5929 5.4437-10.343 8.3834 4.8994 7.7302 9.6899 15.569 4.7905 7.7302 9.581 15.896h-19.271q-7.839-14.372-16.222-28.308-0.87101 0-1.6331 0zm0-13.174h10.888q7.7301 0 11.759-2.7219 4.0284-2.8308 4.0284-8.8189 0-5.9882-4.0284-8.8189-3.9195-2.8308-11.65-2.8308h-10.996z" fill="#0fa88b" stroke-width="1.9362"/><path d="m239.29 511h65.761v14.589h-24.497v63.257h-16.767v-63.257h-24.497z" fill="#0fa88b" stroke-width="1.9362"/><path d="m367.21 588.85v-33.425h-33.86v33.425h-16.767v-77.846h16.767v29.832h33.86v-29.832h16.767v77.846z" fill="#0fa88b" stroke-width="1.9362"/><path d="m398.5 511h53.567v13.936h-36.8v16.876h32.663v13.936h-32.663v19.162h38.868v13.936h-55.635z" fill="#0fa88b" stroke-width="1.9362"/><path d="m484.16 560.54v28.308h-16.549v-77.846h28.416q15.351 0 23.517 6.4237 8.2745 6.4236 8.2745 18.4 0 7.7301-3.7018 13.174-3.5929 5.4437-10.343 8.3834 4.8994 7.7302 9.6899 15.569 4.7905 7.7302 9.581 15.896h-19.271q-7.839-14.372-16.222-28.308-0.87101 0-1.6331 0zm0-13.174h10.888q7.7301 0 11.759-2.7219 4.0284-2.8308 4.0284-8.8189 0-5.9882-4.0284-8.8189-3.9195-2.8308-11.65-2.8308h-10.996z" fill="#0fa88b" stroke-width="1.9362"/><path d="m595.01 588.85q-8.4923-13.609-17.202-27.219-8.71-13.718-17.202-26.566v53.784h-16.114v-77.846h16.985q8.8189 13.174 17.311 26.457 8.6012 13.174 17.093 26.783v-53.24h16.114v77.846z" fill="#0fa88b" stroke-width="1.9362"/><path d="m655.26 511h16.767v77.846h-16.767z" fill="#0fa88b" stroke-width="1.9362"/><path d="m703.35 560.54v28.308h-16.549v-77.846h28.416q15.351 0 23.517 6.4237 8.2745 6.4236 8.2745 18.4 0 7.7301-3.7018 13.174-3.5929 5.4437-10.343 8.3834 4.8994 7.7302 9.6899 15.569 4.7905 7.7302 9.581 15.896h-19.271q-7.839-14.372-16.222-28.308-0.87101 0-1.6331 0zm0-13.174h10.888q7.7301 0 11.759-2.7219 4.0284-2.8308 4.0284-8.8189 0-5.9882-4.0284-8.8189-3.9195-2.8308-11.65-2.8308h-10.996z" fill="#0fa88b" stroke-width="1.9362"/><path d="m763.73 511h53.567v13.936h-36.8v16.876h32.663v13.936h-32.663v19.162h38.868v13.936h-55.635z" fill="#0fa88b" stroke-width="1.9362"/><path d="m835.2 511h16.767v63.257h36.909v14.589h-53.676z" fill="#0fa88b" stroke-width="1.9362"/><path d="m956.24 588.85q-2.8307-8.6012-5.6615-16.876h-31.574q-2.8308 8.3834-5.6615 16.876h-17.964q7.4035-20.469 15.025-39.957 7.7302-19.489 15.569-37.889h18.073q8.0568 19.38 15.678 38.977 7.7302 19.489 14.916 38.868zm-32.445-30.812h21.884q-2.613-7.6213-5.4438-15.134-2.7219-7.6213-5.4438-14.916-5.6615 14.916-10.996 30.05z" fill="#0fa88b" stroke-width="1.9362"/><path d="m1035.2 588.85q-8.4923-13.609-17.202-27.219-8.7101-13.718-17.202-26.566v53.784h-16.114v-77.846h16.985q8.8189 13.174 17.311 26.457 8.6012 13.174 17.093 26.783v-53.24h16.114v77.846z" fill="#0fa88b" stroke-width="1.9362"/><path d="m1066.8 511h29.723q12.303 0 21.013 4.5728 8.8189 4.5728 13.392 13.283 4.5728 8.6012 4.5728 20.904 0 12.303-4.6817 21.122-4.5727 8.71-13.283 13.392-8.71 4.5727-21.122 4.5727h-29.614zm28.743 63.474q10.888 0 16.658-6.3148 5.8792-6.4237 5.8792-18.4 0-11.867-5.7704-18.073-5.6615-6.3148-16.658-6.3148h-12.085v49.103z" fill="#0fa88b" stroke-width="1.9362"/></svg>
