<?xml version="1.0" encoding="UTF-8"?>
<!DOCTYPE svg PUBLIC "-//W3C//DTD SVG 1.1//EN" "http://www.w3.org/Graphics/SVG/1.1/DTD/svg11.dtd">
<svg xmlns="http://www.w3.org/2000/svg" version="1.1" width="2560px" height="1799px" style="shape-rendering:geometricPrecision; text-rendering:geometricPrecision; image-rendering:optimizeQuality; fill-rule:evenodd; clip-rule:evenodd" xmlns:xlink="http://www.w3.org/1999/xlink">
<g>  <g fill="#FFF">
<path style="opacity:0.993" fill="#ea0000" d="M 353.5,0.5 C 530.833,0.5 708.167,0.5 885.5,0.5C 885.5,177.833 885.5,355.167 885.5,532.5C 708.167,532.5 530.833,532.5 353.5,532.5C 353.5,355.167 353.5,177.833 353.5,0.5 Z M 506.5,117.5 C 551.854,117.059 597.188,117.559 642.5,119C 663.425,120.858 682.091,128.192 698.5,141C 716.33,158.775 723.497,180.275 720,205.5C 715.657,228.336 703.157,245.002 682.5,255.5C 726.434,273.357 743.6,305.691 734,352.5C 725.349,377.818 708.516,395.318 683.5,405C 670.214,409.738 656.548,412.738 642.5,414C 597.168,414.5 551.835,414.667 506.5,414.5C 506.5,315.5 506.5,216.5 506.5,117.5 Z"/></g>
<g><path style="opacity:0.993" fill="#ea0000" d="M 1016.5,0.5 C 1193.83,0.5 1371.17,0.5 1548.5,0.5C 1548.5,177.833 1548.5,355.167 1548.5,532.5C 1371.17,532.5 1193.83,532.5 1016.5,532.5C 1016.5,355.167 1016.5,177.833 1016.5,0.5 Z M 1169.5,117.5 C 1214.86,117.053 1260.19,117.553 1305.5,119C 1326.11,121.088 1344.77,128.088 1361.5,140C 1380.34,158.17 1387.84,180.337 1384,206.5C 1379.25,228.755 1366.75,245.089 1346.5,255.5C 1391.39,273.953 1408.23,306.953 1397,354.5C 1387.27,381.229 1368.77,398.729 1341.5,407C 1330.09,410.615 1318.43,412.948 1306.5,414C 1260.83,414.5 1215.17,414.667 1169.5,414.5C 1169.5,315.5 1169.5,216.5 1169.5,117.5 Z"/></g>
<g><path style="opacity:0.994" fill="#eb0000" d="M 1680.5,0.5 C 1857.83,0.5 2035.17,0.5 2212.5,0.5C 2212.5,177.833 2212.5,355.167 2212.5,532.5C 2035.17,532.5 1857.83,532.5 1680.5,532.5C 1680.5,355.167 1680.5,177.833 1680.5,0.5 Z M 1957.5,114.5 C 1984.45,113.494 2010.79,116.994 2036.5,125C 2043.4,127.451 2050.07,130.451 2056.5,134C 2057.66,153.093 2057.83,172.26 2057,191.5C 2025.96,171.617 1992.12,164.45 1955.5,170C 1911.08,178.088 1886.25,204.588 1881,249.5C 1878.03,272.688 1881.03,295.021 1890,316.5C 1903.71,343.173 1925.54,358.673 1955.5,363C 1992.91,367.419 2027.91,360.252 2060.5,341.5C 2061.83,359.833 2061.83,378.167 2060.5,396.5C 2020.9,415.988 1979.24,422.488 1935.5,416C 1864.94,403.442 1825.11,361.609 1816,290.5C 1810.56,251.384 1817.56,214.717 1837,180.5C 1858.81,147.407 1889.31,126.907 1928.5,119C 1938.26,117.155 1947.93,115.655 1957.5,114.5 Z"/></g>
<g><path style="opacity:0.979" fill="#eb0000" d="M 566.5,164.5 C 584.503,164.333 602.503,164.5 620.5,165C 651.319,166.466 664.485,182.299 660,212.5C 654.481,228.341 643.315,237.174 626.5,239C 606.503,239.5 586.503,239.667 566.5,239.5C 566.5,214.5 566.5,189.5 566.5,164.5 Z"/></g>
<g><path style="opacity:0.985" fill="#eb0000" d="M 1230.5,164.5 C 1248.17,164.333 1265.84,164.5 1283.5,165C 1314.22,165.706 1327.72,181.206 1324,211.5C 1318.65,227.612 1307.48,236.778 1290.5,239C 1270.5,239.5 1250.5,239.667 1230.5,239.5C 1230.5,214.5 1230.5,189.5 1230.5,164.5 Z"/></g>
<g><path style="opacity:0.981" fill="#eb0000" d="M 565.5,286.5 C 588.502,286.333 611.502,286.5 634.5,287C 665.248,289.994 678.748,306.827 675,337.5C 671.363,349.806 663.529,358.306 651.5,363C 645.944,364.806 640.278,366.139 634.5,367C 611.502,367.5 588.502,367.667 565.5,367.5C 565.5,340.5 565.5,313.5 565.5,286.5 Z"/></g>
<g><path style="opacity:0.986" fill="#eb0000" d="M 1229.5,286.5 C 1252.5,286.333 1275.5,286.5 1298.5,287C 1330.31,290.479 1343.48,307.979 1338,339.5C 1334.66,350.177 1327.82,357.677 1317.5,362C 1311.37,364.449 1305.04,366.116 1298.5,367C 1275.5,367.5 1252.5,367.667 1229.5,367.5C 1229.5,340.5 1229.5,313.5 1229.5,286.5 Z"/></g>
<g><path style="opacity:0.991" fill="#eb0000" d="M 935.5,720.5 C 989.423,716.182 1039.76,727.348 1086.5,754C 1140.33,789.914 1172.5,840.08 1183,904.5C 1193.31,963.478 1187.64,1020.81 1166,1076.5C 1131.92,1150.16 1074.42,1191.99 993.5,1202C 944.428,1208.28 897.095,1201.94 851.5,1183C 794.616,1155.44 757.116,1111.27 739,1050.5C 722.759,992.591 722.425,934.591 738,876.5C 763.21,793.29 818.377,742.79 903.5,725C 914.29,723.32 924.957,721.82 935.5,720.5 Z M 940.5,808.5 C 977.679,804.205 1010.68,813.705 1039.5,837C 1056.58,853.989 1068.42,874.156 1075,897.5C 1087.02,944.894 1085.69,991.894 1071,1038.5C 1048.46,1093.54 1007.3,1119.37 947.5,1116C 899.277,1112.42 865.443,1088.59 846,1044.5C 835.641,1017.83 830.808,990.159 831.5,961.5C 830.37,925.97 838.203,892.637 855,861.5C 875.206,830.479 903.706,812.813 940.5,808.5 Z"/></g>
<g><path style="opacity:0.99" fill="#eb0000" d="M 96.5,729.5 C 133.167,729.5 169.833,729.5 206.5,729.5C 227.063,848.483 250.897,966.816 278,1084.5C 306.9,973.233 334.067,861.566 359.5,749.5C 392.5,749.5 425.5,749.5 458.5,749.5C 483.288,858.986 510.121,967.986 539,1076.5C 565.863,961.855 589.529,846.521 610,730.5C 646.095,729.337 682.262,729.171 718.5,730C 682.361,885.89 641.695,1040.56 596.5,1194C 560.929,1194.83 525.429,1194.66 490,1193.5C 460.842,1090.86 433.009,987.86 406.5,884.5C 380.099,988.107 352.765,1091.44 324.5,1194.5C 288.445,1195.16 252.612,1194.49 217,1192.5C 171.985,1039.44 131.818,885.107 96.5,729.5 Z"/></g>
<g><path style="opacity:0.993" fill="#eb0000" d="M 1683.5,729.5 C 1716.33,730.498 1749.33,730.832 1782.5,730.5C 1782.17,856.001 1782.5,981.334 1783.5,1106.5C 1856.5,1106.5 1929.5,1106.5 2002.5,1106.5C 2002.5,1135.83 2002.5,1165.17 2002.5,1194.5C 1895.83,1194.5 1789.17,1194.5 1682.5,1194.5C 1682.17,1039.33 1682.5,884.332 1683.5,729.5 Z"/></g>
<g><path style="opacity:0.989" fill="#eb0000" d="M 1241.5,729.5 C 1307.84,729.1 1374.18,729.6 1440.5,731C 1474.91,732.685 1507.25,741.685 1537.5,758C 1581.05,785.742 1602.38,825.742 1601.5,878C 1600.38,938.46 1572.71,981.627 1518.5,1007.5C 1557.5,1068.83 1595.5,1130.83 1632.5,1193.5C 1593.84,1194.67 1555.17,1194.83 1516.5,1194C 1485.5,1137.52 1453.5,1081.69 1420.5,1026.5C 1394.18,1025.5 1367.84,1025.17 1341.5,1025.5C 1341.5,1081.83 1341.5,1138.17 1341.5,1194.5C 1308.17,1194.5 1274.83,1194.5 1241.5,1194.5C 1241.5,1039.5 1241.5,884.5 1241.5,729.5 Z M 1341.5,809.5 C 1368.5,809.333 1395.5,809.5 1422.5,810C 1445.92,810.579 1466.42,818.412 1484,833.5C 1494.32,846.442 1499.48,861.276 1499.5,878C 1499.78,906.797 1486.78,926.797 1460.5,938C 1447.21,942.59 1433.55,945.257 1419.5,946C 1393.5,946.5 1367.5,946.667 1341.5,946.5C 1341.5,900.833 1341.5,855.167 1341.5,809.5 Z"/></g>
<g><path style="opacity:0.173" fill="#ee0000" d="M 1683.5,729.5 C 1716.83,729.5 1750.17,729.5 1783.5,729.5C 1783.5,855.167 1783.5,980.833 1783.5,1106.5C 1782.5,981.334 1782.17,856.001 1782.5,730.5C 1749.33,730.832 1716.33,730.498 1683.5,729.5 Z"/></g>
<g><path style="opacity:0.993" fill="#eb0000" d="M 2060.5,729.5 C 2120.83,729.333 2181.17,729.5 2241.5,730C 2287.19,729.402 2330.19,739.735 2370.5,761C 2422.98,793.382 2454.48,840.215 2465,901.5C 2472.51,946.014 2471.51,990.348 2462,1034.5C 2439.6,1119.9 2385.1,1171.4 2298.5,1189C 2288.57,1190.83 2278.57,1192.16 2268.5,1193C 2199.18,1194.45 2129.85,1194.95 2060.5,1194.5C 2060.5,1039.5 2060.5,884.5 2060.5,729.5 Z M 2160.5,816.5 C 2189.17,816.333 2217.84,816.5 2246.5,817C 2311.3,822.15 2349.8,856.65 2362,920.5C 2368.85,960.089 2365.52,998.756 2352,1036.5C 2333.84,1077.01 2302.68,1100.18 2258.5,1106C 2225.86,1107.43 2193.19,1107.93 2160.5,1107.5C 2160.5,1010.5 2160.5,913.5 2160.5,816.5 Z"/></g>
<g><path style="opacity:0.991" fill="#eb0000" d="M 191.5,1798.5 C 166.5,1798.5 141.5,1798.5 116.5,1798.5C 77.8905,1794.34 41.2238,1783.34 6.5,1765.5C 5.16667,1735.17 5.16667,1704.83 6.5,1674.5C 59.2514,1707.15 116.585,1720.65 178.5,1715C 200.624,1713.52 219.124,1704.69 234,1688.5C 250.898,1654.12 241.731,1629.28 206.5,1614C 196.908,1610.47 187.241,1607.14 177.5,1604C 147.941,1597.15 118.941,1588.48 90.5,1578C 72.0689,1570.62 55.0689,1560.96 39.5,1549C 16.4909,1529.15 3.99089,1503.98 2,1473.5C -2.38534,1402.42 28.7813,1354.59 95.5,1330C 172.559,1307.17 247.559,1312.67 320.5,1346.5C 321.667,1376.49 321.833,1406.49 321,1436.5C 266.119,1404.32 207.286,1393.49 144.5,1404C 109.275,1413.29 96.4417,1435.46 106,1470.5C 108.354,1475.86 111.854,1480.36 116.5,1484C 123.011,1488.76 130.011,1492.76 137.5,1496C 162.942,1504.11 188.609,1511.44 214.5,1518C 237.19,1524.56 259.19,1532.9 280.5,1543C 323.823,1566.78 345.156,1603.61 344.5,1653.5C 343.338,1718.49 312.338,1762.32 251.5,1785C 231.839,1791.63 211.839,1796.13 191.5,1798.5 Z"/></g>
<g><path style="opacity:0.991" fill="#eb0000" d="M 2177.5,1674.5 C 2178.5,1704.33 2178.83,1734.33 2178.5,1764.5C 2163,1774.07 2146.33,1781.23 2128.5,1786C 2108.98,1791.54 2089.32,1795.7 2069.5,1798.5C 2045.17,1798.5 2020.83,1798.5 1996.5,1798.5C 1884.84,1783.68 1819.34,1720.68 1800,1609.5C 1792.92,1562.15 1795.92,1515.48 1809,1469.5C 1837.51,1387.9 1894.18,1338.57 1979,1321.5C 2032.72,1311.88 2085.55,1315.38 2137.5,1332C 2149.76,1336.21 2161.59,1341.38 2173,1347.5C 2173.83,1378.51 2173.67,1409.51 2172.5,1440.5C 2118.08,1405.71 2059.42,1395.88 1996.5,1411C 1941.16,1429.7 1909.99,1468.2 1903,1526.5C 1898.25,1561.83 1901.58,1596.5 1913,1630.5C 1934.4,1679.48 1971.9,1706.31 2025.5,1711C 2080.23,1715.48 2130.9,1703.32 2177.5,1674.5 Z"/></g>
<g><path style="opacity:0.986" fill="#eb0000" d="M 390.5,1325.5 C 497.167,1325.5 603.833,1325.5 710.5,1325.5C 710.5,1353.5 710.5,1381.5 710.5,1409.5C 637.5,1409.5 564.5,1409.5 491.5,1409.5C 491.5,1442.83 491.5,1476.17 491.5,1509.5C 556.5,1509.5 621.5,1509.5 686.5,1509.5C 686.5,1537.5 686.5,1565.5 686.5,1593.5C 621.5,1593.5 556.5,1593.5 491.5,1593.5C 491.5,1631.17 491.5,1668.83 491.5,1706.5C 568.833,1706.5 646.167,1706.5 723.5,1706.5C 723.5,1734.5 723.5,1762.5 723.5,1790.5C 612.5,1790.5 501.5,1790.5 390.5,1790.5C 390.5,1635.5 390.5,1480.5 390.5,1325.5 Z"/></g>
<g><path style="opacity:0.991" fill="#ea0000" d="M 771.5,1325.5 C 832.834,1325.33 894.168,1325.5 955.5,1326C 993.919,1326.15 1030.25,1334.82 1064.5,1352C 1109.97,1379.58 1132.3,1420.25 1131.5,1474C 1130.51,1534.35 1102.84,1577.35 1048.5,1603C 1087.38,1664.58 1125.38,1726.75 1162.5,1789.5C 1123.83,1790.83 1085.17,1790.83 1046.5,1789.5C 1015.64,1732.93 983.638,1677.1 950.5,1622C 924.169,1621.5 897.835,1621.33 871.5,1621.5C 871.5,1677.83 871.5,1734.17 871.5,1790.5C 838.167,1790.5 804.833,1790.5 771.5,1790.5C 771.5,1635.5 771.5,1480.5 771.5,1325.5 Z M 871.5,1405.5 C 899.169,1405.33 926.835,1405.5 954.5,1406C 974.864,1406.79 993.198,1413.12 1009.5,1425C 1023.3,1438.29 1029.97,1454.62 1029.5,1474C 1028.34,1511.17 1009.34,1532.83 972.5,1539C 968.181,1539.76 963.848,1540.43 959.5,1541C 930.188,1542.38 900.854,1542.88 871.5,1542.5C 871.5,1496.83 871.5,1451.17 871.5,1405.5 Z"/></g>
<g><path style="opacity:0.989" fill="#eb0000" d="M 1140.5,1325.5 C 1177.41,1325.17 1214.24,1325.5 1251,1326.5C 1290.09,1446.45 1330.76,1565.78 1373,1684.5C 1415.19,1565.43 1455.69,1445.76 1494.5,1325.5C 1530.5,1325.5 1566.5,1325.5 1602.5,1325.5C 1546.15,1481.37 1487.15,1636.2 1425.5,1790C 1389.5,1790.67 1353.5,1790.67 1317.5,1790C 1255.06,1636.51 1196.06,1481.68 1140.5,1325.5 Z"/></g>
<g><path style="opacity:0.985" fill="#eb0000" d="M 1644.5,1325.5 C 1678.17,1325.5 1711.83,1325.5 1745.5,1325.5C 1745.5,1480.5 1745.5,1635.5 1745.5,1790.5C 1711.83,1790.5 1678.17,1790.5 1644.5,1790.5C 1644.5,1635.5 1644.5,1480.5 1644.5,1325.5 Z"/></g>
<g><path style="opacity:0.991" fill="#eb0000" d="M 2559.5,1706.5 C 2559.5,1734.5 2559.5,1762.5 2559.5,1790.5C 2450.26,1790.83 2341.1,1790.5 2232,1789.5C 2231.33,1635.17 2231.33,1480.83 2232,1326.5C 2338.43,1325.5 2444.93,1325.17 2551.5,1325.5C 2551.5,1353.5 2551.5,1381.5 2551.5,1409.5C 2478.5,1409.5 2405.5,1409.5 2332.5,1409.5C 2332.5,1442.83 2332.5,1476.17 2332.5,1509.5C 2397.5,1509.5 2462.5,1509.5 2527.5,1509.5C 2527.5,1537.5 2527.5,1565.5 2527.5,1593.5C 2462.5,1593.5 2397.5,1593.5 2332.5,1593.5C 2332.5,1631.17 2332.5,1668.83 2332.5,1706.5C 2408.17,1706.5 2483.83,1706.5 2559.5,1706.5 Z"/></g>
<g><path style="opacity:0.016" fill="#fe0000" d="M 2177.5,1674.5 C 2177.56,1673.96 2177.89,1673.62 2178.5,1673.5C 2179.83,1704 2179.83,1734.33 2178.5,1764.5C 2178.83,1734.33 2178.5,1704.33 2177.5,1674.5 Z"/></g>
  </g>
</svg>
