<svg width="800" height="225.14" clip-rule="evenodd" fill-rule="evenodd" stroke-linejoin="round" stroke-miterlimit="2" version="1.1" viewBox="0 0 800 225.14" xmlns="http://www.w3.org/2000/svg">
 <g transform="matrix(.82591 0 0 .82591 -11.488 -298.6)">
  <g transform="translate(0,10.088)" fill-rule="nonzero">
   <g fill="#77b82a">
    <path d="m150.22 518.31c0-44.25 20.13-82.15 48.72-97.89h-99.91v199.68h108.38c-32.97-12.43-57.19-53.29-57.19-101.79z"/>
    <path d="m13.91 351.45h68.55v268.64h-68.55z"/>
   </g>
   <g fill="#fff">
    <path d="m382.23 550.29c0 44.09-31.06 73.76-67.94 73.76-18.02 0-32.44-5.55-43.26-15.25v11.09h-44.37v-199.66h44.37v71.54c10.81-9.71 25.23-15.25 43.26-15.25 36.88 0 67.94 29.95 67.94 73.77zm-43.54 0c0-21.35-14.14-36.05-33.55-36.05-18.02 0-34.11 14.7-34.11 36.05 0 21.63 16.08 36.05 34.11 36.05 19.41-0.01 33.55-14.43 33.55-36.05z"/>
    <path d="m541.67 561.65h-102.05c3.6 16.64 14.97 26.9 29.95 26.9 10.26 0 22.18-2.5 29.67-16.08l39.38 8.04c-11.92 29.39-37.16 43.54-69.05 43.54-40.21 0-73.48-29.67-73.48-73.76 0-43.81 33.28-73.76 73.76-73.76 39.38 0 70.99 28.28 71.82 73.76zm-101.21-27.17h57.4c-4.16-14.97-15.25-21.91-28.01-21.91-12.48 0-25.23 7.77-29.39 21.91z"/>
    <path d="m711.1 619.89h-44.37v-11.09c-10.81 9.71-25.23 15.25-43.26 15.25-36.88 0-67.94-29.67-67.94-73.76 0-43.81 31.06-73.76 67.94-73.76 18.02 0 32.44 5.55 43.26 15.25v-11.09h44.37zm-44.37-69.6c0-21.35-16.08-36.05-34.11-36.05-19.41 0-33.55 14.7-33.55 36.05 0 21.63 14.14 36.05 33.55 36.05 18.02-0.01 34.11-14.43 34.11-36.05z"/>
    <path d="m846.41 613.79c-10.81 5.82-22.18 10.26-37.99 10.26-34.66 0-55.46-18.86-55.46-55.46v-52.69h-25.23v-35.22h25.23v-41.04h44.37v41.04h41.04v35.22h-41.04v48.25c0 14.42 6.93 20.24 18.58 20.24 6.1 0 14.42-2.22 20.24-5.55z"/>
    <path d="m897.15 574.69c1.94 11.92 12.75 16.36 24.68 16.36 11.65 0 18.02-4.99 18.02-11.09 0-4.71-3.6-8.32-13.86-10.26l-28.29-5.55c-25.79-4.71-40.49-18.58-40.49-40.49 0-28.56 24.68-47.14 59.9-47.14 34.66 0 57.68 15.81 63.22 39.93l-40.49 8.04c-1.39-8.6-9.71-16.36-23.29-16.36-11.92 0-15.81 5.82-15.81 10.81 0 3.88 1.66 7.76 10.54 9.71l32.72 6.66c26.34 5.55 38.54 21.35 38.54 41.87 0 30.78-26.62 46.86-63.22 46.86-32.72 0-60.73-11.92-65.44-40.49z"/>
   </g>
  </g>
 </g>
</svg>
