<svg xmlns="http://www.w3.org/2000/svg" height="176.55" width="600" viewBox="0 0 158.75 46.712">
    <g fill="#fff">
        <path d="M36.54 4.32c12.451 0 24.4 4.585 33.645 12.912l2.89-3.207C63.038 4.983 50.064 0 36.54 0S10.046 4.983.006 14.02l2.895 3.213A50.16 50.16 0 0 1 36.541 4.32M36.54 42.4A50.188 50.188 0 0 1 2.895 29.488l-2.89 3.207c10.04 9.042 23.01 14.025 36.535 14.025s26.494-4.983 36.534-14.02l-2.895-3.213A50.16 50.16 0 0 1 36.539 42.4"/>
        <path d="M43.49 23.89c.392-2.255 1.736-3.731 3.795-3.731 2.093 0 3.402 1.505 3.696 3.731zm-9.648 1.407c0 2.941-1.967 4.839-4.285 4.839-2.324 0-4.256-1.926-4.256-4.839v-.069c0-2.907 1.932-4.838 4.256-4.838 2.318 0 4.285 1.932 4.285 4.838zm21.978.456v-.064c0-4.97-2.682-9.515-8.535-9.515-4.585 0-7.93 3.327-8.559 7.635-.576-4.948-4.152-7.635-7.895-7.635-2.583 0-4.25 1.205-5.461 2.843v-8.864h-4.971v23.875h4.97v-2.29c1.177 1.408 2.81 2.619 5.462 2.619 3.778 0 7.284-2.653 7.884-7.538.64 4.562 4.285 7.601 9.06 7.601 3.172 0 5.524-1.245 7.162-3.27l-2.849-2.52c-1.372 1.275-2.578 1.8-4.25 1.8-2.22 0-3.795-1.177-4.285-3.432h12.203c.029-.461.064-.755.064-1.246M78.84 24.4v-.04c0-3.017 2.33-5.548 5.53-5.548 1.99 0 3.236.744 4.245 1.828l-1.528 1.626c-.744-.784-1.529-1.326-2.74-1.326-1.764 0-3.073 1.528-3.073 3.38v.04c0 1.891 1.309 3.397 3.177 3.397 1.148 0 1.99-.52 2.757-1.304l1.465 1.448c-1.044 1.165-2.273 1.99-4.343 1.99-3.16 0-5.49-2.475-5.49-5.491M90.38 25.78v-6.759h2.434v6.038c0 1.644.824 2.572 2.272 2.572 1.407 0 2.393-.963 2.393-2.612V19.02h2.451v10.617h-2.45v-1.644c-.687 1.004-1.668 1.869-3.317 1.869-2.393 0-3.783-1.61-3.783-4.083M102.97 19.03h2.434v2.393c.663-1.591 1.891-2.676 3.76-2.595V21.4h-.139c-2.133 0-3.621 1.39-3.621 4.204v4.043h-2.434zM111.41 19.02h2.434v10.617h-2.434zm-.098-3.939h2.612v2.313h-2.612zM124.93 24.4v-.04c0-1.869-1.35-3.42-3.258-3.42-1.95 0-3.195 1.528-3.195 3.38v.04c0 1.85 1.343 3.397 3.235 3.397 1.972 0 3.218-1.529 3.218-3.357m-8.887 0v-.04c0-3.04 2.41-5.548 5.669-5.548s5.652 2.468 5.652 5.507v.04c0 3.017-2.417 5.531-5.692 5.531-3.236 0-5.629-2.474-5.629-5.49M128.91 25.78v-6.759h2.434v6.038c0 1.644.824 2.572 2.272 2.572 1.407 0 2.393-.963 2.393-2.612V19.02h2.451v10.617h-2.45v-1.644c-.687 1.004-1.673 1.869-3.317 1.869-2.393 0-3.783-1.61-3.783-4.083M140.19 28.26l1.084-1.65c1.17.866 2.394 1.31 3.484 1.31 1.043 0 1.649-.444 1.649-1.148v-.04c0-.825-1.13-1.108-2.376-1.488-1.569-.444-3.316-1.084-3.316-3.12v-.035c0-2.012 1.667-3.24 3.777-3.24 1.333 0 2.78.46 3.905 1.204l-.97 1.73c-1.02-.622-2.11-1.003-2.992-1.003-.946 0-1.488.444-1.488 1.044v.04c0 .785 1.147 1.108 2.393 1.511 1.546.479 3.299 1.182 3.299 3.097v.04c0 2.232-1.73 3.34-3.945 3.34-1.505 0-3.177-.548-4.504-1.592M150.13 14.42h-1.73v-.888h4.429v.888h-1.73v4.568h-.969zM153.37 13.53h1.061l1.644 4.198 1.638-4.198h1.038l-2.267 5.496h-.83z"/>
    </g>
</svg>
