<svg version="1.1" viewBox="0 0 88.28 76.332" xmlns="http://www.w3.org/2000/svg">
 <defs>
  <style>.cls-1{fill:#fff;}.cls-2{fill:#f79951;}</style>
 </defs>
 <g data-name="Layer 2">
  <g data-name="Layer 1">
   <path class="cls-1" d="m0 0v76.33h67.23a21 21 0 0 0 15.4-6.4 20.26 20.26 0 0 0 5.65-13.8v-56.13z" fill="#fff"/>
   <path class="cls-2" d="m0 0v76.33h67.23a21 21 0 0 0 15.4-6.4 20.26 20.26 0 0 0 5.65-13.8v-56.13zm87.27 1v36.78h-86.27v-36.78z" fill="#f79951"/>
   <path class="cls-2" d="m17.34 12.58a9.54 9.54 0 0 0-7.68 3.83v-9.32a0.9 0.9 0 0 0-1.8 0v15.27a9.37 9.37 0 0 0 9.48 9.23 9.66 9.66 0 0 0 9.48-9.59 9.48 9.48 0 0 0-9.48-9.42zm0 17.11a7.67 7.67 0 1 1 7.6-7.69 7.66 7.66 0 0 1-7.63 7.69zm29.62-7.61a0.88 0.88 0 0 1-0.96 0.92h-9.89a0.94 0.94 0 0 1 0-1.87h8.89a7.64 7.64 0 1 0-1 4.94 0.92 0.92 0 0 1 0.6-0.4 0.91 0.91 0 0 1 0.7 0.14 0.93 0.93 0 0 1 0.27 1.28 9.5 9.5 0 1 1 1.42-5zm5.31 8a1.83 1.83 0 0 1-1.82 1.53 1.81 1.81 0 0 1-1.82-1.53v-15.91a1.81 1.81 0 0 1 1.82-1.54 1.83 1.83 0 0 1 1.82 1.53zm24.14 1a6.56 6.56 0 0 1-2.48 0.51 5.9 5.9 0 0 1-4.72-2.44c-0.68-1-7.06-11.11-7.33-11.56a2.41 2.41 0 0 0-2.08-1.39 2.17 2.17 0 0 0-2.24 2.27v11.46a1.75 1.75 0 0 1-1.79 1.66 1.77 1.77 0 0 1-1.83-1.46v-12a5.86 5.86 0 0 1 10.84-2.81l7.3 11.51a2.28 2.28 0 0 0 3.06 0.78 2.15 2.15 0 0 0 1.17-1.8v-11.68a1.82 1.82 0 0 1 1.8-1.54 1.8 1.8 0 0 1 1.8 1.52v11.72a5.57 5.57 0 0 1-3.53 5.25z" fill="#f79951"/>
   <path class="cls-1" d="m71.679 52.183v1.183h5.6334c1.5707-0.18228 1.5707 2.2807 0 2.0984h-5.6334v1.1548c-0.11861 2.0314 1.5442 3.7204 3.5772 3.6335h3.7321c1.2283 0.14352 1.2283 1.9267 0 2.0703h-3.6899c-3.3886 0.5363-6.3072-2.4038-5.7461-5.7883v-4.3377c-0.57054-3.3896 2.3705-6.3307 5.7602-5.7601h3.704c0.50908 0.07653 0.88602 0.51329 0.88726 1.0281-0.0077 0.58562-0.48467 1.0563-1.0703 1.0563h-4.0279c-1.8736 0.14967-3.2723 1.7878-3.1265 3.6617zm-49.363 7.2107v-2.8871c0.0079-0.69774-0.55564-1.2676-1.2534-1.2675h-4.5067c-1.5707-0.18228-1.5707 2.2807 0 2.0984h3.6617v1.7604c-2.555 2.1911-6.3875 1.9605-8.6614-0.52109-2.1335-2.3804-2.1335-5.9851 0-8.3655 1.1397-1.2617 2.7505-1.9957 4.4504-2.028h0.14084c1.6486-0.0059 3.231 0.64833 4.3941 1.8168 0.20181 0.19045 0.46894 0.2963 0.74643 0.29575 0.27376 0.0028 0.53734-0.1036 0.73234-0.29575 0.35234-0.40334 0.35234-1.005 0-1.4083-1.5594-1.5622-3.6796-2.4346-5.8869-2.4223h-0.23942c-2.2911 0.0693-4.4498 1.09-5.9573 2.8167-2.7696 3.1809-2.7696 7.9169 0 11.098 1.52 1.7006 3.677 2.6949 5.9573 2.7463h0.22534c2.2303-0.02683 4.3544-0.95674 5.8869-2.5773 0.2264-0.22572 0.34004-0.54082 0.30984-0.85909zm23.942 1.4083c0.14592 0.24086 0.18664 0.53103 0.11267 0.80276-0.24825 0.90032-1.457 1.0591-1.9294 0.2535l-2.8167-4.5067h-3.2533v4.0279c0 1.3896-2.0844 1.3896-2.0844 0v-9.5767c-0.16277-3.1762 2.4572-5.7961 5.6334-5.6334 6.0522 0.15812 7.6282 8.4482 2.0562 10.816zm-4.4222-5.5066c4.7602 0 4.7602-7.1403 0-7.1403-1.9984-0.08871-3.6292 1.5815-3.4927 3.5772v3.549zm24.365-8.4641c-0.51222-0.23717-1.0692-0.36202-1.6337-0.36617-1.2456-0.02276-2.372 0.73751-2.8167 1.9013-0.43659 0.99992-2.5773 6.0981-2.69 6.3657-0.11267 0.26758-0.29575 0.56334-0.57742 0.56334s-0.39434-0.0845-0.57742-0.56334-2.2534-5.3658-2.69-6.3657c-0.44474-1.1638-1.5711-1.924-2.8167-1.9013-0.56445 0.0041-1.1215 0.129-1.6337 0.36617-1.0769 0.53636-1.7779 1.6148-1.8309 2.8167v11.675c0 1.3896 2.0844 1.3896 2.0844 0v-11.365c-0.01797-0.52602 0.29826-1.006 0.78868-1.1971 0.57134-0.19896 1.1969 0.09508 1.4084 0.66192 0.35209 0.87317 1.521 3.6758 2.1407 5.3094l0.18309 0.49292c0.84445 2.9133 4.9721 2.9133 5.8165 0l0.18309-0.49292c0.61968-1.6337 1.8027-4.4363 2.1407-5.3094 0.21141-0.56684 0.83702-0.86088 1.4084-0.66192 0.49041 0.19108 0.80665 0.67107 0.78868 1.1971v11.379c0 1.3896 2.0844 1.3896 2.0844 0v-11.689c-0.02842-1.1858-0.68929-2.2658-1.7323-2.8308zm-32.519-0.38025c-0.59894 0.0077-1.0782 0.49958-1.0704 1.0985v9.4218c0.0014 0.37076-0.0459 0.7401-0.14084 1.0985-0.89006 3.2043-5.4334 3.2043-6.3235 0-0.09494-0.3584-0.14229-0.72774-0.14084-1.0985v-9.3936c0-1.4365-2.1548-1.4365-2.1548 0v9.4359c0 7.267 10.901 7.267 10.901 0v-9.4359c0.03187-0.60447-0.43729-1.118-1.0422-1.1408z" fill="#fff" stroke-width="1.4083"/>
  </g>
 </g>
</svg>
