<svg viewBox="0 0 298.73 200.01" xmlns="http://www.w3.org/2000/svg">
    <defs>
        <style>
            .cls-1{fill:#fff}.cls-2{fill:#c90000}
        </style>
    </defs>
    <g data-name="Layer 2">
        <g data-name="Layer 1">
            <path class="cls-1" fill="#fff" d="M2.46 2.46h211.78v87.35H2.46z"/>
            <path class="cls-2" d="M0 0v161.49h165c14.72 0 28.14-5.58 37.8-15.72a49.75 49.75 0 0 0 13.9-33.87V0zm213 3.69v84.89H3.68V3.69z" fill="#c90000"/>
            <path class="cls-1" d="M194 132.22c0 5-3.32 10.94-12.67 10.94a12.48 12.48 0 0 1-9.08-3.58 10.82 10.82 0 0 1-3.05-7.9 2.24 2.24 0 0 1 4.47 0 6.83 6.83 0 0 0 1.77 4.82 7.86 7.86 0 0 0 6 2.17c2.9 0 5.07-.72 6.44-2.14a6.15 6.15 0 0 0 1.62-4.32 4.2 4.2 0 0 0-1.22-3.06c-1.34-1.39-3.66-2.09-6.9-2.09-9.62 0-12.18-5.62-12.18-8.93 0-1.14.34-11.12 12.09-11.12h.06c.49 0 12.05.13 12.05 11.85a2.2 2.2 0 1 1-4.4 0 7.73 7.73 0 0 0-1.76-5.31 7.62 7.62 0 0 0-5.86-2.14c-2.73 0-4.78.73-6.11 2.15a6.83 6.83 0 0 0-1.67 4.64 3.58 3.58 0 0 0 1.12 2.38c1.3 1.31 3.53 2 6.63 2 7.65-.01 12.65 3.77 12.65 9.64zm-39.24-20h8.76a2.31 2.31 0 0 0 2.34-2.28 2.27 2.27 0 0 0-1.93-2.25h-8.08c-3.24 0-6.59.32-9.09 2.64-2.32 2.16-3.45 5.4-3.45 9.9v9.64c0 4.49 1.13 7.73 3.45 9.9 2.56 2.38 6 2.7 9.05 2.7h8.08a2.29 2.29 0 0 0 2-2.25 2.32 2.32 0 0 0-2-2.26h-8.12c-4.65 0-7.78-3.22-7.78-8v-2.5h12.23a2.29 2.29 0 1 0 0-4.57H148v-2.58c0-4.52 2.64-7.64 6.76-8.04zm-50.9 12.82A18.07 18.07 0 1 1 85.8 107a18.09 18.09 0 0 1 18.06 18.09zm-4.38 0a13.69 13.69 0 1 0-13.68 13.73 13.7 13.7 0 0 0 13.68-13.68zm36.31-17.39a2.32 2.32 0 0 0-2.29 2.35v30.1a2.27 2.27 0 1 0 4.54 0V110a2.31 2.31 0 0 0-2.25-2.3zm-75.53.83a8.63 8.63 0 0 0-3.55-.81 6.44 6.44 0 0 0-6.13 4.15c-.95 2.19-5.6 13.26-5.85 13.86-.41 1-.64 1.23-1.26 1.24s-.84-.2-1.26-1.24c-.24-.6-4.9-11.67-5.85-13.86a6.43 6.43 0 0 0-6.13-4.15 8.59 8.59 0 0 0-3.54.81 7.2 7.2 0 0 0-4 6.18v25.42a2.27 2.27 0 1 0 4.54 0v-24.7a2.71 2.71 0 0 1 1.77-2.65 2.43 2.43 0 0 1 3.1 1.46c.76 1.89 3.32 8 4.67 11.55l.41 1.08c.77 2 1.94 4.71 6.32 4.75s5.55-2.71 6.33-4.75l.4-1.08c1.35-3.57 3.92-9.66 4.67-11.55a2.43 2.43 0 0 1 3.1-1.46 2.72 2.72 0 0 1 1.72 2.63v24.75a2.27 2.27 0 1 0 4.53 0v-25.4a7.18 7.18 0 0 0-3.99-6.18zm68 1.32a2.33 2.33 0 1 0-4.6-.71l-3.94 26.72a2.38 2.38 0 0 1-1.57 1.81 3.91 3.91 0 0 1-.82.14 4 4 0 0 1-.83-.14 2.42 2.42 0 0 1-1.58-1.81L111 109.14a2.33 2.33 0 1 0-4.6.71l.46 3 3.44 23.67a6.94 6.94 0 0 0 5.28 5.76 6.8 6.8 0 0 0 1.56.15h.39a6.74 6.74 0 0 0 6.84-5.91l3.45-23.67z" fill="#fff"/>
            <path class="cls-2" d="M43.21 30.65a23.41 23.41 0 0 0-18.84 9.41V17.17a2.22 2.22 0 0 0-4.43 0v37.49a23 23 0 0 0 23.27 22.65c13.93 0 23.28-12.14 23.28-23.49 0-14.31-12.09-23.17-23.28-23.17zm-.06 42a18.83 18.83 0 1 1 18.72-18.82 18.79 18.79 0 0 1-18.72 18.82zM115.86 54a2.15 2.15 0 0 1-2.3 2.25H89.28a2.3 2.3 0 0 1 0-4.6h21.87a18.75 18.75 0 1 0-2.59 12.11 2.27 2.27 0 0 1 1.47-1 2.21 2.21 0 0 1 1.7.34 2.29 2.29 0 0 1 .67 3.15A23.34 23.34 0 1 1 115.86 54zm13 19.56a4.48 4.48 0 0 1-4.46 3.75 4.44 4.44 0 0 1-4.47-3.75v-39a4.45 4.45 0 0 1 4.47-3.8 4.5 4.5 0 0 1 4.46 3.76zm59.26 2.52a16.09 16.09 0 0 1-6.09 1.25 14.48 14.48 0 0 1-11.59-6c-1.67-2.52-17.33-27.27-18-28.36 0-.08-1.74-3.6-5.1-3.41-5.81.53-5.52 5.38-5.5 5.58v28.09a4.31 4.31 0 0 1-4.39 4.08 4.34 4.34 0 0 1-4.45-3.58V44.37c0-.09.21-9.1 8.81-12.63a14.45 14.45 0 0 1 17.81 5.73l17.93 28.24a5.6 5.6 0 0 0 7.45 1.91 5.29 5.29 0 0 0 2.87-4.41V34.45a4.47 4.47 0 0 1 4.42-3.78 4.4 4.4 0 0 1 4.42 3.72v28.79a13.67 13.67 0 0 1-8.56 12.88zM69.13 199.63h-4.07l-2.21-5.28H52.51l-2.25 5.28h-3.94l9.62-22h3.56zM57.66 182.2l-3.75 8.74h7.53zM81.69 200a11.31 11.31 0 0 1 .16-22.61 11.41 11.41 0 0 1 8.56 3.4l-2.47 2.84a8.7 8.7 0 0 0-6.12-2.71c-4.19 0-7.22 3.43-7.22 7.74s3 7.81 7.22 7.81c2.68 0 4.4-1.09 6.28-2.84l2.46 2.5a11.28 11.28 0 0 1-8.87 3.87zM103.85 199.63H100v-18.31h-7v-3.56h17.75v3.56h-6.94zM118.92 177.76v21.87h-3.85v-21.87zM135.19 200a11.31 11.31 0 1 1 11.47-11.34A11.11 11.11 0 0 1 135.19 200zm0-19.08c-4.34 0-7.37 3.46-7.37 7.74a7.51 7.51 0 0 0 7.44 7.81c4.34 0 7.37-3.47 7.37-7.74a7.51 7.51 0 0 0-7.44-7.81zM166.6 177.76h3.78v21.87h-3.22l-12.06-15.56v15.56h-3.78v-21.87h3.57l11.71 15.12z" fill="#c90000"/>
            <path class="cls-2" d="M220.78 88.52h61.513A16.062 21.91 0 0 0 298.729 67V3.69H237.15a16.062 21.91 0 0 0-16.421 21.51v63.32z" fill="#c90000" stroke-width=".856"/>
            <path class="cls-1" d="M264.71 45.58l-20.673 16.182-.599.464c-3.338 2.65-5.18 4.102-5.18 7.65 0 4.67 3.429 7.484 9.162 7.484h33.517v-9.924h-27.394l13.712-10.673c8.159-6.407 13.937-11.706 13.937-21.871a19.73 19.73 0 0 0-20.074-19.79c-10.703 0-22.11 6.99-22.11 19.955a18.712 18.712 0 0 0 8.623 16.57l8.892-6.392a10.045 10.045 0 0 1-6.931-9.101c0-6.886 4.101-11.152 10.688-11.152a9.835 9.835 0 0 1 10.344 9.985c0 5.374-4.147 9.206-5.913 10.614z" fill="#fff" stroke-width="1.497"/>
        </g>
    </g>
</svg>
