<svg viewBox="0 0 327.13 200" xmlns="http://www.w3.org/2000/svg">
    <defs>
        <style>
            .cls-1{fill:#fff}.cls-2{fill:#c90000}
        </style>
    </defs>
    <g data-name="Layer 2">
        <g data-name="Layer 1">
            <path class="cls-1" fill="#fff" d="M2.46 2.47H214.4v87.41H2.46z"/>
            <path class="cls-2" d="M0 0v161.62h165.16c14.73 0 28.16-5.59 37.83-15.73A49.78 49.78 0 0 0 216.87 112V0zm213.17 3.69v85H3.69v-85z" fill="#c90000"/>
            <path class="cls-1" d="M194.15 132.32c0 5.05-3.32 11-12.67 11a12.48 12.48 0 0 1-9.09-3.58 10.84 10.84 0 0 1-3.06-7.9 2.24 2.24 0 0 1 4.48 0 6.84 6.84 0 0 0 1.77 4.83 7.86 7.86 0 0 0 6 2.17c2.9 0 5.07-.72 6.45-2.14a6.17 6.17 0 0 0 1.62-4.33 4.25 4.25 0 0 0-1.22-3.06c-1.34-1.39-3.67-2.09-6.91-2.09-9.63 0-12.19-5.62-12.19-8.94 0-1.14.34-11.13 12.1-11.13h.06c.49 0 12.06.14 12.06 11.87a2.21 2.21 0 0 1-4.41 0 7.7 7.7 0 0 0-1.75-5.32 7.62 7.62 0 0 0-5.87-2.14c-2.73 0-4.79.72-6.12 2.15a6.86 6.86 0 0 0-1.66 4.64 3.57 3.57 0 0 0 1.12 2.38c1.3 1.32 3.53 2 6.63 2 7.69-.06 12.66 3.72 12.66 9.59zm-39.27-20h8.77a2.32 2.32 0 0 0 2.34-2.29 2.27 2.27 0 0 0-1.93-2.25h-8.09c-3.24 0-6.59.32-9.09 2.65-2.32 2.16-3.45 5.4-3.45 9.9V130c0 4.5 1.13 7.74 3.45 9.91 2.56 2.38 6 2.7 9.06 2.7H164a2.28 2.28 0 0 0 0-4.52h-8.13c-4.65 0-7.78-3.22-7.78-8v-2.51h12.21a2.29 2.29 0 1 0 0-4.57h-12.23v-2.58c0-4.55 2.69-7.67 6.81-8.07zM104 125.19a18.09 18.09 0 1 1-18.13-18.09A18.1 18.1 0 0 1 104 125.19zm-4.39 0a13.7 13.7 0 1 0-13.69 13.69 13.72 13.72 0 0 0 13.64-13.69zm36.33-17.41a2.32 2.32 0 0 0-2.28 2.34v30.13a2.28 2.28 0 1 0 4.55 0v-30.13a2.31 2.31 0 0 0-2.32-2.34zm-75.58.83a8.63 8.63 0 0 0-3.55-.8 6.44 6.44 0 0 0-6.19 4.19c-.95 2.2-5.61 13.28-5.85 13.88-.42 1-.64 1.23-1.26 1.24s-.85-.2-1.27-1.24c-.24-.6-4.9-11.68-5.85-13.88a6.44 6.44 0 0 0-6.14-4.14 8.56 8.56 0 0 0-3.54.8 7.21 7.21 0 0 0-4 6.19v25.44a2.27 2.27 0 1 0 4.54 0v-24.81a2.7 2.7 0 0 1 1.75-2.66 2.43 2.43 0 0 1 3.1 1.46c.76 1.89 3.33 8 4.68 11.56l.41 1.08c.77 2 1.94 4.72 6.33 4.75s5.55-2.71 6.33-4.75l.4-1.08c1.35-3.57 3.92-9.67 4.68-11.56a2.43 2.43 0 0 1 3.1-1.46 2.71 2.71 0 0 1 1.72 2.63v24.76a2.27 2.27 0 1 0 4.54 0V114.8a7.2 7.2 0 0 0-3.98-6.19zm68.08 1.32a2.33 2.33 0 1 0-4.6-.7l-4 26.74a2.34 2.34 0 0 1-1.57 1.81 3.81 3.81 0 0 1-.82.14 4 4 0 0 1-.83-.14 2.4 2.4 0 0 1-1.57-1.81l-3.94-26.74a2.331 2.331 0 1 0-4.61.7l.47 3 3.44 23.68a6.75 6.75 0 0 0 6.84 5.92h.39a6.74 6.74 0 0 0 6.84-5.92l3.46-23.61z" fill="#fff"/>
            <path class="cls-2" d="M43.24 30.68a23.42 23.42 0 0 0-18.85 9.41v-22.9a2.22 2.22 0 1 0-4.43 0v37.52a23 23 0 0 0 23.29 22.66c13.94 0 23.29-12.15 23.29-23.51 0-14.32-12.09-23.18-23.3-23.18zm-.06 42a18.84 18.84 0 1 1 18.74-18.81 18.8 18.8 0 0 1-18.74 18.84zM116 54a2.16 2.16 0 0 1-2.31 2.24H89.35a2.3 2.3 0 0 1 0-4.6h21.89a18.76 18.76 0 1 0-2.59 12.12 2.27 2.27 0 0 1 3.17-.65 2.28 2.28 0 0 1 .66 3.15A23.34 23.34 0 1 1 116 54zm13 19.56a4.49 4.49 0 0 1-4.47 3.76 4.45 4.45 0 0 1-4.53-3.7V34.57a4.45 4.45 0 0 1 4.47-3.79 4.5 4.5 0 0 1 4.53 3.76zm59.3 2.53a16.13 16.13 0 0 1-6.09 1.25 14.51 14.51 0 0 1-11.61-6c-1.66-2.53-17.34-27.29-18-28.39 0-.08-1.74-3.6-5.1-3.41-5.81.53-5.53 5.38-5.51 5.59v28.16a4.31 4.31 0 0 1-4.39 4.08 4.33 4.33 0 0 1-4.49-3.58V44.41c0-.1.21-9.12 8.81-12.65a14.48 14.48 0 0 1 17.83 5.74l17.94 28.27a5.61 5.61 0 0 0 7.52 1.9 5.27 5.27 0 0 0 2.79-4.41V34.48a4.49 4.49 0 0 1 4.43-3.79 4.42 4.42 0 0 1 4.43 3.73v28.81a13.72 13.72 0 0 1-8.56 12.89zM67.17 181.39h-12.6v6h11.17V191H54.57v9h-3.89v-22.16h16.49zM90.13 200H86l-2.25-5.35H73.29L71 200h-4l9.75-22.31h3.61zm-11.62-17.66l-3.8 8.86h7.63zM104.83 194.56h-.13l-6.93-10.39V200h-3.83v-22.16h4.15l6.74 10.48 6.74-10.48h4.15V200h-3.9v-15.89zM125.54 177.84V200h-3.89v-22.16zM131.47 177.84h3.89v18.62H147V200h-15.53zM157.4 200h-3.93v-8.74l-8.8-13.42h4.59l6.21 9.81 6.26-9.81h4.47l-8.8 13.33z" fill="#c90000"/>
        </g>
    </g>
    <path class="cls-2" d="M220.8 88.52h83.91A21.91 21.91 0 0 0 327.13 67V3.69h-84a21.91 21.91 0 0 0-22.4 21.51v63.32z" fill="#c90000"/>
    <path class="cls-1" d="M245.19 68.64h-8.468V23.76h8.468zm24.205-44.88h-8.424v18h-12.45v7.965h12.45V68.64h8.424zm22.355 44.88c12.125 0 19.971-8.73 19.971-22.5s-7.654-22.5-19.971-22.5h-15.767v45h8.424V31.71h7.402c9.49 0 11.547 7.83 11.547 14.43 0 5.43-1.48 14.55-11.547 14.55h-3.983v7.95h3.983" fill="#fff" stroke-width="1.49"/>
</svg>
