<svg version="1.1" viewBox="0 0 327.13 200.01" xmlns="http://www.w3.org/2000/svg">
 <defs>
  <style>.cls-1{fill:none;}.cls-2{clip-path:url(#a);}.cls-3{fill:#fff;}.cls-4{fill:#0096dc;}</style>
  <clipPath id="a" transform="translate(0)">
   <rect class="cls-1" width="355.27" height="200" fill="none"/>
  </clipPath>
 </defs>
 <g transform="scale(.93688 .80745)" data-name="Layer 2">
  <g data-name="Layer 1">
   <g data-name="Series HD1">
    <g class="cls-2" clip-path="url(#a)">
     <g class="cls-2" clip-path="url(#a)">
      <path class="cls-3" d="m0 0v200h176.16c15.7 0 30-6 40.34-16.78a53.08 53.08 0 0 0 14.8-36.15v-147.07z" fill="#fff"/>
      <path class="cls-4" d="m2.13 99v98.84h172.42c33.75 0 54.62-26.84 54.62-52.41v-46.43z" fill="#0096dc"/>
      <path class="cls-4" d="m0 0v200h176.14c15.72 0 30.06-6 40.36-16.78a53.08 53.08 0 0 0 14.8-36.15v-147.07zm174.38 197.38h-170.47v-193.47h223.48v141.38c1.29 12.89-4 25.86-13.27 35.58-10.16 10.64-24.26 16.51-39.74 16.51" fill="#0096dc"/>
      <path class="cls-3" d="m52.47 155.83c0 6.5-4.26 14-16.29 14a16 16 0 0 1-11.67-4.58 13.87 13.87 0 0 1-3.91-10.15 2.87 2.87 0 0 1 5.74 0 8.88 8.88 0 0 0 2.27 6.19c1.75 1.85 4.31 2.79 7.65 2.79h0.06c3.74 0 6.52-0.93 8.3-2.75a7.77 7.77 0 0 0 2.05-5.56 5.29 5.29 0 0 0-1.54-3.93c-1.72-1.78-4.72-2.69-8.89-2.69-12.35 0-15.64-7.21-15.64-11.47 0-1.45 0.43-14.3 15.53-14.3h0.08c0.62 0 15.5 0.18 15.5 15.25a2.85 2.85 0 0 1-5.69 0 9.77 9.77 0 0 0-2.23-6.85c-1.68-1.81-4.21-2.74-7.55-2.74-3.51 0-6.12 0.93-7.85 2.77a8.73 8.73 0 0 0-2.13 6 4.57 4.57 0 0 0 1.43 3.06c1.67 1.67 4.53 2.53 8.52 2.53 9.87 0 16.26 4.87 16.26 12.4m140.6-12.4c-4 0-6.82-0.86-8.52-2.53a4.63 4.63 0 0 1-1.4-3.06 8.46 8.46 0 0 1 2.1-6c1.73-1.84 4.37-2.77 7.84-2.77s5.88 0.93 7.55 2.74a10 10 0 0 1 2.27 6.85 2.83 2.83 0 0 0 5.66 0c0-15.07-14.86-15.25-15.5-15.25h-0.07c-15.12 0-15.55 12.85-15.55 14.3 0 4.26 3.29 11.47 15.63 11.47 4.19 0 7.18 0.91 8.9 2.69a5.48 5.48 0 0 1 1.57 3.93 7.81 7.81 0 0 1-2.11 5.56c-1.75 1.82-4.53 2.75-8.25 2.75-3.37 0-5.93-0.94-7.66-2.79a8.92 8.92 0 0 1-2.29-6.19 2.87 2.87 0 0 0-5.74 0 13.9 13.9 0 0 0 3.94 10.15 16 16 0 0 0 11.56 4.63c12 0 16.28-7.55 16.28-14 0-7.53-6.36-12.4-16.25-12.4m-35.82-13.28h11.27a3 3 0 0 0 3-2.94 2.92 2.92 0 0 0-2.48-2.89l-10.38-0.05c-4.15 0-8.46 0.43-11.67 3.39-3 2.78-4.42 7-4.42 12.73v12.39c0 5.78 1.42 9.93 4.42 12.72 3.29 3.07 7.71 3.47 11.62 3.47h10.38a2.92 2.92 0 0 0-0.06-5.8h-10.4c-6 0-10-4.14-10-10.3v-3.21h15.71a2.94 2.94 0 1 0 0-5.87h-15.71v-3.32c0-5.68 3.45-9.7 8.76-10.21m-84.09 0h11.23a3 3 0 0 0 3-2.94 2.94 2.94 0 0 0-2.48-2.89l-10.38-0.05c-4.18 0-8.5 0.43-11.7 3.39-3 2.78-4.42 7-4.42 12.73v12.39c0 5.78 1.45 10 4.42 12.72 3.29 3.07 7.73 3.47 11.64 3.47h10.4a2.92 2.92 0 0 0-0.05-5.8h-10.43c-6 0-10-4.14-10-10.3v-3.21h15.68a2.94 2.94 0 1 0 0-5.87h-15.68v-3.32c0-5.68 3.44-9.7 8.73-10.21m60.47-5.88a3 3 0 0 0-2.94 3v38.46a2.93 2.93 0 1 0 5.85 0v-38.7a3 3 0 0 0-2.94-3m-12.26 40.19a2.93 2.93 0 0 1 0.32 2.22 3.05 3.05 0 0 1-1.4 1.82 3 3 0 0 1-4-1.1l-7.71-12.59h-9.3v11.28a2.91 2.91 0 0 1-5.82 0v-27c0-9.27 6.44-15.73 15.63-15.73a15.68 15.68 0 0 1 5.75 30.27zm-12.3-15.42a10 10 0 1 0 0-19.95c-5.85 0-9.76 4-9.76 10v9.92z" fill="#fff"/>
      <path class="cls-4" d="m45.43 33a25 25 0 0 0-20.11 10v-24.41a2.38 2.38 0 0 0-4.75 0v40a24.56 24.56 0 0 0 24.86 24.18c14.86 0 24.86-13 24.86-25.06 0-15.29-12.92-24.71-24.86-24.71m-0.08 44.84a20.1 20.1 0 1 1 20-20.1 20.05 20.05 0 0 1-20 20.1m77.65-19.97a2.32 2.32 0 0 1-2.46 2.42h-25.93a2.47 2.47 0 0 1 0-4.94h23.39a20 20 0 1 0-2.77 12.94 2.45 2.45 0 0 1 1.56-1.05 2.36 2.36 0 0 1 1.83 0.37 2.45 2.45 0 0 1 0.71 3.35 24.94 24.94 0 1 1 3.67-13.09m13.94 20.88a4.81 4.81 0 0 1-4.77 4 4.71 4.71 0 0 1-4.77-4v-41.62a4.74 4.74 0 0 1 4.77-4.05 4.84 4.84 0 0 1 4.77 4zm63.25 2.69a17.36 17.36 0 0 1-6.52 1.33 15.4 15.4 0 0 1-12.35-6.36c-1.78-2.72-18.5-29.12-19.23-30.31-0.05-0.08-1.86-3.83-5.44-3.61-6.2 0.54-5.88 5.74-5.88 5.93v30a4.58 4.58 0 0 1-4.69 4.34 4.59 4.59 0 0 1-4.77-3.83v-31.32c0-0.09 0.21-9.7 9.38-13.48 9.38-3.47 16.5 1.76 19 6.12l19.12 30.15a6 6 0 0 0 8 2 5.6 5.6 0 0 0 3-4.71v-30.69a4.79 4.79 0 0 1 4.72-4 4.69 4.69 0 0 1 4.71 4v30.69a14.63 14.63 0 0 1-9.16 13.75" fill="#0096dc"/>
     </g>
    </g>
   </g>
  </g>
 </g>
 <path class="cls-2" transform="translate(220.73 3.6944)" d="m0.07 84.836h83.91a21.91 21.91 0 0 0 22.42-21.52v-63.31h-84a21.91 21.91 0 0 0-22.4 21.51v63.32z" clip-path="url(#a)" fill="#0096dc"/>
 <path class="cls-2" d="m245.19 68.65h-8.4681v-44.88h8.4681zm24.205-44.88h-8.4237v18h-12.45v7.965h12.45v18.915h8.4237zm22.355 44.88c12.125 0 19.971-8.73 19.971-22.5s-7.6539-22.5-19.971-22.5h-15.767v45h8.4237v-36.93h7.4022c9.4896 0 11.547 7.83 11.547 14.43 0 5.43-1.4804 14.55-11.547 14.55h-3.9824v7.95h3.9824" clip-path="url(#a)" fill="#fff" stroke-width="1.4902"/>
 <path class="cls-2" transform="translate(47.7 177.68)" d="m8.3 22.33h-8.3v-22.17h8.3c7 0 11.78 4.78 11.78 11s-4.84 11.17-11.78 11.17zm0-18.62h-4.4v15.07h4.4c4.66 0 7.7-3.13 7.7-7.5a7.28 7.28 0 0 0-7.7-7.57z" clip-path="url(#a)" fill="#0096dc"/>
 <path class="cls-2" transform="translate(47.7 177.68)" d="m39.01 22.33-5.45-7.73h-4.88v7.73h-3.9v-22.17h9.89c5.1 0 8.23 2.69 8.23 7a6.64 6.64 0 0 1-5.29 6.75l6 8.39zm-4.66-18.62h-5.67v7.44h5.7c2.79 0 4.56-1.46 4.56-3.74 0-2.44-1.71-3.7-4.59-3.7z" clip-path="url(#a)" fill="#0096dc"/>
 <path class="cls-2" transform="translate(47.7 177.68)" d="m68.92 22.33h-4.12l-2.25-5.35h-10.48l-2.28 5.35h-4l9.75-22.33h3.61zm-11.62-17.67-3.8 8.87h7.63z" clip-path="url(#a)" fill="#0096dc"/>
 <path class="cls-2" transform="translate(47.7 177.68)" d="m83.63 16.88h-0.13l-6.94-10.39v15.84h-3.83v-22.17h4.15l6.75 10.48 6.74-10.48h4.15v22.17h-3.89v-15.9z" clip-path="url(#a)" fill="#0096dc"/>
 <path class="cls-2" transform="translate(47.7 177.68)" d="m121.46 22.33h-4.16l-2.25-5.35h-10.44l-2.31 5.35h-4l9.75-22.33h3.61zm-11.62-17.67-3.8 8.87h7.63z" clip-path="url(#a)" fill="#0096dc"/>
</svg>
