<svg width="600" height="337.8" version="1.1" viewBox="0 0 158.75 89.375313" xmlns="http://www.w3.org/2000/svg">
 <g transform="translate(-154.24 453)">
  <path class="cls-1" d="m259.6-424.41h53.385v4.8468a10.993 10.993 0 0 1 -11.239 10.794h-42.146zm53.373-26.927h-42.146a10.993 10.993 0 0 0 -11.227 10.782v15.055h53.385v-25.85z" fill="#5d2e8f"/>
  <g fill="#fff">
   <path class="cls-2" d="m266.34-430.58h-2.88v-15.032h2.88zm8.195-15.02h-2.8566v6.0175h-4.2146v2.6575h4.2146v6.3453h2.8566zm7.5746 15.02c4.1092 0 6.7785-2.9268 6.7785-7.516s-2.599-7.516-6.7785-7.516h-5.3502v15.032h2.8566v-12.363h2.4936c3.2195 0 3.9102 2.6224 3.9102 4.8234 0 1.8146-0.51511 4.8702-3.9102 4.8702h-1.3463v2.6692h1.3463"/>
   <path class="cls-2" d="m299.9-443.12v12.538h-2.7278v-12.269h-3.3834l1.0537-2.7512h3.0205c1.2527-0.0117 2.0371 0.94829 2.0371 2.4819zm5.6312-2.4936h-3.0205l-1.0536 2.7512h3.3951v12.281h2.7512v-12.538c0-1.5336-0.81949-2.4936-2.0722-2.4936z"/>
   <path class="cls-2" d="m270.62-413.31a0.4917 0.4917 0 0 1 -0.44487 0.49171h-1.8029a2.4468 2.4468 0 0 1 -2.798 -2.8214v-1.9083a2.4351 2.4351 0 0 1 2.8097 -2.8097h1.7561a0.4917 0.4917 0 0 1 0.44487 0.49169 0.50341 0.50341 0 0 1 -0.50341 0.49171h-1.9434a1.6975 1.6975 0 0 0 -1.5102 1.8263v0.47999h2.7746a0.49756 0.49756 0 1 1 0 0.99511h-2.7746v0.44487a1.7093 1.7093 0 0 0 1.7795 1.8263h1.7327a0.50341 0.50341 0 0 1 0.47999 0.4917zm23.496-7.0242a0.4917 0.4917 0 0 0 -0.48 0.49169v6.6263a0.48 0.48 0 1 0 0.95999 0v-6.6731a0.4917 0.4917 0 0 0 -0.47999 -0.5034zm12.41 0a0.4917 0.4917 0 0 0 -0.48 0.49169v2.8097h-3.1258v-2.8097a0.48 0.48 0 1 0 -0.95998 0v6.6263a0.48 0.48 0 1 0 0.95998 0v-2.9034h3.0556v2.8566a0.48585 0.48585 0 1 0 0.9717 0v-6.6263a0.4917 0.4917 0 0 0 -0.43317 -0.5034zm-13.815 7.0242a0.50341 0.50341 0 0 0 -0.50341 -0.4917h-1.9785a1.6975 1.6975 0 0 1 -1.5571 -1.8146v-4.238a0.49756 0.49756 0 1 0 -0.99511 0v4.2263a2.4234 2.4234 0 0 0 2.8097 2.8097h1.7561a0.4917 0.4917 0 0 0 0.45658 -0.49171zm-6.2634-0.57364a3.7814 3.7814 0 0 1 -2.7044 1.1707h-0.10536a3.7931 3.7931 0 0 1 -2.7395 -1.2644 3.8634 3.8634 0 0 1 0 -5.1044 3.7931 3.7931 0 0 1 2.7395 -1.2761h0.10536a3.8048 3.8048 0 0 1 2.7044 1.1707 0.4917 0.4917 0 0 1 0 0.67901 0.46829 0.46829 0 0 1 -0.33951 0.14049 0.50341 0.50341 0 0 1 -0.33951 -0.14049 2.8331 2.8331 0 0 0 -2.0254 -0.84291h-0.0702a2.8331 2.8331 0 0 0 -2.0488 0.93657 2.8566 2.8566 0 0 0 3.9688 4.0507v-0.8078h-1.6858a0.48585 0.48585 0 1 1 0 -0.97169h2.0722a0.58536 0.58536 0 0 1 0.40976 0.17561 0.59707 0.59707 0 0 1 0.17561 0.40975v1.3346a0.4917 0.4917 0 0 1 -0.12878 0.33951zm-7.4575-6.0058a0.51512 0.51512 0 0 0 -0.5034 -0.52682 0.51512 0.51512 0 0 0 -0.51512 0.52682v5.4556a0.55024 0.55024 0 0 1 -0.9834 0.29268c-0.0936-0.1639-0.53853-1.2995-0.9717-2.4-0.53852-1.3815-1.1005-2.8097-1.2292-3.0322a1.6039 1.6039 0 0 0 -1.4166 -0.84292 1.9668 1.9668 0 0 0 -0.63219 0.11708 1.6156 1.6156 0 0 0 -1.0302 1.4517v5.5375a0.51512 0.51512 0 1 0 1.0302 0v-5.4439a0.60878 0.60878 0 0 1 0.40975 -0.50341 0.58536 0.58536 0 0 1 0.58536 0.18732c0.0937 0.1639 0.53853 1.2995 0.97169 2.4 0.53854 1.3814 1.1005 2.8097 1.2293 3.0322a1.6039 1.6039 0 0 0 1.4166 0.84292 1.8732 1.8732 0 0 0 0.63219 -0.11707 1.5922 1.5922 0 0 0 1.0185 -1.4517zm21.951 4.8234a2.3414 2.3414 0 0 1 -2.681 2.3414 2.6458 2.6458 0 0 1 -1.92 -0.76097 2.3414 2.3414 0 0 1 -0.64389 -1.6741 0.47414 0.47414 0 0 1 0.94828 0 1.4634 1.4634 0 0 0 0.37463 1.0185 1.6624 1.6624 0 0 0 1.2644 0.45657 1.8263 1.8263 0 0 0 1.358 -0.45657 1.2878 1.2878 0 0 0 0.33951 -0.91317 0.90145 0.90145 0 0 0 -0.25756 -0.64388 2.0019 2.0019 0 0 0 -1.4634 -0.44488c-2.0371 0-2.5756-1.1707-2.5756-1.8849a2.3414 2.3414 0 0 1 2.5639 -2.3414 2.4585 2.4585 0 0 1 2.5522 2.4936 0.46829 0.46829 0 0 1 -0.93657 0 1.6507 1.6507 0 0 0 -0.37463 -1.1707 1.6039 1.6039 0 0 0 -1.241 -0.45658 1.6858 1.6858 0 0 0 -1.2878 0.45658 1.4283 1.4283 0 0 0 -0.35121 0.9834 0.76097 0.76097 0 0 0 0.23414 0.50341 1.9317 1.9317 0 0 0 1.4049 0.42146c1.6273 0.0234 2.681 0.8312 2.681 2.0605z"/>
   <path class="cls-2" d="m154.24-453v89.372h78.718a24.585 24.585 0 0 0 18.029 -7.5042 23.719 23.719 0 0 0 6.6146 -16.156v-65.713z"/>
  </g>
  <path class="cls-1" d="m154.24-453v89.372h78.718a24.585 24.585 0 0 0 18.029 -7.4926 23.719 23.719 0 0 0 6.6146 -16.156v-65.724zm102.18 1.1707v43.071h-101.01v-43.071z" fill="#5d2e8f"/>
  <path class="cls-1" d="m174.54-438.26a11.18 11.18 0 0 0 -8.9911 4.4839v-10.923a1.0537 1.0537 0 0 0 -2.1073 0v17.889a10.97 10.97 0 0 0 11.098 10.806 11.309 11.309 0 0 0 11.11 -11.239 11.098 11.098 0 0 0 -11.11 -11.016zm0 20.031a8.9793 8.9793 0 1 1 8.8974 -9.0145 8.9676 8.9676 0 0 1 -8.9208 9.0145zm34.689-8.9091a1.0302 1.0302 0 0 1 -1.1356 1.0654h-11.578a1.1005 1.1005 0 0 1 0 -2.1892h10.408a8.9442 8.9442 0 1 0 -1.1707 5.7834 1.0771 1.0771 0 0 1 0.70242 -0.46829 1.0654 1.0654 0 0 1 0.81951 0.1639 1.0888 1.0888 0 0 1 0.31608 1.4985 11.134 11.134 0 1 1 1.6624 -5.8536zm6.2165 9.3657a2.1424 2.1424 0 0 1 -2.1307 1.7912 2.119 2.119 0 0 1 -2.1307 -1.7912v-18.638a2.119 2.119 0 0 1 2.1307 -1.8029 2.1424 2.1424 0 0 1 2.1307 1.7912zm28.261 1.1707a7.6799 7.6799 0 0 1 -2.9034 0.59707 6.9073 6.9073 0 0 1 -5.5258 -2.8566c-0.79609-1.1707-8.2652-13.007-8.5814-13.534a2.8214 2.8214 0 0 0 -2.4351 -1.6273 2.5405 2.5405 0 0 0 -2.6224 2.6575v13.405a2.0488 2.0488 0 0 1 -2.0956 1.9434 2.0722 2.0722 0 0 1 -2.1424 -1.7092v-14.049a6.8604 6.8604 0 0 1 12.691 -3.2897l8.5462 13.475a2.6692 2.6692 0 0 0 3.5824 0.91317 2.5171 2.5171 0 0 0 1.3698 -2.1073v-13.674a2.1307 2.1307 0 0 1 2.1073 -1.8029 2.1073 2.1073 0 0 1 2.1073 1.7795v13.733a6.5326 6.5326 0 0 1 -4.1326 6.1346z" fill="#5d2e8f"/>
  <path class="cls-2" d="m169.28-388.67a4.3902 4.3902 0 0 1 -3.1844 -0.94828 1.6975 1.6975 0 0 1 -0.53853 -1.1707 3.2546 3.2546 0 0 1 0.79608 -2.2244 3.8283 3.8283 0 0 1 2.9268 -1.0302 3.6644 3.6644 0 0 1 2.8214 1.0302 3.6878 3.6878 0 0 1 0.86633 2.5639 1.0595 1.0595 0 0 0 2.119 0c0-5.6195-5.5492-5.6897-5.7834-5.6897-5.6429 0-5.8536 4.7883-5.8536 5.3385 0 1.5922 1.2293 4.2848 5.8536 4.2848a4.5307 4.5307 0 0 1 3.3249 1.0068 2.0136 2.0136 0 0 1 0.57365 1.4634 2.9268 2.9268 0 0 1 -0.77267 2.0722 4.1561 4.1561 0 0 1 -3.0907 1.0302 3.7697 3.7697 0 0 1 -2.8566 -1.0419 3.3131 3.3131 0 0 1 -0.85462 -2.3414 1.0771 1.0771 0 0 0 -2.1424 0 5.198 5.198 0 0 0 1.4634 3.7931 6.0058 6.0058 0 0 0 4.3551 1.721c4.4487 0.0234 6.0058-2.7746 6.0058-5.2331 0-2.8097-2.3414-4.6244-6.0292-4.6244zm72.433 0a4.3902 4.3902 0 0 1 -3.1844 -0.94828 1.7093 1.7093 0 0 1 -0.52682 -1.1707 3.2312 3.2312 0 0 1 0.79609 -2.2244 3.8283 3.8283 0 0 1 2.9268 -1.0302 3.2546 3.2546 0 0 1 3.6526 3.5824 1.0595 1.0595 0 0 0 2.119 0c0-5.6195-5.5492-5.6897-5.7834-5.6897-5.6429 0-5.8536 4.7882-5.8536 5.3385 0 1.5922 1.2292 4.2848 5.8536 4.2848a4.5307 4.5307 0 0 1 3.3131 1.0068 2.0136 2.0136 0 0 1 0.58536 1.4634 2.9268 2.9268 0 0 1 -0.77267 2.0722 4.1444 4.1444 0 0 1 -3.0907 1.0302 3.7814 3.7814 0 0 1 -2.8566 -1.042 3.3131 3.3131 0 0 1 -0.84292 -2.3414 1.0771 1.0771 0 0 0 -2.1424 0 5.198 5.198 0 0 0 1.4517 3.8283 6.0058 6.0058 0 0 0 4.3551 1.721c4.4839 0 6.076-2.8331 6.076-5.2565-0.0117-2.8097-2.4-4.6244-6.0878-4.6244zm-58.337-7.4692a5.5726 5.5726 0 0 0 -5.8536 5.8536v10.103a1.0829 1.0829 0 1 0 2.1658 0v-4.2966h3.6292a5.8536 5.8536 0 0 0 0 -11.707zm0 9.5179h-3.6292v-3.6878a3.5122 3.5122 0 0 1 3.6175 -3.7229 3.7053 3.7053 0 1 1 0 7.4106zm16.168-9.5179a8.675 8.675 0 1 0 8.6634 8.6984 8.6867 8.6867 0 0 0 -8.6634 -8.6984zm0 15.219a6.5678 6.5678 0 1 1 6.556 -6.5209 6.5795 6.5795 0 0 1 -6.556 6.5443zm18.334-3.9336a5.8536 5.8536 0 0 0 -2.1424 -11.297 5.5961 5.5961 0 0 0 -5.8536 5.8536v10.068a1.0888 1.0888 0 0 0 2.1775 0v-4.2146h3.5122l2.88 4.6829a1.1014 1.1014 0 1 0 1.9083 -1.1005zm-5.8536-1.7327v-3.6878a3.5122 3.5122 0 0 1 3.641 -3.7463 3.7288 3.7288 0 1 1 0 7.4574zm22.595-8.195a1.0888 1.0888 0 0 1 -1.0771 1.0888h-3.7229v13.487a1.0888 1.0888 0 0 1 -2.1776 0v-13.416h-3.7697a1.0888 1.0888 0 0 1 0 -2.1776h9.7169a1.0888 1.0888 0 0 1 1.0771 1.0888z" fill="#fff"/>
 </g>
</svg>
