<svg version="1.1" viewBox="0 0 739.02 175" xml:space="preserve" xmlns="http://www.w3.org/2000/svg">
<style type="text/css">
	.st0{fill:url(#i);}
	.st1{fill:url(#h);}
	.st2{opacity:0.25;fill:url(#g);}
	.st3{opacity:0.25;fill:url(#f);}
	.st4{fill:url(#e);}
	.st5{fill:url(#d);}
	.st6{fill:url(#c);}
	.st7{fill:url(#b);}
	.st8{opacity:0.5;fill:url(#a);}
	.st9{fill:url(#SVGID_10_);}
	.st10{fill:url(#SVGID_11_);}
	.st11{fill:url(#l);}
	.st12{opacity:0.5;fill:url(#k);}
	.st13{fill:url(#j);}
</style>
<g transform="scale(5.9122)">
	<linearGradient id="i" x1="83.43" x2="83.43" y1="15.429" y2="2.4205" gradientUnits="userSpaceOnUse">
		<stop stop-color="#25255A" offset="0"/>
		<stop stop-color="#5C2D91" offset=".75"/>
		<stop stop-color="#7F529E" offset="1"/>
	</linearGradient>
	<path class="st0" d="m124.8 0.2h-77.9v13.6c0 2.3-1.8 4.6-4.8 4.6h77.9c3 0 4.8-2.4 4.8-4.6z" fill="url(#i)"/>
	
		
			<linearGradient id="h" x1="75.855" x2="75.855" y1="4.3857" y2="14.206" gradientUnits="userSpaceOnUse">
				<stop stop-color="#fff" offset="0"/>
				<stop stop-color="#FCFCFC" offset=".2776"/>
				<stop stop-color="#F2F2F2" offset=".5005"/>
				<stop stop-color="#E1E1E2" offset=".7044"/>
				<stop stop-color="#C9C9CB" offset=".8959"/>
				<stop stop-color="#B9B9BB" offset="1"/>
			</linearGradient>
			<path class="st1" d="m55.3 8.6c-0.8 0-1.4-0.2-1.8-0.5-0.3-0.3-0.3-0.6-0.3-0.6s0-0.7 0.5-1.3c0.4-0.4 0.9-0.6 1.7-0.6 0.7 0 1.2 0.2 1.6 0.6 0.5 0.6 0.5 1.4 0.5 1.4 0 0.3 0.3 0.6 0.6 0.6s0.6-0.3 0.6-0.6c0-3.2-3.1-3.2-3.3-3.2-3.2 0-3.3 2.7-3.3 3 0 0.9 0.7 2.4 3.3 2.4 0.9 0 1.5 0.2 1.9 0.6 0.3 0.3 0.3 0.7 0.3 0.8 0 0.2 0 0.7-0.4 1.2-0.4 0.4-1 0.6-1.7 0.6s-1.3-0.2-1.6-0.6c-0.4-0.4-0.5-1-0.5-1.3s-0.3-0.6-0.6-0.6-0.6 0.3-0.6 0.6c0 0.8 0.3 1.6 0.8 2.1 0.6 0.6 1.5 1 2.5 1 2.5 0 3.4-1.6 3.4-3-0.2-1.6-1.5-2.6-3.6-2.6zm41 0c-0.8 0-1.4-0.2-1.8-0.5-0.3-0.3-0.3-0.6-0.3-0.6s0-0.7 0.5-1.3c0.4-0.4 0.9-0.6 1.7-0.6 0.7 0 1.2 0.2 1.6 0.6 0.5 0.6 0.5 1.4 0.5 1.4 0 0.3 0.3 0.6 0.6 0.6s0.6-0.3 0.6-0.6c0-3.2-3.1-3.2-3.3-3.2-3.2 0-3.3 2.7-3.3 3 0 0.9 0.7 2.4 3.3 2.4 0.9 0 1.5 0.2 1.9 0.6 0.3 0.3 0.3 0.7 0.3 0.8 0 0.2 0 0.7-0.4 1.2-0.4 0.4-1 0.6-1.7 0.6s-1.3-0.2-1.6-0.6c-0.4-0.4-0.5-1-0.5-1.3s-0.3-0.6-0.6-0.6-0.6 0.3-0.6 0.6c0 0.8 0.3 1.6 0.8 2.1 0.6 0.6 1.5 1 2.5 1 2.5 0 3.4-1.6 3.4-3-0.2-1.6-1.5-2.6-3.6-2.6zm-33-4.2c-1.9 0-3.3 1.4-3.3 3.3v5.7c0 0.3 0.3 0.6 0.6 0.6s0.6-0.3 0.6-0.6v-2.4h2.1c1.8 0 3.3-1.5 3.3-3.3s-1.5-3.3-3.3-3.3zm0 5.4h-2v-2.1c0-1.3 0.8-2.1 2-2.1s2.1 0.9 2.1 2.1c0 1.1-1 2.1-2.1 2.1zm9.1-5.4c-2.7 0-4.9 2.2-4.9 4.9s2.2 4.9 4.9 4.9 4.9-2.2 4.9-4.9-2.2-4.9-4.9-4.9zm0 8.6c-2.1 0-3.7-1.7-3.7-3.7 0-2.1 1.7-3.7 3.7-3.7s3.7 1.7 3.7 3.7-1.6 3.7-3.7 3.7zm10.4-2.2c1.3-0.5 2.1-1.7 2.1-3.1 0-1.8-1.5-3.3-3.3-3.3-1.9 0-3.3 1.4-3.3 3.3v5.7c0 0.3 0.3 0.6 0.6 0.6s0.6-0.3 0.6-0.6v-2.4h2l1.6 2.7c0.1 0.1 0.2 0.2 0.4 0.3 0.2 0 0.3 0 0.5-0.1 0.1-0.1 0.2-0.2 0.3-0.4 0-0.2 0-0.3-0.1-0.5zm-3.3-1v-2.1c0-1.3 0.8-2.1 2.1-2.1 1.2 0 2.1 0.9 2.1 2.1s-0.9 2.1-2.1 2.1zm12.8-4.6c0 0.3-0.3 0.6-0.6 0.6h-2.1v7.6c0 0.3-0.3 0.6-0.6 0.6s-0.6-0.3-0.6-0.6v-7.6h-2.1c-0.3 0-0.6-0.3-0.6-0.6s0.3-0.6 0.6-0.6h5.5c0.2 0 0.5 0.3 0.5 0.6z" fill="url(#h)"/>
		
	
	
		<linearGradient id="g" x1="9412.9" x2="9339.8" y1="9.2962" y2="9.2962" gradientTransform="matrix(-1 0 0 1 9442.2 0)" gradientUnits="userSpaceOnUse">
		<stop stop-color="#211F1F" offset="0"/>
		<stop stop-color="#211F1F" stop-opacity="0" offset=".3"/>
		<stop stop-color="#211F1F" stop-opacity="0" offset="1"/>
	</linearGradient>
	<path class="st2" d="m51.9 0.2v18.2h-10.1v-18.2z" fill="url(#g)" opacity=".25"/>
	
		<linearGradient id="f" x1="-2480.9" x2="-2554" y1="9.2962" y2="9.2962" gradientTransform="translate(2603.3)" gradientUnits="userSpaceOnUse">
		<stop stop-color="#211F1F" offset="0"/>
		<stop stop-color="#211F1F" stop-opacity="0" offset=".3"/>
		<stop stop-color="#211F1F" stop-opacity="0" offset="1"/>
	</linearGradient>
	<path class="st3" d="m99.8 0.2h10v18.2h-10z" fill="url(#f)" opacity=".25"/>
	<linearGradient id="e" x1="23.524" x2="23.524" y1="-.066303" y2="18.3" gradientUnits="userSpaceOnUse">
		<stop stop-color="#fff" offset="0"/>
		<stop stop-color="#B9B9BB" offset="1"/>
	</linearGradient>
	<path class="st4" d="m0.2 0.2v13.5c0 2.3 1.8 4.8 4.8 4.8h37.1c3 0 4.8-2.4 4.8-4.6v-13.7z" fill="url(#e)"/>
	
		<linearGradient id="d" x1="11984" x2="11984" y1="-1254.2" y2="-1267.3" gradientTransform="rotate(180 6049.6 -625.54)" gradientUnits="userSpaceOnUse">
		<stop stop-color="#fff" offset="0"/>
		<stop stop-color="#BABABC" offset="1"/>
	</linearGradient>
	<path class="st5" d="m124.8 0.2h-15.2c-3 0-4.8 2.4-4.8 4.6v13.6h15.2c3 0 4.8-2.4 4.8-4.6z" fill="url(#d)"/>
	
		
			<linearGradient id="c" x1="114.78" x2="114.78" y1="15.105" y2="3.4834" gradientUnits="userSpaceOnUse">
				<stop stop-color="#25255A" offset="0"/>
				<stop stop-color="#5C2D91" offset=".75"/>
				<stop stop-color="#7F529E" offset="1"/>
			</linearGradient>
			<path class="st6" d="m112.4 5.6v9.2h-2v-9h-2.5l0.8-2h2.2c0.9 0 1.5 0.7 1.5 1.8zm9.2 1.7v4c0 2.1-1.7 3.8-3.8 3.8s-3.8-1.7-3.8-3.8v-4c0-2.1 1.7-3.8 3.8-3.8s3.8 1.7 3.8 3.8zm-1.9 0c0-1.1-0.9-1.9-1.9-1.9-1.1 0-1.9 0.9-1.9 1.9v4c0 1.1 0.9 1.9 1.9 1.9 1.1 0 1.9-0.9 1.9-1.9z" fill="url(#c)"/>
		
	
	
		
			<linearGradient id="b" x1="23.334" x2="23.334" y1="14.206" y2="1.3027" gradientUnits="userSpaceOnUse">
				<stop stop-color="#25255A" offset="0"/>
				<stop stop-color="#5C2D91" offset=".75"/>
				<stop stop-color="#7F529E" offset="1"/>
			</linearGradient>
			<path class="st7" d="m9.9 4.5c-2.2 0-3.5 1.4-3.9 2v-4.7c0-0.3-0.2-0.5-0.5-0.5s-0.5 0.2-0.5 0.5v7.8c0 2.3 1.8 4.7 4.8 4.7 2.9 0 4.8-2.5 4.8-4.9 0.1-3-2.4-4.9-4.7-4.9zm-0.1 8.7c-2.1 0-3.8-1.7-3.8-3.9 0-2.1 1.7-3.9 3.9-3.9 2.1 0 3.9 1.7 3.9 3.9-0.1 2.2-1.8 3.9-4 3.9zm15.1-3.8c0 0.2-0.1 0.5-0.5 0.5h-5c-0.3 0-0.5-0.2-0.5-0.5s0.2-0.5 0.5-0.5h4.5c-0.2-1.9-1.9-3.4-3.9-3.4-2.1 0-3.9 1.7-3.9 3.9 0 2.1 1.7 3.9 3.9 3.9 1.4 0 2.6-0.7 3.3-1.9 0.1-0.1 0.2-0.2 0.3-0.2s0.2 0 0.4 0.1 0.3 0.4 0.1 0.7c-0.9 1.4-2.4 2.3-4.1 2.3-2.7 0-4.8-2.2-4.8-4.8 0-2.7 2.2-4.8 4.8-4.8 2.7-0.1 4.9 2 4.9 4.7zm2.7 4c0 0.4-0.4 0.8-0.9 0.8s-0.9-0.4-0.9-0.8v-8c0-0.4 0.4-0.8 0.9-0.8s0.9 0.4 0.9 0.8zm12.2 0.5c-0.5 0.2-0.9 0.3-1.3 0.3-1.3 0-2.1-0.8-2.4-1.2-0.3-0.5-3.6-5.6-3.7-5.9 0 0-0.4-0.7-1.1-0.7-1.2 0.1-1.1 1.1-1.1 1.2v5.8c0 0.5-0.4 0.8-0.9 0.8s-0.9-0.4-0.9-0.7v-6.1s0-1.9 1.8-2.6 3.2 0.3 3.7 1.2l3.7 5.8s0.5 0.9 1.6 0.4c0.5-0.2 0.6-0.7 0.6-0.9v-6c0-0.4 0.4-0.8 0.9-0.8s0.9 0.4 0.9 0.8v6s0.1 1.9-1.8 2.6z" fill="url(#b)"/>
		
	
	<g fill="url(#a)">
		<linearGradient id="a" x1="62.484" x2="62.484" y1="5.3716" y2="13.221" gradientUnits="userSpaceOnUse">
			<stop stop-color="#E2E2E1" stop-opacity="0" offset="0"/>
			<stop stop-color="#fff" stop-opacity=".25" offset=".5"/>
			<stop stop-color="#E2E2E1" stop-opacity="0" offset="1"/>
		</linearGradient>
		<path class="st8" d="m0.2 5.4h124.6v7.8h-124.6z" opacity=".5"/>
		
		<path class="st9" d="m0.2 5.4h124.6v7.8h-124.6z"/>
		
		<path class="st10" d="m0.2 5.4h124.6v7.8h-124.6z"/>
	</g>
	<linearGradient id="l" x1="62.483" x2="62.483" y2="18.579" gradientUnits="userSpaceOnUse">
		<stop stop-color="#D1D3D4" offset="0"/>
		<stop stop-color="#CDCED0" offset=".039931"/>
		<stop stop-color="#C2C3C4" offset=".192"/>
		<stop stop-color="#BCBCBE" offset=".4058"/>
		<stop stop-color="#BABABC" offset="1"/>
	</linearGradient>
	<path class="st11" d="m0 0v13.8c0 2.3 1.9 4.8 4.9 4.8h115.2c1.4 0 2.7-0.5 3.6-1.5 0.8-0.9 1.3-2 1.3-3.2v-13.9zm119.8 18.2h-114.6c-1.4 0-2.6-0.5-3.5-1.5-0.8-0.9-1.3-2.1-1.3-3.2v-13.2h124.3v13.3c0 1.1-0.5 2.3-1.3 3.1-1 1-2.2 1.5-3.6 1.5z" fill="url(#l)"/>
	<linearGradient id="k" x1="62.483" x2="62.483" y1="19.268" y2="12.527" gradientUnits="userSpaceOnUse">
		<stop stop-color="#211F1F" offset="0"/>
		<stop stop-color="#211F1F" stop-opacity="0" offset=".3"/>
		<stop stop-color="#211F1F" stop-opacity="0" offset="1"/>
	</linearGradient>
	<path class="st12" d="m120.1 16.7h-115.2c-3 0-4.9-2.5-4.9-4.8v1.9c0 2.3 1.9 4.8 4.9 4.8h115.2c1.4 0 2.7-0.5 3.6-1.5 0.8-0.9 1.3-2 1.3-3.2v-1.9c0 1.2-0.5 2.3-1.3 3.2-1 1-2.2 1.5-3.6 1.5z" fill="url(#k)"/>


	
		<linearGradient id="j" x1="90.771" x2="90.771" y1="28.737" y2="24.342" gradientUnits="userSpaceOnUse">
			<stop stop-color="#25255A" offset="0"/>
			<stop stop-color="#5C2D91" offset=".75"/>
			<stop stop-color="#7F529E" offset="1"/>
		</linearGradient>
		<path class="st13" d="m93.7 24c-0.4-0.4-0.9-0.6-1.5-0.6s-1.2 0.2-1.5 0.6c-0.4 0.4-0.6 0.9-0.6 1.5v3.7c0 0.2 0.2 0.4 0.4 0.4s0.4-0.2 0.4-0.4v-1.5h2.7v1.5c0 0.2 0.2 0.4 0.4 0.4s0.4-0.2 0.4-0.4v-3.7c-0.1-0.6-0.3-1.1-0.7-1.5zm-0.2 3h-2.7v-1.5c0-1.2 0.9-1.4 1.4-1.4s1.4 0.2 1.4 1.4v1.5zm6.2 2-1.7-2.5 1.7-2.4c0-0.1 0.1-0.1 0.1-0.2 0-0.2-0.2-0.4-0.4-0.4-0.1 0-0.2 0.1-0.3 0.2l-1.5 2.2-1.5-2.2c-0.1-0.1-0.2-0.2-0.3-0.2-0.2 0-0.4 0.2-0.4 0.4 0 0.1 0 0.2 0.1 0.2l1.7 2.4-2 2.5c0 0.1-0.1 0.1-0.1 0.2 0 0.2 0.2 0.4 0.4 0.4 0.1 0 0.2-0.1 0.3-0.2l1.6-2.3 1.6 2.3c0.1 0.1 0.2 0.2 0.3 0.2 0.2 0 0.4-0.2 0.4-0.4v-0.2zm-11.3-5.3c-0.2-0.1-0.5-0.1-0.6-0.1-0.4 0-0.9 0.2-1.1 0.7-0.2 0.4-1 2.3-1 2.4-0.1 0.2-0.1 0.2-0.2 0.2s-0.1 0-0.2-0.2c0-0.1-0.9-2.1-1-2.4-0.2-0.5-0.6-0.7-1.1-0.7-0.2 0-0.4 0-0.6 0.1-0.6 0.3-0.7 0.8-0.7 1.1v4.4c0 0.2 0.2 0.4 0.4 0.4s0.4-0.2 0.4-0.4v-4.4c0-0.2 0.1-0.4 0.3-0.5s0.4 0 0.5 0.3 0.6 1.4 0.8 2l0.1 0.2c0.1 0.4 0.3 0.8 1.1 0.8s1-0.5 1.1-0.8l0.1-0.2c0.2-0.6 0.7-1.7 0.8-2s0.4-0.3 0.5-0.3c0.2 0.1 0.3 0.3 0.3 0.5v4.4c0 0.2 0.2 0.4 0.4 0.4s0.4-0.2 0.4-0.4v-4.4c0-0.3-0.1-0.9-0.7-1.1z" fill="url(#j)"/>
	
</g>
</svg>
