<svg version="1.1" viewBox="0 0 800 827.84" xml:space="preserve" xmlns="http://www.w3.org/2000/svg">
<style type="text/css">
	.st0{fill:url(#d);}
	.st1{fill:url(#c);}
	.st2{fill:url(#b);}
	.st3{fill:url(#a);}
	.st4{fill:#FEFEFE;}
	.st5{fill-rule:evenodd;clip-rule:evenodd;fill:#FEFEFE;}
</style>
<g transform="scale(1.8557)">
	
		<linearGradient id="d" x1="75.548" x2="355.59" y1="771.68" y2="462.16" gradientTransform="translate(0 -393.89)" gradientUnits="userSpaceOnUse">
		<stop stop-color="#D7D7D7" offset="0"/>
		<stop stop-color="#323D39" offset=".5"/>
		<stop stop-color="#D7D7D7" offset="1"/>
	</linearGradient>
	<path class="st0" d="m37.1 0h356.9c20.4 0 37.1 16.7 37.1 37.1v371.9c0 20.4-16.7 37.1-37.1 37.1h-356.9c-20.4 0-37.1-16.7-37.1-37.1v-371.9c0-20.4 16.7-37.1 37.1-37.1z" fill="url(#d)"/>
	
		<linearGradient id="c" x1="215.6" x2="215.6" y1="728.09" y2="829.49" gradientTransform="translate(0 -393.89)" gradientUnits="userSpaceOnUse">
		<stop stop-color="#00511F" offset="0"/>
		<stop stop-color="#6AB23D" offset=".63"/>
		<stop stop-color="#199935" offset=".78"/>
		<stop stop-color="#1D842E" offset="1"/>
	</linearGradient>
	<path class="st1" d="m420.2 334.2v73.1c0 15.6-12.8 28.3-28.3 28.3h-352.6c-15.6 0-28.3-12.8-28.3-28.3v-73.1z" fill="url(#c)"/>
	
		<linearGradient id="b" x1="329.19" x2="103.08" y1="444.02" y2="704.92" gradientTransform="translate(0 -393.89)" gradientUnits="userSpaceOnUse">
		<stop stop-color="#F5A98F" offset="0"/>
		<stop stop-color="#E20613" offset=".66"/>
		<stop stop-color="#E20613" offset="1"/>
	</linearGradient>
	<path class="st2" d="m39.3 10.5h352.5c15.6 0 28.3 12.8 28.3 28.3v295.4h-409.1v-295.4c0-15.5 12.7-28.3 28.3-28.3z" fill="url(#b)"/>
	
		<linearGradient id="a" x1="419.19" x2="11.216" y1="634.75" y2="617.75" gradientTransform="translate(0 -393.89)" gradientUnits="userSpaceOnUse">
		<stop stop-color="#E00713" offset="0"/>
		<stop stop-color="#BD100F" offset="1"/>
	</linearGradient>
	<path class="st3" d="m420.2 252.6v81.6h-409.2v-219.4c17.1-0.6 37-0.1 60.2 1.6 132.5 9.6 255.5 62.8 349 136.2z" fill="url(#a)" Googl="true"/>
	<path class="st4" d="m25.8 357.8h37.9v8.5h-27.7v11.7h13.7c3.8 0 6.9 0.5 9.4 1.4s4.6 2.6 6.4 5.1 2.6 5.4 2.6 8.7c0 3.4-0.9 6.4-2.7 8.8s-3.8 4.1-6.1 5-5.5 1.3-9.7 1.3h-23.8zm10.2 42.1h10c3.2 0 5.4-0.2 6.7-0.5s2.4-1 3.4-2.1 1.4-2.5 1.4-4.1c0-2.3-0.8-4.1-2.5-5.1-1.7-1.1-4.5-1.6-8.6-1.6h-10.4zm40.5 8.5v-50.7h37.6v8.6h-27.4v11.2h25.4v8.5h-25.4v13.8h28.3v8.5h-38.5zm50.8-50.6h35.5v50.7h-10.2v-42.1h-15.2v21.6c0 6.2-0.2 10.5-0.6 13s-1.4 4.4-3 5.7c-1.6 1.4-4.1 2.1-7.5 2.1-1.2 0-3.4-0.1-6.5-0.3v-7.9h2.3c2.1 0 3.6-0.3 4.3-0.9s1.1-2 1.1-4.3v-37.6zm91.8 50.6h-11.1l-4.4-11.5h-20.3l-4.2 11.5h-10.9l19.7-50.7h10.8zm-18.9-20-7-18.8-6.8 18.8zm24.3 20v-50.7h16.4c6.2 0 10.3 0.3 12.2 0.8 2.9 0.8 5.3 2.4 7.3 5 2 2.5 2.9 5.8 2.9 9.9 0 3.1-0.6 5.7-1.7 7.8s-2.6 3.8-4.3 5-3.5 2-5.3 2.4c-2.4 0.5-6 0.7-10.6 0.7h-6.7v19.1zm10.3-42.1v14.4h5.6c4 0 6.7-0.3 8.1-0.8s2.4-1.4 3.2-2.5 1.2-2.4 1.2-3.9c0-1.8-0.5-3.4-1.6-4.6s-2.5-1.9-4.1-2.2c-1.2-0.2-3.7-0.3-7.4-0.3h-5zm30.9-8.5h11.4l11.8 26.3 10.1-26.3h10.7l-17.1 38.5c-1.9 4.2-3.8 7.3-5.7 9.5s-4.4 3.3-7.5 3.3c-3 0-5.4-0.2-7.1-0.6v-7.6c1.5 0.1 2.8 0.1 3.9 0.1 2.4 0 4.1-0.4 5.1-1.3s2-2.7 3-5.6zm81.6 32 9.9 3.1c-1.5 5.5-4 9.6-7.6 12.3-3.5 2.7-8 4-13.5 4-6.7 0-12.3-2.3-16.6-6.9s-6.5-10.9-6.5-18.9c0-8.4 2.2-15 6.5-19.7 4.4-4.7 10.1-7 17.2-7 6.2 0 11.2 1.8 15.1 5.5 2.3 2.2 4 5.3 5.2 9.3l-10.1 2.4c-0.6-2.6-1.8-4.7-3.8-6.2-1.9-1.5-4.2-2.3-6.9-2.3-3.8 0-6.8 1.3-9.1 4s-3.5 7.1-3.5 13.1c0 6.4 1.1 11 3.5 13.7 2.3 2.7 5.3 4.1 9 4.1 2.7 0 5.1-0.9 7-2.6 1.9-1.5 3.3-4.2 4.2-7.9zm18.9-32h10.2v20.2h13.7c6.5 0 11.1 1.5 14 4.5s4.3 6.6 4.3 10.9c0 3.5-0.9 6.4-2.6 8.8s-3.7 4.1-6 4.9c-2.2 0.9-5.5 1.3-9.7 1.3h-23.9zm10.2 42.1h10c3.2 0 5.5-0.2 6.7-0.5 1.3-0.3 2.4-1 3.3-2.1 1-1.1 1.5-2.5 1.5-4.1 0-2.3-0.8-4-2.5-5.1s-4.5-1.6-8.6-1.6h-10.4z"/>
</g>
<path class="st5" d="m398.05 87.404c43.609 0.37114 91.116-2.4124 131.01 18.372 27.093 10.949 48.991 31.176 59.197 57.898 6.3094 16.516 8.1652 32.661 6.3094 48.063-6.495 51.403-44.908 74.043-90.373 86.105 0.92786 0.18557 30.434 13.918 34.702 15.959 31.176 14.66 56.971 40.269 63.651 75.528 12.433 84.806-51.403 140.29-126.56 157.74-30.434 7.0517-122.11 6.495-149.94 0.74228-32.289-6.8662-75.899-23.753-94.085-42.31-27.093-27.65-38.042-68.29-35.815-106.33 51.218 0.37114 102.44-0.18557 153.65 0.37114 6.495 58.27 64.208 50.476 81.837 17.815 9.6497-34.702-5.7527-53.63-41.754-57.527-15.588-2.7836-31.547-2.598-47.321-1.8557 1.4846-28.021-0.18557-56.228 1.4846-84.25 12.99-0.55671 26.166-1.6701 39.156-2.9691 16.33-2.598 35.073-7.9796 42.496-24.495 6.1239-18.743 3.897-47.506-18.186-54.744-13.732-2.7836-28.578-4.8249-40.084 5.0104-11.134 9.6497-12.99 28.207-16.701 41.568-47.878-0.37114-95.755 0-143.82-0.18557-0.37114-10.763-0.55672-21.526-0.92786-32.289 5.196-104.48 110.6-118.77 192.07-118.21z" stroke-width="1.8557"/>
</svg>
