<svg width="174mm" height="211.76mm" version="1.1" viewBox="0 0 174 211.76" xml:space="preserve" xmlns="http://www.w3.org/2000/svg"><g transform="translate(-35.82 -147.7)"><g transform="translate(-43.707 -14.417)" fill="#8b109e" stroke-width=".26458"><path d="m139.79 185.09 17.224-19.12 2.5287 1.4703-17.26 19.083zm3.4968-22.979c-1.8784 0-3.4561 0.63724-4.7325 1.9115-1.2764 1.2742-1.9146 2.8301-1.9146 4.6679 0 1.8378 0.63821 3.4063 1.9146 4.7051 1.2764 1.2742 2.8541 1.911 4.7325 1.911 1.8544 0 3.4074-0.6368 4.6597-1.911 1.2764-1.2743 1.9146-2.8428 1.9146-4.7051 0-1.8379-0.62615-3.3937-1.8784-4.6679-1.2523-1.2743-2.8174-1.9115-4.6958-1.9115zm-0.0362 4.6679c0.5539 0 0.99971 0.18381 1.3369 0.55138 0.36125 0.3676 0.54157 0.821 0.54157 1.3601 0 0.53908-0.18032 1.0048-0.54157 1.3968-0.33716 0.36759-0.78297 0.55139-1.3369 0.55139-0.52983 0-0.97512-0.1838-1.3364-0.55139-0.33716-0.36752-0.50643-0.83325-0.50643-1.3968 0-0.53913 0.16927-0.99253 0.50643-1.3601 0.36123-0.36757 0.80652-0.55138 1.3364-0.55138zm13.516 9.761c-1.9026 0-3.4918 0.6373-4.7682 1.9115-1.2523 1.2743-1.879 2.8422-1.879 4.7046 0 1.8378 0.62663 3.3942 1.879 4.6684 1.2764 1.2743 2.8656 1.911 4.7682 1.911 1.8544 0 3.4074-0.6367 4.6597-1.911 1.2764-1.2742 1.9151-2.8306 1.9151-4.6684 0-1.8379-0.62665-3.3937-1.879-4.6679-1.2523-1.2988-2.8174-1.9482-4.6958-1.9482zm-0.0357 4.6679c0.52983 0 0.96302 0.1838 1.3002 0.55139 0.36123 0.36757 0.54208 0.83318 0.54208 1.3968 0 0.51458-0.18085 0.96801-0.54208 1.3601-0.33716 0.36757-0.77035 0.55139-1.3002 0.55139-0.5298 0-0.97513-0.18382-1.3364-0.55139-0.33718-0.36759-0.50642-0.82107-0.50642-1.3601 0-0.56363 0.16924-1.0292 0.50642-1.3968 0.36123-0.36759 0.80656-0.55139 1.3364-0.55139z"/><path d="m126.03 162.11c-3.4034 0-6.0619 1.2616-7.9747 3.7853-1.888 2.4984-2.8319 5.8422-2.8319 10.031 0 4.1893 0.94386 7.546 2.8319 10.07 1.9128 2.4984 4.5714 3.7476 7.9747 3.7476 3.4033 0 6.0485-1.2492 7.9365-3.7476 1.9128-2.5237 2.8696-5.8804 2.8696-10.07 0-4.1893-0.95677-7.533-2.8696-10.031-1.888-2.5237-4.5331-3.7853-7.9365-3.7853zm0 6.087c3.0909 0 4.6364 2.5934 4.6364 7.7804 0 5.187-1.5456 7.7804-4.6364 7.7804-3.0909 0-4.6369-2.5934-4.6369-7.7804 0-5.187 1.546-7.7804 4.6369-7.7804z"/><path transform="scale(.96422 1.0371)" d="m89.413 156.86h5.6211v25.55h-6.5336v-18.688l-4.4531 1.1315-1.5695-5.5116z"/><path d="m104.24 162.11c-3.4034 0-6.0619 1.2616-7.9747 3.7853-1.888 2.4984-2.8319 5.8422-2.8319 10.031 0 4.1893 0.94386 7.546 2.8319 10.07 1.9128 2.4984 4.5713 3.7476 7.9747 3.7476 3.4033 0 6.0485-1.2492 7.9365-3.7476 1.9128-2.5237 2.8696-5.8804 2.8696-10.07 0-4.1893-0.95677-7.533-2.8696-10.031-1.888-2.5237-4.5331-3.7853-7.9365-3.7853zm0 6.087c3.0909 0 4.6364 2.5934 4.6364 7.7804 0 5.187-1.5456 7.7804-4.6364 7.7804-3.0909 0-4.6369-2.5934-4.6369-7.7804 0-5.187 1.546-7.7804 4.6369-7.7804z"/></g><path class="st0" d="m155.37 304.43c10.449 0 17.924 5.9404 17.924 14.356 0 6.2292-4.3366 10.478-8.7557 14.232-4.4192 3.7541-6.8558 7.5907-8.4665 12.788h-1.2803c-1.6108-5.1978-4.0475-9.0756-8.4666-12.788-4.4191-3.754-8.7557-8.0443-8.7557-14.232 0-8.4155 7.4341-14.356 17.924-14.356m-0.0418 55.032c3.0975 0 5.6168-2.5164 5.6168-5.6104 0-3.0939-2.5193-5.6104-5.6168-5.6104-3.0975 0-5.6168 2.5164-5.6168 5.6104 0 3.0939 2.5192 5.6104 5.6168 5.6104" clip-rule="evenodd" fill="#a240b1" fill-rule="evenodd" stroke-width=".85556"/><g transform="matrix(.413 0 0 .41253 71.119 304.43)" fill="#8b109e" stroke-width="2.0727">
	<path class="st1" d="m99.7 63h-44.5v15.4h18v54.7h16v-54.7h18v-7.7c0.2-4.3-3.3-7.7-7.5-7.7"/>
	<path class="st1" d="m147.7 117.7h-17.3v-46.7c0-4.4-3.6-8-8-8h-8v57.7c0 6.9 5.6 12.5 12.5 12.5h28.6v-7.7c-0.1-4.4-3.5-7.8-7.8-7.8"/>
	<path class="st1" d="m39.2 107.4c7.7-3.9 12.9-11.7 12.9-20.3 0-13.4-10.7-24.1-24-24.1h-12.6c-8.6 0-15.5 6.9-15.5 15.4v54.7h16v-23.1h7.6l13.2 23.1h17.2zm-11.1-11.4h-12.1v-13.5c0-2.6 1.8-4.5 4-4.5h8c4.4 0 8 3.9 8 9s-3.5 9-7.9 9"/>


	<path class="st1" d="m42.2 31.6c0 11.7-8.5 20.7-18.8 20.7-5.3 0-9.1-1.8-11.7-4.8v3.7h-11.7v-48.8h11.8v13.3c2.6-3 6.4-4.8 11.7-4.8 10.3 0 18.7 9 18.7 20.7m-11.7 0c0-5.9-3.9-9.6-9.3-9.6s-9.3 3.7-9.3 9.6 3.9 9.6 9.3 9.6c5.3 0 9.3-3.7 9.3-9.6"/>
	<path class="st1" d="m78.3 41.9c3.2 0 6-1.3 7.5-3l9.4 5.4c-3.8 5.3-9.7 8.1-17.1 8.1-13.4 0-21.8-9-21.8-20.7s8.5-20.7 20.9-20.7c11.5 0 19.9 8.9 19.9 20.7 0 1.7-0.2 3.2-0.5 4.7h-27.7c1.5 4 5.1 5.5 9.4 5.5m7.2-14.3c-1.3-4.6-4.8-6.2-8.3-6.2-4.5 0-7.5 2.2-8.6 6.2z" Googl="true"/>
	<path class="st1" d="m114.6 2.4h11.8v48.8h-11.8z"/>
</g><g fill="#a240b1"><g fill="#a240b1" stroke-width=".26458"><path transform="scale(.99962 1.0004)" d="m189.73 185.63h20.16v91.638h-23.433v-67.026l-15.971 4.0582-5.6292-19.768z"/><path transform="scale(.99962 1.0004)" d="m86.846 185.63h23.302v91.638h-18.066l-32.335-46.081v46.081h-23.433v-91.638h18.197l32.335 46.081z"/><path d="m139.4 171.46c-6.6906 0-12.279 2.212-16.767 6.6347-4.404 4.4233-6.6079 9.8658-6.6079 16.33 0 6.3794 2.2039 11.782 6.6079 16.205 4.4886 4.4232 10.077 6.6332 16.767 6.6332 6.5209 0 11.982-2.2099 16.386-6.6332 4.4885-4.4228 6.735-9.8254 6.735-16.205 0-6.3795-2.204-11.78-6.6079-16.203-4.4038-4.5083-9.9077-6.7624-16.513-6.7624zm-0.1757 16.803c1.705 0 3.0994 0.5764 4.1842 1.7286 1.1626 1.152 1.7441 2.6111 1.7441 4.3775 0 1.6127-0.58146 3.0338-1.7441 4.2628-1.0849 1.1521-2.4793 1.7286-4.1842 1.7286-1.7051 0-3.138-0.57652-4.3005-1.7286-1.085-1.152-1.6299-2.5731-1.6299-4.2628 0-1.7664 0.54489-3.2256 1.6299-4.3775 1.1625-1.1522 2.5954-1.7286 4.3005-1.7286z"/></g></g></g></svg>
