<svg xmlns="http://www.w3.org/2000/svg" width="600" height="253.839">
    <path d="M600.007 231.352c0 12.417-10.07 22.487-22.487 22.487H22.487C10.059 253.839 0 243.769 0 231.352V22.487C0 10.07 10.059 0 22.487 0H577.52c12.417 0 22.487 10.07 22.487 22.487v208.865z" fill="#be0c00"/>
    <g fill="#fff">
        <path d="M335.371 20.147h122.726V58.64h-36.112v172.765h-48.9V58.64H335.37V20.147zM462.731 20.147h49.434v173.88h43.882v37.378H462.73V20.148z"/>
        <path d="M222 20.156v211.25h49.438v-94.563h11.313c13.206 0 17.719 5.37 17.719 17.531.209 16.772.538 41.313 1.281 53.219.383 10.372 4.775 23.646 9.781 23.844h45.906c-2.683-1.998-9.002-10.055-9.188-21.438-.174-10.024-.246-40.945-1.5-55.813 0-17.725-12.796-30.124-29.313-33.563v-.531c21.221-7.829 28.219-24.05 28.219-48.906 0-38.075-22.48-51.031-59.219-51.031h-64.438zm49.438 35.938h9.156c10.012 0 18.281 5.691 18.281 20.5 0 13.752-3.99 24.875-16 24.875h-11.438V56.094z"/>
        <g>
            <path d="M141.745 185.382h-37.413v33.777h37.413v-33.777zm10.198 43.987H94.134v-54.173h57.809v54.173zM124.536 24.635c-18.968 0-38.086 5.134-52.443 14.066-8.107 5.053-21.72 15.924-21.72 31.919 0 23.439 23.985 37.494 34.706 42.593 16.145 6.156 29.224 14.275 38.551 31.013 7.411-12.463 18.445-22.441 38.818-30.699a182.632 182.632 0 0 1 3.717-1.87c14.217-7.085 31.907-15.89 31.907-42.035 0-10.43-7.201-21.314-19.746-29.839-14.345-9.768-33.452-15.146-53.79-15.146m0-10.198c47.111 0 83.734 26.692 83.734 55.184 0 35.659-27.853 46.008-41.548 53.174-26.332 10.558-34.265 23.312-40.688 40.247h-5.343c-7.933-23.904-20.129-33.069-39.619-40.433-18.189-8.572-40.897-25.704-40.897-51.99 0-33.278 42.605-56.183 84.361-56.183"/>
            <path d="M73.813 40.156v61.531h19.375c10.674 0 14.813-7.501 14.813-18.188 0-6.377-2.612-13.284-9.094-14.063v-.156c5.448-1.382 7.688-7.23 7.688-13.781 0-9.211-4.242-15.344-13.406-15.344H73.814zm12.813 11.563h3.094c2.613 0 4.094 2.925 4.094 6.375 0 3.264-1.48 6.188-4.094 6.188h-3.094V51.719zm0 23.438h3.594c2.335 0 4.531 2.648 4.531 7.375 0 5.006-2.197 7.594-4.531 7.594h-3.594V75.157zM114.326 40.172h29.143v13.09h-16.331v10.512h15.297v12.568h-15.297v12.231h16.958v13.09h-29.77V40.172zM150.152 40.172h12.823v48.401h15.773v13.09h-28.597V40.172z"/>
        </g>
    </g>
</svg>
