<svg version="1.1" viewBox="0 0 800 472.63" xmlns="http://www.w3.org/2000/svg">
 <path d="m552.05 224.56-79.532-112.28v112.28h-60.819v-219.88h56.14l81.092 113.84v-113.84h60.819v219.88z" fill="#e5332a"/>
 <path d="m698.64 59.259v29.63h85.77v53.021h-85.77v29.63h101.36v54.581h-168.42v-219.88h168.42v54.581h-101.36z" fill="#e5332a"/>
 <path d="m282.26 0c-26.511 0-51.462 9.3567-70.175 24.951 14.035 15.595 24.951 32.749 29.63 53.021 9.3567-10.916 24.951-17.154 40.546-17.154 29.63 0 54.581 24.951 54.581 54.581 0 29.63-24.951 54.581-54.581 54.581-16.498 0-29.63-6.2378-40.546-17.154-6.2378 20.273-15.595 37.427-29.63 53.021 18.713 15.595 43.665 24.951 70.175 24.951 62.378 0 113.84-51.462 113.84-113.84 0-62.378-51.462-116.96-113.84-116.96z" fill="#e5332a"/>
 <path d="m113.84 0c-62.378 0-113.84 51.462-113.84 113.84 0 62.378 51.462 113.84 113.84 113.84 62.378 0 113.84-51.462 113.84-113.84 0-62.378-51.462-113.84-113.84-113.84zm-28.07 149.71h-35.867v-76.413h34.308c17.154 0 28.07 7.7973 28.07 18.713 0 10.916-4.6784 14.035-12.476 17.154 9.3567 1.5595 14.035 9.3567 14.035 18.713 0 9.3567-10.916 21.832-28.07 21.832zm95.127 0h-59.259v-76.413h57.7v17.154h-37.427v12.476h34.308v17.154h-34.308v12.476h37.427v17.154zm-92.008-53.021c0-4.6784-3.1189-6.2378-6.2378-6.2378h-12.476v12.476h12.476c4.6784 0 6.2378-3.1189 6.2378-6.2378zm-6.2378 21.832h-12.476v14.035h12.476c4.6784 0 9.3567-3.1189 9.3567-7.7973 0-4.6784-3.1189-6.2378-9.3567-6.2378z" fill="#29235c"/>
 <path d="m0 469.98 73.892-115.84-64.349-99.036h34.628l32.447 53.349 15.815 26.822h1.636l15.815-26.822 32.447-53.349h34.628l-63.804 98.741 73.892 116.13h-35.174l-40.082-64.55-17.723-30.064h-1.636l-17.996 30.064-39.809 64.55zm214.04 0v-214.87h47.444l38.173 116.72 14.724 55.118h1.9086l14.997-55.118 38.173-116.72h47.171v214.87h-28.902v-108.17l1.0905-77.224h-2.1813l-21.541 71.624-36.81 113.77h-25.903l-36.264-113.18-21.813-72.213h-2.1812l1.0907 77.519v107.88zm230.13 0 70.62-214.87h41.99l70.347 214.87h-30.811l-51.261-162.7-8.4526-27.412h-1.636l-8.1799 27.412-51.534 162.7zm44.172-49.813 5.1806-25.643h84.253l5.1806 25.643zm233.67 52.465q-26.176 0-43.626-8.8425-17.451-8.8425-26.176-24.464-8.7253-15.916-8.9979-36.549h30.538q0.27275 13.558 5.4533 23.875 5.4533 10.021 16.087 15.327 10.634 5.3055 27.539 5.3055 13.906 0 24.267-3.537 10.361-3.8317 16.087-11.495t5.726-19.748q0-9.1372-2.7267-15.327-2.7266-6.1897-8.9979-10.316-5.9986-4.4212-16.087-7.3687-9.8159-2.9475-24.54-5.6002-16.905-3.2422-29.993-7.6634-12.815-4.716-21.54-11.495-8.4526-7.074-12.815-17.095-4.3626-10.021-4.3626-23.58 0-18.864 8.7253-32.717 8.7253-13.853 25.085-21.222 16.36-7.3687 39.264-7.3687 22.904 0 38.991 7.9582 16.087 7.6634 24.812 21.811 8.7253 13.853 8.7253 33.012h-29.993q-0.54534-12.969-6.2713-21.222-5.4533-8.5477-14.997-12.674-9.5433-4.1265-22.358-4.1265-13.088 0-22.358 3.8317-9.2706 3.8317-14.179 10.906-4.908 7.074-4.908 17.685 0 10.906 4.908 17.39 4.908 6.4845 16.633 10.611 11.725 3.8317 31.902 7.6635 13.088 2.0632 25.358 5.895 12.27 3.8317 21.813 10.611 9.5433 6.7792 15.269 18.569 5.726 11.495 5.726 30.064 0 18.274-8.9979 32.422-8.7253 13.853-26.176 21.811-17.178 7.6635-42.808 7.6635z" fill="#29235c" aria-label="XMAS"/>
</svg>
