<svg data-name="Layer 2" version="1.1" viewBox="0 0 461.06 444.64" xmlns="http://www.w3.org/2000/svg">
 <defs>
  <style>
   .cls-1 {stroke: #084f71;stroke-width: 9px;}
   .cls-1, .cls-2 {fill: none;stroke-miterlimit: 10;}
   .cls-2 {stroke: #ffce07;stroke-width: 13px;}
  </style>
 </defs>
 <path class="cls-2" d="m198.49 177.38-190.77 40.9" fill="none" stroke="#ffce07" stroke-miterlimit="10" stroke-width="13px"/>
 <path class="cls-1" d="m230.53 4.5c1.33 0 8.16 5.47 10.44 8.13s13.74 14.9 15.81 30.87c0.9 6.96 5.96 66.04 5.96 66.04l18.93 13.37s1.71-4.56 0-6.27c-4.89-9.16-2.42-27.43-1.14-30.41 0.91-2.13 6.57-3.9 9.42-3.9s9.33 1.99 9.58 2.76c0.8 2.45 1.78 9.71 1.78 16.74s-2.91 14.29-4.68 17.74c-0.8 1.56 0.45 9.12 1.78 10.45s35.91 19.32 35.91 19.32 1.52-1.52 0.19-3.8c-3.82-10.53-0.95-27.75-0.95-27.75s4.92-3.19 9.31-3.24c5.57-0.07 9.13 3 9.13 3s1.37 3.98 1.45 13.77-2.78 15.56-4.3 19.55 0.95 6.65 0.95 6.65 89.15 45.05 96.18 50.75 10.64 18.44 10.26 19.2-191.22-38.59-191.22-38.59-8.55 56.64-7.79 89.91-10.43 82.76-10.43 82.76l76.2 53.9v23.38s-89.15-23.19-89.15-19.39c0 1.79 0.47 6.82-0.38 10.36-0.95 3.97-3.23 6.37-3.23 6.37s-1.91-1.68-2.76-5.37c-0.95-4.14-0.86-10.39-0.86-11.36 0-3.8-89.15 19.39-89.15 19.39v-23.38l74.06-54.4s-15.41-40.72-14.65-73.99c0.76-33.26-1.44-98.19-1.44-98.19s-190.84 39.35-191.22 38.59 3.23-13.5 10.26-19.2 96.18-50.75 96.18-50.75 2.47-2.66 0.95-6.65-4.83-8.26-5-19.11c-0.16-10.1 2.15-15.67 2.15-15.67s4.94-3.5 9.31-3.12 9.09 3.35 9.09 3.35 4.18 16.18-0.92 29.23c-1.33 2.28 0.19 3.8 0.19 3.8s34.71-18.64 36.04-19.97 2.73-6.18 1.4-7.32-5.53-14-5.53-21.03 1.31-14.73 1.74-15.92c0.27-0.76 5.9-3.32 10.41-3.29 4.23 0.03 9.36 2.15 9.74 4.43s3.82 18.01-1.14 30.41c-1.71 1.71 0 6.27 0 6.27l20.02-14.12s1.74-42.64 5.2-64.39 14.62-29.53 16.9-32.19 7.68-7.72 9.01-7.72z"/>
 <path class="cls-1" d="m226.92 419.44-0.38-73.28 2.94-29.08 3.23 29.08 1.43 73.28" fill="none" stroke="#084f71" stroke-miterlimit="10" stroke-width="9px"/>
</svg>
