<svg fill="#ffffff" data-name="Layer 2" version="1.1" viewBox="0 0 501 171" xmlns="http://www.w3.org/2000/svg">
 <rect x=".50079" y=".50079" width="500" height="170" fill="#44b7f6" stroke="#fff" stroke-width="1.0016"/>
 <path d="m200.54 76.037a10.65 10.65 0 0 0 3.53-1.69 8.21 8.21 0 0 0 2.46-2.95 10.42 10.42 0 0 0-0.5-9.51 7.48 7.48 0 0 0-4.29-3 7.85 7.85 0 0 0 3.16-2.7 7.42 7.42 0 0 0 1.07-4.12 9.14 9.14 0 0 0-0.72-3.84 6.2 6.2 0 0 0-2-2.49 8.53 8.53 0 0 0-3.14-1.35 18.5 18.5 0 0 0-4-0.41h-14.71v32.65h15.07a15.19 15.19 0 0 0 4.07-0.59zm-12.3-26.52h6.4a9.53 9.53 0 0 1 1.76 0.16 4.28 4.28 0 0 1 1.5 0.57 3 3 0 0 1 1 1.14 4 4 0 0 1 0.39 1.87 3.53 3.53 0 0 1-1.18 3 4.74 4.74 0 0 1-3 0.91h-6.92zm0 21.49v-9h7.45a5.57 5.57 0 0 1 3.57 1.07 4.33 4.33 0 0 1 1.35 3.59 4.68 4.68 0 0 1-0.41 2.1 3.4 3.4 0 0 1-1.11 1.3 4.58 4.58 0 0 1-1.61 0.69 8.7 8.7 0 0 1-1.92 0.21z"/>
 <polygon transform="translate(23.675 15.517)" points="196.08 47.59 209.1 47.59 209.1 42.01 196.08 42.01 196.08 34.46 211.1 34.46 211.1 28.43 189.24 28.43 189.24 61.07 196.08 61.07"/>
 <path d="m258.76 76.037a10.65 10.65 0 0 0 3.53-1.69 8.21 8.21 0 0 0 2.46-2.95 10.42 10.42 0 0 0-0.5-9.51 7.48 7.48 0 0 0-4.29-3 7.85 7.85 0 0 0 3.16-2.7 7.42 7.42 0 0 0 1.02-4.15 9.14 9.14 0 0 0-0.72-3.84 6.2 6.2 0 0 0-2-2.49 8.53 8.53 0 0 0-3.14-1.35 18.5 18.5 0 0 0-4-0.41h-14.66v32.65h15.07a15.19 15.19 0 0 0 4.07-0.56zm-12.3-26.52h6.4a9.53 9.53 0 0 1 1.76 0.16 4.28 4.28 0 0 1 1.5 0.57 3 3 0 0 1 1 1.14 4 4 0 0 1 0.39 1.87 3.53 3.53 0 0 1-1.18 3 4.74 4.74 0 0 1-3 0.91h-6.92zm0 21.49v-9h7.45a5.57 5.57 0 0 1 3.57 1.07 4.33 4.33 0 0 1 1.35 3.59 4.68 4.68 0 0 1-0.41 2.1 3.4 3.4 0 0 1-1.11 1.3 4.58 4.58 0 0 1-1.61 0.69 8.7 8.7 0 0 1-1.92 0.21z"/>
 <path d="m294.52 71.037a10.42 10.42 0 0 0 0.83-4.16 8.31 8.31 0 0 0-1.11-4.5 9.54 9.54 0 0 0-2.63-2.81 11.35 11.35 0 0 0-3.08-1.53q-1.55-0.48-2.42-0.66l-4.72-1.28a16.85 16.85 0 0 1-2.83-1 3.13 3.13 0 0 1-1.37-1.1 3 3 0 0 1-0.35-1.55 3.18 3.18 0 0 1 0.44-1.74 3.87 3.87 0 0 1 1.11-1.14 4.32 4.32 0 0 1 1.5-0.64 7.66 7.66 0 0 1 1.65-0.18 11.16 11.16 0 0 1 2.33 0.23 5.47 5.47 0 0 1 1.89 0.78 4 4 0 0 1 1.33 1.51 6 6 0 0 1 0.59 2.42h6.62a10.45 10.45 0 0 0-1-4.82 9.24 9.24 0 0 0-2.77-3.27 11.43 11.43 0 0 0-4-1.85 18.9 18.9 0 0 0-4.68-0.57 15.25 15.25 0 0 0-4.18 0.59 11.43 11.43 0 0 0-3.75 1.83 9.57 9.57 0 0 0-2.68 3.09 8.89 8.89 0 0 0-1 4.37 8.31 8.31 0 0 0 0.81 3.82 8 8 0 0 0 2.11 2.63 11.47 11.47 0 0 0 3 1.71 28.56 28.56 0 0 0 3.4 1.12q1.7 0.5 3.35 0.91a20.38 20.38 0 0 1 3 1 6.36 6.36 0 0 1 2.11 1.37 2.94 2.94 0 0 1 0.81 2.15 3.26 3.26 0 0 1-0.61 2 4.31 4.31 0 0 1-1.52 1.26 6.56 6.56 0 0 1-2 0.62 13 13 0 0 1-2 0.16 9.9 9.9 0 0 1-2.61-0.34 6.35 6.35 0 0 1-2.2-1.05 5.12 5.12 0 0 1-1.5-1.85 6.24 6.24 0 0 1-0.57-2.79h-6.69a11.23 11.23 0 0 0 1 5.21 10.14 10.14 0 0 0 2.94 3.61 12.27 12.27 0 0 0 4.27 2.08 18.76 18.76 0 0 0 5 0.66 18.3 18.3 0 0 0 5.6-0.78 11.62 11.62 0 0 0 4-2.17 9 9 0 0 0 2.58-3.35z"/>
 <path d="m94.135 15.517a70.48 70.48 0 1 0 70.51 70.52 70.56 70.56 0 0 0-70.51-70.52zm0 124.64a54.15 54.15 0 1 1 54.18-54.12 54.21 54.21 0 0 1-54.18 54.11z"/>
 <circle cx="94.405" cy="86.387" r="28.42"/>
 <path d="m200.34 114.64h13a13.88 13.88 0 0 1-0.74 5.23 11.65 11.65 0 0 1-6.69 7.06 14.56 14.56 0 0 1-5.66 1 12.94 12.94 0 0 1-6-1.34 13.15 13.15 0 0 1-4.37-3.6 16 16 0 0 1-2.69-5.2 20.57 20.57 0 0 1-0.91-6.14 25.48 25.48 0 0 1 0.8-6.37 17.08 17.08 0 0 1 2.49-5.54 12.42 12.42 0 0 1 10.72-5.4 16.67 16.67 0 0 1 4.32 0.54 11.94 11.94 0 0 1 3.63 1.63 9.58 9.58 0 0 1 2.69 2.77 10.7 10.7 0 0 1 1.49 4h5.43a16.5 16.5 0 0 0-2.14-6.14 14.44 14.44 0 0 0-3.89-4.2 15.85 15.85 0 0 0-5.26-2.43 24.63 24.63 0 0 0-6.26-0.77 18.88 18.88 0 0 0-8.49 1.8 17.77 17.77 0 0 0-6.06 4.83 20.86 20.86 0 0 0-3.66 7.06 28.91 28.91 0 0 0-1.23 8.49 22.94 22.94 0 0 0 1.31 7.72 19.87 19.87 0 0 0 3.83 6.57 18.45 18.45 0 0 0 6.12 4.54 19.05 19.05 0 0 0 8.17 1.69 19.32 19.32 0 0 0 7.14-1.4 13.55 13.55 0 0 0 5.94-4.6l1.43 5.09h3.43v-21.49h-17.89z"/>
 <rect x="225.7" y="102.01" width="4.86" height="29.55"/>
 <rect x="225.7" y="90.757" width="4.86" height="5.94"/>
 <path d="m262.88 105.98a12.18 12.18 0 0 0-4.23-3.4 13.33 13.33 0 0 0-6-1.26 14.08 14.08 0 0 0-5.66 1.12 7.27 7.27 0 0 0-3.77 3.57h-0.09v-15.26h-4.86v40.81h4.86v-3.94h0.11a7.82 7.82 0 0 0 2 2.2 10.39 10.39 0 0 0 2.49 1.4 13.55 13.55 0 0 0 2.66 0.74 14.6 14.6 0 0 0 2.43 0.23 13.73 13.73 0 0 0 5.92-1.2 11.85 11.85 0 0 0 4.23-3.29 14 14 0 0 0 2.51-4.89 20.86 20.86 0 0 0 0.83-5.94 20.19 20.19 0 0 0-0.86-5.94 15.05 15.05 0 0 0-2.57-4.95zm-2.2 14.77a11.19 11.19 0 0 1-1.49 3.66 7.8 7.8 0 0 1-2.71 2.57 8.3 8.3 0 0 1-4.2 1 9 9 0 0 1-4.29-0.94 8.31 8.31 0 0 1-2.89-2.49 10.39 10.39 0 0 1-1.63-3.57 17.31 17.31 0 0 1 0-8.26 10.63 10.63 0 0 1 1.57-3.57 8 8 0 0 1 7-3.52 8.7 8.7 0 0 1 4.09 0.91 8.14 8.14 0 0 1 2.86 2.46 10.88 10.88 0 0 1 1.66 3.51 15.14 15.14 0 0 1 0.54 4 19.44 19.44 0 0 1-0.51 4.25z"/>
 <path d="m276.52 108.24h-0.11v-6.2h-4.57v29.55h4.86v-13.17a20.19 20.19 0 0 1 0.57-5.06 9.67 9.67 0 0 1 1.83-3.74 7.83 7.83 0 0 1 3.31-2.34 13.75 13.75 0 0 1 5-0.8v-5.14a10.92 10.92 0 0 0-6.52 1.6 13.15 13.15 0 0 0-4.37 5.3z"/>
 <path d="m314.38 127.1a11.3 11.3 0 0 1-0.2-2.51v-15.17a7.93 7.93 0 0 0-1-4.16 6.85 6.85 0 0 0-2.57-2.48 10.38 10.38 0 0 0-3.57-1.17 27.53 27.53 0 0 0-4-0.29 20.62 20.62 0 0 0-4.71 0.52 11.49 11.49 0 0 0-3.92 1.69 8.66 8.66 0 0 0-2.74 3.06 10.48 10.48 0 0 0-1.14 4.63h4.86q0.17-3.26 2.23-4.43a10.27 10.27 0 0 1 5.14-1.17 15.84 15.84 0 0 1 2.31 0.17 6.24 6.24 0 0 1 2.12 0.69 4.12 4.12 0 0 1 1.54 1.49 4.86 4.86 0 0 1 0.6 2.57 2.65 2.65 0 0 1-0.8 2.09 5.29 5.29 0 0 1-2.17 1.09 21.06 21.06 0 0 1-3.17 0.57q-1.8 0.2-3.8 0.6t-3.69 0.86a10.35 10.35 0 0 0-3.2 1.51 7.48 7.48 0 0 0-2.26 2.6 8.68 8.68 0 0 0-0.86 4.11 8.56 8.56 0 0 0 0.77 3.8 6.84 6.84 0 0 0 2.09 2.54 8.82 8.82 0 0 0 3.12 1.43 16.1 16.1 0 0 0 9.54-0.6 11.62 11.62 0 0 0 4.66-3.46 4.6 4.6 0 0 0 1.12 3.46 4.18 4.18 0 0 0 3 1.06 6.88 6.88 0 0 0 3.49-0.74v-3.77a5.89 5.89 0 0 1-1.49 0.23q-1.1-0.02-1.3-0.82zm-5.06-5.86a5.45 5.45 0 0 1-0.51 2.19 6.51 6.51 0 0 1-1.6 2.16 8.66 8.66 0 0 1-2.8 1.65 11.58 11.58 0 0 1-4.12 0.65 10 10 0 0 1-2.17-0.23 5.29 5.29 0 0 1-1.8-0.74 4 4 0 0 1-1.26-1.34 3.91 3.91 0 0 1-0.49-2 4.52 4.52 0 0 1 0.83-2.87 5.39 5.39 0 0 1 2.14-1.62 12.14 12.14 0 0 1 3-0.82q1.66-0.25 3.29-0.46t3.12-0.51a6.07 6.07 0 0 0 2.4-1z"/>
 <rect x="322" y="90.757" width="4.86" height="40.81"/>
 <path d="m341.14 93.147h-4.86v8.89h-5v4.29h5v18.8a11.2 11.2 0 0 0 0.4 3.32 4 4 0 0 0 1.23 1.94 4.74 4.74 0 0 0 2.17 0.94 17.49 17.49 0 0 0 3.23 0.26h3.71v-4.29h-2.23a16.34 16.34 0 0 1-1.86-0.08 2.4 2.4 0 0 1-1.11-0.37 1.41 1.41 0 0 1-0.54-0.8 5.29 5.29 0 0 1-0.14-1.37v-18.38h5.89v-4.26h-5.89z"/>
 <path d="m375.76 127.1a11.3 11.3 0 0 1-0.2-2.51v-15.17a7.93 7.93 0 0 0-1-4.16 6.85 6.85 0 0 0-2.57-2.48 10.38 10.38 0 0 0-3.57-1.17 27.53 27.53 0 0 0-4-0.29 20.62 20.62 0 0 0-4.71 0.52 11.49 11.49 0 0 0-3.92 1.69 8.67 8.67 0 0 0-2.74 3.06 10.49 10.49 0 0 0-1.14 4.63h4.86q0.17-3.26 2.23-4.43a10.27 10.27 0 0 1 5.14-1.17 15.84 15.84 0 0 1 2.31 0.17 6.24 6.24 0 0 1 2.12 0.69 4.12 4.12 0 0 1 1.54 1.49 4.86 4.86 0 0 1 0.6 2.57 2.65 2.65 0 0 1-0.8 2.09 5.29 5.29 0 0 1-2.17 1.09 21.06 21.06 0 0 1-3.17 0.57q-1.8 0.2-3.8 0.6t-3.69 0.86a10.35 10.35 0 0 0-3.2 1.51 7.47 7.47 0 0 0-2.26 2.6 8.68 8.68 0 0 0-0.86 4.11 8.55 8.55 0 0 0 0.77 3.8 6.85 6.85 0 0 0 2.09 2.54 8.82 8.82 0 0 0 3.12 1.43 16.1 16.1 0 0 0 9.54-0.6 11.62 11.62 0 0 0 4.66-3.46 4.6 4.6 0 0 0 1.12 3.46 4.18 4.18 0 0 0 3 1.06 6.88 6.88 0 0 0 3.49-0.74v-3.77a5.89 5.89 0 0 1-1.49 0.23q-1.1-0.02-1.3-0.82zm-5.06-5.86a5.45 5.45 0 0 1-0.51 2.19 6.51 6.51 0 0 1-1.6 2.16 8.66 8.66 0 0 1-2.8 1.65 11.58 11.58 0 0 1-4.12 0.65 10 10 0 0 1-2.17-0.23 5.29 5.29 0 0 1-1.8-0.74 4 4 0 0 1-1.26-1.34 3.91 3.91 0 0 1-0.49-2 4.52 4.52 0 0 1 0.83-2.87 5.39 5.39 0 0 1 2.15-1.67 12.14 12.14 0 0 1 3-0.82q1.66-0.25 3.29-0.46t3.12-0.51a6.07 6.07 0 0 0 2.4-1z"/>
 <path d="m391.96 102.93a13.15 13.15 0 0 0-4.34 5.31h-0.11v-6.2h-4.58v29.55h4.86v-13.17a20.17 20.17 0 0 1 0.57-5.06 9.68 9.68 0 0 1 1.83-3.74 7.84 7.84 0 0 1 3.31-2.34 13.75 13.75 0 0 1 5-0.8v-5.14a10.92 10.92 0 0 0-6.54 1.59z"/>
</svg>
