<svg enable-background="new 0 0 170.1 170.1" version="1.1" viewBox="0 0 800 1013.5" xml:space="preserve" xmlns="http://www.w3.org/2000/svg" xmlns:xlink="http://www.w3.org/1999/xlink">
	<defs>
	<clipPath id="a">
		<use width="100%" height="100%" overflow="visible" xlink:href="#SVGID_1_"/>
	</clipPath>
	</defs>
	<path transform="matrix(6.0829 0 0 6.0829 -124.04 -16.371)" d="m34.5 6.8h-10v66.5c0.3 14.1 4.2 27 10 38.4z" clip-path="url(#a)" fill="#f298bc"/>
	<path transform="matrix(6.0829 0 0 6.0829 -123.74 -16.071)" d="m149.8 4.7v67.1c0 59.7-63.7 95.1-63.7 95.1s-63.7-35.4-63.7-95.1v-67.1z" clip-path="url(#a)" fill="none" stroke="#8ad2eb" stroke-miterlimit="10" stroke-width="4.116"/>
	<path transform="matrix(6.0829 0 0 6.0829 -123.74 -16.071)" d="m22.4 57.1 35.4 26.2-28.8 21.4" clip-path="url(#a)" fill="none" stroke="#8ad2eb" stroke-miterlimit="10" stroke-width="4.116"/>
	<path transform="matrix(6.0829 0 0 6.0829 -123.74 -16.071)" d="m73.1 52.6-50.7-37.7" clip-path="url(#a)" fill="none" stroke="#8ad2eb" stroke-miterlimit="10" stroke-width="4.116"/>
	<path transform="matrix(6.0829 0 0 6.0829 -123.74 -16.071)" d="m149.8 14.9-48.6 36.1" clip-path="url(#a)" fill="none" stroke="#8ad2eb" stroke-miterlimit="10" stroke-width="4.116"/>
	<path transform="matrix(6.0829 0 0 6.0829 -123.74 -16.071)" d="m143.2 104.7-28.7-21.4 35.3-26.2" clip-path="url(#a)" fill="none" stroke="#8ad2eb" stroke-miterlimit="10" stroke-width="4.116"/>
	<path transform="matrix(6.0829 0 0 6.0829 -123.74 -16.071)" d="m46.5 133.8 39.6-29.5 39.6 29.5" clip-path="url(#a)" fill="none" stroke="#8ad2eb" stroke-miterlimit="10" stroke-width="4.116"/>
	<path transform="matrix(6.0829 0 0 6.0829 -123.74 -16.071)" d="m109.6 69 31.1-23 1.4-4.4-4.6 0.1-26.5 19.7z" clip-path="url(#a)" fill="#8ad2eb"/>
	<path transform="matrix(6.0829 0 0 6.0829 -123.74 -16.071)" d="m85.7 80.2-21 15.5-6.1-8.1-4.2 3.2 6.1 8.1-11.9 8.9c-1.8-0.8-3.9-0.7-5.6 0.6-2.4 1.8-2.9 5.3-1.1 7.7s5.3 2.9 7.7 1.1c1.7-1.3 2.4-3.3 2.1-5.2l11.9-8.9 6.1 8.1 4.2-3.2-6.1-8.1 26.2-19.5z" clip-path="url(#a)" fill="#8ad2eb"/>
	<path transform="matrix(6.0829 0 0 6.0829 -123.74 -16.071)" d="m85.4 79.8 22.3 16.5 6.1-8.1 4.2 3.2-6.1 8.1 11.9 8.9c1.8-0.8 3.9-0.7 5.6 0.6 2.4 1.8 2.9 5.3 1.1 7.7s-5.3 2.9-7.7 1.1c-1.7-1.3-2.4-3.3-2.1-5.2l-11.9-8.9-6.1 8.1-4.2-3.2 6.1-8.1-27.8-20.5z" clip-path="url(#a)" fill="#8ad2eb"/>
	<path transform="matrix(6.0829 0 0 6.0829 -123.74 -16.071)" d="m62.9 69.8-31.1-23.2-1.5-4.4 4.6 0.2 26.7 19.8z" clip-path="url(#a)" fill="#8ad2eb"/>
	<path transform="matrix(6.0829 0 0 6.0829 -123.74 -16.071)" d="m70.6 58.5c1.7-5.3 4.6-11.6 9.4-15.2" clip-path="url(#a)" fill="none" stroke="#8ad2eb" stroke-miterlimit="10" stroke-width="4.116"/>
	<path transform="matrix(6.0829 0 0 6.0829 -123.74 -16.071)" d="m89.4 39.7c-4.9 5.3-13.7 0.6-21.8 7.3-3.2 0-7.3-5.6-4.5-9.6 4.7-6.3 17.9-11.6 17.9-11.6s-1.7-11.5 10.3-12.6c-3 3.9-3.9 7.1-4 9.4l3.7-0.2c2.4-3.1 6-6.6 10.1-6.6-5.3 6.4-3.8 15-3.8 15s1.1 2.3 3 10.5c1.1 4.7 0.9 12.7 0.5 18.6" clip-path="url(#a)" fill="none" stroke="#8ad2eb" stroke-miterlimit="10" stroke-width="4.116"/>
	<path transform="matrix(6.0829 0 0 6.0829 -123.74 -16.071)" d="m98.1 64s-6.4-11-11.9-11-12 11-12 11-6.3-11-14.5-11l5.1 27.3h42.6l5.1-27.3c-7.1-0.1-14.4 11-14.4 11z" clip-path="url(#a)" fill="none" stroke="#8ad2eb" stroke-miterlimit="10" stroke-width="4.116"/>
</svg>
