<svg fill="#ffffff" data-name="Layer 2" version="1.1" viewBox="0 0 501 171" xmlns="http://www.w3.org/2000/svg">
 <rect x=".5008" y=".5008" width="500" height="170" fill="#ebb614" stroke="#fff" stroke-width="1.0016"/>
 <path d="m200.54 46.335a10.65 10.65 0 0 0 3.53-1.69 8.21 8.21 0 0 0 2.46-2.95 10.42 10.42 0 0 0-0.5-9.51 7.48 7.48 0 0 0-4.29-3 7.85 7.85 0 0 0 3.16-2.7 7.42 7.42 0 0 0 1.07-4.12 9.14 9.14 0 0 0-0.72-3.84 6.2 6.2 0 0 0-2-2.49 8.53 8.53 0 0 0-3.14-1.35 18.5 18.5 0 0 0-4-0.41h-14.71v32.65h15.07a15.19 15.19 0 0 0 4.07-0.59zm-12.3-26.52h6.4a9.53 9.53 0 0 1 1.76 0.16 4.28 4.28 0 0 1 1.5 0.57 3 3 0 0 1 1 1.14 4 4 0 0 1 0.39 1.87 3.53 3.53 0 0 1-1.18 3 4.74 4.74 0 0 1-3 0.91h-6.92zm0 21.49v-9h7.45a5.57 5.57 0 0 1 3.57 1.07 4.33 4.33 0 0 1 1.35 3.59 4.68 4.68 0 0 1-0.41 2.1 3.4 3.4 0 0 1-1.11 1.3 4.58 4.58 0 0 1-1.61 0.69 8.7 8.7 0 0 1-1.92 0.21z"/>
 <polygon transform="translate(23.675 -14.185)" points="196.08 34.46 211.1 34.46 211.1 28.43 189.24 28.43 189.24 61.07 196.08 61.07 196.08 47.59 209.1 47.59 209.1 42.01 196.08 42.01"/>
 <path d="m258.76 46.335a10.65 10.65 0 0 0 3.53-1.69 8.21 8.21 0 0 0 2.46-2.95 10.42 10.42 0 0 0-0.5-9.51 7.48 7.48 0 0 0-4.29-3 7.85 7.85 0 0 0 3.16-2.7 7.42 7.42 0 0 0 1.02-4.15 9.14 9.14 0 0 0-0.72-3.84 6.2 6.2 0 0 0-2-2.49 8.53 8.53 0 0 0-3.14-1.35 18.5 18.5 0 0 0-4-0.41h-14.66v32.65h15.07a15.19 15.19 0 0 0 4.07-0.56zm-12.3-26.52h6.4a9.53 9.53 0 0 1 1.76 0.16 4.28 4.28 0 0 1 1.5 0.57 3 3 0 0 1 1 1.14 4 4 0 0 1 0.39 1.87 3.53 3.53 0 0 1-1.18 3 4.74 4.74 0 0 1-3 0.91h-6.92zm0 21.49v-9h7.45a5.57 5.57 0 0 1 3.57 1.07 4.33 4.33 0 0 1 1.35 3.59 4.68 4.68 0 0 1-0.41 2.1 3.4 3.4 0 0 1-1.11 1.3 4.58 4.58 0 0 1-1.61 0.69 8.7 8.7 0 0 1-1.92 0.21z"/>
 <path d="m294.52 41.335a10.42 10.42 0 0 0 0.83-4.16 8.31 8.31 0 0 0-1.11-4.5 9.54 9.54 0 0 0-2.63-2.81 11.35 11.35 0 0 0-3.08-1.53q-1.55-0.48-2.42-0.66l-4.72-1.28a16.85 16.85 0 0 1-2.83-1 3.13 3.13 0 0 1-1.37-1.1 3 3 0 0 1-0.35-1.55 3.18 3.18 0 0 1 0.44-1.74 3.87 3.87 0 0 1 1.11-1.14 4.32 4.32 0 0 1 1.5-0.64 7.66 7.66 0 0 1 1.65-0.18 11.16 11.16 0 0 1 2.33 0.23 5.47 5.47 0 0 1 1.89 0.78 4 4 0 0 1 1.33 1.51 6 6 0 0 1 0.59 2.42h6.62a10.45 10.45 0 0 0-1-4.82 9.24 9.24 0 0 0-2.77-3.27 11.43 11.43 0 0 0-4-1.85 18.9 18.9 0 0 0-4.68-0.57 15.25 15.25 0 0 0-4.18 0.59 11.43 11.43 0 0 0-3.75 1.83 9.57 9.57 0 0 0-2.68 3.09 8.89 8.89 0 0 0-1 4.37 8.31 8.31 0 0 0 0.81 3.82 8 8 0 0 0 2.11 2.63 11.47 11.47 0 0 0 3 1.71 28.56 28.56 0 0 0 3.4 1.12q1.7 0.5 3.35 0.91a20.38 20.38 0 0 1 3 1 6.36 6.36 0 0 1 2.11 1.37 2.94 2.94 0 0 1 0.81 2.15 3.26 3.26 0 0 1-0.61 2 4.31 4.31 0 0 1-1.52 1.26 6.56 6.56 0 0 1-2 0.62 13 13 0 0 1-2 0.16 9.9 9.9 0 0 1-2.61-0.34 6.35 6.35 0 0 1-2.2-1.05 5.12 5.12 0 0 1-1.5-1.85 6.24 6.24 0 0 1-0.57-2.79h-6.69a11.23 11.23 0 0 0 1 5.21 10.14 10.14 0 0 0 2.94 3.61 12.27 12.27 0 0 0 4.27 2.08 18.76 18.76 0 0 0 5 0.66 18.3 18.3 0 0 0 5.6-0.78 11.62 11.62 0 0 0 4-2.17 9 9 0 0 0 2.58-3.35z"/>
 <path d="m94.135 15.517a70.48 70.48 0 1 0 70.51 70.52 70.56 70.56 0 0 0-70.51-70.52zm0 124.64a54.15 54.15 0 1 1 54.18-54.12 54.21 54.21 0 0 1-54.18 54.11z"/>
 <circle cx="94.405" cy="86.387" r="28.42"/>
 <path d="m200.34 138.09h13a13.88 13.88 0 0 1-0.74 5.23 11.65 11.65 0 0 1-6.69 7.06 14.56 14.56 0 0 1-5.66 1 12.94 12.94 0 0 1-6-1.34 13.15 13.15 0 0 1-4.37-3.6 16 16 0 0 1-2.69-5.2 20.57 20.57 0 0 1-0.91-6.14 25.48 25.48 0 0 1 0.8-6.37 17.08 17.08 0 0 1 2.49-5.54 12.42 12.42 0 0 1 10.72-5.4 16.67 16.67 0 0 1 4.32 0.54 11.94 11.94 0 0 1 3.63 1.63 9.58 9.58 0 0 1 2.69 2.77 10.7 10.7 0 0 1 1.49 4h5.43a16.5 16.5 0 0 0-2.14-6.14 14.44 14.44 0 0 0-3.89-4.2 15.85 15.85 0 0 0-5.26-2.43 24.63 24.63 0 0 0-6.26-0.77 18.88 18.88 0 0 0-8.49 1.8 17.77 17.77 0 0 0-6.06 4.83 20.86 20.86 0 0 0-3.66 7.06 28.91 28.91 0 0 0-1.23 8.49 22.94 22.94 0 0 0 1.31 7.72 19.87 19.87 0 0 0 3.83 6.57 18.45 18.45 0 0 0 6.12 4.54 19.05 19.05 0 0 0 8.17 1.69 19.32 19.32 0 0 0 7.14-1.4 13.55 13.55 0 0 0 5.94-4.6l1.43 5.09h3.43v-21.49h-17.89z"/>
 <path d="m264.22 131.69h-0.11v-6.2h-4.57v29.55h4.86v-13.17a20.19 20.19 0 0 1 0.57-5.06 9.67 9.67 0 0 1 1.83-3.74 7.83 7.83 0 0 1 3.31-2.34 13.75 13.75 0 0 1 5-0.8v-5.14a10.92 10.92 0 0 0-6.52 1.6 13.15 13.15 0 0 0-4.37 5.3z"/>
 <path d="m363.68 150.55a11.3 11.3 0 0 1-0.2-2.51v-15.17a7.93 7.93 0 0 0-1-4.16 6.85 6.85 0 0 0-2.57-2.48 10.38 10.38 0 0 0-3.57-1.17 27.53 27.53 0 0 0-4-0.29 20.62 20.62 0 0 0-4.71 0.52 11.49 11.49 0 0 0-3.92 1.69 8.66 8.66 0 0 0-2.74 3.06 10.48 10.48 0 0 0-1.14 4.63h4.86q0.17-3.26 2.23-4.43a10.27 10.27 0 0 1 5.14-1.17 15.84 15.84 0 0 1 2.31 0.17 6.24 6.24 0 0 1 2.12 0.69 4.12 4.12 0 0 1 1.54 1.49 4.86 4.86 0 0 1 0.6 2.57 2.65 2.65 0 0 1-0.8 2.09 5.29 5.29 0 0 1-2.17 1.09 21.06 21.06 0 0 1-3.17 0.57q-1.8 0.2-3.8 0.6t-3.69 0.86a10.35 10.35 0 0 0-3.2 1.51 7.48 7.48 0 0 0-2.26 2.6 8.68 8.68 0 0 0-0.86 4.11 8.56 8.56 0 0 0 0.77 3.8 6.84 6.84 0 0 0 2.09 2.54 8.82 8.82 0 0 0 3.12 1.43 16.1 16.1 0 0 0 9.54-0.6 11.62 11.62 0 0 0 4.66-3.46 4.6 4.6 0 0 0 1.12 3.46 4.18 4.18 0 0 0 3 1.06 6.88 6.88 0 0 0 3.49-0.74v-3.77a5.89 5.89 0 0 1-1.49 0.23q-1.1-0.02-1.3-0.82zm-5.06-5.86a5.45 5.45 0 0 1-0.51 2.19 6.51 6.51 0 0 1-1.6 2.16 8.66 8.66 0 0 1-2.8 1.65 11.58 11.58 0 0 1-4.12 0.65 10 10 0 0 1-2.17-0.23 5.29 5.29 0 0 1-1.8-0.74 4 4 0 0 1-1.26-1.34 3.91 3.91 0 0 1-0.49-2 4.52 4.52 0 0 1 0.83-2.87 5.39 5.39 0 0 1 2.14-1.62 12.14 12.14 0 0 1 3-0.82q1.66-0.25 3.29-0.46t3.12-0.51a6.07 6.07 0 0 0 2.4-1z"/>
 <path d="m245.52 141.39a12.1 12.1 0 0 1-0.55 3.72 8.48 8.48 0 0 1-1.65 3 7.3 7.3 0 0 1-2.74 2 10 10 0 0 1-3.9 0.69 6 6 0 0 1-4.45-1.62 5.93 5.93 0 0 1-1.62-4.39v-20.26h-4.9v19.64a18.48 18.48 0 0 0 0.49 4.42 8.36 8.36 0 0 0 1.7 3.44 7.82 7.82 0 0 0 3.18 2.22 13.39 13.39 0 0 0 4.91 0.78 11.94 11.94 0 0 0 5.72-1.3 10 10 0 0 0 4-4.07h0.12v4.74h4.58v-29.87h-4.91z"/>
 <polygon transform="translate(52.875 68.209)" points="251.33 59.53 245.17 59.53 232.43 71.74 232.43 48.89 227.84 48.89 227.84 87.45 232.43 87.45 232.43 76.87 236.75 72.87 246.3 87.45 252.14 87.45 240.26 69.68"/>
 <path d="m212.09 94.981-0.27074-3.0429c0-0.98445-0.1805-2.0584-0.1805-3.0429-0.0902-0.98445-0.18049-1.8794-0.45121-2.7744-0.18049-0.89497-0.54148-1.7004-0.99271-2.5059-0.45123-0.71596-0.9927-1.3424-1.8049-1.8794-0.90246-0.53698-1.8049-0.98446-2.8879-1.074v-0.17899c2.2562-0.53698 4.1513-1.8794 5.4148-3.7588 1.0829-2.0584 1.6244-4.2958 1.6244-6.5332 0.1805-2.8639-0.99271-5.8173-3.2488-7.7862-2.1659-1.8794-5.144-2.7744-9.1148-2.7744h-19.313v40.542h5.4148v-17.273h13.356c1.083 0 2.0757 0.0895 3.1586 0.53698 0.72198 0.35798 1.4439 0.89494 1.9854 1.5214 0.54147 0.71596 0.90246 1.5214 1.1732 2.4164 0.18049 0.89496 0.45123 1.7899 0.54148 2.7744 0.18049 0.98445 0.36097 1.9689 0.36097 3.0429 0 0.98446 0.0903 1.9689 0.0903 2.8639 0 0.80548 0.0902 1.5214 0.18049 2.5059 0.1805 0.62649 0.36099 1.1635 0.81222 1.6109h6.1367c-0.63173-0.62646-1.083-1.4319-1.2635-2.3269-0.36097-0.98445-0.54147-1.8794-0.72196-2.8639zm-7.7612-18.168c-0.90246 0.53697-1.8952 0.89496-2.8879 1.1634-1.2634 0.17899-2.4366 0.26849-3.6098 0.26849h-11.461v-14.14h13.537c2.6171 0 4.4221 0.62647 5.505 1.9689 1.1732 1.3424 1.8952 3.1324 1.7147 5.0118 0 1.253-0.18049 2.5059-0.72196 3.5799-0.45123 0.80546-1.1732 1.6109-2.0757 2.1479z" fill="#fff"/>
 <path d="m241.69 95.601c-0.0903-0.80545-0.27074-1.7004-0.27074-2.4164v-15.125c0.18049-1.4319-0.27074-2.9534-0.99272-4.1168-0.63171-1.074-1.4439-1.9689-2.6171-2.5059-1.083-0.53698-2.3464-0.98446-3.6098-1.074-1.3537-0.26849-2.5269-0.35798-3.8806-0.35798-1.6244 0-3.1586 0.0895-4.783 0.53697-1.4439 0.35799-2.7074 0.89497-3.9708 1.7004-1.083 0.80546-2.0757 1.7899-2.7074 3.0429-0.72197 1.4319-1.083 2.9534-1.083 4.5643h4.8733c0.0902-2.1479 0.81221-3.5798 2.2562-4.3853 1.5342-0.80546 3.3391-1.253 5.144-1.1634 0.81222 0 1.6244 0 2.3464 0.17899 0.81221 0.0895 1.5342 0.26849 2.1659 0.62648 0.72197 0.35798 1.1732 0.89496 1.6244 1.4319 0.45123 0.80546 0.63173 1.7004 0.54148 2.5954 0 0.80547-0.27074 1.6109-0.81222 2.1479-0.63172 0.53698-1.3537 0.89497-2.1659 1.074-0.99271 0.2685-2.0757 0.44749-3.1586 0.62648-1.1732 0.0895-2.4366 0.26849-3.7903 0.53697-1.3537 0.179-2.6171 0.53699-3.7001 0.89496-1.1732 0.35799-2.2562 0.80547-3.1586 1.432-0.90247 0.71596-1.7147 1.6109-2.2562 2.5954-0.72196 1.2529-0.90245 2.6849-0.90245 4.1168 0 1.3424 0.18049 2.5954 0.72196 3.8483 0.45123 0.98446 1.2634 1.8794 2.1659 2.5059 0.90246 0.71598 2.0757 1.1634 3.1586 1.5214 3.1586 0.71598 6.588 0.53698 9.5661-0.62647 1.8049-0.71597 3.4293-1.8794 4.6928-3.4009-0.1805 1.1634 0.27073 2.4164 1.083 3.4009 0.81221 0.71597 1.8952 1.1634 2.9781 1.074 1.1732 0.0895 2.3464-0.2685 3.4294-0.80548v-3.7588c-0.45123 0.0895-0.99271 0.179-1.4439 0.179-0.90246 0-1.3537-0.35799-1.4439-0.89498zm-5.0538-5.8172c0 0.80548-0.27074 1.4319-0.63172 2.1479-0.27074 0.71597-0.90246 1.5214-1.5342 2.0584-0.81221 0.71597-1.8049 1.253-2.7976 1.7004-1.3537 0.44749-2.7074 0.71598-4.2416 0.71598-0.63172 0-1.4439-0.0895-2.0757-0.26849-0.72196-0.0895-1.2634-0.26849-1.8952-0.71597-0.54147-0.35798-0.81221-0.80547-1.1732-1.3424-0.36098-0.62647-0.45122-1.2529-0.45122-2.0584 0-0.98447 0.18048-1.9689 0.81221-2.8639 0.54148-0.71597 1.3537-1.2529 2.0757-1.6109 0.90246-0.44749 1.9854-0.62648 2.9781-0.80548 1.083-0.17899 2.2562-0.26849 3.2489-0.44746 1.1732-0.0895 2.1659-0.2685 3.1586-0.53699 0.90246-0.0895 1.7147-0.44749 2.3464-0.98446z" fill="#fff"/>
 <path d="m270.57 74.571h-0.0902c-0.63173-0.89497-1.2635-1.5214-2.0757-2.2374-0.81221-0.53698-1.5342-0.98446-2.4366-1.4319-0.99271-0.35799-1.7147-0.53698-2.6171-0.80547-0.81221-0.0895-1.6244-0.17899-2.5269-0.17899-1.9854 0-4.0611 0.26849-5.9562 1.1634-1.7147 0.80547-3.0684 1.9689-4.2416 3.3114-1.1732 1.4319-2.0757 3.1324-2.5269 4.7433-0.54147 1.8794-0.81221 3.9378-0.81221 5.9962 0 1.9689 0.27074 4.0273 0.90246 5.9068 0.63173 1.7899 1.3537 3.4904 2.6171 4.9223 1.1732 1.432 2.6171 2.5954 4.3318 3.3114 1.7147 0.89496 3.8806 1.3424 5.9562 1.253 1.8952 0 3.7903-0.35799 5.5953-1.074 1.7147-0.71598 3.0684-1.9689 3.8806-3.4904h0.0903v3.9378h4.8733v-40.542h-4.8733zm-0.27074 14.856c-0.27074 1.253-0.81222 2.5059-1.5342 3.5798-1.6244 2.2374-4.2416 3.5799-7.0392 3.4904-1.4439 0-2.7976-0.26849-4.0611-0.89498-1.083-0.53696-2.1659-1.4319-2.7976-2.4164-0.81222-1.074-1.3537-2.2374-1.7147-3.4904-0.27074-1.3424-0.54148-2.6849-0.54148-4.0273 0-1.5214 0.0903-2.8639 0.45124-4.2958 0.18049-1.3424 0.81222-2.5954 1.4439-3.6694 0.72198-1.1634 1.6244-1.8794 2.7074-2.5954 1.2634-0.62648 2.7074-0.98446 4.2416-0.98446 1.4439 0 2.8879 0.35798 4.2416 0.98446 1.1732 0.53697 2.1659 1.4319 2.9781 2.5059 0.72197 1.074 1.3537 2.2374 1.6244 3.5798 0.72197 2.7744 0.72197 5.5488 0 8.2337z" fill="#fff"/>
 <path d="m283.2 59.447h4.783v5.9963h-4.783z" fill="#fff"/>
 <path d="m283.2 70.631h4.783v29.444h-4.783z" fill="#fff"/>
 <path d="m319.21 74.481c-1.2634-1.3424-2.8879-2.5059-4.5123-3.2219-3.9708-1.6109-8.4831-1.6109-12.454 0-1.7147 0.71598-3.2489 1.8794-4.5123 3.2219-1.2634 1.4319-2.1659 3.1324-2.7074 4.9223-0.63173 1.8794-0.90246 4.0273-0.90246 5.9962 0 2.0584 0.36098 4.0273 0.90246 6.0858 0.54148 1.7899 1.4439 3.4009 2.7074 4.7433 1.2634 1.5214 2.7976 2.5059 4.5123 3.3114 3.9708 1.5214 8.4831 1.5214 12.454 0 1.6244-0.80548 3.2489-1.7899 4.5123-3.3114 1.1732-1.4319 2.0757-2.9534 2.7074-4.7433 0.63172-1.9689 0.90246-4.0273 0.90246-6.0858 0-1.9689-0.36098-4.1168-0.90246-5.9962-0.63172-1.7899-1.5342-3.4904-2.7074-4.9223zm-2.2562 15.662c-0.54148 1.2529-1.1732 2.4164-2.0757 3.4904-0.81221 0.89497-1.8049 1.611-2.8879 2.0584-2.2562 1.074-4.8733 1.074-7.1294 0-1.1732-0.44746-2.1659-1.1634-2.9781-2.0584-0.90247-1.074-1.5342-2.2374-1.9854-3.4904-0.90247-3.1324-0.90247-6.3542 0-9.4866 0.45123-1.253 1.083-2.5059 1.9854-3.4904 0.81221-0.89496 1.8049-1.7004 2.9781-2.1479 2.2561-0.98446 4.8733-0.98446 7.1294 0 1.0829 0.44748 2.0757 1.253 2.8879 2.1479 0.90245 0.98446 1.6244 2.2374 2.0757 3.4904 0.9927 3.1324 0.9927 6.4437 0 9.4866z" fill="#fff"/>
 <path d="m331.65 128.44a8.0001 8 0 0 0-3.14-2.23 12.85 12.85 0 0 0-4.8601-0.8 13.57 13.57 0 0 0-2.71 0.29 12 12 0 0 0-2.69 0.89 9.1001 9.1 0 0 0-2.31 1.54 6.4601 6.46 0 0 0-1.6 2.31h-0.11v-15.6h-4.8601v40.82h4.8601v-16.71a11.94 11.94 0 0 1 0.54001-3.69 8.3601 8.36 0 0 1 1.63-2.94 7.2301 7.23 0 0 1 2.71-1.94 9.9101 9.91 0 0 1 3.86-0.69 6.0001 6 0 0 1 4.4 1.6 5.8701 5.87 0 0 1 1.6 4.34v20h4.8601v-19.42a18.32 18.32 0 0 0-0.49001-4.37 8.2901 8.29 0 0 0-1.69-3.4z"/>
</svg>
