<svg version="1.1" viewBox="0 0 501 171" xml:space="preserve" xmlns="http://www.w3.org/2000/svg"><rect x=".50079" y=".50079" width="500" height="170" fill="#9089f0" stroke="#fff" stroke-width="1.0016"/><g transform="translate(24.075 -63.998)"><title>LOGO BFBS Radio 2</title><path d="m155.5 141.2c1.1-0.3 2.2-0.8 3.1-1.5s1.7-1.6 2.2-2.6c1.2-2.7 1-5.8-0.4-8.4-0.9-1.3-2.2-2.2-3.8-2.6 1.1-0.5 2.1-1.3 2.8-2.4s1-2.3 0.9-3.6c0-1.2-0.2-2.3-0.6-3.4-0.4-0.9-1-1.6-1.8-2.2s-1.8-1-2.8-1.2c-1.2-0.2-2.3-0.4-3.5-0.4h-12.9v28.7h13.3c1.2 0.1 2.4 0 3.5-0.4zm-10.8-23.3h5.6c0.5 0 1 0 1.5 0.1s0.9 0.3 1.3 0.5c0.4 0.3 0.7 0.6 0.9 1 0.2 0.5 0.4 1.1 0.3 1.6 0.1 1-0.3 2-1 2.6-0.8 0.6-1.7 0.8-2.6 0.8h-6.1zm0 18.9v-7.9h6.6c1.1-0.1 2.2 0.3 3.1 0.9 0.9 0.8 1.3 2 1.2 3.2 0 0.6-0.1 1.3-0.4 1.8-0.2 0.5-0.6 0.9-1 1.1-0.4 0.3-0.9 0.5-1.4 0.6-0.6 0.1-1.1 0.2-1.7 0.2z" fill="#fff"/><polygon points="172.4 118.3 185.6 118.3 185.6 113 166.4 113 166.4 141.7 172.4 141.7 172.4 129.9 183.9 129.9 183.9 125 172.4 125" fill="#fff"/><path d="m206.7 141.2c1.1-0.3 2.2-0.8 3.1-1.5s1.7-1.6 2.2-2.6c1.2-2.7 1-5.8-0.4-8.4-0.9-1.3-2.2-2.2-3.8-2.6 1.1-0.5 2.1-1.3 2.8-2.4s1-2.4 0.9-3.6c0-1.2-0.2-2.3-0.6-3.4-0.4-0.9-1-1.6-1.8-2.2s-1.8-1-2.8-1.2c-1.2-0.2-2.3-0.4-3.5-0.4h-12.9v28.7h13.3c1.2 0.1 2.4 0 3.5-0.4zm-10.8-23.3h5.6c0.5 0 1 0 1.5 0.1s0.9 0.3 1.3 0.5c0.4 0.3 0.7 0.6 0.9 1 0.2 0.5 0.4 1.1 0.3 1.6 0.1 1-0.3 2-1 2.6-0.8 0.6-1.7 0.8-2.6 0.8h-6.1zm0 18.9v-7.9h6.6c1.1-0.1 2.2 0.3 3.1 0.9 0.9 0.8 1.3 2 1.2 3.2 0 0.6-0.1 1.3-0.4 1.8-0.2 0.5-0.6 0.9-1 1.1-0.4 0.3-0.9 0.5-1.4 0.6-0.6 0.1-1.1 0.2-1.7 0.2z" fill="#fff"/><path d="m237.9 129.2c-0.6-1-1.4-1.8-2.3-2.5-0.8-0.6-1.7-1-2.7-1.4-0.9-0.3-1.6-0.5-2.1-0.6l-4.2-1.1c-0.9-0.2-1.7-0.5-2.5-0.9-0.5-0.2-0.9-0.5-1.2-1-0.2-0.4-0.3-0.9-0.3-1.4s0.1-1.1 0.4-1.5 0.6-0.7 1-1 0.8-0.5 1.3-0.6 1-0.2 1.5-0.2c0.7 0 1.4 0.1 2 0.2s1.2 0.4 1.7 0.7 0.9 0.8 1.2 1.3c0.3 0.7 0.5 1.4 0.5 2.1h5.8c0-1.5-0.3-2.9-0.9-4.2-0.6-1.1-1.4-2.1-2.4-2.9-1.1-0.8-2.3-1.3-3.5-1.6-1.3-0.3-2.7-0.5-4.1-0.5-1.2 0-2.5 0.2-3.7 0.5s-2.3 0.9-3.3 1.6-1.8 1.7-2.4 2.7c-0.6 1.2-0.9 2.5-0.9 3.8 0 1.2 0.2 2.3 0.7 3.4 0.4 0.9 1.1 1.7 1.9 2.3s1.7 1.1 2.6 1.5c1 0.4 2 0.7 3 1s2 0.6 2.9 0.8 1.8 0.5 2.6 0.9c0.7 0.3 1.3 0.7 1.9 1.2 0.5 0.5 0.7 1.2 0.7 1.9 0 0.6-0.2 1.2-0.5 1.8-0.4 0.5-0.8 0.8-1.3 1.1-0.6 0.3-1.1 0.5-1.8 0.5-0.6 0.1-1.2 0.1-1.8 0.1-0.8 0-1.5-0.1-2.3-0.3-0.7-0.2-1.4-0.5-1.9-0.9-0.6-0.4-1-1-1.3-1.6-0.4-0.8-0.5-1.6-0.5-2.5h-5.9c-0.1 1.6 0.2 3.1 0.9 4.6 0.6 1.2 1.5 2.3 2.6 3.2 1.1 0.8 2.4 1.5 3.8 1.8 1.4 0.4 2.9 0.6 4.4 0.6 1.7 0 3.3-0.2 4.9-0.7 1.3-0.4 2.5-1 3.5-1.9 0.9-0.8 1.7-1.8 2.2-2.9 0.5-1.2 0.7-2.4 0.7-3.7 0.1-1.1-0.2-2.4-0.9-3.7z" fill="#fff"/><path d="m165.9 185.2-0.3-2.7c0-0.9-0.1-1.8-0.1-2.7-0.1-0.9-0.2-1.7-0.4-2.5s-0.5-1.5-0.9-2.2-0.9-1.2-1.6-1.7c-0.8-0.5-1.6-0.9-2.6-1v-0.1c2-0.5 3.7-1.7 4.8-3.4 1-1.8 1.5-3.8 1.5-5.8 0.1-2.6-0.9-5.2-2.9-7-1.9-1.7-4.6-2.5-8.1-2.5h-17.1v36.3h4.8v-15.5h11.8c1 0 1.9 0.1 2.8 0.5 0.7 0.3 1.3 0.8 1.8 1.4s0.8 1.3 1 2.1 0.4 1.6 0.5 2.5c0.2 0.9 0.3 1.8 0.3 2.7s0.1 1.8 0.1 2.6c0 0.7 0.1 1.4 0.2 2.2 0.1 0.6 0.3 1.1 0.7 1.5h5.4c-0.5-0.6-0.9-1.3-1.1-2.1-0.3-0.9-0.5-1.7-0.6-2.6zm-6.9-16.2c-0.8 0.5-1.7 0.8-2.6 1-1.1 0.2-2.1 0.3-3.2 0.3h-10.1v-12.7h12c2.3 0 3.9 0.6 4.9 1.8s1.6 2.8 1.5 4.5c0 1.1-0.2 2.2-0.7 3.2-0.4 0.7-1 1.4-1.8 1.9z" fill="#fff"/><path d="m192.1 185.8c-0.1-0.7-0.2-1.5-0.2-2.2v-13.5c0.1-1.3-0.3-2.6-0.9-3.7-0.6-0.9-1.3-1.7-2.3-2.2s-2.1-0.9-3.2-1c-1.2-0.2-2.3-0.3-3.5-0.3-1.4 0-2.8 0.1-4.2 0.5-1.3 0.3-2.4 0.8-3.5 1.5-1 0.7-1.9 1.6-2.4 2.7-0.7 1.3-1 2.7-1 4.1h4.3c0.1-1.9 0.8-3.2 2-3.9 1.4-0.7 3-1.1 4.6-1 0.7 0 1.4 0 2.1 0.1s1.3 0.3 1.9 0.6 1 0.8 1.4 1.3c0.4 0.7 0.6 1.5 0.5 2.3 0 0.7-0.2 1.4-0.7 1.9-0.6 0.5-1.2 0.8-1.9 1-0.9 0.2-1.9 0.4-2.8 0.5-1.1 0.1-2.2 0.3-3.4 0.5s-2.3 0.5-3.3 0.8-2 0.7-2.8 1.3-1.5 1.4-2 2.3c-0.6 1.1-0.8 2.4-0.8 3.7 0 1.2 0.2 2.3 0.7 3.4 0.4 0.9 1.1 1.7 1.9 2.3s1.8 1 2.8 1.3c2.8 0.7 5.8 0.5 8.5-0.5 1.6-0.7 3-1.7 4.1-3.1-0.1 1.1 0.3 2.2 1 3.1 0.7 0.6 1.7 1 2.6 0.9 1.1 0.1 2.1-0.2 3.1-0.7v-3.4c-0.4 0.1-0.9 0.2-1.3 0.2-0.8 0-1.2-0.3-1.3-0.8zm-4.5-5.2c0 0.7-0.2 1.3-0.5 1.9-0.3 0.7-0.8 1.4-1.4 1.9-0.7 0.6-1.6 1.1-2.5 1.5-1.2 0.4-2.4 0.6-3.7 0.6-0.6 0-1.3-0.1-1.9-0.2s-1.1-0.3-1.6-0.7c-0.5-0.3-0.8-0.7-1.1-1.2s-0.4-1.1-0.4-1.8c0-0.9 0.2-1.8 0.7-2.6 0.5-0.6 1.2-1.1 1.9-1.4 0.8-0.4 1.7-0.6 2.6-0.7 1-0.2 2-0.3 2.9-0.4 1-0.1 1.9-0.3 2.8-0.5 0.8-0.1 1.5-0.4 2.1-0.9z" fill="#fff"/><path d="m217.7 167h-0.1c-0.5-0.8-1.1-1.4-1.8-2-0.7-0.5-1.4-0.9-2.2-1.3-0.8-0.3-1.5-0.5-2.3-0.7-0.7-0.1-1.4-0.2-2.2-0.2-1.8 0-3.6 0.3-5.3 1.1-1.5 0.7-2.7 1.7-3.8 2.9-1 1.3-1.8 2.8-2.2 4.3-0.5 1.7-0.7 3.5-0.7 5.3s0.2 3.6 0.8 5.3c0.5 1.6 1.2 3.1 2.3 4.4 1 1.3 2.3 2.3 3.8 3 1.6 0.8 3.5 1.2 5.3 1.1 1.7 0 3.4-0.3 5-1 1.5-0.6 2.7-1.7 3.4-3.1h0.1v3.5h4.3v-36.2h-4.3zm-0.2 13.3c-0.3 1.1-0.7 2.2-1.4 3.2-1.4 2-3.7 3.2-6.2 3.1-1.3 0-2.5-0.2-3.6-0.8-1-0.5-1.9-1.3-2.5-2.2-0.7-0.9-1.2-2-1.5-3.1-0.3-1.2-0.5-2.4-0.5-3.6 0-1.3 0.1-2.5 0.4-3.8 0.2-1.2 0.7-2.3 1.3-3.3s1.4-1.7 2.4-2.3c1.1-0.6 2.4-0.9 3.7-0.9s2.6 0.3 3.8 0.9c1 0.5 1.9 1.3 2.6 2.2 0.7 1 1.2 2 1.5 3.2 0.6 2.5 0.6 5 0 7.4z" fill="#fff"/><rect x="228.9" y="153.5" width="4.3" height="5.3" fill="#fff"/><rect x="228.9" y="163.5" width="4.3" height="26.3" fill="#fff"/><path d="m260.8 166.9c-1.1-1.2-2.5-2.2-4-2.9-3.5-1.4-7.5-1.4-11 0-1.5 0.7-2.9 1.7-4 2.9-1.1 1.3-1.9 2.8-2.4 4.4-0.6 1.7-0.8 3.6-0.8 5.4s0.3 3.6 0.8 5.4c0.5 1.6 1.3 3.1 2.4 4.3 1.1 1.3 2.5 2.2 4 2.9 3.5 1.4 7.5 1.4 11 0 1.5-0.7 2.9-1.6 4-2.9s1.9-2.7 2.4-4.3c0.6-1.7 0.8-3.6 0.8-5.4s-0.3-3.7-0.8-5.4c-0.5-1.6-1.3-3.1-2.4-4.4zm-2 14c-0.4 1.1-1 2.2-1.8 3.1-0.7 0.8-1.6 1.5-2.6 1.9-2 0.9-4.3 0.9-6.3 0-1-0.4-1.9-1.1-2.6-1.9-0.8-0.9-1.4-2-1.8-3.1-0.8-2.8-0.8-5.7 0-8.5 0.4-1.1 1-2.2 1.8-3.1 0.7-0.8 1.6-1.5 2.6-1.9 2-0.9 4.3-0.9 6.3 0 1 0.4 1.9 1.1 2.6 1.9 0.8 0.9 1.4 2 1.8 3.1 0.9 2.8 0.9 5.8 0 8.5z" fill="#fff"/><path d="m282.5 183c0.7-0.9 1.5-1.7 2.4-2.4 1-0.8 2-1.5 3.1-2.1 1.1-0.7 2.2-1.3 3.4-2 1.1-0.7 2.2-1.4 3.3-2.2 1-0.8 2-1.7 2.8-2.6 0.8-1 1.5-2.1 2-3.3 0.5-1.3 0.8-2.8 0.7-4.2 0-1.5-0.3-3.1-0.9-4.5-0.6-1.2-1.4-2.3-2.4-3.2-1.1-0.9-2.3-1.6-3.6-2-1.4-0.5-2.9-0.7-4.4-0.7-1.7 0-3.5 0.3-5.1 1-1.4 0.6-2.7 1.5-3.7 2.6-1 1.2-1.8 2.5-2.2 4-0.5 1.6-0.7 3.4-0.6 5.1h4.3c0-1.1 0.1-2.2 0.3-3.2s0.7-2 1.2-2.9c0.6-0.8 1.3-1.5 2.2-2.1 1-0.5 2.1-0.8 3.2-0.8 0.9 0 1.8 0.1 2.7 0.5 0.8 0.3 1.6 0.7 2.2 1.3s1.1 1.3 1.5 2.1 0.6 1.7 0.6 2.6c0.1 2.2-0.8 4.4-2.3 5.9-0.9 0.9-1.8 1.7-2.9 2.4-1.2 0.8-2.5 1.7-4 2.6-1.3 0.7-2.5 1.5-3.6 2.4-1.2 0.8-2.2 1.8-3.1 2.9-1 1.2-1.7 2.5-2.3 3.9-0.6 1.8-1 3.6-1.1 5.5h23.5v-3.8h-18.5c0.2-0.9 0.6-1.9 1.3-2.8z" fill="#fff"/></g><g transform="translate(24.075 -63.998)"><path d="m62 87.6c-34.4 0-62.4 27.9-62.4 62.4 0 34.4 27.9 62.4 62.4 62.4 34.4 0 62.4-27.9 62.4-62.4-0.1-34.4-28-62.4-62.4-62.4zm0.2 110.4c-26.5 0-48-21.5-48-48s21.5-48 48-48 48 21.5 48 48c0.1 26.5-21.4 48-48 48z" clip-rule="evenodd" fill="#7f3f98" fill-rule="evenodd"/><path d="m36.8 183v-11.9l9.9-8.7c14.5-12.5 21.8-19.9 21.9-27.2 0-5.1-3.4-8.9-10.6-8.9-5.9 0-11.3 3-15.2 5.8l-5.4-14.1c5.5-4.1 14.5-7.4 24.5-7.4 16.5 0 26.4 9 26.4 23 0 11.4-8.1 20.6-16.5 27.5l-7 5.5v0.2h24.8v16.2z" fill="#fff"/></g></svg>
