<svg version="1.1" viewBox="0 0 800.01 487.53" xml:space="preserve" xmlns="http://www.w3.org/2000/svg">
	<path d="m318.25 194.62s44.939 103.26 45.895 132.9-12.43 76.491-4.3026 84.618 53.066 12.43 52.11 27.728-40.636 20.557-57.368 17.211c-16.254-2.8684-33.943-19.601-45.895-33.943-12.43-14.342-57.368-131.95-67.408-144.86-10.039-13.386-37.768-29.64-52.11-44.939s-34.899-43.982-38.724-58.325c-4.3026-14.342 1.9123-32.509 1.9123-32.509" fill="none"/>
	<path d="m202.08 246.73c-10.039 16.254-75.535 107.09-89.877 113.3-14.342 6.2149-49.241 21.513-47.807 25.338 0.95614 4.3026 20.557 23.425 27.728 23.425s23.425-1.9123 29.64 0.95614 12.43 12.43 16.254 13.386c4.3026 0.95614 10.039-1.9123 10.039 1.9123s-4.3026 10.039-10.996 11.474c-7.171 0.95614-18.167 7.171-47.807 6.2149-62.149 0-77.447-62.149-74.579-77.447s31.553-23.425 44.939-44.939 11.474-37.768 36.811-70.276c25.338-32.509 0-81.75 12.43-121.43 12.43-39.68 30.596-65.496 67.408-78.882s106.13-18.167 181.67-8.1272 112.35 0.95614 133.86 0.95614 31.553 4.3026 46.851-1.9123 52.11-43.026 87.965-26.772c35.855 16.254 62.149 46.851 62.149 54.022s-15.298 5.2588-16.254 11.474 31.553 37.768 31.553 49.241c0 10.996-10.039 29.64-17.211 33.943s-24.382 2.8684-31.553 2.8684-18.167 20.557-18.167 20.557 13.386 63.105 30.596 105.18 54.978 94.18 62.149 102.31 23.425 38.724 28.684 39.68 16.254 13.386 23.425 25.338c7.171 12.43-7.171 9.0833-7.171 9.0833s-21.513-18.167-26.772-19.601c-5.2588-0.95614-16.254 0-16.254 0s-162.54-142.94-165.41-150.11-12.43-29.64-12.43-29.64-42.07 11.474-47.807 21.513c-6.2149 10.039-14.342 52.11-20.557 64.539s-39.68 79.838-21.513 81.75 49.241 15.298 37.768 26.772-44.939 13.386-63.105 2.8684c-18.167-10.039-21.513-34.899-21.513-40.636 0-6.2149 8.1272-111.39 9.0833-119.52s-13.386-26.772-6.2149-37.768c7.171-11.474 9.0833-30.596 9.0833-30.596s-65.496 5.2588-92.746-8.1272" fill="none"/>
	<path d="m1.7674 461.38s54.978-10.039 78.882-13.386c23.425-2.8684 64.539 0.95614 79.838 4.3026 15.298 2.8684 26.772 13.386 47.807 15.298 21.513 1.9123 64.539-8.1272 79.838-9.0833s58.325 0 76.491 1.9123 77.447 18.167 96.092 17.211c18.167-0.95614 106.13-9.0833 127.64-9.0833s65.496-1.9123 87.009 0.95614 58.325 4.3026 73.623 1.9123c15.298-1.9123 38.724-2.8684 38.724-2.8684l11.474-0.95614" fill="none"/>
	<path d="m439.68 225.69-0.95614 11.952c0 2.3904-2.3904 21.991-10.518 34.899 0 0 0 0.47807-0.47807 0.95614v2.8684c0.47807 3.8246 2.3904 9.0833 3.8246 12.908 2.3904 6.2149 4.7807 11.952 3.8246 17.689-0.95614 8.6053-9.0833 112.35-9.0833 118.08 0 4.7807 2.8684 24.86 16.254 32.031 6.2149 3.3465 15.298 5.2588 24.382 5.2588l0.47807-15.776c-1.9123-0.47807-3.3465-0.47807-5.2588-0.95614-5.2588-0.47807-9.5614-3.3465-11.952-7.6491-2.8684-5.2588-9.0833-16.732 21.035-78.882l5.7368-132.43z" fill="#fc0" stroke-width="4.7807"/>
	<path d="m419.12 461.86v0.47807h0.47807s0-0.47807-0.47807-0.47807" fill="#fc0" stroke-width="4.7807"/>
</svg>
