<svg Googl="true" version="1.1" viewBox="0 0 550.48 800" xml:space="preserve" xmlns="http://www.w3.org/2000/svg" xmlns:xlink="http://www.w3.org/1999/xlink"><defs><filter id="filter853" color-interpolation-filters="sRGB"><feColorMatrix result="color1" type="hueRotate" values="180"/><feColorMatrix result="color2" values="-1 0 0 0 1 0 -1 0 0 1 0 0 -1 0 1 -0.21 -0.72 -0.07 2 0 "/></filter></defs>
<style type="text/css">
	.st0{clip-path:url(#a);fill:none;stroke:#004861;stroke-width:4.116;}
	.st1{clip-path:url(#a);fill:#DCDC0E;}
</style>
<g transform="matrix(5.9694,0,0,5.9694,-224.7,-83.226)">
	<defs>
		<rect id="b" x="-40" y="-40" width="250" height="250"/>
	</defs>
	<clipPath id="a">
		<use width="100%" height="100%" xlink:href="#b"/>
	</clipPath>
	<path class="st0" d="m127.9 145.9h-88.2v-9.2c0-29 22.1-41 40.8-54.3 10.1-7.2 19.3-15.3 19.3-24.5 0-8.3-4.9-15.1-15.1-15.1-10.6 0-17.5 7.6-17.3 16h-27.2c0-25.2 19.5-42.8 45.4-42.8 21.6 0 41.4 13.5 41.4 40 0 22.8-11.3 34.2-26.3 45.2-6.1 4.5-19.3 11.5-22.7 18h49.8v26.7z" clip-path="url(#a)" fill="none" filter="url(#filter853)" stroke="#004861" stroke-width="4.116"/>
	<path class="st1" d="m51.7 56.8v-24.2c-5.6 6.5-8.9 14.8-9.4 24.2z" clip-path="url(#a)" fill="#dcdc0e"/>
	<path class="st1" d="m51.7 108.5c-6 7.4-9.9 16.4-9.9 28.3v7.1h9.9z" clip-path="url(#a)" fill="#dcdc0e"/>
</g>
</svg>
