<svg version="1.1" viewBox="0 0 800 773.31" xml:space="preserve" xmlns="http://www.w3.org/2000/svg" xmlns:xlink="http://www.w3.org/1999/xlink">
	<defs>
		<clipPath id="a">
			<use xlink:href="#SVGID_3_"/>
		</clipPath>
	</defs>
	<style type="text/css">
		.st0{clip-path:url(#SVGID_2_);}
		.st1{opacity:0.7;clip-path:url(#a);}
		.st2{clip-path:url(#a);fill:none;stroke:#004861;stroke-width:4.116;stroke-miterlimit:10;}
		.st3{clip-path:url(#a);fill:#FFCC00;}
		.st4{clip-path:url(#a);fill:#004861;}
	</style>
	<path class="st2" transform="matrix(4.8118 0 0 4.8118 -10.013 -17.482)" d="m130.7 18.3c0.8-0.3 17.1-12.3 9.6-12.6s-31 8.8-35.3 14.7 2.7 8 2.4 10.2c-0.3 2.1-5.1 1.3-6.2 9.4-1.1 8 6.7 15.5 6.7 15.5s-21.6 1.8-43.5 19.5-28.1 34-33.4 44.9c-12.8 9.6-25.4 27.5-26.7 34.2s5.1 10.2 9.4 7 20.6-31 37.7-42c45.2-2.9 71.1-17.9 76.2-42.8 3.2-15.5-1.9-30.2-1.9-30.2s2.2-4.3 7.5-8.1c5.6-4.1 14.7-9.5 32.6-3.1-1.3-8.8-9.1-16-18.4-17.4-16-2.7-25.1 4.8-25.1 4.8s-0.3 8.7 1.5 12.1c1.9 3.5 9.4 3.5 9.4 3.5"/>
	<path class="st2" transform="matrix(4.8118 0 0 4.8118 -10.013 -17.482)" d="m70.3 116.9 9.3 14.2 7.2-17.9"/>
	<path class="st2" transform="matrix(4.8118 0 0 4.8118 -10.013 -17.482)" d="m66 134.3h27.5"/>
	<path class="st3" transform="matrix(4.8118 0 0 4.8118 -10.013 -17.482)" d="m113.2 57.1v-40.2c-3.1 1.7-5.5 3.4-6.5 4.8-1.8 2.4-1 3.4 0.8 5.3 1 1 2.2 2.2 2 3.9s-1.5 2.5-2.5 3.1c-1.4 0.9-3.1 1.9-3.7 6.3-0.9 6.9 6 13.7 6.1 13.8l3.2 3.1z"/>
	<path class="st4" transform="matrix(4.8118 0 0 4.8118 -10.013 -17.482)" d="m117.3 30.9c0 1.2-1 2.1-2.1 2.1-1.2 0-2.1-1-2.1-2.1 0-1.2 1-2.1 2.1-2.1 1.2-0.1 2.1 0.9 2.1 2.1"/>
</svg>
