<svg width="600" height="600.02" version="1.1" viewBox="0 0 158.75 158.7563" xmlns="http://www.w3.org/2000/svg">
 <defs>
  <linearGradient id="a" x2="1" gradientTransform="matrix(139.53 0 0 139.53 28.364 205.29)" gradientUnits="userSpaceOnUse">
   <stop stop-color="#b25625" offset="0"/>
   <stop stop-color="#f5b88b" offset=".58303"/>
   <stop stop-color="#b25625" offset="1"/>
  </linearGradient>
 </defs>
 <g transform="translate(-26.458 -69.456)">
  <path d="m28.363 226.31h154.94v-154.95h-154.94z" fill="#1f2748"/>
  <g fill="#fff">
   <path d="m157.25 89.239-7.6411 31.473h-0.14929l-7.6379-31.473h-63.078v31.448c-1.6064-4.0592-4.8372-6.37-8.2572-7.5475 3.9845-2.17 6.6024-5.0864 6.6024-10.489 0-5.4722-2.9984-13.412-17.088-13.412h-29.297v53.492h30.35c7.6369 0 15.079-3.6849 17.691-10.737v10.737h16.471v-20.375h15.057v-12.285h-15.096v-8.1005h23.191v40.76h15.584v-34.31h0.15455l9.279 34.31h12.291l9.2843-34.31h0.15769v34.31h15.585v-53.492zm-110.1 12.732h8.7387c3.3716 0 5.6246 0.97353 5.6246 3.6765 0 3.4452-2.1784 4.424-5.6246 4.424h-8.7387zm9.7059 28.024h-9.6617v-9.9593h10.338c3.9046 0 5.7781 1.7179 5.7781 4.8708 0 4.1191-2.9984 5.0884-6.4541 5.0884"/>
   <path d="m37.753 170.15v7.4518h1.9187c2.7524 0 4.1296-1.2206 4.1296-3.6492 0-1.5276-0.36797-2.5432-1.1071-3.0436-0.72857-0.50359-1.7631-0.75906-3.1204-0.75906zm0-14.237v7.2226h1.8209c1.1165 0 1.9628-0.33012 2.5211-0.983 0.57087-0.62344 0.85158-1.5265 0.85158-2.7187 0-1.2553-0.35325-2.1668-1.0682-2.7166-0.71911-0.53723-1.5696-0.80427-2.561-0.80427zm-7.209-6.9998h8.2372c2.0669 0 3.9625 0.29753 5.693 0.88102 1.6842 0.57823 3.0625 1.5633 4.1254 2.9753 1.0366 1.3699 1.5581 3.2118 1.5581 5.5079 0 1.7431-0.34273 3.2623-1.024 4.5512-0.68652 1.31-1.6159 2.2824-2.7808 2.9196v0.12721c0.66444 0.33537 1.2931 0.78639 1.8672 1.3583 0.55616 0.55405 1.0503 1.2153 1.4845 1.986 0.41002 0.73699 0.73278 1.5686 0.97143 2.4906 0.22183 0.93989 0.33327 1.9292 0.33327 2.9679 0 2.9858-0.86945 5.386-2.6094 7.1985-1.7494 1.8272-4.3956 2.7398-7.9418 2.7398h-9.9141z"/>
   <path d="m75.034 148.95v23.299c0 2.6977-0.512 5.0453-1.5402 7.0397-1.0272 2.0175-2.4401 3.5409-4.2495 4.5775-1.8135 1.0555-3.8962 1.5886-6.246 1.5886-2.192 0-4.1202-0.45207-5.7634-1.3604-1.6622-0.90099-2.9458-2.2993-3.8531-4.1727-0.92938-1.8766-1.3836-4.2264-1.3836-7.0513v-23.95l6.8936 0.0305v21.408c0 1.3888 0.12721 2.5968 0.37848 3.6008 0.26599 1.0555 0.70544 1.8777 1.3426 2.4685 0.61713 0.61398 1.4708 0.92307 2.5705 0.92307 2.0427 0 3.3821-0.76011 4.0255-2.2866 0.63606-1.5434 0.94935-3.7459 0.94935-6.6171v-19.527z"/>
   <path d="m90.245 158.36c-0.81478-0.99351-1.536-1.6895-2.1542-2.0942-0.65918-0.43315-1.4214-0.65078-2.2898-0.65078-0.64447 0-1.2511 0.25653-1.8178 0.77483-0.59505 0.52462-0.88838 1.2101-0.88838 2.0648 0 1.2101 0.64762 2.1657 1.9376 2.868 1.3184 0.72016 2.6662 1.4193 4.0497 2.09 1.3951 0.70124 2.6073 1.823 3.6313 3.3422 1.0187 1.5486 1.5213 3.8079 1.5213 6.7958 0 3.8216-0.90309 6.758-2.704 8.8038-1.7915 2.0669-4.0771 3.0951-6.8557 3.0951-1.6085 0-3.1635-0.3543-4.6616-1.0566-1.5129-0.70334-2.8502-1.7599-3.9898-3.1677l3.7091-6.7443c1.188 1.9124 2.7492 2.8649 4.6879 2.8649 0.77483 0 1.5171-0.2744 2.2236-0.82635 0.70019-0.53618 1.0545-1.3257 1.0545-2.3655 0-1.228-0.65077-2.1994-1.9555-2.9185-0.58664-0.31961-1.2511-0.68547-2.0217-1.0829l-1.0229-0.52672-1.0471-0.55721c-1.4067-0.73278-2.6136-1.8493-3.6134-3.3485-1.0009-1.4708-1.5034-3.6776-1.5034-6.6087 0-2.2488 0.43525-4.2116 1.3068-5.8874 0.84106-1.6601 1.9691-2.9385 3.3758-3.8258 1.3657-0.87155 2.8344-1.3079 4.4093-1.3079 1.4466 0 2.8659 0.3501 4.2621 1.0545 1.4235 0.73803 2.6641 1.761 3.7333 3.072z"/>
   <path d="m95.231 152.01 6.8747-3.8195v36.424l-6.8747-0.0231z"/>
   <path d="m126.91 184.64-15.746-17.042 0.0242 16.944h-6.9178v-36.13l15.767 16.983v-16.484l6.8726 0.0568z"/>
   <path d="m142.79 184.62h-13.982v-35.703h15.356v7.5801h-8.4811v6.1881h7.107v7.5202h-7.107v6.8915h7.107z"/>
   <path d="m158.87 158.36c-0.82003-0.99351-1.5423-1.6895-2.1594-2.0942-0.65604-0.43315-1.4193-0.65078-2.2909-0.65078-0.64341 0-1.249 0.25653-1.8188 0.77483-0.59085 0.52462-0.88627 1.2101-0.88627 2.0648 0 1.2101 0.64762 2.1657 1.9366 2.868 1.3173 0.72016 2.663 1.4193 4.0497 2.09 1.392 0.70124 2.6062 1.823 3.6323 3.3422 1.0156 1.5486 1.5223 3.8079 1.5223 6.7958 0 3.8216-0.90415 6.758-2.7051 8.8038-1.7936 2.0669-4.0792 3.0951-6.8536 3.0951-1.6054 0-3.1656-0.3543-4.6626-1.0566-1.5181-0.70334-2.8449-1.7599-3.9972-3.1677l3.7207-6.7443c1.1838 1.9124 2.7471 2.8649 4.6816 2.8649 0.77588 0 1.5171-0.2744 2.2299-0.82635 0.70439-0.53618 1.045-1.3257 1.045-2.3655 0-1.228-0.64762-2.1994-1.9523-2.9185-0.57823-0.31961-1.2511-0.68547-2.0144-1.0829l-1.0324-0.52672-1.044-0.55721c-1.4088-0.73278-2.6147-1.8493-3.6145-3.3485-1.004-1.4708-1.5024-3.6776-1.5024-6.6087 0-2.2488 0.42894-4.2116 1.3058-5.8874 0.84527-1.6601 1.9712-2.9385 3.3758-3.8258 1.3741-0.87155 2.8428-1.3079 4.4114-1.3079 1.4403 0 2.8659 0.3501 4.2579 1.0545 1.4319 0.73803 2.6735 1.761 3.7343 3.072z"/>
   <path d="m176.86 158.36c-0.81373-0.99351-1.5307-1.6895-2.151-2.0942-0.65393-0.43315-1.4214-0.65078-2.2972-0.65078-0.64026 0-1.2458 0.25653-1.8094 0.77483-0.59189 0.52462-0.89363 1.2101-0.89363 2.0648 0 1.2101 0.64973 2.1657 1.9376 2.868 1.3184 0.72016 2.6714 1.4193 4.0529 2.09 1.3899 0.70124 2.6042 1.823 3.6324 3.3422 1.0082 1.5486 1.5223 3.8079 1.5223 6.7958 0 3.8216-0.9031 6.758-2.7114 8.8038-1.7894 2.0669-4.0739 3.0951-6.8484 3.0951-1.6106 0-3.1656-0.3543-4.6637-1.0566-1.5192-0.70334-2.8491-1.7599-3.9877-3.1677l3.708-6.7443c1.1901 1.9124 2.7503 2.8649 4.6837 2.8649 0.77483 0 1.5213-0.2744 2.232-0.82635 0.69808-0.53618 1.0513-1.3257 1.0513-2.3655 0-1.228-0.65813-2.1994-1.9586-2.9185-0.58349-0.31961-1.2563-0.68547-2.0164-1.0829l-1.024-0.52672-1.0513-0.55721c-1.4077-0.73278-2.6104-1.8493-3.6124-3.3485-1.004-1.4708-1.5034-3.6776-1.5034-6.6087 0-2.2488 0.43315-4.2116 1.3005-5.8874 0.84842-1.6601 1.9712-2.9385 3.379-3.8258 1.3751-0.87155 2.846-1.3079 4.4061-1.3079 1.4519 0 2.8722 0.3501 4.2747 1.0545 1.4193 0.73803 2.662 1.761 3.727 3.072z"/>
  </g>
  <path d="m140.57 201.18-20.063-12.955-23.067 15.673-19.305-7.6064-49.773 29.572v0.42053h13.409l37.394-21.813 19.065 7.9943 22.246-15.176 20.347 13.129 27.064-22.509c-4.2011-1.2332-4.8918-1.8735-6.6823-3.6239-0.0568 0-20.636 16.894-20.636 16.894" fill="url(#a)"/>
  <path d="m183.38 226.38h-155.09v-155.1h155.09zm-156.92 1.8325h158.75v-158.76h-158.75z" fill="#fff"/>
 </g>
</svg>
