<svg Googl="true" version="1.1" viewBox="0 0 800 800" xml:space="preserve" xmlns="http://www.w3.org/2000/svg">
<style type="text/css">
	.st0{fill:none;}
	.st1{fill:#FFFFFF;}
	.st2{fill:#ED8C23;}
</style>
<path d="m0 0h800v800h-800z" fill="#273c8a" stroke-width="9.5238"/><path class="st0" d="m0 0h800v800h-800z" fill="none" stroke-width="9.5238"/>
<path class="st1" d="m170.48 386.67h-45.714v-46.667h48.571c18.095 0 26.667 7.619 26.667 22.857 0.95238 19.048-13.333 23.81-29.524 23.81m-45.714-132.38h40.952c16.19 0 26.667 4.7619 26.667 17.143 0 16.19-10.476 20.952-26.667 20.952h-40.952zm517.14-60-35.238 148.57h-0.95238l-36.19-147.62h-296.19v147.62c-7.619-19.048-22.857-29.524-39.048-35.238 19.048-10.476 31.429-23.81 31.429-49.524 0-25.714-14.286-62.857-80-62.857h-138.1v251.43h142.86c36.19 0 70.476-17.143 82.857-50.476v50.476h77.143v-96.19h70.476v-58.095h-70.476v-38.095h108.57v191.43h73.333v-160.95h0.95238l43.81 160.95h58.095l43.81-160.95h0.95238v160.95h72.381v-251.43z" stroke-width="9.5238"/>
<path class="st2" d="m126.67 514.29v17.143c-8.5714-6.6667-17.143-10.476-25.714-10.476-9.5238 0-18.095 3.8095-24.762 10.476-5.7143 6.6667-9.5238 15.238-9.5238 25.714 0 9.5238 3.8095 18.095 10.476 24.762 6.6667 6.6667 15.238 10.476 24.762 10.476 4.7619 0 9.5238-0.95238 12.381-2.8571 1.9048-0.95238 3.8095-1.9048 5.7143-2.8571s4.7619-2.8572 6.6667-4.7619v17.143c-8.5714 4.7619-17.143 6.6667-25.714 6.6667-13.333 0-24.762-4.7619-34.286-14.286-9.5238-9.5238-14.286-20.952-14.286-34.286 0-12.381 3.8095-22.857 12.381-32.381 9.5238-11.429 22.857-17.143 38.095-17.143 8.5714 0 16.19 1.9048 23.81 6.6667zm2.8571 41.905c0-13.333 4.7619-24.762 14.286-34.286s20.952-14.286 35.238-14.286c13.333 0 24.762 4.7619 34.286 14.286s14.286 20.952 14.286 34.286c0 13.333-4.7619 24.762-14.286 34.286s-21.905 14.286-35.238 14.286c-12.381 0-22.857-3.8095-32.381-12.381-11.429-9.5238-16.19-20.952-16.19-36.19zm14.286 0c0 10.476 3.8095 19.048 10.476 25.714 6.6667 6.6667 15.238 10.476 23.81 10.476 9.5238 0 18.095-3.8095 24.762-10.476 6.6667-6.6667 10.476-15.238 10.476-25.714s-3.8095-18.095-10.476-25.714c-6.6667-6.6667-15.238-10.476-24.762-10.476s-18.095 3.8095-24.762 10.476c-6.6667 7.619-9.5238 16.19-9.5238 25.714zm13.333-62.857 21.905-20 21.905 20-9.5238 7.619-12.381-11.429-12.381 11.429zm100 29.524v80.952h-14.286v-80.952h-21.905v-13.333h57.143v13.333zm77.143 0h-38.095v22.857h37.143v13.333h-37.143v31.429h38.095v13.333h-52.381v-94.286h52.381zm35.238 80.952v-94.286h20c9.5238 0 17.143 0.95238 22.857 2.8571 5.7143 1.9048 11.429 4.7619 16.19 9.5238 9.5238 8.5714 14.286 20.952 14.286 35.238 0 14.286-4.7619 26.667-15.238 35.238-4.7619 4.7619-10.476 7.619-16.19 9.5238-4.7619 1.9048-12.381 2.8571-21.905 2.8571h-20zm14.286-13.333h6.6667c6.6667 0 11.429-0.95238 16.19-1.9048 3.8095-0.95238 7.619-3.8095 11.429-6.6667 6.6667-6.6667 10.476-14.286 10.476-24.762s-3.8095-19.048-10.476-24.762c-6.6667-5.7143-15.238-8.5714-27.619-8.5714h-6.6667zm75.238-85.714 12.381 4.7619-17.143 35.238-9.5238-3.8095zm54.286 76.19h-40l-10.476 22.857h-15.238l46.667-100 44.762 100h-15.238zm-5.7143-13.333-14.286-32.381-14.286 32.381zm48.571 22.857h45.714v13.333h-68.571l46.667-80.952h-39.048v-13.333h61.905zm64.762-80.952v57.143c0 8.5714 0.95238 14.286 3.8095 18.095 3.8095 5.7143 9.5238 8.5714 17.143 8.5714s12.381-2.8571 17.143-8.5714c2.8571-3.8095 3.8095-9.5238 3.8095-18.095v-57.143h13.333v60.952c0 9.5238-2.8572 18.095-9.5238 24.762-6.6667 7.619-15.238 10.476-25.714 10.476s-19.048-3.8095-25.714-10.476c-6.6667-6.6667-9.5238-14.286-9.5238-24.762v-60.952zm99.048 54.286 29.524 40h-17.143l-27.619-39.048h-2.8571v39.048h-14.286v-94.286h17.143c12.381 0 21.905 1.9048 26.667 6.6667 5.7143 4.7619 9.5238 12.381 9.5238 20.952 0 6.6667-1.9048 12.381-5.7143 17.143-4.7619 4.7619-9.5238 7.619-15.238 9.5238zm-18.095-11.429h4.7619c13.333 0 20-4.7619 20-15.238 0-9.5238-6.6667-14.286-20-14.286h-4.7619z" stroke-width="9.5238"/>
</svg>
