<svg Googl="true" version="1.1" viewBox="0 0 800 800" xml:space="preserve" xmlns="http://www.w3.org/2000/svg">
<style type="text/css">
	.st0{fill:none;}
	.st1{fill:#FFFFFF;}
	.st2{fill:#ED8C23;}
</style>
<path d="m0 0h800v800h-800z" fill="#273c8a" stroke-width="9.5238"/><path class="st0" d="m0 0h800v800h-800z" fill="none" stroke-width="9.5238"/>
<path class="st1" d="m172.38 375.24h-45.714v-46.667h48.571c18.095 0 26.667 7.619 26.667 22.857 0 19.048-13.333 23.81-29.524 23.81m-45.714-131.43h40.952c16.19 0 26.667 4.7619 26.667 17.143 0 16.19-10.476 20.952-26.667 20.952h-40.952zm516.19-60-36.19 147.62h-0.95238l-36.19-147.62h-295.24v147.62c-7.619-19.048-22.857-29.524-39.048-35.238 19.048-10.476 30.476-23.81 30.476-49.524 0-25.714-14.286-62.857-80-62.857h-136.19v250.48h141.9c36.19 0 70.476-17.143 82.857-50.476v50.476h77.143v-95.238h70.476v-57.143h-70.476v-38.095h108.57v191.43h73.333v-161.9h0.95238l43.81 160.95h57.143l43.81-160.95h0.95238v160.95h72.381v-250.48z" stroke-width="9.5238"/>
<path class="st2" d="m47.619 610.48 25.714-129.52 41.905 94.286 42.857-94.286 22.857 129.52h-19.048l-11.429-73.333-36.19 79.048-34.286-78.095-13.333 72.381zm218.1-29.524h-51.429l-14.286 29.524h-19.048l60-128.57 58.095 128.57h-20zm-7.619-17.143-18.095-40.952-19.048 40.952zm81.905-4.7619 37.143 51.429h-21.905l-34.286-49.524h-2.8571v49.524h-18.095v-120.95h20.952c16.19 0 27.619 2.8571 34.286 8.5714 7.619 6.6667 11.429 15.238 11.429 26.667 0 8.5714-2.8572 16.19-7.619 21.905-3.8095 6.6667-10.476 10.476-19.048 12.381zm-21.905-13.333h5.7143c17.143 0 25.714-6.6667 25.714-20 0-12.381-8.5714-18.095-24.762-18.095h-6.6667zm126.67-38.095-15.238 8.5714c-2.8571-4.7619-5.7143-7.619-7.619-9.5238-2.8571-1.9048-5.7143-2.8572-10.476-2.8572-4.7619 0-9.5238 1.9048-12.381 4.7619-3.8095 2.8571-4.7619 6.6667-4.7619 10.476 0 5.7143 4.7619 10.476 13.333 14.286l12.381 4.7619c9.5238 3.8095 17.143 8.5714 21.905 14.286 4.7619 5.7143 6.6667 12.381 6.6667 20.952 0 11.429-3.8095 20-11.429 27.619-7.619 7.619-17.143 10.476-27.619 10.476s-19.048-2.8571-25.714-9.5238c-6.6667-6.6667-10.476-15.238-12.381-26.667l18.095-3.8095c0.95238 6.6667 1.9048 12.381 4.7619 14.286 3.8095 4.7619 9.5238 7.619 16.19 7.619 5.7143 0 10.476-1.9048 14.286-5.7143 3.8095-3.8095 5.7143-8.5714 5.7143-14.286 0-1.9048 0-4.7619-0.95238-6.6667-0.95238-1.9048-1.9048-3.8095-2.8571-5.7143s-2.8572-2.8571-5.7143-4.7619c-1.9048-1.9048-4.7619-2.8572-7.619-3.8095l-11.429-4.7619c-16.19-6.6667-24.762-17.143-24.762-30.476 0-9.5238 3.8095-16.19 10.476-22.857 6.6667-5.7143 15.238-9.5238 25.714-9.5238 13.333 2.8572 23.81 9.5238 31.429 22.857zm77.143-0.95238h-48.571v28.571h46.667v17.143h-46.667v40h48.571v17.143h-66.667v-120h66.667zm27.619-17.143v120.95h-18.095v-120.95zm33.333 0v103.81h35.238v17.143h-53.333v-120.95zm59.048 0v103.81h35.238v17.143h-53.333v-120.95zm108.57 17.143h-48.571v28.571h46.667v17.143h-46.667v40h48.571v17.143h-66.667v-120h66.667z" stroke-width="9.5238"/>
</svg>
