<svg width="600" height="148.04" version="1.1" viewBox="0 0 158.75 39.167671" xmlns="http://www.w3.org/2000/svg" xmlns:xlink="http://www.w3.org/1999/xlink">
 <g transform="translate(-54.33 -153.27)" fill="#fff">
  <path d="m71.611 153.27c-0.20539 0-0.34765 0.0673-0.69614 0.27441-0.16667-0.0337-0.34849-0.0337-0.49159 0.0337-0.12711 0.0505-0.22138 0.10691-1.131 0.65658-0.62459 0.37038-0.92139 0.5623-0.97434 0.60439-0.05051 0.0505-0.08586 0.0842-0.13889 0.15656-0.10606 0.14815-0.13805 0.22391-0.17004 0.36111l-0.02525 0.11701v5.1634c0 2.8458 0.01684 5.0238 0.01684 4.8545 0-0.18014 0.0084-0.97266 0.0084-1.7661 0.0084-2.3486 0.0084-3.6211 0.02525-3.5365 0.0084 0.20118 0.02525 1.0185 0.02525 5.7898 0 0.73738 0.0022 0.7559 0.0045 1.4007-0.13805-0.0842-0.2458-0.14646-0.3527-0.20875-0.10606-0.0505-0.516-0.30641-0.91786-0.53957-0.14731-0.085-0.20455-0.11701-0.33923-0.19614-0.117-0.0673-0.21802-0.13047-0.34344-0.20454-0.05892-0.0337-0.21212-0.1229-0.23906-0.1389-0.59513-0.35185-1.2552-0.74664-1.5964-0.94824-0.23148-0.13637-0.79126-0.46718-1.2398-0.73065-0.25169-0.14984-0.51684-0.30977-0.69614-0.41331-1.153-0.67678-1.2575-0.74328-1.3528-0.79631-0.01684-8e-3 -0.20623-0.11953-0.29125-0.17003-0.44529-0.26347-1.3099-0.77442-1.5443-0.91348-0.85692-0.50759-1.5775-0.93276-1.6094-0.94396-0.0084-4e-3 -0.01684-7.5e-4 -0.02525-4e-3 -0.0084-4e-3 -0.01684-6.7e-4 -0.02525-4e-3 -0.01684-7e-3 -0.04209-0.0168-0.05892-0.0252-0.04209-0.0252-0.05892-8e-3 -0.08418-0.0252-0.0045-1e-3 -0.0084-2e-3 -0.01684-4e-3 -0.0022-2e-3 -0.0067-2e-3 -0.0084-4e-3 -0.02525-7e-3 -0.04209-0.0168-0.06734-0.0252h-0.0045c-0.03367-8e-3 -0.08586-0.0505-0.14394-0.0505-0.05892 0-0.10606 0.0337-0.15236 0.0505-0.0044 5e-4 -0.01684-5.9e-4 -0.01684 0-0.07576 8e-3 -0.20792 0.0673-0.26095 0.0875-0.02525 8e-3 -0.45792 0.2761-0.96567 0.5825-0.33418 0.20202-0.38132 0.23485-0.5522 0.34344l-0.0045-4e-3s-0.0084-0.0168-0.02525-0.0168c-0.0084-8e-3 -0.03367-8e-3 -0.09596-8e-3 -0.21128 0-0.39058 0.0842-0.51768 0.23064-0.03367 0.0421-0.05892 0.0875-0.07576 0.10859-0.06734 0.13805-0.06734 0.15488-0.07576 0.23906-0.0044 0.0589 0.02525 0.1069 0.03367 0.15236-0.02525 0.0673-0.03367 0.1069-0.05051 0.20034-0.0084 0.10522-0.01684 0.31482-0.01684 1.0961v0.0252 0.0168 0.0758c0.0045 0.4133 0.02525 0.27357 0.02525 0.45202 8.4e-5 2e-3 0 2e-3 0 4e-3 1.68e-4 4e-3 -8.5e-5 8e-3 0 0.0168 1.68e-4 7e-3 -8.5e-5 0.0168 0 0.0252 0.0013 0.17425-0.0013 0.55052 0.0045 0.60439 0 0.0505 0.01684 0.085 0.02525 0.11785 0.0019 7e-3 -2e-3 0.0589 0 0.0673 0.0023 8e-3 0.0084 0.0168 0.01684 0.0252 5.89e-4 2e-3 -5.89e-4 8e-3 0 0.0168 0.0022 4e-3 0.0067 7e-3 0.0084 0.0168 9.26e-4 2e-3 -9.26e-4 0.0168 0 0.0168 0.0067 0.0168 0.02525 0.0252 0.03367 0.0421 0.0084 0.0253 0.02525 0.0505 0.03367 0.0674 0.0084 0.0168 0.01683 0.0505 0.02525 0.0589 0.0015 2e-3 0.0067 2e-3 0.0084 4e-3 0.0067 8e-3 0.0067 0.0252 0.01684 0.0337 0.01684 0.0168 0.05892 0.0421 0.06734 0.0589 0.0045 7e-3 0.0023 0.0168 0.0084 0.0253 0.0023 2e-3 2e-3 7e-3 0.0045 8e-3 0.0023 4e-3 0.05051 0.0337 0.05892 0.0337 0.03367 0.0337 0.04209 0.0757 0.08418 0.10437 0.0067 7e-3 0.25674 0.15152 0.32155 0.19108 0.0084 7e-3 0.0067 7e-3 0.01684 0.0168 0.02525 0.0168 0.31819 0.18771 0.39142 0.23064 0.25 0.14815 0.31734 0.19277 0.66584 0.40068 0.72981 0.43351 1.619 0.95162 1.9574 1.1527 0.15657 0.0934 0.29125 0.17004 0.42172 0.24748 0.05892 0.0337 0.33334 0.19613 0.42172 0.24832 0.62375 0.37038 1.3464 0.79547 1.9706 1.1658 0.44445 0.26263 0.57998 0.34428 1.0788 0.63974 0.02525 0.0168 0.03367 0.0168 0.05892 0.0337 0.19108 0.11364 0.21886 0.12879 0.41331 0.24327 0.41162 0.24411 0.38048 0.22307 0.75254 0.44361 0.13468 0.0758 0.24916 0.15067 0.36953 0.22138 0.06734 0.0421 0.08418 0.0505 0.14394 0.0867 0.28788 0.17425 0.55977 0.33587 0.85254 0.50927l0.05892 0.096c0.78031 0.45876 1.281 0.76601 1.479 0.91786-0.03367 0.0252-0.19781 0.11953-0.33081 0.20034l-0.0045 4e-3h-0.0045c-0.01684 8e-3 -0.01684 0.0168-0.03367 0.0253h-0.0045c-0.0066 2e-3 -0.0084 7e-3 -0.01684 8e-3 -0.0084 4e-3 -0.0084 8e-3 -0.01684 0.0168-0.0045 1e-3 -0.0045 0-0.0084 0-0.0084 0-0.02525 0.0168-0.02525 0.0168h0.0084c-0.01684 8e-3 -0.01684 8e-3 -0.03367 0.0168-0.0084 0-0.02525 0.0168-0.02525 0.0168-0.0067 4e-3 -0.0067 4e-3 -0.01684 8e-3 -0.0022 1e-3 -0.0045 0-0.0084 0-0.0084 0-0.02525 0.0168-0.02525 0.0168 0 4e-3 0.0067 5.9e-4 0.0084 0-0.05892 0.0337-0.05051 0.0337-0.1128 0.0673-0.03367 0.0252-0.12626 0.0758-0.17004 0.10017-0.02525 0.0168-0.05892 0.0421-0.08418 0.0505-0.0084 8e-3 -0.1069 0.0589-0.21297 0.12627-0.05892 0.0337-0.06734 0.0421-0.10017 0.0673-0.39563 0.23906-0.79799 0.47812-1.2005 0.72223-0.5926 0.35943-1.3852 0.83756-1.7661 1.07-0.37038 0.22223-1.1743 0.70877-1.7878 1.0788-0.53536 0.32323-0.07576 0.0421-0.73065 0.4436-0.38553 0.23233-0.8283 0.4958-1.0397 0.62628-0.05051 0.0337-0.10354 0.0589-0.15657 0.096-1.1543 0.69782-2.4963 1.5088-2.7318 1.6486-0.40236 0.24327-0.63469 0.39226-0.68688 0.43519-0.0012 1e-3 -0.0022 4e-3 -0.0045 4e-3 -8.4e-5 9e-5 -0.0044 4e-3 -0.0044 4e-3 -0.01684 0.0168-0.03367 0.0505-0.05051 0.0673-0.05892 0.0589-0.11869 0.12374-0.17424 0.22643-0.0045 7e-3 -0.0084 7e-3 -0.01684 0.0168-0.02525 0.0421-0.03367 0.0918-0.04209 0.1431-0.0045 0.0168-0.0084 0.0252-0.01684 0.0505-9.26e-4 4e-3 8.42e-4 4e-3 0 8e-3l-0.02525 0.10438v0.0673c-0.02525 0.0673-0.05892 0.12879-0.05051 0.18266 0 0.0421 0.0084 0.0758 0.05051 0.12627v1.8993l0.02525 0.11785c0.01684 0.0943 0.03367 0.11785 0.05892 0.17003 0.0067 8e-3 0.0044 0.0253 0.01684 0.0421 0.0084 0.0168 0.01684 0.0168 0.02525 0.0253 7.57e-4 1e-3 -7.58e-4 2e-3 0 4e-3 0.0067 8e-3 0.0084 0.0168 0.0084 0.0168h0.0084c0.0044 7e-3 0.0084 8e-3 0.01684 0.0168-0.0067 0.0168-0.0084 0.0252 0 0.0252s0.01684 7e-3 0.02525 0.0168c-0.0084-0.0168-0.0067-0.0168-0.01684-0.0253 0.0084 0.0168 0.01684 0.0253 0.03367 0.0421 0.0067 8e-3 0.0044 8e-3 0.01684 0.0252 0.0022 4e-3 1e-3 8e-3 0.0045 0.0168-0.0084-8e-3 -0.0084-8e-3 -0.02525-0.0252-0.0045-7e-3 -0.0045-7e-3 -0.0084-0.0168-0.0084 0 0 2e-3 0 0.0168 0.0084 8e-3 0.0084 8e-3 0.0084 0.0252h0.01684c0.0084 0 0.01684-5.1e-4 0.01684 0.0252 0.0066 8e-3 2e-3 0.0168 0.0084 0.0252 0.0044 8e-3 0.01684 0.0168 0.02525 0.0253 0.0022 2e-3 0.0044 7e-3 0.0084 8e-3 0.0044 4e-3 0.01684 7e-3 0.02525 0.0168 0.01684 0.0168 0.03367 0.0505 0.05051 0.0589 0.0044 4e-3 0.0067 0.0168 0.01684 0.0253 0.0084 8e-3 0.10774 0.0673 0.14394 0.0917 0.04209 0.0252 0.04209 0.0421 0.10017 0.0758 0.13805 0.085 0.79378 0.46718 1.3963 0.82661 0.52863 0.3064 0.58923 0.33923 0.8224 0.33923 0.22222 0 0.33081-0.0337 0.72223-0.27862 0.08502-0.0505 0.26263-0.1591 0.39984-0.24327 0.13805-0.085 0.44613-0.27105 0.67846-0.4091 0.23317-0.14815 0.61533-0.38469 0.84824-0.52189 0.23317-0.14815 0.61112-0.37964 0.84387-0.51769 0.24327-0.14815 0.6692-0.40068 0.94395-0.56987 0.27526-0.1692 0.69782-0.41331 0.93082-0.56146 0.23233-0.14815 0.91761-0.56061 1.5313-0.93082 0.61364-0.37038 1.3027-0.79294 1.5355-0.93091 0.91365-0.55219 1.9881-1.2024 2.2968-1.3876l0.72669-0.44068c0.04209-0.0337 0.07576-0.0421 0.09596-0.0505 0.0084 2e-3 0.01684 1.1653 0.01684 6.2726v0.0168 6.3024l0.02525 0.10437v4e-3c0.0067 0.0421 0.04209 0.0892 0.05892 0.12206 0.0084 0.0168 0.0084 0.0421 0.02525 0.0673 0.0045 8e-3 0.0084 8e-3 0.01684 0.0168 0.02525 0.0421 0.01684 0.0589 0.05892 0.13048l0.0045 4e-3c0.0045 8e-3 0.0023 8e-3 0.0084 0.0168 0.05051 0.0842 0.08418 0.11869 0.13468 0.16078 0.05051 0.0337 0.30724 0.18856 0.73065 0.44193 0.35943 0.21128 0.77442 0.45455 0.92224 0.53957 0.05892 0.0337 0.04209 0.0168 0.0867 0.0421 0.04209 0.0252 0.17845 0.10353 0.19613 0.11279v0.10017l0.02525 0.0168c0.0084 8e-3 0.03367 8e-3 0.03367 8e-3 0.0084 0 0.0084 2e-3 0.0084 0.0168 0 0.0168 0.07576 0.0252 0.13889 0.0252l-0.53536 0.0673c0.21128 0.0505 0.41246 0.0253 0.43519 0.0168 0.0045-2e-3 0.12037-0.0673 0.13889-0.0842l0.03367-4e-3h0.0045l0.04209-4e-3c0.0045 1e-3 0.01684 2e-3 0.01684 4e-3v4e-3c0.0044 8.4e-4 0.0084-6.7e-4 0.01684 0h0.0044l0.01684 0.0253c0.0084 2e-3 0.01684-4e-3 0.02525-4e-3l0.17845 0.0909c0.22222 0.0421 0.40068-2e-3 0.88738-0.21296 0.04209-0.0252 0.4857-0.29546 0.9831-0.59176 0.62375-0.38048 0.92139-0.5623 0.97442-0.60439 0.07576-0.0673 0.15068-0.15656 0.23485-0.30472 0.03367-0.0673 0.04209-0.10858 0.05892-0.18266l0.02525-0.096v-11.701c0.21212 0.12542 0.2559 0.15152 0.49159 0.29125l6.9729 4.1237c1.3436 0.79379 2.4737 1.461 2.5056 1.4834 0.08502 0.0421 0.23317 0.0842 0.33923 0.0918 0.14815 0.0252 0.36953-0.0168 0.51768-0.0918 0.01684-7e-3 0.15068-0.0943 0.19108-0.11701 0.04209 0.0337 0.08418 0.0673 0.10017 0.0758 0 0 0.03367 8e-3 0.05051 0.0253 0.02525 8e-3 0.05051 0.0252 0.07576 0.0252s0.03367 8e-3 0.04209 8e-3c0.0045 2e-3 0.02525-1e-3 0.03367 0l-0.13047-0.11785c-0.03367-4e-3 -0.07576-0.0252-0.12206-0.0421 0.0066-4e-3 0.02525-0.0168 0.03367-0.0168 0.06734 0.0168 0.1229 0.0505 0.18687 0.0505 0.03367 0 0.06734-0.0252 0.10438-0.0252 0.08418 0.0337 0.1734 0.0673 0.25674 0.0758-0.04209 0.0337-0.07576 0.0589-0.14815 0.0758-0.03367 8e-3 -0.13216 7e-3 -0.17845 0l0.02525 0.0252c0.08502 8e-3 0.1894 0.0168 0.36953-0.0421 0.07576-8e-3 0.21044-0.0589 0.27442-0.0867 0.0066-4e-3 0.1069-0.0589 0.12626-0.0758 0.05892-0.0252 0.12374-8e-3 0.17424-0.0421 0.02525-8e-3 0.43267-0.26684 0.9091-0.55219 0.51853-0.30725 0.90852-0.54968 0.96129-0.59176 0.20118-0.1591 0.31903-0.36196 0.36112-0.62628 0.02525-0.1271 0.02525-0.16667 0.02525-1.1615 0-1.0579 0.0014-1.1114-0.03367-1.2701-0.02525-0.0951-0.0867-0.22054-0.16078-0.3266-0.05892-0.0842-0.13552-0.14731-0.23064-0.22139-0.04209-0.0337-1.2382-0.74159-2.6665-1.5877-1.4282-0.84631-2.7835-1.6415-3.0059-1.7792-0.23233-0.12711-0.63216-0.37038-0.91786-0.53957-0.28536-0.1692-1.1664-0.6852-1.9705-1.1614-2.6027-1.5344-2.4516-1.4515-2.4404-1.4403 0 8e-3 0.27189 0.16835 0.60018 0.36953 0.33839 0.20118 0.64563 0.38974 0.70876 0.42172 0.05892 0.0337 0.31566 0.19108 0.56987 0.33923 0.25421 0.14815 0.71129 0.42509 1.0179 0.60439 0.86744 0.50758 1.6185 0.9623 2.7186 1.6182 0.88857 0.53957 1.0483 0.62374 1.0483 0.63553 0 0-0.03367-8e-3 -0.06734-0.0253-0.03367-8e-3 -0.05051-0.0252-0.05892-0.0252 0.0084 0 0.01684 8e-3 0.04209 0.0252 0.01684 8e-3 0.03367 0.0253 0.04209 0.0253 0.0084 0 0.01684 8e-3 0.03367 0.0252 0.05892 0.0421 0.10606 0.0589 0.117 0.0589 0.0084-8e-3 0.01684-8e-3 0.01684 0s0.01684 0.0337 0.05051 0.0421c0.03367 8e-3 0.05892 0.0337 0.07576 0.0421 0.05051 0.0337 0.08502 0.0505 0.09596 0.0421 0 0-5.05e-4 8e-3 0.02525 0.0252 0.02525 0 0.04209 0.0168 0.05892 0.0337 0.0084 8e-3 0.04209 0.0253 0.04209 0.0253l0.01684 0.0168c0 8e-3 0.0084 8e-3 0.02525 0.0252 0.0084 8e-3 0.03367 0.0168 0.04209 0.0337 0.0084 0 0.01684 0.0168 0.03367 0.0168 0.0084 0 0.01684 8e-3 0.03367 0.0252 0.0084 8e-3 0.04209 0.0337 0.06734 0.0421 0.01684 8e-3 0.04209 0.0337 0.04209 0.0337 0 8e-3 -0.0022 0.0168 0.0084 0.0168 0 0 0.0084-2e-3 0.02525 8e-3 0.0084 8e-3 0.02525 0.0168 0.02525 0.0168l0.01684 8e-3c0 8e-3 0.05892 0.0421 0.12626 0.0875 0.05892 0.0421 0.12795 0.0673 0.13889 0.0842 0.0084 0 0.02525 0.0168 0.02525 0.0168s0.02525 8e-3 0.04209 0.0252c0.02525 8e-3 0.04209 0.0253 0.05051 0.0253 0.0084 8e-3 0.02525 8e-3 0.02525 0.0252 0.0084 0 0.02525 0.0168 0.02525 0.0168s0.03367 0.0168 0.0505 0.0337c0.05051 0.0421 0.07576 0.0505 0.09596 0.0589 0.0084 0 0.02525 0.0252 0.05051 0.0337 0.01684 8e-3 0.04209 0.0252 0.04209 0.0252 0.0084 0 0.0084-2e-3 0.02525 8e-3 0 8e-3 0.01684 0.0252 0.03367 0.0252 0.0084 0 0.02525 8e-3 0.02525 8e-3 0 8e-3 -0.0022 0.0168 0.0084 0.0168 0.0084 0 0.03367 8e-3 0.06734 0.0337 0.03367 0.0168 0.05051 0.0337 0.05051 0.0337l0.0084 0.0168c0.02525 8e-3 0.05051 0.0337 0.07576 0.0421 0.0084 8e-3 0.02525 8e-3 0.02525 0.0252 0 8e-3 0.0084 8e-3 0.02525 8e-3 0.0084 0 0.02525 0.0168 0.02525 0.0168 0 8e-3 0.07576 0.0505 0.08418 0.0421 0 8e-3 0.03367 0.0421 0.04209 0.0421 0.0084 0 0.03367 8e-3 0.05051 0.0253 0.02525 8e-3 0.04209 0.0252 0.05051 0.0252 0 8e-3 0.02525 0.0337 0.06734 0.0505 0.09512 0.0589 0.117 0.0758 0.13889 0.0758 0.0084 0 0.0084 8e-3 0.0084 8e-3 -0.0084 8e-3 -5.05e-4 0.0168 0.02525 0.0168 0 0 0.0084 0.0168 0 0.0168s-5.05e-4 8e-3 0.02525 0.0252c0.0084 0 0.04209 0.0168 0.06734 0.0337 0.0084 8e-3 0.05051 0.0337 0.07576 0.0421 0.04209 0.0253 0.04209 0.0168 0.10438 0.0589 0.01684 8e-3 0.04209 0.0252 0.04209 0.0252s0.02525 0.0168 0.04209 0.0252c0.01684 8e-3 0.04209 0.0168 0.05051 0.0337 0.0084 8e-3 0.03367 0.0253 0.04209 0.0253l0.02525 0.0252c0 8e-3 0.01684 8e-3 0.03367 0.0252 0.0084 8e-3 0.03367 0.0252 0.03367 0.0252 0 8e-3 0.10606 0.0758 0.117 0.0758 0 0 0.02525 8e-3 0.03367 0.0253 0.04209 0.0337 0.1128 0.0757 0.1128 0.0673 0 0 0.0084 2e-3 0.02525 0.0168 0.0084 8e-3 0.03367 0.0168 0.04209 0.0337 0.0084 8e-3 0.03367 0.0168 0.04209 0.0337 0.05892 0.0421 0.10606 0.0673 0.117 0.0673 0 0 0.0084-2e-3 0.0084 8e-3 0 8e-3 0.0084 0.0252 0.02525 0.0252 0.0084 0 0.02525 8e-3 0.02525 8e-3 -0.0084 8e-3 0.01684 0.0168 0.03367 0.0168 0 0 0.0084 8e-3 0 8e-3s-5.05e-4 8e-3 0.02525 0.0252c-0.31987-0.19529-0.81483-0.49328-1.9922-1.1876-3.1527-1.8725-4.2922-2.5378-6.5032-3.8497-1.0156-0.5926-1.9888-1.1731-2.1793-1.2789-0.09259-0.0505-0.10522-0.0673-0.16499-0.10017 5.05e-4 -3.4e-4 0.01684-8e-3 0.01684-8e-3 1.8843 1.111 5.1317 3.026 5.407 3.1928 0.66668 0.39142 1.163 0.68856 1.3746 0.80472 0.10606 0.0505 0.23485 0.12795 0.23485 0.11785 0 0-0.117-0.0758-0.26516-0.16078-0.14815-0.085-0.29883-0.17003-0.33081-0.19108-0.03367-0.0252-0.25421-0.14562-0.48738-0.28283-0.87804-0.51853-1.0245-0.61364-2.5056-1.492-0.57156-0.33839-1.0595-0.63722-1.07-0.64816-0.02525-8e-3 -0.15909-0.0918-0.31734-0.18687-0.15909-0.0951-0.34512-0.20119-0.4091-0.24327-0.47644-0.28536-0.77526-0.46802-0.79631-0.47813-0.0084-8e-3 -0.03367-0.0252-0.04209-0.0252-0.0084-8e-3 -0.02525-8e-3 -0.02525-8e-3s-0.0084-2e-3 -0.0084-0.0168c0-8e-3 -0.02525-0.0168-0.05051-0.0337-0.03367-8e-3 -0.04209-0.0252-0.04209-0.0337 0-8e-3 -0.0019-8e-3 -0.01684-8e-3 -0.0084 0-0.05051-0.0252-0.08418-0.0421-0.0084-8e-3 -0.03367-0.0252-0.04209-0.0252-0.0084 0-0.03367-0.0168-0.05051-0.0337-0.02525-8e-3 -0.04209-0.0252-0.05051-0.0337l-0.01684-8e-3s0.0022-0.0168-0.0084-0.0168c0 0-0.03367-8e-3 -0.05892-0.0337-0.02525-0.0252-0.05892-0.0421-0.08418-0.0505-0.02525-8e-3 -0.04209-0.0252-0.06734-0.0337-0.0084-8e-3 -0.02525-0.0252-0.04209-0.0252-0.0084 0-0.04209-0.0168-0.06734-0.0421-0.01684-8e-3 -0.01684-0.0168-0.03367-0.0253 0.1532-0.0934 1.5041-0.90952 3.3494-2.0228 4.0519-2.4543 3.9039-2.3689 5.9986-3.6278 0.86752-0.52863 1.6286-0.99472 1.6922-1.0266 0.21128-0.12711 0.29714-0.22138 0.41331-0.44361 0.03367-0.0758 0.04209-0.1069 0.06734-0.21296l0.01684-0.12627v-2.2687l-0.0045-0.0252v-0.26095l-0.02525-0.10438c-0.01683-0.0842-0.02525-0.11869-0.05892-0.18266-0.07576-0.12711-0.17172-0.25169-0.23485-0.30472-0.08502-0.0673-0.05051-0.0421-0.62206-0.383-0.26431-0.15909-0.65826-0.39058-0.86996-0.51769-0.54967-0.32744-0.65405-0.36869-0.7921-0.39983-0.10606-0.0253-0.25505-0.0253-0.36112 0-0.12711 0.0252-0.29714 0.10522-0.73065 0.36953-0.0067 4e-3 -0.04209 0.0252-0.05051 0.0337-0.0067 2.5e-4 -0.0084-4e-3 -0.01684-4e-3 -0.18014 8e-3 -0.24243 0.0337-0.44361 0.13889-0.05051 0.0337-0.6692 0.40068-1.3572 0.81314-1.2562 0.7618-7.2927 4.4014-8.7913 5.3113-0.0084-0.13132-0.01684-0.79715-0.01684-5.8376v-6.2856l-0.01684-0.0757v-0.0926l-0.02525-0.096c-0.02525-0.0951-0.07576-0.1734-0.15236-0.29546-0.0084-0.0168-0.0084-0.0168-0.01684-0.0337-0.0011-2e-3 0.0012-2e-3 0-4e-3 -0.05051-0.0758-0.08418-0.10522-0.13468-0.14815-0.0044-2e-3 -0.03367-0.0252-0.04209-0.0252-0.0045-4e-3 -0.0867-0.0505-0.09596-0.0589-0.04209-0.0252-0.09849-0.0589-0.16498-0.10438-0.01684-8e-3 -0.07576-0.0421-0.10017-0.0589-0.0084-7e-3 -0.0044-4e-3 -0.01684-0.0168-0.0066-4e-3 -0.0066-4e-3 -0.01684-8e-3 -0.0084-7e-3 -0.03367-0.0168-0.04209-0.0252-0.03367-0.0168-0.09512-0.0589-0.13468-0.0758-0.0084-7e-3 -0.01684-8e-3 -0.03367-0.0168-0.14142-0.085-0.10943-0.0758-0.3527-0.21717-0.19866-0.11701-0.09933-0.0505-0.23064-0.13048-0.05892-0.0337-0.11196-0.0673-0.16078-0.096-0.46718-0.27862-0.53704-0.31987-0.54799-0.31734 0.02525 7e-3 0.31314 0.18434 0.5522 0.32576-0.49496-0.29714-0.64479-0.38637-0.74412-0.42593-0.0044-2e-3 -0.03367-0.0168-0.03367-0.0253-0.11616-0.0421-0.1995-0.0673-0.34765-0.0673z"/>
  <path d="m109.71 176.76c0 3.4277-1.4705 6.5697-4.8135 6.5697-3.3431 0-4.8135-3.142-4.8135-6.5697 0-3.4594 1.4705-6.6014 4.8135-6.6014 3.3431-8e-3 4.8135 3.1314 4.8135 6.6014zm-15.075 10.262h5.3742v-2.6236h0.0758c1.2377 2.2639 3.7451 3.1843 6.7707 3.1843 4.0942 0 8.5163-3.3007 8.5163-10.865 0-7.5218-4.4115-10.823-8.5163-10.823-2.5496 0-5.0992 0.95212-6.485 3.068h-0.085v-10.347h-5.6494z"/>
  <path d="m122.36 158.6h-5.6493v4.6549h5.6493zm-5.6493 28.416h5.6493v-20.354h-5.6493z"/>
  <path d="m139.91 176.76c0 3.4277-1.4705 6.5697-4.8135 6.5697s-4.8136-3.142-4.8136-6.5697c0-3.4594 1.4706-6.6014 4.8136-6.6014 3.3325-8e-3 4.8135 3.1314 4.8135 6.6014zm-15.086 10.262h5.3742v-2.6236h0.0758c1.2378 2.2639 3.7451 3.1843 6.7601 3.1843 4.0942 0 8.5163-3.3007 8.5163-10.865 0-7.5218-4.4221-10.823-8.5163-10.823-2.5495 0-5.0886 0.95212-6.485 3.068h-0.0758v-10.347h-5.6492z"/>
  <path d="m151.8 174.53c0.085-1.5868 1.1108-4.3798 4.6972-4.3798 2.7506 0 3.9778 1.5128 4.4962 4.3798zm14.843 3.5864c0.40237-6.3264-2.9834-12.219-9.9868-12.219-6.2524 0-10.505 4.6972-10.505 10.865 0 6.3687 4.0201 10.823 10.505 10.823 4.6549 0 8.0403-2.0735 9.6272-6.9294h-4.9723c-0.35943 1.2696-2.1899 2.666-4.4538 2.666-3.142 0-4.8982-1.6292-5.0569-5.2156z"/>
  <path d="m167.77 187.02h5.6493v-28.416h-5.6493z"/>
  <path d="m197.19 166.65h-17.456v4.5597h6.0725v15.805h5.3002v-15.805h6.0725z"/>
  <path d="m213.08 166.65h-5.5329l-3.9884 15.149h-0.0505l-4.0095-15.149h-5.533l6.4216 20.365h6.1042l6.5908-20.365z"/>
  <path d="m176.52 183.96c0-1.6927 1.3648-3.0575 3.0574-3.0575 1.6927 0 3.0574 1.3648 3.0574 3.0575s-1.3648 3.0574-3.0574 3.0574c-1.6926 0-3.0574-1.3647-3.0574-3.0574z"/>
 </g>
</svg>
