<svg version="1.1" viewBox="0 0 230.75 52.731" xml:space="preserve" xmlns="http://www.w3.org/2000/svg">
<linearGradient id="b" x1="679.65" x2="679.65" y1="348.81" y2="450.03" gradientTransform="translate(-475.7 -379.78)" gradientUnits="userSpaceOnUse">
	<stop stop-color="#e50000" offset="0"/>
	<stop stop-color="#df0000" offset=".8419"/>
	<stop stop-color="#bc0000" offset="1"/>
</linearGradient>
<rect x="177.14" width="53.609" height="52.731" fill="url(#b)"/>
<linearGradient id="a" x1="562.17" x2="562.17" y1="351.46" y2="462.4" gradientTransform="translate(-475.7 -379.78)" gradientUnits="userSpaceOnUse">
	<stop stop-color="#0085ff" offset="0"/>
	<stop stop-color="#0076f0" offset=".1646"/>
	<stop stop-color="#004dc9" offset=".4837"/>
	<stop stop-color="#000c8a" offset=".9219"/>
	<stop stop-color="#00007e" offset="1"/>
</linearGradient>
<rect width="172.93" height="52.665" fill="url(#a)"/>
<path d="m187.83 46.463c-0.799-0.67-0.896-1.861-0.228-2.652l3.794-4.464c0.671-0.798 1.856-0.897 2.653-0.228 0.796 0.672 0.899 1.86 0.228 2.654l-3.794 4.463c-0.67 0.795-1.856 0.899-2.653 0.227z" fill="#fff"/>
<path d="m222.47 46.262c0.791-0.672 0.888-1.859 0.214-2.652l-3.778-4.478c-0.673-0.793-1.86-0.888-2.655-0.215-0.792 0.676-0.888 1.861-0.214 2.657l3.778 4.478c0.672 0.788 1.859 0.886 2.655 0.21z" fill="#fff"/>
<path d="m204.92 41.173v2.96-2.96c-0.018 0-0.033-5e-3 -0.051-6e-3 -1.04-0.018-1.897 0.817-1.912 1.858l-0.03 2.406c-0.019 1.037 0.813 1.896 1.854 1.914 1.039 0.016 1.895-0.814 1.911-1.854l0.033-2.41c0.016-1.02-0.788-1.862-1.805-1.908z" fill="#fff"/>
<path d="m227.19 26.954c0.094-1.035-0.668-1.952-1.705-2.046l-2.401-0.213c-1.034-0.094-1.953 0.67-2.049 1.708-0.097 1.036 0.671 1.954 1.708 2.047l2.399 0.21c1.032 0.097 1.953-0.669 2.048-1.706z" fill="#fff"/>
<path d="m192.21 14.922c0.694-0.771 0.634-1.961-0.138-2.658l-3.766-3.391c-0.772-0.698-1.963-0.637-2.665 0.138-0.692 0.771-0.634 1.963 0.143 2.658l3.767 3.393c0.769 0.697 1.962 0.635 2.659-0.14z" fill="#fff"/>
<path d="m225.98 10.166c-0.611-0.838-1.79-1.022-2.629-0.409l-4.088 2.993c-0.844 0.613-1.026 1.792-0.412 2.637 0.614 0.835 1.793 1.021 2.632 0.404l4.091-2.993c0.839-0.61 1.024-1.79 0.406-2.632z" fill="#fff"/>
<path d="m188.95 28.333c-0.267-1.007-1.297-1.603-2.303-1.337l-2.326 0.622c-1.007 0.264-1.605 1.293-1.342 2.304 0.268 1.005 1.299 1.604 2.305 1.337l2.325-0.621c1.006-0.268 1.61-1.298 1.341-2.305z" fill="#fff"/>
<g transform="translate(-475.7 -379.78)" fill="#fff">
	<path d="m506.57 398.93h-10.662v4.896h4.735c1.707 0 3.35 0.129 5.024 1.289 1.644 1.127 2.674 2.802 2.674 5.218 0 2.255-0.837 3.93-1.9 4.993-1.61 1.61-3.446 1.836-5.379 1.836h-10.308v-22.098h15.815v3.866zm-10.662 14.366h4.155c0.773 0 1.481-0.032 2.223-0.773 0.709-0.709 0.806-1.514 0.806-2.126 0-0.709-0.193-1.417-0.806-2.029-0.741-0.741-1.675-0.806-2.352-0.806h-4.026z"/>
	<path d="m517.36 395.07v11.468c0 1.514-0.129 2.448-0.161 2.738 0.226-0.838 0.676-1.676 0.869-1.997l6.668-10.63v-1.579h5.154v22.098h-5.154v-11.5c0-1.546 0.097-2.479 0.161-2.866-0.193 0.644-0.612 1.578-0.87 1.997l-6.667 10.598v1.771h-5.154v-22.098z"/>
	<path d="m550.22 398.93h-10.661v4.896h4.734c1.708 0 3.351 0.129 5.025 1.289 1.643 1.127 2.674 2.802 2.674 5.218 0 2.255-0.838 3.93-1.9 4.993-1.611 1.61-3.447 1.836-5.38 1.836h-10.308v-22.098h15.815v3.866zm-10.661 14.366h4.155c0.772 0 1.481-0.032 2.223-0.773 0.708-0.709 0.805-1.514 0.805-2.126 0-0.709-0.193-1.417-0.805-2.029-0.741-0.741-1.676-0.806-2.352-0.806h-4.026z"/>
	<path d="m561.01 395.07v11.468c0 1.514-0.129 2.448-0.161 2.738 0.226-0.838 0.677-1.676 0.87-1.997l6.668-10.63v-1.579h5.153v22.098h-5.153v-11.5c0-1.546 0.097-2.479 0.161-2.866-0.193 0.644-0.612 1.578-0.87 1.997l-6.668 10.598v1.771h-5.153v-22.098z"/>
	<path d="m592.31 395.07v4.06h-9.116v18.038h-5.153v-22.098z"/>
	<path d="m596.21 397c2.126-1.901 4.574-2.255 6.41-2.255s4.284 0.354 6.41 2.255c1.965 1.771 3.543 4.863 3.543 9.115 0 3.736-1.224 6.926-3.317 8.891-1.257 1.191-3.415 2.48-6.636 2.48-3.222 0-5.38-1.289-6.636-2.48-2.094-1.965-3.317-5.154-3.317-8.891 0-4.252 1.578-7.344 3.543-9.115zm3.156 14.655c0.612 0.999 1.676 1.965 3.254 1.965s2.642-0.966 3.253-1.965c0.451-0.74 1.16-2.318 1.16-5.604 0-3.285-0.741-4.832-1.16-5.508-0.934-1.481-2.062-1.933-3.253-1.933-1.192 0-2.319 0.451-3.254 1.933-0.418 0.676-1.159 2.223-1.159 5.508s0.709 4.864 1.159 5.604z"/>
	<path d="m633.58 417.16h-5.154v-9.374h-7.247v9.374h-5.154v-22.098h5.154v8.665h7.247v-8.665h5.154z"/>
</g>
<path d="m197.85 5.296c-0.117-4e-3 -0.249 1e-3 -0.249 1e-3 -0.479 0-0.868 0.376-0.868 0.854 0 0.435 0.322 0.789 0.741 0.854l0.025 6e-3s14.72 1.717 15.472 17.791l7e-3 0.242c0.017 1.592-0.126 2.993-0.126 2.993-0.234 1.944-0.779 3.146-0.779 3.146-0.498 1.37-1.353 2.025-1.353 2.025-0.858 0.684-1.873 1.138-1.873 1.138-1.105 0.435-1.85 0.59-1.85 0.59-0.529 0.115-1.17 0.171-1.594 0.198v-1e-3s-8.021 0.625-8.729-6.583c-0.657-6.689 0.625-9.177 3.41-9.601l-0.875-4.761c-4.118 0.112-9.281 2.8-8.827 12.987 0.5 11.208 5.751 12.072 14.542 12.072 0.87-4e-3 1.76-0.022 2.684-0.063 1.028-0.048 2.028-0.149 2.994-0.304 0.968-0.157 1.878-0.406 2.739-0.747 0.856-0.349 1.629-0.815 2.312-1.409 0.781-0.684 1.389-1.491 1.828-2.411 0.436-0.92 0.767-1.85 0.979-2.787 0.221-0.935 0.351-1.842 0.4-2.715 0.047-0.875 0.059-1.623 0.059-2.246v-0.241c0-19.771-21.069-21.028-21.069-21.028z" fill="#fff"/>
<path d="m193.42 16.498s2.258-2.335 5.785-2.31c3.84 0.028 7.559 1.466 7.777 9.278 0 0 0.219 7.047-2.656 5.563 0 0-0.828-0.156-0.438-1.875 0.254-1.118 0.781-8.688-4.281-8.031 0 0-1.406 0.281-2.063 1.344" fill="#fff"/>
</svg>
