<svg width="200mm" height="163.74mm" version="1.1" viewBox="0 0 200 163.74" xmlns="http://www.w3.org/2000/svg" xmlns:xlink="http://www.w3.org/1999/xlink">
 <g transform="translate(3239.6 231.04)">
  <g transform="matrix(.15675 0 0 .15675 -3239.9 -231.09)">
   <g id="#ffffffff" fill="#fff">
    <path d="m436.36 2.3c4.94-0.11 9.65-2.09 14.64-1.61 13.02-0.58 26.04-0.28 39.05 0.05 13.07 2.24 26.44 2.47 39.49 5.03 13.82 1.36 27.21 5.21 40.7 8.31 48.49 11.54 94.66 32.56 135.38 61.29 7.87 4.98 14.95 11.07 22.51 16.49 4.96 4.22 9.99 8.35 14.98 12.53 74.17-6.82 148.53-11.57 222.93-14.67 3.66-0.43 8.24 0.76 9.45 4.69 1.71 3.72-0.28 8.6-4.17 9.98-12.24 5.55-24.64 10.75-36.86 16.34 11.53 0.2 23.04-0.95 34.57-1.24 6.83 0.09 13.74-1.04 20.54-0.03 3.77 2.11 4.5 9.36-0.26 10.89-40.25 17.79-80.57 35.45-120.81 53.25-1.77 1.02-3.76 0.29-5.6 0.03-19.01-3.2-38.04-6.28-56.99-9.82 15.89 22.6 30.13 46.43 41.44 71.67 4.9 11.98 10.39 23.78 13.96 36.25 5.45 16.11 10.18 32.49 13.26 49.23 55.46-12.41 111.01-24.43 166.69-35.82 21.33-4.02 42.33-9.56 63.47-14.45 47.64-11.45 95.31-22.78 142.96-34.21 2.89-0.63 6.11-1.84 8.93-0.24 4.92 2.35 5.27 10.16 0.68 13.06-12.76 8.71-25.88 16.9-38.6 25.66 16.83-3.92 33.57-8.34 50.37-12.43 4.06-1.28 8.62 2.17 8.33 6.42-0.69 2.18-2.02 4.21-3.97 5.45-38.25 25.07-76.36 50.36-114.62 75.41-2.31 1.67-4.78 3.54-7.75 3.6-13.34 0.17-26.69-0.29-40.01 0.38-12.23 0.14-24.49-0.47-36.67 0.73-51.49 20.14-102.96 40.34-154.52 60.31-12.12 4.81-24.33 9.36-36.36 14.39-0.9 17.83-3.57 35.52-6.96 53.04-3.03 13.58-5.47 27.31-9.68 40.6-11.87 42.34-31.18 82.43-56.17 118.58 5.01 0.34 10.2-0.69 15.09 0.65 6.17 1.86 6.11 12.02-0.14 13.71-10.16 2.64-20.49 4.64-30.67 7.24-2.63 2.63-4.66 5.8-7.05 8.65 20.92 0.53 41.83 1.11 62.74 1.75 3.94 0.69 4.32 7.65 0.17 8.41-24.41 5.76-48.88 11.29-73.3 16.98-6.29 1.59-12.77 2.59-18.92 4.65-39.09 37.4-85.01 67.97-135.4 87.88-15.7 6.46-32.05 11.14-48.35 15.8-30.79 7.21-62.09 13.87-93.86 13.71-12 1.07-24.01-0.29-36.02-0.15-16.97-0.83-33.8-3.47-50.51-6.48-12.49-2.87-25.13-5.05-37.46-8.53-7.87 0.79-15.78 1.51-23.69 2.04-19.36 2.46-38.89 1.96-58.37 2.03-36.06-1.07-72.64-5.13-106.55-18.17-15.78-6.27-31.13-14.66-42.94-27.07-11.06-11.43-18.34-26.97-18.1-43.03-1.38-3-2.97-5.9-4.08-9.01-5.41-13.68-5.05-29.11-0.79-43.06 4.7-12.67 10.75-24.94 19.03-35.69-14.64-22.46-27.29-46.22-37.35-71.08-4.05-10.93-8.32-21.8-11.66-32.97-1.82-7.45-4.23-14.74-5.9-22.23-16.11-8.28-30.59-20.04-41.53-34.51-8.22-11.43-14.03-24.87-15.23-38.98-0.22-1.67-0.28-3.4-1.02-4.93-5.35-11.15-7.88-23.69-7.21-36.01 0.84-20.23 9.43-39.26 20.61-55.82 6.58-9.56 14-18.57 22.19-26.79 3.19-2.84 5.43-6.61 9.01-9.02 6-5.35 12.31-10.37 18.13-15.9 8.35-27.11 18.92-53.64 32.86-78.39-8.76-12.13-16.57-24.96-23.14-38.4-5.84-12.19-10.56-25.17-11.48-38.75-0.03-5.58-2.51-10.72-3.28-16.19-1.3-12.27-0.48-25.77 7.36-35.9 9.38-12.09 24.66-17.36 39.18-20.06 28.11-4.78 56.82-2.15 84.88 1.66 11.38 1.7 22.77 3.44 34.03 5.87 34.28-24.4 72.68-42.86 112.83-55.32 17.7-4.78 35.44-9.5 53.45-12.96 12.7-1.62 25.31-4 38.11-4.77m8.63 2.55c-8.75 1.3-17.63 1.54-26.37 2.89-10.89 1.73-21.9 2.77-32.6 5.49-14.6 3.26-29.06 7.08-43.46 11.13-14.89 5.2-29.89 10.24-44.14 17.06-16.17 7.3-31.89 15.6-46.86 25.11-6.57 3.61-12.3 8.53-18.77 12.27-31.27-5.5-62.9-10.73-94.79-9.95-15.62 0.8-31.7 2.3-46 9.15-9.25 4.59-17.63 12.25-20.6 22.42-2.77 9.71-2.44 20.21 0.42 29.87 2.27 6.67 1.49 13.88 3.31 20.66 5.81 24.26 19.53 45.61 33.54 65.89-7.67 13.05-13.87 26.88-19.95 40.73-4.85 12.79-9.88 25.55-13.58 38.73-0.21 0.96-0.69 1.75-1.44 2.38-6.78 5.9-13.67 11.69-20.39 17.65-3.58 4.39-8 8-11.61 12.36-14.85 16.56-28.01 35.52-33.73 57.28-4.53 16.79-3.57 35.28 4.02 51.06 1.41 2.69 1.45 5.75 1.74 8.69 1.29 10.81 5.39 21.15 11.2 30.31 9.74 15.36 24.2 27.16 39.75 36.28 1.96 1.33 5.12 1.85 5.43 4.65 10.8 45.18 29.97 88.26 55.76 126.87-9.35 12.22-16.97 25.98-20.98 40.9-3.48 13.7-2.43 28.62 3.98 41.32 0.86 1.91 2.34 3.68 2.27 5.9-0.2 10.58 3.31 21.04 9.05 29.86 9.34 14.73 24.36 24.77 39.83 32.17 19.96 9.16 41.47 14.53 63.13 17.8 31.07 4.59 62.59 5.29 93.91 3.71 13.35-0.78 26.69-2.19 40.02-3.3 18.87 4.62 37.91 8.91 57.17 11.73 24.02 3.82 48.43 4.04 72.69 3.32 18.94-0.34 37.71-3.31 56.32-6.7 14.14-3.15 28.44-5.66 42.27-10.09 11.75-3.74 23.68-7.05 35.06-11.85 5.88-2.41 11.72-4.9 17.61-7.28 7.68-3.59 15.19-7.56 22.85-11.21 34.56-18.64 66.69-41.85 94.94-69.15 0.93-0.96 2.28-1.26 3.54-1.58 29.99-6.97 60.02-13.8 90-20.81 0.2-0.39 0.59-1.19 0.79-1.58-23.38-0.42-46.73-1.37-70.11-1.78 4.51-4.9 8.21-10.55 12.85-15.3 10.41-2.73 21.02-4.73 31.44-7.44 3.46-0.99 2.97-6.99-0.68-7.23-6.67-0.3-13.34 0.03-20.01-0.15 13.28-19.01 25.61-38.76 35.52-59.75 15.15-31.17 25.89-64.46 32.59-98.46 4.07-19.74 7.39-39.77 7.88-59.96 15.87-6.62 31.98-12.65 47.97-18.99 48.53-18.91 97-37.99 145.54-56.86 11.81-1.34 23.8-0.64 35.7-0.91 14.24-0.66 28.52-0.29 42.77-0.66 0.36-0.11 1.06-0.31 1.42-0.41 37.14-24.5 74.3-48.98 111.47-73.45 3.23-2.3 7.43-3.84 9.17-7.69-1.3-1.77-3.28-2.19-5.28-1.49-23.23 5.75-46.45 11.55-69.68 17.29 18.46-12.56 37.33-24.53 55.85-37.01 2.48-1.23 2.82-4.64 1.27-6.73-1.76-1.57-4.25-0.76-6.27-0.4-57.81 13.81-115.61 27.64-173.41 41.45-25.73 6.28-51.85 10.84-77.71 16.54-42.33 8.79-84.51 18.25-126.74 27.49-1.6-7.15-2.9-14.36-4.68-21.47-3.3-13.13-7.66-25.96-11.79-38.85-3.6-9.9-7.86-19.53-11.89-29.26-12.49-27.26-28.07-53.07-46.07-77.04 22.8 4.31 45.7 8.1 68.59 11.91 2.57-0.56 4.86-2 7.29-2.98 38.49-16.93 76.94-33.96 115.46-50.82-0.08-1.22-0.15-2.44-0.2-3.66-6.88-0.86-13.73 0.41-20.6 0.31-17.75 0.69-35.48 1.68-53.22 2.48 18.01-8.46 36.42-16.08 54.56-24.28 2.13-0.74 3.93-2.96 3.05-5.3-0.51-3-3.99-2.99-6.34-2.81-70.82 2.82-141.57 7.47-212.19 13.61-4.13 0.25-8.33 1.14-12.45 0.71-11.35-9.75-23.06-19.07-35.28-27.72-7.12-4.5-13.69-9.85-21.1-13.9-11.35-7.27-23.25-13.61-35.25-19.71-10.7-4.74-21.15-10.12-32.26-13.82-12.06-4.72-24.32-8.92-36.89-12.05-17.22-4.43-34.46-9.16-52.15-11.25-10.66-1.84-21.42-2.88-32.19-3.77-4.85-0.97-9.8-0.61-14.7-0.85-12.19-0.43-24.39-0.05-36.58 0.28z"/>
    <path d="m116.42 74.64c26.73-4.16 53.93-1.5 80.56 2.06 44.89 6.58 89.06 17.53 132.41 30.81-12.47 6.91-24.1 15.67-32.75 27.12-9.45 12.17-16.2 26.88-17.09 42.41-0.25 6.73 0.91 13.64 4.16 19.6 37.99-14.89 77.47-25.62 117.17-34.89 48.11-11.12 96.76-19.71 145.58-27.04 93.02-13.83 186.68-23.05 280.46-29.83 39.01-2.77 78.04-5.1 117.1-6.87 8.4-0.41 16.82-0.91 25.24-0.8-37.06 16.48-74.2 32.79-111.34 49.07-22.69-3.52-45.34-7.44-67.9-11.78-1.69-0.29-3.36 0.21-4.99 0.49-45.56 9.25-90.66 20.59-135.6 32.44-87.12 23.24-173.54 49.16-258.91 78.19-23.63 8.15-47.26 16.28-70.62 25.15 33.05 25.01 65.44 50.89 98.64 75.71 31.39 23.5 62.88 46.97 96.05 67.93 8.84 5.54 17.92 10.75 27.43 15.08 39-15.63 79.47-27.21 119.88-38.57 87.64-24.05 176.22-44.52 264.96-64.09 45.05-9.86 90.17-19.38 135.37-28.54 47.17-11.24 94.33-22.55 141.5-33.8 16.57-3.85 33.04-8.14 49.67-11.71-15.68 10.96-31.94 21.11-47.83 31.77-20.09 13.24-40.2 26.46-60.28 39.73-2.97 2.17-6.89 1.03-10.29 1.38-21.66 0.8-43.35 0.9-65.02 1.08-5.11-0.34-9.54 2.6-14.19 4.2-120.62 47.6-242.06 93.18-361.69 143.28-39.4 16.53-78.63 33.5-117.41 51.47-38.8 18.08-77.33 36.92-114.16 58.79-16.83 10.16-33.43 20.88-48.38 33.69-7.92 7.08-15.79 14.67-20.64 24.26-3.27 6.38-4.4 14.41-0.81 20.9 4.11 7.56 11.97 12.04 19.59 15.4 15.35 6.45 31.92 9.22 48.32 11.52 39.27 4.92 78.92 5.3 118.45 4.96 2.64 0.09 5.17-0.78 7.67-1.54 24.99-7.81 48.33-20.36 69.4-35.81 13.28-0.17 26.59-0.14 39.87 0.35 42.39 0.06 84.78 0.49 127.16 0.58-12.18 3.33-24.62 5.72-36.9 8.72-48 11.05-95.98 22.31-144.19 32.43-79.11 31.83-161.01 57.54-245.2 71.8-40.25 6.77-81.02 10.86-121.86 10.63-28.45-0.42-57.04-2.72-84.75-9.48-18.19-4.5-36.19-10.83-51.92-21.17-12.91-8.41-24.34-20.29-28.97-35.29-4.23-13.04-2.55-27.3 2.26-39.94 5.97-15.66 15.86-29.49 26.89-41.98 24.22-26.93 53.83-48.36 84.33-67.62 36.48-22.8 75-42.18 114.2-59.82 40.84-18.26 82.53-34.54 124.69-49.45 9.93-3.64 20.04-6.79 29.94-10.51-43.15-13.56-84.55-32.19-124.5-53.28-44.59-23.63-87.66-50.12-128.94-79.13-16.34 11.66-32.35 23.83-47.23 37.32-12.65 11.72-24.9 24.22-33.87 39.07-5.54 9.32-9.96 19.86-9.65 30.9-0.02 9.81 4.61 19.18 11.38 26.12 9.26 9.59 21.45 15.67 33.75 20.42 20.05 7.53 41.21 11.62 62.38 14.52 18.64 2.57 37.42 3.77 56.21 4.57-43.11 17.1-90.02 23.75-136.25 21.84-25.78-1.26-51.52-5.28-76.14-13.12-25.44-8.21-50.49-20.43-68.96-40.21-13.16-13.92-21.55-32.84-20.61-52.2 0.86-21.91 11.48-42.07 24.46-59.22 18.22-23.7 41.28-43.18 65.42-60.59 18.34-13.15 37.56-25.04 57.18-36.17-23.16-25.57-45.77-51.96-63.73-81.53-8.26-14-15.91-28.84-18.61-45.04-1.86-10.69-0.16-22.74 7.49-30.92 8.98-9.72 22.31-13.63 34.96-15.82z"/>
    <path d="m664.87 534.86c9.59-3.77 20.31-3.5 30.41-2.33 9.81 1.23 19.59 3.4 28.71 7.28-1.45 7.89 2.25 15.29 2.86 23.04-6.73 0.7-13.5-0.48-20.23 0.32 0.69 3.58 2.82 6.9 2.67 10.62-1.51 1.55-3.64 2.73-3.53 5.21-2 17.12-16.76 28.91-20.26 45.52-3.28 1.06-6.54 2.48-8.92 5.05-3.32 3.36-6.66 7.17-11.54 8.13 1.23-22.11 10.76-42.53 14.82-64.1 0.11-1.25 0.94-3.08-0.6-3.79-4.68-3.08-10.78-2.61-15.52-5.57-1.9-1.02-1.79-3.47-2.18-5.3-0.91-8.08-0.94-16.87 3.31-24.08z"/>
    <path d="m752.53 593.44c15.79-20.22 32.02-40.19 46.46-61.44 2.21 2.11 4.46 4.4 5.34 7.43 2.15 6.73 0.02 13.72-0.38 20.54-0.33 4.21 0.58 8.68-1.44 12.6-5.5 12.33-14.23 22.83-23.04 32.91-10.72 11.64-22.44 23.13-37.12 29.58-2.5-4.21-5.96-7.79-10.21-10.26 4.58-8.48 1.59-18.13 0.31-27.03-2-10.65 2.26-21.11 2.03-31.77 0.04-7.07-2.17-14.66 1.22-21.3 2.22-4.15 7.34-4.99 11.61-5.05-1.14 18.11 2.19 36.02 5.22 53.79z"/>
    <path d="m332.39 906.56c7.45-0.77 15.24-0.93 22.4 1.59 7.83 2.62 14.94 9.27 15.88 17.8 1.13 12.3-1.61 24.48-3.56 36.56-10.13-0.07-20.26 0.04-30.39-0.06 1.61-10.16 3.71-20.26 4.74-30.5 0.63-2.76-1.53-5.39-4.4-4.74-5.33-0.21-6.12 6.09-6.99 10.02-3.82 22.22-7.49 44.46-11.08 66.72-0.1 2.96-1.46 6.71 0.85 9.15 2.93 1.8 7.44 0.45 8.26-3.11 2.84-8.79 3.55-18.11 5.22-27.16 10.14-0.37 20.29-0.08 30.43-0.15-1.57 9.97-3.22 20.04-6.71 29.55-3.26 8.9-11.03 15.33-19.42 19.23-8.27 3.8-17.68 4.07-26.57 2.97-7.74-1.08-15.81-4.84-19.53-12.06-2.46-4.37-2.45-9.52-2.42-14.37 0.14-12.01 2.89-23.76 4.66-35.58 2.32-13.07 3.9-26.29 7.22-39.16 3.77-14.25 17.01-24.74 31.41-26.7z"/>
    <path d="m45.12 908.45c13.3 0.11 26.62-0.29 39.91 0.36 5.88 0.65 12.35 1.11 17.08 5.07 3.86 3.21 6.2 8.02 6.59 13.01 0.6 7.03-0.24 14.13-1.72 21.01-1.07 4.36-2.45 9.03-5.92 12.13-3.25 2.93-7.58 4.03-11.54 5.62 3.99 1.56 8.44 3.14 10.86 6.95 3.23 5.37 2.39 11.99 1.73 17.93-1.82 9.49-2.47 19.34-6.29 28.32-2.3 5.61-7.01 10.43-13.03 11.86-6.79 1.64-13.84 1.74-20.79 1.71-12.49-0.04-24.99 0.06-37.48-0.05 6.94-41.29 13.67-82.62 20.6-123.92m26.88 21.27c-1.61 9.19-3.09 18.4-4.58 27.62 3.12-0.08 7.27 0.35 9.16-2.76 1.96-4.24 2.48-8.97 3.33-13.52 0.44-3.32 1.29-7.15-0.94-10.03-2.09-1.22-4.64-1.05-6.97-1.31m-7.77 47.45c-2.17 11.34-3.9 22.77-5.72 34.18 3.19-0.58 7.52-0.33 9.34-3.59 2.27-4.54 2.45-9.74 3.43-14.64 0.56-4.74 2.31-9.65 0.98-14.39-2.17-1.59-5.54-2.58-8.03-1.56z"/>
    <path d="m141.15 908.45c10.12 0.05 20.25-0.1 30.37 0.08-5.5 33.02-11.02 66.05-16.42 99.09 6.14 0.05 12.27-0.02 18.4 0.04-1.43 8.26-2.62 16.57-4.23 24.8-16.24-0.13-32.49 0.04-48.73-0.09 6.94-41.29 13.65-82.63 20.61-123.92z"/>
    <path d="m224.05 908.43c14.56 0.04 29.11 0.01 43.66 0.01-0.9 41.33-2.14 82.65-3.07 123.98-10.36-0.03-20.72 0.04-31.08-0.04 0.74-7.34 1.5-14.68 2.06-22.04-3.64-0.01-7.27-0.05-10.91 0.07-1.74 7.35-3.44 14.72-5.37 22.04-10.45-0.09-20.9 0.02-31.35-0.07 11.99-41.32 23.93-82.67 36.06-123.95m4.25 79.83c3.41 0.03 6.82 0.02 10.23 0.01 1.01-16.75 2.34-33.49 3.83-50.21-5.38 16.51-9.82 33.35-14.06 50.2z"/>
    <path d="m401.24 908.44c10.11 0.06 20.23-0.08 30.34 0.07-2.45 15.53-5.46 30.99-7.51 46.58 7.13-15.52 13.96-31.17 21.17-46.66 9.49 0.05 18.99-0.01 28.49 0.03-8.87 18.57-17.9 37.1-26.52 55.78 0.37 9.97 2.13 19.9 3.08 29.85 1.43 12.78 2.9 25.55 4.36 38.32-10.45-0.04-20.91 0.11-31.36-0.08-1.32-17.16-2.04-34.38-3.84-51.49-2.6 17.22-5.66 34.36-8.4 51.56-10.15 0.01-20.31 0.06-30.45-0.03 6.97-41.29 13.64-82.64 20.64-123.93z"/>
    <path d="m495.34 908.44c15.86 0.45 31.89-1.08 47.62 1.42 8.56 0.96 15.5 8.48 15.91 17.05 0.63 9.41-0.48 19.15-3.94 27.97-2.51 6.28-9.26 8.9-15.28 10.6 5.01 2.06 10.94 4.53 12.4 10.36 2.2 9.14-0.63 18.44-1.9 27.51-1.53 8.2-3.11 17.32-9.55 23.25-5.51 5.16-13.56 5.22-20.63 5.73-15.08 0.17-30.17 0.09-45.24 0.04 6.92-41.3 13.63-82.64 20.61-123.93m26.79 21.43c-1.53 9.15-3.05 18.3-4.53 27.46 2.94-0.11 6.55 0.34 8.73-2.09 1.86-3 2.27-6.6 3.04-9.97 0.68-4 1.76-8.13 0.91-12.18-0.95-3.6-5.26-3.1-8.15-3.22m-7.74 47.36c-2.12 11.33-3.9 22.73-5.69 34.11 2.41-0.37 4.96-0.44 7.2-1.51 2.39-1.18 3.07-4.02 3.71-6.37 1.2-5.52 1.95-11.11 2.9-16.67 0.29-2.7 0.79-5.54-0.1-8.16-2.22-1.43-5.62-2.56-8.02-1.4z"/>
    <path d="m590.63 908.46c16.82-0.03 33.65 0 50.47-0.02-1.09 8.36-2.62 16.66-4.04 24.97-6.73-0.01-13.46-0.04-20.19 0.02-1.22 7.81-2.55 15.6-3.82 23.4 6.27 0.06 12.54-0.07 18.81 0.09-1.11 7.91-2.6 15.76-3.84 23.66-6.34 0.07-12.69-0.1-19.03 0.1-1.22 9.02-3.1 17.94-4.27 26.97 7.37-0.01 14.75-0.04 22.12 0.01-1.33 8.06-2.54 16.15-4.08 24.17l-0.71 0.56c-17.3 0.04-34.61 0.04-51.91 0 6.77-41.32 13.74-82.61 20.49-123.93z"/>
    <path d="m666.95 908.46c10.09-0.03 20.18 0.03 30.27-0.04-5.07 33.12-11.07 66.1-16.19 99.22 6.12 0.02 12.24-0.05 18.36 0.04-1.48 8.24-2.69 16.54-4.23 24.77-16.24-0.09-32.49 0.01-48.73-0.05 6.82-41.32 13.72-82.62 20.52-123.94z"/>
    <path d="m721.47 908.44c22.15 0.01 44.3 0.03 66.45-0.01-1.21 8.32-2.78 16.57-4.01 24.89-6.07 0.18-12.14 0.01-18.2 0.1-5.51 33.01-10.86 66.04-16.49 99.03-10.08-0.11-20.15 0.04-30.23-0.08 5.19-33.03 11.14-65.94 16.16-98.99-5.94 0.03-11.87 0.03-17.81 0 1.41-8.31 2.81-16.62 4.13-24.94z"/>
   </g>
   <g id="#000000ff">
    <path d="m444.99 4.85c12.19-0.33 24.39-0.71 36.58-0.28 4.9 0.24 9.85-0.12 14.7 0.85 10.77 0.89 21.53 1.93 32.19 3.77 17.69 2.09 34.93 6.82 52.15 11.25 12.57 3.13 24.83 7.33 36.89 12.05 11.11 3.7 21.56 9.08 32.26 13.82 12 6.1 23.9 12.44 35.25 19.71 7.41 4.05 13.98 9.4 21.1 13.9 12.22 8.65 23.93 17.97 35.28 27.72 4.12 0.43 8.32-0.46 12.45-0.71 70.62-6.14 141.37-10.79 212.19-13.61 2.35-0.18 5.83-0.19 6.34 2.81 0.88 2.34-0.92 4.56-3.05 5.3-18.14 8.2-36.55 15.82-54.56 24.28 17.74-0.8 35.47-1.79 53.22-2.48 6.87 0.1 13.72-1.17 20.6-0.31 0.05 1.22 0.12 2.44 0.2 3.66-38.52 16.86-76.97 33.89-115.46 50.82-2.43 0.98-4.72 2.42-7.29 2.98-22.89-3.81-45.79-7.6-68.59-11.91 18 23.97 33.58 49.78 46.07 77.04 4.03 9.73 8.29 19.36 11.89 29.26 4.13 12.89 8.49 25.72 11.79 38.85 1.78 7.11 3.08 14.32 4.68 21.47 42.23-9.24 84.41-18.7 126.74-27.49 25.86-5.7 51.98-10.26 77.71-16.54 57.8-13.81 115.6-27.64 173.41-41.45 2.02-0.36 4.51-1.17 6.27 0.4 1.55 2.09 1.21 5.5-1.27 6.73-18.52 12.48-37.39 24.45-55.85 37.01 23.23-5.74 46.45-11.54 69.68-17.29 2-0.7 3.98-0.28 5.28 1.49-1.74 3.85-5.94 5.39-9.17 7.69-37.17 24.47-74.33 48.95-111.47 73.45-0.36 0.1-1.06 0.3-1.42 0.41-14.25 0.37-28.53 0-42.77 0.66-11.9 0.27-23.89-0.43-35.7 0.91-48.54 18.87-97.01 37.95-145.54 56.86-15.99 6.34-32.1 12.37-47.97 18.99-0.49 20.19-3.81 40.22-7.88 59.96-6.7 34-17.44 67.29-32.59 98.46-9.91 20.99-22.24 40.74-35.52 59.75 6.67 0.18 13.34-0.15 20.01 0.15 3.65 0.24 4.14 6.24 0.68 7.23-10.42 2.71-21.03 4.71-31.44 7.44-4.64 4.75-8.34 10.4-12.85 15.3 23.38 0.41 46.73 1.36 70.11 1.78-0.2 0.39-0.59 1.19-0.79 1.58-29.98 7.01-60.01 13.84-90 20.81-1.26 0.32-2.61 0.62-3.54 1.58-28.25 27.3-60.38 50.51-94.94 69.15-7.66 3.65-15.17 7.62-22.85 11.21-5.89 2.38-11.73 4.87-17.61 7.28-11.38 4.8-23.31 8.11-35.06 11.85-13.83 4.43-28.13 6.94-42.27 10.09-18.61 3.39-37.38 6.36-56.32 6.7-24.26 0.72-48.67 0.5-72.69-3.32-19.26-2.82-38.3-7.11-57.17-11.73-13.33 1.11-26.67 2.52-40.02 3.3-31.32 1.58-62.84 0.88-93.91-3.71-21.66-3.27-43.17-8.64-63.13-17.8-15.47-7.4-30.49-17.44-39.83-32.17-5.74-8.82-9.25-19.28-9.05-29.86 0.07-2.22-1.41-3.99-2.27-5.9-6.41-12.7-7.46-27.62-3.98-41.32 4.01-14.92 11.63-28.68 20.98-40.9-25.79-38.61-44.96-81.69-55.76-126.87-0.31-2.8-3.47-3.32-5.43-4.65-15.55-9.12-30.01-20.92-39.75-36.28-5.81-9.16-9.91-19.5-11.2-30.31-0.29-2.94-0.33-6-1.74-8.69-7.59-15.78-8.55-34.27-4.02-51.06 5.72-21.76 18.88-40.72 33.73-57.28 3.61-4.36 8.03-7.97 11.61-12.36 6.72-5.96 13.61-11.75 20.39-17.65 0.75-0.63 1.23-1.42 1.44-2.38 3.7-13.18 8.73-25.94 13.58-38.73 6.08-13.85 12.28-27.68 19.95-40.73-14.01-20.28-27.73-41.63-33.54-65.89-1.82-6.78-1.04-13.99-3.31-20.66-2.86-9.66-3.19-20.16-0.42-29.87 2.97-10.17 11.35-17.83 20.6-22.42 14.3-6.85 30.38-8.35 46-9.15 31.89-0.78 63.52 4.45 94.79 9.95 6.47-3.74 12.2-8.66 18.77-12.27 14.97-9.51 30.69-17.81 46.86-25.11 14.25-6.82 29.25-11.86 44.14-17.06 14.4-4.05 28.86-7.87 43.46-11.13 10.7-2.72 21.71-3.76 32.6-5.49 8.74-1.35 17.62-1.59 26.37-2.89m-131.72 55.41c-16.68 7.47-33.17 15.59-48.48 25.61 21.43 5.3 42.8 10.89 63.89 17.44 1.84 0.63 4.34 1.42 4.25 3.83 0.55 2.87-2.15 4.37-4.28 5.47-19.63 10.43-35.34 28.31-42.48 49.42-2.98 9.49-4.43 20.23-0.48 29.66 44.82-16.9 91.32-28.9 138.11-38.88 93.89-19.95 189.26-31.9 284.66-41.81-10.35-9.04-21.98-16.52-33.51-23.94-61.84-39.01-134.91-59.47-207.94-59.49-52.73 0.66-105.42 11.44-153.74 32.69m-196.85 14.38c-12.65 2.19-25.98 6.1-34.96 15.82-7.65 8.18-9.35 20.23-7.49 30.92 2.7 16.2 10.35 31.04 18.61 45.04 17.96 29.57 40.57 55.96 63.73 81.53-19.62 11.13-38.84 23.02-57.18 36.17-24.14 17.41-47.2 36.89-65.42 60.59-12.98 17.15-23.6 37.31-24.46 59.22-0.94 19.36 7.45 38.28 20.61 52.2 18.47 19.78 43.52 32 68.96 40.21 24.62 7.84 50.36 11.86 76.14 13.12 46.23 1.91 93.14-4.74 136.25-21.84-18.79-0.8-37.57-2-56.21-4.57-21.17-2.9-42.33-6.99-62.38-14.52-12.3-4.75-24.49-10.83-33.75-20.42-6.77-6.94-11.4-16.31-11.38-26.12-0.31-11.04 4.11-21.58 9.65-30.9 8.97-14.85 21.22-27.35 33.87-39.07 14.88-13.49 30.89-25.66 47.23-37.32 41.28 29.01 84.35 55.5 128.94 79.13 39.95 21.09 81.35 39.72 124.5 53.28-9.9 3.72-20.01 6.87-29.94 10.51-42.16 14.91-83.85 31.19-124.69 49.45-39.2 17.64-77.72 37.02-114.2 59.82-30.5 19.26-60.11 40.69-84.33 67.62-11.03 12.49-20.92 26.32-26.89 41.98-4.81 12.64-6.49 26.9-2.26 39.94 4.63 15 16.06 26.88 28.97 35.29 15.73 10.34 33.73 16.67 51.92 21.17 27.71 6.76 56.3 9.06 84.75 9.48 40.84 0.23 81.61-3.86 121.86-10.63 84.19-14.26 166.09-39.97 245.2-71.8 48.21-10.12 96.19-21.38 144.19-32.43 12.28-3 24.72-5.39 36.9-8.72-42.38-0.09-84.77-0.52-127.16-0.58-13.28-0.49-26.59-0.52-39.87-0.35-21.07 15.45-44.41 28-69.4 35.81-2.5 0.76-5.03 1.63-7.67 1.54-39.53 0.34-79.18-0.04-118.45-4.96-16.4-2.3-32.97-5.07-48.32-11.52-7.62-3.36-15.48-7.84-19.59-15.4-3.59-6.49-2.46-14.52 0.81-20.9 4.85-9.59 12.72-17.18 20.64-24.26 14.95-12.81 31.55-23.53 48.38-33.69 36.83-21.87 75.36-40.71 114.16-58.79 38.78-17.97 78.01-34.94 117.41-51.47 119.63-50.1 241.07-95.68 361.69-143.28 4.65-1.6 9.08-4.54 14.19-4.2 21.67-0.18 43.36-0.28 65.02-1.08 3.4-0.35 7.32 0.79 10.29-1.38 20.08-13.27 40.19-26.49 60.28-39.73 15.89-10.66 32.15-20.81 47.83-31.77-16.63 3.57-33.1 7.86-49.67 11.71-47.17 11.25-94.33 22.56-141.5 33.8-45.2 9.16-90.32 18.68-135.37 28.54-88.74 19.57-177.32 40.04-264.96 64.09-40.41 11.36-80.88 22.94-119.88 38.57-9.51-4.33-18.59-9.54-27.43-15.08-33.17-20.96-64.66-44.43-96.05-67.93-33.2-24.82-65.59-50.7-98.64-75.71 23.36-8.87 46.99-17 70.62-25.15 85.37-29.03 171.79-54.95 258.91-78.19 44.94-11.85 90.04-23.19 135.6-32.44 1.63-0.28 3.3-0.78 4.99-0.49 22.56 4.34 45.21 8.26 67.9 11.78 37.14-16.28 74.28-32.59 111.34-49.07-8.42-0.11-16.84 0.39-25.24 0.8-39.06 1.77-78.09 4.1-117.1 6.87-93.78 6.78-187.44 16-280.46 29.83-48.82 7.33-97.47 15.92-145.58 27.04-39.7 9.27-79.18 20-117.17 34.89-3.25-5.96-4.41-12.87-4.16-19.6 0.89-15.53 7.64-30.24 17.09-42.41 8.65-11.45 20.28-20.21 32.75-27.12-43.35-13.28-87.52-24.23-132.41-30.81-26.63-3.56-53.83-6.22-80.56-2.06m503.19 136.99c-88.44 24.53-176.18 51.71-262.63 82.55 11.55 9.45 23.57 18.33 35.34 27.51 32.55 24.93 65.35 49.57 99.1 72.87 15.03 10.19 30.21 20.23 46.28 28.72 2.05 1.01 4.41 2.29 6.68 1.12 13.59-5.35 27.39-10.18 41.27-14.73 41.86-13.54 84.32-25.17 126.92-36.15 45.47-11.85 91.25-22.52 136.99-33.33-8.98-45.81-26.55-89.9-51.24-129.51-8.37-13.16-17.11-26.18-27.28-38.02-50.56 12.64-101.3 24.67-151.43 38.97m-495.53 25.74c-6.21 11.5-11.68 23.45-16.25 35.69 10.06-6.31 19.88-13.01 30.08-19.1-4.62-5.52-8.98-11.26-13.83-16.59m92.72 134.43c-9.53 8.11-18.88 16.43-27.76 25.25-6.92 6.17-12.09 13.95-17.72 21.25-4.76 7.88-11.06 15.95-10.93 25.58 3.19 4.37 7.89 7.35 12.23 10.48 17.02 10.9 36.85 16.25 56.4 20.54 26.95 5.53 54.46 7.88 81.91 8.91 3.82-0.01 4.89 6.18 1.29 7.47-18.05 7.64-37.26 12.05-56.31 16.41 17.15 3.35 34.62 4.68 52.07 4.93 3.26-0.04 6.76 0.64 9.79-0.92 33.42-15.67 67.61-29.69 102.1-42.83 7.48-2.94 15.17-5.37 22.49-8.71-69.23-29.56-134.39-67.95-196.23-110.69-9.93 7.24-20.23 14.03-29.33 22.33m389.26 178.28c-38.72 17.63-77.18 35.95-114.38 56.62-18.76 10.52-37.32 21.5-54.56 34.4-11.42 8.65-22.81 17.91-30.63 30.1 8.73 5.37 18.65 8.47 28.58 10.76 20.99 4.76 42.49 6.68 63.93 8.01 26.65 1.53 53.35 1.77 80.03 1.46 5-0.35 9.67-2.43 14.38-4 20.87-7.63 40.69-18.2 58.49-31.51 1.46-1.1 3.17-1.92 5.05-1.84 38.36 0.24 76.72 0.54 115.09 0.69 1.54 0.04 3.33-0.02 4.22-1.53 45.9-59.33 74.09-132.27 79.61-207.11-83.87 33.18-167.62 66.77-249.81 103.95m-509.34-23.11c6.86 24.52 16.91 48.1 28.68 70.65 5.18 9.38 10.13 18.98 16.45 27.65 36.18-37.15 81.01-64.28 126.19-89.02-8.59 1.12-16.94 3.7-25.58 4.45-7.83 0.78-15.62 1.91-23.47 2.45-7 0.16-13.99-0.56-21-0.41-34.27 0.25-69.03-3.58-101.27-15.77m635.19 157.3c5.81 0.17 11.66 0.38 17.46-0.01 2.02-1.38 3.43-3.43 4.92-5.32-7.49 1.61-15.14 2.86-22.38 5.33m-72.06 47.45c-3.56 0.72-7.18 1.27-10.59 2.57-72.24 29.12-146.88 52.82-223.43 67.5 7.96 1.44 16.09 1.63 24.16 2.09 92.54 4.85 186.47-25.11 259-82.82-16.42 3.35-32.71 7.37-49.14 10.66z"/>
    <path d="m319.05 908.16c9.21-4.54 19.88-5.64 29.96-4.04 5.48 0.8 10.48 3.31 15.63 5.2 4.95 1.9 9.51 5.1 12.51 9.52 2.5 3.62 3.41 8.01 5.03 12.04 2.08 5.41 1.58 11.34 1.26 17.01-0.76 8.06-2.28 16.02-3.56 24.01-10.04 0.28-20.09 0.12-30.13 0.1 0.05-1.59 0.12-3.15 0.18-4.71-3.56-0.2-6.76-1.89-10.25-2.39-0.84 5.05-1.7 10.09-2.46 15.16 8.27 0.33 16.55 0 24.82 0.13 2.87-0.43 4.15 3.21 6.98 3.03 1.5 0.37 3.61-0.22 4.54 1.39 0.23 2.32-0.26 4.64-0.51 6.95 1.12 0.47 2.25 0.96 3.38 1.46-2.18 11.29-3.41 23.16-8.95 33.44-12.28 19.36-42.15 24.69-60.1 10.24-4.94-2.2-10.44-3.71-14.19-7.89-5.65-5.26-6.99-13.42-6.74-20.79 0.52-14.37 3.8-28.42 5.92-42.58 1.84-10.72 3.3-21.51 6.01-32.05 2.65-10.94 10.54-20.39 20.67-25.23m13.34-1.6c-14.4 1.96-27.64 12.45-31.41 26.7-3.32 12.87-4.9 26.09-7.22 39.16-1.77 11.82-4.52 23.57-4.66 35.58-0.03 4.85-0.04 10 2.42 14.37 3.72 7.22 11.79 10.98 19.53 12.06 8.89 1.1 18.3 0.83 26.57-2.97 8.39-3.9 16.16-10.33 19.42-19.23 3.49-9.51 5.14-19.58 6.71-29.55-10.14 0.07-20.29-0.22-30.43 0.15-1.67 9.05-2.38 18.37-5.22 27.16-0.82 3.56-5.33 4.91-8.26 3.11-2.31-2.44-0.95-6.19-0.85-9.15 3.59-22.26 7.26-44.5 11.08-66.72 0.87-3.93 1.66-10.23 6.99-10.02 2.87-0.65 5.03 1.98 4.4 4.74-1.03 10.24-3.13 20.34-4.74 30.5 10.13 0.1 20.26-0.01 30.39 0.06 1.95-12.08 4.69-24.26 3.56-36.56-0.94-8.53-8.05-15.18-15.88-17.8-7.16-2.52-14.95-2.36-22.4-1.59m33.91 5.28c2.91 3.63 5.84 7.51 6.62 12.23 1.53 9.09-0.02 18.33-1.39 27.35-0.79 4.6-1.2 9.35-3.07 13.68 2.27-0.28 4.97 0.57 6.95-0.69 2.01-11.67 4.62-23.52 3.59-35.43-0.56-7.65-6.31-13.58-12.7-17.14m-31.06 18.25c-2.1 2.86-2.41 6.55-3.17 9.92-2.78 16.91-5.6 33.82-8.4 50.73-1.11 6.82-2.65 13.63-2.51 20.58 1.58-0.13 3.79 0.17 4.36-1.78 2.39-5.84 2.7-12.27 3.89-18.41 1.56-9.39 3.78-18.68 4.85-28.15 1.19-11.17 4.32-22.1 4.63-33.36-1.23 0.09-2.45 0.24-3.65 0.47m30.83 55.17c-2.15 10.12-3.45 20.58-7.66 30.14-3.59 7.99-10.68 13.79-18.34 17.69-4.45 2.32-9.47 3.05-14.21 4.57 13.1 0.62 26.55-4.64 34.91-14.9 4.27-5.25 6.03-11.93 7.64-18.36 1.47-6.32 2.75-12.7 3.52-19.15-1.96-0.01-3.91 0-5.86 0.01z"/>
    <path d="m42.22 910.12c0.21-2.07 1.31-4.43 3.8-4.1 12-0.17 24.01-0.19 36.01 0.18 5.98 0.14 12.06 0.82 17.61 3.2 4.71 2.07 10.18 3.17 13.69 7.25 3.82 3.87 4.84 9.36 6.76 14.25 2.08 5.29 1.66 11.11 1.22 16.67-0.76 5.95-1.58 12.06-4.21 17.52-1.56 3.36-4.68 5.52-7.53 7.72 2.81 6.74 6.38 13.66 5.82 21.18-0.34 6.56-1.85 12.98-2.8 19.47-1.55 8.23-3.3 17.42-10.01 23.14-5.34 4.64-12.81 4.75-19.5 5.19-15.14 0.37-30.29 0.05-45.44 0.18 0.03-1.59 0.08-3.16 0.12-4.73-3.7-0.27-7.06-2.08-10.76-2.27-1.58-0.3-3.56-0.04-4.59-1.55-0.46-3.76 0.75-7.45 1.25-11.14 6.21-37.38 12.46-74.76 18.56-112.16m2.9-1.67c-6.93 41.3-13.66 82.63-20.6 123.92 12.49 0.11 24.99 0.01 37.48 0.05 6.95 0.03 14-0.07 20.79-1.71 6.02-1.43 10.73-6.25 13.03-11.86 3.82-8.98 4.47-18.83 6.29-28.32 0.66-5.94 1.5-12.56-1.73-17.93-2.42-3.81-6.87-5.39-10.86-6.95 3.96-1.59 8.29-2.69 11.54-5.62 3.47-3.1 4.85-7.77 5.92-12.13 1.48-6.88 2.32-13.98 1.72-21.01-0.39-4.99-2.73-9.8-6.59-13.01-4.73-3.96-11.2-4.42-17.08-5.07-13.29-0.65-26.61-0.25-39.91-0.36m61.11 5.26c4.5 6.51 5.98 14.48 5.08 22.28-0.72 7.25-1.7 14.73-4.99 21.33-1.98 4.08-6.04 6.38-9.68 8.77 3.11 2.65 6.93-0.09 9.94-1.54 5.04-2.64 7.3-8.26 8.51-13.51 1.69-7.5 2.68-15.32 1.69-22.99-0.76-6.22-4.97-11.63-10.55-14.34m-4.09 56.11c1.63 3.86 3.16 7.88 3.12 12.16 0 7.9-1.94 15.63-3.09 23.42-1.69 8.58-3.79 18.09-10.97 23.84-5.33 4.54-12.65 4.78-19.27 5.34 6.17 0.28 12.44 0.28 18.48-1.15 5.03-1.14 9.48-4.43 12.07-8.89 4.24-7.36 5.25-15.96 6.69-24.18 1.16-7.09 2.66-14.43 1.06-21.57-0.94-4.22-4.4-7.12-8.09-8.97z"/>
    <path d="m138.42 909.38c0.1-1.94 1.55-3.58 3.59-3.36 9.34-0.18 18.7-0.12 28.05-0.03 2.19-0.15 3.39 2.02 5.23 2.79 1.87 0.38 3.78 0.45 5.68 0.65 0.64 2.72 0.2 5.51-0.13 8.25 0.81 0.17 2.42 0.51 3.22 0.69-4.48 28.76-9.63 57.42-14.1 86.19 2.15 0.43 4.22 1.19 5.98 2.52 2.05 1.66 5.09 0.65 7.14 2.17 0.83 2.39-0.16 5.02-0.3 7.5 0.82 0.18 2.46 0.55 3.28 0.73-1.15 8.18-2.61 16.31-4.01 24.45-16.13 0.07-32.26-0.01-48.4 0.04 0.03-1.59 0.07-3.17 0.11-4.73-5.2-1.15-10.43-2.14-15.58-3.46 0.14-4.98 1.28-9.84 2.05-14.74 6.06-36.56 12.11-73.12 18.19-109.66m2.73-0.93c-6.96 41.29-13.67 82.63-20.61 123.92 16.24 0.13 32.49-0.04 48.73 0.09 1.61-8.23 2.8-16.54 4.23-24.8-6.13-0.06-12.26 0.01-18.4-0.04 5.4-33.04 10.92-66.07 16.42-99.09-10.12-0.18-20.25-0.03-30.37-0.08m32.7 2.44c-3.06 15.58-5.24 31.34-8.01 46.98-2.46 15.75-5.4 31.42-7.67 47.2 1.96-0.02 3.92-0.03 5.89-0.02 2.46-13.16 4.39-26.41 6.67-39.6 2.87-18.17 6.31-36.26 8.83-54.48-1.91-0.04-3.81-0.06-5.71-0.08m1.71 99.41c-1.45 8.26-2.38 16.63-4.46 24.78 2.19-0.08 4.38-0.15 6.57-0.24 1.21-8.28 3.16-16.47 3.78-24.82-1.97 0.08-3.93 0.17-5.89 0.28z"/>
    <path d="m220.95 909.86c0.62-1.55 0.97-3.99 3.15-3.77 12.62-0.41 25.28 0.01 37.91-0.19 2.56 0.12 5.55-0.5 7.56 1.52 2.03 2.06 5.12 1.4 7.64 2.38 0.91 2.13 0.37 4.58 0.94 6.82 1.1 1.62 2.67 3.17 2.28 5.34-1.05 39.96-2.24 79.91-2.98 119.88-10.26 0.26-20.53 0.04-30.8 0.12-0.04-1.56-0.06-3.09-0.08-4.62-4.36-0.53-8.35-3.2-12.87-2.19-0.48 2.27-1.05 4.54-1.65 6.8-10.35 0-20.7 0.04-31.05-0.03 0.27-1.61 0.56-3.19 0.85-4.78-4.08 0-7.76-1.98-11.8-2.22-1.55-0.33-4 0-4.38-2.06 0.3-4.16 2.01-8.07 3.07-12.07 10.73-36.98 21.51-73.95 32.21-110.93m3.1-1.43c-12.13 41.28-24.07 82.63-36.06 123.95 10.45 0.09 20.9-0.02 31.35 0.07 1.93-7.32 3.63-14.69 5.37-22.04 3.64-0.12 7.27-0.08 10.91-0.07-0.56 7.36-1.32 14.7-2.06 22.04 10.36 0.08 20.72 0.01 31.08 0.04 0.93-41.33 2.17-82.65 3.07-123.98-14.55 0-29.1 0.03-43.66-0.01m46.26 2.61c-1.1 35.99-1.85 71.98-2.82 107.98-0.24 5.34 0.22 10.79-1.14 16.03 2.18-0.06 4.35-0.1 6.53-0.11 0.95-41.31 2.24-82.61 3.05-123.92-1.88-0.01-3.75 0-5.62 0.02m-43.42 101.73c-2.21 7.35-3.46 14.96-5.78 22.3 2.21-0.08 4.43-0.14 6.64-0.22 1.68-7.33 3.65-14.59 5.11-21.96-2-0.06-3.98-0.1-5.97-0.12z"/>
    <path d="m398.47 909.43c0.15-1.89 1.48-3.65 3.55-3.4 9.34-0.2 18.69-0.13 28.04-0.04 2.18-0.16 3.44 1.92 5.23 2.81 1.95 0.4 3.95 0.55 5.92 0.87 1.02-1.15 1.94-2.43 3.22-3.31 2.44-0.71 5.05-0.38 7.57-0.45 6.68 0.13 13.37-0.13 20.05 0.08 2.5-0.22 3.68 2.69 6.08 2.86 1.96 0.32 3.93 0.68 5.8 1.43-0.82 2.59-1.93 5.07-3.08 7.53 1.78 0.11 3.57 0.23 5.36 0.37-8.52 18.73-17.99 37.06-26.31 55.86 1.88 22.66 5.14 45.25 7.4 67.89-10.37 0.01-20.74 0.11-31.1-0.05-0.23-1.52-0.45-3.01-0.66-4.5-3.52-0.77-6.81-2.46-10.46-2.63-0.52 2.35-0.98 4.72-1.41 7.1-9.99 0.24-19.98 0.04-29.97 0.11 0.02-1.59 0.06-3.16 0.1-4.72-3.71-0.3-7.08-2.06-10.79-2.29-1.66-0.15-3.25-0.64-4.8-1.22 0.2-4.96 1.31-9.81 2.09-14.7 6.03-36.54 12.12-73.07 18.17-109.6m2.77-0.99c-7 41.29-13.67 82.64-20.64 123.93 10.14 0.09 20.3 0.04 30.45 0.03 2.74-17.2 5.8-34.34 8.4-51.56 1.8 17.11 2.52 34.33 3.84 51.49 10.45 0.19 20.91 0.04 31.36 0.08-1.46-12.77-2.93-25.54-4.36-38.32-0.95-9.95-2.71-19.88-3.08-29.85 8.62-18.68 17.65-37.21 26.52-55.78-9.5-0.04-19 0.02-28.49-0.03-7.21 15.49-14.04 31.14-21.17 46.66 2.05-15.59 5.06-31.05 7.51-46.58-10.11-0.15-20.23-0.01-30.34-0.07m32.65 2.41c-1.81 8.67-2.93 17.47-4.61 26.17 2.88-5.49 5.21-11.25 7.85-16.85 1.38-2.85 2.25-5.9 2.79-9-2.02-0.13-4.03-0.23-6.03-0.32m41.35 0.25c-8.46 17.99-17.4 35.79-25.5 53.93 1.46 17.35 3.9 34.65 5.69 51.99 0.51 6 2.06 12.03 0.99 18.06 2.14-0.08 4.29-0.15 6.43-0.21-2.39-21.69-4.89-43.37-7.39-65.04-0.19-1.64-0.09-3.31 0.67-4.78 8.61-18.02 17.3-36 25.76-54.09-2.22 0.01-4.44 0.06-6.65 0.14m-62.84 123.99c2.35-0.09 4.69-0.17 7.04-0.27 0.61-3.91 1.2-7.85 0.73-11.8-0.65-6.39-0.69-12.84-1.56-19.2-2.74 10.28-2.83 21.15-6.21 31.27z"/>
    <path d="m492.59 909.26c0.06-2.33 2.23-3.54 4.36-3.29 13.65 0.01 27.33-0.35 40.96 0.57 6.94 0.38 13.26 3.46 19.65 5.9 5.01 2.04 8.63 6.61 10.3 11.66 1.58 4.85 3.99 9.59 3.93 14.82 0.09 8.43-0.84 17.07-3.92 24.97-1.42 3.94-4.89 6.48-8.11 8.88 2.05 4.03 3.3 8.39 4.9 12.61 2.27 8.03-0.1 16.34-1.25 24.36-1.65 9.04-2.83 19.19-9.68 25.99-5.93 5.94-14.93 5.7-22.71 6.15-14.41 0.16-28.82 0.04-43.24 0.06 0.02-1.58 0.06-3.15 0.08-4.7-5.13-1.01-10.15-2.46-15.35-3.14-0.17-4.79 0.98-9.46 1.74-14.14 6.11-36.9 12.26-73.8 18.34-110.7m2.75-0.82c-6.98 41.29-13.69 82.63-20.61 123.93 15.07 0.05 30.16 0.13 45.24-0.04 7.07-0.51 15.12-0.57 20.63-5.73 6.44-5.93 8.02-15.05 9.55-23.25 1.27-9.07 4.1-18.37 1.9-27.51-1.46-5.83-7.39-8.3-12.4-10.36 6.02-1.7 12.77-4.32 15.28-10.6 3.46-8.82 4.57-18.56 3.94-27.97-0.41-8.57-7.35-16.09-15.91-17.05-15.73-2.5-31.76-0.97-47.62-1.42m60.91 5.25c2.14 3.45 4.32 7.01 4.92 11.11 1.1 7.03 0.27 14.21-1.04 21.15-0.94 4.63-2.12 9.38-4.83 13.33-2.09 2.98-5.35 4.75-8.35 6.65 0.73 0.57 1.46 1.15 2.21 1.74 4.32-1.38 8.9-3.02 11.85-6.66 3.11-3.98 4.16-9.08 5.09-13.92 1.12-6.56 1.85-13.33 0.73-19.92-1.05-5.93-5.19-10.95-10.58-13.48m-3.99 56.04c5.89 10.88 1.94 23.28 0.27 34.69-1.69 8.92-3.72 18.92-11.21 24.9-5.12 4.29-12.07 4.66-18.41 5.27 8.82 0.17 19.08 0.72 26.13-5.57 7.01-6.8 8.25-17.08 9.89-26.22 1.17-8.21 3.7-16.76 1.19-24.97-1.12-3.85-4.55-6.24-7.86-8.1z"/>
    <path d="m588.62 906.59c4.72-1.06 9.58-0.59 14.38-0.65 12.33 0.06 24.67-0.12 37.01 0.06 2.48-0.11 3.62 2.87 6.06 2.96 1.59 0.21 3.19 0.32 4.79 0.49 0.4 2.58 0.01 5.19-0.42 7.76 1.12 0.44 2.25 0.9 3.39 1.35-1.29 8.09-2.59 16.18-4.02 24.24-6.65 0.14-13.31 0-19.96 0.06-0.97 3.61-1.56 7.32-1.83 11.06 2.11 0.34 4.29 0.74 6.01 2.14 2.21 1.74 5.16 1.54 7.78 2.15-0.07 2.68-0.3 5.36-0.6 8.03 0.81 0.16 2.43 0.47 3.24 0.62-1.01 7.73-2.44 15.39-3.69 23.08-6.35 0.64-12.73-0.07-19.08 0.48-0.68 4.86-1.68 9.67-2.22 14.56 3.01 0.32 6.6-0.74 9.07 1.52 2.07 2.01 5.12 1.58 7.7 2.38 1.18 2.34 0.02 5.23-0.07 7.78 1.11 0.39 2.22 0.79 3.35 1.22-1.39 7.97-2.7 15.95-3.97 23.94-17.48 0.27-34.98 0.13-52.46 0.07 0.12-1.57 0.26-3.12 0.41-4.66-5.1-0.7-9.91-2.68-15.11-2.8-1.09-3.13-0.06-6.37 0.4-9.49 5-29.78 9.88-59.57 14.84-89.36 1.72-9.66 2.97-19.4 5-28.99m2.01 1.87c-6.75 41.32-13.72 82.61-20.49 123.93 17.3 0.04 34.61 0.04 51.91 0l0.71-0.56c1.54-8.02 2.75-16.11 4.08-24.17-7.37-0.05-14.75-0.02-22.12-0.01 1.17-9.03 3.05-17.95 4.27-26.97 6.34-0.2 12.69-0.03 19.03-0.1 1.24-7.9 2.73-15.75 3.84-23.66-6.27-0.16-12.54-0.03-18.81-0.09 1.27-7.8 2.6-15.59 3.82-23.4 6.73-0.06 13.46-0.03 20.19-0.02 1.42-8.31 2.95-16.61 4.04-24.97-16.82 0.02-33.65-0.01-50.47 0.02m52.67 2.68c-1.63 8.28-1.93 16.91-4.83 24.88 2.33-0.11 4.67-0.2 7.01-0.35 1.19-8.27 2.87-16.45 3.89-24.74-2.03 0.04-4.05 0.11-6.07 0.21m-24.22 24.84c-1.11 6.07-2.07 12.18-3.03 18.29 2.1 0.1 4.22 0.07 6.32-0.22 0.65-6.07 2.02-12.04 2.66-18.11-1.99-0.01-3.97 0-5.95 0.04m14.9 23.63c-1.48 7.87-1.91 16.01-4.54 23.62 2.23-0.02 4.46-0.02 6.7 0.01 1.53-7.86 2.77-15.78 3.95-23.69-2.05-0.05-4.08-0.03-6.11 0.06m-22.72 23.64c-1.28 7.25-2.56 14.52-3.57 21.82 2.02-0.03 4.05-0.08 6.08-0.13 1.05-7.26 2.63-14.44 3.34-21.74-1.95 0-3.9 0.01-5.85 0.05m17.8 26.96c-1.79 8.24-2.16 16.8-4.82 24.84 2.24-0.05 4.49-0.1 6.75-0.13 1.38-8.25 2.94-16.46 3.98-24.75-1.97-0.01-3.94 0.01-5.91 0.04z"/>
    <path d="m664.32 909.21c-0.04-2.55 2.45-3.45 4.63-3.26 9.01 0 18.04-0.12 27.05 0.06 2.44-0.02 3.7 2.77 6.1 2.93 1.55 0.23 3.11 0.37 4.69 0.57 0.15 2.71 0.09 5.44 0.02 8.17 0.78 0.18 2.34 0.54 3.12 0.71-4.45 28.76-9.77 57.39-14.02 86.17 2.44 0.42 4.62 1.56 6.66 2.95 2.05 1.36 5.64-0.07 6.78 2.58-0.07 2.24-0.54 4.46-0.91 6.68 1.15 0.21 2.3 0.44 3.47 0.68-1.11 8.18-2.62 16.3-3.98 24.45-16.21 0.06-32.42 0.15-48.62-0.05 0.11-1.56 0.25-3.11 0.38-4.65-5.22-1-10.38-2.2-15.56-3.32 0.33-8.53 2.53-16.84 3.68-25.27 5.5-33.13 10.98-66.27 16.51-99.4m2.63-0.75c-6.8 41.32-13.7 82.62-20.52 123.94 16.24 0.06 32.49-0.04 48.73 0.05 1.54-8.23 2.75-16.53 4.23-24.77-6.12-0.09-12.24-0.02-18.36-0.04 5.12-33.12 11.12-66.1 16.19-99.22-10.09 0.07-20.18 0.01-30.27 0.04m32.46 2.7c-5.01 31.31-10.48 62.55-15.41 93.87 1.99 0 3.98-0.01 5.99-0.02 5.31-31.35 10.43-62.73 15.63-94.1-2.08 0.06-4.15 0.14-6.21 0.25m2.08 99.15c-1.82 8.23-1.91 16.9-5.01 24.8 2.36-0.1 4.72-0.18 7.08-0.28 1.15-8.28 3.05-16.45 3.81-24.78-1.97 0.07-3.92 0.15-5.88 0.26z"/>
    <path d="m719.51 906.53c4.77-0.94 9.65-0.55 14.49-0.59 16.68-0.02 33.37 0.03 50.06-0.04 1.96 0 4.12-0.11 5.61 1.44 2.12 2.15 5.33 1.73 8.08 2.23 0.03 2.61-0.18 5.22-0.49 7.82 1.12 0.47 2.25 0.97 3.38 1.48-1.51 7.93-2.71 15.92-3.99 23.9-6.09 0.26-12.19-0.19-18.26 0.34-5.45 32.93-10.91 65.85-16.39 98.78-9.98 0.13-19.97 0.06-29.95 0.04 0-1.57 0.01-3.13 0.03-4.68-4.36-0.58-8.44-2.42-12.87-2.56-3.22 0.14-2.79-3.6-2.32-5.71 4.51-26.67 8.81-53.37 13.34-80.04 0.74-3.53 0.27-7.13 0.38-10.7-5.11-0.78-9.94-2.78-15.17-2.83-0.67-3.83 0.26-7.64 0.91-11.39 1.07-5.83 1.72-11.74 3.16-17.49m1.96 1.91c-1.32 8.32-2.72 16.63-4.13 24.94 5.94 0.03 11.87 0.03 17.81 0-5.02 33.05-10.97 65.96-16.16 98.99 10.08 0.12 20.15-0.03 30.23 0.08 5.63-32.99 10.98-66.02 16.49-99.03 6.06-0.09 12.13 0.08 18.2-0.1 1.23-8.32 2.8-16.57 4.01-24.89-22.15 0.04-44.3 0.02-66.45 0.01m68.63 2.64c-1.64 8.28-2.24 16.81-4.69 24.92 2.17-0.09 4.35-0.13 6.55-0.12 1.63-8.25 3.02-16.56 4.08-24.9-1.99 0.02-3.97 0.05-5.94 0.1m-22.42 25.02c-4.56 29.43-9.72 58.76-14.46 88.15-0.61 3.68-1.06 7.46-2.73 10.86 2.37-0.1 4.75-0.19 7.13-0.28 5.31-32.98 11.05-65.88 16.26-98.87-2.08 0.01-4.14 0.06-6.2 0.14z"/>
    <path d="m842.4 908.39c0.23-2.77 3.56-2.3 5.54-2.47 20.38 0.04 40.77-0.02 61.16 0.03 2.24-0.31 3.83 1.31 5.49 2.52 2.22 0.71 4.59 0.84 6.87 1.37-0.23 2.45-0.58 4.91-1 7.36 1.12 0.42 2.26 0.84 3.41 1.27-1.18 8.13-2.53 16.24-4 24.32-5.99 0.16-11.99-0.06-17.98 0.18-5.56 31.94-10.69 63.97-15.97 95.97-0.34 1.08-0.23 3.29-1.97 3.01-9.54 0.06-19.08 0-28.62-0.03-0.01-1.58 0.01-3.15 0.03-4.7-5.02-0.83-9.81-2.66-14.95-2.82-0.84-3.77 0.24-7.54 0.83-11.25 4.21-25.22 8.35-50.45 12.58-75.67 0.57-3.09 0.25-6.23 0.07-9.33-3.75-0.22-7.16-1.96-10.87-2.25-1.67-0.16-3.26-0.6-4.8-1.2 0.95-8.83 2.63-17.58 4.18-26.31m2.64 0.04c-1.7 8.23-3 16.54-4.14 24.87 5.93 0.21 11.88 0.03 17.82 0.11-5.46 32.97-11.16 65.92-16.28 98.94 10.09-0.04 20.21 0.4 30.29-0.23 5.47-32.91 10.76-65.85 16.42-98.72 5.85-0.15 11.73 0.27 17.57-0.17 1.09-1.04 0.82-2.77 1.24-4.1 0.93-6.92 2.57-13.75 3.03-20.72-21.98 0.07-43.97 0.04-65.95 0.02z"/>
    <path d="m928.07 906.21c11.21-0.43 22.5-0.47 33.7-0.04 2.79 2.44 6.24 3.25 9.89 3.43 0.15 2.79 0.1 5.59 0 8.39 0.93-3.51 1.54-7.12 2.87-10.5 0.68-1.75 2.88-1.37 4.39-1.55 9.37 0 18.75-0.06 28.12 0.03 2.19-0.23 3.56 1.74 5.32 2.7 2.07 0.48 4.22 0.61 6.34 0.96-0.07 2.76-0.77 5.45-1.57 8.09 1.38 0.17 2.77 0.36 4.17 0.55-11.62 41.25-23.97 82.31-35.7 123.54-15.34 0.27-30.69 0.18-46.03 0.04-0.13-1.53-0.25-3.04-0.38-4.55-4.85-1.36-9.71-2.48-14.7-3.17-0.42-16.72 0.73-33.43 0.86-50.15 0.46-21.98 1.19-43.94 1.53-65.92 0.28-3.96-0.11-8.04 1.19-11.85m1.62 2.33c-0.89 41.26-2.02 82.51-2.93 123.77 15.35 0.15 30.72 0.23 46.08-0.04 11.94-41.3 24.02-82.56 35.96-123.86-10.73 0.11-21.45-0.09-32.17 0.11-6.96 27.5-14.2 54.93-20.38 82.61-0.04-2.07-0.03-4.13 0.08-6.17 2.14-25.49 4.2-51.01 5.41-76.56-10.68 0.16-21.37-0.11-32.05 0.14z"/>
    <path d="m72 929.72c2.33 0.26 4.88 0.09 6.97 1.31 2.23 2.88 1.38 6.71 0.94 10.03-0.85 4.55-1.37 9.28-3.33 13.52-1.89 3.11-6.04 2.68-9.16 2.76 1.49-9.22 2.97-18.43 4.58-27.62m2.07 2.77c-1.34 7.51-2.57 15.04-3.67 22.59 1.83-0.58 4.18-0.87 4.57-3.15 1.88-6.1 3.08-12.53 2.73-18.93-1.21-0.19-2.42-0.36-3.63-0.51z"/>
    <path d="m522.13 929.87c2.89 0.12 7.2-0.38 8.15 3.22 0.85 4.05-0.23 8.18-0.91 12.18-0.77 3.37-1.18 6.97-3.04 9.97-2.18 2.43-5.79 1.98-8.73 2.09 1.48-9.16 3-18.31 4.53-27.46m-1.36 25.17c1.71-0.55 3.91-0.83 4.31-2.94 1.94-6.1 3.14-12.55 2.79-18.97-0.82-0.23-2.46-0.68-3.28-0.91-1.84 7.48-2.89 15.17-3.82 22.82z"/>
    <path d="m228.3 988.26c4.24-16.85 8.68-33.69 14.06-50.2-1.49 16.72-2.82 33.46-3.83 50.21-3.41 0.01-6.82 0.02-10.23-0.01m3.46-2.53c1.4-0.02 2.8-0.02 4.21-0.01 0.79-7.91 1.31-15.85 1.72-23.79-1.87 7.96-4.59 15.72-5.93 23.8z"/>
    <path d="m64.23 977.17c2.49-1.02 5.86-0.03 8.03 1.56 1.33 4.74-0.42 9.65-0.98 14.39-0.98 4.9-1.16 10.1-3.43 14.64-1.82 3.26-6.15 3.01-9.34 3.59 1.82-11.41 3.55-22.84 5.72-34.18m-2.52 31.36c3.37-0.32 5.04-3.22 5.44-6.28 1.2-7.38 3-14.74 3.04-22.25-0.9-0.18-2.72-0.53-3.63-0.71-2.09 9.65-3.62 19.44-4.85 29.24z"/>
    <path d="m514.39 977.23c2.4-1.16 5.8-0.03 8.02 1.4 0.89 2.62 0.39 5.46 0.1 8.16-0.95 5.56-1.7 11.15-2.9 16.67-0.64 2.35-1.32 5.19-3.71 6.37-2.24 1.07-4.79 1.14-7.2 1.51 1.79-11.38 3.57-22.78 5.69-34.11m2.26 2.17c-1.88 9.63-3.6 19.32-4.74 29.07 4.89-0.37 5.38-5.78 6.06-9.57 0.85-6.33 2.64-12.58 2.34-19.02-0.92-0.12-2.74-0.36-3.66-0.48z"/>
   </g>
   <g id="#ff0606ff" fill="#ff0606">
    <path d="m313.27 60.26c48.32-21.25 101.01-32.03 153.74-32.69 73.03 0.02 146.1 20.48 207.94 59.49 11.53 7.42 23.16 14.9 33.51 23.94-95.4 9.91-190.77 21.86-284.66 41.81-46.79 9.98-93.29 21.98-138.11 38.88-3.95-9.43-2.5-20.17 0.48-29.66 7.14-21.11 22.85-38.99 42.48-49.42 2.13-1.1 4.83-2.6 4.28-5.47 0.09-2.41-2.41-3.2-4.25-3.83-21.09-6.55-42.46-12.14-63.89-17.44 15.31-10.02 31.8-18.14 48.48-25.61z"/>
    <path d="m619.61 211.63c50.13-14.3 100.87-26.33 151.43-38.97 10.17 11.84 18.91 24.86 27.28 38.02 24.69 39.61 42.26 83.7 51.24 129.51-45.74 10.81-91.52 21.48-136.99 33.33-42.6 10.98-85.06 22.61-126.92 36.15-13.88 4.55-27.68 9.38-41.27 14.73-2.27 1.17-4.63-0.11-6.68-1.12-16.07-8.49-31.25-18.53-46.28-28.72-33.75-23.3-66.55-47.94-99.1-72.87-11.77-9.18-23.79-18.06-35.34-27.51 86.45-30.84 174.19-58.02 262.63-82.55z"/>
    <path d="m124.08 237.37c4.85 5.33 9.21 11.07 13.83 16.59-10.2 6.09-20.02 12.79-30.08 19.1 4.57-12.24 10.04-24.19 16.25-35.69z"/>
    <path d="m216.8 371.8c9.1-8.3 19.4-15.09 29.33-22.33 61.84 42.74 127 81.13 196.23 110.69-7.32 3.34-15.01 5.77-22.49 8.71-34.49 13.14-68.68 27.16-102.1 42.83-3.03 1.56-6.53 0.88-9.79 0.92-17.45-0.25-34.92-1.58-52.07-4.93 19.05-4.36 38.26-8.77 56.31-16.41 3.6-1.29 2.53-7.48-1.29-7.47-27.45-1.03-54.96-3.38-81.91-8.91-19.55-4.29-39.38-9.64-56.4-20.54-4.34-3.13-9.04-6.11-12.23-10.48-0.13-9.63 6.17-17.7 10.93-25.58 5.63-7.3 10.8-15.08 17.72-21.25 8.88-8.82 18.23-17.14 27.76-25.25z"/>
    <path d="m606.06 550.08c82.19-37.18 165.94-70.77 249.81-103.95-5.52 74.84-33.71 147.78-79.61 207.11-0.89 1.51-2.68 1.57-4.22 1.53-38.37-0.15-76.73-0.45-115.09-0.69-1.88-0.08-3.59 0.74-5.05 1.84-17.8 13.31-37.62 23.88-58.49 31.51-4.71 1.57-9.38 3.65-14.38 4-26.68 0.31-53.38 0.07-80.03-1.46-21.44-1.33-42.94-3.25-63.93-8.01-9.93-2.29-19.85-5.39-28.58-10.76 7.82-12.19 19.21-21.45 30.63-30.1 17.24-12.9 35.8-23.88 54.56-34.4 37.2-20.67 75.66-38.99 114.38-56.62m58.81-15.22c-4.25 7.21-4.22 16-3.31 24.08 0.39 1.83 0.28 4.28 2.18 5.3 4.74 2.96 10.84 2.49 15.52 5.57 1.54 0.71 0.71 2.54 0.6 3.79-4.06 21.57-13.59 41.99-14.82 64.1 4.88-0.96 8.22-4.77 11.54-8.13 2.38-2.57 5.64-3.99 8.92-5.05 3.5-16.61 18.26-28.4 20.26-45.52-0.11-2.48 2.02-3.66 3.53-5.21 0.15-3.72-1.98-7.04-2.67-10.62 6.73-0.8 13.5 0.38 20.23-0.32-0.61-7.75-4.31-15.15-2.86-23.04-9.12-3.88-18.9-6.05-28.71-7.28-10.1-1.17-20.82-1.44-30.41 2.33m87.66 58.58c-3.03-17.77-6.36-35.68-5.22-53.79-4.27 0.06-9.39 0.9-11.61 5.05-3.39 6.64-1.18 14.23-1.22 21.3 0.23 10.66-4.03 21.12-2.03 31.77 1.28 8.9 4.27 18.55-0.31 27.03 4.25 2.47 7.71 6.05 10.21 10.26 14.68-6.45 26.4-17.94 37.12-29.58 8.81-10.08 17.54-20.58 23.04-32.91 2.02-3.92 1.11-8.39 1.44-12.6 0.4-6.82 2.53-13.81 0.38-20.54-0.88-3.03-3.13-5.32-5.34-7.43-14.44 21.25-30.67 41.22-46.46 61.44z"/>
    <path d="m96.72 526.97c32.24 12.19 67 16.02 101.27 15.77 7.01-0.15 14 0.57 21 0.41 7.85-0.54 15.64-1.67 23.47-2.45 8.64-0.75 16.99-3.33 25.58-4.45-45.18 24.74-90.01 51.87-126.19 89.02-6.32-8.67-11.27-18.27-16.45-27.65-11.77-22.55-21.82-46.13-28.68-70.65z"/>
    <path d="m731.91 684.27c7.24-2.47 14.89-3.72 22.38-5.33-1.49 1.89-2.9 3.94-4.92 5.32-5.8 0.39-11.65 0.18-17.46 0.01z"/>
    <path d="m659.85 731.72c16.43-3.29 32.72-7.31 49.14-10.66-72.53 57.71-166.46 87.67-259 82.82-8.07-0.46-16.2-0.65-24.16-2.09 76.55-14.68 151.19-38.38 223.43-67.5 3.41-1.3 7.03-1.85 10.59-2.57z"/>
    <path d="m845.04 908.43c21.98 0.02 43.97 0.05 65.95-0.02-0.46 6.97-2.1 13.8-3.03 20.72-0.42 1.33-0.15 3.06-1.24 4.1-5.84 0.44-11.72 0.02-17.57 0.17-5.66 32.87-10.95 65.81-16.42 98.72-10.08 0.63-20.2 0.19-30.29 0.23 5.12-33.02 10.82-65.97 16.28-98.94-5.94-0.08-11.89 0.1-17.82-0.11 1.14-8.33 2.44-16.64 4.14-24.87z"/>
    <path d="m929.69 908.54c10.68-0.25 21.37 0.02 32.05-0.14-1.21 25.55-3.27 51.07-5.41 76.56-0.11 2.04-0.12 4.1-0.08 6.17 6.18-27.68 13.42-55.11 20.38-82.61 10.72-0.2 21.44 0 32.17-0.11-11.94 41.3-24.02 82.56-35.96 123.86-15.36 0.27-30.73 0.19-46.08 0.04 0.91-41.26 2.04-82.51 2.93-123.77z"/>
    <path d="m173.85 910.89c1.9 0.02 3.8 0.04 5.71 0.08-2.52 18.22-5.96 36.31-8.83 54.48-2.28 13.19-4.21 26.44-6.67 39.6-1.97-0.01-3.93 0-5.89 0.02 2.27-15.78 5.21-31.45 7.67-47.2 2.77-15.64 4.95-31.4 8.01-46.98z"/>
    <path d="m270.31 911.04c1.87-0.02 3.74-0.03 5.62-0.02-0.81 41.31-2.1 82.61-3.05 123.92-2.18 0.01-4.35 0.05-6.53 0.11 1.36-5.24 0.9-10.69 1.14-16.03 0.97-36 1.72-71.99 2.82-107.98z"/>
    <path d="m433.89 910.85c2 0.09 4.01 0.19 6.03 0.32-0.54 3.1-1.41 6.15-2.79 9-2.64 5.6-4.97 11.36-7.85 16.85 1.68-8.7 2.8-17.5 4.61-26.17z"/>
    <path d="m475.24 911.1c2.21-0.08 4.43-0.13 6.65-0.14-8.46 18.09-17.15 36.07-25.76 54.09-0.76 1.47-0.86 3.14-0.67 4.78 2.5 21.67 5 43.35 7.39 65.04-2.14 0.06-4.29 0.13-6.43 0.21 1.07-6.03-0.48-12.06-0.99-18.06-1.79-17.34-4.23-34.64-5.69-51.99 8.1-18.14 17.04-35.94 25.5-53.93z"/>
    <path d="m643.3 911.14c2.02-0.1 4.04-0.17 6.07-0.21-1.02 8.29-2.7 16.47-3.89 24.74-2.34 0.15-4.68 0.24-7.01 0.35 2.9-7.97 3.2-16.6 4.83-24.88z"/>
    <path d="m699.41 911.16c2.06-0.11 4.13-0.19 6.21-0.25-5.2 31.37-10.32 62.75-15.63 94.1-2.01 0.01-4 0.02-5.99 0.02 4.93-31.32 10.4-62.56 15.41-93.87z"/>
    <path d="m790.1 911.08c1.97-0.05 3.95-0.08 5.94-0.1-1.06 8.34-2.45 16.65-4.08 24.9-2.2-0.01-4.38 0.03-6.55 0.12 2.45-8.11 3.05-16.64 4.69-24.92z"/>
    <path d="m366.3 911.84c6.39 3.56 12.14 9.49 12.7 17.14 1.03 11.91-1.58 23.76-3.59 35.43-1.98 1.26-4.68 0.41-6.95 0.69 1.87-4.33 2.28-9.08 3.07-13.68 1.37-9.02 2.92-18.26 1.39-27.35-0.78-4.72-3.71-8.6-6.62-12.23z"/>
    <path d="m106.23 913.71c5.58 2.71 9.79 8.12 10.55 14.34 0.99 7.67 0 15.49-1.69 22.99-1.21 5.25-3.47 10.87-8.51 13.51-3.01 1.45-6.83 4.19-9.94 1.54 3.64-2.39 7.7-4.69 9.68-8.77 3.29-6.6 4.27-14.08 4.99-21.33 0.9-7.8-0.58-15.77-5.08-22.28z"/>
    <path d="m556.25 913.69c5.39 2.53 9.53 7.55 10.58 13.48 1.12 6.59 0.39 13.36-0.73 19.92-0.93 4.84-1.98 9.94-5.09 13.92-2.95 3.64-7.53 5.28-11.85 6.66-0.75-0.59-1.48-1.17-2.21-1.74 3-1.9 6.26-3.67 8.35-6.65 2.71-3.95 3.89-8.7 4.83-13.33 1.31-6.94 2.14-14.12 1.04-21.15-0.6-4.1-2.78-7.66-4.92-11.11z"/>
    <path d="m335.24 930.09c1.2-0.23 2.42-0.38 3.65-0.47-0.31 11.26-3.44 22.19-4.63 33.36-1.07 9.47-3.29 18.76-4.85 28.15-1.19 6.14-1.5 12.57-3.89 18.41-0.57 1.95-2.78 1.65-4.36 1.78-0.14-6.95 1.4-13.76 2.51-20.58 2.8-16.91 5.62-33.82 8.4-50.73 0.76-3.37 1.07-7.06 3.17-9.92z"/>
    <path d="m74.07 932.49c1.21 0.15 2.42 0.32 3.63 0.51 0.35 6.4-0.85 12.83-2.73 18.93-0.39 2.28-2.74 2.57-4.57 3.15 1.1-7.55 2.33-15.08 3.67-22.59z"/>
    <path d="m520.77 955.04c0.93-7.65 1.98-15.34 3.82-22.82 0.82 0.23 2.46 0.68 3.28 0.91 0.35 6.42-0.85 12.87-2.79 18.97-0.4 2.11-2.6 2.39-4.31 2.94z"/>
    <path d="m619.08 935.98c1.98-0.04 3.96-0.05 5.95-0.04-0.64 6.07-2.01 12.04-2.66 18.11-2.1 0.29-4.22 0.32-6.32 0.22 0.96-6.11 1.92-12.22 3.03-18.29z"/>
    <path d="m767.68 936.1c2.06-0.08 4.12-0.13 6.2-0.14-5.21 32.99-10.95 65.89-16.26 98.87-2.38 0.09-4.76 0.18-7.13 0.28 1.67-3.4 2.12-7.18 2.73-10.86 4.74-29.39 9.9-58.72 14.46-88.15z"/>
    <path d="m633.98 959.61c2.03-0.09 4.06-0.11 6.11-0.06-1.18 7.91-2.42 15.83-3.95 23.69-2.24-0.03-4.47-0.03-6.7-0.01 2.63-7.61 3.06-15.75 4.54-23.62z"/>
    <path d="m231.76 985.73c1.34-8.08 4.06-15.84 5.93-23.8-0.41 7.94-0.93 15.88-1.72 23.79-1.41-0.01-2.81-0.01-4.21 0.01z"/>
    <path d="m102.14 969.82c3.69 1.85 7.15 4.75 8.09 8.97 1.6 7.14 0.1 14.48-1.06 21.57-1.44 8.22-2.45 16.82-6.69 24.18-2.59 4.46-7.04 7.75-12.07 8.89-6.04 1.43-12.31 1.43-18.48 1.15 6.62-0.56 13.94-0.8 19.27-5.34 7.18-5.75 9.28-15.26 10.97-23.84 1.15-7.79 3.09-15.52 3.09-23.42 0.04-4.28-1.49-8.3-3.12-12.16z"/>
    <path d="m552.26 969.73c3.31 1.86 6.74 4.25 7.86 8.1 2.51 8.21-0.02 16.76-1.19 24.97-1.64 9.14-2.88 19.42-9.89 26.22-7.05 6.29-17.31 5.74-26.13 5.57 6.34-0.61 13.29-0.98 18.41-5.27 7.49-5.98 9.52-15.98 11.21-24.9 1.67-11.41 5.62-23.81-0.27-34.69z"/>
    <path d="m61.71 1008.5c1.23-9.8 2.76-19.59 4.85-29.24 0.91 0.18 2.73 0.53 3.63 0.71-0.04 7.51-1.84 14.87-3.04 22.25-0.4 3.06-2.07 5.96-5.44 6.28z"/>
    <path d="m516.65 979.4c0.92 0.12 2.74 0.36 3.66 0.48 0.3 6.44-1.49 12.69-2.34 19.02-0.68 3.79-1.17 9.2-6.06 9.57 1.14-9.75 2.86-19.44 4.74-29.07z"/>
    <path d="m611.26 983.25c1.95-0.04 3.9-0.05 5.85-0.05-0.71 7.3-2.29 14.48-3.34 21.74-2.03 0.05-4.06 0.1-6.08 0.13 1.01-7.3 2.29-14.57 3.57-21.82z"/>
    <path d="m366.07 985.26c1.95-0.01 3.9-0.02 5.86-0.01-0.77 6.45-2.05 12.83-3.52 19.15-1.61 6.43-3.37 13.11-7.64 18.36-8.36 10.26-21.81 15.52-34.91 14.9 4.74-1.52 9.76-2.25 14.21-4.57 7.66-3.9 14.75-9.7 18.34-17.69 4.21-9.56 5.51-20.02 7.66-30.14z"/>
    <path d="m412.4 1035.1c3.38-10.12 3.47-20.99 6.21-31.27 0.87 6.36 0.91 12.81 1.56 19.2 0.47 3.95-0.12 7.89-0.73 11.8-2.35 0.1-4.69 0.18-7.04 0.27z"/>
    <path d="m175.56 1010.3c1.96-0.11 3.92-0.2 5.89-0.28-0.62 8.35-2.57 16.54-3.78 24.82-2.19 0.09-4.38 0.16-6.57 0.24 2.08-8.15 3.01-16.52 4.46-24.78z"/>
    <path d="m629.06 1010.2c1.97-0.03 3.94-0.05 5.91-0.04-1.04 8.29-2.6 16.5-3.98 24.75-2.26 0.03-4.51 0.08-6.75 0.13 2.66-8.04 3.03-16.6 4.82-24.84z"/>
    <path d="m701.49 1010.3c1.96-0.11 3.91-0.19 5.88-0.26-0.76 8.33-2.66 16.5-3.81 24.78-2.36 0.1-4.72 0.18-7.08 0.28 3.1-7.9 3.19-16.57 5.01-24.8z"/>
    <path d="m226.89 1012.8c1.99 0.02 3.97 0.06 5.97 0.12-1.46 7.37-3.43 14.63-5.11 21.96-2.21 0.08-4.43 0.14-6.64 0.22 2.32-7.34 3.57-14.95 5.78-22.3z"/>
   </g>
  </g>
 </g>
</svg>
