<?xml version="1.0" encoding="UTF-8" standalone="no"?>
<!-- Created with Inkscape (http://www.inkscape.org/) -->

<svg
   xmlns:dc="http://purl.org/dc/elements/1.1/"
   xmlns:cc="http://creativecommons.org/ns#"
   xmlns:rdf="http://www.w3.org/1999/02/22-rdf-syntax-ns#"
   xmlns:svg="http://www.w3.org/2000/svg"
   xmlns="http://www.w3.org/2000/svg"
   xmlns:inkscape="http://www.inkscape.org/namespaces/inkscape"
   version="1.1"
   width="200"
   height="200"
   id="svg2">
  <defs
     id="defs4" />
  <metadata
     id="metadata7">
    <rdf:RDF>
      <cc:Work
         rdf:about="">
        <dc:format>image/svg+xml</dc:format>
        <dc:type
           rdf:resource="http://purl.org/dc/dcmitype/StillImage" />
        <dc:title />
      </cc:Work>
    </rdf:RDF>
  </metadata>
  <g
     transform="translate(-219.53126,-650.78131)"
     id="layer1">
    <g
       transform="matrix(1.3272197,0,0,1.3274964,-71.998554,-278.46398)"
       id="g3998">
      <path
         d="m 280,701.9375 c -19.00491,3.86307 -35.40285,14.93838 -46.21875,30.21875 L 280,757.375 l 0,-55.4375 z"
         inkscape:connector-curvature="0"
         id="path3942"
         style="fill:#00aca2;fill-opacity:1;stroke:none" />
      <path
         d="m 310.78125,702.125 0,54.625 L 355.375,731 c -10.66176,-14.47076 -26.40615,-24.97315 -44.59375,-28.875 z"
         inkscape:connector-curvature="0"
         id="path3944"
         style="fill:#00aeef;fill-opacity:1;stroke:none" />
      <path
         d="m 311,795.25 0,53.375 c 17.79245,-3.87399 33.23809,-14.05132 43.84375,-28.09375 L 311,795.25 z"
         inkscape:connector-curvature="0"
         id="path3946"
         style="fill:#fdba31;fill-opacity:1;stroke:none" />
      <path
         d="m 279.5,795.375 -43.625,26.09375 c 10.68064,13.69011 26.01834,23.57535 43.625,27.28125 l 0,-53.375 z"
         inkscape:connector-curvature="0"
         id="path3948"
         style="fill:#b2d33e;fill-opacity:1;stroke:none" />
      <path
         d="m 222.25,793.5 c 0.91283,3.67919 2.09741,7.2767 3.53125,10.71875 L 244.375,793.5 l -22.125,0 z"
         inkscape:connector-curvature="0"
         id="path3950"
         style="fill:#0079c2;fill-opacity:1;stroke:none" />
      <path
         d="m 225.1875,748.125 c -1.42614,3.64787 -2.59245,7.4437 -3.4375,11.34375 l 23.0625,0 -19.625,-11.34375 z"
         inkscape:connector-curvature="0"
         id="path3952"
         style="fill:#ca2d92;fill-opacity:1;stroke:none" />
      <path
         d="M 364.53125,747.4375 342.375,760.25 368.25,759.53125 c -0.89944,-4.16742 -2.15793,-8.21583 -3.71875,-12.09375 z"
         inkscape:connector-curvature="0"
         id="path3954"
         style="fill:#ed2724;fill-opacity:1;stroke:none" />
      <path
         d="m 346.28125,792.8125 18.28125,10.5625 c 1.36618,-3.39585 2.48168,-6.94171 3.34375,-10.5625 l -21.625,0 z"
         inkscape:connector-curvature="0"
         id="path3956"
         style="fill:#f8981d;fill-opacity:1;stroke:none" />
      <path
         d="M 353.9375,729.125 312,753.875 l 0,4.5 39,0 14.46875,-8.5625 c -2.73824,-7.54001 -6.66347,-14.497 -11.53125,-20.6875 z"
         inkscape:connector-curvature="0"
         id="path3901"
         style="fill:#ffffff;fill-opacity:1;stroke:none" />
      <path
         d="m 236.0625,729.125 c -4.86778,6.1905 -8.79301,13.14749 -11.53125,20.6875 L 239,758.375 l 39,0 0,-4.5 -41.9375,-24.75 z"
         inkscape:connector-curvature="0"
         id="path3894"
         style="fill:#ffffff;fill-opacity:1;stroke:none" />
      <path
         d="m 312,793.375 0,4.5 41.4375,24.4375 c 4.93477,-6.14046 8.93222,-13.05616 11.75,-20.5625 L 351,793.375 l -39,0 z"
         inkscape:connector-curvature="0"
         id="path3903"
         style="fill:#ffffff;fill-opacity:1;stroke:none" />
      <path
         d="m 229.6875,738.71875 c -1.4437,2.56566 -2.76726,5.19607 -3.90625,7.9375 L 244,757.375 l 17,0 -31.3125,-18.65625 z"
         inkscape:connector-curvature="0"
         id="path3922"
         style="fill:#ee2375;fill-opacity:1;stroke:none" />
      <path
         d="m 239,793.375 -14.1875,8.375 c 2.81778,7.50634 6.81523,14.42204 11.75,20.5625 L 278,797.875 l 0,-4.5 -39,0 z"
         inkscape:connector-curvature="0"
         id="path3905"
         style="fill:#ffffff;fill-opacity:1;stroke:none" />
      <path
         d="m 260,794.375 -30.28125,17.8125 c 1.46382,2.59359 3.09171,5.07873 4.84375,7.46875 L 277,794.375 l -17,0 z"
         inkscape:connector-curvature="0"
         id="path3920"
         style="fill:#00aca2;fill-opacity:1;stroke:none" />
      <path
         d="M 355.96875,731.78125 313,757.375 l 17,0 30.71875,-18.0625 c -1.43652,-2.60818 -3.02365,-5.12427 -4.75,-7.53125 z"
         inkscape:connector-curvature="0"
         id="path3924"
         style="fill:#781d7e;fill-opacity:1;stroke:none" />
      <path
         d="m 328,794.375 31.71875,18.90625 c 1.48894,-2.53707 2.84365,-5.15859 4.03125,-7.875 L 345,794.375 l -17,0 z"
         inkscape:connector-curvature="0"
         id="path3926"
         style="fill:#ed2724;fill-opacity:1;stroke:none" />
      <path
         d="m 222.5,756.375 c -1.58904,6.07473 -2.46875,12.45839 -2.46875,19.03125 0,6.92172 0.96262,13.6055 2.71875,19.96875 l 144.5,0 c 1.75613,-6.36325 2.71875,-13.04703 2.71875,-19.96875 0,-6.57286 -0.87971,-12.95652 -2.46875,-19.03125 l -145,0 z"
         inkscape:connector-curvature="0"
         id="path3882"
         style="fill:#ffffff;fill-opacity:1;stroke:none" />
      <path
         d="m 295.03125,700.375 c -6.22341,0 -12.24951,0.75803 -18.03125,2.1875 l 0,145.5 c 5.78174,1.42947 11.80784,2.21875 18.03125,2.21875 6.18921,0 12.21589,-0.77322 17.96875,-2.1875 l 0,-145.5625 c -5.75286,-1.41428 -11.77954,-2.15625 -17.96875,-2.15625 z"
         inkscape:connector-curvature="0"
         id="path3889"
         style="fill:#ffffff;fill-opacity:1;stroke:none" />
      <path
         d="m 295,700.375 c -3.91485,0 -7.74709,0.29652 -11.5,0.875 l 0,148.125 c 3.75291,0.57848 7.58515,0.90625 11.5,0.90625 3.91485,0 7.74709,-0.32777 11.5,-0.90625 l 0,-148.125 c -3.75291,-0.57848 -7.58515,-0.875 -11.5,-0.875 z"
         inkscape:connector-curvature="0"
         id="path3867"
         style="fill:#781d7e;fill-opacity:1;stroke:none" />
      <path
         d="m 221.1875,762.375 c -0.73344,4.20893 -1.15625,8.51868 -1.15625,12.9375 0,4.80211 0.48076,9.51147 1.34375,14.0625 l 147.25,0 c 0.86299,-4.55103 1.34375,-9.26039 1.34375,-14.0625 0,-4.41882 -0.42281,-8.72857 -1.15625,-12.9375 l -147.625,0 z"
         inkscape:connector-curvature="0"
         id="path3877"
         style="fill:#781d7e;fill-opacity:1;stroke:none" />
      <g
         transform="matrix(0.77150993,0,0,0.77150993,132.0627,359.43512)"
         id="g3984">
        <path
           d="m 170.35714,530.36218 0,19 12.5,0"
           inkscape:connector-curvature="0"
           id="path3792"
           style="fill:none;stroke:#ffffff;stroke-width:3.4000001;stroke-linecap:round;stroke-linejoin:miter;stroke-miterlimit:4;stroke-opacity:1;stroke-dasharray:none" />
        <path
           d="m 188.35714,530.36218 0,19"
           inkscape:connector-curvature="0"
           id="path3794"
           style="fill:none;stroke:#ffffff;stroke-width:3.4000001;stroke-linecap:round;stroke-linejoin:miter;stroke-miterlimit:4;stroke-opacity:1;stroke-dasharray:none" />
        <path
           d="m 205.35714,540.36218 7.55357,0 c 0,4.60803 -2.49773,9 -8.55357,9 -6.98974,0 -10,-5.61938 -10,-10 0,-6.20758 5.34255,-10 10,-10 5.2864,0 7.66198,3.97765 7.66198,3.97765"
           inkscape:connector-curvature="0"
           id="path3796"
           style="fill:none;stroke:#ffffff;stroke-width:3.4000001;stroke-linecap:round;stroke-linejoin:round;stroke-miterlimit:4;stroke-opacity:1;stroke-dasharray:none" />
        <path
           d="m 149.35714,549.36218 0,-19 8.43179,0 c 6.84279,0 5.7734,9 0,9 9.82632,0 7.2921,10 1.56821,10 z"
           inkscape:connector-curvature="0"
           id="path3798"
           style="fill:none;stroke:#ffffff;stroke-width:3.4000001;stroke-linecap:round;stroke-linejoin:miter;stroke-miterlimit:4;stroke-opacity:1;stroke-dasharray:none" />
        <path
           d="m 150.35714,539.36218 10,0"
           inkscape:connector-curvature="0"
           id="path3800"
           style="fill:none;stroke:#ffffff;stroke-width:3.4000001;stroke-linecap:butt;stroke-linejoin:miter;stroke-miterlimit:4;stroke-opacity:1;stroke-dasharray:none" />
        <path
           d="m 219.35714,530.36218 0,19"
           inkscape:connector-curvature="0"
           id="path3802"
           style="fill:none;stroke:#ffffff;stroke-width:3.4000001;stroke-linecap:round;stroke-linejoin:miter;stroke-miterlimit:4;stroke-opacity:1;stroke-dasharray:none" />
        <path
           d="m 235.35714,530.36218 0,19"
           inkscape:connector-curvature="0"
           id="path3804"
           style="fill:none;stroke:#ffffff;stroke-width:3.4000001;stroke-linecap:round;stroke-linejoin:miter;stroke-miterlimit:4;stroke-opacity:1;stroke-dasharray:none" />
        <path
           d="m 220.35714,539.36218 14,0"
           inkscape:connector-curvature="0"
           id="path3806"
           style="fill:none;stroke:#ffffff;stroke-width:3.4000001;stroke-linecap:butt;stroke-linejoin:miter;stroke-miterlimit:4;stroke-opacity:1;stroke-dasharray:none" />
        <path
           d="m 248.35714,531.36218 0,18"
           inkscape:connector-curvature="0"
           id="path3808"
           style="fill:none;stroke:#ffffff;stroke-width:3.4000001;stroke-linecap:round;stroke-linejoin:miter;stroke-miterlimit:4;stroke-opacity:1;stroke-dasharray:none" />
        <path
           d="m 240.35714,530.36218 16,0"
           inkscape:connector-curvature="0"
           id="path3810"
           style="fill:none;stroke:#ffffff;stroke-width:3.4000001;stroke-linecap:round;stroke-linejoin:miter;stroke-miterlimit:4;stroke-opacity:1;stroke-dasharray:none" />
        <path
           d="m 269.35714,539.36218 0,10"
           inkscape:connector-curvature="0"
           id="path3812"
           style="fill:none;stroke:#ffffff;stroke-width:3.4000001;stroke-linecap:round;stroke-linejoin:miter;stroke-miterlimit:4;stroke-opacity:1;stroke-dasharray:none" />
        <path
           d="m 261.35714,530.36218 7.98679,10 8.76067,-10"
           inkscape:connector-curvature="0"
           id="path3814"
           style="fill:none;stroke:#ffffff;stroke-width:3.5;stroke-linecap:round;stroke-linejoin:miter;stroke-miterlimit:4;stroke-opacity:1;stroke-dasharray:none" />
      </g>
    </g>
  </g>
</svg>
