<svg version="1.1" viewBox="0 0 800 154.21" xmlns="http://www.w3.org/2000/svg">
 <defs>
  <style>.cls-1{fill:#14477a;}.cls-2{fill:#959595;}.cls-3{fill:#fff;}</style>
 </defs>
 <g transform="matrix(2.8221 0 0 2.8221 .018371 .065951)" data-name="bnr 2">
  <path class="cls-1" transform="translate(0,-86.08)" d="m151.72 101.33a3.82 3.82 0 0 1 3.5 4.57 3.9 3.9 0 0 1-2.72 3c-2.15 0.48-30.59-0.65-32.18 0.66a3.28 3.28 0 0 1-0.85 0.58l-0.3 0.42a5.34 5.34 0 0 0-1.47 3.82v9.13l-0.09 0.75a4.08 4.08 0 0 1-1.48 2.41 3.5 3.5 0 0 1-4.94-1c-1.13-1.27-0.45-9.67-0.62-11.29a13.42 13.42 0 0 1 6.35-11.46 12.06 12.06 0 0 1 4.57-1.49l1.25-0.09zm-43.57 22.17a3.58 3.58 0 0 1-5.56 3.16 4.33 4.33 0 0 1-1.5-2.41c-0.14-0.34 0-9.34-0.07-9.88a5.76 5.76 0 0 0-0.85-3.07c-0.23-0.38-0.68-0.79-0.92-1.17a6 6 0 0 0-2.71-1.13h-33.1v14.5l-0.09 0.75a3.79 3.79 0 0 1-2.79 3 3.57 3.57 0 0 1-4-2.25c-0.78-0.51-0.11-18.77-0.33-19.84a4 4 0 0 1 2.88-3.73l0.69-0.09h36.2l1.25 0.09a12 12 0 0 1 5.59 2.15c6.8 5.1 5.16 12.57 5.31 19.92zm-108.15-33.5a8.25 8.25 0 0 1 0.23-1.49c0.2-0.3 0.54-1 0.76-1.25a3.87 3.87 0 0 1 3.27-1 3.8 3.8 0 0 1 2.74 2.87c0.21 0.68 0 25.06 0.16 26.32a4.66 4.66 0 0 0 1.38 2.66 10.05 10.05 0 0 0 0.78 0.66 3.08 3.08 0 0 0 0.85 0.5 7.43 7.43 0 0 0 2.24 0.52c7.43 0 26.62 0.1 30.06 0a4.09 4.09 0 0 0 2-0.76 5.58 5.58 0 0 0 1.26-1.26 5.92 5.92 0 0 0 1.15-4 5.29 5.29 0 0 0-3.57-4.57c-1.67-1-31 0.74-32.31-0.91a4.12 4.12 0 0 1-1.32-4.65 3.64 3.64 0 0 1 3.25-2.33c1.46 0 28.71 0.25 30.61 0.25 2.8 0 5.32 1.85 6.9 3.57a13.76 13.76 0 0 1 1.48 16.44 12.07 12.07 0 0 1-8.92 5.67c-7.61 0.18-24.4 0.13-32.18 0a11.46 11.46 0 0 1-6.41-2.91 13.51 13.51 0 0 1-4.19-7.39c-0.39-0.5-0.14-25.7-0.22-26.94z"/>
  <path class="cls-2" transform="translate(0,-86.08)" d="m104.29 93.78a4.12 4.12 0 0 1-2-0.67 3.7 3.7 0 0 1-1.29-1.66 4.14 4.14 0 0 1 0-3 3.76 3.76 0 0 1 0.76-1.17 3.39 3.39 0 0 1 1.8-1.08c2.12-0.28 51.25-0.06 52.26-0.08l2.08 0.08a13.42 13.42 0 0 1 7.21 3 17.17 17.17 0 0 1 2.39 2.58 14.91 14.91 0 0 1 2.42 6.14c0.11 1.07 0.55 3.56-0.32 5a3.74 3.74 0 0 1-1.55 1.41 4 4 0 0 1-2.09 0.25 3.41 3.41 0 0 1-1.24-0.5 4.64 4.64 0 0 1-1.63-3.24 9.63 9.63 0 0 0-0.76-3.56 6.82 6.82 0 0 0-1.11-1.67 7.19 7.19 0 0 0-1.54-1.07 7.88 7.88 0 0 0-2.94-0.75h-52.4zm-91.41 0a4.19 4.19 0 0 1-3-1.66 5.42 5.42 0 0 1-0.46-1.41 5.29 5.29 0 0 1 0.16-2.24 4.09 4.09 0 0 1 2.56-2.25l0.69-0.08h47.34l0.78 0.08 0.62 0.25 0.63 0.33 0.52 0.5 0.4 0.58a4.35 4.35 0 0 1 0.62 2.12 3.89 3.89 0 0 1-2.17 3.49l-0.62 0.24-0.78 0.09z"/>
  <path class="cls-2" d="m134.65 31.94h141.73c3.9279 0 7.09 3.1621 7.09 7.09v8.5c0 3.9279-3.1621 7.09-7.09 7.09h-141.73c-3.9279 0-7.09-3.1621-7.09-7.09v-8.5c0-3.9279 3.1621-7.09 7.09-7.09z" fill="#959595"/>
 </g>
 <g transform="matrix(2.8221 0 0 2.8221 .018371 .065951)" data-name="СОФ copy">
  <path class="cls-3" transform="translate(0,-86.08)" d="m145.76 122.34a4.29 4.29 0 1 1 0 8.57h-2.65v5.17h-2.68v-13.74zm-0.14 6.16a1.89 1.89 0 1 0 0-3.77h-2.51v3.77z"/>
  <path class="cls-3" transform="translate(0,-86.08)" d="m159.4 136.08-0.81-2.43h-4.88l-0.83 2.43h-2.8l5-13.74h2.1l5 13.74zm-3.2-9.69-1.74 5h3.42z"/>
  <path class="cls-3" transform="translate(0,-86.08)" d="m172.78 139.13v-3h-7.63v3h-2.58v-5.44h1.29c1.14-1.76 1.64-4.67 1.64-7.84v-3.51h8.28v11.35h1.59v5.44zm-1.68-14.4h-3v2a15.65 15.65 0 0 1-1.22 7h4.25z"/>
  <path class="cls-3" transform="translate(0,-86.08)" d="m185.25 136.08v-8.82l-5.35 8.82h-2.39v-13.74h2.68v8.8l5.35-8.8h2.39v13.74z"/>
  <path class="cls-3" transform="translate(0,-86.08)" d="m200.82 129.71c0 1.8 0 3.59-1.37 5a4.91 4.91 0 0 1-3.7 1.51 5.06 5.06 0 0 1-3.73-1.51c-1.33-1.37-1.35-3.41-1.35-4.9v-1.14c0-2.74 0.29-3.84 1.35-4.92a5.35 5.35 0 0 1 7.43 0c1 1 1.37 2.3 1.37 4.52zm-3.35-4.36a2.41 2.41 0 0 0-3.46 0c-0.62 0.68-0.66 2-0.66 3.67v0.69c0 1.43 0 2.73 0.66 3.36a2.36 2.36 0 0 0 1.74 0.74 2.22 2.22 0 0 0 1.72-0.74c0.56-0.63 0.67-1.31 0.67-4.11 0-2.26-0.14-2.96-0.67-3.61z"/>
  <path class="cls-3" transform="translate(0,-86.08)" d="m212.64 136.2a5 5 0 0 1-3.71-1.51c-1.39-1.39-1.35-3.1-1.35-5.48s0-4.09 1.35-5.48a5.07 5.07 0 0 1 3.71-1.5 4.84 4.84 0 0 1 5.05 4.34h-2.69a2.27 2.27 0 0 0-2.31-1.95 2.21 2.21 0 0 0-1.72 0.71c-0.52 0.58-0.68 1.24-0.68 3.88s0.16 3.3 0.68 3.88a2.19 2.19 0 0 0 1.72 0.72 2.27 2.27 0 0 0 2.31-1.95h2.72a4.86 4.86 0 0 1-5.08 4.34z"/>
  <path class="cls-3" transform="translate(0,-86.08)" d="m229.31 129.71c0 1.8 0 3.59-1.37 5a4.91 4.91 0 0 1-3.7 1.51 5.06 5.06 0 0 1-3.73-1.51c-1.33-1.37-1.35-3.41-1.35-4.9v-1.14c0-2.74 0.29-3.84 1.35-4.92a5.35 5.35 0 0 1 7.43 0c1 1 1.37 2.3 1.37 4.52zm-3.31-4.36a2.21 2.21 0 0 0-1.71-0.73 2.26 2.26 0 0 0-1.74 0.73c-0.62 0.68-0.66 2-0.66 3.67v0.69c0 1.43 0 2.73 0.66 3.36a2.36 2.36 0 0 0 1.74 0.74 2.18 2.18 0 0 0 1.71-0.74c0.56-0.63 0.68-1.31 0.68-4.11-0.05-2.26-0.19-2.96-0.68-3.61z"/>
  <path class="cls-3" transform="translate(0,-86.08)" d="m237 136.18v-1.64c-4-0.21-5.65-2.28-5.65-5.85s1.87-5.4 5.65-5.64v-1.37h2.67v1.37c3.8 0.24 5.65 2.09 5.65 5.64s-1.62 5.64-5.65 5.85v1.64zm0-10.83c-2.22 0.1-3 1.2-3 3.46s0.83 3.36 3 3.49zm2.61 7c2.18-0.13 3-1.31 3-3.49s-0.79-3.36-3-3.46z"/>
  <path class="cls-3" transform="translate(0,-86.08)" d="m255.5 136.08v-8.82l-5.34 8.82h-2.4v-13.74h2.69v8.8l5.34-8.8h2.4v13.74z"/>
  <path class="cls-3" transform="translate(0,-86.08)" d="m263.59 136.08h-3.18l2.83-5.71a4 4 0 0 1-2.35-3.74 4.17 4.17 0 0 1 4.52-4.29h5.32v13.74h-2.68v-5.17h-2.2zm4.46-11.38h-2.51a1.83 1.83 0 0 0-2 1.89 1.88 1.88 0 0 0 2 1.95h2.51z"/>
 </g>
</svg>
