<svg version="1.1" viewBox="0 0 800 154.21" xmlns="http://www.w3.org/2000/svg">
 <defs>
  <style>.cls-1{fill:#14477a;}.cls-2{fill:#959595;}.cls-3{fill:#fff;}</style>
 </defs>
 <g transform="matrix(2.8221 0 0 2.8221 .018371 .065951)" data-name="bnr 2">
  <path class="cls-1" transform="translate(0,-86.08)" d="m151.72 101.33a3.82 3.82 0 0 1 3.5 4.57 3.9 3.9 0 0 1-2.72 3c-2.15 0.48-30.59-0.65-32.18 0.66a3.28 3.28 0 0 1-0.85 0.58l-0.3 0.42a5.34 5.34 0 0 0-1.47 3.82v9.13l-0.09 0.75a4.08 4.08 0 0 1-1.48 2.41 3.5 3.5 0 0 1-4.94-1c-1.13-1.27-0.45-9.67-0.62-11.29a13.42 13.42 0 0 1 6.35-11.46 12.06 12.06 0 0 1 4.57-1.49l1.25-0.09zm-43.57 22.17a3.58 3.58 0 0 1-5.56 3.16 4.33 4.33 0 0 1-1.5-2.41c-0.14-0.34 0-9.34-0.07-9.88a5.76 5.76 0 0 0-0.85-3.07c-0.23-0.38-0.68-0.79-0.92-1.17a6 6 0 0 0-2.71-1.13h-33.1v14.5l-0.09 0.75a3.79 3.79 0 0 1-2.79 3 3.57 3.57 0 0 1-4-2.25c-0.78-0.51-0.11-18.77-0.33-19.84a4 4 0 0 1 2.88-3.73l0.69-0.09h36.2l1.25 0.09a12 12 0 0 1 5.59 2.15c6.8 5.1 5.16 12.57 5.31 19.92zm-108.15-33.5a8.25 8.25 0 0 1 0.23-1.49c0.2-0.3 0.54-1 0.76-1.25a3.87 3.87 0 0 1 3.27-1 3.8 3.8 0 0 1 2.74 2.87c0.21 0.68 0 25.06 0.16 26.32a4.66 4.66 0 0 0 1.38 2.66 10.05 10.05 0 0 0 0.78 0.66 3.08 3.08 0 0 0 0.85 0.5 7.43 7.43 0 0 0 2.24 0.52c7.43 0 26.62 0.1 30.06 0a4.09 4.09 0 0 0 2-0.76 5.58 5.58 0 0 0 1.26-1.26 5.92 5.92 0 0 0 1.15-4 5.29 5.29 0 0 0-3.57-4.57c-1.67-1-31 0.74-32.31-0.91a4.12 4.12 0 0 1-1.32-4.65 3.64 3.64 0 0 1 3.25-2.33c1.46 0 28.71 0.25 30.61 0.25 2.8 0 5.32 1.85 6.9 3.57a13.76 13.76 0 0 1 1.48 16.44 12.07 12.07 0 0 1-8.92 5.67c-7.61 0.18-24.4 0.13-32.18 0a11.46 11.46 0 0 1-6.41-2.91 13.51 13.51 0 0 1-4.19-7.39c-0.39-0.5-0.14-25.7-0.22-26.94z"/>
  <path class="cls-2" transform="translate(0,-86.08)" d="m104.29 93.78a4.12 4.12 0 0 1-2-0.67 3.7 3.7 0 0 1-1.29-1.66 4.14 4.14 0 0 1 0-3 3.76 3.76 0 0 1 0.76-1.17 3.39 3.39 0 0 1 1.8-1.08c2.12-0.28 51.25-0.06 52.26-0.08l2.08 0.08a13.42 13.42 0 0 1 7.21 3 17.17 17.17 0 0 1 2.39 2.58 14.91 14.91 0 0 1 2.42 6.14c0.11 1.07 0.55 3.56-0.32 5a3.74 3.74 0 0 1-1.55 1.41 4 4 0 0 1-2.09 0.25 3.41 3.41 0 0 1-1.24-0.5 4.64 4.64 0 0 1-1.63-3.24 9.63 9.63 0 0 0-0.76-3.56 6.82 6.82 0 0 0-1.11-1.67 7.19 7.19 0 0 0-1.54-1.07 7.88 7.88 0 0 0-2.94-0.75h-52.4zm-91.41 0a4.19 4.19 0 0 1-3-1.66 5.42 5.42 0 0 1-0.46-1.41 5.29 5.29 0 0 1 0.16-2.24 4.09 4.09 0 0 1 2.56-2.25l0.69-0.08h47.34l0.78 0.08 0.62 0.25 0.63 0.33 0.52 0.5 0.4 0.58a4.35 4.35 0 0 1 0.62 2.12 3.89 3.89 0 0 1-2.17 3.49l-0.62 0.24-0.78 0.09z"/>
  <path class="cls-2" d="m134.65 31.94h141.73c3.9279 0 7.09 3.1621 7.09 7.09v8.5c0 3.9279-3.1621 7.09-7.09 7.09h-141.73c-3.9279 0-7.09-3.1621-7.09-7.09v-8.5c0-3.9279 3.1621-7.09 7.09-7.09z" fill="#959595"/>
 </g>
 <g transform="matrix(2.8221 0 0 2.8221 .018371 .065951)" data-name="КРДЖ copy">
  <path class="cls-3" transform="translate(0,-86.08)" d="m143.25 123.79a3.34 3.34 0 1 1 0 6.66h-2.05v4h-2.09v-10.66zm-0.1 4.78a1.46 1.46 0 1 0 0-2.92h-2v2.92z"/>
  <path class="cls-3" transform="translate(0,-86.08)" d="m153.72 134.48-0.64-1.9h-3.79l-0.65 1.9h-2.18l3.89-10.69h1.65l3.9 10.69zm-2.5-7.54-1.35 3.89h2.66z"/>
  <path class="cls-3" transform="translate(0,-86.08)" d="m164 136.85v-2.37h-6v2.37h-2v-4.24h1a11.84 11.84 0 0 0 1.28-6.09v-2.73h6.44v8.82h1.28v4.24zm-1.31-11.2h-2.35v1.54a12.13 12.13 0 0 1-0.95 5.42h3.3z"/>
  <path class="cls-3" transform="translate(0,-86.08)" d="m173.52 134.48v-6.87l-4.16 6.87h-1.86v-10.69h2.08v6.84l4.16-6.84h1.86v10.69z"/>
  <path class="cls-3" transform="translate(0,-86.08)" d="m185.48 129.52c0 1.4 0 2.79-1.06 3.87a3.84 3.84 0 0 1-2.89 1.18 3.94 3.94 0 0 1-2.9-1.18c-1-1.06-1-2.65-1-3.81v-0.89c0-2.13 0.23-3 1-3.82a4.17 4.17 0 0 1 5.79 0c0.75 0.76 1.06 1.78 1.06 3.51zm-2.61-3.39a1.72 1.72 0 0 0-1.34-0.57 1.74 1.74 0 0 0-1.35 0.57c-0.48 0.52-0.51 1.53-0.51 2.85v0.54c0 1.11 0 2.12 0.51 2.61a1.86 1.86 0 0 0 1.35 0.57 1.72 1.72 0 0 0 1.34-0.57c0.43-0.49 0.52-1 0.52-3.19 0-1.76-0.1-2.35-0.52-2.81z"/>
  <path class="cls-3" transform="translate(0,-86.08)" d="m190.82 134.48v-10.69h2.09v5.07l3.45-5.07h2.5l-3.59 5 3.95 5.68h-2.55l-3.76-5.59v5.59z"/>
  <path class="cls-3" transform="translate(0,-86.08)" d="m205.94 134.48h-4.2v-8.83h-2.28v-1.86h4.36v4h2.12a3.34 3.34 0 1 1 0 6.67zm-0.16-4.81h-2v2.94h2a1.47 1.47 0 1 0 0-2.94z"/>
  <path class="cls-3" transform="translate(0,-86.08)" d="m215.16 123.79a3.34 3.34 0 1 1 0 6.66h-2.06v4h-2.1v-10.66zm-0.11 4.78a1.46 1.46 0 1 0 0-2.92h-2v2.92z"/>
  <path class="cls-3" transform="translate(0,-86.08)" d="m226.9 136.85v-2.37h-5.9v2.37h-2v-4.24h1a11.84 11.84 0 0 0 1.28-6.09v-2.73h6.44v8.82h1.23v4.24zm-1.31-11.2h-2.36v1.54a12.27 12.27 0 0 1-0.94 5.42h3.3z"/>
  <path class="cls-3" transform="translate(0,-86.08)" d="m229.09 134.48 3.91-5.68-3.5-5h2.46l3.27 5.07v-5.07h2.09v5.07l3.27-5.07h2.41l-3.5 5 3.86 5.68h-2.53l-3.57-5.59v5.59h-2.09v-5.59l-3.57 5.59z"/>
  <path class="cls-3" transform="translate(0,-86.08)" d="m250.45 134.48-0.63-1.9h-3.82l-0.64 1.9h-2.16l3.89-10.69h1.64l3.9 10.69zm-2.45-7.54-1.35 3.89h2.66z"/>
  <path class="cls-3" transform="translate(0,-86.08)" d="m259.5 134.48v-8.83h-2.5v3.1c0 4.49-1.09 5.73-3.32 5.73h-0.82v-1.87h0.3c1.06 0 1.83-0.63 1.83-4v-4.84h6.65v10.69z"/>
  <path class="cls-3" transform="translate(0,-86.08)" d="m270 134.48v-6.87l-4.16 6.87h-1.84v-10.69h2v6.84l4.16-6.84h1.86v10.69z"/>
 </g>
</svg>
