<svg viewBox="0 0 1106.3 402" xmlns="http://www.w3.org/2000/svg">
    <path d="M0 301.5v-202h1106.3v202z" fill="#fff" fill-rule="evenodd"/>
    <path fill="#95c300" fill-rule="evenodd" d="M605 0h402v402H605z"/>
    <path d="M98.3 147.51V254.1h56.546c14.629 0 40.971-6.298 40.971-34.653 0-23.141-19.227-31.401-38.969-31.401h-28.711v-17.014h59.236v-23.519zm29.837 62.332h22.331c7.725 0 14.387 2.962 14.387 10.853 0 7.475-6.119 11.572-13.511 11.572h-23.206zM259.427 254.08V147.49h30.525v40.033h40.533V147.49h30.525v106.59h-30.525v-41.234h-40.533v41.234zM456.09 254.08v-82.267h-33.227v-24.32h95.278v24.32h-33.027v82.267zM530.15 187.53h25.02v25.321h-25.02zM385.5 187.53h25.02v25.321H385.5zM209.664 187.53h25.02v25.321h-25.02zM48.56 187.53h25.02v25.321H48.56z"/>
    <path d="M708.5 336v-48l106.35-99.662c9.506-9.988 18.582-21.455 18.582-38.04 0-14.902-10.154-27.297-34.149-27.297-22.439 0-39.799 13.107-48.071 26.256l-57.006-31.901c23.244-34.598 57.053-56.019 112.42-56.019 59.867 0 104.51 30.502 104.51 82.376 0 38.013-19.789 59.716-42.945 82.479l-53.198 48.81h103v61z" fill="#fff"/>
</svg>
