<svg viewBox="0 0 1106.3 402" xmlns="http://www.w3.org/2000/svg">
    <path d="M0 301.5v-202h1106.3v202z" fill="#fff" fill-rule="evenodd"/>
    <path fill="#0195ff" fill-rule="evenodd" d="M605 0h402v402H605z"/>
    <path d="M98.3 147.51V254.1h56.546c14.629 0 40.971-6.298 40.971-34.653 0-23.141-19.227-31.401-38.969-31.401h-28.711v-17.014h59.236v-23.519zm29.837 62.332h22.331c7.725 0 14.387 2.962 14.387 10.853 0 7.475-6.119 11.572-13.511 11.572h-23.206zM259.427 254.08V147.49h30.525v40.033h40.533V147.49h30.525v106.59h-30.525v-41.234h-40.533v41.234zM456.09 254.08v-82.267h-33.227v-24.32h95.278v24.32h-33.027v82.267zM530.15 187.53h25.02v25.321h-25.02zM385.5 187.53h25.02v25.321H385.5zM209.664 187.53h25.02v25.321h-25.02zM48.56 187.53h25.02v25.321H48.56z"/>
    <path d="M709 67h195v48l-55.874 59.744c21.672 3.286 69.284 21.377 69.284 76.958 0 56.347-49.538 90.183-117.31 90.183-51.753 0-88.919-16.768-105.07-26.764l28.119-58.212c13.629 9.402 42.786 22.912 73.559 22.912 25.37 0 43.503-9.46 43.503-27.663 0-18.718-17.231-26.158-38.718-26.158h-34.496v-48l48-52h-106z" fill="#fff"/>
</svg>
