<svg width="200mm" height="269.16mm" viewBox="0 0 200 269.16" xmlns="http://www.w3.org/2000/svg" xmlns:xlink="http://www.w3.org/1999/xlink">
    <defs>
        <linearGradient id="a">
            <stop stop-color="#f99a1f" offset="0"/>
            <stop stop-color="#fbb32a" offset="1"/>
        </linearGradient>
        <linearGradient id="b" x1="-34.237" x2="-83.442" y1="111.97" y2="111.6" gradientTransform="translate(256.06 -467.02) scale(4.064)" gradientUnits="userSpaceOnUse">
            <stop stop-color="#f99a1f" offset="0"/>
            <stop stop-color="#fbb32a" offset="1"/>
        </linearGradient>
        <linearGradient id="c" x1="3.521" x2="-195.78" y1="211.71" y2="213.64" gradientTransform="matrix(.9998 0 0 1.0226 112.32 -96.77)" gradientUnits="userSpaceOnUse" xlink:href="#a"/>
    </defs>
    <path d="M-83.569 83.153v-199.89h199.96v199.89z" fill="url(#b)" fill-rule="evenodd" stroke-width="1.355" transform="translate(83.571 116.74)"/>
    <path d="M111.94 71.004v66.393c63.059.012 82.88-11.209 83.013-34.228.007-30.905-42.751-31.765-83.013-32.165zm23.618 12.872c17.576.243 36.242.766 36.24 19.533-.058 13.978-8.712 20.789-36.24 20.785z" fill="#fff"/>
    <path d="M-83.533 88.856h62.149v63.568h-62.149zM54.28 88.856h62.149v63.568H54.28zM-14.627 88.856h62.149v63.568h-62.149z" fill="url(#c)" stroke-width="1.367" transform="translate(83.571 116.74)"/>
    <path d="M78.403 260.86v-46.985h11.483v17.965h20.267v-17.965h11.483v46.985h-11.483v-19.347H89.886v19.347zM162.166 260.86v-37.311h-14.862v-9.673h39.181v9.673h-13.511v37.311zM45.979 222.16v-8.291H13.554v46.984H33.82c8.107 0 16.213-5.527 16.213-15.2 0-9.674-8.107-15.201-16.213-15.201h-9.457v-8.292zm-21.616 31.104h5.61c4.113 0 9.152-1.352 9.152-7.575 0-6.292-4.946-7.623-9.153-7.623h-5.609v15.198z" fill="#fff" fill-rule="evenodd" stroke-width="1.367"/>
    <path d="M.002 0l199.96 71.401L.002 22.32zM.002 199.893l199.96-56.744L.002 177.573zM11.198 61.229l23.217 2.376v31.16h37.169V66.786l22.849 2.496v70.66l-23.041 1.536V110.18l-36.674.96v33.602l-23.425 2.304z" fill="#fff"/>
</svg>
