<svg viewBox="0 0 800 533.33" xmlns="http://www.w3.org/2000/svg">
    <path d="M679.979 66.665V0H66.664C26.667 0-.002 26.67-.002 66.665V426.65c0 39.999 26.667 66.667 66.666 66.667h53.332v-26.666h213.328c39.999 0 66.665-26.667 66.665-66.665V133.32c0-39.999 26.667-66.665 66.666-66.665h213.327z" fill="#da251c"/>
    <path d="M119.998 466.65v66.666h613.315c39.997 0 66.666-26.668 66.666-66.665V106.666c0-39.999-26.667-66.665-66.666-66.665h-53.332v26.666H466.653c-39.999 0-66.665 26.667-66.665 66.665v266.665c0 39.999-26.667 66.665-66.666 66.665H119.995z" fill="#183883"/>
    <g fill="#fff">
        <path d="M32.943 147.665v230.687h264.012c31.163 0 49.434-22.781 58.949-42.728s7.765-56.507-11.754-74.816c18.6-26.125 11.936-64.226 3.232-80.223-8.704-15.998-26.819-32.912-50.425-32.912zm62.24 58.185h201.761v26.388H95.182zm0 85.689h201.761v26.388H95.182zM705.782 147.639h56.874v170.29c0 19.762-9.975 65.918-56.874 65.918-21.154 0-47.384-25.007-60.499-38.069-13.116-13.061-141.238-139.91-141.238-139.91v172.486h-56.873V205.867s-2.759-62.623 56.873-62.623c21.26 0 31.945 4.9 48.947 22.339 17 17.439 152.79 152.346 152.79 152.346zM156.095 485.759h-12.247v-4.916h32.897v4.916h-12.353v23.27h-8.297zm73.618-.08c-5.695 0-8.706 2.201-9.031 6.606h22.207v4.916h-22.207c0 2.332.76 4.12 2.283 5.379a5.747 5.747 0 0 0 2.772 1.265c1.063.177 2.38.27 3.976.27h13.176v4.914h-13.487c-2.514 0-4.72-.172-6.614-.512a15.97 15.97 0 0 1-5.322-1.946c-2.09-1.304-3.596-2.916-4.516-4.836-.912-1.92-1.373-4.011-1.373-6.264 0-.572.026-1.148.08-1.725.204-2.266.708-4.2 1.513-5.811a11.058 11.058 0 0 1 3.41-4.017c1.478-1.082 3.285-1.876 5.427-2.387 2.144-.512 4.678-.766 7.599-.766h13.283v4.915zm68.737 23.35c-1.93 0-3.586-.053-4.967-.164a17.622 17.622 0 0 1-4.028-.8 11.63 11.63 0 0 1-3.658-1.953c-.938-.72-1.655-1.533-2.151-2.45a9.297 9.297 0 0 1-1.02-2.87 19.347 19.347 0 0 1-.256-3.206v-16.82h7.988v15.517c0 1.527.071 2.746.203 3.656.143.918.496 1.712 1.055 2.372.566.67 1.435 1.173 2.612 1.521 1.168.348 2.79.517 4.852.517h9.545v4.68zm63.453-23.35c-5.694 0-8.704 2.201-9.03 6.606h22.207v4.916h-22.208c0 2.332.762 4.12 2.283 5.379a5.755 5.755 0 0 0 2.773 1.265c1.062.177 2.382.27 3.975.27h13.177v4.914h-13.487c-2.514 0-4.719-.172-6.614-.512a15.97 15.97 0 0 1-5.323-1.946c-2.09-1.304-3.594-2.916-4.515-4.836-.912-1.92-1.373-4.011-1.373-6.264 0-.572.026-1.148.079-1.725.205-2.266.709-4.2 1.516-5.811a11.022 11.022 0 0 1 3.41-4.017c1.478-1.082 3.283-1.876 5.427-2.387 2.142-.512 4.675-.766 7.598-.766h13.282v4.915zm64.595 23.35l-16.603-28.264h9.024l11.519 21.042 11.724-21.042h8.51l-15.876 28.264zm68.004 0H486.1v-28.264h8.403zm72.584-23.199l-21.376 18.205h21.376v4.994h-32.162v-4.994l21.782-18.205h-21.782v-5.065h32.162zm49.54 23.199h-8.404v-28.264h8.403zm37.207-4.68h9.44c1.92 0 3.479-.176 4.656-.53 1.187-.348 2.073-.865 2.667-1.548.583-.673.965-1.493 1.141-2.443.17-.957.258-2.136.258-3.545v-15.518h8.296v16.821c0 1.75-.23 3.342-.7 4.759-.468 1.421-1.337 2.68-2.62 3.767a10.639 10.639 0 0 1-3.57 1.907c-1.336.432-2.71.709-4.1.825-1.389.124-3.053.185-4.994.185h-10.474zm78.072-23.584h8.51l16.294 28.264h-8.927l-3.523-6.758h-16.605l-3.32 6.758h-8.51zm3.95 5.688l-5.605 10.825h11.414z"/>
    </g>
</svg>
