<?xml version="1.0" encoding="UTF-8" standalone="no"?>
<!-- Created with Inkscape (http://www.inkscape.org/) -->

<svg
   xmlns:dc="http://purl.org/dc/elements/1.1/"
   xmlns:cc="http://creativecommons.org/ns#"
   xmlns:rdf="http://www.w3.org/1999/02/22-rdf-syntax-ns#"
   xmlns:svg="http://www.w3.org/2000/svg"
   xmlns="http://www.w3.org/2000/svg"
   xmlns:inkscape="http://www.inkscape.org/namespaces/inkscape"
   version="1.1"
   width="539"
   height="244"
   id="svg2">
  <metadata
     id="metadata14">
    <rdf:RDF>
      <cc:Work
         rdf:about="">
        <dc:format>image/svg+xml</dc:format>
        <dc:type
           rdf:resource="http://purl.org/dc/dcmitype/StillImage" />
      </cc:Work>
    </rdf:RDF>
  </metadata>
  <defs
     id="defs12" />
  <g
     transform="translate(-367.08932,-20.67177)"
     id="layer1">
    <path
       d="m 565.67881,127.5701 c 0,0 -44.94573,3.21121 -37.15671,49.84406 6.56864,39.32186 41.41391,34.67095 41.41391,34.67095 0,0 35.4696,-2.09207 34.401,-47.16712 -0.8042,-33.9061 -36.4424,-38.95069 -38.6582,-37.34789 m -0.9673,-40.907789 c 0,0 63.6112,-3.947933 71.5745,70.359819 7.9578,74.31337 -45.3956,87.06823 -69.0326,84.64998 -24.6267,-2.5251 -69.9436,-16.53408 -73.39101,-75.7587 -2.85691,-48.98361 33.68677,-77.305251 70.84911,-79.251099"
       inkscape:connector-curvature="0"
       id="path55692"
       style="fill:#002b67;fill-rule:nonzero;stroke:none" />
    <path
       d="m 645.77681,25.043625 c 0,0 -46.2504,3.306816 -38.2364,51.289387 6.7598,40.469128 42.6174,35.683238 42.6174,35.683238 0,0 36.4987,-2.15393 35.402,-48.539328 -0.8267,-34.895904 -37.4997,-40.081081 -39.783,-38.433297"
       inkscape:connector-curvature="0"
       id="path55696"
       style="fill:#e12a24;fill-rule:nonzero;stroke:none" />
    <path
       d="m 631.84491,119.1141 2.9919,105.28946 24.548,-0.8717 2.1258,-104.84518 z"
       inkscape:connector-curvature="0"
       id="path55700"
       style="fill:#002b67;fill-rule:nonzero;stroke:none" />
    <path
       d="m 690.55721,243.10113 -29.7107,0.55113 7.9746,-131.32782 43.8378,-0.28119 17.0233,101.35277 1.5466,-108.85497 30.8861,-0.66924 -5.084,145.4549 -50.3839,0 -12.5131,-84.61624 z"
       inkscape:connector-curvature="0"
       id="path55704"
       style="fill:#002b67;fill-rule:nonzero;stroke:none" />
    <path
       d="m 831.16321,81.40065 c 0,0 61.6204,-7.468454 70.6354,58.53851 l -37.8428,7.2885 c -8.7057,-20.02649 -33.9174,-21.81487 -36.0038,-20.27393 0,0 -50.0015,6.52927 -46.2842,58.01549 3.1438,43.42726 42.1338,35.95881 42.1338,35.95881 0,0 21.8205,-2.57572 34.446,-24.57054 l -50.0971,1.59717 -1.0686,-23.547 99.0077,-13.22164 -8.2333,33.9061 c -15.4937,49.27043 -59.6633,62.27837 -80.1172,59.00529 -25.1498,-4.02666 -75.5619,-13.85713 -73.1661,-79.67851 1.974,-54.44436 45.3225,-88.417952 86.5902,-93.01825"
       inkscape:connector-curvature="0"
       id="path55710"
       style="fill:#002b67;fill-rule:nonzero;stroke:none" />
    <path
       d="m 423.65386,114.09089 c 2.82879,1.88398 39.34436,-2.12019 42.11129,-23.620117 4.33597,-33.698026 -39.04067,-27.343091 -39.04067,-27.343091 z m -14.87505,110.02473 c 3.92544,2.62071 54.60745,-2.94127 58.44853,-32.78697 6.01751,-46.76782 -54.19128,-37.94964 -54.19128,-37.94964 z m -35.03649,-82.28235 -0.21933,-0.0112 5.34264,-98.299031 1.04041,-21.949833 c 0,0 22.12417,-1.242868 35.75635,-0.809832 19.74529,0.629869 44.29896,2.828789 44.29896,2.828789 43.94465,10.769647 56.36208,40.626593 47.29084,79.352327 -2.89628,12.37807 -15.56678,21.05565 -30.16064,26.8482 51.33438,13.73903 59.24149,38.56827 45.81177,89.23903 -14.08771,53.15088 -155.814,45.22127 -155.814,45.22127 l 6.2762,-115.52485 z"
       inkscape:connector-curvature="0"
       id="path55714"
       style="fill:#002b67;fill-rule:nonzero;stroke:none" />
  </g>
</svg>
