<svg Googl="true" version="1.1" viewBox="0 0 800 136.65" xmlns="http://www.w3.org/2000/svg">
 <path d="m800 95.296v35.969h-137.25v-89.919h-36.716v89.91h-43.68v-89.905h-44.566v-35.956h260.44v35.956l-22.283 26.977zm-49.017-1.7985-22.287-25.174 20.507-25.169v-1.7985h-42.79v53.94h44.57z" fill="#e30613" stroke-width="4.4962"/>
 <path d="m361.18 68.319 43.671 62.937h-49.022l-32.521-48.855v48.855h-43.667v-37.048c-11.483 23.938-38.249 42.439-71.475 42.439-31.689 0-57.452-16.861-69.731-39.188-2.9225 18.906-20.062 33.798-48.41 33.798h-90.022v-125.87h126.92v34.162h-83.246v12.589h46.355c18.704 0 32.48 6.5374 40.609 16.366l-0.0135-0.18884c0-35.061 32.979-68.319 77.541-68.319 33.227 0 59.992 18.497 71.475 42.435v-37.048h43.667v48.23l30.74-48.226h49.022zm-276.5 31.473c5.3504 0 8.9159-3.5969 8.9159-8.0976 0-4.4962-3.5654-8.0931-8.9159-8.0931h-41.005v16.191zm155.58-31.473c0-17.976-14.262-32.363-32.089-32.363-17.823 0-32.085 14.388-32.085 32.363 0 17.985 14.262 32.372 32.085 32.372 17.827 0 32.089-14.388 32.089-32.372z" stroke-width="4.4962"/>
 <path d="m379.79 68.323 32.085 62.937h114.98v-50.343h-41.891v14.379h-43.676l-13.367-26.972 13.367-26.972h43.676v14.388h41.891v-50.343h-114.98z" stroke-width="4.4962"/>
</svg>
