<?xml version="1.0" encoding="UTF-8" standalone="no"?>
<!-- Created with Inkscape (http://www.inkscape.org/) -->
<svg xmlns:rdf="http://www.w3.org/1999/02/22-rdf-syntax-ns#" xmlns="http://www.w3.org/2000/svg" xmlns:cc="http://creativecommons.org/ns#" xmlns:xlink="http://www.w3.org/1999/xlink" xmlns:dc="http://purl.org/dc/elements/1.1/" height="149.65" width="600" version="1.1">
  <defs>
    <linearGradient id="linearGradient5576" gradientUnits="userSpaceOnUse" gradientTransform="matrix(-17.453852,132.39479,-132.39479,-17.453852,-47.491361,-896.4401)" x1="0" x2="1" y1="0" y2="0">
      <stop stop-color="#df0e52" offset="0"/>
      <stop stop-color="#810729" offset="1"/>
    </linearGradient>
  </defs>
  <metadata>
    <rdf:RDF>
      <cc:Work rdf:about="">
        <dc:format>image/svg+xml</dc:format>
        <dc:type rdf:resource="http://purl.org/dc/dcmitype/StillImage"/>
        <dc:title/>
      </cc:Work>
    </rdf:RDF>
  </metadata>
  <g transform="translate(286.46417,874.0662)">
    <path fill="url(#linearGradient5576)" d="m-66.248-874.07c-49.643,1.8371-139.38,76.241-109.11,99.844,8.0275,6.43,10.983,12.501,17.213,12.341,24.402-0.67894,40.936-31.79,81.233-61.624,8.9061-6.5897,11.143,3.2749,2.9554,22.405-1.7173,3.9938-2.596,7.4284-5.8708,10.064-21.207,16.694-62.103,40.617-41.935,65.458,0.59907,0.67894,1.3579,1.0783,2.3164,1.1582h0.91856c11.422-0.91857,42.374-34.546,54.315-68.333,0.19969-0.91857,1.3978-1.7573,2.1167-2.0768,7.7879-6.0705,15.456-9.585,20.688-13.938,1.1981-1.0384,0.71888-2.4362-0.3195-1.7173-5.3916,3.834-10.783,6.43-17.413,9.9046-1.0384,0.51919-2.7956,1.3978-1.917-0.51919,5.0322-11.103,3.9938-38.58-16.694-27.956-27.996,14.218-44.371,31.072-69.252,44.291-6.7894,3.5944-9.3854,2.7557-7.2686-2.9554,10.583-26.439,45.569-64.939,90.419-76.441,5.4715-1.1981,6.2303,2.0368,7.1888,5.2318,0.91857,3.0353,2.1167,6.0705,7.5882,5.3916,12.74-1.3978,4.8724-15.975-4.1535-18.93-2.8755-0.9585-6.0705-1.4378-9.3854-1.5975h-3.6343zm174.93,23.124c2.0768,0.35943-10.943,19.809-18.93,28.795,0,0-5.751-0.15976-13.06-0.15976-3.4746,0-4.3532,1.5975-2.6359,3.4746,1.4378,1.7573,2.2764,1.7573,8.347,2.2764,1.5975,0,3.3148,0,2.9953,0.19969-5.4715,6.39-10.384,13.1-14.098,19.609-7.1089,5.751-19.09,14.857-18.771,14.378,1.3579-7.4284-4.513-12.82-9.3854-18.052-3.2749-3.4746,1.0384-4.3532,8.6665-7.9875,8.9061-4.3532,10.663-7.2687,5.0721-13.898-6.7894-8.4668-6.43-6.2702-8.7064-5.5513-28.715,11.502-16.335,22.245-8.307,31.79,7.9476,10.064-19.37,21.846-26.279,28.955-2.7956,2.8356-2.7956,5.751-0.71888,7.1488,7.5083,4.513,38.819-1.1981,39.299-16.135,0-0.59907,8.7464-8.0275,15.855-14.298-5.8309,13.06-5.4715,24.362,7.2687,29.234,11.302,4.4331,23.963-7.668,40.657-25.92-5.3516,11.023-4.7925,20.688,9.2256,24.162,10.783,2.4362,49.443-21.007,44.89-42.893-1.1981-6.39-9.5451-3.7941-7.8278-5.0322,4.1535-3.4346,6.2702-5.5114-5.751-14.577-3.3148-2.596-3.4746-2.596-7.1089,0.15975-9.2656,7.3885-22.365,20.089-30.073,32.23-0.67894-0.04-1.8371,0.51919-3.5145,1.9969-23.763,21.526-38.58,30.712-35.624,18.891,2.2365-9.0259,10.623-22.884,22.764-43.053,0.55913-0.67894,1.0384-1.1582,1.957-1.1582,8.5067-0.35944,19.29-0.35944,24.162-2.2764,3.6343-1.5975,3.9538-3.5145,0.67894-3.5145-4.1535,0-12.181-0.15976-19.649-0.15976-2.6359,0-2.6359,0-2.2764-0.67894,12.9-20.129,9.7448-26.079,3.5145-29.674-0.51919-0.27958-0.9585-0.35944-1.3579-0.35944-1.7573,0-2.556,1.9569-1.278,2.0768m18.252,78.797c2.2764-10.743,21.207-26.718,28.356-32.629,0.87864-0.67894,3.2749-1.0384,6.5897-1.5176,14.098-1.917-8.347,25.121-31.111,35.944-1.7173,0.75881-2.8356,1.1582-3.4346,1.1582-0.99844,0-0.79876-0.99844-0.39938-2.9554m-413.4-60.146,0,38.66,16.494,0c8.0275,0,14.937-1.8771,14.937-11.582,0-4.5928-2.9953-9.0259-8.307-9.5451v-0.11982c4.2334-0.75882,6.5897-3.5544,6.5897-7.7878,0-6.43-5.112-9.625-11.462-9.625h-18.252zm7.2687,5.751,8.6665,0c4.2334,0,6.1504,1.917,6.1504,4.8324,0,3.7142-2.9554,4.9523-6.1504,4.9523h-8.6665v-9.7847zm0,15.216,9.4253,0c4.4331,0,7.1089,1.5576,7.1089,5.9108,0,4.0337-2.6359,5.3916-7.029,5.3916h-9.5052v-11.302zm248.65-14.617c5.7111-0.15975-39.538,50.361-16.534,59.747,10.064,4.3133,24.162-16.694,36.663-26.918,0.87863-0.67894,2.9554-2.7557,1.5576-0.55913-8.6665,14.777-6.5897,22.964-1.0384,27.277,8.8662,7.1488,21.926-11.462,29.234-19.09,7.8278-8.6665,7.8278-12.501-2.4362-2.4362-8.1872,8.347-24.841,25.52-20.488,14.258,5.5114-14.258,26.239-38.021,7.4683-44.491-2.6359-0.67894-2.9953,0.35944-3.5145,2.8356-0.15975,1.0384-2.596,7.9476-7.8278,12.62-12.5,12.021-10.064,9.9445-22.046,19.29-6.9891,5.1919-9.7448,5.9108-6.4699-1.3579,4.513-9.7448,35.664-37.541,7.3086-43.452-0.3195-0.04-0.59907-0.0799-0.83869-0.0799-2.2764,0-2.1566,2.3563-1.0384,2.3563m-183.03,7.5482-0.11981,0,0-2.6758-6.6297,0,0,27.437,6.6297,0,0-14.457c0-5.0721,2.6758-7.2287,5.9108-7.2287,3.3947,0,4.5529,2.4362,4.5529,4.9123v16.774h6.6296v-18.771c0-6.0306-2.9154-9.3854-9.4652-9.3854-2.6758,0-5.5513,1.0384-7.5083,3.3947m-38.62,11.023c0,8.2272,5.1919,14.378,14.098,14.378s14.098-6.1504,14.098-14.378c0-8.1872-5.1919-14.418-14.098-14.418s-14.098,6.2303-14.098,14.418m6.9891,0c0-4.3133,2.3563-8.2671,7.1089-8.2671s7.1089,3.9538,7.1089,8.2671-2.3563,8.307-7.1089,8.307-7.1089-3.9938-7.1089-8.307"/>
    <path d="m283.34-778.59-8.5866,0,0-34.666,8.5067,0c11.262,0,15.296,7.668,15.296,17.333,0,9.6649-4.0337,17.333-15.216,17.333m-0.3195-47.286-23.244,0,0,59.907,23.244,0c18.252,0,30.512-8.6665,30.512-29.953,0-21.287-12.261-29.953-30.512-29.953m-49.403,21.526-22.285,0,0-21.526-14.977,0,0,59.907,14.977,0,0-25.241,22.285,0,0,25.241,14.977,0,0-59.907-14.977,0,0,21.526z" fill-rule="nonzero" fill="#918f90"/>
  </g>
</svg>
