<svg xmlns="http://www.w3.org/2000/svg" height="432.56" width="600" viewBox="0 0 158.75 114.447">
    <path d="M0 78.635l62.385 35.81 33.942-19.426L33.934 59.21z" fill="#ec008c"/>
    <path d="M33.046 81.068c-1.059-.622-2.118-1.252-3.171-1.875-.415-.243-.83-.472-1.216-.744-1.668-1.16-1.654-2.849.121-3.866 2.47-1.41 5.025-1.374 7.537-.064 1.196.63 2.355 1.339 3.5 2.054.501.308.895.322 1.403.007a66.514 66.514 0 0 1 3.515-2.025c2.226-1.21 4.53-1.31 6.864-.358 1.023.415 1.94 1.045 2.011 2.24.065 1.124-.773 1.747-1.66 2.262-1.353.787-2.706 1.582-4.223 2.469l3.027 1.79c.508.3 1.031.572 1.518.895 1.66 1.116 1.689 2.863-.043 3.879-2.412 1.417-4.946 1.417-7.437.179-1.174-.587-2.305-1.281-3.4-2.011-.701-.458-1.231-.444-1.968-.015-1.732.995-3.321 2.319-5.347 2.699-1.797.336-3.579.272-5.225-.637-2.047-1.124-2.112-2.935-.143-4.173 1.145-.723 2.34-1.353 3.514-2.04.272-.158.616-.229.823-.666M62.281 88.892c-.15-.158-.236-.28-.35-.358-1.854-1.332-1.382-3.157.587-4.102 2.197-1.059 4.488-1.102 6.685-.05 1.517.723 2.949 1.625 4.366 2.534 1.696 1.095 1.682 2.834-.064 3.858-5.483 3.228-10.98 6.442-16.527 9.555-2.155 1.203-4.502 1.117-6.771.122-.938-.415-1.747-1.023-1.818-2.147-.072-1.153.73-1.782 1.617-2.291 3.665-2.133 7.336-4.251 11.009-6.377.407-.236.815-.48 1.266-.744" fill="#faf228"/>
    <path d="M158.742 59.248L96.328 95.022 33.935 59.205l.007-23.445 62.386 35.814L158.75 35.81z" fill="#fff"/>
    <path d="M158.747 35.81L96.361 0 33.94 35.76l62.392 35.821z" fill="#141111"/>
    <path d="M110.283 34.03c-2.104 1.16-4.609 1-7.021-.41l-4.896-2.82c-.007-.01-.007-.02-.014-.02-.931-.59 0-1.32 0-1.32l-.008-.02 3.908-2.17.015.01s.021-.02.064-.05l.387-.21c.429-.18 1.145-.29 2.011.26.079.05.143.08.208.11l4.716 2.71c2.434 1.4 2.749 2.77.63 3.93M93.391 44.32c-1.911 1.05-4.602 1-6.9-.36l-5.897-3.47-.008-.01c-.565-.36-.436-.78-.257-1.04l5.232-2.9c.422-.08.973-.02 1.61.38.151.1.272.15.373.17l5.54 3.24c2.319 1.36 2.383 2.85.307 3.99m36.891-16.79l-28.495-16.15-2.67-1.51c-1.689-.62-4.129-.9-7.093.57L52.307 32.96l-.007.05s-3.637 1.91-.988 4.11l30.591 18.277c9.491 5.661 19.92 6.341 28.738 1.61 5.791-3.099 7.244-7.487 4.352-10.917 4.76 1.3 11.653.88 17.128-2.07 9.198-4.94 8.167-10.82-1.839-16.49" fill="#fff"/>
    <g fill="#141111">
        <path d="M151.474 43.35c2.233-1.43 5.311-2.7 5.139.43-.036.68-.358 1.29-.773 1.77-.444.52-1.002.82-1.618 1.05-1.152.44-2.068 1.26-2.691 2.32-.665 1.14-.787 2.47-.787 2.93-.007.64.186 2.876 1.961 1.788a4.7 4.7 0 0 0 .594-.438c.451-.42.809-.99.888-1.72l-.759.47c-.888.54-.873-.95-.873-1.02.021-1.67.823-2.17.866-2.2l3.07-1.93c.05-.03.931-.58.902 1.06-.114 5.563-1.524 9.557-5.261 11.819-2.827 1.689-5.754.014-5.769-5.132-.014-5.177 2.191-9.357 5.111-11.197M71.678 71.473c1.203.595 1.732-.307 1.618-1.739-.122-1.453-.795-2.97-2.047-3.593-1.239-.615-1.725.329-1.61 1.782.114 1.432.837 2.956 2.04 3.55m-.302-11.165c3.901 2.362 6.993 7.401 6.958 12.726-.029 5.16-3.15 6.649-7.058 4.287-3.629-2.19-6.814-7.122-6.778-12.547.029-5.325 3.085-6.757 6.878-4.466M92.359 72.44c-.809-.472-1.661-.458-2.234 0l-2.834 2.219-3.121-5.812c-.322-.622-1.016-1.76-2.047-2.354-.508-.294-.966-.444-1.36-.444-1.546 0-1.603 2.104-1.603 2.34l-.057 10.092c-.043.759.007 3.357 2.405 4.76.243.143.479.215.701.215 1.324 0 1.675-2.283 1.675-3.629l.014-1.632 2.484 4.094c.136.279.372.53.666.695.343.2.722.136 1.095-.165l1.911-1.317-.015 2.791c0 1.819.201 4.359 1.983 5.354.508.287.966.43 1.36.43 1.174 0 1.596-1.267 1.603-2.348l.065-10.371c0-.344-.065-3.386-2.691-4.918M43.124 50.76c.68.4 1.024.02 1.024-.67.007-.53-.294-1.33-1.067-1.78l-1.417-.82-.014 2.41 1.474.86m-.093 5.728c.773.443 1.081.007 1.081-.523.007-.694-.329-1.467-1.009-1.861l-1.475-.852-.014 2.412 1.417.824m4.13-1.682c2.076 1.853 2.233 3.693 2.226 4.867-.014 2.698-1.496 3.707-5.125 1.603l-4.896-2.87c-3.077-1.79-3.042-4.86-3.042-4.982l.065-9.844c0-.12 0-3.21 3.078-1.42l4.895 2.87c3.622 2.1 5.082 4.82 5.068 7.52-.007 1.175-.186 2.814-2.269 2.256M57.172 63.357c1.232.523 1.711-.408 1.51-1.832-.2-1.439-.966-2.92-2.254-3.464-1.267-.544-1.703.429-1.503 1.868.2 1.424 1.016 2.906 2.247 3.428m-.05-11.037c3.901 2.362 6.843 7.409 6.807 12.734-.028 5.168-2.999 6.642-6.9 4.28-3.636-2.19-7.071-7.243-7.043-12.669.029-5.325 3.343-6.635 7.136-4.345M137.371 51.87c.629-.37 1.181-.18 1.531.24l2.749 3.42-.007-2.87c0-.12-.287-3.2 1.725-4.37 2.04-1.17 2.032 1.92 2.032 2.04l.029 10.074c0 .143.007 3.221-2.018 4.395-.416.236-.773.15-1.203-.344l-2.784-3.55.007 3.057c0 .143.007 3.228-2.018 4.394-2.005 1.16-2.019-1.925-2.019-2.068l-.021-10.064c0-.114-.015-3.204 1.997-4.354M106.784 69.753c.165-.093 2.026-1.145 2.033 1.317.007 2.526-1.933 3.65-2.019 3.7l-3.435 1.983.007 1.431 3.557-2.047c.623-.365 1.331-.393 1.339.874 0 1.367-.709 2.133-1.332 2.49l-3.557 2.055.007 1.41 3.429-1.983c.164-.093 2.025-1.145 2.032 1.317.008 2.534-1.925 3.65-2.018 3.708l-5.69 3.278c-2.749 1.589-2.742-1.503-2.742-1.646l-.028-9.821c0-.121-.022-3.192 2.87-4.867zM127.471 67.918l2.512-1.374-1.181-3.779-1.331 5.153m7.064-2.548c.272.537.394 1.088.394 1.639.007 1.725-1.145 3.372-2.269 4.016-.694.408-1.345.179-1.689-.508l-.394-1.017-4.137 2.384-.537 1.911c-.336 1.08-.98 2.054-1.682 2.455-1.016.587-2.491.265-2.498-1.51 0-.523.093-1.074.351-1.869l4.237-13.141c.186-.565.645-1.854 1.904-2.584 1.274-.737 1.99-.071 2.176.279zM116.267 70.64c.63-.365.952-1.123.945-1.811 0-.529-.279-1.338-1.009-.923l-1.854 1.181.007 2.763 1.331-.816m3.801-.58c1.675-.172 1.661.995 1.668 3.006v1.167c0 .143-.007 3.071-2.491 4.502-2.462 1.417-2.054-1.911-2.054-2.054l-.008-2.176c-.007-1.238-.3-1.331-.586-1.167l-1.253.902.007 3.751c0 .143-.043 3.02-2.455 4.409-2.369 1.367-2.469-1.424-2.469-1.568l-.022-10.063c-.007-.115-.028-3.192 2.835-4.846l4.538-2.677c3.378-1.947 4.316-.623 4.323 2.076 0 1.124-.151 2.892-2.033 4.738M156.601 57.108v.258l-.387.222.008 1.217-.272.15v-1.21l-.387.222v-.258zM158.095 56.246l.008 1.474-.251.143-.007-.995v-.243l-.236 1.374-.258.151-.243-1.096V58.293l-.251.143v-1.475l.387-.221.236 1.023.229-1.295z"/>
    </g>
</svg>
