<?xml version="1.0" encoding="UTF-8" standalone="no"?>
<svg xmlns="http://www.w3.org/2000/svg" height="127.54" width="600" version="1.1" viewBox="0 0 158.75 33.743759">
  <defs>
    <linearGradient id="a" gradientUnits="userSpaceOnUse" gradientTransform="matrix(158.75 0 0 158.75 -114.9 148.83)" x1="0" x2="1" y1="0" y2="0">
      <stop stop-color="#15c0fc" offset="0"/>
      <stop stop-color="#ff37ff" offset=".77579"/>
      <stop stop-color="#ff37ff" offset="1"/>
    </linearGradient>
  </defs>
  <g transform="translate(114.9 -131.96)">
    <g fill="#fff">
      <path d="m-26.062 154.71-7.7893 7.8648-6.0626-6.1206-6.0346 6.0925-7.7314-7.8104 6.0328-6.0908-6.0609-6.1205 7.7876-7.8648 6.0626 6.1206 6.0328-6.0925 7.7349 7.8086-6.0346 6.0924 6.0626 6.1206"/>
      <path d="m-84.491 134.46v28.011h28.048l-0.000696-28.011h-28.047"/>
      <path d="m-96.196 144.17c-0.13038 0-0.2597 0.005-0.3885 0.0103 1.1862-0.98844 1.9418-2.477 1.9418-4.1422 0-2.9788-2.4151-5.393-5.3933-5.393h-12.441v27.99h16.448v-0.004c5.0212-0.0897 9.0647-4.1849 9.0647-9.2275 0-5.0995-4.1335-9.2333-9.2317-9.2333"/>
    </g>
    <path d="m38.592 159.56c-0.70189 0.94935-1.5617 1.6723-2.5795 2.1671-1.0178 0.49482-2.1127 0.81068-3.2814 0.94935-1.1687 0.13689-2.2075 0.20708-3.1147 0.20708-0.16671 0-0.52291-0.007-1.0739-0.0211-0.55099-0.014-1.1897-0.0894-1.9197-0.22812-0.72822-0.1368-1.4985-0.35614-2.311-0.65973-0.8107-0.3018-1.5547-0.73529-2.2285-1.3003-0.67382-0.56322-1.2301-1.2914-1.6705-2.1864-0.44044-0.89492-0.65979-1.9881-0.65979-3.2814h5.0344c0 0.24737 0.04034 0.54397 0.12283 0.88784 0.08248 0.34397 0.27549 0.68087 0.57906 1.0108 0.30181 0.32991 0.7563 0.61238 1.3617 0.84577 0.60539 0.2334 1.4301 0.36501 2.4759 0.39133 1.2933 0.028 2.2899-0.0263 2.9918-0.165 0.7019-0.1368 1.2178-0.32284 1.5477-0.55624s0.52993-0.47378 0.59837-0.72293c0.06843-0.24746 0.10353-0.48077 0.10353-0.70011 0-0.24925-0.04213-0.49661-0.12459-0.74406-0.08247-0.24737-0.29479-0.47379-0.63872-0.68087-0.34569-0.20528-0.88089-0.37727-1.6109-0.51585-0.72822-0.13689-1.739-0.21935-3.0322-0.24746-0.99144-0.0263-1.9811-0.16491-2.9708-0.41236-0.99143-0.24737-1.8864-0.62643-2.683-1.1353-0.79841-0.50887-1.4442-1.1476-1.9408-1.918-0.49484-0.7703-0.74226-1.6793-0.74226-2.7251 0-1.1546 0.24742-2.1654 0.74226-3.0322 0.49659-0.86684 1.1494-1.5758 1.9618-2.1268 0.8107-0.54924 1.7389-0.9616 2.7848-1.2371 1.0458-0.27549 2.146-0.41236 3.3024-0.41236 0.60364 0 1.4161 0.0684 2.4338 0.2053 1.0178 0.13863 2.0162 0.45448 2.9918 0.94932 0.97739 0.49484 1.8162 1.2248 2.5181 2.1882 0.70189 0.96335 1.0371 2.2689 1.0107 3.9201h-5.0344c0-0.88088-0.29656-1.574-0.8879-2.0846-0.59135-0.50888-1.6442-0.76332-3.1568-0.76332-1.1283 0-2.0355 0.21408-2.7234 0.64049-0.68786 0.4264-1.0318 1.0107-1.0318 1.753 0 0.7159 0.3299 1.2248 0.98968 1.5267 0.66154 0.3035 1.5126 0.45444 2.5584 0.45444 0.38604 0 0.91423 0.007 1.5898 0.021 0.67382 0.0141 1.395 0.0685 2.1671 0.165 0.76858 0.0965 1.5477 0.26142 2.3303 0.49482 0.78437 0.23511 1.4933 0.57199 2.1268 1.0107 0.63171 0.44048 1.1476 1.0055 1.5477 1.6933 0.39833 0.68793 0.59837 1.5407 0.59837 2.5584 0 1.5951-0.35096 2.8673-1.0528 3.8166zm-20.695 2.9094h-5.0361c-1.0721-0.10877-2.0355-0.41236-2.8883-0.90718-0.71594-0.41237-1.3687-1.0248-1.9601-1.8372-0.5931-0.81076-0.8879-1.932-0.8879-3.3621v-20.43h5.0344v5.6134h4.7466v4.9098h-4.7466v9.2036c0.08423 0.3299 0.23338 0.6335 0.45448 0.90718 0.19302 0.22113 0.4615 0.42821 0.80543 0.61944 0.34393 0.19303 0.78964 0.28954 1.3406 0.28954h3.136zm-13.6-24.23c-0.014027 0.30358-0.096507 0.52292-0.24742 0.65979-0.15091 0.13862-0.39833 0.21408-0.74226 0.22812-0.34393 0.014-0.84579 0.0193-1.5056 0.0193-0.66154 0-1.1634-0.005-1.5073-0.0193-0.34393-0.014-0.59135-0.0895-0.74226-0.22812-0.15091-0.13687-0.23513-0.35621-0.24742-0.65979-0.014027-0.30181-0.02104-0.75629-0.02104-1.3617 0-0.60538 0.007013-1.0581 0.02104-1.3617 0.012286-0.30357 0.096507-0.52291 0.24742-0.65978 0.15091-0.13863 0.39833-0.21408 0.74226-0.22812 0.34393-0.014 0.84579-0.021 1.5073-0.021 0.65979 0 1.1616 0.007 1.5056 0.021 0.34393 0.014 0.59135 0.0895 0.74226 0.22812 0.15091 0.13687 0.23338 0.35621 0.24742 0.65978 0.014027 0.30357 0.02104 0.7563 0.02104 1.3617 0 0.60539-0.00701 1.0599-0.02104 1.3617zm0.02104 24.224h-5.0343v-20.91h5.0343zm-7.7998 0h-5.0344v-11.39c0-0.65973-0.04036-1.2722-0.12283-1.8354-0.082472-0.56501-0.25619-1.0669-0.5159-1.5073-0.26321-0.43869-0.6475-0.78437-1.1564-1.0318-0.50888-0.24742-1.1897-0.37025-2.0425-0.37025-0.88088 0-1.5828 0.12283-2.1057 0.37025-0.52292 0.24742-0.92826 0.5931-1.216 1.0318-0.28953 0.44044-0.47554 0.94233-0.55801 1.5073-0.08247 0.56322-0.12283 1.1757-0.12283 1.8354l0.08247 11.39h-5.0765v-27.857h5.0344v9.3686c0.24742-0.27374 0.53695-0.56328 0.86684-0.86685 0.32989-0.30181 0.71594-0.57731 1.1564-0.82473 0.43869-0.24742 0.94932-0.44746 1.5266-0.59837 0.57731-0.15091 1.2371-0.22636 1.9811-0.22636 0.82473 0 1.6705 0.15091 2.5374 0.45272 0.86684 0.30358 1.6512 0.76332 2.3531 1.3827 0.70015 0.61943 1.2792 1.3898 1.7319 2.311 0.45448 0.923 0.68084 2.0022 0.68084 3.2392zm-36.432-6.0118-6.0346 6.0925-7.7314-7.8104 6.0328-6.0908-6.0609-6.1205 7.7876-7.8648 6.0626 6.1206 6.0328-6.0925 7.7349 7.8086-6.0346 6.0924 6.0626 6.1206-7.7893 7.8648zm-16.53 6.0118h-28.046v-28.011h28.046zm-39.585 0.16321v0.003h-16.451v-27.98h12.441c2.9778 0 5.3924 2.4145 5.3924 5.3941 0 1.6652-0.75629 3.1533-1.9407 4.1412 0.1281-0.005 0.25794-0.0105 0.3878-0.0105 5.0975 0 9.2317 4.1342 9.2317 9.2334 0 5.0432-4.0429 9.1387-9.065 9.2283zm62.123-30.669-6.003 5.4134-5.6503-5.1519-8.149 2.2338v-2.2654h-34.146v2.5795l-9.3458-2.0706-2.283-0.39832-2.4443-0.0719-12.978-0.0123v32.845h19.325l0.7019-0.079 0.68786-0.0877 6.3416-1.2845v1.4109h34.377v-1.6898l7.4436 2.3724 6.0644-6.0995 5.8433 6.0995h77.965v-33.744h-77.751" fill="url(#a)"/>
    <g fill="#fff">
      <path d="m-5.8955 143.3c-0.70154-0.61925-1.4856-1.0795-2.3524-1.3826-0.86649-0.30252-1.7126-0.45396-2.5381-0.45396-0.74278 0-1.4031 0.0762-1.9808 0.22689-0.57784 0.15161-1.0872 0.35078-1.527 0.59837-0.44044 0.2476-0.82543 0.52309-1.1555 0.82543-0.33024 0.30305-0.61907 0.59205-0.86667 0.86667v-9.3679h-5.0349v27.856h5.0761l-0.08247-11.39c0-0.66029 0.04124-1.2722 0.12371-1.8365 0.08265-0.56366 0.2683-1.0658 0.55713-1.5063 0.28883-0.43973 0.69453-0.78419 1.2174-1.0316 0.52239-0.24777 1.2239-0.37165 2.1046-0.37165 0.85246 0 1.5335 0.12388 2.0429 0.37165 0.50888 0.24742 0.89369 0.59188 1.1555 1.0316 0.26128 0.44046 0.43342 0.94262 0.51589 1.5063 0.082474 0.56432 0.12388 1.1762 0.12388 1.8365v11.39h5.0347v-13.619c0-1.2382-0.22689-2.3176-0.68084-3.2399-0.45395-0.92124-1.0318-1.6919-1.7333-2.3108"/>
      <path d="m4.0501 134.86c-0.15161-0.13722-0.3992-0.21267-0.74278-0.22689-0.34446-0.0135-0.84614-0.0205-1.5064-0.0205-0.66031 0-1.1625 0.007-1.5063 0.0205-0.34446 0.0142-0.59188 0.0897-0.74278 0.22689-0.15161 0.1381-0.23409 0.35779-0.24759 0.66048-0.014226 0.30287-0.020692 0.757-0.020692 1.3617 0 0.60538 0.006516 1.0595 0.020692 1.3618 0.01353 0.30322 0.095985 0.52292 0.24759 0.66032 0.15091 0.13792 0.39833 0.21355 0.74278 0.22706 0.34375 0.0142 0.84596 0.0207 1.5063 0.0207 0.66031 0 1.162-0.006 1.5064-0.0207 0.34358-0.0135 0.59117-0.0891 0.74278-0.22706 0.15091-0.1374 0.23338-0.3571 0.24759-0.66032 0.01353-0.30234 0.020543-0.75647 0.020543-1.3618 0-0.60469-0.00701-1.0588-0.020543-1.3617-0.014226-0.30269-0.096686-0.52238-0.24759-0.66048"/>
      <path d="m-0.71651 162.47h5.0347v-20.923h-5.0347z"/>
      <path d="m13.418 157.19c-0.34446-0.19212-0.61258-0.39852-0.80473-0.61909-0.22057-0.2746-0.37148-0.57763-0.45413-0.90775v-9.2031h4.7461v-4.911h-4.746v-5.62h-5.035v20.428c0 1.4309 0.29532 2.5521 0.8872 3.3634 0.59135 0.81169 1.2445 1.4238 1.9602 1.8365 0.85263 0.49517 1.816 0.7982 2.8888 0.90787h5.0349v-4.9936h-3.1364c-0.55064 0-0.99757-0.096-1.3412-0.28885"/>
      <path d="m37.498 151.49c-0.63328-0.43956-1.3413-0.77702-2.1253-1.011-0.7842-0.23333-1.5617-0.39866-2.3317-0.4953-0.7705-0.096-1.4928-0.15073-2.1666-0.16499-0.67454-0.0135-1.2039-0.0207-1.5889-0.0207-1.0458 0-1.8983-0.15088-2.5586-0.45399-0.66031-0.30235-0.99056-0.81115-0.99056-1.527 0-0.74278 0.34375-1.3269 1.0318-1.7539 0.68734-0.42622 1.5952-0.6396 2.7237-0.6396 1.5128 0 2.5651 0.25462 3.1571 0.76331 0.59118 0.50958 0.8872 1.2039 0.8872 2.0842h5.0347c0.02721-1.6508-0.30937-2.9572-1.0109-3.9205-0.70172-0.96282-1.5412-1.6921-2.5174-2.1873-0.97687-0.49519-1.9746-0.81122-2.992-0.94932-1.0183-0.13722-1.8302-0.20618-2.4349-0.20618-1.1555 0-2.2562 0.13792-3.3016 0.41271-1.046 0.27532-1.9746 0.68804-2.7857 1.238-0.81192 0.55063-1.465 1.2587-1.9604 2.1253-0.49518 0.86667-0.74278 1.8778-0.74278 3.0332 0 1.046 0.2476 1.9539 0.74278 2.7238 0.49536 0.77065 1.1415 1.4102 1.9397 1.919 0.7977 0.50934 1.6921 0.88737 2.6825 1.135 0.99054 0.24758 1.9809 0.3857 2.9715 0.4127 1.2927 0.0277 2.304 0.11036 3.0333 0.2476 0.72857 0.1379 1.265 0.30953 1.6095 0.51593 0.34375 0.20632 0.55713 0.43319 0.63961 0.68098 0.08265 0.24759 0.12388 0.49503 0.12388 0.74276 0 0.22057-0.03492 0.45397-0.10318 0.70141-0.06896 0.24772-0.26831 0.48887-0.59837 0.72225-0.33024 0.23423-0.84614 0.41991-1.5477 0.55714-0.70154 0.13806-1.6991 0.19282-2.992 0.16513-1.0458-0.0271-1.8713-0.15792-2.4761-0.39201-0.60538-0.2334-1.0595-0.51594-1.3619-0.84598-0.30305-0.33026-0.4952-0.6668-0.57784-1.0113-0.08246-0.34354-0.12371-0.63939-0.12371-0.88718h-5.0349c0 1.2936 0.22004 2.3871 0.6603 3.281 0.43992 0.89424 0.99704 1.6237 1.6716 2.1872 0.67364 0.56399 1.4166 0.9974 2.2285 1.2998 0.81105 0.30324 1.5817 0.52237 2.311 0.66034 0.72857 0.13738 1.3682 0.21284 1.919 0.22725 0.54994 0.0135 0.90791 0.0205 1.073 0.0205 0.9079 0 1.946-0.0691 3.1157-0.20632 1.169-0.13812 2.2628-0.45397 3.2809-0.94935 1.0176-0.49517 1.8778-1.2174 2.5795-2.1666 0.70136-0.94912 1.0523-2.2213 1.0523-3.8172 0-1.0176-0.20004-1.8708-0.59854-2.5588-0.39903-0.68737-0.91492-1.2515-1.5475-1.6921"/>
    </g>
  </g>
</svg>
