<svg version="1.1" viewBox="0 0 800 117.77" xmlns="http://www.w3.org/2000/svg">
 <path d="m46.022 91.597c7.8513 0 12.898-4.4863 12.898-11.403 0-7.104-5.0469-11.403-12.898-11.403h-17.608v22.806zm-1.4954-45.238c7.2905 0 11.964-3.9256 11.964-10.094 0-6.1687-4.6731-10.094-11.964-10.094h-16.113v20.189zm-44.527-44.49h45.274c23.741 0 40.565 11.964 40.565 33.648 0 10.281-4.6734 17.198-12.525 21.497 9.1604 4.6736 14.955 12.524 14.955 24.302 0 22.245-17.011 34.583-40.938 34.583h-47.331z" fill="#fff" stroke-width="6.5427"/>
 <path d="m183.02 58.51c0-17.011-12.525-30.283-30.096-30.283-17.572 0-30.096 13.272-30.096 30.283 0 17.385 12.525 31.031 30.096 31.031 17.572 0 30.096-13.647 30.096-31.031zm-89.541 0c0-34.395 24.301-58.51 59.445-58.51 35.144 0 59.445 24.115 59.445 58.51 0 35.704-27.667 59.258-59.445 59.258-31.778 0-59.445-23.554-59.445-59.258z" fill="#fff" stroke-width="6.5427"/>
 <path d="m277.36 1.8694-55.615 114.03h31.151l55.615-114.03z" fill="#d1f20c" stroke-width="6.5427"/>
 <path d="m250.32 36.013-16.652-34.144h-31.151l32.228 66.079z" fill="#fff" stroke-width="6.5427"/>
 <path d="m314.2 1.8694h28.414v87.859h40.79v26.171h-69.204z" fill="#fff" stroke-width="6.5427"/>
 <path d="m392.93 1.8694h72.097v26.17h-43.683v17.011h43.683v26.171h-43.683v18.507h43.683v26.171h-72.097z" fill="#fff" stroke-width="6.5427"/>
 <path d="m533.84 12.194-8.4845 5.0269c-1.5892-2.7528-3.0986-4.5483-4.5321-5.3862-1.4996-0.95739-3.4284-1.4361-5.7916-1.4361-2.9036 0-5.312 0.823-7.2257 2.4685-1.919 1.616-2.8735 3.6513-2.8735 6.1048 0 3.3814 2.5137 6.1043 7.5404 8.1685l6.911 2.8283c5.6267 2.2741 9.7388 5.0494 12.342 8.3259 2.604 3.2765 3.9079 7.294 3.9079 12.052 0 6.3736-2.1237 11.64-6.3758 15.799-4.2776 4.1899-9.5896 6.2842-15.931 6.2842-6.016 0-10.983-1.7796-14.904-5.3414-3.8608-3.5607-6.2692-8.5731-7.227-15.037l10.593-2.3341c0.48023 4.0701 1.3144 6.8828 2.5137 8.4384 2.1538 2.9926 5.297 4.4887 9.424 4.4887 3.2635 0 5.9715-1.0918 8.1253-3.2765 2.1538-2.1841 3.2327-4.9519 3.2327-8.3034 0-1.3472-0.18974-2.5814-0.5594-3.7032-0.3749-1.1223-0.95981-2.1547-1.7541-3.0971-0.7897-0.94293-1.8136-1.8249-3.0731-2.6484-1.2542-0.82248-2.7532-1.608-4.487-2.3565l-6.6912-2.7828c-9.4842-4.0095-14.227-9.875-14.227-17.595 0-5.2063 1.9903-9.5601 5.9722-13.061 3.9773-3.5303 8.9294-5.2968 14.856-5.2968 7.9899 0 14.226 3.8906 18.719 11.67z" fill="#fff" stroke-width="6.5427"/>
 <path d="m553.36 33.334h3.9079c9.604 0 14.406-3.6952 14.406-11.086 0-7.1516-4.9515-10.728-14.856-10.728h-3.4578zm0 9.6956v28.143h-10.458v-69.303h11.853c5.8014 0 10.189 0.40376 13.147 1.2118 2.9933 0.80801 5.6267 2.3346 7.9003 4.5782 3.9825 3.8906 5.9715 8.7976 5.9715 14.723 0 6.3441-2.1238 11.372-6.3712 15.081-4.2527 3.7107-9.9841 5.5661-17.195 5.5661z" fill="#fff" stroke-width="6.5427"/>
 <path d="m597.14 36.341c0 7.6608 2.5739 13.959 7.7204 18.897 5.117 4.9375 11.028 7.406 17.729 7.406 7.2754 0 13.407-2.5135 18.404-7.5404 4.9966-5.0869 7.4953-11.281 7.4953-18.583 0-7.3905-2.4685-13.585-7.4056-18.583-4.907-5.0269-10.983-7.5404-18.223-7.5404-7.2107 0-13.302 2.5135-18.269 7.5404-4.9672 4.9675-7.4508 11.102-7.4508 18.403zm-10.544-0.13445c0-9.7545 3.573-18.133 10.723-25.136 7.121-7.0022 15.681-10.503 25.675-10.503 9.8788 0 18.344 3.5313 25.405 10.593 7.0929 7.0622 10.639 15.545 10.639 25.449 0 9.9644-3.5592 18.419-10.684 25.36-7.1505 6.9723-15.78 10.458-25.894 10.458-8.9497 0-16.985-3.0973-24.106-9.2914-7.8401-6.8518-11.758-15.829-11.758-26.931z" fill="#fff" stroke-width="6.5427"/>
 <path d="m677.13 33.693h3.3237c9.9056 0 14.858-3.7852 14.858-11.356 0-7.0917-4.8154-10.637-14.453-10.637h-3.7293zm13.02 7.9446 21.453 29.534h-12.791l-19.792-28.368h-1.8908v28.368h-10.455v-69.303h12.254c9.1597 0 15.768 1.7209 19.837 5.1619 4.4883 3.8306 6.7324 8.887 6.7324 15.171 0 4.908-1.4001 9.1269-4.2135 12.657-2.8133 3.5313-6.5296 5.7905-11.136 6.7779z" fill="#fff" stroke-width="6.5427"/>
 <path d="m737.47 11.7v59.473h-10.462v-59.473h-15.931v-9.83h42.279v9.83z" fill="#fff" stroke-width="6.5427"/>
 <path d="m798.21 12.194-8.4858 5.0269c-1.5899-2.7528-3.1012-4.5483-4.5341-5.3862-1.4983-0.95739-3.4284-1.4361-5.7903-1.4361-2.9049 0-5.3126 0.823-7.2296 2.4685-1.917 1.616-2.8722 3.6513-2.8722 6.1048 0 3.3814 2.5124 6.1043 7.5437 8.1685l6.9091 2.8283c5.6267 2.2741 9.742 5.0494 12.339 8.3259 2.604 3.2765 3.9125 7.294 3.9125 12.052 0 6.3736-2.1264 11.64-6.3791 15.799-4.2789 4.1899-9.585 6.2842-15.931 6.2842-6.0127 0-10.979-1.7796-14.904-5.3414-3.8602-3.5607-6.2679-8.5731-7.2231-15.037l10.593-2.3341c0.47762 4.0701 1.3151 6.8828 2.5124 8.4384 2.1525 2.9926 5.2996 4.4887 9.4214 4.4887 3.2648 0 5.9734-1.0918 8.126-3.2765 2.1525-2.1841 3.2321-4.9519 3.2321-8.3034 0-1.3472-0.18319-2.5814-0.55613-3.7032-0.37293-1.1223-0.96177-2.1547-1.7534-3.0971-0.79167-0.94293-1.8123-1.8249-3.0751-2.6484-1.2562-0.82248-2.7544-1.608-4.4883-2.3565l-6.6866-2.7828c-9.4869-4.0095-14.23-9.875-14.23-17.595 0-5.2063 1.989-9.5601 5.9735-13.061 3.9779-3.5303 8.9307-5.2968 14.858-5.2968 7.9886 0 14.224 3.8906 18.719 11.67z" fill="#fff" stroke-width="6.5427"/>
</svg>
