<svg data-name="Layer 1 copy" version="1.1" viewBox="0 0 1024 820.22" xmlns="http://www.w3.org/2000/svg">
 <defs>
  <style>.e974353a-ee31-4299-91c0-5315fece0136{fill:#315aff;}.a6e27467-ae1c-4744-bb1f-3b176748baef{fill:#fff;}</style>
 </defs>
 <path class="e974353a-ee31-4299-91c0-5315fece0136" d="M736.65,0H0V820.22H736.65Zm-23,797.24H23V22.89H713.68Z"/>
 <path class="e974353a-ee31-4299-91c0-5315fece0136" d="M323.39,331.66l49.28.17c9.91,0,17.89-2.54,24.11-7.63a24.46,24.46,0,0,0,9.3-19.9c0-8.42-3-15.17-8.95-20.08s-14.12-7.46-24.38-7.46l-49.19-.17Zm54.27,124.07c10.26,0,18.42-2.8,24.38-8.41s9-13.25,9.12-22.8c0-8.07-3-14.65-9-19.56s-14-7.45-24.29-7.45l-54.54-.18-.17,58.32Zm71.73-93q35,0,58.23,18.94c15.52,12.54,23.15,33,23.15,61.2-.09,30.34-11.4,54.8-34.12,73.22s-52.25,27.71-89,27.62l-201.76-.44.79-354.78,201.76.44q50.38.14,81.29,25.87t30.78,67.61c0,25.78-7.63,45.24-22.63,58.48s-31.21,19.73-48.49,19.73Z"/>
 <path class="e974353a-ee31-4299-91c0-5315fece0136" d="M155.36,665.37h21.56c3.69,0,6.67-1,8.86-3.07a10.57,10.57,0,0,0,3.33-8.15,9.41,9.41,0,0,0-3.24-7.46,11.45,11.45,0,0,0-8-2.89H155.44Zm23,39c3.94,0,6.92-1,9.12-3a10.9,10.9,0,0,0,3.24-8.24,10,10,0,0,0-3.33-7.89,12.85,12.85,0,0,0-8.51-3H155.36l-.09,22Zm18.24-31.3a20.69,20.69,0,0,1,13.5,6.57q5.79,6.06,5.79,16.58c0,8.59-2.9,15.43-8.6,20.52s-13.94,7.54-24.64,7.54l-52.08-.09.18-100.4,52,.09c9.21,0,16.57,2.54,22.1,7.54s8.33,11.66,8.33,20c-.09,6.22-1.84,11.22-5.35,14.91s-7.19,5.78-11.22,6.13Z"/>
 <path class="e974353a-ee31-4299-91c0-5315fece0136" d="M285.21,648.85l-1.14,23.94h-4.3q-25.9,0-26,28.15v23.5h-24l.18-75.24h24l-.08,14.38c6.22-10.26,14.9-15.34,26-15.34a20.32,20.32,0,0,1,5.35.61"/>
 <path class="e974353a-ee31-4299-91c0-5315fece0136" d="M347.54,701.06A19.22,19.22,0,0,0,353,687a19,19,0,0,0-5.35-13.94,17.72,17.72,0,0,0-13-5.52A16.88,16.88,0,0,0,321.59,673c-3.42,3.6-5.09,8.25-5.09,13.94s1.67,10.53,5,14.12a17.19,17.19,0,0,0,13.07,5.44,17.64,17.64,0,0,0,13-5.44m29.38,23.68L353,724.65v-6c-6.14,5.43-13.94,8.24-23.41,8.15a34.3,34.3,0,0,1-26-11.22c-7.19-7.46-10.69-17-10.69-28.68s3.59-21.13,10.78-28.58a34.91,34.91,0,0,1,26-11.22c9.47,0,17.28,2.8,23.33,8.33l.09-6.05,23.93.08Z"/>
 <polygon class="e974353a-ee31-4299-91c0-5315fece0136" points="398.52 724.81 398.7 649.58 422.64 649.58 422.46 724.81"/>
 <path class="e974353a-ee31-4299-91c0-5315fece0136" d="m420.71 617.84a13.23 13.23 0 0 1 4 9.55 12.7 12.7 0 0 1-4 9.56 14 14 0 0 1-10 3.77 13.6 13.6 0 0 1-9.91-3.86 12.56 12.56 0 0 1-3.85-9.47 13 13 0 0 1 3.94-9.64 12.52 12.52 0 0 1 9.82-4 13.28 13.28 0 0 1 10 4"/>
 <path class="e974353a-ee31-4299-91c0-5315fece0136" d="M512.5,656.17c5.35,5.79,8,13.33,8,22.71L520.39,725H496.54l.09-41c0-4.47-1.14-8-3.6-10.79a11.73,11.73,0,0,0-9.29-4.12,13.86,13.86,0,0,0-11.4,5.18q-4.21,5.13-4.21,15.78l-.09,34.9H444.1l.18-75.23h23.94v7.19c6-6.23,13.68-9.39,23.06-9.39,8.86,0,15.87,2.9,21.22,8.68"/>
 <polygon class="e974353a-ee31-4299-91c0-5315fece0136" points="537.63 668.89 574.46 668.98 536.58 709.66 536.58 725.1 606.11 725.27 606.11 706.25 567.09 706.16 604.89 665.73 604.97 650.04 537.63 649.86"/>
 <path class="e974353a-ee31-4299-91c0-5315fece0136" d="M107.15,134A38.73,38.73,0,0,1,88.91,139c-8.42,0-14.91-2.28-19.65-6.76s-6.92-11.13-6.92-19.81V87.05H50.24V70.21h12.1V50.48H83.65V70.21h19.64V87.05H83.65V110.2c0,6.48,2.89,9.73,8.85,9.73a19.57,19.57,0,0,0,9.73-2.63Z"/>
 <polygon class="e974353a-ee31-4299-91c0-5315fece0136" points="165.69 70.06 149.73 111.36 133.69 70.06 111.15 70.06 138.77 136.97 160.52 136.97 188.23 70.06"/>
 <rect class="e974353a-ee31-4299-91c0-5315fece0136" x="775.32" width="248.68" height="248.68"/>
 <polygon class="a6e27467-ae1c-4744-bb1f-3b176748baef" points="872.16 83.56 872.16 115.13 841.29 115.13 841.29 83.56 817.09 83.56 817.09 168.09 841.29 168.09 841.29 135.91 872.16 135.91 872.16 168.09 896.54 168.09 896.54 83.56"/>
 <path class="a6e27467-ae1c-4744-bb1f-3b176748baef" d="M942.14,147.59c14,0,23.33-8.77,23.33-21.74S956.09,104,942.14,104h-9.73v43.58Zm1.76-64c27.62,0,46,17.19,46,42.27S971.52,168,943.9,168H908.21V83.58Z"/>
</svg>
