<svg version="1.1" viewBox="0 0 1067.7 807.11" xmlns="http://www.w3.org/2000/svg">
 <g transform="translate(-25.167,-187.55)">
  <path d="m25.667 188.05h1066.7v595.73h-844.35l-222.31 210.38z" fill="#ddf5ff" Googl="true"/>
  <g fill="#080006">
   <path d="m160.07 327.8-38.4 35.2v225.6h38.4v-20.8s15.216 25.2 54.2 25.2c53.589 0 87.033-42.75 87.033-91.167 0-52.948-37.793-91.467-86.967-91.467-38.664 0-54.267 25.167-54.267 25.167zm49.633 118.27c30.265 0 52.433 22.017 52.433 55.433 0 32.902-21.687 55.667-52.433 55.667-28.215 0-52.167-20.389-52.167-55.567 0-31.382 20.705-55.533 52.167-55.533z"/>
   <path d="m327 588.58v-173.87h37.867v19.194s12.732-23.619 50.667-23.619c16.743 0 28.872 4.6267 28.872 4.6267l-8.6459 37.885s-12.89-6.1749-28.554-6.1749c-29.794 0-41.806 21.299-41.806 45.422v96.533z"/>
   <path d="m586.1 414.72h38.4v173.88h-38.4v-20.8s-15.216 25.2-54.2 25.2c-53.589 0-87.033-42.75-87.033-91.167 0-52.948 37.793-91.467 86.967-91.467 38.664 0 54.267 25.167 54.267 25.167zm-49.633 31.347c-30.265 0-52.433 22.017-52.433 55.433 0 32.902 21.687 55.667 52.433 55.667 28.215 0 52.167-20.389 52.167-55.567 0-31.382-20.705-55.533-52.167-55.533z"/>
   <path d="m642.86 414.72h41.483l51.301 134.23 51.146-134.23h40.416l-69.471 173.87h-45.132z"/>
   <path d="m921.1 410.3c-58.28 0-93.967 42.51-93.967 91.333 0 48.39 35.902 91.4 93.533 91.4 55.522 0 93.433-40.515 93.433-91.333 0-56.244-43.974-91.4-93-91.4zm-0.53333 35.733c29.266 0 54.667 21.028 54.667 55.8 0 33.084-25.086 55.5-54.567 55.5-31.785 0-54.5-23.683-54.5-55.7 0-30.021 21.975-55.6 54.4-55.6z"/>
  </g>
 </g>
</svg>
