<svg version="1.1" viewBox="0 0 800 208.88" xmlns="http://www.w3.org/2000/svg">
 <g transform="scale(3.4813)" data-name="Ebene 2">
  <path d="m205.2 31v23.4h13v-23.4h11.6v-9.8h-36.1v9.8z"/>
  <path d="m166 21.2h-14.7l12.3 16.8-12.4 16.4h13.5l6.8-8.8 6.3 8.8h14.6l-12.2-16.9 12.2-16.3h-13.5l-6.6 8.8z"/>
  <path d="m147.6 54.4v-9.2h-18.9v-4.5h14.7v-6.4h-14.7v-4.6h18.9v-8.5h-31.5v33.2z"/>
  <path d="m93.6 34.3-11.5-13.1h-11v33.2h11.9v-15.6l2.3 2.7 11.6 12.9h10.9v-33.2h-11.9v15.7z"/>
  <path d="m156.7 3.5v8.1l-0.7-0.8-6.9-7.3h-2v11h2.1v-8.1l0.7 0.7 7.1 7.4h1.7v-11z"/>
  <path d="m135.7 12.8v-3.1h6v-1.6h-6v-2.9h7.8v-1.7h-9.9v11h9.9v-1.7z"/>
  <path d="m126.3 3.5-4.3 7.5-0.5 1-0.5-1-4.3-7.5h-2.9v11h2v-8.7l0.6 1 4.5 7.7h1l4.6-7.7 0.5-1v8.7h2.1v-11z"/>
  <path d="m102.4 12.8v-3.1h6v-1.6h-6v-2.9h7.8v-1.7h-9.9v11h9.9v-1.7z"/>
  <path d="m87.7 8.5v-3.3h4.2c1.8 0 2.4 0.8 2.4 1.6 0 0.9-0.7 1.6-2.2 1.6zm8.6 4.1v-0.9c0-1.3-0.4-2.3-2.6-2.4 2.2-0.4 2.8-1.6 2.8-2.8s-1.5-3-4.8-3h-6v11h2v-4.4h3.9c2 0 2.5 0.4 2.5 1.5v1.1c0.1 1 0.3 1.8 0.9 1.8h1.8a2.3 2.3 0 0 1-0.6-1.8"/>
  <path d="m79.9 11.3c0 0.8-0.6 1.5-2.1 1.5h-4.6v-3.1h4.5c1.5 0 2.2 0.7 2.2 1.5zm-6.7-6.1h4.6c1.5 0 2.1 0.7 2.1 1.6 0 0.8-0.7 1.5-2.2 1.5h-4.5zm6.4 3.8a2.5 2.5 0 0 0 2.2-2.5c0-1.7-1.4-2.9-4.1-2.9h-6.6v11h6.6c2.7 0 4.3-1.2 4.3-3a2.6 2.6 0 0 0-2.4-2.6"/>
  <path d="m30 0a30 30 0 1 1-30 30 30 30 0 0 1 30-30m0 8a22 22 0 0 0-4 43.6v-21.6h8v21.6a22 22 0 0 0-4-43.6"/>
 </g>
</svg>
