<svg version="1.0" viewBox="0 0 773 220" xmlns="http://www.w3.org/2000/svg">
 <path d="m254.14 5.351h4.7628c2.8273 0 2.6755 1.4611 2.6755 3.9279v46.319h4.611l2.6755-6.0531c4.2125 4.592 7.7419 6.9829 14.194 6.9829 11.879 0 19.241-8.9753 19.241-20.493 0-10.664-6.7362-19.715-17.932-19.715-3.852 0-8.0645 1.2334-11.214 3.5294-0.75902 0.55028-1.3662 1.2334-2.0683 1.8406v-21.385h-16.945zm27.306 16.11c7.9696 0 11.12 7.9886 11.12 14.801 0 6.9829-2.8463 15.351-11.12 15.351-8.1974 0-11.195-7.4383-11.195-14.573 0-7.0588 2.7514-15.579 11.195-15.579" fill-rule="evenodd"/>
 <path d="m303.81 22.922h3.6812c3.6053 0 3.9089 0.2277 3.9089 3.833 0 6.6793-0.0759 13.264 0.0759 19.943 0.0759 3.1499-0.45541 3.833-3.6053 3.833h-3.9089v5.0664h25.769v-5.0664c-1.537 0-6.6604 0.37951-7.9696-0.68311-0.9298-0.77799-0.77799-2.1442-0.77799-3.2258v-11.499c0-5.7495 2.4668-14.421 9.6015-14.421h0.98671c-1.3852 1.2334-1.9924 2.0683-1.9924 3.9848 0 2.7704 2.296 4.6869 4.9905 4.6869 3.2258 0 5.2182-2.6186 5.2182-5.6736 0-4.5351-4.0038-7.2106-8.2163-7.2106-5.2182 0-7.8178 3.1309-10.588 7.1158v-5.8254h-17.173v5.1423z" fill-rule="evenodd"/>
 <path d="m378.56 37.571c-0.1518-5.37-0.5313-9.7343-3.9848-14.042-3.7571-4.7438-9.203-7.0398-15.256-7.0398-11.973 0-20.721 8.5009-20.721 20.55 0 12.277 8.9753 19.715 20.873 19.715 5.0664 0 10.114-1.3852 13.871-4.9905 3.074-2.9222 3.9279-5.5218 4.8387-9.5825h-5.5977c-1.6129 5.9772-5.0664 9.8861-11.575 9.8861-4.1556 0-7.9886-1.8406-10.361-5.2941-2.0683-2.9032-2.296-5.6736-2.3719-9.203zm-29.981-5.1423c0.37951-3.2068 0.75901-5.2182 2.9032-7.7419 2.0873-2.5237 4.5351-3.6812 7.8368-3.6812 3.3776 0 6.2808 1.3852 8.1214 4.2884 1.3852 2.2391 1.6129 4.611 1.7647 7.1347z" fill-rule="evenodd"/>
 <path d="m379.92 55.598h23.472v-5.0664h-3.6812c-2.5237 0-2.2201-1.8406-2.2201-3.9089v-12.505c0-3.3017 0.53131-5.5977 2.6755-8.1214 1.8406-2.1442 4.4592-3.7571 7.2865-3.7571 2.3909 0 4.611 0.98672 5.9203 2.9791 1.4421 2.0873 1.4421 4.1556 1.4421 6.6034v14.801c0 2.0683 0.32258 3.9089-2.296 3.9089h-3.7571v5.0664h21.632v-5.0664h-3.833c-2.5427 0-2.2201-1.8406-2.2201-3.9089v-13.567c0-5.9203 4.0607-10.968 10.19-10.968 2.296 0 4.5351 1.0626 5.9013 2.9791 1.3852 1.9165 1.4611 4.1556 1.4611 6.4516v15.104c0 2.296 0.22771 3.9089-2.4478 3.9089h-3.6812v5.0664h22.694v-5.0664h-4.2125c-2.7514 0-2.9222-1.4611-2.9222-3.9089v-15.332c0-3.3017-0.45541-7.685-2.5237-10.361-2.4478-3.2258-7.3624-4.9146-11.347-4.9146-6.0721 0-10.209 3.2258-13.966 7.5901-1.7647-3.2068-3.074-4.7438-6.5085-6.129-1.8406-0.75901-3.9279-1.0626-5.9203-1.0626-2.2201 0-4.4402 0.37951-6.5085 1.2144-3.3017 1.3093-4.7628 2.6186-7.1347 5.2182v-5.0664h-17.343v4.9146h4.1556c3.2827 0 3.833 0.45541 3.833 3.833v17.192c0 7.8178-0.62619 6.8121-8.1404 6.8121z" fill-rule="evenodd"/>
 <path d="m499.79 37.571c-0.1518-5.37-0.53131-9.7343-3.9848-14.042-3.7571-4.7438-9.203-7.0398-15.256-7.0398-11.973 0-20.721 8.5009-20.721 20.55 0 12.277 8.9753 19.715 20.873 19.715 5.0474 0 10.114-1.3852 13.871-4.9905 3.074-2.9222 3.9089-5.5218 4.8387-9.5825h-5.5977c-1.6129 5.9772-5.0664 9.8861-11.594 9.8861-4.1366 0-7.9696-1.8406-10.342-5.2941-2.0683-2.9032-2.315-5.6736-2.3909-9.203zm-29.981-5.1423c0.3795-3.2068 0.75901-5.2182 2.9032-7.7419 2.0683-2.5237 4.5351-3.6812 7.8368-3.6812 3.3586 0 6.2808 1.3852 8.1214 4.2884 1.3852 2.2391 1.6129 4.611 1.7647 7.1347z" fill-rule="evenodd"/>
 <path d="m501.16 22.922h4.4402c3.1499 0 3.2258 1.0057 3.2258 3.833 0 6.6034-0.1518 13.264 0.0759 19.867 0.0759 3.074-0.45541 3.9089-3.6053 3.9089h-4.0607v5.0664h23.472v-5.0664h-3.7571c-1.3852 0-2.6186-0.2277-2.6186-1.9165v-14.345c0-6.129 3.7761-11.803 10.361-11.803 2.3719 0 4.8387 0.91082 6.2998 2.8273 1.6888 2.1632 1.518 4.3074 1.518 6.9829v14.421c0 0.77799-0.1518 2.5427-0.53131 3.1499-0.53131 0.75901-1.2144 0.68311-2.0683 0.68311h-3.6053v5.0664h22.163v-5.0664h-3.6053c-0.83492 0-1.7647 0.0759-2.296-0.68311-0.68311-0.92979-0.53131-2.1442-0.53131-3.2258v-14.345c0-3.7571 0.0759-7.5901-2.3909-10.588-2.8273-3.4345-7.3624-4.8956-11.651-4.8956-3.9089 0-8.3681 1.2903-11.423 3.833-0.85389 0.68311-1.6129 1.537-2.3909 2.3719v-5.2182h-17.021z" fill-rule="evenodd"/>
 <path d="m376.38 146.79c-0.51233-17.609-1.7647-31.935-13.074-46.015-12.334-15.598-30.19-23.131-50.057-23.131-39.222 0-67.894 27.913-67.894 67.381 0 40.247 29.431 64.63 68.406 64.63 16.603 0 33.188-4.5351 45.503-16.338 10.076-9.5636 12.827-18.121 15.844-31.442h-18.349c-5.2751 19.62-16.603 32.448-37.97 32.448-13.586 0-26.148-6.0342-33.947-17.362-6.7932-9.5446-7.5522-18.596-7.7989-30.171zm-98.33-16.85c1.2524-10.569 2.5237-17.097 9.5636-25.389 6.7742-8.3112 14.839-12.087 25.636-12.087 11.063 0 20.626 4.5351 26.66 14.099 4.5351 7.2865 5.2752 15.085 5.7875 23.378z" fill-rule="evenodd"/>
 <path d="m386.13 205.88h77.951v-16.584h-13.586c-9.2979 0-8.2922-5.2941-8.2922-12.827v-94.554h-54.573v16.603h13.833c3.0171 0 6.0342 0 8.0455 2.5047 0.51234 0.75901 1.7647 3.2638 1.7647 4.0228v6.2808c0 21.632-0.49336 43.51 0.24668 65.142 0.26565 9.8102-1.499 12.827-11.556 12.827h-13.833z" fill-rule="evenodd"/>
 <path d="m470.59 98.767h14.592c10.304 0 10.569 3.2638 10.569 12.562 0 21.632-0.51234 43.51 0.24667 65.142 0.24668 10.057-1.518 12.827-11.822 12.827h-13.321v16.584h76.945v-16.584h-12.334c-4.5161 0-8.5389-0.75901-8.5389-6.2998v-47.021c0-20.114 12.315-38.729 33.947-38.729 7.7989 0 15.844 3.0171 20.626 9.3169 5.5218 7.0398 5.0285 14.08 5.0285 22.884v47.268c0 2.5237-0.51233 8.2922-1.7647 10.304-1.7647 2.5237-4.0228 2.277-6.7932 2.277h-11.822v16.584h72.676v-16.584h-11.822c-2.7704 0-5.7875 0.24668-7.5332-2.277-2.277-3.0171-1.7647-7.0398-1.7647-10.55v-47.021c0-12.334 0.24668-24.896-7.7989-34.706-9.2979-11.328-24.137-16.091-38.216-16.091-12.827 0-27.419 4.2694-37.476 12.562-2.7704 2.2581-5.2751 5.0285-7.7989 7.7989v-17.097h-55.825z"/>
 <path d="m747.34 93.226c-15.579-11.063-27.154-15.579-46.774-15.579-23.378 0-50.778 11.803-50.778 38.975 0 26.641 25.636 33.188 47.268 37.457 13.586 2.5237 48.027 1.2524 48.027 21.385 0 13.833-17.343 17.59-28.159 17.59-18.861 0-40.247-9.2979-48.539-27.154-1.2524-2.7704-2.5048-5.7875-3.5104-8.8046h-14.345v48.786h14.592l5.0285-13.567c10.569 8.2922 16.091 11.309 29.165 14.326 6.7932 1.518 13.586 2.5048 20.38 2.5048 24.63 0 53.302-11.803 53.302-40.474 0-16.091-8.5579-27.419-23.378-33.188-10.569-4.2884-21.879-5.2941-33.207-7.0588-9.5446-1.4991-38.975-4.2694-38.975-17.837 0-13.34 17.609-16.357 27.666-16.357 12.068 0 23.643 4.0228 33.188 11.575 7.3055 5.7875 9.8102 11.063 13.074 19.867h14.839v-42.505h-14.326z"/>
 <path d="m0 110c0-60.759 49.241-110 110-110 60.759 0 110 49.241 110 110 0 60.74-49.241 110-110 110-60.759 0-110-49.26-110-110m97.381 0.34155h25.237v82.429c40.247-6.0721 71.101-40.816 71.101-82.77 0-46.243-37.476-83.738-83.719-83.738-46.243 0-83.719 37.495-83.719 83.738 0 41.954 30.854 76.698 71.101 82.77z" fill="#97be0d"/>
</svg>
