<svg viewBox="0 0 800 277.55" xmlns="http://www.w3.org/2000/svg">
    <path d="M800 0H616.41l-31.477 236.16h183.59z" fill="#fff" stroke-width=".787"/>
    <path d="M733.35 171.95h43.754l5.666-42.652c-.944.866-1.81 1.731-2.754 2.676-7.398 6.767-22.9 19.673-46.508 38.717l-.158 1.259m62.483-140.86L800.004.085h-183.59l-31.477 236.16h183.59l2.99-22.35h-109.78l4.722-33.365 52.882-47.138c15.188-13.93 25.103-23.451 29.904-28.566 4.8-5.115 8.184-9.444 10.309-13.142 2.125-3.62 3.463-7.476 4.013-11.49.709-4.957-.314-8.892-3.147-11.803-2.755-2.833-7.083-4.329-12.827-4.329-5.981 0-12.198 1.732-18.73 5.194-6.61 3.463-14.164 8.5-22.741 15.267L682.67 51.708c10.938-8.499 19.988-14.558 27.149-18.257 7.16-3.698 14.794-6.453 22.82-8.42 8.106-1.967 16.999-2.912 26.757-2.912 12.198 0 22.82 2.125 31.792 6.375a53.707 53.707 0 0 1 4.643 2.596" fill="#e3000e" stroke-width=".787"/>
    <g fill="#003560">
        <path d="M339.565 98.924H306.12V70.2h33.445c7.79 0 14.322 6.61 14.322 14.323.079 7.87-6.532 14.4-14.322 14.4m90.891-14.322c0-34.153-28.015-62.168-62.168-62.168H229.55v191.305h76.57v-91.206l38.245 91.206h81.29l-30.69-73.107c20.933-10.072 35.491-31.398 35.491-56.03M110.014 165.892H76.57V137.17h33.445c7.79 0 14.323 6.532 14.323 14.322s-6.532 14.401-14.323 14.401M76.57 70.28h28.724c7.79 0 14.322 6.532 14.322 14.322s-6.61 14.323-14.322 14.323H76.569zm99.784 41.708c14.637-8.184 24.553-23.844 24.553-41.708 0-26.284-21.484-47.846-47.846-47.846H0V213.66h157.781c28.96 0 52.647-23.687 52.647-52.568 0-22.428-14.244-41.63-34.075-49.105M633.565 98.924H529.06V79.8h107.024l7.712-57.368H452.569v191.305h76.49v-57.446h96.873z"/>
    </g>
    <g fill="#e3000e">
        <path d="M22.979 276.85l-8.027-14.479H8.656v14.48H0v-40.685h19.044c8.499 0 13.693 5.509 13.693 13.142 0 7.161-4.565 11.017-8.971 12.04l9.207 15.503h-9.994m.865-27.622c0-3.384-2.597-5.43-6.06-5.43H8.657v10.939h9.129c3.384.078 6.06-2.046 6.06-5.509M71.375 276.85l-2.596-6.924H51.387l-2.597 6.925h-9.836l15.66-40.685h10.86l15.66 40.685h-9.759m-11.331-32.029l-6.375 17.47h12.67l-6.295-17.47M88.059 276.85v-40.684h16.053c12.749 0 21.562 8.105 21.562 20.303 0 12.276-8.813 20.382-21.483 20.382H88.059m28.802-20.382c0-7.161-4.407-12.67-12.67-12.67h-7.476v25.418h7.397c8.027 0 12.749-5.823 12.749-12.748M135.039 276.85v-40.684h8.656v40.685h-8.656M152.902 256.548c0-12.277 8.972-21.012 21.248-21.012s21.247 8.814 21.247 21.012c0 12.276-8.97 21.011-21.247 21.011s-21.248-8.735-21.248-21.011m33.603 0c0-7.634-4.8-13.378-12.276-13.378-7.555 0-12.355 5.744-12.355 13.378 0 7.554 4.8 13.378 12.355 13.378 7.475 0 12.276-5.824 12.276-13.378"/>
    </g>
</svg>
