<?xml version="1.0" encoding="UTF-8" standalone="no"?>
<svg xmlns:rdf="http://www.w3.org/1999/02/22-rdf-syntax-ns#" xmlns="http://www.w3.org/2000/svg" height="140.65" width="600" version="1.1" xmlns:cc="http://creativecommons.org/ns#" xmlns:dc="http://purl.org/dc/elements/1.1/" viewBox="0 0 158.75 37.214118">
 <g transform="translate(-30.238 -95.452)" fill="#fff">
  <path d="m34.396 107.99v-3.75h1.212c1.737 0 2.708 0.71 2.708 2.01 0 1.11-0.883 1.8-2.325 1.8h-0.383c-0.278 0-0.549 0-0.795-0.03-0.085-0.01-0.245-0.01-0.417-0.03m0-9.616c0.386-0.042 0.869-0.068 1.072-0.068 1.425 0 2.254 0.677 2.254 1.864 0 0.76-0.777 1.66-1.414 1.66h-1.912zm4.798 11.916c2.043-0.59 3.183-2.01 3.183-3.9 0-1.82-1.015-3.16-2.849-3.67 1.463-0.77 2.077-1.69 2.077-3.088 0-2.583-2.174-3.998-6.137-3.998-1.532 0-2.581 0.063-4.895 0.343v14.373c2.129 0.31 3.212 0.37 4.926 0.37 1.426 0 2.817-0.14 3.695-0.43"/>
  <path d="m58.299 102.79h-1.968v-4.059c0.677-0.049 0.777-0.049 1.182-0.049 1.518 0 2.446 0.783 2.446 2.048 0 1.08-0.794 2.06-1.66 2.06m7.109 7.76-3.963-6.31c1.615-0.84 2.395-2.08 2.395-3.8 0-3.178-2.358-4.807-6.912-4.807-0.877 0-2.398 0.063-3.646 0.175-0.2 0.031-0.529 0.077-0.937 0.105v14.637h3.986v-5.06h1.637l2.84 5.06z"/>
  <path d="m74.875 110.55h3.981v-14.713h-3.981z"/>
  <path d="m88.684 99.119h4.2v11.431h3.992v-11.431h4.194v-3.28h-12.386z"/>
  <path d="m114.86 95.837h-3.97v14.703h3.97z"/>
  <path d="m131.24 101.44c-1.32-0.68-1.65-1.02-1.61-1.716 0.05-0.674 0.68-1.166 1.45-1.166 0.96 0 1.81 0.329 3.18 1.229l0.87-3.02c-1.97-1.035-3.06-1.315-4.87-1.315-1.01 0-2.26 0.355-3.09 0.826-1.28 0.803-2.02 2.095-2.02 3.56 0 1.802 0.78 3.002 2.63 4.002 0.26 0.12 0.82 0.42 1.59 0.84 1.13 0.58 1.52 0.99 1.52 1.62 0 0.95-0.76 1.53-1.84 1.44-1.33-0.1-2.65-0.74-4.04-1.95l-0.41 3.53c1.79 1.1 3.48 1.61 5.32 1.61 3.3 0 5.62-1.93 5.62-4.67 0-1.17-0.52-2.33-1.35-3.05-0.59-0.49-1.51-1.03-2.95-1.77"/>
  <path d="m149.52 104.57h5.45v5.98h3.98v-14.712h-3.98v5.622h-5.45v-5.622h-4.01v14.712h4.01z"/>
  <path d="m43.353 117.71-3.874 8.98-3.872-8.98h-3.174l-2.195 14.57h3.309l0.986-7.75 3.369 7.75h2.497l3.377-7.81 0.955 7.81h3.937l-2.166-14.57z"/>
  <path d="m68.849 126.24c0 0.99-0.137 1.66-0.391 2.08-0.412 0.69-1.203 1.1-2.203 1.1-0.88 0-1.566-0.24-2.06-0.65-0.572-0.52-0.783-1.19-0.783-2.53v-8.53h-3.964v8.53c0 1.88 0.275 3.16 0.823 4.07 0.983 1.52 3.003 2.36 5.769 2.36 2.006 0 3.964-0.57 5.026-1.49 1.223-1.02 1.735-2.41 1.735-4.75v-8.72h-3.952z"/>
  <path d="m90.174 123.27c-1.309-0.67-1.64-1.03-1.614-1.72 0.063-0.66 0.688-1.15 1.457-1.15 0.926 0 1.772 0.33 3.132 1.21l0.874-3c-1.963-1.03-3.026-1.3-4.832-1.3-0.994 0-2.24 0.36-3.054 0.84-1.272 0.76-2 2.07-2 3.51 0 1.8 0.765 2.98 2.6 3.98 0.257 0.13 0.82 0.42 1.577 0.81 1.123 0.6 1.512 1 1.512 1.63 0 0.93-0.758 1.52-1.826 1.42-1.335-0.1-2.635-0.73-3.998-1.92l-0.425 3.48c1.774 1.11 3.443 1.61 5.288 1.61 3.269 0 5.547-1.9 5.547-4.64 0-1.14-0.5-2.31-1.335-3.02-0.571-0.48-1.471-1-2.903-1.74"/>
  <path d="m109.39 117.71h-3.95v14.57h9.56l0.41-3.32h-6.02z"/>
  <path d="m126.16 132.28h3.97v-14.57h-3.97z"/>
  <path d="m154.03 117.71-3.88 8.98-3.86-8.98h-3.18l-2.2 14.57h3.32l0.96-7.75 3.4 7.75h2.49l3.39-7.81 0.94 7.81h3.94l-2.17-14.57z"/>
  <path d="m556.3 27.385c-24.1 0-43.62 19.526-43.62 43.576 0 24.201 19.52 43.739 43.62 43.739 24.15 0 43.7-19.538 43.7-43.739 0-24.05-19.55-43.576-43.7-43.576zm20.55 28.521l7.57 1.264-12.33 29.008h-6.23l-9.83-23.09h-11.19v23.09h-8.09v-23.133h-8.47v-2.387-4.211h24.99 8.76l7.24 17.926 7.58-18.467z" transform="matrix(.26458 0 0 .26458 30.238 95.452)"/>
 </g>
</svg>
