<svg width="800mm" height="532.89mm" version="1.1" viewBox="0 0 800 532.89" xmlns="http://www.w3.org/2000/svg">
 <g transform="translate(21.25 -134.36)">
  <path transform="matrix(54.72 0 0 54.72 -9658.5 -13136)" d="m180.12 252.2h-1.37v-2.389h0.593v1.866h0.777z" fill="#c90119"/>
  <path d="m306.25 664.45-8.0711-22.835h-50.495l-8.3228 22.835h-32.678l48.531-130.71h38.43l48.279 130.71zm-27.163-77.155c-2.2763-6.0246-4.8263-13.57-6.2927-19.365h-0.26818c-1.4883 5.7948-3.513 12.586-5.7729 18.648l-11.54 31.639h35.152z" fill="#c90119" stroke-width="2.6375" data-darkreader-inline-fill=""/>
  <path d="m386.19 667.24c-8.2846 0-18.38-1.2585-25.62-3.0533l1.2148-28.646c7.5513 3.0478 17.373 4.8043 27.666 4.8043 10.807 0 19.863-5.0342 19.863-14.84 0-19.869-52.586-8.788-52.586-51.524 0-25.658 19.404-42.741 55.343-42.741 7.0643 0 16.602 0.98487 23.902 2.0082l-1.0068 27.141c-7.0643-2.0082-16.602-3.2613-24.131-3.2613-13.817 0-19.59 5.2696-19.59 13.319 0 18.61 53.549 10.812 53.549 51.004 0 27.431-22.14 45.789-58.605 45.789z" fill="#c90119" stroke-width="2.6375" data-darkreader-inline-fill=""/>
  <path d="m497.38 667.24c-8.3174 0-18.337-1.2585-25.636-3.0533l1.2531-28.646c7.5294 3.0478 17.357 4.8043 27.644 4.8043 10.829 0 19.863-5.0342 19.863-14.84 0-19.869-52.542-8.788-52.542-51.524 0-25.658 19.36-42.741 55.305-42.741 7.0424 0 16.602 0.98487 23.88 2.0082l-0.96853 27.141c-7.0643-2.0082-16.618-3.2613-24.17-3.2613-13.817 0-19.628 5.2696-19.628 13.319 0 18.61 53.565 10.812 53.565 51.004 0 27.431-22.101 45.789-58.566 45.789z" fill="#c90119" stroke-width="2.6375" data-darkreader-inline-fill=""/>
  <path transform="matrix(54.72 0 0 54.72 -9658.5 -13136)" d="m187.24 252.2v-2.389h0.593v2.389z" fill="#c90119"/>
  <path transform="matrix(54.72 0 0 54.72 -9658.5 -13136)" d="m189.96 252.2-0.786-1.084v1.084h-0.592v-2.389h0.592v1.025l0.786-1.025h0.726l-0.919 1.149 0.974 1.24z" fill="#c90119"/>
  <path transform="matrix(54.72 0 0 54.72 -9658.5 -13136)" d="m177.5 252.2-0.786-1.084v1.084h-0.592v-2.389h0.592v1.025l0.786-1.025h0.726l-0.919 1.149 0.974 1.24z" fill="#c90119"/>
  <path d="m255.52 440.21h-40.153v-260.82c0.51984 0 18.03-0.54128 28.919-0.21332 48.334 1.5048 68.525 20.832 69.22 52.7 0.42684 19.343-3.2996 38.145-22.2 53.242-15.847 12.585-40.131 15.19-40.131 15.19v8.3994s31.409 4.0329 46.889 11.984c29.133 14.96 38.358 35.059 38.358 62.627 0 41.926-41.811 56.886-80.903 56.886zm71.869-141.58c27.584-16.328 44.553-41.461 44.553-77.231 0-45.078-28.646-86.331-123.68-86.331-46.003 0-90.424 0.5034-90.424 0.5034v353.98h81.116c103.12 0 157.6-38.03 157.6-109.95 0-42.796-26.851-71.135-69.165-80.963z" stroke-width="2.6375" data-darkreader-inline-fill=""/>
  <path d="m486.16 316.33c44.919-15.633 70.457-49.051 70.96-93.872 0.17514-12.027-4.6512-40.23-26.599-58.955-14.517-12.378-38.648-27.431-106.29-29.094-14.014-0.34491-55.464 1.2203-55.464 1.2203s-0.0159 2.3311 0.13686 2.4898c12.044 9.3242 24.788 24.284 30.966 41.849 6.4843-0.22928 16.252-0.77155 25.904-0.22928 27.179 1.4282 40.613 5.9807 52.876 15.633 12.274 9.6744 18.703 26.254 18.818 41.313 0.17515 22.276-10.501 43.546-40.17 55.65-24.033 9.7674-53.975 10.736-53.975 10.736v7.4692s17.395 8.3009 34.769 31.272c14.977 19.803 101.83 147.67 101.83 147.67h71.808s-117.08-161.88-125.57-173.15z" stroke-width="2.6375" data-darkreader-inline-fill=""/>
 </g>
</svg>
