<svg width="163.15mm" height="52.917mm" version="1.1" viewBox="0 0 163.15 52.917" xmlns="http://www.w3.org/2000/svg">
 <defs>
  <linearGradient id="a" x1="149.87" x2="171.6" y1="155.46" y2="177.88" gradientTransform="matrix(1.7206 0 0 1.7206 -95.733 -199.79)" gradientUnits="userSpaceOnUse">
   <stop stop-color="#00729c" offset="0"/>
   <stop stop-color="#3e87aa" offset="1"/>
  </linearGradient>
 </defs>
 <g transform="translate(-51.474 -67.28)">
  <path d="m188.38 120.2c-14.54 0-26.913-11.721-26.245-26.245 0 0-0.51519-26.932 0-26.245h26.245c14.54 0 26.245 11.705 26.245 26.245s-11.705 26.245-26.245 26.245z" fill="url(#a)" opacity=".995" stroke-width="29.543"/>
  <path class="cls-66" d="m69.973 75.131a18.396 18.215 0 0 0-10.57 3.2862v-11.134h-7.9294v26.184a18.499 18.317 0 1 0 18.499-18.317m34.194 3.4722v-3.4722h-7.9256v37.002a26.41 26.149 0 0 0 7.9256 5.3125v-24.172a10.566 10.462 0 0 1 17.177-8.0069v-8.7886a18.396 18.215 0 0 0-17.181 2.1062zm52.605 28.081a34.086 33.75 0 0 1-1.8511-5.6919 10.57 10.466 0 0 1-17.879-7.5591v-10.47h17.028v-7.8512h-17.028v-7.8513h-7.9256v26.183a18.503 18.321 0 0 0 28.633 15.323q-0.52506-1.0321-0.97729-2.0946zm-86.798-2.9332a10.413 10.31 0 1 1 10.409-10.31 10.424 10.322 0 0 1-10.409 10.299z" fill="#656565" stroke-width=".38135" Googl="true"/>
  <path d="m204.59 73.786s9.6682 5.1677 9.8051 20.152c0 0 0.51519 26.932 0 26.245h-26.245c-12.815 0-17.853-7.2758-17.853-7.2758-0.0275-12.309 17.922-36.791 34.293-39.122z" fill="#00729c" opacity=".995" stroke-width="29.543"/>
  <g transform="matrix(1.7696 0 0 1.673 51.474 64.874)" fill="#fff" stroke-width=".70498" aria-label="3">
   <path d="m74.572 12.993-5.3011-0.95006q0.66091-2.5335 2.5335-3.8829 1.8864-1.3494 5.3286-1.3494 3.9517 0 5.7141 1.4733t1.7624 3.7039q0 1.3081-0.71599 2.3683t-2.1617 1.8588q1.1704 0.28915 1.79 0.67468 1.0051 0.6196 1.5559 1.6385 0.56453 1.0051 0.56453 2.4096 0 1.7624-0.92252 3.3872-0.92252 1.611-2.6574 2.4922-1.7349 0.86745-4.5575 0.86745-2.7538 0-4.351-0.64714-1.5834-0.64714-2.6161-1.8864-1.0189-1.253-1.5697-3.1393l5.604-0.74353q0.33046 1.6936 1.0189 2.3545 0.70222 0.64714 1.7762 0.64714 1.1291 0 1.8726-0.82614 0.7573-0.82614 0.7573-2.203 0-1.4044-0.72976-2.1755-0.71599-0.77106-1.9552-0.77106-0.66091 0-1.8175 0.33046l0.28915-4.0068q0.46815 0.06885 0.72976 0.06885 1.1015 0 1.8313-0.70222 0.74352-0.70222 0.74352-1.666 0-0.92252-0.55076-1.4733-0.55076-0.55076-1.5146-0.55076-0.99137 0-1.611 0.60584-0.6196 0.59207-0.83991 2.0929z" fill="#fff" stroke-width=".70498"/>
  </g>
 </g>
</svg>
