<svg version="1.0" viewBox="0 0 800 176.72" xmlns="http://www.w3.org/2000/svg">
 <g transform="translate(-420.06 -317.85)">
  <g transform="matrix(25.885 0 0 -25.885 -9843.2 11266)" clip-path="url(#id947)">
   <g transform="translate(427.07 416.37)">
    <path d="m0 0c-0.031 0.022-3.071 2.256-4.455 4.116-0.551 0.741-0.695 1.285-0.693 1.654 4e-3 0.406 0.246 0.813 0.246 0.813l-2.76 1e-3s-0.569-0.173-1.289-0.775h-20.808c-0.449 0-0.815-0.349-0.815-0.777v-3.01c0-0.429 0.366-0.778 0.815-0.778h17.924c-0.203-0.787-0.203-1.318-0.202-1.354l1e-3 -0.133h12.368z" fill="#fff"/>
   </g>
   <g transform="translate(407.48 420.33)">
    <path d="m0 0c0 0.171-0.134 0.261-0.355 0.261-0.066 0-0.117 0-0.168-7e-3v-0.544c0.055-4e-3 0.12-8e-3 0.182-8e-3 0.207 0 0.341 0.12 0.341 0.298" fill="#105c99"/>
   </g>
   <g transform="translate(414.43 420.33)">
    <path d="m0 0c0 0.171-0.134 0.261-0.356 0.261-0.065 0-0.116 0-0.167-7e-3v-0.544c0.055-4e-3 0.12-8e-3 0.182-8e-3 0.207 0 0.341 0.12 0.341 0.298" fill="#105c99"/>
   </g>
   <g transform="translate(414.47 418.99)">
    <path d="m0 0-0.541 0.777h-0.018v-0.777h-0.392v1.887c0.138 7e-3 0.385 0.011 0.617 0.011 0.45 0 0.711-0.174 0.711-0.523 0-0.308-0.214-0.493-0.515-0.54 0.044-0.051 0.094-0.124 0.152-0.203l0.469-0.632zm-1.476 0h-0.392v0.799h-0.731v-0.799h-0.392v1.887h0.392v-0.751h0.731v0.751h0.392zm-1.947 1.579h-0.718v-0.461h0.685v-0.298h-0.685v-0.508h0.718v-0.312h-1.11v1.887h1.11zm-1.819-1.579-0.591 0.886v-0.886h-0.392v1.887h0.392v-0.842l0.588 0.842h0.482l-0.664-0.907 0.704-0.98zm-1.707 0-0.541 0.777h-0.018v-0.777h-0.392v1.887c0.138 7e-3 0.385 0.011 0.617 0.011 0.45 0 0.711-0.174 0.711-0.523 0-0.308-0.214-0.493-0.515-0.54 0.044-0.051 0.094-0.124 0.152-0.203l0.469-0.632zm-1.382 1.579h-0.719v-0.461h0.686v-0.298h-0.686v-0.508h0.719v-0.312h-1.111v1.887h1.111zm-2.021-1.579h-0.457l-0.723 1.887h0.432l0.367-0.973c0.058-0.152 0.109-0.319 0.156-0.493h3e-3c0.048 0.171 0.102 0.341 0.157 0.486l0.377 0.98h0.406zm-2.326 2.896v-3.98h13.526c0.13 0.429 0.318 0.916 0.592 1.43 0.63 1.184 1.3 1.997 1.883 2.55z" fill="#105c99"/>
   </g>
   <g transform="translate(398.63 419.87)">
    <path d="m0 0c-0.122 0.057-0.361 0.093-0.361 0.093v0.064s0.173 0.026 0.297 0.112c0.151 0.105 0.196 0.248 0.192 0.396-5e-3 0.245-0.197 0.424-0.542 0.424-0.084 0-0.218-2e-3 -0.223-2e-3v-2.007h0.31c0.3 0 0.624 0.103 0.622 0.438-2e-3 0.212-0.069 0.377-0.295 0.482" fill="#105c99"/>
   </g>
   <g transform="translate(400.47 418.57)">
    <path d="m0 0s-0.669 0.984-0.784 1.137c-0.134 0.177-0.267 0.241-0.267 0.241v0.057s0.223 0.017 0.408 0.092c0.229 0.093 0.303 0.257 0.304 0.415 0 0.116-0.05 0.243-0.145 0.318-0.094 0.074-0.185 0.113-0.395 0.124-0.074 4e-3 -0.149 0-0.199-1e-3 -0.047 0.134-0.147 0.251-0.239 0.322v0.019s0.327 0.012 0.434 9e-3c0.521-0.013 0.683-0.125 0.794-0.22 0.169-0.144 0.216-0.368 0.216-0.46 0-0.367-0.222-0.615-0.532-0.722 0.065-0.087 0.957-1.331 0.957-1.331zm-2.301 0h-0.623v2.724s0.393 0.013 0.747 0.013c0.731 0 0.906-0.389 0.906-0.683 0-0.275-0.137-0.459-0.349-0.585 0.326-0.076 0.533-0.293 0.533-0.623 0-0.554-0.42-0.846-1.214-0.846m-0.862 3.317c-0.288 0-0.522-0.218-0.522-0.485v-3.009c0-0.268 0.234-0.486 0.522-0.486h4.194v3.98z" fill="#105c99"/>
   </g>
   <g transform="translate(419.75 422.05)">
    <path d="m0 0h0.458c-0.297-0.433-0.533-1.019-0.48-1.819l3e-3 -0.036h-0.681c0.044 0.786 0.355 1.397 0.7 1.855m-0.697-2.411h0.757c0.277-1.366 1.127-2.719 1.482-3.241h5.293c-0.828 0.634-3.052 2.401-4.189 3.93-0.581 0.781-0.745 1.378-0.745 1.803 0 0.26 0.062 0.454 0.127 0.588h-0.962c-0.1-0.082-0.248-0.217-0.405-0.407h-0.442c0.155 0.179 0.298 0.315 0.403 0.407h-0.903c-0.178-0.068-1.874-0.775-3.328-3.506-0.698-1.311-0.817-2.448-0.838-2.815h4.702c-0.279 0.513-0.859 1.757-0.952 3.241" fill="#00aaa7"/>
   </g>
  </g>
 </g>
</svg>
