<svg width="729.06" height="300" version="1.1" viewBox="0 0 192.9 79.375" xmlns="http://www.w3.org/2000/svg">
 <g transform="translate(165.25 -126.83)" fill="#7509b7">
  <g transform="matrix(.079454 0 0 .079454 -149.43 115.68)">
   <path d="m300.48 140.34c-275.87 0-499.48 223.62-499.48 499.48 0 275.87 223.62 499.52 499.48 499.52 275.87 0 499.52-223.65 499.52-499.52-3e-5 -275.87-223.65-499.48-499.52-499.48zm-0.22932 61.588c242.15 0 438.45 196.3 438.45 438.45 0 242.15-196.3 438.45-438.45 438.45-242.15 0-438.45-196.3-438.45-438.45s196.3-438.45 438.45-438.45z"/>
   <path d="m51.544 469.09v340.08h138.38c62.892 0 111.22-39.267 111.22-101.46 0-54.85-42.817-75.773-42.817-75.773s32.858-20.984 32.858-67.648c0-54.204-42.794-95.199-105.91-95.199zm76.526 66.469h40.884c29.057 0 41.736 14.936 41.736 33.382 0 20.025-14.355 32.661-39.803 32.661h-42.817zm0 134.18h40.884c29.057 0 41.736 14.936 41.736 33.382 0 20.025-14.355 32.661-39.803 32.661h-42.817z"/>
   <path d="m403.77 808.1v-261.03h-76.526v-78.623h237.96v78.623h-79.671v261.03z"/>
  </g>
  <path d="m-78.098 173.4v5.8219s3.5626 1.4279 7.8248 1.4279c6.1609 0 10.144-2.7456 10.144-8.6297 0-8.0771-11.062-7.9021-11.062-11.619 0-1.3077 1.0815-1.9371 3.3869-1.9371 3.0242 0 6.2621 1.3816 6.2621 1.3816v-5.9128s-2.6561-1.1895-6.7619-1.1895c-4.9343 0-9.8811 2.356-9.8811 8.0548 0 8.5773 10.998 7.6501 10.998 11.896 0 1.678-1.1571 2.3066-3.6305 2.3066-3.5723 0-7.2806-1.6008-7.2806-1.6008z"/>
  <path d="m-57.084 153.07v27.063h6.7315v-8.8238h1.3028c7.2502 0 10.165-4.1224 10.165-9.3061 0-6.3359-4.5742-8.9327-9.3753-8.9327zm6.7315 5.458h1.1826c1.8442 0 3.7328 0.54471 3.7328 3.5292 0 2.7801-1.474 3.7936-3.7328 3.7936h-1.1826z"/>
  <path d="m-25.821 152.75c-6.2933 0-10.778 4.5391-10.778 13.958 0 7.9867 2.7416 13.881 10.705 13.881 7.3929 0 10.701-6.3981 10.701-14.007 0-10.015-4.5833-13.832-10.628-13.832zm-0.0034 5.7851c3.2405 0 3.7675 3.9796 3.7675 8.1667 0 4.3997-0.75153 8.1724-3.8593 8.1724-3.4805 0-3.7963-4.8682-3.7963-8.2817 0-3.8651 0.58752-8.0575 3.8881-8.0575z"/>
  <path d="m6.2111 161.73c0-5.6833-3.9015-8.657-9.3523-8.657h-8.8238v27.063h6.7315v-9.5515h1.0904l5.1863 9.5515h7.1864l-6.5577-11.056c2.5012-1.1097 4.5392-3.3863 4.5392-7.3499zm-11.445-3.199h1.1826c1.8442 0 3.7328 0.71595 3.7328 3.3099 0 2.2862-1.4741 3.372-3.7328 3.3875h-1.1826z"/>
  <path d="m14.688 180.13v-21.65h-6.2312v-5.4125h19.194v5.4125h-6.2312v21.65z"/>
 </g>
</svg>
