<?xml version="1.0" encoding="UTF-8"?>
<svg id="Layer_1" width="2057.8" height="200" data-name="Layer 1" version="1.1" viewBox="0 0 2057.8 200" xmlns="http://www.w3.org/2000/svg" xmlns:cc="http://creativecommons.org/ns#" xmlns:dc="http://purl.org/dc/elements/1.1/" xmlns:rdf="http://www.w3.org/1999/02/22-rdf-syntax-ns#">
 <metadata id="metadata139">
  <rdf:RDF>
   <cc:Work rdf:about="">
    <dc:format>image/svg+xml</dc:format>
    <dc:type rdf:resource="http://purl.org/dc/dcmitype/StillImage"/>
   </cc:Work>
  </rdf:RDF>
 </metadata>
 <path id="path104" d="m100 8.0146e-5c-55.228 0-100 44.77-100 99.998s44.772 100 100 100h1858.2c55.236-0.23314 99.82-45.206 99.576-100.44-0.2437-55.236-45.223-99.811-100.46-99.557h-1857.3zm852.01 15.998h1004.4c46.398-0.2134 84.18 37.231 84.385 83.629 0.2047 46.398-37.247 84.175-83.644 84.371h-1005.1c-46.397 7e-3 -84.012-37.603-84.012-84s37.615-84.007 84.012-84zm-511.72 14.883c15.364-0.304 30.384 4.5647 42.648 13.824 0.83109 0.61045 1.0824 1.7416 0.58789 2.6465l-11.471 16.471c-0.33847 0.4942-0.87538 0.8165-1.4707 0.88281h-1.1758c-11.471-9.4117-20.59-11.764-29.119-10.588-8.5294 1.1765-15.293 5.5871-15.293 10.293s5.588 10.883 25.588 15.883c27.059 7.0588 37.646 17.059 37.646 35.588s-16.471 37.059-43.529 37.059c-17.847 0.0661-35.142-6.1848-48.822-17.646-0.8816-0.60955-1.0207-1.8578-0.29492-2.6465l12.941-15.59 1.4707-0.58789h1.1758c11.471 9.1176 22.06 13.236 33.824 13.236 11.765 0 17.059-4.4131 17.059-11.178 0-6.7647-3.5302-10.293-23.824-15.293-26.176-6.7647-39.41-14.117-39.41-36.176s16.763-36.178 41.469-36.178zm345.79 6.1777c0.0306-7.96e-4 0.0612-7.96e-4 0.0918 0h22.059c1.1377-9.95e-4 2.0605 0.92093 2.0606 2.0586v21.176h19.41c1.0212 0.14688 1.776 1.0269 1.7656 2.0586v18.236c0.0104 1.0317-0.74439 1.9117-1.7656 2.0586h-19.41v38.529c0 6.1764 2.6462 8.8223 8.2344 8.8223 3.4338-0.0454 6.8275-0.74406 10-2.0586h1.7637c0.49421 0.33847 0.81651 0.87539 0.88282 1.4707v16.471c0.0248 0.69978-0.30777 1.3642-0.88282 1.7637-5.9387 3.261-12.637 4.8854-19.41 4.707v0.29296c-17.941 0-26.471-8.8222-26.471-27.352v-42.941h-8.8242c-1.1369-1.1e-4 -2.0585-0.92171-2.0586-2.0586v-17.941c1.1e-4 -1.1369 0.92171-2.0585 2.0586-2.0586h8.8242v-21.176c-0.17819-1.0501 0.60753-2.0176 1.6719-2.0586zm-656.96 10.881h75.293c34.706 0 38.529 34.706 19.117 46.471 29.706 10.588 23.236 57.059-28.822 57.059h-65.588c-5.7825-0.15422-10.434-4.8055-10.588-10.588v-82.059c-3e-3 -5.8974 4.6928-10.724 10.588-10.883zm117.23 0.29102c0.041 1e-3 0.082 0.0023 0.12305 0.0039h108.53c0.041-0.0016 0.082-0.0029 0.12304-0.0039 4.9384-0.11083 9.1222 3.615 9.582 8.5332-0.59777 4.8961-4.7727 8.5653-9.7051 8.5293h-34.412v75.588c0 5.8476-4.7404 10.588-10.588 10.588h-16.764c-5.7825-0.15422-10.434-4.8055-10.588-10.588v-75.588h-36.178c-4.9324 0.036-9.1073-3.6332-9.7051-8.5293 0.45983-4.9182 4.6436-8.644 9.582-8.5332zm405.71 10.297c27.647 0 49.119 20.294 49.119 47.059s-21.765 47.648-49.412 47.648h-0.29492c-27.941 0-48.822-20.294-48.822-47.059s21.763-47.648 49.41-47.648zm-99.705 0.58984c20.588 0 41.471 16.176 41.471 47.059 0 30.882-21.471 47.352-41.471 47.352-11.027 0.2329-21.507-4.7892-28.234-13.529v36.766c0 1.1371-0.92154 2.0586-2.0586 2.0586h-21.766c-1.137 0-2.0586-0.92154-2.0586-2.0586v-114.12c0-1.1371 0.92155-2.0586 2.0586-2.0586h21.766c1.137-4e-6 2.0586 0.92154 2.0586 2.0586v11.176c6.299-9.3839 16.934-14.923 28.234-14.705zm181.53 1.4453c0.96156 0.03136 1.7208 0.82713 1.707 1.7891v16.471c5.8823-13.529 14.412-18.234 27.059-18.234l1.1777 0.58789c0.41731 0.36982 0.63528 0.91512 0.58789 1.4707v21.471c0.0104 1.0317-0.74439 1.9117-1.7656 2.0586-17.647 0.29412-27.059 11.176-27.059 32.059v31.176c-1.1e-4 1.1369-0.92171 2.0585-2.0586 2.0586v-0.29297h-21.764c-1.0219-0.14697-1.777-1.0281-1.7656-2.0605v-86.764c5.5e-4 -0.97458 0.79102-1.7642 1.7656-1.7637h21.764c0.11605-0.02018 0.23382-0.02868 0.35156-0.02539zm-575.94 3.5547v25h37.354c25 0 25.882-25 2.9414-25h-40.295zm495 16.742c-0.39096-0.0043-0.78447 0.0031-1.1797 0.02148-13.529 0-23.529 10.293-23.529 24.705 0 14.412 10.587 25.295 23.822 25.295 13.545 0.19864 24.388-11.186 23.529-24.705-0.56984-14.246-10.523-25.182-22.643-25.316zm-104.71 0.29102c-0.39096-4e-3 -0.78447 3e-3 -1.1797 0.02148-13.529 0-23.529 10.293-23.529 24.705 0 14.412 10.587 25.295 23.822 25.295 13.545 0.1987 24.388-11.186 23.529-24.705-0.56984-14.246-10.523-25.182-22.643-25.316zm-390.3 24.436v28.529h32.648c32.941 0 32.646-28.529 9.1172-28.529h-41.766z" stroke-width="2.9412"/>
 <g id="g870" transform="matrix(1.0012 0 0 1.0012 902.47 43.927)">
  <path id="path2" d="m153.52 5.73c14.67-2.24 30.46 1.16 42.15 10.52 10.13 7.93 16.86 19.99 18.33 32.76 2.27 15.91-3.43 32.78-15.19 43.79-19.13 18.28-52.14 18.9-72.02 1.48-12.31-10.52-18.49-27.33-16.73-43.34 1.13-12.87 7.5-25.21 17.39-33.54 7.37-6.24 16.53-10.27 26.07-11.67m3.95 19.86c-7.15 1.04-13.86 4.87-18.27 10.61-10.35 13.04-8.23 34.37 5.2 44.52 11.16 8.88 28.84 7.8 38.66-2.61 11.1-11.36 11.33-31.21 0.83-43.03-6.41-7.42-16.77-11.03-26.42-9.49z"/>
  <path id="path4" d="m393.4 5.58c14.38-1.93 29.73 1.58 41.13 10.76 10.31 8.09 17.02 20.49 18.32 33.52 2 15.84-3.88 32.51-15.69 43.32-18.66 17.39-50.05 18.39-69.92 2.49-10.08-7.92-16.75-19.94-18.25-32.66-1.94-14.04 2.14-28.86 11.33-39.7 8.23-9.86 20.38-16.17 33.08-17.73m4.83 19.77c-8.28 0.64-16.23 4.98-21.01 11.81-9.39 12.94-7.25 33.08 5.4 43.14 10.8 9.01 28.2 8.51 38.31-1.34 11.71-10.95 12.47-31 2.29-43.21-5.94-7.32-15.63-11.22-24.99-10.4z"/>
  <path id="path6" d="m685.16 25.03c8.27-11.42 21.82-18.49 35.78-19.68 11.65-0.99 23.93 0.67 34.08 6.79 3.82 2.21 7.1 5.19 10.42 8.08l-14.06 16.2c-5.47-4.99-11.9-9.33-19.33-10.61-9.54-2-20.07 1.34-26.41 8.82-11.13 12.59-10.05 33.99 2.49 45.24 6.89 6.3 17.01 8.24 25.95 6 7.03-1.54 12.89-6.04 18.1-10.8l13.69 14.04c-6.62 8.29-16.45 14.32-26.94 16.5-11.45 2.34-23.73 1.73-34.49-3.05-13.15-5.78-23.45-17.63-27.26-31.49-4.32-15.47-1.87-33.13 7.98-46.04z"/>
  <path id="path8" d="m18.515 105.24v-98.49h46.425c9.27 0.12 19.29 2.43 25.81 9.48 6.25 6.57 7.41 16.72 4.59 25.09-1.89 5.44-6.28 9.52-11.12 12.4 6.68 2.7 13.5 6.87 16.2 13.91 3.59 9.64 2.19 21.95-5.89 28.96-7.51 6.58-17.88 8.39-27.56 8.65h-48.455m21.245-79.23v20.48h20.2c4.02-0.14 8.37-0.55 11.69-3.04 3.85-2.9 4.43-8.94 1.77-12.81-2.58-3.56-7.26-4.5-11.4-4.63h-22.26m0 38.735v21.26h25.27c3.92-0.03 8.1-0.345 11.45-2.595 5.36-3.38 5.44-12.52 0.08-15.94-3.39-2.2-7.54-2.745-11.51-2.725z"/>
  <path id="path10" d="m213.19 6.76h25.63l20.145 31.69 21.045-31.69h24.9l-32.86 48.245 34.26 50.235h-25.62l-21.725-33.46-22.185 33.46h-25l34.31-50.235z"/>
  <path id="path12" d="m465.33 6.76h74.91v19.995h-53.24v20.49h46.75v19.995h-46.75v38.065h-21.67z"/>
  <path id="path12-7" d="m551.49 6.715h74.91v19.995h-53.24v20.49h46.75v19.995h-46.75v38.065h-21.67z"/>
  <path id="path16" d="m639.01 6.755h21.74v98.49h-21.74z"/>
  <path id="path18" d="m777.52 105.26v-98.505h74.23v19.495h-52.735v19.755h46.485v19.49h-46.485v20.26h53.475v19.505z"/>
 </g>
 <g id="#f9fbfcff" transform="matrix(1.0412 0 0 1.0412 1789.7 42.73)">
  <path id="path7" d="m6.0802 6.0202h11v42.93h56.83v-42.93h11.05v97.96h-11.05v-43.91h-56.83v43.91h-11z"/>
  <path id="path9" d="m104.08 6.05 29.511-0.02975c12.866-0.01297 25.466 1.1361 36.369 9.0098 28.12 17.83 26.84 65.37-2.56 81.46-10.008 6.2035-21.252 7.49-32.737 7.49h-30.613c-0.06-32.62-0.15-65.35 0.03-97.96m11 10.03v77.89h19.608c6.8955 0 13.716-0.4693 20.172-3.0997 24.93-8 31.7-42.92 14.79-61.54-8.9584-10.713-22.072-13.25-35.33-13.25z"/>
 </g>
</svg>
