<svg width="2057.8" height="200" data-name="Layer 1" xmlns="http://www.w3.org/2000/svg">
    <path d="M100 0C44.772 0 0 44.77 0 99.998s44.772 100 100 100h1858.2c55.236-.233 99.82-45.206 99.576-100.44-.244-55.236-45.223-99.81-100.46-99.557h-1857.3zm852.01 15.998h1004.4c46.398-.213 84.18 37.231 84.385 83.63.205 46.397-37.247 84.174-83.644 84.37h-1005.1c-46.397.007-84.012-37.603-84.012-84s37.615-84.007 84.012-84zM440.29 30.881a68.529 68.529 0 0 1 42.648 13.824 2.059 2.059 0 0 1 .588 2.647l-11.471 16.47a2.059 2.059 0 0 1-1.47.883h-1.177c-11.47-9.411-20.59-11.764-29.119-10.588-8.529 1.177-15.293 5.587-15.293 10.293s5.588 10.883 25.588 15.883c27.06 7.06 37.646 17.06 37.646 35.588s-16.47 37.06-43.529 37.06a75.587 75.587 0 0 1-48.822-17.647 1.765 1.765 0 0 1-.295-2.646l12.941-15.59 1.471-.588h1.176c11.471 9.118 22.06 13.236 33.824 13.236 11.765 0 17.059-4.413 17.059-11.178 0-6.765-3.53-10.293-23.824-15.293-26.176-6.765-39.41-14.117-39.41-36.176s16.763-36.178 41.469-36.178zm345.79 6.178h22.151a2.059 2.059 0 0 1 2.06 2.058v21.176h19.41a2.059 2.059 0 0 1 1.766 2.059v18.236a2.059 2.059 0 0 1-1.766 2.059h-19.41v38.529c0 6.176 2.647 8.822 8.235 8.822a27.058 27.058 0 0 0 10-2.059h1.764c.494.339.816.876.882 1.471v16.471c.025.7-.307 1.364-.883 1.764a38.234 38.234 0 0 1-19.41 4.707v.293c-17.94 0-26.47-8.823-26.47-27.352V82.352h-8.825a2.059 2.059 0 0 1-2.058-2.059V62.352c0-1.137.921-2.058 2.058-2.059h8.825V39.117a1.765 1.765 0 0 1 1.671-2.058zm-656.96 10.88h75.293c34.706 0 38.529 34.707 19.117 46.472 29.706 10.588 23.236 57.059-28.822 57.059H129.12a10.882 10.882 0 0 1-10.588-10.588v-82.06c-.003-5.897 4.693-10.723 10.588-10.882zm117.23.292c.041 0 .082.002.123.004h108.53l.123-.004a9.412 9.412 0 0 1 9.582 8.533 9.706 9.706 0 0 1-9.705 8.53h-34.412v75.587c0 5.848-4.74 10.588-10.588 10.588h-16.764a10.882 10.882 0 0 1-10.588-10.588V65.293h-36.178a9.706 9.706 0 0 1-9.705-8.529 9.412 9.412 0 0 1 9.582-8.533zm405.71 10.297c27.647 0 49.119 20.294 49.119 47.059s-21.765 47.648-49.412 47.648h-.295c-27.94 0-48.822-20.294-48.822-47.06s21.763-47.647 49.41-47.647zm-99.705.59c20.588 0 41.471 16.176 41.471 47.059 0 30.882-21.471 47.352-41.471 47.352a34.703 34.703 0 0 1-28.234-13.53v36.767a2.058 2.058 0 0 1-2.059 2.058h-21.766a2.058 2.058 0 0 1-2.058-2.058V62.646c0-1.137.921-2.059 2.058-2.059h21.766c1.137 0 2.059.922 2.059 2.059v11.176a33.232 33.232 0 0 1 28.234-14.705zm181.53 1.445c.962.031 1.72.827 1.707 1.789v16.471c5.882-13.529 14.412-18.234 27.059-18.234l1.178.588c.417.37.635.915.588 1.47V84.12a2.059 2.059 0 0 1-1.766 2.058c-17.647.294-27.059 11.176-27.059 32.06v31.175a2.059 2.059 0 0 1-2.059 2.059v-.293H711.77a2.059 2.059 0 0 1-1.765-2.06V62.352c0-.974.79-1.764 1.765-1.763h21.764c.116-.02.234-.029.352-.026zm-575.94 3.555v25h37.354c25 0 25.882-25 2.941-25h-40.295zm495 16.742c-.391-.005-.784.003-1.18.021-13.529 0-23.529 10.293-23.529 24.705 0 14.412 10.587 25.295 23.822 25.295 13.545.199 24.388-11.186 23.53-24.705-.57-14.246-10.524-25.182-22.644-25.316zm-104.71.29c-.391-.003-.784.004-1.18.022-13.529 0-23.529 10.293-23.529 24.705 0 14.412 10.587 25.295 23.822 25.295 13.545.199 24.388-11.186 23.53-24.705-.57-14.246-10.524-25.182-22.644-25.316zm-390.3 24.437v28.529h32.648c32.941 0 32.646-28.53 9.117-28.53h-41.766z" stroke-width="2.941"/>
    <path d="M1056.174 49.664c14.688-2.243 30.497 1.161 42.2 10.533 10.143 7.939 16.881 20.013 18.353 32.799 2.273 15.929-3.434 32.82-15.208 43.842-19.153 18.302-52.203 18.923-72.107 1.482-12.325-10.532-18.512-27.363-16.75-43.392 1.131-12.885 7.51-25.24 17.41-33.58 7.38-6.248 16.55-10.282 26.102-11.684m3.955 19.884c-7.159 1.041-13.877 4.876-18.292 10.622-10.362 13.056-8.24 34.412 5.206 44.574 11.174 8.89 28.875 7.81 38.707-2.613 11.113-11.374 11.343-31.248.83-43.082-6.417-7.429-16.79-11.043-26.451-9.501zM1296.342 49.514c14.397-1.933 29.766 1.582 41.18 10.773 10.322 8.1 17.04 20.514 18.341 33.56 2.003 15.859-3.884 32.549-15.708 43.372-18.683 17.41-50.11 18.412-70.004 2.493-10.092-7.93-16.77-19.964-18.272-32.7-1.943-14.056 2.142-28.894 11.343-39.747 8.24-9.872 20.405-16.19 33.12-17.751m4.836 19.793c-8.29.641-16.25 4.986-21.035 11.825-9.402 12.955-7.259 33.12 5.406 43.191 10.813 9.021 28.234 8.52 38.356-1.341 11.724-10.963 12.485-31.037 2.293-43.262-5.947-7.329-15.649-11.234-25.02-10.413zM1588.452 68.987c8.28-11.434 21.846-18.512 35.823-19.704 11.664-.99 23.959.671 34.121 6.799 3.825 2.212 7.109 5.196 10.433 8.09l-14.077 16.219c-5.477-4.996-11.915-9.341-19.354-10.623-9.551-2.002-20.094 1.342-26.441 8.83-11.144 12.606-10.062 34.031 2.493 45.295 6.898 6.307 17.03 8.25 25.98 6.007 7.04-1.542 12.906-6.047 18.123-10.813l13.706 14.057c-6.628 8.3-16.47 14.337-26.972 16.52-11.464 2.343-23.759 1.732-34.532-3.054-13.165-5.787-23.478-17.651-27.292-31.528-4.326-15.488-1.873-33.17 7.99-46.095zM921.007 149.293V50.685h46.48c9.282.12 19.314 2.433 25.842 9.491 6.257 6.578 7.419 16.74 4.595 25.12-1.892 5.447-6.287 9.532-11.133 12.415 6.688 2.704 13.516 6.879 16.22 13.927 3.594 9.652 2.192 21.976-5.898 28.995-7.519 6.588-17.901 8.4-27.593 8.66h-48.513m21.27-79.325v20.505h20.225c4.025-.14 8.38-.55 11.704-3.044 3.855-2.903 4.435-8.95 1.772-12.825-2.583-3.565-7.269-4.506-11.414-4.636h-22.286m0 38.782v21.285h25.3c3.925-.03 8.11-.345 11.464-2.598 5.366-3.384 5.446-12.535.08-15.959-3.394-2.203-7.55-2.748-11.524-2.728z"/>
    <path d="M1115.916 50.695h25.66l20.17 31.728 21.07-31.728h24.93l-32.9 48.303 34.302 50.295h-25.651l-21.751-33.5-22.212 33.5h-25.03l34.351-50.295zM1368.358 50.695h75v20.02h-53.304v20.514h46.807v20.019h-46.807v38.11h-21.696zM1454.622 50.65h75v20.02h-53.304v20.514h46.806v20.019h-46.806v38.11h-21.696zM1542.247 50.69h21.766v98.608h-21.766zM1680.923 149.313V50.69h74.32V70.21h-52.8v19.778h46.542v19.514h-46.541v20.284h53.539v19.528z"/>
    <g>
        <path d="M1796.03 48.998h11.454v44.699h59.171V48.998h11.506v101.996h-11.506v-45.719h-59.171v45.72h-11.453zM1898.068 49.03l30.727-.032c13.396-.013 26.515 1.183 37.867 9.381 29.279 18.565 27.946 68.064-2.665 84.816-10.42 6.46-22.128 7.799-34.086 7.799h-31.874c-.063-33.964-.156-68.042.031-101.996m11.453 10.443v81.1h20.416c7.18 0 14.281-.49 21.003-3.228 25.957-8.33 33.006-44.688 15.4-64.075-9.328-11.155-22.982-13.796-36.786-13.796z"/>
    </g>
</svg>
