<svg version="1.1" viewBox="0 0 1280.1 541.98" xmlns="http://www.w3.org/2000/svg">
 <g transform="matrix(1.1864 0 0 1.1864 636.83 385.49)">
  <path d="m-214.03-324.92c-83.697 0-151.54 67.845-151.54 151.54s67.845 151.55 151.54 151.55c83.697 0 151.55-67.855 151.55-151.55-8e-6 -83.697-67.855-151.54-151.55-151.54zm-0.0697 18.686c73.468 0 133.03 59.558 133.03 133.03 0 73.468-59.558 133.03-133.03 133.03-73.468 0-133.03-59.558-133.03-133.03 0-73.468 59.558-133.03 133.03-133.03z"/>
  <path d="m-289.56-225.18v103.18h41.983c19.081 0 33.744-11.913 33.744-30.782 0-16.641-12.991-22.989-12.991-22.989s9.969-6.3664 9.969-20.524c0-16.445-12.984-28.883-32.133-28.883zm23.218 20.167h12.404c8.816 0 12.663 4.5317 12.663 10.128 0 6.0757-4.3554 9.9094-12.076 9.9094h-12.991zm0 40.711h12.404c8.816 0 12.663 4.5316 12.663 10.128 0 6.0756-4.3554 9.9093-12.076 9.9093h-12.991z"/>
  <path d="m-182.69-122.33v-79.195h-23.218v-23.854h72.198v23.854h-24.172v79.195z"/>
  <path d="m-32.798-147.08v22.231s13.604 5.4523 29.879 5.4523c23.526 0 38.737-10.484 38.737-32.953 0-30.842-42.241-30.175-42.241-44.366 0-4.9936 4.1299-7.3969 12.933-7.3969 11.548 0 23.912 5.2755 23.912 5.2755v-22.578s-10.142-4.5421-25.821-4.5421c-18.842 0-37.731 8.9965-37.731 30.757 0 32.753 41.997 29.212 41.997 45.425 0 6.4076-4.4184 8.808-13.863 8.808-13.641 0-27.801-6.1129-27.801-6.1129z"/>
  <path d="m47.442-224.71v103.34h25.705v-33.694h4.975c27.685 0 38.814-15.741 38.814-35.536 0-24.194-17.467-34.11-35.8-34.11zm25.705 20.841h4.5157c7.0419 0 14.254 2.08 14.254 13.476 0 10.616-5.6285 14.486-14.254 14.486h-4.5157z"/>
  <path d="m166.82-225.93c-24.031 0-41.155 17.333-41.155 53.297 0 30.497 10.469 53.004 40.876 53.004 28.23 0 40.861-24.431 40.861-53.484 0-38.243-17.502-52.817-40.583-52.817zm-0.0127 22.091c12.374 0 14.386 15.196 14.386 31.185 0 16.8-2.8697 31.207-14.737 31.207-13.29 0-14.496-18.589-14.496-31.624 0-14.759 2.2434-30.768 14.847-30.768z"/>
  <path d="m289.14-191.65c0-21.702-14.898-33.057-35.712-33.057h-33.694v103.34h25.705v-36.473h4.1636l19.804 36.473h27.441l-25.041-42.216c9.5508-4.2374 17.333-12.931 17.333-28.066zm-43.701-12.216h4.5156c7.042 0 14.254 2.7339 14.254 12.639 0 8.7298-5.6287 12.876-14.254 12.935h-4.5156z"/>
  <path d="m321.51-121.37v-82.671h-23.794v-20.668h73.293v20.668h-23.794v82.671z"/>
 </g>
 <g transform="translate(-.00044482 965.99)">
  <g transform="matrix(.61617 0 0 .61617 -84.092 -385.91)" fill="#5bd9ff">
   <path d="m2022-91.281h-27.094v-102.46h-88.757v102.46h-27.094v-224.54h27.094v97.788h88.757v-97.788h27.094z"/>
   <path d="m2214-203.39q0 23.98-5.6057 44.534-5.2942 20.554-16.817 35.503-11.211 14.948-29.274 23.668-17.751 8.4086-42.665 8.4086h-54.811v-224.54h51.697q25.848 0 44.223 7.7857 18.374 7.7856 30.208 22.423t17.44 35.503 5.6057 46.714zm-28.028 0q0-15.883-2.8029-31.454-2.4914-15.883-9.3428-28.34-6.5399-12.768-18.063-20.554-11.211-7.7857-28.34-7.7857h-35.503v176.58h33.323q18.686 0 30.52-8.4085t18.374-21.488q6.8514-13.08 9.3428-28.651t2.4914-29.897z"/>
  </g>
  <g transform="matrix(.12914 0 0 .12914 760.93 -412.94)" stroke-width=".125">
   <path d="m728.44-151.45c112.03-108.55 380-195.62 661.94-232.07 52.342-6.7662 104.5-11.972 155.49-15.875 1.8962-0.14625 17.322-0.81625 17.322-0.81625l23.392 53.961 28.441-57.415s21.83-1.4338 22.589-1.47c143.86-7.0275 272.55-4.2125 361.36 2.1188-22.925 49.512-73.35 157.03-73.35 157.03-83.4-27.338-342.4-57.313-593.4-36.713-305.6 25.075-572.5 119.38-603.75 131.25" fill="#ee2624"/>
   <g transform="translate(728.44,-1285.9)">
    <path d="M 858.62,933.22 668.26,465.88 477.91,933.22 21.53,0.04 198.41,491.9 472.2,1200.24 668.26,756.23 864.34,1200.24 1138.13,491.9 1315.01,0.02 858.63,933.21"/>
    <path d="m1219.5 1.425-352.49 463.11-198.09-450.36-198.08 450.36-352.49-463.11 355.12 700.69 195.44-501.6 195.45 501.6 355.12-700.69"/>
   </g>
  </g>
  <g transform="matrix(.90093 0 0 .90093 -39.533 -966)" fill="#5bd9ff">
   <g transform="matrix(1.3326,0,0,1.3326,-758.03,-1215.5)">
    <path d="m664.98 1313.3q0 6.624-2.304 12.096-2.16 5.328-6.192 9.216t-9.792 6.048q-5.616 2.16-12.528 2.16h-32.4v-103.82h30.528q13.824 0 21.744 6.768t7.92 18.72q0 8.208-3.744 14.4t-11.664 9.936q4.032 1.152 7.344 3.456 3.456 2.304 5.904 5.616 2.448 3.168 3.744 7.2 1.44 3.888 1.44 8.208zm-15.696-46.512q0-8.352-5.184-12.672t-13.392-4.32h-16.416v34.56h16.848q8.208 0 13.104-4.464 5.04-4.464 5.04-13.104zm3.024 46.944q0-4.32-1.728-7.776-1.584-3.456-4.464-5.904-2.736-2.448-6.624-3.744-3.744-1.296-8.064-1.296h-17.136v37.44h16.272q4.464 0 8.352-0.864 4.032-1.008 6.912-3.168 3.024-2.304 4.752-5.904t1.728-8.784z"/>
    <path d="m753.75 1291.1q0 10.08-1.728 19.728-1.728 9.504-6.048 16.992t-11.664 12.096q-7.344 4.464-18.432 4.464-10.944 0-18.288-4.464-7.2-4.608-11.52-12.096t-6.192-16.992q-1.728-9.648-1.728-19.728 0-10.368 1.872-20.016t6.192-16.992q4.32-7.488 11.52-11.808 7.344-4.464 18.144-4.464t18 4.464q7.344 4.32 11.664 11.808 4.464 7.344 6.336 16.992t1.872 20.016zm-12.96-0.432q0-7.2-0.864-14.688t-3.6-13.536q-2.592-6.048-7.488-9.936t-12.96-3.888-12.96 3.888-7.488 9.936-3.456 13.536-0.864 14.688q0 6.624 0.72 14.112t3.168 13.968q2.592 6.336 7.488 10.656 4.896 4.176 13.392 4.176 8.64 0 13.536-4.176 5.04-4.32 7.488-10.656 2.592-6.48 3.168-13.968 0.72-7.488 0.72-14.112z"/>
    <path d="m802.65 1287.9 29.664 54.864h-13.536l-23.328-43.344-23.04 43.344h-12.96l29.232-54.288-27.36-49.536h13.824l20.592 38.736 20.448-38.736h12.672z"/>
    <path d="m945 1291.1q0 10.08-1.728 19.728-1.728 9.504-6.048 16.992t-11.664 12.096q-7.344 4.464-18.432 4.464-10.944 0-18.288-4.464-7.2-4.608-11.52-12.096t-6.192-16.992q-1.728-9.648-1.728-19.728 0-10.368 1.872-20.016t6.192-16.992q4.32-7.488 11.52-11.808 7.344-4.464 18.144-4.464t18 4.464q7.344 4.32 11.664 11.808 4.464 7.344 6.336 16.992t1.872 20.016zm-12.96-0.432q0-7.2-0.864-14.688t-3.6-13.536q-2.592-6.048-7.488-9.936t-12.96-3.888-12.96 3.888-7.488 9.936-3.456 13.536-0.864 14.688q0 6.624 0.72 14.112t3.168 13.968q2.592 6.336 7.488 10.656 4.896 4.176 13.392 4.176 8.64 0 13.536-4.176 5.04-4.32 7.488-10.656 2.592-6.48 3.168-13.968 0.72-7.488 0.72-14.112z"/>
    <path d="m976.26 1342.8h-12.528v-103.82h54.144v11.232h-41.616v33.984h37.872v10.944h-37.872z"/>
    <path d="m1046.3 1342.8h-12.528v-103.82h54.144v11.232h-41.616v33.984h37.872v10.944h-37.872z"/>
    <path d="m1116.3 1342.8h-12.528v-103.82h12.528z"/>
    <path d="m1193.8 1253.7q-4.032-1.872-8.64-3.312-4.464-1.44-10.512-1.44-8.208 0-13.392 3.888-5.04 3.888-7.92 9.936t-3.888 13.536q-1.008 7.344-1.008 14.4 0 6.768 0.864 14.4 0.864 7.488 3.6 13.824 2.88 6.192 8.208 10.368 5.328 4.032 14.256 4.032 4.752 0 9.216-1.44 4.608-1.44 9.216-3.456v11.808q-9.072 4.176-20.304 4.176-11.52 0-19.008-4.464-7.344-4.464-11.664-11.808t-6.048-16.992q-1.584-9.648-1.584-20.016 0-9.216 1.728-18.72 1.872-9.504 6.192-17.136 4.464-7.776 11.952-12.528 7.632-4.896 19.152-4.896 5.616 0 10.656 1.008 5.184 1.008 8.928 2.592z"/>
    <path d="m1222.4 1331.8h41.472v10.944h-54v-103.82h52.416v11.232h-39.888v34.128h38.16v10.944h-38.16z"/>
   </g>
  </g>
 </g>
</svg>
