<svg xmlns="http://www.w3.org/2000/svg" width="200.001" height="28.418" viewBox="0 0 52.917 7.519">
    <path d="M25.087 5.594l-.401-3.665h-1.833l-.534 5.39h-2.126l.569-5.39h-2.276l.175-1.74 7.902.005.662 5.347c.048.105.125.15.261.153a.376.376 0 0 0 .323-.178c.103-.256 1.677-4.157 2.138-5.322h2.078l-2.098 5.433c-.16.341-.424.943-1.111 1.411a2.686 2.686 0 0 1-1.557.486c-.699 0-1.156-.233-1.462-.494-.552-.461-.684-1.166-.712-1.437" fill="#fff"/>
    <path d="M14.895 4.774a.484.484 0 0 1 0 .967H5.887c1.088.562 2.264.998 3.507 1.274l.013.003c1.772.361 3.61.552 5.49.552a4.41 4.41 0 0 0 1.354-.213 2.23 2.23 0 0 0 1.339-3.051 1.435 1.435 0 0 0-.524-.607 2.64 2.64 0 0 0 .679-1.772c0-1.03-.837-1.875-1.868-1.875H-.01C.369.716 1.269 1.94 1.269 1.94h13.874a.495.495 0 0 1 0 .992H2.137a14.378 14.378 0 0 0 2.154 1.843z" fill="#ec2026"/>
    <path d="M50.499 5.254c-.15.226-.384.338-.707.343h-2.244l.348-3.53 2.504.003c.303.08.471.261.511.542a5.871 5.871 0 0 1-.414 2.642m.529-5.037h-5.019v.01h-.008l-.752 7.117h2.123l.003-.013 2.813.003c1.557-.078 2.447-1.264 2.67-3.555.223-2.291-.386-3.48-1.83-3.562M42.746.228l-.276 2.615h-2.923l.261-2.615H37.73l-.755 7.117h2.126l.271-2.728h2.911l-.288 2.728h2.123l.707-7.117z" fill="#fff"/>
</svg>
