<?xml version="1.0" encoding="UTF-8" standalone="no"?>
<!-- Created with Inkscape (http://www.inkscape.org/) -->

<svg
   xmlns:dc="http://purl.org/dc/elements/1.1/"
   xmlns:cc="http://creativecommons.org/ns#"
   xmlns:rdf="http://www.w3.org/1999/02/22-rdf-syntax-ns#"
   xmlns:svg="http://www.w3.org/2000/svg"
   xmlns="http://www.w3.org/2000/svg"
   xmlns:sodipodi="http://sodipodi.sourceforge.net/DTD/sodipodi-0.dtd"
   xmlns:inkscape="http://www.inkscape.org/namespaces/inkscape"
   width="52.916668mm"
   height="7.5190182mm"
   viewBox="0 0 52.916668 7.5190182"
   version="1.1"
   id="svg31839"
   inkscape:version="0.92.3pre0 (0ab9bec, 2018-03-03)"
   sodipodi:docname="btv1hd.light.svg">
  <defs
     id="defs31833" />
  <sodipodi:namedview
     id="base"
     pagecolor="#ffffff"
     bordercolor="#666666"
     borderopacity="1.0"
     inkscape:pageopacity="0.0"
     inkscape:pageshadow="2"
     inkscape:zoom="3.1322621"
     inkscape:cx="82.319513"
     inkscape:cy="32.824616"
     inkscape:document-units="mm"
     inkscape:current-layer="g31814"
     showgrid="false"
     fit-margin-top="0"
     fit-margin-left="0"
     fit-margin-right="0"
     fit-margin-bottom="0"
     inkscape:window-width="1920"
     inkscape:window-height="983"
     inkscape:window-x="0"
     inkscape:window-y="27"
     inkscape:window-maximized="1" />
  <metadata
     id="metadata31836">
    <rdf:RDF>
      <cc:Work
         rdf:about="">
        <dc:format>image/svg+xml</dc:format>
        <dc:type
           rdf:resource="http://purl.org/dc/dcmitype/StillImage" />
        <dc:title></dc:title>
      </cc:Work>
    </rdf:RDF>
  </metadata>
  <g
     inkscape:label="Layer 1"
     inkscape:groupmode="layer"
     id="layer1"
     transform="translate(-84.160832,-142.24413)">
    <g
       id="g31814"
       transform="matrix(2.5071751,0,0,-2.5071751,-57.747535,876.7464)">
      <g
         transform="translate(66.6113,290.749)"
         id="g20808"
         style="fill:#ffffff">
        <path
           inkscape:connector-curvature="0"
           id="path20810"
           style="fill:#ffffff;fill-opacity:1;fill-rule:nonzero;stroke:none"
           d="m 0,0 -0.16,1.462 h -0.731 l -0.213,-2.15 h -0.848 l 0.227,2.15 h -0.908 l 0.07,0.694 3.152,-0.002 0.264,-2.133 c 0.019,-0.042 0.05,-0.06 0.104,-0.061 0.054,0.001 0.093,0.021 0.129,0.071 0.041,0.102 0.669,1.658 0.853,2.123 H 2.768 L 1.931,-0.013 C 1.867,-0.149 1.762,-0.389 1.488,-0.576 1.34,-0.678 1.136,-0.77 0.867,-0.77 0.588,-0.77 0.406,-0.677 0.284,-0.573 0.064,-0.389 0.011,-0.108 0,0" />
      </g>
      <g
         transform="translate(62.5459,291.0761)"
         id="g20812">
        <path
           inkscape:connector-curvature="0"
           id="path20814"
           style="fill:#ec2026;fill-opacity:1;fill-rule:nonzero;stroke:none"
           d="M 0,0 C 0.106,0 0.192,-0.086 0.192,-0.192 0.192,-0.299 0.106,-0.386 0,-0.386 h -3.593 c 0.434,-0.224 0.903,-0.398 1.399,-0.508 l 0.005,-0.001 c 0.707,-0.144 1.44,-0.22 2.19,-0.22 0.188,0 0.369,0.03 0.54,0.085 0.356,0.115 0.615,0.45 0.615,0.845 0,0.133 -0.029,0.259 -0.081,0.372 v 0 C 1.03,0.286 0.957,0.37 0.866,0.429 c 0.168,0.185 0.271,0.436 0.271,0.707 0,0.411 -0.334,0.748 -0.745,0.748 h -6.337 c 0.151,-0.265 0.51,-0.753 0.51,-0.753 h 0.008 5.526 c 0.109,0 0.197,-0.089 0.197,-0.198 0,-0.109 -0.088,-0.198 -0.197,-0.198 H -5.089 C -4.828,0.463 -4.541,0.217 -4.23,0 Z" />
      </g>
      <g
         transform="translate(76.7481,290.8847)"
         id="g20816"
         style="fill:#ffffff">
        <path
           inkscape:connector-curvature="0"
           id="path20818"
           style="fill:#ffffff;fill-opacity:1;fill-rule:nonzero;stroke:none"
           d="M 0,0 C -0.06,-0.09 -0.153,-0.135 -0.282,-0.137 H -1.177 L -1.038,1.271 -0.039,1.27 C 0.082,1.238 0.149,1.166 0.165,1.054 0.193,0.702 0.138,0.351 0,0 M 0.211,2.009 H -1.791 V 2.005 h -0.003 l -0.3,-2.839 h 0.847 l 0.001,0.005 1.122,-0.001 c 0.621,0.031 0.976,0.504 1.065,1.418 0.089,0.914 -0.154,1.388 -0.73,1.421" />
      </g>
      <g
         transform="translate(73.6553,292.8896)"
         id="g20820"
         style="fill:#ffffff">
        <path
           inkscape:connector-curvature="0"
           id="path20822"
           style="fill:#ffffff;fill-opacity:1;fill-rule:nonzero;stroke:none"
           d="M 0,0 -0.11,-1.043 H -1.276 L -1.172,0 h -0.829 l -0.301,-2.839 h 0.848 l 0.108,1.088 h 1.161 L -0.3,-2.839 H 0.547 L 0.829,0 Z" />
      </g>
    </g>
  </g>
</svg>
