<svg xmlns="http://www.w3.org/2000/svg" version="1.0" width="500" height="91">
    <g fill="#666">
        <path d="M151.872 39.88v-6.32c0-5.309.335-10.702.505-16.011 1.602-.253 3.54-.422 6.405-.422 6.405 0 13.736 1.516 13.736 10.619 0 9.353-8.174 12.134-16.096 12.134h-4.55zm-6.912 10.366c0 7.248-.337 14.579-.673 21.912 2.696-.254 5.477-.422 8.174-.422 2.696 0 5.478.422 8.174.422 9.776 0 21.321-4.467 21.321-16.94 0-9.606-6.151-13.652-16.18-14.158v-.168c8.427-1.854 14.158-6.488 14.158-14.747 0-9.524-8.174-12.136-17.781-12.136-2.95 0-5.985.421-8.934.421-2.95 0-5.982-.169-8.932-.421.336 7.163.673 14.495.673 21.742v14.495zM151.872 43h3.791c11.208 0 18.54 2.274 18.54 11.881 0 9.103-6.32 14.157-13.568 14.157-3.034 0-6.151-.168-8.258-.42-.17-5.647-.505-11.377-.505-17.024V43M192.658 45.274c0-3.96-.084-8.679-.169-13.399 1.18.253 2.444.422 3.54.422s2.275-.169 3.456-.422c-.506 6.573-.843 15.17-.843 23.428 0 5.815 1.18 8.596 2.612 10.197 1.602 1.769 3.961 3.118 7.247 3.118 4.72 0 7.923-2.36 9.355-5.394 1.685-3.623 1.77-4.298 1.77-17.53 0-4.55 0-9.774-.168-13.819 1.18.253 2.275.422 3.538.422 1.265 0 2.36-.169 3.455-.422-.505 8.765-.589 16.686-.589 25.619 0 4.972.084 9.944.337 14.664-1.096-.254-2.192-.422-3.288-.422-1.095 0-2.19.168-3.285.422.168-2.445.168-4.89.168-7.25h-.168C216.76 70.136 211.788 73 206.48 73c-8.764 0-14.074-5.057-14.074-13.82 0-5.9.253-9.777.253-13.906M256.2 35.414c-7.838 0-11.377 5.057-11.377 13.822v7.161c0 5.058.169 10.957.674 15.76-1.265-.253-2.529-.421-3.791-.421-1.265 0-2.53.168-3.794.422.506-4.804.675-10.703.675-15.76v-8.765c0-5.055-.169-10.954-.675-15.758 1.265.253 2.53.422 3.794.422.842 0 2.106-.169 3.37-.422a90.55 90.55 0 0 0-.253 6.742h.169c3.118-4.804 7.415-7.585 13.484-7.585 6.235 0 13.483 3.034 13.483 14.663 0 4.804-.337 9.861-.337 15.591 0 3.708 0 7.247.168 10.872-1.264-.254-2.36-.422-3.54-.422-1.18 0-2.275.168-3.454.422.169-6.153.589-12.304.589-18.793v-5.142c0-8.258-3.623-12.81-9.185-12.81M287.971 52.775c0-10.197 3.792-18.203 11.882-18.203 8.006 0 12.304 5.983 12.304 16.602 0 9.185-3.793 18.708-12.556 18.708-5.479 0-11.63-3.624-11.63-17.107zm23.849 19.383c1.18-.169 2.19-.422 3.202-.422 1.011 0 2.022.253 3.287.422-.084-6.742-.253-12.557-.253-20.226 0-14.412.253-36.49 1.01-43.57-1.432.17-2.61.423-3.791.423-1.18 0-2.444-.254-3.793-.422.338 7.248.338 20.478.338 31.095h-.169c-2.36-5.476-6.741-8.426-12.977-8.426-8.765 0-18.12 6.91-18.12 21.236 0 14.495 8.597 20.732 17.109 20.732 8.258 0 12.556-5.562 14.24-9.101h.17l-.253 8.259M347.466 33.728c8.765 0 10.366 8.596 10.366 14.58-3.539.084-7.5.253-11.208.253-3.54 0-7.5-.17-10.955-.253.42-6.067 3.54-14.58 11.797-14.58zM328 53.196C328 64.404 336.343 73 348.478 73c5.225 0 10.703-2.444 14.074-5.14l.505-4.13-.421-.253c-2.95 3.37-8.174 5.983-12.641 5.983-9.354 0-14.579-6.826-14.579-15.59 0-.758 0-1.517.085-2.36 3.707-.083 7.33-.252 11.039-.252 5.983 0 11.967.169 18.034.252.085-1.095.168-2.19.168-3.287 0-9.353-5.646-17.191-17.444-17.191-12.388 0-19.298 8.511-19.298 22.164M375.193 64.067c1.18 2.275 4.803 5.815 9.522 5.815 4.214 0 8.174-2.613 8.174-7.585 0-10.45-19.888-4.298-19.888-18.54 0-7.331 5.057-12.725 13.99-12.725 4.129 0 6.742 1.517 9.354 2.359-.927 1.602-1.854 4.72-2.023 5.984h-1.01c-.844-2.696-3.625-5.225-7.416-5.225-3.287 0-7.164 2.107-7.164 7.079 0 10.955 19.888 4.214 19.888 18.456 0 6.405-5.815 13.315-15.17 13.315-5.14 0-8.51-1.433-10.87-2.781.675-1.432 1.602-4.466 1.602-6.152h1.01M428.874 38.786c-.59-.675-2.444-1.35-4.131-1.35-5.393 0-8.597 5.142-8.597 11.715 0 14.664 0 19.13.339 23.007-1.095-.254-2.277-.422-3.37-.422-1.182 0-2.277.168-3.54.422.337-4.13.337-10.703.337-20.143V49.32c0-4.382 0-10.198-.336-17.445 1.262.253 2.357.422 3.539.422 1.093 0 2.275-.169 3.37-.422-.42 4.045-.42 6.067-.42 8.174l.168.085c3.202-6.068 7.246-9.102 11.122-9.102 1.013 0 1.601.084 2.699.506-.591 1.348-.591 4.55-.591 6.826l-.59.422M460.559 63.561c-1.938 3.119-5.646 5.9-9.944 5.9-3.707 0-7.33-2.698-7.33-8.006 0-9.187 11.797-8.596 17.611-10.534l-.337 12.64zM440.08 40.303h.928c1.938-3.624 6.151-5.73 10.616-5.73 6.744 0 9.271 4.97 9.271 10.617 0 3.287-.42 3.961-12.64 5.9-7.334 1.178-11.882 4.802-11.882 11.544 0 6.404 5.561 10.366 11.207 10.366 5.732 0 9.186-2.107 13.23-6.153.338 2.866 2.192 5.226 5.817 5.226 2.189 0 4.214-.675 5.392-1.18v-1.855c-.59.338-1.264.338-1.771.338-3.284 0-3.284-3.454-3.284-6.237 0-7.078.336-13.314.336-19.634 0-7.5-5.56-12.473-13.651-12.473-4.469 0-8.514 1.096-13.57 4.888v4.383M490.222 20.581h.422c-.337 4.215-.504 8.344-.672 12.474 1.178 0 5.054-.084 8.931-.253-.084.589-.084 1.18-.084 1.77 0 .59 0 1.179.084 1.77-2.949-.169-6.911-.169-8.931-.169-.169.842-.593 14.073-.593 21.406 0 6.32.169 12.725 6.827 12.725.928 0 2.697-.253 3.794-.591v2.023c-1.938.674-4.383 1.264-6.49 1.264-6.995 0-10.365-3.962-10.365-10.534 0-6.152.506-13.737.589-26.293-1.686 0-3.539 0-5.73.169.083-.675.168-1.265.168-1.938 0-.591-.085-1.097-.168-1.687 2.528.169 4.382.254 5.56.254-.082-2.192-.168-5.816-.336-9.439l6.994-2.95M45.608.002a6.023 6.023 0 0 0-4.838 2.792c-.832 1.305-.806 3.16-.271 4.225.36.724.884 1.157 1.363 1.496.368.265.635-.588 2.383-1.294 1.508-.607 4.096-.341 4.155.819.067 1.294-.75 1.431-2.11 1.294-1.38-.14-5.108-.409-6.017-.908-.509-.28.178.952 1.544 1.542 1.363.591 2.506.84 3.72 1.341 1.162.477-.337.952-1.451.293-1.121-.662-.312.858.501 1.546.884.749 2.313 1.304 3.587 1.406 1.11.093-.706 2.165-1.408 4.179-.954 2.725-.274 5.312-1.704 6.267-.828.552-2.792-.342-4.088-.614-1.556-.325-3.657-.203-4.336-.203-.68 0-1.043-1.908-1.793-3.746-.61-1.493-2.035-2.634-2.314-3.476-.34-1.022 1.467-1.119 2.86-2.383 1.496-1.362 2.725-4.427 1.292-6.334-1.363-1.823-4.084-1.498-5.38-1.16-1.352.356-4.407 1.95-5.45 2.523-1.36.748-2.86 1.156-3.747.885-.835-.26-1.359-.817-1.837-1.5-.387-.553-.546 1.634.203 2.59.855 1.082 1.831 1.44 1.705 1.634C21.29 14.578 14.09 21.549 9.917 25c-1.567 1.294-4.02 4.017-5.042 4.972-.984.92-2.45 1.428-3.884 1.703-.869.164.695 1.896 2.388 2.655 1.359.615 3.267.954 5.855-.341 1.775-.884 3.884-3.607 5.042-4.7 1.233-1.157 5.993-5.244 6.334-5.583.341-.342 1.192-1.056 1.704-.544.75.746-.137 1.971-.683 2.586-.527.592-4.697 4.973-5.992 6.268-1.296 1.293-4.363 5.243-7.151 7.969-1.485 1.446-4.092 6.046-6.609 6.947-.954.339-2.112-.136-1.838.68.27.818 1.771 2.453 3.813 2.726 2.035.27 4.767-.477 6.334-2.453 1.608-2.028 3.09-3.987 4.088-5.177 1.088-1.294 8.116-11.025 8.922-12.124.75-1.02 1.459-1.625 1.975-1.02.408.476.137 1.293-.68 2.587-.846 1.34-16.67 24.298-18.46 27.04-.864 1.327-1.826 2.246-3.134 1.704-.367-.152.48 2.032 3.477 2.316 3.608.34 6.266-1.363 9.263-5.79C16.9 55.56 26.996 38.18 27.556 37.26c.91-1.48 1.478-2.396 1.976-1.975.709.6-.078 1.795-.613 2.861-.613 1.227-13.384 27.992-14.847 30.242-.887 1.363-1.975 2.93-3.134 2.93-.75 0 .613 1.635 2.996 1.635 2.247 0 4.207-.724 6.2-3.338 2.18-2.86 12.227-26.07 13.214-28.402.75-1.773 1.34-2.01 1.772-1.773.612.342.475.967-.138 2.723-.954 2.726-6.66 16.884-8.992 22.546-.475 1.158-1.226 2.317-2.043 2.997-.597.498 1.839.682 3.813 0 3.038-1.048 4.564-4.426 6.472-8.65 1.886-4.173 5.993-15.46 6.742-16.552.75-1.09 1.615-.76 2.113-.066.883 1.227 1.184 3.731.612 5.38-1.975 5.721-4.904 8.921-6.196 10.353-.843.93-2.112 2.181-2.792 2.59-.249.148.813.817 2.042.952.813.09 1.85.182 1.02 1.5-2.178 3.471-3.679 7.486-4.562 8.105-.68.475-2.023 1.184-3.066 1.975-1.197.908-4.534-1.014-6.13 0-1.014.646-.751 1.301-1.089 1.77-.411.571-1.893 1.902-1.841 2.997.07 1.363.888 2.315 1.979 2.725 1.31.492.542-.41.95-1.431.524-1.301 1.23-.409 2.113-.615.884-.201 1.225-1.018 1.704-1.292.475-.272 1.43 0 1.226.749-.26.958-.624 1.405-1.91 1.975-1.224.546-1.447 2.088-.882 2.929.408.613-.353.99.203 1.976.613 1.09 2.247 1.704 3.201 1.43.586-.167.237-.85-.07-1.158-.542-.543-.542-1.5.137-1.431.884.09 1.5-.34 1.908-2.52.086-.467.342-2.52.887-2.52.546 0 .68.888.61 1.498-.064.614-.743 1.52-.271 2.725.445 1.146.953.954 1.633 1.5.568.451.987 1.773 1.842 2.044 1.295.408 2.587-.206 3.133-1.092.308-.5-1.31-.031-1.633-1.43-.06-.238.611-1.36.541-2.247-.066-.886-.953-1.975-1.567-2.59-.445-.443-.868-1.36-.816-1.973.067-.817 1.329-2.84 3.271-2.452 1.02.204 2.175.408 3.538.408 1.091 0 1.649-.51 2.046-1.159.349-.564 1.385.678 1.66 1.36.233.581 2.141-2.71.656-4.283-1.19-1.262-2.223-.275-3.133-.825-1.362-.814-3.186.597-4.087 1.16-.546.34-1.705-.07-.546-1.295 1.158-1.223 3.419-5.102 3.816-5.993.27-.611 2.313 2.318 4.085 2.247.82-.03-.272-1.634-.272-3.949 0-.953.613-3.475 1.296-3.406 1.025.102 1.103 3.61 1.158 5.653.063 2.656-.557 10.119-1.908 13.69-1.065 2.815-3.293 5.262-4.433 5.436-1.734.268-.713 1.097.353 2.098 2.142 2.01 5.112.805 5.502 1.31.45.574.69 1.168 1.3 1.918.813.997 1.976 1.771 2.318 1.771.548 0 1.892-1.004 2.452-1.565.954-.956 1.293-2.248 1.772-2.384.478-.137 1.57.492 2.792.136 1.637-.477 3.04-1.82 3.474-2.794.275-.61-.827-.196-2.112-1.294-1.426-1.225-2.721-3.493-3.542-6.06-.95-2.997-1.563-8.516-1.634-11.787-.067-3.132.605-6.63 1.159-6.536.817.135 1.296 1.567 1.363 2.996.078 1.61-.045 2.95-.546 4.292-.205.546 1.362.067 2.246-.478.887-.545 1.5-1.087 1.704-1.36.204-.273 2.658 3.746 3.746 5.04.561.666.958 1.522.476 1.634-.884.204-2.451-1.432-4.084-1.294-1.162.096-1.297.814-1.976.954-.735.147-1.898.819-2.042 1.702-.275 1.635.476 2.52 1.633 3.132.706.375.164-1.452.955-1.158.542.206 1.574 1.303 2.654.887.888-.342 1.646-.861 3.613-.409 1.767.409 2.518.884 2.45 1.974-.051.817-.954 2.385-1.841 4.088-.587 1.128.175 1.932.995 2.75.408.41-.348 1.4-1.333 1.881-.936.46.669.88 1.634.75 1.5-.204 2.758-1.322 2.996-2.656.133-.75 1.073-.674 1.159-1.723.096-1.107-.74-2.1-.067-2.228.745-.145 1.084 1.22 1.633 2.588.409 1.021 1.549 1.457 2.592 1.294.783-.124.479 2.016.2 2.657-.23.534 1.641-.097 2.317-.886.538-.626.977-1.938.613-3.065-.212-.653-.84-.813-.613-1.43.23-.634-.17-1.06-1.077-1.727-.832-.613-3.144-1.68-2.536-2.156.613-.475 1.006-.293 1.433-.137.323.118.974.761 1.704.956.75.2 1.672.143 2.284-.28.568-.396 1.006-.093 1.05.55.038.496.082.716-.066 1.295-.14.532 1.36.204 1.942-.928.746-1.443.776-2.798.13-3.54-.828-.962-1.879-.175-2.414-.844-.683-.857-1.496-1.635-2.996-1.024-1.555.639-3.88.819-4.971.14-1.37-.856-6.17-8.631-7.396-10.378-.95-1.362-.962-1.592.175-1.26 1.548.453 2.947-.585 3.267-1.101.115-.184-1.218.33-4.218-2.93-2.317-2.513-6.39-8.79-6.337-11.305.044-2.117 1.5-4.565 2.383-4.633.954-.073 1.89 1.71 2.454 2.997.475 1.09 8.253 18.928 9.126 20.57 1.162 2.18 2.888 3.168 4.838 3.543 1.136.22 2.383-.137 2.93-.477.31-.195-1.044-.232-1.976-2.317-.883-1.976-10.006-23.954-10.559-25.406-.542-1.43-.342-1.973.271-2.18.775-.258 1.429.546 2.112 2.317.606 1.57 10.797 24.37 11.785 26.086 1.222 2.125 2.88 3.7 4.087 4.496 1.148.763 3.193 1.12 4.905.886 1.496-.204 2.926-1.09 3.334-1.702.171-.253-2.041 0-3.196-1.636-.91-1.277-4.976-8.24-6.205-10.56C84.5 55.65 74.42 37.26 73.944 36.104c-.476-1.158-.613-1.977-.138-2.18.357-.151 1.23.272 2.043 1.7.686 1.198 13.284 21.595 14.85 23.568 1.568 1.977 3.472 3.067 5.722 3.067 2.658 0 4.69-1.326 5.45-2.59.612-1.02-1.637-.069-3.68-1.704-2.004-1.6-19.376-26.65-19.884-27.449-.617-.952-1.3-2.042-.688-2.452.487-.321 1.5.137 2.592 1.5.754.946 12.245 15.038 13.76 16.55 2.175 2.18 3.886 3.196 6.47 2.998 1.768-.136 3.064-1.498 3.88-2.861.595-.991-1.462.15-2.903-1.292-.58-.579-19.269-19.917-20.12-20.913-1.198-1.408-1.41-2.047-.816-2.383.524-.295 1.251-.113 2.45.817 1.259.972 7.879 7.318 9.876 9.059 1.567 1.363 4.021 2.434 5.588 2.386 2.113-.07 4.5-1.753 4.7-3.747.068-.683-1.985 1.014-3.998-.471-2.094-1.55-10.373-9.952-13.44-12.609-2.15-1.862-4.701-4.085-4.701-4.698 0-.613 2.387-1.159 2.25-3.611-.044-.76-.75.795-2.859.953-3.608.276-5.936-3.354-9.608-3.678-2.313-.205-4.511.557-5.105 3.066-.613 2.589.842 4.387 1.975 5.243 1.7 1.298 3.408 1.253 3.609 1.908.249.817-.747 1.91-1.975 3.407-1.62 1.98-1.118 3.834-1.7 4.22-.413.276-1.363-.307-2.663-.407-1.768-.136-3.223.943-4.018.545-.542-.272-.2-3.337-1.02-11.238-.413-4.017-1.563-6.813-2.584-8.447-.293-.463.672-.888 1.02-1.293.405-.477.613-1.771.201-1.974-.408-.206-1.088.884-2.788.68-1.916-.23-8.383-1.84-10.084-1.77"/>
    </g>
</svg>
