<svg xmlns="http://www.w3.org/2000/svg" xmlns:xlink="http://www.w3.org/1999/xlink" width="602.252" height="126.188">
    <defs>
        <clipPath id="g">
            <path d="M194.114 722.6v-4.23l4.456-.42-.005 4.65h-4.451z"/>
        </clipPath>
        <clipPath id="h">
            <path d="M-.332.209H.26v.618h-.592V.21z"/>
        </clipPath>
        <radialGradient cx="0" cy="0" r="1" fx="0" fy="0" id="a" gradientUnits="userSpaceOnUse" gradientTransform="matrix(7.5149 0 0 -7.5149 196.613 724.169)" spreadMethod="pad">
            <stop offset="0" stop-color="#515b76"/>
            <stop offset="1" stop-color="#c7ccdb"/>
        </radialGradient>
        <clipPath id="j">
            <path d="M194.701 730.718h4.067l.001.001v7.131l-4.068-7.132z"/>
        </clipPath>
        <clipPath id="k">
            <path d="M-.899-1.084H.995v2.168H-.899v-2.168z"/>
        </clipPath>
        <linearGradient x1="0" y1="0" x2="1" y2="0" id="b" gradientUnits="userSpaceOnUse" gradientTransform="scale(3.78724 -3.78724) rotate(31.195 373.263 -3.986)" spreadMethod="pad">
            <stop offset="0" stop-color="#505a75"/>
            <stop offset="1" stop-color="#c7ccdb"/>
        </linearGradient>
        <clipPath id="m">
            <path d="M198.466 745.715c-.48-.389-.933-.798-1.272-1.303l-9.817-14.822c-.484-.715-.761-1.739-.761-2.452 0-2.651 2.15-4.307 4.147-4.42h7.802l.005-4.768 7.753.335v4.321h1.983c2.074 0 3.46 1.93 3.46 4.039 0 2.066-1.343 3.839-3.473 3.934l-1.971.134.002 10.239c0 3.355-2.416 5.974-4.501 5.974l-.236.006c-1.116 0-2.05-.347-3.121-1.217m.303-7.864v-7.133h-4.068l4.068 7.133z"/>
        </clipPath>
        <clipPath id="n">
            <path d="M-.004-1.022H2.02v2.115H-.004v-2.115z"/>
        </clipPath>
        <linearGradient x1="0" y1="0" x2="1" y2="0" id="c" gradientUnits="userSpaceOnUse" gradientTransform="scale(17.6536 -17.6536) rotate(27.656 90.497 .146)" spreadMethod="pad">
            <stop offset="0" stop-color="#bcc7d1"/>
            <stop offset="1" stop-color="#fff"/>
        </linearGradient>
        <clipPath id="p">
            <path d="M199.878 746.669l.017.005-.017-.005zm-3.723-1.168c-.424-.198-1.382-.733-1.861-1.409l-10.93-14.771c-.507-.752-.808-1.647-.808-2.409 0-2.677 2.086-4.199 4.346-4.199l3.633-.1c-2.17.119-4.145 1.938-4.145 4.525 0 .76.292 1.827.799 2.579l9.814 14.818c.358.53.81.991 1.331 1.364a5.5 5.5 0 0 0 1.544.77l-3.723-1.168zm-5.392-22.895l-.228.007.228-.007z"/>
        </clipPath>
        <clipPath id="q">
            <path d="M.014-.719h1.942V.742H.014v-1.46z"/>
        </clipPath>
        <linearGradient x1="0" y1="0" x2="1" y2="0" id="d" gradientUnits="userSpaceOnUse" gradientTransform="scale(12.9787 -12.9787) rotate(-86.047 -22.472 -35.662)" spreadMethod="pad">
            <stop offset="0" stop-color="#9b9bbd"/>
            <stop offset=".303" stop-color="#c7c7d5"/>
            <stop offset=".618" stop-color="#e9ecf0"/>
            <stop offset="1" stop-color="#bdc1d1"/>
        </linearGradient>
        <clipPath id="s">
            <path d="M198.513 737.401l-.001-6.337.256-.345.001.011v7.12h-.001l-.255-.449z"/>
        </clipPath>
        <clipPath id="t">
            <path d="M.109-4.256h.646v8.524H.11v-8.524z"/>
        </clipPath>
        <linearGradient x1="0" y1="0" x2="1" y2="0" id="e" gradientUnits="userSpaceOnUse" gradientTransform="matrix(.8366 -.03346 -.03346 -.8366 198.279 734.304)" spreadMethod="pad">
            <stop offset="0" stop-color="#b6c1d0"/>
            <stop offset="1" stop-color="#fff"/>
        </linearGradient>
        <clipPath id="v">
            <path d="M194.899 731.064l-.197-.346H198.769l-.257.346h-3.613z"/>
        </clipPath>
        <clipPath id="w">
            <path d="M.378-1.35h.464v2.72H.378v-2.72z"/>
        </clipPath>
        <linearGradient x1="0" y1="0" x2="1" y2="0" id="f" gradientUnits="userSpaceOnUse" gradientTransform="scale(-1.49987 1.49987) rotate(-85.03 200.473 315.523)" spreadMethod="pad">
            <stop offset="0" stop-color="#b6c1d0"/>
            <stop offset="1" stop-color="#fff"/>
        </linearGradient>
        <clipPath id="y">
            <path d="M447.173 712.999h61.971v12.986h-61.971v-12.986z"/>
        </clipPath>
        <radialGradient cx="0" cy="0" r="1" fx="0" fy="0" id="i" xlink:href="#a" gradientUnits="userSpaceOnUse" gradientTransform="matrix(7.5149 0 0 -7.5149 196.613 724.169)" spreadMethod="pad"/>
        <linearGradient x1="0" y1="0" x2="1" y2="0" id="l" xlink:href="#b" gradientUnits="userSpaceOnUse" gradientTransform="scale(3.78724 -3.78724) rotate(31.195 373.263 -3.986)" spreadMethod="pad"/>
        <linearGradient x1="0" y1="0" x2="1" y2="0" id="o" xlink:href="#c" gradientUnits="userSpaceOnUse" gradientTransform="scale(17.6536 -17.6536) rotate(27.656 90.497 .146)" spreadMethod="pad"/>
        <linearGradient x1="0" y1="0" x2="1" y2="0" id="r" xlink:href="#d" gradientUnits="userSpaceOnUse" gradientTransform="scale(12.9787 -12.9787) rotate(-86.047 -22.472 -35.662)" spreadMethod="pad"/>
        <linearGradient x1="0" y1="0" x2="1" y2="0" id="u" xlink:href="#e" gradientUnits="userSpaceOnUse" gradientTransform="matrix(.8366 -.03346 -.03346 -.8366 198.279 734.304)" spreadMethod="pad"/>
        <linearGradient x1="0" y1="0" x2="1" y2="0" id="x" xlink:href="#f" gradientUnits="userSpaceOnUse" gradientTransform="scale(-1.49987 1.49987) rotate(-85.03 200.473 315.523)" spreadMethod="pad"/>
    </defs>
    <g clip-path="url(#g)" transform="matrix(1.25 0 0 -1.25 369.692 817.14)">
        <g clip-path="url(#h)">
            <path d="M194.114 722.6v-4.23l4.456-.42-.005 4.65h-4.451z" fill="url(#i)"/>
        </g>
    </g>
    <g clip-path="url(#j)" transform="matrix(1.25 0 0 -1.25 369.692 817.14)">
        <g clip-path="url(#k)">
            <path d="M194.701 730.718h4.067l.001.001v7.131l-4.068-7.132z" fill="url(#l)"/>
        </g>
    </g>
    <g clip-path="url(#m)" transform="matrix(1.25 0 0 -1.25 369.692 817.14)">
        <g clip-path="url(#n)">
            <path d="M198.466 745.715c-.48-.389-.933-.798-1.272-1.303l-9.817-14.822c-.484-.715-.761-1.739-.761-2.452 0-2.651 2.15-4.307 4.147-4.42h7.802l.005-4.768 7.753.335v4.321h1.983c2.074 0 3.46 1.93 3.46 4.039 0 2.066-1.343 3.839-3.473 3.934l-1.971.134.002 10.239c0 3.355-2.416 5.974-4.501 5.974l-.236.006c-1.116 0-2.05-.347-3.121-1.217m.303-7.864v-7.133h-4.068l4.068 7.133z" fill="url(#o)"/>
        </g>
    </g>
    <g clip-path="url(#p)" transform="matrix(1.25 0 0 -1.25 369.692 817.14)">
        <g clip-path="url(#q)">
            <path d="M199.878 746.669l.017.005-.017-.005zm-3.723-1.168c-.424-.198-1.382-.733-1.861-1.409l-10.93-14.771c-.507-.752-.808-1.647-.808-2.409 0-2.677 2.086-4.199 4.346-4.199l3.633-.1c-2.17.119-4.145 1.938-4.145 4.525 0 .76.292 1.827.799 2.579l9.814 14.818c.358.53.81.991 1.331 1.364a5.5 5.5 0 0 0 1.544.77l-3.723-1.168zm-5.392-22.895l-.228.007.228-.007z" fill="url(#r)"/>
        </g>
    </g>
    <g clip-path="url(#s)" transform="matrix(1.25 0 0 -1.25 369.692 817.14)">
        <g clip-path="url(#t)">
            <path d="M198.513 737.401l-.001-6.337.256-.345.001.011v7.12h-.001l-.255-.449z" fill="url(#u)"/>
        </g>
    </g>
    <g clip-path="url(#v)" transform="matrix(1.25 0 0 -1.25 369.692 817.14)">
        <g clip-path="url(#w)">
            <path d="M194.899 731.064l-.197-.346H198.769l-.257.346h-3.613z" fill="url(#x)"/>
        </g>
    </g>
    <path d="M124.908 0v126.188h7.406V0h-7.406z" style="text-indent:0;text-align:start;line-height:normal;text-transform:none;block-progression:tb;marker:none;-inkscape-font-specification:Bitstream Vera Sans" font-weight="400" color="#000" fill="#f60" stroke-width="7.425" overflow="visible" font-family="Bitstream Vera Sans"/>
    <path d="M11.03 48.488H0v56.96h21.283c6.521-.069 11.546-1.974 15.064-5.725 3.528-3.751 5.316-8.99 5.355-15.724 0-2.78-.38-5.326-1.128-7.649a20.08 20.08 0 0 0-3.401-6.336c-1.953-2.459-4.276-4.16-6.958-5.093-2.683-.933-5.9-1.38-9.641-1.34H11.03V48.487zm6.755 24.14c4.276-.058 7.395.836 9.388 2.682 1.982 1.847 2.964 5.005 2.935 9.486.039 4.305-.846 7.347-2.653 9.115-1.798 1.77-4.733 2.624-8.796 2.566H11.03V72.628h6.755z" fill="#f60" fill-rule="evenodd"/>
    <path d="M78.119 76.844l9.135 28.601h12.712l14.14-41.867h-11.361l-9.213 29.32-9.3-29.32h-11.75l-9.145 29.32-9.213-29.32H42.53l14.616 41.867h12.236l8.737-28.601z" fill="#f60"/>
    <path d="M143.176 70.36v34.725h15.88V74.14h45.462V61.11h-45.463c.068-6.443 1.72-11.118 4.937-14.034 3.217-2.905 8.203-4.334 14.957-4.285h25.57V29.65h-24.21c-6.977-.02-12.905.67-17.765 2.06-4.869 1.39-8.766 3.577-11.69 6.56-3.315 3.431-5.443 7.766-6.405 13.014-.953 5.247-1.38 11.603-1.273 19.077" fill="#044c98"/>
    <path d="M232.222 93.943c-2.683.068-4.685-.234-6.016-.895-1.322-.67-1.992-2.128-1.983-4.373-.02-2.43.72-4.082 2.197-4.966 1.477-.884 3.76-1.302 6.851-1.254h17.27v11.488h-18.32zm-19.466-44.307v11.458h24.412c4.607-.068 7.979.544 10.107 1.837 2.138 1.283 3.188 3.664 3.159 7.124v1.37h-19.262c-7.687-.068-13.305 1.273-16.852 4.023-3.537 2.741-5.287 7.299-5.248 13.645.03 5.131 1.507 9.077 4.432 11.827 2.935 2.75 7.172 4.13 12.712 4.16h39.369V70.366c-.01-6.852-1.915-12.012-5.734-15.492-3.82-3.479-9.514-5.228-17.095-5.238h-30z" fill="#044c98" fill-rule="evenodd"/>
    <path d="M278.399 49.64v55.444h14.723V61.837h17.163v43.247h14.937V61.837h8.212c3.81-.088 6.356.583 7.658 1.992 1.312 1.419 1.915 4.091 1.817 8.008v33.247h14.724V69.942c.039-7.25-1.798-12.46-5.52-15.637-3.722-3.178-9.563-4.733-17.523-4.665H278.4zM417.522 29.646h-15.249v75.435h15.249V29.646zM453.863 92.889c-3.907.097-6.521-.573-7.843-1.983-1.332-1.418-1.944-4.169-1.847-8.231V49.642h-14.51v34.19c-.048 7.706 1.76 13.187 5.443 16.462 3.683 3.285 9.544 4.88 17.6 4.792h12.955v.942c-.01 2.547-.758 4.49-2.245 5.85-1.477 1.361-3.645 2.042-6.502 2.061h-26.2v11.244h28.727c7.085.01 12.333-1.768 15.744-5.335 3.411-3.576 5.112-8.98 5.092-16.24V49.642h-14.616V92.89h-11.798z" fill="#044c98"/>
    <path d="M370.397 43.185l-.087-13.635h15.248l.01 13.664-15.17-.029z" fill="#f60"/>
    <path d="M385.568 105.063h-15.316v-55.2l15.316-.02v55.22z" fill="#044c98"/>
    <path d="M495.494 49.902v11.04h10.312v27.046c.039 5.695 1.496 10.01 4.383 12.945 2.886 2.925 6.997 4.402 12.342 4.412h13.363v-11.04h-5.996c-3.664.03-6.181-.836-7.542-2.585-1.36-1.76-2.002-4.539-1.934-8.358v-22.42h15.472v-11.04h-15.472V29.91h-14.616V49.9h-10.312zM538.383 49.902l23.47 55.443h15.782l24.617-55.443H586.47l-16.307 39.35-15.365-39.35h-16.414z" fill="#f60"/>
    <g transform="matrix(9.71842 0 0 -9.71842 -4345.824 7055.41)" clip-path="url(#y)" fill="#044c98">
        <path d="M497.422 715.74a.673.673 0 0 1 .2-.483.694.694 0 0 1 .492-.198.678.678 0 0 1 .693.681.71.71 0 0 1-.2.498.684.684 0 0 1-.493.205.684.684 0 0 1-.492-.205.705.705 0 0 1-.2-.498"/>
    </g>
</svg>
