<svg version="1.1" viewBox="0 0 602.25 126.19" xmlns="http://www.w3.org/2000/svg" xmlns:xlink="http://www.w3.org/1999/xlink">
 <defs>
  <clipPath id="s">
   <path d="m194.11 722.6v-4.23l4.456-0.42-5e-3 4.65h-4.451z"/>
  </clipPath>
  <clipPath id="r">
   <path d="m-0.33247 0.20874h0.59288v0.61873h-0.59288v-0.61873z"/>
  </clipPath>
  <clipPath id="q">
   <path d="m194.7 730.72h4.067l1e-3 1e-3v7.131l-4.068-7.132z"/>
  </clipPath>
  <clipPath id="p">
   <path d="m-0.899-1.0837h1.8941v2.1673h-1.8941v-2.1673z"/>
  </clipPath>
  <clipPath id="o">
   <path d="m198.47 745.72c-0.48-0.389-0.933-0.798-1.272-1.303l-9.817-14.822c-0.484-0.715-0.761-1.739-0.761-2.452 0-2.651 2.15-4.307 4.147-4.42h7.802l5e-3 -4.768 7.753 0.335v4.321h1.983c2.074 0 3.46 1.93 3.46 4.039 0 2.066-1.343 3.839-3.473 3.934l-1.971 0.134 2e-3 10.239c0 3.355-2.416 5.974-4.501 5.974l-0.236 6e-3c-1.116 0-2.05-0.347-3.121-1.217m0.303-7.864v-7.133h-4.068l4.068 7.133z"/>
  </clipPath>
  <clipPath id="n">
   <path d="m-0.003952-1.0221h2.0239v2.1154h-2.0239v-2.1154z"/>
  </clipPath>
  <clipPath id="m">
   <path d="m199.88 746.67 0.017 5e-3 -0.017-5e-3zm-3.723-1.168c-0.424-0.198-1.382-0.733-1.861-1.409l-10.93-14.771c-0.507-0.752-0.808-1.647-0.808-2.409 0-2.677 2.086-4.199 4.346-4.199l3.633-0.1c-2.17 0.119-4.145 1.938-4.145 4.525 0 0.76 0.292 1.827 0.799 2.579l9.814 14.818c0.358 0.53 0.81 0.991 1.331 1.364 0.466 0.333 0.984 0.593 1.544 0.77l-3.723-1.168zm-5.392-22.895-0.228 7e-3 0.228-7e-3z"/>
  </clipPath>
  <clipPath id="l">
   <path d="m0.014053-0.71864h1.9421v1.4607h-1.9421v-1.4607z"/>
  </clipPath>
  <clipPath id="k">
   <path d="m198.51 737.4-1e-3 -6.337 0.256-0.345 1e-3 0.011v7.12h-1e-3l-0.255-0.449z"/>
  </clipPath>
  <clipPath id="j">
   <path d="m0.10861-4.2561h0.64665v8.5245h-0.64665v-8.5245z"/>
  </clipPath>
  <clipPath id="i">
   <path d="m194.9 731.06-0.197-0.346h1e-3 4.065 1e-3l-0.257 0.346h-3.613z"/>
  </clipPath>
  <clipPath id="h">
   <path d="m0.37798-1.3507h0.46439v2.7214h-0.46439v-2.7214z"/>
  </clipPath>
  <clipPath id="g">
   <path d="m447.17 713h61.971v12.986h-61.971v-12.986z"/>
  </clipPath>
  <radialGradient id="a" cx="0" cy="0" r="1" gradientTransform="matrix(7.5149 0 0 -7.5149 196.61 724.17)" gradientUnits="userSpaceOnUse">
   <stop stop-color="#515b76" offset="0"/>
   <stop stop-color="#c7ccdb" offset="1"/>
  </radialGradient>
  <linearGradient id="f" x2="1" gradientTransform="matrix(3.2396 -1.9616 -1.9616 -3.2396 196.58 734.38)" gradientUnits="userSpaceOnUse">
   <stop stop-color="#505a75" offset="0"/>
   <stop stop-color="#c7ccdb" offset="1"/>
  </linearGradient>
  <linearGradient id="e" x2="1" gradientTransform="matrix(15.637 -8.1942 -8.1942 -15.637 183.72 741.26)" gradientUnits="userSpaceOnUse">
   <stop stop-color="#bcc7d1" offset="0"/>
   <stop stop-color="#fff" offset="1"/>
  </linearGradient>
  <linearGradient id="d" x2="1" gradientTransform="matrix(.89478 12.948 12.948 -.89478 190.19 721.9)" gradientUnits="userSpaceOnUse">
   <stop stop-color="#9b9bbd" offset="0"/>
   <stop stop-color="#c7c7d5" offset=".30338"/>
   <stop stop-color="#e9ecf0" offset=".61798"/>
   <stop stop-color="#bdc1d1" offset="1"/>
  </linearGradient>
  <linearGradient id="c" x2="1" gradientTransform="matrix(.83661 -.033462 -.033462 -.83661 198.28 734.3)" gradientUnits="userSpaceOnUse">
   <stop stop-color="#b6c1d0" offset="0"/>
   <stop stop-color="#fff" offset="1"/>
  </linearGradient>
  <linearGradient id="b" x2="1" gradientTransform="matrix(-.12993 -1.4942 -1.4942 .12993 196.83 731.8)" gradientUnits="userSpaceOnUse">
   <stop stop-color="#b6c1d0" offset="0"/>
   <stop stop-color="#fff" offset="1"/>
  </linearGradient>
 </defs>
 <g transform="translate(553.78 -234.66)">
  <g transform="matrix(1.25 0 0 -1.25 -184.09 1051.8)">
   <g clip-path="url(#s)">
    <g clip-path="url(#r)">
     <path d="m194.11 722.6v-4.23l4.456-0.42-5e-3 4.65h-4.451z" fill="url(#a)"/>
    </g>
   </g>
  </g>
  <g transform="matrix(1.25 0 0 -1.25 -184.09 1051.8)">
   <g clip-path="url(#q)">
    <g clip-path="url(#p)">
     <path d="m194.7 730.72h4.067l1e-3 1e-3v7.131l-4.068-7.132z" fill="url(#f)"/>
    </g>
   </g>
  </g>
  <g transform="matrix(1.25 0 0 -1.25 -184.09 1051.8)">
   <g clip-path="url(#o)">
    <g clip-path="url(#n)">
     <path d="m198.47 745.72c-0.48-0.389-0.933-0.798-1.272-1.303l-9.817-14.822c-0.484-0.715-0.761-1.739-0.761-2.452 0-2.651 2.15-4.307 4.147-4.42h7.802l5e-3 -4.768 7.753 0.335v4.321h1.983c2.074 0 3.46 1.93 3.46 4.039 0 2.066-1.343 3.839-3.473 3.934l-1.971 0.134 2e-3 10.239c0 3.355-2.416 5.974-4.501 5.974l-0.236 6e-3c-1.116 0-2.05-0.347-3.121-1.217m0.303-7.864v-7.133h-4.068l4.068 7.133z" fill="url(#e)"/>
    </g>
   </g>
  </g>
  <g transform="matrix(1.25 0 0 -1.25 -184.09 1051.8)">
   <g clip-path="url(#m)">
    <g clip-path="url(#l)">
     <path d="m199.88 746.67 0.017 5e-3 -0.017-5e-3zm-3.723-1.168c-0.424-0.198-1.382-0.733-1.861-1.409l-10.93-14.771c-0.507-0.752-0.808-1.647-0.808-2.409 0-2.677 2.086-4.199 4.346-4.199l3.633-0.1c-2.17 0.119-4.145 1.938-4.145 4.525 0 0.76 0.292 1.827 0.799 2.579l9.814 14.818c0.358 0.53 0.81 0.991 1.331 1.364 0.466 0.333 0.984 0.593 1.544 0.77l-3.723-1.168zm-5.392-22.895-0.228 7e-3 0.228-7e-3z" fill="url(#d)"/>
    </g>
   </g>
  </g>
  <g transform="matrix(1.25 0 0 -1.25 -184.09 1051.8)">
   <g clip-path="url(#k)">
    <g clip-path="url(#j)">
     <path d="m198.51 737.4-1e-3 -6.337 0.256-0.345 1e-3 0.011v7.12h-1e-3l-0.255-0.449z" fill="url(#c)"/>
    </g>
   </g>
  </g>
  <g transform="matrix(1.25 0 0 -1.25 -184.09 1051.8)">
   <g clip-path="url(#i)">
    <g clip-path="url(#h)">
     <path d="m194.9 731.06-0.197-0.346h1e-3 4.065 1e-3l-0.257 0.346h-3.613z" fill="url(#b)"/>
    </g>
   </g>
  </g>
  <path d="m-428.88 234.66v126.19h7.4062v-126.19h-7.4062z" color="#000000" fill="#f60" style="block-progression:tb;text-indent:0;text-transform:none"/>
  <path d="m-542.75 283.14h-11.03v56.96h21.283c6.5211-0.068 11.545-1.9728 15.064-5.7242 3.5278-3.7513 5.316-8.9895 5.3548-15.724 0-2.7795-0.37902-5.3257-1.1273-7.6484-0.75803-2.3227-1.8854-4.4316-3.4014-6.3364-1.9534-2.4588-4.2761-4.1595-6.9584-5.0924-2.6823-0.93297-5.8991-1.38-9.6407-1.3411h-9.5435v-15.093zm6.7543 24.141c4.2761-0.0583 7.3957 0.83578 9.388 2.6823 1.9826 1.8465 2.9641 5.005 2.935 9.4852 0.0389 4.3053-0.8455 7.3471-2.6531 9.1159-1.7979 1.7688-4.7329 2.624-8.7952 2.5657h-7.629v-23.849h6.7543z" fill="#f60" fill-rule="evenodd"/>
  <path d="m-475.66 311.5 9.1353 28.601h12.712l14.14-41.867h-11.361l-9.2131 29.32-9.3005-29.32h-11.75l-9.145 29.32-9.2131-29.32h-11.594l14.616 41.867h12.235l8.7369-28.601z" fill="#f60"/>
  <path d="m-410.61 305.02v34.724h15.88v-30.943h45.463v-13.032h-45.463c0.068-6.4433 1.7202-11.118 4.937-14.033 3.2168-2.9058 8.2023-4.3344 14.957-4.2858h25.569v-13.139h-24.209c-6.9778-0.0194-12.906 0.67058-17.765 2.0603-4.8689 1.3897-8.766 3.5764-11.691 6.5599-3.314 3.4306-5.4423 7.765-6.4044 13.013-0.9524 5.2479-1.38 11.604-1.2731 19.077" fill="#044c98"/>
  <path d="m-321.56 328.6c-2.6823 0.068-4.6843-0.23324-6.0157-0.89409-1.3217-0.67057-1.9923-2.1283-1.9826-4.3733-0.0194-2.4296 0.71917-4.0817 2.1964-4.9661 1.4772-0.88438 3.761-1.3023 6.8515-1.2537h17.27v11.487h-18.319zm-19.466-44.306v11.458h24.413c4.6065-0.068 7.9788 0.54423 10.107 1.8368 2.138 1.2828 3.1876 3.6638 3.1585 7.1236v1.3703h-19.262c-7.6873-0.068-13.305 1.2731-16.852 4.0234-3.5375 2.7406-5.2868 7.2985-5.248 13.645 0.0292 5.1313 1.5064 9.077 4.4316 11.827 2.935 2.7503 7.1722 4.1303 12.712 4.1595h39.369v-34.714c-0.01-6.8515-1.9145-12.012-5.7339-15.491-3.8193-3.4792-9.5143-5.2285-17.095-5.2382h-30.001z" fill="#044c98" fill-rule="evenodd"/>
  <path d="m-275.38 284.3v55.444h14.723v-43.247h17.163v43.247h14.937v-43.247h8.2121c3.8096-0.0875 6.3558 0.58311 7.6581 1.9923 1.312 1.4189 1.9145 4.0914 1.8174 8.008v33.247h14.723v-35.142c0.0389-7.2499-1.7979-12.459-5.5201-15.637-3.7222-3.1779-9.5629-4.7329-17.522-4.6648h-56.192z" fill="#044c98"/>
  <path d="m-136.26 264.3h-15.248v75.434h15.248v-75.434z" fill="#044c98"/>
  <path d="m-99.92 327.55c-3.9068 0.0972-6.5211-0.57339-7.8428-1.9826-1.3314-1.4189-1.9437-4.1692-1.8465-8.2315v-33.033h-14.51v34.189c-0.0486 7.7067 1.759 13.188 5.4423 16.463 3.6833 3.2848 9.5435 4.8786 17.6 4.7912h12.955v0.94269c-0.0097 2.5462-0.75804 4.4899-2.245 5.8505-1.4772 1.3606-3.6444 2.0409-6.5016 2.0603h-26.201v11.244h28.728c7.0847 0.01 12.333-1.7688 15.744-5.3354 3.4112-3.5764 5.1119-8.9798 5.0924-16.239v-53.966h-14.616v43.247h-11.798z" fill="#044c98"/>
  <path d="m-183.39 277.84-0.0875-13.635h15.248l0.01 13.664-15.17-0.0292z" fill="#f60"/>
  <path d="m-168.21 339.72h-15.316v-55.201l15.316-0.0194v55.22z" fill="#044c98"/>
  <path d="m-58.288 284.56v11.04h10.311v27.046c0.03887 5.695 1.4966 10.01 4.383 12.945 2.8864 2.9252 6.9973 4.4024 12.342 4.4122h13.363v-11.04h-5.9963c-3.6638 0.0292-6.1809-0.83578-7.5415-2.5851-1.3606-1.759-2.002-4.5385-1.934-8.3578v-22.42h15.472v-11.04h-15.472v-19.991h-14.616v19.991h-10.311z" fill="#f60"/>
  <path d="m-15.4 284.56 23.47 55.444h15.783l24.617-55.444h-15.783l-16.308 39.35-15.365-39.35h-16.414z" fill="#f60"/>
  <g transform="matrix(9.7184 0 0 -9.7184 -4899.6 7290.1)" clip-path="url(#g)" fill="#044c98">
   <g transform="translate(497.42 715.74)" fill="#044c98">
    <path d="m0 0c4e-3 -0.194 0.071-0.355 0.2-0.483 0.129-0.127 0.293-0.194 0.492-0.198 0.2 4e-3 0.364 0.071 0.493 0.198 0.129 0.128 0.195 0.289 0.2 0.483-5e-3 0.2-0.071 0.366-0.2 0.498s-0.293 0.2-0.493 0.205c-0.199-5e-3 -0.363-0.073-0.492-0.205s-0.196-0.298-0.2-0.498" fill="#044c98"/>
   </g>
  </g>
 </g>
</svg>
