<svg width="100mm" height="69.42mm" viewBox="0 0 100 69.42" xmlns="http://www.w3.org/2000/svg">
    <path d="M34.716.005A34.705 34.702 0 0 0 .01 34.707 34.705 34.702 0 0 0 34.716 69.41a34.705 34.702 0 0 0 34.14-28.65V28.544A34.705 34.702 0 0 0 34.717.005z" fill="#fff" stroke-width="3.78"/>
    <g stroke-width="2.394">
        <path d="M96.344 28.469L90.57 44.835h-.04l-5.784-16.366H75.72v-5.216h-3.413l.014 17.604c0 2.54.759 4.701 2.238 6.21 1.477 1.52 3.598 2.324 6.1 2.355h2.647l-1.187-3.256h-.228c-1.163 0-1.21 0-1.247-.004l-.014-.005c-1.652-.036-2.942-.627-3.797-1.69-.694-.876-1.103-1.97-1.103-3.442l-.01-9.255h6.566l6.401 17.668h3.71L100 28.47z" fill="#51c8e7" opacity=".98"/>
        <path d="M39.076 58.281h-5.575l3.382-9.013-7.835-20.797 2.81.003c1.58 0 3.27 1.276 3.802 2.848l4.031 11.28 4.845-14.13h5.63zm-19.189-8.792c-6.174 0-10.511-4.862-10.511-10.82V19.174h2.485a2.847 2.847 0 0 1 2.765 2.75v7.806c1.522-.878 3.325-1.403 5.333-1.403 2.36 0 4.455.728 6.137 1.932l.091.062.446.348.514.45.084.067c1.965 1.893 3.172 4.612 3.172 7.66 0 5.78-4.306 10.643-10.516 10.643m46.284-1.815v.005l-.132.081-.32.22-.197.132-.048.039v-.005c-1.41.85-3.13 1.345-5.089 1.345-5.735 0-9.12-3.792-9.12-9.173V28.476l2.41.002a2.832 2.832 0 0 1 2.835 2.782v9.218c0 1.166.418 3.914 3.875 3.914 2.308 0 3.98-1.637 3.98-3.914V28.476h1.11v-.004h3.382C65.922 12.272 51.749 0 34.705 0 15.545 0 0 15.538 0 34.707s15.545 34.712 34.705 34.712c14.992 0 27.768-9.504 32.618-22.815a8.005 8.005 0 0 1-1.152 1.07" fill="#023151" opacity=".98"/>
        <path d="M23.454 34.952a4.81 4.81 0 0 0-.735-.572l.015-.02a4.896 4.896 0 0 0-2.775-.856c-2.937 0-5.3 2.492-5.3 5.604l.007.174h-.007c.273 2.866 2.504 5.109 5.228 5.109 2.916 0 5.252-2.478 5.252-5.542a5.45 5.45 0 0 0-.546-2.387 5.778 5.778 0 0 0-1.139-1.51" fill="#023151" opacity=".98"/>
    </g>
</svg>
