<svg width="800.013" height="378.671" viewBox="0 0 211.67 100.19" xmlns="http://www.w3.org/2000/svg">
    <path d="M211.63 59.886c.192-14.566-.22-16.92-3.908-22.383-7.873-11.66-24.446-13-34.534-2.792-5.586 5.651-5.87 8.424-5.87 24.512V72.39l10.06-.001V60.348c0-11.274.548-13.554 1.741-15.617 2.132-3.684 5.952-5.734 10.318-5.687 4.71.114 7.102 1.26 9.497 4.887 1.111 1.822 2.562 3.204 2.562 16.03v12.427h10.06V59.885zM135.96 39.214c4.909-.07 11.139 3.516 11.383 8.862h-22.765c.09-5.367 6.812-8.787 11.383-8.862zm21.444 22.71c0-15.093.57-21.497-5.533-27.571-4.314-4.293-9.686-6.46-15.911-6.42-6.189.04-10.371 1.685-14.882 5.783-7.087 6.439-6.551 14.174-6.56 28.95l-.006 9.724h10.064V58.42l22.765-.002v13.97l10.061.002z" fill="#fff" stroke-width=".734"/>
    <path d="M95.96 50.093a45.875 45.875 0 0 1-45.875 45.875A45.875 45.875 0 0 1 4.21 50.093 45.875 45.875 0 0 1 50.085 4.218 45.875 45.875 0 0 1 95.96 50.093z" fill="#fe9500" fill-rule="evenodd" stroke="#fe9500" stroke-width="8.436"/>
    <path d="M106.48 62.209H89.873c-9.872 0-12.518-.681-15.546-4.003-2.766-4.23-3.114-10.652-.618-14.46 3.19-4.794 5.13-5.851 19.574-5.59h13.197v-10.18h-2.766c-5.686 0-23.167-.52-27.04.643-8.873 2.667-15.654 11.808-15.727 21.201-.07 9.16 4.167 16.534 12.003 20.888 4.052 2.252 8.234 1.68 27.45 1.68h6.08z" fill="#fff" stroke-width=".734"/>
</svg>
