<svg version="1.1" viewBox="0 0 600 109.29" xmlns="http://www.w3.org/2000/svg">
 <path d="m0 109.29h600v-109.29h-600v109.29z" fill="#000408"/>
 <path d="m81.152 26.781 0.24833-1.6181-0.79253-1.3209c-6.2082-4.0617-13.787-6.0926-22.703-6.0926-11.195 0-20.441 3.5169-27.755 10.534-7.2814 7.0337-10.93 15.95-10.93 26.731 0 10.419 3.3518 18.872 10.039 25.328 6.7035 6.4724 15.487 9.692 26.335 9.692 6.01 0 10.749-1.0395 14.2-3.1206l1.2548-2.5922 1.9153-13.473c0.11888-1.0078-0.41212-0.85858-3.0711-0.01324-5.1184 1.486-9.3453 2.229-12.598 2.229-5.2505 0-9.5764-1.7667-12.961-5.267-3.4013-3.5334-5.1019-7.9914-5.1019-13.407 0-5.8449 1.9318-10.6 5.8119-14.299 3.8801-3.682 8.883-5.5477 15.108-5.5477 5.944 0 11.079 1.3869 15.339 4.1278l2.4436 1.2548 0.95764-1.9813 2.262-11.162" fill="#fff"/>
 <path d="m132.7 21.514-1.519-1.453h-20.639l-2.0639 1.2707-31.8 64.344-0.18229 0.79253 0.72648 0.62742h17.32l2.1299-1.0739 4.491-9.2132 1.7832-1.0739h21.795l1.453 1.173 2.3116 9.2958 1.2377 0.8916h15.471l0.80971-0.8097v-0.3474l-13.324-64.426zm-10.897 39.214h-12.978l-0.59439-0.26418 0.1651-0.54421 8.6683-19.632 0.46232-0.6446 0.44513 0.8916 4.5406 19.037 0.18229 0.79254-0.8916 0.36325" fill="#fff"/>
 <path d="m154.51 86.204 1.5025 0.8916h14.926l1.4365-1.2548 5.3661-38.24 0.26419-1.173 0.69346 0.90878 21.91 38.504 2.1464 1.2548h15.273l1.7006-1.0739 8.949-64.971-1.1888-0.99067h-15.801l-1.7997 1.3539-4.8047 34.657-0.44514 1.3539-0.8097-0.99066-20.044-35.103-2.0969-1.2707h-17.006l-1.4365 1.173-8.7344 64.971" fill="#fff"/>
 <path d="m296.13 85.676-13.49-64.261-1.6016-1.3539h-19.665l-1.9648 1.173-31.619 64.608-0.28135 0.8097 0.72648 0.44514h17.139l1.8658-1.0078 4.8378-9.3618 1.8823-0.99066h20.622l1.8823 1.42 1.6841 8.6848 1.7337 1.2548h15.273l1.0726-0.54421-0.0924-0.87575m-23.149-25.576-0.95764 0.62743h-12.07l-1.1558-0.52836 0.1651-0.8097 8.7509-19.747 0.52835-0.80839 0.36325 0.80839 4.2764 19.566 0.0925 0.44514v0.44513" fill="#fff"/>
 <path d="m314.09 20.061-1.1558 1.453-9.2958 64.872 0.80838 0.71064h37.53l1.3209-1.0739 1.7832-13.143-0.89159-0.8916h-17.948l-1.0897-0.97482v-0.18096l6.72-49.963-0.90877-0.80839h-16.874" fill="#fff"/>
 <path d="m392.01 61.818 1.1558-1.173h22.158l0.97482-1.0739v-18.228l-0.97482-1.173h-22.406l-0.90877-1.2548v-20.622l-1.1558-0.90877h-18.245l-0.87574 0.90877v20.622l-1.0726 1.2548h-23.958l-0.99067 0.99066v18.327l1.0739 1.1558h23.776l1.173 1.3374v24.04l0.97481 1.0739h18.294l1.0078-1.2548v-24.024" fill="#fff"/>
 <path d="m437.85 9.0033c50.699 0 101.38 0.014239 152.08 0-0.1196 30.417 0.15947 60.849-0.14619 91.28-50.646-0.19927-101.29 0.0427-151.94-0.12811 0.0266-30.389 0.0132-60.763 0-91.152z" fill="#f00"/>
 <g fill="#fff">
  <path d="m452.39 66.221h17.771c0.29035 2.0036 0.6025 3.4337 0.93645 4.2902 0.3339 0.85661 0.9945 1.7785 1.9818 2.7658 1.8874 1.8003 4.1232 2.7005 6.7076 2.7004 2.6424 1.2e-5 4.7766-0.8711 6.4027-2.6133 1.626-1.7422 2.4391-3.9635 2.4391-6.664-4e-5 -5.7203-3.4264-8.5804-10.279-8.5805h-0.60978c-0.43559 2.9e-5 -0.76951 0.02907-1.0018 0.08711v-11.673h1.0018c5.6332 4.1e-5 8.4498-2.3229 8.4498-6.9689-3e-5 -4.762-2.2504-7.1431-6.7511-7.1431-4.675 5.5e-5 -7.1432 2.6279-7.4045 7.8836h-15.985c0.60977-4.2974 1.597-7.7529 2.9618-10.366 4.1523-7.7238 11.252-11.586 21.299-11.586 4.1813 7e-5 7.9271 0.76955 11.237 2.3084 3.3102 1.539 5.9235 3.7967 7.84 6.7729 1.9164 2.9764 2.8746 6.4536 2.8747 10.432-5e-5 3.9781-1.0744 7.3464-3.2231 10.105-1.1035 1.3067-2.4392 2.4972-4.0071 3.5716 2.41 0.78404 4.2539 1.8149 5.5316 3.0925 3.5715 3.4845 5.3573 8.1594 5.3574 14.025-6e-5 4.3556-1.118 8.203-3.3538 11.542-2.2359 3.3393-5.3356 5.9091-9.2991 7.7094-3.9636 1.8003-8.4861 2.7004-13.568 2.7004-6.1559-3e-6 -12.108-1.9745-17.858-5.9236-3.0779-2.0907-5.2993-4.5007-6.664-7.2302-1.3648-2.7295-2.2939-6.4753-2.7876-11.237z"/>
  <path d="m516.94 87.651v-66.901h25.611c8.7982 6.7e-5 16.464 3.3538 22.997 10.061 6.5914 6.6786 9.8871 14.475 9.8871 23.389-7e-5 9.0015-3.2667 16.856-9.8 23.564-6.5044 6.5914-14.199 9.8871-23.084 9.8871zm17.379-14.722h3.92c5.7203 1.4e-5 10.315-1.6987 13.785-5.096 3.4699-3.3973 5.2048-7.9416 5.2049-13.633-5e-5 -5.6912-1.735-10.236-5.2049-13.633-3.47-3.3973-8.0651-5.096-13.785-5.096h-3.92z"/>
 </g>
</svg>
