<?xml version="1.0" encoding="UTF-8" standalone="no"?>
<!-- Created with Inkscape (http://www.inkscape.org/) -->

<svg
   xmlns:dc="http://purl.org/dc/elements/1.1/"
   xmlns:cc="http://creativecommons.org/ns#"
   xmlns:rdf="http://www.w3.org/1999/02/22-rdf-syntax-ns#"
   xmlns:svg="http://www.w3.org/2000/svg"
   xmlns="http://www.w3.org/2000/svg"
   version="1.1"
   width="600"
   height="141.45358"
   id="svg126199">
  <defs
     id="defs126201">
    <clipPath
       id="clipPath108788">
      <path
         d="m 0,0 524.409,0 0,651.968 L 0,651.968 0,0 z"
         id="path108790" />
    </clipPath>
  </defs>
  <metadata
     id="metadata126204">
    <rdf:RDF>
      <cc:Work
         rdf:about="">
        <dc:format>image/svg+xml</dc:format>
        <dc:type
           rdf:resource="http://purl.org/dc/dcmitype/StillImage" />
        <dc:title></dc:title>
      </cc:Work>
    </rdf:RDF>
  </metadata>
  <g
     transform="matrix(1.8107328,0,0,1.8107328,-264.08911,-497.75324)"
     id="g3033">
    <g
       transform="matrix(14.216473,0,0,-14.216473,-5853.7041,5880.3605)"
       id="g108784">
      <g
         clip-path="url(#clipPath108788)"
         id="g108786">
        <path
           d="m 422.014,388.799 23.308,0 0,5.495 -23.308,0 0,-5.495 z"
           id="path108792"
           style="fill:#231f20;fill-opacity:1;fill-rule:nonzero;stroke:none" />
      </g>
    </g>
    <g
       id="text108794"
       style="font-size:170.59767151px">
      <path
         d="m 163.97898,332.55105 18.35502,-37.09646 3.06722,0 -0.33812,-1.56984 9.24996,0 2.97062,12.36549 -1.7389,0 6.37596,26.30081 -9.90205,0 -1.61814,-6.78653 -12.92097,0 -3.11553,6.78653 z m 16.97839,-14.20099 7.55937,0 -1.37663,-6.47256 c -0.0322,-0.17709 -0.0966,-0.45886 -0.19321,-0.8453 -0.0966,-0.3864 -0.15298,-0.65206 -0.16906,-0.79699 l -0.19321,-0.82115 c -0.16103,-0.94993 -0.32204,-1.98843 -0.48302,-3.11552 -0.46695,1.48131 -1.03048,2.94649 -1.6906,4.39554 z"
         id="path3017"
         style="font-size:49.46195221px;font-style:oblique;font-variant:normal;font-weight:normal;font-stretch:normal;writing-mode:lr-tb;fill:#ffffff;fill-opacity:1;fill-rule:nonzero;stroke:none;font-family:CanalBoldItalique;-inkscape-font-specification:CanalBoldItalique Oblique" />
      <path
         d="m 220.08311,332.50275 4.54045,-37.09647 9.39487,0 -3.55025,28.93331 11.81001,0 -0.9902,8.16316 z"
         id="path3019"
         style="font-size:49.46195221px;font-style:oblique;font-variant:normal;font-weight:normal;font-stretch:normal;writing-mode:lr-tb;fill:#ffffff;fill-opacity:1;fill-rule:nonzero;stroke:none;font-family:CanalBoldItalique;-inkscape-font-specification:CanalBoldItalique Oblique" />
      <path
         d="m 242.91999,332.50275 18.35502,-37.09647 10.57829,0 9.00845,37.09647 -9.90205,0 -1.61814,-6.78653 -12.92097,0 -3.11553,6.78653 z m 16.97839,-14.20099 7.55937,0 -1.37663,-6.47256 c -0.0805,-0.3864 -0.16505,-0.7688 -0.25358,-1.14719 -0.0886,-0.37835 -0.15701,-0.67219 -0.20529,-0.88153 -0.0483,-0.20929 -0.0805,-0.35419 -0.0966,-0.43472 -0.19323,-1.15924 -0.35424,-2.19775 -0.48302,-3.11552 -0.0644,0.19323 -0.14896,0.43072 -0.25359,0.71246 -0.10468,0.28179 -0.17311,0.47098 -0.20529,0.56756 -0.32204,1.01438 -0.73261,2.05288 -1.23172,3.11552 z"
         id="path3021"
         style="font-size:49.46195221px;font-style:oblique;font-variant:normal;font-weight:normal;font-stretch:normal;writing-mode:lr-tb;fill:#ffffff;fill-opacity:1;fill-rule:nonzero;stroke:none;font-family:CanalBoldItalique;-inkscape-font-specification:CanalBoldItalique Oblique" />
      <path
         d="m 299.3139,314.79981 c 0,-2.76933 0.5273,-5.3978 1.58191,-7.88541 1.05461,-2.48756 2.48356,-4.62898 4.28687,-6.42426 1.80329,-1.79522 3.96483,-3.21612 6.48463,-4.26271 2.51978,-1.04652 5.18045,-1.5698 7.98202,-1.56984 2.88204,4e-5 5.8285,0.62797 8.83939,1.88381 0.82112,0.35425 1.39672,0.65614 1.72683,0.90567 0.33003,0.2496 0.49506,0.51124 0.4951,0.78492 l 0,0.14491 -0.86945,7.26955 c -0.0483,0.41865 -0.0926,0.68029 -0.13283,0.78492 -0.0403,0.10468 -0.11677,0.15701 -0.22944,0.15698 -0.0805,3e-5 -0.19324,-0.0483 -0.33812,-0.1449 l -0.55548,-0.45888 c -0.88558,-0.72451 -2.07705,-1.30817 -3.5744,-1.75097 -1.49741,-0.44275 -2.98674,-0.66413 -4.468,-0.66416 -3.36511,3e-5 -6.13848,1.01438 -8.32014,3.04307 -2.18168,2.02873 -3.27252,4.60487 -3.2725,7.72843 -2e-5,2.93037 0.94994,5.32941 2.84986,7.1971 1.89988,1.86771 4.33112,2.80156 7.2937,2.80155 1.51346,1e-5 3.10342,-0.2093 4.76989,-0.62793 1.66642,-0.41862 2.7975,-0.88554 3.39327,-1.40078 0.0805,-0.1288 0.17707,-0.1932 0.28981,-0.19321 0.14488,1e-5 0.21733,0.0805 0.21736,0.24151 -3e-5,0.12882 -0.0242,0.31398 -0.0725,0.55548 l -0.67624,8.06655 c -3e-5,0.25762 -0.18519,0.46693 -0.55548,0.62794 -0.88558,0.45082 -2.19377,0.83724 -3.92459,1.15926 -1.73087,0.32202 -3.32083,0.48303 -4.76989,0.48303 -3.52612,0 -6.69396,-0.78895 -9.50356,-2.36683 -2.80961,-1.57789 -5.00336,-3.77163 -6.58124,-6.58124 -1.57789,-2.8096 -2.36683,-5.97745 -2.36683,-9.50356 z"
         id="path3023"
         style="font-size:49.46195221px;font-style:oblique;font-variant:normal;font-weight:normal;font-stretch:normal;writing-mode:lr-tb;fill:#ffffff;fill-opacity:1;fill-rule:nonzero;stroke:none;font-family:CanalBoldItalique;-inkscape-font-specification:CanalBoldItalique Oblique" />
      <path
         d="m 329.67652,332.50275 18.35502,-37.09647 10.57829,0 9.00845,37.09647 -9.90205,0 -1.61814,-6.78653 -12.92097,0 -3.11553,6.78653 z m 16.97839,-14.20099 7.55937,0 -1.37662,-6.47256 c -0.0805,-0.3864 -0.16506,-0.7688 -0.25359,-1.14719 -0.0886,-0.37835 -0.15701,-0.67219 -0.20529,-0.88153 -0.0483,-0.20929 -0.0805,-0.35419 -0.0966,-0.43472 -0.19323,-1.15924 -0.35424,-2.19775 -0.48302,-3.11552 -0.0644,0.19323 -0.14896,0.43072 -0.25359,0.71246 -0.10468,0.28179 -0.17311,0.47098 -0.20529,0.56756 -0.32204,1.01438 -0.73261,2.05288 -1.23172,3.11552 z"
         id="path3025"
         style="font-size:49.46195221px;font-style:oblique;font-variant:normal;font-weight:normal;font-stretch:normal;writing-mode:lr-tb;fill:#ffffff;fill-opacity:1;fill-rule:nonzero;stroke:none;font-family:CanalBoldItalique;-inkscape-font-specification:CanalBoldItalique Oblique" />
      <path
         d="m 371.88178,332.50275 4.54045,-37.09647 12.07568,0 c 4.39552,4e-5 7.67607,0.93389 9.84167,2.80156 2.16554,1.86773 3.24832,4.69344 3.24835,8.47712 -3e-5,1.96433 -0.26167,3.64688 -0.78491,5.04763 -0.52331,1.4008 -1.34848,2.63252 -2.47552,3.69516 -0.57966,0.56354 -1.18344,1.02644 -1.81135,1.3887 -0.62796,0.36228 -1.55376,0.79298 -2.7774,1.2921 l 9.10505,14.3942 -10.94055,0 -8.86355,-14.68402 -1.76305,14.68402 z m 11.81001,-20.67355 1.69059,0 c 1.98039,2e-5 3.58646,-0.43068 4.8182,-1.2921 1.23169,-0.86138 1.84755,-2.00051 1.84757,-3.41742 -2e-5,-1.20754 -0.46694,-2.13334 -1.40077,-2.7774 -0.93388,-0.64401 -2.2622,-0.96602 -3.98498,-0.96605 l -1.7872,0 z"
         id="path3027"
         style="font-size:49.46195221px;font-style:oblique;font-variant:normal;font-weight:normal;font-stretch:normal;writing-mode:lr-tb;fill:#ffffff;fill-opacity:1;fill-rule:nonzero;stroke:none;font-family:CanalBoldItalique;-inkscape-font-specification:CanalBoldItalique Oblique" />
      <path
         d="m 407.52422,303.56944 0.99021,-8.16316 25.18985,0 -0.99021,8.16316 -7.82503,0 -3.55025,28.93331 -9.39487,0 3.59855,-28.93331 z"
         id="path3029"
         style="font-size:49.46195221px;font-style:oblique;font-variant:normal;font-weight:normal;font-stretch:normal;writing-mode:lr-tb;fill:#ffffff;fill-opacity:1;fill-rule:nonzero;stroke:none;font-family:CanalBoldItalique;-inkscape-font-specification:CanalBoldItalique Oblique" />
      <path
         d="m 433.80811,332.50275 4.54045,-37.09647 20.33544,0 -0.99021,8.16316 -10.94056,0 -0.79699,6.37595 10.55414,0 -0.99021,8.16316 -10.60244,0 -0.72454,6.23104 11.37528,0 -1.03851,8.16316 z"
         id="path3031"
         style="font-size:49.46195221px;font-style:oblique;font-variant:normal;font-weight:normal;font-stretch:normal;writing-mode:lr-tb;fill:#ffffff;fill-opacity:1;fill-rule:nonzero;stroke:none;font-family:CanalBoldItalique;-inkscape-font-specification:CanalBoldItalique Oblique" />
    </g>
  </g>
</svg>
