<svg xmlns="http://www.w3.org/2000/svg" height="451.55" width="600" viewBox="0 0 158.75 119.473">
    <path d="M55.52 111.01c0 .65.54 1.16 1.23 1.16s1.22-.51 1.22-1.17c0-.64-.53-1.14-1.2-1.14-.71 0-1.25.49-1.25 1.15m-.1 4.86c0 .71.58 1.25 1.33 1.25.77 0 1.33-.54 1.33-1.25s-.56-1.24-1.31-1.24c-.77 0-1.35.53-1.35 1.24m-1.76-3.18c-.46-.48-.67-1.04-.67-1.72 0-1.83 1.54-3.08 3.79-3.1 2.23 0 3.73 1.24 3.73 3.1 0 .68-.2 1.2-.65 1.66-.29.3-.53.46-1.15.76.65.2.91.31 1.24.59.65.53 1.01 1.31 1.01 2.19 0 1.9-1.79 3.3-4.21 3.3-2.47 0-4.21-1.37-4.21-3.31 0-.9.33-1.66.94-2.17.31-.27.59-.4 1.24-.6-.57-.28-.78-.42-1.06-.7M8.57 108.78l-.09 2.72v.11c-.01.06-.05.1-.08.09-.03 0-.07-.03-.13-.07-.42-.43-1.41-.83-2.15-.85-1.73-.06-3.11 1.2-3.17 2.88-.05 1.6 1.2 2.81 2.94 2.87.87.03 1.76-.26 2.26-.73.04-.06.09-.09.11-.08.08 0 .09.05.08.28l-.08 2.72c-.01.21-.1.28-.43.39-.79.24-1.49.34-2.18.32-.99-.03-1.97-.33-2.86-.86-1.87-1.12-2.85-2.9-2.78-5.04A5.783 5.783 0 0 1 6 107.91c.71.03 1.7.24 2.22.49l.16.08c.17.07.2.14.19.3M14.63 111.49l-1.21 3.5h2.38l-1.17-3.5zm-1.99 5.69l-.75 1.9H8.87l4.22-10.99h3.1l4.16 10.99H17.3l-.72-1.9h-3.94zM21.05 108.09h2.86l5.25 6.73v-6.73h2.85v10.99h-2.85l-5.25-6.72v6.72h-2.86v-10.99zM38.48 111.49l-1.21 3.5h2.38l-1.17-3.5zm-1.99 5.69l-.75 1.9h-3.02l4.22-10.99h3.11l4.15 10.99h-3.05l-.72-1.9h-3.94zM47.76 116.66h3.43v2.42H44.9v-10.99h2.86v8.57z"/>
    <g fill="#21a149">
        <path d="M66.6 109.41c-.13-.2-.19-.28-.29-.36a.916.916 0 0 0-.65-.24c-.51 0-.9.37-.9.83 0 .35.22.6.77.83l.51.23c.88.39 1.24.81 1.24 1.5 0 .95-.76 1.67-1.74 1.67-.86 0-1.46-.5-1.67-1.4l.58-.16c.07.29.11.4.23.55.19.28.53.45.88.45.62 0 1.1-.48 1.1-1.08 0-.45-.23-.71-.92-1.02l-.49-.23c-.79-.35-1.11-.74-1.11-1.34 0-.8.65-1.4 1.53-1.4.62 0 1.08.28 1.4.85l-.47.32zM69.28 110.84c.75 0 1.17-.36 1.17-.98 0-.64-.41-.96-1.21-.96h-.45v1.94h.49zm-.49 2.94h-.61v-5.45h.99c.67 0 1.05.1 1.37.39.32.26.51.7.51 1.14 0 .95-.66 1.53-1.73 1.53h-.53v2.39zM74.37 113.31c1.24 0 2.24-1 2.24-2.25s-.99-2.25-2.22-2.25c-1.22 0-2.22 1-2.22 2.22 0 1.26.98 2.28 2.2 2.28m0-5.08c1.57 0 2.86 1.28 2.86 2.83 0 1.54-1.29 2.81-2.85 2.81-1.53 0-2.83-1.25-2.83-2.76 0-1.58 1.27-2.88 2.82-2.88M79.11 110.85c.77 0 1.2-.35 1.2-.99 0-.34-.14-.62-.39-.79-.19-.12-.45-.17-.82-.17h-.36v1.95h.37zm2.17 2.93h-.75l-1.64-2.39h-.15v2.39h-.62v-5.45H79c.63 0 .99.08 1.31.3.38.25.61.72.61 1.23 0 .83-.55 1.41-1.38 1.48l1.74 2.44zM83.28 113.78h-.61v-4.88h-1.31v-.57h3.24v.57h-1.32v4.88z"/>
    </g>
    <path d="M84.6 101.26H0V0h84.6v101.26z" fill="#23a149"/>
    <path d="M32.49 29.32c0 5.2 4.27 9.24 9.81 9.24 5.55 0 9.82-4.04 9.82-9.36 0-5.08-4.27-9.12-9.7-9.12-5.66 0-9.93 3.93-9.93 9.24m-.81 38.92c0 5.66 4.62 10.04 10.62 10.04 6.12 0 10.63-4.38 10.63-10.04s-4.51-9.93-10.51-9.93c-6.12 0-10.74 4.27-10.74 9.93M17.59 42.72c-3.69-3.82-5.43-8.32-5.43-13.75 0-14.66 12.36-24.71 30.38-24.83 17.9 0 29.91 9.94 29.91 24.83 0 5.43-1.62 9.59-5.2 13.28-2.31 2.43-4.27 3.7-9.24 6.12 5.2 1.62 7.28 2.55 9.93 4.74 5.2 4.27 8.09 10.51 8.09 17.55 0 15.25-14.32 26.46-33.73 26.46-19.74 0-33.72-10.97-33.72-26.57 0-7.16 2.66-13.28 7.51-17.33 2.54-2.19 4.73-3.23 9.93-4.85-4.5-2.19-6.24-3.34-8.43-5.65" fill="#fff"/>
    <path d="M122.91 17.18V3.53h3.76v33.56h-3.76V20.67h-17.14v16.42h-3.76V3.53h3.76v13.65h17.14zM140.77 33.6c8.54 0 14.18-5.27 14.18-13.28 0-8.06-5.6-13.3-14.18-13.3h-3.27V33.6h3.27zm-7.03-30.07h6.89c5.37 0 9.13 1.21 12.3 3.89 3.76 3.18 5.82 7.71 5.82 12.9s-2.06 9.66-5.95 12.88c-3.31 2.78-6.8 3.9-12.22 3.9h-6.84V3.53z" fill="#bcbdbe"/>
</svg>
