<svg xmlns="http://www.w3.org/2000/svg" height="600" width="600" viewBox="0 0 158.75 158.75">
    <path d="M0 158.752h158.75V.002H0z" fill="#079247"/>
    <path d="M94.572 59.122c0-8.58-7.096-15.85-15.856-15.85s-15.856 7.27-15.856 15.85c0 8.76 7.096 16.02 15.856 16.02s15.856-7.26 15.856-16.02m-38.644 58.8c7.751-2.47 29.72-10.07 33.199-27.09-4.298 1.82-11.243 3.31-15.692 3.31-15.528 0-32.871-11.4-32.871-35.85 0-20.81 17.179-37.811 37.824-37.811 25.599 0 39.804 19.161 39.804 44.921 0 48.56-40.308 68.21-55.496 72.68-2.483.65-4.298-.33-5.117-2.65l-4.789-12.72c-.669-1.98-.164-3.79 3.138-4.79" fill="#ececec"/>
</svg>
