<svg data-name="Слой 1" viewBox="0 0 573 230" xmlns="http://www.w3.org/2000/svg">
 <rect x="281.13" y="143.6" width="235.4" height="86.397" fill="#064209"/>
 <g fill="#a0d400">
  <path d="m356.43 181.91c-0.1443 7.9241-0.72023 14.695-5.541 21.467-5.324 7.4191-13.312 10.661-22.377 10.661-17.052 0-28.925-11.599-28.925-28.67 0-17.648 11.944-29.247 29.429-29.247 11.152 0 19.786 5.0424 24.463 15.2l-13.383 5.619c-1.9424-5.1869-6.0429-8.6452-11.728-8.6452-9.2815 0-14.102 8.8613-14.102 17.145 0 8.4279 5.0366 17 14.318 17 6.117 0 10.793-3.1694 11.369-9.4366h-11.512v-11.094h27.99z"/>
  <path d="m421.95 184.07c0 17.576-12.593 29.967-30.005 29.967s-30.004-12.391-30.004-29.967c0-16.425 14.391-27.951 30.004-27.951 15.614 0 30.005 11.526 30.005 27.951zm-45.331 0.071604c0 9.365 6.9075 16.208 15.326 16.208s15.327-6.8425 15.327-16.208c0-7.492-6.9087-14.335-15.327-14.335s-15.326 6.8425-15.326 14.335z"/>
  <path d="m443.55 200.28h16.909v11.958h-31.011v-54.315h14.102v42.357z"/>
  <path d="m483 169.88v9.0761h15.47v11.958h-15.47v21.323h-14.102v-54.315h31.156v11.958h-17.053z"/>
 </g>
 <rect width="573" height="143.6"/>
 <g fill="#fff">
  <path d="m548.53 78.101s-0.091665 0.24162-0.46986 0.24162h-30.919c-0.50424 0-0.73346 0.24162-0.73346 0.24162s-0.30941 0.11506-0.30941 0.73637v33.022c0 0.49475-0.26359 0.62131-0.26359 0.62131s-0.13751 0.21861-0.52715 0.21861h-24.501c-0.37816 0-0.59591-0.21861-0.59591-0.21861s-0.091665-0.11506-0.091665-0.73637v-33.022c0-0.37969-0.37816-0.62131-0.37816-0.62131s-0.13751-0.24162-0.46986-0.24162h-31.653c-0.59591 0-0.71051-0.092048-0.71051-0.092048s-0.26359-0.26464-0.26359-1.001v-24.185c0-0.26463 0.26359-0.62131 0.26359-0.62131s0.11461-0.092048 0.35526-0.092048h32.34c0.26359 0 0.26359-0.13807 0.26359-0.13807s0.26359-0.13807 0.26359-0.35668v-28.925c0-0.33367 0.091665-0.5983 0.091665-0.5983s0.21774-0.13807 0.97411-0.13807h24.032c0.46986 0 0.61885 0.13807 0.61885 0.13807s0.26359 0.26463 0.26359 0.71336v29.018h31.366c0.83659 0 1.0658 0.13807 1.0658 0.13807s0.37816 0.13807 0.37816 0.86293v24.45c0 0.24162-0.37816 0.5983-0.37816 0.5983"/>
  <path d="m90.786 110.24c-0.091682 1.001-0.59592 1.6913-0.59592 1.6913s-0.46986 0.50626-1.3523 0.71336c-11.552 4.7634-24.456 3.1641-24.456 3.1641-20.892-2.2896-34.197-15.107-38.448-31.687-6.2686-24.806 6.1999-42.479 9.2024-46.219 7.3688-8.8134 18.875-15.107 30.082-16.58 14.359-2.071 24.983 1.3347 29.326 2.7844 0 0 4.8476 1.5763 8.4804 4.004 1.8107 1.2196 2.017 1.6913 2.017 1.6913s0.1146 0.24162-0.35526 2.1631l-3.4036 17.776c-0.1146 0.73637-0.59592 1.1161-0.59592 1.1161s-0.26358 0.092048-1.9024-1.001c-10.887-7.7204-23.573-6.7424-23.573-6.7424-9.6493 0.5983-20.869 5.6723-24.261 18.49-3.014 11.391 0.13752 20.94 6.8645 26.659 4.6298 3.935 11.735 6.029 19.207 5.6493 8.2512-0.5983 14.738-3.8889 14.279-3.6473 0 0 0.33234-0.092048 0.71052-0.24162 1.6846-0.82842 2.0399-0.71336 2.0399-0.71336s0.35526 0.35668 0.1146 1.4727l-3.4036 19.445 0.022916 0.011508zm61.815-60.382s-0.13751 0-0.24067 0.24162l-12.022 27.476c-0.26358 0.4027-0.1719 0.62131-0.1719 0.62131s0.1719 0.11506 0.73344 0.11506l17.729 0.13807c0.13751 0 0.24067-0.13807 0.24067-0.13807s0.13751-0.11506 0-0.44872l-6.154-27.763c0-0.24162-0.11461-0.24162-0.11461-0.24162m200.42-0.33367s-0.091665 0-0.21774 0.44872l-12.079 27.395c-0.26359 0.8054-0.13751 0.93196-0.13751 0.93196s0.37816 0.24162 0.64176 0.24162l17.878-0.092048h0.21774s0.11461-0.13807 0-0.47174l-6.0394-28.12c-0.11461-0.33367-0.26359-0.33367-0.26359-0.33367m-163.69 63.765-21.488 0.092048c-0.50424 0-0.88242-0.21861-0.88242-0.21861s-0.11461-0.11506-0.21774-0.97799l-3.4036-13.91c0-0.35668-0.21774-0.49475-0.21774-0.49475h-30.633c-0.64176 0-0.9741 0.49475-0.9741 0.49475s-0.50424 0.37969-0.88242 1.2196l-6.0165 12.932c-0.24066 0.47174-0.35526 0.62131-0.35526 0.62131s-0.37818 0.24162-0.73344 0.24162h-25.029c-0.6876 0.092048-0.81366-0.24162-0.81366-0.24162s-0.1146-0.4027 0.1146-0.86293l43.353-87.363c0.24066-0.47174 0.59592-0.5983 0.59592-0.5983h28.524c0.42401 0 0.81367 0.35668 0.81367 0.35668s0.13751 0.11506 0.24067 0.50625l18.611 87.559c0 0.4027-0.24067 0.52926-0.24067 0.52926s-0.11461 0.11506-0.35526 0.11506m96.573 0.23013h-22.817l-0.24067-0.24162-30.678-54.583c-0.24067-0.24162-0.33233-0.24162-0.33233-0.24162s-0.24067 0-0.24067 0.35668l-7.6094 53.605c-0.13751 0.62131-0.26358 0.73637-0.26358 0.73637s-0.26358 0.11506-0.59592 0.11506h-22.003c-0.35526 0-0.573-0.24162-0.573-0.24162s-0.46986-0.50626-0.40111-0.97799l12.102-86.776c0.11461-0.47174 0.35526-0.5983 0.35526-0.5983s0.35526-0.35668 0.73344-0.35668h24.524c0.35526 0 0.59592 0.24162 0.59592 0.24162s0.24067 0.11506 0.33233 0.50625l27.664 48.6c0.46986 1.024 0.8595 0.88594 0.8595 0.88594s0.37818 0 0.59592-1.093l7.0135-48.393c0-0.37969 0.24067-0.50625 0.24067-0.50625s0.11461-0.24162 0.46986-0.24162l23.08 0.24162c0.46986 0 0.59591 0.11506 0.59591 0.11506s0.11461 0.11506 0.11461 0.37969l-12.411 87.467c-0.11461 0.50626-0.37818 0.82842-0.37818 0.82842s-0.13751 0.13807-0.73344 0.13807m103.47 0.13805h-22.106c-0.44696 0.28764-0.83659-0.24162-0.83659-0.24162s-0.11461-0.092048-0.24065-0.82842l-2.8994-13.623c-0.21774-0.75938-0.46986-1.1391-0.46986-1.1391s-0.61885-0.33367-1.3294-0.33367h-28.753c-0.573 0-0.95116 0.33367-0.95116 0.33367s-0.50424 0.49475-0.73346 1.2196l-6.5093 13.91c-0.13751 0.37969-0.35526 0.47174-0.35526 0.47174s-0.46986 0.13807-0.75636 0.13807h-24.857c-0.59591 0.092048-0.83659-0.24162-0.83659-0.24162s-0.11461-0.24162 0.24065-0.73637l43.823-87.731c0.24065-0.11506 0.50424-0.47174 0.50424-0.47174s0.24065-0.11506 0.95116-0.11506h27.16c0.61885 0 0.99701 0.35668 0.99701 0.35668s0.11461 0.11506 0.24065 0.50625l18.21 88.088c0 0.21861-0.091665 0.35668-0.091665 0.35668s0 0.092048-0.37816 0.092048m63.385-1.3002c-0.13751 0.71336-0.24065 0.95498-0.24065 0.95498s-0.13751 0.24162-0.73346 0.24162h-49.748c-1.4554 0-1.8336-0.35668-1.8336-0.35668s-0.24065-0.52926-0.091665-1.5993l12.308-85.89c0.091665-1.093 0.37816-1.4497 0.37816-1.4497h23.883c0.61885 0 0.8595 0.11506 0.8595 0.11506s0.091665 0.35668 0 0.82841l-9.317 67.194c-0.11461 0.71336 0.24065 0.8054 0.24065 0.8054s0.2865 0.13807 1.2148 0.13807h24.65c0.46986 0 0.71051 0.24162 0.71051 0.24162s0.13751 0.11506 0.13751 0.73637l-2.4295 18.041h0.011506z"/>
 </g>
</svg>
