<?xml version="1.0" encoding="UTF-8" standalone="no"?>
<svg xmlns:rdf="http://www.w3.org/1999/02/22-rdf-syntax-ns#" xmlns="http://www.w3.org/2000/svg" height="262.83" width="600" version="1.1" xmlns:cc="http://creativecommons.org/ns#" xmlns:dc="http://purl.org/dc/elements/1.1/" viewBox="0 0 158.75 69.540258">
 <g fill="#b2b5ba" transform="matrix(.92410 0 0 .92410 12.054 -.51380)">
  <path d="m106.04 33.572v-20.07h5.53v49.36h-5.53v-24.16h-25.209v24.16h-5.534v-49.36h5.534v20.07z"/>
  <path d="m132.3 57.732c12.56 0 20.86-7.77 20.86-19.55 0-11.85-8.22-19.55-20.86-19.55h-4.8v39.1zm-10.34-44.23h10.14c7.9 0 13.42 1.78 18.1 5.73 5.52 4.67 8.54 11.32 8.54 18.95 0 7.64-3.02 14.21-8.74 18.95-4.88 4.08-10 5.73-17.98 5.73h-10.06z"/>
 </g>
 <g transform="matrix(.43805 0 0 .43805 16.889 -32.083)">
  <path fill="#079247" d="m-38.554 231.99h158.75v-158.75h-158.75z"/>
  <path fill="#ececec" d="m56.018 132.36c0-8.58-7.096-15.85-15.856-15.85s-15.856 7.27-15.856 15.85c0 8.76 7.096 16.02 15.856 16.02s15.856-7.26 15.856-16.02m-38.644 58.8c7.751-2.47 29.72-10.07 33.199-27.09-4.298 1.82-11.243 3.31-15.692 3.31-15.528 0-32.871-11.4-32.871-35.85-0.0004-20.81 17.179-37.811 37.824-37.811 25.599 0 39.804 19.161 39.804 44.921 0 48.56-40.308 68.21-55.496 72.68-2.483 0.65-4.298-0.33-5.117-2.65l-4.789-12.72c-0.669-1.98-0.164-3.79 3.138-4.79"/>
 </g>
</svg>
