<svg xmlns="http://www.w3.org/2000/svg" viewBox="0 0 161.396 71.915" width="610" height="271.808">
    <defs>
        <clipPath clipPathUnits="userSpaceOnUse" id="e">
            <path d="M666.14 0h666.16v907.09H666.14V0z"/>
        </clipPath>
        <clipPath clipPathUnits="userSpaceOnUse" id="d">
            <path d="M666.14 0h666.16v907.09H666.14V0z"/>
        </clipPath>
        <clipPath clipPathUnits="userSpaceOnUse" id="a">
            <path d="M666.14 0h666.16v907.09H666.14V0z"/>
        </clipPath>
        <clipPath clipPathUnits="userSpaceOnUse" id="b">
            <path d="M1159.4 263.39h47.6v-19.04h-47.6v19.04z"/>
        </clipPath>
        <clipPath clipPathUnits="userSpaceOnUse" id="c">
            <path d="M1161.8 261.19h42.7v-15.2h-42.7v15.2z"/>
        </clipPath>
    </defs>
    <path d="M152.371 67.72H47.981l-.003-33.86h104.39v33.86z" fill="#009335"/>
    <g clip-path="url(#a)" transform="matrix(2.5647 0 0 -2.5647 -2934.309 701.18)">
        <g clip-path="url(#b)" opacity=".5">
            <path d="M1162.8 258.72l-2.441-.214 1.151-13.15 18.761 1.641H1162.8v11.723zm42.041 3.678l-25.148-2.2h23.812V249.03l2.486.218-1.15 13.15z" fill="#009335"/>
        </g>
        <g clip-path="url(#c)" opacity=".5">
            <path d="M1203.5 260.19h-23.812l-16.893-1.478v-11.723h17.471l23.234 2.033v11.168z" fill="#009335"/>
        </g>
    </g>
    <path d="M135.431 0H.001L0 33.86h135.43V0z"/>
    <g clip-path="url(#d)" transform="matrix(2.5647 0 0 -2.5647 -2934.309 701.18)">
        <path d="M1152.5 263.28c-.01-.09-.055-.156-.055-.156s-.043-.046-.125-.065c-1.066-.437-2.254-.291-2.254-.291-1.926.21-3.151 1.39-3.543 2.914-.579 2.279.57 3.905.848 4.248a4.513 4.513 0 0 0 2.771 1.525 5.731 5.731 0 0 0 2.704-.256s.447-.145.781-.368c.166-.112.186-.156.186-.156s.012-.021-.031-.2l-.314-1.634a.168.168 0 0 0-.055-.101s-.023-.009-.175.091c-1.004.711-2.173.621-2.173.621-.889-.057-1.924-.523-2.237-1.702-.277-1.046.014-1.924.633-2.449.426-.364 1.083-.554 1.771-.521.759.056 1.358.357 1.314.336 0 0 .033.009.068.021.155.078.189.067.189.067s.031-.034.011-.136l-.314-1.788zm5.697 5.551l-.023-.022-1.108-2.526c-.023-.035-.014-.057-.014-.057s.014-.011.067-.011l1.634-.013.021.013s.012.011 0 .043l-.568 2.551-.009.022zm18.47.031s-.008 0-.02-.042l-1.112-2.518c-.024-.076-.014-.087-.014-.087l.059-.022 1.647.009h.021s.01.013 0 .046l-.558 2.583c-.009.031-.023.031-.023.031M1161.58 263l-1.98-.008a.185.185 0 0 0-.08.019s-.012.01-.021.09l-.311 1.279c0 .033-.022.045-.022.045h-2.823c-.058 0-.089-.045-.089-.045s-.046-.034-.08-.112l-.556-1.19c-.021-.041-.033-.057-.033-.057s-.035-.021-.067-.021h-2.306c-.064-.008-.075.021-.075.021s-.012.038.011.08l3.993 8.031a.112.112 0 0 0 .055.055h2.627a.128.128 0 0 0 .076-.033s.013-.01.023-.045l1.714-8.05c0-.038-.023-.048-.023-.048l-.033-.011zm8.902-.022H1168.379l-.022.022-2.826 5.017-.033.024s-.022 0-.022-.033l-.7-4.93c-.013-.057-.024-.067-.024-.067s-.024-.011-.056-.011h-2.027a.074.074 0 0 0-.052.021s-.046.046-.037.091l1.115 7.976c.01.044.032.056.032.056s.033.032.067.032h2.26c.033 0 .055-.022.055-.022s.022-.01.033-.045l2.549-4.469c.043-.093.077-.079.077-.079s.035 0 .056.099l.645 4.449c0 .035.023.045.023.045s.011.022.043.022l2.127-.022c.044 0 .056-.01.056-.01l.009-.035-1.143-8.042a.21.21 0 0 0-.034-.075s-.013-.014-.068-.014m9.537-.01h-2.038c-.042-.024-.078.024-.078.024s-.01.008-.022.075l-.265 1.255c-.021.069-.045.103-.045.103s-.056.033-.123.033h-2.649c-.054 0-.088-.033-.088-.033s-.045-.045-.068-.111l-.6-1.277c-.013-.037-.033-.045-.033-.045s-.044-.014-.07-.014h-2.291c-.054-.01-.076.022-.076.022s-.011.021.022.067l4.038 8.065.045.044s.023.011.089.011h2.503c.057 0 .091-.033.091-.033s.011-.01.021-.045l1.68-8.098-.01-.033s0-.01-.033-.01m5.843.12a.555.555 0 0 0-.023-.088s-.013-.022-.067-.022h-4.584c-.135 0-.169.033-.169.033s-.022.048-.009.146l1.135 7.897c.008.1.033.133.033.133h2.202c.058 0 .079-.011.079-.011s.01-.032 0-.076l-.857-6.176c-.012-.067.022-.075.022-.075s.024-.013.111-.013h2.27c.043 0 .067-.022.067-.022s.013-.011.013-.067l-.223-1.659zm8.823 3.127s-.009-.022-.043-.022h-2.851c-.045 0-.067-.022-.067-.022s-.029-.011-.029-.067v-3.037c0-.046-.023-.056-.023-.056s-.014-.019-.049-.019h-2.257a.088.088 0 0 0-.056.019s-.01.01-.01.067v3.036c0 .035-.033.057-.033.057s-.013.022-.044.022h-2.917c-.055 0-.067.009-.067.009s-.023.024-.023.092v2.224c0 .025.023.056.023.056l.034.009h2.981c.025 0 .025.013.025.013l.021.033v2.66c0 .03.01.054.01.054s.021.012.089.012h2.216c.043 0 .057-.012.057-.012s.023-.024.023-.067v-2.668h2.891c.077 0 .099-.012.099-.012s.036-.013.036-.078v-2.248l-.036-.055zM1194.7 250.63h-2.176l-1.762 2.922-.354-2.922h-1.869l.906 7.378h2.401c1.751 0 2.607-.739 2.607-2.244 0-.775-.198-1.318-.65-1.74-.235-.227-.432-.333-.916-.529l1.813-2.865zm-3.809 4.112h.335c.786 0 1.325.373 1.325.936 0 .482-.381.747-1.07.747h-.354l-.236-1.683z" fill="#fff"/>
    </g>
    <path d="M140.411 58.39h-4.917V43.633h-3.985v-4.165h12.995v4.165h-4.093V58.39z" fill="#fff"/>
    <g clip-path="url(#e)" transform="matrix(2.5647 0 0 -2.5647 -2934.309 701.18)">
        <path d="M1171 256.09c-.402.346-.794.504-1.215.504-.46 0-.803-.276-.803-.64a.47.47 0 0 1 .172-.365 1.23 1.23 0 0 1 .478-.265c.105-.04.325-.1.641-.198.66-.207.995-.392 1.301-.737.325-.356.458-.749.458-1.318 0-.453-.115-1.021-.268-1.34-.401-.795-1.368-1.298-2.524-1.298-.566 0-1.043.109-1.627.355-.382.158-.526.247-.87.494l.793 1.531c.575-.506 1.1-.747 1.646-.747.555 0 .899.286.899.73a.572.572 0 0 1-.152.393c-.192.197-.364.274-.967.451-.593.178-.822.266-1.09.415-.565.295-.842.847-.842 1.642 0 1.487.985 2.49 2.439 2.49a4.83 4.83 0 0 0 2.276-.6l-.745-1.497zM1175.3 250.63h-1.867v7.378h2.967c.841 0 1.32-.166 1.787-.62.471-.452.7-1.063.7-1.827 0-1.607-.852-2.481-2.42-2.481h-1.167v-2.45zm.612 3.994c.707 0 1.023.284 1.023.916 0 .618-.335.924-1.013.924h-.622v-1.84h.612zM1183.7 258.26c-2.339 0-4.079-1.72-4.079-4.021 0-2.191 1.798-3.892 4.12-3.892 2.349 0 4.122 1.701 4.122 3.961 0 2.27-1.773 3.952-4.163 3.952m.041-6.032a2.176 2.176 0 0 0-2.177 2.187c0 1.169.99 2.133 2.177 2.133a2.164 2.164 0 0 0 2.177-2.154 2.167 2.167 0 0 0-2.177-2.166" fill="#fff"/>
    </g>
    <g>
        <path d="M143.726 4.07V0h-2.73v10.52h2.73V6.18h2.67V4.07M147.666 3.44v7.08h2.73V0h-2.73M159.836 1.59c-1.02-1.05-2.22-1.59-3.61-1.59h-4.02v2.32h3.35c1.79 0 2.98 1.15 2.98 2.94 0 1.8-1.19 2.94-2.98 2.94h-.62V3.59h-2.73v6.93h4.02c1.4 0 2.61-.52 3.63-1.56 1.02-1.05 1.54-2.28 1.54-3.7 0-1.4-.52-2.62-1.56-3.67"/>
    </g>
</svg>
