<svg data-name="Слой 1" version="1.1" viewBox="0 0 500 195" xml:space="preserve" xmlns="http://www.w3.org/2000/svg">
 <defs>
  <style>
   .cls-1 {fill: #fff;}
   .cls-2 {opacity: .5;} 
   .cls-3 {fill: #18b400;}
   .cls-4 {fill: #008f1a;}
  </style>
 </defs>
 <path d="m387.52 0h52.351c0.0217 0 0.0393 0.017511 0.0393 0.039262v33.83c0 0.02175-0.0175 0.03926-0.0393 0.03926h-52.351c-0.0217 0-0.0393-0.01751-0.0393-0.03926v-33.83c4e-5 -0.021751 0.01755-0.039262 0.0393-0.039262z" fill="#fff" stroke-width="1.2004"/>
 <polygon points="422.51 183.58 413.11 175.87 413.11 100.22 422.51 91.79 500 91.79 500 183.57"/>
 <rect width="373.23" height="91.79"/>
 <path class="cls-1" d="m59.14 70.33c-0.07 0.63-0.39 1.09-0.39 1.09s-0.31 0.31-0.88 0.45c-7.54 3.04-15.93 2.02-15.93 2.02-13.62-1.46-22.27-9.67-25.04-20.26-4.09-15.85 4.03-27.15 5.99-29.54 4.8-5.63 12.28-9.66 19.59-10.6 9.35-1.32 16.27 0.85 19.11 1.78 0 0 3.16 1.01 5.53 2.56 1.17 0.78 1.32 1.09 1.32 1.09s0.08 0.14-0.22 1.39l-2.22 11.36c-0.07 0.47-0.39 0.71-0.39 0.71s-0.17 0.06-1.24-0.63c-7.09-4.94-15.36-4.32-15.36-4.32-6.29 0.39-13.6 3.64-15.81 11.84-1.96 7.27 0.1 13.38 4.48 17.03 3.01 2.52 7.65 3.85 12.51 3.62 5.36-0.38 9.6-2.48 9.29-2.34 0 0 0.23-0.06 0.48-0.14 1.1-0.55 1.33-0.47 1.33-0.47s0.22 0.24 0.08 0.95l-2.22 12.43z"/>
 <path class="cls-1" d="m99.4 31.73s-0.09 0-0.16 0.15l-7.83 17.56c-0.17 0.25-0.1 0.39-0.1 0.39s0.1 0.08 0.47 0.08l11.55 0.09c0.09 0 0.15-0.09 0.15-0.09s0.09-0.08 0-0.3l-4.01-17.74c0-0.15-0.06-0.15-0.06-0.15m23.91 40.54-14 0.06c-0.32 0-0.56-0.13-0.56-0.13s-0.09-0.07-0.15-0.63l-2.2-8.9c0-0.23-0.16-0.31-0.16-0.31h-19.95c-0.41 0-0.63 0.31-0.63 0.31s-0.32 0.24-0.56 0.78l-3.93 8.27c-0.16 0.29-0.24 0.4-0.24 0.4s-0.24 0.14-0.47 0.14h-16.3c-0.45 0.06-0.53-0.14-0.53-0.14s-0.08-0.26 0.08-0.56l28.22-55.82c0.16-0.31 0.38-0.38 0.38-0.38h18.57c0.28 0 0.54 0.23 0.54 0.23s0.09 0.07 0.16 0.31l12.12 55.98c0 0.26-0.16 0.33-0.16 0.33s-0.07 0.07-0.23 0.07"/>
 <path class="cls-1" d="m186.23 72.43h-14.87s-0.09-0.09-0.16-0.15l-19.98-34.89c-0.17-0.17-0.23-0.17-0.23-0.17s-0.16 0-0.16 0.23l-4.95 34.28c-0.09 0.4-0.17 0.47-0.17 0.47s-0.17 0.07-0.4 0.07h-14.33c-0.23 0-0.37-0.14-0.37-0.14s-0.32-0.32-0.26-0.63l7.88-55.46c0.07-0.31 0.22-0.39 0.22-0.39s0.23-0.22 0.48-0.22h15.97c0.23 0 0.39 0.16 0.39 0.16s0.16 0.07 0.23 0.31l18.02 31.08c0.3 0.65 0.54 0.55 0.54 0.55s0.25 0 0.4-0.7l4.56-30.93c0-0.25 0.16-0.31 0.16-0.31s0.08-0.16 0.31-0.16l15.04 0.16c0.31 0 0.39 0.07 0.39 0.07s0.07 0.08 0.07 0.25l-8.08 55.92c-0.08 0.32-0.24 0.52-0.24 0.52s-0.09 0.09-0.48 0.09"/>
 <path class="cls-1" d="m229.95 31.52s-0.06 0-0.14 0.29l-7.87 17.51c-0.17 0.52-0.1 0.6-0.1 0.6s0.25 0.16 0.42 0.16l11.64-0.06h0.15s0.07-0.09 0-0.32l-3.95-17.96c-0.06-0.22-0.16-0.22-0.16-0.22m23.69 40.98h-14.4c-0.3 0.17-0.55-0.17-0.55-0.17s-0.06-0.06-0.16-0.52l-1.87-8.73c-0.15-0.48-0.32-0.71-0.32-0.71s-0.39-0.23-0.87-0.23h-18.72c-0.38 0-0.62 0.23-0.62 0.23s-0.32 0.31-0.48 0.77l-4.24 8.89c-0.09 0.25-0.24 0.31-0.24 0.31s-0.31 0.09-0.49 0.09h-16.19c-0.38 0.07-0.54-0.15-0.54-0.15s-0.08-0.14 0.16-0.46l28.54-56.08c0.16-0.08 0.32-0.31 0.32-0.31s0.17-0.07 0.63-0.07h17.69c0.4 0 0.64 0.23 0.64 0.23s0.07 0.07 0.15 0.31l11.87 56.31c0 0.13-0.07 0.22-0.07 0.22s0 0.07-0.23 0.07"/>
 <path class="cls-1" d="m294.94 71.66c-0.1 0.47-0.17 0.61-0.17 0.61s-0.08 0.15-0.47 0.15h-32.39c-0.95 0-1.19-0.22-1.19-0.22s-0.16-0.33-0.06-1.01l8.02-54.91c0.06-0.69 0.24-0.92 0.24-0.92h15.56c0.4 0 0.56 0.07 0.56 0.07s0.07 0.22 0 0.53l-6.06 42.94c-0.08 0.46 0.16 0.52 0.16 0.52s0.17 0.09 0.78 0.09h16.04c0.31 0 0.47 0.15 0.47 0.15s0.09 0.08 0.09 0.47l-1.57 11.53z"/>
 <path class="cls-1" d="m357.3 49.92s-0.06 0.16-0.31 0.16h-20.14c-0.32 0-0.47 0.15-0.47 0.15s-0.21 0.07-0.21 0.46v21.12c0 0.32-0.16 0.39-0.16 0.39s-0.1 0.13-0.35 0.13h-15.96c-0.24 0-0.39-0.13-0.39-0.13s-0.07-0.07-0.07-0.47v-21.11c0-0.24-0.23-0.4-0.23-0.4s-0.1-0.15-0.31-0.15h-20.62c-0.39 0-0.47-0.06-0.47-0.06s-0.16-0.17-0.16-0.64v-15.47c0-0.17 0.16-0.39 0.16-0.39s0.08-0.06 0.24-0.06h21.07c0.17 0 0.17-0.08 0.17-0.08s0.16-0.09 0.16-0.23v-18.5c0-0.21 0.07-0.38 0.07-0.38s0.15-0.08 0.63-0.08h15.66c0.31 0 0.4 0.08 0.4 0.08s0.16 0.17 0.16 0.46v18.55h20.44c0.54 0 0.7 0.09 0.7 0.09s0.25 0.08 0.25 0.54v15.63c0 0.16-0.25 0.38-0.25 0.38"/>
 <rect class="cls-3" x="130.58" y="91.79" width="291.94" height="91.79"/>
 <g class="cls-2">
  <polygon class="cls-4" points="440.33 167.96 121.31 195 113.07 103.56 432.09 76.52"/>
 </g>
 <path class="cls-1" d="m357.47 160.49h-15.41l-12.48-20.32-2.51 20.32h-13.24l6.42-51.3h17.01c12.4 0 18.46 5.13 18.46 15.6 0 5.39-1.4 9.16-4.61 12.1-1.66 1.58-3.06 2.32-6.48 3.68zm-26.98-28.59h2.38c5.56 0 9.38-2.59 9.38-6.51 0-3.35-2.7-5.19-7.59-5.19h-2.5l-1.68 11.7z"/>
 <polygon class="cls-1" points="386.82 160.49 373.24 160.49 373.24 120.48 362.24 120.48 362.24 109.19 398.13 109.19 398.13 120.48 386.82 120.48"/>
 <path class="cls-1" d="m190.24 122.55c-2.9-2.41-5.72-3.5-8.76-3.5-3.32 0-5.79 1.92-5.79 4.45 0 0.96 0.41 1.86 1.24 2.53 0.9 0.82 2.13 1.45 3.45 1.84 0.75 0.28 2.34 0.69 4.62 1.37 4.76 1.44 7.18 2.73 9.38 5.13 2.34 2.47 3.31 5.21 3.31 9.16 0 3.15-0.84 7.1-1.93 9.32-2.89 5.53-9.87 9.03-18.21 9.03-4.08 0-7.52-0.76-11.73-2.47-2.75-1.1-3.8-1.71-6.27-3.43l5.73-10.65c4.14 3.52 7.93 5.2 11.87 5.2s6.49-1.99 6.49-5.08c0-1.02-0.41-2.05-1.1-2.73-1.39-1.36-2.62-1.91-6.97-3.14-4.28-1.23-5.93-1.84-7.87-2.88-4.07-2.05-6.07-5.89-6.07-11.42 0-10.34 7.1-17.31 17.59-17.31 5.45 0 11.24 1.45 16.42 4.17l-5.37 10.41z"/>
 <path class="cls-1" d="m220.11 160.5h-13.27v-51.3h21.08c5.98 0 9.38 1.15 12.7 4.31 3.35 3.14 4.98 7.4 4.98 12.7 0 11.18-6.05 17.26-17.19 17.26h-8.29v17.03zm4.35-27.77c5.03 0 7.27-1.98 7.27-6.37s-2.38-6.42-7.2-6.42h-4.42v12.79z"/>
 <path class="cls-1" d="m279.38 107.4c-16.65 0-29.02 11.96-29.02 27.96s12.79 27.07 29.31 27.07 29.33-11.83 29.33-27.55-12.62-27.48-29.62-27.48m0.29 41.94c-8.6 0-15.49-6.78-15.49-15.21s7.05-14.84 15.49-14.84 15.49 6.7 15.49 14.98-6.91 15.06-15.49 15.06"/>
 <path class="cls-1" d="m475.39 141.87c5.31-4.74 8.41-9.01 8.41-16.32 0-11.1-9.17-18.15-20.06-18.15-12.27 0-19.85 7.92-20.26 19.64h14.89c-0.14-0.75-0.2-1.49-0.2-2.17 0-3.45 2-6.23 5.65-6.23s5.93 3.39 5.93 6.64c0 4.67-2.9 9.28-5.93 12.53l-21.23 22.68h41.77v-11.24h-17.02l8.06-7.38z" data-name="2"/>
 <path transform="scale(1.0438 .95803)" d="m381.81 25.437v-16.247h3.2804v6.3946h6.4278v-6.3946h3.2804v16.247h-3.2804v-7.1039h-6.4278v7.1039z" stroke-width=".28371" aria-label="H"/>
 <path transform="scale(1.0068 .9932)" d="m412.56 24.536 3.2818-15.672h4.2226q1.7638 0 2.2556 0.05345 0.97279 0.09621 1.7318 0.39553 0.76968 0.29932 1.3897 0.84451 0.63071 0.5345 1.0797 1.2935 0.45967 0.75899 0.70554 1.7532 0.24587 0.98348 0.24587 2.1594 0 2.5335-0.97279 4.5005-0.9621 1.9563-2.4266 3.1108-1.1224 0.89796-2.897 1.3256-1.0049 0.23518-3.0894 0.23518zm3.7522-2.5228h1.6356q1.7746 0 2.5656-0.2138 0.80175-0.22449 1.4645-0.82313 0.95142-0.86589 1.6035-2.309t0.65209-3.3994q0-1.6676-0.54519-2.5015-0.5345-0.84451-1.3256-1.1225-0.55589-0.19242-1.9777-0.19242h-1.8708z" stroke-width=".27366" aria-label="D"/>
</svg>
