<?xml version="1.0" encoding="UTF-8" standalone="no"?>
<svg
   xmlns:dc="http://purl.org/dc/elements/1.1/"
   xmlns:cc="http://creativecommons.org/ns#"
   xmlns:rdf="http://www.w3.org/1999/02/22-rdf-syntax-ns#"
   xmlns:svg="http://www.w3.org/2000/svg"
   xmlns="http://www.w3.org/2000/svg"
   id="svg2"
   viewBox="0 0 160.42042 72.783616"
   version="1.1"
   width="606.31348"
   height="275.08609">
  <metadata
     id="metadata83">
    <rdf:RDF>
      <cc:Work
         rdf:about="">
        <dc:format>image/svg+xml</dc:format>
        <dc:type
           rdf:resource="http://purl.org/dc/dcmitype/StillImage" />
        <dc:title></dc:title>
      </cc:Work>
    </rdf:RDF>
  </metadata>
  <defs
     id="defs4">
    <clipPath
       clipPathUnits="userSpaceOnUse"
       id="a">
      <path
         id="path7"
         d="m 666.14,0 666.16,0 0,907.09 -666.16,0 0,-907.09 z" />
    </clipPath>
    <clipPath
       clipPathUnits="userSpaceOnUse"
       id="b">
      <path
         id="path10"
         d="m 666.14,0 666.16,0 0,907.09 -666.16,0 0,-907.09 z" />
    </clipPath>
    <clipPath
       clipPathUnits="userSpaceOnUse"
       id="e">
      <path
         id="path13"
         d="m 666.14,0 666.16,0 0,907.09 -666.16,0 0,-907.09 z" />
    </clipPath>
    <clipPath
       clipPathUnits="userSpaceOnUse"
       id="d">
      <path
         id="path16"
         d="m 936.92,263.49 53.87,0 0,-19.51 -53.87,0 0,19.51 z" />
    </clipPath>
    <clipPath
       clipPathUnits="userSpaceOnUse"
       id="c">
      <path
         id="path19"
         d="m 939.12,261.27 48.78,0 0,-15.13 -48.78,0 0,15.13 z" />
    </clipPath>
  </defs>
  <g
     id="g21"
     transform="translate(179.33253,-75.257)">
    <path
       style="fill:#802984"
       id="path23"
       d="m -27.989,142.51 -119.84,0 0,-33.63 119.84,0 0.001,33.63 z" />
    <g
       id="g25"
       transform="matrix(2.5619,0,0,-2.5619,-2556.3,775.66)">
      <g
         id="g27"
         clip-path="url(#e)">
        <g
           style="opacity:0.5"
           id="g29"
           clip-path="url(#d)">
          <g
             id="g31"
             transform="translate(940.12,258.25)">
            <path
               style="fill:#3d267e"
               id="path33"
               d="m 0,0 -2.201,-0.193 1.144,-13.075 24.733,2.164 L 0,-11.104 0,0 Z m 48.528,4.246 -25.424,-2.225 23.675,0 0,-11.104 2.893,0.253 -1.144,13.076 z" />
          </g>
        </g>
        <g
           style="opacity:0.5"
           id="g35"
           clip-path="url(#c)">
          <g
             id="g37"
             transform="translate(986.9,260.27)">
            <path
               style="fill:#3d267e"
               id="path39"
               d="m 0,0 -23.675,0 -23.104,-2.021 0,-11.104 23.676,0 L 0,-11.104 0,0 Z" />
          </g>
        </g>
      </g>
    </g>
    <path
       id="path41"
       d="m -44.813,75.257 -134.52,0 0,33.623 134.52,0 -0.003,-33.623 z" />
    <g
       id="g43"
       transform="matrix(2.5619,0,0,-2.5619,-2556.3,775.66)">
      <g
         id="g45"
         clip-path="url(#b)">
        <g
           id="g47"
           transform="translate(936.14,263.34)">
          <path
             style="fill:#ffffff"
             id="path49"
             d="m 0,0 c -0.01,-0.09 -0.055,-0.155 -0.055,-0.155 0,0 -0.043,-0.045 -0.124,-0.065 -1.06,-0.434 -2.241,-0.289 -2.241,-0.289 -1.915,0.209 -3.133,1.382 -3.523,2.897 -0.575,2.266 0.567,3.883 0.843,4.224 0.675,0.806 1.728,1.381 2.756,1.517 1.315,0.189 2.289,-0.122 2.688,-0.255 0,0 0.444,-0.144 0.777,-0.366 0.165,-0.112 0.185,-0.156 0.185,-0.156 0,0 0.011,-0.02 -0.032,-0.198 L 0.962,5.529 C 0.952,5.462 0.908,5.428 0.908,5.428 c 0,0 -0.023,-0.009 -0.175,0.091 -0.997,0.707 -2.16,0.618 -2.16,0.618 -0.884,-0.057 -1.913,-0.52 -2.224,-1.693 -0.275,-1.039 0.014,-1.912 0.63,-2.435 0.423,-0.361 1.076,-0.551 1.76,-0.518 0.755,0.056 1.35,0.355 1.307,0.335 0,0 0.032,0.008 0.068,0.02 0.154,0.078 0.187,0.067 0.187,0.067 0,0 0.032,-0.033 0.011,-0.135 L 0,0 Z M 5.665,5.519 5.642,5.497 4.54,2.986 C 4.517,2.951 4.526,2.929 4.526,2.929 c 0,0 0.014,-0.011 0.066,-0.011 L 6.218,2.905 6.239,2.918 c 0,0 0.012,0.011 0,0.043 L 5.674,5.497 5.665,5.519 Z M 24.029,5.55 c 0,0 -0.008,0 -0.019,-0.042 L 22.903,3.005 C 22.88,2.929 22.89,2.918 22.89,2.918 l 0.058,-0.022 1.638,0.009 0.021,0 c 0,0 0.01,0.013 0,0.046 L 24.052,5.519 C 24.043,5.55 24.029,5.55 24.029,5.55 M 9.028,-0.278 7.059,-0.286 c -0.045,0 -0.079,0.018 -0.079,0.018 0,0 -0.012,0.011 -0.021,0.09 L 6.65,1.094 c 0,0.033 -0.022,0.045 -0.022,0.045 l -0.034,0 -2.773,0 c -0.057,0 -0.089,-0.045 -0.089,-0.045 0,0 -0.046,-0.034 -0.079,-0.111 L 3.101,-0.2 C 3.079,-0.242 3.067,-0.257 3.067,-0.257 c 0,0 -0.035,-0.021 -0.066,-0.021 l -2.293,0 c -0.063,-0.008 -0.075,0.021 -0.075,0.021 0,0 -0.011,0.037 0.012,0.079 l 3.97,7.986 c 0.022,0.043 0.054,0.054 0.054,0.054 l 0.078,0 2.535,0 c 0.04,0 0.075,-0.033 0.075,-0.033 0,0 0.013,-0.01 0.022,-0.045 L 9.084,-0.22 c 0,-0.037 -0.023,-0.048 -0.023,-0.048 l -0.033,-0.01 z m 8.851,-0.022 -2.026,0 -0.065,0 -0.022,0.022 -2.809,4.988 -0.033,0.024 c 0,0 -0.022,0 -0.022,-0.033 L 12.206,-0.2 c -0.013,-0.057 -0.024,-0.068 -0.024,-0.068 0,0 -0.024,-0.01 -0.056,-0.01 l -2.015,0 c -0.032,0 -0.052,0.021 -0.052,0.021 0,0 -0.045,0.045 -0.037,0.09 l 1.109,7.93 c 0.01,0.045 0.032,0.056 0.032,0.056 0,0 0.032,0.032 0.067,0.032 l 2.247,0 c 0.032,0 0.054,-0.022 0.054,-0.022 0,0 0.023,-0.01 0.033,-0.045 l 2.535,-4.443 c 0.042,-0.093 0.076,-0.079 0.076,-0.079 0,0 0.035,0 0.056,0.099 l 0.641,4.423 c 0,0.035 0.023,0.045 0.023,0.045 0,0 0.011,0.022 0.043,0.022 l 2.115,-0.022 c 0.043,0 0.055,-0.01 0.055,-0.01 l 0.01,-0.035 -1.138,-7.996 c -0.01,-0.045 -0.033,-0.074 -0.033,-0.074 0,0 -0.013,-0.014 -0.068,-0.014 m 9.483,-0.01 -2.026,0 c -0.043,-0.024 -0.078,0.024 -0.078,0.024 0,0 -0.01,0.008 -0.022,0.074 l -0.264,1.248 c -0.02,0.069 -0.045,0.103 -0.045,0.103 0,0 -0.055,0.032 -0.121,0.032 l -2.635,0 c -0.053,0 -0.087,-0.032 -0.087,-0.032 0,0 -0.045,-0.045 -0.067,-0.111 l -0.597,-1.27 c -0.013,-0.036 -0.033,-0.044 -0.033,-0.044 0,0 -0.044,-0.014 -0.069,-0.014 l -2.278,0 c -0.054,-0.01 -0.076,0.022 -0.076,0.022 0,0 -0.011,0.021 0.022,0.066 l 4.015,8.02 0.045,0.043 c 0,0 0.023,0.011 0.088,0.011 l 2.489,0 c 0.056,0 0.091,-0.033 0.091,-0.033 0,0 0.01,-0.01 0.021,-0.045 L 27.404,-0.268 27.395,-0.3 c 0,0 0,-0.01 -0.033,-0.01 m 5.81,0.119 c -0.014,-0.066 -0.024,-0.087 -0.024,-0.087 0,0 -0.012,-0.022 -0.066,-0.022 l -4.558,0 c -0.134,0 -0.167,0.032 -0.167,0.032 0,0 -0.023,0.048 -0.01,0.146 l 1.129,7.852 c 0.008,0.099 0.033,0.132 0.033,0.132 l 0.119,0 2.07,0 c 0.057,0 0.079,-0.011 0.079,-0.011 0,0 0.01,-0.032 0,-0.076 L 30.924,1.635 C 30.913,1.568 30.947,1.56 30.947,1.56 c 0,0 0.024,-0.013 0.11,-0.013 l 2.257,0 c 0.043,0 0.066,-0.022 0.066,-0.022 0,0 0.013,-0.011 0.013,-0.067 l -0.221,-1.649 z m 8.772,3.109 c 0,0 -0.009,-0.022 -0.043,-0.022 l -2.834,0 C 39.022,2.896 39,2.874 39,2.874 c 0,0 -0.029,-0.01 -0.029,-0.066 l 0,-3.02 c 0,-0.045 -0.023,-0.056 -0.023,-0.056 0,0 -0.013,-0.018 -0.049,-0.018 l -2.244,0 c -0.034,0 -0.055,0.018 -0.055,0.018 0,0 -0.01,0.011 -0.01,0.068 l 0,3.018 c 0,0.035 -0.033,0.056 -0.033,0.056 0,0 -0.013,0.022 -0.044,0.022 l -2.9,0 c -0.055,0 -0.067,0.009 -0.067,0.009 0,0 -0.022,0.024 -0.022,0.092 l 0,2.211 c 0,0.024 0.022,0.056 0.022,0.056 l 0.034,0.009 2.964,0 c 0.025,0 0.025,0.012 0.025,0.012 l 0.021,0.033 0,2.645 c 0,0.03 0.01,0.054 0.01,0.054 0,0 0.021,0.011 0.088,0.011 l 2.203,0 c 0.044,0 0.057,-0.011 0.057,-0.011 0,0 0.023,-0.024 0.023,-0.066 l 0,-2.653 2.875,0 c 0.076,0 0.098,-0.013 0.098,-0.013 0,0 0.036,-0.012 0.036,-0.077 l 0,-2.235 -0.036,-0.055 z" />
        </g>
        <g
           id="g51"
           transform="translate(948.53,251.1)">
          <path
             style="fill:#ffffff"
             id="path53"
             d="m 0,0 c -0.238,-0.455 -0.62,-0.806 -1.168,-1.054 -0.465,-0.207 -0.992,-0.31 -1.56,-0.31 -0.569,0 -1.147,0.124 -1.757,0.372 -0.299,0.124 -0.537,0.237 -0.692,0.351 -0.072,0.052 -0.155,0.104 -0.248,0.166 l 0.857,1.612 c 0.61,-0.528 1.199,-0.786 1.778,-0.786 0.279,0 0.496,0.062 0.672,0.176 0.196,0.134 0.299,0.33 0.299,0.589 0,0.217 -0.103,0.403 -0.32,0.558 -0.104,0.072 -0.259,0.134 -0.475,0.207 -0.073,0.02 -0.207,0.062 -0.414,0.124 l -0.413,0.124 c -0.258,0.072 -0.507,0.175 -0.765,0.31 -0.61,0.31 -0.909,0.888 -0.909,1.725 0,0.786 0.248,1.416 0.733,1.891 0.486,0.486 1.127,0.724 1.902,0.724 0.837,0 1.664,-0.207 2.459,-0.631 L -0.827,4.578 C -1.25,4.929 -1.684,5.105 -2.139,5.105 -2.356,5.105 -2.553,5.053 -2.718,4.939 -2.914,4.815 -3.007,4.65 -3.007,4.433 -3.007,4.216 -2.862,4.03 -2.583,3.896 -2.501,3.854 -2.18,3.741 -1.612,3.565 -0.982,3.369 -0.506,3.11 -0.207,2.79 0.124,2.439 0.289,1.974 0.289,1.405 0.289,0.837 0.196,0.372 0,0" />
        </g>
      </g>
    </g>
    <g
       id="g55"
       transform="matrix(2.5619,0,0,-2.5619,-111.17,119.85)">
      <path
         style="fill:#ffffff"
         id="path57"
         d="m 0,0 -2.284,0 -0.165,-1.333 2.201,0 -0.207,-1.705 -2.211,0 -0.155,-1.302 2.377,0 -0.217,-1.705 -4.33,0 0.951,7.75 4.247,0 L 0,0 Z" />
    </g>
    <g
       id="g59"
       transform="matrix(2.5619,0,0,-2.5619,-2556.3,775.66)">
      <g
         id="g61"
         clip-path="url(#a)">
        <g
           id="g63"
           transform="translate(961.59,249.94)">
          <path
             style="fill:#ffffff"
             id="path65"
             d="M 0,0 -2.284,0 -4.133,3.069 -4.505,0 l -1.964,0 0.951,7.75 2.521,0 c 1.829,0 2.739,-0.785 2.739,-2.356 0,-0.827 -0.197,-1.385 -0.682,-1.829 C -1.188,3.317 -1.405,3.224 -1.901,3.007 L 0,0 Z m -3.999,4.319 0.351,0 c 0.827,0 1.395,0.393 1.395,0.982 0,0.506 -0.392,0.785 -1.126,0.785 l -0.372,0 -0.248,-1.767 z" />
        </g>
      </g>
    </g>
    <path
       style="fill:#ffffff"
       id="path67"
       d="m -90.105,115.48 5.162,0 0,19.85 -5.162,0 0,-19.85 z" />
    <g
       id="g69"
       transform="matrix(2.5619,0,0,-2.5619,-69.007,135.34)">
      <path
         style="fill:#ffffff"
         id="path71"
         d="m 0,0 -0.506,1.343 -2.78,0 L -3.813,0 l -2.129,0 2.976,7.75 2.191,0 L 2.149,0 0,0 Z m -1.881,5.353 -0.847,-2.47 1.674,0 -0.827,2.47 z" />
    </g>
    <g
       id="g73"
       transform="matrix(2.5619,0,0,-2.5619,-61.199,135.34)">
      <path
         style="fill:#ffffff"
         id="path75"
         d="m 0,0 0,7.75 2.015,0 0,-6.045 2.418,0 L 4.433,0 0,0 Z" />
    </g>
    <g
       id="g77"
       transform="matrix(2.5619,0,0,-2.5619,-47.725,135.34)">
      <path
         style="fill:#ffffff"
         id="path79"
         d="m 0,0 0,7.75 4.402,0 0,-1.705 -2.387,0 0,-1.292 2.263,0 0,-1.705 -2.263,0 0,-1.343 2.387,0 L 4.402,0 0,0 Z" />
    </g>
  </g>
  <g
     transform="matrix(1.0000059,0,0,1.0000059,10.280015,-188.53111)"
     id="g36"
     style="fill:#000000">
    <path
       style="fill:#000000"
       d="m 132.47,192.6 0,-4.07 -2.73,0 0,10.52 2.73,0 0,-4.34 2.67,0 0,-2.11"
       id="path38" />
    <path
       style="fill:#000000"
       d="m 136.41,191.97 0,7.08 2.73,0 0,-10.52 -2.73,0"
       id="path40" />
    <path
       style="fill:#000000"
       d="m 148.58,190.12 c -1.02,-1.05 -2.22,-1.59 -3.61,-1.59 l -4.02,0 0,2.32 2.98,0 0.37,0 c 1.79,0 2.98,1.15 2.98,2.94 0,1.8 -1.19,2.94 -2.98,2.94 l -0.62,0 0,-4.61 -2.73,0 0,6.93 4.02,0 c 1.4,0 2.61,-0.52 3.63,-1.56 1.02,-1.05 1.54,-2.28 1.54,-3.7 0,-1.4 -0.52,-2.62 -1.56,-3.67"
       id="path42" />
  </g>
</svg>
