<svg xmlns="http://www.w3.org/2000/svg" width="533" height="263">
    <path d="M151.2 263c-8.942 0-12.693-7.708-12.693-23.88 0-17.395 4.368-26.13 13.309-26.13 7.643 0 11.806 5.794 11.806 16.918V231h-9.147v-2.248c0-5.73-.552-8.53-2.8-8.53-3.2 0-3.61 6.14-3.61 19.514 0 10.238.475 15.004 3.674 15.004 2.466 0 3.481-3.404 3.481-10.431v-.68h8.26c-.205 12.96-4.226 19.371-12.28 19.371M171.33 213.94h12.344l6.218 48.174h-8.324l-1.375-10.303h-6.885l-1.234 10.303h-7.566l6.821-48.173zm7.912 29.958l-2.517-21.35-2.531 21.35h5.048zM192.474 213.94h8.53l5.793 16.92c1.092 3.21 2.056 6.28 2.467 9.351v-26.27h7.502v48.173h-7.232l-6.616-18.627c-1.17-3.212-2.261-6.423-2.942-9.763v28.39h-7.502V213.94zM226.247 213.94h12.345l6.217 48.174h-8.324l-1.375-10.303h-6.885l-1.233 10.303h-7.567l6.822-48.173zm7.913 29.958l-2.518-21.35-2.53 21.35h5.048zM256.666 213.94v40.26h11.613v7.914h-20.875V213.94z" fill="#7b7c7e"/>
    <path d="M294.473 262.114v-20.875h-5.46v20.875h-9.275V213.94h9.275v19.385h5.46V213.94h9.287v48.173zM321.424 213.054c9.48 0 13.167 8.12 13.167 24.973 0 16.854-3.623 24.973-13.103 24.973-9.827 0-13.514-7.977-13.514-24.973.013-16.982 3.635-24.973 13.45-24.973m3.417 26.682c0-12.962-.27-18.897-3.481-18.897-3.405 0-3.61 5.524-3.61 17.535 0 11.459.334 16.584 3.687 16.584 2.787 0 3.404-4.984 3.404-15.222M348.092 213.94v40.26h11.6v7.914h-20.875V213.94zM370.946 213.94v40.26h11.613v7.914h-20.875V213.94zM394.57 232.04l5.46-18.1h7.502l-9.48 28.725v19.449h-9.353v-19.45l-7.977-28.723h9.275zM416.126 213.94l1.914 20.4c.334 3.276.54 6.552.68 9.828.206-4.496.823-7.914 1.157-10.303l2.864-19.924h8.53l2.865 19.924c.283 2.043.886 5.46 1.092 10.303.205-4.78.475-8.055.68-9.828l2.596-20.4h6.885l-6.744 48.174h-8.401l-2.93-22.173c-.539-4.239-.886-8.26-1.027-12.075 0 4.56-.745 8.53-1.297 12.075l-3.263 22.173h-8.53l-5.537-48.173h8.466zM460.535 213.054c9.493 0 13.167 8.12 13.167 24.973 0 16.854-3.61 24.973-13.09 24.973-9.827 0-13.514-7.977-13.514-24.973 0-16.982 3.622-24.973 13.437-24.973m3.417 26.682c0-12.962-.27-18.897-3.481-18.897-3.405 0-3.61 5.524-3.61 17.535 0 11.459.334 16.584 3.674 16.584 2.8 0 3.417-4.984 3.417-15.222M490.415 213.054c9.493 0 13.167 8.12 13.167 24.973 0 16.854-3.61 24.973-13.09 24.973-9.827 0-13.514-7.977-13.514-24.973 0-16.982 3.623-24.973 13.437-24.973m3.417 26.682c0-12.962-.27-18.897-3.481-18.897-3.417 0-3.61 5.524-3.61 17.535 0 11.459.334 16.584 3.674 16.584 2.8 0 3.417-4.984 3.417-15.222M507.822 213.954h10.225c11.6 0 14.953 7.155 14.953 24.073 0 16.996-3.276 24.087-14.953 24.087h-10.225v-48.16zm9.274 40.182c.347.065.746.065 1.028.065 4.779 0 5.113-4.638 5.113-15.082 0-8.517-.141-13.501-1.156-15.145-.887-1.362-2.325-2.043-4.368-2.043h-.617v32.205z"/>
    <path d="M179.718 129.426l65.271 71.309-105.57-12.923L96.513 263l-13.501-94.92L0 152.986l80.905-40.414L73.25-.012l68.136 79.286L262.999 4.137l-83.281 125.289zM96.68 184.562l8.569-3.546-7.99-19.295 5.048-2.081 7.99 19.282 8.569-3.558-18.435-44.5-8.568 3.559 7.412 17.895-5.048 2.094-7.413-17.908-8.568 3.558 18.434 44.5zm6.719-54.918l23.534 42.38 7.887-3.263-5.46-21.736c-.86-3.481-1.682-7.425-3.43-11.651 1.594 3.48 3.444 7.065 5.563 10.765l11.202 19.359 7.76-3.212-12.205-47.08-6.358 2.633 5.408 19.834c.488 1.721 1.49 4.856 3.121 9.34-2.03-4.394-3.905-7.31-4.945-9.096l-10.277-17.304-7.875 3.263 4.984 19.5c.591 2.339 1.336 5.717 2.865 9.956-1.375-2.967-2.826-5.922-4.393-8.812l-9.57-18.113-7.811 3.237zm56.253 28.827l9.455-3.918c10.778-4.47 11.086-12.281 4.586-27.98-6.475-15.633-12.307-20.964-23.02-16.532l-9.455 3.918 18.434 44.512zm-6.808-40.684l.565-.231c1.888-.784 3.481-.707 4.817.218 1.58 1.118 3.61 5.665 6.873 13.553 3.995 9.635 5.447 14.054 1.04 15.89-.257.103-.63.258-.976.322l-12.32-29.752z" fill="#009dd5"/>
</svg>
