<?xml version="1.0" encoding="UTF-8" standalone="no"?>
<!-- Created with Inkscape (http://www.inkscape.org/) -->

<svg
   xmlns:dc="http://purl.org/dc/elements/1.1/"
   xmlns:cc="http://creativecommons.org/ns#"
   xmlns:rdf="http://www.w3.org/1999/02/22-rdf-syntax-ns#"
   xmlns:svg="http://www.w3.org/2000/svg"
   xmlns="http://www.w3.org/2000/svg"
   version="1.1"
   width="600"
   height="170.56088"
   id="svg125676">
  <defs
     id="defs125678">
    <clipPath
       id="clipPath120721">
      <path
         d="m 42.269,463.6 25.947,0 0,13.607 -25.947,0 0,-13.607 z"
         id="path120723" />
    </clipPath>
  </defs>
  <metadata
     id="metadata125681">
    <rdf:RDF>
      <cc:Work
         rdf:about="">
        <dc:format>image/svg+xml</dc:format>
        <dc:type
           rdf:resource="http://purl.org/dc/dcmitype/StillImage" />
        <dc:title></dc:title>
      </cc:Work>
    </rdf:RDF>
  </metadata>
  <g
     transform="translate(-46.969657,-374.16654)"
     id="layer1">
    <g
       transform="matrix(1.0102043,0,0,1.0102043,-3.5405822,-4.6883345)"
       id="g125830">
      <path
         d="m 556.62508,417.21551 -506.625056,0 0,126.65048 506.625056,0 0,-126.65048 z"
         id="path120773"
         style="fill:#151922;fill-opacity:1;fill-rule:nonzero;stroke:none" />
      <g
         transform="matrix(23.124061,0,0,-23.124061,535.00188,486.08104)"
         id="g120775">
        <path
           d="m 0,0 -0.018,-0.009 -1.182,0 c -0.019,0 -0.028,-0.01 -0.028,-0.01 0,0 -0.014,-0.004 -0.014,-0.027 l 0,-1.26 c 0,-0.018 -0.009,-0.023 -0.009,-0.023 l -0.019,-0.009 -0.937,0 -0.023,0.009 c 0,0 -0.004,0.005 -0.004,0.028 l 0,1.259 -0.015,0.023 -0.018,0.01 -1.21,0 c -0.022,0 -0.027,0.004 -0.027,0.004 0,0 -0.01,0.009 -0.01,0.037 l 0,0.923 0.01,0.023 0.014,0.005 1.237,0 0.009,0.005 0.01,0.013 0,1.103 0.004,0.023 c 0,0 0.009,0.005 0.037,0.005 l 0.919,0 c 0.018,0 0.023,-0.005 0.023,-0.005 0,0 0.009,-0.009 0.009,-0.027 l 0,-1.108 1.2,0 C -0.009,0.992 0,0.988 0,0.988 c 0,0 0.014,-0.005 0.014,-0.033 l 0,-0.932 L 0,0 z m -3.661,-1.297 c -0.005,-0.027 -0.009,-0.036 -0.009,-0.036 0,0 -0.005,-0.01 -0.028,-0.01 l -1.902,0 c -0.056,0 -0.069,0.014 -0.069,0.014 0,0 -0.01,0.018 -0.005,0.06 l 0.471,3.276 c 0.004,0.042 0.014,0.056 0.014,0.056 l 0.05,0 0.864,0 c 0.023,0 0.032,-0.005 0.032,-0.005 0,0 0.005,-0.014 0,-0.032 l -0.355,-2.561 c -0.005,-0.028 0.009,-0.033 0.009,-0.033 0,0 0.009,-0.004 0.046,-0.004 l 0.942,0 c 0.018,0 0.027,-0.01 0.027,-0.01 0,0 0.005,-0.004 0.005,-0.027 l -0.092,-0.688 z m -2.424,-0.051 -0.845,0 c -0.018,-0.009 -0.032,0.01 -0.032,0.01 0,0 -0.005,0.005 -0.009,0.032 l -0.111,0.521 c -0.009,0.028 -0.019,0.042 -0.019,0.042 0,0 -0.023,0.014 -0.05,0.014 l -1.099,0 c -0.023,0 -0.037,-0.014 -0.037,-0.014 0,0 -0.019,-0.018 -0.028,-0.046 l -0.249,-0.531 -0.014,-0.018 -0.028,-0.005 -0.951,0 c -0.023,-0.005 -0.032,0.01 -0.032,0.01 0,0 -0.005,0.009 0.009,0.027 l 1.676,3.346 0.019,0.018 c 0,0 0.009,0.005 0.036,0.005 l 1.039,0 c 0.023,0 0.037,-0.014 0.037,-0.014 l 0.009,-0.019 0.698,-3.359 -0.005,-0.014 -0.014,-0.005 z m -3.957,0.005 -0.844,0 -0.028,0 -0.009,0.01 -1.173,2.081 -0.014,0.009 -0.009,-0.014 -0.291,-2.044 c -0.005,-0.023 -0.009,-0.028 -0.009,-0.028 l -0.023,-0.004 -0.841,0 -0.023,0.009 c 0,0 -0.018,0.018 -0.013,0.036 l 0.461,3.309 c 0.005,0.019 0.014,0.023 0.014,0.023 l 0.028,0.014 0.937,0 0.023,-0.009 0.014,-0.019 1.057,-1.855 c 0.019,-0.037 0.033,-0.032 0.033,-0.032 0,0 0.013,0 0.023,0.042 l 0.267,1.845 0.01,0.019 0.018,0.009 0.882,-0.009 c 0.018,0 0.023,-0.005 0.023,-0.005 L -9.524,2.03 -10,-1.306 c -0.005,-0.018 -0.014,-0.032 -0.014,-0.032 0,0 -0.004,-0.005 -0.028,-0.005 m -3.693,0.01 -0.822,-0.005 c -0.018,0 -0.032,0.009 -0.032,0.009 0,0 -0.005,0.005 -0.01,0.037 l -0.128,0.531 -0.01,0.018 -0.014,0 -1.159,0 c -0.023,0 -0.037,-0.018 -0.037,-0.018 0,0 -0.018,-0.014 -0.032,-0.047 l -0.231,-0.493 c -0.009,-0.019 -0.014,-0.023 -0.014,-0.023 l -0.027,-0.009 -0.956,0 c -0.028,-0.005 -0.032,0.009 -0.032,0.009 0,0 -0.005,0.013 0.004,0.032 l 1.658,3.332 c 0.009,0.018 0.023,0.023 0.023,0.023 l 0.032,0 1.057,0 c 0.019,0 0.033,-0.014 0.033,-0.014 l 0.009,-0.019 0.711,-3.341 -0.009,-0.018 -0.014,-0.004 z m 6.26,2.431 c 0,0 -0.004,0 -0.009,-0.018 L -7.946,0.037 C -7.955,0.004 -7.95,0 -7.95,0 l 0.023,-0.009 0.683,0.004 0.01,0 0,0.019 -0.231,1.07 -0.01,0.014 z m -7.664,-0.014 -0.009,-0.009 -0.461,-1.047 -0.005,-0.024 c 0,0 0.005,-0.004 0.028,-0.004 l 0.678,-0.005 0.009,0.005 0,0.018 -0.235,1.057 -0.005,0.009 z m -2.363,-2.302 c -0.005,-0.037 -0.023,-0.065 -0.023,-0.065 0,0 -0.019,-0.018 -0.051,-0.028 -0.443,-0.179 -0.937,-0.12 -0.937,-0.12 -0.799,0.088 -1.307,0.577 -1.469,1.209 -0.24,0.946 0.236,1.62 0.351,1.763 0.282,0.337 0.721,0.577 1.15,0.632 0.549,0.079 0.956,-0.05 1.122,-0.106 0,0 0.184,-0.06 0.323,-0.152 0.069,-0.046 0.078,-0.065 0.078,-0.065 0,0 0.005,-0.009 -0.013,-0.083 l -0.13,-0.678 c -0.004,-0.028 -0.023,-0.042 -0.023,-0.042 0,0 -0.009,-0.004 -0.074,0.037 -0.415,0.296 -0.9,0.259 -0.9,0.259 -0.369,-0.023 -0.799,-0.217 -0.928,-0.706 -0.115,-0.434 0.005,-0.799 0.263,-1.015 0.176,-0.153 0.448,-0.231 0.734,-0.217 0.314,0.023 0.563,0.147 0.545,0.138 l 0.028,0.009 c 0.064,0.033 0.078,0.028 0.078,0.028 0,0 0.014,-0.014 0.005,-0.055 l -0.129,-0.743 z"
           id="path120777"
           style="fill:#ffffff;fill-opacity:1;fill-rule:nonzero;stroke:none" />
      </g>
      <g
         transform="matrix(23.124061,0,0,-23.124061,643.93929,438.36478)"
         id="g120779">
        <path
           d="m 0,0 c -0.122,0.913 -0.244,1.826 -0.365,2.739 l -5.843,0 C -5.964,1.552 -5.721,0.365 -5.478,-0.822 -3.652,-0.548 -1.826,-0.274 0,0"
           id="path120781"
           style="fill:#ed1c24;fill-opacity:1;fill-rule:nonzero;stroke:none" />
      </g>
      <g
         transform="matrix(23.124061,0,0,-23.124061,561.50196,434.31344)"
         id="g120783">
        <path
           d="M 0,0 C -0.061,0.333 -0.091,0.5 -0.152,0.833 -0.448,0.81 -0.596,0.799 -0.892,0.776 -0.826,0.432 -0.793,0.26 -0.728,-0.085 -0.929,-0.108 -1.03,-0.12 -1.232,-0.144 c -0.14,0.712 -0.281,1.424 -0.42,2.136 0.21,0.005 0.315,0.007 0.525,0.012 0.063,-0.323 0.093,-0.485 0.155,-0.808 0.298,0.018 0.447,0.027 0.745,0.044 C -0.284,1.553 -0.312,1.709 -0.37,2.022 -0.159,2.027 -0.054,2.03 0.156,2.034 0.273,1.376 0.389,0.717 0.505,0.059 0.303,0.035 0.202,0.023 0,0"
           id="path120785"
           style="fill:#ffffff;fill-opacity:1;fill-rule:nonzero;stroke:none" />
      </g>
      <g
         transform="matrix(23.124061,0,0,-23.124061,596.69228,396.02693)"
         id="g120787">
        <path
           d="m 0,0 c -0.047,-0.002 -0.071,-0.003 -0.117,-0.005 0.067,-0.419 0.101,-0.629 0.169,-1.048 0.046,0.005 0.069,0.007 0.114,0.011 0.338,0.032 0.527,0.254 0.48,0.56 C 0.599,-0.175 0.344,0.015 0,0 M 0.356,-1.437 C 0.059,-1.471 -0.09,-1.489 -0.386,-1.524 -0.494,-0.884 -0.602,-0.245 -0.71,0.394 -0.401,0.402 -0.246,0.405 0.064,0.413 0.575,0.41 1.108,0.058 1.185,-0.445 1.257,-0.926 0.842,-1.371 0.356,-1.437"
           id="path120789"
           style="fill:#ffffff;fill-opacity:1;fill-rule:nonzero;stroke:none" />
      </g>
    </g>
  </g>
</svg>
