<svg xmlns="http://www.w3.org/2000/svg" width="600" height="432.815">
    <defs>
        <clipPath id="a">
            <path d="M47.494 369.18h13.451v9.703H47.494v-9.703z"/>
        </clipPath>
    </defs>
    <g clip-path="url(#a)" transform="matrix(44.60635 0 0 -44.60635 -2118.534 16900.587)">
        <path d="M60.945 369.18H47.494v9.703h13.451v-9.703z" fill="#231f20"/>
        <path d="M52.138 374.508l-.96-.084-.287.566-1.232-.108-.328-1.241-.96-.001 1.17 4.129.305.027-.074.147.845.074.54-1.121-.162-.014 1.143-2.374zM52.92 374.342v3.532h.902v-2.767h1.06v-.765h-1.963zM52.866 371.634c0-.241-.019-.431-.06-.575a1.268 1.268 0 0 0-.283-.495c-.296-.33-.705-.491-1.217-.491-.249 0-.483.04-.695.12-.488.186-.75.533-.803 1.093a3.984 3.984 0 0 0-.014.348v2.006h.916v-1.881c0-.218.004-.352.02-.408a.668.668 0 0 1 .078-.213c.104-.18.273-.27.513-.27.248 0 .427.094.535.284.061.112.094.315.094.607v1.88h.916v-2.005zM56.237 370.165l-1.653 2.126v-2.126h-.9v3.475h.9l1.653-2.127v2.127h.9v-3.475h-.9zM57.844 370.165v3.475h1.974v-.765h-1.07v-.578h1.014v-.765h-1.015v-.602h1.071v-.765h-1.974z" fill="#fff"/>
        <path d="M57.146 377.854l-.978-.086-1.18-4.129.95-.002.337 1.257 1.24.11.28-.582.96.085-1.61 3.347z" fill="#fff"/>
        <path d="M50.606 375.607l-.43 1.273-.435-1.273h.865zM56.386 375.588l.435 1.273.43-1.273h-.865z" fill="#2787d0"/>
    </g>
</svg>
