<?xml version="1.0" encoding="UTF-8" standalone="no"?>
<svg xmlns:rdf="http://www.w3.org/1999/02/22-rdf-syntax-ns#" xmlns="http://www.w3.org/2000/svg" height="70.872mm" width="169.33mm" version="1.1" xmlns:cc="http://creativecommons.org/ns#" xmlns:dc="http://purl.org/dc/elements/1.1/" viewBox="0 0 599.99998 251.12205">
 <g transform="translate(-70.714 -435.4)">
  <path d="m94.176 529.8-3.152-36-20.31 3.58 12.179 69.13 56.097-9.88-5.3-30.27-39.514 3.44z" fill="#66cef5"/>
  <path d="m357.52 506.76 1.94 11-220.47 38.86 2.15 12.04 276.56-48.75-12.18-69.17-35.78 6.34 4.22 48.25-16.44 1.43z" fill="#fddd04"/>
  <path d="m347.28 448.61 2.11 12.04 20.34-3.58-1.89-21.67-279.79 24.46 2.971 33.96 256.26-45.21z" fill="#cce657"/>
  <path d="m133.67 526.35-4.73-26.83 220.47-38.86-2.15-12.04-256.21 45.2 3.112 35.97 39.508-3.44z" fill="#0994dc"/>
  <path d="m133.67 526.35 5.34 30.3 220.47-38.9-1.97-10.99 16.44-1.44-4.23-48.25-240.78 42.45 4.73 26.83z" fill="#fab20b"/>
  <g fill="#050301">
   <path d="m247.09 670-4.8-14.18-4.83 14.18h9.63zm18.34 16.52h-12.29l-3.04-7.56h-15.76l-3.08 7.56h-12.29l17.05-44.49h3.91l-0.76-1.9h10.82l5.63 14.87h-2.08l11.89 31.52z"/>
   <path d="m281.89 686.46v-44.35h11.53v34.61h12.5v9.74h-24.03z"/>
   <path d="m331.26 655.83-4.84 14.15h9.57l-4.73-14.15zm10.74 30.62-2.9-7.7h-15.87l-3.04 7.7h-12.18l17.05-44.34h12.54l16.72 44.34h-12.32z"/>
   <path d="m397.49 664.28c0-7.56-5.01-12.4-12.61-12.4h-2.58v24.83h2.58c7.6 0 12.61-4.88 12.61-12.43m12.07 0c0 5.98-2.18 11.17-6.52 15.61-4.29 4.37-9.38 6.56-15.29 6.56h-16.98v-44.35h16.98c5.87 0 10.92 2.26 15.26 6.67 4.37 4.44 6.55 9.6 6.55 15.51"/>
   <path d="m414.6 686.46v-44.35h25.22v9.75h-13.68v7.38h12.96v9.78h-12.96v7.7h13.68v9.74h-25.22z"/>
   <path d="m488.11 686.46-3.29-25.54-10.71 25.54h-4.62l-10.18-25.54-3.79 25.54h-11.47l7.53-44.35h11.42l8.99 23.65 9.5-23.65h11.42l6.74 44.35h-11.54z"/>
   <path d="m523.62 655.83-4.84 14.15h9.57l-4.73-14.15zm10.75 30.62-2.91-7.7h-15.9l-3.01 7.7h-12.18l17.05-44.34h12.5l16.77 44.34h-12.32z"/>
   <path d="m582.32 686.46-21.17-27.15v27.15h-11.53v-44.35h11.53l21.17 27.16v-27.16h11.54v44.35h-11.54z"/>
   <path d="m628.22 664.28c0-7.56-5.01-12.4-12.6-12.4h-2.58v24.83h2.58c7.59 0 12.6-4.88 12.6-12.43m12.08 0c0 5.98-2.22 11.17-6.52 15.61-4.34 4.37-9.42 6.56-15.3 6.56h-16.98v-44.35h16.98c5.84 0 10.93 2.26 15.23 6.67 4.37 4.44 6.59 9.6 6.59 15.51"/>
   <path d="m644.8 686.46v-44.35h25.18v9.75h-13.65v7.38h12.93v9.78h-12.93v7.7h13.65v9.74h-25.18z"/>
  </g>
  <path d="m180.63 627.93h490.08v-122.5h-490.08v122.5z" fill="#231f20"/>
  <path d="m649.78 572.06s-0.1 0.22-0.43 0.22h-26.43c-0.39 0-0.61 0.18-0.61 0.18s-0.29 0.14-0.29 0.64v28.19c0 0.4-0.21 0.5-0.21 0.5s-0.11 0.18-0.43 0.18h-20.95c-0.33 0-0.51-0.18-0.51-0.18s-0.1-0.1-0.1-0.61v-28.19c0-0.32-0.33-0.53-0.33-0.53s-0.1-0.18-0.43-0.18h-27.04c-0.54 0-0.61-0.07-0.61-0.07s-0.21-0.22-0.21-0.9v-20.63c0-0.22 0.21-0.5 0.21-0.5s0.07-0.08 0.29-0.08h27.69c0.21 0 0.21-0.1 0.21-0.1s0.22-0.15 0.22-0.33v-24.68c0-0.28 0.1-0.5 0.1-0.5s0.18-0.1 0.79-0.1h20.56c0.43 0 0.54 0.1 0.54 0.1s0.21 0.22 0.21 0.61v24.75h26.83c0.72 0 0.93 0.15 0.93 0.15s0.33 0.1 0.33 0.68v20.88c0 0.22-0.33 0.5-0.33 0.5m-81.88 29.02c-0.14 0.61-0.21 0.82-0.21 0.82s-0.11 0.21-0.65 0.21h-42.52c-1.25 0-1.57-0.32-1.57-0.32s-0.22-0.43-0.07-1.32l10.53-73.33c0.07-0.89 0.28-1.21 0.28-1.21h1.11 19.35c0.53 0 0.71 0.1 0.71 0.1s0.11 0.29 0 0.72l-7.91 57.31c-0.11 0.61 0.18 0.68 0.18 0.68s0.21 0.11 1.03 0.11h21.07c0.39 0 0.6 0.21 0.6 0.21s0.15 0.11 0.15 0.65l-2.08 15.37zm-54.23 1.11h-18.88c-0.43 0.21-0.75-0.22-0.75-0.22s-0.11-0.07-0.21-0.68l-2.48-11.64c-0.18-0.65-0.39-0.97-0.39-0.97s-0.54-0.28-1.15-0.28h-24.57c-0.5 0-0.82 0.28-0.82 0.28s-0.43 0.43-0.65 1.04l-5.55 11.86c-0.14 0.32-0.32 0.39-0.32 0.39s-0.4 0.14-0.65 0.14h-21.27c-0.47 0.08-0.68-0.21-0.68-0.21s-0.11-0.21 0.21-0.61l37.47-74.83c0.18-0.14 0.39-0.43 0.39-0.43s0.22-0.1 0.83-0.1h23.28c0.46 0 0.82 0.32 0.82 0.32s0.11 0.07 0.18 0.39l15.62 75.15c0 0.18-0.11 0.32-0.11 0.32s0 0.08-0.32 0.08m-88.51-0.08h-18.91-0.61s-0.11-0.14-0.22-0.21l-26.22-46.53c-0.18-0.25-0.28-0.25-0.28-0.25s-0.22 0-0.22 0.32l-6.48 45.74c-0.11 0.51-0.25 0.61-0.25 0.61s-0.22 0.11-0.51 0.11h-18.8c-0.32 0-0.47-0.21-0.47-0.21s-0.43-0.4-0.35-0.83l10.35-74c0.07-0.4 0.28-0.54 0.28-0.54s0.33-0.29 0.61-0.29h20.99c0.29 0 0.5 0.22 0.5 0.22s0.22 0.07 0.33 0.39l23.64 41.52c0.39 0.82 0.71 0.71 0.71 0.71s0.33 0 0.54-0.93l5.98-41.3c0-0.32 0.22-0.39 0.22-0.39s0.11-0.22 0.39-0.22l19.74 0.22c0.39 0 0.54 0.07 0.54 0.07s0.07 0.14 0.07 0.32l-10.64 74.65c-0.07 0.4-0.32 0.68-0.32 0.68s-0.11 0.14-0.61 0.14m-82.6-0.21-18.38 0.07c-0.43 0-0.75-0.18-0.75-0.18s-0.11-0.1-0.18-0.82l-2.9-11.86c0-0.32-0.22-0.43-0.22-0.43h-0.28-25.94c-0.53 0-0.82 0.43-0.82 0.43s-0.43 0.32-0.72 1.04l-5.15 11.03c-0.18 0.4-0.33 0.51-0.33 0.51s-0.32 0.21-0.6 0.21h-21.43c-0.57 0.07-0.68-0.21-0.68-0.21s-0.1-0.33 0.11-0.72l37.04-74.51c0.21-0.43 0.54-0.53 0.54-0.53h0.71 23.68c0.36 0 0.68 0.32 0.68 0.32s0.11 0.07 0.22 0.39l15.9 74.72c0 0.33-0.22 0.43-0.22 0.43s-0.1 0.11-0.28 0.11m140.02-54.37s-0.11 0-0.22 0.35l-10.31 23.39c-0.22 0.72-0.11 0.79-0.11 0.79s0.32 0.22 0.54 0.22l15.29-0.07h0.18s0.11-0.15 0-0.43l-5.16-23.97c-0.07-0.28-0.21-0.28-0.21-0.28m-171.44 0.28s-0.1 0-0.21 0.22l-10.28 23.42c-0.22 0.33-0.14 0.54-0.14 0.54s0.14 0.07 0.6 0.07l15.23 0.15c0.11 0 0.18-0.15 0.18-0.15s0.1-0.07 0-0.39l-5.27-23.64c0-0.22-0.11-0.22-0.11-0.22m-52.87 51.51c-0.07 0.82-0.5 1.47-0.5 1.47s-0.39 0.39-1.14 0.57c-9.93 4.05-20.96 2.73-20.96 2.73-17.87-1.98-29.23-12.94-32.85-27.08-5.37-21.14 5.27-36.22 7.85-39.41 6.3-7.52 16.12-12.89 25.72-14.15 12.28-1.79 21.38 1.12 25.07 2.37 0 0 4.16 1.32 7.27 3.4 1.54 1.08 1.72 1.47 1.72 1.47s0.11 0.18-0.28 1.83l-2.91 15.18c-0.1 0.61-0.53 0.94-0.53 0.94s-0.18 0.07-1.61-0.83c-9.32-6.62-20.14-5.76-20.14-5.76-8.27 0.5-17.91 4.83-20.81 15.79-2.54 9.71 0.15 17.84 5.88 22.71 3.97 3.37 10.06 5.16 16.48 4.84 7.02-0.54 12.57-3.33 12.17-3.12 0 0 0.29-0.07 0.65-0.21 1.43-0.72 1.72-0.61 1.72-0.61s0.32 0.32 0.11 1.25l-2.91 16.62" fill="#fff"/>
 </g>
</svg>
