<svg xmlns="http://www.w3.org/2000/svg" height="112.59" width="600">
    <path d="M600.003 12.61h-600v99.988h600V12.61z"/>
    <path fill="#FFF" d="M551.713 92.25h-16.956l14.564-26.416-20.669-35.77h17.563l11.423 21.205 11.173-21.204h17.313L551.712 92.25zM65.493 89.94c-.071.678-.428 1.213-.428 1.213s-.357.322-.928.5c-8.21 3.32-17.35 2.213-17.35 2.213-14.742-1.606-24.13-10.638-27.13-22.346-4.426-17.492 4.392-29.95 6.498-32.592 5.212-6.247 13.315-10.673 21.24-11.709 10.174-1.428 17.67.964 20.74 1.964 0 0 3.427 1.106 5.961 2.82 1.321.857 1.464 1.214 1.464 1.214s.107.142-.25 1.535l-2.392 12.53c-.071.5-.428.785-.428.785s-.179.071-1.357-.714c-7.675-5.426-16.635-4.783-16.635-4.783-6.854.428-14.779 4.033-17.17 13.065-2.106 8.031.107 14.779 4.89 18.777 3.214 2.82 8.247 4.283 13.53 4.033 5.819-.428 10.424-2.748 10.102-2.57 0 0 .25-.107.5-.178 1.213-.607 1.463-.5 1.463-.5s.25.25.072 1l-2.392 13.742zM198.027 92.2h-15.814s-.07-.072-.142-.179l-21.276-37.7c-.143-.178-.25-.178-.25-.178l-.143.285-5.283 37.018c-.071.429-.143.5-.143.5s-.178.071-.428.071h-15.243c-.25 0-.393-.142-.393-.142s-.321-.357-.25-.679l8.353-59.97c.072-.322.25-.393.25-.393s.25-.25.5-.25h16.992c.25 0 .393.143.393.143s.178.107.25.357l19.169 33.59c.32.679.57.607.57.607l.43-.75 4.854-33.447c0-.25.178-.357.178-.357s.072-.072.322-.072h15.992c.321 0 .392.179.392.179s.072.071.072.25l-8.603 60.436c-.072.357-.25.607-.25.607s-.071.071-.5.071M113.003 67.87s-.071.071-.178.071l-12.28-.071c-.428 0-.5-.107-.5-.107s-.071-.143.072-.393l8.388-18.991c.072-.179.143-.179.143-.179l.107.179 4.248 19.169c.072.214 0 .321 0 .321m7.747-36.804c-.072-.25-.179-.321-.179-.321s-.25-.25-.571-.25H100.26s-.25.071-.429.393l-30.02 60.4c-.18.321-.072.57-.072.57s.071.25.571.18h17.313c.25 0 .5-.18.5-.18s.107-.07.25-.392l4.212-8.96c.214-.607.571-.857.571-.857s.25-.32.679-.32h21.204s.178.07.178.32l2.356 9.639c.071.57.178.642.178.642s.25.143.572.143h14.886c.178 0 .25-.143.25-.143s.178-.071.178-.321L120.75 31.065zM231.318 69.37c-.285 0-.428-.215-.32-.464l6.389-18.67c.107-.25.214-.25.321 0l6.247 18.67c.072.25-.071.464-.357.464h-12.28zm-1.928-38.84c-.25 0-.57.214-.642.464l-23.346 60.792c-.107.25.036.464.321.464h15.921c.286 0 .607-.214.678-.464l3.856-9.781c.107-.25.392-.464.678-.464h21.133c.285 0 .571.214.678.464l3.677 9.78c.107.25.393.465.678.465h16.135c.286 0 .429-.214.321-.464l-22.958-60.78c-.107-.25-.392-.464-.678-.464h-16.456zM291.833 76.25c0 .32.25.57.572.57h16.813c.32 0 .57.25.57.572v14.386c0 .321-.25.571-.57.571h-35.162a.564.564 0 0 1-.572-.571V30.272c0-.286.25-.535.572-.535h17.206c.32 0 .57.25.57.535V76.25zM461.023 92.35h-34.055l7.64-62.256h15.778l-5.962 48.548h18.241l-1.642 13.708zM498.493 49.35l-6.818 19.848h13.458l-6.64-19.848zm15.1 42.98l-4.07-10.781h-22.31l-4.248 10.78h-17.1l23.918-62.22h17.599l23.489 62.22h-17.277zM408.233 50.88c0-5.248-2.891-7.818-8.817-7.818h-5.39v15.564h5.319c5.89 0 8.888-2.606 8.888-7.746m16.956-.179c0 13.958-6.996 20.954-21.026 20.954h-10.138V92.36h-16.207V30.032h25.773c6.64 0 11.78 1.75 15.528 5.212 4.07 3.82 6.069 8.996 6.069 15.457"/>
    <path d="M313.933 105.99V0l90.885 53.046-90.885 52.939z"/>
    <path fill="#009fe3" d="M319.403 9.55v86.923l74.536-43.408L319.403 9.55z"/>
</svg>
