<svg version="1.1" viewBox="0 0 600.01 273.55" xmlns="http://www.w3.org/2000/svg">
 <g transform="translate(-4.409e-6 -42.178)">
  <g transform="matrix(23.124 0 0 -23.124 360.11 168.82)">
   <path d="m0 0h-11.086v-5.483h1.301l-0.401 4.592z" fill="#f47216"/>
  </g>
  <g transform="matrix(23.124 0 0 -23.124 569.94 295.6)">
   <path d="m0 0v0.773l-8.835-0.773z" fill="#f47216"/>
  </g>
  <g transform="matrix(23.124 0 0 -23.124 135.61 315.73)">
   <path d="m0 0 9.948 0.87h-10.024z" fill="#fddd04"/>
  </g>
  <g transform="matrix(23.124 0 0 -23.124 588.96 148.8)">
   <path d="m0 0-9.896-0.866h9.074v-4.71l1.3 0.114z" fill="#fddd04"/>
  </g>
  <g transform="matrix(23.124 0 0 -23.124 360.11 168.82)">
   <path d="m0 0-10.186-0.891 0.401-4.592h10.024l8.835 0.773v4.71z" fill="#f89c0e"/>
  </g>
  <g transform="matrix(23.124 0 0 -23.124 202.34 225.78)">
   <path d="m0 0v-1.905h-0.96v1.905h-0.348v0.795h0.348v-0.042l0.016 0.345c0.01 0.251 0.138 0.481 0.384 0.689 0.245 0.209 0.518 0.309 0.811 0.309 0.139 0 0.277-0.031 0.421-0.1v-0.828c-0.133 0.064-0.245 0.097-0.33 0.097-0.229 0-0.342-0.129-0.342-0.38v-0.09h0.672v-0.795z" fill="#fff"/>
  </g>
  <g transform="matrix(23.124 0 0 -23.124 262.78 239.67)">
   <path d="m0 0c0 0.167-0.057 0.307-0.177 0.427s-0.26 0.177-0.427 0.177c-0.166 0-0.307-0.057-0.426-0.177-0.12-0.12-0.177-0.26-0.177-0.422 0-0.338 0.265-0.607 0.603-0.607 0.167 0 0.307 0.056 0.427 0.176s0.177 0.26 0.177 0.426m-0.026-1.326v0.292c-0.047-0.058-0.078-0.095-0.099-0.11-0.182-0.182-0.421-0.271-0.718-0.271-0.39 0-0.712 0.141-0.967 0.427-0.25 0.276-0.375 0.604-0.375 0.993 0 0.562 0.307 1.077 0.812 1.301 0.161 0.068 0.332 0.104 0.52 0.104 0.249 0 0.457-0.052 0.624-0.162 0.057-0.036 0.125-0.099 0.203-0.181v0.26h0.936v-2.653z" fill="#fff"/>
  </g>
  <g transform="matrix(23.124 0 0 -23.124 395.38 219.85)">
   <path d="m0 0c-0.021 0.055-0.046 0.106-0.077 0.153-0.152 0.219-0.439 0.355-0.757 0.355-0.392 0-0.689-0.168-0.898-0.496-0.218 0.344-0.49 0.491-0.902 0.491-0.292 0-0.537-0.084-0.751-0.261-0.026-0.026-0.062-0.058-0.115-0.105v0.324h-0.939v-2.64h0.939v1.304c0 0.235 0.021 0.355 0.068 0.449 0.063 0.125 0.224 0.224 0.365 0.224 0.162 0 0.313-0.109 0.37-0.256 0.037-0.093 0.042-0.135 0.042-0.417v-1.304h0.94v1.304c0 0.198 0.015 0.308 0.061 0.408 0.074 0.145 0.231 0.244 0.387 0.244 0.157 0 0.282-0.088 0.344-0.229 0.047-0.11 0.052-0.141 0.052-0.423v-1.304h0.94v1.716c0 0.191-0.023 0.339-0.069 0.463" fill="#fff"/>
  </g>
  <path d="m405.41 209.43h21.806v61.279h-21.806zm23.263-19.008c0 6.7754-5.7116 12.117-12.348 12.117-3.2836 0-6.1741-1.2256-8.6022-3.5148-2.428-2.428-3.6305-5.2029-3.6305-8.4634 0-6.891 5.4342-12.371 12.233-12.371 6.7522 0 12.348 5.4804 12.348 12.233" fill="#fff"/>
  <path d="m439.06 179.86h21.898v91.178h-21.898z" fill="#fff"/>
  <g transform="matrix(23.124 0 0 -23.124 489.77 287.56)">
   <path d="m0 0h-1.062l0.936 1.741-1.294 2.297h1.1l0.714-1.362 0.7 1.362h1.083z" fill="#fff"/>
  </g>
  <path d="m506.6 42.178h-506.6v126.65h506.6z" fill="#151922"/>
  <g transform="matrix(23.124 0 0 -23.124 484.98 111.04)">
   <path d="m0 0-0.018-9e-3h-1.182c-0.019 0-0.028-0.01-0.028-0.01s-0.014-4e-3 -0.014-0.027v-1.26c0-0.018-9e-3 -0.023-9e-3 -0.023l-0.018-9e-3h-0.938l-0.023 9e-3s-4e-3 5e-3 -4e-3 0.028v1.259l-0.015 0.023-0.018 0.01h-1.209c-0.023 0-0.028 4e-3 -0.028 4e-3s-9e-3 9e-3 -9e-3 0.037v0.923l9e-3 0.023 0.014 5e-3h1.237l9e-3 4e-3 0.01 0.014v1.103l4e-3 0.023s9e-3 5e-3 0.037 5e-3h0.919c0.018 0 0.023-5e-3 0.023-5e-3s9e-3 -9e-3 9e-3 -0.027v-1.108h1.2c0.033 0 0.042-5e-3 0.042-5e-3s0.014-4e-3 0.014-0.032v-0.932zm-3.661-1.297c-5e-3 -0.027-9e-3 -0.036-9e-3 -0.036s-5e-3 -0.01-0.028-0.01h-1.902c-0.055 0-0.069 0.014-0.069 0.014s-9e-3 0.019-5e-3 0.06l0.471 3.276c4e-3 0.042 0.014 0.055 0.014 0.055h0.914c0.023 0 0.032-4e-3 0.032-4e-3s5e-3 -0.014 0-0.032l-0.355-2.561c-5e-3 -0.028 9e-3 -0.033 9e-3 -0.033s9e-3 -4e-3 0.046-4e-3h0.942c0.018 0 0.028-9e-3 0.028-9e-3s4e-3 -5e-3 4e-3 -0.028zm-2.424-0.051h-0.844c-0.019-9e-3 -0.033 0.01-0.033 0.01s-4e-3 5e-3 -9e-3 0.032l-0.111 0.521c-9e-3 0.028-0.018 0.042-0.018 0.042s-0.023 0.014-0.051 0.014h-1.099c-0.023 0-0.037-0.014-0.037-0.014s-0.018-0.018-0.027-0.046l-0.25-0.531-0.014-0.018-0.027-5e-3h-0.951c-0.024-5e-3 -0.033 0.01-0.033 0.01s-4e-3 9e-3 9e-3 0.027l1.676 3.345 0.019 0.019s9e-3 4e-3 0.037 4e-3h1.038c0.023 0 0.038-0.013 0.038-0.013l9e-3 -0.019 0.697-3.359-5e-3 -0.014zm-3.956 5e-3h-0.873l-9e-3 0.01-1.172 2.081-0.014 9e-3 -9e-3 -0.014-0.291-2.044c-5e-3 -0.023-0.01-0.028-0.01-0.028l-0.023-4e-3h-0.84l-0.023 9e-3s-0.019 0.018-0.014 0.036l0.462 3.309c4e-3 0.018 0.014 0.023 0.014 0.023l0.027 0.014h0.938l0.022-9e-3 0.014-0.019 1.058-1.855c0.018-0.037 0.032-0.032 0.032-0.032s0.014 0 0.023 0.042l0.268 1.845 9e-3 0.019 0.019 9e-3 0.881-9e-3c0.019 0 0.023-5e-3 0.023-5e-3l5e-3 -0.014-0.475-3.336c-5e-3 -0.018-0.015-0.032-0.015-0.032s-4e-3 -5e-3 -0.027-5e-3m-3.693 0.01-0.822-5e-3c-0.019 0-0.032 9e-3 -0.032 9e-3s-5e-3 5e-3 -0.01 0.037l-0.129 0.531-9e-3 0.018h-1.173c-0.023 0-0.037-0.018-0.037-0.018s-0.018-0.014-0.032-0.047l-0.231-0.493c-9e-3 -0.019-0.014-0.023-0.014-0.023l-0.028-9e-3h-0.955c-0.028-5e-3 -0.032 9e-3 -0.032 9e-3s-5e-3 0.014 4e-3 0.032l1.658 3.331c9e-3 0.019 0.023 0.023 0.023 0.023h1.089c0.019 0 0.032-0.013 0.032-0.013l0.01-0.019 0.711-3.34-9e-3 -0.019zm6.26 2.431s-5e-3 0-0.01-0.018l-0.461-1.043c-0.01-0.033-5e-3 -0.037-5e-3 -0.037l0.023-9e-3 0.683 4e-3h0.01v0.019l-0.231 1.07zm-7.664-0.014-9e-3 -9e-3 -0.462-1.047-4e-3 -0.024s4e-3 -4e-3 0.027-4e-3l0.679-5e-3 9e-3 5e-3v0.018l-0.235 1.057zm-2.364-2.302c-4e-3 -0.037-0.023-0.065-0.023-0.065s-0.018-0.018-0.05-0.027c-0.444-0.18-0.938-0.121-0.938-0.121-0.798 0.088-1.306 0.577-1.468 1.209-0.24 0.946 0.236 1.62 0.351 1.763 0.282 0.337 0.72 0.577 1.15 0.632 0.549 0.079 0.955-0.051 1.122-0.106 0 0 0.184-0.06 0.323-0.152 0.069-0.046 0.078-0.065 0.078-0.065s5e-3 -9e-3 -0.014-0.083l-0.129-0.678c-4e-3 -0.028-0.023-0.042-0.023-0.042s-9e-3 -4e-3 -0.074 0.037c-0.415 0.296-0.9 0.259-0.9 0.259-0.369-0.023-0.799-0.217-0.928-0.706-0.115-0.434 4e-3 -0.799 0.263-1.015 0.175-0.153 0.448-0.231 0.734-0.217 0.314 0.023 0.563 0.147 0.545 0.138l0.028 9e-3c0.064 0.033 0.078 0.028 0.078 0.028s0.014-0.014 5e-3 -0.055z" fill="#fff"/>
  </g>
 </g>
</svg>
