<svg width="600" height="273" version="1.1" viewBox="0 0 158.75 72.231" xmlns="http://www.w3.org/2000/svg">
 <defs>
  <clipPath id="c">
   <path d="m666.14 0h666.16v907.09h-666.16v-907.09z"/>
  </clipPath>
  <clipPath id="b">
   <path d="m1225.1 263.53h55v-19.63h-55v19.63z"/>
  </clipPath>
  <clipPath id="a">
   <path d="m1227.8 261.26h48.8v-15.14h-48.8v15.14z"/>
  </clipPath>
 </defs>
 <g transform="translate(191.23 -68.693)">
  <path d="m-41.313 135.31h-118.72v-33.3h118.72l-3e-3 33.3z" fill="#009335"/>
  <g transform="matrix(2.5352 0 0 -2.5352 -3275.4 761.81)">
   <g clip-path="url(#c)">
    <g clip-path="url(#b)" opacity=".5">
     <g transform="translate(1228.8 258.23)">
      <path d="m0 0-2.744-0.24 1.145-13.088 25.298 2.213h-23.699v11.115zm49.166 4.301-26.039-2.278h23.699v-11.115l3.485 0.305-1.145 13.088z" fill="#009335"/>
     </g>
    </g>
    <g clip-path="url(#a)" opacity=".5">
     <g transform="translate(1275.6 260.26)">
      <path d="m0 0h-23.699l-23.127-2.023v-11.115h23.699l23.127 2.023v11.115z" fill="#009335"/>
     </g>
    </g>
   </g>
  </g>
  <path d="m-57.98 68.693h-133.25v33.307h133.25v-33.307z"/>
  <g transform="matrix(2.5352 0 0 -2.5352 -170.11 94.217)">
   <path d="m0 0c-0.01-0.09-0.055-0.155-0.055-0.155s-0.043-0.046-0.124-0.065c-1.061-0.435-2.243-0.289-2.243-0.289-1.918 0.209-3.137 1.383-3.527 2.9-0.576 2.268 0.568 3.886 0.844 4.228 0.675 0.806 1.729 1.382 2.758 1.518 1.317 0.189 2.292-0.122 2.691-0.255 0 0 0.445-0.144 0.778-0.367 0.165-0.111 0.185-0.155 0.185-0.155s0.012-0.02-0.031-0.199l-0.313-1.626c-0.01-0.067-0.054-0.101-0.054-0.101s-0.023-9e-3 -0.175 0.09c-0.999 0.708-2.162 0.619-2.162 0.619-0.885-0.057-1.915-0.521-2.227-1.694-0.275-1.041 0.014-1.915 0.631-2.438 0.423-0.361 1.077-0.551 1.762-0.518 0.755 0.056 1.352 0.355 1.308 0.335 0 0 0.032 8e-3 0.068 0.02 0.154 0.078 0.187 0.067 0.187 0.067s0.032-0.034 0.012-0.135l-0.313-1.78zm5.671 5.524-0.023-0.021-1.103-2.514c-0.024-0.035-0.015-0.057-0.015-0.057s0.015-0.011 0.067-0.011l1.627-0.013 0.021 0.013s0.012 0.011 0 0.043l-0.566 2.539-8e-3 0.021zm18.382 0.031s-8e-3 0-0.019-0.041l-1.108-2.506c-0.023-0.076-0.013-0.087-0.013-0.087l0.058-0.022 1.639 9e-3h0.021s0.011 0.013 0 0.046l-0.555 2.57c-9e-3 0.031-0.023 0.031-0.023 0.031m-15.016-5.833-1.971-9e-3c-0.045 0-0.079 0.019-0.079 0.019s-0.012 0.011-0.021 0.09l-0.31 1.273c0 0.033-0.022 0.045-0.022 0.045h-2.809c-0.057 0-0.089-0.045-0.089-0.045s-0.046-0.034-0.079-0.111l-0.553-1.185c-0.022-0.041-0.034-0.056-0.034-0.056s-0.035-0.021-0.066-0.021h-2.295c-0.064-9e-3 -0.075 0.021-0.075 0.021s-0.012 0.037 0.011 0.079l3.974 7.993c0.023 0.044 0.054 0.055 0.054 0.055h2.616c0.04 0 0.075-0.033 0.075-0.033s0.013-0.01 0.023-0.045l1.706-8.012c0-0.037-0.023-0.048-0.023-0.048l-0.033-0.01zm8.86-0.022h-2.093l-0.022 0.022-2.812 4.993-0.033 0.023s-0.022 0-0.022-0.033l-0.697-4.906c-0.013-0.056-0.023-0.067-0.023-0.067s-0.025-0.01-0.057-0.01h-2.017c-0.032 0-0.052 0.021-0.052 0.021s-0.045 0.045-0.036 0.09l1.109 7.938c0.01 0.044 0.032 0.056 0.032 0.056s0.033 0.032 0.067 0.032h2.249c0.033 0 0.055-0.022 0.055-0.022s0.022-0.01 0.033-0.045l2.537-4.448c0.042-0.093 0.076-0.079 0.076-0.079s0.035 0 0.057 0.099l0.641 4.428c0 0.035 0.023 0.045 0.023 0.045s0.011 0.022 0.043 0.022l2.117-0.022c0.044 0 0.056-0.01 0.056-0.01l9e-3 -0.035-1.139-8.004c-0.01-0.045-0.033-0.075-0.033-0.075s-0.013-0.013-0.068-0.013m9.492-0.01h-2.028c-0.042-0.024-0.078 0.023-0.078 0.023s-9e-3 9e-3 -0.021 0.075l-0.265 1.249c-0.02 0.069-0.045 0.103-0.045 0.103s-0.055 0.032-0.122 0.032h-2.636c-0.053 0-0.088-0.032-0.088-0.032s-0.045-0.045-0.067-0.111l-0.597-1.271c-0.013-0.036-0.034-0.045-0.034-0.045s-0.043-0.013-0.069-0.013h-2.28c-0.054-0.01-0.076 0.022-0.076 0.022s-0.011 0.021 0.022 0.066l4.019 8.027 0.045 0.044s0.023 0.011 0.088 0.011h2.492c0.056 0 0.091-0.033 0.091-0.033s0.01-0.01 0.02-0.045l1.672-8.06-0.01-0.032s0-0.01-0.033-0.01m5.816 0.119c-0.014-0.066-0.023-0.087-0.023-0.087s-0.013-0.022-0.067-0.022h-4.562c-0.134 0-0.168 0.032-0.168 0.032s-0.022 0.048-0.01 0.146l1.13 7.86c9e-3 0.099 0.033 0.132 0.033 0.132h2.192c0.057 0 0.079-0.011 0.079-0.011s0.01-0.032 0-0.076l-0.854-6.147c-0.011-0.066 0.023-0.074 0.023-0.074s0.024-0.013 0.11-0.013h2.259c0.043 0 0.067-0.022 0.067-0.022s0.013-0.011 0.013-0.067l-0.222-1.651zm8.781 3.112s-8e-3 -0.022-0.043-0.022h-2.837c-0.045 0-0.066-0.022-0.066-0.022s-0.03-0.01-0.03-0.066v-3.023c0-0.045-0.023-0.056-0.023-0.056s-0.013-0.019-0.049-0.019h-2.246c-0.034 0-0.055 0.019-0.055 0.019s-0.01 0.011-0.01 0.067v3.022c0 0.034-0.033 0.056-0.033 0.056s-0.014 0.022-0.044 0.022h-2.903c-0.055 0-0.067 9e-3 -0.067 9e-3s-0.023 0.024-0.023 0.092v2.214c0 0.024 0.023 0.055 0.023 0.055l0.034 9e-3h2.966c0.025 0 0.025 0.013 0.025 0.013l0.022 0.033v2.647c0 0.03 0.01 0.054 0.01 0.054s0.021 0.012 0.088 0.012h2.205c0.044 0 0.057-0.012 0.057-0.012s0.023-0.024 0.023-0.066v-2.656h2.878c0.076 0 0.098-0.012 0.098-0.012s0.036-0.013 0.036-0.077v-2.238l-0.036-0.055z" fill="#fff"/>
  </g>
  <g fill="#fff">
   <g transform="matrix(2.5352 0 0 -2.5352 -80.241 126.14)">
    <path d="m0 0h-2.166l-1.753 2.908-0.352-2.908h-1.861l0.902 7.343h2.39c1.742 0 2.594-0.735 2.594-2.233 0-0.771-0.197-1.312-0.647-1.732-0.234-0.226-0.43-0.332-0.911-0.527l1.804-2.851zm-3.791 4.093h0.334c0.781 0 1.318 0.371 1.318 0.931 0 0.48-0.379 0.743-1.065 0.743h-0.352l-0.235-1.674z" fill="#fff"/>
   </g>
   <g transform="matrix(2.5352 0 0 -2.5352 -69.788 126.14)">
    <path d="m0 0h-1.908v5.727h-1.547v1.616h5.043v-1.616h-1.588v-5.727z" fill="#fff"/>
   </g>
   <g transform="matrix(2.5352 0 0 -2.5352 -140.01 112.37)">
    <path d="m0 0c-0.4 0.345-0.79 0.502-1.21 0.502-0.457 0-0.798-0.275-0.798-0.637 0-0.137 0.056-0.266 0.171-0.364 0.123-0.117 0.293-0.207 0.475-0.264 0.105-0.039 0.324-0.099 0.638-0.196 0.657-0.206 0.991-0.391 1.295-0.734 0.323-0.354 0.457-0.745 0.457-1.311 0-0.452-0.116-1.017-0.267-1.334-0.399-0.792-1.362-1.292-2.513-1.292-0.563 0-1.038 0.108-1.619 0.353-0.38 0.157-0.524 0.246-0.866 0.491l0.79 1.524c0.571-0.504 1.094-0.743 1.638-0.743 0.552 0 0.895 0.285 0.895 0.727 0 0.146-0.057 0.293-0.152 0.391-0.191 0.195-0.362 0.272-0.962 0.449-0.591 0.177-0.819 0.264-1.085 0.412-0.562 0.294-0.838 0.843-0.838 1.635 0 1.479 0.98 2.478 2.427 2.478 0.753 0 1.551-0.208 2.266-0.597l-0.742-1.49z" fill="#fff"/>
   </g>
   <g transform="matrix(2.5352 0 0 -2.5352 -129.34 126.14)">
    <path d="m0 0h-1.858v7.343h2.953c0.837 0 1.313-0.165 1.778-0.616 0.469-0.45 0.697-1.059 0.697-1.819 0-1.6-0.848-2.47-2.408-2.47h-1.162v-2.438zm0.609 3.975c0.704 0 1.018 0.283 1.018 0.912 0 0.615-0.333 0.919-1.008 0.919h-0.619v-1.831h0.609z" fill="#fff"/>
   </g>
   <g transform="matrix(2.5352 0 0 -2.5352 -108.11 106.88)">
    <path d="m0 0c-2.328 0-4.059-1.712-4.059-4.002 0-2.181 1.789-3.874 4.1-3.874 2.337 0 4.102 1.693 4.102 3.943 0 2.259-1.765 3.933-4.143 3.933m0.041-6.003c-1.203 0-2.167 0.97-2.167 2.176 0 1.164 0.986 2.124 2.167 2.124 1.199 0 2.166-0.96 2.166-2.145 0-1.196-0.967-2.155-2.166-2.155" fill="#fff"/>
   </g>
  </g>
 </g>
 <g transform="translate(8.61 -188.53)" fill="#fff">
  <path d="m132.47 192.6v-4.07h-2.73v10.52h2.73v-4.34h2.67v-2.11"/>
  <path d="m136.41 191.97v7.08h2.73v-10.52h-2.73"/>
  <path d="m148.58 190.12c-1.02-1.05-2.22-1.59-3.61-1.59h-4.02v2.32h3.35c1.79 0 2.98 1.15 2.98 2.94 0 1.8-1.19 2.94-2.98 2.94h-0.62v-4.61h-2.73v6.93h4.02c1.4 0 2.61-0.52 3.63-1.56 1.02-1.05 1.54-2.28 1.54-3.7 0-1.4-0.52-2.62-1.56-3.67"/>
 </g>
 <g fill="#fff" stroke-width=".36653" style="font-feature-settings:normal;font-variant-caps:normal;font-variant-ligatures:normal;font-variant-numeric:normal" aria-label="4">
  <path d="m136.19 38.595h6.8114v11.139h1.4596v3.9178h-1.4596v3.5593h-5.1213v-3.5593h-8.9624v-3.9178zm1.69 11.139v-5.7615l-3.7642 5.7615z" fill="#fff" stroke-width=".36653"/>
 </g>
</svg>
