<svg width="211.67mm" height="211.66mm" version="1.1" viewBox="0 0 211.67 211.66" xmlns="http://www.w3.org/2000/svg">
 <g transform="translate(98.16 54.769)">
  <path d="m2.4588 156.84c-17.727-0.91356-34.338-5.9803-49.545-15.112-1.6059-0.96434-5.8537-3.7732-7.093-4.6903-0.49492-0.36623-1.2572-0.93003-1.6938-1.2529-3.2104-2.3735-7.6055-6.1683-10.754-9.285-3.3744-3.3404-5.3792-5.5627-8.6336-9.5702-1.3771-1.6957-3.8795-5.14-5.3457-7.3576-9.5784-14.488-15.395-30.808-17.073-47.904-0.39521-4.0261-0.48107-5.9155-0.48107-10.587 0-4.671 0.08586-6.5605 0.48107-10.587 1.7781-18.114 8.2898-35.573 18.815-50.445 0.99833-1.4107 2.8755-3.9194 3.6043-4.8169 3.1924-3.9311 5.191-6.1485 8.5316-9.4654 3.2104-3.1876 7.5858-6.9721 10.856-9.3898 0.43669-0.32286 1.1989-0.88666 1.6938-1.2529 1.3571-1.0042 5.5631-3.7749 7.3576-4.8468 10.993-6.5663 22.82-11.043 35.147-13.304 7.1638-1.3137 13.769-1.8526 21.12-1.7229 2.0088 0.03544 4.3431 0.11331 5.1874 0.17304 16.991 1.2021 32.386 5.9587 46.898 14.49 1.3916 0.81812 2.0623 1.2377 4.3934 2.7486 8.6802 5.626 17.519 13.684 24.349 22.199 4.7294 5.8956 8.9232 12.458 12.256 19.179 1.0301 2.0769 2.4775 5.2366 2.7793 6.0671 0.0747 0.2056 0.25332 0.63583 0.39689 0.95608 0.86772 1.9354 2.72 7.2783 3.7321 10.765 5.4234 18.685 5.4234 39.82 0 58.504-1.0121 3.4869-2.8638 8.8327-3.719 10.737-0.1508 0.33573-0.33529 0.77864-0.41001 0.98424-0.29985 0.82514-1.7462 3.9841-2.7614 6.031-3.348 6.7509-7.5392 13.312-12.274 19.215-3.8618 4.8141-8.3465 9.4847-13.127 13.671-3.2222 2.8218-7.8808 6.3617-11.222 8.5272-2.3311 1.5109-3.0018 1.9305-4.3934 2.7486-9.8306 5.7794-19.75 9.7005-30.86 12.198-4.8558 1.0917-10.344 1.8788-15.986 2.2927-1.9972 0.14651-10.057 0.21349-12.227 0.10161zm9.2103-20.749c12.07-0.65624 23.184-3.6024 33.771-8.9518 5.664-2.862 9.6462-5.6341 13.604-9.4699 3.8186-3.7012 6.5966-7.1889 9.316-11.696 0.77044-1.277 2.6474-5.0286 3.3104-6.6166 3.6438-8.7282 4.9433-18.436 3.7242-27.82-0.59262-4.562-1.6498-8.6623-3.3493-12.991-0.67357-1.7156-2.5665-5.613-3.5479-7.3047-3.7844-6.5238-9.3962-12.659-15.523-16.97-0.72024-0.50679-1.4103-0.99932-1.5334-1.0945l-0.2239-0.17308 0.28815-0.35625c5.1262-6.3376 7.9978-13.09 8.9081-20.947 0.22356-1.9296 0.22377-6.4696 2.65e-4 -8.5003-1.639-14.901-11.668-27.681-25.718-32.772-3.2827-1.1896-10.586-3.034-12.339-3.1163l-0.46336-0.02175-0.07422 0.47639c-0.04085 0.26202-0.58078 3.4777-1.1999 7.1459-2.1006 12.446-2.3857 14.168-2.3857 14.415 0 0.19222 0.05812 0.24688 0.2625 0.24688 0.92217 0 7.2185 1.5833 8.8435 2.2238 2.1543 0.84913 3.9546 2.048 5.72 3.8089 2.5035 2.4971 3.9812 5.2492 4.6719 8.7008 0.34168 1.7075 0.33879 4.7115-0.0061 6.3337-0.80325 3.7781-2.6873 7.0431-5.4412 9.4291-2.2185 1.9222-4.9256 3.2605-7.7319 3.8224-2.6565 0.53188-9.7587 0.46492-13.835-0.13046-3.428-0.50067-8.8461-1.4128-15.078-2.5383-1.9171-0.34626-3.5084-0.60679-3.5362-0.57897-0.027821 0.02782-0.46837 2.5404-0.979 5.5835-0.51062 3.0431-1.2676 7.5297-1.6822 9.9703-0.41459 2.4406-0.73304 4.4915-0.70766 4.5577 0.02537 0.06614 0.53957 0.20098 1.1426 0.29964 1.0785 0.17644 9.4874 1.5903 20.629 3.4686 3.1151 0.52516 8.2125 1.3845 11.328 1.9097 6.3058 1.0631 7.1599 1.2312 8.8487 1.7419 8.96 2.7096 16.394 9.368 20.035 17.945 1.2908 3.0404 2.2176 6.8391 2.4005 9.8387 0.03371 0.55315 0.08076 1.3154 0.10452 1.6938 0.06034 0.96113-0.1191 4.0492-0.31988 5.505-0.69538 5.0419-2.6361 9.9269-5.5938 14.08-1.9561 2.7468-4.7589 5.5053-7.4139 7.2969-2.9542 1.9934-8.364 4.4911-12.927 5.9683-6.1036 1.9758-11.543 2.8813-18.05 3.0045-3.9948 0.0757-7.0176-0.107-10.613-0.64129-0.50948-0.0757-0.92632-0.11475-0.92632-0.0868 0 0.0646-2.2364 13.35-3.0153 17.912-0.32307 1.8924-0.61615 3.6372-0.65129 3.8775l-0.063878 0.43687 0.72719 0.12708c4.8396 0.84579 12.026 1.2434 17.295 0.95695zm-37.846-7.4363c0.03996-0.24746 0.32673-1.9506 0.63727-3.7847 0.92976-5.4914 3.1197-18.564 3.1472-18.787 0.01984-0.16112-0.19283-0.33123-0.95082-0.76041-7.066-4.0008-13.859-9.989-18.85-16.618-2.299-3.0532-4.3167-6.2961-5.9404-9.5477-0.57265-1.1468-1.1163-2.2519-1.2081-2.4557-7.1935-15.973-7.2931-34.644-0.26992-50.591 1.5411-3.4995 3.454-6.9568 5.5714-10.069 0.83478-1.2272 2.7243-3.7959 2.8813-3.917 0.03777-0.02911 0.27251-0.31495 0.5217-0.63519 1.7564-2.2572 5.446-5.9807 8.2135-8.289 8.1866-6.8282 17.929-11.478 28.208-13.464 0.78346-0.15134 1.4391-0.28979 1.457-0.30766 0.044804-0.04481 0.35372-1.8323 1.7676-10.228 0.67166-3.9885 1.4355-8.5115 1.6974-10.051 0.26189-1.5397 0.45342-2.8222 0.42561-2.8501-0.16913-0.16913-5.6214 0.51014-8.8893 1.1075-14.98 2.7382-29.062 9.5657-40.599 19.684-2.7911 2.448-6.1355 5.8303-8.6323 8.7303-4.5352 5.2675-8.4618 11.212-11.642 17.627-4.9871 10.057-7.7985 20.495-8.6401 32.077-0.16849 2.3189-0.16849 8.7969 0 11.116 0.84154 11.582 3.653 22.02 8.6401 32.077 5.2067 10.5 12.05 19.243 21.386 27.324 3.9345 3.4054 9.7182 7.3481 14.689 10.014 1.5193 0.8147 6.0836 3.0459 6.2361 3.0484 0.03855 5.3e-4 0.10279-0.20129 0.14274-0.44875z" fill="#fff"/>
 </g>
</svg>
