<svg width="800.01mm" height="255.67mm" version="1.1" viewBox="0 0 800.01 255.67" xmlns="http://www.w3.org/2000/svg">
 <defs>
  <clipPath id="a">
   <path d="m0 0h311v99.4h-311z"/>
  </clipPath>
 </defs>
 <g transform="translate(-164.56 -103.1)">
  <g transform="matrix(3.7796,0,0,3.7796,-457.44,-286.54)" fill="#010000">
   <path class="st0" d="m195.27 115.88-8.5074 1.0209c-0.61253-2.5182-2.5862-3.7432-5.9211-3.7432-2.1098 0-3.8113 0.54447-5.1725 1.6334-1.2931 1.0889-1.9737 2.8585-1.9737 5.4447 0 2.7904 0.68058 4.8322 1.9737 5.9892s2.9946 1.7015 5.1725 1.7015c1.6334 0 2.9265-0.34029 4.0155-0.95282 1.0209-0.68059 1.7695-1.8376 2.2459-3.5391l8.5074 1.0209c-1.7695 5.6489-6.7378 8.5074-15.041 8.5074-5.3086 0-9.256-1.157-11.774-3.6071-2.5862-2.4501-3.8794-5.3086-3.8794-8.6435 0-4.0155 1.4973-7.0781 4.4238-9.1879s6.7378-3.1307 11.434-3.1307c3.8113 0 6.942 0.61253 9.324 1.8376 2.3821 1.157 4.0835 3.0626 5.1725 5.6489z" stroke-width=".18007"/>
   <path class="st0" d="m218.13 121.26c-1.0889 0.27224-2.7904 0.61253-5.1044 0.88477-2.6543 0.40835-4.3558 0.88476-5.1725 1.3612-0.81671 0.47641-1.2251 1.157-1.2251 1.9056 0 0.88476 0.47641 1.6334 1.3612 2.2459 0.88476 0.61253 2.0418 0.88476 3.4029 0.88476 1.2251 0 2.4501-0.27223 3.6071-0.74865 1.157-0.47641 2.0418-1.0889 2.4501-1.7015 0.47641-0.68058 0.68058-1.8376 0.68058-3.6071zm-11.502-5.1044-7.7587-1.0209c0.95282-2.382 2.5182-4.1516 4.6961-5.1725 2.1779-1.0889 5.2405-1.6334 9.324-1.6334 3.6071 0 6.3975 0.34029 8.3032 0.88476 1.9056 0.61253 3.2668 1.4292 4.0835 2.4501 0.81671 1.0209 1.2251 2.9265 1.2251 5.6489l-0.0681 7.2823c0 2.0418 0.13612 3.5391 0.40836 4.5599 0.27223 1.0209 0.8167 2.0418 1.5654 3.1988h-8.6435l-1.0889-2.5862c-1.4292 1.0209-3.0626 1.8376-4.696 2.314-1.7015 0.47641-3.471 0.74864-5.3086 0.74864-3.1307 0-5.7169-0.61253-7.7587-1.9056-1.9737-1.2931-2.9946-2.9265-2.9946-5.0364 0-1.2931 0.40835-2.5182 1.2251-3.471 0.8167-1.0209 1.9737-1.7695 3.471-2.3821 1.4973-0.61252 3.8794-1.0889 7.2142-1.5654 4.0155-0.54447 6.8059-1.0889 8.3712-1.5654 0-1.2931-0.13612-2.1098-0.47641-2.5182-0.34029-0.40836-0.88476-0.74865-1.7015-0.95283-0.8167-0.27223-1.9737-0.40835-3.5391-0.40835s-2.7904 0.20418-3.6752 0.61253c-0.88476 0.54447-1.6334 1.3612-2.1779 2.5182z" stroke-width=".18007"/>
   <path class="st0" d="m260.53 132.42h-8.6435v-12.046c0-2.3821-0.13611-4.0155-0.47641-4.7641-0.34029-0.8167-0.95282-1.4292-1.8376-1.8376-0.88476-0.40836-1.9056-0.61253-2.9946-0.61253-1.4292 0-2.7224 0.27223-3.9474 0.8167-1.157 0.54447-1.9737 1.2931-2.4501 2.314-0.47641 0.95282-0.68058 2.7904-0.68058 5.5128v10.617h-8.6435v-23.548h8.0309v3.471c1.4292-1.2931 2.9946-2.314 4.8322-2.9946 1.7695-0.68059 3.7432-1.0209 5.9211-1.0209 2.5182 0 4.628 0.40835 6.3975 1.157 1.7015 0.74865 2.9265 1.7695 3.6071 2.9946 0.68059 1.2251 1.0209 2.9946 1.0209 5.2405v14.701z" stroke-width=".18007"/>
   <path class="st0" d="m285.1 121.26c-1.0889 0.27224-2.7904 0.61253-5.1044 0.88477-2.6543 0.40835-4.3558 0.88476-5.1725 1.3612-0.81671 0.47641-1.2251 1.157-1.2251 1.9056 0 0.88476 0.47641 1.6334 1.3612 2.2459 0.88476 0.61253 2.0418 0.88476 3.4029 0.88476 1.225 0 2.382-0.27223 3.6071-0.74865 1.157-0.47641 1.9737-1.0889 2.4501-1.7015 0.47641-0.68058 0.68058-1.8376 0.68058-3.6071zm-11.502-5.1044-7.7587-1.0209c0.95282-2.382 2.5182-4.1516 4.6961-5.1725s5.3086-1.5654 9.3921-1.5654c3.6071 0 6.3975 0.3403 8.3032 0.88477 1.9056 0.61253 3.2668 1.4292 4.0835 2.4501 0.81671 1.0209 1.2251 2.9265 1.2251 5.6489l-0.0681 7.2823c0 2.0418 0.13612 3.5391 0.40835 4.5599 0.27224 1.0209 0.81671 2.0418 1.5654 3.1988h-8.6435l-1.0889-2.5862c-1.4292 1.0209-3.0626 1.8376-4.696 2.314-1.7015 0.47641-3.471 0.74864-5.3086 0.74864-3.1307 0-5.7169-0.61253-7.7587-1.9056-2.0418-1.2931-2.9946-2.9265-2.9946-5.0364 0-1.2931 0.40835-2.5182 1.2251-3.471 0.8167-1.0209 1.9737-1.7695 3.471-2.3821 1.4973-0.61253 3.8794-1.0889 7.2142-1.5654 4.0155-0.54447 6.8059-1.0889 8.3712-1.5654 0-1.2931-0.13612-2.1098-0.47641-2.5182-0.34029-0.40835-0.88476-0.74864-1.7015-0.95282-0.8167-0.27223-2.0418-0.40835-3.5391-0.40835-1.5654 0-2.7904 0.20418-3.6752 0.61253-1.0209 0.47641-1.7015 1.2931-2.2459 2.4501z" stroke-width=".18007"/>
   <path class="st0" d="m299.26 132.42s-1.2931-1.8376-1.2931-4.4238v-23.753h8.6435v23.48c0 2.2459 1.2931 4.696 1.2931 4.696z" stroke-width=".18007"/>
   <path class="st0" d="m199.28 161.89s-1.2931-1.8376-1.2931-4.4238v-27.087c2.5862 3.6752 8.6435 4.1516 8.6435 4.1516v22.664c0 2.2459 1.2931 4.6961 1.2931 4.6961z" stroke-width=".18007"/>
   <path class="st0" d="m184.85 150.73c-1.0889 0.27223-2.7904 0.54447-5.1044 0.88476-2.6543 0.40836-4.3558 0.88477-5.1725 1.3612-0.81671 0.47641-1.2251 1.157-1.2251 1.9056 0 0.88477 0.47641 1.6334 1.3612 2.2459 0.88476 0.61253 2.0418 0.88477 3.4029 0.88477 1.225 0 2.382-0.20418 3.6071-0.74865 1.2251-0.47641 2.0418-1.0209 2.4501-1.7015 0.47641-0.68059 0.68058-1.8376 0.68058-3.6071zm-11.502-5.1044-7.7587-1.0209c0.95282-2.3821 2.5182-4.1516 4.6961-5.1725s5.3086-1.5654 9.3921-1.5654c3.6071 0 6.3975 0.3403 8.3032 0.88477 1.9056 0.61252 3.2668 1.4292 4.0835 2.4501 0.81671 1.0209 1.2251 2.9265 1.2251 5.6489l-0.13612 7.2823c0 2.0418 0.13612 3.539 0.40836 4.5599 0.27223 1.0209 0.8167 2.0418 1.5654 3.1988h-8.6435l-1.0889-2.5862c-1.4292 1.0209-2.9946 1.8376-4.696 2.314s-3.471 0.74865-5.3086 0.74865c-3.1307 0-5.7169-0.61253-7.7587-1.9056-2.0418-1.225-3.0626-2.9265-3.0626-5.0364 0-1.2931 0.40835-2.5182 1.2251-3.471 0.8167-1.0209 1.9737-1.7695 3.471-2.3821 1.4973-0.61253 3.8794-1.0889 7.2142-1.5654 4.0155-0.54447 6.8059-1.0889 8.3712-1.5654 0-1.2931-0.13611-2.1098-0.47641-2.5182-0.34029-0.40835-0.88476-0.74864-1.7015-0.95282-0.8167-0.27224-2.0418-0.40835-3.539-0.40835-1.5654 0-2.7904 0.20417-3.6752 0.61253-0.88476 0.47641-1.5654 1.225-2.1098 2.4501z" stroke-width=".18007"/>
   <path class="st0" d="m219.83 149.57c0 2.6543 0.74865 4.628 2.1779 5.9211 1.4292 1.2931 3.2668 1.9056 5.3086 1.9056 1.9737 0 3.6071-0.61253 4.9683-1.7015 1.3612-1.157 2.0418-3.0626 2.0418-5.7169 0-2.5182-0.68059-4.3558-2.1098-5.5128-1.2931-1.2931-2.9946-1.9056-5.0364-1.9056-2.1098 0-3.8113 0.61253-5.2405 1.7695-1.3612 1.157-2.1098 2.9265-2.1098 5.2405zm-8.5073-11.23h8.0309v3.471c1.0889-1.2251 2.5182-2.1779 4.3558-2.9265 1.7695-0.68058 3.7432-1.0209 5.785-1.0209 3.7432 0 6.942 1.0209 9.5963 3.1307s4.0155 5.0363 4.0155 8.9157c0 4.0155-1.3612 7.1462-4.0155 9.256-2.7224 2.1779-5.9211 3.1988-9.5963 3.1988-1.7015 0-3.3349-0.27224-4.8322-0.74865s-3.0626-1.4292-4.696-2.7224v11.842h-8.6435z" stroke-width=".18007"/>
   <path class="st0" d="m250.8 125.07v8.7115h4.0835v7.5545c1.3612-1.157 2.8585-2.0418 4.5599-2.6543 1.6334-0.61253 3.471-0.88477 5.3766-0.88477 2.5862 0 4.7641 0.40836 6.5336 1.2251 1.7695 0.81671 2.9946 1.9737 3.7432 3.471 0.54447 1.0889 0.81671 2.9265 0.81671 5.5808v13.816h-8.5754v-12.455c0-2.8585-0.34029-4.696-0.95282-5.3766-0.88476-0.95282-2.3821-1.4292-4.4238-1.4292-2.2459 0-3.9474 0.54447-5.1725 1.5654-1.225 1.0209-1.8376 2.9946-1.8376 5.9211v11.774h-8.6435v-36.752z" stroke-width=".18007"/>
   <path transform="matrix(.68059 0 0 .68059 164.57 103.09)" d="m197.8 70c-1.6 0.4-4.1 0.8-7.5 1.3-3.9 0.6-6.4 1.3-7.6 2s-1.8 1.7-1.8 2.8c0 1.3 0.7 2.4 2 3.3s3 1.3 5 1.3c1.8 0 3.5-0.3 5.3-1.1 1.7-0.7 3-1.5 3.6-2.5 0.7-1 1-2.7 1-5.3zm-16.9-7.5-11.4-1.5c1.4-3.5 3.7-6.1 6.9-7.6s7.8-2.3 13.7-2.3c5.3 0 9.4 0.5 12.2 1.3 2.8 0.9 4.8 2.1 6 3.6s1.8 4.3 1.8 8.3l-0.1 10.7c0 3 0.2 5.2 0.6 6.7s1.2 3 2.3 4.7h-12.7l-1.6-3.8c-2.1 1.5-4.4 2.7-6.9 3.4s-5.1 1.1-7.8 1.1c-4.6 0-8.4-0.9-11.4-2.8-2.9-1.8-4.4-4.3-4.4-7.4 0-1.9 0.6-3.7 1.8-5.1 1.2-1.5 2.9-2.6 5.1-3.5s5.7-1.6 10.6-2.3c5.9-0.8 10-1.6 12.3-2.3 0-1.9-0.2-3.1-0.7-3.7s-1.3-1.1-2.5-1.4c-1.2-0.4-3-0.6-5.2-0.6-2.3 0-4.1 0.3-5.4 0.9-1.3 0.7-2.4 1.8-3.2 3.6z" clip-path="url(#a)" stroke-width=".10286"/>
   <path transform="matrix(.68059 0 0 .68059 164.57 103.09)" d="m267.2 78.7c-19.3 0-34.9-15.6-34.9-34.9s15.6-34.9 34.9-34.9 34.9 15.6 34.9 34.9-15.6 34.9-34.9 34.9zm0-78.7c-24.2 0-43.8 19.6-43.8 43.8s19.6 43.8 43.8 43.8 43.8-19.6 43.8-43.8-19.6-43.8-43.8-43.8z" clip-path="url(#a)" stroke-width=".10286"/>
   <path class="st2" d="m354.93 135.76c2.5862 0 4.6961 2.1098 4.6961 4.6961 0 2.5862-2.1098 4.696-4.6961 4.696-2.5862 0-4.696-2.1098-4.696-4.696s2.1098-4.6961 4.696-4.6961z" clip-rule="evenodd" fill-rule="evenodd" stroke-width=".18007"/>
   <path class="st2" d="m347.44 145.97c1.7015 2.314 4.4238 3.7432 7.4865 3.7432 1.0889 0 2.1098-0.20418 3.0626-0.47641-3.2668 2.314-7.2142 3.6752-11.502 3.6752-11.026 0-20.009-8.9838-20.009-20.009 0-7.3504 4.0155-13.816 10.005-17.287 0.13611-0.068 0.34029-0.20417 0.47641-0.27223l2.9946 6.2614c-3.8794 2.2459-6.5336 6.5336-6.5336 11.366 0 4.6961 2.4501 8.8476 6.1934 11.162-1.7015-5.5128-0.54447-11.57 3.6071-15.722 3.471-3.471 8.2351-4.9002 12.931-4.2877-2.3821-2.5862-5.853-4.2877-9.6644-4.2877-0.61252 0-1.225 0-1.7695 0.13612l-3.0626-6.3295c0.20418-0.0681 0.61253-0.20418 0.88477-0.27224 1.2931-0.27223 2.6543-0.40835 4.0155-0.40835 11.026 0 20.009 8.9838 20.009 20.009 0 3.4029-0.88476 6.6017-2.382 9.4602 0.13611-0.61253 0.20417-1.2251 0.20417-1.9056 0-5.1044-4.1516-9.324-9.324-9.324s-9.324 4.1516-9.324 9.324c-0.13612 1.9737 0.54447 3.9474 1.7015 5.4447z" clip-rule="evenodd" fill-rule="evenodd" stroke-width=".18007"/>
  </g>
 </g>
</svg>
