<svg xmlns="http://www.w3.org/2000/svg" height="275.12" width="600" viewBox="0 0 158.75 72.793">
    <defs>
        <clipPath id="e" clipPathUnits="userSpaceOnUse">
            <path d="M666.14 0h666.16v907.09H666.14V0z"/>
        </clipPath>
        <clipPath id="d" clipPathUnits="userSpaceOnUse">
            <path d="M666.14 0h666.16v907.09H666.14V0z"/>
        </clipPath>
        <clipPath id="a" clipPathUnits="userSpaceOnUse">
            <path d="M666.14 0h666.16v907.09H666.14V0z"/>
        </clipPath>
        <clipPath id="b" clipPathUnits="userSpaceOnUse">
            <path d="M936.92 263.49h53.87v-19.51h-53.87v19.51z"/>
        </clipPath>
        <clipPath id="c" clipPathUnits="userSpaceOnUse">
            <path d="M939.12 261.27h48.78v-15.13h-48.78v15.13z"/>
        </clipPath>
    </defs>
    <path d="M151.341 67.253H31.501v-33.63h119.84l.001 33.63z" fill="#802984"/>
    <g clip-path="url(#a)" transform="matrix(2.5619 0 0 -2.5619 -2376.97 700.403)">
        <g opacity=".5" clip-path="url(#b)">
            <path d="M940.12 258.25l-2.201-.193 1.144-13.075 24.733 2.164H940.12v11.104zm48.528 4.246l-25.424-2.225h23.675v-11.104l2.893.253-1.144 13.076z" fill="#3d267e"/>
        </g>
        <g opacity=".5" clip-path="url(#c)">
            <path d="M986.9 260.27h-23.675l-23.104-2.021v-11.104h23.676l23.103 2.021v11.104z" fill="#3d267e"/>
        </g>
    </g>
    <path d="M134.517 0H-.003v33.623h134.52L134.514 0z"/>
    <g clip-path="url(#d)" transform="matrix(2.5619 0 0 -2.5619 -2376.97 700.403)">
        <path d="M936.14 263.34c-.01-.09-.055-.155-.055-.155s-.043-.045-.124-.065c-1.06-.434-2.241-.289-2.241-.289-1.915.209-3.133 1.382-3.523 2.897-.575 2.266.567 3.883.843 4.224a4.499 4.499 0 0 0 2.756 1.517 5.698 5.698 0 0 0 2.688-.255s.444-.144.777-.366c.165-.112.185-.156.185-.156s.011-.02-.032-.198l-.312-1.625c-.01-.067-.054-.101-.054-.101s-.023-.009-.175.091c-.997.707-2.16.618-2.16.618-.884-.057-1.913-.52-2.224-1.693-.275-1.039.014-1.912.63-2.435.423-.361 1.076-.551 1.76-.518.755.056 1.35.355 1.307.335 0 0 .032.008.068.02.154.078.187.067.187.067s.032-.033.011-.135l-.312-1.778zm5.665 5.519l-.023-.022-1.102-2.511c-.023-.035-.014-.057-.014-.057s.014-.011.066-.011l1.626-.013.021.013s.012.011 0 .043l-.565 2.536-.009.022zm18.364.031s-.008 0-.019-.042l-1.107-2.503c-.023-.076-.013-.087-.013-.087l.058-.022 1.638.009h.021s.01.013 0 .046l-.555 2.568c-.009.031-.023.031-.023.031m-15.001-5.828l-1.969-.008c-.045 0-.079.018-.079.018s-.012.011-.021.09l-.309 1.272c0 .033-.022.045-.022.045h-2.807c-.057 0-.089-.045-.089-.045s-.046-.034-.079-.111l-.552-1.183c-.022-.042-.034-.057-.034-.057s-.035-.021-.066-.021h-2.293c-.063-.008-.075.021-.075.021s-.011.037.012.079l3.97 7.986c.022.043.054.054.054.054h2.613c.04 0 .075-.033.075-.033s.013-.01.022-.045l1.705-8.004c0-.037-.023-.048-.023-.048l-.033-.01zm8.851-.022H951.928l-.022.022-2.809 4.988-.033.024s-.022 0-.022-.033l-.696-4.901c-.013-.057-.024-.068-.024-.068s-.024-.01-.056-.01h-2.015c-.032 0-.052.021-.052.021s-.045.045-.037.09l1.109 7.93c.01.045.032.056.032.056s.032.032.067.032h2.247c.032 0 .054-.022.054-.022s.023-.01.033-.045l2.535-4.443c.042-.093.076-.079.076-.079s.035 0 .056.099l.641 4.423c0 .035.023.045.023.045s.011.022.043.022l2.115-.022c.043 0 .055-.01.055-.01l.01-.035-1.138-7.996c-.01-.045-.033-.074-.033-.074s-.013-.014-.068-.014m9.483-.01h-2.026c-.043-.024-.078.024-.078.024s-.01.008-.022.074l-.264 1.248c-.02.069-.045.103-.045.103s-.055.032-.121.032h-2.635c-.053 0-.087-.032-.087-.032s-.045-.045-.067-.111l-.597-1.27c-.013-.036-.033-.044-.033-.044s-.044-.014-.069-.014h-2.278c-.054-.01-.076.022-.076.022s-.011.021.022.066l4.015 8.02.045.043s.023.011.088.011h2.489c.056 0 .091-.033.091-.033s.01-.01.021-.045l1.669-8.052-.009-.032s0-.01-.033-.01m5.81.119c-.014-.066-.024-.087-.024-.087s-.012-.022-.066-.022h-4.558c-.134 0-.167.032-.167.032s-.023.048-.01.146l1.129 7.852c.008.099.033.132.033.132h2.189c.057 0 .079-.011.079-.011s.01-.032 0-.076l-.853-6.14c-.011-.067.023-.075.023-.075s.024-.013.11-.013h2.257c.043 0 .066-.022.066-.022s.013-.011.013-.067l-.221-1.649zm8.772 3.109s-.009-.022-.043-.022h-2.834c-.045 0-.067-.022-.067-.022s-.029-.01-.029-.066v-3.02c0-.045-.023-.056-.023-.056s-.013-.018-.049-.018h-2.244c-.034 0-.055.018-.055.018s-.01.011-.01.068v3.018c0 .035-.033.056-.033.056s-.013.022-.044.022h-2.9c-.055 0-.067.009-.067.009s-.022.024-.022.092v2.211c0 .024.022.056.022.056l.034.009h2.964c.025 0 .025.012.025.012l.021.033v2.645c0 .03.01.054.01.054s.021.011.088.011h2.203c.044 0 .057-.011.057-.011s.023-.024.023-.066v-2.653h2.875c.076 0 .098-.013.098-.013s.036-.012.036-.077v-2.235l-.036-.055zM948.53 251.1c-.238-.455-.62-.806-1.168-1.054a3.818 3.818 0 0 0-1.56-.31c-.569 0-1.147.124-1.757.372-.299.124-.537.237-.692.351-.072.052-.155.104-.248.166l.857 1.612c.61-.528 1.199-.786 1.778-.786.279 0 .496.062.672.176.196.134.299.33.299.589 0 .217-.103.403-.32.558-.104.072-.259.134-.475.207-.073.02-.207.062-.414.124l-.413.124a3.899 3.899 0 0 0-.765.31c-.61.31-.909.888-.909 1.725 0 .786.248 1.416.733 1.891.486.486 1.127.724 1.902.724.837 0 1.664-.207 2.459-.631l-.806-1.57c-.423.351-.857.527-1.312.527a.999.999 0 0 1-.579-.166c-.196-.124-.289-.289-.289-.506s.145-.403.424-.537c.082-.042.403-.155.971-.331.63-.196 1.106-.455 1.405-.775.331-.351.496-.816.496-1.385 0-.568-.093-1.033-.289-1.405" fill="#fff"/>
    </g>
    <path d="M68.16 44.593h-5.851l-.423 3.415h5.639l-.53 4.368H61.33l-.397 3.336h6.09l-.556 4.368H55.374l2.436-19.855h10.88l-.53 4.368z" fill="#fff"/>
    <g clip-path="url(#e)" transform="matrix(2.5619 0 0 -2.5619 -2376.97 700.403)">
        <path d="M961.59 249.94h-2.284l-1.849 3.069-.372-3.069h-1.964l.951 7.75h2.521c1.829 0 2.739-.785 2.739-2.356 0-.827-.197-1.385-.682-1.829-.248-.248-.465-.341-.961-.558l1.901-3.007zm-3.999 4.319h.351c.827 0 1.395.393 1.395.982 0 .506-.392.785-1.126.785h-.372l-.248-1.767z" fill="#fff"/>
    </g>
    <path d="M89.225 40.223h5.162v19.85h-5.162v-19.85zM110.323 60.083l-1.296-3.44h-7.122l-1.35 3.44H95.1l7.624-19.855h5.614l7.49 19.855h-5.505zm-4.819-13.714l-2.17 6.328h4.289l-2.119-6.328zM118.131 60.083V40.228h5.162v15.487h6.195v4.368H118.13zM131.605 60.083V40.228h11.277v4.368h-6.115v3.31h5.798v4.368h-5.798v3.441h6.115v4.368h-11.277z" fill="#fff"/>
</svg>
