<?xml version="1.0" encoding="UTF-8" standalone="no"?>
<svg xmlns:rdf="http://www.w3.org/1999/02/22-rdf-syntax-ns#" xmlns="http://www.w3.org/2000/svg" height="468.85" viewBox="0 0 599.99999 468.84661" width="600" version="1.0" xmlns:cc="http://creativecommons.org/ns#" xmlns:xlink="http://www.w3.org/1999/xlink" xmlns:dc="http://purl.org/dc/elements/1.1/">
 <defs>
  <linearGradient id="a" y2="781.04" gradientUnits="userSpaceOnUse" x2="924.71" gradientTransform="translate(-15.502 -62.009)" y1="1372.2" x1="496.94">
   <stop stop-color="#b60f3f" offset="0"/>
   <stop stop-color="#ff4200" stop-opacity=".99608" offset="1"/>
  </linearGradient>
  <filter id="b" style="color-interpolation-filters:sRGB" height="1.3719" width="1.2687" y="-.18593" x="-.13437">
   <feGaussianBlur stdDeviation="114.09461"/>
  </filter>
 </defs>
 <path d="m118.85 1133.1c-105.16-129.9-483.22-1054.3 1100.6-966.33 1075.1 104.5 992.7 984.03 341.2 1276.3-461.2 198.4-951.84 410.2-1441.8-310z" transform="matrix(.23206 0 0 .23206 62.792 26.21)" filter="url(#b)" fill="url(#a)"/>
 <g fill-opacity=".99899" fill="#fff">
  <path d="m131.41 279.29c-0.7-6.54-0.32-16.38 0.87-22.32 2.44-12.12 7.76-22.48 16.51-32.15 4.73-5.22 9.43-9.47 18.94-17.11 11.34-9.12 15.2-12.54 18.86-16.73 5.62-6.41 8.21-12.47 8.15-19.02-0.07-7.05-2.62-12.12-7.25-14.39-2.33-1.14-2.76-1.2-8.22-1.2-4.96 0-6.18 0.14-8.69 1-6.27 2.17-10.79 7.04-15.53 16.72-1.55 3.18-2.88 5.84-2.95 5.93-0.11 0.12-19.64-8.77-20.22-9.21-0.41-0.31 0.97-6.12 2.16-9.08 4.27-10.69 13.37-20.15 24.07-25.02 11.7-5.34 28.43-5.76 41.34-1.05 14.67 5.36 22.72 17.94 22.68 35.44-0.03 10.99-3.28 22.11-8.93 30.6-4.83 7.27-10.41 12.36-24.45 22.34-13.28 9.44-18.32 14.2-22.5 21.3-1.77 2.99-4.12 9.25-4.73 12.59l-0.29 1.6h30.16 30.17v12.39 12.39h-44.81-44.8l-0.54-5.02z"/>
  <path d="m290.77 283.84c-2.67-1.09-2.57-0.5-2.58-15.51 0-7.54-0.12-14.43-0.27-15.32l-0.26-1.6h-29.88c-19.77 0-30.15-0.15-30.7-0.44-0.79-0.42-0.83-1.01-0.83-12.21v-11.77l30.23-46.29 30.22-46.29 13.35-0.02 13.35-0.02v47.84 47.84h7.48c9.97 0 9.18-0.91 9.18 10.59 0 7.34-0.12 9.04-0.67 9.82-0.64 0.93-0.88 0.95-8.52 0.95h-7.86l-0.12 15.58c-0.12 14.28-0.19 15.64-0.89 16.34-0.68 0.68-1.8 0.77-10.47 0.85-5.81 0.06-10.13-0.08-10.76-0.34zm-1.72-83.05c0-16.09-0.14-29.25-0.32-29.24-0.24 0.01-29.97 47.65-35.48 56.86l-0.99 1.64h18.4 18.39v-29.26z"/>
  <path d="m347.95 277.31-0.03-5.84 5.75-2.74 5.76-2.73 0.26-18.51c0.14-10.18 0.37-35.23 0.5-55.68l0.25-37.18-5.94-2.47-5.94-2.47-0.29-6.01c-0.16-3.31-0.18-6.12-0.06-6.25 0.41-0.41 34.55-8.42 36.57-8.3 4.07 0.23 3.38-1.56 3.38 27.71 0 14.43 0.15 26.22 0.35 26.22 0.19 0 0.82-0.5 1.39-1.11 1.65-1.78 5.97-4.72 9.65-6.56 4.42-2.21 10.08-3.7 16.4-4.31 17.5-1.69 28.3 6.38 31.19 23.3 0.54 3.19 0.64 47.25 0.14 63.44l-0.26 8.33 5.92 2.17 5.91 2.17 0.13 6.16c0.11 5.86 0.07 6.2-0.8 6.91-0.84 0.68-2.41 0.75-18.98 0.75s-18.13-0.07-18.95-0.75c-0.88-0.75-0.88-0.86-1.02-39.62-0.14-38.25-0.16-38.93-1.06-42.17-1.33-4.74-2.89-7.03-5.85-8.54-2.49-1.28-7.52-0.93-11.56 0.79-2.82 1.2-8.88 4.98-11.39 7.09l-1.13 0.96-0.15 31.92-0.15 31.92 5.66 2.65 5.66 2.66v5.61c0 4.16-0.15 5.82-0.6 6.43-0.59 0.8-1.42 0.84-24.68 0.95-20.43 0.1-24.21 0.02-24.92-0.5-1.59-1.37-1.06-4.6-1.11-6.4z"/>
 </g>
</svg>
