<?xml version="1.0" encoding="UTF-8" standalone="no"?>
<!-- Created with Inkscape (http://www.inkscape.org/) -->

<svg
   xmlns:dc="http://purl.org/dc/elements/1.1/"
   xmlns:cc="http://creativecommons.org/ns#"
   xmlns:rdf="http://www.w3.org/1999/02/22-rdf-syntax-ns#"
   xmlns:svg="http://www.w3.org/2000/svg"
   xmlns="http://www.w3.org/2000/svg"
   xmlns:inkscape="http://www.inkscape.org/namespaces/inkscape"
   version="1.0"
   width="500"
   height="125"
   id="svg2">
  <metadata
     id="metadata12">
    <rdf:RDF>
      <cc:Work
         rdf:about="">
        <dc:format>image/svg+xml</dc:format>
        <dc:type
           rdf:resource="http://purl.org/dc/dcmitype/StillImage" />
      </cc:Work>
    </rdf:RDF>
  </metadata>
  <defs
     id="defs10" />
  <g
     transform="translate(-332.74477,-410.91065)"
     id="layer1">
    <path
       d="m 832.74478,410.91065 0,124.99999 -500.00001,0 0,-124.99999 500.00001,0 z"
       inkscape:connector-curvature="0"
       id="path68518"
       style="fill:#000000;fill-rule:nonzero;stroke:none" />
    <path
       d="m 813.22574,479.75075 c 0,0 -0.0967,0.2092 -0.43518,0.2092 l -26.96561,0 c -0.43519,0 -0.64472,0.20919 -0.64472,0.20919 0,0 -0.32237,0.11264 -0.32237,0.64366 l 0,28.7397 c 0,0.43448 -0.20953,0.53103 -0.20953,0.53103 0,0 -0.11283,0.22528 -0.43519,0.22528 l -21.43709,0 c -0.30625,0 -0.5319,-0.22528 -0.5319,-0.22528 0,0 -0.11283,-0.0965 -0.11283,-0.62758 l 0,-28.75579 c 0,-0.30574 -0.25789,-0.53102 -0.25789,-0.53102 0,0 -0.16118,-0.20919 -0.43519,-0.20919 l -27.6748,0 c -0.5319,0 -0.6286,-0.11265 -0.6286,-0.11265 0,0 -0.20954,-0.20919 -0.20954,-0.85285 l 0,-21.0318 c 0,-0.25747 0.20954,-0.53102 0.20954,-0.53102 0,0 0.0967,-0.0965 0.32236,-0.0965 l 28.25505,0 c 0.22566,0 0.22566,-0.11265 0.22566,-0.11265 0,0 0.19341,-0.11264 0.19341,-0.32183 l 0,-25.18344 c 0,-0.30574 0.11283,-0.53103 0.11283,-0.53103 0,0 0.22565,-0.11264 0.85426,-0.11264 l 21.01802,0 c 0.41907,0 0.5319,0.11264 0.5319,0.11264 0,0 0.20953,0.22529 0.20953,0.64367 l 0,25.27999 27.46527,0 c 0.69308,0 0.90261,0.11264 0.90261,0.11264 0,0 0.32237,0.11265 0.32237,0.74022 l 0,21.25708 c 0,0.20919 -0.32237,0.53102 -0.32237,0.53102 z m -83.66913,29.60865 c -0.0967,0.62758 -0.20953,0.83677 -0.20953,0.83677 0,0 -0.11283,0.22528 -0.64473,0.22528 l -43.47055,0 c -1.25721,0 -1.59569,-0.33792 -1.59569,-0.33792 0,0 -0.20954,-0.41839 -0.11283,-1.36779 l 10.78302,-74.81012 c 0.11283,-0.90113 0.32236,-1.22296 0.32236,-1.22296 0,0 0.11283,0 1.11215,0 l 19.79305,0 c 0.53189,0 0.69307,0.0965 0.69307,0.0965 0,0 0.11283,0.33792 0,0.75631 l -8.10741,58.46098 c -0.11282,0.62758 0.20954,0.69195 0.20954,0.69195 0,0 0.20953,0.11264 1.07991,0.11264 l 21.48545,0 c 0.46742,0 0.6286,0.1931 0.6286,0.1931 0,0 0.11283,0.11264 0.11283,0.64366 l -2.07924,15.72155 z m -55.39795,1.1586 -19.3095,0 c -0.41908,0.20919 -0.75756,-0.20919 -0.75756,-0.20919 0,0 -0.0967,-0.11264 -0.20953,-0.75631 l -2.56278,-11.92392 c -0.20954,-0.57929 -0.41907,-0.90113 -0.41907,-0.90113 0,0 -0.5319,-0.32183 -1.17662,-0.32183 l -25.11203,0 c -0.48354,0 -0.8059,0.32183 -0.8059,0.32183 0,0 -0.41907,0.37011 -0.64473,1.01378 l -5.70581,12.1492 c -0.0967,0.30574 -0.30624,0.41838 -0.30624,0.41838 0,0 -0.43519,0.11264 -0.64473,0.11264 l -21.75945,0 c -0.5319,0.0965 -0.69308,-0.22528 -0.69308,-0.22528 0,0 -0.0967,-0.20919 0.16118,-0.64367 l 38.34499,-76.33882 c 0.20954,-0.0966 0.41908,-0.43447 0.41908,-0.43447 0,0 0.22565,-0.0965 0.85426,-0.0965 l 23.74198,0 c 0.53189,0 0.83814,0.32183 0.83814,0.32183 0,0 0.11283,0.11264 0.22565,0.41838 l 15.94082,76.66066 c 0,0.22528 -0.11283,0.33792 -0.11283,0.33792 0,0 0,0.0965 -0.30624,0.0965 z m -90.50321,-0.0965 -19.3095,0 c -0.32237,0 -0.62861,0 -0.62861,0 0,0 -0.0645,-0.11264 -0.1773,-0.22528 L 536.7195,462.70969 c -0.20954,-0.20919 -0.30625,-0.20919 -0.30625,-0.20919 0,0 -0.22565,0 -0.22565,0.30574 l -6.65678,46.64971 c -0.11283,0.53103 -0.22565,0.62758 -0.22565,0.62758 0,0 -0.20954,0.11264 -0.5319,0.11264 l -19.19668,0 c -0.30624,0 -0.53189,-0.20919 -0.53189,-0.20919 0,0 -0.41907,-0.43448 -0.25789,-0.85286 l 10.49289,-75.48596 c 0.11283,-0.43448 0.33848,-0.53103 0.33848,-0.53103 0,0 0.30624,-0.33792 0.62861,-0.33792 l 21.43709,0 c 0.32236,0 0.5319,0.22528 0.5319,0.22528 0,0 0.20953,0.11264 0.32236,0.41838 l 24.16105,42.33715 c 0.41907,0.83677 0.74143,0.74022 0.74143,0.74022 0,0 0.32237,0 0.5319,-0.9655 l 6.09265,-42.11187 c 0,-0.30574 0.19342,-0.41838 0.19342,-0.41838 0,0 0.11282,-0.22528 0.43519,-0.22528 l 20.14764,0.22528 c 0.43519,0 0.54801,0.11264 0.54801,0.11264 0,0 0.0967,0.0966 0.0967,0.30574 l -10.87972,76.12963 c -0.11283,0.43448 -0.30625,0.75631 -0.30625,0.75631 0,0 -0.11283,0.11264 -0.64472,0.11264 z m -84.42668,-0.22528 -18.76149,0.11264 c -0.43519,0 -0.74143,-0.22528 -0.74143,-0.22528 0,0 -0.11283,-0.0965 -0.22566,-0.83677 l -2.93349,-12.1492 c 0,-0.25747 -0.19342,-0.37011 -0.19342,-0.37011 0,0 -0.11283,0 -0.33848,0 l -26.49818,0 c -0.5319,0 -0.85426,0.37011 -0.85426,0.37011 0,0 -0.41907,0.32183 -0.74143,1.06205 l -5.28674,11.29634 c -0.20954,0.43448 -0.32237,0.53103 -0.32237,0.53103 0,0 -0.30624,0.20919 -0.58025,0.20919 l -21.85616,0 c -0.64473,0.11264 -0.75755,-0.20919 -0.75755,-0.20919 0,0 -0.11283,-0.32184 0.11282,-0.74022 l 37.90981,-76.03308 c 0.16118,-0.43447 0.48354,-0.53102 0.48354,-0.53102 0,0 0.20954,0 0.74143,0 l 24.16106,0 c 0.43519,0 0.74143,0.32183 0.74143,0.32183 0,0 0.11283,0.11264 0.22565,0.41838 l 16.24706,76.24227 c 0,0.32184 -0.19341,0.41839 -0.19341,0.41839 0,0 -0.11283,0.11264 -0.33848,0.11264 z M 642.37374,454.68 c 0,0 -0.11283,0 -0.22566,0.41839 l -10.54124,23.79956 c -0.22566,0.74021 -0.11283,0.85285 -0.11283,0.85285 0,0 0.30624,0.2092 0.5319,0.2092 l 15.61845,-0.11265 c 0.11283,0 0.20953,0 0.20953,0 0,0 0.11283,-0.0966 0,-0.41838 l -5.27062,-24.44323 C 642.48657,454.68 642.37374,454.68 642.37374,454.68 z m -175.18779,0.30574 c 0,0 -0.0967,0 -0.20953,0.22529 l -10.55737,23.89611 c -0.20953,0.32183 -0.11282,0.53102 -0.11282,0.53102 0,0 0.11282,0.11264 0.64472,0.11264 l 15.50563,0.0966 c 0.11282,0 0.16118,-0.0966 0.16118,-0.0966 0,0 0.11283,-0.11264 0,-0.43447 l -5.3351,-24.1053 c 0,-0.22529 -0.0967,-0.22529 -0.0967,-0.22529 z M 413.1258,507.5411 c -0.11283,0.83676 -0.5319,1.48043 -0.5319,1.48043 0,0 -0.4513,0.43447 -1.12827,0.64366 -10.18664,4.10338 -21.45321,2.71949 -21.45321,2.71949 -18.27794,-1.96318 -29.85074,-13.16297 -33.59014,-27.5811 -5.49628,-21.61109 5.39956,-36.94644 8.05905,-40.24523 6.39889,-7.67572 16.42436,-13.14688 26.28865,-14.43422 12.53989,-1.75399 21.82392,1.17469 25.66003,2.46203 0,0 4.20683,1.31951 7.34986,3.4597 1.5957,1.06205 1.82135,1.48044 1.82135,1.48044 0,0 0.0967,0.22528 -0.33848,1.86663 l -2.96573,15.48017 c -0.11283,0.64367 -0.49966,0.9655 -0.49966,0.9655 0,0 -0.20954,0.11264 -1.70852,-0.85286 -9.47746,-6.71022 -20.56672,-5.90563 -20.56672,-5.90563 -8.42977,0.53102 -18.29406,4.95623 -21.22755,16.12384 -2.61114,9.91246 0.11282,18.21575 6.01205,23.15589 4.01341,3.52407 10.25112,5.27806 16.8112,4.97232 7.14032,-0.53102 12.84613,-3.36315 12.42706,-3.15396 0,0 0.30625,-0.11264 0.64473,-0.20919 1.48286,-0.74022 1.80522,-0.64367 1.80522,-0.64367 0,0 0.32237,0.32183 0.0967,1.28733 l -2.96573,16.92843"
       inkscape:connector-curvature="0"
       id="path68520"
       style="fill:#ffffff;fill-rule:nonzero;stroke:none" />
    <path
       d="m 942.37991,142.45821 2.382,0 -2.382,0"
       inkscape:connector-curvature="0"
       id="path68644"
       style="fill:#000000;fill-rule:nonzero;stroke:none" />
    <path
       d="m 944.76191,141.56521 0,0.248 0,-0.248"
       inkscape:connector-curvature="0"
       id="path68650"
       style="fill:#de6a06;fill-rule:nonzero;stroke:none" />
  </g>
</svg>
