<svg clip-rule="evenodd" fill-rule="evenodd" stroke-linejoin="round" stroke-miterlimit="2" version="1.1" viewBox="0 0 500 228.7" xml:space="preserve" xmlns="http://www.w3.org/2000/svg">
 <path d="m75.4 122.6 415.8-36.4 8.8 104.4-415.7 38.1z" fill="#0069b4" fill-opacity=".6" fill-rule="nonzero"/>
 <g fill-rule="nonzero">
  <path d="m0 0h419.9v103.6h-419.9z"/>
  <path d="m401.9 56.3s-0.1 0.2-0.3 0.2h-22.7c-0.3 0-0.5 0.2-0.5 0.2s-0.2 0.1-0.2 0.5v23.8c0 0.3-0.2 0.4-0.2 0.4s-0.1 0.1-0.4 0.1h-17.9c-0.3 0-0.5-0.1-0.5-0.1s-0.1-0.1-0.1-0.5v-23.8c0-0.3-0.3-0.4-0.3-0.4s-0.1-0.2-0.3-0.2h-23.2c-0.5 0-0.5-0.1-0.5-0.1s-0.2-0.2-0.2-0.7v-17.4c0-0.2 0.2-0.4 0.2-0.4s0.1-0.1 0.3-0.1h23.7c0.2 0 0.2-0.1 0.2-0.1s0.2-0.1 0.2-0.3v-20.9c0-0.2 0.1-0.4 0.1-0.4s0.2-0.1 0.7-0.1h17.6c0.3 0 0.5 0.1 0.5 0.1s0.2 0.2 0.2 0.5v20.9h23c0.6 0 0.8 0.1 0.8 0.1s0.3 0.1 0.3 0.6v17.6c-0.2 0.3-0.5 0.5-0.5 0.5m-70.1 24.6c-0.1 0.5-0.2 0.7-0.2 0.7s-0.1 0.2-0.5 0.2h-36.5c-1.1 0-1.3-0.2-1.3-0.2s-0.2-0.4-0.1-1.2l9-62c0.1-0.8 0.3-1 0.3-1h17.5c0.5 0 0.6 0.1 0.6 0.1s0.1 0.2 0 0.6l-6.8 48.4c-0.1 0.5 0.2 0.6 0.2 0.6s0.2 0.1 0.9 0.1h18c0.3 0 0.5 0.2 0.5 0.2s0.1 0.1 0.1 0.5zm-46.5 0.9h-16.2c-0.3 0.2-0.6-0.2-0.6-0.2s-0.1-0.1-0.2-0.6l-2.1-9.8c-0.2-0.5-0.3-0.8-0.3-0.8s-0.5-0.3-1-0.3h-21.1c-0.4 0-0.7 0.3-0.7 0.3s-0.4 0.3-0.6 0.9l-4.8 10c-0.1 0.3-0.3 0.3-0.3 0.3s-0.3 0.1-0.6 0.1h-18.2c-0.4 0.1-0.6-0.2-0.6-0.2s-0.1-0.2 0.2-0.5l32.1-63.3c0.2-0.1 0.3-0.3 0.3-0.3s0.2-0.1 0.7-0.1h19.9c0.5 0 0.7 0.3 0.7 0.3s0.1 0.1 0.2 0.3l13.3 63.6c0 0.1-0.1 0.2-0.1 0.2s0.3 0.1 0 0.1m-75.8-0.1h-16.7l-0.2-0.2-22.5-39.4c-0.2-0.2-0.3-0.2-0.3-0.2s-0.2 0-0.2 0.2l-5.5 38.9c-0.1 0.4-0.2 0.5-0.2 0.5s-0.2 0.1-0.4 0.1h-16.1c-0.2 0-0.4-0.2-0.4-0.2s-0.3-0.3-0.3-0.7l8.9-62.6c0.1-0.3 0.3-0.4 0.3-0.4s0.2-0.2 0.5-0.2h18c0.3 0 0.4 0.2 0.4 0.2s0.2 0.1 0.2 0.3l20.2 35c0.3 0.7 0.6 0.6 0.6 0.6s0.3 0 0.4-0.8l5.1-34.9c0-0.3 0.2-0.3 0.2-0.3s0.1-0.2 0.3-0.2l16.9 0.2c0.3 0 0.4 0.1 0.4 0.1s0.1 0.1 0.1 0.3l-8.9 63c-0.1 0.3-0.3 0.6-0.3 0.6s-0.1 0.1-0.5 0.1m-70.8-0.1h-15.7c-0.4 0-0.7-0.1-0.7-0.1s-0.1-0.1-0.1-0.7l-2.5-10.1c0-0.2-0.2-0.3-0.2-0.3h-22.4c-0.4 0-0.7 0.3-0.7 0.3s-0.4 0.3-0.6 0.9l-4.4 9.3c-0.2 0.3-0.3 0.4-0.3 0.4s-0.3 0.2-0.5 0.2h-18.4c-0.5 0.1-0.6-0.2-0.6-0.2s-0.1-0.3 0.1-0.6l31.8-63c0.2-0.3 0.4-0.4 0.4-0.4h20.9c0.3 0 0.6 0.3 0.6 0.3s0.1 0.1 0.2 0.3l13.7 63.2c0 0.3-0.2 0.4-0.2 0.4s-0.2 0.1-0.4 0.1m120-46.1s-0.1 0-0.1 0.3l-8.9 19.8c-0.2 0.6-0.1 0.7-0.1 0.7s0.3 0.2 0.4 0.2l13.1-0.1h0.2s0.1-0.1 0-0.4l-4.5-20.2c0-0.2-0.1-0.2-0.1-0.3m-146.9 0.3s-0.1 0-0.2 0.2l-8.8 19.8c-0.2 0.3-0.1 0.4-0.1 0.4s0.1 0.1 0.6 0.1l13 0.1c0.1 0 0.2-0.1 0.2-0.1s0.1-0.1 0-0.3l-4.5-20c-0.1-0.2-0.2-0.2-0.2-0.2m-45.3 43.5c-0.1 0.7-0.4 1.2-0.4 1.2s-0.3 0.3-1 0.5c-8.5 3.4-17.9 2.3-17.9 2.3-15.3-1.6-25.1-10.8-28.2-22.8-4.6-17.9 4.6-30.7 6.8-33.3 5.4-6.4 13.8-10.9 22-12 10.5-1.5 18.3 1 21.5 2 0 0 3.6 1.1 6.2 2.9 1.3 0.9 1.5 1.2 1.5 1.2s0.1 0.2-0.2 1.6l-2.5 12.8c-0.1 0.5-0.4 0.8-0.4 0.8s-0.2 0.1-1.4-0.7c-8-5.6-17.3-4.9-17.3-4.9-7.1 0.4-15.3 4.1-17.8 13.3-2.2 8.2 0.1 15.1 5 19.2 3.4 2.8 8.6 4.3 14.1 4.1 6-0.4 10.8-2.8 10.5-2.6 0 0 0.2-0.1 0.5-0.2 1.2-0.6 1.5-0.5 1.5-0.5s0.3 0.3 0.1 1.1z" fill="#fff"/>
 </g>
 <path d="m97.7 103.6h374.1v105.8h-374.1z" fill="#0069b4"/>
 <g fill="#fff" fill-rule="nonzero">
  <path d="m161.9 124.3-0.1 13h-17.8v10.2h17.3l-0.1 13h-17.2v9.9h18.5v13h-33.9v-59.2z"/>
  <path d="m206.6 153.2 22.1 30.3h-17.4s-10.8-15.6-13.2-20c-1.4 2.9-12.6 20-12.6 20h-18.7l22-31.2-20.4-28h17.4s9.8 14.7 11.4 17.8c2.3-4.2 11.1-17.8 11.1-17.8h18.1z"/>
  <path d="m256.9 137.3v46.2h-15.4v-46.2h-12.9v-13h41.1v13z"/>
  <path d="m307 160.5 14.5 23h-17.4l-14.1-23.5-2.9 23.5h-15l7.3-59.2h19.2c7.1 0 12.4 1.5 15.8 4.5s5.1 7.6 5.1 13.9c0.1 8.9-4.1 14.8-12.5 17.8zm-14.1-23.5-1.9 13.5h2.7c3.4 0 6-0.7 7.9-2.2 1.8-1.5 2.8-3.2 2.8-5.3 0-4-2.9-6-8.6-6z"/>
  <path d="m346 172.6-3.7 10.8h-16.6l22-59.2h16.9l21.6 59.2h-15.7l-4-10.8zm4-11.7h12.2s-5.6-16.4-6.3-19.2c-0.8 3.3-5.9 19.2-5.9 19.2z"/>
 </g>
 <path d="m404 145.9c0-6.5 2.1-11.8 6.2-15.9s9.4-6.1 15.9-6.1 11.8 1.9 16 5.8c4.1 3.9 6.2 8.8 6.2 14.8 0 3.1-0.7 6-2 8.7s-3.5 5.6-6.5 8.8l-8.2 9h17.3v12.6h-46l14.5-15.2c4.6-4.7 8.5-9.6 11.9-14.6 2.3-3.4 3.5-6.7 3.5-9.9 0-2-0.6-3.8-1.9-5.2s-2.8-2.2-4.6-2.2c-4.8 0-7 3.1-6.8 9.4z" fill="#fff" fill-rule="nonzero"/>
</svg>
