<?xml version="1.0" encoding="UTF-8" standalone="no"?>
<svg
   xmlns:dc="http://purl.org/dc/elements/1.1/"
   xmlns:cc="http://creativecommons.org/ns#"
   xmlns:rdf="http://www.w3.org/1999/02/22-rdf-syntax-ns#"
   xmlns:svg="http://www.w3.org/2000/svg"
   xmlns="http://www.w3.org/2000/svg"
   id="svg2"
   viewBox="0 0 189.39917 39.682999"
   version="1.1"
   width="715.83942"
   height="149.9801">
  <metadata
     id="metadata23">
    <rdf:RDF>
      <cc:Work
         rdf:about="">
        <dc:format>image/svg+xml</dc:format>
        <dc:type
           rdf:resource="http://purl.org/dc/dcmitype/StillImage" />
        <dc:title></dc:title>
      </cc:Work>
    </rdf:RDF>
  </metadata>
  <defs
     id="defs4">
    <clipPath
       clipPathUnits="userSpaceOnUse"
       id="a">
      <path
         id="path7"
         d="m 666.14,0 666.16,0 0,907.09 -666.16,0 0,-907.09 z" />
    </clipPath>
  </defs>
  <g
     id="g9"
     transform="translate(320.85847,-48.02)">
    <path
       id="path11"
       d="m -162.11,48.02 -158.75,0 0,39.683 158.75,0 0,-39.683 z" />
    <g
       id="g13"
       transform="matrix(3.023,0,0,-3.023,-2473.9,874.49)">
      <g
         id="g15"
         clip-path="url(#a)">
        <g
           id="g17"
           transform="translate(720.53,263.34)">
          <path
             style="fill:#ffffff"
             id="path19"
             d="m 0,0 c -0.01,-0.09 -0.055,-0.155 -0.055,-0.155 0,0 -0.043,-0.045 -0.124,-0.065 -1.06,-0.434 -2.241,-0.289 -2.241,-0.289 -1.916,0.209 -3.134,1.382 -3.524,2.898 -0.575,2.266 0.567,3.883 0.843,4.225 0.675,0.805 1.728,1.381 2.756,1.516 1.316,0.189 2.29,-0.121 2.689,-0.255 0,0 0.444,-0.144 0.777,-0.366 0.165,-0.112 0.185,-0.155 0.185,-0.155 0,0 0.012,-0.021 -0.031,-0.198 L 0.963,5.53 C 0.952,5.463 0.908,5.429 0.908,5.429 c 0,0 -0.023,-0.009 -0.175,0.091 -0.997,0.707 -2.16,0.618 -2.16,0.618 -0.885,-0.057 -1.913,-0.52 -2.225,-1.693 -0.275,-1.04 0.014,-1.913 0.63,-2.435 0.423,-0.362 1.076,-0.552 1.761,-0.518 0.755,0.055 1.35,0.355 1.307,0.334 0,0 0.032,0.008 0.068,0.021 0.154,0.077 0.187,0.067 0.187,0.067 0,0 0.032,-0.034 0.012,-0.136 L 0,0 Z m 5.666,5.52 c 0,0 -0.013,0 -0.023,-0.022 L 4.541,2.986 C 4.518,2.951 4.526,2.93 4.526,2.93 c 0,0 0.015,-0.011 0.067,-0.011 L 6.219,2.906 c 0.012,0 0.021,0.013 0.021,0.013 0,0 0.012,0.011 0,0.042 L 5.675,5.498 C 5.675,5.52 5.666,5.52 5.666,5.52 m 18.367,0.031 c 0,0 -0.008,0 -0.019,-0.042 L 22.907,3.005 C 22.884,2.93 22.894,2.919 22.894,2.919 c 0,0 0.034,-0.022 0.058,-0.022 l 1.638,0.009 0.021,0 c 0,0 0.01,0.013 0,0.045 L 24.056,5.52 C 24.047,5.551 24.033,5.551 24.033,5.551 M 9.03,-0.278 7.061,-0.286 c -0.045,0 -0.079,0.018 -0.079,0.018 0,0 -0.013,0.011 -0.022,0.09 L 6.651,1.094 c 0,0.033 -0.022,0.045 -0.022,0.045 l -0.033,0 -2.774,0 c -0.058,0 -0.089,-0.045 -0.089,-0.045 0,0 -0.046,-0.034 -0.079,-0.111 L 3.101,-0.2 C 3.079,-0.242 3.067,-0.257 3.067,-0.257 c 0,0 -0.034,-0.021 -0.065,-0.021 l -2.294,0 c -0.063,-0.008 -0.074,0.021 -0.074,0.021 0,0 -0.012,0.037 0.011,0.079 l 3.97,7.987 C 4.638,7.853 4.67,7.863 4.67,7.863 l 0.077,0 2.536,0 c 0.04,0 0.075,-0.033 0.075,-0.033 0,0 0.013,-0.01 0.022,-0.044 L 9.085,-0.22 c 0,-0.037 -0.022,-0.048 -0.022,-0.048 0,0 -0.01,-0.01 -0.033,-0.01 m 8.852,-0.022 -2.026,0 -0.065,0 c 0,0 -0.012,0.014 -0.022,0.022 l -2.81,4.989 c -0.023,0.023 -0.033,0.023 -0.033,0.023 0,0 -0.022,0 -0.022,-0.033 L 12.208,-0.2 c -0.013,-0.057 -0.024,-0.068 -0.024,-0.068 0,0 -0.024,-0.01 -0.056,-0.01 l -2.016,0 c -0.032,0 -0.051,0.021 -0.051,0.021 0,0 -0.046,0.045 -0.037,0.09 l 1.109,7.932 c 0.01,0.044 0.032,0.055 0.032,0.055 0,0 0.032,0.033 0.067,0.033 l 2.247,0 c 0.033,0 0.054,-0.023 0.054,-0.023 0,0 0.023,-0.01 0.033,-0.044 l 2.535,-4.445 c 0.043,-0.092 0.077,-0.079 0.077,-0.079 0,0 0.035,0 0.056,0.1 l 0.641,4.424 c 0,0.034 0.023,0.044 0.023,0.044 0,0 0.011,0.023 0.043,0.023 L 19.056,7.83 c 0.044,0 0.056,-0.01 0.056,-0.01 0,0 0.009,-0.011 0.009,-0.034 l -1.137,-7.998 c -0.011,-0.045 -0.034,-0.074 -0.034,-0.074 0,0 -0.013,-0.014 -0.068,-0.014 m 9.485,-0.01 -2.027,0 c -0.042,-0.024 -0.078,0.024 -0.078,0.024 0,0 -0.009,0.008 -0.021,0.074 l -0.264,1.248 c -0.021,0.069 -0.045,0.103 -0.045,0.103 0,0 -0.056,0.032 -0.122,0.032 l -2.635,0 c -0.053,0 -0.087,-0.032 -0.087,-0.032 0,0 -0.045,-0.045 -0.068,-0.111 l -0.596,-1.27 c -0.013,-0.036 -0.034,-0.044 -0.034,-0.044 0,0 -0.043,-0.014 -0.069,-0.014 l -2.278,0 c -0.054,-0.01 -0.076,0.022 -0.076,0.022 0,0 -0.01,0.021 0.022,0.066 l 4.016,8.021 c 0.022,0.011 0.045,0.044 0.045,0.044 0,0 0.023,0.01 0.088,0.01 l 2.49,0 c 0.056,0 0.09,-0.033 0.09,-0.033 0,0 0.011,-0.01 0.021,-0.044 l 1.67,-8.054 c 0,-0.018 -0.01,-0.032 -0.01,-0.032 0,0 0,-0.01 -0.032,-0.01 m 5.81,0.119 c -0.013,-0.066 -0.023,-0.087 -0.023,-0.087 0,0 -0.012,-0.022 -0.067,-0.022 l -4.558,0 c -0.134,0 -0.167,0.032 -0.167,0.032 0,0 -0.023,0.048 -0.01,0.146 l 1.129,7.853 c 0.008,0.099 0.033,0.132 0.033,0.132 l 0.119,0 2.071,0 c 0.057,0 0.079,-0.01 0.079,-0.01 0,0 0.009,-0.033 0,-0.077 L 30.93,1.635 C 30.918,1.569 30.952,1.56 30.952,1.56 c 0,0 0.024,-0.013 0.11,-0.013 l 2.257,0 c 0.044,0 0.067,-0.021 0.067,-0.021 0,0 0.013,-0.012 0.013,-0.068 l -0.222,-1.649 z m 8.775,3.11 c 0,0 -0.009,-0.022 -0.044,-0.022 l -2.834,0 c -0.045,0 -0.067,-0.022 -0.067,-0.022 0,0 -0.029,-0.011 -0.029,-0.066 l 0,-3.021 c 0,-0.045 -0.023,-0.056 -0.023,-0.056 0,0 -0.014,-0.018 -0.049,-0.018 l -2.244,0 c -0.035,0 -0.056,0.018 -0.056,0.018 0,0 -0.009,0.011 -0.009,0.068 l 0,3.018 c 0,0.035 -0.033,0.057 -0.033,0.057 0,0 -0.014,0.022 -0.044,0.022 l -2.901,0 c -0.055,0 -0.067,0.009 -0.067,0.009 0,0 -0.022,0.024 -0.022,0.092 l 0,2.211 c 0,0.024 0.022,0.056 0.022,0.056 0,0 0.012,0.009 0.034,0.009 l 2.964,0 c 0.025,0 0.025,0.012 0.025,0.012 0,0 0.022,0.013 0.022,0.033 l 0,2.645 c 0,0.031 0.009,0.055 0.009,0.055 0,0 0.021,0.011 0.089,0.011 l 2.203,0 c 0.043,0 0.057,-0.011 0.057,-0.011 0,0 0.023,-0.024 0.023,-0.067 l 0,-2.653 2.875,0 c 0.076,0 0.099,-0.013 0.099,-0.013 0,0 0.035,-0.012 0.035,-0.077 l 0,-2.235 c 0,-0.023 -0.035,-0.055 -0.035,-0.055" />
        </g>
      </g>
    </g>
  </g>
  <g
     transform="matrix(1.1892244,0,0,1.1892245,10.851137,-224.20449)"
     id="g36"
     style="fill:#000000">
    <path
       style="fill:#000000"
       d="m 132.47,192.6 0,-4.07 -2.73,0 0,10.52 2.73,0 0,-4.34 2.67,0 0,-2.11"
       id="path38" />
    <path
       style="fill:#000000"
       d="m 136.41,191.97 0,7.08 2.73,0 0,-10.52 -2.73,0"
       id="path40" />
    <path
       style="fill:#000000"
       d="m 148.58,190.12 c -1.02,-1.05 -2.22,-1.59 -3.61,-1.59 l -4.02,0 0,2.32 2.98,0 0.37,0 c 1.79,0 2.98,1.15 2.98,2.94 0,1.8 -1.19,2.94 -2.98,2.94 l -0.62,0 0,-4.61 -2.73,0 0,6.93 4.02,0 c 1.4,0 2.61,-0.52 3.63,-1.56 1.02,-1.05 1.54,-2.28 1.54,-3.7 0,-1.4 -0.52,-2.62 -1.56,-3.67"
       id="path42" />
  </g>
</svg>
