<svg version="1.1" viewBox="0 0 600 274.19" xmlns="http://www.w3.org/2000/svg">
 <g transform="matrix(23.125 0 0 -23.125 324.29 126.62)">
  <path d="m0 0h-11.368v-5.488h1.313l-0.4 4.573z" fill="#4f4448"/>
 </g>
 <g transform="matrix(23.125 0 0 -23.125 569.79 253.52)">
  <path d="m0 0v0.908l-10.376-0.908z" fill="#4f4448"/>
 </g>
 <g transform="matrix(23.125 0 0 -23.125 93.57 274.19)">
  <path d="m0 0 10.218 0.894h-10.296z" fill="#7a6d73"/>
 </g>
 <g transform="matrix(23.125 0 0 -23.125 588.95 103.46)">
  <path d="m0 0-11.445-1.001h10.617v-4.58l1.306 0.114z" fill="#7a6d73"/>
 </g>
 <g transform="matrix(23.125 0 0 -23.125 324.29 126.62)">
  <path d="m0 0-10.455-0.915 0.4-4.573h10.295l10.376 0.908v4.58z" fill="#a6959e"/>
 </g>
 <g transform="matrix(23.125 0 0 -23.125 161.79 163.02)">
  <path d="m0 0h-0.2v-1.904h0.2c0.584 0 0.964 0.377 0.964 0.953 0 0.575-0.38 0.951-0.964 0.951m0.217-2.652h-1.301v3.4h1.301c0.898 0 1.673-0.789 1.673-1.699 0-0.917-0.772-1.701-1.673-1.701" fill="#fff"/>
 </g>
 <g transform="matrix(23.125 0 0 -23.125 340.81 167.42)">
  <path d="m0 0c-9e-3 -0.082-0.013-0.086-0.032-0.086-9e-3 0-0.018 4e-3 -0.031 0.013l-0.05 0.041c-0.164 0.136-0.471 0.222-0.739 0.222-0.617 0-1.061-0.417-1.061-0.988 0-0.534 0.386-0.916 0.929-0.916 0.277 0 0.64 0.091 0.748 0.186 9e-3 0.014 0.023 0.018 0.028 0.018 0.013 0 0.018-9e-3 0.018-0.022 0-0.014 0-0.027-5e-3 -0.049l-0.063-0.74c0-0.022-0.019-0.046-0.051-0.058-0.162-0.083-0.534-0.15-0.797-0.15-0.983 0-1.691 0.707-1.691 1.69 0 1.034 0.816 1.845 1.864 1.845 0.267 0 0.53-0.055 0.811-0.172 0.149-0.064 0.203-0.104 0.203-0.154v-0.013z" fill="#fff"/>
 </g>
 <g transform="matrix(23.125 0 0 -23.125 385.81 170.06)">
  <path d="m0 0-0.372-1.083h0.735zm0.825-2.348-0.222 0.59h-1.219l-0.232-0.59h-0.934l1.306 3.4h0.961l1.284-3.4z" fill="#fff"/>
 </g>
 <g transform="matrix(23.125 0 0 -23.125 477.03 224.35)">
  <path d="m0 0h-1.945l0.418 3.4h0.86l-0.325-2.652h1.083z" fill="#fff"/>
 </g>
 <g transform="matrix(23.125 0 0 -23.125 491.41 217.33)">
  <path d="m0 0v3.4h0.295l0.049 0.14h1.342l-0.049-0.14h0.294v-0.749h-1.047v-0.566h0.993v-0.748h-0.993v-0.589h1.047v-0.748z" fill="#fff"/>
 </g>
 <g transform="matrix(23.125 0 0 -23.125 219.46 237.65)">
  <path d="m0 0v3.4h0.295l0.05 0.141h1.341l-0.049-0.141h0.294v-0.748h-1.047v-0.567h0.993v-0.747h-0.993v-0.59h1.047v-0.748z" fill="#fff"/>
 </g>
 <g transform="matrix(23.125 0 0 -23.125 161.79 163.02)">
  <path d="m0 0h-0.2v-1.904h0.2c0.584 0 0.964 0.377 0.964 0.953 0 0.575-0.38 0.951-0.964 0.951m0.217-2.652h-1.301v3.4h1.301c0.898 0 1.673-0.789 1.673-1.699 0-0.917-0.772-1.701-1.673-1.701" fill="#fff"/>
 </g>
 <g transform="matrix(23.125 0 0 -23.125 340.81 167.42)">
  <path d="m0 0c-9e-3 -0.082-0.013-0.086-0.032-0.086-9e-3 0-0.018 4e-3 -0.031 0.013l-0.05 0.041c-0.164 0.136-0.471 0.222-0.739 0.222-0.617 0-1.061-0.417-1.061-0.988 0-0.534 0.386-0.916 0.929-0.916 0.277 0 0.64 0.091 0.748 0.186 9e-3 0.014 0.023 0.018 0.028 0.018 0.013 0 0.018-9e-3 0.018-0.022 0-0.014 0-0.027-5e-3 -0.049l-0.063-0.74c0-0.022-0.019-0.046-0.051-0.058-0.162-0.083-0.534-0.15-0.797-0.15-0.983 0-1.691 0.707-1.691 1.69 0 1.034 0.816 1.845 1.864 1.845 0.267 0 0.53-0.055 0.811-0.172 0.149-0.064 0.203-0.104 0.203-0.154v-0.013z" fill="#fff"/>
 </g>
 <g transform="matrix(23.125 0 0 -23.125 385.81 170.06)">
  <path d="m0 0-0.372-1.083h0.735zm0.825-2.348-0.222 0.59h-1.219l-0.232-0.59h-0.934l1.306 3.4h0.961l1.284-3.4z" fill="#fff"/>
 </g>
 <g transform="matrix(23.125 0 0 -23.125 477.03 224.35)">
  <path d="m0 0h-1.945l0.418 3.4h0.86l-0.325-2.652h1.083z" fill="#fff"/>
 </g>
 <g transform="matrix(23.125 0 0 -23.125 491.41 217.33)">
  <path d="m0 0v3.4h0.295l0.049 0.14h1.342l-0.049-0.14h0.294v-0.749h-1.047v-0.566h0.993v-0.748h-0.993v-0.589h1.047v-0.748z" fill="#fff"/>
 </g>
 <g transform="matrix(23.125 0 0 -23.125 219.46 237.65)">
  <path d="m0 0v3.4h0.295l0.05 0.141h1.341l-0.049-0.141h0.294v-0.748h-1.047v-0.567h0.993v-0.747h-0.993v-0.59h1.047v-0.748z" fill="#fff"/>
 </g>
 <path d="m506.48 0h-506.48v126.63h506.48z" fill="#151922"/>
 <g transform="matrix(23.125 0 0 -23.125 484.85 68.843)">
  <path d="m0 0-0.018-9e-3h-1.182c-0.018 0-0.028-0.01-0.028-0.01s-0.013-4e-3 -0.013-0.027v-1.259c0-0.019-0.01-0.024-0.01-0.024l-0.018-9e-3h-0.937l-0.023 9e-3s-5e-3 5e-3 -5e-3 0.028v1.259l-0.014 0.023-0.018 0.01h-1.209c-0.023 0-0.028 4e-3 -0.028 4e-3s-9e-3 9e-3 -9e-3 0.037v0.923l9e-3 0.023 0.014 5e-3h1.237l9e-3 4e-3 9e-3 0.014v1.102l5e-3 0.024s9e-3 4e-3 0.037 4e-3h0.918c0.019 0 0.023-4e-3 0.023-4e-3s0.01-0.01 0.01-0.028v-1.107h1.199c0.033 0 0.042-5e-3 0.042-5e-3s0.014-4e-3 0.014-0.032v-0.932zm-3.66-1.296c-5e-3 -0.028-9e-3 -0.037-9e-3 -0.037s-5e-3 -0.01-0.028-0.01h-1.902c-0.055 0-0.069 0.014-0.069 0.014s-9e-3 0.019-4e-3 0.06l0.47 3.276c5e-3 0.041 0.014 0.055 0.014 0.055h0.914c0.023 0 0.032-5e-3 0.032-5e-3s5e-3 -0.013 0-0.032l-0.355-2.56c-5e-3 -0.028 9e-3 -0.033 9e-3 -0.033s9e-3 -4e-3 0.047-4e-3h0.941c0.018 0 0.028-9e-3 0.028-9e-3s4e-3 -5e-3 4e-3 -0.028zm-2.423-0.051h-0.845c-0.018-9e-3 -0.032 9e-3 -0.032 9e-3s-5e-3 5e-3 -9e-3 0.033l-0.111 0.521c-9e-3 0.027-0.019 0.041-0.019 0.041s-0.022 0.014-0.05 0.014h-1.099c-0.023 0-0.037-0.014-0.037-0.014s-0.018-0.018-0.027-0.046l-0.25-0.531-0.013-0.018-0.028-5e-3h-0.951c-0.023-4e-3 -0.032 0.01-0.032 0.01s-5e-3 9e-3 9e-3 0.028l1.675 3.344 0.019 0.018s9e-3 5e-3 0.037 5e-3h1.038c0.023 0 0.037-0.014 0.037-0.014l9e-3 -0.018 0.697-3.359-4e-3 -0.014zm-3.956 4e-3h-0.872l-9e-3 0.01-1.172 2.08-0.014 9e-3 -9e-3 -0.013-0.291-2.044c-5e-3 -0.023-0.01-0.028-0.01-0.028l-0.023-4e-3h-0.84l-0.023 9e-3s-0.018 0.019-0.013 0.037l0.461 3.307c5e-3 0.019 0.014 0.024 0.014 0.024l0.028 0.013h0.937l0.023-9e-3 0.013-0.018 1.057-1.855c0.019-0.037 0.033-0.032 0.033-0.032s0.014 0 0.023 0.042l0.268 1.845 9e-3 0.018 0.018 9e-3 0.882-9e-3c0.018 0 0.023-4e-3 0.023-4e-3l5e-3 -0.014-0.476-3.335c-5e-3 -0.019-0.014-0.033-0.014-0.033s-4e-3 -5e-3 -0.028-5e-3m-3.692 0.01-0.821-5e-3c-0.019 0-0.033 9e-3 -0.033 9e-3s-4e-3 5e-3 -9e-3 0.037l-0.129 0.531-9e-3 0.018h-1.173c-0.023 0-0.037-0.018-0.037-0.018s-0.018-0.014-0.032-0.046l-0.231-0.494c-9e-3 -0.019-0.014-0.023-0.014-0.023l-0.027-9e-3h-0.956c-0.027-5e-3 -0.032 9e-3 -0.032 9e-3s-5e-3 0.014 5e-3 0.032l1.657 3.331c9e-3 0.018 0.023 0.023 0.023 0.023h1.089c0.018 0 0.032-0.014 0.032-0.014l9e-3 -0.018 0.711-3.34-9e-3 -0.019zm6.259 2.431s-5e-3 0-0.01-0.019l-0.461-1.042c-0.01-0.033-5e-3 -0.037-5e-3 -0.037l0.023-9e-3 0.683 4e-3h0.01v0.019l-0.231 1.07zm-7.662-0.014-9e-3 -9e-3 -0.462-1.047-4e-3 -0.024s4e-3 -4e-3 0.027-4e-3l0.679-5e-3 9e-3 5e-3v0.018l-0.235 1.057zm-2.363-2.302c-5e-3 -0.037-0.023-0.064-0.023-0.064s-0.019-0.019-0.051-0.028c-0.443-0.18-0.937-0.12-0.937-0.12-0.798 0.087-1.306 0.576-1.468 1.208-0.239 0.946 0.236 1.62 0.351 1.763 0.282 0.336 0.72 0.576 1.15 0.632 0.549 0.078 0.955-0.051 1.121-0.106 0 0 0.185-0.06 0.323-0.153 0.069-0.046 0.079-0.064 0.079-0.064s4e-3 -9e-3 -0.014-0.083l-0.13-0.679c-4e-3 -0.027-0.022-0.041-0.022-0.041s-0.01-4e-3 -0.074 0.037c-0.416 0.295-0.9 0.258-0.9 0.258-0.37-0.023-0.799-0.216-0.928-0.705-0.115-0.434 4e-3 -0.799 0.263-1.015 0.175-0.153 0.448-0.231 0.734-0.217 0.314 0.023 0.563 0.148 0.544 0.138l0.028 0.01c0.065 0.032 0.079 0.027 0.079 0.027s0.014-0.014 4e-3 -0.055z" fill="#fff"/>
 </g>
</svg>
