<svg version="1.1" viewBox="0 0 600 170.56" xmlns="http://www.w3.org/2000/svg">
 <g transform="translate(-46.97 -374.17)">
  <g transform="matrix(1.0102 0 0 1.0102 -3.5406 -4.6883)">
   <path d="m556.63 417.22h-506.63v126.65h506.63z" fill="#151922"/>
   <g transform="matrix(23.124 0 0 -23.124 535 486.08)">
    <path d="m0 0-0.018-9e-3h-1.182c-0.019 0-0.028-0.01-0.028-0.01s-0.014-4e-3 -0.014-0.027v-1.26c0-0.018-9e-3 -0.023-9e-3 -0.023l-0.019-9e-3h-0.937l-0.023 9e-3s-4e-3 5e-3 -4e-3 0.028v1.259l-0.015 0.023-0.018 0.01h-1.21c-0.022 0-0.027 4e-3 -0.027 4e-3s-0.01 9e-3 -0.01 0.037v0.923l0.01 0.023 0.014 5e-3h1.237l9e-3 5e-3 0.01 0.013v1.103l4e-3 0.023s9e-3 5e-3 0.037 5e-3h0.919c0.018 0 0.023-5e-3 0.023-5e-3s9e-3 -9e-3 9e-3 -0.027v-1.108h1.2c0.033 0 0.042-4e-3 0.042-4e-3s0.014-5e-3 0.014-0.033v-0.932zm-3.661-1.297c-5e-3 -0.027-9e-3 -0.036-9e-3 -0.036s-5e-3 -0.01-0.028-0.01h-1.902c-0.056 0-0.069 0.014-0.069 0.014s-0.01 0.018-5e-3 0.06l0.471 3.276c4e-3 0.042 0.014 0.056 0.014 0.056h0.914c0.023 0 0.032-5e-3 0.032-5e-3s5e-3 -0.014 0-0.032l-0.355-2.561c-5e-3 -0.028 9e-3 -0.033 9e-3 -0.033s9e-3 -4e-3 0.046-4e-3h0.942c0.018 0 0.027-0.01 0.027-0.01s5e-3 -4e-3 5e-3 -0.027zm-2.424-0.051h-0.845c-0.018-9e-3 -0.032 0.01-0.032 0.01s-5e-3 5e-3 -9e-3 0.032l-0.111 0.521c-9e-3 0.028-0.019 0.042-0.019 0.042s-0.023 0.014-0.05 0.014h-1.099c-0.023 0-0.037-0.014-0.037-0.014s-0.019-0.018-0.028-0.046l-0.249-0.531-0.014-0.018-0.028-5e-3h-0.951c-0.023-5e-3 -0.032 0.01-0.032 0.01s-5e-3 9e-3 9e-3 0.027l1.676 3.346 0.019 0.018s9e-3 5e-3 0.036 5e-3h1.039c0.023 0 0.037-0.014 0.037-0.014l9e-3 -0.019 0.698-3.359-5e-3 -0.014zm-3.957 5e-3h-0.872l-9e-3 0.01-1.173 2.081-0.014 9e-3 -9e-3 -0.014-0.291-2.044c-5e-3 -0.023-9e-3 -0.028-9e-3 -0.028l-0.023-4e-3h-0.841l-0.023 9e-3s-0.018 0.018-0.013 0.036l0.461 3.309c5e-3 0.019 0.014 0.023 0.014 0.023l0.028 0.014h0.937l0.023-9e-3 0.014-0.019 1.057-1.855c0.019-0.037 0.033-0.032 0.033-0.032s0.013 0 0.023 0.042l0.267 1.845 0.01 0.019 0.018 9e-3 0.882-9e-3c0.018 0 0.023-5e-3 0.023-5e-3l5e-3 -0.014-0.476-3.336c-5e-3 -0.018-0.014-0.032-0.014-0.032s-4e-3 -5e-3 -0.028-5e-3m-3.693 0.01-0.822-5e-3c-0.018 0-0.032 9e-3 -0.032 9e-3s-5e-3 5e-3 -0.01 0.037l-0.128 0.531-0.01 0.018h-1.173c-0.023 0-0.037-0.018-0.037-0.018s-0.018-0.014-0.032-0.047l-0.231-0.493c-9e-3 -0.019-0.014-0.023-0.014-0.023l-0.027-9e-3h-0.956c-0.028-5e-3 -0.032 9e-3 -0.032 9e-3s-5e-3 0.013 4e-3 0.032l1.658 3.332c9e-3 0.018 0.023 0.023 0.023 0.023h1.089c0.019 0 0.033-0.014 0.033-0.014l9e-3 -0.019 0.711-3.341-9e-3 -0.018zm6.26 2.431s-4e-3 0-9e-3 -0.018l-0.462-1.043c-9e-3 -0.033-4e-3 -0.037-4e-3 -0.037l0.023-9e-3 0.683 4e-3h0.01v0.019l-0.231 1.07zm-7.664-0.014-9e-3 -9e-3 -0.461-1.047-5e-3 -0.024s5e-3 -4e-3 0.028-4e-3l0.678-5e-3 9e-3 5e-3v0.018l-0.235 1.057zm-2.363-2.302c-5e-3 -0.037-0.023-0.065-0.023-0.065s-0.019-0.018-0.051-0.028c-0.443-0.179-0.937-0.12-0.937-0.12-0.799 0.088-1.307 0.577-1.469 1.209-0.24 0.946 0.236 1.62 0.351 1.763 0.282 0.337 0.721 0.577 1.15 0.632 0.549 0.079 0.956-0.05 1.122-0.106 0 0 0.184-0.06 0.323-0.152 0.069-0.046 0.078-0.065 0.078-0.065s5e-3 -9e-3 -0.013-0.083l-0.13-0.678c-4e-3 -0.028-0.023-0.042-0.023-0.042s-9e-3 -4e-3 -0.074 0.037c-0.415 0.296-0.9 0.259-0.9 0.259-0.369-0.023-0.799-0.217-0.928-0.706-0.115-0.434 5e-3 -0.799 0.263-1.015 0.176-0.153 0.448-0.231 0.734-0.217 0.314 0.023 0.563 0.147 0.545 0.138l0.028 9e-3c0.064 0.033 0.078 0.028 0.078 0.028s0.014-0.014 5e-3 -0.055z" fill="#fff"/>
   </g>
   <g transform="matrix(23.124 0 0 -23.124 643.94 438.36)">
    <path d="m0 0c-0.122 0.913-0.244 1.826-0.365 2.739h-5.843c0.244-1.187 0.487-2.374 0.73-3.561 1.826 0.274 3.652 0.548 5.478 0.822" fill="#ed1c24"/>
   </g>
   <g transform="matrix(23.124 0 0 -23.124 561.5 434.31)">
    <path d="m0 0c-0.061 0.333-0.091 0.5-0.152 0.833-0.296-0.023-0.444-0.034-0.74-0.057 0.066-0.344 0.099-0.516 0.164-0.861-0.201-0.023-0.302-0.035-0.504-0.059-0.14 0.712-0.281 1.424-0.42 2.136 0.21 5e-3 0.315 7e-3 0.525 0.012 0.063-0.323 0.093-0.485 0.155-0.808 0.298 0.018 0.447 0.027 0.745 0.044-0.057 0.313-0.085 0.469-0.143 0.782 0.211 5e-3 0.316 8e-3 0.526 0.012 0.117-0.658 0.233-1.317 0.349-1.975-0.202-0.024-0.303-0.036-0.505-0.059" fill="#fff"/>
   </g>
   <g transform="matrix(23.124 0 0 -23.124 596.69 396.03)">
    <path d="m0 0c-0.047-2e-3 -0.071-3e-3 -0.117-5e-3 0.067-0.419 0.101-0.629 0.169-1.048 0.046 5e-3 0.069 7e-3 0.114 0.011 0.338 0.032 0.527 0.254 0.48 0.56-0.047 0.307-0.302 0.497-0.646 0.482m0.356-1.437c-0.297-0.034-0.446-0.052-0.742-0.087-0.108 0.64-0.216 1.279-0.324 1.918 0.309 8e-3 0.464 0.011 0.774 0.019 0.511-3e-3 1.044-0.355 1.121-0.858 0.072-0.481-0.343-0.926-0.829-0.992" fill="#fff"/>
   </g>
  </g>
 </g>
</svg>
