<svg version="1.1" viewBox="0 0 632.14 263.01" xmlns="http://www.w3.org/2000/svg">
 <g transform="translate(-78.277 -345.34)">
  <path transform="matrix(12.846 0 0 12.846 -335.5 -1933.2)" d="m43.98 197.85c-0.696 0-0.988-0.6-0.988-1.859 0-1.354 0.34-2.034 1.036-2.034 0.595 0 0.919 0.451 0.919 1.317v0.085h-0.712v-0.175c0-0.446-0.043-0.664-0.218-0.664-0.249 0-0.281 0.478-0.281 1.519 0 0.797 0.037 1.168 0.286 1.168 0.192 0 0.271-0.265 0.271-0.812v-0.053h0.643c-0.016 1.009-0.329 1.508-0.956 1.508" fill="#7b7c7e"/>
  <path transform="matrix(12.846 0 0 12.846 -335.5 -1933.2)" d="m45.547 194.03h0.961l0.484 3.75h-0.648l-0.107-0.802h-0.536l-0.096 0.802h-0.589l0.531-3.75zm0.616 2.332-0.196-1.662-0.197 1.662h0.393z" fill="#7b7c7e"/>
  <path transform="matrix(12.846 0 0 12.846 -335.5 -1933.2)" d="m47.193 194.03h0.664l0.451 1.317c0.085 0.25 0.16 0.489 0.192 0.728v-2.045h0.584v3.75h-0.563l-0.515-1.45c-0.091-0.25-0.176-0.5-0.229-0.76v2.21h-0.584v-3.75z" fill="#7b7c7e"/>
  <path transform="matrix(12.846 0 0 12.846 -335.5 -1933.2)" d="m49.822 194.03h0.961l0.484 3.75h-0.648l-0.107-0.802h-0.536l-0.096 0.802h-0.589l0.531-3.75zm0.616 2.332-0.196-1.662-0.197 1.662h0.393z" fill="#7b7c7e"/>
  <polygon transform="matrix(12.846 0 0 12.846 -335.5 -1933.2)" points="53.094 197.78 51.469 197.78 51.469 194.03 52.19 194.03 52.19 197.16 53.094 197.16" fill="#7b7c7e"/>
  <polygon transform="matrix(12.846 0 0 12.846 -335.5 -1933.2)" points="54.708 197.78 53.986 197.78 53.986 194.03 54.708 194.03 54.708 195.54 55.133 195.54 55.133 194.03 55.856 194.03 55.856 197.78 55.133 197.78 55.133 196.15 54.708 196.15"/>
  <path transform="matrix(12.846 0 0 12.846 -335.5 -1933.2)" d="m57.231 193.96c0.738 0 1.025 0.632 1.025 1.944s-0.282 1.944-1.02 1.944c-0.765 0-1.052-0.621-1.052-1.944 1e-3 -1.322 0.283-1.944 1.047-1.944m0.266 2.077c0-1.009-0.021-1.471-0.271-1.471-0.265 0-0.281 0.43-0.281 1.365 0 0.892 0.026 1.291 0.287 1.291 0.217 0 0.265-0.388 0.265-1.185"/>
  <polygon transform="matrix(12.846 0 0 12.846 -335.5 -1933.2)" points="60.21 197.78 58.585 197.78 58.585 194.03 59.307 194.03 59.307 197.16 60.21 197.16"/>
  <polygon transform="matrix(12.846 0 0 12.846 -335.5 -1933.2)" points="61.99 197.78 60.365 197.78 60.365 194.03 61.086 194.03 61.086 197.16 61.99 197.16"/>
  <polygon transform="matrix(12.846 0 0 12.846 -335.5 -1933.2)" points="63.196 196.26 63.196 197.78 62.468 197.78 62.468 196.26 61.847 194.03 62.569 194.03 62.925 195.44 63.35 194.03 63.934 194.03"/>
  <path transform="matrix(12.846 0 0 12.846 -335.5 -1933.2)" d="m64.603 194.03 0.149 1.588c0.026 0.255 0.042 0.51 0.053 0.765 0.016-0.35 0.064-0.616 0.09-0.802l0.223-1.551h0.664l0.223 1.551c0.022 0.159 0.069 0.425 0.085 0.802 0.016-0.372 0.037-0.627 0.053-0.765l0.202-1.588h0.536l-0.525 3.75h-0.654l-0.228-1.726c-0.042-0.33-0.069-0.643-0.08-0.94 0 0.355-0.058 0.664-0.101 0.94l-0.254 1.726h-0.664l-0.431-3.75h0.659z"/>
  <path transform="matrix(12.846 0 0 12.846 -335.5 -1933.2)" d="m68.06 193.96c0.739 0 1.025 0.632 1.025 1.944s-0.281 1.944-1.019 1.944c-0.765 0-1.052-0.621-1.052-1.944 0-1.322 0.282-1.944 1.046-1.944m0.266 2.077c0-1.009-0.021-1.471-0.271-1.471-0.265 0-0.281 0.43-0.281 1.365 0 0.892 0.026 1.291 0.286 1.291 0.218 0 0.266-0.388 0.266-1.185"/>
  <path transform="matrix(12.846 0 0 12.846 -335.5 -1933.2)" d="m70.386 193.96c0.739 0 1.025 0.632 1.025 1.944s-0.281 1.944-1.019 1.944c-0.765 0-1.052-0.621-1.052-1.944 0-1.322 0.282-1.944 1.046-1.944m0.266 2.077c0-1.009-0.021-1.471-0.271-1.471-0.266 0-0.281 0.43-0.281 1.365 0 0.892 0.026 1.291 0.286 1.291 0.218 0 0.266-0.388 0.266-1.185"/>
  <path transform="matrix(12.846 0 0 12.846 -335.5 -1933.2)" d="m71.741 194.03h0.796c0.903 0 1.164 0.557 1.164 1.874 0 1.323-0.255 1.875-1.164 1.875h-0.796v-3.749zm0.722 3.128c0.027 5e-3 0.058 5e-3 0.08 5e-3 0.372 0 0.398-0.361 0.398-1.174 0-0.663-0.011-1.051-0.09-1.179-0.069-0.106-0.181-0.159-0.34-0.159h-0.048v2.507z"/>
  <path transform="matrix(12.846 0 0 12.846 -335.5 -1933.2)" d="m46.2 187.45 5.081 5.551-8.218-1.006-3.34 5.853-1.051-7.389-6.462-1.175 6.298-3.146-0.596-8.764 5.304 6.172 9.467-5.849-6.483 9.753zm-6.464 4.292 0.667-0.276-0.622-1.502 0.393-0.162 0.622 1.501 0.667-0.277-1.435-3.464-0.667 0.277 0.577 1.393-0.393 0.163-0.577-1.394-0.667 0.277 1.435 3.464zm0.523-4.275 1.832 3.299 0.614-0.254-0.425-1.692c-0.067-0.271-0.131-0.578-0.267-0.907 0.124 0.271 0.268 0.55 0.433 0.838l0.872 1.507 0.604-0.25-0.95-3.665-0.495 0.205 0.421 1.544c0.038 0.134 0.116 0.378 0.243 0.727-0.158-0.342-0.304-0.569-0.385-0.708l-0.8-1.347-0.613 0.254 0.388 1.518c0.046 0.182 0.104 0.445 0.223 0.775-0.107-0.231-0.22-0.461-0.342-0.686l-0.745-1.41-0.608 0.252zm4.379 2.244 0.736-0.305c0.839-0.348 0.863-0.956 0.357-2.178-0.504-1.217-0.958-1.632-1.792-1.287l-0.736 0.305 1.435 3.465zm-0.53-3.167 0.044-0.018c0.147-0.061 0.271-0.055 0.375 0.017 0.123 0.087 0.281 0.441 0.535 1.055 0.311 0.75 0.424 1.094 0.081 1.237-0.02 8e-3 -0.049 0.02-0.076 0.025l-0.959-2.316z" fill="#009dd5"/>
  <g fill="#009dd5">
   <path d="m623.58 607.15v-47.024h9.4946v18.508h18.604v-18.508h9.4946v47.024h-9.4946v-20.561h-18.604v20.561z"/>
   <path d="m670.99 560.12h17.353c3.9133 5e-5 6.8964 0.29943 8.9493 0.89814 2.7585 0.81264 5.1215 2.2561 7.0888 4.3303 1.9673 2.0743 3.4642 4.6137 4.4907 7.6181 1.0264 3.0045 1.5396 6.7093 1.5397 11.114-4e-5 3.8706-0.48119 7.2065-1.4434 10.008-1.1762 3.4215-2.8548 6.1907-5.036 8.3078-1.6466 1.6038-3.8706 2.8548-6.6719 3.7529-2.0957 0.66291-4.897 0.99436-8.404 0.99436h-17.866zm9.4946 7.9549v31.146h7.0889c2.6516 1e-5 4.5655-0.14968 5.7416-0.44906 1.5396-0.38491 2.8173-1.0371 3.8331-1.9567 1.0157-0.9195 1.8444-2.4324 2.4859-4.5388 0.64149-2.1063 0.96226-4.9772 0.96229-8.6125-3e-5 -3.6353-0.3208-6.4259-0.96229-8.3719-0.64155-1.9459-1.5397-3.4642-2.6944-4.5548-1.1548-1.0906-2.6196-1.8283-4.3944-2.2133-1.3258-0.29934-3.924-0.44902-7.7945-0.44906z"/>
  </g>
 </g>
</svg>
