<svg xmlns="http://www.w3.org/2000/svg" width="243.836" height="203.898" viewBox="0 0 64.515 53.948"><g fill="#005a36"><path fill-rule="evenodd" d="M24.554 0c-3.955-.03-7.327 1.168-9.557 3.466-2.407 2.482-3.134 4.956-2.886 9.85.236 4.653 1.87 9.435 5.007 14.658 3.496 5.821 6.993 8.543 11.808 9.191 2.727.368 3.315.23 3.315-.777 0-.413.365-1.674.81-2.802.445-1.13.81-2.137.81-2.24 0-.103-1.776-.19-3.945-.192-4.912-.005-7.106-.892-9.915-4.017-2.178-2.422-3.13-5.01-3.13-8.505 0-7.669 4.557-13.787 12.18-16.355 3.117-1.049 3.1-1.134-.367-1.831A21.837 21.837 0 0 0 24.554 0zm20.5 6.582c-.053-.014-.09-.01-.116.015-.094.094.125 1.335.49 2.755 1.598 6.242-.837 11.952-6.38 14.958-2.343 1.27-2.848 1.387-5.997 1.387-2.85 0-3.685-.154-4.885-.9-1.709-1.063-2.395-2.38-2.395-4.595 0-3.186 2.217-6.023 5.372-6.873 1.404-.378 1.773-.33 2.679.343 1.473 1.095 1.585 2.875.259 4.12-.567.533-1.05.801-1.074.595a38.33 38.33 0 0 1-.101-1.177c-.086-1.188-1.313-1.213-2.474-.052-1.287 1.287-1.297 2.436-.03 3.703 1.279 1.278 2.399 1.253 5.098-.118 2.605-1.323 3.753-3.046 3.753-5.629 0-4.587-5.1-7.11-9.905-4.898-7.683 3.536-9.502 13.93-3.021 17.259 2.483 1.275 7.61 1.605 11.68.753 1.5-.315 2.73-.495 2.73-.4 0 .094-.342.653-.76 1.244-1.044 1.472-3.689 6.72-3.689 7.317 0 .653 1.177.268 4.55-1.486 8.345-4.339 12.938-14.968 9.566-22.143-.793-1.688-4.555-5.977-5.35-6.179z"/><g stroke-width=".15"><g aria-label="canal"><path d="M2.635 51.02q-1.264 0-1.957-.73-.68-.728-.68-2.575 0-1.3.316-2.03.316-.73.887-1.02.583-.292 1.47-.292 1.228 0 2.176.206v.717H3.012q-.644 0-1.021.207-.377.194-.571.729-.195.522-.195 1.495 0 .947.195 1.458.206.51.583.705.389.194 1.02.194h1.92v.693q-.46.11-1.08.17-.62.073-1.228.073zM7.003 51.02q-.729 0-1.19-.438-.462-.437-.462-1.19v-.51q0-.779.522-1.24.535-.474 1.556-.474h2.03v-.68q0-.402-.134-.645-.134-.255-.487-.389-.34-.133-.984-.133H5.861v-.717q1.07-.243 2.406-.256 1.24 0 1.823.486.596.474.596 1.568v4.545h-.96l-.207-.73q-.11.098-.523.293-.4.194-.947.352-.535.158-1.046.158zm.584-.887q.291 0 .705-.097.413-.11.765-.231.365-.134.401-.158v-1.872l-1.701.073q-1.179.073-1.179 1.045v.292q0 .498.292.729.291.219.717.219zM11.871 44.446h.972l.243.705q.474-.353 1.07-.584.607-.23 1.215-.23 1.033 0 1.519.631.486.62.486 1.605v4.374h-1.215v-4.229q0-.583-.328-.923-.328-.353-.9-.353-.51 0-.935.146-.413.146-.912.438v4.921h-1.215zM19.873 51.02q-.729 0-1.19-.438-.462-.437-.462-1.19v-.51q0-.779.522-1.24.535-.474 1.556-.474h2.03v-.68q0-.402-.134-.645-.134-.255-.487-.389-.34-.133-.984-.133h-1.993v-.717q1.07-.243 2.406-.256 1.24 0 1.823.486.596.474.596 1.568v4.545h-.96l-.207-.73q-.11.098-.523.293-.4.194-.947.352-.535.158-1.045.158zm.584-.887q.291 0 .705-.097.413-.11.765-.231.365-.134.401-.158v-1.872l-1.701.073q-1.179.073-1.179 1.045v.292q0 .498.292.729.291.219.717.219zM26.551 50.96q-.923 0-1.373-.487-.438-.486-.438-1.616v-7.182h1.216v7.024q0 .717.194.984.207.268.644.328l.608.073v.875z"/></g><g aria-label="galería"><path d="m34.781 45.26-1.154.158q.267.243.425.559.17.316.17.911 0 .887-.559 1.434-.559.547-1.774.547h-1.106q-.875 0-.875.535 0 .23.17.34.182.097.438.097h1.932q1.154 0 1.725.462.584.45.584 1.434v.207q0 .96-.62 1.482-.608.523-1.823.523h-1.908q-.96 0-1.555-.413-.584-.414-.584-1.167v-.23q0-.5.268-.876.28-.364.741-.571-.316-.17-.486-.437-.158-.28-.158-.608 0-.474.28-.79.291-.328.802-.437-.584-.28-.839-.766-.243-.498-.243-1.106 0-1.094.656-1.604.669-.523 1.981-.523h3.512zm-3.05 2.479q.632 0 .875-.28.255-.279.255-.765 0-.608-.28-.863-.267-.267-.79-.267h-.68q-.559 0-.838.255-.28.243-.28.814t.255.839q.268.267.778.267zm-.96 3.232q-.474 0-.778.22-.304.23-.304.655v.195q0 .425.292.632.292.206.826.206h1.325q.571 0 .887-.218.316-.22.316-.645v-.206q0-.839-1.118-.839zM36.79 51.02q-.742 0-1.204-.438-.45-.45-.45-1.203v-.546q0-.778.523-1.24.535-.462 1.58-.462h1.86v-.57q0-.365-.122-.584t-.45-.328q-.328-.122-.948-.122h-1.968v-.875q1.106-.304 2.552-.304 1.24 0 1.835.486.607.487.607 1.629v4.484h-1.178l-.256-.705q-.121.11-.498.304-.377.182-.887.328-.498.146-.996.146zm.729-1.057q.34 0 .899-.17.571-.183.68-.243v-1.702l-1.41.073q-1.056.085-1.056.936v.267q0 .438.243.632.255.195.644.207zM43.805 50.97c-.656 0-1.143-.165-1.459-.498-.315-.34-.473-.883-.473-1.628v-7.84h1.506v7.633c0 .413.061.705.183.875.121.162.316.26.583.292l.547.073v1.094zM48.025 51.007q-1.081 0-1.701-.291-.608-.304-.887-1.009-.268-.717-.268-2.017 0-1.325.256-2.042.267-.717.862-1.008.608-.292 1.702-.292.96 0 1.519.194.559.195.814.68.255.475.255 1.338 0 .899-.522 1.288-.51.389-1.495.389h-1.908q.024.631.17.984.146.34.51.498.377.158 1.082.158h1.969v.887q-.656.122-1.179.182-.51.061-1.179.061zm.39-3.682q.437 0 .631-.17t.194-.595q0-.632-.279-.875t-.972-.243q-.523 0-.814.17-.28.158-.414.559-.121.4-.121 1.154zM51.686 44.433h1.166l.34 1.045q.426-.534.9-.826.486-.304 1.094-.304.291 0 .546.073v1.531q-.461-.048-.74-.048-.572 0-.985.194-.413.182-.814.596v4.253h-1.507zM56.55 44.433h1.508v6.514H56.55zm1.362-2.843h1.24l-1.447 1.689h-.875zM60.698 51.02q-.741 0-1.203-.438-.45-.45-.45-1.203v-.546q0-.778.523-1.24.535-.462 1.58-.462h1.86v-.57q0-.365-.122-.584t-.45-.328q-.328-.122-.948-.122h-1.969v-.875q1.106-.304 2.552-.304 1.24 0 1.835.486.608.487.608 1.629v4.484h-1.179l-.255-.705q-.122.11-.498.304-.377.182-.887.328-.499.146-.997.146zm.73-1.057q.34 0 .899-.17.57-.183.68-.243v-1.702l-1.41.073q-1.057.085-1.057.936v.267q0 .438.243.632.255.195.644.207z"/></g></g></g></svg>