<svg xmlns="http://www.w3.org/2000/svg" width="600" height="141.454">
    <defs>
        <clipPath id="a">
            <path d="M0 0h524.409v651.968H0V0z"/>
        </clipPath>
    </defs>
    <g clip-path="url(#a)" transform="matrix(25.74223 0 0 -25.74223 -10863.583 10150.008)">
        <path d="M422.014 388.799h23.308v5.495h-23.308v-5.495z" fill="#231f20"/>
    </g>
    <g font-size="49.462" font-style="oblique" font-weight="400" fill="#fff" font-family="CanalBoldItalique">
        <path d="M32.833 104.408l33.236-67.172h5.554l-.612-2.842H87.76l5.379 22.39H89.99l11.545 47.624h-17.93l-2.93-12.289H57.28l-5.641 12.289zm30.743-25.714h13.688l-2.492-11.72c-.059-.321-.175-.831-.35-1.531s-.277-1.18-.306-1.443l-.35-1.487c-.292-1.72-.583-3.6-.875-5.641a69.83 69.83 0 0 1-3.061 7.959zM134.423 104.32l8.221-67.171h17.012l-6.429 52.39h21.385l-1.793 14.781zM175.774 104.32L209.01 37.15h19.155l16.311 67.171h-17.93l-2.93-12.288H200.22l-5.641 12.288zm30.743-25.714h13.688l-2.492-11.72c-.146-.7-.3-1.392-.46-2.077-.16-.685-.284-1.217-.371-1.596a32.47 32.47 0 0 1-.175-.788c-.35-2.099-.642-3.979-.875-5.64-.116.349-.27.779-.459 1.29-.19.51-.313.852-.372 1.027a46.13 46.13 0 0 1-2.23 5.641zM277.888 72.265c0-5.014.955-9.774 2.865-14.278 1.91-4.505 4.497-8.382 7.762-11.633 3.265-3.25 7.18-5.823 11.742-7.719 4.563-1.894 9.38-2.842 14.453-2.842 5.219 0 10.554 1.137 16.006 3.411 1.487.641 2.53 1.188 3.127 1.64.598.452.896.926.897 1.421v.263l-1.575 13.163c-.087.758-.168 1.232-.24 1.421a.41.41 0 0 1-.416.284c-.146 0-.35-.087-.612-.262l-1.006-.83c-1.603-1.313-3.76-2.37-6.472-3.171-2.712-.802-5.408-1.203-8.09-1.203-6.094 0-11.116 1.837-15.066 5.51-3.95 3.674-5.926 8.338-5.926 13.994 0 5.306 1.72 9.65 5.16 13.032 3.44 3.382 7.843 5.073 13.208 5.073 2.74 0 5.62-.379 8.637-1.137 3.017-.758 5.065-1.603 6.144-2.536.146-.234.32-.35.525-.35.262 0 .393.146.393.437 0 .233-.044.569-.131 1.006l-1.225 14.606c0 .467-.335.846-1.005 1.137-1.604.817-3.973 1.516-7.107 2.1-3.134.583-6.013.874-8.637.874-6.385 0-12.12-1.429-17.208-4.286-5.088-2.857-9.06-6.829-11.917-11.916-2.857-5.088-4.286-10.824-4.286-17.209zM332.867 104.32l33.236-67.171h19.154l16.312 67.171h-17.93l-2.93-12.288h-23.396l-5.641 12.288zm30.743-25.714h13.688l-2.492-11.72c-.146-.7-.3-1.392-.46-2.077-.16-.685-.284-1.217-.371-1.596a32.47 32.47 0 0 1-.175-.788c-.35-2.099-.642-3.979-.875-5.64-.116.349-.27.779-.459 1.29-.19.51-.313.852-.372 1.027a46.13 46.13 0 0 1-2.23 5.641zM409.29 104.32l8.221-67.171h21.866c7.959 0 13.9 1.69 17.82 5.072 3.922 3.382 5.882 8.499 5.882 15.35 0 3.557-.473 6.604-1.42 9.14-.949 2.537-2.443 4.767-4.483 6.691-1.05 1.02-2.143 1.859-3.28 2.515-1.137.656-2.814 1.436-5.03 2.34l16.487 26.063h-19.81l-16.05-26.588-3.192 26.588zm21.384-37.434h3.061c3.586 0 6.495-.78 8.725-2.34 2.23-1.56 3.345-3.622 3.345-6.188 0-2.186-.845-3.862-2.536-5.029-1.691-1.166-4.096-1.749-7.216-1.749h-3.236zM473.828 51.93l1.793-14.781h45.612l-1.793 14.78h-14.169l-6.428 52.391H481.83l6.516-52.39zM521.421 104.32l8.222-67.171h36.822l-1.793 14.78h-19.81l-1.444 11.546h19.111l-1.793 14.781h-19.198l-1.312 11.283h20.598l-1.88 14.781z" style="-inkscape-font-specification:CanalBoldItalique Oblique"/>
    </g>
</svg>
