<svg Googl="true" version="1.1" viewBox="0 0 800 387.95" xml:space="preserve" xmlns="http://www.w3.org/2000/svg"><defs><clipPath id="a"><path d="M 0,181.506 H 374.29 V 0 H 0 Z"/></clipPath></defs><g transform="matrix(1.3333 0 0 -1.3333 0 242.01)"><g transform="matrix(1.603 0 0 1.603 0 -109.45)" fill="#fff"><g clip-path="url(#a)" fill="#fff"><g transform="translate(350.17 60.696)"><path d="m0 0c14.404 0 24.116 6.765 24.116 19.751v0.218c0 11.458-9.276 15.494-20.952 18.769-6.22 1.855-9.603 2.946-9.603 5.238v0.217c0 1.638 1.637 2.838 4.802 2.838 4.692 0 11.349-2.073 17.459-5.456l7.093 13.093c-6.765 4.367-15.713 6.875-24.334 6.875-13.641 0-23.68-6.982-23.68-19.531v-0.22c0-11.895 9.276-15.821 20.953-18.877 6.219-1.746 9.493-2.728 9.493-5.019v-0.219c0-2.073-1.637-3.164-5.238-3.164-6.111 0-13.531 2.291-20.296 6.764l-7.75-12.548c8.185-5.892 18.006-8.729 27.937-8.729" fill="#fff"/></g><g transform="translate(295.39 83.393)"><path d="m0 0c0-5.894-4.256-9.713-10.257-9.713-4.256 0-7.311 2.401-7.311 6.44v0.217c0 4.367 3.491 7.312 9.493 7.312 3.054 0 6.002-0.654 8.075-1.527zm13.859 31.317c-4.693 4.694-11.895 7.204-22.48 7.204-10.148 0-17.241-1.856-23.897-4.583l4.255-14.624c5.239 2.074 10.04 3.274 16.26 3.274 7.966 0 11.785-3.491 11.785-9.603v-0.982c-3.383 1.201-8.73 2.291-14.185 2.291-13.86 0-23.135-6.328-23.135-18.551v-0.218c0-11.785 8.621-18.221 19.86-18.221 7.748 0 13.313 2.945 17.351 7.42v-6.113h20.515v33.938c0 8.294-1.855 14.404-6.329 18.768" fill="#fff"/></g><g transform="translate(216.06 61.569)"><path d="m0 0h18.878l23.571 59.471h-21.497l-11.348-34.484-11.35 34.484h-21.823z" fill="#fff"/></g><g transform="translate(131.06 62.005)"><path d="m0 0h20.733v31.973c0 6.438 3.711 9.929 8.73 9.929 4.911 0 8.293-3.491 8.293-9.929v-31.973h20.734v38.628c0 13.424-7.53 21.717-20.079 21.717-8.402 0-13.858-4.693-17.678-9.603v8.293h-20.733z" fill="#fff"/></g><g transform="translate(99.744 83.393)"><path d="m0 0c0-5.894-4.256-9.713-10.258-9.713-4.255 0-7.311 2.401-7.311 6.44v0.217c0 4.367 3.492 7.312 9.494 7.312 3.055 0 6.002-0.654 8.075-1.527zm13.858 31.317c-4.692 4.694-11.894 7.204-22.479 7.204-10.148 0-17.241-1.856-23.898-4.583l4.256-14.624c5.238 2.074 10.039 3.274 16.259 3.274 7.966 0 11.786-3.491 11.786-9.603v-0.982c-3.383 1.201-8.73 2.291-14.186 2.291-13.859 0-23.134-6.328-23.134-18.551v-0.218c0-11.785 8.62-18.221 19.86-18.221 7.748 0 13.313 2.945 17.351 7.42v-6.113h20.515v33.938c0 8.294-1.855 14.404-6.33 18.768" fill="#fff"/></g><g transform="translate(30.998 60.586)"><path d="m0 0c12.986 0 20.843 5.457 26.299 13.531l-13.859 10.039c-3.273-3.818-6.438-6.11-11.349-6.11-6.983 0-11.785 5.783-11.785 13.422v0.218c0 7.203 4.911 13.095 11.567 13.095 5.02 0 8.184-2.291 11.022-6.22l14.076 10.476c-5.019 7.966-13.094 13.204-25.207 13.204-18.66 0-31.645-14.077-31.645-30.773v-0.218c0-16.696 13.094-30.664 30.881-30.664" fill="#fff"/></g><path d="m0 0h374.14v45.418h-374.14z"/><path d="m0 136.13h374.14v45.379h-374.14z"/></g></g></g></svg>
