<svg width="800mm" height="138.15mm" version="1.1" viewBox="0 0 800 138.15" xmlns="http://www.w3.org/2000/svg">
 <g transform="translate(61.648 -119.59)" stroke-width=".26458">
  <g fill="#1d1d1b">
   <path d="m175.54 231.73c-11.759 0-21.86-1.8222-30.146-5.6318-7.619-3.1492-14.076-8.6159-18.552-15.403-4.1397-6.6222-6.4571-14.241-6.2921-22.032-0.16508-7.7841 2.1524-15.403 6.4571-21.86 4.8064-6.7937 11.263-12.089 18.883-15.403 9.2762-3.9746 19.378-5.9619 29.651-5.6317 8.781-0.1651 17.721 1.1619 26.171 3.9746 6.6222 2.1524 12.59 5.9619 17.556 10.768 4.1397 4.3048 6.9587 9.9365 7.7841 15.733h-23.683c-1.4921-4.3048-4.9714-7.619-9.2762-9.1111-5.4667-1.9873-11.098-2.8127-16.895-2.6476h-2.9841c-5.9619-0.1651-11.924 0.99681-17.225 3.3143-4.1397 1.9873-7.7841 4.9714-10.267 8.946-4.4698 7.2889-4.4698 16.565 0 23.854 2.4825 3.9746 6.127 6.9587 10.267 8.946 5.4667 2.4825 11.429 3.6444 17.225 3.3143h2.9841c5.9619 0.1651 12.089-0.99681 17.556-3.3143 4.8064-2.1524 7.619-4.9714 8.4444-8.4444h23.517c-0.99683 5.4667-3.4794 10.603-6.9587 14.908-4.4698 5.1365-10.102 8.946-16.565 11.429-7.454 2.8127-16.565 4.3048-27.663 4.3048"/>
   <path d="m274.59 231.73c-13.746 0-23.517-2.4825-29.651-7.454-5.7968-4.6349-9.2762-11.759-8.946-19.048-0.33016-7.2889 3.1492-14.241 8.946-18.552 5.9619-4.4698 15.568-7.1238 28.819-7.9492l38.26-2.3175v-0.99682c0-3.9746-2.1524-6.9587-6.4572-8.946-4.3048-1.9873-10.267-2.9841-18.051-2.9841h-2.9841c-5.3016-0.1651-10.603 0.6603-15.568 2.6476-3.9746 1.8222-6.2921 3.9746-6.7936 6.6222h-22.692c0.33016-5.3016 2.6476-10.267 6.4572-13.911 4.6349-4.4698 10.267-7.7841 16.4-9.7714 7.7841-2.4825 15.898-3.8095 24.019-3.6444 15.238 0 26.997 2.8127 35.448 8.1143 8.2794 5.4667 12.59 13.581 12.59 24.514v33.625c0 2.4825 0.1651 5.3016 0.33015 8.7809 0.1651 3.1492 0.82541 6.2921 1.4921 9.4413h-22.362c-0.49524-1.9873-0.8254-3.8095-0.99683-5.7968-0.16507-1.6571-0.33016-3.4793-0.33016-5.1365-2.3175 2.1524-4.9714 4.1397-7.7841 5.7968-3.9746 2.1524-8.1143 3.8095-12.59 4.9714-5.6317 1.327-11.594 1.9873-17.556 1.9873m2.8127-18.051h2.9841c4.3048 0 8.6159-0.33018 12.921-1.1619 3.4794-0.66033 6.7936-1.6571 10.102-3.3143 2.4825-1.1619 4.8064-2.9841 6.4572-5.3016 1.4921-2.1524 2.3175-4.6349 2.3175-7.2889v-2.8127l-37.6 2.3175c-3.1492 0-6.4572 0.66033-9.6064 1.4921-1.8222 0.49525-3.4794 1.4921-4.8064 2.9842-0.99683 1.1619-1.4921 2.4825-1.4921 3.8095 0 1.6571 0.66032 3.3143 1.8222 4.4698 1.6571 1.6571 3.6444 2.8127 5.9619 3.3143 3.4794 1.1619 7.1238 1.4921 10.933 1.4921"/>
   <path d="m354.09 230.07v-82.813h22.362v15.403c1.327-2.9841 3.1492-5.6317 5.3016-7.7841 2.4825-2.4825 5.4667-4.3048 8.6159-5.6317 3.8095-1.4921 7.7841-2.1524 11.924-1.9873h19.708v20.044h-24.349c-8.1143 0-13.746 1.6571-16.73 4.8063-2.9841 3.1492-4.4698 8.4444-4.4698 15.568v42.4h-22.362z"/>
   <path d="m464.23 231.73c-13.746 0-23.517-2.4825-29.651-7.454-5.7968-4.6349-9.2762-11.759-9.1111-19.048-0.33015-7.2889 3.1492-14.241 9.1111-18.552 5.9619-4.4698 15.568-7.1238 28.819-7.9492l38.26-2.3175v-0.99682c0-3.9746-2.1524-6.9587-6.6222-8.946-4.3048-1.9873-10.267-2.9841-18.051-2.9841h-2.9841c-5.3016-0.1651-10.603 0.6603-15.568 2.6476-3.9746 1.8222-6.2921 3.9746-6.7937 6.6222h-22.692c0.33015-5.3016 2.6476-10.267 6.6222-13.911 4.6349-4.4698 10.267-7.7841 16.565-9.7714 7.7841-2.4825 15.898-3.8095 24.019-3.6444 15.238 0 26.997 2.8127 35.283 8.1143 8.2794 5.4667 12.425 13.581 12.59 24.514v33.625c0 2.4825 0.1651 5.3016 0.33015 8.7809 0.1651 3.1492 0.8254 6.2921 1.4921 9.4413h-22.362c-0.49525-1.9873-0.8254-3.8095-0.99684-5.7968-0.1651-1.6571-0.33015-3.4793-0.33015-5.1365-2.3175 2.1524-4.9714 4.1397-7.7841 5.7968-3.9746 2.1524-8.1143 3.8095-12.425 4.9714-5.7968 1.327-11.759 1.9873-17.721 1.9873m2.8127-18.051h2.9841c4.3048 0 8.6159-0.33018 12.921-1.1619 3.4794-0.66033 6.7936-1.6571 9.9365-3.3143 2.4825-1.1619 4.8063-2.9841 6.4571-5.3016 1.4921-2.1524 2.3175-4.6349 2.3175-7.2889v-2.8127l-37.6 2.3175c-3.1492 0-6.4571 0.66033-9.6063 1.4921-1.8222 0.49525-3.4794 1.4921-4.8064 2.9842-0.99681 1.1619-1.4921 2.4825-1.4921 3.8095 0 1.6571 0.66032 3.3143 1.6571 4.4698 1.6572 1.6571 3.6444 2.8127 5.7968 3.3143 3.8095 1.1619 7.619 1.4921 11.429 1.4921"/>
   <path d="m593.59 231.73c-11.759 0-21.86-1.8222-29.981-5.6318-7.619-3.1492-14.076-8.6159-18.552-15.403-4.1397-6.6222-6.4571-14.241-6.2921-22.032-0.1651-7.7841 2.1524-15.403 6.6222-21.86 4.8064-6.7937 11.264-12.089 18.883-15.403 9.2762-3.9746 19.378-5.9619 29.651-5.6317 8.781-0.1651 17.721 1.1619 26.171 3.9746 6.6222 2.1524 12.59 5.9619 17.39 10.768 4.1397 4.3048 6.9587 9.9365 7.7841 15.733h-23.517c-1.4921-4.3048-4.9714-7.619-9.2762-9.1111-5.4667-1.9873-11.098-2.8127-16.895-2.6476h-2.9842c-5.9619-0.1651-11.924 0.99681-17.225 3.3143-4.1397 1.9873-7.7841 4.9714-10.267 8.946-4.4698 7.2889-4.4698 16.565 0 23.854 2.4825 3.9746 6.127 6.9587 10.267 8.946 5.4667 2.4825 11.429 3.6444 17.225 3.3143h2.9842c5.9619 0.1651 11.924-0.99681 17.556-3.3143 4.8064-2.1524 7.619-4.9714 8.4444-8.4444h23.517c-0.99684 5.4667-3.4794 10.603-6.9587 14.908-4.4698 5.1365-10.102 8.946-16.565 11.429-7.7841 2.8127-16.895 4.3048-27.994 4.3048"/>
   <path d="m656.53 230.07v-19.873l45.879-25.505c2.8127-1.6571 4.9714-2.9841 6.6222-4.1397 1.327-0.8254 2.6476-1.9873 3.6444-3.3143 0.8254-1.1619 1.327-2.4825 1.327-3.9746-0.1651-2.4825-1.4921-4.8063-3.8095-5.9619-2.4825-1.6572-6.7936-2.4825-12.921-2.4825h-0.8254c-3.3143 0-6.4571 0.33015-9.6064 1.1619-2.1524 0.49525-3.9746 1.4921-5.6317 2.9842-1.1619 1.327-1.8222 2.8127-1.9873 4.6349h-23.022c0.33018-5.3016 2.4825-10.432 5.9619-14.578 3.9746-4.4698 9.1111-7.619 14.743-9.6064 6.9588-2.3174 14.241-3.4794 21.53-3.3143 9.6064 0 17.39 1.327 23.187 3.8095 4.9714 1.9873 9.4413 5.3016 12.756 9.6064 2.4825 3.3143 3.8095 7.454 3.9746 11.594 0 3.3143-0.8254 6.6222-2.1524 9.6063-1.8222 3.4794-4.3048 6.6222-7.2889 8.946-4.3048 3.4794-8.7809 6.4571-13.746 8.946l-23.854 12.425h46.54v18.552h-81.327v0.49525z"/>
  </g>
  <g fill="#1733cf">
   <path d="m-6.4924 147.26c0 15.238-12.425 27.663-27.663 27.663-15.238 0-27.492-12.425-27.492-27.663 0-15.238 12.425-27.664 27.663-27.664 15.238 0 27.492 12.425 27.492 27.664"/>
   <path d="m-6.4924 230.07c0 15.238-12.425 27.663-27.663 27.663-15.238 0-27.492-12.425-27.492-27.663 0-15.238 12.425-27.664 27.663-27.664 15.238 0 27.492 12.425 27.492 27.664"/>
   <path d="m65.228 188.66c0 15.238-12.425 27.664-27.663 27.664-15.238 0-27.663-12.425-27.663-27.664 0-15.238 12.59-27.664 27.829-27.664s27.492 12.425 27.492 27.664"/>
  </g>
 </g>
</svg>
