<svg width="800mm" height="136.87mm" version="1.1" viewBox="0 0 800 136.87" xmlns="http://www.w3.org/2000/svg">
 <g transform="translate(61.912 -119.86)">
  <path d="m173.34 230.99c-11.717 0-21.656-1.8588-29.824-5.5826-7.5275-3.1846-13.951-8.4881-18.489-15.276-4.1763-6.5024-6.3406-14.109-6.2454-21.842-0.11425-7.7522 2.1516-15.339 6.493-21.759 4.7158-6.7181 11.19-12.003 18.73-15.276 9.2539-3.9903 19.257-5.9315 29.329-5.665 8.7906-0.17767 17.549 1.1482 25.883 3.9395 6.5374 2.1696 12.491 5.849 17.334 10.759 4.1382 4.2884 6.8547 9.7695 7.7243 15.682h-23.332c-1.5106-4.2567-4.9126-7.5555-9.2031-8.9512-5.3759-1.9222-11.056-2.842-16.762-2.7088h-2.9577c-5.8963-0.19661-11.78 0.95157-17.169 3.3686-4.1573 1.9032-7.6925 4.9609-10.187 8.7862-4.4873 7.213-4.4873 16.361 0 23.567 2.4817 3.8761 6.0169 6.9465 10.187 8.8687 5.3886 2.417 11.272 3.5652 17.169 3.3686h2.9577c5.9789 0.16496 11.913-0.95158 17.416-3.2861 4.8174-2.1823 7.61-4.9736 8.378-8.3739h23.332c-0.97108 5.4557-3.3829 10.563-6.9817 14.781-4.4556 5.056-10.104 8.9321-16.432 11.248-7.1784 2.9055-16.299 4.3519-27.362 4.3519" fill="#fff" stroke-width=".26458" data-name="Tracé 549"/>
  <path d="m271.6 230.99c-13.589 0-23.363-2.4297-29.329-7.3081-5.8138-4.5485-9.1333-11.578-8.9556-18.968-0.27927-7.2256 3.091-14.09 8.9556-18.315 5.9662-4.4344 15.48-7.029 28.511-7.8029l37.955-2.2965v-0.98329c0-3.9395-2.1707-6.8958-6.493-8.8687-4.3223-1.973-10.269-2.9562-17.829-2.9562h-2.9577c-5.2743-0.19661-10.549 0.72319-15.449 2.7088-3.9415 1.808-6.1946 3.9776-6.7342 6.4898h-22.513c0.38082-5.24 2.6784-10.169 6.493-13.798 4.6333-4.4344 10.238-7.7522 16.35-9.6871 7.6926-2.5312 15.741-3.7429 23.827-3.616 15.119 0 26.816 2.7088 35.08 8.1328 8.2638 5.4177 12.408 13.5 12.408 24.227v33.343c0 2.417 0.13337 5.3035 0.41255 8.7038 0.22861 3.1719 0.75528 6.2931 1.5614 9.3635h-22.183c-0.44429-1.8904-0.77433-3.8126-0.98378-5.7475-0.19677-1.6938-0.31102-3.3813-0.33006-5.0941-2.3357 2.2013-4.9126 4.1045-7.7243 5.665-3.897 2.1696-8.067 3.7936-12.408 4.8467-5.7821 1.4147-11.717 2.0681-17.664 1.973m2.7927-17.902h2.9577c4.2906 0.0317 8.5938-0.32987 12.815-1.0658 3.4528-0.58997 6.804-1.6557 9.9394-3.2036 2.5324-1.199 4.7348-3.007 6.4104-5.2527 1.4979-2.1188 2.2659-4.65 2.2214-7.2257v-2.7913l-37.301 2.2965c-3.2052 0.0825-6.3787 0.57729-9.4506 1.4781-1.8216 0.50749-3.4655 1.4971-4.7666 2.8738-0.90126 1.0848-1.3963 2.4487-1.3963 3.8571 0.0317 1.6431 0.64104 3.2036 1.7264 4.4343 1.5614 1.6748 3.5987 2.8421 5.8329 3.3686 3.5987 0.91986 7.2927 1.3449 11.012 1.2307" fill="#fff" stroke-width=".26458" data-name="Tracé 550"/>
  <path d="m350.48 229.35v-82.121h22.183v15.276c1.2504-2.9055 3.0592-5.5318 5.3378-7.7205 2.4817-2.379 5.4203-4.2567 8.6255-5.5001 3.7764-1.4464 7.7878-2.1379 11.831-2.0554h19.39v19.875h-24.157c-8.0988 0-13.64 1.5923-16.597 4.7642-2.9577 3.1719-4.4365 8.3295-4.4365 15.441v42.047h-22.183z" fill="#fff" stroke-width=".26458" data-name="Tracé 551"/>
  <path d="m459.73 230.99c-13.589 0-23.363-2.4297-29.329-7.3081-5.8138-4.5485-9.1333-11.578-8.9556-18.968-0.27928-7.2256 3.091-14.09 8.9556-18.315 5.9662-4.4344 15.48-7.029 28.511-7.8029l37.955-2.2965v-0.98329c0-3.9395-2.1707-6.8958-6.493-8.8687-4.3223-1.973-10.269-2.9562-17.829-2.9562h-2.9577c-5.2744-0.19661-10.549 0.72319-15.449 2.7088-3.9415 1.808-6.1947 3.9776-6.7342 6.4898h-22.513c0.38082-5.24 2.6784-10.169 6.493-13.798 4.6333-4.4344 10.238-7.7522 16.35-9.6871 7.6925-2.5312 15.741-3.7429 23.827-3.616 15.119 0 26.816 2.7088 35.08 8.1328 8.2638 5.424 12.408 13.5 12.408 24.227v33.343c0 2.417 0.13337 5.3035 0.41253 8.7038 0.22837 3.1529 0.7553 6.2931 1.5614 9.3635h-22.183c-0.44429-1.8904-0.77433-3.8126-0.98377-5.7475-0.19671-1.6938-0.31101-3.3813-0.33006-5.0941-2.3357 2.2013-4.9126 4.1045-7.7243 5.665-3.8971 2.1696-8.067 3.7936-12.408 4.8467-5.7821 1.4147-11.717 2.0681-17.664 1.973m2.7926-17.902h2.9577c4.2906 0.0317 8.5938-0.32987 12.815-1.0658 3.4528-0.58997 6.804-1.6557 9.9394-3.2036 2.5324-1.199 4.7349-3.007 6.4105-5.2527 1.4979-2.1188 2.2659-4.65 2.2214-7.2257v-2.7913l-37.301 2.2965c-3.2052 0.0825-6.3787 0.57729-9.4507 1.4781-1.8216 0.50749-3.4655 1.4971-4.7666 2.8738-0.90127 1.0848-1.3963 2.4487-1.3963 3.8571 0.0317 1.6431 0.64102 3.2036 1.7264 4.4343 1.5614 1.6748 3.5987 2.8421 5.8329 3.3686 3.5988 0.91986 7.2927 1.3449 11.012 1.2307" fill="#fff" stroke-width=".26458" data-name="Tracé 552"/>
  <path d="m588.06 230.99c-11.717 0-21.656-1.8588-29.824-5.5826-7.5275-3.1846-13.951-8.4881-18.489-15.276-4.1763-6.5024-6.3597-14.109-6.2454-21.842-0.11419-7.7522 2.1516-15.339 6.493-21.759 4.7158-6.7181 11.19-12.003 18.73-15.276 9.2539-3.9903 19.257-5.9315 29.329-5.665 8.7906-0.17767 17.549 1.1482 25.883 3.9395 6.5374 2.1696 12.491 5.849 17.334 10.759 4.1382 4.3012 6.8547 9.7695 7.7243 15.682h-23.331c-1.5106-4.2567-4.9126-7.5555-9.2031-8.9512-5.3759-1.9222-11.056-2.842-16.762-2.7088h-2.9577c-5.8963-0.19661-11.78 0.95157-17.169 3.3686-4.1573 1.9032-7.6925 4.9609-10.187 8.7862-4.4873 7.213-4.4873 16.361 0 23.567 2.4626 3.8761 6.0169 6.9465 10.187 8.8687 5.3886 2.417 11.272 3.5652 17.169 3.3686h2.9577c5.9788 0.16496 11.913-0.95158 17.416-3.2861 4.8174-2.1823 7.61-4.9736 8.378-8.3739h23.332c-0.9711 5.4557-3.3829 10.563-6.9817 14.781-4.4556 5.0751-10.104 8.9321-16.432 11.248-7.1784 2.9055-16.299 4.3519-27.362 4.3519" fill="#fff" stroke-width=".26458" data-name="Tracé 553"/>
  <path d="m-7.1444 147.24c0 15.111-12.256 27.38-27.394 27.38s-27.375-12.269-27.375-27.38 12.256-27.38 27.394-27.38 27.394 12.25 27.394 27.38" fill="#febc2e" stroke-width=".26458" data-name="Tracé 555"/>
  <path d="m-7.1444 229.35c0 15.111-12.256 27.38-27.394 27.38s-27.375-12.269-27.375-27.38 12.256-27.38 27.394-27.38 27.394 12.25 27.394 27.38" fill="#febc2e" stroke-width=".26458" data-name="Tracé 556"/>
  <path d="m64.018 188.29c0 15.111-12.256 27.38-27.394 27.38s-27.394-12.25-27.394-27.38 12.256-27.38 27.394-27.38 27.394 12.25 27.394 27.38" fill="#febc2e" stroke-width=".26458" data-name="Tracé 557"/>
  <path d="m720.85 197.95h16.959v12.992h-16.959v15.523h-15.461v-15.523h-56.247v-14.864l53.6-46.678h18.089v48.55zm-54.178 0h38.71v-33.686z" fill="#fff" stroke="#1d1d1b" stroke-miterlimit="10" stroke-width=".56356px"/>
 </g>
</svg>
