<svg viewBox="0 0 100 100.77" xmlns="http://www.w3.org/2000/svg">
    <path d="M36.761 70.725c-.454-1.133.762-1.77 1.588-2.018a2.52 2.52 0 0 1 .741-.123c.99 0 1.462.744 1.649 1.73l.04-.02c.598-1.11 1.65-1.854 2.639-1.854.865 0 1.73.556 1.73 1.628 0 .762-.535 1.548-1.421 1.548-.701 0-1.298-.494-1.36-1.197-.619.125-1.567.801-1.567 3.382v2.89c0 .952.144 1.35.475 1.63.309.237.886.335 1.091.376.475 1.033-.31 1.354-2.596 1.354s-3.216-.321-2.74-1.354c.205-.04.535-.139.842-.375.331-.28.454-.68.454-1.631v-4.793c0-1.007-.411-1.395-1.565-1.173zm-7.81 1.173v4.793c0 .952-.124 1.35-.454 1.63a2.057 2.057 0 0 1-.845.376c-.474 1.033.454 1.354 2.741 1.354 2.288 0 3.07-.321 2.597-1.354-.205-.04-.783-.139-1.092-.375-.33-.28-.474-.68-.474-1.631V73.8c0-2.58.949-3.257 1.566-3.382.061.703.66 1.197 1.36 1.197.886 0 1.422-.786 1.422-1.548 0-1.072-.865-1.629-1.732-1.629-.989 0-2.04.745-2.637 1.855l-.041.02c-.185-.986-.66-1.73-1.65-1.73-.225 0-.473.04-.74.123-.825.248-2.041.885-1.588 2.018 1.155-.222 1.567.166 1.567 1.173zm59.997 5.009c0-.217.02-.904.02-2.207 0-3.084.04-3.83.04-4.239 0-1.113-.459-1.857-1.65-1.857-.23 0-.48.042-.745.083-.847.165-2.35.884-1.897 2.018 1.09-.12 1.567.27 1.567 1.278v2.93c0 1.537-.517 3.226-2.41 3.226-1.733 0-2.104-1.37-2.104-4.055l.02-3.623c0-1.113-.453-1.857-1.649-1.857-.227 0-.472.042-.74.083-.844.165-2.349.884-1.896 2.018 1.091-.12 1.566.27 1.566 1.278v2.121c0 2.207 0 3.72.989 4.892.638.754 1.647 1.212 2.845 1.212a4.053 4.053 0 0 0 2.803-1.114c.308-.295.455-.457.615-.654.227 1.054.459 1.787 1.592 1.787.196 0 .433-.038.695-.079.852-.156 2.346-.693 1.898-1.827-1.09.119-1.56-.398-1.56-1.414zm-77.08-2.992c-.905 0-1.668.616-1.668 1.672 0 .675.37 1.051.64 1.35-.476.915-1.485 1.669-3.05 1.669-2.598 0-4.473-2.705-4.473-6.593 0-3.893 1.792-6.614 4.39-6.614 1.566 0 2.574.761 3.05 1.669-.269.309-.639.68-.639 1.36 0 1.05.762 1.668 1.668 1.668.887 0 1.567-.8 1.567-1.895 0-2.04-2.453-4.512-5.956-4.512C3.503 63.689 0 67.068 0 72.035c0 5.2 3.584 8.28 7.48 8.28 3.504 0 5.955-2.463 5.955-4.513 0-1.093-.68-1.887-1.566-1.887zm10.384-.307v-1.48c0-1.32-.577-2.162-2.08-2.162-.31 0-.99.083-1.526.285.062.21.103.433.103.64 0 .808-.514 1.464-1.38 1.464-.763 0-1.341-.617-1.341-1.402 0-1.442 1.815-2.492 4.329-2.492 1.998 0 3.216.473 3.854 1.297.577.723.617 1.837.617 3.444v4.183c0 .889.577 1.173 1.588 1.312-.062 1.032-.785 1.432-1.628 1.511-.949.08-1.876-.359-2.248-1.35-.432.394-1.71 1.39-3.379 1.39-2.287 0-3.998-1.532-3.998-3.62 0-2.206 1.917-3.513 4.617-3.513.928 0 1.895.193 2.472.493zm-1.978.914c-1.298 0-2.246.656-2.246 1.907 0 1.173.824 1.992 2.06 1.992.825 0 1.65-.459 2.164-1.114v-1.671c0-.556-.721-1.114-1.978-1.114zm44.699-.208c0-3.484 2.741-5.853 5.832-5.853 3.338 0 5.75 2.369 5.75 5.853 0 3.49-2.515 5.894-5.852 5.894-3.154 0-5.73-2.364-5.73-5.894zm3.009-.33c0 3.177 1.401 4.633 2.845 4.633 1.627 0 2.78-1.456 2.78-4.133 0-2.804-1.236-4.518-2.904-4.518-1.691 0-2.72 1.545-2.72 4.018zm-16.838 6.243c-3.09 0-5.605-2.462-5.605-5.685 0-3.546 2.33-6.081 5.77-6.081 3.133 0 4.576 2.305 4.576 4.268 0 .58-.124 1.115-.372 1.563h-7.192c.062 2.197 1.464 3.787 3.874 3.787 1.464 0 2.577-.793 2.967-1.29.187.138.372.347.372.833 0 1.094-1.318 2.605-4.39 2.605zm-2.803-7.355h4.35c.494 0 .515-.292.515-.678a2.264 2.264 0 0 0-2.31-2.228c-1.791 0-2.492 1.503-2.555 2.905zm17.064-5.813c.949 0 1.402-.804 1.402-1.464 0-1.524-1.751-2.533-3.916-2.533-1.71 0-2.8.679-3.44 1.668-.412.619-.721 1.545-.721 3.216v.824h-.867c-.7 0-1.175.6-.824 1.44l1.73.062v6.418c0 .953-.122 1.351-.453 1.631a2.057 2.057 0 0 1-.844.376c-.474 1.032.474 1.353 2.761 1.353s3.401-.32 2.928-1.353c-.207-.041-.928-.139-1.238-.376-.33-.28-.494-.678-.494-1.63v-6.377c.37 0 .906.042 1.442.042.206 0 .433 0 .64-.02.66-.064 1.133-.744.783-1.588h-2.948v-1.937c0-1.318.309-2.37 1.73-2.37.496 0 1.011.144 1.259.434a1.437 1.437 0 0 0-.288.845c0 .742.658 1.339 1.359 1.339zm32.865 1.38c-.986 0-2.025.745-2.621 1.855l-.061.02c-.18-.986-.657-1.73-1.629-1.73-.242 0-.477.04-.759.123-.813.248-2.024.885-1.583 2.018 1.157-.222 1.563.166 1.563 1.173v4.792c0 .952-.117 1.351-.457 1.631a2.01 2.01 0 0 1-.834.376c-.478 1.032.458 1.353 2.745 1.353s3.06-.32 2.582-1.353c-.197-.041-.774-.139-1.095-.376-.313-.28-.452-.679-.452-1.63V73.8c0-2.581.93-3.257 1.547-3.382.068.703.67 1.197 1.376 1.197.873 0 1.408-.787 1.408-1.548 0-1.072-.853-1.629-1.73-1.629zM50.466 53.032c5.138 0 9.517-3.009 9.532-5.48.003-.544-.205-1.06-.66-1.515-2.436-2.352-3.389-4.703-3.395-6.777-.017-3.963 3.421-6.911 6.588-6.911 4.356 0 6.925 3.421 6.925 7.853 0 4.201-1.79 7.7-3.736 10.501a.639.639 0 0 0-.112.354c.001.22.13.4.324.4.118 0 .256-.063.407-.214l21.87-21.146C89.303 29.164 90 28.07 90 26.52c0-1.557-.698-2.647-1.79-3.573L66.339 1.792c-.151-.15-.289-.214-.407-.214-.196 0-.322.182-.324.403a.65.65 0 0 0 .112.355c1.945 2.797 3.736 6.3 3.736 10.497 0 4.43-2.569 7.856-6.925 7.856-3.167 0-6.605-2.948-6.588-6.91.007-2.075.959-4.429 3.395-6.78.455-.454.663-.968.66-1.511C59.983 3.011 55.604 0 50.465 0c-8.56 0-11.908 12.134-11.908 26.596 0 14.467 3.347 26.437 11.908 26.437zm-4.029 35.493c.646 1.327.633 3.169-.032 4.82-.688 1.704-1.954 2.907-3.581 3.401-.413.125-.563.143-1.243.146-.911.004-1.228-.064-1.947-.417a3.546 3.546 0 0 1-1.423-1.25c-.14-.217-.257-.377-.257-.356s-.155.761-.345 1.646c-.879 4.09-.838 3.946-1.164 4.145-.21.128-.976.144-1.247.027a.637.637 0 0 1-.366-.485c-.033-.17-.028-.2 2.303-11.197.28-1.32.52-2.412.533-2.425.014-.014.193-.035.399-.047.873-.049 1.316.421 1.264 1.34l-.02.366.226-.257c.125-.142.228-.274.229-.295 0-.02.176-.184.388-.364.47-.396 1.19-.756 1.767-.88.551-.12 1.665-.084 2.14.069 1.087.35 1.903 1.042 2.376 2.014zm-1.722 1.346c-.497-1.515-1.91-2.172-3.522-1.636-.714.237-1.51.845-1.983 1.513-.212.3-.243.39-.43 1.256-.11.514-.212 1.126-.226 1.362-.076 1.31.739 2.43 2.014 2.767.386.102 1.115.103 1.541.002 1.078-.254 1.988-1.154 2.45-2.425.332-.908.397-2.102.156-2.84zm21.24-.732c0 2.25-1.784 3.249-5.81 3.251-.483.001-1.212-.025-1.621-.057-.612-.048-.752-.046-.793.013-.069.1-.009.869.096 1.22.125.422.265.672.544.97.481.515 1.024.732 1.934.774.822.038 1.347-.065 2.022-.395.417-.204.583-.325.95-.692.49-.49.555-.513.89-.324.308.175.455.42.455.76 0 .38-.116.628-.45.963-.607.606-1.412 1.007-2.404 1.196-.423.081-1.89.114-2.288.05a5.857 5.857 0 0 1-1.577-.487c-.614-.296-1.324-.995-1.614-1.59-.281-.577-.415-1.108-.451-1.792-.133-2.499 1.208-4.867 3.37-5.955.561-.282 1.224-.5 1.833-.601.735-.123 2.037-.086 2.62.074 1.462.401 2.294 1.353 2.294 2.622zm-2.8-1.074c-.287-.114-.4-.127-1.094-.126-.726.002-.801.012-1.24.167-1.107.392-1.968 1.16-2.551 2.276-.12.23-.21.425-.2.435.01.01.246.043.525.073.722.077 2.69.035 3.28-.07 1.387-.246 2.058-.692 2.184-1.45.087-.526-.28-1.055-.904-1.305zm9.663-1.555c-.37-.098-.584-.116-1.423-.117-1.15-.002-1.442.054-2.233.433-1.078.518-1.716 1.5-1.712 2.64.003.756.214 1.28.717 1.775.42.412 1.068.753 2.348 1.231 1.087.407 1.301.506 1.594.736.252.199.353.424.353.791 0 .937-1.017 1.483-2.463 1.324-.995-.109-1.79-.477-2.47-1.142-.243-.236-.477-.486-.522-.554l-.081-.124-.206.106c-.54.277-.752.88-.501 1.432.375.827 1.694 1.564 3.23 1.806.938.147 2.157.06 2.95-.211.565-.194.95-.431 1.343-.828.59-.596.83-1.255.788-2.154-.023-.479-.044-.56-.234-.932-.375-.735-1.004-1.152-2.745-1.817-1.122-.429-1.523-.63-1.817-.914-.312-.3-.41-.6-.316-.96.118-.45.388-.728.929-.954.295-.123.395-.137.995-.134.564.004.73.025 1.075.139.782.258 1.423.707 1.866 1.306l.209.283.198-.08c.442-.18.752-.702.674-1.134-.145-.798-1.172-1.583-2.546-1.947zm-17.664.007c-.397-.179-1.174-.203-1.67-.053-.655.2-1.226.661-1.687 1.365l-.243.37v-.424c-.003-.636-.214-1.017-.657-1.18-.23-.085-.846-.087-.957-.004-.064.048-.203.605-.49 1.96l-.955 4.507a230.703 230.703 0 0 0-.592 2.833c-.06.37.126.686.478.81.284.099.822.076 1.075-.047.363-.175.435-.39.925-2.738.253-1.21.522-2.344.645-2.72.528-1.609 1.248-2.577 2.11-2.836.55-.166 1.215-.054 1.649.277.228.173.26.184.402.125.378-.156.685-.699.687-1.213.002-.509-.2-.799-.72-1.032zm-19.613.856a1.003 1.003 0 0 0-.13-.412c-.131-.18-.562-.475-.783-.537-.164-.047-.185-.03-.969.76-.44.444-1.36 1.381-2.042 2.082-.74.76-1.26 1.256-1.29 1.227-.049-.05-1.017-2.12-1.393-2.98-.333-.762-.629-1.004-1.226-1.004-.416 0-.73.129-1.005.413l-.18.185.656 1.296c.36.712.869 1.706 1.129 2.208.26.502.473.923.473.937 0 .014-.63.623-1.4 1.354-2.35 2.232-2.364 2.245-2.465 2.594a1.145 1.145 0 0 0-.051.5c.049.262.354.594.689.75.147.068.303.125.346.127.045 0 .945-.878 2.001-1.954l1.92-1.956.262.608c.775 1.803 1.315 2.626 1.951 2.976.336.185.364.191.91.191.535 0 .579-.008.822-.16.324-.202.554-.587.574-.962l.014-.262-.267-.035c-.98-.127-1.252-.409-2.205-2.28l-.541-1.062 1.975-1.884c2.195-2.095 2.276-2.194 2.225-2.72zM17.046 92.27v.45c0 1.064.474 1.906 1.298 2.31.72.351 1.96.393 2.826.094.637-.22.99-.447 1.461-.938.38-.398.411-.418.587-.39.21.034.506.241.642.449.121.184.115.672-.01.915-.138.264-.543.68-.903.924-.6.408-1.349.673-2.22.786-.459.059-1.5.06-1.894.002-.777-.115-1.57-.414-2.14-.806-.34-.233-.841-.812-1.049-1.21-.55-1.053-.65-2.45-.275-3.851.577-2.155 2.159-3.786 4.267-4.4.864-.25 2.164-.318 3.018-.156 1.668.316 2.602 1.274 2.605 2.673 0 .27-.026.618-.058.773-.372 1.784-2.425 2.592-6.288 2.477-.63-.018-1.309-.05-1.507-.068zm.38-1.454c.112.11 2.294.166 3.148.079 1.937-.197 2.89-.802 2.808-1.783-.061-.74-.817-1.199-1.98-1.2a4.06 4.06 0 0 0-2.376.77c-.334.247-.914.85-1.133 1.178-.208.31-.504.918-.467.956zm64.993-4.304c-.612-.16-2.158-.171-2.758-.02-1.715.432-2.7 1.642-2.6 3.195.031.488.13.784.4 1.197.378.578 1.096 1.008 2.65 1.586 1.33.494 1.693.698 1.875 1.052.127.244.106.704-.044.995-.282.549-.914.82-1.908.819-.945-.001-1.733-.25-2.474-.78-.323-.23-.784-.686-.942-.932-.074-.115-.096-.121-.213-.06-.455.235-.689.579-.689 1.014 0 .977 1.466 1.976 3.332 2.269.91.143 2.167.06 2.913-.193.866-.295 1.587-.88 1.9-1.543.343-.725.378-1.67.086-2.297-.2-.428-.416-.678-.85-.987-.4-.286-.971-.556-1.97-.93-1.772-.663-2.29-1.121-2.107-1.86.113-.454.381-.732.926-.96.294-.122.397-.136.995-.135.57.002.727.022 1.076.139.784.26 1.423.709 1.865 1.307l.21.283.198-.08c.442-.18.751-.702.673-1.134-.147-.809-1.16-1.583-2.543-1.945z" fill="#00351d" stroke-width="1.008"/>
    <path d="M34.28 2.445c.007-.224-.136-.408-.344-.408-.114 0-.25.057-.39.199L11.678 23.39c-1.092.927-1.79 2.016-1.79 3.573 0 1.553.698 2.645 1.79 3.578l21.866 21.146c.14.143.276.2.39.2.209 0 .352-.187.345-.41a.622.622 0 0 0-.192-.409c-5.133-6.377-8.867-13.69-8.867-24.029 0-10.346 3.734-17.804 8.867-24.185a.609.609 0 0 0 .192-.41z" fill="#32674c" stroke-width="1.008"/>
</svg>
