<svg width="600.01" height="482.97" version="1.1" viewBox="0 0 158.7527 127.78618" xmlns="http://www.w3.org/2000/svg">
 <g transform="translate(-69.547 -165.07)">
  <path d="m122.95 167.91c0.22679-0.22425 0.43919-0.31394 0.62112-0.31394 0.32918 0 0.56019 0.29109 0.54919 0.64819-0.0101 0.2107-0.10069 0.44341-0.30548 0.64819-8.1549 10.138-14.087 21.987-14.087 38.425 0 16.425 5.9319 28.048 14.087 38.181 0.20479 0.20479 0.29533 0.44088 0.30548 0.64989 0.011 0.35118-0.22001 0.64989-0.54919 0.64989-0.18193 0-0.39517-0.0906-0.62112-0.31817l-34.74-33.596c-1.7347-1.4868-2.8407-3.2198-2.8407-5.6857 0-2.4768 1.106-4.2056 2.8407-5.6797z" fill="#ea2127"/>
  <g fill="#045ba7">
   <path d="m149.66 165.07c-13.603 0-18.919 19.277-18.919 42.254 0 22.982 5.3176 42.004 18.919 42.004 8.1617 0 15.118-4.781 15.142-8.7092 2e-3 -0.85805-0.32747-1.684-1.0501-2.4024-3.8663-3.7377-5.3802-7.4745-5.3954-10.771-0.0212-6.2932 5.4403-10.983 10.471-10.983 6.9211 0 11.002 5.4403 11.002 12.484 0 6.6698-2.8492 12.234-5.9387 16.68-0.12101 0.18616-0.17517 0.38502-0.17517 0.56272 4e-3 0.35203 0.20563 0.63719 0.51365 0.63719 0.18871 0 0.40872-0.099 0.64651-0.34017l34.749-33.597c1.7347-1.4851 2.8432-3.2181 2.8432-5.684 0-2.4768-1.1085-4.2056-2.8432-5.6797l-34.749-33.61c-0.23779-0.23779-0.4578-0.33764-0.64651-0.33764-0.30886 0-0.50941 0.28686-0.51365 0.63719 0 0.18024 0.0541 0.3808 0.17517 0.56696 3.0895 4.4417 5.9387 10.011 5.9387 16.677 0 7.0362-4.0804 12.484-11.002 12.484-5.0307 0-10.492-4.6871-10.471-10.981 0.0153-3.2985 1.5291-7.0354 5.3954-10.769 0.72267-0.72689 1.0527-1.5452 1.0501-2.4041-0.0237-3.9357-6.9804-8.7193-15.142-8.7193z"/>
   <path d="m101.74 273.7c-4.0059 0-7.0033 1.66-7.0312 4.1343 0.0034 1.3353 0.9984 2.405 2.3142 2.4093 0.73536 0 1.3403-0.28088 1.7498-0.74291 0.41295-0.45864 0.63053-1.0848 0.63053-1.7651 0-0.2894-0.04908-0.59235-0.12355-0.88175 0.78444-0.2674 1.7398-0.37933 2.1672-0.37848 2.283 0.0271 3.0523 1.1807 3.0828 3.215v2.0205c-0.96298-0.41464-2.3516-0.66061-3.7013-0.664-2.1629 0-4.0254 0.52363-5.3582 1.5061-1.337 0.97991-2.1292 2.4386-2.1267 4.236 0.0076 3.4136 2.8102 5.9077 6.5081 5.911 2.4828-2e-3 4.4065-1.3421 5.2578-2.0606 0.6245 1.3522 1.9276 2.019 3.2832 2.013 0.11762 0 0.23607-4e-3 0.35369-0.0144 1.3776-0.11086 2.6604-0.83184 2.7526-2.5733l0.0112-0.18346-0.18223-0.0265c-1.59-0.24371-2.3151-0.59057-2.332-1.8717v-6.6036c-4e-3 -2.5302-0.0509-4.3278-1.0181-5.5574-1.0654-1.3717-3.0587-2.1221-6.2379-2.1221zm-0.13056 9.9673c0.96213 0 1.7078 0.21434 2.1977 0.51897 0.49588 0.30803 0.72435 0.69057 0.72266 1.0375v2.5671c-0.77682 0.9613-2.0071 1.6305-3.2138 1.6263-1.8591-0.0102-3.0425-1.1911-3.0526-2.941 0.01015-1.854 1.354-2.7919 3.346-2.8088z"/>
   <path d="m206.73 291.84c-0.33086-0.45949-0.50856-1.0459-0.66512-1.7178-0.18616 0.20902-0.40025 0.43157-0.73027 0.74297-1.2016 1.1314-2.7806 1.8134-4.5585 1.8134-1.9387 0-3.5922-0.74636-4.6406-1.9869-1.623-1.926-1.6061-4.3724-1.6086-7.8486v-3.3459c-0.0364-1.3539-0.45949-1.8168-1.7161-1.8507-0.16416 0-0.34017 0.0102-0.53141 0.0313l-0.15148 0.0153-0.0567-0.13962c-0.1007-0.24625-0.14724-0.48911-0.14724-0.71843 0.0406-1.6213 2.0884-2.4878 3.2951-2.7358 0.42056-0.0643 0.8132-0.13371 1.1974-0.13455 0.98414-2e-3 1.7076 0.31479 2.1629 0.88175 0.4578 0.56611 0.63888 1.3455 0.63888 2.2517l-0.0321 5.7144c-2e-3 2.1113 0.14978 3.6903 0.61604 4.7074 0.47303 1.0078 1.1855 1.4809 2.5048 1.4952 1.4326-8e-3 2.2958-0.62196 2.8509-1.5418 0.55004-0.91983 0.75313-2.1629 0.75143-3.3501v-4.6254c-0.0364-1.3539-0.46203-1.8185-1.7161-1.8507-0.165 0-0.3444 0.0102-0.53311 0.0313l-0.15316 0.0153-0.0559-0.13962c-0.1007-0.24625-0.14555-0.48911-0.14555-0.71843 0.0389-1.6213 2.0859-2.4878 3.296-2.7358 0.41718-0.0643 0.81912-0.1337 1.2042-0.1337 0.9816-2e-3 1.7068 0.31394 2.1646 0.88091 0.45611 0.5661 0.64058 1.3455 0.64058 2.25 0 0.65327-0.0618 1.8202-0.0618 6.6876 0 2.058-0.0347 3.1513-0.0322 3.483 0.0296 1.4039 0.50096 2.0326 1.8007 2.058 0.13286 0 0.28178-6e-3 0.43834-0.0254l0.14977-0.0135 0.055 0.14047c0.099 0.24625 0.14556 0.4798 0.14556 0.70404-0.0491 1.5824-2.1028 2.2137-3.296 2.4515-0.40872 0.0617-0.79205 0.12609-1.1238 0.12609h-0.0253c-0.92152-2e-3 -1.5443-0.32495-1.931-0.86906z"/>
   <path d="m151.09 273.7c-2.7646 0-5.0984 1.0206-6.735 2.7638-1.6366 1.7398-2.5717 4.1913-2.5717 7.032 8e-3 5.194 4.0609 9.1643 9.0451 9.1719 4.9038-2e-3 7.1177-2.4212 7.1287-4.31 8e-3 -0.81744-0.34277-1.2411-0.66772-1.4763l-0.15494-0.11527-0.12105 0.15411c-0.57288 0.73197-2.295 1.964-4.5265 1.9598-3.6328-0.0144-5.717-2.304-5.9065-5.5788h11.261l0.0557-0.10247c0.41042-0.74298 0.61112-1.6216 0.61112-2.5634 0-1.5976-0.58488-3.3279-1.8093-4.6649-1.2194-1.3378-3.0869-2.2713-5.6086-2.2705zm-0.65242 2.7745c2.0664 0 3.4096 1.5962 3.446 3.3208 2e-3 0.29871-0.0177 0.54049-0.0905 0.66235-0.0677 0.11424-0.16514 0.19647-0.52394 0.20494v-3e-3h-6.6502c0.16502-2.1028 1.2174-4.1847 3.8187-4.1847z"/>
   <path d="m181.85 273.7c-4.9782 0.0102-9.394 3.8247-9.4025 9.4376 0 2.8322 1.0375 5.2138 2.713 6.88 1.6772 1.6687 3.9918 2.6204 6.5288 2.6204h2e-3c2.6799 0 5.0426-0.96723 6.73-2.6427 1.6916-1.6738 2.7018-4.0568 2.7018-6.8569 0-2.7959-0.97073-5.1602-2.6208-6.8221-1.6484-1.6636-3.9703-2.6155-6.6527-2.6155zm-0.16156 2.7745c1.2464 2e-3 2.3209 0.63046 3.1138 1.8143 0.78867 1.1864 1.2726 2.9321 1.2726 5.1144-0.0135 4.1845-1.7675 6.3196-4.1885 6.3255-2.1257-8e-3 -4.2821-2.145-4.2914-7.1105 0.0144-3.8672 1.5777-6.1378 4.0934-6.1437z"/>
   <path d="m216.19 292.08c-0.78275-0.21578-1.2862-0.64058-1.2812-1.2879 0-0.25386 0.0761-0.5238 0.21155-0.81743l0.0423-0.0897 0.0982-0.0229c0.29279-0.06 0.80221-0.20986 1.2278-0.55257 0.46626-0.38503 0.6465-0.9173 0.6482-2.4151v-7.5642c-0.0338-1.2735-0.32749-1.7203-1.3844-1.75-0.24117 0-0.52041 0.0296-0.84282 0.0922l-0.16247 0.0322-0.0618-0.1557c-0.11085-0.28433-0.16247-0.55427-0.16247-0.80898 0.0279-1.5122 1.6797-2.2898 2.7899-2.6359 0.45441-0.13624 0.8479-0.20732 1.2558-0.20732 1.5105-2e-3 2.3321 1.0865 2.6782 2.4811 0.98836-1.623 2.5691-2.7019 4.1227-2.7053 1.4597 2e-3 2.9287 0.95282 2.9304 2.7679-2e-3 1.2854-0.90966 2.6359-2.4218 2.6419-1.1255 4e-3 -2.1172-0.74466-2.3364-1.8363-0.85551 0.28263-2.0639 1.3582-2.0766 5.0857v4.5627c2e-3 1.4927 0.21239 2.0334 0.63296 2.4108 0.44088 0.33086 1.3353 0.49757 1.6476 0.5568l0.10069 0.0229 0.0423 0.0897c0.14555 0.32155 0.22932 0.6135 0.22932 0.88597 6e-3 0.61012-0.45187 1.0273-1.1872 1.2338-0.74212 0.21832-1.8244 0.30041-3.3002 0.30041-1.5046 0-2.6478-0.0855-3.4407-0.31479z"/>
   <path d="m161.66 292.08c-0.78697-0.21832-1.2938-0.64651-1.2879-1.293 0-0.25218 0.0703-0.52211 0.20563-0.81236l0.0423-0.0922 0.099-0.0194c0.30718-0.06 0.79713-0.20732 1.2448-0.54919 0.45272-0.38587 0.63974-0.92067 0.64396-2.4193v-9.9387l-2.6681-0.0939-0.0508-0.11762c-0.1354-0.33087-0.19971-0.64396-0.19971-0.93505 0-0.9689 0.74805-1.6154 1.6873-1.6154h1.1678v-1.1026c0-2.6571 0.48995-4.1684 1.1703-5.1805 1.0374-1.6196 2.8458-2.7316 5.5968-2.7273 3.461 4e-3 6.3576 1.6129 6.377 4.1997 0 1.1187-0.78021 2.5073-2.4075 2.509-1.2168-2e-3 -2.3406-1.0205-2.3465-2.3102 2e-3 -0.47726 0.15824-0.9579 0.39602-1.3158-0.36218-0.31817-1.0569-0.50941-1.7263-0.50433-1.0755 6e-3 -1.6628 0.37656-2.0368 0.99091-0.36979 0.62026-0.49587 1.5232-0.49418 2.5479v2.8585h4.5839l0.0508 0.1227c0.13878 0.33171 0.20563 0.65412 0.20309 0.95621 4e-3 0.99513-0.70828 1.7398-1.6027 1.821-0.33933 0.0364-0.70319 0.0364-1.0281 0.0364-0.75989 0-1.5156-0.0533-2.0766-0.066v9.8625c4e-3 1.4885 0.24794 2.0233 0.69982 2.4108 0.40448 0.32325 1.5384 0.49757 1.8718 0.5568l0.0982 0.0186 0.0449 0.0939c0.12185 0.2674 0.18617 0.51619 0.18786 0.75312 0 0.68035-0.55596 1.1128-1.3946 1.3387-0.84874 0.23778-2.0554 0.32917-3.5938 0.32917-1.5122 2e-3 -2.6596-0.0838-3.4576-0.31309z"/>
   <path d="m129.67 292.08c-0.78105-0.21578-1.2828-0.64396-1.2769-1.2879 0-0.25386 0.0728-0.5238 0.20901-0.81743l0.0423-0.0922 0.1007-0.0194c0.30209-0.06 0.79543-0.20732 1.2388-0.54919 0.45525-0.38587 0.64226-0.92067 0.64565-2.4193v-7.5642c-0.0364-1.2727-0.33256-1.7203-1.3912-1.75-0.24117 0-0.51957 0.0296-0.84282 0.0922l-0.16079 0.0321-0.06-0.1557c-0.11762-0.28686-0.17094-0.56272-0.17094-0.82336 0.0279-1.502 1.6814-2.2763 2.8018-2.6215 0.43834-0.13709 0.84875-0.20478 1.2304-0.20733 1.5223-2e-3 2.3465 1.0696 2.6994 2.4472 0.99683-1.6044 2.5818-2.6681 4.1312-2.6715 1.4402 2e-3 2.9262 0.95029 2.9304 2.7679-2e-3 1.2854-0.91136 2.6393-2.443 2.6419-1.1229 4e-3 -2.1028-0.74466-2.3144-1.8363-0.86482 0.28686-2.0927 1.3607-2.1054 5.0857v4.5628c2e-3 1.4927 0.22086 2.0275 0.67019 2.4108 0.41888 0.32918 1.315 0.49757 1.64 0.55681l0.10239 0.0194 0.0406 0.0922c0.14554 0.31733 0.22678 0.60758 0.22848 0.87752 6e-3 0.61181-0.45357 1.0349-1.194 1.2405-0.74805 0.22001-1.8337 0.30209-3.3129 0.30209-1.5079 0-2.6478-0.0846-3.439-0.31394z"/>
   <path d="m114.55 292.08c-0.78105-0.21578-1.2812-0.64396-1.2786-1.2879 0-0.25386 0.0744-0.5238 0.20986-0.81743l0.0406-0.0922 0.0999-0.0194c0.30802-0.06 0.79967-0.20732 1.2465-0.54919 0.45188-0.38587 0.64058-0.92067 0.64397-2.4193v-7.5642c-0.0364-1.2727-0.33425-1.7203-1.3929-1.75-0.23778 0-0.51957 0.0296-0.84113 0.0922l-0.16247 0.0321-0.0618-0.1557c-0.11338-0.28686-0.16839-0.56272-0.16839-0.82336 0.0262-1.502 1.6806-2.2763 2.8001-2.6215 0.43664-0.13709 0.84535-0.20478 1.2287-0.20733 1.5232-2e-3 2.3465 1.0696 2.7002 2.4438 0.99599-1.6019 2.5801-2.6655 4.1286-2.6681 1.4445 2e-3 2.9287 0.95029 2.933 2.7679-4e-3 1.2854-0.91136 2.6393-2.4438 2.6419-1.1195 4e-3 -2.1011-0.74466-2.3127-1.8363-0.86483 0.28433-2.0927 1.3607-2.1054 5.0857v4.5628c4e-3 1.4927 0.22001 2.0275 0.66935 2.4108 0.41803 0.32918 1.3158 0.49757 1.6408 0.55681l0.0998 0.0194 0.0432 0.0922c0.14555 0.31733 0.2251 0.60758 0.2251 0.87752 8e-3 0.61181-0.45357 1.0349-1.1898 1.2405-0.74805 0.22001-1.8363 0.30209-3.3146 0.30209-1.5079 0-2.6469-0.0846-3.4381-0.31394z"/>
   <path d="m73.158 289.38c-2.1968-2.2543-3.6116-5.541-3.6108-9.6392 0-3.9145 1.3835-7.2198 3.5431-9.5469 2.1604-2.3237 5.1001-3.6683 8.1972-3.6683 5.5579 8e-3 9.4826 3.8976 9.502 7.2588 0 1.7965-1.1381 3.1876-2.6799 3.191-0.75905 0-1.4699-0.25725-1.992-0.75057-0.5238-0.49334-0.84874-1.2126-0.84705-2.0859-0.0026-1.0552 0.53734-1.6907 0.94014-2.1477-0.73028-1.2685-2.1764-2.3152-4.4409-2.3186-1.9294 0-3.5498 1.0011-4.7201 2.7612-1.1661 1.761-1.8583 4.2852-1.8566 7.2714-0.0022 2.9846 0.71928 5.4978 1.9192 7.2528 1.2016 1.7542 2.8551 2.7468 4.7853 2.7493 2.267-6e-3 3.7115-1.0358 4.4392-2.3152-0.40449-0.44679-0.94098-1.0891-0.93844-2.1324 0-0.87921 0.32325-1.6002 0.84451-2.0927 0.5238-0.49164 1.2363-0.74889 1.9954-0.74889 1.5401 0 2.6749 1.3827 2.6782 3.175-0.01861 3.3798-3.9425 7.252-9.4987 7.263-3.0912 0-6.0631-1.2228-8.2598-3.4762z"/>
  </g>
 </g>
</svg>
