<?xml version="1.0" encoding="UTF-8" standalone="no"?>
<!-- Created with Inkscape (http://www.inkscape.org/) -->
<svg xmlns:rdf="http://www.w3.org/1999/02/22-rdf-syntax-ns#" xmlns="http://www.w3.org/2000/svg" height="352.8" width="600" version="1.1" xmlns:cc="http://creativecommons.org/ns#" xmlns:dc="http://purl.org/dc/elements/1.1/">
 <metadata>
  <rdf:RDF>
   <cc:Work rdf:about="">
    <dc:format>image/svg+xml</dc:format>
    <dc:type rdf:resource="http://purl.org/dc/dcmitype/StillImage"/>
    <dc:title/>
   </cc:Work>
  </rdf:RDF>
 </metadata>
 <path fill-rule="nonzero" fill="#FFF" d="m294.73,294.76,294.76,0,0-294.76-294.76,0,0,294.76z"/>
 <path fill-rule="nonzero" fill="#FFF" d="m294.73,294.76,294.76,0,0-294.76-294.76,0,0,294.76z"/>
 <path fill-rule="nonzero" fill="#000" d="m0,294.8,294.77,0,0-294.76l-294.77-0.002414v294.76z"/>
 <path fill-rule="nonzero" fill="#FFF" d="m194.53,170.9c-8.1654,14.246-23.493,23.885-41.098,23.887-26.143,0.004-47.365-21.213-47.369-47.365-0.004-26.149,21.213-47.373,47.355-47.374,17.606-0.004,32.936,9.6228,41.106,23.875l73.11-41.792c-22.67-39.599-65.32-66.296-114.23-66.29-72.674,0.011-131.57,58.922-131.56,131.6,0.01026,72.662,58.921,131.57,131.59,131.56,48.913-0.006,91.557-26.715,114.21-66.322"/>
 <path fill-rule="nonzero" fill="#FFF" d="m439.31,342.25,4.2715,9.7296,10.034-0.001,6.9037-36.201-12.166,0.001-3.0079,15.896-6.0395-14.644-6.0395,14.646-3.0217-15.896-12.158,0.001,6.9056,36.199,10.036-0.001"/>
 <path fill-rule="nonzero" fill="#FFF" d="m415.16,315.79-36.207,0.004,0.001,10.56,11.314-0.001,0.004,25.641,13.57-0.001-0.004-25.641,11.322-0.001"/>
 <path fill-rule="nonzero" fill="#FFF" d="m480.23,340.66c-3.7534,0-6.7929-3.0395-6.7929-6.7751,0-3.7534,3.0375-6.7929,6.791-6.7929,3.7514-0.001,6.791,3.0375,6.7929,6.7909,0,3.7376-3.0395,6.7771-6.791,6.7771m-0.004-25.639c-10.412,0-18.862,8.4363-18.86,18.866,0.001,10.412,8.4521,18.846,18.866,18.846,10.414-0.001,18.862-8.4382,18.86-18.852,0-10.428-8.4521-18.862-18.866-18.86"/>
 <path fill-rule="nonzero" fill="#FFF" d="m338.22,352-0.004-36.201-12.071,0.001,0.001,15.083-12.075-15.081-12.071,0,0.006,36.201,12.071-0.001-0.001-15.081,12.073,15.079"/>
 <path fill-rule="nonzero" fill="#FFF" d="m375,326.35-0.001-10.558-31.685,0.004,0.004,36.199,31.686-0.004-0.001-9.8028-19.613,0.004,0-3.6368,16.594-0.001-0.001-9.0474-16.594,0.001,0-3.1562"/>
 <path fill-rule="nonzero" fill="#FFF" d="m514.74,326.33,7.5483-0.001c1.6572,0,3.0118,1.3527,3.0118,3.0118,0,1.671-1.3526,3.0237-3.0099,3.0237l-7.5483,0.001-0.001-6.0355zm22.631,2.2663c0-6.5893-5.2089-12.828-13.57-12.826l-21.134,0.001,0.004,36.201,12.073-0.001-0.001-10.56h3.8404l5.3098,10.558,13.481-0.001-7.1845-12.026c4.2023-2.1536,7.1825-6.429,7.1825-11.345"/>
 <path fill-rule="nonzero" fill="#FFF" d="m577.73,315.77-15.518,0.001-9.0018,11.854-0.001-11.852-12.071,0,0.004,36.201,12.073-0.001-0.001-13.495,9.0038,13.495,15.52-0.004-14.096-18.787"/>
 <path fill-rule="nonzero" fill="#FFF" d="m56.847,337,3.176-11.142,3.2017,11.14-6.3776,0.001zm10.72,15.081,12.821-0.001-11.32-36.213-18.101,0.001-11.318,36.215,12.886,0,1.7304-6.0355,11.563-0.001"/>
 <path fill-rule="nonzero" fill="#FFF" d="m158.02,315.85-36.207,0.006,0,10.558,11.31-0.001,0.001,25.655,13.586-0.001-0.004-25.655,11.314,0"/>
 <path fill-rule="nonzero" fill="#FFF" d="m29.133,337.61c-1.2795,2.2544-3.6941,3.7672-6.4785,3.7672-4.1232,0-7.4693-3.3441-7.4693-7.4594-0.0015-4.1311,3.3441-7.4752,7.4673-7.4772,2.7844,0,5.199,1.5267,6.4785,3.7653l9.8542-5.644c-3.2531-5.6855-9.3618-9.5259-16.372-9.5239-10.42,0-18.862,8.4521-18.86,18.88,0.0015,10.414,8.4442,18.848,18.866,18.846,7.0105,0,13.117-3.8266,16.368-9.4982"/>
 <path fill-rule="nonzero" fill="#FFF" d="m178.39,340.73c-3.7514,0.001-6.785-3.0237-6.785-6.7771,0-3.7514,3.0316-6.791,6.783-6.791,3.7475,0,6.787,3.0395,6.787,6.789,0,3.7534-3.0375,6.7791-6.785,6.7791m-0.001-25.625c-10.422,0-18.862,8.4224-18.862,18.85,0.001,10.414,8.4462,18.848,18.866,18.846,10.422-0.001,18.856-8.4383,18.854-18.85-0.001-10.43-8.4383-18.848-18.858-18.846"/>
 <path fill-rule="nonzero" fill="#FFF" d="m219.14,340.73c-3.7594,0-6.7989-3.0237-6.7989-6.7771-0.001-3.7514,3.0375-6.7929,6.7969-6.7929,3.7376,0,6.785,3.0395,6.785,6.7909,0.001,3.7534-3.0454,6.7771-6.783,6.7791m-0.004-25.627c-10.428,0.001-18.862,8.4224-18.86,18.852,0,10.412,8.4363,18.846,18.866,18.844,10.406,0,18.848-8.4363,18.846-18.85,0-10.428-8.4442-18.848-18.852-18.846"/>
 <path fill-rule="nonzero" fill="#FFF" d="m277.78,352.05-0.006-36.215-12.063,0.001,0.001,15.083-12.081-15.081-12.071,0.001,0.006,36.213,12.069-0.001-0.001-15.083,12.083,15.081"/>
 <path fill-rule="nonzero" fill="#FFF" d="m95.975,326.42,7.5404-0.001c1.6671,0,3.0198,1.3526,3.0198,3.0257,0,1.6572-1.3526,3.0118-3.0178,3.0118h-7.5404l-0.0015-6.0355zm22.631,2.2643c0-6.5734-5.2089-12.826-13.578-12.825h-9.0533l-7.5484,0.001h-4.5247l0.0059,36.215,12.071-0.001-0.0015-10.558h3.8246l5.3256,10.556,13.483-0.001-7.1805-12.041c4.1964-2.1377,7.1766-6.4132,7.1766-11.345"/>
 <path fill-rule="nonzero" fill="#000" d="m568.41,21.055-84.211,0.01172,0.0132,105.26-84.222-105.25-84.211,0.01172,0.0396,252.62,84.211-0.0117-0.0132-105.25,84.222,105.24,84.211-0.0117-0.0177-126.29"/>
 <path fill-rule="nonzero" fill="#FFF" d="m589.37,341.99,0,1.7442-2.9386,0.001,0.001,8.0408-2.0488,0-0.001-8.0408-2.9386,0,0-1.7462"/>
 <path fill-rule="nonzero" fill="#FFF" d="m597.05,341.99,2.9525,0,0.001,9.787-1.9044,0.001-0.001-6.6189v-0.79893-0.78708l-1.8471,8.2049h-1.9934l-1.8312-8.2029v0.7851,0.8009,6.6169h-1.8906l-0.001-9.787,2.9683-0.001,1.7897,7.7086"/>
</svg>
