<svg width="425.428" height="126.091" viewBox="0 0 112.561 33.362" xmlns="http://www.w3.org/2000/svg"><g fill="#fff" stroke-width="3.267" aria-label="casa"><path d="M49.025 9.614q-.566 1.762-2.103 2.813-1.528 1.051-3.522 1.051-2.48 0-4.227-1.667-1.736-1.676-1.736-4.062 0-2.387 1.736-4.063Q40.92 2 43.4 2q2.014 0 3.561 1.07 1.548 1.06 2.123 2.841h-3.016q-.387-.757-1.081-1.155-.685-.398-1.617-.398-1.34 0-2.282.966-.933.966-.933 2.349 0 1.468.963 2.462.962.985 2.38.985.785 0 1.46-.407.684-.407 1.05-1.099zM55.84 13.478q-2.32 0-3.958-1.666-1.637-1.677-1.637-4.063 0-2.387 1.637-4.063Q53.52 2 55.851 2q2.252 0 3.82 1.544V2.36h2.49v10.758h-2.49v-1.174q-1.588 1.525-3.83 1.534zm.447-9.139q-1.418 0-2.37.985-.953.976-.953 2.425 0 1.44.952 2.415.953.975 2.361.975 1.42 0 2.372-.975.962-.976.962-2.425 0-1.449-.953-2.424-.952-.976-2.37-.976zM68.738 5.267q-.1-.455-.377-.682-.278-.227-.715-.227-.466 0-.764.255-.287.256-.287.663 0 .389.367.625.367.237 1.409.54 1.775.521 2.54 1.298.753.776.753 2.064 0 1.62-1.12 2.652-1.122 1.023-2.878 1.023-1.776 0-2.936-1.032-1.151-1.042-1.23-2.719h2.777q.12.682.486 1.042.367.35.953.35.555 0 .912-.293.358-.293.358-.758 0-.501-.328-.776-.327-.275-1.26-.55-1.875-.549-2.688-1.325-.804-.767-.804-2.027 0-1.496 1.072-2.443Q66.049 2 67.726 2q1.468 0 2.52.937 1.051.938 1.14 2.33zM78.182 13.478q-2.321 0-3.959-1.666-1.636-1.677-1.636-4.063 0-2.387 1.636-4.063Q75.86 2 78.192 2q2.252 0 3.82 1.544V2.36h2.49v10.758h-2.49v-1.174q-1.588 1.525-3.83 1.534zm.446-9.139q-1.418 0-2.37.985-.953.976-.953 2.425 0 1.44.952 2.415.953.975 2.362.975 1.418 0 2.37-.975.963-.976.963-2.425 0-1.449-.952-2.424-.953-.976-2.372-.976z"/></g><g fill="#fff" stroke-width="3.243" aria-label="cozinha"><path d="M48.743 28.115q-.557 1.762-2.073 2.813-1.505 1.052-3.47 1.052-2.444 0-4.165-1.667-1.71-1.677-1.71-4.063 0-2.387 1.71-4.063Q40.755 20.5 43.2 20.5q1.984 0 3.51 1.07 1.524 1.061 2.091 2.841H45.83q-.38-.757-1.065-1.155-.675-.398-1.594-.398-1.32 0-2.248.966-.92.966-.92 2.349 0 1.468.95 2.462.947.985 2.345.985.773 0 1.438-.407.674-.407 1.036-1.099zM55.812 31.98q-2.454 0-4.184-1.668-1.721-1.676-1.721-4.063 0-2.386 1.72-4.063 1.731-1.685 4.185-1.685 2.463 0 4.184 1.685 1.73 1.677 1.73 4.063 0 2.387-1.73 4.063-1.72 1.667-4.184 1.667zm0-2.359q1.378 0 2.307-.966t.929-2.406q0-1.44-.929-2.415-.929-.975-2.307-.975-1.369 0-2.298.975-.928.976-.928 2.415 0 1.44.928 2.406.93.966 2.298.966zM62.631 29.29l5.035-6.061h-4.487V20.86h7.596v2.33l-5.064 6.061h5.367v2.368H62.63v-1.165zM72.527 31.62V20.86h2.669v10.76h-1.33zm0-14.349h2.66v2.368h-2.66ZM77.36 31.62V20.86h2.483v.929q1.29-1.288 3.089-1.288 1.975 0 3.128 1.298 1.164 1.288 1.164 3.485v6.336h-2.67V25.86q0-1.477-.566-2.244-.567-.767-1.652-.767-1.154 0-1.73.776-.578.777-.578 2.33v5.664h-1.33zM89.358 31.62V17.27h2.669v4.347q1.242-1.136 2.894-1.118 1.965 0 3.118 1.288 1.164 1.288 1.164 3.486v6.345h-2.67v-5.777q0-1.468-.566-2.226-.557-.767-1.643-.767-1.153 0-1.73.777-.567.776-.567 2.33v5.663h-1.33zM106.334 31.98q-2.288 0-3.9-1.668-1.614-1.676-1.614-4.063 0-2.386 1.613-4.063 1.613-1.685 3.91-1.685 2.22 0 3.765 1.543v-1.183h2.453v10.758h-2.453v-1.174q-1.565 1.525-3.774 1.534zm.44-9.14q-1.398 0-2.337.985-.938.975-.938 2.424 0 1.44.938 2.415.939.976 2.327.976 1.398 0 2.337-.976.948-.975.948-2.424 0-1.45-.939-2.424-.938-.976-2.336-.976z"/></g><path d="M93.206 13.281q-1.47 0-2.511-1.052-1.034-1.058-1.034-2.565t1.034-2.565q1.04-1.064 2.511-1.064 1.477 0 2.511 1.064 1.04 1.058 1.04 2.565 0 .365-.059.717h-5.297q.137.443.46.802.556.61 1.387.61.514 0 .939-.24.43-.239.634-.64h1.722q-.33 1.083-1.238 1.728-.909.64-2.099.64zm1.848-4.203q-.12-.538-.485-.939-.55-.615-1.363-.615t-1.363.615q-.353.407-.49.94z" fill="#fff" aria-label="e"/><path d="M0 0h16.68v16.68H0Z" fill="#42cfd9" style="stroke-width:.094934"/><path d="M16.68 0h16.682v16.68H16.68Z" fill="#522b60" style="stroke-width:.094934"/><path d="M16.68 16.68h16.682v16.682H16.68Z" fill="#f1c713" style="stroke-width:.094934"/><path d="M0 16.68h16.68v16.682H0Z" fill="#ff2e4d" style="stroke-width:.094934"/></svg>