<svg width="211.67mm" height="184.11mm" version="1.1" viewBox="0 0 211.67 184.11" xmlns="http://www.w3.org/2000/svg">
 <g transform="translate(-67.613 -312.92)" fill="#a5225d">
  <path d="m264.46 497.03v-29.041c0-5.6579-0.70103-11.433-7.5773-11.433-6.5926 0-8.2116 4.8401-8.2116 10.698v29.775h-14.804v-29.692c0-5.2908-1.1682-10.782-7.4104-10.782-6.8597 0-8.3784 5.3909-8.3784 11.433v29.041h-14.804v-53.208h13.836v5.4911h0.167c2.854-5.3075 8.028-7.2603 13.653-7.2603 6.409 0 11.232 3.3548 14.27 9.213 3.5717-5.8583 9.0127-9.213 15.705-9.213 4.8902 0 9.5301 1.502 13.018 5.2241 5.6079 5.9417 5.3575 12.084 5.3575 19.978v29.775z"/>
  <path d="m119.72 478.07c0 2.7705-2.2865 4.8902-4.9069 4.8902h-19.778c-7.4438 0-12.117-6.7595-12.117-14.22 0-7.1602 4.4062-13.469 11.75-13.469 4.5731 0 7.7109 2.0862 10.615 5.4076l8.6789-10.799c-2.7706-3.2712-10.632-9.4299-19.477-9.4299-15.138 0-26.871 12.518-26.871 28.19 0 15.872 12 28.39 27.238 28.39h34.816c2.6036 0 4.8902-2.0864 4.8902-4.8903v-24.251c0-6.042 1.5188-11.433 8.3952-11.433 6.2255 0 7.3938 5.4744 7.3938 10.782v29.792h14.804v-29.892c0-5.8582 1.6189-10.682 8.2116-10.682 6.8597 0 7.5774 5.7581 7.5774 11.433v29.141h14.821v-29.892c0-7.8944 0.25051-14.036-5.3576-19.978-3.4882-3.7219-8.1114-5.2073-13.035-5.2073-6.6761 0-12.134 3.338-15.689 9.1963-3.0376-5.8582-7.8611-9.1963-14.27-9.1963-5.6246 0-10.799 1.9527-13.653 7.2436h-0.18374v-5.4743h-13.853z"/>
  <path d="m279.28 312.92h-211.66v117.58h211.66zm-28.24 89.359h-155.22v-61.153h155.22z"/>
 </g>
</svg>
