<svg enable-background="new 0 0 390.215 155.768" version="1.1" viewBox="0 0 800 321" xml:space="preserve" xmlns="http://www.w3.org/2000/svg">
<rect x="663.26" y="103.73" width="390.22" height="155.77" display="none"/>
<g transform="matrix(2.0607 0 0 2.0607 -2.0607 .0041214)">
	<path d="m6.559 73.936h116.69c2.516 0 4.553 1.799 4.553 4.018s-2.037 4.018-4.553 4.018h-116.69c-2.518 0-4.555-1.799-4.555-4.018 0-2.217 2.039-4.018 4.555-4.018z" fill="#ebc200"/>
	<path d="m267.98 73.936h116.69c2.512 0 4.549 1.799 4.549 4.018s-2.037 4.018-4.549 4.018h-116.69c-2.512 0-4.551-1.799-4.551-4.018s2.039-4.018 4.551-4.018z" fill="#ebc200"/>
	<path d="m107.22 98.925 98.396-44.552-0.059 27.292 75.066-26.089s1.145-0.215 1.523 0.596c0.363 0.771-0.27 1.55-0.27 1.55l-95.813 43.295v-26.25l-77.783 27.542s-1.092 0.264-1.703-1.225c-0.486-1.19 0.643-2.159 0.643-2.159z" fill="#c5453e"/>
	<path d="m36.211 1.887c-3.531-1.219-7.43-1.889-11.207-1.889-13.462 1e-3 -24.004 10.723-24.004 24.126 0 13.098 10.236 23.271 23.334 23.271 2.984 0 9.199-0.549 11.877-1.83l0.489-17.177c-2.68 2.618-5.725 4.265-9.564 4.265-4.994 0-9.32-3.899-9.32-8.956 0-4.996 4.082-8.953 9.078-8.953 3.775 0 7.127 2.131 9.809 4.629z" fill="#4d565e"/>
	<path d="m56.696 40.939h12.609l1.521 5.727h17.666l-16.384-45.935h-18.459l-15.961 45.934h17.666zm2.984-10.906 3.047-14.01h0.607c0.307 1.948 0.609 3.958 1.096 5.908l1.949 8.102z" fill="#4d565e"/>
	<path d="m83.168 15.656 9.204-0.428v31.437h16.689v-31.437l9.199 0.428v-14.925h-35.092z" fill="#4d565e"/>
	<path d="m131.86 40.939h12.609l1.523 5.727h17.668l-16.386-45.934h-18.461l-15.963 45.934h17.67zm2.984-10.906 3.045-14.01h0.611c0.305 1.948 0.607 3.958 1.096 5.908l1.951 8.102z" fill="#4d565e"/>
	<path d="m166.38 46.665h30.708v-14.742h-14.012v-31.192h-16.696z" fill="#4d565e"/>
	<path d="m226.46 0.731v25.587c0 3.592-0.123 6.762-4.566 6.762-4.445 0-4.568-3.169-4.568-6.762v-25.587h-16.691v27.169c0 13.403 8.404 19.496 21.262 19.496 12.854 0 21.258-6.092 21.258-19.496v-27.169z" fill="#4d565e"/>
	<path d="m249.52 46.665h15.959v-14.925c0-3.049-0.484-6.033-1.031-9.198h0.482l14.688 24.122h15.957v-45.933h-15.957v13.769c0 3.9 0.729 7.858 1.396 11.696h-0.484l-14.989-25.465h-16.021z" fill="#4d565e"/>
	<path d="m297.86 0.731 16.025 26.137v19.797h16.322v-19.798l15.723-26.136h-18.766l-3.291 7.677c-0.609 1.399-1.033 2.863-1.523 4.327h-0.484l-5.116-12.004z" fill="#4d565e"/>
	<path d="m357.22 40.939h12.609l1.521 5.727h17.67l-16.388-45.934h-18.461l-15.963 45.934h17.668zm2.983-10.906 3.047-14.01h0.609c0.307 1.948 0.609 3.958 1.098 5.908l1.949 8.102z" fill="#4d565e"/>
	<path d="m84.534 155.04h16.34v-14.756h0.303l7.318 14.756h19.264l-9.998-14.939c-0.914-1.34-1.949-2.072-2.803-2.744v-0.365c6.217-2.072 8.9-5 8.9-11.947 0-11.582-8.779-15.975-19.145-15.975h-20.18v45.97zm16.338-33.41h1.281c2.865 0 5.365 0.426 5.365 3.961 0 3.414-2.744 3.844-5.488 3.844h-1.158z" fill="#4d565e"/>
	<path d="m146.62 98.281 8.703 8.063 5.709-2.992-5.564-7.645zm1.797 51.023h12.619l1.525 5.734h17.68l-16.4-45.971h-18.473l-15.971 45.971h17.678zm2.991-10.908 3.047-14.021h0.609c0.305 1.949 0.609 3.963 1.098 5.912l1.947 8.109z" fill="#4d565e"/>
	<path d="m182.45 155.04h21.154c13.477 0 23.105-8.66 23.105-22.314 0-16.889-11.824-23.656-27.248-23.656h-17.012v45.97zm16.703-31.582h1.035c6.102 0 9.816 2.742 9.816 9.205 0 6.037-4.27 8.596-9.816 8.596h-1.035z" fill="#4d565e"/>
	<path d="m232.07 155.04h16.703v-45.97h-16.703z" fill="#4d565e"/>
	<path d="m278.88 108.34c-13.965 0-25.426 9.387-25.426 23.834 0 14.754 11.402 23.594 25.426 23.594 14.02 0 25.424-8.838 25.424-23.594 0-14.447-11.465-23.834-25.424-23.834zm0 15.117c5.305 0 8.596 4.084 8.596 8.961 0 5.246-3.533 8.84-8.596 8.84-5.061 0-8.598-3.594-8.598-8.84 5e-3 -4.877 3.296-8.961 8.598-8.961z" fill="#4d565e"/>
	<path d="m90.245 98.103" fill="#ebc100" stroke="#ebc100" stroke-miterlimit="3.8637" stroke-width=".4601"/>
	<path d="m23.368 98.103" fill="#ebc100" stroke="#ebc100" stroke-miterlimit="3.8637" stroke-width=".4601"/>
	<path d="m126.25 98.581" fill="#bf0024" stroke="#bf0024" stroke-miterlimit="3.8637" stroke-width=".4601"/>
</g>
</svg>
