<svg width="600" height="83.374" version="1.1" viewBox="0 0 158.75 22.059271" xmlns="http://www.w3.org/2000/svg">
 <g transform="translate(-74.839 -549.04)">
  <g fill="#ef3620">
   <path d="m141.62 555.29c1.8153 0 2.9562 0.60885 4.2864 1.8247v-1.5343h4.4569v14.937h-4.5298v-1.4594s-1.6205 1.8228-4.4531 1.8228c-4.1403 0-6.9729-2.9675-6.9729-7.7597 0-4.1589 3.0743-7.8308 7.2127-7.8308m-2.6359 7.7616c0 2.0664 1.3058 3.7694 3.3871 3.7694 2.0083 0 3.6812-1.4856 3.6812-3.6512 0-2.1882-1.5512-3.6962-3.537-3.6962-2.1526 0-3.5313 1.6074-3.5313 3.5781"/>
   <path d="m162.63 570.03s-2.1807 0.85241-3.6083 0.85241c-4.6012 0-7.6755-3.3085-7.6755-7.6866 0-4.3295 3.1474-7.904 7.7484-7.904 1.3807 0 2.2275 0.16862 3.4638 0.72877v4.6948c-0.50957-0.5358-1.9615-1.2158-3.2953-1.2158-1.9615 0-3.4134 1.8247-3.4134 3.818 0 2.0177 1.6224 3.3816 3.6063 3.3816 1.2589 0 2.7145-0.63135 3.1735-0.99854v4.3295z"/>
   <path d="m165.15 570.51v-10.823h-1.4781v-4.1121h1.4781v-3.6962h4.5262v3.6962h2.398v4.1364h-2.398v10.798z"/>
   <path d="m176.06 549.04c1.5006 0 2.737 1.1896 2.737 2.7015 0 1.5306-1.2365 2.7708-2.7858 2.7708-1.4763 0-2.6622-1.1934-2.6622-2.7258 0-1.5081 1.2084-2.7465 2.7108-2.7465m-2.2763 6.542h4.5019v14.935h-4.5019z"/>
   <path d="m187.88 555.29c4.5019 0 8.0144 3.2596 8.0144 7.7597 0 4.5467-3.2692 7.9771-8.1118 7.9771-4.5524 0-8.0407-3.745-8.0407-7.9058 0-4.4738 3.5595-7.8308 8.1382-7.8308m-3.6326 7.904c0 1.9933 1.525 3.5502 3.5838 3.5502 2.2275 0 3.5838-1.435 3.5838-3.7694 0-1.9202-1.4538-3.4284-3.5595-3.4284-2.1806 0-3.6083 1.6055-3.6083 3.6476"/>
   <path d="m196.94 570.51v-14.935h4.5037v1.9465s1.4275-2.2368 4.335-2.2368c2.9543 0 5.3506 2.1413 5.3506 4.959v10.266h-4.6498v-8.7562c0-1.2402-0.3372-2.4092-2.3231-2.4092-1.4538 0-2.664 1.1915-2.664 2.6266v8.5391h-4.5524z"/>
  </g>
  <g fill="#b21d23" stroke-width=".22715">
   <path d="m85.259 559.6c-0.19858-0.32035-0.44774-0.59949-0.74563-0.84116-0.29786-0.24167-0.63696-0.43088-1.0116-0.56577-0.37655-0.13488-0.77184-0.20232-1.184-0.20232-0.75312 0-1.3919 0.14613-1.9165 0.43649-0.52642 0.29226-0.9517 0.68194-1.2795 1.1728-0.32596 0.49083-0.5639 1.0472-0.71378 1.673-0.148 0.62574-0.22294 1.2702-0.22294 1.939 0 0.63884 0.07494 1.2608 0.22294 1.864 0.14987 0.60323 0.38779 1.1465 0.71378 1.6299 0.32785 0.48336 0.75312 0.87115 1.2795 1.1615 0.52456 0.29039 1.1634 0.43652 1.9165 0.43652 1.0229 0 1.8228-0.31286 2.398-0.93671 0.57515-0.62573 0.92735-1.45 1.0547-2.473h3.2392c-0.08618 0.9517-0.30536 1.8116-0.66131 2.5777-0.35408 0.76811-0.82431 1.4219-1.4069 1.9615-0.58076 0.53953-1.2627 0.95168-2.0439 1.2346-0.78122 0.28476-1.6411 0.42714-2.5798 0.42714-1.1634 0-2.2125-0.20233-3.1417-0.60697-0.93109-0.40467-1.716-0.96294-2.3549-1.673-0.63884-0.71003-1.1297-1.5437-1.4706-2.5028-0.34095-0.95919-0.51143-1.9933-0.51143-3.1006 0-1.1372 0.17048-2.1919 0.51143-3.1642 0.34096-0.9723 0.83178-1.8228 1.4706-2.5459 0.63884-0.72499 1.4238-1.2926 2.3549-1.7048 0.92921-0.41217 1.9783-0.61824 3.1417-0.61824 0.83928 0 1.6317 0.11989 2.3774 0.36158 0.74563 0.24167 1.4125 0.59387 2.0027 1.0547 0.58825 0.46273 1.0753 1.0341 1.4594 1.716 0.38405 0.68191 0.62385 1.4631 0.725 2.3438h-3.2392c-0.05808-0.38404-0.18547-0.73438-0.38404-1.0547"/>
   <path d="m97.489 555.54c0.725 0 1.3844 0.0637 1.9821 0.19108 0.59575 0.12927 1.1072 0.33909 1.5343 0.62948 0.42527 0.29037 0.75498 0.67817 0.99104 1.1615 0.23417 0.48333 0.35033 1.0791 0.35033 1.7891 0 0.76812-0.17422 1.4069-0.52081 1.9184-0.34845 0.51143-0.86365 0.92921-1.5456 1.2571 0.9367 0.26976 1.6374 0.74187 2.0982 1.4163 0.46273 0.67443 0.69315 1.4894 0.69315 2.4392 0 0.76809-0.14987 1.4313-0.44773 1.9933-0.29787 0.56202-0.69879 1.0191-1.2027 1.3732-0.50582 0.35595-1.081 0.61822-1.7273 0.7887-0.64634 0.17047-1.3095 0.25665-1.9914 0.25665h-7.3738v-15.214h7.1603zm-0.42527 6.1578c0.59575 0 1.0866-0.14237 1.4688-0.42525 0.38404-0.28475 0.57515-0.74748 0.57515-1.3863 0-0.35408-0.0637-0.64633-0.19109-0.87301-0.12739-0.22667-0.29786-0.40464-0.51143-0.53205-0.21357-0.12925-0.45712-0.21732-0.73438-0.26788-0.27726-0.0487-0.56576-0.0731-0.86365-0.0731h-3.1324v3.5576h3.3891zm0.19109 6.4559c0.32596 0 0.63884-0.0319 0.9367-0.0955 0.29975-0.0637 0.56202-0.17048 0.78872-0.31849 0.22668-0.14987 0.4084-0.3522 0.54328-0.60886 0.13488-0.25477 0.20233-0.58262 0.20233-0.97979 0-0.7812-0.21919-1.3376-0.65944-1.673-0.44024-0.33346-1.0229-0.50021-1.7479-0.50021h-3.6437v4.176h3.5801z"/>
   <path d="m107.73 567.01c0.1836 0.35594 0.42902 0.64258 0.73438 0.86365 0.30536 0.21918 0.66506 0.38216 1.0772 0.48894 0.41215 0.10679 0.83742 0.16112 1.2777 0.16112 0.29787 0 0.61822-0.0262 0.9592-0.0749 0.34095-0.0506 0.6613-0.14612 0.95919-0.2885 0.29786-0.14049 0.54703-0.33721 0.74562-0.58451 0.19859-0.24916 0.29787-0.56576 0.29787-0.94981 0-0.41214-0.13114-0.74562-0.39343-1.0004-0.26415-0.25666-0.60699-0.46836-1.0341-0.63884-0.42527-0.17047-0.9086-0.32035-1.4481-0.44774-0.54142-0.12927-1.0866-0.26978-1.6411-0.42713-0.56765-0.14052-1.1222-0.31474-1.6617-0.52082-0.54142-0.20607-1.0229-0.47211-1.45-0.79996-0.42528-0.32596-0.76998-0.73438-1.0322-1.2252-0.26416-0.48897-0.39529-1.0828-0.39529-1.7797 0-0.78122 0.16673-1.4594 0.50207-2.0345 0.33346-0.57514 0.76998-1.0547 1.3095-1.4388 0.53955-0.38219 1.1503-0.66694 1.8322-0.85053 0.68194-0.18547 1.3638-0.27728 2.0458-0.27728 0.79619 0 1.5587 0.0881 2.2913 0.26604 0.73064 0.17797 1.3807 0.46459 1.9484 0.86177 0.56952 0.39903 1.0191 0.90672 1.3545 1.525 0.33346 0.61821 0.50021 1.3676 0.50021 2.2481h-3.2392c-0.0281-0.45526-0.12364-0.83181-0.28664-1.1297-0.16486-0.29789-0.3803-0.53206-0.65008-0.70253-0.26977-0.17237-0.57888-0.29226-0.92735-0.36345-0.34845-0.0712-0.72875-0.10678-1.1409-0.10678-0.26977 0-0.53956 0.03-0.80932 0.0862-0.26977 0.0562-0.51518 0.15549-0.73438 0.29787-0.22107 0.14237-0.4009 0.32035-0.54328 0.53205-0.14238 0.21357-0.21357 0.48334-0.21357 0.80932 0 0.29975 0.0562 0.54142 0.17048 0.725 0.11428 0.18547 0.33721 0.35595 0.67069 0.51146 0.33346 0.15734 0.79619 0.31285 1.3863 0.46834 0.58825 0.15737 1.3601 0.35594 2.3117 0.59761 0.28289 0.0562 0.67818 0.15925 1.1821 0.30913 0.50396 0.14799 1.0042 0.38779 1.5025 0.71376 0.49646 0.32598 0.92735 0.76436 1.2889 1.3095 0.36158 0.54703 0.5433 1.2477 0.5433 2.1001 0 0.69504-0.13488 1.3414-0.40464 1.939-0.26977 0.59575-0.67069 1.1109-1.2046 1.5437-0.53206 0.43464-1.1934 0.77187-1.9821 1.0116-0.78683 0.24168-1.701 0.36344-2.737 0.36344-0.83928 0-1.6524-0.10304-2.4392-0.30911-0.78872-0.20607-1.4856-0.52829-2.0889-0.96855-0.60324-0.44024-1.0828-1.0023-1.4388-1.6842-0.35409-0.68193-0.52457-1.4912-0.51144-2.4298h3.2392c0 0.51143 0.0918 0.94606 0.27726 1.3001"/>
   <path d="m125.67 555.61c-4.2302 0-7.6584 3.432-7.6584 7.6605 0 4.2302 3.4284 7.6584 7.6584 7.6584 4.2321 0 7.6623-3.4284 7.6623-7.6584 0-4.2282-3.4302-7.6605-7.6623-7.6605m0 12.164c-3.1436-0.0168-5.7008-2.0795-7.0572-4.5542 1.3732-2.4616 3.9397-4.4624 7.0572-4.4624 3.1754 0 5.7194 1.9858 7.0608 4.4624-1.3414 2.4748-3.8593 4.5673-7.0608 4.5542"/>
   <path d="m125.67 567.33c2.2444 0 4.0615-1.8228 4.0615-4.0635 0-2.2387-1.8172-4.0596-4.0615-4.0596-2.2387 0-4.0615 1.821-4.0615 4.0596 0 2.2406 1.8228 4.0635 4.0615 4.0635"/>
  </g>
  <path d="m218.21 558.06v3.9533h-3.9533v2.4795h3.9533v3.9533h2.4795v-3.9533h3.9533v-2.4795h-3.9533v-3.9533z" fill="#ef3620" style="paint-order:markers stroke fill"/>
  <path d="m227.79 555.81v3.1719h2.058v11.528h3.7452v-14.7h-5.8031z" fill="#ef3620" style="paint-order:markers stroke fill"/>
 </g>
</svg>
