<svg xmlns="http://www.w3.org/2000/svg" height="81.328" width="600">
    <path fill="#162b48" d="M43.975 32.804a14.209 14.209 0 0 0-3.146-3.553 14.549 14.549 0 0 0-4.277-2.382 14.673 14.673 0 0 0-4.992-.854c-3.17 0-5.87.618-8.089 1.846a15.314 15.314 0 0 0-5.398 4.943c-1.382 2.073-2.382 4.423-3.008 7.057a34.927 34.927 0 0 0-.951 8.187c0 2.699.317 5.325.951 7.87.626 2.544 1.626 4.845 3.008 6.877 1.382 2.041 3.179 3.675 5.398 4.903 2.22 1.227 4.919 1.845 8.09 1.845 4.316 0 7.69-1.317 10.12-3.959 2.431-2.634 3.911-6.114 4.456-10.43h13.666c-.358 4.015-1.293 7.641-2.789 10.877-1.496 3.244-3.48 6-5.935 8.276-2.463 2.277-5.341 4.016-8.634 5.22-3.3 1.195-6.927 1.796-10.886 1.796-4.91 0-9.333-.853-13.259-2.56-3.926-1.716-7.243-4.066-9.934-7.066-2.7-2.991-4.772-6.52-6.211-10.56C.715 57.087 0 52.722 0 48.047c0-4.796.716-9.243 2.155-13.357 1.439-4.106 3.512-7.683 6.21-10.747 2.692-3.057 6.009-5.456 9.936-7.195 3.927-1.732 8.35-2.602 13.259-2.602 3.544 0 6.886.504 10.032 1.528 3.146 1.017 5.967 2.504 8.455 4.447 2.488 1.952 4.536 4.366 6.162 7.244 1.618 2.878 2.634 6.17 3.057 9.895H45.592a11.474 11.474 0 0 0-1.618-4.456M65.375 15.688v64.219H96.5c2.878 0 5.675-.37 8.406-1.094 2.724-.715 5.151-1.808 7.281-3.312 2.13-1.496 3.803-3.447 5.063-5.813 1.26-2.366 1.906-5.162 1.906-8.406 0-4.016-.994-7.436-2.937-10.281-1.952-2.845-4.885-4.862-8.844-6 2.878-1.374 5.06-3.15 6.531-5.313 1.472-2.154 2.187-4.858 2.187-8.093 0-3-.484-5.499-1.468-7.532-.992-2.04-2.391-3.678-4.188-4.906s-3.948-2.111-6.469-2.656c-2.52-.536-5.318-.812-8.375-.812H65.374zM79.5 26.657h13.219c1.26 0 2.454.101 3.625.313s2.223.588 3.125 1.125a6.04 6.04 0 0 1 2.156 2.25c.545.959.813 2.183.813 3.687 0 2.7-.82 4.64-2.438 5.844-1.618 1.195-3.706 1.812-6.219 1.812h-14.28v-15.03zm0 24.656h15.375c3.057 0 5.513.68 7.375 2.094 1.854 1.406 2.781 3.762 2.781 7.062 0 1.675-.274 3.075-.844 4.157a6.755 6.755 0 0 1-2.312 2.53 9.696 9.696 0 0 1-3.313 1.376c-1.26.268-2.586.406-3.968.406H79.5V51.313zM138.81 64.06c.78 1.504 1.813 2.715 3.106 3.642 1.284.935 2.796 1.618 4.536 2.073a21.58 21.58 0 0 0 5.398.667c1.26 0 2.61-.098 4.049-.309a13.965 13.965 0 0 0 4.04-1.22 8.83 8.83 0 0 0 3.155-2.471c.837-1.049 1.26-2.382 1.26-4 0-1.74-.56-3.146-1.666-4.228-1.114-1.08-2.561-1.975-4.366-2.699-1.797-.715-3.837-1.35-6.114-1.886a181.776 181.776 0 0 1-6.927-1.797 61.546 61.546 0 0 1-7.008-2.203c-2.284-.87-4.317-1.992-6.121-3.374-1.797-1.382-3.252-3.105-4.358-5.17-1.114-2.073-1.667-4.57-1.667-7.512 0-3.293.708-6.163 2.114-8.586a19.103 19.103 0 0 1 5.529-6.073c2.284-1.617 4.861-2.82 7.74-3.601 2.877-.772 5.755-1.163 8.633-1.163 3.358 0 6.577.374 9.667 1.122 3.09.748 5.829 1.968 8.227 3.642a18.516 18.516 0 0 1 5.716 6.431c1.406 2.61 2.105 5.772 2.105 9.488h-13.666c-.122-1.919-.528-3.512-1.211-4.764-.691-1.26-1.61-2.252-2.748-2.968-1.138-.723-2.44-1.227-3.91-1.528-1.472-.301-3.074-.456-4.814-.456-1.138 0-2.276.123-3.414.366a9.24 9.24 0 0 0-3.106 1.252 7.861 7.861 0 0 0-2.292 2.252c-.602.903-.895 2.041-.895 3.415 0 1.26.236 2.285.716 3.057.48.78 1.422 1.504 2.837 2.162 1.406.659 3.35 1.318 5.845 1.976 2.488.659 5.74 1.504 9.756 2.52 1.195.244 2.862.675 4.992 1.301 2.13.634 4.236 1.634 6.341 3.016 2.098 1.382 3.91 3.22 5.44 5.529 1.528 2.308 2.292 5.26 2.292 8.861 0 2.935-.57 5.667-1.707 8.187-1.139 2.512-2.838 4.691-5.082 6.52-2.252 1.83-5.04 3.252-8.365 4.268-3.325 1.017-7.179 1.529-11.552 1.529a40.87 40.87 0 0 1-10.3-1.3c-3.325-.87-6.268-2.237-8.813-4.098-2.553-1.854-4.577-4.228-6.073-7.106-1.496-2.878-2.22-6.292-2.155-10.252h13.666c0 2.163.39 3.992 1.171 5.488M214.56 15.969c-17.854 0-32.344 14.499-32.344 32.344 0 17.854 14.49 32.312 32.344 32.312 17.861 0 32.312-14.459 32.312-32.312 0-17.845-14.451-32.344-32.312-32.344zm0 13.281c13.407 0 24.122 8.39 29.781 18.844-5.65 10.438-16.27 19.275-29.78 19.218-13.27-.065-24.06-8.779-29.78-19.218 5.79-10.399 16.62-18.844 29.78-18.844zm0 1.969c-9.455 0-17.156 7.67-17.156 17.125s7.7 17.156 17.156 17.156c9.471 0 17.125-7.702 17.125-17.156 0-9.455-7.653-17.125-17.125-17.125z"/>
    <path fill="#0095c4" d="M300.97 0v21.625s-7.278-7.219-18.25-7.219c-18.544 0-30.219 16.185-30.219 33.375 0 17.605 10.856 32.625 28.594 32.625 8.296 0 14.344-2.348 20.188-8.125v6.594h18.688V0h-19zm-13.938 32.219c8.919 0 14.875 6.577 14.875 15.438 0 8.744-5.527 15.656-15.469 15.656-8.72 0-14.562-7.091-14.562-15.844 0-8.021 5.514-15.25 15.156-15.25zM393.25 14.406c-17.53 0-30.562 15.543-30.562 33.156 0 20.273 12.001 32.844 29.531 32.844 11.994 0 18.875-7.719 18.875-7.719v6.188h19.156v-63.22h-18.875v6.47c-5.636-5.146-10.445-7.72-18.125-7.72zm3.781 17.719c8.412 0 14.97 6.388 14.97 15.656 0 9.168-7.075 15.438-15.595 15.438-8.81 0-14.344-7.208-14.344-15.969 0-8.337 5.842-15.125 14.97-15.125zM529.88 35.62v43.448h-19.16V42.012c0-7.107-2.469-9.991-8.62-9.991s-10.24 4.738-10.24 12.352v34.495h-19.385V41.796c0-6.891-2.244-9.775-8.196-9.775-6.15 0-10.249 4.43-10.249 12.252v34.595h-19.168V15.646h18.752v8.237s7.082-9.468 17.738-9.468c8.304 0 14.663 4.223 17.738 10.083 5.013-5.245 9.127-10.083 20.59-10.083 12.517 0 20.198 9.26 20.198 21.204M563 14.406c-17.53 0-30.562 15.543-30.562 33.156 0 20.273 12.001 32.844 29.531 32.844 11.994 0 18.875-7.719 18.875-7.719v6.188H600v-63.22h-18.875v6.47c-5.64-5.144-10.43-7.718-18.12-7.718zm3.781 17.719c8.396 0 14.97 6.388 14.97 15.656 0 9.168-7.06 15.438-15.563 15.438-8.819 0-14.344-7.208-14.344-15.969 0-8.337 5.803-15.125 14.938-15.125zM343.98 49.634v29.219h-19.415V15.456h18.69v10.016c1.553-4.748 7.439-11.252 15.073-11.252h4.333v19.82s-2.366-1.236-6.707-1.236c-7.43 0-11.976 4.545-11.976 16.828"/>
</svg>
