<svg width="783.84pt" height="176.98pt" preserveAspectRatio="xMidYMid" version="1.0" viewBox="0 0 783.84 176.98" xmlns="http://www.w3.org/2000/svg">
 <g transform="matrix(.1 0 0 -.1 -7.156 186)">
  <path d="m890 1840c-243-52-435-153-589-309-90-90-136-159-178-261-174-433 106-907 650-1099 165-58 271-75 472-75 182 0 256 9 405 51 73 21 216 81 229 97 8 9-14 68-80 217-50 112-93 206-95 208s-30-8-63-23c-110-49-203-67-376-73-246-8-386 27-496 125-87 77-139 224-124 348 14 119 102 238 221 301 117 62 128 63 566 63h398v450l-427-1c-375 0-438-3-513-19z"/>
  <path d="m2640 1841c-251-54-454-163-610-328-63-66-90-105-130-186-108-218-108-419 0-642 222-459 883-706 1465-546 96 27 231 79 254 99 20 17 18 21-69 217-49 110-91 204-93 209-1 5-43-8-93-27-130-52-260-71-449-64-215 7-328 48-425 154-70 77-94 143-94 268-1 92 1 105 29 159 43 85 103 147 182 189 128 66 133 67 575 67h398v450l-427-1c-373 0-439-3-513-18z"/>
  <path d="m3720 1635v-225h630v-1290h540v1290h576l148-367c82-203 198-493 260-645l111-278h660l67 163c37 89 101 243 141 342 41 99 107 258 146 353 39 94 103 250 142 345 39 94 104 252 145 349 41 98 74 180 74 183s-123 5-274 5h-275l-7-22c-3-13-41-106-84-208-42-102-114-275-160-385-45-110-114-273-151-363-38-90-69-168-69-174 0-30-28 30-155 327-75 176-156 367-181 425s-74 170-107 250l-62 145-1057 3-1058 2z"/>
  <path d="m7300 415v-295h610v590h-610z" fill="#f00"/>
 </g>
</svg>
