<svg enable-background="new 0 0 332.5 237.536" Googl="true" version="1.1" viewBox="0 0 800 571.51" xml:space="preserve" xmlns="http://www.w3.org/2000/svg">
<g transform="scale(2.406)">
	<path d="m22 0h17v103h-16.95z" fill="#39f"/>
	<path d="m294.77 0h17v103h-17c-7e-3 -34.34-7e-3 -68.673 0-103z" fill="#39f"/>
	<g fill="#fff">
		<path d="m228.63 150.77c5.065-2.282 10.972-1.614 15.4 1.74 5.52 4.35 7.86 11.33 9.73 17.83 3.33 13.465 3.81 27.478 1.41 41.14-0.63 4-3 8.66-7.45 9.21-3.327 0.364-6.319-2.039-6.682-5.366-3e-3 -0.025-5e-3 -0.049-8e-3 -0.074-0.79-9.22 2.56-18.48 0.47-27.63-0.57-3-3.6-5.62-6.71-4.89-4 1.3-6.65 5-8.61 8.54-4.09 7.75-6.44 16.26-9.09 24.57-1.82 6-4.76 12.31-10.53 15.44-9.46 5.13-22.9 4.06-29.71-4.91-5.88-8-9.86-17.21-15.32-25.48-1.46-1.86-3.48-4.69-6.23-3.69-2.69 0.73-3.38 3.9-3.38 6.33 0.41 9.06 4.79 17.29 6.27 26.14 0.86 3.6-1.46 8.44-5.72 7.81-4 0.46-6.4-3.39-7.76-6.56-6-14.68-9.24-31.07-5.85-46.79 1.56-7.25 4-14.82 9.62-20s15.14-6.3 21.28-1.37c8.76 6.81 12.45 17.83 19.83 25.81 4.07 4.51 11.93 4.73 15.58-0.4 7.97-12.17 8.49-30.87 23.46-37.4z"/>
		<path d="m294.69 163.11h17.31v20.89h20.5v16.95h-20.55v20.85h-17.26v-20.88h-20.86v-16.92h20.86z"/>
	</g>
	<g fill="#fff">
		<path d="m94.121 59.127 2.902-14.222h-16.689v-17.124h20.172l5.369-26.556h17.415l-5.37 26.556h13.351l5.515-26.556h17.414l-5.514 26.556h16.108v17.125h-19.591l-2.903 14.221h16.689v17.123h-20.172l-5.369 26.557h-17.414l5.369-26.557h-13.351l-5.515 26.557h-17.413l5.515-26.557h-16.109v-17.123zm17.414 0h13.351l2.902-14.222h-13.351z"/>
		<path d="m216.47 0.063c6.287 0 11.849 1.186 16.688 3.556 4.836 2.371 8.925 5.782 12.262 10.23 3.338 4.452 5.877 9.894 7.619 16.326 1.741 6.436 2.612 13.714 2.612 21.841s-0.871 15.408-2.612 21.84c-1.742 6.436-4.282 11.878-7.619 16.326-3.338 4.452-7.426 7.861-12.262 10.231-4.839 2.372-10.401 3.556-16.688 3.556-6.291 0-11.853-1.184-16.689-3.556-4.839-2.37-8.925-5.779-12.263-10.231-3.338-4.448-5.877-9.89-7.618-16.326-1.742-6.432-2.613-13.713-2.613-21.84s0.871-15.405 2.613-21.841c1.741-6.432 4.281-11.874 7.618-16.326 3.338-4.448 7.423-7.859 12.263-10.23 4.836-2.37 10.398-3.556 16.689-3.556zm0 20.897c-5.42 0-9.53 2.685-12.335 8.055-2.807 5.369-4.209 13.038-4.209 23.001 0 9.966 1.402 17.631 4.209 23.001 2.805 5.369 6.916 8.054 12.335 8.054 5.417 0 9.528-2.685 12.335-8.054 2.805-5.37 4.209-13.035 4.209-23.001 0-9.963-1.403-17.632-4.209-23.001-2.808-5.37-6.918-8.055-12.335-8.055z"/>
	</g>
	<g fill="#fff">
		<path d="m35.262 202.68c0 2.865-0.359 5.482-1.074 7.853-0.716 2.371-1.791 4.396-3.222 6.075-1.433 1.679-3.211 2.988-5.334 3.926-2.124 0.938-4.593 1.408-7.408 1.408-1.877 0-3.643-0.408-5.296-1.222-1.655-0.815-2.902-1.741-3.741-2.778v18.52h-9.187v-52.449h9.186v3.852c0.247-0.493 0.641-1 1.186-1.519 0.543-0.518 1.209-1 2-1.444 0.789-0.445 1.678-0.802 2.667-1.074 0.987-0.271 2.049-0.408 3.185-0.408 2.815 0 5.284 0.47 7.408 1.408 2.123 0.939 3.901 2.248 5.334 3.926 1.432 1.679 2.506 3.704 3.222 6.074s1.074 4.988 1.074 7.852zm-9.63 0c0-3.704-0.84-6.531-2.518-8.482-1.68-1.95-3.729-2.926-6.149-2.926s-4.458 0.976-6.112 2.926c-1.655 1.952-2.482 4.778-2.482 8.482s0.826 6.532 2.482 8.482c1.654 1.952 3.691 2.926 6.112 2.926 2.419 0 4.469-0.975 6.149-2.926 1.678-1.95 2.518-4.778 2.518-8.482z"/>
		<path d="m40.617 202.68c0-2.715 0.419-5.247 1.259-7.593 0.839-2.345 2.074-4.382 3.704-6.112 1.63-1.728 3.617-3.086 5.963-4.074 2.345-0.987 5.025-1.482 8.038-1.482 3.012 0 5.692 0.495 8.038 1.482 2.345 0.988 4.334 2.346 5.964 4.074 1.63 1.73 2.864 3.767 3.704 6.112 0.839 2.346 1.259 4.878 1.259 7.593 0 2.717-0.42 5.248-1.259 7.593-0.841 2.347-2.074 4.384-3.704 6.112-1.63 1.729-3.619 3.087-5.964 4.074-2.346 0.987-5.026 1.482-8.038 1.482-3.013 0-5.692-0.495-8.038-1.482s-4.334-2.345-5.963-4.074c-1.63-1.728-2.865-3.765-3.704-6.112-0.841-2.345-1.259-4.876-1.259-7.593zm9.63 0c0 1.532 0.21 2.989 0.63 4.371 0.419 1.383 1.025 2.593 1.815 3.63 0.789 1.037 1.765 1.865 2.926 2.482 1.16 0.618 2.482 0.926 3.963 0.926 1.482 0 2.803-0.308 3.964-0.926 1.16-0.617 2.135-1.445 2.926-2.482 0.789-1.037 1.395-2.247 1.815-3.63 0.419-1.382 0.63-2.839 0.63-4.371 0-1.53-0.21-2.988-0.63-4.371-0.42-1.382-1.026-2.593-1.815-3.63-0.791-1.037-1.767-1.863-2.926-2.482-1.161-0.617-2.482-0.926-3.964-0.926s-2.803 0.309-3.963 0.926c-1.161 0.618-2.137 1.445-2.926 2.482-0.791 1.037-1.396 2.248-1.815 3.63-0.421 1.383-0.63 2.841-0.63 4.371z"/>
		<path d="m84.77 221.35v-37.337h9.186v6.075c1.334-2.223 2.975-3.889 4.926-5.001 1.951-1.111 3.988-1.667 6.112-1.667 0.395 0 0.852 0.026 1.371 0.074 0.519 0.05 1 0.124 1.445 0.222v8.964c-1.137-0.691-2.42-1.037-3.852-1.037-1.333 0-2.606 0.296-3.815 0.889-1.211 0.592-2.272 1.531-3.185 2.815-0.914 1.285-1.642 2.976-2.185 5.075-0.544 2.1-0.815 4.655-0.815 7.667v13.26h-9.188z"/>
	</g>
</g>
</svg>
