<svg version="1.1" viewBox="0 0 924.72 300" xml:space="preserve" xmlns="http://www.w3.org/2000/svg">
<path d="m280.5 107.65c0 21.874-10.723 41.175-33.026 41.175s-33.454-21.445-33.454-42.461c0-21.016 9.8647-42.461 33.454-42.461 23.59 0 33.026 21.874 33.026 43.748zm72.484-65.193h-26.592v127.38h26.592zm83.207 79.347c0 14.153-4.7179 29.594-21.016 29.594-16.298 0-21.445-15.011-21.445-28.737 0-13.725 5.5757-27.449 21.874-27.449 16.298 0 20.587 13.725 20.587 26.592zm177.14 48.465v-59.188c0-11.581 0-21.445-10.294-30.023-6.0046-4.289-13.296-6.8624-20.587-6.8624-11.581 0-22.303 6.0046-27.879 16.298-3.8601-10.294-13.725-17.156-24.876-16.298-11.151-0.8578-21.445 5.1468-26.163 15.012v-12.438h-26.592v93.501h26.592v-49.753c0-9.0069 1.2867-21.874 15.011-21.874 13.725 0 13.296 11.151 13.296 18.871v53.183h27.02v-49.324c0-10.723 0.4289-22.731 14.153-22.731 13.725 0 13.725 12.438 13.725 22.731v48.894zm83.207-48.466c0 14.153-4.7179 29.594-21.016 29.594s-21.445-15.011-21.445-28.737c0-13.725 5.5757-27.449 21.445-27.449 15.869 0 21.016 13.725 21.016 26.592zm123.52 48.465v-93.501h-25.734v48.894c0 14.153-3.0023 25.305-16.298 25.305-13.296 0-14.582-10.294-14.582-20.587v-53.613h-26.592v54.899c0 17.585 2.1445 41.604 31.309 41.604 9.4358 0 21.445-3.8601 26.592-12.867v10.294zm78.488-36.027c-0.42891 9.4358-8.578 16.727-18.014 16.298-15.441 0-18.871-15.441-18.871-28.308 0-12.867 4.289-26.592 19.301-26.592 8.578-0.4289 15.87 5.5757 17.156 14.153l25.305-0.8578c-1.2867-23.59-21.874-35.598-41.604-35.598-30.452 0-48.037 21.016-48.037 50.182 0 29.165 16.298 49.324 46.321 49.324 23.16 0 39.887-11.581 44.605-37.743zm-588.02-28.308c0-38.601-24.019-66.48-63.477-66.48-39.459 0-63.049 28.308-63.049 67.338 0 39.03 23.59 66.48 62.62 66.48 39.03 0 63.906-28.308 63.906-67.338zm153.12 17.156c0-27.879-18.014-49.324-46.75-49.324-28.737 0-50.182 19.73-50.182 50.182 0 30.452 18.442 49.324 47.608 49.324 29.165 0 49.324-21.445 49.324-50.182zm259.92-3.4e-4c0-27.879-18.014-49.324-46.75-49.324-28.737 0-49.753 19.73-49.753 50.182 0 30.452 18.442 49.324 47.608 49.324s48.894-21.445 48.894-50.182z" fill="#00ab96" stroke-width=".99937"/><path d="m0 140.25h119.66l18.442 30.023h-138.11zm0-46.75v29.594h108.94l-18.442-29.594zm116.67-16.727h-116.67v-29.594h124.81v3.4312c0.4289 9.4358-2.5734 18.442-8.1491 26.163m-56.615-76.773h-60.046v30.023h121.38c-9.0069-20.587-32.168-30.023-61.332-30.023" fill="#00ab96" stroke-width=".99937"/>
<path d="m430.26 241.7h-13.441l-7.3976 30.056-8.0961-30.056h-13.778l12.912 36.163c0.69849 1.9791 1.8097 4.2226 1.8097 6.371 0 1.4605-0.68789 3.6194-1.8837 4.5613-1.217 0.95245-3.8841 1.1217-5.3443 1.1217-1.1219 0-2.233-0.0847-3.3549-0.0847v9.9902c1.1219 0 2.233 0.16921 3.3549 0.16921 5.5137 0 12.488 0.34904 16.266-4.3919 1.8204-2.3176 3.2807-6.8048 4.2332-9.641zm-5.3338-18.775h-15.176l-6.1804 12.848h9.8421zm111.83 63.423v-9.4718l22.043-24.628h-19.546v-10.509h35.305v10.245l-21.357 23.854h22.827v10.509zm72.938 0v-24.976c0-2.8362 0.16919-6.2862-2.1484-8.35-1.2064-1.1217-2.8469-1.5451-4.4873-1.5451-1.8837 0-3.4395 0.50801-4.8998 1.7144-3.0161 2.4976-2.8469 6.7203-2.8469 10.256v22.902h-12.572v-60.789h12.572v20.744c1.9791-3.5241 8.35-5.5985 12.139-5.5985 2.9315 0 6.4663 0.78315 8.8687 2.4976 5.175 3.7042 6.0323 8.6993 6.0323 14.647v28.5zm34.099 0h-12.657v-60.789h12.657zm95.48-13.694c0-11.197-11.017-13.176-19.622-14.976-2.3283-0.52918-7.5774-1.1219-7.5774-4.3074 0-3.1855 3.7887-3.6194 6.1911-3.6194 2.4236 0 5.1646 0.85723 6.7203 2.8362 0.68794 0.86778 0.95248 2.5823 1.1218 3.6194l11.875-0.60322c-0.50802-10.933-9.7259-15.155-19.537-15.155-9.0378 0-18.605 3.6194-18.605 14.118 0 17.833 26.521 11.377 26.521 19.377 0 3.5348-3.6088 4.138-6.371 4.138-5.6832 0-8.6993-1.6404-9.4718-7.408l-12.054 0.43388c0 1.4605 0.0849 2.6668 0.4339 4.1273 2.233 9.2179 11.705 12.403 20.234 12.403 9.7259 0 20.139-3.4502 20.139-14.986m-47.104-11.165c0-3.6194 0.16922-8.7946-1.2065-12.149-3.2701-7.7575-11.631-8.9638-19.028-8.9638-10.086 0-18.435 4.3074-19.04 15.43h11.716c-0.17976-4.3919 4.3074-5.6091 7.8315-5.6091 2.6775 0 6.8048 0.69848 6.8048 4.138 0 3.1855-4.6459 3.3653-6.8897 3.7042-9.6412 1.3758-21.96 2.4975-21.96 15.165 0 9.0378 6.8895 14.382 15.504 14.382 6.371 0 9.1332-1.8945 14.033-5.3443l0.0955 4.0427h12.149zm-12.572 10.33c-2.1589 3.7042-6.2016 5.7784-10.424 5.7784-2.9315 0-5.9477-1.3864-5.9477-4.7412 0-5.7784 9.2179-5.8526 13.272-6.8896 1.0266-0.26462 2.0637-0.60327 3.1006-1.0372zm-433.36-5.8418-14.213-0.94191c-0.0846 6.8895-6.5404 11.187-12.996 11.187-3.4502 0-6.7203-1.1111-9.3871-3.2701-5.1646-4.3074-6.2016-11.102-6.2016-17.388 0-10.076 4.0428-20.065 15.588-20.065 4.7306 0 8.9533 1.8098 11.366 6.117 0.51855 1.0266 1.0266 2.0637 1.2912 3.1856l13.683-0.95249c-0.16938-1.4605-0.60321-2.7516-1.0266-4.1275-3.6194-10.762-14.382-15.673-25.144-15.673-19.028 0-30.479 12.996-30.479 31.6 0 12.742 6.0323 25.229 18.34 30.046 3.7887 1.4711 7.9162 1.979 11.969 1.979 9.8953 0 19.112-3.6088 24.193-12.477 1.6404-2.8469 2.6668-6.0325 3.0161-9.2178m47.265 1.7249v-2.159c0-13.769-7.0588-25.134-21.948-25.134-13.694 0-22.563 10.245-22.563 23.59 0 13.694 8.4347 23.59 22.563 23.59 9.8104 0 18.256-4.6459 21.442-14.202l-12.752-0.85721c-1.8944 3.3549-4.3814 4.7306-8.35 4.7306-5.8524 0-8.8687-4.0428-9.641-9.5565zm-13.346-9.641h-17.823c1.3758-5.0797 4.138-7.662 9.5566-7.662 4.5613 0 7.8421 3.175 8.2655 7.662m57.868 14.552c0-11.197-11.027-13.176-19.642-14.986-2.3176-0.51857-7.5669-1.1219-7.5669-4.3074 0-3.1856 3.7782-3.6088 6.1911-3.6088 2.4129 0 5.1646 0.8572 6.7203 2.8362 0.68789 0.85721 0.95248 2.5823 1.1219 3.6194l11.885-0.60321c-0.51856-10.933-9.7365-15.155-19.547-15.155-9.0485 0-18.605 3.6194-18.605 14.118 0 17.823 26.521 11.366 26.521 19.377 0 3.5241-3.6088 4.1275-6.371 4.1275-5.683 0-8.6993-1.6299-9.4718-7.3976l-12.054 0.42341c0 1.4711 0.0847 2.6775 0.4339 4.138 2.233 9.2177 11.705 12.392 20.234 12.392 9.7259 0 20.149-3.4395 20.149-14.976m50.618 13.683-18.425-27.729 17.218-16.869h-16.435l-13.778 15.239v-31.431h-12.657v60.789h12.657v-14.806l4.1273-4.138 11.197 18.945zm96.783-33.749v-11.536c-0.77258-0.0847-1.4605-0.16919-2.2435-0.16919-6.0218 0-9.3766 2.5716-11.536 8.1702v-7.3129h-12.392v44.598h13.007v-14.541c0-2.2435 0-4.5718 0.0739-6.8048 0.17975-7.2386 1.217-12.657 10.086-12.657 1.0266 0 1.979 0.0848 3.0057 0.25411m48.216 11.282c0-13.346-8.604-23.421-22.298-23.421-14.467 0-23.854 9.3871-23.854 23.854 0 13.683 8.6993 23.326 22.648 23.326 13.864 0 23.505-9.9902 23.505-23.759m-12.996-0.51857c0 6.6249-2.2435 13.949-10.076 13.949-7.662 0-10.076-7.0588-10.076-13.515 0-6.6355 2.5823-13.176 10.245-13.176 7.4929 0 9.9062 6.371 9.9062 12.742m-295.91-43.105h-14.785l-7.9479-10.044h11.631l3.8416 5.8206 3.6617-5.8206h11.811z" fill="#00ab96" stroke-width="1.6954"/></svg>
