<svg version="1.1" viewBox="0 0 618.26 300" xmlns="http://www.w3.org/2000/svg">
 <g transform="matrix(.61892 0 0 .61892 -167.1 -81.262)">
  <g transform="matrix(9.8077,0,0,9.8077,-2377.5,-5426.2)">
   <g transform="matrix(1.25,0,0,-1.25,269.94,594.63)">
    <path d="m0 0h19.067l2.933-4.769h-22zm0 7.451v-4.735h17.396l-2.913 4.735zm18.662 2.716h-18.662v4.744h19.913c9e-3 -0.186 0.014-0.374 0.012-0.566-0.016-1.765-0.439-3.126-1.263-4.178m-9.087 12.22h-9.575v-4.761h19.317c-1.396 3.253-5.071 4.761-9.742 4.761" fill="#09c9d7"/>
   </g>
   <g transform="matrix(1.25,0,0,-1.25,310.35,606.54)">
    <path d="m0 0h-1.413l-0.759 0.959h1.111l0.367-0.556 0.351 0.556h1.128zm28.268-4.118c0-0.633-0.215-1.332-0.963-1.332-0.732 0-0.963 0.674-0.963 1.291 0 0.633 0.248 1.258 0.979 1.258 0.716 0 0.947-0.608 0.947-1.217m1.242-0.049c0 1.275-0.823 2.237-2.131 2.237-1.382 0-2.278-0.897-2.278-2.279 0-1.308 0.831-2.229 2.163-2.229 1.324 0 2.246 0.955 2.246 2.271m-4.606 1.077v1.102c-0.074 9e-3 -0.14 0.017-0.215 0.017-0.575 0-0.896-0.247-1.101-0.781v0.699h-1.185v-4.261h1.242v1.39c0 0.214 0 0.436 9e-3 0.65 0.016 0.691 0.115 1.209 0.962 1.209 0.099 0 0.189-8e-3 0.288-0.025m-9.246-3.224-1.759 2.649 1.644 1.612h-1.571l-1.316-1.456v3.002h-1.209v-5.807h1.209v1.415l0.395 0.395 1.069-1.81zm-4.835 1.307c0 1.07-1.054 1.26-1.876 1.432-0.222 0.049-0.724 0.107-0.724 0.411 0 0.305 0.362 0.346 0.592 0.346 0.231 0 0.493-0.083 0.642-0.272 0.066-0.082 0.09-0.246 0.107-0.345l1.135 0.058c-0.049 1.044-0.93 1.447-1.867 1.447-0.864 0-1.777-0.345-1.777-1.349 0-1.702 2.533-1.086 2.533-1.851 0-0.337-0.345-0.394-0.608-0.394-0.543 0-0.831 0.156-0.905 0.707l-1.152-0.041c0-0.14 8e-3 -0.255 0.041-0.395 0.214-0.881 1.119-1.185 1.934-1.185 0.929 0 1.925 0.33 1.925 1.431m-5.528 1.391h-1.703c0.132 0.485 0.395 0.732 0.913 0.732 0.436 0 0.749-0.304 0.79-0.732m1.275-0.922v0.206c0 1.316-0.675 2.402-2.098 2.402-1.308 0-2.155-0.979-2.155-2.254 0-1.308 0.806-2.254 2.155-2.254 0.938 0 1.744 0.445 2.048 1.357l-1.217 0.083c-0.181-0.321-0.419-0.452-0.798-0.452-0.559 0-0.847 0.386-0.921 0.912zm-4.516 0.165-1.357 0.09c-8e-3 -0.658-0.625-1.069-1.242-1.069-0.329 0-0.642 0.107-0.897 0.313-0.493 0.412-0.592 1.061-0.592 1.662 0 0.962 0.387 1.916 1.489 1.916 0.452 0 0.855-0.173 1.085-0.584 0.05-0.099 0.099-0.198 0.124-0.304l1.308 0.09c-0.016 0.14-0.058 0.264-0.099 0.395-0.345 1.028-1.373 1.497-2.402 1.497-1.817 0-2.912-1.242-2.912-3.019 0-1.217 0.576-2.41 1.753-2.87 0.361-0.14 0.756-0.189 1.143-0.189 0.946 0 1.826 0.345 2.311 1.192 0.157 0.272 0.255 0.576 0.288 0.88m41.398-0.558c-0.205-0.354-0.592-0.552-0.995-0.552-0.28 0-0.568 0.133-0.568 0.454 0 0.551 0.881 0.559 1.267 0.658 0.099 0.024 0.197 0.057 0.296 0.098zm1.202 0.987c0 0.346 0.016 0.84-0.116 1.16-0.313 0.741-1.111 0.857-1.817 0.857-0.963 0-1.762-0.412-1.82-1.474h1.12c-0.016 0.42 0.411 0.535 0.749 0.535 0.255 0 0.65-0.065 0.65-0.395 0-0.304-0.445-0.321-0.659-0.353-0.921-0.132-2.098-0.239-2.098-1.449 0-0.863 0.658-1.374 1.482-1.374 0.608 0 0.872 0.181 1.341 0.511l8e-3 -0.387h1.161zm4.5-1.067c0 1.07-1.052 1.259-1.875 1.431-0.222 0.05-0.724 0.107-0.724 0.412 0 0.304 0.362 0.345 0.592 0.345 0.231 0 0.494-0.082 0.642-0.271 0.065-0.082 0.09-0.247 0.107-0.346l1.135 0.058c-0.05 1.045-0.929 1.448-1.867 1.448-0.864 0-1.777-0.346-1.777-1.349 0-1.703 2.533-1.086 2.533-1.851 0-0.337-0.344-0.395-0.609-0.395-0.542 0-0.831 0.156-0.904 0.707l-1.152-0.04c0-0.14 8e-3 -0.256 0.041-0.395 0.214-0.881 1.119-1.185 1.933-1.185 0.93 0 1.925 0.329 1.925 1.431m-9.122-1.308h-1.209v5.807h1.209zm-3.257 0v2.386c0 0.271 0.017 0.6-0.205 0.798-0.116 0.107-0.272 0.148-0.428 0.148-0.181 0-0.329-0.05-0.469-0.165-0.289-0.239-0.271-0.641-0.271-0.978v-2.189h-1.201v5.808h1.201v-1.983c0.188 0.338 0.797 0.535 1.159 0.535 0.281 0 0.617-0.074 0.847-0.239 0.494-0.353 0.576-0.83 0.576-1.398v-2.723zm-6.967 0v0.906l2.106 2.351h-1.867v1.004h3.372v-0.979l-2.04-2.278h2.18v-1.004zm-10.683 6.059h-1.451l-0.59-1.228h0.941zm0.509-1.793h-1.283l-0.707-2.871-0.774 2.871h-1.316l1.234-3.455c0.066-0.189 0.173-0.403 0.173-0.609 0-0.139-0.066-0.345-0.181-0.436-0.116-0.09-0.371-0.107-0.511-0.107-0.106 0-0.213 8e-3 -0.32 8e-3v-0.954c0.107 0 0.214-0.016 0.32-0.016 0.527 0 1.193-0.033 1.555 0.419 0.173 0.222 0.313 0.65 0.403 0.921z" fill="#09c9d7"/>
   </g>
   <g transform="matrix(1.25,0,0,-1.25,318.3,585.32)">
    <path d="m0 0h-2.956l-2.559-8.869-2.594 8.869h-2.991l4.288-12.206h2.542zm3.492 0h-2.542v-12.206h2.542zm6.553-12.189v1.971c-0.225-0.017-0.467-0.035-0.692-0.035-0.812 0-0.968 0.277-0.968 1.038v4.028h1.574v1.937h-1.574v2.645h-2.541v-2.645h-1.28v-1.937h1.28v-3.873c0-0.155-0.018-0.294-0.018-0.449 0-1.867 0.467-2.801 2.473-2.801 0.588 0 1.158 0.052 1.746 0.121m18.361 8.939h-2.697l-1.487-5.55-1.642 5.55h-2.715l3.095-8.956h2.438zm8.492-8.953-2.44-1e-3 -0.017 0.813c-0.986-0.691-1.539-1.072-2.819-1.072-1.729 0-3.113 1.072-3.113 2.888 0 2.543 2.473 2.768 4.41 3.044 0.45 0.069 1.384 0.104 1.384 0.744 0 0.692-0.83 0.83-1.367 0.83-0.709 0-1.608-0.242-1.573-1.124h-2.352c0.121 2.231 1.798 3.096 3.822 3.096 1.487 0 3.165-0.242 3.822-1.799 0.277-0.674 0.242-1.712 0.242-2.439zm-2.526 4.289c-0.208-0.087-0.415-0.156-0.623-0.208-0.813-0.207-2.663-0.225-2.663-1.384 0-0.674 0.605-0.951 1.193-0.951 0.848 0 1.661 0.415 2.093 1.159zm-15.078 0.691c0 0.727 0.035 1.765-0.242 2.439-0.657 1.557-2.334 1.799-3.822 1.799-2.023 0-3.701-0.865-3.822-3.096h2.352c-0.034 0.882 0.865 1.124 1.574 1.124 0.536 0 1.366-0.138 1.366-0.83 0-0.64-0.934-0.675-1.383-0.744-1.937-0.276-4.411-0.501-4.411-3.044 0-1.816 1.384-2.888 3.114-2.888 1.279 0 1.833 0.381 2.819 1.072l0.017-0.813 2.44 1e-3zm-2.525-2.075c-0.432-0.744-1.245-1.159-2.092-1.159-0.588 0-1.194 0.277-1.194 0.951 0 1.159 1.851 1.177 2.664 1.384 0.207 0.052 0.415 0.121 0.622 0.208z" fill="#09c9d7"/>
   </g>
  </g>
 </g>
</svg>
