<svg version="1.1" viewBox="0 0 740.16 300" xml:space="preserve" xmlns="http://www.w3.org/2000/svg">
<path d="m292.78 42.266v22.68l-68.728 82.129h70.446v23.367h-108.25v-21.649l70.102-82.473h-66.322v-24.055zm40.549 128.17h-26.804v-128.17h26.804zm42.955 0h-26.46v-94.157h26.46zm-24.742-106.87 8.2474-26.46h29.896l-19.931 26.46zm98.281 106.87v-55.326c0-8.9346-3.78-17.869-14.089-17.869-10.309 0-15.807 11.34-15.807 21.306v51.889h-27.147v-94.157h26.116v10.996c6.1855-8.5909 15.807-13.402 26.116-13.402 6.8728 0 13.746 2.0619 19.587 6.1855 10.996 7.9036 12.371 19.587 12.371 32.302v57.732z" fill="#00ab96"/><path d="m60.136 0h-60.136v29.896h121.3c-8.5909-20.274-31.959-29.896-61.168-29.896m57.388 76.975h-117.52v-29.896h125.08v3.78c0 9.2782-2.4054 18.213-7.56 26.116m-117.52 16.839v29.553h109.28l-18.213-29.553zm0 46.735h119.93l18.213 29.896h-138.15z" fill="#00ab96"/>
<path d="m431.78 241.8h-13.413l-7.3824 30.008-8.0795-30.008h-13.75l12.886 36.105c0.69706 1.9759 1.806 4.2158 1.806 6.3608 0 1.4582-0.68648 3.6136-1.8798 4.554-1.2145 0.95091-3.8761 1.1199-5.3333 1.1199-1.1196 0-2.2284-0.0845-3.348-0.0845v9.9741c1.1196 0 2.2284 0.16894 3.348 0.16894 5.5024 0 12.462 0.34847 16.233-4.3848 1.8167-2.3139 3.274-6.7938 4.2245-9.6255zm-5.3229-18.745h-15.145l-6.1677 12.827h9.8219zm111.6 63.321v-9.4566l21.998-24.588h-19.506v-10.492h35.233v10.229l-21.313 23.816h22.78v10.492zm72.788 0v-24.936c0-2.8316 0.16884-6.2761-2.144-8.3366-1.2039-1.1199-2.8411-1.5426-4.4781-1.5426-1.8798 0-3.4324 0.5072-4.8898 1.7116-3.0099 2.4936-2.8411 6.7095-2.8411 10.24v22.865h-12.546v-60.691h12.546v20.711c1.975-3.5184 8.3329-5.5895 12.114-5.5895 2.9255 0 6.453 0.78188 8.8505 2.4936 5.1644 3.6982 6.0199 8.6853 6.0199 14.623v28.454zm34.029 0h-12.631v-60.691h12.631zm95.284-13.672c0-11.179-10.994-13.155-19.582-14.952-2.3235-0.52832-7.5618-1.1201-7.5618-4.3005 0-3.1804 3.7809-3.6136 6.1784-3.6136 2.4186 0 5.154 0.85585 6.7065 2.8316 0.68652 0.86638 0.95052 2.5782 1.1195 3.6136l11.851-0.60225c-0.50697-10.915-9.7059-15.131-19.497-15.131-9.0193 0-18.567 3.6136-18.567 14.095 0 17.804 26.467 11.359 26.467 19.346 0 3.5291-3.6014 4.1313-6.3579 4.1313-5.6715 0-8.6814-1.6378-9.4524-7.3961l-12.029 0.43318c0 1.4582 0.0847 2.6625 0.43301 4.1207 2.2284 9.2031 11.681 12.383 20.192 12.383 9.7059 0 20.098-3.4446 20.098-14.962m-47.007-11.147c0-3.6136 0.16888-8.7804-1.204-12.129-3.2634-7.745-11.607-8.9494-18.989-8.9494-10.065 0-18.397 4.3005-19.001 15.405h11.692c-0.17939-4.3848 4.2986-5.6001 7.8154-5.6001 2.672 0 6.7908 0.69736 6.7908 4.1313 0 3.1804-4.6364 3.3599-6.8756 3.6982-9.6214 1.3736-21.915 2.4935-21.915 15.141 0 9.0233 6.8754 14.359 15.472 14.359 6.3579 0 9.1145-1.8914 14.004-5.3357l0.0953 4.0362h12.124zm-12.546 10.313c-2.1545 3.6982-6.1889 5.7691-10.403 5.7691-2.9255 0-5.9355-1.3842-5.9355-4.7336 0-5.7691 9.199-5.8432 13.245-6.8785 1.0245-0.2642 2.0595-0.6023 3.0942-1.0355zm-432.47-5.8324-14.184-0.9404c-0.0844 6.8784-6.527 11.169-12.969 11.169-3.4431 0-6.7065-1.1093-9.3678-3.2648-5.154-4.3005-6.1889-11.084-6.1889-17.36 0-10.06 4.0345-20.033 15.556-20.033 4.7209 0 8.9349 1.8069 11.343 6.1072 0.51748 1.025 1.0245 2.0604 1.2886 3.1805l13.655-0.95096c-0.16904-1.4582-0.60198-2.7472-1.0245-4.1209-3.612-10.745-14.352-15.648-25.092-15.648-18.989 0-30.416 12.975-30.416 31.549 0 12.722 6.0199 25.188 18.302 29.998 3.7809 1.4687 7.9 1.9758 11.944 1.9758 9.875 0 19.073-3.603 24.143-12.457 1.637-2.8423 2.6613-6.0228 3.0099-9.203m47.168 1.7221v-2.1555c0-13.747-7.0443-25.094-21.903-25.094-13.666 0-22.517 10.229-22.517 23.552 0 13.672 8.4174 23.552 22.517 23.552 9.7903 0 18.219-4.6384 21.398-14.179l-12.726-0.85583c-1.8905 3.3495-4.3724 4.723-8.3329 4.723-5.8404 0-8.8505-4.0363-9.6212-9.5411zm-13.319-9.6255h-17.786c1.373-5.0715 4.1295-7.6497 9.537-7.6497 4.5519 0 7.826 3.1699 8.2485 7.6497m57.749 14.529c0-11.179-11.004-13.155-19.602-14.962-2.3128-0.51774-7.5514-1.1201-7.5514-4.3005 0-3.1805 3.7704-3.603 6.1784-3.603s5.154 0.85582 6.7065 2.8316c0.68647 0.85583 0.95052 2.5782 1.1196 3.6136l11.861-0.60224c-0.51749-10.915-9.7165-15.131-19.507-15.131-9.0299 0-18.567 3.6136-18.567 14.095 0 17.794 26.467 11.348 26.467 19.346 0 3.5184-3.6014 4.1209-6.3579 4.1209-5.6713 0-8.6814-1.6273-9.4524-7.3857l-12.029 0.42273c0 1.4687 0.0845 2.6732 0.43301 4.1313 2.2284 9.2029 11.681 12.372 20.192 12.372 9.7059 0 20.108-3.434 20.108-14.952m50.514 13.661-18.387-27.684 17.183-16.842h-16.401l-13.75 15.214v-31.38h-12.631v60.691h12.631v-14.782l4.1188-4.1313 11.174 18.915zm96.584-33.695v-11.517c-0.771-0.0845-1.4575-0.16893-2.2389-0.16893-6.0094 0-9.3574 2.5675-11.512 8.1571v-7.3011h-12.367v44.526h12.98v-14.518c0-2.2399 0-4.5644 0.0738-6.7938 0.17938-7.227 1.2145-12.637 10.065-12.637 1.0245 0 1.9749 0.0846 2.9995 0.2537m48.117 11.264c0-13.325-8.5863-23.383-22.252-23.383-14.437 0-23.805 9.372-23.805 23.816 0 13.661 8.6814 23.288 22.602 23.288 13.836 0 23.457-9.9741 23.457-23.721m-12.969-0.51774c0 6.6142-2.2389 13.927-10.055 13.927-7.6463 0-10.055-7.0474-10.055-13.493 0-6.6248 2.577-13.155 10.224-13.155 7.4775 0 9.8859 6.3608 9.8859 12.722m-295.3-43.036h-14.755l-7.9316-10.028h11.607l3.8337 5.8112 3.6542-5.8112h11.787z" fill="#00ab96" stroke-width="1.6923"/></svg>
