<svg version="1.1" viewBox="0 0 1334.5 300" xmlns="http://www.w3.org/2000/svg">
 <defs>
  <style>.cls-1 {
        fill: #ffffff;
        fill-rule: evenodd;
      }</style>
 </defs>
 <path class="cls-1" d="m59.469 0h-59.469v29.75h119.99c-8.6702-20.327-31.502-29.75-60.519-29.75m56.452 76.372h-115.92v-29.65h123.69c0.0594 1.1626 0.0901 2.3354 0.0798 3.5348-0.10234 11.034-2.7263 19.539-7.8474 26.113m-115.92 16.974v29.598h108.07l-18.108-29.598zm0 46.57h118.44l18.216 29.807h-136.65zm257.64-57.963c-0.89649-13.529-8.967-19.483-24.561-19.483-12.733 0-19.905 4.5029-19.905 12.991 0 8.6599 8.4286 11.003 21.16 13.892l16.495 3.7886c10.58 2.3456 36.94 8.4778 36.94 38.789 0 15.697-7.8903 40.772-53.077 40.772-28.69 0-52.897-9.9228-54.334-43.298l28.514-1.6231c0.17807 14.252 10.22 20.926 27.077 20.926 7.5301 0 22.59-1.6231 22.59-14.794 0-10.465-11.654-13.169-24.561-16.057l-8.9649-1.9833c-24.561-5.4117-40.526-14.794-40.526-38.07 0-34.818 34.795-38.428 50.926-38.428 29.946 0 49.123 14.432 50.388 40.412zm79.084 14.614v42.035c0 7.7573 1.4327 10.823 10.044 10.823 2.6895 0 4.4824-0.17807 7.1637-0.36023v20.566a143.43 143.43 0 0 1-18.11 1.2629c-21.696 0-25.462-10.461-25.462-29.226v-45.101h-13.271v-20.206h13.271v-27.603h26.356v27.603h16.321v20.206h-16.321zm48.601-59.533 8.7848 14.974 9.1471-14.974h20.263l-17.027 26.518h-25.292l-15.781-26.518zm7.8903 54.663c5.0187-12.989 12.731-17.138 24.027-17.138a25.607 25.607 0 0 1 4.6626 0.36023v24.17a38.479 38.479 0 0 0-6.2754-0.54035c-19.008 0-21.16 14.072-21.16 25.257v46.003h-27.071v-93.45h25.822v15.332zm58.82 39.151c1.6129 11.546 7.8903 20.024 20.083 20.024 8.2485 0 13.447-2.886 17.398-9.9228l26.537 1.8053c-6.6336 20.024-24.207 29.764-44.648 29.764-29.408 0-46.982-20.744-46.982-49.432 0-27.963 18.468-49.432 46.982-49.432 31.021 0 45.725 23.814 45.725 52.68v4.5029h-65.088zm37.298-20.208a16.898 16.898 0 0 0-17.215-16.055c-11.296 0-17.033 5.4117-19.903 16.055zm101.32 59.177v-9.0202c-5.3789 8.4778-15.06 11.364-24.561 11.364-26.36 0-39.63-24.357-39.63-48.169 0-25.437 12.731-49.974 40.884-49.974a33.848 33.848 0 0 1 22.234 8.4798v-40.053h26.71v127.37h-25.634zm-18.648-73.969c-14.166 0-18.648 15.146-18.648 26.88 0 12.809 3.7661 27.427 19.006 27.427 14.884 0 18.11-14.254 18.11-26.52 4e-3 -12.635-3.0415-27.791-18.464-27.791zm119.07 73.969v-55.03c0-9.0202-3.4058-17.858-13.808-17.858-12.553 0-15.965 11.186-15.965 21.108v51.784h-26.528v-93.46h25.82v10.819a32.728 32.728 0 0 1 45.189-6.8547c10.582 8.1175 12.371 19.485 12.371 32.112v57.371h-27.075zm70.657 0h-26.176v-93.456h26.18v93.452zm-24.385-106.26 8.0705-26.518h29.59l-19.907 26.52h-17.754zm211.6 63.684c-3.7661 31.93-30.841 45.463-57.023 45.463-42.495 0-62.76-32.474-62.76-67.112 0-38.969 23.849-66.211 63.481-66.211 24.385 0 50.205 12.809 54.51 41.494l-28.512 1.9854c-3.7661-13.713-14.704-19.485-26.358-19.485-24.029 0-32.458 20.926-32.458 42.035 0 18.583 6.4556 43.298 32.458 43.298 13.447 0 26.897-9.0202 27.075-23.452zm-42.544-96.526h-30.806l-16.579-21.039h24.24l8.0009 12.195 7.6427-12.195h24.61zm75.905 100.13c1.6149 11.546 7.8883 20.024 20.085 20.024 8.2445 0 13.447-2.886 17.398-9.9228l26.528 1.8073c-6.6316 20.024-24.207 29.764-44.648 29.764-29.408 0-46.978-20.744-46.978-49.432 0-27.963 18.468-49.432 46.978-49.432 31.023 0 45.725 23.814 45.725 52.68v4.5029h-65.088zm37.299-20.208a16.9 16.9 0 0 0-17.214-16.055c-11.298 0-17.037 5.4117-19.907 16.055zm125.53 24.537c-4.8406 25.789-21.16 37.344-43.934 37.344-29.586 0-45.905-20.384-45.905-49.072 0-29.226 17.576-49.792 47.522-49.792 19.547 0 40.166 11.906 41.421 35.18l-25.462 1.0807c-1.6128-9.2003-7.1637-14.432-16.497-14.432-15.06 0-19.545 13.713-19.545 26.7 0 12.809 3.5839 27.783 19.004 27.783a17.132 17.132 0 0 0 17.754-16.057zm68.686 34.64v-52.32c0-8.6599-0.3603-20.748-13.808-20.748-15.601 0-16.139 15.146-16.139 24.537v48.531h-26.178v-127.37h26.178v43.478c4.1222-7.3971 17.398-11.726 25.282-11.726 25.284 0 31.023 19.303 31.023 35.542v60.077h-26.358zm120.69-93.452-30.663 92.729c-1.6149 5.0515-4.8427 15.339-8.7868 20.206-6.8117 8.6579-17.398 9.2105-33.891 9.2105-2.8655 0-6.2754-0.36228-6.9938-0.36228v-20.934h8.7888c10.576 0 13.269-5.5938 13.269-11.726 0-3.7886-1.2547-6.4965-3.7661-13.351l-26.897-75.772h28.69l16.857 62.963 15.42-62.963z" fill="#00ab96" fill-opacity=".95686" stroke-width="2.0468" data-name="Střední Čechy"/>
 <path d="m434.36 241.05h-13.591l-7.4804 30.393-8.1867-30.393h-13.933l13.056 36.568c0.70631 2.0012 1.8299 4.2698 1.8299 6.4423 0 1.4768-0.69559 3.6599-1.9048 4.6124-1.2307 0.96312-3.9275 1.1343-5.4042 1.1343-1.1344 0-2.258-0.0857-3.3924-0.0857v10.102c1.1344 0 2.258 0.1711 3.3924 0.1711 5.5755 0 12.628 0.35295 16.448-4.4411 1.8407-2.3436 3.3175-6.881 4.2806-9.749zm-5.3936-18.985h-15.346l-6.2496 12.992h9.9523zm113.08 64.133v-9.5779l22.29-24.903h-19.765v-10.627h35.7v10.359l-21.596 24.121h23.082v10.627zm73.755 0v-25.256c0-2.868 0.17109-6.3566-2.1725-8.4435-1.22-1.1343-2.8788-1.5624-4.5375-1.5624-1.9048 0-3.478 0.51368-4.9547 1.7336-3.0499 2.5256-2.8788 6.7955-2.8788 10.37v23.158h-12.713v-61.469h12.713v20.976c2.0012-3.5635 8.4435-5.6611 12.275-5.6611 2.9643 0 6.5387 0.79192 8.968 2.5256 5.233 3.7456 6.0998 8.7967 6.0998 14.811v28.819zm34.48 0h-12.799v-61.469h12.799zm96.549-13.848c0-11.322-11.14-13.323-19.841-15.143-2.3544-0.53509-7.6623-1.1344-7.6623-4.3556s3.8311-3.6599 6.2604-3.6599c2.4507 0 5.2224 0.86682 6.7955 2.868 0.69565 0.8775 0.96314 2.6112 1.1344 3.6599l12.007-0.60998c-0.51369-11.055-9.8348-15.325-19.755-15.325-9.139 0-18.814 3.6599-18.814 14.276 0 18.032 26.818 11.504 26.818 19.594 0 3.5743-3.6492 4.1843-6.4423 4.1843-5.7468 0-8.7967-1.6587-9.5779-7.491l-12.189 0.43873c0 1.4768 0.0859 2.6967 0.43876 4.1735 2.258 9.3211 11.836 12.542 20.461 12.542 9.8348 0 20.365-3.4888 20.365-15.153m-47.632-11.29c0-3.6599 0.17111-8.893-1.22-12.285-3.3067-7.8444-11.761-9.0641-19.241-9.0641-10.199 0-18.642 4.3556-19.253 15.603h11.847c-0.18178-4.4411 4.3556-5.6719 7.9191-5.6719 2.7075 0 6.881 0.7063 6.881 4.1843 0 3.2212-4.6979 3.403-6.9668 3.7456-9.749 1.3912-22.206 2.5255-22.206 15.335 0 9.139 6.9666 14.543 15.678 14.543 6.4423 0 9.2354-1.9157 14.19-5.4042l0.0966 4.0879h12.285zm-12.713 10.445c-2.1831 3.7456-6.271 5.843-10.541 5.843-2.9643 0-6.0142-1.4019-6.0142-4.7943 0-5.843 9.3211-5.9181 13.42-6.9667 1.038-0.26758 2.0868-0.61002 3.1354-1.0488zm-438.21-5.9072-14.372-0.95245c-0.0856 6.9666-6.6136 11.312-13.141 11.312-3.4888 0-6.7955-1.1236-9.4922-3.3067-5.2224-4.3556-6.271-11.226-6.271-17.583 0-10.188 4.088-20.29 15.763-20.29 4.7836 0 9.0535 1.83 11.493 6.1855 0.52437 1.0381 1.038 2.0868 1.3056 3.2212l13.837-0.96315c-0.17127-1.4768-0.60997-2.7824-1.038-4.1737-3.6599-10.883-14.543-15.849-25.426-15.849-19.241 0-30.82 13.141-30.82 31.954 0 12.885 6.0998 25.512 18.546 30.382 3.8311 1.4875 8.0048 2.0012 12.103 2.0012 10.006 0 19.326-3.6492 24.464-12.617 1.6587-2.8788 2.6967-6.1 3.0499-9.321m47.794 1.7442v-2.1831c0-13.923-7.1378-25.416-22.194-25.416-13.848 0-22.815 10.359-22.815 23.854 0 13.848 8.5291 23.854 22.815 23.854 9.9203 0 18.46-4.6979 21.682-14.361l-12.895-0.86681c-1.9156 3.3924-4.4305 4.7836-8.4435 4.7836-5.9179 0-8.968-4.088-9.749-9.6635zm-13.495-9.749h-18.022c1.3912-5.1366 4.1843-7.7478 9.6635-7.7478 4.6124 0 7.9299 3.2105 8.358 7.7478m58.515 14.715c0-11.322-11.151-13.323-19.861-15.153-2.3436-0.52438-7.6516-1.1344-7.6516-4.3556s3.8205-3.6492 6.2604-3.6492 5.2224 0.86679 6.7955 2.868c0.69559 0.8668 0.96314 2.6112 1.1344 3.6599l12.018-0.60997c-0.52436-11.055-9.8454-15.325-19.765-15.325-9.1498 0-18.814 3.6599-18.814 14.276 0 18.022 26.818 11.493 26.818 19.594 0 3.5635-3.6492 4.1737-6.4423 4.1737-5.7466 0-8.7967-1.6481-9.5779-7.4804l-12.189 0.42815c0 1.4875 0.0856 2.7075 0.43874 4.1843 2.258 9.3209 11.836 12.531 20.461 12.531 9.8347 0 20.375-3.478 20.375-15.143m51.185 13.837-18.632-28.039 17.411-17.058h-16.619l-13.933 15.41v-31.783h-12.799v61.469h12.799v-14.971l4.1735-4.1843 11.322 19.157zm97.866-34.127v-11.665c-0.78122-0.0857-1.4768-0.1711-2.2686-0.1711-6.0892 0-9.4816 2.6004-11.665 8.2616v-7.3948h-12.531v45.097h13.152v-14.704c0-2.2686 0-4.623 0.0747-6.881 0.18177-7.3197 1.2307-12.799 10.199-12.799 1.0381 0 2.0012 0.0857 3.0393 0.25696m48.755 11.408c0-13.495-8.7003-23.683-22.548-23.683-14.629 0-24.121 9.4922-24.121 24.121 0 13.837 8.7967 23.587 22.901 23.587 14.019 0 23.768-10.102 23.768-24.025m-13.141-0.52439c0 6.6991-2.2686 14.105-10.188 14.105-7.7478 0-10.188-7.1378-10.188-13.666 0-6.7098 2.6112-13.323 10.359-13.323 7.5767 0 10.017 6.4423 10.017 12.885m-299.23-43.587h-14.95l-8.0369-10.156h11.761l3.8846 5.8858 3.7027-5.8858h11.943z" fill="#00ab96" stroke-width="1.7144"/>
</svg>
