<svg version="1.1" viewBox="0 0 800 412.49" xmlns="http://www.w3.org/2000/svg">
 <defs>
  <linearGradient id="c" x1="715.41" x2="716.85" y1="157.65" y2="278.03" gradientTransform="matrix(1.045 0 0 1.045 -1.0071 -1.2441)" gradientUnits="userSpaceOnUse">
   <stop stop-color="#e70205" offset="0"/>
   <stop stop-color="#5c0607" offset="1"/>
  </linearGradient>
  <linearGradient id="b" x1="408.52" x2="407.4" y1="157.42" y2="279.3" gradientTransform="matrix(1.045 0 0 1.045 -1.0071 -1.2441)" gradientUnits="userSpaceOnUse">
   <stop stop-color="#003297" offset="0"/>
   <stop stop-color="#3c6bc3" offset="1"/>
  </linearGradient>
  <linearGradient id="a" x1="176.81" x2="176.88" y1="26.823" y2="423.15" gradientTransform="matrix(1.045 0 0 1.045 -1.0071 -1.2441)" gradientUnits="userSpaceOnUse">
   <stop stop-color="#102d65" offset="0"/>
   <stop stop-color="#266ff0" offset="1"/>
  </linearGradient>
 </defs>
 <g transform="translate(-22.367 -27.631)">
  <path d="m192.48 163.07h459.36c6.2011 0 11.193 4.9923 11.193 11.193v104.98c0 6.2011-4.9922 11.193-11.193 11.193h-459.36c-6.2011 0-11.193-4.9922-11.193-11.193v-104.98c0-6.2011 4.9922-11.193 11.193-11.193z" fill="url(#b)" stroke-width="3.5674"/>
  <path d="m242.11 187.39v35.735h-30.949v-35.735h-8.09v80.175h8.09v-36.079h30.949v36.079h8.09v-80.175zm52.623 12.026 11.382 40.66h-22.859zm19.096 68.148h8.6544l-23.706-80.175h-8.1841l-23.8 80.175h8.7485l5.456-19.586h27.28zm26.273-80.175v80.175h8.09v-80.175zm52.436 8.9337c9.5716 0 15.527 6.2994 15.527 14.66 0 8.361-5.9556 14.775-15.527 14.775h-14.57v-29.436zm-23.716-8.9337v80.175h9.1462v-32.872h12.868l18.08 32.872h10.422l-19.037-34.017c10.316-2.9779 17.229-11.683 17.229-22.449 0-13.057-9.8906-23.709-24.992-23.709zm100.53 57.153 19.247-36.88v59.902h8.6209v-80.175h-7.3177l-24.259 46.616-24.259-46.616h-7.3177v80.175h8.6209v-59.787l19.247 36.766zm72.786-45.127 11.382 40.66h-22.859zm19.096 68.148h8.6544l-23.706-80.175h-8.1841l-23.8 80.175h8.7485l5.456-19.586h27.28zm65.511-80.175v61.047l-33.207-61.047h-6.8671v80.175h8.09v-60.818l33.207 60.818h6.8671v-80.175z" fill="#fff" stroke-width="1.2975"/>
  <path d="m691.13 163.07h120.05c6.2011 0 11.193 4.9923 11.193 11.193v104.98c0 6.2011-4.9922 11.193-11.193 11.193h-120.05c-6.2011 0-11.193-4.9922-11.193-11.193v-104.98c0-6.2011 4.9922-11.193 11.193-11.193z" fill="url(#c)" stroke-width="1.9397"/>
  <path d="m691.96 195.98h21.304v71.584h9.85v-71.584h21.304v-8.5901h-52.457zm68.721-8.5901h-10.537l27.03 80.174h10.194l26.916-80.174h-10.423l-21.647 69.065z" fill="#fff" stroke-width="1.4317" aria-label="TV"/>
  <path d="m184.61 27.631a162.25 206.24 0 0 0-162.25 206.24 162.25 206.24 0 0 0 162.25 206.24 162.25 206.24 0 0 0 147.98-122.37h-74.299a89.447 148.75 0 0 1-73.676 64.882 89.447 148.75 0 0 1-89.448-148.75 89.447 148.75 0 0 1 89.448-148.75 89.447 148.75 0 0 1 66.073 49.067h75.767a162.25 206.24 0 0 0-141.84-106.56z" fill="url(#a)" stroke-width="3.8711"/>
 </g>
</svg>
