<?xml version="1.0" encoding="UTF-8" standalone="no"?>
<svg xmlns:rdf="http://www.w3.org/1999/02/22-rdf-syntax-ns#" xmlns="http://www.w3.org/2000/svg" height="431.45" width="600" version="1.1" xmlns:cc="http://creativecommons.org/ns#" xmlns:dc="http://purl.org/dc/elements/1.1/" viewBox="0 0 158.75 114.15398">
 <g transform="translate(218.05 -131.58)">
  <path d="m-179.66 245.73h9.26v-9.26h-9.26zm30.44 0h23.17v-9.26h-23.17zm-15.22 0h9.26v-105.1l-9.26 11.44zm-29.78-56.92h-9.27v14.56h-14.56v9.27h14.56v14.56h9.27v-14.56h14.56v-9.27h-14.56zm46.38-57.23-1.38 1.69v14.73l8.58-10.59zm7.89 14.44-9.27 11.44v73.05h9.27zm-34.81 33.53h-11.92l16.28-20.11v14.72zm107.29-23.76c0-0.57 0-1.1-0.055-1.67l-8.531-9.68c-0.523-0.05-1.093-0.11-1.671-0.11h-4.888v22.9h4.888c6.614 0 10.257-4.36 10.257-11.44m8.167 0c0 11.03-7.287 18.37-17.743 18.37h-13.323v-36.75h13.323c1.718 0 3.382 0.21 4.943 0.58l12.546 14.31c0.151 1.09 0.254 2.29 0.254 3.49m-44.778-4.07h-14.21v-14.31h-7.76v36.75h12.6v-6.4h-4.84v-9.11h14.21v15.51h7.751v-36.75h-7.751z" fill="#182b45"/>
 </g>
</svg>
