<svg width="946.91" height="836" viewBox="0 0 250.54 221.19" xmlns="http://www.w3.org/2000/svg">
    <path d="M70.549 118.581h17.956V17.531L70.549 39.706zm47.455-90.607L100.048 50.15v141.548h17.956zm11.533 120.118h30.782v-17.956h-30.782zM102.704 0l-2.656 3.274v28.538l16.603-20.513zM58.998 82.503V53.962L6.66 118.586h23.105zm11.55 138.7h17.957v-61.564H70.549zM.002 148.095h88.504V130.14H0zm100.047 73.106h44.9v-17.956h-44.9zM41.04 203.246h17.958v17.956H41.04z" fill="#fff"/>
    <g fill="#fff">
        <path d="M144.73 11.117v56.875h12.055V44.118h21.927v23.874h12.055V11.117h-12.055v22.109h-21.927V11.117h-.012zM202.484 11.117c6.93-.016 13.865 0 20.796 0 5.796.056 11.7 1.578 16.423 5.023 5.031 3.633 8.551 9.18 9.937 15.21.814 3.742 1.1 7.842.749 12.124-.68 6.842-3.657 13.634-8.953 18.143-4.946 4.35-11.611 6.415-18.135 6.374-6.941-.008-13.878.011-20.817 0 .019-18.961-.005-37.912 0-56.874m12.048 10.802c-.022 11.775.048 23.506 0 35.28 3.193.017 6.386.202 9.577 0 3.284-.315 6.561-1.595 8.944-3.93 3.32-3.212 4.638-7.933 4.804-12.432.19-4.866-.644-10.108-3.838-13.957-2.715-3.312-7.054-4.923-11.256-4.96-2.741.002-5.492-.003-8.231 0z" opacity=".5"/>
    </g>
</svg>
