<?xml version="1.0" encoding="UTF-8" standalone="no"?>
<svg xmlns="http://www.w3.org/2000/svg" height="533.85" width="600" version="1.1" viewBox="0 0 158.75 141.24881">
 <g transform="translate(-480.03 -195.68)" fill="#d800bd">
  <path d="m637.97 195.71h-20.642l-0.80281 0.8096v9.6813l0.80281 0.80961h10.151v44.991l0.80281 0.8096h9.6881l0.8096-0.8096v-55.482z"/>
  <path d="m616.21 230.22h-11.464l-0.68034 0.67354v11.471l-0.67354 0.67353h-6.7422l-0.67354-0.67353v-11.471l-0.67355-0.67354h-11.471l-0.67354-0.67354v-6.749l0.67354-0.67355h11.471l0.67355-0.67354v-11.464l0.67354-0.67355h6.7422l0.67354 0.67355v11.464l0.68034 0.67354h11.46l0.67354 0.67355v6.749z"/>
  <path d="m564.61 195.68h-34.813l-8.8581 26.86h43.671c2.0546 0 3.7215-1.6668 3.7215-3.7215v-19.417c0-2.0546-1.6668-3.7215-3.7215-3.7215"/>
  <path d="m509.78 288.65c0-2.0546-1.6668-3.7147-3.7215-3.7147h-22.308c-2.0546 0-3.7147 1.66-3.7147 3.7147h-0.007c0 25.962 20.472 47.127 46.148 48.277v-29.894c-9.1982-1.0886-16.396-8.8989-16.396-18.383"/>
  <path d="m525.2 195.68h-26.54c-1.6056 0-3.0275 1.0273-3.531 2.5581l-12.437 37.691h29.234z"/>
  <path d="m499.57 267.19h28.785c15.349 0 28.813 8.1913 36.262 20.438 0 0 7.0484 10.668 6.0755 24.39 0 0 6.0278-9.5588 6.0278-23.363 0-26.697-21.649-48.338-48.345-48.338v-0.007h-46.052l11.314 23.172s1.5852 3.7079 5.9326 3.7079"/>
  <path d="m564.69 298.42c4.9597 17.322-6.7626 27.962-6.7626 27.962s-8.9125 9.5316-27.377 10.532v-29.881c9.205-1.075 16.342-8.8921 16.342-18.383 0-6.7762-3.6534-12.682-9.0826-15.913 0 0 20.05 4.1161 26.88 25.683"/>
 </g>
</svg>
