<svg xmlns="http://www.w3.org/2000/svg" height="343.703" width="639.987" viewBox="0 0 600.012 322.22">
    <g fill="#e12a39">
        <path d="M523.25 273.49c-.28 1.33.42 2.28 1.46 3.18l48.25.21c2.24.53 3.08 3.39 4.93 4.23 1.75-2.27 4.12-4.54 6.92-3.91 1.96 1.75 2.86 3.91 4.23 5.87h.7c.2-3.5-.28-7.3 0-10.83l.52-.49c2.17 1.53 1.85 5.03 4.75 6.18.91.81 1.85 1.71 1.96 2.97-1.33.63-3.6-.42-4.23 1.43l-.21 31.13c-.31.63-1.22 1.05-1.75.32l-1.04-1.54-.42-22.99c-1.02-2.27-2.03-5.76-5.24-5.87-.74.74-1.65 1.54-.74 2.45 1.78 1.78 3.11 3.74 3.22 6.22-.21 1.64-.32 3.6-2.17 4.43-2.17 1.65-3.81-.83-5.45-1.78-1.68 1.16-3.11 3.32-5.28 2.48-1.85-.8-2.27-3.07-2.65-4.92-.25-3.32 2.02-5.49 3.91-7.93.07-1.68-1.36-2.31-2.48-3.22h-21.77l-.9 1.01v9.93l.69.7c3.11-3.18 6.5-6.68 10.42-8.42 1.67 1.81 5.76 3.07 4.64 6.14-2.9 7.13-3.91 16.18-1.95 24.04 0 .81-1.02 1.75-1.75 1.02-1.96-5.04-2.38-10.63-2.48-16.39-.42-2.06.94-4.44-.21-5.87-5.03 2.27-7.02 7.41-8.98 11.84-8.04-4.92-2.06-15.33-4.09-22.99-1.05-2.06-2.79-.28-4.02 0-7.33 4.34-8.56 12.48-8.38 20.55.31 2.55.94 5.24 3.21 6.88.7-2.16.81-5.24 3.71-5.97 1.74-.32 3 1.53 3.7 2.79.31 2.17.63 5.03-1.22 6.68-1.37 1.57-3.5 2.09-5.49 1.46-7.2-4.33-7.72-13.41-7.2-21.55.84-3.92 2.38-7.41 3.71-11.12-2.55-1.67-5.56.11-8.67-.52-1.11 1.33-.8 3.18-1.22 4.75.84 10.2.52 20.3.31 30.71-1.25-.63-2.27-2.27-3-3.53l-.7-28.92c-1.05-1.26-1.75-2.38-3.21-3.01-1.23.32-3.08-.73-3.71 1.01v33.41c-1.53-.42-2.27-2.07-2.97-3.18l-.56-20.3c-.27-.95-1.22-1.68-1.92-2.48-1.25-.53-1.95.69-2.48 1.43-.42 1.75 1.02 3.49-1.05 4.23-1.64-.32-1.32-2.69-2.44-3.92-1.26-1.36-3.01-2.16-4.65-1.74-1.54.59-2.69 2.27-3.32 3.7.11 1.64-.21 3.39 1.26 4.44 1.22-1.65 1.12-4.23 3.49-4.96 1.96-.32 2.9 1.32 3.71 2.79 0 1.75 1.15 3.7 0 5.35-1.12 2.58-3.81 2.9-6.19 2.27-3.49-1.02-4.61-4.86-5.45-7.93-.21-4.76.7-9.79 4.96-11.85 3.92-2.16 6.19 6.29 8.95.53 1.05-.42 1.96-.53 2.9.21.59.48 1.12 1.22 1.75 1.5.94-.91.31-2.45.48-3.71l-1.01-.8h-18.55c-1.43-.94-2.76-2.58-3.39-4.12l1.43-.53 28.44.21c1.78-.31 2.59 2.9 4.23 1.26v-6.71c.94-.1 1.47 1.23 1.75 2.06M265.26 278.84c.52 1.05 1.99 2.9.73 3.49-1.11 0-2.37-.21-2.97 1.05l-.21 32.88c-1.46-.63-2.37-1.64-3-3.01L259.5 291c-.81-2.48-1.96-5.24-4.44-6.67-.71.17-1.34.59-1.97 1.22 0 2.16 2.49 3.39 3.23 5.24.31 1.96.7 4.54-.74 6.18-1.23.84-2.66 1.65-4.23.95-.81-.63-1.54-1.75-2.7-1.75-1.43 1.54-2.96 3.28-5.13 2.27-1.54-1.15-2.27-3-2.27-4.96-.32-3.32 2.16-5.35 3.7-7.93.11-1.36-.91-2.38-1.96-3.01-7.09-.31-15.12-.31-22.57 0l-.69 1.05.28 9.89c.2.73 1.15.73 1.46 0 2.69-3.18 5.87-6.39 9.68-7.65 1.85.94 3.39 3.11 4.96 4.47-2.79 7.41-4.64 16.07-2.79 24.42.1.81-.11 1.54-.74 2.06-3.7-4.22-2.06-11.04-3.18-15.68-.1-2.17 1.33-4.72-.31-6.61-4.75 2.48-6.81 7.44-8.67 11.88-1.74-.94-2.58-3.11-3.91-4.75l-.52-18.24c-2.17-1.95-4.23.81-6.19 1.64-6.6 6.19-7.19 16.81-4.22 24.74.62.42.94 1.43 1.78 1.22.38-2.27.91-4.92 3.49-5.87 1.54-.21 2.9 1.16 3.39 2.48 1.15 1.86.21 4.13-.42 5.87-.91 1.58-2.44 2.69-4.23 2.8-6.56-.84-7.51-8.25-8.94-13.42-.84-7.09 1.12-13.59 4.02-19.46-2.69-1.64-5.77 0-8.98-.52l-.74.73v32.67c-.17.63-1.01 1.33-1.74.73-2.76-2.79-.7-7.86-1.64-11.14l-.32-19.29c-.28-1.54-2.06-2.97-3.39-3.7-1.33.21-3.28-.63-3.7 1.26-.21 2.86.31 5.24-.53 7.93 1.16 7.4.84 16.8.21 24.73-5.38-2.37-1.53-9.99-2.69-14.64.95-1.15.21-1.64-.31-2.69 0-3.28.84-6.7-2.66-8.24-1.04-.21-1.57.94-1.95 1.54-.32 1.36.59 3.31-.74 4.22-1.95-.21-1.43-2.69-2.79-3.7-1.33-1.43-3.18-2.69-5.14-1.75-2.48 1.44-3.28 4.44-2.48 7.1l.95 1.04c1.53-1.43.9-4.22 3.28-4.96 1.43-.49 3.18.84 3.7 2.27.84 1.96.42 4.55-.31 6.4-1.33 1.53-3.39 2.48-5.45 1.74-2.69-.59-4.23-3.39-5.14-5.66-1.05-4.33-.52-9.15 1.96-12.68 1.54-1.22 3.39-2.27 5.45-1.43l3.49 2.48c1.54-1.05 2.9-3.49 5.17-2.27.7.59 1.23 1.64 2.27 1.75.81-.84.28-2.28.39-3.5l-.91-.94-19.29-.32c-1.11-1.01-2.16-2.06-2.48-3.39l.95-.73 29.49.21c1.11.11 2.06 2.38 3.17 1.01.21-1.64-.62-3.59.74-4.71 1.54.52 1.12 2.86 2.97 3.49 16.91 0 31.55-1.12 48.04 0 1.85.63 2.48 2.69 4.12 3.91 2.06-1.01 2.9-4.12 5.77-3.7.63-.84 1.25-.1 1.95 0 1.59 1.96 2.91 4.23 4.45 5.98.52-1.65.11-4.44.21-6.19.31-1.75-.63-2.86.52-4.23 2.17.63 2.17 4.02 4.72 4.65M391.11 282.33c.52 2.28.21 4.86.31 7.24-.17-.11-.38.1-.49.21-1.25-1.33-2.79-4.02-4.96-3.01-.42.53-.94.73-1.57.73-.38-1.74-1.22-3.38-1.92-5.17 2.38-.9 5.35-.31 7.93-.49l.7.49M89.862 305.32c-1.68-.9-2.69-3.07-4.44-4.43-.84-1.02-2.16-.91-3-2.27.73-3.39 6.5-5.66 4.43-9.37-1.04-1.75-2.9-3.28-3.21-5.45 1.99.32 6.39-1.78 6.5 1.75-.91 6.29.52 13.48-.28 19.77m4.02-26.17c-11.67-.2-25.891-.1-38.161.21l-51.741.28-.91.74 2.17 2.69c2.34 2.37 7.61-.53 9.68 2.48-.84 1.43-2.69 1.64-3.71 3.18-.94 2.27-2.58 5.48-.52 7.75 1.01.49 2.27 1.44 3.49.7 1.54-.91 3.01-2.69 3.43-4.43.38-.81 1.43-2.87 2.76-1.75 2.16 1.05 3.7 3.49 2.69 5.97-1.96 2.8-4.76 4.86-8.35 4.13-2.8.31-4.76-2.27-7.24-2.17 1.05 3.11 1.79 6.39 3.22 9.4 7.2 2.27 13.48 7.51 18.871 13.8.31 0 .69.31.9-.21-.1-5.77-5.761-10.2-10.091-14.33v-1.01c3.28-1.89 4.96-5.38 6.701-8.35l.95.39c.7 3-.32 6.18 0 8.97.49 3.11-.21 6.71 2.44 8.88.42.42 1.26.42 1.58-.21-.11-3.28-.95-6.29-1.26-9.4-.32-4.82 4.23-11-2.06-14.11-1.54-.6-3.501.42-3.711-1.96-.63-3.29-4.22-3.6-6.39-5.45-.32-.63.52-.84.73-1.22l15.131-.32.94.81.53 18.76c1.22 1.32 1.64 3.63 3.7 3.91 1.96-3.39 3.18-7.2 6.71-10.1.8-.52 2.13-2.16 2.97-.21-.84 6.29-.31 12.58.94 19.29.21.8 1.12 1.12 1.96.91-1.26-8.74.21-17.3 2.97-25.44-1.22-1.57-2.86-3.53-4.61-4.43-4.05 1.32-7.34 4.85-10.24 8.14h-.7c-.94-3.18-.31-6.99-.52-10.63l.73-.69 23.48-.53 1.05 1.02c-1.54 3.42-3.01 6.91-3.7 10.62-.21 8.24-1.05 17.33 6.67 21.76 2.06.7 4.23 0 5.69-1.74 1.02-1.68 1.65-3.85 1.02-5.91-.63-1.43-1.65-3.28-3.5-3.28-2.69.73-2.9 3.81-3.7 5.97-2.69-1.15-3.01-4.44-3.53-7.23-.1-7.93 1.15-15.97 8.46-20.19 1.46-.91 2.58.41 3.7 1.22 2.061 1.47 5.481.87 6.711 3.42l-6.501 7.72c-.7 2.69 2.171 4.65 3.321 6.92 6.5 0 10.51 6.99 12.79 12.05h1.22c1.22-9.08-.11-19.07.31-27.91-.42-1.26-.42-2.2 0-3.42.32-2.38 2.87-.49 3.92-1.75-.32-1.54-2.07-2.97-3.39-3.71M481.43 290.79c-.74.1-1.26-.7-1.47-1.22-.11-2.48.84-4.96 3.21-5.98.91-.31 1.64.81 1.75 1.43.42 2.59-1.43 4.65-3.49 5.77m5.66-8.67c-.95-2.13-3.08-3.38-5.38-3.49-3.29 1.15-5.35 4.54-5.46 7.93 0 3.53 1.54 7.13 4.65 8.67 2.17.63 4.44.1 5.77-1.96 2.27-3.18 2.37-7.83.42-11.15M154.15 290.47c-.91 1.05-2.17 2.28-3.39 1.79-1.16-1.96-.32-4.34.94-6.01.8-.7 2.76-1.85 3.49 0 0 1.57 0 3.11-1.04 4.22m2.27-8.14c-1.44-1.01-2.59-2.55-4.72-1.95-2.79 1.05-4.12 3.6-4.96 6.18-.63 3.11-.11 6.4 1.96 8.67 1.43 1.74 3.59 2.37 5.76 1.74 1.47-1.11 3.21-2.86 3.7-4.71.95-3.32.63-7.34-1.74-9.93M456.97 302.67h-.49c-1.85-2.59-4.54-5.07-6.92-7.23 1.47-2.69 4.54-3.5 6.92-5.14l.73.91c-.1 3.81.18 7.72-.24 11.46m16.31-25.05c-3.94.07-2.58-4.65-4.96-5.87-.42 2.06-.1 4.43-.21 6.67-1.32 1.36-2.27-1.12-3.49-1.22l-17.82-.32c-2.37 1.44-5.9-1.43-7.65 1.26-.63 1.33.94 2.55 1.96 3.18h15.05c.32.42 1.05.63.81 1.22-5.24 3.22-11.43 6.29-14.82 11.67 1.44 3.71 3.92 7.51 8.35 7.72 4.51 2.76 6.78 7.31 8.15 11.85.9.42 1.32.31 2.06-.53v-30.92c.7-2.06 2.27-.1 3.7-.69 1.22.38 2.38 1.74 2.9 2.97l.8 28.64 1.96 2.49c.52.1.94-.11 1.26-.49.1-4.27-.11-8.88-.74-13.11.95-6.6.11-12.78.74-19.81.8-1.95 3.49-.21 4.4-1.43l-2.45-3.28"/>
        <path d="M338.46 303.37c-1.96-2.59-4.96-5.56-7.41-7.62 2.03-1.96 4.44-4.12 7.2-4.96l.42.42.31 11.63-.52.53zm-32.88-13.38c-.31-2.07-3.39-3.43-2.8-5.38 1.58-1.65 4.76-2.28 6.5-.49.21 2.23-2.16 4.5-3.7 5.87m118.93 9.46c.11-2.37-2.27-3.59-1.43-6.18 2.16-2.69 1.05-7.3.91-10.2-.91-2.59-3.71-4.23-6.36-4.44-2.69-.49-4.23 1.85-6.4 2.48-3.32 1.96-4.75 5.45-4.75 9.19 0 1.85.63 3.7 2.48 4.61 1.65.63 3.6.21 4.44-1.43.8-2.27-.21-4.23-.94-6.18 1.53-2.8 4.33-4.76 7.65-4.23 1.82.84 2.13 2.9 1.92 4.43-.1 2.49-2.86 2.17-4.4 1.75-1.26.63-1.96 1.85-2.48 3.01-.63 2.13-.11 4.4 1.43 5.97 1.75 1.64 3.7-1.47 5.28.7.69 1.75-.21 3.53-1.05 4.96-1.37 1.64-3.29 1.85-5.45 1.75-13.21-5.24-8.25-20.51-18.56-28.23H354c-2.13.21-2.13-2.38-3.38-3.5-2.35 1.23.1 3.88-1.75 5.45-.94-.41-1.54-1.36-2.48-1.74l-26.7-.21c-1.85-.42-1.85-3.71-4.01-3.01l.31 9.19-1.05 1.02-3.91-4.72c-2.45-1.47-5.97-2.48-8.66-1.05-4.02 2.17-6.36 6.18-6.68 10.41.91 4.54 4.72-.42 6.89 2.27 1.46 2.87-1.65 4.44-2.45 6.71 1.01 1.01 2.65 1.85 4.23 2.17l8.35-10.62h.8c3.32 4.01 1.85 10.72 2.17 15.33l-.74.95c-.49.1-.91 0-1.22-.42-4.44-4.23-12.05-1.12-16.6-5.24-2.16-1.57.11-6.01-2.69-6.4-2.06 3.18-.38 7.41.53 10.62 3.11 7.2 11.84 3.71 17.54 4.93 2.06 1.26 2.97 3.29 3.91 5.17 1.33.6.32 3.39 2.27 2.45l.21-34.63.8-.7h18.07c.17.39.7.6.7 1.02-5.07 3.21-10 6.29-14.64 10.62 0 2.58 1.85 4.96 3.28 7.2 6.64.63 11.46 7.54 13.1 13.31.63.84.74 2.16 1.96 2.27v-32.88l1.05-1.54c.8.11 1.96-.2 2.69.28 1.64.95 3.49 2.59 3.49 4.65l.42 27.22c.39 1.05 1.54 2.37 2.45 2.48.84-1.15-.39-2.27.52-3.42v-30.19l1.05-1.02h7.9l.73.7c-4.93 8.88-5.97 22.99.94 31.24 1.44.94 2.8 1.85 4.72 1.47 1.57-.21 2.9-1.47 3.74-2.69.91-1.68 1.01-4.23.21-5.98-.53-1.26-1.85-2.69-3.43-2.48-2.86 1.01-2.76 4.02-3.7 6.18-5.17-5.66-2.86-14.74-1.01-21.24 1.53-3.07 4.71-6.29 8.14-6.71 2.16 3.81 7.2.95 8.94 4.97 2.27 3.8-.7 7.19-2.76 10.09-2.48.74-1.74-2.58-3.42-2.9-1.33.32-1.12 1.78-1.54 2.69 1.85 2.48 2.06 7.51 6.5 6.92 4.33-2.38 4.23-8.87 8.87-10.83 1.54.63 2.66 2.27 3.18 3.7l-.21 10.62c.74 2.38-.7 5.87 2.27 7.13.53-.21.95-.94 1.26-1.47-1.57-11.11.7-19.77 0-30.71l.7-.9c1.15.2 2.69-.53 3.42.69 2.97 10.03 4.2 20.72 12.69 28.48 2.23 1.75 6.04 1.96 8.63.7 4.33-2.59 4.12-7.72 3.91-12.06M127.24 304.62h-.49c-1.95-2.79-4.43-4.85-6.91-7.23v-.73c2.27-1.75 4.43-3.7 7.09-4.4l.52.7c-.1 4.22.21 7.93-.21 11.66m15.8-25.47c-1.96 0-2.49-2.16-4.23-2.79-1.64.94.1 2.38-.42 3.7-1.12 1.47-2.06-.59-3.01-.91l-25.75-.31-1.22 1.05 2.24 2.97c4.85.73 10.51 0 15.79.21.31.42 1.01.63.8 1.26-5.03 2.86-9.88 5.97-14.43 10.16l-.21 2.17c1.58 1.96 1.68 5.38 4.76 5.69 6.6 1.54 9.88 8.74 12.57 14.12.32 0 .63.1.74-.21l.31-32.14.7-1.05c1.57.42 3.49.1 4.65 1.54 3.18 6.07 1.12 14.11 1.74 20.71 1.05 3.53-1.22 9.3 1.96 11.85.94-.18 1.26-1.12 1.54-1.92l-.28-31.13c.91-2 3.28-.32 4.51-1.58-.7-1.22-1.54-2.37-2.76-3.39M493.06 315.94c.63.95 0 2.07-.52 2.8-4.44-4.44-9.47-9.71-14.33-14.12-.31-2.58-.59-5.79.21-8.14 6.71 5.35 9.99 12.86 14.64 19.46M163.33 318.22c-.2.62-.62 2.06-1.43 1.43l-13.2-12.79-.42-1.22c.94-2.38-1.02-4.96.73-7.02 6.6 5.38 10.1 12.89 14.32 19.6M85.632 310.98c.81 1.68-.21 3.22-.94 4.55-1.15.1-2.17.83-3.18.21-1.78-1.12-1.78-3.18-1.26-4.93.32-1.15 1.05-2.59 2.48-2.69 1.43.31 2.59 1.43 2.9 2.86"/>
    </g>
    <path d="M600.01 256.13H0V0l600.01-.004v256.13z" fill="#fff"/>
    <path d="M375.56 105.02c-2.93 4.58-13.62 22.29-16.63 42.91-3.25 22.43-3.11 64.84 2.62 84.41 20.55-17.02 33.58-42.45 33.58-70.86 0-21.24-7.3-40.81-19.57-56.46m-74.17 41.75s36.23 3.81 70.82-45.8c-2.06-2.342-4.2-4.582-6.47-6.682-4.54 6.332-11.91 12.972-21.87 20.412-25.05 18.8-46.99 15.97-55.69 1.01-7.97-13.69.45-33.752 18.9-46.852-2.23-.14-4.5-.25-6.78-.25-52.38 0-94.83 41.582-94.83 92.872s42.45 92.87 94.83 92.87c3.92 0 7.73-.28 11.5-.7.07-1.71-.39-4.23-3.08-6.46 0 0-2.69-1.16-5.8-2.31 0 0 8.53-3.11 13.53-10.45 4.68-6.81 10.02-28.58 9.29-49.43 0 0-1.19-18.17-5.84-22.78-4.61-4.65-5.38-7.34-17.74-10.45 0 0-3.5 0-2.31-2.31l1.54-2.69" fill="#e02d37"/>
    <path d="M0-.004v256.13h4.61c22.081-22.95 149.01-147.58 321.93-166.31 0-.002 116.63-13.832 273.15 38.75V-.004L0-.008zm599.69 256.13v-73.58c-27.49 16.98-68.16 40.95-127.07 73.58h127.07" fill="#26734c"/>
    <path d="M489.53 39.507h29.28v-10.55h-28.68v-9.57h35.21V8.826h-55.13v52.341h56.04v-10.51h-36.72v-11.15zm81.72 9.12V8.826h-22.46v52.341h50.9v-12.54h-28.44zm-149.12-10.83l-25.4-28.971h-23.37v52.341h18.62l-.91-30.81 28.37 30.81h21.46V8.827h-18.77v28.97zm-215.23-1.75l10.73-16.38 8.17 16.38h-18.9zm-2.76-27.221L171.3 61.167h22.92l8.28-15.02h26.48l6.92 15.02h23.98L228.91 8.826h-24.77zm-69.49 19.221h-29.52V8.826H85.392v52.341h19.738v-20.44h29.52v20.44h19.74V8.827h-19.74v19.22zm-79.169 20.58c-3.21.63-6.64.94-10.24.94-4.47 0-8.49-.66-12.02-1.95-3.56-1.26-6.36-3.01-8.351-5.21-1.99-2.17-3-4.58-3-7.2 0-3 1.15-5.59 3.46-7.82 2.271-2.2 5.271-3.92 9.051-5.14 3.74-1.19 7.79-1.78 12.09-1.78 4.85 0 8.17-.07 14.7 2.31V9.806c-10.97-1.53-13.76-1.81-19.77-1.57-5.66.21-11.04.53-16.141 1.61-5.07 1.05-9.61 2.69-13.63 4.92-3.98 2.241-7.09 5.041-9.33 8.421a18.614 18.614 0 0 0-2.3 4.93v13.52c.45 1.43 1.05 2.8 1.81 4.13 1.86 3.28 4.72 6.14 8.49 8.59 3.78 2.45 8.25 4.3 13.35 5.56 5.141 1.25 10.941 1.85 17.401 1.85 3.53 0 6.5.1 9.99-.18 3.39-.28 7.37-.7 10.69-1.54l-.28-12.78c-2.48.7-2.76.77-5.97 1.36m270.78-10.83l-25.4-28.971h-23.37v52.341h18.66l-.95-30.81 28.37 30.81h21.49V8.827h-18.8v28.97" fill="#fff"/>
</svg>
