<?xml version="1.0" encoding="UTF-8"?>
<svg id="svg29" width="700.39pt" height="209.05pt" version="1.1" viewBox="0 0 700.39 209.05" xmlns="http://www.w3.org/2000/svg" xmlns:cc="http://creativecommons.org/ns#" xmlns:dc="http://purl.org/dc/elements/1.1/" xmlns:rdf="http://www.w3.org/1999/02/22-rdf-syntax-ns#">
 <metadata id="metadata35">
  <rdf:RDF>
   <cc:Work rdf:about="">
    <dc:format>image/svg+xml</dc:format>
    <dc:type rdf:resource="http://purl.org/dc/dcmitype/StillImage"/>
    <dc:title/>
   </cc:Work>
  </rdf:RDF>
 </metadata>
 <g id="flowRoot902" transform="matrix(3.1829 0 0 3.1829 -340.43 1564.9)" fill="#fff" stroke-width="1px" aria-label="SUMMER">
  <path id="path934" d="m197.45-467.4q0-1.6-0.68-2.32-0.64-0.76-1.28-1.08-1-0.48-2.2-0.84-1.16-0.4-2.36-0.8-1.2-0.44-2.32-1t-2-1.4q-0.84-0.88-1.36-2.12-0.52-1.28-0.52-3.08 0-3.76 2.32-5.88 2.36-2.16 6.36-2.16 0.8 0 2.04 0.12 1.28 0.12 2.48 0.48 1.2 0.32 2.04 0.96 0.88 0.6 0.88 1.6 0 0.8-0.6 1.4-0.56 0.6-1.6 0.6-0.52 0-1-0.16t-1.04-0.36q-0.56-0.24-1.28-0.4-0.68-0.16-1.68-0.16-0.84 0-1.64 0.2-0.8 0.16-1.44 0.6-0.6 0.4-0.96 1.16-0.36 0.72-0.36 1.8 0 0.84 0.2 1.4t0.48 0.96q0.32 0.4 0.64 0.64 0.36 0.2 0.68 0.36 1 0.52 2.2 0.92 1.2 0.36 2.4 0.8t2.28 1q1.12 0.56 1.96 1.4 0.88 0.84 1.4 2.08t0.52 3q0 2.04-0.72 3.64-0.68 1.56-1.96 2.68-1.24 1.08-2.96 1.64t-3.72 0.56q-1.04 0-2.44-0.2-1.36-0.16-2.6-0.56-1.2-0.4-2.08-1.04-0.84-0.64-0.84-1.56 0-0.8 0.56-1.4 0.6-0.64 1.48-0.64 0.44 0 0.96 0.2 0.56 0.2 1.24 0.48 0.72 0.24 1.64 0.44t2.12 0.2q2.4 0 3.56-1.08 1.2-1.08 1.2-3.08z"/>
  <path id="path936" d="m224.76-468.92q0 2.12-0.64 3.92t-1.88 3.12q-1.2 1.28-2.96 2.04-1.76 0.72-3.96 0.72-2.28 0-4.04-0.72-1.76-0.76-2.96-2.04-1.2-1.32-1.84-3.12-0.6-1.8-0.6-3.92v-17q0-0.92 0.64-1.52 0.64-0.64 1.6-0.64 0.88 0 1.52 0.64 0.64 0.6 0.64 1.52v17q0 2.52 1.2 4.12 1.24 1.56 3.84 1.56 2.56 0 3.76-1.56 1.24-1.6 1.24-4.12v-17q0-0.88 0.6-1.52 0.64-0.64 1.56-0.64 0.96 0 1.6 0.64 0.68 0.64 0.68 1.52v17z"/>
  <path id="path938" d="m253.68-461.16q0 0.8-0.64 1.44-0.64 0.6-1.52 0.6-0.92 0-1.6-0.6-0.64-0.64-0.64-1.44v-16.64l-5.52 11.36q-0.32 0.64-0.88 0.96-0.52 0.28-1.2 0.28t-1.24-0.28q-0.52-0.32-0.84-0.96l-5.48-11.36v16.64q0 0.8-0.68 1.44-0.68 0.6-1.6 0.6t-1.52-0.6q-0.6-0.64-0.6-1.44v-24.76q0-0.92 0.64-1.52 0.64-0.64 1.64-0.64 1.56 0 2.24 1.28l7.48 15.44 7.44-15.48q0.36-0.68 0.96-0.96t1.28-0.28q0.96 0 1.6 0.64 0.68 0.6 0.68 1.52z"/>
  <path id="path940" d="m282.82-461.16q0 0.8-0.64 1.44-0.64 0.6-1.52 0.6-0.92001 0-1.6-0.6-0.64-0.64-0.64-1.44v-16.64l-5.52 11.36q-0.32001 0.64-0.88 0.96-0.52001 0.28-1.2 0.28t-1.24-0.28q-0.52-0.32-0.84-0.96l-5.48-11.36v16.64q0 0.8-0.68 1.44-0.67999 0.6-1.6 0.6-0.92 0-1.52-0.6-0.60001-0.64-0.60001-1.44v-24.76q0-0.92 0.64-1.52 0.64-0.64 1.64-0.64 1.56 0 2.24 1.28l7.48 15.44 7.44-15.48q0.36001-0.68 0.96-0.96 0.6-0.28 1.28-0.28 0.96 0 1.6 0.64 0.68 0.6 0.68 1.52z"/>
  <path id="path942" d="m304.08-461.64q0 0.92-0.64 1.52t-1.56 0.6h-10.6q-1.24 0-2.2-0.48-0.92-0.52-0.92-1.88v-23.48q0-0.88 0.68-1.6 0.72-0.76 1.8-0.76h10.84q0.92 0 1.56 0.64 0.64 0.6 0.64 1.48t-0.64 1.44-1.56 0.56h-8.92v7.88h8.16q0.8 0 1.48 0.6 0.68 0.56 0.68 1.44t-0.64 1.48q-0.6 0.6-1.52 0.6h-8.16v8h9.32q0.88 0 1.52 0.6 0.68 0.56 0.68 1.36z"/>
  <path id="path944" d="m326.64-479.48q0 3.12-1.6 5.04-1.56 1.92-4.28 2.6 1.48 2.4 2.96 4.72 1.48 2.28 2.96 4.68 0.15999 0.16 0.24 0.52 0.08 0.36 0.08 0.56 0 0.92-0.75999 1.56-0.72001 0.6-1.52 0.6-1.24 0-1.84-0.96l-6.92-11.28h-3.64v10.16q0 0.84-0.68 1.48-0.64 0.64-1.56 0.64-0.88 0-1.52-0.6-0.64-0.64-0.64-1.52v-24.04q0-0.96 0.71999-1.68 0.72001-0.72 1.72-0.72h6.96q2.64 0 4.4 0.72 1.8 0.72 2.88 1.88 1.12 1.16 1.56 2.64 0.48 1.48 0.48 3zm-4.4 0q0-0.76-0.24001-1.48-0.19999-0.76-0.75999-1.32-0.56-0.6-1.56-0.96-0.96001-0.36-2.52-0.36h-4.84v8.12h5.08q2.36 0 3.6-1 1.24-1.04 1.24-3z"/>
 </g>
 <g id="g1088" transform="matrix(1.0459 0 0 1.0459 .00084717 -.00020151)" fill="#0eb9e7" stroke-width="1.0007">
  <path id="path3-0" d="m96.376 0.76621c-25.427 3.022-49.832 14.61-67.954 32.742-1.8873 2.0352-3.6144 4.4858-4.1001 7.2671-0.52186 2.1521-0.13211 4.5282-0.45411 6.6826-0.23925 1.1268-0.68184 2.1907-1.5395 3.1113-10.427 13.579-17.481 29.66-20.624 46.471-1.026 6.1578-1.7051 11.773-1.7051 17.42v51.665c0 8.014 3.1295 8.6705 8.1475 8.6705 5.3666 0 9.0776-0.53574 9.0776-11.742 0.0901-18.392-0.40067-36.794 0.27979-55.166 1.491-16.961 8.2757-33.283 18.442-46.852 1.591-2.6918 4.9625-2.5316 7.5542-3.5522 2.3115-0.73048 4.2742-2.221 5.9853-3.8921 10.407-10.137 23.365-17.701 37.374-21.564 8.1756-2.004 15.607-3.1635 23.342-3.2008 7.8404 0.0555 16.843 1.387 23.344 3.2008 14.009 3.8625 26.967 11.427 37.374 21.564 1.7111 1.6711 3.6724 3.1616 5.9839 3.8921 2.5917 1.0207 5.9646 0.86047 7.5557 3.5522 10.167 13.569 16.95 29.89 18.441 46.852 0.68046 18.372 0.19119 36.774 0.28125 55.166 0.10062 10.937 2.4388 11.742 9.0762 11.742 6.0296 0 8.1489-0.37692 8.1489-8.4874v-51.741c0-5.8226-0.67327-12.194-1.7051-17.527-3.1421-16.811-10.197-32.892-20.624-46.471-0.86287-0.9262-1.3058-1.9975-1.544-3.1318-0.31758-2.1569 0.0733-4.5341-0.45556-6.6855-0.49136-2.7716-2.2122-5.2142-4.0942-7.2436-18.122-18.132-42.529-29.72-67.956-32.742-4.5881-0.54135-9.2077-0.78824-14.315-0.76468-5.1077 0.02355-9.2353 0.2806-13.338 0.76468z"/>
  <g id="g1082" transform="translate(-19.104,-9.95)">
   <path id="path7" d="m186.42 136.36c2.4628-0.32586 7.4288-0.25017 11.738-0.25017 2.2393 0 5.3772-0.24143 7.2348 1.471 1.2938 1.0333 1.1658 3.542 1.1658 5.3135v62.021c0 3.0968-1.6263 4.4455-4.528 4.583-3.9093 0.11768-7.8264 0.20659-11.742 0.21989-3.7418 0.0127-7.4822-0.0436-11.213-0.20989-6.3342-0.20013-13.009-4.8032-13.439-11.498-0.38976-3.8447-0.82614-9.3844-0.82614-14.098 0-7.5769 0.82269-15.146 2.6674-22.506 1.9213-7.2548 4.4429-14.77 9.7864-20.263 2.4016-2.5717 5.6938-4.2228 9.156-4.7832z"/>
   <path id="path7-5" d="m71.897 136.36c-2.4628-0.32586-7.4288-0.25017-11.738-0.25017-2.2393 0-5.3772-0.24143-7.2348 1.471-1.2938 1.0333-1.1658 3.542-1.1658 5.3135v62.021c0 3.0968 1.6263 4.4455 4.528 4.583 3.9093 0.11768 7.8264 0.20659 11.742 0.21989 3.7418 0.0127 7.4822-0.0436 11.213-0.20989 6.3342-0.20013 13.009-4.8032 13.439-11.498 0.38976-3.8447 0.82614-9.3844 0.82614-14.098 0-7.5769-0.82269-15.146-2.6674-22.506-1.9213-7.2548-4.4429-14.77-9.7864-20.263-2.4016-2.5717-5.6938-4.2228-9.156-4.7832z"/>
  </g>
 </g>
 <g id="g1417" transform="matrix(1.0864 0 0 1.0864 -110.62 357.43)" fill="#f3dc4c">
  <path id="path1391" d="m387.22-142.66q0 2.4087-1.8352 4.2439t-4.4733 1.8352q-2.5234 0-4.4733-1.8352-1.8352-1.8352-1.8352-4.2439v-29.592h-27.872v29.592q0 2.4087-1.8352 4.2439t-4.4733 1.8352-4.4733-1.8352-1.8352-4.2439v-70.999q0-2.4087 1.8352-4.1292 1.8352-1.8352 4.4733-1.8352 2.638 0 4.4733 1.8352 1.8352 1.7205 1.8352 4.1292v29.592h27.872v-29.592q0-2.4087 1.8352-4.1292 1.9499-1.8352 4.4733-1.8352t4.3585 1.8352q1.9499 1.7205 1.9499 4.1292z"/>
  <path id="path1393" d="m401.77-213.66q0-2.4087 1.8352-4.1292 1.8352-1.8352 4.4733-1.8352 2.638 0 4.4733 1.8352 1.8352 1.7205 1.8352 4.1292v71.113q0 2.294-1.8352 4.1292t-4.4733 1.8352-4.4733-1.8352-1.8352-4.1292z"/>
  <path id="path1395" d="m444.68-206.78h-13.879q-2.7528 0-4.588-1.7205-1.7205-1.8352-1.7205-4.1292 0-1.9499 1.8352-3.8998 1.8352-2.0646 4.4733-2.0646h40.374q2.4087 0 4.3586 1.7205 2.0646 1.7205 2.0646 4.2439 0 2.294-1.9499 4.1292-1.8352 1.7205-4.4733 1.7205h-13.879v64.231q0 2.294-1.8352 4.1292t-4.4733 1.8352-4.4733-1.8352-1.8352-4.1292z"/>
  <path id="path1397" d="m520.49-160.33q0-4.588-1.9499-6.6526-1.8352-2.1793-3.6704-3.0969-2.8675-1.3764-6.3084-2.4087-3.3263-1.147-6.7672-2.294-3.441-1.2617-6.6526-2.8675t-5.735-4.0145q-2.4087-2.5234-3.8998-6.079-1.4911-3.6704-1.4911-8.8318 0-10.782 6.6526-16.861 6.7672-6.1938 18.237-6.1938 2.294 0 5.8497 0.3441 3.6704 0.34409 7.1113 1.3764 3.441 0.9176 5.8496 2.7528 2.5234 1.7205 2.5234 4.588 0 2.294-1.7205 4.0145-1.6058 1.7205-4.588 1.7205-1.4911 0-2.8675-0.4588-1.3764-0.45879-2.9822-1.0323-1.6058-0.68819-3.6704-1.147-1.9499-0.4588-4.8174-0.4588-2.4087 0-4.7027 0.5735-2.294 0.4588-4.1292 1.7205-1.7205 1.147-2.7528 3.3263-1.0323 2.0646-1.0323 5.1615 0 2.4087 0.5735 4.0145 0.57349 1.6058 1.3764 2.7528 0.9176 1.147 1.8352 1.8352 1.0323 0.57349 1.9499 1.0323 2.8675 1.4911 6.3084 2.6381 3.441 1.0323 6.882 2.294t6.5378 2.8675q3.2116 1.6058 5.6203 4.0145 2.5234 2.4087 4.0145 5.9644t1.4911 8.6024q0 5.8496-2.0646 10.438-1.9499 4.4733-5.6202 7.6848-3.5557 3.0969-8.4877 4.7027t-10.667 1.6058q-2.9822 0-6.9966-0.5735-3.8998-0.45879-7.4554-1.6058-3.441-1.147-5.9644-2.9822-2.4087-1.8352-2.4087-4.4733 0-2.294 1.6058-4.0145 1.7205-1.8352 4.2439-1.8352 1.2617 0 2.7528 0.5735 1.6058 0.57349 3.5557 1.3764 2.0646 0.68819 4.7027 1.2617 2.6381 0.57349 6.079 0.57349 6.8819 0 10.208-3.0969 3.441-3.0969 3.441-8.8318z"/>
 </g>
</svg>
