<svg width="893.027" height="266.36" viewBox="0 0 669.77 199.77" xmlns="http://www.w3.org/2000/svg">
    <g fill="#40ced4">
        <path d="M238.461 41.664q0-6.832 1.65-12.485 1.766-5.654 5.182-9.54 3.533-4.006 8.834-6.126 5.3-2.238 12.603-2.238 4.358 0 8.362.943 4.123.824 7.303 2.473 3.18 1.531 5.065 3.651 1.884 2.003 1.884 4.24 0 2.356-1.766 4.005-1.65 1.65-4.24 1.65-1.65 0-2.592-.472-.824-.589-2.12-1.413l-.589-.354q-4.711-3.298-10.719-3.298-4.476 0-7.538 1.296-3.062 1.296-4.947 3.77-1.885 2.473-2.709 6.006-.707 3.534-.707 7.892v24.263q0 4.358.707 7.892.824 3.533 2.709 6.007 1.885 2.473 4.947 3.769 3.062 1.296 7.538 1.296 5.89 0 10.719-3.18l.589-.354q1.296-.824 2.12-1.296.942-.589 2.591-.589 2.592 0 4.24 1.65 1.767 1.648 1.767 3.886 0 2.356-1.884 4.476-1.885 2.003-5.065 3.534-3.18 1.531-7.303 2.355-4.004.943-8.362.943-7.303 0-12.603-2.12-5.3-2.238-8.834-6.125-3.416-4.005-5.183-9.54-1.649-5.654-1.649-12.604zM355.415 90.308q0 2.473-1.885 4.358-1.884 1.885-4.593 1.885-2.592 0-4.594-1.885-1.884-1.885-1.884-4.358V59.92h-28.622v30.388q0 2.473-1.885 4.358-1.884 1.885-4.593 1.885-2.71 0-4.594-1.885-1.885-1.885-1.885-4.358V17.399q0-2.473 1.885-4.24 1.885-1.885 4.594-1.885 2.709 0 4.593 1.885 1.885 1.767 1.885 4.24v30.388h28.622V17.399q0-2.473 1.884-4.24 2.002-1.885 4.594-1.885t4.475 1.885q2.003 1.767 2.003 4.24zM378.695 91.961q-.59 2.12-2.592 3.298-1.884 1.178-3.533 1.178-2.71 0-4.712-1.649t-2.002-4.358v-1.178q.118-.707.236-1.06l22.967-69.847q.943-3.062 2.71-5.064 1.766-2.003 5.182-2.003t5.065 2.003q1.767 2.002 2.827 5.064l22.967 69.847q.236.353.236 1.06.118.707.118 1.178 0 2.71-2.003 4.358-1.884 1.649-4.711 1.649-3.18 0-4.594-2.002-1.413-2.003-2.591-5.183l-3.77-11.425h-27.443zm18.256-61.248q-2.238 9.423-4.947 18.139-2.591 8.716-5.3 17.668h20.376q-2.709-8.952-5.536-17.786-2.709-8.834-4.593-18.021zM493.574 36.601q0 9.187-4.711 14.84-4.594 5.654-12.604 7.657 4.359 7.067 8.716 13.898 4.359 6.713 8.717 13.78.47.472.706 1.532t.236 1.649q0 2.71-2.238 4.594-2.12 1.766-4.476 1.766-3.651 0-5.418-2.826l-20.377-33.216h-10.718v29.918q0 2.474-2.003 4.358-1.884 1.885-4.593 1.885-2.592 0-4.476-1.767-1.885-1.885-1.885-4.476V19.405q0-2.827 2.12-4.947t5.065-2.12h20.495q7.774 0 12.956 2.12 5.3 2.12 8.48 5.536 3.299 3.415 4.594 7.773 1.414 4.358 1.414 8.834zm-12.956 0q0-2.238-.707-4.358-.589-2.238-2.238-3.887-1.649-1.767-4.594-2.827-2.826-1.06-7.42-1.06h-14.252v23.91h14.958q6.95 0 10.601-2.944 3.651-3.063 3.651-8.834zM521.855 24.463h-14.252q-2.827 0-4.712-1.767-1.767-1.884-1.767-4.24 0-2.002 1.885-4.005 1.884-2.12 4.594-2.12h41.46q2.473 0 4.475 1.767 2.12 1.767 2.12 4.358 0 2.356-2.002 4.24-1.884 1.767-4.593 1.767H534.81v65.959q0 2.356-1.884 4.24-1.885 1.885-4.594 1.885-2.709 0-4.594-1.885-1.884-1.884-1.884-4.24z"/>
    </g>
    <g fill="#40ced4">
        <path d="M273.359 173.962q0-4.766-2.026-6.91-1.906-2.264-3.812-3.217-2.979-1.43-6.553-2.503-3.455-1.191-7.03-2.382-3.574-1.311-6.91-2.98-3.336-1.667-5.958-4.17-2.502-2.62-4.05-6.314-1.55-3.813-1.55-9.174 0-11.2 6.911-17.515 7.03-6.434 18.944-6.434 2.383 0 6.077.357 3.812.358 7.387 1.43 3.574.953 6.076 2.86 2.621 1.787 2.621 4.765 0 2.383-1.787 4.17-1.668 1.788-4.766 1.788-1.549 0-2.978-.477-1.43-.476-3.098-1.072-1.668-.715-3.813-1.192-2.026-.476-5.004-.476-2.502 0-4.885.595-2.383.477-4.29 1.788-1.787 1.191-2.859 3.455-1.072 2.144-1.072 5.361 0 2.503.596 4.17.595 1.669 1.43 2.86.952 1.192 1.906 1.906 1.072.596 2.025 1.073 2.979 1.549 6.553 2.74 3.575 1.072 7.149 2.383 3.574 1.31 6.791 2.979 3.337 1.668 5.839 4.17 2.62 2.502 4.17 6.195 1.549 3.694 1.549 8.936 0 6.077-2.145 10.842-2.025 4.647-5.838 7.983-3.694 3.217-8.817 4.885-5.123 1.668-11.081 1.668-3.098 0-7.268-.596-4.05-.476-7.744-1.668-3.575-1.191-6.196-3.097-2.502-1.907-2.502-4.647 0-2.383 1.668-4.17 1.787-1.906 4.408-1.906 1.311 0 2.86.595 1.668.596 3.694 1.43 2.144.715 4.885 1.31 2.74.596 6.314.596 7.15 0 10.604-3.217 3.575-3.217 3.575-9.174zM354.599 192.31q0 2.502-1.906 4.408-1.907 1.907-4.647 1.907-2.621 0-4.647-1.907-1.906-1.906-1.906-4.408v-30.74H312.54v30.74q0 2.502-1.907 4.408-1.906 1.907-4.646 1.907t-4.647-1.907q-1.906-1.906-1.906-4.408v-73.752q0-2.502 1.906-4.29 1.906-1.906 4.647-1.906 2.74 0 4.646 1.907 1.907 1.787 1.907 4.289v30.74h28.953v-30.74q0-2.502 1.906-4.29 2.026-1.906 4.647-1.906 2.621 0 4.527 1.907 2.026 1.787 2.026 4.289zM397.329 198.625q-7.268 0-12.749-2.383-5.48-2.502-9.174-6.672-3.575-4.17-5.481-9.77-1.787-5.72-1.787-12.153v-24.544q0-6.196 1.549-11.796 1.668-5.6 5.123-9.77 3.574-4.29 9.055-6.672 5.6-2.502 13.464-2.502t13.344 2.502q5.6 2.383 9.055 6.672 3.575 4.17 5.123 9.77 1.669 5.6 1.669 11.796v24.544q0 6.434-1.907 12.153-1.787 5.6-5.48 9.77-3.575 4.17-9.056 6.672-5.48 2.383-12.749 2.383zm0-74.109q-8.817 0-12.51 5.123-3.574 5.124-3.574 13.464v24.544q0 8.34 3.812 13.583 3.932 5.124 12.272 5.124 8.221 0 12.153-5.124 3.932-5.242 3.932-13.583v-24.544q0-8.34-3.693-13.464-3.575-5.123-12.391-5.123zM484.439 161.809q-1.43-6.077-2.621-12.153-1.072-6.196-2.383-12.391-2.74 13.702-5.838 27.165-3.098 13.464-6.196 27.165-.715 2.383-2.502 4.647-1.787 2.264-5.6 2.264-3.098 0-5.361-2.145-2.145-2.145-2.74-4.885-4.648-18.35-9.175-36.46-4.409-18.228-8.817-36.577 0-2.74 2.264-4.17 2.383-1.55 4.885-1.55 2.025 0 3.693 1.192 1.787 1.073 2.383 3.456 2.026 8.459 4.051 16.8l4.051 16.68q1.43 5.838 2.502 11.795 1.073 5.838 2.383 11.676 1.31-6.077 2.383-12.391 1.192-6.434 2.74-12.63l7.03-29.072q.953-3.813 2.383-5.839 1.549-2.025 5.48-2.025 3.813 0 5.362 2.145 1.55 2.144 2.502 5.719l6.91 29.072q1.43 6.314 2.503 12.63 1.192 6.195 2.621 12.51 1.31-5.958 2.383-11.796 1.192-5.838 2.621-11.794l7.983-33.361q.596-2.264 2.145-3.456 1.668-1.31 3.693-1.31 2.502 0 5.004 1.43 2.503 1.31 2.503 4.408v.596q0 .238-.239.834l-17.753 71.488q-.834 2.74-2.74 4.885-1.907 2.144-5.362 2.144t-5.48-2.144q-2.026-2.264-2.622-5.004z"/>
    </g>
    <g fill="#40ced4">
        <path d="M565.033 125.459h-14.418q-2.86 0-4.766-1.787-1.787-1.907-1.787-4.29 0-2.025 1.906-4.05 1.907-2.145 4.647-2.145h41.94q2.503 0 4.528 1.787 2.145 1.787 2.145 4.408 0 2.383-2.025 4.29-1.907 1.787-4.647 1.787h-14.418v66.723q0 2.383-1.906 4.29-1.907 1.906-4.647 1.906t-4.647-1.906q-1.906-1.907-1.906-4.29zM619.746 116.65q4.885 15.609 9.77 30.98 4.886 15.25 8.698 30.978.834-3.455 1.668-7.03.835-3.693 1.907-7.03l14.893-47.897q.596-2.026 2.502-3.217 2.026-1.311 3.813-1.311 2.979 0 4.885 1.787 1.907 1.668 1.907 4.409 0 .357-.12 1.072 0 .715-.119 1.072l-23.233 70.656q-1.073 3.218-2.86 5.243-1.787 1.907-5.243 1.907-3.455 0-5.242-2.026-1.668-2.026-2.622-5.124l-23.233-70.656q-.239-.357-.358-1.072v-1.072q0-2.74 2.026-4.409 2.025-1.787 4.766-1.787 1.668 0 3.574 1.31 1.907 1.192 2.622 3.218z"/>
    </g>
    <g fill="#ef4c5d" stroke-width="1.001">
        <path d="M96.376.766c-25.427 3.022-49.832 14.61-67.954 32.742-1.887 2.035-3.614 4.486-4.1 7.267-.522 2.152-.132 4.529-.454 6.683-.24 1.127-.682 2.19-1.54 3.111C11.901 64.15 4.848 80.23 1.704 97.04.678 103.198 0 108.813 0 114.46v51.665c0 8.014 3.13 8.67 8.148 8.67 5.366 0 9.077-.535 9.077-11.741.09-18.392-.4-36.794.28-55.166 1.491-16.961 8.276-33.283 18.442-46.852 1.591-2.692 4.963-2.532 7.554-3.552 2.312-.731 4.274-2.221 5.986-3.893 10.407-10.137 23.365-17.7 37.374-21.564 8.175-2.004 15.607-3.163 23.342-3.2 7.84.055 16.843 1.387 23.344 3.2 14.009 3.863 26.967 11.427 37.374 21.564 1.71 1.672 3.672 3.162 5.983 3.893 2.592 1.02 5.965.86 7.556 3.552 10.167 13.569 16.95 29.89 18.441 46.852.68 18.372.191 36.774.281 55.166.101 10.937 2.44 11.742 9.077 11.742 6.03 0 8.149-.377 8.149-8.488v-51.74c0-5.823-.674-12.195-1.706-17.528-3.142-16.81-10.197-32.892-20.624-46.47-.862-.927-1.305-1.998-1.544-3.132-.317-2.157.074-4.535-.455-6.686-.491-2.772-2.212-5.214-4.094-7.244-18.122-18.132-42.53-29.72-67.956-32.742-4.588-.54-9.208-.788-14.315-.764-5.108.023-9.236.28-13.338.764z"/>
        <path d="M167.316 126.41c2.463-.326 7.429-.25 11.738-.25 2.24 0 5.377-.242 7.235 1.47 1.294 1.034 1.166 3.543 1.166 5.314v62.021c0 3.097-1.627 4.446-4.528 4.583-3.91.118-7.827.207-11.742.22-3.742.013-7.483-.043-11.213-.21-6.335-.2-13.01-4.803-13.44-11.498-.39-3.844-.826-9.384-.826-14.098 0-7.577.823-15.146 2.668-22.506 1.921-7.254 4.443-14.77 9.786-20.263 2.402-2.571 5.694-4.222 9.156-4.783zM52.793 126.41c-2.463-.326-7.429-.25-11.738-.25-2.24 0-5.377-.242-7.235 1.47-1.294 1.034-1.166 3.543-1.166 5.314v62.021c0 3.097 1.627 4.446 4.528 4.583 3.91.118 7.827.207 11.742.22 3.742.013 7.483-.043 11.213-.21 6.335-.2 13.01-4.803 13.44-11.498.39-3.844.826-9.384.826-14.098 0-7.577-.823-15.146-2.668-22.506-1.921-7.254-4.443-14.77-9.786-20.263-2.402-2.571-5.694-4.222-9.156-4.783z"/>
    </g>
</svg>
