<svg width="200mm" height="62.482mm" version="1.1" viewBox="0 0 200 62.482" xmlns="http://www.w3.org/2000/svg">
 <g transform="translate(128.57 5.1576)" fill="#cd181f" stroke-width=".88251">
  <path d="m-3.8819 46.214c-1.3723 1.4694-2.561 2.9661-3.9801 4.2016-1.4517 1.2629-3.0349 2.4366-4.7232 3.3544-4.3984 2.3916-8.2373 1.2991-11.733-2.283-0.60804-0.62305-1.1066-1.3785-1.5479-2.1348-0.41654-0.71482-0.69012-1.5117-1.0696-2.3704-0.64246 0.90986-1.1914 1.8136-1.8621 2.614-1.1084 1.3211-2.2327 2.6413-3.4638 3.8442-1.7765 1.7359-3.9077 2.0006-6.1696 1.0731-3.4479-1.4138-5.9384-3.846-7.5498-7.3513-0.55157 0.81367-0.99459 1.6159-1.5788 2.298-1.6009 1.8683-3.1832 3.7648-4.9208 5.5007-1.5506 1.5497-3.5141 1.6626-5.5192 0.92928-3.1241-1.1428-5.5748-3.1188-7.2851-5.9904-1.4764-2.4807-1.3732-5.1274-0.75631-7.7943 1.0987-4.7532 3.2891-9.0563 5.5933-13.308 0.70513-1.3008 1.3617-2.629 2.013-3.9572 0.20738-0.4236 0.32564-0.89221 0.48449-1.3396-0.09439-0.10237-0.18797-0.20562-0.2824-0.30799-0.54804 0.34242-1.2117 0.58246-1.6212 1.0467-1.352 1.5303-2.7278 3.0614-3.8848 4.7364-4.296 6.2199-8.0988 12.729-10.992 19.732-0.45096 1.0925-0.71925 2.2795-0.93634 3.4479-0.30535 1.6512-1.6609 2.6025-3.3041 2.1948-2.4551-0.60805-4.5599-1.8462-6.3911-3.5662-2.148-2.0183-3.0111-4.4867-2.0483-7.2983 1.5488-4.5255 3.1276-9.0519 4.9659-13.465 3.8927-9.344 8.33-18.43 13.539-27.125 0.23563-0.39272 0.48802-0.7766 0.74748-1.1552 1.089-1.5867 1.5885-1.8206 3.3385-0.94252 3.3006 1.6547 5.543 4.3137 6.6559 7.834 0.18092 0.57275-0.04504 1.4085-0.35124 1.9786-2.5822 4.815-5.2844 9.5646-7.8366 14.395-2.7331 5.1688-5.3595 10.395-7.9884 15.619-0.45449 0.9028-0.69453 1.915-1.0193 2.8814-0.05912 0.17738-0.04679 0.37859 0.11473 0.64952 0.24621-0.40948 0.48803-0.82072 0.73866-1.2258 3.6544-5.9022 7.2206-11.862 11.014-17.674 1.292-1.9803 3.0914-3.65 4.7735-5.3489 1.5206-1.5364 3.4021-1.7226 5.3868-0.9337 2.7666 1.1014 4.9791 2.8929 6.6576 5.3515 0.8825 1.2929 1.0952 2.6749 0.47744 4.1151-1.3185 3.0746-2.6696 6.1361-4.0216 9.1957-1.7509 3.9607-3.673 7.8569-4.6314 12.118-0.1765 0.78631-0.29387 1.6-0.30799 2.4039-0.0203 1.194 0.58687 1.5479 1.6247 0.92398 0.68394-0.41213 1.3917-0.90633 1.8612-1.5338 1.7897-2.3951 3.4912-4.8573 5.213-7.3019 0.1359-0.19326 0.2171-0.44742 0.25152-0.68394 0.72718-4.9914 2.8037-9.509 4.9756-13.982 1.4773-3.0429 3.1038-6.0134 4.6137-9.0413 0.40419-0.80926 0.66629-1.6962 0.91957-2.5699 0.2771-0.95752 0.87721-1.3043 2.1674-1.0325 2.3775 0.49949 4.544 1.5073 6.5376 2.877 3.1082 2.1365 3.2247 2.7314 1.5815 6.1308-2.6519 5.4865-5.3886 10.938-7.8305 16.516-1.0449 2.3872-1.4923 5.0462-2.0889 7.6098-0.13679 0.58775 0.23475 1.2938 0.37241 1.945 0.64247-0.21357 1.4544-0.25151 1.8956-0.676 1.1358-1.0925 2.1251-2.3404 3.1408-3.553 2.4948-2.9793 3.2909-6.67 4.4681-10.25 3.8001-11.565 9.2416-22.319 16.633-32.035 0.76337-1.0043 1.6927-1.8894 2.591-2.7834 1.142-1.1375 2.5063-1.4605 4.0851-1.0572 2.7984 0.71483 5.1238 2.1207 6.8677 4.4514 1.2276 1.6388 1.7315 3.4585 0.92045 5.3692-1.2629 2.9767-2.5169 5.9807-4.0842 8.8003-3.6942 6.6435-7.9099 12.94-13.284 18.383-0.14914 0.1509-0.28682 0.31505-0.45273 0.44567-3.5141 2.7525-4.1028 6.79-4.619 10.798-0.22593 1.7571 0.84367 2.4604 2.539 1.9318 2.8223-0.87898 4.9773-2.7358 6.955-4.8353 0.33889-0.35918 0.65835-0.73689 0.9743-1.1164 1.7403-2.0915 3.0499-4.3578 4.0754-6.9453 2.1771-5.4918 4.8352-10.792 7.2701-16.182 0.691-1.5285 1.2946-3.0976 1.9353-4.6482 0.29211-0.70688 0.8075-1.0802 1.5762-0.94252 3.4135 0.60893 6.4229 2.0545 8.9848 4.4063 0.93634 0.85956 1.0493 1.8577 0.49068 2.9705-1.4403 2.8655-2.8814 5.7301-4.3137 8.5991-2.3633 4.7311-4.7117 9.4693-5.8484 14.687-0.17915 0.8225-0.28505 1.6732-0.30888 2.5143-0.036234 1.3176 0.53744 1.7562 1.7015 1.1367 1.1667-0.6204 2.3201-1.3864 3.2441-2.321 3.5309-3.5697 5.9693-7.7484 6.5985-12.825 0.09001-0.72366-0.0071-1.4702 0.01149-2.2054 0.0061-0.25593 0.05379-0.69982 0.16239-0.72541 0.25946-0.06268 0.64335-0.01941 0.84014 0.14384 0.45449 0.38124 0.87898 0.82249 1.2249 1.3052 1.2876 1.7968 1.9512 3.8274 1.9962 6.0293 0.01321 0.64599-0.08558 1.3882-0.39714 1.9344-3.1382 5.4865-7.5233 9.5452-13.616 11.543-1.5435 0.50656-3.125 0.383-4.672-0.1668-2.2945-0.81543-4.3428-2.028-6.0937-3.7153-1.209-1.1632-2.2433-2.4498-2.4145-4.2687zm8.0785-36.47c-0.19857-0.052941-0.39712-0.10678-0.59569-0.16061-6.2984 8.322-11.291 17.42-15.74 26.846 0.40594-0.2268 0.70071-0.52332 0.96811-0.84456 5.2236-6.2781 9.6784-13.071 13.474-20.295 0.66894-1.2734 1.2302-2.6096 1.75-3.9519 0.18533-0.47743 0.10325-1.059 0.14385-1.5938z"/>
  <path d="m-93.809 33.214c3.0711 0.60628 5.4124 4.326 4.6226 7.3221-0.65217 2.4745-2.02 4.5687-3.5927 6.5332-2.817 3.5194-6.2843 6.2526-10.245 8.39-4.2943 2.3183-8.6353 2.4384-13.126 0.56216-7.4686-3.1223-12.679-10.961-12.407-19.05 0.16152-4.7982 1.4315-9.3925 3.0915-13.873 2.3748-6.4096 5.25-12.56 9.7032-17.834 2.9731-3.5212 6.3787-6.4838 10.875-7.9364 2.899-0.93634 5.874-0.67247 8.8206-0.48185 3.7727 0.24357 7.4986 0.8172 10.974 2.6016 0.78366-0.94958 1.5091-1.8956 2.3051-2.779 2.0015-2.223 3.6545-2.3872 6.0681-0.59481 2.0077 1.4906 3.1876 3.5194 3.7983 5.9304 0.23034 0.90986-0.0045 1.5594-0.66364 2.1674-2.5143 2.3201-5.0621 4.6076-7.4978 7.008-1.502 1.4808-2.8849 3.0949-4.1945 4.7496-0.56921 0.71923-0.78455 1.7103-1.232 2.539-0.15621 0.28769-0.52332 0.64422-0.80485 0.65306-3.1964 0.10501-5.4839-2.4401-4.6684-5.5315 0.6504-2.4622 1.8206-4.7867 2.7693-7.1695 0.1262-0.3177 0.30446-0.61422 0.60893-1.2214-0.87192 0.14032-1.5091 0.18533-2.1145 0.34947-3.0623 0.82955-5.4865 2.7314-7.6972 4.8705-8.3026 8.0352-13.981 17.628-16.782 28.866-0.63371 2.5434-0.92752 5.1494-0.33805 7.7519 0.19244 0.8472 0.52157 1.6944 0.94782 2.4507 1.4253 2.5275 3.6112 3.2529 6.9462 2.4242 3.0596-0.75984 5.4636-2.5734 7.601-4.7752 3.1355-3.2308 5.3347-6.9991 6.2084-11.454 0.15179-0.76513 0.02297-1.5859 0.02297-2.4692z"/>
  <path d="m39.361-0.2945h-5.8078c0.75719-1.607 1.4288-3.0702 2.1489-4.5087 0.08914-0.17738 0.43508-0.32035 0.66277-0.32035 8.0114-0.013236 16.024-0.00708 24.035 0 0.06178 0 0.12355 0.043241 0.26563 0.096195-1.6141 4.8264-3.2291 9.6537-4.8432 14.482 0.05556 0.031768 0.11032 0.063567 0.16592 0.095295 0.19679-0.29299 0.40154-0.5798 0.58863-0.87897 2.7049-4.3384 5.4212-8.6715 8.0987-13.027 0.3583-0.58245 0.72807-0.8225 1.4235-0.80043 1.7262 0.055594 3.455 0.018536 5.3339 0.018536-0.20122 0.35212-0.3283 0.62393-0.49686 0.86662-5.9198 8.6-11.849 17.194-17.753 25.804-0.39801 0.58069-0.79778 0.85603-1.532 0.83838-2.178-0.05293-4.3587-0.01852-6.6532-0.01852 2.1118-7.5754 4.1875-15.026 6.3135-22.655-1.2443 0-2.3325-0.082956-3.395 0.047655-0.3433 0.04147-0.71659 0.59657-0.90809 0.99634-3.3103 6.8924-6.6047 13.792-9.8682 20.706-0.31241 0.66188-0.64864 0.94075-1.4067 0.9231-2.3254-0.05383-4.6517-0.0194-7.1624-0.0194 3.6121-7.5798 7.1624-15.033 10.79-22.646z"/>
  <path d="m19.549 16.605c-3.2079-0.35477-6.0372-2.0845-7.7016-5.4636-0.94163-1.9133-0.20386-5.3224 1.4067-6.7582 0.40243-0.3583 1.0661-0.59657 1.6079-0.59481 3.4929 0.013234 7.6107 2.997 8.8198 6.3081 0.32212 0.8825 0.18268 1.6741-0.52156 2.313-0.8119 0.7369-1.2135 1.5356-0.95575 2.7075 0.21709 0.98488-0.63012 1.5073-2.6555 1.4879z"/>
  <path d="m-23.456 16.235c-2.8673-0.26299-5.5236-2.0351-7.2233-5.1485-1.0705-1.9609-0.39889-5.4124 1.2452-6.9674 0.34418-0.32564 0.9134-0.55774 1.3899-0.57716 3.6509-0.15091 7.917 2.862 9.141 6.3761 0.30799 0.88251 0.04592 1.6097-0.59305 2.1939-0.78895 0.72101-1.1164 1.5153-0.9584 2.6184 0.16768 1.1596-0.51716 1.5612-3.0014 1.5047z"/>
 </g>
</svg>
