<svg xmlns="http://www.w3.org/2000/svg" height="215.93" width="600">
    <g fill="#42b1cc">
        <path d="M422.852 205.669c0 5.61-2.563 8.187-6.208 9.297-3.047.94-7.646.94-11.69.94-4.072 0-8.643 0-11.69-.94-3.645-1.11-6.208-3.687-6.208-9.297V10.257c0-5.596 2.563-8.187 6.208-9.326 3.047-.912 7.618-.926 11.69-.926 4.043 0 8.643.015 11.69.926 3.645 1.139 6.208 3.73 6.208 9.326v195.412zM193.23 26.509c0 5.61-2.592 8.187-6.237 9.297-3.047.954-7.617.969-11.69.969-4.072 0-8.614-.015-11.718-.969-3.617-1.11-6.18-3.688-6.18-9.297V10.262c0-5.595 2.563-8.201 6.18-9.297 3.104-.94 7.646-.969 11.718-.969s8.643.029 11.69.969c3.645 1.096 6.237 3.702 6.237 9.297V26.51zM193.23 205.669c0 5.61-2.592 8.187-6.237 9.297-3.047.94-7.617.94-11.69.94-4.072 0-8.614 0-11.718-.94-3.617-1.11-6.18-3.687-6.18-9.297V69.704c0-5.567 2.563-8.173 6.18-9.283 3.104-.926 7.646-.94 11.718-.94s8.643.015 11.69.94c3.645 1.11 6.237 3.716 6.237 9.283V205.67zM521.781 92.021c-25.102 0-42.43 20.475-42.43 45.748 0 25.259 17.328 45.748 42.43 45.748 25.117 0 42.418-20.49 42.418-45.748 0-25.273-17.3-45.748-42.418-45.748m78.212 45.748c0 46.531-35.012 78.155-78.212 78.155S443.54 184.3 443.54 137.769c0-46.503 35.04-78.142 78.241-78.142 43.2 0 78.212 31.639 78.212 78.142M116.287 167.47c4.058-3.502 7.917-3.83 10.75-2.32 2.15 1.153 4.941 4.043 7.177 6.706 2.25 2.606 4.428 5.81 5.396 8.273 1.41 3.645.299 7.005-2.776 10.11-15.179 15.263-35.07 25.685-58.606 25.685C35.028 215.924 0 184.3 0 137.77c0-22.995 8.372-41.547 21.942-55.887 14.11-14.95 34.784-22.254 58.165-22.254H116.8c5.596 0 8.187 2.306 9.284 5.496.954 2.748.982 6.791.982 10.422 0 3.588-.028 7.646-.982 10.366-1.097 3.232-3.688 5.823-9.284 5.823H79.81c-11.334 0-22.454 2.976-31.012 11.96-8.045 8.402-12.985 20.932-12.985 34.074 0 25.273 17.299 45.748 42.417 45.748 15.677 0 27.608-7.091 38.06-16.047M291.148 90.128c21.444 0 35.127 14.025 38.315 33.034h-77.757c3.489-18.78 18.013-33.034 39.442-33.034m75.136 44.88c.143-37.746-28.776-75.394-74.81-75.394-43.228 0-77.287 32.492-77.287 78.155 0 48.368 30.371 78.155 82.626 78.155h47.088c5.624 0 8.215-2.321 9.312-5.525.925-2.705 1.253-6.464 1.253-10.066 0-3.617-.328-7.32-1.253-10.081-1.097-3.19-3.688-5.824-9.312-5.824h-47.414c-21.885 0-43.1-10.821-44.838-33.575h99.955c11.704 0 14.651-9.298 14.68-15.848"/>
    </g>
</svg>
