<svg width="128.46mm" height="211.67mm" version="1.1" viewBox="0 0 128.46 211.67" xmlns="http://www.w3.org/2000/svg">
 <g transform="translate(-40.818 -42.667)">
  <path d="m45.524 42.667h119.04c2.6072 0 4.7061 2.0989 4.7061 4.7061v82.108c0 2.6072-2.0989 4.7061-4.7061 4.7061h-119.04c-2.6072 0-4.7061-2.0989-4.7061-4.7061v-82.108c0-2.6072 2.0989-4.7061 4.7061-4.7061z" fill="#f70302" stroke-width="1.5677"/>
  <path d="m88.495 64.933 36.292 22.75-36.292 22.75z" fill="#fff" stroke-width="1.4475"/>
  <g transform="matrix(1.5117 0 0 1.7907 36.783 39.704)" stroke-width="1.7547" aria-label="Cima">
   <path d="m10.093 85.859q-1.7273 0-2.9428-1.1515-1.1515-1.2155-1.1515-2.9428v-20.472q0-1.6633 1.1515-2.8789 1.2155-1.2155 2.9428-1.2155h4.0944q1.6633 0 2.8789 1.2155 1.2155 1.2155 1.2155 2.8789v4.0944h-4.0944v-2.0472q0-0.83167-0.63975-1.4074-0.57577-0.63975-1.4074-0.63975-0.89564 0-1.4714 0.63975-0.57577 0.57577-0.57577 1.4074v16.378q0 0.89564 0.57577 1.4714 0.57577 0.57577 1.4714 0.57577 0.83167 0 1.4074-0.57577 0.63975-0.57577 0.63975-1.4714v-2.0472h4.0944v4.0944q0 1.7273-1.2155 2.9428-1.2155 1.1515-2.8789 1.1515z"/>
   <path d="m28.011 85.859v-20.472h4.0944v20.472zm0-24.566v-4.0944h4.0944v4.0944z"/>
   <path d="m41.834 85.859v-20.472h4.0944v4.0944q0-1.6633 1.1515-2.8789 1.2155-1.2155 2.9428-1.2155 1.6633 0 2.8789 1.2155 1.2155 1.2155 1.2155 2.8789 0-1.6633 1.1515-2.8789 1.2155-1.2155 2.9428-1.2155 1.6633 0 2.8789 1.2155 1.2155 1.2155 1.2155 2.8789v16.378h-4.0944v-14.33q0-0.83167-0.63975-1.4074-0.57577-0.63975-1.4074-0.63975-0.89564 0-1.4714 0.63975-0.57577 0.57577-0.57577 1.4074v14.33h-4.0944v-14.33q0-0.83167-0.63975-1.4074-0.57577-0.63975-1.4074-0.63975-0.89564 0-1.4714 0.63975-0.57577 0.57577-0.57577 1.4074v14.33z"/>
   <path d="m78.176 81.764q0.83167 0 1.4074-0.57577 0.63975-0.57577 0.63975-1.4714v-2.0472h-2.0472q-0.89564 0-1.4714 0.63975-0.57577 0.57577-0.57577 1.4074 0 0.89564 0.57577 1.4714 0.57577 0.57577 1.4714 0.57577zm-2.0472 4.0944q-1.7273 0-2.9428-1.1515-1.1515-1.2155-1.1515-2.9428v-4.0944q0-1.6633 1.1515-2.8789 1.2155-1.2155 2.9428-1.2155h4.0944v-2.0472q0-0.83167-0.63975-1.4074-0.57577-0.63975-1.4074-0.63975-0.89564 0-1.4714 0.63975-0.57577 0.57577-0.57577 1.4074h-4.0944v-2.0472q0-1.6633 1.1515-2.8789 1.2155-1.2155 2.9428-1.2155h4.0944q1.6633 0 2.8789 1.2155 1.2155 1.2155 1.2155 2.8789v16.378h-4.0944v-4.0944q0 1.7273-1.2155 2.9428-1.2155 1.1515-2.8789 1.1515z"/>
  </g>
  <g transform="matrix(1.5117 0 0 1.7907 36.783 39.704)" stroke-width="1.7547" aria-label="Tube">
   <path d="m10.094 117.14v-24.566h-4.0944v-4.0944h12.283v4.0944h-4.0944v24.566z"/>
   <path d="m32.106 117.14q-1.7273 0-2.9428-1.1516-1.1515-1.2155-1.1515-2.9428v-16.377h4.0944v14.33q0 0.89565 0.57577 1.4714 0.57577 0.57577 1.4714 0.57577 0.83167 0 1.4074-0.57577 0.63975-0.57577 0.63975-1.4714v-14.33h4.0944v20.472h-4.0944v-4.0944q0 1.7273-1.2155 2.9428-1.2155 1.1516-2.8789 1.1516z"/>
   <path d="m56.165 113.04q0.83167 0 1.4074-0.57577 0.63975-0.57577 0.63975-1.4714v-8.1888q0-0.83167-0.63975-1.4074-0.57577-0.63974-1.4074-0.63974-0.89564 0-1.4714 0.63974-0.57577 0.57577-0.57577 1.4074v8.1888q0 0.89565 0.57577 1.4714 0.57577 0.57577 1.4714 0.57577zm-6.1416 4.0944v-28.661h4.0944v12.283q0-1.6633 1.1515-2.8789 1.2155-1.2155 2.9428-1.2155 1.6633 0 2.8789 1.2155 1.2155 1.2155 1.2155 2.8789v12.283q0 1.7273-1.2155 2.9428-1.2155 1.1516-2.8789 1.1516-1.7273 0-2.9428-1.1516-1.1515-1.2155-1.1515-2.9428v4.0944z"/>
   <path d="m80.224 104.85v-2.0472q0-0.83167-0.63975-1.4074-0.57577-0.63974-1.4074-0.63974-0.89564 0-1.4714 0.63974-0.57577 0.57577-0.57577 1.4074v2.0472zm-4.0944 12.283q-1.7273 0-2.9428-1.1516-1.1515-1.2155-1.1515-2.9428v-12.283q0-1.6633 1.1515-2.8789 1.2155-1.2155 2.9428-1.2155h4.0944q1.6633 0 2.8789 1.2155 1.2155 1.2155 1.2155 2.8789v8.1888h-8.1888v2.0472q0 0.89565 0.57577 1.4714 0.57577 0.57577 1.4714 0.57577 0.83167 0 1.4074-0.57577 0.63975-0.57577 0.63975-1.4714h4.0944v2.0472q0 1.7273-1.2155 2.9428-1.2155 1.1516-2.8789 1.1516z"/>
  </g>
 </g>
</svg>
