<svg width="774.312" height="399.987" viewBox="0 0 204.87 105.83" xmlns="http://www.w3.org/2000/svg" xmlns:xlink="http://www.w3.org/1999/xlink">
    <defs>
        <linearGradient id="a">
            <stop stop-color="#0289b6" offset="0"/>
            <stop stop-color="#04b9e5" offset="1"/>
        </linearGradient>
        <linearGradient id="c" x1="180.56" x2="183.58" y1="88.003" y2="85.4" gradientTransform="translate(-990.02 -478.31) scale(6.1631)" gradientUnits="userSpaceOnUse" xlink:href="#a"/>
        <linearGradient id="d" x1="176.29" x2="189.09" y1="92.358" y2="101.23" gradientTransform="translate(-990.02 -478.31) scale(6.1631)" gradientUnits="userSpaceOnUse">
            <stop stop-color="#43454b" offset="0"/>
            <stop offset="1"/>
        </linearGradient>
        <linearGradient id="e" x1="184.52" x2="194.1" y1="99.182" y2="99.087" gradientTransform="translate(-990.02 -478.31) scale(6.1631)" gradientUnits="userSpaceOnUse" xlink:href="#a"/>
        <linearGradient id="b" x1="193.84" x2="187.02" y1="88.196" y2="86.054" gradientTransform="translate(-990.02 -478.31) scale(6.1631)" gradientUnits="userSpaceOnUse">
            <stop offset="0"/>
            <stop stop-color="#43454b" offset="1"/>
        </linearGradient>
    </defs>
    <g stroke-width=".438" style="font-feature-settings:normal;font-variant-caps:normal;font-variant-ligatures:normal;font-variant-numeric:normal" aria-label="FILM">
        <path d="M135.727 63.034v-20.53h15.744v2.423h-12.655v6.358h10.952v2.422h-10.952v9.327zM156.017 63.034v-20.53h3.088v20.53zM164.408 63.034v-20.53h3.088v18.108h11.494v2.422zM182.586 63.034v-20.53h4.649l5.524 14.536q.764 2.03 1.114 3.039.398-1.12 1.242-3.29l5.588-14.285h4.155v20.53h-2.977V45.85l-6.782 17.183h-2.786l-6.75-17.477v17.477z"/>
    </g>
    <path d="M149.44 64.431l55.182.824-28.414-25.532z" fill="url(#b)" transform="translate(-89.316 -39.722)"/>
    <path d="M176.21 39.722h-58.476L89.32 65.666l29.092 26.913z" fill="url(#c)" transform="translate(-89.316 -39.722)"/>
    <path d="M89.316 65.666v52.297l30.064 27.592h56.005z" fill="url(#d)" transform="translate(-89.316 -39.722)"/>
    <path d="M175.38 145.56l30.885-26.354h-59.35z" fill="url(#e)" transform="translate(-89.316 -39.722)"/>
    <g>
        <g fill="#04b9e5" stroke-width=".398" style="font-feature-settings:normal;font-variant-caps:normal;font-variant-ligatures:normal;font-variant-numeric:normal" aria-label="CINE">
            <path d="M63.977 56.632c-1.655 1.706-4.028 2.646-7.057 2.646-5.87 0-8.15-2.72-8.15-6.406 0-3.81 2.435-6.629 8.181-6.629 3.029 0 5.308.915 6.932 2.671l3.654-2.893c-2.655-2.375-6.058-3.513-10.586-3.513-8.743 0-13.583 4.378-13.583 10.364 0 5.985 4.652 10.165 13.552 10.165 4.34 0 7.962-1.286 10.648-3.586zM76.763 42.727h-5.308v20.035h5.308zM105.629 42.727h-5.309v13.306h-.062l-1.749-2.275-11.522-11.032H82.52v20.035h5.309V49.38h.062l1.874 2.35 11.397 11.031h4.466zM132.168 58.999h-16.112l.5-.396v-3.586l-.5-.396h14.613v-3.76h-14.613l.5-.395v-3.587l-.5-.396h16.112v-3.76h-20.921V62.76h20.921z"/>
        </g>
    </g>
</svg>
