<svg width="128.46mm" height="211.67mm" version="1.1" viewBox="0 0 128.46 211.67" xmlns="http://www.w3.org/2000/svg" xmlns:xlink="http://www.w3.org/1999/xlink">
 <defs>
  <radialGradient id="a" cx="70.244" cy="13.787" r="39.038" gradientTransform="matrix(1.6452 -.015281 .011881 1.2791 215.82 -18.246)" gradientUnits="userSpaceOnUse">
   <stop stop-color="#fd6d6e" offset="0"/>
   <stop stop-color="#f70302" offset="1"/>
  </radialGradient>
 </defs>
 <g transform="translate(-220.01 28.892)">
  <path d="m224.72-28.892h119.04c2.6072 0 4.7061 2.0989 4.7061 4.7061v82.108c0 2.6072-2.0989 4.7061-4.7061 4.7061h-119.04c-2.6072 0-4.7061-2.0989-4.7061-4.7061v-82.108c0-2.6072 2.0989-4.7061 4.7061-4.7061z" fill="url(#a)" stroke-width="1.5677"/>
  <path d="m262.64-11.373 43.213 28.24-43.213 28.24z" fill="#fff" stroke-width="1.6808"/>
  <g transform="scale(.91879 1.0884)" stroke-width="2.887" aria-label="Cinema">
   <path d="m251.06 108.37q-2.8419 0-4.8418-1.8946-1.8946-1.9999-1.8946-4.8418v-33.682q0-2.7367 1.8946-4.7365 1.9999-1.9999 4.8418-1.9999h6.7364q2.7366 0 4.7365 1.9999 1.9999 1.9999 1.9999 4.7365v6.7364h-6.7364v-3.3682q0-1.3683-1.0526-2.3156-0.9473-1.0526-2.3156-1.0526-1.4736 0-2.4209 1.0526-0.9473 0.9473-0.9473 2.3156v26.946q0 1.4736 0.9473 2.4209 0.9473 0.9473 2.4209 0.9473 1.3683 0 2.3156-0.9473 1.0526-0.9473 1.0526-2.4209v-3.3682h6.7364v6.7364q0 2.8419-1.9999 4.8418-1.9999 1.8946-4.7365 1.8946z"/>
   <path d="m267.1 108.37v-33.682h6.7364v33.682zm0-40.418v-6.7364h6.7364v6.7364z"/>
   <path d="m276.4 108.37v-33.682h6.7364v6.7364q0-2.7367 1.8946-4.7365 1.9999-1.9999 4.8418-1.9999 2.7366 0 4.7365 1.9999t1.9999 4.7365v26.946h-6.7364v-23.577q0-1.3683-1.0526-2.3156-0.9473-1.0526-2.3156-1.0526-1.4736 0-2.4209 1.0526-0.94731 0.9473-0.94731 2.3156v23.577z"/>
   <path d="m312.65 88.158v-3.3682q0-1.3683-1.0526-2.3156-0.94731-1.0526-2.3156-1.0526-1.4736 0-2.4209 1.0526-0.9473 0.9473-0.9473 2.3156v3.3682zm-6.7364 20.209q-2.8419 0-4.8418-1.8946-1.8946-1.9999-1.8946-4.8418v-20.209q0-2.7367 1.8946-4.7365 1.9999-1.9999 4.8418-1.9999h6.7364q2.7366 0 4.7365 1.9999t1.9999 4.7365v13.473h-13.473v3.3682q0 1.4736 0.9473 2.4209 0.94731 0.9473 2.4209 0.9473 1.3683 0 2.3156-0.9473 1.0526-0.9473 1.0526-2.4209h6.7364v3.3682q0 2.8419-1.9999 4.8418-1.9999 1.8946-4.7365 1.8946z"/>
   <path d="m321.95 108.37v-33.682h6.7364v6.7364q0-2.7367 1.8946-4.7365 1.9999-1.9999 4.8418-1.9999 2.7367 0 4.7365 1.9999t1.9999 4.7365q0-2.7367 1.8946-4.7365 1.9999-1.9999 4.8418-1.9999 2.7367 0 4.7365 1.9999t1.9999 4.7365v26.946h-6.7364v-23.577q0-1.3683-1.0526-2.3156-0.9473-1.0526-2.3156-1.0526-1.4736 0-2.4209 1.0526-0.9473 0.9473-0.9473 2.3156v23.577h-6.7364v-23.577q0-1.3683-1.0526-2.3156-0.94731-1.0526-2.3156-1.0526-1.4736 0-2.4209 1.0526-0.9473 0.9473-0.9473 2.3156v23.577z"/>
   <path d="m368.31 101.63q1.3683 0 2.3156-0.9473 1.0526-0.9473 1.0526-2.4209v-3.3682h-3.3682q-1.4736 0-2.4209 1.0526-0.9473 0.9473-0.9473 2.3156 0 1.4736 0.9473 2.4209 0.9473 0.9473 2.4209 0.9473zm-3.3682 6.7364q-2.8419 0-4.8418-1.8946-1.8946-1.9999-1.8946-4.8418v-6.7364q0-2.7367 1.8946-4.7365 1.9999-1.9999 4.8418-1.9999h6.7364v-3.3682q0-1.3683-1.0526-2.3156-0.9473-1.0526-2.3156-1.0526-1.4736 0-2.4209 1.0526-0.9473 0.9473-0.9473 2.3156h-6.7364v-3.3682q0-2.7367 1.8946-4.7365 1.9999-1.9999 4.8418-1.9999h6.7364q2.7367 0 4.7365 1.9999t1.9999 4.7365v26.946h-6.7364v-6.7364q0 2.8419-1.9999 4.8418-1.9999 1.8946-4.7365 1.8946z"/>
  </g>
  <g transform="scale(.91879 1.0884)" stroke-width="2.887" aria-label="Tube">
   <path d="m251.68 163.45v-40.418h-6.7364v-6.7364h20.209v6.7364h-6.7364v40.418z"/>
   <path d="m287.89 163.45q-2.8419 0-4.8418-1.8946-1.8946-1.9999-1.8946-4.8418v-26.946h6.7364v23.577q0 1.4736 0.9473 2.4209t2.4209 0.9473q1.3683 0 2.3156-0.9473 1.0526-0.9473 1.0526-2.4209v-23.577h6.7364v33.682h-6.7364v-6.7364q0 2.8419-1.9999 4.8418-1.9999 1.8946-4.7365 1.8946z"/>
   <path d="m327.48 156.72q1.3683 0 2.3156-0.9473 1.0526-0.9473 1.0526-2.4209v-13.473q0-1.3683-1.0526-2.3156-0.9473-1.0526-2.3156-1.0526-1.4736 0-2.4209 1.0526-0.94731 0.9473-0.94731 2.3156v13.473q0 1.4736 0.94731 2.4209 0.9473 0.9473 2.4209 0.9473zm-10.105 6.7364v-47.155h6.7364v20.209q0-2.7367 1.8946-4.7365 1.9999-1.9999 4.8418-1.9999 2.7366 0 4.7365 1.9999t1.9999 4.7365v20.209q0 2.8419-1.9999 4.8418-1.9999 1.8946-4.7365 1.8946-2.8419 0-4.8418-1.8946-1.8946-1.9999-1.8946-4.8418v6.7364z"/>
   <path d="m367.06 143.24v-3.3682q0-1.3683-1.0526-2.3156-0.9473-1.0526-2.3156-1.0526-1.4736 0-2.4209 1.0526-0.94731 0.9473-0.94731 2.3156v3.3682zm-6.7364 20.209q-2.8419 0-4.8418-1.8946-1.8946-1.9999-1.8946-4.8418v-20.209q0-2.7367 1.8946-4.7365 1.9999-1.9999 4.8418-1.9999h6.7364q2.7366 0 4.7365 1.9999t1.9999 4.7365v13.473h-13.473v3.3682q0 1.4736 0.94731 2.4209 0.9473 0.9473 2.4209 0.9473 1.3683 0 2.3156-0.9473 1.0526-0.9473 1.0526-2.4209h6.7364v3.3682q0 2.8419-1.9999 4.8418-1.9999 1.8946-4.7365 1.8946z"/>
  </g>
 </g>
</svg>
