<svg version="1.1" viewBox="0 0 800 280.5" xml:space="preserve" xmlns="http://www.w3.org/2000/svg">
<style type="text/css">
	.st0{fill:#FF6E00;}
	.st1{fill:#00D02D;}
	.st2{fill:#00A8E7;}
	.st3{fill:#FF008B;}
</style>
<g transform="matrix(1.5999 0 0 1.5999 0 .028872)">
	
		<path class="st0" d="m296.9 62.4c-3.9 0-7.4-0.9-10.6-2.7s-5.7-4.3-7.5-7.5-2.7-6.7-2.7-10.7c0-6 2-11 5.9-15s8.9-6 14.8-6c4.9 0 9.1 1.5 12.7 4.4s5.8 6.8 6.8 11.6h-8.7c-0.5-1.6-1.3-2.9-2.4-4.1-1-1.2-2.3-2.1-3.7-2.7s-3-0.9-4.7-0.9c-3.4 0-6.3 1.2-8.5 3.6-2.3 2.4-3.4 5.5-3.4 9.1s1.1 6.6 3.4 9 5.1 3.6 8.5 3.6c2.6 0 4.9-0.7 6.8-2.2s3.2-3.5 4-6.1h8.8c-0.9 5-3.2 9-6.7 12-3.5 3.1-7.8 4.6-12.8 4.6z"/>
		<path class="st0" d="m322.1 26.4v-7.8h8.4v7.8zm0 35.1v-31h8.4v31z"/>
		<path class="st0" d="m356.1 29.8c3.5 0 6.3 1.2 8.4 3.5 2 2.4 3.1 5.5 3.1 9.4v18.8h-8.4v-17.4c0-4.6-1.8-6.9-5.4-6.9-1.4 0-2.7 0.3-3.7 1-1.1 0.7-1.9 1.6-2.4 2.8-0.6 1.2-0.8 2.7-0.8 4.3v16.3h-8.4v-31h5.7l1.7 3.8c0.6-0.7 1.2-1.4 2-1.9 0.7-0.6 1.6-1 2.4-1.4 0.9-0.4 1.8-0.7 2.8-0.9 0.9-0.3 1.9-0.4 3-0.4z"/>
		<path class="st0" d="m405.2 45.9c0 0.8-0.1 1.6-0.2 2.5h-23.4c0.3 2.1 1.2 3.7 2.5 4.9 1.3 1.1 3 1.7 5.1 1.7 1.4 0 2.7-0.3 3.8-0.9s2-1.5 2.7-2.6h8.8c-1.1 3.4-3.1 6-5.9 8s-5.9 3-9.5 3c-4.6 0-8.4-1.6-11.5-4.7s-4.6-7-4.6-11.7c0-1.8 0.3-3.6 0.8-5.3s1.3-3.2 2.2-4.5c1-1.3 2.1-2.5 3.4-3.5s2.8-1.7 4.4-2.3c1.6-0.5 3.4-0.8 5.2-0.8 3.1 0 5.9 0.7 8.4 2.2s4.4 3.4 5.7 5.9c1.4 2.5 2.1 5.2 2.1 8.1zm-16-9.1c-1.9 0-3.5 0.5-4.7 1.6-1.3 1-2.2 2.5-2.6 4.3h15c-0.4-1.3-0.9-2.3-1.7-3.2-0.7-0.9-1.6-1.5-2.6-2-1.1-0.5-2.2-0.7-3.4-0.7z"/>
	
	
		
			<path class="st0" d="m312.1 175.3c-11.6 0-21-2.9-28.1-8.6-7.1-5.8-10.7-13.5-10.9-23.1h19.2c0.2 4.7 2.2 8.4 5.9 11s8.6 3.9 14.6 3.9c3.5 0 6.7-0.5 9.4-1.4 2.8-0.9 5-2.3 6.6-4.1s2.5-4 2.5-6.6c0-1.7-0.4-3.3-1.2-4.6s-1.8-2.4-3-3.2-2.9-1.6-5-2.2c-2.2-0.7-4.1-1.2-5.8-1.6-1.7-0.3-4-0.7-6.8-1.2-2.9-0.5-5.3-0.9-7.1-1.2s-4-0.9-6.7-1.6-4.9-1.6-6.6-2.4c-1.7-0.9-3.6-2-5.6-3.4s-3.6-2.9-4.7-4.7c-1.1-1.7-2.1-3.8-2.8-6.3-0.8-2.5-1.1-5.2-1.1-8.2 0-8.4 3.4-15.2 10.1-20.4 6.8-5.2 15.7-7.8 26.7-7.8 11.1 0 19.9 2.7 26.7 8.1 6.7 5.4 10.1 12.7 10.2 21.8h-18.5c-0.1-4.4-1.8-7.7-5.1-10.1s-7.8-3.5-13.6-3.5c-5.4 0-9.7 1-12.9 3.1s-4.8 4.8-4.8 8.1c0 1.4 0.2 2.6 0.7 3.6s1.3 2 2.4 2.8 2.2 1.5 3.2 2 2.5 1 4.5 1.5 3.6 0.8 4.9 1 3.2 0.5 5.6 0.9c3.2 0.6 5.6 1 7.1 1.3 1.6 0.3 3.9 0.8 6.8 1.6 2.9 0.7 5.2 1.5 6.9 2.3 1.6 0.8 3.6 1.9 5.7 3.4 2.2 1.4 3.8 3.1 4.9 4.8 1.1 1.8 2.1 4 2.9 6.6s1.2 5.5 1.2 8.6c0 9.1-3.5 16.3-10.6 21.8-6.8 5.3-16.1 8-27.8 8z"/>
		
		<path class="st1" d="m233 45.7v41.7c-8.5-6.5-19-10.4-30.5-10.4h-2.5c-26.4 0-47.9 21.4-47.9 47.9v2.3c0 26.4 21.4 47.9 47.9 47.9h4.8c26.4 0 47.9-21.4 47.9-47.9v-81.5zm1.4 81.3c0 16.4-13.3 29.8-29.8 29.8h-2.5c-16.4 0-29.8-13.3-29.8-29.8v-1.7c0-16.4 13.3-29.8 29.8-29.8h2.5c16.4 0 29.8 13.3 29.8 29.8z"/>
		<path class="st2" d="m55.2 108.3 44.2-62.5-26.3-0.1-36.9 52.9h-14.8v-52.9h-21.4v129.5h21.4v-56.8h14.9l40.8 56.8h26.3z" fill="#00a8e7"/>
		
			<path class="st3" d="m111.8 80.4h19.8v94.8h-19.8z" fill="#ff008b"/>
			<path class="st3" d="m131.6 55.8c0 5.5-4.4 10-9.9 10s-9.9-4.5-9.9-10 4.4-10 9.9-10 9.9 4.5 9.9 10z"/>
		
	
	
		<path class="st0" d="m466.4 56.8c3.3 0 5.9 2.7 5.9 5.9v6.3c0 7.9-6.6 14.3-14.5 13.9-7.4-0.3-13.1-6.7-13.1-14.3v-11.8z"/>
		<path class="st3" d="m500 42.2c-0.4 7.4-6.7 13.2-14.2 13.2h-6.1c-3.3 0-5.9-2.7-5.9-5.9v-21.8h12.4c7.9 0 14.2 6.5 13.8 14.5z"/>
		<path class="st2" d="m469.7 54c-0.4-0.6-0.9-1.1-1.4-1.6l-22.6-22.8c-1.3-1.3-3.1-2.1-4.8-2.1h-10c-3.8 0-7.3 1.6-9.8 4.1-2.8 2.8-4.3 6.5-4 10.8 0.5 7.3 6.8 12.9 14.2 12.9h36.1c0.7 0 1.4 0.2 2 0.5l3.2 1.8z"/>
		<path class="st1" d="m472.4 50.3v-36c0-7.4-5.7-13.9-13.1-14.3-7.9-0.4-14.5 5.9-14.5 13.9v9.8c0 1.9 0.7 3.6 2.1 4.9l22.6 22.7c0.5 0.5 1 1 1.6 1.4l3.7 2.8-1.8-3.2c-0.5-0.7-0.6-1.3-0.6-2z"/>
	
</g>
</svg>
