<svg data-name="Layer 2" viewBox="0 0 138.09 38.053" xmlns="http://www.w3.org/2000/svg">
    <defs>
        <style>
            .cls-1{fill:#231f20}.cls-3{fill:#fff}
        </style>
        <linearGradient id="c" x1="96.46" x2="95.54" y1="101.53" y2="74.95" gradientTransform="translate(-26.982 -76.98)" gradientUnits="userSpaceOnUse">
            <stop stop-color="#404041" offset="0"/>
            <stop stop-color="#231f20" offset=".53"/>
            <stop stop-color="#6d6e70" offset="1"/>
        </linearGradient>
        <linearGradient id="b" x1="96.71" x2="96.71" y1="86.5" y2="74.17" gradientTransform="translate(-26.982 -76.98)" gradientUnits="userSpaceOnUse">
            <stop stop-color="#fff" offset="0"/>
            <stop stop-color="#fff" offset="1"/>
        </linearGradient>
        <linearGradient id="a" x1="130.77" x2="122.86" y1="77.73" y2="90.54" gradientUnits="userSpaceOnUse">
            <stop stop-color="#ea088b" offset="0"/>
            <stop stop-color="#ea3f95" offset="1"/>
        </linearGradient>
    </defs>
    <g fill="#231f20">
        <path class="cls-1" d="M60.288 32.55a6.89 6.89 0 0 1 6.64-5.53 4.21 4.21 0 0 1 4.09 2.2l-2.54 1.71a2.28 2.28 0 0 0-2.09-1.24 3.31 3.31 0 0 0-3.06 2.8c-.3 1.59.51 2.84 2 2.84a3.63 3.63 0 0 0 2.64-1.29l1.91 1.57a6.59 6.59 0 0 1-5.16 2.41 4.34 4.34 0 0 1-4.43-5.47zM71.018 32.55a7 7 0 0 1 6.77-5.52 4.44 4.44 0 0 1 4.66 5.49 7 7 0 0 1-6.78 5.52 4.44 4.44 0 0 1-4.65-5.49zm8.43 0a2.22 2.22 0 0 0-2.18-2.86 3.41 3.41 0 0 0-3.22 2.83 2.23 2.23 0 0 0 2.17 2.87 3.43 3.43 0 0 0 3.26-2.84zM85.018 27.21h3.11l1.75 4.11 3.32-4.11h3.1l-2 10.62h-2.93l1.16-6.1-3.5 4.16h-.06l-1.95-4.13-1.15 6.07h-2.85zM98.178 27.21h8.54l-.48 2.51h-5.62l-.31 1.6h5.1l-.44 2.32h-5.1l-.32 1.69h5.7l-.47 2.5h-8.61zM108.3 27.21h4.09c3.79 0 5.57 2.19 5 5.25-.59 3.06-3.25 5.34-7.07 5.34h-4zm2.61 8a3.26 3.26 0 0 0 3.44-2.68c.32-1.7-.66-2.69-2.42-2.69h-1.2l-1 5.4zM120.71 33.86l-2.77-6.65h3.35l1.45 3.87 2.93-3.87h3.29l-5.28 6.6-.77 4h-2.95z"/>
    </g>
    <path d="M135.34.15H6.63a4 4 0 0 0-3.76 3.19L.07 19.21a2.61 2.61 0 0 0 2.63 3.2h128.72a4 4 0 0 0 3.75-3.2l2.85-15.87a2.6 2.6 0 0 0-2.68-3.19z" fill="url(#c)"/>
    <g fill="#fff">
        <path class="cls-3" d="M112.71 6.35h-3.46l.59-3.35h11.34l-.58 3.35h-3.44l-2.32 13.27h-4.45zM122.02 3.02h4.35v9.63h.11l3.39-9.63h4l-6.48 16.67h-4.68zM4.298 15.35l1.4-7.94c.52-2.93 3.43-4.48 6.53-4.48 2.84 0 5 1.43 4.54 4.3l-.31 1.79h-4l.26-1.5c.14-.74-.36-1.16-1.08-1.16a1.33 1.33 0 0 0-1.47 1.16l-1.37 7.73c-.13.76.22 1.25 1.08 1.25a1.43 1.43 0 0 0 1.47-1.16l.25-1.46h4l-.29 1.67c-.5 2.82-3.16 4.39-6.13 4.39-3.23-.01-5.43-1.46-4.88-4.59zM18.308 7.16h4.08l-2.21 12.52h-4.08zm.81-4.58h4.08l-.6 3.44h-4.09zM24.118 7.16h4l-.18 1a4.26 4.26 0 0 1 3.12-1.3c1.63 0 2.8 1 2.49 2.73l-1.68 10.09h-4.06l1.54-8.72c.08-.44.05-1-.75-1a1.19 1.19 0 0 0-1.08 1.06l-1.5 8.66h-4.1zM34.108 16.07l.91-5.05c.47-2.69 3-4.15 5.61-4.15 2.82 0 4.26 1.51 3.85 3.87l-.72 4.07h-5.35l-.15.88c-.16.9.54 1.32 1.44 1.32a12.14 12.14 0 0 0 2.88-.46l.21 2.61a12.23 12.23 0 0 1-4.46.79c-2.79.01-4.68-1.31-4.22-3.88zm6.48-3.8l.3-1.68a.65.65 0 0 0-.71-.84 1 1 0 0 0-1 .84l-.3 1.68zM45.018 14.87l4.11-.12c-.06.76-.17 2 1 2a1.22 1.22 0 0 0 1.21-1.16c.15-.81-.47-1.29-1.4-2.15l-1.31-1.2c-1.58-1.46-2.42-2.85-2.08-4.79.42-2.41 2.56-4.54 6.12-4.54 2.46 0 4.67 1.11 4.13 5.07l-3.88.12c.08-1 .08-2-1-2a1.25 1.25 0 0 0-1.22 1.09c-.14.78.83 1.55 1.55 2.2l1.29 1.18c1.66 1.55 2.5 3 2.16 4.9-.44 2.48-2.84 4.51-6.17 4.51s-4.9-2.04-4.51-5.11zM57.138 17.09l1.23-7h-1.16l.49-2.82h1.17l.49-2.82h4.09l-.5 2.82h1.84l-.5 2.82h-1.84l-1.03 5.93c-.08.42.06.69.65.69a8.88 8.88 0 0 0 1.1-.06l-.52 2.91a10.17 10.17 0 0 1-2.51.33c-1.96-.02-3.34-.87-3-2.8zM64.388 16.12c.49-2.78 3.26-4.12 5.95-4.12h.52l.25-1.44c.08-.44-.14-.78-.79-.78a.9.9 0 0 0-1 .81l-.15.85h-3.67l.17-1c.39-2.2 2.63-3.61 5.42-3.61s4.49 1.39 4.05 3.87l-1.12 6.2c-.2 1.14-.32 2.69-.33 2.78h-3.67a7.14 7.14 0 0 1 0-1.2h-.1a3.82 3.82 0 0 1-3 1.43c-1.72 0-3-1.09-2.53-3.79zm5.72.13l.37-2.12h-.46c-.78 0-1.33.62-1.49 1.55s0 1.43.52 1.43a1.07 1.07 0 0 0 1.06-.86zM77.478 7.16h4l-.26 1.46a3.16 3.16 0 0 1 2.61-1.6 4.24 4.24 0 0 1 1.11.12l-.59 3.38a13.57 13.57 0 0 0-1.48-.12c-.88 0-2 .25-2.16 1.27l-1.42 8h-4.08z"/>
    </g>
    <path d="M135.34.15H6.63a4 4 0 0 0-3.76 3.19l-1.44 8.15h135.1l1.49-8.15a2.6 2.6 0 0 0-2.68-3.19z" fill="url(#b)" opacity=".1"/>
    <path transform="translate(-26.982 -76.98)" fill="url(#a)" fill-rule="evenodd" d="M128.07 84.95l4.7-.36-3.77 3.79 1.98 5.54-5.47-1.58-.39-.13-1.01 1.15-5.5 5.88 1.75-8.3-4.78-5.13 6.83-.56 4.56-8.27z"/>
</svg>
