<svg Googl="true" version="1.1" viewBox="0 0 800 799.14" xml:space="preserve" xmlns="http://www.w3.org/2000/svg">
<style type="text/css">
	.st0{fill-rule:evenodd;clip-rule:evenodd;}
</style>

<g transform="scale(.95454)" clip-rule="evenodd" fill="#f5f5f5" fill-rule="evenodd">
	<rect class="st0" x="175.6" y="293.5" width="27.1" height="96.3"/>
	<path class="st0" d="m192.7 239.1c14.6 0 27.8-4.2 38.7-15.1l-15.9-17.9c-6.9 7.1-16.2 9.8-22.8 9.8-18.9 0-25.6-14-25.7-26.5-0.1-12.6 7.2-27.7 25.7-27.7 6.6 0 13.8 1.7 20.6 8.4l16.8-16.6c-10.9-10.5-23.4-15.3-37.4-15.3-36.1 0-52.8 26.3-52.7 51.1 0.1 26.1 14.8 49.8 52.7 49.8z"/>
	<path class="st0" d="m171.6 512-0.5-21 40.2 51.8h23v-96.3h-27.3v33c0.1 3.8 0.1 8.2 0.8 19.7l-40.7-52.7h-23.1v96.3h27.6z"/>
	<polygon class="st0" points="150.6 599.5 150.6 695.8 227.7 695.8 227.7 672.8 177.5 672.8 177.5 658.2 223 658.2 223 636.1 177.4 636.1 177.4 622.4 225.8 622.4 225.8 599.5"/>
	<path class="st0" d="m831.3 337.4c-35.6-182.6-190-322.8-379.5-337.2l-3.7-0.2h-57.2l-3.7 0.2c-216.7 16.5-387.2 197.2-387.2 417.9 0 231.5 187.7 419.2 419.6 419.1 202.7 0 371.9-143.7 411-334.7l7.5-74.7v-20.1zm-577.9 374.4h-128.5v-128.3h128.5zm0-152.9h-128.5v-128.5h128.5zm0-153h-128.5v-128.3h128.5zm0-153.1h-128.5v-128.2h128.5zm478.6 361.5h-19.1v97.5h-70.8v-97h-130.6c-1.7 41.4-8.4 60.1-24 75.8-18.5 18.3-52.6 27.9-90.2 27.9-79.6 0-115.4-32.4-115.4-106.5v-74.1h71.7v63.8c0 43.6 11.3 58.4 41.9 58.4 33.2 0 45.5-14.8 45.5-57.6v-96.8c0-58.7-1.3-63-70-63h-32.3v-56.2l91-190.5h-147.9v-71.7h229.9v71.7l-95.2 190.6c0.4 0 45 0.1 45.4 0.1 48.4-0.3 50.4 27.3 50.1 84.9l94.2-347.3h106.6v429.4h19.2z"/>
	<polygon class="st0" points="641.2 553.7 641.2 205.5 561.5 553.7"/>
</g>
</svg>
