<svg xmlns="http://www.w3.org/2000/svg" height="187.1" width="600" viewBox="0 0 158.75 49.503">
    <g fill="#fff">
        <path d="M66.9 34.01l.612-4.446-8.214 1.008.264-1.753 7.658-.942.547-3.909-7.659.942.226-1.649 8.224-1.008.64-4.446-13.376 1.64-2.29 16.202zM41.41 37.14l1.15-8.054 4.672 7.338 4.663-.575 2.289-16.193-5.2.632-1.093 7.734-4.484-7.047-4.908.603-2.289 16.203zM96.44 20.61l.895 3.759-2.873.348zM73.671 33.186l1.13-8.036 2.789 5.323.094-.01 4.418-6.208-1.13 8.035 4.795-.593.424-.047 5.294-.65 1.102-2.28 5.492-.669.527 2.073 4.192-.518 1.385-.17 4.692-.575 3.184-4.898 2.458 4.21 5.671-.696-4.832-7.555 5.83-8.488-6.075.744-2.713 4.202-2.261-3.59-5.671.688 4.597 6.99-5.247 7.659-3.928-14.055-5.2.63-8.347 15.902 2.139-15.157-5.756.706-4.164 6.105-2.553-5.285-5.181.64-2.28 16.204zM17.92 40.04h.01l9.778-1.196.669-4.532-6.641.81c-.876.114-1.677-.16-1.517-1.3l.584-4.107c.17-1.3 1.272-1.648 2.43-1.79l6.152-.753.65-4.54L19.21 23.96c-1.507.188-2.676 1.149-3.033 2.562l-1.545 11.125c-.151 1.441 1.328 2.628 3.287 2.393M34.6 37.98l2.29-16.203-5.248.64-2.29 16.204z"/>
        <path d="M147.53 21.23l-.593 4.107-13.97 1.715.565-3.9 8.242-6.943c1.413-1.215 1.828-2.035 1.724-2.864-.113-.885-.782-1.366-1.893-1.224-1.253.15-2.534 1.177-3.73 2.684l-3.213-2.647c1.592-2.242 3.759-3.937 6.877-4.324 3.834-.47 6.453 1.329 6.81 4.277.274 2.167-.564 4.08-3.871 6.707l-3.975 3.279zm-23.965 11.775L1.105 48.407l4.032-28.666 122.46-15.402zm4.814-29.73v.01L4.309 18.894.004 49.5l124.13-15.609 30.36-3.74 4.259-30.154z"/>
    </g>
</svg>
