<svg version="1.1" viewBox="0 0 137.99 37.5" xmlns="http://www.w3.org/2000/svg" xmlns:xlink="http://www.w3.org/1999/xlink">
 <defs>
  <path id="v" d="m152.5 77.3h-118.9c-1.8 0-3.4 1.4-3.8 3.2l-2.8 15.9c-0.3 1.8 0.9 3.2 2.6 3.2h128.7c1.8 0 3.4-1.4 3.8-3.2l2.8-15.9c0.3-1.8-0.9-3.2-2.6-3.2z"/>
 </defs>
 <clipPath id="u">
  <use width="100%" height="100%" overflow="visible" xlink:href="#v"/>
 </clipPath>
 <linearGradient id="t" x1="-523.76" x2="-522.66" y1="512" y2="512" gradientTransform="matrix(-.84397 -24.168 -24.168 .84397 12028 -12989)" gradientUnits="userSpaceOnUse">
  <stop stop-color="#404041" offset="0"/>
  <stop stop-color="#DCE0DF" offset=".534"/>
  <stop stop-color="#6D6E70" offset="1"/>
 </linearGradient>
 <path transform="translate(-26.954 -77.3)" d="m26.9 104.4-1-27.1 139.2-4.8 1 27.1z" clip-path="url(#u)" fill="url(#t)"/>
 <path d="m112.75 6.2h-3.5l0.6-3.3h11.4l-0.6 3.3h-3.4l-2.4 13.3h-4.4zm9.3-3.3h4.3l0.1 9.6h0.1l3.4-9.6h3.9l-6.5 16.7h-4.6zm-117.7 12.3 1.4-7.9c0.5-2.9 3.4-4.5 6.5-4.5 2.8 0 5 1.4 4.5 4.3l-0.3 1.8h-4l0.3-1.5c0.1-0.7-0.4-1.2-1.1-1.2-0.8 0-1.3 0.4-1.5 1.2l-1.4 7.7c-0.1 0.8 0.2 1.2 1.1 1.2 0.7 0 1.3-0.4 1.5-1.2l0.3-1.5h4l-0.3 1.7c-0.5 2.8-3.2 4.4-6.1 4.4-3.3 0.1-5.5-1.3-4.9-4.5m14-8.2h4.1l-2.2 12.5h-4.1zm0.8-4.5h4.1l-0.6 3.4h-4.1zm5 4.5h4l-0.2 1h0.1c0.8-0.9 1.9-1.3 3.1-1.3 1.6 0 2.8 1 2.5 2.7l-1.8 10.1h-4.1l1.5-8.7c0.1-0.4 0.1-1-0.8-1-0.5 0-1 0.4-1.1 1.1l-1.3 8.7h-4.1zm10 9 0.9-5c0.5-2.7 3-4.1 5.6-4.1 2.8 0 4.3 1.5 3.8 3.9l-0.7 3.9h-5.3l-0.2 0.9c-0.2 0.9 0.5 1.3 1.4 1.3 1 0 2.1-0.3 2.9-0.5l0.2 2.6c-1.4 0.5-2.8 0.8-4.5 0.8-2.7 0-4.6-1.3-4.1-3.8m6.5-3.8 0.3-1.7c0.1-0.5-0.2-0.8-0.7-0.8-0.6 0-0.9 0.3-1 0.8l-0.3 1.7zm4.4 2.6 4.1-0.1c-0.1 0.8-0.2 2 1 2 0.8 0 1.1-0.6 1.2-1.2 0.1-0.8-0.5-1.3-1.4-2.2l-1.3-1.2c-1.6-1.5-2.4-2.8-2.1-4.8 0.4-2.4 2.6-4.5 6.1-4.5 2.5 0 4.7 1.1 4.1 5.1l-3.9 0.1c0.1-1 0.1-2-1-2-0.8 0-1.1 0.6-1.2 1.1-0.1 0.8 0.8 1.5 1.6 2.2l1.3 1.2c1.7 1.6 2.5 3 2.2 4.9-0.4 2.5-2.8 4.5-6.2 4.5-3.3-0.1-4.9-2.1-4.5-5.1m12.1 2.2 1.2-7h-1.2l0.5-2.8h1.2l0.5-2.8h4.1l-0.5 2.8h1.8l-0.5 2.8h-1.8l-1 5.9c-0.1 0.4 0.1 0.7 0.7 0.7 0.4 0 0.8 0 1.1-0.1l-0.5 2.9c-0.8 0.2-1.7 0.3-2.5 0.3-2 0.1-3.4-0.8-3.1-2.7m7.3-1c0.5-2.8 3.3-4.1 5.9-4.1h0.5l0.3-1.4c0.1-0.4-0.1-0.8-0.8-0.8-0.8 0-1 0.4-1 0.8l-0.2 0.9h-3.6l0.2-0.9c0.4-2.2 2.6-3.6 5.4-3.6 2.9 0 4.5 1.4 4.1 3.9l-1.1 6.2c-0.2 1.1-0.3 2.7-0.3 2.8h-3.8v-1.2h-0.1c-0.8 1.1-2.2 1.4-3 1.4-1.7-0.2-3-1.3-2.5-4m5.7 0.1 0.4-2.1h-0.5c-0.8 0-1.3 0.6-1.5 1.6s0 1.4 0.5 1.4 1-0.3 1.1-0.9m7.4-9.1h4l-0.3 1.5c0.6-0.9 1.4-1.6 2.6-1.6 0.3 0 0.8 0 1.1 0.1l-0.6 3.4c-0.5-0.1-1.2-0.1-1.5-0.1-0.9 0-2 0.3-2.2 1.3l-1.4 8h-4.1z"/>
 <g transform="translate(-26.954 -77.3)" opacity=".1">
  <defs>
   <path id="s" d="m28.4 77.3h136.6v11.3h-136.6z"/>
  </defs>
  <clipPath id="r">
   <use width="100%" height="100%" overflow="visible" xlink:href="#s"/>
  </clipPath>
  <g clip-path="url(#r)">
   <defs>
    <path id="q" d="m33.5 77.3c-1.7 0-3.4 1.5-3.7 3.2l-1.4 8.2h135.1l1.4-8.1v-0.7c0-1.5-1.1-2.5-2.7-2.5h-128.7z"/>
   </defs>
   <clipPath id="p">
    <use width="100%" height="100%" overflow="visible" xlink:href="#q"/>
   </clipPath>
   <linearGradient id="o" x1="-529.92" x2="-528.82" y1="505.77" y2="505.77" gradientTransform="matrix(0 -11.206 -11.206 0 5764.2 -5851.5)" gradientUnits="userSpaceOnUse">
    <stop offset="0"/>
    <stop offset="1"/>
   </linearGradient>
   <path d="m28.4 77.3h136.6v11.3h-136.6z" clip-path="url(#p)" fill="url(#o)"/>
  </g>
 </g>
 <defs>
  <path id="n" d="m122.4 85.6-6.8 0.6 4.8 5.1-1.8 8.3 5.5-5.9 1-1.1 0.4 0.1 5.5 1.6-2-5.6 3.8-3.8-4.7 0.4-1.1-8z"/>
 </defs>
 <clipPath id="m">
  <use width="100%" height="100%" overflow="visible" xlink:href="#n"/>
 </clipPath>
 <linearGradient id="l" x1="-513.54" x2="-512.44" y1="522.15" y2="522.15" gradientTransform="matrix(-2.3657 27.041 27.041 2.3657 -15209 12728)" gradientUnits="userSpaceOnUse">
  <stop stop-color="#d71859" offset="0"/>
  <stop stop-color="#de1947" offset=".06"/>
  <stop stop-color="#e61b34" offset=".145"/>
  <stop stop-color="#ea1c29" offset=".232"/>
  <stop stop-color="#ec1c25" offset=".326"/>
  <stop stop-color="#a71829" offset=".726"/>
  <stop stop-color="#be1e2c" offset="1"/>
 </linearGradient>
 <path transform="translate(-26.954 -77.3)" d="m134.7 77.5-2.1 23.6-18.9-1.7 2-23.5z" clip-path="url(#m)" fill="url(#l)"/>
 <path d="m70.846 26.7h2.8l2.7 10.5h-3.2l-0.4-1.9h-4.1l-1.1 1.9h-3.1zm1.4 6.4-0.7-3-1.7 3zm4.9-1.1c0.5-3.1 3.3-5.5 6.6-5.5 2.2 0 3.4 0.9 4.1 2.2l-2.5 1.7c-0.5-0.7-1.1-1.2-2.1-1.2-1.5 0-2.7 1.2-3 2.8s0.6 2.8 2 2.8c1.1 0 1.8-0.5 2.6-1.3l1.9 1.6c-1.2 1.4-2.8 2.4-5.1 2.4-3-0.1-5-2.4-4.5-5.5m14.5-2.7h-3.1l0.4-2.6h9.3l-0.4 2.6h-3.2l-1.4 7.9h-2.9zm8-2.6h2.9l-1.8 10.5h-3zm3.6 5.3c0.5-3 3.4-5.5 6.7-5.5s5.3 2.4 4.7 5.4c-0.5 3-3.4 5.4-6.7 5.4-3.3 0.1-5.3-2.3-4.7-5.3m8.4 0c0.3-1.5-0.6-2.9-2.2-2.9s-2.9 1.3-3.2 2.8 0.6 2.8 2.2 2.8c1.6 0.1 2.9-1.2 3.2-2.7m5.5-5.3h2.7l3.4 5.5 1-5.5h2.9l-1.9 10.5h-2.5l-3.6-5.8-1 5.8h-2.9z" fill="#dce0df"/>
</svg>
