<svg width="211.67mm" height="136.65mm" version="1.1" viewBox="0 0 211.67 136.65" xmlns="http://www.w3.org/2000/svg">
 <defs>
  <clipPath id="c">
   <path transform="translate(-51.222 -245.14)" d="m47.986 240.15h12.362v7.981h-12.362z"/>
  </clipPath>
  <clipPath id="b">
   <path transform="translate(-55.818 -245.05)" d="m47.986 240.15h12.362v7.981h-12.362z"/>
  </clipPath>
  <clipPath id="a">
   <path transform="translate(-58.575 -245.25)" d="m47.986 240.15h12.362v7.981h-12.362z"/>
  </clipPath>
 </defs>
 <g transform="translate(-16.933 -91.546)">
  <path d="m16.95 91.546v70.031h-0.01701v66.623l211.67-14.143v-122.51z" fill="#050301"/>
  <path transform="matrix(14.655 0 0 -14.655 78.35 173.41)" d="m0 0c-0.409-0.016-0.697-0.378-0.679-0.834 0.015-0.385 0.256-0.619 0.623-0.604 0.403 0.016 0.686 0.371 0.668 0.821-0.016 0.403-0.245 0.631-0.612 0.617m0.038-2.307c-1.061-0.042-1.809 0.57-1.846 1.506s0.695 1.629 1.756 1.671c1.037 0.041 1.748-0.536 1.784-1.448 0.039-0.99-0.646-1.687-1.694-1.729" clip-path="url(#c)" fill="#f6881e"/>
  <path transform="matrix(14.655 0 0 -14.655 145.71 174.74)" d="m0 0c-0.221 0.187-0.39 0.258-0.621 0.248-0.409-0.016-0.692-0.359-0.674-0.815 0.016-0.397 0.263-0.637 0.636-0.622 0.207 8e-3 0.353 0.073 0.583 0.254l-0.081-0.94c-0.368-0.145-0.527-0.187-0.776-0.197-0.829-0.033-1.446 0.566-1.481 1.437-0.038 0.977 0.627 1.71 1.581 1.747 0.136 6e-3 0.273-1e-3 0.422-0.025 0.203-0.033 0.287-0.059 0.487-0.147z" clip-path="url(#b)" fill="#f6881e"/>
  <path transform="matrix(14.655 0 0 -14.655 186.12 171.84)" d="m0 0c-0.322 0.183-0.502 0.241-0.739 0.232-0.249-0.01-0.377-0.08-0.372-0.199 3e-3 -0.077 0.052-0.11 0.184-0.141l0.359-0.081c0.551-0.126 0.81-0.377 0.827-0.809 0.027-0.682-0.495-1.136-1.342-1.169-0.492-0.02-0.858 0.085-1.387 0.402l0.368 0.744c0.432-0.256 0.648-0.324 0.944-0.312 0.261 0.01 0.406 0.093 0.401 0.223-3e-3 0.077-0.059 0.128-0.178 0.153l-0.359 0.069c-0.562 0.109-0.816 0.365-0.834 0.839-0.025 0.623 0.468 1.052 1.239 1.082 0.367 0.014 0.708-0.067 1.12-0.264z" clip-path="url(#a)" fill="#f6881e"/>
  <path d="m64.496 108.92-0.96962 7.9184q-0.10782 1.0235-0.37704 1.0235-0.16155 0-0.37708-0.16154l-0.59254-0.48479q-1.4544-1.1851-3.9323-1.8854-2.424-0.75413-4.848-0.75413-5.4945 0-9.0497 3.3397-3.5552 3.2859-3.5552 8.4033 0 4.7942 3.0704 7.8646 3.1243 3.0165 7.9723 3.0165 2.4779 0 5.1712-0.64637 2.7472-0.70029 3.7168-1.5622 0.16155-0.21564 0.3231-0.21564 0.21563 0 0.21563 0.26937 0 0.3231-0.05374 0.59253l-0.75413 8.7803q0 0.43091-0.59254 0.70024-1.4544 0.70029-4.3094 1.239-2.8011 0.53869-5.1712 0.53869-8.7803 0-14.436-5.656-5.656-5.656-5.656-14.436 0-9.2113 6.4102-15.568 6.4102-6.3563 15.729-6.3563 4.7403 0 9.6422 2.047 2.424 1.0235 2.424 1.8315z" fill="#fff" stroke-width="1.3467"/>
  <path d="m68.482 146.08h10.504v-40.4h-10.504z" fill="#fff" stroke-width="1.3467"/>
  <path d="m131.02 105.68-4.9558 40.4h-11.204l-10.773-18.099q-1.239-2.1547-1.7238-3.1782-1.616-3.0704-3.232-6.8411v1.8315q0 4.3632-0.43092 7.6491l-2.2624 18.638h-10.235l4.9558-40.4h11.043l11.528 19.5 1.7237 3.232 1.5621 3.1243 0.80803 1.5083q0-1.2928 0.0537-1.6699 0.10785-2.5318 0.43095-5.279l2.5318-20.416z" fill="#fff" stroke-width="1.3467"/>
  <path d="m136.62 146.08h22.947v-8.8881h-12.443v-7.0027h11.797v-8.8881h-11.797v-6.7334h12.443v-8.8881h-3.5013l0.59253-1.6699h-15.945l-0.59254 1.6699h-3.5014zm75.825-16.591v-10.989q0-0.70027-0.59253-0.70027h-13.521q-0.53867 0-0.53867-0.75415v-12.443q0-0.53866-0.70029-0.53866h-10.989q-0.53866 0-0.53866 0.53866v12.443q0 0.75415-0.64643 0.75415h-14.436q-0.59253 0-0.59253 0.59256v11.043q0 0.70025 0.64641 0.70025h14.329q0.70031 0 0.70031 0.80801v14.49q0 0.64641 0.59253 0.64641h11.043q0.59254 0 0.59254-0.75412v-14.49q0-0.70029 0.70026-0.70029h13.359q0.59253 0 0.59253-0.64641z" fill="#fff" stroke-width="1.3467"/>
 </g>
</svg>
