<svg version="1.1" viewBox="0 0 800 790.86" xmlns="http://www.w3.org/2000/svg">
 <defs>
  <style>.cls-1{fill:none;}.cls-2{clip-path:url(#a);}.cls-3{fill:#843085;}</style>
  <clipPath id="a">
   <rect class="cls-1" width="1e3" height="847.86"/>
  </clipPath>
 </defs>
 <g transform="scale(.8)">
  <path class="cls-3" d="m428.4 928.25c0 38.72-23.2 60.32-57.12 60.32-11.84 0-23.2-2.72-31.04-7.68l9.6-19.04c6.08 4.16 13.28 5.6 20.96 5.6 18.56 0 30.72-11.04 31.52-32.64-6.56 6.56-16.16 10.08-27.84 10.08-21.6 0-38.56-13.76-38.56-34.88 0-22.88 18.72-37.28 42.4-37.28 31.04 0 50.08 19.36 50.08 55.52zm-28.96-19.52c0-9.6-7.2-16.64-19.52-16.64-11.04 0-18.72 6.4-18.72 16.64s7.52 16.8 19.04 16.8 19.2-7.04 19.2-16.8z"/>
  <path class="cls-3" d="m440.88 930.65c0-36.96 20.48-57.92 48-57.92s48 20.96 48 57.92-20.32 57.92-48 57.92-48-20.96-48-57.92zm69.92 0c0-25.44-8.96-36-21.92-36s-21.76 10.56-21.76 36 8.96 36 21.76 36 21.92-10.56 21.92-36z"/>
  <path class="cls-3" d="m579.76 882c0 4.16-0.64 7.2-4.16 16l-9.28 23.04h-15.84l6.88-25.28c-5.12-2.24-8.48-7.04-8.48-13.76 0-9.28 6.72-15.36 15.52-15.36s15.36 6.24 15.36 15.36z"/>
  <path class="cls-3" d="m585.52 978.65 8.32-17.92c7.68 4.96 19.36 8.32 29.92 8.32 11.52 0 15.84-3.04 15.84-7.84 0-14.08-52 0.32-52-34.08 0-16.32 14.72-27.84 39.84-27.84 11.84 0 24.96 2.72 33.12 7.52l-8.32 17.76c-8.48-4.8-16.96-6.4-24.8-6.4-11.2 0-16 3.52-16 8 0 14.72 52 0.48 52 34.4 0 16-14.88 27.36-40.64 27.36-14.56 0-29.28-4-37.28-9.28z"/>
 </g>
 <path d="m34.449 358.68 34.899-156.27 579.11 2.2596 58.766 210.75-478.24 216.83z" fill="#fefefe" stroke-width="4.5165"/>
 <g class="cls-2" transform="scale(.8)" clip-path="url(#a)" fill="#843085">
  <path class="cls-3" d="m738.82 156.17c-163.79-96.33-345.38-156.17-473.88-156.17-146.09 0-264.94 189.62-264.94 422.72s118.84 422.69 264.94 422.69c128.5 0 310.08-59.83 473.88-156.16 158.66-93.3 261.19-197.93 261.19-266.55s-102.53-173.25-261.19-266.53m-416.55 160.4c39.46-4.83 58.18 22.45 61.4 48.9l11.95 98.91-33.82 4.09-6.61-54.65-32.96 4-3.58-29.52 32.94-4-2.44-20.37c-1.38-11.31-7.69-19.76-23.32-17.85-15.59 1.86-19.49 11.59-18.13 22.85l12.67 104.55-33.83 4.11-11.99-98.93c-3.2-26.45 8.24-57.31 47.72-62.1m-175.62 177.96c-36.45 4.41-75.21-21.26-80.8-67.23-5.59-45.98 25.93-80.17 62.38-84.57l25.18-3.07 3.66 30.37-23.43 2.82c-22.11 2.67-36.54 28.85-33.93 50.35 2.6 21.46 22.85 43.44 44.99 40.75l23.42-2.82 3.68 30.35-25.14 3.05zm43.72-51.49-12.9-106.3 32.11-3.88 12.33 101.94c1.69 13.91 7.8 17.11 18.64 15.78l24.1-2.94 3.86 32.15-31.88 3.85c-24.29 2.96-42.25-7.22-46.26-40.6m95.5 270.56c-15.76 1.91-29.72-1.91-31.85-19.27-1.59-13.07 1.4-18.13 21.71-43.74l34.67-43.95c10.99-14 19.21-25.73 17.85-37.13-0.99999-8.17-10.48-18.05-25.14-16.27-14.68 1.76-21.58 13.13-20.38 22.88 1.48 12.22 9.51 21.73 19 22.52l-24.38 31.05c-19.44-7.86-31.16-27.39-33.63-47.74-4.07-33.7 20.35-62.04 54.86-66.21 34.48-4.17 64.98 17.49 69.05 51.19 3.16 26.09-6.1 40.45-22.52 59.79l-39.06 46.36 79.36-9.6 4.55 37.51-104.08 12.62zm151.93-15.78-18.64-153.79-29.35 3.56-4.41-36.41 68.48-8.3 23.02 190.22zm34.61-242.75-50.75 6.14-3.68-30.35 49.9-6.06c5.63-0.66 9.42-5.53 8.66-12.05-1.97-16.05-64.2-24.8-68.82-62.99-3.41-28.19 15.71-42.81 32.87-44.9l50.73-6.16 3.45 28.21-43.42 5.27c-7.79 0.95-10.65 6.55-9.87 12.84 1.65 13.66 64.47 27.19 68.31 58.86 2.6 21.26-3.96 47.13-37.38 51.19m115.18-13.94-50.75 6.14-3.71-30.35 49.92-6.06c5.63-0.65999 9.45-5.53 8.68-12.05-1.95-16.06-64.2-24.8-68.82-62.99-3.43-28.17 15.7-42.83 32.87-44.9l50.71-6.18 3.45 28.21-43.38 5.25c-7.82 0.97001-10.65 6.59-9.89 12.88 1.65 13.68 64.47 27.2 68.31 58.84 2.6 21.24-3.96 47.15-37.38 51.21m70.93-8.6-18.36-151.84 32.05-3.9 18.4 151.84zm131-15.86c-36.45 4.4-75.19-21.29-80.76-67.27-5.57-46 25.95-80.15 62.4-84.57l25.12-3.07 3.69 30.39-23.4 2.82c-22.17 2.67-36.56 28.85-33.99 50.34 2.6 21.46 22.87 43.46 44.97 40.77l23.43-2.84 3.68 30.37-25.16 3.07z" fill="#843085"/>
 </g>
</svg>
