<svg width="158.75mm" height="52.564mm" version="1.1" viewBox="0 0 158.75 52.564" xmlns="http://www.w3.org/2000/svg">
 <defs>
  <linearGradient id="a" x1="283.41" x2="370.55" y1="-315.9" y2="-403.08" gradientTransform="matrix(.51445 0 0 .51445 -32.023 207.44)" gradientUnits="userSpaceOnUse">
   <stop stop-color="#7a0710" offset="0"/>
   <stop stop-color="#b50a1a" offset="1"/>
  </linearGradient>
 </defs>
 <path d="m7.4136 32.123q-1.4254 0-2.4649 1.3619-1.0272 1.3619-1.4028 3.7876-0.78206 5.0501 2.4465 5.0501 1.4132 0 3.0744-0.73565l-0.37255 2.4058q-1.4129 0.70583-3.4476 0.70583-3.0092 0-4.3278-1.9485-1.3049-1.9584-0.75684-5.4974 0.54806-3.539 2.5114-5.5174 1.9754-1.9784 4.9359-1.9784 0.97465 0 1.8302 0.21872 0.8677 0.2187 1.8064 0.76547l-1.4367 2.197q-0.50051-0.30818-1.0834-0.55671-0.58133-0.25847-1.3123-0.25847zm6.096 12.376h-2.6353l2.4056-15.534h2.6353zm4.9896 0h-2.6353l1.7222-11.121h2.6353zm6.9664 0.11786c-0.51794 0-0.96254-0.10177-1.3338-0.30531-0.36311-0.20991-0.67693-0.57564-0.94142-1.0972h-0.15102c-0.0189 0.86504-0.0421 1.3866-0.0697 1.5647l-0.64311 4.1528h-2.8916l2.3438-15.135h2.2228l0.28209 1.3834h0.12944c0.76056-1.0558 1.7091-1.5838 2.8456-1.5838 1.0934 0 1.875 0.48022 2.3448 1.4407 0.47087 0.95409 0.57087 2.3057 0.29998 4.0549-0.26693 1.7237-0.79634 3.0753-1.5882 4.0549-0.79189 0.97957-1.7417 1.4694-2.8494 1.4694zm0.48782-8.8634c-0.56107 0-1.0034 0.23216-1.3271 0.69648-0.31547 0.45797-0.56316 1.2212-0.743 2.2898l-0.0517 0.33393c-0.18124 1.1704-0.18738 2.0226-0.0183 2.557 0.16902 0.53428 0.54484 0.80143 1.1275 0.80143 1.0071 0 1.6849-1.1258 2.0336-3.3774 0.17139-1.1067 0.17359-1.9336 6e-3 -2.4806-0.15987-0.547-0.50235-0.82051-1.0274-0.82051zm9.7752 8.6865-0.7904-12.429h-0.10396q-0.033 1.4375-0.21015 2.6354l-1.4485 9.7934h-2.3828l2.1586-14.595h3.9524l0.66739 11.47h0.0757l4.0416-11.47h4.0092l-2.1586 14.595h-2.4395l1.4632-9.8932q0.18161-1.2279 0.50446-2.5157h-0.0757l-4.4545 12.409zm11.015-11.063h2.7325l0.55224 6.2793c0.0653 0.55905 0.0662 1.341 3e-3 2.346h0.0595c0.0329-0.15973 0.10548-0.44259 0.22065-0.84856 0.11685-0.41263 0.20966-0.73542 0.27858-0.96836 0.0691-0.23293 0.87596-2.5024 2.4206-6.8085h2.7721l-5.004 11.92c-0.60955 1.4642-1.2806 2.5157-2.0132 3.1546-0.73256 0.63891-1.6268 0.95837-2.6829 0.95837-0.5214 0-0.97797-0.0566-1.3696-0.16971l0.34476-2.2262c0.25824 0.0799 0.55566 0.11979 0.89228 0.11979 0.88441 0 1.5559-0.58567 2.0145-1.757l0.29632-0.69882zm17.479 11.121h-2.7464l1.0107-6.3991h-3.6249l-1.0107 6.3991h-2.7464l2.3051-14.595h2.7464l-0.9161 5.8001h3.6249l0.9161-5.8001h2.7464zm11.275-5.5804q-0.44962 2.7354-1.9197 4.2628-1.4684 1.5174-3.5911 1.5174-1.3451 0-2.26-0.69882-0.91494-0.69881-1.2569-2.0066-0.34033-1.3178-0.0515-3.0748 0.4447-2.7054 1.9026-4.2228 1.4595-1.5274 3.6031-1.5274 2.0701 0 3.0331 1.5574 0.97513 1.5474 0.54029 4.1928zm-6.2208 0q-0.28552 1.737-0.0322 2.6256 0.25329 0.8885 1.136 0.8885 1.6813 0 2.259-3.5141 0.28717-1.7471 0.0185-2.6056-0.25656-0.86852-1.1287-0.86852-0.88269 0-1.4248 0.86852-0.54043 0.85853-0.8276 2.6056zm13.403-5.7502q0.48511 0 0.92724 0.14976l-0.70579 2.5757q-0.26175-0.0998-0.70725-0.0998-0.96032 0-1.5942 0.7687-0.63231 0.75871-0.85802 2.2162l-0.88585 5.7202h-2.6335l1.7222-11.121h2.1682l0.028 1.737h0.0891q0.59793-1.0482 1.1823-1.4974 0.58437-0.44924 1.2675-0.44924zm6.8181 8.0762q-0.252 1.6272-1.3447 2.5457-1.0812 0.90845-2.9227 0.90845-1.6336 0-2.6023-0.64889l0.35713-2.3061q0.48576 0.37935 1.1698 0.62894 0.69398 0.24957 1.2484 0.24957 0.61383 0 0.97701-0.29949 0.37466-0.30947 0.45196-0.80862 0.0788-0.50914-0.19902-0.8885-0.27788-0.37935-1.0938-0.92842-1.0866-0.71877-1.4861-1.5274-0.38804-0.81861-0.21644-1.9267 0.21953-1.4176 1.3082-2.2462 1.0985-0.82859 2.7816-0.82859 1.4652 0 2.6415 0.77868l-1.1566 1.9068q-0.96966-0.57902-1.7716-0.57902-0.50491 0-0.80406 0.26954-0.28926 0.26954-0.34955 0.65888-0.0696 0.44924 0.18324 0.79864 0.2627 0.3494 1.0337 0.86851 0.93223 0.62894 1.28 1.0682 0.34781 0.43926 0.48894 0.99831 0.14112 0.55904 0.0252 1.3078zm5.2172 3.4541q-2.0691 0-3.0383-1.4775-0.95769-1.4874-0.53718-4.2029 0.42669-2.7553 1.7454-4.3027 1.3188-1.5473 3.2494-1.5473 1.8019 0 2.6358 1.3277 0.83545 1.3178 0.46595 3.7038l-0.21953 1.4176h-5.2967q-0.2006 1.4874 0.26071 2.2162 0.46291 0.71878 1.4728 0.71878 1.287 0 2.7587-0.80863l-0.33857 2.1862q-1.3863 0.7687-3.1584 0.7687zm1.0826-9.4839q-0.56432 0-1.0249 0.60896-0.45908 0.59897-0.71481 1.8668h2.673q0.16884-1.2179-0.0803-1.8469-0.2491-0.62893-0.85304-0.62893zm-77.539-6.0346h2.6353l-0.39379 2.5428h-2.6353zm82.324 12.016h2.4996l-0.50241 3.2442h-2.4996zm7.2583 3.3055h-3.3279l2.0403-13.175h-3.4384l0.39872-2.5746h10.205l-0.39872 2.5746h-3.4384zm15.505-15.75h3.3647l-6.6633 15.75h-4.2489l-1.7606-15.75h3.3647l0.85572 9.6202q0.12909 1.2281 0.0808 3.5227 0.55982-1.9498 1.1964-3.5227z" fill="#9f0817" stroke-width=".26459" style="font-variant-caps:normal;font-variant-ligatures:normal;font-variant-numeric:normal"/>
 <path d="m136.27 44.922c12.417 0 22.484-10.066 22.484-22.484s-10.066-22.483-22.474-22.438c-12.427-0.0449-22.493 10.021-22.493 22.438 0 1.051 0.0512 2.0088 0.16792 2.5429l0.0815 0.37236 0.14015-0.23411c0.0771-0.12876 0.27581-0.44371 0.44159-0.69989 0.2608-0.41894 0.44684-0.69134 0.64823-0.98587 2.4868-3.6563 6.9782-7.358 11.943-9.8441 2.2142-1.1084 3.6388-1.6682 6.0977-2.3961 0.66764-0.19764 1.7266-0.43598 2.4195-0.54459 1.085-0.17009 1.1224-0.17403 2.3158-0.24483 1.884-0.11174 2.159-0.27556 2.8629-1.7057 0.61052-1.2402 1.0845-1.9594 1.2914-1.9594 0.18868 0 0.25543 0.46601 0.16483 1.1506-0.0474 0.35826-0.068 0.66962-0.0458 0.69193 0.0874 0.0875 0.4189-0.0633 0.62502-0.28441 0.11934-0.12799 0.29309-0.38317 0.38611-0.56705 0.27846-0.55027 0.42788-0.74154 0.49576-0.63451 0.17782 0.28059 0.0182 1.1197-0.48463 2.5468-0.19419 0.55126-0.35311 1.0891-0.35311 1.1952 0 0.5049 1.0311 1.8591 2.0402 2.6795 0.11456 0.0932 0.31575 0.30933 0.44709 0.48042 0.51453 0.67034 1.319 1.4098 2.0406 1.8756 0.30563 0.19728 1.071 0.82677 1.7628 1.4499 0.24713 0.22259 0.55821 0.5018 0.69128 0.62044 0.13305 0.11866 0.41303 0.33292 0.62213 0.47614 0.35814 0.24527 0.86606 0.69193 1.6438 1.4455 0.18612 0.18036 0.63457 0.56612 0.99649 0.85722 0.36195 0.29111 0.74809 0.64693 0.85808 0.79071 0.17809 0.23285 0.19945 0.31423 0.19532 0.74528-4e-3 0.36231-0.0441 0.56038-0.16239 0.78837-0.14638 0.28247-0.15432 0.35757-0.10977 1.0394l0.0479 0.73484-0.30037 0.27624c-0.4329 0.39809-0.68281 0.48828-0.96408 0.34796-0.29873-0.14903-0.32052-0.14313-0.37421 0.10124-0.0603 0.27443-0.27609 0.37619-0.60513 0.28533-0.20681-0.0571-0.30488-0.0417-0.59846 0.0944-0.86999 0.40306-1.125 0.31346-1.7346-0.60938-0.18013-0.27275-0.59561-0.47908-1.1451-0.56871-0.14894-0.0243-0.48856-0.11902-0.75474-0.21051-0.2661-0.0915-0.81049-0.23121-1.2097-0.31052-0.39922-0.0793-1.1251-0.26662-1.6131-0.41629-1.2955-0.39734-1.6668-0.4541-2.2504-0.34397-1.0002 0.18871-1.6798-0.0184-2.8504-0.8687-0.87013-0.63207-1.1245-0.71472-2.2079-0.71754-0.66296-2e-3 -0.99817 0.0317-1.4171 0.14146-1.0484 0.2746-2.1069 0.95365-3.075 1.9726-0.48416 0.50963-1.1705 1.3975-1.1716 1.5156-2.7e-4 0.0394 0.20933 0.20865 0.46594 0.37597 0.25663 0.16733 0.48218 0.32313 0.50117 0.34623 0.019 0.0231 0.23097 0.19168 0.47103 0.37458 0.4769 0.36339 1.5263 1.3757 2.0491 1.9768 0.69084 0.79425 1.5144 2.1415 2.0284 3.3181 0.28566 0.65397 0.60284 1.773 0.71515 2.5232 0.11728 0.78326 0.0956 3.4073-0.0362 4.3897-0.26968 2.0196-0.8812 3.9432-1.866 5.6685-0.099 0.17108-0.23272 0.43576-0.23272 0.43576z" fill="url(#a)" stroke-width=".53002"/>
 <g transform="matrix(.48021 0 0 .55114 3.9816 20.226)" fill="#9f0817" stroke-width=".5143" style="font-variant-caps:normal;font-variant-ligatures:normal;font-variant-numeric:normal" aria-label="SENDER">
  <path d="m227.72 52.934c0.21108 0 0.38905-0.03104 0.53391-0.09312s0.21729-0.18004 0.21729-0.35387c0-0.13658-0.0538-0.24005-0.16142-0.31041-0.10347-0.07036-0.24626-0.10554-0.42837-0.10554h-0.41595l-0.12416 0.86295zm-1.6638-1.8501h2.5143c0.48425 0 0.84845 0.08899 1.0926 0.26696 0.24419 0.17797 0.36629 0.42837 0.36629 0.7512 0 0.29799-0.0786 0.56288-0.23591 0.79466-0.15728 0.22764-0.4201 0.3994-0.78845 0.51529 0.0786 0.02069 0.15728 0.06415 0.23591 0.13037 0.0786 0.06208 0.149 0.13658 0.21108 0.2235 0.0621 0.08691 0.1138 0.18004 0.15521 0.27937 0.0455 0.09519 0.0745 0.18418 0.0869 0.26696l0.21109 1.2168h-1.6142l-0.13037-0.86295c-0.0124-0.09105-0.0269-0.18418-0.0435-0.27937-0.0165-0.09519-0.0414-0.18211-0.0745-0.26075s-0.0828-0.14072-0.149-0.18625c-0.0621-0.04967-0.14898-0.0745-0.26075-0.0745h-0.42216l-0.23591 1.6638h-1.5459zm-5.2065 0h3.4083l-0.16762 1.192h-1.8625l-0.0683 0.49666h1.7756l-0.14279 1.0182h-1.7756l-0.0807 0.55254h1.9059l-0.16762 1.1858h-3.4518zm-5.1459 3.3587h0.37871c0.19866 0 0.36421-0.04346 0.49666-0.13037 0.13658-0.08691 0.24419-0.20073 0.32283-0.34145 0.0828-0.14486 0.14072-0.31041 0.17383-0.49666 0.0373-0.19039 0.0559-0.38491 0.0559-0.58358 0-0.23591-0.0538-0.42423-0.16141-0.56495-0.10347-0.14072-0.28972-0.21108-0.55874-0.21108h-0.37871zm-1.074-3.3587h2.2163c0.62083 0 1.0906 0.15521 1.4093 0.46562 0.32283 0.31041 0.48424 0.74291 0.48424 1.2975 0 0.39733-0.0579 0.76156-0.17383 1.0927-0.11175 0.32697-0.27316 0.60841-0.48424 0.84432s-0.46562 0.42009-0.76362 0.55254c-0.29799 0.12831-0.63323 0.19246-1.0057 0.19246h-2.3033zm-3.5291 0h1.4962l-0.62082 4.4451h-1.8749l-1.0554-2.744-0.38491 2.744h-1.5024l0.62703-4.4451h1.9246l1.0182 2.6571zm-8.4968 0h3.4083l-0.16762 1.192h-1.8625l-0.0683 0.49666h1.7756l-0.14279 1.0182h-1.7756l-0.0807 0.55254h1.9059l-0.16762 1.1858h-3.4518zm-4.2474 4.5258c-0.29799 0-0.57529-0.02069-0.8319-0.06208-0.25247-0.04139-0.49874-0.10761-0.73879-0.19866l0.16142-1.1734c0.19866 0.11589 0.4056 0.20694 0.62082 0.27316 0.21522 0.06208 0.42837 0.09312 0.63945 0.09312 0.0745 0 0.14693-0.0062 0.21729-0.01863 0.0745-0.01242 0.13865-0.03104 0.19246-0.05587 0.0579-0.02483 0.10346-0.05794 0.13658-0.09933 0.0373-0.04139 0.0559-0.09105 0.0559-0.149 0-0.08277-0.0414-0.15106-0.12417-0.20487-0.0828-0.05381-0.18625-0.10554-0.31041-0.15521-0.12417-0.04967-0.25868-0.10347-0.40354-0.16141-0.14072-0.05795-0.27316-0.13245-0.39733-0.2235s-0.22764-0.20487-0.31041-0.34145c-0.0828-0.13658-0.12417-0.30834-0.12417-0.51528 0-0.21522 0.0414-0.42009 0.12417-0.61462 0.0828-0.19453 0.20901-0.36629 0.3787-0.51528s0.38491-0.26695 0.64566-0.35387c0.26075-0.08691 0.57116-0.13037 0.93124-0.13037 0.23177 0 0.45734 0.02897 0.6767 0.08692 0.21936 0.05381 0.42837 0.12624 0.62703 0.21729l-0.16141 1.1609c-0.34766-0.26075-0.70979-0.39112-1.0864-0.39112-0.0621 0-0.12829 0.0062-0.19866 0.01863-0.0704 0.01242-0.13658 0.03105-0.19866 0.05588-0.0579 0.02483-0.10553 0.05794-0.14279 0.09933-0.0373 0.03725-0.0559 0.08484-0.0559 0.14279 0 0.08691 0.0414 0.15934 0.12417 0.21729 0.0828 0.05381 0.18624 0.10554 0.31041 0.15521s0.25661 0.1014 0.39733 0.15521c0.14486 0.05381 0.27937 0.12417 0.40353 0.21108 0.12417 0.08691 0.22764 0.19659 0.31042 0.32904 0.0828 0.13244 0.12416 0.30006 0.12416 0.50287 0 0.2235-0.0414 0.43458-0.12416 0.63324-0.0786 0.19867-0.20074 0.3725-0.36629 0.52149-0.16141 0.149-0.36836 0.26903-0.62083 0.36008-0.24833 0.08691-0.54218 0.13037-0.88157 0.13037zm-3.9555-2.5022-0.16781 0.97967h-2.029l0.16781-0.97967zm-5.9125-0.77656h-1.3749l0.17266-1.2453h4.3995l-0.17905 1.2453h-1.426l-0.46682 3.2808h-1.5923zm-5.2445 0.63846c0.21741 0 0.40073-0.03161 0.54994-0.09482s0.22382-0.18332 0.22382-0.36032c0-0.13907-0.0554-0.24443-0.16627-0.31607-0.10658-0.07164-0.25366-0.10746-0.44124-0.10746h-0.42844l-0.12789 0.87867zm-1.7138-1.8838h2.5898c0.49879 0 0.87395 0.09061 1.1255 0.27182 0.25151 0.18121 0.37727 0.43618 0.37727 0.76489 0 0.30343-0.081 0.57314-0.24299 0.80914-0.162 0.23179-0.43271 0.40668-0.81212 0.52467 0.081 0.02107 0.162 0.06532 0.243 0.13275 0.081 0.06321 0.15347 0.13907 0.21742 0.22757 0.064 0.0885 0.11729 0.18332 0.15986 0.28446 0.0469 0.09693 0.0767 0.18753 0.0895 0.27182l0.21742 1.239h-1.6626l-0.13429-0.87867c-0.0128-0.09271-0.0277-0.18753-0.0448-0.28446s-0.0426-0.18543-0.0767-0.2655-0.0853-0.14329-0.15347-0.18964c-0.0639-0.05057-0.15346-0.07586-0.26858-0.07586h-0.43484l-0.24299 1.6941h-1.5923zm-5.3403 2.6044c0 0.10535 0.0107 0.20439 0.032 0.2971s0.0554 0.17489 0.10231 0.24653c0.0469 0.06743 0.10868 0.12221 0.18545 0.16436 0.0767 0.04214 0.17052 0.06321 0.28137 0.06321 0.13215 0 0.25365-0.03161 0.36449-0.09482 0.11511-0.06743 0.21316-0.16225 0.29416-0.28446 0.081-0.12643 0.14494-0.27814 0.19184-0.45514s0.0703-0.37718 0.0703-0.60053c0-0.10536-0.0107-0.2065-0.032-0.30343-0.0171-0.09693-0.0491-0.18121-0.096-0.25286-0.0469-0.07585-0.10868-0.13485-0.18545-0.177-0.0767-0.04214-0.17265-0.06321-0.28776-0.06321-0.17905 0-0.32826 0.05268-0.44763 0.15804-0.11937 0.10114-0.21529 0.22757-0.28776 0.37928-0.0682 0.15171-0.11724 0.31185-0.14708 0.48042-0.0256 0.16857-0.0384 0.31607-0.0384 0.4425zm1.0935-2.6866c0.34957 0 0.65439 0.04846 0.91444 0.14539 0.26431 0.09271 0.48386 0.22335 0.65865 0.39192s0.30481 0.37296 0.39008 0.61317c0.0895 0.236 0.13429 0.49518 0.13429 0.77753 0 0.36243-0.0597 0.71009-0.17906 1.043-0.1151 0.33293-0.28989 0.62792-0.52437 0.88499-0.2302 0.25285-0.51796 0.45514-0.86328 0.60685-0.34531 0.15171-0.74391 0.22757-1.1958 0.22757-0.34958 0-0.65653-0.04425-0.92084-0.13275-0.26005-0.09271-0.47747-0.22125-0.65226-0.3856-0.17479-0.16857-0.30694-0.36875-0.39647-0.60053-0.0853-0.23178-0.12789-0.49096-0.12789-0.77753 0-0.36664 0.0575-0.71641 0.17266-1.0493 0.11937-0.33714 0.29415-0.63424 0.52436-0.89131 0.23447-0.26128 0.52436-0.46778 0.86967-0.61949 0.34532-0.15593 0.74392-0.23389 1.1958-0.23389zm-6.9479 2.1303h0.35811c0.10658 0 0.20676-0.0084 0.30055-0.02528 0.0981-0.01685 0.18118-0.04424 0.24939-0.08217 0.0725-0.04215 0.1279-0.09693 0.16627-0.16436 0.0427-0.07164 0.064-0.16225 0.064-0.27182 0-0.09693-0.0149-0.17278-0.0448-0.22757-0.0299-0.059-0.0725-0.10325-0.12789-0.13275-0.0555-0.03371-0.12368-0.05478-0.20463-0.06321-0.0767-0.01264-0.16414-0.01896-0.26219-0.01896h-0.3581zm-1.2981-2.0481h2.5515c0.21741 0 0.41778 0.02739 0.6011 0.08217 0.18331 0.05057 0.34105 0.12854 0.47321 0.23389 0.13215 0.10114 0.23447 0.22967 0.30694 0.3856 0.0767 0.15593 0.1151 0.33714 0.1151 0.54364 0 0.24021-0.0426 0.46989-0.12789 0.68903-0.081 0.21493-0.20463 0.40667-0.3709 0.57524-0.16199 0.16857-0.36662 0.30343-0.61388 0.40457-0.24727 0.09693-0.53503 0.14539-0.86329 0.14539h-0.91444l-0.21102 1.4666h-1.5923zm-4.3459 4.6083c-0.30694 0-0.59257-0.02107-0.85688-0.06321-0.26005-0.04214-0.5137-0.10957-0.76097-0.20228l0.16626-1.1947c0.20463 0.118 0.41778 0.21071 0.63947 0.27814 0.22169 0.06321 0.44124 0.09482 0.65865 0.09482 0.0767 0 0.15134-0.0063 0.22382-0.01896 0.0767-0.01264 0.14281-0.0316 0.19823-0.05689 0.0597-0.02529 0.10656-0.059 0.14069-0.10114 0.0383-0.04214 0.0575-0.09271 0.0575-0.15171 0-0.08429-0.0426-0.15382-0.1279-0.20861-0.0853-0.05478-0.19184-0.10746-0.31973-0.15803s-0.26645-0.10536-0.41566-0.16436c-0.14495-0.059-0.28137-0.13486-0.40926-0.22757s-0.23446-0.20861-0.31973-0.34768c-0.0853-0.13907-0.12789-0.31396-0.12789-0.52467 0-0.21914 0.0426-0.42775 0.12789-0.62582 0.0853-0.19807 0.21529-0.37296 0.39008-0.52467s0.39647-0.27182 0.66504-0.36032c0.26858-0.0885 0.58831-0.13275 0.9592-0.13275 0.23874 0 0.47108 0.0295 0.69703 0.0885 0.22595 0.05478 0.44124 0.12853 0.64587 0.22125l-0.16627 1.1821c-0.3581-0.2655-0.73113-0.39825-1.1191-0.39825-0.064 0-0.13221 0.0063-0.20463 0.01896-0.0725 0.01264-0.14068 0.0316-0.20463 0.05689-0.0597 0.02529-0.10869 0.059-0.14707 0.10114-0.0383 0.03793-0.0575 0.08639-0.0575 0.14539 0 0.0885 0.0426 0.16225 0.12789 0.22125 0.0853 0.05479 0.19185 0.10747 0.31974 0.15804s0.26431 0.10325 0.40926 0.15803c0.14921 0.05478 0.28776 0.12642 0.41565 0.21493 0.1279 0.0885 0.23448 0.20018 0.31974 0.33503 0.0853 0.13485 0.1279 0.30553 0.1279 0.51203 0 0.22757-0.0426 0.44249-0.1279 0.64478-0.081 0.20229-0.20676 0.37929-0.37729 0.531-0.16626 0.15171-0.37941 0.27393-0.63946 0.36664-0.25579 0.0885-0.55848 0.13275-0.90806 0.13275zm-6.2418-4.6083h3.5107l-0.17266 1.2137h-1.9184l-0.0703 0.50571h1.8289l-0.14707 1.0367h-1.8289l-0.0832 0.5626h1.9632l-0.17265 1.2074h-3.5554zm-5.2906 3.4199h0.39007c0.20463 0 0.37516-0.04425 0.51158-0.13275 0.14069-0.0885 0.25153-0.20439 0.33253-0.34768 0.0853-0.1475 0.14494-0.31607 0.17905-0.50571 0.0383-0.19385 0.0575-0.39192 0.0575-0.59421 0-0.24021-0.0554-0.43196-0.16627-0.57524-0.10657-0.14329-0.29841-0.21493-0.57552-0.21493h-0.39007zm-1.1063-3.4199h2.2829c0.63946 0 1.1233 0.15803 1.4516 0.4741 0.33253 0.31607 0.49879 0.75647 0.49879 1.3212 0 0.40457-0.0597 0.77543-0.17905 1.1126-0.1151 0.33293-0.28136 0.6195-0.49879 0.85971-0.21741 0.24021-0.47959 0.42775-0.78654 0.5626-0.30695 0.13064-0.65228 0.19596-1.036 0.19596h-2.3724zm-4.4638 1.8838c0.21741 0 0.40073-0.03161 0.54994-0.09482s0.22382-0.18332 0.22382-0.36032c0-0.13907-0.0554-0.24443-0.16627-0.31607-0.10658-0.07164-0.25366-0.10746-0.44124-0.10746h-0.42844l-0.12789 0.87867zm-1.7138-1.8838h2.5898c0.49879 0 0.87396 0.09061 1.1255 0.27182 0.25153 0.18121 0.37729 0.43618 0.37729 0.76489 0 0.30343-0.081 0.57314-0.24299 0.80914-0.16201 0.23179-0.43272 0.40668-0.81213 0.52467 0.081 0.02107 0.162 0.06532 0.24299 0.13275 0.081 0.06321 0.15347 0.13907 0.21742 0.22757 0.064 0.0885 0.11729 0.18332 0.15987 0.28446 0.0469 0.09693 0.0767 0.18753 0.0895 0.27182l0.21742 1.239h-1.6626l-0.13429-0.87867c-0.0128-0.09271-0.0277-0.18753-0.0448-0.28446s-0.0426-0.18543-0.0767-0.2655-0.0853-0.14329-0.15347-0.18964c-0.064-0.05057-0.15353-0.07586-0.26858-0.07586h-0.43484l-0.24299 1.6941h-1.5923zm-5.3529 0h3.5107l-0.17265 1.2137h-1.9184l-0.0703 0.50571h1.8289l-0.14707 1.0367h-1.8289l-0.0832 0.5626h1.9632l-0.17265 1.2074h-3.5554zm-5.2847 0h3.4723l-0.17905 1.2453h-1.88l-0.0832 0.58157h1.7522l-0.16626 1.1505h-1.7458l-0.2238 1.5487h-1.5923zm-4.7801 2.0481h0.3581c0.10658 0 0.20676-0.0084 0.30055-0.02528 0.0981-0.01685 0.18119-0.04424 0.24939-0.08217 0.0725-0.04215 0.1279-0.09693 0.16627-0.16436 0.0427-0.07164 0.064-0.16225 0.064-0.27182 0-0.09693-0.0149-0.17278-0.0448-0.22757-0.0299-0.059-0.0725-0.10325-0.1279-0.13275-0.0555-0.03371-0.12367-0.05478-0.20462-0.06321-0.0767-0.01264-0.16413-0.01896-0.26218-0.01896h-0.35811zm-1.2981-2.0481h2.5515c0.21742 0 0.41779 0.02739 0.6011 0.08217 0.18332 0.05057 0.34106 0.12854 0.47321 0.23389 0.13215 0.10114 0.23447 0.22967 0.30694 0.3856 0.0767 0.15593 0.11511 0.33714 0.11511 0.54364 0 0.24021-0.0426 0.46989-0.12789 0.68903-0.081 0.21493-0.20463 0.40667-0.3709 0.57524-0.16199 0.16857-0.36662 0.30343-0.61389 0.40457-0.24726 0.09693-0.53502 0.14539-0.86328 0.14539h-0.91445l-0.21102 1.4666h-1.5923zm-6.6383-0.0021h1.4729l-0.61114 4.534h-1.8457l-1.039-2.7989-0.37891 2.7989h-1.479l0.61727-4.534h1.8946l1.0023 2.7102zm-5.7939 4.534h-1.5218l0.61726-4.534h1.5218zm-6.103-4.534h3.3552l-0.16501 1.2158h-1.8334l-0.0672 0.50659h1.7479l-0.14056 1.0385h-1.7479l-0.0795 0.56358h1.8762l-0.165 1.2095h-3.398zm-5.0778 3.4258h0.37281c0.19557 0 0.35854-0.04433 0.48891-0.13298 0.13445-0.08865 0.24039-0.20475 0.3178-0.34828 0.0815-0.14775 0.13853-0.31662 0.17113-0.50659 0.0367-0.19419 0.055-0.39261 0.055-0.59524 0-0.24063-0.053-0.43271-0.1589-0.57624-0.10186-0.14353-0.2852-0.2153-0.55003-0.2153h-0.37281zm-1.0573-3.4258h2.1818c0.61115 0 1.0736 0.15831 1.3873 0.47493 0.31781 0.31661 0.47671 0.75778 0.47671 1.3235 0 0.40527-0.057 0.77677-0.17113 1.1145-0.11 0.33351-0.2689 0.62057-0.47669 0.8612s-0.45837 0.42849-0.75172 0.56358c-0.29335 0.13087-0.62337 0.1963-0.99006 0.1963h-2.2674zm-2.888-3.8266-2.3509 11.418h132.88l2.359-11.418z" fill="#9f0817" stroke-width=".5143"/>
 </g>
</svg>
