<?xml version="1.0" encoding="UTF-8" standalone="no"?><!DOCTYPE svg PUBLIC "-//W3C//DTD SVG 1.1//EN" "http://www.w3.org/Graphics/SVG/1.1/DTD/svg11.dtd"><svg width="100%" height="100%" viewBox="0 0 984 824" version="1.1" xmlns="http://www.w3.org/2000/svg" xmlns:xlink="http://www.w3.org/1999/xlink" xml:space="preserve" xmlns:serif="http://www.serif.com/" style="fill-rule:evenodd;clip-rule:evenodd;stroke-linejoin:round;stroke-miterlimit:1.41421;"><g id="Ebene_2"><rect x="261.7" y="43.7" width="43" height="43"/><rect x="261.7" y="130.2" width="43" height="349.4"/><path d="M130.8,216.8l0,-43l-129.8,0l0,349.3l129.8,0l0,-43l-86.8,0l0,-263.3l86.8,0Z" style="fill-rule:nonzero;"/><path d="M872.2,216.8l0,-43l-129.9,0l0,349.3l129.9,0l0,-43l-86.9,0l0,-132.3l43,0l0,-43l-43,0l0,-88l86.9,0Z" style="fill-rule:nonzero;"/><path d="M217.6,524l0,-393.8l-43,0l0,436.8l130.6,0l0,-43l-87.6,0Z" style="fill-rule:nonzero;"/><path d="M697.7,130.2l-43,0l0,393.8l-44.7,0l0,-393.8l-43,0l0,436.8l130.7,0l0,-436.8Z" style="fill-rule:nonzero;"/><path d="M523.5,1l-174.7,0l0,651.9l65.8,0l0,88.2l43,0l0,-88.2l65.8,0l0.1,-651.9Zm-43,608.9l-22.8,0l0,-42.5l-43,0l0,42.5l-22.8,0l0,-565.9l88.7,0l0,565.9l-0.1,0Z" style="fill-rule:nonzero;"/><path d="M980.1,379.8c-67,32.2 -110.1,84 -150.4,145.4c-40.9,62.5 -75,128.7 -100.9,198.8c-8.8,23.9 -14.9,73.5 -49.9,70.1c-11.6,-1.1 -18.8,-6.9 -21.2,-17.9c-4,-18.5 -1,-41.4 -1.4,-60.4c-0.4,-20.1 -0.8,-40.3 -1.2,-60.4c-0.2,-9.2 -5.5,-38.7 7.4,-41.3c20.2,-4.1 21.7,74.2 23.4,87.9c11.7,-17.4 19.4,-38.5 29.2,-57.2c11.4,-21.7 23.2,-43.1 35.6,-64.2c24.9,-42.5 50.6,-84.2 82.1,-122.1c23.2,-27.9 47.9,-53.1 80.1,-70.5c11.1,-6 21.7,-10.8 34.2,-13.4c6.1,-1.3 38.9,-8.4 33,5.2Z" style="fill:#c20012;fill-rule:nonzero;"/><path d="M482.7,654.9c20,-33.3 50.6,-55.7 80.8,-79c26.9,-20.8 57.5,-41.1 86.7,-58.2c31.5,-18.5 62.1,-38.3 94.4,-55.5c11.8,-6.3 28.1,-16.7 41.5,-18.4c28.2,-3.6 -9,21.6 -16.4,26.3c-32.2,20.9 -64.5,41.9 -96.1,63.9c-11.2,7.7 -36.2,18.9 -42.1,31.1c-2.9,6.1 -0.6,16.5 -0.6,22.9c0,11.7 -0.4,23.3 -1,34.9c-2.1,38.6 -6.4,77 -9.4,115.5c-1.2,15.3 2.9,89.5 -21.5,83.1c-17.4,-4.6 -11,-34.2 -10.8,-47.1c0.3,-21.9 1,-43.8 2.4,-65.7c2.6,-40.9 12.6,-82.4 12.6,-123.3c-28.8,24.5 -57.5,49.7 -78.6,81.5c7.7,0 21,-2.6 16.4,8.1c-3.8,9 -19.2,11.1 -27,11.3c-23.9,0.7 -38.5,-6.7 -31.3,-31.4Z" style="fill:#c20012;fill-rule:nonzero;"/></g></svg>