<svg width="600" height="216.76" viewBox="0 0 158.75 57.35" xmlns="http://www.w3.org/2000/svg">
    <g fill="#fff">
        <path d="M7.203 12.74c0 3.06 2.515 5.642 5.703 5.642 1.5 0 2.58-.576 3.859-1.5.666-.48 1.303-1.02 2.45-1.02.959 0 1.722.353 2.262.767.829.637 1.278 1.526 1.278 2.642 0 1.182-.51 1.975-1.056 2.581-1.687 1.914-5.162 3.632-9.046 3.632C5.481 25.484 0 19.559 0 12.74S5.516-.004 12.653-.004c3.854 0 7.233 1.717 8.92 3.631.54.607 1.05 1.4 1.05 2.582 0 1.08-.444 2.005-1.272 2.641a3.658 3.658 0 0 1-2.263.768c-1.147 0-1.783-.54-2.455-1.02-1.147-.829-2.197-1.5-3.788-1.5-3.127 0-5.642 2.58-5.642 5.642M94.322 1.43c-1.242 0-1.91.672-1.91 1.849v18.895c0 1.147.667 1.849 1.91 1.849h.671c1.243 0 1.88-.702 1.88-1.849v-6.435h2.389c2.263 0 3.631 1.627 4.08 3.188l1.052 3.727c.252.894.828 1.369 1.813 1.369h.96c.985 0 1.752-.606 1.752-1.434 0-.223-.065-.606-.227-1.111l-1.051-3.637c-.444-1.465-1.146-2.612-2.263-3.567 1.945-1.242 3.314-3.348 3.314-5.672 0-3.889-3.218-7.172-7.198-7.172zm2.55 4.208h4.4c1.591 0 2.864 1.338 2.864 2.965 0 1.657-1.243 2.93-2.864 2.93h-4.4zM75.102 1.11c-6.435 0-11.693 5.227-11.693 11.632 0 6.405 5.258 11.597 11.693 11.597 6.44 0 11.699-5.192 11.699-11.597 0-6.405-5.258-11.632-11.699-11.632zm0 4.303c3.92 0 7.137 3.313 7.137 7.33 0 4.045-3.217 7.328-7.137 7.328-3.95 0-7.137-3.283-7.137-7.329 0-4.016 3.187-7.329 7.137-7.329zM116.972 24.02c-1.242 0-1.914-.702-1.914-1.849V3.275c0-1.242.732-1.848 1.914-1.848h10.451c1.177 0 1.91.606 1.91 1.848v.51c0 1.243-.733 1.85-1.91 1.85h-7.9v5.035h6.562c1.176 0 1.909.606 1.909 1.849v.54c0 1.212-.733 1.819-1.91 1.819h-6.56v4.934h8.025c1.212 0 1.914.642 1.914 1.85v.545c0 1.207-.702 1.813-1.914 1.813zM49.485 15.32c-.57.828-.985 1.465-2.167 1.465h-.601c-1.182 0-1.596-.637-2.167-1.465l-3.859-5.703V22.17c0 1.147-.667 1.85-1.91 1.85h-.636c-1.278 0-1.914-.703-1.914-1.85V3.273c0-1.177.637-1.848 1.914-1.848h.793c1.086 0 1.561.323 2.137 1.151L47 11.274l5.96-8.698c.54-.828 1.02-1.151 2.137-1.151h.793c1.278 0 1.914.671 1.914 1.848V22.17c0 1.147-.637 1.85-1.914 1.85h-.637c-1.273 0-1.91-.703-1.91-1.85V9.617zM130.822 57c-.798 0-1.212-.445-1.212-1.212v-8.81h-11.047v8.81c0 .768-.414 1.212-1.212 1.212h-.702c-.799 0-1.213-.445-1.213-1.212V35.584c0-.768.415-1.212 1.213-1.212h.702c.798 0 1.212.444 1.212 1.212v8.425h11.047v-8.425c0-.768.414-1.212 1.212-1.212h.702c.798 0 1.212.444 1.212 1.212v20.204c0 .768-.414 1.212-1.212 1.212zM140.332 34.37c-.798 0-1.212.444-1.212 1.212v20.204c0 .768.414 1.212 1.212 1.212h7.597c5.743 0 10.819-3.864 10.819-11.299 0-7.405-5.01-11.329-10.753-11.329zm1.914 3h5.652c4.182 0 7.628 2.839 7.628 8.33 0 5.52-3.51 8.298-7.693 8.298h-5.587zM51.621 57c-.798 0-1.212-.445-1.212-1.212v-8.81H39.362v8.81c0 .768-.414 1.212-1.212 1.212h-.702c-.799 0-1.213-.445-1.213-1.212V35.584c0-.768.414-1.212 1.213-1.212h.702c.798 0 1.212.444 1.212 1.212v8.425h11.047v-8.425c0-.768.414-1.212 1.212-1.212h.702c.798 0 1.212.444 1.212 1.212v20.204c0 .768-.414 1.212-1.212 1.212zM61.774 57c-.798 0-1.212-.445-1.212-1.212V35.584c0-.768.414-1.212 1.212-1.212h.702c.798 0 1.212.444 1.212 1.212v20.204c0 .768-.414 1.212-1.212 1.212zM76.932 57c-.798 0-1.212-.445-1.212-1.212V37.372h-5.556c-.763 0-1.212-.42-1.212-1.218v-.57c0-.798.449-1.212 1.212-1.212h14.239c.762 0 1.212.414 1.212 1.212v.57c0 .799-.45 1.218-1.212 1.218h-5.556v18.416c0 .768-.415 1.212-1.213 1.212zM94.972 46.88c-3.096-.828-5.556-2.874-5.556-6.193 0-3.54 2.813-6.672 7.182-6.672 3.738 0 5.713 2.172 6.355 3.738.126.318.192.54.192.732 0 .445-.319.702-.799.864l-.894.283c-.575.192-.924.096-1.247-.475-.702-1.278-1.819-2.076-3.571-2.076-2.364 0-4.026 1.53-4.026 3.414 0 1.627 1.248 2.809 2.904 3.223l2.364.606c3.703.96 5.875 3.228 5.875 6.258 0 3.385-2.652 6.769-7.537 6.769-4.722 0-6.702-3.192-7.212-4.98-.288-.96-.096-1.309.702-1.566l.828-.253c.93-.288 1.182.253 1.44.829.51 1.086 1.404 2.904 4.308 2.904 2.748 0 4.278-1.662 4.278-3.541 0-1.404-.828-2.586-3.318-3.258z"/>
    </g>
</svg>
