<svg width="600" height="173.78" viewBox="0 0 158.75 45.978" xmlns="http://www.w3.org/2000/svg">
    <g fill="#fff">
        <path d="M5.774 10.217c0 2.454 2.017 4.523 4.572 4.523 1.203 0 2.07-.461 3.094-1.203.534-.384 1.044-.817 1.964-.817.769 0 1.38.283 1.814.615.664.51 1.024 1.223 1.024 2.118 0 .947-.409 1.583-.846 2.07-1.353 1.534-4.139 2.91-7.253 2.91C4.393 20.434 0 15.684 0 10.218 0 4.75 4.421 0 10.143 0c3.09 0 5.8 1.377 7.152 2.911.433.486.842 1.122.842 2.07 0 .866-.356 1.607-1.02 2.118a2.932 2.932 0 0 1-1.815.615c-.919 0-1.43-.433-1.968-.818-.919-.664-1.761-1.203-3.037-1.203-2.506 0-4.523 2.07-4.523 4.524M77.66 4.519v4.726h3.527c1.3 0 2.296-1.02 2.296-2.349 0-1.304-1.02-2.377-2.296-2.377zm-23.171 5.698c0 3.243 2.555 5.875 5.722 5.875 3.142 0 5.722-2.632 5.722-5.875 0-3.22-2.58-5.876-5.722-5.876-3.167 0-5.722 2.656-5.722 5.876m39.292 9.042c-.996 0-1.535-.563-1.535-1.482V2.628c0-.996.587-1.482 1.535-1.482h8.378c.944 0 1.53.486 1.53 1.482l.001.409c0 .996-.587 1.482-1.53 1.482h-6.334v4.037h5.26c.944 0 1.53.486 1.53 1.482v.434c0 .972-.586 1.458-1.53 1.458h-5.26v3.956h6.435c.971 0 1.534.514 1.534 1.482v.437c0 .968-.563 1.454-1.534 1.454zM77.66 17.777c0 .92-.51 1.482-1.506 1.482h-.539c-.996 0-1.53-.563-1.53-1.482V2.628c0-.944.534-1.482 1.53-1.482h5.75c3.191 0 5.77 2.632 5.77 5.75 0 1.863-1.097 3.551-2.656 4.548.895.765 1.458 1.684 1.814 2.858l.843 2.916c.13.405.182.713.182.89 0 .665-.616 1.15-1.405 1.15h-.77c-.79 0-1.251-.38-1.454-1.096l-.842-2.989c-.36-1.251-1.458-2.555-3.272-2.555H77.66zm-37.988-5.491c-.458.664-.79 1.174-1.737 1.174h-.482c-.948 0-1.28-.51-1.737-1.174l-3.094-4.572v10.063c0 .92-.535 1.482-1.53 1.482h-.511c-1.025 0-1.535-.563-1.535-1.482V2.628c0-.943.51-1.482 1.535-1.482h.636c.87 0 1.251.26 1.713.923l4.75 6.973 4.778-6.973c.433-.664.818-.923 1.713-.923h.636c1.024 0 1.534.539 1.534 1.482v15.15c0 .918-.51 1.481-1.534 1.481h-.51c-1.021 0-1.531-.563-1.531-1.482V7.714zm11.164-2.07c0-5.134 4.215-9.325 9.374-9.325 5.163 0 9.379 4.191 9.379 9.326 0 5.134-4.216 9.297-9.379 9.297-5.159 0-9.374-4.163-9.374-9.297M136.357 45.697c-.64 0-.972-.357-.972-.972v-7.062h-8.856v7.062c0 .615-.332.972-.972.972h-.563c-.64 0-.972-.357-.972-.972V28.527c0-.616.332-.972.972-.972h.563c.64 0 .972.356.972.972v6.754h8.856v-6.754c0-.616.332-.972.972-.972h.563c.64 0 .972.356.972.972v16.198c0 .615-.332.972-.972.972zM149.997 43.291c3.353 0 6.167-2.227 6.167-6.653 0-4.402-2.761-6.682-6.114-6.682h-4.532v13.335zm-6.013 2.406c-.64 0-.972-.36-.972-.972V28.527c0-.616.332-.976.972-.976h6.143c4.604 0 8.62 3.15 8.62 9.087 0 5.96-4.069 9.058-8.673 9.058zM33.934 37.584c-2.482-.664-4.454-2.304-4.454-4.965 0-2.838 2.255-5.349 5.758-5.349 2.997 0 4.584 1.741 5.094 2.997.101.255.154.433.154.587 0 .36-.255.563-.64.692l-.717.231c-.461.15-.74.077-1-.385-.563-1.024-1.458-1.664-2.863-1.664-1.895 0-3.227 1.227-3.227 2.738 0 1.303 1 2.251 2.328 2.583l1.895.486c2.969.77 4.71 2.588 4.71 5.017 0 2.713-2.126 5.427-6.038 5.427-3.79 0-5.378-2.56-5.787-3.993-.23-.77-.076-1.049.563-1.256l.668-.202c.742-.23.944.202 1.15.664.41.87 1.126 2.329 3.455 2.329 2.203 0 3.43-1.333 3.43-2.84 0-1.125-.665-2.072-2.66-2.611zM46.687 45.697c-.64 0-.972-.357-.972-.972V28.527c0-.64.356-.972.972-.972h8.957c.616 0 .972.332.972.972v.457c0 .64-.356.976-.972.976h-7.422v5.475h6.272c.612 0 .972.332.972.972v.462c0 .64-.36.971-.972.971h-6.272v5.451h7.548c.616 0 .976.332.976.972v.462c0 .64-.36.971-.976.971zM68.777 36.177c1.741 0 3.122-1.357 3.122-3.098a3.121 3.121 0 0 0-3.122-3.122h-4.426v6.22zm4.248 9.52c-.486 0-.794-.255-.92-.717l-.923-3.223c-.461-1.587-1.765-3.175-4.118-3.175h-2.713v6.143c0 .612-.332.972-.972.972h-.567c-.636 0-.972-.36-.972-.972V28.523c0-.611.336-.972.972-.972h6.143c3.045 0 5.503 2.511 5.503 5.528 0 2.102-1.303 3.916-3.174 4.762 1.202.87 1.919 1.867 2.328 3.325l.899 3.097c.101.357.154.588.154.717 0 .41-.36.717-.822.717zM80.637 45.697c-.64 0-.972-.357-.972-.972V28.527c0-.616.332-.972.972-.972h.563c.64 0 .972.356.972.972v16.198c0 .615-.332.972-.972.972zM88.577 45.697c-.64 0-.972-.357-.972-.972V28.527c0-.64.356-.972.972-.972h8.957c.612 0 .972.332.972.972v.457c0 .64-.36.976-.972.976h-7.422v5.475h6.268c.616 0 .972.332.972.972v.462c0 .64-.356.971-.972.971h-6.268v5.451h7.548c.616 0 .972.332.972.972v.462c0 .64-.356.971-.972.971zM107.527 37.584c-2.482-.664-4.454-2.304-4.454-4.965 0-2.838 2.255-5.349 5.758-5.349 2.996 0 4.58 1.741 5.094 2.997.101.255.154.433.154.587 0 .36-.255.563-.64.692l-.717.231c-.461.15-.745.077-1-.385-.563-1.024-1.458-1.664-2.863-1.664-1.895 0-3.227 1.227-3.227 2.738 0 1.303 1 2.251 2.328 2.583l1.895.486c2.969.77 4.71 2.588 4.71 5.017 0 2.713-2.126 5.427-6.042 5.427-3.786 0-5.374-2.56-5.783-3.993-.23-.77-.076-1.049.563-1.256l.668-.202c.742-.23.944.202 1.15.664.41.87 1.126 2.329 3.455 2.329 2.203 0 3.43-1.333 3.43-2.84 0-1.125-.669-2.072-2.66-2.611z"/>
    </g>
</svg>
