<svg width="600" height="186.97" version="1.1" viewBox="0 0 158.75 49.469122" xmlns="http://www.w3.org/2000/svg">
 <g transform="translate(-270.19 -288.31)" fill="#fff">
  <path d="m276.36 299.24c0 2.6241 2.1564 4.8369 4.8888 4.8369 1.2861 0 2.2128-0.49365 3.3083-1.2861 0.5716-0.41137 1.1172-0.87471 2.1002-0.87471 0.82275 0 1.4766 0.30312 1.94 0.6582 0.71016 0.5456 1.0956 1.3077 1.0956 2.2647 0 1.0133-0.43736 1.6931-0.90502 2.2128-1.4463 1.6412-4.4255 3.1134-7.7554 3.1134-6.1489 0-10.847-5.0794-10.847-10.925s4.7286-10.925 10.847-10.925c3.304 0 6.2009 1.4723 7.6472 3.1134 0.46334 0.51963 0.90069 1.1995 0.90069 2.2128 0 0.92667-0.38106 1.7191-1.0912 2.2647-0.5716 0.43736-1.2298 0.6582-1.94 0.6582-0.98296 0-1.5286-0.46334-2.1045-0.87471-0.98297-0.71016-1.8836-1.2861-3.2477-1.2861-2.6804 0-4.8369 2.2128-4.8369 4.8369"/>
  <path d="m351.04 289.54c-1.0652 0-1.6367 0.5762-1.6367 1.5851v16.199c0 0.98297 0.57148 1.5852 1.6367 1.5852h0.57602c1.0652 0 1.6112-0.60219 1.6112-1.5852v-5.5166h2.0482c1.9399 0 3.1134 1.3942 3.4988 2.7323l0.9006 3.1958c0.21651 0.76644 0.70982 1.1736 1.5542 1.1736h0.82303c0.84439 0 1.5026-0.51997 1.5026-1.2301 0-0.19053-0.0564-0.51963-0.19495-0.95266l-0.90061-3.1178c-0.38105-1.2558-0.98321-2.2384-1.9402-3.0569 1.6671-1.0652 2.8408-2.8711 2.8408-4.863 0-3.3343-2.7585-6.1491-6.1707-6.1491zm2.1872 3.6073h3.7714c1.364 0 2.4553 1.1474 2.4553 2.5417 0 1.4203-1.0653 2.5118-2.4553 2.5118h-3.7714z"/>
  <path d="m334.57 289.26c-5.5167 0-10.024 4.4818-10.024 9.9725 0 5.4907 4.5074 9.9421 10.024 9.9421 5.5211 0 10.029-4.4513 10.029-9.9421 0-5.4907-4.5079-9.9725-10.029-9.9725zm0 3.6894c3.3603 0 6.1186 2.8406 6.1186 6.2832 0 3.4685-2.7584 6.2832-6.1186 6.2832-3.3862 0-6.1182-2.8146-6.1182-6.2832 0-3.4425 2.7319-6.2832 6.1182-6.2832z"/>
  <path d="m370.47 308.91c-1.0652 0-1.6412-0.60191-1.6412-1.5849v-16.199c0-1.0652 0.62789-1.5849 1.6412-1.5849h8.9592c1.0089 0 1.6368 0.51962 1.6368 1.5849v0.43735c0 1.0652-0.62789 1.5849-1.6368 1.5849h-6.7725v4.3172h5.625c1.009 0 1.6368 0.51963 1.6368 1.5849v0.46333c0 1.0393-0.62789 1.5589-1.6368 1.5589h-5.625v4.2306h6.8807c1.0393 0 1.6412 0.54993 1.6412 1.5849v0.46766c0 1.0349-0.60191 1.5546-1.6412 1.5546z"/>
  <path d="m312.61 301.45c-0.48931 0.71016-0.8444 1.2558-1.8577 1.2558h-0.5153c-1.0133 0-1.3684-0.5456-1.8577-1.2558l-3.3083-4.8888v10.761c0 0.98296-0.57159 1.5849-1.6368 1.5849h-0.54561c-1.0955 0-1.6412-0.60191-1.6412-1.5849v-16.199c0-1.009 0.54562-1.5849 1.6412-1.5849h0.67985c0.931 0 1.338 0.27713 1.8317 0.98728l5.0794 7.4567 5.1097-7.4567c0.46333-0.71015 0.87471-0.98728 1.8317-0.98728h0.67984c1.0956 0 1.6412 0.57591 1.6412 1.5849v16.199c0 0.98296-0.54562 1.5849-1.6412 1.5849h-0.5456c-1.0912 0-1.6368-0.60191-1.6368-1.5849v-10.761z"/>
  <path d="m404.99 337.48c-0.6842 0-1.0393-0.38106-1.0393-1.0393v-7.5519h-9.4702v7.5519c0 0.6582-0.35506 1.0393-1.0392 1.0393h-0.6019c-0.68417 0-1.0393-0.38106-1.0393-1.0393v-17.321c0-0.65819 0.35509-1.0393 1.0393-1.0393h0.6019c0.68419 0 1.0392 0.38107 1.0392 1.0393v7.2228h9.4702v-7.2228c0-0.65819 0.35506-1.0393 1.0393-1.0393h0.60189c0.68418 0 1.0393 0.38107 1.0393 1.0393v17.321c0 0.6582-0.35508 1.0393-1.0393 1.0393z"/>
  <path d="m419.58 334.91c3.5854 0 6.5949-2.3816 6.5949-7.1146 0-4.707-2.9532-7.1406-6.5386-7.1406h-4.8455v14.255zm-6.4304 2.5722c-0.68416 0-1.0393-0.38106-1.0393-1.0393v-17.321c0-0.6582 0.3551-1.0393 1.0393-1.0393h6.569c4.9235 0 9.2191 3.3646 9.2191 9.7127 0 6.3741-4.3476 9.6867-9.2754 9.6867z"/>
  <path d="m302.29 337.48c-0.68418 0-1.0392-0.38106-1.0392-1.0393v-17.321c0-0.65819 0.35507-1.0393 1.0392-1.0393h0.6019c0.68418 0 1.0393 0.38107 1.0393 1.0393v15.788h8.2664c0.65387 0 1.0393 0.35508 1.0393 1.0393v0.49364c0 0.68418-0.38539 1.0393-1.0393 1.0393z"/>
  <path d="m318.63 337.48c-0.68418 0-1.0392-0.38106-1.0392-1.0393v-17.321c0-0.65819 0.35507-1.0393 1.0392-1.0393h0.6019c0.68418 0 1.0393 0.38107 1.0393 1.0393v17.321c0 0.6582-0.35508 1.0393-1.0393 1.0393z"/>
  <path d="m332.97 337.48c-0.74046 0-1.1475-0.41137-1.3943-1.0393l-6.7075-16.611c-0.19053-0.46334-0.35508-0.84873-0.35508-1.0956 0-0.2728 0.22084-0.65387 0.74047-0.65387h1.0956c0.62788 0 0.79242 0.38107 1.0912 1.1215l5.7765 14.641 5.7462-14.641c0.29878-0.74046 0.46334-1.1215 1.0955-1.1215h1.0912c0.52396 0 0.74047 0.38107 0.74047 0.65387 0 0.24682-0.16454 0.63221-0.35508 1.0956l-6.6512 16.611c-0.24684 0.62789-0.65388 1.0393-1.3944 1.0393z"/>
  <path d="m347.31 337.48c-0.68419 0-1.0393-0.38106-1.0393-1.0393v-17.321c0-0.68418 0.38106-1.0393 1.0393-1.0393h9.5785c0.6582 0 1.0392 0.35508 1.0392 1.0393v0.48932c0 0.68417-0.38105 1.0436-1.0392 1.0436h-7.9373v5.8545h6.7032c0.6582 0 1.0436 0.35507 1.0436 1.0392v0.49366c0 0.68417-0.38538 1.0392-1.0436 1.0392h-6.7032v5.8285h8.0716c0.6582 0 1.0436 0.35508 1.0436 1.0393v0.49364c0 0.68418-0.38539 1.0393-1.0436 1.0393z"/>
  <path d="m374.67 328.53c-0.65819 0-1.0956-0.38105-1.0956-1.0652v-0.3291c0-0.68418 0.43736-1.0696 1.0956-1.0696h0.0823c1.914 0 3.3386-1.0133 3.3386-2.9012 0-1.5589-1.4247-2.819-3.3386-2.819-2.1608 0-3.2563 1.2601-3.3386 2.819-0.0259 0.51962-0.19054 1.0392-1.0956 1.0392h-0.6019c-0.62788 0-0.98296-0.2728-0.98296-1.0392 0-2.9835 2.4076-5.3911 6.019-5.3911 3.3949 0 6.0753 2.2171 6.0753 5.2006 0 2.1088-1.0133 3.6677-2.3556 4.3259 1.7278 0.62788 3.0918 2.4076 3.0918 4.7329 0 3.2304-2.5418 5.7462-6.8374 5.7462-3.9405 0-6.5949-2.4076-6.5949-5.3911 0-0.76646 0.35507-1.0393 0.98297-1.0393h0.60189c0.90502 0 1.0696 0.51964 1.0956 1.0393 0.0823 1.5589 1.3684 2.819 3.8322 2.819 2.7064 0 4.1873-1.4506 4.1873-3.3646 0-2.0525-1.862-3.3126-3.9145-3.3126z"/>
 </g>
</svg>
