<svg enable-background="new 0 0 1000 464.6231995" version="1.1" viewBox="0 0 800 371.7" xml:space="preserve" xmlns="http://www.w3.org/2000/svg">
<g transform="scale(.8)">
	<path d="m75.814 232.46c0 85.224 69.334 154.56 154.56 154.56h144.37c9.0665 0 16.098-8.618 16.098-16.04v-283.23c0-17.892 14.557-32.453 32.445-32.453 11.475 0 22.17 6.0845 27.901 15.886 0.71851 1.2336 44.427 76.59 90.698 156.38 44.211 76.241 89.934 155.08 90.652 156.31 2.3134 3.9456 6.8362 6.4916 11.529 6.4916 7.4342 0 13.485-6.0471 13.485-13.486v-289.13c0-17.892 14.549-32.453 32.445-32.453 11.475 0 22.17 6.0845 27.897 15.886 0.72687 1.2336 44.398 76.59 90.64 156.38 44.169 76.224 89.851 155.04 90.586 156.31 2.3134 3.9456 6.8362 6.4916 11.529 6.4916 7.4343 0 13.477-6.0471 13.477-13.486v-374.85h-56.903v223.13s-103.1-177.46-106.44-183.17c-15.051-25.729-43.592-41.985-73.969-41.985-47.584 0-86.171 38.604-86.171 86.184v138.97s-103.1-177.46-106.44-183.17c-15.051-25.729-43.592-41.985-73.969-41.985-47.583 0-86.171 38.604-86.171 86.184v228.36c0.0291 8.3106-6.2174 15.554-15.313 15.57h-87.758c-53.93 0-97.651-43.721-97.651-97.655 0-53.934 43.721-97.655 97.651-97.655h73.508v-56.903h-74.118c-85.224 0-154.56 69.334-154.56 154.56" fill="#c00"/>
	<path d="m943.09 2.0208v374.86c0 17.896-14.549 32.453-32.445 32.453-11.475 0-22.17-6.0845-27.901-15.882-0.71838-1.2335-44.398-76.594-90.631-156.38-44.178-76.22-89.847-155.04-90.594-156.31-2.305-3.9455-6.8362-6.4956-11.529-6.4956-7.4343 0-13.477 6.0471-13.477 13.481v289.13c0 17.896-14.557 32.453-32.449 32.453-11.475 0-22.162-6.0845-27.901-15.882-0.71844-1.2335-44.427-76.59-90.698-156.38-44.215-76.237-89.934-155.07-90.657-156.31-2.3133-3.9455-6.8362-6.4956-11.529-6.4956-7.4343 0-13.477 6.0471-13.477 13.481v283.23c0 18.648-16.384 35.008-35.061 35.008h-144.37c-95.682 0-173.53-77.84-173.53-173.53 0-95.682 77.848-173.53 173.53-173.53h74.114v-56.908h-74.048c-127.27 0-230.44 103.17-230.44 230.43 0 127.27 103.17 230.44 230.44 230.44h145.75c55.213 0.029 90.719-32.32 90.644-91.99v-131.44s103.84 178.73 106.45 183.17c15.051 25.725 43.592 41.981 73.969 41.981 47.588 0 86.167-38.604 86.167-86.179v-138.97s103.1 177.47 106.44 183.17c15.055 25.725 43.596 41.981 73.973 41.981 47.584 0 86.167-38.604 86.167-86.179v-376.42z" fill="#c00"/>
	<path d="m56.847 232.46c0 95.686 77.844 173.53 173.53 173.53h144.37c18.677 0 35.066-16.36 35.066-35.012v-283.23c0-7.4343 6.0429-13.481 13.477-13.481 4.6932 0 9.216 2.546 11.529 6.4914 0.71854 1.2419 46.441 80.078 90.657 156.31 46.271 79.788 89.975 155.14 90.698 156.38 5.7356 9.7975 16.422 15.878 27.897 15.878 17.896 0 32.453-14.557 32.453-32.453v-289.13c0-7.4343 6.043-13.481 13.477-13.481 4.693 0 9.2202 2.546 11.529 6.4914 0.74341 1.2709 46.416 80.091 90.594 156.31 46.234 79.788 89.909 155.15 90.632 156.39 5.7315 9.7975 16.422 15.878 27.897 15.878 17.896 0 32.449-14.557 32.449-32.453v-374.85h-18.972v374.85c0 7.4385-6.043 13.486-13.477 13.486-4.693 0-9.216-2.546-11.529-6.4916-0.7392-1.2709-46.416-80.087-90.586-156.31-46.242-79.792-89.913-155.15-90.64-156.38-5.7315-9.8015-16.422-15.886-27.897-15.886-17.896 0-32.449 14.561-32.449 32.453v289.13c0 7.4385-6.0471 13.486-13.481 13.486-4.6931 0-9.2159-2.546-11.529-6.4916-0.71857-1.2376-46.441-80.074-90.657-156.31-46.271-79.788-89.975-155.14-90.698-156.38-5.7314-9.8015-16.422-15.886-27.897-15.886-17.892 0-32.445 14.561-32.445 32.453v283.23c0 7.4218-7.0314 16.04-16.098 16.04h-144.37c-85.224 0-154.56-69.334-154.56-154.56 0-85.224 69.334-154.56 154.56-154.56h74.114v-18.972h-74.114c-95.682 0-173.53 77.844-173.53 173.53" fill="#fff"/>
</g>
</svg>
