<svg width="211.67mm" height="148.96mm" version="1.1" viewBox="0 0 211.67 148.96" xmlns="http://www.w3.org/2000/svg">
 <g transform="translate(27.252 -55.563)">
  <path d="m179.66 57.602h4.7408c-5.5489 19.58-21.822 31.703-43.054 31.703-24.09 0-43.35-16.183-60.386-16.183-10.287 0-17.155 3.7931-21.987 14.144h-4.8762c4.0327-12.297 14.011-21.342 31.074-21.342 21.913 0 38.201 15.723 60.552 15.723 9.4248 0 17.432-2.25 24.811-9.0781 4.5229-4.4274 7.3797-9.5251 9.1262-14.966z" fill="#ed1c2e"/>
  <path d="m51.391 87.266h-4.7408c5.5488-19.58 21.822-31.703 43.054-31.703 23.537 0 43.35 16.183 60.385 16.183 10.287 0 17.155-3.7931 21.987-14.144h4.8762c-4.0327 12.297-14.011 21.515-31.074 21.515-21.636 0-38.662-15.814-60.552-15.814-8.708 0-17.432 2.1685-24.811 8.9966-4.5229 4.4274-7.3796 9.5251-9.1262 14.966z" fill="#ed1c2e"/>
  <path d="m59.891 103.9c-8.767 0.6261-16.201 7.996-16.201 18.398v49.483c4e-3 1.7868-1.3318 3.3295-3.2654 3.3295h-15.448c-33.454 0.0398-30.485-42.714-2.0095-42.764h17.08l8e-5 -12.433h-17.708c-11.34 0-19.755 4.2314-25.432 10.549-5.6777 6.3167-8.5236 14.817-8.5402 23.297-0.01764 8.4802 2.7932 16.931 8.603 23.235 5.8098 6.3047 14.587 10.551 26.625 10.551h29.137c1.9226 0 3.5166-1.6594 3.5166-3.5815v-60.345c-0.01061-3.1092 1.7377-5.5115 4.0189-6.2185 2.2812-0.70171 4.958 0.19234 6.5308 2.45l0.06287 0.0663c8.287 13.558 41.201 66.346 41.257 66.438 0.9011 1.2893 1.9789 1.5175 2.763 1.2562 0.7841-0.26132 1.576-1.1103 1.5699-3.2034v-60.786c-0.0106-3.1066 1.7402-5.5115 4.0189-6.2172 2.2787-0.70303 4.8958 0.19101 6.468 2.4487v0.0663h0.12549c8.287 13.558 41.201 66.346 41.257 66.438 0.89356 1.2761 1.9342 1.5254 2.763 1.2562 0.82882-0.26928 1.6387-1.0612 1.6327-3.1411v-80.252h-12.496v46.844s-7.4501-12.728-20.22-34.663c-12.505-21.481-36.106-12.588-36.107 5.9028v28.761s-7.3238-12.728-20.095-34.663c-5.4711-9.3954-13.088-12.982-19.906-12.495zm-35.354 0.31437c-69.542 0-68.871 99.102 0.94194 99.153h27.316c11.739 0 19.233-6.952 19.215-19.779v-25.118s15.34 25.354 21.351 35.291c10.211 16.882 34.914 13.563 34.852-7.5357v-27.755s15.277 25.352 21.288 35.291c10.211 16.882 34.976 13.561 34.914-7.5357v-82.011l-12.496-1e-4v80.253c0.0106 3.0774-1.6042 5.3643-3.8305 6.0912-2.2263 0.72293-4.7889-0.17907-6.3424-2.3863h-0.0629v-0.11938s-32.928-52.649-41.32-66.375c-0.0202-0.0265-0.0426 0.0265-0.0629 0-8e-3 0 8e-3 -0.0663 0-0.0663-0.86541-1.1527-1.9799-1.4114-2.8886-1.1302-0.93854 0.29183-1.8271 1.0983-1.8211 3.1398v60.786c0.0106 3.0642-1.562 5.481-3.7677 6.2158-2.2057 0.7362-4.7336-0.24008-6.2796-2.4473v-0.0663h-0.0629s-32.949-52.749-41.32-66.438c-0.87351-1.2482-2.0076-1.5467-2.9514-1.2548-0.9438 0.29049-1.8271 1.0957-1.8211 3.1384v60.412c0 3.6584-3.0077 6.7199-6.6563 6.7199h-29.137c-12.786 0-22.479-4.6042-28.886-11.554-6.4075-6.9507-9.5629-16.171-9.545-25.37 0.01764-9.1978 3.1666-18.475 9.4194-25.432 6.2527-6.956 15.625-11.534 27.756-11.555h17.708v-12.558h-15.511z" fill="#ed1c2e"/>
  <path d="m168.7 104.2v80.252c6e-3 2.0799-0.79611 2.8811-1.6249 3.1504-0.82884 0.26928-1.8589 0.0159-2.7524-1.2602-0.0562-0.0915-32.966-52.865-41.253-66.423h-0.13265v-0.0663c-1.5722-2.2576-4.1879-3.157-6.4666-2.454-2.2787 0.70568-4.0232 3.0947-4.0126 6.2013v60.786c6e-3 2.0932-0.80766 2.9554-1.5918 3.2167-0.78411 0.26132-1.8513 0.0291-2.7524-1.2601-0.0561-0.0915-32.966-52.865-41.253-66.423l-0.06632-0.0663c-1.5728-2.2577-4.2517-3.1557-6.5329-2.454-2.2812 0.70702-4.0232 3.092-4.0126 6.2013v60.355c0 1.9221-1.5926 3.5815-3.5152 3.5815h-29.149c-12.039 0-20.819-4.2407-26.629-10.545-5.8098-6.3034-8.6066-14.766-8.5889-23.246 0.01657-8.4802 2.8449-16.963 8.5226-23.28 5.6777-6.318 14.095-10.546 25.435-10.546h17.708v-3.1504h-17.708c-12.131 0.0212-21.504 4.5843-27.756 11.54-6.2527 6.9574-9.4003 16.237-9.418 25.435-0.01798 9.1991 3.1432 18.418 9.5506 25.369 6.4074 6.9494 16.098 11.573 28.884 11.573h29.149c3.6487 0 6.6655-3.0734 6.6655-6.7319v-60.355-0.0663c-0.0059-2.0428 0.8801-2.8267 1.8239-3.1172 0.9438-0.29183 2.0779 0.0119 2.9514 1.2602 8.3701 13.689 41.32 66.423 41.32 66.423h0.0331v0.0663c1.5459 2.2072 4.095 3.1902 6.3008 2.454 2.2057-0.73486 3.7579-3.1703 3.7473-6.2344v-60.786c-6e-3 -2.0414 0.88538-2.8254 1.8239-3.1172 0.90875-0.28121 2.0197-0.0252 2.8851 1.1275 7e-3 0-7e-3 0.0663 0 0.0663 0.0203 0.0265 0.0461-0.0265 0.0663 0 8.3916 13.726 41.32 66.357 41.32 66.357v0.13265h0.0663c1.5535 2.2072 4.1076 3.1106 6.3339 2.3876 2.2263-0.72691 3.8574-3.0244 3.8468-6.1018v-80.252h-3.2167z" color="#000000" fill="#fff" style="text-decoration-line:none;text-indent:0;text-transform:none"/>
 </g>
</svg>
