<?xml version="1.0" encoding="UTF-8" standalone="no"?>
<svg xmlns="http://www.w3.org/2000/svg" height="176.57" width="600" version="1.1" viewBox="0 0 158.75 46.71783">
 <defs>
  <clipPath id="a" clipPathUnits="userSpaceOnUse">
   <path d="m194.4 462.9h49.14v14.46h-49.14z"/>
  </clipPath>
 </defs>
 <g transform="translate(-18.899 -134.55)">
  <path d="m73.361 181.26h104.29v-37.02h-104.29z"/>
  <path d="m18.899 170.02h100.98v-35.47h-100.98z" fill="#b23431"/>
  <g transform="matrix(3.2308 0 0 -3.2308 -609.2 1676.8)">
   <g clip-path="url(#a)">
    <g transform="translate(199.28 466.78)">
     <path d="m0 0c-0.157-0.066-0.348-0.123-0.574-0.17s-0.465-0.07-0.715-0.07c-0.366 0-0.707 0.052-1.023 0.156-0.317 0.105-0.594 0.263-0.83 0.475-0.237 0.213-0.423 0.481-0.559 0.807-0.135 0.325-0.203 0.705-0.203 1.14 0 0.488 0.078 0.905 0.235 1.253 0.156 0.348 0.359 0.631 0.608 0.848 0.248 0.218 0.529 0.378 0.84 0.481 0.311 0.102 0.619 0.154 0.921 0.154 0.226 0 0.444-0.021 0.653-0.06 0.209-0.041 0.398-0.095 0.569-0.165v-1.007c-0.153 0.066-0.316 0.119-0.488 0.159-0.173 0.04-0.358 0.06-0.556 0.06-0.199 0-0.388-0.031-0.569-0.091-0.181-0.061-0.341-0.158-0.48-0.29-0.14-0.132-0.25-0.307-0.332-0.525-0.082-0.217-0.123-0.479-0.123-0.785 0-0.223 0.032-0.433 0.094-0.629 0.063-0.197 0.154-0.365 0.274-0.504 0.121-0.139 0.274-0.251 0.46-0.337 0.186-0.085 0.406-0.128 0.66-0.128 0.226 0 0.432 0.023 0.616 0.068 0.184 0.046 0.358 0.101 0.522 0.167z" fill="#fff"/>
    </g>
    <g transform="translate(204.26 469.2)">
     <path d="m0 0c0 0.268-0.031 0.505-0.094 0.71s-0.15 0.377-0.261 0.517c-0.111 0.139-0.245 0.243-0.402 0.313-0.156 0.069-0.327 0.104-0.511 0.104-0.181 0-0.349-0.035-0.504-0.104-0.155-0.07-0.288-0.174-0.399-0.313-0.112-0.14-0.199-0.312-0.261-0.517-0.063-0.205-0.094-0.442-0.094-0.71s0.031-0.505 0.094-0.71c0.062-0.205 0.15-0.377 0.263-0.514s0.247-0.242 0.402-0.313c0.155-0.072 0.325-0.107 0.509-0.107s0.353 0.035 0.506 0.107c0.153 0.071 0.286 0.176 0.397 0.313s0.198 0.309 0.261 0.514 0.094 0.442 0.094 0.71m1.279 0c0-0.397-0.059-0.759-0.178-1.086-0.118-0.327-0.288-0.607-0.509-0.84s-0.488-0.413-0.801-0.54-0.663-0.191-1.049-0.191c-0.397 0-0.752 0.064-1.067 0.191s-0.582 0.307-0.802 0.54c-0.219 0.233-0.387 0.513-0.503 0.84-0.117 0.327-0.175 0.689-0.175 1.086s0.059 0.759 0.177 1.086c0.119 0.327 0.288 0.607 0.509 0.84s0.488 0.413 0.801 0.54c0.314 0.127 0.663 0.191 1.05 0.191 0.396 0 0.752-0.064 1.067-0.191s0.582-0.307 0.801-0.54 0.387-0.513 0.504-0.84 0.175-0.689 0.175-1.086" fill="#fff"/>
    </g>
    <path d="m207.07 474.23h1.237v-7.558h-1.237z" fill="#fff"/>
    <path d="m210.14 474.23h1.237v-7.558h-1.237z" fill="#fff"/>
    <g transform="translate(215.27 470.89)">
     <path d="m0 0c-0.157 0-0.296-0.029-0.418-0.086-0.121-0.057-0.227-0.136-0.315-0.235-0.089-0.099-0.16-0.215-0.212-0.347s-0.087-0.273-0.104-0.423h1.989c0 0.15-0.021 0.291-0.06 0.423-0.041 0.132-0.1 0.248-0.178 0.347s-0.176 0.178-0.292 0.235c-0.117 0.057-0.253 0.086-0.41 0.086m0.496-3.351c0.24 0 0.491 0.024 0.752 0.073s0.525 0.118 0.793 0.209v-0.987c-0.16-0.069-0.405-0.135-0.736-0.198s-0.673-0.094-1.028-0.094c-0.359 0-0.699 0.046-1.021 0.138-0.322 0.093-0.603 0.241-0.843 0.447-0.24 0.205-0.43 0.471-0.571 0.798s-0.212 0.724-0.212 1.19c0 0.46 0.066 0.862 0.199 1.206 0.132 0.345 0.309 0.63 0.532 0.856s0.478 0.396 0.765 0.509 0.583 0.17 0.89 0.17c0.32 0 0.615-0.049 0.884-0.146 0.27-0.098 0.503-0.251 0.7-0.46 0.196-0.209 0.35-0.477 0.459-0.806 0.11-0.329 0.165-0.718 0.165-1.167-0.004-0.174-0.009-0.322-0.016-0.444h-3.315c0.018-0.233 0.07-0.432 0.157-0.597 0.087-0.166 0.201-0.3 0.342-0.402 0.141-0.103 0.305-0.178 0.493-0.225s0.392-0.07 0.611-0.07" fill="#fff"/>
    </g>
    <g transform="translate(222.66 466.78)">
     <path d="m0 0c-0.157-0.066-0.348-0.123-0.574-0.17s-0.465-0.07-0.715-0.07c-0.366 0-0.707 0.052-1.023 0.156-0.317 0.105-0.594 0.263-0.83 0.475-0.237 0.213-0.423 0.481-0.559 0.807-0.135 0.325-0.203 0.705-0.203 1.14 0 0.488 0.078 0.905 0.235 1.253 0.156 0.348 0.359 0.631 0.608 0.848 0.248 0.218 0.529 0.378 0.84 0.481 0.311 0.102 0.619 0.154 0.921 0.154 0.226 0 0.444-0.021 0.653-0.06 0.209-0.041 0.398-0.095 0.569-0.165v-1.007c-0.153 0.066-0.316 0.119-0.488 0.159-0.173 0.04-0.358 0.06-0.556 0.06-0.199 0-0.388-0.031-0.569-0.091-0.181-0.061-0.341-0.158-0.48-0.29-0.14-0.132-0.25-0.307-0.332-0.525-0.082-0.217-0.122-0.479-0.122-0.785 0-0.223 0.031-0.433 0.093-0.629 0.063-0.197 0.154-0.365 0.274-0.504 0.121-0.139 0.274-0.251 0.46-0.337 0.186-0.085 0.406-0.128 0.66-0.128 0.226 0 0.432 0.023 0.616 0.068 0.184 0.046 0.358 0.101 0.522 0.167z" fill="#fff"/>
    </g>
    <g transform="translate(227.19 466.68)">
     <path d="m0 0c-0.139-0.042-0.305-0.075-0.498-0.099-0.194-0.024-0.374-0.037-0.541-0.037-0.424 0-0.771 0.069-1.041 0.206-0.27 0.138-0.46 0.335-0.572 0.593-0.08 0.184-0.12 0.435-0.12 0.752v2.62h-0.944v1.018h0.944v1.414h1.237v-1.414h1.462v-1.018h-1.462v-2.459c0-0.195 0.03-0.339 0.089-0.433 0.105-0.16 0.312-0.24 0.621-0.24 0.143 0 0.285 0.011 0.426 0.034s0.274 0.051 0.399 0.086z" fill="#fff"/>
    </g>
    <path d="m228.56 471.73h1.237v-5.058h-1.237zm-0.032 2.501h1.3v-1.341h-1.3z" fill="#fff"/>
    <g transform="translate(235.11 469.2)">
     <path d="m0 0c0 0.268-0.031 0.505-0.094 0.71s-0.15 0.377-0.261 0.517c-0.111 0.139-0.245 0.243-0.402 0.313-0.156 0.069-0.327 0.104-0.511 0.104-0.181 0-0.349-0.035-0.504-0.104-0.155-0.07-0.288-0.174-0.399-0.313-0.112-0.14-0.199-0.312-0.261-0.517-0.063-0.205-0.094-0.442-0.094-0.71s0.031-0.505 0.094-0.71c0.062-0.205 0.15-0.377 0.263-0.514s0.247-0.242 0.402-0.313c0.155-0.072 0.325-0.107 0.509-0.107s0.353 0.035 0.506 0.107c0.153 0.071 0.286 0.176 0.397 0.313s0.198 0.309 0.261 0.514 0.094 0.442 0.094 0.71m1.279 0c0-0.397-0.059-0.759-0.178-1.086-0.118-0.327-0.288-0.607-0.509-0.84s-0.488-0.413-0.801-0.54-0.663-0.191-1.049-0.191c-0.397 0-0.753 0.064-1.067 0.191-0.315 0.127-0.582 0.307-0.802 0.54-0.219 0.233-0.387 0.513-0.503 0.84-0.117 0.327-0.175 0.689-0.175 1.086s0.059 0.759 0.177 1.086c0.119 0.327 0.288 0.607 0.509 0.84s0.488 0.413 0.801 0.54c0.314 0.127 0.663 0.191 1.05 0.191 0.396 0 0.752-0.064 1.067-0.191s0.582-0.307 0.801-0.54 0.387-0.513 0.504-0.84 0.175-0.689 0.175-1.086" fill="#fff"/>
    </g>
    <g transform="translate(238.99 471.02)">
     <path d="m0 0h0.021c0.073 0.104 0.165 0.207 0.277 0.308 0.111 0.101 0.238 0.19 0.381 0.266 0.142 0.077 0.3 0.138 0.472 0.185s0.356 0.071 0.551 0.071c0.184 0 0.362-0.021 0.535-0.063 0.172-0.041 0.329-0.107 0.472-0.195 0.143-0.089 0.269-0.204 0.378-0.345 0.11-0.141 0.196-0.309 0.259-0.504 0.035-0.108 0.058-0.225 0.07-0.352 0.013-0.127 0.019-0.274 0.019-0.441v-3.283h-1.237v3.09c0 0.136-0.006 0.252-0.016 0.35-0.011 0.097-0.03 0.182-0.058 0.255-0.062 0.16-0.157 0.275-0.284 0.345-0.127 0.069-0.281 0.104-0.462 0.104-0.24 0-0.471-0.056-0.692-0.169-0.221-0.114-0.416-0.278-0.587-0.494v-3.481h-1.237v5.058h1.023z" fill="#fff"/>
    </g>
   </g>
  </g>
 </g>
</svg>
