<svg width="270.58mm" height="367.44mm" version="1.1" viewBox="0 0 270.58 367.44" xmlns="http://www.w3.org/2000/svg">
 <g transform="translate(13.582 -117.06)">
  <path d="m107.56 120.27c-52.024 0-97.31 28.855-120.73 71.43l26.187 14.036c18.447-32.993 53.729-55.304 94.215-55.304 59.57 0 107.86 48.291 107.86 107.86 0 59.571-48.292 107.86-107.86 107.86-41.004 0-76.666-22.885-94.912-56.574l-25.9 13.893c23.298 42.989 68.808 72.188 121.14 72.188 76.048 0 137.7-61.649 137.7-137.7 0-76.048-61.649-137.7-137.7-137.7zm-0.3276 71.471c-36.756 0-66.553 29.797-66.553 66.553 0 36.756 29.797 66.553 66.553 66.553 25.421 0 47.517-14.253 58.726-35.203l-27.109-14.528c-6.0739 11.63-18.244 19.568-32.273 19.568-20.098 0-36.391-16.293-36.391-36.391 0-20.098 16.293-36.391 36.391-36.391 13.518 0 25.3 7.3768 31.576 18.318l27.109-14.548c-11.411-20.255-33.125-33.932-58.029-33.932z" fill="#f8ba0f"/>
  <g transform="matrix(1.6516 0 0 1.6516 -49.689 144.41)" fill="#f8ba0f">
   <path d="m33.91 205.91v-28.633h21.23v4.8438h-15.449v6.3477h14.375v4.8242h-14.375v7.793h15.996v4.8242z"/>
   <path d="m57.719 205.91 9.7852-14.941-8.8672-13.691h6.7578l5.7422 9.1992 5.625-9.1992h6.6992l-8.9062 13.906 9.7852 14.727h-6.9727l-6.3477-9.9023-6.3672 9.9023z"/>
   <path d="m93.793 205.91v-23.789h-8.4961v-4.8438h22.754v4.8438h-8.4766v23.789z"/>
   <path d="m111.82 205.91v-28.633h12.168c3.0599 3e-5 5.2832 0.25719 6.6699 0.77148 1.3867 0.51435 2.4967 1.4291 3.3301 2.7441 0.83331 1.3151 1.25 2.819 1.25 4.5117-3e-5 2.1485-0.63153 3.9226-1.8945 5.3223-1.263 1.3998-3.1511 2.2819-5.6641 2.6465 1.25 0.72918 2.2819 1.53 3.0957 2.4024 0.81378 0.8724 1.9108 2.4219 3.291 4.6484l3.4961 5.5859h-6.9141l-4.1797-6.2305c-1.4844-2.2266-2.5-3.6295-3.0469-4.209-0.54689-0.57942-1.1263-0.97655-1.7383-1.1914-0.61199-0.21483-1.582-0.32225-2.9102-0.32226h-1.1719v11.953zm5.7812-16.523h4.2774c2.7734 2e-5 4.5052-0.11717 5.1953-0.35156 0.69008-0.23436 1.2304-0.638 1.6211-1.2109 0.39061-0.57289 0.58592-1.289 0.58594-2.1484-2e-5 -0.96352-0.25718-1.7415-0.77148-2.334-0.51435-0.59242-1.2403-0.96677-2.1777-1.123-0.46877-0.0651-1.875-0.0976-4.2188-0.0977h-4.5117z"/>
   <path d="m166.53 205.91h-6.2891l-2.5-6.5039h-11.445l-2.3633 6.5039h-6.1328l11.152-28.633h6.1133zm-10.645-11.328-3.9453-10.625-3.8672 10.625z"/>
  </g>
  <g transform="matrix(1.4033 0 0 1.4292 -135.35 137.26)" fill="#f9ba0f" fill-opacity=".94118">
   <path d="m249.66 10.495v-7.4414h-7.5v-5.1367h7.5v-7.4414h5v7.4414h7.5195v5.1367h-7.5195v7.4414z"/>
   <path d="m279.6 14.616h-5.4883v-20.684c-2.0052 1.875-4.3685 3.2617-7.0898 4.1602v-4.9805c1.4323-0.46873 2.9883-1.3574 4.668-2.666s2.832-2.8353 3.457-4.5801h4.4531z"/>
  </g>
 </g>
</svg>
