<svg xmlns="http://www.w3.org/2000/svg" width="232.014" height="206.525">
    <path d="M73.345 0C41.847 0 14.428 17.47.248 43.248l15.855 8.498c11.17-19.976 32.531-33.484 57.044-33.484 36.067 0 65.306 29.238 65.306 65.306 0 36.067-29.239 65.306-65.306 65.306-24.826 0-46.419-13.856-57.466-34.254L0 123.032c14.106 26.028 41.66 43.707 73.345 43.707 46.044 0 83.37-37.326 83.37-83.37C156.714 37.326 119.388 0 73.344 0zm-.198 43.273c-22.255 0-40.295 18.04-40.295 40.295 0 22.254 18.04 40.295 40.295 40.295 15.391 0 28.77-8.63 35.556-21.314L92.29 93.753c-3.678 7.042-11.046 11.848-19.54 11.848-12.169 0-22.033-9.865-22.033-22.033 0-12.169 9.864-22.034 22.033-22.034 8.184 0 15.318 4.467 19.118 11.092l16.413-8.809c-6.909-12.263-20.056-20.544-35.134-20.544z" fill="#fff"/>
    <g style="line-height:125%" font-size="40" font-weight="700" letter-spacing="0" word-spacing="0" fill="#fff" font-family="Sans">
        <path d="M180.723 100.935V88.187h-12.848v-8.8h12.848V66.64h8.565v12.748h12.882v8.8h-12.882v12.747zM232.014 107.994h-9.402V72.562c-3.435 3.212-7.483 5.588-12.145 7.127v-8.532c2.454-.803 5.12-2.325 7.997-4.567 2.877-2.241 4.85-4.857 5.922-7.846h7.628z" style="-inkscape-font-specification:Sans Bold"/>
    </g>
    <g style="line-height:125%;-inkscape-font-specification:Sans Bold" font-size="40" font-weight="700" letter-spacing="0" word-spacing="0" fill="#fff" font-family="Sans">
        <path d="M12.049 206.525v-28.633h21.23v4.844H17.83v6.348h14.376v4.824H17.83v7.793h15.996v4.824zM35.857 206.525l9.785-14.941-8.867-13.692h6.758l5.742 9.2 5.625-9.2h6.7l-8.907 13.906 9.785 14.727h-6.972l-6.348-9.902-6.367 9.902zM71.931 206.525v-23.789h-8.496v-4.844H86.19v4.844h-8.476v23.789zM89.959 206.525v-28.633h12.168c3.06 0 5.283.257 6.67.772 1.386.514 2.496 1.429 3.33 2.744.833 1.315 1.25 2.819 1.25 4.512 0 2.148-.632 3.922-1.895 5.322s-3.15 2.282-5.664 2.646c1.25.73 2.282 1.53 3.096 2.403.814.872 1.91 2.422 3.29 4.648l3.497 5.586h-6.914l-4.18-6.23c-1.484-2.227-2.5-3.63-3.047-4.21-.547-.579-1.126-.976-1.738-1.19-.612-.216-1.582-.323-2.91-.323H95.74v11.953zm5.781-16.523h4.277c2.774 0 4.506-.118 5.196-.352.69-.234 1.23-.638 1.62-1.21.391-.574.587-1.29.587-2.15 0-.963-.257-1.74-.772-2.333-.514-.593-1.24-.967-2.177-1.123-.47-.065-1.875-.098-4.22-.098h-4.51zM144.666 206.525h-6.29l-2.5-6.504h-11.445l-2.363 6.504h-6.133l11.153-28.633h6.113zm-10.645-11.328l-3.945-10.625-3.867 10.625z"/>
    </g>
</svg>
