<svg version="1.1" viewBox="0 0 139.25 51.662" xml:space="preserve" xmlns="http://www.w3.org/2000/svg">
 <defs>
  <style>.a,.c{fill:#9357a2;}.a,.b{stroke:#010101;stroke-width:2.3803px;}.b,.e{fill:#fff;}.d{fill:#010101;}.f{fill:#90645f;}</style>
 </defs>
 <path class="a" d="m18.292 39.589-3.8e-4 7.7e-4c-3.8482 0.0027-6.7672-2.6703-8.6797-7.9386 0-0.06451 8.7e-4 -0.98054 0-2.265 3.7228 0.738 6.5809-1.3256 7.3605-3.1456a1.3651 1.3651 0 0 1 2.6313-0.0033c0.78859 1.8226 3.646 3.8802 7.3631 3.139 0 1.1144 3.8e-4 1.971 3.8e-4 2.2687a14.026 14.026 0 0 1-4.0551 6.329 7.2094 7.2094 0 0 1-4.6201 1.615z"/>
 <path class="b" d="m8.381 31.769v-2.7228a9.9607 9.9607 0 0 1-1.1527-0.48951c-0.98094-0.4955-2.3742-6.7585-0.99828-6.7285a19.38 19.38 0 0 1 2.1506 0.35062v-0.8622c-1.561 7.7e-4 -2.5395 7.7e-4 -2.5395 7.7e-4a4.1968 4.1968 0 0 1-3.4644-1.4875 3.3234 3.3234 0 0 1-0.5512-2.8846l0.015-0.05229 0.02257-0.04747a1.6331 1.6331 0 0 1 0.45347-0.5852c0.93272-0.74432 2.5586-0.177 3.6959 0.22 0.23263 0.08117 0.5076 0.17531 0.732 0.24019 0-3.1102 0.08145-7.2184 2.8055-9.8169 0.15276-0.14605 0.31227-0.28611 0.47838-0.41832 1.8385-1.466 4.5007-2.126 7.9244-1.9682l3.8e-4 -0.00117c3.7785-0.074 6.6283 0.80448 8.469 2.6112 2.6354 2.5842 2.7617 6.5386 2.7671 9.5922 0.22607-0.06528 0.50423-0.15992 0.7388-0.24263 1.3542-0.47207 3.4004-1.1859 4.1427 0.36369l0.024 0.04989 0.01394 0.05258a3.352 3.352 0 0 1-0.54374 2.9076 4.0888 4.0888 0 0 1-3.4782 1.4602s-0.71092 0-1.8891 3.8e-4v0.86782a19.871 19.871 0 0 1 2.1585-0.35546c1.3695-0.02769-0.02557 6.2403-1.0106 6.7277a9.913 9.913 0 0 1-1.1487 0.482l7.7e-4 2.7332a0.61807 0.61807 0 0 1-0.036 0.20766c-0.0866 0.241-0.18 0.46935-0.27062 0.70122a17.522 17.522 0 0 0 7.0301-14.11 17.126 17.126 0 0 0-16.863-17.375 17.13 17.13 0 0 0-16.866 17.374 17.491 17.491 0 0 0 7.6762 14.57c-0.15553-0.37385-0.30789-0.75759-0.45037-1.1578a0.6147 0.6147 0 0 1-0.03679-0.20764z"/>
 <path class="c" d="m19.713 23.262a64.199 64.199 0 0 0 7.2531-0.86026c0-0.4159 3.8e-4 -0.78667 0-1.0914-4.4418 0.0015-12.58 0.0035-17.355 0.0052 4e-4 0.30373-3.8e-4 0.67255-3.8e-4 1.0861a65.163 65.163 0 0 0 7.2536 0.86413 10.617 10.617 0 0 0 1.4229-0.32949 11.182 11.182 0 0 0 1.4261 0.32562z"/>
 <path class="d" d="m33.914 18.522a16.082 16.082 0 0 1-16.082 16.082 16.082 16.082 0 0 1-16.082-16.082 16.082 16.082 0 0 1 16.082-16.082 16.082 16.082 0 0 1 16.082 16.082z" fill="#010101"/>
 <path class="e" d="m18.292 39.589-3.8e-4 7.7e-4c-3.8482 0.0027-6.7672-2.6703-8.6797-7.9386 0-0.06451 8.7e-4 -0.98054 0-2.265 3.7228 0.738 6.5809-1.3256 7.3605-3.1456a1.3651 1.3651 0 0 1 2.6313-0.0033c0.78859 1.8226 3.646 3.8802 7.3631 3.139 0 1.1144 3.8e-4 1.971 3.8e-4 2.2687a14.026 14.026 0 0 1-4.0551 6.329 7.2094 7.2094 0 0 1-4.6201 1.615z"/>
 <path class="f" d="m8.381 31.769v-2.7228a9.9607 9.9607 0 0 1-1.1527-0.48951c-0.98094-0.4955-2.3742-6.7585-0.99828-6.7285a19.38 19.38 0 0 1 2.1506 0.35062v-0.8622c-1.561 7.7e-4 -2.5395 7.7e-4 -2.5395 7.7e-4a4.1968 4.1968 0 0 1-3.4644-1.4875 3.3234 3.3234 0 0 1-0.5512-2.8846l0.015-0.05229 0.02257-0.04747a1.6331 1.6331 0 0 1 0.45347-0.5852c0.93272-0.74432 2.5586-0.177 3.6959 0.22 0.23263 0.08117 0.5076 0.17531 0.732 0.24019 0-3.1102 0.08145-7.2184 2.8055-9.8169 0.15276-0.14605 0.31227-0.28611 0.47838-0.41832 1.8385-1.466 4.5007-2.126 7.9244-1.9682l3.8e-4 -0.00117c3.7785-0.074 6.6283 0.80448 8.469 2.6112 2.6354 2.5842 2.7617 6.5386 2.7671 9.5922 0.22607-0.06528 0.50423-0.15992 0.7388-0.24263 1.3542-0.47207 3.4004-1.1859 4.1427 0.36369l0.024 0.04989 0.01394 0.05258a3.352 3.352 0 0 1-0.54374 2.9076 4.0888 4.0888 0 0 1-3.4782 1.4602s-0.71092 0-1.8891 3.8e-4v0.86782a19.871 19.871 0 0 1 2.1585-0.35546c1.3695-0.02769-0.02557 6.2403-1.0106 6.7277a9.913 9.913 0 0 1-1.1487 0.482l7.7e-4 2.7332a0.61807 0.61807 0 0 1-0.036 0.20766c-0.0866 0.241-0.18 0.46935-0.27062 0.70122a17.522 17.522 0 0 0 7.0301-14.11 17.126 17.126 0 0 0-16.863-17.375 17.13 17.13 0 0 0-16.866 17.374 17.491 17.491 0 0 0 7.6762 14.57c-0.15553-0.37385-0.30789-0.75759-0.45037-1.1578a0.6147 0.6147 0 0 1-0.03679-0.20764z"/>
 <path class="e" d="m19.713 23.262a64.199 64.199 0 0 0 7.2531-0.86026c0-0.4159 3.8e-4 -0.78667 0-1.0914-4.4418 0.0015-12.58 0.0035-17.355 0.0052 4e-4 0.30373-3.8e-4 0.67255-3.8e-4 1.0861a65.163 65.163 0 0 0 7.2536 0.86413 10.617 10.617 0 0 0 1.4229-0.32949 11.182 11.182 0 0 0 1.4261 0.32562z"/>
 <g transform="matrix(1.0422 0 0 .95948 -7.1763 -4.2475)" fill="#90645f" stroke-width=".24496">
  <path d="m58.004 16.042v2.9559h4.1618v6.8806c0 1.117-0.54872 1.6854-1.4698 1.6854-0.80349 0-1.9009-0.50953-2.8808-1.5286l-1.607 2.3321c1.215 1.3914 2.7828 2.1949 4.7229 2.1949 2.92 0 4.7425-1.6854 4.7425-4.6053v-9.9146zm14.901 3.6438c-1.7637 0-3.2531 0.43114-4.8993 1.1954l0.96026 2.2341c1.117-0.56832 2.2733-0.88187 3.1552-0.88187 1.3718 0 2.0577 0.62711 2.0577 1.6658v0.15678h-2.7828c-2.626 0.0196-4.0566 1.1954-4.0566 3.1943 0 1.9401 1.3718 3.3119 3.6255 3.3119 1.4306 0 2.5476-0.47033 3.2335-1.3718v1.215h3.3119v-6.8982c-0.0196-2.3909-1.705-3.8215-4.6053-3.8215zm-0.90147 8.5836c-0.94066 0-1.4894-0.48993-1.4894-1.2542 0-0.78389 0.50953-1.1366 1.5286-1.1366h2.1361v0.94067c-0.21557 0.86228-1.117 1.4502-2.1753 1.4502zm16.56-6.3887v-2.0381h-9.2303v2.5476h4.9973l-5.1933 5.9771v2.0381h9.6026v-2.5476h-5.35zm10.837 0v-2.0381h-9.2303v2.5476h4.9973l-5.1933 5.9771v2.0381h9.6026v-2.5476h-5.35zm8.9167-2.1949c-1.5678 0.0196-2.7828 0.64671-3.5275 1.8813v-1.7246h-3.3903v10.563h3.3903v-5.5852c0.13718-1.2542 0.92107-2.1361 2.1557-2.1361 1.1366 0 1.8617 0.76429 1.8617 1.9989v5.7224h3.3707v-6.663c0-2.4692-1.5286-4.0566-3.8606-4.0566zm11.17 0.03919c-3.4687 0-5.7812 2.1361-5.7812 5.3892 0 3.2531 2.3125 5.4088 5.7812 5.4088 3.4491 0 5.7616-2.1557 5.7616-5.4088 0-3.2531-2.3125-5.3892-5.7616-5.3892zm0 2.6848c1.3914 0 2.3517 1.117 2.3517 2.7436 0 1.6462-0.96026 2.7436-2.3517 2.7436-1.411 0-2.3713-1.0974-2.3713-2.7436 0-1.6266 0.96026-2.7436 2.3713-2.7436zm13.738 5.0757c-0.50953 0.21557-0.96027 0.35275-1.313 0.35275-0.62711 0.0196-0.97986-0.33315-0.97986-1.1562v-4.135h2.7632v-2.2341h-2.7632v-2.92h-3.3707v2.9396h-1.4698v2.2145h1.4698v4.6641c0 2.1949 1.4698 3.3511 3.5079 3.3511 1.0191 0 2.0577-0.27436 2.822-0.7251zm7.2706-2.0185v-2.1361h-5.1737v2.1361z"/>
  <path d="m59.383 38.19c-1.117 0-1.9205 0.77386-1.9205 1.8736 0 1.0793 0.80348 1.8532 1.9205 1.8532 1.1366 0 1.9205-0.77386 1.9205-1.8532 0-1.0997-0.78389-1.8736-1.9205-1.8736zm1.705 5.0097h-3.3903v11.078c0 0.83496-0.41154 1.2219-1.0387 1.2015-0.39194 0-0.80348-0.14255-1.1954-0.38693l-0.86228 2.4641c0.7251 0.46839 1.6658 0.71277 2.6456 0.71277 2.1557 0.02037 3.8411-1.3033 3.8411-3.7675zm7.5645-0.16292c-1.7637 0-3.2531 0.44802-4.8993 1.2423l0.96026 2.3216c1.117-0.59058 2.2733-0.91642 3.1552-0.91642 1.3718 0 2.0577 0.65167 2.0577 1.731v0.16292h-2.7828c-2.626 0.02037-4.0566 1.2423-4.0566 3.3195 0 2.0161 1.3718 3.4416 3.6255 3.4416 1.4306 0 2.5476-0.48876 3.2335-1.4255v1.2626h3.3119v-7.1684c-0.0196-2.4845-1.705-3.9711-4.6053-3.9711zm-0.90147 8.9198c-0.94066 0-1.4894-0.50912-1.4894-1.3033 0-0.81459 0.50953-1.1812 1.5286-1.1812h2.1361v0.97751c-0.21557 0.89605-1.117 1.507-2.1753 1.507zm16.56-6.6389v-2.1179h-9.2303v2.6474h4.9973l-5.1933 6.2113v2.1179h9.6026v-2.6474h-5.35zm10.837 0v-2.1179h-9.2303v2.6474h4.9973l-5.1933 6.2113v2.1179h9.6026v-2.6474h-5.35z" stroke-width=".24972"/>
 </g>
</svg>
