<svg width="200mm" height="135.4mm" version="1.1" viewBox="0 0 200 135.4" xmlns="http://www.w3.org/2000/svg" xmlns:xlink="http://www.w3.org/1999/xlink">
 <defs>
  <linearGradient id="linearGradient4575">
   <stop stop-color="#fad3cc" offset="0"/>
   <stop stop-color="#ec725a" offset=".22202"/>
   <stop stop-color="#d91e25" stop-opacity="0" offset=".50185"/>
   <stop stop-color="#791215" stop-opacity=".14444" offset="1"/>
  </linearGradient>
  <linearGradient id="linearGradient4533">
   <stop stop-color="#fa3852" offset="0"/>
   <stop stop-color="#d91e25" offset=".50185"/>
   <stop stop-color="#791215" offset="1"/>
  </linearGradient>
  <linearGradient id="linearGradient4527" x1="160.63" x2="212.06" y1="149.32" y2="219.21" gradientUnits="userSpaceOnUse" xlink:href="#linearGradient4533"/>
  <linearGradient id="linearGradient4527-0" x1="160.63" x2="212.06" y1="149.32" y2="219.21" gradientTransform="matrix(.88 0 0 .88 22.26 22.26)" gradientUnits="userSpaceOnUse" xlink:href="#linearGradient4575"/>
  <filter id="filter4747" x="-.0432" y="-.0432" width="1.0864" height="1.0864" color-interpolation-filters="sRGB">
   <feGaussianBlur stdDeviation="1.4296526"/>
  </filter>
  <filter id="filter4747-0" x="-.0432" y="-.0432" width="1.0864" height="1.0864" color-interpolation-filters="sRGB">
   <feGaussianBlur stdDeviation="1.4296526"/>
  </filter>
  <linearGradient id="linearGradient4863" x1="274.25" x2="274.25" y1="1.3059" y2="369.7" gradientUnits="userSpaceOnUse">
   <stop stop-color="#94959a" offset="0"/>
   <stop stop-color="#7d7f85" offset="1"/>
  </linearGradient>
  <linearGradient id="linearGradient3432" x1="274.25" x2="274.25" y1="1.3059" y2="369.7" gradientUnits="userSpaceOnUse" xlink:href="#linearGradient4863"/>
 </defs>
 <g transform="translate(2968.1 235.17)">
  <g transform="matrix(.36496 0 0 .36496 -2968.1 -235.17)" fill-rule="evenodd">
   <g transform="translate(0 -.00455)" fill="url(#linearGradient3432)">
    <path d="m493.66 316.66-4.7325 4.7325-50.241-50.241 4.7325-4.7325c21.634-21.592 33.55-50.325 33.55-80.918 0-30.55-11.916-59.325-33.55-80.918l-4.7325-4.7748 45.508-45.466 4.7325-4.7325 4.7325 4.7325c35.071 35.029 54.339 81.594 54.339 131.16 0 49.565-19.31 96.129-54.339 131.16"/>
    <path d="m316.66 316.66c-35.029 35.029-81.636 54.339-131.16 54.339-102.3 0-185.5-83.199-185.5-185.5 0-102.3 83.199-185.5 185.5-185.5 49.522 0 96.129 19.31 131.16 54.339l4.7325 4.7325-50.241 50.241-4.7325-4.7325c-21.592-21.634-50.367-33.55-80.918-33.55-63.128 0-114.47 51.339-114.47 114.47 0 63.086 51.339 114.47 114.47 114.47 30.55 0 59.325-11.916 80.918-33.55l4.7325-4.7325 50.241 50.241-4.7325 4.7325"/>
   </g>
   <g transform="translate(179.67 -.00455)">
    <path d="m230.63 185.5c0 24.93-20.24 45.128-45.128 45.128-24.93 0-45.128-20.198-45.128-45.128s20.198-45.128 45.128-45.128c24.888 0 45.128 20.198 45.128 45.128" fill="url(#linearGradient4527)"/>
    <path d="m225.21 185.5c0 21.939-17.811 39.713-39.713 39.713-21.939 0-39.713-17.774-39.713-39.713s17.774-39.713 39.713-39.713c21.901 0 39.713 17.774 39.713 39.713" fill="url(#linearGradient4527-0)" filter="url(#filter4747-0)" stroke-width=".88"/>
   </g>
   <g transform="translate(0 -.00455)">
    <path d="m230.63 185.5c0 24.93-20.24 45.128-45.128 45.128-24.93 0-45.128-20.198-45.128-45.128s20.198-45.128 45.128-45.128c24.888 0 45.128 20.198 45.128 45.128" fill="url(#linearGradient4527)"/>
    <path d="m225.21 185.5c0 21.939-17.811 39.713-39.713 39.713-21.939 0-39.713-17.774-39.713-39.713s17.774-39.713 39.713-39.713c21.901 0 39.713 17.774 39.713 39.713" fill="url(#linearGradient4527-0)" filter="url(#filter4747)" stroke-width=".88"/>
   </g>
  </g>
 </g>
</svg>
