<svg width="1457.7" height="156.71" version="1.1" viewBox="0 0 385.68 41.463" xml:space="preserve" xmlns="http://www.w3.org/2000/svg"><defs><clipPath id="a"><path d="m36.85 283.74h165.95v26.007h-165.95z"/></clipPath><clipPath id="b"><path d="m36.85 283.15h250.87v27.499h-250.87z"/></clipPath><clipPath id="c"><path d="m36.85 283.74h165.95v26.007h-165.95z"/></clipPath><clipPath id="d"><path d="m36.85 283.15h250.87v27.499h-250.87z"/></clipPath><clipPath id="e"><path d="m36.85 283.74h165.95v26.007h-165.95z"/></clipPath></defs><g transform="translate(146.34 88.93)"><g transform="matrix(1.5943 0 0 -1.5943 -205.09 404.91)"><g clip-path="url(#e)"><g transform="translate(104.4 284.64)"><path d="m0 0s5.531 15.75 6.99 18.992c1.457 3.243 1.51 3.243 3.824 3.229 2.612-0.017 3.871-1.783 2.922-3.915-0.881-1.988-2.387-4.876-8.918-6.964l-0.145-1.088 4.564-10.254h8.078s-1.094 1.733-2.516 4.263c-1.855 3.304-2.401 4.698-3.473 7.125 3.824 1.118 8.374 2.716 9.394 7.01 1.259 5.257-6.213 4.981-8.741 4.996-3.181 0.013-7.587 3e-3 -12.063 0l-0.488-1.457c1.851-0.348 1.478-1.395 0.684-3.688-2.097-6.064-3.177-8.733-4.807-12.84-1.629-4.109-2.08-5.409-2.08-5.409z" fill="#17428d" Googl="true"/></g><g transform="translate(89.747 296.7)"><path d="m0 0c-2.863-9.813-8.517-11.005-10.711-10.913-4.452 0.191-6.301 3.722-4.693 9.255 2.87 9.806 8.526 10.999 10.715 10.909 4.45-0.189 6.305-3.721 4.689-9.251m-4.876 11.303c-4.394-0.06-15.475-1.354-18.114-13.764-1.491-6.998 3.153-10.607 12.094-10.501 4.406 0.065 15.477 1.357 18.116 13.762 1.487 6.998-3.155 10.609-12.096 10.503" fill="#17428d"/></g></g></g><g transform="matrix(1.5943 0 0 -1.5943 -205.09 404.91)"><g clip-path="url(#d)"><g transform="translate(164.12 308.14)"><path d="m0 0-0.483-1.42c1.212-0.331 1.797-1.201 1.126-3.606-0.963-3.444-6.999-18.635-6.999-18.635 0-2e-3 19.252 6e-3 19.45 0.018-0.013-0.012 1.404 4.22 1.405 4.22h-11.756c1.603 4.057 6.805 19.425 6.805 19.425z" fill="#17428d"/></g></g></g><g transform="matrix(1.5943 0 0 -1.5943 -205.09 404.91)"><g clip-path="url(#c)"><g transform="translate(145.28 294.27)"><path d="m0 0c-2.712 0-3.914 8e-3 -6.679 8e-3 -0.092 0-0.194 0.138-0.126 0.249 0.165 0.286 3.832 5.388 5.53 7.582 0 0 0.549-3.923 1.524-7.612 0.039-0.148-0.088-0.227-0.249-0.227m-4.173 11.584c-1.002-1.139-15.824-21.353-15.824-21.353h6.477l5.583 7.566 8.623 0.01 2-7.574h6.949s-5.066 20.42-5.621 22.277c-0.553 1.863-5.828 1.763-8.187-0.926" fill="#17428d"/></g><g transform="translate(49.037 286.7)"><path d="m0 0c-4.252 0.252-5.128 3.666-3.99 8.858 2.022 9.258 7.501 9.652 9.599 9.522 2.449-0.149 3.088-1.238 3.65-3.051h6.909c-1.41 3.212-4.819 6.282-11.973 6.075-2.263-0.068-14.356-1.329-16.275-12.401-0.62-3.583 1.194-11.745 12.719-11.404 1.707 0.049 9.683 0.307 12.536 5.888h-7.318c-1.57-3.105-4.482-3.574-5.857-3.487" fill="#17428d"/></g></g></g><g transform="matrix(1.5943 0 0 -1.5943 -205.09 404.91)"><g clip-path="url(#b)"><g transform="translate(179.91 292.36)"><path d="m0 0c2.193 1.697 5.666 3.982 9.545 3.287 2.935-0.525 4.34-0.68 6.519 0.099-2.093 0.61-3.087 1.617-4.22 3.181 1.937 0.657 2.573 0.759 5.102 2.318-0.433 0.364-2.026 1.671-4.907 1.695-4.155 0.028-6.464-1.411-9.676-3.485z" fill="#e7343f"/></g></g><g clip-path="url(#a)"><g transform="translate(202.8 307.1)"><path d="m0 0c-1.033-1.013-2.844-2.705-6.795-1.127-3.961 1.588-7.125-0.428-7.964-0.869l-2.197-6.538c2.432 1.477 5.148 2.778 8.063 1.665 2.908-1.115 4.254-0.979 6.752 0.383z" fill="#fc0"/></g><g transform="translate(183.03 301.69)"><path d="m0 0c3.215 2.069 5.523 3.499 9.679 3.477 3.571-0.024 5.85 0.373 8.928 4.584-3.046-1.599-4.908-1.849-8.171-0.849-3.26 0.989-5.668 0.414-8.355-1.002z" fill="#76b82a"/></g></g></g><g transform="scale(1.103 .90664)" fill="#17428d" stroke="#17428d" stroke-width="2.6612" aria-label="TV2"><path d="m141.03-93.564-1.2912 6.1194h-9.9828l-6.9615 32.786h-6.4562l6.9615-32.786h-9.9267l1.2912-6.1194z"/><path d="m163.04-63.36 16.449-30.204h6.793l-21.727 38.906h-6.793l-5.2772-38.906h7.0176z"/></g><g fill="#17428d" stroke="#17428d" stroke-width="2.5835" aria-label="1"><path d="m237.75-87.638-8.0684 38.005h-6.5104l5.8983-27.878h-6.9555l1.0572-4.9523q1.6137 0 3.0604-0.22258 1.4468-0.27822 2.6153-0.77902 1.1685-0.55644 1.9476-1.3911 0.77902-0.89031 1.0572-2.0588l0.16693-0.72337z"/></g></g></svg>
