<svg Googl="true" version="1.1" viewBox="0 0 911.25 150" xml:space="preserve" xmlns="http://www.w3.org/2000/svg">
<style type="text/css">
	.st0{fill:#DAFF00;}
	.st1{fill:#A5A5A5;}
</style>
<g transform="matrix(1.8225 0 0 1.8225 0 -.048589)">
	<path class="st0" d="m101.6 40c-3.8-2.1-8.6-3.7-14.7-4.7l-10.5-2c-4.4-0.8-7.7-1.9-9.8-3.1-2.1-1.3-3.3-2.8-3.5-4.4l-0.2-1.6c-0.3-2.1 0.6-3.9 2.7-5.4s5.4-2.3 9.9-2.3c3.8 0 6.1 0.2 10.8 1.1 3.4 0.6 9.2 2.5 14.7 5.4 0.2 0.7 0.3 1.4 0.3 1.5 0.3 1.5 1.6 11.3 2.5 16.8-0.8-0.4-1.5-0.9-2.2-1.3m-5.2 22.1c-2.5 2.2-6.4 3.7-11.8 4.6-3.4 0.6-7.1 0.7-11.6-0.2s-12-4.6-14.4-6.6l-7.6 5.8c6 4.2 13 7.8 20.2 9.9-6.7 0.4-12.5 0.7-19 1 1.9-0.9 3.9-2.4 5.9-4-3.2-1.5-8.8-5.5-8.8-5.5-6 4.4-10.9 5.3-14.5 5.9-5.8 1-10.3 0.2-13.4-2.5-3.2-2.6-5-7.1-5.4-13.2l-1.5-20.8c-0.4-6.2 0.7-11 3.5-14.4 2.7-3.3 6.7-5 12.1-5 3.1 0 5.9 0.4 8.5 1.3 2.5 0.9 7.8 3.4 10.4 5 0.1-2.2 0.4-5.7 3.4-9.1-3.2-2.2-5.3-3.3-8.7-4.6 11.8-1.6 21.8-3.2 36.3-5 6.7-0.8 13.1 2 17.5 7.1-2.8-1.1-5.7-1.9-7.6-2.3-4.4-1-8.9-1.7-14.5-1.6-5.5 0.1-10 1-13.8 2.4-3.8 1.5-6.6 3.5-8.3 6.2-1.8 2.7-2.4 5.6-2.1 8.7l0.3 2.3c1 8.1 7.8 13.4 20.3 15.7l11.8 2c4.7 0.7 8 1.6 9.9 2.7s5.1 3.6 5.5 5.7l0.4 2.1c0.5 2.2-0.5 4.3-3 6.4m15.7-7.6c-1.5-10.4-3.4-19.6-4.5-29.9-1.5-15.1-14.1-26.1-28.1-24.4-21.1 2.6-32.8 4.9-54 7.5-13.9 1.6-25.4 13-25.5 25.6v25.7c0 12.8 12.9 24 27.5 23.3 10.5-0.5 54.6-2.7 62.7-3.4 15.1-1.2 24.2-8.7 21.9-24.4"/>
	
		<path class="st1" d="m142.6 34.7v-25.4h-17.1v65.8h17.1v-27h24.7v27h17.1v-65.8h-17.1v25.4z" fill="#a5a5a5"/>
		<path class="st1" d="m205.3 41.1c0 11.3 8.4 19.6 18.6 19.6s18.6-8.3 18.6-19.6c0-9.1-8.4-17.4-18.6-17.4s-18.6 8.3-18.6 17.4m55-0.1c0 21.3-15.3 36.3-36.4 36.3s-36.4-15-36.4-36.3c0-19.9 17.5-33.8 36.4-33.8s36.4 13.9 36.4 33.8"/>
		<path class="st1" d="m280.6 38.8h1.7c5.6 0 11.9-1 11.9-8.2 0-7.1-6.3-8.2-11.9-8.2h-1.7zm37.6 36.3h-21.3l-16.1-25.3h-0.2v25.3h-17.1v-65.8h25.5c13 0 22.8 6.2 22.8 20.2 0 9.1-5.1 16.9-14.4 18.6z"/>
		<path class="st1" d="m335.2 38.8h1.7c5.6 0 11.9-1 11.9-8.2 0-7.1-6.3-8.2-11.9-8.2h-1.7zm37.6 36.3h-21.3l-16.1-25.3h-0.2v25.3h-17.1v-65.8h25.6c13 0 22.8 6.2 22.8 20.2 0 9.1-5.1 16.9-14.4 18.6z"/>
		<path class="st1" d="m387.2 41.1c0 11.3 8.4 19.6 18.6 19.6s18.6-8.3 18.6-19.6c0-9.1-8.4-17.4-18.6-17.4-10.3 0-18.6 8.3-18.6 17.4m54.9-0.1c0 21.3-15.3 36.3-36.4 36.3s-36.4-15-36.4-36.3c0-19.9 17.5-33.8 36.4-33.8 19 0 36.4 13.9 36.4 33.8"/>
		<path class="st1" d="m462.4 38.8h1.6c5.6 0 11.9-1 11.9-8.2 0-7.1-6.3-8.2-11.9-8.2h-1.6zm37.6 36.3h-21.3l-16.1-25.3h-0.2v25.3h-17.1v-65.8h25.6c13 0 22.8 6.2 22.8 20.2 0 9.1-5.1 16.9-14.4 18.6z"/>
	
</g>
</svg>
