<svg xmlns="http://www.w3.org/2000/svg" height="174.19" width="600" viewBox="0 0 158.75 46.087">
    <defs>
        <clipPath id="a" clipPathUnits="userSpaceOnUse">
            <path d="M0 0h992.13v595.28H0z"/>
        </clipPath>
    </defs>
    <path d="M46.08 43.76h110.34V2.32H46.08z" fill="#ffed00"/>
    <path d="M0 46.09h158.75V0H0zm156.42-2.33H46.08V2.318h110.34z" fill="#020203"/>
    <g clip-path="url(#a)" transform="matrix(.82088 0 0 -.82088 -166.12 110.14)">
        <path d="M241.16 90.476c-.05-.382-.24-.67-.24-.67s-.191-.191-.524-.289c-4.596-1.865-9.719-1.243-9.719-1.243-8.286.909-13.548 5.983-15.222 12.544-2.491 9.81 2.444 16.799 3.639 18.281 2.917 3.496 7.463 5.985 11.915 6.561 5.7.814 9.911-.528 11.635-1.099 0 0 1.912-.624 3.35-1.584.717-.478.814-.671.814-.671s.047-.093-.145-.86l-1.335-7.039a.699.699 0 0 0-.243-.429s-.097-.05-.766.381c-4.309 3.066-9.333 2.683-9.333 2.683-3.836-.238-8.286-2.252-9.624-7.324-1.197-4.495.045-8.279 2.73-10.528 1.814-1.58 4.641-2.396 7.609-2.25 3.254.235 5.84 1.529 5.65 1.437l.288.092c.672.335.814.286.814.286s.143-.14.047-.571z" fill="#fff"/>
        <path d="M288.5 115.68c-2.095 1.665-3.975 2.417-6.124 2.417-2.258 0-3.977-1.344-3.977-3.116 0-.644.323-1.344.86-1.773 1.021-.86 1.397-1.021 5.588-2.258 6.234-1.826 8.813-4.728 8.813-10.045 0-4.086-1.237-7.201-3.655-9.296-2.579-2.204-6.233-3.386-10.369-3.386-4.246 0-8.597 1.398-12.413 4.03l3.976 7.521c2.902-2.524 5.481-3.652 8.221-3.652s4.513 1.396 4.513 3.491c0 1.934-1.236 2.848-5.588 4.138-3.975 1.183-5.534 1.827-6.825 2.902-1.878 1.559-2.847 3.922-2.847 7.092 0 7.201 4.944 12.09 12.198 12.09 3.761 0 7.737-1.022 11.337-2.902z" fill="#020203"/>
    </g>
    <path d="M89.97 36.99h-7.63V14.055h-6.22V7.57H96.32v6.485H89.97zM109.18 16.66l-3.22 9.393h6.352zm-5.337 15.217l-2.028 5.115h-8.072l11.292-29.418h8.336l11.07 29.418h-8.159l-1.898-5.115zM136.29 20.76c1.455 0 2.558-.263 3.264-.794.838-.616 1.455-1.807 1.455-2.866 0-1.058-.617-2.249-1.455-2.868-.706-.528-1.809-.793-3.264-.793h-1.411v7.321zm15.394 16.232h-9.527l-7.278-11.291v11.291h-7.63V7.572h11.863c3.353 0 5.515.794 7.234 2.603 1.588 1.676 2.514 4.057 2.514 6.484 0 2.602-1.014 5.073-2.69 6.528-1.014.882-1.985 1.367-3.749 1.764z" fill="#020203"/>
</svg>
