<svg version="1.1" viewBox="0 0 800.1 296.1" xml:space="preserve" xmlns="http://www.w3.org/2000/svg"><style type="text/css">
	.st0{fill:#0C93D1;}
</style><g transform="translate(-.1)"><path d="m193.9 82.2c-3.7-5.9-8.4-11.2-13.9-15.6-5.5-4.5-11.9-8-18.8-10.6-7-2.5-14.3-3.7-22-3.7-14 0-25.9 2.7-35.7 8.1s-17.7 12.7-23.7 21.8c-6.1 9.1-10.5 19.5-13.3 31.1-2.8 11.7-4.1 23.7-4.1 36.1 0 11.9 1.4 23.4 4.1 34.7 2.7 11.2 7.2 21.3 13.3 30.3s14 16.2 23.7 21.6c9.8 5.4 21.7 8.1 35.7 8.1 19 0 33.9-5.8 44.6-17.4 10.6-11.6 17.2-26.9 19.6-46h60.2c-1.6 17.7-5.7 33.7-12.3 48s-15.3 26.4-26.1 36.5c-10.9 10-23.5 17.7-38 23-14.6 5.3-30.6 7.9-48 7.9-21.6 0-41.1-3.8-58.4-11.3-17.3-7.6-31.9-17.9-43.8-31.1-12-13.3-21-28.8-27.4-46.7-6.3-17.8-9.5-37-9.5-57.6 0-21.1 3.2-40.8 9.5-58.9 6.4-18.1 15.4-33.8 27.4-47.3 11.9-13.5 26.5-24 43.8-31.7 17.2-7.7 36.8-11.5 58.4-11.5 15.6 0 30.3 2.2 44.2 6.7s26.3 11 37.2 19.6c11 8.6 20.1 19.2 27.2 31.9s11.6 27.2 13.4 43.6h-60.2c-1.1-7.1-3.4-13.7-7.1-19.6z"/><path class="st0" d="m292.1 59v-52.3h231.8v52.3h-84.8v230.6h-62.2v-230.6z" fill="#0c93d1" Googl="true"/><path class="st0" d="m636 289.6-91.5-282.9h63.8l63 198.9h0.8l63.9-198.9h64.2l-93.9 282.9z" fill="#0c93d1"/></g></svg>
