<svg width="242.8" height="147.55" version="1.1" viewBox="0 0 64.24 39.04" xmlns="http://www.w3.org/2000/svg">
 <defs>
  <linearGradient id="a" x1="76.031" x2="261.91" y1="309.19" y2="201.62" gradientTransform="matrix(.24962 0 0 .24962 -3.2316 -47.982)" gradientUnits="userSpaceOnUse">
   <stop stop-color="#6c0e06" offset="0"/>
   <stop stop-color="#c21710" offset="1"/>
  </linearGradient>
 </defs>
 <path d="m5.1489-3.3022e-5c-2.8522 0-5.1489 2.332-5.1489 5.2283v28.584c0 2.8963 2.2965 5.2278 5.1489 5.2278h53.943c2.8522 0 5.1484-2.3315 5.1484-5.2278v-28.584c0-2.8963-2.2963-5.2283-5.1484-5.2283h-6.8221v4.7812h-5.0753v-4.7812z" fill="url(#a)" fill-rule="evenodd" stroke-width=".24962"/>
 <path d="m24.589 25.486-2.823-2.854c-1.174 1.11-2.284 1.807-3.902 1.807-2.632 0-4.313-2.093-4.313-4.694v-0.063c0-2.506 1.712-4.631 4.123-4.631 1.713 0 2.791 0.73 3.87 1.871l2.95-3.172c-1.586-1.776-3.585-2.854-6.788-2.854-5.202 0-8.913 3.996-8.913 8.85v0.063c0 4.852 3.743 8.786 8.85 8.786 3.393 0 5.296-1.3 6.946-3.109zm19.221-14.273h-5.012l-3.838 11.387-3.806-11.387h-5.107l6.692 17.128h4.377zm8.332 17.002v-17.002h-4.822v17.002z" fill="#dfcac0"/>
</svg>
