<svg width="800" height="274.74" fill="none" version="1.1" viewBox="0 0 466.29 160.27" xmlns="http://www.w3.org/2000/svg">
 <path d="m363.16 0v85.837c0 15.747 12.821 28.553 28.6 28.553h9.469v-19.093h-9.4742l5e-3 -0.0035c-5.246 0-9.6674-4.2017-9.6674-9.4568v-38.198h19.136v-18.597l-19.136-0.0261v-29.016zm-334.67 0.41238c-15.779 0-28.612 12.988-28.612 28.68v57.162c0 15.697 12.829 28.464 28.612 28.464 15.768-3e-3 28.593-12.77 28.593-28.464h-19.133c0.0099 5.2228-4.2429 9.4506-9.4655 9.4098-5.2597 0-9.6761-4.1776-9.6761-9.4098v-57.162c0-5.2368 4.4164-9.6204 9.6761-9.6204s9.4655 4.3836 9.4655 9.6204h19.138c0-15.692-12.828-28.68-28.598-28.68zm204.87 28.506c-15.77 0-28.598 11.556-28.598 25.764v34.453c0 14.414 12.828 25.959 28.598 25.959 15.779 0 28.612-11.545 28.612-25.959v-34.459c0-14.203-12.833-25.759-28.612-25.759zm-63.955 0.05046s-13.703 1.3103-19.243 5.4201v-5.2965h-18.922v85.312h18.922l-0.0905-55.74c-0.0321-11.738 19.333-12.627 19.333-12.627zm165.76 0.04698v85.383h18.94v-85.383zm-269.66 0.0139v60.146c0 14.386 12.832 25.919 28.818 25.919 15.775 0 28.604-11.533 28.604-25.919v-60.146h-19.138v60.146c0 4.7328-4.2104 8.7156-9.4655 8.7156-5.4705 0-9.6674-3.9828-9.6674-8.7156v-60.146zm111.06 0.06785v85.301h18.936v-85.301zm122.63 0.0087c-15.985 0-28.814 11.555-28.814 25.95 0 14.198 12.83 25.764 28.609 25.764 5.4705 0 9.6674 3.7879 9.6674 8.5207 0 4.9298-4.1932 8.7052-9.462 8.7052-5.4613 0-9.6674-3.7753-9.6674-8.7052h-19.147c0 14.386 12.824 25.95 28.814 25.95 15.779 0 28.607-11.564 28.607-25.95 0-14.208-12.828-25.762-28.607-25.762-5.4613 0-9.6674-3.7896-9.6674-8.5225 0-4.9253 4.206-8.7034 9.6674-8.7034 5.2643 0 9.462 3.7782 9.462 8.7034h19.145c0-14.395-12.828-25.95-28.607-25.95zm-65.834 17.04c5.2643 0 9.4568 3.8035 9.4568 8.5364v34.453c0 4.742-4.1925 8.733-9.4568 8.733-5.2505 0-9.4655-3.991-9.4655-8.733v-34.459c0-4.7282 4.215-8.5312 9.4655-8.5312z" fill="#fff" stroke-opacity=".98824" stroke-width="8.9087"/>
 <path d="m447.37 88.393v-59.854h19.17v59.854c0 11.491-7.4497 23.101-19.17 26.871v16.123h-19.174v-16.114a28.64 28.64 0 0 1-18.968-26.88v-59.854h18.968v59.854c0 4.8657 4.4258 9.4244 9.6902 9.4244 5.2689 0 9.484-4.5587 9.484-9.429zm-9.4473 71.872c-5.5942 0-10.13-4.6962-10.13-10.497 0-5.8049 4.5358-10.497 10.125-10.497 5.5988 0 10.13 4.6916 10.13 10.492 0 5.8049-4.5358 10.497-10.125 10.497z" clip-rule="evenodd" fill="url(#a)" fill-rule="evenodd" stroke-width="4.5816" Googl="true"/>
 <defs>
  <linearGradient id="a" x1="85.307" x2="104.19" y1="15.516" y2="28.231" gradientTransform="matrix(4.5816 0 0 4.5816 -.1249 0)" gradientUnits="userSpaceOnUse">
   <stop stop-color="#ECC334" offset="0"/>
   <stop stop-color="#EB8B4C" offset="1"/>
  </linearGradient>
 </defs>
</svg>
