<svg width="800mm" height="306.7mm" version="1.1" viewBox="0 0 800 306.7" xmlns="http://www.w3.org/2000/svg">
 <g transform="translate(27.252 -97.896)" stroke-width="4.5906" fill="#fff">
  <path d="m207.41 291.49-5.1002 22.228h-4.6182a25.249 25.249 0 0 0-4.1316-10.669c-1.4966-2.7085-3.9755-4.7376-6.9273-5.6695-1.648-0.3443-3.3236-0.52335-5.0084-0.52792l-5.4032-0.10091h-12.041l-7.85 34.012h8.3734c2.4514 0.0919 4.9028-0.25243 7.2349-1.0146 1.7766-0.6886 3.4292-1.6572 4.8982-2.8646 1.593-1.4644 2.9472-3.1676 4.0214-5.0497a35.807 35.807 0 0 0 3.2915-6.2387h4.5906l-8.4101 36.349h-4.5906v-2.2953a29.242 29.242 0 0 0-0.5876-5.6878c-0.20197-1.4369-0.67024-2.8187-1.3772-4.0857a7.7582 7.7582 0 0 0-4.2464-3.108 21.852 21.852 0 0 0-6.0367-0.77122h-8.3825l-5.619 24.271-0.79418 3.9847c-0.19742 1.0099-0.32134 2.0383-0.36725 3.0666 0 2.6213 0.85386 4.2647 2.5799 4.9396 3.1033 0.84466 6.3213 1.189 9.5302 1.0145 4.3152 0.10543 8.6304-0.15603 12.904-0.77122 2.1806-0.29851 4.2601-1.1063 6.0734-2.355 3.2226-2.8554 6.179-6 8.837-9.3879l7.0099-9.3282h4.4897l-7.9235 27.145h-81.117l1.0375-4.4897 4.5907-0.40855a23.412 23.412 0 0 0 4.5126-0.83093c1.4506-0.42235 2.7314-1.2808 3.6725-2.4606a9.8699 9.8699 0 0 0 1.749-3.8011l14.034-60.913 0.42693-2.153 0.12395-1.2808c-5e-3 -1.7353-1.0237-3.3053-2.6029-4.0214-2.6947-1.2302-5.5685-2.0061-8.5157-2.2953l1.0375-4.4896h76.632zm19.85 89.059a52.196 52.196 0 0 1-12.211-1.1982 24.422 24.422 0 0 1-7.6389-3.0666 10.467 10.467 0 0 1-3.9204-4.0214 8.9977 8.9977 0 0 1-1.0558-4.0214c-5e-3 -2.254 0.91354-4.4116 2.5386-5.9678a9.1354 9.1354 0 0 1 6.7666-2.5386 9.5027 9.5027 0 0 1 5.8944 1.8087 15.425 15.425 0 0 1 3.9617 4.5906c1.01 1.7674 1.8363 3.6312 2.4606 5.5685l1.4002 4.5126a15.287 15.287 0 0 0 10.017-2.8462c2.2724-1.9235 3.5256-4.788 3.3925-7.7628a6.2892 6.2892 0 0 0-1.0145-3.6358 10.054 10.054 0 0 0-2.7223-2.58c-1.3772-0.81713-2.8233-1.5057-4.329-2.052l-5.2196-1.8684a27.728 27.728 0 0 1-11.215-6.6426 14.598 14.598 0 0 1-4.1316-10.586c-0.0139-2.4606 0.57841-4.8891 1.7261-7.0696 1.3359-2.4147 3.1905-4.5034 5.4262-6.1148a28.921 28.921 0 0 1 9.2043-4.3061c4.2372-1.143 8.6167-1.6802 13.005-1.6067a61.515 61.515 0 0 1 8.2632 0.52792c2.4422 0.32138 4.8248 0.96862 7.0926 1.9281a12.349 12.349 0 0 1 4.834 3.6725 8.7222 8.7222 0 0 1 1.7261 5.5088 7.391 7.391 0 0 1-2.4376 5.5455c-3.42 2.8738-8.3412 3.0987-12.009 0.55088-1.4874-1.143-2.7314-2.5662-3.6725-4.1866a26.121 26.121 0 0 1-2.2356-5.0818l-1.3405-4.3887c-2.7498 0.16537-5.3711 1.2165-7.4782 2.9885-2.1392 1.6067-3.3925 4.1316-3.3741 6.8079-0.0689 1.3313 0.20658 2.6626 0.79418 3.8607a6.886 6.886 0 0 0 2.1346 2.3366 18.684 18.684 0 0 0 3.8424 1.9694l5.7705 2.0704c4.4392 1.368 8.5294 3.668 12.009 6.7437a13.772 13.772 0 0 1 4.0444 10.384 17.904 17.904 0 0 1-7.5333 14.493c-2.8462 1.9373-6 3.3741-9.3282 4.2464a52.242 52.242 0 0 1-13.409 1.4414zm272.82-10.889-1.2991 5.2838-9.2869 3.4935a24.835 24.835 0 0 1-8.0474 1.1982c-3.9342 0.24339-7.8133-1.0054-10.871-3.4935a11.155 11.155 0 0 1-3.8791-8.635l0.14248-3.5945c0.16537-1.8592 0.4912-3.7047 0.97322-5.5088l4.2464-15.585 0.97323-4.5494a20.887 20.887 0 0 0 0.32595-3.3099c0.0919-1.5746-0.38105-3.1354-1.3405-4.3886-1.2165-1.1844-2.9013-1.7674-4.5907-1.5838-1.9694 0.16989-3.8929 0.70237-5.6694 1.5654a30.252 30.252 0 0 0-8.2632 5.7704l-9.7138 42.303h-19.308l8.3321-36.046 0.91813-4.2877a22.494 22.494 0 0 0 0.5463-4.3887c0.18796-1.6526-0.30758-3.3145-1.3772-4.5906-1.4736-0.99618-3.2502-1.4415-5.0176-1.2578-1.3038 9e-3 -2.5983 0.20664-3.8424 0.58762l-3.3741 1.1155 1.2808-5.2838 9.0803-3.3099c2.6488-0.87683 5.417-1.3405 8.2081-1.3772 3.6542-0.2708 7.2946 0.6886 10.343 2.7222 2.3642 1.9373 3.9709 4.6411 4.5493 7.6388h0.40858c3.5302-3.2777 7.5333-6.0092 11.867-8.1071a30.161 30.161 0 0 1 13.047-2.9059 13.956 13.956 0 0 1 10.159 3.5761c2.3871 2.2494 3.7184 5.3986 3.6725 8.6764q-0.0241 1.8914-0.20182 3.7781c-0.16537 1.7536-0.49123 3.4889-0.97325 5.1829l-4.4483 16.458c-0.43611 1.5425-0.78502 3.1124-1.0558 4.6917-0.25695 1.3129-0.40858 2.6488-0.45907 3.9847a5.7842 5.7842 0 0 0 1.5057 4.632c1.5654 0.9732 3.4063 1.4093 5.2425 1.2395 1.3497-0.0271 2.6901-0.22953 3.9847-0.61058 1.0972-0.28014 2.1714-0.64269 3.2134-1.0788zm-7.1522-78.004a44.07 44.07 0 0 1-3.1078 5.6282c-1.3313 2.0796-2.883 4.0076-4.632 5.7521-1.7169 1.749-3.6496 3.2731-5.7521 4.531-1.9694 1.1568-4.2188 1.7536-6.5004 1.7261-2.277 0.0364-4.5447-0.34891-6.684-1.1385a36.955 36.955 0 0 1-4.9166-2.254l-4.4896-2.1117a11.844 11.844 0 0 0-4.6549-0.9962c-1.9878-0.0241-3.847 0.98702-4.9166 2.6626l-4.2877 6.0138-4.1637-1.7491a52.563 52.563 0 0 1 3.1676-5.3619c1.3175-2.0291 2.8049-3.9388 4.4484-5.7108a24.101 24.101 0 0 1 5.5088-4.5126c1.9005-1.1936 4.0949-1.8409 6.3397-1.8684a17.169 17.169 0 0 1 5.7521 0.9732l5.3252 2.1944 4.6916 2.2953a10.008 10.008 0 0 0 4.4484 0.91813 11.385 11.385 0 0 0 3.8424-0.50955 5.1874 5.1874 0 0 0 2.2953-1.5424 16.435 16.435 0 0 0 1.8087-2.782l1.9281-3.5348 4.5126 1.4002zm126.54-2.7911-15.764 68.539-0.9732 4.5126a24.239 24.239 0 0 0-0.55088 4.1637 5.417 5.417 0 0 0 1.6848 4.632 9.824 9.824 0 0 0 5.6098 1.2395 17.766 17.766 0 0 0 3.9617-0.61055 23.917 23.917 0 0 0 3.5577-1.0788l-1.2808 5.2839-9.4889 3.4935c-2.7085 0.84008-5.5363 1.2441-8.3734 1.1982a16.526 16.526 0 0 1-11.073-3.4338 10.88 10.88 0 0 1-4.0444-8.6947c0-1.5103 0.13315-3.0207 0.3856-4.5126l0.85388-4.5126 12.647-55.019a18.5 18.5 0 0 0 0.3443-1.8684c0.0735-0.48662 0.11476-0.97322 0.1238-1.4644a6.7024 6.7024 0 0 0-0.71155-3.3328 5.2793 5.2793 0 0 0-2.1117-1.9923 10.237 10.237 0 0 0-3.2134-1.0559l-4.228-0.52789 1.0558-4.329 30.946-1.5241 0.65191 0.9181zm-300.49 30.208c-0.35761 6e-3 -0.71607 0.0211-1.075 0.0485a24.33 24.33 0 0 0-9.7547 2.2359c-3.8194 1.749-7.3454 4.0718-10.463 6.8859h-0.45938c-0.48201-1.1201-1.0548-2.195-1.725-3.2141-0.69319-1.0604-1.5844-1.9732-2.6219-2.7031-1.3083-0.93186-2.7815-1.603-4.3469-1.9703-1.873-0.4315-3.792-0.63691-5.7109-0.60935-2.7957 0.0365-5.5733 0.49973-8.2312 1.3765l-9.1031 3.3094-1.3 5.2844 3.4156-1.1156c1.2395-0.37183 2.5257-0.5691 3.8203-0.5875 1.8225-0.22502 3.6543 0.2702 5.1188 1.3766a6.381 6.381 0 0 1 1.2984 4.4906 22.311 22.311 0 0 1-0.54687 4.3469l-0.9172 4.3469-11.661 51.091a8.7222 8.7222 0 0 1-1.5234 3.7188 6.0138 6.0138 0 0 1-3.0484 2.0328l-3.4516 0.67032-3.8016 0.45939-0.91875 4.0438h42.353l0.91875-4.0438-4.7562-0.67031c-1.4231-0.22953-2.819-0.61115-4.1641-1.1391a3.4889 3.4889 0 0 1-1.7672-1.6484 5.2333 5.2333 0 0 1-0.58749-2.4594 8.5386 8.5386 0 0 1 0.18438-1.3781 16.894 16.894 0 0 1 0.34374-1.6656l3.5578-15.608a18.363 18.363 0 0 0 5.9672 3.0656 31.354 31.354 0 0 0 9.0625 1.0797 31.813 31.813 0 0 0 13.717-2.925c4.2372-2.0107 8.0431-4.8342 11.197-8.3094 3.2777-3.599 5.8474-7.785 7.5781-12.334a40.903 40.903 0 0 0 2.7828-14.975l-0.0593-6e-3c0.33512-5.9173-1.483-11.757-5.1188-16.439-3.6668-3.9637-8.839-6.1557-14.203-6.0625zm-10.227 8.964c1.3536 0.0356 2.6856 0.37741 3.8906 1a7.4369 7.4369 0 0 1 2.8469 2.8234 11.477 11.477 0 0 1 1.4641 4.1875c0.28002 1.7537 0.41261 3.525 0.40781 5.3016a56.924 56.924 0 0 1-1.2797 12.597 47.743 47.743 0 0 1-3.8016 10.728l-0.028-0.0181c-1.368 2.9334-3.3327 5.5512-5.7703 7.6813a10.788 10.788 0 0 1-6.9906 2.8047 8.4468 8.4468 0 0 1-6.7266-2.6625 9.7322 9.7322 0 0 1-2.3359-6.7078l7.2812-32.166a19.005 19.005 0 0 1 4.3875-3.6359 11.109 11.109 0 0 1 6.0734-1.9281c0.19393-6e-3 0.38789-9e-3 0.58125-6e-3zm71.658-8.814c-4.7421-0.0151-9.4204 1.0457-13.717 3.0656-4.2969 2.0199-8.1617 4.8581-11.38 8.3516a41.683 41.683 0 0 0-7.6703 12.339 39.388 39.388 0 0 0-2.8656 15.034 24.376 24.376 0 0 0 5.161 16.416c3.9526 4.2188 9.5981 6.4223 15.359 5.9953a20.015 20.015 0 0 0 6.0141-0.85313 32.272 32.272 0 0 0 5.1828-2.1344 28.508 28.508 0 0 0 4.6547-2.9062l3.9016-3.214h0.45936l0.0377 0.0419c0.95484 2.5295 2.7028 4.6774 4.9844 6.1234 2.9105 1.7215 6.2619 2.548 9.6406 2.3781a24.835 24.835 0 0 0 8.0485-1.1984l9.2859-3.4938 1.286-5.2875-3.25 1.0563a15.333 15.333 0 0 1-3.9625 0.65158 8.4927 8.4927 0 0 1-5.2828-1.2578 5.6924 5.6924 0 0 1-1.525-4.5906c0.0596-1.391 0.23435-2.7724 0.5281-4.1313l0.9969-4.55 8.6344-36.045-0.81249-0.91876-17.981 3.7a18.546 18.546 0 0 0-6.4828-3.3328 30.849 30.849 0 0 0-9.2453-1.2391zm4.0469 5.7812c1.266 0.0301 2.5155 0.29882 3.6844 0.79686 1.1064 0.505 2.0569 1.2992 2.7547 2.2953a7.3451 7.3451 0 0 1 1.239 2.9891c0.20664 1.0054 0.32083 2.0232 0.34375 3.0469l0.0181 6e-3 -7.4969 31.777a24.652 24.652 0 0 1-4.7328 3.9438c-1.5746 1.0329-3.4148 1.5925-5.3016 1.6062-1.5562 0.0596-3.1043-0.28405-4.4906-0.9953a7.2532 7.2532 0 0 1-2.8453-2.8047 11.982 11.982 0 0 1-1.4422-4.1312c-0.31673-1.7582-0.46858-3.5408-0.45933-5.3266a54.767 54.767 0 0 1 1.4-12.394 43.152 43.152 0 0 1 3.8797-10.628c1.4506-2.8003 3.4107-5.3065 5.7703-7.3953a10.788 10.788 0 0 1 7.1344-2.7813c0.18134-6e-3 0.36289-6e-3 0.54374-3e-3zm160-5.9656c-5.541-0.0461-11.041 0.91879-16.233 2.8469a37.368 37.368 0 0 0-12.683 7.7125 35.44 35.44 0 0 0-8.1078 11.664 35.945 35.945 0 0 0-2.9063 14.466c-0.32589 6.8998 2.4984 13.574 7.6813 18.142a29.702 29.702 0 0 0 20.158 6.6422c5.7245 0.0825 11.416-0.90319 16.783-2.9047a39.112 39.112 0 0 0 13.047-8.2312c3.4338-3.3144 6.1462-7.3088 7.9641-11.725a36.404 36.404 0 0 0 2.8047-14.12l0.0181 0.012a22.311 22.311 0 0 0-7.639-18.022 31.216 31.216 0 0 0-20.888-6.4828zm-0.6219 4.5438c2.458 0.0241 4.768 1.2136 6.2141 3.2234a17.444 17.444 0 0 1 2.2953 10.1h0.05a84.147 84.147 0 0 1-1.0562 12.983 66.84 66.84 0 0 1-3.1078 12.455 28.783 28.783 0 0 1-5.5672 9.6719 10.834 10.834 0 0 1-8.3328 3.9203 7.8959 7.8959 0 0 1-6.8078-3.1906c-1.8087-3.1078-2.6267-6.6975-2.3375-10.283 0.0319-4.0489 0.32255-8.0987 0.87343-12.111a61.928 61.928 0 0 1 2.9234-12.578 25.845 25.845 0 0 1 6.0969-10.586c2.176-2.2402 5.1409-3.5295 8.2625-3.5938 0.16507-9e-3 0.32987-0.012 0.49374-0.012z"/>
  <path d="m731.65 217.57a53.619 53.619 0 0 0 25.175-10.444c9.0069-7.5149 14.314-18.569 14.548-30.298a37.506 37.506 0 0 0-17.821-30.661c-8.5937-5.8301-19.464-8.5754-36.858-8.5754h-46.49v21.943h46.063c21.902 0 27.025 12.151 27.025 19.161 0 7.0099-3.9021 19.524-27.025 19.524h-18.023v-30.413l-28.058 20.378v76.136h28.058v-48.946l40.536 48.946h33.971l-41.164-46.751zm-472.71 0-49.772-79.997h30.711l32.956 58.214 33.195-58.214h30.721l-49.776 79.974v46.751h-28.058v-46.751zm104.85 9.3649c1.4415 12.193 11.477 16.338 20.075 16.338 11.054 0 20.887-6.0964 20.887-15.342 0-12.537-10.035-14.851-28.871-20.621-11.665-3.6358-36.046-9.4062-36.046-35.132 0-19.464 18.822-34.806 44.438-34.806 17.614 0 43.4 9.8929 44.842 34.806h-28.678c-1.2211-10.889-9.4062-13.694-16.985-13.694-8.8187 0-15.562 5.1002-15.562 12.395 0 10.559 9.8332 12.854 25.194 16.985 12.477 3.2915 39.723 11.054 39.723 37.611s-25.4 38.929-49.152 38.929c-19.464 0-47.706-10.559-49.354-37.446h29.486zm109.72-67.418h-28.058v-21.943h84.362v21.925h-28.265v104.84h-28.058v-104.84zm219.68 5.5272h-70.568l-21.819-67.152-21.801 67.152h-70.591l70.237 36.229-25.01-19.74h38.3l8.8783-27.328 8.8783 27.328h34.673l-28.462 19.281 1.7674 5.2609 7.1522 21.966-24.28-17.637-101.17 96.546c0.72992-0.58759 88.265-64.531 101.51-74.791l57.053 41.472-21.833-67.198 57.117-41.431zm-720.43-27.452v126.73h35.008c16.985 0 36.432-1.7074 50.369-8.2078 21.691-9.7001 35.826-31.065 36.267-54.822a62.112 62.112 0 0 0-24.973-48.988l-0.03752 0.0181c-8.7957-6.3398-24.972-14.731-62.253-14.731zm28.039 28.242h5.3266c17.596 0 32.345 1.4408 44.028 9.0016a31.905 31.905 0 0 1 16.173 26.392 33.007 33.007 0 0 1-22.737 29.628c-11.816 4.1683-24.35 5.9394-36.859 5.214h-5.9312zm150.72-28.261-63.08 126.75h30.936l16.173-32.731h54.27l16.173 32.731h30.923l-63.477-126.75h-21.902zm10.862 32.612 17.413 39.314h-34.825z"/>
 </g>
</svg>
