<svg enable-background="new 0 0 788.1 406.8" version="1.1" viewBox="0 0 800 562.13" xml:space="preserve" xmlns="http://www.w3.org/2000/svg">
<path d="m800 0v412.94h-800v-182.62l23.855-23.855-23.855-23.855v-182.62zm-412.94 387.06v-144.25l-28.626-28.626c-4.2634-4.2634-4.2634-11.065 0-15.328l28.626-28.626v-144.35h-361.17v144.35l28.626 28.626c4.2634 4.2634 4.2634 11.065 0 15.328l-28.626 28.626v144.35h361.17zm302.7-276.31c-67.707-63.241-135.31-63.241-203.02 0v57.455h79.482v-28.727c0-14.008 39.792-14.008 39.792 0v28.727l-119.27 113.59v60.5h203.02v-75.422h-83.746l83.746-69.534zm-386.45 113.39h-11.166c-2.8423 0-4.771 0.40604-5.6846 1.2181s-1.4211 2.5378-1.4211 5.0755v62.632l-32.889-62.733c-1.3196-2.6393-2.6393-4.3649-3.8574-5.0755-1.3196-0.71057-3.5528-1.1166-6.6997-1.1166h-10.253c-2.8423 0-4.771 0.40604-5.6846 1.2181s-1.4211 2.5378-1.4211 5.0755v105.57c0 2.5378 0.40604 4.2634 1.3196 5.0755s2.7408 1.2181 5.6846 1.2181h11.268c2.8423 0 4.771-0.40604 5.6846-1.2181s1.4211-2.5378 1.4211-5.0755v-62.733l32.889 62.936c1.3196 2.6393 2.6393 4.3649 3.8574 5.0755 1.3196 0.71057 3.5529 1.1166 6.6997 1.1166h10.253c2.8423 0 4.771-0.40604 5.6846-1.2181s1.4211-2.5378 1.4211-5.0755v-105.67c0-2.5378-0.50755-4.2634-1.4211-5.0755s-2.8423-1.2181-5.6846-1.2181zm-114.71 95.115c0.81208 0.91359 1.1166 2.9438 1.1166 5.8876v9.948c0 3.0453-0.40604 4.974-1.1166 5.8876-0.81208 0.91359-2.4362 1.4211-4.974 1.4211h-73.087c-2.8423 0-4.771-0.40604-5.7861-1.2181-0.91359-0.81208-1.4211-2.5378-1.4211-5.0755v-13.602c0-1.5226 0.60906-3.0453 1.8272-4.6695l48.42-69.027h-43.751c-2.5378 0-4.2634-0.50755-4.974-1.4211-0.81208-0.91359-1.1166-2.9438-1.1166-5.8876v-10.05c0-3.0453 0.40604-4.974 1.1166-5.8876 0.81208-0.91359 2.4362-1.4211 4.974-1.4211h70.854c2.8423 0 4.771 0.40604 5.7861 1.2181 0.91359 0.81208 1.4211 2.5378 1.4211 5.0755v13.298c0 0.91359-0.10151 1.6242-0.30453 2.3347s-0.71057 1.5226-1.5226 2.6393l-49.131 69.027h46.695c2.5378 0.10151 4.1619 0.50755 4.974 1.5226zm132.37-135.82c0.10151 0.30453 0.10151 0.81208 0.10151 1.5226 0 2.5378-1.5226 3.8574-4.6695 3.8574h-15.43c-1.2181 0-2.2332-0.10151-2.9438-0.20302s-1.4211-0.40604-2.0302-0.91359c-0.50755-0.50755-1.0151-1.2181-1.5226-2.0302-0.40604-0.9136-0.91359-2.1317-1.3196-3.6544l-5.5831-18.069h-39.69l-5.4815 18.475c-0.40604 1.4211-0.81208 2.6393-1.2181 3.4514-0.40604 0.91359-0.81208 1.5226-1.3196 2.0302-0.60906 0.50755-1.2181 0.81208-2.0302 0.81208-0.81208 0.10151-1.9287 0.20302-3.2483 0.20302h-14.414c-3.1468 0-4.6695-1.3196-4.6695-3.8574 0-1.6242 0.20302-2.7408 0.71057-3.3498l35.224-105.47c0.71057-2.2332 1.5226-3.7559 2.5378-4.4664 1.0151-0.81208 2.6393-1.1166 4.8725-1.1166h19.287c2.2332 0 3.8574 0.40604 4.771 1.1166 1.0151 0.71057 1.8272 2.2332 2.6393 4.568l34.919 105.37c0.20302 0.50755 0.40604 1.1166 0.50755 1.7257zm-39.893-40.807-13.602-44.664-13.298 44.664zm-92.273-38.675c0.60906 3.6544 0.91359 8.6284 0.91359 14.922v22.434c0 5.4815-0.30453 10.05-0.91359 13.704s-1.7257 7.2072-3.2483 10.76c-6.5982 15.43-18.982 23.043-37.051 23.043h-38.168c-2.8423 0-4.771-0.40604-5.6846-1.2181s-1.4211-2.5378-1.4211-5.0755v-105.57c0-2.5378 0.50755-4.2634 1.4211-5.0755 0.91359-0.81208 2.8423-1.2181 5.6846-1.2181h34.006c10.151 0 18.576 1.9287 25.276 5.6846s11.978 9.5419 15.836 17.46c1.7257 3.1468 2.8423 6.5982 3.3498 10.151zm-26.9 13.805c0-8.5268-1.4211-14.617-4.1619-18.373-2.7408-3.6544-7.3087-5.5831-13.602-5.5831h-13.602v71.768h13.602c3.3498 0 6.0906-0.40604 8.4253-1.1166 2.2332-0.81208 4.0604-2.1317 5.4815-3.9589 1.4212-1.9287 2.3347-4.3649 2.9438-7.4102 0.60906-3.0453 0.91359-6.8012 0.91359-11.369z" fill="#fff" stroke-width="1.0151"/>
<path d="m0 514.8h385.59v29.9h-385.59z" fill="#fff" stroke-width="4.1991"/><g transform="matrix(1.1139 0 0 .89773 0 .00044841)" fill="#fff" stroke-width="2.8854" aria-label="BAR"><path d="m413.86 626.17h41.364c15.081 0 25.852-8.0788 25.852-19.928 0-8.1866-5.0628-15.188-13.68-18.851 6.4631-3.1238 10.233-9.3715 10.233-16.589 0-10.772-9.8023-18.635-23.913-18.635h-39.856zm20.79-45.242v-11.203h14.003c4.3087 0 7.4325 2.3698 7.4325 5.6013s-3.1238 5.6013-7.4325 5.6013zm0 27.684v-11.849h17.127c4.5242 0 7.7557 2.4775 7.7557 5.9245s-3.2315 5.9245-7.7557 5.9245z"/><path d="m557.77 626.17h23.59l-28.438-74.002h-23.59l-28.438 74.002h23.59l3.7701-9.9101h25.745zm-23.59-25.314 7.0017-17.989 6.894 17.989z"/><path d="m671.52 626.17-17.666-25.098c9.0483-4.201 14.65-12.495 14.65-23.052 0-15.188-11.741-25.852-28.33-25.852h-35.439v74.002h20.897v-22.298h6.4631l15.619 22.298zm-45.888-55.044h12.818c4.955 0 8.5097 2.9084 8.5097 6.894s-3.5547 6.894-8.5097 6.894h-12.818z"/></g></svg>
