<svg enable-background="new 0 0 1284.176 664" version="1.1" viewBox="0 0 1081 443" xml:space="preserve" xmlns="http://www.w3.org/2000/svg">
	<path d="m236.12 202.45h15.505c1.329 0 2.658 0 3.544-0.22149 0.88599-0.2215 1.5505-0.443 2.215-0.886 0.443-0.443 1.1075-1.1075 1.329-2.215 0.443-0.88599 0.88599-2.215 1.329-3.7655l5.759-19.713h42.528l5.9805 19.492c0.443 1.5505 0.886 2.8795 1.329 3.987 0.443 0.886 1.1075 1.772 1.5505 2.215 0.6645 0.6645 1.329 0.886 2.215 1.1075 0.886 0 1.9935 0.2215 3.101 0.2215h16.612c3.3225 0 4.873-1.329 4.873-3.987v-1.772c0-0.2215-0.2215-0.886-0.6645-1.772l-37.433-113.18c-0.88599-2.4365-1.772-4.2085-2.8795-4.873-1.1075-0.6645-2.8795-1.1075-5.0945-1.1075h-20.599c-2.4365 0-4.2085 0.443-5.316 1.329-1.1075 0.886-1.9935 2.4365-2.658 4.873l-37.655 113.18c-0.443 0.66449-0.6645 1.772-0.6645 3.544 0.2215 2.215 1.772 3.544 5.0945 3.544m50.723-97.24 14.619 47.844h-28.795z" stroke-width=".66717"/>
	<path d="m325.38 240.55h-11.961c-3.101 0-5.0945 0.443-6.202 1.329-1.1075 0.88599-1.5505 2.658-1.5505 5.5375v67.117l-35.218-67.337c-1.329-2.8795-2.8795-4.6515-4.2085-5.5375-1.329-0.6645-3.7655-1.1075-7.088-1.1075h-11.075c-3.101 0-5.0945 0.44299-6.202 1.329-1.1075 0.886-1.5505 2.658-1.5505 5.5375v113.18c0 2.658 0.443 4.43 1.329 5.5375 0.88599 0.886 2.8795 1.329 5.9805 1.329h12.182c3.101 0 5.0945-0.443 6.202-1.329 1.1075-0.88599 1.5505-2.658 1.5505-5.5375v-67.337l35.218 67.557c1.329 2.8795 2.8795 4.6515 4.2085 5.5375 1.329 0.6645 3.7655 1.1075 7.088 1.1075h11.075c3.101 0 5.0945-0.44299 6.202-1.329 1.1075-0.886 1.5505-2.658 1.5505-5.5375v-113.18c0-2.658-0.443-4.43-1.5505-5.5375-0.886-0.886-2.8795-1.329-5.9805-1.329" stroke-width=".66717"/>
	<path d="m118.5 367.25h78.412c2.658 0 4.43-0.443 5.316-1.5505 0.88599-1.1075 1.329-3.101 1.329-6.4235v-10.632c0-3.101-0.443-5.316-1.329-6.202-0.886-1.1075-2.658-1.5505-5.316-1.5505h-50.059l52.717-74.202c0.886-1.1075 1.329-2.215 1.5505-2.8795 0.2215-0.66449 0.443-1.5505 0.443-2.4365v-14.176c0-2.658-0.443-4.43-1.5505-5.5375-1.1075-0.886-3.101-1.329-6.202-1.329h-75.977c-2.658 0-4.43 0.443-5.316 1.5505-0.886 1.1075-1.329 3.101-1.329 6.4235v10.632c0 3.101 0.443 5.316 1.329 6.4235 0.88599 1.1075 2.658 1.5505 5.316 1.5505h46.958l-52.052 74.202c-1.329 1.772-1.9935 3.3225-1.9935 5.0945v14.619c0 2.658 0.443 4.43 1.5505 5.5375 1.1075 0.44299 3.101 0.88599 6.202 0.88599" stroke-width=".66717"/>
	<path d="m118.5 202.45h40.977c19.27 0 32.56-8.1955 39.648-24.808 1.772-3.7655 2.8795-7.531 3.544-11.518 0.6645-3.7655 0.886-8.86 0.886-14.619v-23.922c0-6.645-0.443-12.182-0.886-15.948-0.6645-3.987-1.772-7.531-3.544-11.075-4.2085-8.417-9.746-14.619-17.055-18.606-7.088-3.987-16.169-5.9805-27.023-5.9805h-36.547c-3.101 0-5.0945 0.443-6.202 1.329-0.886 0.6645-1.5505 2.4365-1.5505 5.0945v113.18c0 2.658 0.443 4.43 1.5505 5.5375 1.1075 0.886 3.101 1.329 6.202 1.329m21.485-101.89h14.619c6.8665 0 11.739 1.9935 14.619 5.9805s4.43 10.41 4.43 19.713v25.694c0 4.873-0.443 8.86-1.1075 12.182s-1.772 5.9805-3.101 7.974c-1.5505 1.9935-3.3225 3.3225-5.9805 4.2085-2.4365 0.886-5.5375 1.329-9.0815 1.329h-14.619v-77.084h0.2215z" stroke-width=".66717"/>
	
<path d="m950 133h17.036v-49.792s-17.04 49.794-17.036 49.792zm-3.7229-92.005h63.713v92.005l12 1e-4v28.994h-12v29h-43v-29h-54v-28.994zm-946.28-40.995v196.03l25.479 25.472-25.479 25.694v195.81h857v-219h224v-224l-1081 1.7566e-4zm413.87 184.06-29.246 29.238c-4.4312 4.6515-4.4312 11.961 0 16.391l29.246 29.238v156.16h-386.18v-154.83l30.796-30.788c4.4311-4.43 4.4311-11.961 0-16.391l-30.796-30.567v-154.83h386.18v156.38zm73.074 57.655c-7.0852-9.3397-10.306-16.421-10.306-26.087 0-8.6965 3.2253-17.074 8.6981-24.795l78.926-114.01h76.351l-98.253 139.77h63.785l-99.22 50.565-19.978-25.444zm211.96 66.997-114.04 57.973-24.486-31.237c-6.7635-8.6965-10.306-17.394-10.306-26.733l5e-3 -7e-3v3e-3c0-8.0507 3.2252-16.747 9.0151-25.122l145.29-206.76h84.078l-163.02 231.89h73.448z"/></svg>
