<svg version="1.1" viewBox="0 0 800 339.02" xmlns="http://www.w3.org/2000/svg">
 <g>
  <path d="m270.37 133.71c0 73.843-60.523 133.71-135.18 133.71-74.659 0-135.18-59.862-135.18-133.71 0-73.843 60.523-133.71 135.18-133.71 74.659 0 135.18 59.862 135.18 133.71z" fill="#3282e2" fill-rule="evenodd"/>
  <path d="m490.5 133.71c0 73.843-60.523 133.71-135.18 133.71-74.659 0-135.18-59.862-135.18-133.71s60.523-133.71 135.18-133.71c74.659 0 135.18 59.862 135.18 133.71z" fill="#3282e2" fill-rule="evenodd"/>
  <path d="m444.62 33.897h63.297c4.5483 36.946 10.19 67.016 29.388 112.28 9.5822-14.595 16.359-46.023 24.113-71.586l25.62 77.614c-9.8324 28.622-22.57 56.276-38.43 82.889h-30.141c-41.137-64.862-62.79-132.32-73.847-201.19z" fill="#1d5ba2" Googl="true"/>
  <path d="m564.43 33.897h59.529c-1.024 40.517 15.144 77.199 27.881 113.78 7.3159-21.369 16.546-59.01 27.881-114.54l56.515 1.5071c3.3013 35.189-49.318 178.16-69.326 200.44h-28.634c-41.137-64.862-62.79-132.32-73.847-201.19z" fill="#397fde"/>
  <path d="m700.84 157.63h73.075c14.449 0 26.082 11.632 26.082 26.082v25.847c0 14.449-11.632 26.082-26.082 26.082h-73.075c-14.449 0-26.082-11.632-26.082-26.082v-25.847c0-14.449 11.632-26.082 26.082-26.082z" fill="#185ea4" fill-rule="evenodd"/>
 </g>
 <path d="m57.81 235.85v-201.98h88.118c27.653 2.02e-4 49.68 8.2965 66.082 24.889 17.735 17.542 26.602 42.532 26.602 74.969-2e-4 30.549-7.6278 54.877-22.883 72.983-16.402 19.424-39.669 29.136-69.801 29.136zm44.919-164.64v127.3h40.047c14.493 4e-5 26.224-4.5265 35.193-13.58 10.488-10.561 15.732-26.215 15.733-46.964-1.6e-4 -21.686-4.1967-37.905-12.59-48.656-9.534-12.069-24.981-18.103-46.342-18.103z" fill="#fff" stroke-width="4.004"/>
 <path d="m449.24 101.77h-43.478c-1.3388-9.9969-6.2993-18.39-14.881-25.178-8.5823-6.7883-18.499-10.182-29.75-10.183-18.882 1.72e-4 -33.185 7.1656-42.911 21.496-8.3931 12.259-12.59 28.196-12.59 47.81-6e-5 18.86 4.1964 34.325 12.59 46.394 9.9121 14.147 24.216 21.22 42.911 21.22 13.352 3e-5 24.128-4.2445 32.329-12.734 7.6246-7.9193 12.295-18.762 14.013-32.529h43.487c-2.2876 25.082-11.586 45.119-27.894 60.112-16.309 14.993-36.954 22.489-61.935 22.489-30.709-1e-5 -55.311-10.184-73.809-30.552-17.741-19.424-26.611-44.224-26.611-74.399-1e-5 -30.929 8.8703-56.201 26.611-75.815 18.305-20.552 42.908-30.828 73.809-30.828 23.264 2.07e-4 42.908 6.3167 58.932 18.949 16.786 13.203 26.512 31.119 29.178 53.749z" fill="#fff" stroke-width="4.004"/>
 <g fill="#034275" stroke-width="4.004">
  <path d="m59.352 307.97h11.59v30.143h5.6709v-30.143h11.59v-5.0518h-28.85z"/>
  <path d="m128.08 333.06h-20.653v-10.497h18.745v-5.0518h-18.745v-9.5425h20.319v-5.0518h-25.99v35.195h26.324z"/>
  <path d="m149.98 302.92h-5.6709v35.195h23.032v-5.0518h-17.361z"/>
  <path d="m208.12 333.06h-20.653v-10.497h18.745v-5.0518h-18.745v-9.5425h20.319v-5.0518h-25.99v35.195h26.324z"/>
  <path d="m233.33 332.11h0.67398l-9.7786-29.189h-6.0524l12.635 35.195h5.6709l12.644-35.195h-6.1103z"/>
  <path d="m269.91 302.92h-5.6708v35.195h5.6708z"/>
  <path d="m312.28 313.88c-0.0693-1.6003-0.26923-3.0116-0.59976-4.2339-0.33057-1.2222-0.97313-2.4197-1.9277-3.5925-0.95456-1.1727-2.3678-2.1402-4.2398-2.9022-1.872-0.76202-4.242-1.143-7.1101-1.1431-2.0625 4e-5 -3.8887 0.30114-5.4786 0.90333-1.5899 0.60226-2.8852 1.4284-3.8858 2.4784-1.0006 1.0501-1.7406 2.2367-2.2201 3.5599-0.47951 1.3232-0.71926 2.6969-0.71926 4.121 0 1.4727 0.27067 2.7338 0.81205 3.7833 0.54134 1.0496 1.2165 1.8945 2.0256 2.5348 0.80906 0.64034 1.6256 1.1201 2.4495 1.4392 0.82389 0.3192 1.5758 0.56438 2.2557 0.73558l7.1672 1.6567c1.4509 0.33946 2.6152 0.67102 3.4931 0.99463 0.87782 0.32364 1.5568 0.68338 2.0368 1.0792 0.47996 0.39587 0.82758 0.86598 1.0429 1.4103 0.21526 0.54434 0.32288 1.246 0.32288 2.105-1e-5 1.0431-0.26722 1.9188-0.80164 2.6269-0.53445 0.70812-1.2218 1.2539-2.062 1.6374-0.84026 0.3835-1.7418 0.65147-2.7048 0.80387-0.96297 0.15243-1.9215 0.22863-2.8755 0.22863-1.1342 0-2.2228-0.12841-3.266-0.38522-1.0431-0.25682-1.9954-0.67496-2.857-1.2544-0.86152-0.57945-1.5432-1.3566-2.0449-2.3314-0.50177-0.97482-0.75267-2.3223-0.75265-4.0424h-5.3859c0 2.1852 0.24864 3.9986 0.74596 5.44 0.49732 1.4415 1.467 2.8006 2.9089 4.0772 0.50771 0.44536 1.0379 0.85261 1.5907 1.2218 0.55274 0.36917 1.2316 0.71802 2.0368 1.0466 0.8051 0.32856 1.8017 0.59999 2.9898 0.81426 1.1881 0.21425 2.5487 0.3214 4.0817 0.3214 1.6765 0 3.3067-0.17938 4.8908-0.53814 1.584-0.35876 3.0675-0.94638 4.4506-1.7629 1.383-0.81648 2.4927-1.9442 3.329-3.3832 0.83625-1.439 1.2544-3.1521 1.2544-5.1394-2e-5 -2.685-0.74006-4.8096-2.2201-6.3738-1.4801-1.5642-3.4676-2.6456-5.9626-3.2444l-9.7771-2.2416c-1.1084-0.26323-1.9932-0.68286-2.6543-1.2589-0.66113-0.57597-0.99168-1.4499-0.99166-2.6217-2e-5 -1.1599 0.22959-2.0984 0.68881-2.8154 0.45921-0.71699 1.0572-1.2744 1.7941-1.6723 0.73679-0.39784 1.5092-0.67172 2.3173-0.82169 0.80805-0.14991 1.6411-0.22486 2.4992-0.2249 0.95008 3e-5 1.8886 0.11407 2.8154 0.34218 0.92682 0.22815 1.7661 0.59285 2.5178 1.0941 0.75163 0.5013 1.3635 1.1726 1.8356 2.0138 0.47206 0.84125 0.74571 2.0125 0.82095 3.5139z"/>
  <path d="m334.96 302.92h-5.6709v35.195h5.6709z"/>
  <path d="m379.9 320.52c-2e-5 1.9616-0.2623 3.767-0.78679 5.4163-0.52456 1.6493-1.2824 3.0764-2.2736 4.2814-0.99118 1.205-2.1885 2.1318-3.5918 2.7805-1.4034 0.64874-2.9864 0.97311-4.749 0.97311-1.7676 0-3.3536-0.32436-4.7579-0.97311-1.4044-0.64873-2.5996-1.5649-3.5859-2.7486-0.98622-1.1836-1.7423-2.6113-2.2683-4.2828-0.52602-1.6716-0.78904-3.4871-0.78902-5.4467-2e-5 -2.0041 0.2605-3.8187 0.7816-5.4437 0.52105-1.625 1.2774-3.0403 2.2691-4.2457 0.99166-1.2054 2.1922-2.1337 3.6014-2.785 1.4093-0.65118 2.9923-0.97679 4.749-0.97682 1.7507 3e-5 3.331 0.32564 4.7408 0.97682 1.4098 0.65124 2.6103 1.5714 3.6014 2.7605 0.99113 1.1891 1.7488 2.6083 2.2728 4.2576 0.524 1.6493 0.78603 3.4681 0.78605 5.4564zm5.8149 0c-4e-5 -2.0249-0.29349-4.1047-0.88033-6.2394-0.5869-2.1347-1.5518-4.1354-2.8948-6.0019-1.343-1.8665-3.1435-3.3768-5.4014-4.5308-2.258-1.1539-4.9378-1.7309-8.0394-1.731-3.1066 4e-5 -5.7909 0.57776-8.0528 1.7332-2.2619 1.1555-4.0542 2.664-5.377 4.5256-1.3227 1.8616-2.2844 3.8556-2.8852 5.9819-0.60072 2.1264-0.9011 4.2138-0.9011 6.2624 0 2.0477 0.29221 4.1342 0.87662 6.2595 0.5844 2.1254 1.5479 4.1215 2.8904 5.9886 1.3425 1.867 3.1407 3.3763 5.3948 4.5278 2.254 1.1515 4.9387 1.7272 8.0543 1.7272 3.1116 0 5.7936-0.57575 8.0461-1.7272 2.2525-1.1515 4.0505-2.6605 5.394-4.527 1.3434-1.8665 2.3086-3.8677 2.8955-6.0034 0.58685-2.1357 0.88029-4.2175 0.88033-6.2454z"/>
  <path d="m424.2 330.58h0.72444l-17.122-27.663h-6.3048v35.195h5.5284v-27.663h-0.74077l17.409 27.663h6.0346v-35.195h-5.5284z"/>
 </g>
 <path d="m706.04 199.68-12.158-2.8058 6.7806-26.187h30.629v11.691h-23.849l-1.6367 5.1439s3.8019-1.5164 10.755-1.6367c8.2325-0.14246 18.024 2.066 18.705 16.133 0.46346 9.5805-8.4118 20.809-19.874 20.809-19.28 0-20.108-17.068-20.108-17.068h11.457s3.6942 4.6762 6.3129 4.6762c5.7507 0 9.5864-1.976 9.5864-7.7158 0-5.4397-5.0956-7.6751-9.1187-7.9496-4.6212-0.31532-7.482 4.9101-7.482 4.9101z" fill="#fff"/>
 <path d="m758.53 170.03c-15.546 0-23.148 11.688-23.148 26.151s7.3679 26.151 23.148 26.151c14.611 0 23.023-11.688 23.023-26.151s-6.5413-26.151-23.023-26.151zm0 11.136c8.1291 0 11.386 6.7193 11.386 15.015s-4.1797 15.015-11.386 15.015c-7.7832 0-11.386-6.7193-11.386-15.015s3.7184-15.015 11.386-15.015z" fill="#fff" fill-rule="evenodd"/>
</svg>
