<svg Googl="true" version="1.1" viewBox="0 0 852 434" xmlns="http://www.w3.org/2000/svg">
 <g fill-rule="evenodd">
  <path d="m0 209.09v31.5h53.672v149.94h36.54v-149.94h53.43v-31.5zm152.962 34.02h34.02v-34.02h-34.02zm0 54.18h-25.2v93.24h34.02v-93.24h25.2v-35.28h-34.02zm47.88-54.18h34.02v-34.02h-34.02zm0 113.4h-25.2v36.288c0 8.316-2.52 11.592-11.09 11.592h-11.59v28.98h19.15c26.97 0 37.55-13.86 37.55-38.304v-38.556h25.2v-94.5h-34.02zm171.11-147.42v70.056h-1.76c-9.08-13.356-22.94-19.908-37.81-19.908-33.51 0-55.94 28.476-55.94 67.284h-32.76c0 38.052 22.43 66.78 55.95 66.78 16.12 0 30.24-8.064 39.06-22.68h2.01v19.908h32.51v-64.008h32.76v-117.432zm0 117.432h-32.76c0 24.444-10.33 39.06-30.74 39.06-20.16 0-30.5-13.86-30.5-39.06h32.76c0-25.704 10.34-39.564 30.5-39.564 20.41 0 30.74 14.616 30.74 39.564zm49.14 64.008h34.02v-181.44h-34.02zm113.14 2.772c39.06 0 66.03-28.476 66.03-67.032s-26.97-67.032-66.03-67.032-66.53 28.476-66.53 67.032 27.47 67.032 66.53 67.032zm0-26.964c-21.42 0-32.25-14.112-32.25-40.068 0-25.704 10.83-40.068 32.25-40.068 20.92 0 31.75 14.364 31.75 40.068 0 25.956-10.83 40.068-31.75 40.068zm73.58 24.192h111.39v-27.216h-41.58c-10.59 0-19.41.504-29.74 2.016l-.5-2.52c9.32-6.552 19.15-16.38 26.71-25.2l41.83-48.384v-27.216h-105.34v27.216h37.8c9.08 0 19.41-.504 28.48-2.016l.76 2.52c-8.82 6.3-19.41 16.884-26.72 25.2l-43.09 48.888zm243.94-54.936c.25-4.284.25-8.316.25-12.348 0-37.8-24.19-64.008-62.24-64.008-37.3 0-64.26 28.728-64.26 67.032 0 37.8 27.46 67.032 64 67.032 33.02 0 53.68-16.128 60.23-40.572h-32.76c-3.78 8.064-10.58 14.364-26.71 14.364-17.39 0-28.22-11.592-30.74-31.5zm-62.25-50.4c16.13 0 25.2 9.828 27.98 27.216h-57.21c3.28-17.388 13.11-27.216 29.23-27.216z"/>
  <path d="m93.242 0h-68.042v117.432h-25.2v64.008h68.042c42.84 0 73.33-24.444 82.65-64.008h25.2c2.02-8.317 3.03-17.137 3.03-26.713 0-54.431-33.52-90.719-85.68-90.719zm19.15 117.432c-6.05 20.916-21.42 32.508-47.63 32.508h-28.222v-32.508h25.202v-85.932h28.22c35.03 0 51.16 20.664 51.16 59.219 0 10.08-1.01 18.901-3.53 26.713zm200.34 9.071c.25-4.284.25-8.315.25-12.348 0-37.799-24.19-64.008-62.24-64.008-37.3 0-64.26 28.729-64.26 67.033 0 37.8 27.47 67.031 64.01 67.031 33.01 0 53.67-16.127 60.22-40.571h-32.76c-3.78 8.064-10.58 14.363-26.71 14.363-17.39 0-28.22-11.591-30.74-31.5zm-62.24-50.399c16.12 0 25.2 9.828 27.97 27.215h-57.21c3.28-17.387 13.11-27.215 29.24-27.215z"/>
 </g>
</svg>
