<svg data-name="Layer 1" version="1.1" viewBox="0 0 800 402.45" xmlns="http://www.w3.org/2000/svg">
 <defs>
  <style>.cls-1 {
        fill: #fff;
      }</style>
 </defs>
 <g transform="scale(.95024)">
  <path class="cls-1" d="m808.07 306.95h33.82c-4.47 23.83-25.53 38.93-51.91 38.93-38.5 0-55.95-30-55.95-55.31s15.32-55.31 53.82-55.31c40.63 0 54.03 30.63 54.03 53.18 0 4.89-0.21 7.87-0.43 10.42h-73.82c2.13 11.91 9.57 18.72 22.34 18.72 9.57 0 16.17-3.41 18.08-10.64m-40.42-28.93h39.57c-0.64-9.15-7.23-17.87-19.36-17.87-11.28 0-17.87 4.89-20.21 17.87"/>
  <path class="cls-1" d="m254.76 223.77h-36.59v-34.46h36.59zm-35.95 13.19h35.1v107.22h-35.1z"/>
  <path class="cls-1" d="m273.05 236.96h34.89v149h-34.89zm36.17-13.19h-36.59v-34.46h36.59z"/>
  <path class="cls-1" d="m321.77 290.57c0-34.25 19.36-55.31 49.57-55.31 12.55 0 21.49 4.04 27.23 10.21v-56.16h35.1v154.87h-35.1v-9.15c-5.74 7.02-15.53 10.85-26.59 10.85-30.85 0-50.21-21.06-50.21-55.31m78.71 0c0-15.32-8.93-25.53-22.34-25.53s-22.12 10.21-22.12 25.53 8.93 25.53 22.12 25.53 22.34-10.21 22.34-25.53"/>
  <path class="cls-1" d="m456.64 189.31h35.1v154.87h-35.1z" fill="#fff"/>
  <path class="cls-1" d="m507.48 290.57c0-31.7 24.04-55.31 57.44-55.31s57.44 23.61 57.44 55.31-24.04 55.31-57.44 55.31-57.44-23.61-57.44-55.31m79.78 0c0-15.32-8.94-25.53-22.34-25.53s-22.34 10.21-22.34 25.53 8.94 25.53 22.34 25.53 22.34-10.21 22.34-25.53"/>
  <path class="cls-1" d="m723.19 265.9-51.27 49.35h54.46v28.93h-94.88v-28.93l51.69-49.35h-47.86v-28.94h87.86z" fill="#fff"/>
  <path class="cls-1" d="m91.99 218.81-49.47-3.35v-44.02l124.7 15.6v36.86l-39.52-2.68v131.5l-35.7 4.47v-138.38zm-91.99-107.51v312.22l194.28-37.46v-237.29z"/>
  <path class="cls-1" d="m296.29 0h52.76c40.63 0 78.07 22.34 78.07 74.46s-37.44 74.46-78.07 74.46h-52.76zm48.29 116.58c22.55 0 44.46-9.57 44.46-42.12s-21.91-42.12-44.46-42.12h-10.42v84.24z"/>
  <path class="cls-1" d="m511.78 112.92h33.82c-4.47 23.83-25.53 38.93-51.91 38.93-38.51 0-55.95-30-55.95-55.31s15.32-55.31 53.82-55.31c40.63 0 54.03 30.63 54.03 53.18 0 4.89-0.21 7.87-0.42 10.42h-73.82c2.13 11.91 9.57 18.72 22.34 18.72 9.57 0 16.17-3.41 18.08-10.64m-40.42-28.93h39.57c-0.64-9.15-7.23-17.87-19.36-17.87-11.28 0-17.87 4.89-20.21 17.87"/>
 </g>
</svg>
