<svg width="600" height="343.54" version="1.1" viewBox="0 0 158.75 90.894629" xmlns="http://www.w3.org/2000/svg">
 <g transform="translate(-28.485 -142.51)">
  <path d="m73.932 142.51c-25.1 0-45.447 20.347-45.447 45.447 0 25.1 20.347 45.447 45.447 45.447 13.488 0 25.604-5.8763 33.928-15.208 8.3233 9.332 20.439 15.208 33.928 15.208 25.1 0 45.447-20.347 45.447-45.447 0-25.1-20.347-45.447-45.447-45.447-13.488 0-25.604 5.8763-33.928 15.208-8.3233-9.3319-20.439-15.208-33.928-15.208zm0 9.9416c19.609 0 35.506 15.896 35.506 35.506 0 19.609-15.896 35.506-35.506 35.506-19.609 0-35.506-15.896-35.506-35.506 0-19.609 15.896-35.506 35.506-35.506zm-19.291 18.251v35.111h23.345c10.644 0 19.06-6.5724 19.06-17.556-1.3e-5 -10.983-8.8102-17.556-19.06-17.556zm63.343 2.446h10.484l4.7193 16.303 5.893-16.303h7.974l5.893 16.377 4.7193-16.377h10.484l-9.8331 31.087h-9.0046l-6.2825-15.169-6.3664 15.169h-8.8468zm-52.218 7.7028h10.578c5.627 0 8.8665 2.7177 8.8666 7.4858 0 4.7334-3.0445 7.2491-8.7088 7.2491h-10.736z" fill="#fff"/>
 </g>
</svg>
