<svg version="1.1" viewBox="0 0 800 285.39" xmlns="http://www.w3.org/2000/svg">
 <defs>
  <style>.cls-1{fill:#4b4846;}.cls-2{fill:#215aa8;}</style>
 </defs>
 <g transform="scale(2.3974)" stroke-width=".41712" data-name="Capa 2">
  <g stroke-width=".41712" data-name="Capa 1">
   <path class="cls-1" d="m261.76 0v81h12.08l2.57-9.07h57.29v-71.93zm63 23.79-16.76 35.37h-3.72l-13.35-28.25h-5.35v16.3c0 3.49 1.58 4.51 3.87 4.51a10.61 10.61 0 0 0 5.94-1.82l2.77 6.49a19.31 19.31 0 0 1-10.68 3.25c-6.34 0-10.48-3.64-10.48-11.56v-17.17l-6.25-0.47v-6.89h6.25l0.24-11.32h8.39v11.32h11.49l6.88 15.83a39 39 0 0 1 2.17 6.62 46.45 46.45 0 0 1 2.21-6.65l6.89-15.83h9.49z"/>
   <path class="cls-2" d="m75.67 0v116.93h-12.08l-3.06-10.79c-5.79 7.86-14.65 12.56-25.92 12.56-20.61 0-34.61-15.45-34.61-38.15 0-21.55 14.49-37.19 34.61-37.19 9.66 0 18.36 3.86 24 10.3-0.32-6.6-0.48-12.72-0.48-20.61v-33.05zm-16.91 81c0-13.2-8.21-22.22-20.6-22.22-12.24 0-20.45 9-20.45 22.22 0 13.36 8.21 22.38 20.45 22.38 12.55 0.03 20.6-8.99 20.6-22.38z"/>
   <path class="cls-2" d="m89.68 19.69c0-5.8 4.18-10.46 10.94-10.46s10.95 4.66 10.95 10.62c0 5.8-4.35 10.3-10.95 10.3-6.76 0-10.94-4.66-10.94-10.46zm2.09 25.44h17.55v71.8h-17.55z"/>
   <path class="cls-2" d="m190.62 78.45a79.87 79.87 0 0 1-0.64 8.38h-51.52c2.25 11.59 11.27 17.7 22.86 17.7 8.21 0 14-2.41 19-6.76l7.4 11.27a42.33 42.33 0 0 1-28 10c-23 0-38.8-15.61-38.8-38.15 0-21.09 15.29-37.67 37-37.67 20.3-0.02 32.7 13.66 32.7 35.23zm-52-3.54h35.38c-0.48-11.43-7.25-17.39-16.42-17.39-9.46 0-17.03 6.28-18.96 17.39z"/>
   <path class="cls-2" d="m252.77 101.8v15.13h-56.83v-5l26.72-43.93c1.61-2.74 3.06-5 4.83-7.89-4 0.16-5.79 0.16-8.85 0.16h-21.25v-15.14h54.9v5l-25 41.21c-2.09 3.54-4.18 6.93-6.76 10.63 4.51-0.16 7.73-0.16 11.43-0.16z"/>
  </g>
 </g>
</svg>
