<svg width="200mm" height="173.495" viewBox="0 0 200 45.904" xmlns="http://www.w3.org/2000/svg">
    <defs>
        <clipPath id="K">
            <path d="M609 511h7v11h-7z"/>
        </clipPath>
        <clipPath id="L">
            <path d="M609.64 512.48l-.176 8.91c.004.262.176.43.43.43h5.402c.258 0 .434-.168.43-.43l-.238-9.601z"/>
        </clipPath>
        <linearGradient id="M" x1=".85" x2=".938" gradientTransform="translate(549.22 516.81) scale(70.872)" gradientUnits="userSpaceOnUse">
            <stop stop-color="#cfcfcf" offset="0"/>
            <stop stop-color="#cfcfcf" offset=".5"/>
            <stop stop-color="#d0d0d0" offset="1"/>
        </linearGradient>
        <clipPath id="N">
            <path d="M582 514h26v8h-26z"/>
        </clipPath>
        <clipPath id="O">
            <path d="M601.97 514.79c-.262 0-.426.176-.426.43l-.11 5.148s-5.679.012-7.53.012c-1.856 0-4.97-1.551-4.97-4.914 0-.196.013-.383.028-.567l-6.152.762c.12 3.453 2.836 6.145 6.32 6.145h18.133c.262 0 .43-.172.43-.434l-.117-6.152c-.004-.258-.176-.434-.434-.434z"/>
        </clipPath>
        <linearGradient id="P" x1=".489" x2=".836" gradientTransform="translate(547.78 518.29) scale(71.64)" gradientUnits="userSpaceOnUse">
            <stop stop-color="#c8c8c8" offset="0"/>
            <stop stop-color="#c8c8c8" offset=".125"/>
            <stop stop-color="#c9c9c9" offset=".25"/>
            <stop stop-color="#cacaca" offset=".375"/>
            <stop stop-color="#cbcbcb" offset=".5"/>
            <stop stop-color="#ccc" offset=".625"/>
            <stop stop-color="#cdcdcd" offset=".75"/>
            <stop stop-color="#cdcdcd" offset=".875"/>
            <stop stop-color="#cecece" offset="1"/>
        </linearGradient>
        <clipPath id="Q">
            <path d="M574 515h8v7h-8z"/>
        </clipPath>
        <clipPath id="R">
            <path d="M574.88 516.6l-.133 4.785c-.004.262.168.434.43.434h5.402c.258 0 .43-.172.43-.434l-.074-5.5z"/>
        </clipPath>
        <linearGradient id="S" x1=".374" x2=".467" gradientTransform="translate(549.49 518.85) scale(67.531)" gradientUnits="userSpaceOnUse">
            <stop stop-color="#c5c5c5" offset="0"/>
            <stop stop-color="#c6c6c6" offset=".5"/>
            <stop stop-color="#c7c7c7" offset="1"/>
        </linearGradient>
        <clipPath id="T">
            <path d="M547.79 507h27.215v17H547.79z"/>
        </clipPath>
        <clipPath id="U">
            <path d="M548 516h25v6h-25z"/>
        </clipPath>
        <clipPath id="V">
            <path d="M566.42 517.53c-.77 1.535-2.36 2.867-4.313 2.867h-7.421l-.055-1.41-6.172.754-.04 1.656c0 .258.18.43.434.43h17.91c3.094 0 5.45-2.09 6.063-5.004z"/>
        </clipPath>
        <linearGradient id="W" x1=".041" x2=".384" gradientTransform="translate(545.52 519.32) scale(71.125)" gradientUnits="userSpaceOnUse">
            <stop stop-color="silver" offset="0"/>
            <stop stop-color="silver" offset=".031"/>
            <stop stop-color="#c1c1c1" offset=".063"/>
            <stop stop-color="#c1c1c1" offset=".094"/>
            <stop stop-color="#c2c2c2" offset=".125"/>
            <stop stop-color="#c2c2c2" offset=".156"/>
            <stop stop-color="#c3c3c3" offset=".188"/>
            <stop stop-color="#c4c4c4" offset=".219"/>
            <stop stop-color="#c4c4c4" offset=".25"/>
            <stop stop-color="#c5c5c5" offset=".281"/>
            <stop stop-color="#c5c5c5" offset=".313"/>
            <stop stop-color="#c6c6c6" offset=".344"/>
            <stop stop-color="#c6c6c6" offset=".375"/>
            <stop stop-color="#c7c7c7" offset=".406"/>
            <stop stop-color="#c7c7c7" offset=".438"/>
            <stop stop-color="#c8c8c8" offset=".469"/>
            <stop stop-color="#c8c8c8" offset=".5"/>
            <stop stop-color="#c9c9c9" offset=".531"/>
            <stop stop-color="#c9c9c9" offset=".563"/>
            <stop stop-color="#cacaca" offset=".594"/>
            <stop stop-color="#cacaca" offset=".625"/>
            <stop stop-color="#cbcbcb" offset=".656"/>
            <stop stop-color="#ccc" offset=".688"/>
            <stop stop-color="#ccc" offset=".719"/>
            <stop stop-color="#cdcdcd" offset=".75"/>
            <stop stop-color="#cdcdcd" offset=".781"/>
            <stop stop-color="#cecece" offset=".813"/>
            <stop stop-color="#cecece" offset=".844"/>
            <stop stop-color="#cfcfcf" offset=".875"/>
            <stop stop-color="#cfcfcf" offset=".906"/>
            <stop stop-color="#d0d0d0" offset=".938"/>
            <stop stop-color="#d0d0d0" offset=".969"/>
            <stop stop-color="#d1d1d1" offset="1"/>
        </linearGradient>
        <clipPath id="g">
            <path d="M567.86 321.93h63.865v68.013H567.86z"/>
        </clipPath>
        <clipPath id="h">
            <path d="M567.86 356.55c0-17.598 14.266-31.863 31.864-31.863 17.599 0 31.865 14.265 31.865 31.863 0 17.599-14.266 31.865-31.865 31.865-17.598 0-31.864-14.266-31.864-31.865"/>
        </clipPath>
        <mask id="i" x="0" y="0" width="1" height="1" maskUnits="userSpaceOnUse">
            <g clip-path="url(#a)">
                <path d="M576.05 409.74l76.865-29.508-29.508-76.865-76.865 29.508z" fill="url(#b)"/>
            </g>
        </mask>
        <clipPath id="a">
            <path d="M-1702.9 2554.2h4471.5v-4471.5h-4471.5z"/>
        </clipPath>
        <linearGradient id="b" x2="1" gradientTransform="scale(35.408 -35.408) rotate(21.001 36.067 38.308)" gradientUnits="userSpaceOnUse">
            <stop stop-color="#fff" offset="0"/>
            <stop stop-color="#fff" stop-opacity="0" offset="1"/>
        </linearGradient>
        <linearGradient id="j" x2="1" gradientTransform="scale(35.408 -35.408) rotate(21.001 36.067 38.308)" gradientUnits="userSpaceOnUse">
            <stop stop-color="#252971" offset="0"/>
            <stop stop-color="#080619" offset="1"/>
        </linearGradient>
        <clipPath id="k">
            <path d="M583.87 384.15c-10.331-6.01-14.577-17.194-12.871-18.865 1.499-1.47 3.518-.812 5.527.648 4.161 3.024 8.875 9.999 12.656 12.554 5.981 4.04 13.067 5.446 16.41 5.322 2.882-.108 7.016-.795 8.358-.546 1.645.305.956 1.297.103 1.876-.899.612-6.354 2.123-8.597 2.684-1.56.391-3.268.564-5.036.564-6.008 0-12.7-1.997-16.55-4.237"/>
        </clipPath>
        <mask id="l" x="0" y="0" width="1" height="1" maskUnits="userSpaceOnUse">
            <g clip-path="url(#c)">
                <path d="M579.8 344.42l-20.797 38.389 46.088 24.967 20.797-38.389z" fill="url(#d)"/>
            </g>
        </mask>
        <clipPath id="c">
            <path d="M-1702.9 2554.2h4471.5v-4471.5h-4471.5z"/>
        </clipPath>
        <radialGradient id="d" cx="0" cy="0" r="1" gradientTransform="matrix(-14.642 27.028 27.028 14.642 600.02 357.8)" gradientUnits="userSpaceOnUse">
            <stop stop-color="#fff" stop-opacity=".5" offset="0"/>
            <stop stop-color="#fff" stop-opacity=".5" offset=".716"/>
            <stop stop-color="#fff" stop-opacity=".05" offset="1"/>
        </radialGradient>
        <radialGradient id="m" cx="0" cy="0" r="1" gradientTransform="matrix(-14.642 27.028 27.028 14.642 600.02 357.8)" gradientUnits="userSpaceOnUse">
            <stop stop-color="#fff" offset="0"/>
            <stop stop-color="#fff" offset=".716"/>
            <stop stop-color="#fff" offset="1"/>
        </radialGradient>
        <linearGradient id="n" x2="1" gradientTransform="scale(-22.39 22.39) rotate(-40.484 9.806 44.435)" gradientUnits="userSpaceOnUse">
            <stop stop-color="#131b48" offset="0"/>
            <stop stop-color="#161a46" offset=".496"/>
            <stop stop-color="#2e3c7f" offset="1"/>
        </linearGradient>
        <linearGradient id="o" x2="1" gradientTransform="scale(-6.042 6.042) rotate(53.033 -110.103 -66.59)" gradientUnits="userSpaceOnUse">
            <stop stop-color="#17317a" offset="0"/>
            <stop stop-color="#3369a5" offset=".784"/>
            <stop stop-color="#3369a5" offset="1"/>
        </linearGradient>
        <clipPath id="p">
            <path d="M567.86 321.93h63.865v68.013H567.86z"/>
        </clipPath>
        <clipPath id="q">
            <path d="M575.39 382h17.379v-14.321H575.39z"/>
        </clipPath>
        <clipPath id="r">
            <path d="M580.95 378.14c-3.119-2.559-5.293-5.922-5.541-8.568-.053-.571-.011-1.092.122-1.548a.99.99 0 0 1 .756-.345h.017c.402.003.894.215 1.47.686 1.768 1.445 3.047 3.571 5.504 5.993 4.992 4.923 6.694 6.464 9.488 6.748-.621.586-1.573.895-2.779.895-2.673 0-6.137-1.479-9.037-3.861"/>
        </clipPath>
        <mask id="s" x="0" y="0" width="1" height="1" maskUnits="userSpaceOnUse">
            <g clip-path="url(#e)">
                <path d="M575.36 382h17.409v-14.491H575.36z" fill="url(#f)"/>
            </g>
        </mask>
        <clipPath id="e">
            <path d="M-1702.9 2554.2h4471.5v-4471.5h-4471.5z"/>
        </clipPath>
        <radialGradient id="f" cx="0" cy="0" r="1" fx=".661" fy=".751" gradientTransform="matrix(19.248 0 0 -19.248 593.63 363.38)" gradientUnits="userSpaceOnUse">
            <stop stop-color="#fff" stop-opacity=".3" offset="0"/>
            <stop stop-color="#fff" stop-opacity=".3" offset=".901"/>
            <stop stop-color="#fff" stop-opacity=".9" offset="1"/>
        </radialGradient>
        <radialGradient id="t" cx="0" cy="0" r="1" fx=".661" fy=".751" gradientTransform="matrix(19.248 0 0 -19.248 593.63 363.38)" gradientUnits="userSpaceOnUse">
            <stop stop-color="#4f7be6" offset="0"/>
            <stop stop-color="#4f7be6" offset=".901"/>
            <stop stop-color="#8ee2ff" offset="1"/>
        </radialGradient>
        <linearGradient id="u" x2="1" gradientTransform="scale(9.8254 -9.8254) rotate(53 68.2 40.054)" gradientUnits="userSpaceOnUse">
            <stop stop-color="#8ee2ff" offset="0"/>
            <stop stop-color="#8ee2ff" offset=".011"/>
            <stop stop-color="#8ee2ff" offset=".339"/>
            <stop stop-color="#214bb1" offset="1"/>
        </linearGradient>
        <clipPath id="v">
            <path d="M567.86 321.93h63.865v68.013H567.86z"/>
        </clipPath>
        <linearGradient id="w" x2="1" gradientTransform="scale(40.093 -40.093) rotate(44.706 19.39 13.381)" gradientUnits="userSpaceOnUse">
            <stop stop-color="#0e1523" offset="0"/>
            <stop stop-color="#2f4664" offset=".5"/>
            <stop stop-color="#26385a" offset="1"/>
        </linearGradient>
        <linearGradient id="x" x2="1" gradientTransform="scale(42.31 -42.31) rotate(42.878 18.873 13.425)" gradientUnits="userSpaceOnUse">
            <stop stop-color="#162238" offset="0"/>
            <stop stop-color="#428199" offset=".429"/>
            <stop stop-color="#3e5f95" offset="1"/>
        </linearGradient>
        <clipPath id="y">
            <path d="M567.86 321.93h63.865v68.013H567.86z"/>
        </clipPath>
        <linearGradient id="z" x2="1" gradientTransform="matrix(34.193 0 0 -34.193 596.38 377.46)" gradientUnits="userSpaceOnUse">
            <stop stop-color="#5eb9d8" offset="0"/>
            <stop stop-color="#346f82" offset=".291"/>
            <stop stop-color="#346f82" offset=".454"/>
            <stop stop-color="#6fb9d4" offset=".695"/>
            <stop stop-color="#254e63" offset=".883"/>
            <stop stop-color="#428199" offset=".957"/>
            <stop stop-color="#428199" offset="1"/>
        </linearGradient>
        <linearGradient id="A" x2="1" gradientTransform="matrix(-5.6286 -22.89 -22.89 5.6286 620.17 389.44)" gradientUnits="userSpaceOnUse">
            <stop stop-color="#2a6372" offset="0"/>
            <stop stop-color="#2a6372" offset=".128"/>
            <stop stop-color="#5fb5d3" offset=".369"/>
            <stop stop-color="#5fb5d3" offset="1"/>
        </linearGradient>
        <linearGradient id="B" x2="1" gradientTransform="scale(16.643 -16.643) rotate(7.94 180.965 254.574)" gradientUnits="userSpaceOnUse">
            <stop stop-color="#6dc2d3" offset="0"/>
            <stop stop-color="#6dc2d3" offset=".138"/>
            <stop stop-color="#7bd1e6" offset=".347"/>
            <stop stop-color="#7bd1e6" offset=".603"/>
            <stop stop-color="#7bd1e6" offset=".721"/>
            <stop stop-color="#58acc6" offset=".965"/>
            <stop stop-color="#58acc6" offset="1"/>
        </linearGradient>
        <clipPath id="C">
            <path d="M595.31 347.75h30.084v-22.059H595.31z"/>
        </clipPath>
        <linearGradient id="D" x2="1" gradientTransform="matrix(27.582 22.756 22.756 -27.582 597.68 323.59)" gradientUnits="userSpaceOnUse">
            <stop stop-color="#1b2747" offset="0"/>
            <stop stop-color="#30507d" offset=".358"/>
            <stop stop-color="#2a3d6b" offset=".688"/>
            <stop stop-color="#375788" offset="1"/>
        </linearGradient>
        <clipPath id="E">
            <path d="M595.31 347.75h30.084v-21.227H595.31z"/>
        </clipPath>
        <linearGradient id="F" x2="1" gradientTransform="matrix(29.512 24.742 24.742 -29.512 594.81 323.47)" gradientUnits="userSpaceOnUse">
            <stop stop-color="#334879" offset="0"/>
            <stop stop-color="#547cb9" offset=".511"/>
            <stop stop-color="#334879" offset="1"/>
        </linearGradient>
        <radialGradient id="G" cx="0" cy="0" r="1" gradientTransform="matrix(27.241 0 0 -26.149 604.04 349.62)" gradientUnits="userSpaceOnUse">
            <stop stop-color="#5fd2ff" offset="0"/>
            <stop stop-color="#5fd2ff" offset=".472"/>
            <stop stop-color="#5fd2ff" offset=".637"/>
            <stop stop-color="#104563" offset="1"/>
        </radialGradient>
        <clipPath id="H">
            <path d="M567.86 321.93h63.865v68.013H567.86z"/>
        </clipPath>
        <linearGradient id="I" x1="296.32" x2="297.35" y1="-29.597" y2="-28.534" gradientTransform="translate(-6681.9 2551.6) scale(.32433)" gradientUnits="userSpaceOnUse">
            <stop stop-color="#ababab" offset="0"/>
            <stop stop-color="#ababab" stop-opacity="0" offset="1"/>
        </linearGradient>
        <linearGradient id="J" x1="608.25" x2="612.4" y1="343.24" y2="339.09" gradientTransform="matrix(1.5859 0 0 -1.5859 -7528.5 3139.9)" gradientUnits="userSpaceOnUse">
            <stop stop-opacity="0" offset="0"/>
            <stop offset="1"/>
        </linearGradient>
    </defs>
    <g transform="matrix(.6907 0 0 -.6907 -236.27 269.049)" clip-path="url(#g)">
        <path d="M631.59 356.55c0-17.598-14.266-31.864-31.864-31.864s-31.864 14.266-31.864 31.864 14.266 31.864 31.864 31.864 31.864-14.266 31.864-31.864" fill="#080619"/>
    </g>
    <g transform="matrix(.6907 0 0 -.6907 -236.27 269.049)" clip-path="url(#h)">
        <g mask="url(#i)">
            <path d="M567.86 356.55c0-17.598 14.266-31.863 31.864-31.863 17.599 0 31.865 14.265 31.865 31.863 0 17.599-14.266 31.865-31.865 31.865-17.598 0-31.864-14.266-31.864-31.865" fill="url(#j)"/>
        </g>
    </g>
    <g transform="matrix(.6907 0 0 -.6907 -236.27 269.049)" clip-path="url(#k)">
        <g mask="url(#l)">
            <path d="M583.87 384.15c-10.331-6.01-14.577-17.194-12.871-18.865 1.499-1.47 3.518-.812 5.527.648 4.161 3.024 8.875 9.999 12.656 12.554 5.981 4.04 13.067 5.446 16.41 5.322 2.882-.108 7.016-.795 8.358-.546 1.645.305.956 1.297.103 1.876-.899.612-6.354 2.123-8.597 2.684-1.56.391-3.268.564-5.036.564-6.008 0-12.7-1.997-16.55-4.237" fill="url(#m)"/>
        </g>
    </g>
    <path d="M581.46 377.1c-4.636-3.805-6.066-8.372-4.18-10.626 1.638-1.955 5.946-.713 10.599 3.071 5.482 4.458 7.323 8.19 5.458 10.463-.615.749-1.611 1.101-2.837 1.101-2.492-.001-5.933-1.459-9.04-4.009" fill="url(#n)" transform="matrix(.6907 0 0 -.6907 -236.27 269.049)"/>
    <path d="M580.91 378.19c-4.635-3.806-6.793-8.964-4.906-11.217 1.637-1.956 6.742.242 11.395 4.026 5.481 4.458 7.505 7.644 5.64 9.917-.639.777-1.717 1.149-3.048 1.149-2.554-.001-6.031-1.373-9.081-3.875" fill="url(#o)" transform="matrix(.6907 0 0 -.6907 -236.27 269.049)"/>
    <g transform="matrix(.6907 0 0 -.6907 -236.27 269.049)" clip-path="url(#p)">
        <g clip-path="url(#q)">
            <g mask="url(#s)" clip-path="url(#r)">
                <path d="M580.95 378.14c-3.119-2.559-5.293-5.922-5.541-8.568-.053-.571-.011-1.092.122-1.548a.99.99 0 0 1 .756-.345h.017c.402.003.894.215 1.47.686 1.768 1.445 3.047 3.571 5.504 5.993 4.992 4.923 6.694 6.464 9.488 6.748-.621.586-1.573.895-2.779.895-2.673 0-6.137-1.479-9.037-3.861" fill="url(#t)"/>
            </g>
        </g>
    </g>
    <path d="M580.87 378.25c-3.144-2.582-5.339-5.982-5.59-8.663-.101-1.086.132-2.002.675-2.65.418-.5 1.064-.754 1.922-.754 2.284 0 5.95 1.828 9.567 4.77 4.116 3.347 6.126 5.833 6.327 7.827.081.804-.147 1.541-.677 2.186-.63.768-1.702 1.173-3.1 1.173-2.704 0-6.2-1.49-9.124-3.889m-4.811-11.226c-.519.619-.741 1.501-.643 2.551.248 2.646 2.422 6.009 5.541 8.568 2.9 2.382 6.364 3.861 9.037 3.861 1.356 0 2.391-.389 2.995-1.125.513-.625.724-1.307.646-2.086-.194-1.928-2.247-4.457-6.277-7.734-3.594-2.923-7.227-4.739-9.481-4.739-.816 0-1.427.237-1.818.704" fill="url(#u)" transform="matrix(.6907 0 0 -.6907 -236.27 269.049)"/>
    <g transform="matrix(.6907 0 0 -.6907 -236.27 269.049)" clip-path="url(#v)">
        <path d="M629.18 365.49c-.575-.541-2.317-.132-3.866 1.114-1.495 1.203-3.176 2.818-5.072 5.118-2.941 3.566-6.46 8.37-9.598 11.713-2.146 2.285 5.958.313 8.911-2.247 8.233-7.138 11.149-14.265 9.625-15.698" fill="#253554"/>
    </g>
    <path d="M598.59 388.52c-.048-.078 1.433-.114 3.661-.615 3.042-.682 5.89-2.542 8.189-4.673 3.455-3.202 7.066-7.873 10.007-11.44 1.896-2.3 4.124-4.119 5.618-5.322 1.548-1.247 2.745-1.723 3.321-1.183 1.523 1.433-1.597 8.765-9.83 15.904-2.953 2.558-9.472 6.075-14.506 7.386-.932.242-2.199.337-3.366.337-1.57 0-2.957-.172-3.094-.394" fill="url(#w)" transform="matrix(.6907 0 0 -.6907 -236.27 269.049)"/>
    <path d="M598.59 388.52c-.048-.078 1.433-.114 3.661-.615 3.042-.682 5.89-2.542 8.189-4.673 3.455-3.202 7.066-7.873 10.007-11.44 1.896-2.3 4.124-4.119 5.618-5.322 1.548-1.247 2.745-1.723 3.321-1.183.505.476.498 1.603-.037 3.157.467-1.448.451-2.498-.032-2.952-.575-.541-1.771.004-3.321 1.251-1.494 1.202-3.653 3.022-5.549 5.322-2.941 3.566-6.621 8.237-10.076 11.439-2.298 2.132-5.145 3.924-8.187 4.607-1.587.356-2.794.477-3.341.544-.135-.041-.223-.087-.253-.135" fill="url(#x)" transform="matrix(.6907 0 0 -.6907 -236.27 269.049)"/>
    <g transform="matrix(.6907 0 0 -.6907 -236.27 269.049)" clip-path="url(#y)">
        <path d="M600.07 388.42c2.319 0 4.579-.18 6.757-.65-.887.486-1.801.87-2.731 1.094-4.215 1.011-6.831-.417-7.149-.596 1.028.1 2.069.152 3.123.152" fill="#214653"/>
    </g>
    <path d="M596.38 388.21l.529.034s2.678 1.694 7.181.614c3.032-.727 5.889-3.157 8.188-5.288 3.455-3.202 6.52-7.942 9.462-11.508 1.895-2.3 3.646-4.051 5.14-5.254 1.549-1.247 2.745-1.723 3.32-1.183 1.524 1.433-1.597 8.765-9.83 15.904-2.952 2.559-11.165 6.382-16.2 7.693-.733.191-1.617.292-2.549.292-1.846 0-3.872-.4-5.241-1.304" fill="url(#z)" transform="matrix(.6907 0 0 -.6907 -236.27 269.049)"/>
    <path d="M604.16 389.21c.089-.017.181-.036.276-.056-.174.042-.269.055-.276.056zm8.46-5.094c3.455-3.203 6.248-7.873 9.188-11.44 1.896-2.3 3.579-4.257 5.073-5.458 1.549-1.248 2.745-1.725 3.32-1.184 1.524 1.433-1.597 8.765-9.83 15.903-5.649 4.898-12.718 6.563-15.935 7.217.917-.215 4.028-1.186 8.184-5.038" fill="url(#A)" transform="matrix(.6907 0 0 -.6907 -236.27 269.049)"/>
    <path d="M614.32 382.66c1.61-1.771 3.088-3.796 4.528-5.771 1.062-1.454 2.065-2.829 3.105-4.09 1.701-2.063 3.492-4.182 5.044-5.431 1.397-1.124 2.179-1.361 2.589-1.361.201 0 .358.055.477.169.215.2.322.568.312 1.064-.029 1.414-.95 3.616-2.527 6.037a35.332 35.332 0 0 1-2.875 3.794c-3.05 2.434-6.663 4.35-10.653 5.589z" fill="url(#B)" transform="matrix(.6907 0 0 -.6907 -236.27 269.049)"/>
    <path d="M172.508 44.06c.089.288.266.947.802 1.23.536.283.86.33 1.502.142.642-.189 1.325-.778 1.325-.778z" fill="#1e5471"/>
    <path d="M172.508 44.06c.089.288.266.947.802 1.23.536.283.86.33 1.502.142.642-.189 1.325-.778 1.325-.778z" fill="none" stroke="#7cdcec" stroke-miterlimit="10" stroke-width=".04696692"/>
    <g clip-path="url(#C)" opacity=".5" transform="matrix(.6907 0 0 -.6907 -236.27 269.049)">
        <path d="M619.48 347.75c-3.106-.011-6.945-1.677-9.884-4.103-2.589-2.137-5.175-5.142-7.488-8.528-1.433-2.098-3.088-4.487-4.981-6.806-.59-.723-1.18-1.301-1.825-1.743 1.899-.42 4.159-.791 6.464-.856a70.269 70.269 0 0 1 1.711-.023h.601c1.243.003 2.647.023 4.029.051.697.208 1.414.444 2.155.711 5.15 1.86 10.557 5.408 12.57 8.079 1.749 2.322 2.55 4.75 2.553 6.894.004 2.144-.789 4.003-2.228 5.189-.946.78-2.202 1.13-3.611 1.135z" fill="url(#D)"/>
    </g>
    <g clip-path="url(#E)" opacity=".5" transform="matrix(.6907 0 0 -.6907 -236.27 269.049)">
        <path d="M619.48 347.75c-3.106-.011-6.945-1.677-9.884-4.103-2.589-2.137-5.175-5.142-7.488-8.528-1.433-2.098-3.088-4.487-4.981-6.806-.59-.723-1.18-1.301-1.825-1.743l.217-.047c.562.419 1.085.944 1.608 1.585 1.893 2.32 3.548 4.707 4.981 6.805 2.313 3.387 4.899 6.393 7.488 8.53 4.299 3.547 10.524 5.47 13.561 2.968 1.412-1.164 2.202-2.977 2.227-5.072v.199c-.024 2.096-.814 3.913-2.227 5.077-.946.78-2.202 1.13-3.611 1.135z" fill="url(#F)"/>
    </g>
    <path d="M175.993 44.364c1.668.176 6.142.228.03-.675-8.608-1.273-13.025-6.775-14.294-8.361-2.205-2.756-3.235-5.028-4.1-7.235-1.05-2.674-.277.219-.248.33.26 1.002 1.457 6.17 6.174 10.427 5.29 4.776 10.637 5.324 12.437 5.514" fill="#f9901c" opacity=".2" stroke-width=".324"/>
    <path d="M175.252 44.887c1.668.176 5.325.393-.722-.864-7.523-1.563-12.147-6.901-13.416-8.487-2.204-2.756-3.235-5.028-4.1-7.234-1.049-2.675-.277.218-.247.33.26 1.001 1.457 6.168 6.173 10.427 5.29 4.775 10.511 5.638 12.312 5.828" fill="#f9901c" stroke-width=".324"/>
    <path d="M161.141 35.523c-2.204-2.756-3.235-5.028-4.1-7.234l-.07-.177.059.224c.259 1.002 1.456 6.169 6.173 10.427 5.29 4.775 10.512 5.638 12.312 5.828.598.063 1.451.131 2.022.135-.458-.154-1.379-.384-2.98-.716-7.524-1.564-12.147-6.9-13.416-8.487" fill="#fe9716" stroke-width=".324"/>
    <path d="M611.38 342.9c-2.589-2.137-5.312-5.006-7.625-8.392-1.433-2.099-3.644-5.374-5.459-7.745-1.279-1.672-2.66-3.343-5.015-3.053 1.433-.58 8.495-1.78 18.764 1.927 5.151 1.86 10.559 5.408 12.571 8.079 3.497 4.644 3.701 9.601.803 11.947-1.083.876-2.499 1.263-4.065 1.263-3.223 0-7.082-1.639-9.974-4.026" fill="url(#G)" transform="matrix(.6907 0 0 -.6907 -236.27 269.049)"/>
    <g transform="matrix(.6907 0 0 -.6907 -236.27 269.049)" clip-path="url(#H)">
        <path d="M625.35 345.46c-3.901 3.048-9.934.512-14.175-3.105-2.2-1.876-4.425-4.528-6.738-7.914-1.433-2.098-4.053-5.851-5.868-8.222-1.074-1.404-2.413-2.651-4.169-2.813.152-.03.316-.06.491-.088 1.567.393 3.025 1.747 3.746 2.628 1.892 2.31 4.435 6.124 5.868 8.222 2.313 3.386 4.538 6.038 6.738 7.915 4.241 3.616 10.138 6.152 14.039 3.104 1.801-1.408 2.354-4.039 1.708-6.935l.022.071c.718 2.975.181 5.697-1.662 7.137" fill="#b0ffff"/>
    </g>
    <path d="M173.308 9.889l-.747 4.487c1.367-.004 2.734-.002 4.102-.003 1.04.01 2.106-.074 3.12.23.425.133.883.305 1.166.671.564.88.413 2.045-.075 2.926-.329.602-.94.974-1.543 1.256-1.784.63-3.704.55-5.57.539h-.68l-.776 4.949c1.505.014 3.01-.012 4.512.035 1.185.107 2.62.439 3.089 1.683.189.74.118 1.529-.098 2.264-.086.378-.293.698-.494.99-.28.386-.604.646-.981.868-.885.517-1.964.612-2.97.698-2.1-.003-4.197.005-6.294-.005l-.774 4.509c1.394.462 2.826.831 4.288.993.464.036.93.088 1.396.128 1.224.084 2.305.01 3.422-.133 2.217-.286 4.39-1.095 6.086-2.572a8.136 8.136 0 0 0 2.067-3.018c.363-.863.525-1.787.623-2.715a7.16 7.16 0 0 0 .003-1.95c-.11-.813-.34-1.611-.808-2.29-.683-.847-1.538-1.677-2.647-1.87 1.635-.757 3.228-1.836 4.068-3.484.878-1.519.886-3.327.752-5.025-.266-1.473-.957-2.976-2.233-3.828-1.347-1.006-3.056-1.423-4.718-1.446-2.478-.138-4.944.337-7.286 1.113" fill="#fff"/>
    <path d="M-6585.5 2542l-.264.086-.082.49c.122-.194.237-.386.346-.576z" fill="url(#I)" stroke-width=".324" transform="translate(3041.54 -1097.221) scale(.43552)"/>
    <path d="M-6557.3 2590.4a30.95 30.95 0 0 0-2.156 1.624c-3.251 2.684-6.499 6.23-9.531 10.256 2.384-.972 4.62-2.289 6.577-3.994 2.066-1.919 3.731-4.288 4.746-6.928.133-.316.253-.636.364-.958z" fill="url(#J)" stroke-width=".324" transform="translate(3041.54 -1097.221) scale(.43552)"/>
    <path d="M121.081 15.929h-7.705c-1.66 0-3.243 1.323-3.529 2.932l-1.323 7.264c-.286 1.608.83 2.957 2.465 2.957h7.886c1.635 0 3.217-1.297 3.503-2.905l1.323-7.29c.337-2.18-1.453-2.958-2.62-2.958m-1.79 9.703l-.39.337-7.134-.02 1.037-5.577c.15-1.011-1.064-1.22-1.064-1.22v-.056h8.743zm-26.385 3.45h7.757c1.634 0 3.217-1.297 3.502-2.905l1.324-7.29c.337-2.18-1.454-2.958-2.62-2.958h-7.706c-1.66 0-3.243 1.323-3.528 2.906l-2.517 14.139h3.087zm8.146-3.45l-.39.337-7.108-.02 1.01-5.577c.151-1.011-1.09-1.22-1.09-1.22v-.056h8.77zm28.303 3.45l1.53-8.69c.151-1.012-1.116-1.245-1.116-1.245v-.057l7.68-.02.622-3.139h-6.563c-1.635 0-3.243 1.35-3.529 2.932l-1.816 10.222zm13.75-17.045h3.19l-.7 3.892h6.357l-.493 3.139-7.628.02v.056s1.194.207 1.038 1.22l-1.038 5.578 6.357.02-.57 3.113h-6.59c-1.635 0-2.75-1.324-2.465-2.932l1.323-7.264zm-55.83 7.135H76.77l9.365 4.929.44 1.374-.933 2.517c-.363.804-1.297 1.09-2.75 1.09H72.514l.597-3.243h10.455l-9.547-4.903c-.467-.26-.65-.65-.39-1.324l.856-2.49c.26-.7.96-1.194 2.699-1.194h10.689z" fill="#4c87c7" stroke-width="18.826"/>
    <path d="M92.487 33.229h-3.399l2.543-14.269c.31-1.66 1.946-2.983 3.658-2.983h7.731c.674 0 1.634.207 2.231.883.494.544.674 1.27.544 2.153l-1.323 7.186c-.313 1.66-1.946 2.932-3.658 2.932h-7.628zm-3.035-.44h2.775l.7-3.866h7.888c1.557 0 3.061-1.244 3.346-2.75l1.324-7.238c.132-.778-.057-1.427-.467-1.92-.544-.597-1.374-.83-1.998-.83h-7.705c-1.583 0-3.087 1.22-3.373 2.724zm40.187-3.451h-3.503l1.841-10.351c.311-1.66 1.946-3.01 3.658-3.01h6.772l-.622 3.373-7.108-.02.544 1.168zm-3.114-.416h2.854l1.53-8.535c.132-.857-.907-1.038-.96-1.038l-.093-.019v-.337h7.679l.493-2.801h-6.356c-1.583 0-3.087 1.244-3.373 2.75zm-43.48.416h-10.56l.65-3.45h9.962l-9.002-4.696c-.57-.313-.727-.83-.467-1.557l.857-2.439c.337-.856 1.244-1.22 2.853-1.22h10.87l-.647 3.243H77.547l8.795 4.722c.596.337.777.907.544 1.583l-.934 2.595c-.39.83-1.27 1.22-2.906 1.22m-10.196-.416h10.196c1.505 0 2.283-.287 2.62-.987l.934-2.49-.39-1.194-9.91-5.267h11l.52-2.802H77.339c-1.92 0-2.387.624-2.569 1.064l-.83 2.465c-.286.753 0 .986.31 1.167l10.093 5.24H73.395zm77.052.207h-6.719c-.83 0-1.583-.26-2.076-.857-.493-.597-.7-1.323-.544-2.153l1.324-7.264 1.244-6.98h3.503l-.7 4.1h6.381l-.623 3.373-7.108-.02.544 1.141-.987 5.37 6.382-.055zm-6.512-16.812l-1.193 6.667-1.324 7.238c-.131.727.02 1.4.467 1.894.44.518 1.09.804 1.842.804h6.46l.493-2.776h-6.357l1.038-5.76c.131-.856-.883-1.037-.934-1.037l-.113-.019v-.337h7.68l.466-2.802h-6.382l.727-3.865zM118.925 29.13h-7.782c-.83 0-1.584-.26-2.076-.857-.493-.597-.7-1.323-.544-2.153l1.323-7.187c.311-1.66 1.946-2.957 3.659-2.957h7.73c.701 0 1.635.207 2.258.881.467.544.65 1.27.52 2.153l-1.375 7.212c-.31 1.661-1.946 2.906-3.71 2.906m-5.396-12.945c-1.583 0-3.087 1.244-3.373 2.776l-1.323 7.238c-.132.727.019 1.4.467 1.92.44.518 1.09.804 1.84.804h7.888c1.583 0 3.087-1.246 3.346-2.75l1.324-7.238c.131-.778-.02-1.427-.467-1.92-.52-.597-1.375-.83-1.998-.83zm5.526 9.988l-7.316-.019 1.037-5.759c.132-.83-.907-1.037-.96-1.037l-.113-.02V19h9.106l-1.244 6.719zm-6.953-.31l6.953.019.207-.207 1.194-6.382h-7.913l.544 1.167zm-11.26.31l-7.342-.019 1.064-5.759c.132-.83-.908-1.037-.96-1.037l-.151-.02.057-.336h9.106l-1.244 6.719zm-6.953-.31l6.953.019.234-.207 1.14-6.382h-7.912l.57 1.167z" fill="#3f85c5" stroke-width="18.826"/>
    <path d="M112.383 24.029h-.337l-.363 2.127.363-.286zM129.979 27.429l-.31-.132-.287 1.584h-2.853l-.39.416h3.502zM122.181 27.229l-.233-.075c-.624 1.011-1.764 1.738-2.984 1.738h-7.887c-.753 0-1.4-.286-1.84-.804l-.468-.934-.286.075.52 1.011c.493.57 1.244.857 2.075.857h7.783c1.374 0 2.672-.753 3.32-1.868M143.676 18.929l.778.337 7.134.02-.26-.364zM149.475 28.929h-6.46c-.753 0-1.4-.286-1.841-.804l-.493-1.504h-.31c-.02.623.187 1.194.57 1.66.493.57 1.244.857 2.075.857h6.72zM137.477 18.929h-7.705l.856.337 7.109.02zM85.888 28.229l.934-2.594c.233-.674.056-1.245-.544-1.584l-8.795-4.721-1.244-.234 9.91 5.267.39 1.193-.934 2.517c-.337.674-1.117.96-2.62.96H72.787l-.363.414h10.56c1.633 0 2.516-.39 2.905-1.22M123.38 16.929c-.597-.674-1.53-.883-2.231-.883h-7.731c-1.4 0-2.776.883-3.373 2.128l.234.15c.544-1.193 1.816-2.075 3.165-2.075h7.705c.623 0 1.48.233 1.997.83l.287.414.26-.132zM92.087 32.929h-2.776l-.363.44h3.398zM104.384 26.329l.597-3.269h-.313l-.597 3.243c-.286 1.53-1.764 2.75-3.346 2.75h-7.887l.26.207h7.627c1.713 0 3.347-1.27 3.658-2.932M93.386 26.129l.39-.286.986-5.396-.57-1.167-.857.019.15.019c.057 0 1.09.207.96 1.037z" fill="#3061ab" stroke-width="18.826"/>
    <path d="M111.683 19.329l.132-.132-.207-.207v.337zM105.084 17.229c.286.44.39 1.011.286 1.66l-.727 3.944h.338l.7-3.866c.113-.777 0-1.4-.364-1.92zM112.982 20.429l-.132-.727-.26.132.075.518-.674 3.632h.337zM123.68 17.229l-.26.094.26.7.286-.075zM109.783 18.929l.31.075v-.02l.208-.673-.26-.132zM145.576 16.329l.363-.207.7-4.1-.363.415zM143.676 19.329l.15-.15-.207-.208v.337zM140.477 26.129l-.02.31h.312l.019-.206 1.323-7.238 1.194-6.668-.26-.44-1.244 6.978zM129.779 19.329l.15-.15-.15-.189zM93.386 18.929l-.056.337h.056l.188-.15zM101.285 25.729l1.244-6.72-.39.311-1.167 6.383-.056.15.132.26zM138.077 16.329l-.493 2.802.26.363.62-3.372zM151.775 16.329l-.493 2.802.26.363.596-3.372zM89.687 31.529l-.286-.02-.337 1.818.39-.44zM150.075 26.129l-.493 2.776.26.207.623-3.347zM87.788 16.329l-.52 2.802.26.233.648-3.243zM86.788 24.629l-.313.094.075.337.287.113zM73.49 20.629l.286-.132.056-.83.83-2.465c.132-.31.39-.674 1.117-.883l-.075-.233c-.674.188-1.117.544-1.324 1.064l-.83 2.438zM73.29 26.129l-.26-.233-.65 3.45.364-.414z" fill="#87b8e3" stroke-width="18.826"/>
    <g>
        <path d="M-8.932 223.45H-10.9c-.091 0-.152.06-.152.15l.006 4.24c.001.093.062.153.153.153h1.967c.091 0 .153-.06.152-.153l-.004-4.24c-.001-.09-.062-.15-.154-.15" fill="#fff" stroke="#999" stroke-miterlimit="10" stroke-width=".031" transform="matrix(2.9318 0 0 2.8988 95.586 -631.731)"/>
        <g transform="matrix(1.03428 0 0 1.02264 -567.06 -504.555)" clip-path="url(#K)">
            <g clip-path="url(#L)">
                <path d="M609.46 511.79v10.031h6.266V511.79z" fill="url(#M)"/>
            </g>
        </g>
        <path d="M-13.765 223.44h-4.426a2.272 2.272 0 0 0 .006 4.542h6.428c.092 0 .15-.06.15-.152l-.001-2.244c-.002-.091-.061-.153-.153-.153h-1.968c-.093 0-.15.062-.15.151l.002 1.83h-2.606c-.654 0-1.706-.508-1.706-1.695 0-1.188.951-1.713 1.698-1.713h2.574a.138.138 0 0 0 .117-.067l.166-.284c.05-.083.01-.215-.131-.215" fill="#fff" stroke="#999" stroke-miterlimit="10" stroke-width=".031" transform="matrix(2.9318 0 0 2.8988 95.586 -631.731)"/>
        <g transform="matrix(1.03428 0 0 1.02264 -567.06 -504.555)" clip-path="url(#N)">
            <g clip-path="url(#O)">
                <path d="M582.81 514.79v7.02h24.883v-7.02z" fill="url(#P)"/>
            </g>
        </g>
        <path d="M-21.178 223.44h-1.968c-.09 0-.153.06-.151.15l.005 4.242c0 .092.06.151.152.151h1.969c.09 0 .151-.059.15-.151l-.005-4.242c.001-.09-.061-.15-.152-.15" fill="#fff" stroke="#999" stroke-miterlimit="10" stroke-width=".031" transform="matrix(2.9318 0 0 2.8988 95.586 -631.731)"/>
        <g transform="matrix(1.03428 0 0 1.02264 -567.06 -504.555)" clip-path="url(#Q)">
            <g clip-path="url(#R)">
                <path d="M574.75 515.88v5.934h6.266v-5.934z" fill="url(#S)"/>
            </g>
        </g>
        <path d="M19.11 16.006H.501c-.27 0-.452.176-.452.44l.016 12.287c.004.267.186.443.452.443h18.61c3.676 0 6.657-2.948 6.653-6.583-.004-3.64-2.99-6.587-6.67-6.587M6.731 27.538l-.016-9.886h7.422c2.888 0 4.97 2.376 4.97 4.917 0 2.54-2.07 4.961-4.974 4.961-2.311 0-7.402.01-7.402.01" fill="#fff"/>
        <g transform="matrix(1.03428 0 0 1.02264 -567.06 -504.555)" clip-path="url(#T)">
            <path d="M566.739 509.04h-17.992c-.262 0-.438.171-.438.43l.016 12.015c.004.262.18.434.438.434h17.992a6.432 6.432 0 0 0 6.433-6.438 6.45 6.45 0 0 0-6.45-6.441m-11.968 11.277l-.016-9.668h7.176c2.793 0 4.805 2.324 4.805 4.808s-2 4.852-4.809 4.852c-2.234 0-7.156.008-7.156.008" fill="none" stroke="#999" stroke-miterlimit="10" stroke-width=".088"/>
        </g>
        <g transform="matrix(1.03428 0 0 1.02264 -567.06 -504.555)" clip-path="url(#U)">
            <g clip-path="url(#V)">
                <path d="M548.42 516.82v5.004h24.406v-5.004z" fill="url(#W)"/>
            </g>
        </g>
    </g>
</svg>
