<svg width="200mm" height="153.502" viewBox="0 0 200 40.614" xmlns="http://www.w3.org/2000/svg">
    <defs>
        <clipPath id="a">
            <path d="M143 412h11v3h-11z"/>
        </clipPath>
        <clipPath id="b">
            <path d="M149.48 412.27a.918.918 0 0 0-.652.266.883.883 0 0 0-.266.636c0 .496.414.903.922.903h2.559l.074-.075v-.878l-.078-.07h-.782l-.078.07.004.703h-1.023c-.27 0-.664-.207-.664-.649 0-.426.34-.656.66-.656h1.023l.063-.031.066-.113v-.07l-.066-.036zm-.89.902c0-.234.093-.453.261-.617a.886.886 0 0 1 .629-.254h1.762l.039.02v.043l-.067.11-.035.019h-1.023c-.336 0-.692.238-.692.683 0 .461.414.676.696.676h1.05v-.73l.047-.043h.782l.047.043V414l-.043.043h-2.563a.884.884 0 0 1-.89-.87m-1.083-.9l-.058.02-.02.051.004 1.656.02.055.055.02h.785l.054-.02.02-.055-.004-1.656-.02-.05-.054-.02zm-.035 1.763l-.008-.036-.004-1.656.012-.031.035-.012h.781l.036.012.011.031V414l-.011.036-.032.011h-.785zm4.91-1.762l-.074.074v1.656l.078.075h.782l.078-.075-.004-1.656-.075-.074zm-.043 1.73v-1.656l.043-.047h.786l.047.047v1.656l-.047.043h-.782zm-8.53-1.73l-.079.074v1.656l.078.075h2.531a.933.933 0 0 0 .649-.266.9.9 0 0 0 .27-.637c0-.5-.415-.902-.922-.902zm-.048 1.73v-1.656l.047-.047h2.528c.488 0 .89.395.89.875 0 .23-.09.45-.258.614a.887.887 0 0 1-.628.257h-2.532zm.875-1.507v1.332h-.008l.04.074v-.047h.992a.687.687 0 0 0 .687-.684.681.681 0 0 0-.687-.675zm.028.027h.996c.363 0 .66.289.66.648a.657.657 0 0 1-.66.653h-.992z"/>
        </clipPath>
        <linearGradient id="c" x1="-.001" x2=".999" gradientTransform="rotate(-90 277.09 136.98) scale(1.8073)" gradientUnits="userSpaceOnUse">
            <stop stop-color="#681a6f" offset="0"/>
            <stop stop-color="#681a6f" offset=".016"/>
            <stop stop-color="#67196e" offset=".031"/>
            <stop stop-color="#66196d" offset=".047"/>
            <stop stop-color="#65196c" offset=".063"/>
            <stop stop-color="#64186b" offset=".078"/>
            <stop stop-color="#63186a" offset=".094"/>
            <stop stop-color="#621769" offset=".109"/>
            <stop stop-color="#611768" offset=".125"/>
            <stop stop-color="#611767" offset=".141"/>
            <stop stop-color="#601666" offset=".156"/>
            <stop stop-color="#5f1665" offset=".172"/>
            <stop stop-color="#5e1564" offset=".188"/>
            <stop stop-color="#5d1563" offset=".203"/>
            <stop stop-color="#5c1562" offset=".219"/>
            <stop stop-color="#5b1461" offset=".234"/>
            <stop stop-color="#5a1460" offset=".242"/>
            <stop stop-color="#5a145f" offset=".25"/>
            <stop stop-color="#59135e" offset=".258"/>
            <stop stop-color="#59135e" offset=".266"/>
            <stop stop-color="#58135d" offset=".281"/>
            <stop stop-color="#58135c" offset=".297"/>
            <stop stop-color="#57125b" offset=".313"/>
            <stop stop-color="#56125a" offset=".328"/>
            <stop stop-color="#551159" offset=".344"/>
            <stop stop-color="#541158" offset=".359"/>
            <stop stop-color="#531057" offset=".375"/>
            <stop stop-color="#521056" offset=".391"/>
            <stop stop-color="#510f55" offset=".398"/>
            <stop stop-color="#510f54" offset=".406"/>
            <stop stop-color="#500f53" offset=".414"/>
            <stop stop-color="#500f53" offset=".422"/>
            <stop stop-color="#4f0e52" offset=".438"/>
            <stop stop-color="#4e0e51" offset=".453"/>
            <stop stop-color="#4d0e50" offset=".469"/>
            <stop stop-color="#4c0d4f" offset=".484"/>
            <stop stop-color="#4b0d4e" offset=".492"/>
            <stop stop-color="#4b0d4e" offset=".5"/>
            <stop stop-color="#4a0c4d" offset=".508"/>
            <stop stop-color="#4a0c4c" offset=".516"/>
            <stop stop-color="#490c4b" offset=".531"/>
            <stop stop-color="#480b4a" offset=".547"/>
            <stop stop-color="#470b49" offset=".563"/>
            <stop stop-color="#460a48" offset=".578"/>
            <stop stop-color="#450947" offset=".586"/>
            <stop stop-color="#450947" offset=".594"/>
            <stop stop-color="#440946" offset=".602"/>
            <stop stop-color="#440945" offset=".609"/>
            <stop stop-color="#430844" offset=".617"/>
            <stop stop-color="#420844" offset=".625"/>
            <stop stop-color="#410843" offset=".641"/>
            <stop stop-color="#400742" offset=".648"/>
            <stop stop-color="#400742" offset=".656"/>
            <stop stop-color="#3f0641" offset=".664"/>
            <stop stop-color="#3f0640" offset=".672"/>
            <stop stop-color="#3e063f" offset=".688"/>
            <stop stop-color="#3d053e" offset=".695"/>
            <stop stop-color="#3d053e" offset=".703"/>
            <stop stop-color="#3c043d" offset=".711"/>
            <stop stop-color="#3c043c" offset=".719"/>
            <stop stop-color="#3c043c" offset=".727"/>
            <stop stop-color="#3b033b" offset=".734"/>
            <stop stop-color="#3a033a" offset=".742"/>
            <stop stop-color="#390339" offset=".75"/>
            <stop stop-color="#380238" offset=".766"/>
            <stop stop-color="#380238" offset=".773"/>
            <stop stop-color="#370137" offset=".781"/>
            <stop stop-color="#370136" offset=".789"/>
            <stop stop-color="#360135" offset=".797"/>
            <stop stop-color="#350034" offset=".813"/>
            <stop stop-color="#350034" offset=".82"/>
            <stop stop-color="#340033" offset=".828"/>
            <stop stop-color="#330032" offset=".836"/>
            <stop stop-color="#320031" offset=".844"/>
            <stop stop-color="#320031" offset=".852"/>
            <stop stop-color="#310030" offset=".859"/>
            <stop stop-color="#31002f" offset=".867"/>
            <stop stop-color="#30002e" offset=".875"/>
            <stop stop-color="#2f002d" offset=".891"/>
            <stop stop-color="#2f002d" offset=".898"/>
            <stop stop-color="#2e002c" offset=".906"/>
            <stop stop-color="#2d002b" offset=".914"/>
            <stop stop-color="#2c002a" offset=".922"/>
            <stop stop-color="#2c002a" offset=".93"/>
            <stop stop-color="#2b0029" offset=".938"/>
            <stop stop-color="#2b0028" offset=".945"/>
            <stop stop-color="#2a0027" offset=".953"/>
            <stop stop-color="#2a0026" offset=".961"/>
            <stop stop-color="#290026" offset=".969"/>
            <stop stop-color="#290025" offset=".977"/>
            <stop stop-color="#280024" offset=".984"/>
            <stop stop-color="#270024" offset=".992"/>
            <stop stop-color="#260023" offset="1"/>
        </linearGradient>
    </defs>
    <path d="M107.165 14.212h-6.812c-1.443 0-2.862 1.165-3.115 2.583l-1.165 6.433c-.254 1.393.735 2.583 2.178 2.583h6.964c1.443 0 2.837-1.14 3.09-2.533l1.165-6.432c.28-1.95-1.292-2.634-2.305-2.634m-1.62 8.585l-.33.28-6.28-.019.911-4.913c.129-.886-.937-1.088-.937-1.088v-.055l7.724.018zm-23.249 3.014h6.838c1.445 0 2.837-1.14 3.09-2.533l1.165-6.432c.28-1.95-1.266-2.634-2.305-2.634h-6.812c-1.445 0-2.837 1.165-3.115 2.583l-2.204 12.46h2.736zm7.193-3.014l-.33.28-6.305-.019.911-4.913c.129-.886-.963-1.088-.963-1.088v-.055l7.75.018zm24.946 3.014l1.367-7.648c.13-.912-.986-1.114-.986-1.114v-.055l6.787-.018.531-2.761h-5.774c-1.469 0-2.862 1.19-3.115 2.609l-1.595 8.99zm12.156-15.018h2.811l-.634 3.419h5.623l-.456 2.76-6.711.019v.055s1.038.202.911 1.088l-.911 4.913 5.597.018-.508 2.736h-5.8c-1.444 0-2.43-1.166-2.177-2.584l1.165-6.382zm-49.258 6.28h-9.27l8.257 4.357.404 1.19-.836 2.255c-.329.683-1.14.937-2.431.937h-9.143l.507-2.837h9.219l-8.408-4.356c-.405-.202-.583-.557-.355-1.165l.76-2.203c.229-.583.837-1.039 2.381-1.039h9.422z" fill="#4c87c7"/>
    <path d="M81.804 29.466H78.79l2.254-12.562c.28-1.468 1.722-2.659 3.242-2.659h6.812c.608 0 1.445.184 1.976.785.43.481.582 1.114.481 1.9l-1.165 6.33c-.28 1.469-1.722 2.584-3.242 2.584h-6.711zm-2.685-.38h2.457l.634-3.42h6.94c1.392 0 2.709-1.09 2.962-2.405l1.165-6.408c.11-.684-.018-1.266-.43-1.696l-1.747-.71h-6.813c-1.393 0-2.71 1.065-2.963 2.406zm35.455-3.04h-3.09l1.621-9.117c.28-1.494 1.722-2.684 3.242-2.684h5.951l-.53 2.963h-6.282l.482 1.038zm-2.76-.38h2.532l1.342-7.522c.128-.759-.785-.911-.836-.911l-.092-.019v-.303h6.787l.43-2.457h-5.597c-1.419 0-2.735 1.09-2.988 2.432zm-38.343.38h-9.32l.557-3.039h8.814l-7.953-4.153c-.505-.28-.634-.735-.404-1.367l.76-2.153c.302-.759 1.087-1.088 2.506-1.088h9.599l-.583 2.862H68.61l7.774 4.178c.508.28.684.785.482 1.394l-.836 2.279c-.33.735-1.114 1.09-2.558 1.09m-8.99-.38h8.99c1.341 0 2.026-.254 2.304-.863l.811-2.203-.329-1.038-8.712-4.66h9.674l.482-2.457h-9.27c-1.695 0-2.101.531-2.253.937l-.735 2.179c-.254.632 0 .862.28 1.012l8.888 4.61h-9.674zm67.972.183h-5.926c-.735 0-1.393-.228-1.823-.735-.456-.531-.608-1.191-.482-1.9l1.166-6.407 1.09-6.154h3.09l-.61 3.596h5.623l-.557 2.963h-6.28l.481.987-.862 4.761 5.622-.055zm-5.749-14.84l-1.038 5.9-1.165 6.382c-.129.632.018 1.24.404 1.696.38.43.963.684 1.621.684h5.698l.43-2.457h-5.622l.937-5.065c.092-.735-.784-.911-.836-.911l-.092-.019v-.303h6.787l.43-2.456h-5.622l.609-3.445zm-21.577 14.84h-6.863c-.736 0-1.394-.228-1.824-.735a2.14 2.14 0 0 1-.481-1.9l1.165-6.357c.254-1.468 1.722-2.608 3.216-2.608h6.838c.609 0 1.42.184 1.976.785.404.505.582 1.114.456 1.9l-1.215 6.356c-.254 1.468-1.722 2.558-3.267 2.558m-4.761-11.397c-1.394 0-2.736 1.09-2.989 2.431l-1.165 6.383c-.092.658.055 1.24.43 1.696.38.456.963.71 1.62.71h6.965c1.368 0 2.71-1.089 2.938-2.407l1.165-6.407c.129-.684-.018-1.266-.404-1.696l-1.748-.71zm4.887 8.788l-6.483-.018.937-5.065c.11-.735-.81-.912-.836-.912l-.129-.018v-.303h8.054l-1.09 5.95zm-6.154-.28l6.13.056.201-.184 1.039-5.647h-6.99l.481 1.012zm-9.927.28l-6.458-.018.911-5.065c.129-.735-.81-.912-.836-.912l-.129-.018.019-.303h8.028l-1.088 5.95zm-6.13-.28l6.13.056.183-.184 1.039-5.647h-6.99l.507 1.012z" fill="#3f85c5"/>
    <path d="M99.263 21.38h-.303l-.33 1.848.33-.254zM114.884 24.32l-.28-.129-.253 1.393h-2.533l-.329.38h3.09zM107.9 24.136l-.202-.073c-.53.911-1.545 1.545-2.608 1.545h-6.965c-.658 0-1.24-.253-1.62-.71l-.405-.835-.254.092.43.885c.456.508 1.09.735 1.85.735h6.862c1.215 0 2.356-.657 2.913-1.646M127.014 16.785l.709.303h6.28l-.202-.303zM132.16 25.606h-5.699c-.658 0-1.24-.253-1.62-.683l-.457-1.342h-.279l.531 1.469c.43.505 1.088.735 1.823.735h5.926zM121.5 16.785h-6.787l.735.303h6.28zM75.923 24.871l.836-2.279c.202-.608.018-1.114-.482-1.393l-7.775-4.179-1.09-.202 8.738 4.635.329 1.064-.81 2.203c-.28.609-.987.862-2.305.862h-8.99l-.33.38h9.32c1.445 0 2.229-.354 2.558-1.09M109.003 14.947c-.531-.608-1.367-.785-1.95-.785h-6.838c-1.24 0-2.456.785-2.988 1.9l.228.128c.481-1.038 1.595-1.823 2.785-1.823h6.813l1.748.71.253.38.228-.128-.28-.38M81.436 29.098H78.98l-.33.38h3.014zM92.28 23.217l.53-2.887h-.28l-.504 2.887c-.254 1.318-1.57 2.406-2.964 2.406h-6.939l.228.184h6.712c1.52 0 2.963-1.114 3.216-2.583M82.723 23.217l.329-.253.861-4.762-.507-1.012-.735.018.129.019c.018 0 .963.183.836.911z" fill="#3061ab"/>
    <path d="M98.711 17.153l.13-.13-.185-.183v.303zM93.014 15.315l.254 1.468-.634 3.495h.28l.633-3.419c.092-.684-.018-1.24-.329-1.696zM99.814 18.071l-.073-.608-.254.11.073.456-.582 3.216h.28zM109.187 15.315l-.228.092.228.608.28-.074zM97.057 16.785l.254.073v-.018l.202-.582-.228-.13zM128.484 14.396l.329-.202.608-3.622-.329.38zM127.014 17.153l.128-.092-.202-.203v.304zM124.073 23.217l-.055.254h.28l.018-.184 1.19-6.382 1.039-5.9-.228-.356-1.09 6.13zM114.7 17.153l.129-.148-.147-.147v.304zM82.539 16.785l-.019.303h.019l.147-.147zM89.522 22.85l1.09-5.952-.329.28-1.012 5.647-.074.129.129.228zM121.868 14.396l-.43 2.456.228.304.53-2.963zM134.181 14.396l-.43 2.456.202.304.557-2.963zM79.23 27.812l-.279-.019-.279 1.596.329-.38zM132.527 23.217l-.43 2.457.228.184.53-2.938zM77.577 14.396l-.482 2.456.228.203.583-2.862zM76.842 21.747l-.28.11.055.304.28.073zM65.08 18.255l.253-.128.055-.71.736-2.178c.091-.28.329-.608.986-.81l-.073-.184c-.608.147-.987.456-1.165.937l-.76 2.153-.018.911M64.896 23.217l-.228-.184-.557 3.04.33-.38z" fill="#87b8e3"/>
    <path d="M61.404 14.212l.38.38.019 10.738-.404.38h-5.066l-.406-.38V14.592l.38-.38zm-12.486-.018H37.497c-3.267 0-5.876 2.558-5.85 5.749 0 3.19 2.608 5.748 5.85 5.748H54.11l.38-.38v-5.673l-.404-.406h-5.065l-.404.38.018 4.635H41.9c-1.697 0-4.407-1.292-4.407-4.28 0-3.014 2.457-4.33 4.381-4.33h6.636l.303-.184.43-.736-.33-.53m-19.145 0h-5.065l-.405.38.019 10.738.38.38h5.09l.381-.38-.018-10.738-.38-.38M6.188 24.265h6.534c2.558 0 4.382-2.102 4.382-4.33s-1.849-4.306-4.382-4.306H6.19zM17.105 14.21c3.241 0 5.875 2.559 5.875 5.75 0 3.165-2.634 5.748-5.85 5.748H.719l-.406-.378V14.593l.406-.38z" fill="#420745"/>
    <path d="M55.89 17.153l5.85-.684.02 8.965-.405.38H56.29l-.406-.38zm-31.606 8.256l.38.406h5.091l.38-.406v-5.192l-5.875.71zm-24.009.018l.406.38h16.411c2.862 0 5.268-2.05 5.75-4.736l-6.18.736a4.355 4.355 0 0 1-3.976 2.557H6.152v-1.317l-5.876.71zm54.171-.018V19.71l-.404-.38h-5.065l-.405.38v4.634h-6.71c-1.697 0-4.408-1.266-4.408-4.28l.056-.735-5.901.71c0 3.19 2.608 5.748 5.85 5.748h16.614z" fill="#260021"/>
    <g transform="translate(-931.56 -2658.721) scale(6.48339)" clip-path="url(#a)">
        <g clip-path="url(#b)">
            <path d="M143.73 414.07h9.516v-1.809h-9.516z" fill="url(#c)"/>
        </g>
    </g>
    <path d="M176.634 20.093c0 10.763-8.737 19.5-19.5 19.5-10.79 0-19.502-8.737-19.502-19.5 0-10.789 8.712-19.527 19.501-19.527 10.764 0 19.501 8.738 19.501 19.527" fill="#17142b"/>
    <path d="M157.153.612a19.403 19.403 0 0 0-13.98 5.901c-2.43 2.837-3.064 4.381-3.52 5.9-.53 1.697-.329 3.141 1.469 2.863 1.797-.303 3.57-2.533 5.977-5.395 2.406-2.836 5.926-4.989 9.826-5.926 3.875-.963 6.027-.53 10.94.862V3.805c-3.064-2.026-6.761-3.191-10.712-3.191" fill="#4f5163"/>
    <path d="M174.245 14.763c.735.38 1.215.019 1.064-.836-.129-.862-1.064-2.735-1.064-2.735s-2.229-4.33-6.205-7.091c-1.95-1.367-4.204-2.28-6.002-2.862a19.587 19.587 0 0 0-4.913-.608h-.658c.785.055 1.925.183 2.71.455 1.292.43 2.026.71 4.052 2.305 0 0 .785.658 1.774 1.774 1.012 1.113 1.773 2.076 2.81 3.393 1.065 1.342 2.103 2.735 3.394 4.027 1.267 1.292 2.28 2.051 3.04 2.178" fill="#283f5c"/>
    <path d="M175.348 14.028l-.304.634c-.253.184-.735 0-1.418-.481-.81-.583-1.443-1.064-2.584-2.229-1.012-1.013-2.355-2.66-3.343-3.85l-.507-.608-.018-.018c-1.013-1.215-2.71-3.242-4.128-4.381-1.419-1.14-2.38-1.621-3.394-2.001-.886-.305-1.975-.456-2.633-.507h-.532c.785.055 1.925.184 2.71.456 1.292.43 2.026.735 4.052 2.304 0 0 .785.658 1.774 1.774l1.266 1.442.81.987.019.019.482.582c1.012 1.215 2.355 2.837 3.368 3.875 1.165 1.14 1.773 1.647 2.583 2.229l1.266.582.28-.073.227-.303.019-.43" fill="#477db3"/>
    <path d="M155.5 39.206l.455-.507c-.303-.018-1.064-.11-2.634-.482-2.254-.556-4.609-1.823-6.306-2.963-1.696-1.165-3.697-3.165-4.913-4.913-1.215-1.748-2.178-3.596-2.71-4.913-.556-1.318-.683-1.748-.735-1.57-.018.203.355 1.925.938 3.495-.634-1.393-.963-2.203-1.166-2.76l-.354-.507c.055.456.404 2.406 1.595 4.862 1.19 2.482 2.912 4.457 4.153 5.597 1.24 1.165 2.786 2.355 5.192 3.52 2.406 1.166 4.736 1.445 5.876 1.647l.608-.507" fill="#009199"/>
    <path d="M147.046 35.347c-1.697-1.165-3.698-3.166-4.914-4.914-1.214-1.747-2.178-3.596-2.71-4.913-.556-1.317-.683-1.773-.735-1.57-.018.185.33 1.798.862 3.319l.33.657c.556 1.088 1.012 1.774 1.899 3.014.886 1.24 1.95 2.305 2.862 3.14.911.837 2.279 2.052 4.685 3.242 2.38 1.191 3.925 1.57 6.002 1.976l.184.018.018-.018.456-.508c-.303-.018-1.064-.11-2.634-.481-2.254-.557-4.61-1.823-6.306-2.963" fill="#073845"/>
    <path d="M155.316 39.39c-.38-.018-.837-.129-1.546-.254-1.849-.354-4.23-1.14-6.737-2.76-2.482-1.595-3.57-2.811-4.76-4.356a16.764 16.764 0 0 1-2.508-4.508l-.254-.634.147.43c-.634-1.393-.963-2.204-1.165-2.76l-.355-.506c.019.456.405 2.406 1.596 4.862 1.19 2.482 2.912 4.458 4.153 5.597 1.24 1.166 2.786 2.356 5.217 3.52 2.38 1.166 4.71 1.445 5.85 1.647l.355-.279" fill="#0091a6"/>
    <path d="M168.18 25.606c-2.684.33-5.42 2.634-6.736 4.078-1.342 1.444-2.989 3.723-4.027 5.242-.684.989-1.445 1.976-2.102 2.685l-.912.886c.837.183 1.318.227 1.546.253l.836-1.064.11-.147.019-.018c.608-.862 1.19-1.774 1.468-2.153.456-.735 2.026-2.938 2.533-3.52.481-.583 2.076-2.406 3.47-3.47 1.392-1.064 3.444-2.152 5.394-2.28l1.468.074c-.329-.303-1.165-.784-3.065-.556M156.05 38.655l-.128.147zM155.5 39.206l.11-.073z" fill="#283d66"/>
    <path d="M170.753 25.79c-.329-.147-.785-.253-1.393-.303-1.647-.074-3.596.634-5.42 1.9l-.885.683-.203.184-1.291 1.215-.148.147c-1.341 1.444-2.988 3.723-4.026 5.242-.43.634-.912 1.266-1.368 1.849l-.481.582-.254.254-.911.886.055.018c.608-.481.886-.81.987-.886l.128-.147c.482-.481.862-1.038 1.57-2.05l.862-1.166.557-.785c1.113-1.62 2.304-3.267 4.38-5.09 2.103-1.798 4.509-2.811 6.434-2.736.862.056 1.418.28 1.722.482l.147.018-.456-.303" fill="#4a78ae"/>
    <path d="M154.948 39.757l.254-.202-1.342-.228c-2.456-.53-4.66-1.19-7.344-2.937-2.685-1.722-4.128-3.47-5.116-4.812-.963-1.368-2-3.242-2.533-4.939-.507-1.67-.658-2.051-.709-2.583l-.018-.055v.129c.055.455.406 2.405 1.595 4.887 1.19 2.457 2.912 4.407 4.153 5.572 1.24 1.165 2.786 2.355 5.192 3.545 2.406 1.14 4.736 1.443 5.875 1.621" fill="#00aeb5"/>
    <path d="M175.348 11.272c-.684-1.267-1.318-2.33-2.508-3.774-1.19-1.445-2.279-2.355-3.697-3.47-1.419-1.09-3.09-2-4.913-2.735a21.803 21.803 0 0 0-4.863-1.317c-1.064-.148-2.862-.184-4.204.709l.33-.055c.708-.355 1.695-.557 2.582-.557.912 0 2.356.228 3.85 1.114 1.468.911 2.583 1.797 4.457 4.001 1.9 2.229 2.355 2.963 4.027 5.09 1.696 2.128 2.684 3.014 3.621 3.723.912.71 2.077 1.114 2.001-.128.092-.43 0-1.342-.684-2.609" fill="#4c879c"/>
    <path d="M175.899 13.844c.11-.43 0-1.341-.684-2.608-.709-1.266-1.317-2.33-2.507-3.774-1.19-1.444-2.28-2.355-3.697-3.47-1.42-1.089-3.09-2-4.914-2.734-1.823-.736-3.748-1.166-4.862-1.318l-.228-.019c1.468.203 2.431.658 3.647 1.394 1.215.76 2.608 2.127 3.343 2.988.759.836 1.849 2.203 3.19 4.027 1.342 1.823 2.407 3.241 3.445 4.28 1.013 1.038 1.595 1.443 2.28 1.696.683.254.937-.228.986-.456" fill="#73c7d9"/>
    <path d="M158.072.061c-.885 0-1.874.202-2.608.557l-.092.018a20.281 20.281 0 0 1 1.849-.092c1.545 0 3.09.202 4.533.557-1.419-.836-2.786-1.038-3.672-1.038" fill="#1e3f57"/>
    <path d="M153.478 6.493c.38.254.684 2.533-3.571 5.699-4.23 3.14-5.8 2.557-6.23 2.076-.71.11-2.128-.608-1.14-3.444 1.013-2.811 4.255-5.09 6.104-5.724 1.849-.634 2.938-.556 3.723-.329.81.254 1.113 1.065 1.113 1.393v.33" fill="#1e2147"/>
    <path d="M147.23 31.855l.48-3.014 4.61-3.723c5.014-4.406 7.648-7.09 7.623-10.256 0-2.178-1.647-2.887-3.773-2.887h-5.065l.759-3.749a16.798 16.798 0 0 1 5.52-1.038c4.736-.074 8.89 1.925 8.89 7.218 0 6.432-4.812 9.193-9.092 12.41l-1.672 1.139v.073s2.456.019 4.305 0 4.533-.11 4.533-.11l-.911 4.33s-5.547.056-9.447 0c-2.634-.055-6.762-.406-6.762-.406" fill="#fff"/>
    <path d="M164.32 32.406c-2.329 3.166-1.493 5.243 1.596 4.255 2.507-.785 5.217-3.292 6.331-5.42.987-1.9.583-3.267-.986-3.292-1.85-.019-4.964 1.797-6.94 4.457" fill="#7fcce6"/>
    <path d="M152.375 39.206c.129.406.634.963 1.215 1.013.583.018 1.14-.38 1.9-1.064.76-.71 2.405-3.166 2.887-3.9.455-.736 2.026-2.938 2.532-3.52.482-.583 2.077-2.407 3.47-3.47 1.393-1.064 3.444-2.153 5.394-2.28 1.95-.128 3.191.508 3.9 1.925.71 1.419.254 3.875-.836 5.394-1.088 1.546-3.242 3.369-6.407 4.863-3.14 1.52-5.37 1.925-7.42 2.178-2.077.254-3.47.147-4.18.11-.709-.018-1.012-.018-1.468-.184l-.836-.657-.202-.43z" fill="#3da1dc"/>
    <path d="M152.375 39.206c.129.406.634.963 1.215 1.013l1.292-.557c-.583-.11-1.468-.228-2.507-.456" fill="#264566"/>
    <path d="M173.142 32.958c.33-.557.557-1.215.735-1.875.203-1.341.228-2.76-.986-4.001-1.215-1.24-3.318-1.114-4.863-.557-1.468.531-3.647 1.797-5.369 3.774-1.748 2.026-2.558 3.14-3.394 4.381-.986 1.52-2.152 3.242-3.165 4.381-1.088 1.191-1.798 1.368-2.533 1.292l-.329-.055.147.055.557.129c.634-.018 1.292-.329 2.229-1.367 1.038-1.14 2.178-2.862 3.19-4.382.811-1.24 1.622-2.33 3.37-4.356 1.721-1.975 3.874-3.216 5.317-3.748 1.52-.531 3.571-.684 4.762.531 1.19 1.191 1.165 2.583.937 3.926-.129.81-.43 1.52-.608 1.874" fill="#b8dee8"/>
    <path d="M153.478 6.493v-.329c0-.329-.303-1.14-1.114-1.393-.785-.228-1.874-.303-3.723.33s-5.09 2.912-6.103 5.723c-.987 2.836.43 3.545 1.14 3.444 1.291-.184 2.506-.228 5.799-2.786 3.292-2.558 3.9-4.204 4.001-4.989" fill="#213a82"/>
    <path d="M153.478 6.31c-.11.81-.735 2.532-4.027 5.166-2.735 2.178-4.077 2.608-5.166 2.786 1.113-.184 2.405-.531 5.191-2.71 3.293-2.558 3.9-4.204 4.002-4.99V6.31" fill="#3d63ab"/>
    <path d="M152.375 4.84c-.785-.229-1.874-.304-3.723.328s-5.09 2.913-6.103 5.724c-.303.886-.38 1.545-.33 2.051l.02.055c.201.71.91.407 1.367.074.43-.355 1.214-1.064 2.76-2.938 1.546-1.849 3.773-3.647 4.508-4.179.735-.53 1.696-.784 1.925-.759l.279.11-.71-.455" fill="#7094cf"/>
    <path d="M185.272 25.974l.86-4.99h-3.343l-.886 4.99h-2.785l2.102-11.827h2.76l-.81 4.61h3.368l.81-4.61h2.76l-2.076 11.827zm4.812 0l2.102-11.827h3.85c2.71 0 4.178 1.849 4.178 4.457 0 3.571-1.62 7.37-6.053 7.37zm4.305-2.178c2.355 0 2.938-3.368 2.938-5.344 0-1.139-.33-2.152-1.647-2.152h-1.114l-1.317 7.496z" fill="#451e63"/>
</svg>
