<svg width="200mm" height="46.118mm" version="1.1" viewBox="0 0 200 46.118" xmlns="http://www.w3.org/2000/svg" xmlns:xlink="http://www.w3.org/1999/xlink">
 <defs>
  <clipPath id="m">
   <path d="m609 511h7v11h-7z"/>
  </clipPath>
  <clipPath id="l">
   <path d="m609.64 512.48-0.17578 8.9102c4e-3 0.26172 0.17578 0.42969 0.42968 0.42969h5.4024c0.25781 0 0.43359-0.16797 0.42969-0.42969l-0.23829-9.6016z"/>
  </clipPath>
  <linearGradient id="d" x1=".84991" x2=".93834" gradientTransform="matrix(70.872 0 0 70.872 549.22 516.81)" gradientUnits="userSpaceOnUse">
   <stop stop-color="#cfcfcf" offset="0"/>
   <stop stop-color="#cfcfcf" offset=".5"/>
   <stop stop-color="#d0d0d0" offset="1"/>
  </linearGradient>
  <clipPath id="k">
   <path d="m582 514h26v8h-26z"/>
  </clipPath>
  <clipPath id="j">
   <path d="m601.97 514.79c-0.26172 0-0.42579 0.17578-0.42579 0.42969l-0.10937 5.1484s-5.6797 0.0117-7.5312 0.0117c-1.8555 0-4.9688-1.5508-4.9688-4.9141 0-0.19531 0.0117-0.38281 0.0273-0.5664l-6.1523 0.76172c0.12109 3.4531 2.8359 6.1445 6.3203 6.1445h18.133c0.26172 0 0.42969-0.17188 0.42969-0.4336l-0.11719-6.1523c-4e-3 -0.25781-0.17578-0.43359-0.43359-0.43359z"/>
  </clipPath>
  <linearGradient id="c" x1=".489" x2=".83631" gradientTransform="matrix(71.64 0 0 71.64 547.78 518.29)" gradientUnits="userSpaceOnUse">
   <stop stop-color="#c8c8c8" offset="0"/>
   <stop stop-color="#c8c8c8" offset=".125"/>
   <stop stop-color="#c9c9c9" offset=".25"/>
   <stop stop-color="#cacaca" offset=".375"/>
   <stop stop-color="#cbcbcb" offset=".5"/>
   <stop stop-color="#ccc" offset=".625"/>
   <stop stop-color="#cdcdcd" offset=".75"/>
   <stop stop-color="#cdcdcd" offset=".875"/>
   <stop stop-color="#cecece" offset="1"/>
  </linearGradient>
  <clipPath id="i">
   <path d="m574 515h8v7h-8z"/>
  </clipPath>
  <clipPath id="h">
   <path d="m574.88 516.6-0.13281 4.7852c-4e-3 0.26172 0.16797 0.4336 0.42969 0.4336h5.4023c0.25781 0 0.42969-0.17188 0.42969-0.4336l-0.0742-5.5z"/>
  </clipPath>
  <linearGradient id="b" x1=".37398" x2=".46675" gradientTransform="matrix(67.531 0 0 67.531 549.49 518.85)" gradientUnits="userSpaceOnUse">
   <stop stop-color="#c5c5c5" offset="0"/>
   <stop stop-color="#c6c6c6" offset=".5"/>
   <stop stop-color="#c7c7c7" offset="1"/>
  </linearGradient>
  <clipPath id="g">
   <path d="m547.79 507h27.215v17h-27.215z"/>
  </clipPath>
  <clipPath id="f">
   <path d="m548 516h25v6h-25z"/>
  </clipPath>
  <clipPath id="e">
   <path d="m566.42 517.53c-0.76953 1.5352-2.3594 2.8672-4.3125 2.8672h-7.4219l-0.0547-1.4102-6.1719 0.75391-0.0391 1.6562c0 0.25781 0.17969 0.42969 0.43359 0.42969h17.91c3.0938 0 5.4492-2.0898 6.0625-5.0039z"/>
  </clipPath>
  <linearGradient id="a" x1=".040697" x2=".38388" gradientTransform="matrix(71.125 0 0 71.125 545.52 519.32)" gradientUnits="userSpaceOnUse">
   <stop stop-color="#c0c0c0" offset="0"/>
   <stop stop-color="#c0c0c0" offset=".03125"/>
   <stop stop-color="#c1c1c1" offset=".0625"/>
   <stop stop-color="#c1c1c1" offset=".09375"/>
   <stop stop-color="#c2c2c2" offset=".125"/>
   <stop stop-color="#c2c2c2" offset=".15625"/>
   <stop stop-color="#c3c3c3" offset=".1875"/>
   <stop stop-color="#c4c4c4" offset=".21875"/>
   <stop stop-color="#c4c4c4" offset=".25"/>
   <stop stop-color="#c5c5c5" offset=".28125"/>
   <stop stop-color="#c5c5c5" offset=".3125"/>
   <stop stop-color="#c6c6c6" offset=".34375"/>
   <stop stop-color="#c6c6c6" offset=".375"/>
   <stop stop-color="#c7c7c7" offset=".40625"/>
   <stop stop-color="#c7c7c7" offset=".4375"/>
   <stop stop-color="#c8c8c8" offset=".46875"/>
   <stop stop-color="#c8c8c8" offset=".5"/>
   <stop stop-color="#c9c9c9" offset=".53125"/>
   <stop stop-color="#c9c9c9" offset=".5625"/>
   <stop stop-color="#cacaca" offset=".59375"/>
   <stop stop-color="#cacaca" offset=".625"/>
   <stop stop-color="#cbcbcb" offset=".65625"/>
   <stop stop-color="#ccc" offset=".6875"/>
   <stop stop-color="#ccc" offset=".71875"/>
   <stop stop-color="#cdcdcd" offset=".75"/>
   <stop stop-color="#cdcdcd" offset=".78125"/>
   <stop stop-color="#cecece" offset=".8125"/>
   <stop stop-color="#cecece" offset=".84375"/>
   <stop stop-color="#cfcfcf" offset=".875"/>
   <stop stop-color="#cfcfcf" offset=".90625"/>
   <stop stop-color="#d0d0d0" offset=".9375"/>
   <stop stop-color="#d0d0d0" offset=".96875"/>
   <stop stop-color="#d1d1d1" offset="1"/>
  </linearGradient>
 </defs>
 <g transform="translate(328.23 -238.51)">
  <path d="m-128.24 261.37c0 12.231-9.8897 22.12-22.095 22.12-12.204 0-22.12-9.8897-22.12-22.12 0-12.204 9.9162-22.095 22.12-22.095 12.204 0 22.095 9.8897 22.095 22.095" fill="#17142b" stroke-width="19.087"/>
  <path d="m-142.17 275.3c-2.6567 3.6036-1.7102 5.9444 1.7884 4.8397 2.8409-0.89518 5.9446-3.7349 7.207-6.1548 1.1051-2.1305 0.65659-3.7086-1.1318-3.7349-2.104-0.0191-5.6285 2.0253-7.8642 5.05" fill="#7fcce6" stroke-width="19.087"/>
  <path d="m-150.38 239.23c-6.2336 0-11.836 2.5513-15.86 6.6808-2.7353 3.2352-3.4719 4.9712-3.9979 6.7071-0.57834 1.9201-0.36838 3.5773 1.6835 3.2352 2.0253-0.34165 4.0504-2.8668 6.7596-6.1021 2.7355-3.2091 6.76-5.655 11.152-6.7335 4.3924-1.0784 6.8386-0.57833 12.415 1.0002v-1.1567c-3.4982-2.2883-7.6804-3.6298-12.152-3.6298" fill="#4f5163" stroke-width="19.087"/>
  <path d="m-130.91 255.26c0.81501 0.44663 1.3685 0.0573 1.2101-0.94671-0.15269-0.97343-1.2101-3.1037-1.2101-3.1037s-2.5252-4.8923-7.0228-8.0485c-2.2095-1.525-4.7872-2.5513-6.8125-3.2089-1.7884-0.47336-3.6559-0.71004-5.576-0.71004h-0.73675c0.89518 0.0763 2.1572 0.20996 3.0514 0.52489 1.4735 0.50008 2.3145 0.81501 4.6028 2.604 0 0 0.89517 0.73675 2.0253 1.999 1.1318 1.2884 1.999 2.3673 3.1827 3.8664 1.1834 1.525 2.3672 3.1037 3.8137 4.5505 1.4735 1.4735 2.604 2.3408 3.4717 2.4723" fill="#283f5c" stroke-width="19.087"/>
  <path d="m-129.76 254.5-0.34166 0.71003c-0.31684 0.20996-0.84173 0.0191-1.63-0.55161-0.91999-0.62986-1.6052-1.2101-2.9197-2.525-1.1318-1.1567-2.6828-2.9986-3.8139-4.3661l-0.55161-0.68331-0.0191-0.0191c-1.1567-1.3685-3.0772-3.6824-4.6555-4.9448-1.63-1.3151-2.7353-1.8419-3.8664-2.2622-1.0002-0.36838-2.2356-0.52489-2.9986-0.60505h-0.57833c0.89517 0.0763 2.1568 0.20995 3.0514 0.52679 1.4735 0.50008 2.3143 0.81501 4.6028 2.6038 0 0 0.89326 0.73675 2.0253 1.9992l1.4201 1.6567 0.91998 1.1051 0.0191 0.0191 0.55161 0.68331c1.1318 1.3418 2.6828 3.2089 3.8139 4.3661 1.3151 1.3151 2.0253 1.8934 2.9459 2.5513 0.60505 0.42182 1.0784 0.65849 1.3933 0.65849l0.34165-0.11452 0.23668-0.31493 0.0573-0.50008" fill="#477db3" stroke-width="19.087"/>
  <path d="m-155.72 283.13c0.1336 0.50008 0.71003 1.13 1.3685 1.1567 0.68331 0.0191 1.3151-0.42182 2.1568-1.2101 0.86845-0.76347 2.7353-3.5771 3.2616-4.4188 0.55161-0.81501 2.3145-3.314 2.8668-3.9716 0.57833-0.65849 2.3673-2.7092 3.9454-3.9454 1.5785-1.2101 3.9191-2.4462 6.1023-2.5777 2.2358-0.15269 3.6298 0.57833 4.4186 2.2095 0.815 1.6052 0.29012 4.3661-0.94671 6.1021-1.2101 1.7369-3.6559 3.8139-7.2332 5.5235-3.5771 1.6835-6.1021 2.1568-8.4167 2.4462-2.341 0.29012-3.9191 0.1527-4.7345 0.13361-0.81501-0.0573-1.1567-0.0573-1.6835-0.20995l-0.94671-0.76348-0.23668-0.47335z" fill="#3da1dc" stroke-width="19.087"/>
  <path d="m-152.28 282.94 0.5268-0.55161c-0.36838-0.0191-1.2368-0.13361-2.9986-0.55161-2.5513-0.63178-5.2342-2.0515-7.128-3.3667-1.92-1.3151-4.2083-3.5771-5.576-5.5497-1.3933-1.999-2.4723-4.077-3.0774-5.576-0.63178-1.4983-0.78829-1.9992-0.81501-1.7884-0.0573 0.23667 0.36837 2.2093 1.0517 3.9716-0.73675-1.5785-1.1051-2.4987-1.3418-3.13-0.20996-0.60506-0.41991-1.0784-0.3951-0.57834 0.0573 0.5268 0.47335 2.7092 1.8152 5.5236 1.3685 2.8144 3.3142 5.0236 4.7082 6.3387 1.3933 1.3151 3.1564 2.6828 5.8917 3.9979 2.7092 1.3151 5.3657 1.63 6.6546 1.8686l0.68331-0.60505" fill="#e3338a" stroke-width="19.087"/>
  <path d="m-161.83 278.55c-1.92-1.3151-4.2083-3.5771-5.576-5.5497-1.3933-1.9728-2.4723-4.077-3.0774-5.5762-0.63177-1.5002-0.78829-1.999-0.81501-1.7884-0.0573 0.20995 0.34166 2.0251 0.97343 3.7612l0.34166 0.73676c0.65849 1.2368 1.1567 2.0253 2.1568 3.4194 1.025 1.4201 2.2093 2.6038 3.2616 3.5771 1.025 0.94671 2.5775 2.3147 5.2867 3.6561 2.7355 1.3418 4.4715 1.7884 6.8123 2.2356l0.20996 0.0573 0.0191-0.0573 0.5268-0.55161c-0.36837-0.0191-1.2101-0.13361-2.9985-0.55161-2.5513-0.63178-5.2078-2.0515-7.1278-3.3667" fill="#3d235c" stroke-width="19.087"/>
  <path d="m-152.48 283.32c-0.41991-0.0573-0.94671-0.15269-1.7369-0.31684-2.0778-0.3951-4.8133-1.2884-7.6277-3.1037-2.8407-1.8152-4.077-3.1825-5.4184-4.9448-1.3418-1.7617-2.183-3.3667-2.8407-5.1288l-0.29012-0.71003 0.19087 0.50008c-0.73675-1.5785-1.1051-2.4987-1.3418-3.1299-0.20995-0.60506-0.41991-1.0784-0.39509-0.57834 0.0573 0.50008 0.47335 2.7355 1.8152 5.5236 1.3666 2.8144 3.314 5.0237 4.708 6.3387 1.3933 1.3151 3.1564 2.6828 5.8919 3.9981 2.7353 1.3151 5.3655 1.63 6.6544 1.8667l0.3951-0.31684" fill="#a82e73" stroke-width="19.087"/>
  <path d="m-137.78 267.48c-3.0512 0.3951-6.1286 2.9985-7.654 4.6293-1.4983 1.63-3.3667 4.2083-4.5503 5.9442-0.76347 1.1318-1.63 2.2358-2.3673 3.0512l-1.0517 1.0002c0.97343 0.20996 1.4983 0.2634 1.7617 0.29012l0.91999-1.2101 0.1336-0.19087 0.0191-0.0191c0.68331-0.97343 1.3685-1.9992 1.6567-2.4462 0.55161-0.81501 2.3148-3.314 2.867-3.9718 0.57833-0.6585 2.3672-2.709 3.9454-3.9452 1.5785-1.2101 3.9191-2.4462 6.1284-2.5777 0.60506-0.0573 1.1567-0.0191 1.6567 0.0763-0.36838-0.34166-1.3151-0.89327-3.4721-0.63178" fill="#283d66" stroke-width="19.087"/>
  <path d="m-151.71 282.37-0.1336 0.1527z" fill="#283d66" stroke-width="19.087"/>
  <path d="m-152.28 283.13 0.0954-0.0954z" fill="#283d66" stroke-width="19.087"/>
  <path d="m-155.72 283.13c0.1336 0.50008 0.71003 1.13 1.3685 1.1567l1.4735-0.60506c-0.6585-0.0954-1.6567-0.26339-2.8407-0.55161" fill="#264566" stroke-width="19.087"/>
  <path d="m-134.92 267.86c-0.36838-0.1527-0.89517-0.29012-1.6052-0.34166-1.8419-0.0763-4.0506 0.71003-6.1286 2.1568l-1.025 0.78828-0.20996 0.19087-1.4735 1.3685-0.19087 0.19087c-1.4983 1.63-3.3667 4.2085-4.5503 5.9444-0.50007 0.73676-1.025 1.4468-1.5518 2.078l-0.55161 0.65659-0.2634 0.31493-1.0517 1.0002 0.0763 0.0191c0.68331-0.55161 1.0002-0.89518 1.1051-1.0269l0.1336-0.13361c0.5268-0.55161 1.0002-1.2101 1.8152-2.341l1.5785-2.2356c1.2884-1.8152 2.6038-3.7088 4.9975-5.7602 2.3672-2.0253 5.0763-3.1827 7.2856-3.0774 0.97343 0.0573 1.5785 0.31493 1.9465 0.52489l0.1527 0.0191-0.50008-0.34166" fill="#4a78ae" stroke-width="19.087"/>
  <path d="m-152.86 283.7 0.29012-0.23668-1.525-0.2634c-2.7882-0.57833-5.2869-1.3418-8.3117-3.3142-3.051-1.999-4.7082-3.9454-5.8127-5.4972-1.1051-1.525-2.2622-3.6559-2.867-5.5497-0.57833-1.9201-0.73675-2.3673-0.81501-2.9459l-0.0191-0.0573v0.1336c0.0573 0.50008 0.47335 2.7355 1.8152 5.5236 1.3685 2.8144 3.3142 5.0238 4.7082 6.3391 1.3933 1.3151 3.1564 2.6828 5.8917 3.9979 2.7355 1.3151 5.3657 1.63 6.6546 1.8667" fill="#c72e7f" stroke-width="19.087"/>
  <path d="m-132.24 275.88c0.36837-0.63177 0.63177-1.3685 0.81501-2.1305 0.23667-1.525 0.2634-3.13-1.1051-4.5503-1.3933-1.3933-3.7613-1.2368-5.5235-0.60505-1.6567 0.60505-4.1294 2.0253-6.0757 4.2873-1.9728 2.2883-2.9197 3.5507-3.8403 4.9448-1.1318 1.735-2.4462 3.6561-3.6034 4.9712-1.2368 1.3418-2.0253 1.5518-2.8407 1.4735l-0.42182-0.0573 0.19086 0.0573 0.63178 0.13361c0.71003-0.0191 1.4735-0.36838 2.525-1.5518 1.1834-1.2884 2.4987-3.2089 3.6297-4.9448 0.91999-1.4201 1.8419-2.6565 3.8138-4.9448 1.9465-2.2356 4.3926-3.6561 6.0496-4.261 1.7102-0.60505 4.0243-0.78828 5.392 0.60506 1.3418 1.3685 1.2884 2.9459 1.0784 4.4451-0.15269 0.91999-0.50007 1.7102-0.71003 2.1305" fill="#b8dee8" stroke-width="19.087"/>
  <path d="m-129.76 251.45c-0.76348-1.4201-1.4735-2.6304-2.8407-4.261-1.3418-1.6567-2.5777-2.6828-4.1823-3.9454-1.6052-1.2616-3.4982-2.262-5.5497-3.1037-2.078-0.84173-4.2611-1.3151-5.5234-1.4983-1.2101-0.1527-3.2354-0.19087-4.761 0.78829l0.34165-0.0191c0.81501-0.42182 1.9463-0.6585 2.9459-0.6585 1.025 0 2.6828 0.2634 4.3398 1.2884 1.6835 1.025 2.9459 2.0253 5.0763 4.524 2.1568 2.525 2.6567 3.3667 4.5766 5.7602 1.9201 2.4198 3.0249 3.4458 4.1033 4.2348 1.0517 0.81501 2.3408 1.2368 2.262-0.13361 0.0954-0.50008 0-1.525-0.78829-2.9722" fill="#4c879c" stroke-width="19.087"/>
  <path d="m-129 254.31c0.0954-0.50008 0-1.525-0.78828-2.972-0.76348-1.4201-1.4735-2.6304-2.8407-4.261-1.3418-1.6567-2.5777-2.6828-4.1821-3.9454-1.6052-1.2368-3.4984-2.262-5.5499-3.1037-2.078-0.84173-4.2611-1.3151-5.5235-1.4983l-0.2634-0.0191c1.6567 0.20995 2.7353 0.73675 4.1294 1.5785 1.3933 0.86845 2.972 2.4198 3.7874 3.3667 0.84173 0.97343 2.1043 2.525 3.6298 4.603 1.4983 2.0515 2.7092 3.6561 3.8928 4.8397 1.1567 1.1834 1.8152 1.6567 2.604 1.9463 0.76347 0.2634 1.0517-0.2634 1.1051-0.5268" fill="#73c7d9" stroke-width="19.087"/>
  <path d="m-149.42 238.66c-1.0002 0-2.1303 0.23668-2.9459 0.6585h-0.13361c0.68331-0.0573 1.3933-0.0763 2.1043-0.0763 1.7617 0 3.498 0.20996 5.1554 0.60505-1.63-0.9467-3.1825-1.1834-4.1821-1.1834" fill="#1e3f57" stroke-width="19.087"/>
  <path d="m-154.58 245.91c0.42182 0.29012 0.76347 2.8934-4.0506 6.4704-4.8133 3.5771-6.5754 2.8932-7.0751 2.3672-0.815 0.11453-2.42-0.71003-1.2884-3.9191 1.1318-3.2089 4.8133-5.7602 6.9175-6.4702 2.078-0.71003 3.3142-0.65849 4.2348-0.36837 0.89517 0.26339 1.2616 1.1834 1.2616 1.5518v0.36837" fill="#1e2147" stroke-width="19.087"/>
  <path d="m-207.06 254.69h-7.7328c-1.63 0-3.2089 1.3418-3.5246 2.9195l-1.3151 7.2856c-0.29012 1.6052 0.81501 2.9722 2.4723 2.9722h7.8909c1.63 0 3.2089-1.3151 3.498-2.8932l1.3151-7.3122c0.34165-2.1832-1.4468-2.972-2.604-2.972m-1.8152 9.7318-0.3951 0.31494-7.128-0.0191 1.025-5.576c0.19087-1.0002-1.0517-1.2101-1.0517-1.2101v-0.0573h8.7588zm-26.382 3.4456h7.7594c1.6567 0 3.2089-1.3151 3.498-2.8932l1.3418-7.3122c0.31493-2.1832-1.4735-2.972-2.6304-2.972h-7.7067c-1.6567 0-3.235 1.3418-3.5244 2.9195l-2.525 14.124h3.1035zm8.1539-3.4456-0.36838 0.31494-7.1543-0.0191 1.0269-5.576c0.1527-1.0002-1.0784-1.2101-1.0784-1.2101v-0.0573h8.7849zm28.302 3.4456 1.525-8.7061c0.1527-1.0002-1.1051-1.2368-1.1051-1.2368v-0.0573l7.6804-0.0191 0.60506-3.1562h-6.5493c-1.6567 0-3.2352 1.3685-3.5246 2.9459l-1.8152 10.232zm13.756-17.044h3.1825l-0.71003 3.8666h6.3918l-0.5268 3.1562-7.6017 0.0191v0.0573s1.1834 0.20996 1.025 1.2101l-1.0517 5.5762 6.3653 0.0191-0.55161 3.13h-6.6018c-1.6567 0-2.7619-1.3418-2.4725-2.9459l1.3418-7.2597zm-55.84 7.1018h-10.495l9.3373 4.9446 0.47336 1.3685-0.91999 2.5513c-0.3951 0.78828-1.3151 1.0784-2.7617 1.0784h-10.39l0.57833-3.2616h10.468l-9.5476-4.8922c-0.47335-0.26339-0.63177-0.63177-0.3951-1.3418l0.84173-2.4987c0.29012-0.68331 0.97343-1.1834 2.7092-1.1834h10.679z" fill="#4c87c7" stroke-width="19.087"/>
  <path d="m-235.89 271.87h-3.4192l2.5513-14.256c0.29012-1.6567 1.9465-2.9984 3.6561-2.9984h7.7328c0.68331 0 1.63 0.20995 2.2356 0.89517 0.50008 0.55161 0.6585 1.2616 0.55161 2.1568l-1.3418 7.1805c-0.29012 1.6567-1.9461 2.9195-3.6559 2.9195h-7.6015zm-3.051-0.41991h2.788l0.71003-3.8928h7.8646c1.5785 0 3.0774-1.2101 3.3404-2.7355l1.3418-7.2332c0.0954-0.78828-0.0573-1.4468-0.47335-1.9199-0.5268-0.60506-1.3933-0.84173-1.9992-0.84173h-7.7065c-1.6052 0-3.1037 1.2101-3.3931 2.7355zm40.189-3.4456h-3.4982l1.8419-10.363c0.31493-1.6567 1.9463-3.0247 3.6561-3.0247h6.7596l-0.60506 3.3667-7.1278-0.0191 0.55161 1.2101zm-3.13-0.44664h2.8668l1.525-8.5219c0.1527-0.84173-0.89517-1.025-0.9467-1.025l-0.0954-0.0191-0.0191-0.34166h7.7065l0.50008-2.8145h-6.3653c-1.5785 0-3.1037 1.2368-3.3667 2.7617zm-43.451 0.44664h-10.574l0.63178-3.4458h9.9687l-8.9954-4.7082c-0.57833-0.31494-0.73675-0.84173-0.44663-1.5518l0.84173-2.4462c0.34166-0.86845 1.2368-1.2368 2.8407-1.2368h10.863l-0.63178 3.2352h-10.021l8.8113 4.7343c0.57833 0.34165 0.76347 0.91998 0.52679 1.6052l-0.91998 2.5777c-0.3951 0.81501-1.2616 1.2368-2.8932 1.2368m-10.205-0.44663h10.205c1.4983 0 2.2881-0.2634 2.6038-0.94671l0.91999-2.5252-0.3951-1.1834-9.8897-5.2605h10.994l0.5268-2.8144h-10.495c-1.92 0-2.3672 0.63178-2.5513 1.0784l-0.84173 2.4725c-0.29012 0.73675 0 0.97343 0.31493 1.1567l10.074 5.2342h-10.942zm77.065 0.20995h-6.7335c-0.84173 0-1.5785-0.2634-2.0778-0.84173-0.50008-0.57833-0.68331-1.3418-0.5268-2.1568l1.3151-7.2595 1.2368-6.97h3.4982l-0.71003 4.0768h6.3914l-0.63177 3.3667-7.1016-0.0191 0.55161 1.1567-0.97343 5.3918 6.3653-0.0573zm-6.5229-16.807-1.1834 6.681-1.3418 7.233c-0.13361 0.73675 0.0191 1.3933 0.47335 1.9201 0.44664 0.50008 1.1051 0.76348 1.8419 0.76348h6.4703l0.50007-2.7619h-6.3914l1.0517-5.7602c0.13361-0.84173-0.89326-1.025-0.91998-1.025l-0.13361-0.0191v-0.34165h7.6804l0.47335-2.8144h-6.3653l0.71003-3.8664zm-24.462 16.807h-7.7855c-0.84173 0-1.5785-0.2634-2.0778-0.84173-0.50008-0.57833-0.71003-1.3418-0.55161-2.1568l1.3151-7.1805c0.31493-1.6567 1.9726-2.9722 3.6824-2.9722h7.7328c0.68331 0 1.63 0.20996 2.2356 0.89518 0.47336 0.55161 0.6585 1.2616 0.5268 2.1568l-1.3685 7.2068c-0.31493 1.6567-1.9463 2.8934-3.7086 2.8934m-5.4182-12.941c-1.5785 0-3.0776 1.2616-3.3667 2.788l-1.3151 7.2332c-0.1336 0.73675 0.0191 1.4201 0.47336 1.92 0.44663 0.5268 1.0784 0.79019 1.8419 0.79019h7.8909c1.5518 0 3.0774-1.2101 3.3404-2.7355l1.3418-7.2332c0.0954-0.78829-0.0573-1.4468-0.47336-1.9201-0.55161-0.60505-1.3933-0.84173-1.9993-0.84173zm5.5497 9.9948-7.3383-0.0191 1.0517-5.7602c0.13361-0.84173-0.89517-1.025-0.9467-1.025l-0.13361-0.0191v-0.34166h9.1008l-1.2101 6.7335zm-6.9701-0.31684 6.9438 0.0573 0.23668-0.20995 1.1567-6.3914h-7.8909l0.55161 1.1567zm-11.257 0.31684-7.3383-0.0191 1.0517-5.7602c0.1336-0.84173-0.89518-1.025-0.94671-1.025l-0.1527-0.0191 0.0573-0.34166h9.1008l-1.2368 6.7335zm-6.9701-0.31684 6.9701 0.0573 0.20996-0.20995 1.1834-6.3914h-7.917l0.55161 1.1567z" fill="#3f85c5" stroke-width="19.087"/>
  <path d="m-215.84 262.71h-0.31684l-0.3951 2.1043 0.36838-0.29012z" fill="#3061ab" stroke-width="19.087"/>
  <path d="m-198.28 266.14-0.31494-0.13361-0.29012 1.5518h-2.867l-0.36838 0.44664h3.4982z" fill="#3061ab" stroke-width="19.087"/>
  <path d="m-206.11 265.95-0.23668-0.0954c-0.60505 1.025-1.7617 1.7617-2.9722 1.7617h-7.8907c-0.76348 0-1.3933-0.29012-1.8419-0.815l-0.47336-0.94671-0.29012 0.0954 0.5268 1.0002c0.50007 0.57833 1.2368 0.86845 2.0778 0.86845h7.7855c1.3685 0 2.6567-0.76347 3.3142-1.8667" fill="#3061ab" stroke-width="19.087"/>
  <path d="m-184.54 257.74 0.81501 0.34165h7.1018l-0.23668-0.34165z" fill="#3061ab" stroke-width="19.087"/>
  <path d="m-178.62 267.67h-6.4702c-0.73675 0-1.3933-0.2634-1.8419-0.78829l-0.50008-1.5002h-0.31684c-0.0191 0.63177 0.19087 1.1834 0.57833 1.6567 0.50008 0.57834 1.2368 0.86846 2.0778 0.86846h6.7335z" fill="#3061ab" stroke-width="19.087"/>
  <path d="m-190.84 257.74h-7.7067l0.84173 0.34165h7.1282z" fill="#3061ab" stroke-width="19.087"/>
  <path d="m-242.37 266.72 0.91999-2.5777c0.23667-0.68331 0.0573-1.2616-0.5268-1.6052l-8.8112-4.7343-1.2368-0.20995 9.8897 5.2605 0.3951 1.1834-0.91999 2.525c-0.34165 0.68331-1.1051 0.9467-2.6304 0.9467h-10.179l-0.36838 0.44664h10.547c1.6567 0 2.525-0.42182 2.9197-1.2368" fill="#3061ab" stroke-width="19.087"/>
  <path d="m-204.77 255.45c-0.60505-0.68331-1.5518-0.89518-2.2356-0.89518h-7.7328c-1.4201 0-2.7882 0.89518-3.3931 2.1566l0.2634 0.1336c0.5268-1.1834 1.7884-2.0514 3.13-2.0514h7.7328c0.60505 0 1.4468 0.20995 1.9992 0.81501l0.29012 0.42182 0.23667-0.13361-0.29012-0.44663" fill="#3061ab" stroke-width="19.087"/>
  <path d="m-236.08 271.49h-2.788l-0.36837 0.41991h3.4192z" fill="#3061ab" stroke-width="19.087"/>
  <path d="m-223.86 264.81 0.60506-3.2877h-0.31494l-0.60505 3.2614c-0.2634 1.525-1.7617 2.7619-3.3404 2.7619h-7.8644l0.2634 0.20995h7.6013c1.7102 0 3.3667-1.2884 3.6561-2.9459" fill="#3061ab" stroke-width="19.087"/>
  <path d="m-234.74 264.81 0.36838-0.29012 1.0002-5.392-0.55161-1.1567-0.86845 0.0191 0.15269 0.0191c0.0573 0 1.0784 0.19087 0.94671 1.025z" fill="#3061ab" stroke-width="19.087"/>
  <path d="m-216.61 257.94 0.1527-0.13361-0.20996-0.20996v0.34166z" fill="#87b8e3" stroke-width="19.087"/>
  <path d="m-223.1 256.03c0.29012 0.47336 0.39509 1.025 0.29012 1.6835l-0.73676 3.9454h0.31494l0.71003-3.8664c0.13361-0.76347 0-1.4201-0.34166-1.9201z" fill="#87b8e3" stroke-width="19.087"/>
  <path d="m-215.27 259.08-0.1336-0.71003-0.2634 0.1336 0.0763 0.5268-0.65849 3.6299h0.31493z" fill="#87b8e3" stroke-width="19.087"/>
  <path d="m-204.58 255.84-0.2634 0.11452 0.2634 0.68331 0.29012-0.0763z" fill="#87b8e3" stroke-width="19.087"/>
  <path d="m-218.52 257.55 0.29012 0.0763v-0.0191l0.20996-0.68331-0.2634-0.13361z" fill="#87b8e3" stroke-width="19.087"/>
  <path d="m-182.82 254.88 0.36838-0.23668 0.71003-4.1031-0.36838 0.44664z" fill="#87b8e3" stroke-width="19.087"/>
  <path d="m-184.54 257.94 0.13361-0.13361-0.20996-0.20996v0.34166z" fill="#87b8e3" stroke-width="19.087"/>
  <path d="m-187.79 264.81-0.0573 0.31493h0.31684l0.0191-0.20995 1.3151-7.2332 1.2101-6.6808-0.2634-0.42182-1.2368 6.9701z" fill="#87b8e3" stroke-width="19.087"/>
  <path d="m-198.47 257.94 0.15269-0.1527-0.19086-0.19087v0.34166z" fill="#87b8e3" stroke-width="19.087"/>
  <path d="m-234.74 257.74-0.0573 0.34165h0.0573l0.19087-0.19087z" fill="#87b8e3" stroke-width="19.087"/>
  <path d="m-226.91 264.42 1.2368-6.7334-0.36837 0.31684-1.1834 6.3914-0.0573 0.13361 0.13361 0.2634z" fill="#87b8e3" stroke-width="19.087"/>
  <path d="m-190.27 254.88-0.50007 2.788 0.2634 0.34165 0.60505-3.3667z" fill="#87b8e3" stroke-width="19.087"/>
  <path d="m-176.33 254.88-0.50007 2.788 0.23667 0.34165 0.63178-3.3667z" fill="#87b8e3" stroke-width="19.087"/>
  <path d="m-238.56 270.15-0.29012-0.0191-0.31493 1.8152 0.36837-0.41991z" fill="#87b8e3" stroke-width="19.087"/>
  <path d="m-178.24 264.81-0.50008 2.7617 0.2634 0.23667 0.60505-3.3406z" fill="#87b8e3" stroke-width="19.087"/>
  <path d="m-240.47 254.88-0.5268 2.788 0.2634 0.20995 0.65849-3.2352z" fill="#87b8e3" stroke-width="19.087"/>
  <path d="m-241.42 263.28-0.29012 0.11452 0.0573 0.34166 0.31494 0.0954z" fill="#87b8e3" stroke-width="19.087"/>
  <path d="m-254.78 259.27 0.29012-0.13361 0.0573-0.81501 0.84173-2.4725c0.13361-0.31493 0.36838-0.68331 1.1051-0.89517l-0.0763-0.20996c-0.68331 0.19087-1.1051 0.5268-1.3151 1.0517l-0.84173 2.42-0.0573 1.0517" fill="#87b8e3" stroke-width="19.087"/>
  <path d="m-254.97 264.81-0.2634-0.20995-0.63177 3.4456 0.36838-0.44663z" fill="#87b8e3" stroke-width="19.087"/>
  <path d="m-155.91 275.11s1.0784-5.1552 2.5252-11.862c0.97343-4.603 1.999-10.021 1.999-10.021l-5.8129 0.19087v-4.1294c1.8934-0.63178 8.1274-2.2095 11.021-2.2095h2.8932s-1.025 6.7071-2.4723 14.019c-0.97342 4.8395-3.0512 14.019-3.0512 14.019z" fill="#fff" stroke-width="19.087"/>
  <path d="m-154.58 245.91v-0.36837c0-0.36838-0.36838-1.2884-1.2616-1.5518-0.91999-0.29012-2.1568-0.34166-4.2348 0.36837-2.1041 0.71003-5.7866 3.2614-6.9175 6.4702-1.1318 3.2089 0.47336 4.0243 1.2884 3.9191 1.4735-0.20995 2.867-0.26339 6.5756-3.1564 3.7349-2.8932 4.4451-4.787 4.5505-5.6812" fill="#213a82" stroke-width="19.087"/>
  <path d="m-154.58 245.72c-0.13361 0.91999-0.84173 2.867-4.5765 5.8392-3.1037 2.4987-4.603 2.9459-5.8656 3.1562 1.2616-0.19086 2.7355-0.60505 5.8917-3.051 3.7351-2.8932 4.4451-4.787 4.5503-5.6814v-0.2634" fill="#3d63ab" stroke-width="19.087"/>
  <path d="m-155.72 244c-0.91999-0.29012-2.1568-0.34166-4.2348 0.36837-2.1041 0.71003-5.7866 3.2616-6.9175 6.4704-0.34165 1.0002-0.41991 1.7617-0.36837 2.3408l0.0191 0.0573c0.20996 0.78828 1.0517 0.47335 1.5518 0.0763 0.50008-0.39509 1.3933-1.2101 3.1301-3.314 1.735-2.1041 4.2609-4.1558 5.1025-4.7606 0.84173-0.60505 1.9465-0.86845 2.1832-0.84173l0.31493 0.0954-0.78829-0.50008" fill="#7094cf" stroke-width="19.087"/>
  <g transform="matrix(2.9321 0 0 2.8884 -232.64 -390.71)">
   <path d="m-8.9324 223.45h-1.9678c-0.09095 0-0.15158 0.0606-0.15158 0.1502l0.0055 4.2402c0.0014 0.0923 0.06201 0.15296 0.15296 0.15296h1.9678c0.09095 0 0.15296-0.0606 0.15158-0.15296l-0.00413-4.2402c-0.00138-0.0896-0.062012-0.1502-0.15434-0.1502" fill="#fff" stroke="#999" stroke-miterlimit="10" stroke-width=".031044"/>
   <g transform="matrix(.35278 0 0 .35278 -226.02 43.872)" clip-path="url(#m)">
    <g clip-path="url(#l)">
     <path d="m609.46 511.79v10.031h6.2656v-10.031z" fill="url(#d)"/>
    </g>
   </g>
   <path d="m-13.765 223.44h-4.4263c-1.2568 0-2.271 1.0156-2.2683 2.271 0 1.2554 1.0184 2.271 2.2738 2.271h6.4285c0.09233 0 0.15021-0.0592 0.15021-0.15158l-0.0014-2.2448c-0.0014-0.0909-0.06063-0.15296-0.15296-0.15296h-1.9678c-0.09233 0-0.15021 0.062-0.15021 0.15159l0.0028 1.83h-2.6059c-0.65457 0-1.706-0.5085-1.706-1.695 0-1.1879 0.95085-1.7129 1.6977-1.7129h2.5742c0.04823 0 0.09646-0.0289 0.11713-0.0675l0.16536-0.28388c0.04961-0.0827 0.01102-0.21497-0.13091-0.21497" fill="#fff" stroke="#999" stroke-miterlimit="10" stroke-width=".031044"/>
   <g transform="matrix(.35278 0 0 .35278 -226.02 43.872)" clip-path="url(#k)">
    <g clip-path="url(#j)">
     <path d="m582.81 514.79v7.0195h24.883v-7.0195z" fill="url(#c)"/>
    </g>
   </g>
   <path d="m-21.178 223.44h-1.9678c-0.09095 0-0.15296 0.0606-0.15158 0.15021l0.0055 4.2416c0 0.0923 0.06063 0.15159 0.15158 0.15159h1.9692c0.08957 0 0.15158-0.0593 0.15021-0.15159l-0.0055-4.2416c0.0014-0.0896-0.06063-0.15021-0.15158-0.15021" fill="#fff" stroke="#999" stroke-miterlimit="10" stroke-width=".031044"/>
   <g transform="matrix(.35278 0 0 .35278 -226.02 43.872)" clip-path="url(#i)">
    <g clip-path="url(#h)">
     <path d="m574.75 515.88v5.9336h6.2656v-5.9336z" fill="url(#b)"/>
    </g>
   </g>
   <path d="m-26.085 223.45h-6.3472c-0.09233 0-0.15434 0.0606-0.15434 0.15158l0.0055 4.2388c0.0014 0.0923 0.06339 0.15296 0.15434 0.15296h6.3472c1.254 0 2.271-1.017 2.2696-2.271-0.0014-1.2554-1.0198-2.2724-2.2751-2.2724m-4.2223 3.9784-0.0055-3.4106h2.5315c0.9853 0 1.695 0.81993 1.695 1.6964 0 0.87643-0.70556 1.7115-1.6964 1.7115-0.78824 0-2.5246 3e-3 -2.5246 3e-3" fill="#fff"/>
   <g transform="matrix(.35278 0 0 .35278 -226.02 43.872)" clip-path="url(#g)">
    <path transform="matrix(1 0 0 -1 566.74 509.04)" d="m-0.0011125 5.4375e-4h-17.992c-0.26172 0-0.4375-0.17187-0.4375-0.42969l0.01563-12.016c0.0039-0.26172 0.17969-0.43359 0.4375-0.43359h17.992c3.5547 0 6.4375 2.8828 6.4336 6.4375-0.003906 3.5586-2.8906 6.4414-6.4492 6.4414m-11.969-11.277-0.01563 9.668h7.1758c2.793 0 4.8047-2.3242 4.8047-4.8086s-2-4.8516-4.8086-4.8516c-2.2344 0-7.1562-0.0078-7.1562-0.0078" fill="none" stroke="#999" stroke-miterlimit="10" stroke-width=".088"/>
   </g>
   <g transform="matrix(.35278 0 0 .35278 -226.02 43.872)" clip-path="url(#f)">
    <g clip-path="url(#e)">
     <path d="m548.42 516.82v5.0039h24.406v-5.0039z" fill="url(#a)"/>
    </g>
   </g>
  </g>
 </g>
</svg>
