<svg width="200mm" height="173.458" viewBox="0 0 200 45.894" xmlns="http://www.w3.org/2000/svg">
    <defs>
        <linearGradient id="J" x1="296.32" x2="297.35" y1="-29.597" y2="-28.534" gradientTransform="translate(-6681.9 2551.6) scale(.32433)" gradientUnits="userSpaceOnUse">
            <stop stop-color="#ababab" offset="0"/>
            <stop stop-color="#ababab" stop-opacity="0" offset="1"/>
        </linearGradient>
        <linearGradient id="K" x1="608.25" x2="612.4" y1="343.24" y2="339.09" gradientTransform="matrix(1.5859 0 0 -1.5859 -7528.5 3139.9)" gradientUnits="userSpaceOnUse">
            <stop stop-opacity="0" offset="0"/>
            <stop offset="1"/>
        </linearGradient>
        <clipPath id="g">
            <path d="M548.72 285.16h.01z"/>
        </clipPath>
        <linearGradient id="b" x2="1" gradientTransform="scale(35.408 -35.408) rotate(21.001 36.067 38.308)" gradientUnits="userSpaceOnUse">
            <stop stop-color="#fff" offset="0"/>
            <stop stop-color="#fff" stop-opacity="0" offset="1"/>
        </linearGradient>
        <linearGradient id="k" x2="1" gradientTransform="scale(35.408 -35.408) rotate(21.001 36.067 38.308)" gradientUnits="userSpaceOnUse">
            <stop stop-color="#252971" offset="0"/>
            <stop stop-color="#080619" offset="1"/>
        </linearGradient>
        <linearGradient id="o" x2="1" gradientTransform="scale(-22.39 22.39) rotate(-40.484 9.806 44.435)" gradientUnits="userSpaceOnUse">
            <stop stop-color="#131b48" offset="0"/>
            <stop stop-color="#161a46" offset=".496"/>
            <stop stop-color="#2e3c7f" offset="1"/>
        </linearGradient>
        <linearGradient id="p" x2="1" gradientTransform="scale(-6.042 6.042) rotate(53.033 -110.103 -66.59)" gradientUnits="userSpaceOnUse">
            <stop stop-color="#17317a" offset="0"/>
            <stop stop-color="#3369a5" offset=".784"/>
            <stop stop-color="#3369a5" offset="1"/>
        </linearGradient>
        <linearGradient id="v" x2="1" gradientTransform="scale(9.8254 -9.8254) rotate(53 68.2 40.054)" gradientUnits="userSpaceOnUse">
            <stop stop-color="#8ee2ff" offset="0"/>
            <stop stop-color="#8ee2ff" offset=".011"/>
            <stop stop-color="#8ee2ff" offset=".339"/>
            <stop stop-color="#214bb1" offset="1"/>
        </linearGradient>
        <linearGradient id="x" x2="1" gradientTransform="scale(40.093 -40.093) rotate(44.706 19.39 13.381)" gradientUnits="userSpaceOnUse">
            <stop stop-color="#0e1523" offset="0"/>
            <stop stop-color="#2f4664" offset=".5"/>
            <stop stop-color="#26385a" offset="1"/>
        </linearGradient>
        <linearGradient id="y" x2="1" gradientTransform="scale(42.31 -42.31) rotate(42.878 18.873 13.425)" gradientUnits="userSpaceOnUse">
            <stop stop-color="#162238" offset="0"/>
            <stop stop-color="#428199" offset=".429"/>
            <stop stop-color="#3e5f95" offset="1"/>
        </linearGradient>
        <linearGradient id="A" x2="1" gradientTransform="matrix(34.193 0 0 -34.193 596.38 377.46)" gradientUnits="userSpaceOnUse">
            <stop stop-color="#5eb9d8" offset="0"/>
            <stop stop-color="#346f82" offset=".291"/>
            <stop stop-color="#346f82" offset=".454"/>
            <stop stop-color="#6fb9d4" offset=".695"/>
            <stop stop-color="#254e63" offset=".883"/>
            <stop stop-color="#428199" offset=".957"/>
            <stop stop-color="#428199" offset="1"/>
        </linearGradient>
        <linearGradient id="B" x2="1" gradientTransform="matrix(-5.6286 -22.89 -22.89 5.6286 620.17 389.44)" gradientUnits="userSpaceOnUse">
            <stop stop-color="#2a6372" offset="0"/>
            <stop stop-color="#2a6372" offset=".128"/>
            <stop stop-color="#5fb5d3" offset=".369"/>
            <stop stop-color="#5fb5d3" offset="1"/>
        </linearGradient>
        <linearGradient id="C" x2="1" gradientTransform="scale(16.643 -16.643) rotate(7.94 180.965 254.574)" gradientUnits="userSpaceOnUse">
            <stop stop-color="#6dc2d3" offset="0"/>
            <stop stop-color="#6dc2d3" offset=".138"/>
            <stop stop-color="#7bd1e6" offset=".347"/>
            <stop stop-color="#7bd1e6" offset=".603"/>
            <stop stop-color="#7bd1e6" offset=".721"/>
            <stop stop-color="#58acc6" offset=".965"/>
            <stop stop-color="#58acc6" offset="1"/>
        </linearGradient>
        <linearGradient id="E" x2="1" gradientTransform="matrix(27.582 22.756 22.756 -27.582 597.68 323.59)" gradientUnits="userSpaceOnUse">
            <stop stop-color="#1b2747" offset="0"/>
            <stop stop-color="#30507d" offset=".358"/>
            <stop stop-color="#2a3d6b" offset=".688"/>
            <stop stop-color="#375788" offset="1"/>
        </linearGradient>
        <linearGradient id="G" x2="1" gradientTransform="matrix(29.512 24.742 24.742 -29.512 594.81 323.47)" gradientUnits="userSpaceOnUse">
            <stop stop-color="#334879" offset="0"/>
            <stop stop-color="#547cb9" offset=".511"/>
            <stop stop-color="#334879" offset="1"/>
        </linearGradient>
        <clipPath id="h">
            <path d="M567.86 321.93h63.865v68.013H567.86z"/>
        </clipPath>
        <clipPath id="i">
            <path d="M567.86 356.55c0-17.598 14.266-31.863 31.864-31.863 17.599 0 31.865 14.265 31.865 31.863 0 17.599-14.266 31.865-31.865 31.865-17.598 0-31.864-14.266-31.864-31.865"/>
        </clipPath>
        <mask id="j" x="0" y="0" width="1" height="1" maskUnits="userSpaceOnUse">
            <g clip-path="url(#a)">
                <path d="M576.05 409.74l76.865-29.508-29.508-76.865-76.865 29.508z" fill="url(#b)"/>
            </g>
        </mask>
        <clipPath id="a">
            <path d="M-1702.9 2554.2h4471.5v-4471.5h-4471.5z"/>
        </clipPath>
        <clipPath id="l">
            <path d="M583.87 384.15c-10.331-6.01-14.577-17.194-12.871-18.865 1.499-1.47 3.518-.812 5.527.648 4.161 3.024 8.875 9.999 12.656 12.554 5.981 4.04 13.067 5.446 16.41 5.322 2.882-.108 7.016-.795 8.358-.546 1.645.305.956 1.297.103 1.876-.899.612-6.354 2.123-8.597 2.684-1.56.391-3.268.564-5.036.564-6.008 0-12.7-1.997-16.55-4.237"/>
        </clipPath>
        <mask id="m" x="0" y="0" width="1" height="1" maskUnits="userSpaceOnUse">
            <g clip-path="url(#c)">
                <path d="M579.8 344.42l-20.797 38.389 46.088 24.967 20.797-38.389z" fill="url(#d)"/>
            </g>
        </mask>
        <clipPath id="c">
            <path d="M-1702.9 2554.2h4471.5v-4471.5h-4471.5z"/>
        </clipPath>
        <radialGradient id="d" cx="0" cy="0" r="1" gradientTransform="matrix(-14.642 27.028 27.028 14.642 600.02 357.8)" gradientUnits="userSpaceOnUse">
            <stop stop-color="#fff" stop-opacity=".5" offset="0"/>
            <stop stop-color="#fff" stop-opacity=".5" offset=".716"/>
            <stop stop-color="#fff" stop-opacity=".05" offset="1"/>
        </radialGradient>
        <radialGradient id="n" cx="0" cy="0" r="1" gradientTransform="matrix(-14.642 27.028 27.028 14.642 600.02 357.8)" gradientUnits="userSpaceOnUse">
            <stop stop-color="#fff" offset="0"/>
            <stop stop-color="#fff" offset=".716"/>
            <stop stop-color="#fff" offset="1"/>
        </radialGradient>
        <clipPath id="q">
            <path d="M567.86 321.93h63.865v68.013H567.86z"/>
        </clipPath>
        <clipPath id="r">
            <path d="M575.39 382h17.379v-14.321H575.39z"/>
        </clipPath>
        <clipPath id="s">
            <path d="M580.95 378.14c-3.119-2.559-5.293-5.922-5.541-8.568-.053-.571-.011-1.092.122-1.548a.99.99 0 0 1 .756-.345h.017c.402.003.894.215 1.47.686 1.768 1.445 3.047 3.571 5.504 5.993 4.992 4.923 6.694 6.464 9.488 6.748-.621.586-1.573.895-2.779.895-2.673 0-6.137-1.479-9.037-3.861"/>
        </clipPath>
        <mask id="t" x="0" y="0" width="1" height="1" maskUnits="userSpaceOnUse">
            <g clip-path="url(#e)">
                <path d="M575.36 382h17.409v-14.491H575.36z" fill="url(#f)"/>
            </g>
        </mask>
        <clipPath id="e">
            <path d="M-1702.9 2554.2h4471.5v-4471.5h-4471.5z"/>
        </clipPath>
        <radialGradient id="f" cx="0" cy="0" r="1" fx=".661" fy=".751" gradientTransform="matrix(19.248 0 0 -19.248 593.63 363.38)" gradientUnits="userSpaceOnUse">
            <stop stop-color="#fff" stop-opacity=".3" offset="0"/>
            <stop stop-color="#fff" stop-opacity=".3" offset=".901"/>
            <stop stop-color="#fff" stop-opacity=".9" offset="1"/>
        </radialGradient>
        <radialGradient id="u" cx="0" cy="0" r="1" fx=".661" fy=".751" gradientTransform="matrix(19.248 0 0 -19.248 593.63 363.38)" gradientUnits="userSpaceOnUse">
            <stop stop-color="#4f7be6" offset="0"/>
            <stop stop-color="#4f7be6" offset=".901"/>
            <stop stop-color="#8ee2ff" offset="1"/>
        </radialGradient>
        <clipPath id="w">
            <path d="M567.86 321.93h63.865v68.013H567.86z"/>
        </clipPath>
        <clipPath id="z">
            <path d="M567.86 321.93h63.865v68.013H567.86z"/>
        </clipPath>
        <clipPath id="D">
            <path d="M595.31 347.75h30.084v-22.059H595.31z"/>
        </clipPath>
        <clipPath id="F">
            <path d="M595.31 347.75h30.084v-21.227H595.31z"/>
        </clipPath>
        <radialGradient id="H" cx="0" cy="0" r="1" gradientTransform="matrix(27.241 0 0 -26.149 604.04 349.62)" gradientUnits="userSpaceOnUse">
            <stop stop-color="#5fd2ff" offset="0"/>
            <stop stop-color="#5fd2ff" offset=".472"/>
            <stop stop-color="#5fd2ff" offset=".637"/>
            <stop stop-color="#104563" offset="1"/>
        </radialGradient>
        <clipPath id="I">
            <path d="M567.86 321.93h63.865v68.013H567.86z"/>
        </clipPath>
        <clipPath id="L">
            <path d="M268 454h12v3h-12z"/>
        </clipPath>
        <clipPath id="M">
            <path d="M275.22 454.39c-.273 0-.527.102-.719.29a.994.994 0 0 0-.297.706c0 .55.457 1 1.024 1h2.828l.086-.082v-.973l-.086-.082h-.867l-.082.082v.778h-1.133c-.297 0-.734-.23-.734-.719 0-.469.375-.723.73-.723h1.137l.066-.039.07-.12v-.079l-.07-.039zm-.98.996a.944.944 0 0 1 .285-.684c.187-.18.433-.28.695-.28h1.953l.043.023v.047l-.074.12-.04.024h-1.132c-.371 0-.766.262-.766.754 0 .512.461.75.77.75h1.164v-.809l.05-.05h.868l.05.05v.973l-.05.05h-2.832a.98.98 0 0 1-.984-.968m-1.203-.996l-.06.023-.022.059.004 1.832.019.059.063.023h.867l.058-.023.024-.059v-1.832l-.024-.059-.062-.023zm-.036 1.95l-.011-.036-.004-1.832.015-.035.035-.016h.868l.039.016.011.035.004 1.832-.015.04-.035.01h-.868zm5.434-1.95l-.082.082v1.836l.086.082h.867l.082-.082v-1.836l-.086-.082zm-.047 1.918l-.004-1.836.05-.047h.868l.05.047.005 1.836-.051.047h-.867zm-9.445-1.918l-.082.082v1.836l.086.082h2.797a1.016 1.016 0 0 0 1.02-1c0-.55-.462-1-1.02-1zm-.047 1.918l-.004-1.836.05-.047h2.801c.543 0 .985.434.985.965a.96.96 0 0 1-.285.684c-.188.18-.434.28-.7.28h-2.796zm.965-1.672l.004 1.473h-.012l.043.086v-.051h1.098a.764.764 0 0 0 .765-.758.759.759 0 0 0-.765-.75zm.035.035h1.098c.402 0 .73.32.73.715a.727.727 0 0 1-.73.723h-1.098z"/>
        </clipPath>
        <linearGradient id="N" x1="0" x2="1" gradientTransform="rotate(-90 362.555 93.825) scale(1.9993)" gradientUnits="userSpaceOnUse">
            <stop stop-color="#681a6f" offset="0"/>
            <stop stop-color="#681a6f" offset=".016"/>
            <stop stop-color="#67196e" offset=".031"/>
            <stop stop-color="#66196d" offset=".047"/>
            <stop stop-color="#65196c" offset=".063"/>
            <stop stop-color="#64186b" offset=".078"/>
            <stop stop-color="#63186a" offset=".094"/>
            <stop stop-color="#621769" offset=".109"/>
            <stop stop-color="#611768" offset=".125"/>
            <stop stop-color="#601767" offset=".141"/>
            <stop stop-color="#601666" offset=".156"/>
            <stop stop-color="#5f1665" offset=".172"/>
            <stop stop-color="#5e1564" offset=".188"/>
            <stop stop-color="#5d1563" offset=".195"/>
            <stop stop-color="#5c1562" offset=".203"/>
            <stop stop-color="#5c1561" offset=".211"/>
            <stop stop-color="#5b1460" offset=".219"/>
            <stop stop-color="#5b1460" offset=".234"/>
            <stop stop-color="#5a145f" offset=".25"/>
            <stop stop-color="#59135e" offset=".266"/>
            <stop stop-color="#58135d" offset=".281"/>
            <stop stop-color="#57125c" offset=".297"/>
            <stop stop-color="#56125b" offset=".313"/>
            <stop stop-color="#55125a" offset=".328"/>
            <stop stop-color="#541159" offset=".344"/>
            <stop stop-color="#541158" offset=".359"/>
            <stop stop-color="#531057" offset=".375"/>
            <stop stop-color="#521056" offset=".383"/>
            <stop stop-color="#511055" offset=".391"/>
            <stop stop-color="#500f54" offset=".398"/>
            <stop stop-color="#500f54" offset=".406"/>
            <stop stop-color="#4f0f53" offset=".422"/>
            <stop stop-color="#4e0e52" offset=".438"/>
            <stop stop-color="#4d0e51" offset=".453"/>
            <stop stop-color="#4c0d50" offset=".469"/>
            <stop stop-color="#4b0d4f" offset=".477"/>
            <stop stop-color="#4b0d4f" offset=".484"/>
            <stop stop-color="#4a0d4e" offset=".492"/>
            <stop stop-color="#4a0d4d" offset=".5"/>
            <stop stop-color="#490c4c" offset=".516"/>
            <stop stop-color="#480c4b" offset=".531"/>
            <stop stop-color="#470b4a" offset=".547"/>
            <stop stop-color="#460b49" offset=".563"/>
            <stop stop-color="#450a48" offset=".57"/>
            <stop stop-color="#450a48" offset=".578"/>
            <stop stop-color="#440947" offset=".586"/>
            <stop stop-color="#440946" offset=".594"/>
            <stop stop-color="#430945" offset=".609"/>
            <stop stop-color="#420844" offset=".625"/>
            <stop stop-color="#410743" offset=".633"/>
            <stop stop-color="#410743" offset=".641"/>
            <stop stop-color="#400742" offset=".648"/>
            <stop stop-color="#400741" offset=".656"/>
            <stop stop-color="#3f0640" offset=".672"/>
            <stop stop-color="#3e053f" offset=".68"/>
            <stop stop-color="#3e053f" offset=".688"/>
            <stop stop-color="#3d053e" offset=".695"/>
            <stop stop-color="#3d053d" offset=".703"/>
            <stop stop-color="#3c043c" offset=".711"/>
            <stop stop-color="#3c043c" offset=".719"/>
            <stop stop-color="#3b033b" offset=".727"/>
            <stop stop-color="#3a033b" offset=".734"/>
            <stop stop-color="#3a033a" offset=".742"/>
            <stop stop-color="#390339" offset=".75"/>
            <stop stop-color="#380238" offset=".766"/>
            <stop stop-color="#380238" offset=".773"/>
            <stop stop-color="#370137" offset=".781"/>
            <stop stop-color="#370136" offset=".789"/>
            <stop stop-color="#360135" offset=".797"/>
            <stop stop-color="#360135" offset=".805"/>
            <stop stop-color="#350034" offset=".813"/>
            <stop stop-color="#340033" offset=".82"/>
            <stop stop-color="#330032" offset=".828"/>
            <stop stop-color="#320031" offset=".844"/>
            <stop stop-color="#320031" offset=".852"/>
            <stop stop-color="#310030" offset=".859"/>
            <stop stop-color="#31002f" offset=".867"/>
            <stop stop-color="#30002e" offset=".875"/>
            <stop stop-color="#30002e" offset=".883"/>
            <stop stop-color="#2f002d" offset=".891"/>
            <stop stop-color="#2f002c" offset=".898"/>
            <stop stop-color="#2e002b" offset=".906"/>
            <stop stop-color="#2d002b" offset=".914"/>
            <stop stop-color="#2c002a" offset=".922"/>
            <stop stop-color="#2c002a" offset=".93"/>
            <stop stop-color="#2b0029" offset=".938"/>
            <stop stop-color="#2b0028" offset=".945"/>
            <stop stop-color="#2a0027" offset=".953"/>
            <stop stop-color="#2a0026" offset=".961"/>
            <stop stop-color="#290025" offset=".969"/>
            <stop stop-color="#290025" offset=".977"/>
            <stop stop-color="#280024" offset=".984"/>
            <stop stop-color="#270024" offset=".992"/>
            <stop stop-color="#260023" offset="1"/>
        </linearGradient>
    </defs>
    <g clip-path="url(#g)" transform="matrix(.04982 0 0 -.04982 121.316 2.735)">
        <path d="M548.73 285.17h.011z" fill="#1f437a"/>
    </g>
    <g transform="matrix(.69055 0 0 -.69055 -236.131 268.968)" clip-path="url(#h)">
        <path d="M631.59 356.55c0-17.598-14.266-31.864-31.864-31.864s-31.864 14.266-31.864 31.864 14.266 31.864 31.864 31.864 31.864-14.266 31.864-31.864" fill="#080619"/>
    </g>
    <g transform="matrix(.69055 0 0 -.69055 -236.131 268.968)" clip-path="url(#i)">
        <g mask="url(#j)">
            <path d="M567.86 356.55c0-17.598 14.266-31.863 31.864-31.863 17.599 0 31.865 14.265 31.865 31.863 0 17.599-14.266 31.865-31.865 31.865-17.598 0-31.864-14.266-31.864-31.865" fill="url(#k)"/>
        </g>
    </g>
    <g transform="matrix(.69055 0 0 -.69055 -236.131 268.968)" clip-path="url(#l)">
        <g mask="url(#m)">
            <path d="M583.87 384.15c-10.331-6.01-14.577-17.194-12.871-18.865 1.499-1.47 3.518-.812 5.527.648 4.161 3.024 8.875 9.999 12.656 12.554 5.981 4.04 13.067 5.446 16.41 5.322 2.882-.108 7.016-.795 8.358-.546 1.645.305.956 1.297.103 1.876-.899.612-6.354 2.123-8.597 2.684-1.56.391-3.268.564-5.036.564-6.008 0-12.7-1.997-16.55-4.237" fill="url(#n)"/>
        </g>
    </g>
    <path d="M581.46 377.1c-4.636-3.805-6.066-8.372-4.18-10.626 1.638-1.955 5.946-.713 10.599 3.071 5.482 4.458 7.323 8.19 5.458 10.463-.615.749-1.611 1.101-2.837 1.101-2.492-.001-5.933-1.459-9.04-4.009" fill="url(#o)" transform="matrix(.69055 0 0 -.69055 -236.131 268.968)"/>
    <path d="M580.91 378.19c-4.635-3.806-6.793-8.964-4.906-11.217 1.637-1.956 6.742.242 11.395 4.026 5.481 4.458 7.505 7.644 5.64 9.917-.639.777-1.717 1.149-3.048 1.149-2.554-.001-6.031-1.373-9.081-3.875" fill="url(#p)" transform="matrix(.69055 0 0 -.69055 -236.131 268.968)"/>
    <g transform="matrix(.69055 0 0 -.69055 -236.131 268.968)" clip-path="url(#q)">
        <g clip-path="url(#r)">
            <g mask="url(#t)" clip-path="url(#s)">
                <path d="M580.95 378.14c-3.119-2.559-5.293-5.922-5.541-8.568-.053-.571-.011-1.092.122-1.548a.99.99 0 0 1 .756-.345h.017c.402.003.894.215 1.47.686 1.768 1.445 3.047 3.571 5.504 5.993 4.992 4.923 6.694 6.464 9.488 6.748-.621.586-1.573.895-2.779.895-2.673 0-6.137-1.479-9.037-3.861" fill="url(#u)"/>
            </g>
        </g>
    </g>
    <path d="M580.87 378.25c-3.144-2.582-5.339-5.982-5.59-8.663-.101-1.086.132-2.002.675-2.65.418-.5 1.064-.754 1.922-.754 2.284 0 5.95 1.828 9.567 4.77 4.116 3.347 6.126 5.833 6.327 7.827.081.804-.147 1.541-.677 2.186-.63.768-1.702 1.173-3.1 1.173-2.704 0-6.2-1.49-9.124-3.889m-4.811-11.226c-.519.619-.741 1.501-.643 2.551.248 2.646 2.422 6.009 5.541 8.568 2.9 2.382 6.364 3.861 9.037 3.861 1.356 0 2.391-.389 2.995-1.125.513-.625.724-1.307.646-2.086-.194-1.928-2.247-4.457-6.277-7.734-3.594-2.923-7.227-4.739-9.481-4.739-.816 0-1.427.237-1.818.704" fill="url(#v)" transform="matrix(.69055 0 0 -.69055 -236.131 268.968)"/>
    <g transform="matrix(.69055 0 0 -.69055 -236.131 268.968)" clip-path="url(#w)">
        <path d="M629.18 365.49c-.575-.541-2.317-.132-3.866 1.114-1.495 1.203-3.176 2.818-5.072 5.118-2.941 3.566-6.46 8.37-9.598 11.713-2.146 2.285 5.958.313 8.911-2.247 8.233-7.138 11.149-14.265 9.625-15.698" fill="#253554"/>
    </g>
    <path d="M598.59 388.52c-.048-.078 1.433-.114 3.661-.615 3.042-.682 5.89-2.542 8.189-4.673 3.455-3.202 7.066-7.873 10.007-11.44 1.896-2.3 4.124-4.119 5.618-5.322 1.548-1.247 2.745-1.723 3.321-1.183 1.523 1.433-1.597 8.765-9.83 15.904-2.953 2.558-9.472 6.075-14.506 7.386-.932.242-2.199.337-3.366.337-1.57 0-2.957-.172-3.094-.394" fill="url(#x)" transform="matrix(.69055 0 0 -.69055 -236.131 268.968)"/>
    <path d="M598.59 388.52c-.048-.078 1.433-.114 3.661-.615 3.042-.682 5.89-2.542 8.189-4.673 3.455-3.202 7.066-7.873 10.007-11.44 1.896-2.3 4.124-4.119 5.618-5.322 1.548-1.247 2.745-1.723 3.321-1.183.505.476.498 1.603-.037 3.157.467-1.448.451-2.498-.032-2.952-.575-.541-1.771.004-3.321 1.251-1.494 1.202-3.653 3.022-5.549 5.322-2.941 3.566-6.621 8.237-10.076 11.439-2.298 2.132-5.145 3.924-8.187 4.607-1.587.356-2.794.477-3.341.544-.135-.041-.223-.087-.253-.135" fill="url(#y)" transform="matrix(.69055 0 0 -.69055 -236.131 268.968)"/>
    <g transform="matrix(.69055 0 0 -.69055 -236.131 268.968)" clip-path="url(#z)">
        <path d="M600.07 388.42c2.319 0 4.579-.18 6.757-.65-.887.486-1.801.87-2.731 1.094-4.215 1.011-6.831-.417-7.149-.596 1.028.1 2.069.152 3.123.152" fill="#214653"/>
    </g>
    <path d="M596.38 388.21l.529.034s2.678 1.694 7.181.614c3.032-.727 5.889-3.157 8.188-5.288 3.455-3.202 6.52-7.942 9.462-11.508 1.895-2.3 3.646-4.051 5.14-5.254 1.549-1.247 2.745-1.723 3.32-1.183 1.524 1.433-1.597 8.765-9.83 15.904-2.952 2.559-11.165 6.382-16.2 7.693-.733.191-1.617.292-2.549.292-1.846 0-3.872-.4-5.241-1.304" fill="url(#A)" transform="matrix(.69055 0 0 -.69055 -236.131 268.968)"/>
    <path d="M604.16 389.21c.089-.017.181-.036.276-.056-.174.042-.269.055-.276.056zm8.46-5.094c3.455-3.203 6.248-7.873 9.188-11.44 1.896-2.3 3.579-4.257 5.073-5.458 1.549-1.248 2.745-1.725 3.32-1.184 1.524 1.433-1.597 8.765-9.83 15.903-5.649 4.898-12.718 6.563-15.935 7.217.917-.215 4.028-1.186 8.184-5.038" fill="url(#B)" transform="matrix(.69055 0 0 -.69055 -236.131 268.968)"/>
    <path d="M614.32 382.66c1.61-1.771 3.088-3.796 4.528-5.771 1.062-1.454 2.065-2.829 3.105-4.09 1.701-2.063 3.492-4.182 5.044-5.431 1.397-1.124 2.179-1.361 2.589-1.361.201 0 .358.055.477.169.215.2.322.568.312 1.064-.029 1.414-.95 3.616-2.527 6.037a35.332 35.332 0 0 1-2.875 3.794c-3.05 2.434-6.663 4.35-10.653 5.589z" fill="url(#C)" transform="matrix(.69055 0 0 -.69055 -236.131 268.968)"/>
    <path d="M172.567 44.023c.088.288.265.948.8 1.23.537.283.86.33 1.503.142.641-.189 1.325-.778 1.325-.778z" fill="#1e5471"/>
    <path d="M172.567 44.023c.088.288.265.948.8 1.23.537.283.86.33 1.503.142.641-.189 1.325-.778 1.325-.778z" fill="none" stroke="#7cdcec" stroke-miterlimit="10" stroke-width=".0469574"/>
    <g clip-path="url(#D)" opacity=".5" transform="matrix(.69055 0 0 -.69055 -236.131 268.968)">
        <path d="M619.48 347.75c-3.106-.011-6.945-1.677-9.884-4.103-2.589-2.137-5.175-5.142-7.488-8.528-1.433-2.098-3.088-4.487-4.981-6.806-.59-.723-1.18-1.301-1.825-1.743 1.899-.42 4.159-.791 6.464-.856a70.269 70.269 0 0 1 1.711-.023h.601c1.243.003 2.647.023 4.029.051.697.208 1.414.444 2.155.711 5.15 1.86 10.557 5.408 12.57 8.079 1.749 2.322 2.55 4.75 2.553 6.894.004 2.144-.789 4.003-2.228 5.189-.946.78-2.202 1.13-3.611 1.135z" fill="url(#E)"/>
    </g>
    <g clip-path="url(#F)" opacity=".5" transform="matrix(.69055 0 0 -.69055 -236.131 268.968)">
        <path d="M619.48 347.75c-3.106-.011-6.945-1.677-9.884-4.103-2.589-2.137-5.175-5.142-7.488-8.528-1.433-2.098-3.088-4.487-4.981-6.806-.59-.723-1.18-1.301-1.825-1.743l.217-.047c.562.419 1.085.944 1.608 1.585 1.893 2.32 3.548 4.707 4.981 6.805 2.313 3.387 4.899 6.393 7.488 8.53 4.299 3.547 10.524 5.47 13.561 2.968 1.412-1.164 2.202-2.977 2.227-5.072v.199c-.024 2.096-.814 3.913-2.227 5.077-.946.78-2.202 1.13-3.611 1.135z" fill="url(#G)"/>
    </g>
    <path d="M176.05 44.327c1.668.177 6.141.228.031-.675-8.606-1.272-13.023-6.773-14.292-8.359-2.204-2.755-3.234-5.027-4.1-7.233-1.048-2.674-.276.218-.247.33.26 1.001 1.457 6.168 6.173 10.425 5.289 4.774 10.635 5.323 12.435 5.512" fill="#f9901c" opacity=".2" stroke-width=".324"/>
    <path d="M175.31 44.85c1.668.176 5.324.393-.722-.864-7.522-1.563-12.145-6.9-13.413-8.485-2.204-2.755-3.235-5.026-4.1-7.233-1.048-2.674-.276.218-.247.33.26 1.002 1.457 6.168 6.173 10.425 5.288 4.775 10.508 5.637 12.309 5.827" fill="#f9901c" stroke-width=".324"/>
    <path d="M161.202 35.488c-2.204-2.755-3.235-5.026-4.1-7.233-.023-.062-.047-.12-.069-.176l.058.224c.259 1.001 1.457 6.167 6.172 10.425 5.29 4.774 10.51 5.637 12.31 5.827.597.062 1.45.13 2.021.135-.458-.155-1.378-.384-2.98-.717-7.521-1.563-12.144-6.899-13.412-8.485" fill="#fe9716" stroke-width=".324"/>
    <path d="M611.38 342.9c-2.589-2.137-5.312-5.006-7.625-8.392-1.433-2.099-3.644-5.374-5.459-7.745-1.279-1.672-2.66-3.343-5.015-3.053 1.433-.58 8.495-1.78 18.764 1.927 5.151 1.86 10.559 5.408 12.571 8.079 3.497 4.644 3.701 9.601.803 11.947-1.083.876-2.499 1.263-4.065 1.263-3.223 0-7.082-1.639-9.974-4.026" fill="url(#H)" transform="matrix(.69055 0 0 -.69055 -236.131 268.968)"/>
    <g transform="matrix(.69055 0 0 -.69055 -236.131 268.968)" clip-path="url(#I)">
        <path d="M625.35 345.46c-3.901 3.048-9.934.512-14.175-3.105-2.2-1.876-4.425-4.528-6.738-7.914-1.433-2.098-4.053-5.851-5.868-8.222-1.074-1.404-2.413-2.651-4.169-2.813.152-.03.316-.06.491-.088 1.567.393 3.025 1.747 3.746 2.628 1.892 2.31 4.435 6.124 5.868 8.222 2.313 3.386 4.538 6.038 6.738 7.915 4.241 3.616 10.138 6.152 14.039 3.104 1.801-1.408 2.354-4.039 1.708-6.935l.022.071c.718 2.975.181 5.697-1.662 7.137" fill="#b0ffff"/>
    </g>
    <path d="M173.367 9.86l-.747 4.485c1.366-.004 2.733-.001 4.1-.003 1.04.01 2.106-.074 3.119.23.426.134.883.305 1.167.671.564.88.413 2.045-.076 2.926-.328.601-.94.973-1.542 1.255-1.784.63-3.704.55-5.568.54h-.68l-.776 4.947c1.504.015 3.008-.011 4.51.035 1.185.108 2.62.439 3.088 1.683.19.74.119 1.528-.097 2.263-.086.378-.293.699-.494.991-.28.385-.603.646-.98.868-.886.516-1.965.611-2.971.697-2.099-.003-4.195.005-6.292-.005l-.773 4.508c1.393.462 2.824.831 4.286.993.465.036.93.088 1.396.128 1.223.084 2.304.01 3.422-.133 2.216-.286 4.388-1.095 6.084-2.572a8.134 8.134 0 0 0 2.066-3.017c.364-.863.526-1.787.624-2.714a7.16 7.16 0 0 0 .002-1.95c-.109-.813-.34-1.611-.807-2.29-.683-.846-1.538-1.676-2.647-1.87 1.635-.756 3.228-1.835 4.068-3.483.878-1.518.885-3.326.751-5.023-.266-1.474-.956-2.976-2.232-3.828-1.347-1.005-3.056-1.423-4.717-1.446-2.478-.138-4.944.337-7.285 1.113" fill="#fff"/>
    <path d="M-6585.5 2542l-.264.086-.082.49c.122-.194.237-.386.346-.576z" fill="url(#J)" stroke-width=".324" transform="matrix(.43543 0 0 .43543 3041.03 -1097.031)"/>
    <path d="M-6557.3 2590.4a30.95 30.95 0 0 0-2.156 1.624c-3.251 2.684-6.499 6.23-9.531 10.256 2.384-.972 4.62-2.289 6.577-3.994 2.066-1.919 3.731-4.288 4.746-6.928.133-.316.253-.636.364-.958z" fill="url(#K)" stroke-width=".324" transform="matrix(.43543 0 0 .43543 3041.03 -1097.031)"/>
    <path d="M69.369 16.146l.44.416.02 12.191-.441.416H63.63l-.44-.416-.02-12.19.44-.417zm-14.136-.019h-12.97c-3.656 0-6.64 2.906-6.64 6.511.019 3.605 2.983 6.536 6.666 6.536h18.805l.44-.466v-6.433l-.44-.414h-5.758l-.44.414v5.266H47.27c-1.92 0-4.98-1.478-4.98-4.877 0-3.398 2.775-4.902 4.954-4.902h7.548l.337-.207.467-.804-.363-.62m-21.71 0H27.79l-.467.44.019 12.164.44.44h5.758l.44-.44-.018-12.164-.44-.44M6.806 27.568h7.392c2.905 0 4.954-2.413 4.954-4.929 0-2.515-2.075-4.876-4.928-4.876H6.806zm12.372-11.413c3.658 0 6.64 2.905 6.667 6.51 0 3.606-2.983 6.511-6.64 6.511H.606l-.44-.414-.02-12.19.441-.417z" fill="#420745" stroke-width="43.227"/>
    <path d="M63.186 19.325l6.666-.777v10.167l-.44.416h-5.759l-.44-.416zm-35.821 9.363l.44.44h5.758l.44-.44V22.8l-6.639.778zm-27.183.02l.44.415H19.22c3.243 0 5.966-2.308 6.511-5.343l-7.003.83c-.753 1.634-2.412 2.905-4.513 2.905H6.82v-1.504l-6.64.804zm61.37-.02V22.23l-.44-.414h-5.759l-.44.414v5.265h-7.626c-1.92 0-4.98-1.477-4.98-4.876l.056-.804-6.718.778c.02 3.605 2.983 6.536 6.666 6.536h18.806z" fill="#260021" stroke-width="43.227"/>
    <g transform="matrix(6.64036 0 0 6.64036 -1785.317 -3001.279)" clip-path="url(#L)">
        <g clip-path="url(#M)">
            <path d="M268.86 456.39h10.527v-2H268.86z" fill="url(#N)"/>
        </g>
    </g>
    <path d="M121.142 15.928h-7.704c-1.66 0-3.242 1.324-3.527 2.932l-1.323 7.262c-.286 1.608.83 2.957 2.464 2.957h7.885c1.634 0 3.216-1.297 3.501-2.905l1.324-7.289c.337-2.179-1.453-2.957-2.62-2.957m-1.79 9.701l-.39.337-7.133-.018 1.038-5.577c.15-1.01-1.064-1.22-1.064-1.22v-.056h8.741zm-26.38 3.45h7.756c1.634 0 3.216-1.297 3.502-2.905l1.323-7.289c.337-2.179-1.453-2.957-2.62-2.957H95.23c-1.66 0-3.243 1.324-3.528 2.905L89.186 32.97h3.087zm8.145-3.45l-.39.337-7.107-.018 1.01-5.577c.151-1.01-1.089-1.22-1.089-1.22v-.056h8.767zm28.297 3.45l1.53-8.69c.151-1.01-1.116-1.244-1.116-1.244v-.056l7.678-.019.623-3.138h-6.562c-1.634 0-3.243 1.35-3.528 2.93l-1.816 10.22zm13.747-17.041h3.19l-.7 3.89h6.356l-.493 3.14-7.626.018v.056s1.193.207 1.037 1.22l-1.037 5.577 6.355.018-.57 3.113h-6.589c-1.634 0-2.75-1.323-2.464-2.931l1.323-7.263zm-55.818 7.133H76.838l9.364 4.928.44 1.374-.933 2.516c-.363.804-1.297 1.09-2.75 1.09H72.584l.597-3.242h10.453l-9.545-4.903c-.467-.26-.65-.649-.39-1.323l.856-2.49c.26-.7.96-1.193 2.698-1.193H87.94z" fill="#4c87c7" stroke-width="43.227"/>
    <path d="M92.534 33.259h-3.398l2.542-14.266c.31-1.66 1.945-2.983 3.657-2.983h7.73c.674 0 1.634.207 2.23.883.494.544.674 1.27.544 2.153l-1.323 7.184c-.312 1.66-1.945 2.931-3.657 2.931h-7.626zm-3.035-.44h2.776l.7-3.866h7.885c1.556 0 3.06-1.244 3.346-2.749l1.323-7.236c.132-.778-.057-1.427-.467-1.92-.544-.597-1.374-.83-1.997-.83H95.36c-1.583 0-3.086 1.22-3.372 2.723zm40.179-3.45h-3.502l1.84-10.35c.311-1.66 1.946-3.008 3.658-3.008h6.77l-.621 3.372-7.107-.02.544 1.168zm-3.113-.416h2.853l1.53-8.534c.132-.856-.907-1.037-.96-1.037l-.094-.019v-.337h7.678l.493-2.801h-6.355c-1.583 0-3.086 1.244-3.371 2.75zm-43.472.416H72.537l.649-3.45h9.96l-9-4.695c-.57-.313-.727-.83-.467-1.557l.856-2.438c.337-.856 1.244-1.22 2.854-1.22h10.867l-.647 3.243H77.597l8.793 4.72c.596.337.777.907.544 1.583L86 28.15c-.39.83-1.27 1.22-2.905 1.22m-10.193-.416h10.193c1.504 0 2.283-.286 2.62-.986l.933-2.49-.39-1.194-9.908-5.265h10.998l.52-2.801h-10.48c-1.919 0-2.386.623-2.567 1.063l-.83 2.464c-.287.753 0 .986.31 1.167l10.09 5.24H73.445zm77.037.207h-6.718c-.83 0-1.583-.26-2.076-.857-.493-.596-.7-1.323-.543-2.152l1.323-7.263 1.244-6.977h3.502l-.7 4.098h6.38l-.623 3.372-7.107-.019.544 1.14-.986 5.37 6.38-.056zm-6.511-16.808l-1.193 6.666-1.324 7.237c-.131.726.02 1.4.467 1.893.44.518 1.09.804 1.841.804h6.458l.494-2.775h-6.356l1.037-5.759c.132-.856-.882-1.037-.933-1.037l-.113-.018v-.337h7.678l.466-2.802h-6.38l.726-3.864zm-24.46 16.808h-7.78c-.83 0-1.584-.26-2.076-.857-.493-.596-.7-1.323-.544-2.152l1.323-7.185c.311-1.66 1.946-2.957 3.658-2.957h7.73c.7 0 1.633.207 2.256.881.467.544.65 1.27.52 2.153l-1.375 7.21c-.31 1.661-1.945 2.906-3.709 2.906m-5.395-12.943c-1.583 0-3.086 1.244-3.372 2.775l-1.323 7.237c-.132.726.019 1.4.467 1.92.44.517 1.09.803 1.84.803h7.885c1.583 0 3.087-1.246 3.346-2.75l1.324-7.236c.131-.778-.02-1.427-.467-1.92-.52-.596-1.374-.83-1.997-.83zm5.525 9.986l-7.314-.018 1.037-5.759c.131-.83-.908-1.037-.96-1.037l-.113-.018v-.337h9.104l-1.244 6.718zm-6.951-.31l6.951.018.207-.207 1.193-6.38h-7.911l.544 1.167zm-11.257.31l-7.34-.018 1.063-5.759c.132-.83-.907-1.037-.96-1.037l-.15-.018.056-.337h9.104l-1.244 6.718zm-6.951-.31l6.951.018.233-.207 1.141-6.38h-7.911l.57 1.167z" fill="#3f85c5" stroke-width="43.227"/>
    <path d="M112.477 24.028h-.337l-.363 2.126.363-.286zM129.981 27.424l-.31-.132-.286 1.583h-2.853l-.39.416h3.502zM122.274 27.25l-.233-.076c-.623 1.011-1.764 1.738-2.983 1.738h-7.885c-.753 0-1.4-.286-1.841-.804l-.467-.934-.286.076.52 1.01c.493.57 1.244.857 2.074.857h7.782c1.374 0 2.671-.753 3.32-1.867M143.741 18.977l.777.336 7.133.02-.26-.364zM149.576 28.948h-6.458c-.753 0-1.4-.286-1.841-.804l-.493-1.504h-.311a2.47 2.47 0 0 0 .57 1.66c.493.57 1.244.857 2.075.857h6.718zM137.514 18.977h-7.703l.856.336 7.107.02zM85.959 28.164l.934-2.594c.233-.673.056-1.244-.544-1.583l-8.794-4.72-1.244-.234 9.909 5.265.39 1.194-.934 2.516c-.337.674-1.116.96-2.62.96H72.863l-.364.414h10.557c1.634 0 2.516-.39 2.905-1.22M123.406 16.886c-.596-.673-1.53-.882-2.23-.882h-7.73c-1.4 0-2.775.882-3.372 2.127l.234.15c.544-1.193 1.816-2.075 3.164-2.075h7.703c.623 0 1.48.234 1.998.83l.286.414.26-.131zM92.142 32.867h-2.775l-.363.44H92.4zM104.378 26.292l.596-3.268h-.312l-.597 3.242c-.286 1.53-1.763 2.75-3.346 2.75h-7.884l.26.206h7.625c1.713 0 3.346-1.27 3.657-2.93M93.492 26.118l.39-.286.986-5.395-.57-1.167-.857.018.15.019c.057 0 1.09.207.96 1.037z" fill="#3061ab" stroke-width="43.227"/>
    <path d="M111.737 19.325l.131-.132-.207-.207v.337zM105.162 17.278c.286.44.39 1.011.286 1.66l-.727 3.943h.337l.7-3.865c.113-.777 0-1.4-.363-1.92zM113.043 20.457l-.132-.727-.26.132.076.518-.674 3.631h.337zM123.798 17.278l-.26.094.26.7.286-.075zM109.864 18.977l.31.075v-.019l.208-.674-.26-.132zM145.613 16.32l.364-.207.7-4.098-.363.414zM143.741 19.325l.15-.15-.206-.208v.337zM140.519 26.118l-.019.31h.31l.02-.207 1.323-7.236 1.193-6.666-.26-.44-1.244 6.977zM129.807 19.325l.15-.15-.15-.189zM93.492 18.977l-.056.336h.056l.188-.15zM101.373 25.726l1.245-6.718-.39.31-1.167 6.381-.057.15.132.26zM138.08 16.32l-.493 2.802.26.363.621-3.372zM151.84 16.32l-.493 2.802.26.363.596-3.372zM89.704 31.56l-.286-.018-.337 1.816.39-.44zM150.142 26.118l-.493 2.775.26.207.623-3.346zM87.831 16.32l-.52 2.802.26.233.648-3.242zM86.873 24.594l-.312.094.075.337.286.113zM73.506 20.631l.286-.132.056-.83.83-2.464c.132-.31.39-.674 1.116-.882l-.075-.234c-.674.188-1.116.544-1.323 1.064l-.83 2.438zM73.331 26.118l-.26-.234-.649 3.45.364-.414z" fill="#87b8e3" stroke-width="43.227"/>
</svg>
