<svg width="200mm" height="174.028" viewBox="0 0 200 46.045" xmlns="http://www.w3.org/2000/svg">
    <defs>
        <clipPath id="K">
            <path d="M268 454h12v3h-12z"/>
        </clipPath>
        <clipPath id="L">
            <path d="M275.22 454.39c-.273 0-.527.102-.719.29a.994.994 0 0 0-.297.706c0 .55.457 1 1.024 1h2.828l.086-.082v-.973l-.086-.082h-.867l-.082.082v.778h-1.133c-.297 0-.734-.23-.734-.719 0-.469.375-.723.73-.723h1.137l.066-.039.07-.12v-.079l-.07-.039zm-.98.996a.944.944 0 0 1 .285-.684c.187-.18.433-.28.695-.28h1.953l.043.023v.047l-.074.12-.04.024h-1.132c-.371 0-.766.262-.766.754 0 .512.461.75.77.75h1.164v-.809l.05-.05h.868l.05.05v.973l-.05.05h-2.832a.98.98 0 0 1-.984-.968m-1.203-.996l-.06.023-.022.059.004 1.832.019.059.063.023h.867l.058-.023.024-.059v-1.832l-.024-.059-.062-.023zm-.036 1.95l-.011-.036-.004-1.832.015-.035.035-.016h.868l.039.016.011.035.004 1.832-.015.04-.035.01h-.868zm5.434-1.95l-.082.082v1.836l.086.082h.867l.082-.082v-1.836l-.086-.082zm-.047 1.918l-.004-1.836.05-.047h.868l.05.047.005 1.836-.051.047h-.867zm-9.445-1.918l-.082.082v1.836l.086.082h2.797a1.016 1.016 0 0 0 1.02-1c0-.55-.462-1-1.02-1zm-.047 1.918l-.004-1.836.05-.047h2.801c.543 0 .985.434.985.965a.96.96 0 0 1-.285.684c-.188.18-.434.28-.7.28h-2.796zm.965-1.672l.004 1.473h-.012l.043.086v-.051h1.098a.764.764 0 0 0 .765-.758.759.759 0 0 0-.765-.75zm.035.035h1.098c.402 0 .73.32.73.715a.727.727 0 0 1-.73.723h-1.098z"/>
        </clipPath>
        <linearGradient id="M" x1="0" x2="1" gradientTransform="rotate(-90 362.555 93.825) scale(1.9993)" gradientUnits="userSpaceOnUse">
            <stop stop-color="#681a6f" offset="0"/>
            <stop stop-color="#681a6f" offset=".016"/>
            <stop stop-color="#67196e" offset=".031"/>
            <stop stop-color="#66196d" offset=".047"/>
            <stop stop-color="#65196c" offset=".063"/>
            <stop stop-color="#64186b" offset=".078"/>
            <stop stop-color="#63186a" offset=".094"/>
            <stop stop-color="#621769" offset=".109"/>
            <stop stop-color="#611768" offset=".125"/>
            <stop stop-color="#601767" offset=".141"/>
            <stop stop-color="#601666" offset=".156"/>
            <stop stop-color="#5f1665" offset=".172"/>
            <stop stop-color="#5e1564" offset=".188"/>
            <stop stop-color="#5d1563" offset=".195"/>
            <stop stop-color="#5c1562" offset=".203"/>
            <stop stop-color="#5c1561" offset=".211"/>
            <stop stop-color="#5b1460" offset=".219"/>
            <stop stop-color="#5b1460" offset=".234"/>
            <stop stop-color="#5a145f" offset=".25"/>
            <stop stop-color="#59135e" offset=".266"/>
            <stop stop-color="#58135d" offset=".281"/>
            <stop stop-color="#57125c" offset=".297"/>
            <stop stop-color="#56125b" offset=".313"/>
            <stop stop-color="#55125a" offset=".328"/>
            <stop stop-color="#541159" offset=".344"/>
            <stop stop-color="#541158" offset=".359"/>
            <stop stop-color="#531057" offset=".375"/>
            <stop stop-color="#521056" offset=".383"/>
            <stop stop-color="#511055" offset=".391"/>
            <stop stop-color="#500f54" offset=".398"/>
            <stop stop-color="#500f54" offset=".406"/>
            <stop stop-color="#4f0f53" offset=".422"/>
            <stop stop-color="#4e0e52" offset=".438"/>
            <stop stop-color="#4d0e51" offset=".453"/>
            <stop stop-color="#4c0d50" offset=".469"/>
            <stop stop-color="#4b0d4f" offset=".477"/>
            <stop stop-color="#4b0d4f" offset=".484"/>
            <stop stop-color="#4a0d4e" offset=".492"/>
            <stop stop-color="#4a0d4d" offset=".5"/>
            <stop stop-color="#490c4c" offset=".516"/>
            <stop stop-color="#480c4b" offset=".531"/>
            <stop stop-color="#470b4a" offset=".547"/>
            <stop stop-color="#460b49" offset=".563"/>
            <stop stop-color="#450a48" offset=".57"/>
            <stop stop-color="#450a48" offset=".578"/>
            <stop stop-color="#440947" offset=".586"/>
            <stop stop-color="#440946" offset=".594"/>
            <stop stop-color="#430945" offset=".609"/>
            <stop stop-color="#420844" offset=".625"/>
            <stop stop-color="#410743" offset=".633"/>
            <stop stop-color="#410743" offset=".641"/>
            <stop stop-color="#400742" offset=".648"/>
            <stop stop-color="#400741" offset=".656"/>
            <stop stop-color="#3f0640" offset=".672"/>
            <stop stop-color="#3e053f" offset=".68"/>
            <stop stop-color="#3e053f" offset=".688"/>
            <stop stop-color="#3d053e" offset=".695"/>
            <stop stop-color="#3d053d" offset=".703"/>
            <stop stop-color="#3c043c" offset=".711"/>
            <stop stop-color="#3c043c" offset=".719"/>
            <stop stop-color="#3b033b" offset=".727"/>
            <stop stop-color="#3a033b" offset=".734"/>
            <stop stop-color="#3a033a" offset=".742"/>
            <stop stop-color="#390339" offset=".75"/>
            <stop stop-color="#380238" offset=".766"/>
            <stop stop-color="#380238" offset=".773"/>
            <stop stop-color="#370137" offset=".781"/>
            <stop stop-color="#370136" offset=".789"/>
            <stop stop-color="#360135" offset=".797"/>
            <stop stop-color="#360135" offset=".805"/>
            <stop stop-color="#350034" offset=".813"/>
            <stop stop-color="#340033" offset=".82"/>
            <stop stop-color="#330032" offset=".828"/>
            <stop stop-color="#320031" offset=".844"/>
            <stop stop-color="#320031" offset=".852"/>
            <stop stop-color="#310030" offset=".859"/>
            <stop stop-color="#31002f" offset=".867"/>
            <stop stop-color="#30002e" offset=".875"/>
            <stop stop-color="#30002e" offset=".883"/>
            <stop stop-color="#2f002d" offset=".891"/>
            <stop stop-color="#2f002c" offset=".898"/>
            <stop stop-color="#2e002b" offset=".906"/>
            <stop stop-color="#2d002b" offset=".914"/>
            <stop stop-color="#2c002a" offset=".922"/>
            <stop stop-color="#2c002a" offset=".93"/>
            <stop stop-color="#2b0029" offset=".938"/>
            <stop stop-color="#2b0028" offset=".945"/>
            <stop stop-color="#2a0027" offset=".953"/>
            <stop stop-color="#2a0026" offset=".961"/>
            <stop stop-color="#290025" offset=".969"/>
            <stop stop-color="#290025" offset=".977"/>
            <stop stop-color="#280024" offset=".984"/>
            <stop stop-color="#270024" offset=".992"/>
            <stop stop-color="#260023" offset="1"/>
        </linearGradient>
        <clipPath id="g">
            <path d="M567.86 321.93h63.865v68.013H567.86z"/>
        </clipPath>
        <clipPath id="h">
            <path d="M567.86 356.55c0-17.598 14.266-31.863 31.864-31.863 17.599 0 31.865 14.265 31.865 31.863 0 17.599-14.266 31.865-31.865 31.865-17.598 0-31.864-14.266-31.864-31.865"/>
        </clipPath>
        <mask id="i" x="0" y="0" width="1" height="1" maskUnits="userSpaceOnUse">
            <g clip-path="url(#a)">
                <path d="M576.05 409.74l76.865-29.508-29.508-76.865-76.865 29.508z" fill="url(#b)"/>
            </g>
        </mask>
        <clipPath id="a">
            <path d="M-1702.9 2554.2h4471.5v-4471.5h-4471.5z"/>
        </clipPath>
        <linearGradient id="b" x2="1" gradientTransform="scale(35.408 -35.408) rotate(21.001 36.067 38.308)" gradientUnits="userSpaceOnUse">
            <stop stop-color="#fff" offset="0"/>
            <stop stop-color="#fff" stop-opacity="0" offset="1"/>
        </linearGradient>
        <linearGradient id="j" x2="1" gradientTransform="scale(35.408 -35.408) rotate(21.001 36.067 38.308)" gradientUnits="userSpaceOnUse">
            <stop stop-color="#252971" offset="0"/>
            <stop stop-color="#080619" offset="1"/>
        </linearGradient>
        <clipPath id="k">
            <path d="M583.87 384.15c-10.331-6.01-14.577-17.194-12.871-18.865 1.499-1.47 3.518-.812 5.527.648 4.161 3.024 8.875 9.999 12.656 12.554 5.981 4.04 13.067 5.446 16.41 5.322 2.882-.108 7.016-.795 8.358-.546 1.645.305.956 1.297.103 1.876-.899.612-6.354 2.123-8.597 2.684-1.56.391-3.268.564-5.036.564-6.008 0-12.7-1.997-16.55-4.237"/>
        </clipPath>
        <mask id="l" x="0" y="0" width="1" height="1" maskUnits="userSpaceOnUse">
            <g clip-path="url(#c)">
                <path d="M579.8 344.42l-20.797 38.389 46.088 24.967 20.797-38.389z" fill="url(#d)"/>
            </g>
        </mask>
        <clipPath id="c">
            <path d="M-1702.9 2554.2h4471.5v-4471.5h-4471.5z"/>
        </clipPath>
        <radialGradient id="d" cx="0" cy="0" r="1" gradientTransform="matrix(-14.642 27.028 27.028 14.642 600.02 357.8)" gradientUnits="userSpaceOnUse">
            <stop stop-color="#fff" stop-opacity=".5" offset="0"/>
            <stop stop-color="#fff" stop-opacity=".5" offset=".716"/>
            <stop stop-color="#fff" stop-opacity=".05" offset="1"/>
        </radialGradient>
        <radialGradient id="m" cx="0" cy="0" r="1" gradientTransform="matrix(-14.642 27.028 27.028 14.642 600.02 357.8)" gradientUnits="userSpaceOnUse">
            <stop stop-color="#fff" offset="0"/>
            <stop stop-color="#fff" offset=".716"/>
            <stop stop-color="#fff" offset="1"/>
        </radialGradient>
        <linearGradient id="n" x2="1" gradientTransform="scale(-22.39 22.39) rotate(-40.484 9.806 44.435)" gradientUnits="userSpaceOnUse">
            <stop stop-color="#131b48" offset="0"/>
            <stop stop-color="#161a46" offset=".496"/>
            <stop stop-color="#2e3c7f" offset="1"/>
        </linearGradient>
        <linearGradient id="o" x2="1" gradientTransform="scale(-6.042 6.042) rotate(53.033 -110.103 -66.59)" gradientUnits="userSpaceOnUse">
            <stop stop-color="#17317a" offset="0"/>
            <stop stop-color="#3369a5" offset=".784"/>
            <stop stop-color="#3369a5" offset="1"/>
        </linearGradient>
        <clipPath id="p">
            <path d="M567.86 321.93h63.865v68.013H567.86z"/>
        </clipPath>
        <clipPath id="q">
            <path d="M575.39 382h17.379v-14.321H575.39z"/>
        </clipPath>
        <clipPath id="r">
            <path d="M580.95 378.14c-3.119-2.559-5.293-5.922-5.541-8.568-.053-.571-.011-1.092.122-1.548a.99.99 0 0 1 .756-.345h.017c.402.003.894.215 1.47.686 1.768 1.445 3.047 3.571 5.504 5.993 4.992 4.923 6.694 6.464 9.488 6.748-.621.586-1.573.895-2.779.895-2.673 0-6.137-1.479-9.037-3.861"/>
        </clipPath>
        <mask id="s" x="0" y="0" width="1" height="1" maskUnits="userSpaceOnUse">
            <g clip-path="url(#e)">
                <path d="M575.36 382h17.409v-14.491H575.36z" fill="url(#f)"/>
            </g>
        </mask>
        <clipPath id="e">
            <path d="M-1702.9 2554.2h4471.5v-4471.5h-4471.5z"/>
        </clipPath>
        <radialGradient id="f" cx="0" cy="0" r="1" fx=".661" fy=".751" gradientTransform="matrix(19.248 0 0 -19.248 593.63 363.38)" gradientUnits="userSpaceOnUse">
            <stop stop-color="#fff" stop-opacity=".3" offset="0"/>
            <stop stop-color="#fff" stop-opacity=".3" offset=".901"/>
            <stop stop-color="#fff" stop-opacity=".9" offset="1"/>
        </radialGradient>
        <radialGradient id="t" cx="0" cy="0" r="1" fx=".661" fy=".751" gradientTransform="matrix(19.248 0 0 -19.248 593.63 363.38)" gradientUnits="userSpaceOnUse">
            <stop stop-color="#4f7be6" offset="0"/>
            <stop stop-color="#4f7be6" offset=".901"/>
            <stop stop-color="#8ee2ff" offset="1"/>
        </radialGradient>
        <linearGradient id="u" x2="1" gradientTransform="scale(9.8254 -9.8254) rotate(53 68.2 40.054)" gradientUnits="userSpaceOnUse">
            <stop stop-color="#8ee2ff" offset="0"/>
            <stop stop-color="#8ee2ff" offset=".011"/>
            <stop stop-color="#8ee2ff" offset=".339"/>
            <stop stop-color="#214bb1" offset="1"/>
        </linearGradient>
        <clipPath id="v">
            <path d="M567.86 321.93h63.865v68.013H567.86z"/>
        </clipPath>
        <linearGradient id="w" x2="1" gradientTransform="scale(40.093 -40.093) rotate(44.706 19.39 13.381)" gradientUnits="userSpaceOnUse">
            <stop stop-color="#0e1523" offset="0"/>
            <stop stop-color="#2f4664" offset=".5"/>
            <stop stop-color="#26385a" offset="1"/>
        </linearGradient>
        <linearGradient id="x" x2="1" gradientTransform="scale(42.31 -42.31) rotate(42.878 18.873 13.425)" gradientUnits="userSpaceOnUse">
            <stop stop-color="#162238" offset="0"/>
            <stop stop-color="#428199" offset=".429"/>
            <stop stop-color="#3e5f95" offset="1"/>
        </linearGradient>
        <clipPath id="y">
            <path d="M567.86 321.93h63.865v68.013H567.86z"/>
        </clipPath>
        <linearGradient id="z" x2="1" gradientTransform="matrix(34.193 0 0 -34.193 596.38 377.46)" gradientUnits="userSpaceOnUse">
            <stop stop-color="#5eb9d8" offset="0"/>
            <stop stop-color="#346f82" offset=".291"/>
            <stop stop-color="#346f82" offset=".454"/>
            <stop stop-color="#6fb9d4" offset=".695"/>
            <stop stop-color="#254e63" offset=".883"/>
            <stop stop-color="#428199" offset=".957"/>
            <stop stop-color="#428199" offset="1"/>
        </linearGradient>
        <linearGradient id="A" x2="1" gradientTransform="matrix(-5.6286 -22.89 -22.89 5.6286 620.17 389.44)" gradientUnits="userSpaceOnUse">
            <stop stop-color="#2a6372" offset="0"/>
            <stop stop-color="#2a6372" offset=".128"/>
            <stop stop-color="#5fb5d3" offset=".369"/>
            <stop stop-color="#5fb5d3" offset="1"/>
        </linearGradient>
        <linearGradient id="B" x2="1" gradientTransform="scale(16.643 -16.643) rotate(7.94 180.965 254.574)" gradientUnits="userSpaceOnUse">
            <stop stop-color="#6dc2d3" offset="0"/>
            <stop stop-color="#6dc2d3" offset=".138"/>
            <stop stop-color="#7bd1e6" offset=".347"/>
            <stop stop-color="#7bd1e6" offset=".603"/>
            <stop stop-color="#7bd1e6" offset=".721"/>
            <stop stop-color="#58acc6" offset=".965"/>
            <stop stop-color="#58acc6" offset="1"/>
        </linearGradient>
        <clipPath id="C">
            <path d="M595.31 347.75h30.084v-22.059H595.31z"/>
        </clipPath>
        <linearGradient id="D" x2="1" gradientTransform="matrix(27.582 22.756 22.756 -27.582 597.68 323.59)" gradientUnits="userSpaceOnUse">
            <stop stop-color="#1b2747" offset="0"/>
            <stop stop-color="#30507d" offset=".358"/>
            <stop stop-color="#2a3d6b" offset=".688"/>
            <stop stop-color="#375788" offset="1"/>
        </linearGradient>
        <clipPath id="E">
            <path d="M595.31 347.75h30.084v-21.227H595.31z"/>
        </clipPath>
        <linearGradient id="F" x2="1" gradientTransform="matrix(29.512 24.742 24.742 -29.512 594.81 323.47)" gradientUnits="userSpaceOnUse">
            <stop stop-color="#334879" offset="0"/>
            <stop stop-color="#547cb9" offset=".511"/>
            <stop stop-color="#334879" offset="1"/>
        </linearGradient>
        <linearGradient id="G" x1="394.78" x2="393.7" y1="-883.75" y2="-885.87" gradientTransform="translate(-7543.4 2828.3) scale(.14128)" gradientUnits="userSpaceOnUse">
            <stop offset="0"/>
            <stop stop-opacity="0" offset="1"/>
        </linearGradient>
        <linearGradient id="H" x1="371.69" x2="357.12" y1="-842.05" y2="-856.08" gradientTransform="translate(-7543.4 2828.3) scale(.14128)" gradientUnits="userSpaceOnUse">
            <stop offset="0"/>
            <stop stop-opacity="0" offset="1"/>
        </linearGradient>
        <radialGradient id="I" cx="0" cy="0" r="1" gradientTransform="matrix(27.241 0 0 -26.149 604.04 349.62)" gradientUnits="userSpaceOnUse">
            <stop stop-color="#5fd2ff" offset="0"/>
            <stop stop-color="#5fd2ff" offset=".472"/>
            <stop stop-color="#5fd2ff" offset=".637"/>
            <stop stop-color="#104563" offset="1"/>
        </radialGradient>
        <clipPath id="J">
            <path d="M567.86 321.93h63.865v68.013H567.86z"/>
        </clipPath>
    </defs>
    <g transform="matrix(.69285 0 0 -.69285 -237.972 270.032)" clip-path="url(#g)">
        <path d="M631.59 356.55c0-17.598-14.266-31.864-31.864-31.864s-31.864 14.266-31.864 31.864 14.266 31.864 31.864 31.864 31.864-14.266 31.864-31.864" fill="#080619"/>
    </g>
    <g transform="matrix(.69285 0 0 -.69285 -237.972 270.032)" clip-path="url(#h)">
        <g mask="url(#i)">
            <path d="M567.86 356.55c0-17.598 14.266-31.863 31.864-31.863 17.599 0 31.865 14.265 31.865 31.863 0 17.599-14.266 31.865-31.865 31.865-17.598 0-31.864-14.266-31.864-31.865" fill="url(#j)"/>
        </g>
    </g>
    <g transform="matrix(.69285 0 0 -.69285 -237.972 270.032)" clip-path="url(#k)">
        <g mask="url(#l)">
            <path d="M583.87 384.15c-10.331-6.01-14.577-17.194-12.871-18.865 1.499-1.47 3.518-.812 5.527.648 4.161 3.024 8.875 9.999 12.656 12.554 5.981 4.04 13.067 5.446 16.41 5.322 2.882-.108 7.016-.795 8.358-.546 1.645.305.956 1.297.103 1.876-.899.612-6.354 2.123-8.597 2.684-1.56.391-3.268.564-5.036.564-6.008 0-12.7-1.997-16.55-4.237" fill="url(#m)"/>
        </g>
    </g>
    <path d="M581.46 377.1c-4.636-3.805-6.066-8.372-4.18-10.626 1.638-1.955 5.946-.713 10.599 3.071 5.482 4.458 7.323 8.19 5.458 10.463-.615.749-1.611 1.101-2.837 1.101-2.492-.001-5.933-1.459-9.04-4.009" fill="url(#n)" transform="matrix(.69285 0 0 -.69285 -237.972 270.032)"/>
    <path d="M580.91 378.19c-4.635-3.806-6.793-8.964-4.906-11.217 1.637-1.956 6.742.242 11.395 4.026 5.481 4.458 7.505 7.644 5.64 9.917-.639.777-1.717 1.149-3.048 1.149-2.554-.001-6.031-1.373-9.081-3.875" fill="url(#o)" transform="matrix(.69285 0 0 -.69285 -237.972 270.032)"/>
    <g transform="matrix(.69285 0 0 -.69285 -237.972 270.032)" clip-path="url(#p)">
        <g clip-path="url(#q)">
            <g mask="url(#s)" clip-path="url(#r)">
                <path d="M580.95 378.14c-3.119-2.559-5.293-5.922-5.541-8.568-.053-.571-.011-1.092.122-1.548a.99.99 0 0 1 .756-.345h.017c.402.003.894.215 1.47.686 1.768 1.445 3.047 3.571 5.504 5.993 4.992 4.923 6.694 6.464 9.488 6.748-.621.586-1.573.895-2.779.895-2.673 0-6.137-1.479-9.037-3.861" fill="url(#t)"/>
            </g>
        </g>
    </g>
    <path d="M580.87 378.25c-3.144-2.582-5.339-5.982-5.59-8.663-.101-1.086.132-2.002.675-2.65.418-.5 1.064-.754 1.922-.754 2.284 0 5.95 1.828 9.567 4.77 4.116 3.347 6.126 5.833 6.327 7.827.081.804-.147 1.541-.677 2.186-.63.768-1.702 1.173-3.1 1.173-2.704 0-6.2-1.49-9.124-3.889m-4.811-11.226c-.519.619-.741 1.501-.643 2.551.248 2.646 2.422 6.009 5.541 8.568 2.9 2.382 6.364 3.861 9.037 3.861 1.356 0 2.391-.389 2.995-1.125.513-.625.724-1.307.646-2.086-.194-1.928-2.247-4.457-6.277-7.734-3.594-2.923-7.227-4.739-9.481-4.739-.816 0-1.427.237-1.818.704" fill="url(#u)" transform="matrix(.69285 0 0 -.69285 -237.972 270.032)"/>
    <g transform="matrix(.69285 0 0 -.69285 -237.972 270.032)" clip-path="url(#v)">
        <path d="M629.18 365.49c-.575-.541-2.317-.132-3.866 1.114-1.495 1.203-3.176 2.818-5.072 5.118-2.941 3.566-6.46 8.37-9.598 11.713-2.146 2.285 5.958.313 8.911-2.247 8.233-7.138 11.149-14.265 9.625-15.698" fill="#253554"/>
    </g>
    <path d="M598.59 388.52c-.048-.078 1.433-.114 3.661-.615 3.042-.682 5.89-2.542 8.189-4.673 3.455-3.202 7.066-7.873 10.007-11.44 1.896-2.3 4.124-4.119 5.618-5.322 1.548-1.247 2.745-1.723 3.321-1.183 1.523 1.433-1.597 8.765-9.83 15.904-2.953 2.558-9.472 6.075-14.506 7.386-.932.242-2.199.337-3.366.337-1.57 0-2.957-.172-3.094-.394" fill="url(#w)" transform="matrix(.69285 0 0 -.69285 -237.972 270.032)"/>
    <path d="M598.59 388.52c-.048-.078 1.433-.114 3.661-.615 3.042-.682 5.89-2.542 8.189-4.673 3.455-3.202 7.066-7.873 10.007-11.44 1.896-2.3 4.124-4.119 5.618-5.322 1.548-1.247 2.745-1.723 3.321-1.183.505.476.498 1.603-.037 3.157.467-1.448.451-2.498-.032-2.952-.575-.541-1.771.004-3.321 1.251-1.494 1.202-3.653 3.022-5.549 5.322-2.941 3.566-6.621 8.237-10.076 11.439-2.298 2.132-5.145 3.924-8.187 4.607-1.587.356-2.794.477-3.341.544-.135-.041-.223-.087-.253-.135" fill="url(#x)" transform="matrix(.69285 0 0 -.69285 -237.972 270.032)"/>
    <g transform="matrix(.69285 0 0 -.69285 -237.972 270.032)" clip-path="url(#y)">
        <path d="M600.07 388.42c2.319 0 4.579-.18 6.757-.65-.887.486-1.801.87-2.731 1.094-4.215 1.011-6.831-.417-7.149-.596 1.028.1 2.069.152 3.123.152" fill="#214653"/>
    </g>
    <path d="M596.38 388.21l.529.034s2.678 1.694 7.181.614c3.032-.727 5.889-3.157 8.188-5.288 3.455-3.202 6.52-7.942 9.462-11.508 1.895-2.3 3.646-4.051 5.14-5.254 1.549-1.247 2.745-1.723 3.32-1.183 1.524 1.433-1.597 8.765-9.83 15.904-2.952 2.559-11.165 6.382-16.2 7.693-.733.191-1.617.292-2.549.292-1.846 0-3.872-.4-5.241-1.304" fill="url(#z)" transform="matrix(.69285 0 0 -.69285 -237.972 270.032)"/>
    <path d="M604.16 389.21c.089-.017.181-.036.276-.056-.174.042-.269.055-.276.056zm8.46-5.094c3.455-3.203 6.248-7.873 9.188-11.44 1.896-2.3 3.579-4.257 5.073-5.458 1.549-1.248 2.745-1.725 3.32-1.184 1.524 1.433-1.597 8.765-9.83 15.903-5.649 4.898-12.718 6.563-15.935 7.217.917-.215 4.028-1.186 8.184-5.038" fill="url(#A)" transform="matrix(.69285 0 0 -.69285 -237.972 270.032)"/>
    <path d="M614.32 382.66c1.61-1.771 3.088-3.796 4.528-5.771 1.062-1.454 2.065-2.829 3.105-4.09 1.701-2.063 3.492-4.182 5.044-5.431 1.397-1.124 2.179-1.361 2.589-1.361.201 0 .358.055.477.169.215.2.322.568.312 1.064-.029 1.414-.95 3.616-2.527 6.037a35.332 35.332 0 0 1-2.875 3.794c-3.05 2.434-6.663 4.35-10.653 5.589z" fill="url(#B)" transform="matrix(.69285 0 0 -.69285 -237.972 270.032)"/>
    <path d="M172.113 44.38c.089.29.266.95.804 1.235.538.283.863.33 1.507.141.644-.189 1.33-.78 1.33-.78z" fill="#1e5471"/>
    <path d="M172.113 44.38c.089.29.266.95.804 1.235.538.283.863.33 1.507.141.644-.189 1.33-.78 1.33-.78z" fill="none" stroke="#7cdcec" stroke-miterlimit="10" stroke-width=".047113800000000004"/>
    <g clip-path="url(#C)" opacity=".5" transform="matrix(.69285 0 0 -.69285 -237.972 270.032)">
        <path d="M619.48 347.75c-3.106-.011-6.945-1.677-9.884-4.103-2.589-2.137-5.175-5.142-7.488-8.528-1.433-2.098-3.088-4.487-4.981-6.806-.59-.723-1.18-1.301-1.825-1.743 1.899-.42 4.159-.791 6.464-.856a70.269 70.269 0 0 1 1.711-.023h.601c1.243.003 2.647.023 4.029.051.697.208 1.414.444 2.155.711 5.15 1.86 10.557 5.408 12.57 8.079 1.749 2.322 2.55 4.75 2.553 6.894.004 2.144-.789 4.003-2.228 5.189-.946.78-2.202 1.13-3.611 1.135z" fill="url(#D)"/>
    </g>
    <g clip-path="url(#E)" opacity=".5" transform="matrix(.69285 0 0 -.69285 -237.972 270.032)">
        <path d="M619.48 347.75c-3.106-.011-6.945-1.677-9.884-4.103-2.589-2.137-5.175-5.142-7.488-8.528-1.433-2.098-3.088-4.487-4.981-6.806-.59-.723-1.18-1.301-1.825-1.743l.217-.047c.562.419 1.085.944 1.608 1.585 1.893 2.32 3.548 4.707 4.981 6.805 2.313 3.387 4.899 6.393 7.488 8.53 4.299 3.547 10.524 5.47 13.561 2.968 1.412-1.164 2.202-2.977 2.227-5.072v.199c-.024 2.096-.814 3.913-2.227 5.077-.946.78-2.202 1.13-3.611 1.135z" fill="url(#F)"/>
    </g>
    <path d="M175.623 44.68c1.674.177 6.162.229.032-.677-8.635-1.276-13.067-6.796-14.34-8.387-2.211-2.765-3.245-5.044-4.113-7.257-1.052-2.683-.278.219-.249.33.261 1.006 1.462 6.189 6.194 10.46 5.307 4.79 10.67 5.34 12.476 5.531" fill="#0d465c" opacity=".2" stroke-width=".141"/>
    <path d="M174.821 45.182c1.673.177 5.342.394-.725-.867-7.546-1.568-12.184-6.922-13.457-8.513-2.211-2.764-3.245-5.043-4.113-7.257-1.052-2.683-.277.219-.248.331.26 1.005 1.462 6.188 6.193 10.46 5.307 4.79 10.544 5.655 12.35 5.846" fill="#0b8aa1" stroke-width=".141"/>
    <path d="M160.68 35.755c-2.211-2.765-3.245-5.044-4.113-7.257l-.07-.177.058.224c.26 1.005 1.462 6.188 6.193 10.46 5.307 4.79 10.545 5.655 12.351 5.846.6.063 1.456.132 2.028.136-.46-.156-1.383-.385-2.99-.72-7.546-1.567-12.184-6.921-13.457-8.513" fill="#14c4e0" stroke-width=".141"/>
    <path d="M180.937 8.792c1.1-.282 2.247-.248 3.374-.26.98.008 1.97-.017 2.938.17.316.084.672.16.885.431.116.222.014.476-.014.707-1.106 5.43-2.185 10.868-3.293 16.299.864.008 1.73-.018 2.594.011.359.097.39.553.401.862a7.313 7.313 0 0 1-.67 2.987c-.165.287-.382.666-.761.659-.826.007-1.652-.008-2.478.004-.32 1.626-.64 3.253-.977 4.875-.07.33-.244.688-.593.79-.97.336-2.012.227-3.02.248-.58-.024-1.212-.022-1.72-.343-.221-.217-.154-.552-.11-.824.316-1.583.637-3.166.948-4.75-3.572.003-7.145-.002-10.72.001-.324.028-.7-.117-.781-.466-.174-.764.057-1.544.18-2.297.308-1.28.593-2.642 1.459-3.678 3.815-4.959 7.623-9.926 11.436-14.885.21-.311.578-.44.922-.54m-8.771 17.346c2.391-.002 4.784.004 7.176-.005.836-4.172 1.66-8.349 2.499-12.521-3.23 4.172-6.45 8.352-9.675 12.526z" fill="#fff"/>
    <path d="M-7487.4 2702.9c-.32.157-.637.329-.948.513h.274c.317.01.52-.259.674-.513z" fill="url(#G)" stroke-width=".141" transform="translate(7696.17 -2680.6) scale(1.0029)"/>
    <path d="M-7490.9 2705.4c-1.187 1.103-2.36 2.449-3.463 3.937.772.01 1.55.01 2.285-.246.347-.102.522-.458.59-.788.201-.967.396-1.935.588-2.903z" fill="url(#H)" stroke-width=".141" transform="translate(7696.17 -2680.6) scale(1.0029)"/>
    <path d="M611.38 342.9c-2.589-2.137-5.312-5.006-7.625-8.392-1.433-2.099-3.644-5.374-5.459-7.745-1.279-1.672-2.66-3.343-5.015-3.053 1.433-.58 8.495-1.78 18.764 1.927 5.151 1.86 10.559 5.408 12.571 8.079 3.497 4.644 3.701 9.601.803 11.947-1.083.876-2.499 1.263-4.065 1.263-3.223 0-7.082-1.639-9.974-4.026" fill="url(#I)" transform="matrix(.69285 0 0 -.69285 -237.972 270.032)"/>
    <g transform="matrix(.69285 0 0 -.69285 -237.972 270.032)" clip-path="url(#J)">
        <path d="M625.35 345.46c-3.901 3.048-9.934.512-14.175-3.105-2.2-1.876-4.425-4.528-6.738-7.914-1.433-2.098-4.053-5.851-5.868-8.222-1.074-1.404-2.413-2.651-4.169-2.813.152-.03.316-.06.491-.088 1.567.393 3.025 1.747 3.746 2.628 1.892 2.31 4.435 6.124 5.868 8.222 2.313 3.386 4.538 6.038 6.738 7.915 4.241 3.616 10.138 6.152 14.039 3.104 1.801-1.408 2.354-4.039 1.708-6.935l.022.071c.718 2.975.181 5.697-1.662 7.137" fill="#b0ffff"/>
    </g>
    <path d="M69.17 16.457l.44.416.019 12.176-.44.415h-5.751l-.44-.415-.02-12.176.44-.416zm-14.119-.019H42.098c-3.653 0-6.632 2.901-6.632 6.502.02 3.601 2.98 6.529 6.658 6.529h18.782l.44-.466v-6.425l-.44-.414h-5.751l-.44.414v5.259h-7.616c-1.918 0-4.974-1.476-4.974-4.87s2.772-4.897 4.948-4.897h7.538l.337-.206.466-.803-.363-.62m-21.683 0h-5.725l-.466.44.019 12.15.44.44h5.751l.44-.44-.02-12.15-.44-.44M6.686 27.863h7.383c2.902 0 4.948-2.409 4.948-4.922 0-2.512-2.072-4.87-4.922-4.87H6.685zm12.357-11.398c3.653 0 6.632 2.902 6.658 6.503 0 3.6-2.98 6.502-6.632 6.502H.493l-.44-.413-.019-12.176.44-.416z" fill="#420745" stroke-width="18.799"/>
    <path d="M62.98 19.652l6.658-.776V29.03l-.44.415h-5.751l-.44-.415zm-35.777 9.352l.44.44h5.751l.44-.44v-5.88l-6.632.776zm-27.149.02l.44.415h18.575c3.238 0 5.958-2.306 6.502-5.337l-6.994.83c-.752 1.63-2.41 2.9-4.508 2.9H6.686V26.33l-6.632.803zm61.293-.02v-6.45l-.44-.414h-5.751l-.44.414v5.259H47.1c-1.918 0-4.974-1.476-4.974-4.87l.055-.803-6.71.776c.02 3.6 2.98 6.528 6.659 6.528h18.782z" fill="#260021" stroke-width="18.799"/>
    <g transform="translate(-1783.13 -2997.3) scale(6.632)" clip-path="url(#K)">
        <g clip-path="url(#L)">
            <path d="M268.86 456.39h10.527v-2H268.86z" fill="url(#M)"/>
        </g>
    </g>
    <path d="M120.882 16.257h-7.694c-1.658 0-3.238 1.322-3.523 2.927l-1.322 7.254c-.286 1.606.83 2.953 2.461 2.953h7.876c1.631 0 3.212-1.295 3.497-2.9l1.322-7.28c.336-2.177-1.452-2.954-2.617-2.954m-1.788 9.69l-.389.336-7.124-.02 1.036-5.57c.15-1.009-1.062-1.218-1.062-1.218v-.055h8.73zM92.747 29.39h7.746c1.632 0 3.213-1.295 3.498-2.9l1.321-7.28c.337-2.177-1.451-2.954-2.616-2.954h-7.694c-1.659 0-3.239 1.322-3.524 2.902l-2.512 14.119h3.082zm8.135-3.445l-.39.337-7.098-.02 1.01-5.57c.15-1.009-1.089-1.218-1.089-1.218v-.055h8.757zm28.263 3.445l1.528-8.678c.15-1.01-1.115-1.243-1.115-1.243v-.056l7.669-.019.622-3.134h-6.555c-1.631 0-3.238 1.348-3.523 2.927l-1.814 10.207zm13.73-17.02h3.186l-.699 3.886h6.347l-.492 3.135-7.617.02v.056s1.192.207 1.036 1.218l-1.036 5.57 6.347.019-.57 3.109h-6.58c-1.631 0-2.745-1.322-2.46-2.928l1.321-7.253zm-55.75 7.125H76.635l9.352 4.922.44 1.372-.933 2.513c-.362.803-1.295 1.088-2.746 1.088H72.385l.596-3.238h10.44l-9.533-4.896c-.467-.26-.65-.649-.39-1.322l.856-2.487c.26-.7.958-1.192 2.694-1.192h10.673z" fill="#4c87c7" stroke-width="18.799"/>
    <path d="M92.329 33.53h-3.394l2.54-14.249c.31-1.658 1.942-2.98 3.652-2.98h7.72c.673 0 1.632.208 2.228.883.492.543.673 1.269.543 2.15l-1.321 7.176c-.312 1.658-1.943 2.927-3.653 2.927h-7.617zm-3.031-.44h2.772l.7-3.86h7.875c1.554 0 3.057-1.243 3.342-2.746l1.321-7.228c.132-.776-.056-1.425-.466-1.917-.543-.596-1.372-.829-1.995-.829h-7.694c-1.58 0-3.083 1.218-3.368 2.72zm40.129-3.445h-3.497l1.838-10.336c.31-1.658 1.943-3.006 3.653-3.006h6.761l-.62 3.368-7.098-.019.543 1.166zm-3.109-.416h2.85l1.528-8.523c.132-.855-.906-1.036-.958-1.036l-.094-.019v-.336h7.668l.492-2.798h-6.347c-1.58 0-3.082 1.243-3.367 2.746zm-43.419.416H72.355l.649-3.446h9.948l-8.99-4.689c-.569-.312-.725-.829-.466-1.554l.856-2.436c.336-.855 1.242-1.218 2.85-1.218h10.853l-.646 3.238h-10l8.782 4.715c.596.337.777.906.544 1.581l-.933 2.591c-.389.83-1.269 1.218-2.901 1.218M72.72 29.23H82.9c1.503 0 2.28-.286 2.617-.985l.933-2.487-.39-1.192-9.896-5.259h10.984l.52-2.798H77.2c-1.917 0-2.383.622-2.565 1.062l-.829 2.461c-.285.752 0 .986.31 1.166l10.078 5.233H73.263zm76.942.207h-6.71c-.829 0-1.58-.26-2.073-.856-.492-.596-.699-1.321-.543-2.15l1.322-7.254 1.242-6.968h3.498l-.7 4.093h6.373l-.622 3.368-7.098-.02.543 1.14-.985 5.363 6.373-.057zm-6.503-16.787l-1.192 6.657-1.321 7.228c-.132.726.019 1.399.466 1.891.44.517 1.089.803 1.839.803h6.45l.493-2.772h-6.347l1.035-5.751c.132-.856-.881-1.036-.932-1.036l-.113-.019v-.336h7.668l.467-2.798h-6.373l.725-3.86zm-24.43 16.787h-7.771c-.83 0-1.581-.26-2.073-.856s-.7-1.321-.543-2.15l1.321-7.176c.31-1.658 1.943-2.953 3.653-2.953h7.72c.7 0 1.632.207 2.254.88.466.543.649 1.269.519 2.15l-1.372 7.202c-.31 1.658-1.943 2.901-3.705 2.901m-5.388-12.927c-1.581 0-3.083 1.243-3.368 2.772l-1.322 7.228c-.132.726.019 1.399.466 1.917.44.517 1.089.803 1.839.803h7.875c1.581 0 3.083-1.245 3.342-2.746l1.322-7.228c.131-.776-.02-1.425-.467-1.917-.519-.596-1.372-.83-1.994-.83zm5.517 9.974l-7.305-.019 1.036-5.751c.131-.829-.906-1.036-.959-1.036l-.113-.019v-.336h9.093l-1.242 6.71zm-6.942-.31l6.942.019.207-.207 1.192-6.373h-7.901l.543 1.166zm-11.244.31l-7.332-.019 1.062-5.751c.132-.829-.906-1.036-.958-1.036l-.15-.019.055-.336h9.093l-1.243 6.71zm-6.943-.31l6.943.019.233-.207 1.139-6.373h-7.901l.57 1.166z" fill="#3f85c5" stroke-width="18.799"/>
    <path d="M112.196 24.344h-.337l-.362 2.124.362-.286zM129.767 27.74l-.31-.132-.286 1.581h-2.85l-.389.416h3.498zM121.98 27.54l-.233-.075c-.622 1.01-1.762 1.735-2.98 1.735h-7.875c-.752 0-1.398-.286-1.838-.802l-.467-.933-.285.075.519 1.01c.492.57 1.242.855 2.072.855h7.772c1.372 0 2.668-.752 3.316-1.865M143.445 19.252l.776.337 7.125.019-.26-.363zM149.235 29.24h-6.45c-.753 0-1.4-.286-1.84-.803l-.492-1.502h-.31a2.466 2.466 0 0 0 .57 1.658c.492.57 1.242.856 2.072.856h6.71zM137.255 19.252h-7.694l.855.337 7.099.019zM85.74 28.44l.932-2.59c.234-.674.056-1.243-.543-1.582l-8.782-4.715-1.243-.233L86 24.58l.39 1.191-.933 2.513c-.336.673-1.115.959-2.616.959H72.66l-.363.413H82.84c1.632 0 2.513-.389 2.901-1.218M123.178 17.156c-.596-.673-1.528-.882-2.228-.882h-7.72c-1.398 0-2.772.882-3.368 2.125l.234.15c.543-1.192 1.814-2.072 3.16-2.072h7.694c.622 0 1.478.233 1.995.829l.286.413.259-.131zM91.929 33.13h-2.772l-.363.44h3.394zM104.209 26.64l.596-3.264h-.312l-.596 3.238c-.286 1.528-1.762 2.746-3.342 2.746H92.68l.259.207h7.616c1.711 0 3.342-1.269 3.653-2.928M93.227 26.44l.39-.286.984-5.388-.57-1.166-.855.02.15.018c.057 0 1.09.207.96 1.036z" fill="#3061ab" stroke-width="18.799"/>
    <path d="M111.497 19.652l.132-.132-.207-.206v.336zM104.908 17.555c.286.44.39 1.01.286 1.658l-.726 3.938h.337l.699-3.86c.113-.777 0-1.399-.363-1.917zM112.795 20.75l-.132-.726-.26.132.076.517-.673 3.627h.336zM123.478 17.555l-.26.094.26.7.286-.076zM109.6 19.252l.31.075v-.02l.207-.672-.26-.132zM145.342 16.657l.363-.207.7-4.093-.364.414zM143.445 19.652l.15-.15-.206-.207v.336zM140.25 26.44l-.019.31h.31l.02-.207 1.32-7.227 1.192-6.658-.259-.44-1.243 6.969zM129.568 19.652l.15-.15-.15-.188zM93.227 19.252l-.057.337h.057l.188-.15zM101.114 26.04l1.243-6.71-.39.31-1.165 6.373-.056.15.132.26zM137.854 16.657l-.493 2.798.26.363.62-3.368zM151.532 16.657l-.492 2.798.259.363.596-3.368zM89.533 31.83l-.286-.019-.336 1.814.389-.44zM149.834 26.44l-.492 2.772.259.207.622-3.342zM87.636 16.657l-.519 2.798.26.233.646-3.238zM86.638 24.94l-.312.094.075.336.286.113zM73.36 20.95l.286-.132.056-.829.829-2.46c.131-.31.389-.674 1.114-.882l-.074-.233c-.673.188-1.115.543-1.322 1.062l-.83 2.435zM73.16 26.44l-.26-.233-.648 3.445.363-.413z" fill="#87b8e3" stroke-width="18.799"/>
</svg>
