<svg width="396.88mm" height="396.88mm" version="1.1" viewBox="0 0 396.87 396.87" xml:space="preserve" xmlns="http://www.w3.org/2000/svg"><defs><style>.a{fill:#ffdf00;}.b{fill:#e52322;}</style><style>.a{fill:#ede7df;}.b{fill:#9c1c21;}</style><linearGradient id="a" x1="256" x2="256" y1="60.011" y2="181.12" gradientTransform="matrix(.87414 0 0 -.87372 396.35 499.22)" gradientUnits="userSpaceOnUse">
		<stop stop-color="#603ba3" offset="0"/>
		<stop stop-color="#3f0d8a" offset="1"/>
	</linearGradient></defs><g transform="translate(-421.69,-49.91)"><rect x="421.69" y="49.91" width="396.87" height="396.88" fill="#fff" stroke-width="3.6943" style="paint-order:stroke fill markers"/><path d="m421.69 49.91v273.13h28.329c12.675-28.658 38.9-41.851 70.543-50.676l40.823-11.533c9.7903-2.6212 17.657-8.737 17.657-17.125 0-10.834-10.49-18.436-32.518-18.61-20.892 0-36.714 8.1258-38.462 27.61h-60.141c3.4091-49.977 44.057-65.355 98.953-65.355 56.557 0 92.572 18.785 92.572 56.967 0 64.044-111.1 47.443-135.14 78.548h114.43l95.981-103.19h76.05v103.27h27.805v-273.04zm29.522 40.079h91.297c18.117 0 32.682 14.742 32.682 32.682s-14.564 32.683-32.682 32.683h-91.297c-1.2433 0-2.1312-0.88854-2.1312-2.1318l-0.17822-60.923c0-1.4212 0.88855-2.3094 2.3094-2.3094zm133.39 0h28.419c1.2433 0 2.1319 0.88825 2.1319 2.3094v60.923c0 1.2433-0.71088 2.1318-2.1319 2.1318h-28.419c-1.2432 0-2.1312-0.71135-2.1312-2.1318l-6e-5 -60.923c0-1.4212 0.71033-2.3094 2.1313-2.3094zm71.403 0h63.13c1.857-0.17474 2.8946 1.8249 2.0572 3.1969l-2.3094 4.0855c-0.27718 0.50337-0.78823 0.8886-1.6586 0.8886h-37.062c-10.657 0-24.334 7.6374-24.334 24.689 0 17.051 15.097 24.334 24.511 24.334h37.478l-0.17767-26.288c0-1.4205 0.88788-2.3089 2.3089-2.3089h28.242c1.421 0 2.3088 0.88838 2.3088 2.3089v32.327c0 1.2433-0.71021 2.1318-2.1312 2.1318h-92.362c-18.117 0-32.682-14.743-32.682-32.683 0-18.117 14.565-32.682 32.682-32.682zm104.97 0h28.064c1.421 0 2.309 0.88825 2.309 2.3094v60.923c0 1.4205-0.888 2.1318-2.1313 2.1318h-28.331c-1.2433 0-2.1313-0.88854-2.1313-2.1318l-0.089-60.923c0-1.4212 0.88844-2.3094 2.3094-2.3094zm-279.39 8.348v49.023h36.412c14.21 0 24.334-12.078 24.334-24.511 0-12.789-10.302-24.512-24.334-24.512zm259.29 158.38-61.943 66.318h61.943z" fill="#3f0d8a" stroke-width=".87393"/><path class="st0" d="m421.69 360.47v86.314h396.88v-86.314h-27.893v49.366h-50.351v-49.366z" fill="url(#a)" stroke-width=".87393"/></g><style type="text/css">
</style>
</svg>
