<svg width="211.41mm" height="233.42mm" version="1.1" viewBox="0 0 211.42 233.42" xmlns="http://www.w3.org/2000/svg" xmlns:xlink="http://www.w3.org/1999/xlink">
 <defs>
  <linearGradient id="a" x1="287.91" x2="269.04" y1="2195.4" y2="-944.84" gradientTransform="matrix(.095146 0 0 .095146 303.33 62.559)" gradientUnits="userSpaceOnUse">
   <stop stop-color="#fff" offset="0"/>
   <stop stop-color="#090551" offset="1"/>
  </linearGradient>
 </defs>
 <g transform="translate(-223.76 26.085)">
  <g>
   <path d="m435.18 58.39-144.26 72.364v76.581l144.26-72.364z" fill="#f3e9f1" opacity=".97"/>
   <path d="m230.91 185.33h194.55v3.2846h-194.55z" fill="#f3e9f1" opacity=".97"/>
   <path d="m223.76-26.085v112.34l211.41-43.311v-69.031h-105.71zm211.41 140.22-0.252 71.191h0.252z" fill="url(#a)"/>
   <path d="m223.76 86.258 211.41-43.363v142.44l-211.41 3.8e-4z" fill="#03024e" opacity=".97"/>
   <path d="m282.33 128.4 152.84-76.669v76.581l-152.84 76.669z" fill="#fe0002" opacity=".97"/>
  </g>
  <g transform="matrix(.045078 0 0 -.045078 223.76 185.33)" fill="#fff">
   <g>
    <path transform="matrix(7.5 0 0 -7.5 0 4690)" d="m111.41 156.18c-27.775 0.025-35.674 0.42383-36.074 1.4238-0.4 0.93333-0.53372 20.934-0.40039 44.4l0.40039 42.666h141.33l8.4004-4.5332c15.467-8.4 23.466-21.867 23.6-39.467 0-9.4667-0.53178-11.733-4.3984-19.6-4.8-9.7333-11.467-16.401-21.467-21.334l-6.1348-3.0664-70.398-0.39844c-14.133-0.0667-25.601-0.10013-34.859-0.0918zm7.2578 10.49h28.801c18.533 0 30.799 0.53489 34.133 1.6016 7.6 2.2667 17.735 11.732 20.668 19.465 2.8 7.6 2.9333 19.068 0 25.734-3.0667 7.4667-10.801 15.2-18.268 18.4-6.1333 2.6667-8.5329 2.7999-35.6 2.5332l-29.066-0.40039-0.40039-33.732z" stroke-width=".13333"/>
    <path d="m2284 3504c9-24 7-627-2-642-7-9-47-12-168-10l-159 3-3 320c-1 176 0 325 3 332 3 10 45 13 164 13 136 0 160-2 165-16z"/>
    <path d="m3390 3505c0-9-7-27-16-40l-16-25h-227c-224 0-228 0-279-26-156-78-189-286-65-410 67-67 73-69 336-72l237-3v291l168-2 167-3v-360h-1070l-57 28c-72 35-140 110-168 185-30 79-25 195 13 268 33 65 113 137 180 163 49 19 77 20 425 20 328 1 372-1 372-14z"/>
    <path d="m4118 3188-3-333-162-3-163-2v670h330z"/>
    <path d="m4690 2114-8e-4 -866-26.999 6c-104 25-237 124-290 214-34 57-62.524 154.54-70.008 207l-5.9896 54.994h253.01v120.01h-250.01v99.991h250.01v120.01h-250.01v99.981h125l125.01-0.01-0.01 60.006v60.009l-125-0.01h-125v100h125l125-0.01v120.02l-126-0.01h-127l5.9896 63c16 169 126.01 318 285.01 383 31 13 67 24 80 24h22.01z"/>
   </g>
   <path d="m2050 2480v-130h-700v-230h600v-240h-600v-320h-370v1050h1070z" fill-opacity=".94118"/>
   <path d="m2794 2305c78-165 146-300 151-300s73 135 150 300l141 300 232 3 232 2v-1050h-340v283c0 156-3 287-7 290-14 15-35-23-158-293l-129-280h-243l-133 290c-73 160-138 289-144 287-8-3-12-94-14-290l-2-287h-340v1050l231-2 232-3z" fill-opacity=".94118"/>
  </g>
 </g>
</svg>
