<svg width="200mm" height="40.614mm" version="1.1" viewBox="0 0 200 40.614" xmlns="http://www.w3.org/2000/svg" xmlns:xlink="http://www.w3.org/1999/xlink">
 <defs>
  <clipPath id="c">
   <path d="m143 412h11v3h-11z"/>
  </clipPath>
  <clipPath id="b">
   <path d="m149.48 412.27c-0.24609 0-0.48047 0.0937-0.65234 0.26563-0.17188 0.16797-0.26563 0.39453-0.26563 0.63672 0 0.49609 0.41407 0.90234 0.92188 0.90234h2.5586l0.0742-0.0742v-0.8789l-0.0781-0.0703h-0.78125l-0.0781 0.0703 4e-3 0.70312h-1.0234c-0.26953 0-0.66406-0.20703-0.66406-0.64844 0-0.42578 0.33984-0.65625 0.66015-0.65625h1.0234l0.0625-0.0312 0.0664-0.11328v-0.0703l-0.0664-0.0352zm-0.89062 0.90235c0-0.23438 0.0937-0.45313 0.26172-0.61719 0.16406-0.16406 0.39062-0.25391 0.6289-0.25391h1.7617l0.0391 0.0195v0.043l-0.0664 0.10938-0.0352 0.0195h-1.0234c-0.33593 0-0.6914 0.23828-0.6914 0.68359 0 0.46094 0.41406 0.67579 0.69531 0.67579h1.0508v-0.73047l0.0469-0.043h0.78125l0.0469 0.043v0.8789l-0.043 0.043h-2.5625c-0.48828 0-0.89062-0.39062-0.89062-0.87109m-1.082-0.89844-0.0586 0.0195-0.0195 0.0508 4e-3 1.6562 0.0195 0.0547 0.0547 0.0195h0.78515l0.0547-0.0195 0.0195-0.0547-4e-3 -1.6562-0.0195-0.0508-0.0547-0.0195zm-0.0352 1.7617-8e-3 -0.0352-4e-3 -1.6562 0.0117-0.0312 0.0352-0.0117h0.78125l0.0352 0.0117 0.0117 0.0312v1.6562l-0.0117 0.0352-0.0312 0.0117h-0.78515zm4.9102-1.7617-0.0742 0.0742v1.6563l0.0781 0.0742h0.78125l0.0781-0.0742-4e-3 -1.6562-0.0742-0.0742zm-0.04295 1.7305v-1.6562l0.043-0.0469h0.78515l0.0469 0.0469v1.6562l-0.0469 0.043h-0.78125zm-8.5312-1.7305-0.0781 0.0742v1.6563l0.0781 0.0742h2.5312c0.24218 0 0.47656-0.0977 0.64843-0.26563 0.17188-0.17187 0.26954-0.39843 0.26954-0.63672 0-0.5-0.41407-0.90234-0.92188-0.90234zm-0.04688 1.7305v-1.6562l0.0469-0.0469h2.5273c0.48828 0 0.89063 0.39454 0.89063 0.875 0 0.23047-0.0898 0.44922-0.25782 0.61329-0.16797 0.16796-0.39453 0.25781-0.6289 0.25781h-2.5312zm0.875-1.5078v1.332h-8e-3l0.0391 0.0742v-0.0469h0.99219c0.42578 0 0.6875-0.35547 0.6875-0.68359 0-0.375-0.30859-0.67578-0.6875-0.67578zm0.0273 0.0273h0.99609c0.36328 0 0.66016 0.28906 0.66016 0.64844 0 0.3164-0.25391 0.65234-0.66016 0.65234h-0.99219z"/>
  </clipPath>
  <linearGradient id="a" x1="-.00050767" x2=".99934" gradientTransform="matrix(0 -1.8073 1.8073 0 140.11 414.07)" gradientUnits="userSpaceOnUse">
   <stop stop-color="#681a6f" offset="0"/>
   <stop stop-color="#681a6f" offset=".015625"/>
   <stop stop-color="#67196e" offset=".03125"/>
   <stop stop-color="#66196d" offset=".046875"/>
   <stop stop-color="#65196c" offset=".0625"/>
   <stop stop-color="#64186b" offset=".078125"/>
   <stop stop-color="#63186a" offset=".09375"/>
   <stop stop-color="#621769" offset=".10938"/>
   <stop stop-color="#611768" offset=".125"/>
   <stop stop-color="#611767" offset=".14062"/>
   <stop stop-color="#601666" offset=".15625"/>
   <stop stop-color="#5f1665" offset=".17188"/>
   <stop stop-color="#5e1564" offset=".1875"/>
   <stop stop-color="#5d1563" offset=".20312"/>
   <stop stop-color="#5c1562" offset=".21875"/>
   <stop stop-color="#5b1461" offset=".23438"/>
   <stop stop-color="#5a1460" offset=".24219"/>
   <stop stop-color="#5a145f" offset=".25"/>
   <stop stop-color="#59135e" offset=".25781"/>
   <stop stop-color="#59135e" offset=".26562"/>
   <stop stop-color="#58135d" offset=".28125"/>
   <stop stop-color="#58135c" offset=".29688"/>
   <stop stop-color="#57125b" offset=".3125"/>
   <stop stop-color="#56125a" offset=".32812"/>
   <stop stop-color="#551159" offset=".34375"/>
   <stop stop-color="#541158" offset=".35938"/>
   <stop stop-color="#531057" offset=".375"/>
   <stop stop-color="#521056" offset=".39062"/>
   <stop stop-color="#510f55" offset=".39844"/>
   <stop stop-color="#510f54" offset=".40625"/>
   <stop stop-color="#500f53" offset=".41406"/>
   <stop stop-color="#500f53" offset=".42188"/>
   <stop stop-color="#4f0e52" offset=".4375"/>
   <stop stop-color="#4e0e51" offset=".45312"/>
   <stop stop-color="#4d0e50" offset=".46875"/>
   <stop stop-color="#4c0d4f" offset=".48438"/>
   <stop stop-color="#4b0d4e" offset=".49219"/>
   <stop stop-color="#4b0d4e" offset=".5"/>
   <stop stop-color="#4a0c4d" offset=".50781"/>
   <stop stop-color="#4a0c4c" offset=".51562"/>
   <stop stop-color="#490c4b" offset=".53125"/>
   <stop stop-color="#480b4a" offset=".54688"/>
   <stop stop-color="#470b49" offset=".5625"/>
   <stop stop-color="#460a48" offset=".57812"/>
   <stop stop-color="#450947" offset=".58594"/>
   <stop stop-color="#450947" offset=".59375"/>
   <stop stop-color="#440946" offset=".60156"/>
   <stop stop-color="#440945" offset=".60938"/>
   <stop stop-color="#430844" offset=".61719"/>
   <stop stop-color="#420844" offset=".625"/>
   <stop stop-color="#410843" offset=".64062"/>
   <stop stop-color="#400742" offset=".64844"/>
   <stop stop-color="#400742" offset=".65625"/>
   <stop stop-color="#3f0641" offset=".66406"/>
   <stop stop-color="#3f0640" offset=".67188"/>
   <stop stop-color="#3e063f" offset=".6875"/>
   <stop stop-color="#3d053e" offset=".69531"/>
   <stop stop-color="#3d053e" offset=".70312"/>
   <stop stop-color="#3c043d" offset=".71094"/>
   <stop stop-color="#3c043c" offset=".71875"/>
   <stop stop-color="#3c043c" offset=".72656"/>
   <stop stop-color="#3b033b" offset=".73438"/>
   <stop stop-color="#3a033a" offset=".74219"/>
   <stop stop-color="#390339" offset=".75"/>
   <stop stop-color="#380238" offset=".76562"/>
   <stop stop-color="#380238" offset=".77344"/>
   <stop stop-color="#370137" offset=".78125"/>
   <stop stop-color="#370136" offset=".78906"/>
   <stop stop-color="#360135" offset=".79688"/>
   <stop stop-color="#350034" offset=".8125"/>
   <stop stop-color="#350034" offset=".82031"/>
   <stop stop-color="#340033" offset=".82812"/>
   <stop stop-color="#330032" offset=".83594"/>
   <stop stop-color="#320031" offset=".84375"/>
   <stop stop-color="#320031" offset=".85156"/>
   <stop stop-color="#310030" offset=".85938"/>
   <stop stop-color="#31002f" offset=".86719"/>
   <stop stop-color="#30002e" offset=".875"/>
   <stop stop-color="#2f002d" offset=".89062"/>
   <stop stop-color="#2f002d" offset=".89844"/>
   <stop stop-color="#2e002c" offset=".90625"/>
   <stop stop-color="#2d002b" offset=".91406"/>
   <stop stop-color="#2c002a" offset=".92188"/>
   <stop stop-color="#2c002a" offset=".92969"/>
   <stop stop-color="#2b0029" offset=".9375"/>
   <stop stop-color="#2b0028" offset=".94531"/>
   <stop stop-color="#2a0027" offset=".95312"/>
   <stop stop-color="#2a0026" offset=".96094"/>
   <stop stop-color="#290026" offset=".96875"/>
   <stop stop-color="#290025" offset=".97656"/>
   <stop stop-color="#280024" offset=".98438"/>
   <stop stop-color="#270024" offset=".99219"/>
   <stop stop-color="#260023" offset="1"/>
  </linearGradient>
 </defs>
 <g transform="translate(202.27 -118.29)">
  <g transform="matrix(18.378 0 0 18.378 7552.9 -2131.3)">
   <path d="m-416.15 123.18h-0.37069c-0.0785 0-0.15572 0.0634-0.1695 0.14056l-0.0634 0.35002c-0.0138 0.0758 0.04 0.14056 0.11852 0.14056h0.37896c0.0785 0 0.15434-0.062 0.16812-0.13781l0.0634-0.35002c0.0152-0.1061-0.0703-0.14331-0.12541-0.14331m-0.0882 0.46715-0.0179 0.0152-0.34175-1e-3 0.0496-0.26734c7e-3 -0.0482-0.051-0.0592-0.051-0.0592v-3e-3l0.4203 1e-3zm-1.265 0.16399h0.37207c0.0786 0 0.15434-0.062 0.16812-0.13781l0.0634-0.35002c0.0152-0.1061-0.0689-0.14331-0.1254-0.14331h-0.37069c-0.0786 0-0.15434 0.0634-0.1695 0.14056l-0.11989 0.67799h0.14883zm0.39137-0.16399-0.0179 0.0152-0.34313-1e-3 0.0496-0.26734c7e-3 -0.0482-0.0524-0.0592-0.0524-0.0592v-3e-3l0.42167 1e-3zm1.3574 0.16399 0.0744-0.41617c7e-3 -0.0496-0.0537-0.0606-0.0537-0.0606v-3e-3l0.36932-1e-3 0.0289-0.15021h-0.31419c-0.0799 0-0.15572 0.0648-0.1695 0.14194l-0.0868 0.4892zm0.66146-0.81718h0.15296l-0.0345 0.18604h0.30592l-0.0248 0.1502-0.36518 1e-3v3e-3s0.0565 0.011 0.0496 0.0592l-0.0496 0.26734 0.30455 1e-3 -0.0276 0.14883h-0.31557c-0.0786 0-0.13229-0.0634-0.11851-0.14056l0.0634-0.34726zm-2.6803 0.34176h-0.50437l0.44925 0.23702 0.022 0.0648-0.0455 0.12264c-0.0179 0.0372-0.062 0.051-0.13229 0.051h-0.49748l0.0276-0.15434h0.50161l-0.45751-0.23703c-0.022-0.011-0.0317-0.0303-0.0193-0.0634l0.0414-0.11989c0.0124-0.0317 0.0455-0.0565 0.12953-0.0565h0.51263z" fill="#4c87c7"/>
   <path d="m-417.53 124.01h-0.16399l0.12265-0.68351c0.0152-0.0799 0.0937-0.14469 0.17639-0.14469h0.37069c0.0331 0 0.0786 0.01 0.10749 0.0427 0.0234 0.0262 0.0317 0.0606 0.0262 0.10335l-0.0634 0.34451c-0.0152 0.0799-0.0937 0.14056-0.17639 0.14056h-0.36518zm-0.14607-0.0207h0.13367l0.0345-0.18603h0.37759c0.0758 0 0.14745-0.0593 0.16123-0.13091l0.0634-0.34865c6e-3 -0.0372-1e-3 -0.0689-0.0234-0.0923l-0.0951-0.0386h-0.37069c-0.0758 0-0.14745 0.0579-0.16123 0.13091zm1.9292-0.16536h-0.16812l0.0882-0.49609c0.0152-0.0813 0.0937-0.14607 0.17639-0.14607h0.32384l-0.0289 0.16123h-0.34177l0.0262 0.0565zm-0.15021-0.0207h0.13781l0.073-0.40928c7e-3 -0.0413-0.0427-0.0496-0.0455-0.0496l-5e-3 -1e-3v-0.0165h0.36931l0.0234-0.13367h-0.30454c-0.0772 0-0.14883 0.0593-0.16261 0.1323zm-2.0863 0.0207h-0.50712l0.0303-0.16536h0.47956l-0.43271-0.226c-0.0275-0.0152-0.0345-0.04-0.022-0.0744l0.0413-0.11713c0.0165-0.0413 0.0592-0.0592 0.13642-0.0592h0.52228l-0.0317 0.15571h-0.48093l0.42305 0.22738c0.0276 0.0152 0.0372 0.0427 0.0262 0.0758l-0.0455 0.12402c-0.0179 0.04-0.0606 0.0593-0.13918 0.0593m-0.4892-0.0207h0.4892c0.073 0 0.11025-0.0138 0.1254-0.0469l0.0441-0.11989-0.0179-0.0565-0.47404-0.25356h0.52641l0.0262-0.13366h-0.50436c-0.0923 0-0.11437 0.0289-0.12264 0.051l-0.04 0.11852c-0.0138 0.0344 0 0.0469 0.0152 0.0551l0.48369 0.2508h-0.52641zm3.6986 0.01h-0.32246c-0.04 0-0.0758-0.0124-0.0992-0.04-0.0248-0.0289-0.0331-0.0648-0.0262-0.10336l0.0634-0.34864 0.0593-0.33486h0.16812l-0.0331 0.19568h0.30593l-0.0303 0.16123h-0.34176l0.0262 0.0537-0.0469 0.25907 0.30592-3e-3zm-0.31281-0.80753-0.0565 0.32108-0.0634 0.34727c-7e-3 0.0344 1e-3 0.0675 0.022 0.0923 0.0207 0.0234 0.0524 0.0372 0.0882 0.0372h0.31006l0.0234-0.13367h-0.30593l0.051-0.27561c5e-3 -0.04-0.0427-0.0496-0.0455-0.0496l-5e-3 -1e-3v-0.0165h0.36931l0.0234-0.13367h-0.30592l0.0331-0.18741zm-1.1741 0.80753h-0.37345c-0.04 0-0.0758-0.0124-0.0992-0.04-0.0248-0.0289-0.0345-0.0648-0.0262-0.10336l0.0634-0.34589c0.0138-0.0799 0.0937-0.14193 0.17501-0.14193h0.37207c0.0331 0 0.0772 0.01 0.10749 0.0427 0.022 0.0275 0.0317 0.0606 0.0248 0.10335l-0.0661 0.34589c-0.0138 0.0799-0.0937 0.13918-0.17777 0.13918m-0.25907-0.62012c-0.0758 0-0.14883 0.0593-0.16261 0.13229l-0.0634 0.34727c-5e-3 0.0358 3e-3 0.0675 0.0234 0.0923 0.0207 0.0248 0.0524 0.0386 0.0882 0.0386h0.37896c0.0744 0 0.14745-0.0592 0.15985-0.13091l0.0634-0.34865c7e-3 -0.0372-1e-3 -0.0689-0.022-0.0923l-0.0951-0.0386zm0.26596 0.47818-0.35278-1e-3 0.051-0.27561c6e-3 -0.04-0.0441-0.0496-0.0455-0.0496l-7e-3 -1e-3v-0.0165h0.43822l-0.0593 0.32383zm-0.33486-0.0152 0.33349 3e-3 0.011-0.01 0.0565-0.3073h-0.38034l0.0262 0.0551zm-0.54019 0.0152-0.3514-1e-3 0.0496-0.27561c7e-3 -0.04-0.0441-0.0496-0.0455-0.0496l-7e-3 -1e-3 1e-3 -0.0165h0.43683l-0.0592 0.32383zm-0.33349-0.0152 0.33349 3e-3 0.01-0.01 0.0565-0.3073h-0.38034l0.0276 0.0551z" fill="#3f85c5"/>
   <path d="m-416.58 123.57h-0.0165l-0.0179 0.10059 0.0179-0.0138z" fill="#3061ab"/>
   <path d="m-415.73 123.73-0.0152-7e-3 -0.0138 0.0758h-0.13781l-0.0179 0.0207h0.16812z" fill="#3061ab"/>
   <path d="m-416.11 123.72-0.011-4e-3c-0.0289 0.0496-0.0841 0.0841-0.14194 0.0841h-0.37896c-0.0358 0-0.0675-0.0138-0.0882-0.0386l-0.022-0.0455-0.0138 5e-3 0.0234 0.0482c0.0248 0.0276 0.0593 0.04 0.1006 0.04h0.37345c0.0661 0 0.12815-0.0358 0.15847-0.0896" fill="#3061ab"/>
   <path d="m-415.07 123.32 0.0386 0.0165h0.34175l-0.011-0.0165z" fill="#3061ab"/>
   <path d="m-414.79 123.8h-0.31006c-0.0358 0-0.0675-0.0138-0.0882-0.0372l-0.0248-0.073h-0.0152l0.0289 0.0799c0.0234 0.0275 0.0592 0.04 0.0992 0.04h0.32246z" fill="#3061ab"/>
   <path d="m-415.37 123.32h-0.36931l0.04 0.0165h0.34175z" fill="#3061ab"/>
   <path d="m-417.85 123.76 0.0455-0.12402c0.011-0.0331 1e-3 -0.0606-0.0262-0.0758l-0.42306-0.22737-0.0593-0.011 0.47543 0.25218 0.0179 0.0579-0.0441 0.11989c-0.0152 0.0331-0.0537 0.0469-0.1254 0.0469h-0.4892l-0.0179 0.0207h0.50712c0.0786 0 0.12127-0.0193 0.13918-0.0593" fill="#3061ab"/>
   <path d="m-416.05 123.22c-0.0289-0.0331-0.0744-0.0427-0.10611-0.0427h-0.37207c-0.0675 0-0.13366 0.0427-0.16261 0.10335l0.0124 7e-3c0.0262-0.0565 0.0868-0.0992 0.15159-0.0992h0.37069l0.0951 0.0386 0.0138 0.0207 0.0124-7e-3 -0.0152-0.0207" fill="#3061ab"/>
   <path d="m-417.55 123.99h-0.13367l-0.0179 0.0207h0.16398z" fill="#3061ab"/>
   <path d="m-416.96 123.67 0.0289-0.1571h-0.0152l-0.0275 0.1571c-0.0138 0.0717-0.0854 0.13091-0.16123 0.13091h-0.37758l0.0124 0.01h0.36519c0.0827 0 0.16123-0.0606 0.175-0.14057" fill="#3061ab"/>
   <path d="m-417.48 123.67 0.0179-0.0138 0.0469-0.25907-0.0276-0.0551-0.04 1e-3 7e-3 1e-3c1e-3 0 0.0524 0.01 0.0455 0.0496z" fill="#3061ab"/>
   <path d="m-416.61 123.34 7e-3 -7e-3 -0.01-0.01v0.0165z" fill="#87b8e3"/>
   <path d="m-416.92 123.24 0.0138 0.0799-0.0345 0.19016h0.0152l0.0345-0.18603c5e-3 -0.0372-1e-3 -0.0675-0.0179-0.0923z" fill="#87b8e3"/>
   <path d="m-416.55 123.39-4e-3 -0.0331-0.0138 6e-3 4e-3 0.0248-0.0317 0.17501h0.0152z" fill="#87b8e3"/>
   <path d="m-416.04 123.24-0.0124 5e-3 0.0124 0.0331 0.0152-4e-3z" fill="#87b8e3"/>
   <path d="m-416.7 123.32 0.0138 4e-3v-1e-3l0.011-0.0317-0.0124-7e-3z" fill="#87b8e3"/>
   <path d="m-414.99 123.19 0.0179-0.011 0.0331-0.19707-0.0179 0.0207z" fill="#87b8e3"/>
   <path d="m-415.07 123.34 7e-3 -5e-3 -0.011-0.011v0.0165z" fill="#87b8e3"/>
   <path d="m-415.23 123.67-3e-3 0.0138h0.0152l1e-3 -0.01 0.0648-0.34727 0.0565-0.32108-0.0124-0.0193-0.0593 0.33349z" fill="#87b8e3"/>
   <path d="m-415.74 123.34 7e-3 -8e-3 -8e-3 -8e-3v0.0165z" fill="#87b8e3"/>
   <path d="m-417.49 123.32-1e-3 0.0165h1e-3l8e-3 -8e-3z" fill="#87b8e3"/>
   <path d="m-417.11 123.65 0.0593-0.32384-0.0179 0.0152-0.0551 0.3073-4e-3 7e-3 7e-3 0.0124z" fill="#87b8e3"/>
   <path d="m-415.35 123.19-0.0234 0.13367 0.0124 0.0165 0.0289-0.16123z" fill="#87b8e3"/>
   <path d="m-414.68 123.19-0.0234 0.13367 0.011 0.0165 0.0303-0.16123z" fill="#87b8e3"/>
   <path d="m-417.67 123.92-0.0152-1e-3 -0.0152 0.0868 0.0179-0.0207z" fill="#87b8e3"/>
   <path d="m-414.77 123.67-0.0234 0.13367 0.0124 0.01 0.0289-0.15986z" fill="#87b8e3"/>
   <path d="m-417.76 123.19-0.0262 0.13367 0.0124 0.011 0.0317-0.15572z" fill="#87b8e3"/>
   <path d="m-417.8 123.59-0.0152 6e-3 3e-3 0.0165 0.0152 4e-3z" fill="#87b8e3"/>
   <path d="m-418.44 123.4 0.0138-7e-3 3e-3 -0.0386 0.04-0.11851c5e-3 -0.0152 0.0179-0.0331 0.0537-0.0441l-4e-3 -0.01c-0.0331 8e-3 -0.0537 0.0248-0.0634 0.051l-0.0413 0.11713-1e-3 0.0496" fill="#87b8e3"/>
   <path d="m-418.45 123.67-0.0124-0.01-0.0303 0.16537 0.0179-0.0207z" fill="#87b8e3"/>
   <path d="m-418.64 123.18 0.0207 0.0207 1e-3 0.58428-0.022 0.0207h-0.27562l-0.0221-0.0207v-0.58429l0.0207-0.0207zm-0.67938-1e-3h-0.62149c-0.17777 0-0.31971 0.13918-0.31833 0.31282 0 0.17363 0.14194 0.31281 0.31833 0.31281h0.90399l0.0207-0.0207v-0.30868l-0.022-0.0221h-0.27561l-0.022 0.0207 1e-3 0.25218h-0.36656c-0.0923 0-0.23978-0.0703-0.23978-0.23289 0-0.16398 0.13368-0.23564 0.2384-0.23564h0.36105l0.0165-0.01 0.0234-0.04-0.0179-0.0289m-1.0418 0h-0.2756l-0.022 0.0207 1e-3 0.58429 0.0207 0.0207h0.27699l0.0207-0.0207-1e-3 -0.58429-0.0207-0.0207m-1.283 0.54846h0.35553c0.13919 0 0.2384-0.11438 0.2384-0.23565s-0.10059-0.23427-0.2384-0.23427h-0.35553zm0.59393-0.54709c0.17639 0 0.31971 0.13919 0.31971 0.31282 0 0.17225-0.14332 0.31281-0.31833 0.31281h-0.89297l-0.0221-0.0206v-0.58429l0.0221-0.0207z" fill="#420745"/>
   <path d="m-418.94 123.34 0.31833-0.0372 1e-3 0.48782-0.022 0.0207h-0.27562l-0.0221-0.0207zm-1.7198 0.44924 0.0207 0.0221h0.27699l0.0207-0.0221v-0.2825l-0.31971 0.0386zm-1.3064 1e-3 0.0221 0.0207h0.89297c0.15571 0 0.28663-0.11162 0.31281-0.2577l-0.33624 0.04c-0.0358 0.0785-0.11575 0.13918-0.21635 0.13918h-0.35553v-0.0717l-0.31971 0.0386zm2.9476-1e-3v-0.31005l-0.022-0.0207h-0.27561l-0.022 0.0207v0.25217h-0.36518c-0.0923 0-0.23978-0.0689-0.23978-0.23288l3e-3 -0.04-0.32108 0.0386c0 0.17363 0.14194 0.31281 0.31833 0.31281h0.90399z" fill="#260021"/>
   <g transform="matrix(.35278 0 0 .35278 -472.67 -22.262)" clip-path="url(#c)">
    <g clip-path="url(#b)">
     <path d="m143.73 414.07h9.5156v-1.8086h-9.5156z" fill="url(#a)"/>
    </g>
   </g>
   <path d="m-412.37 123.5c0 0.58566-0.47542 1.0611-1.0611 1.0611-0.58704 0-1.0611-0.47543-1.0611-1.0611 0-0.58705 0.47405-1.0625 1.0611-1.0625 0.58567 0 1.0611 0.47542 1.0611 1.0625" fill="#17142b"/>
   <path d="m-413.43 122.44c-0.29903 0-0.56775 0.12264-0.76068 0.32108-0.13229 0.15434-0.16674 0.2384-0.19155 0.32108-0.0289 0.0923-0.0179 0.17088 0.0799 0.15572 0.0978-0.0165 0.19431-0.1378 0.32522-0.29352 0.13091-0.15434 0.32246-0.27147 0.53468-0.32246 0.21084-0.0524 0.32797-0.0289 0.59531 0.0469v-0.0551c-0.16674-0.11024-0.36794-0.17363-0.58291-0.17363" fill="#4f5163"/>
   <path d="m-412.5 123.21c0.04 0.0207 0.0661 1e-3 0.0579-0.0455-7e-3 -0.0469-0.0579-0.14883-0.0579-0.14883s-0.12126-0.23565-0.33761-0.38585c-0.10611-0.0744-0.22876-0.12402-0.3266-0.15572-0.0854-0.0221-0.17501-0.0331-0.26734-0.0331h-0.0358c0.0427 3e-3 0.10473 0.01 0.14745 0.0248 0.0703 0.0234 0.11024 0.0386 0.22049 0.1254 0 0 0.0427 0.0358 0.0965 0.0965 0.0551 0.0606 0.0965 0.11299 0.15296 0.18465 0.0579 0.073 0.11438 0.14883 0.18466 0.21911 0.0689 0.0703 0.12402 0.11162 0.16536 0.11851" fill="#283f5c"/>
   <path d="m-412.44 123.17-0.0165 0.0345c-0.0138 0.01-0.04 0-0.0772-0.0262-0.0441-0.0317-0.0785-0.0579-0.14057-0.12127-0.0551-0.0551-0.12815-0.1447-0.18189-0.20946l-0.0276-0.0331-1e-3 -1e-3c-0.0551-0.0661-0.14744-0.17639-0.22461-0.2384-0.0772-0.062-0.12953-0.0882-0.18466-0.10886-0.0482-0.0166-0.10748-0.0248-0.14331-0.0276h-0.0289c0.0427 3e-3 0.10473 0.01 0.14745 0.0248 0.0703 0.0234 0.11024 0.04 0.22049 0.1254 0 0 0.0427 0.0358 0.0965 0.0965l0.0689 0.0785 0.0441 0.0537 1e-3 1e-3 0.0262 0.0317c0.0551 0.0661 0.12816 0.15434 0.18328 0.21084 0.0634 0.062 0.0965 0.0896 0.14055 0.12127l0.0689 0.0317 0.0152-4e-3 0.0124-0.0165 1e-3 -0.0234" fill="#477db3"/>
   <path d="m-413.52 124.54 0.0248-0.0276c-0.0165-1e-3 -0.0579-6e-3 -0.14331-0.0262-0.12265-0.0303-0.2508-0.0992-0.34313-0.16123-0.0923-0.0634-0.2012-0.17225-0.26734-0.26734-0.0661-0.0951-0.11851-0.19568-0.14745-0.26734-0.0303-0.0717-0.0372-0.0951-0.04-0.0854-1e-3 0.011 0.0193 0.10473 0.051 0.19017-0.0345-0.0758-0.0524-0.11989-0.0634-0.1502l-0.0193-0.0276c3e-3 0.0248 0.022 0.13091 0.0868 0.26458 0.0648 0.13505 0.15848 0.24253 0.226 0.30454 0.0675 0.0634 0.15158 0.12816 0.2825 0.19155 0.13091 0.0634 0.25769 0.0786 0.3197 0.0896l0.0331-0.0276" fill="#009199"/>
   <path d="m-413.98 124.33c-0.0923-0.0634-0.20119-0.17226-0.26734-0.26735-0.0661-0.0951-0.11851-0.19567-0.14745-0.26733-0.0303-0.0717-0.0372-0.0965-0.04-0.0854-1e-3 0.01 0.0179 0.0978 0.0469 0.18052l0.0179 0.0358c0.0303 0.0592 0.0551 0.0965 0.10336 0.16399 0.0482 0.0675 0.10611 0.1254 0.15572 0.17087 0.0496 0.0455 0.12402 0.11162 0.25493 0.17639 0.12954 0.0648 0.2136 0.0854 0.3266 0.10749l0.01 1e-3 1e-3 -1e-3 0.0248-0.0276c-0.0165-1e-3 -0.0579-6e-3 -0.14333-0.0262-0.12264-0.0303-0.2508-0.0992-0.34313-0.16123" fill="#073845"/>
   <path d="m-413.53 124.55c-0.0207-1e-3 -0.0455-7e-3 -0.0841-0.0138-0.1006-0.0193-0.23014-0.062-0.36656-0.15021-0.13505-0.0868-0.1943-0.15296-0.25907-0.23702-0.0648-0.0841-0.10473-0.16123-0.13643-0.24529l-0.0138-0.0345 8e-3 0.0234c-0.0345-0.0758-0.0524-0.11989-0.0634-0.15021l-0.0193-0.0275c1e-3 0.0248 0.022 0.13091 0.0868 0.26458 0.0648 0.13505 0.15848 0.24254 0.226 0.30455 0.0675 0.0634 0.15158 0.12816 0.28387 0.19155 0.12954 0.0634 0.25632 0.0786 0.31833 0.0896l0.0193-0.0152" fill="#0091a6"/>
   <path d="m-412.83 123.8c-0.14607 0.0179-0.2949 0.14331-0.36656 0.22186-0.073 0.0786-0.16261 0.20257-0.2191 0.28525-0.0372 0.0538-0.0786 0.10749-0.11438 0.14608l-0.0496 0.0482c0.0455 0.01 0.0717 0.0124 0.0841 0.0138l0.0455-0.0579 6e-3 -8e-3 1e-3 -1e-3c0.0331-0.0469 0.0648-0.0965 0.0799-0.11713 0.0248-0.04 0.11024-0.15985 0.1378-0.19155 0.0262-0.0317 0.113-0.13091 0.18879-0.18879 0.0758-0.0579 0.18742-0.11713 0.29352-0.12402l0.0799 4e-3c-0.0179-0.0165-0.0634-0.0427-0.16675-0.0303" fill="#283d66"/>
   <path d="m-413.49 124.51-7e-3 8e-3z" fill="#283d66"/>
   <path d="m-413.52 124.54 6e-3 -4e-3z" fill="#283d66"/>
   <path d="m-412.69 123.81c-0.0179-8e-3 -0.0427-0.0138-0.0758-0.0165-0.0896-4e-3 -0.19568 0.0345-0.2949 0.10336l-0.0482 0.0372-0.011 0.01-0.0703 0.0661-8e-3 8e-3c-0.073 0.0786-0.16261 0.20257-0.21911 0.28525-0.0234 0.0345-0.0496 0.0689-0.0744 0.1006l-0.0262 0.0317-0.0138 0.0138-0.0496 0.0482 3e-3 1e-3c0.0331-0.0262 0.0482-0.0441 0.0537-0.0482l7e-3 -8e-3c0.0262-0.0262 0.0469-0.0565 0.0854-0.11162l0.0469-0.0634 0.0303-0.0427c0.0606-0.0882 0.1254-0.17777 0.2384-0.27699 0.11438-0.0978 0.24529-0.15296 0.35002-0.14883 0.0469 3e-3 0.0772 0.0152 0.0937 0.0262l8e-3 1e-3 -0.0248-0.0165" fill="#4a78ae"/>
   <path d="m-413.55 124.57 0.0138-0.011-0.073-0.0124c-0.13367-0.0289-0.25356-0.0648-0.39963-0.15985-0.14608-0.0937-0.22462-0.1888-0.27837-0.26183-0.0524-0.0744-0.10886-0.17639-0.1378-0.26872-0.0276-0.0909-0.0358-0.11162-0.0386-0.14056l-1e-3 -3e-3v7e-3c3e-3 0.0248 0.0221 0.13091 0.0868 0.26596 0.0648 0.13367 0.15848 0.23978 0.226 0.30317 0.0675 0.0634 0.15158 0.12815 0.2825 0.19292 0.13091 0.062 0.25769 0.0785 0.3197 0.0882" fill="#00aeb5"/>
   <path d="m-412.44 123.02c-0.0372-0.0689-0.0717-0.12678-0.13643-0.20533-0.0648-0.0786-0.12402-0.12816-0.20119-0.18879-0.0772-0.0593-0.16813-0.10886-0.26734-0.14883-0.0978-0.04-0.20395-0.0634-0.26459-0.0717-0.0579-8e-3 -0.15571-0.01-0.22875 0.0386l0.0179-3e-3c0.0386-0.0193 0.0923-0.0303 0.14056-0.0303 0.0496 0 0.12816 0.0124 0.20946 0.0606 0.0799 0.0496 0.14056 0.0978 0.24254 0.21773 0.10335 0.12126 0.12816 0.16123 0.21911 0.27698 0.0923 0.11576 0.14607 0.16399 0.19705 0.20258 0.0496 0.0386 0.11301 0.0606 0.10887-7e-3 5e-3 -0.0234 0-0.073-0.0372-0.14194" fill="#4c879c"/>
   <path d="m-412.41 123.16c6e-3 -0.0234 0-0.073-0.0372-0.14194-0.0386-0.0689-0.0717-0.12678-0.13643-0.20533-0.0648-0.0786-0.12402-0.12816-0.20119-0.18879-0.0772-0.0593-0.16813-0.10886-0.26734-0.14883-0.0992-0.04-0.20395-0.0634-0.26459-0.0717l-0.0124-1e-3c0.0799 0.011 0.1323 0.0358 0.19844 0.0758 0.0661 0.0414 0.14194 0.11576 0.1819 0.16261 0.0413 0.0455 0.1006 0.11989 0.17363 0.21911 0.073 0.0992 0.13092 0.17639 0.18742 0.23289 0.0551 0.0565 0.0868 0.0785 0.12402 0.0923 0.0372 0.0138 0.051-0.0124 0.0537-0.0248" fill="#73c7d9"/>
   <path d="m-413.38 122.41c-0.0482 0-0.10198 0.011-0.14195 0.0303l-5e-3 1e-3c0.0331-3e-3 0.0661-5e-3 0.1006-5e-3 0.0841 0 0.16812 0.011 0.24667 0.0303-0.0772-0.0455-0.15159-0.0565-0.19982-0.0565" fill="#1e3f57"/>
   <path d="m-413.63 122.76c0.0207 0.0138 0.0372 0.1378-0.19431 0.31006-0.23013 0.17088-0.31557 0.13918-0.33899 0.113-0.0386 6e-3 -0.11576-0.0331-0.062-0.18741 0.0551-0.15297 0.23151-0.27699 0.33211-0.31144 0.1006-0.0345 0.15985-0.0303 0.20257-0.0179 0.0441 0.0138 0.0606 0.0579 0.0606 0.0758v0.0179" fill="#1e2147"/>
   <path d="m-413.97 124.14 0.0262-0.16398 0.2508-0.20257c0.27285-0.23978 0.41617-0.38585 0.41479-0.55811 0-0.11851-0.0896-0.15709-0.20533-0.15709h-0.2756l0.0413-0.20395c0.0951-0.0358 0.20257-0.0551 0.30041-0.0565 0.25769-4e-3 0.48369 0.10473 0.48369 0.39274 0 0.35002-0.26183 0.50023-0.49471 0.67524l-0.091 0.062v4e-3s0.13367 1e-3 0.23427 0 0.24667-6e-3 0.24667-6e-3l-0.0496 0.23564s-0.30179 3e-3 -0.51401 0c-0.14331-3e-3 -0.36793-0.0221-0.36793-0.0221" fill="#fff"/>
   <path d="m-413.04 124.17c-0.12677 0.17225-0.0813 0.28525 0.0868 0.23151 0.13643-0.0427 0.28388-0.17915 0.34451-0.2949 0.0537-0.10336 0.0317-0.17777-0.0537-0.17915-0.1006-1e-3 -0.2701 0.0978-0.37759 0.24254" fill="#7fcce6"/>
   <path d="m-413.69 124.54c7e-3 0.0221 0.0345 0.0524 0.0661 0.0551 0.0317 1e-3 0.062-0.0207 0.10335-0.0579 0.0414-0.0386 0.13092-0.17226 0.1571-0.21222 0.0248-0.04 0.11025-0.15985 0.13781-0.19155 0.0262-0.0317 0.11299-0.13091 0.18879-0.18879 0.0758-0.0579 0.18741-0.11713 0.29352-0.12402 0.10611-7e-3 0.17363 0.0276 0.21222 0.10473 0.0386 0.0772 0.0138 0.21084-0.0455 0.29352-0.0592 0.0841-0.17639 0.18328-0.34864 0.26459-0.17088 0.0827-0.29215 0.10473-0.40377 0.11851-0.113 0.0138-0.18879 8e-3 -0.22737 6e-3 -0.0386-1e-3 -0.0551-1e-3 -0.0799-0.01l-0.0455-0.0358-0.011-0.0234z" fill="#3da1dc"/>
   <path d="m-413.69 124.54c7e-3 0.0221 0.0345 0.0524 0.0661 0.0551l0.0703-0.0303c-0.0317-6e-3 -0.0799-0.0124-0.13642-0.0248" fill="#264566"/>
   <path d="m-412.56 124.2c0.0179-0.0303 0.0303-0.0661 0.04-0.10198 0.011-0.073 0.0124-0.1502-0.0537-0.21773-0.0661-0.0675-0.18052-0.0606-0.26458-0.0303-0.0799 0.0289-0.19844 0.0978-0.29215 0.20533-0.0951 0.11024-0.13918 0.17087-0.18465 0.2384-0.0537 0.0827-0.11714 0.17639-0.17226 0.2384-0.0592 0.0648-0.0978 0.0744-0.1378 0.0703l-0.0179-3e-3 8e-3 3e-3 0.0303 7e-3c0.0345-1e-3 0.0703-0.0179 0.12127-0.0744 0.0565-0.062 0.11851-0.15572 0.17363-0.2384 0.0441-0.0675 0.0882-0.12678 0.18328-0.23702 0.0937-0.10749 0.21084-0.17501 0.28939-0.20395 0.0827-0.0289 0.1943-0.0372 0.25907 0.0289 0.0648 0.0648 0.0634 0.14056 0.051 0.21359-7e-3 0.0441-0.0234 0.0827-0.0331 0.10198" fill="#b8dee8"/>
   <path d="m-413.63 122.76v-0.0179c0-0.0179-0.0165-0.062-0.0606-0.0758-0.0427-0.0124-0.10197-0.0165-0.20257 0.0179s-0.27698 0.15847-0.33211 0.31143c-0.0537 0.15434 0.0234 0.19293 0.062 0.18742 0.0703-0.01 0.13642-0.0124 0.31557-0.15159 0.17914-0.13918 0.21222-0.22876 0.21773-0.27147" fill="#213a82"/>
   <path d="m-413.63 122.75c-6e-3 0.0441-0.04 0.1378-0.21911 0.28112-0.14883 0.11851-0.22187 0.14194-0.28112 0.15158 0.0606-0.01 0.13091-0.0289 0.2825-0.14745 0.17914-0.13918 0.21222-0.22875 0.21773-0.27147v-0.0138" fill="#3d63ab"/>
   <path d="m-413.69 122.67c-0.0427-0.0124-0.10197-0.0165-0.20257 0.0179s-0.27698 0.15847-0.33211 0.31144c-0.0165 0.0482-0.0207 0.0841-0.0179 0.11162l1e-3 3e-3c0.011 0.0386 0.0496 0.0221 0.0744 4e-3 0.0234-0.0193 0.0661-0.0579 0.1502-0.15986 0.0841-0.10059 0.20533-0.19843 0.24529-0.22737 0.04-0.0289 0.0923-0.0427 0.10473-0.0413l0.0152 6e-3 -0.0386-0.0248" fill="#7094cf"/>
   <path d="m-411.9 123.82 0.0468-0.27147h-0.18189l-0.0482 0.27147h-0.15158l0.11438-0.64354h0.1502l-0.0441 0.2508h0.18328l0.0441-0.2508h0.15021l-0.113 0.64354zm0.26183 0 0.11438-0.64354h0.20946c0.14745 0 0.22738 0.1006 0.22738 0.24253 0 0.19431-0.0882 0.40101-0.32936 0.40101zm0.23427-0.11851c0.12815 0 0.15985-0.18328 0.15985-0.29076 0-0.062-0.0179-0.11714-0.0896-0.11714h-0.0606l-0.0717 0.4079z" fill="#451e63"/>
  </g>
 </g>
</svg>
