<svg width="200mm" height="364.857" viewBox="0 0 200 96.535" xmlns="http://www.w3.org/2000/svg">
    <path d="M23.06 0L.001 23.11v73.425h73.425l23.11-23.11V0z" fill="#5c9fd3"/>
    <path d="M51.53 25.385h-7.434v-1.67c0-1.72-.403-3.185-1.214-4.399-.811-1.266-2.125-1.871-4.045-1.871-1.01 0-1.872.183-2.529.558-.657.403-1.163.91-1.515 1.515-.367.606-.606 1.314-.76 2.125-.147.807-.184 1.618-.184 2.477 0 1.06 0 1.923.11 2.631.037.657.257 1.262.558 1.82.257.506.709.962 1.263 1.314.557.403 1.313.81 2.275 1.163l5.664 2.275c1.67.606 3.034 1.365 4.045 2.224 1.01.859 1.769 1.82 2.326 2.983.558 1.112.962 2.426 1.164 3.945.183 1.468.293 3.134.293 5.057a28.9 28.9 0 0 1-.657 6.068c-.455 1.872-1.163 3.49-2.176 4.804-.961 1.314-2.326 2.378-3.944 3.134-1.67.807-3.691 1.163-6.068 1.163-1.769 0-3.439-.293-5.006-.91-1.567-.657-2.88-1.515-3.995-2.58-1.164-1.112-2.022-2.425-2.68-3.893-.656-1.516-.96-3.134-.96-4.906v-2.781h7.382v2.378c0 1.313.404 2.58 1.215 3.64.81 1.112 2.176 1.67 4.045 1.67 1.266 0 2.275-.184 2.984-.558.657-.367 1.214-.859 1.567-1.516.367-.657.605-1.468.708-2.477.11-.961.147-2.022.147-3.185 0-1.365-.037-2.477-.147-3.34-.11-.91-.294-1.566-.606-2.124-.367-.558-.76-.962-1.313-1.314-.558-.367-1.314-.708-2.224-1.06l-5.31-2.224c-3.236-1.314-5.36-3.035-6.473-5.209-1.06-2.124-1.618-4.854-1.618-8.09 0-1.975.257-3.793.807-5.513.507-1.768 1.314-3.288 2.327-4.55 1.06-1.267 2.378-2.276 3.995-3.035 1.567-.76 3.49-1.112 5.613-1.112 1.82 0 3.54.367 5.057 1.013 1.515.708 2.833 1.566 3.944 2.73 1.06 1.112 1.923 2.326 2.477 3.742.605 1.365.91 2.781.91 4.248zM79.19 25.284h-7.433V22.86c0-1.468-.404-2.73-1.263-3.793-.807-1.06-1.923-1.618-3.335-1.618-1.82 0-3.087.558-3.692 1.72-.605 1.113-.858 2.58-.858 4.3v26.547c0 1.468.293 2.73.961 3.743.657 1.06 1.82 1.567 3.541 1.567.455 0 1.013-.11 1.567-.257a4.222 4.222 0 0 0 1.516-.859c.455-.404.81-.91 1.112-1.618.293-.657.455-1.516.455-2.529v-2.528h7.433v3.185c0 1.618-.293 3.134-.91 4.602a11.59 11.59 0 0 1-2.528 3.793c-1.06 1.112-2.327 1.97-3.743 2.63-1.467.658-2.983 1.014-4.601 1.014-1.417 0-2.885-.22-4.298-.606-1.468-.403-2.782-1.06-3.945-2.022-1.163-.91-2.125-2.176-2.884-3.742-.76-1.515-1.112-3.49-1.112-5.866v-28.57c0-1.67.257-3.289.858-4.704a10.762 10.762 0 0 1 2.477-3.792 11.586 11.586 0 0 1 3.793-2.529c1.515-.605 3.134-.91 4.956-.91 1.67 0 3.236.294 4.703.91a11.584 11.584 0 0 1 3.792 2.529 12.291 12.291 0 0 1 2.529 3.944c.605 1.567.91 3.185.91 5.006zM90.367 62.351h-7.18V10.518h7.18z" fill="#fff"/>
    <path d="M116.107 30.796h3.086V10.468h-3.086zM130.367 36.207c-.558-.605-1.211-1.06-2.022-1.416-.76-.294-1.618-.455-2.58-.455-.961 0-1.82.146-2.63.455a7.645 7.645 0 0 0-2.074 1.365c-.558.605-1.013 1.266-1.314 2.022-.293.807-.506 1.618-.506 2.528v15.322c0 1.266.257 2.327.609 3.134.455.859.961 1.516 1.567 2.022.657.506 1.365.91 2.125 1.112.81.183 1.566.293 2.326.293.91 0 1.721-.183 2.477-.557.807-.367 1.468-.808 2.022-1.365.606-.606 1.06-1.266 1.365-2.074.367-.76.507-1.618.507-2.477v-1.72h-3.996v1.364c0 .558-.11 1.013-.256 1.417a1.969 1.969 0 0 1-.61.807 1.653 1.653 0 0 1-.807.455 2.5 2.5 0 0 1-.859.147c-.91 0-1.566-.257-1.922-.807-.367-.558-.507-1.263-.507-2.022v-14.21c0-.962.147-1.721.507-2.327.293-.605.961-.91 1.97-.91.76 0 1.365.257 1.82.859a3.35 3.35 0 0 1 .657 2.022v1.314h3.995v-1.567c0-.962-.147-1.872-.506-2.68a5.237 5.237 0 0 0-1.365-2.072M115.5 36.308c-.605-.605-1.314-1.06-2.125-1.416-.858-.404-1.769-.558-2.73-.558-1.163 0-2.176.22-3.035.61a6.969 6.969 0 0 0-2.172 1.617c-.558.657-.962 1.468-1.262 2.426-.294.91-.404 1.923-.404 2.932 0 1.769.294 3.237.859 4.35.605 1.162 1.768 2.124 3.49 2.832l2.88 1.163c.455.184.859.404 1.163.558.294.184.558.455.709.708.183.294.293.657.367 1.164.036.455.11 1.06.11 1.768 0 .606-.037 1.215-.11 1.721-.037.507-.22.962-.367 1.314-.22.367-.507.606-.91.811-.367.184-.86.294-1.567.294-1.013 0-1.77-.294-2.176-.859a3.192 3.192 0 0 1-.657-1.97V54.51h-3.995v1.468c0 .961.146 1.82.506 2.631.367.807.859 1.515 1.468 2.073.558.606 1.313 1.06 2.124 1.417.86.293 1.77.506 2.73.506 1.263 0 2.379-.183 3.237-.657a5.58 5.58 0 0 0 2.176-1.67c.507-.708.91-1.566 1.164-2.58.22-1.008.367-2.072.367-3.287 0-1.013-.037-1.923-.147-2.679-.11-.81-.367-1.515-.61-2.125-.293-.605-.759-1.163-1.313-1.618-.558-.455-1.266-.859-2.176-1.163l-3.035-1.215c-.506-.183-.961-.403-1.262-.657-.257-.183-.507-.403-.657-.708a2.53 2.53 0 0 1-.294-.961c-.036-.367-.036-.859-.036-1.365 0-.507.036-.962.11-1.366.11-.455.257-.807.403-1.111.184-.367.507-.606.859-.808a2.915 2.915 0 0 1 1.314-.293c1.06 0 1.768.293 2.223.961.404.657.657 1.468.657 2.378v.91h3.995v-1.97c0-.76-.147-1.516-.506-2.276-.294-.76-.76-1.416-1.314-2.022M134.817 62.351h3.995V34.538h-3.995zM106.954 13.198h1.417c.858 0 1.515.22 1.82.657.367.455.506 1.06.506 1.872v9.81c0 .859-.147 1.515-.506 1.923-.367.403-.962.605-1.82.605h-1.417zm5.36 16.233c.962-.91 1.468-2.275 1.468-4.197v-9.507c0-1.67-.506-2.932-1.365-3.893-.962-.91-2.275-1.365-3.995-1.365h-4.551v20.328h4.248c1.82 0 3.236-.455 4.197-1.365M142.807 26.245v-1.214h-3.086v.961c0 .404-.037.76-.147 1.013-.147.257-.293.506-.455.657-.22.146-.404.257-.657.293-.257.11-.455.11-.657.11-.708 0-1.163-.22-1.416-.605-.294-.404-.404-.859-.404-1.468V15.575c0-.708.11-1.266.367-1.717.257-.455.76-.657 1.516-.657.558 0 1.06.183 1.365.605.367.455.506.962.506 1.516v.961h3.086v-1.112c0-.708-.146-1.365-.403-1.97a5.688 5.688 0 0 0-1.01-1.567 5.615 5.615 0 0 0-1.566-1.013 6.684 6.684 0 0 0-1.923-.293c-.76 0-1.417.11-2.022.293-.606.257-1.163.606-1.567 1.013-.455.404-.807.91-1.06 1.468-.184.605-.368 1.214-.368 1.871V26.2c0 .91.147 1.67.456 2.275.366.657.708 1.112 1.214 1.516.455.367 1.013.605 1.618.76.606.146 1.164.256 1.77.256.656 0 1.313-.146 1.87-.403a5.615 5.615 0 0 0 1.568-1.013c.403-.455.76-.961 1.009-1.516a4.306 4.306 0 0 0 .403-1.82M176.94 27.913h-6.017v-5.967h5.26v-2.782h-5.26v-5.967h6.018v-2.73h-9.103v20.328h9.103zM122.428 29.582c.455.455 1.01.76 1.67 1.01a5.327 5.327 0 0 0 2.073.403c.961 0 1.769-.147 2.477-.455a4.406 4.406 0 0 0 1.618-1.266c.404-.506.709-1.163.91-1.872.147-.76.257-1.515.257-2.377 0-.76-.036-1.417-.147-2.022-.036-.558-.183-1.112-.455-1.516-.183-.455-.557-.859-.961-1.215a6.672 6.672 0 0 0-1.67-.858l-2.326-.859c-.404-.147-.708-.294-.91-.455-.257-.147-.404-.367-.558-.558-.11-.183-.147-.404-.22-.708-.037-.257-.037-.606-.037-1.013 0-.367.037-.657.11-.961.037-.367.147-.606.294-.859.146-.257.367-.404.605-.558.294-.22.657-.257 1.06-.257.76 0 1.314.257 1.67.76.294.455.507 1.06.507 1.72v.658h3.035v-1.468c0-.558-.147-1.112-.367-1.67a5.826 5.826 0 0 0-1.06-1.467 6.372 6.372 0 0 0-1.62-1.061 5.327 5.327 0 0 0-2.072-.404c-.86 0-1.619.147-2.327.455a5.287 5.287 0 0 0-1.618 1.215c-.404.506-.76 1.06-.962 1.769a8.25 8.25 0 0 0-.293 2.176c0 1.266.22 2.326.657 3.185.455.859 1.313 1.516 2.63 2.022l2.177.859c.403.147.708.293.961.403.22.147.404.367.507.558.146.22.183.455.257.811.036.367.11.807.11 1.314 0 .455-.037.91-.11 1.266-.037.367-.11.708-.257.961-.147.257-.404.455-.657.606-.294.147-.708.183-1.215.183-.81 0-1.365-.183-1.67-.657-.366-.403-.506-.91-.506-1.416v-.91h-3.035v1.06c0 .709.11 1.314.404 1.923.257.606.605 1.112 1.06 1.516M192.769 30.796h3.086V22.2L200 10.467h-3.185l-2.477 8.091h-.037l-2.477-8.09h-3.236l4.197 11.731zM141.947 62.351h11.934v-3.995h-7.94v-8.141h6.929v-3.743h-6.928v-8.141h7.939v-3.793h-11.934zM185.487 17.75a2.017 2.017 0 0 1-.367.96 1.203 1.203 0 0 1-.708.606c-.367.147-.76.257-1.314.257h-1.72v-6.372h1.566c.558 0 1.01.037 1.365.22.367.147.606.367.76.606.183.293.367.605.403 1.013.037.403.11.858.11 1.365 0 .506-.036.961-.11 1.365m.507 3.793c.961-.558 1.67-1.215 2.073-2.074.367-.858.558-1.871.558-3.034 0-3.996-1.769-5.968-5.36-5.968h-4.905v20.33h3.034v-8.698h1.82l2.833 8.697h3.237zM183.211 36.207c-.558-.605-1.266-1.06-2.022-1.416a7.523 7.523 0 0 0-2.58-.455c-.96 0-1.82.146-2.63.455-.812.367-1.516.807-2.074 1.365-.558.605-1.013 1.266-1.314 2.022-.367.807-.506 1.618-.506 2.528v15.322c0 1.266.183 2.327.605 3.134a5.872 5.872 0 0 0 1.567 2.022c.657.506 1.314.91 2.125 1.112.807.183 1.567.293 2.327.293.858 0 1.717-.22 2.477-.557.76-.367 1.467-.808 2.022-1.365a7.399 7.399 0 0 0 1.365-2.074c.293-.76.506-1.618.506-2.477v-1.72h-4.046v1.364c0 .558-.036 1.013-.22 1.417a1.994 1.994 0 0 1-.605.807 1.592 1.592 0 0 1-.859.455c-.294.11-.558.147-.807.147-.91 0-1.567-.257-1.923-.807-.367-.558-.507-1.263-.507-2.022v-14.21c0-.96.147-1.72.455-2.326.367-.605 1.01-.91 2.022-.91.76 0 1.314.257 1.77.859.454.558.656 1.214.656 2.022v1.314h4.046v-1.567c0-.962-.184-1.872-.507-2.68-.367-.806-.807-1.515-1.365-2.072M187.56 62.351h11.934v-3.995h-7.94v-8.141h6.929v-3.743h-6.928v-8.141h7.939v-3.793H187.56zM151.657 25.992c0 .708-.183 1.266-.605 1.567-.404.367-.86.506-1.417.506-.605 0-1.06-.146-1.468-.506-.403-.293-.605-.859-.605-1.567v-10.72c0-.709.22-1.215.605-1.568.404-.367.859-.506 1.468-.506.558 0 1.01.147 1.417.506.403.367.605.859.605 1.567zm1.417-14.463a4.615 4.615 0 0 0-1.619-.91c-.605-.22-1.214-.367-1.82-.367-.657 0-1.266.147-1.871.367a5.82 5.82 0 0 0-1.67.91c-.455.404-.859.91-1.163 1.567-.294.606-.455 1.314-.455 2.176v10.721c0 .859.146 1.567.455 2.224a4.89 4.89 0 0 0 1.163 1.516c.506.403 1.06.708 1.67.96a6.357 6.357 0 0 0 1.871.295c.606 0 1.215-.11 1.82-.294.606-.257 1.164-.558 1.619-.961.506-.404.91-.91 1.214-1.516.294-.657.455-1.365.455-2.224v-10.72c0-.86-.147-1.568-.455-2.177a4.11 4.11 0 0 0-1.214-1.567M165.512 51.326h-.11l-6.018-16.788h-3.894v27.813h4.046V45.663h.036l6.12 16.688h3.792V34.538h-3.993zM162.276 30.796l4.35-20.328h-3.237l-2.426 14.21h-.037l-2.425-14.21h-3.237l4.349 20.328zM180.784 79.392V73.73h-5.26v5.663h-3.287V65.84h3.288v5.108h5.26V65.84h3.287v13.552zM196.106 72.565c0-.76-.11-1.416-.367-1.923a3.478 3.478 0 0 0-1.01-1.214 3.346 3.346 0 0 0-1.416-.606c-.506-.147-1.06-.183-1.618-.183h-1.67v7.94h1.567c.606 0 1.164-.11 1.721-.184.507-.147 1.01-.367 1.417-.657.404-.367.76-.76 1.009-1.266.257-.506.367-1.112.367-1.871m3.438 0c0 1.163-.256 2.223-.708 3.086-.403.858-1.013 1.567-1.72 2.124a6.83 6.83 0 0 1-2.426 1.215c-.91.257-1.82.404-2.782.404h-5.057V65.827h4.905c.962 0 1.923.146 2.833.367.962.183 1.77.605 2.477 1.111.76.507 1.314 1.215 1.77 2.074.454.91.707 1.97.707 3.236" fill="#5c9fd3"/>
</svg>
