<?xml version="1.0" encoding="UTF-8"?>
<!-- Generator: Adobe Illustrator 16.0.0, SVG Export Plug-In . SVG Version: 6.00 Build 0)  -->
<svg id="Layer_1" width="750.69" height="327.27" enable-background="new 0 0 792 365" version="1.1" viewBox="0 0 750.69 327.27" xml:space="preserve" xmlns="http://www.w3.org/2000/svg" xmlns:cc="http://creativecommons.org/ns#" xmlns:dc="http://purl.org/dc/elements/1.1/" xmlns:rdf="http://www.w3.org/1999/02/22-rdf-syntax-ns#"><metadata id="metadata45"><rdf:RDF><cc:Work rdf:about=""><dc:format>image/svg+xml</dc:format><dc:type rdf:resource="http://purl.org/dc/dcmitype/StillImage"/><dc:title/></cc:Work></rdf:RDF></metadata><path id="path2" d="m716.08 112.07c-29.077-10.516-50.702-3.838-66.753 10.812l-0.022-0.088-0.405-0.901c-14.031-11.416-25.662-11.416-25.662-11.416-30.419-1.427-73.276 12.554-73.276 12.554s-15.936-27.303-33.773-25.162c-17.837 2.141-14.509 31.395-14.509 31.395-41.146-35.199-145.9-9.56-145.9-9.56 0.732-0.268 1.445-0.588 2.132-0.964 22.118-12.129 28.54-25.151 28.54-25.151 4.638 1.427 33.892-2.676 35.854-27.648 1.962-24.973-18.908-36.924-31.93-37.994s-23.546 5.887-23.546 5.887c-6.243-30.502-36.032-25.865-36.032-25.865-41.204 8.206-25.151 44.237-25.151 44.237-18.551 16.946-17.48 32.821-17.48 32.821-107.68-99.416-229.57-84.194-229.57-84.194-33.713 0.892-60.291 19.265-58.507 39.599 1.784 20.335 24.438 20.335 24.438 20.335 22.847 0 24.318-15.696 24.318-15.696 48.756-2.379 78.248 8.562 78.248 8.562-9.038 17.837-11.892 61.601-11.892 61.601s-73.729 13.318-70.875 48.991c2.854 35.675 69.925 69.45 69.925 69.45 0.238 6.66 7.654 28.301 26.399 28.301s22.959-11.416 22.959-11.416c12.561 4.234 37.084 2.854 37.084 2.854v14.69c2 34.907 37.705 35.946 37.705 35.946h373.16c2.854 5 15.667 23.215 30.712 23.215s18.697-19.004 18.935-24.953c0.236-5.947 17.186-62.028 17.186-62.028l-9e-3 -0.122c0.493-0.138 0.985-0.307 1.48-0.453 38.573-11.372 70.829-38.121 70.829-75.372s-34.611-52.267-34.611-52.267z" fill="#428fc0"/><g id="g32" transform="translate(-20.31 -18.446)" fill="#f5f5f5"><path id="path4" d="m102.44 33.282c-28.843 0.835-52.035 4.385-57.238 9.943-4.537 5.036-10.358 9.066-10.473 15.803-0.166 6.531 7.531 7.137 12.164 7.082 4.561 0 8.835-0.403 8.772-3.189 0-3.734-6.22-2.948-6.22-6.838 0-4.39 23.857-5.383 35.746-5.383 102.03-0.357 219.52 70.4 219.7 130.44 0.152 46.587-60.492 57.076-93.923 57.076-11.914 0.06-23.415-1.171-34.346-3.311-0.56-14.833-1.41-45.941-1.784-65.667 3.853-0.057 7.468-0.156 10.524-0.156 24.803-0.045 57.337 8.732 57.365 14.499 0 4.961-8.671 8.429-8.671 13.156 0.074 3.535 8.025 2.82 14.852 3.391 1.268 0.143 15.258-7.726 15.236-20.118-0.082-16.366-20.426-35.68-86.887-35.413h-2.909c-0.608-18.412-3.262-47.307-13.793-47.289-8.605 0.049-11.122 31.946-11.853 49.392-37.295 5.743-70.418 20.882-70.36 35.849 0 12.236 26.698 43.003 69.784 61.73 0.77 13.886 3.374 23.381 15.7 23.313 8.938 0 11.919-6.558 12.855-13.457 13.945 3.565 29.079 5.677 45.117 5.62 62.537-0.163 112.8-33.651 112.61-79.511-0.144-61.56-124.07-149.95-231.97-146.96m-16.807 153.1c0-10.681 32.47-14.847 62.559-16.373-0.182 16.834-0.407 40.92-0.358 57.117-37.011-13.063-62.201-33.822-62.201-40.744"/><path id="path6" d="m354.55 143.55c-10.378 0.116-10.693 42.629-10.992 58.163-0.698 35.361 4.481 39.497 13.783 39.497 8.313 0 11.148-1.022 10.436-30.632-1.305-56.222-5.063-67.028-13.227-67.028"/><path id="path8" d="m478.4 153.27c0-9.757-25.4-9.664-39.708-9.648-10.729 0.087-65.118 1.29-65.062 31.553 0.046 20.416 30.512 15.429 50.719 17.457 16.411 1.624 36.364 7.035 36.482 12.372 0 12.033-43.611 16.806-52.537 16.806-18.535 0.108-18.907-5.215-18.907-7.947 0-2.737 3.072-7.328 10.035-7.328 6.905-0.025 21.14 8.765 31.025 8.741 9.763-0.082 17.96-4.369 17.96-8.76 0-8.054-32.565-11.906-42.666-11.906-10.614 0.074-25.821 4.384-25.737 20.213 0 8.222 13.49 27.627 51.364 27.46 37.351-0.17 46.797-21.242 46.742-32.109-0.062-26.437-25.286-29.494-47.262-31.384-16.482-1.41-34.166-2.211-34.104-5.832 0.139-12.087 81.656-3.238 81.656-19.688"/><path id="path10" d="m539.13 130.52c-3.075 0-3.659 3.257-3.659 6.685 0 10.493 14.481 46.555 14.481 60.442 0 2.822-0.228 7.937-2.491 8.655-3.455 0.994-33.543-53.823-45.986-54.757-12.835-0.989-19.753 53.775-19.686 67.259 0 13.37 2.425 22.463 12.459 22.409 14.804 0 7.142-54.688 13.096-54.688 4.434 0 28.653 50.015 42.156 49.964 14.604-0.049 23.26-21.457 23.236-35.368-0.102-31.808-21.309-70.7-33.606-70.601"/><path id="path12" d="m637.89 215.03c-5.13 0-34.071 6.475-35.974 4.771-1.926-1.788 1.708-18.618 5.31-19.736 3.632-1.117 26.257-0.833 29.861-1.059 10.51-0.6 8.529-14.906 2.032-15.438-3.304-0.31-23.71-0.373-24.886-2.274-1.066-1.839 0.376-11.402 2.607-12.386 4.701-2.001 35.754-2.762 38.1-3.364 3.871-1.022 6.69-3.08 7.621-6.404 0.927-3.359-10.786-16.961-25.286-15.416-24.915 2.717-57.191 2.586-57.191 10.813 0 7.701 15.167 10.806 15.551 12.949 0.401 2.051-1.948 10.059-2.842 12.569-0.897 2.676-11.734 3.497-12.448 10.957-0.149 1.764 2.707 4.446 2.216 6.613-1.726 6.304-6.914 19.357-6.905 24.735 0 8.368 6.152 26.942 23.026 26.308 26.763-0.821 50.691-19.631 51.104-22.949 0.557-4.915-6.761-10.689-11.896-10.689"/><path id="path14" d="m734.99 150.24c-14.56 0.786-42.514 31.749-58.831 52.607-1.037-2.137-1.609-4.201-1.609-6.027-0.036-8.904 16.513-35.306 19.597-41.946 3.233-6.841-0.387-15.997-4.445-12.699-7.736 6.369-32.563 35.461-32.511 62.531 0 6.229 1.606 13.768 5.052 20.708-5.499 18.137-19.104 58.536-18.685 83.013 0.253 12.632 12.998 25.043 20.676 23.477 2.914-0.693 3.479-17.3 7.393-28.522 5.332-16.2 13.965-45.794 16.931-58.413 1.39 0.147 2.78 0.267 4.295 0.267 30.327-0.119 64.009-32.653 63.946-60.606-0.113-28.046-16.641-34.743-21.809-34.39m-35.021 69.205c12.224-21.271 30.008-49.427 36.553-49.317 4.589 0 6.344 4.703 6.344 11.567-1e-3 20.801-24.973 38.037-42.897 37.75"/><path id="path16" d="m388.62 76.809"/><path id="path18" d="m455.14 257.38c-2.653 0.011-4.67 1.839-4.853 4.444-0.141 2.051-0.252 4.104-0.351 6.157-0.454 9.117-1.104 18.229-1.096 27.369 0 0.322-0.059 0.646-0.142 1.518-0.605-0.598-0.922-0.843-1.15-1.142-0.6-0.797-1.14-1.639-1.753-2.428-3.049-3.962-6.104-7.921-9.182-11.863-2.766-3.545-5.515-7.11-8.366-10.599-1.096-1.347-2.355-2.604-3.691-3.732-3.05-2.563-8.149-0.223-8.228 3.106-0.018 0.569-0.218 1.138-0.237 1.706-0.145 3.699-0.391 7.397-0.367 11.097 0.06 8.888 0.249 17.767 0.396 26.651 0.017 0.9 0.057 1.814 0.223 2.701 0.295 1.581 1.295 2.644 2.86 3.204 1.801 0.644 3.377 0.163 4.726-1.01 1.314-1.148 2.017-2.588 1.961-4.37-0.145-4.937-0.232-9.869-0.34-14.807-0.079-3.37-0.159-6.739-0.212-10.112-4e-3 -0.372-0.156-0.83 0.408-1.145 0.8 0.314 1.172 1.088 1.661 1.713 4.229 5.369 8.414 10.77 12.654 16.132 1.554 1.96 3.181 3.866 4.864 5.719 0.833 0.917 1.789 1.793 2.848 2.45 2.795 1.726 6.214 1.038 8.162-1.541 1.131-1.478 1.957-3.104 2.128-4.958 0.212-2.292 0.412-4.584 0.494-6.884 0.243-7.154 0.386-14.305 0.673-21.457 0.153-3.696 0.533-7.381 0.797-11.072 0.061-0.82 0.155-1.652 0.085-2.463-0.213-2.508-2.392-4.393-4.972-4.384z"/><path id="path20" d="m560.09 296.7c-1.08 0.024-2.163 0.216-3.239 0.39-4.301 0.688-8.581 1.501-12.899 2.071-2.981 0.395-6.006 0.495-9.012 0.676-0.641 0.038-1.299-0.128-1.971-0.201-0.627-2.505-1.387-4.842-1.186-7.655 2.489-0.146 4.739-0.288 6.994-0.402 4.856-0.255 9.685-0.724 14.49-1.51 1.55-0.254 2.858-0.86 4.01-1.891 1.173-1.045 1.513-2.348 1.209-3.804-0.544-2.546-3.183-4.011-4.939-3.736-0.989 0.155-1.982 0.33-2.982 0.41-5.929 0.471-11.857 0.925-17.789 1.373-0.419 0.034-0.845 0.031-1.257 5e-3 -0.561-0.029-0.946-0.332-1.062-0.871-0.228-1.042-0.499-2.08-0.607-3.133-0.115-1.115-0.357-2.257-0.021-3.515 0.597-0.071 1.157-0.182 1.723-0.198 5.448-0.161 10.893-0.268 16.338-0.466 2.764-0.098 5.52-0.363 8.28-0.524 1.765-0.099 3.239-0.789 4.46-2.002 1.141-1.136 1.563-2.486 1.104-4.061-0.67-2.309-2.653-3.823-5.242-3.809-1.504 0.014-3.002 0.307-4.51 0.36-6.111 0.227-12.228 0.424-18.342 0.608-1.587 0.048-3.188-0.056-4.772 0.037-1.334 0.078-2.671 0.252-3.976 0.543-1.698 0.376-2.991 1.343-3.946 2.822-1.086 1.678-1.4 3.455-1.234 5.402 0.677 7.772 1.319 15.547 2.591 23.254 0.416 2.505 1.045 4.982 1.613 7.459 0.598 2.608 2.326 4.031 4.973 4.588 2.503 0.525 5 0.401 7.509 0.243 2.34-0.146 4.684-0.29 7.025-0.423 3.182-0.17 6.373-0.239 9.544-0.507 1.994-0.167 3.973-0.561 5.941-0.942 1.589-0.311 2.984-1.086 4.245-2.072 1.684-1.314 2.196-3.429 1.394-5.571-0.714-1.904-2.279-2.994-4.457-2.948z"/><path id="path22" d="m301.84 295.68c-0.5 0.044-0.991 0.189-1.486 0.286-2.067 0.409-4.119 0.935-6.207 1.208-8.46 1.104-16.978 1.588-25.496 1.985-2.952 0.14-5.913 0.093-8.866 0.107-2.426 0.015-4.708-0.631-6.75-1.889-2.382-1.471-3.111-1.961-1.196-5.054 1.124-1.814 2.637-3.312 4.29-4.63 3.301-2.628 6.63-5.226 10.033-7.723 2.724-2.005 5.672-3.664 8.744-5.091 2.851-1.324 5.803-2.279 8.945-2.637 1.537-0.174 2.835-0.092 3.588 1.571 0.478 1.049 1.428 1.667 2.567 1.882 2.051 0.39 3.837-0.171 5.33-1.628 1.435-1.395 1.623-3.113 1.094-4.923-0.618-2.098-1.892-3.756-3.713-4.977-1.797-1.201-3.782-1.824-5.939-1.949-2.555-0.147-5.052 0.268-7.536 0.76-4.943 0.981-9.495 2.978-13.833 5.474-6.323 3.631-12.088 8.035-17.526 12.878-1.197 1.062-2.286 2.252-3.337 3.463-1.336 1.534-2.421 3.248-3.212 5.134-1.881 4.495-1.122 8.591 1.915 12.314 2.191 2.693 5.002 4.487 8.254 5.655 3.236 1.165 6.586 1.45 9.982 1.387 2.702-0.052 5.4-0.163 8.104-0.245 3e-3 0.045 5e-3 0.089 8e-3 0.13 6.066-0.423 12.134-0.801 18.194-1.28 2.775-0.217 5.541-0.582 8.303-0.961 1.752-0.24 3.509-0.542 5.219-0.98 1.209-0.308 2.437-0.75 3.507-1.383 2.057-1.217 2.604-3.173 1.975-5.44-0.709-2.54-2.914-3.625-4.955-3.444z"/><path id="path24" d="m406.51 295.71c-1.521-2.983-3.062-5.958-4.749-9.239 0.143-0.475 0.335-1.029 0.473-1.594 0.489-2.037-0.297-3.873-2.101-4.918-0.287-0.17-0.587-0.381-0.903-0.423-1.141-0.151-1.689-0.924-2.2-1.843-1.255-2.273-2.5-4.558-3.873-6.758-1.775-2.839-3.612-5.644-5.554-8.374-0.809-1.14-1.874-2.15-2.975-3.022-1.544-1.221-3.344-1.406-5.231-0.789-1.352 0.442-2.361 1.323-2.997 2.529-1.014 1.927-2.012 3.868-2.797 5.893-2.522 6.496-4.264 13.245-6.09 19.957-0.241 0.884-0.496 1.762-0.758 2.697-1.137 0.458-2.23 0.864-3.293 1.335-0.762 0.334-1.548 0.666-2.223 1.145-1.231 0.877-1.969 2.138-1.793 3.665 0.253 2.259 0.982 4.278 3.507 4.986 0.307 0.082 0.584 0.276 0.984 0.476-0.07 0.518-0.089 1.011-0.204 1.479-0.369 1.463-0.752 2.925-1.17 4.374-0.436 1.51-0.323 2.985 0.173 4.45 0.458 1.36 1.396 2.191 2.734 2.73 1.998 0.807 4.955-0.545 5.928-2.969 0.279-0.695 0.44-1.44 0.613-2.175 0.816-3.425 1.646-6.849 2.408-10.287 0.258-1.177 0.822-1.913 1.984-2.325 4.967-1.754 9.91-3.569 14.872-5.338 0.439-0.156 0.943-0.115 1.449-0.174 0.476 0.82 0.912 1.528 1.293 2.266 2.546 4.912 5.082 9.828 7.617 14.744 0.309 0.596 0.577 1.216 0.921 1.787 1.839 3.005 5.752 3.111 7.69 0.168 1.271-1.933 1.661-3.951 0.469-6.154-1.473-2.729-2.795-5.533-4.204-8.299zm-28.056-10.454c0.02-0.434-0.025-0.825 0.067-1.182 1.827-7.28 2.609-9.653 3.624-11.097 1.411 1.334 4.677 6.893 5.362 9.134-1.527 0.95-4.76 2.078-9.053 3.145z"/><path id="path26" d="m352.52 276.48c-0.812-0.173-1.65-0.245-2.564-0.382-0.069-0.442-0.167-0.848-0.189-1.26-0.169-3.464-0.312-6.935-0.503-10.401-0.054-1.008-0.126-2.045-0.401-3.009-0.706-2.442-2.898-3.708-5.54-3.319-2.922 0.426-4.479 2.141-4.441 4.908 6e-3 0.422 0.064 0.843 0.086 1.266 0.229 4.485 0.463 8.966 0.668 13.447 0.026 0.566-0.118 1.141-0.191 1.753-4.569 0.914-8.799 2.673-13.225 3.539-0.602-0.89-0.405-1.759-0.413-2.584-0.021-3.724 8e-3 -7.454-0.033-11.179-0.011-1.01-0.146-2.026-0.352-3.015-0.278-1.315-1.134-2.241-2.299-2.887-3.482-1.926-7.807 0.549-7.86 4.535-0.017 1.267 0.212 2.532 0.22 3.8 0.035 4.403 0.031 8.808 0.017 13.213 0 0.569-0.145 1.137-0.214 1.649-1.662 0.518-3.207 0.948-4.716 1.486-1.533 0.539-2.574 1.624-2.985 3.22-0.867 3.352 2.263 6.763 5.677 6.203 0.643-0.103 1.277-0.25 1.862-0.363 0.545 0.958 0.376 1.822 0.391 2.652 0.028 2.034 0.041 4.068 0.024 6.098-0.011 1.228 0.343 2.338 0.976 3.37 1.135 1.865 3.255 2.633 5.279 1.833 2.319-0.915 3.813-2.522 3.808-5.152-6e-3 -2.62-0.089-5.243-0.145-7.865-0.025-1.016-0.069-2.031-0.106-3.045-0.018-0.787 0.379-1.265 1.12-1.48 0.326-0.097 0.641-0.228 0.965-0.322 3.567-1.059 7.138-2.123 10.71-3.166 0.553-0.163 1.129-0.225 1.887-0.371 0.104 0.946 0.232 1.766 0.276 2.593 0.273 5.158 0.532 10.318 0.764 15.482 0.049 1.11 0.195 2.183 0.646 3.212 0.959 2.185 3.166 3.188 5.442 2.455 2.634-0.847 4.078-2.965 3.939-5.796-0.074-1.525-0.207-3.042-0.261-4.568-0.182-4.991-0.277-9.99-0.956-14.948-0.043-0.322 0.02-0.66 0.03-0.876 0.138-0.176 0.178-0.272 0.247-0.298 0.543-0.207 1.087-0.415 1.639-0.59 1.327-0.413 2.416-1.116 3.359-2.175 1.872-2.111 1.23-6.833-2.638-7.663z"/><path id="path28" d="m512.9 298.4c-0.397-4.216-0.774-8.431-1.19-12.647-0.434-4.379-0.892-8.756-1.346-13.135-0.293-2.776-0.624-5.551-0.917-8.329-0.186-1.716-0.978-3.035-2.403-3.954-2.553-1.646-5.36-0.817-6.718 1.933-0.538 1.102-0.696 2.252-0.566 3.454 0.26 2.441 0.524 4.883 0.779 7.324 0.728 6.993 1.45 13.983 2.159 20.976 0.072 0.733 0.012 1.483 0.012 2.693-0.707-0.58-1.055-0.806-1.335-1.099-2.754-2.829-5.518-5.646-8.231-8.514-3.754-3.964-7.457-7.98-11.216-11.945-1.38-1.465-2.817-2.881-4.304-4.24-0.798-0.729-1.686-1.406-2.632-1.908-2.79-1.475-6.139 0.092-6.853 3.175-0.21 0.904-0.331 1.843-0.354 2.766-0.063 2.031-0.147 4.073-0.033 6.098 0.524 9.135 1.104 18.26 1.678 27.393 0.04 0.669 0.145 1.354 0.322 2.003 0.572 2.04 2.199 3.241 4.267 3.212 2.53-0.037 4.771-2.223 4.92-4.819 0.034-0.676-4e-3 -1.355-0.052-2.03-0.274-3.886-0.542-7.771-0.848-11.655-0.182-2.365-0.449-4.722-0.639-7.085-0.062-0.804-8e-3 -1.626-8e-3 -2.736 0.509 0.341 0.799 0.466 1.005 0.68 0.934 0.963 1.86 1.949 2.769 2.937 4.956 5.373 9.932 10.732 15.385 15.598 1.565 1.392 3.192 2.72 4.869 3.966 0.932 0.69 1.991 1.244 3.055 1.703 4.67 2.002 8.811-2.192 8.814-5.735 3e-3 -0.843 0-1.691-0.056-2.538-0.081-1.185-0.22-2.362-0.333-3.542z"/><path id="path30" d="m623.04 301.82c-0.976-0.807-2.086-1.352-3.346-1.482-1.716-0.18-3.433-0.394-5.15-0.436-3.528-0.089-7.062-0.109-10.594-0.1-5.924 8e-3 -11.792 0.646-17.594 1.918-0.779 0.17-1.583 0.445-2.533 0.057-0.055-0.356-0.158-0.755-0.174-1.156-0.099-2.272-0.201-4.539-0.246-6.813-0.188-9.174-0.342-18.347-0.534-27.517-0.061-3.03-1.62-4.96-4.357-5.601-1.217-0.282-2.366-0.087-3.234 0.744-1.454 1.386-2.773 2.913-2.52 5.203 0.039 0.335 0.016 0.674 0.021 1.011 0.239 11.613 0.478 23.23 0.724 34.841 0.018 0.84 0.062 1.683 0.179 2.516 0.541 3.843 2.885 6.4 6.565 7.258 1.634 0.38 3.258 0.323 4.894 0.023 2.337-0.432 4.671-0.939 7.02-1.318 8.653-1.392 17.352-1.282 26.046-0.617 1.545 0.117 2.859-0.19 4.242-0.871 2.865-1.413 3.012-5.653 0.591-7.66z"/></g><path id="path34" d="m409.23 59.392c-1.921-12.143-13.163-18.319-23.212-18.397-10.54 0.819-16.937 7.77-18.166 16.907-0.618-0.378-1.209-0.824-1.792-1.323-4.431-3.789-9.465-5.903-15.064-6.381 2.109-3.462 3.553-7.557 3.9-11.454 0.021-10.873-8.318-18.01-20.553-18.491-11.354 0-20.559 8.278-20.559 18.491 0 6.616 6.079 13.412 12.012 16.735-2.301 1.146-4.531 2.486-6.693 4.012-0.57 0.402-1.138 0.809-1.698 1.238-5.734 4.396-10.473 9.65-13.467 16.303-1.116 2.477-1.807 5.036-1.833 7.79-0.042 4.803 1.364 9.131 4.145 13.005 0.031 0.044 0.054 0.089 0.085 0.134 3.654 4.969 9.106 8.527 15.406 9.713 0.036 8e-3 0.078 0.014 0.118 0.022 0.123 0.025 0.247 0.053 0.38 0.086 3.791 0.97 7.673 1.303 9.99 1.39 5.197 0.123 8.713-0.448 12.151-1.493 11.563-3.519 21.343-9.85 29.521-18.654 2.291-2.466 4.269-5.149 5.766-8.127 3.425 1.63 7.326 2.345 11.357 1.86 14.176-2.188 19.589-11.832 18.206-23.366zm-88.154 18.263c-1.549 1.458-3.066 2.978-4.566 4.556-0.646 0.703-1.273 1.407-1.867 2.111-0.147-0.504-0.265-1.016-0.346-1.517-0.136-0.55-0.153-1.079-0.089-1.592 0.368-5.499 8.391-13.741 23.992-16.292-5.929 3.539-11.972 7.986-17.124 12.734zm15.774 17.796c-4.167 0-7.66-0.566-10.648-1.51 0.315-0.356 0.654-0.725 1.003-1.104 0.309-0.468 0.733-0.833 1.112-1.222 1.021-1.044 2.057-2.072 3.103-3.091 0.367-0.358 0.743-0.721 1.125-1.086 0.449-0.429 0.9-0.853 1.353-1.276 0.205-0.189 0.41-0.382 0.617-0.573 1.394-1.285 2.806-2.545 4.247-3.773 8.521-7.292 18.414-14.093 24.418-14.118 6.221 0 7.331 4.988 7.331 6.89 0 11.432-23.524 20.823-33.661 20.863z" fill="#f5f5f5"/></svg>
