<svg width="600" height="261.57" version="1.1" viewBox="0 0 158.75 69.208308" xmlns="http://www.w3.org/2000/svg" xmlns:xlink="http://www.w3.org/1999/xlink">
 <g transform="translate(-54.33 -127.01)" fill="#fff">
  <path d="m70.119 127.01c-2.1656 0.0206-3.3993 0.17471-3.3993 0.17471-7.1294 0.18864-12.75 4.0737-12.372 8.3738 0.37727 4.3003 5.1679 4.3005 5.1679 4.3005 4.8315 0 5.1427-3.3195 5.1427-3.3195 10.311-0.5031 16.547 1.8107 16.547 1.8107-1.9113 3.772-2.515 13.027-2.515 13.027s-15.592 2.8162-14.988 10.36c0.60354 7.5443 14.787 14.687 14.787 14.687 0.05033 1.4084 1.6185 5.9848 5.5825 5.9848 3.9641 0 4.8552-2.4142 4.8552-2.4142 2.6563 0.89537 7.8422 0.60344 7.8422 0.60344v3.1064c0.42294 7.3819 7.9736 7.6019 7.9736 7.6019h78.914c0.60354 1.0574 3.3129 4.9093 6.4945 4.9093 3.1816 0 3.954-4.0189 4.0044-5.2769 0.0499-1.2576 3.6343-13.117 3.6343-13.117l-2e-3 -0.0256c0.10425-0.0292 0.20839-0.0649 0.31307-0.0958 8.1571-2.4049 14.978-8.0613 14.978-15.939 0-7.8776-7.3194-11.053-7.3194-11.053-6.149-2.2239-10.722-0.81153-14.117 2.2865l-5e-3 -0.0186-0.0859-0.19082c-2.9672-2.4142-5.4268-2.4142-5.4268-2.4142-6.4328-0.30178-15.496 2.655-15.496 2.655s-3.3701-5.7738-7.1422-5.3211c-3.772 0.45275-3.068 6.6391-3.068 6.6391-8.7012-7.4436-30.854-2.0218-30.854-2.0218 0.1548-0.0567 0.30534-0.12411 0.45062-0.20362 4.6774-2.565 6.0356-5.3186 6.0356-5.3186 0.98081 0.30177 7.1671-0.56598 7.582-5.8469 0.41491-5.2811-3.9985-7.8084-6.7522-8.0347-2.7538-0.22627-4.9795 1.2449-4.9795 1.2449-1.3202-6.4503-7.6196-5.4698-7.6196-5.4698-8.7135 1.7353-5.3186 9.3548-5.3186 9.3548-3.923 3.5836-3.6966 6.941-3.6966 6.941-17.79-16.425-37.414-18.053-45.148-17.979zm2.6513 3.1192c22.56-0.0326 47.954 18.28 47.984 31.095 0.0402 9.6981-10.589 16.78-23.814 16.815-3.3916 0.0121-6.5921-0.43481-9.541-1.1887-0.19794 1.459-0.82802 2.8458-2.7182 2.8458-2.6066 0.0144-3.1575-1.9934-3.3204-4.93-9.1115-3.9603-14.757-10.467-14.757-13.054-0.01227-3.1651 6.9922-6.3663 14.879-7.5808 0.15459-3.6893 0.68697-10.435 2.5067-10.445 2.227-4e-3 2.7883 6.1067 2.9168 10h0.615c14.055-0.0565 18.357 4.0277 18.374 7.4887 5e-3 2.6206-2.9535 4.2849-3.2216 4.2546-1.4437-0.12076-3.1255 0.0301-3.1411-0.71744 0-0.99963 1.8339-1.7327 1.8339-2.7818-6e-3 -1.2196-6.886-3.0759-12.131-3.0664-0.64626 0-1.4106 0.021-2.2254 0.033 0.07909 4.1715 0.25867 10.75 0.3771 13.887 2.3116 0.45256 4.7437 0.71281 7.2632 0.7001 7.0697 0 19.894-2.2182 19.862-12.07-0.0389-12.697-24.885-27.661-46.462-27.585-2.5142 0-7.5593 0.20995-7.5593 1.1383 0 0.82262 1.3155 0.65638 1.3155 1.446 0.01332 0.58917-0.8904 0.67449-1.8549 0.67449-0.97975 0.0116-2.6075-0.11652-2.5724-1.4977 0.02432-1.4247 1.2552-2.2769 2.2147-3.3418 1.1003-1.1754 6.0048-1.9262 12.104-2.1028 0.35655-0.01 0.71373-0.0152 1.0718-0.0157zm52.264 1.1614c2.5874 0.10171 4.3511 1.6108 4.3463 3.9102-0.0734 0.82411-0.37884 1.6899-0.82483 2.422 1.184 0.10108 2.2487 0.54811 3.1857 1.3494 0.12329 0.10553 0.24848 0.2001 0.37917 0.28004 0.2599-1.9322 1.6127-3.4024 3.8416-3.5756 2.1251 0.0165 4.5022 1.3228 4.9085 3.8908 0.29246 2.4391-0.85205 4.4784-3.8499 4.9411-0.85245 0.10256-1.6775-0.0485-2.4018-0.39321-0.31657 0.62976-0.73478 1.1971-1.2193 1.7186-1.7294 1.8618-3.7977 3.2007-6.243 3.9449-0.72705 0.22098-1.4705 0.34153-2.5695 0.31555-0.48998-0.0184-1.311-0.0885-2.1127-0.29366-0.0281-7e-3 -0.0545-0.0126-0.0805-0.0182-8e-3 -2e-3 -0.0168-3e-3 -0.0248-5e-3 -1.3323-0.25081-2.4853-1.0032-3.258-2.054-7e-3 -9e-3 -0.0118-0.0192-0.0182-0.0285-0.5881-0.81924-0.88533-1.7343-0.87646-2.75 5e-3 -0.58239 0.15183-1.1238 0.38784-1.6476 0.63314-1.4069 1.6353-2.518 2.8478-3.4476 0.11843-0.0907 0.23839-0.17686 0.35893-0.26187 0.4572-0.3227 0.92886-0.60601 1.4155-0.84836-1.2547-0.70272-2.5402-2.1398-2.5402-3.5389 0-2.1598 1.9465-3.9102 4.3476-3.9102zm0.81574 9.446c-3.2992 0.53948-4.9958 2.2822-5.0737 3.4451-0.0136 0.10848-0.0102 0.22031 0.0186 0.33662 0.0171 0.10594 0.0424 0.21434 0.0735 0.32092 0.12562-0.14888 0.25784-0.29781 0.39445-0.44648 0.3172-0.3337 0.6381-0.65527 0.96567-0.96361 1.0895-1.0041 2.3676-1.9442 3.6215-2.6926zm5.2823 0.58693c-1.2697 5e-3 -3.3618 1.4438-5.1637 2.9858-0.30474 0.25969-0.60314 0.52624-0.89793 0.79798-0.0438 0.0404-0.0872 0.0811-0.13052 0.12102-0.0958 0.0894-0.19128 0.17899-0.28623 0.26971-0.0808 0.0772-0.1603 0.15395-0.23791 0.22964-0.2212 0.2155-0.43998 0.43306-0.65589 0.65384-0.0801 0.0823-0.17013 0.15959-0.23543 0.25856-0.0738 0.0801-0.14531 0.15807-0.21188 0.23336 0.63187 0.19963 1.3706 0.31928 2.2518 0.31928 2.1437-8e-3 7.1182-1.9945 7.1182-4.412 0-0.40223-0.23495-1.4572-1.5505-1.4572zm32.914 9.3845c2.6005-0.0209 7.085 8.2038 7.1066 14.93 5e-3 2.9418-1.8251 7.4688-4.9134 7.4792-2.8555 0.0108-7.9772-10.566-8.9149-10.566-1.2591 0 0.36126 11.565-2.7694 11.565-2.1219 0.0114-2.6347-1.9118-2.6347-4.7391-0.0142-2.8515 1.4487-14.432 4.163-14.223 2.6314 0.19751 8.9942 11.79 9.7248 11.579 0.47858-0.15184 0.52661-1.2334 0.52661-1.8301 0-2.9367-3.0622-10.563-3.0622-12.782 0-0.72493 0.12333-1.4138 0.77361-1.4138zm32.231 2.3188c0.6717 0.0416 1.1266 1.6111 0.54975 2.8318-0.65218 1.4042-4.1524 6.9873-4.1444 8.8703 0 0.38614 0.12105 0.82269 0.34034 1.2746 3.4506-4.4109 9.3619-10.959 12.441-11.125 1.0929-0.0746 4.5884 1.3417 4.6123 7.2727 0.0133 5.9113-7.1098 12.791-13.523 12.816-0.32039 0-0.61431-0.0255-0.90826-0.0566-0.62722 2.6686-2.4526 8.9271-3.5802 12.353-0.8277 2.3732-0.94751 5.885-1.5637 6.0315-1.6237 0.33117-4.3189-2.2933-4.3724-4.9646-0.0886-5.1762 2.7886-13.72 3.9515-17.555-0.72873-1.4676-1.0685-3.0617-1.0685-4.379-0.011-5.7246 5.2394-11.877 6.8753-13.224 0.13409-0.10898 0.26593-0.15393 0.39031-0.14622zm-71.266 0.43616c1.7265 0 2.5211 2.285 2.7971 14.174 0.15057 6.2617-0.44886 6.478-2.2068 6.478-1.9671 0-3.0624-0.87487-2.9148-8.3528 0.0632-3.285 0.12989-12.275 2.3245-12.3zm60.356 0.0124c2.798 0.0494 4.9638 2.6193 4.78 3.2853-0.19688 0.70293-0.79304 1.1382-1.6116 1.3543-0.49612 0.1273-7.0629 0.28807-8.057 0.71124-0.47177 0.20808-0.77683 2.2306-0.55139 2.6194 0.24869 0.40201 4.5637 0.41523 5.2624 0.48077 1.3739 0.1125 1.793 3.1377-0.42955 3.2646-0.76215 0.0478-5.5468-0.0123-6.3148 0.22386-0.76172 0.23642-1.5299 3.7956-1.1226 4.1737 0.40243 0.36035 6.5224-1.0086 7.6072-1.0086 1.0859 0 2.6336 1.2207 2.5158 2.2601-0.0873 0.70166-5.1474 4.6795-10.807 4.8531-3.5684 0.13407-4.8696-3.7939-4.8696-5.5636-2e-3 -1.1373 1.0955-3.8975 1.4605-5.2306 0.10383-0.45827-0.50028-1.0255-0.46879-1.3985 0.15099-1.5776 2.443-1.7512 2.6327-2.3171 0.18906-0.5308 0.68576-2.2241 0.60096-2.6579-0.0812-0.45318-3.2886-1.1099-3.2886-2.7384 0-1.7398 6.8252-1.712 12.094-2.2866 0.19164-0.0204 0.38097-0.0285 0.5675-0.0252zm-42.563 3e-3c3.0258-3e-3 8.3974-0.023 8.3974 2.0404 0 3.4787-17.239 1.6073-17.268 4.1634-0.0131 0.76574 3.7265 0.93514 7.212 1.2333 4.6473 0.39969 9.9814 1.0463 9.9946 6.637 0.0116 2.2981-1.986 6.7539-9.8847 6.7898-8.0093 0.0353-10.862-4.0681-10.862-5.8068-0.0178-3.3474 3.198-4.2588 5.4425-4.2745 2.1361 0 9.0227 0.81465 9.0227 2.5178 0 0.92858-1.7332 1.8351-3.7978 1.8525-2.0904 5e-3 -5.1008-1.8539-6.561-1.8483-1.4725 0-2.1222 0.97048-2.1222 1.5493 0 0.57775 0.0789 1.7035 3.9986 1.6806 1.8876 0 11.11-1.0091 11.11-3.5537-0.025-1.1286-4.2446-2.2731-7.715-2.6166-4.2732-0.42887-10.716 0.62575-10.726-3.6917-0.0118-6.3998 11.49-6.6542 13.759-6.6725zm-61.431 5.5805c-6.363 0.32272-13.229 1.2037-13.229 3.4624 0 1.4638 5.327 5.8538 13.154 8.6163-0.01036-3.4252 0.0371-8.5188 0.07559-12.079zm124.41 0.0256c-1.3841-0.0233-5.1449 5.9308-7.7299 10.429 3.7904 0.0607 9.0712-3.5842 9.0714-7.9831 0-1.4515-0.37108-2.446-1.3415-2.446zm-59.505 18.451c0.54559-2e-3 1.0065 0.39647 1.0516 0.92685 0.0148 0.17149-5e-3 0.34742-0.0182 0.52083-0.0558 0.78054-0.13615 1.5599-0.16852 2.3415-0.0607 1.5125-0.0907 3.0247-0.14208 4.5376-0.0173 0.48639-0.0597 0.97125-0.10449 1.456-0.0362 0.39207-0.21103 0.73572-0.45021 1.0483-0.41195 0.54539-1.135 0.69088-1.7261 0.32589-0.22394-0.13895-0.42604-0.32403-0.6022-0.51795-0.3559-0.39186-0.69982-0.79486-1.0284-1.2094-0.89665-1.1339-1.7817-2.2763-2.676-3.4116-0.10341-0.13218-0.18232-0.29581-0.35149-0.36223-0.11929 0.0666-0.0871 0.16339-0.0863 0.24204 0.0112 0.71329 0.0283 1.426 0.045 2.1387 0.0229 1.0443 0.0412 2.0872 0.0719 3.1312 0.0118 0.37685-0.13681 0.68119-0.41468 0.92396-0.28528 0.24803-0.61868 0.34972-0.99954 0.21353-0.33095-0.11842-0.54225-0.34304-0.60468-0.67737-0.0351-0.18758-0.0431-0.3809-0.0471-0.57122-0.0311-1.8787-0.0711-3.7563-0.0838-5.6358-5e-3 -0.78245 0.047-1.5646 0.0776-2.3469 4e-3 -0.12012 0.046-0.24025 0.05-0.36057 0.0167-0.704 1.0951-1.1991 1.7401-0.65714 0.28253 0.23854 0.54886 0.50445 0.78064 0.78931 0.60291 0.73782 1.1841 1.4918 1.769 2.2415 0.65091 0.83361 1.2969 1.6709 1.9417 2.5088 0.12964 0.16685 0.24402 0.34485 0.3709 0.5134 0.0482 0.0632 0.11534 0.11516 0.24328 0.24162 0.0176-0.18441 0.0301-0.25324 0.0301-0.32134-2e-3 -1.9328 0.13572-3.8598 0.23172-5.7878 0.0209-0.43415 0.0441-0.86814 0.0739-1.3019 0.0387-0.55089 0.46535-0.93725 1.0264-0.93965zm-23.441 0.13961c0.46506 3e-3 0.83627 0.26474 0.96691 0.71661 0.0582 0.20385 0.0732 0.42331 0.0847 0.63648 0.0404 0.73295 0.0708 1.4668 0.10656 2.1994 5e-3 0.0871 0.0254 0.17294 0.0401 0.2664 0.19329 0.029 0.37018 0.0444 0.5419 0.081 0.81797 0.17553 0.95388 1.1739 0.558 1.6203-0.19941 0.22395-0.42979 0.37277-0.71041 0.46012-0.11673 0.037-0.23171 0.0809-0.34653 0.12473-0.0146 6e-3 -0.0233 0.0255-0.0525 0.0628-2e-3 0.0457-0.0153 0.11736-6e-3 0.18546 0.14358 1.0485 0.16344 2.1055 0.20197 3.1609 0.0114 0.32272 0.0397 0.64359 0.0554 0.96608 0.0294 0.59868-0.27607 1.0468-0.83309 1.2259-0.48131 0.15501-0.94791-0.0571-1.1507-0.51918-0.0954-0.2176-0.12633-0.4447-0.13672-0.67944-0.0491-1.092-0.10379-2.1833-0.16149-3.2741-9e-3 -0.17489-0.0363-0.34805-0.0582-0.5481-0.16029 0.0309-0.28204 0.044-0.39899 0.0785-0.75537 0.22056-1.5107 0.44557-2.2651 0.66952-0.0685 0.0199-0.13506 0.0476-0.20404 0.0682-0.1567 0.0455-0.24066 0.14624-0.23667 0.31267 8e-3 0.21442 0.0167 0.42906 0.0223 0.64391 0.0118 0.55449 0.029 1.1092 0.0306 1.6633 1e-3 0.55617-0.31501 0.89608-0.80541 1.0896-0.42803 0.16918-0.876 7e-3 -1.116-0.38743-0.1339-0.21824-0.20891-0.4532-0.20652-0.71289 4e-3 -0.42929 6.4e-4 -0.85935-5e-3 -1.2895-3e-3 -0.17553 0.0326-0.35831-0.0826-0.5609-0.12371 0.0239-0.25764 0.055-0.39362 0.0768-0.72196 0.11842-1.384-0.60293-1.2007-1.3118 0.0869-0.33752 0.30693-0.5667 0.63111-0.68068 0.31912-0.11377 0.64601-0.20478 0.99747-0.31432 0.0145-0.10827 0.0454-0.22868 0.0454-0.34901 2e-3 -0.93153 3e-3 -1.863-4e-3 -2.7942-2e-3 -0.26815-0.0507-0.53541-0.0467-0.80335 0.0112-0.84293 0.9261-1.3664 1.6624-0.95906 0.24637 0.13661 0.4274 0.33237 0.48614 0.61046 0.0436 0.20915 0.0719 0.42413 0.0743 0.63772 9e-3 0.78773 2e-3 1.5763 7e-3 2.3638 2e-3 0.17446-0.0397 0.35823 0.0876 0.54644 0.93598-0.18313 1.8304-0.55513 2.7966-0.74841 0.0154-0.12943 0.0461-0.2508 0.0405-0.3705-0.0434-0.9476-0.0928-1.8953-0.14126-2.8437-5e-3 -0.0895-0.0166-0.17841-0.0182-0.26765-8e-3 -0.58514 0.32091-0.94785 0.93883-1.0379 0.0698-0.0103 0.13843-0.0153 0.20487-0.0149zm7.8633 0.0781c0.23764 2e-3 0.46298 0.0782 0.66704 0.23956 0.23285 0.1844 0.45798 0.39788 0.62906 0.63896 0.41068 0.57732 0.79888 1.1707 1.1742 1.7711 0.29035 0.46523 0.55364 0.94842 0.81904 1.4291 0.10806 0.19436 0.2242 0.35795 0.46549 0.38992 0.0668 9e-3 0.13015 0.0532 0.19082 0.0892 0.38148 0.22099 0.54783 0.60924 0.44442 1.04-0.0292 0.11948-0.0697 0.23659-0.1 0.33704 0.35675 0.69383 0.68243 1.3232 1.0041 1.954 0.29796 0.58493 0.57776 1.1779 0.88926 1.755 0.25207 0.46587 0.16924 0.89268-0.0995 1.3015-0.40984 0.62232-1.2372 0.59996-1.6261-0.0355-0.0727-0.12075-0.12923-0.25188-0.19453-0.37793-0.53608-1.0396-1.0724-2.0792-1.6108-3.118-0.0806-0.15607-0.17277-0.30571-0.27343-0.47911-0.10701 0.0125-0.21364 4e-3 -0.30647 0.0368-1.0493 0.37409-2.0949 0.7579-3.1452 1.1288-0.24574 0.0871-0.36464 0.24261-0.41923 0.49151-0.16114 0.72705-0.33671 1.4512-0.50927 2.1754-0.0366 0.15544-0.0707 0.31314-0.12969 0.46012-0.20576 0.51261-0.83104 0.79846-1.2536 0.62781-0.28296-0.11398-0.4814-0.28981-0.57825-0.57742-0.10495-0.3098-0.12897-0.62156-0.0368-0.94088 0.0884-0.30643 0.16939-0.61581 0.24741-0.9252 0.0243-0.099 0.0286-0.20311 0.0434-0.31266-0.0846-0.0423-0.14328-0.0834-0.20818-0.10078-0.53396-0.14973-0.68833-0.57677-0.7418-1.0545-0.0372-0.32292 0.11884-0.58938 0.37916-0.77485 0.14275-0.10129 0.3093-0.17138 0.47044-0.24203 0.22482-0.0996 0.45594-0.18566 0.69639-0.28252 0.0554-0.19772 0.10926-0.38345 0.16025-0.57039 0.38615-1.4194 0.7545-2.8466 1.2878-4.2204 0.16601-0.42823 0.37704-0.83861 0.59146-1.2461 0.1345-0.25504 0.34768-0.4414 0.63359-0.53488 0.14965-0.0489 0.29688-0.0741 0.43947-0.0727zm25.943 0.23047c0.19858-0.0105 0.40842 0.0467 0.61088 0.17719 0.30134 0.19434 0.4687 0.47309 0.50802 0.83598 0.062 0.58746 0.13218 1.1745 0.19413 1.7616 0.096 0.92603 0.1928 1.8516 0.28458 2.7776 0.088 0.89157 0.16758 1.7828 0.25153 2.6744 0.0239 0.24954 0.0531 0.49823 0.0702 0.74883 0.0118 0.17912 0.0126 0.35867 0.012 0.53694-6.4e-4 0.74925-0.87644 1.636-1.864 1.2127-0.22501-0.0971-0.44889-0.21425-0.64598-0.36017-0.35465-0.26349-0.69874-0.54408-1.0297-0.83845-1.1532-1.029-2.2054-2.1626-3.2535-3.2989-0.19223-0.20894-0.38817-0.41714-0.58568-0.62079-0.0436-0.0453-0.10507-0.0716-0.21271-0.14373 0 0.23473-0.0114 0.40822 2e-3 0.57824 0.0402 0.49971 0.097 0.99835 0.13548 1.4985 0.0647 0.82136 0.12131 1.6428 0.17925 2.4646 0.0102 0.14274 0.0179 0.28659 0.0107 0.42955-0.0315 0.54898-0.5054 1.011-1.0404 1.019-0.43733 6e-3 -0.78111-0.24804-0.90207-0.67944-0.0374-0.13724-0.0597-0.28188-0.0682-0.42336-0.12139-1.9314-0.24397-3.861-0.35479-5.7928-0.0239-0.42823-6e-3 -0.85999 7e-3 -1.2895 5e-3 -0.19519 0.0303-0.39409 0.0748-0.58527 0.15099-0.652 0.85933-0.9831 1.4493-0.67118 0.20005 0.10616 0.38801 0.24937 0.55676 0.40353 0.31447 0.2874 0.61808 0.58689 0.90991 0.8967 0.79493 0.83849 1.5782 1.6874 2.372 2.5257 0.57373 0.6065 1.1581 1.2026 1.7405 1.8008 0.0592 0.062 0.13301 0.10947 0.28252 0.23212 0-0.25588 0.0127-0.41457-2e-3 -0.56957-0.14993-1.4788-0.30245-2.9567-0.4564-4.4356-0.0539-0.51621-0.10981-1.0327-0.1648-1.5489-0.0275-0.25419 6e-3 -0.49761 0.11937-0.73065 0.17949-0.36347 0.479-0.56819 0.80995-0.58568zm15.535 0.228c0.0618 2e-3 0.12525 0.0103 0.18959 0.0252 0.5788 0.13555 0.9086 0.54381 0.92147 1.1846 0.0406 1.9392 0.073 3.8788 0.11276 5.8188 0.01 0.48088 0.0311 0.9606 0.052 1.4411 3e-3 0.0848 0.0251 0.1688 0.0368 0.2441 0.20089 0.082 0.37096 0.024 0.5357-0.012 1.227-0.26899 2.4678-0.40401 3.7206-0.40561 0.74692-2e-3 1.4942 3e-3 2.2403 0.0215 0.3631 9e-3 0.72628 0.0541 1.0892 0.0921 0.26647 0.0275 0.50114 0.14283 0.70753 0.31349l4.2e-4 -4.2e-4c0.51198 0.42443 0.48072 1.3211-0.12515 1.6199-0.29247 0.14399-0.56998 0.20899-0.8967 0.18421-1.8385-0.14063-3.6783-0.16385-5.5082 0.13052-0.49674 0.0802-0.99022 0.18744-1.4844 0.2788-0.34597 0.0635-0.68951 0.0754-1.0351-5e-3 -0.77823-0.18144-1.2738-0.72214-1.3882-1.5348-0.0248-0.17616-0.034-0.35435-0.038-0.53199-0.052-2.4554-0.10272-4.9122-0.15323-7.3681-2e-3 -0.0713 4e-3 -0.14273-5e-3 -0.21354-0.0535-0.48427 0.22533-0.80722 0.53281-1.1003 0.13767-0.13178 0.30888-0.18787 0.4944-0.18255zm-61.907 0.3457c0.13369-5e-3 0.26804-5e-3 0.40312 3e-3 0.45615 0.0264 0.87601 0.15823 1.256 0.41221 0.38508 0.2582 0.65448 0.60873 0.78517 1.0524 0.11187 0.38276 0.0722 0.74625-0.2313 1.0413-0.31572 0.30814-0.69343 0.42653-1.1272 0.34405-0.24087-0.0455-0.44163-0.17633-0.54272-0.39816-0.15924-0.35165-0.43371-0.36885-0.75874-0.33208-0.66445 0.0757-1.2888 0.27761-1.8917 0.55759-0.64964 0.30177-1.2731 0.65277-1.8491 1.0768-0.71964 0.52804-1.4237 1.0774-2.1218 1.6331-0.34956 0.27873-0.66932 0.59568-0.90702 0.9793-0.40497 0.65408-0.25095 0.75744 0.25278 1.0685 0.43183 0.26603 0.91442 0.4026 1.4274 0.3994 0.62447-3e-3 1.2505 7e-3 1.8747-0.0223 1.8013-0.084 3.6027-0.18659 5.3917-0.42006 0.44156-0.0577 0.8755-0.16875 1.3126-0.25525 0.10468-0.0205 0.20858-0.0514 0.31432-0.0607 0.43161-0.0383 0.89792 0.19145 1.0479 0.72858 0.13301 0.47942 0.0174 0.89294-0.41758 1.1503-0.22628 0.13386-0.48613 0.22728-0.7418 0.29242-0.36161 0.0926-0.73313 0.15659-1.1036 0.20734-0.58409 0.0802-1.169 0.15734-1.7558 0.20322-1.2815 0.10129-2.5646 0.18108-3.8474 0.27053-8e-4 -9e-3 -1e-3 -0.0178-2e-3 -0.0273-0.57182 0.0173-1.1427 0.0406-1.7141 0.0516-0.71816 0.0133-1.4263-0.0469-2.1106-0.29325-0.6877-0.247-1.2821-0.62623-1.7455-1.1957-0.64224-0.78732-0.80296-1.6536-0.40518-2.6042 0.16727-0.39883 0.39691-0.76146 0.67943-1.0859 0.22226-0.25609 0.45233-0.50772 0.70546-0.73231 1.15-1.0242 2.369-1.9553 3.7061-2.7231 0.91737-0.52784 1.8802-0.95028 2.9255-1.1577 0.39398-0.078 0.78928-0.14711 1.1904-0.16356zm57.44 0.3453c0.54751-3e-3 0.96649 0.31711 1.1082 0.80541 0.0971 0.33307 8e-3 0.61845-0.23336 0.85869-0.2582 0.25652-0.5697 0.40242-0.94296 0.42336-0.58366 0.0341-1.1667 0.09-1.7512 0.11069-1.1515 0.0419-2.3029 0.0647-3.455 0.0987-0.11969 3e-3 -0.23804 0.0267-0.36429 0.0417-0.0707 0.26604-0.0194 0.50767 5e-3 0.74345 0.0229 0.2227 0.0803 0.44217 0.12845 0.66252 0.0245 0.11401 0.10565 0.17782 0.22428 0.18421 0.0871 6e-3 0.17739 6e-3 0.26599-8.3e-4 1.2545-0.0947 2.5081-0.19075 3.7619-0.29036 0.21148-0.0169 0.42156-0.054 0.6307-0.0867 0.37135-0.0582 0.92911 0.25172 1.0442 0.79013 0.0643 0.3079-8e-3 0.58359-0.25566 0.80458-0.24363 0.21802-0.52019 0.3461-0.84797 0.39981-1.0161 0.16623-2.0374 0.26533-3.0643 0.31928-0.47688 0.0241-0.95273 0.0542-1.4791 0.0851-0.0425 0.59487 0.11852 1.0889 0.25112 1.6187 0.14211 0.0154 0.2812 0.0506 0.41675 0.0425 0.6357-0.0383 1.2753-0.0594 1.9057-0.1429 0.91314-0.12055 1.8181-0.29232 2.7277-0.43782 0.22741-0.0367 0.45655-0.0778 0.6848-0.0826h4.2e-4c0.46036-0.01 0.79118 0.22074 0.94212 0.62326 0.1696 0.45298 0.0612 0.90052-0.2949 1.1784-0.26667 0.20851-0.56149 0.37203-0.89752 0.43781-0.41618 0.0806-0.83478 0.16417-1.2564 0.19949-0.67058 0.0567-1.3456 0.071-2.0185 0.10698-0.49505 0.0282-0.99082 0.0588-1.4857 0.0896-0.53059 0.0334-1.0584 0.0594-1.5877-0.0516-0.55977-0.11779-0.92512-0.41869-1.0516-0.97021-0.12011-0.52382-0.25319-1.0476-0.34116-1.5774-0.269-1.6298-0.40492-3.274-0.5481-4.9176-0.0351-0.41174 0.0314-0.78718 0.26104-1.142 0.20196-0.31277 0.47524-0.5173 0.83432-0.59683 0.27597-0.0615 0.55883-0.0984 0.84093-0.11482 0.33498-0.0198 0.67344 2e-3 1.009-8e-3 1.293-0.0389 2.5865-0.0804 3.8788-0.12846 0.3189-0.0113 0.63605-0.0728 0.9541-0.076zm-36.869 1.9317c-0.21464 0.30537-0.37981 0.80733-0.76617 2.3469-0.0197 0.0755-0.01 0.1581-0.014 0.24988 0.90764-0.22561 1.5915-0.46411 1.9144-0.66498-0.14486-0.47391-0.8358-1.6497-1.1342-1.9318z"/>
  <path d="m131.84 133.76" stroke-width=".26458"/>
 </g>
</svg>
