<?xml version="1.0" encoding="UTF-8" standalone="no"?>
<svg xmlns="http://www.w3.org/2000/svg" height="171.62" viewBox="0 0 600 171.61506" width="600" version="1.1">
 <g fill="#fff">
  <path d="m474.8 9.0787a85.663 85.663 0 0 0 -46.13 75.919 85.663 85.663 0 0 0 85.67 85.662 85.663 85.663 0 0 0 85.66 -85.662 85.663 85.663 0 0 0 -0.01 -0.241v-15.38h-90.33v15.38h74.78a70.111 70.111 0 0 1 0.01 0.241 70.111 70.111 0 0 1 -70.11 70.112 70.111 70.111 0 0 1 -70.11 -70.112 70.111 70.111 0 0 1 30.57 -57.813z"/>
  <path d="m312.95 0.4937v101.32h15.38v-85.763c38.72 0.001 70.11 31.391 70.11 70.112 0 0.069-0.01 0.138-0.01 0.208l0.19 15.443h15.37v-15.443h-0.01c0.01-0.07 0.01-0.139 0.01-0.208 0-47.311-38.35-85.665-85.66-85.665z"/>
  <rect transform="rotate(90)" height="15.379" width="101.32" y="-298.12" x=".49341"/>
  <path d="m61.007 0.28779v101.32h15.378v-85.769a70.111 70.111 0 0 1 70.105 70.112 70.111 70.111 0 0 1 -70.105 70.107 70.111 70.111 0 0 1 -58.506 -31.54h-17.879a85.663 85.663 0 0 0 76.385 47.1 85.663 85.663 0 0 0 85.665 -85.667 85.663 85.663 0 0 0 -85.665 -85.665z"/>
  <path d="m178.86 0v15.38h74.32a70.111 70.111 0 0 1 0.03 0.772 70.111 70.111 0 0 1 -70.11 70.109 70.111 70.111 0 0 1 -5.01 -0.25v15.629a85.663 85.663 0 0 0 5.01 0.17 85.663 85.663 0 0 0 85.66 -85.658 85.663 85.663 0 0 0 -0.04 -0.772h0.04v-15.38z"/>
 </g>
</svg>
