<svg width="972.89" height="293.22" version="1.1" viewBox="0 0 972.89 293.22" xml:space="preserve" xmlns="http://www.w3.org/2000/svg"><link rel="stylesheet" type="text/css"/><link rel="stylesheet" type="text/css"/><style lang="en" type="text/css"/><style lang="en" type="text/css"/><path d="m0 3.418e-6v293.22h800v-293.22zm70.025 66.679h68.352c48.684 0 77.978 29.573 77.978 78.814 0 51.892-29.573 80.068-77.978 80.068h-68.352zm157.07 0h60.958l27.201 86.764 27.899-86.764h61.1v158.88h-177.16zm241.46 0h41.987l59.424 158.88h-160.84zm110.06 0h150.79l-51.474 75.327 56.217 83.555h-160.28l56.495-83.555z" fill="#005563" stroke-width="1.3949"/><g transform="matrix(1.3949 0 0 1.3949 0 4.418e-6)" fill="#005563" stroke-width=".92413"><path d="m666.2 51.668-14.493 24.804 17.588 0.02437v86.329h28.147v-111.16z"/><path d="m612.57 78.137v18.765h-18.765v18.765h18.765v18.765h18.765v-18.765h18.765v-18.765h-18.765v-18.765z"/></g></svg>
