<svg preserveAspectRatio="xMidYMid" version="1.0" viewBox="0 0 3564.3 980.8" xmlns="http://www.w3.org/2000/svg">
 <g transform="translate(-175,-593)" fill="#fff">
  <path d="m849.3 1573.3-674.3-0.3v-980h1349v490.5c0 269.8-0.1 490.4-0.2 490.3-0.2-0.2-303.7-0.4-674.5-0.5zm-337.3-126.2c12.7-1.4 29.4-4.7 39-7.6 3-0.9 6.9-2 8.5-2.5 4.7-1.3 10.4-3.6 11.1-4.3 0.4-0.4 1.4-0.7 2.2-0.7s3-0.7 5-1.6c8.8-3.9 10.1-4.4 11.1-4.4 0.6 0 1.1-0.3 1.1-0.7 0-0.5 2.1-1.7 4.8-2.7 2.6-1.1 6.4-3 8.4-4.3 2.1-1.3 4.2-2.3 4.8-2.3 0.5 0 1-0.4 1-1 0-0.5 0.5-1 1.2-1 1.3 0 11.1-6.1 11.6-7.2 0.2-0.5 0.8-0.8 1.3-0.8 0.7 0 16.4-10.9 20.4-14.2 0.5-0.5 2.1-1.8 3.5-2.9 18.4-15.1 38.5-35.7 51.5-52.9 2.7-3.6 5.3-6.6 5.7-6.8s0.8-0.9 0.8-1.7c0-0.7 0.7-1.8 1.5-2.5 4.1-3.4 19.2-28 28.2-46 2.7-5.2 5.1-9.6 5.6-9.8 0.4-0.2 0.7-0.7 0.7-1.2s1.4-3.9 3.1-7.7c1.7-3.7 3.9-8.7 5-11 1-2.4 1.9-4.6 1.9-4.9s0.6-2 1.4-3.7c0.8-1.8 2.2-5.4 3.1-8.2 0.9-2.7 2.1-5.9 2.5-7 0.5-1.1 1.6-4.7 2.6-8 0.9-3.3 2.1-6.4 2.5-7 0.3-0.5 1-3 1.4-5.5 0.4-2.4 1.1-5.1 1.5-6 1.4-2.8 2.9-8.4 3.6-13.5 0.3-2.7 1-5.4 1.4-6 0.4-0.5 1-2.8 1.3-5s1.3-7.6 2.2-12c1.8-9 4-26.1 5.8-44 3-31.5 0.4-84-5.8-114-0.9-4.4-1.9-9.8-2.2-12s-0.9-4.4-1.3-5c-0.4-0.5-1.1-3.5-1.5-6.5s-1.1-6.1-1.5-7c-1.2-2.2-4-12-4-13.6 0-0.8-0.4-2.2-0.9-3.2-0.5-0.9-1.6-4.2-2.6-7.2-0.9-3-2-6.4-2.5-7.5-0.4-1.1-1.5-4.2-2.5-7-0.9-2.7-2-5.9-2.5-7-1.4-3.3-4.2-9.9-5-12-1.1-2.7-17.8-36.6-19-38.5-0.6-0.8-4.4-7-8.5-13.7-17.3-28.4-41.6-57.5-64-76.8-3.9-3.3-7.2-6.2-7.5-6.5-0.8-0.8-10.5-8.3-13-10-1.2-0.8-3.3-2.3-4.6-3.3-4.7-3.6-12.6-8.7-13.5-8.7-0.5 0-0.9-0.4-0.9-0.9s-0.8-1.1-1.7-1.5c-1.8-0.5-5.3-2.6-6.3-3.6-0.8-0.8-27.4-14-28.3-14-0.4 0-3-1.1-5.9-2.5-2.8-1.3-6.6-2.8-8.5-3.1-1.8-0.3-3.6-1-3.9-1.5s-1.6-0.9-2.9-0.9-2.6-0.4-2.9-0.9c-0.4-0.5-2.5-1.2-4.9-1.6-2.3-0.3-5.1-1-6.2-1.4-3.3-1.4-16.8-4.1-20-4.1-1.7 0-3.7-0.6-4.3-1.2-1-1-21.8-1.4-95.2-1.6l-94-0.3v364c0 276.8 0.3 364 1.2 364.3 2.5 0.9 170.8-0.1 178.8-1.1zm854.8-362.8 0.2-364.3-87.2 0.1c-48 0-90.7 0.4-94.8 0.9-8.5 1-18.3 2.6-22 3.5-1.4 0.3-4.2 0.9-6.3 1.2s-4 1-4.3 1.4c-0.3 0.5-1.4 0.9-2.4 0.9-2.1 0-10.6 2.6-13.1 4-0.9 0.5-3.3 1.2-5.3 1.5-2 0.4-3.9 1.1-4.2 1.6s-1.1 0.9-1.9 0.9c-1.9 0-28.9 12.4-30.5 14-0.3 0.3-2.1 1.3-4 2.3-5.1 2.7-9.3 5.1-10.5 5.9-0.5 0.5-6.2 4.4-12.5 8.9s-11.7 8.4-12 8.8-1.2 1.2-2.1 1.7c-7.5 4.3-43.9 40.7-50.8 50.8-0.8 1.2-2.7 3.7-4.3 5.6-3.5 4.3-3.6 4.4-7.8 10.5-1.9 2.8-3.8 5.2-4.1 5.5-1.6 1.4-18.1 29-22.4 37.6-2.7 5.4-5.3 10.1-5.7 10.2-0.5 0.2-0.8 0.8-0.8 1.4 0 0.9-4.9 12.1-7.1 16-0.5 1-0.9 2.5-0.9 3.3s-0.4 1.5-1 1.5c-0.5 0-1 0.7-1 1.6s-0.6 3-1.4 4.7c-1.7 4-2.8 6.9-3.1 8.3-0.2 0.6-1 2.7-1.8 4.5-0.8 1.9-2.3 6.1-3.3 9.4-0.9 3.3-2.1 6.4-2.6 7-0.4 0.5-0.8 1.7-0.8 2.6 0 1.9-2.8 11.6-4 13.9-0.4 0.9-1.1 4-1.5 7s-1.1 6-1.5 6.5c-0.4 0.6-1 2.8-1.4 5s-0.9 4.9-1.1 6-0.7 4-1 6.5c-0.4 2.5-0.9 5.2-1.3 6-0.6 1.5-2.2 13.2-4.3 31-1.5 13-1.6 72.9-0.1 85.5 0.7 5.5 1.9 14.7 2.7 20.5 1.2 8.9 1.9 13.3 3.9 24 0.2 0.8 0.6 3.3 1 5.5s1 4.7 1.4 5.5c0.6 1.5 2.7 10.7 3.9 16.5 0.3 1.7 0.9 3.5 1.3 4 0.4 0.6 1.1 3 1.5 5.5 0.4 2.4 1.1 5.1 1.6 6 0.5 0.8 1.5 3.8 2.4 6.5 2 6.4 6.3 18.1 8.1 22.2 0.8 1.7 1.4 3.4 1.4 3.7 0 0.5 3.3 8.2 7 16.1 6.7 14.5 8.5 18 9.2 18.3 0.4 0.2 0.8 0.9 0.8 1.6s2.5 5.4 5.5 10.5 5.5 9.7 5.5 10.2 0.4 0.9 1 0.9c0.5 0 1.2 1.1 1.6 2.5 0.3 1.4 1 2.5 1.5 2.5s0.9 0.5 0.9 1c0 0.6 0.5 1.6 1 2.3 0.6 0.7 4.7 6.4 9.2 12.7s8.5 11.7 8.8 12c0.4 0.3 1.1 1.2 1.6 2.1 1.3 2.4 10.8 13.2 20.4 23.3 13.3 14 16.5 16.9 28.1 26.2 4.1 3.3 8.3 6.7 9.4 7.7s3.6 2.8 5.5 4c1.9 1.1 3.7 2.4 4 2.7 0.3 0.4 3.7 2.7 7.5 5.1 3.9 2.3 7.2 4.6 7.5 4.9 0.9 1 24.6 13.1 30.5 15.5 2.2 1 5.4 2.3 7 3.1 5 2.2 17 6.4 18.3 6.4 0.7 0 2 0.4 3 0.9 0.9 0.5 4.6 1.7 8.2 2.6s8.1 2.1 10 2.6c4.9 1.3 15.3 2.9 23.5 3.6 3.8 0.3 7.8 0.8 8.8 1.2s40.4 0.7 87.5 0.7l85.7-0.1z"/>
  <path d="m2124 1526.7c-0.3-0.3-3-0.7-6-1-8.5-0.8-14-1.9-14.6-2.8-0.3-0.5-1.5-0.9-2.7-0.9s-3.5-0.7-5.1-1.5c-1.5-0.8-3.5-1.5-4.2-1.5-0.8 0-1.4-0.4-1.4-0.9s-1.1-1.2-2.5-1.5c-1.4-0.4-5.3-3.4-8.8-6.9-6.4-6.3-11.2-14.7-13.6-23.7-0.7-2.5-1.8-6.3-2.4-8.5-1.8-6.2-1.7-171.4 0.1-177.5 0.8-2.5 2.1-7 3-10 2.1-7.2 9.1-17.9 15-23 7.5-6.4 21.3-12.4 31.2-13.5 2.5-0.3 6.3-0.8 8.5-1.1 7.2-1.2 114.3-0.8 124.5 0.4 10.4 1.3 19 3.1 20.5 4.4 0.5 0.4 1.8 0.8 3 0.8 1.1 0 4 1 6.5 2.3l4.5 2.2 0.3 16.3 0.2 16.2-68.2 0.1c-37.6 0.1-69.9 0.2-71.8 0.3-4.8 0.3-10.1 1.6-11.7 3-4.7 3.8-7.3 7.3-7.9 10.5-0.3 2-1 5.2-1.5 7.1-1.1 4.3-0.6 148.1 0.6 153 1.9 8.3 8.5 13.3 19.1 14.6 9 1.2 52.2 0.8 59.9-0.5 9.8-1.6 16.9-3.1 19-4 1.1-0.5 4.3-1.8 7-2.8l5-1.9v-63.9l-28.2-0.3-28.3-0.2v-37l56.5-0.2 56.5-0.3v149.5h-22c-21.1 0-22-0.1-22-1.9 0-1.1-0.4-2.2-0.9-2.5-0.4-0.3-1.1-1.8-1.4-3.3-0.3-1.6-1.3-4.5-2.2-6.7l-1.6-3.9-4.2 4.3c-5.5 5.6-12.9 10.3-19.7 12.5-3 1-6.4 2.2-7.5 2.6s-3.3 1-5 1.2c-1.6 0.3-4.1 0.8-5.5 1.2-2.9 0.9-69.2 2-70 1.2z"/>
  <path d="m1654.5 1389v-133h79.1c43.5 0 79.4 0.3 79.8 0.7 0.8 0.8 1.3 0.9 11.8 1.8 4.3 0.4 8 1.1 8.4 1.6 0.3 0.5 1.6 0.9 2.9 0.9s2.7 0.5 3 1c0.3 0.6 1.3 1 2.2 1 2.6 0 13.6 7.2 17.9 11.7 3.3 3.6 7.3 10.2 11.4 19.3 0.4 0.9 1.1 4 1.5 7 0.3 3 1 6.9 1.3 8.5 0.9 3.9 0.9 151 0 155.5-0.4 1.9-0.9 6-1.3 9-1 8.8-7.4 26-9.7 26-0.4 0-0.8 0.5-0.8 1 0 3.4-18.3 16-23.3 16-0.8 0-1.8 0.4-2.1 0.9-0.6 0.9-1.9 1.2-13.6 3-3 0.5-42.2 1-87 1l-81.5 0.1zm151.4 90c7-4.3 9-7.3 11-16.8 1.6-7.7 1.4-138.6-0.2-146.2-1.4-6.3-4.8-12.7-7.4-13.7-1-0.4-2.1-1.1-2.5-1.7-0.5-0.8-15.7-1.2-47.8-1.4l-47-0.3v90.4c0 49.7 0.3 90.7 0.7 91.1s21 0.6 45.8 0.4c37.9-0.3 45.4-0.5 47.4-1.8z"/>
  <path d="m1939 1389v-133h57.7v266h-57.7z"/>
  <path d="m2352 1389v-133h58v266h-58z"/>
  <path d="m2525.5 1410.3c0-88.7-0.3-111.8-1.2-111.9-0.7-0.1-18.8-0.2-40.3-0.3l-39-0.1v-42h218v42.5h-79.5l-0.3 111.8-0.2 111.7h-57.5z"/>
  <path d="m2659.8 1520.8c0.7-0.7 1.2-2.2 1.2-3.4 0-1.3 0.5-2.6 1-2.9 0.6-0.3 1-1.3 1-2.2 0-0.8 0.6-2.9 1.4-4.6 0.8-1.8 2.2-5.4 3.1-8.2 0.9-2.7 2.1-5.9 2.5-7 0.5-1.1 1.6-4.5 2.6-7.5s2.1-5.9 2.5-6.5c0.4-0.5 1-2.6 1.4-4.5s1.2-4.3 1.8-5.5c2.1-4.1 2.5-5.1 3.2-8.5 0.4-1.9 1-3.9 1.4-4.5 0.4-0.5 1.5-3.5 2.5-6.5s2.1-6.4 2.6-7.5 1.6-4.5 2.6-7.5 2.1-5.9 2.5-6.5c0.4-0.5 1-2.6 1.4-4.5s1.1-4.2 1.6-5.2l1.8-3.6c0.5-1 1.2-3.3 1.6-5.2s1-3.9 1.4-4.5c0.4-0.5 1.5-3.5 2.5-6.5s2.1-6.4 2.6-7.5c0.4-1.1 1.5-4.2 2.5-7 0.9-2.7 2-5.9 2.5-7 0.4-1.1 1.5-4 2.3-6.5 4.3-12.9 9.1-25.8 10.7-29 0.4-0.9 1.1-3.1 1.5-5s1-3.9 1.4-4.5c0.4-0.5 1.5-3.5 2.5-6.5s2.1-6.4 2.6-7.5 1.6-4.5 2.6-7.5 2.1-5.9 2.5-6.5c0.4-0.5 1-2.6 1.4-4.5 0.7-3.4 1.1-4.4 3.2-8.5 0.6-1.2 1.4-3.6 1.8-5.5s1-3.9 1.4-4.5c0.4-0.5 1.5-3.5 2.5-6.5s2.1-6.4 2.6-7.5 1.6-4.2 2.5-7l1.7-5h69.9l1.1 4c0.6 2.2 1.5 4.4 2 5 0.4 0.5 0.8 1.5 0.8 2.3s0.6 2.8 1.4 4.5c0.8 1.8 2.2 5.5 3.1 8.2 1.4 4.4 5.3 15.3 7.5 21 0.4 1.1 1.5 4.3 2.5 7 0.9 2.8 2 5.9 2.5 7s1.6 4.5 2.6 7.5 2.1 6 2.5 6.5c0.4 0.6 1 2.6 1.4 4.5s1 3.7 1.4 4c0.3 0.3 1.5 3.2 2.5 6.5 1.1 3.3 2.2 6.5 2.6 7 0.3 0.6 1.4 3.7 2.5 7 1 3.3 2.2 6.5 2.6 7 0.4 0.6 1 2.6 1.4 4.5s1.1 4.1 1.5 5c1.9 3.5 4 8.9 4 9.9 0 0.6 0.4 1.9 0.9 2.9 0.5 0.9 2.3 6 4.1 11.2 1.7 5.2 3.5 10.4 4 11.5 1.4 3.4 6.4 17.1 9.9 27.5 1.2 3.6 2.6 7.4 3.1 8.5s1.6 4.3 2.5 7c0.8 2.8 2 5.9 2.4 7 0.5 1.1 1.7 4.3 2.6 7 1 2.8 2.1 5.9 2.5 7 2.1 5 6 16.1 6 16.9 0 0.4 0.6 2.2 1.4 3.9 0.8 1.8 2.2 5.5 3.1 8.2 0.9 2.8 2.1 5.9 2.5 7 0.5 1.1 1.8 4.6 2.9 7.8l2.1 5.7h-29.5c-22.8 0-29.6-0.3-29.9-1.2-3.5-12-7-22.7-7.7-24-0.5-1-0.9-2.7-0.9-3.7 0-1.1-0.4-2.2-0.9-2.5-0.5-0.4-1.2-2.4-1.6-4.6s-1.1-4.2-1.6-4.6c-0.5-0.3-0.9-1.4-0.9-2.5 0-1-0.4-2.7-0.9-3.7-0.6-0.9-2-5.1-3.2-9.2s-2.7-8.5-3.2-9.7l-1-2.3h-106.4l-1.2 4.3c-0.7 2.3-1.6 5.1-2.1 6.2s-1.6 4.7-2.6 8c-0.9 3.3-2.1 6.5-2.5 7-0.4 0.6-1 2.8-1.4 5s-1.1 4.5-1.5 5c-0.4 0.6-1.5 3.7-2.4 7-1 3.3-2.1 6.9-2.5 8-0.5 1.1-1.6 4.7-2.6 8s-2.2 6.5-2.7 7.1c-0.4 0.6-0.5 1.4-0.1 1.7 0.3 0.4-11.2 0.7-25.7 0.7-20.5 0-26.1-0.3-25.2-1.2zm164.2-111.2c0-1.7-5.8-20.5-7.1-22.8-0.5-1-0.9-2.7-0.9-3.7 0-1.1-0.4-2.2-0.9-2.5s-1.2-2.2-1.6-4.2c-0.3-2-1-4.4-1.5-5.3-0.4-0.9-2.2-6.3-4-12.1-1.7-5.8-3.6-11.3-4.1-12.2-0.5-1-0.9-2.5-0.9-3.3s-0.4-2.3-0.9-3.3c-0.5-0.9-3.1-8.4-5.6-16.7-2.6-8.2-5.1-15.9-5.5-17-0.5-1.1-1.1-3.3-1.5-5-2.5-12.1-2.9-13.5-4.4-13.5-1.2 0-3.5 6.6-4.8 13.5-0.6 3.5-4.4 15.9-5.4 17.7-0.5 1-0.9 2.7-0.9 3.7 0 1.1-0.4 2.2-0.9 2.5-0.5 0.4-1.2 2.5-1.6 4.9-0.4 2.3-1 4.7-1.4 5.2-0.7 1.1-2.1 5.2-6.6 20-1.5 5-3.1 9.9-3.5 11-0.5 1.1-2.3 6.7-4 12.5s-3.5 11.4-3.9 12.5c-2 4.9-4.1 12.1-4.1 13.7 0 0.9-0.5 1.8-1.1 2-0.5 0.2-0.7 1.1-0.4 2.1 0.7 1.6 3.6 1.7 39.1 1.7 32 0 38.4-0.2 38.4-1.4z"/>
  <path d="m2961 1389v-133h58v110.9c0 62.9 0.4 111.2 0.9 111.5s27.9 0.6 60.9 0.6l60.1 0.1 0.3 21.4 0.3 21.5h-180.5z"/>
  <path d="m2287 1110.8c-19-1.1-26.8-2-45-5.3-4.7-0.9-10.1-1.8-12-2.2-1.9-0.3-3.9-0.9-4.5-1.3-0.5-0.4-3-1.1-5.5-1.5s-4.9-1.1-5.5-1.4c-0.5-0.4-3.7-1.6-7-2.6s-6.7-2.2-7.5-2.6c-0.8-0.5-3.5-1.7-6-2.9-6.6-2.9-21.3-11.8-25.5-15.2-0.5-0.5-2.1-1.8-3.5-2.9-9.7-8-19.5-19.9-24.2-29.4-0.8-1.6-1.9-3.9-2.6-5-1.5-2.7-3.6-7.9-5.7-14-1-2.7-2-5.7-2.3-6.5-0.5-1.4-1.8-6.8-4.3-18-3.6-16.5-4.9-48.9-4.9-118.5 0-60.1 0.7-84.3 3-105 1.4-11.9 4.4-26.7 6-29.7 0.6-1 1-2.4 1-3.3 0-0.8 0.6-2.9 1.4-4.7s2.2-5.1 3.1-7.3 2.2-5.1 2.8-6.5c1.6-3.4 8.7-14.9 11.2-18 2.1-2.7 18.4-18.8 20.6-20.5 4.3-3.2 20.3-12.6 25.4-14.9 6.3-2.9 7.2-3.3 14.5-6.1 2.5-1 5.4-2.1 6.5-2.5 2.1-0.9 9.4-2.8 13.5-3.6 1.4-0.3 3.4-0.9 4.5-1.4 1.9-0.9 5.8-1.6 21.5-4.1 7.7-1.3 7.2-1.2 32.5-3.6 12.5-1.2 66.5-0.8 81.5 0.5 15.5 1.4 18.1 1.7 27 3.2 16.1 2.6 20.9 3.6 21.6 4.3 0.4 0.4 1.8 0.7 3.1 0.7 2.2 0 9.8 2 14.8 3.9 1.1 0.5 4.7 1.7 8 2.7s8.1 2.9 10.7 4.1c2.7 1.3 5.2 2.3 5.7 2.3s1.1 0.3 1.3 0.8c0.2 0.4 2.1 1.6 4.3 2.7 4.4 2.2 11 6.5 16.9 11 4.9 3.8 17.6 16.3 17.6 17.3 0 0.5 0.8 1.7 1.8 2.8 2.3 2.5 8.2 11.1 8.2 11.9 0 0.4 0.8 1.9 1.9 3.3 1 1.5 2.2 3.8 2.6 5.2s1.1 2.7 1.4 3c0.9 0.7 5.9 13.8 6.6 17.5 0.4 1.7 1 3.9 1.5 5 2.5 6.2 4.1 15.3 6.1 34 1.4 13.1 1.4 177.4 0 190.5-2.1 19.7-3.6 28.4-6.2 34.5-0.4 1.1-1.1 3.6-1.5 5.5-0.3 1.9-1 4.1-1.5 5-0.9 1.8-2.1 5-2.5 6.7-0.6 3.1-7.7 16.5-12.2 23.2-12.5 18.3-29.1 31.4-53.4 42-2.6 1.2-5.4 2.1-6.2 2.1s-1.8 0.5-2.1 1c-0.3 0.6-1.7 1-3 1s-2.6 0.4-2.9 0.9c-0.4 0.5-2.9 1.2-5.6 1.6s-5.2 1.1-5.6 1.6c-0.3 0.5-1.8 0.9-3.4 0.9s-3.9 0.4-5.2 1c-1.3 0.5-5.7 1.5-9.8 2-15.9 2.3-21.7 3-27 3.5-3 0.3-7 0.7-8.9 1.1-5.7 0.9-71.6 1.1-87.1 0.2zm79.5-69.1c5.5-0.8 11.8-2 14-2.6s4.7-1.3 5.6-1.5c1.6-0.4 9.4-3.7 13.5-5.8 8.8-4.3 21-18 24.7-27.6 1-2.6 2.2-5.6 2.6-6.7 0.8-1.8 2.4-8.5 4.8-21 1.2-6.3 0.8-189.9-0.5-197-1.4-8.2-3.1-15.6-4.2-18-3.1-7.3-6.4-13.6-7.6-14.6-0.8-0.6-1.4-1.6-1.4-2.2 0-0.9-7.9-8.9-12.2-12.3-2.3-1.8-16.2-8.2-19.3-8.9-1.7-0.4-3.9-1.1-5-1.6-7-3.2-48.2-5.5-73.3-4-30.7 1.7-44.8 5-58.7 13.9-3.7 2.4-11.6 10-14 13.4-2.6 3.7-6.5 11.3-8 15.8-0.1 0.3-0.4 1.2-0.7 2-1.8 4.9-3.6 13-4.6 20.7-0.9 7.6-0.9 184.2 0.1 191.3 1.6 12.3 3.9 21.2 7.3 28.7 2.9 6.5 10 16.7 13.6 19.8 4.3 3.7 9.8 7.5 10.8 7.5 0.5 0 1 0.5 1 1 0 0.6 0.6 1 1.3 1 0.6 0 2.4 0.6 3.8 1.4 1.4 0.7 3.9 1.7 5.5 2.1 1.6 0.5 3.1 0.9 3.4 1s1.9 0.5 3.5 0.9c1.7 0.4 3.7 1.1 4.6 1.6s5.7 1.2 10.5 1.6c4.9 0.4 9.8 1.1 10.9 1.5 3.4 1.4 56.9 0.3 68-1.4z"/>
  <path d="m1656 879v-222l128.3 0.4c115.3 0.3 138.3 0.8 146.2 2.8 1.1 0.3 5.3 0.9 9.3 1.3 3.9 0.4 7.5 1.1 7.8 1.6s1.7 0.9 3.1 0.9c2.4 0 10.6 2.1 15.8 4 16.2 5.9 29.3 12.3 35.7 17.4 1.4 1.2 4.1 3.2 5.9 4.6 12.9 9.6 27.4 29.9 33.3 46.5 1 2.8 2.1 5.9 2.6 7 0.8 1.8 2.4 7.6 5.1 17.5 1 3.8 2.3 12.2 4.2 26.5 1.6 12.6 1.6 167.2-0.1 180.5-2.9 24.1-3.8 29.2-6.9 38.8-0.7 2.3-1.3 5.1-1.3 6 0 1-0.4 2.2-0.8 2.8-0.4 0.5-1.4 2.7-2.1 4.9-9.5 28.9-28.7 51.2-54.6 63.4-4.9 2.3-9.8 4.7-10.7 5.2-1 0.5-2.6 0.9-3.6 0.9s-2.2 0.4-2.8 0.9c-0.8 0.8-4.7 1.9-15.4 4.2-2.5 0.5-5.6 1.2-7 1.5-17.1 3.7-31 4.1-164.7 4.3l-127.3 0.1zm243 153.4c1.4-0.6 5-1.9 8-2.9s6.6-2.6 8-3.5c1.4-1 2.8-1.7 3.1-1.6 1.4 0.3 11.7-8.1 16.2-13.2 4.2-4.6 8.7-11 8.7-12.2 0-0.5 0.5-1 1-1 0.6 0 1-0.4 1-1 0-0.5 1.1-3.3 2.4-6.2s3.2-8 4.1-11.3 2.1-7.1 2.6-8.5c2.7-7.7 3.4-27.5 3.4-96.5 0-69.1-0.6-86.4-3.4-94.5-0.5-1.4-1.7-5.2-2.7-8.5-4.6-14.8-15.1-29.6-26.9-38-6.7-4.7-10.4-6.6-18.5-9.1-3-0.9-6.4-2.2-7.5-2.8-1.4-0.8-23.4-1.2-72.7-1.4-63.6-0.3-70.8-0.2-70.9 1.2-0.4 4.6-0.4 310.3-0.1 311.4 0.6 1.7 140.3 1.3 144.2-0.4z"/>
  <path d="m2609 879v-222h98l0.2 185.8 0.3 185.7 92.8 0.3 92.7 0.2v72h-284z"/>
  <path d="m2951 879v-222l117.8 0.3c112.2 0.4 126.1 0.7 132.5 2.7 1.5 0.5 5.4 1.2 8.7 1.6s6.3 1.1 6.6 1.5c0.3 0.5 1.6 0.9 3 0.9 1.3 0 2.4 0.4 2.4 0.8s0.9 0.8 1.9 0.9c3.4 0.3 22.1 9.2 22.1 10.6 0 0.4 0.7 0.7 1.5 0.7s1.5 0.3 1.5 0.8c0 0.4 1.5 1.5 3.3 2.5 3.4 1.9 11.2 8.9 16.2 14.7 3.5 4 9.5 13.5 9.5 15 0 0.6 0.4 1 0.8 1s1.6 2.6 2.7 5.8c1 3.1 2.2 6.2 2.6 6.7 0.4 0.6 1 3 1.4 5.5s1 5 1.4 5.5c3.2 5.1 3.3 58.6 0.1 63-0.4 0.6-1 3.1-1.3 5.7-0.4 2.6-1.1 5.6-1.6 6.5-1.5 2.9-4.1 9-4.1 9.8 0 0.3-2 3.7-4.4 7.4-4.5 7-13.7 16.7-16.8 17.7-1 0.3-1.8 0.9-1.8 1.3s-3.9 2.7-8.7 5c-4.9 2.4-9.5 4.7-10.4 5.2-0.9 0.4-3.4 1.1-5.5 1.5-2.2 0.3-4.3 1-4.9 1.4-0.5 0.4-2.6 1-4.5 1.3s-4.6 0.9-6 1.2-5 0.8-8 1.1c-6.6 0.6-13 2.4-13 3.6 0 0.4 0.6 0.8 1.3 0.8 10.2 0.2 27 1.2 31.5 2 10.1 1.7 12.7 2.2 13.7 3 0.6 0.4 3.1 1.1 5.8 1.4 2.6 0.4 4.7 1.1 4.7 1.7 0 0.5 0.6 0.9 1.4 0.9 1.4 0 12.1 4.8 16.1 7.3 9.1 5.5 25.5 22 25.5 25.6 0 0.6 0.4 1.1 0.9 1.1s1.3 1 1.7 2.3c0.4 1.2 1 2.4 1.3 2.7 0.9 0.7 5.8 12.7 6.8 16.5 0.4 1.7 0.8 3.2 0.8 3.5 0.1 0.3 0.4 1.2 0.7 2 3.6 10.3 5.3 24.5 5.3 44.5 0 8.8-0.3 17.4-0.7 19-0.3 1.7-1 5.5-1.3 8.5-0.4 3-1.1 6.1-1.5 7-0.5 0.8-1.6 4.2-2.6 7.4-2.3 7.9-8.6 20.5-14.3 28.6-7.4 10.4-25.6 28-29 28-0.6 0-1.1 0.3-1.1 0.8 0 0.6-7.8 4.5-16 7.9-1.9 0.8-4.3 1.9-5.2 2.4s-3.6 1.2-6 1.5c-2.4 0.4-4.7 1-5.3 1.4-0.5 0.4-3.7 1.1-7 1.6-3.3 0.4-6.2 0.8-6.5 0.9-11.9 3.6-38.7 4.3-156.2 4.4l-109.8 0.1zm210.2 157.7c2.4-0.5 5.2-1.3 6.3-1.8 1.1-0.4 3.4-1 5.1-1.3 5.3-0.9 16.2-6.3 24.3-12.1 2.4-1.7 11.5-10.9 13.8-14.1 3.5-4.5 10.1-18.5 10.9-22.9 0.3-2.2 1.2-4.6 1.8-5.4 1.6-2 1.4-36.7-0.2-38.3-0.7-0.7-1.2-2.3-1.2-3.8 0-1.4-0.7-3.8-1.5-5.4-0.8-1.5-1.5-3.2-1.5-3.8 0-2-7.2-12-11.6-16.2-5.5-5.1-16-10.7-25.9-13.5-10.3-3-35.3-4.7-63.7-4.4-9.3 0.1-16.8-0.1-16.8-0.5s-0.1-11.6-0.3-24.9c-0.2-27.8-1.4-25.2 10.8-25.1 9 0 36.4-1.3 39-1.9 2.3-0.6 12.9-2.3 16.2-2.7 1.3-0.1 2.6-0.6 3-0.9 0.3-0.4 1.5-0.7 2.5-0.7s2.6-0.4 3.6-0.9c0.9-0.4 3.5-1.7 5.7-2.7 5.1-2.4 5.9-3 11-8 2.3-2.3 5.3-6.4 6.5-9 1.2-2.7 2.6-5.7 3.1-6.6 0.5-1 1.4-7.4 2-14.3 1.2-13-0.1-33.9-2.2-35.9-0.5-0.6-0.9-1.6-0.9-2.3s-1.6-4.7-3.6-8.8c-3.9-8.1-11.9-17.2-18.9-21.7-13.3-8.3-17.5-8.8-77.8-8.8h-50.7v320.1l53.5-0.2c31.3-0.1 55.2-0.6 57.7-1.2z"/>
  <path d="m3476 1019.7v-81.3l-4.4-8.5c-2.4-4.6-5.7-10.9-7.3-13.9-3-5.5-10.1-18.8-17.6-33-2.1-4.1-5.1-9.7-6.7-12.5-1.5-2.7-5.5-10.2-8.7-16.5-3.3-6.3-7.1-13.3-8.3-15.5s-4.4-8.1-7.1-13.1c-9.1-17.4-14.7-27.9-17.9-33.9-3.5-6.5-12.1-22.7-16.7-31.5-1.5-3-3-5.7-3.3-6s-2.3-4.1-4.6-8.5c-4.4-8.5-10-19.1-15.4-29-3.9-7.2-11.7-21.9-15.6-29.5-1.6-3-3.1-5.7-3.4-6s-1.7-2.7-3.1-5.5c-1.4-2.7-4-7.6-5.7-10.7-1.8-3.1-3.2-6.2-3.2-6.7 0-0.8 15.3-1.1 48.8-1.1h48.7l2 3.8c1.1 2 3.6 6.6 5.6 10.2 3.6 6.5 13.5 25.1 19.3 36.5 1.7 3.3 3.3 6.2 3.6 6.5s1.7 2.8 3.1 5.5c9.5 18.3 11.5 22.1 11.9 22.5 0.3 0.3 1.3 2 2.3 3.9s4.8 9.1 8.4 16c3.7 6.9 8.1 15.3 9.7 18.6 1.7 3.3 3.3 6.2 3.6 6.5s1.7 2.8 3.1 5.5c1.4 2.8 4.5 8.6 6.9 13s6.1 11.6 8.4 16 4.3 8.2 4.6 8.5c0.7 0.7 7.4 13.4 11.2 21.2 1.8 3.7 3.8 6.8 4.4 6.8s1.9-1.7 3-3.7c1-2.1 2.1-4 2.4-4.3s1.3-2.1 2.4-4c1.9-3.7 5.2-9.7 11.8-21.5 2.1-3.8 4.4-8.1 5.1-9.5 0.6-1.4 1.4-2.7 1.7-3 0.6-0.6 1.7-2.6 7.5-13.6 2.6-4.9 5.1-9.3 5.5-9.9 0.5-0.5 2.4-3.9 4.2-7.5 3.7-6.9 8.1-15 11.8-21.5 1.2-2.2 3.6-6.5 5.2-9.5 1.7-3 4.8-8.5 6.9-12.3s3.9-7.1 3.9-7.3 1-2.1 2.3-4.2c2.2-3.5 7.3-12.7 14-25.2 1.6-3 4.3-8 6-11 5.7-9.9 7.6-13.4 9.9-18 1.3-2.5 2.6-4.6 3.1-4.8 0.4-0.2 0.7-0.8 0.7-1.3s1.1-2.7 2.5-4.9l2.5-4h92.8l-2.5 4.7c-1.3 2.7-3.3 6.2-4.3 7.8-0.9 1.7-3.1 5.5-4.7 8.5s-5.1 9.2-7.6 13.7c-2.6 4.5-4.7 8.7-4.7 9.3 0 0.5-0.4 1-0.9 1s-1.1 0.8-1.4 1.8c-0.6 1.9-9 17.4-11.3 21.1-0.9 1.3-3 5.1-4.8 8.5-5.1 9.5-9.5 17.5-13.7 24.8-2.2 3.6-3.9 6.9-3.9 7.2 0 0.4-1.2 2.5-2.6 4.7-1.4 2.3-4.3 7.3-6.4 11.3-2 3.9-5.4 10-7.5 13.6s-5.8 10.3-8.2 14.9c-5.8 10.9-6.7 12.5-7.3 13.1-0.3 0.3-1.7 2.8-3.1 5.5-1.4 2.8-4.6 8.6-7.1 13s-6.2 11.2-8.3 15c-2.1 3.9-4.8 8.9-6.1 11.3-1.3 2.3-3.5 6.3-4.9 8.8-2.4 4.4-6.9 12.5-10.5 18.9-4.9 8.8-8.1 14.7-11.5 21-2.1 3.9-5.1 9.5-6.8 12.5s-3.7 6.6-4.4 8c-1 2-1.3 18.5-1.3 83.3v80.7h-106z"/>
  <path d="m3689.5 1100.4c-5.3-0.8-15.4-6.3-20.4-10.9-6.8-6.4-11.1-15.6-12.8-27.7-0.5-3.5 1.7-14.2 4-19.7 1-2.5 8.5-12.3 9.8-12.9 0.4-0.2 2-1.4 3.6-2.8 1.5-1.3 3.9-2.7 5.3-3.1 1.4-0.3 3-0.9 3.5-1.3 3.3-2.4 19.3-3.5 26.5-1.7 13.7 3.2 25.4 14.6 29.2 28.3 1.5 5.1 1.5 17.8 0 23-2.9 10.2-11.3 20.3-20.8 24.8-2.1 1-4.7 2.3-5.8 2.8-2 1.1-17.5 1.9-22.1 1.2zm25-7.8c2.8-1.5 6.8-4.7 9-7 3.7-3.9 4.7-5.6 8.6-14 0.9-1.7 1.3-6.3 1.3-12-0.1-7.9-0.5-9.9-2.9-15.1-6.3-13.1-15.9-19.7-30.9-21.2-7.9-0.8-18.7 3.2-25.2 9.4-8.4 8-11.4 15.1-11.4 27.3 0 13.6 4.5 22.6 15 30.2 6.7 4.8 10.7 5.8 21.5 5.5 8.7-0.3 10.7-0.7 15-3.1z"/>
  <path d="m3682 1061.1c0-12.1 0.2-22.6 0.5-23.4 0.8-2 22.5-1.4 27.7 0.7 3.2 1.4 5.6 4.6 5 6.9-0.1 0.4 0.3 0.7 0.8 0.7 1.5 0 1.2 4.9-0.7 9.1-1.3 3-2.7 4.2-6.5 5.8-4.4 1.8-5.9 3.4-4 4.3 0.4 0.2 3 3.9 5.7 8.3s5.4 8.3 5.9 8.7c0.6 0.4-0.3 0.8-2 0.8-2.9 0-3.6-0.8-9.5-10.2l-6.4-10.3h-10l-0.3 10.3-0.3 10.2h-5.9zm21.5-3.5c3.6-0.9 5.6-2.3 7.3-5.4s1.5-4.1-1.4-7.9l-2.5-3.3h-18.9v7.8c0 4.3 0.4 8.2 1 8.8 1.1 1.1 9.8 1.1 14.5 0z"/>
 </g>
</svg>
