<?xml version="1.0" encoding="UTF-8"?>
<svg width="800" height="251.24" version="1.1" viewBox="0 0 800 251.24" xml:space="preserve" xmlns="http://www.w3.org/2000/svg" xmlns:cc="http://creativecommons.org/ns#" xmlns:dc="http://purl.org/dc/elements/1.1/" xmlns:rdf="http://www.w3.org/1999/02/22-rdf-syntax-ns#"><metadata><rdf:RDF><cc:Work rdf:about=""><dc:format>image/svg+xml</dc:format><dc:type rdf:resource="http://purl.org/dc/dcmitype/StillImage"/><dc:title/></cc:Work></rdf:RDF></metadata><g stroke-width="7.8512"> <path d="m285.42 251.24h-285.42l142.71-247.18zm-208.63-44.328h131.85l-65.927-114.19z" fill="#e9ae21"/> <path d="m389.04 251.03c-62.268 0-112.92-50.656-112.92-112.92 0-36.068 17.453-70.253 46.675-91.451l26.035 35.888c-17.767 12.884-28.374 33.658-28.374 55.571 0 37.819 30.761 68.596 68.588 68.596 18.325 0 35.542-7.1368 48.505-20.091 12.955-12.955 20.083-30.18 20.083-48.505 0-21.905-10.607-42.687-28.374-55.571l26.027-35.888c29.23 21.198 46.676 55.39 46.676 91.451 0 30.164-11.745 58.523-33.077 79.847-21.324 21.332-49.683 33.077-79.839 33.077" fill="#42b5ae" Googl="true"/> <rect x="366.88" y="3.1641e-6" width="44.328" height="155.26" fill="#42b5ae"/> </g><g transform="scale(7.8512)"> <path d="m66.506 30.837 6.2-30.837h0.515l11.268 19.445 10.629-19.445h0.536l6.241 30.837h-6.777l-2.534-13.637-8.013 14.728h-0.474l-8.61-14.934-2.616 13.842h-6.365z" fill="#7c59a0"/> </g>            </svg>
