<?xml version="1.0" encoding="UTF-8" standalone="no"?>
<svg xmlns:rdf="http://www.w3.org/1999/02/22-rdf-syntax-ns#" xmlns="http://www.w3.org/2000/svg" height="138.51" width="600" version="1.1" xmlns:cc="http://creativecommons.org/ns#" xmlns:dc="http://purl.org/dc/elements/1.1/" viewBox="0 0 158.75 36.646299">
 <g transform="translate(11.5 -101.77)">
  <path d="m111.75 101.78h-123.25v36.64h123.25v-36.64z"/>
  <path d="m30.467 125.67h-8.185c-0.236 0-0.28-0.09-0.28-0.28v-11.01c0-0.19 0.044-0.28 0.28-0.28h8.185c4.868 0 6.816 1.39 6.816 5.77s-1.948 5.8-6.816 5.8m6.768-14.94h-26.133c-0.232 0-0.348 0.15-0.348 0.35v17.6c0 0.21 0.116 0.35 0.348 0.35h26.133c7.673 0 11.549-2.55 11.549-9.21 0-6.6-3.876-9.09-11.549-9.09" fill="#fff"/>
  <path d="m73.597 120.96h-9.137c-0.208 0-0.28-0.07-0.28-0.28v-6.3c0-0.21 0.072-0.28 0.28-0.28h9.137c3.06 0 4.36 0.83 4.36 3.36 0 2.55-1.3 3.5-4.36 3.5m16.413 7.33-7.557-5.33c-0.188-0.14-0.3-0.22-0.3-0.31s0.068-0.14 0.228-0.14c3.829 0 6.797-1.78 6.797-5.72 0-3.92-2.552-6.05-7.261-6.05h-28.638c-0.232 0-0.348 0.13-0.348 0.34v17.6c0 0.21 0.116 0.35 0.348 0.35h10.541c0.232 0 0.348-0.14 0.348-0.35v-4.17c0-0.21 0.068-0.28 0.276-0.28h6.065c0.304 0 0.42 0.02 0.628 0.19l5.264 4.36c0.256 0.21 0.44 0.25 0.74 0.25h13.101c0.188 0 0.28-0.07 0.28-0.21 0-0.18-0.324-0.39-0.512-0.53" fill="#fff"/>
  <path d="m147.25 138.41h-36.64v-36.64h36.64v36.64z" fill="#ef4123"/>
  <path d="m132.42 110.17c0-0.23-0.11-0.37-0.37-0.37-5.16 0-7.84 0.63-9.81 1.13-0.21 0.06-0.32 0.11-0.32 0.31v4.68c0 0.2 0.05 0.26 0.19 0.26 0.06 0 0.13-0.02 0.27-0.05 0.9-0.21 2.23-0.59 4.13-0.77 0.06 0 0.2 0 0.2 0.22v9.16c0 0.26-0.12 0.36-0.36 0.36h-4.67c-0.25 0-0.37 0.11-0.37 0.37v4.16c0 0.19 0.12 0.33 0.37 0.33h15.35c0.24 0 0.36-0.14 0.36-0.33v-4.16c0-0.26-0.12-0.37-0.36-0.37h-4.25c-0.24 0-0.36-0.1-0.36-0.36v-14.57z" fill="#fff"/>
 </g>
</svg>
