<?xml version="1.0" encoding="UTF-8" standalone="no"?>
<svg xmlns:rdf="http://www.w3.org/1999/02/22-rdf-syntax-ns#" xmlns="http://www.w3.org/2000/svg" height="138.48" width="600" version="1.1" xmlns:cc="http://creativecommons.org/ns#" xmlns:dc="http://purl.org/dc/elements/1.1/" viewBox="0 0 158.75 36.638301">
 <g transform="translate(-88.663 -169.23)">
  <path d="m212.67 169.23h-124.01l0.003 36.64h124.01v-36.64z"/>
  <path d="m130.63 193.12h-8.18c-0.24 0-0.28-0.09-0.28-0.28v-11.01c0-0.18 0.04-0.28 0.28-0.28h8.18c4.87 0 6.82 1.39 6.82 5.78 0 4.38-1.95 5.79-6.82 5.79m6.77-14.93h-26.14c-0.23 0-0.34 0.14-0.34 0.35v17.6c0 0.21 0.11 0.35 0.34 0.35h26.14c7.67 0 11.55-2.55 11.55-9.21 0-6.61-3.88-9.09-11.55-9.09" fill="#fff"/>
  <path d="m173.76 188.42h-9.14c-0.2 0-0.28-0.08-0.28-0.28v-6.31c0-0.21 0.08-0.28 0.28-0.28h9.14c3.06 0 4.36 0.84 4.36 3.37 0 2.54-1.3 3.5-4.36 3.5m16.41 7.32-7.55-5.33c-0.19-0.14-0.3-0.21-0.3-0.3s0.06-0.14 0.22-0.14c3.83 0 6.8-1.79 6.8-5.73 0-3.92-2.55-6.05-7.26-6.05h-28.64c-0.23 0-0.35 0.14-0.35 0.35v17.6c0 0.2 0.12 0.34 0.35 0.34h10.54c0.24 0 0.35-0.14 0.35-0.34v-4.18c0-0.2 0.07-0.27 0.28-0.27h6.06c0.31 0 0.42 0.02 0.63 0.18l5.26 4.36c0.26 0.21 0.44 0.25 0.74 0.25h13.1c0.19 0 0.28-0.06 0.28-0.2 0-0.19-0.32-0.4-0.51-0.54" fill="#fff"/>
  <path d="m247.41 205.87h-36.63v-36.64h36.63v36.64z" fill="#00c0f3"/>
  <path d="m220.87 193.41v3.63c0 0.24 0.13 0.37 0.37 0.37h15.33c0.24 0 0.37-0.13 0.37-0.37v-4.16c0-0.24-0.13-0.36-0.37-0.36h-6.92c-0.14 0-0.18-0.04-0.18-0.09s0.02-0.12 0.1-0.19l2.77-2.31c3.05-2.55 4.29-3.87 4.29-6.94 0-3.01-2.51-5.96-8.1-5.96-3.85 0-6.5 1.3-7.16 1.73-0.1 0.07-0.19 0.13-0.19 0.3v4.61c0 0.18 0.03 0.28 0.17 0.28 0.05 0 0.1-0.02 0.2-0.07 1.1-0.55 3.98-1.81 6.56-1.81 1.78 0 2.76 0.55 2.76 1.65s-0.8 1.78-2.64 3.32l-7.23 6.06c-0.07 0.07-0.13 0.13-0.13 0.31" fill="#fff"/>
 </g>
</svg>
