<svg width="616.69" height="800" version="1.0" viewBox="0 0 493.35 640" xmlns="http://www.w3.org/2000/svg">
 <ellipse cx="247.2" cy="243.17" rx="238.36" ry="236.39" fill="#fff" opacity=".97" stroke="#fff" stroke-width="10.306"/>
 <g transform="matrix(.14033 0 0 -.13854 -34.308 666.18)" fill="#800000">
  <path d="m1855 4805c-5-1-44-8-85-15-168-28-326-62-345-74-11-7-42-21-70-31-305-113-635-381-820-665-216-330-316-717-285-1106 6-82 13-151 15-154 2-4 13-49 24-101 86-411 356-802 733-1062 181-125 400-216 633-262 291-59 674-31 930 67 328 125 579 306 795 574 25 31 75 105 122 179 85 136 188 387 188 459 0 31-6 38-62 74-118 74-273 151-408 202-74 28-148 57-165 65-16 7-67 19-112 26-91 14-101 10-130-44-8-17-53-82-98-146-113-158-144-202-212-301-243-356-377-540-387-530-8 8-12 208-14 645-3 469-7 636-15 643-12 9-198 66-302 92-27 7-77 21-110 32-63 21-78 24-345 82-222 47-382 77-457 85-34 3-64 9-67 12-14 13 385 218 553 284 199 79 503 170 639 191l42 7v71c0 88-18 471-25 545-7 65-7 65 107-19 169-124 395-291 477-351l84-63 106 12c223 23 387 42 409 47 35 8 26 37-25 86-124 118-355 260-548 335-106 42-286 84-420 99-107 12-324 18-350 10z" Googl="true"/>
  <path transform="matrix(5.7007 0 0 -5.7746 244.47 4808.6)" d="m299 0.021484c-8.3491-0.089293-14.77 0.089854-16.48 0.60938-0.87708 0.17317-7.72 1.3854-14.912 2.5977-29.47 4.8489-57.185 10.736-60.518 12.814-1.9296 1.2122-7.3676 3.6374-12.279 5.3691-53.502 19.569-111.39 65.979-143.84 115.16-37.89 57.147-55.432 124.16-49.994 191.53 1.0525 14.2 2.282 26.15 2.6328 26.67 0.35084 0.6927 2.2794 8.4852 4.209 17.49 15.086 71.174 62.45 138.89 128.58 183.91 31.751 21.647 70.167 37.405 111.04 45.371 51.047 10.217 118.23 5.3694 163.14-11.602 57.537-21.647 101.57-52.992 139.46-99.402 4.3854-5.3684 13.156-18.183 21.4-30.998 14.911-23.552 32.979-67.018 32.979-79.486 0-5.3684-1.0516-6.5822-10.875-12.816-20.699-12.815-47.889-26.149-71.57-34.98-12.981-4.8489-25.963-9.8705-28.945-11.256-2.8067-1.2122-11.753-3.2897-19.646-4.502-15.963-2.4244-17.718-1.7322-22.805 7.6191-1.4033 2.944-9.2956 14.2-17.189 25.283-19.822 27.361-25.261 34.981-37.189 52.125-42.626 61.65-66.133 93.515-67.887 91.783-1.4033-1.3854-2.1042-36.02-2.4551-111.7-0.52625-81.218-1.2295-110.14-2.6328-111.35-2.105-1.5586-34.731-11.429-52.975-15.932-4.7363-1.2122-13.508-3.6361-19.297-5.541-11.051-3.6366-13.683-4.1571-60.52-14.201-38.943-8.1392-67.01-13.333-80.166-14.719-5.9642-0.51952-11.226-1.5586-11.752-2.0781-2.4558-2.2513 67.536-37.752 97.006-49.182 34.908-13.681 88.235-29.44 112.09-33.076l7.3672-1.2129v-12.295c0-15.239-3.1568-81.564-4.3848-94.379-1.2279-11.256-1.2281-11.258 18.77 3.2891 29.646 21.474 69.29 50.395 83.674 60.785l14.736 10.91 18.594-2.0781c39.118-3.983 67.887-7.2748 71.746-8.1406 6.1396-1.3854 4.5596-6.4071-4.3867-14.893-21.752-20.434-62.273-45.026-96.129-58.014-18.594-7.2733-50.17-14.545-73.676-17.143-11.731-1.2988-30.999-2.193-44.914-2.3418zm258.92 131.36c-1.0525 0-10.35 16.971-20.699 37.752-10.35 20.781-18.77 38.964-18.77 40.35 0 1.3854 6.1406 11.949 13.684 23.205 27.891 41.908 54.027 90.05 67.184 123.47 8.42 21.647 13.333 8.3122 14.912-40.35 2.105-59.399-8.2459-105.12-34.559-154.99-10.35-19.395-17.717-29.439-21.752-29.439z" stroke-width=".17429"/>
  <path d="m407 1034c-4-4-7-18-7-31 0-22-3-23-75-23-47 0-75-4-75-11 0-20 52-99 65-99 26 0 25-17-5-106-35-102-38-154-12-177 16-14 43-17 169-17 116 0 153-3 162-14 8-9 11-52 9-127l-3-114-52-3c-62-4-65-13-28-72l25-40h78c119 0 116-5 122 197l5 168 173 3 172 2v33c-1 17-7 45-13 61l-13 30-155-3c-177-3-183-1-177 71l3 43h-130l-10-110-84-3c-46-2-90-1-97 2-10 4-6 25 15 88l29 83 326 3c319 2 326 3 326 22 0 12-6 36-14 55l-15 35-283 2c-283 3-283 3-293 26-7 16-18 22-41 22-17 0-44 3-60 6s-32 2-37-2z"/>
  <path d="m1460 1014c-9-24-11-24-141-24h-132l6-32c3-18 10-45 16-60 10-28 11-28 106-28 71 0 97-3 101-14 3-7-13-58-34-112-22-54-70-177-107-272l-67-173-61 3-62 3-14 40c-7 22-21 67-30 100l-16 60-68 3c-59 3-67 1-67-15 0-10 20-81 43-158 34-111 46-140 60-139 9 0 83 1 165 2l147 2 79 198c43 108 83 203 89 210 7 9 55 12 177 12 123 0 170-3 176-12 5-7 8-79 6-160l-3-148h-125c-138 0-136 1-108-70l16-40h148c207 0 193-20 192 276 0 223-1 229-22 246-19 16-45 18-206 18-100 0-185 4-188 9-3 4 5 35 17 67l23 59h380c373 0 379 0 376-20-2-11-19-60-37-110-18-49-60-166-93-260l-60-170-56-3c-62-3-65-8-43-70l12-33h430l430-1 50 131c27 72 53 131 57 131 5 0 8-61 8-136v-135l53 3 52 3 10 380 100 5 99 5 1 145v145l116 3c91 2 119-1 128-12 8-9 11-57 9-152-3-137-3-139-26-142-47-7-55 13-50 125l5 103h-107v-223l-66-126c-36-69-70-130-75-136-5-5-30-8-54-7-43 1-45 0-45-26 1-15 7-40 13-56 12-28 16-30 84-32l71-2 58 104c32 57 62 104 66 104s8-38 8-83c0-115 2-117 158-117 76 0 122 4 122 10s-12 28-26 50c-25 37-29 39-83 42l-56 3v170l53 3 52 3v227c0 190-3 231-16 250-15 21-20 22-208 22-150 0-196-3-212-14-17-13-20-31-24-143l-5-128-54-3c-30-2-58 1-63 6-8 8 34 143 53 168 5 6 6 34 2 62l-6 52h-38c-28 0-42 6-51 20-11 16-24 20-74 20-53 0-62-3-67-20-3-14-14-20-31-20-25 0-26-2-26-55v-55h64c36 0 67-4 70-9 5-8-171-498-195-542-9-18-26-19-255-19-197 0-246 3-250 14-5 14 152 522 169 544 14 18 171 17 186-2 8-9 11-61 9-162l-3-149-97-3c-111-3-118-10-75-73l23-34 109-1c61-1 118 1 128 3 40 10 47 51 47 276v215l-35 31-36 31h-1109l-15 24c-14 21-24 24-81 24-60 0-66-1-74-24z"/>
  <path d="m449 496c-4-11-23-59-42-106l-33-85-62-3c-70-3-74-10-47-76l15-36h177l56 141c32 77 57 150 57 162 0 21-5 23-56 23-48 1-57-2-65-20z"/>
 </g>
</svg>
