<svg width="97.904mm" height="97.885mm" Googl="true" version="1.1" viewBox="0 0 97.904 97.885" xmlns="http://www.w3.org/2000/svg">
 <g transform="translate(-56.922)">
  <path d="m154.81 48.937a48.944 48.937 0 0 1-48.944 48.937 48.944 48.937 0 0 1-48.944-48.937 48.944 48.937 0 0 1 48.944-48.937 48.944 48.937 0 0 1 48.944 48.937z" fill="#fff" opacity=".999" stroke-width=".30958"/>
  <g transform="matrix(3.2,0,0,3.2,369.51,-416.43)">
   <g transform="matrix(.20791 0 0 .20791 -115.47 130.14)" fill="#092e6e">
    <path class="dreamworks-path-a" d="m156.44 100.72c-0.2-0.57-0.88-2.14-1.48-3.53-0.24 1.33-0.91 5-0.91 5.93a2.59 2.59 0 0 1 0 0.35c-0.1 0.75-0.84 0.82-1.42 0.94-0.27 0.06-0.86 0.09-1.13 0.12h-0.05c-0.16 0.36-0.31 0.73-0.44 1.11-0.65 1.89-1.61 3.84-0.93 5.75a63 63 0 0 1 8.57-5.61 26 26 0 0 1-1.27-2.63c-0.33-0.8-0.63-1.61-0.91-2.42"/>
    <path class="dreamworks-path-a" d="m131.36 71.44a78.13 78.13 0 0 1 6.35 9.5v-0.08a0.67 0.67 0 0 1 0.43-0.56 0.44 0.44 0 0 1 0.48 0.25c0.15 0.24 0.26 0.49 0.43 0.71a1.71 1.71 0 0 0 0.75 0.69c0.32 0.11 0.74 0.22 1.07 0.32l0.87 0.26a3 3 0 0 1 1.49 0.86 9.5 9.5 0 0 0 0.65 0.82 5.4 5.4 0 0 0 1 0.7 11.14 11.14 0 0 0 5.53 1.34 4.72 4.72 0 0 1 4.44-2.5 4.9 4.9 0 0 1 3.54 1.73 14.59 14.59 0 0 0 7.48-4.37c0.31-0.31 0.73-0.76 1.23-1.2l-1.1-1.46h-1.73a3.93 3.93 0 0 1-1.55-0.32 1.44 1.44 0 0 1-0.85-1v-0.75c0-0.24-0.41-0.32-0.53-0.49a0.52 0.52 0 0 1 0-0.52s0.18-0.24 0.21-0.22l-0.07-0.06c-0.21-0.16-0.44-0.31-0.36-0.62s0.46-0.34 0.26-0.65a1.57 1.57 0 0 0-0.28-0.29 1.38 1.38 0 0 1-0.61-0.79c0-0.51 0.86-1.09 1.33-1.54a1.16 1.16 0 0 0 0.42-1 14 14 0 0 1-0.24-1.4v-0.74a1.54 1.54 0 0 1-1.15 0.66 2.63 2.63 0 0 0 0.59-2.12 2.53 2.53 0 0 1 0.87-1.87c-0.8-0.41-1.24 0.49-1.27 0.47a2.19 2.19 0 0 1 2.49-2.13 2.29 2.29 0 0 1-1.07-1.85 2.26 2.26 0 0 0 1 0.74 5.41 5.41 0 0 0 1.4 0.28 5.93 5.93 0 0 0 1.43-0.15c0.64-0.12 1.27-0.26 1.91-0.39a6.07 6.07 0 0 1 5.56 0.77 1.4 1.4 0 0 1-0.27-1.18c0.14 0.39 0.43 0.55 0.75 0.91a26.27 26.27 0 0 0 2.35 1.71 4.38 4.38 0 0 1 1.21 2 1.55 1.55 0 0 1 1.79 1.09c-1-0.63-0.84 1.28-0.83 1.72a10.06 10.06 0 0 1-0.17 2.53 7.22 7.22 0 0 1-3.5 4.49 2.22 2.22 0 0 0-1 0.87 0.54 0.54 0 0 0 0 0.31 2.46 2.46 0 0 1 0.57-0.22c0.44-0.12 1.57-0.39 1.73 0.27a7.56 7.56 0 0 0 0.4 1.41c0.12 0.15 0.47 0.43 0.81 0.84a8.89 8.89 0 0 1 0.59 0.68 12.31 12.31 0 0 1 1.29 2 18.3 18.3 0 0 1 1.25 3.2 27.67 27.67 0 0 1 0.9 4.56c0.14 1.18 0.23 2.37 0.25 3.56v1.61a47.81 47.81 0 0 0 7.29-10.67 52.89 52.89 0 0 0 5.34-23.08c0.23-30.57-23.22-57.88-60.5-51.29a59 59 0 0 0-19.27 7.21 50.69 50.69 0 0 0-16.15 14.76 73.61 73.61 0 0 0-5.73 9.85 118.13 118.13 0 0 1 19.21 11.39 96.5 96.5 0 0 1 19.29 18.45"/>
    <path class="dreamworks-path-a" d="m142.3 88.63h-0.8q0.44 1.05 0.85 2.12a0.78 0.78 0 0 1 0.32-0.46 1.47 1.47 0 0 1 1.62 0.28 5.85 5.85 0 0 0 4.22 1.06c0.16-0.58 0.31-1.17 0.47-1.75-0.69-0.2-1.38-0.41-2.07-0.64a13.82 13.82 0 0 0-2.43-0.66 11.77 11.77 0 0 0-2.18 0"/>
    <path class="dreamworks-path-a" d="m159.11 147.09a73.55 73.55 0 1 0-43-133.19s0.13 0.1 0.46-0.11a69 69 0 0 1 10.82-5.45q1.68-0.7 3.4-1.31a68.81 68.81 0 0 1 34.84-3.1 63.6 63.6 0 0 1 13.28 3.85c12.47 5.14 23.51 14.23 30 26.17 7.07 13.06 9.4 29.09 5.57 43.51a58.41 58.41 0 0 1-12.34 23 65 65 0 0 1-21.43 16.24 63.93 63.93 0 0 1-26.84 6.12 23.17 23.17 0 0 0-0.75 2.45c-0.07 0.23-0.09 0.47-0.17 0.7-0.23 0.62-0.93 0.53-1.48 0.52-0.26 0-0.7-0.05-1-0.08a12 12 0 0 0-1.68 2.51v0.09c-0.7 1.52-1.13 2.43-0.62 3.71a3 3 0 0 1 0.17 1.42 1.81 1.81 0 0 1-0.54 1.26 2.09 2.09 0 0 1-1.37 0.3 7 7 0 0 0-2.83 0.5 32.78 32.78 0 0 1-3.33 1.58 4.17 4.17 0 0 1-3.46-0.05c-0.18-0.11-0.34-0.26-0.53-0.35a1.82 1.82 0 0 0-0.54-0.11 1.52 1.52 0 0 1-1.31-0.84 1.08 1.08 0 0 1 0.11-0.9c0.17-0.3 0.47-0.31 0.79-0.27a4.87 4.87 0 0 0 0.68 0.08 3.07 3.07 0 0 0 1.19-0.26 7.13 7.13 0 0 0 2-1.39c0.54-0.5 1.25-1.11 1.88-1.64s1-0.85 1.3-1.13a12.68 12.68 0 0 0 2.44-3.12 18.72 18.72 0 0 0 1.07-2.81l-0.36-0.24c-0.44-0.33-1-0.69-0.84-1.33 0.13-0.39 0.31-0.77 0.48-1.15-15.08-2-24-8.67-23.93-8.66a58.4 58.4 0 0 0 15.24 1.49 1.21 1.21 0 0 1-0.26-0.36 1.25 1.25 0 0 1-0.11-0.59 0.76 0.76 0 0 1 0.25-0.57 0.42 0.42 0 0 1 0.12-0.07 0.63 0.63 0 0 1 0.3 0 6.83 6.83 0 0 0 1.43 0.07 7.17 7.17 0 0 0 1-0.15l0.52-0.13 0.83-0.26a4 4 0 0 0 0.76-0.4 9.75 9.75 0 0 0 1.73-1.31 12.71 12.71 0 0 0 2.38-2.71c0-0.06 0.09-0.18 0.13-0.28a29 29 0 0 0 1.22-4.39l0.17-0.89-0.09-0.05c-0.57-0.36-1.22-0.86-1-1.67 0.17-0.52 0.26-0.55 0.45-1.06s0.44-1.51 0.64-2.29l0.7-2.74a3.36 3.36 0 0 0-1 0.25c-0.8 0.35-1.5 0.85-2.29 1.23 0.19 0.68 0.38 1.37 0.55 2.06a1 1 0 0 1-0.12 0.8 1.08 1.08 0 0 1-0.67 0.49h-0.25a1.08 1.08 0 0 1-1-0.81c-0.21-0.85-0.45-1.7-0.7-2.55a1.71 1.71 0 0 1-0.31-0.35 1.15 1.15 0 0 1-1.24-0.91 1.33 1.33 0 0 1-0.85-1.37c-0.3-0.05-0.48-0.35-0.6-0.65-0.32-0.8 0.4-1.4 1-1.64a1.4 1.4 0 0 1 0.3-0.07q-0.59-1.56-1.26-3.1c-0.83-0.22-0.91-0.7-0.9-0.68-0.74 0-1-0.86-0.95-0.9-1-0.08-1-1.33-1-1.33a0.88 0.88 0 0 1-0.66-0.94c0-0.25 0.28-0.46 0.62-0.63a5.05 5.05 0 0 1 0.65-0.26 75.44 75.44 0 0 0-7.22-11.15 99.28 99.28 0 0 0-18.7-18.33 100 100 0 0 0-18.9-11.31 73 73 0 0 0-6.58 29.65q0 0.4 0 0.8a73.55 73.55 0 0 0 73.55 73.55"/>
    <path class="dreamworks-path-a" d="m167.19 90.67a33.54 33.54 0 0 1-4.08 1.25c1.46 2 3 4 4.5 5.94l1 1.1a24.61 24.61 0 0 0 0.24-2.75 9.53 9.53 0 0 0-1.61-5.49v-0.05"/>
   </g>
  </g>
 </g>
</svg>
