<svg version="1.1" viewBox="0 0 800 800" xmlns="http://www.w3.org/2000/svg">
 <defs>
  <style>.cls-1{fill:#8400e0;}.cls-2{fill:#007fff;}.cls-3{fill:#00fefe;}.cls-4{fill:#7bff1f;}.cls-5{fill:#ff0;}.cls-6{fill:#ff8000;}.cls-7{fill:#e50000;}.cls-8{fill:#fff;}</style>
 </defs>
 <g id="BG">
  <path class="cls-1" d="m0 0h114.29v560h-114.29z" fill="#8400e0"/>
  <path class="cls-2" d="m114.29 0h114.29v560h-114.29z" fill="#007fff"/>
  <path class="cls-3" d="m228.57 0h114.29v560h-114.29z" fill="#00fefe"/>
  <path class="cls-4" d="m342.86 0h114.29v560h-114.29z" fill="#7bff1f"/>
  <path class="cls-5" d="m457.14 0h114.29v560h-114.29z" fill="#ff0"/>
  <path class="cls-6" d="m571.43 0h114.29v560h-114.29z" fill="#ff8000"/>
  <path class="cls-7" d="m685.71 0h114.29v560h-114.29z" fill="#e50000"/>
 </g>
 <g id="Koncernlogo">
  <path d="m0 560h800v240h-800z"/>
  <path class="cls-8" d="m319.27 618.67h-171.2a2.07 2.07 0 0 0-2.28 2.27v115.3a2.09 2.09 0 0 0 2.28 2.29h171.2c50.29 0 75.67-16.71 75.67-60.31 0-43.3-25.38-59.55-75.67-59.55zm-44.33 97.83h-53.63c-1.52 0-1.83-0.61-1.83-1.83v-72.16c0-1.2 0.31-1.82 1.83-1.82h53.63c31.89 0 44.66 9.11 44.66 37.83s-12.77 37.98-44.66 37.98z"/>
  <path class="cls-8" d="m665 733.67-49.52-34.94c-1.22-0.92-2-1.37-2-2s0.46-0.92 1.53-0.92c25 0 44.5-11.69 44.5-37.51s-16.65-39.63-47.51-39.63h-187.6a2.06 2.06 0 0 0-2.27 2.27v115.3a2.08 2.08 0 0 0 2.27 2.29h69a2.08 2.08 0 0 0 2.28-2.29v-27.34c0-1.37 0.46-1.82 1.83-1.82h39.73c2 0 2.73 0.15 4.1 1.22l34.49 28.56a6.6 6.6 0 0 0 4.85 1.67h85.84q1.83 0 1.83-1.38c0.04-1.21-2.09-2.57-3.35-3.48zm-107.54-48h-59.81c-1.37 0-1.83-0.46-1.83-1.82v-41.34c0-1.36 0.46-1.82 1.83-1.82h59.85c20.06 0 28.56 5.48 28.56 22 0 16.74-8.5 22.97-28.56 22.97z"/>
 </g>
 <g id="Ramasjang">
  <path d="m665.25 310.82c-2.58-5.48-5.67-15.49-30.06-2.79 1.36-8.68-0.51-37.7-25.82-44.93 6-26.14 10.65-44.63 12.81-54.65 2.69-12.39 2.27-13.84-1.86-21.17-15-26.65-26.2-38.5-34.36-38.5-7.75 0-17 6.24-50.54 28-9.1-37.4-9.3-51.76-20.87-51.76-8.25 0-17.87 7.34-42.86 23.35-12.3-25.62-17.46-40.19-26.55-40.19-9.4 0-14.88 9-43.59 41.64-3.51-22.11-2-21.49-7.64-27.69-6.82-7.43-29.24-21.48-41.53-21.48-10.25 0-20.15 18.2-40.85 51.62-6.93-27.27-32.53-43.76-70.9-44.5-26.08-0.51-57.81 9.38-79.3 20.2a1.09 1.09 0 0 1-0.27 0.11c-1.22 0.62-2.4 1.27-3.55 1.88-0.63 0.35-1.22 0.66-1.81 1s-1 0.59-1.57 0.89c-1.21 0.69-2.39 1.4-3.49 2.11s-2.07 1.33-3 2a2.74 2.74 0 0 0-0.39 0.24c-9.36 6.5-14.75 13.3-9 25.56l43.29 93.62c-11.05 7.65-18.47 18.54-18.47 34.39 0 7.86 1.85 17.67 6.4 29.86-22.94 3.92-48.65 22.51-48.65 62.28 0 45.24 31.61 85.22 84.49 85.22 23.87 0 42.56-11.57 42.56-11.57s14.76 21.07 46.48 21.07c23.45 0 44.94-12.19 53-33.67 11.57 2.38 15.39 3.31 20.66 3.31 6.4 0 9-3 11.15-11.68a244.34 244.34 0 0 0 5.17-29.43l18.28 17c6.3 5.89 9.4 6.6 13.22 6.6 4.65 0 15.28-7.53 28.2-22 14.15 19.31 21.38 31 30.27 31 7.74 0 26.44-11.05 42.46-23 0 0 25.81 29.75 65.78 29.75 53.4 0 91.31-38.22 91.31-89.55-0.03-21.62-5.85-38.15-8.6-44.14z"/>
  <path class="cls-8" d="m649.55 357.61-32.64-30.61c-2.17-1.95-3.61-1.34-5.06 0.11-6.4 6.4-10.44 9.92-18.39 19-1.34 1.55-1.43 2.9 0 4.75l9.93 12.14c-4.75 7.75-13.75 12.29-23.87 12.29-18.28 0-31.51-14.35-31.51-33.88 0-15.08 9.4-25.72 22-25.72 5.58 0 10.44 2.79 13.23 4.86 1.54 1 2.89 1.24 4.34-1.24l16.42-27.31a2.8 2.8 0 0 0-1.36-4.44 61.7 61.7 0 0 0-21.89-4.86l9.25-74.35a5.64 5.64 0 0 0-1.14-4.86c-7.63-10.42-19.66-20.12-24-23.42a4.76 4.76 0 0 0-2.89-1.24 5.26 5.26 0 0 0-3.2 1.44l-52.37 43.37 4.43-45.45a6.68 6.68 0 0 0-1.35-5.37 69 69 0 0 0-9.59-10.44 2.68 2.68 0 0 0-3.83 0.21c-4.65 4.65-17.25 19.21-31.61 34.19l-12.81-55.88c-0.41-1.65-1.64-2.17-3.3-1.86-4.64 0.83-14 2.68-18.6 4a4.5 4.5 0 0 0-3.6 3.2c-4.77 11.37-18.09 50.72-28.1 78.5l-18.04-78.68c-0.72-3-1.66-3.4-3.51-4.13a105.89 105.89 0 0 0-28.1-6.61 3.2 3.2 0 0 0-3.61 2l-44.92 87.1c-9.76-5.64-23-12.91-23-12.91a49.29 49.29 0 0 0 12.53-31.51 38.12 38.12 0 0 0-13.13-29.4 14.61 14.61 0 0 0-1.48-1.2c-0.85-0.68-1.77-1.32-2.73-2a41.57 41.57 0 0 0-13.66-5.71c-0.63-0.15-1.29-0.26-1.91-0.37a44.89 44.89 0 0 0-8.41-0.86c-21.63-0.32-52.41 13.38-71.77 27.75-1.79 1.32-2 2.35-1.22 4.76 9.2 23.42 29.26 70.39 40.83 97.36 0.94 2.13 1.79 4.14 2.62 6 0.09 0.23 0.19 0.45 0.29 0.68-16.7 6.24-25.62 20.34-25.51 35.35 0.21 32.84 35.85 56.39 35.85 78.5 0 8-5.49 12.6-13.13 12.6-10.12 0-17.25-9.5-17.25-22.11a38.43 38.43 0 0 1 3-14.56 2.62 2.62 0 0 0-1.25-3.51c-6.51-3.51-25.2-14.46-32.94-18.38-1.66-0.83-3.32-0.93-4.35 1.64-2.17 5.58-6.81 17.88-6.81 32.44 0 34.61 23 64 62.69 64 18.18 0 38.42-9.19 44.31-33 4.66 16.84 16.32 32.13 37.29 32.13 21.28 0 36.26-11.68 39-40.19l28.81 3.93c1.55 0.21 2.38-0.42 2.38-2l-0.19-31.05c5-1.86 10.87-4 21.69-7l11.14 28.66a2.14 2.14 0 0 0 2.9 1.14c12.19-3.61 20.13-5.92 24.38-7.57 1.54-0.63 1-2.17 0.71-2.79-1.65-3.41-3.41-6.71-5.06-10l24 5.68a1.69 1.69 0 0 0 2.07-1.86l-0.42-53.71c4.34 13.84 19.11 60.22 25.83 82.22a1.84 1.84 0 0 0 2.58 1.13 241 241 0 0 0 24.18-9.39 4 4 0 0 0 2.77-3.61l6.21-43.08c1.86 38.73 29.74 61.56 59.28 61.56 35 0 45.45-32.94 45.45-32.94l10.22 13.52c1 1.45 2.81 2.18 4-0.1l17.57-32.64a3.44 3.44 0 0 0-0.67-4.41zm-84.45-154.92-12 42.1-18.78-10.51zm-208.49-39.69 3.88 49.71-21.7-2.32zm-140.91 13.25c5.65-2.93 13.35-6.27 21.54-6.23a21.82 21.82 0 0 1 6.76 1.07c0.05 0 0.1 0.07 0.14 0.06a6.89 6.89 0 0 1 1.48 0.58 14.65 14.65 0 0 1 4.76 3.13 15.6 15.6 0 0 1 4.77 11.95c-0.29 13.51-17 23.13-20 25.23zm154.3 182.81 0.82-47.22 16.3 40.88zm-112.23-106.8-15-26.19 0.25 0.21 24.62 19.72 20.94 16.74 28.6 22.85a2.52 2.52 0 0 0 1.24 0.63 0.48 0.48 0 0 0 0.29 0.06 1.93 1.93 0 0 0 1.81-1c9.42-13.63 18.16-35 18.16-35a3 3 0 0 0-1.2-3.77l-9.48-5.51 6.4-16.07 27.69 7.85 4.43 31.5c0.42 2.79 1.56 2.89 3.51 3.1a319.44 319.44 0 0 0 34.97 2.33c2.07 0 3.42-0.31 2.69-3.41l-3-13c10.22 1.55 19.11 2.48 25 2.79 1.76 0.1 3-0.42 3.42-2.79l9.76-59.3 7.95 47.1c0.31 1.85 2.07 2.57 3.41 1l25.2-31.2c0.1 0-1.34 2.69-8.89 42.87-0.3 1.65-0.1 3 1.45 3.93 5.07 3 19.73 9.91 26.65 12.8 1.55 0.62 3.2 0.52 3.41-2.06l1.24-13.22c1.13 0.82 4.93 3 5.77 3.53 1 0.72 2.36 1.24 3.71-0.31l13.4-14.69 23.52 11.25-7.59 24.76c-0.72 2.17 0.17 2.88 1.13 3.41a43.82 43.82 0 0 0 8.61 4.13c-14.15 5.37-26.85 15.91-33.47 33.05l2.57-17.66c0.43-2.79-0.92-3.21-3.19-3.21l-27.06 0.52c-2.07 0-2.79 0.82-2.79 3.1l-1.13 51.86-21-66a2.88 2.88 0 0 0-3.21-2.17 230.17 230.17 0 0 0-27.16 3.72c-2.07 0.41-2.49 1.35-2.89 2.89-3 11.26-10.44 42.76-15.6 62.81-11.37-22.41-22.52-44.63-33.16-67.25-0.82-1.76-2.17-2-4-1.34-7 2.37-21 7.22-28.72 10.12-1.65 0.62-2 1.34-2.18 2.89-1.54 11.37-6.6 61.25-8.67 87.4-0.51-16.43-4.23-37-11.67-62.3-0.31-1.14-1.65-2-3.41-1l-27.37 14.87c-2.07 1.14-1.76 2.79-1.24 4 5.16 12.09 13.53 36.67 13.53 51.86 0 7.64-2 12.9-7.43 12.9-6 0-8.37-9-8.17-19.1 0.11-3-0.72-4.14-3.51-3.62-7 1.34-18.7 3.52-25.92 5.27-2.59-32.43-33.89-49.59-33.89-71.37 0-5.69 3.83-10.13 11.37-10.13 6 0 9.81 4.54 12.09 10.54 3.5 9 4.33 21.48 4.64 26.33 0.1 1.76 1 2.39 3 1.76l25.31-7.54c2.06-0.61 2.48-1.75 2.48-3.5 0.4-25.1-9.71-48.79-29.52-58.68l7.46-3.3a1.88 1.88 0 0 0 1.31-2.42z" Googl="true"/>
 </g>
</svg>
