<svg width="800" height="578.94" version="1.1" viewBox="11 8 80 57.894" xmlns="http://www.w3.org/2000/svg">
 <path d="m19.172 48-6.5704 12.358v5.5362h-1.6017v-5.5362l6.5704-12.358z" fill="#850000"/>
 <path d="m39.625 53.02v7.8248h-1.3861v-5.4885l-2.3698 2.8728h-1.0062l-2.3698-2.8728v5.4885h-1.3752v-7.8248h1.1292l3.1296 3.834 3.1186-3.834h1.1292z" fill="#850000"/>
 <path d="m48.252 59h-1.0617v1.8444h-1.4641v-1.8444h-4.9741v-1.1627l2.551-4.8176h1.688l-2.4951 4.7057h3.2306v-1.3379h1.4641v1.3379h1.2522l-0.19002 1.2742z" fill="#850000"/>
 <path d="m26.442 52.24 0.70378-1.209-0.91301-0.52716-0.80941 1.3898c-0.36656-0.08307-0.7474-0.12844-1.1388-0.12844-2.8433 0-5.1567 2.3134-5.1567 5.1563 0 2.0565 1.2099 3.8348 2.9553 4.6621l-0.72088 1.2576 0.9131 0.52716 0.81902-1.4301c0.38215 0.09083 0.78043 0.13989 1.1897 0.13989 2.8433 0 5.1567-2.3134 5.1567-5.1571 0-2.073-1.2305-3.8633-2.9993-4.6814zm-6.2373 4.6814c0-1.6183 0.94746-3.0195 2.3161-3.6784l-1.9573 3.3701 0.91301 0.52716 2.4851-4.2845c0.10686-0.0083 0.21425-0.01374 0.32295-0.01374 0.19134 0 0.37942 0.01418 0.56389 0.03991l-3.7977 6.5236c-0.52998-0.68873-0.84606-1.5495-0.84606-2.4837zm1.6196 3.2526 4.0739-6.9994c0.26886 0.11602 0.52214 0.26058 0.75752 0.42946l-4.0349 7.042c-0.28402-0.12756-0.55103-0.28587-0.79655-0.4721zm4.1506 0.46021 2.0647-3.5499v-0.0069l-0.91028-0.52544-2.5786 4.4405c-0.08809 0.0055-0.17663 0.0097-0.26614 0.0097-0.21284 0-0.42162-0.01656-0.62582-0.04819l3.7862-6.6098c0.57446 0.70291 0.91997 1.6003 0.91997 2.5772 0 1.6476-0.9819 3.069-2.3905 3.7128z" fill="#850000"/>
 <path d="m55.87 48-9.5142 17.894h35.129l9.5142-17.894zm20.309 5.0078h0.73917v1.4787h2.189v0.90712h-2.189v2.5037c0 0.89701 0.43402 1.1733 1.3117 1.1733h1.1731v3.98e-4l-0.13805 0.89702h-1.1339c-1.5971 0-2.2575-0.59137-2.2575-2.1294v-2.4451h-0.838l0.14795-0.90712h0.72927zm5.7528 0.65548h1.0525v2.347h2.333v1.024h-2.333v2.3328h-1.0525v-2.3328h-2.3326v-1.024h2.3326zm-14.655 0.72499c1.9422 0 2.938 0.94657 2.938 2.8099 0 1.8633-1.0058 2.8095-2.938 2.8095-1.9318 0-2.9475-0.94665-2.9475-2.8095 0-1.8633 1.0059-2.8099 2.9475-2.8099zm-5.7475 5.87e-4c1.538 0 2.366 0.98607 2.366 2.8489 0 1.8334-0.83792 2.7703-2.9275 2.7703-0.58184 0-1.0749-0.08857-1.5675-0.24639v1.9224h-1.0456v-7.1965h0.87741l0.12795 0.88731c0.55207-0.69008 1.2423-0.98594 2.1692-0.98594zm12.422 0.04951h0.68014l0.14795 0.92634h-0.97604c-0.89711 0-1.4299 0.41381-1.8241 1.1236v3.4211h-1.045v-5.4219h0.87722l0.13805 0.90712c0.50291-0.68044 1.134-0.95624 2.0018-0.95624zm-19.283 0.04853h2.6025l0.11844 0.8875h-2.7507c-0.56204 0-0.79839 0.18713-0.79839 0.54229 0 0.37487 0.25641 0.56205 0.82809 0.65063l1.3706 0.19727c1.1338 0.16746 1.6958 0.61112 1.6958 1.5871 0 0.9759-0.68034 1.5577-1.9123 1.5577h-2.9576l-0.11844-0.8873h3.066c0.56209 0 0.87722-0.21701 0.87722-0.65063 0-0.43357-0.2661-0.6213-0.90712-0.71995l-1.3013-0.19727c-1.0548-0.15782-1.6463-0.62124-1.6463-1.5476 0-0.92637 0.62122-1.4197 1.8335-1.4197zm12.609 0.82829c-1.2521 0-1.8727 0.60144-1.8727 1.883 0 1.2815 0.61115 1.8832 1.8727 1.8832 1.262 0 1.8637-0.60168 1.8637-1.8832 0-1.2815-0.61167-1.883-1.8637-1.883zm-6.0533 0.0101c-0.84795 0-1.4194 0.45323-1.8236 1.1236v2.4056c0.54214 0.16751 1.1235 0.23668 1.617 0.23668 1.2322 0 1.8041-0.6308 1.8041-1.883 0-1.1929-0.44379-1.883-1.5976-1.883zm-40.483-7.3253-6.5708 12.358v5.5363h32.186l9.5142-17.894zm0.46718 0.99999h33.128l-8.447 15.894h-30.719v-4.5363z" fill="#850000" stroke-width=".1"/>
 <path d="m23.126 22.584c-1.346 5e-3 -2.5837 0.10583-3.712 0.26709-2.2566 0.32756-4.0763 0.9222-5.4682 1.6176-1.3924 0.69543-2.3609 1.4463-2.946 2.3635l2.3182 1.4765c0.13556-0.21165 0.768-0.83654 1.859-1.3808 1.091-0.54929 2.6365-1.0683 4.6311-1.3556 3.9882-0.57953 9.7789-0.23685 17.404 2.565 15.942 5.8608 24.418 2.0359 27.064-1.3757l-2.177-1.6831c-1.3611 1.7587-8.6733 6.0926-23.939 0.47874-5.9848-2.1972-10.997-2.9883-15.034-2.9732z" color="#000000" color-rendering="auto" fill="#3190ce" image-rendering="auto" shape-rendering="auto" solid-color="#000000" stroke-width=".37795" style="font-feature-settings:normal;font-variant-alternates:normal;font-variant-caps:normal;font-variant-ligatures:normal;font-variant-numeric:normal;font-variant-position:normal;isolation:auto;mix-blend-mode:normal;shape-padding:0;text-decoration-color:#000000;text-decoration-line:none;text-decoration-style:solid;text-indent:0;text-transform:none;white-space:normal"/>
 <path d="m37.62 8c-10.444 0-18.94 8.4964-18.937 18.943 0 10.442 8.4949 18.933 18.937 18.933 10.442 0 18.935-8.4918 18.935-18.933 5e-3 -10.447-8.4908-18.943-18.935-18.943zm0 2.7465c8.9585 0 16.188 7.2365 16.188 16.191v5e-3c0 8.955-7.2315 16.187-16.188 16.187-8.957 0-16.188-7.232-16.188-16.187v-5e-3c-2e-3 -8.955 7.23-16.191 16.188-16.191z" color="#000000" color-rendering="auto" image-rendering="auto" shape-rendering="auto" solid-color="#000000" stroke-width=".37795" style="font-feature-settings:normal;font-variant-alternates:normal;font-variant-caps:normal;font-variant-ligatures:normal;font-variant-numeric:normal;font-variant-position:normal;isolation:auto;mix-blend-mode:normal;shape-padding:0;text-decoration-color:#000000;text-decoration-line:none;text-decoration-style:solid;text-indent:0;text-transform:none;white-space:normal"/>
 <g transform="translate(35.8 46.8)" stroke-width=".37795">
  <path transform="translate(-35.8,-46.8)" d="m87.79 21.853 0.86677 2.2929h-1.7184zm-0.655-1.4362-2.4542 6.1732h1.3455l0.51906-1.406h2.5197l0.55433 1.406h1.3808l-2.5247-6.1732z"/>
  <path transform="translate(-35.8,-46.8)" d="m68.046 21.566h0.69543c1.3959 0 1.8998 0.98772 1.9049 1.9502 5e-3 1.3556-0.76598 1.9452-1.92 1.9452h-0.68031zm-1.4868-1.149v6.1732h2.1921c1.8444 0 3.4016-0.85669 3.3814-3.1043-0.02016-1.9452-1.0935-3.069-3.5578-3.069z"/>
  <path transform="translate(-35.8,-46.8)" d="m78.921 20.417v6.1732h1.0784v-4.5153l3.2403 4.5153h1.1439v-6.1732h-1.1137v3.8753l-2.7717-3.8753z"/>
  <path transform="translate(-35.8,-46.8)" d="m72.833 20.417v3.2907c0 0.69039 0.04031 1.2145 0.13102 1.5672 0.05543 0.23685 0.18142 0.46866 0.36787 0.68535 0.18646 0.21669 0.43842 0.39307 0.76094 0.52913s0.79622 0.20661 1.4161 0.20661c0.51906 0 0.93228-0.06551 1.2548-0.18646 0.31748-0.12598 0.57449-0.29732 0.76598-0.50898 0.1915-0.20661 0.32252-0.46866 0.39307-0.77102 0.07055-0.3074 0.10583-0.8315 0.10583-1.5723v-3.2403h-1.3153v3.4117c0 0.48882-0.02016 0.83654-0.06047 1.0482-0.03528 0.21165-0.15118 0.39307-0.33764 0.53921-0.1915 0.1411-0.4737 0.21165-0.84661 0.21165-0.36787 0-0.66016-0.07559-0.87181-0.22677-0.21165-0.15622-0.34268-0.3578-0.39811-0.60976-0.03024-0.15622-0.05039-0.4989-0.05039-1.0331v-3.3411z"/>
  <path d="m32.115-13.784h0.85669l0.74079-2.9883 0.74079 2.9883h0.9726l1.1843-4.4145h-0.93732l-0.73575 3.2101-0.79118-3.2202h-0.85165l-0.79118 3.2202-0.73575-3.2101h-0.95748l1.1843 4.4145"/>
  <path d="m38.883-13.739c1.3506 0 2.3332-1.023 2.3332-2.2677v-0.01008c0-1.2498-0.9726-2.2526-2.3231-2.2526s-2.3332 1.018-2.3332 2.2627v0.01512c0 1.2447 0.96756 2.2526 2.3232 2.2526m0.01008-0.89197c-0.77606 0-1.3254-0.62488-1.3254-1.3757v-0.01008c0-0.75087 0.53921-1.3657 1.3153-1.3657s1.3254 0.62488 1.3254 1.3757v0.01512c0 0.75087-0.53921 1.3606-1.3153 1.3606"/>
  <path d="m41.448-13.815h0.96252v-1.406h0.76094l0.93732 1.406h1.1238l-1.0683-1.5672c0.55937-0.20661 0.93732-0.65008 0.93732-1.3556v-0.01512c0-0.41323-0.13102-0.7559-0.37291-0.9978-0.28724-0.29228-0.72063-0.4485-1.275-0.4485h-2.0057v4.3843m0.96252-2.2526v-1.2598h0.95748c0.4737 0 0.76094 0.21165 0.76094 0.62488v0.01512c0 0.36787-0.27213 0.61984-0.74079 0.61984h-0.97764"/>
  <path d="m45.348-13.815h3.1496v-0.87685h-2.182v-3.5074h-0.96756v4.3843"/>
  <path d="m48.81-18.199v4.3843h1.5572c1.3052 0 2.4139-0.60976 2.3937-2.2022-0.01008-1.3808-0.77606-2.182-2.5247-2.182zm1.0532 0.82142h0.49386c0.99276 0 1.3506 0.70047 1.3506 1.3808 5e-3 0.96252-0.54425 1.3808-1.3606 1.3808h-0.48378z"/>
 </g>
 <path d="m22.944 17.54c-4.416 0.09575-8.1285 1.0885-10.852 2.6406l1.3592 2.3887c4.428-2.5197 13.142-3.5679 23.617 0.3074l0.95345-2.5802c-5.5398-2.051-10.661-2.8523-15.077-2.7565z" color="#000000" color-rendering="auto" fill="#3190ce" image-rendering="auto" shape-rendering="auto" solid-color="#000000" stroke-width=".37795" style="font-feature-settings:normal;font-variant-alternates:normal;font-variant-caps:normal;font-variant-ligatures:normal;font-variant-numeric:normal;font-variant-position:normal;isolation:auto;mix-blend-mode:normal;shape-padding:0;text-decoration-color:#000000;text-decoration-line:none;text-decoration-style:solid;text-indent:0;text-transform:none;white-space:normal"/>
 <path d="m38.154 30.682-0.95395 2.5802c11.08 4.102 20.479 3.2151 25.927 0.11591l-1.3556-2.3887c-4.4301 2.5197-13.143 3.5729-23.618-0.3074z" color="#000000" color-rendering="auto" fill="#3190ce" image-rendering="auto" shape-rendering="auto" solid-color="#000000" stroke-width=".37795" style="font-feature-settings:normal;font-variant-alternates:normal;font-variant-caps:normal;font-variant-ligatures:normal;font-variant-numeric:normal;font-variant-position:normal;isolation:auto;mix-blend-mode:normal;shape-padding:0;text-decoration-color:#000000;text-decoration-line:none;text-decoration-style:solid;text-indent:0;text-transform:none;white-space:normal"/>
</svg>
