<?xml version="1.0" encoding="UTF-8" standalone="no"?>
<!-- Created with Inkscape (http://www.inkscape.org/) -->
<svg xmlns:rdf="http://www.w3.org/1999/02/22-rdf-syntax-ns#" xmlns="http://www.w3.org/2000/svg" height="591.38" width="600" version="1.1" xmlns:cc="http://creativecommons.org/ns#" xmlns:dc="http://purl.org/dc/elements/1.1/">
 <defs></defs>
 <metadata>
  <rdf:RDF>
   <cc:Work rdf:about="">
    <dc:format>image/svg+xml</dc:format>
    <dc:type rdf:resource="http://purl.org/dc/dcmitype/StillImage"/>
    <dc:title/>
   </cc:Work>
  </rdf:RDF>
 </metadata>
 <g transform="translate(-0.0014,2.956876e-4)">
  <path style="baseline-shift:baseline;block-progression:tb;color:#000000;direction:ltr;text-indent:0;text-align:start;enable-background:accumulate;text-transform:none;" fill="#642b91" d="M287.94-0.00029569,289.72,1.5622c-36.71,4.8283-67.84,20.153-93.5,46.188-0.021,0.021-0.042,0.041-0.062,0.062l-1.1875,1.1875-0.1875,0.1875-0.1563,0.1875-160.21,183.56c-30.226,34.65-34.407,78.86-34.407,102.22v3.4688,9.0312c0.01,7.4819,0.021,17.466,0.031,27.438,0.01,9.9712,0.024,19.924,0.031,27.406v9.0625c0,2.185-0.0001,4.4237,0,3.4375,0,25.963,10.394,50.749,29.094,69.625h0.031c17.582,17.7,51.06,38.188,108.59,38.188,0.7032,0,0.4123,0.0004,1.1875,0s1.9199,0.00075,3.375,0c2.9103-0.001,7.0887,0.003,12.156,0,10.135-0.005,23.828-0.0244,38.094-0.0312,26.237-0.0126,51.506-0.0293,62.906-0.0312,4.8175,12.469,10.735,23.32,18.094,32.531,18.558,23.161,45.865,36.094,76.031,36.094h85.188c30.166,0,57.465-12.925,76-36.094,9.7496-12.194,17.003-27.136,22.437-45.219,39.011-16.436,59.444-47.99,65.063-75.938v-0.031-0.031s1.5937-7.7733,1.5937-15.344c0-5.5217,0.094-62,0.094-62v-0.031c0-6.2658-0.5399-12.304-1.625-18v-0.031-0.062l-0.25-1.1876-0.031-0.062v-0.094l-0.2812-1.2188v-0.031l-0.031-0.062c-3.0132-12.872-15.124-48.337-55.5-69.094v-140.69c0-33.352-13.131-64.975-36.906-88.75-23.66-23.772-55.42-37.438-87.42-37.438h-108.66-0.25-21.094z"/>
  <path style="baseline-shift:baseline;block-progression:tb;color:#000000;direction:ltr;text-indent:0;text-align:start;enable-background:accumulate;text-transform:none;" fill="#FFF" d="m309.28,16.031,0.25,0,108.41,0c27.408,0,55.311,11.885,76.094,32.719,20.852,20.852,32.219,48.247,32.219,77.406v145.63,5.1563l4.6563,2.125c38.366,17.643,48.757,49.86,51.25,60.469,0,0.018,0.027,0.045,0.031,0.063l0.2187,1,0.031,0.15621,0.1874,0.9375,0.031,0.125c0.857,4.5455,1.3125,9.5554,1.3125,14.875,0,0-0.094,56.355-0.094,62.031,0,5.1491-1.3124,12.312-1.3124,12.312-4.7721,23.628-22.405,51.614-58.688,65.594l-3.7812,1.4688-1.0625,3.875c-5.1156,18.374-11.872,32.216-20.719,43.281-15.602,19.502-37.841,30.094-63.5,30.094h-85.188c-25.659,0-47.898-10.584-63.531-30.094h0.031c-7.125-8.9188-12.91-19.659-17.562-33.125l-1.875-5.4062h-5.6876c-9.0721,0-39.875,0.018-68.406,0.031-14.266,0.01-27.959,0.026-38.094,0.031h-12.156c-1.4552,0.0008-2.5997-0.0003-3.375,0-0.7753,0.0004-1.8874,0-1.1875,0-53.791,0-82.349-18.499-97.219-33.469-15.861-16.019-24.469-36.611-24.469-58.313v-3.4688-9.0312c-0.01-7.4818-0.021-17.466-0.031-27.438-0.01-9.9712-0.024-19.924-0.031-27.406v-9.0624-3.4376c0-21.327,4.2713-61.654,30.469-91.687l160.18-183.55,0.8437-0.8437h0.031l0.031-0.031c26.793-27.208,58.637-41.092,99.25-42.969v0.031l2.4375-0.094z"/>
  <path d="m533,351.12c-1.6307-6.9034-8.806-25.385-39.98-31.337-4.7563-0.9513-2.3916-0.4077-8.7787-2.0657-6.4142-1.6849-8.5071-6.9305-8.5071-14.84v-4.5389-172.04c0.055-36.066-31.5-59.739-57.782-59.739h-108.66c-27.967,1.2775-48.378,10.301-65.718,27.913l-159.02,182.22c-13.073,14.97-17.992,37.86-17.992,58.49l0.055,79.607c-0.163,21.091,21.145,41.475,71.182,41.475l125.87-0.026h30.087c7.8818,0,13.155,2.2016,14.812,8.6156,1.6851,6.4143,1.1686,4.0226,2.0656,8.8061,7.3654,38.567,19.46,51.205,39.002,51.205h85.179c19.542,0,31.636-12.638,38.975-51.232,0.8152-4.1312,3.1527-12.122,3.1527-12.122,1.2774-3.1527,3.5604-5.2999,7.2023-6.2512,6.4143-1.6851,4.0225-1.1686,8.7789-2.0655,32.452-6.1969,38.92-25.983,40.143-32.126,0.1092-0.62501,0.2175-1.3861,0.2989-2.4461,0,0,0.081-61.832,0.081-61.913,0-2.7179-0.2447-4.5661-0.4349-5.5717" fill-rule="nonzero" fill="#642b91"/>
  <path d="m389.99,263.61c0,16.063-9.9204,22.178-19.977,22.178l-92.707-0.055c-10.301,0-17.123,2.9624-20.303,6.4686l-15.139,17.313c-4.24,4.9466-1.658,9.9747,4.2942,9.9747,0.4892,0,123.88-0.027,123.88-0.027,10.083,0,19.977,5.9792,19.977,22.042v6.985c0,16.063-9.8931,22.151-19.977,22.151,0,0-194.22,0.028-197.24,0.028-8.9691,0-17.232-4.7836-17.232-15.818,0-6.8219-0.027-8.2079-0.027-15.872,0-11.714,5.3815-20.004,14.486-29.734l123.62-141.49s13.644-17.014,34.762-17.884c2.9626,0,41.638-0.1358,41.638-0.1358,10.083,0,19.977,6.0066,19.977,22.069v7.0936c0,16.063-9.8931,22.178-19.977,22.178h-23.374c-9.866,0-16.498,2.8811-19.542,6.224l-15.492,17.802c-4.0769,4.7562-1.6037,9.5668,4.0768,9.5668h54.303c10.056,0,19.977,5.9794,19.977,22.069v6.8763" fill-rule="nonzero" fill="#FFF"/>
 </g>
</svg>
