<svg width="1316.4px" height="712.4px" enable-background="new 0 0 1316.426 712.4" version="1.1" viewBox="0 0 1316.4 712.4" xml:space="preserve" xmlns="http://www.w3.org/2000/svg"><defs><filter id="Adobe_OpacityMaskFilter" x="0" y="0" width="858.64" height="572.1" filterUnits="userSpaceOnUse"><feColorMatrix values="1 0 0 0 0  0 1 0 0 0  0 0 1 0 0  0 0 0 1 0"/></filter></defs><mask id="SVGID_1_" x="0" y="0" width="858.636" height="572.101" maskUnits="userSpaceOnUse"><g filter="url(#Adobe_OpacityMaskFilter)"><path d="m447.8 128c35.3 0 64-28.7 64-64s-28.6-64-64-64c-35.3 0-64 28.7-64 64s28.6 64 64 64zm398.4-69.2c-148.5 26.3-207.8 88.9-239.5 203.5-27.7 100-72.7 146.4-126.7 148-1 0-2 0.101-3.1 0.101-17.801 0-34.2-7.5-47.101-20.3 30-53.301 46.4-105.6 46.4-137.2 0-18.3-4.601-35.5-13.601-48.6-9.899-14.4-25.199-23.7-45.399-23.7-38.5 0-91.8 51-91.8 135 0 25.6 5.5 51.399 15.6 75-35.8 52.9-99.7 105.8-162.8 105.8-5 0-9.9-0.3-14.7-0.899 31.8-25.9 67.8-78.4 67.8-127.9 0-0.9 0-1.8-0.1-2.7-1.3-56.3-43.4-98.4-106-98.4-70.799 0.098-128.1 62.498-128.1 142.3 0 12.199 1 22.2 2.9 30.3 16.6 85.5 102.7 133 175.3 133 87.1 0 159.6-53.3 211.6-118.2 20.199 17.101 44.699 28.7 72.699 31.9 4.7 0.6 9.9 0.899 15.7 0.899 128.5 0 181.5-118.8 207.1-207.3 12.6-43.6 24.6-71.6 44.5-91.8 23-23.3 56.5-36 113.7-49.9 18.801-16.5 19.4-61.4 5.6-78.9zm-751.6 402.2c-13.2-14.8-21.1-33.399-21.1-54 0-35.2 25-64.1 51.2-64.1 19.8 0 29.2 15.3 29.2 30.6 0.1 33.5-34.8 69.6-59.3 87.5z" fill="#fff"/><radialGradient id="circle30_1_" cx="-1210.6" cy="1936.9" r="160.2" gradientTransform="matrix(.822 0 0 -.822 1481.2 1607.9)" gradientUnits="userSpaceOnUse"><stop stop-color="#fff" offset=".5"/><stop stop-color="#FAFAFA" offset=".5783"/><stop stop-color="#ECECED" offset=".6707"/><stop stop-color="#D4D5D6" offset=".7702"/><stop stop-color="#B3B5B6" offset=".8747"/><stop stop-color="#898C8E" offset=".9821"/><stop stop-color="#818587" offset=".9997"/></radialGradient><circle cx="447.8" cy="64" r="64" fill="url(#circle30_1_)"/><radialGradient id="path37_1_" cx="-914.51" cy="1703.7" r="563.5" fx="-920.05" fy="1700.5" gradientTransform="matrix(.822 0 0 -.6277 1481.2 1256.7)" gradientUnits="userSpaceOnUse"><stop stop-color="#909598" offset=".0029"/><stop stop-color="#fff" offset=".8"/></radialGradient><path d="m480 410.3c-1 0-2 0.101-3.1 0.101-41.7 0-92.7 76.3-1.601 76.3 128.5 0 181.5-118.8 207.1-207.3 12.6-43.6 24.6-71.6 44.5-91.8-63.9 62.599-104.4 220.5-246.9 222.7z" fill="url(#path37_1_)"/><radialGradient id="path56_1_" cx="-789.2" cy="588.74" r="240.11" fx="-795.08" fy="576.73" gradientTransform="matrix(.2812 -.7724 -1.0428 -.3796 1012.4 -71.378)" gradientUnits="userSpaceOnUse"><stop stop-color="#fff" offset=".2"/><stop stop-color="#FCFCFC" offset=".374"/><stop stop-color="#F2F2F2" offset=".5138"/><stop stop-color="#E1E2E2" offset=".6417"/><stop stop-color="#C9CBCC" offset=".7625"/><stop stop-color="#AAADAE" offset=".8783"/><stop stop-color="#85898B" offset=".9889"/><stop stop-color="#818587" offset="1"/></radialGradient><path d="m204.9 298.4s-29.3-10.2-49.5 10.3-11.6 40.8-11.6 40.8c6.8 5.9 10.2 15 10.2 24.101 0 33.5-34.9 69.6-59.4 87.5 16.5 18.6 41.2 31.2 68.9 34.6 0.5-0.399 1.1-0.899 1.6-1.3 9.6-8.1 19.5-18.5 28.7-30.5 20.7-27.2 37.5-62.3 37.5-96.101 0-0.899 0-1.8-0.1-2.699-0.6-26.401-10.1-49.501-26.3-66.701z" fill="url(#path56_1_)"/><radialGradient id="path63_1_" cx="-884.43" cy="629.13" r="212.62" fx="-883.62" fy="614.14" gradientTransform="matrix(.6493 -.5041 -.5228 -.6734 1283.3 394.04)" gradientUnits="userSpaceOnUse"><stop stop-color="#818587" offset="0"/><stop stop-color="#fff" offset=".7"/></radialGradient><path d="m386.9 453.9c-19.8-16.8-35.3-38.8-45.8-63.2-29.699 43.8-78.6 87.601-130.3 101.4 3.2 13.8 9.1 26.7 17.8 38.1 8 10.5 17.9 19 29.1 25.601 50.9-20.701 94.6-58.701 129.2-101.9z" fill="url(#path63_1_)"/><radialGradient id="path82_1_" cx="-666.97" cy="214.95" r="163.23" fx="-652.14" fy="217.01" gradientTransform="matrix(.6978 -.4345 -.8512 -1.367 1098.5 213.4)" gradientUnits="userSpaceOnUse"><stop stop-color="#fff" offset=".15"/><stop stop-color="#FCFCFC" offset=".3349"/><stop stop-color="#F2F2F2" offset=".4834"/><stop stop-color="#E1E2E2" offset=".6193"/><stop stop-color="#C9CBCC" offset=".7476"/><stop stop-color="#AAADAE" offset=".8707"/><stop stop-color="#85898B" offset=".9882"/><stop stop-color="#818587" offset="1"/></radialGradient><path d="m462.6 204.3c-33 18.801-61.1 61-61.1 110.5 0 31.4 11 58.101 28.3 75.301 30-53.301 46.4-105.6 46.4-137.2 0.1-18.301-4.6-35.501-13.6-48.601z" fill="url(#path82_1_)"/></g></mask><g transform="translate(2.9)" mask="url(#SVGID_1_)"><path d="m447.8 128c35.3 0 64-28.7 64-64s-28.6-64-64-64c-35.3 0-64 28.7-64 64s28.6 64 64 64zm398.4-69.2c-148.5 26.3-207.8 88.9-239.5 203.5-27.7 100-72.7 146.4-126.7 148-1 0-2 0.101-3.101 0.101-17.8 0-34.2-7.5-47.1-20.3 30.001-53.301 46.401-105.6 46.401-137.2 0-18.3-4.6-35.5-13.6-48.6-9.9-14.4-25.2-23.7-45.4-23.7-38.5 0-91.8 51-91.8 135 0 25.6 5.5 51.399 15.601 75-35.801 52.9-99.7 105.8-162.8 105.8-5 0-9.9-0.3-14.7-0.899 31.8-25.9 67.8-78.4 67.8-127.9 0-0.9 0-1.8-0.1-2.7-1.3-56.3-43.4-98.4-106-98.4-70.801 0.099-128.1 62.499-128.1 142.3 0 12.199 1 22.2 2.9 30.3 16.6 85.5 102.7 133 175.3 133 87.1 0 159.6-53.3 211.6-118.2 20.2 17.101 44.7 28.7 72.7 31.9 4.7 0.6 9.9 0.899 15.7 0.899 128.5 0 181.5-118.8 207.1-207.3 12.602-43.6 24.602-71.6 44.5-91.8 23-23.3 56.5-36 113.7-49.9 18.799-16.5 19.401-61.4 5.6-78.9zm-751.6 402.2c-13.2-14.8-21.1-33.399-21.1-54 0-35.2 25-64.1 51.2-64.1 19.8 0 29.2 15.3 29.2 30.6 0.1 33.5-34.8 69.6-59.3 87.5z" fill="#3BB700"/></g><g fill="#3BB700"><path d="m427 596.4c21.2 4.1 35.4 12.1 35.4 30.8 0 22.2-18.5 37.2-45.2 37.2-24.7 0-47.101-13.2-50-35.2 5.5-4.6 11.7-6.899 19.6-6.899 1.601 0 3.2 0 5 0.199 4.8 13.2 13.7 18 27 18 9.601 0 16.7-3.699 16.7-11.899 0-7.8-7.5-11-26.5-14.8-16.4-3.4-34.5-10.5-34.5-31.5 0-20.601 19-32.2 42.5-32.2 20.1 0 33.1 8 41.3 17.6-4.1 9.101-8.5 14.4-16.899 17.4-4.801-7.3-14.4-13.5-24.9-13.5-11.4 0-16.4 4.1-16.4 10.1-0.101 6.899 6.799 10.799 26.899 14.699z"/><path d="m469.7 607.8c0-36.801 24.9-57.601 56.7-57.601 32.899 0 57.6 20.3 57.6 57.101 0 37-29 57.1-57.3 57.1-10.3 0-20.8-2.7-27.601-7.3v55.3h-29.199v-104.6h-0.2zm29.2-3.201v24.4c5.5 5.9 16 10.301 25.8 10.301 18 0 29.899-12.801 29.899-32 0-19.2-11.399-32-28.6-32-15.199 0.099-27.099 10.099-27.099 29.299z"/><path d="m709.1 607.3c0 36.3-28.1 57.1-58.9 57.1s-58.9-20.8-58.9-57.1c0-36.301 28.1-57.101 58.9-57.101s58.9 20.8 58.9 57.101zm-88.6 0c0 18.5 12.1 32 29.7 32 17.599 0 29.701-13.5 29.701-32s-12.102-32-29.701-32c-17.6 0.099-29.7 13.5-29.7 32z"/><path d="m782.9 581.8c-3.201-3.4-8.9-6.4-15.301-6.4-14.801 0-21.9 8.9-21.9 24v62.8h-29.2v-64.399c0-32 22.6-47.5 49.299-47.5 13.5 0 20.801 2.5 27.9 6.6-0.499 9.998-4.699 18.899-10.798 24.899z"/><path d="m838.4 664.5c-23.102 0-38.4-15.8-38.4-42.899v-95.9c8.5-6.6 15.5-10.1 29.199-10.1v37h29.701v22.399h-29.701v48.7c0 11.4 5.701 17.101 14.801 17.101 5.699 0 8.9-1.801 13.9-6.2 6.398 5.3 9.799 11.2 10.299 20.1-8.299 6.799-16.6 9.799-29.799 9.799z"/><path d="m908.8 485.61h11.506v215.16h-11.506l2e-3 -215.16h-2e-3z"/><path d="m979.74 511.4c10.064-8.158 23.27-11.74 36.094-11.403 14.043-0.06 28.99 3.38 39.494 13.228 8.861 8.038 13.205 20.188 13.049 31.996 0.232 11.433-2.295 23.396-9.525 32.526-8.264 10.558-20.57 16.832-32.691 21.916-8.473 3.305-16.943 7.425-23.256 14.147-5.189 5.443-8.328 12.727-8.814 20.226h75.199v28.04h-106.91c0.434-15.007-1.66-30.529 3.381-44.998 3.947-11.896 12.352-21.969 22.723-28.848 7.455-5.077 15.756-8.771 24.242-11.747 7.941-2.991 15.875-7.089 21.244-13.855 5.076-6.371 6.699-15.628 3.223-23.105-2.432-5.376-7.508-9.234-13.094-10.88-7.35-2.168-15.619-1.301-22.244 2.603-7.148 4.21-11.77 11.799-13.512 19.785-9.67-0.875-20.182-3.11-27.137-10.401 3.172-11.247 9.295-21.91 18.537-29.23z"/><path d="m1125.5 504.86c-3.592-0.179-6.898 3.101-6.686 6.705v145.07c-0.143 3.641 3.416 6.7 6.969 6.395 61.531-0.045 123.06 0.037 184.59 0 3.223-0.075 6.094-3.089 6.027-6.318 0.029-48.379-0.031-96.751 0-145.13 0.225-3.612-3.09-6.902-6.686-6.723l-184.22-1e-3zm31.071 37.582v33.455l40.945 7e-3v-33.462h17.381v88.51h-17.381v-38.973l-40.945 0.016v38.957h-17.369v-88.508l17.369-2e-3zm69.861 3e-3c10.543 7e-3 21.154-0.017 31.697 6e-3 11.926 0.434 24.25 4.771 32.221 13.977 6.475 7.402 9.436 17.272 9.893 26.971 0.643 12.023-2.043 24.914-10.35 34.029-8.375 9.361-21.229 13.369-33.49 13.557-9.99 0.09-19.988 0.155-29.971-0.031v-88.509z"/><path d="m1243.7 558.34c8.822 0.149 18.244-0.89 26.395 3.274 6.91 3.351 11.291 10.528 12.354 17.991 1.047 7.484 0.807 15.53-2.699 22.387-2.686 5.422-7.754 9.481-13.49 11.284-7.283 2.385-15.037 1.547-22.559 1.689v-56.625z"/></g></svg>
