<svg version="1.1" viewBox="0 0 800 239.98" xml:space="preserve" xmlns="http://www.w3.org/2000/svg">
	<path d="m596.27 143.74v36.663h-152.07c-9.5824 0-18.748-2.4998-26.248-7.9159-0.83325-0.83326-2.4998-0.83326-3.7496 0-7.0827 4.9995-15.832 7.9159-24.581 7.9159h-37.08c-7.9159 0-15.415-1.6665-22.498-4.9995-11.666-5.8328-17.082-16.248-18.748-28.747-0.41663-3.333-0.83325-6.666-0.41663-9.9991v-107.49c-0.41662-2.0831 0.83326-3.7496 2.9164-4.1663 10.832-3.7496 21.665-7.9159 32.497-11.666 0.41663-0.41663 1.2499-0.41663 2.0831-0.83326v118.32c0 1.6665 0 3.7496 0.41663 5.4162 0 3.333 2.4998 6.2494 5.8328 6.2494 2.0831 0.41663 4.1663 0.41663 6.2494 0.41663h26.248c4.9995 0.41663 9.5824-3.333 9.9991-8.3326v-61.66c-0.41663-2.0831 0.83325-4.1663 2.9164-4.5829 10.832-3.7496 21.665-7.9159 32.497-11.666 0.41663 0 1.2499-0.41663 2.0831-0.41663v76.243c0 7.4993 3.333 10.832 10.832 10.832h97.908c0-0.41663 0.41663-0.83326 0-0.83326-2.0831-7.4993-4.1663-15.415-6.2494-22.915-1.6665-6.2494-4.5829-12.082-8.3326-17.498-4.1663-5.4162-10.416-8.7492-17.498-8.3326-11.249-0.41663-22.915-0.41663-34.163-0.41663h-3.333c1.6665-4.1663 2.9164-8.3326 4.1663-12.082 2.4998-7.4993 5.4162-14.999 7.9159-22.498 0.41663-1.2499 0.83325-2.4998 2.4998-2.0831 10.416 0.41663 20.415-0.41663 30.83 0.83326 20.831 1.6665 37.08 11.249 45.829 31.247 3.7496 8.7492 5.8328 17.915 8.7492 26.664 1.6665 4.9995 2.9164 9.5824 4.5829 14.582 2.9164 7.4993 7.4993 13.332 16.248 13.749 1.2499-0.41662 1.6665-0.41662 1.6665 0zm-484.95-87.492h-55.828c-5.4162 0-10.832 0.41663-16.248 1.6665-12.915 2.0831-23.748 9.9991-29.997 21.248-4.5829 9.1658-7.4993 18.748-8.7492 29.164-2.0831 17.915 2.4998 35.83 12.915 50.412 5.8328 9.1658 14.582 15.832 24.581 19.998 7.4993 2.0831 14.999 2.9164 22.498 2.0831 0.83326 0 1.6665-0.83326 2.0831-1.2499l13.332-13.332 0.83326 0.41663v14.582h92.492c4.1663 0 8.3326-0.41663 12.499-1.2499 11.666-1.2499 22.081-8.3326 27.497-19.165 2.9164-6.666 4.5829-13.749 4.5829-20.831v-80.826c0-0.83326 0-1.2499-0.41663-2.0831-0.83325 0.41663-1.2499 0.41663-2.0831 0.41663-10.832 3.7496-21.248 7.9159-32.08 11.666-2.0831 0.41663-3.7496 2.4998-3.333 4.5829v59.161c0 8.7492-1.6665 10.832-10.832 10.832h-51.661v-87.075c-0.41663-0.41663-1.2499-0.41663-2.0831-0.41663zm-42.496 87.075h-12.499c-4.9995 0-9.5824-2.0831-12.499-6.2494-7.4993-9.9991-8.7492-23.331-3.333-34.58 2.4998-5.8328 8.3326-9.1658 14.582-8.7492h19.165c1.2499 0 2.0831 0 2.0831 1.6665v46.662c0 0.41663 0 0.83326-0.41663 0.83326zm669.52-129.57c-10.416 3.7496-20.831 7.4993-31.247 11.249-1.6665 0.41663-2.9164 2.0831-2.9164 4.1663v107.07c0.41663 3.7496-2.4998 6.666-5.8328 7.0827h-0.83325c-3.7496 0.41662-7.4993 0.41662-11.249 0.41662h-3.7496v-1.6665c4.1663-16.248 2.9164-33.33-3.7496-48.745-7.4993-19.582-15.832-39.163-23.748-58.328-0.41663-0.41663-0.83325-1.2499-0.83325-1.6665l-33.747 12.082c0.41663 0.83326 0.41663 1.6665 0.83326 2.4998 6.666 16.248 13.332 32.497 19.998 49.162 3.7496 7.4993 6.2494 15.832 7.4993 23.748 1.2499 10.416-2.9164 18.332-11.666 21.665-2.9164 0.83326-5.8328 1.6665-8.7492 1.6665-2.9164 0.41663-5.8328 0-8.7492 0v37.08h77.076c4.1663 0 8.7492-0.41663 12.915-1.2499 11.249-1.2499 21.248-7.9159 26.664-17.498 3.7496-7.4993 5.8328-15.832 5.4162-24.164v-124.57c-1.6665-0.41663-2.4998 0-3.333 0zm-515.79 205.4c9.1658 6.666 18.332 13.332 27.497 19.582 0.83326 0.41663 1.6665 0.41663 2.4998 0 2.9164-2.0831 6.2494-4.1663 8.7492-6.2494 14.999-11.666 23.748-29.997 23.331-49.162v-126.65c-0.83326 0.41663-1.6665 0.41663-2.0831 0.41663-10.416 3.7496-20.831 7.9159-31.664 11.666-2.0831 0.41663-3.333 2.4998-2.9164 4.1663v99.574c0 3.7496 0 7.9159-0.83325 11.666-1.6665 14.582-8.3326 25.831-22.081 32.08-1.2499 0.41663-2.4998 0.83326-3.7496 1.6665 1.2499 0.83326 1.2499 0.83326 1.2499 1.2499zm574.95-205.81c-10.832 3.7496-21.665 7.9159-32.497 11.666-1.6665 0.41663-2.9164 2.0831-2.4998 3.7496v155.82c0.83325-0.41663 1.6665-0.41663 2.0831-0.83326 10.832-3.7496 21.665-7.9159 32.497-11.666 1.6665-0.41663 2.9164-2.0831 2.9164-3.7496v-155.41c-1.2499 0-1.6665 0.41663-2.4998 0.41663zm-714.52-13.332-17.498 15.832-17.498-15.832-22.915 20.831 23.331 20.831c5.4162-4.5829 10.416-9.1658 15.415-13.749 1.6665-1.2499 2.4998-1.6665 4.1663 0 4.9995 4.5829 10.416 9.1658 15.415 13.749l23.331-20.831zm69.993 197.48-23.331 20.831 23.331 21.248 17.498-15.832 17.498 15.832 23.331-21.248c-0.83326-0.83325-1.6665-1.2499-2.0831-1.6665-6.2494-5.8328-12.915-11.666-19.165-17.498-1.6665-1.2499-2.4998-1.2499-3.7496 0-4.9995 4.5829-10.416 9.1658-15.832 13.749zm502.87-4.1663c-12.082 2.9164-19.582 15.415-16.665 27.497 0 0.41663 0.41663 1.2499 0.41663 1.6665v1.6665h-7.0827v15.832h49.995v-13.332c0-2.0831-0.41663-2.4998-2.4998-2.4998h-17.498c-3.333 0.41663-6.666-2.0831-6.666-5.8328v-0.83325c-0.83326-4.1663 2.0831-7.9159 6.2494-8.7492h1.6665c4.5829-0.41663 9.1658 0.41662 13.332 2.4998l7.4993-15.415c-8.7492-4.5829-19.165-5.4162-28.747-2.4998zm-262.48 24.998 23.331 20.831 23.331-20.831-23.331-21.248zm122.07-218.31-23.331 21.248 23.331 20.831 23.331-20.831z" fill="#4d018e" stroke-width="4.1663" Googl="true"/>
</svg>
