<svg data-name="Capa 2" version="1.1" viewBox="0 0 800 538.75" xmlns="http://www.w3.org/2000/svg">
 <g transform="matrix(5.9742 0 0 5.9742 .029871 .029871)" data-name="Capa 1">
  <path d="m1.9 2.01h64.52v86.12h-64.52zm64.76 0h65.32v86.12h-65.32z"/>
  <path d="m84.89 68.76c-3-3.69-4.51-8.17-4.51-13.44h7.43c0.32 3.66 1 6.32 2.06 7.98 1.84 2.98 5.18 4.47 10 4.47 3.74 0 6.75-1 9.01-3s3.4-4.58 3.4-7.75c0-3.9-1.2-6.63-3.6-8.18-2.37-1.55-5.68-2.33-9.92-2.33-0.47 0-0.96 0.01-1.46 0.04-0.47 0-0.96 0.01-1.46 0.04v-6.28c0.74 0.08 1.36 0.13 1.86 0.16s1.04 0.04 1.62 0.04c2.66 0 4.85-0.42 6.56-1.26 3-1.47 4.51-4.11 4.51-7.91 0-2.82-1-4.99-3-6.52s-4.34-2.29-7-2.29c-4.74 0-8.02 1.58-9.84 4.74-1 1.74-1.57 4.22-1.7 7.43h-7.04c0-4.22 0.84-7.8 2.53-10.75 2.9-5.27 8-7.9 15.3-7.91 5.77 0 10.24 1.29 13.4 3.87 3.16 2.56 4.74 6.27 4.74 11.15 0 3.48-0.94 6.3-2.81 8.46-1.16 1.34-2.66 2.4-4.51 3.16 2.98 0.82 5.29 2.4 6.96 4.74 1.69 2.32 2.53 5.17 2.53 8.54 0 5.4-1.78 9.8-5.34 13.2s-8.6 5.1-15.14 5.1c-6.69 0-11.55-1.83-14.58-5.5zm-54.71-21.71c5.58 0 13.11-0.16 13.11 8.42 0 5.34-4.05 8.9-9.23 8.9-6.64 0-9.71-5.02-9.96-11.17h-10.92c-0.24 13.03 8.34 20.64 21.05 20.64 11.09 0 21.05-6.72 21.05-18.62 0-6.31-3.8-11.49-10.04-12.87v-0.16c5.26-1.46 7.93-6.23 7.93-11.58 0-10.12-9.96-15.7-19.02-15.7-11.66 0-19.18 8.01-19.59 19.59h10.93c-0.08-5.83 2.99-10.12 8.74-10.12 4.21 0 8.01 2.75 8.01 7.53 0 6.48-7.12 7.45-12.06 7.04v8.09z" fill="#fff" Googl="true"/>
  <path d="m1.92 1.92h130.06v86.33h-130.06zm64.46 0v86.33" fill="none" stroke="#fff" stroke-miterlimit="3.86" stroke-width="3.85px"/>
 </g>
</svg>
