<svg width="493.304" height="62.536" viewBox="0 0 130.52 16.546" xmlns="http://www.w3.org/2000/svg" xmlns:xlink="http://www.w3.org/1999/xlink"><defs><linearGradient id="b" x2="3.436" y1="17.075" y2="17.075" gradientTransform="matrix(1.4849 0 0 .54755 49.314 93.252)" gradientUnits="userSpaceOnUse" xlink:href="#a"/><linearGradient id="a"><stop stop-color="#fff" offset="0"/><stop stop-color="#fff" stop-opacity="0" offset="1"/></linearGradient><linearGradient id="c" x2="3.281" y1="8.058" y2="8.058" gradientTransform="matrix(1.5548 0 0 .52295 49.314 93.252)" gradientUnits="userSpaceOnUse" xlink:href="#a"/><linearGradient id="d" x1="22.006" x2="25.441" y1="17.074" y2="17.074" gradientTransform="matrix(1.4848 0 0 .54758 49.314 93.252)" gradientUnits="userSpaceOnUse" xlink:href="#a"/><linearGradient id="e" x1="21.017" x2="24.298" y1="8.058" y2="8.058" gradientTransform="matrix(1.5547 0 0 .52297 49.314 93.252)" gradientUnits="userSpaceOnUse" xlink:href="#a"/><linearGradient id="f" x1="46.389" x2="49.824" y1="17.075" y2="17.075" gradientTransform="matrix(1.4849 0 0 .54755 49.314 93.252)" gradientUnits="userSpaceOnUse" xlink:href="#a"/><linearGradient id="g" x1="44.304" x2="47.586" y1="8.058" y2="8.058" gradientTransform="matrix(1.5548 0 0 .52295 49.314 93.252)" gradientUnits="userSpaceOnUse" xlink:href="#a"/><linearGradient id="h" x1="442.07" x2="508.29" y1="215.17" y2="215.17" gradientTransform="translate(17.451 31.219) scale(.31931)" gradientUnits="userSpaceOnUse"><stop stop-color="#10253d" offset="0"/><stop stop-color="#004199" offset="1"/></linearGradient></defs><path d="M21.893 1.413v10.29h9.696v3.43H18.061a1.225 1.225 0 0 1-1.225-1.224V1.413zm32.911 13.042L49.12 3.208a1.237 1.237 0 0 1 1.104-1.795h3.927l4.581 9.51c.012.025.046.024.058 0l3.976-8.783c.2-.443.641-.727 1.127-.727h4.643l-6.09 12.982c-.212.45-.664.737-1.162.737h-5.376c-.467 0-.893-.262-1.104-.678zm36.927-12.71 7.8 7.468v-7.8h5.026l.001.002v12.458a1.26 1.26 0 0 1-1.26 1.26h-3.48a1.23 1.23 0 0 1-.854-.346l-8.412-7.97v8.315h-5.025V2.622c0-.667.54-1.208 1.208-1.208h4.18c.306 0 .598.119.816.332zM15.177 4.77V1.413H1.244C.557 1.413 0 1.97 0 2.656V4.77zM.003 11.704v3.43h14.08c.688 0 1.245-.558 1.245-1.245v-2.185zM0 6.484h14.974v3.338H0z" fill="#fff" fill-rule="evenodd"/><path d="m49.314 101.66 5.102 1.882v-1.882z" fill="url(#b)" fill-rule="evenodd" transform="translate(-49.314 -91.839)"/><path d="m49.314 96.608 5.102 1.716v-1.716z" fill="url(#c)" fill-rule="evenodd" transform="translate(-49.314 -91.839)"/><path d="M47.851 4.77V1.412H33.918a1.244 1.244 0 0 0-1.243 1.243V4.77zm-15.173 6.934v3.43h14.079a1.245 1.245 0 0 0 1.245-1.245v-2.185zm-.004-5.22h14.974v3.338H32.674z" fill="#fff" fill-rule="evenodd"/><path d="m81.99 101.66 5.101 1.882v-1.882z" fill="url(#d)" fill-rule="evenodd" transform="translate(-49.314 -91.839)"/><path d="m81.99 96.608 5.101 1.716v-1.716z" fill="url(#e)" fill-rule="evenodd" transform="translate(-49.314 -91.839)"/><path d="M84.061 4.77V1.412H70.128a1.244 1.244 0 0 0-1.243 1.243V4.77zm-15.173 6.934v3.43h14.08a1.245 1.245 0 0 0 1.244-1.245v-2.185zm-.003-5.22h14.973v3.338H68.884z" fill="#fff" fill-rule="evenodd"/><path d="m118.2 101.66 5.102 1.882v-1.882z" fill="url(#f)" fill-rule="evenodd" transform="translate(-49.314 -91.839)"/><path d="m118.2 96.608 5.102 1.716v-1.716z" fill="url(#g)" fill-rule="evenodd" transform="translate(-49.314 -91.839)"/><path d="M160.94 91.839a2.374 2.374 0 0 0-2.38 2.38v14.166h18.89a2.375 2.375 0 0 0 2.38-2.38V91.839h-15.717z" fill="url(#h)" fill-rule="evenodd" transform="translate(-49.314 -91.839)"/><path d="M125.226 3.016h-5.836l-6.328 5.455v3.013h8.264v2.046h3.9v-2.046h1.488V8.471h-1.488zm-3.9 2.273V8.47h-3.71z" fill="#fff"/></svg>