<svg xmlns="http://www.w3.org/2000/svg" xmlns:xlink="http://www.w3.org/1999/xlink" width="642.482" height="113.053" viewBox="0 0 169.99 29.912"><defs><linearGradient id="a"><stop offset="0" stop-color="#fff"/><stop offset="1" stop-color="#fff" stop-opacity="0"/></linearGradient><linearGradient xlink:href="#a" id="b" x2="3.436" y1="17.075" y2="17.075" gradientTransform="matrix(1.4849 0 0 .54755 38.561 88.061)" gradientUnits="userSpaceOnUse"/><linearGradient xlink:href="#a" id="c" x2="3.281" y1="8.058" y2="8.058" gradientTransform="matrix(1.5548 0 0 .52295 38.561 88.061)" gradientUnits="userSpaceOnUse"/><linearGradient xlink:href="#a" id="d" x1="22.006" x2="25.441" y1="17.074" y2="17.074" gradientTransform="matrix(1.4848 0 0 .54758 38.561 88.061)" gradientUnits="userSpaceOnUse"/><linearGradient xlink:href="#a" id="e" x1="21.017" x2="24.298" y1="8.058" y2="8.058" gradientTransform="matrix(1.5547 0 0 .52297 38.561 88.061)" gradientUnits="userSpaceOnUse"/><linearGradient xlink:href="#a" id="f" x1="46.389" x2="49.824" y1="17.075" y2="17.075" gradientTransform="matrix(1.4849 0 0 .54755 38.561 88.061)" gradientUnits="userSpaceOnUse"/><linearGradient xlink:href="#a" id="g" x1="44.304" x2="47.586" y1="8.058" y2="8.058" gradientTransform="matrix(1.5548 0 0 .52295 38.561 88.061)" gradientUnits="userSpaceOnUse"/><linearGradient id="h" x1="442.07" x2="508.29" y1="215.17" y2="215.17" gradientTransform="translate(6.698 26.028) scale(.31931)" gradientUnits="userSpaceOnUse"><stop offset="0" stop-color="#10253d"/><stop offset="1" stop-color="#004199"/></linearGradient></defs><path fill="#fff" fill-rule="evenodd" d="M61.364 8.353v10.29h9.696v3.43H57.532a1.225 1.225 0 0 1-1.225-1.224V8.353zm32.911 13.042-5.684-11.247a1.237 1.237 0 0 1 1.104-1.795h3.927l4.581 9.51c.012.025.046.024.058 0l3.976-8.783c.2-.443.641-.727 1.127-.727h4.643l-6.09 12.982c-.212.45-.664.737-1.162.737H95.38c-.467 0-.893-.262-1.104-.678zm36.927-12.71 7.8 7.468v-7.8h5.026l.001.002v12.458a1.26 1.26 0 0 1-1.26 1.26h-3.48a1.23 1.23 0 0 1-.854-.346l-8.412-7.97v8.315h-5.025V9.562c0-.667.54-1.208 1.208-1.208h4.18c.306 0 .598.119.816.332zM54.648 11.71V8.353H40.715c-.687 0-1.244.557-1.244 1.243v2.113zm-15.174 6.935v3.43h14.08c.688 0 1.245-.558 1.245-1.245v-2.185zm-.003-5.22h14.974v3.338H39.47z"/><path fill="url(#b)" fill-rule="evenodd" d="m38.561 96.47 5.102 1.882V96.47z" transform="translate(.91 -79.708)"/><path fill="url(#c)" fill-rule="evenodd" d="m38.561 91.417 5.102 1.716v-1.716z" transform="translate(.91 -79.708)"/><path fill="#fff" fill-rule="evenodd" d="M87.322 11.71V8.352H73.389a1.244 1.244 0 0 0-1.243 1.243v2.113zm-15.173 6.934v3.43h14.079a1.245 1.245 0 0 0 1.245-1.245v-2.185zm-.004-5.22H87.12v3.338H72.145z"/><path fill="url(#d)" fill-rule="evenodd" d="m71.237 96.47 5.101 1.882V96.47z" transform="translate(.91 -79.708)"/><path fill="url(#e)" fill-rule="evenodd" d="m71.237 91.417 5.101 1.716v-1.716z" transform="translate(.91 -79.708)"/><path fill="#fff" fill-rule="evenodd" d="M123.532 11.71V8.352h-13.933a1.244 1.244 0 0 0-1.243 1.243v2.113zm-15.173 6.934v3.43h14.08a1.245 1.245 0 0 0 1.244-1.245v-2.185zm-.003-5.22h14.973v3.338h-14.974z"/><path fill="url(#f)" fill-rule="evenodd" d="m107.45 96.47 5.102 1.882V96.47z" transform="translate(.91 -79.708)"/><path fill="url(#g)" fill-rule="evenodd" d="m107.45 91.417 5.102 1.716v-1.716z" transform="translate(.91 -79.708)"/><path fill="url(#h)" fill-rule="evenodd" d="M150.19 86.648a2.374 2.374 0 0 0-2.38 2.38v14.166h18.89a2.375 2.375 0 0 0 2.38-2.38V86.648h-15.717z" transform="translate(.91 -79.708)"/><path fill="#fff" d="M165.53 13.032v-3.19h-12.391v3.175h7.522l-3.885 1.21.49 1.642c.998-.16 1.863-.241 2.604-.241.733 0 1.312.073 1.737.22.425.146.63.337.616.586-.015.352-.235.587-.66.719s-1.151.198-2.177.183c-1.034 0-1.767-.059-2.207-.183-.44-.125-.675-.338-.704-.638h-3.937c.036.557.132 1.048.286 1.459.146.41.388.792.71 1.129.323.337.734.616 1.247.821.513.213 1.144.374 1.906.491.763.118 1.657.169 2.684.169 2.456 0 4.2-.271 5.235-.821 1.026-.55 1.554-1.503 1.569-2.86.014-.968-.264-1.671-.821-2.119-.565-.447-1.46-.703-2.691-.762z"/><g fill="#fff"><path d="M29.918 6.581v6.587l-1.787 1.788 1.787 1.788v13.168H0V16.75l1.788-1.787L0 13.175V0h29.925v6.581zm-28.47.41v5.543l2.429 2.429-2.429 2.428v11.086h27.016V17.39l-2.429-2.428 2.429-2.429V1.448H1.448z" class="st0"/><path d="m12.29 5.838.942.942v4.485l-1.877 1.878H6.344V4.889h5.01zM7.798 9.022v2.673h2.935l.48-.52.481-.512V7.376l-.974-1.038H7.798zM22.556 9.016c.935 2.256 1.698 4.101 1.698 4.114s-.353.02-.788.02h-.789l-.41-.975h-4.19l-.385.948-.8.013c-.635.007-.802 0-.783-.045.013-.032.77-1.864 1.686-4.069l1.685-4.069c.02-.038.186-.05.705-.044l.673.012zm-3.095-.141c-.378.916-.705 1.698-.718 1.743-.026.077.058.083 1.435.083 1.173 0 1.455-.013 1.442-.057-.032-.129-1.416-3.435-1.442-3.435-.019 0-.333.756-.717 1.666z" class="st0"/><path d="M12.604 17.494v.724l-2.16 2.672-2.146 2.666 2.147.012 2.16.007v1.454H6.343v-.743l.006-.73 4.332-5.306-2.172-.013-2.166-.013v-1.448h6.26zM20.044 19.71l2.057 2.948.013-2.947.006-2.935h1.455v8.253H21.92l-1.839-2.672-1.839-2.665-.013 2.672-.006 2.665H16.68v-8.253h1.3z"/></g></svg>