<svg width="348.2mm" height="30.002mm" version="1.1" viewBox="0 0 348.2 30.002" xmlns="http://www.w3.org/2000/svg" xmlns:xlink="http://www.w3.org/1999/xlink">
 <defs>
  <linearGradient id="b" x1="-9.2076e-6" x2="3.4355" y1="17.075" y2="17.075" gradientTransform="matrix(9.3235 0 0 3.4379 .028288 -.000328)" gradientUnits="userSpaceOnUse" xlink:href="#a"/>
  <linearGradient id="a">
   <stop stop-color="#fff" offset="0"/>
   <stop stop-color="#fff" stop-opacity="0" offset="1"/>
  </linearGradient>
  <linearGradient id="c" x1="-8.7939e-6" x2="3.2812" y1="8.0581" y2="8.0581" gradientTransform="matrix(9.7623 0 0 3.2834 .028288 -.000328)" gradientUnits="userSpaceOnUse" xlink:href="#a"/>
  <linearGradient id="d" x1="22.006" x2="25.441" y1="17.074" y2="17.074" gradientTransform="matrix(9.323 0 0 3.4381 .028288 -.000328)" gradientUnits="userSpaceOnUse" xlink:href="#a"/>
  <linearGradient id="e" x1="21.017" x2="24.298" y1="8.0577" y2="8.0577" gradientTransform="matrix(9.7617 0 0 3.2836 .028288 -.000328)" gradientUnits="userSpaceOnUse" xlink:href="#a"/>
  <linearGradient id="f" x1="46.389" x2="49.824" y1="17.075" y2="17.075" gradientTransform="matrix(9.3235 0 0 3.4379 .028288 -.000328)" gradientUnits="userSpaceOnUse" xlink:href="#a"/>
  <linearGradient id="g" x1="44.304" x2="47.586" y1="8.0581" y2="8.0581" gradientTransform="matrix(9.7623 0 0 3.2834 .028288 -.000328)" gradientUnits="userSpaceOnUse" xlink:href="#a"/>
 </defs>
 <g transform="translate(-.028288 .022166)">
  <g transform="matrix(.34818 0 0 .34818 .018439 -.014449)" fill-rule="evenodd">
   <g transform="matrix(5.6616 0 0 5.6616 .028288 -.000328)" fill="#fff">
    <path d="m24.279 0v11.412h10.753v3.8041h-15.003c-0.75048 0-1.3582-0.60836-1.3582-1.3582v-13.858z"/>
    <path d="m60.778 14.463-6.3036-12.473c-0.46063-0.91254 0.20196-1.9903 1.2242-1.9903h4.3551l5.0807 10.547c0.01247 0.0268 0.05049 0.02618 0.06296-6.23e-4l4.41-9.74c0.22252-0.49118 0.71183-0.80658 1.2504-0.80658h5.148l-6.7537 14.397c-0.23437 0.49928-0.73614 0.81842-1.2878 0.81842h-5.9627c-0.51736 0-0.99046-0.29109-1.2236-0.75235z"/>
    <path d="m101.73 0.36838 8.6511 8.2821v-8.6504h5.5731c6.2e-4 0 1e-3 6.2332e-4 1e-3 0.0012466v13.816c0 0.77229-0.62581 1.3981-1.3981 1.3981h-3.8584c-0.35342 0-0.69313-0.13775-0.94745-0.38334l-9.3286-8.8399v9.222c0 6.23e-4 -5.5719 0.0012-5.5719 0.0012-6.24e-4 0-0.0012-6.24e-4 -0.0012-0.0012v-13.874c1.93e-4 -0.74051 0.60045-1.3401 1.3403-1.3401h4.6363c0.33784 0 0.66197 0.13214 0.90382 0.36838z"/>
    <path d="M 16.831,3.7218 V 0 H 1.379 C 0.6173,0 2e-4,0.61771 2e-4,1.3788 v 2.3431 z"/>
    <path d="m0.0037399 11.412v3.8041h15.614c0.76232 0 1.3807-0.61833 1.3807-1.3807v-2.4235z"/>
    <path d="m0 5.6242h16.606v3.7019h-16.606z"/>
   </g>
   <path d="m0.028288 52.797 32.033 11.812v-11.812z" fill="url(#b)" stroke-width="5.6616"/>
   <path d="m0.028288 21.071 32.033 10.774v-10.774z" fill="url(#c)" stroke-width="5.6616"/>
   <g transform="matrix(5.6616 0 0 5.6616 .028288 -.000328)" fill="#fff">
    <path d="m53.068 3.7218v-3.7218h-15.452c-0.7617 0-1.3788 0.61771-1.3788 1.3788v2.3431z"/>
    <path d="m36.241 11.412v3.8041h15.614c0.76232 0 1.3807-0.61833 1.3807-1.3807v-2.4235z"/>
    <path d="m36.237 5.6242h16.606v3.7019h-16.606z"/>
   </g>
   <path d="m205.19 52.797 32.029 11.812v-11.812z" fill="url(#d)" stroke-width="5.6616"/>
   <path d="m205.19 21.071 32.029 10.774v-10.774z" fill="url(#e)" stroke-width="5.6616"/>
   <g transform="matrix(5.6616 0 0 5.6616 .028288 -.000328)" fill="#fff">
    <path d="m93.224 3.7218v-3.7218h-15.452c-0.7617 0-1.3788 0.61771-1.3788 1.3788v2.3431z"/>
    <path d="m76.397 11.412v3.8041h15.614c0.76232 0 1.3807-0.61833 1.3807-1.3807v-2.4235z"/>
    <path d="m76.393 5.6242h16.606v3.7019h-16.606z"/>
   </g>
   <path d="m432.53 52.797 32.033 11.812v-11.812z" fill="url(#f)" stroke-width="5.6616"/>
   <path d="m432.53 21.071 32.033 10.774v-10.774z" fill="url(#g)" stroke-width="5.6616"/>
  </g>
  <g transform="matrix(.617 0 0 .617 -834.81 -22.375)" fill="#fff" stroke="#000" stroke-width="1px">
   <g fill="#fff" stroke="#000" stroke-width="1px" aria-label="1">
    <g fill="#fff">
     <path d="m1839.4 36.233-0.1152 0.33594c-0.4959 1.4257-1.1154 2.5958-1.7207 3.4453-0.6615 0.83976-1.4937 1.5518-2.5 2.0254-1.0316 0.48546-2.3224 0.85811-3.9414 1.0449h-0.01l-0.01 2e-3c-1.6173 0.24882-3.5824 0.31445-5.9414 0.31445h-0.5v10.664h11.328v30.783h14.121v-48.615z" color="#000000" color-rendering="auto" dominant-baseline="auto" fill="#fff" image-rendering="auto" shape-rendering="auto" solid-color="#000000" stop-color="#000000" stroke="none" style="font-feature-settings:normal;font-variant-alternates:normal;font-variant-caps:normal;font-variant-east-asian:normal;font-variant-ligatures:normal;font-variant-numeric:normal;font-variant-position:normal;font-variation-settings:normal;inline-size:0;isolation:auto;mix-blend-mode:normal;shape-margin:0;shape-padding:0;text-decoration-color:#000000;text-decoration-line:none;text-decoration-style:solid;text-indent:0;text-orientation:mixed;text-transform:none;white-space:normal"/>
    </g>
   </g>
  </g>
  <g transform="matrix(.58132 0 0 .58132 223.56 -129.48)" fill="#3df4b4">
   <path class="st0" d="m82.4 248.4h-4.2c-0.1-5.9-2.2-11-6.3-15.1-4.1-4.2-9.2-6.2-15.1-6.3v-4.3h25.7c-0.1 8.5-0.1 17-0.1 25.7z"/>
   <path class="st0" d="m35.2 248.5c0.1 5.9 2.2 11 6.3 15.2 4.1 4.1 9.2 6.2 15.1 6.3v4.3h-25.7v-25.7c1.4-0.1 2.8-0.1 4.3-0.1z"/>
  </g>
  <g transform="matrix(.70892 0 0 .56718 .14812 -.11505)" fill="#fff" stroke="#000" stroke-width="1.1085" aria-label="F">
   <g fill="#fff">
    <path transform="scale(.89448 1.118)" d="m503.71 0.14648v16.893h6.7148v-5.8984h12.262v-4.625h-12.262v-1.8516h12.637v-4.5176h-0.62109z" color="#000000" color-rendering="auto" dominant-baseline="auto" fill="#fff" image-rendering="auto" shape-rendering="auto" solid-color="#000000" stop-color="#000000" stroke="none" style="font-feature-settings:normal;font-variant-alternates:normal;font-variant-caps:normal;font-variant-east-asian:normal;font-variant-ligatures:normal;font-variant-numeric:normal;font-variant-position:normal;font-variation-settings:normal;inline-size:0;isolation:auto;mix-blend-mode:normal;shape-margin:0;shape-padding:0;text-decoration-color:#000000;text-decoration-line:none;text-decoration-style:solid;text-indent:0;text-orientation:mixed;text-transform:none;white-space:normal"/>
   </g>
  </g>
  <g transform="matrix(.71174 0 0 .56495 .14812 -.086463)" fill="#fff" stroke="#000" stroke-width="1.072" aria-label="R">
   <g fill="#fff">
    <path transform="scale(.89093 1.1224)" d="m525.24 0.10156v16.893h6.7598v-5.4199h6.6328c1.3072 0 2.0884 0.24744 2.4609 0.57031 0.41067 0.3775 0.68945 0.99931 0.68945 1.9512v1.3066c0 0.36415-0.0161 0.6278 0.0723 0.9082 0.0255 0.0811 0.0445 0.14979 0.0742 0.22852 0.0298 0.07873 0.0479 0.18044 0.2168 0.31445l0.17774 0.14062h6.5976v-0.72852l-0.0996-0.12305c-0.048-0.05714-0.10811-0.1624-0.15234-0.35547l-2e-3 -0.0039v-0.0039c-0.0313-0.12407-0.0703-0.56001-0.0703-1.1484v-1.6504c0-1.2451-0.4472-2.2967-1.3086-3.0781l-6e-3 -0.00391-8e-3 -0.00586c-0.52407-0.44468-1.1921-0.77372-1.9258-1.0449 0.65906-0.25685 1.2635-0.56874 1.7578-0.97461 0.89164-0.73215 1.3555-1.71 1.3555-2.8184v-0.2129c0-0.4921-0.12047-0.9786-0.28711-1.5078v-0.00391l-2e-3 -0.00195c-0.19597-0.59627-0.64837-1.1472-1.3106-1.625-0.68368-0.49334-1.6023-0.86078-2.7891-1.1523-1.2195-0.2996-2.7857-0.44922-4.7148-0.44922zm6.7598 4.4688h7.1445c0.49962 0 0.94244 0.041843 1.2402 0.10938 0.30504 0.06918 0.51977 0.16752 0.65821 0.26367 0.12989 0.090224 0.20473 0.18996 0.28515 0.32812 0.0615 0.17123 0.10352 0.32859 0.10352 0.46875v0.042969c0 0.16897-0.0415 0.32696-0.10547 0.50195-0.0806 0.1554-0.15047 0.24765-0.2832 0.33984-0.13844 0.09615-0.35317 0.19449-0.65821 0.26367-0.29779 0.067532-0.74061 0.10938-1.2402 0.10938h-7.1445z" color="#000000" color-rendering="auto" dominant-baseline="auto" fill="#fff" image-rendering="auto" shape-rendering="auto" solid-color="#000000" stop-color="#000000" stroke="none" style="font-feature-settings:normal;font-variant-alternates:normal;font-variant-caps:normal;font-variant-east-asian:normal;font-variant-ligatures:normal;font-variant-numeric:normal;font-variant-position:normal;font-variation-settings:normal;inline-size:0;isolation:auto;mix-blend-mode:normal;shape-margin:0;shape-padding:0;text-decoration-color:#000000;text-decoration-line:none;text-decoration-style:solid;text-indent:0;text-orientation:mixed;text-transform:none;white-space:normal"/>
   </g>
  </g>
 </g>
</svg>
