<svg width="200mm" height="285.62mm" version="1.1" viewBox="0 0 200 285.62" xmlns="http://www.w3.org/2000/svg">
 <g transform="translate(297.16 155.7)">
  <rect x="-297.16" y="-155.7" width="200" height="285.62" ry="16.481" fill="#e52837" fill-rule="evenodd"/>
  <path d="m-222.96-96.742c0.25887-0.05074 0.49253-0.05281 0.75818-0.05281l103.81-0.0021v-29.893c0-6.1079-4.8776-11.221-10.986-11.221h-133.51c-6.1079 0-11.357 5.1129-11.357 11.221v134.91c0 6.1079 5.2495 11.756 11.357 11.756h133.51c6.1079 0 10.986-5.6484 10.986-11.756v-30.213l-57.869-0.01294c-1.2402-6.84e-4 -2.3207 0.22418-3.2517 1.0815-0.99293 0.91382-1.3105 2.0906-1.344 3.3786-0.0233 0.93266 0.0181 1.8669-8e-3 2.7996-0.0207 0.74508-0.2714 1.0003-1.0107 1.1213-0.19597 0.03184-0.39716 0.0409-0.59626 0.0409-5.389 0.0021-10.778 0.0054-16.167-0.0078-0.20683-6.86e-4 -0.47207-0.07973-0.61199-0.22004-3.1134-3.1318-6.7849-5.421-10.804-7.1857-4.0414-1.7747-8.0948-3.5227-12.132-5.3073-1.3607-0.60151-2.6492-1.3388-3.706-2.4186-0.80429-0.82106-1.2151-1.7668-1.2151-2.9541 0-4.2253-5e-3 -8.4422 5.2e-4 -12.663 3e-3 -2.3814 1.8606-4.6696 4.1509-5.1166 0.25887-0.0502 0.49253-0.05281 0.75819-0.05281l103.81-0.0021v-19.769l-57.869-0.01294c-1.2402-0.0014-2.3207 0.22418-3.2518 1.0809-0.99287 0.91379-1.3104 2.0911-1.344 3.3791-0.0233 0.93269 0.0181 1.8669-8e-3 2.7996-0.0207 0.74511-0.27143 1.0003-1.0107 1.1208-0.19597 0.03233-0.39716 0.04088-0.59629 0.04088-5.389 0.0021-10.778 0.0054-16.167-0.0078-0.20684-6.86e-4 -0.47211-0.07973-0.612-0.22004-3.1134-3.1317-6.7849-5.421-10.804-7.1862-4.0414-1.7747-8.0948-3.5226-12.132-5.3068-1.3607-0.60203-2.6492-1.3392-3.706-2.4186-0.80429-0.82106-1.2151-1.7673-1.2151-2.9541 0-4.2253-5e-3 -8.4422 4.9e-4 -12.664 3e-3 -2.3809 1.8606-4.6696 4.1509-5.116" fill="#fff"/>
  <path d="m-252.83 97.497c0.0233-7.5091-12.543-6.0339-12.555-10.203-0.0233-6.1922-0.59383-6.063 2.66-5.9841 2.9908 0.05773 2.5966-0.54314 2.6551 6.784l7.1675 0.06446v-4.1907c0.0593-4.4787 0.48839-8.8184-9.7692-8.8212-6.6382-0.0014-9.8534 1.3518-9.8413 6.657v7.6546c-2e-5 8.3579 12.705 6.5486 12.663 10.254 0.0743 7.8281 0.17965 7.4694-2.7321 7.518-2.9897 2e-3 -2.732 0.2845-2.8576-7.053h-7.0732v6.5022c-0.0129 3.597 1.5209 6.6231 9.8413 6.606 8.7516-0.0181 9.8433-3.1936 9.8413-6.6571v-2.8393-6.2921z" fill="#fff"/>
  <path d="m-232.56 75.556c-3.9668 0-12.922-5.18e-4 -13.01-5.18e-4v37.286h7.0532v-12.01h4.8241c6.7183-0.0448 7.4276-2.9824 7.4276-6.0841v-13.263c-0.0562-4.8735-3.6858-5.9243-6.2946-5.928zm-1.0335 17.715c0.0181 1.1473-0.0181 1.2986-1.4635 1.2986l-3.2521-2.6e-5c0-5.0655 5.5e-4 -8.0758 5.5e-4 -12.683l3.1529 2.33e-4c1.4907 2e-3 1.538 0.01036 1.5622 1.7335z" fill="#fff"/>
  <path d="m-209.13 75.181c-9.351-0.0052-10.117 3.0886-10.098 6.1006v26.164c0.0725 2.7123 1.5328 5.8734 9.9178 5.8734 8.5654 0 9.911-3.1463 9.9178-5.9246v-26.113c0-3.1861-1.0708-6.0955-9.7375-6.1006zm2.6249 27.704c-0.0541 3.5913 0.81943 4.2235-2.715 4.2421-3.1502 0.0181-2.8195-0.30663-2.8681-4.2421l-0.0904-15.616c-0.051-5.7965-0.50195-5.7715 2.919-5.8175 3.3417-0.04479 2.7052-0.03624 2.7543 5.8687z" fill="#fff"/>
  <path d="m-171.94 101.96c0.037-2.2162 0.13539-6.3566-3.5928-6.7093 3.7282-0.35264 3.4908-4.2646 3.4908-6.5315v-6.8573c0.0155-4.2199-1.7725-6.3361-7.0178-6.3448l-12.499-0.02071v37.448h6.8502v-14.526c6.3812-0.59841 5.6888 1.5308 5.7398 2.0544 0 0.25188-0.0888 12.27-0.0888 12.472h7.1174v-4.6848zm-12.386-20.121c4.7068-0.06187 5.0462-0.06653 5.0392 0.7572l-0.0764 8.9232c-0.0104 0.85019 8e-3 0.89886-4.9627 0.89671z" fill="#fff"/>
  <path d="m-166.2 75.436v6.1801h6.6469v31.284h6.9603v-31.284h6.77v-6.1803z" fill="#fff"/>
  <path d="m-120.5 97.497c0.0233-7.5091-12.543-6.0339-12.555-10.203-0.0233-6.1922-0.59383-6.063 2.66-5.984 2.9908 0.05773 2.5966-0.54319 2.6551 6.784l7.1675 0.06446v-4.1907c0.0595-4.4786 0.48838-8.8183-9.7692-8.8212-6.6382-0.0014-9.8534 1.3519-9.8413 6.6571v7.6546c0 8.3579 12.705 6.5486 12.663 10.254 0.0743 7.8281 0.1794 7.4694-2.7321 7.518-2.9897 2e-3 -2.732 0.2845-2.8576-7.053h-7.0732v6.5022c-0.0129 3.5971 1.5209 6.6231 9.8413 6.606 8.7517-0.0181 9.8433-3.1936 9.8413-6.6571v-2.8393c0-0.56276 0-7.9381 3e-5 -6.2921z" fill="#fff"/>
  <path d="m-265.78 31.544h-6.5659v39.245h17.623v-6.2234h-10.23v-10.629h9.3125v-6.28h-9.3459v-9.8566h10.363v-6.2568z" fill="#fff"/>
  <path d="m-239.66 64.503v-32.959h-7.4071v39.245h16.709v-6.2868z" fill="#fff"/>
  <path d="m-192.57 70.79h11.971l6.8812-39.245h-7.6391l-5.274 29.964-5.2906-29.964h-7.4885z" fill="#fff"/>
  <path d="m-127.01 31.545v18.48c0.0261 1.0628-0.46033 1.1036-0.86539 0.17448l-6.1424-18.655h-7.2666v39.245h7.1255v-17.382c-0.0103-1.2575 0.58086-1.3877 0.98775-0.07999l5.3692 17.462h7.7294v-39.245z" fill="#fff"/>
  <path d="m-216.85 31.545h-6.5659v39.245h17.623v-6.2234h-10.23v-10.629h9.3125v-6.28h-9.3459v-9.8566h10.363v-6.2568z" fill="#fff"/>
  <path d="m-159.97 31.545h-6.566v39.245h17.623v-6.2234h-10.23v-10.629h9.3126v-6.28h-9.3459v-9.8566h10.363v-6.2568z" fill="#fff"/>
  <path d="m-263.93-24.413 1.4358 4.6603 5.7952-1.3814 1e-4 24.579-5.156-2.873e-4 -2.8e-4 5.8053 17.312-1.76e-4 1.3e-4 -5.805-5.1687 2.796e-4 1.8e-4 -31.602h-5.903z" fill="#e52837" opacity=".99"/>
 </g>
</svg>
