<svg width="200mm" height="63.114mm" version="1.1" viewBox="0 0 200 63.114" xmlns="http://www.w3.org/2000/svg">
 <g transform="translate(307.94 -108.45)">
  <path d="m-304.27 109.68h190.66c2.0306 0 4.4678 2.0928 4.4678 4.3635v51.708c0 2.3714-2.363 4.5683-4.4702 4.5683h-190.87c-1.1712 0-2.2378-1.2337-2.2378-2.5889v-55.266c0-1.5537 0.95457-2.7845 2.4537-2.7845z" fill="#fff" opacity=".99" stroke="#e42534" stroke-width="2.3922" style="paint-order:stroke markers fill"/>
  <path d="m-141.08 109.68h27.612c1.966 0 4.3256 2.0928 4.3256 4.3635v51.708c0 2.3714-2.2878 4.5683-4.3279 4.5683h-27.858c-1.1339 0-2.9443-2.0504-2.9443-3.4056v-53.633c0-1.9868 1.3078-3.6012 3.1923-3.6012z" fill="#1a2838" style="paint-order:stroke markers fill"/>
  <path d="m-233.3 117.6h-3.5937v21.48h9.6457v-3.4062h-5.5989v-5.8174h5.097v-3.4372h-5.1153v-5.3948h5.672v-3.4245z" fill="#e42534"/>
  <path d="m-219.01 135.64v-18.039h-4.0541v21.48h9.1454v-3.4409z" fill="#e42534"/>
  <path d="m-193.2 139.19h6.5966l3.792-21.626h-4.2096l-2.9063 16.512-2.9154-16.512h-4.1266z" fill="#e42534"/>
  <path d="m-157.33 117.57v10.146c0.0148 0.58351-0.25271 0.60587-0.4751 0.0959l-3.3723-10.242h-3.9894v21.546h3.9119v-9.543c-7e-3 -0.69038 0.31891-0.76184 0.5423-0.0439l2.9477 9.587h4.2435v-21.546z" fill="#e42534"/>
  <path d="m-226.23 153.8c0.0133-4.1594-6.9478-3.3422-6.9542-5.6515-0.0132-3.4299-0.32894-3.3584 1.4734-3.3146 1.6566 0.032 1.4383-0.30087 1.4707 3.7578l3.9702 0.0357v-2.3213c0.0326-2.4808 0.2705-4.8846-5.4114-4.8862-3.677-7.7e-4 -5.4579 0.74883-5.4512 3.6875v4.24c-1e-5 4.6296 7.0374 3.6274 7.0142 5.6798 0.0411 4.3362 0.0996 4.1374-1.5134 4.1643-1.656 7.7e-4 -1.5133 0.15755-1.5829-3.9068h-3.918v3.6017c-7e-3 1.9925 0.84248 3.6686 5.4513 3.6592 4.8477-0.01 5.4524-1.769 5.4513-3.6875v-1.5727-3.4853z" fill="#e42534"/>
  <path d="m-215 141.65c-2.1973 0-7.1578-1.9e-4 -7.2067-1.9e-4v20.653h3.9069v-6.6524h2.6722c3.7214-0.0249 4.1143-1.652 4.1143-3.3701v-7.3469c-0.0312-2.6996-2.0416-3.2816-3.4867-3.2836zm-0.57242 9.8126c8e-3 0.63548-8e-3 0.71927-0.8107 0.71927h-1.8014v-7.0255l1.7464 1.1e-4c0.82575 7.8e-4 0.85192 7e-3 0.86535 0.96024z" fill="#e42534"/>
  <path d="m-202.02 141.44c-5.1797-3e-3 -5.6038 1.7108-5.5935 3.3792v14.493c0.0401 1.5024 0.84902 3.2534 5.4936 3.2534 4.7445 0 5.4899-1.7428 5.4936-3.2817v-14.465c0-1.7648-0.59307-3.3764-5.3937-3.3792zm1.454 15.346c-0.0299 1.9893 0.45388 2.3394-1.5039 2.3498-1.7449 8e-3 -1.5618-0.16984-1.5887-2.3498l-0.0499-8.6502c-0.0282-3.2108-0.27809-3.197 1.6169-3.2224 1.851-0.0248 1.4985-0.0201 1.5256 3.2508z" fill="#e42534"/>
  <path d="m-181.42 156.28c0.0204-1.2275 0.075-3.521-1.9901-3.7164 2.0652-0.19532 1.9336-2.3622 1.9336-3.6179v-3.7984c8e-3 -2.3375-0.98183-3.5097-3.8873-3.5145l-6.9233-0.0115v20.743h3.7944v-8.0463c3.5347-0.33148 3.1511 0.84792 3.1794 1.1379 0 0.13943-0.049 6.7967-0.049 6.9084h3.9424v-2.595zm-6.8608-11.146c2.6072-0.0344 2.7952-0.0369 2.7913 0.4194l-0.0423 4.9427c-7e-3 0.47092 3e-3 0.49788-2.7489 0.49668z" fill="#e42534"/>
  <path d="m-178.24 141.58v3.4233h3.6819v17.329h3.8554v-17.329h3.75v-3.4234z" fill="#e42534"/>
  <path d="m-206.52 117.6h-3.5937v21.48h9.6457v-3.4062h-5.5989v-5.8174h5.097v-3.4372h-5.1153v-5.3948h5.672v-3.4245z" fill="#e42534"/>
  <path d="m-175.39 117.6h-3.5938v21.48h9.6458v-3.4062h-5.5989v-5.8174h5.097v-3.4372h-5.1153v-5.3948h5.672v-3.4245z" fill="#e42534"/>
  <path d="m-152.92 153.8c0.0132-4.1594-6.9478-3.3423-6.9543-5.6515-0.0132-3.4299-0.32894-3.3584 1.4734-3.3146 1.6566 0.032 1.4383-0.30086 1.4707 3.7578l3.9702 0.0357v-2.3213c0.0327-2.4808 0.27052-4.8846-5.4113-4.8862-3.677-7.8e-4 -5.458 0.74882-5.4513 3.6875v4.24c0 4.6296 7.0374 3.6274 7.0142 5.6798 0.0411 4.3361 0.0995 4.1374-1.5134 4.1643-1.656 7.8e-4 -1.5133 0.15756-1.5828-3.9068h-3.918v3.6017c-7e-3 1.9925 0.84247 3.6687 5.4513 3.6592 4.8477-0.01 5.4524-1.769 5.4513-3.6875v-1.5727-3.4853z" fill="#e42534"/>
  <path d="m-304.22 108.45h56.254c2.0641 0 3.7258 1.6602 3.7258 3.7224v55.67c0 2.0622-1.6617 3.7224-3.7258 3.7224h-56.254c-2.0641 0-3.7258-1.6602-3.7258-3.7224v-55.67c0-2.0622 1.6617-3.7224 3.7258-3.7224z" fill="#e42534" opacity=".99" style="paint-order:stroke markers fill"/>
  <path d="m-283.59 129.47c0.0731-0.0144 0.13904-0.0148 0.21402-0.0148l29.304-6.1e-4v-8.4385c0-1.7242-1.3769-3.1676-3.1011-3.1676h-37.688c-1.7242 0-3.2061 1.4433-3.2061 3.1676v38.085c0 1.7242 1.4819 3.3187 3.2061 3.3187h37.688c1.7242 0 3.1011-1.5945 3.1011-3.3187v-8.5288l-16.336-4e-3c-0.35011-4.1e-4 -0.6551 0.0633-0.91795 0.30528-0.28029 0.25796-0.36992 0.59017-0.3794 0.95375-7e-3 0.26327 5e-3 0.527-2e-3 0.7903-6e-3 0.21033-0.0766 0.28235-0.28532 0.31651-0.0553 9e-3 -0.11212 0.0115-0.16833 0.0115-1.5213 6.1e-4 -3.0426 7.7e-4 -4.5638-2e-3 -0.0584-2e-4 -0.13327-0.0225-0.17275-0.0622-0.87891-0.88405-1.9153-1.5303-3.0498-2.0285-1.1408-0.50099-2.2851-0.99441-3.4248-1.4982-0.38413-0.16981-0.74786-0.37792-1.0462-0.68278-0.22705-0.23177-0.343-0.49875-0.343-0.83392 0-1.1928-2e-3 -2.3832 2e-4 -3.5748 7.7e-4 -0.67226 0.52524-1.3182 1.1718-1.4444 0.0731-0.0141 0.13903-0.0151 0.21402-0.0151l29.304-6.1e-4v-5.5806l-16.336-4e-3c-0.3501-4.1e-4 -0.65509 0.0634-0.91795 0.30514-0.28029 0.25795-0.36993 0.59032-0.37939 0.95388-7e-3 0.26329 5e-3 0.52702-2e-3 0.7903-6e-3 0.21033-0.0767 0.28236-0.28532 0.3164-0.0553 9e-3 -0.11212 0.0115-0.16833 0.0115-1.5213 6.2e-4 -3.0426 7.7e-4 -4.5638-2e-3 -0.0584-2e-4 -0.13324-0.0225-0.17275-0.0622-0.87889-0.88407-1.9153-1.5303-3.0498-2.0286-1.1409-0.50097-2.2851-0.99441-3.4248-1.4981-0.38412-0.16993-0.74785-0.37806-1.0462-0.68276-0.22704-0.23177-0.34301-0.49891-0.34301-0.83393 0-1.1928-2e-3 -2.3832 2e-4 -3.5749 7.8e-4 -0.67211 0.52525-1.3182 1.1718-1.4442" fill="#fff"/>
  <path d="m-128.99 123.52-8.4876 22.623v4.4385l11.581-4.1e-4 4.1e-4 7.0878h6.3386v-7.0032h4.2861v-4.9966h-4.2973v-22.149zm3.0016 6.2461v15.793l-4.778 4e-4z" fill="#fff"/>
 </g>
</svg>
