<svg width="600" height="472.39" viewBox="0 0 158.75 124.986" xmlns="http://www.w3.org/2000/svg">
    <path d="M3.271 78.45h152.88c1.688 0 2.537.98 2.537 2.781 0 7.304.06 35.275.06 41.214 0 1.549-.559 2.537-2.597 2.537H23.411c-13.513 0-23.415-11.31-23.415-22.41V81.232c0-1.898.717-2.781 3.271-2.781" fill="#eb4770" fill-rule="evenodd"/>
    <path d="M146.38 120.4V80.376h-2.885v42.578h14.238V120.4zm-44.423-20.108V82.921h3.7c2.956 0 5.108.455 6.857 1.277 2.414 1.216 3.962 4.093 3.962 7.408 0 5.554-3.7 8.686-10.216 8.686zm10.085 1.784c4.504-1.207 7.39-5.3 7.39-10.408 0-3.953-1.609-7.146-4.504-9.122-2.353-1.531-4.907-2.17-9.472-2.17H99.07v42.579h2.886v-20.108h1.347l14.38 20.108h3.559l-14.642-20.108c2.956-.132 3.691-.254 5.44-.77m-43.077 20.878h2.895v-42.71h-2.895zm-42.158-17.878h15.796c-.2 4.023-.603 5.554-2.02 7.793-3.018 4.784-9.945 8.23-16.461 8.23-10.951 0-20.161-8.746-20.161-19.215 0-10.592 9.341-19.47 20.362-19.47 4.636 0 9.411 1.6 12.9 4.469 1.48 1.216 2.222 2.047 4.234 4.662l2.353-1.793c-2.414-2.869-3.429-3.892-5.38-5.362-3.961-3-8.93-4.592-14.037-4.592-12.84 0-23.388 9.893-23.388 21.963 0 12 10.478 21.893 23.187 21.893 6.446 0 12.9-2.676 17.065-7.145 3.297-3.517 4.434-7.085 4.434-13.601v-.385H26.806z" fill="#fff"/>
    <path d="M157.72 54.91s-.034 11.458-3.813 15.228c-3.21 3.21-6.586 3.507-12.13 3.507V37.076s3.83-.27 5.676 1.575c2.93 2.93 3.219 6.665 3.219 11.834h1.005V22.46h-1.005c0 5.16-.289 8.904-3.22 11.825-1.845 1.854-5.676 1.574-5.676 1.574V1.127c5.546 0 8.178.306 11.388 3.508 3.77 3.77 3.814 15.228 3.814 15.228h.953V-.01h-30.77v1.084h5.694v72.631h-5.694v1.085h31.523V54.91zM110.98 70.138c-3.21 3.21-6.595 3.507-12.131 3.507V1.11h5.195V-.01h-19.81v1.085h5.693v72.631h-5.694v1.085h31.514V54.91h-.953s-.044 11.458-3.813 15.228m-41.791 0c-3.21 3.21-6.587 3.507-12.131 3.507V1.11h5.195V-.01H42.442v1.085h5.694v72.631h-5.694v1.085h31.514V54.91h-.953s-.035 11.458-3.814 15.228m-42.368 0c-3.21 3.21-6.595 3.507-12.13 3.507V37.076s3.821-.27 5.676 1.575c2.921 2.93 3.21 6.665 3.21 11.834h1.006V22.46h-1.006c0 5.16-.289 8.904-3.21 11.825-1.855 1.854-5.677 1.574-5.677 1.574V1.127c5.537 0 8.17.306 11.38 3.508 3.778 3.77 3.813 15.228 3.813 15.228h.962V-.01H.075v1.084H5.76v72.631H.075v1.085h31.514V54.91h-.954s-.043 11.458-3.813 15.228" fill="#050607" fill-rule="evenodd"/>
</svg>
