<svg version="1.1" viewBox="0 0 800 307.06" xml:space="preserve" xmlns="http://www.w3.org/2000/svg">
<style type="text/css">
	.st0{fill:#F6316E;}
	.st1{fill:#FD7E2C;}
	.st2{fill:#C80725;}
	.st3{fill:#F1000B;}
	.st4{fill:#FB4940;}
	.st5{fill:#E61863;}
	.st6{fill:#F7184F;}
	.st7{fill:#FEBC2A;}
	.st8{fill:#FB1A2B;}
	.st9{fill:#B4AEA6;}
</style>
<g transform="scale(1.4777)">
	<path class="st0" d="m102.1 14.6c-8.6-9-24.5-14.2-40.3-14.2-1.7 0-3.4 0.1-5 0.2l57.8 36c-3.5-12.4-8.5-17.9-12.5-22z"/>
	<path class="st1" d="m402.9 57.9v50.1l43.1-26v-47.6c0-1.1 1.9-3.8 4.6-6.5 6-6 12.6-9.2 19.1-9.2 9.2 0 13.9 7.7 13.9 22.7v17.8l43.8-26.4v-0.2c-3.4-19.8-22.4-32-42.7-32-16.4 0-29.5 7.3-38.8 23.6l-0.1 0.1s-0.4-0.8-0.4-0.9c-2.1-4.2-4.9-8-8.4-11.3l-36.5 45.9c0.9-0.1 1.7-0.1 2.4-0.1z"/>
	<path class="st2" d="m86.3 113.2c-0.6 0.2-1.1 0.3-1.7 0.5-1 0.3-1.9 0.5-2.8 0.7-0.2 0.1-0.5 0.1-0.7 0.2-0.4 0.1-0.8 0.2-1.2 0.2-0.5 0.1-0.9 0.2-1.4 0.2-0.3 0-0.6 0.1-0.9 0.1-0.5 0.1-1.1 0.1-1.6 0.2h-0.6c-0.7 0-1.3 0.1-2 0.1s-1.3 0-2-0.1h-0.3c-0.6 0-1.1-0.1-1.7-0.2h-0.2l-1.8-0.3h-0.1c-0.6-0.1-1.2-0.2-1.8-0.4-15.1-3.7-23.5-19.2-23.5-41.5h21.3l-6.3-10.8h-15v-3.3-1.9-1.3-2.2-1c0-0.9 0-1.7 0.1-2.6v-0.4c0-0.9 0.1-1.8 0.1-2.6v-0.2c0-0.9 0.1-1.7 0.1-2.5v-0.2c0-0.9 0.1-1.7 0.2-2.5v-0.1c0.1-0.8 0.1-1.5 0.2-2.3 0-0.3 0.1-0.6 0.1-0.9l-15.5-27c-0.1 0.1-0.3 0.2-0.4 0.3-0.5 0.4-1.1 0.8-1.6 1.2l-0.1 0.1c-0.7 0.5-1.4 1.1-2.1 1.7l-0.3 0.3c-0.7 0.6-1.4 1.2-2 1.8l-0.3 0.3c-0.7 0.6-1.3 1.3-2 2s-1.3 1.4-1.9 2.1l-0.3 0.3c-0.6 0.7-1.2 1.5-1.8 2.2-9 11.5-14.4 26.7-14.4 44.6 0 37.1 26.6 64.4 59.6 64.4 5.4 0 10.5-0.4 15.2-1.3h0.2c0.9-0.2 1.8-0.4 2.8-0.6 0.2-0.1 0.4-0.1 0.7-0.2 0.7-0.2 1.4-0.3 2.1-0.5 0.3-0.1 0.5-0.1 0.8-0.2 0.8-0.2 1.6-0.5 2.4-0.8 0.3-0.1 0.6-0.2 0.9-0.3 0.6-0.2 1.2-0.4 1.7-0.6 0.3-0.1 0.6-0.2 0.9-0.4 0.7-0.3 1.5-0.6 2.2-0.9 0.3-0.1 0.7-0.3 1-0.5 0.5-0.2 1-0.5 1.5-0.7 0.3-0.2 0.6-0.3 0.9-0.5h0.1c0.1 0 0.1-0.1 0.2-0.1l-6.8-11.7c0 0.1-0.1 0.1-0.2 0.1z"/>
	<path class="st0" d="m209 95.5 52.7 32.9h3.3v-7.6c-9.1-0.7-12.1-5.2-12.6-14.2v-0.6c0-0.4 0-0.7-0.1-1.1v-1l-43.3-57.8z"/>
	<path class="st3" d="m528 103.8v-58l-36.9 82.6h50.2l0.1-7.1c-10.7-0.8-13.4-5.3-13.4-17.5z"/>
	<path class="st1" d="m386.4 115.9c-5.2-1.8-9.6-5.6-12.4-11.5-1-2-1.5-5.8-1.9-10.6l-18.8 23.6s0.1 0 0.1 0.1c4.7 3.7 10.5 6.2 17.4 7.8 0.7 0.2 1.5 0.3 2.2 0.5 0.1 0 0.2 0 0.3 0.1l15.4-9.3c-0.8-0.3-1.6-0.5-2.3-0.7z"/>
	<path class="st0" d="m176.8 35.1c0.3-4.3 5.2-10.2 10.3-13.6 0.1-0.1 0.2-0.1 0.3-0.2 0.3-0.2 0.5-0.3 0.8-0.5 0.1 0 0.2-0.1 0.2-0.1 0.3-0.2 0.7-0.4 1-0.5l-4.8-6.4-0.6 0.6c-0.5 0.5-1 1.1-1.5 1.7-2 2.4-3.9 5.1-5.8 8l-0.2 0.2-0.5-1.3c-7-12.3-19.4-22.6-43.1-23h-14.9v7.4c12 1.6 15.3 5.9 15.3 18.6v22.3l43.5 27.1z"/>
	<path class="st4" d="m270.3 18.7c10.4 0 14.5 8.9 14.5 25.7v24.5l19.7 59.2 23.7-90.4c-0.5-23.3-14.9-37.1-36.9-37.1-10.1 0-18.1 2.7-26.3 9.3l3.1 9.2c0.8-0.3 1.5-0.4 2.2-0.4z"/>
	<path class="st5" d="m120.7 120.7v7.6h68.7v-7.6c-10.1-0.8-12.6-6.2-12.6-17.3v-28l-43.5-27.1v55.1c0.1 11.1-2.5 16.5-12.6 17.3z"/>
	<path class="st5" d="m45.4 24.1c3.6-8.8 11.6-12.9 17.8-12.9 2.1 0 4.2 0.4 6.3 1.1 0.5 0.2 0.9 0.4 1.4 0.6 0 0.1 0.1 0.1 0.1 0.1 0.5 0.2 0.9 0.5 1.4 0.8 1 0.6 1.9 1.4 2.8 2.2 1.9 1.9 3.6 4.5 4.8 7.8 1.9 5.5 2.3 18.9 2.3 33l0.1 5.2h-25.5l6.3 10.8h55.3c0-12.9-1-22.7-2.5-30.4 0-0.2-0.1-0.3-0.1-0.5 0-0.1-0.1-0.3-0.1-0.4-0.1-0.5-0.2-0.9-0.3-1.4 0-0.1 0-0.2-0.1-0.3-0.1-0.5-0.2-1-0.4-1.5v-0.1c-0.2-0.6-0.3-1.2-0.5-1.8l-57.8-36c-1.2 0.1-2.4 0.2-3.5 0.4h-0.1c-0.4 0-0.7 0.1-1.1 0.1-9 1.6-17.4 5.1-24.7 10.2l15.6 26.8c0.5-6.2 1.3-11 2.5-13.8z"/>
	<path class="st5" d="m209 103.4c0 11.1-2.5 16.5-12.6 17.3v7.6h65.4l-52.8-32.8z"/>
	<path class="st5" d="m117.5 102.4-6.6-3.8c-6.2 6.3-15.4 11.6-24.3 14.5l6.8 11.7c9-4.8 16.8-12.1 24.1-22.4z"/>
	<path class="st6" d="m284.7 68.9v36.3c0 0.5 0 1-0.1 1.5v0.7c0 0.3-0.1 0.6-0.1 0.9 0 0.4-0.1 0.9-0.2 1.3-1 6.9-4.3 10.4-12.2 11v7.6h32.3l0.1-0.3z"/>
	<path class="st6" d="m252.5 102.2v-67.8c0-3.5 4.2-8.5 8.9-12 0.3-0.2 0.7-0.5 1-0.7 0.1-0.1 0.2-0.1 0.2-0.2l0.9-0.6c0.1-0.1 0.3-0.2 0.4-0.2 0.2-0.1 0.3-0.2 0.5-0.3 0.3-0.2 0.6-0.3 0.9-0.5 0.1 0 0.1-0.1 0.2-0.1 0.8-0.4 1.7-0.7 2.5-0.9h0.1l-3.1-9.1-0.1 0.1c-0.2 0.2-0.5 0.4-0.7 0.6-0.3 0.2-0.5 0.5-0.8 0.7-3.9 3.4-7.9 7.6-12.3 12.9-8.2-17.1-17.8-23.6-35-23.6-13.2 0-23 4.1-31.5 13.2l4.8 6.4c1.7-0.9 3.4-1.4 4.8-1.4 10.7 0 14.8 6.2 14.8 22.5v4.9l43.5 57.7v-0.4z"/>
	<path class="st7" d="m372.1 93.8c-0.1-1.2-0.2-2.4-0.2-3.7-0.1-2.3-0.1-3.1 0-5.3 0.3-6.4 0.9-11.8 2.1-14.3 3.5-7.5 9.6-11.8 16.7-12.4 0.4 0 5-0.1 8.9-0.1h1l36.4-45.9-0.3-0.3c-0.2-0.1-0.3-0.3-0.5-0.4l-0.1-0.1c-7.5-6.6-18.3-11-34-11.3h-13.8v6.7c10.6 0 14.5 8.1 14.5 19.7v20.9h-12.6c-16.6 0.5-30.8 4-39 11.7-5.5 5.2-10.1 14.1-10.3 26v4.7c0.2 11.9 4.8 20.8 10.3 26 0.6 0.6 1.3 1.1 1.9 1.7l19-23.6z"/>
	<path class="st7" d="m304.5 128.4h37.4l-0.1-7.7c-8.3-0.4-11.9-3.6-13.2-10.4-0.1-0.5-0.2-0.9-0.2-1.4v-0.1c-0.1-0.5-0.1-1-0.1-1.5v-0.4c0-0.4-0.1-0.9-0.1-1.4v-2-64.5-1.3l-23.7 90.4z"/>
	<path class="st7" d="m351.7 30c1-3.1 6.3-7.5 12.6-6.3 4.4 0.8 8.1 5.7 8.1-1.8 0-6.3 3.9-13 11.1-14.5v-6.3c-7.1 1.5-13.5 3.2-16.5 16.8-13.4-2.6-17.6 6.8-17.8 12.2-0.2 3.6 0.3 6.3 2.5-0.1z"/>
	<polygon class="st6" points="304.4 128.4 304.5 128.4 304.4 128.1"/>
	<path class="st8" d="m528 45.4v-6.4c0-2.2-0.2-4.3-0.5-6.3l-43.8 26.4v44.2c0 11.1-2.5 16.5-12.6 17.3v7.6h20.1l36.8-82.4z"/>
	<path class="st8" d="m373.5 125.9c4.5 0.9 9.5 1.5 15 1.8 3.1 0.2 9.9 0.7 14.3 0.7h55.8v-7.6c-10.1-0.8-12.6-6.2-12.6-17.3v-21.4l-43.1 26v9.3c0.4 0.1-8.4 0.3-14.1-0.8l-15.4 9.3c0-0.1 0.1-0.1 0.1 0z"/>


	
		<path class="st9" d="m27.9 163.5c5.3 0 10 3.4 12.2 7.6l9.6-4.7c-3.7-6.6-10.3-12.8-21.8-12.8-15.8 0-27.9 10.9-27.9 27.1 0 16.1 12.1 27.1 27.9 27.1 11.4 0 18.1-6.3 21.8-12.9l-9.6-4.6c-2.2 4.2-6.9 7.6-12.2 7.6-9.6 0-16.4-7.3-16.4-17.2-0.1-9.9 6.8-17.2 16.4-17.2zm93.9 11.5h-24.6v-20.5h-11.2v52.3h11.1v-22h24.7v22h11.2v-52.3h-11.2zm65.9-20.5-20.1 52.3h12.6l3.3-8.9h22.4l3.3 8.9h12.6l-20.1-52.3zm-1.2 33.6 8.1-22.5 8.1 22.5zm103.9-0.8-24.2-32.9h-11.4v52.3h11.1v-34.1l24.9 34.1h10.7v-52.3h-11.1zm90 0-24.2-32.9h-11.4v52.3h11.1v-34.1l24.9 34.1h10.7v-52.3h-11.1zm52.7 19.5h37v-9.8h-25.8v-11.9h25.3v-9.8h-25.3v-11h25.8v-9.8h-37zm86.2-9.8v-42.5h-11.2v52.3h33.3v-9.8z"/>
	
</g>
</svg>
