<svg version="1.1" viewBox="0 0 150 160.6" xmlns="http://www.w3.org/2000/svg">
 <g transform="matrix(3.7796 0 0 3.7796 -127.22 -398.27)" stroke-width=".26458">
  <g transform="matrix(.26458 0 0 .26458 -295.35 572.24)">
   <path class="a" d="m1352-1725.6v13.318l9.0487-3.1979s0.061 35.014 0 36.84c-0.9838 10.671-12.123 7.2704-15.747 4.5515-1.1274-0.8386-9.4724-6.6537-9.4724-6.6537 8.1023-2.8714 20.779-13.249 14.509-27.357a18.253 18.253 0 0 0-21.69-9.672l-37.916 13.268v13.064l5.4886-1.9268v18.202l-24.445-22.945-25.144 8.7906-0.01 13.093 7.5922-2.7881v37.28l-0.052-0.3458v13.719l21.202-6.9653v-30.815l24.418 22.306 18.951 7.068-0.2925-29.139s16.291 8.2387 20.829 10.951a33.525 33.525 0 0 0 25.914 3.1198 25.386 25.386 0 0 0 18.987-24.91c0-4.6889 0.067-60.028 0.067-60.028zm-24.518 34.247c-2.6873 0.9123-10.623 3.8804-10.623 3.8804v-12.618s5.4854-1.9533 8.2072-2.882c2.6799-0.9148 5.03 1.7421 5.1789 4.3496 0.1289 2.3258 0.5696 5.7037-2.7629 7.2702zm42.938-45.702a13.751 13.751 0 1 0-13.748-13.751 13.752 13.752 0 0 0 13.748 13.751z" fill="#683c11" stroke-width=".070005"/>
   <polygon class="a" transform="matrix(3.0336,0,0,3.0336,1182,-1798)" points="20.277 51.894 20.277 63.963 69.723 46.842 69.723 34.733" fill="#683c11" stroke-width=".023076"/>
   <g transform="matrix(3.0336,0,0,3.0336,1182,-1799.3)" fill="#fff" stroke-width=".023076">
    <path class="b" d="m26.209 51.028 1.9384-0.66353 1e-3 7.3473 3.4325-1.1748 1.2e-4 1.4547-5.3709 1.8384z"/>
    <path class="b" d="m32.428 52.88a3.9704 3.9704 0 0 1 0.48449-1.2568 3.4982 3.4982 0 0 1 0.88187-0.96753 4.7181 4.7181 0 0 1 1.339-0.68649 3.753 3.753 0 0 1 1.3866-0.27112 1.2512 1.2512 0 0 1 0.875 0.36 1.9159 1.9159 0 0 1 0.45778 0.94046 6.9749 6.9749 0 0 1 0.13486 1.4824 7.5744 7.5744 0 0 1-0.148 1.5547 3.9562 3.9562 0 0 1-0.48449 1.2568 3.2597 3.2597 0 0 1-0.88137 0.94915 5.0514 5.0514 0 0 1-1.3395 0.66814 3.9881 3.9881 0 0 1-1.3863 0.28344 1.223 1.223 0 0 1-0.87534-0.34144 1.8789 1.8789 0 0 1-0.45778-0.94044 7.0051 7.0051 0 0 1-0.13448-1.4767 7.5644 7.5644 0 0 1 0.14762-1.5546zm1.7369 1.8466a2.4974 2.4974 0 0 0 0.12795 0.69592 0.65084 0.65084 0 0 0 0.30289 0.377 0.68776 0.68776 0 0 0 0.53837-0.01136 1.2273 1.2273 0 0 0 0.78075-0.80974 6.0157 6.0157 0 0 0 0.215-1.8613 4.6265 4.6265 0 0 0-0.21552-1.7137 0.55371 0.55371 0 0 0-0.78074-0.27523 1.1832 1.1832 0 0 0-0.53837 0.35666 1.6101 1.6101 0 0 0-0.30289 0.58477 3.548 3.548 0 0 0-0.12771 0.78339q-0.027 0.44075-0.02682 0.946 0 0.50563 0.02709 0.92763z"/>
    <path class="b" d="m42.807 53.371a2.7945 2.7945 0 0 1-0.76721 0.96558 3.6286 3.6286 0 0 1-1.077 0.578 1.7208 1.7208 0 0 1-1.3662 0.04228q-0.47809-0.26133-0.47832-1.2601l-5e-4 -4.9188 1.8577-0.63577 4.7e-4 4.5735q0 0.51795 0.1886 0.65677a0.6689 0.6689 0 0 0 0.60581-0.0041 1.3713 1.3713 0 0 0 0.98225-1.4334l-4.9e-4 -4.401 1.8575-0.636 1e-3 6.6325-1.7768 0.608-2.5e-4 -0.77664z"/>
    <path class="b" d="m47.76 45.82 2.5e-4 0.77661 0.02658-0.0092a2.9857 2.9857 0 0 1 0.7672-0.98394 3.4006 3.4006 0 0 1 1.077-0.59662 1.6555 1.6555 0 0 1 1.366-0.02391q0.47808 0.28016 0.4782 1.2787l7.1e-4 4.9188-1.8575 0.636-7.4e-4 -4.5735q0-0.518-0.18847-0.65678a0.66872 0.66872 0 0 0-0.60578 0.0039 1.372 1.372 0 0 0-0.98251 1.4336l7.2e-4 4.401-1.8577 0.63575-1e-3 -6.632z"/>
    <path class="b" d="m58.273 48.521a3.3785 3.3785 0 0 1-0.69278 2.1603 4.908 4.908 0 0 1-2.3219 1.4358 2.8077 2.8077 0 0 1-1.8241 0.16215 1.0378 1.0378 0 0 1-0.63938-1.0939l1.7768-0.60846a0.38387 0.38387 0 0 0 0.28272 0.40862 0.93366 0.93366 0 0 0 0.28923 0.03672 1.1116 1.1116 0 0 0 0.32984-0.06354 1.364 1.364 0 0 0 0.79427-0.60484 1.8296 1.8296 0 0 0 0.22883-0.90446l-2.4e-4 -0.87521-0.02705 0.0094a3.5664 3.5664 0 0 1-0.693 0.82907 2.54 2.54 0 0 1-0.85468 0.51445 1.4897 1.4897 0 0 1-1.6627-0.20151 3.5966 3.5966 0 0 1-0.55866-2.3915 10.321 10.321 0 0 1 0.074-1.2089 4.4587 4.4587 0 0 1 0.30952-1.1968 3.2472 3.2472 0 0 1 0.68621-1.0301 3.0086 3.0086 0 0 1 1.2046-0.72069 1.7612 1.7612 0 0 1 0.80757-0.07913 0.949 0.949 0 0 1 0.68674 0.48013l0.02707-0.0093-2.5e-4 -0.73967 1.7768-0.6082zm-3.6819-0.86022a1.5351 1.5351 0 0 0 0.13483 0.50238 0.56879 0.56879 0 0 0 0.283 0.28537 0.66214 0.66214 0 0 0 0.4777-0.02175 1.1832 1.1832 0 0 0 0.49127-0.31 1.5641 1.5641 0 0 0 0.30954-0.49438 2.6721 2.6721 0 0 0 0.16141-0.65316 6.1892 6.1892 0 0 0 0.04713-0.78678 4.3163 4.3163 0 0 0-0.209-1.6419q-0.20877-0.43389-0.76018-0.24526a1.1614 1.1614 0 0 0-0.79428 0.796 3.153 3.153 0 0 0-0.14161 0.78821q-0.03333 0.47374-0.03333 1.1396a5.7019 5.7019 0 0 0 0.03352 0.64172z"/>
    <path class="b" d="m61.302 45.29a3.1138 3.1138 0 0 0 0.04738 0.55723 1.2904 1.2904 0 0 0 0.15465 0.44 0.57347 0.57347 0 0 0 0.28295 0.2484 0.617 0.617 0 0 0 0.43059-0.01789 1.1945 1.1945 0 0 0 0.68652-0.5432 2.838 2.838 0 0 0 0.296-1.0383l1.669-0.57124a3.4728 3.4728 0 0 1-0.67273 1.993 3.9834 3.9834 0 0 1-1.9515 1.2722 3.2096 3.2096 0 0 1-1.575 0.231 1.2361 1.2361 0 0 1-0.83488-0.52774 2.252 2.252 0 0 1-0.32959-1.0216 12.327 12.327 0 0 1-0.06089-1.2367 8.5975 8.5975 0 0 1 0.10053-1.3166 4.0057 4.0057 0 0 1 0.404-1.2354 3.4955 3.4955 0 0 1 0.868-1.0615 4.6636 4.6636 0 0 1 1.5076-0.79958 3.1088 3.1088 0 0 1 1.3259-0.21361 1.2409 1.2409 0 0 1 0.81457 0.39944 1.8826 1.8826 0 0 1 0.40377 0.92208 7.5314 7.5314 0 0 1 0.108 1.3498v0.38227l-3.6748 1.258zm1.844-2.844a1.2122 1.2122 0 0 0-0.14112-0.44487 0.43655 0.43655 0 0 0-0.283-0.21131 0.86566 0.86566 0 0 0-0.46417 0.05414 1.2056 1.2056 0 0 0-0.46469 0.27619 1.4273 1.4273 0 0 0-0.28947 0.40716 1.9763 1.9763 0 0 0-0.15465 0.4782 2.6029 2.6029 0 0 0-0.04712 0.48473l2.3e-4 0.2588 1.8981-0.64978a6.0837 6.0837 0 0 0-0.05412-0.65322z"/>
   </g>
   <g transform="matrix(3.0336,0,0,3.0336,1182,-1798)" fill="#683c11" stroke-width=".023076">
    <path class="a" d="m21.324 30.216 2.9537-1.0066-0.0011 0.8506-1.8557 0.63242-6.4e-4 0.47 1.7239-0.58747-5.9e-4 0.85059-1.7239 0.58747-6.4e-4 0.46927 1.8566-0.63243-7.4e-4 0.85087-2.9538 1.0064z"/>
    <path class="a" d="m27.298 28.157 1.2533-0.427 1.111 1.5576 0.01185-0.0042 0.0013-1.936 1.0508-0.35839-3e-3 3.4913-1.2026 0.40973-1.1658-1.558-0.0074 3e-3 -0.0012 1.9555-1.0513 0.35792z"/>
    <path class="a" d="m33.915 25.877 2.954-1.0064-0.0011 0.85084-1.8561 0.63241-6.2e-4 0.46951 1.7242-0.58752-6.4e-4 0.85112-1.7243 0.58749-7.5e-4 0.469 1.8567-0.63241-4.7e-4 0.85062-2.9539 1.0066z"/>
    <path class="a" d="m39.888 23.818 2.3116-0.78767a1.1655 1.1655 0 0 1 0.65757-0.097 0.70148 0.70148 0 0 1 0.37717 0.71732 1.1376 1.1376 0 0 1-0.429 0.94269v0.0099c0.16366 0.0032 0.29621 0.134 0.31474 0.43052l0.04615 0.7467a0.64892 0.64892 0 0 0 0.13577 0.36479l-1.1984 0.408a2.5071 2.5071 0 0 1-0.058-0.64007c-0.01185-0.25474-0.08148-0.388-0.28388-0.31915l-0.77805 0.26536-1e-3 1.0757-1.0972 0.37423zm1.0957 1.1611 0.779-0.26509a0.4058 0.4058 0 0 0 0.30388-0.43049c4.7e-4 -0.26436-0.13577-0.28141-0.3187-0.2197l-0.763 0.26016z"/>
    <path class="a" d="m48.251 22.441 1.5605-0.53169-1e-3 1.99-0.47144 0.16068-0.12442-0.27572a2.2538 2.2538 0 0 1-1.2727 0.87381c-0.77013 0.26265-1.8172 0.37939-1.8153-1.2342a2.4927 2.4927 0 0 1 1.8148-2.5008c1.2224-0.41614 1.8009-0.19325 1.8864 0.67758l-1.2372 0.42186a0.32134 0.32134 0 0 0-0.21379-0.2846 0.66564 0.66564 0 0 0-0.37417 0.04444 1.1428 1.1428 0 0 0-0.73215 1.2369c-1e-3 0.6455 0.271 0.89481 0.81657 0.70919a0.89418 0.89418 0 0 0 0.6156-0.64946l-0.45221 0.15379z"/>
    <path class="a" d="m53.766 21.544-1.2312-2.0883 1.253-0.42676 0.52776 1.1882 0.53071-1.5492 1.253-0.42676-1.2357 2.9285-1e-3 0.98292-1.097 0.374z"/>
   </g>
  </g>
 </g>
</svg>
