<?xml version="1.0" encoding="UTF-8"?>
<svg width="213.96" height="300" version="1.1" viewBox="0 0 213.96 300" xmlns="http://www.w3.org/2000/svg" xmlns:cc="http://creativecommons.org/ns#" xmlns:dc="http://purl.org/dc/elements/1.1/" xmlns:rdf="http://www.w3.org/1999/02/22-rdf-syntax-ns#">
 <metadata>
  <rdf:RDF>
   <cc:Work rdf:about="">
    <dc:format>image/svg+xml</dc:format>
    <dc:type rdf:resource="http://purl.org/dc/dcmitype/StillImage"/>
    <dc:title/>
   </cc:Work>
  </rdf:RDF>
 </metadata>
 <g fill="none" stroke-width="2">
  <path d="m213 136.91c-3.11 10.86-5.41 19.08-15.76 24.81-8.18 4.54-22.86 6.93-32.42 2.44-11.44-5.38-21.33-13.48-31.75-20.77-12.42-8.69-28.74-10.08-42.71-4.25-10.61 4.42-20.39 13.82-27.86 23.04a1.12 1.12 0 0 1-1.77-0.03l-2.21-2.93a0.9 0.9 0 0 0-1.49 0.08l-2 3.31" stroke="#71000d" vector-effect="non-scaling-stroke"/>
  <path d="m44.46 177.9q-9.31 2.43-19.37 3.02-0.5 0.03-0.89 0.36l-5.9 4.98a1.19 1.19 0 0 0-0.42 0.79q-0.28 2.63 0.47 4.62" stroke="#71000d" vector-effect="non-scaling-stroke"/>
  <path d="m18.35 191.67 13.48 13.64" stroke="#ca0918" vector-effect="non-scaling-stroke"/>
  <path d="m44.51 187.23q-0.07-0.3-0.51-0.29c-7.03 0.14-15.33-0.07-17.78 8.31a0.35 0.35 0 0 1-0.62 0.12l-2.08-2.71a0.5 0.49 33.8 0 0-0.87 0.17q-0.2 0.73-0.66 1.27a0.5 0.49-37.8 0 1-0.82-0.1l-1.28-2.64a0.59 0.59 0 0 0-1.05-0.03q-0.17 0.3-0.49 0.34" stroke="#59090b" vector-effect="non-scaling-stroke"/>
  <path d="m59.11 176.09-1.26-0.45a0.22 0.22 0 0 0-0.28 0.13l-0.04 0.11a5.56 0.81-70.4 0 0-1.1 5.51l0.15 0.06a5.56 0.81-70.4 0 0 2.62-4.97l0.04-0.11a0.22 0.22 0 0 0-0.13-0.28" stroke="#7c7c7b" vector-effect="non-scaling-stroke"/>
 </g>
 <path d="m189.13 0h5.11q16.05 3.25 18.76 19.36v4.11q-2.38 12.93-13.13 17.36c-7.73 3.19-17.3 1.75-23.14-4.29-12.76-13.19-5.27-33.54 12.4-36.54z" fill="#e2001a"/>
 <path d="m213 43.13v93.78c-3.11 10.86-5.41 19.08-15.76 24.81-8.18 4.54-22.86 6.93-32.42 2.44-11.44-5.38-21.33-13.48-31.75-20.77-12.42-8.69-28.74-10.08-42.71-4.25-10.61 4.42-20.39 13.82-27.86 23.04a1.12 1.12 0 0 1-1.77-0.03l-2.21-2.93a0.9 0.9 0 0 0-1.49 0.08l-2 3.31-10.07-9.29a0.29 0.29 0 0 0-0.48 0.21l-0.02 24.37q-9.31 2.43-19.37 3.02-0.5 0.03-0.89 0.36l-5.9 4.98a1.19 1.19 0 0 0-0.42 0.79q-0.28 2.63 0.47 4.62l13.48 13.64-31.83 11.15v-21.24l11.2-3.96q0.54-0.19 0.54-0.75v-57.18a0.24 0.24 0 0 0-0.32-0.22l-11.42 4.12v-20.27l38.35-13.47a0.95 0.96 57.3 0 1 0.97 0.21l36.88 34.83a0.32 0.32 0 0 0 0.54-0.23l-0.01-26.93q0-0.64-0.6-0.43l-7.12 2.57a0.55 0.55 0 0 1-0.74-0.52v-18.98q0-0.57 0.55-0.77 26.09-9.2 51.43-18.15 9.44-3.34 13.8-3.56c9.11-0.46 17.95 4.09 23.42 11.4 14.03 18.77-0.2 40.04-18.81 47.06q-0.73 0.28-0.1 0.73 7.89 5.61 15.87 11.12 5.01 3.46 11.97 3.07c7.39-0.41 10.61-5.43 10.63-12.41q0.09-27.92 0.1-55.61a0.48 0.47 80.1 0 0-0.63-0.45l-12.88 4.56q-0.56 0.2-0.56-0.39v-19.39q0-0.7 0.66-0.93zm-86.89 70.23c3.64-2.87 3.71-6.49 3.41-10.61-0.27-3.68-3.47-8.5-7.78-7.17q-3.06 0.94-12.58 4.46-0.51 0.18-0.51 0.72l0.02 18.72a0.25 0.26 80.3 0 0 0.34 0.24l16.83-6.21a0.79 1.08 24.8 0 0 0.27-0.15z" fill="#e2001a"/>
 <path d="m213 136.91v1.94c-1.68 16.28-10.58 33.36-25.76 39.35q-32.86 12.96-62.38-5.57-6.4-4.02-8.09-4.61-4.61-1.6-9.53-0.73c-9.98 1.77-23.35 12.01-11.21 22.52a0.82 0.81 42.9 0 1 0.05 1.18q-2.21 2.24-4.69 4.14-12.88 9.9-27.1 17.72c-4.57 2.51-7.77 5.49-11.39 8.93q-0.29 0.28-0.34 0.67l-0.23 1.73q-0.08 0.61-0.61 0.29-1.11-0.66-2.08-1.5-0.9-0.76-1.41-0.41-0.54 0.37-1.01 1.54a0.21 0.21 0 0 1-0.35 0.07q-1.51-1.65-3.58-2.43-0.46-0.18-0.77-0.57c-4.35-5.52-1.48-7.81 3.22-10.93q0.42-0.27 0.91-0.3c12.41-0.79 23.04-10.39 30.18-19.65 5.92-7.68-6.24-9.66-5.56-2.96q0.14 1.4 1.04 1.96a1.29 1.29 0 0 1 0.15 2.07q-3.42 2.94-7.66 4.67-0.55 0.23-0.83-0.3-0.37-0.68-0.98-1.16-0.82-0.63 0.21-0.51c2.03 0.24 2.59-1.47 2.01-3.05q-0.96-2.63-4.9-2.47a1.52 1.52 0 0 0-1.16 2.43l0.38 0.5q0.36 0.48-0.22 0.65-0.87 0.24-1.43 0.91a1.93 1.92 44 0 1-2.88 0.05l-2.87-3.13a0.73 0.74 33.4 0 1-0.15-0.76l0.7-1.96a0.55 0.54 8.6 0 0-0.54-0.73q-3.58 0.17-7.14 0.23-0.2 0-0.49 0.5-0.07-0.3-0.51-0.29c-7.03 0.14-15.33-0.07-17.78 8.31a0.35 0.35 0 0 1-0.62 0.12l-2.08-2.71a0.5 0.49 33.8 0 0-0.87 0.17q-0.2 0.73-0.66 1.27a0.49 0.5 52.2 0 1-0.82-0.1l-1.28-2.64a0.59 0.59 0 0 0-1.05-0.03q-0.17 0.3-0.49 0.34-0.75-1.99-0.47-4.62a1.19 1.19 0 0 1 0.42-0.79l5.9-4.98q0.39-0.33 0.89-0.36 10.06-0.59 19.37-3.02l6.5-3.73q0.47-0.27 0.42-0.81c-0.18-1.73-0.4-4.11 1.12-5.31q0.45-0.35 0.77 0.11 0.57 0.83 0.8 1.04 1.97 1.84 1.64-0.88l-0.68-5.71 2-3.31a0.9 0.9 0 0 1 1.49-0.08l2.21 2.93a1.12 1.12 0 0 0 1.77 0.03c7.47-9.22 17.25-18.62 27.86-23.04 13.97-5.83 30.29-4.44 42.71 4.25 10.42 7.29 20.31 15.39 31.75 20.77 9.56 4.49 24.24 2.1 32.42-2.44 10.35-5.73 12.65-13.95 15.76-24.81zm-153.89 39.18-1.26-0.45a0.22 0.22 0 0 0-0.28 0.13l-0.04 0.11a0.81 5.56 19.6 0 0-1.1 5.51l0.15 0.06a0.81 5.56 19.6 0 0 2.62-4.97l0.04-0.11a0.22 0.22 0 0 0-0.13-0.28z"/>
 <path d="m59.11 176.09a0.22 0.22 0 0 1 0.13 0.28l-0.04 0.11a0.81 5.56 19.6 0 1-2.62 4.97l-0.15-0.06a0.81 5.56 19.6 0 1 1.1-5.51l0.04-0.11a0.22 0.22 0 0 1 0.28-0.13z" fill="#f8f8f7" fill-opacity=".996"/>
 <path d="m44.51 187.23-0.04 13.15q0 0.53-0.5 0.7l-12.14 4.23-13.48-13.64q0.32-0.04 0.49-0.34a0.59 0.59 0 0 1 1.05 0.03l1.28 2.64a0.49 0.5 52.2 0 0 0.82 0.1q0.46-0.54 0.66-1.27a0.5 0.49 33.8 0 1 0.87-0.17l2.08 2.71a0.35 0.35 0 0 0 0.62-0.12c2.45-8.38 10.75-8.17 17.78-8.31q0.44-0.01 0.51 0.29z" fill="#b11116"/>
 <g>
  <path d="m166.4 255.26-2.69-0.04q-1-0.02-1-1.01v-4.42a1 1.01 0 0 1 1-1.01l13.98-0.01q0.67 0 0.67 0.67l0.05 14.63a0.72 0.72 0 0 1-0.72 0.72l-3.12 0.02q-0.54 0-0.85-0.45l-1.05-1.55a0.59 0.58 55.8 0 0-0.81-0.16c-4.6 3.11-9.11 3.19-14.86 2.86-8.89-0.5-15.59-4.44-15.69-14.26q-0.13-12.49 11.97-14.9c8.47-1.68 23.06-1.41 25.27 9.01a0.79 0.8 83.9 0 1-0.78 0.96l-10.64-0.08a1.39 1.38 73.4 0 1-1.16-0.63q-2.41-3.81-7.5-2.7c-8.08 1.77-7.71 14.38 0.83 15.76 2 0.33 7.02-0.18 7.58-2.81q0.12-0.59-0.48-0.6z"/>
  <path d="m0 236.74 29.05 0.04q0.74 0 0.74 0.75l-0.03 5.26a0.8 0.81 0.4 0 1-0.8 0.8l-17.12 0.04a0.64 0.64 0 0 0-0.64 0.63l-0.02 2.47a0.55 0.55 0 0 0 0.55 0.55l16.06 0.01a0.76 0.75 0 0 1 0.76 0.75v5.41q0 0.75-0.75 0.75l-16.29 0.02a0.38 0.38 0 0 0-0.38 0.39l0.03 2.91q0 0.36 0.37 0.36l17.1 0.02q1.12 0.01 1.12 1.12l0.04 4.55q0.01 1.19-1.18 1.19l-28.61-0.04z"/>
  <path d="m57.59 236.74 10.06-0.01a0.35 0.35 0 0 1 0.35 0.35l0.01 27.34a0.35 0.35 0 0 1-0.35 0.35h-11.63a0.35 0.35 0 0 1-0.28-0.14l-11.01-14.76a0.35 0.35 0 0 0-0.63 0.21l0.06 14.36a0.35 0.35 0 0 1-0.35 0.35l-9.99-0.01a0.35 0.35 0 0 1-0.35-0.35l0.02-27.34a0.35 0.35 0 0 1 0.35-0.35l12.08-0.03a0.35 0.35 0 0 1 0.29 0.15l10.44 14.56a0.35 0.35 0 0 0 0.64-0.21l-0.06-14.12a0.35 0.35 0 0 1 0.35-0.35z"/>
  <path d="m84.29 257.95 17.18-0.05a0.78 0.78 0 0 1 0.78 0.78l0.04 5.31a0.78 0.78 0 0 1-0.78 0.78l-28.25-0.01a0.78 0.78 0 0 1-0.78-0.78l0.02-26.47a0.78 0.78 0 0 1 0.78-0.78l28.32 0.06a0.78 0.78 0 0 1 0.78 0.76l0.1 5.29a0.78 0.78 0 0 1-0.77 0.8l-17.44 0.18a0.78 0.78 0 0 0-0.77 0.83l0.12 1.82a0.78 0.78 0 0 0 0.77 0.73l16.01 0.12a0.78 0.78 0 0 1 0.77 0.78v5.31a0.78 0.78 0 0 1-0.78 0.78l-16.12 0.03a0.78 0.78 0 0 0-0.78 0.78l0.02 2.17a0.78 0.78 0 0 0 0.78 0.78z"/>
  <path d="m136.12 251.36c1.71 0.92 2.29 2.63 2.32 4.66q0.06 4.34 1.34 8.37a0.28 0.28 0 0 1-0.27 0.37l-10.84-0.01a0.91 0.91 0 0 1-0.91-0.85l-0.37-5.47a2.47 2.49 88.4 0 0-2.46-2.31l-7.63-0.03a0.61 0.61 0 0 0-0.62 0.61v7.4q0 0.65-0.66 0.65h-9.53a0.76 0.76 0 0 1-0.76-0.76l0.01-26.51a0.73 0.73 0 0 1 0.72-0.73q12.57-0.06 24.78 0.07 7.26 0.08 8.09 7.17 0.52 4.49-3.22 6.56-0.74 0.41 0.01 0.81zm-19.33-7.16v4.44a0.43 0.43 0 0 0 0.43 0.43l7.94-0.01a2.38 2.67 89.9 0 0 2.67-2.39v-0.54a2.38 2.67 89.9 0 0-2.67-2.37l-7.94 0.01a0.43 0.43 0 0 0-0.43 0.43z"/>
  <path d="m200.39 236.75 12.04-0.02a0.32 0.32 0 0 1 0.28 0.49l-12.16 19.55a0.32 0.32 0 0 0-0.05 0.17v7.58a0.32 0.32 0 0 1-0.32 0.32l-10.55-0.01a0.32 0.32 0 0 1-0.32-0.32l0.07-7.56a0.32 0.32 0 0 0-0.05-0.17l-12.1-19.52a0.32 0.32 0 0 1 0.27-0.49l11.93-0.06a0.32 0.32 0 0 1 0.29 0.18l4.93 10.28a0.32 0.32 0 0 0 0.58 0l4.87-10.24a0.32 0.32 0 0 1 0.29-0.18z"/>
  <path d="m29.14 296.61 16.71 0.03a0.59 0.59 0 0 1 0.59 0.59l-0.02 1.47a0.59 0.59 0 0 1-0.59 0.59l-19.55 0.01a0.59 0.59 0 0 1-0.59-0.59l0.02-26.99a0.59 0.59 0 0 1 0.57-0.59l1.67-0.05a0.59 0.59 0 0 1 0.61 0.59l-0.01 24.35a0.59 0.59 0 0 0 0.59 0.59z"/>
  <path d="m63.73 300h-5.76c-8.3-1.22-9.51-6.1-9.52-13.94q0-7.11 0-13.89a1.06 1.06 0 0 1 0.98-1.06l0.44-0.03a1.31 1.31 0 0 1 1.41 1.32q-0.08 8.51 0.09 17.01c0.18 9.44 14.86 10.54 18.18 3.86q0.91-1.82 0.94-6.67 0.04-7.05 0.06-14.49a1.05 1.05 0 0 1 1.19-1.04l0.37 0.05a1.56 1.56 0 0 1 1.35 1.55q-0.03 8.33 0 16.84 0.03 9.19-9.73 10.49z"/>
  <path d="m96.26 274.55a0.34 0.34 0 0 0-0.26-0.57l-17.74 0.02a1.03 1.04 88.9 0 1-1.04-0.99l-0.02-0.45q-0.05-1.29 1.24-1.29h21a1.67 1.67 0 0 1 1.22 2.8l-20.04 21.73a0.47 0.47 0 0 0 0.34 0.79l19.46 0.05q0.78 0 0.8 0.78l0.04 1.1q0.03 0.81-0.78 0.8l-23.92-0.02a0.54 0.53 84.8 0 1-0.52-0.44q-0.42-2.27 1.15-3.91 9.8-10.18 19.07-20.4z"/>
  <path d="m107.28 286.68 0.02 9.5a0.59 0.59 0 0 0 0.59 0.59l18.69-0.01a0.59 0.59 0 0 1 0.59 0.59l-0.01 1.55a0.59 0.59 0 0 1-0.59 0.59l-21.54 0.01a0.59 0.59 0 0 1-0.59-0.59l-0.01-27.06a0.59 0.59 0 0 1 0.59-0.59l21.14 0.04a0.59 0.59 0 0 1 0.59 0.59v1.52a0.59 0.59 0 0 1-0.59 0.59l-18.27-0.04a0.59 0.59 0 0 0-0.59 0.59l-0.02 8.33a0.59 0.59 0 0 0 0.59 0.59l17.55-0.03a0.59 0.59 0 0 1 0.59 0.58l0.03 1.52a0.59 0.59 0 0 1-0.59 0.6l-17.58-0.05a0.59 0.59 0 0 0-0.59 0.59z"/>
  <path d="m151.48 285.92q0.26 0.31 0.65 0.48c3.41 1.49 2.84 9.29 3.48 12.02q0.19 0.82-0.66 0.83h-1.42q-0.78 0-0.97-0.76c-1.31-5.38 1.42-11.39-6.98-11.56q-5.56-0.11-11.14-0.07-0.43 0-0.43 0.43l0.04 11.16q0 0.75-0.75 0.79l-1.21 0.08q-1.04 0.06-1.04-0.98l0.07-26.45a0.56 0.56 0 0 1 0.55-0.56q8.12-0.15 16.39 0.02c7.98 0.16 10.17 9.66 3.53 13.83q-0.48 0.31-0.11 0.74zm-17.45-11.55-0.02 9.44a0.43 0.43 0 0 0 0.43 0.43l12.97 0.03a4.98 4.55 0.1 0 0 4.99-4.54v-1.2a4.98 4.55 0.1 0 0-4.97-4.56l-12.97-0.03a0.43 0.43 0 0 0-0.43 0.43z"/>
  <path d="m183.03 294.27q0.69 0.82 0.69-0.25l0.03-21.81q0-1.05 1.04-1.02l0.77 0.02q1.07 0.03 1.07 1.1l0.02 26.41q0 0.62-0.62 0.61l-2.28-0.02q-0.44 0-0.71-0.34l-18.82-22.95a0.34 0.34 0 0 0-0.6 0.22l0.06 21.83q0.01 1.51-1.5 1.4l-0.54-0.04a1.03 1.04 1.8 0 1-0.97-1.04l-0.06-25.87q-0.01-1.37 1.37-1.35 1.96 0.02 3.02 1.32 9.08 11.16 18.03 21.78z"/>
 </g>
</svg>
