<svg width="200mm" height="100.94mm" version="1.1" viewBox="0 0 200 100.94" xmlns="http://www.w3.org/2000/svg">
 <g transform="translate(205.08 26.369)">
  <path d="m-104.57-26.369c-32.898 1.9e-5 -59.567 26.669-59.567 59.567 0.0109 1.6563 0.0909 3.3114 0.23982 4.961 16.855 2.7505 35.015 8.6272 55.929 11.081 7.6185 0.89372 34.694 3.9497 59.993 2.4162 1.9561-5.9578 2.9591-12.187 2.9722-18.458-3e-5 -32.898-26.669-59.567-59.567-59.567z" fill="#39aa35" fill-rule="evenodd"/>
  <g transform="matrix(.94705 0 0 .94705 -41.829 -92.5)" fill="#fff">
   <path d="m-104.18 137.23h-14.629v-20.355h14.067v3.7331h-8.5731v4.528h7.9778v3.7189h-7.9778v4.6558h9.1345z"/>
   <path d="m-87.125 137.51h-4.4798v-7.919q0-3.3124-2.4177-3.3124-1.1662 0-1.9199 0.87681-0.75374 0.87679-0.75374 2.2268v8.1278h-4.494v-14.251h4.494v2.2546h0.05689q1.607-2.6026 4.6789-2.6026 4.8354 0 4.8354 5.8732z"/>
   <path d="m-81.86 121.18c-0.70138 0-1.2756-0.22652-1.7228-0.67956-0.44713-0.46269-0.6707-1.0266-0.6707-1.6917 0-0.68437 0.22356-1.2434 0.6707-1.6772 0.44713-0.43377 1.0214-0.65065 1.7228-0.65065 0.71015 0 1.2844 0.21688 1.7228 0.65065 0.44713 0.43376 0.67069 0.99283 0.67069 1.6772 0 0.69402-0.22356 1.2627-0.67069 1.7061-0.43836 0.44341-1.0126 0.66511-1.7228 0.66511zm2.0515 16.888c0 2.1881 0.12763 3.3706-0.84554 4.6815-1.6504 2.0958-4.2408 2.3247-6.5248 1.509l0.24568-4.0535c2.3871 0.97275 2.6398 0.0967 2.7564-1.79l0.02362-15.011h4.3447z"/>
   <path d="m-69.423 137.69q-3.6253 0-5.7071-1.9291-2.0676-1.9426-2.0676-5.2611 0-3.4265 2.1525-5.3556 2.1526-1.9426 5.8204-1.9426 3.6112 0 5.6646 1.9426 2.0534 1.9291 2.0534 5.1128 0 3.44-2.1242 5.4365-2.1101 1.9965-5.7921 1.9965zm0.11329-11.224q-1.5861 0-2.4641 1.0388-0.87802 1.0387-0.87802 2.9408 0 3.9796 3.3704 3.9796 3.2147 0 3.2147-4.0875 0-3.8717-3.243-3.8717z"/>
   <path d="m-44.274 123.18-5.9525 15.99c-1.4309 3.8458-3.5867 5.7687-6.4676 5.7687-1.097 0-2.4946-0.63085-3.2005-0.88145l0.49609-3.667c0.60097 0.35664 1.5718 0.50154 2.2777 0.50154 1.8293-0.14389 2.5236-1.3967 2.8878-2.9362l-5.9525-14.776h5.0081l2.733 9.0073c0.17171 0.55904 0.30526 1.2193 0.40065 1.9807h0.05723c0.08585-0.55904 0.24325-1.2096 0.47219-1.9518l2.7616-9.0362z"/>
   <path d="m-42.618 137.86q-1.1208 0-1.8681-0.79117-0.74722-0.79117-0.74722-1.945 0-1.1868 0.76159-1.945 0.77596-0.75822 1.9255-0.75822 1.1639 0 1.8968 0.77469 0.74722 0.75821 0.74722 1.9285 0 1.2032-0.76159 1.9779-0.74722 0.75821-1.9543 0.75821z"/>
   <path d="m-26.977 137.37c-0.71261 0.33607-1.7866 0.5041-3.222 0.5041-3.4002 0-5.1002-1.5759-5.1002-4.7276v-6.3897h-2.5349v-3.1744h2.5349v-4.2196l4.8101-0.0175v4.2371h3.5121v3.1744h-3.5121v5.6404c0 1.4532 0.64644 2.1799 1.9393 2.1799 0.50901 0 1.0333-0.1317 1.5728-0.39509z"/>
   <path d="m-10.186 123.42-5.4605 14.137h-5.1596l-5.2025-14.137h4.8442l3.1612 9.3144 3.0876-9.3144z"/>
  </g>
  <path d="m-205.08 41.994c29.047-13.613 58.344 2.6882 97.091 7.2335 12.887 1.5117 81.443 9.2137 102.91-9.5826-15.51 23.967-63.085 29.019-100.56 21.037-37.475-7.9813-71.845-23.958-99.439-18.688z" fill="#82d0f5"/>
  <path d="m-116.82 62.883c10.945-0.0982 16.285-0.52802 25.218-2.0297 4.8959-0.8231 14.17-3.0552 18.967-4.5647 4.0229-1.2661 12.539-4.3317 13.196-4.7506 0.18843-0.12001 1.0574-0.53422 1.9312-0.92046 6.4439-2.8487 13.487-6.9709 19.592-11.467 3.4893-2.5697 12.923-10.415 12.759-10.611-0.0614-0.0736-0.89161 0.31318-1.845 0.8594-10.264 5.8806-26.287 12.317-40.346 16.208-5.4168 1.4991-16.468 4.187-22.22 5.4046-2.8504 0.60336-5.8822 1.2465-6.7375 1.4291-2.49 0.53177-6.4524 1.114-10.046 1.4762-16.214 1.6342-31.419 0.48656-60.285-4.55-5.9483-1.0379-14.343-1.9539-12.88-1.4054 0.40558 0.15203 2.2593 0.58924 4.1194 0.97159 4.1943 0.86214 9.1072 2.2869 18.798 5.4516 17.348 5.6652 21.92 6.7855 31.835 7.7995 3.8088 0.38947 7.3829 0.70406 7.9425 0.69904z" fill="#018137" fill-rule="evenodd"/>
  <path d="m-86.7 74.523c-10.891-1.0853-16.171-1.9953-24.932-4.2969-4.8017-1.2615-13.837-4.3213-18.478-6.2574-3.8922-1.6239-12.097-5.4454-12.714-5.9219-0.17683-0.13651-1.0049-0.62744-1.8402-1.0909-6.1606-3.4186-12.803-8.1594-18.478-13.188-3.2432-2.874-11.93-11.538-11.75-11.719 0.0677-0.0677 0.85971 0.39235 1.76 1.0224 9.692 6.7828 25.069 14.639 38.719 19.782 5.2595 1.9817 16.023 5.6558 21.642 7.3874 2.7843 0.85809 5.7458 1.7721 6.581 2.0312 2.4319 0.75426 6.3256 1.6917 9.8716 2.3766 16 3.0905 31.247 3.3195 60.45 0.90804 6.0177-0.49694 14.461-0.65174 12.954-0.23752-0.41764 0.11481-2.3033 0.38297-4.1903 0.59593-4.255 0.48018-9.2764 1.4559-19.213 3.7332-17.788 4.0768-22.443 4.78-32.409 4.8952-3.8284 0.0442-7.4163 0.035-7.9732-0.0205z" fill="#f29101" fill-rule="evenodd"/>
 </g>
</svg>
