<svg width="200mm" height="284.32mm" version="1.1" viewBox="0 0 200 284.32" xmlns="http://www.w3.org/2000/svg">
 <defs>
  <linearGradient id="a" x1="7.9083" x2="864.95" y1="1631.5" y2="2144.1" gradientTransform="matrix(1 0 0 -1 0 2423.6)" gradientUnits="userSpaceOnUse">
   <stop stop-color="#2F1653" offset="0"/>
   <stop stop-color="#B067A9" offset="1"/>
  </linearGradient>
 </defs>
 <g transform="translate(209.4 -1.1737)">
  <g transform="matrix(.2 0 0 .2 -209.4 1.1737)">
   <path d="m6.4703 1276.6h47.807c44.62 0 76.491 31.871 76.491 71.71s-31.871 71.71-76.491 71.71h-47.807s0-143.42-9e-6 -143.42zm47.807 135.45c39.839 0 65.336-27.09 65.336-62.149 0-33.465-25.497-62.149-65.336-62.149h-36.652v124.3z" fill="#2f1653"/>
   <path d="m207.26 1276.6h60.555c17.529 0 31.871 4.7807 39.839 14.342 6.3743 6.3742 11.155 15.936 11.155 27.091 0 23.903-17.529 38.246-43.026 41.433l47.807 62.149h-14.342l-46.213-58.962h-47.807v58.962h-7.9678zm60.555 74.898c23.903 0 41.433-12.748 41.433-33.465 0-19.123-15.936-31.871-41.433-31.871h-49.4v65.336z" fill="#2f1653"/>
   <path d="m470.2 1276.6h9.5614l66.93 145.01h-11.155l-19.123-39.839h-84.459l-17.529 39.839h-11.155zm43.026 94.02-38.246-82.865-38.246 82.865z" fill="#2f1653"/>
   <path d="m627.96 1276.6h9.5613l57.368 86.052 57.368-86.052h9.5614v143.42h-11.155v-125.89l-57.368 82.865h-1.5936l-54.181-81.272v125.89h-9.5613z" fill="#2f1653"/>
   <path d="m913.21 1276.6h11.155l66.93 145.01h-11.155l-19.123-39.839h-84.459l-19.123 39.839h-11.155zm43.026 94.02-38.246-82.865-38.246 82.865z" fill="#2f1653"/>
   <rect x="1.6896" y="1036" width="997.57" height="194.41" fill="#2f1653"/>
   <g fill="#fff">
    <path d="m59.058 1064.7h106.77v31.871h-70.117v19.123h63.743v28.684h-63.743v20.716h71.71v31.871h-108.36z"/>
    <path d="m333.15 1067.8h57.368c33.465 0 54.181 17.529 54.181 46.213 0 31.871-23.903 47.807-57.368 47.807h-17.529v38.246h-36.652zm54.181 65.336c12.749 0 20.716-6.3742 20.716-17.529s-7.9678-17.529-20.716-17.529h-17.529v35.058z"/>
    <path d="m607.24 1067.8h36.652v132.27h-36.652z"/>
    <path d="m812.81 1133.2c0-38.245 30.278-68.523 70.117-68.523 27.091 0 44.62 11.155 55.775 27.091l-27.091 20.716c-7.9678-9.5614-15.936-15.936-28.684-15.936-19.123 0-31.871 15.936-31.871 35.058s12.749 35.058 31.871 35.058c14.342 0 22.31-6.3743 30.278-15.936l27.091 19.123c-12.749 17.529-28.684 30.278-58.962 30.278-38.246 1.5938-68.523-27.09-68.523-66.93z"/>
   </g>
   <path d="m709.23 597.74c38.246-17.529 116.33-58.962 138.64-68.523 19.123-7.9678 50.994-22.31 87.646-20.716 17.529 1.5935 31.871 9.5614 44.62 23.904 30.278 39.839 27.091 82.865-17.529 116.33-25.497 19.123-66.93 11.155-71.71-12.748-3.1871-22.31-23.903-3.1871-46.213 12.748-14.342 9.5614-148.2 100.39-213.54 145.01s-184.85 133.86-288.44 175.29c-68.523 31.871-125.89 28.684-160.95 27.091-105.18-3.1872-178.48-68.523-181.67-167.32-4.7807-116.33 170.51-210.35 181.67-218.32 38.246-25.497 140.23-76.491 180.07-98.801l-35.058-1.5936c-140.23 3.1872-175.29-81.272-170.51-149.8 3.1871-47.807 41.433-124.3 261.34-237.44 14.342-7.9678 117.92-63.743 192.82-92.427 52.588-20.716 106.77-31.871 132.27-30.278 57.368 3.1871 106.77 62.149 103.58 108.36-4.7807 57.368-27.091 98.801-47.807 106.77-28.684 12.749-57.368 3.1871-79.678 3.1871s-39.839 1.5936-106.77 28.684c-12.748 4.7807-63.743 27.091-101.99 46.213-39.839 19.123-87.646 46.213-87.646 57.368-1.5936 20.716 71.71 3.1872 101.99-1.5936 31.871-3.1871 43.026-9.5614 76.491-9.5614 36.652 0 111.55 4.7807 82.865 113.14-11.155 41.433-7.9678 52.588-22.31 63.743-7.9678 9.5613-15.936 9.5613-36.652 6.3742-19.123-3.1871-82.865 41.433-191.23 121.11-113.14 82.865-151.39 121.11-154.58 132.27-4.7807 15.936 3.1871 35.058 165.73-43.026 164.14-78.085 226.29-119.52 264.53-135.45z" fill="url(#a)"/>
  </g>
 </g>
</svg>
