<svg version="1.1" viewBox="0 0 800 196.73" xml:space="preserve" xmlns="http://www.w3.org/2000/svg">
\<g transform="translate(110.31 -5.185)">
	
	
		<path class="st1" d="m-76.587 172.82h-33.72l29.481-167.63 54.144 33.142h77.459l-5.3951 30.829h-81.312l-20.232-14.259c-0.19268 4.0464-0.77073 7.322-2.3122 15.8m3.661 102.12 5.3951-30.829h81.891l-5.3951 30.829zm91.139-52.025h-81.891l5.3951-30.829h81.891zm85.744 53.373-5.2025 27.746h-34.105l5.3951-27.746c-27.361-2.1195-40.078-16.956-35.068-45.666l7.9-45.281c5.7805-33.527 19.846-46.051 53.759-46.051h21.581c31.985 0 47.207 15.029 41.62 46.051l-7.9 45.281c-5.2025 31.407-18.112 44.125-47.978 45.666m-5.3951-30.251c13.681 0 17.534-3.2756 19.846-15.607l7.9-45.281c2.1195-11.561-1.9268-15.607-12.524-15.607h-17.149c-13.681 0-17.534 3.2756-19.846 15.607l-7.9 45.281c-2.1195 11.561 1.9268 15.607 12.524 15.607zm87.286-105.4-15.607 89.791c-5.3951 31.022 9.6342 46.051 41.62 46.051h19.846c34.105 0 47.978-12.524 53.759-46.051l15.607-89.791h-33.72l-15.607 89.791c-2.3122 12.332-6.1659 15.607-19.846 15.607h-15.222c-10.79 0-14.644-4.0464-12.524-15.607l15.607-89.791zm144.9 134.3 23.7-134.49h-33.912l-23.7 134.49zm43.932-134.3h61.273c37.188 0 51.832 17.342 44.703 59.925l-2.5049 14.837c-7.9 47.786-22.159 59.732-60.695 59.732h-66.283zm28.517 30.059-12.91 74.183h30.637c14.837 0 19.461-4.4317 24.278-32.949l1.3488-8.2854c4.6244-26.976 1.3488-32.756-14.066-32.756h-29.288zm116.38 104.24 23.7-134.49h-33.72l-23.7 134.49zm106.36-27.746h-48.171l-4.8171 27.554h-33.912l15.607-89.791c5.7805-33.334 19.846-45.859 53.951-45.859h20.232c31.985 0 47.208 15.029 41.62 45.859l-15.607 89.791h-33.72zm-42.968-31.215h48.171l5.3951-31.022c2.1195-11.561-1.7342-15.607-12.524-15.607h-15.8c-13.873 0-17.534 3.2756-19.846 15.607z" fill="#fff" stroke-width="1.9268" Googl="true"/>
	
</g>
</svg>
