<?xml version="1.0" encoding="UTF-8" standalone="no"?>
<svg xmlns:rdf="http://www.w3.org/1999/02/22-rdf-syntax-ns#" xmlns="http://www.w3.org/2000/svg" height="169.96mm" width="169.33mm" version="1.1" xmlns:cc="http://creativecommons.org/ns#" xmlns:dc="http://purl.org/dc/elements/1.1/" viewBox="0 0 600.01177 602.20525">
 <path d="m527.53 106.79c6.83-5.77 12.93-9.843 16.07-10.011 18.75-0.957 9.34 28.161 35.13 26.841 14.98-0.77 21.02-12.5 21.28-26.434v-80.93c-0.26-5.412-1.99-9.3144-4.62-12.14-2.94-2.5379-6.92-4.0703-12.33-4.1182l-84.93 0.14368c-14.08-0.095782-25.4 6.8479-25.52 21.861-0.2 25.812 28.49 15.157 28.32 33.929-0.02 3.041-3.59 9.051-8.81 15.875-52.05-43.435-119.03-69.605-192.1-69.605-165.69-0.0003-300.02 134.33-300.02 300.02s134.33 299.99 300.02 299.99 299.99-134.3 299.99-299.99c0-74.68-27.34-142.92-72.48-195.43" fill="#d60e47"/>
 <g fill="#fff">
  <path d="m169.26 327.13v21.7h-83.612v-116.83h82.602v21.7h-59.42v24.87h46.9v20.36h-46.9v28.2h60.43z"/>
  <path d="m217.66 288.24h20.68c12.86 0 18.87-8.33 18.87-17.19 0-9.17-6.18-17.36-18.87-17.36h-20.68v34.55zm42.23 60.58-23.2-39.89h-1.34-17.69v39.89h-23.21v-116.82h40.9c28.71 0 45.9 15.51 45.9 39.05 0 16.02-7.85 27.7-22.03 33.55l26.7 44.22h-26.03z"/>
  <path d="m354.01 328.3c21.53 0 36.56-15.51 36.56-37.88 0-22.53-15.03-37.9-36.56-37.9-21.36 0-36.39 15.37-36.39 37.9 0 22.37 15.03 37.88 36.39 37.88m0-98.65c33.55 0 60.75 25.55 60.75 60.77 0 35.2-27.2 60.75-60.75 60.75-33.54 0-60.58-25.55-60.58-60.75 0-35.22 27.04-60.77 60.58-60.77"/>
  <path d="m471.34 308.44c-0.17 0-6.52 10.85-8.5 13.86l-18.7 26.53h-27.71l40.88-59.93-38.55-56.91h27.87l18.03 26.89c1.67 2.65 6.51 11.34 6.68 11.34h0.16c0.17 0 4.84-8.69 6.52-11.34l18.03-26.89h28.04l-38.72 56.91 40.87 59.93h-27.7l-18.68-26.53c-2.01-3.01-8.19-13.86-8.36-13.86h-0.16z"/>
 </g>
</svg>
