<svg version="1.1" viewBox="0 0 839.34 300" xmlns="http://www.w3.org/2000/svg">
 <rect x="212.31" y=".0014761" width="627.04" height="300" rx="149.95" ry="155.93" fill="#89d446"/>
 <rect x=".0094901" y=".0014761" width="627.04" height="300" rx="149.95" ry="155.93" fill="#171c6e"/>
 <path d="m765.58 215.48v-15.51h-33.53c-18.44 0-33.54-0.24-33.54-0.54s0.91-2.33 2.03-4.51c2.86-5.6 10.61-13 25.03-23.9 32-24.18 43.03-41.42 40.2-62.85-3.5-26.49-24.09-40.774-56.25-39.032-16.78 0.911-33.35 6.216-41.92 13.433l-3.39 2.853 8.97 13.784c7.22 11.122 9.2 13.522 10.13 12.402 1.88-2.28 11-6.87 16.55-8.35 6.17-1.63 17.44-1.81 21.36-0.32 6.87 2.6 10.2 8.99 8.31 15.97-1.57 5.87-7.36 11.74-23.01 23.34-21.54 15.95-30.96 25.9-37.21 39.26-4.73 10.1-5.84 15.79-6.51 33.22l-0.63 16.27h103.41v-15.52z" fill="#FFF"/>
 <path d="m473.52 105.09h35.04v-36.053h-113.12v36.053h35.04v128.13h43.04zm-212.21-36.053v164.18h43.04v-53.8l20.27-0.53c25.16-0.67 32.48-2.47 43.36-10.67 11.73-8.86 18.49-25.32 18.46-44.92-0.1-27.958-15.77-47.868-41.64-52.823-5.81-1.111-16.5-1.442-45.54-1.442zm43.04 34.893 12.26 0.32c14.8 0.4 18.89 2 22.75 8.91 3.33 5.98 3.35 15.83 0.1 21.71-3.83 6.79-8.4 8.62-22.81 9.1l-12.26 0.41v-40.45zm-72.07 93.25h-50.05v-29.03h48.1l0.1-35.53-48.18 0.1v-27.62h50.05v-36.052h-93.1v164.18h93.1z" fill="#FFF"/>
</svg>
