<svg width="800" height="427.75" data-name="Layer 2" version="1.1" viewBox="-.02 -.02 800 427.75" xml:space="preserve" xmlns="http://www.w3.org/2000/svg">
  <g transform="matrix(16.238 0 0 16.238 -.02 -.02)" data-name="Layer 1">
    <path transform="translate(-23.477,50.156)" d="m72.291-50.156h-15.041a0.454 0.454 0 0 0-0.452 0.452v15.042c0 0.248 0.204 0.452 0.452 0.452h15.042a0.454 0.454 0 0 0 0.452-0.452v-15.042a0.454 0.454 0 0 0-0.452-0.452" fill="#7006cc" stroke-width=".054588px"/>
    <path transform="translate(-23.477,50.156)" d="m68.498-37.339v0.257l-7.446-0.044s4.272-5.975 4.432-6.33c0.142-0.3 0.204-0.61 0.08-0.93a1.01 1.01 0 0 0-0.603-0.603 1 1 0 0 0-0.754 0.036 1.16 1.16 0 0 0-0.567 0.54c-0.124 0.24-0.195 0.506-0.275 0.763h-0.23c-0.718-9e-3 -1.445 0-2.163 0h-0.257v-0.284c0.027-2.127 1.578-3.696 3.705-3.705 0.523 0 1.055 0.053 1.56 0.195 2.083 0.594 3.05 2.695 2.128 4.69-0.346 0.753-1.924 3.217-1.924 3.217h2.322v2.207z" fill="#fff" stroke-width=".054588px"/>
    <path transform="translate(-23.477,50.156)" d="m52.245-31.947c-0.6 0-1.165 0.106-1.67 0.31a4 4 0 0 0-1.334 0.857c-0.38 0.363-0.672 0.804-0.875 1.29a4.2 4.2 0 0 0-0.31 1.61c0 0.574 0.106 1.114 0.31 1.6 0.203 0.486 0.495 0.927 0.875 1.29 0.38 0.362 0.822 0.654 1.335 0.866 0.512 0.204 1.07 0.31 1.68 0.31a4.4 4.4 0 0 0 1.67-0.31 4.1 4.1 0 0 0 1.334-0.866q0.57-0.56 0.875-1.29c0.204-0.495 0.31-1.035 0.31-1.6s-0.106-1.105-0.31-1.59h-8e-3a4.1 4.1 0 0 0-0.876-1.301 4 4 0 0 0-1.334-0.867 4.5 4.5 0 0 0-1.672-0.309m-20.72 0.16v1.997l1.644 1.856-1.74 1.954v2.006h6.02v-2.272h-2.794l1.44-1.678-1.36-1.592h2.633v-2.272zm7.7 0v7.813h2.528v-5.48h2.105v5.48h2.527v-7.814zm18.882 0v7.813h2.528v-2.298h0.787c0.663 0 1.237-0.105 1.706-0.317a2.44 2.44 0 0 0 1.113-0.946c0.248-0.416 0.38-0.91 0.38-1.494 0-0.574-0.14-1.08-0.414-1.495a2.6 2.6 0 0 0-1.133-0.946c-0.468-0.212-1.006-0.318-1.599-0.318zm2.528 2.13h0.778c0.566 0 0.751 0.424 0.751 0.75 0 0.328-0.229 0.77-0.76 0.77h-0.77z" fill="#7006cc" stroke-width=".05444px"/>
    <path transform="translate(-23.477,50.156)" d="m23.753-48.446a0.29 0.29 0 0 0-0.276 0.284v11.168c0 0.151 0.125 0.276 0.276 0.276h7.879a0.17 0.17 0 0 0 0.17-0.168v-2.758a0.17 0.17 0 0 0-0.17-0.168h-4.547v-1.463h3.475a0.14 0.14 0 0 0 0.142-0.142v-2.296a0.14 0.14 0 0 0-0.142-0.142h-3.475v-1.523h4.547l0.01 9e-3c0.089 0 0.168-0.07 0.168-0.168v-2.74a0.167 0.167 0 0 0-0.168-0.169zm15.645 0 9e-3 9e-3h-5.177c-0.15 0-0.284 0.142-0.284 0.292v11.25c0 0.098 0.088 0.177 0.186 0.177h3.253a0.177 0.177 0 0 0 0.178-0.177v-2.74h1.736a4.396 4.396 0 0 0 4.344-4.396 4.4 4.4 0 0 0-4.245-4.415m4.14 0c0.123 0.089 0.246 0.187 0.361 0.284a5 5 0 0 1 1.286 1.835c0.125 0.31 0.222 0.603 0.293 0.949h1.454v8.42c0 0.134 0.106 0.24 0.24 0.24h3.136a0.24 0.24 0 0 0 0.24-0.24v-8.411h2.084c0.15 0 0.273-0.125 0.273-0.276v-2.526h-9e-3a0.276 0.276 0 0 0-0.273-0.275zm-5.967 3.12h1.543a1.295 1.295 0 0 1 0 2.588v-9e-3h-1.543z" fill="#7006cc" stroke-width=".054588px"/>
  </g>
</svg>
