<svg version="1.1" viewBox="0 0 1000.1 117.09" xmlns="http://www.w3.org/2000/svg" xmlns:xlink="http://www.w3.org/1999/xlink">
 <defs>
  <linearGradient id="a" x1="933" x2="1e3" y1="82" y2="82" gradientUnits="userSpaceOnUse">
   <stop stop-color="#179ed9" offset="0"/>
   <stop stop-color="#179ed9" offset=".73"/>
  </linearGradient>
  <linearGradient id="x" x1="858" x2="893" y1="59" y2="59" xlink:href="#a"/>
  <linearGradient id="w" x1="821" x2="894" y1="77" y2="77" xlink:href="#a"/>
  <linearGradient id="v" x1="837" x2="898" y1="68" y2="68" xlink:href="#a"/>
  <linearGradient id="u" x1="808" x2="875" y1="92" y2="92" xlink:href="#a"/>
  <linearGradient id="t" x1="677" x2="780" y1="84" y2="84" xlink:href="#a"/>
  <linearGradient id="s" x1="577" x2="645" xlink:href="#a"/>
  <linearGradient id="r" x1="455" x2="546" y1="82" y2="82" xlink:href="#a"/>
  <linearGradient id="q" x1="349" x2="426" y1="82" y2="82" xlink:href="#a"/>
  <linearGradient id="p" x1="200" x2="294" y1="81" y2="81" xlink:href="#a"/>
  <linearGradient id="o" x1="105" x2="201" y1="81" y2="81" xlink:href="#a"/>
  <linearGradient id="n" x2="83" y1="81" y2="81" xlink:href="#a"/>
  <linearGradient id="y" x1="933" x2="1e3" y1="82" y2="82" gradientUnits="userSpaceOnUse" xlink:href="#a"/>
 </defs>
 <g transform="scale(9)">
  <path transform="translate(0,-2.5)" d="m110.48 9.47c-0.43-0.42-1.14-0.78-2.11-1.07l-0.84-0.25c-0.38-0.12-0.69-0.22-0.92-0.32-0.24-0.11-0.41-0.22-0.52-0.34a0.72 0.72 0 0 1-0.17-0.48c0-0.23 0.07-0.42 0.22-0.59 0.14-0.16 0.33-0.28 0.58-0.37 0.24-0.08 0.52-0.12 0.83-0.12s0.63 0.04 0.95 0.12c0.31 0.08 0.6 0.19 0.87 0.34 0.22 0.12 0.42 0.26 0.58 0.41l0.99-1.47c-0.36-0.33-0.83-0.59-1.41-0.79-0.62-0.21-1.29-0.32-2.01-0.32-0.52 0-1 0.07-1.44 0.22-0.43 0.14-0.82 0.35-1.14 0.61s-0.57 0.57-0.75 0.92c-0.17 0.35-0.26 0.74-0.26 1.15 0 0.65 0.21 1.19 0.63 1.66 0.42 0.46 1.13 0.83 2.1 1.1l0.83 0.23c0.6 0.16 1.01 0.33 1.24 0.51q0.36 0.285 0.36 0.72c0 0.35-0.17 0.61-0.5 0.79-0.31 0.17-0.72 0.25-1.21 0.25-0.35 0-0.7-0.04-1.07-0.13-0.36-0.09-0.71-0.21-1.03-0.37-0.27-0.14-0.51-0.3-0.71-0.48l-0.95 1.52c0.45 0.37 1.01 0.66 1.65 0.86 0.68 0.21 1.39 0.32 2.11 0.32 0.77 0 1.44-0.13 2-0.38 0.55-0.25 0.99-0.61 1.29-1.06q0.45-0.675 0.45-1.56c0-0.67-0.21-1.22-0.63-1.63z" fill="url(#y)"/>
  <path transform="translate(0,-2.5)" d="m99.17 7.32c-0.13-0.5-0.45-1.05-0.88-1.53l-0.15-0.15c-0.47-0.46-1-0.79-1.49-0.95a1.9 1.9 0 0 0-0.54-0.09c-0.24 0-0.44 0.07-0.58 0.2-0.23 0.23-0.28 0.62-0.13 1.12s0.47 1.03 0.92 1.51l0.11 0.12c0.45 0.46 0.97 0.81 1.47 0.98 0.11 0.04 0.21 0.06 0.31 0.08 0.35 0.06 0.63 0 0.81-0.16 0.24-0.22 0.29-0.62 0.16-1.12z" fill="url(#x)"/>
  <path transform="translate(0,-2.5)" d="m92.99 10.68 0.08 0.08c1.74 1.81 4.04 2.48 5.4 1.62 0.35-0.39 0.62-0.83 0.82-1.29-1.23 0.7-3.32 0.03-4.94-1.64-1.6-1.69-2.18-3.8-1.43-5-0.47 0.18-0.92 0.44-1.32 0.77-0.92 1.32-0.35 3.65 1.39 5.46" fill="url(#w)"/>
  <path transform="translate(0,-2.5)" d="m94.6 9.07 0.15 0.16c1.61 1.61 3.63 2.19 4.6 1.29 0.15-0.14 0.25-0.33 0.29-0.53 0.15-0.83 0.09-1.7-0.18-2.5-0.01 0 0 0 0 0 0.11 0.53 0.01 0.96-0.27 1.22-0.31 0.29-0.81 0.34-1.4 0.14-0.53-0.18-1.07-0.54-1.55-1.03l-0.15-0.16c-0.47-0.5-0.81-1.06-0.96-1.6-0.18-0.6-0.11-1.09 0.2-1.39 0.28-0.27 0.71-0.35 1.23-0.22-0.8-0.31-1.66-0.41-2.49-0.29-0.2 0.03-0.39 0.12-0.54 0.26-0.94 0.93-0.44 2.98 1.1 4.65z" fill="url(#v)"/>
  <path transform="translate(0,-2.5)" d="m92.64 11.25-0.15-0.16c-1.38-1.45-2.06-3.23-1.94-4.7a4.99 4.99 0 0 0 0.6 6.13 4.99 4.99 0 0 0 6.1 0.86c-1.47 0.06-3.21-0.7-4.61-2.14z" fill="url(#u)"/>
  <path transform="translate(0,-2.5)" d="m85.12 4.74h-2.17l-1.99 5.34-2.01-5.34h-2.17l-1.54 9.1h2.1l0.88-5.91 2.3 5.91h0.75l2.42-5.89 0.88 5.89h2.1l-1.54-9.1z" fill="url(#t)"/>
  <path transform="translate(0,-2.5)" d="m70.97 9.47c-0.43-0.42-1.14-0.78-2.11-1.07l-0.84-0.25c-0.38-0.12-0.69-0.22-0.92-0.32-0.24-0.11-0.41-0.22-0.52-0.34a0.72 0.72 0 0 1-0.17-0.48c0-0.22 0.07-0.42 0.22-0.59 0.14-0.16 0.33-0.28 0.58-0.37 0.24-0.08 0.52-0.12 0.83-0.12s0.63 0.04 0.95 0.12c0.31 0.08 0.6 0.19 0.87 0.34 0.22 0.12 0.42 0.26 0.58 0.41l0.99-1.47c-0.36-0.33-0.83-0.59-1.41-0.79-0.62-0.21-1.29-0.32-2.01-0.32-0.52 0-1 0.07-1.44 0.22-0.43 0.14-0.82 0.35-1.14 0.61s-0.57 0.57-0.75 0.92-0.26 0.74-0.26 1.15c0 0.65 0.2 1.19 0.63 1.66 0.42 0.46 1.13 0.83 2.1 1.1l0.83 0.23c0.61 0.16 1.01 0.33 1.24 0.51q0.36 0.285 0.36 0.72c0 0.35-0.17 0.61-0.5 0.79-0.31 0.17-0.72 0.25-1.21 0.25-0.35 0-0.71-0.04-1.07-0.13s-0.71-0.21-1.03-0.37c-0.28-0.14-0.51-0.3-0.71-0.48l-0.95 1.52c0.45 0.37 1.01 0.66 1.65 0.86 0.68 0.21 1.39 0.32 2.11 0.32 0.77 0 1.44-0.13 2-0.38 0.55-0.25 0.99-0.61 1.29-1.06q0.45-0.675 0.45-1.56c0-0.67-0.21-1.22-0.63-1.63z" fill="url(#s)"/>
  <path transform="translate(0,-2.5)" d="m60.21 7.23c-0.25-0.59-0.61-1.12-1.06-1.57s-0.99-0.8-1.61-1.06c-0.61-0.25-1.29-0.38-2.02-0.38s-1.4 0.13-2.02 0.37c-0.61 0.25-1.15 0.6-1.61 1.04-0.45 0.45-0.81 0.97-1.06 1.57s-0.38 1.26-0.38 1.96 0.13 1.35 0.38 1.95 0.6 1.12 1.06 1.57c0.45 0.44 1 0.8 1.61 1.04 0.61 0.25 1.29 0.38 2.02 0.38s1.41-0.13 2.02-0.38 1.15-0.6 1.61-1.05c0.45-0.44 0.81-0.97 1.06-1.57s0.38-1.25 0.38-1.95-0.13-1.34-0.38-1.93zm-2.02 3.17c-0.14 0.37-0.34 0.69-0.6 0.95s-0.57 0.47-0.91 0.61-0.73 0.21-1.15 0.21c-0.54 0-1.04-0.13-1.47-0.37-0.43-0.25-0.78-0.6-1.03-1.05s-0.37-0.98-0.37-1.58c0-0.45 0.07-0.87 0.22-1.24 0.14-0.37 0.35-0.69 0.6-0.95s0.56-0.47 0.91-0.61 0.74-0.21 1.14-0.21c0.55 0 1.05 0.13 1.48 0.37 0.43 0.25 0.78 0.6 1.03 1.05s0.37 0.98 0.37 1.59q0 0.675-0.21 1.23z" fill="url(#r)"/>
  <path transform="translate(0,-2.5)" d="m46.39 11.3c-0.36 0.26-0.75 0.46-1.15 0.58-0.43 0.13-0.88 0.2-1.32 0.2-0.62 0-1.16-0.12-1.61-0.35s-0.8-0.57-1.05-1.01c-0.24-0.44-0.36-0.96-0.36-1.57 0-0.44 0.07-0.84 0.2-1.2 0.14-0.36 0.33-0.67 0.59-0.93 0.26-0.25 0.57-0.45 0.94-0.59 0.36-0.14 0.78-0.2 1.25-0.2q0.705 0 1.29 0.21c0.34 0.12 0.65 0.31 0.91 0.55l1.03-1.69c-0.41-0.33-0.88-0.6-1.38-0.79-0.53-0.2-1.21-0.3-2-0.3-0.72 0-1.4 0.12-2.01 0.36s-1.14 0.59-1.59 1.02c-0.45 0.44-0.8 0.97-1.04 1.57-0.25 0.6-0.37 1.28-0.37 2.01 0 1 0.21 1.88 0.63 2.61s1 1.3 1.75 1.7 1.62 0.6 2.6 0.6c0.81 0 1.53-0.1 2.15-0.31 0.57-0.19 1.08-0.45 1.5-0.76l-0.95-1.74z" fill="url(#q)"/>
  <path transform="translate(0,-2.5)" d="m32.62 2.8c0-0.17-0.13-0.3-0.3-0.3h-10.07c0.14 0.1 0.27 0.2 0.4 0.32 0.61 0.54 1.09 1.23 1.42 2.04 0.14 0.35 0.25 0.67 0.33 1.05h1.61v9.33c0 0.15 0.12 0.26 0.26 0.26h3.48c0.15 0 0.26-0.12 0.26-0.26v-9.34h2.31c0.17 0 0.3-0.13 0.3-0.3z" fill="url(#p)"/>
  <path transform="translate(0,-2.5)" d="m20.81 10.97c0.96-0.89 1.55-2.16 1.55-3.57 0-2.64-2.09-4.79-4.71-4.89h-5.74a0.32 0.32 0 0 0-0.31 0.32v12.48c0 0.11 0.09 0.2 0.2 0.2h3.61a0.2 0.2 0 0 0 0.2-0.2v-3.03h1.64l1.08 2.95c0.04 0.11 0.14 0.18 0.26 0.18h3.53c0.15 0 0.26-0.15 0.21-0.3l-1.51-4.14zm-5.19-5.02h1.71a1.43 1.43 0 1 1 0 2.86h-1.71z" fill="url(#o)"/>
  <path transform="translate(0,-2.5)" d="m9.05 5.91c0.1 0 0.18-0.08 0.18-0.18v-3.04c0-0.1-0.08-0.18-0.18-0.18h-8.74c-0.17 0-0.31 0.13-0.31 0.3v12.38c0 0.17 0.13 0.31 0.3 0.31h8.74c0.1 0 0.18-0.08 0.18-0.18v-3.06c0-0.1-0.08-0.18-0.18-0.18h-5.04v-1.62h3.85c0.08 0 0.15-0.07 0.15-0.15v-2.55c0-0.08-0.07-0.15-0.15-0.15h-3.85v-1.69h5.04z" fill="url(#n)"/>
 </g>
</svg>
