<svg xmlns="http://www.w3.org/2000/svg" height="200.61" width="600">
    <path d="M537.796 161.542c2.235-15.137 14.578-24.165 14.578-24.165-15.515 17.191-15.768 39.933-4.45 45.25 0 0-12.867-2.397-10.128-21.085M286.376 180.5c-3.243 0-6.703-1.26-6.703-10.596 0-12.668 16.254-42.708 31.049-42.708 4.216 0 7.352 2.595 7.352 7.046 0 11.785-17.966 45.285-31.697 46.258m-17.642-16.885c2.577-13.948 15.984-26.49 15.984-26.49-15.12 19.786-18.471 39.356-7.01 45.825 0 0-12.308-1.297-8.974-19.336m-87.866-51.23c3.496-10.777 10.434-18.598 19.48-25.644.829.793 1.1 2.866 2.721 2.613 1.37-1.405.36-3.207.505-4.883 1.207-13.227 9.262-22.958 16.182-32.923l6.757-9.01c-.18.126-.306.288-.414.432 0 0 5.658-10.434 7.046-9.46 8.415 5.874 1.243 17.227-1.532 26.02-2.126 6.812-9.731 26.707-12.398 29.428-2.126 2.144-4.361 2.504-7.352 7.586-2.974 5.1-9.695 15.21-13.011 18.597-3.334 3.424-11.551 18.597-17.48 4.235-1.045-2.523-.667-6.343-.505-6.992m53.952-94.137c1.37-3.171 2.973-6.217 4.92-9.01 1.207-1.388 2.144.018 3.622.072 2.18 1.063 7.73 3.19 9.947 3.352.324.703-.289 1.405-.397 2.054-1.261.739-2.595 1.063-4 1.117-1.73.235-3.118-2.306-4.848-.666-.522 1.531 2.163 2.81.469 4.072-1.19.757-4.109-.865-3.55 1.532 1.928 2.559 2.523 4.343 2.847 7.586-.36 1.604-.793 3.478-2.433 3.803-1.711-.631-3.928-3.136-5.171-4.47-.955-3.027-2.325-6.036-1.406-9.442M17.96 155.225c-13.119-27.697 8.686-57.7 32.869-75.432.487 1.19.973 2.379 1.424 3.442-25.661 21.462-38.96 50.709-20.921 76.946 26.399 38.365 112 28.11 145.93 12.092l.216-.018c-54.367 28.274-139.62 24.994-159.51-17.03m75.342-.648c.667 5.244 3.982 19.137 7.244 25.715-27.463-1.37-51.808-13.857-58.511-31.932-3.586-9.64-4.18-19.209-.198-29.012 3.658-9.064 7.929-17.029 16.398-24.634.45-.468.937-.847 1.423-1.19l6.253 8.164c5.569 11.82 7.587 24.85 18.543 33.752 3.172 3.964 6.343 6.055 8.055 10.92.469 5.154-.252 3.298.793 8.217M44.08 43.187c-3.748-2.955-4.613-8.2-.72-10.74.756-2.505 1.225-4.18 2.919-6.163-.36-1.604-2.901-.99-2.415-3.171.09-.793 1.01-1.46.595-2.433-1.766-1.243-3.73 1.207-5.406-.45-.577-.505-2.163-2.397-1.766-3.316 1.856-.595 5.892-1.136 7.766-1.658 1.136-.81 2.505 1.982 2.974 2.667 1.46 3.55 3.982 7.334 2.558 11.497-2.612 5.748 1.19 10.812 3.857 15.389 8.631 12.11 20.435 25.21 25.12 39.176.829 2.667 2.108 5.154 3.838 7.46 8.722 8.416 15.858 18.453 19.714 29.41.234-.09 1.261.27 1.658.27 6.56 2.594 8.74 5.01 11.929 12.11 6.613-1.226 13.479 2.9 13.1 3.694 2.758 2.414 5.515 1.676 5.893 2.234 5.352-3.856 9.695-3.64 15.984-5.244 3.172-1.08 5.965-7.604 10.217-11.515 3.514-3.225 14.056-8.289 14.056-8.289-.324 3.55-2.739 8.487-6.144 12.794-5.947 7.496-8.686 15.984-6.398 21.138 1.73 3.874 4.83 13.569 4.235 16.651-.63 4.703-11.605 7.46-16.579 8.596-4.433 1.315-10.524 1.91-16.146 2.144-5.82.216-6.938-4.343-8.019-5.91-1.243-2.055-2.487-2.2-2.27-6.236-.289-.45-1.82.054-2.343.523-.414 4.145.901 2.955.396 7.496.018 2.055-.576 1.947-3.622 2.253-5.045-.433-12.776-1.568-16.903-8.271-3.207-6.253-2.558-9.046-3.117-18.056-1.694-4.758-1.874-4.199-4.974-8.073-16.579-13.894-15.587-24.057-19.209-35.662-1.28-2.109-3.568-3.388-5.063-5.352-5.226-5.785-9.028-11.19-11.785-18.02l-7.911-23.86c-1.622-2.99-1.964-11.478-6.019-13.082m66.927 10.217c-6.09 1.784-16.83 5.784-33.373 14.326-.432-.667-.883-1.352-1.351-2.055 12.686-5.928 25.12-10.073 34.725-12.272m23.606 79.901c-.469 1.154-1.766 2.992-3.713 2.721-.432-.108-1.225-.378-2.396-2.018-1.1-1.514-3.766-8.127-4.29-11.154-.287-1.82.253-2.469.848-1.478.595.973 3.225 11.317 9.226 10.29.505.09.811.865.325 1.64M131.64 97.86c-.396-.576-.612-1.46-.432-2 .342-.595 1.261-1.964 2.054-1.081 1.207 1.351 2.901 2.739 3.388 4.775.09.739-.126 2.65-1.171 3.01-3.082.648-2.74-2.902-3.839-4.704m-15.984 11.587c-.45-.684-1.045-1.73-.937-2.559.27-1.838.487-3.225.847-6.631.379-3.496.144-4.595 1.388-6.992 1.08-2.036 3.1-3.225 3.081-4.27 0-1.046.234-3.352.901-4.253 1.045-1.424 2.109-1.784 2.973-2.866.757-.937 3.028-3.19 6.127-4.234.397.18.757-1.208 1.514-1.316 6.974-1.009 11.028 1.352 13.659 4.812 2.595 2 4.992 4 2.108 9.91.289.433-1.045 1.857-1.46 2.307-3.46 1.027-2.378-1.91-4.973-3.352-2.595-2.865-8.109-1.387-11.46-3.045-2.217-2.72-5.605-2.289-6.236-2.289-.63.055-1.225.397-.54 2.037 4.433.883 4.072 2.54 3.351 4-1.82 2.055-4.54 4.109-6 4.848-1.082 2.649 1.55 3.153 2.54 4.577.415 1.513-1.946 1.315-2.288 3.135-1.982 3.334 5.01 4.361.649 9.551-1.64-.829-2.65-1.55-5.244-3.37m445.6 70.981c-7.857 0-11.227-7.46-11.227-15.732 0-20.47 17.516-38.545 28.796-38.545 3.171 0 3.424 3.532 3.424 4.613 0 3.82-1.316 7.803-2.577 11.677-.433 1.334-.883 2.703-1.28 4.055l-.522 1.784 1.82.36c.702.144 2.198.379 4.252.379 7.893 0 16.056-5.875 16.056-15.696 0-7.443-7.73-12.632-18.777-12.632-23.138 0-46.095 16.867-52.475 36.275a78.444 78.444 0 0 1-1.64 1.676c-11.658 11.82-17.587 18.74-24.56 21.048-2.289.774-4.47.396-4.47-2.073 0-5.424 5.857-14.506 20.436-37.32l9.046-14.2 1.766-2.793c0 .018-3.28.162-3.28.162l-17.588.865-.883.036-.468.757-6.055 9.515c-6.073 9.55-10.56 16.615-13.785 22.219-6.65 6.865-18.723 17.588-25.697 20.002 1.568-3.028 2.432-6.668 2.432-10.38 0-7.154-3.387-12.164-7.19-17.083-3.315-4.487-6.469-8.74-6.469-14.488 0-5.37 3.784-8.704 8.2-8.704 5.351 0 6.144 5.28 6.144 7.388 0 3.352-.829 5.334-2.468 8.83-.901 1.856-1.316 3.28-1.316 3.28s3.424 1.477 7.028 1.477c7.496 0 13.137-3.856 13.137-11.245 0-9.082-8.433-15.19-20.993-15.19-13.317 0-26.796 7.207-26.796 20.992 0 5.695 3.496 10.38 6.866 14.921l.306.433c3.424 4.451 6.487 8.866 6.487 14.164 0 7.767-6.397 12.974-13.984 12.974-6.577 0-11.425-3.262-12.398-9.46-.594-3.82 1.01-5.93 1.01-5.93s1.783.523 3.495.523c3.172 0 6.974-2.342 6.974-7.838 0-3.749-3.478-8.164-8.65-8.164-7.532 0-12.47 5.857-13.677 12.884-4.721 4.578-10.217 9.01-14.867 10.614 1.568-3.027 2.433-6.667 2.433-10.38 0-7.154-3.388-12.164-7.19-17.083-3.316-4.487-6.47-8.74-6.47-14.488 0-5.37 3.785-8.703 8.2-8.703 5.352 0 6.145 5.28 6.145 7.388 0 3.352-.829 5.334-2.487 8.83-.883 1.856-1.315 3.28-1.315 3.28s3.441 1.477 7.046 1.477c7.478 0 13.137-3.856 13.137-11.245 0-9.082-8.434-15.19-20.993-15.19-13.317 0-26.796 7.207-26.796 20.992 0 5.695 3.477 10.38 6.847 14.921l.324.433c3.424 4.45 6.488 8.866 6.488 14.164 0 7.766-6.397 12.974-13.984 12.974-6.578 0-11.443-3.262-12.398-9.461-.595-3.82 1.009-5.929 1.009-5.929s1.784.523 3.496.523c3.171 0 6.973-2.343 6.973-7.839 0-3.748-3.495-8.163-8.65-8.163-6.486 0-11.027 4.325-12.955 10.001-8.956 8.686-19.101 17.696-22.471 17.696-1.46 0-2.163-.991-2.163-2.883 0-7.677 30.742-54.871 30.742-54.871l-21.624 1.243-3.081 4.92c-3.262-6-8.073-8.722-15.227-8.722-19.444 0-43.158 19.03-49.862 38.401a465.62 465.62 0 0 1-4.217 4.217c-9.803 9.677-20.02 16.002-24.56 16.92-2.217.451-4.38-.161-4.362-2.504.054-5.316 4.686-13.209 13.3-26.958-.019.018 61.177-104.71 61.177-104.71l-23.138 1.243-54.78 96.912a237.604 237.604 0 0 0-2.163 3.659c-12.434 7.19-25.895 14.002-38.527 18.47.81-7.027-2.09-18.614.739-25.534 14.146-9.875 29.895-27.931 36.094-44.564 7.568-6.271 11.227-15.173 15.299-23.733 3.856-11.335 7.676-23.048 11.713-34.436 2.27-2.866 6.379-3.568 9.424-5.569 4.181-3.82 7.407-8.38 9.515-13.623.288-1.405.414-2.919-.667-4.018-2.018-1.784.018-3.676-.72-5.586-.487-1.766-1.983-2.523-3.64-3.082-1.875-1.027-1.442-4.649-4.254-4.757-2.36 1.009-4.973-.505-6.883-1.496-1.64-.126-2.523 1.334-3.586 2.235-2.145.108-4.307-.613-6.361.45-3.028 2.83-4.577 6.83-6.974 10.2-2.74 4.504.558 8.991-.63 13.784-6.02 12.74-15.534 23.12-23.48 34.51-5.803 8.198-7.353 15.84-8.56 19.911-7.154 5.64-13.245 12.218-18.272 19.372-2.577 3.748-3.19 3.802-6.974 6.47-8.74 3.37-18.4 11.244-23.39 17.262 0 0-3.64-1.045-1.442-6.703 1.604-3.1 7.298-5.46 9.46-7.965 5.19-5.316 5.136-8.83 6.416-15.461 1.478-5.838-1.46-10.217-4.109-14.74-2.396-3.334-5.946-5.064-9.154-7.172-8.794-3.316-15.227-1.928-19.786-.955-1.892.991-3.73 1.532-4.487 2.667-.486.27-2.198.649-2.685.991-2.018 1.297-6.199 4.469-7.712 6.974-1.046 1.712-1.118 3.874-1.46 4.901-.396 1.298-2.793 2.127-3.298 4.145-.739 3.027-.72 4.721-1.243 9.01-.325 2.685-.937 4.09-1.207 6.884-.217 2.054.9 4.27 4.288 6.09 3.767 2.019 2.848 2.758 3.694 8.146.09 1.297-.504 2.559-.973 3.568-2.396-4.866-6.505-9.695-13.659-12.38-2.252-10.055-10.758-19.714-17.606-27.77l-3.586-7.117c7.659-4.47 15.497-8.398 22.994-11.335 33.175-13.12 56.331-11.695 64.458-11.028 14.344 1.17 21.732 5.802 21.804 20.237l17.84-28.4-3.838-.991c-38.004-9.66-80.316-5.406-107.06 2.649C89.92 51.1 78.963 54.326 70.89 58.2c-6.109-7.676-12.037-14.668-16.164-23.39-.973-4.847 2.09-9.676-.667-14.164-2.36-3.64-2.72-10.92-9.1-10.09-.919-.757-1.568-2.47-3.027-2.47-1.262-.09-2.199.505-2.992 1.496-1.315 1.622-3.351-.036-4.901.667-1.045.72-1.442 1.874-1.658 3.045-.45 1.154-1.892 1.352-2.883 1.352-2.072.901-1.64 3.135-1.91 4.83-1.964 1.459-2.793 4.018-2.018 6.487 1.928 6.54 3.874 15.28 11.407 17.353 4.144 1.621 3.658 4.847 5.297 7.91l5.298 19.011c-16.759 9.911-33.39 27.084-40.545 40.87-7.64 14.704-9.082 30.31-4.18 45.104 6.83 20.633 26.904 37.158 57.322 42.131 65.52 10.704 123.73-19.065 155.24-40.113-4.343 8.127-6.56 13.876-6.56 18.49 0 7.712 6.452 11.982 12.83 11.982 10.488 0 23.77-7.478 36.51-20.327 0 .325-.037.685-.037 1.01 0 12.523 8.2 20.308 18.615 20.308 8.11 0 16.597-3.982 24.237-11.299.072 6.668 5.46 11.3 13.137 11.3 9.533 0 19.101-8.686 28.598-18.454.775 11.587 10.362 18.453 26.021 18.453 15.822 0 29.445-6.937 40.888-16.687 1.604 10.506 10.992 16.687 25.86 16.687 16.073 0 32.507-8.775 45.59-19.732-.594 2.09-.883 4.001-.883 5.911 0 7.767 5.28 12.794 13.48 12.794 13.262 0 22.254-10.27 33.336-22.003-.018.252-.036.505-.036.739 0 14.975 9.641 22.237 24.183 22.237 17.335 0 31.878-9.353 45.158-21.606l-3.28-4.18c-4.54 4-22.506 16.578-31.805 16.578" fill="#FFF"/>
    <path d="M534.926 104.782l4.289-34.905h-18.723l-4.289 34.905h18.723zM497.106 104.782l4.289-35.013h-18.813l-4.199 35.013h18.723zM540.756 55.572c-.577-3.099-1.964-5.243-4.289-6.811-3.117-2.127-8.631-1.748-8.577-1.694-.018-.018-42.275-.054-42.275-.054l-2.36 16.633h57.015s1.081-4.974.487-8.073M480.776 60.152c0-3.135.306-4.126-1.009-7.298-1.37-3.261-3.892-4.325-5.64-5.063-1.676-.703-5.478-.775-5.478-.775h-90.803s-3.154.576-4.902 1.55c-2.973 1.657-4.685 3.676-6.019 6.415-1.423 2.9-1.748 8.56-1.748 8.56l115.55.017s.055-.306.055-3.405M420.526 104.782h19.101l2.433-21.696h23.859l6.343-.576c2.54-.577 3.856-1.856 5.352-4.18 1.442-2.217 1.964-8.56 1.964-8.56h-54.763l-4.289 35.013zM362.826 89.412l-2.343 15.371h40.131s6.542.685 10.83-1.46c4.83-2.396 5.947-5.333 6.92-8.469.973-3.1 2.541-15.948 1.964-18.47-.594-2.523-1.55-4.163-3.513-5.443-1.857-1.189-6.055-1.171-6.055-1.171h-46.348s-.27 2.937-.18 3.748c.18 1.406.45 4.505 2.883 6.614 3.964 3.405 8.18 2.775 8.18 2.775h25.932l-.775 6.505h-37.626zM359.126 89.412h-31.57l.774-6.415h31.571l1.568-13.425h-50.474l-4.397 35.211h50.583l1.946-15.37zM364.406 47.002h-50.492l-2.054 16.542h50.366l2.18-16.542z" fill="#ef2c30"/>
</svg>
