<?xml version="1.0" encoding="UTF-8" standalone="no"?>
<!-- Created with Inkscape (http://www.inkscape.org/) -->
<svg xmlns:rdf="http://www.w3.org/1999/02/22-rdf-syntax-ns#" xmlns="http://www.w3.org/2000/svg" height="200.61" width="600" version="1.1" xmlns:cc="http://creativecommons.org/ns#" xmlns:dc="http://purl.org/dc/elements/1.1/">
 <metadata>
  <rdf:RDF>
   <cc:Work rdf:about="">
    <dc:format>image/svg+xml</dc:format>
    <dc:type rdf:resource="http://purl.org/dc/dcmitype/StillImage"/>
    <dc:title/>
   </cc:Work>
  </rdf:RDF>
 </metadata>
 <g transform="translate(-153.7239,-404.25751)">
  <g fill-rule="nonzero" transform="matrix(0.99997597,0,0,0.99997597,0.01090388,0.01212562)">
   <path d="m691.52,565.8c2.2346-15.137,14.579-24.166,14.579-24.166-15.516,17.192-15.768,39.934-4.4511,45.25,0,0-12.867-2.3967-10.128-21.084m-251.42,18.958c-3.2437,0-6.7036-1.2614-6.7036-10.596,0-12.668,16.255-42.709,31.049-42.709,4.2168,0,7.3524,2.595,7.3524,7.046,0,11.785-17.966,45.286-31.698,46.259m-17.642-16.885c2.5769-13.948,15.984-26.49,15.984-26.49-15.119,19.787-18.471,39.357-7.01,45.826,0,0-12.308-1.2975-8.9742-19.336m-87.868-51.232c3.496-10.776,10.434-18.597,19.48-25.643,0.82895,0.79291,1.0993,2.8653,2.7211,2.613,1.3696-1.4056,0.36041-3.2077,0.50458-4.8836,1.2074-13.227,9.2626-22.958,16.182-32.924l6.7577-9.0103c-0.18021,0.12614-0.30635,0.28832-0.41447,0.43249,0,0,5.6584-10.434,7.046-9.4608,8.4156,5.8747,1.2434,17.228-1.5318,26.022-2.1264,6.8118-9.7311,26.706-12.398,29.428-2.1264,2.1444-4.361,2.5049-7.3524,7.5867-2.9734,5.0998-9.6951,15.209-13.011,18.597-3.3338,3.4239-11.551,18.597-17.48,4.2348-1.0452-2.5229-0.66676-6.3432-0.50457-6.992m53.954-94.139c1.3696-3.1716,2.9734-6.2171,4.9196-9.0103,1.2074-1.3876,2.1444,0.018,3.6221,0.0721,2.1805,1.0632,7.7308,3.1896,9.9474,3.3518,0.32437,0.7028-0.28833,1.4056-0.39645,2.0543-1.2614,0.73884-2.595,1.0632-4.0006,1.1173-1.73,0.23427-3.1176-2.3066-4.8475-0.66676-0.5226,1.5318,2.1625,2.8112,0.46853,4.0726-1.1894,0.75686-4.1087-0.86499-3.55,1.5318,1.9282,2.5589,2.5229,4.343,2.8472,7.5866-0.36041,1.6038-0.79291,3.478-2.4328,3.8023-1.712-0.63072-3.9285-3.1356-5.1719-4.4691-0.95509-3.0274-2.3246-6.0369-1.4056-9.4428m-216.86,136.99c-13.119-27.698,8.6859-57.702,32.87-75.434,0.48656,1.1894,0.97311,2.3787,1.4236,3.4419-25.661,21.462-38.96,50.71-20.922,76.948,26.4,38.366,112,28.112,145.93,12.092l0.21624-0.018c-54.368,28.274-139.62,24.995-159.52-17.029m75.344-0.64874c0.66676,5.244,3.9826,19.138,7.2443,25.715-27.463-1.3696-51.809-13.858-58.513-31.932-3.5861-9.641-4.1808-19.21-0.19823-29.013,3.6582-9.0644,7.929-17.029,16.399-24.634,0.45051-0.46853,0.93707-0.84697,1.4236-1.1894l6.2531,8.1633c5.5684,11.821,7.5867,24.85,18.543,33.753,3.1716,3.9645,6.3432,6.0549,8.0552,10.92,0.46853,5.1539-0.25229,3.2978,0.7929,8.2174m-49.22-111.39c-3.7483-2.9554-4.6133-8.1994-0.72082-10.74,0.75686-2.5049,1.2254-4.1808,2.9193-6.163-0.36041-1.6038-2.9013-0.99113-2.4148-3.1716,0.0901-0.7929,1.0092-1.4597,0.59468-2.4328-1.766-1.2434-3.7302,1.2074-5.4062-0.45052-0.57665-0.50457-2.1625-2.3967-1.766-3.3158,1.8561-0.59468,5.8927-1.1353,7.7669-1.6579,1.1353-0.81093,2.5049,1.9823,2.9734,2.667,1.4597,3.55,3.9826,7.3344,2.5589,11.497-2.613,5.7486,1.1894,10.812,3.8564,15.39,8.6318,12.11,20.435,25.211,25.121,39.177,0.82895,2.667,2.1084,5.1539,3.8384,7.4605,8.722,8.4156,15.858,18.453,19.714,29.41,0.23426-0.0901,1.2614,0.27031,1.6579,0.27031,6.5595,2.595,8.74,5.0097,11.93,12.11,6.6136-1.2254,13.479,2.9013,13.101,3.6942,2.7571,2.4148,5.5143,1.6759,5.8927,2.2346,5.3521-3.8564,9.6951-3.6402,15.984-5.244,3.1716-1.0812,5.9648-7.6047,10.218-11.515,3.514-3.2257,14.056-8.2895,14.056-8.2895-0.32437,3.55-2.7391,8.4877-6.145,12.795-5.9468,7.4966-8.6859,15.984-6.3973,21.138,1.73,3.8744,4.8295,13.569,4.2348,16.651-0.63072,4.7034-11.605,7.4605-16.579,8.5958-4.4331,1.3155-10.524,1.9102-16.146,2.1444-5.8206,0.21625-6.9379-4.343-8.0192-5.9107-1.2434-2.0543-2.4868-2.1985-2.2706-6.2351-0.28833-0.45051-1.8201,0.0541-2.3427,0.5226-0.41447,4.1447,0.90103,2.9554,0.39646,7.4966,0.018,2.0544-0.57666,1.9462-3.6221,2.2526-5.0458-0.43249-12.777-1.5678-16.903-8.2714-3.2077-6.2531-2.5589-9.0463-3.1176-18.057-1.6939-4.7574-1.8741-4.1988-4.9737-8.0732-16.579-13.894-15.588-24.057-19.21-35.663-1.2795-2.1084-3.5681-3.3879-5.0638-5.3521-5.226-5.7846-9.0283-11.191-11.785-18.021l-7.911-23.859c-1.6218-2.9914-1.9642-11.479-6.0189-13.083m66.928,10.218c-6.091,1.784-16.831,5.7846-33.374,14.326-0.43249-0.66676-0.883-1.3515-1.3515-2.0543,12.686-5.9288,25.121-10.074,34.726-12.272m23.607,79.903c-0.46854,1.1533-1.766,2.9914-3.7122,2.7211-0.43249-0.10813-1.2254-0.37844-2.3967-2.0183-1.0993-1.5137-3.7663-8.1273-4.2889-11.155-0.28832-1.8201,0.25229-2.4688,0.84697-1.4777,0.59468,0.97311,3.2257,11.317,9.2265,10.29,0.50457,0.0901,0.81092,0.86499,0.32437,1.6399m-2.9734-35.446c-0.39646-0.57666-0.6127-1.4597-0.4325-2.0003,0.34239-0.59468,1.2614-1.9642,2.0544-1.0812,1.2074,1.3515,2.9013,2.7391,3.3879,4.7754,0.0901,0.73884-0.12614,2.649-1.1713,3.0094-3.0815,0.64874-2.7391-2.9013-3.8384-4.7034m-15.984,11.587c-0.45052-0.68478-1.0452-1.73-0.93707-2.5589,0.27031-1.8381,0.48655-3.2257,0.84697-6.6316,0.37843-3.496,0.14416-4.5952,1.3876-6.992,1.0812-2.0363,3.0995-3.2257,3.0815-4.2709,0-1.0452,0.23427-3.3518,0.90103-4.2528,1.0452-1.4236,2.1084-1.784,2.9734-2.8653,0.75687-0.93707,3.0275-3.1896,6.127-4.2348,0.39645,0.1802,0.75686-1.2074,1.5137-1.3155,6.974-1.0092,11.029,1.3515,13.66,4.8115,2.595,2.0003,4.9917,4.0006,2.1084,9.9113,0.28833,0.43249-1.0452,1.8561-1.4597,2.3066-3.46,1.0272-2.3787-1.9102-4.9737-3.3518-2.595-2.8653-8.1092-1.3876-11.461-3.0455-2.2165-2.7211-5.6044-2.2886-6.2351-2.2886-0.63072,0.0541-1.2254,0.39645-0.54061,2.0363,4.433,0.88301,4.0726,2.5409,3.3518,4.0006-1.8201,2.0543-4.5412,4.1087-6.0008,4.8475-1.0812,2.649,1.5498,3.1536,2.5409,4.5772,0.41448,1.5137-1.9462,1.3155-2.2886,3.1356-1.9823,3.3338,5.0097,4.361,0.64874,9.5509-1.6399-0.82894-2.649-1.5498-5.244-3.3698m445.61,70.983c-7.857,0-11.227-7.4605-11.227-15.732,0-20.471,17.516-38.546,28.797-38.546,3.1716,0,3.4239,3.532,3.4239,4.6133,0,3.8204-1.3155,7.8029-2.5769,11.677-0.43249,1.3335-0.883,2.7031-1.2795,4.0546l-0.52259,1.784,1.8201,0.36041c0.70281,0.14416,2.1985,0.37843,4.2529,0.37843,7.893,0,16.056-5.8747,16.056-15.696,0-7.4425-7.7308-12.632-18.777-12.632-23.138,0-46.097,16.867-52.476,36.275-0.59468,0.63072-1.1713,1.2074-1.6399,1.6759-11.659,11.821-17.588,18.741-24.562,21.048-2.2886,0.77488-4.4691,0.39645-4.4691-2.0724,0-5.4242,5.8567-14.507,20.435-37.321l9.0463-14.2,1.766-2.7932c0,0.018-3.2798,0.16219-3.2798,0.16219l-17.588,0.86498-0.88301,0.036s-0.46854,0.75687-0.46854,0.75687l-6.0549,9.5148c-6.0729,9.5509-10.56,16.615-13.786,22.219-6.6496,6.8658-18.723,17.588-25.697,20.003,1.5678-3.0275,2.4328-6.6676,2.4328-10.38,0-7.1542-3.3879-12.164-7.1902-17.083-3.3158-4.4871-6.4694-8.74-6.4694-14.489,0-5.3701,3.7843-8.7039,8.1994-8.7039,5.3521,0,6.145,5.28,6.145,7.3884,0,3.3518-0.82894,5.3341-2.4688,8.8301-0.90103,1.8561-1.3155,3.2797-1.3155,3.2797s3.4239,1.4777,7.028,1.4777c7.4966,0,13.137-3.8564,13.137-11.245,0-9.0824-8.4336-15.191-20.994-15.191-13.317,0-26.797,7.2082-26.797,20.994,0,5.6945,3.496,10.38,6.8658,14.921l0.30635,0.43249c3.4239,4.4511,6.4874,8.8661,6.4874,14.164,0,7.7669-6.3973,12.975-13.984,12.975-6.5775,0-11.425-3.2617-12.398-9.4608-0.59468-3.8204,1.0092-5.9288,1.0092-5.9288s1.784,0.52259,3.496,0.52259c3.1716,0,6.974-2.3427,6.974-7.8389,0-3.7483-3.478-8.1633-8.6499-8.1633-7.5326,0-12.47,5.8567-13.678,12.885-4.7214,4.5772-10.218,9.0103-14.867,10.614,1.5678-3.0275,2.4328-6.6676,2.4328-10.38,0-7.1542-3.3879-12.164-7.1902-17.083-3.3158-4.4871-6.4694-8.74-6.4694-14.489,0-5.3701,3.7843-8.7039,8.1994-8.7039,5.3521,0,6.145,5.28,6.145,7.3884,0,3.3518-0.82895,5.3341-2.4868,8.8301-0.88301,1.8561-1.3155,3.2797-1.3155,3.2797s3.4419,1.4777,7.046,1.4777c7.4785,0,13.137-3.8564,13.137-11.245,0-9.0824-8.4336-15.191-20.994-15.191-13.317,0-26.797,7.2082-26.797,20.994,0,5.6945,3.478,10.38,6.8478,14.921l0.32437,0.43249c3.4239,4.4511,6.4874,8.8661,6.4874,14.164,0,7.7669-6.3973,12.975-13.984,12.975-6.5775,0-11.443-3.2617-12.398-9.4608-0.59468-3.8204,1.0092-5.9288,1.0092-5.9288s1.784,0.52259,3.496,0.52259c3.1716,0,6.974-2.3427,6.974-7.8389,0-3.7483-3.496-8.1633-8.6499-8.1633-6.4874,0-11.029,4.3249-12.957,10.001-8.9562,8.6859-19.102,17.696-22.472,17.696-1.4597,0-2.1625-0.99113-2.1625-2.8833,0-7.6768,30.743-54.873,30.743-54.873l-21.625,1.2434-3.0815,4.9196c-3.2617-6.0008-8.0732-8.722-15.227-8.722-19.444,0-43.159,19.03-49.863,38.402-1.4236,1.4416-2.8292,2.8472-4.2168,4.2168-9.8032,9.677-20.021,16.002-24.562,16.921-2.2165,0.45052-4.379-0.16218-4.361-2.5048,0.0541-5.3161,4.6854-13.209,13.299-26.959-0.018,0.018,61.18-104.72,61.18-104.72l-23.138,1.2434-54.783,96.915c-0.75686,1.2614-1.4777,2.4688-2.1625,3.6582-12.434,7.1902-25.896,14.002-38.528,18.471,0.81092-7.028-2.0904-18.615,0.73884-25.535,14.146-9.8753,29.896-27.932,36.095-44.565,7.5686-6.2712,11.227-15.173,15.299-23.733,3.8564-11.335,7.6768-23.048,11.713-34.437,2.2706-2.8653,6.3793-3.5681,9.4248-5.5684,4.1808-3.8204,7.4064-8.3796,9.5148-13.624,0.28833-1.4056,0.41448-2.9193-0.66676-4.0186-2.0183-1.784,0.018-3.6762-0.72082-5.5864-0.48655-1.766-1.9823-2.5229-3.6402-3.0815-1.8741-1.0272-1.4416-4.6493-4.2529-4.7574-2.3607,1.0092-4.9737-0.50458-6.8838-1.4957-1.6399-0.12614-2.5229,1.3335-3.5861,2.2346-2.1444,0.10812-4.3069-0.6127-6.3613,0.45051-3.0274,2.8292-4.5772,6.8298-6.974,10.2-2.7391,4.5051,0.55864,8.9923-0.63072,13.786-6.0189,12.741-15.534,23.12-23.481,34.509-5.8026,8.1994-7.3524,15.84-8.5598,19.913-7.1542,5.6404-13.245,12.218-18.273,19.372-2.5769,3.7483-3.1896,3.8023-6.974,6.4694-8.74,3.3698-18.399,11.245-23.391,17.264,0,0-3.6402-1.0452-1.4416-6.7036,1.6038-3.0995,7.2983-5.4602,9.4608-7.9651,5.1899-5.3161,5.1359-8.8301,6.4153-15.462,1.4777-5.8387-1.4597-10.218-4.1087-14.741-2.3967-3.3338-5.9468-5.0638-9.1544-7.1722-8.794-3.3158-15.227-1.9282-19.787-0.95509-1.8922,0.99113-3.7302,1.5318-4.4871,2.667-0.48655,0.27031-2.1985,0.64874-2.6851,0.99113-2.0183,1.2975-6.1991,4.4691-7.7128,6.974-1.0452,1.712-1.1173,3.8744-1.4597,4.9016-0.39645,1.2975-2.7932,2.1264-3.2978,4.1447-0.73884,3.0274-0.72082,4.7214-1.2434,9.0103-0.32437,2.6851-0.93707,4.0907-1.2074,6.8839-0.21625,2.0543,0.90102,4.2709,4.2889,6.0909,3.7663,2.0183,2.8472,2.7572,3.6942,8.1453,0.0901,1.2975-0.50457,2.5589-0.97311,3.5681-2.3967-4.8656-6.5054-9.6951-13.66-12.38-2.2526-10.055-10.758-19.714-17.606-27.77l-3.5861-7.1181c7.6587-4.4691,15.498-8.3976,22.994-11.335,33.176-13.119,56.332-11.695,64.46-11.029,14.344,1.1713,21.733,5.8026,21.805,20.237l17.84-28.4-3.8384-0.99113c-38.005-9.659-80.318-5.4062-107.06,2.649-8.8661,2.667-19.823,5.8927-27.896,9.7671-6.109-7.6768-12.038-14.669-16.164-23.391-0.97311-4.8475,2.0904-9.677-0.66676-14.164-2.3607-3.6402-2.7211-10.92-9.1004-10.092-0.91905-0.75686-1.5678-2.4688-3.0275-2.4688-1.2614-0.0901-2.1985,0.50458-2.9914,1.4957-1.3155,1.6218-3.3518-0.036-4.9016,0.66676-1.0452,0.72082-1.4416,1.8741-1.6579,3.0455-0.45052,1.1533-1.8922,1.3515-2.8833,1.3515-2.0724,0.90103-1.6399,3.1356-1.9102,4.8295-1.9642,1.4597-2.7932,4.0186-2.0183,6.4874,1.9282,6.5415,3.8744,15.281,11.407,17.354,4.1447,1.6218,3.6582,4.8475,5.298,7.911l5.298,19.012c-16.759,9.9113-33.392,27.085-40.546,40.871-7.6407,14.705-9.0824,30.311-4.1808,45.105,6.8298,20.634,26.905,37.158,57.323,42.132,65.523,10.704,123.73-19.066,155.25-40.114-4.343,8.1273-6.5595,13.876-6.5595,18.489,0,7.7128,6.4514,11.984,12.831,11.984,10.488,0,23.769-7.4785,36.51-20.327,0,0.32437-0.036,0.68478-0.036,1.0092,0,12.524,8.1994,20.309,18.615,20.309,8.1093,0,16.597-3.9826,24.238-11.299,0.0721,6.6676,5.4602,11.299,13.137,11.299,9.5329,0,19.102-8.6859,28.599-18.453,0.77488,11.587,10.362,18.453,26.022,18.453,15.822,0,29.446-6.9379,40.889-16.687,1.6038,10.506,10.993,16.687,25.86,16.687,16.074,0,32.509-8.776,45.592-19.733-0.59468,2.0904-0.88301,4.0006-0.88301,5.9108,0,7.7669,5.28,12.795,13.479,12.795,13.263,0,22.255-10.272,33.338-22.003-0.018,0.25229-0.036,0.50458-0.036,0.73884,0,14.975,9.641,22.237,24.184,22.237,17.336,0,31.878-9.3527,45.16-21.607l-3.2797-4.1808c-4.5412,4.0006-22.508,16.579-31.806,16.579" fill="#000"/>
   <path d="m688.65,509.04,4.2889-34.906-18.723,0-4.2889,34.906,18.723,0z" fill="#ef2c30"/>
   <path d="m650.83,509.04,4.2889-35.014-18.813,0-4.1988,35.014,18.723,0z" fill="#ef2c30"/>
   <path d="m694.49,459.83c-0.57666-3.0995-1.9642-5.244-4.2889-6.8118-3.1176-2.1264-8.6318-1.748-8.5778-1.6939-0.018-0.018-42.276-0.0541-42.276-0.0541l-2.3607,16.633h57.017s1.0812-4.9737,0.48656-8.0732" fill="#ef2c30"/>
   <path d="m634.5,464.4c0-3.1356,0.30635-4.1267-1.0092-7.2983-1.3696-3.2617-3.8924-4.3249-5.6404-5.0638-1.6759-0.70281-5.4782-0.77489-5.4782-0.77489h-90.806s-3.1536,0.57666-4.9016,1.5498c-2.9734,1.6579-4.6853,3.6762-6.0189,6.4153-1.4236,2.9013-1.748,8.5598-1.748,8.5598l115.55,0.018s0.0541-0.30635,0.0541-3.4059" fill="#ef2c30"/>
   <path d="m574.25,509.04,19.102,0,2.4328-21.697,23.859,0l6.3432-0.57665c2.5409-0.57666,3.8564-1.8561,5.3521-4.1808,1.4416-2.2165,1.9642-8.5598,1.9642-8.5598h-54.764l-4.2889,35.014z" fill="#ef2c30"/>
   <path d="m516.55,493.67-2.3427,15.372,40.132,0s6.5415,0.68478,10.83-1.4597c4.8295-2.3967,5.9468-5.3341,6.9199-8.4697,0.97311-3.0995,2.5409-15.948,1.9642-18.471-0.59468-2.5229-1.5498-4.1628-3.514-5.4422-1.8561-1.1894-6.0549-1.1713-6.0549-1.1713h-46.349s-0.27031,2.9374-0.18021,3.7483c0.18021,1.4056,0.45052,4.5051,2.8833,6.6135,3.9645,3.4059,8.1813,2.7752,8.1813,2.7752h25.932l-0.77489,6.5054h-37.627z" fill="#ef2c30"/>
   <path d="m512.85,493.67-31.572,0,0.77488-6.4153,31.572,0,1.5678-13.425-50.476,0-4.397,35.212,50.584,0,1.9462-15.372z" fill="#ef2c30"/>
   <path d="m518.13,451.26-50.494,0-2.0544,16.543,50.367,0,2.1805-16.543z" fill="#ef2c30"/>
  </g>
 </g>
</svg>
