<?xml version="1.0" encoding="UTF-8" standalone="no"?>
<!-- Created with Inkscape (http://www.inkscape.org/) -->
<svg xmlns:rdf="http://www.w3.org/1999/02/22-rdf-syntax-ns#" xmlns="http://www.w3.org/2000/svg" height="189.76" width="600" version="1.1" xmlns:cc="http://creativecommons.org/ns#" xmlns:dc="http://purl.org/dc/elements/1.1/">
 <defs></defs>
 <metadata>
  <rdf:RDF>
   <cc:Work rdf:about="">
    <dc:format>image/svg+xml</dc:format>
    <dc:type rdf:resource="http://purl.org/dc/dcmitype/StillImage"/>
    <dc:title/>
   </cc:Work>
  </rdf:RDF>
 </metadata>
 <g fill-rule="nonzero" transform="translate(226.5633,2.4157503)">
  <path fill="#000" d="m321.79,77.084-15.27,0,5.6834-42.399s4.5847-0.22734,11.594-0.22734c8.5631,0,17.164,4.2436,17.164,17.505,0,11.14-6.7444,25.121-19.172,25.121m10.571-61.192c-22.696,0-48.878,0.03789-48.878,0.03789l-10.761,78.583h53.538c38.875,0,47.173-25.765,47.173-46.301,0-24.477-15.08-32.32-41.072-32.32"/>
  <path fill="#000" d="m242.55,15.991-3.9026,28.834-31.07,0,3.9026-28.834-31.032,0-10.647,78.507,31.032,0,3.9784-29.251,31.07,0-3.9784,29.251,31.07,0,10.647-78.507-31.07,0z"/>
  <path fill="#000" d="m162.88,161.87c5.153-0.7199,9.1314-5.5319,8.8283-10.761l-23.07-144.05c-0.34101-5.1909-4.8499-9.4724-10.079-9.4724h-329.34c-5.2288,0-9.7377,4.2815-10.079,9.4724l-25.69,144.05c-0.30312,5.2288,3.6374,10.041,8.8283,10.761l180.89,24.931c5.1909,0.71991,13.64,0.71991,18.793,0l180.92-24.93z"/>
  <path fill="#FFF" d="m-17.994,170.93c-5.1909,0.56835-13.678,0.56835-18.869,0l-171.34-15.53c-5.1909-0.41679-5.2667,0.15156-0.15156,0.98513l171.49,23.567c5.1909,0.71991,13.64,0.71991,18.793,0l171.72-23.567c5.2288-0.94724,5.1151-1.4019-0.15156-0.94724l-171.49,15.497z"/>
  <path fill="#ef2e31" d="m31.505,15.635h-56.531-59.752c-11.897-0.03789-19.778,6.2518-20.915,15.648-0.41679,3.448-0.79569,6.517-0.79569,6.517h154.93s0.26523-2.3113,0.53046-4.13c1.177-9.472-2.84-18.035-17.465-18.035"/>
  <path fill="#ef2e31" d="m-179.33,15.627,70.285,0-2.766,22.165-70.248,0,2.7281-22.165z"/>
  <path fill="#ef2e31" d="m-183.11,46.227,70.248,0-2.2355,18.339-44.028,0-1.1367,9.0178,43.99,0-2.5765,20.991-70.285,0,6.0245-48.347z"/>
  <path fill="#ef2e31" d="m56.531,15.635,57.289,0c9.0935,0,18.49,4.2058,16.634,18.755-0.34101,2.6144-0.41679,3.4101-0.41679,3.4101h-76.234l2.7281-22.165z"/>
  <path fill="#FFF" d="m-63.288,131.99,13.11,0,1.1746-9.6619-13.11,0,0.56835-4.5846,21.673,0,1.2125-10.117-32.926,0-4.7362,39.064,33.305,0,1.2125-10.154-22.014,0,0.53046-4.5468zm127.92-24.363-22.923,0c-3.1827,0-5.3424,0.68202-6.517,1.7808-1.2125,1.0609-2.1218,3.1448-2.5007,6.3276l-2.8038,22.848c-0.3789,3.2585,0.03789,5.3046,0.98513,6.3655,0.90935,1.0988,2.8796,1.7429,6.1002,1.7429h22.923c3.1827,0,5.3424-0.64413,6.517-1.7429,1.1746-1.0609,2.0839-3.107,2.5007-6.3655l0.7199-5.9108h-11.253l-0.45468,3.5995h-16.482l2.1976-18.149h16.52l-0.3789,2.9933h11.215l0.68202-5.3803c0.3789-3.1827-0.03789-5.2667-0.98513-6.3276-0.87146-1.0988-2.8796-1.7808-6.0624-1.7808m-225.52,21.635,4.9257-8.4494,2.7281,8.4494-7.6537,0zm0.0379-21.635-22.317,39.064,12.352,0,4.6226-7.9568,16.065,0,2.6523,7.9568,12.39,0-12.845-39.064-12.92,0zm55.66,14.284-8.2978-14.284-12.541,0-4.7362,39.064,10.42,0,2.5386-20.915,9.1693,17.24,1.705,0,13.565-17.202-2.5765,20.877,10.458,0,4.7741-39.064-12.541,0-11.935,14.284zm198.69,7.3506,4.0542-6.9717,0.83357-1.6292,2.5765,8.0326,0.18945,0.56835-7.6537,0zm12.958-21.635-12.92,0-22.279,39.064,12.352,0,4.5847-7.9568,16.065,0,2.6523,7.9568,12.39,0-12.845-39.064zm-114.73,14.36-0.03789,0-0.03789,0.341-12.958,0,0.53046-4.5468,12.996,0-0.03789,0.341,0.03789,0-0.49257,3.8648zm1.0988,10.458,2.0082-0.0758c2.6523-0.0379,4.4331-0.71991,5.5319-1.8566,1.0988-1.0988,1.9703-3.1448,2.3492-6.176l1.023-8.601c0.41679-3.1827-0.03789-5.2667-0.94724-6.3276-0.90935-1.0988-2.9175-1.7808-6.1002-1.7808h-27.394l-4.7362,39.064h11.253l1.705-14.247h2.5765l11.481,14.247h12.731l-10.306-12.807-1.1746-1.4398zm16.482,14.247,11.253,0,4.7362-39.064-11.215,0-4.7741,39.064z"/>
  <path fill="#ef2e31" d="m47.396,46.227s-0.34101,3.1448-0.79568,6.517c-0.94724,6.7823-5.9866,11.822-15.345,11.822h-33.002l-3.7132,30.009h-26.295l5.9866-48.347h73.165z"/>
  <path fill="#ef2e31" d="m52.734,46.219,26.295,0-6.0245,48.309-26.258,0.03789,5.9866-48.347z"/>
  <path fill="#ef2e31" d="m-49.822,46.238h-57.706c-1.9703,12.617,4.3573,18.301,13.299,18.301h35.541l-1.0988,9.0556h-51.151l-2.5765,20.953s55.66,0.03789,57.895,0c1.8566-0.11367,14.891-0.49257,19.324-11.14,1.4777-3.448,2.7281-15.838,3.107-18.452,2.046-15.118-8.3736-18.718-16.634-18.718"/>
  <path fill="#ef2e31" d="m102.65,46.219,26.258,0-5.9866,48.309-26.258,0.03789,5.9866-48.347z"/>
 </g>
</svg>
