<svg version="1.1" viewBox="0 0 817.76 148.01" xml:space="preserve" xmlns="http://www.w3.org/2000/svg">
<style type="text/css">
	.st0{fill:#ED1C24;}
</style>
<g transform="scale(1.6355)">
	<path class="st0" d="m252.5 0.1h-133.1c-13.6 0-22.7 7.2-23.9 17.9-0.5 4-0.9 7.4-0.9 7.4h177.4s0.3-2.6 0.6-4.7c1.2-10.8-3.4-20.6-20.1-20.6"/>
	<path class="st0" d="m270.7 35.1s-0.4 3.6-0.9 7.5c-1.1 7.7-6.8 13.5-17.5 13.5h-37.8l-4.2 34.4h-30.1l6.8-55.3h83.7z"/>
	<path class="st0" d="m91.5 0.1-3.1 25.4h-80.4l3.1-25.4z" fill="#ed1c24"/>
	<path class="st0" d="m6.8 35.1h80.4l-2.5 21h-50.4l-1.3 10.3h50.4l-3 24.1h-80.4z" fill="#ed1c24"/>
	<path class="st0" d="m281.1 0.1h65.6c10.4 0 21.1 4.8 19 21.5-0.4 3-0.5 3.9-0.5 3.9h-87.2z"/>
	<path class="st0" d="m276.8 35.1h30.1l-6.8 55.3-30.1 0.1z" fill="#ed1c24"/>
	<path class="st0" d="m334 35.1h30.1l-6.8 55.3-30.1 0.1z" fill="#ed1c24"/>
	<path class="st0" d="m159.4 35.1h-66.1c-2.2 14.4 5 21 15.3 21h40.7l-1.3 10.3h-58.5l-2.9 24h66.3c2.1-0.2 17-0.6 22.1-12.8 1.6-4 3.1-18.2 3.5-21.1 2.3-17.2-9.7-21.4-19.1-21.4"/>
	<path class="st0" d="m394.1 35.1h15.6l-2.4 19.9h15.7l2.4-19.8h15.6l-6.7 55.3h-15.6l2.6-21.4h-15.7l-2.6 21.4h-15.6z"/>
	<path class="st0" d="m446.9 90.5 6.7-55.3h26.2c12.2 0 17.9 6.6 16.7 16.8l-2.6 21.6c-1.3 10.3-8.6 16.9-20.8 16.9zm17.3-14.2h10.3c2.8 0 3.6-1.1 4-3.6l2.5-20c0.3-2.5-0.3-3.6-3.1-3.6h-10.3z"/>
	<path class="st0" d="m418.5 0.2-2.2 18.3c-0.5 4.5-3.6 7.4-8.8 7.4h-4.3c-5.2 0-7.5-2.9-7-7.4l2.2-18.3h6.3l-2.2 17.8c-0.2 1.6 0.3 2.4 1.8 2.4h3.3c1.6 0 2.2-0.8 2.4-2.4l2.2-17.8z"/>
	<path class="st0" d="m426.1 19.5c-0.1 0.3 0.1 0.5 0.4 0.6h0.2 10.4l-0.7 5.3h-14.2c-2.2 0-3-1.2-2.7-3.1l2.7-22.1h6.3z"/>
	<path class="st0" d="m440.7 25.4 2.4-20h-7l0.6-5.3h20.3l-0.7 5.3h-7l-2.5 20z"/>
	<path class="st0" d="m456.4 25.4 3.1-25.3h13.5c4.4 0 5.7 3.2 5.2 7.4l-0.2 1.9c-0.3 2.6-1.4 5.5-4 6.8l2.4 9.3h-6.8l-1.9-8.7h-3.8l-1.1 8.7h-6.4zm15.8-18.5c0.1-0.9-0.3-1.4-1.2-1.4h-5.8l-0.8 5.9h5.8c0.9 0 1.4-0.4 1.6-1.4z"/>
	<path class="st0" d="m493.2 21.5h-8.3l-1.6 4h-6.2l9.4-22.5c0.8-1.9 1.7-3 3.4-3h3.5c1.8 0 2.3 1 2.7 3l3.9 22.4h-6.2zm-2.3-15.1-4 10h5.5z"/>
</g>
</svg>
