<svg width="200mm" height="139.056" viewBox="0 0 200 36.792" xmlns="http://www.w3.org/2000/svg">
    <path d="M149.98 29.8l1.422-5.3h18.834c.891 0 1.721-.726 1.847-1.622a1.518 1.518 0 0 0-.352-1.213c-.26-.3-.617-.465-1.008-.465h-12.048c-1.848 0-3.457-.704-4.526-1.978-1.074-1.278-1.487-2.987-1.157-4.817.748-4.187 4.278-6.84 8.052-6.84h19.695l-1.417 5.3h-19.095c-.826 0-1.583.666-1.84 1.618-.1.387-.021.774.222 1.096.261.339.674.539 1.1.539h12.113c1.852 0 3.457.704 4.526 1.987 1.066 1.278 1.435 2.99 1.13 4.834-.686 4.135-3.895 6.861-8.125 6.861H149.98M128.24 7.47c-6.609 0-9.356 3.417-11.169 10.2l-3.23 12.034h5.73l3.2-12.034c.678-2.54 2.308-4.9 5.47-4.9h6.734l1.395-5.3h-8.13M153.1 7.45h-8.865l1.996-7.456h-5.726l-7.957 29.69h5.726l4.535-16.938h8.874L153.1 7.45M79.17 17.24l-.83 3.104c-.587 2.183-2.522 4.096-5.218 4.096H62.366l3.118-11.634h10.608c3.77 0 3.352 3.439 3.078 4.435zm-3.078-9.735H61.175l-7.848 29.286h5.73l1.892-7.052h12.174c5.23 0 9.213-3.3 10.49-8.021l.836-3.104c1.265-4.696-.04-11.108-8.357-11.108M109.06 17.32l-.83 3.104c-.587 2.183-2.522 4.096-5.218 4.096H94.84c-3.77 0-3.353-3.435-3.079-4.435l.83-3.104c.583-2.183 2.61-4.096 5.218-4.096h8.17c3.773 0 3.356 3.44 3.082 4.435zm-3.083-9.735h-8.169c-4.9 0-9.213 3.3-10.495 8.026l-.83 3.105c-1.27 4.695-.096 11.104 8.356 11.104h8.174c5.23 0 9.212-3.3 10.49-8.022l.835-3.104c1.266-4.696-.039-11.108-8.36-11.108" fill="#434750"/>
    <path d="M194.19.12a10.89 10.89 0 0 1-10.321 7.452l-1.352 5.3h6.374l-4.544 16.934h7.587L199.994.12h-5.803" fill="#f7a511"/>
    <path d="M3.67 29.27c-2.401-.75-3.926-3.317-3.633-5.784.343-3.636 1.495-7.17 3.037-10.467 1.287-2.748 3.974-4.812 7.016-5.141 3.781-.294 7.734-.29 11.52-.163 1.307.02 2.557.28 3.53 1.266 2.208 1.77 2.34 5.054 1.195 7.458-1.042 2.326-1.91 3.435-4.718 4.505-.693.242-1.511.358-2.213.392-4.28.086-8.397-.089-12.67.185-1.113.287-1.814 2.526-.368 2.866 3.215.28 6.452.176 9.677.255 2.566.03 5.187-.097 7.753-.066-.446 1.61-.902 3.434-1.348 5.044-5.553.007-11.153.062-16.705-.039-.698-.033-1.41-.069-2.073-.31zm17.203-13.867c.915-.656.808-2.368-.49-2.442-2.582-.191-5.18-.026-7.766.032-1.317-.062-2.545.49-3.518 1.35-.573.437-.94 1.059-1.288 1.674h12.448l.614-.614zM25.76 29.19c.425-1.657.839-3.318 1.257-4.977l19.846-.116c1.314-.818 2.682-2.005 2.561-3.71-.019-1.832-1.774-2.91-3.46-2.762-3.872-.247-9.998-.045-11.128-.249-2.24-.405-4.919-2.418-5.303-4.962-.444-2.946-.137-3.156.296-4.732C31.16 4.094 34.327.999 38.191.419 43.674.139 49.169.297 54.657.258h4.667c-.395 1.803-.93 3.573-1.41 5.355-6.419.095-12.84.065-19.254.282-2.112-.139-3.698 2.146-3.436 4.106.4 1.462 1.84 2.477 3.364 2.192 3.775.173 7.572-.036 11.336.337 2.869.58 5.393 3.319 5.242 6.32.059 2.817-.762 5.78-2.98 7.695-1.782 1.853-4.254 3.044-6.85 3.005-6.564.204-13.133.078-19.7.113l.125-.473z" fill="#434750" fill-rule="evenodd" paint-order="stroke markers fill"/>
</svg>
