<svg xmlns="http://www.w3.org/2000/svg" height="468.89" width="600" version="1.1" viewBox="0 0 158.75 124.0592">
 <g transform="translate(-40.065 -111.75)">
  <path d="m119.48 111.75c-14.174 0-26.839 6.4813-35.179 16.649h29.954v12.3h-37.18c-1.3328 3.4196-2.2696 7.0449-2.7418 10.807h27.174v12.308h-27.058c0.54074 3.77 1.5461 7.3953 2.9627 10.807h36.839v12.3h-29.264c8.3473 9.6953 20.701 15.826 34.493 15.826 25.126 0 45.499-20.366 45.499-45.499 0-25.126-20.373-45.499-45.499-45.499" fill="#469cdb"/>
  <g fill="#fff">
   <path d="m40.065 235.53v-19.17h14.097v3.6481h-9.9086v3.968h8.5453v3.3968h-8.5453v4.5392h10.183v3.6177z"/>
   <path d="m70.494 230.05c0 1.6451-0.63976 3.016-1.9193 4.1127s-2.9474 1.6451-5.019 1.6451c-0.89109 0-1.7517-0.099-2.5895-0.30464-0.83016-0.19802-1.5156-0.43412-2.064-0.7083-0.54836-0.27418-1.0358-0.55598-1.4547-0.83778-0.41889-0.28179-0.73115-0.52551-0.92917-0.72353l-0.27418-0.30464 2.4676-2.658c0.05331 0.0533 0.13709 0.12947 0.24372 0.22848 0.10663 0.10663 0.33511 0.27418 0.68545 0.52551 0.34273 0.24372 0.7083 0.45697 1.0815 0.63976 0.37319 0.18279 0.83778 0.35034 1.4014 0.51028 0.55598 0.15232 1.1043 0.22848 1.6527 0.22848 0.71592 0 1.3024-0.17517 1.7593-0.53312 0.45697-0.35035 0.68545-0.80731 0.68545-1.3557 0-0.63975-0.31226-1.211-0.93678-1.7136-0.61691-0.50266-1.7593-1.0891-3.4273-1.7669-3.0465-1.1881-4.5773-3.0236-4.5773-5.5065 0-1.5918 0.61691-2.9017 1.8355-3.9223 1.2262-1.0206 2.8332-1.5308 4.8286-1.5308 0.78446 0 1.5461 0.0838 2.2772 0.25895 0.73115 0.16756 1.3328 0.37319 1.8203 0.61691 0.48743 0.2361 0.92155 0.4722 1.3024 0.7083 0.38081 0.2361 0.65499 0.44173 0.82254 0.60167l0.27418 0.27418-2.4676 2.658c-0.12947-0.12186-0.30464-0.2818-0.5179-0.4722-0.22087-0.19802-0.67784-0.44935-1.3633-0.76923-0.67784-0.31988-1.3785-0.47981-2.0944-0.47981-0.76923 0-1.3633 0.17517-1.7974 0.51789-0.4265 0.35034-0.63976 0.754-0.63976 1.2034 0 0.57121 0.24372 1.0586 0.72353 1.4699 0.48743 0.41128 1.3938 0.87586 2.7266 1.3861 3.6557 1.4242 5.4836 3.4273 5.4836 6.0015"/>
   <path d="m75.129 217.32v9.7182h6.2148c1.607 0 2.9094-0.45697 3.9147-1.3633 1.0053-0.91393 1.508-2.0792 1.508-3.4806s-0.50266-2.5666-1.508-3.4882c-1.0053-0.92156-2.3077-1.3861-3.9147-1.3861zm-1.0967-0.95963h7.479c1.8583 0 3.3816 0.55598 4.5697 1.6603s1.7822 2.4829 1.7822 4.1432-0.60167 3.0541-1.8126 4.166c-1.2033 1.112-2.7342 1.6679-4.6001 1.6679h-6.3214v7.5324h-1.0967z"/>
   <path d="m94.509 232.24c1.6908 1.6984 3.7624 2.5438 6.23 2.5438 2.46 0 4.5392-0.84539 6.23-2.5438 1.6832-1.6984 2.5286-3.8004 2.5286-6.2985s-0.84539-4.6001-2.5286-6.2985c-1.6908-1.6984-3.77-2.5438-6.23-2.5438-2.4676 0-4.5392 0.84539-6.23 2.5438s-2.5286 3.8004-2.5286 6.2985 0.83777 4.6001 2.5286 6.2985m-0.754-13.283c1.9193-1.9116 4.2574-2.8713 7.0068-2.8713 2.757 0 5.0876 0.95201 6.984 2.8484 1.904 1.8964 2.8484 4.227 2.8484 6.984s-0.95964 5.0876-2.8713 7.0068c-1.9193 1.9193-4.2574 2.8789-7.0144 2.8789-2.7494 0-5.08-0.95202-6.984-2.8484-1.8964-1.904-2.8408-4.227-2.8408-6.984s0.95963-5.0952 2.8713-7.0145"/>
   <path d="m139.78 217.32v18.21h-1.0967v-18.21h-6.7098v-0.95963h14.516v0.95963z"/>
   <path d="m116.36 217.32v9.3069h6.4356c1.5537 0 2.8027-0.43412 3.7624-1.31 0.95963-0.87586 1.4394-1.9878 1.4394-3.3435 0-1.3481-0.47982-2.4676-1.4394-3.3435-0.95963-0.87585-2.2087-1.31-3.7624-1.31zm-1.0967-0.95963h7.6923c1.8126 0 3.2826 0.53313 4.425 1.5918 1.1424 1.0586 1.7136 2.3915 1.7136 3.9985 0 1.4394-0.47982 2.6733-1.4242 3.709-0.95201 1.0282-2.1934 1.6527-3.7243 1.8736l5.9634 7.9969h-1.3633l-5.9406-7.9436h-6.2452v7.9436h-1.0967z"/>
   <path d="m151.45 223.16c0.74638 0.68545 1.9345 1.2643 3.5567 1.7365 2.0107 0.60167 3.511 1.3709 4.5088 2.3001 0.99771 0.93678 1.4928 2.0944 1.4928 3.4806 0 1.4775-0.54836 2.7037-1.6451 3.671-1.0967 0.96725-2.5819 1.4471-4.463 1.4471-0.82255 0-1.5994-0.0838-2.3382-0.25895-0.73876-0.17517-1.3557-0.38081-1.8355-0.61691-0.48743-0.2361-0.90632-0.4722-1.2719-0.7083-0.36557-0.24371-0.63213-0.44173-0.79969-0.60929l-0.24372-0.27418 0.76923-0.79207 0.22849 0.2361c0.10662 0.099 0.34272 0.28179 0.71591 0.54836 0.37319 0.25895 0.76923 0.48743 1.1881 0.67783 0.41889 0.19802 0.97486 0.37319 1.6603 0.54075 0.67783 0.15994 1.3938 0.24371 2.1477 0.24371 1.4242 0 2.5819-0.37319 3.4653-1.1348 0.88347-0.76161 1.3252-1.706 1.3252-2.8332 0-1.1881-0.40365-2.163-1.2186-2.917-0.80731-0.75399-2.2239-1.4471-4.2346-2.0716-1.6375-0.51029-2.9246-1.1881-3.8385-2.0335-0.92917-0.85301-1.3861-1.8507-1.3861-3.0008 0-1.3328 0.53313-2.4524 1.5994-3.3511 1.0663-0.90632 2.4829-1.3557 4.2346-1.3557 1.1272 0 2.1706 0.16755 3.1226 0.51789 0.9444 0.34273 1.6146 0.68545 1.9954 1.013l0.54836 0.51789-0.76923 0.7997c-0.12947-0.15232-0.31226-0.31988-0.56359-0.52551-0.24372-0.19802-0.78446-0.47221-1.607-0.80731-0.83778-0.33511-1.7212-0.50267-2.6733-0.50267-1.5384 0-2.719 0.35796-3.5491 1.0815-0.83016 0.71592-1.2414 1.5461-1.2414 2.4752 0 0.98248 0.37319 1.8203 1.1196 2.5057"/>
   <path d="m172.82 220v15.522h-4.1584v-15.522h-5.5902v-3.6405h15.339v3.6405z"/>
   <path d="m179.37 216.36h4.7068l5.1256 13.778 5.118-13.778h4.4935l-7.6466 19.17h-4.1584z"/>
  </g>
 </g>
</svg>
