<svg width="800.013" height="268.282" viewBox="0 0 211.67 70.983" xmlns="http://www.w3.org/2000/svg">
    <path d="M0 0h34.91v70.983H0z" fill="#09784e" fill-rule="evenodd"/>
    <g stroke-width="1.064">
        <path fill="#ffd756" d="M2.33 39.8H9.3v6.971H2.33z"/>
        <path fill="#c9352c" d="M9.3 39.8h6.971v6.971H9.3z"/>
        <path d="M33.7 32.83v6.97H9.307v-6.97zM16.27 60.71v-6.972h13.941v-6.97H9.301v20.91h24.393V60.71H16.27z" fill="#fff"/>
    </g>
    <g fill="#09784e" stroke-width="1.064">
        <path d="M61.502 64.63l-3.292-5.368c-1.216.945-2.422 1.586-3.62 1.923-1.198.338-2.39.51-3.57.51a7.689 7.689 0 0 1-2.304-.356 6.187 6.187 0 0 1-2.076-1.116c-.624-.506-1.13-1.156-1.52-1.947-.388-.793-.582-1.765-.582-2.914V45.185c0-1.147.195-2.126.582-2.936.389-.81.886-1.468 1.494-1.975.608-.506 1.3-.869 2.077-1.088a8.487 8.487 0 0 1 2.328-.33c1.18 0 2.396.18 3.647.532 1.247.356 2.412.989 3.493 1.9l3.343-5.368c-1.351-1.182-2.963-2.043-4.836-2.582a20.986 20.986 0 0 0-5.849-.81c-1.654 0-3.275.237-4.862.709-1.587.473-2.996 1.182-4.226 2.127a10.939 10.939 0 0 0-2.99 3.519c-.758 1.4-1.138 3.031-1.138 4.887v13.062c0 1.892.388 3.539 1.166 4.94a10.815 10.815 0 0 0 3.037 3.493c1.25.928 2.667 1.63 4.255 2.102a16.94 16.94 0 0 0 4.86.71c2.06 0 4.018-.305 5.875-.91 1.855-.614 3.425-1.457 4.708-2.537M65.983 32.83v34.888h6.938V39.057h12.86v28.661h7.04V32.83zM107.245 39.06v9.316h7.09c1.587 0 2.785-.44 3.595-1.322.81-.883 1.216-1.985 1.216-3.31 0-1.357-.414-2.478-1.242-3.36-.825-.884-2.016-1.324-3.568-1.324zm8.659-6.227c1.722 0 3.208.328 4.456.986 1.249.659 2.286 1.512 3.114 2.559a10.394 10.394 0 0 1 1.822 3.518c.39 1.3.583 2.574.583 3.823 0 1.284-.228 2.566-.684 3.848a11.503 11.503 0 0 1-1.975 3.495c-.86 1.047-1.923 1.899-3.19 2.556-1.264.659-2.708.99-4.327.99h-8.458v13.114h-6.938V32.834zM154.118 32.83h-24.052v34.888h24.052V61.49h-17.116v-8.204h14.635v-6.229h-14.635v-8h17.116zM181.774 64.63l-3.292-5.368c-1.217.945-2.422 1.586-3.62 1.923-1.2.338-2.388.51-3.57.51a7.684 7.684 0 0 1-2.304-.356 6.192 6.192 0 0 1-2.077-1.116c-.625-.506-1.13-1.156-1.519-1.947-.388-.793-.583-1.765-.583-2.914V45.185c0-1.147.195-2.126.583-2.936.389-.81.886-1.468 1.494-1.975a5.567 5.567 0 0 1 2.077-1.088 8.487 8.487 0 0 1 2.329-.33c1.18 0 2.395.18 3.646.532 1.249.356 2.412.989 3.493 1.9l3.343-5.368c-1.352-1.182-2.963-2.043-4.836-2.582a21.003 21.003 0 0 0-5.849-.81c-1.655 0-3.274.237-4.862.709-1.586.473-2.995 1.182-4.227 2.127a10.95 10.95 0 0 0-2.989 3.519c-.76 1.4-1.14 3.031-1.14 4.887v13.062c0 1.892.389 3.539 1.166 4.94a10.831 10.831 0 0 0 3.038 3.493c1.248.927 2.666 1.63 4.253 2.102 1.586.472 3.208.71 4.862.71 2.06 0 4.016-.306 5.873-.911 1.857-.613 3.427-1.456 4.711-2.536M198.301 38.85a8.13 8.13 0 0 0-2.379.354 5.92 5.92 0 0 0-2.077 1.113c-.606.508-1.095 1.158-1.468 1.95-.372.794-.556 1.765-.556 2.912v10.177c0 1.149.185 2.129.556 2.94.373.81.862 1.468 1.468 1.973.609.505 1.3.868 2.077 1.088.776.218 1.57.331 2.379.331.81 0 1.596-.112 2.356-.33a5.649 5.649 0 0 0 2.05-1.089c.608-.506 1.096-1.165 1.469-1.974.372-.81.556-1.79.556-2.939V45.179c0-1.147-.185-2.118-.556-2.912-.372-.792-.86-1.443-1.468-1.95a5.93 5.93 0 0 0-2.052-1.113 7.918 7.918 0 0 0-2.355-.354m-5.027-5.672a17.786 17.786 0 0 1 5.002-.708c1.72 0 3.388.252 5.004.76 1.618.506 3.048 1.24 4.295 2.2a10.664 10.664 0 0 1 2.984 3.598c.74 1.435 1.112 3.08 1.112 4.936v12.608c0 1.89-.355 3.545-1.062 4.963a10.685 10.685 0 0 1-2.88 3.595c-1.215.98-2.637 1.715-4.272 2.203-1.635.49-3.362.734-5.18.734-1.82 0-3.548-.245-5.182-.734-1.634-.488-3.057-1.223-4.27-2.203a10.702 10.702 0 0 1-2.882-3.595c-.707-1.418-1.06-3.072-1.06-4.963V43.763c0-1.856.37-3.495 1.11-4.913a10.517 10.517 0 0 1 2.983-3.545c1.247-.944 2.68-1.652 4.298-2.127"/>
    </g>
</svg>
