<svg width="215mm" height="105.3mm" viewBox="0 0 215 105.3" xmlns="http://www.w3.org/2000/svg">
    <g transform="translate(252.712 -382.41) scale(2.9166)">
        <circle cx="-29.349" cy="149.24" r="16.417" fill="#ce141f"/>
        <path d="M-30.779 144.91c-.924.162-1.611.367-2.58.62l-.787-3.405c1.72-.458 3.496-1.432 3.409-1.377h4.133v15.771h-4.114c-.161-3.856.23-7.762-.06-11.609z" fill="#fff"/>
        <path d="M-61.774 166.98c-1.798-.754-2.48-2.419-1.685-4.106.435-.924.86-1.392 2.995-3.296 2.348-2.094 3.257-3.116 4.17-4.69 1.82-3.14 1.582-6.501-.704-9.896-1.982-2.945-5.256-5.82-10.245-8.998-1.877-1.194-2.543-1.747-2.543-2.109 0-.3.36-.697.814-.894.574-.25 7.157-1.875 7.597-1.875.375 0 .699.22.699.475 0 .078-.246.648-.546 1.266-.478.982-.53 1.153-.418 1.36.07.129.563.545 1.094.924 5.745 4.096 9.16 8.8 9.989 13.756.223 1.334.165 4.372-.107 5.575-.92 4.08-3.154 7.978-6.304 10.996-1.477 1.415-2.018 1.702-3.284 1.743-.76.025-.998-.011-1.522-.231z"/>
        <path d="M-70.996 141a2.364 2.364 0 0 1-1.41-2.162c0-1.315.972-2.269 2.31-2.269 2.401 0 3.143 3.25.988 4.324-.634.316-1.315.354-1.888.106zM-84.18 156.836a3.114 3.114 0 0 1-2.237-1.724 2.228 2.228 0 0 1-.233-1.043c0-.407.044-.602.222-.961.246-.5.695-.918 1.273-1.185.183-.084 10.073-3.508 10.47-3.625a4.96 4.96 0 0 1 1.202-.197c.447-.019.76.024 1.012.14.16.073 1.607 1.178 1.852 1.413.273.263.371.572.274.864-.066.2-.258.45-.441.575-.085.058-2.43 1.182-5.212 2.497-6.7 3.167-6.45 3.05-6.713 3.133a3.218 3.218 0 0 1-1.469.113zM-79.899 164.483a3.47 3.47 0 0 1-.728-.209c-1.095-.478-1.801-1.69-1.662-2.851.101-.846.572-1.608 1.316-2.133.094-.066 3.476-1.763 7.518-3.772a2326.66 2326.66 0 0 0 7.885-3.93c.7-.363.9-.43 1.27-.435.264-.003.294.003.436.081.265.147.422.42.48.837.016.115.023.28.017.365a44.53 44.53 0 0 0-.044.82c-.045.962-.168 1.538-.445 2.077-.167.327-.508.677-.952.978-.505.343-13.052 7.767-13.327 7.885-.289.125-.66.233-.95.276-.195.03-.636.035-.814.01z"/>
    </g>
</svg>
