<svg version="1.1" viewBox="0 0 800.01 99.945" xml:space="preserve" xmlns="http://www.w3.org/2000/svg"><polygon transform="matrix(2.2161 0 0 2.2161 -17.729 -17.729)" points="346.4 47.3 337.1 43 346.3 33.8 315.5 33.8 309.4 52.2" fill="#D65A57"/><polygon transform="matrix(2.2161 0 0 2.2161 -17.729 -17.729)" points="343 26.3 348.5 20.3 359.2 8 325.9 11.1 320.4 26.4" fill="#487E65"/><polygon transform="matrix(2.2161 0 0 2.2161 -17.729 -17.729)" points="368.7 31.6 369 20.5 348.5 20.3 334.3 36.1" fill="#FDD31C"/><g transform="translate(2e-4,2e-4)"><g stroke-width="2.2161"><path d="m171.52 51.413c0 30.36-19.058 48.532-44.765 48.532-25.928 0-43.657-18.393-43.657-48.532v-44.543h22.161v44.543c0 17.729 7.5347 28.144 21.496 28.144 13.74 0 22.382-10.416 22.382-28.144v-44.543h22.382v44.543z"/><path d="m264.38 40.997c0 13.296-6.4266 24.377-16.177 29.695l18.837 27.479h-27.701l-13.74-22.826h-16.177v22.826h-22.161v-91.302h44.322c18.837 0 32.798 14.404 32.798 34.128m-54.737-13.74v27.923h19.058c7.5347 0 13.518-6.4266 13.518-13.961 0-7.5347-5.9834-13.961-13.518-13.961h-19.058z"/><path d="m368.53 52.521c0 26.15-21.274 47.424-47.202 47.424-26.15 0-47.202-21.274-47.202-47.424 0-25.928 21.053-47.424 47.202-47.424 25.928 0 47.202 21.496 47.202 47.424m-74.239 0c0 14.848 12.188 26.815 27.036 26.815 14.626 0 26.815-11.967 26.815-26.815s-12.188-26.815-26.815-26.815c-15.069 0-27.036 11.967-27.036 26.815"/><path d="m462.72 71.579c0 14.848-9.5291 26.593-34.571 26.593h-44.986v-91.302h39.668c26.593 0 34.792 10.416 34.792 25.263 0 9.3075-6.6482 15.956-8.6427 17.507 8.8643 4.2105 13.74 12.188 13.74 21.939m-26.15-36.787c0-6.205-3.9889-9.0859-12.41-9.0859h-19.058v19.058h19.058c9.5291 0 12.41-2.8809 12.41-9.9723m-11.08 26.815h-20.388v17.729h20.388c8.8643 0 13.296-2.8809 13.296-8.8643 0-6.8698-4.4322-8.8643-13.296-8.8643"/></g><path transform="matrix(2.2161,0,0,2.2161,-17.729,-17.729)" d="m255.4 52.3h-31.6v-41.2h31.6v9.2h-21.7v7.1h18.1v8.6h-18.1v7.1h21.7z"/><path transform="matrix(2.2161,0,0,2.2161,-17.729,-17.729)" d="m285.7 20.3v32h-10v-32h-14.7v-9.2h39.4v9.2z"/><path transform="matrix(2.2161,0,0,2.2161,-17.729,-17.729)" d="m17.9 20.3h21.7v-9.2h-31.6v41.2h31.6v-9.2h-21.7v-7.1h18.1v-8.6h-18.1z"/></g></svg>
