<svg width="600" height="60.464" viewBox="0 0 158.75 15.998" xmlns="http://www.w3.org/2000/svg">
    <g fill="#fff">
        <path d="M13.653 15.68l-5.16-3.413-7.99 3.387 4.71-5.53L0 6.684H8.15L13.68.202v6.482h7.884l-7.884 3.36v5.636"/>
        <path d="M23.443 3.43a.52.52 0 0 0 .503-.503V.757a.502.502 0 0 0-.503-.502h-8.467V3.43h8.467M23.443 15.73a.52.52 0 0 0 .503-.503v-2.17a.502.502 0 0 0-.503-.502h-8.467v3.175h8.467M136.971.22h-10.557a.52.52 0 0 0-.503.503v2.17a.52.52 0 0 0 .503.502h3.704v11.8c0 .291.212.503.503.503h2.17a.487.487 0 0 0 .502-.503v-11.8h3.678a.502.502 0 0 0 .503-.503V.722a.52.52 0 0 0-.503-.502M91.861 6.87a1.993 1.993 0 0 1-.476.794c-.212.211-.424.37-.688.476-.265.132-.741.185-1.693.185h-2.435V3.43h3.202c.344 0 .661.053.926.186.29.132.529.29.74.502.212.212.345.477.45.768.106.317.16.661.16 1.005a4.26 4.26 0 0 1-.186.979zm2.99-3.148c-.238-.688-.635-1.27-1.111-1.8A5.57 5.57 0 0 0 91.967.705c-.688-.317-1.482-.45-2.355-.45h-5.741a.52.52 0 0 0-.503.503v14.473a.52.52 0 0 0 .503.503h2.17a.502.502 0 0 0 .502-.503v-3.704h3.07c.872 0 1.64-.159 2.327-.45a5.174 5.174 0 0 0 1.773-1.217 5.153 5.153 0 0 0 1.111-1.773c.238-.661.37-1.508.37-2.249a5.735 5.735 0 0 0-.343-2.116M73.237 4.67c-.026.318.08.53.185.688.132.212.344.37.582.503.265.132.609.238.953.317l1.19.238c.741.106 1.456.265 2.17.424a6.87 6.87 0 0 1 1.905.793c.556.37 1.005.873 1.35 1.456.317.608.476 1.375.423 2.275-.053.873-.265 1.64-.662 2.222a4.66 4.66 0 0 1-1.534 1.43c-.609.343-1.217.608-1.958.74a10.73 10.73 0 0 1-2.25.159c-1.772-.08-4.365-1.085-5.661-2.858-.106-.158-.238-.397.053-.661.29-.291 1.614-1.64 1.614-1.64.264-.292.529-.08.635.079.767 1.111 2.275 1.958 3.466 2.01.608.027.688 0 1.084-.052.344-.053.662-.133.98-.265.264-.132.502-.29.66-.529.16-.212.265-.503.292-.873a1.21 1.21 0 0 0-.238-.82c-.159-.238-.397-.397-.688-.556a4.14 4.14 0 0 0-1.058-.344 21.16 21.16 0 0 0-1.27-.212c-.688-.079-1.35-.211-2.011-.396-.662-.186-1.27-.45-1.8-.82a3.963 3.963 0 0 1-1.27-1.376c-.317-.583-.476-1.218-.423-2.011.027-.82.238-1.535.609-2.143A4.614 4.614 0 0 1 71.967.992c.556-.37 1.217-.635 1.932-.793a7.651 7.651 0 0 1 4.154.185c1.481.476 2.672 1.614 3.227 2.408.106.158.212.37 0 .635-.211.238-1.534 1.508-1.534 1.508-.291.264-.582.211-.741-.027-.794-1.19-1.852-1.72-3.043-1.799-1.217-.053-2.672.212-2.725 1.561M65.326 10.12a4.08 4.08 0 0 1-1.005 1.508c-.424.397-.9.688-1.456.9s-1.164.317-1.799.317c-.661 0-1.27-.106-1.825-.317s-1.032-.503-1.43-.9c-.396-.397-.74-.9-.978-1.508s-.37-1.323-.37-2.117.132-1.508.37-2.116.582-1.112.979-1.508c.423-.397.9-.715 1.455-.927a5.088 5.088 0 0 1 1.826-.317c.635 0 1.243.106 1.799.317.555.212 1.032.53 1.455.927.423.396.74.926.979 1.508a5.77 5.77 0 0 1 .37 2.09c0 .846-.105 1.56-.37 2.143zm1.27-8.017a7.061 7.061 0 0 0-2.514-1.56c-.952-.345-1.957-.53-2.99-.53s-2.037.185-2.99.53c-.952.343-1.798.872-2.54 1.56a7.716 7.716 0 0 0-1.719 2.514c-.423.979-.635 2.116-.635 3.36 0 1.27.212 2.381.635 3.36a7.715 7.715 0 0 0 1.72 2.514c.714.687 1.56 1.19 2.513 1.56.953.344 1.958.53 2.99.53 1.138 0 2.223-.186 3.175-.582a6.799 6.799 0 0 0 2.514-1.64c.688-.689 1.243-1.562 1.64-2.54.397-.98.582-2.038.582-3.229 0-1.243-.211-2.38-.635-3.36-.45-.952-1.032-1.8-1.746-2.487M108.431 10.12a4.08 4.08 0 0 1-1.005 1.508c-.397.397-.9.688-1.456.9a5.047 5.047 0 0 1-1.799.317c-.661 0-1.27-.106-1.825-.317a3.982 3.982 0 0 1-1.43-.9c-.396-.397-.74-.9-.978-1.508-.238-.609-.37-1.323-.37-2.117s.132-1.508.37-2.116a4.379 4.379 0 0 1 .979-1.508c.423-.397.9-.715 1.455-.927a5.088 5.088 0 0 1 1.826-.317c.635 0 1.243.106 1.799.317.555.212 1.032.53 1.455.927.423.396.74.926.979 1.508.238.608.37 1.323.37 2.09 0 .846-.105 1.56-.37 2.143zm1.27-8.017a7.061 7.061 0 0 0-2.513-1.56 8.783 8.783 0 0 0-2.99-.53 8.783 8.783 0 0 0-2.99.53c-.953.343-1.8.872-2.54 1.56a7.716 7.716 0 0 0-1.72 2.514c-.423.979-.635 2.116-.635 3.36 0 1.27.212 2.381.635 3.36.423.979.98 1.826 1.72 2.514.714.687 1.56 1.19 2.513 1.56a8.67 8.67 0 0 0 2.99.53c1.138 0 2.223-.186 3.202-.582a7.02 7.02 0 0 0 2.513-1.64c.688-.689 1.217-1.562 1.614-2.54.397-.98.582-2.038.582-3.229 0-1.243-.211-2.38-.635-3.36-.45-.952-1.032-1.8-1.746-2.487M37.36.22h-2.17a.52.52 0 0 0-.502.503V10.3a2.6 2.6 0 0 1-.212 1.058c-.132.291-.317.53-.556.74-.238.212-.529.371-.846.477-.344.106-.9.159-1.323.159-.397 0-1.006-.053-1.35-.159a2.321 2.321 0 0 1-.873-.476 2.186 2.186 0 0 1-.555-.741 2.601 2.601 0 0 1-.212-1.058V.723a.52.52 0 0 0-.503-.503h-2.143a.52.52 0 0 0-.503.503v9.657c0 .9.16 1.667.503 2.381.318.688.794 1.27 1.35 1.746s1.217.82 1.958 1.059c.74.238 1.534.37 2.354.37.82 0 1.614-.132 2.329-.37.74-.238 1.402-.609 1.958-1.085s1.005-1.058 1.322-1.746a5.628 5.628 0 0 0 .503-2.381V.723c-.026-.265-.238-.503-.53-.503M52.653 14.88l-3.519-4.392s2.857-1.032 2.857-4.657c0-.74-.132-1.455-.37-2.143-.238-.688-.635-1.27-1.111-1.8A5.29 5.29 0 0 0 48.737.673c-.688-.318-1.482-.45-2.355-.45h-5.768a.52.52 0 0 0-.502.503v14.473a.52.52 0 0 0 .502.502h2.17a.52.52 0 0 0 .503-.502v-11.8h3.228c.344 0 .661.053.926.185.29.132.529.291.714.503.212.211.344.476.45.767.106.317.159.661.159 1.005s-.053.688-.186.98c-.105.317-.264.581-.476.793s-.423.37-.714.476c-.265.133-.741.185-1.693.185h-1.35c-.264 0-.476.239-.264.583l5.027 6.614a.502.502 0 0 0 .397.212h2.778c.476.026.74-.37.37-.82M126.101 14.88l-3.519-4.392s2.857-1.032 2.857-4.657c0-.74-.132-1.455-.37-2.143-.238-.688-.635-1.27-1.111-1.8a5.57 5.57 0 0 0-1.773-1.216c-.688-.318-1.482-.45-2.355-.45h-5.741a.502.502 0 0 0-.503.503v14.473a.52.52 0 0 0 .503.502h2.17a.502.502 0 0 0 .502-.502v-11.8h3.228c.344 0 .662.053.953.185.29.132.529.291.714.503.212.211.37.476.45.767.106.317.159.661.159 1.005s-.053.688-.186.98a1.993 1.993 0 0 1-.476.793c-.212.212-.423.37-.714.476-.265.133-.741.185-1.694.185h-1.349c-.265 0-.476.239-.265.583l5.027 6.614c.08.132.239.212.397.212h2.778c.397.026.688-.37.318-.82"/>
        <path d="M13.653 15.68l-5.16-3.413-7.99 3.387 4.71-5.53L0 6.684H8.15L13.68.202v6.482h7.884l-7.884 3.36v5.636"/>
        <path d="M23.443 3.43a.52.52 0 0 0 .503-.503V.757a.502.502 0 0 0-.503-.502h-8.467V3.43h8.467M23.443 15.73a.52.52 0 0 0 .503-.503v-2.17a.502.502 0 0 0-.503-.502h-8.467v3.175h8.467M136.971.22h-10.557a.52.52 0 0 0-.503.503v2.17a.52.52 0 0 0 .503.502h3.704v11.8c0 .291.212.503.503.503h2.17a.487.487 0 0 0 .502-.503v-11.8h3.678a.502.502 0 0 0 .503-.503V.722a.52.52 0 0 0-.503-.502M91.861 6.87a1.993 1.993 0 0 1-.476.794c-.212.211-.424.37-.688.476-.265.132-.741.185-1.693.185h-2.435V3.43h3.202c.344 0 .661.053.926.186.29.132.529.29.74.502.212.212.345.477.45.768.106.317.16.661.16 1.005a4.26 4.26 0 0 1-.186.979zm2.99-3.148c-.238-.688-.635-1.27-1.111-1.8A5.57 5.57 0 0 0 91.967.705c-.688-.317-1.482-.45-2.355-.45h-5.741a.52.52 0 0 0-.503.503v14.473a.52.52 0 0 0 .503.503h2.17a.502.502 0 0 0 .502-.503v-3.704h3.07c.872 0 1.64-.159 2.327-.45a5.174 5.174 0 0 0 1.773-1.217 5.153 5.153 0 0 0 1.111-1.773c.238-.661.37-1.508.37-2.249a5.735 5.735 0 0 0-.343-2.116M73.237 4.67c-.026.318.08.53.185.688.132.212.344.37.582.503.265.132.609.238.953.317l1.19.238c.741.106 1.456.265 2.17.424a6.87 6.87 0 0 1 1.905.793c.556.37 1.005.873 1.35 1.456.317.608.476 1.375.423 2.275-.053.873-.265 1.64-.662 2.222a4.66 4.66 0 0 1-1.534 1.43c-.609.343-1.217.608-1.958.74a10.73 10.73 0 0 1-2.25.159c-1.772-.08-4.365-1.085-5.661-2.858-.106-.158-.238-.397.053-.661.29-.291 1.614-1.64 1.614-1.64.264-.292.529-.08.635.079.767 1.111 2.275 1.958 3.466 2.01.608.027.688 0 1.084-.052.344-.053.662-.133.98-.265.264-.132.502-.29.66-.529.16-.212.265-.503.292-.873a1.21 1.21 0 0 0-.238-.82c-.159-.238-.397-.397-.688-.556a4.14 4.14 0 0 0-1.058-.344 21.16 21.16 0 0 0-1.27-.212c-.688-.079-1.35-.211-2.011-.396-.662-.186-1.27-.45-1.8-.82a3.963 3.963 0 0 1-1.27-1.376c-.317-.583-.476-1.218-.423-2.011.027-.82.238-1.535.609-2.143A4.614 4.614 0 0 1 71.967.992c.556-.37 1.217-.635 1.932-.793a7.651 7.651 0 0 1 4.154.185c1.481.476 2.672 1.614 3.227 2.408.106.158.212.37 0 .635-.211.238-1.534 1.508-1.534 1.508-.291.264-.582.211-.741-.027-.794-1.19-1.852-1.72-3.043-1.799-1.217-.053-2.672.212-2.725 1.561M65.326 10.12a4.08 4.08 0 0 1-1.005 1.508c-.424.397-.9.688-1.456.9s-1.164.317-1.799.317c-.661 0-1.27-.106-1.825-.317s-1.032-.503-1.43-.9c-.396-.397-.74-.9-.978-1.508s-.37-1.323-.37-2.117.132-1.508.37-2.116.582-1.112.979-1.508c.423-.397.9-.715 1.455-.927a5.088 5.088 0 0 1 1.826-.317c.635 0 1.243.106 1.799.317.555.212 1.032.53 1.455.927.423.396.74.926.979 1.508a5.77 5.77 0 0 1 .37 2.09c0 .846-.105 1.56-.37 2.143zm1.27-8.017a7.061 7.061 0 0 0-2.514-1.56c-.952-.345-1.957-.53-2.99-.53s-2.037.185-2.99.53c-.952.343-1.798.872-2.54 1.56a7.716 7.716 0 0 0-1.719 2.514c-.423.979-.635 2.116-.635 3.36 0 1.27.212 2.381.635 3.36a7.715 7.715 0 0 0 1.72 2.514c.714.687 1.56 1.19 2.513 1.56.953.344 1.958.53 2.99.53 1.138 0 2.223-.186 3.175-.582a6.799 6.799 0 0 0 2.514-1.64c.688-.689 1.243-1.562 1.64-2.54.397-.98.582-2.038.582-3.229 0-1.243-.211-2.38-.635-3.36-.45-.952-1.032-1.8-1.746-2.487M108.431 10.12a4.08 4.08 0 0 1-1.005 1.508c-.397.397-.9.688-1.456.9a5.047 5.047 0 0 1-1.799.317c-.661 0-1.27-.106-1.825-.317a3.982 3.982 0 0 1-1.43-.9c-.396-.397-.74-.9-.978-1.508-.238-.609-.37-1.323-.37-2.117s.132-1.508.37-2.116a4.379 4.379 0 0 1 .979-1.508c.423-.397.9-.715 1.455-.927a5.088 5.088 0 0 1 1.826-.317c.635 0 1.243.106 1.799.317.555.212 1.032.53 1.455.927.423.396.74.926.979 1.508.238.608.37 1.323.37 2.09 0 .846-.105 1.56-.37 2.143zm1.27-8.017a7.061 7.061 0 0 0-2.513-1.56 8.783 8.783 0 0 0-2.99-.53 8.783 8.783 0 0 0-2.99.53c-.953.343-1.8.872-2.54 1.56a7.716 7.716 0 0 0-1.72 2.514c-.423.979-.635 2.116-.635 3.36 0 1.27.212 2.381.635 3.36.423.979.98 1.826 1.72 2.514.714.687 1.56 1.19 2.513 1.56a8.67 8.67 0 0 0 2.99.53c1.138 0 2.223-.186 3.202-.582a7.02 7.02 0 0 0 2.513-1.64c.688-.689 1.217-1.562 1.614-2.54.397-.98.582-2.038.582-3.229 0-1.243-.211-2.38-.635-3.36-.45-.952-1.032-1.8-1.746-2.487M37.36.22h-2.17a.52.52 0 0 0-.502.503V10.3a2.6 2.6 0 0 1-.212 1.058c-.132.291-.317.53-.556.74-.238.212-.529.371-.846.477-.344.106-.9.159-1.323.159-.397 0-1.006-.053-1.35-.159a2.321 2.321 0 0 1-.873-.476 2.186 2.186 0 0 1-.555-.741 2.601 2.601 0 0 1-.212-1.058V.723a.52.52 0 0 0-.503-.503h-2.143a.52.52 0 0 0-.503.503v9.657c0 .9.16 1.667.503 2.381.318.688.794 1.27 1.35 1.746s1.217.82 1.958 1.059c.74.238 1.534.37 2.354.37.82 0 1.614-.132 2.329-.37.74-.238 1.402-.609 1.958-1.085s1.005-1.058 1.322-1.746a5.628 5.628 0 0 0 .503-2.381V.723c-.026-.265-.238-.503-.53-.503M52.653 14.88l-3.519-4.392s2.857-1.032 2.857-4.657c0-.74-.132-1.455-.37-2.143-.238-.688-.635-1.27-1.111-1.8A5.29 5.29 0 0 0 48.737.673c-.688-.318-1.482-.45-2.355-.45h-5.768a.52.52 0 0 0-.502.503v14.473a.52.52 0 0 0 .502.502h2.17a.52.52 0 0 0 .503-.502v-11.8h3.228c.344 0 .661.053.926.185.29.132.529.291.714.503.212.211.344.476.45.767.106.317.159.661.159 1.005s-.053.688-.186.98c-.105.317-.264.581-.476.793s-.423.37-.714.476c-.265.133-.741.185-1.693.185h-1.35c-.264 0-.476.239-.264.583l5.027 6.614a.502.502 0 0 0 .397.212h2.778c.476.026.74-.37.37-.82M126.101 14.88l-3.519-4.392s2.857-1.032 2.857-4.657c0-.74-.132-1.455-.37-2.143-.238-.688-.635-1.27-1.111-1.8a5.57 5.57 0 0 0-1.773-1.216c-.688-.318-1.482-.45-2.355-.45h-5.741a.502.502 0 0 0-.503.503v14.473a.52.52 0 0 0 .503.502h2.17a.502.502 0 0 0 .502-.502v-11.8h3.228c.344 0 .662.053.953.185.29.132.529.291.714.503.212.211.37.476.45.767.106.317.159.661.159 1.005s-.053.688-.186.98a1.993 1.993 0 0 1-.476.793c-.212.212-.423.37-.714.476-.265.133-.741.185-1.694.185h-1.349c-.265 0-.476.239-.265.583l5.027 6.614c.08.132.239.212.397.212h2.778c.397.026.688-.37.318-.82M158.221.01h-14.42a.53.53 0 0 0-.53.53V15.46c0 .291.239.53.53.53h14.42a.53.53 0 0 0 .53-.53V.54a.514.514 0 0 0-.53-.529zm-5.45 13.123a.334.334 0 0 1-.344.344h-1.747a.35.35 0 0 1-.344-.344V4.746h-1.534c-.212 0-.344-.159-.344-.37V2.813c0-.185.159-.344.37-.344h3.599c.211 0 .37.16.37.344v10.32z"/>
    </g>
</svg>
