<svg version="1.1" viewBox="0 0 743.15 800" xmlns="http://www.w3.org/2000/svg">
 <defs>
  <style>.cls-1{fill:url(#a);}</style>
  <linearGradient id="a" x1="-21.35" x2="231.66" y1="146.3" y2="78.51" gradientTransform="matrix(1,0,0,-1,0,226)" gradientUnits="userSpaceOnUse">
   <stop stop-color="#f60" offset="0"/>
   <stop stop-color="#ff2d55" offset="1"/>
  </linearGradient>
 </defs>
 <g transform="scale(3.5309)">
  <path class="cls-1" d="m210.47 190.67v35.89h-11.29v-22.91l-10.76 22.91h-8l-10.72-22.91v22.91h-11.1v-35.89h15.63l10.57 22.33 10.81-22.34h14.86zm-90.51 0v35.89h11.48v-13h21.95v-8.56h-21.95v-5.84h22.63v-8.44zm-119.96-154.76h208v-35.91h-208zm0 190.66h113.07v-35.9h-113.07zm0-47h94.1v-35.9h-94.1zm0-48.28h148.55v-35.96h-148.55zm0-47.1h94.1v-35.9h-94.1z" fill="url(#a)" Googl="true"/>
 </g>
</svg>
