<svg width="706.54" height="62.941" viewBox="0 0 186.94 16.653" xmlns="http://www.w3.org/2000/svg">
    <g fill="#fff">
        <g color="#000">
            <path d="M179.398.002v8.582c1.257-.007 2.513.016 3.77-.015 1.34-.064 2.66-.832 3.259-2.055.714-1.422.69-3.21-.094-4.597-.68-1.225-2.096-1.917-3.472-1.91C181.708 0 180.554.006 179.4.004zm1.78 1.77c.73.01 1.463-.026 2.19.026.83.083 1.394.854 1.566 1.618.258 1.042.047 2.287-.786 3.02-.513.46-1.233.388-1.87.39h-1.1V1.772zM170.886.006v8.579h1.781V5.193h3.15v3.392h1.78V.006h-1.78v3.406h-3.15V.006z"/>
        </g>
        <path d="M14.22 16.197l-5.39-3.49-8.29 3.49c1.638-1.88 3.277-3.76 4.915-5.642L.007 7.065h8.469L14.22.435v6.63h8.173l-8.173 3.432v5.7z"/>
        <path d="M24.406 3.692c.338.013.584-.323.533-.643-.002-.715.004-1.43-.003-2.145-.023-.33-.366-.514-.669-.47h-8.685v3.258h8.824zM24.406 16.197c.338.014.584-.322.533-.642-.002-.715.004-1.43-.003-2.145-.023-.33-.366-.514-.669-.47h-8.685v3.257h8.824zM142.376.434h-10.955c-.53-.007-.567.568-.533.962.007.626-.014 1.253.011 1.878.127.543.746.4 1.16.417h3.212v12.041c0 .528.578.554.97.524.64-.007 1.282.013 1.92-.011.534-.11.415-.709.426-1.11V3.692c1.319-.007 2.64.014 3.957-.01.533-.11.415-.709.425-1.11-.019-.572.039-1.155-.03-1.72-.084-.233-.307-.42-.562-.417zM98.611 3.982c-.767-2.23-3.15-3.595-5.45-3.549C91.131.44 89.1.42 87.073.444c-.535.11-.414.713-.425 1.115V15.73c0 .53.582.555.975.524.638-.007 1.278.014 1.916-.01.535-.11.414-.713.425-1.116V11.95c1.284-.015 2.57.034 3.852-.032 2.306-.167 4.498-1.84 4.996-4.141.362-1.253.198-2.575-.202-3.797zm-3.138 3.2c-.261.778-.972 1.381-1.807 1.41-1.232.079-2.467.03-3.701.044V3.692c1.236.013 2.475-.03 3.71.024 1.292.136 2.143 1.501 1.964 2.738a2.521 2.521 0 0 1-.166.728zM76.108 4.971c-.065.775.694 1.267 1.354 1.44 1.23.396 2.542.432 3.783.796 1.466.329 3.028 1.074 3.631 2.547.694 1.72.38 3.918-1.07 5.164-1.076.953-2.501 1.462-3.931 1.514-2.2.286-4.454-.482-6.17-1.85-.39-.436-1.3-.918-1.006-1.594.615-.63 1.22-1.275 1.859-1.88.792-.093 1.054 1.13 1.812 1.362a4.83 4.83 0 0 0 4.362.53c.749-.242 1.284-1.031 1.092-1.822-.194-.76-1.03-1.163-1.736-1.325-1.558-.328-3.188-.414-4.67-1.036-1.317-.555-2.454-1.735-2.589-3.208-.22-1.6.462-3.276 1.767-4.237C76.45.032 78.967-.216 81.126.45a6.74 6.74 0 0 1 3.592 2.626c.203.437-.328.676-.556.963-.453.415-.849.903-1.347 1.261-.771.048-.962-1.107-1.673-1.371-1.202-.82-2.829-.808-4.141-.276-.52.234-.891.739-.895 1.318zM69.237 2.354C67.033.304 63.697-.18 60.864.633c-2.362.636-4.319 2.522-5.049 4.854-.91 2.884-.449 6.354 1.71 8.58 1.914 2 4.87 2.652 7.541 2.258 2.186-.303 4.242-1.54 5.43-3.415 1.417-2.116 1.586-4.876.912-7.282-.338-1.19-1.165-2.167-1.974-3.073a10.624 10.624 0 0 0-.198-.201zm-1.303 8.201c-.613 1.648-2.325 2.71-4.054 2.727-1.522.09-3.19-.351-4.133-1.628-1.1-1.446-1.33-3.479-.74-5.177a4.322 4.322 0 0 1 2.76-2.711c2.094-.774 4.835-.09 5.912 1.977a5.701 5.701 0 0 1 .444 4.184 5.716 5.716 0 0 1-.19.628zM114.009 2.354c-2.204-2.05-5.54-2.534-8.373-1.721-2.36.636-4.319 2.522-5.048 4.855-.91 2.883-.45 6.353 1.71 8.579 1.913 2 4.87 2.653 7.54 2.258 2.186-.302 4.242-1.539 5.43-3.415 1.417-2.116 1.586-4.876.912-7.281-.336-1.15-1.095-2.13-1.891-3.005a6.744 6.744 0 0 0-.28-.27zm-1.303 8.201c-.613 1.648-2.325 2.71-4.054 2.727-1.522.09-3.19-.351-4.133-1.628-1.1-1.446-1.33-3.479-.74-5.177a4.322 4.322 0 0 1 2.761-2.711c2.094-.774 4.834-.09 5.91 1.977.775 1.483.883 3.257.256 4.812zM38.855.434c-.786.007-1.573-.013-2.358.01-.54.114-.412.723-.425 1.13-.008 3.15.015 6.301-.012 9.451-.061 1.146-1.073 2.037-2.184 2.138-1.175.147-2.574.121-3.438-.811-.73-.794-.566-1.908-.584-2.895-.008-2.869.014-5.738-.011-8.606-.132-.55-.763-.396-1.18-.417-.6.022-1.21-.047-1.801.04-.49.234-.28.834-.325 1.263.008 3.159-.017 6.318.013 9.478.083 2.401 2.015 4.463 4.306 5.005 2.085.505 4.476.351 6.261-.932 1.54-1.067 2.311-2.99 2.213-4.829-.005-3.235.01-6.474-.007-9.706-.057-.2-.266-.322-.467-.32zM54.728 15.383l-3.672-4.479c1.818-.732 2.973-2.663 2.959-4.597.078-1.962-.854-3.987-2.563-5.017-1.216-.804-2.7-.962-4.123-.914-1.735.007-3.471-.014-5.205.011-.557.122-.405.755-.425 1.173v14.114c.001.536.59.553.986.524.635-.007 1.27.014 1.905-.01.557-.123.405-.755.425-1.174V3.692c1.236.014 2.475-.029 3.71.024 1.292.136 2.143 1.501 1.964 2.738-.074.977-.74 1.998-1.777 2.114-.92.11-1.847.055-2.77.068-.515.197-.29.703.006.973l4.909 6.356c.336.382.877.184 1.322.233l2.162.001c.463-.036.468-.561.187-.815zM131.065 15.383l-3.672-4.479c1.819-.732 2.973-2.663 2.96-4.597.078-1.962-.854-3.987-2.564-5.017-1.216-.805-2.7-.962-4.123-.914-1.754.007-3.51-.014-5.264.011-.557.122-.405.755-.425 1.173v14.114c.001.536.591.553.987.524.635-.007 1.27.014 1.905-.01.557-.123.404-.756.425-1.174V3.634c1.236.014 2.475-.028 3.71.025 1.292.136 2.143 1.501 1.964 2.738-.074.977-.741 1.998-1.777 2.114-.954.121-1.919.038-2.876.078-.518.17-.123.712.111.963l4.91 6.356c.336.382.877.184 1.322.233.777-.004 1.56.008 2.333-.003.353-.104.263-.543.075-.753z"/>
    </g>
    <path d="M164.38 16.653h-14.833a.535.535 0 0 1-.534-.543V.542c0-.292.236-.542.534-.542h14.833c.298 0 .534.25.534.542V16.11a.535.535 0 0 1-.534.543" fill="#d50032" stroke-width=".265"/>
    <path d="M155.02 8.267V7.95c0-.066-.001-.193.072-.293l2.068-2.769h-3.535a.331.331 0 0 1-.331-.33V2.902c0-.183.148-.332.331-.332h7.118c.182 0 .331.149.331.332V3.1a.464.464 0 0 1-.081.304l-2.403 3.39c1.583.517 2.275 1.9 2.275 3.34 0 2.324-1.673 3.947-4.07 3.947-2.223 0-3.803-1.418-3.931-3.528a.33.33 0 0 1 .33-.35h1.68c.17 0 .309.128.33.298.118.98.992 1.269 1.56 1.269 1.094 0 1.766-.7 1.766-1.62 0-.558-.205-.988-.592-1.302-.562-.456-1.656-.58-2.507-.348-.162.044-.412.076-.412-.233" fill="#fff"/>
</svg>
