<svg width="400mm" height="240mm" version="1.1" viewBox="0 0 400 240" xmlns="http://www.w3.org/2000/svg">
 <g transform="translate(221.09 -121.96)">
  <path d="m32.5 361.96h146.41v-141.36l-120.74-49.643-78.251 117.38z" fill="#e9aa43"/>
  <path transform="matrix(1.108 0 0 1.108 -229.96 113.09)" d="m346.3 33.8h-30.8l-6.1 18.4 37-4.9-9.3-4.3z" fill="#d65a57"/>
  <path transform="matrix(1.108 0 0 1.108 -229.96 113.09)" d="m359.2 8-33.3 3.1-5.5 15.3 22.6-0.1 5.5-6z" fill="#487e65"/>
  <path transform="matrix(1.108 0 0 1.108 -229.96 113.09)" d="m348.5 20.3-14.2 15.8 34.4-4.5 0.3-11.1z" fill="#fdd31c"/>
  <g transform="matrix(.49999 0 0 .49999 -221.09 121.96)" fill="#205990">
   <g stroke-width="2.2161">
    <path class="st3" d="m171.52 51.413c0 30.36-19.058 48.532-44.765 48.532-25.928 0-43.657-18.393-43.657-48.532v-44.543h22.161v44.543c0 17.729 7.5347 28.144 21.496 28.144 13.74 0 22.382-10.416 22.382-28.144v-44.543h22.382v44.543z"/>
    <path class="st3" d="m264.38 40.997c0 13.296-6.4266 24.377-16.177 29.695l18.837 27.479h-27.701l-13.74-22.826h-16.177v22.826h-22.161v-91.302h44.322c18.837 0 32.798 14.404 32.798 34.128m-54.737-13.74v27.923h19.058c7.5347 0 13.518-6.4266 13.518-13.961 0-7.5347-5.9834-13.961-13.518-13.961h-19.058z"/>
    <path class="st3" d="m368.53 52.521c0 26.15-21.274 47.424-47.202 47.424-26.15 0-47.202-21.274-47.202-47.424 0-25.928 21.053-47.424 47.202-47.424 25.928 0 47.202 21.496 47.202 47.424m-74.239 0c0 14.848 12.188 26.815 27.036 26.815 14.626 0 26.815-11.967 26.815-26.815s-12.188-26.815-26.815-26.815c-15.069 0-27.036 11.967-27.036 26.815"/>
    <path class="st3" d="m462.72 71.579c0 14.848-9.5291 26.593-34.571 26.593h-44.986v-91.302h39.668c26.593 0 34.792 10.416 34.792 25.263 0 9.3075-6.6482 15.956-8.6427 17.507 8.8643 4.2105 13.74 12.188 13.74 21.939m-26.15-36.787c0-6.205-3.9889-9.0859-12.41-9.0859h-19.058v19.058h19.058c9.5291 0 12.41-2.8809 12.41-9.9723m-11.08 26.815h-20.388v17.729h20.388c8.8643 0 13.296-2.8809 13.296-8.8643 0-6.8698-4.4322-8.8643-13.296-8.8643"/>
   </g>
   <path transform="matrix(2.2161,0,0,2.2161,-17.729,-17.729)" d="m223.8 11.1h31.6v9.2h-21.7v7.1h18.1v8.6h-18.1v7.1h21.7v9.2h-31.6z" style=""/>
   <path transform="matrix(2.2161,0,0,2.2161,-17.729,-17.729)" d="m275.7 52.3v-32h-14.7v-9.2h39.4v9.2h-14.7v32z" style=""/>
   <path transform="matrix(2.2161,0,0,2.2161,-17.729,-17.729)" d="m39.6 11.1h-31.6v41.2h31.6v-9.2h-21.7v-7.1h18.1v-8.6h-18.1v-7.1h21.7z" style=""/>
  </g>
  <path d="m149.88 229.65-143.04-1e-3 13.462 27.768 143.04-1e-3z" fill="#fff"/>
  <g transform="scale(.97924 1.0212)" fill="#e9aa43" stroke-width=".36229" style="font-feature-settings:normal;font-variant-caps:normal;font-variant-ligatures:normal;font-variant-numeric:normal" aria-label="CANALE">
   <path d="m52.916 229.39v2.6324q-1.2606-1.1741-2.6942-1.755-1.4213-0.58087-3.0279-0.58087-3.1639 0-4.8447 1.9404-1.6808 1.928-1.6808 5.5862 0 3.6459 1.6808 5.5862 1.6808 1.928 4.8447 1.928 1.6067 0 3.0279-0.58087 1.4336-0.58087 2.6942-1.755v2.6077q-1.31 0.88984-2.7807 1.3348-1.4583 0.44492-3.0897 0.44492-4.1897 0-6.5996-2.5583-2.41-2.5706-2.41-7.0075 0-4.4492 2.41-7.0075 2.41-2.5706 6.5996-2.5706 1.6561 0 3.1144 0.44492 1.4707 0.43256 2.756 1.31z"/>
   <path d="m62.964 230.43-3.3863 9.1826h6.785zm-1.4089-2.4594h2.8302l7.0322 18.452h-2.5954l-1.6808-4.7335h-8.3175l-1.6808 4.7335h-2.6324z"/>
   <path d="m74.099 227.97h3.3616l8.1816 15.436v-15.436h2.4223v18.452h-3.3616l-8.1816-15.436v15.436h-2.4223z"/>
   <path d="m99.2 230.43-3.3863 9.1826h6.785zm-1.4089-2.4594h2.8302l7.0322 18.452h-2.5954l-1.6808-4.7335h-8.3175l-1.6808 4.7335h-2.6324z"/>
   <path d="m110.34 227.97h2.4965v16.351h8.9849v2.101h-11.481z"/>
   <path d="m124.42 227.97h11.667v2.101h-9.1703v5.4626h8.7872v2.101h-8.7872v6.6862h9.3928v2.101h-11.889z"/>
  </g>
  <g transform="scale(1)" fill="#fff" stroke-width=".70678" style="font-feature-settings:normal;font-variant-caps:normal;font-variant-ligatures:normal;font-variant-numeric:normal" aria-label="GIALLO">
   <path d="m26.815 273.86-0.4444 0.19751-0.34565 0.14814q-0.29627 0.19751-0.59254 0.34565-0.24689 0.0987-0.49378 0.19751l-0.34565 0.19751q-0.29627 0.19751-0.54316 0.29627-0.24689 0.0494-0.4444 0.0988l-0.19751 0.14813-0.98756 0.4444-0.24689 0.0988-0.54316 0.34565q-0.69129 0.24689-1.1357 0.54316-2.1233-4.1478-6.2216-4.6909-0.24689 0-0.49378 0-0.19751-0.0494-0.4444-0.0494-3.9503 0-6.271 2.9133l-0.19751 0.19751-0.59254 0.74067q-1.3826 2.7652-1.3826 6.9623 0 2.222 0.59254 4.3453 1.6295 6.3204 7.8511 6.3204 0.34565 0 0.64192 0 0.34565-0.0494 0.74067-0.0988 4.7403-1.1851 5.876-5.4316 0.19751-0.34565 0.19751-1.5801v-0.29627h-8.2955v-5.876h14.468v19.06h-6.271v-2.1726q-3.1602 2.8639-7.0611 2.8639-0.29627 0-0.59254 0-0.24689 0-0.49378-0.0494l-0.14814 0.0988q-2.8146-0.0494-4.8884-0.98757-8.1968-3.4565-9.6287-12.196-0.19751-1.1357-0.29627-2.1726-0.098756-1.0369-0.098756-2.0245 0-6.271 3.5552-11.159 4.2465-5.6291 10.863-6.0241h0.98756q9.925 0 13.925 8.2462z"/>
   <path d="m37.591 266.46h5.6291v32.985h-6.7648v-32.985z"/>
   <path d="m61.083 266.36h8.2955v0.24689q0.19751 0.39503 0.29627 0.74068 0.14814 0.34564 0.19751 0.69129l0.19751 0.59254 0.09876 0.34565q0.04938 0.0494 0.04938 0.24689 0.09876 0.39502 0.14814 0.39502 0.04938-0.0494 0.04938 0.14814 0.24689 0.39502 0.24689 0.64191l0.54316 1.432v0.19751q0.19751 0.39503 0.29627 0.79005 0.14813 0.34565 0.19751 0.74067 0.24689 0.54316 0.34565 0.93819 0.14813 0.39502 0.19751 0.69129 0.04938 0.0988 0.04938 0.24689 0.04938 0.14814 0.09876 0.24689l0.19751 0.34565q0.09876 0.24689 0.14814 0.4444 0.04938 0.14814 0.09876 0.24689v0.29627q0.09876 0.0988 0.09876 0.24689 0.19751 0.29627 0.24689 0.64192l0.49378 1.3826 0.09876 0.34565 0.09876 0.19751 0.14814 0.79005 0.19751 0.34565 0.19751 0.39502 0.04938 0.29627 0.09876 0.34565 0.19751 0.49378q0.04938 0.19751 0.09876 0.39502 0.04938 0.14814 0.09876 0.29627v0.24689q0.09876 0.29627 0.14813 0.49378 0.09876 0.19752 0.19751 0.49379l0.54316 1.3826 0.09876 0.49379 0.24689 0.49378 0.19751 0.54316v0.24689l0.14813 0.29627 0.09876 0.34564 0.09876 0.39503q0.34565 0.79005 0.54316 1.432 0.19751 0.64191 0.29627 1.1851 0.09876 0.0988 0.09876 0.24689 0.69129 1.4814 0.88881 2.5677l0.09876 0.24689 0.09876 0.34564 0.09876 0.39503 0.09876 0.24689 0.04938 0.34565q0.09876 0.24689 0.14813 0.29627 0.04938 0.0494 0.04938 0.19751 0 0.0987 0 0.14813 0.04938 0 0.04938 0.0494t0.04938 0.0494l0.14813 0.29627v0.24689q0 0.0987 0 0.14813 0.04938 0 0.04938 0.0494t0.04938 0.0494q0.24689 0.39502 0.29627 0.69129 0.09876 0.34565 0.19751 0.59254 0.09876 0.24689 0.14814 0.4444l0.14813 0.54316h-7.5055l-0.14813-0.54316v-0.34564l-0.19751-0.24689v-0.29627q-0.09876-0.19751-0.14813-0.34565 0-0.19751-0.04938-0.29627-0.04938-0.0494-0.04938-0.19751l-0.19751-0.24689v-0.24689l-0.09876-0.39503-0.24689-0.54316-0.59254-2.1726h-12.345l-0.09876 0.39503-0.09876 0.4444-0.14813 0.34565q-0.04938 0.24689-0.09876 0.49378-0.04938 0.19751-0.14814 0.39503l-0.14813 0.59253-0.29627 0.88881-0.04938 0.34565-0.09876 0.19751q-0.14813 0.54316-0.29627 0.74067l-0.24689 1.0369h-7.4067l0.14814-0.69129 0.29627-0.88881 0.04938-0.29627 0.09876-0.19751 0.09876-0.24689 0.09876-0.19751 0.4444-1.3826 0.09876-0.24689v-0.24689l0.09876-0.39503 0.19751-0.34564 0.24689-0.93819 0.19751-0.49378 0.14814-0.4444q0.14813-0.49378 0.29627-0.88881 0.14813-0.39502 0.24689-0.69129l0.24689-0.74068q0.09876-0.49378 0.24689-0.8888 0.14814-0.39503 0.24689-0.6913 0.09876-0.24689 0.14813-0.39502 0.09876-0.14814 0.14814-0.24689l0.14813-0.74068 0.29627-0.59253 0.14814-0.6913 0.09876-0.14813q0.09876-0.49378 0.19751-0.83943 0.14814-0.39503 0.34565-0.74067l0.09876-0.6913 0.74067-1.8764 0.14814-0.59253 0.09876-0.24689 0.09876-0.29627q0.24689-0.83943 0.54316-1.3332l0.09876-0.54316 0.09876-0.24689v-0.29627l0.09876-0.24689 0.59254-1.5801 0.09876-0.49379 0.19751-0.39502 0.14814-0.34565q0.19751-0.93818 0.4444-1.3826l0.09876-0.4444 0.14813-0.4444q0.09876-0.49378 0.24689-0.88881t0.24689-0.64192l0.09876-0.39502 0.09876-0.34565q0.09876-0.24689 0.19751-0.4444 0.09876-0.24689 0.14813-0.44441l0.29627-0.8888 0.04938-0.29627 0.69129-1.9751zm3.7034 7.6042-0.24689 0.98756-0.09876 0.14814-0.4444 1.5307-0.4444 1.4813-0.09876 0.19752-0.54316 1.8764-0.09876 0.34564-0.54316 1.4814-0.14814 0.4444q-0.09876 0.69129-0.29627 1.1851-0.04938 0.49378-0.29627 0.93818l-0.09876 0.34565q-0.14813 0.69129-0.34565 0.8888l-0.49378 1.8764h8.7399l-0.19751-0.69129-0.54316-1.6295-0.4444-1.4813q-0.14814-0.39503-0.24689-0.74068-0.09876-0.39502-0.19751-0.64191l-0.04938-0.14814q-0.09876-0.4444-0.19751-0.69129-0.09876-0.29627-0.14814-0.39503l-0.04938-0.29626-0.09876-0.34565-0.19751-0.4444-0.09876-0.54316-0.04938-0.34565-0.19751-0.19751-0.09876-0.54316-0.04938-0.34565q-0.09876-0.14813-0.14814-0.29627 0-0.14813-0.04938-0.24689l-0.09876-0.29627q-0.09876-0.29627-0.24689-0.59254-0.09876-0.29627-0.19751-0.64191l-0.04938-0.29627-0.04938-0.14814-0.19751-0.74067-0.09876-0.29627-0.4444-1.0863z"/>
   <path d="m87.936 266.36h5.6291v26.417h14.567v6.5673h-21.381v-32.985z"/>
   <path d="m115.52 266.36h5.6291v26.417h14.567v6.5673h-21.381v-32.985z"/>
   <path d="m170.9 280.53q0.0494 0.54316 0.0494 1.1357 0.0494 0.54316 0.0494 1.0863 0 11.554-9.4806 16.048-3.654 1.3332-6.8142 1.3332-5.6785 0-10.172-4.1971-5.1847-5.7772-5.1847-12.838 0-3.1108 1.0369-6.4685 3.6046-10.369 13.777-11.11 14.665 0.0988 16.739 15.011zm-24.097 3.6046q0.29627 6.271 5.086 8.8387h0.24689q0.19752 0.0987 0.34565 0.14813 0.19751 0.0494 0.39503 0.0988l0.19751 0.0987 1.0369 0.24689q9.0856-0.0494 9.4806-9.3325 0.0494-0.4444 0.0494-0.83942 0-0.44441 0-0.83943 0-10.123-9.2831-10.518-7.6042 1.4814-7.6042 10.567 0 0.39503 0 0.79006 0 0.34564 0.0494 0.74067z"/>
  </g>
  <path d="m-168.51 361.96h146.4v-141.36l-120.74-49.643-78.251 117.38z" fill="#0e8fa5"/>
  <path d="m-51.129 229.65-143.04-1e-3 13.462 27.768 143.04-1e-3z" fill="#fff"/>
  <g transform="scale(.97924 1.0212)" fill="#0e8fa5" stroke-width=".36229" style="font-feature-settings:normal;font-variant-caps:normal;font-variant-ligatures:normal;font-variant-numeric:normal" aria-label="CANALE">
   <path d="m-152.35 229.39v2.6324q-1.2606-1.1741-2.6942-1.755-1.4213-0.58087-3.0279-0.58087-3.1639 0-4.8447 1.9403-1.6808 1.928-1.6808 5.5862 0 3.6459 1.6808 5.5862 1.6808 1.928 4.8447 1.928 1.6067 0 3.0279-0.58086 1.4336-0.58087 2.6942-1.755v2.6077q-1.31 0.88984-2.7808 1.3348-1.4584 0.44492-3.0897 0.44492-4.1897 0-6.5996-2.5583-2.41-2.5706-2.41-7.0075 0-4.4492 2.41-7.0075 2.41-2.5706 6.5996-2.5706 1.6561 0 3.1144 0.44492 1.4707 0.43256 2.756 1.31z"/>
   <path d="m-142.3 230.43-3.3863 9.1826h6.785zm-1.4089-2.4594h2.8302l7.0322 18.452h-2.5954l-1.6808-4.7334h-8.3175l-1.6808 4.7334h-2.6324z"/>
   <path d="m-131.17 227.97h3.3616l8.1816 15.436v-15.436h2.4223v18.452h-3.3616l-8.1816-15.436v15.436h-2.4223z"/>
   <path d="m-106.07 230.43-3.3863 9.1826h6.785zm-1.4089-2.4594h2.8302l7.0322 18.452h-2.5954l-1.6808-4.7334h-8.3175l-1.6808 4.7334h-2.6324z"/>
   <path d="m-94.932 227.97h2.4965v16.351h8.9849v2.101h-11.481z"/>
   <path d="m-80.843 227.97h11.667v2.101h-9.1703v5.4626h8.7872v2.101h-8.7872v6.6862h9.3928v2.101h-11.889z"/>
  </g>
  <g fill="#fff" stroke-width=".70677" style="font-feature-settings:normal;font-variant-caps:normal;font-variant-ligatures:normal;font-variant-numeric:normal" aria-label="BLU">
   <path d="m-121.51 266.36h14.665l0.29627 0.0988h0.24689l0.6913 0.0987 1.3826 0.34565q3.7034 1.6295 5.2835 4.839 0.88881 2.0739 0.88881 3.8515 0 3.5058-3.4071 5.876 3.654 1.7282 4.4934 5.2341 0.09876 0.69129 0.14814 1.3826 0.04938 0.64191 0.04938 1.2838 0 6.6167-6.1723 9.2831h-0.24689q-1.0369 0.49378-1.9257 0.54316l-0.59254 0.14813-0.24689 0.0988h-16.739v-33.083zm5.5304 13.283h7.9499l0.49378-0.0988q2.3702-1.1851 2.3702-3.3083 0-0.24689-0.0494-0.4444 0-0.24689-0.0494-0.49378-0.54316-1.2838-1.4813-2.0245-0.24689-0.0494-0.4444-0.14814-0.14814-0.0987-0.34565-0.19751l-0.29627-0.0988h-0.54316q-0.19751-0.0494-0.39502-0.0494-0.14814 0-0.29627 0h-6.9129zm0 13.332h7.2586q1.5307 0 1.8764-0.19751 2.6664-1.3826 2.6664-3.9502 0-0.19751-0.0494-0.34565 0-0.14813 0-0.34565-0.64191-2.1232-2.4195-3.0614-0.24689-0.0494-0.54316-0.0987-0.29627-0.0494-0.54316-0.14814h-8.2461z"/>
   <path d="m-87.417 266.36h5.6291v26.417h14.567v6.5673h-21.381v-32.985z"/>
   <path d="m-61.069 266.56h6.3204v20.788l0.54316 1.8764q2.222 3.8021 6.1723 4.0984 4.1971-0.34565 6.2216-3.7034v-0.29627q0.24689-0.64192 0.39502-1.2838 0.19751-0.64192 0.24689-1.3332 0.04938-0.34565 0.04938-0.64192 0.04938-0.34564 0.04938-0.64191v-18.862h6.7648v21.233q-0.04938 0.24689-0.09876 0.39502 0 0.14814 0 0.24689l-0.09876 0.19752q-0.09876 0.54315-0.19751 1.0369-0.04938 0.4444-0.14813 0.83942-1.9751 5.4316-6.4685 7.9005-3.4071 1.7776-6.666 1.7776-2.1726 0-4.2465-0.74067-9.53-3.6046-9.53-14.468 0-1.3332 0.14813-2.8146v-15.702z"/>
  </g>
 </g>
</svg>
