<svg width="130.8mm" height="38.982mm" version="1.1" viewBox="0 0 130.8 38.982" xmlns="http://www.w3.org/2000/svg" xmlns:xlink="http://www.w3.org/1999/xlink">
 <defs>
  <linearGradient id="c" x1="1277.4" x2="1279" y1="551.98" y2="551.98" gradientTransform="matrix(190.96 0 0 190.96 -243943 -105260)" gradientUnits="userSpaceOnUse">
   <stop stop-color="#20689B" offset="0"/>
   <stop stop-color="#1D6293" offset=".2024"/>
   <stop stop-color="#14537F" offset=".5092"/>
   <stop stop-color="#05395D" offset=".8802"/>
   <stop stop-color="#003050" offset="1"/>
  </linearGradient>
  <clipPath id="d">
   <use width="100%" height="100%" overflow="visible" xlink:href="#a"/>
  </clipPath>
  <linearGradient id="e" x1="1281.7" x2="1283.3" y1="550.27" y2="550.27" gradientTransform="matrix(443.14 0 0 443.14 -567667 -243697)" gradientUnits="userSpaceOnUse">
   <stop stop-color="#20689B" offset="0"/>
   <stop stop-color="#1D6293" offset=".2024"/>
   <stop stop-color="#14537F" offset=".5092"/>
   <stop stop-color="#05395D" offset=".8802"/>
   <stop stop-color="#003050" offset="1"/>
  </linearGradient>
  <clipPath id="f">
   <use width="100%" height="100%" overflow="visible" xlink:href="#b"/>
  </clipPath>
  <path id="b" d="m975.84 206.62h1.7143c2.4 0 3.9048 0.0953 4.5144 0.29523 0.60955 0.20003 1.0857 0.52382 1.4095 0.9714 0.33338 0.45713 0.50476 0.97142 0.50476 1.5429 0 0.59045-0.17138 1.1238-0.50476 1.6-0.34289 0.4667-0.80951 0.79048-1.3905 0.98092-0.59046 0.18093-2.1048 0.27619-4.5334 0.27619h-1.7143zm-4.2096 17.457h4.2096v-8.5238h1.1047c1.1714 0 2.1429 0.29521 2.9048 0.88574 0.77148 0.58092 1.7333 2.0095 2.9048 4.2762l1.7429 3.3714h5.2095l-2.4476-4.181c-0.8667-1.4762-1.3906-2.3239-1.5334-2.5238-0.60004-0.78096-1.0762-1.3143-1.4096-1.6-0.34289-0.27618-0.81909-0.54286-1.4572-0.77145 1.7714-0.25714 3.1429-0.91429 4.1238-1.981 0.98096-1.0572 1.4667-2.3429 1.4667-3.8381 0-1.0952-0.25714-2.0762-0.78094-2.9714-0.51428-0.88574-1.1619-1.5619-1.9334-1.9905-0.78101-0.43808-1.8667-0.71426-3.2572-0.83809-0.47626-0.0285-10.848-0.0476-10.848-0.0476v20.733h1.8e-4zm1.0477 3.1906c-2.4858-1.3905-4.4191-3.3333-5.8096-5.8191-1.3905-2.4858-2.0858-5.0953-2.0858-7.8382 0-2.762 0.71429-5.3906 2.1334-7.9144 1.4191-2.5143 3.3715-4.4477 5.8286-5.7905 2.4667-1.3429 5.0477-2.019 7.7334-2.019 2.6952 0 5.2667 0.67618 7.7525 2.019 2.4762 1.3429 4.4285 3.2762 5.8477 5.7905 1.4191 2.5238 2.1333 5.1524 2.1333 7.9144 0 2.7334-0.69519 5.3524-2.0953 7.8382-1.3905 2.4858-3.3333 4.419-5.8 5.8191-2.4857 1.3905-5.0857 2.0953-7.8286 2.0953-2.7238-8e-5 -5.3238-0.6953-7.8095-2.0953m-1.8667-30.696c-3.0857 1.6762-5.5048 4.0858-7.2667 7.2096-1.7524 3.1334-2.6381 6.4-2.6381 9.8286 0 3.4096 0.85711 6.6476 2.5905 9.7334 1.7238 3.0857 4.1238 5.5048 7.2191 7.2287 3.0953 1.7238 6.3334 2.5905 9.7335 2.5905 3.4096 0 6.6477-0.8667 9.7335-2.5905 3.0953-1.7238 5.5049-4.1334 7.2287-7.2287 1.7333-3.0857 2.5905-6.3334 2.5905-9.7334 0-3.4286-0.88574-6.6953-2.6381-9.8286-1.7619-3.1334-4.181-5.5334-7.2667-7.2096-3.0858-1.6762-6.2954-2.5143-9.6477-2.5143-3.343 0-6.5621 0.83815-9.6384 2.5143m-45.277-5.2953v87.058c0 10.295 8.6763 19.705 19.61 19.705h51.153v-22.353h-41.267c-3.7524 0-7.1525-2.7429-7.1525-7.162v-77.258h-22.343v9e-3zm-592.79-0.01c-11.6 0-17.372 11.019-17.372 17.886v71.505c0 10.667 8.6477 17.391 17.372 17.391h70.763v-21.124h-59.962c-3.6096 0-7.0762-3.181-7.0762-7.381v-48.743c0-3.5334 2.3905-7.181 7.1906-7.181h59.848v-22.353s-70.763 0-70.763-7e-5zm151.51 0v42.219h-47.172v-42.219h-22.353v106.77h22.353v-42.21h47.172v42.21h22.343v-106.77zm55.058 22.343h40.039c5.0286 0 7.1334 3.2572 7.1334 7.162v18.905h-47.172zm-21.095-22.343v106.77h21.086v-39.724h47.172v39.724h22.343v-87.153c0-9.6192-8.2954-19.61-20.724-19.61h-69.877zm104.22 0v106.77h21.095v-84.42h39.934c6.5525 0 7.2382 4.381 7.2382 7.162v77.258h22.343v-86.906c0-11.381-7.8763-19.867-19.714-19.867zm103.97 0v106.77h21.095v-84.42h39.934c6.5524 0 7.2382 4.381 7.2382 7.162v77.258h22.334v-86.906c0-11.381-7.8667-19.867-19.714-19.867zm123.11 0c-11.733 0-19.619 11.762-19.619 20.914v66.201c0 10.295 8.2191 19.657 19.619 19.657h66.039v-21.114h-57.296c-5.762 0-7.2477-4.5048-7.2477-7.162v-13.943h64.553v-21.114h-64.553v-13.943c0-2.8 2.1714-7.162 7.2097-7.162h57.334v-22.353h-66.039v0.019zm-253.82-191.21v145.09h-67.839c-5.6953 0-13.248-3.619-13.248-13.172v-131.92h-38.41v148.97c0 10.371 7.4096 34.524 34.467 34.524h121.3v-183.5zm89.667 36.267h74.22c7.7524 0 13.257 6.1715 13.257 13.267v18.229c0 10.495-8.8667 13.314-13.257 13.314h-74.22zm-36.286-36.267v183.5h36.286v-70.41h49.562c10.81 0 38.029 8.3906 38.029 38.219s-0.11432 30.057-0.11432 32.191h40.42v-42.886c0-27.315-24.876-36.934-33.753-36.934-3.7905 0-2.6572-2.8858 0-2.8858 13.667 0 33.857-15.191 33.857-37.772v-24.857c0-11.381-12.152-38.153-38.105-38.153h-126.18zm213.44 132.3v-82.763c0-5.7905 4.0953-13.267 13.162-13.267h72.172c8.1525 0 12.791 6.5906 12.791 12.8v83.21c0 6.0858-3.6668 12.81-13.191 12.81h-72.048c-4.1429 0-12.886-2.1429-12.886-12.791m-1.8572-132.3c-21.314 0-34.429 17.257-34.429 34.524v112.37c0 21.105 17.162 34.467 33.8 34.467h102.46c23.429 0 34.429-19.676 34.429-35.715v-111.12c0-14.733-10.943-34.524-34.429-34.524h-101.83zm-548.8 34.515v112.32c0 28.353 25.743 34.524 34.524 34.524h114.84v-36.277h-98.134c-6.4858 0-12.829-4.3048-12.829-13.172v-23.105h110.95v-36.277h-110.95v-23c0-10.886 8.7715-13.267 12.81-13.267h98.144v-36.267s-95.449-0.0095187-114.84-0.0095187c-19.381-3.63e-5 -34.515 15.848-34.515 34.524"/>
  <path id="a" d="m47.362 0.0094823c-26.057 0-47.362 21.419-47.362 47.6v202.82c0 26.181 21.314 47.6 47.362 47.6h249.18v-108.94l-150.53 0.01c-3.7715 0-7.562-3.7048-7.562-7.4667v-71.582l20.391 0.019v62.915h90.172c23.61 0 47.543-24.124 47.543-47.943v-77.439c0-26.181-21.314-47.6-47.362-47.6h-201.83z"/>
 </defs>
 <g transform="translate(-40.284 -125.25)">
  <g transform="matrix(.1308 0 0 .1308 40.284 125.25)">
   <clipPath>
    <use width="100%" height="100%" overflow="visible" xlink:href="#b"/>
   </clipPath>
   <rect x="311.86" y=".047593" width="688.15" height="297.98" clip-path="url(#f)" fill="url(#e)"/>
  </g>
  <g transform="matrix(.1308 0 0 .1308 40.284 125.25)">
   <clipPath>
    <use width="100%" height="100%" overflow="visible" xlink:href="#a"/>
   </clipPath>
   <rect y=".0094823" width="296.55" height="298.02" clip-path="url(#d)" fill="url(#c)"/>
  </g>
 </g>
</svg>
