<svg version="1.1" viewBox="0 0 800 800" xmlns="http://www.w3.org/2000/svg">
 <g data-name="Layer 2">
  <path d="m800 400a400 400 0 0 1-400 400 400 400 0 0 1-400-400 400 400 0 0 1 400-400 400 400 0 0 1 400 400z" fill="#0095b7"/>
  <path d="m728.77 400a328.77 328.77 0 0 1-328.77 328.77 328.77 328.77 0 0 1-328.77-328.77 328.77 328.77 0 0 1 328.77-328.77 328.77 328.77 0 0 1 328.77 328.77z" fill="#006686"/>
  <path d="m69.07 593.91h268.93s18.08-54 29.08-85h-169.2l22.27-66.19h169.2s21-60.2 30.95-89.68h-271.08c-26.5 79.14-53.22 158.72-80.15 240.87zm470.47-197.76c29.91 64.91 91.37 197.76 91.37 197.76h-118.66l-63.31-143-9.27-19.08c11.62-34.83 16.38-49 28.07-84.55l158.06-141.19h105.13zm-72.06-190.06h-269.84l-29.64 90.65h270.17z" fill="#fff"/>
 </g>
</svg>
