<svg width="1229.3mm" height="302.27mm" viewBox="0 0 1229.3 302.27" xmlns="http://www.w3.org/2000/svg">
    <path d="M1132.453.008c-32.173-.174-62.652 15.827-80.826 42.627l-2.512 4.073h118.336l5.478 59.602 26.038-59.602h15.979c0-.479-4.204-6.921-6.862-10.247-3.44-4.305-10.602-11.522-14.658-14.77C1176.738 8.325 1156.811.88 1135.57.074a96.147 96.147 0 0 0-3.118-.067zM461.637 48.63v253.645h85.153l-3.945-142.72h1.165l47.268 142.72h60.464l47.267-142.72h1.166l-3.945 142.72h85.153V48.63l-117.254.103-42.341 125.999h-.561L578.89 48.733zm-279.608.003H-.002v253.645h83.956l.18-85.902 97.894-.26v-69.413H83.605v-26.81h98.423zm74.588 0l-98.432 253.645h91.81l53.585-155.526 53.585 155.526h91.81L350.542 48.633zm549.109 0v70.907h210.783V48.633zm418.936 18.823a.095.095 0 0 0-.039 0c-11.78 20.664-28 51.614-40.676 75.19h-35.854l-12.451-68.825h-31.644l-12.17 68.804-32.203-.068 11.84-68.738h-33.63l-.321.705c-.431 1.133-1.64 8.012-2.176 12.383-.62 5.055-.522 16.677.188 22.225 1.76 13.753 6.245 26.65 13.37 38.451 4.358 7.218 8.273 12.144 14.862 18.697 16.974 16.884 39.15 26.776 62.816 28.017 2.717.14 6.05.21 7.408.15 9.174-.403 13.864-1.002 20.814-2.656 27.826-6.625 51.238-25.185 64.206-50.897 4.955-9.826 7.787-18.85 9.582-30.53.971-6.32.885-20.356-.168-27.204-.752-4.892-2.916-14.255-3.561-15.407-.075-.134-.112-.282-.195-.3zM805.726 141.41v66.322h210.783v-66.322zm0 89.957v70.908h210.783v-70.908z" fill="#fff" stroke-width="1.333"/>
</svg>
