<?xml version="1.0" encoding="UTF-8" standalone="no"?>
<!-- Generator: Adobe Illustrator 14.0.0, SVG Export Plug-In . SVG Version: 6.00 Build 43363)  -->
<svg xmlns:dc="http://purl.org/dc/elements/1.1/" xmlns:cc="http://creativecommons.org/ns#" xmlns:rdf="http://www.w3.org/1999/02/22-rdf-syntax-ns#" xmlns:svg="http://www.w3.org/2000/svg" xmlns="http://www.w3.org/2000/svg" xmlns:xlink="http://www.w3.org/1999/xlink" xmlns:sodipodi="http://sodipodi.sourceforge.net/DTD/sodipodi-0.dtd" xmlns:inkscape="http://www.inkscape.org/namespaces/inkscape" version="1.1" id="Layer_1" x="0px" y="0px" width="654" height="349" viewBox="0 0 653.99997 348.99999" enable-background="new 0 0 1190.55 841.89" xml:space="preserve">
<path id="path6062" d="m 752.047,91.345 c 15.017,0 21.988,8.045 21.988,8.045 l -1.287,2.574 H 733.98 v 5.47 h -8.533 c 10e-4,0.001 8.581,-16.089 26.6,-16.089" clip-path="url(#SVGID_31_)" style="fill:#008e35" transform="matrix(4.002266,0,0,4.002266,-2528.2635,-358.57433)"/><path id="path6064" d="m 713.474,139.407 c 2.674,6.931 7.134,12.857 13.087,17.109 l 21.081,-42.125 H 733.98 l -0.002,-7.074 h -18.479 -67.644 c 0,0 -16.147,0.854 -16.147,15.722 0,16.816 15.845,16.368 15.845,16.368 h 65.921 z" clip-path="url(#SVGID_31_)" style="fill:#e60004" transform="matrix(4.002266,0,0,4.002266,-2528.2635,-358.57433)"/><path id="path6066" d="m 655.542,123.527 h -6.781 v 9.794 h -5.915 v -21.737 h 13.412 v 4.37 h -7.535 v 4.559 h 6.819 v 3.014 z m 18.427,7.478 -3.471,2.769 c -0.532,-0.162 -0.996,-0.426 -1.393,-0.793 -0.396,-0.367 -0.658,-0.786 -0.783,-1.26 l -2.734,1.516 c -0.106,0.061 -0.288,0.121 -0.545,0.183 -0.258,0.059 -0.474,0.09 -0.647,0.09 -2.104,0 -3.842,-0.703 -5.214,-2.107 -1.372,-1.405 -2.058,-3.361 -2.058,-5.868 0,-2.375 0.711,-4.333 2.135,-5.875 1.423,-1.54 3.238,-2.312 5.445,-2.312 0.882,0 1.703,0.168 2.469,0.502 0.765,0.336 1.268,0.633 1.51,0.892 l 2.542,-0.904 0.854,0.264 v 9.715 c 0,0.851 0.151,1.526 0.457,2.027 0.305,0.502 0.783,0.888 1.433,1.161 m -6.43,-2.512 v -6.049 c -0.254,-0.324 -0.586,-0.599 -0.995,-0.825 -0.41,-0.227 -0.911,-0.341 -1.502,-0.341 -0.854,0 -1.562,0.316 -2.123,0.946 -0.563,0.629 -0.844,1.675 -0.844,3.137 0,1.16 0.262,2.088 0.785,2.787 0.524,0.699 1.261,1.048 2.207,1.048 0.541,0 1.047,-0.086 1.521,-0.257 0.473,-0.17 0.79,-0.319 0.951,-0.446 m 31.724,4.828 h -4.116 v -9.552 c 0,-0.567 -0.181,-1.063 -0.544,-1.488 -0.362,-0.425 -0.932,-0.638 -1.71,-0.638 -0.636,0 -1.204,0.129 -1.705,0.387 -0.501,0.257 -0.922,0.593 -1.261,1.007 v 10.284 h -4.116 v -9.552 c 0,-0.567 -0.181,-1.063 -0.542,-1.488 -0.361,-0.425 -0.929,-0.638 -1.704,-0.638 -0.73,0 -1.346,0.161 -1.845,0.482 -0.499,0.322 -0.864,0.639 -1.096,0.949 v 10.247 h -4.116 v -15.219 l 4.116,-0.301 v 1.506 l 1.599,-1.037 c 0.529,-0.345 1.049,-0.578 1.56,-0.701 0.511,-0.122 1.03,-0.183 1.559,-0.183 0.951,0 1.761,0.204 2.434,0.612 0.672,0.409 1.188,0.97 1.546,1.686 l 2.223,-1.421 c 0.448,-0.292 0.938,-0.512 1.469,-0.657 0.53,-0.146 1.082,-0.22 1.657,-0.22 1.428,0 2.55,0.465 3.366,1.395 0.818,0.93 1.228,2.153 1.228,3.669 v 10.871 z m 9.177,-17.103 h -4.709 v -4.068 h 4.709 v 4.068 z m 0,17.103 h -4.709 v -15.219 l 4.709,-0.264 v 15.483 z m 10.84,-2.524 -3.225,2.826 c -1.172,-0.667 -2.103,-1.438 -2.789,-2.313 -0.687,-0.874 -1.031,-1.929 -1.031,-3.163 v -16.563 h 4.634 v 15.013 c 0,1.041 0.192,1.86 0.576,2.456 0.385,0.597 0.996,1.178 1.835,1.744 m 6.944,1.772 -6.671,-13.222 4.28,-1.848 4.545,9.979 4.736,-9.979 4.069,1.848 -6.723,13.572 c 0,0 -1.456,4.429 -7.484,8.497 0,0 -1.959,-2.26 -1.959,-3.918 10e-4,0 3.631,-2.775 5.207,-4.929" clip-path="url(#SVGID_31_)" style="fill:#ffffff" transform="matrix(4.002266,0,0,4.002266,-2528.2635,-358.57433)"/><path id="path6068" d="m 646.614,171.96 c -1.722,0.735 -2.746,0.882 -2.979,0.975 -0.29,0.12 -1.141,0.188 -1.449,-0.24 -0.427,-0.562 0.328,-1.015 0.869,-1.096 0.213,-0.026 1.277,-0.08 1.547,-0.146 1.297,-0.294 3.793,-1.644 3.793,-2.913 0,-0.614 -1.915,-1.109 -4.952,-1.109 -0.678,0 -2.147,0.161 -2.979,0.401 v 1.323 c 0.02,0.801 0.098,0.735 0.251,1.175 0.233,0.668 0.291,0.749 0.098,1.203 -0.136,0.32 -1.761,0.186 -1.876,-0.161 -0.059,-0.267 -0.271,-0.561 -0.137,-1.229 0.059,-0.24 -0.038,-2.284 -0.038,-2.284 0,0 0.038,-2.151 0.059,-2.832 -0.291,-0.054 -0.697,-0.2 -0.716,-0.521 -0.02,-0.267 0.096,-0.588 0.482,-0.761 l 0.213,-0.108 c 0.059,-0.186 0.232,-0.56 0.658,-0.64 0.638,-0.134 0.87,0.026 0.987,0.213 1.16,-0.24 5.474,-1.068 7.176,-0.654 1.238,0.307 0.252,1.549 -0.444,2.017 -1.412,0.948 -2.321,1.389 -3.173,1.763 1.896,0.08 6.112,0.454 6.074,2.271 -0.022,1.244 -2.188,2.819 -3.464,3.353 m -6.035,-7.414 c -0.29,0.307 -0.252,1.416 -0.213,1.95 0.658,-0.24 1.993,-0.734 2.901,-1.149 2.496,-1.161 3.309,-1.683 3.114,-1.856 -0.56,-0.321 -5.377,0.574 -5.802,1.055" clip-path="url(#SVGID_31_)" style="fill:#2f2373" transform="matrix(4.002266,0,0,4.002266,-2528.2635,-358.57433)"/><path id="path6070" d="m 660.309,170.171 c -0.502,0.2 -4.643,2.738 -6.847,2.03 -1.567,-0.507 -2.612,-1.95 -2.245,-3.139 0.657,-2.11 5.068,-3.326 7.408,-2.311 0.232,0.093 -0.56,1.416 -2.708,2.084 -1.45,0.454 -2.281,0.427 -3.018,0.507 -0.058,0.188 -0.154,0.695 0.426,1.296 0.29,0.347 0.677,0.642 1.354,0.615 1.47,-0.04 4.236,-1.603 4.43,-1.79 0.213,-0.254 0.658,-0.815 1.354,-0.481 0.698,0.347 0.446,0.895 -0.154,1.189 m -5.532,-2.525 c -0.755,0.227 -1.373,0.695 -1.373,0.695 0,0 1.063,-0.147 1.663,-0.334 0.948,-0.294 1.683,-0.695 1.683,-0.695 0,0 -0.909,0.014 -1.973,0.334" clip-path="url(#SVGID_31_)" style="fill:#2f2373" transform="matrix(4.002266,0,0,4.002266,-2528.2635,-358.57433)"/><path id="path6072" d="m 663.85,167.218 c -0.311,1.763 -0.406,3.58 -0.271,4.743 0.02,0.454 -0.116,1.535 -1.393,0.921 -0.58,-0.267 -0.116,-4.929 0.194,-7.294 0.231,-1.817 0.444,-3.139 0.695,-3.286 0.368,-0.214 0.755,-0.334 1.355,0.107 0.405,0.307 0.116,0.788 -0.58,4.809" clip-path="url(#SVGID_31_)" style="fill:#2f2373" transform="matrix(4.002266,0,0,4.002266,-2528.2635,-358.57433)"/><path id="path6074" d="m 674.452,170.171 c -0.502,0.2 -4.642,2.738 -6.847,2.03 -1.567,-0.507 -2.612,-1.95 -2.245,-3.139 0.658,-2.11 5.069,-3.326 7.409,-2.311 0.231,0.093 -0.561,1.416 -2.708,2.084 -1.451,0.454 -2.282,0.427 -3.018,0.507 -0.059,0.188 -0.154,0.695 0.425,1.296 0.291,0.347 0.678,0.642 1.354,0.615 1.47,-0.04 4.237,-1.603 4.43,-1.79 0.213,-0.254 0.658,-0.815 1.354,-0.481 0.698,0.347 0.446,0.895 -0.154,1.189 m -5.533,-2.525 c -0.754,0.227 -1.373,0.695 -1.373,0.695 0,0 1.063,-0.147 1.663,-0.334 0.948,-0.294 1.684,-0.695 1.684,-0.695 0,0 -0.909,0.014 -1.974,0.334" clip-path="url(#SVGID_31_)" style="fill:#2f2373" transform="matrix(4.002266,0,0,4.002266,-2528.2635,-358.57433)"/><path id="path6076" d="m 684.412,170.171 c -0.503,0.2 -4.642,2.738 -6.847,2.03 -1.567,-0.507 -2.612,-1.95 -2.245,-3.139 0.658,-2.11 5.069,-3.326 7.409,-2.311 0.233,0.093 -0.56,1.416 -2.708,2.084 -1.451,0.454 -2.283,0.427 -3.017,0.507 -0.06,0.188 -0.155,0.695 0.425,1.296 0.29,0.347 0.677,0.642 1.354,0.615 1.471,-0.04 4.237,-1.603 4.431,-1.79 0.213,-0.254 0.656,-0.815 1.354,-0.481 0.696,0.347 0.444,0.895 -0.156,1.189 m -5.532,-2.525 c -0.756,0.227 -1.373,0.695 -1.373,0.695 0,0 1.063,-0.147 1.663,-0.334 0.947,-0.294 1.683,-0.695 1.683,-0.695 0,0 -0.909,0.014 -1.973,0.334" clip-path="url(#SVGID_31_)" style="fill:#2f2373" transform="matrix(4.002266,0,0,4.002266,-2528.2635,-358.57433)"/><path id="path6078" d="m 691.879,163.478 c -2.282,-0.601 -2.96,1.63 -2.921,4.114 0,0.134 0,0.254 0.019,0.388 1.509,-0.107 2.186,0.026 2.476,-0.107 0.581,-0.281 1.451,0.027 1.433,0.547 -0.021,0.481 -0.658,0.575 -1.161,0.589 -1.412,0.04 -1.954,0 -2.728,0.066 0,1.162 -0.058,2.271 -0.271,3.38 -0.407,1.883 -1.045,3.326 -0.948,3.54 0.155,0.334 -0.29,1.029 -1.412,0.722 -0.542,-0.148 -0.677,-0.735 -0.231,-1.083 0.135,-0.12 0.656,-1.442 0.947,-3.192 0.252,-1.417 0.271,-2.044 0.271,-3.126 -0.232,0.066 -0.367,0.147 -0.619,0.4 -0.754,0.762 -2.282,-0.173 -1.411,-0.788 0.348,-0.267 0.773,-0.547 2.012,-0.748 0,-0.187 0.019,-0.387 0.019,-0.601 0.02,-4.849 2.592,-5.37 4.488,-5.21 1.489,0.12 1.548,0.682 1.509,0.909 -0.253,0.668 -1.22,0.254 -1.472,0.2" clip-path="url(#SVGID_31_)" style="fill:#2f2373" transform="matrix(4.002266,0,0,4.002266,-2528.2635,-358.57433)"/><path id="path6080" d="m 710.894,172.295 c -0.909,0.013 -0.967,-0.708 -0.89,-1.202 0.097,-0.775 0.271,-3.113 -0.367,-3.367 -0.909,-0.347 -3.463,1.47 -4.004,2.284 -0.563,0.815 -0.484,1.63 -0.465,1.79 0.213,1.31 -1.335,1.096 -1.684,0.869 -0.444,-0.32 -0.213,-0.761 0,-1.109 0.213,-0.307 -0.039,-1.924 0.483,-5.183 0.368,-2.365 0.426,-3.54 1.142,-3.527 1.277,0.054 0.813,0.842 0.542,2.846 -0.097,0.694 -0.193,1.456 -0.271,2.164 -0.039,0.267 -0.059,0.481 -0.059,0.694 1.025,-0.788 3.23,-2.351 4.913,-1.923 1.471,0.374 1.528,2.899 1.412,4.529 -0.075,0.721 0.215,1.122 -0.752,1.135" clip-path="url(#SVGID_31_)" style="fill:#2f2373" transform="matrix(4.002266,0,0,4.002266,-2528.2635,-358.57433)"/><path id="path6082" d="m 721.842,170.171 c -0.502,0.2 -4.642,2.738 -6.847,2.03 -1.567,-0.507 -2.612,-1.95 -2.245,-3.139 0.658,-2.11 5.069,-3.326 7.409,-2.311 0.232,0.093 -0.561,1.416 -2.708,2.084 -1.451,0.454 -2.283,0.427 -3.018,0.507 -0.059,0.188 -0.154,0.695 0.425,1.296 0.291,0.347 0.678,0.642 1.354,0.615 1.47,-0.04 4.237,-1.603 4.43,-1.79 0.213,-0.254 0.658,-0.815 1.354,-0.481 0.699,0.347 0.447,0.895 -0.154,1.189 m -5.532,-2.525 c -0.755,0.227 -1.373,0.695 -1.373,0.695 0,0 1.063,-0.147 1.663,-0.334 0.948,-0.294 1.684,-0.695 1.684,-0.695 0,0 -0.909,0.014 -1.974,0.334" clip-path="url(#SVGID_31_)" style="fill:#2f2373" transform="matrix(4.002266,0,0,4.002266,-2528.2635,-358.57433)"/><path id="path6084" d="m 730.294,166.804 c -1.063,0 -2.244,0.16 -2.96,0.267 -0.116,0.601 -0.502,3.006 -0.387,4.542 0.02,0.174 0.407,1.002 -0.754,0.948 -0.813,-0.039 -0.948,-0.761 -0.948,-0.948 0.058,-0.601 0,-1.429 0.213,-2.805 0.116,-0.788 0.174,-1.095 0.251,-1.496 -0.329,0.066 -0.793,0.16 -1.18,0.293 -0.967,0.308 -1.257,0.575 -1.528,0.535 -0.541,-0.107 -0.928,-0.401 -0.773,-0.735 0.115,-0.227 0.136,-0.387 1.374,-0.708 1.045,-0.28 1.314,-0.347 2.341,-0.534 0.077,-0.321 0.29,-1.256 0.443,-2.432 0.039,-0.387 -0.096,-1.309 0.697,-1.309 0.542,0 1.045,0.428 0.832,1.898 -0.097,0.721 -0.213,0.975 -0.349,1.616 0.562,-0.054 1.605,-0.146 2.728,-0.107 0.522,0.013 1.354,0.08 1.412,0.534 0.059,0.548 -0.966,0.441 -1.412,0.441" clip-path="url(#SVGID_31_)" style="fill:#2f2373" transform="matrix(4.002266,0,0,4.002266,-2528.2635,-358.57433)"/><path id="path6086" d="m 746.601,166.203 c -0.366,0 -0.58,-0.16 -0.734,-0.16 -0.601,0.013 -0.774,0.307 -2.205,1.189 -0.852,0.534 -1.335,1.296 -1.238,1.643 0.174,0.761 1.18,0.828 2.341,1.122 1.296,0.374 2.341,0.521 2.495,1.403 0.098,0.601 -3.424,1.938 -3.792,1.963 -0.812,-0.026 -1.237,-0.481 -0.793,-0.881 0.271,-0.147 2.863,-0.749 2.747,-1.163 -0.155,-0.654 -4.294,-0.494 -4.584,-2.271 -0.252,-1.629 2.379,-3.059 3.791,-3.86 0.483,-0.308 1.219,-0.241 1.567,-0.147 0.29,0.12 1.083,0.441 1.103,0.641 0.058,0.267 -0.079,0.521 -0.698,0.521" clip-path="url(#SVGID_31_)" style="fill:#2f2373" transform="matrix(4.002266,0,0,4.002266,-2528.2635,-358.57433)"/><path id="path6088" d="m 752.502,172.081 c -0.059,-0.04 -0.098,-0.08 -0.137,-0.134 -0.773,0.294 -2.728,0.935 -3.753,0.188 -1.198,-0.855 0.232,-2.979 2.147,-3.18 1.063,-0.093 1.684,0.308 2.089,0.828 0.117,-0.52 0.155,-1.349 -0.521,-2.217 -0.696,-0.868 -2.282,-0.347 -2.321,-0.093 0.039,0.24 -1.238,0.293 -1.296,-0.228 -0.059,-0.694 2.533,-1.523 3.906,-0.935 3.309,1.429 1.123,5.757 0.93,5.838 -0.174,0.134 -0.754,0.16 -1.044,-0.067 m -1.471,-2.124 c -1.16,0.067 -1.721,1.323 -1.354,1.456 0.658,0.268 1.838,-0.334 2.263,-0.561 -0.116,-0.28 -0.444,-0.922 -0.909,-0.895" clip-path="url(#SVGID_31_)" style="fill:#2f2373" transform="matrix(4.002266,0,0,4.002266,-2528.2635,-358.57433)"/><path id="path6090" d="m 765.193,171.707 c -0.368,-0.441 -0.213,-2.524 -0.194,-3.313 0,-0.44 0,-0.881 -0.328,-1.015 -0.136,-0.067 -1.103,0.895 -1.993,2.391 -1.199,2.031 -1.296,2.966 -1.915,2.846 -0.89,-0.134 -0.831,-0.428 -0.909,-1.991 -0.097,-1.87 -0.115,-2.859 -0.349,-2.952 -0.444,-0.187 -1.624,1.803 -2.03,3.58 -0.252,1.002 0.154,1.029 -0.31,1.229 -0.367,0.174 -1.141,0.134 -1.354,-0.107 -0.29,-0.334 0.136,-2.952 0.175,-3.393 0.154,-1.002 -0.136,-1.67 0.058,-1.897 0.29,-0.32 1.025,-0.387 1.374,-0.12 0.173,0.134 0.289,0.214 0.386,0.401 0.484,-0.615 1.239,-1.523 1.877,-1.563 0.388,-0.027 0.947,0.293 1.16,0.574 0.252,0.254 0.368,1.028 0.503,2.779 0.813,-1.149 2.265,-3.193 3.463,-3.34 0.522,-0.067 1.354,0.561 1.509,0.949 0.291,0.681 0.232,3.767 0.214,4.033 -0.021,0.281 0.29,0.682 0.096,0.909 -0.253,0.267 -1.105,0.428 -1.433,0" clip-path="url(#SVGID_31_)" style="fill:#2f2373" transform="matrix(4.002266,0,0,4.002266,-2528.2635,-358.57433)"/><path id="path6092" d="m 776.993,170.171 c -0.503,0.2 -4.643,2.738 -6.848,2.03 -1.567,-0.507 -2.612,-1.95 -2.244,-3.139 0.658,-2.11 5.068,-3.326 7.409,-2.311 0.232,0.093 -0.562,1.416 -2.708,2.084 -1.452,0.454 -2.283,0.427 -3.019,0.507 -0.058,0.188 -0.154,0.695 0.426,1.296 0.29,0.347 0.678,0.642 1.354,0.615 1.471,-0.04 4.237,-1.603 4.432,-1.79 0.212,-0.254 0.656,-0.815 1.354,-0.481 0.695,0.347 0.443,0.895 -0.156,1.189 m -5.533,-2.525 c -0.755,0.227 -1.373,0.695 -1.373,0.695 0,0 1.063,-0.147 1.664,-0.334 0.946,-0.294 1.682,-0.695 1.682,-0.695 0,0 -0.909,0.014 -1.973,0.334" clip-path="url(#SVGID_31_)" style="fill:#2f2373" transform="matrix(4.002266,0,0,4.002266,-2528.2635,-358.57433)"/><path id="path6094" d="m 782.989,171.88 c 0.116,-0.214 -0.231,-0.882 -0.192,-2.511 0.038,-0.842 -0.039,-1.163 -0.194,-1.336 -0.309,-0.147 -1.276,1.095 -2.128,2.685 -0.638,1.162 -0.657,1.509 -0.909,1.643 -0.29,0.107 -0.812,0.227 -1.179,-0.147 -0.291,-0.28 -0.06,-0.922 -0.021,-3.193 0.059,-1.269 0.213,-2.244 0.251,-2.431 0.155,-0.748 1.259,-0.481 1.568,-0.187 0.23,0.2 -0.039,0.815 -0.058,1.924 0,0.053 0,0.106 -0.021,0.16 0.793,-0.989 2.166,-2.565 3.115,-2.445 1.063,0.134 1.218,1.697 1.218,3.821 -0.019,1.229 -0.038,1.656 0.039,1.803 0.232,0.348 0.541,0.882 0.058,1.149 -0.503,0.308 -1.913,-0.159 -1.547,-0.935" clip-path="url(#SVGID_31_)" style="fill:#2f2373" transform="matrix(4.002266,0,0,4.002266,-2528.2635,-358.57433)"/><path id="path6096" d="m 787.631,173.991 c -0.464,0.014 -0.851,-0.481 -0.851,-0.788 0,-0.334 0.29,-0.628 0.503,-0.668 0.89,-0.013 1.083,0.334 1.102,0.615 0,0.307 -0.077,0.801 -0.754,0.841 m 1.509,-7.908 c -0.213,1.256 -0.773,3.139 -0.677,3.38 0,0.16 0.193,0.588 0.174,0.774 -0.039,0.374 -0.444,0.655 -0.87,0.575 -0.619,-0.08 -0.908,-0.454 -0.793,-1.269 0.271,-2.204 0.406,-3.153 0.677,-5.357 0.077,-0.614 0.116,-1.817 0.232,-1.91 0.193,-0.161 0.986,-0.441 1.393,0.027 0.29,0.266 0.154,1.843 -0.136,3.78" clip-path="url(#SVGID_31_)" style="fill:#2f2373" transform="matrix(4.002266,0,0,4.002266,-2528.2635,-358.57433)"/><path id="path6098" d="m 733.98,101.964 v 12.427 h 13.661 L 726.56,156.52 c 4.64,3.387 10.072,5.754 15.966,6.771 l 30.223,-61.326 H 733.98 z" clip-path="url(#SVGID_31_)" style="fill:#ffffff" transform="matrix(4.002266,0,0,4.002266,-2528.2635,-358.57433)"/><path id="path6100" d="m 754.291,139.418 h 37.65 c 0.609,-1.464 12.202,-30.344 -13.105,-49.826 l -24.545,49.826 z" clip-path="url(#SVGID_31_)" style="fill:#2f2373" transform="matrix(4.002266,0,0,4.002266,-2528.2635,-358.57433)"/><path id="path6102" d="m 780.363,139.398 -26.073,0.02 -7.33,14.874 c 2.514,0.449 22.558,3.298 33.403,-14.894" clip-path="url(#SVGID_31_)" style="fill:#008e35" transform="matrix(4.002266,0,0,4.002266,-2528.2635,-358.57433)"/>
</svg>