<svg xmlns="http://www.w3.org/2000/svg" width="654" height="349" viewBox="0 0 653.99997 348.99999" enable-background="new 0 0 1190.55 841.89"><path d="M481.629 7.013c60.102 0 88.002 32.198 88.002 32.198l-5.151 10.302h-155.16v21.892h-34.151c.004.004 34.343-64.392 106.46-64.392" clip-path="url(#SVGID_31_)" fill="#008e35"/><path d="M327.249 199.37c10.702 27.74 28.552 51.457 52.378 68.475l84.372-168.595h-54.679l-.008-28.312h-344.687s-64.625 3.418-64.625 62.924c0 67.302 63.416 65.509 63.416 65.509h263.833z" clip-path="url(#SVGID_31_)" fill="#e60004"/><path d="M95.39 135.814h-27.139v39.198h-23.673v-86.997h53.678v17.49h-30.157v18.246h27.291v12.063zm73.75 29.929l-13.892 11.082c-2.129-.648-3.986-1.705-5.575-3.174-1.585-1.469-2.633-3.146-3.134-5.043l-10.942 6.067c-.424.244-1.153.484-2.181.732-1.033.236-1.897.36-2.589.36-8.421 0-15.377-2.814-20.868-8.433-5.491-5.623-8.237-13.452-8.237-23.485 0-9.505 2.846-17.342 8.545-23.513 5.695-6.163 12.959-9.253 21.792-9.253 3.53 0 6.816.672 9.882 2.009 3.062 1.345 5.075 2.533 6.043 3.57l10.174-3.618 3.418 1.057v38.882c0 3.406.604 6.107 1.829 8.113 1.221 2.009 3.134 3.554 5.735 4.647m-25.735-10.054v-24.21c-1.017-1.297-2.345-2.397-3.982-3.302-1.641-.909-3.646-1.365-6.011-1.365-3.418 0-6.252 1.265-8.497 3.786-2.253 2.517-3.378 6.704-3.378 12.555 0 4.643 1.049 8.357 3.142 11.154 2.097 2.798 5.047 4.194 8.833 4.194 2.165 0 4.19-.344 6.087-1.029 1.893-.68 3.162-1.277 3.806-1.785m126.968 19.323h-16.473v-38.23c0-2.269-.724-4.254-2.177-5.955-1.449-1.701-3.73-2.553-6.844-2.553-2.545 0-4.819.516-6.824 1.549-2.005 1.029-3.69 2.373-5.047 4.03v41.159h-16.473v-38.23c0-2.269-.724-4.254-2.169-5.955-1.445-1.701-3.718-2.553-6.82-2.553-2.922 0-5.387.644-7.384 1.929-1.997 1.289-3.458 2.557-4.386 3.798v41.011h-16.473v-60.91l16.473-1.205v6.027l6.4-4.15c2.117-1.381 4.198-2.313 6.244-2.806 2.045-.488 4.122-.732 6.24-.732 3.806 0 7.048.816 9.742 2.449 2.69 1.637 4.755 3.882 6.188 6.748l8.897-5.687c1.793-1.169 3.754-2.049 5.879-2.629 2.121-.584 4.33-.88 6.632-.88 5.715 0 10.206 1.861 13.472 5.583 3.274 3.722 4.915 8.617 4.915 14.684v43.509zm36.729-68.451h-18.847v-16.281h18.847v16.281zm0 68.451h-18.847v-60.91l18.847-1.057v61.967zm43.385-10.102l-12.907 11.31c-4.691-2.67-8.417-5.755-11.162-9.257-2.75-3.498-4.126-7.72-4.126-12.659v-66.29h18.547v60.086c0 4.166.768 7.444 2.305 9.83 1.541 2.389 3.986 4.715 7.344 6.98m27.792 7.092l-26.699-52.918 17.13-7.396 18.19 39.939 18.955-39.939 16.285 7.396-26.907 54.319s-5.827 17.726-29.953 34.007c0 0-7.84-9.045-7.84-15.681.004 0 14.532-11.106 20.84-19.727" clip-path="url(#SVGID_31_)" fill="#fff"/><path d="M59.658 329.655c-6.892 2.942-10.99 3.53-11.923 3.902-1.161.48-4.567.752-5.799-.961-1.709-2.249 1.313-4.062 3.478-4.386.852-.104 5.111-.32 6.192-.584 5.191-1.177 15.181-6.58 15.181-11.659 0-2.457-7.664-4.439-19.819-4.439-2.714 0-8.593.644-11.923 1.605v5.295c.08 3.206.392 2.942 1.005 4.703.933 2.674 1.165 2.998.392 4.815-.544 1.281-7.048.744-7.508-.644-.236-1.069-1.085-2.245-.548-4.919.236-.961-.152-9.141-.152-9.141s.152-8.609.236-11.334c-1.165-.216-2.79-.8-2.866-2.085-.08-1.069.384-2.353 1.929-3.046l.852-.432c.236-.744.929-2.241 2.633-2.561 2.553-.536 3.482.104 3.95.852 4.643-.961 21.908-4.274 28.72-2.617 4.955 1.229 1.009 6.2-1.777 8.073-5.651 3.794-9.289 5.559-12.699 7.056 7.588.32 24.462 1.817 24.31 9.089-.088 4.979-8.757 11.282-13.864 13.42m-24.154-29.673c-1.161 1.229-1.009 5.667-.852 7.804 2.633-.961 7.977-2.938 11.611-4.599 9.99-4.647 13.243-6.736 12.463-7.428-2.241-1.285-21.52 2.297-23.221 4.222" clip-path="url(#SVGID_31_)" fill="#2f2373"/><path d="M114.469 322.495c-2.009.8-18.583 10.958-27.404 8.125-6.272-2.029-10.454-7.804-8.985-12.563 2.629-8.445 20.283-13.312 29.649-9.249.929.372-2.241 5.667-10.838 8.341-5.803 1.817-9.129 1.709-12.079 2.029-.232.752-.616 2.782 1.705 5.187 1.161 1.389 2.71 2.569 5.419 2.461 5.883-.16 16.954-6.416 17.73-7.164.852-1.017 2.633-3.262 5.419-1.925 2.794 1.389 1.785 3.582-.616 4.759m-22.141-10.106c-3.022.909-5.495 2.782-5.495 2.782s4.254-.588 6.656-1.337c3.794-1.177 6.736-2.782 6.736-2.782s-3.638.056-7.896 1.337" clip-path="url(#SVGID_31_)" fill="#2f2373"/><path d="M128.641 310.677c-1.245 7.056-1.625 14.328-1.085 18.983.08 1.817-.464 6.143-5.575 3.686-2.321-1.069-.464-19.727.776-29.193.925-7.272 1.777-12.563 2.782-13.151 1.473-.856 3.022-1.337 5.423.428 1.621 1.229.464 3.154-2.321 19.247" clip-path="url(#SVGID_31_)" fill="#2f2373"/><path d="M171.073 322.495c-2.009.8-18.579 10.958-27.404 8.125-6.272-2.029-10.454-7.804-8.985-12.563 2.633-8.445 20.287-13.312 29.653-9.249.925.372-2.245 5.667-10.838 8.341-5.807 1.817-9.133 1.709-12.079 2.029-.236.752-.616 2.782 1.701 5.187 1.165 1.389 2.714 2.569 5.419 2.461 5.883-.16 16.958-6.416 17.73-7.164.852-1.017 2.633-3.262 5.419-1.925 2.794 1.389 1.785 3.582-.616 4.759m-22.145-10.106c-3.018.909-5.495 2.782-5.495 2.782s4.254-.588 6.656-1.337c3.794-1.177 6.74-2.782 6.74-2.782s-3.638.056-7.9 1.337" clip-path="url(#SVGID_31_)" fill="#2f2373"/><path d="M210.935 322.495c-2.013.8-18.579 10.958-27.404 8.125-6.272-2.029-10.454-7.804-8.985-12.563 2.633-8.445 20.287-13.312 29.653-9.249.933.372-2.241 5.667-10.838 8.341-5.807 1.817-9.137 1.709-12.075 2.029-.24.752-.62 2.782 1.701 5.187 1.161 1.389 2.71 2.569 5.419 2.461 5.887-.16 16.958-6.416 17.734-7.164.852-1.017 2.625-3.262 5.419-1.925 2.786 1.389 1.777 3.582-.624 4.759m-22.141-10.106c-3.026.909-5.495 2.782-5.495 2.782s4.254-.588 6.656-1.337c3.79-1.177 6.736-2.782 6.736-2.782s-3.638.056-7.896 1.337" clip-path="url(#SVGID_31_)" fill="#2f2373"/><path d="M240.82 295.708c-9.133-2.405-11.847 6.524-11.691 16.465 0 .536 0 1.017.076 1.553 6.039-.428 8.749.104 9.91-.428 2.325-1.125 5.807.108 5.735 2.189-.084 1.925-2.633 2.301-4.647 2.357-5.651.16-7.82 0-10.918.264 0 4.651-.232 9.089-1.085 13.528-1.629 7.536-4.182 13.312-3.794 14.168.62 1.337-1.161 4.118-5.651 2.89-2.169-.592-2.71-2.942-.925-4.334.54-.48 2.625-5.771 3.79-12.775 1.009-5.671 1.085-8.181 1.085-12.511-.929.264-1.469.588-2.477 1.601-3.018 3.05-9.133-.692-5.647-3.154 1.393-1.069 3.094-2.189 8.053-2.994 0-.748.076-1.549.076-2.405.08-19.407 10.374-21.492 17.962-20.852 5.959.48 6.196 2.73 6.039 3.638-1.013 2.674-4.883 1.017-5.891.8" clip-path="url(#SVGID_31_)" fill="#2f2373"/><path d="M316.923 330.996c-3.638.052-3.87-2.834-3.562-4.811.388-3.102 1.085-12.459-1.469-13.476-3.638-1.389-13.86 5.883-16.025 9.141-2.253 3.262-1.937 6.524-1.861 7.164.852 5.243-5.343 4.386-6.74 3.478-1.777-1.281-.852-3.046 0-4.439.852-1.229-.156-7.7 1.933-20.744 1.473-9.465 1.705-14.168 4.571-14.116 5.111.216 3.254 3.37 2.169 11.39-.388 2.778-.772 5.827-1.085 8.661-.156 1.069-.236 1.925-.236 2.778 4.102-3.154 12.927-9.409 19.663-7.696 5.887 1.497 6.115 11.603 5.651 18.126-.3 2.886.86 4.491-3.01 4.543" clip-path="url(#SVGID_31_)" fill="#2f2373"/><path d="M360.74 322.495c-2.009.8-18.579 10.958-27.404 8.125-6.272-2.029-10.454-7.804-8.985-12.563 2.633-8.445 20.287-13.312 29.653-9.249.929.372-2.245 5.667-10.838 8.341-5.807 1.817-9.137 1.709-12.079 2.029-.236.752-.616 2.782 1.701 5.187 1.165 1.389 2.714 2.569 5.419 2.461 5.883-.16 16.958-6.416 17.73-7.164.852-1.017 2.633-3.262 5.419-1.925 2.798 1.389 1.789 3.582-.616 4.759m-22.141-10.106c-3.022.909-5.495 2.782-5.495 2.782s4.254-.588 6.656-1.337c3.794-1.177 6.74-2.782 6.74-2.782s-3.638.056-7.9 1.337" clip-path="url(#SVGID_31_)" fill="#2f2373"/><path d="M394.567 309.02c-4.254 0-8.981.64-11.847 1.069-.464 2.405-2.009 12.031-1.549 18.178.08.696 1.629 4.01-3.018 3.794-3.254-.156-3.794-3.046-3.794-3.794.232-2.405 0-5.719.852-11.226.464-3.154.696-4.382 1.005-5.987-1.317.264-3.174.64-4.723 1.173-3.87 1.233-5.031 2.301-6.115 2.141-2.165-.428-3.714-1.605-3.094-2.942.46-.909.544-1.549 5.499-2.834 4.182-1.121 5.259-1.389 9.369-2.137.308-1.285 1.161-5.027 1.773-9.734.156-1.549-.384-5.239 2.79-5.239 2.169 0 4.182 1.713 3.33 7.596-.388 2.886-.852 3.902-1.397 6.468 2.249-.216 6.424-.584 10.918-.428 2.089.052 5.419.32 5.651 2.137.236 2.193-3.866 1.765-5.651 1.765" clip-path="url(#SVGID_31_)" fill="#2f2373"/><path d="M459.832 306.614c-1.465 0-2.321-.64-2.938-.64-2.405.052-3.098 1.229-8.825 4.759-3.41 2.137-5.343 5.187-4.955 6.576.696 3.046 4.723 3.314 9.369 4.491 5.187 1.497 9.369 2.085 9.986 5.615.392 2.405-13.704 7.756-15.177 7.856-3.25-.104-4.951-1.925-3.174-3.526 1.085-.588 11.458-2.998 10.994-4.655-.62-2.617-17.186-1.977-18.346-9.089-1.009-6.52 9.521-12.243 15.173-15.449 1.933-1.233 4.879-.965 6.272-.588 1.161.48 4.334 1.765 4.414 2.565.232 1.069-.316 2.085-2.794 2.085" clip-path="url(#SVGID_31_)" fill="#2f2373"/><path d="M483.45 330.14c-.236-.16-.392-.32-.548-.536-3.094 1.177-10.918 3.742-15.021.752-4.795-3.422.929-11.923 8.593-12.727 4.254-.372 6.74 1.233 8.361 3.314.468-2.081.62-5.399-2.085-8.873-2.786-3.474-9.133-1.389-9.289-.372.156.961-4.955 1.173-5.187-.913-.236-2.778 10.138-6.095 15.633-3.742 13.243 5.719 4.495 23.041 3.722 23.365-.696.536-3.018.64-4.178-.268m-5.887-8.501c-4.643.268-6.888 5.295-5.419 5.827 2.633 1.073 7.356-1.337 9.057-2.245-.464-1.121-1.777-3.69-3.638-3.582" clip-path="url(#SVGID_31_)" fill="#2f2373"/><path d="M534.242 328.643c-1.473-1.765-.852-10.102-.776-13.26 0-1.761 0-3.526-1.313-4.062-.544-.268-4.414 3.582-7.977 9.569-4.799 8.129-5.187 11.871-7.664 11.39-3.562-.536-3.326-1.713-3.638-7.969-.388-7.484-.46-11.442-1.397-11.815-1.777-.748-6.5 7.216-8.125 14.328-1.009 4.01.616 4.118-1.241 4.919-1.469.696-4.567.536-5.419-.428-1.161-1.337.544-11.815.7-13.58.616-4.01-.544-6.684.232-7.592 1.161-1.281 4.102-1.549 5.499-.48.692.536 1.157.856 1.545 1.605 1.937-2.461 4.959-6.095 7.512-6.256 1.553-.108 3.79 1.173 4.643 2.297 1.009 1.017 1.473 4.114 2.013 11.122 3.254-4.599 9.065-12.779 13.86-13.368 2.089-.268 5.419 2.245 6.039 3.798 1.165 2.726.929 15.077.856 16.141-.084 1.125 1.161 2.73.384 3.638-1.013 1.069-4.423 1.713-5.735 0" clip-path="url(#SVGID_31_)" fill="#2f2373"/><path d="M581.469 322.495c-2.013.8-18.583 10.958-27.408 8.125-6.272-2.029-10.454-7.804-8.981-12.563 2.633-8.445 20.283-13.312 29.653-9.249.929.372-2.249 5.667-10.838 8.341-5.811 1.817-9.137 1.709-12.083 2.029-.232.752-.616 2.782 1.705 5.187 1.161 1.389 2.714 2.569 5.419 2.461 5.887-.16 16.958-6.416 17.738-7.164.848-1.017 2.625-3.262 5.419-1.925 2.782 1.389 1.773 3.582-.624 4.759m-22.145-10.106c-3.022.909-5.495 2.782-5.495 2.782s4.254-.588 6.66-1.337c3.786-1.177 6.732-2.782 6.732-2.782s-3.638.056-7.896 1.337" clip-path="url(#SVGID_31_)" fill="#2f2373"/><path d="M605.467 329.335c.464-.856-.925-3.53-.768-10.05.152-3.37-.156-4.655-.776-5.347-1.237-.588-5.107 4.382-8.517 10.746-2.553 4.651-2.629 6.039-3.638 6.576-1.161.428-3.25.909-4.719-.588-1.165-1.121-.24-3.69-.084-12.779.236-5.079.852-8.981 1.005-9.73.62-2.994 5.039-1.925 6.276-.748.921.8-.156 3.262-.232 7.7 0 .212 0 .424-.084.64 3.174-3.958 8.669-10.266 12.467-9.786 4.254.536 4.875 6.792 4.875 15.293-.076 4.919-.152 6.628.156 7.216.929 1.393 2.165 3.53.232 4.599-2.013 1.233-7.656-.636-6.192-3.742" clip-path="url(#SVGID_31_)" fill="#2f2373"/><path d="M624.045 337.784c-1.857.056-3.406-1.925-3.406-3.154 0-1.337 1.161-2.513 2.013-2.674 3.562-.052 4.334 1.337 4.41 2.461 0 1.229-.308 3.206-3.018 3.366m6.039-31.65c-.852 5.027-3.094 12.563-2.71 13.528 0 .64.772 2.353.696 3.098-.156 1.497-1.777 2.621-3.482 2.301-2.477-.32-3.634-1.817-3.174-5.079l2.71-21.44c.308-2.457.464-7.272.929-7.644.772-.644 3.946-1.765 5.575.108 1.161 1.065.616 7.376-.544 15.129" clip-path="url(#SVGID_31_)" fill="#2f2373"/><path d="M409.32 49.513v49.736h54.675l-84.372 168.611c18.571 13.556 40.311 23.029 63.9 27.099l120.96-245.443h-155.164z" clip-path="url(#SVGID_31_)" fill="#fff"/><path d="M490.61 199.414h150.685c2.437-5.859 48.836-121.445-52.45-199.417l-98.236 199.417z" clip-path="url(#SVGID_31_)" fill="#2f2373"/><path d="M594.957 199.334l-104.351.08-29.337 59.53c10.062 1.797 90.283 13.199 133.688-59.61" clip-path="url(#SVGID_31_)" fill="#008e35"/></svg>