<svg version="1.1" viewBox="0 0 450 450" xmlns="http://www.w3.org/2000/svg">
 <g transform="matrix(.99999 0 0 1 9.2819e-7 1.1808e-5)" stroke-width=".11121">
  <g transform="matrix(3.172 0 0 -3.172 405.04 450)">
   <path d="m0 0h-113.52c-7.795 0-14.173 6.378-14.173 14.173v113.52c0 7.795 6.378 14.173 14.173 14.173h113.52c7.796 0 14.174-6.378 14.174-14.173v-113.52c0-7.795-6.378-14.173-14.174-14.173" fill="#006fe8" stroke-width=".11121"/>
  </g>
  <g transform="matrix(3.172 0 0 -3.172 85.108 133.17)">
   <path d="m0 0 46.346-46.346 46.345 46.346-22.413 22.395h-47.882zm46.346-53.857-53.858 53.857 27.706 27.707h52.284l27.726-27.706z" fill="#fff" stroke-width=".11121"/>
  </g>
  <g transform="matrix(3.172 0 0 -3.172 259 144.53)">
   <path d="m0 0v-1.693h-5.961v-25.759h5.961v-1.693h-17.369v1.693h5.667v25.759h-5.667v1.693h5.667v3.606c0 12.585 5.225 17.884 12.292 17.884 2.87 0 6.181-1.325 6.181-4.784 0-1.472-1.471-2.429-2.722-2.429-1.987 0-3.019 1.399-3.019 3.387 0 0.809 0.589 0.882 0.589 1.838 0 0.369-1.251 0.442-1.766 0.442-3.533 0-5.814-4.268-5.814-11.627v-8.317z" fill="#fff" stroke-width=".11121"/>
  </g>
  <g transform="matrix(3.172 0 0 -3.172 298.77 146.87)">
   <path d="m0 0c0-1.47-1.191-2.661-2.662-2.661-1.47 0-2.661 1.191-2.661 2.661s1.191 2.662 2.661 2.662c1.471 0 2.662-1.192 2.662-2.662" fill="#fff" stroke-width=".11121"/>
  </g>
  <g transform="matrix(3.172 0 0 -3.172 70.206 361.92)">
   <path d="m0 0v-0.814h-2.868v-12.392h2.868v-0.815h-8.355v0.815h2.726v12.392h-2.726v0.814h2.726v1.734c0 1.511 0.147 2.809 0.442 3.896 0.295 1.085 0.708 1.976 1.239 2.673 0.531 0.695 1.156 1.209 1.877 1.54 0.719 0.33 1.505 0.495 2.354 0.495 0.354 0 0.708-0.041 1.062-0.123 0.354-0.083 0.673-0.219 0.956-0.407 0.283-0.19 0.514-0.425 0.691-0.709s0.265-0.637 0.265-1.062c0-0.354-0.141-0.638-0.424-0.85-0.284-0.212-0.579-0.318-0.886-0.318-0.472 0-0.832 0.152-1.08 0.46-0.247 0.307-0.371 0.695-0.371 1.168 0 0.189 0.046 0.324 0.141 0.407 0.094 0.083 0.142 0.242 0.142 0.479 0 0.094-0.112 0.152-0.337 0.177-0.224 0.023-0.395 0.035-0.513 0.035-0.849 0-1.528-0.491-2.035-1.47-0.508-0.979-0.762-2.354-0.762-4.124v-4.001z" fill="#fff" stroke-width=".11121"/>
  </g>
  <g transform="matrix(3.172 0 0 -3.172 103.3 382.92)">
   <path d="m0 0c-0.566 0-1.21-0.042-1.929-0.124-0.721-0.083-1.399-0.254-2.036-0.514-0.638-0.259-1.175-0.632-1.611-1.115-0.437-0.484-0.655-1.127-0.655-1.93 0-0.873 0.248-1.557 0.744-2.053 0.495-0.495 1.155-0.743 1.982-0.743 0.567 0 1.056 0.076 1.469 0.23 0.413 0.153 0.832 0.419 1.257 0.796 0.142 0.142 0.307 0.349 0.496 0.62 0.188 0.271 0.283 0.784 0.283 1.54zm5.346-4.957c-0.048-0.826-0.354-1.517-0.92-2.071-0.567-0.554-1.263-0.832-2.089-0.832-0.661 0-1.181 0.195-1.558 0.584-0.378 0.389-0.626 0.915-0.743 1.576-0.615-0.756-1.34-1.305-2.178-1.647-0.838-0.341-1.705-0.513-2.602-0.513-0.567 0-1.098 0.059-1.593 0.176-0.496 0.12-0.933 0.314-1.31 0.585-0.378 0.271-0.679 0.625-0.903 1.062-0.225 0.436-0.336 0.985-0.336 1.646 0.047 1.652 0.861 2.921 2.443 3.806 1.581 0.886 3.729 1.328 6.443 1.328v3.363c0 0.425-0.077 0.773-0.23 1.044-0.154 0.272-0.349 0.491-0.584 0.656-0.236 0.165-0.508 0.283-0.814 0.354-0.308 0.07-0.615 0.107-0.921 0.107-0.189 0-0.466-0.018-0.832-0.054-0.366-0.035-0.732-0.101-1.098-0.194-0.366-0.095-0.685-0.225-0.956-0.39s-0.407-0.378-0.407-0.638c0-0.07 0.053-0.141 0.16-0.212 0.106-0.071 0.23-0.159 0.371-0.265 0.142-0.107 0.266-0.254 0.372-0.443s0.16-0.425 0.16-0.708c0-0.449-0.131-0.808-0.39-1.08-0.26-0.271-0.614-0.407-1.062-0.407-0.473 0-0.838 0.159-1.098 0.478s-0.389 0.726-0.389 1.221c0 0.307 0.1 0.661 0.301 1.063 0.2 0.401 0.519 0.772 0.956 1.115 0.436 0.342 1.014 0.631 1.734 0.867 0.72 0.235 1.612 0.355 2.674 0.355 1.203 0 2.129-0.113 2.779-0.337 0.649-0.225 1.127-0.513 1.434-0.867 0.306-0.354 0.483-0.732 0.531-1.133 0.047-0.402 0.071-0.78 0.071-1.133v-8.427c0-0.543 0.029-0.95 0.088-1.221 0.059-0.272 0.277-0.408 0.655-0.408 0.354 0 0.625 0.19 0.814 0.568 0.189 0.377 0.33 0.718 0.426 1.026z" fill="#fff" stroke-width=".11121"/>
  </g>
  <g transform="matrix(3.172 0 0 -3.172 154.23 361.92)">
   <path d="m0 0v-3.965h-0.779c-0.26 1.038-0.702 1.888-1.328 2.549-0.625 0.66-1.469 1.015-2.531 1.062-0.732 0.023-1.316-0.083-1.753-0.319s-0.773-0.502-1.009-0.797-0.389-0.59-0.46-0.884c-0.071-0.295-0.106-0.491-0.106-0.584 0-0.26 0.041-0.491 0.124-0.691 0.082-0.201 0.312-0.401 0.69-0.601 0.378-0.202 0.95-0.408 1.717-0.621 0.767-0.211 1.824-0.46 3.169-0.743 1.369-0.283 2.325-0.743 2.868-1.381 0.543-0.637 0.814-1.522 0.814-2.655 0-0.756-0.136-1.433-0.407-2.036-0.272-0.602-0.637-1.109-1.098-1.522-0.46-0.414-0.997-0.732-1.611-0.956-0.613-0.224-1.274-0.336-1.982-0.336-0.756 0-1.493 0.147-2.213 0.442s-1.34 0.726-1.859 1.293l-0.779-1.276h-0.779v4.674h0.815c0.33-1.274 0.92-2.331 1.77-3.169s1.935-1.256 3.257-1.256c0.401 0 0.803 0.071 1.204 0.212 0.401 0.142 0.766 0.348 1.098 0.62 0.33 0.271 0.601 0.589 0.814 0.956 0.212 0.366 0.318 0.784 0.318 1.256 0 0.685-0.442 1.222-1.327 1.612-0.886 0.388-2.072 0.772-3.558 1.15-0.591 0.142-1.151 0.283-1.682 0.425s-0.998 0.348-1.398 0.619c-0.402 0.272-0.721 0.632-0.957 1.08s-0.354 1.063-0.354 1.841c0 0.378 0.071 0.814 0.213 1.311 0.141 0.495 0.39 0.967 0.744 1.416 0.354 0.448 0.837 0.832 1.451 1.15 0.613 0.318 1.404 0.478 2.372 0.478 1.109 0 2.207-0.437 3.293-1.31l0.637 0.956z" fill="#fff" stroke-width=".11121"/>
  </g>
  <g transform="matrix(3.172 0 0 -3.172 168.41 331.6)">
   <path d="m0 0h-1.947v0.814h0.743c0.661 0 1.328 0.023 2 0.071 0.673 0.047 1.328 0.13 1.966 0.248v-14.091h0.071c0.495 1.133 1.12 2.041 1.876 2.726 0.755 0.684 1.782 1.027 3.08 1.027 0.306 0 0.702-0.03 1.186-0.089 0.483-0.06 0.95-0.213 1.399-0.46 0.448-0.248 0.832-0.608 1.15-1.08 0.319-0.473 0.478-1.109 0.478-1.912v-10.02h1.912v-0.814h-6.514v0.814h1.841v9.56c0 0.638-0.048 1.15-0.142 1.54-0.095 0.39-0.242 0.69-0.442 0.903-0.201 0.212-0.438 0.354-0.708 0.424-0.272 0.071-0.585 0.107-0.939 0.107-0.614 0-1.174-0.183-1.681-0.549-0.508-0.366-0.956-0.838-1.346-1.416-0.389-0.578-0.691-1.222-0.903-1.93s-0.318-1.393-0.318-2.053v-6.586h1.911v-0.814h-6.62v0.814h1.947z" fill="#fff" stroke-width=".11121"/>
  </g>
  <g transform="matrix(3.172 0 0 -3.172 223.84 337.66)">
   <path d="m0 0c0 0.472 0.171 0.873 0.514 1.204 0.341 0.33 0.737 0.495 1.185 0.495 0.425 0 0.832-0.165 1.222-0.495 0.39-0.331 0.584-0.732 0.584-1.204 0-0.543-0.172-0.991-0.514-1.346-0.342-0.353-0.773-0.531-1.292-0.531s-0.932 0.184-1.239 0.55c-0.307 0.365-0.46 0.807-0.46 1.327m-2.018-21.668v0.814h2.372v12.392h-2.372v0.815h1.168c0.661 0 1.328 0.017 2 0.052 0.673 0.036 1.329 0.136 1.965 0.302v-13.561h2.089v-0.814z" fill="#fff" stroke-width=".11121"/>
  </g>
  <g transform="matrix(3.172 0 0 -3.172 264.98 363.04)">
   <path d="m0 0c-0.896 0-1.587-0.213-2.07-0.638-0.485-0.424-0.845-0.962-1.08-1.611-0.237-0.649-0.372-1.369-0.408-2.159-0.036-0.791-0.052-1.553-0.052-2.283 0-0.756 0.016-1.53 0.052-2.32 0.036-0.791 0.171-1.51 0.408-2.16 0.235-0.649 0.595-1.185 1.08-1.61 0.483-0.425 1.174-0.638 2.07-0.638 0.897 0 1.587 0.213 2.071 0.638 0.485 0.425 0.844 0.961 1.08 1.61 0.237 0.65 0.372 1.369 0.408 2.16 0.035 0.79 0.052 1.564 0.052 2.32 0 0.73-0.017 1.492-0.052 2.283-0.036 0.79-0.171 1.51-0.408 2.159-0.236 0.649-0.595 1.187-1.08 1.611-0.484 0.425-1.174 0.638-2.071 0.638m0 0.708c0.921 0 1.8-0.184 2.639-0.549 0.837-0.366 1.562-0.88 2.176-1.54 0.614-0.661 1.104-1.446 1.47-2.354 0.365-0.91 0.549-1.895 0.549-2.956 0-1.063-0.184-2.049-0.549-2.957-0.366-0.909-0.856-1.694-1.47-2.355s-1.339-1.18-2.176-1.558c-0.839-0.377-1.718-0.566-2.639-0.566-0.92 0-1.8 0.189-2.638 0.566-0.838 0.378-1.563 0.897-2.176 1.558-0.615 0.661-1.104 1.446-1.47 2.355-0.366 0.908-0.549 1.894-0.549 2.957 0 1.061 0.183 2.046 0.549 2.956 0.366 0.908 0.855 1.693 1.47 2.354 0.613 0.66 1.338 1.174 2.176 1.54 0.838 0.365 1.718 0.549 2.638 0.549" fill="#fff" stroke-width=".11121"/>
  </g>
  <g transform="matrix(3.172 0 0 -3.172 295.84 364.51)">
   <path d="m0 0h-1.947v0.814h1.734c0.33 0 0.661 0.024 0.991 0.072 0.33 0.023 0.661 0.058 0.993 0.105 0.33 0.047 0.66 0.107 0.991 0.178v-3.753h0.07c0.495 1.133 1.121 2.041 1.876 2.726 0.756 0.684 1.782 1.027 3.081 1.027 0.307 0 0.702-0.03 1.186-0.089 0.483-0.059 0.95-0.213 1.398-0.46 0.448-0.248 0.832-0.608 1.15-1.08 0.32-0.473 0.479-1.109 0.479-1.912v-10.02h1.912v-0.814h-6.515v0.814h1.841v9.56c0 0.638-0.047 1.15-0.141 1.54-0.095 0.39-0.243 0.69-0.443 0.903-0.201 0.212-0.437 0.354-0.708 0.424-0.271 0.071-0.585 0.107-0.938 0.107-0.614 0-1.174-0.183-1.682-0.549s-0.956-0.838-1.345-1.416-0.691-1.222-0.903-1.93-0.318-1.393-0.318-2.053v-6.586h1.911v-0.814h-6.62v0.814h1.947z" fill="#fff" stroke-width=".11121"/>
  </g>
  <g transform="matrix(3.172 0 0 -3.172 340.3 361.92)">
   <path d="m0 0h2.088v4.354c0.473 0 0.927 6e-3 1.364 0.019 0.437 0.011 0.879 0.053 1.327 0.123v-4.496h3.116v-0.814h-3.116v-10.834c0-0.165 6e-3 -0.342 0.018-0.531s0.058-0.36 0.141-0.513c0.083-0.154 0.218-0.284 0.408-0.39 0.188-0.106 0.448-0.159 0.779-0.159 0.472 0 0.85 0.136 1.133 0.407s0.566 0.572 0.849 0.903l0.567-0.389c-0.331-0.686-0.873-1.216-1.629-1.594-0.755-0.377-1.486-0.566-2.194-0.566-0.638 0-1.146 0.083-1.523 0.248-0.378 0.165-0.661 0.382-0.85 0.655-0.189 0.27-0.313 0.596-0.372 0.973s-0.088 0.779-0.088 1.204v10.586h-2.018z" fill="#fff" stroke-width=".11121"/>
  </g>
  <g transform="matrix(3.172 0 0 -3.172 370.06 364.51)">
   <path d="m0 0v0.814h6.373v-0.814h-1.877l3.435-10.161h0.07l3.576 10.161h-2.16v0.814h4.815v-0.814h-1.699l-4.886-13.666h-1.204l-4.744 13.666z" fill="#fff" stroke-width=".11121"/>
  </g>
 </g>
</svg>
