<svg version="1.1" viewBox="0 0 450 450" xmlns="http://www.w3.org/2000/svg">
 <g transform="matrix(8.5039 0 0 8.504 -158.03 -1101.4)" stroke-width=".11759">
  <g transform="matrix(.057581 0 0 .057581 -8.8266 156.67)">
   <g transform="matrix(6.4779,0,0,-6.4779,1303.2,447.35)" fill="#006fe8" stroke-width=".11121">
    <path d="m0 0h-113.52c-7.795 0-14.173 6.378-14.173 14.173v113.52c0 7.795 6.378 14.173 14.173 14.173h113.52c7.796 0 14.174-6.378 14.174-14.173v-113.52c0-7.795-6.378-14.173-14.174-14.173" fill="#006fe8" stroke-width=".11121"/>
   </g>
   <path d="m655.05 230.95h-92.053v121.03h27.047v-46.847h57.502v-24.325h-57.502v-25.665h65.006z" fill="#fff" stroke-width=".54034" style="font-variant-caps:normal;font-variant-ligatures:normal;font-variant-numeric:normal"/>
   <path d="m671.56 230.95v25.072h36.586v95.961h26.911v-95.961h36.631v-25.072z" fill="#fff" stroke-width=".54034" style="font-variant-caps:normal;font-variant-ligatures:normal;font-variant-numeric:normal"/>
   <path d="m846.45 315.33-31.6-84.388h-29.338l48.588 121.03h23.604l48.748-121.03-28.822-1e-5z" fill="#fff" stroke-width=".54034" style="font-variant-caps:normal;font-variant-ligatures:normal;font-variant-numeric:normal"/>
   <g transform="matrix(.42904 0 0 -.42943 930.4 314.9)" fill="#fff" stroke-width="1.6784">
    <path d="m0 0c0 15.252 2.007 29.3 6.021 43.749l40.136 151.72h32.11l-42.545-160.15c-2.409-8.428-4.014-19.667-4.014-31.708 0-36.524 23.681-64.218 73.45-64.218 23.279 0 44.953 8.428 62.613 25.687 14.45 14.851 27.695 37.729 35.722 68.634l43.749 161.75h31.708l-44.953-167.37c-9.633-35.722-24.483-63.416-44.15-83.083-22.878-22.878-52.579-34.919-87.498-34.919-67.029 0-102.35 37.327-102.35 89.906" fill="#fff" stroke-width="1.6784"/>
   </g>
   <g transform="matrix(.43083 0 0 -.42943 1086.5 230.97)" fill="#fff" stroke-width="1.675">
    <path d="m0 0h31.708l-33.313-124.82h160.14l33.314 124.82h32.109l-75.457-280.96h-32.11l34.117 126.43h-160.15l-34.116-126.43h-31.708z" fill="#fff" stroke-width="1.675"/>
   </g>
   <g transform="matrix(.42896 0 0 -.42943 1230.6 339.04)" fill="#fff" stroke-width="1.6786">
    <path d="m0 0c46.96 0 87.498 15.653 116 44.15 22.477 22.477 35.32 52.981 35.32 87.498 0 26.491-8.428 47.362-23.68 62.212-18.463 18.463-48.164 28.497-85.491 28.497h-41.743l-59.803-222.36zm-23.681 251.66h67.831c46.559 0 85.09-13.245 109.57-37.327 20.068-20.068 30.504-46.559 30.504-80.675 0-42.946-15.654-80.675-44.151-109.57-33.715-33.715-84.287-53.382-144.09-53.382h-95.124z" fill="#fff" stroke-width="1.6786"/>
   </g>
   <g transform="matrix(6.946,0,0,-6.946,614.66,-184.98)" fill="#fff" stroke-width=".10372">
    <path d="m0 0 46.346-46.346 46.345 46.346-22.413 22.395h-47.882zm46.346-53.857-53.858 53.857 27.706 27.707h52.284l27.726-27.706z" fill="#fff" stroke-width=".10372"/>
   </g>
   <g transform="matrix(6.946,0,0,-6.946,995.46,-160.1)" fill="#fff" stroke-width=".10372">
    <path d="m0 0v-1.693h-5.961v-25.759h5.961v-1.693h-17.369v1.693h5.667v25.759h-5.667v1.693h5.667v3.606c0 12.585 5.225 17.884 12.292 17.884 2.87 0 6.181-1.325 6.181-4.784 0-1.472-1.471-2.429-2.722-2.429-1.987 0-3.019 1.399-3.019 3.387 0 0.809 0.589 0.882 0.589 1.838 0 0.369-1.251 0.442-1.766 0.442-3.533 0-5.814-4.268-5.814-11.627v-8.317z" fill="#fff" stroke-width=".10372"/>
   </g>
   <g transform="matrix(6.946,0,0,-6.946,1082.5,-154.99)" fill="#fff" stroke-width=".10372">
    <path d="m0 0c0-1.47-1.191-2.661-2.662-2.661-1.47 0-2.661 1.191-2.661 2.661s1.191 2.662 2.661 2.662c1.471 0 2.662-1.192 2.662-2.662" fill="#fff" stroke-width=".10372"/>
   </g>
  </g>
 </g>
</svg>
