<svg width="800.013" height="450.028" viewBox="0 0 750 421.91" xmlns="http://www.w3.org/2000/svg">
    <path d="M-.001 421.915h750.007V-.004H0z" fill="#0657a8"/>
    <g fill="#fff">
        <path d="M247.292 105.528h-140.18V316.48h46.735v-83.229h82.157v-41.69h-82.157v-44.343h96.47v-41.69zM414.809 105.528H274.628V316.48h143.247v-41.69h-96.511v-43.794h82.184v-41.69h-82.184v-42.088h96.511v-41.69zM639.814 105.528h-41.965s-47.259 96.827-52.195 106.892c-4.923-10.065-52.47-106.892-52.47-106.892h-44.99V316.48h46.75V206.563c8.428 16.348 35.117 68.186 35.117 68.186h31.226s26.414-51.631 34.857-68.145V316.48h46.736V105.528z"/>
    </g>
</svg>
