<svg xmlns="http://www.w3.org/2000/svg" height="600" width="600" version="1.1" viewBox="0 0 158.75 158.75">
 <path stroke-width=".26520" fill="#cd3a95" d="m83.02 0.0015501c-0.59-0.0049999-1.19 0.0099999-1.79 0.007-27.08 0.0029999-54.15 0-81.23 0v158.74h85.29c-0.88-0.59999-1.94-0.79998-2.98-0.97998-8.9-2.34-17.39-6.54-24.24-12.73-1.01-1.02-2.03-2.04-3.05-3.0499-1.31-1.42-2.42-3.01-3.59-4.5399-5.07-7.34-7.85-16.28-7.55-25.2 13.85-0.01 27.7 0 41.55 0 0.11 2.34 0.53 4.7099 1.55 6.84 3.38 6.05 10.92 8.8299 17.59 7.9199 4.01-0.55999 8-2.22 10.78-5.2299 1.9-2.15 2.9-4.97 3.13-7.7999 0.08-2.68 0.15-5.51-1.14-7.9399-1.02-2.42-2.64-4.5499-4.67-6.2-0.71-0.48-1.48-0.84999-2.19-1.33-0.13-0.02-0.39-0.06-0.52-0.08-0.12-0.13-0.36-0.39999-0.48-0.54 0.31-1.15 0.2-2.34 0.21-3.5099v-23.33c-0.01-3.3099 0.05-6.62-0.09-9.9299-0.05-0.1-0.16-0.29999-0.22-0.40999 0.06-0.12 0.17-0.37999 0.22-0.50999 1.27-0.29999 2.32-1.1 3.41-1.77 2.94-2.6899 5.16-6.398 5.47-10.422 0.01-1.518 0.12-3.0539-0.15-4.5589-0.38-3.5289-2.41-6.83-5.35-8.8199-1.05-0.625-2.06-1.351-3.21-1.806-2.1-0.702-4.25-1.526-6.51-1.426-1.49 0.061-3-0.129-4.48 0.165-3.94 0.673-7.72 2.567-10.35 5.608-1.3 1.696-2.31 3.6579-2.65 5.786-0.15 1.11-0.31 2.223-0.35 3.3429-13.85-0.005-27.7 0-41.55-0.002-0.08-2.626 0.03-5.2479 0.49-7.834 0.4-1.507 0.55-3.0649 0.96-4.5699 0.81-2.4 1.57-4.8239 2.71-7.095 0.73-1.221 1.26-2.551 2.07-3.7249 1.27-1.825 2.39-3.7669 3.91-5.405 1.25-1.324 2.27-2.8739 3.76-3.9569 5.8-5.4301 12.97-9.2831 20.48-11.815 1.79-0.546 3.56-1.113 5.37-1.587 0.39-0.061 0.78-0.127 1.18-0.199-0.59-0.080001-1.19-0.105-1.79-0.11zm-7.5 60.28c1.47 0.03 2.93 0.49999 4.23 1.21 0.61 0.59 1.31 1.15 1.67 1.95 0.45 0.86999 0.57 1.85 0.83 2.7799 0.23 1.29 0.66 2.54 0.79 3.8499 0.12 0.39999 0.21 0.81999 0.32 1.23 0.08 0.32999 0.16 0.67 0.26 1.01 0.17 1.28 0.46 2.52 0.85 3.7499 0.29 2.48 1.07 4.8599 1.52 7.31 0.09 0.31 0.18 0.62 0.27 0.93999 0.13 0.48999 0.12 1.01 0.14 1.52l0.37-0.01c0.06-0.22 0.18-0.66 0.25-0.87999 0.67-2.7899 1.24-5.6 2.06-8.3399 0.02-0.2 0.05-0.59 0.06-0.77999 1.08-3.8899 1.84-7.85 2.95-11.74 0.66-1.74 2.18-3.0999 4.02-3.4999 1.19-0.2 2.45-0.48999 3.63-0.1 1.07-0.07 1.91 0.64 2.85 1.02 1.08 0.89999 2.02 1.99 2.4 3.3899 0.15 0.63 0.39 1.26 0.38 1.92 0 10.18-0.02 20.35 0.01 30.529-0.84 0.37999-1.77 0.2-2.66 0.24-1.12-0.05-2.27 0.14-3.36-0.18-0.08 0.05-0.23 0.15-0.31 0.21-0.36-0.15-1.15 0.17-1.17-0.36999 0.11-8.3699 0.02-16.74 0.05-25.11-0.11-0.1-0.34-0.3-0.45-0.39999-0.02 0.24-0.04 0.72-0.06 0.95999-0.12 0.35999-0.18 0.73-0.23 1.1-0.21 0.67-0.4 1.34-0.56 2.02-0.44 1.94-1.05 3.8399-1.47 5.78-0.34 1.12-0.56 2.28-0.94 3.3899-0.52 2.08-1.04 4.1699-1.56 6.25-0.12 0.42-0.23 0.84-0.35 1.26-0.25 1.38-0.85 2.63-1.47 3.8799-0.58 0.65-1.22 1.27-2.06 1.57-0.98 0.48-2.1 0.25-3.15 0.29-1.75-0.51-3.05-1.98-3.63-3.67-0.69-2.03-1-4.16-1.69-6.1901-0.02-0.15-0.05-0.46-0.07-0.61001-0.55-2.03-1.03-4.08-1.61-6.1101-0.7-3.1099-1.71-6.16-2.23-9.2999-0.1-0.1-0.32-0.3-0.42-0.39999-0.01 8.4699-0.01 16.94 0 25.42-0.67 0.25-1.39 0.24-2.08 0.09-1.65 0.22-3.32 0.07-4.97 0.12-0.1-0.08-0.3-0.26-0.4-0.34999v-31.219c-0.01-0.89999 0.49-1.7 0.88-2.48 0.85-1.77 2.75-2.8199 4.64-3.1199 0.49-0.09 0.98-0.13 1.47-0.13zm-26.82 0.47h0.42c5.29 0.04 10.58-0.04 15.87 0.04 0.08 0.06 0.26 0.18 0.34 0.23 0.08 2.54 0.01 5.0799 0.03 7.62-4.83 0-9.67 0.01-14.5 0-0.44 0.26-0.87 0.52-1.31 0.77999-0.73 1.73-0.43 3.6199-0.5 5.44l0.37 0.36999c5.31-0.06 10.63 0.09 15.94-0.08-0.02 2.53 0.05 5.0599-0.03 7.59-0.36 0.78-1.27 0.05-1.89 0.14-4.72-0.03-9.44 0.01-14.16-0.02-0.14 0.36999-0.25 0.76-0.23 1.16 0.03 1.47-0.16 2.9899 0.41 4.3799 0.23 0.73 1.06 1.11 1.78 1.03 4.59-0.01 9.17 0.01 13.75-0.01 0.1 0.09 0.29 0.27 0.38 0.36999-0.01 2.52-0.01 5.0499 0 7.58-0.45 0.12-0.91 0.22-1.38 0.21-4.26-0.01-8.52-0.01-12.77 0-0.55 0.01-1.09-0.07-1.62-0.18-0.89-0.17-1.83 0.07-2.71-0.23-0.35-0.12-0.72-0.24-1.08-0.34999-2.56-0.73-4.34-3.2699-4.43-5.89 0.02-7.86 0.01-15.73 0-23.6 0.06-0.79 0.34-1.54 0.63-2.27 0.37-1.43 1.58-2.38 2.62-3.3299 0.43-0.13 0.85-0.28999 1.26-0.45999 0.93-0.19 1.86-0.49 2.81-0.52zm-26.39 0.01h16.58v7.88h-13.4c-0.76-0.04-1.45 0.34999-2.09 0.72-0.18 0.35999-0.38 0.73-0.58 1.09 0.09 1.59-0.26 3.2499 0.24 4.7899 5.27-0.03 10.55-0.01 15.83-0.01 0 2.53-0.02 5.0599 0.01 7.59-0.71 0.46-1.5-0.01-2.26 0.05h-13.64c-0.09 0.37999-0.19 0.76999-0.19 1.17-0.01 4.0599 0.03 8.1299 0.01 12.19 0 0.44999-0.02 0.89999-0.19 1.31-0.42-0.04-0.83-0.08-1.24-0.11-2 0.35999-4.05 0.01-6.06 0.11-0.1-0.08-0.31-0.23-0.41-0.3 0.02-9.6999 0-19.4 0.01-29.089 0.21-1.68 0.3-3.5099 1.4-4.8899 0.77-1.38 2.35-1.92 3.81-2.22 0.72-0.07 1.43-0.28999 2.17-0.28z"/>
 <path stroke-width=".26520" fill="#cd3a95" d="m157.9 61.992c0.15-0.55 0.5-1.01 0.85-1.46v36.119c-0.84-1.02-1.33-2.26-2.05-3.3599-1.45-2.22-3.03-4.3999-4.97-6.23-2.93-3.0599-6.53-5.3599-10.05-7.69 2.35-1.52 4.69-3.0499 6.89-4.7799 1.58-1.1 2.81-2.61 4.21-3.9299 2.15-2.59 4.04-5.4599 5.12-8.6699z"/>
</svg>
