<svg width="200mm" height="288.008" viewBox="0 0 200 76.202" xmlns="http://www.w3.org/2000/svg" xmlns:xlink="http://www.w3.org/1999/xlink">
    <defs>
        <linearGradient id="b" x1="-765.71" x2="202.86" y1="699.66" y2="696.81" gradientTransform="translate(-281.81 -58.005) scale(.16678)" gradientUnits="userSpaceOnUse" xlink:href="#a"/>
        <linearGradient id="a">
            <stop stop-color="#5f4f95" offset="0"/>
            <stop stop-color="#bd0479" offset="1"/>
        </linearGradient>
    </defs>
    <g paint-order="stroke markers fill">
        <path d="M-402.56 97.772c-.935-.688-1.936-1.669-2.097-2.054-.153-.364-.425-2.271-.627-4.395-.101-1.058-.087-1.282.463-7.088.072-.754.205-2.228.297-3.276.311-3.548.422-4.525.59-5.182.091-.36.248-1.03.348-1.49.407-1.863.686-3.137.848-3.871.094-.426.29-1.459.434-2.295.298-1.718.258-1.898-.368-1.64-.302.126-.408.122-.632-.024-.304-.199-1.027-.333-1.105-.206-.078.125-1.333-.193-1.692-.428-.758-.497-1.396-1.217-1.736-1.96-.51-1.116-.911-2.344-.994-3.046-.065-.553-.047-.617.181-.677.176-.046.253-.16.253-.378 0-.312 0-.312.377-.117.207.107.569.196.804.199.792.007 1.817-.182 1.88-.346.045-.117.328-.161 1.032-.162.62-.001 1.233-.085 1.701-.231a9.433 9.433 0 0 1 1.456-.312c.516-.058.742-.137.783-.275.032-.106.331-1.56.664-3.231.664-3.332 1.06-5.155 1.438-6.612.259-.996.725-2.913.956-3.93.22-.967 2.862-9.132 3.779-11.675 1.63-4.523 3.444-8.115 4.854-9.61 1.51-1.602 1.886-1.775 2.677-1.227.314.218.68.33 1.32.401 1.048.118 1.67.407 2.725 1.27 1.702 1.392 2.112 1.85 2.709 3.031.469.926.653 1.175 1.019 1.37.323.173.478.353.56.655.064.23.25.84.415 1.357.357 1.12.383 1.597.092 1.708-.291.11-.4.234-.902 1.019-.389.608-.468.674-.677.562-.176-.094-.303-.083-.505.047-.324.21-.938.126-.845-.114.043-.112-.106-.205-.482-.3-.66-.165-.994-.482-1.486-1.406-.402-.754-.463-1.179-.226-1.58.094-.158.105-.27.03-.298a8.486 8.486 0 0 1-.594-.315c-.376-.213-.49-.356-.543-.687-.172-1.06-.673-.953-1.455.31-.425.686-1.566 3.298-2.24 5.127-.316.858-.986 2.52-1.49 3.693s-1.1 2.644-1.326 3.266c-.543 1.495-1.571 5.085-2.114 7.386-.669 2.831-.88 3.634-1.354 5.174-.37 1.195-.491 1.451-.766 1.608-.362.207-.402.37-.18.728.126.202.107.313-.119.707-.147.257-.268.546-.268.644 0 .429 1.362.457 3.574.073.825-.143 2.472-.305 3.693-.363 2.193-.104 3.558-.254 3.824-.418.077-.048 1.03-.107 2.119-.13 1.088-.024 2.04-.066 2.115-.094.074-.027.367-.484.65-1.015a16.83 16.83 0 0 1 1.162-1.826 26.04 26.04 0 0 0 .947-1.335c.165-.263.707-.924 1.203-1.47.777-.854 1.045-1.06 1.914-1.476.557-.265 1.21-.642 1.452-.837l.441-.354.872.393c.48.215.922.435.983.487.06.052.142.324.181.604l.07.508.484-.03c.68-.041.966.293 1.102 1.281.097.71.143.797.669 1.253.564.49.564.49.51 1.137-.133 1.578-.976 4.934-1.434 5.71-1.262 2.141-3.035 4.365-6.263 7.853-2.05 2.216-2.395 2.772-2.012 3.245.235.29.928.769 1.596 1.104.495.248.784.307 1.504.307.51 0 1.114-.08 1.412-.187.35-.126.709-.163 1.091-.115.482.062.895-.03 2.676-.592 1.978-.625 2.762-.756 2.848-.476.02.066-.257.3-.616.522-.36.22-.653.471-.653.555 0 .085.127.252.283.372l.282.219-.342.744c-.302.655-.383.745-.677.745-.184 0-.42.067-.525.149-.291.227-.671 1.023-.755 1.582-.067.445-.122.514-.51.64-.24.077-.825.173-1.3.212-.506.042-.864.127-.865.204-.002.128-1.023.568-1.706.735-.185.045-.365.156-.4.246-.088.23-.523.203-1.228-.075-.733-.29-1.763-.322-1.863-.06-.104.27-.223.22-.526-.223-.206-.3-.444-.455-.939-.61-1.075-.337-1.463-.586-2.655-1.709-.622-.585-1.24-1.123-1.374-1.195-.582-.311-1.585-5.024-1.396-6.563.105-.856.808-3.612 1.197-4.69.494-1.372.487-1.294.096-1.204-.189.044-.799.24-1.356.436-.556.196-1.28.426-1.608.512-.327.086-1.024.273-1.548.415-1.41.383-3.432.85-5.659 1.307-.75.154-3.916.94-4.348 1.08-.684.22-.959.89-1.714 4.165l-.429 1.846c-.235 1-.597 2.843-.89 4.527-.138.786-.326 1.859-.42 2.383a344.05 344.05 0 0 0-.551 3.276c-.21 1.277-.399 2.344-.42 2.37-.02.025-.12-.023-.222-.107-.101-.084-.199-.132-.217-.106-.404.58-.671 3.035-.674 6.193-.003 2.357.008 2.462.252 2.68.476.424.606.943.513 2.05-.075.91-.064 1.006.11.94.14-.054.195-.008.195.163 0 .131.08.27.178.307.256.098.223.407-.136 1.304-.298.745-.333.783-.644.721-.225-.045-.35-.01-.396.108-.094.244-.183.219-.79-.227zm26.529-34.573c.222-.169.535-.517.697-.773.161-.256.646-.742 1.077-1.08.584-.46.853-.771 1.056-1.223.15-.334.437-.761.638-.95.24-.226.392-.509.447-.834.045-.27.24-.805.432-1.188.332-.66.34-.709.148-.92-.255-.283-1.36-.84-1.497-.755-.056.034-.102.14-.102.234s-.331.506-.736.916c-.799.81-1.617 1.985-1.718 2.467-.035.167-.149.46-.253.65-.207.38-.7 2.297-.821 3.197-.091.67.028.72.632.259zM-356.38 79.746c-.045-.045-.389-.118-.764-.163-.544-.065-.865-.203-1.577-.677-.491-.328-.995-.71-1.12-.85-.125-.14-.3-.253-.39-.253-.3 0-1.894-1.718-2.648-2.853-1.512-2.28-2.417-4.543-2.432-6.082-.013-1.448.92-3.955 1.557-4.184.23-.083.268-.057.268.19 0 .157-.052.423-.115.59-.148.388-.065.598.3.765.244.11.292.217.292.647 0 .283.063.578.14.655.106.107.106.212-.001.447-.097.213-.103.377-.02.532.065.123.12.393.12.601 0 .24.13.542.356.83.246.309.358.583.358.873 0 .525.144.623.537.365.29-.19.315-.188.479.025.095.124.332.724.526 1.333.4 1.26.705 1.814 1.163 2.114.318.208.318.208.711-.256.454-.535 1.405-2.699 1.724-3.919.536-2.055.74-4.415.763-8.815.019-3.533.053-4.286.228-4.933.165-.613.19-1.013.125-2.025a9.89 9.89 0 0 1 .108-2.422c.103-.638.188-1.496.189-1.906.003-1.797.443-4.097.998-5.21.323-.647.691-.82 1.348-.629.249.072.83.182 1.293.245 1.124.151 2.309.743 3.934 1.965 1.138.855 1.305 1.026 1.338 1.365.022.223.186.55.386.77.505.553.773 1.432.605 1.984-.072.237-.15 1.21-.173 2.16-.051 2.093-.251 2.867-.832 3.22-.519.317-1.326.302-1.922-.036-.427-.243-.471-.314-.496-.802-.079-1.539-.137-1.706-.74-2.118-.673-.459-1.067-.499-1.144-.116-.18.895-.16 1.204.178 2.873.365 1.796.366 1.811.246 3.828a92.823 92.823 0 0 0-.115 4.646c.005 2.48-.121 4.425-.383 5.897-.064.36-.249 1.489-.41 2.508-.479 3.008-1.133 4.657-2.318 5.843-.521.52-.832.726-1.32.87-.673.2-1.214.244-1.35.108zM-341.32 76.521c-.126-.246-.478-.715-.781-1.042-.777-.838-1.107-1.533-1.25-2.636-.066-.516-.186-1.377-.266-1.914-.118-.786-.115-1.322.014-2.74.088-.97.172-2.315.187-2.988l.027-1.223-.946-1.397c-.927-1.369-.945-1.41-.887-1.993.131-1.325.343-2.394.51-2.58.306-.34.87-.52 1.126-.359.337.21.51.171.845-.188.438-.47.808-1.74 1.273-4.378l.493-2.8c.64-3.643 1.12-5.658 2.14-8.994a114.065 114.065 0 0 0 1.506-5.301c.16-.622.58-2.043.931-3.157.352-1.114.73-2.427.841-2.918.355-1.574 1.092-2.44 2.207-2.59.465-.061.525-.034.948.428.337.37.542.494.81.494.316 0 .366.049.438.432.045.238.313.895.596 1.46.283.564.551 1.197.595 1.406.084.394-.294 2.058-.609 2.685-.122.243-.134.45-.048.834.123.544.102.648-.611 3.01-.785 2.604-2.79 9.015-3.019 9.65-.094.262-.28 1.04-.414 1.727a75.68 75.68 0 0 1-.732 3.183c-.267 1.063-.453 2.02-.412 2.128.067.173.24.186 1.504.11 1.019-.062 1.428-.048 1.428.046 0 .19.37.164 1.41-.097 1.066-.269 3.996-.676 5.618-.782 1.701-.11 1.714-.115 2.068-.766.172-.316.38-.626.463-.69.259-.199 1.82-.429 2.302-.339 1.177.221 2.8 1.506 3.264 2.585.281.654.278.71-.094 2.085-.126.467-.346 1.566-.488 2.442-.347 2.13-.666 3.443-1.03 4.242-.167.363-.403 1.122-.526 1.685-.235 1.085-.354 1.512-.944 3.392-.203.647-.369 1.324-.369 1.504 0 .593.144 1.073.322 1.073.261 0 1.858-.88 3.138-1.728 1.107-.734 2.964-2.18 4.045-3.149.295-.264.582-.481.638-.482.056-.001.083.637.06 1.417-.037 1.247-.075 1.464-.31 1.783-.33.446-.336.572-.03.67.338.107.3.234-.239.82-.361.392-.476.614-.476.923 0 .36-.082.466-.734.94-.403.293-1.18.966-1.727 1.495-.832.805-.994 1.023-.994 1.337 0 .438-.19.59-1.318 1.051-.918.375-2.522.513-3.4.293-1.85-.466-3.85-2.791-4.733-5.501-.777-2.382-.708-4.363.282-8.149.833-3.185 1.045-4.11.955-4.166-.049-.03-.366.292-.706.716-.586.732-.964.945-1.147.649-.109-.176-.297-.022-.297.242 0 .167-.116.247-.446.307-.421.077-1.97.58-3.521 1.142-.381.138-.668.31-.64.383.032.083-.132.132-.445.132-.272 0-.708.087-.967.195-.26.107-.853.34-1.318.517-.601.23-.9.418-1.04.654-.108.182-.478.47-.823.639-1.128.553-1.407.87-1.597 1.81-1.069 5.304-1.131 6.085-.636 7.95.308 1.156.295 1.348-.122 1.875-.197.248-.357.511-.357.586 0 .172-.51.367-.959.367-.28 0-.39-.085-.576-.447zM-317.56 45.915c-.604-.165-1.733-.78-1.858-1.012-.076-.143-.289-.386-.473-.541a3.324 3.324 0 0 1-.572-.665c-.467-.756-1.097-2.518-1.158-3.237a20.709 20.709 0 0 0-.111-1.046l-.051-.328h1.103c.606 0 1.369-.075 1.694-.168l1.295-.365.702-.198.587.574c.736.719.927 1.078.927 1.746 0 .335.08.628.218.798.194.24.2.32.064.718-.129.373-.125.63.02 1.533.154.95.155 1.135.003 1.5-.098.234-.302.464-.467.527-.375.143-1.613.248-1.923.164zM-305.84 78.405c-1.388-.427-3.266-2.578-4.047-4.635-.151-.397-.254-1.199-.346-2.704-.072-1.176-.21-3.184-.308-4.462-.194-2.553-.48-6.71-.601-8.756-.106-1.776-.462-3.87-.755-4.444-.132-.26-.277-.826-.321-1.26l-.08-.788.403-.018c1.83-.083 1.92-.06 3.207.803 1.038.697 1.692 1.4 1.933 2.08.42 1.183.803 2.614.803 2.999 0 .999 1.119 6.953 1.389 7.39.035.056.576-.664 1.202-1.602 2.636-3.947 4.48-6.297 7.156-9.123 1.88-1.985 3.05-3.073 3.628-3.379.146-.077.533-.413.86-.747.396-.403 1.018-.827 1.847-1.262 1.508-.79 1.485-.784 1.86-.538l.301.197-.31.287c-.23.213-.29.36-.236.574.04.158.014.324-.057.367-.226.14-.14.311.236.469l.364.153-.513.632c-.282.348-.608.754-.723.902-.116.148-.256.514-.312.813-.082.439-.268.729-.965 1.502-.708.785-.838.989-.72 1.13.116.14-.01.426-.666 1.518a52.175 52.175 0 0 1-1.53 2.38c-.396.57-.861 1.24-1.033 1.49-.374.54-3.932 6.541-4.557 7.685a13.01 13.01 0 0 1-.874 1.37c-.397.52-2.142 4.086-2.348 4.8-.048.164-.237.593-.421.953s-.48 1.084-.658 1.608c-.178.525-.404 1.045-.504 1.157-.325.365-1.711.642-2.304.46zM-259.73 78.333c-1.699-.66-2.218-.929-3.04-1.582-.795-.63-2.061-2.283-2.641-3.446-.237-.475-.451-.864-.476-.864s-.393.278-.816.617c-.753.604-.902.836-.64.998.072.045-.176.252-.566.47-.383.214-1.259.744-1.947 1.177l-1.25.787h-1.688c-2.039.002-2.385-.114-3.52-1.175-.907-.849-1.684-1.966-2.385-3.426-.495-1.03-.507-1.086-.616-2.81-.06-.968-.15-1.76-.198-1.76-.048 0-.861 1.167-1.807 2.594-.946 1.426-2.13 3.082-2.63 3.679-1.498 1.784-2.987 3.019-3.641 3.019-.163 0-.614.089-1 .197-.587.165-.825.176-1.422.065-.977-.182-1.352-.408-2.473-1.489-.896-.864-.984-.993-1.256-1.846-.346-1.084-.352-1.196-.113-2.351.506-2.453 1.97-5.836 4.225-9.765 2.39-4.165 4.111-6.38 5.96-7.667.955-.664 2.02-1.73 2.02-2.02 0-.186.114-.28.448-.373.245-.068.542-.124.66-.125.116 0 .447-.242.733-.536.287-.295.607-.536.713-.536.106 0 .392.128.636.284.267.17.715.314 1.121.358.64.069.69.055.911-.257.13-.18.254-.462.276-.625.034-.238.12-.304.438-.335.32-.03.41.01.462.211.057.221.126.24.616.177.636-.084 1.52.2 2.436.78.615.39.757.653.931 1.724.125.765.01 1.342-.734 3.698-.891 2.823-1.503 5.875-2.206 11.001-.234 1.711-.338 4.272-.211 5.201l.097.715.522.037c.287.02.933-.046 1.436-.148.956-.193 1.365-.343 4.147-1.518 1.915-.809 1.831-.696 1.496-2.004-.153-.598-.197-1.305-.193-3.098.007-3.225.268-4.887 1.587-10.126 1.282-5.09 1.228-4.9 1.531-5.32.145-.2.344-.848.49-1.589.717-3.665 1.34-5.724 3.825-12.627.082-.23.325-.649.54-.932.215-.283.482-.765.595-1.072.513-1.397.8-2.037 1.243-2.77.308-.508.522-1.046.604-1.51.103-.582.177-.736.385-.791.488-.131.759-.071 1.281.283.372.252.669.355 1.022.357.497.002.498.003.878.806.583 1.235.613 1.334.71 2.353.076.82.051 1.07-.179 1.787-.407 1.268-2.168 6.946-2.864 9.232a437.941 437.941 0 0 0-.83 2.74c-.125.426-2.036 6.59-2.436 7.863-.052.163-.337.967-.635 1.786-.575 1.585-.86 2.681-1.27 4.885-.14.753-.357 1.906-.48 2.56-.512 2.72-.615 3.794-.576 6.053l.037 2.206.364.457c.667.836 2.055 1.267 2.572.799.187-.17.285-.175.746-.046.493.137.614.12 1.7-.244.644-.215 1.365-.543 1.604-.728.484-.375.6-.399.928-.194.245.153.174.19 2.144-1.135.47-.317.931-.547 1.024-.511.092.035.195.02.228-.034s.263-.132.51-.173c.248-.04.74-.21 1.093-.375.353-.166.67-.275.702-.242.088.088-.553 1.018-.754 1.096-.25.095-.077.302.184.22.376-.12.433.382.085.755-.534.573-.76 1.363-.422 1.475.155.052.129.125-.356.976-.281.495-.497.68-1.395 1.19-.583.332-1.385.904-1.78 1.272-.873.812-1.028.897-2.387 1.31-.942.286-1.103.305-1.332.16-.218-.138-.308-.139-.57-.003-.187.097-.514.138-.826.102-.313-.035-.55-.005-.599.075-.123.199-.246.17-1.736-.408zm-24.854-12.227c.44-.602 1.161-1.73 1.6-2.505.44-.777 1.315-2.308 1.947-3.403 1.077-1.87 1.136-2.006.954-2.211-.185-.21-.21-.2-.58.238-1.03 1.215-3.353 4.975-4.7 7.607-.432.843-.483 1.013-.347 1.177.087.105.196.191.242.191s.443-.492.884-1.094z" fill="url(#b)" opacity=".99" transform="translate(408.86 -21.952)"/>
        <path d="M170.71 49.529c0-.206-.032-.22-.229-.097-.18.114-.27.11-.425-.02-.159-.132-.188-.327-.149-1.006a12.8 12.8 0 0 1 .183-1.497c.074-.36.194-1.03.267-1.489.073-.459.26-1.45.418-2.204.472-2.27.671-3.6.557-3.714-.063-.063-.75-.055-1.666.02-1.641.132-3.141.035-4-.259-.402-.137-.521-.276-.959-1.11a44.33 44.33 0 0 0-.834-1.52 6.097 6.097 0 0 1-.495-1.1c-.152-.504-.145-.551.116-.862.387-.462 1.832-2.705 3.282-5.095 1.68-2.768 2.716-4.855 4.128-8.312.767-1.876 1.377-2.945 1.68-2.945.538 0 1.78 2.37 1.95 3.719.1.799.09.85-.292 1.561-.419.78-1.647 3.51-1.805 4.011-.192.61-1.989 4.048-2.98 5.702-.563.941-1.002 1.733-.975 1.76.058.058 3.395-.179 3.666-.26.222-.067.531-1.61.7-3.49.067-.756.175-1.309.28-1.43.094-.108.202-.402.24-.654.08-.518.264-.793.532-.793.233 0 .886.487 1.587 1.183.988.982.984.97.887 2.947l-.087 1.74.637-.084c.35-.047 1.086-.136 1.635-.199.55-.063 1.046-.142 1.102-.177.057-.035.103-.008.103.06 0 .07.187.204.417.3.229.095.417.253.417.35 0 .355-.23.77-.47.846-.327.104-.313.391.023.45.258.044.255.051-.06.183-.406.17-.41.238-.022.385.398.151.247.4-.19.312-.228-.046-.353-.012-.399.107-.051.134.041.174.406.174.453 0 .577.093.384.288-.05.05-.09.204-.09.342 0 .181-.1.277-.357.34-.196.05-.813.229-1.37.399s-1.428.342-1.936.381c-.508.04-.969.131-1.025.203-.057.072-.196.56-.31 1.084-.414 1.89-.543 2.343-.719 2.519-.194.194-.247.389-.35 1.281-.038.321-.12.647-.183.723-.064.077-.15.457-.19.846a9.22 9.22 0 0 1-.294 1.422c-.12.393-.313 1.163-.43 1.71-.119.555-.284 1.024-.373 1.058-.185.072-.649-.377-.526-.508.045-.049-.045-.022-.201.059-.204.106-.306.11-.365.016-.05-.082-.18.003-.346.226-.306.414-.495.46-.495.118zM183.04 48.585c-.262-.045-.59-.143-.728-.219-.404-.22-.944-.902-1.311-1.653-.325-.664-.341-.775-.339-2.306.003-1.706.176-2.702.89-5.122.713-2.416.705-2.374.523-2.556a.688.688 0 0 1-.167-.425.317.317 0 0 0-.23-.318c-.18-.047-.21-.117-.137-.317.052-.14.07-.447.042-.68-.056-.45-.046-.458 1.24-.952.471-.181 1.012-1.756 1.527-4.451.175-.912.441-2.091.593-2.621.152-.53.312-1.15.358-1.38.045-.229.13-.577.188-.774.06-.197.223-1 .364-1.787.142-.786.3-1.476.351-1.534.052-.057.233-.104.403-.104s.338-.047.373-.104c.097-.157.883-.122 1.42.064.425.146.512.247.795.918.298.706.314.835.254 2.067-.035.723-.162 1.716-.282 2.207-.12.492-.408 1.644-.64 2.561-.23.918-.42 1.734-.422 1.814-.002.089.22.017.564-.183a40.72 40.72 0 0 1 1.876-.971c.72-.353 1.846-.935 2.502-1.293a92.674 92.674 0 0 1 2.025-1.074c.458-.233.968-.52 1.131-.638.242-.174.484-.208 1.271-.178.926.034 1 .058 1.524.488.69.565.903.887.983 1.487.087.648-.262.95-1.657 1.437-1.194.417-2.66 1.12-3.642 1.748-.346.221-1.15.664-1.787.985-1.352.68-5.8 3.126-6.192 3.406-.147.105-.268.24-.268.3s.63.524 1.4 1.03c.77.508 1.882 1.277 2.472 1.71.59.434 1.41.986 1.823 1.227 1.549.906 3.793 2.912 4.896 4.374.597.794 1.203 1.99 1.203 2.379 0 .205-.893.398-1.166.252-.137-.073-.444-.133-.683-.133-.404 0-.567-.133-2.242-1.827-.993-1.005-2.181-2.125-2.64-2.488-1.437-1.139-5.506-3.8-5.855-3.83-.273-.023-.582.673-1.001 2.249-.622 2.336-.818 3.398-.823 4.448-.004.818.037 1.048.234 1.297.288.366.293.486.046 1.102-.201.503-.222.51-1.059.368zM167.32 55.747c-1.235-.832-1.352-1.009-1.394-2.104l-.035-.948.357-.17a14.82 14.82 0 0 0 1.137-.672l.78-.5 3.449-.08c1.897-.044 4.897-.14 6.666-.214 2.496-.104 3.59-.1 4.884.014.917.081 2.338.19 3.157.242 1.699.109 5 .502 6.53.778.569.103 1.62.29 2.335.417 1.456.257 1.691.38 1.305.689-.34.272-.463.95-.22 1.218.167.184.155.22-.131.408-.23.15-.28.242-.183.338.23.23.15.263-.682.272-.447.004-1.066.079-1.374.165-.585.164-1.27.134-6.686-.294-1.358-.107-2.07-.12-2.167-.04-.089.073-1.66.129-4.07.145-2.81.019-3.974.066-4.096.167-.152.126-2.71.323-7.537.58l-1.31.07z" fill="#5d5096" opacity=".99"/>
    </g>
</svg>
