<svg xmlns="http://www.w3.org/2000/svg" height="86.16mm" width="639.987" viewBox="0 0 600.012 305.293">
    <path d="M295.65-.003v270.6l304.36 34.7-33.76-305.3-270.6-.002z" fill="#e30a13"/>
    <g fill="#fff">
        <g fill-rule="evenodd">
            <path d="M49.905 180.06v-38.37H37.824v-15.63h12.081V89.828H103.2v15.622H66.956v20.61h29.131v15.63H66.956v38.37H49.905zM111.01 89.104h18.48v90.956h-18.48V89.104zM200.54 180.06H137.3V89.106h17.77v75.324h30.54v-12.08l14.93-.71v28.42zM282.97 180.06h-14.93v-58.97l-22.75 19.89-22.73-19.89.71 58.97h-15.63V89.106l37.65 33.404 37.68-33.404v90.954zM516.68 148.1l-18 31.82h-19.83l28.96-45.64-28.17-44.354h19.83l17.21 31.314 17.48-31.314h19.82l-27.91 44.354 28.69 45.64h-19.82l-18.26-31.82zM351.14 140.4h-14.88v24h14.88v15.92h-31.56V140.4h-12.31l.04-14.33h12.27l-.02-36.533h31.58v15.913h-14.88v20.62h14.88v14.33zm.52 0h-.52v-14.33h.52c5.74 0 10.96-5.24 10.96-10.44 0-6-5.48-10.18-10.96-10.18h-.52V89.537h.52c22.17 0 27.91 17.743 27.91 25.833 0 4.17-1.56 11.73-9.39 16.69 8.36 2.35 14.36 10.69 14.36 21.13 0 6.25-5.49 27.13-32.62 27.13h-.78V164.4h.52c8.88 0 14.35-5.73 14.35-11.73 0-5.74-4.18-12.27-14.35-12.27"/>
            <path d="M438.32 164.15c-16.18 0-29.22-13.05-29.22-29.22 0-16.18 13.04-29.22 29.22-29.22V87.977h-.52c-25.82 0-46.96 20.863-46.96 46.953 0 25.82 21.14 46.95 46.96 46.95h.52v-17.73zv17.73c25.83-.26 46.69-21.13 46.69-46.95 0-25.83-20.86-46.704-46.69-46.953v17.733c16.18 0 29.22 13.04 29.22 29.22 0 16.17-13.04 29.22-29.22 29.22"/>
        </g>
        <path d="M42.171 253.95v5.03H0v-64.04h41.623v5.03H5.206v22.33h29.368v4.85H5.206v26.8h36.965zM77.94 229.62c-.087 0-2.291 3.38-4.11 5.94l-18.034 23.42h-6.489l25.345-33.39-23.24-30.65h6.489l15.929 20.95c.91 1.47 4.023 5.95 4.11 5.95h.088c.099 0 3.113-4.48 4.122-5.95l15.83-20.95h6.49l-23.142 30.65 25.332 33.39h-6.49l-18.02-23.42c-1.918-2.56-4.023-5.94-4.122-5.94h-.088zM159.73 194.94v5.03h-21.96v59.01h-5.31v-59.01h-21.85v-5.03h49.12zM189.55 229.62c11.62 0 17.84-6.13 17.84-14.91 0-9.43-6.87-14.74-17.84-14.74h-13.26v29.65h13.26zm19.3 29.36l-15.28-24.97c-1.37.18-2.82.28-4.29.28h-12.99v24.69h-5.22v-64.04h18.21c14.63 0 23.51 7.6 23.51 19.77 0 9.33-5.13 15.73-13.91 18.29l15.92 25.98h-5.95zM266.85 235.65l-11.8-26.99c-1.37-3.28-2.83-7.41-2.93-7.41h-.09c-.08 0-1.55 4.13-2.92 7.41l-11.8 26.99h29.54zm2.11 4.67h-33.75l-8.15 18.66h-5.77l28.45-64.04h4.67l28.46 64.04h-5.77l-8.14-18.66z"/>
    </g>
</svg>
