<svg version="1.1" viewBox="0 0 800 511.49" xmlns="http://www.w3.org/2000/svg">
 <defs>
  <style>.a{fill:#a0499b;}.b{fill:#fff;}</style>
 </defs>
 <title>Film1 Family</title>
 <path class="a" d="m362.79 0.63695a5.3948 5.3948 0 0 1 5.3933 5.3895v355.81a5.3943 5.3943 0 0 1-5.3933 5.3905h-43.124a5.4735 5.4735 0 0 1-5.5485-5.3961v-307.28a5.3932 5.3932 0 0 0-5.3904-5.3964v0.0068l-49.429-0.0023a5.3931 5.3931 0 0 1-5.3851-5.3938l-2e-3 -37.731a5.3965 5.3965 0 0 1 5.3873-5.394l103.49-0.002248" stroke-width=".8"/>
 <path class="b" d="m424.37 511.49a1.3297 1.3297 0 0 0 1.3293-1.3292v-86.922a1.3237 1.3237 0 0 0-1.3237-1.3235h-14.009a1.9332 1.9332 0 0 0-1.7921 1.2079l-28.784 71.348a0.86205 0.86205 0 0 1-1.5974 0l-28.784-71.348a1.9331 1.9331 0 0 0-1.7921-1.2079h-14.007a1.3261 1.3261 0 0 0-1.3264 1.3235v86.922a1.3297 1.3297 0 0 0 1.3292 1.3292h10.14a1.3273 1.3273 0 0 0 1.3265-1.3292v-62.292a0.43188 0.43188 0 0 1 0.8297-0.16649l26.091 62.622a1.892 1.892 0 0 0 1.747 1.1656h10.487a1.8919 1.8919 0 0 0 1.747-1.1656l26.089-62.617a0.43159 0.43159 0 0 1 0.82975 0.16648v62.287a1.3273 1.3273 0 0 0 1.3264 1.3292zm100.41 0a1.314 1.314 0 0 0 1.3123-1.3152v-86.936a1.3236 1.3236 0 0 0-1.3236-1.3235h-10.149a1.3237 1.3237 0 0 0-1.3236 1.3235v86.936a1.3141 1.3141 0 0 0 1.3123 1.3152zm-325.15-33.271h28.62a0.62 0.62 0 0 0 0.57688-0.84663l-14.418-36.703a0.50151 0.50151 0 0 0-0.93306 0l-14.428 36.695a0.62624 0.62624 0 0 0 0.58192 0.85508zm8.6693-56.303h11.256a1.3306 1.3306 0 0 1 1.2404 0.84387l30.808 78.269c0.0294 0.15529 0.0578 0.30472 0.0869 0.46v8.7206a1.257 1.257 0 0 1-1.2779 1.2813v-3e-3l-3e-3 3e-3h-7.6773l-2e-3 -3e-3c-0.82325-6e-3 -1.2754-1.2756-1.2754-1.2756l-8e-4 -3e-3 -7.9056-19.674a1.2719 1.2719 0 0 0-1.1803-0.79866h-36.904a1.3008 1.3008 0 0 0-1.2082 0.81846l-7.8243 19.654s-0.45411 1.2813-1.2813 1.2813h-7.6742a1.2806 1.2806 0 0 1-1.281-1.2813v-8.7122c0.0302-0.16089 0.0595-0.31609 0.0898-0.47405l30.774-78.263a1.3303 1.3303 0 0 1 1.2407-0.84388zm500.06-330.27c-37.736 0-64.694 16.171-80.865 37.736 0 0-1.4986 1.9321-2.7658 1.9321-1.318 0-2.6275-1.9321-2.6275-1.9321-10.778-16.171-26.952-37.736-70.081-37.736-37.742 0-59.303 16.171-70.084 32.342 0 0-1.3547 2.1212-2.4272 2.3281-1.047 0.20231-2.4017-0.072-2.9633-2.3281l-5.3933-21.563c-1.3462-5.3805-5.3904-5.3918-5.3904-5.3918l-37.739 0.0024a5.3931 5.3931 0 0 0-5.3904 5.3896v258.77a5.3961 5.3961 0 0 0 5.3934 5.3989l43.126-3e-3a5.3985 5.3985 0 0 0 5.399-5.396l-6e-3 -150.95c0-53.907 32.345-70.082 59.298-70.082 43.132 0 48.522 26.954 48.522 59.305v161.73a5.3954 5.3954 0 0 0 5.3932 5.396h43.129a5.3954 5.3954 0 0 0 5.3932-5.396l-6e-3 -150.95c0-43.127 21.565-70.082 59.303-70.082 43.129 0 48.517 26.954 48.517 59.305v161.73a5.3948 5.3948 0 0 0 5.3904 5.396h43.129a5.3954 5.3954 0 0 0 5.3939-5.3959v-161.73c0-59.305-16.171-107.82-91.649-107.82m-535.84-86.257a5.3908 5.3908 0 0 0-5.3916-5.3895h-43.125c-37.738 0-75.474 21.565-75.474 70.086v35.448a5.3906 5.3906 0 0 1-5.3939 5.387h-37.736a5.3915 5.3915 0 0 0-5.3917 5.3919v37.738a5.3912 5.3912 0 0 0 5.3894 5.3874l37.738 2e-3a5.3954 5.3954 0 0 1 5.3919 5.3897l2e-3 2e-3v196.37a5.3932 5.3932 0 0 0 5.3918 5.3932h43.121a5.3925 5.3925 0 0 0 5.3941-5.3905l2e-3 -196.37a5.3936 5.3936 0 0 1 5.3874-5.3874l92.317-2e-3a5.3913 5.3913 0 0 1 5.3919 5.3919l-5e-3 196.36v6e-3a5.3964 5.3964 0 0 0 5.3941 5.3932h43.123a5.3956 5.3956 0 0 0 5.3986-5.3932h-2e-3l2e-3 -244.89a5.3935 5.3935 0 0 0-5.3941-5.3919l-146.22 0.0114a5.3954 5.3954 0 0 1-5.3916-5.3983v-35.448c0-16.178 10.783-21.565 21.565-21.565h43.127a5.3917 5.3917 0 0 0 5.3918-5.3938l-2e-3 -37.738zm-70.28 456.19h-39.642a1.2728 1.2728 0 0 1-1.2725-1.2728v-25.606a1.2713 1.2713 0 0 1 1.2699-1.2728l42.246-0.0931a1.2749 1.2749 0 0 0 1.27-1.2728v-8.8759a1.2712 1.2712 0 0 0-1.2728-1.2728h-55.037a1.2713 1.2713 0 0 0-1.2728 1.2728v87.026a1.2731 1.2731 0 0 0 1.2728 1.2728h10.249a1.2719 1.2719 0 0 0 1.2728-1.2728l-0.03755-35.842a1.2728 1.2728 0 0 1 1.2729-1.2757h39.681a1.273 1.273 0 0 0 1.2728-1.2728v-8.969a1.2731 1.2731 0 0 0-1.2728-1.2728zm568.26 48.593-0.0282-8.9013a1.3068 1.3068 0 0 0-1.3067-1.3039h-42.175a1.3104 1.3104 0 0 1-1.3095-1.3096l0.0366-75.438a1.3039 1.3039 0 0 0-1.3067-1.3067h-10.18a1.3056 1.3056 0 0 0-1.3067 1.3067v86.958a1.3056 1.3056 0 0 0 1.3067 1.3067h54.963a1.305 1.305 0 0 0 1.3067-1.3123zm129.32-77.718-26.295 42.57a2.6245 2.6245 0 0 0-0.38947 1.3771v33.822a1.2611 1.2611 0 0 1-1.2615 1.2616h-10.273a1.2611 1.2611 0 0 1-1.2615-1.2616v-33.822a2.6021 2.6021 0 0 0-0.39231-1.3771l-26.292-42.57a1.2548 1.2548 0 0 1-0.18913-0.6632v-8.619a1.2605 1.2605 0 0 1 1.2615-1.2588h6.2174a1.2623 1.2623 0 0 1 1.0809 0.6097l24.226 40.38a0.56586 0.56586 0 0 0 0.97091 0l24.226-40.38a1.262 1.262 0 0 1 1.0809-0.6097h6.2174a1.2605 1.2605 0 0 1 1.2615 1.2588v8.619a1.2818 1.2818 0 0 1-0.18914 0.6632z" stroke-width=".8" Googl="true"/>
</svg>
