<svg xmlns="http://www.w3.org/2000/svg" height="347.562" width="639.987" viewBox="0 0 600.012 325.839">
    <path d="M275.2 0v288.82L600 325.84 564 0H275.2z" fill="#e30a13"/>
    <path d="M12.9 95.88v38.66H0v16.68h12.9v40.97h18.2v-40.97h31.1v-16.68H31.1v-21.98h38.6V95.88H12.9z"/>
    <g fill-rule="evenodd">
        <path d="M78.1 95.1h19.7v97.07H78.1V95.1zM173.6 192.18h-67.5V95.11h19v80.39h32.6v-12.89l15.9-.77v30.34zM261.6 192.18h-15.9v-62.94l-24.3 21.23-24.2-21.23.7 62.94h-16.7V95.11l40.2 35.65 40.2-35.65v97.07z"/>
    </g>
    <g fill="#fff" fill-rule="evenodd">
        <path d="M511.1 158.07l-19.3 33.97h-21.1l30.9-48.74-30.1-47.31h21.2l18.4 33.4 18.6-33.4h21.2l-29.8 47.31 30.6 48.74h-21.2l-19.4-33.97zM334.4 149.85h-15.9v25.62h15.9v16.99h-33.7v-42.61h-13.1v-15.3h13.1V95.57h33.7v16.98h-15.9v22h15.9v15.3zm.5 0h-.5v-15.3h.5c6.2 0 11.7-5.58 11.7-11.14 0-6.4-5.8-10.86-11.7-10.86h-.5V95.57h.5c23.7 0 29.8 18.93 29.8 27.56 0 4.46-1.7 12.54-10 17.82 8.9 2.5 15.3 11.41 15.3 22.55 0 6.68-5.8 28.96-34.8 28.96h-.8v-16.99h.5c9.5 0 15.4-6.13 15.4-12.52 0-6.13-4.5-13.1-15.4-13.1"/>
        <path d="M427.4 175.2c-17.2 0-31.2-13.93-31.2-31.19 0-17.25 14-31.18 31.2-31.18V93.89h-.5c-27.6 0-50.2 22.27-50.2 50.12 0 27.57 22.6 50.11 50.2 50.11h.5V175.2zv18.92c27.6-.27 49.9-22.54 49.9-50.11 0-27.56-22.3-49.84-49.9-50.12v18.94c17.3 0 31.2 13.93 31.2 31.18 0 17.26-13.9 31.19-31.2 31.19"/>
    </g>
    <g>
        <path d="M56.2 245.46c12.5 0 19.4-6.16 19.4-16.01 0-10.45-7.5-16.01-19.4-16.01H42.4v32.02h13.8zm0-37.39c15.8 0 25.1 8 25.1 21.38 0 13.28-9.3 21.38-25.1 21.38H42.4v25.58h-5.6v-68.34h19.4zM137.3 271.04v5.37H93.8v-68.34h5.6v62.97h37.9zM200.7 208.06v40.62c0 18.94-9.7 29.19-27.4 29.19-17.9 0-27.4-10.25-27.4-29.19v-40.62h5.5v40.82c0 15.71 7.5 23.63 21.9 23.63 14.5 0 21.8-7.92 21.8-23.63v-40.82h5.6zM255.3 226.32c-1.4-9.08-8.9-14.54-18.5-14.54-10.1 0-17.4 4.78-17.4 12.79 0 8.29 10.2 10.93 19.4 13.47 9.5 2.64 23.1 6.45 23.1 20.22 0 11.22-9.8 19.51-24.5 19.51-14.8 0-23.8-8.78-25.2-20.01l5.3-1.46c.8 8.78 7.9 16.3 20.1 16.3 11.3 0 18.4-6.05 18.4-14.25 0-11.33-12.9-13.48-22.4-16.3-7.9-2.25-20-5.57-20-17.29 0-10.64 9.9-18.06 23.4-18.06 12.2 0 21.7 7.13 23.8 18.15l-5.5 1.47z"/>
    </g>
</svg>
