<svg Googl="true" version="1.1" viewBox="0 0 1066.7 561.12" xml:space="preserve" xmlns="http://www.w3.org/2000/svg">
<style type="text/css">
	.st0{fill:#EB1E26;}
	.st1{fill-rule:evenodd;clip-rule:evenodd;fill:#211D1D;}
	.st2{fill-rule:evenodd;clip-rule:evenodd;fill:#FFFFFF;}
	.st3{fill:#211D1D;}
</style>
<g transform="matrix(2.7777 0 0 -2.7777 .011052 206.25)">
	<g transform="matrix(.025181 0 0 .025181 .9252 11.684)">
		<path class="st0" d="m7215.3-4625.9 7998-911.8-887 8022.4h-7110.7v-7110.6"/>
		<path class="st1" d="m757.7-2246.7v1008.3h-317.4v410.8h317.4v952h1400.3v-410.6h-952.2v-541.5h765.6v-410.8h-765.6v-1008.3l-448.1 0.1"/>
		<path class="st1" d="m2363.2-2246.7v2390h485.5v-2390h-485.5"/>
		<path class="st1" d="m4715.9-2246.7h-1661.8v2390h466.8v-1979.3h802.7v317.4l392.2 18.7 0.1-746.8"/>
		<path class="st1" d="m6882.1-2246.7h-392.3v1549.7l-597.6-522.6-597.3 522.6 18.6-1549.7h-410.9v2390l989.6-877.7 989.8 877.7v-2390"/>
		<path class="st2" d="m13023-1406.9-473.1-836.3h-521l761 1199.7-740.3 1165.1h521l452.4-822.6 459.4 822.6h521l-733.5-1165.2 754.1-1199.7h-521.1l-479.9 836.4"/>
		<path class="st2" d="m8673.3-1204.5h-390.7v-630.7h390.7v-418.2h-829.4v1048.9h-323.2l1 376.9h322.3l-0.2 959.7h829.6v-418.2h-390.7v-541.5h390.7v-376.9zm13.8 0h-13.8v376.9h13.8c150.7 0 288 137.2 288 274.2 0 157.6-144.1 267.4-288 267.4h-13.8v418.2h13.8c582.6 0 733.4-466.2 733.4-678.7 0-109.8-41.1-308.5-246.8-438.7 219.5-61.7 377.1-281 377.1-555.3 0-164.5-144-712.9-857-712.9h-20.6v418.2h13.8c233.1 0 377 150.8 377 308.4 0.1 150.8-109.6 322.3-376.9 322.3"/>
		<path class="st2" d="m10964-1828.6c-425.1 0-767.8 342.9-767.8 767.9s342.7 767.7 767.8 767.7v466.2h-13.7c-678.5 0-1233.8-548.4-1233.8-1233.9 0-678.6 555.3-1233.9 1233.8-1233.9h13.7c678.7 6.8 1227 555.3 1227 1233.9s-548.3 1227.1-1227 1233.9v-466.2c425.1 0 767.9-342.7 767.9-767.7s-342.8-767.9-767.9-767.9z"/>
		<path class="st3" d="m1024.2-3085.2c-36 223.2-220.8 357.6-456.1 357.6-247.2 0-427.3-117.6-427.3-314.5 0-204 249.6-268.8 477.7-331.2 232.8-64.8 566.4-158.4 566.4-496.8 0-276-240-480.1-602.5-480.1-362.4 0-583.3 216-619.3 492.1l132 36c19.2-216.1 192-400.9 492.1-400.9 278.4 0 453.6 148.8 453.6 350.5 0 278.4-316.8 331.2-552.1 400.8-192 55.2-489.6 136.8-489.6 424.8 0 261.6 242.4 444.1 573.7 444.1 300 0 535.2-175.2 585.7-446.4l-134.3-36"/>
		<path class="st3" d="m2581.9-2636.4v-132h-576.1v-1548.2h-139.2v1548.2h-573.6v132h1288.9"/>
		<path class="st3" d="m3671.6-3704.5-309.6 708.1c-36 86.4-74.4 194.4-76.8 194.4h-2.4c-2.4 0-40.8-108-76.8-194.4l-309.6-708.1zm55.2-122.4h-885.7l-213.6-489.7h-151.2l746.5 1680.2h122.4l746.5-1680.2h-151.2l-213.7 489.7"/>
		<path class="st3" d="m4847.8-3546.1c304.8 0 468 160.8 468 391.3 0 247.2-180 386.4-468 386.4h-348v-777.7zm506.5-770.5-400.9 655.3c-36-4.8-74.4-7.2-112.8-7.2h-340.8v-648.1h-136.8v1680.2h477.7c384 0 616.9-199.2 616.9-518.4 0-244.9-134.4-412.8-364.8-480.1l417.6-681.7h-156.1"/>
		<path class="st3" d="m6777.3-3085.2c-36 223.2-220.8 357.6-456 357.6-247.2 0-427.3-117.6-427.3-314.5 0-204 249.6-268.8 477.6-331.2 232.8-64.8 566.5-158.4 566.5-496.8 0-276-240-480.1-602.5-480.1-362.4 0-583.3 216-619.3 492.1l132 36c19.2-216.1 192-400.9 492-400.9 278.5 0 453.6 148.8 453.6 350.5 0 278.4-316.8 331.2-552.1 400.8-192 55.2-489.6 136.8-489.6 424.8 0 261.6 242.5 444.1 573.7 444.1 300 0 535.2-175.2 585.7-446.4l-134.3-36"/>
	</g>
</g>
</svg>
