<svg Googl="true" version="1.1" viewBox="0 0 800 511.49" xmlns="http://www.w3.org/2000/svg">
 <defs>
  <style>.a{fill:#489dd7;}.b{fill:#fff;}</style>
 </defs>
 <title>Film1 Drama</title>
 <path class="a" d="m362.79 0.63695a5.3948 5.3948 0 0 1 5.3933 5.3895v355.81a5.3943 5.3943 0 0 1-5.3933 5.3905h-43.124a5.4735 5.4735 0 0 1-5.5485-5.3962v-307.28a5.3932 5.3932 0 0 0-5.3904-5.3964v0.0068l-49.429-0.0023a5.3931 5.3931 0 0 1-5.3851-5.3938l-2e-3 -37.731a5.3965 5.3965 0 0 1 5.3873-5.394l103.49-0.002248" stroke-width=".8"/>
 <path class="b" d="m747.3 477.32 14.447-36.734a0.50108 0.50108 0 0 1 0.93413 0l14.433 36.742a0.62 0.62 0 0 1-0.57584 0.84671h-28.654a0.6272 0.6272 0 0 1-0.58428-0.85515zm8.0208-54.666-30.81 78.353c-0.0282 0.15805-0.0592 0.31325-0.0874 0.47421v8.7234a1.2804 1.2804 0 0 0 1.2813 1.2813h7.682c0.82976 0 1.2841-1.2813 1.2841-1.2813l7.8316-19.677a1.3024 1.3024 0 0 1 1.2109-0.82113h36.946a1.2761 1.2761 0 0 1 1.1826 0.79856l7.9136 19.699c2e-3 0 0.45432 1.2729 1.2784 1.2785l3e-3 3e-3h7.685l2e-3 -3e-3v3e-3a1.2594 1.2594 0 0 0 1.2813-1.2817v-8.7319c-0.031-0.1552-0.0594-0.30489-0.0875-0.46l-30.843-78.359a1.335 1.335 0 0 0-1.2418-0.84672h-11.269a1.3348 1.3348 0 0 0-1.2417 0.84672zm-134.19 88.832a1.3297 1.3297 0 0 1-1.3293-1.3292v-62.357a0.42994 0.42994 0 0 0-0.82692-0.16658l-26.12 62.687a1.8957 1.8957 0 0 1-1.7498 1.1656h-10.499a1.8957 1.8957 0 0 1-1.7498-1.1656l-26.122-62.693a0.42993 0.42993 0 0 0-0.82691 0.16648v62.363a1.3297 1.3297 0 0 1-1.3292 1.3292h-10.154a1.3273 1.3273 0 0 1-1.3264-1.3292v-87.02a1.3261 1.3261 0 0 1 1.3236-1.3264h14.026a1.9328 1.9328 0 0 1 1.7921 1.2107l28.818 71.43a0.86205 0.86205 0 0 0 1.5974 0l28.818-71.43a1.9357 1.9357 0 0 1 1.7921-1.2107h14.026a1.3285 1.3285 0 0 1 1.3265 1.3264v87.02a1.3297 1.3297 0 0 1-1.3293 1.3292zm-226.73-34.166 14.444-36.734a0.50108 0.50108 0 0 1 0.93414 0l14.436 36.742a0.62026 0.62026 0 0 1-0.57852 0.84671h-28.651a0.62605 0.62605 0 0 1-0.58416-0.85515zm8.0207-54.666-30.81 78.353c-0.031 0.15805-0.0593 0.31325-0.0903 0.47421v8.7234a1.2828 1.2828 0 0 0 1.2842 1.2813h7.682c0.82691 0 1.2841-1.2813 1.2841-1.2813l7.8316-19.677a1.3023 1.3023 0 0 1 1.2108-0.82113h36.946a1.2761 1.2761 0 0 1 1.1825 0.79856l7.9135 19.699s0.4544 1.2729 1.2784 1.2785v3e-3h7.6877l3e-3 -3e-3v3e-3a1.257 1.257 0 0 0 1.2785-1.2813v-8.7319c-0.0282-0.1552-0.0565-0.30489-0.0875-0.46l-30.841-78.359a1.3351 1.3351 0 0 0-1.2418-0.84672h-11.269a1.335 1.335 0 0 0-1.2418 0.84672zm-175.7 38.87a1.293 1.293 0 0 1-1.2937-1.2926v-25.6a1.293 1.293 0 0 1 1.2937-1.2926h26.889c11.531 0 16.655 3.8438 16.655 14.094 0 10.248-5.124 14.091-16.655 14.091zm37.137 11.529c-0.67339-1.0583 0-1.2813 0-1.2813 11.471-2.5484 19.137-10.168 19.217-24.122 0.0818-14.39-12.178-25.84-26.57-25.84h-42.563a1.3268 1.3268 0 0 0-1.3253 1.3264v87.037a1.3124 1.3124 0 0 0 1.3131 1.3124h10.184a1.3126 1.3126 0 0 0 1.3134-1.3124v-35.825a1.2951 1.2951 0 0 1 1.2965-1.2954h21.16a1.9321 1.9321 0 0 1 1.6289 0.88901l23.581 36.68a1.8788 1.8788 0 0 0 1.5819 0.8636h5.8502a1.2666 1.2666 0 0 0 1.2663-1.2672v-7.7357a4.2763 4.2763 0 0 0-0.66775-2.2945l-17.267-27.136zm-188.29 26.901h-12.832a1.2567 1.2567 0 0 1-1.2581-1.2559v-64.101a1.259 1.259 0 0 1 1.2581-1.2587h12.832c24.341 0 30.748 11.532 30.748 33.311 0 21.779-6.4065 33.305-30.748 33.305zm1.2824-78.144h-26.927a1.2597 1.2597 0 0 0-1.2581 1.2558l-0.15124 87.159a1.2583 1.2583 0 0 0 1.2581 1.2616h27.079c32.027 0 42.275-17.935 42.275-44.837 0-26.904-10.248-44.839-42.275-44.839zm631.49-330.17c75.477 0 91.649 48.517 91.649 107.82v161.73a5.3954 5.3954 0 0 1-5.3933 5.396h-43.129a5.3948 5.3948 0 0 1-5.3905-5.396v-161.73c0-32.351-5.3877-59.305-48.517-59.305-37.739 0-59.303 26.954-59.303 70.082l6e-3 150.95a5.3954 5.3954 0 0 1-5.3932 5.396h-43.129a5.3954 5.3954 0 0 1-5.3932-5.396v-161.73c0-32.351-5.3904-59.305-48.522-59.305-26.952 0-59.298 16.175-59.298 70.082l6e-3 150.95a5.3985 5.3985 0 0 1-5.399 5.396l-43.126 3e-3a5.3961 5.3961 0 0 1-5.3933-5.3989v-258.77a5.3931 5.3931 0 0 1 5.3904-5.3896l37.739-0.0024s4.0442 0.0112 5.3904 5.3918l5.3933 21.563c0.5616 2.2561 1.9163 2.5304 2.9633 2.3281 1.0725-0.20689 2.4272-2.3281 2.4272-2.3281 10.781-16.171 32.343-32.342 70.084-32.342 43.129 0 59.303 21.565 70.081 37.736 0 0 1.3095 1.9321 2.6275 1.9321 1.2672 0 2.7658-1.9321 2.7658-1.9321 16.171-21.565 43.129-37.736 80.865-37.736m-535.84-48.518a5.3917 5.3917 0 0 1-5.3918 5.3938h-43.127c-10.781 0-21.565 5.3874-21.565 21.565v35.448a5.3954 5.3954 0 0 0 5.3916 5.3983l146.22-0.0114a5.3935 5.3935 0 0 1 5.3941 5.3919l-2e-3 244.89h2e-3a5.3956 5.3956 0 0 1-5.3987 5.3932h-43.123a5.3964 5.3964 0 0 1-5.3941-5.3932v-6e-3l5e-3 -196.36a5.3913 5.3913 0 0 0-5.3919-5.3919l-92.317 2e-3a5.3936 5.3936 0 0 0-5.3873 5.3874l-2e-3 196.37a5.3925 5.3925 0 0 1-5.3942 5.3903h-43.121a5.3932 5.3932 0 0 1-5.3918-5.3924v-196.37l-2e-3 -2e-3a5.3954 5.3954 0 0 0-5.3919-5.3895l-37.738-2e-3a5.3912 5.3912 0 0 1-5.3894-5.388v-37.738a5.3915 5.3915 0 0 1 5.3917-5.3919h37.736a5.3906 5.3906 0 0 0 5.3939-5.387v-35.448c0-48.521 37.736-70.086 75.474-70.086h43.125a5.3908 5.3908 0 0 1 5.3916 5.3895z" stroke-width=".8"/>
</svg>
