<svg version="1.1" viewBox="0 0 400 240" xmlns="http://www.w3.org/2000/svg">
 <defs>
  <style>.cls-1{fill:#00b2ca;}.cls-2{fill:#fff;}</style>
 </defs>
 <g transform="translate(73.561 19.469)">
  <rect class="cls-1" x="-73.561" y="-19.469" width="400" height="240" fill="#00b2ca" stroke-width="1.4105"/>
 </g>
 <g transform="translate(73.561 19.469)">
  <g transform="translate(-4.8526 8.6469)" data-name="Layer 2">
   <g fill="#fff" stroke-width="1.9337" data-name="Layer 3">
    <path class="cls-2" d="m194.33 173.69 11.602-18.602a3.2872 3.2872 0 0 1 4.5634-0.98617 59.363 59.363 0 0 0 32.505 8.8175c10.461 0 16.417-2.0497 17.036-5.9557 0.81213-4.3121-5.3369-4.5248-17.229-6.5744-25.447-4.3121-41.032-12.511-37.552-33.027 3.0745-19.337 20.303-33.646 51.087-33.646 26.414 0 38.286 10.77 43.913 22.798a3.2679 3.2679 0 0 1-2.069 4.4861l-24.151 7.0192a3.3066 3.3066 0 0 1-3.7513-1.5856c-2.9392-4.9888-9.1075-6.2457-15.566-6.2457-8.4114 0-12.936 2.4557-13.536 6.149-0.59943 3.6933 3.8673 5.1242 18.254 7.5993 21.541 3.6933 42.54 8.8175 37.339 33.858-4.5054 23.204-25.447 32.621-54.142 32.621-18.64 0-33.491-3.8673-47.278-12.221a3.2679 3.2679 0 0 1-1.0248-4.5054z"/>
    <path class="cls-2" d="m137.26 136.78a5.0855 5.0855 0 0 0-4.6021-6.8451l-27.883-0.92816a5.0855 5.0855 0 0 1-4.0413-7.9473l49.618-73.15a0.96683 0.96683 0 0 0-0.7928-1.5083c-42.405 0-74.968 30.571-81.871 69.244-6.3037 35.889 11.757 65.474 45.325 72.938a5.6849 5.6849 0 0 0 6.5551-3.6159z"/>
    <path class="cls-2" d="m160.54 47.131a5.5303 5.5303 0 0 0-5.9363 3.5579l-18.08 49.366a5.0855 5.0855 0 0 0 4.6021 6.8451l27.883 0.92816a5.0855 5.0855 0 0 1 4.0413 7.9473l-47.607 70.172a2.8425 2.8425 0 0 0 2.243 4.4281h2.5718c42.811 0 74.968-30.784 81.678-69.244 6.4197-37.3-13.652-68.877-51.397-74.001z"/>
    <path class="cls-2" d="m86.505 120.57c-8.2374 47.607-43.797 71.313-82.954 71.313-23.649 0-42.192-8.8948-54.587-22.43l21.096-24.306a45.944 45.944 0 0 0 32.872 12.646c20.284 0 34.554-9.4362 41.786-26.51a109.04 109.04 0 0 1-34.96 5.801c-35.753 0-56.656-18.679-51.223-47.201 5.0275-26.781 29.334-44.648 65.3-44.648 46.002 0 70.714 29.74 62.67 75.335zm-70.095-13.652a67.407 67.407 0 0 0 32.872-8.8368c-2.4171-13.864-12.453-20.497-26.723-20.497-13.052 0-23.707 5.4142-25.718 15.276-1.4696 8.9142 5.1049 14.058 19.569 14.058z"/>
    <path class="cls-2" d="m51.216 33.615h-8.2374a0.88948 0.88948 0 0 1-0.85081-1.1022l9.4943-36.952a4.3121 4.3121 0 0 1 1.6243-2.4171 4.3894 4.3894 0 0 1 2.7458-1.0055h25.756a3.5386 3.5386 0 0 1 2.9585 1.3149 3.5966 3.5966 0 0 1 0.54142 3.2872l-9.2235 36.198a0.88948 0.88948 0 0 1-0.85081 0.67678h-8.2567a0.88948 0.88948 0 0 1-0.85081-1.1022l2.9972-11.602a0.88948 0.88948 0 0 0-1.2569-1.0055l-6.1877 3.0745-7.6573 3.7126a0.88948 0.88948 0 0 0-0.46408 0.5801l-1.4116 5.6849a0.88948 0.88948 0 0 1-0.87014 0.65744zm8.3921-30.146q-0.90882 3.3066-1.5663 5.9943l-0.56076 2.2044-0.50275 1.9337a0.88948 0.88948 0 0 0 1.2569 0.98616l13.806-6.8645a0.88948 0.88948 0 0 0 0.46408-0.56076l1.0248-3.8673a1.2182 1.2182 0 0 0-0.13536-1.0635 1.0442 1.0442 0 0 0-0.92816-0.44474h-10.79a1.9337 1.9337 0 0 0-1.2956 0.54142 2.3591 2.3591 0 0 0-0.77346 1.1409z"/>
    <path class="cls-2" d="m92.963 17.701a0.88948 0.88948 0 0 1 0.85081 1.1022l-0.90882 3.6739a1.1022 1.1022 0 0 0 0.17403 1.0442 1.1602 1.1602 0 0 0 0.94749 0.4254h10.732a2.069 2.069 0 0 0 1.1795-0.32872 1.3536 1.3536 0 0 0 0.61877-0.85081 1.8176 1.8176 0 0 0 0-1.0055 2.069 2.069 0 0 0-0.85081-0.90882l-16.185-10.79a4.8921 4.8921 0 0 1-1.9337-2.3977 4.5828 4.5828 0 0 1-0.25138-3.0165l2.4171-9.1075a4.6794 4.6794 0 0 1 1.6629-2.4171 4.2734 4.2734 0 0 1 2.7265-1.0055h25.64a3.6546 3.6546 0 0 1 3.0358 1.3536 3.5193 3.5193 0 0 1 0.56076 3.2679l-2.7458 10.635a0.88948 0.88948 0 0 1-0.85081 0.65744h-8.1794a0.88948 0.88948 0 0 1-0.8508-1.1022l0.94749-3.6159a1.1602 1.1602 0 0 0-0.17403-1.0635 1.1215 1.1215 0 0 0-0.94749-0.44474h-10.79a2.3977 2.3977 0 0 0-1.1795 0.29005 1.4116 1.4116 0 0 0-0.67678 0.94749 1.9337 1.9337 0 0 0 1.0635 2.127l16.088 10.616a4.5634 4.5634 0 0 1 1.0442 1.0442 5.801 5.801 0 0 1 0.75413 1.3729 5.2402 5.2402 0 0 1 0.32872 1.5083 4.6408 4.6408 0 0 1-0.11602 1.4502l-2.3204 9.0688a4.6794 4.6794 0 0 1-1.6629 2.4171 4.2927 4.2927 0 0 1-2.7265 1.0055h-25.621a3.6739 3.6739 0 0 1-3.0358-1.3149 3.4612 3.4612 0 0 1-0.56076-3.2292l2.7458-10.693a0.88948 0.88948 0 0 1 0.85081-0.65744z"/>
    <path class="cls-2" d="m130.5 23.444-2.4364 9.5136a0.88948 0.88948 0 0 1-0.85081 0.65744h-8.0827a0.88948 0.88948 0 0 1-0.85081-1.1022l10.171-39.717a0.88948 0.88948 0 0 1 0.85081-0.65744h8.2374a0.88948 0.88948 0 0 1 0.85081 1.1022l-4.0027 15.624a0.88948 0.88948 0 0 0 1.2569 1.0055l13.806-6.9225a0.88948 0.88948 0 0 0 0.46408-0.5801l2.4364-9.5716a0.88948 0.88948 0 0 1 0.8508-0.67678h8.2954a0.88948 0.88948 0 0 1 0.85081 1.1022l-10.345 39.737a0.88948 0.88948 0 0 1-0.85081 0.65744h-8.1794a0.88948 0.88948 0 0 1-0.8508-1.1022l3.8673-15.566a0.88948 0.88948 0 0 0-1.2569-1.0055l-13.864 6.9418a0.88948 0.88948 0 0 0-0.3674 0.56076z"/>
    <path class="cls-2" d="m193.28 9.3667a0.88948 0.88948 0 0 0-0.15469 1.4502 3.9833 3.9833 0 0 1 1.1795 1.6049 5.3369 5.3369 0 0 1 0.11602 3.2679l-3.4226 13.71a4.7181 4.7181 0 0 1-1.9337 2.9585 6.5358 6.5358 0 0 1-3.732 1.0442h-28.599a0.88948 0.88948 0 0 1-0.85081-1.1022l10.925-39.717a0.88948 0.88948 0 0 1 0.85081-0.67678h26.626a4.9695 4.9695 0 0 1 4.1187 1.5856 4.7181 4.7181 0 0 1 0.48342 4.2734l-1.9337 7.5799a5.5303 5.5303 0 0 1-2.7845 3.6159zm-23.881 12.569a1.0442 1.0442 0 0 0-0.6381 1.1022q0 0.69612 0.98616 0.69612h10.674a2.0497 2.0497 0 0 0 1.2569-0.44474 1.9337 1.9337 0 0 0 0.75412-1.1215l1.4696-6.1877a1.0055 1.0055 0 0 0-0.23204-1.0635q-0.38673-0.32872-1.1795 0.11602zm6.3617-20.342a2.1657 2.1657 0 0 0-1.2956 0.44474 1.9337 1.9337 0 0 0-0.7928 1.1215l-1.5663 6.3037q-0.17403 0.67678 0.17403 0.92815t0.94749 0l13.149-6.9225a4.0027 4.0027 0 0 0 0.81214-0.54142 0.90882 0.90882 0 0 0 0.25137-0.48341 0.5801 0.5801 0 0 0-0.0967-0.44474 0.83147 0.83147 0 0 0-0.69612-0.32872z"/>
    <path class="cls-2" d="m202.97 33.402h-8.2374a0.88948 0.88948 0 0 1-0.8508-1.1022l9.4942-36.875a4.3121 4.3121 0 0 1 1.6243-2.4171 4.3894 4.3894 0 0 1 2.7458-1.0055h25.756a3.5386 3.5386 0 0 1 2.9585 1.3149 3.5966 3.5966 0 0 1 0.54142 3.2872l-9.2235 36.217a0.88948 0.88948 0 0 1-0.85081 0.67678h-8.2954a0.88948 0.88948 0 0 1-0.85081-1.1022l2.9972-11.602a0.88948 0.88948 0 0 0-1.2569-1.0055l-6.1877 3.0745-7.6186 3.7513a0.88948 0.88948 0 0 0-0.46408 0.5801l-1.4116 5.6849a0.88948 0.88948 0 0 1-0.87014 0.52209zm8.3921-30.146q-0.90882 3.3066-1.5663 5.9943l-0.56076 2.2044-0.50275 1.9337a0.88948 0.88948 0 0 0 1.2569 0.98616l13.806-6.8645a0.88948 0.88948 0 0 0 0.46408-0.56076l1.0248-3.8673a1.2182 1.2182 0 0 0-0.13536-1.0635 1.0442 1.0442 0 0 0-0.92815-0.44474h-10.732a1.9337 1.9337 0 0 0-1.2956 0.54142 2.3591 2.3591 0 0 0-0.83147 1.1409z"/>
    <path class="cls-2" d="m268.87 17.488a0.88948 0.88948 0 0 1 0.85081 1.1022l-2.9778 11.37a4.6794 4.6794 0 0 1-1.6629 2.4171 4.2734 4.2734 0 0 1-2.7265 1.0055h-25.602a3.7126 3.7126 0 0 1-3.0358-1.2956 3.4806 3.4806 0 0 1-0.56076-3.2679l8.5854-33.394a4.3121 4.3121 0 0 1 1.6243-2.4171 4.3894 4.3894 0 0 1 2.7458-1.0055h25.64a3.6546 3.6546 0 0 1 3.0358 1.3536 3.5193 3.5193 0 0 1 0.56076 3.2679l-2.7458 10.635a0.88948 0.88948 0 0 1-0.85081 0.65744h-8.1794a0.88948 0.88948 0 0 1-0.85081-1.1022l0.94749-3.6159a1.1602 1.1602 0 0 0-0.17403-1.0635 1.1215 1.1215 0 0 0-0.94749-0.44474h-10.732a1.9337 1.9337 0 0 0-1.2956 0.54142 2.3591 2.3591 0 0 0-0.7928 1.1409l-4.9115 18.892a1.1022 1.1022 0 0 0 0.17403 1.0442 1.1602 1.1602 0 0 0 0.94749 0.4254h10.674a2.3397 2.3397 0 0 0 2.0883-1.5663l1.0055-4.0027a0.88948 0.88948 0 0 1 0.8508-0.67678z"/>
    <path class="cls-2" d="m300.17 2.8116a2.5138 2.5138 0 0 0 0.85081-0.73479 2.5911 2.5911 0 0 0 0.50275-1.0055l2.185-8.5081a0.88948 0.88948 0 0 1 0.8508-0.65744h8.1794a0.88948 0.88948 0 0 1 0.85081 1.1022l-3.0358 12.085a7.7346 7.7346 0 0 1-1.5469 3.0552 7.8893 7.8893 0 0 1-2.5524 2.0497l-6.7871 3.4032a0.88948 0.88948 0 0 0-0.46407 1.0055l1.9336 7.9667a1.4502 1.4502 0 0 0 0.54143 0.7928 1.3729 1.3729 0 0 0 0.87014 0.32872h3.0165a0.88948 0.88948 0 0 1 0.8508 1.1022l-1.9336 7.8893a0.88948 0.88948 0 0 1-0.85081 0.65744h-6.6131a4.2734 4.2734 0 0 1-2.7265-1.0055 4.3701 4.3701 0 0 1-1.6049-2.4171l-2.4944-10.442a0.88948 0.88948 0 0 0-1.2569-0.5801l-5.4529 2.8425a0.88948 0.88948 0 0 0-0.46407 0.5801l-2.6491 10.403a0.88948 0.88948 0 0 1-0.85081 0.67678h-8.6628a0.88948 0.88948 0 0 1-0.85081-1.1022l10.229-39.717a0.88948 0.88948 0 0 1 0.85081-0.65744h8.6048a0.88948 0.88948 0 0 1 0.85081 1.1022l-3.8673 14.889a0.88948 0.88948 0 0 0 1.2569 1.0055z"/>
    <path class="cls-2" d="m-13.639 20.176a0.88948 0.88948 0 0 0-0.85081 0.67678l-1.5276 6.0717q-0.65744 2.7071-1.5663 6.033a0.88948 0.88948 0 0 1-0.85081 0.65744h-8.1987a0.88948 0.88948 0 0 1-0.85081-1.1022l0.40607-1.6243q0.50275-1.9337 1.2375-4.8148l1.6049-6.1877q0.87014-3.3646 1.721-6.7485 1.9337-7.986 4.5054-17.596a4.5828 4.5828 0 0 1 1.779-2.3977 4.5054 4.5054 0 0 1 2.7845-1.0055h24.635a0.88948 0.88948 0 0 1 0.85081 1.1022l-1.9337 7.8893a0.88948 0.88948 0 0 1-0.85081 0.65744h-17.016a2.0883 2.0883 0 0 0-1.3536 0.50275 2.185 2.185 0 0 0-0.7928 1.1795l-1.5083 5.9363a0.88948 0.88948 0 0 0 0.85081 1.1022h12.569a0.88948 0.88948 0 0 1 0.85081 1.1022l-1.9337 7.8893a0.88948 0.88948 0 0 1-0.85081 0.65744z"/>
    <path class="cls-2" d="m18.054-8.0555h8.4888a0.88948 0.88948 0 0 1 0.85081 1.1409l-8.7208 29.508a1.2375 1.2375 0 0 0 0.17403 1.1022 1.1602 1.1602 0 0 0 1.0055 0.48341h9.3976a2.127 2.127 0 0 0 1.2569-0.4254 1.9337 1.9337 0 0 0 0.75412-1.0442l1.6243-5.801a0.88948 0.88948 0 0 1 0.85081-0.65744h8.276a0.88948 0.88948 0 0 1 0.85081 1.1215l-3.4419 11.969a6.3231 6.3231 0 0 1-2.3397 3.2099 6.0717 6.0717 0 0 1-3.732 1.3536h-24.441a2.6104 2.6104 0 0 1-2.2237-1.0055 2.5331 2.5331 0 0 1-0.30938-2.4171l10.79-37.822a0.88948 0.88948 0 0 1 0.88948-0.71545z"/>
    <path class="cls-2" d="m217.07 60.841a9.3009 9.3009 0 0 1 9.3976-7.7346 6.8258 6.8258 0 0 1 7.2512 8.3921 9.2815 9.2815 0 0 1-9.3782 7.7346 6.8451 6.8451 0 0 1-7.2706-8.3921zm12.433 0.29005a3.2292 3.2292 0 0 0-3.3452-4.138 4.7955 4.7955 0 0 0-4.8728 4.1767 3.2099 3.2099 0 0 0 3.3452 4.1187 4.7955 4.7955 0 0 0 4.8728-4.1187z"/>
    <path class="cls-2" d="m252.3 53.435-2.7264 15.469h-3.5966l-5.2982-8.7981-1.5082 8.7981h-4.2154l2.7264-15.469h3.6159l5.2789 8.8175 1.5276-8.8175z"/>
    <path class="cls-2" d="m265.93 65.037-0.65745 3.8673h-12.414l2.7265-15.469h4.2154l-2.069 11.602z"/>
    <path class="cls-2" d="m274.55 53.435-2.6684 15.469h-4.2154l2.7264-15.469z"/>
    <path class="cls-2" d="m292.46 53.435-2.7265 15.469h-3.6159l-5.2982-8.7981-1.5082 8.7981h-4.2154l2.7264-15.469h3.6159l5.2789 8.8175 1.5276-8.8175z"/>
    <path class="cls-2" d="m299.3 57.302-0.34806 2.0497h5.3949l-0.6381 3.5386h-5.3562l-0.44474 2.1464h8.6434l-0.65744 3.8673h-12.859l2.7265-15.469h12.704l-0.69612 3.8673z"/>
   </g>
  </g>
 </g>
</svg>
