<?xml version="1.0" encoding="UTF-8" standalone="no"?>
<!DOCTYPE svg PUBLIC "-//W3C//DTD SVG 1.1//EN" "http://www.w3.org/Graphics/SVG/1.1/DTD/svg11.dtd">
<svg xmlns="http://www.w3.org/2000/svg" version="1.1" viewBox="0.00 0.00 512.00 512.00">
<g stroke-width="2.00" fill="none" stroke-linecap="butt">
<path stroke="#005b6f" vector-effect="non-scaling-stroke" d="
  M 299.97 301.98
  Q 301.73 295.80 303.30 289.69
  C 304.31 285.80 304.25 282.48 303.63 278.73
  Q 301.40 265.35 296.99 248.43
  C 295.79 243.85 294.17 240.89 297.48 236.53
  A 2.72 2.68 12.4 0 1 299.05 235.54
  Q 307.25 233.81 314.09 231.39
  Q 316.36 230.58 318.28 229.23
  Q 327.58 222.69 336.34 212.96
  A 1.41 1.41 0.0 0 0 335.78 210.70
  Q 322.89 205.92 306.72 202.77
  C 303.45 202.14 299.90 202.31 296.62 202.74
  Q 291.94 203.36 287.45 203.62
  Q 285.75 203.71 286.99 202.54
  Q 303.06 187.27 319.06 170.94
  C 322.00 167.94 329.29 159.60 323.53 155.76
  Q 321.13 154.16 318.77 153.15
  Q 308.75 148.85 296.82 145.05
  Q 277.50 138.90 261.96 134.77
  Q 258.82 133.93 255.05 133.76
  Q 246.34 133.37 236.99 132.49
  Q 234.31 132.24 236.63 133.60
  L 277.39 157.50
  A 0.39 0.39 0.0 0 1 277.46 158.12
  L 245.92 187.42
  A 1.81 1.80 32.2 0 1 244.14 187.82
  C 238.41 186.02 231.67 184.29 225.62 185.38
  Q 213.33 187.58 200.77 191.15
  C 195.41 192.68 189.90 193.84 185.28 196.81
  Q 181.86 199.02 178.21 201.98
  Q 176.39 203.47 174.13 204.07
  Q 151.03 210.20 129.39 220.76
  Q 119.01 225.82 108.36 231.87
  Q 107.85 232.16 107.39 231.79
  L 98.25 224.45
  Q 97.62 223.94 97.69 223.13
  L 100.36 194.58
  Q 100.50 193.07 99.94 191.67
  L 95.21 179.80"
/>
<path stroke="#005b6f" vector-effect="non-scaling-stroke" d="
  M 168.97 301.96
  Q 177.24 296.04 183.39 290.42
  Q 185.56 288.43 182.80 289.46
  C 179.93 290.54 176.54 291.89 173.40 291.20
  Q 158.78 288.02 144.97 285.13
  A 1.86 1.84 -60.2 0 0 143.35 285.58
  C 140.07 288.57 135.54 292.73 131.47 294.24
  Q 130.47 294.62 131.05 293.72
  L 139.40 280.87
  A 1.56 1.56 0.0 0 1 140.71 280.16
  C 145.25 280.17 149.58 279.93 154.05 280.87
  Q 165.17 283.22 175.63 285.53
  A 4.56 4.47 -47.4 0 0 177.99 285.41
  L 186.38 282.68
  Q 186.84 282.53 187.07 282.11
  Q 187.73 280.90 187.74 279.41
  Q 187.80 265.81 185.29 252.01
  Q 184.32 246.70 182.37 243.56
  Q 179.69 239.26 176.48 235.96
  Q 176.02 235.49 175.37 235.46
  Q 173.44 235.34 171.61 235.59
  Q 164.86 236.50 156.55 238.81
  Q 151.98 240.09 149.25 241.84
  Q 142.26 246.32 135.02 251.14
  C 133.29 252.29 131.23 253.21 129.21 253.70
  Q 121.01 255.69 111.57 257.57
  Q 110.33 257.81 109.60 258.81
  C 107.96 261.05 105.92 264.17 106.50 267.11
  Q 107.82 273.89 109.75 280.17
  A 1.57 1.56 59.3 0 1 109.36 281.73
  L 103.31 287.76"
/>
<path stroke="#005b6f" vector-effect="non-scaling-stroke" d="
  M 204.81 214.95
  A 0.68 0.68 0.0 0 0 203.84 215.06
  Q 201.09 218.56 199.65 222.77
  A 0.62 0.62 0.0 0 0 200.30 223.59
  Q 213.48 222.28 228.51 217.21
  A 5.07 5.05 -85.8 0 0 231.43 214.68
  L 235.27 207.02
  Q 236.01 205.57 234.44 206.01
  L 220.32 209.95
  A 0.93 0.92 -4.8 0 0 219.65 210.73
  C 219.44 212.51 219.67 215.99 217.68 216.93
  C 214.25 218.55 208.57 219.84 205.98 216.20
  Q 205.48 215.49 204.81 214.95"
/>
<path stroke="#005b6f" vector-effect="non-scaling-stroke" d="
  M 161.03 246.29
  L 151.99 258.20
  Q 151.08 259.41 151.26 260.92
  L 151.95 266.68
  Q 152.12 268.17 153.15 267.09
  C 155.70 264.41 157.69 261.24 161.26 259.75
  Q 167.53 257.11 173.72 254.39
  A 0.74 0.74 0.0 0 0 174.00 253.25
  L 168.32 246.04
  A 1.41 1.40 -20.6 0 0 167.14 245.51
  L 161.96 245.82
  Q 161.37 245.85 161.03 246.29"
/>
<path stroke="#005b6f" vector-effect="non-scaling-stroke" d="
  M 131.80 274.72
  L 126.99 267.15
  Q 126.76 266.79 126.34 266.65
  Q 125.06 266.24 123.64 266.25
  Q 118.12 266.27 113.27 266.24
  Q 112.48 266.24 112.68 267.00
  L 114.40 273.87
  Q 114.60 274.68 115.41 274.51
  Q 120.82 273.40 122.50 273.78
  Q 126.74 274.73 131.08 275.73
  Q 132.68 276.11 131.80 274.72"
/>
</g>
<path fill="#00b5dd" d="
  M 299.97 301.98
  Q 301.73 295.80 303.30 289.69
  C 304.31 285.80 304.25 282.48 303.63 278.73
  Q 301.40 265.35 296.99 248.43
  C 295.79 243.85 294.17 240.89 297.48 236.53
  A 2.72 2.68 12.4 0 1 299.05 235.54
  Q 307.25 233.81 314.09 231.39
  Q 316.36 230.58 318.28 229.23
  Q 327.58 222.69 336.34 212.96
  A 1.41 1.41 0.0 0 0 335.78 210.70
  Q 322.89 205.92 306.72 202.77
  C 303.45 202.14 299.90 202.31 296.62 202.74
  Q 291.94 203.36 287.45 203.62
  Q 285.75 203.71 286.99 202.54
  Q 303.06 187.27 319.06 170.94
  C 322.00 167.94 329.29 159.60 323.53 155.76
  Q 321.13 154.16 318.77 153.15
  Q 308.75 148.85 296.82 145.05
  Q 277.50 138.90 261.96 134.77
  Q 258.82 133.93 255.05 133.76
  Q 246.34 133.37 236.99 132.49
  Q 234.31 132.24 236.63 133.60
  L 277.39 157.50
  A 0.39 0.39 0.0 0 1 277.46 158.12
  L 245.92 187.42
  A 1.81 1.80 32.2 0 1 244.14 187.82
  C 238.41 186.02 231.67 184.29 225.62 185.38
  Q 213.33 187.58 200.77 191.15
  C 195.41 192.68 189.90 193.84 185.28 196.81
  Q 181.86 199.02 178.21 201.98
  Q 176.39 203.47 174.13 204.07
  Q 151.03 210.20 129.39 220.76
  Q 119.01 225.82 108.36 231.87
  Q 107.85 232.16 107.39 231.79
  L 98.25 224.45
  Q 97.62 223.94 97.69 223.13
  L 100.36 194.58
  Q 100.50 193.07 99.94 191.67
  L 95.21 179.80
  Q 95.40 165.66 95.33 151.21
  Q 95.29 143.10 96.41 138.86
  C 100.77 122.34 114.51 108.39 131.77 105.83
  Q 239.36 89.88 377.49 69.50
  Q 385.84 68.26 392.26 70.94
  C 402.47 75.19 407.78 84.29 407.06 95.39
  Q 406.81 99.15 405.97 103.38
  Q 391.45 176.12 374.91 260.41
  Q 373.13 269.50 371.04 274.04
  C 364.87 287.45 352.22 297.84 337.49 300.91
  Q 333.34 301.77 323.45 301.72
  Q 311.76 301.65 299.97 301.98
  Z"
/>
<path fill="#000000" d="
  M 299.97 301.98
  L 168.97 301.96
  Q 177.24 296.04 183.39 290.42
  Q 185.56 288.43 182.80 289.46
  C 179.93 290.54 176.54 291.89 173.40 291.20
  Q 158.78 288.02 144.97 285.13
  A 1.86 1.84 -60.2 0 0 143.35 285.58
  C 140.07 288.57 135.54 292.73 131.47 294.24
  Q 130.47 294.62 131.05 293.72
  L 139.40 280.87
  A 1.56 1.56 0.0 0 1 140.71 280.16
  C 145.25 280.17 149.58 279.93 154.05 280.87
  Q 165.17 283.22 175.63 285.53
  A 4.56 4.47 -47.4 0 0 177.99 285.41
  L 186.38 282.68
  Q 186.84 282.53 187.07 282.11
  Q 187.73 280.90 187.74 279.41
  Q 187.80 265.81 185.29 252.01
  Q 184.32 246.70 182.37 243.56
  Q 179.69 239.26 176.48 235.96
  Q 176.02 235.49 175.37 235.46
  Q 173.44 235.34 171.61 235.59
  Q 164.86 236.50 156.55 238.81
  Q 151.98 240.09 149.25 241.84
  Q 142.26 246.32 135.02 251.14
  C 133.29 252.29 131.23 253.21 129.21 253.70
  Q 121.01 255.69 111.57 257.57
  Q 110.33 257.81 109.60 258.81
  C 107.96 261.05 105.92 264.17 106.50 267.11
  Q 107.82 273.89 109.75 280.17
  A 1.57 1.56 59.3 0 1 109.36 281.73
  L 103.31 287.76
  Q 95.02 277.37 95.33 264.13
  A 2.56 2.53 -68.6 0 0 94.49 262.17
  Q 86.72 255.19 79.62 247.71
  Q 75.53 243.41 72.42 238.21
  A 2.48 2.47 -51.9 0 1 72.18 236.20
  C 78.30 216.81 87.32 198.62 95.21 179.80
  L 99.94 191.67
  Q 100.50 193.07 100.36 194.58
  L 97.69 223.13
  Q 97.62 223.94 98.25 224.45
  L 107.39 231.79
  Q 107.85 232.16 108.36 231.87
  Q 119.01 225.82 129.39 220.76
  Q 151.03 210.20 174.13 204.07
  Q 176.39 203.47 178.21 201.98
  Q 181.86 199.02 185.28 196.81
  C 189.90 193.84 195.41 192.68 200.77 191.15
  Q 213.33 187.58 225.62 185.38
  C 231.67 184.29 238.41 186.02 244.14 187.82
  A 1.81 1.80 32.2 0 0 245.92 187.42
  L 277.46 158.12
  A 0.39 0.39 0.0 0 0 277.39 157.50
  L 236.63 133.60
  Q 234.31 132.24 236.99 132.49
  Q 246.34 133.37 255.05 133.76
  Q 258.82 133.93 261.96 134.77
  Q 277.50 138.90 296.82 145.05
  Q 308.75 148.85 318.77 153.15
  Q 321.13 154.16 323.53 155.76
  C 329.29 159.60 322.00 167.94 319.06 170.94
  Q 303.06 187.27 286.99 202.54
  Q 285.75 203.71 287.45 203.62
  Q 291.94 203.36 296.62 202.74
  C 299.90 202.31 303.45 202.14 306.72 202.77
  Q 322.89 205.92 335.78 210.70
  A 1.41 1.41 0.0 0 1 336.34 212.96
  Q 327.58 222.69 318.28 229.23
  Q 316.36 230.58 314.09 231.39
  Q 307.25 233.81 299.05 235.54
  A 2.72 2.68 12.4 0 0 297.48 236.53
  C 294.17 240.89 295.79 243.85 296.99 248.43
  Q 301.40 265.35 303.63 278.73
  C 304.25 282.48 304.31 285.80 303.30 289.69
  Q 301.73 295.80 299.97 301.98
  Z
  M 204.81 214.95
  A 0.68 0.68 0.0 0 0 203.84 215.06
  Q 201.09 218.56 199.65 222.77
  A 0.62 0.62 0.0 0 0 200.30 223.59
  Q 213.48 222.28 228.51 217.21
  A 5.07 5.05 -85.8 0 0 231.43 214.68
  L 235.27 207.02
  Q 236.01 205.57 234.44 206.01
  L 220.32 209.95
  A 0.93 0.92 -4.8 0 0 219.65 210.73
  C 219.44 212.51 219.67 215.99 217.68 216.93
  C 214.25 218.55 208.57 219.84 205.98 216.20
  Q 205.48 215.49 204.81 214.95
  Z"
/>
<path fill="#00b5dd" d="
  M 204.81 214.95
  Q 205.48 215.49 205.98 216.20
  C 208.57 219.84 214.25 218.55 217.68 216.93
  C 219.67 215.99 219.44 212.51 219.65 210.73
  A 0.93 0.92 -4.8 0 1 220.32 209.95
  L 234.44 206.01
  Q 236.01 205.57 235.27 207.02
  L 231.43 214.68
  A 5.07 5.05 -85.8 0 1 228.51 217.21
  Q 213.48 222.28 200.30 223.59
  A 0.62 0.62 0.0 0 1 199.65 222.77
  Q 201.09 218.56 203.84 215.06
  A 0.68 0.68 0.0 0 1 204.81 214.95
  Z"
/>
<path fill="#00b5dd" d="
  M 168.97 301.96
  Q 152.66 301.55 136.24 301.45
  Q 126.58 301.39 121.90 300.03
  Q 111.08 296.87 103.31 287.76
  L 109.36 281.73
  A 1.57 1.56 59.3 0 0 109.75 280.17
  Q 107.82 273.89 106.50 267.11
  C 105.92 264.17 107.96 261.05 109.60 258.81
  Q 110.33 257.81 111.57 257.57
  Q 121.01 255.69 129.21 253.70
  C 131.23 253.21 133.29 252.29 135.02 251.14
  Q 142.26 246.32 149.25 241.84
  Q 151.98 240.09 156.55 238.81
  Q 164.86 236.50 171.61 235.59
  Q 173.44 235.34 175.37 235.46
  Q 176.02 235.49 176.48 235.96
  Q 179.69 239.26 182.37 243.56
  Q 184.32 246.70 185.29 252.01
  Q 187.80 265.81 187.74 279.41
  Q 187.73 280.90 187.07 282.11
  Q 186.84 282.53 186.38 282.68
  L 177.99 285.41
  A 4.56 4.47 -47.4 0 1 175.63 285.53
  Q 165.17 283.22 154.05 280.87
  C 149.58 279.93 145.25 280.17 140.71 280.16
  A 1.56 1.56 0.0 0 0 139.40 280.87
  L 131.05 293.72
  Q 130.47 294.62 131.47 294.24
  C 135.54 292.73 140.07 288.57 143.35 285.58
  A 1.86 1.84 -60.2 0 1 144.97 285.13
  Q 158.78 288.02 173.40 291.20
  C 176.54 291.89 179.93 290.54 182.80 289.46
  Q 185.56 288.43 183.39 290.42
  Q 177.24 296.04 168.97 301.96
  Z
  M 161.03 246.29
  L 151.99 258.20
  Q 151.08 259.41 151.26 260.92
  L 151.95 266.68
  Q 152.12 268.17 153.15 267.09
  C 155.70 264.41 157.69 261.24 161.26 259.75
  Q 167.53 257.11 173.72 254.39
  A 0.74 0.74 0.0 0 0 174.00 253.25
  L 168.32 246.04
  A 1.41 1.40 -20.6 0 0 167.14 245.51
  L 161.96 245.82
  Q 161.37 245.85 161.03 246.29
  Z
  M 131.80 274.72
  L 126.99 267.15
  Q 126.76 266.79 126.34 266.65
  Q 125.06 266.24 123.64 266.25
  Q 118.12 266.27 113.27 266.24
  Q 112.48 266.24 112.68 267.00
  L 114.40 273.87
  Q 114.60 274.68 115.41 274.51
  Q 120.82 273.40 122.50 273.78
  Q 126.74 274.73 131.08 275.73
  Q 132.68 276.11 131.80 274.72
  Z"
/>
<path fill="#000000" d="
  M 151.99 258.20
  L 161.03 246.29
  Q 161.37 245.85 161.96 245.82
  L 167.14 245.51
  A 1.41 1.40 -20.6 0 1 168.32 246.04
  L 174.00 253.25
  A 0.74 0.74 0.0 0 1 173.72 254.39
  Q 167.53 257.11 161.26 259.75
  C 157.69 261.24 155.70 264.41 153.15 267.09
  Q 152.12 268.17 151.95 266.68
  L 151.26 260.92
  Q 151.08 259.41 151.99 258.20
  Z"
/>
<path fill="#000000" d="
  M 126.99 267.15
  L 131.80 274.72
  Q 132.68 276.11 131.08 275.73
  Q 126.74 274.73 122.50 273.78
  Q 120.82 273.40 115.41 274.51
  Q 114.60 274.68 114.40 273.87
  L 112.68 267.00
  Q 112.48 266.24 113.27 266.24
  Q 118.12 266.27 123.64 266.25
  Q 125.06 266.24 126.34 266.65
  Q 126.76 266.79 126.99 267.15
  Z"
/>
<path fill="#000000" d="
  M 199.40 371.77
  L 236.39 371.79
  Q 237.25 371.79 237.25 372.65
  L 237.23 396.82
  A 0.56 0.55 90.0 0 1 236.68 397.38
  L 199.25 397.34
  A 0.74 0.73 0.0 0 0 198.51 398.07
  Q 198.52 423.43 198.54 447.28
  Q 198.54 447.62 198.79 447.87
  A 0.63 0.63 0.0 0 1 198.35 448.94
  L 166.79 448.96
  A 0.67 0.67 0.0 0 1 166.12 448.29
  L 166.13 325.15
  Q 166.13 324.51 166.77 324.51
  L 239.17 324.52
  A 0.65 0.64 0.4 0 1 239.82 325.17
  L 239.78 350.25
  A 0.78 0.77 0.0 0 1 239.00 351.02
  L 199.50 351.00
  A 1.00 0.99 90.0 0 0 198.51 352.00
  L 198.53 370.90
  A 0.87 0.87 0.0 0 0 199.40 371.77
  Z"
/>
<path fill="#000000" d="
  M 281.90 358.04
  Q 281.87 401.61 282.11 446.98
  Q 282.11 447.46 282.14 447.99
  A 0.91 0.90 -1.5 0 1 281.23 448.94
  L 251.83 448.96
  Q 251.45 448.96 251.45 448.58
  L 251.46 325.02
  A 0.53 0.52 90.0 0 1 251.98 324.49
  L 297.24 324.51
  A 0.64 0.64 0.0 0 1 297.87 325.03
  Q 303.62 357.00 309.37 390.38
  Q 309.97 393.82 310.89 396.44
  Q 311.01 396.79 311.08 396.42
  L 323.65 325.23
  A 0.88 0.87 -84.9 0 1 324.51 324.51
  L 369.25 324.50
  Q 370.00 324.50 370.00 325.25
  L 370.07 448.04
  A 0.94 0.93 -0.0 0 1 369.13 448.97
  Q 355.39 448.92 340.61 448.97
  Q 340.48 448.97 340.35 448.91
  A 1.33 1.31 12.9 0 1 339.59 447.72
  Q 339.55 406.39 339.71 361.40
  C 339.72 360.39 340.18 359.59 340.07 358.63
  Q 339.95 357.64 339.70 358.60
  C 339.38 359.76 338.81 360.63 338.59 361.83
  Q 330.73 404.21 322.74 447.16
  Q 322.68 447.48 322.86 447.76
  Q 323.13 448.19 322.27 448.78
  A 1.02 0.97 26.8 0 1 321.71 448.95
  L 299.82 448.96
  Q 298.71 448.96 298.90 447.87
  Q 299.01 447.27 298.85 446.45
  Q 291.57 409.43 282.42 357.87
  Q 282.41 357.81 282.35 357.82
  L 282.08 357.84
  Q 281.90 357.86 281.90 358.04
  Z"
/>
<path fill="#00b5dd" d="
  M 399.94 357.04
  L 384.36 365.13
  A 0.45 0.44 76.3 0 1 383.71 364.73
  L 383.71 340.44
  Q 383.71 339.83 384.26 339.55
  Q 399.09 331.89 411.37 325.51
  Q 413.16 324.58 415.21 324.55
  Q 423.83 324.41 432.31 324.59
  A 0.56 0.56 0.0 0 1 432.85 325.15
  L 432.88 447.98
  A 0.95 0.94 -0.3 0 1 431.93 448.93
  L 400.97 448.93
  A 0.71 0.70 90.0 0 1 400.27 448.22
  L 400.26 357.23
  A 0.22 0.22 0.0 0 0 399.94 357.04
  Z"
/>
</svg>
