<svg width="800" height="281.88" clip-rule="evenodd" fill-rule="evenodd" image-rendering="optimizeQuality" shape-rendering="geometricPrecision" text-rendering="geometricPrecision" version="1.1" viewBox="299.01 1455.4 800 281.88" xml:space="preserve" xmlns="http://www.w3.org/2000/svg">
 <defs>
  <style type="text/css">
   <![CDATA[
    .fil1 {fill:#FF0032}
    .fil0 {fill:white}
   ]]>
  </style>
 </defs>
 <g transform="translate(.0043332)">
  <g transform="matrix(.72911 0 0 .72911 80.997 394.26)">
   <path class="fil0" d="m594.47 1810.4h-4.31c-44.18 0-80.71-31.55-80.71-87.01v-49.16c0-56.46 36.53-89.33 80.71-89.33h4.31v-24.9l46.49-0.01v24.91h4.32c44.18 0 80.7 32.87 80.7 89.34v49.15c0 55.46-36.52 87.02-80.7 87.02l-4.32-0.01v26.25h-46.49zm0-45.17v-135.17h-6.65c-16.6 0-31.56 11.96-31.56 44.18v49.15c0 30.55 14.94 41.84 31.56 41.84zm53.14 0c16.6 0 31.56-10.97 31.56-41.84v-49.16c0-32.21-14.94-44.17-31.56-44.17h-6.65v135.17z"/>
   <path class="fil0" d="m746.26 1738.3v-81.7c0-49.81 28.24-79.39 75.39-79.39s75.4 29.56 75.4 79.39v81.7c0 49.81-28.25 79.37-75.4 79.37s-75.39-29.55-75.39-79.37zm101.95 0v-81.7c0-21.93-8.96-33.56-26.56-33.56-17.59 0-26.56 11.63-26.56 33.56v81.7c0 21.93 8.97 33.56 26.56 33.56 17.6 0 26.56-11.62 26.56-33.56z"/>
   <path class="fil0" d="m978.07 1670.2 11.97-25.9 32.55-63.12h53.81l-59.12 101.64 69.08 130.86h-53.14l-42.18-88.02-12.97 20.93v67.09h-46.49v-232.5h46.49z"/>
   <path class="fil0" d="m1242.5 1581.2-54.15 175.69c-15.94 52.15-34.21 60.77-76.39 60.77h-8.63v-41.84h10.28c16.28 0 23.25-3.65 30.56-25.56l-57.12-169.04h49.49l29.22 94.98 27.24-94.98h49.5z"/>
   <path class="fil0" d="m1249.4 1742.6v-90.34c0-49.15 26.56-75.71 72.08-75.71 45.51 0 72.4 26.56 74.05 75.71h-47.15c-1.34-21.25-9.31-29.89-27.24-29.89-14.28 0-22.59 9.3-22.59 29.89v90.34c0 19.93 7.97 29.22 22.59 29.22 18.27 0 26.56-8.63 27.9-29.22h47.15c-1 48.83-27.9 75.05-75.05 75.05-47.16 0-71.74-26.24-71.74-75.05z"/>
   <path class="fil1" d="m412.67 1489c0 9.58-3.23 17.76-9.56 24.24-6.31 6.76-14.32 9.86-23.88 9.86-9.57 0-17.73-3.1-24.35-9.86-6.63-6.48-9.86-14.66-9.86-24.24 0-9.59 3.23-17.47 9.86-23.95 6.62-6.48 14.78-9.59 24.35-9.59 9.56 0 17.57 3.11 23.88 9.59s9.56 14.36 9.56 23.95z"/>
   <path class="fil1" d="m370.52 1778.1h13.57v19.74h28.56v15.87h0.02-67.63v-37.29h13.57v21.42h11.91z"/>
   <path class="fil1" d="m391.15 1726.4c15.87 0 23.1 5.84 23.1 21.33s-7.55 21.72-23.1 21.72h-27.58c-13.2 0-20.15-7.84-20.15-21.72 0-13.87 7.14-21.33 20.15-21.33zm-26.48 15.87c-6.06 0-9.03 1.89-9.03 5.55 0 3.86 2.98 5.76 9.03 5.76l27.77-0.01c6.44 0 9.72-1.97 9.72-5.84s-3.28-5.46-9.72-5.46z"/>
   <path class="fil1" d="m368.62 1692.4h-4.27c-5.54 0-8.73 1.79-8.73 5.06-0.11 4.36 2.19 6.14 6.95 6.14h33.53c4.06 0 6.06-1.89 6.06-5.65s-3.28-5.84-9.82-5.84h-6.06v-15.88h8.23c12.3 0 19.74 7.44 19.74 22.91 0 13.98-7.33 20.34-21.53 20.34h-27.77c-14.69 0-21.53-6.95-21.53-21.34 0-14.38 6.55-21.61 19.53-21.61h5.65v15.88z"/>
   <path class="fil1" d="m344.23 1669.1v-15.87h51.08c4.06 0 6.06-1.89 6.06-5.55 0-3.86-2.97-5.35-6.54-5.35h-50.58v-15.88h49c13.5 0 20.23 7.14 20.23 21.34s-6.73 21.31-20.23 21.31h-49z"/>
   <path class="fil1" d="m390.06 1606.6h4.76c4.87 0 7.34-2.08 7.34-6.25 0-3.57-2.87-5.36-6.85-5.36-2.48 0-4.27 0.71-5.46 1.98-1.29 1.3-2.87 3.57-4.86 6.84-3.28 5.76-6.25 9.71-8.82 12.01-3.68 3.08-8.23 4.57-13.58 4.57-12.6 0-19.15-7.55-19.15-19.94 0-13.38 8.82-20.82 21.91-20.03v14.57c-6.35 0.3-9.41 0.6-9.71 5.25-0.3 3.27 1.19 5.06 4.46 5.46 3.08 0.41 5.85-1.19 8.33-4.76 2.08-3.57 3.38-5.76 4.57-7.73 0.49-1 1.3-2.28 2.38-3.76 1.08-1.49 1.89-2.57 2.57-3.28 3.68-3.86 9.03-5.84 16.17-5.84 12.99 0 20.13 7.14 20.13 20.34 0 13.19-7.33 20.63-16.96 20.63h-7.25v-14.68z"/>
   <path class="fil1" d="m314.67 1826.9h128.35v15.11h-128.35z"/>
   <path class="fil1" d="m314.67 1555.6h128.35v15.11h-128.35z"/>
   <path class="fil1" d="m426.62 1462.5c11.28 10.07 14.04 27.46 8.47 41.25-1.89 4.65-4.82 8.86-8.43 12.19l-5.53-5.37c5.23-6 7.93-13.43 7.84-21.38 0.15-7.99-2.55-15.34-7.79-21.36l5.44-5.31z"/>
   <path class="fil1" d="m447.63 1458.3c11.41 12.58 13.54 31.52 8.44 47.32-1.79 5.34-4.63 10.37-8.4 14.54l-5.95-4.89c5.59-7.52 8.12-16.7 8.06-26.07 0.12-9.42-2.38-18.51-8.04-26.06l5.87-4.82z"/>
   <path class="fil1" d="m331.1 1515.9c-11.29-10.07-14.05-27.45-8.48-41.25 1.89-4.65 4.82-8.86 8.43-12.19l5.53 5.37c-5.23 6-7.93 13.43-7.84 21.38-0.15 7.99 2.55 15.34 7.8 21.36l-5.44 5.31z"/>
   <path class="fil1" d="m310.06 1520.1c-11.41-12.58-13.54-31.52-8.44-47.32 1.79-5.34 4.63-10.37 8.4-14.54l5.95 4.89c-5.59 7.52-8.12 16.7-8.06 26.07-0.13 9.42 2.38 18.51 8.03 26.06l-5.86 4.82z"/>
  </g>
 </g>
</svg>
