<svg width="600" height="323.33" version="1.1" viewBox="0 0 158.75 85.545" xmlns="http://www.w3.org/2000/svg">
 <g transform="translate(0 16.26)">
  <rect y="-16.261" width="158.75" height="55.671" fill="#e22112" stroke-width="7.7518"/>
  <g transform="translate(0 -16.261)" fill="#fff">
   <path d="m92.229 38.577c-1.9306 2.6323-4.2877 3.9663-7.007 3.9663-6.2075 0-7.5104-5.3815-7.5104-9.897 0-7.2641 1.7626-10.947 5.2391-10.947 1.1879 0 2.2316 0.5759 2.6481 1.4296-0.80487 0.69432-1.6023 2.2031-1.6023 3.5184 0 2.8037 2.0097 4.5451 5.2432 4.5451 3.0087 0 4.953-2.1041 4.953-5.3599 0-3.4939-3.0203-7.5734-11.533-7.5734-9.2707 0-15.261 5.8755-15.261 14.969 0 8.8626 5.509 14.153 14.736 14.153 5.4536 0 9.5668-2.2709 12.575-6.9432l0.20369-0.31631-2.4361-1.8855z"/>
   <path d="m124.21 41.673v-22.899l-14.118 0.30886v3.1847l0.24635 0.01407c3.4265 0.12214 3.5548 1.1522 3.5548 2.3856v15.053c-1.6292 0.68687-2.2018 1.0173-3.8207 1.0173-2.256 0-3.2386-1.4292-3.2386-4.2491v-17.713l-13.575 0.24758v3.1934l0.45833 0.0074c3.1296 0.055 3.3428 0.96423 3.3428 2.4432v13.336c0 5.8485 2.9015 9.2027 8.3029 9.2027 3.0936 0 5.815-1.3767 8.5302-4.0951v4.1092h14.118v-3.6633l-0.44051-0.02364c-2.9164-0.17762-3.3607-0.53493-3.3607-1.861"/>
   <path d="m147.46 18.441h3.9001v9.2312h-3.8475l-0.12295-0.18672c-3.0286-3.7088-5.4089-5.3753-7.72-5.3753-1.9526 0-3.3164 1.0487-3.3164 2.5674 0 2.0498 2.0532 2.6328 5.6829 3.4973 5.3658 1.2677 10.332 3.2571 10.332 9.1981 0 5.7099-5.0706 9.8501-12.058 9.8501-1.5013 0-3.4107-0.37015-4.9699-0.86035-2.2353-0.67693-2.9305-0.22854-3.465 0.85746h-3.3217v-10.317h3.1929l0.12007 0.26083c2.2714 3.7191 5.9111 6.3544 8.8515 6.3544 2.3943 0 3.6086-0.81108 3.6086-2.439 0-1.955-1.6813-3.0406-6.9204-4.4856-5.8986-1.6391-9.0941-3.4729-9.0941-8.4784 0-5.7732 4.8234-9.6533 12.001-9.6533 1.3257 0 2.8067 0.27864 4.0611 0.74153 1.9902 0.71419 2.605 0.32294 3.0853-0.76305"/>
   <path d="m29.749 20.382c-1.89 4.8392-3.0779 5.1195-6.5478 5.1195h-0.52912v-14.118h2.7421c6.7694 0 9.3811 3.703 11.833 10.708l0.07659 0.23805 3.8107-0.17595v-14.571h-34.753v3.4456l0.37717 0.01536c4.5274 0.17555 4.51 0.69763 4.51 2.0945v28.07c0 1.3969 0.01739 1.9186-4.51 2.0945l-0.37717 0.01536v3.9047h21.721v-3.7904l-0.44549-0.01278c-4.9356-0.16189-4.9845-0.51505-4.9845-2.2113v-11.905h0.52912c3.412 0 4.5009 0.38297 6.5511 5.3326l0.10474 0.09775h3.1321v-14.661h-3.1383z"/>
   <path d="m51.542 18.966c-9.1972 0-14.911 5.6018-14.911 14.619 0 9.2174 5.4353 14.503 14.911 14.503 9.1616 0 14.854-5.6465 14.854-14.736 0-9.0088-5.5529-14.387-14.854-14.387m0.2331 25.566c-3.5213 0-4.8312-2.998-4.8312-11.062 0-8.3886 1.0065-10.946 4.3075-10.946 3.5217 0 4.8309 2.9661 4.8309 10.946 0 8.3741-1.0463 11.062-4.3072 11.062"/>
  </g>
  <path d="m40.94 48.954h-3.6512l-5.4551 12.623-2.6088-12.623h-3.7728l-5.264 20.066h3.4601l3.6512-13.946h0.04925l2.8463 13.946h1.6359l6.0023-13.563h0.04647l0.49801 13.563h3.3211zm15.416 0h-10.102l-2.2758 20.066h11.834l0.37931-3.3517h-8.394l0.59357-5.2661h5.8576l0.3822-3.3547h-5.8605l0.54725-4.7389h6.6654zm3.6772 0-2.2527 20.066h8.3506c4.3143 0 7.6354-4.3236 7.6354-10.297 0-4.3561-1.8965-9.7665-8.3506-9.7665zm3.0576 3.3517h1.662c3.5556 0 5.4551 2.8275 5.4551 6.3559 0 3.4725-1.5664 7.0038-5.3827 7.0038h-3.2285zm18.291-3.3517h-3.4398l-2.2758 20.066h3.4398zm11.313-0.26507h-3.6541l-7.922 20.328h3.796l1.5665-4.3826h5.0266l0.49802 4.3826h3.5353zm-2.3743 4.2058h0.04927l0.85417 8.8859h-3.7497zm18.334-2.6154c-1.4013-1.0309-3.0605-1.5875-4.6241-1.5875-3.2748 0-5.6925 2.5889-5.6925 6.0614 0 5.2661 5.9532 5.649 5.9532 8.9742 0 1.3225-0.92653 2.206-2.3251 2.206-1.3522 0-3.2718-0.88357-4.5777-2.0617l-0.52119 3.4989c1.4478 1.1781 3.1532 1.9144 5.5015 1.9144 3.628 0 5.4783-2.9129 5.4783-6.1498 0-5.6195-5.9531-6.0024-5.9531-8.8858 0-1.3224 1.0192-2.206 2.2758-2.206 1.2335 0 2.9678 0.82174 4.0102 1.7642zm13.661-1.3254h-10.102l-2.2757 20.066h11.837l0.3765-3.3517h-8.397l0.59361-5.2661h5.8604l0.37935-3.3547h-5.8576l0.54432-4.7389h6.6654zm16.247 0h-13.826l-0.38223 3.3517h5.125l-1.8965 16.711h3.437l1.8994-16.711h5.264z" fill="#fff"/>
 </g>
</svg>
