<svg width="599.99" height="92.589" version="1.1" viewBox="0 0 158.75 24.498" xml:space="preserve" xmlns="http://www.w3.org/2000/svg"><g transform="translate(-.0002195)" fill="#002561" stroke-width="10.686"><path d="m4.6791 23.908h-4.0819c-0.33121 0-0.59835-0.268-0.59835-0.599v-22.162c1.7e-6 -0.33082 0.26714-0.58727 0.59839-0.58727h20.698c0.321 0 0.588 0.25645 0.588 0.58767v3.7507c0 0.3205-0.267 0.5877-0.588 0.5877h-15.74c-0.1493 0-0.2775 0.1282-0.2775 0.2885v17.535c0 0.331-0.2671 0.599-0.5984 0.599"/><path d="m9.0557 16.76v-6.71c0-0.3852 0.3099-0.6844 0.6946-0.6844h6.6997c0.545 0 0.812 0.6514 0.438 1.0364l-6.796 6.785c-0.3845 0.385-1.0363 0.118-1.0363-0.427"/><path d="m35.587 19.971c4.392 0 7.811-2.917 7.811-7.725 0-4.8089-3.419-7.726-7.811-7.726-4.391 0-7.811 2.9171-7.811 7.726 0 4.808 3.42 7.725 7.811 7.725m0 4.52c-7.095 0-13.089-4.904-13.089-12.245 0-7.352 5.994-12.246 13.089-12.246 7.096 0 13.09 4.894 13.09 12.246 0 7.341-5.994 12.245-13.09 12.245"/><path d="m57.095 1.1829v7.9821h6.796l5.685-8.3347c0.117-0.17098 0.309-0.27783 0.523-0.27783h4.542c0.502 0 0.801 0.56633 0.512 0.98303l-6.785 9.8305 7.405 11.562c0.267 0.427-0.032 0.972-0.534 0.972h-4.744c-0.225 0-0.428-0.117-0.535-0.299l-5.941-9.628h-6.924v9.297c0 0.353-0.278 0.63-0.631 0.63h-3.975c-0.352 0-0.63-0.277-0.63-0.63v-22.087c0-0.35271 0.278-0.63053 0.63-0.63053h3.975c0.353 0 0.631 0.27782 0.631 0.63043"/><path d="m83.197 0.54844c0.352 0 0.63 0.27782 0.63 0.63046v11.316c0 4.563 2.073 7.352 6.668 7.352 4.605 0 6.668-2.789 6.668-7.352v-11.316c0-0.35274 0.288-0.63056 0.63-0.63056h4.017c0.35 0 0.63 0.27782 0.63 0.63046v11.273c0 7.726-4.636 12.032-11.945 12.032-7.298 0-11.947-4.306-11.947-12.032v-11.273c0-0.35274 0.278-0.63056 0.631-0.63056z"/><path d="m126.39 6.8673c-0.17 0.2565-0.52 0.342-0.78 0.171-2.6-1.6669-5.28-2.3401-8.78-2.3401-4.57 0-5.66 1.1754-5.66 2.4897 0 1.3464 1.22 1.6883 3.04 1.8913l7.01 0.8121c4.98 0.5877 8.06 2.6927 8.06 6.9987 0 5.236-5.1 7.608-12.11 7.608-4.6 0-8.09-0.94-11.65-3.451-0.25-0.171-0.31-0.513-0.16-0.759l1.9-3.131c0.18-0.288 0.54-0.363 0.81-0.181 3.05 2.009 6.04 2.917 9.69 2.917 3.71 0 6.42-0.93 6.42-2.917 0-1.261-0.69-1.891-2.66-2.105l-7.86-0.887c-4.77-0.556-7.68-2.404-7.68-6.7534 0-4.9474 4.89-7.2234 10.85-7.2234 4.16 1.5e-5 7.84 0.69458 11.33 3.1416 0.25 0.1709 0.31 0.5236 0.14 0.78z"/><path d="m140.44 2.7885v8.1855h-2.68v-8.1855h-4.09v-2.2332h10.87v2.2332z"/><path d="m153.68 10.985h-2.76l-5.09-10.418h2.99l2.31 4.9683c0.4 0.8656 0.81 1.7097 1.18 2.5966 0.38-0.8655 0.77-1.731 1.17-2.5966l2.28-4.9687h2.99z"/></g><path d="m134.54 12.976c-0.51651 0-0.93226 0.41575-0.93226 0.93226v9.1428c0 0.51651 0.41575 0.93226 0.93226 0.93226h23.192c0.51651 0 0.93226-0.41575 0.93226-0.93226v-9.1428c0-0.51651-0.41575-0.93226-0.93226-0.93226zm2.3198 1.203h2.373v3.0991h3.9693v-3.0991h2.373v8.3449h-2.373v-3.3838h-3.9693v3.3838h-2.373zm10.411 0h3.8928c0.9017 0 1.5889 0.05291 2.0619 0.15917 0.63563 0.14421 1.1802 0.40033 1.6335 0.76844 0.45331 0.36811 0.79807 0.81989 1.0346 1.355 0.23651 0.53129 0.35502 1.1877 0.35502 1.9694 0 0.68688-0.11108 1.279-0.3328 1.7761-0.271 0.60719-0.65757 1.0987-1.1602 1.4744-0.37939 0.28462-0.89192 0.50673-1.5374 0.66612-0.48287 0.11764-1.1283 0.17622-1.9363 0.17622h-4.0112zm2.3994 2.0464v4.0458h0.78705c3.2158 0 3.2379-1.0598 3.2123-2.0464-0.0271-1.0421-0.0529-1.9994-3.3337-1.9994z" fill="#002561"/></svg>
