<svg width="800" height="290.25" version="1.1" viewBox="0 0 211.67 76.796" xmlns="http://www.w3.org/2000/svg">
 <g transform="translate(3.4312e-5,-220.2)" fill="#145b8f">
  <g transform="matrix(1.6441,0,0,1.6441,2100,173.48)" stroke-width="1px" aria-label="foodxp">
   <path d="m-1277.3 47.772h2.92v-2.64q0-3.04 2-4.96t5.24-1.92q2.36 0 5.12 0.84l-0.68 4.8q-0.92-0.24-1.64-0.24-2.92 0-2.92 2.72v1.4h4.6v5.8h-4.6v14.08h-7.12v-14.08h-2.92z"/>
   <path transform="matrix(.22765 0 0 .22765 -1277.3 -180.41)" d="m109.84 1000.1c-13.822 0-25.186 4.3339-34.088 13.002-8.7852 8.551-13.178 19.562-13.178 33.033 0 13.588 4.3925 24.717 13.178 33.385 8.7852 8.6681 20.149 13.002 34.088 13.002s25.301-4.2752 34.086-12.826c8.9024-8.6681 13.354-19.856 13.354-33.56 0-5.287-0.6956-10.19-2.0703-14.717a12.623 12.623 0 0 1-2.9258 0.3574 12.623 12.623 0 0 1-10.145-5.1347 12.623 12.623 0 0 1-2.5469 0.2734 12.623 12.623 0 0 1-12.623-12.623 12.623 12.623 0 0 1 0.0547-1.0566 12.623 12.623 0 0 1-6.9355-11.254 12.623 12.623 0 0 1 0.0488-0.9883c-3.2621-0.5838-6.6877-0.8926-10.297-0.8926zm0 25.83c5.2712 0 9.605 1.8727 13.002 5.6211s5.0957 8.61 5.0957 14.584-1.7574 10.894-5.2715 14.76c-3.397 3.7483-7.6722 5.623-12.826 5.623s-9.4292-1.9333-12.826-5.7988c-3.397-3.8655-5.0957-8.7272-5.0957-14.584 0-5.974 1.6987-10.836 5.0957-14.584 3.397-3.7484 7.6722-5.6211 12.826-5.6211z" stroke-width="4.3926px"/>
   <path d="m-1228.9 47.252q4.76 0 7.76 2.96 3.04 2.92 3.04 7.52 0 4.68-3.04 7.64-3 2.92-7.76 2.92t-7.76-2.96-3-7.6q0-4.6 3-7.52 3.04-2.96 7.76-2.96zm-4.08 10.48q0 2 1.16 3.32t2.92 1.32 2.92-1.28q1.2-1.32 1.2-3.36t-1.16-3.32-2.96-1.28q-1.76 0-2.92 1.28t-1.16 3.32z"/>
   <path d="m-1202 38.812h7.16l0.04 28.84h-7.2v-2.64q-1 3.24-5.52 3.24-3.84 0-6.28-2.96t-2.44-7.64q0-4.48 2.56-7.44 2.6-3 6.44-3 3 0 3.96 1t1.28 1.8zm-7.28 19q0 2.04 1.08 3.32 1.12 1.24 2.88 1.24t2.84-1.24q1.08-1.28 1.08-3.32 0-2.12-1.08-3.4t-2.84-1.28-2.88 1.32q-1.08 1.28-1.08 3.36z"/>
   <path d="m-1186.6 57.132-7.2-9.36h8.52l2.04 3.12q0.64 0.92 0.88 2.6 0.2-1 0.36-1.48 0.16-0.52 0.56-1.12l2.04-3.12h8.52l-7.24 9.36 8 10.52h-8.52l-2.68-3.88q-0.68-1-1.04-2.68-0.16 0.88-0.36 1.32-0.16 0.44-0.76 1.36l-2.6 3.88h-8.48z"/>
   <path d="m-1169.9 47.772h7.12v2.72q1.28-3.24 5.52-3.24 3.84 0 6.24 2.88 2.44 2.84 2.44 7.48 0 4.76-2.44 7.72-2.4 2.92-6.28 2.92-3.92 0-5.48-3.2v10.08h-7.12zm6.64 10.04q0 2.16 1.08 3.44 1.12 1.24 2.96 1.24 1.76 0 2.8-1.24 1.08-1.28 1.08-3.36t-1.08-3.4-2.84-1.32-2.88 1.28-1.12 3.36z"/>
  </g>
  <path d="m167.51 231.62c0 7.7147-5.772 13.258-11.416 18.901-5.4788-5.4788-11.416-11.259-11.416-18.901 0-6.3046 5.1109-11.416 11.416-11.416 6.3046 0 11.416 5.1109 11.416 11.416z" style="paint-order:stroke fill markers"/>
 </g>
 <g transform="matrix(.061935 0 0 .061935 148.09 3.7934)">
  <path d="m80.1 18.7c15.48-7.39 32.82-10.69 49.93-10.44 26.87-0.24 53.6 9.39 74.53 26.17 18.89 15.08 32.95 36.21 39.13 59.62 7.62 27.7 3.74 58.24-10.25 83.3-9.71 17.72-24.31 32.54-41.47 43.13l-73.2-68.27c-1.48-2.47-0.02-5.3 0.69-7.77 2.31-6.7 0.82-14.67-4.12-19.82l-42.95-41.02c-1.56-1.89-5.15-1.85-6.16 0.58-0.87 1.31-0.45 2.94 0.62 3.99l32.64 31.25c1.72 1.3 2.04 4.02 0.39 5.5-1.49 1.49-4.01 1.09-5.3-0.46l-31.66-30.25c-1.57-2.13-5.19-2.42-6.45 0.14-1.72 3.2 1.97 5.38 3.87 7.32l29.68 28.39c2.8 2.16 0.24 6.83-3.05 6.04-2.47-1.01-4.06-3.31-6.01-5.03l-27.15-25.94c-1.46-1.39-3.59-3.37-5.69-1.96-2.38 1.05-2.43 4.61-0.45 6.1l27.17 25.86c2.18 2.25 4.85 4.12 6.51 6.82 0.97 3.21-3.62 6.11-5.9 3.45l-31.68-30.17c-1.26-1.16-2.83-2.78-4.74-2.07-2.7 0.57-3.57 4.48-1.39 6.16l41.467 39.676c5.7383 4.9799 12.48 7.1579 19.576 5.4803 3.9028-0.97305 7.1774-4.4598 9.7761-2.425l66.641 67.008c-19.65 7.64-41.14 10.63-62.08 7.75-28.42-3.77-55.42-17.97-74.18-39.71-16.69-19.03-26.72-43.77-27.78-69.08-2.15-39.75 18.91-79.6 52.69-100.53l75.85 72.94c2.57 2 2.47 5.53 2.02 8.44-2.53 11.29 1.73 22.95 8.26 32.11 8.09 11.23 20.32 19.99 34.17 22.15 7.93 1.23 16.77-0.58 22.45-6.58 6.21-6.44 7.38-16.2 5.44-24.62-3.34-14.32-13.28-26.63-25.86-34.02-8.25-4.67-18.09-7.67-27.57-5.53-3.09 0.76-6.74 0.64-9-1.9z" fill="#f99b1c"/>
 </g>
</svg>
