<svg width="600" height="259.88" xmlns="http://www.w3.org/2000/svg">
    <g fill="#ff5027">
        <path d="M160.88 69.337l-88.623-.04c0 12.201 0 23.71-.04 35.334l70.905.04c0 14.304-.04 54.221-.04 69.2l-69.515-.76-.1 86.27-73.464-.05L.18.001l155.28.08 5.417 69.257zM452.53.296l31.218 54.321L514.705.157s52.476.397 79.378.397l-70.91 124.18 76.82 135.15-81.719-.06-36.028-65.272-36.186 65.233-80.428-.079 78.55-134.99L370.662.246l81.877.06z"/>
        <path d="M279.27 2.933c-44.148 2.401-86.553 26.52-107.46 67.806-22.318 36.684-18.03 96.16 6.61 130.34 27.795 37.08 67.187 58.167 114.38 54.378 48.131-2.6 94.161-41.317 107.67-86.808 11.6-38 4.35-81.703-17.6-112.77C357.69 21.36 320.5 4.633 279.26 2.946zm1.6 54.327h3.822c10.197.04 18.488 7.3 18.488 16.267l-.11 111.39c-.02 8.908-8.301 16.215-18.538 16.215h-3.77c-10.275-.04-18.59-7.359-18.59-16.267l.051-111.39c0-8.947 8.346-16.215 18.643-16.215z"/>
    </g>
</svg>
