<svg width="282.41mm" height="214.32mm" version="1.1" viewBox="0 0 1000.7 759.42" xmlns="http://www.w3.org/2000/svg" xmlns:xlink="http://www.w3.org/1999/xlink">
 <g transform="translate(552.81 -348.43)">
  <path d="m-552.14 348.43h1e3v299.29h-1e3z" fill="#f00" fill-rule="evenodd"/>
  <g fill="#fff">
   <g fill-rule="evenodd">
    <path d="m-186.71 377.09c-67.664 0-122.49 54.324-122.49 121.34 0 67.014 54.827 121.34 122.49 121.34 67.664 0 122.55-54.324 122.55-121.34 0-67.014-54.888-121.34-122.55-121.34zm-0.183 45.824c11.786 0 21.239 9.5016 21.239 21.348v103.79c0 11.846-9.4532 21.348-21.239 21.348-11.786 0-21.3-9.5016-21.3-21.348v-103.79c0-11.846 9.5143-21.348 21.3-21.348z"/>
    <path d="m-460.38 376.72v241.88h72.383v-79.195h69.027v-65.883h-69.027v-29.874h83.064l-4.3943-66.926z"/>
    <path d="m-98.764 376.72 68.782 116.37-74.702 125.51h80.012l34.483-58.277 34.422 58.277h80.073l-74.764-125.51 68.843-116.37h-79.036l-29.539 49.627-29.539-49.627z" Googl="true"/>
   </g>
   <path d="m192.75 373.03-36.688 144.84h56.812c7.4494-16.708 26.436-28.594 48.688-28.594 28.752 0 52.062 19.823 52.062 44.281s-23.311 44.281-52.062 44.281c-24.113 0-44.395-13.948-50.312-32.875l-55.25 3.8125c1.9286 50.207 56.069 75.312 106.28 75.312 65.464 0 101.81-28.244 103.5-86.406 1.5037-54.054-41.697-91.25-93.844-91.25-11.588 0-23.162 1.9135-34.75 5.7812 1.9286-7.725 3.8474-17.369 5.7812-25.094h110.09l11.594-54.094z"/>
  </g>
  <g fill="#04a">
   <path d="m-552.81 652.79v325.1h71.522v-97.529h54.338c18.267 0 35.298-2.3223 51.088-6.9664 16.1-4.9539 30.033-12.231 41.798-21.829 12.075-9.5983 21.519-21.518 28.331-35.76 6.8116-14.242 10.218-30.806 10.218-49.693v-0.9303c0-16.719-2.9421-31.89-8.8248-45.513-5.573-13.933-13.779-25.854-24.616-35.762-10.527-9.9078-23.531-17.492-39.012-22.756-15.171-5.5731-32.508-8.3596-52.014-8.3596zm71.522 64.554h55.268c17.958 0 32.046 4.1797 42.263 12.539 10.527 8.3597 15.789 20.59 15.789 36.69v0.9303c0 13.933-4.9531 25.697-14.861 35.295-9.9078 9.2885-23.84 13.933-41.798 13.933h-56.661z"/>
   <path d="m-298.7 652.79v325.1h233.61v-65.019h-162.08v-260.08z"/>
   <path d="m-78.475 652.79v185.77c0 47.991 12.539 84.06 37.618 108.21 25.079 24.15 59.446 36.225 103.1 36.225 21.673 0 41.334-2.9401 58.983-8.8226 17.648-6.1924 32.665-15.327 45.05-27.403 12.385-12.385 21.829-27.71 28.331-45.978 6.8115-18.267 10.218-39.786 10.218-64.556v-183.45h-71.522v186.23c0 26.008-6.193 45.516-18.578 58.52-12.385 13.004-29.568 19.506-51.551 19.506-21.983 0-39.166-6.6575-51.551-19.971-12.385-13.623-18.578-33.749-18.578-60.376v-183.91z"/>
   <path d="m315.89 648.14c-16.719 0-32.045 2.3221-45.978 6.9663-13.933 4.6443-26.008 11.302-36.225 19.971-9.9079 8.6694-17.647 19.04-23.22 31.115-5.5733 11.765-8.3597 25.08-8.3597 39.942v0.928c0 16.1 2.4756 29.568 7.4295 40.405 5.2634 10.837 12.541 19.971 21.829 27.402 9.2885 7.1214 20.588 13.159 33.902 18.113 13.314 4.9539 28.175 9.4426 44.585 13.468 13.623 3.4058 24.616 6.6567 32.975 9.753 8.6694 3.0961 15.327 6.1917 19.971 9.2878 4.9538 3.0961 8.2049 6.5025 9.7528 10.218 1.8578 3.406 2.7866 7.4321 2.7866 12.077v0.928c0 9.5982-4.1799 17.184-12.539 22.758-8.0502 5.2636-19.507 7.8947-34.369 7.8947-18.577 0-35.761-3.5599-51.551-10.681-15.481-7.1214-30.651-16.721-45.513-28.796l-42.263 50.623c19.506 17.648 41.178 30.807 65.019 39.477 23.84 8.3597 48.146 12.539 72.915 12.539 17.648 0 33.749-2.1686 48.301-6.5032 14.552-4.6443 27.091-11.146 37.618-19.506 10.527-8.6692 18.731-19.195 24.614-31.58 5.8826-12.694 8.8246-27.091 8.8246-43.192v-0.92813c0-14.242-2.3221-26.473-6.9664-36.69-4.3346-10.217-10.992-19.041-19.971-26.472-8.6694-7.7404-19.507-14.242-32.51-19.506-12.694-5.5733-27.245-10.528-43.655-14.863-13.933-3.7154-25.545-6.9663-34.834-9.7528-8.9788-2.7866-16.099-5.7266-21.362-8.8228-5.2634-3.0961-8.9788-6.5027-11.146-10.218-1.8577-4.0249-2.7865-8.6691-2.7865-13.933v-0.93012c0-8.05 3.4044-14.706 10.216-19.969 7.1212-5.5731 17.649-8.3597 31.582-8.3597 13.933 0 27.865 2.9399 41.798 8.8228 13.933 5.573 28.175 13.315 42.726 23.222l37.155-53.875c-16.719-13.313-35.143-23.531-55.268-30.652-19.816-7.1212-41.643-10.681-65.484-10.681z"/>
  </g>
  <g fill="#fff" fill-opacity=".94118">
   <path d="m-281.35 1085.4-19.402-60.297h-15.452l28.348 81.906h12.315l19.983-58.438 19.983 58.438h12.315l28.348-81.906h-14.987l-19.402 60.297-19.983-60.529h-12.083z"/>
   <path d="m-137.59 1025.1v81.326h30.322c6.3511 0 12.159-1.0474 17.426-3.1386 5.3442-2.0912 9.9138-4.9555 13.709-8.5957 3.8726-3.6403 6.856-7.9396 8.9473-12.896 2.0912-5.0344 3.1367-10.417 3.1367-16.148 0-5.7314-1.0455-11.076-3.1367-16.033s-5.0746-9.2562-8.9473-12.896c-3.7952-3.6402-8.3648-6.4667-13.709-8.4804-5.2668-2.0913-11.075-3.1367-17.426-3.1367zm14.289 13.012h16.033c4.2599 0 8.1318 0.6976 11.617 2.0918 3.4854 1.3941 6.429 3.3301 8.8301 5.8086 2.4785 2.4784 4.3767 5.4221 5.6934 8.83 1.3941 3.3305 2.0898 7.0096 2.0898 11.037 0 4.0275-0.6957 7.7444-2.0898 11.152-1.3167 3.3305-3.2149 6.2363-5.6934 8.7148-2.401 2.401-5.3447 4.2973-8.8301 5.6915-3.4854 1.3167-7.3573 1.9746-11.617 1.9746h-16.033z"/>
   <path d="m34.283 1023.7c-6.1962 0-11.851 1.123-16.963 3.3692-5.1119 2.1686-9.5264 5.1899-13.244 9.0625-3.7177 3.7952-6.6217 8.2494-8.7129 13.361-2.0138 5.1119-3.0215 10.572-3.0215 16.381 0 5.8864 1.0475 11.384 3.1387 16.496 2.0912 5.1119 4.9554 9.5662 8.5957 13.361 3.7177 3.7177 8.0945 6.6614 13.129 8.8301 5.0344 2.1686 10.534 3.2519 16.498 3.2519 3.7952 0 7.2417-0.3478 10.34-1.0449 3.1756-0.6196 6.0795-1.5498 8.7129-2.7891 2.6334-1.3166 5.0722-2.8253 7.3184-4.5293 2.3236-1.7814 4.5318-3.7969 6.623-6.0429l-9.1777-9.293c-3.4854 3.253-7.0094 5.8469-10.572 7.7832-3.5628 1.8589-7.8223 2.7891-12.779 2.7891-3.8726 0-7.4742-0.7355-10.805-2.2071-3.253-1.549-6.0814-3.642-8.4824-6.2754-2.401-2.6334-4.2595-5.6923-5.5762-9.1777-1.3167-3.5628-1.9746-7.3572-1.9746-11.385 0-4.0275 0.65792-7.7842 1.9746-11.27 1.3167-3.4854 3.1751-6.5066 5.5762-9.0625 2.401-2.6333 5.2294-4.6846 8.4824-6.1562 3.3305-1.5491 6.9321-2.3243 10.805-2.3243 4.6472 0 8.7894 0.9302 12.43 2.7891 3.6403 1.8589 7.0868 4.2978 10.34 7.3184l9.1797-10.572c-1.9363-1.8589-3.9895-3.5623-6.1582-5.1113-2.1687-1.5491-4.532-2.8669-7.0879-3.9512-2.5559-1.1618-5.3824-2.0523-8.4805-2.6719-3.0206-0.6196-6.3897-0.9297-10.107-0.9297z"/>
   <path d="m153.3 1024.6-35.783 81.906h14.639l8.3652-19.635h38.455l8.248 19.635h15.104l-35.783-81.906zm6.3906 17.078 14.057 32.529h-27.998z"/>
  </g>
 </g>
</svg>
