<?xml version="1.0" encoding="UTF-8" standalone="no"?>
<!-- Created with Inkscape (http://www.inkscape.org/) -->
<svg xmlns:rdf="http://www.w3.org/1999/02/22-rdf-syntax-ns#" xmlns="http://www.w3.org/2000/svg" height="98.561" width="600" version="1.1" xmlns:cc="http://creativecommons.org/ns#" xmlns:dc="http://purl.org/dc/elements/1.1/">
 <metadata>
  <rdf:RDF>
   <cc:Work rdf:about="">
    <dc:format>image/svg+xml</dc:format>
    <dc:type rdf:resource="http://purl.org/dc/dcmitype/StillImage"/>
    <dc:title/>
   </cc:Work>
  </rdf:RDF>
 </metadata>
 <path fill-rule="nonzero" fill="#c235f7" d="m245.53,68.549,8.312,0.07603-4.5994-33.476-3.7125,33.4zm13.266-68.207,13.621,94.777-13.773,0.44347-2.0399-13.545-12.607,0.36745-1.4698,15.838-12.341,0.06331,11.86-96.437,16.751-1.5078z"/>
 <path fill-rule="nonzero" fill="#c235f7" d="m304.33,0.55624,13.748-0.35478,0.51948,96.792-13.102-0.13938-15.8-50.708,0.87432,49.91-13.684,0.15206,0.21538-93.776,12.949-0.50683,14.711,48.402-0.43087-49.771z"/>
 <path fill-rule="nonzero" fill="#c235f7" d="m328.11,0.62594,13.178,0,1.2418,97.527-13.33,0.13939-1.0897-97.666z"/>
 <path fill-rule="nonzero" fill="#c235f7" d="m366.17,46.651-1.4571,51-13.697,0,3.2944-97.388,12.962,0.07603,0,0.07603,3.5859,0,9.3257,56.955,6.3354-56.955,12.443-0.07603,3.8012-0.13937,3.6618,96.944-12.962,0.93764-1.9006-49.631-5.6131,43.245-11.784,1.3685-7.9952-46.413z"/>
 <path fill-rule="nonzero" fill="#c235f7" d="m428.01,68.194,8.6288,0.07603-5.2584-32.412-3.3704,32.336zm10.441-67.852,13.621,94.777-11.467,0.08862-2.0527-13.545-12.075,0.35479-1.4698,15.851-15.167,0.41814l11.85-96.437,16.76-1.5079z"/>
 <path fill-rule="nonzero" fill="#c235f7" d="m449.23,0.12671,36.885,0.13937,0.7349,15.268-11.784-0.13937-0.29144,81.739-13.684-0.6462,0.13939-81.093-12.215-0.29144,0.21541-14.977z"/>
 <path fill-rule="nonzero" fill="#c235f7" d="m491.13,0.89455,12.113-0.26609,1.2417,97.514-12.265,0.41813-1.0897-97.666z"/>
 <path fill-rule="nonzero" fill="#c235f7" d="m536.22,24.537c-0.70957-5.7145-2.4328-8.6795-5.157-8.9329v0.07603c-2.8382,0.38013-4.5868,3.3831-5.271,9.0089-0.68422,5.6132-1.0263,13.824-1.0263,24.632,0,10.795,0.34212,19.019,1.0263,24.657,0.68421,5.6512,2.4201,8.6668,5.195,9.0469v0.06331c2.7876-0.22808,4.5108-3.2057,5.195-8.9202,0.73488-5.7145,1.0896-13.976,1.0896-24.784,0-10.846-0.3421-19.133-1.0517-24.847m14.673,24.847c0,15.661-1.1404,27.61-3.4338,35.871-2.2934,8.2613-7.9066,12.557-16.839,12.899v-0.07603c-9.123-0.62086-14.787-4.9923-16.979-13.114-2.192-8.1093-3.2944-20.02-3.2944-35.719h0.076c0-15.61,1.0897-27.445,3.2944-35.503,2.1921-8.1726,7.8559-12.519,16.979-13.038v-0.076028c8.9329,0.29144,14.546,4.5615,16.827,12.823,2.2934,8.2613,3.4464,20.235,3.4464,35.934h-0.076z"/>
 <path fill-rule="nonzero" fill="#c235f7" d="M585.73,0.55624,599.49,0.20146,600,97.526h-13.102l-15.8-51.38,0.87428,51.38h-13.684l0.21539-95.094,12.95-0.50683,14.723,48.402-0.44347-49.771z"/>
 <path fill-rule="nonzero" fill="#c235f7" d="M0,98.49,0,0h59.312l1.8118,26.925h-33.197v12.848h27.052v26.875h-27.242v31.842h-27.736z"/>
 <path fill-rule="nonzero" fill="#c235f7" d="m228.32,98.348-29.662-51.101,26.951-47.11-29.688,0-12.329,21.211-12.101-21.211-30.727,0,27.483,47.439-29.105,50.835,29.84-0.0253,14.242-24.885,14.394,24.847,30.701,0z"/>
 <path fill-rule="nonzero" fill="#c235f7" d="m115.74,69.032,0-39.343c0-4.4854-3.9152-8.5148-8.312-8.5148-4.3841,0-7.9446,4.0293-7.9446,8.5148l-0.01271,39.229c0,4.4854,3.5732,8.1346,7.9573,8.1346,4.3967,0,8.312-3.5225,8.312-8.0206m-55.366-19.665c0-26.431,21.008-47.883,46.933-47.883,25.924,0,46.933,21.452,46.933,47.883,0,26.457-21.008,47.895-46.933,47.895-25.924,0-46.933-21.439-46.933-47.895"/>
</svg>
