<svg version="1.1" viewBox="0 0 800 400" xmlns="http://www.w3.org/2000/svg">
 <g transform="matrix(8.3333 0 0 8.3333 0 -7.0961)" fill="none" fill-rule="evenodd">
  <g transform="translate(-16,-9)" fill-rule="nonzero">
   <g transform="translate(16 9.8515)">
    <path d="m95.519 37v2.5712h-8.8163l-0.07938 0.0057c-0.27839 0.04179-0.41758 0.31379-0.41758 0.82359l0.0041 0.14135c0.02739 0.44872 0.19178 0.67283 0.49408 0.67283h6.4165l0.20862 0.0071c0.75384 0.05225 1.3856 0.39187 1.8972 1.0178l0.13431 0.18186c0.42638 0.61728 0.63957 1.3453 0.63957 2.1845l-0.0064 0.24896c-0.04264 0.81869-0.29846 1.5256-0.76747 2.1214l-0.1425 0.16331c-0.53344 0.57288-1.1873 0.86032-1.9633 0.86032h-8.8175v-2.5712h8.8126l0.08595-0.0068c0.27289-0.04508 0.40979-0.31575 0.40979-0.81596l-0.0041-0.14285c-0.02737-0.45335-0.19156-0.67855-0.49163-0.67855h-6.4116l-0.20876-0.007126c-0.7543-0.05254-1.3859-0.39391-1.8958-1.0211l-0.13807-0.17911c-0.43813-0.60853-0.65536-1.3321-0.65536-2.1768l0.0067-0.24917c0.04457-0.8201 0.31206-1.5355 0.80386-2.1461l0.13942-0.16102c0.52271-0.56451 1.1714-0.84423 1.948-0.84423zm-13.452 0v2.5712h-8.8145l-0.07925 0.0057c-0.278 0.04179-0.41771 0.31379-0.41771 0.82359l0.0041 0.14135c0.02747 0.44872 0.19221 0.67283 0.49284 0.67283h6.4152l0.20902 0.0071c0.75508 0.05225 1.3858 0.39187 1.8974 1.0178l0.13421 0.18186c0.42628 0.61726 0.64148 1.3453 0.64148 2.1845l-0.0065 0.24896c-0.043 0.81869-0.30079 1.5256-0.76924 2.1214l-0.14197 0.16331c-0.53167 0.5729-1.1866 0.86035-1.9632 0.86035h-8.8181v-2.5712h8.8139l0.08648-0.0068c0.27427-0.04508 0.40864-0.31575 0.40864-0.81596l-4e-3 -0.14285c-0.02693-0.45335-0.18879-0.67855-0.49109-0.67855h-6.4122l-0.20863-0.007126c-0.75391-0.05254-1.386-0.39391-1.8953-1.0211l-0.13818-0.17911c-0.43831-0.60853-0.65402-1.3321-0.65402-2.1768l0.0066-0.24917c0.04413-0.8201 0.3093-1.5355 0.80331-2.1461l0.13891-0.16102c0.52109-0.56451 1.1713-0.84423 1.9474-0.84423zm-13.242 0v2.5712h-8.5137v1.6435h7.9575v2.5699h-7.9575v1.6441h8.4923v2.5712h-10.88v-11zm-20.947 0 6.1365 7.3585 0.003057-7.3585h2.3852v11h-2.3852l-6.1347-7.4032v7.4032h-2.3864v-11zm-3.9042 0v11h-2.3876v-11zm-4.1254 0v2.5712h-8.8175l-0.07922 0.0057c-0.27783 0.04179-0.41651 0.31379-0.41651 0.82359l0.0041 0.14135c0.0273 0.44872 0.19118 0.67283 0.49348 0.67283h6.4171l0.20836 0.0071c0.75307 0.05225 1.3858 0.39187 1.8968 1.0178l0.13428 0.18186c0.42619 0.61726 0.63836 1.3453 0.63836 2.1845l-0.0064 0.24896c-0.04245 0.81869-0.29726 1.5256-0.76627 2.1214l-0.14239 0.16331c-0.53312 0.5729-1.1879 0.86035-1.9628 0.86035h-8.8194v-2.5712h8.8151l0.0865-0.0068c0.27436-0.04508 0.40924-0.31575 0.40924-0.81596l-0.0041-0.14285c-0.02702-0.45335-0.18939-0.67855-0.49169-0.67855h-6.4128l-0.20892-0.0072c-0.75494-0.05254-1.3875-0.39391-1.8963-1.0211l-0.13778-0.17904c-0.43758-0.60853-0.65682-1.3321-0.65682-2.1768l0.0068-0.24917c0.04521-0.8201 0.31619-1.5355 0.80742-2.1461l0.13911-0.16102c0.5216-0.56451 1.1693-0.84423 1.9465-0.84423zm-23.405 0v7.5962l0.0036 0.13362c0.02633 0.46832 0.19746 0.69894 0.51293 0.69894h6.7404l0.08004-0.0057c0.28049-0.04199 0.41814-0.31524 0.41814-0.82684v-7.5962h2.3998v7.5962l-0.0067 0.24945c-0.04469 0.82135-0.31294 1.5407-0.80751 2.1478l-0.13844 0.16063c-0.51934 0.56345-1.1676 0.84593-1.9454 0.84593h-6.7453l-0.21188-7e-3c-0.76431-0.051351-1.3902-0.38504-1.8811-0.99957l-0.14023-0.18548c-0.44474-0.62942-0.66298-1.3701-0.66298-2.2118v-7.5962zm-6.7141 0 0.2211 0.0065c0.7966 0.04768 1.438 0.35775 1.9238 0.93375l0.13572 0.17445c0.38575 0.53492 0.57885 1.1741 0.57885 1.9175l-0.0062 0.23254c-0.0496 0.91416-0.39696 1.6363-1.0464 2.1588l0.1611 0.11474c0.72595 0.55367 1.0902 1.3625 1.0902 2.4276l-0.0074 0.24373c-0.04412 0.72012-0.28679 1.3403-0.728 1.8515l-0.13594 0.14965c-0.51272 0.52501-1.1829 0.78929-2.0071 0.78929h-9.9086v-11zm0.18338 6.7846h-7.5253v1.6441h7.5253l0.082212-0.0057c0.28853-0.04166 0.43492-0.31266 0.43492-0.81704l-0.0043-0.14241c-0.02875-0.45217-0.20107-0.679-0.51282-0.679zm-0.18338-4.2134h-7.3419v1.6724h7.3419l0.082048-0.0058c0.28789-0.04245 0.43325-0.31852 0.43325-0.83072l-0.0036-0.13382c-0.026408-0.46918-0.19792-0.70201-0.5117-0.70201zm82.271-39.571 4 35h-4.3077l-9.6923-35zm-12 5 10.462 30h-6.4615l-11-19.006zm-19-5 4 8 4-8h11l-10 15.994 10 16.006h-10l-5-8-4 8h-11l9-16.006-9-15.994zm-23.462 0c9.5147 0 17.231 7.1168 17.231 16.208 0 8.4701-7.716 15.584-17.231 15.584-9.5166 0-17.231-7.1143-17.231-15.584 0-9.0909 7.7142-16.208 17.231-16.208zm-17.038 0 0.5 9h-12v3h10v9h-10v10h-9v-31zm17 7c-1.3255 0-2.41 1.0315-2.4947 2.3356l-0.005318 0.16438v13c0 1.3807 1.1193 2.5 2.5 2.5 1.3255 0 2.41-1.0315 2.4947-2.3356l0.005318-0.16438v-13c0-1.3807-1.1193-2.5-2.5-2.5z" fill="#036"/>
    <polygon points="0 35 82 35 81 33 0 33" fill="#c20017"/>
   </g>
  </g>
 </g>
</svg>
