<?xml version="1.0" encoding="UTF-8" standalone="no"?>
<!-- Created with Inkscape (http://www.inkscape.org/) -->
<svg xmlns:rdf="http://www.w3.org/1999/02/22-rdf-syntax-ns#" xmlns="http://www.w3.org/2000/svg" height="152.88" width="600" version="1.1" xmlns:cc="http://creativecommons.org/ns#" xmlns:dc="http://purl.org/dc/elements/1.1/">
 <metadata>
  <rdf:RDF>
   <cc:Work rdf:about="">
    <dc:format>image/svg+xml</dc:format>
    <dc:type rdf:resource="http://purl.org/dc/dcmitype/StillImage"/>
    <dc:title/>
   </cc:Work>
  </rdf:RDF>
 </metadata>
 <path fill-rule="nonzero" fill="#000" d="m224,46.026c2.8354-8.8419,9.346-13.505,19.007-13.505,11.341,0,18.671,6.8467,20.183,18.84,0.16802,0.84009-0.16801,1.5121-1.0081,1.8482l-4.8305,0.98711c-1.0081,0.33604-1.8272-0.16802-2.0162-1.1551-1.3231-9.01-5.4816-12.685-12.328-12.685-4.9985,0-9.157,2.3313-11.173,8.17-0.9871,3.6754-1.4912,5.6706-1.4912,25.182,0,19.512,0.50407,21.506,1.4912,25.182,2.0162,5.8387,6.1747,8.1699,11.173,8.1699,6.8467,0,11.005-3.6754,12.328-12.665,0.18902-1.0081,1.0081-1.5121,2.0162-1.1761l4.8305,1.0081c0.8401,0.31503,1.1761,0.98711,1.0081,1.8272-1.5121,12.013-8.8419,18.84-20.183,18.84-9.6611,0-16.172-4.6626-19.007-13.505-1.5121-4.6625-1.8272-6.9938-1.8272-27.681,0-20.666,0.31505-23.019,1.8272-27.681"/>
 <path fill-rule="nonzero" fill="#000" d="m311.37,48.688c-1.8272-5.6706-6.0067-8.338-11.845-8.338-5.8387,0-9.9972,2.6674-11.824,8.338-1.1761,3.5074-1.3441,6.1747-1.3441,24.846,0,18.84,0.16802,21.506,1.3441,25.013,1.8272,5.6706,5.9857,8.338,11.824,8.338,5.8386,0,10.018-2.6674,11.845-8.338,1.1761-3.5074,1.3441-6.1747,1.3441-25.013,0-18.671-0.16801-21.339-1.3441-24.846m7.8339,52.359c-2.8354,8.989-9.9972,13.672-19.679,13.672-9.6611,0-16.823-4.6836-19.659-13.672-1.3441-4.4946-1.6802-7.6659-1.6802-27.514,0-19.679,0.33605-22.851,1.6802-27.345,2.8354-9.01,9.9972-13.672,19.659-13.672,9.6821,0,16.844,4.6626,19.679,13.672,1.3442,4.4946,1.6802,7.6659,1.6802,27.345,0,19.847-0.33603,23.019-1.6802,27.514"/>
 <path fill-rule="nonzero" fill="#000" d="m410.07,113.4c-1.0081,0-1.6592-0.67207-1.6592-1.6802v-53.682c0-11.845-4.1795-17.684-13-17.684-7.6868,0-12.517,5.6706-12.685,17.18v54.186c0,1.0081-0.67208,1.6802-1.6592,1.6802h-4.8516c-0.98711,0-1.6592-0.67208-1.6592-1.6802v-53.683c0-11.509-3.8434-17.684-12.832-17.684-7.8339,0-12.853,5.6706-12.853,17.684v53.682c0,1.0081-0.65106,1.6802-1.6592,1.6802h-4.8305c-1.0081,0-1.6802-0.67208-1.6802-1.6802v-76.198c0-0.98712,0.67208-1.6592,1.6802-1.6592h4.8305c1.0081,0,1.6592,0.67208,1.6592,1.6592v6.5108h0.16803c2.1633-5.1665,6.8468-9.514,15.185-9.514,8.1699,0,13.672,3.5074,16.339,10.501h0.16802c2.6674-6.1537,8.506-10.501,16.676-10.501,12.832,0,19.175,7.8339,19.175,24.173v55.026c0,1.0081-0.67207,1.6802-1.6592,1.6802h-4.8516z"/>
 <path fill-rule="nonzero" fill="#000" d="m469.59,67.036c0-13-0.67207-16.172-1.4912-18.503-1.8482-5.5026-5.8386-8.338-11.341-8.338-5.5026,0-9.514,2.8354-11.341,8.338-0.84011,2.3313-1.5121,5.5026-1.5121,18.503,0,0.67207,0.33604,1.0081,1.0081,1.0081h23.67c0.67207,0,1.0081-0.33604,1.0081-1.0081m6.5108,8.338-31.188,0c-0.67208,0-1.0081,0.33604-1.0081,1.0081,0,16.339,0.67207,19.512,1.5121,22.346,1.8272,5.5026,5.8386,8.1699,11.173,8.1699,6.8257,0,10.669-3.1713,12.832-11.005,0.33603-1.1761,1.0081-1.5121,2.0162-1.1761l4.4946,1.0081c0.84011,0.16803,1.3231,0.8401,1.0081,1.9952-2.3523,11.173-9.5141,17.013-20.519,17.013-9.346,0-16.004-4.6836-18.84-13.505-1.1551-3.3393-1.8272-7.3298-1.8272-27.514s0.67209-24.173,1.8272-27.681c2.8354-8.8419,9.4931-13.505,19.175-13.505,9.6611,0,16.339,4.6625,19.175,13.505,1.1551,3.5074,1.8272,7.4978,1.8272,27.681,0,0.98711-0.67207,1.6592-1.6592,1.6592"/>
 <path fill-rule="nonzero" fill="#000" d="m527.94,98.544c1.1761-3.5074,1.6592-6.0067,1.6592-24.846,0-18.84-0.48305-21.339-1.6592-25.013-1.6592-5.1665-5.8386-8.338-11.509-8.338-5.8386,0-9.8291,2.6674-11.677,8.338-1.1551,3.6754-1.4912,6.1747-1.4912,25.013,0,18.84,0.33603,21.339,1.4912,24.846,1.8482,5.6706,5.8387,8.338,11.677,8.338,5.6706,0,9.8501-3.0033,11.509-8.338m-31.02,3.5074c-1.4912-4.5155-1.8272-7.8339-1.8272-28.354,0-20.667,0.33603-23.838,1.8272-28.521,2.8354-8.821,8.842-12.665,17.18-12.665,8.8419,0,13.168,4.4946,15.332,9.6611h0.16803v-40.512c0-0.98712,0.68-1.6592,1.68-1.6592h4.8305c1.0081,0,1.6592,0.67207,1.6592,1.6592v110.05c0,1.0081-0.65106,1.6802-1.6592,1.6802h-4.8305c-1.0081,0-1.6802-0.67208-1.6802-1.6802v-6.4897h-0.16803c-2.1632,4.9985-6.4897,9.4931-15.332,9.4931-8.338,0-14.345-3.8224-17.18-12.665"/>
 <path fill-rule="nonzero" fill="#000" d="m558.95,143.4c-1.0081,0-1.6802-0.67209-1.6802-1.6592v-4.5155c0-0.98712,0.67207-1.6592,1.6802-1.6592l1.8272-0.16803c4.5155,0,6.8467-1.9952,8.6739-9.178l3.6754-14.827-18.84-75.881c-0.16801-0.98712,0.33604-1.6592,1.3231-1.6592h5.5026c1.0081,0,1.5121,0.67207,1.6802,1.6592l14.345,60.361h0.14702l14.345-60.361c0.16802-0.98712,0.67208-1.6592,1.6802-1.6592h5.3346c0.98713,0,1.4912,0.67207,1.3231,1.6592l-22.683,90.058c-3.3184,14.156-7.6659,17.831-16.844,17.831h-1.4912z"/>
 <path fill-rule="nonzero" fill="#000" d="m272.25,152.88c-15.311,0-29.802-5.5447-38.98-14.996l5.5656-5.3976c7.9598,8.2119,20.961,12.916,34.591,12.622,12.665-0.25202,23.963-4.9145,30.978-12.769l5.7756,5.1456c-8.443,9.4721-21.78,15.08-36.586,15.374-0.46206,0.021-0.9031,0.021-1.3441,0.021"/>
 <path fill-rule="nonzero" fill="#6f92cc" d="m0,119.01,0-89.344,53.808,0,1.6592,24.426-30.138,0,0,11.656,24.551,0,0,24.384-24.719,0,0,28.879-25.16,0z"/>
 <path fill-rule="nonzero" fill="#6f92cc" d="m207.25,118.89-26.905-46.352,24.447-42.74-26.925,0-11.194,19.238-10.984-19.238-27.87,0,24.929,43.034-26.4,46.1,27.072,0,12.916-22.577,13.063,22.536,27.849,0z"/>
 <path fill-rule="nonzero" fill="#6f92cc" d="m105,92.29,0-35.683c0-4.0745-3.5494-7.7289-7.5399-7.7289-3.9694,0-7.2039,3.6544-7.2039,7.7289l-0.02097,35.578c0,4.0745,3.2553,7.3719,7.2248,7.3719,3.9905,0,7.5399-3.1924,7.5399-7.2668m-50.239-17.83c0-23.985,19.07-43.432,42.592-43.432,23.501,0,42.572,19.448,42.572,43.432,0,23.985-19.07,43.432-42.572,43.432-23.523,0-42.592-19.448-42.592-43.432"/>
</svg>
