<svg xmlns="http://www.w3.org/2000/svg" height="88.079" width="600">
    <path d="M50.099 27.401l-27.607-.033V38.43l22.076.016c0 4.44 0 16.92-.017 21.61L22.9 59.822v26.95l-22.901-.009.058-81.03 48.351.04L50.1 27.402zM140.909 5.841l9.73 16.978 9.638-17.028s16.345.2 24.7.058l-22.076 38.862 23.91 42.22-25.426-.034-11.22-20.377-11.28 20.377-25.034-.025 24.45-42.178-22.884-38.887 25.492.033z" fill="#808285"/>
    <path d="M119.219 23.191c6.839 9.705 9.063 23.376 5.481 35.23-4.19 14.229-18.544 26.325-33.539 27.141-14.703 1.183-26.958-5.415-35.613-17.011-7.664-10.688-8.989-29.249-2.057-40.711C60.005 14.944 73.209 7.397 86.98 6.672c12.804.5 24.392 5.706 32.239 16.519m-24.833 5.507c0-2.8-2.541-5.04-5.749-5.049h-1.182c-3.224 0-5.799 2.25-5.799 5.049l-.016 34.805c0 2.782 2.574 5.065 5.764 5.081h1.2c3.19 0 5.756-2.274 5.773-5.081l.008-34.805z" fill="#808285"/>
    <path d="M244.319 9.951l-.008 14.054c-6.831-5.781-13.937-8.664-21.251-8.672-8.073 0-14.895 2.907-20.393 8.689-5.59 5.781-8.373 12.87-8.373 21.21 0 8.239 2.783 15.203 8.348 20.885 5.556 5.648 12.346 8.522 20.418 8.522 4.19.017 7.739-.7 10.663-2.066 1.59-.675 3.29-1.583 5.023-2.732a60.075 60.075 0 0 0 5.531-4.182l-.016 14.354c-6.781 3.823-13.887 5.764-21.376 5.756-11.213-.017-20.768-3.965-28.7-11.771-7.93-7.93-11.828-17.486-11.828-28.64 0-9.98 3.315-18.944 9.913-26.774 8.156-9.63 18.694-14.404 31.598-14.379 7.073 0 13.88 1.933 20.452 5.748M279.089 50.901l24.375 33.481-14.504-.008-22.567-32.139h-2.15v32.123l-11.829-.008.059-78.515h13.945c10.413.008 17.944 1.966 22.542 5.848 5.115 4.34 7.63 10.097 7.63 17.219-.016 5.573-1.607 10.347-4.815 14.337-3.19 3.982-7.43 6.565-12.687 7.664m-14.812-9.005H268c11.313.017 16.97-4.282 16.97-12.846 0-8.064-5.49-12.063-16.479-12.08h-4.215v24.926zM322.869 5.871l-.075 78.532-11.804-.008.05-78.54 11.829.017zM332.289 84.401L348.892-.004l26.916 61.063L403.79.038l14.77 84.43-12.146-.017-7.548-47.426-23.267 51.05-22.584-51.108-8.489 47.451-12.238-.016zM469.249 17.121l-31.514-.017-.017 18.785 25.467.017v11.163l-25.467-.033-.017 26.316 31.514.025-.016 11.13-43.327-.017.083-78.54 43.294.025v11.146zM551.309 61.041V46.488h-22.401v14.553h-6.54V27.186h6.54v13.987h22.4V27.186h6.54v33.855h-6.54zM580.129 32.501h-10.205v23.234h10.696c7.905 0 13.046-3.14 13.046-11.654 0-8.672-5.673-11.579-13.537-11.579m.9 28.54h-17.404V27.187h16.503c11.113 0 19.868 4.64 19.868 16.894 0 11.829-7.88 16.961-18.969 16.961" fill="#d63e32"/>
    <path d="M495.029 5.911v78.774"/>
    <path fill="#808285" d="M497.189 84.671h-4.316V5.897h4.316v78.774z"/>
</svg>
