<?xml version="1.0" encoding="UTF-8" standalone="no"?>
<!-- Created with Inkscape (http://www.inkscape.org/) -->
<svg xmlns:rdf="http://www.w3.org/1999/02/22-rdf-syntax-ns#" xmlns="http://www.w3.org/2000/svg" height="171.99" width="600" version="1.1" xmlns:cc="http://creativecommons.org/ns#" xmlns:dc="http://purl.org/dc/elements/1.1/">
 <defs></defs>
 <metadata>
  <rdf:RDF>
   <cc:Work rdf:about="">
    <dc:format>image/svg+xml</dc:format>
    <dc:type rdf:resource="http://purl.org/dc/dcmitype/StillImage"/>
    <dc:title/>
   </cc:Work>
  </rdf:RDF>
 </metadata>
 <g transform="translate(-5.017485,-762.48757)">
  <g fill-rule="nonzero" transform="matrix(0.99999608,0,0,0.99999608,0.00119465,0.0033232)">
   <path d="m5.0163,783.49,0,90.25,25.524,0,0-30.004,24.1,0.24631,0-24.108-24.585,0,0-12.293,30.727,0-1.8858-24.092-53.881,0z" fill="#52205b"/>
   <path d="m161.89,783.49,10.861,18.897,10.753-18.974,27.525,0-24.577,43.351,26.709,47.023-28.357,0-12.508-22.715-12.523,22.715-27.872,0,27.156-47.023-25.509-43.274,28.341,0z" fill="#52205b"/>
   <path d="m102.89,784.89c-24.139,0-43.713,19.59-43.713,43.728,0,24.115,19.574,43.682,43.713,43.682,24.123,0,43.697-19.566,43.697-43.682,0-24.131-19.574-43.728-43.697-43.728m7.0969,63.102c0,3.1251-2.8788,5.6652-6.4426,5.6652h-1.3239c-3.533,0-6.4195-2.5401-6.4195-5.6652v-38.763c0-3.1328,2.8865-5.6729,6.4195-5.6729h1.3239c3.5638,0,6.4426,2.5401,6.4426,5.6729v38.763z" fill="#52205b"/>
   <path d="m460.8,894.18-202.44,0,0,40.295-33.976-60.801,0-111.19,236.41,0,0,131.69z" fill="#dd5122"/>
   <path d="m287.07,851.97c0,4.4413,0.46953,5.4958,5.2572,5.4958h3.1482v9.4522h-36.793v-9.4522h3.1713c4.6645,0,5.4881-1.0545,5.4881-5.4958v-47.053c0-5.9808-0.60038-6.9121-5.2726-6.9121h-3.3868v-9.4599h28.387v63.425z" fill="#f0ebdc"/>
   <path d="m306.96,827.68c0-4.8954-0.11546-6.1963-5.2418-6.1963h-3.7332v-9.6831h28.718v40.172c0,4.5799,0.81591,5.4958,5.2572,5.4958h2.9173v9.4676h-36.893v-9.4676h3.4869c4.6722,0,5.4881-1.0545,5.4881-5.4958v-23.584-0.70815zm8.7595-39.841c5.3804,0,9.6831,4.3489,9.6831,9.7062,0,5.3727-4.3028,9.6985-9.6831,9.6985-5.4804,0-9.6831-4.2027-9.6831-9.6985,0-5.3573,4.3182-9.7062,9.6831-9.7062" fill="#f0ebdc"/>
   <path d="m337.73,856.99,2.8018,0c5.8576,0,5.8576-1.9859,5.8576-8.2746v-27.225h-8.6594v-9.6832h8.6594v-3.1559c0-6.304,0.33098-10.992,3.3791-14.725,3.61-4.4413,10.514-7.474,19.02-7.474,11.923,0,19.174,5.6036,19.174,12.97,0,5.2495-3.5022,8.7595-8.4131,8.7595-4.5414,0-7.9436-3.1559-7.9436-7.4817,0-2.5709,1.5318-4.4259,4.3182-5.8345-1.4009-0.24631-2.6863-0.34637-3.7332-0.34637-5.1341,0-6.304,2.9096-6.304,9.7909v7.4971h10.037v9.6832h-10.037v27.225c0,6.7736,0.23091,8.2746,5.95,8.2746h4.0872v9.9372h-38.194v-9.9372z" fill="#f0ebdc"/>
   <path d="m435.34,848.24c-3.5022,13.655-12.978,20.659-27.918,20.659-17.85,0-29.542-11.677-29.542-28.965,0-18.458,11.207-29.904,29.088-29.904,18.458,0,29.311,10.984,29.311,29.688v2.086h-37.971v0.94676c0,10.153,3.8717,15.179,11.33,15.179,6.9044,0,11.123-3.5022,11.792-9.6908h13.909zm-18.797-15.895,0-0.46954c0-7.6972-3.1559-11.8-9.1212-11.8-5.4728,0-8.7595,4.2104-8.8749,12.269h17.996z" fill="#f0ebdc"/>
   <path d="m492.93,782.74,0,91.736" fill="#dd5122"/>
   <path fill="#dd5122" d="m495.36,874.47-4.8416,0,0-91.736,4.8416,0,0,91.736z"/>
   <path d="m541.81,830.81,11.938,0,0,6.1732-11.938,0,0,11.946-6.1732,0,0-11.946-12,0,0-6.1732,12,0,0-11.938,6.1732,0,0,11.938z" fill="#dd5122"/>
   <path d="m559.32,851.65c0-28.041,36.277-19.081,36.277-30.242,0-6.4965-7.8512-8.6902-13.232-8.6902-5.5189,0-12.731,1.424-14.479,7.5818l-7.5895-2.0706c3.0327-9.4599,12.901-12.654,21.876-12.654,9.9833,0,21.806,4.2797,21.806,15.833,0,17.011-31.82,10.899-34.922,23.092h35.962v7.1508h-45.699z" fill="#dd5122"/>
  </g>
 </g>
</svg>
