<svg xmlns="http://www.w3.org/2000/svg" height="170.72" width="600">
    <path fill="#512060" d="M0 20.86v89.573h25.33V80.65l23.923.247V56.972H24.86V44.767h30.491L53.47 20.86H0zM155.712 20.85l10.774 18.754 10.68-18.83h27.322l-24.4 43.035 26.504 46.673h-28.14L166.034 87.93l-12.426 22.553h-27.68L152.91 63.81 127.581 20.85h28.131z"/>
    <path fill="#512060" d="M104.17 84.87c0 3.1-2.844 5.622-6.37 5.622h-1.32c-3.518 0-6.388-2.521-6.388-5.622V46.4c0-3.11 2.87-5.63 6.388-5.63h1.32c3.526 0 6.37 2.52 6.37 5.63v38.47zm-7.043-62.625c-23.958 0-43.385 19.436-43.385 43.394 0 23.95 19.427 43.368 43.385 43.368s43.385-19.419 43.385-43.36c0-23.958-19.427-43.402-43.385-43.402"/>
    <path fill="#e95d2f" d="M452.4 130.72H251.46v40.004l-33.727-60.36V.004h234.67v130.72z"/>
    <path fill="#f2eddc" d="M279.964 88.82c0 4.404.452 5.451 5.204 5.451h3.134v9.394h-36.52v-9.394h3.142c4.625 0 5.443-1.047 5.443-5.45V42.112c0-5.919-.588-6.856-5.221-6.856h-3.365V25.88h28.183v62.94zM308.4 25.18a9.603 9.603 0 0 1 9.625 9.625 9.598 9.598 0 0 1-9.625 9.624c-5.442 0-9.615-4.174-9.615-9.624a9.607 9.607 0 0 1 9.615-9.625m-8.687 39.536c0-4.863-.12-6.149-5.22-6.149h-3.706v-9.615h28.523v39.876c0 4.53.8 5.45 5.213 5.45h2.895v9.395h-36.63v-9.395h3.466c4.642 0 5.46-1.047 5.46-5.45V64.716zM330.24 93.81h2.785c5.792 0 5.792-1.967 5.792-8.227V58.567h-8.577v-9.616h8.577v-3.134c0-6.251.34-10.893 3.373-14.607 3.585-4.403 10.425-7.418 18.882-7.418 11.83 0 19.018 5.562 19.018 12.869 0 5.22-3.475 8.696-8.347 8.696-4.523 0-7.887-3.134-7.887-7.419 0-2.555 1.516-4.394 4.284-5.8-1.38-.23-2.666-.34-3.705-.34-5.101 0-6.26 2.896-6.26 9.735v7.418h9.965v9.616h-9.965v27.016c0 6.728.23 8.227 5.911 8.227h4.054v9.863h-37.9V93.81z"/>
    <path fill="#f2eddc" d="M408.46 69.35v-.46c0-7.648-3.134-11.71-9.045-11.71-5.45 0-8.704 4.173-8.823 12.17h17.869zm18.661 15.773c-3.475 13.56-12.869 20.51-27.706 20.51-17.732 0-29.332-11.593-29.332-28.754 0-18.31 11.14-29.665 28.872-29.665 18.328 0 29.094 10.893 29.094 29.443v2.087H390.37v.937c0 10.076 3.833 15.058 11.251 15.058 6.84 0 11.012-3.475 11.702-9.616h13.797z"/>
    <path d="M484.29 20.11v91.055" stroke="#e85d2d" stroke-width="4.804" fill="#e85d2d"/>
    <path fill="#e85d2d" d="M545.76 84.5V68.284h-24.946V84.5h-7.273V46.787h7.273v15.57h24.946v-15.57h7.274V84.5h-7.274zM577.86 52.71h-11.37v25.857h11.907c8.841 0 14.547-3.5 14.547-12.98 0-9.64-6.302-12.878-15.084-12.878m1.022 31.785H559.49V46.781h18.371c12.392 0 22.144 5.179 22.144 18.805 0 13.201-8.78 18.908-21.122 18.908"/>
</svg>
