<svg version="1.0" viewBox="0 0 346 327" xmlns="http://www.w3.org/2000/svg" xmlns:xlink="http://www.w3.org/1999/xlink">
 <g transform="translate(-21.668 -716.23)">
  <g transform="matrix(1 0 0 -1 -271.41 1800.7)">
   <g transform="matrix(5.0401 0 0 4.9633 536.97 923.91)">
    <use width="744.09448" height="1052.3622" xlink:href="#id38"/>
   </g>
  </g>
  <g transform="matrix(1 0 0 -1 -271.41 1800.7)">
   <g transform="matrix(2.9888 -5.6279 -2.3681 -1.2576 127.81 907.27)">
    <g transform="matrix(.4617 0 0 -.92899 -.09701 .96453)">
     <use width="744.09448" height="1052.3622" xlink:href="#id125"/>
    </g>
   </g>
  </g>
  <g transform="matrix(1 0 0 -1 -271.41 1800.7)">
   <g transform="matrix(2.9888 -5.6279 -1.6073 -.85357 125.84 906.23)">
    <g transform="matrix(.59233 0 0 -1.6117 .25692 1.0964)">
     <use width="744.09448" height="1052.3622" xlink:href="#id128"/>
    </g>
   </g>
  </g>
  <g transform="matrix(1 0 0 -1 -271.41 1800.7)">
   <g transform="matrix(2.9888 -5.6279 -3.6495 -1.9381 130.57 908.74)">
    <g transform="matrix(.9532 0 0 -1.0198 .15641 1.0429)">
     <use width="744.09448" height="1052.3622" xlink:href="#id131"/>
    </g>
   </g>
  </g>
  <g transform="matrix(1 0 0 -1 -271.41 1800.7)">
   <g transform="matrix(3.048 0 0 -.76777 128.26 907.26)">
    <g transform="matrix(.99998 0 0 -.75159 -.003304 .87585)">
     <use width="744.09448" height="1052.3622" xlink:href="#id134"/>
    </g>
   </g>
  </g>
  <g transform="matrix(1 0 0 -1 -271.41 1800.7)">
   <g transform="matrix(0 7.1541 7.1541 0 128.11 898.52)">
    <g transform="matrix(.095924 0 0 -.48124 .75578 .2288)">
     <use width="744.09448" height="1052.3622" xlink:href="#id140"/>
    </g>
   </g>
  </g>
  <g transform="matrix(1 0 0 -1 -271.41 1800.7)">
   <g transform="matrix(-1.3036 5.8505 2.8522 .63552 124.53 901.55)">
    <g transform="matrix(1.0424 0 0 -.97768 -.1347 1.0103)">
     <use width="744.09448" height="1052.3622" xlink:href="#id143"/>
    </g>
   </g>
  </g>
  <g transform="matrix(1 0 0 -1 -271.41 1800.7)">
   <g transform="matrix(3.0424 0 0 -.76795 124.73 907.26)">
    <g transform="matrix(.99999 0 0 -.75156 -.003273 .87592)">
     <use width="744.09448" height="1052.3622" xlink:href="#id146"/>
    </g>
   </g>
  </g>
  <g transform="matrix(1 0 0 -1 -271.41 1800.7)">
   <g transform="matrix(1.0948 0 0 -.76757 126.25 901.79)">
    <g transform="matrix(2.7787 0 0 -.7514 -1.3985 .87585)">
     <use width="744.09448" height="1052.3622" xlink:href="#id149"/>
    </g>
   </g>
  </g>
  <g transform="matrix(1 0 0 -1 -271.41 1800.7)">
   <g transform="matrix(-4.4197 4.4197 1.2025 1.2025 130.81 903.26)">
    <g transform="matrix(.45751 0 0 -1.6816 .27392 1.1844)">
     <use width="744.09448" height="1052.3622" xlink:href="#id152"/>
    </g>
   </g>
  </g>
  <g transform="matrix(1 0 0 -1 -271.41 1800.7)">
   <g transform="matrix(-4.4197 4.4197 2.6271 2.6271 128.39 900.84)">
    <g transform="matrix(.56389 0 0 -.94865 -.12158 .97433)">
     <use width="744.09448" height="1052.3622" xlink:href="#id155"/>
    </g>
   </g>
  </g>
  <g transform="matrix(1 0 0 -1 -271.41 1800.7)">
   <g transform="matrix(1.0986 0 0 -.77223 129.78 901.8)">
    <g transform="matrix(2.7726 0 0 -.75296 -1.3926 .87646)">
     <use width="744.09448" height="1052.3622" xlink:href="#id158"/>
    </g>
   </g>
  </g>
  <g transform="matrix(1 0 0 -1 -271.41 1800.7)">
   <g transform="matrix(5.0395 0 0 4.8479 279.14 797.98)">
    <use width="744.09448" height="1052.3622" xlink:href="#id191"/>
   </g>
  </g>
  <g transform="matrix(1 0 0 -1 -271.41 1800.7)">
   <g transform="matrix(40.089 0 0 20.1 350.61 945.97)">
    <use width="744.09448" height="1052.3622" xlink:href="#id226"/>
   </g>
  </g>
  <path d="m367.61 992.59 0.047-276.3h-345.95v276.33l345.91-0.0313" fill="#032a61"/>
  <path d="m21.699 754.38c24.236-8.3817 49.977-13.489 76.861-14.742 120.02-5.593 225.7 66.881 269.08 173.21v-6.0004c-45.199-104.43-150.39-175.08-269.58-169.51-26.68 1.2533-52.264 6.2354-76.36 14.445v2.6007" fill="#fff"/>
  <path d="m367.67 1043.2-0.10966-43.585-345.81 0.12534v43.46h345.92" fill="#e11048"/>
  <path d="m46.469 1037.1c-9.4784 0-15.698-4.418-15.698-11.029 0-7.2067 6.3294-11.546 16.246-11.546 8.7107 0 14.319 3.102 14.977 8.2407h-10.45c-0.59534-1.9427-2.1463-2.9453-4.5904-2.9453-3.5877 0-5.499 2.068-5.499 6.0473 0 3.8697 1.739 5.7811 5.3737 5.7811 2.6947 0 4.2927-1.0027 4.9037-3.0707h10.199c-1.0183 5.3737-6.7367 8.5227-15.463 8.5227" fill="#fff"/>
  <path d="m156.81 1036.5c-0.235-0.6893-0.40733-1.3943-0.53267-2.1933-2.9297 1.9427-6.1414 2.867-10.089 2.867-6.204 0-9.9014-2.4754-9.9014-6.204 0-3.5564 2.8044-5.7027 8.413-6.5801 7.3477-1.1436 11.28-0.8303 11.28-2.4596v-0.517c0-1.2377-1.4257-1.8801-4.1204-1.8801-2.9767 0-4.7157 0.8304-5.123 2.3971h-9.5567c1.0183-4.8254 5.9064-7.0971 14.915-7.0971 5.5617 0 9.4314 0.8774 11.64 2.7574 1.974 1.7076 2.0837 3.854 2.0837 6.768v7.99c0 1.88 0.48567 2.9924 1.5667 3.3527v0.799h-10.575zm-7.2694-8.6794c-2.3343 0.4387-3.3997 1.0654-3.3997 2.3501 0 1.4726 1.4883 2.5066 3.807 2.5066 3.525 0 6.0317-1.4726 6.0317-3.713v-2.4283c-1.786 0.7676-4.1204 0.846-6.439 1.2846" fill="#fff"/>
  <path d="m190.56 1015.3h10.136v2.8983c2.162-2.303 5.2484-3.431 9.6037-3.431 7.708 0 10.575 2.5067 10.575 7.9274v13.74h-10.387v-10.638c0-3.901-0.235-5.7654-4.3554-5.7654-3.76 0-5.2484 1.6294-5.2484 5.0917v11.311h-10.324v-21.134" fill="#fff"/>
  <path d="m84.445 1007.9h10.387v10.23c2.3813-2.2717 5.4207-3.3057 9.7134-3.3057 6.627 0 10.215 2.4753 10.215 7.1597v14.539h-10.387v-10.638c0-3.901-0.235-5.7654-4.3554-5.7654-3.76 0-5.2484 1.6294-5.2484 5.0917v11.311h-10.324v-28.623" fill="#fff"/>
  <path d="m243.73 1015.3h10.152v2.8983c2.1463-2.303 5.2484-3.431 9.6037-3.431 7.6924 0 10.575 2.5067 10.575 7.9274v13.74h-10.387v-10.638c0-3.901-0.25067-5.7654-4.3554-5.7654-3.7757 0-5.264 1.6294-5.264 5.0917v11.311h-10.324v-21.134" fill="#fff"/>
  <path d="m327.81 1029.8c-1.8487 4.6216-7.52 7.285-15.635 7.285-9.7917 0-15.933-4.2144-15.933-11.108 0-7.0814 6.2667-11.374 15.933-11.374 9.964 0 16.168 4.3397 16.168 11.703 0 0.3916 0 0.8303-0.047 1.222h-21.432c0 2.9923 1.974 4.5903 5.6714 4.5903 2.8043 0 4.5904-0.799 5.311-2.3186h9.964zm-9.4314-6.1571c-0.047-2.7573-2.3187-4.3397-5.9064-4.3397-3.337 0-5.4834 1.504-5.9064 4.3397h11.813" fill="#fff"/>
  <path d="m348.02 1007.9h10.387v28.623h-10.387v-28.623z" fill="#fff"/>
  <path d="m21.668 992.66h0.376l95.912-276.42h-39.183l-57.105 271.9v4.5277" fill="#fff"/>
  <path d="m23.908 992.66 174.81-276.39h-44.118l-132.21 276.39h1.5197" fill="#fff"/>
  <path d="m139.45 883.22v-89.05h55.586l1.7077 24.346h-31.114v11.625h25.364v24.299h-25.568l-0.0157 28.78h-25.96z" fill="none" stroke="#032a61" stroke-miterlimit="3.864" stroke-width="6.7994"/>
  <path d="m356.34 883.1-27.62-46.217 24.863-42.582h-28.56l-10.716 18.502-11.045-18.502h-28.639l25.599 42.88-26.555 45.919 28.09-0.0313 12.784-21.886 13.066 21.918h28.733z" fill="none" stroke="#032a61" stroke-width="6.7994"/>
  <path d="m248.99 857.48 0.17234-37.851c0-4.324-3.8384-8.1937-8.225-8.1937-4.3867 0-7.9274 3.8697-7.9274 8.1937l-0.0157 37.741c0 4.324 3.5564 7.8177 7.943 7.8177 4.3867 0 8.0527-3.384 8.0527-7.708zm-53.533-18.283c0-24.8 20.414-44.901 45.622-44.901 25.192 0 45.606 20.1 45.606 44.901s-20.414 44.901-45.606 44.901c-25.208 0-45.622-20.1-45.622-44.901z" fill="none" stroke="#032a61" stroke-miterlimit="3.864" stroke-width="6.7994"/>
  <path d="m148.52 898h52.719v18.988h-32.258v11.954h26.508v17.578h-26.508v13.849h32.665v18.988h-53.126v-81.357z" fill="#221e1f" stroke="#032a61" stroke-width="6.7994"/>
  <path d="m205.22 898h20.899l9.8387 47.47 9.4314-47.47h17.515l9.9484 47 10.136-47h16.904l-19.051 81.357h-18.643l-9.635-46.311-9.3217 46.311h-19.066l-18.957-81.357z" fill="#221e1f" stroke="#032a61" stroke-width="6.7994"/>
  <path d="m315.61 950.9c1.5197 6.7994 5.8594 10.199 13.442 10.199 4.9507 0 7.8804-2.4597 7.8804-5.6244 0-5.969-4.9507-5.7497-14.241-8.554-15.87-4.6844-23.547-11.249-23.547-24.612 0-15.479 11.421-26.962 30.111-26.962 13.74 0 23.343 7.144 27.793 20.398l-17.891 5.969c-2.115-5.8594-5.5617-8.1937-11.311-8.1937-4.2457 0-7.1754 2.6947-7.1754 5.8437 0 4.8097 4.5434 5.0447 12.831 7.3947 6.8777 1.9897 13.238 3.2744 18.69 8.319 4.4494 4.1047 6.768 10.089 6.768 17.343 0 6.815-2.4127 13.254-6.862 18.064-5.7654 6.2197-13.849 9.6194-23.453 9.6194-17.782 0-29.406-9.1494-32.743-24.863l19.709-4.3397z" fill="#221e1f" stroke="#032a61" stroke-width="6.7994"/>
  <path d="m123.05 898.31v40.875l-24.456-40.828h-23.563l-0.20367 80.934 20.837-0.047v-46.891l27.918 46.938h19.724v-80.934l-20.257-0.047z" fill="#221e1f" stroke="#032a61" stroke-width="6.7994"/>
  <path d="m139.4 883.08v-89.065h55.601l1.7077 24.346h-31.114v11.625h25.349v24.299h-25.568l-0.0157 28.795h-25.96" fill="#fff" stroke="#032a61"/>
  <path d="m356.31 882.96-27.636-46.217 24.863-42.598h-28.56l-10.7 18.502-11.061-18.502h-28.639l25.599 42.896-26.555 45.919 28.106-0.0313 12.768-21.886 13.082 21.918h28.733" fill="#fff" stroke="#032a61"/>
  <path d="m248.95 857.34 0.17234-37.867c0-4.3084-3.8227-8.178-8.2094-8.178-4.4024 0-7.943 3.8697-7.943 8.178l-0.0157 37.757c0 4.3084 3.5564 7.8177 7.9587 7.8177 4.3867 0 8.037-3.3997 8.037-7.708zm-53.518-18.299c0-24.785 20.414-44.901 45.606-44.901s45.622 20.116 45.622 44.901c0 24.8-20.429 44.901-45.622 44.901s-45.606-20.1-45.606-44.901" fill="#fff" stroke="#032a61"/>
  <path d="m148.47 898.01h52.719v18.988h-32.258v11.954h26.524v17.578h-26.524v13.834h32.665v18.988h-53.126v-81.342" fill="#fff" stroke="#032a61"/>
  <path d="m205.17 898.01h20.915l9.8387 47.47 9.4157-47.47h17.515l9.9484 47 10.136-47h16.92l-19.066 81.342h-18.643l-9.635-46.295-9.3217 46.295h-19.066l-18.957-81.342" fill="#fff" stroke="#032a61"/>
  <path d="m315.56 950.92c1.5197 6.7994 5.875 10.199 13.442 10.199 4.9507 0 7.8804-2.4597 7.8804-5.6244 0-5.969-4.9507-5.7497-14.241-8.554-15.87-4.6844-23.547-11.264-23.547-24.612 0-15.479 11.421-26.962 30.111-26.962 13.74 0 23.343 7.144 27.793 20.382l-17.891 5.9847c-2.115-5.8594-5.546-8.2094-11.311-8.2094-4.2457 0-7.1754 2.6947-7.1754 5.8594 0 4.8097 4.5434 5.0447 12.831 7.3947 6.8777 1.9897 13.238 3.2744 18.69 8.319 4.4494 4.1047 6.7837 10.089 6.7837 17.343 0 6.7994-2.4283 13.254-6.8777 18.064-5.7654 6.204-13.849 9.6037-23.453 9.6037-17.782 0-29.406-9.1337-32.743-24.847l19.709-4.3397" fill="#fff" stroke="#032a61"/>
  <path d="m123.02 898.22v40.89l-24.456-40.859h-23.563l-0.20367 80.95 20.837-0.047v-46.891l27.918 46.938h19.724v-80.95l-20.257-0.0313" fill="#fff" stroke="#032a61"/>
  <g transform="matrix(1 0 0 -1 -271.41 1800.7)">
   <g transform="matrix(8.3998 0 0 8.3914 437.86 826.41)">
    <use width="744.09448" height="1052.3622" xlink:href="#id243"/>
   </g>
  </g>
  <g transform="matrix(1 0 0 -1 -271.41 1800.7)">
   <g transform="matrix(-8.6784 12.389 14.345 10.04 421.37 789.32)">
    <g transform="matrix(1.0905 0 0 -1.0947 -.10062 .99128)">
     <use width="744.09448" height="1052.3622" xlink:href="#id292"/>
    </g>
   </g>
  </g>
  <g transform="matrix(1 0 0 -1 -271.41 1800.7)">
   <g transform="matrix(9.4193 -9.4981 -6.9899 -7.0484 211.69 779.41)">
    <g transform="matrix(1.1515 0 0 -1.5516 -.017009 1.2028)">
     <use width="744.09448" height="1052.3622" xlink:href="#id301"/>
    </g>
   </g>
  </g>
  <g transform="matrix(1 0 0 -1 -271.41 1800.7)">
   <g transform="matrix(-11.075 -2.9925 -3.1169 11.73 221.59 769.22)">
    <g transform="matrix(1.0814 0 0 -1.0854 -.040782 1.0402)">
     <use width="744.09448" height="1052.3622" xlink:href="#id304"/>
    </g>
   </g>
  </g>
  <g transform="matrix(1 0 0 -1 -271.41 1800.7)">
   <g transform="matrix(14.425 -14.425 -14.426 -14.426 186.9 834.88)">
    <g transform="matrix(.96997 0 0 -.96995 .014997 .98497)">
     <use width="744.09448" height="1052.3622" xlink:href="#id351"/>
    </g>
   </g>
  </g>
  <g transform="matrix(1 0 0 -1 -271.41 1800.7)">
   <g transform="matrix(0 6.5144 6.6377 0 171.66 818.68)">
    <g transform="matrix(.90596 0 0 -.90768 .046989 .95383)">
     <use width="744.09448" height="1052.3622" xlink:href="#id354"/>
    </g>
   </g>
  </g>
  <g transform="matrix(1 0 0 -1 -271.41 1800.7)">
   <g transform="matrix(0 6.5144 6.638 0 195.5 818.68)">
    <g transform="matrix(.90596 0 0 -.90764 .047058 .95382)">
     <use width="744.09448" height="1052.3622" xlink:href="#id357"/>
    </g>
   </g>
  </g>
  <g transform="matrix(21.823 0 0 -14.534 46.572 805.07)">
   <use width="744.09448" height="1052.3622" xlink:href="#id399"/>
  </g>
  <g transform="matrix(1 0 0 -1 -271.41 1800.7)">
   <g transform="matrix(5.761 0 0 8.0655 152.76 996.34)">
    <use width="744.09448" height="1052.3622" xlink:href="#id404"/>
   </g>
  </g>
  <g transform="matrix(1 0 0 -1 -271.41 1800.7)">
   <g transform="matrix(29.756 0 0 24.767 179.53 993.22)">
    <use width="744.09448" height="1052.3622" xlink:href="#id411"/>
   </g>
  </g>
  <g transform="matrix(1 0 0 -1 -271.41 1800.7)">
   <g transform="matrix(30.465 0 0 18.219 221.58 994.99)">
    <use width="744.09448" height="1052.3622" xlink:href="#id415"/>
   </g>
  </g>
  <g transform="matrix(38.158 0 0 -10.647 124.29 803.42)">
   <use width="744.09448" height="1052.3622" xlink:href="#id416"/>
  </g>
 </g>
</svg>
