<svg version="1.1" viewBox="0 0 600 159.63" xmlns="http://www.w3.org/2000/svg">
 <path d="m98.792 42.578-54.421-0.0243c0 7.4924 0 14.559-0.02435 21.698l43.541 0.0244c0 8.7837-0.0244 33.296-0.0244 42.494l-42.69-0.47-0.061 52.98-45.113-0.03 0.10965-159.25 95.355 0.0487 3.326 42.53z" fill="#f58500"/>
 <path d="m277.89 0.18179 19.17 33.357 19.01-33.442s32.224 0.24365 48.744 0.24365l-43.541 76.252 47.172 82.989-50.182-0.0365-22.124-40.082-22.221 40.058-49.389-0.0487 48.232-82.891-45.15-76.435 50.279 0.0365z" fill="#f58500"/>
 <path d="m171.49 1.8012c-27.11 1.4745-53.15 16.285-65.989 41.638-13.705 22.527-11.072 59.049 4.0591 80.039 17.068 22.77 41.258 35.719 70.24 33.392 29.556-1.5962 57.822-25.372 66.118-53.307 7.1199-23.334 2.67-50.172-10.81-69.249-15.46-21.196-38.3-31.466-63.62-32.502zm0.98305 33.361h2.3467c6.2616 0.0243 11.353 4.4825 11.353 9.989l-0.0634 68.401c-0.0122 5.4702-5.098 9.9573-11.384 9.9573h-2.3149c-6.3104-0.0244-11.416-4.519-11.416-9.989l0.0317-68.401c0-5.4944 5.1249-9.9573 11.448-9.9573z" fill="#f58500"/>
 <path d="m403.72 0.33401v159.28" fill="#f58500"/>
 <path d="m400.72 0.34416v159.29h5.9934v-159.29h-5.9934z" color="#000000" fill="#f58500" style="block-progression:tb;text-indent:0;text-transform:none"/>
 <path d="m489.02 82.607h20.976v10.862h-20.976v20.961h-10.83v-20.961h-21.074v-10.862h21.074v-20.945h10.83v20.945z" fill="#f58500"/>
 <path d="m519.77 119.22c0-49.238 63.694-33.526 63.694-53.134 0-11.387-13.789-15.252-23.22-15.252-9.7173 0-22.344 2.5287-25.431 13.312l-13.327-3.6102c5.3438-16.651 22.647-22.249 38.423-22.249 17.51 0 38.264 7.5382 38.264 27.801 0 29.883-55.854 19.164-61.309 40.618h63.15v12.516h-80.233z" fill="#f58500"/>
</svg>
