<?xml version="1.0" encoding="UTF-8" standalone="no"?>
<svg
   xmlns:dc="http://purl.org/dc/elements/1.1/"
   xmlns:cc="http://creativecommons.org/ns#"
   xmlns:rdf="http://www.w3.org/1999/02/22-rdf-syntax-ns#"
   xmlns:svg="http://www.w3.org/2000/svg"
   xmlns="http://www.w3.org/2000/svg"
   xmlns:xlink="http://www.w3.org/1999/xlink"
   xmlns:sodipodi="http://sodipodi.sourceforge.net/DTD/sodipodi-0.dtd"
   xmlns:inkscape="http://www.inkscape.org/namespaces/inkscape"
   viewBox="0 0 1267.615 446.89801"
   id="svg2"
   version="1.1"
   inkscape:version="0.91 r13725"
   sodipodi:docname="foxsportseredivisie1hd.default.svg"
   width="1267.615"
   height="446.89801">
  <metadata
     id="metadata270">
    <rdf:RDF>
      <cc:Work
         rdf:about="">
        <dc:format>image/svg+xml</dc:format>
        <dc:type
           rdf:resource="http://purl.org/dc/dcmitype/StillImage" />
        <dc:title></dc:title>
      </cc:Work>
    </rdf:RDF>
  </metadata>
  <sodipodi:namedview
     pagecolor="#ffffff"
     bordercolor="#666666"
     borderopacity="1"
     objecttolerance="10"
     gridtolerance="10"
     guidetolerance="10"
     inkscape:pageopacity="0"
     inkscape:pageshadow="2"
     inkscape:window-width="640"
     inkscape:window-height="480"
     id="namedview268"
     showgrid="false"
     inkscape:zoom="0.25455844"
     inkscape:cx="548.41187"
     inkscape:cy="231.58409"
     inkscape:window-x="0"
     inkscape:window-y="0"
     inkscape:window-maximized="0"
     inkscape:current-layer="svg2"
     fit-margin-top="0"
     fit-margin-left="0"
     fit-margin-right="0"
     fit-margin-bottom="0" />
  <linearGradient
     id="a"
     gradientUnits="userSpaceOnUse"
     x1="346.064"
     y1="372.922"
     x2="1443.0179"
     y2="372.922"
     gradientTransform="translate(-175.402,-151.407)">
    <stop
       offset="0"
       stop-color="#8ac2eb"
       id="stop5" />
    <stop
       offset=".841"
       stop-color="#002e52"
       id="stop7" />
  </linearGradient>
  <path
     d="m 1142.38,96.275 -971.718,0 0,250.481 971.718,0 c 69.165,0 125.235,-56.063 125.235,-125.235 10e-4,-69.161 -56.069,-125.246 -125.235,-125.246 z"
     id="path9"
     inkscape:connector-curvature="0"
     style="fill:url(#a)" />
  <g
     id="g11"
     style="fill:#ffffff"
     transform="translate(-175.402,-151.407)">
    <path
       d="m 1078.815,291.926 44.409,0 -11.273,63.901 47.223,0 11.28,-63.901 44.638,0 -28.421,162.121 -44.65,0 10.344,-59.447 -47.229,0 -10.335,59.447 -44.409,0 28.423,-162.121 z m 161.891,0 111.852,0 20.671,24.904 -19.735,112.311 -29.368,24.906 -111.846,0 28.426,-162.121 z m 61.562,129.462 9.399,-7.992 14.33,-80.829 -6.577,-7.983 -39.946,0 -17.151,96.803 39.945,0 z"
       id="path13"
       inkscape:connector-curvature="0" />
  </g>
  <path
     d="m 801.838,140.602 59.657,0 -28.424,162.038 -44.623,0 22.564,-128.937 -29.839,0 3.531,-19.02 17.134,-14.081 z"
     id="path15"
     inkscape:connector-curvature="0"
     style="fill:#ffffff" />
  <path
     d="m 746.238,223.44 c 0,123.413 -167.062,223.457 -373.123,223.457 C 167.051,446.897 0,346.854 0,223.44 0,100.031 167.051,0 373.115,0 579.176,0.001 746.238,100.031 746.238,223.44 Z"
     id="path21"
     inkscape:connector-curvature="0"
     style="fill:#ffffff" />
  <radialGradient
     id="b"
     cx="548.34998"
     cy="374.85199"
     r="406.36401"
     gradientUnits="userSpaceOnUse"
     gradientTransform="translate(-175.402,-151.407)">
    <stop
       offset=".325"
       stop-color="#fff"
       id="stop24" />
    <stop
       offset=".395"
       stop-color="#fafbfc"
       id="stop26" />
    <stop
       offset=".478"
       stop-color="#ebeff2"
       id="stop28" />
    <stop
       offset=".569"
       stop-color="#d3dbe1"
       id="stop30" />
    <stop
       offset=".664"
       stop-color="#b1bfca"
       id="stop32" />
    <stop
       offset=".764"
       stop-color="#869bad"
       id="stop34" />
    <stop
       offset=".867"
       stop-color="#507088"
       id="stop36" />
    <stop
       offset=".971"
       stop-color="#123d5e"
       id="stop38" />
    <stop
       offset="1"
       stop-color="#002e52"
       id="stop40" />
  </radialGradient>
  <path
     d="m 372.948,26.17 c -84.453,0 -159.968,27.395 -210.362,70.452 -31.015,35.635 -49.35,79.433 -49.35,126.818 0,47.39 18.335,91.175 49.342,126.819 50.392,43.061 125.917,70.461 210.37,70.461 84.453,0 159.969,-27.395 210.35,-70.452 31.017,-35.635 49.361,-79.437 49.361,-126.827 0,-47.394 -18.344,-91.192 -49.367,-126.836 C 532.9,53.556 457.39,26.17 372.948,26.17 Z"
     id="path42"
     inkscape:connector-curvature="0"
     style="opacity:0.8;fill:url(#b)" />
  <path
     d="m 373.132,0.001 c -206.081,0 -373.124,100.031 -373.124,223.44 0,123.413 167.043,223.457 373.124,223.457 206.055,0 373.106,-100.043 373.106,-223.457 0,-123.41 -167.051,-223.44 -373.106,-223.44 z m 0,427.798 C 217.484,427.799 91.33,336.317 91.33,223.44 91.33,110.581 217.483,19.081 373.132,19.081 c 155.611,0 281.773,91.5 281.773,204.359 0,112.877 -126.162,204.359 -281.773,204.359 z"
     id="path44"
     inkscape:connector-curvature="0"
     style="opacity:0.25;fill:#002e52" />
  <path
     d="M 364.809,427.647 C 213.03,424.454 91.331,334.297 91.331,223.44 c 0,-110.844 121.7,-201.01 273.478,-204.212 l 0,-12.023 C 166.499,9.822 7.09,105.593 7.09,223.439 c 0,117.855 159.409,213.613 357.719,216.235 l 0,-12.027 z m 16.609,-420.441 0,12.023 c 151.787,3.202 273.496,93.367 273.496,204.212 0,110.858 -121.708,201.014 -273.496,204.207 l 0,12.027 C 579.731,437.054 739.15,341.295 739.15,223.44 739.15,105.586 579.731,9.823 381.418,7.206 Z"
     id="path46"
     inkscape:connector-curvature="0"
     style="fill:#ffffff" />
  <radialGradient
     id="c"
     cx="361.35199"
     cy="374.84698"
     r="198.429"
     gradientUnits="userSpaceOnUse"
     gradientTransform="translate(-175.402,-151.407)">
    <stop
       offset=".601"
       stop-color="#fff"
       id="stop49" />
    <stop
       offset=".651"
       stop-color="#fbfcfd"
       stop-opacity=".917"
       id="stop51" />
    <stop
       offset=".701"
       stop-color="#eff4f8"
       stop-opacity=".834"
       id="stop53" />
    <stop
       offset=".751"
       stop-color="#dbe6f0"
       stop-opacity=".751"
       id="stop55" />
    <stop
       offset=".802"
       stop-color="#bfd3e4"
       stop-opacity=".668"
       id="stop57" />
    <stop
       offset=".852"
       stop-color="#9bbad4"
       stop-opacity=".585"
       id="stop59" />
    <stop
       offset=".902"
       stop-color="#6e9cc1"
       stop-opacity=".502"
       id="stop61" />
    <stop
       offset=".951"
       stop-color="#3b78ab"
       stop-opacity=".421"
       id="stop63" />
    <stop
       offset="1"
       stop-color="#005092"
       stop-opacity=".34"
       id="stop65" />
  </radialGradient>
  <path
     d="M 364.809,427.647 C 213.03,424.454 91.331,334.297 91.331,223.44 c 0,-110.844 121.7,-201.01 273.478,-204.212 l 0,-12.023 C 166.499,9.822 7.09,105.593 7.09,223.439 c 0,117.855 159.409,213.613 357.719,216.235 l 0,-12.027 z"
     id="path67"
     inkscape:connector-curvature="0"
     style="opacity:0.11000001;fill:url(#c)" />
  <radialGradient
     id="d"
     cx="735.68597"
     cy="374.84698"
     r="198.43201"
     gradientUnits="userSpaceOnUse"
     gradientTransform="translate(-175.402,-151.407)">
    <stop
       offset=".601"
       stop-color="#fff"
       id="stop70" />
    <stop
       offset=".651"
       stop-color="#fbfcfd"
       stop-opacity=".917"
       id="stop72" />
    <stop
       offset=".701"
       stop-color="#eff4f8"
       stop-opacity=".834"
       id="stop74" />
    <stop
       offset=".751"
       stop-color="#dbe6f0"
       stop-opacity=".751"
       id="stop76" />
    <stop
       offset=".802"
       stop-color="#bfd3e4"
       stop-opacity=".668"
       id="stop78" />
    <stop
       offset=".852"
       stop-color="#9bbad4"
       stop-opacity=".585"
       id="stop80" />
    <stop
       offset=".902"
       stop-color="#6e9cc1"
       stop-opacity=".502"
       id="stop82" />
    <stop
       offset=".951"
       stop-color="#3b78ab"
       stop-opacity=".421"
       id="stop84" />
    <stop
       offset="1"
       stop-color="#005092"
       stop-opacity=".34"
       id="stop86" />
  </radialGradient>
  <path
     d="m 381.418,7.206 0,12.023 c 151.787,3.202 273.496,93.367 273.496,204.212 0,110.858 -121.708,201.014 -273.496,204.207 l 0,12.027 C 579.731,437.054 739.15,341.295 739.15,223.44 739.15,105.586 579.731,9.823 381.418,7.206 Z"
     id="path88"
     inkscape:connector-curvature="0"
     style="opacity:0.11000001;fill:url(#d)" />
  <g
     id="g90"
     style="fill:#002e52"
     transform="translate(-175.402,-151.407)">
    <path
       d="M 254.56,364.969 C 259.051,294.11 311.228,232.28 388.519,195.986 l -1.582,-5.927 c -109.22,33.057 -185.315,98.587 -191.4,174.91 l 59.023,0 z m -0.221,14.623 -59.098,0 c 2.994,78.519 80.034,146.246 191.697,180.057 l 1.582,-5.931 C 309.354,516.549 256.547,452.6 254.339,379.592 Z"
       id="path92"
       inkscape:connector-curvature="0" />
  </g>
  <g
     id="g94"
     style="fill:#002e52"
     transform="translate(-175.402,-151.407)">
    <path
       d="m 842.482,364.969 59.023,0 C 895.42,288.555 819.132,222.965 709.711,189.937 l -1.573,5.866 c 77.52,36.26 129.862,98.19 134.344,169.166 z m 0.225,14.623 c -2.203,73.116 -55.186,137.156 -134.535,174.303 l 1.564,5.866 C 821.601,525.98 898.807,458.197 901.81,379.591 l -59.103,0 z"
       id="path96"
       inkscape:connector-curvature="0" />
  </g>
  <linearGradient
     id="e"
     gradientUnits="userSpaceOnUse"
     x1="548.34497"
     y1="425.11301"
     x2="548.34497"
     y2="67.07"
     gradientTransform="translate(-175.402,-151.407)">
    <stop
       offset=".498"
       stop-color="#fff"
       id="stop99" />
    <stop
       offset=".561"
       stop-color="#fbfcfd"
       stop-opacity=".917"
       id="stop101" />
    <stop
       offset=".624"
       stop-color="#eff4f8"
       stop-opacity=".834"
       id="stop103" />
    <stop
       offset=".687"
       stop-color="#dbe6f0"
       stop-opacity=".751"
       id="stop105" />
    <stop
       offset=".75"
       stop-color="#bfd3e4"
       stop-opacity=".668"
       id="stop107" />
    <stop
       offset=".814"
       stop-color="#9bbad4"
       stop-opacity=".585"
       id="stop109" />
    <stop
       offset=".877"
       stop-color="#6e9cc1"
       stop-opacity=".502"
       id="stop111" />
    <stop
       offset=".939"
       stop-color="#3b78ab"
       stop-opacity=".421"
       id="stop113" />
    <stop
       offset="1"
       stop-color="#005092"
       stop-opacity=".34"
       id="stop115" />
  </linearGradient>
  <path
     d="M 620.598,158.218 C 612.11,135.901 599.446,115.135 583.31,96.587 532.926,53.547 457.408,26.157 372.966,26.157 c -84.459,0 -159.968,27.39 -210.37,70.456 -16.146,18.57 -28.829,39.366 -37.308,61.722 87.585,-47.108 161.048,-54.205 246.155,-54.205 90.009,0 160.905,7.097 249.155,54.088 z"
     id="path117"
     inkscape:connector-curvature="0"
     style="opacity:0.7;fill:url(#e)" />
  <defs
     id="defs119">
    <path
       id="f"
       d="m 219.982,292.581 c 25.328,-12.253 49.272,-18.786 77.679,-23.942 22.544,-26.589 44.818,-43.434 92.147,-68.767 17.859,-9.567 13.758,-18.656 -5.006,-13.639 -18.762,5.004 -103.016,25.887 -164.82,106.348 z"
       inkscape:connector-curvature="0" />
  </defs>
  <clipPath
     id="g">
    <use
       xlink:href="#f"
       overflow="visible"
       id="use123"
       style="overflow:visible"
       x="0"
       y="0"
       width="100%"
       height="100%" />
  </clipPath>
  <g
     clip-path="url(#g)"
     id="g125"
     transform="translate(-175.402,-151.407)">
    <linearGradient
       id="h"
       gradientUnits="userSpaceOnUse"
       x1="49.456001"
       y1="411.819"
       x2="548.008"
       y2="157.877">
      <stop
         offset="0"
         stop-color="#8ac2eb"
         id="stop128" />
      <stop
         offset=".7"
         stop-color="#002e52"
         id="stop130" />
    </linearGradient>
    <path
       d="m 254.586,364.965 c 4.491,-70.859 56.666,-132.689 133.97,-168.984 l -1.595,-5.922 c -109.22,33.053 -185.304,98.583 -191.385,174.906 l 59.01,0 z"
       id="path132"
       inkscape:connector-curvature="0"
       style="fill:url(#h)" />
    <linearGradient
       id="i"
       gradientUnits="userSpaceOnUse"
       x1="322.47198"
       y1="453.646"
       x2="619.82001"
       y2="302.18799">
      <stop
         offset="0"
         stop-color="#2974b9"
         id="stop135" />
      <stop
         offset="1"
         stop-color="#004887"
         id="stop137" />
    </linearGradient>
    <path
       d="m 254.368,379.587 -59.101,0 c 2.994,78.523 80.035,146.25 191.695,180.062 l 1.595,-5.931 C 309.389,516.549 256.582,452.6 254.368,379.587 Z"
       id="path139"
       inkscape:connector-curvature="0"
       style="fill:url(#i)" />
  </g>
  <g
     id="g141"
     transform="translate(-175.402,-151.407)">
    <defs
       id="defs143">
      <path
         id="j"
         d="M 876.631,292.581 C 851.3,280.328 827.359,273.795 798.952,268.639 776.408,242.05 754.133,225.205 706.796,199.872 c -17.861,-9.567 -13.747,-18.656 5.015,-13.639 18.771,5.004 103.016,25.887 164.82,106.348 z"
         inkscape:connector-curvature="0" />
    </defs>
    <clipPath
       id="k">
      <use
         xlink:href="#j"
         overflow="visible"
         id="use147"
         style="overflow:visible"
         x="0"
         y="0"
         width="100%"
         height="100%" />
    </clipPath>
    <g
       clip-path="url(#k)"
       id="g149">
      <linearGradient
         id="l"
         gradientUnits="userSpaceOnUse"
         x1="1046.531"
         y1="413.71799"
         x2="548.48499"
         y2="154.80499">
        <stop
           offset="0"
           stop-color="#8ac2eb"
           id="stop152" />
        <stop
           offset=".7"
           stop-color="#002e52"
           id="stop154" />
      </linearGradient>
      <path
         d="m 842.514,364.965 59.025,0 c -6.083,-76.418 -82.371,-142 -191.803,-175.027 l -1.564,5.854 c 77.518,36.271 129.865,98.192 134.342,169.173 z"
         id="path156"
         inkscape:connector-curvature="0"
         style="fill:url(#l)" />
      <linearGradient
         id="m"
         gradientUnits="userSpaceOnUse"
         x1="782.70502"
         y1="457.66599"
         x2="474.215"
         y2="297.29599">
        <stop
           offset="0"
           stop-color="#2974b9"
           id="stop159" />
        <stop
           offset="1"
           stop-color="#004887"
           id="stop161" />
      </linearGradient>
      <path
         d="m 842.744,379.587 c -2.214,73.121 -55.177,137.161 -134.548,174.308 l 1.568,5.866 C 821.635,525.98 898.842,458.188 901.842,379.587 l -59.098,0 z"
         id="path163"
         inkscape:connector-curvature="0"
         style="fill:url(#m)" />
    </g>
  </g>
  <g
     id="g165"
     transform="translate(-175.402,-151.407)">
    <radialGradient
       id="n"
       cx="544.91901"
       cy="138.92"
       r="404.45499"
       gradientUnits="userSpaceOnUse">
      <stop
         offset="0"
         stop-color="#8ac2eb"
         id="stop168" />
      <stop
         offset=".65"
         stop-color="#002e52"
         id="stop170" />
    </radialGradient>
    <path
       d="m 346.064,423.723 0,-176.041 106.012,0 3.256,48.131 -59.345,0 0,22.962 48.351,0 0,48.04 -48.7,0 0,56.908 z"
       id="path172"
       inkscape:connector-curvature="0"
       style="fill:url(#n)" />
    <path
       d="m 452.076,247.682 3.256,48.131 -59.345,0 0,22.963 48.351,0 0,48.039 -48.7,0 0,56.908 -49.574,0 0,-176.041 106.012,0 m 2.784,-2.985 -111.781,0 0,182.011 55.555,0 0,-56.908 48.704,0 0,-54.014 -48.353,0 0,-16.984 59.549,0 -0.23,-3.197 -3.26,-48.126 -0.184,-2.782 z"
       id="path174"
       inkscape:connector-curvature="0"
       style="fill:#edf4fa" />
    <g
       id="g176">
      <radialGradient
         id="o"
         cx="544.91998"
         cy="138.923"
         r="404.457"
         gradientUnits="userSpaceOnUse">
        <stop
           offset="0"
           stop-color="#8ac2eb"
           id="stop179" />
        <stop
           offset=".65"
           stop-color="#002e52"
           id="stop181" />
      </radialGradient>
      <path
         d="m 755.971,423.467 -53.026,-91.343 48.178,-84.195 -53.061,0 -22.029,37.914 -21.641,-37.914 -54.915,0 49.114,84.78 -52.022,90.867 53.352,-0.026 25.449,-44.496 25.729,44.413 z"
         id="path183"
         inkscape:connector-curvature="0"
         style="fill:url(#o)" />
      <path
         d="m 751.123,247.929 -48.178,84.195 53.026,91.344 -54.872,0 -25.729,-44.413 -25.449,44.496 -53.351,0.026 52.021,-90.867 -49.114,-84.78 54.915,0 21.641,37.914 22.029,-37.914 53.061,0 m 5.147,-2.986 -59.93,0 -0.866,1.486 -19.423,33.417 -19.059,-33.404 -0.858,-1.499 -61.839,0 2.602,4.492 48.237,83.281 -51.172,89.373 -2.563,4.48 5.171,-0.008 53.351,-0.022 1.742,0 0.858,-1.508 22.867,-39.981 23.13,39.921 0.858,1.486 61.789,0 -2.608,-4.488 -52.153,-89.862 47.323,-82.687 2.543,-4.477 z"
         id="path185"
         inkscape:connector-curvature="0"
         style="fill:#edf4fa" />
    </g>
    <g
       id="g187">
      <radialGradient
         id="p"
         cx="544.92102"
         cy="138.925"
         r="404.45099"
         gradientUnits="userSpaceOnUse">
        <stop
           offset="0"
           stop-color="#8ac2eb"
           id="stop190" />
        <stop
           offset=".65"
           stop-color="#002e52"
           id="stop192" />
      </radialGradient>
      <path
         d="m 453.989,335.923 c 0,-47.251 37.546,-85.586 83.874,-85.586 46.341,0 83.894,38.335 83.894,85.586 0,47.281 -37.553,85.603 -83.894,85.603 -46.328,0 -83.874,-38.321 -83.874,-85.603 z m 98.956,35.142 0,-70.326 c 0,-8.011 -6.984,-15.203 -14.848,-15.203 -7.846,0 -14.211,7.192 -14.211,15.203 l -0.017,70.127 c 0,8.02 6.382,14.527 14.228,14.527 7.864,0 14.848,-6.291 14.848,-14.328 z"
         id="path194"
         inkscape:connector-curvature="0"
         style="fill:url(#p)" />
      <path
         d="m 537.863,250.338 c 46.341,0 83.894,38.335 83.894,85.586 0,47.281 -37.553,85.603 -83.894,85.603 -46.328,0 -83.874,-38.322 -83.874,-85.603 0,-47.252 37.546,-85.586 83.874,-85.586 m 0.234,135.055 c 7.864,0 14.848,-6.291 14.848,-14.328 l 0,-70.326 c 0,-8.011 -6.984,-15.203 -14.848,-15.203 -7.846,0 -14.211,7.192 -14.211,15.203 l -0.017,70.127 c 0,8.019 6.382,14.527 14.228,14.527 m -0.234,-138.049 c -47.91,0 -86.868,39.734 -86.868,88.579 0,48.85 38.959,88.592 86.868,88.592 47.899,0 86.879,-39.743 86.879,-88.592 0,-48.845 -38.98,-88.579 -86.879,-88.579 z m 0.234,135.051 c -6.2,0 -11.239,-5.169 -11.239,-11.529 l 0.015,-70.127 c 0,-6.499 5.253,-12.205 11.224,-12.205 6.204,0 11.861,5.815 11.861,12.205 l 0,70.326 c 0,6.148 -5.436,11.33 -11.861,11.33 z"
         id="path196"
         inkscape:connector-curvature="0"
         style="fill:#edf4fa" />
    </g>
    <g
       id="g198">
      <radialGradient
         id="q"
         cx="549.34998"
         cy="102.724"
         r="472.858"
         gradientUnits="userSpaceOnUse">
        <stop
           offset="0"
           stop-color="#8ac2eb"
           id="stop201" />
        <stop
           offset=".841"
           stop-color="#002e52"
           id="stop203" />
      </radialGradient>
      <path
         d="m 341.979,498.213 0,-9.177 4.708,-4.527 37.858,0 1.432,-1.425 0,-8.6 -1.031,-1.039 -35.156,0 -7.812,-7.795 0,-21.204 8.997,-8.99 50.984,0 0,9.891 -3.659,3.743 -36.989,0 -1.421,1.421 0,8.362 1.029,1.035 35.085,0 7.794,7.803 0,21.516 -8.99,8.986 -52.829,0 z"
         id="path205"
         inkscape:connector-curvature="0"
         style="fill:url(#q)" />
      <path
         d="m 401.959,435.456 0,9.891 -3.659,3.743 -36.989,0 -1.421,1.421 0,8.362 1.029,1.035 35.085,0 7.794,7.803 0,21.516 -8.99,8.986 -52.83,0 0,-9.177 4.708,-4.527 37.858,0 1.432,-1.425 0,-8.6 -1.031,-1.039 -35.155,0 -7.812,-7.795 0,-21.204 8.997,-8.99 50.984,0 m 2.998,-2.99 -55.219,0 -0.88,0.875 -8.99,8.986 -0.875,0.879 0,23.687 0.875,0.879 7.803,7.795 0.88,0.871 34.427,0 0,5.082 -37.497,0 -0.882,0.836 -4.694,4.528 -0.912,0.884 0,13.44 57.054,0 0.879,-0.875 8.99,-8.986 0.866,-0.879 0,-23.994 -0.866,-0.875 -7.795,-7.799 -0.879,-0.875 -34.361,0 0,-4.839 36.684,0 0.88,-0.905 3.659,-3.735 0.854,-0.879 0,-14.101 -0.001,0 z"
         id="path207"
         inkscape:connector-curvature="0"
         style="fill:#edf4fa" />
      <radialGradient
         id="r"
         cx="549.328"
         cy="102.724"
         r="479.12"
         gradientUnits="userSpaceOnUse">
        <stop
           offset="0"
           stop-color="#8ac2eb"
           id="stop210" />
        <stop
           offset=".841"
           stop-color="#002e52"
           id="stop212" />
      </radialGradient>
      <path
         d="m 415.097,435.456 52.892,0 10.017,10.03 0,22.941 -10.017,10.026 -34.992,0 0,19.761 -17.9,0 0,-62.758 z m 42.304,30.345 2.63,-2.626 0,-11.303 -2.63,-2.634 -24.403,0 0,16.563 24.403,0 z"
         id="path214"
         inkscape:connector-curvature="0"
         style="fill:url(#r)" />
      <path
         d="m 467.989,435.456 10.017,10.03 0,22.941 -10.017,10.026 -34.992,0 0,19.761 -17.9,0 0,-62.757 52.892,0 m -34.991,30.344 24.403,0 2.63,-2.626 0,-11.303 -2.63,-2.634 -24.403,0 0,16.563 m 36.231,-33.335 -54.131,0 -2.989,1.126 0,67.615 23.872,0 0,-19.766 33.248,0 0.877,-0.875 10.015,-10.017 0.879,-0.871 0,-25.432 -0.879,-0.875 -10.015,-10.03 -0.877,-0.875 z m -33.249,19.765 20.186,0 0.88,0.88 0,8.825 -0.88,0.866 -20.186,0 0,-10.571 z"
         id="path216"
         inkscape:connector-curvature="0"
         style="fill:#edf4fa" />
      <g
         id="g218">
        <radialGradient
           id="s"
           cx="549.33398"
           cy="102.724"
           r="481.431"
           gradientUnits="userSpaceOnUse">
          <stop
             offset="0"
             stop-color="#8ac2eb"
             id="stop221" />
          <stop
             offset=".841"
             stop-color="#002e52"
             id="stop223" />
        </radialGradient>
        <path
           d="m 487.796,488.2 0,-42.715 9.939,-10.03 43.908,0 10.021,10.03 0,42.715 -10.021,10.013 -43.908,0 -9.939,-10.013 z m 42.299,-4.094 3.685,-3.648 0,-27.235 -3.685,-3.661 -20.827,0 -3.659,3.661 0,27.235 3.659,3.648 20.827,0 z"
           id="path225"
           inkscape:connector-curvature="0"
           style="fill:url(#s)" />
        <path
           d="m 541.643,435.456 10.021,10.03 0,42.714 -10.021,10.013 -43.908,0 -9.939,-10.013 0,-42.715 9.939,-10.03 43.908,0 m -32.375,48.651 20.827,0 3.685,-3.648 0,-27.235 -3.685,-3.661 -20.827,0 -3.659,3.661 0,27.235 3.659,3.648 m 33.608,-51.64 -46.391,0 -0.871,0.884 -9.945,10.034 -0.871,0.866 0,45.176 0.871,0.879 9.945,10.017 0.871,0.884 46.391,0 0.882,-0.875 10.026,-10.017 0.875,-0.875 0,-45.193 -0.875,-0.875 -10.026,-10.03 -0.882,-0.875 z m -32.367,20.091 18.348,0 1.924,1.91 0,24.748 -1.917,1.898 -18.359,0 -1.9,-1.898 0,-24.752 1.904,-1.906 z"
           id="path227"
           inkscape:connector-curvature="0"
           style="fill:#edf4fa" />
      </g>
      <g
         id="g229">
        <radialGradient
           id="t"
           cx="549.08698"
           cy="102.724"
           r="479.005"
           gradientUnits="userSpaceOnUse">
          <stop
             offset="0"
             stop-color="#8ac2eb"
             id="stop232" />
          <stop
             offset=".841"
             stop-color="#002e52"
             id="stop234" />
        </radialGradient>
        <path
           d="m 563.358,435.456 53.438,0 8.996,8.99 0,19.609 -8.585,8.596 11.297,25.563 -19.901,0 -8.412,-22.465 -18.953,0 0,22.465 -17.88,0 0,-62.758 z m 41.981,27.88 2.556,-2.547 0,-9.467 -2.556,-2.565 -24.1,0 0,14.579 24.1,0 z"
           id="path236"
           inkscape:connector-curvature="0"
           style="fill:url(#t)" />
        <path
           d="m 616.796,435.456 8.996,8.99 0,19.609 -8.585,8.596 11.297,25.563 -19.901,0 -8.412,-22.465 -18.953,0 0,22.465 -17.88,0 0,-62.757 53.438,0 m -35.558,27.879 24.1,0 2.556,-2.547 0,-9.467 -2.556,-2.565 -24.1,0 0,14.579 m 36.81,-30.87 -57.682,0 0,68.741 23.855,0 0,-22.477 14.02,0 7.632,20.692 0.786,1.785 26.502,0 -1.943,-4.237 -10.433,-23.682 7.125,-7.123 0.884,-0.866 0,-22.092 -0.884,-0.879 -8.999,-8.986 -0.863,-0.876 z m -33.826,19.293 19.882,0 0.799,0.797 0,6.992 -0.788,0.789 -19.893,0 0,-8.578 z"
           id="path238"
           inkscape:connector-curvature="0"
           style="fill:#edf4fa" />
      </g>
      <g
         id="g240">
        <radialGradient
           id="u"
           cx="549.328"
           cy="102.724"
           r="473.19299"
           gradientUnits="userSpaceOnUse">
          <stop
             offset="0"
             stop-color="#8ac2eb"
             id="stop243" />
          <stop
             offset=".841"
             stop-color="#002e52"
             id="stop245" />
        </radialGradient>
        <path
           d="m 652.93,450.511 -20.69,0 0,-15.055 59.27,0 0,15.055 -20.69,0 0,47.702 -17.89,0 0,-47.702 z"
           id="path247"
           inkscape:connector-curvature="0"
           style="fill:url(#u)" />
        <path
           d="m 691.509,435.456 0,15.055 -20.69,0 0,47.702 -17.889,0 0,-47.702 -20.69,0 0,-15.055 59.269,0 m 2.985,-2.99 -65.253,0 0,21.048 20.688,0 0,47.693 23.883,0 0,-47.693 20.681,0 0,-21.048 10e-4,0 z"
           id="path249"
           inkscape:connector-curvature="0"
           style="fill:#edf4fa" />
      </g>
      <g
         id="g251">
        <radialGradient
           id="v"
           cx="549.34003"
           cy="102.724"
           r="465.94199"
           gradientUnits="userSpaceOnUse">
          <stop
             offset="0"
             stop-color="#8ac2eb"
             id="stop254" />
          <stop
             offset=".841"
             stop-color="#002e52"
             id="stop256" />
        </radialGradient>
        <path
           d="m 697.616,498.213 0,-9.177 4.69,-4.527 37.88,0 1.414,-1.425 0,-8.6 -1.033,-1.039 -35.143,0 -7.807,-7.795 0,-21.204 8.999,-8.99 50.984,0 0,9.891 -3.668,3.743 -36.974,0 -1.436,1.421 0,8.362 1.023,1.035 35.087,0 7.796,7.803 0,21.516 -8.988,8.986 -52.824,0 z"
           id="path258"
           inkscape:connector-curvature="0"
           style="fill:url(#v)" />
        <path
           d="m 757.6,435.456 0,9.891 -3.668,3.743 -36.974,0 -1.436,1.421 0,8.362 1.023,1.035 35.087,0 7.796,7.803 0,21.516 -8.988,8.986 -52.825,0 0,-9.177 4.69,-4.527 37.88,0 1.414,-1.425 0,-8.6 -1.033,-1.039 -35.143,0 -7.807,-7.795 0,-21.204 8.999,-8.99 50.985,0 m 2.983,-2.99 -55.204,0 -0.884,0.875 -8.999,8.986 -0.875,0.879 0,23.687 0.875,0.879 7.816,7.795 0.869,0.871 34.437,0 0,5.082 -37.512,0 -0.866,0.836 -4.701,4.528 -0.918,0.884 0,13.44 57.054,0 0.884,-0.875 8.979,-8.986 0.884,-0.879 0,-23.994 -0.884,-0.875 -7.788,-7.799 -0.884,-0.875 -34.362,0 0,-4.839 36.688,0 0.873,-0.905 3.659,-3.735 0.858,-0.879 0,-14.101 10e-4,0 z"
           id="path260"
           inkscape:connector-curvature="0"
           style="fill:#edf4fa" />
      </g>
    </g>
  </g>
  <path
     d="m 373.132,19.081 c -155.648,0 -281.802,91.5 -281.802,204.359 0,112.877 126.153,204.359 281.802,204.359 155.611,0 281.773,-91.482 281.773,-204.359 0,-112.859 -126.162,-204.359 -281.773,-204.359 z m 210.167,331.186 c -50.381,43.057 -125.898,70.452 -210.35,70.452 -84.453,0 -159.978,-27.399 -210.37,-70.461 -31.006,-35.644 -49.342,-79.429 -49.342,-126.819 0,-47.385 18.335,-91.183 49.35,-126.818 50.394,-43.057 125.909,-70.452 210.362,-70.452 84.442,0 159.952,27.386 210.344,70.435 31.023,35.644 49.367,79.442 49.367,126.836 0,47.39 -18.344,91.192 -49.361,126.827 z"
     id="path262"
     inkscape:connector-curvature="0"
     style="opacity:0.45;fill:#002e52" />
</svg>
