<svg xmlns="http://www.w3.org/2000/svg" xmlns:xlink="http://www.w3.org/1999/xlink" viewBox="0 0 1332.734 446.89301" width="1332.734" height="446.893"><linearGradient id="a" gradientUnits="userSpaceOnUse" x1="311.498" y1="369.093" x2="1473.571" y2="369.093" gradientTransform="translate(-140.837 -147.58)"><stop offset="0" stop-color="#8ac2eb"/><stop offset=".841" stop-color="#002e52"/></linearGradient><path d="M1207.499 96.273h-1036.838v250.48h1036.839c69.165 0 125.234-56.063 125.234-125.234 0-69.161-56.07-125.246-125.235-125.246z" fill="url(#a)"/><path d="M779.39 269.526h74.461l6.562-5.407 3.997-22.304-4.699-5.401h-51.18l5.628-32.187h50.97l6.566-5.621 3.293-19.495-4.458-5.418h-74.232l-12.205-14.087 3.299-19.007h116.487l18.534 22.54-6.795 38.272-21.606 18.329 15.257 19.02-7.274 41.331-26.073 22.546h-116.949l3.279-19.018 17.138-14.093z" fill="#fff"/><path d="M968.534 140.518h44.409l-11.273 63.901h47.222l11.28-63.901h44.638l-28.421 162.12h-44.649l10.344-59.447h-47.229l-10.335 59.447h-44.409l28.423-162.12zm161.89 0h111.851l20.671 24.904-19.735 112.31-29.368 24.906h-111.845l28.426-162.12zm61.561 129.461l9.4-7.992 14.33-80.828-6.577-7.983h-39.946l-17.151 96.802h39.944z" fill="#fff"/><path d="M746.233 223.438c0 123.413-167.061 223.455-373.121 223.455-206.062 0-373.112-100.043-373.112-223.455 0-123.408 167.05-223.438 373.112-223.438 206.06 0 373.121 100.03 373.121 223.438z" fill="#fff"/><radialGradient id="b" cx="513.782" cy="371.022" r="406.361" gradientUnits="userSpaceOnUse" gradientTransform="translate(-140.837 -147.58)"><stop offset=".325" stop-color="#fff"/><stop offset=".395" stop-color="#fafbfc"/><stop offset=".478" stop-color="#ebeff2"/><stop offset=".569" stop-color="#d3dbe1"/><stop offset=".664" stop-color="#b1bfca"/><stop offset=".764" stop-color="#869bad"/><stop offset=".867" stop-color="#507088"/><stop offset=".971" stop-color="#123d5e"/><stop offset="1" stop-color="#002e52"/></radialGradient><path d="M372.946 26.169c-84.452 0-159.966 27.395-210.361 70.452-31.014 35.635-49.35 79.433-49.35 126.818 0 47.39 18.335 91.174 49.341 126.818 50.392 43.061 125.917 70.46 210.369 70.46s159.968-27.395 210.349-70.452c31.017-35.635 49.361-79.437 49.361-126.827 0-47.394-18.344-91.191-49.367-126.835-50.392-43.048-125.901-70.434-210.342-70.434z" opacity=".8" fill="url(#b)"/><path d="M373.13 0c-206.08 0-373.121 100.03-373.121 223.438 0 123.413 167.041 223.455 373.121 223.455 206.054 0 373.103-100.043 373.103-223.455 0-123.408-167.05-223.438-373.103-223.438zm0 427.796c-155.647 0-281.8-91.482-281.8-204.357 0-112.858 126.153-204.357 281.8-204.357 155.61 0 281.771 91.499 281.771 204.357 0 112.875-126.162 204.357-281.771 204.357z" opacity=".25" fill="#002e52"/><path d="M364.807 427.644c-151.778-3.193-273.477-93.349-273.477-204.206 0-110.843 121.699-201.008 273.477-204.21v-12.023c-198.309 2.617-357.717 98.387-357.717 216.233 0 117.854 159.407 213.612 357.717 216.233v-12.027zm16.608-420.439v12.023c151.786 3.202 273.494 93.367 273.494 204.21 0 110.857-121.708 201.013-273.494 204.206v12.027c198.311-2.621 357.729-98.379 357.729-216.233.001-117.854-159.417-213.616-357.729-216.233z" fill="#fff"/><radialGradient id="c" cx="326.785" cy="371.018" r="198.428" gradientUnits="userSpaceOnUse" gradientTransform="translate(-140.837 -147.58)"><stop offset=".601" stop-color="#fff"/><stop offset=".651" stop-color="#fbfcfd" stop-opacity=".917"/><stop offset=".701" stop-color="#eff4f8" stop-opacity=".834"/><stop offset=".751" stop-color="#dbe6f0" stop-opacity=".751"/><stop offset=".802" stop-color="#bfd3e4" stop-opacity=".668"/><stop offset=".852" stop-color="#9bbad4" stop-opacity=".585"/><stop offset=".902" stop-color="#6e9cc1" stop-opacity=".502"/><stop offset=".951" stop-color="#3b78ab" stop-opacity=".421"/><stop offset="1" stop-color="#005092" stop-opacity=".34"/></radialGradient><path d="M364.807 427.644c-151.778-3.193-273.477-93.349-273.477-204.206 0-110.843 121.699-201.008 273.477-204.21v-12.023c-198.309 2.617-357.717 98.387-357.717 216.233 0 117.854 159.407 213.612 357.717 216.233v-12.027z" opacity=".11" fill="url(#c)"/><radialGradient id="d" cx="701.117" cy="371.018" r="198.43" gradientUnits="userSpaceOnUse" gradientTransform="translate(-140.837 -147.58)"><stop offset=".601" stop-color="#fff"/><stop offset=".651" stop-color="#fbfcfd" stop-opacity=".917"/><stop offset=".701" stop-color="#eff4f8" stop-opacity=".834"/><stop offset=".751" stop-color="#dbe6f0" stop-opacity=".751"/><stop offset=".802" stop-color="#bfd3e4" stop-opacity=".668"/><stop offset=".852" stop-color="#9bbad4" stop-opacity=".585"/><stop offset=".902" stop-color="#6e9cc1" stop-opacity=".502"/><stop offset=".951" stop-color="#3b78ab" stop-opacity=".421"/><stop offset="1" stop-color="#005092" stop-opacity=".34"/></radialGradient><path d="M381.415 7.205v12.023c151.786 3.202 273.494 93.367 273.494 204.21 0 110.857-121.708 201.013-273.494 204.206v12.027c198.311-2.621 357.729-98.379 357.729-216.233.001-117.854-159.417-213.616-357.729-216.233z" opacity=".11" fill="url(#d)"/><path d="M79.157 213.56c4.491-70.859 56.668-132.688 133.958-168.982l-1.582-5.927c-109.219 33.057-185.314 98.587-191.399 174.909h59.023zm-.22 14.622h-59.098c2.994 78.519 80.033 146.245 191.696 180.056l1.582-5.931c-79.166-37.169-131.973-101.117-134.18-174.125z" fill="#002e52"/><path d="M667.075 213.56h59.022c-6.085-76.413-82.372-142.003-191.793-175.031l-1.573 5.866c77.521 36.26 129.862 98.189 134.344 169.165zm.226 14.622c-2.203 73.116-55.186 137.155-134.534 174.302l1.564 5.866c111.864-33.781 189.07-101.564 192.073-180.169h-59.103z" fill="#002e52"/><linearGradient id="e" gradientUnits="userSpaceOnUse" x1="513.777" y1="421.284" x2="513.777" y2="63.243" gradientTransform="translate(-140.837 -147.58)"><stop offset=".498" stop-color="#fff"/><stop offset=".561" stop-color="#fbfcfd" stop-opacity=".917"/><stop offset=".624" stop-color="#eff4f8" stop-opacity=".834"/><stop offset=".687" stop-color="#dbe6f0" stop-opacity=".751"/><stop offset=".75" stop-color="#bfd3e4" stop-opacity=".668"/><stop offset=".814" stop-color="#9bbad4" stop-opacity=".585"/><stop offset=".877" stop-color="#6e9cc1" stop-opacity=".502"/><stop offset=".939" stop-color="#3b78ab" stop-opacity=".421"/><stop offset="1" stop-color="#005092" stop-opacity=".34"/></linearGradient><path d="M620.594 158.216c-8.487-22.317-21.152-43.083-37.288-61.63-50.383-43.04-125.902-70.43-210.343-70.43-84.459 0-159.966 27.39-210.369 70.456-16.145 18.57-28.829 39.366-37.308 61.721 87.585-47.107 161.047-54.205 246.154-54.205 90.008 0 160.904 7.097 249.154 54.088z" opacity=".7" fill="url(#e)"/><defs><path id="f" d="M185.417 288.752c25.328-12.253 49.272-18.786 77.678-23.942 22.544-26.589 44.818-43.434 92.147-68.766 17.859-9.566 13.758-18.656-5.006-13.639-18.763 5.004-103.015 25.887-164.819 106.347z"/></defs><clipPath id="g"><use xlink:href="#f" overflow="visible" width="100%" height="100%"/></clipPath><g clip-path="url(#g)" transform="translate(-140.837 -147.58)"><linearGradient id="h" gradientUnits="userSpaceOnUse" x1="14.892" y1="407.99" x2="513.44" y2="154.049"><stop offset="0" stop-color="#8ac2eb"/><stop offset=".7" stop-color="#002e52"/></linearGradient><path d="M220.021 361.136c4.491-70.859 56.666-132.689 133.969-168.982l-1.594-5.922c-109.219 33.053-185.303 98.583-191.384 174.905h59.009z" fill="url(#h)"/><linearGradient id="i" gradientUnits="userSpaceOnUse" x1="287.906" y1="449.816" x2="585.252" y2="298.36"><stop offset="0" stop-color="#2974b9"/><stop offset="1" stop-color="#004887"/></linearGradient><path d="M219.802 375.758h-59.1c2.994 78.523 80.035 146.249 191.693 180.06l1.594-5.931c-79.166-37.169-131.973-101.117-134.187-174.129z" fill="url(#i)"/></g><g transform="translate(-140.837 -147.58)"><defs><path id="j" d="M842.061 288.752c-25.33-12.253-49.272-18.786-77.678-23.942-22.544-26.589-44.818-43.434-92.156-68.766-17.861-9.566-13.747-18.656 5.015-13.639 18.771 5.004 103.016 25.887 164.819 106.347z"/></defs><clipPath id="k"><use xlink:href="#j" overflow="visible" width="100%" height="100%"/></clipPath><g clip-path="url(#k)"><linearGradient id="l" gradientUnits="userSpaceOnUse" x1="1011.96" y1="409.888" x2="513.918" y2="150.977"><stop offset="0" stop-color="#8ac2eb"/><stop offset=".7" stop-color="#002e52"/></linearGradient><path d="M807.945 361.136h59.024c-6.083-76.417-82.37-141.999-191.802-175.026l-1.564 5.854c77.518 36.271 129.864 98.192 134.342 169.172z" fill="url(#l)"/><linearGradient id="m" gradientUnits="userSpaceOnUse" x1="748.136" y1="453.837" x2="439.648" y2="293.467"><stop offset="0" stop-color="#2974b9"/><stop offset="1" stop-color="#004887"/></linearGradient><path d="M808.174 375.758c-2.214 73.12-55.177 137.16-134.547 174.307l1.568 5.866c111.871-33.781 189.076-101.572 192.077-180.173h-59.098z" fill="url(#m)"/></g></g><g transform="translate(-140.837 -147.58)"><radialGradient id="n" cx="510.352" cy="135.093" r="404.452" gradientUnits="userSpaceOnUse"><stop offset="0" stop-color="#8ac2eb"/><stop offset=".65" stop-color="#002e52"/></radialGradient><path d="M311.498 419.893v-176.04h106.011l3.256 48.131h-59.345v22.963h48.351v48.039h-48.7v56.907z" fill="url(#n)"/><path d="M417.509 243.853l3.256 48.131h-59.345v22.963h48.351v48.039h-48.7v56.908h-49.573v-176.04h106.011m2.784-2.985h-111.78v182.01h55.554v-56.908h48.704v-54.014h-48.353v-16.983h59.549l-.23-3.197-3.26-48.126-.184-2.782z" fill="#edf4fa"/><g><radialGradient id="o" cx="510.353" cy="135.095" r="404.454" gradientUnits="userSpaceOnUse"><stop offset="0" stop-color="#8ac2eb"/><stop offset=".65" stop-color="#002e52"/></radialGradient><path d="M721.402 419.638l-53.026-91.343 48.178-84.194h-53.06l-22.03 37.914-21.641-37.914h-54.914l49.113 84.779-52.021 90.866 53.351-.026 25.45-44.495 25.728 44.413z" fill="url(#o)"/><path d="M716.554 244.101l-48.178 84.194 53.026 91.343h-54.872l-25.729-44.413-25.449 44.495-53.351.026 52.021-90.866-49.114-84.779h54.915l21.641 37.914 22.029-37.914h53.061m5.147-2.985h-59.929l-.866 1.486-19.423 33.417-19.059-33.404-.858-1.499h-61.839l2.602 4.492 48.237 83.28-51.172 89.372-2.563 4.48 5.171-.008 53.351-.022h1.742l.858-1.508 22.867-39.981 23.129 39.92.858 1.486h61.789l-2.608-4.488-52.153-89.861 47.322-82.687 2.544-4.475z" fill="#edf4fa"/></g><g><radialGradient id="p" cx="510.353" cy="135.097" r="404.448" gradientUnits="userSpaceOnUse"><stop offset="0" stop-color="#8ac2eb"/><stop offset=".65" stop-color="#002e52"/></radialGradient><path d="M419.422 332.095c0-47.251 37.546-85.585 83.874-85.585 46.341 0 83.893 38.334 83.893 85.585 0 47.281-37.553 85.602-83.893 85.602-46.329 0-83.874-38.321-83.874-85.602zm98.955 35.141v-70.326c0-8.011-6.984-15.203-14.848-15.203-7.846 0-14.211 7.192-14.211 15.203l-.017 70.127c0 8.019 6.382 14.527 14.228 14.527 7.864 0 14.848-6.291 14.848-14.328z" fill="url(#p)"/><path d="M503.295 246.51c46.341 0 83.893 38.334 83.893 85.585 0 47.281-37.553 85.602-83.893 85.602-46.328 0-83.874-38.321-83.874-85.602.001-47.251 37.546-85.585 83.874-85.585m.234 135.054c7.864 0 14.848-6.291 14.848-14.328v-70.326c0-8.011-6.984-15.203-14.848-15.203-7.846 0-14.211 7.192-14.211 15.203l-.017 70.127c0 8.019 6.382 14.527 14.228 14.527m-.234-138.048c-47.909 0-86.868 39.734-86.868 88.579 0 48.849 38.958 88.592 86.868 88.592 47.899 0 86.878-39.742 86.878-88.592.001-48.846-38.979-88.579-86.878-88.579zm.234 135.049c-6.2 0-11.239-5.169-11.239-11.529l.015-70.127c0-6.499 5.253-12.205 11.223-12.205 6.204 0 11.861 5.815 11.861 12.205v70.326c.001 6.149-5.434 11.33-11.86 11.33z" fill="#edf4fa"/></g><g><radialGradient id="q" cx="514.782" cy="98.897" r="472.854" gradientUnits="userSpaceOnUse"><stop offset="0" stop-color="#8ac2eb"/><stop offset=".841" stop-color="#002e52"/></radialGradient><path d="M307.412 494.383v-9.177l4.708-4.527h37.858l1.432-1.425v-8.6l-1.031-1.039h-35.154l-7.812-7.795v-21.203l8.997-8.99h50.983v9.891l-3.659 3.743h-36.989l-1.421 1.421v8.362l1.029 1.035h35.085l7.794 7.803v21.515l-8.99 8.986h-52.83z" fill="url(#q)"/><path d="M367.392 431.626v9.891l-3.659 3.743h-36.989l-1.421 1.421v8.362l1.029 1.035h35.085l7.794 7.803v21.515l-8.99 8.986h-52.829v-9.177l4.708-4.527h37.858l1.432-1.425v-8.6l-1.031-1.039h-35.154l-7.812-7.795v-21.203l8.997-8.99h50.982m2.998-2.989h-55.218l-.88.875-8.99 8.986-.875.879v23.686l.875.879 7.802 7.795.88.871h34.426v5.082h-37.494l-.882.836-4.694 4.528-.912.884v13.44h57.053l.879-.875 8.99-8.986.866-.879v-23.993l-.866-.875-7.795-7.799-.879-.875h-34.361v-4.839h36.684l.88-.905 3.659-3.735.854-.879v-14.101h-.002z" fill="#edf4fa"/><radialGradient id="r" cx="514.76" cy="98.897" r="479.117" gradientUnits="userSpaceOnUse"><stop offset="0" stop-color="#8ac2eb"/><stop offset=".841" stop-color="#002e52"/></radialGradient><path d="M380.531 431.626h52.892l10.017 10.03v22.941l-10.017 10.026h-34.992v19.761h-17.9v-62.758zm42.303 30.345l2.63-2.626v-11.303l-2.63-2.634h-24.403v16.563h24.403z" fill="url(#r)"/><path d="M433.422 431.626l10.017 10.03v22.941l-10.017 10.026h-34.992v19.761h-17.9v-62.757h52.892m-34.991 30.344h24.403l2.63-2.626v-11.303l-2.63-2.634h-24.403v16.563m36.23-33.334h-54.131l-2.989 1.126v67.614h23.872v-19.765h33.248l.877-.875 10.015-10.017.879-.871v-25.432l-.879-.875-10.015-10.03-.877-.875zm-33.248 19.765h20.185l.88.88v8.825l-.88.866h-20.185v-10.571z" fill="#edf4fa"/><g><radialGradient id="s" cx="514.766" cy="98.897" r="481.428" gradientUnits="userSpaceOnUse"><stop offset="0" stop-color="#8ac2eb"/><stop offset=".841" stop-color="#002e52"/></radialGradient><path d="M453.229 484.37v-42.714l9.939-10.03h43.908l10.021 10.03v42.714l-10.021 10.013h-43.908l-9.939-10.013zm42.298-4.094l3.685-3.648v-27.234l-3.685-3.661h-20.827l-3.659 3.661v27.234l3.659 3.648h20.827z" fill="url(#s)"/><path d="M507.075 431.626l10.021 10.03v42.714l-10.021 10.013h-43.908l-9.939-10.013v-42.714l9.939-10.03h43.908m-32.374 48.65h20.827l3.685-3.648v-27.234l-3.685-3.661h-20.827l-3.659 3.661v27.234l3.659 3.648m33.607-51.639h-46.391l-.871.884-9.945 10.034-.871.866v45.175l.871.879 9.945 10.017.871.884h46.391l.882-.875 10.026-10.017.875-.875v-45.192l-.875-.875-10.026-10.03-.882-.875zm-32.366 20.09h18.348l1.924 1.91v24.747l-1.917 1.898h-18.359l-1.9-1.898v-24.752l1.904-1.905z" fill="#edf4fa"/></g><g><radialGradient id="t" cx="514.519" cy="98.897" r="479.002" gradientUnits="userSpaceOnUse"><stop offset="0" stop-color="#8ac2eb"/><stop offset=".841" stop-color="#002e52"/></radialGradient><path d="M528.79 431.626h53.438l8.996 8.99v19.609l-8.585 8.596 11.297 25.562h-19.901l-8.412-22.464h-18.953v22.464h-17.88v-62.757zm41.981 27.88l2.556-2.547v-9.467l-2.556-2.565h-24.1v14.579h24.1z" fill="url(#t)"/><path d="M582.228 431.626l8.996 8.99v19.609l-8.585 8.596 11.297 25.562h-19.901l-8.412-22.464h-18.953v22.464h-17.88v-62.757h53.438m-35.558 27.88h24.1l2.556-2.547v-9.467l-2.556-2.565h-24.1v14.579m36.81-30.869h-57.682v68.741h23.855v-22.478h14.02l7.632 20.692.786 1.785h26.502l-1.943-4.237-10.433-23.682 7.125-7.123.884-.866v-22.092l-.884-.879-8.999-8.986-.863-.875zm-33.826 19.293h19.882l.799.797v6.992l-.788.789h-19.893v-8.578z" fill="#edf4fa"/></g><g><radialGradient id="u" cx="514.76" cy="98.897" r="473.19" gradientUnits="userSpaceOnUse"><stop offset="0" stop-color="#8ac2eb"/><stop offset=".841" stop-color="#002e52"/></radialGradient><path d="M618.361 446.682h-20.69v-15.055h59.269v15.055h-20.69v47.702h-17.889v-47.702z" fill="url(#u)"/><path d="M656.94 431.626v15.055h-20.69v47.702h-17.889v-47.702h-20.69v-15.055h59.269m2.986-2.989h-65.252v21.048h20.688v47.693h23.883v-47.693h20.681v-21.048z" fill="#edf4fa"/></g><g><radialGradient id="v" cx="514.772" cy="98.897" r="465.939" gradientUnits="userSpaceOnUse"><stop offset="0" stop-color="#8ac2eb"/><stop offset=".841" stop-color="#002e52"/></radialGradient><path d="M663.047 494.383v-9.177l4.69-4.527h37.88l1.414-1.425v-8.6l-1.033-1.039h-35.143l-7.807-7.795v-21.203l8.999-8.99h50.985v9.891l-3.668 3.743h-36.974l-1.436 1.421v8.362l1.023 1.035h35.087l7.796 7.803v21.515l-8.988 8.986h-52.825z" fill="url(#v)"/><path d="M723.031 431.626v9.891l-3.668 3.743h-36.973l-1.436 1.421v8.362l1.023 1.035h35.087l7.796 7.803v21.515l-8.988 8.986h-52.824v-9.177l4.69-4.527h37.88l1.414-1.425v-8.6l-1.033-1.039h-35.143l-7.807-7.795v-21.203l8.999-8.99h50.983m2.983-2.989h-55.203l-.884.875-8.999 8.986-.875.879v23.686l.875.879 7.816 7.795.869.871h34.437v5.082h-37.511l-.866.836-4.701 4.528-.918.884v13.44h57.053l.884-.875 8.979-8.986.884-.879v-23.993l-.884-.875-7.788-7.799-.884-.875h-34.362v-4.839h36.688l.873-.905 3.659-3.735.858-.879v-14.101z" fill="#edf4fa"/></g></g></g><path d="M373.13 19.081c-155.647 0-281.8 91.499-281.8 204.357 0 112.876 126.153 204.357 281.8 204.357 155.61 0 281.771-91.482 281.771-204.357 0-112.858-126.162-204.357-281.771-204.357zm210.165 331.184c-50.381 43.057-125.897 70.452-210.349 70.452-84.452 0-159.977-27.399-210.369-70.46-31.006-35.644-49.341-79.428-49.341-126.818 0-47.385 18.335-91.183 49.35-126.818 50.394-43.057 125.908-70.452 210.361-70.452 84.441 0 159.951 27.386 210.343 70.434 31.023 35.643 49.367 79.441 49.367 126.835-.002 47.39-18.345 91.192-49.362 126.827z" opacity=".45" fill="#002e52"/></svg>