<?xml version="1.0" encoding="UTF-8" standalone="no"?>
<svg
   xmlns:dc="http://purl.org/dc/elements/1.1/"
   xmlns:cc="http://creativecommons.org/ns#"
   xmlns:rdf="http://www.w3.org/1999/02/22-rdf-syntax-ns#"
   xmlns:svg="http://www.w3.org/2000/svg"
   xmlns="http://www.w3.org/2000/svg"
   xmlns:xlink="http://www.w3.org/1999/xlink"
   xmlns:sodipodi="http://sodipodi.sourceforge.net/DTD/sodipodi-0.dtd"
   xmlns:inkscape="http://www.inkscape.org/namespaces/inkscape"
   viewBox="0 0 1332.724 446.88901"
   id="svg2"
   version="1.1"
   inkscape:version="0.91 r13725"
   sodipodi:docname="foxsports6hd.default.svg"
   width="1332.724"
   height="446.88901">
  <metadata
     id="metadata268">
    <rdf:RDF>
      <cc:Work
         rdf:about="">
        <dc:format>image/svg+xml</dc:format>
        <dc:type
           rdf:resource="http://purl.org/dc/dcmitype/StillImage" />
        <dc:title></dc:title>
      </cc:Work>
    </rdf:RDF>
  </metadata>
  <sodipodi:namedview
     pagecolor="#ffffff"
     bordercolor="#666666"
     borderopacity="1"
     objecttolerance="10"
     gridtolerance="10"
     guidetolerance="10"
     inkscape:pageopacity="0"
     inkscape:pageshadow="2"
     inkscape:window-width="640"
     inkscape:window-height="480"
     id="namedview266"
     showgrid="false"
     inkscape:zoom="0.36"
     inkscape:cx="934.12049"
     inkscape:cy="171.90411"
     inkscape:window-x="0"
     inkscape:window-y="0"
     inkscape:window-maximized="0"
     inkscape:current-layer="svg2"
     fit-margin-top="0"
     fit-margin-left="0"
     fit-margin-right="0"
     fit-margin-bottom="0" />
  <linearGradient
     id="a"
     gradientUnits="userSpaceOnUse"
     x1="306.76001"
     y1="374.651"
     x2="1468.828"
     y2="374.651"
     gradientTransform="translate(-136.103,-153.134)">
    <stop
       offset="0"
       stop-color="#b0b7c9"
       id="stop5" />
    <stop
       offset=".841"
       stop-color="#002e56"
       id="stop7" />
  </linearGradient>
  <path
     d="m 1207.487,96.276 -1036.83,0 0,250.482 1036.83,0 c 69.168,0 125.237,-56.065 125.237,-125.237 10e-4,-69.157 -56.069,-125.245 -125.237,-125.245 z"
     id="path9"
     inkscape:connector-curvature="0"
     style="fill:url(#a)" />
  <path
     d="m 746.224,223.438 c 0,123.409 -167.058,223.451 -373.118,223.451 C 167.047,446.889 0,346.847 0,223.438 0,100.029 167.047,0 373.106,0 579.166,0 746.224,100.029 746.224,223.438 Z"
     id="path15"
     inkscape:connector-curvature="0"
     style="fill:#ffffff" />
  <radialGradient
     id="b"
     cx="528.276"
     cy="379.52701"
     r="416.13699"
     gradientTransform="matrix(0.9765,0,0,0.9765,-142.92,-147.169)"
     gradientUnits="userSpaceOnUse">
    <stop
       offset=".325"
       stop-color="#fff"
       id="stop18" />
    <stop
       offset=".395"
       stop-color="#fafbfc"
       id="stop20" />
    <stop
       offset=".478"
       stop-color="#ebeff2"
       id="stop22" />
    <stop
       offset=".569"
       stop-color="#d3dbe2"
       id="stop24" />
    <stop
       offset=".664"
       stop-color="#b1bfcb"
       id="stop26" />
    <stop
       offset=".764"
       stop-color="#869bae"
       id="stop28" />
    <stop
       offset=".867"
       stop-color="#50708b"
       id="stop30" />
    <stop
       offset=".971"
       stop-color="#123d62"
       id="stop32" />
    <stop
       offset="1"
       stop-color="#002e56"
       id="stop34" />
  </radialGradient>
  <path
     d="m 372.939,26.169 c -84.449,0 -159.962,27.397 -210.356,70.45 -31.015,35.636 -49.351,79.432 -49.351,126.818 0,47.387 18.336,91.173 49.344,126.815 50.391,43.06 125.914,70.457 210.363,70.457 84.449,0 159.966,-27.39 210.351,-70.45 31.015,-35.632 49.359,-79.435 49.359,-126.822 0,-47.397 -18.344,-91.193 -49.364,-126.835 C 532.887,53.556 457.378,26.169 372.939,26.169 Z"
     id="path36"
     inkscape:connector-curvature="0"
     style="opacity:0.8;fill:url(#b)" />
  <path
     d="M 373.124,0 C 167.047,0 0.008,100.029 0.008,223.438 c 0,123.409 167.039,223.451 373.116,223.451 206.05,0 373.1,-100.042 373.1,-223.451 C 746.224,100.029 579.175,0 373.124,0 Z m 0,427.793 c -155.645,0 -281.797,-91.483 -281.797,-204.355 0,-112.859 126.152,-204.355 281.797,-204.355 155.612,0 281.769,91.496 281.769,204.355 0,112.872 -126.157,204.355 -281.769,204.355 z"
     id="path38"
     inkscape:connector-curvature="0"
     style="opacity:0.25;fill:#002e56" />
  <path
     d="M 364.806,427.641 C 213.028,424.446 91.327,334.29 91.327,223.437 91.327,112.595 213.028,22.432 364.806,19.23 l 0,-12.022 C 166.496,9.822 7.088,105.59 7.088,223.436 c 0,117.85 159.408,213.608 357.718,216.229 l 0,-12.024 z m 16.603,-420.432 0,12.022 c 151.788,3.202 273.493,93.364 273.493,204.207 0,110.852 -121.705,201.008 -273.493,204.204 l 0,12.024 C 579.721,437.045 739.138,341.288 739.138,223.437 739.139,105.584 579.721,9.823 381.409,7.209 Z"
     id="path40"
     inkscape:connector-curvature="0"
     style="fill:#ffffff" />
  <radialGradient
     id="c"
     cx="336.78201"
     cy="379.526"
     r="203.201"
     gradientTransform="matrix(0.9765,0,0,0.9765,-142.92,-147.169)"
     gradientUnits="userSpaceOnUse">
    <stop
       offset=".601"
       stop-color="#fff"
       id="stop43" />
    <stop
       offset=".651"
       stop-color="#fbfcfc"
       stop-opacity=".917"
       id="stop45" />
    <stop
       offset=".701"
       stop-color="#eff2f4"
       stop-opacity=".834"
       id="stop47" />
    <stop
       offset=".751"
       stop-color="#dbe1e7"
       stop-opacity=".751"
       id="stop49" />
    <stop
       offset=".802"
       stop-color="#bfcad4"
       stop-opacity=".668"
       id="stop51" />
    <stop
       offset=".852"
       stop-color="#9badbc"
       stop-opacity=".585"
       id="stop53" />
    <stop
       offset=".902"
       stop-color="#6e889f"
       stop-opacity=".502"
       id="stop55" />
    <stop
       offset=".951"
       stop-color="#3b5e7d"
       stop-opacity=".421"
       id="stop57" />
    <stop
       offset="1"
       stop-color="#002e56"
       stop-opacity=".34"
       id="stop59" />
  </radialGradient>
  <path
     d="M 364.806,427.641 C 213.028,424.446 91.327,334.29 91.327,223.437 91.327,112.595 213.028,22.432 364.806,19.23 l 0,-12.022 C 166.496,9.822 7.088,105.59 7.088,223.436 c 0,117.85 159.408,213.608 357.718,216.229 l 0,-12.024 z"
     id="path61"
     inkscape:connector-curvature="0"
     style="opacity:0.11000001;fill:url(#c)" />
  <radialGradient
     id="d"
     cx="720.117"
     cy="379.526"
     r="203.203"
     gradientTransform="matrix(0.9765,0,0,0.9765,-142.92,-147.169)"
     gradientUnits="userSpaceOnUse">
    <stop
       offset=".601"
       stop-color="#fff"
       id="stop64" />
    <stop
       offset=".651"
       stop-color="#fbfcfc"
       stop-opacity=".917"
       id="stop66" />
    <stop
       offset=".701"
       stop-color="#eff2f4"
       stop-opacity=".834"
       id="stop68" />
    <stop
       offset=".751"
       stop-color="#dbe1e7"
       stop-opacity=".751"
       id="stop70" />
    <stop
       offset=".802"
       stop-color="#bfcad4"
       stop-opacity=".668"
       id="stop72" />
    <stop
       offset=".852"
       stop-color="#9badbc"
       stop-opacity=".585"
       id="stop74" />
    <stop
       offset=".902"
       stop-color="#6e889f"
       stop-opacity=".502"
       id="stop76" />
    <stop
       offset=".951"
       stop-color="#3b5e7d"
       stop-opacity=".421"
       id="stop78" />
    <stop
       offset="1"
       stop-color="#002e56"
       stop-opacity=".34"
       id="stop80" />
  </radialGradient>
  <path
     d="m 381.409,7.209 0,12.022 c 151.788,3.202 273.493,93.364 273.493,204.207 0,110.852 -121.705,201.008 -273.493,204.204 l 0,12.024 C 579.721,437.045 739.138,341.288 739.138,223.437 739.139,105.584 579.721,9.823 381.409,7.209 Z"
     id="path82"
     inkscape:connector-curvature="0"
     style="opacity:0.11000001;fill:url(#d)" />
  <g
     id="g84"
     style="fill:#002e56"
     transform="translate(-136.103,-153.134)">
    <path
       d="m 215.26,366.692 c 4.489,-70.859 56.666,-132.687 133.955,-168.98 l -1.581,-5.925 C 238.417,224.842 162.325,290.373 156.239,366.692 l 59.021,0 z m -0.221,14.623 -59.098,0 c 2.992,78.517 80.034,146.241 191.693,180.054 l 1.581,-5.931 C 270.055,518.267 217.246,454.32 215.039,381.315 Z"
       id="path86"
       inkscape:connector-curvature="0" />
  </g>
  <g
     id="g88"
     style="fill:#002e56"
     transform="translate(-136.103,-153.134)">
    <path
       d="m 803.171,366.692 59.026,0 C 856.105,290.281 779.826,224.693 670.398,191.661 l -1.568,5.869 c 77.514,36.257 129.85,98.187 134.341,169.162 z m 0.228,14.623 c -2.205,73.114 -55.188,137.154 -134.536,174.298 l 1.563,5.869 C 782.295,527.701 859.502,459.918 862.494,381.315 l -59.095,0 z"
       id="path90"
       inkscape:connector-curvature="0" />
  </g>
  <linearGradient
     id="e"
     gradientUnits="userSpaceOnUse"
     x1="509.03699"
     y1="426.836"
     x2="509.03699"
     y2="68.797997"
     gradientTransform="translate(-136.103,-153.134)">
    <stop
       offset=".498"
       stop-color="#fff"
       id="stop93" />
    <stop
       offset=".561"
       stop-color="#fbfcfc"
       stop-opacity=".917"
       id="stop95" />
    <stop
       offset=".624"
       stop-color="#eff2f4"
       stop-opacity=".834"
       id="stop97" />
    <stop
       offset=".687"
       stop-color="#dbe1e7"
       stop-opacity=".751"
       id="stop99" />
    <stop
       offset=".75"
       stop-color="#bfcad4"
       stop-opacity=".668"
       id="stop101" />
    <stop
       offset=".814"
       stop-color="#9badbc"
       stop-opacity=".585"
       id="stop103" />
    <stop
       offset=".877"
       stop-color="#6e889f"
       stop-opacity=".502"
       id="stop105" />
    <stop
       offset=".939"
       stop-color="#3b5e7d"
       stop-opacity=".421"
       id="stop107" />
    <stop
       offset="1"
       stop-color="#002e56"
       stop-opacity=".34"
       id="stop109" />
  </linearGradient>
  <path
     d="m 620.58,158.213 c -8.483,-22.314 -21.143,-43.079 -37.278,-61.627 -50.389,-43.04 -125.909,-70.43 -210.345,-70.43 -84.457,0 -159.964,27.39 -210.365,70.457 -16.145,18.567 -28.83,39.363 -37.306,61.719 87.581,-47.103 161.045,-54.203 246.149,-54.203 90.01,0 160.909,7.1 249.145,54.084 z"
     id="path111"
     inkscape:connector-curvature="0"
     style="opacity:0.7;fill:url(#e)" />
  <defs
     id="defs113">
    <path
       id="f"
       d="m 180.686,294.305 c 25.326,-12.253 49.267,-18.785 77.676,-23.938 22.543,-26.591 44.815,-43.436 92.145,-68.766 17.859,-9.566 13.756,-18.66 -5.004,-13.639 -18.765,5.003 -103.017,25.885 -164.817,106.343 z"
       inkscape:connector-curvature="0" />
  </defs>
  <clipPath
     id="g">
    <use
       xlink:href="#f"
       overflow="visible"
       id="use117"
       style="overflow:visible"
       x="0"
       y="0"
       width="100%"
       height="100%" />
  </clipPath>
  <g
     clip-path="url(#g)"
     id="g119"
     transform="translate(-136.103,-153.134)">
    <linearGradient
       id="h"
       gradientUnits="userSpaceOnUse"
       x1="10.161"
       y1="413.54199"
       x2="508.70001"
       y2="159.606">
      <stop
         offset="0"
         stop-color="#7ab5e7"
         id="stop122" />
      <stop
         offset=".7"
         stop-color="#002e56"
         id="stop124" />
    </linearGradient>
    <path
       d="m 215.287,366.689 c 4.488,-70.859 56.662,-132.687 133.967,-168.98 l -1.596,-5.922 c -109.218,33.051 -185.3,98.58 -191.38,174.902 l 59.009,0 z"
       id="path126"
       inkscape:connector-curvature="0"
       style="fill:url(#h)" />
    <linearGradient
       id="i"
       gradientUnits="userSpaceOnUse"
       x1="283.17099"
       y1="455.36801"
       x2="580.51202"
       y2="303.914">
      <stop
         offset="0"
         stop-color="#235ba9"
         id="stop129" />
      <stop
         offset="1"
         stop-color="#003271"
         id="stop131" />
    </linearGradient>
    <path
       d="m 215.067,381.312 -59.098,0 c 2.992,78.521 80.032,146.244 191.688,180.058 l 1.596,-5.931 C 270.087,518.267 217.281,454.32 215.067,381.312 Z"
       id="path133"
       inkscape:connector-curvature="0"
       style="fill:url(#i)" />
  </g>
  <defs
     id="defs135">
    <path
       id="j"
       d="m 837.318,294.305 c -25.331,-12.253 -49.27,-18.785 -77.677,-23.938 -22.543,-26.591 -44.812,-43.436 -92.15,-68.766 -17.859,-9.566 -13.751,-18.66 5.011,-13.639 18.769,5.003 103.011,25.885 164.816,106.343 z"
       inkscape:connector-curvature="0" />
  </defs>
  <clipPath
     id="k">
    <use
       xlink:href="#j"
       overflow="visible"
       id="use139"
       style="overflow:visible"
       x="0"
       y="0"
       width="100%"
       height="100%" />
  </clipPath>
  <g
     clip-path="url(#k)"
     id="g141"
     transform="translate(-136.103,-153.134)">
    <linearGradient
       id="l"
       gradientUnits="userSpaceOnUse"
       x1="1007.221"
       y1="415.444"
       x2="509.17401"
       y2="156.53101">
      <stop
         offset="0"
         stop-color="#7ab5e7"
         id="stop144" />
      <stop
         offset=".7"
         stop-color="#002e56"
         id="stop146" />
    </linearGradient>
    <path
       d="m 803.202,366.689 59.027,0 C 856.142,290.271 779.851,224.693 670.425,191.662 l -1.563,5.856 c 77.513,36.269 129.859,98.19 134.34,169.171 z"
       id="path148"
       inkscape:connector-curvature="0"
       style="fill:url(#l)" />
    <linearGradient
       id="m"
       gradientUnits="userSpaceOnUse"
       x1="743.39203"
       y1="459.39001"
       x2="434.90302"
       y2="299.01999">
      <stop
         offset="0"
         stop-color="#002e56"
         id="stop151" />
      <stop
         offset="1"
         stop-color="#002e56"
         id="stop153" />
    </linearGradient>
    <path
       d="m 803.437,381.312 c -2.22,73.117 -55.182,137.157 -134.551,174.301 l 1.566,5.869 c 111.879,-33.781 189.077,-101.57 192.073,-180.17 l -59.088,0 z"
       id="path155"
       inkscape:connector-curvature="0"
       style="fill:url(#m)" />
  </g>
  <g
     id="g157"
     transform="translate(-136.103,-153.134)">
    <radialGradient
       id="n"
       cx="524.75598"
       cy="137.929"
       r="414.17099"
       gradientTransform="matrix(0.9765,0,0,0.9765,-6.817,5.965)"
       gradientUnits="userSpaceOnUse">
      <stop
         offset="0"
         stop-color="#7ab4e6"
         id="stop160" />
      <stop
         offset=".65"
         stop-color="#002e56"
         id="stop162" />
    </radialGradient>
    <path
       d="m 306.763,425.444 0,-176.034 106.009,0 3.253,48.126 -59.341,0 0,22.961 48.349,0 0,48.04 -48.699,0 0,56.907 z"
       id="path164"
       inkscape:connector-curvature="0"
       style="fill:url(#n)" />
    <path
       d="m 412.772,249.41 3.253,48.126 -59.341,0 0,22.961 48.349,0 0,48.041 -48.699,0 0,56.907 -49.571,0 0,-176.035 106.009,0 m 2.784,-2.987 -111.78,0 0,182.005 55.555,0 0,-56.907 48.702,0 0,-54.012 -48.35,0 0,-16.983 59.547,0 -0.233,-3.198 -3.256,-48.123 -0.185,-2.782 z"
       id="path166"
       inkscape:connector-curvature="0"
       style="fill:#f1f6fc" />
    <g
       id="g168">
      <radialGradient
         id="o"
         cx="524.763"
         cy="137.925"
         r="414.18799"
         gradientTransform="matrix(0.9765,0,0,0.9765,-6.817,5.965)"
         gradientUnits="userSpaceOnUse">
        <stop
           offset="0"
           stop-color="#7ab4e6"
           id="stop171" />
        <stop
           offset=".65"
           stop-color="#002e56"
           id="stop173" />
      </radialGradient>
      <path
         d="m 716.666,425.19 -53.028,-91.341 48.174,-84.195 -53.053,0 -22.035,37.917 -21.644,-37.917 -54.911,0 49.115,84.779 -52.021,90.866 53.353,-0.027 25.448,-44.495 25.727,44.413 z"
         id="path175"
         inkscape:connector-curvature="0"
         style="fill:url(#o)" />
      <path
         d="m 711.812,249.654 -48.174,84.195 53.028,91.341 -54.875,0 -25.727,-44.413 -25.448,44.495 -53.353,0.027 52.021,-90.866 -49.115,-84.779 54.911,0 21.644,37.917 22.035,-37.917 53.053,0 m 5.141,-2.984 -59.919,0 -0.873,1.482 -19.417,33.421 -19.059,-33.405 -0.858,-1.499 -61.838,0 2.604,4.493 48.235,83.28 -51.175,89.37 -2.561,4.479 5.171,-0.01 53.353,-0.02 1.738,0 0.855,-1.509 22.876,-39.98 23.121,39.917 0.853,1.489 61.795,0 -2.613,-4.489 -52.148,-89.862 47.324,-82.683 2.536,-4.474 z"
         id="path177"
         inkscape:connector-curvature="0"
         style="fill:#f1f6fc" />
    </g>
    <g
       id="g179">
      <radialGradient
         id="p"
         cx="524.763"
         cy="137.929"
         r="414.177"
         gradientTransform="matrix(0.9765,0,0,0.9765,-6.817,5.965)"
         gradientUnits="userSpaceOnUse">
        <stop
           offset="0"
           stop-color="#7ab4e6"
           id="stop182" />
        <stop
           offset=".65"
           stop-color="#002e56"
           id="stop184" />
      </radialGradient>
      <path
         d="m 414.683,337.648 c 0,-47.252 37.549,-85.584 83.876,-85.584 46.339,0 83.891,38.333 83.891,85.584 0,47.278 -37.552,85.601 -83.891,85.601 -46.327,0 -83.876,-38.323 -83.876,-85.601 z m 98.954,35.138 0,-70.321 c 0,-8.011 -6.98,-15.204 -14.844,-15.204 -7.849,0 -14.21,7.193 -14.21,15.204 l -0.018,70.127 c 0,8.018 6.379,14.524 14.228,14.524 7.865,-10e-4 14.844,-6.289 14.844,-14.33 z"
         id="path186"
         inkscape:connector-curvature="0"
         style="fill:url(#p)" />
      <path
         d="m 498.559,252.064 c 46.339,0 83.891,38.333 83.891,85.584 0,47.278 -37.552,85.601 -83.891,85.601 -46.327,0 -83.876,-38.323 -83.876,-85.601 0,-47.251 37.549,-85.584 83.876,-85.584 m 0.234,135.051 c 7.864,0 14.844,-6.288 14.844,-14.329 l 0,-70.321 c 0,-8.011 -6.98,-15.204 -14.844,-15.204 -7.849,0 -14.21,7.193 -14.21,15.204 l -0.018,70.127 c 0,8.017 6.379,14.523 14.228,14.523 M 498.559,249.07 c -47.908,0 -86.868,39.732 -86.868,88.578 0,48.849 38.96,88.591 86.868,88.591 47.897,0 86.872,-39.742 86.872,-88.591 0,-48.846 -38.975,-88.578 -86.872,-88.578 z m 0.234,135.048 c -6.199,0 -11.238,-5.169 -11.238,-11.527 l 0.013,-70.127 c 0,-6.499 5.255,-12.206 11.225,-12.206 6.204,0 11.86,5.816 11.86,12.206 l 0,70.321 c 0,6.15 -5.435,11.333 -11.86,11.333 z"
         id="path188"
         inkscape:connector-curvature="0"
         style="fill:#f1f6fc" />
    </g>
    <g
       id="g190">
      <radialGradient
         id="q"
         cx="529.29999"
         cy="100.879"
         r="484.202"
         gradientTransform="matrix(0.9765,0,0,0.9765,-6.817,5.965)"
         gradientUnits="userSpaceOnUse">
        <stop
           offset="0"
           stop-color="#7ab4e6"
           id="stop193" />
        <stop
           offset=".841"
           stop-color="#002e56"
           id="stop195" />
      </radialGradient>
      <path
         d="m 302.677,499.931 0,-9.173 4.71,-4.526 37.856,0 1.431,-1.426 0,-8.602 -1.031,-1.04 -35.154,0 -7.811,-7.793 0,-21.205 8.997,-8.988 50.983,0 0,9.889 -3.659,3.743 -36.989,0 -1.421,1.423 0,8.361 1.031,1.036 35.083,0 7.793,7.803 0,21.515 -8.992,8.982 -52.827,0 z"
         id="path197"
         inkscape:connector-curvature="0"
         style="fill:url(#q)" />
      <path
         d="m 362.657,437.179 0,9.889 -3.659,3.743 -36.989,0 -1.421,1.423 0,8.361 1.031,1.036 35.083,0 7.793,7.803 0,21.515 -8.992,8.982 -52.827,0 0,-9.173 4.71,-4.526 37.856,0 1.431,-1.426 0,-8.602 -1.031,-1.04 -35.154,0 -7.811,-7.793 0,-21.205 8.997,-8.988 50.983,0 m 2.997,-2.99 -55.218,0 -0.88,0.875 -8.99,8.985 -0.875,0.881 0,23.684 0.875,0.881 7.802,7.793 0.883,0.871 34.426,0 0,5.08 -37.496,0 -0.883,0.838 -4.694,4.529 -0.913,0.881 0,13.441 57.056,0 0.878,-0.875 8.991,-8.985 0.865,-0.881 0,-23.994 -0.865,-0.875 -7.795,-7.796 -0.881,-0.875 -34.36,0 0,-4.842 36.682,0 0.88,-0.904 3.659,-3.736 0.853,-0.878 0,-14.098 z"
         id="path199"
         inkscape:connector-curvature="0"
         style="fill:#f1f6fc" />
      <radialGradient
         id="r"
         cx="529.28003"
         cy="100.879"
         r="490.61301"
         gradientTransform="matrix(0.9765,0,0,0.9765,-6.817,5.965)"
         gradientUnits="userSpaceOnUse">
        <stop
           offset="0"
           stop-color="#7ab4e6"
           id="stop202" />
        <stop
           offset=".841"
           stop-color="#002e56"
           id="stop204" />
      </radialGradient>
      <path
         d="m 375.794,437.179 52.889,0 10.02,10.028 0,22.944 -10.02,10.025 -34.989,0 0,19.755 -17.901,0 0,-62.752 z m 42.302,30.344 2.632,-2.628 0,-11.302 -2.632,-2.634 -24.402,0 0,16.564 24.402,0 z"
         id="path206"
         inkscape:connector-curvature="0"
         style="fill:url(#r)" />
      <path
         d="m 428.683,437.179 10.02,10.028 0,22.944 -10.02,10.025 -34.989,0 0,19.755 -17.901,0 0,-62.752 52.89,0 m -34.989,30.344 24.402,0 2.632,-2.628 0,-11.302 -2.632,-2.634 -24.402,0 0,16.564 m 36.229,-33.335 -54.128,0 -2.989,1.126 0,67.615 23.876,0 0,-19.765 33.242,0 0.88,-0.875 10.015,-10.018 0.878,-0.868 0,-25.433 -0.878,-0.875 -10.015,-10.031 -0.881,-0.876 z m -33.243,19.765 20.183,0 0.878,0.878 0,8.826 -0.878,0.865 -20.183,0 0,-10.569 z"
         id="path208"
         inkscape:connector-curvature="0"
         style="fill:#f1f6fc" />
      <g
         id="g210">
        <radialGradient
           id="s"
           cx="529.28802"
           cy="100.879"
           r="492.97699"
           gradientTransform="matrix(0.9765,0,0,0.9765,-6.817,5.965)"
           gradientUnits="userSpaceOnUse">
          <stop
             offset="0"
             stop-color="#7ab4e6"
             id="stop213" />
          <stop
             offset=".841"
             stop-color="#002e56"
             id="stop215" />
        </radialGradient>
        <path
           d="m 448.492,489.923 0,-42.716 9.939,-10.028 43.905,0 10.028,10.028 0,42.716 -10.028,10.008 -43.905,0 -9.939,-10.008 z m 42.298,-4.097 3.685,-3.647 0,-27.232 -3.685,-3.664 -20.828,0 -3.661,3.664 0,27.232 3.661,3.647 20.828,0 z"
           id="path217"
           inkscape:connector-curvature="0"
           style="fill:url(#s)" />
        <path
           d="m 502.335,437.179 10.028,10.028 0,42.716 -10.028,10.008 -43.905,0 -9.939,-10.008 0,-42.716 9.939,-10.028 43.905,0 m -32.373,48.647 20.828,0 3.685,-3.647 0,-27.232 -3.685,-3.664 -20.828,0 -3.661,3.664 0,27.232 3.661,3.647 m 33.608,-51.638 -46.391,0 -0.87,0.885 -9.947,10.035 -0.87,0.865 0,45.179 0.87,0.875 9.947,10.018 0.87,0.885 46.391,0 0.881,-0.875 10.025,-10.018 0.876,-0.875 0,-45.192 -0.876,-0.875 -10.025,-10.031 -0.881,-0.876 z m -32.365,20.092 18.346,0 1.928,1.908 0,24.746 -1.921,1.898 -18.358,0 -1.903,-1.898 0,-24.75 1.908,-1.904 z"
           id="path219"
           inkscape:connector-curvature="0"
           style="fill:#f1f6fc" />
      </g>
      <g
         id="g221">
        <radialGradient
           id="t"
           cx="529.02899"
           cy="100.879"
           r="490.49399"
           gradientTransform="matrix(0.9765,0,0,0.9765,-6.817,5.965)"
           gradientUnits="userSpaceOnUse">
          <stop
             offset="0"
             stop-color="#7ab4e6"
             id="stop224" />
          <stop
             offset=".841"
             stop-color="#002e56"
             id="stop226" />
        </radialGradient>
        <path
           d="m 524.051,437.179 53.434,0 9.003,8.988 0,19.61 -8.589,8.596 11.297,25.558 -19.897,0 -8.419,-22.462 -18.945,0 0,22.462 -17.884,0 0,-62.752 z m 41.982,27.879 2.557,-2.548 0,-9.464 -2.557,-2.568 -24.098,0 0,14.58 24.098,0 z"
           id="path228"
           inkscape:connector-curvature="0"
           style="fill:url(#t)" />
        <path
           d="m 577.485,437.179 9.003,8.988 0,19.61 -8.589,8.596 11.297,25.558 -19.897,0 -8.419,-22.462 -18.945,0 0,22.462 -17.884,0 0,-62.752 53.434,0 m -35.55,27.879 24.098,0 2.557,-2.548 0,-9.464 -2.557,-2.568 -24.098,0 0,14.58 m 36.81,-30.87 -57.682,0 0,68.74 23.854,0 0,-22.475 14.019,0 7.637,20.69 0.784,1.786 26.5,0 -1.943,-4.238 -10.431,-23.68 7.123,-7.123 0.885,-0.865 0,-22.093 -0.885,-0.881 -8.998,-8.985 -0.863,-0.876 z m -33.829,19.293 19.878,0 0.805,0.799 0,6.988 -0.792,0.789 -19.891,0 0,-8.576 z"
           id="path230"
           inkscape:connector-curvature="0"
           style="fill:#f1f6fc" />
      </g>
      <g
         id="g232">
        <radialGradient
           id="u"
           cx="529.27899"
           cy="100.879"
           r="484.547"
           gradientTransform="matrix(0.9765,0,0,0.9765,-6.817,5.965)"
           gradientUnits="userSpaceOnUse">
          <stop
             offset="0"
             stop-color="#7ab4e6"
             id="stop235" />
          <stop
             offset=".841"
             stop-color="#002e56"
             id="stop237" />
        </radialGradient>
        <path
           d="m 613.621,452.234 -20.686,0 0,-15.055 59.27,0 0,15.055 -20.688,0 0,47.697 -17.896,0 0,-47.697 z"
           id="path239"
           inkscape:connector-curvature="0"
           style="fill:url(#u)" />
        <path
           d="m 652.205,437.179 0,15.055 -20.688,0 0,47.697 -17.896,0 0,-47.697 -20.686,0 0,-15.055 59.27,0 m 2.982,-2.991 -65.251,0 0,21.05 20.688,0 0,47.69 23.882,0 0,-47.69 20.681,0 0,-21.05 z"
           id="path241"
           inkscape:connector-curvature="0"
           style="fill:#f1f6fc" />
      </g>
      <g
         id="g243">
        <radialGradient
           id="v"
           cx="529.26599"
           cy="100.879"
           r="477.138"
           gradientTransform="matrix(0.9765,0,0,0.9765,-6.817,5.965)"
           gradientUnits="userSpaceOnUse">
          <stop
             offset="0"
             stop-color="#7ab4e6"
             id="stop246" />
          <stop
             offset=".841"
             stop-color="#002e56"
             id="stop248" />
        </radialGradient>
        <path
           d="m 658.305,499.931 0,-9.173 4.694,-4.526 37.879,0 1.406,-1.426 0,-8.602 -1.025,-1.04 -35.146,0 -7.808,-7.793 0,-21.205 9.005,-8.988 50.985,0 0,9.889 -3.667,3.743 -36.975,0 -1.438,1.423 0,8.361 1.023,1.036 35.088,0 7.798,7.803 0,21.515 -8.993,8.982 -52.826,0 z"
           id="path250"
           inkscape:connector-curvature="0"
           style="fill:url(#v)" />
        <path
           d="m 718.295,437.179 0,9.889 -3.667,3.743 -36.975,0 -1.438,1.423 0,8.361 1.023,1.036 35.088,0 7.798,7.803 0,21.515 -8.993,8.982 -52.827,0 0,-9.173 4.694,-4.526 37.879,0 1.406,-1.426 0,-8.602 -1.025,-1.04 -35.146,0 -7.808,-7.793 0,-21.205 9.005,-8.988 50.986,0 m 2.98,-2.99 -55.208,0 -0.883,0.875 -8.995,8.985 -0.875,0.881 0,23.684 0.875,0.881 7.815,7.793 0.865,0.871 34.434,0 0,5.08 -37.502,0 -0.872,0.838 -4.694,4.529 -0.921,0.881 0,13.441 57.047,0 0.891,-0.875 8.977,-8.985 0.883,-0.881 0,-23.994 -0.883,-0.875 -7.787,-7.796 -0.891,-0.875 -34.357,0 0,-4.842 36.686,0 0.876,-0.904 3.656,-3.736 0.863,-0.878 0,-14.098 z"
           id="path252"
           inkscape:connector-curvature="0"
           style="fill:#f1f6fc" />
      </g>
    </g>
  </g>
  <path
     d="m 373.124,19.082 c -155.645,0 -281.797,91.496 -281.797,204.355 0,112.872 126.152,204.355 281.797,204.355 155.612,0 281.769,-91.483 281.769,-204.355 0,-112.859 -126.157,-204.355 -281.769,-204.355 z m 210.167,331.177 c -50.386,43.06 -125.903,70.45 -210.351,70.45 -84.449,0 -159.972,-27.397 -210.363,-70.457 -31.008,-35.642 -49.344,-79.428 -49.344,-126.815 0,-47.387 18.336,-91.183 49.351,-126.818 50.394,-43.053 125.907,-70.45 210.356,-70.45 84.439,0 159.947,27.387 210.346,70.434 31.02,35.642 49.364,79.438 49.364,126.835 0,47.387 -18.344,91.189 -49.359,126.821 z"
     id="path254"
     inkscape:connector-curvature="0"
     style="opacity:0.45;fill:#002e56" />
  <g
     id="g256"
     transform="translate(-136.103,-153.134)">
    <g
       id="g258"
       style="fill:#ffffff">
      <path
         d="m 1104.621,293.651 44.41,0 -11.274,63.904 47.22,0 11.277,-63.904 44.642,0 -28.422,162.124 -44.651,0 10.346,-59.452 -47.233,0 -10.333,59.452 -44.406,0 28.424,-162.124 z m 161.888,0 111.851,0 20.668,24.905 -19.734,112.308 -29.366,24.912 -111.847,0 28.428,-162.125 z m 61.556,129.466 9.402,-7.998 14.332,-80.828 -6.577,-7.982 -39.947,0 -17.151,96.807 39.941,0 z"
         id="path260"
         inkscape:connector-curvature="0" />
    </g>
  </g>
  <g
     id="g262"
     transform="translate(-136.103,-153.134)">
    <path
       d="m 1039.418,327.03 -70.594,0 -8.5,7.083 -5.668,31.875 13.931,-12.042 61.386,0 18.887,22.901 -9.914,56.192 -27.626,23.61 -93.73,0 -19.599,-23.61 20.545,-115.69 27.621,-23.609 114.038,0 -3.306,19.124 -17.471,14.166 z m -49.819,97.51 7.084,-5.903 4.958,-27.624 -4.25,-4.958 -41.081,0 -6.138,5.43 -4.724,27.152 4.724,5.903 39.427,0 z"
       id="path264"
       inkscape:connector-curvature="0"
       style="fill:#ffffff" />
  </g>
</svg>
