<svg width="177.3mm" height="106.19mm" version="1.1" viewBox="0 0 628.22186 376.27416" xmlns="http://www.w3.org/2000/svg" xmlns:xlink="http://www.w3.org/1999/xlink">
 <defs>
  <linearGradient id="bi">
   <stop stop-color="#4372a1" offset="0"/>
   <stop stop-color="#113d68" offset=".74586"/>
   <stop stop-color="#002c55" offset="1"/>
  </linearGradient>
  <linearGradient id="bj">
   <stop stop-color="#4372a1" offset="0"/>
   <stop stop-color="#002c55" offset="1"/>
  </linearGradient>
  <linearGradient id="ba">
   <stop stop-color="#32608f" offset="0"/>
   <stop stop-color="#245583" offset=".2"/>
   <stop stop-color="#154976" offset=".4"/>
   <stop stop-color="#083f69" offset=".60313"/>
   <stop stop-color="#01335d" offset=".8"/>
   <stop stop-color="#002c55" offset="1"/>
  </linearGradient>
  <style>.cls-1{fill:url(#d);}.cls-2{fill:url(#f);}.cls-3{fill:url(#i);}.cls-4{fill:none;}.cls-5{opacity:0;}.cls-6{fill:#fff;}.cls-7{opacity:0.5;}.cls-8{clip-path:url(#az);}.cls-9{fill:#103357;}.cls-10{opacity:0.8;}.cls-11{clip-path:url(#ao);}.cls-12{clip-path:url(#ag);}.cls-13{fill:url(#n);}.cls-14{opacity:0.25;}.cls-15{clip-path:url(#af);}.cls-16{opacity:0.11;}.cls-17{clip-path:url(#ae);}.cls-18{clip-path:url(#ad);}.cls-19{mask:url(#v);}.cls-20{fill:url(#e);}.cls-21{clip-path:url(#ac);}.cls-22{clip-path:url(#ab);}.cls-23{mask:url(#u);}.cls-24{fill:url(#m);}.cls-25{opacity:0.7;}.cls-26{clip-path:url(#aa);}.cls-27{clip-path:url(#ay);}.cls-28{mask:url(#t);}.cls-29{fill:url(#z);}.cls-30{clip-path:url(#ax);}.cls-31{fill:url(#h);}.cls-32{clip-path:url(#aw);}.cls-33{clip-path:url(#av);}.cls-34{fill:url(#g);}.cls-35{clip-path:url(#au);}.cls-36{fill:url(#y);}.cls-37{clip-path:url(#at);}.cls-38{clip-path:url(#as);}.cls-39{fill:url(#x);}.cls-40{clip-path:url(#ar);}.cls-41{fill:url(#c);}.cls-42{fill:#e2ebf4;}.cls-43{clip-path:url(#aq);}.cls-44{fill:url(#l);}.cls-45{clip-path:url(#ap);}.cls-46{fill:url(#k);}.cls-47{clip-path:url(#an);}.cls-48{fill:url(#a);}.cls-49{clip-path:url(#am);}.cls-50{fill:url(#s);}.cls-51{clip-path:url(#al);}.cls-52{fill:url(#r);}.cls-53{clip-path:url(#ak);}.cls-54{fill:url(#q);}.cls-55{clip-path:url(#aj);}.cls-56{fill:url(#p);}.cls-57{clip-path:url(#ai);}.cls-58{fill:url(#o);}.cls-59{opacity:0.45;}.cls-60{clip-path:url(#ah);}.cls-61{fill:url(#bf);}.cls-62{fill:url(#w);}.cls-63{fill:url(#be);}</style>
  <radialGradient id="d" cx="-88.79" cy="681.97" r=".27" gradientTransform="matrix(44.73 0 0 -44.73 4358.1 30802)" gradientUnits="userSpaceOnUse">
   <stop stop-color="#fff" offset="0"/>
   <stop stop-color="#fff" offset=".6"/>
   <stop stop-color="#fbfbfb" offset=".66"/>
   <stop stop-color="#efefef" offset=".72"/>
   <stop stop-color="#dbdbdb" offset=".79"/>
   <stop stop-color="#bfbfbf" offset=".85"/>
   <stop stop-color="#9b9b9b" offset=".91"/>
   <stop stop-color="#6f6f6f" offset=".97"/>
   <stop stop-color="#575757" offset="1"/>
  </radialGradient>
  <radialGradient id="f" cx="-90.16" cy="681.98" r=".27" gradientTransform="matrix(44.73 0 0 -44.73 4442.1 30803)" xlink:href="#d"/>
  <linearGradient id="i" x1="-89.92" x2="-89.65" y1="681.71" y2="681.71" gradientTransform="matrix(0 -80.7 -80.7 0 55414 -6953.2)" gradientUnits="userSpaceOnUse">
   <stop stop-color="#fff" offset="0"/>
   <stop stop-color="#fff" offset=".5"/>
   <stop stop-color="#fbfbfb" offset=".58"/>
   <stop stop-color="#efefef" offset=".65"/>
   <stop stop-color="#dbdbdb" offset=".73"/>
   <stop stop-color="#bfbfbf" offset=".81"/>
   <stop stop-color="#9b9b9b" offset=".89"/>
   <stop stop-color="#6f6f6f" offset=".96"/>
   <stop stop-color="#575757" offset="1"/>
  </linearGradient>
  <clipPath id="az" transform="translate(-372.1 -284.92)">
   <rect class="cls-4" x="415.08" y="309.7" width="2.56" height="1.34" fill="none"/>
  </clipPath>
  <clipPath id="ao" transform="translate(-372.1 -284.92)">
   <rect class="cls-4" x="382.23" y="288.24" width="31.68" height="24.06" fill="none"/>
  </clipPath>
  <clipPath id="ag" transform="translate(-372.1 -284.92)">
   <path class="cls-4" d="m398.07 288.24" fill="none"/>
  </clipPath>
  <radialGradient id="n" cx="-89.74" cy="681.99" r=".27" gradientTransform="matrix(91.59 0 0 -91.59 8246 62482)" gradientUnits="userSpaceOnUse">
   <stop stop-color="#fff" offset="0"/>
   <stop stop-color="#fff" offset=".33"/>
   <stop stop-color="#fafbfb" offset=".4"/>
   <stop stop-color="#ebeef1" offset=".48"/>
   <stop stop-color="#d3d9e0" offset=".58"/>
   <stop stop-color="#b1bdc8" offset=".68"/>
   <stop stop-color="#8697aa" offset=".78"/>
   <stop stop-color="#506a84" offset=".89"/>
   <stop stop-color="#133559" offset="1"/>
   <stop stop-color="#103357" offset="1"/>
  </radialGradient>
  <clipPath id="af" transform="translate(-372.1 -284.92)">
   <rect class="cls-4" x="375.33" y="286.65" width="45.51" height="27.25" fill="none"/>
  </clipPath>
  <clipPath id="ae" transform="translate(-372.1 -284.92)">
   <rect class="cls-4" x="375.76" y="287.08" width="21.81" height="26.38" fill="none"/>
  </clipPath>
  <clipPath id="ad" transform="translate(-372.1 -284.92)">
   <path class="cls-4" d="m397.58 312.73c-9.26-0.2-16.68-5.69-16.68-12.45s7.42-12.26 16.68-12.45v-0.73c-12.09 0.16-21.81 6-21.81 13.19s9.72 13 21.81 13.19v-0.74z" fill="none"/>
  </clipPath>
  <mask id="v" x="3.66" y="2.16" width="21.81" height="26.38" maskUnits="userSpaceOnUse">
   <g transform="translate(-372.1,-284.92)">
    <rect class="cls-1" x="375.76" y="287.08" width="21.81" height="26.38" fill="url(#d)"/>
   </g>
  </mask>
  <radialGradient id="e" cx="-88.79" cy="681.97" r=".27" gradientTransform="matrix(44.73 0 0 -44.73 3986 30517)" gradientUnits="userSpaceOnUse">
   <stop stop-color="#fff" offset="0"/>
   <stop stop-color="#fff" offset=".6"/>
   <stop stop-color="#fbfcfd" offset=".65"/>
   <stop stop-color="#eff5f9" offset=".7"/>
   <stop stop-color="#dbe8f1" offset=".75"/>
   <stop stop-color="#bfd7e6" offset=".8"/>
   <stop stop-color="#9bc0d7" offset=".85"/>
   <stop stop-color="#6ea4c6" offset=".9"/>
   <stop stop-color="#3b84b1" offset=".95"/>
   <stop stop-color="#005f9a" offset="1"/>
  </radialGradient>
  <clipPath id="ac" transform="translate(-372.1 -284.92)">
   <rect class="cls-4" x="398.59" y="287.08" width="21.82" height="26.38" fill="none"/>
  </clipPath>
  <clipPath id="ab" transform="translate(-372.1 -284.92)">
   <path class="cls-4" d="m398.59 287.08v0.73c9.26 0.2 16.68 5.69 16.68 12.45s-7.42 12.26-16.68 12.45v0.74c12.09-0.16 21.82-6 21.82-13.19s-9.72-13-21.82-13.19" fill="none"/>
  </clipPath>
  <mask id="u" x="26.49" y="2.16" width="21.82" height="26.38" maskUnits="userSpaceOnUse">
   <g transform="translate(-372.1,-284.92)">
    <rect class="cls-2" x="398.59" y="287.08" width="21.82" height="26.38" fill="url(#f)"/>
   </g>
  </mask>
  <radialGradient id="m" cx="-90.16" cy="681.98" r=".27" gradientTransform="matrix(44.73 0 0 -44.73 4070 30518)" xlink:href="#e"/>
  <clipPath id="aa" transform="translate(-372.1 -284.92)">
   <rect class="cls-4" x="382.97" y="288.24" width="30.21" height="8.06" fill="none"/>
  </clipPath>
  <clipPath id="ay" transform="translate(-372.1 -284.92)">
   <path class="cls-4" d="m413.18 296.3" fill="none"/>
  </clipPath>
  <mask id="t" x="10.87" y="3.32" width="30.21" height="8.06" maskUnits="userSpaceOnUse">
   <g transform="translate(-372.1,-284.92)">
    <rect class="cls-3" x="382.97" y="288.24" width="30.21" height="8.06" fill="url(#i)"/>
   </g>
  </mask>
  <linearGradient id="z" x1="-89.92" x2="-89.65" y1="681.71" y2="681.71" gradientTransform="matrix(0 -80.7 -80.7 0 55042 -7238.1)" gradientUnits="userSpaceOnUse">
   <stop stop-color="#fff" offset="0"/>
   <stop stop-color="#fff" offset=".5"/>
   <stop stop-color="#fbfcfd" offset=".56"/>
   <stop stop-color="#eff5f9" offset=".62"/>
   <stop stop-color="#dbe8f1" offset=".69"/>
   <stop stop-color="#bfd7e6" offset=".75"/>
   <stop stop-color="#9bc0d7" offset=".81"/>
   <stop stop-color="#6ea4c6" offset=".88"/>
   <stop stop-color="#3b84b1" offset=".94"/>
   <stop stop-color="#005f9a" offset="1"/>
  </linearGradient>
  <clipPath id="ax" transform="translate(-372.1 -284.92)">
   <path class="cls-4" d="m378.42 295.08a17.2 17.2 0 0 1 4.06 -1.23 16 16 0 0 1 5.85 -4.49l-0.1-0.36c-4.33 1.31-7.8 3.46-9.81 6.08" fill="none"/>
  </clipPath>
  <linearGradient id="h" x1="-89.24" x2="-88.97" y1="681.67" y2="681.67" gradientTransform="matrix(126.11 -.01 -.01 -126.11 11625 86257)" gradientUnits="userSpaceOnUse">
   <stop stop-color="#6cb6e4" offset="0"/>
   <stop stop-color="#103357" offset=".7"/>
   <stop stop-color="#103357" offset="1"/>
  </linearGradient>
  <clipPath id="aw" transform="translate(-372.1 -284.92)">
   <path class="cls-4" d="m388.1 288.77a18.33 18.33 0 0 0 -10.1 6.49 17.71 17.71 0 0 1 4.74 -1.46 16.93 16.93 0 0 1 5.62 -4.19c0.88-0.47 0.89-0.92 0.26-0.92" fill="none"/>
  </clipPath>
  <clipPath id="av" transform="translate(-372.1 -284.92)">
   <path class="cls-4" d="m380.14 300.56h-3.6c0.18 4.79 4.88 8.92 11.69 11l0.1-0.36c-4.83-2.26-8-6.17-8.18-10.62" fill="none"/>
  </clipPath>
  <linearGradient id="g" x1="-89.22" x2="-88.95" y1="681.77" y2="681.77" gradientTransform="matrix(75.22 -.01 -.01 -75.22 7104.2 51585)" gradientUnits="userSpaceOnUse">
   <stop stop-color="#2c7ab9" offset="0"/>
   <stop stop-color="#0d548b" offset="1"/>
  </linearGradient>
  <clipPath id="au" transform="translate(-372.1 -284.92)">
   <path class="cls-4" d="m407.82 289.35a16.08 16.08 0 0 1 5.88 4.51 17.23 17.23 0 0 1 4.07 1.24c-2-2.63-5.5-4.79-9.85-6.11z" fill="none"/>
  </clipPath>
  <linearGradient id="y" x1="-89.57" x2="-89.3" y1="682.16" y2="682.16" gradientTransform="matrix(0 -126.52 -126.52 0 86723 -11018)" xlink:href="#h"/>
  <clipPath id="at" transform="translate(-372.1 -284.92)">
   <path class="cls-4" d="m407.74 289.6a16.93 16.93 0 0 1 5.62 4.19 17.71 17.71 0 0 1 4.74 1.46 18.33 18.33 0 0 0 -10.1 -6.48" fill="none"/>
  </clipPath>
  <clipPath id="as" transform="translate(-372.1 -284.92)">
   <path class="cls-4" d="m416 300.56c-0.14 4.46-3.37 8.36-8.2 10.63l0.1 0.36c6.82-2.06 11.53-6.2 11.71-11h-3.61z" fill="none"/>
  </clipPath>
  <linearGradient id="x" x1="-89.76" x2="-89.49" y1="681.96" y2="681.96" gradientTransform="matrix(0 -78.37 -78.37 0 53857 -6732.1)" xlink:href="#g"/>
  <clipPath id="ar" transform="translate(-372.1 -284.92)">
   <polygon class="cls-4" points="392.4 295.45 392.2 292.52 385.74 292.52 385.74 292.52 385.74 303.26 388.76 303.26 388.76 299.79 391.73 299.79 391.73 296.86 388.78 296.86 388.78 295.45" fill="none"/>
  </clipPath>
  <radialGradient id="c" cx="-89.56" cy="682.26" r=".27" gradientTransform="matrix(0 91.16 91.16 0 -62172 8165.9)" gradientUnits="userSpaceOnUse">
   <stop stop-color="#6cb6e4" offset="0"/>
   <stop stop-color="#103357" offset=".65"/>
   <stop stop-color="#103357" offset="1"/>
  </radialGradient>
  <clipPath id="aq" transform="translate(-372.1 -284.92)">
   <polygon class="cls-4" points="407.39 303.24 410.74 303.24 407.5 297.67 410.44 292.53 407.2 292.53 407.2 292.53 405.86 294.85 404.54 292.53 401.19 292.53 404.19 297.7 401.01 303.25 404.27 303.25 405.82 300.53" fill="none"/>
  </clipPath>
  <radialGradient id="l" cx="-89.56" cy="682.26" r=".27" gradientTransform="matrix(0 91.16 91.16 0 -62172 8165.8)" xlink:href="#c"/>
  <clipPath id="ap" transform="translate(-372.1 -284.92)">
   <path class="cls-4" d="m396.58 300v-4.27a0.91 0.91 0 0 1 0.87 -0.93 1 1 0 0 1 0.91 0.93v4.27" fill="none"/>
  </clipPath>
  <radialGradient id="k" cx="-89.56" cy="682.26" r=".27" gradientTransform="matrix(0 91.16 91.16 0 -62171 8165.5)" xlink:href="#c"/>
  <clipPath id="an" transform="translate(-372.1 -284.92)">
   <polygon class="cls-4" points="385.77 306.96 385.49 307.24 385.49 307.8 388.71 307.8 389.26 307.25 389.26 305.94 388.78 305.46 386.64 305.46 386.58 305.4 386.58 304.89 386.67 304.8 388.92 304.8 389.14 304.57 389.14 303.97 386.03 303.97 386.03 303.97 385.49 304.52 385.49 305.81 385.96 306.29 388.11 306.29 388.17 306.35 388.17 306.88 388.08 306.96" fill="none"/>
  </clipPath>
  <radialGradient id="a" cx="-89.57" cy="682.21" r=".27" gradientTransform="matrix(0 106.58 106.58 0 -72686 9545.3)" gradientUnits="userSpaceOnUse">
   <stop stop-color="#6cb6e4" offset="0"/>
   <stop stop-color="#103357" offset=".84"/>
   <stop stop-color="#103357" offset="1"/>
  </radialGradient>
  <clipPath id="am" transform="translate(-372.1 -284.92)">
   <path class="cls-4" d="m391 304.81h1.49l0.16 0.16v0.69l-0.16 0.16h-1.49v-1zm-1.09-0.84v3.83h1.09v-1.21h2.13l0.61-0.61v-1.4l-0.61-0.61h-3.23z" fill="none"/>
  </clipPath>
  <radialGradient id="s" cx="-89.57" cy="682.21" r=".27" gradientTransform="matrix(0 107.99 107.99 0 -73649 9672.2)" xlink:href="#a"/>
  <clipPath id="al" transform="translate(-372.1 -284.92)">
   <path class="cls-4" d="m395.47 306.72v-1.66l0.22-0.22h1.31l0.22 0.22v1.66l-0.22 0.22h-1.27zm-0.47-2.72l-0.61 0.61v2.61l0.61 0.58h2.68l0.61-0.61v-2.61l-0.61-0.61h-2.68z" fill="none"/>
  </clipPath>
  <radialGradient id="r" cx="-89.57" cy="682.22" r=".27" gradientTransform="matrix(0 108.51 108.51 0 -74004 9718.6)" xlink:href="#a"/>
  <clipPath id="ak" transform="translate(-372.1 -284.92)">
   <path class="cls-4" d="m400.08 304.78h1.47l0.16 0.16v0.58l-0.16 0.15h-1.47zm-1.08-0.78v3.83h1.09v-1.37h1.16l0.51 1.37h1.24l-0.69-1.56 0.52-0.52v-1.19l-0.55-0.55h-3.28z" fill="none"/>
  </clipPath>
  <radialGradient id="q" cx="-89.57" cy="682.21" r=".27" gradientTransform="matrix(0 107.97 107.97 0 -73631 9669.6)" xlink:href="#a"/>
  <clipPath id="aj" transform="translate(-372.1 -284.92)">
   <polygon class="cls-4" points="403.19 303.97 403.19 303.97 403.19 304.89 404.45 304.89 404.45 307.8 405.54 307.8 405.54 304.89 406.81 304.89 406.81 303.97" fill="none"/>
  </clipPath>
  <radialGradient id="p" cx="-89.57" cy="682.22" r=".27" gradientTransform="matrix(0 106.66 106.66 0 -72738 9551.6)" xlink:href="#a"/>
  <clipPath id="ai" transform="translate(-372.1 -284.92)">
   <polygon class="cls-4" points="407.46 306.96 407.18 307.24 407.18 307.8 410.4 307.8 410.95 307.25 410.95 305.94 410.47 305.46 408.33 305.46 408.27 305.4 408.27 304.89 408.36 304.8 410.61 304.8 410.83 304.57 410.83 303.97 407.72 303.97 407.72 303.97 407.18 304.52 407.18 305.81 407.65 306.29 409.8 306.29 409.86 306.35 409.86 306.88 409.77 306.96" fill="none"/>
  </clipPath>
  <radialGradient id="o" cx="-89.56" cy="682.22" r=".27" gradientTransform="matrix(0 105.02 105.02 0 -71623 9404.6)" xlink:href="#a"/>
  <clipPath id="ah" transform="translate(-372.1 -284.92)">
   <rect class="cls-4" x="380.9" y="287.81" width="34.37" height="24.93" fill="none"/>
  </clipPath>
  <radialGradient id="bf" cx="68.39" cy="6.18" r="16.41" xlink:href="#a"/>
  <linearGradient id="w" x1="64.75" x2="63.59" y1="6.44" y2="22.62" xlink:href="#a"/>
  <radialGradient id="be" cx="66.84" cy="6.59" r="16.23" xlink:href="#a"/>
  <style>.cls-1{fill:url(#d);}.cls-2{fill:url(#f);}.cls-3{fill:url(#i);}.cls-4{fill:none;}.cls-5{opacity:0;}.cls-6{fill:#fff;}.cls-7{clip-path:url(#az);}.cls-8{fill:url(#z);}.cls-9{opacity:0.5;}.cls-10{clip-path:url(#ao);}.cls-11{fill:#103357;}.cls-12{opacity:0.8;}.cls-13{clip-path:url(#ag);}.cls-14{clip-path:url(#af);}.cls-15{fill:url(#n);}.cls-16{opacity:0.25;}.cls-17{clip-path:url(#ae);}.cls-18{opacity:0.11;}.cls-19{clip-path:url(#ad);}.cls-20{clip-path:url(#ac);}.cls-21{mask:url(#v);}.cls-22{fill:url(#e);}.cls-23{clip-path:url(#ab);}.cls-24{clip-path:url(#aa);}.cls-25{mask:url(#u);}.cls-26{fill:url(#m);}.cls-27{opacity:0.7;}.cls-28{clip-path:url(#ay);}.cls-29{clip-path:url(#ax);}.cls-30{mask:url(#t);}.cls-31{fill:url(#h);}.cls-32{clip-path:url(#aw);}.cls-33{fill:url(#g);}.cls-34{clip-path:url(#av);}.cls-35{clip-path:url(#au);}.cls-36{fill:url(#y);}.cls-37{clip-path:url(#at);}.cls-38{fill:url(#x);}.cls-39{clip-path:url(#as);}.cls-40{clip-path:url(#ar);}.cls-41{fill:url(#w);}.cls-42{clip-path:url(#aq);}.cls-43{fill:url(#c);}.cls-44{fill:#e2ebf4;}.cls-45{clip-path:url(#ap);}.cls-46{fill:url(#l);}.cls-47{clip-path:url(#an);}.cls-48{fill:url(#k);}.cls-49{clip-path:url(#am);}.cls-50{fill:url(#a);}.cls-51{clip-path:url(#al);}.cls-52{fill:url(#s);}.cls-53{clip-path:url(#ak);}.cls-54{fill:url(#r);}.cls-55{clip-path:url(#aj);}.cls-56{fill:url(#q);}.cls-57{clip-path:url(#ai);}.cls-58{fill:url(#p);}.cls-59{clip-path:url(#ah);}.cls-60{fill:url(#o);}.cls-61{opacity:0.45;}.cls-62{clip-path:url(#bb);}</style>
  <clipPath id="bb" transform="translate(-372.9 -285.01)">
   <rect class="cls-4" x="390.65" y="287.88" width="34.14" height="24.76" fill="none"/>
  </clipPath>
  <style>.cls-1{fill:url(#d);}.cls-2{fill:url(#f);}.cls-3{fill:url(#i);}.cls-4{fill:none;}.cls-5{opacity:0;}.cls-6{fill:#fff;}.cls-7{clip-path:url(#az);}.cls-8{fill:url(#z);}.cls-9{opacity:0.5;}.cls-10{clip-path:url(#ao);}.cls-11{fill:#103357;}.cls-12{opacity:0.8;}.cls-13{clip-path:url(#ag);}.cls-14{clip-path:url(#af);}.cls-15{fill:url(#n);}.cls-16{opacity:0.25;}.cls-17{clip-path:url(#ae);}.cls-18{opacity:0.11;}.cls-19{clip-path:url(#ad);}.cls-20{clip-path:url(#ac);}.cls-21{mask:url(#v);}.cls-22{fill:url(#e);}.cls-23{clip-path:url(#ab);}.cls-24{clip-path:url(#aa);}.cls-25{mask:url(#u);}.cls-26{fill:url(#m);}.cls-27{opacity:0.7;}.cls-28{clip-path:url(#ay);}.cls-29{clip-path:url(#ax);}.cls-30{mask:url(#t);}.cls-31{fill:url(#h);}.cls-32{clip-path:url(#aw);}.cls-33{fill:url(#g);}.cls-34{clip-path:url(#av);}.cls-35{clip-path:url(#au);}.cls-36{fill:url(#y);}.cls-37{clip-path:url(#at);}.cls-38{fill:url(#x);}.cls-39{clip-path:url(#as);}.cls-40{clip-path:url(#ar);}.cls-41{fill:url(#w);}.cls-42{clip-path:url(#aq);}.cls-43{fill:url(#c);}.cls-44{fill:#e2ebf4;}.cls-45{clip-path:url(#ap);}.cls-46{fill:url(#l);}.cls-47{clip-path:url(#an);}.cls-48{fill:url(#k);}.cls-49{clip-path:url(#am);}.cls-50{fill:url(#a);}.cls-51{clip-path:url(#al);}.cls-52{fill:url(#s);}.cls-53{clip-path:url(#ak);}.cls-54{fill:url(#r);}.cls-55{clip-path:url(#aj);}.cls-56{fill:url(#q);}.cls-57{clip-path:url(#ai);}.cls-58{fill:url(#p);}.cls-59{clip-path:url(#ah);}.cls-60{fill:url(#o);}.cls-61{opacity:0.45;}.cls-62{clip-path:url(#bb);}</style>
  <radialGradient id="bd" cx="612.99" cy="-888.92" r="1935" gradientTransform="matrix(.0060104 2.8763 -1.0207 .002314 -298.03 -1785.4)" gradientUnits="userSpaceOnUse">
   <stop stop-color="#fff" stop-opacity="0" offset="0"/>
   <stop stop-color="#e5e9f1" offset=".68156"/>
   <stop stop-color="#c2cbdd" offset="1"/>
  </radialGradient>
  <radialGradient id="j" cx="586.64" cy="-1173.2" r="1443.5" gradientTransform="matrix(-.0055236 .8865 -1.1853 -.0073853 -779.7 -776.97)" gradientUnits="userSpaceOnUse" xlink:href="#bj"/>
  <linearGradient id="bh" x1="-1632" x2="-482.45" y1="83.693" y2="-621.14" gradientUnits="userSpaceOnUse" xlink:href="#ba"/>
  <linearGradient id="bg" x1="2938.5" x2="1802.2" y1="64.735" y2="-621.25" gradientUnits="userSpaceOnUse" xlink:href="#ba"/>
  <radialGradient id="b" cx="725.13" cy="2490.1" r="1462.8" gradientTransform="matrix(-.96721 .0036439 -.002816 -.74747 1326.9 2330)" gradientUnits="userSpaceOnUse" xlink:href="#bi"/>
  <radialGradient id="bc" cx="725.13" cy="2490.1" r="1462.8" gradientTransform="matrix(-.96721 .0036439 -.002816 -.74747 1326.9 2330)" gradientUnits="userSpaceOnUse">
   <stop stop-color="#4372a1" offset="0"/>
   <stop stop-color="#113d68" offset=".65811"/>
   <stop stop-color="#002c55" offset="1"/>
  </radialGradient>
 </defs>
 <g transform="translate(-516.98 -503.2)">
  <g transform="matrix(.62885 0 0 .62885 1787 -562.38)">
   <g transform="matrix(.18645 0 0 .18645 -1643 1865.3)">
    <path d="m656.14 2292.8c-1404.4 0-2675.7-668.22-2675.7-1620.1 0-817.87 1127-1589.1 2678.7-1589.1 1543.7 0 2679.4 762.88 2679.4 1585.7 0 944.64-1234.1 1623.5-2682.4 1623.5z" fill="#93a1be"/>
    <path d="m718.2 2226.3c1230.8 0 2543.9-604.81 2543.9-1559.1 0-863.37-1268-1516.8-2543.9-1516.8v1347.9l3e-4 1638.6z" fill="#f3f5fa"/>
    <path d="m600.94 2226.3c-1230.8 0-2543.9-604.81-2543.9-1559.1 0-808.73 1178.7-1516.8 2543.9-1516.8v1347.9l-2.9e-4 1638.6z" fill="#f8f9fc"/>
    <ellipse transform="matrix(1 0 0 1.3264 133.26 -212.34)" cx="525.04" cy="679.24" rx="1953.6" ry="1082.1" fill="#fbfbfd" fill-rule="evenodd"/>
    <path d="m653.95 2111.5-373.14-20.73-416.49-88.575-393.88-169.61-314.72-207.3-254.42-339.22-196-665.25 147.94-367.49c227.19-136.68 403.3-193.17 403.3-193.17l622.85-29.211 233.69 165.84 324.15-222.38 290.22 15.077 282.69 120.61 226.15-67.845 418.37 56.537 226.15-97.998c255.08 62.769 619.08 266.67 619.08 266.67l74.44 604-128.15 410.84-184.69 239.34-165.84 143.23-344.88 209.19-373.14 156.42-491.87 71.614z" fill="url(#bd)"/>
    <path d="m1378 1020.4h-376l366.57-639.43-345.57-596.57h387l152 267 155-267h373.62l-339.46 592.91 373.84 643.09h-386.52l-181.43-313.27z" fill="#fff" stroke="#fff" stroke-width="43.8"/>
    <path d="m-762 1022.4v-1240h746l23 339h-419v162h341v338h-343v401z" fill="#fff" stroke="#fff" stroke-width="44"/>
    <path d="m-762 1022.4v-1240h746l23 339h-419v162h341v338h-343v401z" fill="url(#j)"/>
    <path d="m587.31-199.06c-339.42 0-589.84 285.65-589.84 603.66 0 300.23 235.45 602.19 591.41 602.19 335.56 0 590.5-277.53 590.5-603.97 0-321.55-254.08-601.88-592.06-601.88zm2.6875 247.44c60.572 0 105 54.653 105 109v492c0 60.144-48.386 103-105 103-63.443 0-101-54.346-101-105v-485c0-61.57 42.692-114 101-114z" fill="url(#j)"/>
    <path d="m1378 1020.4h-376l366.57-639.43-345.57-596.57h387l152 267 155-267h373.62l-339.46 592.91 373.84 643.09h-386.52l-181.43-313.27z" fill="url(#j)"/>
    <path d="m-1852 722.36h420c15.859 488.54 356.42 957.87 954.14 1237.8l-11.425 42.285c-763.95-230.02-1336.3-699.04-1362.7-1280.1z" fill="#002c55"/>
    <path d="m3169.8 722.36h-420c-15.859 488.54-356.42 957.87-954.14 1237.8l11.425 42.285c763.95-230.02 1336.3-699.04 1362.7-1280.1z" fill="#002c55"/>
    <path d="m-1490 152.36-143-69c235.23-314.75 680.62-569.44 1143.9-709.32l11.494 42.393c-281.76 132.39-523.46 317.67-682.35 523.92z" fill="url(#bh)"/>
    <path d="m-1850 618.36h420c15.33-251.18 110.97-476.99 270-678-277.18 50.441-473 143-473 143-130.44 172.3-202.17 350.23-217 535z" fill="#002c55"/>
    <path d="m2808.8 152.36 143-69c-235.23-314.75-680.62-569.44-1143.9-709.32l-11.494 42.393c281.76 132.39 523.46 317.67 682.35 523.92z" fill="url(#bg)"/>
    <path d="m3168.8 618.36h-420c-15.33-251.18-110.97-476.99-270-678 277.18 50.441 473 143 473 143 130.44 172.3 202.17 350.23 217 535z" fill="#002c55"/>
    <path d="m-791 1562.9v-63.634l32.502-31.883h266.55l9.9443-9.9833v-69l-8-8h-247l-54-54v-157l63-63h358v69l-26 26h-260l-10 10v67l8 8h246l55 55v159l-62.5 62.5z" fill="#fff" stroke="#fff" stroke-width="43"/>
    <path d="m1700.7 1562.9v-63.634l32.502-31.883h266.55l9.9443-9.9833v-69l-8-8h-247l-54-54v-157l63-63h358v69l-26 26h-260l-10 10v67l8 8h246l55 55v159l-62.5 62.5z" fill="#fff" stroke="#fff" stroke-width="43"/>
    <path d="m-791 1562.9v-63.634l32.502-31.883h266.55l9.9443-9.9833v-69l-8-8h-247l-54-54v-157l63-63h358v69l-26 26h-260l-10 10v67l8 8h246l55 55v159l-62.5 62.5z" fill="url(#b)"/>
    <path d="m-278 1106.4v456.5h125v-146.5h247l70-70v-170l-70-70zm125 96h172l19 19v88l-19 19h-172z" fill="url(#b)"/>
    <path d="m301 1106.4-70 70v317l69 69.5h309l70-69.5v-317l-70-70zm80 99h147l26 25v200.44l-25.812 25.562h-147.19l-26-26v-199z" fill="url(#bc)"/>
    <path d="m762 1106.4v456.5h125v-165.5h134l59 166h140l-80-187.53 61-60.469v-146l-63-63zm125 93h170l18 18v67l-18 18h-170z" fill="url(#b)"/>
    <path d="m1389 1562.9v-351.5h-145v-105h416v105h-145.5v351.5z" fill="url(#b)"/>
    <path d="m1700.7 1562.9v-63.634l32.502-31.883h266.55l9.9443-9.9833v-69l-8-8h-247l-54-54v-157l63-63h358v69l-26 26h-260l-10 10v67l8 8h246l55 55v159l-62.5 62.5z" fill="url(#b)"/>
    <path d="m657.47-765.06c-1159.4 0-2001.6 696.23-2001.6 1440.8 0 845.77 930.47 1465.1 2000.6 1465.1 1029.2 0 2006-583.77 2006-1472.9 0-724.58-828.35-1433-2005-1433zm0.59375 51.219c570.93 0 1109 173.13 1493.9 498.84 197.92 228.05 352.19 530.61 352.19 905.28 0 366.87-150.38 669.22-351.25 900.37-345.05 297.32-876.56 499.88-1495.4 499.88-619.01 0-1148.9-205.33-1494.6-500.06-226.37-263.94-350.88-573.58-350.88-902.06 0-350.72 136.88-653.55 349.97-901.5 329.1-282.61 858.84-500.75 1496.1-500.75z" fill="#60779c"/>
   </g>
  </g>
 </g>
 <g transform="translate(-3.5704e-6 3.2391e-6)" display="none">
  <path d="m662.9 236.14h68.448l6.032-4.9703 3.6742-20.503-4.3195-4.9648h-47.047l5.1735-29.588h46.854l6.0358-5.167 3.027-17.921-4.0979-4.9804h-68.237l-11.219-12.949 3.0325-17.472h107.08l17.037 20.72-6.2463 35.181-19.861 16.849 14.025 17.484-6.6866 37.993-23.967 20.725h-107.51l3.0142-17.482z" fill="#fff" stroke-width=".91924"/>
 </g>
 <g transform="translate(-3.5704e-6 3.2391e-6)" display="none">
  <path d="m772.47 148.06h-67.998l-5.181 29.139 12.52-10.355h50.947l16.619 19.854-10.363 58.286-25.471 21.591h-96.492l3.0215-17.491 15.759-12.948h59.146l5.3997-4.3209 5.6138-32.159-2.8064-3.4571h-31.518l-9.285 7.993h-38.638l15.327-86.568h122.4l-3.0215 17.491z" fill="#fff" stroke-width=".91505"/>
 </g>
 <g transform="translate(-3.5704e-6 3.2391e-6)" display="none">
  <g transform="matrix(.81256 0 -.17876 .81256 -174.37 -51)">
   <polygon points="1185.3 306.03 1185.3 244.97 1185.6 207.52 1235.8 207.52 1235.8 306.03 1249.5 306.03 1249.5 346.4 1235.8 346.4 1235.8 390.83 1185.3 390.83 1185.3 346.39 1085.6 346.4 1084.5 306.03 1112.5 207.52 1163.6 207.53 1135.6 306.03" fill="#fff"/>
  </g>
 </g>
 <g transform="translate(-3.5704e-6 3.2391e-6)" display="none">
  <g transform="matrix(.81012 0 -.19494 .81012 -177.01 -49.988)">
   <path d="m1125.5 206.89h125.99l-0.01 23.189-15.454 14.379h-84.625l0.278 34.399 12.607-11.333 62.513-0.126 25.481 25.376-0.482 72.395-25.316 25.584h-96.201l-31.489-25.583 49.344-18.121 7.738 6.132h39.166l6.392-6.132-0.055-36.745-5.671-5.906h-38.25l-8.809 9.625-0.511 33.026-49.344 18.121 1.354-132.71z" fill="#fff"/>
  </g>
 </g>
 <g transform="translate(-3.5704e-6 3.2391e-6)" display="none">
  <path d="m701.34 117.62h54.838l-26.128 148.95h-41.019l20.741-118.53h-27.429l3.2458-17.484z" fill="#fff" stroke-width=".91923"/>
 </g>
 <g transform="translate(-3.5704e-6 3.2391e-6)" display="none">
  <polygon class="cls-6" transform="matrix(15.168 0 0 15.168 -243.32 -37.549)" points="60.94 12.23 60.2 11.38 60.41 10.23 67 10.23 68.19 11.64 67.55 15.28 66.11 16.49 62.41 16.49 61.97 16.86 61.76 18.04 65.83 18.04 66.58 18.89 66.38 20.05 58.73 20.05 59.51 15.6 60.93 14.38 64.63 14.38 65.06 14.03 65.31 12.55 65.03 12.23" display="inline" fill="#fff"/>
 </g>
</svg>
