<?xml version="1.0" encoding="UTF-8" standalone="no"?>
<svg
   xmlns:dc="http://purl.org/dc/elements/1.1/"
   xmlns:cc="http://creativecommons.org/ns#"
   xmlns:rdf="http://www.w3.org/1999/02/22-rdf-syntax-ns#"
   xmlns:svg="http://www.w3.org/2000/svg"
   xmlns="http://www.w3.org/2000/svg"
   xmlns:xlink="http://www.w3.org/1999/xlink"
   xmlns:sodipodi="http://sodipodi.sourceforge.net/DTD/sodipodi-0.dtd"
   xmlns:inkscape="http://www.inkscape.org/namespaces/inkscape"
   viewBox="0 0 1332.741 446.897"
   id="svg2"
   version="1.1"
   inkscape:version="0.91 r13725"
   sodipodi:docname="foxsports4hd.default.svg"
   width="1332.741"
   height="446.897">
  <metadata
     id="metadata266">
    <rdf:RDF>
      <cc:Work
         rdf:about="">
        <dc:format>image/svg+xml</dc:format>
        <dc:type
           rdf:resource="http://purl.org/dc/dcmitype/StillImage" />
        <dc:title></dc:title>
      </cc:Work>
    </rdf:RDF>
  </metadata>
  <sodipodi:namedview
     pagecolor="#ffffff"
     bordercolor="#666666"
     borderopacity="1"
     objecttolerance="10"
     gridtolerance="10"
     guidetolerance="10"
     inkscape:pageopacity="0"
     inkscape:pageshadow="2"
     inkscape:window-width="640"
     inkscape:window-height="480"
     id="namedview264"
     showgrid="false"
     inkscape:zoom="0.50911688"
     inkscape:cx="849.48445"
     inkscape:cy="-85.37533"
     inkscape:window-x="0"
     inkscape:window-y="0"
     inkscape:window-maximized="0"
     inkscape:current-layer="svg2"
     fit-margin-top="0"
     fit-margin-left="0"
     fit-margin-right="0"
     fit-margin-bottom="0" />
  <linearGradient
     id="a"
     gradientUnits="userSpaceOnUse"
     x1="309"
     y1="371.565"
     x2="1471.079"
     y2="371.565"
     gradientTransform="translate(-138.338,-150.05)">
    <stop
       offset="0"
       stop-color="#8ac2eb"
       id="stop5" />
    <stop
       offset=".841"
       stop-color="#002e52"
       id="stop7" />
  </linearGradient>
  <path
     d="m 1207.506,96.275 -1036.844,0 0,250.481 1036.844,0 c 69.165,0 125.235,-56.063 125.235,-125.235 0,-69.161 -56.069,-125.246 -125.235,-125.246 z"
     id="path9"
     inkscape:connector-curvature="0"
     style="fill:url(#a)" />
  <g
     id="g11"
     style="fill:#ffffff"
     transform="translate(-138.338,-150.05)">
    <path
       d="m 1106.877,290.569 44.409,0 -11.273,63.901 47.223,0 11.28,-63.901 44.638,0 -28.421,162.12 -44.65,0 10.344,-59.448 -47.229,0 -10.335,59.448 -44.409,0 28.423,-162.12 z m 161.891,0 111.852,0 20.671,24.903 -19.735,112.311 -29.368,24.906 -111.845,0 28.425,-162.12 z m 61.561,129.461 9.4,-7.991 14.33,-80.829 -6.577,-7.983 -39.946,0 -17.151,96.802 39.944,0 z"
       id="path13"
       inkscape:connector-curvature="0" />
  </g>
  <path
     d="m 850.776,262.955 -87.758,0 4.482,-26.422 47.654,-96.014 40.813,0 -38.926,87.758 39.868,0 15.335,-87.758 44.35,0 -15.335,87.758 15.335,0 -6.135,34.678 -15.333,0 -7.077,40.341 -44.35,0 7.077,-40.341 z"
     id="path15"
     inkscape:connector-curvature="0"
     style="fill:#ffffff" />
  <path
     d="m 746.237,223.44 c 0,123.413 -167.062,223.457 -373.123,223.457 C 167.05,446.897 0,346.854 0,223.44 0,100.031 167.051,0.001 373.114,0.001 579.175,0 746.237,100.031 746.237,223.44 Z"
     id="path21"
     inkscape:connector-curvature="0"
     style="fill:#ffffff" />
  <radialGradient
     id="b"
     cx="511.28601"
     cy="373.49399"
     r="406.36401"
     gradientUnits="userSpaceOnUse"
     gradientTransform="translate(-138.338,-150.05)">
    <stop
       offset=".325"
       stop-color="#fff"
       id="stop24" />
    <stop
       offset=".395"
       stop-color="#fafbfc"
       id="stop26" />
    <stop
       offset=".478"
       stop-color="#ebeff2"
       id="stop28" />
    <stop
       offset=".569"
       stop-color="#d3dbe1"
       id="stop30" />
    <stop
       offset=".664"
       stop-color="#b1bfca"
       id="stop32" />
    <stop
       offset=".764"
       stop-color="#869bad"
       id="stop34" />
    <stop
       offset=".867"
       stop-color="#507088"
       id="stop36" />
    <stop
       offset=".971"
       stop-color="#123d5e"
       id="stop38" />
    <stop
       offset="1"
       stop-color="#002e52"
       id="stop40" />
  </radialGradient>
  <path
     d="m 372.948,26.169 c -84.453,0 -159.967,27.395 -210.362,70.452 -31.015,35.636 -49.35,79.433 -49.35,126.819 0,47.389 18.335,91.175 49.342,126.819 50.392,43.061 125.917,70.46 210.37,70.46 84.452,0 159.969,-27.395 210.35,-70.452 31.017,-35.635 49.361,-79.438 49.361,-126.827 0,-47.394 -18.344,-91.192 -49.367,-126.836 C 532.9,53.555 457.389,26.169 372.948,26.169 Z"
     id="path42"
     inkscape:connector-curvature="0"
     style="opacity:0.8;fill:url(#b)" />
  <path
     d="M 373.132,0 C 167.051,0 0.009,100.03 0.009,223.439 c 0,123.413 167.042,223.457 373.123,223.457 206.055,0 373.105,-100.043 373.105,-223.457 C 746.237,100.031 579.187,0 373.132,0 Z m 0,427.798 C 217.484,427.798 91.331,336.316 91.331,223.439 91.331,110.58 217.484,19.08 373.132,19.08 c 155.611,0 281.773,91.499 281.773,204.359 0,112.877 -126.162,204.359 -281.773,204.359 z"
     id="path44"
     inkscape:connector-curvature="0"
     style="opacity:0.25;fill:#002e52" />
  <path
     d="M 364.809,427.647 C 213.03,424.454 91.331,334.298 91.331,223.44 91.331,112.595 213.03,22.431 364.809,19.229 l 0,-12.023 C 166.499,9.823 7.09,105.595 7.09,223.44 c 0,117.854 159.408,213.613 357.719,216.234 l 0,-12.027 z m 16.609,-420.442 0,12.023 c 151.787,3.202 273.496,93.367 273.496,204.211 0,110.857 -121.708,201.014 -273.496,204.207 l 0,12.027 C 579.73,437.052 739.15,341.293 739.15,223.439 739.149,105.585 579.73,9.823 381.418,7.205 Z"
     id="path46"
     inkscape:connector-curvature="0"
     style="fill:#ffffff" />
  <radialGradient
     id="c"
     cx="324.28799"
     cy="373.48999"
     r="198.429"
     gradientUnits="userSpaceOnUse"
     gradientTransform="translate(-138.338,-150.05)">
    <stop
       offset=".601"
       stop-color="#fff"
       id="stop49" />
    <stop
       offset=".651"
       stop-color="#fbfcfd"
       stop-opacity=".917"
       id="stop51" />
    <stop
       offset=".701"
       stop-color="#eff4f8"
       stop-opacity=".834"
       id="stop53" />
    <stop
       offset=".751"
       stop-color="#dbe6f0"
       stop-opacity=".751"
       id="stop55" />
    <stop
       offset=".802"
       stop-color="#bfd3e4"
       stop-opacity=".668"
       id="stop57" />
    <stop
       offset=".852"
       stop-color="#9bbad4"
       stop-opacity=".585"
       id="stop59" />
    <stop
       offset=".902"
       stop-color="#6e9cc1"
       stop-opacity=".502"
       id="stop61" />
    <stop
       offset=".951"
       stop-color="#3b78ab"
       stop-opacity=".421"
       id="stop63" />
    <stop
       offset="1"
       stop-color="#005092"
       stop-opacity=".34"
       id="stop65" />
  </radialGradient>
  <path
     d="M 364.809,427.647 C 213.03,424.454 91.331,334.298 91.331,223.44 91.331,112.595 213.03,22.431 364.809,19.229 l 0,-12.023 C 166.499,9.823 7.09,105.595 7.09,223.44 c 0,117.854 159.408,213.613 357.719,216.234 l 0,-12.027 z"
     id="path67"
     inkscape:connector-curvature="0"
     style="opacity:0.11000001;fill:url(#c)" />
  <radialGradient
     id="d"
     cx="698.62097"
     cy="373.48999"
     r="198.43201"
     gradientUnits="userSpaceOnUse"
     gradientTransform="translate(-138.338,-150.05)">
    <stop
       offset=".601"
       stop-color="#fff"
       id="stop70" />
    <stop
       offset=".651"
       stop-color="#fbfcfd"
       stop-opacity=".917"
       id="stop72" />
    <stop
       offset=".701"
       stop-color="#eff4f8"
       stop-opacity=".834"
       id="stop74" />
    <stop
       offset=".751"
       stop-color="#dbe6f0"
       stop-opacity=".751"
       id="stop76" />
    <stop
       offset=".802"
       stop-color="#bfd3e4"
       stop-opacity=".668"
       id="stop78" />
    <stop
       offset=".852"
       stop-color="#9bbad4"
       stop-opacity=".585"
       id="stop80" />
    <stop
       offset=".902"
       stop-color="#6e9cc1"
       stop-opacity=".502"
       id="stop82" />
    <stop
       offset=".951"
       stop-color="#3b78ab"
       stop-opacity=".421"
       id="stop84" />
    <stop
       offset="1"
       stop-color="#005092"
       stop-opacity=".34"
       id="stop86" />
  </radialGradient>
  <path
     d="m 381.418,7.205 0,12.023 c 151.787,3.202 273.496,93.367 273.496,204.211 0,110.857 -121.708,201.014 -273.496,204.207 l 0,12.027 C 579.73,437.052 739.15,341.293 739.15,223.439 739.149,105.585 579.73,9.823 381.418,7.205 Z"
     id="path88"
     inkscape:connector-curvature="0"
     style="opacity:0.11000001;fill:url(#d)" />
  <g
     id="g90"
     style="fill:#002e52"
     transform="translate(-138.338,-150.05)">
    <path
       d="m 217.496,363.611 c 4.491,-70.859 56.668,-132.689 133.959,-168.983 l -1.582,-5.927 c -109.219,33.058 -185.315,98.588 -191.4,174.91 l 59.023,0 z m -0.221,14.623 -59.098,0 c 2.994,78.519 80.034,146.246 191.697,180.057 l 1.582,-5.931 C 272.29,515.191 219.483,451.242 217.275,378.234 Z"
       id="path92"
       inkscape:connector-curvature="0" />
  </g>
  <g
     id="g94"
     style="fill:#002e52"
     transform="translate(-138.338,-150.05)">
    <path
       d="m 805.417,363.611 59.023,0 C 858.355,287.198 782.067,221.607 672.646,188.58 l -1.573,5.866 c 77.52,36.26 129.862,98.189 134.344,169.165 z m 0.225,14.623 c -2.203,73.117 -55.186,137.156 -134.535,174.304 l 1.564,5.866 C 784.536,524.623 861.742,456.84 864.745,378.234 l -59.103,0 z"
       id="path96"
       inkscape:connector-curvature="0" />
  </g>
  <linearGradient
     id="e"
     gradientUnits="userSpaceOnUse"
     x1="511.28"
     y1="423.75601"
     x2="511.28"
     y2="65.711998"
     gradientTransform="translate(-138.338,-150.05)">
    <stop
       offset=".498"
       stop-color="#fff"
       id="stop99" />
    <stop
       offset=".561"
       stop-color="#fbfcfd"
       stop-opacity=".917"
       id="stop101" />
    <stop
       offset=".624"
       stop-color="#eff4f8"
       stop-opacity=".834"
       id="stop103" />
    <stop
       offset=".687"
       stop-color="#dbe6f0"
       stop-opacity=".751"
       id="stop105" />
    <stop
       offset=".75"
       stop-color="#bfd3e4"
       stop-opacity=".668"
       id="stop107" />
    <stop
       offset=".814"
       stop-color="#9bbad4"
       stop-opacity=".585"
       id="stop109" />
    <stop
       offset=".877"
       stop-color="#6e9cc1"
       stop-opacity=".502"
       id="stop111" />
    <stop
       offset=".939"
       stop-color="#3b78ab"
       stop-opacity=".421"
       id="stop113" />
    <stop
       offset="1"
       stop-color="#005092"
       stop-opacity=".34"
       id="stop115" />
  </linearGradient>
  <path
     d="M 620.597,158.217 C 612.109,135.9 599.445,115.134 583.309,96.586 532.925,53.546 457.407,26.156 372.965,26.156 c -84.459,0 -159.967,27.39 -210.37,70.456 -16.145,18.569 -28.829,39.366 -37.308,61.722 87.585,-47.108 161.048,-54.205 246.155,-54.205 90.009,0 160.905,7.097 249.155,54.088 z"
     id="path117"
     inkscape:connector-curvature="0"
     style="opacity:0.7;fill:url(#e)" />
  <defs
     id="defs119">
    <path
       id="f"
       d="m 182.918,291.223 c 25.328,-12.252 49.272,-18.786 77.679,-23.942 22.544,-26.589 44.818,-43.434 92.147,-68.767 17.859,-9.566 13.758,-18.656 -5.006,-13.639 -18.763,5.005 -103.016,25.888 -164.82,106.348 z"
       inkscape:connector-curvature="0" />
  </defs>
  <clipPath
     id="g">
    <use
       xlink:href="#f"
       overflow="visible"
       id="use123"
       style="overflow:visible"
       x="0"
       y="0"
       width="100%"
       height="100%" />
  </clipPath>
  <g
     clip-path="url(#g)"
     id="g125"
     transform="translate(-138.338,-150.05)">
    <linearGradient
       id="h"
       gradientUnits="userSpaceOnUse"
       x1="12.392"
       y1="410.46201"
       x2="510.944"
       y2="156.519">
      <stop
         offset="0"
         stop-color="#8ac2eb"
         id="stop128" />
      <stop
         offset=".7"
         stop-color="#002e52"
         id="stop130" />
    </linearGradient>
    <path
       d="m 217.522,363.607 c 4.491,-70.859 56.666,-132.69 133.97,-168.983 l -1.594,-5.923 c -109.22,33.053 -185.304,98.583 -191.385,174.906 l 59.009,0 z"
       id="path132"
       inkscape:connector-curvature="0"
       style="fill:url(#h)" />
    <linearGradient
       id="i"
       gradientUnits="userSpaceOnUse"
       x1="285.40799"
       y1="452.28799"
       x2="582.755"
       y2="300.83099">
      <stop
         offset="0"
         stop-color="#2974b9"
         id="stop135" />
      <stop
         offset="1"
         stop-color="#004887"
         id="stop137" />
    </linearGradient>
    <path
       d="m 217.303,378.229 -59.101,0 c 2.994,78.524 80.035,146.25 191.695,180.062 l 1.594,-5.931 C 272.325,515.191 219.517,451.242 217.303,378.229 Z"
       id="path139"
       inkscape:connector-curvature="0"
       style="fill:url(#i)" />
  </g>
  <g
     id="g141"
     transform="translate(-138.338,-150.05)">
    <defs
       id="defs143">
      <path
         id="j"
         d="m 839.567,291.223 c -25.331,-12.252 -49.272,-18.786 -77.679,-23.942 -22.544,-26.589 -44.818,-43.434 -92.156,-68.767 -17.861,-9.566 -13.747,-18.656 5.015,-13.639 18.771,5.005 103.015,25.888 164.82,106.348 z"
         inkscape:connector-curvature="0" />
    </defs>
    <clipPath
       id="k">
      <use
         xlink:href="#j"
         overflow="visible"
         id="use147"
         style="overflow:visible"
         x="0"
         y="0"
         width="100%"
         height="100%" />
    </clipPath>
    <g
       clip-path="url(#k)"
       id="g149">
      <linearGradient
         id="l"
         gradientUnits="userSpaceOnUse"
         x1="1009.466"
         y1="412.35999"
         x2="511.42099"
         y2="153.448">
        <stop
           offset="0"
           stop-color="#8ac2eb"
           id="stop152" />
        <stop
           offset=".7"
           stop-color="#002e52"
           id="stop154" />
      </linearGradient>
      <path
         d="m 805.449,363.607 59.025,0 c -6.083,-76.418 -82.371,-142 -191.803,-175.027 l -1.564,5.853 c 77.519,36.273 129.865,98.194 134.342,169.174 z"
         id="path156"
         inkscape:connector-curvature="0"
         style="fill:url(#l)" />
      <linearGradient
         id="m"
         gradientUnits="userSpaceOnUse"
         x1="745.64001"
         y1="456.30899"
         x2="437.15201"
         y2="295.939">
        <stop
           offset="0"
           stop-color="#2974b9"
           id="stop159" />
        <stop
           offset="1"
           stop-color="#004887"
           id="stop161" />
      </linearGradient>
      <path
         d="M 805.679,378.229 C 803.465,451.35 750.502,515.39 671.131,552.537 l 1.568,5.866 C 784.57,524.622 861.776,456.83 864.777,378.228 l -59.098,0 z"
         id="path163"
         inkscape:connector-curvature="0"
         style="fill:url(#m)" />
    </g>
  </g>
  <g
     id="g165"
     transform="translate(-138.338,-150.05)">
    <radialGradient
       id="n"
       cx="507.854"
       cy="137.563"
       r="404.45499"
       gradientUnits="userSpaceOnUse">
      <stop
         offset="0"
         stop-color="#8ac2eb"
         id="stop168" />
      <stop
         offset=".65"
         stop-color="#002e52"
         id="stop170" />
    </radialGradient>
    <path
       d="m 309,422.366 0,-176.041 106.012,0 3.255,48.13 -59.345,0 0,22.963 48.351,0 0,48.039 -48.7,0 0,56.909 z"
       id="path172"
       inkscape:connector-curvature="0"
       style="fill:url(#n)" />
    <path
       d="m 415.012,246.325 3.256,48.13 -59.345,0 0,22.963 48.351,0 0,48.039 -48.7,0 0,56.909 -49.574,0 0,-176.041 106.012,0 m 2.783,-2.985 -111.78,0 0,182.011 55.555,0 0,-56.908 48.704,0 0,-54.013 -48.354,0 0,-16.984 59.549,0 -0.229,-3.197 -3.26,-48.126 -0.185,-2.783 z"
       id="path174"
       inkscape:connector-curvature="0"
       style="fill:#edf4fa" />
    <g
       id="g176">
      <radialGradient
         id="o"
         cx="507.85599"
         cy="137.565"
         r="404.45599"
         gradientUnits="userSpaceOnUse">
        <stop
           offset="0"
           stop-color="#8ac2eb"
           id="stop179" />
        <stop
           offset=".65"
           stop-color="#002e52"
           id="stop181" />
      </radialGradient>
      <path
         d="m 718.907,422.11 -53.027,-91.344 48.178,-84.194 -53.06,0 -22.03,37.914 -21.641,-37.914 -54.915,0 49.114,84.779 -52.021,90.867 53.351,-0.026 25.449,-44.495 25.729,44.413 z"
         id="path183"
         inkscape:connector-curvature="0"
         style="fill:url(#o)" />
      <path
         d="m 714.058,246.572 -48.178,84.195 53.026,91.344 -54.872,0 -25.729,-44.413 -25.449,44.495 -53.351,0.026 52.021,-90.867 -49.114,-84.779 54.915,0 21.641,37.914 22.029,-37.914 53.061,0 m 5.148,-2.987 -59.93,0 -0.866,1.486 -19.423,33.417 -19.059,-33.404 -0.858,-1.499 -61.839,0 2.602,4.493 48.237,83.281 -51.172,89.372 -2.563,4.48 5.171,-0.009 53.351,-0.021 1.742,0 0.858,-1.508 22.867,-39.981 23.13,39.92 0.858,1.486 61.789,0 -2.608,-4.488 -52.153,-89.862 47.323,-82.687 2.543,-4.476 z"
         id="path185"
         inkscape:connector-curvature="0"
         style="fill:#edf4fa" />
    </g>
    <g
       id="g187">
      <radialGradient
         id="p"
         cx="507.85599"
         cy="137.567"
         r="404.452"
         gradientUnits="userSpaceOnUse">
        <stop
           offset="0"
           stop-color="#8ac2eb"
           id="stop190" />
        <stop
           offset=".65"
           stop-color="#002e52"
           id="stop192" />
      </radialGradient>
      <path
         d="m 416.924,334.566 c 0,-47.251 37.546,-85.586 83.874,-85.586 46.341,0 83.894,38.335 83.894,85.586 0,47.281 -37.553,85.603 -83.894,85.603 -46.328,0 -83.874,-38.322 -83.874,-85.603 z m 98.956,35.142 0,-70.326 c 0,-8.011 -6.984,-15.203 -14.848,-15.203 -7.846,0 -14.211,7.192 -14.211,15.203 l -0.017,70.127 c 0,8.02 6.382,14.527 14.228,14.527 7.864,-10e-4 14.848,-6.291 14.848,-14.328 z"
         id="path194"
         inkscape:connector-curvature="0"
         style="fill:url(#p)" />
      <path
         d="m 500.799,248.98 c 46.341,0 83.894,38.335 83.894,85.586 0,47.281 -37.553,85.603 -83.894,85.603 -46.328,0 -83.874,-38.322 -83.874,-85.603 -0.001,-47.251 37.545,-85.586 83.874,-85.586 m 0.233,135.055 c 7.864,0 14.848,-6.291 14.848,-14.327 l 0,-70.326 c 0,-8.011 -6.984,-15.203 -14.848,-15.203 -7.846,0 -14.211,7.192 -14.211,15.203 l -0.017,70.127 c 0,8.019 6.382,14.526 14.228,14.526 m -0.233,-138.049 c -47.909,0 -86.868,39.734 -86.868,88.58 0,48.85 38.959,88.592 86.868,88.592 47.899,0 86.879,-39.743 86.879,-88.592 -10e-4,-48.845 -38.981,-88.58 -86.879,-88.58 z m 0.233,135.051 c -6.2,0 -11.239,-5.169 -11.239,-11.529 l 0.015,-70.127 c 0,-6.499 5.253,-12.205 11.224,-12.205 6.204,0 11.861,5.815 11.861,12.205 l 0,70.326 c 0,6.148 -5.435,11.33 -11.861,11.33 z"
         id="path196"
         inkscape:connector-curvature="0"
         style="fill:#edf4fa" />
    </g>
    <g
       id="g198">
      <radialGradient
         id="q"
         cx="512.28497"
         cy="101.367"
         r="472.85699"
         gradientUnits="userSpaceOnUse">
        <stop
           offset="0"
           stop-color="#8ac2eb"
           id="stop201" />
        <stop
           offset=".841"
           stop-color="#002e52"
           id="stop203" />
      </radialGradient>
      <path
         d="m 304.914,496.855 0,-9.176 4.708,-4.528 37.858,0 1.432,-1.425 0,-8.6 -1.031,-1.04 -35.154,0 -7.812,-7.794 0,-21.204 8.997,-8.99 50.984,0 0,9.891 -3.659,3.744 -36.989,0 -1.421,1.421 0,8.362 1.029,1.035 35.085,0 7.794,7.803 0,21.516 -8.99,8.986 -52.831,0 z"
         id="path205"
         inkscape:connector-curvature="0"
         style="fill:url(#q)" />
      <path
         d="m 364.895,434.098 0,9.891 -3.659,3.744 -36.989,0 -1.421,1.421 0,8.362 1.029,1.035 35.085,0 7.794,7.803 0,21.516 -8.99,8.986 -52.83,0 0,-9.176 4.708,-4.528 37.858,0 1.432,-1.425 0,-8.6 -1.031,-1.04 -35.154,0 -7.812,-7.794 0,-21.204 8.997,-8.99 50.983,0 m 2.998,-2.99 -55.219,0 -0.88,0.875 -8.99,8.986 -0.875,0.879 0,23.687 0.875,0.879 7.803,7.794 0.88,0.871 34.427,0 0,5.082 -37.497,0 -0.882,0.836 -4.694,4.528 -0.912,0.884 0,13.44 57.054,0 0.879,-0.875 8.99,-8.986 0.866,-0.88 0,-23.994 -0.866,-0.875 -7.795,-7.799 -0.879,-0.875 -34.361,0 0,-4.839 36.684,0 0.88,-0.906 3.659,-3.735 0.854,-0.88 0,-14.097 -0.001,0 z"
         id="path207"
         inkscape:connector-curvature="0"
         style="fill:#edf4fa" />
      <radialGradient
         id="r"
         cx="512.26398"
         cy="101.367"
         r="479.12"
         gradientUnits="userSpaceOnUse">
        <stop
           offset="0"
           stop-color="#8ac2eb"
           id="stop210" />
        <stop
           offset=".841"
           stop-color="#002e52"
           id="stop212" />
      </radialGradient>
      <path
         d="m 378.033,434.098 52.892,0 10.017,10.03 0,22.941 -10.017,10.025 -34.992,0 0,19.761 -17.9,0 0,-62.757 z m 42.303,30.346 2.63,-2.626 0,-11.304 -2.63,-2.634 -24.403,0 0,16.563 24.403,0 z"
         id="path214"
         inkscape:connector-curvature="0"
         style="fill:url(#r)" />
      <path
         d="m 430.925,434.098 10.017,10.03 0,22.941 -10.017,10.025 -34.992,0 0,19.761 -17.9,0 0,-62.757 52.892,0 m -34.992,30.346 24.403,0 2.63,-2.626 0,-11.304 -2.63,-2.634 -24.403,0 0,16.564 m 36.231,-33.335 -54.131,0 -2.989,1.126 0,67.614 23.872,0 0,-19.765 33.248,0 0.877,-0.875 10.015,-10.017 0.88,-0.871 0,-25.432 -0.88,-0.875 -10.015,-10.03 -0.877,-0.875 z m -33.248,19.765 20.185,0 0.88,0.879 0,8.826 -0.88,0.866 -20.185,0 0,-10.571 z"
         id="path216"
         inkscape:connector-curvature="0"
         style="fill:#edf4fa" />
      <g
         id="g218">
        <radialGradient
           id="s"
           cx="512.26898"
           cy="101.367"
           r="481.42999"
           gradientUnits="userSpaceOnUse">
          <stop
             offset="0"
             stop-color="#8ac2eb"
             id="stop221" />
          <stop
             offset=".841"
             stop-color="#002e52"
             id="stop223" />
        </radialGradient>
        <path
           d="m 450.731,486.843 0,-42.715 9.939,-10.03 43.908,0 10.021,10.03 0,42.715 -10.021,10.012 -43.908,0 -9.939,-10.012 z m 42.299,-4.095 3.685,-3.648 0,-27.235 -3.685,-3.661 -20.827,0 -3.659,3.661 0,27.235 3.659,3.648 20.827,0 z"
           id="path225"
           inkscape:connector-curvature="0"
           style="fill:url(#s)" />
        <path
           d="m 504.579,434.098 10.021,10.03 0,42.715 -10.021,10.012 -43.909,0 -9.939,-10.012 0,-42.715 9.939,-10.03 43.909,0 m -32.375,48.65 20.827,0 3.685,-3.648 0,-27.235 -3.685,-3.661 -20.827,0 -3.659,3.661 0,27.235 3.659,3.648 m 33.607,-51.639 -46.391,0 -0.871,0.884 -9.945,10.034 -0.871,0.866 0,45.176 0.871,0.879 9.945,10.017 0.871,0.884 46.391,0 0.882,-0.875 10.026,-10.017 0.875,-0.875 0,-45.193 -0.875,-0.875 -10.026,-10.03 -0.882,-0.875 z m -32.366,20.09 18.348,0 1.924,1.911 0,24.748 -1.917,1.897 -18.359,0 -1.9,-1.897 0,-24.752 1.904,-1.907 z"
           id="path227"
           inkscape:connector-curvature="0"
           style="fill:#edf4fa" />
      </g>
      <g
         id="g229">
        <radialGradient
           id="t"
           cx="512.02197"
           cy="101.367"
           r="479.004"
           gradientUnits="userSpaceOnUse">
          <stop
             offset="0"
             stop-color="#8ac2eb"
             id="stop232" />
          <stop
             offset=".841"
             stop-color="#002e52"
             id="stop234" />
        </radialGradient>
        <path
           d="m 526.294,434.098 53.438,0 8.997,8.99 0,19.609 -8.585,8.596 11.297,25.562 -19.902,0 -8.412,-22.464 -18.953,0 0,22.464 -17.88,0 0,-62.757 z m 41.98,27.88 2.556,-2.547 0,-9.467 -2.556,-2.565 -24.1,0 0,14.579 24.1,0 z"
           id="path236"
           inkscape:connector-curvature="0"
           style="fill:url(#t)" />
        <path
           d="m 579.731,434.098 8.997,8.99 0,19.609 -8.585,8.596 11.297,25.562 -19.902,0 -8.412,-22.464 -18.953,0 0,22.464 -17.88,0 0,-62.757 53.438,0 m -35.557,27.88 24.1,0 2.556,-2.547 0,-9.467 -2.556,-2.565 -24.1,0 0,14.579 m 36.81,-30.869 -57.682,0 0,68.74 23.855,0 0,-22.478 14.02,0 7.632,20.693 0.786,1.785 26.503,0 -1.943,-4.237 -10.433,-23.682 7.125,-7.123 0.884,-0.866 0,-22.092 -0.884,-0.879 -8.999,-8.986 -0.864,-0.875 z m -33.827,19.292 19.882,0 0.799,0.797 0,6.993 -0.789,0.788 -19.893,0 0,-8.578 0.001,0 z"
           id="path238"
           inkscape:connector-curvature="0"
           style="fill:#edf4fa" />
      </g>
      <g
         id="g240">
        <radialGradient
           id="u"
           cx="512.26398"
           cy="101.367"
           r="473.19199"
           gradientUnits="userSpaceOnUse">
          <stop
             offset="0"
             stop-color="#8ac2eb"
             id="stop243" />
          <stop
             offset=".841"
             stop-color="#002e52"
             id="stop245" />
        </radialGradient>
        <path
           d="m 615.865,449.154 -20.69,0 0,-15.056 59.269,0 0,15.056 -20.69,0 0,47.701 -17.889,0 0,-47.701 z"
           id="path247"
           inkscape:connector-curvature="0"
           style="fill:url(#u)" />
        <path
           d="m 654.444,434.098 0,15.056 -20.69,0 0,47.701 -17.889,0 0,-47.701 -20.69,0 0,-15.056 59.269,0 m 2.986,-2.989 -65.252,0 0,21.047 20.688,0 0,47.693 23.883,0 0,-47.693 20.681,0 0,-21.047 z"
           id="path249"
           inkscape:connector-curvature="0"
           style="fill:#edf4fa" />
      </g>
      <g
         id="g251">
        <radialGradient
           id="v"
           cx="512.27502"
           cy="101.367"
           r="465.94199"
           gradientUnits="userSpaceOnUse">
          <stop
             offset="0"
             stop-color="#8ac2eb"
             id="stop254" />
          <stop
             offset=".841"
             stop-color="#002e52"
             id="stop256" />
        </radialGradient>
        <path
           d="m 660.551,496.855 0,-9.176 4.69,-4.528 37.88,0 1.414,-1.425 0,-8.6 -1.033,-1.04 -35.143,0 -7.807,-7.794 0,-21.204 8.999,-8.99 50.986,0 0,9.891 -3.668,3.744 -36.974,0 -1.436,1.421 0,8.362 1.023,1.035 35.087,0 7.796,7.803 0,21.516 -8.988,8.986 -52.826,0 z"
           id="path258"
           inkscape:connector-curvature="0"
           style="fill:url(#v)" />
        <path
           d="m 720.536,434.098 0,9.891 -3.668,3.744 -36.974,0 -1.436,1.421 0,8.362 1.023,1.035 35.087,0 7.796,7.803 0,21.516 -8.988,8.986 -52.825,0 0,-9.176 4.69,-4.528 37.88,0 1.414,-1.425 0,-8.6 -1.033,-1.04 -35.143,0 -7.807,-7.794 0,-21.204 8.999,-8.99 50.985,0 m 2.983,-2.99 -55.204,0 -0.884,0.875 -8.999,8.986 -0.875,0.879 0,23.687 0.875,0.879 7.816,7.794 0.869,0.871 34.437,0 0,5.082 -37.512,0 -0.866,0.836 -4.701,4.528 -0.918,0.884 0,13.44 57.054,0 0.884,-0.875 8.979,-8.986 0.884,-0.88 0,-23.994 -0.884,-0.875 -7.788,-7.799 -0.884,-0.875 -34.362,0 0,-4.839 36.688,0 0.873,-0.906 3.659,-3.735 0.858,-0.88 0,-14.097 10e-4,0 z"
           id="path260"
           inkscape:connector-curvature="0"
           style="fill:#edf4fa" />
      </g>
    </g>
  </g>
  <path
     d="m 373.132,19.081 c -155.648,0 -281.801,91.499 -281.801,204.359 0,112.877 126.153,204.359 281.801,204.359 155.611,0 281.773,-91.482 281.773,-204.359 0,-112.859 -126.162,-204.359 -281.773,-204.359 z m 210.166,331.186 c -50.381,43.057 -125.898,70.452 -210.35,70.452 -84.453,0 -159.978,-27.399 -210.37,-70.46 -31.006,-35.644 -49.342,-79.429 -49.342,-126.819 0,-47.385 18.335,-91.183 49.35,-126.819 50.394,-43.057 125.909,-70.452 210.362,-70.452 84.442,0 159.952,27.386 210.344,70.435 31.023,35.644 49.367,79.442 49.367,126.836 0,47.389 -18.344,91.192 -49.361,126.827 z"
     id="path262"
     inkscape:connector-curvature="0"
     style="opacity:0.45;fill:#002e52" />
</svg>
