<svg stroke-linejoin="round" xmlns="http://www.w3.org/2000/svg" fill-rule="evenodd" xml:space="preserve" height="600" viewBox="0 0 15875 15875" width="600" version="1.2" stroke-width="28.222" preserveAspectRatio="xMidYMid"><g transform="translate(-2562.5 -2562.5)"><g class="Master_Slide"/></g><path fill="#fff" d="m15875 0h-13454v2416.8h-2421v13458h13454v-2445h2421z"/><path d="m412.75 2828.8h12628v12634h-12628z" fill="#231f20"/><path fill="#fff" d="m2283.7 12222 577.55-27.97v823.99h467.93c302.38 0 577.55 82.399 605.52 467.18 54.429 274.41-165.55 467.18-303.14 494.39h-384.78c82.399 0 329.6-164.8 275.17-356.81-55.184-192.77-220.74-192.77-385.54-219.98-164.8 0-852.71-27.214-852.71-27.214z"/><path fill="#fff" d="m1503.6 13238c-110.37 109.61-192.77 302.38-137.58 521.61 164.8 576.79 1127.9 851.96 1512.7 879.17l-55.185-714.38s-659.95 82.399-962.33-247.2c-137.58-136.83-110.37-301.62-27.97-439.21h-329.6z"/><path d="m2834.1 411.99h12655v12634h-12655z" fill="#127bca"/><g stroke-linejoin="round" fill-rule="evenodd" transform="matrix(1.0115 0 0 1.0115 -52.224 -154.83)" stroke-width="28.183" fill="#fff"><path d="m4420.7 8594.6c0 195.63 8.362 415.99 120.13 589.87 98.849 152.9 245.6 246.59 439.5 246.59 585.47 0 585.47-738.27 585.47-1125 0-394.25 0-1132.5-572.55-1132.5-504.12 0-572.55 534.41-572.55 912.17zm-1050.9-3297.2h1038v1689.5h25.85c176.4-348.53 472.95-517.91 878.22-517.91 1024.2 0 1339 1005.8 1339 1837.1 0 929.4-379.42 1842.3-1459.9 1842.3-516.28 0-761.88-191.13-1024.2-615.37-129.26 152.9-168.05 356.02-232.67 542.66h-564.28z"/><path d="m6856.9 5297.4h1041.7v4778.6h-1041.7z"/><path d="m10522 7877.7c-22.052-382.26-151.32-739.03-607.53-739.03-456.22 0-632.62 335.78-671.4 739.03zm-1270.6 602.62-8.365 173.89c0 419.73 241.04 759.26 693.46 759.26 322.39 0 640.99-229.35 640.99-555.39l960.33 67.457c0 173.88-417.44 1222.6-1636.3 1222.6-1072.1 0-1773.2-738.28-1773.2-1791.3 0-1043.4 628.06-1892.5 1743.6-1892.5 507.93 0 1024.2 229.35 1321.4 632.6 297.31 403.24 374.1 903.93 365.73 1383.6z"/><path d="m13888 10076v-611.2h-12.927c-168.03 445.97-538.34 683.57-1028.8 683.57-361.92 0-671.4-80.946-873.66-403.24-198.45-305.81-177.16-640.84-177.16-980.38v-2228.7h1037.9v2228.3c0 284.08 25.853 556.14 396.15 556.14 236.47 0 434.92-131.92 525.4-339.54 68.434-161.15 55.509-365.02 55.509-543.4v-1901.6h1037.9v3539.3z"/><path d="m8734.2 5959.2h-361.92v-933.16h-145.99v-280.32h145.99c0-110.17-3.804-237.6 56.265-330.54 77.558-114.68 219.75-165.64 352.8-165.64 30.414 0 137.63 3.7478 215.18 16.49v275.82c-55.504-3.7478-81.355-3.7478-137.62-3.7478-124.7 0-124.7 71.954-124.7 178.39v29.232h228.12v280.32h-228.12z"/><path d="m9444.4 4712.7v233.1h4.561c38.78-131.17 111.78-271.32 275.24-258.58l60.068 4.4992v360.52c-279.81-12.743-314.03 207.62-314.03 428.72v479.65h-365.9v-1247.9z"/><path d="m10611 5365.6c-137.63 12.743-391.59 46.472-391.59 224.87 0 101.94 56.269 165.65 159.68 165.65 72.998 0 142.19-38.225 184.77-101.94 51.706-80.949 47.141-152.9 47.141-242.1zm34.978 593.62c-12.924-62.961-17.488-131.17-17.488-194.87-103.41 148.4-210.62 220.36-399.95 220.36-228.87 0-400.72-118.42-400.72-352.28 0-186.62 116.34-309.55 284.37-368.76 145.99-55.467 344.44-63.712 498.79-80.95v-29.231c0-50.97 4.562-114.68-29.656-161.15-34.216-42.722-95.046-59.961-150.55-59.961-116.34 0-219.75 59.961-219.75 178.39l-349-29.98c38.779-301.31 340.64-394.25 607.54-394.25 128.5 0 296.54 33.729 399.95 118.42 129.27 101.94 116.33 237.6 116.33 386.76v580.88c0 63.709 4.562 127.41 21.291 186.63z"/><path d="m11166 4712h344.45v212.11h3.8c77.558-161.15 180.97-237.6 366.5-237.6 120.13 0 236.47 38.226 314.03 140.16 69.193 89.193 69.193 245.84 69.193 360.52v771.95h-366.49v-670.1c0-127.41 17.486-314.05-171.84-314.05-64.632 0-124.71 33.728-150.55 92.94-38.777 68.209-43.339 140.16-43.339 221.11v670.07h-365.73z"/><path d="m13216 5187.2c0-110.18-60.066-220.36-189.32-220.36-202.25 0-228.11 194.88-228.11 351.53 0 152.9 3.806 369.51 210.63 369.51 129.25 0 193.89-101.94 206.81-216.61l349 21.735c-30.415 305.06-266.89 491.68-572.55 491.68-387.79 0-615.9-266.83-615.9-636.35 0-381.51 236.47-661.83 637.19-661.83 292.73 0 525.4 191.13 551.27 483.45z"/><path d="m14481 5187.2c-9.123-135.66-56.263-258.58-211.39-258.58-168.03 0-228.1 113.93-241.04 258.58zm-452.41 212.11v59.213c0 149.15 82.121 267.58 245.59 267.58 111.78 0 223.55-80.948 223.55-194.87l339.88 25.483c0 59.212-145.99 427.98-576.35 427.98-378.65 0-624.26-258.58-624.26-628.1 0-368.77 219.75-670.07 615.12-670.07 177.16 0 357.37 84.695 460.79 224.86 107.96 143.91 133.83 318.54 129.26 487.93z"/></g><g fill="#fff" transform="matrix(.75595 0 0 .75595 18325 5836.9)"><path d="m-19182 6956.8c0 146 109 255 291 255 146 0 291-109 291-255 0-181-145-254-291-254-182 0-291 73-291 254zm-73 1199c-36 0-73 73-73 109 0 109 37 145 110 145 109 37 254 37 363 37 110 0 437 0 437-146 0-109-109-109-182-145zm109-726c-36 72-72 109-72 181 0 37 0 73 72 109 110 37 255 37 364 37h219c291 36 618 72 618 435 0 218-182 364-364 473-182 72-400 72-618 72-255 0-874 0-874-399 0-146 182-255 328-291-146-36-255-145-255-290 0-218 182-327 364-400-182-73-328-218-328-400 0-399 474-508 801-508 146 0 291 0 437 72 36-254 109-327 364-327h145v327c-36-36-72-36-145-36s-182 36-182 145c109 109 145 182 145 327 0 400-436 545-764 545z"/><path d="m-16889 7356.8c-182 36-510 73-510 327 0 109 73 218 219 218 72 0 182-73 218-145 73-109 73-218 73-327zm36 799v-254c-145 181-291 290-546 290-327 0-546-145-546-472 0-254 146-399 364-508 219-37 510-73 692-73v-36c0-73 0-182-37-218-36-109-109-146-182-146-182 0-291 146-291 291l-509-36c73-436 436-545 837-545 182 0 400 36 509 145 182 109 182 363 182 545v763 254z"/><path d="m-15761 6452.8v327h36c37-181 146-363 364-327h110v473c-401-37-474 290-474 581v654h-473v-1708z"/><path d="m-14087 7247.8c0-182 0-436-218-436-328 0-328 363-328 545s73 472 291 472c110 0 182-36 219-109 36-72 36-181 36-254zm37 908v-254h-37c-73 181-218 290-436 290-474 0-619-472-619-835 0-400 109-872 655-872 182 0 291 36 400 182v-763h473v2252z"/><path d="m-12522 5903.8h510v2252h-510z"/><path d="m-11284 7283.8c0 182 0 582 254 582 292 0 292-327 292-509 0-145 0-291-37-436-36-145-145-182-255-182-254 0-254 364-254 545zm1055 73c0 472-291 835-801 835-545 0-800-399-800-871 0-473 255-872 800-872 546 0 801 399 801 908z"/><path d="m-8919.3 6775.8-764 1017h801v363h-1347v-363l728-945h-655v-399h1237z"/><path d="m-7681.3 7138.8c-37-182-73-400-291-400-219 0-328 218-328 400zm36-1017-73 181-800-254 109-291zm-655 1308v72c0 182 146 364 328 364 145 0 291-109 291-291l473 36c0 73-218 581-764 581s-874-363-874-835c0-509 291-908 874-908 218 0 436 72 582 290s182 436 182 691z"/><path d="m-6589.3 6452.8v327c72-181 145-363 364-327h72v473c-364-37-400 290-400 581v654h-509v-1708z"/><path d="m-4915.3 7138.8c0-182-73-400-291-400-219 0-328 218-328 400zm-619 291v72c0 182 109 364 328 364 182 0 327-109 327-291l437 36c0 73-182 581-801 581-473 0-800-363-800-835 0-509 291-908 800-908 255 0 510 72 655 290 110 218 146 436 146 691z"/></g></svg>
