<svg version="1.1" viewBox="0 0 800 800" xml:space="preserve" xmlns="http://www.w3.org/2000/svg"><path d="m800 800h-800v-800h800z" fill="#0077d7"/><path d="m665.11 215.08a43.657 43.657 0 0 1-14.592 2.4917c-23.036 0-41.707-17.717-41.707-39.573 0-6.0928 1.4507-11.866 4.0469-17.022h-51.194a82.057 82.057 0 0 0-1.7835 17.024c0 47.492 40.58 85.995 90.639 85.995 4.9664 0 9.8411-0.384 14.592-1.1157zm-14.592-76.651c23.036 0 41.707 17.715 41.707 39.571 0 6.7115-1.7643 13.033-4.8725 18.569h51.678c1.3867-5.9819 2.1269-12.192 2.1269-18.569 0-36.629-24.137-67.904-58.142-80.297v-38.861h-44.877v81.357c3.9125-1.152 8.0683-1.7707 12.38-1.7707" fill="#bfddf5"/><path d="m447.75 384.28v-47.17h-8.7424v-12.425h8.7424v-5.1776c0-12.309 6.0971-20.363 18.982-20.363 2.6453 0 6.0949 0.23254 7.5947 0.69333v13.001c-0.92373-0.11728-2.1845-0.2304-3.456-0.2304-4.8298 0-6.6688 1.7237-6.6688 8.1685v3.9083h10.351v12.425h-10.351v47.17h-16.452m101.56-25.54c0 7.8251-1.2651 15.189-11.733 15.189-5.9819 0-8.6272-3.6864-8.6272-7.9403 0-5.7515 3.68-8.8597 13.69-8.8597h6.6709zm16.109 10.127v-24.969c0-14.266-8.7467-20.476-24.619-20.593-16.35 0-23.296 6.8886-25.116 15.974l15.221 3.1253c0.68907-4.3733 2.2997-7.2491 9.2011-7.2491 7.7099 0 9.2032 4.1408 9.2032 8.3989v3.5669h-8.512c-17.487 0-28.303 6.3232-28.303 19.904 0 9.2032 5.984 18.635 20.363 18.635 10.588 0 14.613-3.9083 16.798-7.2448 0 1.4933 0.3456 4.7147 0.8064 5.8667h15.761c-0.34561-1.3845-0.80428-9.664-0.80428-15.415m159.17-20.941c-0.1152-6.9014-2.8757-12.77-10.927-12.77-7.8251 0-11.049 5.408-11.738 12.77zm-23.01 10.125c0 7.4752 3.7973 14.724 11.966 14.724 6.9035 0 8.8597-2.7605 10.47-6.3275h16.452c-2.0736 7.2491-8.6272 19.213-27.268 19.213-19.671 0-28.186-14.609-28.186-30.259 0-18.752 9.5488-32.096 28.762-32.096 20.365 0 27.383 14.844 27.383 29.685 0 2.0693 0 3.3344-0.23253 5.0603h-39.347m-17.926 7.0187c-1.9563 9.8923-8.9728 20.591-26.692 20.591-18.519 0-28.068-12.77-28.068-30.714 0-17.606 10.699-31.642 28.875-31.642 20.017 0 25.655 14.498 25.886 21.169h-15.989c-1.0368-4.832-3.7973-8.1685-10.24-8.1685-7.5947 0-11.851 6.5578-11.851 18.063 0 12.77 4.6016 18.522 11.733 18.522 5.7536 0 8.7467-3.3365 10.24-7.8229h16.107m-111.59-25.308c0-5.0645 0-10.586-0.1152-15.074h15.991c0.34347 1.6128 0.576 5.7515 0.68907 7.5947 1.9563-3.6821 6.7904-8.9749 17.259-8.9749 11.968 0 19.674 8.1707 19.674 23.125v37.85h-16.452v-36.006c0-6.7904-2.1845-11.622-9.5467-11.622-7.0208 0-10.933 3.9125-10.933 14.496v33.133h-16.567v-44.523m-93.069 1.152c0-5.984 0-11.162-0.11728-16.224h16.222c0.2304 1.3803 0.4608 7.2491 0.4608 10.47 2.6453-6.7883 8.9749-11.733 19.098-11.851v15.765c-11.966-0.34986-19.098 2.8715-19.098 19.211v25.999h-16.565v-43.371m261.77 224.25c0 19.349 0 41.073 0.3968 59.238h-55.296c-0.7872-5.5253-1.1819-16.587-1.5787-23.691-12.241 20.535-30.014 28.429-56.474 28.429-41.468 0-67.93-25.274-67.93-75.825v-133.49h56.476v122.03c0 22.513 7.1083 41.077 31.595 41.077 25.67 0 36.335-13.824 36.335-54.106v-109h56.476v145.34m-254.56-65.555c-0.39467-23.701-9.8709-43.838-37.517-43.838-26.859 0-37.914 18.564-40.282 43.84zm-78.985 34.752c0 25.668 13.033 50.554 41.071 50.554 23.699 0 30.411-9.4784 35.94-21.717h56.474c-7.1082 24.868-29.619 65.946-93.598 65.946-67.533 0-96.753-50.159-96.753-103.87 0-64.373 32.779-110.19 98.731-110.19 69.901 0 93.99 50.95 93.99 101.89 0 7.1104 0 11.452-0.7872 17.378h-135.07m-73.681-198.25v288.3h-58.844v-288.3h58.844m-176.36 124.4c-32.384 0-43.836 20.93-43.836 62.793 0 34.364 10.27 60.823 43.049 60.823 28.828 0 44.228-25.666 44.228-64.378 0-34.359-13.03-59.238-43.441-59.238zm-97.941-124.4h56.873v105.45c8.2901-13.035 25.274-26.464 58.445-26.464 55.686 0 83.328 46.208 83.328 103.47 0 58.447-30.012 110.58-88.853 110.58-30.411 0-43.84-9.0816-53.713-24.09 0 6.72-1.1861 14.223-2.368 19.349h-54.108c0.3968-22.112 0.3968-44.625 0.3968-66.737v-221.56m665.35 363.96c-0.11952-6.9035-2.8757-12.779-10.929-12.779-7.8293 0-11.046 5.4144-11.744 12.779zm-23.019 10.118c0 7.4837 3.7995 14.733 11.972 14.733 6.9013 0 8.8597-2.7563 10.464-6.336h16.463c-2.0757 7.2555-8.6357 19.221-27.273 19.221-19.68 0-28.196-14.613-28.196-30.268 0-18.752 9.5509-32.094 28.77-32.094 20.369 0 27.386 14.837 27.386 29.685 0 2.0693 0 3.3365-0.224 5.0581h-39.36m-75.332-18.289c0-5.0624 0-10.588-0.11728-15.072h15.998c0.3456 1.6128 0.57174 5.7451 0.68907 7.5883 1.9499-3.6821 6.7861-8.9707 17.261-8.9707 11.962 0 19.671 8.1622 19.671 23.127v37.854h-16.452v-36.015c0-6.7926-2.1867-11.622-9.5488-11.622-7.0208 0-10.931 3.9168-10.931 14.5v33.137h-16.57v-44.527m-25.028-15.072h16.567v59.599h-16.567zm0-9.6683v-14.733h16.567v14.733h-16.567m-24.561 42.116h-6.6731c-10.005 0-13.685 3.1019-13.685 8.8619 0 4.2496 2.6389 7.936 8.6251 7.936 10.475 0 11.733-7.3707 11.733-15.194zm16.117 11.735c0 5.7493 0.45226 14.037 0.79786 15.415h-15.763c-0.46294-1.1499-0.8064-4.3691-0.8064-5.8688-2.1845 3.3408-6.2101 7.2491-16.796 7.2491-14.385 0-20.373-9.4336-20.373-18.637 0-13.579 10.825-19.906 28.318-19.906h8.5056v-3.5669c0-4.2603-1.4933-8.4053-9.2053-8.4053-6.8992 0-8.512 2.8843-9.2032 7.2554h-15.646c0.8064-10.594 7.3643-19.102 25.549-19.102 15.872 0.11088 24.623 6.3232 24.623 20.599v24.966m-143.66-28.768c0-5.1776 0-10.24-0.11728-15.415h15.765c0.23468 1.4933 0.57601 4.8299 0.69548 7.1253 2.9845-4.3712 7.8165-8.5077 16.57-8.5077 8.5077 0 13.235 4.48 15.3 9.088 3.5627-4.8341 8.6357-9.088 18.411-9.088 10.355 0 18.874 6.4427 18.874 21.858v39.123h-16.107v-37.045c0-5.4144-1.9627-10.703-8.7531-10.703-6.9014 0-9.6576 4.5995-9.6576 13.687v34.061h-16.224v-36.474c0-6.0992-1.4976-11.164-8.5184-11.164-6.6731 0-9.8944 4.1429-9.8944 14.383v33.254h-16.341v-44.183" fill="#fff" Googl="true"/></svg>
