<svg version="1.1" viewBox="0 0 719.03 282.45" xml:space="preserve" xmlns="http://www.w3.org/2000/svg"><g transform="matrix(1.3333 0 0 -1.3333 -211.85 489.05)"><g transform="scale(.1)"><path d="m2379.3 2302.8c0-218.27-176.95-395.22-395.22-395.22s-395.22 176.95-395.22 395.22 176.95 395.22 395.22 395.22 395.22-176.95 395.22-395.22" fill="#4679c6"/><path d="m3585.1 2963.7 378.92 465.45v238.7h-1268v-358.05h682.4l-375.09-443.8v-257.34c77.58 38.79 167.08 59.67 250.61 59.67 232.72 0 411.75-164.09 411.75-381.9 0-223.76-193.94-378.91-390.86-378.91-158.12 0-301.34 86.51-387.86 208.85l-289.41-241.67c184.98-208.87 432.62-325.21 692.2-325.21 432.62 0 778.71 295.37 778.71 736.94 0 316.26-196.92 566.88-483.35 677.27" fill="#fff"/><path d="m4551.7 2057.3h-91.41v499.22h91.41v-499.22" fill="#fff"/><path d="m4810.4 2134.6c53.44 0 90 41.48 90 92.81s-36.56 93.52-90 93.52-90-42.19-90-93.52 36.56-92.81 90-92.81zm0 270.7c103.36 0 181.41-79.45 181.41-177.89s-78.05-177.19-181.41-177.19-181.4 78.75-181.4 177.19 78.04 177.89 181.4 177.89" fill="#fff"/><path d="m5276.6 2317.5c-6.32 2.11-19.68 3.52-33.04 3.52-40.08 0-71.72-28.83-82.97-49.22v-214.46h-91.41v341.02h87.89v-34.45c20.39 25.31 57.66 41.48 99.14 41.48 13.36 0 21.1-1.4 30.94-2.81l-10.55-85.08" fill="#fff"/><path d="m5550.8 2317.5c-6.33 2.11-19.69 3.52-33.05 3.52-40.08 0-71.72-28.83-82.97-49.22v-214.46h-91.4v341.02h87.89v-34.45c20.39 25.31 57.65 41.48 99.14 41.48 13.36 0 21.09-1.4 30.94-2.81l-10.55-85.08" fill="#fff"/><path d="m5853.1 2278.8c-18.99 25.31-49.22 42.19-84.38 42.19-53.43 0-87.89-44.3-87.89-93.52 0-53.44 38.67-92.81 90-92.81 34.46 0 64.69 16.87 82.27 42.19zm91.4-221.49h-87.89v27.43c-28.12-23.91-60.46-34.46-94.92-34.46-50.62 0-98.44 22.5-128.67 57.66-26.72 30.94-43.59 73.12-43.59 119.53 0 100.55 74.53 177.89 167.34 177.89 38.67 0 73.13-12.65 99.84-34.45v27.42h87.89v-341.02" fill="#fff"/><path d="m6141.4 2057.3h-91.41v341.02h91.41zm-45.71 520.32c33.05 0 59.77-25.32 59.77-58.36 0-33.05-26.72-58.36-59.77-58.36-33.04 0-59.76 25.31-59.76 58.36 0 33.04 26.72 58.36 59.76 58.36" fill="#fff"/><path d="m6246.8 2057.3v341.02h87.89v-27.42c26.02 21.09 58.36 34.45 96.33 34.45 47.11 0 90-21.09 118.12-54.84 22.5-26.72 35.16-61.17 35.16-119.53v-173.68h-91.41v180.71c0 33.75-7.73 51.33-20.39 63.98-11.95 11.96-30.23 18.99-51.33 18.99-38.67 0-70.31-24.61-82.96-42.19v-221.49h-91.41" fill="#fff"/><path d="m6888 2271.8c-2.81 30.23-30.23 59.76-67.5 59.76-37.97 0-68.91-28.82-73.12-59.76zm85.08-160.31c-33.05-39.38-87.19-61.18-139.92-61.18-101.96 0-178.6 70.32-178.6 177.19 0 94.92 64.69 177.89 165.94 177.89 94.22 0 161.02-79.45 161.02-174.37 0-9.14-0.71-18.28-2.11-26.02h-236.25c4.92-47.81 43.59-80.86 92.11-80.86 38.67 0 69.61 21.8 85.78 39.38l52.03-52.03" fill="#fff"/></g></g></svg>
