<svg xmlns="http://www.w3.org/2000/svg" height="700" width="1222.667">
    <path d="M316.836 392.953c0 29.103-23.592 52.696-52.696 52.696-29.103 0-52.696-23.593-52.696-52.696 0-29.102 23.593-52.696 52.696-52.696 29.104 0 52.696 23.594 52.696 52.696" fill="#4679c6"/>
    <path d="M477.615 304.839l50.521-62.06v-31.826h-169.07v47.74h90.987l-50.01 59.171v34.313c10.342-5.172 22.276-7.956 33.413-7.956 31.03 0 54.9 21.879 54.9 50.919 0 29.836-25.859 50.523-52.115 50.523-21.082 0-40.178-11.535-51.714-27.847l-38.588 32.221c24.664 27.85 57.682 43.363 92.293 43.363 57.683 0 103.83-39.381 103.83-98.26 0-42.167-26.258-75.583-64.447-90.301M625.712 396.161c-2.532-3.374-6.563-5.625-11.25-5.625-7.125 0-11.72 5.907-11.72 12.47 0 7.125 5.157 12.374 12 12.374 4.595 0 8.626-2.25 10.97-5.625zm12.187 29.532H626.18v-3.657c-3.75 3.188-8.061 4.595-12.656 4.595-6.75 0-13.125-3-17.156-7.688-3.563-4.126-5.812-9.75-5.812-15.938 0-13.406 9.937-23.718 22.312-23.718 5.156 0 9.75 1.686 13.312 4.593v-3.656h11.719v45.47M683.364 396.161c-2.532-3.374-6.563-5.625-11.25-5.625-7.126 0-11.72 5.907-11.72 12.47 0 7.125 5.157 12.374 12 12.374 4.594 0 8.626-2.25 10.97-5.625zm12.187 52.032h-12.187v-25.688c-3.657 2.812-7.595 4.126-12.188 4.126-6.75 0-13.219-3-17.25-7.688-3.562-4.126-5.72-9.75-5.72-15.938 0-13.406 9.94-23.718 22.314-23.718 5.156 0 9.75 1.686 13.312 4.593v-3.656h11.719v67.97M750.859 380.224v45.47H739.14v-3.658c-3.563 3.188-7.875 4.595-12.281 4.595-6.282 0-11.906-2.907-15.468-7.314-2.907-3.562-4.595-8.249-4.595-15v-24.093h12.188v24.563c0 4.125.844 6.186 2.25 7.781 1.875 2.063 4.5 2.812 6.843 2.812 5.156 0 8.907-3.468 10.595-5.625v-29.531h12.187M775.23 425.693H763.04v-45.469h12.188zm-6.095-69.376c4.406 0 7.969 3.376 7.969 7.782 0 4.406-3.563 7.781-7.97 7.781-4.405 0-7.967-3.375-7.967-7.781s3.562-7.782 7.968-7.782M822.57 425.693c-1.593.562-5.249.938-7.593.938-7.312 0-12.656-2.438-15.749-6.563-2.344-3.095-3.376-7.125-3.376-13.595v-15.937h-12.656v-10.312h12.656v-12.656h12.188v12.656h15v10.312h-15v17.344c0 2.813.47 4.5 1.5 5.719 1.219 1.406 3.188 2.25 6.188 2.25 1.781 0 4.124-.281 4.968-.469l1.875 10.313M864.287 396.161c-2.531-3.374-6.563-5.625-11.25-5.625-7.125 0-11.72 5.907-11.72 12.47 0 7.125 5.158 12.374 12 12.374 4.595 0 8.626-2.25 10.97-5.625zm12.188 29.532h-11.719v-3.657c-3.75 3.188-8.063 4.595-12.657 4.595-6.75 0-13.124-3-17.156-7.688-3.563-4.126-5.812-9.75-5.812-15.938 0-13.406 9.937-23.718 22.312-23.718 5.156 0 9.75 1.686 13.313 4.593v-3.656h11.719v45.47M900.844 425.693h-12.187v-45.469h12.187zm-6.093-69.376c4.406 0 7.969 3.376 7.969 7.782 0 4.406-3.563 7.781-7.97 7.781-4.406 0-7.967-3.375-7.967-7.781s3.561-7.782 7.968-7.782M914.905 425.693v-45.469h11.719v3.656c3.47-2.812 7.781-4.593 12.844-4.593 6.281 0 12 2.812 15.75 7.312 3 3.562 4.687 8.156 4.687 15.937v23.157h-12.188V401.6c0-4.5-1.03-6.844-2.718-8.531-1.594-1.595-4.031-2.532-6.844-2.532-5.156 0-9.375 3.281-11.062 5.625v29.532h-12.188M1000.4 397.099c-.375-4.031-4.03-7.968-9-7.968-5.061 0-9.187 3.842-9.75 7.968zm11.344 21.374c-4.405 5.251-11.624 8.158-18.656 8.158-13.593 0-23.812-9.376-23.812-23.626 0-12.656 8.624-23.718 22.124-23.718 12.563 0 21.47 10.593 21.47 23.249 0 1.219-.094 2.437-.282 3.47h-31.5c.656 6.374 5.812 10.78 12.281 10.78 5.156 0 9.282-2.906 11.438-5.25l6.937 6.937" fill="#21201f"/>
</svg>
