<svg xmlns="http://www.w3.org/2000/svg" height="91.159" width="600">
    <style>
        .st0{fill:#ffc300}.st1{fill:#323232}
    </style>
    <circle stroke-width=".868" class="st0" cy="40.37" cx="589.32" r="10.679" fill="#ffc300"/>
    <circle stroke-width=".868" class="st0" cy="80.48" cx="589.32" r="10.679" fill="#ffc300"/>
    <g stroke-width=".868" fill="#323232">
        <path d="M46.795 17.016c-1.302-.347-3.3-.608-4.775-.608-3.907 0-6.945 1.129-8.855 3.386-1.303 1.737-2.17 3.907-2.17 9.377v1.823h18.231v13.37H30.993v45.58h-15.8v-45.58H-.002v-13.37h15.193v-2.431c0-9.463 2.17-15.193 6.338-19.187C25.697 5.382 31.86 2.43 39.849 2.43c3.125 0 6.077.26 9.376 1.13zM92.374 44.972c-1.129-.347-3.386-.608-5.73-.608-6.945 0-12.415 4.949-14.325 8.508v37.071H56.518V30.994h15.193v5.904c3.56-4.34 9.984-7.205 17.103-7.205 2.344 0 3.646.26 5.383.52zM156.19 89.944h-15.193v-4.775c-4.862 4.167-10.418 5.99-16.409 5.99-8.769 0-17.016-3.906-22.225-9.984-4.601-5.382-7.553-12.675-7.553-20.663 0-17.364 12.849-30.734 28.91-30.734 6.685 0 12.675 2.17 17.277 5.99v-4.774h15.193zm-15.81-38.287c-3.3-4.34-8.508-7.293-14.585-7.293-9.203 0-15.193 7.64-15.193 16.148 0 9.203 6.685 16.061 15.54 16.061 5.99 0 11.2-2.952 14.238-7.292zM169.56 89.944v-58.95h15.193v4.775c4.515-3.646 10.071-5.99 16.669-5.99 8.16 0 15.54 3.646 20.402 9.463 3.907 4.601 6.077 10.592 6.077 20.663v30.039h-15.8V58.689c0-5.817-1.303-8.856-3.56-11.026-2.084-2.084-5.21-3.3-8.856-3.3-6.685 0-12.155 4.255-14.325 7.293v38.287zM293.53 77.876c-6.945 9.203-15.714 13.283-26.74 13.283-18.232 0-31.602-13.63-31.602-30.647 0-17.103 13.717-30.734 31.689-30.734 10.245 0 19.36 4.775 24.83 11.807l-11.113 9.81c-3.125-4.167-7.9-7.032-13.63-7.032-9.116 0-15.888 7.206-15.888 16.148 0 9.203 6.685 16.061 16.322 16.061 6.425 0 11.547-3.907 14.065-7.813zM351.09 80.567c-5.73 6.772-15.106 10.592-24.222 10.592-17.624 0-30.907-12.155-30.907-30.647 0-16.409 11.2-30.734 28.65-30.734 16.322 0 27.869 13.717 27.869 30.126 0 1.563-.087 3.125-.347 4.514h-40.805c.868 8.248 7.553 13.978 15.888 13.978 6.685 0 12.068-3.733 14.846-6.771zm-14.759-27.695c-.52-5.21-5.21-10.331-11.634-10.331-6.598 0-11.894 4.949-12.675 10.331zM368.89 0c5.73 0 10.331 4.34 10.331 10.071 0 5.73-4.601 10.071-10.331 10.071-5.73 0-10.331-4.34-10.331-10.071S363.159 0 368.889 0zm7.9 89.944h-15.8v-58.95h15.801zM390.16 89.944v-58.95h15.193v4.775c4.514-3.646 10.071-5.99 16.669-5.99 8.16 0 15.54 3.646 20.402 9.463 3.907 4.601 6.077 10.592 6.077 20.663v30.039h-15.8V58.689c0-5.817-1.302-8.856-3.56-11.026-2.083-2.084-5.208-3.3-8.855-3.3-6.685 0-12.155 4.255-14.325 7.293v38.287zM499.55 17.016c-1.302-.347-3.3-.608-4.775-.608-3.907 0-6.945 1.129-8.855 3.386-1.303 1.737-2.17 3.907-2.17 9.377v1.823h18.231v13.37H483.75v45.58h-15.8v-45.58h-15.194v-13.37h15.193v-2.431c0-9.463 2.17-15.193 6.338-19.187 4.167-3.994 10.33-6.946 18.319-6.946 3.125 0 6.077.26 9.376 1.13zM534.54 29.779c17.885 0 31.341 13.717 31.341 30.734 0 17.016-13.457 30.647-31.341 30.647-17.885 0-31.341-13.63-31.341-30.647 0-17.016 13.544-30.734 31.341-30.734zm0 46.795c9.203 0 15.54-7.206 15.54-16.061s-6.338-16.148-15.54-16.148c-9.203 0-15.54 7.293-15.54 16.148s6.338 16.061 15.54 16.061z" class="st1"/>
    </g>
</svg>
