<svg stroke-linejoin="round" xmlns="http://www.w3.org/2000/svg" fill-rule="evenodd" height="600" viewBox="0 0 15875 15875" width="600" version="1.2" stroke-width="28.222" preserveAspectRatio="xMidYMid">
    <path fill="#fff" d="M15875 0H2445v2448.6H0v13426h13458v-2420.1h2417z"/>
    <path fill="#231f20" d="M411.99 2834.2h12634v12629h-12634z"/>
    <path fill="#fff" d="M2280 12243l604.01-55.187v825.53h467.18c274.41 0 548.82 82.401 576.79 439.97 27.214 275.18-137.58 495.16-302.38 523.14h-384.78c82.399 0 329.6-137.58 275.17-385.55-27.971-192.78-219.98-192.78-357.57-192.78-164.8-27.215-851.2-54.431-851.2-54.431zM1525.5 13234c-82.399 137.58-192.01 330.36-137.58 523.14 192.01 604.78 1098.4 879.96 1538.4 879.96l-55.185-687.94s-659.19 83.158-988.79-275.18c-137.58-137.58-109.61-275.18 0-412.76-109.61 0-274.41-27.216-356.81-27.216z"/>
    <path fill="#127bca" d="M2828.8 385.55h12634v12655h-12634z"/>
    <g stroke-width="28.317" fill="#fff">
        <path d="M4509.1 9102.2c0 197.97 8.343 420.97 119.84 596.94 98.607 154.73 245 249.55 438.42 249.55 584.04 0 584.04-747.12 584.04-1138.5 0-398.97 0-1146.1-571.15-1146.1-502.89 0-571.15 540.81-571.15 923.1zM3460.8 5765.5h1035.4v1709.7h25.789c175.97-352.71 471.79-524.12 876.07-524.12 1021.7 0 1335.7 1017.9 1335.7 1859.1 0 940.54-378.49 1864.4-1456.3 1864.4-515.02 0-760.02-193.42-1021.7-622.74-128.94 154.73-167.64 360.29-232.1 549.16h-562.9zM6939.3 5765.5h1039.2v4835.8H6939.3zM10595 8376.7c-21.997-386.84-150.95-747.89-606.05-747.89s-631.07 339.81-669.76 747.89zm-1267.5 609.84l-8.344 175.97c0 424.76 240.45 768.36 691.76 768.36 321.6 0 639.42-232.1 639.42-562.05l957.99 68.265c0 175.97-416.42 1237.2-1632.3 1237.2-1069.5 0-1768.9-747.12-1768.9-1812.8 0-1055.9 626.53-1915.2 1739.3-1915.2 506.69 0 1021.7 232.1 1318.2 640.18 296.58 408.07 373.19 914.76 364.84 1400.2zM13953 10601v-618.18h-12.895c-167.62 451.31-537.02 691.76-1026.3 691.76-361.04 0-669.76-81.918-871.52-408.07-197.97-309.47-176.73-648.52-176.73-992.13v-2255.3h1035.4v2255c0 287.48 25.789 562.81 395.18 562.81 235.89 0 433.86-133.5 524.12-343.61 68.264-163.08 55.371-369.39 55.371-549.91v-1924.4h1035.4v3581.7zM8812.1 6435.2h-361.04v-944.34h-145.63v-283.68h145.63c0-111.49-3.793-240.45 56.129-334.5 77.367-116.05 219.21-167.63 351.94-167.63 30.34 0 137.29 3.793 214.65 16.687v279.13c-55.37-3.793-81.16-3.793-137.29-3.793-124.4 0-124.4 72.816-124.4 180.53v29.582h227.56v283.68h-227.56zM9520.5 5173.8v235.89h4.551c38.685-132.74 111.5-274.57 274.57-261.68l59.922 4.552v364.84c-279.13-12.895-313.26 210.11-313.26 433.86v485.4h-364.9v-1262.9zM10684 5834.5c-137.29 12.895-390.63 47.028-390.63 227.56 0 103.16 56.13 167.63 159.29 167.63 72.817 0 141.84-38.684 184.32-103.16 51.579-81.919 47.027-154.73 47.027-245zm34.893 600.73c-12.894-63.715-17.446-132.74-17.446-197.21-103.16 150.18-210.11 223-398.97 223-228.31 0-399.74-119.84-399.74-356.5 0-188.86 116.05-313.26 283.68-373.18 145.63-56.13 343.6-64.474 497.57-81.919v-29.582c0-51.579 4.551-116.05-29.582-163.08-34.132-43.234-94.813-60.68-150.18-60.68-116.05 0-219.21 60.68-219.21 180.53l-348.15-30.34c38.684-304.92 339.81-398.97 606.05-398.97 128.19 0 295.82 34.133 398.97 119.84 128.95 103.16 116.05 240.45 116.05 391.39v587.84c0 64.473 4.553 128.94 21.24 188.87zM11238 5173.1h343.61v214.65h3.791c77.368-163.08 180.53-240.45 365.6-240.45 119.84 0 235.89 38.685 313.26 141.84 69.025 90.262 69.025 248.79 69.025 364.84v781.2h-365.6v-678.1c0-128.94 17.445-317.81-171.42-317.81-64.473 0-124.4 34.133-150.18 94.054-38.683 69.025-43.234 141.84-43.234 223.76v678.1h-364.84zM13283 5654c0-111.5-59.922-223-188.86-223-201.76 0-227.55 197.22-227.55 355.74 0 154.73 3.793 373.94 210.11 373.94 128.94 0 193.42-103.16 206.31-219.21l348.15 21.996c-30.34 308.71-266.24 497.57-571.15 497.57-386.84 0-614.39-270.03-614.39-643.97 0-386.08 235.89-669.76 635.63-669.76 292.02 0 524.12 193.42 549.92 489.24zM14545 5654c-9.102-137.29-56.13-261.68-210.87-261.68-167.62 0-227.54 115.29-240.45 261.68zm-451.31 214.65v59.922c0 150.94 81.92 270.79 244.99 270.79 111.5 0 223-81.919 223-197.21l339.05 25.788c0 59.922-145.63 433.11-574.94 433.11-377.73 0-622.74-261.68-622.74-635.63 0-373.19 219.21-678.1 613.62-678.1 176.73 0 356.5 85.71 459.66 227.56 107.7 145.63 133.5 322.36 128.94 493.78z"/>
    </g>
    <g fill="#fff">
        <path d="M11287.467 11835.908c-135.862 27.023-409.088 54.797-409.088 245.462 0 82.572 54.795 164.392 163.635 164.392 109.59 0 163.636-54.797 218.43-109.594 27.023-81.821 27.023-163.642 27.023-245.463zm54.795 601.27c-27.022-54.797-27.022-136.618-27.022-191.416-109.59 136.619-245.453 218.44-436.86 218.44-217.68 0-381.316-109.595-381.316-355.058 0-191.416 108.84-300.26 272.475-355.057s382.066-81.821 517.928-81.821v-27.774c0-54.798 27.773-136.619-27.022-163.642-27.023-54.797-81.818-54.797-163.635-54.797-108.84 0-218.43 54.797-218.43 163.641l-354.293-27.023c54.795-328.034 354.292-409.855 627.518-409.855 135.862 0 299.497 27.023 409.088 109.595 108.84 136.618 108.84 273.237 108.84 409.855v573.496c0 81.821 0 136.619 27.022 191.416zM12733.161 11426.053l-545.7 737.889h572.723v273.236H11751.35v-273.236l572.723-710.866h-517.927v-273.237h927.015zM13605.382 12437.178v-219.19c-54.045 164.393-190.658 246.214-354.293 246.214-136.613 0-245.453-27.024-327.27-136.619s-81.818-218.439-81.818-382.831v-764.913h409.088v764.913c0 109.595 0 246.213 136.613 246.213 81.817 0 135.862-54.797 163.635-163.642 27.022-54.797 27.022-136.618 27.022-191.415v-656.069h354.293v1257.34zM14451.33 11183.593v218.439c54.045-136.618 108.84-273.237 272.475-245.463h54.796v355.058c-273.226 0-300.248 218.439-300.248 436.878v491.676h-382.066v-1256.588z"/>
    </g>
</svg>
