<svg version="1.1" viewBox="0 0 779.96 282.45" xml:space="preserve" xmlns="http://www.w3.org/2000/svg"><g transform="matrix(1.3333 0 0 -1.3333 -211.31 489.05)"><g transform="scale(.1)"><path d="m2375.3 2302.8c0-218.27-176.95-395.22-395.22-395.22-218.28 0-395.22 176.95-395.22 395.22s176.94 395.22 395.22 395.22c218.27 0 395.22-176.95 395.22-395.22" fill="#4679c6"/><path d="m3581.1 2963.7 378.91 465.45v238.69h-1268v-358.05h682.39l-375.08-443.78v-257.35c77.58 38.79 167.08 59.67 250.61 59.67 232.72 0 411.75-164.09 411.75-381.89 0-223.77-193.94-378.92-390.86-378.92-158.12 0-301.34 86.51-387.86 208.85l-289.41-241.66c184.98-208.87 432.61-325.22 692.2-325.22 432.61 0 778.71 295.36 778.71 736.95 0 316.25-196.92 566.87-483.34 677.26" fill="#21201f"/><path d="m4765.7 2540.9c-40.07-53.44-90.7-76.64-154.68-76.64-105.47 0-182.82 78.75-182.82 177.18 0 99.15 79.46 177.9 183.52 177.9 59.06 0 111.8-27.43 143.44-68.21l-64.69-56.95c-18.28 23.91-45.7 40.78-78.75 40.78-52.73 0-92.11-41.48-92.11-93.52 0-53.43 38.67-92.81 94.22-92.81 37.26 0 66.8 22.5 81.56 45l70.31-52.73" fill="#21201f"/><path d="m4989.2 2548.6c53.44 0 90 41.49 90 92.81 0 51.33-36.56 93.52-90 93.52s-90-42.19-90-93.52c0-51.32 36.56-92.81 90-92.81zm0 270.71c103.36 0 181.4-79.46 181.4-177.9 0-98.43-78.04-177.18-181.4-177.18s-181.41 78.75-181.41 177.18c0 98.44 78.05 177.9 181.41 177.9" fill="#21201f"/><path d="m5455.4 2731.5c-6.33 2.11-19.69 3.52-33.05 3.52-40.07 0-71.71-28.83-82.96-49.22v-214.45h-91.41v341.01h87.89v-34.45c20.39 25.31 57.66 41.49 99.14 41.49 13.36 0 21.09-1.41 30.94-2.82l-10.55-85.08" fill="#21201f"/><path d="m5546.8 2575.4c23.2-21.09 59.06-33.75 93.51-33.75 24.61 0 43.6 11.95 43.6 28.83 0 51.33-165.24 33.05-165.24 142.73 0 65.39 63.28 106.18 130.78 106.18 44.3 0 92.82-16.88 115.32-34.46l-42.89-66.09c-17.58 12.65-40.79 23.2-65.39 23.2-25.32 0-46.41-9.84-46.41-27.42 0-44.3 165.23-26.72 165.23-144.84 0-65.39-63.98-105.47-135.7-105.47-47.11 0-97.03 16.17-137.11 45.7l44.3 65.39" fill="#21201f"/><path d="m6064.9 2685.8c-2.81 30.24-30.23 59.77-67.5 59.77-37.97 0-68.9-28.83-73.12-59.77zm85.08-160.31c-33.05-39.38-87.19-61.17-139.92-61.17-101.96 0-178.6 70.31-178.6 177.18 0 94.93 64.69 177.9 165.94 177.9 94.22 0 161.02-79.46 161.02-174.38 0-9.14-0.71-18.28-2.11-26.02h-236.25c4.92-47.81 43.59-80.85 92.11-80.85 38.67 0 69.61 21.79 85.78 39.37l52.03-52.03" fill="#21201f"/><path d="m4599 1833.7 93.52 208.13h94.92l-156.8-341.02h-63.28l-156.79 341.02h94.92l93.51-208.13" fill="#21201f"/><path d="m4938.6 1700.8h-91.4v341.02h91.4zm-45.7 520.31c33.05 0 59.77-25.31 59.77-58.36 0-33.04-26.72-58.36-59.77-58.36s-59.77 25.32-59.77 58.36c0 33.05 26.72 58.36 59.77 58.36" fill="#21201f"/><path d="m5279.6 1922.3c-18.98 25.31-49.22 42.18-84.38 42.18-53.43 0-87.89-44.29-87.89-93.51 0-53.44 38.68-92.82 90-92.82 34.46 0 64.69 16.88 82.27 42.19zm91.41-221.49h-87.89v27.42c-28.13-23.9-60.47-34.45-94.93-34.45-50.62 0-98.43 22.5-128.67 57.66-26.72 30.93-43.59 73.12-43.59 119.53 0 100.54 74.53 177.89 167.34 177.89 38.67 0 73.13-12.66 99.85-34.46v27.43h87.89v-341.02" fill="#21201f"/><path d="m5676.8 1804.8c23.2-21.09 59.06-33.75 93.51-33.75 24.61 0 43.6 11.96 43.6 28.83 0 51.33-165.24 33.05-165.24 142.74 0 65.39 63.28 106.17 130.78 106.17 44.3 0 92.82-16.88 115.32-34.46l-42.9-66.09c-17.57 12.66-40.78 23.2-65.39 23.2-25.31 0-46.4-9.84-46.4-27.42 0-44.29 165.23-26.72 165.23-144.84 0-65.39-63.98-105.47-135.7-105.47-47.11 0-97.03 16.17-137.11 45.7l44.3 65.39" fill="#21201f"/><path d="m6246.3 1700.8c-11.95-4.22-39.38-7.03-56.95-7.03-54.85 0-94.93 18.28-118.13 49.22-17.58 23.2-25.31 53.44-25.31 101.95v119.53h-94.92v77.35h94.92v94.92h91.4v-94.92h112.5v-77.35h-112.5v-130.08c0-21.09 3.52-33.75 11.25-42.89 9.14-10.54 23.91-16.87 46.41-16.87 13.36 0 30.94 2.11 37.27 3.51l14.06-77.34" fill="#21201f"/><path d="m6543 1915.2c-2.81 30.24-30.24 59.77-67.5 59.77-37.97 0-68.91-28.83-73.13-59.77zm85.08-160.31c-33.05-39.37-87.19-61.17-139.93-61.17-101.95 0-178.59 70.31-178.59 177.19 0 94.92 64.69 177.89 165.94 177.89 94.22 0 161.01-79.46 161.01-174.38 0-9.14-0.7-18.28-2.11-26.01h-236.25c4.93-47.82 43.6-80.86 92.11-80.86 38.68 0 69.61 21.79 85.78 39.37l52.04-52.03" fill="#21201f"/><path d="m6805.2 1700.8h-91.4v499.22h91.4v-499.22" fill="#21201f"/><path d="m7002.1 1700.8h-91.41v499.22h91.41v-499.22" fill="#21201f"/><path d="m7343.1 1922.3c-18.99 25.31-49.22 42.18-84.38 42.18-53.44 0-87.89-44.29-87.89-93.51 0-53.44 38.67-92.82 90-92.82 34.45 0 64.69 16.88 82.27 42.19zm91.4-221.49h-87.89v27.42c-28.12-23.9-60.47-34.45-94.92-34.45-50.63 0-98.44 22.5-128.67 57.66-26.72 30.93-43.6 73.12-43.6 119.53 0 100.54 74.53 177.89 167.35 177.89 38.67 0 73.12-12.66 99.84-34.46v27.43h87.89v-341.02" fill="#21201f"/></g></g></svg>
