<svg viewBox="0 0 838.08 282.45" xmlns="http://www.w3.org/2000/svg">
    <path d="M105.385 182.018c0 29.102-23.591 52.694-52.694 52.694-29.102 0-52.695-23.592-52.695-52.694s23.593-52.695 52.695-52.695c29.103 0 52.694 23.593 52.694 52.695" fill="#4679c6"/>
    <path d="M266.155 93.9l50.52-62.059V.017H147.612v47.737h90.983l-50.009 59.172v34.311c10.342-5.172 22.275-7.955 33.412-7.955 31.03 0 54.9 21.878 54.9 50.918 0 29.834-25.859 50.52-52.114 50.52-21.082 0-40.178-11.534-51.712-27.846l-38.589 32.222c24.664 27.849 57.682 43.36 92.291 43.36 57.682 0 103.827-39.381 103.827-98.256 0-42.167-26.255-75.582-64.445-90.3M395.031 159.552h-12.187V92.99h12.187v66.56M440.497 130.019c-2.53-3.376-6.561-5.625-11.249-5.625-7.125 0-11.718 5.906-11.718 12.469 0 7.124 5.155 12.374 12 12.374 4.593 0 8.624-2.25 10.967-5.625zm12.188 29.53h-11.719v-3.656c-3.749 3.188-8.062 4.593-12.655 4.593-6.75 0-13.125-3-17.156-7.686-3.562-4.125-5.813-9.75-5.813-15.937 0-13.407 9.937-23.72 22.313-23.72 5.156 0 9.749 1.688 13.311 4.595v-3.656h11.719v45.467M464.87 159.552v-45.467h11.718v3.656c3.468-2.814 7.781-4.595 12.844-4.595 6.281 0 12 2.813 15.749 7.313 3 3.563 4.688 8.156 4.688 15.937v23.156H497.68v-24.093c0-4.5-1.03-6.844-2.719-8.532-1.593-1.593-4.03-2.53-6.844-2.53-5.155 0-9.374 3.28-11.062 5.625v29.53H464.87M554.4 130.019c-2.53-3.376-6.562-5.625-11.248-5.625-7.125 0-11.719 5.906-11.719 12.469 0 7.124 5.156 12.374 12 12.374 4.593 0 8.624-2.25 10.968-5.625zm12.189 27c0 8.155-1.407 13.03-4.126 16.874-4.125 5.718-11.437 9.093-20.155 9.093-8.907 0-17.344-4.124-21.844-9.375l7.688-7.969c2.437 2.625 6.656 6.563 14.156 6.563 3.937 0 7.218-1.219 9.28-3.656 1.876-2.063 2.813-4.875 2.813-10.687v-1.5c-3.656 2.812-7.593 4.124-12.187 4.124-6.75 0-13.218-3-17.25-7.686-3.562-4.125-5.718-9.75-5.718-15.937 0-13.407 9.937-23.72 22.311-23.72 5.157 0 9.75 1.688 13.313 4.595v-3.656h11.719v42.936M621.892 114.086v45.467h-11.718v-3.656c-3.562 3.188-7.874 4.593-12.28 4.593-6.282 0-11.906-2.905-15.469-7.312-2.906-3.562-4.594-8.25-4.594-15v-24.092h12.188v24.56c0 4.126.844 6.189 2.25 7.782 1.875 2.063 4.5 2.813 6.843 2.813 5.157 0 8.906-3.47 10.594-5.625v-29.53h12.186M663.318 130.952c-.376-4.032-4.032-7.969-9-7.969-5.062 0-9.187 3.844-9.75 7.97zm11.342 21.374c-4.405 5.251-11.623 8.156-18.655 8.156-13.593 0-23.811-9.374-23.811-23.623 0-12.657 8.625-23.72 22.124-23.72 12.561 0 21.468 10.595 21.468 23.25 0 1.22-.094 2.438-.282 3.47h-31.499c.656 6.374 5.813 10.78 12.281 10.78 5.156 0 9.281-2.906 11.437-5.25l6.937 6.937M717.503 130.019c-2.53-3.376-6.562-5.625-11.249-5.625-7.125 0-11.718 5.906-11.718 12.469 0 7.124 5.156 12.374 12 12.374 4.593 0 8.623-2.25 10.967-5.625zm.47 29.53v-3.656c-3.75 3.188-8.063 4.593-12.656 4.593-6.75 0-13.125-3-17.157-7.686-3.561-4.125-5.812-9.75-5.812-15.937 0-13.407 9.937-23.72 22.312-23.72 4.969 0 9.28 1.407 12.843 4.22V92.988h12.188v66.56h-11.718M762.302 149.245c7.125 0 12-5.532 12-12.374 0-6.844-4.875-12.47-12-12.47s-12 5.626-12 12.47c0 6.842 4.875 12.374 12 12.374zm0-36.094c13.781 0 24.186 10.595 24.186 23.72 0 13.123-10.405 23.623-24.186 23.623s-24.187-10.5-24.187-23.623c0-13.125 10.406-23.72 24.187-23.72M838.047 150.272c-5.342 7.125-12.093 10.218-20.623 10.218-14.063 0-24.376-10.5-24.376-23.623 0-13.22 10.595-23.72 24.469-23.72 7.874 0 14.906 3.658 19.125 9.095l-8.625 7.593c-2.438-3.188-6.094-5.437-10.5-5.437-7.032 0-12.281 5.53-12.281 12.469 0 7.124 5.156 12.374 12.562 12.374 4.968 0 8.907-3 10.875-6l9.374 7.03M410.498 227.59c-.843-.281-2.624-.468-4.405-.468-5.344 0-9.563 3.844-11.063 6.562v28.593h-12.188v-45.468h11.719v4.594c2.718-3.376 7.688-5.532 13.218-5.532 1.781 0 2.813.188 4.125.375l-1.406 11.344M438.91 251.976c7.126 0 12-5.532 12-12.376s-4.874-12.467-12-12.467-12 5.623-12 12.467 4.875 12.376 12 12.376zm0-36.094c13.781 0 24.188 10.595 24.188 23.718 0 13.125-10.407 23.625-24.188 23.625s-24.186-10.5-24.186-23.625c0-13.123 10.405-23.718 24.186-23.718M515.588 216.817v45.468H503.87v-3.656c-3.562 3.187-7.874 4.593-12.28 4.593-6.282 0-11.907-2.906-15.47-7.312-2.905-3.562-4.593-8.25-4.593-15v-24.093h12.188v24.562c0 4.125.842 6.188 2.249 7.781 1.874 2.063 4.5 2.813 6.844 2.813 5.156 0 8.906-3.469 10.593-5.625v-29.531h12.187M531.055 248.416c3.093 2.812 7.874 4.5 12.467 4.5 3.282 0 5.812-1.595 5.812-3.844 0-6.844-22.03-4.407-22.03-19.032 0-8.718 8.437-14.155 17.437-14.155 5.907 0 12.374 2.25 15.374 4.594l-5.718 8.812c-2.343-1.688-5.437-3.093-8.719-3.093-3.374 0-6.186 1.312-6.186 3.656 0 5.905 22.03 3.562 22.03 19.311 0 8.719-8.53 14.063-18.093 14.063-6.281 0-12.937-2.156-18.28-6.094l5.906-8.718M574.174 248.416c3.094 2.812 7.875 4.5 12.469 4.5 3.28 0 5.812-1.595 5.812-3.844 0-6.844-22.03-4.407-22.03-19.032 0-8.718 8.437-14.155 17.436-14.155 5.907 0 12.375 2.25 15.375 4.594l-5.719 8.812c-2.344-1.688-5.437-3.093-8.718-3.093-3.375 0-6.188 1.312-6.188 3.656 0 5.905 22.031 3.562 22.031 19.311 0 8.719-8.532 14.063-18.093 14.063-6.28 0-12.938-2.156-18.28-6.094l5.905-8.718M628.066 262.282h-12.188v-45.468h12.188zm-6.094-69.373c4.406 0 7.968 3.375 7.968 7.782 0 4.405-3.562 7.78-7.968 7.78-4.406 0-7.969-3.375-7.969-7.78 0-4.407 3.563-7.782 7.97-7.782M654.318 262.282h-12.187v-66.56h12.187v66.56M680.571 262.282h-12.186v-66.56h12.186v66.56M715.063 251.976c7.126 0 12-5.532 12-12.376s-4.874-12.467-12-12.467-12 5.623-12 12.467 4.875 12.376 12 12.376zm0-36.094c13.781 0 24.188 10.595 24.188 23.718 0 13.125-10.407 23.625-24.188 23.625s-24.186-10.5-24.186-23.625c0-13.123 10.405-23.718 24.186-23.718M749.556 262.282v-45.468h11.718v3.657c3.47-2.813 7.781-4.594 12.844-4.594 6.281 0 12 2.813 15.75 7.313 3 3.561 4.687 8.156 4.687 15.937v23.155h-12.187V238.19c0-4.5-1.032-6.844-2.718-8.532-1.595-1.593-4.032-2.53-6.844-2.53-5.156 0-9.376 3.28-11.062 5.623v29.531h-12.188" fill="#21201f"/>
</svg>
