<svg version="1.1" viewBox="0 0 782.77 282.45" xml:space="preserve" xmlns="http://www.w3.org/2000/svg"><g transform="matrix(1.3333 0 0 -1.3333 -212.38 489.05)"><g transform="scale(.1)"><path d="m2383.3 2302.8c0-218.27-176.94-395.22-395.22-395.22-218.27 0-395.22 176.95-395.22 395.22s176.95 395.22 395.22 395.22c218.28 0 395.22-176.95 395.22-395.22" fill="#4679c6"/><path d="m3589.1 2963.7 378.91 465.45v238.69h-1268v-358.04h682.39l-375.08-443.8v-257.34c77.57 38.79 167.07 59.67 250.6 59.67 232.73 0 411.75-164.09 411.75-381.9 0-223.76-193.94-378.91-390.86-378.91-158.12 0-301.34 86.51-387.85 208.85l-289.42-241.67c184.98-208.87 432.62-325.21 692.2-325.21 432.62 0 778.72 295.37 778.72 736.94 0 316.26-196.92 566.88-483.35 677.27" fill="#21201f"/><path d="m4699.9 2278.8c-18.99 25.31-49.22 42.19-84.38 42.19-53.43 0-87.89-44.3-87.89-93.52 0-53.44 38.68-92.81 90-92.81 34.46 0 64.69 16.87 82.27 42.19zm91.41-221.49h-87.9v27.43c-28.12-23.91-60.46-34.46-94.92-34.46-50.62 0-98.43 22.5-128.67 57.66-26.72 30.94-43.59 73.12-43.59 119.53 0 100.55 74.53 177.89 167.34 177.89 38.67 0 73.13-12.65 99.84-34.45v27.42h87.9v-341.02" fill="#21201f"/><path d="m5206.1 2398.3v-341.02h-87.89v27.43c-26.71-23.91-59.06-34.46-92.1-34.46-47.11 0-89.3 21.8-116.02 54.85-21.8 26.72-34.45 61.87-34.45 112.5v180.7h91.4v-184.22c0-30.94 6.33-46.4 16.88-58.36 14.06-15.47 33.75-21.09 51.33-21.09 38.67 0 66.79 26.01 79.45 42.19v221.48h91.4" fill="#21201f"/><path d="m5440.2 2190.2 93.51 208.12h94.92l-156.79-341.02h-63.28l-156.8 341.02h94.92l93.52-208.12" fill="#21201f"/><path d="m5879.6 2271.8c-2.81 30.23-30.23 59.76-67.5 59.76-37.97 0-68.91-28.82-73.13-59.76zm85.08-160.31c-33.05-39.38-87.19-61.18-139.92-61.18-101.96 0-178.6 70.32-178.6 177.19 0 94.92 64.69 177.89 165.94 177.89 94.22 0 161.02-79.45 161.02-174.37 0-9.14-0.71-18.28-2.11-26.02h-236.25c4.92-47.81 43.59-80.86 92.11-80.86 38.67 0 69.6 21.8 85.78 39.38l52.03-52.03" fill="#21201f"/><path d="m6257.9 2317.5c-6.33 2.11-19.69 3.52-33.05 3.52-40.08 0-71.72-28.83-82.97-49.22v-214.46h-91.4v341.02h87.89v-34.45c20.39 25.31 57.65 41.48 99.14 41.48 13.36 0 21.09-1.4 30.93-2.81l-10.54-85.08" fill="#21201f"/><path d="m6546.1 2278.8c-18.98 25.31-49.21 42.19-84.37 42.19-53.44 0-87.89-44.3-87.89-93.52 0-53.44 38.67-92.81 90-92.81 34.45 0 64.69 16.87 82.26 42.19zm91.41-202.5c0-61.17-10.55-97.74-30.94-126.56-30.93-42.89-85.78-68.21-151.17-68.21-66.8 0-130.08 30.94-163.83 70.32l57.66 59.76c18.28-19.69 49.92-49.22 106.17-49.22 29.53 0 54.14 9.14 69.61 27.42 14.06 15.47 21.09 36.57 21.09 80.16v11.25c-27.42-21.09-56.95-30.94-91.4-30.94-50.63 0-99.14 22.5-129.38 57.66-26.72 30.94-42.89 73.12-42.89 119.53 0 100.55 74.53 177.89 167.35 177.89 38.67 0 73.12-12.65 99.84-34.45v27.42h87.89v-322.03" fill="#21201f"/><path d="m6728.9 2057.3v341.02h87.89v-27.42c26.02 21.09 58.36 34.45 96.33 34.45 47.11 0 90-21.09 118.13-54.84 22.5-26.72 35.15-61.17 35.15-119.53v-173.68h-91.4v180.71c0 33.75-7.74 51.33-20.39 63.98-11.96 11.96-30.24 18.99-51.33 18.99-38.67 0-70.32-24.61-82.97-42.19v-221.49h-91.41" fill="#21201f"/><path d="m7370.1 2271.8c-2.81 30.23-30.23 59.76-67.5 59.76-37.97 0-68.9-28.82-73.12-59.76zm85.08-160.31c-33.05-39.38-87.19-61.18-139.92-61.18-101.95 0-178.59 70.32-178.59 177.19 0 94.92 64.68 177.89 165.93 177.89 94.22 0 161.02-79.45 161.02-174.37 0-9.14-0.7-18.28-2.11-26.02h-236.25c4.92-47.81 43.59-80.86 92.11-80.86 38.67 0 69.61 21.8 85.78 39.38l52.03-52.03" fill="#21201f"/></g></g></svg>
