<svg stroke-linejoin="round" xmlns="http://www.w3.org/2000/svg" fill-rule="evenodd" xml:space="preserve" height="600" viewBox="0 0 15875 15875" width="600" version="1.2" stroke-width="28.222" preserveAspectRatio="xMidYMid"><g transform="matrix(.75595 0 0 .75595 1735.7 6434.1)"><g class="Master_Slide"/></g><path fill="#fff" d="m15875 0h-13454v2448.5h-2421v13426h13454v-2420h2421z"/><path d="m412.75 2834.1h12628v12628h-12628z" fill="#231f20"/><path fill="#fff" d="m2283.7 12243 550.33-55.184v825.5h467.18c330.35 0 605.52 82.399 633.49 467.93 0 275.17-165.55 467.18-303.14 495.15h-412.75c82.399 0 357.57-165.55 303.14-357.56-55.184-192.77-247.95-192.77-412.75-192.77-165.55-27.97-825.5-55.185-825.5-55.185z"/><path fill="#fff" d="m1514.2 13234c-109.61 137.58-219.98 302.38-137.58 523.12 165.55 604.76 1128.6 879.93 1513.4 879.93l-55.185-715.13s-659.95 82.398-990.3-247.95c-109.61-137.58-82.399-302.38 0-412.75-109.61 0-247.2-27.214-330.35-27.214z"/><path d="m2834.1 385.54h12655v12655h-12655z" fill="#127bca"/><g fill="#fff"><g stroke-linejoin="round" fill-rule="evenodd" stroke-width="28.035"><path d="m4484.2 9102c0 194.6 8.319 413.8 119.5 586.77 98.329 152.09 244.3 245.29 437.18 245.29 582.39 0 582.39-734.39 582.39-1119.1 0-392.17 0-1126.6-569.53-1126.6-501.47 0-569.54 531.6-569.54 907.37zm-1045.3-3279.8h1032.5v1680.6h25.717c175.47-346.7 470.46-515.19 873.59-515.19 1018.8 0 1331.9 1000.6 1331.9 1827.4 0 924.51-377.42 1832.6-1452.2 1832.6-513.57 0-757.88-190.13-1018.8-612.13-128.58 152.09-167.17 354.15-231.45 539.8h-561.31z"/><path d="m6907.5 5822.2h1036.3v4753.8h-1036.3z"/><path d="m10553 8388.9c-21.935-380.25-150.53-735.14-604.34-735.14-453.82 0-629.29 334.02-667.87 735.14zm-1263.9 599.45-8.32 172.97c0 417.52 239.77 755.26 689.81 755.26 320.69 0 637.61-228.14 637.61-552.47l955.28 67.102c0 172.97-415.24 1216.1-1627.7 1216.1-1066.5 0-1763.9-734.39-1763.9-1781.9 0-1037.9 624.76-1882.6 1734.4-1882.6 505.26 0 1018.8 228.14 1314.5 629.27 295.74 401.12 372.14 899.17 363.81 1376.3z"/><path d="m13901 10575v-607.65h-12.857c-167.15 443.62-535.5 679.97-1023.4 679.97-360.02 0-667.86-80.521-869.06-401.12-197.41-304.2-176.23-637.47-176.23-975.22v-2216.6h1032.5v2216.6c0 282.58 25.719 553.22 394.07 553.22 235.22 0 432.63-131.22 522.63-337.75 68.074-160.3 55.217-363.1 55.217-540.54v-1891.6h1032.5v3520.7z"/><path d="m8775 6480.5h-360.02v-928.25h-145.22v-278.85h145.22c0-109.59-3.783-236.35 55.968-328.8 77.151-114.07 218.59-164.77 350.95-164.77 30.254 0 136.9 3.7279 214.04 16.403v274.37c-55.211-3.729-80.926-3.729-136.9-3.729-124.05 0-124.05 71.575-124.05 177.45v29.078h226.92v278.85h-226.92z"/><path d="m9481.4 5240.5v231.87h4.538c38.577-130.48 111.19-269.89 273.8-257.22l59.75 4.476v358.62c-278.34-12.676-312.37 206.53-312.37 426.47v477.13h-363.87v-1241.4z"/><path d="m10642 5890c-136.9 12.676-389.52 46.228-389.52 223.68 0 101.4 55.971 164.77 158.84 164.77 72.613 0 141.44-38.025 183.8-101.4 51.435-80.522 46.893-152.09 46.893-240.82zm34.794 590.49c-12.855-62.63-17.396-130.48-17.396-193.85-102.87 147.62-209.52 219.2-397.84 219.2-227.67 0-398.61-117.8-398.61-350.42 0-185.64 115.72-307.92 282.88-366.82 145.22-55.174 342.63-63.376 496.17-80.523v-29.077c0-50.701 4.54-114.07-29.498-160.3-34.034-42.497-94.546-59.645-149.76-59.645-115.72 0-218.59 59.645-218.59 177.45l-347.17-29.822c38.575-299.72 338.85-392.17 604.34-392.17 127.83 0 294.98 33.552 397.84 117.8 128.59 101.4 115.72 236.35 115.72 384.72v577.82c0 63.372 4.538 126.74 21.177 185.65z"/><path d="m11194 5239.9h342.64v210.99h3.779c77.152-160.3 180.02-236.35 364.57-236.35 119.5 0 235.22 38.025 312.37 139.42 68.83 88.723 68.83 244.55 68.83 358.62v767.89h-364.56v-666.54c0-126.74 17.393-312.39-170.94-312.39-64.292 0-124.05 33.551-149.76 92.451-38.571 67.849-43.11 139.42-43.11 219.95v666.54h-363.81z"/><path d="m13233 5712.6c0-109.6-59.75-219.2-188.32-219.2-201.19 0-226.91 193.86-226.91 349.68 0 152.09 3.785 367.57 209.52 367.57 128.57 0 192.87-101.4 205.72-215.48l347.17 21.621c-30.254 303.45-265.49 489.09-569.54 489.09-385.75 0-612.65-265.43-612.65-633 0-379.5 235.22-658.35 633.83-658.35 291.19 0 522.64 190.12 548.36 480.9z"/><path d="m14492 5712.6c-9.077-134.95-55.968-257.22-210.27-257.22-167.15 0-226.89 113.33-239.77 257.22zm-450.03 210.99v58.901c0 148.37 81.688 266.17 244.3 266.17 111.19 0 222.37-80.522 222.37-193.85l338.09 25.348c0 58.902-145.22 425.73-573.32 425.73-376.66 0-620.98-257.22-620.98-624.8 0-366.83 218.59-666.54 611.88-666.54 176.23 0 355.5 84.249 458.36 223.68 107.4 143.15 133.12 316.87 128.58 485.37z"/></g><path d="m3714 11666c0 82.399 0 164.8 27.97 192.01 27.215 55.184 82.399 82.398 109.61 82.398 192.77 0 192.77-219.98 192.77-302.38 0-109.61-55.184-302.38-192.77-302.38-54.428 0-82.398 27.214-109.61 82.398-27.97 55.185-27.97 110.37-27.97 164.8zm-27.214-523.12v164.8c55.184-137.58 137.58-192.01 247.95-192.01 164.8 0 247.2 54.428 329.6 192.01 55.185 110.37 55.185 220.74 55.185 330.35 0 247.95-82.399 495.15-384.78 495.15-83.155 0-192.77-27.214-220.74-109.61v412.75h-275.17v-1293.4z"/><path d="m4952.2 11638c-109.61 0-302.38 27.971-302.38 165.55 0 109.61 55.185 164.8 137.58 164.8 55.185 0 109.61-27.971 137.58-82.399 27.214-82.399 27.214-137.58 27.214-219.98zm27.97 467.94v-137.58c-83.154 109.61-165.55 164.8-303.14 164.8-192.77 0-302.38-82.399-302.38-302.38 0-137.58 82.399-219.98 192.77-275.17 109.61-55.185 275.17-55.185 384.78-55.185v-27.214c0-27.97 0-82.399-27.214-137.58-27.97-27.971-55.185-27.971-110.37-27.971-82.399 0-164.8 27.971-164.8 137.58l-247.95-27.215c27.97-219.98 247.95-302.38 440.72-302.38 109.61 0 247.2 27.214 329.6 82.398 110.37 82.399 82.399 192.77 82.399 302.38v467.94c0 55.184 0 109.61 27.97 137.58z"/><path d="m5915.3 12051c-82.398 219.98-110.37 385.54-412.75 385.54h-137.58v-220.74l137.58 27.97c82.399 0 137.58-27.97 137.58-137.58l-330.35-963.08h303.14l192.01 577.55 192.77-577.55h192.77z"/><path d="m6796 11418c-27.97-82.398-110.37-137.58-192.77-137.58-82.399 0-165.55 27.214-165.55 110.37 0 164.8 578.3-27.97 578.3 384.78 0 137.58-27.97 219.98-110.37 275.17-82.399 55.185-192.77 82.399-302.38 82.399-219.98 0-412.75-55.184-467.93-302.38l247.95-27.214c27.214 109.61 109.61 136.83 247.2 136.83 55.185 0 165.55 0 165.55-109.61 0-55.184-55.185-82.398-110.37-82.398-82.399 0-247.95-27.971-330.35-55.185-109.61-27.214-164.8-137.58-164.8-247.95 0-247.2 192.77-329.6 412.75-329.6 192.77 0 330.35 82.398 384.78 247.2z"/><path d="m8116.7 11555c0-82.399 0-247.95-137.58-247.95-165.55 0-165.55 220.74-165.55 330.35 0 137.58 27.97 302.38 165.55 302.38 54.429 0 82.399-27.214 109.61-82.398 27.971-27.215 27.971-82.399 27.971-164.8zm0 550.33v-137.58c-55.185 109.61-110.37 164.8-247.95 164.8-275.17 0-330.35-247.2-330.35-495.15 0-247.2 55.185-522.36 330.35-522.36 110.37 0 192.77 27.214 247.95 137.58v-440.72h302.38v1293.4z"/><path d="m9107 11500c0-109.61-27.97-192.77-165.55-192.77-109.61 0-164.8 83.155-164.8 192.77zm-330.35 165.55v54.428c0 110.37 55.185 219.98 164.8 219.98 110.37 0 192.77-54.428 192.77-164.8h275.17c0 55.184-109.61 357.56-467.93 357.56-275.17 0-467.18-192.77-467.18-495.15s164.8-522.36 467.18-522.36c137.58 0 275.17 54.428 385.54 164.8 55.185 110.37 82.399 247.95 82.399 385.54z"/><path d="m10510 11418c-27.214-82.398-82.399-137.58-192.77-137.58-55.184 0-137.58 27.214-137.58 110.37 0 164.8 578.3-27.97 578.3 384.78 0 137.58-55.184 219.98-137.58 275.17-83.155 55.185-192.77 82.399-275.17 82.399-220.74 0-412.75-55.184-467.93-302.38l247.2-27.214c27.97 109.61 137.58 136.83 220.74 136.83 54.429 0 164.8 0 164.8-109.61 0-55.184-55.185-82.398-110.37-82.398-54.429 0-219.98-27.971-275.17-55.185-109.61-27.214-219.98-137.58-219.98-247.95 0-247.2 247.95-329.6 440.72-329.6 192.01 0 302.38 82.398 357.57 247.2z"/><path d="m11418 11638c-110.37 0-330.35 27.971-330.35 165.55 0 109.61 27.97 164.8 137.58 164.8 55.184 0 110.37-27.971 137.58-82.399 55.185-82.399 55.185-137.58 55.185-219.98zm0 467.94v-137.58c-82.399 109.61-164.8 164.8-330.35 164.8-164.8 0-302.38-82.399-302.38-302.38 0-137.58 82.398-219.98 219.98-275.17 110.37-55.185 275.17-55.185 412.75-55.185v-27.214c0-27.97 0-82.399-27.215-137.58-27.97-27.971-83.154-27.971-110.37-27.971-137.58 0-192.77 27.971-192.77 137.58l-275.17-27.215c27.97-219.98 247.95-302.38 495.15-302.38 83.154 0 220.74 27.214 303.14 82.398 82.398 82.399 82.398 192.77 82.398 302.38v467.94c0 55.184 0 109.61 27.215 137.58z"/><path d="m12271 12106h-219.98l-330.35-963.08h303.14l164.8 605.52 192.77-605.52h247.2z"/><path d="m12876 11583c0 110.37 0 357.56 192.77 357.56 164.8 0 164.8-192.01 164.8-329.6 0-55.184 0-165.55-27.214-219.98-27.97-55.184-83.155-83.155-137.58-83.155-137.58 0-192.77 165.55-192.77 275.17zm659.95 27.97c0 302.38-192.01 522.36-467.18 522.36-330.35 0-467.94-219.98-467.94-522.36 0-275.17 137.58-495.15 467.94-495.15 302.38 0 467.18 219.98 467.18 495.15z"/><path d="m13894 12106h-303.14v-963.08h303.14zm0-1045.5h-303.14v-275.17h303.14z"/><path d="m14610 11500c0-109.61-55.185-192.77-165.55-192.77-109.61 0-164.8 83.155-164.8 192.77zm-330.35 165.55v54.428c0 110.37 55.184 219.98 164.8 219.98 83.155 0 165.55-54.428 165.55-164.8h302.38c0 55.184-109.61 357.56-467.94 357.56-274.41 0-467.18-192.77-467.18-495.15s164.8-522.36 467.18-522.36c110.37 0 247.95 54.428 358.32 164.8 82.398 110.37 109.61 247.95 109.61 385.54z"/></g></svg>
