<svg version="1.1" viewBox="0 0 838.08 282.45" xml:space="preserve" xmlns="http://www.w3.org/2000/svg"><g transform="matrix(1.3333 0 0 -1.3333 -212.38 489.05)"><g transform="scale(.1)"><path d="m2383.3 2302.8c0-218.27-176.95-395.22-395.22-395.22s-395.22 176.95-395.22 395.22 176.95 395.22 395.22 395.22 395.22-176.95 395.22-395.22" fill="#4679c6"/><path d="m3589.1 2963.7 378.91 465.45v238.69h-1268v-358.04h682.4l-375.09-443.8v-257.34c77.58 38.79 167.08 59.67 250.61 59.67 232.72 0 411.75-164.09 411.75-381.9 0-223.76-193.94-378.91-390.86-378.91-158.12 0-301.34 86.51-387.86 208.85l-289.41-241.67c184.98-208.87 432.62-325.21 692.2-325.21 432.62 0 778.72 295.37 778.72 736.94 0 316.26-196.93 566.88-483.35 677.27" fill="#fff"/><path d="m4555.7 2471.3h-91.41v499.22h91.41v-499.22" fill="#fff"/><path d="m4896.7 2692.8c-18.98 25.32-49.22 42.19-84.37 42.19-53.44 0-87.89-44.3-87.89-93.52 0-53.43 38.67-92.81 90-92.81 34.45 0 64.69 16.88 82.26 42.19zm91.41-221.48h-87.89v27.42c-28.13-23.91-60.47-34.45-94.92-34.45-50.63 0-98.44 22.5-128.67 57.65-26.72 30.94-43.6 73.13-43.6 119.53 0 100.55 74.53 177.9 167.35 177.9 38.67 0 73.12-12.66 99.84-34.46v27.42h87.89v-341.01" fill="#fff"/><path d="m5079.5 2471.3v341.01h87.89v-27.42c26.01 21.1 58.36 34.46 96.33 34.46 47.11 0 90-21.1 118.12-54.85 22.5-26.72 35.16-61.17 35.16-119.53v-173.67h-91.41v180.7c0 33.75-7.73 51.33-20.39 63.99-11.95 11.95-30.23 18.98-51.33 18.98-38.67 0-70.31-24.61-82.97-42.19v-221.48h-91.4" fill="#fff"/><path d="m5751 2692.8c-18.98 25.32-49.22 42.19-84.37 42.19-53.44 0-87.89-44.3-87.89-93.52 0-53.43 38.67-92.81 90-92.81 34.45 0 64.68 16.88 82.26 42.19zm91.41-202.5c0-61.17-10.55-97.73-30.94-126.56-30.94-42.89-85.78-68.2-151.17-68.2-66.8 0-130.08 30.93-163.83 70.31l57.66 59.77c18.28-19.69 49.92-49.22 106.17-49.22 29.53 0 54.14 9.14 69.61 27.42 14.06 15.47 21.09 36.56 21.09 80.15v11.25c-27.42-21.09-56.95-30.93-91.4-30.93-50.63 0-99.14 22.5-129.38 57.65-26.72 30.94-42.89 73.13-42.89 119.53 0 100.55 74.53 177.9 167.34 177.9 38.68 0 73.13-12.66 99.85-34.46v27.42h87.89v-322.03" fill="#fff"/><path d="m6257.2 2812.3v-341.01h-87.89v27.42c-26.72-23.91-59.06-34.45-92.11-34.45-47.11 0-89.29 21.79-116.01 54.84-21.8 26.72-34.46 61.88-34.46 112.5v180.7h91.41v-184.21c0-30.94 6.33-46.41 16.88-58.36 14.06-15.47 33.75-21.1 51.32-21.1 38.68 0 66.8 26.02 79.46 42.19v221.48h91.4" fill="#fff"/><path d="m6567.9 2685.8c-2.82 30.24-30.24 59.77-67.5 59.77-37.97 0-68.91-28.83-73.13-59.77zm85.07-160.31c-33.04-39.38-87.18-61.17-139.92-61.17-101.95 0-178.59 70.31-178.59 177.18 0 94.93 64.69 177.9 165.94 177.9 94.21 0 161.01-79.46 161.01-174.38 0-9.14-0.7-18.28-2.11-26.02h-236.25c4.92-47.81 43.6-80.85 92.11-80.85 38.67 0 69.61 21.79 85.78 39.37l52.03-52.03" fill="#fff"/><path d="m6974.3 2692.8c-18.98 25.32-49.22 42.19-84.37 42.19-53.44 0-87.89-44.3-87.89-93.52 0-53.43 38.67-92.81 90-92.81 34.45 0 64.68 16.88 82.26 42.19zm3.52-221.48v27.42c-28.13-23.91-60.47-34.45-94.92-34.45-50.63 0-98.44 22.5-128.68 57.65-26.71 30.94-43.59 73.13-43.59 119.53 0 100.55 74.53 177.9 167.34 177.9 37.27 0 69.61-10.55 96.33-31.65v182.82h91.41v-499.22h-87.89" fill="#fff"/><path d="m7310.3 2548.6c53.43 0 90 41.49 90 92.81 0 51.33-36.57 93.52-90 93.52-53.44 0-90-42.19-90-93.52 0-51.32 36.56-92.81 90-92.81zm0 270.71c103.36 0 181.4-79.46 181.4-177.9 0-98.43-78.04-177.18-181.4-177.18s-181.41 78.75-181.41 177.18c0 98.44 78.05 177.9 181.41 177.9" fill="#fff"/><path d="m7878.4 2540.9c-40.08-53.44-90.7-76.64-154.68-76.64-105.47 0-182.82 78.75-182.82 177.18 0 99.15 79.46 177.9 183.52 177.9 59.06 0 111.8-27.43 143.44-68.21l-64.69-56.95c-18.28 23.91-45.7 40.78-78.75 40.78-52.74 0-92.11-41.48-92.11-93.52 0-53.43 38.67-92.81 94.22-92.81 37.26 0 66.79 22.5 81.56 45l70.31-52.73" fill="#fff"/><path d="m4671.7 1961c-6.32 2.11-19.68 3.51-33.04 3.51-40.08 0-71.72-28.83-82.97-49.22v-214.45h-91.41v341.02h87.89v-34.46c20.39 25.32 57.66 41.49 99.14 41.49 13.36 0 21.1-1.41 30.94-2.81l-10.55-85.08" fill="#fff"/><path d="m4884.8 1778.1c53.44 0 90 41.49 90 92.82s-36.56 93.51-90 93.51-90-42.18-90-93.51 36.56-92.82 90-92.82zm0 270.71c103.36 0 181.41-79.46 181.41-177.89 0-98.44-78.05-177.19-181.41-177.19s-181.41 78.75-181.41 177.19c0 98.43 78.05 177.89 181.41 177.89" fill="#fff"/><path d="m5459.9 2041.8v-341.02h-87.89v27.42c-26.72-23.9-59.07-34.45-92.11-34.45-47.11 0-89.3 21.8-116.02 54.84-21.79 26.72-34.45 61.88-34.45 112.5v180.71h91.41v-184.22c0-30.94 6.32-46.41 16.87-58.36 14.06-15.47 33.75-21.1 51.33-21.1 38.67 0 66.8 26.02 79.45 42.19v221.49h91.41" fill="#fff"/><path d="m5575.8 1804.8c23.21-21.09 59.07-33.75 93.52-33.75 24.61 0 43.59 11.96 43.59 28.83 0 51.33-165.23 33.05-165.23 142.74 0 65.39 63.28 106.17 130.78 106.17 44.3 0 92.81-16.88 115.31-34.46l-42.89-66.09c-17.58 12.66-40.78 23.2-65.39 23.2-25.31 0-46.4-9.84-46.4-27.42 0-44.29 165.23-26.72 165.23-144.84 0-65.39-63.98-105.47-135.7-105.47-47.11 0-97.03 16.17-137.11 45.7l44.29 65.39" fill="#fff"/><path d="m5899.3 1804.8c23.21-21.09 59.07-33.75 93.52-33.75 24.61 0 43.59 11.96 43.59 28.83 0 51.33-165.23 33.05-165.23 142.74 0 65.39 63.28 106.17 130.78 106.17 44.3 0 92.81-16.88 115.31-34.46l-42.89-66.09c-17.58 12.66-40.78 23.2-65.39 23.2-25.31 0-46.41-9.84-46.41-27.42 0-44.29 165.24-26.72 165.24-144.84 0-65.39-63.99-105.47-135.7-105.47-47.11 0-97.04 16.17-137.11 45.7l44.29 65.39" fill="#fff"/><path d="m6303.5 1700.8h-91.41v341.02h91.41zm-45.7 520.31c33.04 0 59.76-25.31 59.76-58.36 0-33.04-26.72-58.36-59.76-58.36-33.05 0-59.77 25.32-59.77 58.36 0 33.05 26.72 58.36 59.77 58.36" fill="#fff"/><path d="m6500.4 1700.8h-91.41v499.22h91.41v-499.22" fill="#fff"/><path d="m6697.3 1700.8h-91.41v499.22h91.41v-499.22" fill="#fff"/><path d="m6956 1778.1c53.44 0 90 41.49 90 92.82s-36.56 93.51-90 93.51-90-42.18-90-93.51 36.56-92.82 90-92.82zm0 270.71c103.36 0 181.41-79.46 181.41-177.89 0-98.44-78.05-177.19-181.41-177.19s-181.41 78.75-181.41 177.19c0 98.43 78.05 177.89 181.41 177.89" fill="#fff"/><path d="m7214.7 1700.8v341.02h87.89v-27.43c26.02 21.1 58.36 34.46 96.33 34.46 47.11 0 90-21.1 118.13-54.85 22.5-26.71 35.15-61.17 35.15-119.53v-173.67h-91.4v180.7c0 33.75-7.74 51.33-20.4 63.99-11.95 11.95-30.23 18.98-51.32 18.98-38.68 0-70.32-24.61-82.97-42.18v-221.49h-91.41" fill="#fff"/></g></g></svg>
