<svg viewBox="0 0 861.05 282.45" xmlns="http://www.w3.org/2000/svg">
    <path d="M105.385 182.018c0 29.102-23.592 52.694-52.694 52.694S-.004 211.12-.004 182.018s23.593-52.695 52.695-52.695 52.694 23.593 52.694 52.695" fill="#4679c6"/>
    <path d="M266.155 93.9l50.52-62.059V.017H147.612v47.737h90.983l-50.01 59.172v34.311c10.343-5.172 22.276-7.955 33.415-7.955 31.027 0 54.897 21.878 54.897 50.918 0 29.834-25.858 50.52-52.113 50.52-21.082 0-40.178-11.534-51.714-27.846l-38.587 32.222c24.664 27.849 57.682 43.36 92.291 43.36 57.682 0 103.827-39.381 103.827-98.256 0-42.167-26.257-75.582-64.445-90.3M382.845 214.75v-45.468h11.718v3.656c3.47-2.812 7.782-4.593 12.844-4.593 6.281 0 12 2.812 15.75 7.312 3 3.562 4.687 8.155 4.687 15.936v23.157h-12.186v-24.094c0-4.5-1.032-6.844-2.719-8.53-1.595-1.595-4.032-2.532-6.844-2.532-5.156 0-9.376 3.281-11.062 5.625v29.531h-12.188M461.403 204.444c7.125 0 12-5.53 12-12.375s-4.875-12.469-12-12.469-12 5.626-12 12.47 4.875 12.374 12 12.374zm0-36.093c13.781 0 24.188 10.593 24.188 23.718s-10.407 23.625-24.188 23.625-24.186-10.5-24.186-23.625 10.405-23.718 24.186-23.718M523.548 180.058c-.842-.282-2.624-.47-4.405-.47-5.344 0-9.562 3.844-11.062 6.563v28.594h-12.188v-45.468h11.718v4.593c2.719-3.375 7.688-5.53 13.219-5.53 1.781 0 2.813.186 4.125.374l-1.407 11.344M532.455 214.75v-45.468h11.718v3.656c3.563-3.187 7.875-4.593 12.281-4.593 6.188 0 11.718 2.812 15.281 7.125 3.656-3.844 9.374-7.125 16.125-7.125 6.281 0 12.281 2.812 15.937 7.312 2.907 3.562 4.593 8.25 4.593 15v24.093h-12.186v-24.562c0-4.125-.844-6.188-2.25-7.781-1.875-2.063-4.5-2.813-6.845-2.813-5.249 0-9.374 3.657-10.967 6 .186 1.5.374 3.188.374 5.062v24.094H564.33v-24.562c0-4.125-.843-6.188-2.25-7.781-1.874-2.063-4.5-2.813-6.844-2.813-5.155 0-8.906 3.469-10.593 5.625v29.531h-12.187M652.918 185.218c-2.532-3.375-6.562-5.626-11.25-5.626-7.124 0-11.718 5.907-11.718 12.47 0 7.125 5.155 12.374 12 12.374 4.594 0 8.624-2.25 10.968-5.625zm12.187 29.53h-11.719v-3.656c-3.749 3.188-8.06 4.594-12.655 4.594-6.75 0-13.125-3-17.156-7.688-3.562-4.125-5.812-9.749-5.812-15.937 0-13.406 9.937-23.718 22.312-23.718 5.156 0 9.75 1.687 13.311 4.594v-3.656h11.719v45.468M679.158 214.75v-45.468h11.72v3.656c3.467-2.812 7.78-4.593 12.842-4.593 6.28 0 12 2.812 15.75 7.312 3 3.562 4.688 8.155 4.688 15.936v23.157H711.97v-24.094c0-4.5-1.032-6.844-2.718-8.53-1.594-1.595-4.032-2.532-6.844-2.532-5.156 0-9.375 3.281-11.063 5.625v29.531h-12.187M768.689 185.218c-2.53-3.375-6.563-5.626-11.25-5.626-7.124 0-11.719 5.907-11.719 12.47 0 7.125 5.157 12.374 12 12.374 4.594 0 8.625-2.25 10.969-5.625zm.47 29.53v-3.656c-3.751 3.188-8.063 4.594-12.658 4.594-6.75 0-13.124-3-17.155-7.688-3.563-4.125-5.812-9.749-5.812-15.937 0-13.406 9.937-23.718 22.311-23.718 4.97 0 9.281 1.407 12.844 4.219v-24.374h12.188v66.56h-11.719M807.115 214.75h-12.187v-45.468h12.187zm-6.094-69.374c4.407 0 7.968 3.376 7.968 7.781 0 4.407-3.561 7.781-7.968 7.781s-7.969-3.374-7.969-7.78c0-4.406 3.563-7.782 7.97-7.782M848.553 186.15c-.374-4.03-4.03-7.967-9-7.967-5.06 0-9.186 3.843-9.748 7.968zm11.344 21.375c-4.405 5.25-11.625 8.157-18.655 8.157-13.593 0-23.812-9.376-23.812-23.625 0-12.655 8.624-23.718 22.124-23.718 12.562 0 21.468 10.593 21.468 23.25 0 1.218-.093 2.436-.28 3.468h-31.5c.656 6.375 5.812 10.781 12.281 10.781 5.156 0 9.281-2.906 11.437-5.25l6.937 6.937" fill="#fff"/>
</svg>
