<svg version="1.1" viewBox="0 0 785.96 282.45" xml:space="preserve" xmlns="http://www.w3.org/2000/svg"><g transform="matrix(1.3333 0 0 -1.3333 -211.31 489.05)"><g transform="scale(.1)"><path d="m2375.3 2302.8c0-218.27-176.95-395.22-395.22-395.22-218.28 0-395.22 176.95-395.22 395.22s176.94 395.22 395.22 395.22c218.27 0 395.22-176.95 395.22-395.22" fill="#4679c6"/><path d="m3581.1 2963.7 378.91 465.45v238.69h-1268v-358.04h682.39l-375.08-443.8v-257.34c77.58 38.79 167.08 59.67 250.61 59.67 232.72 0 411.75-164.09 411.75-381.9 0-223.76-193.94-378.91-390.86-378.91-158.12 0-301.34 86.51-387.86 208.85l-289.41-241.67c184.98-208.87 432.61-325.21 692.2-325.21 432.61 0 778.71 295.37 778.71 736.94 0 316.26-196.92 566.88-483.34 677.27" fill="#21201f"/><path d="m4547.7 2176.8c17.57-25.32 47.81-42.19 82.26-42.19 51.33 0 90 39.37 90 92.81 0 49.22-34.45 93.52-87.89 93.52-35.16 0-65.39-16.88-84.37-42.19zm-91.41-119.54v499.22h91.41v-182.81c26.71 21.09 59.06 31.64 96.32 31.64 92.82 0 167.35-77.34 167.35-177.89 0-46.41-16.88-88.59-43.6-119.53-30.23-35.16-78.04-57.66-128.67-57.66-34.45 0-66.8 10.55-94.92 34.46v-27.43h-87.89" fill="#21201f"/><path d="m5096.1 2317.5c-6.32 2.11-19.68 3.52-33.04 3.52-40.08 0-71.72-28.83-82.97-49.22v-214.46h-91.41v341.02h87.89v-34.45c20.39 25.31 57.66 41.48 99.14 41.48 13.36 0 21.1-1.4 30.94-2.81l-10.55-85.08" fill="#21201f"/><path d="m5382.2 2271.8c-2.82 30.23-30.24 59.76-67.5 59.76-37.97 0-68.91-28.82-73.13-59.76zm85.07-160.31c-33.04-39.38-87.18-61.18-139.92-61.18-101.95 0-178.59 70.32-178.59 177.19 0 94.92 64.69 177.89 165.94 177.89 94.21 0 161.01-79.45 161.01-174.37 0-9.14-0.7-18.28-2.11-26.02h-236.25c4.92-47.81 43.6-80.86 92.11-80.86 38.67 0 69.61 21.8 85.78 39.38l52.03-52.03" fill="#21201f"/><path d="m5809.7 2057.3c-11.96-4.21-39.38-7.03-56.96-7.03-54.84 0-94.92 18.28-118.12 49.22-17.58 23.21-25.31 53.44-25.31 101.96v119.53h-94.93v77.34h94.93v94.92h91.4v-94.92h112.5v-77.34h-112.5v-130.08c0-21.1 3.52-33.75 11.25-42.89 9.14-10.55 23.91-16.88 46.41-16.88 13.36 0 30.94 2.11 37.26 3.52l14.07-77.35" fill="#21201f"/><path d="m6115.6 2278.8c-18.99 25.31-49.22 42.19-84.38 42.19-53.44 0-87.89-44.3-87.89-93.52 0-53.44 38.67-92.81 90-92.81 34.45 0 64.69 16.87 82.27 42.19zm91.4-221.49h-87.89v27.43c-28.12-23.91-60.47-34.46-94.92-34.46-50.62 0-98.44 22.5-128.67 57.66-26.72 30.94-43.6 73.12-43.6 119.53 0 100.55 74.54 177.89 167.35 177.89 38.67 0 73.12-12.65 99.84-34.45v27.42h87.89v-341.02" fill="#21201f"/><path d="m6547.9 2278.8c-18.99 25.31-49.22 42.19-84.38 42.19-53.43 0-87.89-44.3-87.89-93.52 0-53.44 38.68-92.81 90-92.81 34.46 0 64.69 16.87 82.27 42.19zm91.41-202.5c0-61.17-10.55-97.74-30.94-126.56-30.94-42.89-85.78-68.21-151.17-68.21-66.8 0-130.08 30.94-163.83 70.32l57.65 59.76c18.29-19.69 49.93-49.22 106.18-49.22 29.53 0 54.14 9.14 69.61 27.42 14.06 15.47 21.09 36.57 21.09 80.16v11.25c-27.42-21.09-56.95-30.94-91.41-30.94-50.62 0-99.14 22.5-129.37 57.66-26.72 30.94-42.89 73.12-42.89 119.53 0 100.55 74.53 177.89 167.34 177.89 38.67 0 73.13-12.65 99.84-34.45v27.42h87.9v-322.03" fill="#21201f"/><path d="m6744.8 2057.3v341.02h87.89v-27.42c26.01 21.09 58.36 34.45 96.32 34.45 47.11 0 90-21.09 118.13-54.84 22.5-26.72 35.16-61.17 35.16-119.53v-173.68h-91.41v180.71c0 33.75-7.74 51.33-20.39 63.98-11.95 11.96-30.24 18.99-51.33 18.99-38.67 0-70.31-24.61-82.97-42.19v-221.49h-91.4" fill="#21201f"/><path d="m7386 2271.8c-2.82 30.23-30.24 59.76-67.5 59.76-37.97 0-68.91-28.82-73.13-59.76zm85.07-160.31c-33.04-39.38-87.18-61.18-139.92-61.18-101.95 0-178.59 70.32-178.59 177.19 0 94.92 64.69 177.89 165.94 177.89 94.21 0 161.01-79.45 161.01-174.37 0-9.14-0.7-18.28-2.11-26.02h-236.25c4.92-47.81 43.6-80.86 92.11-80.86 38.67 0 69.61 21.8 85.78 39.38l52.03-52.03" fill="#21201f"/></g></g></svg>
