<svg version="1.1" viewBox="0 0 800 800" xml:space="preserve" xmlns="http://www.w3.org/2000/svg"><path d="m800 800h-800v-800h800z" fill="#0077d7" Googl="true"/><path d="m665.11 215.08a43.657 43.657 0 0 1-14.592 2.4917c-23.034 0-41.707-17.717-41.707-39.573 0-6.0928 1.4528-11.866 4.0491-17.022h-51.198a82.057 82.057 0 0 0-1.7813 17.024c0 47.492 40.578 85.995 90.637 85.995 4.9685 0 9.8411-0.384 14.592-1.1157zm-14.592-76.651c23.036 0 41.709 17.715 41.709 39.571 0 6.7115-1.7643 13.033-4.8725 18.569h51.676c1.3867-5.9819 2.1269-12.192 2.1269-18.569 0-36.629-24.137-67.904-58.142-80.297v-38.861h-44.877v81.357c3.9125-1.152 8.0704-1.7707 12.38-1.7707" fill="#bfddf5"/><path d="m447.75 384.29v-47.172h-8.7424v-12.422h8.7424v-5.1776c0-12.309 6.0949-20.363 18.98-20.363 2.6453 0 6.0971 0.2304 7.5904 0.69333v12.998c-0.91733-0.1152-2.1803-0.2304-3.4496-0.2304-4.8299 0-6.6688 1.7259-6.6688 8.1707v3.9083h10.351v12.422h-10.351v47.172h-16.452m101.56-25.54c0 7.8251-1.2651 15.187-11.733 15.187-5.9819 0-8.6272-3.6843-8.6272-7.9382 0-5.7515 3.68-8.8597 13.69-8.8597h6.6709zm16.107 10.127v-24.969c0-14.266-8.7445-20.476-24.619-20.593-16.348 0-23.296 6.8864-25.114 15.974l15.221 3.1253c0.68907-4.3733 2.2997-7.249 9.2011-7.249 7.7099 0 9.2032 4.1387 9.2032 8.3968v3.5669h-8.512c-17.487 0-28.303 6.3253-28.303 19.904 0 9.2053 5.9819 18.637 20.363 18.637 10.588 0 14.613-3.9083 16.798-7.2448 0 1.4933 0.3456 4.7147 0.8064 5.8667h15.761c-0.3456-1.3867-0.80425-9.664-0.80425-15.415m159.17-20.943c-0.11728-6.8992-2.8779-12.768-10.929-12.768-7.8251 0-11.046 5.4058-11.738 12.768zm-23.012 10.129c0 7.4752 3.7995 14.724 11.966 14.724 6.9034 0 8.8597-2.7605 10.47-6.3275h16.452c-2.0736 7.2491-8.6272 19.213-27.268 19.213-19.671 0-28.186-14.611-28.186-30.259 0-18.752 9.5488-32.096 28.762-32.096 20.365 0 27.383 14.842 27.383 29.683 0 2.0693 0 3.3365-0.23253 5.0624h-39.347m-17.926 7.0187c-1.9563 9.8923-8.9728 20.591-26.688 20.591-18.526 0-28.075-12.772-28.075-30.716 0-17.604 10.701-31.639 28.879-31.639 20.015 0 25.653 14.496 25.884 21.169h-15.989c-1.0368-4.8341-3.7973-8.1707-10.24-8.1707-7.5947 0-11.851 6.56-11.851 18.065 0 12.768 4.6016 18.519 11.733 18.519 5.7536 0 8.7467-3.3365 10.24-7.8208h16.107m-111.59-25.31c0-5.0645 0-10.583-0.1152-15.072h15.989c0.3456 1.6107 0.576 5.7514 0.6912 7.5947 1.9563-3.6821 6.7904-8.9749 17.259-8.9749 11.968 0 19.674 8.1707 19.674 23.125v37.847h-16.452v-36.006c0-6.7904-2.1845-11.625-9.5509-11.625-7.0186 0-10.929 3.9125-10.929 14.498v33.133h-16.567v-44.523m-93.071 1.1499c0-5.9818 0-11.162-0.11728-16.222h16.222c0.23254 1.3803 0.46294 7.2491 0.46294 10.47 2.6453-6.7904 8.9728-11.733 19.095-11.851v15.763c-11.964-0.34773-19.093 2.8736-19.093 19.213v25.999h-16.57v-43.373m261.78 224.26c0 19.347 0 41.071 0.39465 59.236h-55.296c-0.78507-5.5253-1.1819-16.587-1.5765-23.691-12.243 20.535-30.016 28.429-56.476 28.429-41.468 0-67.93-25.274-67.93-75.825v-133.49h56.476v122.04c0 22.513 7.1083 41.077 31.595 41.077 25.67 0 36.335-13.824 36.335-54.106v-109h56.478v145.34m-254.56-65.559c-0.39466-23.701-9.8709-43.84-37.519-43.84-26.857 0-37.914 18.564-40.282 43.84zm-78.987 34.752c0 25.666 13.035 50.551 41.073 50.551 23.697 0 30.411-9.4763 35.94-21.717h56.474c-7.1083 24.873-29.619 65.946-93.6 65.946-67.531 0-96.755-50.159-96.755-103.87 0-64.373 32.779-110.19 98.731-110.19 69.903 0 93.995 50.95 93.995 101.89 0 7.1104 0 11.452-0.78933 17.378h-135.07m-73.677-198.26v288.3h-58.844v-288.3h58.844m-176.36 124.4c-32.384 0-43.834 20.932-43.834 62.795 0 34.364 10.266 60.826 43.046 60.826 28.828 0 44.23-25.668 44.23-64.38 0-34.359-13.035-59.241-43.443-59.241zm-97.941-124.4h56.873v105.45c8.2901-13.035 25.274-26.466 58.447-26.466 55.684 0 83.328 46.212 83.328 103.48 0 58.447-30.014 110.58-88.855 110.58-30.411 0-43.84-9.0816-53.713-24.087 0 6.72-1.1861 14.221-2.368 19.349h-54.108c0.3968-22.114 0.3968-44.625 0.3968-66.739v-221.56m665.35 363.97c-0.11728-6.9056-2.8736-12.783-10.927-12.783-7.8272 0-11.046 5.4144-11.742 12.781zm-23.014 10.118c0 7.4816 3.7973 14.726 11.97 14.726 6.9013 0 8.8597-2.752 10.464-6.3296h16.463c-2.08 7.2534-8.6336 19.219-27.27 19.219-19.682 0-28.198-14.611-28.198-30.266 0-18.752 9.5509-32.096 28.768-32.096 20.371 0 27.388 14.839 27.388 29.687 0 2.0672 0 3.3365-0.224 5.056h-39.36m-54.434 8.2923c1.2587 4.832 5.1776 7.4709 11.27 7.4709 6.1035 0 8.2901-2.1867 8.2901-5.8667 0-3.7888-2.528-5.2907-11.046-7.3664-19.443-4.8235-22.556-10.81-22.556-19.206 0-8.7531 6.0971-18.067 24.053-18.067 18.065 0 24.277 9.8944 24.74 17.95h-15.652c-0.57386-2.1867-2.0672-6.3317-9.7771-6.3317-5.4144 0-7.2555 2.4235-7.2555 5.0624 0 2.9909 1.8411 4.3712 11.509 6.6709 19.904 4.6101 22.78 11.392 22.78 20.145 0 9.8944-7.5904 18.865-25.653 18.865-18.187 0-25.551-8.7424-26.929-19.328h16.226m-20.988 0.6912c0 5.6405 0 11.962 0.11728 17.257h-16.107c-0.22613-1.6149-0.34348-4.8341-0.46081-6.8992-3.5627 5.9755-8.7424 8.2795-16.452 8.2795-12.079 0-19.789-7.3664-19.789-22.095v-38.891h16.452v35.554c0 6.5664 2.0672 11.974 9.2053 11.974 7.4816 0 10.583-4.0277 10.583-15.765v-31.763h16.448v42.349m-77.476 17.257v-84h16.57v84h-16.57m-4.8597-19.217c-1.9605 9.8965-8.9771 20.597-26.69 20.597-18.53 0-28.079-12.768-28.079-30.716 0-17.604 10.701-31.646 28.877-31.646 20.023 0 25.664 14.494 25.892 21.169h-16c-1.0325-4.8384-3.7909-8.1728-10.24-8.1728-7.5883 0-11.853 6.5578-11.853 18.067 0 12.779 4.608 18.53 11.748 18.53 5.7472 0 8.7424-3.3408 10.236-7.8293h16.107m-60.318 1.9605c0 5.6405 0 11.962 0.10672 17.257h-16.105c-0.22615-1.6149-0.34347-4.8341-0.4608-6.8992-3.5691 5.9755-8.7467 8.2795-16.454 8.2795-12.081 0-19.789-7.3664-19.789-22.095v-38.891h16.452v35.554c0 6.5664 2.0693 11.974 9.2053 11.974 7.4837 0 10.586-4.0277 10.586-15.765v-31.763h16.459v42.349m-76.691-9.8944h-6.6731c-10.012 0-13.696 3.0997-13.696 8.8597 0 4.2539 2.6496 7.936 8.6251 7.936 10.475 0 11.744-7.3664 11.744-15.191zm16.107 11.733c0 5.7515 0.45653 14.037 0.79786 15.418h-15.759c-0.45441-1.1477-0.80001-4.3733-0.80001-5.8667-2.1845 3.3365-6.2101 7.2469-16.804 7.2469-14.383 0-20.358-9.4315-20.358-18.637 0-13.579 10.807-19.906 28.303-19.906h8.5141v-3.5669c0-4.2624-1.4933-8.4075-9.2053-8.4075-6.9099 0-8.512 2.8864-9.2032 7.2533h-15.652c0.8064-10.59 7.36-19.098 25.547-19.098 15.87 0.11088 24.623 6.3232 24.623 20.599v24.964m-90.394-44.188c5.6427 20.254 10.359 37.856 11.511 44.994h0.11728c1.7216-9.7835 7.4795-27.731 12.651-44.992h16.461l-21.06 59.603h-17.259l-20.252-59.605h17.83" fill="#fff"/></svg>
