<svg stroke-linejoin="round" xmlns="http://www.w3.org/2000/svg" fill-rule="evenodd" xml:space="preserve" height="600" viewBox="0 0 15875 15875" width="600" version="1.2" stroke-width="28.222" preserveAspectRatio="xMidYMid"><g transform="translate(-2562.5 -2562.5)"><g class="Master_Slide"/></g><path fill="#fff" d="m15875 0h-13458v2416.8h-2417v13458h13430v-2445h2445z"/><path d="m411.99 2828.8h12634v12634h-12634z" fill="#231f20"/><path fill="#fff" d="m2280 12222 576.79-27.97v851.96h466.42c302.38 0 576.79 82.399 604.76 439.21 27.214 274.41-164.8 467.18-302.38 494.39h-384.78c82.399 0 329.6-164.8 275.17-356.81-55.184-192.77-219.98-192.77-384.78-219.98-137.58 0-851.2-27.214-851.2-27.214z"/><path fill="#fff" d="m1497.5 13238c-82.399 109.61-192.01 329.6-136.83 549.58 164.8 576.79 1125.6 823.99 1510.4 851.2l-27.214-686.4s-659.19 82.399-961.57-247.2c-137.58-137.58-109.61-329.6 0-439.96-137.58-27.214-274.41-27.214-384.78-27.214z"/><path d="m2828.8 411.99h12634v12634h-12634z" fill="#127bca"/><g fill="#fff"><g stroke-linejoin="round" fill-rule="evenodd" transform="matrix(1.0024 0 0 1.0024 21048 -1698.7)" stroke-width="27.991"><path d="m-16529 10536c0 194.29 8.306 413.14 119.31 585.84 98.173 151.85 243.92 244.91 436.49 244.91 581.46 0 581.46-733.22 581.46-1117.3 0-391.55 0-1124.8-568.63-1124.8-500.67 0-568.64 530.75-568.64 905.94zm-1043.7-3274.6h1030.8v1677.9h25.674c175.2-346.15 469.71-514.37 872.21-514.37 1017.2 0 1329.8 998.97 1329.8 1824.5 0 923.05-376.82 1829.7-1449.9 1829.7-512.76 0-756.68-189.82-1017.2-611.16-128.37 151.85-166.9 353.59-231.08 538.95h-560.42z"/><path d="m-14110 7261.6h1034.6v4745.9h-1034.6z"/><path d="m-10470 9824.3c-21.899-379.65-150.29-733.98-603.38-733.98-453.1 0-628.29 333.49-666.81 733.98zm-1261.9 598.5-8.308 172.7c0 416.86 239.39 754.07 688.72 754.07 320.18 0 636.6-227.78 636.6-551.6l953.77 66.995c0 172.7-414.58 1214.2-1625.1 1214.2-1064.8 0-1761.1-733.23-1761.1-1779.1 0-1036.3 623.77-1879.6 1731.6-1879.6 504.46 0 1017.2 227.78 1312.4 628.28 295.27 400.48 371.55 897.75 363.23 1374.2z"/><path d="m-7126.9 12007v-606.69h-12.838c-166.88 442.92-534.65 678.9-1021.8 678.9-359.45 0-666.81-80.393-867.68-400.48-197.1-303.72-175.95-636.46-175.95-973.68v-2213.1h1030.8v2213.1c0 282.13 25.677 552.34 393.44 552.34 234.85 0 431.95-131.02 521.81-337.22 67.967-160.05 55.13-362.52 55.13-539.68v-1888.2h1030.8v3515.1z"/><path d="m-12245 7918.9h-359.45v-926.78h-144.99v-278.41h144.99c0-109.42-3.778-235.98 55.88-328.28 77.029-113.89 218.24-164.51 350.39-164.51 30.206 0 136.69 3.7222 213.7 16.377v273.94c-55.125-3.7222-80.799-3.7222-136.68-3.7222-123.85 0-123.85 71.462-123.85 177.17v29.032h226.56v278.4h-226.56z"/><path d="m-11540 6680.9v231.5h4.53c38.516-130.27 111.01-269.46 273.36-256.81l59.657 4.4683v358.05c-277.9-12.656-311.88 206.2-311.88 425.79v476.37h-363.3v-1239.5z"/><path d="m-10382 7329.3c-136.68 12.656-388.91 46.155-388.91 223.33 0 101.24 55.883 164.51 158.59 164.51 72.498 0 141.22-37.964 183.51-101.24 51.353-80.395 46.819-151.85 46.819-240.44zm34.739 589.56c-12.836-62.531-17.369-130.27-17.369-193.54-102.7 147.39-209.18 218.85-397.21 218.85-227.31 0-397.98-117.61-397.98-349.87 0-185.35 115.54-307.43 282.43-366.24 144.99-55.087 342.09-63.276 495.38-80.396v-29.031c0-50.621 4.532-113.89-29.452-160.05-33.981-42.43-94.396-59.551-149.52-59.551-115.54 0-218.24 59.551-218.24 177.17l-346.62-29.775c38.514-299.25 338.31-391.55 603.38-391.55 127.62 0 294.52 33.499 397.21 117.61 128.38 101.24 115.54 235.98 115.54 384.11v576.91c0 63.273 4.531 126.54 21.145 185.36z"/><path d="m-9830 6680.2h342.1v210.66h3.774c77.029-160.05 179.73-235.98 363.99-235.98 119.31 0 234.85 37.965 311.88 139.2 68.72 88.583 68.72 244.16 68.72 358.06v766.67h-363.99v-665.49c0-126.54 17.366-311.9-170.67-311.9-64.189 0-123.85 33.498-149.52 92.304-38.511 67.742-43.042 139.2-43.042 219.6v665.49h-363.23z"/><path d="m-7794 7152.2c0-109.43-59.656-218.85-188.03-218.85-200.87 0-226.55 193.55-226.55 349.12 0 151.85 3.779 366.99 209.19 366.99 128.37 0 192.56-101.24 205.4-215.13l346.62 21.587c-30.208 302.97-265.07 488.32-568.63 488.32-385.14 0-611.68-265.01-611.68-631.99 0-378.9 234.85-657.3 632.83-657.3 290.73 0 521.81 189.82 547.5 480.14z"/><path d="m-6537.5 7152.2c-9.06-134.74-55.877-256.82-209.94-256.82-166.88 0-226.54 113.15-239.39 256.82zm-449.32 210.66v58.808c0 148.13 81.559 265.75 243.91 265.75 111.01 0 222.02-80.394 222.02-193.54l337.56 25.309c0 58.808-144.99 425.06-572.41 425.06-376.06 0-620-256.81-620-623.81 0-366.25 218.24-665.49 610.92-665.49 175.95 0 354.93 84.116 457.64 223.33 107.22 142.92 132.91 316.36 128.37 484.6z"/></g><path d="m6454.3 10712h384.78v1729.6h-384.78z"/><path d="m7387.9 12441h-384.02v-1263.2h384.02zm0-1372.8h-384.02v-384.78h384.02z"/><path d="m7910.3 11151v192.01c54.429-136.83 192.01-219.23 356.81-219.23 192.01 0 302.38 82.399 356.81 219.23 82.399-136.83 219.98-219.23 357.57-219.23 136.83 0 247.2 54.429 329.6 136.83 82.399 110.37 54.429 247.2 54.429 357.56v823.23h-356.81v-686.4-219.23c-27.214-82.398-82.399-110.37-164.8-110.37-55.184 0-137.58 27.971-164.8 110.37-27.214 54.429-27.214 136.83-27.214 219.23v686.4h-384.78v-686.4c0-136.83 27.214-329.6-164.8-329.6s-164.8 192.77-164.8 329.6v686.4h-384.78v-1290.4z"/><path d="m9832.7 11783c0 136.83 0 439.21 219.98 439.21 192.01 0 219.23-247.2 219.23-384.78 0-109.61-27.214-247.2-54.429-356.81-27.97-82.399-82.398-109.61-164.8-109.61-192.77 0-219.98 219.23-219.98 411.99zm851.2 27.214c0 356.81-247.2 659.19-631.22 659.19-384.78 0-604.76-302.38-604.76-659.19 0-384.78 219.98-686.4 604.76-686.4 411.99 0 631.22 301.62 631.22 686.4z"/><path d="m11508 12441v-247.2c-54.429 192.77-192.01 275.17-356.81 275.17-137.58 0-247.2-27.971-302.38-137.58-82.399-137.58-82.399-274.41-82.399-384.78v-796.02h384.78v796.02c0 110.37 0 192.77 137.58 192.77 82.399 0 136.83-55.184 164.8-110.37 27.215-54.428 27.215-136.83 27.215-192.01v-686.4h384.78v1290.4z"/><path d="m12744 11536c-27.214-110.37-137.58-164.8-247.2-164.8-82.399 0-192.01 27.214-192.01 109.61 0 247.2 796.02-27.214 796.02 548.82 0 137.58-82.399 247.2-192.01 329.6-137.58 82.398-274.41 110.37-411.99 110.37-247.2 0-494.39-110.37-549.58-384.78l302.38-27.214c27.215 109.61 164.8 164.8 274.41 164.8 55.185 0 219.98-27.97 219.98-137.58 0-82.399-82.399-82.399-137.58-82.399-82.399-27.214-301.62-55.184-384.02-82.399-137.58-54.428-247.2-192.01-247.2-356.81 0-329.6 274.41-439.21 548.82-439.21 247.2 0 439.96 109.61 522.36 329.6z"/><path d="m13568 12441h-384.78v-1263.2h384.78zm0-1372.8h-384.78v-384.78h384.78z"/><path d="m14089 11151v219.98c82.399-164.8 192.77-247.2 384.78-247.2 137.58 0 247.2 54.429 302.38 136.83 82.399 110.37 82.399 275.17 82.399 384.78v796.02h-357.57v-713.62c0-109.61 0-302.38-192.01-302.38-82.399 0-137.58 27.971-164.8 82.399-27.214 82.399-27.214 164.8-27.214 219.98v713.62h-384.78v-1290.4z"/></g></svg>
