<svg viewBox="0 0 909.32 282.45" xmlns="http://www.w3.org/2000/svg">
    <path d="M105.385 182.018c0 29.102-23.592 52.694-52.694 52.694S-.004 211.12-.004 182.018s23.593-52.695 52.695-52.695 52.694 23.593 52.694 52.695" fill="#4679c6"/>
    <path d="M266.155 93.9l50.52-62.059V.016H147.612v47.738h90.985l-50.011 59.172v34.311c10.344-5.172 22.277-7.955 33.414-7.955 31.028 0 54.898 21.878 54.898 50.918 0 29.834-25.858 50.52-52.113 50.52-21.082 0-40.178-11.534-51.713-27.846l-38.587 32.222c24.663 27.849 57.68 43.36 92.29 43.36 57.682 0 103.827-39.381 103.827-98.256 0-42.167-26.256-75.582-64.445-90.3M410.498 180.058c-.843-.282-2.624-.47-4.405-.47-5.344 0-9.563 3.844-11.063 6.563v28.594h-12.188v-45.468h11.719v4.593c2.718-3.375 7.688-5.53 13.218-5.53 1.781 0 2.813.186 4.125.374l-1.406 11.344M431.59 214.75h-12.186v-66.56h12.187v24.373a20.127 20.127 0 0 1 12.374-4.218c6.281 0 12 2.812 15.75 7.312 3 3.562 4.688 8.155 4.688 15.936v23.157h-12.188v-24.094c0-4.5-1.03-6.844-2.718-8.53-1.594-1.595-4.032-2.532-6.844-2.532-5.156 0-9.374 3.281-11.062 5.625v29.531M497.962 204.444c7.124 0 12-5.53 12-12.375s-4.876-12.469-12-12.469c-7.125 0-12 5.626-12 12.47s4.875 12.374 12 12.374zm6.561-57.185l9.376 15h-8.437l-7.5-8.44-7.5 8.44h-8.438l9.376-15zm-6.56 21.092c13.779 0 24.185 10.593 24.185 23.718s-10.406 23.625-24.186 23.625-24.187-10.5-24.187-23.625 10.406-23.718 24.187-23.718M532.455 214.75v-45.468h11.718v3.656c3.468-2.812 7.781-4.593 12.842-4.593 6.282 0 12 2.812 15.75 7.312 3 3.562 4.689 8.155 4.689 15.936v23.157h-12.188v-24.094c0-4.5-1.03-6.844-2.719-8.53-1.593-1.595-4.032-2.532-6.844-2.532-5.155 0-9.374 3.281-11.062 5.625v29.531h-12.186M617.946 186.15c-.376-4.03-4.032-7.967-9-7.967-5.062 0-9.188 3.843-9.75 7.968zm11.342 21.375c-4.405 5.25-11.623 8.157-18.655 8.157-13.593 0-23.812-9.376-23.812-23.625 0-12.655 8.625-23.718 22.125-23.718 12.562 0 21.468 10.593 21.468 23.25 0 1.218-.094 2.436-.282 3.468h-31.499c.656 6.375 5.813 10.781 12.281 10.781 5.156 0 9.281-2.906 11.437-5.25l6.937 6.937M673.065 185.218v10.311h-30.937v-10.311h30.937M719.943 185.218c-2.53-3.375-6.562-5.626-11.249-5.626-7.125 0-11.718 5.907-11.718 12.47 0 7.125 5.156 12.374 12 12.374 4.593 0 8.625-2.25 10.967-5.625zm12.188 29.53h-11.718v-3.656c-3.75 3.188-8.063 4.594-12.656 4.594-6.75 0-13.125-3-17.156-7.688-3.562-4.125-5.813-9.749-5.813-15.937 0-13.406 9.937-23.718 22.313-23.718 5.156 0 9.75 1.687 13.312 4.594v-3.656h11.718v45.468M757.436 214.75h-12.188v-66.56h12.188v66.56M781.808 198.817c2.344 3.376 6.375 5.625 10.968 5.625 6.844 0 12-5.249 12-12.374 0-6.562-4.593-12.469-11.718-12.469-4.687 0-8.719 2.25-11.25 5.625zm-12.187-29.53h11.718v3.656c3.563-2.906 8.156-4.593 13.313-4.593 12.375 0 22.312 10.312 22.312 23.718 0 6.188-2.156 11.812-5.719 15.937-4.032 4.688-10.5 7.688-17.25 7.688-4.593 0-8.53-1.313-12.187-4.125v25.687h-12.187v-67.968M854.647 186.15c-.375-4.03-4.03-7.967-9-7.967-5.063 0-9.188 3.843-9.75 7.968zm11.343 21.375c-4.406 5.25-11.625 8.157-18.655 8.157-13.594 0-23.813-9.376-23.813-23.625 0-12.655 8.625-23.718 22.125-23.718 12.562 0 21.469 10.593 21.469 23.25 0 1.218-.095 2.436-.282 3.468h-31.499c.656 6.375 5.812 10.781 12.281 10.781 5.156 0 9.281-2.906 11.437-5.25l6.937 6.937M878.82 200.87c3.094 2.814 7.875 4.5 12.468 4.5 3.282 0 5.812-1.593 5.812-3.843 0-6.843-22.03-4.406-22.03-19.03 0-8.72 8.437-14.156 17.437-14.156 5.907 0 12.374 2.249 15.374 4.593l-5.718 8.813c-2.344-1.688-5.437-3.095-8.719-3.095-3.374 0-6.187 1.314-6.187 3.656 0 5.907 22.031 3.563 22.031 19.313 0 8.719-8.532 14.063-18.093 14.063-6.281 0-12.938-2.158-18.28-6.095l5.904-8.718" fill="#fff"/>
</svg>
