<svg viewBox="0 0 414.91 330.18" xmlns="http://www.w3.org/2000/svg">
    <path d="M105.379 229.741c0 29.102-23.593 52.693-52.695 52.693S-.01 258.843-.01 229.741c0-29.103 23.593-52.695 52.695-52.695s52.695 23.592 52.695 52.695" fill="#fabf09"/>
    <path d="M281.001 25.053l22.286 22.694h36.52L300.878.013H261.12l-38.926 47.734h36.518l22.289-22.694M280.988 281.793c-46.018 0-80.184-37.65-80.184-83.669s34.166-83.67 80.184-83.67c46.019 0 80.184 37.652 80.184 83.67s-34.165 83.669-80.184 83.669zm0-215.728c-79.237 0-133.89 59.061-133.89 132.062s54.658 132.06 133.89 132.06c79.238 0 133.903-59.059 133.903-132.06S360.231 66.065 280.988 66.065" fill="#21201f"/>
</svg>
