<svg version="1.1" viewBox="0 0 1028.7 282.45" xml:space="preserve" xmlns="http://www.w3.org/2000/svg"><g transform="matrix(1.3333 0 0 -1.3333 -212.38 489.05)"><g transform="scale(.1)"><path d="m2383.3 2302.8c0-218.27-176.94-395.22-395.22-395.22-218.27 0-395.22 176.95-395.22 395.22s176.95 395.22 395.22 395.22c218.28 0 395.22-176.95 395.22-395.22" fill="#4679c6"/><path d="m3589.1 2963.7 378.91 465.45v238.69h-1268v-358.04h682.39l-375.08-443.8v-257.34c77.57 38.79 167.07 59.67 250.6 59.67 232.73 0 411.75-164.09 411.75-381.9 0-223.76-193.94-378.91-390.86-378.91-158.12 0-301.34 86.51-387.85 208.85l-289.42-241.67c184.98-208.87 432.62-325.21 692.2-325.21 432.62 0 778.72 295.37 778.72 736.94 0 316.26-196.92 566.88-483.35 677.27" fill="#21201f"/><path d="m4555.7 2176.8c17.58-25.32 47.81-42.19 82.26-42.19 51.33 0 90 39.37 90 92.81 0 49.22-34.45 93.52-87.89 93.52-35.15 0-65.39-16.88-84.37-42.19zm-91.41 221.48h87.89v-27.42c26.72 21.8 61.17 34.45 99.85 34.45 92.81 0 167.34-77.34 167.34-177.89 0-46.41-16.17-88.59-42.89-119.53-30.23-35.16-78.75-57.66-129.38-57.66-34.45 0-63.98 9.85-91.4 30.94v-192.66h-91.41v509.77" fill="#21201f"/><path d="m5132.2 2278.8c-18.98 25.31-49.22 42.19-84.37 42.19-53.44 0-87.89-44.3-87.89-93.52 0-53.44 38.67-92.81 90-92.81 34.45 0 64.68 16.87 82.26 42.19zm91.41-221.49h-87.89v27.43c-28.13-23.91-60.47-34.46-94.92-34.46-50.63 0-98.44 22.5-128.68 57.66-26.71 30.94-43.59 73.12-43.59 119.53 0 100.55 74.53 177.89 167.34 177.89 38.68 0 73.13-12.65 99.85-34.45v27.42h87.89v-341.02" fill="#21201f"/><path d="m5327.7 1888.6 94.22 203.21-152.58 306.56h100.55l99.84-204.61 92.11 204.61h96.33l-234.84-509.77h-95.63" fill="#21201f"/><path d="m5714.4 2161.4c23.2-21.1 59.06-33.75 93.52-33.75 24.61 0 43.59 11.95 43.59 28.83 0 51.32-165.23 33.04-165.23 142.73 0 65.39 63.28 106.17 130.78 106.17 44.29 0 92.81-16.87 115.31-34.45l-42.89-66.1c-17.58 12.66-40.78 23.21-65.39 23.21-25.31 0-46.41-9.85-46.41-27.42 0-44.3 165.24-26.72 165.24-144.85 0-65.39-63.99-105.47-135.71-105.47-47.11 0-97.03 16.18-137.11 45.71l44.3 65.39" fill="#21201f"/><path d="m6424.5 2278.8c-18.99 25.31-49.22 42.19-84.38 42.19-53.43 0-87.89-44.3-87.89-93.52 0-53.44 38.67-92.81 90-92.81 34.46 0 64.69 16.87 82.27 42.19zm3.51-221.49v27.43c-28.12-23.91-60.46-34.46-94.92-34.46-50.62 0-98.44 22.5-128.67 57.66-26.72 30.94-43.59 73.12-43.59 119.53 0 100.55 74.53 177.89 167.34 177.89 37.27 0 69.61-10.55 96.33-31.64v182.81h91.4v-499.22h-87.89" fill="#21201f"/><path d="m6826.6 2271.8c-2.82 30.23-30.24 59.76-67.5 59.76-37.97 0-68.91-28.82-73.13-59.76zm85.07-160.31c-33.04-39.38-87.18-61.18-139.92-61.18-101.95 0-178.59 70.32-178.59 177.19 0 94.92 64.69 177.89 165.94 177.89 94.22 0 161.01-79.45 161.01-174.37 0-9.14-0.7-18.28-2.11-26.02h-236.25c4.92-47.81 43.6-80.86 92.11-80.86 38.67 0 69.61 21.8 85.78 39.38l52.03-52.03" fill="#21201f"/><path d="m7250.6 2057.3h-91.4v499.22h91.4v-499.22" fill="#21201f"/><path d="m7591.6 2278.8c-18.99 25.31-49.22 42.19-84.38 42.19-53.43 0-87.89-44.3-87.89-93.52 0-53.44 38.67-92.81 90-92.81 34.46 0 64.69 16.87 82.27 42.19zm91.4-221.49h-87.89v27.43c-28.12-23.91-60.47-34.46-94.92-34.46-50.62 0-98.44 22.5-128.67 57.66-26.72 30.94-43.59 73.12-43.59 119.53 0 100.55 74.53 177.89 167.34 177.89 38.67 0 73.12-12.65 99.84-34.45v27.42h87.89v-341.02" fill="#21201f"/><path d="m8041.5 2057.3h-91.41v499.22h91.41v-499.22" fill="#21201f"/><path d="m8300.2 2134.6c53.44 0 90 41.48 90 92.81s-36.56 93.52-90 93.52-90-42.19-90-93.52 36.56-92.81 90-92.81zm0 270.7c103.36 0 181.41-79.45 181.41-177.89s-78.05-177.19-181.41-177.19-181.41 78.75-181.41 177.19 78.05 177.89 181.41 177.89" fill="#21201f"/><path d="m8650.4 2057.3h-91.41v341.02h91.41zm-45.71 520.32c33.05 0 59.77-25.32 59.77-58.36 0-33.05-26.72-58.36-59.77-58.36-33.04 0-59.76 25.31-59.76 58.36 0 33.04 26.72 58.36 59.76 58.36" fill="#21201f"/><path d="m8949.2 2317.5c-6.32 2.11-19.68 3.52-33.04 3.52-40.08 0-71.72-28.83-82.97-49.22v-214.46h-91.41v341.02h87.89v-34.45c20.39 25.31 57.66 41.48 99.14 41.48 13.36 0 21.1-1.4 30.94-2.81l-10.55-85.08" fill="#21201f"/><path d="m9214.2 2271.8c-2.81 30.23-30.23 59.76-67.5 59.76-37.96 0-68.9-28.82-73.12-59.76zm85.08-160.31c-33.04-39.38-87.19-61.18-139.92-61.18-101.95 0-178.59 70.32-178.59 177.19 0 94.92 64.68 177.89 165.93 177.89 94.22 0 161.02-79.45 161.02-174.37 0-9.14-0.7-18.28-2.11-26.02h-236.25c4.92-47.81 43.59-80.86 92.11-80.86 38.67 0 69.61 21.8 85.78 39.38l52.03-52.03" fill="#21201f"/></g></g></svg>
