<svg stroke-linejoin="round" xmlns="http://www.w3.org/2000/svg" fill-rule="evenodd" xml:space="preserve" height="600" viewBox="0 0 15875 15875" width="600" version="1.2" stroke-width="28.222" preserveAspectRatio="xMidYMid"><path fill="#fff" d="m15875 0h-13454v2421.3h-2421v13454h13426v-2449h2449z"/><path d="m412.75 2834.1h12628v12655h-12628z" fill="#231f20"/><path fill="#fff" d="m2283.7 12243 550.33-55.185v852.72h495.15c302.38 0 577.55 110.37 605.52 467.93 0 275.17-165.55 439.96-303.14 467.94h-384.78c82.399 0 329.6-137.58 275.17-357.57-55.184-192.77-220.74-192.77-412.75-192.77-165.55-27.97-825.5-55.184-825.5-55.184z"/><path fill="#fff" d="m1526.3 13234c-110.37 137.58-247.95 330.35-137.58 523.12 164.8 632.73 1100.7 879.93 1513.4 879.93l-83.155-659.95s-632.73 82.398-962.33-303.14c-137.58-137.58-83.155-275.17 0-412.75-110.37 0-247.95 0-330.35-27.215z"/><path d="m2834.1 412.75h12655v12628h-12655z" fill="#127bca"/><g fill="#fff"><path d="m9437.3 11913c0 82.398 0 164.8 27.214 219.98 55.184 55.184 110.37 82.399 164.8 82.399 192.77 0 192.77-247.2 192.77-384.78s0-439.96-192.77-439.96c-164.8 0-192.01 219.98-192.01 357.57zm-385.54-1183.1h385.54v605.52c54.428-137.58 164.8-192.77 302.38-192.77 357.57 0 495.15 357.57 495.15 687.92 0 302.38-164.8 632.73-523.12 632.73-192.01 0-274.41-55.185-357.56-219.98-54.429 55.184-82.399 137.58-82.399 192.77h-219.98z"/><path d="m11143 11666c0-137.58-27.214-275.17-192.77-275.17-164.8 0-219.98 137.58-247.2 275.17zm137.58-825.5-550.33 192.01-55.184-137.58 523.12-274.41zm-577.55 1045.5v54.429c0 165.55 82.399 275.17 247.2 275.17 110.37 0 219.98-82.399 219.98-192.01l358.32 27.214c0 55.184-165.55 412.75-578.3 412.75-384.78 0-632.73-247.95-632.73-632.73 0-357.57 219.98-687.92 605.52-687.92 192.77 0 357.56 110.37 467.93 247.95 137.58 137.58 164.8 329.6 164.8 495.15z"/><path d="m12381 11858c-137.58 0-385.54 27.97-385.54 219.98 0 110.37 55.185 165.55 165.55 165.55 54.429 0 137.58-27.97 164.8-110.37 55.184-82.399 55.184-137.58 55.184-247.2zm27.214 578.3c0-55.185-27.214-110.37 0-192.77-109.61 164.8-219.98 219.98-412.75 219.98-219.98 0-384.78-110.37-384.78-357.57 0-165.55 109.61-302.38 275.17-385.54 137.58-54.429 329.6-54.429 495.15-82.399v-27.214c0-55.185 0-110.37-27.97-165.55-27.214-54.429-109.61-54.429-164.8-54.429-110.37 0-192.77 54.429-192.77 164.8l-357.56-27.214c27.97-303.14 330.35-385.54 605.52-385.54 109.61 0 302.38 27.214 412.75 110.37 137.58 109.61 109.61 247.2 109.61 384.78v632.73c0 55.185 27.97 110.37 27.97 165.55z"/><path d="m13289 11173v220.74c55.184-110.37 109.61-275.17 302.38-247.95h55.184v357.56c-302.38 0-330.35 219.98-330.35 440.72v495.15h-357.56v-1266.2z"/><path d="m14142 11170v192.77c55.185-137.58 164.8-219.98 357.57-219.98 110.37 0 219.98 27.214 303.14 137.58 82.398 82.399 82.398 247.95 82.398 357.57v798.29h-385.54v-687.92c0-137.58 27.97-330.35-164.8-330.35-55.184 0-110.37 55.184-137.58 110.37-27.215 54.428-55.185 137.58-55.185 219.98v687.92h-384.78v-1266.2z"/><g stroke-linejoin="round" fill-rule="evenodd" stroke-width="28.321"><path d="m4487.3 8937.4c0 198 8.344 421.04 119.86 597.04 98.62 154.76 245.03 249.59 438.48 249.59 584.12 0 584.12-747.24 584.12-1138.7 0-399.04 0-1146.3-571.23-1146.3-502.96 0-571.23 540.9-571.23 923.25zm-1048.4-3337.3h1035.5v1710h25.791c175.99-352.77 471.85-524.21 876.19-524.21 1021.8 0 1335.9 1018.1 1335.9 1859.4 0 940.7-378.54 1864.7-1456.5 1864.7-515.09 0-760.12-193.45-1021.8-622.84-128.96 154.75-167.66 360.35-232.13 549.25h-562.98z"/><path d="m6917.8 5600.1h1039.3v4836.6h-1039.3z"/><path d="m10574 8211.7c-22.001-386.9-150.97-748.01-606.13-748.01s-631.15 339.87-669.85 748.01zm-1267.7 609.94-8.346 176c0 424.83 240.48 768.49 691.85 768.49 321.64 0 639.5-232.14 639.5-562.14l958.12 68.276c0 176-416.48 1237.4-1632.5 1237.4-1069.6 0-1769.1-747.24-1769.1-1813.1 0-1056.1 626.61-1915.5 1739.5-1915.5 506.76 0 1021.8 232.14 1318.4 640.28 296.62 408.14 373.24 914.91 364.89 1400.4z"/><path d="m13932 10436v-618.28h-12.896c-167.64 451.38-537.09 691.87-1026.4 691.87-361.09 0-669.85-81.93-871.64-408.14-198-309.52-176.75-648.63-176.75-992.29v-2255.2h1035.5v2255.4c0 287.53 25.793 562.9 395.23 562.9 235.92 0 433.92-133.52 524.19-343.67 68.273-163.11 55.379-369.45 55.379-550v-1924.7h1035.5v3582.3z"/><path d="m8790.9 6269.9h-361.09v-944.5h-145.65v-283.73h145.65c0-111.51-3.793-240.49 56.137-334.56 77.377-116.07 219.24-167.66 351.99-167.66 30.344 0 137.31 3.793 214.68 16.69v279.18c-55.377-3.793-81.17-3.793-137.31-3.793-124.42 0-124.42 72.828-124.42 180.56v29.587h227.59v283.73h-227.59z"/><path d="m9499.4 5008.3v235.93h4.551c38.69-132.76 111.52-274.62 274.61-261.72l59.929 4.553v364.9c-279.17-12.898-313.3 210.14-313.3 433.93v485.48h-365v-1263.1z"/><path d="m10663 5669.1c-137.31 12.897-390.68 47.036-390.68 227.6 0 103.18 56.138 167.66 159.31 167.66 72.827 0 141.86-38.69 184.34-103.18 51.587-81.933 47.033-154.76 47.033-245.04zm34.898 600.83c-12.896-63.726-17.448-132.76-17.448-197.24-103.17 150.2-210.14 223.04-399.02 223.04-228.34 0-399.79-119.86-399.79-356.56 0-188.89 116.07-313.31 283.72-373.24 145.65-56.14 343.65-64.485 497.64-81.933v-29.586c0-51.588 4.551-116.07-29.587-163.11-34.136-43.241-94.825-60.689-150.2-60.689-116.07 0-219.24 60.689-219.24 180.56l-348.2-30.344c38.689-304.97 339.86-399.04 606.13-399.04 128.21 0 295.86 34.139 399.02 119.86 128.97 103.18 116.06 240.49 116.06 391.46v587.94c0 64.483 4.553 128.96 21.243 188.9z"/><path d="m11217 5007.6h343.66v214.69h3.791c77.378-163.11 180.55-240.49 365.65-240.49 119.86 0 235.92 38.691 313.3 141.86 69.033 90.277 69.033 248.83 69.033 364.9v781.33h-365.65v-678.21c0-128.96 17.447-317.86-171.44-317.86-64.483 0-124.42 34.138-150.2 94.069-38.688 69.037-43.24 141.86-43.24 223.8v678.21h-364.89z"/><path d="m13262 5488.6c0-111.52-59.931-223.04-188.89-223.04-201.79 0-227.58 197.25-227.58 355.8 0 154.76 3.794 374 210.14 374 128.96 0 193.44-103.18 206.34-219.25l348.2 22c-30.345 308.76-266.28 497.65-571.23 497.65-386.89 0-614.47-270.07-614.47-644.08 0-386.14 235.92-669.87 635.72-669.87 292.06 0 524.19 193.45 549.99 489.32z"/><path d="m14525 5488.6c-9.103-137.31-56.136-261.72-210.9-261.72-167.64 0-227.57 115.31-240.48 261.72zm-451.37 214.68v59.932c0 150.96 81.931 270.83 245.02 270.83 111.52 0 223.03-81.932 223.03-197.24l339.1 25.792c0 59.932-145.65 433.18-575.02 433.18-377.78 0-622.82-261.72-622.82-635.74 0-373.25 219.24-678.21 613.7-678.21 176.75 0 356.55 85.724 459.72 227.6 107.71 145.65 133.52 322.41 128.96 493.86z"/></g></g></svg>
