<?xml version="1.0" encoding="UTF-8" standalone="no"?>
<!-- Created with Inkscape (http://www.inkscape.org/) -->

<svg
   xmlns:dc="http://purl.org/dc/elements/1.1/"
   xmlns:cc="http://creativecommons.org/ns#"
   xmlns:rdf="http://www.w3.org/1999/02/22-rdf-syntax-ns#"
   xmlns:svg="http://www.w3.org/2000/svg"
   xmlns="http://www.w3.org/2000/svg"
   xmlns:xlink="http://www.w3.org/1999/xlink"
   xmlns:inkscape="http://www.inkscape.org/namespaces/inkscape"
   version="1.1"
   width="510.50137"
   height="816.43921"
   viewBox="-0.5 -7.721 510.50138 816.43923"
   id="Calque_1"
   xml:space="preserve"><metadata
   id="metadata229"><rdf:RDF><cc:Work
       rdf:about=""><dc:format>image/svg+xml</dc:format><dc:type
         rdf:resource="http://purl.org/dc/dcmitype/StillImage" /><dc:title /></cc:Work></rdf:RDF></metadata><defs
   id="defs227">
	
	
	
	
	
	
<linearGradient
   x1="222.2368"
   y1="1359.96"
   x2="291.5238"
   y2="568.00562"
   id="linearGradient3520"
   xlink:href="#SVGID_11_"
   gradientUnits="userSpaceOnUse"
   gradientTransform="matrix(1,0,0,-1,4,1384.3867)" /><linearGradient
   x1="335.88281"
   y1="186.5298"
   x2="335.88281"
   y2="674.12061"
   id="linearGradient3522"
   xlink:href="#SVGID_12_"
   gradientUnits="userSpaceOnUse" /></defs>

<g
   transform="translate(3.4976632e-4,1.132535e-4)"
   id="France_1">
		<g
   id="g191">
			<path
   d="m -0.5,683.941 c 0,11 8.803,21.87 19.563,24.157 l 471.373,100.193 c 10.761,2.287 19.563,-4.842 19.563,-15.842 V 8.548 c 0,-11 -8.804,-18.129 -19.563,-15.842 L 19.063,92.9 C 8.303,95.188 -0.5,106.059 -0.5,117.059 v 566.882 z"
   inkscape:connector-curvature="0"
   id="path193"
   style="fill:#ffc82f" />
		</g>
		<g
   id="g195">
			
				<linearGradient
   x1="222.2368"
   y1="1359.96"
   x2="291.5238"
   y2="568.00562"
   id="SVGID_11_"
   gradientUnits="userSpaceOnUse"
   gradientTransform="matrix(1,0,0,-1,4,1384.3867)">
				<stop
   id="stop198"
   style="stop-color:#ffe7a6;stop-opacity:1"
   offset="0" />
				<stop
   id="stop200"
   style="stop-color:#ffd259;stop-opacity:1"
   offset="0.15000001" />
				<stop
   id="stop202"
   style="stop-color:#ffe499;stop-opacity:1"
   offset="0.5" />
				<stop
   id="stop204"
   style="stop-color:#ffc82f;stop-opacity:1"
   offset="1" />
			</linearGradient>
			<path
   d="m 5,677.106 c 0,11 8.803,21.87 19.563,24.157 l 459.875,97.749 c 10.76,2.287 19.563,-4.842 19.563,-15.842 V 17.828 c 0,-11 -8.804,-18.129 -19.563,-15.842 L 24.563,99.735 C 13.803,102.022 5,112.894 5,123.894 v 553.212 z"
   inkscape:connector-curvature="0"
   id="path206"
   style="fill:url(#linearGradient3520)" />
		</g>
		<path
   d="m 3.957,112.973 c 0,0 449.839,-53.555 506.035,68.021 l 0.009,244.633 c 0,0 -3.381,147.555 -72.47,169.701 l -226.662,48.103 c 0,0 -196.492,65.773 -209.223,-352.325 C -4.285,155.053 3.957,112.973 3.957,112.973 z"
   inkscape:connector-curvature="0"
   id="path208"
   style="fill:#ffc82f" />
		<linearGradient
   x1="335.88281"
   y1="186.5298"
   x2="335.88281"
   y2="674.12061"
   id="SVGID_12_"
   gradientUnits="userSpaceOnUse">
			<stop
   id="stop211"
   style="stop-color:#ffffff;stop-opacity:1"
   offset="0.5" />
			<stop
   id="stop213"
   style="stop-color:#d9d9d9;stop-opacity:1"
   offset="1" />
		</linearGradient>
		<path
   d="M 393.5,573.645 V 186.53 H 284.519 c -5.049,9.96 -8.183,18.249 -13.394,24.857 -8.446,10.693 -17.785,18.66 -28.005,23.885 -10.228,5.238 -21.9,8.443 -35.005,9.623 -13.118,1.197 -28.57,2.033 -46.348,2.501 v 89.132 H 278.5 V 573.644 H 161.767 v 100.414 h 115.359 v 0.062 c -45.929,0.006 232.873,-0.062 232.873,-0.062 0,0 -119.518,0 -119.518,0.043 v -0.043 H 509.999 V 573.645 H 393.5 z"
   inkscape:connector-curvature="0"
   id="path215"
   style="fill:url(#linearGradient3522)" />
		<g
   id="g217">
			<path
   d="m 335.483,142.536 c 0,4.614 0.99,8.094 2.968,10.437 1.978,2.345 5.674,3.516 11.095,3.516 2.343,0 4.193,-0.201 5.549,-0.604 1.353,-0.402 2.397,-0.934 3.132,-1.593 0.731,-0.659 1.263,-1.409 1.592,-2.252 0.33,-0.841 0.606,-1.703 0.824,-2.583 h 14.941 c -0.293,1.758 -0.808,3.719 -1.538,5.878 -0.732,2.162 -2.052,4.175 -3.954,6.042 -1.906,1.868 -4.579,3.444 -8.02,4.725 -3.446,1.281 -8.022,1.922 -13.733,1.922 -9.816,0 -16.939,-2.508 -21.368,-7.525 -4.434,-5.016 -6.647,-12.542 -6.647,-22.577 0,-4.614 0.493,-8.789 1.483,-12.524 0.988,-3.735 2.599,-6.938 4.833,-9.613 2.233,-2.673 5.182,-4.742 8.844,-6.207 3.66,-1.465 8.167,-2.198 13.515,-2.198 6.371,0 11.427,1.063 15.16,3.186 3.735,2.125 6.553,4.853 8.461,8.185 1.902,3.334 3.092,7.086 3.569,11.262 0.475,4.174 0.604,8.349 0.385,12.524 l -41.091,-0.001 0,0 z m 11.097,-39.88 -11.974,-16.919 h 12.963 l 6.042,16.919 h -7.031 z m 13.898,24.389 c -0.257,-1.538 -0.77,-2.911 -1.538,-4.12 -0.769,-1.208 -1.886,-2.16 -3.35,-2.856 -1.467,-0.694 -3.445,-1.043 -5.933,-1.043 -3.077,0 -5.493,0.403 -7.252,1.209 -1.759,0.806 -3.095,1.831 -4.01,3.076 -0.917,1.246 -1.521,2.62 -1.813,4.12 -0.292,1.502 -0.549,2.985 -0.77,4.449 h 25.05 c 0,-1.685 -0.129,-3.296 -0.384,-4.835 z"
   inkscape:connector-curvature="0"
   id="path219"
   style="fill:#ffffff" />
			<path
   d="m 416.344,120.563 c -1.758,0 -3.406,0.258 -4.942,0.77 -1.539,0.513 -2.857,1.428 -3.955,2.747 -1.248,1.612 -2.031,3.553 -2.361,5.823 -0.332,2.271 -0.494,4.103 -0.494,5.493 v 31.091 h -15.273 v -57.568 h 13.625 v 10.766 c 0.51,-1.464 1.061,-2.929 1.647,-4.394 0.584,-1.464 1.408,-2.782 2.472,-3.956 1.061,-1.17 2.473,-2.124 4.229,-2.856 1.76,-0.731 4.064,-1.099 6.922,-1.099 1.244,0 2.49,0.055 3.736,0.165 1.244,0.11 2.488,0.239 3.735,0.385 v 12.633 h -9.341 z"
   inkscape:connector-curvature="0"
   id="path221"
   style="fill:#ffffff" />
			<path
   d="m 449.555,142.536 c 0,4.614 0.989,8.094 2.968,10.437 1.977,2.345 5.674,3.516 11.095,3.516 2.345,0 4.192,-0.201 5.55,-0.604 1.354,-0.402 2.397,-0.934 3.13,-1.593 0.733,-0.659 1.266,-1.409 1.594,-2.252 0.328,-0.841 0.604,-1.703 0.823,-2.583 h 14.941 c -0.293,1.758 -0.808,3.719 -1.537,5.878 -0.733,2.162 -2.052,4.175 -3.955,6.042 -1.905,1.868 -4.578,3.444 -8.021,4.725 -3.442,1.281 -8.019,1.922 -13.731,1.922 -9.815,0 -16.938,-2.508 -21.369,-7.525 -4.43,-5.016 -6.645,-12.542 -6.645,-22.577 0,-4.614 0.493,-8.789 1.48,-12.524 0.99,-3.735 2.6,-6.938 4.834,-9.613 2.235,-2.673 5.182,-4.742 8.845,-6.207 3.661,-1.465 8.165,-2.198 13.515,-2.198 6.372,0 11.424,1.063 15.16,3.186 3.735,2.125 6.556,4.853 8.46,8.185 1.903,3.334 3.092,7.086 3.568,11.262 0.479,4.174 0.605,8.349 0.387,12.524 l -41.092,-0.001 0,0 z m 24.993,-15.491 c -0.257,-1.538 -0.769,-2.911 -1.538,-4.12 -0.769,-1.208 -1.887,-2.16 -3.352,-2.856 -1.464,-0.694 -3.441,-1.043 -5.933,-1.043 -3.075,0 -5.491,0.403 -7.251,1.209 -1.758,0.806 -3.095,1.831 -4.01,3.076 -0.916,1.246 -1.521,2.62 -1.813,4.12 -0.292,1.502 -0.55,2.985 -0.77,4.449 h 25.049 c 0.003,-1.685 -0.125,-3.296 -0.382,-4.835 z"
   inkscape:connector-curvature="0"
   id="path223"
   style="fill:#ffffff" />
		</g>
	</g>
</svg>