<svg width="800mm" height="140.9mm" version="1.1" viewBox="0 0 800 140.9" xmlns="http://www.w3.org/2000/svg">
 <g transform="translate(27.252 -125.15)">
  <g transform="matrix(.8 0 0 .8 -27.252 125.15)" fill="#f941e4" stroke-width="8.6778">
   <path d="m1.3312e-6 0.020593 41.002 105.48c11.479-7.4798 25.999-12.864 44.483-12.864 20.333 0 33.587 4.0609 42.214 10.314h3.0987v-31.886h-82.5v-37.489h87.01v-33.555zm41.002 105.48c-16.949 11.227-32.188 38.194-32.188 66.691h58.111z" style="text-decoration-color:#000000;text-decoration-line:none"/>
   <path d="m181.21 71.063h0.69423q6.0167-12.959 14.348-18.513 8.3308-5.5539 19.901-5.5539 5.5539 0 7.6366 0.92563v31.703h-0.92564q-3.934-0.69425-7.6366-0.69425-14.81-0.23172-23.835 9.025-8.7936 9.025-8.7936 27.075v57.159h-36.332v-123.11h34.943z" style="text-decoration-color:#000000;text-decoration-line:none"/>
   <path d="m295.3 175.89q-15.042 0-27.075-4.8596-12.033-5.0911-20.596-13.885-8.3308-8.7936-12.959-20.596-4.3968-11.802-4.3968-25.687 0-13.885 4.6282-25.687 4.6282-12.033 12.959-20.827 8.3308-8.7936 19.901-13.653 11.571-5.091 25.687-5.091 13.19 0 23.604 4.1654 10.645 4.1654 18.744 11.571 10.414 10.182 15.273 25.224 4.8596 15.042 4.6282 33.323h-89.788q1.8513 13.885 9.2565 21.753 7.4052 7.868 20.596 7.868 8.5622 0 13.885-3.0084 5.5539-3.2398 8.5622-9.025h35.175q-2.3141 8.0994-7.4052 15.273-4.8596 6.9423-12.265 12.265-7.1737 5.091-16.893 7.868-9.7193 3.0084-21.521 3.0084zm-1.8513-104.6q-12.496 0-18.976 7.4051-6.4795 7.4051-8.3308 20.133h52.53q-0.92565-12.959-7.6366-20.133-6.7109-7.4051-17.587-7.4051z" style="text-decoration-color:#000000;text-decoration-line:none"/>
   <path d="m429.71 175.89q-15.042 0-27.075-4.8596-12.033-5.0911-20.596-13.885-8.3308-8.7936-12.959-20.596-4.3968-11.802-4.3968-25.687 0-13.885 4.6282-25.687 4.6282-12.033 12.959-20.827t19.901-13.653q11.571-5.091 25.687-5.091 13.19 0 23.604 4.1654 10.645 4.1654 18.744 11.571 10.414 10.182 15.273 25.224 4.8596 15.042 4.6282 33.323h-89.788q1.8513 13.885 9.2564 21.753 7.4052 7.868 20.596 7.868 8.5622 0 13.885-3.0084 5.5539-3.2398 8.5622-9.025h35.175q-2.3141 8.0994-7.4052 15.273-4.8596 6.9423-12.265 12.265-7.1738 5.091-16.893 7.868-9.7193 3.0084-21.521 3.0084zm-1.8513-104.6q-12.496 0-18.976 7.4051-6.4795 7.4051-8.3308 20.133h52.53q-0.92565-12.959-7.6366-20.133-6.7109-7.4051-17.587-7.4051z" style="text-decoration-color:#000000;text-decoration-line:none"/>
   <path d="m556.98 0.0030696c-6.7158 0.050647-12.839 0.75-18.373 2.0999-6.171 1.5427-11.263 4.089-15.275 7.6373-6.9423 6.3253-10.412 15.966-10.412 28.925v10.415h-18.514v26.431c16.049 0 32.489 6.5962 45.03 18.181l9.5135-18.181h25.986v-26.431h-25.686v-7.868c0-3.394 0.46451-6.0932 1.3902-8.0988 0.92563-2.0056 2.3899-3.4728 4.3955-4.3984 2.1598-1.0801 4.859-1.6974 8.0988-1.8516 3.2398-0.15429 7.1739-0.15429 11.802 0v-25.917c-2.6227-0.30824-5.166-0.54081-7.6344-0.6951-2.4684-0.15429-4.9382-0.23073-7.4066-0.23073-0.98348-0.019275-1.9554-0.024763-2.9147-0.017525zm-17.544 93.689-41.089 78.498h51.561c6.488-8.5452 9.9719-20.655 9.9719-32.94 0-18.841-8.452-34.48-20.444-45.558z" style="text-decoration-color:#000000;text-decoration-line:none"/>
   <path d="m645.07 176.12q-14.81 0-26.844-4.8596-12.033-5.091-20.596-13.885-8.5622-8.7936-13.19-20.596-4.6283-12.033-4.6283-25.918 0-13.885 4.6283-25.687 4.6282-12.033 13.19-20.827 8.5622-8.7936 20.596-13.653 12.033-5.091 26.844-5.091 14.579 0 26.612 5.091 12.033 4.8596 20.364 13.653 8.5622 8.7936 13.19 20.827 4.6283 11.802 4.6283 25.687 0 13.885-4.6283 25.918-4.6282 11.802-13.19 20.596-8.3308 8.7936-20.364 13.885-12.033 4.8596-26.612 4.8596zm-0.23115-26.381q13.653 0 20.827-10.645 7.4052-10.876 7.4052-28.232 0-17.587-7.4052-28.464-7.1738-10.876-20.827-10.876-13.885 0-21.058 10.876-7.1738 10.876-7.1738 28.464 0 17.356 7.1738 28.232 7.1737 10.645 21.058 10.645z" style="text-decoration-color:#000000;text-decoration-line:none"/>
   <path d="m756.73 71.063h0.69425q6.0167-12.959 14.348-18.513 8.3308-5.5539 19.901-5.5539 5.5538 0 7.6365 0.92563v31.703h-0.92563q-3.934-0.69425-7.6366-0.69425-14.81-0.23172-23.835 9.025-8.7936 9.025-8.7936 27.075v57.159h-36.332v-123.11h34.943z" style="text-decoration-color:#000000;text-decoration-line:none"/>
   <path d="m812.56 49.079h34.943v19.207h0.69425q6.0167-11.108 14.81-16.893 9.025-5.7853 22.215-5.7853 24.298 0 33.786 23.373h0.46287q7.6366-12.496 17.356-17.819 9.9507-5.5538 21.753-5.5538 20.596 0 31.009 12.496 10.413 12.265 10.413 32.86v81.225h-36.1v-75.209q0-10.182-4.8596-15.736-4.6282-5.7853-13.422-5.7853-9.7193 0-15.505 7.4051-5.5539 7.4052-5.5539 19.207v70.118h-36.332v-75.209q0-10.182-4.6283-15.736-4.3968-5.7853-13.422-5.7853-9.7193 0-15.505 7.4051-5.7853 7.4052-5.7853 19.207v70.118h-36.332z" style="text-decoration-color:#000000;text-decoration-line:none"/>
  </g>
 </g>
</svg>
