<svg width="4062pt" height="571pt" version="1.1" viewBox="0 0 4062 571" xmlns="http://www.w3.org/2000/svg">
 <g>
  <path d="m0 1.39c128.61-0.03 257.23 0.07 385.84-0.04-0.04 41.54-0.01 83.09-0.01 124.64-82.36 0.04-164.72-0.01-247.08 0.02-0.18 33.38-0.04 66.76-0.07 100.14 70.39 0.01 140.78 0.04 211.17-0.01-0.04 41.61-0.02 83.23-0.01 124.84-70.39 0.04-140.77 0-211.16 0.02-0.02 73.34-0.01 146.67-0.01 220h-138.67v-569.61z"/>
  <path d="m475.19 1.35c74.28 0.2 148.57 0.07 222.86 0.17 8.98 1.06 18.08-0.21 27.04 1.28 34.35 3.25 68.4 14.43 96.53 34.72 28.59 20.27 50.26 49.72 62.18 82.6 8.12 21.98 11.85 45.53 11.21 68.94-0.61 33.16-11.3 66.24-31.15 92.92-16.02 21.63-37.36 39.14-61.32 51.36 4.21 8.42 8.36 16.87 12.9 25.13 31.39 60.64 62.95 121.2 94.33 181.85 5.67 10.07 10.23 20.75 16.17 30.68h-162.53c-33.61-70.65-67.38-141.23-100.73-212h-47.68c-0.01 70.67 0 141.33 0 212h-139.8c-0.01-189.88 0.04-379.77-0.01-569.65m140.13 125.75c0.16 38.38-0.16 76.78 0.17 115.15 26.83-0.21 53.67 0.2 80.5-0.03 16.67-0.27 33.71-6.6 44.82-19.36 9.25-10.28 14.41-24.04 14.43-37.84 0.17-15.48-6.15-31.03-17.49-41.64-11.44-11.3-27.83-16.4-43.68-16.31-26.25-0.01-52.5-0.07-78.75 0.03z"/>
  <path d="m997.1 1.3c6.28 0.19 12.56 0.06 18.84 0.1 122.67-0.02 245.35 0.02 368.02-0.03 0.08 41.54 0.02 83.09 0.04 124.63-82.34 0.01-164.68-0.01-247.02 0.01-0.02 31.78-0.01 63.56-0.01 95.34 70.32-0.01 140.64 0.07 210.95-0.04 0.18 41.56 0.03 83.12 0.08 124.69-70.34 0.01-140.68-0.01-211.02 0.01-0.02 33.37-0.02 66.73 0 100.1 82.33 0.02 164.67 0.02 247 0 0.04 41.63 0.01 83.26 0.02 124.89h-387c0.07-189.9-0.14-379.8 0.1-569.7z"/>
  <path d="m1483.1 1.35c128.95 0.08 257.91 0.07 386.87 0.01 0.12 41.54 0.02 83.09 0.05 124.64-82.33 0.01-164.67-0.01-247 0 0 31.77-0.01 63.54 0.01 95.31 70.31 0.08 140.62 0.07 210.93 0.01 0.14 41.55 0.02 83.12 0.06 124.68-70.33 0.01-140.67-0.01-211 0 0 33.37-0.01 66.74 0.01 100.11 82.32 0.02 164.65 0.01 246.98 0.01 0.02 41.62 0 83.25 0.01 124.88h-386.97c0.03-189.88-0.06-379.77 0.05-569.65z"/>
  <path d="m2443 1.36c139.97 0.06 279.94 0.05 419.91 0.01 0.09 41.54 0.02 83.09 0.04 124.63-46.67 0.01-93.33-0.01-140 0v445h-140v-445c-46.67-0.01-93.33 0.01-140 0 0.03-41.55-0.06-83.09 0.05-124.64z"/>
  <path d="m2886.8 1.48c48.3-0.3 96.6 0.14 144.9-0.12 28.74 94.93 57.43 189.86 86.05 284.82 3.08 10.91 6.98 21.62 9.52 32.67 0.39-0.52 1.17-1.57 1.56-2.1 1.79-7.89 4.62-15.52 6.73-23.34 3.4-11.31 6.58-22.7 10.23-33.94 12.74-44 26.07-87.84 38.99-131.79 12.55-42.1 24.89-84.26 37.53-126.33 8.55 0.15 17.11 0.03 25.67 0.05 11.65-0.76 23.34-0.26 35.02-0.4h725.04c0.01 38.33-0.01 76.66 0 115 17.33 0.01 34.66-0.01 52 0-0.01 5.67-0.01 11.33 0 17h-153c-0.02-5.67-0.02-11.33 0-17 28-0.01 56 0.01 84 0v-98h-628.75c-19.71 59.86-39.76 119.6-59.59 179.42-25.34 77.58-51.67 154.85-76.96 232.45-13.62 41.39-27.72 82.65-41.09 124.12 268.8 0.02 537.59 0.01 806.39 0.01v-107c-28-0.01-56 0-84 0-0.02-5.67-0.02-11.33 0-17h153c-0.01 5.67-0.01 11.33 0 17-17.34 0-34.67-0.01-52 0-0.01 41.33 0 82.67 0 124h-932.86c-2.91-7.61-5.18-15.45-7.83-23.15-13.55-42.22-28.07-84.15-41.59-126.38-14.45-43.34-28.79-86.71-43.01-130.11-14.37-42.78-28.18-85.72-42.49-128.52-14.69-44.31-29.14-88.71-43.95-132.99-3.42-9.37-5.71-19.14-9.51-28.37z"/>
  <path d="m3907 159h153c-0.01 5.67-0.02 11.33 0 17h-153c-0.02-5.67-0.02-11.33 0-17z"/>
  <path d="m3907 193h153c-0.01 5.67-0.01 11.33 0 17h-153c-0.02-5.67-0.02-11.33 0-17z"/>
  <path d="m1885 229c40.73-0.05 81.45 0.1 122.18-0.07 11.16 16.89 22.03 33.99 32.96 51.04-12.06 17.31-23.91 34.75-35.97 52.06-39.72-0.07-79.45-0.01-119.17-0.03v-103z"/>
  <path d="m3907 229h153c-0.01 5.67-0.01 11.33 0 17h-153c-0.02-5.67-0.02-11.33 0-17z"/>
  <path d="m3907 259h153c-0.01 5.67-0.01 11.33 0 17h-153c-0.02-5.67-0.02-11.33 0-17z"/>
  <path d="m3907 292h153c-0.01 5.67-0.01 11.33 0 17h-153c-0.02-5.67-0.02-11.33 0-17z"/>
  <path d="m3907 322h153c-0.01 5.67-0.01 11.33 0 17h-153c-0.02-5.67-0.02-11.33 0-17z"/>
  <path d="m3907 356h153c-0.01 5.67-0.01 11.33 0 17h-153c-0.02-5.67-0.02-11.33 0-17z"/>
  <path d="m3907 393h153c-0.01 5.67-0.01 11.33 0 17h-153c-0.02-5.67-0.02-11.33 0-17z"/>
 </g>
 <g fill="#597ed8">
  <path d="m1922.8 0.9c52.73 0.26 105.47-0.02 158.2 0.13 2.24 0.62 2.6 3.62 3.75 5.41 1.87 3.74 4.37 7.12 6.02 10.99 0.95 2.01 1.95 4.01 3 5.99 0.62 1.35 1.28 2.69 2 4.01 0.62 1.34 1.28 2.68 2.03 3.99 0.46 1.06 0.94 2.11 1.44 3.18 1.82 2.92 3.74 5.78 5.06 8.98 0.81 1.61 1.63 3.23 2.48 4.84 1.14 2.39 2.35 4.76 3.53 7.14 0.25 0.5 0.74 1.51 0.99 2.01 0.47 0.95 0.97 1.9 1.48 2.86 1.12 2.92 3.36 5.22 4.54 8.13 0.66 1.33 1.32 2.67 1.99 4.02 0.8 1.61 1.62 3.23 2.47 4.84 0.82 1.72 1.67 3.43 2.5 5.16 0.48 0.94 0.99 1.89 1.52 2.84 1.5 3.93 4.23 7.19 6 10.99 0.45 1.05 0.95 2.11 1.47 3.17 0.49 0.94 1 1.89 1.53 2.85 0.92 2.02 1.91 4.02 2.98 5.99 0.81 1.72 1.66 3.44 2.53 5.15 0.69 1.32 1.33 2.67 1.95 4.04 1.31 2.34 3.02 4.45 4.04 6.96 0.47 0.95 0.96 1.9 1.49 2.85 0.6 1.35 1.26 2.69 1.98 4.01 0.83 1.71 1.67 3.43 2.54 5.15 0.67 1.31 1.33 2.65 2 3.99 0.67 1.32 1.33 2.66 1.99 4.01 2.45 4.63 5.26 9.06 7.51 13.81 0.48 1.19 0.98 2.4 1.49 3.61h0.48c0.53-1.53 1.16-3.04 1.99-4.44 0.84-1.71 1.67-3.42 2.52-5.14 1.34-3.18 3.63-5.83 5.04-8.98 0.65-1.33 1.3-2.67 1.96-4.02 0.48-0.95 0.98-1.9 1.5-2.84 0.6-1.36 1.26-2.7 1.98-4.01 1.16-2.39 2.37-4.75 3.53-7.15 1.51-3.45 3.95-6.39 5.48-9.84 0.6-1.36 1.27-2.7 2.01-4.01 0.47-1.05 0.97-2.1 1.5-3.15 1.18-2.26 2.29-4.57 3.48-6.84 0.62-1.35 1.28-2.69 1.99-4.02 1.37-3.16 3.67-5.8 5.02-8.98 0.6-1.35 1.27-2.69 1.99-4.01 0.62-1.35 1.28-2.68 2.02-4 0.47-1.05 0.97-2.1 1.5-3.15 1.18-2.27 2.31-4.56 3.46-6.86 1.38-3.15 3.68-5.79 5.03-8.98 0.6-1.35 1.27-2.69 2.01-4 0.47-1.06 0.97-2.11 1.5-3.17 0.82-1.61 1.65-3.22 2.49-4.84 1.13-2.4 2.36-4.75 3.52-7.15 1.95-4.06 4.69-7.68 6.47-11.85 1.15-2.38 2.36-4.75 3.53-7.14 1.03-1.98 2.02-3.99 3.01-6 0.69-1.32 1.33-2.67 1.95-4.04 1.11-1.97 2.42-3.82 3.57-5.78 1.28-2.17 1.68-5.73 4.3-6.58 52.71-0.14 105.43 0.13 158.14-0.14-0.56 0.88-1.06 1.78-1.48 2.7-0.95 1.7-2.06 3.3-3.01 4.97-1.06 2.03-2.45 3.85-3.48 5.88-0.84 1.39-1.73 2.73-2.52 4.12-1.07 2.02-2.44 3.85-3.47 5.88-1.02 1.67-2.11 3.28-3 5-1.03 1.67-2.12 3.29-3.01 5.01-0.84 1.39-1.73 2.72-2.52 4.11-0.94 1.71-2.03 3.33-3.01 5-1.06 2.03-2.43 3.86-3.47 5.88-0.84 1.39-1.73 2.73-2.52 4.12-0.94 1.71-2.03 3.33-3.01 5-1.06 2.02-2.43 3.86-3.47 5.88-0.84 1.39-1.73 2.73-2.52 4.12-0.94 1.71-2.03 3.33-3.01 5-1.06 2.03-2.43 3.86-3.47 5.88-1.01 1.67-2.1 3.28-3 5-0.84 1.39-1.73 2.73-2.52 4.12-1.07 2.02-2.44 3.86-3.48 5.88-0.84 1.39-1.73 2.73-2.52 4.12-1.05 2.03-2.46 3.85-3.48 5.88-0.84 1.39-1.73 2.73-2.52 4.12-1.07 2.02-2.45 3.85-3.47 5.88-1.02 1.67-2.11 3.28-3.01 5-0.84 1.39-1.73 2.73-2.52 4.12-0.94 1.72-2.03 3.33-3.01 5-1.06 2.02-2.44 3.85-3.46 5.88-1.02 1.67-2.11 3.28-3.01 5-1.01 1.66-2.1 3.28-2.99 5-1.02 1.67-2.11 3.28-3.01 5-1.01 1.66-2.1 3.28-2.99 5-1.02 1.67-2.11 3.28-3.01 5-1.01 1.67-2.1 3.28-3 5-0.84 1.39-1.73 2.73-2.52 4.12-1.07 2.02-2.44 3.85-3.48 5.88-1.01 1.67-2.1 3.28-3 5-0.84 1.39-1.73 2.73-2.52 4.12-0.94 1.71-2.03 3.32-3.01 5-1.04 2.03-2.43 3.85-3.47 5.88-0.84 1.39-1.73 2.73-2.52 4.12-0.94 1.71-2.03 3.33-3.01 5-1.05 2.03-2.44 3.85-3.47 5.88-0.84 1.39-1.73 2.73-2.52 4.12-1.07 2.02-2.45 3.85-3.47 5.88-1.02 1.67-2.1 3.28-3.01 5-0.84 1.38-1.73 2.73-2.52 4.12-1.07 2.02-2.45 3.85-3.47 5.88-1.02 1.67-2.11 3.28-3.01 5-1.01 1.66-2.1 3.28-3 5-1.01 1.67-2.09 3.28-3 5-0.84 1.38-1.73 2.73-2.52 4.12-0.93 1.72-2.03 3.33-3.01 5-1.04 2.04-2.45 3.85-3.47 5.89-0.84 1.39-1.73 2.72-2.52 4.11-1.06 2.03-2.47 3.84-3.45 5.89-0.59 1.15-1.45 2.13-2.26 3.08-0.04 0.98-0.04 1.95 0 2.93 0.81 0.95 1.67 1.94 2.26 3.1 0.86 1.73 1.96 3.33 2.98 5 1.38 2.84 3.47 5.24 5 8 0.89 1.72 1.98 3.33 3 5 0.89 1.71 1.97 3.33 2.99 5.01 0.91 1.71 1.99 3.32 3.01 4.99 1.38 2.84 3.47 5.24 5 8 1.02 2.03 2.4 3.86 3.47 5.88 0.79 1.39 1.69 2.72 2.52 4.11 1.02 2.04 2.43 3.85 3.47 5.89 1.34 2.47 3.17 4.65 4.54 7.12 0.89 1.72 1.99 3.33 3 5 1.01 2.03 2.41 3.85 3.46 5.88 0.98 1.67 2.08 3.27 3.01 4.99 1.34 2.48 3.16 4.66 4.53 7.13 1.02 2.03 2.41 3.85 3.47 5.88 0.79 1.38 1.68 2.72 2.52 4.11 0.9 1.72 1.99 3.34 3.01 5.01 1.52 3.14 3.92 5.75 5.47 8.89 0.79 1.38 1.69 2.71 2.52 4.11 1.03 2.02 2.41 3.85 3.47 5.88 0.98 1.66 2.08 3.27 3 5 1.5 2.76 3.6 5.16 5 8 0.98 1.66 2.07 3.28 3 5 0.98 1.66 2.07 3.28 3.01 5 0.97 1.67 2.06 3.28 3 5 1.48 2.77 3.6 5.16 4.99 8 0.98 1.67 2.07 3.28 3.01 5 0.79 1.38 1.68 2.73 2.52 4.12 0.9 1.71 1.99 3.33 3.01 4.99 1.51 3.15 3.92 5.75 5.46 8.89 0.98 1.66 2.07 3.28 3.01 5 0.97 1.66 2.06 3.28 2.99 5 0.98 1.66 2.07 3.27 3.01 4.99 1.49 2.77 3.6 5.17 4.99 8.01 0.99 1.66 2.07 3.28 3 5.01 0.99 1.66 2.08 3.27 3.01 4.99 0.97 1.66 2.06 3.28 2.99 5 1.34 2.47 3.17 4.65 4.54 7.12 1.01 2.03 2.41 3.84 3.46 5.88 0.98 1.67 2.08 3.28 3.01 5.01 0.79 1.38 1.68 2.72 2.52 4.11 0.9 1.71 1.99 3.33 3.01 5 1.53 3.13 3.91 5.75 5.46 8.88 0.98 1.66 2.07 3.28 3.01 4.99 0.97 1.67 2.06 3.29 3 5.01 0.79 1.39 1.68 2.73 2.53 4.12 1.38 2.83 3.47 5.24 5 8 1.03 2.03 2.4 3.86 3.47 5.88 0.79 1.39 1.68 2.72 2.53 4.11 1.16 2.28 2.57 4.44 4.19 6.45h-160.14c-1.15-1.37-1.91-2.97-2.54-4.6-1.55-2.59-3.3-5.06-4.52-7.82-0.66-1.36-1.32-2.7-1.97-4.02-1.41-3.16-3.69-5.8-5.03-8.98-0.85-1.73-1.71-3.43-2.52-5.15-1.35-3.19-3.65-5.84-5.02-9-0.82-1.63-1.65-3.24-2.44-4.86-1.18-2.91-3.42-5.22-4.54-8.15-0.52-0.95-1.01-1.9-1.49-2.85-0.66-1.35-1.31-2.69-1.97-4-1.19-2.91-3.39-5.24-4.56-8.14-0.71-1.33-1.38-2.66-2-4-0.25-0.5-0.75-1.51-0.99-2.01-1.34-3.19-3.64-5.83-5.01-8.99-0.82-1.63-1.65-3.24-2.44-4.86-1.05-2.51-2.75-4.63-4.07-6.96-0.61-1.39-1.25-2.73-1.94-4.05-0.68-1.34-1.33-2.67-1.98-4-1.41-3.15-3.69-5.8-5.03-8.98-0.85-1.73-1.71-3.44-2.52-5.16-1.54-3.45-3.95-6.4-5.5-9.84-0.52-1.06-1.03-2.11-1.48-3.17-1.76-3.81-4.51-7.06-6-10.99-0.53-0.96-1.04-1.9-1.52-2.85-1.28-3.21-3.25-6.04-5.02-8.97-0.62-1.37-1.27-2.72-1.94-4.03-0.69-1.34-1.34-2.68-1.99-4-1.9-3.73-4.33-7.14-6.06-10.96-0.54-1.21-1.05-2.41-1.48-3.62l-0.48 0.02c-0.51 1.2-1.02 2.4-1.49 3.61-1.34 2.71-3.02 5.21-4.57 7.78-0.79 1.74-1.65 3.45-2.47 5.17-1.53 3.45-3.96 6.4-5.48 9.86-0.85 1.72-1.71 3.42-2.52 5.15-1.35 3.18-3.65 5.82-5.02 8.99-0.82 1.62-1.66 3.23-2.44 4.86-1.18 2.91-3.4 5.23-4.56 8.14-1.03 1.99-2.05 3.98-2.98 6.01-1.73 3.82-4.48 7.06-5.98 10.99-0.53 0.95-1.03 1.9-1.5 2.85-1.15 2.93-3.38 5.23-4.54 8.14-0.7 1.33-1.37 2.67-1.99 4.01-0.73 1.31-1.38 2.66-1.95 4.04-1.81 2.91-3.74 5.77-5.04 8.97-0.73 1.3-1.4 2.64-2 4-1.35 3.18-3.65 5.82-5.02 8.99-0.82 1.62-1.66 3.23-2.44 4.86-1.18 2.91-3.39 5.23-4.56 8.13-0.7 1.33-1.37 2.66-2 4-0.71 1.32-1.37 2.67-1.94 4.05-1.34 2.33-3.05 4.44-4.04 6.96-0.52 0.95-1.02 1.9-1.51 2.85-0.52 1.05-1.02 2.1-1.47 3.17-1.39 3.16-3.66 5.82-5.04 8.98-1.35 2.67-2.75 5.3-3.93 8.04-1.8 2.92-3.82 5.74-4.99 9-0.68 1.18-1.38 2.35-2.24 3.39h-159.88c0.79-1.07 1.44-2.25 2.05-3.44 1.51-2.76 3.61-5.16 5-8 0.99-1.67 2.08-3.28 3.01-5 0.98-1.67 2.06-3.28 2.99-5 1.51-2.77 3.61-5.16 5.01-8.01 0.79-1.39 1.69-2.73 2.52-4.12 1.05-2.02 2.41-3.85 3.48-5.87 0.79-1.4 1.69-2.74 2.53-4.11 1.51-3.15 3.92-5.75 5.46-8.89 0.99-1.67 2.07-3.29 3.01-5 0.8-1.39 1.69-2.73 2.52-4.11 1.03-2.03 2.41-3.87 3.47-5.89 1.34-2.47 3.17-4.65 4.53-7.12 0.9-1.73 2-3.34 3.01-5 0.89-1.72 1.98-3.34 3-5 0.89-1.73 1.98-3.34 3-5 1.52-3.15 3.93-5.75 5.46-8.89 0.8-1.39 1.69-2.73 2.53-4.11 0.91-1.72 1.99-3.34 3-5.01 1.03-2.02 2.43-3.84 3.47-5.87 1.51-2.77 3.61-5.16 5-8 0.99-1.67 2.08-3.28 3.01-5 0.98-1.67 2.06-3.29 3-5 0.79-1.4 1.68-2.74 2.52-4.12 1.54-3.14 3.93-5.75 5.48-8.88 0.79-1.4 1.69-2.73 2.52-4.12 1.03-2.03 2.42-3.85 3.48-5.88 0.97-1.67 2.07-3.28 2.99-5 1.5-2.77 3.6-5.16 5-8 0.99-1.67 2.08-3.29 3-5 0.98-1.68 2.07-3.29 3.01-5 0.79-1.39 1.68-2.74 2.52-4.12 1.54-3.13 3.92-5.75 5.47-8.88 0.8-1.39 1.69-2.73 2.53-4.11 0.9-1.72 1.99-3.34 3-5.02 0.91-1.71 1.99-3.33 3.01-4.99 0.89-1.73 1.98-3.34 3-5 1.38-2.84 3.47-5.24 5-8 0.88-1.73 1.98-3.33 3-5 1.02-2.03 2.4-3.86 3.47-5.87 0.97-1.68 2.06-3.29 2.99-5 1.51-2.77 3.6-5.18 5.01-8.01 0.79-1.39 1.68-2.73 2.52-4.12 0.9-1.72 1.99-3.33 3.01-5 1.01-2.04 2.42-3.85 3.46-5.88 1.51-2.76 3.6-5.17 5-8 0.98-1.67 2.07-3.28 3-5 0.98-1.67 2.07-3.29 3.01-5 0.79-1.39 1.68-2.73 2.52-4.12 1.04-2.02 2.41-3.86 3.48-5.88 1.19-2.16 2.55-4.25 4.23-6.08-0.02-0.99-0.02-1.98 0-2.96-1.16-1.15-2.09-2.46-2.7-3.96-1.02-1.67-2.11-3.29-3.01-5.01-0.84-1.39-1.73-2.73-2.52-4.11-0.94-1.71-2.02-3.33-3-5-0.94-1.72-2.02-3.34-3-5-0.94-1.72-2.03-3.34-3.01-5-1.06-2.03-2.43-3.86-3.47-5.88-0.84-1.39-1.73-2.73-2.52-4.12-0.94-1.72-2.03-3.33-3.01-5-0.92-1.72-2.01-3.33-3-4.99-1.04-2.04-2.44-3.86-3.46-5.89-1.02-1.67-2.11-3.28-3.01-4.99-1.36-2.48-3.18-4.66-4.52-7.14-0.93-1.72-2.03-3.32-3.01-4.99-1.05-2.03-2.44-3.85-3.46-5.88-1.02-1.67-2.1-3.28-3.01-4.99-1.01-1.67-2.09-3.29-3-5.01-1.01-1.67-2.1-3.29-3-5.01-0.83-1.39-1.73-2.73-2.52-4.11-1.07-2.02-2.45-3.85-3.47-5.88-1.02-1.67-2.11-3.28-3.01-5-1.01-1.67-2.09-3.29-3-5-0.84-1.38-1.73-2.73-2.52-4.12-0.93-1.72-2.03-3.33-3.01-5-1.06-2.03-2.43-3.86-3.47-5.88-0.83-1.39-1.73-2.72-2.52-4.11-1.05-2.03-2.45-3.85-3.47-5.89-1.02-1.67-2.11-3.28-3.01-5-0.84-1.39-1.73-2.73-2.52-4.12-1.06-2.02-2.45-3.85-3.47-5.88-1.02-1.67-2.1-3.28-3.01-5-1.01-1.67-2.1-3.29-3-5.01-0.83-1.39-1.73-2.72-2.52-4.11-1.06-2.03-2.45-3.85-3.48-5.89-0.83-1.39-1.73-2.72-2.52-4.1-1.22-2.42-3.07-4.48-3.97-7.05-0.98-1.68-2.07-3.29-3.03-4.97-0.94-1.71-2.02-3.32-3-4.99-0.93-1.72-2.03-3.33-3.01-4.99-1.03-2.04-2.44-3.86-3.46-5.89-1.02-1.67-2.1-3.28-3-5-1.02-1.67-2.11-3.28-3.01-5-0.83-1.39-1.73-2.73-2.52-4.11-1.06-2.03-2.44-3.86-3.48-5.89-0.83-1.39-1.73-2.73-2.52-4.12-1.06-2.03-2.45-3.85-3.47-5.88-1.02-1.67-2.11-3.28-3.01-5-0.84-1.39-1.72-2.73-2.52-4.12-0.94-1.71-2.03-3.33-3.01-5-1.06-2.02-2.43-3.85-3.46-5.87-1.01-1.68-2.11-3.29-3.01-5.01-1.01-1.67-2.09-3.28-3-5-1.01-1.66-2.1-3.28-3-5-0.99-1.67-2.09-3.27-3.01-4.96-0.48-0.93-0.97-1.83-1.49-2.7z"/>
  <path d="m3616.6 77.95c0.85-1.62 2.9-0.73 4.41-0.97 8.19 0.08 16.39-0.06 24.59 0.07 3.4 2.79 9.35-0.9 12.78 1.91 2.03 0.05 4.11 0.03 6.23 0.08 1.46 2.35 5.2-0.42 6.77 1.89 1.59 0.32 3.88-0.66 5 1.01 1.58 0.31 3.85-0.65 4.99 0.96 1.27 0.28 3.13-0.43 4.01 1 1.28 0.28 3.11-0.42 4 1 1.27 0.28 3.14-0.44 4 1.02 0.55 0.04 1.67 0.12 2.23 0.16 0.98 1.81 3.61 0.07 4.77 1.76 1.12-0.06 2.12 0.27 3 0.98 1.47 0.12 2.86 0.71 4.22 1.43 1.01 1.02 2.75 0.43 3.78 1.56 1.47 0.13 2.86 0.72 4.23 1.44 1 1 2.66 0.51 3.77 1.5 1.02 0.51 2.1 1 3.24 1.49 2.05 1.55 4.72 1.79 7 2.99 1.48 0.96 3.16 1.62 4.76 2.49 2.32 1.32 4.47 2.94 7 4.02 0.5 0.23 1.52 0.71 2.02 0.95 1.54 0.59 2.56 2.07 4.21 2.57 4.02 2.23 7.64 5.12 11.61 7.49 2.52 2.9 6.64 3.9 8.96 7.04 0.64 0.68 1.46 1.15 2.45 1.41 1.59 1.49 3.08 3.11 4.71 4.6 1.91 0.43 3.02 2.14 4.39 3.44l15.01 15.01c1.27 1.33 2.97 2.46 3.45 4.39 1.56 2.07 4.27 3.35 4.98 6.02 1.18 1.16 2.6 2.25 3.01 3.99 5.05 5.74 8.77 12.63 13.11 18.94 0.25 0.5 0.73 1.5 0.98 2l0.96 2.04c0.97 2.02 2.49 3.72 3.53 5.73 0.5 1.39 1.13 2.76 2 4.01 0.89 1.57 1.02 3.46 1.96 5.02 0.78 1.75 1.69 3.46 2.54 5.21 0.57 0.88 0.87 1.88 0.89 3.01 1.14 0.96 0.48 2.74 1.6 3.77 1.01 1.54 0.88 3.63 2.15 5.02 0.04 0.55 0.13 1.66 0.17 2.21 0.76 0.78 1.12 1.79 1.07 3.01 1.68 1.1-0.09 3.74 1.77 4.76 0.04 0.56 0.12 1.68 0.16 2.23 1.42 0.82 0.68 2.67 1.02 4 1.38 0.84 0.66 2.67 1 4.01 1.58 1.11 0.6 3.36 0.96 5 1.78 1.36 0.57 4.05 0.99 5.99 1.92 1.65 0.5 4.75 0.99 7 2.73 2.74-0.85 8.02 1.92 10.78 0.1 7.84-0.03 15.69 0.06 23.54-0.31 1.46 0.62 3.56-0.98 4.46-0.66 3.22 1.15 7.4-1 10-0.49 2.25 0.93 5.34-0.99 7-0.41 1.94 0.77 4.61-0.98 6.01-0.37 1.62 0.6 3.87-0.97 4.99-0.35 1.32 0.41 3.19-1.04 4-0.09 1.07-0.14 2.14-0.12 3.22-1.93 1-0.04 3.76-1.86 4.77-0.04 0.56-0.12 1.67-0.16 2.23-0.85 0.78-1.22 1.78-1.08 3-1.27 0.95-0.51 2.81-1.67 3.78-0.02 1.13-0.33 2.13-0.93 3-1.05 1.54-0.99 3.55-2.08 5-0.01 1.13-0.31 2.13-0.91 3-0.64 1.36-1.22 2.73-2.03 3.98-0.96 1.57-1.08 3.46-1.96 5.02-0.66 1.36-1.24 2.73-2.02 3.98-0.55 1.08-1.05 2.17-1.46 3.27-0.87 1.77-2.29 3.17-3.09 4.95-0.23 0.51-0.69 1.53-0.93 2.04-1.42 2.83-3.67 5.16-5.02 8-1.49 3.37-4.39 5.81-5.93 9.02-0.92 0.9-1.8 1.79-2.62 2.7-0.42 1.73-1.82 2.83-3.01 3.99-0.7 3.19-4.68 4.12-5.38 7.3-6.62 6.78-13.43 13.36-20.02 20.15-0.72 0.68-1.53 1.15-2.42 1.41-1.64 1.49-3.13 3.11-4.72 4.6-2.24 0.52-3.38 2.63-4.99 4.01-1.49 0.32-2.52 1.36-3.4 2.45-4.99 3-9.6 6.58-14.62 9.48-1.68 0.46-2.65 2.03-4.24 2.53-0.97 0.48-1.9 0.96-2.78 1.45-1.63 0.53-2.66 2.02-4.22 2.55-1.33 0.75-2.69 1.39-4.01 1.98-1.56 0.94-3.27 1.54-4.75 2.52-2.28 1.2-4.96 1.41-6.99 3.01-2.06 0.97-4.28 1.45-6.26 2.45-1.08 1.03-2.77 0.51-3.77 1.52-1.58 1.01-3.57 0.99-5.01 2.08-1.22-0.07-2.22 0.27-2.98 1.02-1.27-0.11-2.27 0.25-3.01 1.07-0.55 0.04-1.67 0.12-2.22 0.16-1.07 1.83-3.79 0-4.78 1.84-0.55 0.04-1.66 0.12-2.22 0.16-0.87 1.45-2.73 0.73-4.01 1.02-1.31 2.06-4.56-0.28-5.77 1.84-1.12 0.03-2.2 0.07-3.22 0.12-1.56 2.32-5.3-0.46-6.78 1.89-1.98 0.37-4.68-0.83-6 1.01-2.3 0.44-5.37-0.95-7 0.99-3.76 0.12-7.5-0.03-11.21 0.1-0.94 1.6-3.02 0.73-4.41 0.97-7-0.04-13.99-0.04-20.96 0-1.51-0.24-3.56 0.63-4.43-0.97-3.75-0.12-7.5 0.02-11.21-0.1-1.83-2.49-5.99 0.58-7.77-1.9-1.79-0.06-3.53-0.06-5.23-0.1-1.54-2.33-5.28 0.42-6.78-1.89-1.12-0.05-2.2-0.09-3.22-0.12-1.28-2.13-4.52 0.22-5.78-1.84-1.38-0.29-3.22 0.42-4-1.02-0.56-0.04-1.66-0.12-2.22-0.16-1.07-1.8-3.69-0.08-4.78-1.76-1.22 0.06-2.22-0.27-3-1-1.26 0.09-2.26-0.27-3-1.08-0.55-0.04-1.66-0.13-2.22-0.17-1.41-1.25-3.51-1.1-5.01-2.15-1.56-0.97-3.48-1.04-5-2-1.08-1.03-2.77-0.5-3.76-1.51-1.13-0.51-2.21-1.01-3.23-1.51-1.59-0.92-3.49-1.03-5-1.99-0.5-0.25-1.51-0.75-2.01-1.01-1.3-0.79-2.67-1.41-4-1.99-2.51-1.1-4.68-2.71-6.99-4.03-0.97-0.49-1.89-0.97-2.78-1.44-1.85-0.74-3.18-2.28-4.99-3.02-5.38-3.53-11.21-6.73-15.97-11.07-2.25-0.5-3.39-2.64-5-4-3.2-0.71-4.14-4.67-7.29-5.39-6.78-6.6-13.35-13.41-20.13-20-0.75-0.68-1.22-1.5-1.43-2.44-1.52-1.62-3.13-3.11-4.6-4.72-0.39-2.29-3.07-2.99-3.39-5.29-2.14-1.7-3.26-4.18-4.8-6.33-2.72-4.25-5.76-8.3-8.29-12.63-1.51-3.12-3.14-6.13-5.01-8.99-0.89-1.58-1.55-3.25-2.48-4.77-1.02-2.02-1.47-4.25-2.47-6.25-0.26-0.49-0.78-1.48-1.04-1.98-0.91-1.58-1.04-3.46-1.96-5.02-1.07-1.04-0.56-2.72-1.51-3.77-1.1-1.54-0.94-3.63-2.16-5-0.05-0.56-0.13-1.67-0.17-2.22-0.86-0.79-1.22-1.79-1.08-3-1.73-1.13 0.01-3.75-1.76-4.78-0.04-0.56-0.12-1.67-0.15-2.23-1.52-0.81-0.79-2.67-1.03-4-1.85-1.04-0.01-3.76-1.83-4.77-0.37-1.64 0.64-3.94-1.02-5-0.42-1.95 0.81-4.66-1.01-6-0.47-2.26 0.91-5.34-0.99-7-0.65-3.23 1.12-7.38-1-10-0.13-7.52 0-15.05-0.07-22.57 0.19-1.46-0.68-3.54 0.97-4.43 0.18-3.41-0.21-6.84 0.18-10.23l0.82-0.77c0.02-2.08 0.01-4.15 0.1-6.22 1.79-1.36 0.58-4.06 1-6 2.13-1.22-0.3-4.55 1.89-5.77-0.01-1.08 0.03-2.15 0.12-3.23 1.83-1.02-0.01-3.75 1.86-4.78 0.04-0.56 0.12-1.67 0.16-2.23 1.78-1.02 0.03-3.65 1.76-4.77-0.1-1.18 0.23-2.18 1-3-0.1-1.17 0.22-2.17 0.98-3 0.06-1.52 0.68-2.9 1.44-4.22 0.88-1.56 0.98-3.46 1.99-5 0.91-1.55 1.01-3.46 1.98-5.03 1.81-2.76 2.24-6.16 4.03-8.98 1.06-2.5 2.67-4.66 4.03-6.99 1.11-2.8 3-5.14 4.45-7.77 3.53-5.37 6.72-11.2 11.07-15.97 0.47-2.23 2.61-3.36 4-5 0.47-2.77 3.86-3.53 4.39-6.29 7-7.1 14.06-14.15 21.16-21.16 3.15-0.72 4.09-4.68 7.29-5.39 2.17-2.58 5.01-4.36 7.88-6.11 3.09-2.62 6.56-4.92 10.09-6.96 3.06-1.57 5.68-3.89 8.74-5.52 1.05-0.47 2.13-0.98 3.28-1.45 1.76-0.81 3.13-2.29 4.97-3.06 1.53-0.87 3.21-1.51 4.76-2.48 2.99-1.31 6.22-2.13 9-4 1.99-1 4.21-1.46 6.25-2.46 0.98-1.07 2.77-0.43 3.77-1.61 1.1 0.05 2.09-0.26 2.99-0.93 1.5-1.05 3.61-0.88 5.01-2.14 0.55-0.05 1.66-0.13 2.22-0.17 1-1.82 3.7-0.02 4.78-1.84 0.56-0.04 1.67-0.12 2.22-0.16 0.78-1.46 2.61-0.74 4-1.02 1.01-1.81 3.74 0.03 4.78-1.84 1.02-0.04 2.09-0.08 3.22-0.12 1.05-1.66 3.32-0.69 5-1.01 1.05-1.66 3.32-0.68 5-0.99 1.35-1.8 4.01-0.62 6-0.99 1.79-2.48 5.94 0.58 7.78-1.91 3.72-0.11 7.46 0.03 11.22-0.09m-27.68 62.62c-18.57 7.05-34.77 20.18-45.49 36.9-11.25 17.36-16.93 37.97-17.33 58.59 23.92 0.01 47.85 0.02 71.79 0 0.46-10.48 2.62-21.15 7.83-30.34 5.62-9.5 17.47-14.69 28.28-12.75 4.1-0.1 8.01 1.49 11.42 3.69 6.91 3.87 10.25 11.78 11.84 19.18 2.18 12.03 0.31 24.65-4.68 35.77-3.62 8.05-8.41 15.5-13.26 22.84-12.36 18.27-26.68 35.12-41.54 51.38-25.27 26.92-51.07 53.32-76.41 80.17 71.34 0.1 142.69 0.04 214.03 0.03 0.01-19.66 0.05-39.33-0.02-58.99-28.88-0.01-57.76-0.04-86.63-0.07 15.51-14.57 31.16-28.99 46.59-43.66 12.58-12.18 24.26-25.93 30.75-42.41 7.07-17.36 7.89-36.8 4.48-55.09-3.84-19.58-14.55-37.79-30.04-50.39-14.82-12.21-33.54-18.97-52.46-21.21-19.83-2.19-40.39-0.72-59.15 6.36z"/>
 </g>
 <path d="m3588.9 140.57c18.76-7.08 39.32-8.55 59.15-6.36 18.92 2.24 37.64 9 52.46 21.21 15.49 12.6 26.2 30.81 30.04 50.39 3.41 18.29 2.59 37.73-4.48 55.09-6.49 16.48-18.17 30.23-30.75 42.41-15.43 14.67-31.08 29.09-46.59 43.66 28.87 0.03 57.75 0.06 86.63 0.07 0.07 19.66 0.03 39.33 0.02 58.99-71.34 0.01-142.69 0.07-214.03-0.03 25.34-26.85 51.14-53.25 76.41-80.17 14.86-16.26 29.18-33.11 41.54-51.38 4.85-7.34 9.64-14.79 13.26-22.84 4.99-11.12 6.86-23.74 4.68-35.77-1.59-7.4-4.93-15.31-11.84-19.18-3.41-2.2-7.32-3.79-11.42-3.69-10.81-1.94-22.66 3.25-28.28 12.75-5.21 9.19-7.37 19.86-7.83 30.34-23.94 0.02-47.87 0.01-71.79 0 0.4-20.62 6.08-41.23 17.33-58.59 10.72-16.72 26.92-29.85 45.49-36.9z" fill="#fff"/>
</svg>
