<svg viewBox="0 0 800 356.36" xmlns="http://www.w3.org/2000/svg">
    <path d="M268.804 251.007l-1.112-148.436 63.655-.556 1.668 247.95-60.598.555-3.057-19.18c-15.289 16.4-35.303 25.018-60.042 25.018-29.187.278-52.814-9.73-70.882-29.465-18.068-20.014-27.241-45.865-27.52-78.11l-.555-87.838-46.421.278 1.39 190.687-63.655.556L.007 105.629c-.278-30.577 8.06-55.872 24.74-75.608S64.495.278 93.96 0c3.335 0 8.617.278 15.844.834l.278 59.763c-1.112 0-2.224 0-3.614-.278s-2.501-.277-3.335-.277c-26.686.277-39.75 15.01-39.472 44.197l109.798-.834 1.112 144.822c0 4.726.556 9.173 1.668 13.899 1.112 4.447 3.057 9.729 6.115 15.288s7.783 10.007 14.732 13.62c6.672 3.614 15.01 5.282 24.462 5.282 13.342 0 24.74-4.448 33.356-13.065s13.343-19.457 13.899-32.244zm405.836 45.587c25.851-.278 45.031-9.729 56.984-28.63l63.099-.557c-6.95 25.017-21.126 45.587-42.251 61.432s-45.866 23.905-74.496 24.183c-26.686.278-50.591-6.95-71.995-21.682s-36.692-34.19-45.865-58.373c-.278 21.96-9.173 41.14-27.24 56.983-18.069 16.123-45.032 24.184-81.168 24.462-37.248.278-65.045-6.394-83.669-20.014s-29.187-34.19-31.689-61.71l64.49-.555c5.003 19.735 21.681 29.464 49.478 29.186 12.787 0 23.628-2.501 32.523-7.227s13.342-10.84 13.064-18.902c0-3.891-1.39-7.505-4.17-10.563s-7.227-5.559-12.786-7.505c-5.837-1.946-10.84-3.335-14.732-4.447-4.17-.834-10.007-1.946-17.512-3.058s-12.231-1.946-13.899-2.224c-7.505-1.39-12.787-2.223-16.122-2.78-3.058-.555-8.617-1.945-16.4-4.169s-13.899-4.17-18.069-6.393-9.45-5.004-15.566-8.895c-6.393-3.614-11.119-7.783-14.176-12.231s-5.838-10.007-8.617-16.4c-2.502-6.671-3.892-13.899-3.892-21.682-.278-24.461 8.061-43.92 25.017-58.652s43.086-22.237 78.944-22.515c65.6-.556 101.459 25.295 107.574 77.554l-61.987.555c-5.837-18.068-21.126-26.963-46.421-26.685-25.573.278-38.36 9.451-38.36 27.797 0 3.336 1.39 6.116 3.614 8.617s6.115 4.448 11.118 6.116 9.173 2.78 12.787 3.613 8.617 1.668 14.732 2.224c6.116.834 10.007 1.39 11.397 1.668 23.906 4.17 43.642 9.45 58.93 15.566 15.288 6.394 26.685 15.567 33.912 28.075-.834-5.837-1.112-10.84-1.112-14.732-.278-36.136 11.397-66.991 35.303-92.842s53.648-38.916 89.506-39.194c37.804-.278 68.103 13.065 90.618 40.028 22.794 26.963 34.19 63.099 34.468 108.408l-190.41 1.39c4.448 16.122 12.51 28.909 24.462 38.916 12.509 11.119 25.852 15.844 40.584 15.844zm1.39-153.44c-31.689.279-53.648 18.069-66.713 53.649l130.09-.834c-12.509-35.302-33.634-53.092-63.377-52.814z" fill="#fff"/>
</svg>
