<svg Googl="true" version="1.1" viewBox="0 0 800 226.9" xmlns="http://www.w3.org/2000/svg">
 <desc>Created with Sketch.</desc>
 <g transform="matrix(5.0609 0 0 5.0609 -3199.4 -606.25)">
  <g id="22_Web-Reihenfolge" transform="matrix(.68974 0 0 .68974 632.18 119.79)" fill="none" fill-rule="evenodd">
   <g id="STATION-LOGOS-SENDERHOMES" transform="translate(-854,-750)" fill="#78b41d">
    <g id="GEO" transform="translate(695,738)">
     <g transform="translate(159,12)">
      <path d="m138.23 65c16.925 0 31.766-12.203 31.766-32.293 0-21.667-15.841-32.707-31.766-32.707-15.091 0-30.682 10.958-30.682 32.624 0 20.089 14.09 32.458 30.682 32.375zm-24.595-13.117-0.58349-1.1624c-6.0867 11.539-9.5885 10.377-21.761 10.46-13.757-0.08365-14.09 0.49819-14.09-4.3169v-24.074l14.673 0.0833c8.7544 0 9.7551 2.4901 10.839 8.5506l0.50071 0.08294v-20.255h-0.50071c-1.6673 7.1391-1.7506 8.7996-10.839 8.7996h-14.673v-21.75c0-3.2378 1.1673-3.8188 3.1682-3.8188h13.506c8.8379 0 11.089 1.7432 12.924 5.7282 0.58348 1.1619 0.83393 2.5732 1.167 4.2333l0.50036 0.08312v-13.116l-49.191 0.082943v0.6639c6.0029 0.49801 8.254 2.1585 8.254 9.7127v42.253c0 7.7204 0.25009 8.6337-7.5869 9.962v0.41454h49.19l4.5029-12.701zm-113.64-18.761c0.083482 19.923 17.842 31.794 36.435 31.794 9.5045 0 23.512-4.7313 23.512-6.3919v-19.093c0-7.3052 3.5016-8.4673 7.6702-8.2185l-0.0833-0.91291-24.762 0.08294 0.08348 0.74702c6.5865 0.49801 7.5871 0.9962 7.5871 9.3804v15.275c0 3.1543-6.5865 6.3086-13.173 6.3086-14.924 0-26.68-11.289-26.68-28.39 0-23.825 16.008-29.968 25.179-29.968 13.257 0 22.761 8.0522 24.179 16.934l0.83357-0.08259-0.66714-19.01-0.83357-0.082943c-0.50018 2.2414-2.0846 3.9845-3.9187 3.6525-4.1688-0.74702-10.172-4.4828-20.343-4.4828-20.51 0-35.017 16.603-35.017 32.458zm138.23 28.557c-10.171-0.08312-20.094-8.3018-20.01-29.055-0.084-21.5 10.255-29.303 20.01-29.221 11.089 0 20.927 7.7203 20.927 29.221 0 20.753-10.005 29.055-20.927 29.055z"/>
     </g>
    </g>
   </g>
  </g>
  <g transform="scale(.93847 1.0656)" fill="#78b41d" stroke-width=".40105" aria-label="HD">
   <path d="m805.32 132.85v-20.056h2.6541v8.236h10.425v-8.236h2.6541v20.056h-2.6541v-9.4536h-10.425v9.4536z"/>
   <path d="m825.48 132.85v-20.056h6.9089q2.3395 0 3.5708 0.2873 1.7238 0.39675 2.9414 1.4365 1.587 1.3407 2.3668 3.4339 0.7935 2.0795 0.7935 4.761 0 2.2847-0.53356 4.0496t-1.3681 2.9278q-0.83455 1.1492-1.8333 1.8196-0.98504 0.65669-2.3942 0.99872-1.3955 0.34202-3.215 0.34202zm2.6541-2.3668h4.2822q1.9838 0 3.1056-0.36939 1.1355-0.36939 1.8059-1.0398 0.94399-0.94399 1.4639-2.531 0.53356-1.6007 0.53356-3.8717 0-3.1466-1.0398-4.8294-1.0261-1.6965-2.5036-2.2711-1.0671-0.41043-3.434-0.41043h-4.2138z"/>
  </g>
 </g>
</svg>
