<svg version="1.1" viewBox="0 0 800 341.38" xmlns="http://www.w3.org/2000/svg">
 <style>.st0{fill:#c5d92d}</style>
 <g stroke-width="5.7471">
  <path d="m228.16 0.57471 0.57471 2.2988v67.241h-151.15c-5.1724 0-7.4713 2.2988-7.4713 7.4713v73.563c0 5.1724 2.2988 7.4712 7.4713 7.4712h73.563c4.5977 0 7.4713-2.2988 7.4713-6.3218 0-4.023-2.8736-6.3218-8.046-6.3218h-67.816v-63.218h145.98v145.98h-228.74v-228.16zm329.31 0 0.57471 3.4483v224.71h-75.862v-152.3h-76.437v151.72h-76.437v-227.59zm241.38 227.59h-54.023c-1.1494 0-2.8736-1.1494-4.023-1.7241l-53.448-53.448c-1.1494-1.1494-1.1494-1.7241-2.8736-4.023-1.1494 1.7241-1.7241 2.8736-2.8736 4.023l-53.448 53.448c-1.1494 1.1494-2.8736 2.2988-4.023 2.2988h-54.023v-53.448c0-1.7241 1.1494-3.4483 1.7241-4.5977l56.322-56.322-2.8736-2.8736c-17.241-17.241-33.908-34.483-51.724-51.724-2.8736-2.8736-4.5977-5.7471-4.023-9.7701 0.57471-16.667 0-33.908 0-50h56.896l1.1494 1.7241c18.391 18.391 36.207 36.207 55.172 54.598 0.57472 0.57471 1.1494 1.1494 1.7241 1.1494l1.1494-1.1494 56.322-54.598 1.1494-1.1494h56.896v56.322l-56.322 56.322-1.7241 1.7241 2.2988 2.8736 48.851 48.851 6.8966 6.3218c-1.1494 18.391-1.1494 36.782-1.1494 55.172z" fill="#fff"/>
  <path class="st0" d="m316.67 0.57471v69.54h-76.437v-69.54z" fill="#c5d92d"/>
  <path d="m296.55 341.38-5.7471-1.7241c-17.241-5.1724-28.161-21.839-25.862-40.23 2.2988-18.391 16.667-32.184 34.483-33.333 20.69-1.1494 37.356 11.494 40.805 30.46 3.4483 21.264-9.1954 39.655-30.46 44.253l-1.1494 0.57471zm6.3218-12.069c14.368 0 24.713-10.92 24.713-25.287 0-14.368-10.92-25.862-24.713-25.862s-24.713 11.494-24.713 25.862c0.57471 14.368 10.92 25.287 24.713 25.287z" fill="#fff"/>
  <path class="st0" d="m0 271.26c1.7241-2.8736 4.5977-4.023 8.046-4.023h39.08c4.5977 0 6.8965 2.2988 6.8965 5.7471 0 3.4483-2.8736 5.7471-6.8965 5.7471h-34.483v18.391h30.46c4.023 0 6.3218 2.8736 6.3218 6.3218s-2.8736 5.7471-6.3218 5.7471h-30.46v19.54h35.632c2.8736 0 4.5977 1.1494 5.7471 3.4483 0.57472 1.7241 0.57472 4.5977-0.57471 5.7471-1.1494 1.1494-3.4483 2.8736-5.1724 2.8736h-40.805c-3.4483 0-5.7471-1.1494-7.4713-4.023z" fill="#c5d92d"/>
  <path d="m110.92 341.38-4.5977-1.1494c-5.7471-2.2988-11.494-4.5977-16.667-7.4713-4.023-2.2988-4.5977-6.3218-2.8736-9.1954 2.2988-2.8736 6.3218-3.4483 9.7701-1.1494 4.5977 3.4483 9.7701 6.3218 14.943 6.3218 3.4483 0.57472 7.4712 0 10.92-1.1494 4.023-1.1494 6.3218-4.023 6.3218-8.046 0-4.023-2.2988-6.3218-5.7471-8.046-4.5977-1.7241-8.6207-2.8736-12.644-4.023l-10.345-3.4483c-7.4712-2.8736-12.069-8.6207-12.069-16.667 0-8.6207 3.4483-14.943 11.494-18.966 8.046-4.5977 16.667-4.023 25.287-1.7241 4.023 1.1494 8.046 2.8736 11.494 5.1724 2.8736 1.7241 4.023 5.1724 2.2988 8.046-1.7241 2.8736-5.1724 3.4483-8.046 2.2988-4.5977-1.7241-8.6207-4.5977-13.218-5.1724-3.4483-1.1494-7.4713 0.57471-10.92 1.1494-2.8736 1.1494-4.5977 4.023-4.5977 6.8965s1.1494 5.7471 4.5977 6.8966l13.218 4.5977c4.023 1.1494 8.046 2.8736 12.069 4.5977 6.8965 2.8736 11.494 8.6207 11.494 16.667s-2.8736 14.943-10.345 18.966c-3.4483 1.7241-7.4712 2.8736-11.494 4.023 0 0.57471-10.345 0.57471-10.345 0.57471zm470.11 0c-4.5977-1.1494-9.7701-2.8736-14.943-4.5977-2.8736-1.1494-5.1724-2.8736-8.046-4.5977-3.4483-2.2988-4.023-6.3218-2.2988-8.6207 2.2988-2.8736 6.3218-3.4483 9.1954-1.1494 4.5977 3.4483 9.7701 6.3218 16.092 6.8966 4.023 0.57471 8.046 0 11.494-1.1494 3.4483-1.1494 5.7471-3.4483 5.7471-7.4713 0.57471-4.023-1.7241-6.3218-5.1724-8.046l-13.218-4.5977c-4.023-1.1494-7.4712-2.2988-11.494-4.023-14.943-6.3218-13.793-27.011-2.8736-33.908 8.6207-5.7471 18.391-6.3218 27.586-3.4483 4.023 1.1494 8.046 2.8736 11.494 5.1724 2.8736 1.7241 4.023 5.1724 2.2988 8.046-1.7241 2.8736-5.1724 3.4483-8.6207 2.2988-4.5977-2.2988-8.6207-4.5977-13.218-5.1724-3.4483-0.57471-7.4712 0-10.92 1.7241-6.3218 2.8736-6.3218 10.92 0 13.793 4.5977 2.2988 9.1954 2.8736 13.218 4.5977 4.023 1.1494 8.046 2.8736 12.069 4.5977 6.8965 2.8736 10.92 8.6207 10.92 16.667 0 8.046-2.8736 14.943-9.7701 18.391-3.4483 1.7241-8.046 2.8736-11.494 4.023-2.2988 0.57471-5.1724 0.57471-8.046 0.57471z" fill="#fff"/>
  <path class="st0" d="m760.92 341.38c-2.8736-1.1494-4.5977-4.023-6.3218-6.8966l-24.713-58.046c-1.7241-4.5977-0.57471-7.4713 2.8736-9.1954 3.4483-1.7241 7.4713 0 9.1954 4.023l1.1494 1.7241 18.966 47.126c0.57471 1.1494 1.1494 1.7241 1.1494 3.4483 1.7241-4.023 2.8736-7.4712 4.5977-10.92l16.667-40.805c1.1494-3.4483 4.023-5.1724 6.8965-5.1724 4.5977 0.57472 7.4713 4.5977 5.1724 9.1954-4.5977 10.92-9.1954 21.839-13.793 32.184l-10.92 25.287c-1.1494 2.8736-2.8736 5.7471-6.3218 7.4713-1.7241 0.57471-2.8736 0.57471-4.5977 0.57471z" fill="#c5d92d"/>
  <path d="m316.67 228.16h-75.862v-145.4h75.862zm104.02 83.908c4.5977 5.1724 8.046 10.345 12.069 14.943l2.8736 3.4483c1.7241 2.8736 1.7241 5.7471-0.57471 8.046s-5.7471 2.8736-8.046 1.1494c-1.1494-1.1494-2.2988-1.7241-2.8736-2.8736l-15.517-20.115c-1.1494-1.1494-2.8736-2.2988-4.5977-2.2988-4.5977-0.57471-8.6207 0-13.218 0v18.391c0 4.5977-2.8736 7.4713-6.3218 7.4713s-6.3218-2.8736-6.3218-7.4713v-58.046c0-5.7471 2.2988-8.046 8.046-8.046 8.6207 0 16.667-0.57471 25.287 0 4.5977 0 8.6207 1.1494 12.644 2.8736 8.6207 3.4483 13.218 9.7701 13.218 19.54 0.57471 9.7701-3.4483 16.667-12.069 21.264zm-30.46-32.759v23.563h18.966c1.7241 0 4.023-0.57471 5.7471-1.1494 6.3218-1.7241 9.1954-6.3218 8.6207-12.069-0.57472-5.7471-4.023-10.345-9.7701-10.92-7.4713 0-14.943 0.57471-23.563 0.57471zm-199.43 37.356v16.667c0 1.7241-0.57471 3.4483-1.1494 5.1724-1.1494 2.2988-4.023 2.8736-6.3218 2.2988-2.8736-0.57471-4.5977-2.8736-4.5977-5.1724-0.57471-1.1494 0-2.2988 0-3.4483v-56.322c0-6.3218 2.2988-8.046 8.046-8.046 9.1954 0 18.391-0.57471 27.011 1.1494 13.218 1.7241 21.264 10.92 21.264 23.563s-7.4713 21.839-20.115 24.138c-6.3218 1.1494-12.644 1.1494-18.966 1.1494-1.1494-1.1494-5.1724-1.1494-5.1724-1.1494zm0-37.356v25.862c6.8965-0.57472 14.368-0.57472 20.69-1.1494 6.3218-1.1494 9.7701-6.3218 9.7701-13.218-0.57471-6.3218-4.023-10.92-10.345-11.494-6.3218-0.57471-13.218 0-20.115 0zm313.22 0v55.172c-0.57471 3.4483-2.8736 6.3218-6.8965 5.7471-3.4483 0-6.3218-2.8736-6.3218-6.3218v-54.598h-17.816c-3.4483 0-5.7471-2.8736-5.7471-6.3218 0-2.8736 2.2988-5.7471 5.7471-5.7471h48.851c2.8736 0 5.7471 2.8736 5.7471 5.7471s-2.2988 6.3218-5.7471 6.3218z" fill="#fff" Googl="true"/>
  <path class="st0" d="m677.01 279.31v54.023c0 4.5977-2.8736 8.046-6.8965 7.4713-3.4483-0.57471-5.7471-2.8736-5.7471-7.4713v-54.023h-18.391c-3.4483-0.57471-5.7471-2.8736-5.1724-6.3218 0.57471-2.8736 2.8736-5.1724 6.3218-5.7471h47.126c4.5977 0 6.8965 2.2988 6.8965 6.3218 0 3.4483-2.8736 6.3218-6.8965 6.3218h-17.241z" fill="#c5d92d"/>
 </g>
</svg>
