<?xml version="1.0" encoding="UTF-8" standalone="no"?>
<svg xmlns:rdf="http://www.w3.org/1999/02/22-rdf-syntax-ns#" xmlns="http://www.w3.org/2000/svg" height="201.57" viewBox="0 0 600 201.57318" width="600" version="1.1" xmlns:cc="http://creativecommons.org/ns#" xmlns:dc="http://purl.org/dc/elements/1.1/">
 <defs>
  <radialGradient id="a" gradientUnits="userSpaceOnUse" cy="-63.573" cx="399.39" gradientTransform="matrix(-2.6662 0 0 -.16629 1309.8 162.26)" r="108.31">
   <stop stop-opacity=".8125" offset="0"/>
   <stop stop-opacity="0" offset="1"/>
  </radialGradient>
  <linearGradient id="c" x1="266.37" gradientUnits="userSpaceOnUse" y1="542.33" gradientTransform="matrix(3.179 0 0 3.179 -839.14 -1678.8)" x2="422.72" y2="542.33">
   <stop stop-color="#d3a11a" offset="0"/>
   <stop stop-color="#f3c000" offset=".20066"/>
   <stop stop-color="#ffd309" offset=".40131"/>
   <stop stop-color="#ffd92c" offset=".6046"/>
   <stop stop-color="#fcd738" offset=".80208"/>
   <stop stop-color="#f3ca20" offset="1"/>
  </linearGradient>
  <linearGradient id="d" x1="302.11" gradientUnits="userSpaceOnUse" y1="-102.56" gradientTransform="matrix(2.2875 0 0 2.2875 -648.95 323.87)" x2="463.03" y2="-102.56">
   <stop stop-color="#0f0f0f" offset="0"/>
   <stop stop-color="#2c2c2c" offset=".70131"/>
   <stop stop-color="#1e1e1e" offset="1"/>
  </linearGradient>
  <linearGradient id="b" x1="485.33" gradientUnits="userSpaceOnUse" x2="479.76" gradientTransform="matrix(2.2875 0 0 2.2875 -648.95 323.87)" y1="-102.72" y2="-106.25">
   <stop stop-opacity="0" offset="0"/>
   <stop stop-color="#1e1e1e" offset="1"/>
  </linearGradient>
 </defs>
 <g fill-rule="evenodd">
  <path d="m509.4 7.2166 12.28 12.283-37.02 138.17-85.1-49.13 15.43-57.576z" fill-opacity=".52157" stroke-width=".86947" fill="url(#b)"/>
  <path d="m509.54 173.21c0 15.66-113.99 28.36-254.61 28.36s-254.61-12.7-254.61-28.36c-0.00425-15.67 113.99-28.37 254.61-28.37 140.61 0 254.61 12.7 254.61 28.37z" stroke-width="2.4129" fill="url(#a)"/>
  <rect rx="6.0821" ry="6.0821" height="182.91" width="12.164" y="0" x="0" stroke-width=".86947" fill="#040404"/>
 </g>
 <path d="m6.4741 175.7h502.97l-69.94-82.653 69.94-85.834c-137.93-1.1047-399.18-2.3543-502.97 0.001z" stroke-width=".86947" fill="url(#c)"/>
 <path d="m87.543 46.656c-6.638 0-12.741 1.138-18.299 3.502-5.559 2.365-10.375 5.616-14.44 9.722-4.065 4.107-7.226 8.862-9.507 14.297-2.281 5.434-3.431 11.292-3.431 17.512v0.287c0 6.471 1.12 12.394 3.359 17.874 2.24 5.47 5.34 10.24 9.364 14.22 4.025 3.98 8.84 7.05 14.44 9.29 5.599 2.24 11.782 3.36 18.586 3.36 7.965 0 15.055-1.3 21.235-4s11.53-5.98 16.01-9.79v-37.816h-37.817v16.516h19.297v12.43c-4.89 3.49-10.946 5.29-18.081 5.29-3.899 0-7.457-0.7-10.651-2.07s-5.927-3.3-8.292-5.79-4.218-5.43-5.504-8.79c-1.287-3.362-1.931-7.028-1.93-11.01v-0.215c-0.001-3.734 0.643-7.302 1.93-10.579 1.286-3.278 3.08-6.131 5.361-8.579 2.281-2.446 4.906-4.338 7.934-5.79s6.307-2.215 9.793-2.215c2.489 0 4.789 0.227 6.863 0.643 2.073 0.415 4.006 0.969 5.79 1.715 1.787 0.747 3.487 1.638 5.147 2.717 1.66 1.078 3.27 2.378 4.93 3.788l12.08-14.582c-2.24-1.909-4.53-3.583-6.93-5.076-2.41-1.492-4.99-2.792-7.72-3.788-2.74-0.996-5.74-1.748-8.937-2.288-3.194-0.539-6.681-0.786-10.58-0.786zm98.217 0c-6.72 0-12.98 1.138-18.66 3.502-5.68 2.365-10.55 5.616-14.65 9.722-4.11 4.107-7.33 8.862-9.65 14.297-2.33 5.434-3.51 11.292-3.51 17.512v0.287c0 6.22 1.15 12.004 3.44 17.444 2.28 5.43 5.47 10.2 9.57 14.22 4.11 4.03 9.02 7.22 14.66 9.58 5.64 2.37 11.79 3.5 18.51 3.5s12.91-1.13 18.59-3.5c5.68-2.36 10.62-5.61 14.72-9.72 4.11-4.11 7.33-8.86 9.65-14.3 2.33-5.43 3.44-11.288 3.44-17.511v-0.215c0-6.223-1.08-12.078-3.36-17.513-2.29-5.434-5.48-10.13-9.58-14.153-4.11-4.023-9.01-7.285-14.66-9.65-5.64-2.365-11.79-3.503-18.51-3.503zm63.12 1.501v87.073h62.62v-17.37h-43.46v-69.701h-19.16zm81.06 0v87.073h33.95c6.81 0 13.05-1.12 18.73-3.36s10.55-5.25 14.66-9.15c4.1-3.9 7.26-8.56 9.5-13.87s3.36-11.018 3.36-17.157v-0.215c0-6.139-1.12-11.886-3.36-17.155s-5.4-9.826-9.5-13.725c-4.11-3.899-8.97-6.951-14.66-9.149-5.68-2.199-11.92-3.288-18.73-3.288h-33.95zm-144.46 16.155c3.81 0 7.34 0.764 10.58 2.216 3.23 1.452 6.07 3.372 8.43 5.861 2.37 2.489 4.15 5.402 5.43 8.721 1.29 3.319 1.93 6.848 1.93 10.58v0.286c0 3.732-0.64 7.23-1.93 10.504-1.28 3.28-3.07 6.16-5.36 8.65-2.28 2.49-4.98 4.38-8.22 5.79-3.23 1.41-6.76 2.15-10.58 2.15-3.9 0-7.45-0.69-10.65-2.15-3.19-1.45-6-3.44-8.36-5.93-2.37-2.49-4.22-5.4-5.51-8.72-1.28-3.319-1.93-6.846-1.93-10.581v-0.214c0-3.734 0.65-7.302 1.93-10.58 1.29-3.277 3.08-6.16 5.37-8.649 2.28-2.489 5.02-4.38 8.22-5.79 3.19-1.41 6.75-2.144 10.65-2.144zm163.62 1.143h14.8c3.9 0 7.41 0.644 10.65 1.93s6.01 3.039 8.29 5.362 4.08 5.127 5.36 8.363c1.29 3.236 1.93 6.764 1.93 10.58v0.286c0 3.899-0.64 7.427-1.93 10.584-1.28 3.15-3.08 5.82-5.36 8.14-2.28 2.33-5.05 4.12-8.29 5.37-3.24 1.24-6.75 1.85-10.65 1.85h-14.8v-52.464z" stroke-width=".86947" fill="url(#d)"/>
 <path d="m532.35 91.546v-20.957h-16.94v20.957h-21.09v17.064h21.09v20.96h16.94v-20.96h21.08v-17.064z" fill="#fff"/>
 <path d="m600 136.72v-85.332h-15.06l-21.71 4.894v17.695l15.06-3.263v66.006z" fill="#fff"/>
</svg>
