<?xml version="1.0" encoding="UTF-8" standalone="no"?>
<svg xmlns:rdf="http://www.w3.org/1999/02/22-rdf-syntax-ns#" xmlns="http://www.w3.org/2000/svg" height="231.83" viewBox="0 0 600 231.83352" width="600" version="1.1" xmlns:cc="http://creativecommons.org/ns#" xmlns:dc="http://purl.org/dc/elements/1.1/">
 <defs>
  <radialGradient id="a" gradientUnits="userSpaceOnUse" cy="-63.573" cx="399.39" gradientTransform="matrix(-1.1342 0 0 -.067138 844.35 -70.287)" r="108.31">
   <stop stop-opacity=".8125" offset="0"/>
   <stop stop-opacity="0" offset="1"/>
  </radialGradient>
  <linearGradient id="c" x1="266.37" gradientUnits="userSpaceOnUse" y1="542.33" gradientTransform="matrix(3.6563 0 0 3.6563 -871.81 -1727.2)" x2="422.72" y2="542.33">
   <stop stop-color="#d3a11a" offset="0"/>
   <stop stop-color="#f3c000" offset=".20066"/>
   <stop stop-color="#ffd309" offset=".40131"/>
   <stop stop-color="#ffd92c" offset=".6046"/>
   <stop stop-color="#fcd738" offset=".80208"/>
   <stop stop-color="#f3ca20" offset="1"/>
  </linearGradient>
  <linearGradient id="d" x1="302.11" gradientUnits="userSpaceOnUse" y1="-102.56" gradientTransform="matrix(2.6309 0 0 2.6309 -653.07 576.13)" x2="463.03" y2="-102.56">
   <stop stop-color="#0f0f0f" offset="0"/>
   <stop stop-color="#2c2c2c" offset=".70131"/>
   <stop stop-color="#1e1e1e" offset="1"/>
  </linearGradient>
  <linearGradient id="b" x1="485.33" gradientUnits="userSpaceOnUse" x2="479.76" gradientTransform="matrix(2.6309 0 0 2.6309 -653.07 576.13)" y1="-102.72" y2="-106.25">
   <stop stop-opacity="0" offset="0"/>
   <stop stop-color="#1e1e1e" offset="1"/>
  </linearGradient>
 </defs>
 <g transform="translate(-93.304 -203.64)">
  <g fill-rule="evenodd">
   <path d="m679.18 211.94 14.13 14.13-42.58 158.91-97.88-56.51 17.75-66.21z" fill-opacity=".52157" fill="url(#b)"/>
   <path d="m503.94-65.865c0 6.325-48.49 11.453-108.31 11.453s-108.31-5.128-108.31-11.453 48.49-11.453 108.31-11.453 108.31 5.128 108.31 11.453z" transform="matrix(2.7037 0 0 2.8486 -683.15 590.47)" fill="url(#a)"/>
   <rect rx="6.9952" ry="6.9952" height="210.37" width="13.99" y="203.64" x="93.304" fill="#040404"/>
  </g>
  <path fill="url(#c)" d="m100.75 405.72h578.47l-80.44-95.06 80.44-98.72c-158.63-1.27-459.1-2.71-578.47 0z"/>
  <path fill="url(#d)" d="m193.99 257.3c-7.64 0-14.65 1.31-21.05 4.03-6.39 2.72-11.93 6.46-16.6 11.18-4.68 4.72-8.31 10.19-10.94 16.44-2.62 6.25-3.95 12.99-3.95 20.14v0.33c0 7.45 1.29 14.26 3.87 20.56 2.57 6.29 6.14 11.78 10.77 16.36s10.17 8.11 16.61 10.69c6.44 2.57 13.55 3.86 21.37 3.86 9.16 0 17.31-1.5 24.42-4.6 7.11-3.11 13.26-6.88 18.42-11.27v-43.49h-43.5v18.99h22.2v14.31c-5.63 4.01-12.59 6.08-20.8 6.08-4.48 0-8.57-0.81-12.25-2.38-3.67-1.58-6.81-3.8-9.53-6.66s-4.86-6.25-6.33-10.11c-1.48-3.87-2.22-8.08-2.22-12.67v-0.24c0-4.3 0.74-8.4 2.22-12.17 1.47-3.77 3.54-7.05 6.16-9.87 2.62-2.81 5.64-4.99 9.13-6.66 3.48-1.67 7.25-2.54 11.26-2.54 2.86 0 5.51 0.26 7.89 0.74 2.39 0.47 4.61 1.11 6.66 1.97s4.01 1.88 5.92 3.12 3.77 2.74 5.67 4.36l13.9-16.77c-2.58-2.2-5.21-4.12-7.98-5.84-2.76-1.71-5.73-3.21-8.88-4.36-3.14-1.14-6.6-2.01-10.27-2.63-3.68-0.62-7.69-0.9-12.17-0.9zm112.96 0c-7.73 0-14.92 1.31-21.46 4.03-6.53 2.72-12.13 6.46-16.85 11.18-4.73 4.72-8.43 10.19-11.1 16.44s-4.03 12.99-4.03 20.14v0.33c0 7.16 1.32 13.81 3.95 20.06 2.62 6.25 6.29 11.74 11.01 16.36 4.73 4.63 10.37 8.3 16.86 11.02s13.56 4.03 21.29 4.03 14.84-1.31 21.38-4.03c6.53-2.72 12.21-6.46 16.93-11.18 4.73-4.72 8.43-10.19 11.1-16.44s3.95-12.99 3.95-20.15v-0.24c0-7.16-1.24-13.89-3.86-20.15-2.63-6.25-6.3-11.65-11.02-16.27-4.73-4.63-10.37-8.38-16.86-11.1s-13.56-4.03-21.29-4.03zm72.59 1.73v100.14h72.02v-19.98h-49.98v-80.16h-22.03zm93.24 0v100.14h39.05c7.82 0 15-1.29 21.54-3.87 6.53-2.57 12.13-6.04 16.85-10.52 4.73-4.49 8.36-9.84 10.94-15.95 2.57-6.11 3.86-12.67 3.86-19.73v-0.25c0-7.06-1.29-13.67-3.86-19.73-2.58-6.06-6.21-11.3-10.94-15.78-4.72-4.49-10.32-8-16.85-10.53-6.54-2.53-13.72-3.78-21.54-3.78h-39.05zm-166.15 18.58c4.38 0 8.44 0.88 12.16 2.55 3.73 1.67 6.99 3.87 9.71 6.74 2.72 2.86 4.77 6.21 6.24 10.03 1.48 3.81 2.22 7.87 2.22 12.16v0.33c0 4.3-0.74 8.32-2.22 12.09-1.47 3.77-3.54 7.08-6.16 9.95-2.63 2.86-5.74 5.03-9.46 6.66-3.72 1.62-7.78 2.46-12.17 2.46-4.48 0-8.57-0.79-12.25-2.46-3.67-1.67-6.89-3.97-9.61-6.83s-4.86-6.21-6.33-10.03c-1.48-3.81-2.22-7.87-2.22-12.17v-0.24c0-4.3 0.74-8.4 2.22-12.17 1.47-3.77 3.54-7.09 6.16-9.95 2.63-2.86 5.78-5.04 9.46-6.66 3.67-1.62 7.76-2.46 12.25-2.46zm188.19 1.31h17.01c4.49 0 8.53 0.74 12.25 2.22 3.73 1.48 6.92 3.5 9.54 6.17s4.69 5.9 6.17 9.62 2.22 7.78 2.22 12.16v0.33c0 4.49-0.74 8.55-2.22 12.17-1.48 3.63-3.55 6.7-6.17 9.37-2.62 2.68-5.81 4.74-9.54 6.17-3.72 1.43-7.76 2.14-12.25 2.14h-17.01v-60.35z"/>
 </g>
</svg>
