<svg version="1.1" viewBox="0 0 600 171.4" xmlns="http://www.w3.org/2000/svg">
 <g transform="translate(-.6578 -470.52)">
  <g transform="matrix(1.1968 0 0 1.1968 -59.181 -109.49)">
   <path d="m73.846 627.82h477.47v-143.21h-477.47z" fill="#2c2c2e"/>
   <g transform="matrix(21.998 0 0 -21.998 375.29 524.73)">
    <path d="m0 0c-1.559-1.315-4.685-3.26-10.226-2.383-0.099-0.044-0.213-0.07-0.349-0.07-0.25 0-0.46 0.087-0.633 0.25-1.103 0.23-2.293 0.567-3.579 1.038v-2.039c8.163-2.679 12.918 1.182 14.883 3.16l-0.096 0.044" fill="#99d324"/>
   </g>
   <g transform="matrix(21.998 0 0 -21.998 492.42 560.38)">
    <path d="m0 0v-1.307c0-0.049-0.01-0.069-0.049-0.069h-0.996c-0.033 0-0.053 0.025-0.053 0.059v1.307c0 0.054-0.02 0.073-0.063 0.073h-1.292c-0.039 0-0.059 0.024-0.059 0.068v0.991c0 0.039 0.015 0.058 0.054 0.058h1.302c0.038 0 0.058 0.019 0.058 0.063v1.122c0 0.03 0.02 0.049 0.048 0.049h0.992c0.039 0 0.058-0.014 0.058-0.049v-1.122c0-0.053 0.01-0.063 0.053-0.063h1.303c0.039 0 0.053-0.019 0.053-0.063v-0.996c0-0.034-0.019-0.058-0.053-0.058h-1.288c-0.053 0-0.068-0.01-0.068-0.063" fill="#fff"/>
   </g>
   <g transform="matrix(21.998 0 0 -21.998 182.9 548.56)">
    <path d="m0 0c0-0.315-0.024-0.581-0.078-0.794-0.101-0.426-0.319-0.76-0.648-1.002-0.315-0.232-0.692-0.348-1.133-0.348-0.571 0-1.036 0.179-1.399 0.532-0.358 0.354-0.537 0.818-0.537 1.394 0 0.581 0.179 1.05 0.542 1.409 0.363 0.358 0.842 0.537 1.433 0.537 0.489 0 0.881-0.135 1.186-0.412 0.111-0.101 0.218-0.237 0.319-0.396 0.034-0.058 0.078-0.131 0.121-0.213l-0.895-0.373c-0.073 0.16-0.15 0.281-0.237 0.368-0.14 0.14-0.32 0.213-0.533 0.213s-0.397-0.063-0.557-0.194c-0.145-0.121-0.251-0.285-0.319-0.489-0.048-0.14-0.073-0.295-0.073-0.46 0-0.333 0.093-0.609 0.272-0.822 0.184-0.213 0.421-0.32 0.706-0.32 0.305 0 0.514 0.112 0.635 0.329 0.043 0.078 0.077 0.18 0.101 0.31h-0.774v0.731h1.868" fill="#fff"/>
   </g>
   <g transform="matrix(21.998 0 0 -21.998 379.5 530.57)">
    <path d="m0 0v-0.605h1.031v-0.799h-1.031v-1.428h-0.944v3.631h2.077v-0.799z" fill="#fff"/>
   </g>
   <g transform="matrix(21.998 0 0 -21.998 256.91 537.95)">
    <path d="m0 0c-0.199 0.198-0.44 0.295-0.721 0.295-0.276 0-0.518-0.101-0.722-0.3-0.198-0.198-0.3-0.431-0.3-0.707 0-0.285 0.097-0.532 0.296-0.731 0.198-0.198 0.44-0.3 0.726-0.3 0.285 0 0.522 0.102 0.721 0.3 0.198 0.199 0.3 0.441 0.3 0.722 0 0.285-0.102 0.523-0.3 0.721m0.702-2.115c-0.387-0.364-0.862-0.543-1.423-0.543-0.567 0-1.046 0.184-1.433 0.547-0.383 0.368-0.576 0.818-0.576 1.356 0 0.411 0.106 0.779 0.319 1.103 0.213 0.325 0.509 0.566 0.881 0.717 0.242 0.097 0.504 0.145 0.789 0.145 0.586 0 1.07-0.184 1.453-0.547 0.382-0.363 0.575-0.828 0.575-1.384 0-0.567-0.193-1.031-0.585-1.394" fill="#fff"/>
   </g>
   <g transform="matrix(21.998 0 0 -21.998 300.42 592.86)">
    <path d="m0 0v3.631h0.944v-2.832h1.133v-0.799z" fill="#fff"/>
   </g>
  </g>
 </g>
</svg>
