<svg xmlns="http://www.w3.org/2000/svg" width="600" height="171.398">
    <path d="M28.543 171.398H600V0H28.543v171.398z" fill="#2c2c2e"/>
    <path d="M389.318 48.015c-41.046 34.622-123.349 85.83-269.234 62.74-2.607 1.159-5.608 1.844-9.189 1.844-6.582 0-12.11-2.291-16.666-6.583C65.19 99.961 33.86 91.088 0 78.688v53.683c214.919 70.534 340.11-31.12 391.845-83.198l-2.527-1.158" fill="#99d324"/>
    <path d="M529.503 90.678v34.41c0 1.291-.263 1.818-1.29 1.818H501.99c-.869 0-1.395-.659-1.395-1.554V90.941c0-1.422-.527-1.922-1.66-1.922H464.92c-1.027 0-1.554-.632-1.554-1.79V61.137c0-1.027.395-1.527 1.422-1.527h34.28c1 0 1.527-.5 1.527-1.658v-29.54c0-.79.526-1.291 1.263-1.291h26.118c1.027 0 1.527.369 1.527 1.29v29.54c0 1.396.263 1.66 1.396 1.66h34.305c1.027 0 1.396.5 1.396 1.658v26.223c0 .895-.5 1.527-1.396 1.527h-33.91c-1.396 0-1.79.263-1.79 1.659M159.058 76.531c0 8.294-.632 15.297-2.054 20.905-2.659 11.216-8.398 20.01-17.06 26.381-8.294 6.108-18.22 9.162-29.83 9.162-15.034 0-27.277-4.712-36.834-14.006-9.426-9.32-14.138-21.537-14.138-36.702 0-15.297 4.712-27.645 14.27-37.097 9.557-9.425 22.168-14.138 37.728-14.138 12.875 0 23.196 3.554 31.226 10.847 2.922 2.66 5.74 6.24 8.398 10.426.896 1.527 2.054 3.45 3.186 5.608l-23.564 9.82c-1.922-4.212-3.949-7.398-6.24-9.688-3.686-3.686-8.425-5.608-14.033-5.608-5.608 0-10.452 1.658-14.664 5.108-3.818 3.185-6.609 7.503-8.4 12.874-1.263 3.686-1.921 7.767-1.921 12.111 0 8.767 2.448 16.034 7.161 21.642 4.845 5.608 11.084 8.425 18.588 8.425 8.03 0 13.533-2.949 16.718-8.662 1.133-2.054 2.028-4.739 2.66-8.162h-20.379V76.531h49.182M394.357 55V70.93H421.5v21.036h-27.144v37.597h-24.854V33.964h54.684V55h-29.83zM247.64 63.836c-5.24-5.213-11.585-7.767-18.984-7.767-7.266 0-13.638 2.66-19.009 7.899-5.213 5.213-7.898 11.347-7.898 18.614 0 7.503 2.554 14.006 7.793 19.246 5.213 5.213 11.585 7.898 19.114 7.898 7.504 0 13.744-2.685 18.983-7.898 5.213-5.24 7.899-11.611 7.899-19.01 0-7.503-2.686-13.77-7.899-18.982m18.483 55.684c-10.19 9.584-22.695 14.297-37.466 14.297-14.928 0-27.54-4.845-37.728-14.402-10.084-9.689-15.165-21.536-15.165-35.701 0-10.821 2.79-20.51 8.398-29.04 5.608-8.557 13.402-14.902 23.196-18.878 6.371-2.554 13.27-3.817 20.773-3.817 15.428 0 28.171 4.844 38.255 14.401 10.057 9.557 15.139 21.8 15.139 36.439 0 14.928-5.082 27.144-15.402 36.701M299.714 129.552V33.953h24.854v74.562h29.83v21.037h-54.684z" fill="#fff"/>
</svg>
