<svg class="w-20 lg:w-32" version="1.1" viewBox="0 0 160.93 89.081" xmlns="http://www.w3.org/2000/svg">
 <path d="m3.39 0h149.74v89.081h-149.74z" fill="#231f20"/>
 <path d="m18.909 13.152a44.779 44.779 0 0 0 0.136 62.7 3.1 3.1 0 0 1-4.378 4.379 51.02 51.02 0 0 1-0.155-71.438 3.1 3.1 0 1 1 4.4 4.359zm8.756 8.778a32.306 32.306 0 0 0 0.13 45.139 3.1 3.1 0 1 1-4.381 4.374 38.545 38.545 0 0 1-0.156-53.861 3.08 3.08 0 0 1 4.369-0.038 3.111 3.111 0 0 1 0.038 4.386zm9.251 8.385a20.385 20.385 0 0 0 0.125 28.364 3.1 3.1 0 1 1-4.387 4.368 26.635 26.635 0 0 1-0.163-37.063 3.1 3.1 0 1 1 4.425 4.331zm14.165 20.253a8.664 8.664 0 1 1 0.974-12.208 8.693 8.693 0 0 1-0.974 12.208zm-4.006-4.724a2.465 2.465 0 0 0 0.275-3.461 2.443 2.443 0 0 0-4.3 1.4 2.214 2.214 0 0 0-8e-3 0.2 2.455 2.455 0 0 0 2.251 2.444 2.413 2.413 0 0 0 1.78-0.579zm99.098-38.384h14.76v73.702h-14.76z" fill="#ff0074"/>
 <g fill="#fff">
  <path d="m149.76 11.162h2.387a21.556 21.556 0 0 1 3.236 0.156 2.273 2.273 0 0 1 1.378 0.792 3.12 3.12 0 0 1 0.535 2.03 2.727 2.727 0 0 1-0.378 1.708 2.138 2.138 0 0 1-1.483 0.526 2.749 2.749 0 0 1 1.346 0.559 1.638 1.638 0 0 1 0.43 0.643 8.481 8.481 0 0 1 0.085 1.615v2.877h-3.136v-3.621a2.129 2.129 0 0 0-0.165-1.085c-0.108-0.141-0.4-0.209-0.86-0.209v4.915h-3.375zm3.376 1.864v2.428a1.7 1.7 0 0 0 0.8-0.133c0.153-0.088 0.229-0.369 0.229-0.852v-0.6c0-0.345-0.072-0.574-0.221-0.679a1.431 1.431 0 0 0-0.809-0.164zm2.708 11.925 1.933 10.9h-3.452l-0.181-1.961h-1.206l-0.205 1.961h-3.488l1.72-10.9zm-1.789 7.013a117.02 117.02 0 0 1-0.514-4.582c-0.342 2.09-0.559 3.613-0.647 4.582zm-4.412 6.78h2.524a18.823 18.823 0 0 1 3.307 0.188 2.718 2.718 0 0 1 1.31 0.619 1.859 1.859 0 0 1 0.563 0.961 12.55 12.55 0 0 1 0.112 2.078v3.818a7.539 7.539 0 0 1-0.164 1.961 1.451 1.451 0 0 1-0.575 0.776 2.542 2.542 0 0 1-1.009 0.389 10.493 10.493 0 0 1-1.812 0.113h-4.256zm3.376 1.864v7.174c0.486 0 0.783-0.08 0.9-0.245a3.075 3.075 0 0 0 0.169-1.338v-4.231a4.878 4.878 0 0 0-0.057-0.949 0.454 0.454 0 0 0-0.257-0.305 1.951 1.951 0 0 0-0.755-0.106zm2.17 11.927v10.9h-3.376v-10.9zm2.218 20.179a20.407 20.407 0 0 1-0.092 2.327 2.333 2.333 0 0 1-0.579 1.245 3.093 3.093 0 0 1-1.31 0.873 5.639 5.639 0 0 1-1.925 0.3 5.783 5.783 0 0 1-1.873-0.285 3.112 3.112 0 0 1-1.334-0.86 2.354 2.354 0 0 1-0.6-1.246 19.331 19.331 0 0 1-0.1-2.355v-1.865a19.332 19.332 0 0 1 0.093-2.327 2.375 2.375 0 0 1 0.575-1.25 3.068 3.068 0 0 1 1.31-0.868 5.6 5.6 0 0 1 1.925-0.306 5.674 5.674 0 0 1 1.873 0.29 3.049 3.049 0 0 1 1.334 0.856 2.369 2.369 0 0 1 0.6 1.246 19.423 19.423 0 0 1 0.1 2.359zm-3.376-3.585a2.831 2.831 0 0 0-0.1-0.973 0.413 0.413 0 0 0-0.414-0.213 0.5 0.5 0 0 0-0.406 0.173 2.124 2.124 0 0 0-0.137 1.013v5.092a4.073 4.073 0 0 0 0.093 1.173 0.409 0.409 0 0 0 0.426 0.221 0.416 0.416 0 0 0 0.442-0.257 4.541 4.541 0 0 0 0.1-1.218z"/>
  <path d="m133.23 7.46v8.108a7.119 7.119 0 0 0-5.409-2.333 6.142 6.142 0 0 0-3.6 1.046 4.635 4.635 0 0 0-1.927 2.423 17.842 17.842 0 0 0-0.423 4.675v13.378a17.421 17.421 0 0 0 0.423 4.568 4.734 4.734 0 0 0 1.907 2.465 5.869 5.869 0 0 0 3.51 1.066 6.724 6.724 0 0 0 2.887-0.648 8.965 8.965 0 0 0 2.629-1.944v2.075h8.7v-34.879zm0 26.713a9.4 9.4 0 0 1-0.283 3.006 1.1 1.1 0 0 1-1.12 0.615 0.987 0.987 0 0 1-0.988-0.549 6.481 6.481 0 0 1-0.258-2.3v-14a5.39 5.39 0 0 1 0.266-2.166 1.091 1.091 0 0 1 1.046-0.488 1.076 1.076 0 0 1 1.066 0.542 5.408 5.408 0 0 1 0.271 2.112zm-61.024 37.462v-25.267a7.577 7.577 0 0 0 3.1-2.08 5.773 5.773 0 0 0 1.456-2.756 48.921 48.921 0 0 0 0.199-5.764v-22.017h-8.1l-0.623 2.161a7.052 7.052 0 0 0-2.4-2.01 6.582 6.582 0 0 0-2.982-0.668 5.433 5.433 0 0 0-4.462 1.788q-1.464 1.79-1.464 5.86v10.386a13.392 13.392 0 0 0 0.562 4.384 4.854 4.854 0 0 0 2.079 2.489 7.2 7.2 0 0 0 3.868 0.947 6.613 6.613 0 0 0 2.6-0.521 8.274 8.274 0 0 0 2.359-1.533v2.157a5.836 5.836 0 0 1-0.324 2.436 1.363 1.363 0 0 1-1.313 0.582c-0.918 0-1.382-0.632-1.382-1.895h-8.444q0.087 4.14 2.609 5.549c0.187 0.1 0.385 0.2 0.586 0.295v35.006h22.1v-9.527zm-3.97-41.448a11.341 11.341 0 0 1-0.259 3.125 1.067 1.067 0 0 1-1.119 0.689 0.961 0.961 0 0 1-0.993-0.57 8.194 8.194 0 0 1-0.233-2.489v-9.609a6.169 6.169 0 0 1 0.311-2.424 1.1 1.1 0 0 1 1.067-0.615 0.963 0.963 0 0 1 1 0.542 8.2 8.2 0 0 1 0.226 2.5zm15.514 14.661h12.305v36.314h-12.305zm13.994 36.314h11.593v-13.722h9.637v-9.034h-9.637v-4.031h9.8v-9.527h-21.393zm34.731-9.527v-4.2h9.637v-9.034h-9.637v-4.031h9.8v-9.522h-21.393v36.314h21.779v-9.527zm-12.614-52.367a7.89 7.89 0 0 0-4.8-5.159 13.092 13.092 0 0 0-5.031-0.873 10.9 10.9 0 0 0-5.729 1.357 7.156 7.156 0 0 0-3.1 3.6 17.924 17.924 0 0 0-0.861 6.225v7.324a23.314 23.314 0 0 0 0.476 5.463 7.543 7.543 0 0 0 1.583 3.1 6.641 6.641 0 0 0 3.112 1.915 16.351 16.351 0 0 0 4.889 0.636 13.041 13.041 0 0 0 4.58-0.742 7.5 7.5 0 0 0 3.265-2.305 7.961 7.961 0 0 0 1.656-3.363 29.445 29.445 0 0 0 0.39-5.655v-7a17.774 17.774 0 0 0-0.43-4.523zm-8.284 15.555a7.348 7.348 0 0 1-0.246 2.412 1 1 0 0 1-1.026 0.561 0.989 0.989 0 0 1-1.008-0.615 8.335 8.335 0 0 1-0.259-2.641v-12.9a8.684 8.684 0 0 1 0.259-2.768 1.019 1.019 0 0 1 1.033-0.575 0.98 0.98 0 0 1 1.013 0.575 9.58 9.58 0 0 1 0.234 2.768z"/>
  <path d="m98.317 19.268a7.882 7.882 0 0 0-4.8-5.159 13.1 13.1 0 0 0-5.032-0.873 10.905 10.905 0 0 0-5.729 1.357 7.154 7.154 0 0 0-3.1 3.6 17.924 17.924 0 0 0-0.861 6.225v7.324a23.381 23.381 0 0 0 0.475 5.463 7.567 7.567 0 0 0 1.583 3.1 6.645 6.645 0 0 0 3.113 1.915 16.349 16.349 0 0 0 4.888 0.636 13.046 13.046 0 0 0 4.581-0.742 7.491 7.491 0 0 0 3.266-2.305 7.952 7.952 0 0 0 1.657-3.363 29.446 29.446 0 0 0 0.39-5.655v-7a17.765 17.765 0 0 0-0.431-4.523zm-8.286 15.555a7.347 7.347 0 0 1-0.246 2.412 1.174 1.174 0 0 1-2.034-0.054 8.375 8.375 0 0 1-0.258-2.641v-12.9a8.726 8.726 0 0 1 0.258-2.768 1.021 1.021 0 0 1 1.034-0.575 0.981 0.981 0 0 1 1.013 0.575 9.632 9.632 0 0 1 0.233 2.768z"/>
 </g>
</svg>
