<svg xmlns="http://www.w3.org/2000/svg" height="394.76" width="600" xmlns:xlink="http://www.w3.org/1999/xlink">
    <defs>
        <radialGradient id="a" gradientUnits="userSpaceOnUse" cy="325.04" cx="172.96" gradientTransform="matrix(-4.70379 -9.87008 10.64722 -5.07417 -2226.8 3886.29)" r="49.089">
            <stop stop-color="#FC0" offset="0"/>
            <stop stop-color="#ec6800" offset=".786"/>
            <stop stop-color="#ea4902" offset=".889"/>
            <stop stop-color="#e73900" offset=".889"/>
            <stop stop-color="red" offset="1"/>
        </radialGradient>
        <radialGradient id="c" gradientUnits="userSpaceOnUse" cy="325.04" cx="172.96" gradientTransform="matrix(-3.09478 -6.49386 7.00517 -3.33847 -1465.088 2556.923)" r="49.089">
            <stop stop-color="#FC0" offset="0"/>
            <stop stop-color="#ec6800" offset=".812"/>
            <stop stop-color="#ea4902" offset=".889"/>
            <stop stop-color="#e73900" offset=".912"/>
            <stop stop-color="red" offset="1"/>
        </radialGradient>
        <linearGradient id="b" y2="-299.85" xlink:href="#a" gradientUnits="userSpaceOnUse" x2="1070.5" gradientTransform="translate(-5.217 405.757) scale(.68402)" y1="-299.85" x1="316.43"/>
    </defs>
    <path d="M418.28 140.43h26.75v45.623h33.807V140.43h27.078v120.46h-26.586v-52.023h-34.135v52.023H418.28V140.43M543.87 239.38h7.55c2.625 0 5.196-.219 7.712-.656 2.626-.438 4.924-1.477 6.893-3.119 2.079-1.75 3.72-4.266 4.923-7.549 1.313-3.391 1.97-7.986 1.97-13.785 0-2.078.054-4.54.164-7.385.11-2.844.164-5.306.164-7.385 0-7.22-.219-13.348-.657-18.38-.437-5.032-1.696-9.026-3.774-11.98-1.313-1.86-2.68-3.282-4.103-4.267-1.422-.984-3.118-1.695-5.087-2.133-1.86-.547-4.103-.82-6.729-.82-2.516-.11-5.525-.165-9.026-.165v77.625m-26.914-98.959h29.212c7.33 0 13.566.383 18.709 1.15 5.142.656 9.464 1.64 12.965 2.953 3.61 1.313 6.564 2.954 8.862 4.923 2.297 1.86 4.321 4.049 6.072 6.565a33.948 33.948 0 0 1 3.282 6.236c.985 2.188 1.75 4.923 2.298 8.206.547 3.173.93 7.057 1.149 11.652.328 4.595.492 10.284.492 17.068l-.164 20.514a66.93 66.93 0 0 1-.82 10.339 40.579 40.579 0 0 1-2.462 9.682c-1.204 3.064-2.9 5.908-5.088 8.534-2.188 2.516-4.923 4.595-8.206 6.236-4.376 2.188-8.588 3.665-12.637 4.431-3.938.657-8.315 1.204-13.129 1.641-.875.11-2.57.22-5.087.329h-35.448V140.42" fill="url(#b)"/>
    <path fill="url(#c)" d="M394.76 197.38c0 108.95-88.426 197.38-197.38 197.38S0 306.33 0 197.38 88.426 0 197.38 0c45.483 0 78.097 16.306 78.097 16.306l18.88 41.193-37.76 35.185 51.491-6.007 21.455 47.2 10.298-51.491 16.306-1.717s38.618 45.483 38.618 116.71z"/>
    <path fill-rule="evenodd" fill="#FFF" d="M78.952 260.03h26.604v-49.774h35.185v-21.455h-35.185v-25.745h52.349v-22.313H78.953v119.28zM36.902 243.72c0-3.433 2.574-5.15 6.007-5.15v-10.297c-6.865 0-14.589 4.29-14.589 15.447s7.724 16.306 15.447 16.306H60.93c7.724 0 15.447-4.29 15.447-16.306 0-7.724-5.149-10.298-5.149-10.298h4.291v-5.149H51.49v15.447h7.724v-5.149h2.574c3.433 0 6.007 1.717 6.007 5.15s-2.574 6.006-6.007 6.006H42.91c-3.433 0-6.007-2.574-6.007-6.007z"/>
    <path fill-rule="evenodd" fill="#FFF" d="M214.55 210.26c0-21.455-6.007-38.618-32.976-38.609-29.67-.008-34.819 17.154-34.819 38.609v12.015c0 21.455 5.15 38.618 34.819 38.503 26.969.115 32.976-17.049 32.976-38.503V210.26zm-23.17-1.716c0-13.243-1.896-19.685-10.435-19.68-9.395-.004-11.019 6.437-11.019 19.68v15.447c0 13.243 1.625 19.956 11.019 19.886 8.54.07 10.435-6.644 10.435-19.886v-15.447zM286.12 210.26c0-21.455-6.007-38.618-32.976-38.609-29.67-.008-34.819 17.154-34.819 38.609v12.015c0 21.455 5.149 38.618 34.819 38.503 26.969.115 32.976-17.049 32.976-38.503V210.26zm-23.17-1.716c0-13.243-1.896-19.685-10.436-19.68-9.395-.004-11.019 6.437-11.019 19.68v15.447c0 13.243 1.624 19.956 11.019 19.886 8.54.07 10.436-6.644 10.436-19.886v-15.447zM60.679 224.63c8.319 0 14.975-2.256 14.971-12.386 0-11.145-6.652-13.079-14.971-13.079H56.02c-8.319 0-14.975 1.934-14.93 13.079-.044 10.13 6.611 12.386 14.93 12.386h4.659zm.666-8.703c5.135 0 7.633-.712 7.631-3.92 0-3.529-2.496-4.139-7.631-4.139h-5.99c-5.135 0-7.739.61-7.711 4.14-.028 3.206 2.576 3.919 7.71 3.919h5.99zM60.679 195.79c8.319 0 14.975-2.256 14.971-12.386 0-11.145-6.652-13.079-14.971-13.079H56.02c-8.319 0-14.975 1.934-14.93 13.079-.044 10.13 6.611 12.386 14.93 12.386h4.659zm.666-8.703c5.135 0 7.633-.712 7.631-3.92 0-3.529-2.496-4.139-7.631-4.139h-5.99c-5.135 0-7.739.61-7.711 4.14-.028 3.206 2.576 3.919 7.71 3.919h5.99zM357 140.74h-22.313v45.483s-6.007-14.589-23.17-14.589c-20.596 0-22.175 17.164-22.175 38.618v12.015c0 21.455 2.437 38.618 22.175 38.618 18.021 0 24.029-15.447 24.029-15.447v14.589h21.455c.211-38.046.081-81.242 0-119.28zm-22.313 57.498c0-2.575-7.265-8.586-13.731-8.581-5.149 0-8.581 5.149-8.581 13.73v23.17c0 7.724 2.574 14.247 8.581 14.247 8.54.07 13.731-6.523 13.731-9.097v-33.469zM29.494 140.74v8.568h17.481s-5.607 2.307-5.607 8.898c0 7.91 6.597 8.516 14.843 8.516h4.617c8.246 0 14.843-.936 14.843-8.516 0-6.92-5.937-9.227-5.937-9.227h5.608v-8.239c-14.623-.081-31.225-.032-45.847 0zm22.099 8.568c-.99 0-3.3 2.79-3.298 5.273 0 1.977 1.979 3.296 5.277 3.296h8.906c2.968 0 5.475-.99 5.475-3.296.028-3.28-2.507-5.273-3.496-5.273H51.594z"/>
</svg>
