<svg xmlns="http://www.w3.org/2000/svg" height="433.2" width="600" xmlns:xlink="http://www.w3.org/1999/xlink" viewBox="0 0 600 433.196">
    <defs>
        <radialGradient id="a" gradientUnits="userSpaceOnUse" cy="325.04" cx="172.96" gradientTransform="matrix(-4.70379 -9.87008 10.64722 -5.07417 -2226.8 3886.29)" r="49.089">
            <stop stop-color="#FC0" offset="0"/>
            <stop stop-color="#ec6800" offset=".8"/>
            <stop stop-color="#ea4902" offset="1"/>
            <stop stop-color="#e73900" offset="1"/>
            <stop stop-color="red" offset="1"/>
        </radialGradient>
        <radialGradient id="b" gradientUnits="userSpaceOnUse" cy="325.04" cx="172.96" gradientTransform="matrix(-3.3961 -7.12613 7.68722 -3.66351 -1607.734 2805.874)" r="49.089">
            <stop stop-color="#FC0" offset="0"/>
            <stop stop-color="#ec6800" offset=".812"/>
            <stop stop-color="#ea4902" offset=".889"/>
            <stop stop-color="#e73900" offset=".912"/>
            <stop stop-color="red" offset="1"/>
        </radialGradient>
        <linearGradient id="d" y2="329.85" xlink:href="#a" gradientUnits="userSpaceOnUse" x2="613.08" gradientTransform="matrix(1.09736 0 0 1.09736 3.985 -142.478)" y1="329.85" x1="410.23"/>
        <linearGradient id="c" y2="337.06" xlink:href="#a" gradientUnits="userSpaceOnUse" x2="586.68" gradientTransform="matrix(1.09736 0 0 1.09736 3.985 -142.478)" y1="337.06" x1="368.71"/>
    </defs>
    <path fill="url(#b)" d="M433.2 216.6c0 119.56-97.036 216.6-216.6 216.6S0 336.16 0 216.6 97.036 0 216.6 0c49.911 0 85.701 17.893 85.701 17.893l20.718 45.203-41.436 38.611 56.504-6.592 23.543 51.795 11.301-56.504 17.893-1.884s42.378 49.911 42.378 128.07z"/>
    <path fill-rule="evenodd" fill="#FFF" d="M86.639 285.35h29.194v-54.62h38.611v-23.543h-38.611v-28.252h57.445V154.45H86.639v130.9zM40.494 267.45c0-3.767 2.825-5.65 6.592-5.65v-11.303c-7.534 0-16.01 4.708-16.01 16.95 0 12.244 8.476 17.894 16.951 17.894h18.836c8.476 0 16.951-4.709 16.951-17.893 0-8.476-5.65-11.301-5.65-11.301h4.708v-5.65h-26.37v16.95h8.476v-5.65h2.825c3.767 0 6.592 1.883 6.592 5.65s-2.825 6.592-6.592 6.592h-20.72c-3.766 0-6.591-2.825-6.591-6.592z"/>
    <path fill-rule="evenodd" fill="#FFF" d="M235.43 230.73c0-23.543-6.592-42.378-36.187-42.368-32.559-.009-38.209 18.825-38.209 42.368v13.184c0 23.543 5.65 42.378 38.209 42.252 29.595.126 36.187-18.709 36.187-42.252V230.73zm-25.426-1.883c0-14.533-2.08-21.603-11.452-21.597-10.309-.004-12.092 7.065-12.092 21.596v16.951c0 14.532 1.783 21.9 12.092 21.822 9.37.078 11.452-7.29 11.452-21.822v-16.956zM313.97 230.73c0-23.543-6.592-42.378-36.187-42.368-32.559-.009-38.209 18.825-38.209 42.368v13.184c0 23.543 5.65 42.378 38.209 42.252 29.595.126 36.187-18.709 36.187-42.252V230.73zm-25.426-1.883c0-14.533-2.08-21.603-11.452-21.597-10.309-.004-12.092 7.065-12.092 21.596v16.951c0 14.532 1.783 21.9 12.092 21.822 9.37.078 11.452-7.29 11.452-21.822v-16.956zM66.586 246.5c9.129 0 16.433-2.476 16.429-13.592 0-12.23-7.3-14.352-16.429-14.352h-5.112c-9.129 0-16.433 2.122-16.383 14.352-.049 11.117 7.255 13.592 16.383 13.592h5.112zm.73-9.55c5.635 0 8.377-.782 8.375-4.302 0-3.872-2.74-4.542-8.375-4.542h-6.573c-5.635 0-8.492.67-8.461 4.542-.031 3.52 2.826 4.302 8.461 4.302h6.573zM66.586 214.85c9.129 0 16.433-2.476 16.429-13.592 0-12.23-7.3-14.352-16.429-14.352h-5.112c-9.129 0-16.433 2.122-16.383 14.352-.049 11.117 7.255 13.592 16.383 13.592h5.112zm.73-9.55c5.635 0 8.377-.782 8.375-4.302 0-3.872-2.74-4.542-8.375-4.542h-6.573c-5.635 0-8.492.67-8.461 4.542-.031 3.52 2.826 4.302 8.461 4.302h6.573zM391.76 154.44h-24.485v49.911s-6.592-16.009-25.426-16.009c-22.601 0-24.334 18.835-24.334 42.378v13.184c0 23.543 2.675 42.378 24.334 42.378 19.776 0 26.369-16.951 26.369-16.951v16.009h23.543c.232-41.75.09-89.152 0-130.9zm-24.485 63.096c0-2.825-7.972-9.422-15.068-9.417-5.65 0-9.417 5.65-9.417 15.068v25.426c0 8.476 2.825 15.633 9.417 15.633 9.37.078 15.068-7.157 15.068-9.982v-36.728zM32.366 154.44v9.402h19.183s-6.153 2.532-6.153 9.765c0 8.679 7.24 9.344 16.288 9.344h5.067c9.049 0 16.288-1.027 16.288-9.344 0-7.595-6.515-10.126-6.515-10.126h6.153v-9.041c-16.046-.09-34.265-.035-50.31 0zm24.251 9.402c-1.086 0-3.621 3.062-3.62 5.787 0 2.17 2.172 3.616 5.792 3.616h9.773c3.257 0 6.008-1.085 6.008-3.616.03-3.599-2.75-5.786-3.837-5.786H56.618z"/>
    <path fill="url(#c)" d="M459.01 213.55h27.711v-23.751h27.699v23.751h27.711v25.731H514.42V265h-27.699v-25.719h-27.713v-25.728z"/>
    <path d="M550.13 183.37h17.213v102.91h32.656V152.69h-49.868z" fill="url(#d)"/>
</svg>
