<?xml version="1.0" encoding="UTF-8"?>
<svg id="svg2" width="1041.2pt" height="750.06pt" version="1.1" viewBox="0 0 1041.2 750.06" xmlns="http://www.w3.org/2000/svg" xmlns:cc="http://creativecommons.org/ns#" xmlns:dc="http://purl.org/dc/elements/1.1/" xmlns:rdf="http://www.w3.org/1999/02/22-rdf-syntax-ns#">
 <metadata id="metadata38">
  <rdf:RDF>
   <cc:Work rdf:about="">
    <dc:format>image/svg+xml</dc:format>
    <dc:type rdf:resource="http://purl.org/dc/dcmitype/StillImage"/>
    <dc:title/>
   </cc:Work>
  </rdf:RDF>
 </metadata>
 <g id="#ffffffff" transform="translate(-55.23 -110.22)" fill="#fff">
  <path id="path5" d="m224.95 115.02c0.31-1.76 1.1-3.37 2.14-4.8 0.51 1.04 0.9 2.14 1.16 3.27 4.76 25.46 9.6 50.9 15.04 76.22 3.54 15.77 6.72 31.71 12.32 46.91 3.65 10.92 6.44 22.16 11.24 32.66 1.67 3.74 3.96 7.3 7.46 9.57 1.9-2.55 2.4-5.81 4.05-8.5 4.75-9.03 14.09-16.25 24.6-16.2 8.28 0.21 15.39 5.28 21.55 10.34 3.39 2.59 5.76 6.48 9.75 8.25 7.68 3.89 15.41 7.69 22.92 11.92-11.45 0.03-22.98 0.89-34.14 3.46-5.71 2.54-10.83 6.25-15.96 9.8 9.49 9.25 14.94 22.78 13.39 36.06-1.54 14.28-9.85 26.8-19.52 37-14.36 14.86-31.95 26.13-49.92 36.11-2.51 1.47-5.33 2.24-8.09 3.1-26.17 8.55-49.67 26.47-63 50.8-7.77 13.95-11.73 29.93-11.64 45.9 0.3 1.51-2.45 1.48-2.5 0.11-8.18-19.01-23.62-34.09-41.2-44.6-11.09-6.66-23.16-11.65-35.61-15.15 16.13-1.72 32.09-5.53 46.92-12.18 15.58-7 30.48-16.44 41.43-29.74 4.51-5.84 8.77-12.68 8.58-20.33 0.11-4.17-1.7-8.36-4.49-11.38-10.38-6.12-18.01-16-23.51-26.55-3.18-6.22-5.49-13.02-5.72-20.06-6.75-0.92-13.36-4.2-17.31-9.89-4.88-6.69-5.93-15.08-8.32-22.78-0.86-3.47-4.39-4.88-6.75-7.14-4.79-4.11-8.1-9.92-8.92-16.2-0.95-5.27-0.02-10.64-0.57-15.93-0.38-4.53-4.93-6.69-7.57-9.82-9.38-8.22-16.96-18.58-21.33-30.29-2.17-6.01-3.76-12.76-1.32-18.93-7.54-13.16-15.91-25.85-22.8-39.37-1.04-2.41-2.83-5-1.74-7.71 30.14 18.29 59.53 37.83 88.39 58.07 22.57 16.06 44.98 32.46 65.89 50.67-3.85-12.12-4.01-25.83 1.36-37.51-3.13-8-3.41-16.77-2.9-25.24 0.46-5.64 1.39-11.49 4.35-16.42 0.99-2.21 4.93-2.48 4.06-5.45-0.97-8.98-1.27-18.42 2.12-26.96 0.87-2.38 2.77-4.38 2.96-7 0.88-8.05 1.44-16.16 3.15-24.09z"/>
  <path id="path7" d="m267.06 453.67c19.5-5.35 40.07-5.03 60.05-3.24 14.81 1.19 29.78 6.41 40.34 17.21 8.14 8.47 14.2 19.3 16.5 30.84-17.1 2.73-34.1 6.05-51.17 8.99-2.27-6.43-6.31-12.46-12.35-15.87-7.86-4.6-17.49-5.02-26.27-3.55-10.74 1.93-20.19 9.43-24.68 19.34-4.95 10.78-5.62 22.89-5.36 34.58 0.28 11.35 1.77 23.27 7.99 33.04 6.4 9.96 18.33 15.15 29.92 15.29 13.5 0.77 26.42-4.48 37.72-11.44-0.17-5.48 0.3-10.99-0.26-16.45-11.78 0.38-23.56-0.04-35.34 0.21-0.62-11.97 0.1-23.97-0.25-35.95 27.51-0.15 55.01 0.14 82.51-0.14 0.43 24.65 0.17 49.34 0.14 74-16.68 11.04-34.46 21.46-54.41 25.03-19.2 3.41-39.09 3.8-58.28 0.12-15.77-3.03-30.85-10.69-41.56-22.8-13.18-14.79-20.01-34.41-21.49-53.97-1.61-20.38 1.3-41.68 11.43-59.68 9.51-17.12 26.03-30.14 44.82-35.56z"/>
  <path id="path9" d="m1048.1 452.22c16.1 0.24 32.23-0.35 48.31 0.3-0.33 57.56-0.03 115.14-0.15 172.72-16.06 0-32.12 0.02-48.18-0.01 0.03-57.67-0.01-115.34 0.02-173.01z"/>
  <path id="path11" d="m468.52 497.78c17.79-1.74 36.6-0.38 52.67 8.05 16.03 8.34 27.57 24.42 30.78 42.16 2.69 15.1 1.41 31.3-5.57 45.13-7.82 15.66-22.72 27.34-39.6 31.76-16.55 4.31-34.28 4.43-50.82 0.06-17.46-4.61-32.74-16.99-40.59-33.28-6.54-13.81-7.56-29.83-4.44-44.67 3.6-17.13 15.1-32.24 30.35-40.71 8.35-4.72 17.75-7.3 27.22-8.5m7 33.12c-8.97 2.37-15.24 10.69-16.89 19.57-1.8 9.69-1.84 20.01 1.29 29.43 2.9 8.91 11.54 15.93 21.09 15.74 8.43 0.36 16.57-4.8 20.16-12.36 3.77-7.83 3.96-16.77 3.66-25.3-0.36-8.24-2.74-17.08-9.28-22.6-5.29-4.94-13.16-6.28-20.03-4.48z"/>
  <path id="path13" d="m605.05 500.06c13.68-3.36 27.9-3.19 41.89-2.63 11.51 0.58 23.6 2.4 33.1 9.44 8.15 5.72 13.34 14.64 16.89 23.75-15.22 1.35-30.39 3.29-45.63 4.26-1.13-3.24-2.79-6.44-5.67-8.43-5.92-4.22-13.71-4.6-20.64-3.32-4.67 0.83-9.36 4.85-8.78 9.98 0.11 3.27 2.98 5.64 5.84 6.71 5.3 1.91 10.94 2.59 16.5 3.4 11.94 1.41 23.99 2.89 35.45 6.73 8.71 2.94 16.92 8.29 21.81 16.24 6.86 10.49 6.93 24.58 1.07 35.53-3.78 7.87-10.47 14-18.14 18-11.79 6.48-25.5 7.83-38.7 8.37-14.78 0.14-29.91-0.4-44.03-5.16-14.28-4.78-25.34-17.75-27.99-32.53 15.89-1.3 31.74-3.21 47.65-4.26 2.13 6.75 7.03 13.17 14.3 14.7 7.53 1.66 16.25 1.54 22.8-3.03 3.79-2.45 5.82-7.82 3.32-11.87-2.27-3.89-6.88-5.08-10.94-6.05-11.62-2.72-23.49-4.22-35.1-7-7.31-1.75-14.89-3.45-21.19-7.77-7.45-5.16-13.28-13.01-15.01-22.01-1.67-9.14-0.14-19.11 5.41-26.71 6.06-8.56 15.78-13.83 25.79-16.34z"/>
  <path id="path15" d="m785.31 503.23c11.28-6.47 25.11-7.54 37.62-4.58 11.12 2.56 20.71 9.99 26.83 19.51 11.46 17.16 14.06 38.79 11.71 58.91-1.52 14.46-7.18 29.11-18.44 38.77-14.22 12.88-35.87 15.47-53.47 8.67-6.35-2.36-11.72-6.58-16.73-11.01-0.08 21.23-0.26 42.48-0.02 63.71-16.09 0.5-32.21-0.09-48.3 0.3-0.46-17.81-0.07-35.66-0.2-53.48-0.04-41.33 0.08-82.65-0.06-123.97 14.97-0.43 29.95-0.1 44.93-0.17 0.11 6.09 0.05 12.19 0.02 18.28 4.92-5.41 9.69-11.22 16.11-14.94m2.88 29.93c-7.27 2.07-12.56 8.61-14.22 15.83-2.07 8.82-2.24 18.22 0.05 27.02 1.99 7.96 8.69 14.78 16.95 15.97 6.48 1.27 13.42-1.35 17.45-6.57 4.98-6.3 5.49-14.75 5.81-22.44-0.03-8.85-0.96-18.89-7.74-25.37-4.66-4.81-11.97-6.31-18.3-4.44z"/>
  <path id="path17" d="m936.95 497.85c14.53-1.43 29.43-0.93 43.61 2.78 14.39 3.73 27.29 13.21 34.6 26.23 8.28 14.35 9.36 31.39 9.33 47.59-32.16 0.35-64.34-0.11-96.5 0.23 1 6.67 2.67 13.78 7.77 18.6 9.68 9.87 27.71 8.4 36.27-2.22 1.1-1.05 2.01-2.93 3.86-2.48 13.4 1.25 26.81 2.49 40.22 3.7 1.82 0.21 3.88-0.04 5.42 1.21-6.6 10.4-14.64 20.41-25.75 26.23-13.38 7.08-28.89 8.1-43.74 8.45-14.95-0.24-30.75-1.38-43.86-9.3-15.17-9.33-25.36-25.86-28.01-43.35-2.82-18.84 0.28-39.56 12.68-54.6 10.59-13.55 27.25-21.18 44.1-23.07m-0.94 34.15c-5.22 5.08-7.1 12.47-7.8 19.49 15.78-0.04 31.56 0 47.34-0.02-0.65-5.37-1.67-10.82-4.33-15.6-6.68-12.34-25.79-13.73-35.21-3.87z"/>
 </g>
 <g id="#0063a2ff" transform="translate(-55.23 -110.22)" fill="#fff">
  <path id="path20" d="m313.03 755.99c12.22-4.83 25.96-5.77 38.75-2.75 10.96 2.58 21.04 9.35 26.95 19.02 2.79 4.35 4.49 9.27 6 14.18-7.02 1.6-14.11 2.85-21.1 4.57-2.2-5.37-4.17-11.13-8.65-15.09-6.71-6.09-16.53-6.71-25.09-5.51-8.81 1.04-17.37 6.15-21.4 14.22-4.51 9.19-5.15 19.82-3.8 29.84 1.16 7.22 3.6 14.72 9.21 19.74 6.47 5.83 15.56 8.06 24.11 7.52 7.14-0.29 14.37-3.09 19.18-8.49 4.3-4.68 6.29-10.91 7.56-17.01 7.21 1.49 14.34 3.37 21.57 4.79-2.55 12.85-9.89 25.13-21.33 31.91-13.83 8.36-31.08 8.8-46.47 5.24-12.9-2.97-24.14-11.96-29.96-23.83-8.41-16.91-9.41-37.8-1.23-54.98 5.1-10.77 14.62-19.12 25.7-23.37z"/>
  <path id="path22" d="m404.15 753.2c7.23 0.01 14.46-0.04 21.69 0.1-0.05 13.37-0.05 26.73-0.06 40.1 16.48 0.02 32.96 0.18 49.44 0.05-0.05-13.41 0.11-26.82 0.03-40.23 7.21-0.03 14.42-0.03 21.63 0.07 0.08 35.08 0.17 70.19-0.03 105.28-7.2-0.11-14.41-0.07-21.61-0.02-0.25-15.45 0.32-30.92-0.17-46.36-16.36 0.2-32.72 0.09-49.08 0.06-0.5 15.42 0 30.87-0.26 46.31-7.17-0.08-14.34-0.1-21.51 0.02-0.16-35.13-0.02-70.26-0.07-105.38z"/>
  <path id="path24" d="m552.38 753.28c6.81-0.16 13.61-0.06 20.42-0.05 15.97 35.07 31.9 70.17 47.9 105.24-8.13 0.13-16.26-0.06-24.38 0.1-4.06-8.98-7.83-18.09-11.68-27.15-0.56-1.08-0.93-2.99-2.58-2.59-12.02-0.05-24.04 0.04-36.06-0.04-1.3 0.1-3.35-0.34-3.77 1.37-3.85 9.46-7.57 18.98-11.52 28.39-7.69-0.25-15.4 0.31-23.07-0.28 14.79-35.05 29.96-69.94 44.74-104.99m10.11 26.61c-3.57 10.58-8.43 20.66-12.54 31.03 8.58 0.05 17.17-0.14 25.75 0.11-2.52-7.47-6.02-14.58-8.93-21.91-1.49-3.05-2.15-6.54-4.28-9.23z"/>
  <path id="path26" d="m630.35 753.24c6.8-0.07 13.6-0.04 20.4-0.01 17.26 23.2 34.45 46.46 51.78 69.61-0.02-23.24-0.24-46.48 0.14-69.72 7.01 0.19 14.02-0.02 21.03 0.2-0.13 35.09 0.19 70.2-0.16 105.3-6.56-0.29-13.13 0.06-19.69-0.17-1.96-1.06-2.85-3.34-4.26-4.98-16.07-21.47-31.85-43.17-48.11-64.49 0.18 23.17 0 46.35 0.08 69.52-7 0.08-14.01-0.12-21.01 0.12-0.42-35.12-0.03-70.25-0.2-105.38z"/>
  <path id="path28" d="m748.18 753.2c6.78 0.05 13.56-0.1 20.34 0.08 14.28 19.46 28.79 38.74 43.15 58.14 2.83 3.66 5.34 7.58 8.46 11.02 0.22-23.08 0.04-46.16 0.09-69.24 7.09 0.18 14.21-0.37 21.28 0.36-0.29 34.95-0.12 69.9-0.09 104.85-6.81 0-13.77 0.49-20.49-0.2-17.36-22.94-34.36-46.17-51.6-69.2 0 23.11-0.24 46.22-0.02 69.34-7.03 0.41-14.07-0.02-21.1 0.23-0.22-35.13 0.01-70.26-0.02-105.38z"/>
  <path id="path30" d="m866.18 753.21c24.94-0.01 49.88 0 74.82-0.01 3.86 0.06 7.73-0.1 11.58 0.33-0.31 6.19-0.03 12.4-0.18 18.61-21.5 0.01-42.99-0.04-64.48 0.03 0.01 7.54-0.18 15.09 0.14 22.63 20.07-0.03 40.15 0 60.22-0.02 0.15 6.2-0.09 12.4 0.15 18.6-20.18 0.49-40.38 0.02-60.56 0.24 0.16 8.7-0.33 17.42 0.29 26.11 22.26-0.06 44.52-0.13 66.77 0.04-0.1 6.26 0.26 12.52-0.12 18.78-29.52-0.05-59.05-0.08-88.58 0.01-0.13-35.11-0.04-70.23-0.05-105.35z"/>
  <path id="path32" d="m974.69 753.12c7.16 0.16 14.33 0.07 21.5 0.11 0.4 28.8 0.08 57.63 0.16 86.45 17.94 0.04 35.89-0.09 53.83 0.07-0.22 6.27 0.32 12.58-0.34 18.83-25.12-0.21-50.24 0.07-75.35-0.14 0.21-35.11-0.2-70.22 0.2-105.32z"/>
 </g>
</svg>
