<svg version="1.1" viewBox="0 0 264.57 104.98" xmlns="http://www.w3.org/2000/svg">
 <defs>
  <clipPath id="a">
   <path d="M 0,78.739 H 198.425 V 0 H 0 Z"/>
  </clipPath>
 </defs>
 <g transform="matrix(1.3333 0 0 -1.3333 0 104.98)">
  <path d="m45.52 31.123h7.664v17.299h-7.664z" fill="#9aa9b3"/>
  <g clip-path="url(#a)">
   <g transform="translate(198.41 54.598)">
    <path d="m0 0c-0.512 13.257-11.545 23.642-25.118 23.642h-25.058v-33.439l-22.621 33.439h-7.779v-39.453h-3.382l-13.698 39.453h-7.414l-13.643-39.453h-4.161l-8.762 13.741c5.501 2.366 8.51 6.723 8.51 12.39 0 8.653-7.313 13.322-14.194 13.322h-15.568v-15.86h7.664v8.195h7.904c2.425 0 6.53-1.191 6.53-5.657 0-3.385-2.747-5.843-6.53-5.843h-36.991v-7.67h10.924v-7.679c-3.06-3.431-7.182-5.314-11.65-5.314-8.695 0-15.769 7.355-15.769 16.394 0 9.005 7.102 16.331 15.831 16.331 4.431 0 8.366-1.715 11.378-4.959l0.748-0.806 5.512 5.249-0.742 0.786c-4.465 4.728-10.465 7.331-16.896 7.331-12.92 0-23.433-10.736-23.433-23.932 0-13.456 10.266-23.996 23.371-23.996 7.311 0 13.886 3.424 19.017 9.899l0.234 0.297v10.399l15.749 5e-3 13.037-20.287h13.738l11.912 34.446 12.223-34.446h16.215v33.625l22.747-33.625h7.654v39.452h17.33c9.332 0 17.518-7.486 17.518-16.019 0-7.752-6.529-15.769-17.455-15.769h-5.433v27.435h-7.706l0.028-35.099h13.136c7.559 0.178 14.604 3.165 19.327 8.194 3.997 4.255 5.99 9.539 5.766 15.281" fill="#9aa9b3"/>
   </g>
   <g transform="translate(34.812 66.178)">
    <path d="m0 0 0.748-0.806 5.511 5.249-0.741 0.786c-4.466 4.728-10.465 7.332-16.896 7.332-12.57 0-22.858-10.163-23.407-22.866 2.525-0.146 5.056-0.275 7.592-0.387 0.347 8.691 7.307 15.652 15.815 15.652 4.431 0 8.365-1.715 11.378-4.96" fill="#b7c6cf"/>
   </g>
   <g transform="translate(167.86 66.222)">
    <path d="m0 0h-7.706l3e-3 -2.856c2.672 0.353 5.242 0.706 7.703 1.054z" fill="#b7c6cf"/>
   </g>
   <g transform="translate(75.283 64.919)">
    <path d="m0 0c0 8.652-7.313 13.321-14.195 13.321h-15.568v-15.859h7.664v8.195h7.904c2.426 0 6.531-1.192 6.531-5.657 0-3.386-2.747-5.844-6.531-5.844h-36.991v-4.102c15.957-0.294 31.923-0.025 47.382 0.625 2.481 2.405 3.804 5.574 3.804 9.321" fill="#b7c6cf"/>
   </g>
   <g transform="translate(100.75 78.24)">
    <path d="m0 0h-7.414l-7.583-21.931c2.783 0.161 5.544 0.331 8.279 0.512l3.025 8.748 2.957-8.333c2.635 0.19 5.245 0.388 7.823 0.594z" fill="#b7c6cf"/>
   </g>
   <g transform="translate(173.29 78.24)">
    <path d="m0 0h-25.058v-16.376c2.63 0.315 5.186 0.632 7.665 0.949v7.763h17.331c4.033 0 7.85-1.401 10.887-3.677 3.568 0.589 6.663 1.137 9.23 1.622-4.586 5.925-11.855 9.719-20.055 9.719" fill="#b7c6cf"/>
   </g>
   <g transform="translate(125.61 78.24)">
    <path d="m0 0h-7.779v-19.559c2.593 0.232 5.147 0.472 7.664 0.716v5.351l3.392-5.015c2.937 0.296 5.817 0.598 8.63 0.905z" fill="#b7c6cf"/>
   </g>
   <g transform="translate(7.6025 15.723)">
    <path d="m0 0h2.518l8.28-10.688v10.688h2.672v-15.458h-2.274l-8.524 10.997v-10.997h-2.672z" fill="#f45a0c"/>
   </g>
   <g transform="translate(42.097,7.9503)">
    <path d="m0 0v0.044c0 3.003-2.186 5.498-5.255 5.498-3.07 0-5.212-2.451-5.212-5.454v-0.044c0-3.003 2.186-5.477 5.256-5.477 3.069 0 5.211 2.43 5.211 5.433m-13.316 0v0.044c0 4.35 3.357 7.994 8.105 7.994 4.747 0 8.06-3.6 8.06-7.95v-0.044c0-4.351-3.357-7.994-8.104-7.994-4.748 0-8.061 3.599-8.061 7.95" fill="#f45a0c"/>
   </g>
   <g transform="translate(51.506 2.5172)">
    <path d="m0 0 1.634 1.944c1.479-1.281 2.981-2.01 4.88-2.01 1.678 0 2.739 0.795 2.739 1.944v0.044c0 1.104-0.619 1.7-3.49 2.362-3.29 0.796-5.145 1.767-5.145 4.616v0.044c0 2.65 2.209 4.483 5.278 4.483 2.252 0 4.041-0.685 5.609-1.944l-1.458-2.054c-1.391 1.038-2.782 1.59-4.195 1.59-1.59 0-2.518-0.817-2.518-1.832v-0.044c0-1.193 0.707-1.723 3.688-2.429 3.268-0.796 4.947-1.965 4.947-4.528v-0.044c0-2.892-2.275-4.615-5.521-4.615-2.363 0-4.593 0.817-6.448 2.473" fill="#f45a0c"/>
   </g>
   <g transform="translate(74.562 13.206)">
    <path d="m0 0h-4.902v2.517h12.542v-2.517h-4.902v-12.94h-2.738z" fill="#f45a0c"/>
   </g>
   <g transform="translate(96.866 6.4044)">
    <path d="m0 0-2.672 6.183-2.65-6.183zm-3.887 9.428h2.518l6.801-15.567h-2.871l-1.567 3.732h-7.31l-1.59-3.732h-2.782z" fill="#f45a0c"/>
   </g>
   <g transform="translate(109.37 15.723)">
    <path d="m0 0h2.716v-12.985h8.126v-2.473h-10.842z" fill="#f45a0c"/>
   </g>
   <g transform="translate(125.89 7.9503)">
    <path d="m0 0v0.044c0 4.328 3.312 7.994 7.971 7.994 2.695 0 4.351-0.752 5.941-2.098l-1.723-2.054c-1.192 1.016-2.363 1.656-4.328 1.656-2.848 0-5.013-2.495-5.013-5.454v-0.044c0-3.18 2.098-5.521 5.256-5.521 1.457 0 2.782 0.464 3.732 1.17v2.894h-3.952v2.362h6.58v-6.492c-1.524-1.303-3.711-2.407-6.449-2.407-4.836 0-8.015 3.445-8.015 7.95" fill="#f45a0c"/>
   </g>
   <path d="m148.46 15.723h2.717v-15.458h-2.717z" fill="#f45a0c"/>
   <g transform="translate(158.19 2.5397)">
    <path d="m0 0 1.788 1.855c0.906-1.17 1.811-1.833 3.115-1.833 1.457 0 2.45 0.972 2.45 3.047v10.114h2.805v-10.202c0-1.833-0.552-3.202-1.457-4.107-0.906-0.906-2.208-1.37-3.754-1.37-2.386 0-3.931 1.104-4.947 2.496" fill="#f45a0c"/>
   </g>
   <g transform="translate(185.31 6.4044)">
    <path d="m0 0-2.672 6.183-2.65-6.183zm-3.886 9.428h2.517l6.801-15.567h-2.871l-1.567 3.732h-7.31l-1.589-3.732h-2.783z" fill="#f45a0c"/>
   </g>
  </g>
 </g>
</svg>
