<svg width="211.67mm" height="211.96mm" version="1.1" viewBox="0 0 211.67 211.96" xmlns="http://www.w3.org/2000/svg">
 <g transform="translate(-137.01 -64.542)" stroke-opacity=".98824">
  <path d="m140.04 171.45 87.423-87.423c4.0425-4.0425 10.551-4.0425 14.594-1.4e-5l87.423 87.423c4.0425 4.0425 4.0425 10.551 0 14.594l-87.423 87.423c-4.0425 4.0425-10.551 4.0425-14.594 0l-87.423-87.423c-4.0425-4.0425-4.0425-10.551-1e-5 -14.594z" fill="#008fc5" stroke-width="3.7006"/>
  <path d="m255.22 76.982 12.439-12.439 81.009 81.009-12.44 12.439-66.223-66.223-14.827 0.04065z" fill="#008fc5" stroke-width="4.4324"/>
  <path d="m152.65 177.71 81.396-81.396 28.363 28.363-13.272 13.272-15.366-15.365-55.225 55.225 55.571 55.077 54.978-54.979-15.545-15.545-29.216 29.217-12.661-12.661 42.489-42.489 41.131 41.131-81.396 81.396z" fill="#fff" stroke-width="3.6741"/>
 </g>
</svg>
