<svg Googl="true" version="1.1" viewBox="0 0 800 190.36" xmlns="http://www.w3.org/2000/svg">
 <path d="m776.3 41.824-37.458 76.9-37.624-76.9h-36.701v-41.411l-20.946 10.163v31.248h-18.344v18.22h18.33v44.069c0 15.149 0.35806 24.789 5.3158 32.597 4.9577 7.8084 13.675 11.609 26.028 11.609a73.595 73.595 0 0 0 13.551-1.3772l3.3465-0.57841v-18.289l-4.5721 0.60594a59.975 59.975 0 0 1-8.0426 0.55086c-13.964 0-14.68-7.0235-14.68-27.35v-41.838h22.2l43.614 86.168h16.856l52.827-104.39z" fill="#bdce32" stroke-width="1.3772"/>
 <path d="m237.46 41.204v62.44c-0.33051 6.4726-0.50954 10.039-7.712 15.383-9.1167 6.8858-24.858 9.3233-35.572 9.3233-19.28 0-26.551-6.8031-28.3-8.8964-5.2882-6.2798-5.2882-14.997-5.2882-21.373v-56.876h-21.002v56.325 2.7543c0 9.64 0.0964 35.076 27.254 44.069a85.246 85.246 0 0 0 27.006 4.1314c22.296 0 35.654-6.5277 43.532-12.119v9.64h20.836v-104.8z" fill="#592c5f" stroke-width="1.3772"/>
 <path d="m374.58 86.086c-3.5944-1.267-9.3508-2.8507-22.034-3.9249-5.7978-0.46823-11.706-0.72989-17.421-0.99155-3.8009-0.16526-7.712-0.34429-11.513-0.56463-12.505-0.7712-16.237-1.3772-18.688-3.9386a7.533 7.533 0 0 1-1.8867-5.0955c0-2.2723 0.90892-5.5086 5.3846-8.2629 4.9991-3.3052 14.433-5.1919 25.849-5.1919 10.329 0 23.894 1.625 31.027 6.2247a11.954 11.954 0 0 1 4.8476 5.5086l1.4873 2.9746 22.42-4.6135-2.3549-4.6961a37.472 37.472 0 0 0-16.374-17.38c-12.532-6.5001-30.738-7.4779-40.461-7.4779-7.7947 0-19.129 0.64726-28.92 3.677-9.461 2.8507-16.691 8.2629-20.878 15.741v0.11017a32.335 32.335 0 0 0-3.5806 14.736c0 11.513 6.5139 20.823 17.903 25.574h0.12395c7.6019 2.8782 16.526 3.3465 30.297 3.7596 7.7396 0.41315 14.736 0.79875 21.966 1.3772 10.466 0.70235 15.989 1.5149 18.95 4.1314a7.5192 7.5192 0 0 1 2.4789 5.5224 10.577 10.577 0 0 1-2.534 6.3349c-4.7512 5.5086-17.022 8.9377-32.032 8.9377-8.7587 0-21.649-1.3772-29.154-5.2194h-0.11017a19.693 19.693 0 0 1-10.246-9.9568l-1.6664-3.2088-21.125 5.0541 1.3772 4.1314c6.087 19.074 26.923 28.755 61.972 28.755 18.178 0 31.674-3.3052 41.314-10.094a31.096 31.096 0 0 0 9.3646-10.053 30.297 30.297 0 0 0 4.0488-15.149c-0.11017-12.215-7.4366-22.227-19.831-26.73z" fill="#592c5f" stroke-width="1.3772"/>
 <path d="m472.68 59.617v-18.22h-27.295v-41.397l-20.946 10.163v31.234h-18.33v18.22h18.33v44.069c0 15.149 0.35806 24.789 5.3158 32.583 4.9577 7.7947 13.675 11.623 26.014 11.623a73.733 73.733 0 0 0 13.565-1.3772l3.3465-0.5784v-18.344l-4.5721 0.60595a59.975 59.975 0 0 1-8.0426 0.55086c-13.964 0-14.68-7.0372-14.68-27.35v-41.783z" fill="#592c5f" stroke-width="1.3772"/>
 <path d="m597.78 56.573c-11.114-11.678-27.488-18.013-47.195-18.289-19.969-0.30297-36.921 5.0817-49.082 15.52a51.753 51.753 0 0 0-17.999 39.937 51.464 51.464 0 0 0 16.664 38.326c11.651 10.728 28.121 16.402 47.622 16.402 37.596 0 64.878-22.778 64.878-54.15a54.342 54.342 0 0 0-14.887-37.748zm-7.6294 37.073c0 21.814-16.705 35.916-42.554 35.916-30.504 0-41.383-18.454-41.383-35.723 0-21.842 16.126-36.315 41.067-36.908h0.92269c28.975-0.04132 41.948 18.399 41.948 36.715z" fill="#592c5f" stroke-width="1.3772"/>
 <path d="m120.58 131.81v-90.41h-20.368v8.7449c-13.771-10.563-30.931-11.857-38.464-11.857-36.357 0-61.751 22.503-61.751 54.728 0 38.354 29.746 55.513 59.217 55.513a76.418 76.418 0 0 0 32.928-7.0235 40.653 40.653 0 0 0 8.0563-4.9302v2.7543l-0.15149 5.5086c-0.45446 8.3731-2.0382 14.309-6.8857 18.44-6.4037 5.5637-21.263 7.4917-32.005 7.4917-8.8413 0-18.44-1.6526-23.783-4.1314-7.9599-3.8285-8.5383-8.6072-9.0479-12.835l-0.42692-3.553h-21.525l0.50955 4.5308c2.6166 25.326 22.034 30.6 28.452 32.335a111.55 111.55 0 0 0 26.799 3.2501c5.7014 0 25.353-0.59217 38.684-8.2629 17.022-9.8328 19.376-25.45 19.707-38.56v-5.5086c0.0964-2.1484 0.0551-4.2829 0.0551-6.2247zm-27.543-14.57c-5.0266 5.6601-15.989 11.706-31.674 11.706-23.591 0-39.442-14.446-39.442-35.93 0-20.933 15.231-34.966 38.808-35.737h1.9142c15.603 0 27.268 6.4313 31.909 12.807 3.8285 5.2332 5.8529 13.166 5.8529 22.957 0 10.246-2.5064 18.412-7.3678 24.197z" fill="#592c5f" stroke-width="1.3772"/>
</svg>
