<svg version="1.1" viewBox="0 0 412.93 361.76" xmlns="http://www.w3.org/2000/svg">
 <g transform="translate(-392.61 -103.81)" fill="none" stroke-width="2">
  <path d="m543.47 112.38q-25.95 6.98-49.24 20.71" stroke="#a5a5a4" vector-effect="non-scaling-stroke"/>
  <path d="m494.23 133.09c-25.5 15.24-48.9 36.5-65.08 61.5-6.12 9.46-12.43 19.81-16.16 28.92q-3.8 9.29-7.14 18.76-5.74 16.24-8.28 33.25-0.25 1.71-0.24 3.52" stroke="#b6b6b5" vector-effect="non-scaling-stroke"/>
  <path d="m397.33 279.04q-1.54 0.07-2.67 0.62-0.49 0.24-0.5 0.78l-0.55 18.09" stroke="#b293bf" vector-effect="non-scaling-stroke"/>
  <path d="m393.61 298.53 0.03 36.42" stroke="#c0a8ca" vector-effect="non-scaling-stroke"/>
  <path d="m393.64 334.95 0.07 24.27" stroke="#cdbbd5" vector-effect="non-scaling-stroke"/>
  <path d="m393.71 359.22 0.09 17.57" stroke="#d9cde1" vector-effect="non-scaling-stroke"/>
  <path d="m393.8 376.79 0.08 22.17" stroke="#e2dae8" vector-effect="non-scaling-stroke"/>
  <path d="m393.88 398.96 0.46 35.74" stroke="#ebe6ef" vector-effect="non-scaling-stroke"/>
  <path d="m394.34 434.7 0.34 18.12q0.02 1.22 1.23 1.43c2.18 0.38 4.1 1.18 6.5 1.04q4-0.22 7.98 0.22 0.11 0.02 0.16 0.1 0.02 0.04 0.04 0.08 0.06 0.18 0.21 0.18 5.37 0.14 10.71-0.41 1.97-0.2 3.64 0.11a1.24 1.24 0 0 0 1.46-1.22l0.06-19.09" stroke="#f3f1f5" vector-effect="non-scaling-stroke"/>
  <path d="m426.67 435.26 0.06-32.1" stroke="#ebe6ef" vector-effect="non-scaling-stroke"/>
  <path d="m426.73 403.16-0.01-22.38" stroke="#e2dae8" vector-effect="non-scaling-stroke"/>
  <path d="m426.72 380.78v-21.1" stroke="#d9cde1" vector-effect="non-scaling-stroke"/>
  <path d="m426.72 359.68 0.01-23.89" stroke="#cdbbd5" vector-effect="non-scaling-stroke"/>
  <path d="m426.73 335.79 0.01-37.51" stroke="#c0a8ca" vector-effect="non-scaling-stroke"/>
  <path d="m426.74 298.28q0.61-0.56 1.22-0.55" stroke="#b293bf" vector-effect="non-scaling-stroke"/>
  <path d="m427.96 297.73 27.83-0.04" stroke="#7d7d7d" vector-effect="non-scaling-stroke"/>
  <path d="m455.79 297.69q0.42 0.73 0.44 1.81 0.09 5.13 0.09 10.18" stroke="#97a7cc" vector-effect="non-scaling-stroke"/>
  <path d="m456.32 309.68 0.04 30.32" stroke="#b1b6d5" vector-effect="non-scaling-stroke"/>
  <path d="m456.36 340-0.1 22.45" stroke="#c2c6df" vector-effect="non-scaling-stroke"/>
  <path d="m456.26 362.45 0.1 48.08" stroke="#d7d9ea" vector-effect="non-scaling-stroke"/>
  <path d="m456.36 410.53 0.44 40.09a1.67 1.66-7.8 0 0 2.1 1.59q6.9-1.85 14.1-2.3 0.49-0.03 0.82 0.04 0.23 0.06 0.48 0.06l10.99 0.03a0.5 0.47 26.5 0 0 0.27-0.08q0.67-0.47 1.1-0.31a1.32 1.3 10.7 0 0 1.77-1.19l0.76-35.28" stroke="#f3f1f5" vector-effect="non-scaling-stroke"/>
  <path d="m489.19 413.18 0.11-31.4" stroke="#d7d9ea" vector-effect="non-scaling-stroke"/>
  <path d="m489.3 381.78c6.57 3.46 12.35 3.23 19.14 1.18 2.81-0.85 4.62-0.08 7.27 0.67a0.92 0.92 0 0 0 1.17-0.9l-0.27-17.71a0.85 0.84 89.3 0 0-0.84-0.83l-9.51-0.03a0.79 0.79 0 0 0-0.79 0.87l0.79 7.56a1.2 1.19-12 0 1-0.82 1.26c-6.48 2.06-13.03 0.85-14.03-7-1.26-9.81 9.16-14.83 16-7.52q1.11 1.19 2.15-0.07l3.91-4.73a1.58 1.57-44.7 0 0 0.02-1.98c-5.76-7.24-15.92-7.89-23.84-3.89" stroke="#7d7d7d" vector-effect="non-scaling-stroke"/>
  <path d="m489.65 348.66v-8.24" stroke="#c2c6df" vector-effect="non-scaling-stroke"/>
  <path d="m489.65 340.42-0.06-28.94" stroke="#b1b6d5" vector-effect="non-scaling-stroke"/>
  <path d="m489.59 311.48q0.16-5.98 0.15-11.98 0-1.17 0.52-1.72" stroke="#97a7cc" vector-effect="non-scaling-stroke"/>
  <path d="m490.26 297.78 28.88-0.07" stroke="#7d7d7d" vector-effect="non-scaling-stroke"/>
  <path d="m519.14 297.71 0.13 29.66" stroke="#8bc8e5" vector-effect="non-scaling-stroke"/>
  <path d="m519.27 327.37 0.02 21.65" stroke="#b0d5eb" vector-effect="non-scaling-stroke"/>
  <path d="m519.29 349.02-0.05 38.28" stroke="#d2e5f2" vector-effect="non-scaling-stroke"/>
  <path d="m519.24 387.3q-0.03 14.59 0.1 29.2 0.04 3.48 0.49 6.93 0.05 0.4 0.26 0.57 0.37 0.3 0.87 0.02 0.16-0.09 0.16-0.27 0-0.15 0-0.32 0.02-0.33 0.35-0.32c0.95 0.03 1.82 0.53 2.7 0.5q6.59-0.16 13.16-0.56c3.82-0.24 7.79 0.1 11.75-0.02q0.51-0.02 0.83 0.37 0.71 0.86 1.58 0.2 0.43-0.31 0.43-0.84l0.24-35.31" stroke="#e2edf5" vector-effect="non-scaling-stroke"/>
  <path d="m552.16 387.45q-0.41-1.92 0.27-3.52" stroke="#d2e5f2" vector-effect="non-scaling-stroke"/>
  <path d="m552.43 383.93 5.64-0.04a1.86 1.86 0 0 0 1.63-0.96q5.27-9.38 10.01-19.18c2.31-4.76 1.53-10.98 1.53-16.08a0.5 0.49 89.4 0 0-0.5-0.5l-9.74 0.12a0.71 0.71 0 0 0-0.7 0.69q-0.13 5.02 0 10.02c0.12 4.51-3.15 9.44-5.24 13.37a0.48 0.48 0 0 1-0.86-0.02l-2.08-4.49" stroke="#7d7d7d" vector-effect="non-scaling-stroke"/>
  <path d="m552.12 366.86 0.3-39.31" stroke="#b0d5eb" vector-effect="non-scaling-stroke"/>
  <path d="m552.42 327.55q0.1-14.45 0.19-28.04 0.01-1.83 1.33-1.86" stroke="#8bc8e5" vector-effect="non-scaling-stroke"/>
  <path d="m553.94 297.65 3.34-0.05" stroke="#7d7d7d" vector-effect="non-scaling-stroke"/>
  <path d="m557.28 297.6q12.21 0.87 24.6-0.85" stroke="#d6d6d5" vector-effect="non-scaling-stroke"/>
  <path d="m581.88 296.75 0.32 42.19" stroke="#9ad1ab" vector-effect="non-scaling-stroke"/>
  <path d="m582.2 338.94 0.12 27.34" stroke="#c4dfc5" vector-effect="non-scaling-stroke"/>
  <path d="m582.32 366.28-0.07 24.99" stroke="#d7e9d7" vector-effect="non-scaling-stroke"/>
  <path d="m582.25 391.27 0.1 28.91" stroke="#e4efe3" vector-effect="non-scaling-stroke"/>
  <path d="m582.35 420.18q-0.23 22.46 1.27 39.82c0.1 1.14 0.89 2.28 2.09 2.67 6.68 2.16 11.55-1.8 17.94-0.98 2.54 0.33 6.27 0.14 7.93 2.41a1.15 1.15 0 0 0 2.07-0.52c1.94-13.44 1.8-27.34 1.66-41.16" stroke="#f1f6ef" vector-effect="non-scaling-stroke"/>
  <path d="m615.31 422.42 0.05-30.52" stroke="#e4efe3" vector-effect="non-scaling-stroke"/>
  <path d="m615.36 391.9-0.09-24.64" stroke="#d7e9d7" vector-effect="non-scaling-stroke"/>
  <path d="m615.27 367.26 0.17-27.81" stroke="#c4dfc5" vector-effect="non-scaling-stroke"/>
  <path d="m615.44 339.45 0.2-42.33" stroke="#9ad1ab" vector-effect="non-scaling-stroke"/>
  <path d="m615.64 297.12 24.66 0.6" stroke="#d6d6d5" vector-effect="non-scaling-stroke"/>
  <path d="m640.3 297.72 4.67-0.21" stroke="#7d7d7d" vector-effect="non-scaling-stroke"/>
  <path d="m644.97 297.51q0.07 20.68 0.18 41.49 0.02 5.09 0.67 7.93" stroke="#faf191" vector-effect="non-scaling-stroke"/>
  <path d="m645.82 346.93-19.34 0.21a1 1 0 0 0-0.99 1.08q1.42 17.13 0.35 34.29a1.35 1.34 2.7 0 0 1.31 1.43l8.66 0.26q1.56 0.05 1.47-1.51l-0.68-11.89a0.91 0.9-1.8 0 1 0.91-0.96l7.74 0.07" stroke="#7d7d7d" vector-effect="non-scaling-stroke"/>
  <path d="m645.25 369.91 0.31 31.75" stroke="#fcf8df" vector-effect="non-scaling-stroke"/>
  <path d="m645.56 401.66 0.55 32.3" stroke="#fcfaee" vector-effect="non-scaling-stroke"/>
  <path d="m646.11 433.96 1.12 20.4a1.07 1.07 0 0 0 1.17 1.01c3.53-0.35 6.98-0.39 10.35-1.52q2.19-0.73 4.34-1.56c2.31-0.89 4.53-1.22 6.91-1.69 1.71-0.34 3.08-1.33 4.85-1.82q0.5-0.13 0.7-0.61c1.64-3.94 1.8-9.71 1.81-13.73" stroke="#fcf9f3" vector-effect="non-scaling-stroke"/>
  <path d="m677.36 434.44 0.38-31.83" stroke="#fcfaee" vector-effect="non-scaling-stroke"/>
  <path d="m677.74 402.61q0.75-9.68-0.67-18.6" stroke="#fcf8df" vector-effect="non-scaling-stroke"/>
  <path d="m677.07 384.01 7.52-0.19a1.08 1.08 0 0 0 1.05-1.11l-0.46-14.96a0.25 0.24-79.5 0 1 0.34-0.24q0.31 0.12 0.53 0.32 0.18 0.15 0.29 0.41 3.02 7.04 6.03 14.09 0.79 1.84 2.27 2.05a2.1 2.09 15.2 0 0 2.22-1.26l6.73-15.96a0.4 0.4 0 0 1 0.77 0.17l-0.42 15.65a0.77 0.76 2.7 0 0 0.72 0.78l3.67 0.22" stroke="#7d7d7d" vector-effect="non-scaling-stroke"/>
  <path d="m708.33 383.98 0.23 36.09" stroke="#fbecd6" vector-effect="non-scaling-stroke"/>
  <path d="m708.56 420.07q0.21 16.95 0.74 34.18c0.09 3.1 0.34 10.93 4.39 10.15 3.62-0.69 6.31-0.34 9.36-0.88 2.96-0.52 5.63 0.05 8.63-0.5 2.4-0.44 4.07 0.07 6.26 0.38a1.84 1.83-84.1 0 0 2.09-1.7q1.24-18.93 0.84-37.5" stroke="#fcf9f3" vector-effect="non-scaling-stroke"/>
  <path d="m740.87 424.2 0.37-52.95" stroke="#fbecd6" vector-effect="non-scaling-stroke"/>
  <path d="m741.24 371.25v-43.11" stroke="#f8dcb4" vector-effect="non-scaling-stroke"/>
  <path d="m741.24 328.14q-0.13-21.1 0.09-29.86 0.02-0.54 0.64-0.59" stroke="#f7cf97" vector-effect="non-scaling-stroke"/>
  <path d="m741.97 297.69 28.3-0.05" stroke="#7d7d7d" vector-effect="non-scaling-stroke"/>
  <path d="m770.27 297.64q0.32 0.32 0.46 0.62" stroke="#ee918a" vector-effect="non-scaling-stroke"/>
  <path d="m770.73 298.26 0.07 45.94" stroke="#f2b3a1" vector-effect="non-scaling-stroke"/>
  <path d="m770.8 344.2-0.03 21.42" stroke="#f5c8b7" vector-effect="non-scaling-stroke"/>
  <path d="m770.77 365.62 0.01 21.82" stroke="#f7d5c6" vector-effect="non-scaling-stroke"/>
  <path d="m770.78 387.44 0.06 34.34" stroke="#f9e6dc" vector-effect="non-scaling-stroke"/>
  <path d="m770.84 421.78 0.81 34.79a2.05 2.04 89.3 0 0 2.04 2l28.78 0.05q0.84 0 0.86-0.84l0.62-33.02" stroke="#faf0e9" vector-effect="non-scaling-stroke"/>
  <path d="m803.95 424.76 0.28-37.82" stroke="#f9e6dc" vector-effect="non-scaling-stroke"/>
  <path d="m804.23 386.94-0.03-20.89" stroke="#f7d5c6" vector-effect="non-scaling-stroke"/>
  <path d="m804.2 366.05-0.24-19.77" stroke="#f5c8b7" vector-effect="non-scaling-stroke"/>
  <path d="m803.96 346.28 0.56-46.01" stroke="#f2b3a1" vector-effect="non-scaling-stroke"/>
  <path d="m804.52 300.27q0.12-12.63-0.49-20.02-0.1-1.2-2.03-1.31" stroke="#ee918a" vector-effect="non-scaling-stroke"/>
  <path d="m802 278.94q-0.34-0.23-0.25-0.68c1.11-5.77-2.29-16.69-4.37-22.26-0.34-0.91-0.1-2.1-0.6-3.26-1.17-2.73-1.36-5.84-2.2-8.28q-3.77-10.94-8.82-21.47" stroke="#c8c8c7" vector-effect="non-scaling-stroke"/>
  <path d="m785.76 222.99c-6.94-14.79-14.76-28.6-24.06-39.69-2.95-3.51-5.62-7.17-8.3-10.06q-12.03-12.98-17.89-17.75-4.77-3.88-9.55-7.77-0.3-0.24-0.67-0.38-0.63-0.23-1.55-1.08-6.97-6.38-17.51-11.5" stroke="#b6b6b5" vector-effect="non-scaling-stroke"/>
  <path d="m706.23 134.76q-8.96-6.15-19.54-10.41" stroke="#a5a5a4" vector-effect="non-scaling-stroke"/>
  <path d="m686.69 124.35c-44.76-20.97-95.57-25.23-143.22-11.97" stroke="#7d7d7d" vector-effect="non-scaling-stroke"/>
  <path d="m686.69 124.35c0.95 1.44 1.69 2.36 3.41 3.03q1.89 0.74 3.66 1.79c9.95 5.89 19.58 11.97 28.88 19.05q9.71 7.4 12.86 10.54c8.8 8.77 17.28 16.77 25.12 27.34q0.24 0.33 0.78 0.56 0.44 0.18 0.7 0.59l13.8 21.02" stroke="#2a2a29" vector-effect="non-scaling-stroke"/>
  <path d="m775.9 208.27q3.19 6.31 6.38 12.77 10.03 20.34 15.07 42.43" stroke="#3b3b3a" vector-effect="non-scaling-stroke"/>
  <path d="m797.35 263.47 2.98 15.29" stroke="#4d4d4c" vector-effect="non-scaling-stroke"/>
  <path d="m800.33 278.76q-0.05 0.58-0.33 0.58-14 0.07-28.42-0.04-0.85-0.01-0.87 0.84l-0.44 17.5" stroke="#73160f" vector-effect="non-scaling-stroke"/>
  <path d="m741.97 297.69q-0.63-0.26-0.62-0.82 0.17-8.66 0.12-17.11 0-0.41-0.41-0.41l-32.88 0.04a0.43 0.42 90 0 0-0.42 0.43l-0.01 17.09q0 0.28-0.2 0.48-0.17 0.17-0.34 0.26" stroke="#7c541c" vector-effect="non-scaling-stroke"/>
  <path d="m707.21 297.65-28 0.04" stroke="#7d7d7d" vector-effect="non-scaling-stroke"/>
  <path d="m679.21 297.69q-0.83-0.06-0.81-0.71 0.18-8.46 0.09-17.16 0-0.52-0.52-0.52l-23.43 0.03" stroke="#7f7616" vector-effect="non-scaling-stroke"/>
  <path d="m654.54 279.33q0.01-0.77-0.15-1.09-11.81-23.08-36.93-30.72" stroke="#3b3b3a" vector-effect="non-scaling-stroke"/>
  <path d="m617.46 247.52c-25.69-7.55-52.69 1.44-68.54 22.92q-1.02 1.37-2.78 4.56-1.41 2.54-2.93 4.51" stroke="#5b5b5a" vector-effect="non-scaling-stroke"/>
  <path d="m543.21 279.51-23.44-0.15a0.83 0.83 0 0 0-0.84 0.84l0.21 17.51" stroke="#104d6a" vector-effect="non-scaling-stroke"/>
  <path d="m490.26 297.78-0.39-17.12a1.4 1.4 0 0 0-1.4-1.37l-30.93-0.01q-1.49 0-1.51 1.48l-0.24 16.93" stroke="#1c2c51" vector-effect="non-scaling-stroke"/>
  <path d="m427.96 297.73c-0.56-0.46-0.97-0.97-0.97-1.76q0.02-7.6-0.01-15.25a1.28 1.28 0 0 0-1.27-1.28q-13.34-0.2-25.96-0.15-0.4 0-0.78-0.59" stroke="#371844" vector-effect="non-scaling-stroke"/>
  <path d="m398.97 278.7q-0.17-0.8 0.04-1.94 4.45-23.67 12.66-45.29 1.95-5.14 8.26-17.84c0.52-1.05 1.52-2.16 2.02-3.37 2.35-5.64 6.95-10.78 9.47-15.61q0.99-1.9 2.13-3.34 2.4-3.02 2.45-3.09c8.08-11.36 18.79-22.43 28.48-31" stroke="#3b3b3a" vector-effect="non-scaling-stroke"/>
  <path d="m464.48 157.22q18.44-16.01 34.28-24.44c7.56-4.02 15.25-8.55 21.98-11.01 2.24-0.82 4.24-2.06 6.06-2.74q4.74-1.78 9.44-3.67 3.63-1.47 7.23-2.98" stroke="#2a2a29" vector-effect="non-scaling-stroke"/>
  <path d="m552.42 327.55q-2.69 1.07-6.69 1.11c-0.88 0.01-1.94 0.36-2.9 0.32-2.22-0.09-3.65-0.01-5.62 0.21q-0.28 0.03-0.35-0.24-0.07-0.25-0.36-0.26-6.5-0.21-13 0.25-1.99 0.14-4.23-1.57" stroke="#42a5d8" vector-effect="non-scaling-stroke"/>
  <path d="m617.46 247.52q0.94 1.44-1.7 1.31" stroke="#949492" vector-effect="non-scaling-stroke"/>
  <path d="m615.76 248.83q-14.16-4.02-27.75-1.33-28.54 5.65-42.51 31.79" stroke="#5b5b5a" vector-effect="non-scaling-stroke"/>
  <path d="m545.5 279.29-2.29 0.22" stroke="#69a6c2" vector-effect="non-scaling-stroke"/>
  <path d="m464.48 157.22q1.56-1.98 3.15-3.86 1.47-1.74 3.65-3.3 3.74-2.7 7.27-5.68c1.41-1.19 3.13-1.83 4.66-2.99 2.39-1.8 5.13-2.9 7.24-5.2q0.33-0.37 0.81-0.48 2.62-0.59 2.97-2.62" stroke="#636361" vector-effect="non-scaling-stroke"/>
  <path d="m489.59 311.48q-0.61-0.12-0.4 1a1.07 1.06 88.6 0 1-1.19 1.26c-1.91-0.27-3.73-0.77-5.69-0.73q-9.6 0.22-19.2 0.11c-1.55-0.02-3.5-0.71-5.49-0.07q-0.48 0.16-0.6-0.34l-0.7-3.03" stroke="#5065a8" vector-effect="non-scaling-stroke"/>
  <path d="m679.21 297.69q-0.74 0.21-0.74 0.81-0.05 24.04-0.43 48.3" stroke="#faf191" vector-effect="non-scaling-stroke"/>
  <path d="m678.04 346.8q-0.84 0.04-2.12 0.3-1.41 0.28-0.83 2.37" stroke="#7f7616" vector-effect="non-scaling-stroke"/>
  <path d="m675.09 349.47q-0.97-0.6-1.44-1.54-0.2-0.41-0.59-0.18c-1.05 0.62-2.16 0.31-3.04 0.38q-2.48 0.21-4.94 0.04a1.1 1.09 68.6 0 1-0.66-0.29q-0.23-0.21-0.43-0.19-3.63 0.32-7.28-0.19-0.54-0.07-0.95-0.41-0.65-0.54-1.47-0.37-0.53 0.12-1.01-0.14-1.48-0.79-0.83 0.11" stroke="#fdef66" vector-effect="non-scaling-stroke"/>
  <path d="m652.45 346.69-6.63 0.24" stroke="#7f7616" vector-effect="non-scaling-stroke"/>
  <path d="m804.52 300.27-0.57 0.88q-0.31 0.48-0.84 0.27-0.25-0.1-0.41-0.3-0.22-0.27-0.57-0.27l-26.82-0.5q-0.54-0.01-0.98-0.32-1.26-0.89-2.28 0.34a0.42 0.41-39.6 0 1-0.68-0.06q-0.46-0.83-0.64-2.05" stroke="#e74c33" vector-effect="non-scaling-stroke"/>
  <path d="m708.12 323.69q-0.18 11.12 0 22.18 0.01 0.68-0.32 0.88-0.38 0.24-1.08 0.15" stroke="#f8dcb4" vector-effect="non-scaling-stroke"/>
  <path d="m706.72 346.9q-1.65-0.46-2.19 0.65-4.4 9.21-9.02 18.48a0.62 0.62 0 0 1-1.11-0.01l-8.71-18.49a1.53 1.53 0 0 0-1.71-0.84q-2.66 0.56-5.94 0.11" stroke="#7d7d7d" vector-effect="non-scaling-stroke"/>
  <path d="m802 278.94q-0.65 0.31-1.67-0.18" stroke="#be6159" vector-effect="non-scaling-stroke"/>
  <path d="m426.74 298.28-0.31 0.49q-0.28 0.45-0.8 0.43-11.61-0.27-23.22-0.36c-1.1-0.01-2.5 0.5-3.66 0.27q-2.25-0.46-3.74-0.37-0.02 0-0.05 0-0.11-0.04-0.18 0.15a0.31 0.31 0 0 1-0.47 0.14l-0.7-0.5" stroke="#7a4391" vector-effect="non-scaling-stroke"/>
  <path d="m398.97 278.7q-0.79 0.59-1.64 0.34" stroke="#70517c" vector-effect="non-scaling-stroke"/>
  <path d="m785.76 222.99q3.48 9.16 6.78 18.2c0.66 1.8 0.95 4.25 2 6.3 0.87 1.69 0.23 6.67 2.1 8.89q0.35 0.41 0.25 0.94l-0.23 1.12q-0.1 0.52 0.17 0.99 1.1 1.9 0.52 4.04" stroke="#868684" vector-effect="non-scaling-stroke"/>
  <path d="m654.54 279.33-1.17-0.04" stroke="#b8af4e" vector-effect="non-scaling-stroke"/>
  <path d="m741.24 328.14q-0.21 0.32-1.71-0.34-0.83-0.37-1.64-0.38c-6.48-0.12-12.97-0.75-19.34-0.91q-4.45-0.11-8.89-0.35-0.51-0.02-0.71-0.5l-0.83-1.97" stroke="#f7b353" vector-effect="non-scaling-stroke"/>
  <path d="m708.12 323.69q-0.13-12.69-0.45-25.44-0.01-0.55-0.46-0.6" stroke="#f7cf97" vector-effect="non-scaling-stroke"/>
  <path d="m706.23 134.76q22.48 14.65 41.04 33.46 2.86 2.9 5.74 6.23 3.92 4.53 5.35 6.56c1.05 1.5 2.41 2.61 3.29 3.86q3.61 5.13 7.21 10.26 0.85 1.21 1.85 3.19 0.68 1.34 2.03 3.03 2.42 3.03 3.16 6.92" stroke="#636361" vector-effect="non-scaling-stroke"/>
  <path d="m615.76 248.83q21.94 6.76 34.06 25.62 2.11 3.28 3.55 4.84" stroke="#3b3b3a" vector-effect="non-scaling-stroke"/>
  <path d="m653.37 279.29-8.01 0.16q-0.55 0.01-0.55 0.56l0.16 17.5" stroke="#7f7616" vector-effect="non-scaling-stroke"/>
  <path d="m640.3 297.72q-0.14-0.23-0.78-0.31" stroke="#5b5b5a" vector-effect="non-scaling-stroke"/>
  <path d="m639.52 297.41q-0.95-0.81-0.41-2.01a1.5 1.48 49.5 0 0 0.07-0.99q-2.58-9.32-10.43-17.41c-2.98-3.06-4.72-4.34-8.39-6.87-2.56-1.77-5.34-2.37-7.68-3.73q-0.43-0.25-0.93-0.32c-1.47-0.2-2.69-1.09-3.89-1.32-14.96-2.89-30.44 1.3-40.49 12.78q-6.37 7.29-9.07 17.15-0.4 1.44-0.75 2.79" stroke="#2a2a29" vector-effect="non-scaling-stroke"/>
  <path d="m557.55 297.48q-0.25 0.24-0.27 0.12" stroke="#5b5b5a" vector-effect="non-scaling-stroke"/>
  <path d="m553.94 297.65q-0.64 0.04-1.02-0.44-0.26-0.33-0.26-0.98 0.06-8.13 0.03-16.25a0.79 0.79 0 0 0-0.96-0.76q-2.58 0.56-6.23 0.07" stroke="#104d6a" vector-effect="non-scaling-stroke"/>
  <path d="m552.12 366.86c-4.57-5.44-2.65-12.47-2.3-18.68a0.87 0.87 0 0 0-0.84-0.92l-9.46-0.27q-0.91-0.02-0.83 0.88 0.08 0.85-0.16 1.43" stroke="#355a70" vector-effect="non-scaling-stroke"/>
  <path d="m538.53 349.3q-0.47-0.12-0.8-0.35-0.26-0.17-0.49 0.05l-0.22 0.22a0.23 0.23 0 0 1-0.39-0.16q0.01-0.16-0.01-0.34-0.02-0.34-0.32-0.16c-1.24 0.75-2.34 0.32-3.36 0.44q-4.39 0.54-8.78 0.19c-1.11-0.08-2.21-0.71-3.58-0.6q-0.43 0.03-0.4 0.46 0.02 0.26-0.03 0.52-0.12 0.65-0.53 0.13-0.2-0.26-0.33-0.68" stroke="#89c2e5" vector-effect="non-scaling-stroke"/>
  <path d="m489.65 340.42q-8.2 0.24-16.4 0.21-2.56 0-5.13-0.14c-2.76-0.15-5.57 0.51-8.49 0.4-1.07-0.04-1.52 0.33-2.19 1.05q-0.54 0.57-0.54-0.21 0-1.13-0.54-1.73" stroke="#7a84bb" vector-effect="non-scaling-stroke"/>
  <path d="m675.09 349.47 0.26 22.02" stroke="#807b52" vector-effect="non-scaling-stroke"/>
  <path d="m675.35 371.49-0.17-1.16q-0.1-0.61-0.59-0.23-0.9 0.7-1.28 1.68a2.98 2.43 36 0 1-4.56 0.25q-0.28-0.3-1.17 0.02-0.47 0.17-0.93-0.04c-0.86-0.39-1.73 0.11-2.33 0.12q-5.21 0.08-10.32-0.92-0.47-0.09-0.91-0.28l-1.71-0.72" stroke="#fff6b4" vector-effect="non-scaling-stroke"/>
  <path d="m651.38 370.21 0.07-9q0-0.72-0.72-0.73l-4.75-0.05" stroke="#807b52" vector-effect="non-scaling-stroke"/>
  <path d="m645.98 360.43-0.37-4.75" stroke="#fbf6cd" vector-effect="non-scaling-stroke"/>
  <path d="m645.61 355.68 7.21 0.35a0.73 0.72 87.7 0 0 0.75-0.82l-1.12-8.52" stroke="#807b52" vector-effect="non-scaling-stroke"/>
  <path d="m645.61 355.68-6.86-0.32q-2.08-0.1-2.03 1.98l0.02 1.4q0.05 2.05 2.09 1.97l7.15-0.28" stroke="#7d7d7d" vector-effect="non-scaling-stroke"/>
  <path d="m651.38 370.21-6.13-0.3" stroke="#817d64" vector-effect="non-scaling-stroke"/>
  <path d="m714.75 371.47 0.5 10.65q0.08 1.86-1.77 1.86h-5.15" stroke="#80715b" vector-effect="non-scaling-stroke"/>
  <path d="m677.07 384.01q-2.28 0.27-2.21-1.26 0.27-5.65 0.49-11.26" stroke="#817d64" vector-effect="non-scaling-stroke"/>
  <path d="m803.96 346.28-32.25-0.78q-0.49-0.01-0.55-0.5-0.08-0.61-0.36-0.8" stroke="#ee825f" vector-effect="non-scaling-stroke"/>
  <path d="m741.24 371.25-25.18-1.38q-0.53-0.02-0.61 0.5-0.1 0.73-0.7 1.1" stroke="#fad092" vector-effect="non-scaling-stroke"/>
  <path d="m714.75 371.47 0.45-23.63q0.02-1.16-1.14-1.13l-7.34 0.19" stroke="#7d6139" vector-effect="non-scaling-stroke"/>
  <path d="m426.73 335.79q-3.99 0.17-7.99-0.03-5.67-0.29-7.98-0.27c-4.29 0.05-8.46 0.26-12.75 0q-1.65-0.1-3.31 0.42-0.44 0.14-0.52-0.32-0.13-0.72-0.54-0.64" stroke="#956ba7" vector-effect="non-scaling-stroke"/>
  <path d="m615.64 297.12 0.2-7.66" stroke="#78af88" vector-effect="non-scaling-stroke"/>
  <path d="m615.84 289.46q0-0.14 0.05-0.25a0.42 0.42 0 0 1 0.7-0.1l4.03 4.77q0.1 0.12 0.24 0.04l0.21-0.14q0.55-0.33 0.26-0.9-1.88-3.82-5.38-6.45" stroke="#a6a6a4" vector-effect="non-scaling-stroke"/>
  <path d="m615.95 286.43q-0.53-2.85-0.1-5.67a1.14 1.13-85.1 0 0-1.1-1.31l-19.96-0.28" stroke="#78af88" vector-effect="non-scaling-stroke"/>
  <path d="m594.79 279.17q-0.32-0.14-0.4-0.37-0.18-0.54 0.38-0.62 5.18-0.77 10.37-0.21 0.09 0.01 0.1-0.08l0.04-0.26q0.05-0.35-0.29-0.41c-6.46-1.2-9.81-0.27-14.97 1.71" stroke="#a6a6a4" vector-effect="non-scaling-stroke"/>
  <path d="m590.02 278.93-7.34 0.5a0.72 0.71-85.5 0 0-0.64 0.55q-0.52 2.39-0.22 4.81c0.22 1.84-0.61 2.95-0.21 5.01q0.67 3.36 0.27 6.95" stroke="#78af88" vector-effect="non-scaling-stroke"/>
  <path d="m639.52 297.41q-0.45 0.47-1.04-0.44-0.24-0.36-0.12-0.78 0.45-1.55-1.07-1.74a0.88 0.87 82.9 0 1-0.69-0.54q-3.09-7.67-4.36-9.41-6.69-9.16-16.61-14.36c-3.66-1.93-7.98-2.72-12.13-3.77q-2.41-0.61-10.12 0.33-0.31 0.03-0.47 0.3-0.14 0.21-0.44 0.17-0.41-0.05-0.49-0.05-8.94 0.54-16.39 5.45c-6.75 4.44-10 10.33-13.31 17.45-0.89 1.91-3.33 4.74-3.62 7.04q-0.07 0.54-0.61 0.53-0.24-0.01-0.5-0.11" stroke="#838381" vector-effect="non-scaling-stroke"/>
  <path d="m552.16 387.45q-0.36 0.94-0.29 2.03 0.02 0.28-0.25 0.18-0.16-0.06-0.31-0.16-0.4-0.27-0.89-0.29-4.34-0.18-8.68-0.22-6.46-0.06-12.91-0.44c-1.77-0.11-4.19 0.45-6.38-0.31q-0.47-0.16-0.96-0.07-1.4 0.26-2.25-0.87" stroke="#bbdaef" vector-effect="non-scaling-stroke"/>
  <path d="m552.43 383.93q-2.19 0.51-2.82-0.56-3.25-5.49-10.35-20.39c-1.57-3.3-0.75-9.94-0.73-13.68" stroke="#576a77" vector-effect="non-scaling-stroke"/>
  <path d="m489.65 348.66q-7.01 4.67-8.67 13.12" stroke="#474b64" vector-effect="non-scaling-stroke"/>
  <path d="m480.98 361.78q-0.32 0.4-0.82 0.17-0.39-0.19-0.82-0.1c-1.17 0.25-2.28-0.23-3.4-0.02q-1.15 0.21-2.28 0.47c-1.55 0.35-3.32-0.23-4.87-0.13q-1.2 0.07-2.39-0.09-1.17-0.16-2.33 0.01-2.32 0.36-4.66-0.12-0.32-0.07-0.55 0.16l-0.25 0.26q-0.21 0.21-0.44 0.01-0.54-0.47-1.17-0.13-0.12 0.06-0.12 0.12 0 0.14-0.08 0.27-0.06 0.11-0.15 0.02-0.21-0.2-0.39-0.23" stroke="#a1a6d0" vector-effect="non-scaling-stroke"/>
  <path d="m677.74 402.61q-2.37 0.21-8.74 0.46c-5.97 0.23-11.23-0.19-17.32-0.4q-3.19-0.1-6.12-1.01" stroke="#fffad5" vector-effect="non-scaling-stroke"/>
  <path d="m740.87 424.2q-2.8-0.87-5.8-0.42-0.47 0.07-0.92-0.09-1.07-0.38-1.9-0.36-10.85 0.29-17.75-0.17-4.68-0.31-5.94-3.09" stroke="#feecd1" vector-effect="non-scaling-stroke"/>
  <path d="m804.2 366.05-33.43-0.43" stroke="#f3a585" vector-effect="non-scaling-stroke"/>
  <path d="m426.72 359.68q-4.12 1.54-8.97 1.17-6.93-0.51-7.05-0.51c-4.84-0.01-9.85 0.4-14.65-0.15q-0.51-0.06-0.89 0.28l-0.42 0.39q-0.38 0.35-0.54-0.14l-0.49-1.5" stroke="#ae8fbe" vector-effect="non-scaling-stroke"/>
  <path d="m615.95 286.43q0.67 1.02 0.2 1.42-0.36 0.3-0.34 0.76l0.03 0.85" stroke="#6aa17a" vector-effect="non-scaling-stroke"/>
  <path d="m615.44 339.45q-0.32 0.98-1.04 0.99-0.39 0.01-0.61-0.32-0.19-0.29-0.55-0.29-2.33-0.01-4.64 0.22c-1.24 0.13-2.93 0.89-4.36 0.73q-6.68-0.74-12.36-0.61c-3.15 0.08-5.48-0.35-8.38-1.05q-0.17-0.04-0.24 0.12-0.07 0.15-0.16 0.3-0.11 0.2-0.26 0.04l-0.64-0.64" stroke="#66b878" vector-effect="non-scaling-stroke"/>
  <path d="m594.79 279.17-4.77-0.24" stroke="#6aa17a" vector-effect="non-scaling-stroke"/>
  <path d="m489.3 381.78q-10.05-6.89-8.32-20" stroke="#5c5e6f" vector-effect="non-scaling-stroke"/>
  <path d="m489.19 413.18q-3.3 0.39-6.72-0.16c-2.64-0.43-5.11-0.44-8-0.7q-3.72-0.33-9.98 0.78c-2.56 0.46-4.72 0.01-7.23-0.26q-0.57-0.06-0.65-0.63l-0.25-1.68" stroke="#d2d1e6" vector-effect="non-scaling-stroke"/>
  <path d="m677.36 434.44q-1.21 0.39-2.92 0.26-1.43-0.11-2.85 0.16c-2.35 0.45-4.51-0.07-6.77 0.25q-3.18 0.44-6.38 0.12c-2.16-0.22-3.71 0.4-5.62 1.1q-0.38 0.14-0.77 0.07-1.37-0.22-2.41 0.38a0.71 0.7 59.1 0 1-0.95-0.24q-0.3-0.47-1.14-0.75-0.35-0.12-0.43-0.48-0.03-0.17-0.01-0.31 0.1-0.57-0.48-0.61-0.46-0.02-0.52-0.43" stroke="#fffbe9" vector-effect="non-scaling-stroke"/>
  <path d="m804.23 386.94-0.41 1.27q-0.1 0.31-0.37 0.14l-0.22-0.15q-0.43-0.27-0.93-0.19c-5.01 0.85-9.95-0.26-15.05 0.38-1.69 0.22-3.52-0.57-5.33-0.47q-3.1 0.17-6.19-0.15-0.94-0.1-2.45 0.14-1.68 0.26-2.5-0.47" stroke="#f7c3aa" vector-effect="non-scaling-stroke"/>
  <path d="m426.72 380.78q-1.36 1.93-3.73 1.85-12.05-0.39-24.12-0.5a1.66 1.59-26.5 0 1-0.87-0.27q-0.3-0.2-0.45-0.21a3.9 2.27 1.9 0 1-3.6-2.26l-0.15-2.6" stroke="#c3afd1" vector-effect="non-scaling-stroke"/>
  <path d="m615.27 367.26q-3.71-0.3-7.33-0.28c-6.02 0.03-11.87-1.03-18.04-0.46-2.02 0.19-3.97-0.19-5.64-0.18q-0.75 0-1.06 0.62-0.19 0.38-0.49 0.08-0.23-0.23-0.39-0.76" stroke="#a3d0a4" vector-effect="non-scaling-stroke"/>
  <path d="m803.95 424.76q-4.18-0.05-6.7-0.35-0.66-0.08-1.14 0.07-0.41 0.13-0.84 0.11l-20.93-0.95q-0.3-0.01-0.53 0.18-0.23 0.2-0.66 0.1-0.05-0.02-0.32-0.05-0.23-0.02-0.3-0.27-0.1-0.34-0.45-0.4-1.01-0.16-1.24-1.42" stroke="#fbdecd" vector-effect="non-scaling-stroke"/>
  <path d="m426.73 403.16q-10.29 1.24-21.23 0.34c-1.62-0.14-3.29 0.16-4.98 0.17-2.06 0.01-3.73-1.1-6.06-1.08q-0.54 0-0.55-0.54l-0.03-3.09" stroke="#d5c8df" vector-effect="non-scaling-stroke"/>
  <path d="m615.36 391.9q-0.44 1.01-0.9 1.35-0.41 0.3-0.65-0.14-0.6-1.09-2.55-1.06c-7.4 0.09-15.07-0.35-22.41 0.34-2.09 0.2-3.32-1.06-5.72-0.21q-0.52 0.18-0.69-0.34l-0.19-0.57" stroke="#c3e0c2" vector-effect="non-scaling-stroke"/>
  <path d="m426.67 435.26-15.31-0.41q-0.47-0.01-0.88 0.2-0.46 0.22-0.99 0.14-4.8-0.72-9.59 0.09-0.49 0.08-0.92-0.16-1.27-0.69-2.73-0.62-1.41 0.07-1.45 1.49 0 0.05 0.05 0.05 0.25 0.02-0.16 0.08a0.09 0.09 0 0 1-0.1-0.1q0.19-0.97-0.25-1.32" stroke="#e6deeb" vector-effect="non-scaling-stroke"/>
  <path d="m615.31 422.42q-7.73-1.72-16.09-1.78-4.66-0.04-8.43-0.27-4.25-0.27-8.44-0.19" stroke="#ddedda" vector-effect="non-scaling-stroke"/>
  <path d="m516.37 126.88-12.47 6.04" stroke="#4d4d4c" vector-effect="non-scaling-stroke"/>
  <path d="m503.9 132.92-3.7 2.02" stroke="#3b3b3a" vector-effect="non-scaling-stroke"/>
  <path d="m500.2 134.94-11.35 6.74q-0.1 0.06-0.08 0.19 0.02 0.06 0.03 0.12" stroke="#4d4d4c" vector-effect="non-scaling-stroke"/>
  <path d="m488.8 141.99-10.17 7.06" stroke="#4d4d4c" vector-effect="non-scaling-stroke"/>
  <path d="m478.63 149.05c-10.92 8.26-22.24 18.03-30.82 28.8q-3.33 4.18-3.87 4.77-2.08 2.25-6.53 8.19" stroke="#5b5b5a" vector-effect="non-scaling-stroke"/>
  <path d="m437.41 190.81q-7.23 9.82-12.94 20.63" stroke="#4d4d4c" vector-effect="non-scaling-stroke"/>
  <path d="m424.47 211.44-6.79 13.27" stroke="#3b3b3a" vector-effect="non-scaling-stroke"/>
  <path d="m417.68 224.71q-6.19 13.15-9.7 27.34" stroke="#2a2a29" vector-effect="non-scaling-stroke"/>
  <path d="m407.98 252.05q-1.06 2.81-1.29 4.86-0.33 3.02 1.43 0.55l1.51-2.13a0.58 0.58 0 0 1 0.84-0.11q0.15 0.13 0.35 0.17 0.26 0.05 0.51-0.03 3.23-1.13 6.65-1.33 0.29-0.01 0.52-0.14 0.24-0.14 0.49-0.31 0.41-0.28 0.9-0.3 4.69-0.15 9.35-0.57c1.2-0.11 2.5-0.79 4.01-0.61 4.68 0.56 8.56 0.12 14.03 0.96q1.81 0.28 6.9 1.35 5.98 1.26 12.07 1.84 3.37 0.33 13.04 2.56 4.35 1.01 12.84 3.39 6.54 1.83 13.15 3.42 1.71 0.41 5.23 2.26 0.82 0.43 4.04 1.27a1.01 1.01 0 0 1 0.64 0.5q0.26 0.47 0.81 0.5c2.78 0.16 5.45 1.9 8.31 2.35 2.08 0.33 3.66 1.34 5.74 1.85a1.09 1.07-56.6 0 0 0.93-0.2q1.5-1.18 2.13-3.3" stroke="#161616" vector-effect="non-scaling-stroke"/>
  <path d="m533.11 270.85 3.89-6.37" stroke="#2a2a29" vector-effect="non-scaling-stroke"/>
  <path d="m537 264.48 6.04-7.6" stroke="#3b3b3a" vector-effect="non-scaling-stroke"/>
  <path d="m543.04 256.88 2.23-2.6" stroke="#4d4d4c" vector-effect="non-scaling-stroke"/>
  <path d="m545.27 254.28c29.37-29.46 76.32-30.32 106.38-1.18" stroke="#5b5b5a" vector-effect="non-scaling-stroke"/>
  <path d="m651.65 253.1 3.88 4.05" stroke="#4d4d4c" vector-effect="non-scaling-stroke"/>
  <path d="m655.53 257.15 4.83 6.07" stroke="#3b3b3a" vector-effect="non-scaling-stroke"/>
  <path d="m660.36 263.22 3.59 5.9" stroke="#2a2a29" vector-effect="non-scaling-stroke"/>
  <path d="m663.95 269.12 2.03 3.71a2.03 2.02-23.6 0 0 2.41 0.94l23.85-7.96q0.47-0.15 0.85-0.46 0.51-0.42 1.11-0.43 0.32-0.01 0.62-0.09l10.69-2.88q0.54-0.14 1.03-0.44 0.37-0.23 0.7-0.3 4.5-0.93 11.57-1.88c0.59-0.08 1.03-0.46 1.69-0.56q2.82-0.41 5.51-1.33c1.12-0.38 2.39-0.29 3.58-0.82q1.76-0.79 2.48-0.95 4.52-1.01 8.73-2.83c2.1-0.92 4.36-0.85 6.61-1.33q2.86-0.62 5.01-0.52 10.31 0.49 20.62 0.16c3.33-0.11 6.48 0.36 9.76 0.64q0.27 0.03 0.35 0.28 0.07 0.22 0.35 0.25c3.61 0.38 5.92 2.53 7.8 5.79q0.16 0.28 0.44 0.13l0.49-0.27q0.44-0.23 0.45-0.74 0.05-3.36-1.29-6.29" stroke="#161616" vector-effect="non-scaling-stroke"/>
  <path d="m791.39 250.94q-7.02-22.58-18.54-42.93" stroke="#2a2a29" vector-effect="non-scaling-stroke"/>
  <path d="m772.85 208.01-7.17-11.24" stroke="#4d4d4c" vector-effect="non-scaling-stroke"/>
  <path d="m765.68 196.77c-4.31-5.92-8.6-12.14-13.24-17.42q-8.72-9.93-18.4-18.86" stroke="#5b5b5a" vector-effect="non-scaling-stroke"/>
  <path d="m734.04 160.49q-2.13-2.47-4.8-3.99" stroke="#3b3b3a" vector-effect="non-scaling-stroke"/>
  <path d="m729.24 156.5-10.13-7.99" stroke="#5b5b5a" vector-effect="non-scaling-stroke"/>
  <path d="m719.11 148.51-6.31-4.57" stroke="#3b3b3a" vector-effect="non-scaling-stroke"/>
  <path d="m712.8 143.94c-58.79-39.04-131.79-45.75-196.43-17.06" stroke="#5b5b5a" vector-effect="non-scaling-stroke"/>
  <path d="m712.8 143.94 6.31 4.57" stroke="#949492" vector-effect="non-scaling-stroke"/>
  <path d="m729.24 156.5q1.9 2.47 4.8 3.99" stroke="#949492" vector-effect="non-scaling-stroke"/>
  <path d="m765.68 196.77q-1.01 2.74-2.6-1-0.61-1.42-1.67-2.48-1.61-1.63-1.99-2.15-1.11-1.54-2.25-3.06-0.74-0.96-1.99-1.76c-1.96-1.24-3.46-3.08-5.63-3.49-3.87-0.72-6.45 0.67-9.51 3.37q-5.71 5.05-11.52 9.98c-2.81 2.39-6.46 4.64-9.54 7.2-1.09 0.91-2.62 1.46-3.74 2.52q-1.69 1.6-2.53 2.11-9.1 5.42-17.69 11.63-0.39 0.28-0.54 0.75-0.23 0.68-0.91 0.56-0.49-0.09-0.88 0.22c-3.65 2.94-8.09 5.52-11.4 8.03q-7.27 5.52-14.53 11.06-1.05 0.8-3.89 3.51-1.57 1.51-4.11 3.2-3.9 2.59-7.11 6.13" stroke="#a6a6a4" vector-effect="non-scaling-stroke"/>
  <path d="m545.27 254.28q-1.48-0.38-1.55-1.97-0.03-0.54-0.44-0.88l-17.12-14.15a8.4 6.8 18.3 0 0-0.93-0.69q-4.78-3.12-9.22-6.83-5.25-4.38-10.68-8.56c-1.9-1.46-3.22-3.2-5.34-4.51-6.08-3.73-11.47-6.77-18-11.42q-5.23-3.72-16.49-6.92-1.45-0.41-5.58-2.26c-2.44-1.1-6.03-1.98-8.85-3.8a1.15 1.13 55.4 0 0-0.84-0.16q-0.43 0.09-0.34-0.13a1.26 0.79-3.9 0 0-1.64-0.88q-3.39 0.88-6.01-1.42a0.15 0.15 0 0 0-0.21 0.01q-0.14 0.17-0.17 0.4-0.06 0.4-0.46 0.32-0.72-0.15-1.2 0.47-0.28 0.37-0.71 0.58-1.32 0.65-2.06 2.01-0.08 0.16-0.28 0.11a0.25 0.25 0 0 1-0.17-0.34q0.59-1.34 0.43-2.45" stroke="#a6a6a4" vector-effect="non-scaling-stroke"/>
  <path d="m478.63 149.05 4.75-2.47q0.43-0.22 0.73-0.6c1.21-1.49 3.13-2 4.69-3.99" stroke="#a6a6a4" vector-effect="non-scaling-stroke"/>
  <path d="m488.8 141.99 27.57-15.11" stroke="#a6a6a4" vector-effect="non-scaling-stroke"/>
  <path d="m500.2 134.94q2.71-0.34 3.7-2.02" stroke="#868684" vector-effect="non-scaling-stroke"/>
  <path d="m772.85 208.01q-0.13 1.83-1.54 0.98" stroke="#757573" vector-effect="non-scaling-stroke"/>
  <path d="m771.31 208.99q-1.08-2.83-3.8-4.92-0.2-0.16-0.31-0.38-0.13-0.24-0.25-0.48-0.22-0.46-0.66-0.72c-2.33-1.35-4.3-1.78-7-0.73q-3.7 1.45-7.41 2.86c-2.54 0.97-6.66 1.99-9.49 3.55-1.2 0.66-2.19 0.6-3.14 1.06q-2.58 1.23-5.12 2.56c-1.07 0.56-2.32 0.77-3.66 1.53q-5.72 3.25-15.36 7.8c-0.66 0.31-1.59 0.22-2.09 0.54q-5.05 3.15-10.6 5.33c-1.25 0.5-2.24 1.54-3.7 1.94q-0.36 0.1-0.54 0.43-0.09 0.16-0.06 0.32 0.05 0.23-0.19 0.27-2.38 0.36-4.18 1.83-0.4 0.32-0.88 0.46c-2.33 0.67-3.85 2.17-6.06 3.15q-1.28 0.57-2.34 1.51-0.28 0.25-0.65 0.23-0.16-0.01-0.32 0.01-0.73 0.08-0.94 0.23c-3.72 2.62-7.12 4.59-11.19 7.63q-2.02 1.51-5.12 3.49-2.98 1.9-10.72 8.66" stroke="#868684" vector-effect="non-scaling-stroke"/>
  <path d="m543.04 256.88q-1.27-1.52-2.84-2.46-2.98-1.8-3.17-1.92-1.71-1.07-3.88-1.67c-1.51-0.42-2.3-1.83-3.45-2.52-1.81-1.08-3.43-1.81-5.46-3.04q-0.84-0.51-2.24-1.16c-1.58-0.74-3.29-3.01-5.17-4.07q-4.05-2.27-8.02-4.61a1.34 1.31 3 0 1-0.5-0.54c-0.38-0.74-0.59-1.17-1.39-1.6-2.79-1.5-3.68-4.28-7.44-4.44q-0.46-0.02-0.84-0.28c-2.05-1.42-3.73-2.93-6.14-3.75q-4.98-1.7-9.77-3.88-5.46-2.49-11.19-4.25-1.93-0.59-4.43-1.82-2.28-1.12-4.5-1.74-7.61-2.11-13.38-4.19-2.25-0.82-4.73-1.02a1.52 1.52 0 0 1-0.82-0.33q-2.95-2.42-6.7-1.73-0.48 0.09-0.92-0.12-1.11-0.52-2.32-0.62c-1.07-0.09-1.86 0.57-3.05 0.47q-0.49-0.05-0.76 0.36l-5.71 8.3q-0.27 0.38-0.36-0.07-0.14-0.73 0.58-1.52 0.45-0.51 0.03-1.22" stroke="#868684" vector-effect="non-scaling-stroke"/>
  <path d="m791.39 250.94q-1.29 1.76-4.15-2.35-0.31-0.45-0.86-0.46-0.44 0-0.75-0.34-0.34-0.37-0.84-0.43-3.18-0.37-6.36-0.67c-4.99-0.48-10.31-0.11-15.47-0.38q-0.48-0.03-0.89-0.29-0.39-0.25-0.85-0.19-0.87 0.1-0.97 0.1c-7.88-0.44-15.34-0.13-23.17 0.71q-0.73 0.08-3.35 0.71c-1.87 0.45-3.83 0.16-5.6 0.56q-2.99 0.69-6.03 1.23c-1.29 0.24-2.48 0.99-3.85 1.18q-2.78 0.39-2.94 0.43-9.27 2.37-18.25 5.68-0.46 0.17-0.96 0.18-0.42 0.01-0.83 0.18-2.74 1.21-5.55 2.19c-0.97 0.34-1.62 1.19-2.9 1.17q-0.39-0.01-0.69 0.23c-0.32 0.26-0.47 0.49-0.85 0.65q-4.55 1.9-9.07 3.88-6.2 2.73-12.26 4.21" stroke="#3e3d3d" vector-effect="non-scaling-stroke"/>
  <path d="m771.31 208.99 2.45 3.66a0.49 0.49 0 0 1-0.11 0.66l-0.23 0.17q-0.15 0.11-0.27-0.04c-0.99-1.26-1.77-2.82-3.41-3.23-3.34-0.84-7.49 1.04-10.38 1.95q-2.86 0.91-5.86 1.33-7.95 1.1-11.5 2.75c-3.64 1.69-8.02 4.12-11.9 4.96-1.98 0.43-3.83 1.41-5.65 2.27q-1.64 0.77-3.11 2.04-2.18 1.87-4.59 3.95a2.15 2.14 55.1 0 0-0.47 2.67q1.3 2.35-0.14 4.38c-1.42 2-5.2 3.36-7.63 4.31q-0.41 0.17-0.58 0.58-0.22 0.55-0.74 0.49-0.49-0.05-0.91 0.21c-2.55 1.62-5.56 1.8-7.91 2.86q-3.73 1.67-7.4 3.5-0.44 0.22-0.94 0.23-1.06 0.01-1.8 0.62-0.37 0.31-0.83 0.47-2.09 0.72-3.73 2.33-0.35 0.33-0.8 0.48-2.85 0.95-5.17 2.89-0.39 0.32-0.89 0.45-5.36 1.38-9.79 4.56c-1.07 0.77-1.51 2.4-3.43 2.38q-0.46 0-0.86 0.23-0.91 0.54-2.37 0.12" stroke="#636361" vector-effect="non-scaling-stroke"/>
  <path d="m537 264.48-1.02-1.16q-0.33-0.37-0.34-0.87-0.01-0.75-0.77-1.32-5.76-4.35-8.99-6.59c-1.27-0.88-2.37-2.13-3.63-3.12q-0.58-0.46-2.22-1.13c-2.43-0.99-4.8-3.86-6.68-5.69-1.36-1.32-2.99-2.01-4.61-3-0.74-0.46-1.18-1.29-2.2-1.57q-0.46-0.13-0.83-0.43c-3.05-2.46-6.72-3.97-10.16-5.79q-1.95-1.03-4.77-1.93-2.48-0.79-4.87-1.8-6.8-2.86-13.74-5.36-2.51-0.91-7.66-2.74c-2.35-0.84-4.88-0.68-7.24-1.7-4.95-2.15-10.85-4.3-16.27-4.65q-1.52-0.09-2.96-0.55-3.41-1.08-4.23-1.22-2.62-0.42-5.26-0.81-0.52-0.07-0.95 0.23c-1.3 0.93-2.49 1.54-3.41 2.89q-3.44 5.04-5.83 10.75a0.26 0.26 0 0 1-0.33 0.14l-0.25-0.08q-0.24-0.09-0.16-0.33 0.31-1.05 0.06-1.94" stroke="#636361" vector-effect="non-scaling-stroke"/>
  <path d="m533.11 270.85q-1.58-1.14-3.32-1.85-3.07-1.26-3.49-1.47-6.23-3.08-12.82-5.34-0.13-0.04-0.2-0.13-0.09-0.12-0.16-0.25-0.17-0.33-0.52-0.44-9.04-2.83-17.97-6.02-1.49-0.54-3.93-0.88-0.27-0.03-0.35-0.29-0.07-0.23-0.35-0.26-3.13-0.33-5.85-1.84a1.59 1.59 0 0 0-0.88-0.2q-1.55 0.1-2.92-0.62-0.41-0.22-0.87-0.29l-10.19-1.52q-0.35-0.05-0.47-0.37-0.09-0.23-0.31-0.26-3.94-0.56-7.87-1.22c-1.76-0.29-3.68-0.21-5.59-0.51q-2.95-0.47-4.14-0.53-6.54-0.33-13.07-0.56c-2.79-0.1-7.69-0.09-10.29 0.95-1.98 0.79-5.35 0.51-7.55 0.61-3.09 0.15-5.85 1.01-8.8 1.85q-0.53 0.15-0.67 0.68-0.44 1.72-1.95 2.85-0.32 0.24-0.5-0.11-0.14-0.27-0.1-0.78" stroke="#3e3d3d" vector-effect="non-scaling-stroke"/>
  <path d="m618.67 276.54c2.24 1.35 4.23 3.37 6.18 5.19q0.4 0.38 0.81 0.01l0.21-0.19q0.21-0.18 0.03-0.39c-12.32-13.98-34.74-15.49-49.08-3.85q-0.19 0.15-0.05 0.36l0.15 0.21q0.08 0.11 0.18 0.04 5.73-3.91 9.89-5.15 17.02-5.06 31.68 3.77" stroke="#949492" vector-effect="non-scaling-stroke"/>
 </g>
 <path d="m294.08 20.541c0.95 1.44 1.69 2.36 3.41 3.03q1.89 0.74 3.66 1.79c9.95 5.89 19.58 11.97 28.88 19.05q9.71 7.4 12.86 10.54c8.8 8.77 17.28 16.77 25.12 27.34q0.24 0.33 0.78 0.56 0.44 0.18 0.7 0.59l13.8 21.02q3.19 6.31 6.38 12.77 10.03 20.34 15.07 42.43l2.98 15.29q-0.05 0.58-0.33 0.58-14 0.07-28.42-0.04-0.85-0.01-0.87 0.84l-0.44 17.5-28.3 0.05q-0.63-0.26-0.62-0.82 0.17-8.66 0.12-17.11 0-0.41-0.41-0.41l-32.88 0.04a0.42 0.43 0 0 0-0.42 0.43l-0.01 17.09q0 0.28-0.2 0.48-0.17 0.17-0.34 0.26l-28 0.04q-0.83-0.06-0.81-0.71 0.18-8.46 0.09-17.16 0-0.52-0.52-0.52l-23.43 0.03q0.01-0.77-0.15-1.09-11.81-23.08-36.93-30.72c-25.69-7.55-52.69 1.44-68.54 22.92q-1.02 1.37-2.78 4.56-1.41 2.54-2.93 4.51l-23.44-0.15a0.83 0.83 0 0 0-0.84 0.84l0.21 17.51-28.88 0.07-0.39-17.12a1.4 1.4 0 0 0-1.4-1.37l-30.93-0.01q-1.49 0-1.51 1.48l-0.24 16.93-27.83 0.04c-0.56-0.46-0.97-0.97-0.97-1.76q0.02-7.6-0.01-15.25a1.28 1.28 0 0 0-1.27-1.28q-13.34-0.2-25.96-0.15-0.4 0-0.78-0.59-0.17-0.8 0.04-1.94 4.45-23.67 12.66-45.29 1.95-5.14 8.26-17.84c0.52-1.05 1.52-2.16 2.02-3.37 2.35-5.64 6.95-10.78 9.47-15.61q0.99-1.9 2.13-3.34 2.4-3.02 2.45-3.09c8.08-11.36 18.79-22.43 28.48-31q18.44-16.01 34.28-24.44c7.56-4.02 15.25-8.55 21.98-11.01 2.24-0.82 4.24-2.06 6.06-2.74q4.74-1.78 9.44-3.67 3.63-1.47 7.23-2.98c47.65-13.26 98.46-9 143.22 11.97zm-170.32 2.53-12.47 6.04-3.7 2.02-11.35 6.74q-0.1 0.06-0.08 0.19 0.02 0.06 0.03 0.12l-10.17 7.06c-10.92 8.26-22.24 18.03-30.82 28.8q-3.33 4.18-3.87 4.77-2.08 2.25-6.53 8.19-7.23 9.82-12.94 20.63l-6.79 13.27q-6.19 13.15-9.7 27.34-1.06 2.81-1.29 4.86-0.33 3.02 1.43 0.55l1.51-2.13a0.58 0.58 0 0 1 0.84-0.11q0.15 0.13 0.35 0.17 0.26 0.05 0.51-0.03 3.23-1.13 6.65-1.33 0.29-0.01 0.52-0.14 0.24-0.14 0.49-0.31 0.41-0.28 0.9-0.3 4.69-0.15 9.35-0.57c1.2-0.11 2.5-0.79 4.01-0.61 4.68 0.56 8.56 0.12 14.03 0.96q1.81 0.28 6.9 1.35 5.98 1.26 12.07 1.84 3.37 0.33 13.04 2.56 4.35 1.01 12.84 3.39 6.54 1.83 13.15 3.42 1.71 0.41 5.23 2.26 0.82 0.43 4.04 1.27a1.01 1.01 0 0 1 0.64 0.5q0.26 0.47 0.81 0.5c2.78 0.16 5.45 1.9 8.31 2.35 2.08 0.33 3.66 1.34 5.74 1.85a1.07 1.09 33.4 0 0 0.93-0.2q1.5-1.18 2.13-3.3l3.89-6.37 6.04-7.6 2.23-2.6c29.37-29.46 76.32-30.32 106.38-1.18l3.88 4.05 4.83 6.07 3.59 5.9 2.03 3.71a2.02 2.03 66.4 0 0 2.41 0.94l23.85-7.96q0.47-0.15 0.85-0.46 0.51-0.42 1.11-0.43 0.32-0.01 0.62-0.09l10.69-2.88q0.54-0.14 1.03-0.44 0.37-0.23 0.7-0.3 4.5-0.93 11.57-1.88c0.59-0.08 1.03-0.46 1.69-0.56q2.82-0.41 5.51-1.33c1.12-0.38 2.39-0.29 3.58-0.82q1.76-0.79 2.48-0.95 4.52-1.01 8.73-2.83c2.1-0.92 4.36-0.85 6.61-1.33q2.86-0.62 5.01-0.52 10.31 0.49 20.62 0.16c3.33-0.11 6.48 0.36 9.76 0.64q0.27 0.03 0.35 0.28 0.07 0.22 0.35 0.25c3.61 0.38 5.92 2.53 7.8 5.79q0.16 0.28 0.44 0.13l0.49-0.27q0.44-0.23 0.45-0.74 0.05-3.36-1.29-6.29-7.02-22.58-18.54-42.93l-7.17-11.24c-4.31-5.92-8.6-12.14-13.24-17.42q-8.72-9.93-18.4-18.86-2.13-2.47-4.8-3.99l-10.13-7.99-6.31-4.57c-58.79-39.04-131.79-45.75-196.43-17.06z" fill="#020202"/>
 <path d="m320.19 40.131 6.31 4.57 10.13 7.99q1.9 2.47 4.8 3.99 9.68 8.93 18.4 18.86c4.64 5.28 8.93 11.5 13.24 17.42q-1.01 2.74-2.6-1-0.61-1.42-1.67-2.48-1.61-1.63-1.99-2.15-1.11-1.54-2.25-3.06-0.74-0.96-1.99-1.76c-1.96-1.24-3.46-3.08-5.63-3.49-3.87-0.72-6.45 0.67-9.51 3.37q-5.71 5.05-11.52 9.98c-2.81 2.39-6.46 4.64-9.54 7.2-1.09 0.91-2.62 1.46-3.74 2.52q-1.69 1.6-2.53 2.11-9.1 5.42-17.69 11.63-0.39 0.28-0.54 0.75-0.23 0.68-0.91 0.56-0.49-0.09-0.88 0.22c-3.65 2.94-8.09 5.52-11.4 8.03q-7.27 5.52-14.53 11.06-1.05 0.8-3.89 3.51-1.57 1.51-4.11 3.2-3.9 2.59-7.11 6.13c-30.06-29.14-77.01-28.28-106.38 1.18q-1.48-0.38-1.55-1.97-0.03-0.54-0.44-0.88l-17.12-14.15a8.4 6.8 18.3 0 0-0.93-0.69q-4.78-3.12-9.22-6.83-5.25-4.38-10.68-8.56c-1.9-1.46-3.22-3.2-5.34-4.51-6.08-3.73-11.47-6.77-18-11.42q-5.23-3.72-16.49-6.92-1.45-0.41-5.58-2.26c-2.44-1.1-6.03-1.98-8.85-3.8a1.15 1.13 55.4 0 0-0.84-0.16q-0.43 0.09-0.34-0.13a0.79 1.26 86.1 0 0-1.64-0.88q-3.39 0.88-6.01-1.42a0.15 0.15 0 0 0-0.21 0.01q-0.14 0.17-0.17 0.4-0.06 0.4-0.46 0.32-0.72-0.15-1.2 0.47-0.28 0.37-0.71 0.58-1.32 0.65-2.06 2.01-0.08 0.16-0.28 0.11a0.25 0.25 0 0 1-0.17-0.34q0.59-1.34 0.43-2.45 4.45-5.94 6.53-8.19 0.54-0.59 3.87-4.77c8.58-10.77 19.9-20.54 30.82-28.8l4.75-2.47q0.43-0.22 0.73-0.6c1.21-1.49 3.13-2 4.69-3.99l27.57-15.11c64.64-28.69 137.64-21.98 196.43 17.06z" fill="#b4b4b2"/>
 <path d="m150.86 8.5713q-3.6 1.51-7.23 2.98-4.7 1.89-9.44 3.67c-1.82 0.68-3.82 1.92-6.06 2.74-6.73 2.46-14.42 6.99-21.98 11.01q-15.84 8.43-34.28 24.44 1.56-1.98 3.15-3.86 1.47-1.74 3.65-3.3 3.74-2.7 7.27-5.68c1.41-1.19 3.13-1.83 4.66-2.99 2.39-1.8 5.13-2.9 7.24-5.2q0.33-0.37 0.81-0.48 2.62-0.59 2.97-2.62 23.29-13.73 49.24-20.71z" fill="#515150"/>
 <path d="m294.08 20.541q10.58 4.26 19.54 10.41 22.48 14.65 41.04 33.46 2.86 2.9 5.74 6.23 3.92 4.53 5.35 6.56c1.05 1.5 2.41 2.61 3.29 3.86q3.61 5.13 7.21 10.26 0.85 1.21 1.85 3.19 0.68 1.34 2.03 3.03 2.42 3.03 3.16 6.92l-13.8-21.02q-0.26-0.41-0.7-0.59-0.54-0.23-0.78-0.56c-7.84-10.57-16.32-18.57-25.12-27.34q-3.15-3.14-12.86-10.54c-9.3-7.08-18.93-13.16-28.88-19.05q-1.77-1.05-3.66-1.79c-1.72-0.67-2.46-1.59-3.41-3.03z" fill="#515150"/>
 <path d="m123.76 23.071-27.57 15.11q-0.01-0.06-0.03-0.12-0.02-0.13 0.08-0.19l11.35-6.74q2.71-0.34 3.7-2.02z" fill="#989896"/>
 <path d="m101.62 29.281q-0.35 2.03-2.97 2.62-0.48 0.11-0.81 0.48c-2.11 2.3-4.85 3.4-7.24 5.2-1.53 1.16-3.25 1.8-4.66 2.99q-3.53 2.98-7.27 5.68-2.18 1.56-3.65 3.3-1.59 1.88-3.15 3.86c-9.69 8.57-20.4 19.64-28.48 31q-0.05 0.07-2.45 3.09-1.14 1.44-2.13 3.34c-2.52 4.83-7.12 9.97-9.47 15.61-0.5 1.21-1.5 2.32-2.02 3.37q-6.31 12.7-8.26 17.84-8.21 21.62-12.66 45.29-0.21 1.14-0.04 1.94-0.79 0.59-1.64 0.34-0.01-1.81 0.24-3.52 2.54-17.01 8.28-33.25 3.34-9.47 7.14-18.76c3.73-9.11 10.04-19.46 16.16-28.92 16.18-25 39.58-46.26 65.08-61.5z" fill="#747472"/>
 <path d="m111.29 29.111q-0.99 1.68-3.7 2.02z" fill="#747472"/>
 <path d="m313.62 30.951q10.54 5.12 17.51 11.5 0.92 0.85 1.55 1.08 0.37 0.14 0.67 0.38 4.78 3.89 9.55 7.77 5.86 4.77 17.89 17.75c2.68 2.89 5.35 6.55 8.3 10.06 9.3 11.09 17.12 24.9 24.06 39.69q3.48 9.16 6.78 18.2c0.66 1.8 0.95 4.25 2 6.3 0.87 1.69 0.23 6.67 2.1 8.89q0.35 0.41 0.25 0.94l-0.23 1.12q-0.1 0.52 0.17 0.99 1.1 1.9 0.52 4.04-5.04-22.09-15.07-42.43-3.19-6.46-6.38-12.77-0.74-3.89-3.16-6.92-1.35-1.69-2.03-3.03-1-1.98-1.85-3.19-3.6-5.13-7.21-10.26c-0.88-1.25-2.24-2.36-3.29-3.86q-1.43-2.03-5.35-6.56-2.88-3.33-5.74-6.23-18.56-18.81-41.04-33.46z" fill="#747472"/>
 <path d="m96.19 38.181c-1.56 1.99-3.48 2.5-4.69 3.99q-0.3 0.38-0.73 0.6l-4.75 2.47z" fill="#989896"/>
 <path d="m320.19 40.131 6.31 4.57z" fill="#747472"/>
 <path d="m336.63 52.691q2.67 1.52 4.8 3.99-2.9-1.52-4.8-3.99z" fill="#747472"/>
 <path d="m373.07 92.961 7.17 11.24q-0.13 1.83-1.54 0.98-1.08-2.83-3.8-4.92-0.2-0.16-0.31-0.38-0.13-0.24-0.25-0.48-0.22-0.46-0.66-0.72c-2.33-1.35-4.3-1.78-7-0.73q-3.7 1.45-7.41 2.86c-2.54 0.97-6.66 1.99-9.49 3.55-1.2 0.66-2.19 0.6-3.14 1.06q-2.58 1.23-5.12 2.56c-1.07 0.56-2.32 0.77-3.66 1.53q-5.72 3.25-15.36 7.8c-0.66 0.31-1.59 0.22-2.09 0.54q-5.05 3.15-10.6 5.33c-1.25 0.5-2.24 1.54-3.7 1.94q-0.36 0.1-0.54 0.43-0.09 0.16-0.06 0.32 0.05 0.23-0.19 0.27-2.38 0.36-4.18 1.83-0.4 0.32-0.88 0.46c-2.33 0.67-3.85 2.17-6.06 3.15q-1.28 0.57-2.34 1.51-0.28 0.25-0.65 0.23-0.16-0.01-0.32 0.01-0.73 0.08-0.94 0.23c-3.72 2.62-7.12 4.59-11.19 7.63q-2.02 1.51-5.12 3.49-2.98 1.9-10.72 8.66l-3.88-4.05q3.21-3.54 7.11-6.13 2.54-1.69 4.11-3.2 2.84-2.71 3.89-3.51 7.26-5.54 14.53-11.06c3.31-2.51 7.75-5.09 11.4-8.03q0.39-0.31 0.88-0.22 0.68 0.12 0.91-0.56 0.15-0.47 0.54-0.75 8.59-6.21 17.69-11.63 0.84-0.51 2.53-2.11c1.12-1.06 2.65-1.61 3.74-2.52 3.08-2.56 6.73-4.81 9.54-7.2q5.81-4.93 11.52-9.98c3.06-2.7 5.64-4.09 9.51-3.37 2.17 0.41 3.67 2.25 5.63 3.49q1.25 0.8 1.99 1.76 1.14 1.52 2.25 3.06 0.38 0.52 1.99 2.15 1.06 1.06 1.67 2.48 1.59 3.74 2.6 1z" fill="#989896"/>
 <path d="m152.66 150.47-2.23 2.6q-1.27-1.52-2.84-2.46-2.98-1.8-3.17-1.92-1.71-1.07-3.88-1.67c-1.51-0.42-2.3-1.83-3.45-2.52-1.81-1.08-3.43-1.81-5.46-3.04q-0.84-0.51-2.24-1.16c-1.58-0.74-3.29-3.01-5.17-4.07q-4.05-2.27-8.02-4.61a1.34 1.31 3 0 1-0.5-0.54c-0.38-0.74-0.59-1.17-1.39-1.6-2.79-1.5-3.68-4.28-7.44-4.44q-0.46-0.02-0.84-0.28c-2.05-1.42-3.73-2.93-6.14-3.75q-4.98-1.7-9.77-3.88-5.46-2.49-11.19-4.25-1.93-0.59-4.43-1.82-2.28-1.12-4.5-1.74-7.61-2.11-13.38-4.19-2.25-0.82-4.73-1.02a1.52 1.52 0 0 1-0.82-0.33q-2.95-2.42-6.7-1.73-0.48 0.09-0.92-0.12-1.11-0.52-2.32-0.62c-1.07-0.09-1.86 0.57-3.05 0.47q-0.49-0.05-0.76 0.36l-5.71 8.3q-0.27 0.38-0.36-0.07-0.14-0.73 0.58-1.52 0.45-0.51 0.03-1.22 5.71-10.81 12.94-20.63 0.16 1.11-0.43 2.45a0.25 0.25 0 0 0 0.17 0.34q0.2 0.05 0.28-0.11 0.74-1.36 2.06-2.01 0.43-0.21 0.71-0.58 0.48-0.62 1.2-0.47 0.4 0.08 0.46-0.32 0.03-0.23 0.17-0.4a0.15 0.15 0 0 1 0.21-0.01q2.62 2.3 6.01 1.42a0.79 1.26 86.1 0 1 1.64 0.88q-0.09 0.22 0.34 0.13a1.15 1.13 55.4 0 1 0.84 0.16c2.82 1.82 6.41 2.7 8.85 3.8q4.13 1.85 5.58 2.26 11.26 3.2 16.49 6.92c6.53 4.65 11.92 7.69 18 11.42 2.12 1.31 3.44 3.05 5.34 4.51q5.43 4.18 10.68 8.56 4.44 3.71 9.22 6.83a8.4 6.8 18.3 0 1 0.93 0.69l17.12 14.15q0.41 0.34 0.44 0.88 0.07 1.59 1.55 1.97z" fill="#989896"/>
 <path d="m378.7 105.18 2.45 3.66a0.49 0.49 0 0 1-0.11 0.66l-0.23 0.17q-0.15 0.11-0.27-0.04c-0.99-1.26-1.77-2.82-3.41-3.23-3.34-0.84-7.49 1.04-10.38 1.95q-2.86 0.91-5.86 1.33-7.95 1.1-11.5 2.75c-3.64 1.69-8.02 4.12-11.9 4.96-1.98 0.43-3.83 1.41-5.65 2.27q-1.64 0.77-3.11 2.04-2.18 1.87-4.59 3.95a2.15 2.14 55.1 0 0-0.47 2.67q1.3 2.35-0.14 4.38c-1.42 2-5.2 3.36-7.63 4.31q-0.41 0.17-0.58 0.58-0.22 0.55-0.74 0.49-0.49-0.05-0.91 0.21c-2.55 1.62-5.56 1.8-7.91 2.86q-3.73 1.67-7.4 3.5-0.44 0.22-0.94 0.23-1.06 0.01-1.8 0.62-0.37 0.31-0.83 0.47-2.09 0.72-3.73 2.33-0.35 0.33-0.8 0.48-2.85 0.95-5.17 2.89-0.39 0.32-0.89 0.45-5.36 1.38-9.79 4.56c-1.07 0.77-1.51 2.4-3.43 2.38q-0.46 0-0.86 0.23-0.91 0.54-2.37 0.12l-4.83-6.07q7.74-6.76 10.72-8.66 3.1-1.98 5.12-3.49c4.07-3.04 7.47-5.01 11.19-7.63q0.21-0.15 0.94-0.23 0.16-0.02 0.32-0.01 0.37 0.02 0.65-0.23 1.06-0.94 2.34-1.51c2.21-0.98 3.73-2.48 6.06-3.15q0.48-0.14 0.88-0.46 1.8-1.47 4.18-1.83 0.24-0.04 0.19-0.27-0.03-0.16 0.06-0.32 0.18-0.33 0.54-0.43c1.46-0.4 2.45-1.44 3.7-1.94q5.55-2.18 10.6-5.33c0.5-0.32 1.43-0.23 2.09-0.54q9.64-4.55 15.36-7.8c1.34-0.76 2.59-0.97 3.66-1.53q2.54-1.33 5.12-2.56c0.95-0.46 1.94-0.4 3.14-1.06 2.83-1.56 6.95-2.58 9.49-3.55q3.71-1.41 7.41-2.86c2.7-1.05 4.67-0.62 7 0.73q0.44 0.26 0.66 0.72 0.12 0.24 0.25 0.48 0.11 0.22 0.31 0.38 2.72 2.09 3.8 4.92z" fill="#747472"/>
 <path d="m150.43 153.07-6.04 7.6-1.02-1.16q-0.33-0.37-0.34-0.87-0.01-0.75-0.77-1.32-5.76-4.35-8.99-6.59c-1.27-0.88-2.37-2.13-3.63-3.12q-0.58-0.46-2.22-1.13c-2.43-0.99-4.8-3.86-6.68-5.69-1.36-1.32-2.99-2.01-4.61-3-0.74-0.46-1.18-1.29-2.2-1.57q-0.46-0.13-0.83-0.43c-3.05-2.46-6.72-3.97-10.16-5.79q-1.95-1.03-4.77-1.93-2.48-0.79-4.87-1.8-6.8-2.86-13.74-5.36-2.51-0.91-7.66-2.74c-2.35-0.84-4.88-0.68-7.24-1.7-4.95-2.15-10.85-4.3-16.27-4.65q-1.52-0.09-2.96-0.55-3.41-1.08-4.23-1.22-2.62-0.42-5.26-0.81-0.52-0.07-0.95 0.23c-1.3 0.93-2.49 1.54-3.41 2.89q-3.44 5.04-5.83 10.75a0.26 0.26 0 0 1-0.33 0.14l-0.25-0.08q-0.24-0.09-0.16-0.33 0.31-1.05 0.06-1.94l6.79-13.27q0.42 0.71-0.03 1.22-0.72 0.79-0.58 1.52 0.09 0.45 0.36 0.07l5.71-8.3q0.27-0.41 0.76-0.36c1.19 0.1 1.98-0.56 3.05-0.47q1.21 0.1 2.32 0.62 0.44 0.21 0.92 0.12 3.75-0.69 6.7 1.73a1.52 1.52 0 0 0 0.82 0.33q2.48 0.2 4.73 1.02 5.77 2.08 13.38 4.19 2.22 0.62 4.5 1.74 2.5 1.23 4.43 1.82 5.73 1.76 11.19 4.25 4.79 2.18 9.77 3.88c2.41 0.82 4.09 2.33 6.14 3.75q0.38 0.26 0.84 0.28c3.76 0.16 4.65 2.94 7.44 4.44 0.8 0.43 1.01 0.86 1.39 1.6a1.34 1.31 3 0 0 0.5 0.54q3.97 2.34 8.02 4.61c1.88 1.06 3.59 3.33 5.17 4.07q1.4 0.65 2.24 1.16c2.03 1.23 3.65 1.96 5.46 3.04 1.15 0.69 1.94 2.1 3.45 2.52q2.17 0.6 3.88 1.67 0.19 0.12 3.17 1.92 1.57 0.94 2.84 2.46z" fill="#747472"/>
 <path d="m380.24 104.2q11.52 20.35 18.54 42.93-1.29 1.76-4.15-2.35-0.31-0.45-0.86-0.46-0.44 0-0.75-0.34-0.34-0.37-0.84-0.43-3.18-0.37-6.36-0.67c-4.99-0.48-10.31-0.11-15.47-0.38q-0.48-0.03-0.89-0.29-0.39-0.25-0.85-0.19-0.87 0.1-0.97 0.1c-7.88-0.44-15.34-0.13-23.17 0.71q-0.73 0.08-3.35 0.71c-1.87 0.45-3.83 0.16-5.6 0.56q-2.99 0.69-6.03 1.23c-1.29 0.24-2.48 0.99-3.85 1.18q-2.78 0.39-2.94 0.43-9.27 2.37-18.25 5.68-0.46 0.17-0.96 0.18-0.42 0.01-0.83 0.18-2.74 1.21-5.55 2.19c-0.97 0.34-1.62 1.19-2.9 1.17q-0.39-0.01-0.69 0.23c-0.32 0.26-0.47 0.49-0.85 0.65q-4.55 1.9-9.07 3.88-6.2 2.73-12.26 4.21l-3.59-5.9q1.46 0.42 2.37-0.12 0.4-0.23 0.86-0.23c1.92 0.02 2.36-1.61 3.43-2.38q4.43-3.18 9.79-4.56 0.5-0.13 0.89-0.45 2.32-1.94 5.17-2.89 0.45-0.15 0.8-0.48 1.64-1.61 3.73-2.33 0.46-0.16 0.83-0.47 0.74-0.61 1.8-0.62 0.5-0.01 0.94-0.23 3.67-1.83 7.4-3.5c2.35-1.06 5.36-1.24 7.91-2.86q0.42-0.26 0.91-0.21 0.52 0.06 0.74-0.49 0.17-0.41 0.58-0.58c2.43-0.95 6.21-2.31 7.63-4.31q1.44-2.03 0.14-4.38a2.15 2.14 55.1 0 1 0.47-2.67q2.41-2.08 4.59-3.95 1.47-1.27 3.11-2.04c1.82-0.86 3.67-1.84 5.65-2.27 3.88-0.84 8.26-3.27 11.9-4.96q3.55-1.65 11.5-2.75 3-0.42 5.86-1.33c2.89-0.91 7.04-2.79 10.38-1.95 1.64 0.41 2.42 1.97 3.41 3.23q0.12 0.15 0.27 0.04l0.23-0.17a0.49 0.49 0 0 0 0.11-0.66l-2.45-3.66q1.41 0.85 1.54-0.98z" fill="#515150"/>
 <path d="m144.39 160.67-3.89 6.37q-1.58-1.14-3.32-1.85-3.07-1.26-3.49-1.47-6.23-3.08-12.82-5.34-0.13-0.04-0.2-0.13-0.09-0.12-0.16-0.25-0.17-0.33-0.52-0.44-9.04-2.83-17.97-6.02-1.49-0.54-3.93-0.88-0.27-0.03-0.35-0.29-0.07-0.23-0.35-0.26-3.13-0.33-5.85-1.84a1.59 1.59 0 0 0-0.88-0.2q-1.55 0.1-2.92-0.62-0.41-0.22-0.87-0.29l-10.19-1.52q-0.35-0.05-0.47-0.37-0.09-0.23-0.31-0.26-3.94-0.56-7.87-1.22c-1.76-0.29-3.68-0.21-5.59-0.51q-2.95-0.47-4.14-0.53-6.54-0.33-13.07-0.56c-2.79-0.1-7.69-0.09-10.29 0.95-1.98 0.79-5.35 0.51-7.55 0.61-3.09 0.15-5.85 1.01-8.8 1.85q-0.53 0.15-0.67 0.68-0.44 1.72-1.95 2.85-0.32 0.24-0.5-0.11-0.14-0.27-0.1-0.78 3.51-14.19 9.7-27.34 0.25 0.89-0.06 1.94-0.08 0.24 0.16 0.33l0.25 0.08a0.26 0.26 0 0 0 0.33-0.14q2.39-5.71 5.83-10.75c0.92-1.35 2.11-1.96 3.41-2.89q0.43-0.3 0.95-0.23 2.64 0.39 5.26 0.81 0.82 0.14 4.23 1.22 1.44 0.46 2.96 0.55c5.42 0.35 11.32 2.5 16.27 4.65 2.36 1.02 4.89 0.86 7.24 1.7q5.15 1.83 7.66 2.74 6.94 2.5 13.74 5.36 2.39 1.01 4.87 1.8 2.82 0.9 4.77 1.93c3.44 1.82 7.11 3.33 10.16 5.79q0.37 0.3 0.83 0.43c1.02 0.28 1.46 1.11 2.2 1.57 1.62 0.99 3.25 1.68 4.61 3 1.88 1.83 4.25 4.7 6.68 5.69q1.64 0.67 2.22 1.13c1.26 0.99 2.36 2.24 3.63 3.12q3.23 2.24 8.99 6.59 0.76 0.57 0.77 1.32 0.01 0.5 0.34 0.87z" fill="#515150"/>
 <path d="m393.15 119.18q5.05 10.53 8.82 21.47c0.84 2.44 1.03 5.55 2.2 8.28 0.5 1.16 0.26 2.35 0.6 3.26 2.08 5.57 5.48 16.49 4.37 22.26q-0.09 0.45 0.25 0.68-0.65 0.31-1.67-0.18l-2.98-15.29q0.58-2.14-0.52-4.04-0.27-0.47-0.17-0.99l0.23-1.12q0.1-0.53-0.25-0.94c-1.87-2.22-1.23-7.2-2.1-8.89-1.05-2.05-1.34-4.5-2-6.3q-3.3-9.04-6.78-18.2z" fill="#989896"/>
 <path d="m224.85 143.71q0.94 1.44-1.7 1.31-14.16-4.02-27.75-1.33-28.54 5.65-42.51 31.79l-2.29 0.22q1.52-1.97 2.93-4.51 1.76-3.19 2.78-4.56c15.85-21.48 42.85-30.47 68.54-22.92z" fill="#b4b4b2"/>
 <path d="m398.78 147.13q1.34 2.93 1.29 6.29-0.01 0.51-0.45 0.74l-0.49 0.27q-0.28 0.15-0.44-0.13c-1.88-3.26-4.19-5.41-7.8-5.79q-0.28-0.03-0.35-0.25-0.08-0.25-0.35-0.28c-3.28-0.28-6.43-0.75-9.76-0.64q-10.31 0.33-20.62-0.16-2.15-0.1-5.01 0.52c-2.25 0.48-4.51 0.41-6.61 1.33q-4.21 1.82-8.73 2.83-0.72 0.16-2.48 0.95c-1.19 0.53-2.46 0.44-3.58 0.82q-2.69 0.92-5.51 1.33c-0.66 0.1-1.1 0.48-1.69 0.56q-7.07 0.95-11.57 1.88-0.33 0.07-0.7 0.3-0.49 0.3-1.03 0.44l-10.69 2.88q-0.3 0.08-0.62 0.09-0.6 0.01-1.11 0.43-0.38 0.31-0.85 0.46l-23.85 7.96a2.02 2.03 66.4 0 1-2.41-0.94l-2.03-3.71q6.06-1.48 12.26-4.21 4.52-1.98 9.07-3.88c0.38-0.16 0.53-0.39 0.85-0.65q0.3-0.24 0.69-0.23c1.28 0.02 1.93-0.83 2.9-1.17q2.81-0.98 5.55-2.19 0.41-0.17 0.83-0.18 0.5-0.01 0.96-0.18 8.98-3.31 18.25-5.68 0.16-0.04 2.94-0.43c1.37-0.19 2.56-0.94 3.85-1.18q3.04-0.54 6.03-1.23c1.77-0.4 3.73-0.11 5.6-0.56q2.62-0.63 3.35-0.71c7.83-0.84 15.29-1.15 23.17-0.71q0.1 0 0.97-0.1 0.46-0.06 0.85 0.19 0.41 0.26 0.89 0.29c5.16 0.27 10.48-0.1 15.47 0.38q3.18 0.3 6.36 0.67 0.5 0.06 0.84 0.43 0.31 0.34 0.75 0.34 0.55 0.01 0.86 0.46 2.86 4.11 4.15 2.35z" fill="#2a292a"/>
 <path d="m140.5 167.04q-0.63 2.12-2.13 3.3a1.07 1.09 33.4 0 1-0.93 0.2c-2.08-0.51-3.66-1.52-5.74-1.85-2.86-0.45-5.53-2.19-8.31-2.35q-0.55-0.03-0.81-0.5a1.01 1.01 0 0 0-0.64-0.5q-3.22-0.84-4.04-1.27-3.52-1.85-5.23-2.26-6.61-1.59-13.15-3.42-8.49-2.38-12.84-3.39-9.67-2.23-13.04-2.56-6.09-0.58-12.07-1.84-5.09-1.07-6.9-1.35c-5.47-0.84-9.35-0.4-14.03-0.96-1.51-0.18-2.81 0.5-4.01 0.61q-4.66 0.42-9.35 0.57-0.49 0.02-0.9 0.3-0.25 0.17-0.49 0.31-0.23 0.13-0.52 0.14-3.42 0.2-6.65 1.33-0.25 0.08-0.51 0.03-0.2-0.04-0.35-0.17a0.58 0.58 0 0 0-0.84 0.11l-1.51 2.13q-1.76 2.47-1.43-0.55 0.23-2.05 1.29-4.86-0.04 0.51 0.1 0.78 0.18 0.35 0.5 0.11 1.51-1.13 1.95-2.85 0.14-0.53 0.67-0.68c2.95-0.84 5.71-1.7 8.8-1.85 2.2-0.1 5.57 0.18 7.55-0.61 2.6-1.04 7.5-1.05 10.29-0.95q6.53 0.23 13.07 0.56 1.19 0.06 4.14 0.53c1.91 0.3 3.83 0.22 5.59 0.51q3.93 0.66 7.87 1.22 0.22 0.03 0.31 0.26 0.12 0.32 0.47 0.37l10.19 1.52q0.46 0.07 0.87 0.29 1.37 0.72 2.92 0.62a1.59 1.59 0 0 1 0.88 0.2q2.72 1.51 5.85 1.84 0.28 0.03 0.35 0.26 0.08 0.26 0.35 0.29 2.44 0.34 3.93 0.88 8.93 3.19 17.97 6.02 0.35 0.11 0.52 0.44 0.07 0.13 0.16 0.25 0.07 0.09 0.2 0.13 6.59 2.26 12.82 5.34 0.42 0.21 3.49 1.47 1.74 0.71 3.32 1.85z" fill="#2a292a"/>
 <path d="m223.15 145.02q21.94 6.76 34.06 25.62 2.11 3.28 3.55 4.84l-8.01 0.16q-0.55 0.01-0.55 0.56l0.16 17.5-4.67 0.21q-0.14-0.23-0.78-0.31-0.95-0.81-0.41-2.01a1.5 1.48 49.5 0 0 0.07-0.99q-2.58-9.32-10.43-17.41c-2.98-3.06-4.72-4.34-8.39-6.87-2.56-1.77-5.34-2.37-7.68-3.73q-0.43-0.25-0.93-0.32c-1.47-0.2-2.69-1.09-3.89-1.32-14.96-2.89-30.44 1.3-40.49 12.78q-6.37 7.29-9.07 17.15-0.4 1.44-0.75 2.79-0.25 0.24-0.27 0.12l-3.34 0.05q-0.64 0.04-1.02-0.44-0.26-0.33-0.26-0.98 0.06-8.13 0.03-16.25a0.79 0.79 0 0 0-0.96-0.76q-2.58 0.56-6.23 0.07 13.97-26.14 42.51-31.79 13.59-2.69 27.75 1.33z" fill="#020202"/>
 <path d="m224.85 143.71q25.12 7.64 36.93 30.72 0.16 0.32 0.15 1.09l-1.17-0.04q-1.44-1.56-3.55-4.84-12.12-18.86-34.06-25.62 2.64 0.13 1.7-1.31z" fill="#747472"/>
 <path d="m246.91 193.6q-0.45 0.47-1.04-0.44-0.24-0.36-0.12-0.78 0.45-1.55-1.07-1.74a0.88 0.87 82.9 0 1-0.69-0.54q-3.09-7.67-4.36-9.41-6.69-9.16-16.61-14.36c-3.66-1.93-7.98-2.72-12.13-3.77q-2.41-0.61-10.12 0.33-0.31 0.03-0.47 0.3-0.14 0.21-0.44 0.17-0.41-0.05-0.49-0.05-8.94 0.54-16.39 5.45c-6.75 4.44-10 10.33-13.31 17.45-0.89 1.91-3.33 4.74-3.62 7.04q-0.07 0.54-0.61 0.53-0.24-0.01-0.5-0.11 0.35-1.35 0.75-2.79 2.7-9.86 9.07-17.15c10.05-11.48 25.53-15.67 40.49-12.78 1.2 0.23 2.42 1.12 3.89 1.32q0.5 0.07 0.93 0.32c2.34 1.36 5.12 1.96 7.68 3.73 3.67 2.53 5.41 3.81 8.39 6.87q7.85 8.09 10.43 17.41a1.5 1.48 49.5 0 1-0.07 0.99q-0.54 1.2 0.41 2.01z" fill="#515150"/>
 <path d="m246.91 193.6q0.64 0.08 0.78 0.31l-24.66-0.6 0.2-7.66q0-0.14 0.05-0.25a0.42 0.42 0 0 1 0.7-0.1l4.03 4.77q0.1 0.12 0.24 0.04l0.21-0.14q0.55-0.33 0.26-0.9-1.88-3.82-5.38-6.45-0.53-2.85-0.1-5.67a1.13 1.14 4.9 0 0-1.1-1.31l-19.96-0.28q-0.32-0.14-0.4-0.37-0.18-0.54 0.38-0.62 5.18-0.77 10.37-0.21 0.09 0.01 0.1-0.08l0.04-0.26q0.05-0.35-0.29-0.41c-6.46-1.2-9.81-0.27-14.97 1.71l-7.34 0.5a0.71 0.72 4.5 0 0-0.64 0.55q-0.52 2.39-0.22 4.81c0.22 1.84-0.61 2.95-0.21 5.01q0.67 3.36 0.27 6.95-12.39 1.72-24.6 0.85 0.02 0.12 0.27-0.12 0.26 0.1 0.5 0.11 0.54 0.01 0.61-0.53c0.29-2.3 2.73-5.13 3.62-7.04 3.31-7.12 6.56-13.01 13.31-17.45q7.45-4.91 16.39-5.45 0.08 0 0.49 0.05 0.3 0.04 0.44-0.17 0.16-0.27 0.47-0.3 7.71-0.94 10.12-0.33c4.15 1.05 8.47 1.84 12.13 3.77q9.92 5.2 16.61 14.36 1.27 1.74 4.36 9.41a0.88 0.87 82.9 0 0 0.69 0.54q1.52 0.19 1.07 1.74-0.12 0.42 0.12 0.78 0.59 0.91 1.04 0.44zm-20.85-20.87c2.24 1.35 4.23 3.37 6.18 5.19q0.4 0.38 0.81 0.01l0.21-0.19q0.21-0.18 0.03-0.39c-12.32-13.98-34.74-15.49-49.08-3.85q-0.19 0.15-0.05 0.36l0.15 0.21q0.08 0.11 0.18 0.04 5.73-3.91 9.89-5.15 17.02-5.06 31.68 3.77z" fill="#b4b4b2"/>
 <path d="m226.06 172.73q-14.66-8.83-31.68-3.77-4.16 1.24-9.89 5.15-0.1 0.07-0.18-0.04l-0.15-0.21q-0.14-0.21 0.05-0.36c14.34-11.64 36.76-10.13 49.08 3.85q0.18 0.21-0.03 0.39l-0.21 0.19q-0.41 0.37-0.81-0.01c-1.95-1.82-3.94-3.84-6.18-5.19z" fill="#747472"/>
 <path d="m202.18 175.36-4.77-0.24c5.16-1.98 8.51-2.91 14.97-1.71q0.34 0.06 0.29 0.41l-0.04 0.26q-0.01 0.09-0.1 0.08-5.19-0.56-10.37 0.21-0.56 0.08-0.38 0.62 0.08 0.23 0.4 0.37z" fill="#989896"/>
 <path d="m6.36 174.89q0.38 0.59 0.78 0.59 12.62-0.05 25.96 0.15a1.28 1.28 0 0 1 1.27 1.28q0.03 7.65 0.01 15.25c0 0.79 0.41 1.3 0.97 1.76q-0.61-0.01-1.22 0.55l-0.31 0.49q-0.28 0.45-0.8 0.43-11.61-0.27-23.22-0.36c-1.1-0.01-2.5 0.5-3.66 0.27q-2.25-0.46-3.74-0.37-0.02 0-0.05 0-0.11-0.04-0.18 0.15a0.31 0.31 0 0 1-0.47 0.14l-0.7-0.5 0.55-18.09q0.01-0.54 0.5-0.78 1.13-0.55 2.67-0.62 0.85 0.25 1.64-0.34z" fill="#6b2e85"/>
 <path d="m407.72 174.95q1.02 0.49 1.67 0.18 1.93 0.11 2.03 1.31 0.61 7.39 0.49 20.02l-0.57 0.88q-0.31 0.48-0.84 0.27-0.25-0.1-0.41-0.3-0.22-0.27-0.57-0.27l-26.82-0.5q-0.54-0.01-0.98-0.32-1.26-0.89-2.28 0.34a0.41 0.42 50.4 0 1-0.68-0.06q-0.46-0.83-0.64-2.05-0.14-0.3-0.46-0.62l0.44-17.5q0.02-0.85 0.87-0.84 14.42 0.11 28.42 0.04 0.28 0 0.33-0.58z" fill="#e32a1c"/>
 <path d="m197.41 175.12 4.77 0.24 19.96 0.28a1.13 1.14 4.9 0 1 1.1 1.31q-0.43 2.82 0.1 5.67 0.67 1.02 0.2 1.42-0.36 0.3-0.34 0.76l0.03 0.85-0.2 7.66-0.2 42.33q-0.32 0.98-1.04 0.99-0.39 0.01-0.61-0.32-0.19-0.29-0.55-0.29-2.33-0.01-4.64 0.22c-1.24 0.13-2.93 0.89-4.36 0.73q-6.68-0.74-12.36-0.61c-3.15 0.08-5.48-0.35-8.38-1.05q-0.17-0.04-0.24 0.12-0.07 0.15-0.16 0.3-0.11 0.2-0.26 0.04l-0.64-0.64-0.32-42.19q0.4-3.59-0.27-6.95c-0.4-2.06 0.43-3.17 0.21-5.01q-0.3-2.42 0.22-4.81a0.71 0.72 4.5 0 1 0.64-0.55z" fill="#3ba95d"/>
 <path d="m97.65 193.97q-0.52 0.55-0.52 1.72 0.01 6-0.15 11.98-0.61-0.12-0.4 1a1.07 1.06 88.6 0 1-1.19 1.26c-1.91-0.27-3.73-0.77-5.69-0.73q-9.6 0.22-19.2 0.11c-1.55-0.02-3.5-0.71-5.49-0.07q-0.48 0.16-0.6-0.34l-0.7-3.03q0-5.05-0.09-10.18-0.02-1.08-0.44-1.81l0.24-16.93q0.02-1.48 1.51-1.48l30.93 0.01a1.4 1.4 0 0 1 1.4 1.37z" fill="#36559f"/>
 <path d="m150.6 175.7 2.29-0.22q3.65 0.49 6.23-0.07a0.79 0.79 0 0 1 0.96 0.76q0.03 8.12-0.03 16.25 0 0.65 0.26 0.98 0.38 0.48 1.02 0.44-1.32 0.03-1.33 1.86-0.09 13.59-0.19 28.04-2.69 1.07-6.69 1.11c-0.88 0.01-1.94 0.36-2.9 0.32-2.22-0.09-3.65-0.01-5.62 0.21q-0.28 0.03-0.35-0.24-0.07-0.25-0.36-0.26-6.5-0.21-13 0.25-1.99 0.14-4.23-1.57l-0.13-29.66-0.21-17.51a0.83 0.83 0 0 1 0.84-0.84z" fill="#1d97d1"/>
 <path d="m260.76 175.48 1.17 0.04 23.43-0.03q0.52 0 0.52 0.52 0.09 8.7-0.09 17.16-0.02 0.65 0.81 0.71-0.74 0.21-0.74 0.81-0.05 24.04-0.43 48.3-0.84 0.04-2.12 0.3-1.41 0.28-0.83 2.37-0.97-0.6-1.44-1.54-0.2-0.41-0.59-0.18c-1.05 0.62-2.16 0.31-3.04 0.38q-2.48 0.21-4.94 0.04a1.1 1.09 68.6 0 1-0.66-0.29q-0.23-0.21-0.43-0.19-3.63 0.32-7.28-0.19-0.54-0.07-0.95-0.41-0.65-0.54-1.47-0.37-0.53 0.12-1.01-0.14-1.48-0.79-0.83 0.11l-6.63 0.24q-0.65-2.84-0.67-7.93-0.11-20.81-0.18-41.49l-0.16-17.5q0-0.55 0.55-0.56z" fill="#fbe92a"/>
 <path d="m349.36 193.88q-0.62 0.05-0.64 0.59-0.22 8.76-0.09 29.86-0.21 0.32-1.71-0.34-0.83-0.37-1.64-0.38c-6.48-0.12-12.97-0.75-19.34-0.91q-4.45-0.11-8.89-0.35-0.51-0.02-0.71-0.5l-0.83-1.97q-0.13-12.69-0.45-25.44-0.01-0.55-0.46-0.6 0.17-0.09 0.34-0.26 0.2-0.2 0.2-0.48l0.01-17.09a0.42 0.43 0 0 1 0.42-0.43l32.88-0.04q0.41 0 0.41 0.41 0.05 8.45-0.12 17.11-0.01 0.56 0.62 0.82z" fill="#f6a535"/>
 <path d="m223.34 182.62q3.5 2.63 5.38 6.45 0.29 0.57-0.26 0.9l-0.21 0.14q-0.14 0.08-0.24-0.04l-4.03-4.77a0.42 0.42 0 0 0-0.7 0.1q-0.05 0.11-0.05 0.25l-0.03-0.85q-0.02-0.46 0.34-0.76 0.47-0.4-0.2-1.42z" fill="#989896"/>
 <path d="m314.6 193.84q0.45 0.05 0.46 0.6 0.32 12.75 0.45 25.44-0.18 11.12 0 22.18 0.01 0.68-0.32 0.88-0.38 0.24-1.08 0.15-1.65-0.46-2.19 0.65-4.4 9.21-9.02 18.48a0.62 0.62 0 0 1-1.11-0.01l-8.71-18.49a1.53 1.53 0 0 0-1.71-0.84q-2.66 0.56-5.94 0.11 0.38-24.26 0.43-48.3 0-0.6 0.74-0.81z" fill="#f8f8f8"/>
 <path d="m34.13 194.47-0.01 37.51q-3.99 0.17-7.99-0.03-5.67-0.29-7.98-0.27c-4.29 0.05-8.46 0.26-12.75 0q-1.65-0.1-3.31 0.42-0.44 0.14-0.52-0.32-0.13-0.72-0.54-0.64l-0.03-36.42 0.7 0.5a0.31 0.31 0 0 0 0.47-0.14q0.07-0.19 0.18-0.15 0.03 0 0.05 0 1.49-0.09 3.74 0.37c1.16 0.23 2.56-0.28 3.66-0.27q11.61 0.09 23.22 0.36 0.52 0.02 0.8-0.43z" fill="#88589c"/>
 <path d="m378.12 194.45q0.18 1.22 0.64 2.05a0.41 0.42 50.4 0 0 0.68 0.06q1.02-1.23 2.28-0.34 0.44 0.31 0.98 0.32l26.82 0.5q0.35 0 0.57 0.27 0.16 0.2 0.41 0.3 0.53 0.21 0.84-0.27l0.57-0.88-0.56 46.01-32.25-0.78q-0.49-0.01-0.55-0.5-0.08-0.61-0.36-0.8z" fill="#eb6d49"/>
 <path d="m63.71 205.87 0.7 3.03q0.12 0.5 0.6 0.34c1.99-0.64 3.94 0.05 5.49 0.07q9.6 0.11 19.2-0.11c1.96-0.04 3.78 0.46 5.69 0.73a1.07 1.06 88.6 0 0 1.19-1.26q-0.21-1.12 0.4-1l0.06 28.94q-8.2 0.24-16.4 0.21-2.56 0-5.13-0.14c-2.76-0.15-5.57 0.51-8.49 0.4-1.07-0.04-1.52 0.33-2.19 1.05q-0.54 0.57-0.54-0.21 0-1.13-0.54-1.73z" fill="#6974b1"/>
 <path d="m315.51 219.88 0.83 1.97q0.2 0.48 0.71 0.5 4.44 0.24 8.89 0.35c6.37 0.16 12.86 0.79 19.34 0.91q0.81 0.01 1.64 0.38 1.5 0.66 1.71 0.34v43.11l-25.18-1.38q-0.53-0.02-0.61 0.5-0.1 0.73-0.7 1.1l0.45-23.63q0.02-1.16-1.14-1.13l-7.34 0.19q0.7 0.09 1.08-0.15 0.33-0.2 0.32-0.88-0.18-11.06 0-22.18z" fill="#f7c070"/>
 <path d="m126.66 223.56q2.24 1.71 4.23 1.57 6.5-0.46 13-0.25 0.29 0.01 0.36 0.26 0.07 0.27 0.35 0.24c1.97-0.22 3.4-0.3 5.62-0.21 0.96 0.04 2.02-0.31 2.9-0.32q4-0.04 6.69-1.11l-0.3 39.31c-4.57-5.44-2.65-12.47-2.3-18.68a0.87 0.87 0 0 0-0.84-0.92l-9.46-0.27q-0.91-0.02-0.83 0.88 0.08 0.85-0.16 1.43-0.47-0.12-0.8-0.35-0.26-0.17-0.49 0.05l-0.22 0.22a0.23 0.23 0 0 1-0.39-0.16q0.01-0.16-0.01-0.34-0.02-0.34-0.32-0.16c-1.24 0.75-2.34 0.32-3.36 0.44q-4.39 0.54-8.78 0.19c-1.11-0.08-2.21-0.71-3.58-0.6q-0.43 0.03-0.4 0.46 0.02 0.26-0.03 0.52-0.12 0.65-0.53 0.13-0.2-0.26-0.33-0.68z" fill="#67b2de"/>
 <path d="m1.03 231.14q0.41-0.08 0.54 0.64 0.08 0.46 0.52 0.32 1.66-0.52 3.31-0.42c4.29 0.26 8.46 0.05 12.75 0q2.31-0.02 7.98 0.27 4 0.2 7.99 0.03l-0.01 23.89q-4.12 1.54-8.97 1.17-6.93-0.51-7.05-0.51c-4.84-0.01-9.85 0.4-14.65-0.15q-0.51-0.06-0.89 0.28l-0.42 0.39q-0.38 0.35-0.54-0.14l-0.49-1.5z" fill="#a27db2"/>
 <path d="m189.59 235.13 0.64 0.64q0.15 0.16 0.26-0.04 0.09-0.15 0.16-0.3 0.07-0.16 0.24-0.12c2.9 0.7 5.23 1.13 8.38 1.05q5.68-0.13 12.36 0.61c1.43 0.16 3.12-0.6 4.36-0.73q2.31-0.23 4.64-0.22 0.36 0 0.55 0.29 0.22 0.33 0.61 0.32 0.72-0.01 1.04-0.99l-0.17 27.81q-3.71-0.3-7.33-0.28c-6.02 0.03-11.87-1.03-18.04-0.46-2.02 0.19-3.97-0.19-5.64-0.18q-0.75 0-1.06 0.62-0.19 0.38-0.49 0.08-0.23-0.23-0.39-0.76z" fill="#90c692"/>
 <path d="m63.75 236.19q0.54 0.6 0.54 1.73 0 0.78 0.54 0.21c0.67-0.72 1.12-1.09 2.19-1.05 2.92 0.11 5.73-0.55 8.49-0.4q2.57 0.14 5.13 0.14 8.2 0.03 16.4-0.21v8.24q-7.01 4.67-8.67 13.12-0.32 0.4-0.82 0.17-0.39-0.19-0.82-0.1c-1.17 0.25-2.28-0.23-3.4-0.02q-1.15 0.21-2.28 0.47c-1.55 0.35-3.32-0.23-4.87-0.13q-1.2 0.07-2.39-0.09-1.17-0.16-2.33 0.01-2.32 0.36-4.66-0.12-0.32-0.07-0.55 0.16l-0.25 0.26q-0.21 0.21-0.44 0.01-0.54-0.47-1.17-0.13-0.12 0.06-0.12 0.12 0 0.14-0.08 0.27-0.06 0.11-0.15 0.02-0.21-0.2-0.39-0.23z" fill="#8b93c5"/>
 <path d="m378.19 240.39q0.28 0.19 0.36 0.8 0.06 0.49 0.55 0.5l32.25 0.78 0.24 19.77-33.43-0.43z" fill="#f19775"/>
 <path d="m96.69 277.97q-10.05-6.89-8.32-20 1.66-8.45 8.67-13.12c7.92-4 18.08-3.35 23.84 3.89a1.57 1.58 45.3 0 1-0.02 1.98l-3.91 4.73q-1.04 1.26-2.15 0.07c-6.84-7.31-17.26-2.29-16 7.52 1 7.85 7.55 9.06 14.03 7a1.19 1.2 78 0 0 0.82-1.26l-0.79-7.56a0.79 0.79 0 0 1 0.79-0.87l9.51 0.03a0.85 0.84 89.3 0 1 0.84 0.83l0.27 17.71a0.92 0.92 0 0 1-1.17 0.9c-2.65-0.75-4.46-1.52-7.27-0.67-6.79 2.05-12.57 2.28-19.14-1.18z" fill="#020202"/>
 <path d="m282.48 245.66 0.26 22.02-0.17-1.16q-0.1-0.61-0.59-0.23-0.9 0.7-1.28 1.68a2.98 2.43 36 0 1-4.56 0.25q-0.28-0.3-1.17 0.02-0.47 0.17-0.93-0.04c-0.86-0.39-1.73 0.11-2.33 0.12q-5.21 0.08-10.32-0.92-0.47-0.09-0.91-0.28l-1.71-0.72 0.07-9q0-0.72-0.72-0.73l-4.75-0.05-0.37-4.75 7.21 0.35a0.73 0.72 87.7 0 0 0.75-0.82l-1.12-8.52q-0.65-0.9 0.83-0.11 0.48 0.26 1.01 0.14 0.82-0.17 1.47 0.37 0.41 0.34 0.95 0.41 3.65 0.51 7.28 0.19 0.2-0.02 0.43 0.19a1.1 1.09 68.6 0 0 0.66 0.29q2.46 0.17 4.94-0.04c0.88-0.07 1.99 0.24 3.04-0.38q0.39-0.23 0.59 0.18 0.47 0.94 1.44 1.54z" fill="#fef4a1"/>
 <path d="m259.84 242.88 1.12 8.52a0.73 0.72 87.7 0 1-0.75 0.82l-7.21-0.35-6.86-0.32q-2.08-0.1-2.03 1.98l0.02 1.4q0.05 2.05 2.09 1.97l7.15-0.28 4.75 0.05q0.72 0.01 0.72 0.73l-0.07 9-6.13-0.3-7.74-0.07a0.9 0.91 88.2 0 0-0.91 0.96l0.68 11.89q0.09 1.56-1.47 1.51l-8.66-0.26a1.35 1.34 2.7 0 1-1.31-1.43q1.07-17.16-0.35-34.29a1 1 0 0 1 0.99-1.08l19.34-0.21z" fill="#020202"/>
 <path d="m285.43 242.99q3.28 0.45 5.94-0.11a1.53 1.53 0 0 1 1.71 0.84l8.71 18.49a0.62 0.62 0 0 0 1.11 0.01q4.62-9.27 9.02-18.48 0.54-1.11 2.19-0.65l7.34-0.19q1.16-0.03 1.14 1.13l-0.45 23.63 0.5 10.65q0.08 1.86-1.77 1.86h-5.15l-3.67-0.22a0.77 0.76 2.7 0 1-0.72-0.78l0.42-15.65a0.4 0.4 0 0 0-0.77-0.17l-6.73 15.96a2.1 2.09 15.2 0 1-2.22 1.26q-1.48-0.21-2.27-2.05-3.01-7.05-6.03-14.09-0.11-0.26-0.29-0.41-0.22-0.2-0.53-0.32a0.24 0.25 10.5 0 0-0.34 0.24l0.46 14.96a1.08 1.08 0 0 1-1.05 1.11l-7.52 0.19q-2.28 0.27-2.21-1.26 0.27-5.65 0.49-11.26l-0.26-22.02q-0.58-2.09 0.83-2.37 1.28-0.26 2.12-0.3z" fill="#020202"/>
 <path d="m159.51 263.05 2.08 4.49a0.48 0.48 0 0 0 0.86 0.02c2.09-3.93 5.36-8.86 5.24-13.37q-0.13-5 0-10.02a0.71 0.71 0 0 1 0.7-0.69l9.74-0.12a0.5 0.49 89.4 0 1 0.5 0.5c0 5.1 0.78 11.32-1.53 16.08q-4.74 9.8-10.01 19.18a1.86 1.86 0 0 1-1.63 0.96l-5.64 0.04q-2.19 0.51-2.82-0.56-3.25-5.49-10.35-20.39c-1.57-3.3-0.75-9.94-0.73-13.68q0.24-0.58 0.16-1.43-0.08-0.9 0.83-0.88l9.46 0.27a0.87 0.87 0 0 1 0.84 0.92c-0.35 6.21-2.27 13.24 2.3 18.68z" fill="#020202"/>
 <path d="m145.92 245.49c-0.02 3.74-0.84 10.38 0.73 13.68q7.1 14.9 10.35 20.39 0.63 1.07 2.82 0.56-0.68 1.6-0.27 3.52-0.36 0.94-0.29 2.03 0.02 0.28-0.25 0.18-0.16-0.06-0.31-0.16-0.4-0.27-0.89-0.29-4.34-0.18-8.68-0.22-6.46-0.06-12.91-0.44c-1.77-0.11-4.19 0.45-6.38-0.31q-0.47-0.16-0.96-0.07-1.4 0.26-2.25-0.87l0.05-38.28q0.13 0.42 0.33 0.68 0.41 0.52 0.53-0.13 0.05-0.26 0.03-0.52-0.03-0.43 0.4-0.46c1.37-0.11 2.47 0.52 3.58 0.6q4.39 0.35 8.78-0.19c1.02-0.12 2.12 0.31 3.36-0.44q0.3-0.18 0.32 0.16 0.02 0.18 0.01 0.34a0.23 0.23 0 0 0 0.39 0.16l0.22-0.22q0.23-0.22 0.49-0.05 0.33 0.23 0.8 0.35z" fill="#abd1ec"/>
 <path d="m253 251.87 0.37 4.75-7.15 0.28q-2.04 0.08-2.09-1.97l-0.02-1.4q-0.05-2.08 2.03-1.98z" fill="#f8f8f8"/>
 <path d="m1.1 255.41 0.49 1.5q0.16 0.49 0.54 0.14l0.42-0.39q0.38-0.34 0.89-0.28c4.8 0.55 9.81 0.14 14.65 0.15q0.12 0 7.05 0.51 4.85 0.37 8.97-1.17v21.1q-1.36 1.93-3.73 1.85-12.05-0.39-24.12-0.5a1.59 1.66 63.5 0 1-0.87-0.27q-0.3-0.2-0.45-0.21a3.9 2.27 1.9 0 1-3.6-2.26l-0.15-2.6z" fill="#baa1c9"/>
 <path d="m88.37 257.97q-1.73 13.11 8.32 20l-0.11 31.4q-3.3 0.39-6.72-0.16c-2.64-0.43-5.11-0.44-8-0.7q-3.72-0.33-9.98 0.78c-2.56 0.46-4.72 0.01-7.23-0.26q-0.57-0.06-0.65-0.63l-0.25-1.68-0.1-48.08q0.18 0.03 0.39 0.23 0.09 0.09 0.15-0.02 0.08-0.13 0.08-0.27 0-0.06 0.12-0.12 0.63-0.34 1.17 0.13 0.23 0.2 0.44-0.01l0.25-0.26q0.23-0.23 0.55-0.16 2.34 0.48 4.66 0.12 1.16-0.17 2.33-0.01 1.19 0.16 2.39 0.09c1.55-0.1 3.32 0.48 4.87 0.13q1.13-0.26 2.28-0.47c1.12-0.21 2.23 0.27 3.4 0.02q0.43-0.09 0.82 0.1 0.5 0.23 0.82-0.17z" fill="#b6b9db"/>
 <path d="m378.16 261.81 33.43 0.43 0.03 20.89-0.41 1.27q-0.1 0.31-0.37 0.14l-0.22-0.15q-0.43-0.27-0.93-0.19c-5.01 0.85-9.95-0.26-15.05 0.38-1.69 0.22-3.52-0.57-5.33-0.47q-3.1 0.17-6.19-0.15-0.94-0.1-2.45 0.14-1.68 0.26-2.5-0.47z" fill="#f5b294"/>
 <path d="m189.71 262.47q0.16 0.53 0.39 0.76 0.3 0.3 0.49-0.08 0.31-0.62 1.06-0.62c1.67-0.01 3.62 0.37 5.64 0.18 6.17-0.57 12.02 0.49 18.04 0.46q3.62-0.02 7.33 0.28l0.09 24.64q-0.44 1.01-0.9 1.35-0.41 0.3-0.65-0.14-0.6-1.09-2.55-1.06c-7.4 0.09-15.07-0.35-22.41 0.34-2.09 0.2-3.32-1.06-5.72-0.21q-0.52 0.18-0.69-0.34l-0.19-0.57z" fill="#b6d9b6"/>
 <path d="m282.74 267.68q-0.22 5.61-0.49 11.26-0.07 1.53 2.21 1.26 1.42 8.92 0.67 18.6-2.37 0.21-8.74 0.46c-5.97 0.23-11.23-0.19-17.32-0.4q-3.19-0.1-6.12-1.01l-0.31-31.75 6.13 0.3 1.71 0.72q0.44 0.19 0.91 0.28 5.11 1 10.32 0.92c0.6-0.01 1.47-0.51 2.33-0.12q0.46 0.21 0.93 0.04 0.89-0.32 1.17-0.02a2.98 2.43 36 0 0 4.56-0.25q0.38-0.98 1.28-1.68 0.49-0.38 0.59 0.23z" fill="#fff8c6"/>
 <path d="m348.63 267.44-0.37 52.95q-2.8-0.87-5.8-0.42-0.47 0.07-0.92-0.09-1.07-0.38-1.9-0.36-10.85 0.29-17.75-0.17-4.68-0.31-5.94-3.09l-0.23-36.09h5.15q1.85 0 1.77-1.86l-0.5-10.65q0.6-0.37 0.7-1.1 0.08-0.52 0.61-0.5z" fill="#fddfb4"/>
 <path d="m1.19 272.98 0.15 2.6a3.9 2.27 1.9 0 0 3.6 2.26q0.15 0.01 0.45 0.21a1.59 1.66 63.5 0 0 0.87 0.27q12.07 0.11 24.12 0.5 2.37 0.08 3.73-1.85l0.01 22.38q-10.29 1.24-21.23 0.34c-1.62-0.14-3.29 0.16-4.98 0.17-2.06 0.01-3.73-1.1-6.06-1.08q-0.54 0-0.55-0.54l-0.03-3.09z" fill="#ccbcd8"/>
 <path d="m411.62 283.13-0.28 37.82q-4.18-0.05-6.7-0.35-0.66-0.08-1.14 0.07-0.41 0.13-0.84 0.11l-20.93-0.95q-0.3-0.01-0.53 0.18-0.23 0.2-0.66 0.1-0.05-0.02-0.32-0.05-0.23-0.02-0.3-0.27-0.1-0.34-0.45-0.4-1.01-0.16-1.24-1.42l-0.06-34.34q0.82 0.73 2.5 0.47 1.51-0.24 2.45-0.14 3.09 0.32 6.19 0.15c1.81-0.1 3.64 0.69 5.33 0.47 5.1-0.64 10.04 0.47 15.05-0.38q0.5-0.08 0.93 0.19l0.22 0.15q0.27 0.17 0.37-0.14z" fill="#f9d4c0"/>
 <path d="m126.63 283.49q0.85 1.13 2.25 0.87 0.49-0.09 0.96 0.07c2.19 0.76 4.61 0.2 6.38 0.31q6.45 0.38 12.91 0.44 4.34 0.04 8.68 0.22 0.49 0.02 0.89 0.29 0.15 0.1 0.31 0.16 0.27 0.1 0.25-0.18-0.07-1.09 0.29-2.03l-0.24 35.31q0 0.53-0.43 0.84-0.87 0.66-1.58-0.2-0.32-0.39-0.83-0.37c-3.96 0.12-7.93-0.22-11.75 0.02q-6.57 0.4-13.16 0.56c-0.88 0.03-1.75-0.47-2.7-0.5q-0.33-0.01-0.35 0.32 0 0.17 0 0.32 0 0.18-0.16 0.27-0.5 0.28-0.87-0.02-0.21-0.17-0.26-0.57-0.45-3.45-0.49-6.93-0.13-14.61-0.1-29.2z" fill="#cbe2f2"/>
 <path d="m189.64 287.46 0.19 0.57q0.17 0.52 0.69 0.34c2.4-0.85 3.63 0.41 5.72 0.21 7.34-0.69 15.01-0.25 22.41-0.34q1.95-0.03 2.55 1.06 0.24 0.44 0.65 0.14 0.46-0.34 0.9-1.35l-0.05 30.52q-7.73-1.72-16.09-1.78-4.66-0.04-8.43-0.27-4.25-0.27-8.44-0.19z" fill="#d0e6ce"/>
 <path d="m1.27 295.15 0.03 3.09q0.01 0.54 0.55 0.54c2.33-0.02 4 1.09 6.06 1.08 1.69-0.01 3.36-0.31 4.98-0.17q10.94 0.9 21.23-0.34l-0.06 32.1-15.31-0.41q-0.47-0.01-0.88 0.2-0.46 0.22-0.99 0.14-4.8-0.72-9.59 0.09-0.49 0.08-0.92-0.16-1.27-0.69-2.73-0.62-1.41 0.07-1.45 1.49 0 0.05 0.05 0.05 0.25 0.02-0.16 0.08a0.09 0.09 0 0 1-0.1-0.1q0.19-0.97-0.25-1.32z" fill="#ded3e5"/>
 <path d="m252.95 297.85q2.93 0.91 6.12 1.01c6.09 0.21 11.35 0.63 17.32 0.4q6.37-0.25 8.74-0.46l-0.38 31.83q-1.21 0.39-2.92 0.26-1.43-0.11-2.85 0.16c-2.35 0.45-4.51-0.07-6.77 0.25q-3.18 0.44-6.38 0.12c-2.16-0.22-3.71 0.4-5.62 1.1q-0.38 0.14-0.77 0.07-1.37-0.22-2.41 0.38a0.71 0.7 59.1 0 1-0.95-0.24q-0.3-0.47-1.14-0.75-0.35-0.12-0.43-0.48-0.03-0.17-0.01-0.31 0.1-0.57-0.48-0.61-0.46-0.02-0.52-0.43z" fill="#fffce4"/>
 <path d="m63.75 306.72 0.25 1.68q0.08 0.57 0.65 0.63c2.51 0.27 4.67 0.72 7.23 0.26q6.26-1.11 9.98-0.78c2.89 0.26 5.36 0.27 8 0.7q3.42 0.55 6.72 0.16l-0.76 35.28a1.32 1.3 10.7 0 1-1.77 1.19q-0.43-0.16-1.1 0.31a0.5 0.47 26.5 0 1-0.27 0.08l-10.99-0.03q-0.25 0-0.48-0.06-0.33-0.07-0.82-0.04-7.2 0.45-14.1 2.3a1.66 1.67 82.2 0 1-2.1-1.59z" fill="#eee9f1"/>
 <path d="m222.7 318.61c0.14 13.82 0.28 27.72-1.66 41.16a1.15 1.15 0 0 1-2.07 0.52c-1.66-2.27-5.39-2.08-7.93-2.41-6.39-0.82-11.26 3.14-17.94 0.98-1.2-0.39-1.99-1.53-2.09-2.67q-1.5-17.36-1.27-39.82 4.19-0.08 8.44 0.19 3.77 0.23 8.43 0.27 8.36 0.06 16.09 1.78z" fill="#eaf4e6"/>
 <path d="m315.95 316.26q1.26 2.78 5.94 3.09 6.9 0.46 17.75 0.17 0.83-0.02 1.9 0.36 0.45 0.16 0.92 0.09 3-0.45 5.8 0.42 0.4 18.57-0.84 37.5a1.83 1.84 5.9 0 1-2.09 1.7c-2.19-0.31-3.86-0.82-6.26-0.38-3 0.55-5.67-0.02-8.63 0.5-3.05 0.54-5.74 0.19-9.36 0.88-4.05 0.78-4.3-7.05-4.39-10.15q-0.53-17.23-0.74-34.18z" fill="#fff9ed"/>
 <path d="m378.23 317.97q0.23 1.26 1.24 1.42 0.35 0.06 0.45 0.4 0.07 0.25 0.3 0.27 0.27 0.03 0.32 0.05 0.43 0.1 0.66-0.1 0.23-0.19 0.53-0.18l20.93 0.95q0.43 0.02 0.84-0.11 0.48-0.15 1.14-0.07 2.52 0.3 6.7 0.35l-0.62 33.02q-0.02 0.84-0.86 0.84l-28.78-0.05a2.05 2.04 89.3 0 1-2.04-2z" fill="#fce7da"/>
 <path d="m253.5 330.15q0.06 0.41 0.52 0.43 0.58 0.04 0.48 0.61-0.02 0.14 0.01 0.31 0.08 0.36 0.43 0.48 0.84 0.28 1.14 0.75a0.71 0.7 59.1 0 0 0.95 0.24q1.04-0.6 2.41-0.38 0.39 0.07 0.77-0.07c1.91-0.7 3.46-1.32 5.62-1.1q3.2 0.32 6.38-0.12c2.26-0.32 4.42 0.2 6.77-0.25q1.42-0.27 2.85-0.16 1.71 0.13 2.92-0.26c-0.01 4.02-0.17 9.79-1.81 13.73q-0.2 0.48-0.7 0.61c-1.77 0.49-3.14 1.48-4.85 1.82-2.38 0.47-4.6 0.8-6.91 1.69q-2.15 0.83-4.34 1.56c-3.37 1.13-6.82 1.17-10.35 1.52a1.07 1.07 0 0 1-1.17-1.01z" fill="#fff9ed"/>
 <path d="m34.06 331.45-0.06 19.09a1.24 1.24 0 0 1-1.46 1.22q-1.67-0.31-3.64-0.11-5.34 0.55-10.71 0.41-0.15 0-0.21-0.18-0.02-0.04-0.04-0.08-0.05-0.08-0.16-0.1-3.98-0.44-7.98-0.22c-2.4 0.14-4.32-0.66-6.5-1.04q-1.21-0.21-1.23-1.43l-0.34-18.12q0.44 0.35 0.25 1.32a0.09 0.09 0 0 0 0.1 0.1q0.41-0.06 0.16-0.08-0.05 0-0.05-0.05 0.04-1.42 1.45-1.49 1.46-0.07 2.73 0.62 0.43 0.24 0.92 0.16 4.79-0.81 9.59-0.09 0.53 0.08 0.99-0.14 0.41-0.21 0.88-0.2z" fill="#eee9f1"/>
</svg>
