<svg Googl="true" version="1.1" viewBox="0 0 800 227.79" xml:space="preserve" xmlns="http://www.w3.org/2000/svg">
<style type="text/css">
	.st0{fill:#1C282E;}
	.st1{fill:#FF9D00;}
</style>
<g transform="scale(1.4545)">
	<g fill="#1c282e">
		<path class="st0" d="m0 91.4h15.5v24.7h23.8v-24.7h15.5v63.7h-15.5v-25.3h-23.8v25.3h-15.5z"/>
		<path class="st0" d="m105.7 143.5h-23l-3.9 11.6h-18.1l24.8-63.7h17.7l24.5 63.7h-18.1zm-3.9-11.7-4.1-12.1c-1.2-3.8-2.5-8.6-3.4-13.7h-0.4c-0.8 5-2.2 9.9-3.4 13.7l-4 12.1z"/>
		<path class="st0" d="m133.7 91.4h15.3l18.4 23.8c3 4 5.9 8 10.1 14.1h0.2c-0.9-6.1-1-10.2-1-15.9v-22h15.3v64.3h-13l-20.4-25.6c-3.1-4-6.2-8-10.3-14.1h-0.3c0.9 6.1 1.1 10.2 1.1 15.9v23.3h-15.4z"/>
		<path class="st0" d="m204.8 91.4h20.9c23.3 0 36.4 12 36.4 31.7 0 19.9-13.8 32-36.5 32h-20.8zm20.2 49.9c14.2 0 21.2-5.7 21.2-18.4 0-12.2-6.9-17.8-21.1-17.8h-4.8v36.2z"/>
		<path class="st0" d="m282.2 129.8-22.5-38.4h18.5l6.2 13.3c2.1 4.7 3.8 8.3 5.5 12.6h0.3c1.7-4.3 3.3-7.9 5.4-12.6l6.2-13.3h18.5l-22.6 38.4v25.3h-15.5z"/></g><g fill="#ff9d00">
		<path class="st1" d="m320.2 143.7 10.6-7.5 1.6 0.5c3.2 4.9 7.1 7 12.1 7 4.7 0 7.8-2.5 7.8-5.8 0-3.5-2.1-5.6-13-10.2-12.2-5-16.6-10.6-16.6-19.9 0-10.2 9.4-18.1 22.5-18.1 9.8 0 17.5 4.1 22.4 11.3l-10.5 7.8-1.6-0.4c-2.4-3.6-5.8-5.8-10.2-5.8-4.2 0-6.6 2.2-6.6 5s1.3 4.2 12.7 9.2c12.6 5.5 16.8 11.2 16.8 19.4 0 11.6-9.9 20.4-23.8 20.4-10.1 0.2-18.6-4.1-24.2-12.9z"/>
		<path class="st1" d="m373.8 105.4v-14h55.2v14h-19.7v49.7h-15.7v-49.7h-19.8z"/>
		<path class="st1" d="m468.5 143.5h-23l-3.9 11.6h-18.1l24.8-63.7h17.7l24.5 63.7h-18.1zm-3.9-11.7-4.1-12.1c-1.2-3.8-2.5-8.6-3.4-13.7h-0.4c-0.8 5-2.2 9.9-3.4 13.7l-4 12.1z"/>
		<path class="st1" d="m550 153.5-0.7 1.6h-16.3l-15.7-23.7h-5.1v23.7h-15.7v-63.7h22.9c16.1 0 24.2 6.8 24.2 20.5 0 8.2-3.9 14-11.1 17zm-37.8-33.9h6.2c6.8 0 10.2-2.4 10.2-7.7 0-5.7-3.3-7.9-10.2-7.9h-6.2z"/>
	</g>
	<g fill="#ff9d00">
		<polygon class="st1" points="275 55.2 253.4 66.6 257.5 42.5 240 25.4 264.2 21.9 275 0 285.8 21.9 310 25.4 292.5 42.5 296.6 66.6"/>
		<polygon class="st1" points="365 55.2 343.4 66.6 347.5 42.5 330 25.4 354.2 21.9 365 0 375.8 21.9 400 25.4 382.5 42.5 386.6 66.6"/>
		<polygon class="st1" points="455 55.2 433.4 66.6 437.5 42.5 420 25.4 444.2 21.9 455 0 465.8 21.9 490 25.4 472.5 42.5 476.6 66.6"/>
		<polygon class="st1" points="185 55.2 163.4 66.6 167.5 42.5 150 25.4 174.2 21.9 185 0 195.8 21.9 220 25.4 202.5 42.5 206.6 66.6"/>
		<polygon class="st1" points="95 55.2 73.4 66.6 77.5 42.5 60 25.4 84.2 21.9 95 0 105.8 21.9 130 25.4 112.5 42.5 116.6 66.6"/>
	</g>
</g>
</svg>
