<svg version="1.1" viewBox="0 0 800 227.79" xmlns="http://www.w3.org/2000/svg">
 <g transform="scale(1.4545)" fill="#fff">
  <path d="m0 91.4h15.5v24.7h23.8v-24.7h15.5v63.7h-15.5v-25.3h-23.8v25.3h-15.5z"/>
  <path d="m105.7 143.5h-23l-3.9 11.6h-18.1l24.8-63.7h17.7l24.5 63.7h-18.1zm-3.9-11.7-4.1-12.1c-1.2-3.8-2.5-8.6-3.4-13.7h-.4c-.8 5-2.2 9.9-3.4 13.7l-4 12.1z"/>
  <path d="m133.7 91.4h15.3l18.4 23.8c3 4 5.9 8 10.1 14.1h.2c-.9-6.1-1-10.2-1-15.9v-22h15.3v64.3h-13l-20.4-25.6c-3.1-4-6.2-8-10.3-14.1h-.3c.9 6.1 1.1 10.2 1.1 15.9v23.3h-15.4z"/>
  <path d="m204.8 91.4h20.9c23.3 0 36.4 12 36.4 31.7 0 19.9-13.8 32-36.5 32h-20.8zm20.2 49.9c14.2 0 21.2-5.7 21.2-18.4 0-12.2-6.9-17.8-21.1-17.8h-4.8v36.2z"/>
  <path d="m282.2 129.8-22.5-38.4h18.5l6.2 13.3c2.1 4.7 3.8 8.3 5.5 12.6h.3c1.7-4.3 3.3-7.9 5.4-12.6l6.2-13.3h18.5l-22.6 38.4v25.3h-15.5z"/>
  <path d="m320.2 143.7 10.6-7.5 1.6.5c3.2 4.9 7.1 7 12.1 7 4.7 0 7.8-2.5 7.8-5.8 0-3.5-2.1-5.6-13-10.2-12.2-5-16.6-10.6-16.6-19.9 0-10.2 9.4-18.1 22.5-18.1 9.8 0 17.5 4.1 22.4 11.3l-10.5 7.8-1.6-.4c-2.4-3.6-5.8-5.8-10.2-5.8-4.2 0-6.6 2.2-6.6 5s1.3 4.2 12.7 9.2c12.6 5.5 16.8 11.2 16.8 19.4 0 11.6-9.9 20.4-23.8 20.4-10.1.2-18.6-4.1-24.2-12.9z"/>
  <path d="m373.8 105.4v-14h55.2v14h-19.7v49.7h-15.7v-49.7z"/>
  <path d="m468.5 143.5h-23l-3.9 11.6h-18.1l24.8-63.7h17.7l24.5 63.7h-18.1zm-3.9-11.7-4.1-12.1c-1.2-3.8-2.5-8.6-3.4-13.7h-.4c-.8 5-2.2 9.9-3.4 13.7l-4 12.1z"/>
  <path d="m550 153.5-.7 1.6h-16.3l-15.7-23.7h-5.1v23.7h-15.7v-63.7h22.9c16.1 0 24.2 6.8 24.2 20.5 0 8.2-3.9 14-11.1 17zm-37.8-33.9h6.2c6.8 0 10.2-2.4 10.2-7.7 0-5.7-3.3-7.9-10.2-7.9h-6.2z"/>
  <path d="m275 55.2-21.6 11.4 4.1-24.1-17.5-17.1 24.2-3.5 10.8-21.9 10.8 21.9 24.2 3.5-17.5 17.1 4.1 24.1z"/>
  <path d="m365 55.2-21.6 11.4 4.1-24.1-17.5-17.1 24.2-3.5 10.8-21.9 10.8 21.9 24.2 3.5-17.5 17.1 4.1 24.1z"/>
  <path d="m455 55.2-21.6 11.4 4.1-24.1-17.5-17.1 24.2-3.5 10.8-21.9 10.8 21.9 24.2 3.5-17.5 17.1 4.1 24.1z"/>
  <path d="m185 55.2-21.6 11.4 4.1-24.1-17.5-17.1 24.2-3.5 10.8-21.9 10.8 21.9 24.2 3.5-17.5 17.1 4.1 24.1z"/>
  <path d="m95 55.2-21.6 11.4 4.1-24.1-17.5-17.1 24.2-3.5 10.8-21.9 10.8 21.9 24.2 3.5-17.5 17.1 4.1 24.1z"/>
 </g>
</svg>
