<?xml version="1.0" encoding="UTF-8" standalone="no"?>
<!-- Created with Inkscape (http://www.inkscape.org/) -->
<svg
   xmlns:svg="http://www.w3.org/2000/svg"
   xmlns="http://www.w3.org/2000/svg"
   version="1.0"
   width="496.93118"
   height="255.39462"
   id="svg2">
  <defs
     id="defs4" />
  <g
     transform="translate(-27.248696,-294.09565)"
     id="layer1">
    <g
       id="g3234">
      <path
         d="M 329.32666,421.90638 C 329.32666,492.36837 272.20659,549.49028 201.74569,549.49028 C 131.2826,549.49028 74.162527,492.36837 74.162527,421.90638 C 74.162527,351.44787 131.2826,294.32944 201.74569,294.32944 C 272.20659,294.32944 329.32666,351.44787 329.32666,421.90638 L 329.32666,421.90638 z"
         id="path2404"
         style="fill:#ffffff;fill-rule:nonzero" />
      <path
         d="M 193.09868,383.33981 C 188.92706,383.33981 188.37171,387.3982 188.37171,390.45655 C 188.37171,393.51527 188.92706,397.63083 193.09978,397.63083 C 197.26956,397.63083 197.82564,393.51527 197.82509,390.45655 C 197.82509,387.3982 197.26956,383.33981 193.09868,383.33981 z"
         id="_158074056"
         style="fill:#ff9900;fill-opacity:1;fill-rule:nonzero" />
      <path
         d="M 108.80465,396.46223 C 108.80519,397.79573 110.25082,399.13087 112.25253,399.13087 C 114.75536,399.13087 116.70045,397.62808 116.867,394.62597 L 116.867,391.9566 C 115.53222,392.62426 114.03236,393.01215 112.53066,393.34671 C 110.08336,393.90114 108.80465,394.51274 108.80465,396.46223 L 108.80465,396.46223 z"
         id="_155032520"
         style="fill:#ff9900;fill-opacity:1;fill-rule:nonzero" />
      <path
         d="M 145.20002,383.33981 C 141.25212,383.33981 140.36312,387.06308 140.36312,390.45655 C 140.36312,393.90151 141.25267,397.63083 145.20002,397.63083 C 149.14902,397.63083 150.03857,393.90151 150.03857,390.45655 C 150.03857,387.06308 149.14902,383.33981 145.20002,383.33981 z"
         id="_158074200"
         style="fill:#ff9900;fill-opacity:1;fill-rule:nonzero" />
      <path
         d="M 201.93734,294.09565 C 147.77449,294.09565 101.49974,327.83558 82.968032,375.44401 L 86.03738,375.44401 L 86.03738,380.05939 L 86.150612,380.05939 C 87.929155,376.61224 90.26488,374.72156 94.268848,374.72156 C 95.378628,374.72156 96.436923,374.88848 97.494119,375.16771 L 97.494119,384.89794 C 96.380307,384.50621 95.379727,384.17439 93.155586,384.17439 C 88.819252,384.17439 86.484077,386.73145 86.484077,392.90294 L 86.484077,404.30325 L 75.503535,404.30325 C 74.726487,409.9991 74.315885,415.81202 74.315885,421.72169 C 74.315885,492.21483 131.45098,549.3448 201.93734,549.3448 C 272.42261,549.3448 329.55935,492.21483 329.55935,421.72169 C 329.55935,351.23075 272.42261,294.09565 201.93734,294.09565 L 201.93734,294.09565 z M 117.53301,404.91302 L 117.53301,404.91302 C 117.25561,404.1345 117.08906,402.96462 117.14513,402.18886 C 114.69837,404.8564 111.3071,405.63565 107.74837,405.63565 C 102.18774,405.63565 97.572355,402.96462 97.572355,396.90416 C 97.572355,387.7859 108.24728,388.11936 113.86434,387.06235 C 115.36604,386.78587 116.86608,386.34027 116.86608,384.50511 C 116.86608,382.55892 115.03129,381.83757 113.25165,381.83757 C 109.85873,381.83757 109.19344,383.5606 109.13738,384.78306 L 98.90695,384.78306 C 99.239865,376.66372 106.9125,375.33133 113.75166,375.33133 C 127.54138,375.33133 127.43034,381.05777 127.43034,386.61895 L 127.43199,398.46247 C 127.43199,400.63165 127.54412,403.07731 128.76622,404.91302 L 117.53301,404.91302 L 117.53301,404.91302 z M 150.03875,404.91302 L 150.03875,404.91302 L 150.03875,401.74436 C 148.53706,403.57677 146.86882,405.63565 141.47492,405.63565 C 133.30172,405.63565 129.35382,397.57348 129.35272,390.34369 C 129.35272,383.5606 131.96657,375.33133 141.64019,375.33133 C 144.92152,375.33133 147.86665,376.77641 149.53599,379.22371 L 149.64684,365.21083 L 160.65688,365.21083 L 160.65926,404.91302 L 150.03875,404.91302 z M 175.09594,365.21083 L 175.09594,365.21083 L 175.09594,372.94119 L 164.08754,372.93954 L 164.08699,365.21083 L 175.09594,365.21083 z M 164.08864,404.91302 L 164.08864,404.91302 L 164.08754,376.05506 L 175.09594,376.05506 L 175.09814,404.91302 L 164.08864,404.91302 z M 193.09886,405.63675 L 193.09886,405.63675 C 182.25592,405.63565 177.3624,398.46467 177.36185,390.45582 C 177.36185,382.44898 182.25518,375.33188 193.09776,375.33188 C 203.9396,375.33188 208.83422,382.45063 208.83422,390.45582 C 208.83532,398.46467 203.9418,405.63675 193.09886,405.63675 z"
         id="_158074128"
         style="fill:#ff9900;fill-opacity:1;fill-rule:nonzero" />
      <path
         d="M 385.03372,402.42247 L 363.90483,402.42247 L 358.66008,420.20387 C 358.2995,421.42982 357.97153,422.58632 357.64961,423.73604 C 357.47536,423.17172 356.25235,419.22052 356.25235,419.22052 L 356.29779,419.35922 L 351.02867,402.42247 L 329.25887,402.42247 L 332.12392,409.86315 C 331.89141,409.46079 331.64626,409.05733 331.37143,408.6623 C 327.95524,403.77209 322.39754,401.08403 315.7176,401.08403 C 311.68432,401.08403 308.70603,402.0628 306.41905,403.35141 C 306.42583,402.9846 306.43572,402.42247 306.43572,402.42247 L 286.76089,402.42247 L 286.76089,422.0951 C 285.54227,416.06396 282.52331,410.64496 278.17708,406.95357 C 271.20747,401.19488 263.36004,400.92517 260.40447,400.82422 L 260.17801,400.81817 C 248.94169,400.81817 242.40668,405.99183 239.51213,409.07565 L 239.42161,409.17496 C 237.48935,411.40258 234.57372,415.61011 233.25397,421.76988 C 233.24902,415.83877 232.84556,411.94694 230.32662,408.30978 C 227.14843,403.55405 221.76828,400.91033 215.20781,400.91033 C 209.77671,400.91033 205.11186,402.77994 201.23285,406.28535 C 198.17944,402.75099 193.9076,400.91033 188.45856,400.91033 C 186.87313,400.91033 183.20886,400.94643 179.32985,403.13667 C 179.3326,402.89921 179.34139,402.42247 179.34139,402.42247 L 160.79192,402.42247 L 160.79192,400.99791 L 157.42685,400.99791 C 154.07277,400.99791 149.23752,401.05618 145.15312,403.56963 C 145.15312,403.05349 145.15312,402.42247 145.15312,402.42247 L 125.62871,402.42247 L 125.62871,453.40604 L 122.71694,448.87769 C 122.28288,448.20673 122.23799,448.13527 122.13649,447.69242 L 122.10039,447.53027 L 122.04597,447.3705 C 121.95766,447.10629 121.8611,446.43771 121.8611,445.59526 L 121.85286,445.35322 L 121.77352,441.95315 L 121.77352,420.71562 C 121.77352,418.145 121.68411,415.94083 120.58422,412.96804 C 118.82345,408.40359 113.66023,400.81817 98.681219,400.81817 C 91.730662,400.81817 86.383854,402.21378 82.337196,405.08176 C 79.579143,406.97904 77.574136,409.65281 76.242289,413.23115 C 75.361537,415.66673 74.983549,417.46304 74.879295,419.66667 L 74.877096,419.73006 C 74.694423,416.04582 74.027492,412.19557 71.614631,408.61173 C 70.352592,406.7566 65.525771,400.73315 56.0297,400.73315 C 52.387597,400.73315 49.466292,401.63168 47.213751,402.73321 C 47.213751,396.47964 47.213751,384.91187 47.213751,384.91187 L 27.248696,384.91187 L 27.248696,454.3839 L 47.213751,454.3839 L 47.213202,424.24669 C 47.211003,422.65448 47.207155,421.14784 47.833777,420.27496 C 48.070684,419.95579 49.162143,418.74267 51.581783,418.74267 C 52.616259,418.74267 53.464764,418.82329 54.180615,419.82259 C 55.042862,420.99027 55.100027,421.66673 55.07236,425.37754 L 55.065215,427.11339 L 55.065215,454.3839 L 74.943056,454.3839 L 74.943056,447.35383 C 75.564731,448.37603 76.292126,449.33282 77.149608,450.1969 C 80.78823,453.87051 86.318261,455.89329 92.723913,455.89329 C 96.98256,455.89329 100.46599,454.98048 103.59251,453.19021 C 103.76785,453.86392 103.94155,454.54532 103.94155,454.54532 L 106.50428,454.3839 L 145.68758,454.3839 L 145.68758,439.28836 L 145.68098,436.79726 C 145.64983,427.52253 145.75922,423.67228 148.8075,421.49688 C 150.18588,420.50638 151.93346,419.98639 153.87177,419.98639 L 155.96619,420.13059 L 159.67884,420.47962 L 159.67884,454.3839 L 179.38133,454.3839 L 179.38133,427.99689 C 179.38133,427.99304 179.40918,425.99298 179.40918,425.99298 C 179.4407,423.05958 179.4702,422.16179 179.98176,421.00364 C 180.63843,419.57121 182.48623,419.45468 183.03571,419.45468 C 184.27375,419.45468 184.86263,419.73885 185.10283,419.90485 C 185.21552,419.98419 185.79542,420.39424 186.0468,421.19456 C 186.44586,422.50808 186.51731,424.41305 186.51731,427.91261 L 186.51731,454.3839 L 206.30373,454.3839 L 206.30373,428.80435 C 206.30373,428.74169 206.29108,428.10188 206.29108,428.10188 C 206.27056,427.04468 206.25499,426.16228 206.25499,425.40813 C 206.25499,423.46689 206.35704,422.3987 206.74053,421.52125 L 206.77498,421.43641 L 206.80777,421.35268 C 207.26271,420.12509 208.24992,419.55123 210.16185,419.37424 C 211.74783,419.40154 212.63298,419.98419 213.07802,421.32941 C 213.40159,422.30324 213.44648,423.4286 213.44648,425.82881 C 213.44648,426.11959 213.44264,428.0918 213.44264,428.0918 L 213.44264,454.3839 L 233.23565,454.3839 L 233.23565,435.04364 C 235.10525,443.92426 240.76848,450.94042 248.93546,454.06858 C 252.30676,455.28609 255.92119,455.89329 259.73516,455.89329 C 263.49599,455.89329 266.8158,455.37716 269.60262,454.3588 C 278.53547,451.40049 284.87021,443.76449 286.76089,434.16454 L 286.76089,454.3839 L 306.5484,454.3839 C 306.5484,454.3839 306.5484,427.74001 306.5484,427.73671 C 306.5495,427.73122 306.56672,426.624 306.56672,426.624 C 306.60667,423.13672 306.7527,420.9309 308.45245,419.69561 C 309.41914,418.97573 310.71874,418.9226 311.09782,418.9226 C 312.72539,418.9226 313.24373,419.43984 313.52186,419.71559 C 314.56458,420.71836 315.01952,422.13339 314.92681,427.58409 L 314.92681,454.3839 L 334.80704,454.3839 L 334.80887,424.27435 C 334.81547,421.32263 334.81547,418.13675 334.09906,414.99357 L 344.08636,440.9381 C 345.46089,444.37664 346.75445,447.77836 347.14783,448.9792 C 347.16285,449.12083 347.23504,449.77182 347.23504,449.77182 C 347.23504,450.62087 346.91935,451.31053 346.80886,451.48532 C 346.45763,452.03371 345.5274,452.09637 344.75219,452.09252 L 344.44254,452.09912 L 341.42871,452.11469 L 336.29151,452.05148 L 336.30433,455.42772 L 336.18835,468.94828 L 346.24325,468.94828 C 351.60747,468.94828 354.29828,468.77954 357.57522,467.19521 C 360.84831,465.57094 362.81722,463.27406 364.86877,458.70357 C 366.1724,455.77731 367.2252,452.84282 367.99711,450.6097 C 367.99034,450.63077 383.44774,406.90758 383.44774,406.90758 L 385.03372,402.42247 L 385.03372,402.42247 z M 74.943789,429.2527 L 74.943789,429.2527 L 74.943789,423.91872 C 74.944339,423.66953 74.944339,423.4154 74.944339,423.16182 C 75.998236,423.17062 80.432228,423.20396 81.701962,423.21331 C 80.955512,423.60577 80.188542,423.9658 79.50164,424.45025 C 77.960553,425.52027 76.270689,427.07345 74.943789,429.2527 L 74.943789,429.2527 z M 93.601,419.66502 L 93.601,419.66502 C 93.787521,418.88925 94.300179,418.19777 96.010014,417.78222 C 97.073805,417.59735 97.859648,417.5891 98.235255,417.5891 C 99.549878,417.5891 101.04223,417.86265 101.56386,418.20162 C 101.63092,418.24724 101.67087,418.29598 101.71704,418.34709 C 101.60436,418.37366 101.499,418.40316 101.31468,418.43083 L 101.07448,418.47132 C 101.07942,418.47022 98.394109,418.86983 98.394109,418.86983 L 98.131551,418.90318 L 94.931748,419.43306 C 94.491097,419.50085 94.04385,419.59173 93.601,419.66502 L 93.601,419.66502 z M 115.57564,449.18569 L 115.57564,449.18569 C 115.60276,449.29947 115.63611,449.3832 115.66487,449.48984 C 115.66542,449.49534 115.66542,449.50212 115.66762,449.50871 L 115.57564,449.18569 L 115.57564,449.18569 z M 201.65866,406.70493 L 201.65866,406.70493 C 201.63924,406.68167 201.61634,406.66829 201.5993,406.64722 C 201.5687,406.61003 201.55368,406.57906 201.51868,406.54406 L 201.65866,406.70493 L 201.65866,406.70493 z M 357.74965,424.06071 L 357.74965,424.06071 C 357.74965,424.06071 357.71813,423.95811 357.7163,423.95371 L 357.70586,423.91872 L 357.70091,423.90534 L 357.74965,424.06071 z M 263.25927,437.79894 L 263.25927,437.79894 C 261.9069,438.42098 260.4741,438.49592 259.91307,438.49592 C 255.07892,438.49592 252.52278,434.98922 252.52278,428.35326 C 252.52278,421.59509 255.0278,418.12503 259.97298,418.03525 C 263.30929,417.99531 265.47736,419.55123 266.60345,422.79501 C 266.92134,423.71937 267.30373,425.37644 267.30373,427.99689 C 267.30373,432.91422 265.86415,436.38703 263.25927,437.79894 z M 200.49996,419.00908 L 200.49996,419.00908 C 200.5126,418.97573 200.53367,418.94147 200.5443,418.90812 C 200.5542,418.88485 200.55933,418.86433 200.56812,418.84088 L 200.49996,419.00908 z M 115.14159,445.83839 L 115.14159,445.83839 C 115.14159,445.83839 115.13994,445.69621 115.13994,445.68412 C 115.13884,445.65847 115.13389,445.62127 115.13389,445.59526 L 115.14159,445.83839 z M 100.38079,427.43696 L 100.38079,427.43696 L 99.836805,427.55129 C 99.752523,427.57016 97.667631,428.04306 97.667631,428.04306 L 93.948941,428.93536 C 92.527681,429.31609 90.403946,429.9669 88.770698,431.09409 L 88.699241,431.14337 L 88.630349,431.19724 C 86.582101,432.77278 85.453815,435.01139 85.453815,437.50414 C 85.453815,439.66562 86.366815,441.1052 86.759095,441.71899 L 86.906223,441.95205 L 87.038876,442.13858 C 88.799647,444.42263 91.519956,445.58078 95.125964,445.58078 C 100.18475,445.58078 104.10388,443.94534 106.77747,440.72116 C 106.81576,440.67627 108.44846,438.1762 108.44846,438.1762 L 108.97614,437.21281 L 108.97724,424.10066 L 104.21876,426.26782 C 102.77533,426.92595 102.02284,427.08572 100.38079,427.43696 L 100.38079,427.43696 z M 102.24857,435.40935 L 102.24857,435.40935 C 101.96054,435.8544 101.56221,436.47369 101.56221,436.47369 C 99.587073,438.85431 96.230797,438.85431 95.125964,438.85431 C 93.16035,438.85431 92.62424,438.3378 92.427275,438.09686 C 92.223715,437.77787 92.180841,437.69176 92.180841,437.50414 C 92.180841,437.22839 92.260726,436.92314 92.696979,436.5675 C 93.128102,436.2934 93.977707,435.89269 95.728034,435.42254 C 95.764679,435.4121 99.10538,434.61581 99.10538,434.61581 L 101.3363,434.11012 C 101.25257,434.12899 101.7797,434.01686 101.7797,434.01686 C 101.94625,433.98095 102.09155,433.9476 102.24857,433.91205 L 102.24857,435.40935 z M 506.26034,400.53069 L 506.26034,400.53069 C 500.82687,400.53069 495.16088,402.73999 491.01437,406.22104 C 488.41609,402.60624 484.04384,400.53069 478.44052,400.53069 C 474.18187,400.53069 470.25577,401.48968 466.81998,403.26932 C 466.96381,402.61064 467.13751,401.82864 467.13751,401.82864 L 448.29561,401.82864 C 448.29561,401.82864 448.03745,401.82864 447.61017,401.82864 L 439.06136,401.82864 C 439.65574,399.73551 440.19349,399.65379 442.57905,399.65379 L 445.2433,399.81539 L 449.54702,400.16553 L 450.13187,397.28142 L 452.92052,384.35743 L 449.42261,383.79091 C 446.16784,383.26194 443.17123,383.00507 440.2589,383.00507 C 425.2372,383.00507 421.57568,390.36476 418.92188,401.82864 C 416.5878,401.82864 411.01288,401.82864 411.01288,401.82864 L 407.73594,417.36319 C 407.73594,417.36319 413.71267,417.36319 415.52786,417.36319 C 414.15222,423.88372 407.27312,456.49097 407.27312,456.49097 L 427.31879,456.49097 C 427.31879,456.49097 434.59512,421.99909 435.57353,417.36319 L 444.36383,417.36319 L 436.19172,456.49097 L 456.22842,456.49097 L 462.16576,428.13064 C 463.02983,424.26336 465.91779,417.64059 471.21183,417.64059 C 472.35899,417.64059 473.59263,418.18568 473.59263,419.37809 L 473.36726,421.53187 C 473.36726,421.53187 473.29727,422.05296 473.27181,422.24223 C 473.22288,422.47474 466.14517,456.49097 466.14517,456.49097 L 486.27403,456.49097 L 492.20806,428.12954 C 493.0694,424.26336 495.95827,417.64059 501.25579,417.64059 C 502.65543,417.64059 503.63201,418.35424 503.63201,419.37809 L 503.40298,421.55514 C 503.40298,421.55514 503.33409,422.05846 503.30917,422.24058 C 503.26355,422.46979 496.19151,456.49097 496.19151,456.49097 L 516.21868,456.49097 L 522.71649,425.63845 C 522.72767,425.58238 523.12655,423.64736 523.12655,423.64736 C 523.64543,421.20775 524.17989,418.68221 524.17989,416.04014 C 524.17989,406.90758 516.81141,400.53069 506.26034,400.53069 L 506.26034,400.53069 z M 388.44844,439.91315 L 388.44844,439.91315 C 383.73815,439.91315 379.90568,443.74727 379.90568,448.46049 C 379.90568,453.16639 383.73815,456.99428 388.44844,456.99428 C 393.15434,456.99428 396.98296,453.16639 396.98296,448.46049 C 396.98296,443.74727 393.15434,439.91315 388.44844,439.91315 z"
         id="path2411"
         style="fill:#ffffff;fill-rule:nonzero" />
      <path
         d="M 361.88718,421.157 C 360.37486,426.30574 358.95269,431.55434 357.79783,436.88558 C 357.17341,434.3146 356.46434,431.73354 355.75618,429.15248 C 355.31058,427.7358 354.95257,426.30574 354.51302,424.97774 C 354.06192,423.38224 353.62677,421.86552 353.08571,420.35778 L 348.55186,405.78662 L 334.15788,405.78662 L 347.22606,439.73029 C 348.64677,443.28738 350.06473,447.01267 350.42367,448.1776 C 350.59791,448.97498 350.59791,449.51164 350.59791,449.77255 C 350.59791,451.46333 349.97367,452.79298 349.62298,453.32744 C 348.20117,455.55268 345.44642,455.45722 344.64354,455.45722 C 343.04693,455.55268 341.35707,455.45722 339.66904,455.45722 L 339.58017,465.58505 L 346.24325,465.58505 C 351.39988,465.58505 353.53241,465.41685 356.10852,464.16928 C 358.24398,463.11044 359.84553,461.68204 361.80217,457.32683 C 362.95098,454.74412 363.92994,452.08098 364.81893,449.51164 L 380.27616,405.78662 L 366.41993,405.78662 L 361.88718,421.157 L 361.88718,421.157 z M 315.7176,404.44653 L 315.7176,404.44653 C 308.07996,404.44653 305.0522,408.53918 302.91967,410.75947 L 303.01184,405.78662 L 290.12376,405.78662 L 290.12376,451.01993 L 303.18553,451.01993 L 303.18553,427.7358 C 303.27366,424.09205 302.91967,419.556 306.47566,416.97604 C 308.25366,415.64694 310.38252,415.55808 311.09782,415.55808 C 313.76372,415.55808 315.09996,416.53978 315.89808,417.33717 C 318.02236,419.37882 318.38423,422.13852 318.29097,427.64089 L 318.29097,451.01993 L 331.44527,451.01993 L 331.44527,425.06587 C 331.44527,420.08863 331.62446,414.93494 328.60623,410.57918 C 324.5079,404.71513 317.85032,404.44653 315.7176,404.44653 L 315.7176,404.44653 z M 275.99948,409.51814 L 275.99948,409.51814 C 269.86353,404.44653 262.84298,404.27558 260.17801,404.18397 C 250.40674,404.18397 244.7151,408.44647 241.96328,411.37602 C 239.64973,414.04704 235.92096,419.64688 235.92096,428.4489 C 235.92096,438.22017 240.62685,447.2864 250.13813,450.92777 C 254.31561,452.43625 258.04548,452.53006 259.73516,452.53006 C 263.99765,452.53006 266.75351,451.81915 268.44832,451.20041 C 278.39677,447.9057 283.99661,438.31288 283.99661,428.09253 C 283.99661,421.24678 281.33126,414.04704 275.99948,409.51814 z M 264.80072,440.79903 L 264.80072,440.79903 C 262.76017,441.77634 260.71247,441.86008 259.91344,441.86008 C 254.84787,441.86008 249.15917,438.75353 249.15917,428.35399 C 249.15917,417.68914 254.93655,414.76124 259.91344,414.67238 C 266.66978,414.5826 268.97838,419.37882 269.78127,421.69238 C 270.66696,424.26574 270.66696,427.19859 270.66696,427.99762 C 270.66696,435.47 267.82353,439.19418 264.80072,440.79903 L 264.80072,440.79903 z M 215.20781,404.27558 L 215.20781,404.27558 C 208.19165,404.27558 204.276,407.74179 202.40933,409.69568 C 202.14292,410.0493 201.61011,410.75947 200.90085,411.73843 C 200.27496,410.57918 199.92079,409.78344 199.03125,408.80503 C 195.47801,404.3617 190.23765,404.27558 188.45856,404.27558 C 186.50082,404.27558 182.32921,404.3617 178.50406,407.82772 C 176.8175,409.42488 176.28047,410.57918 175.83817,411.55484 L 175.92685,405.78662 L 163.04116,405.78662 L 163.04116,451.01993 L 176.01736,451.01993 L 176.01736,427.99762 C 176.1033,423.55539 175.92685,421.86552 176.90471,419.64688 C 178.40915,416.36224 181.97192,416.09254 183.03571,416.09254 C 183.56834,416.09254 185.52241,416.09254 187.03455,417.15358 C 187.56956,417.51435 188.72167,418.49257 189.25594,420.18189 C 189.79315,421.96098 189.88147,424.09205 189.88147,427.91334 L 189.88147,451.01993 L 202.94086,451.01993 L 202.94086,428.80509 C 202.85767,424.35735 202.76771,422.22189 203.65396,420.18189 C 205.07247,416.36224 208.89981,416.09254 210.05192,415.99873 C 214.23123,415.99873 215.73842,418.66407 216.27105,420.2702 C 216.89272,422.13852 216.80606,424.00208 216.80606,428.09253 L 216.80606,451.01993 L 229.87003,451.01993 L 229.87003,424.62522 C 229.95761,416.97604 229.78006,413.42775 227.56252,410.22519 C 224.71175,405.966 220.00311,404.27558 215.20781,404.27558 L 215.20781,404.27558 z M 142.85789,411.02643 L 142.85789,411.02643 C 142.0561,412.80442 141.70028,414.22568 141.3474,416.09254 C 141.6116,412.71354 141.78805,409.24843 141.78805,405.78662 L 128.99158,405.78662 L 128.99158,451.01993 L 142.32361,451.01993 L 142.32361,439.28909 C 142.32361,428.4489 141.87618,422.31167 146.85581,418.75953 C 149.70254,416.71238 152.80798,416.62407 153.87177,416.62407 C 155.11934,416.62407 156.27419,416.80234 157.42685,416.89157 L 157.42685,404.3617 C 151.47833,404.3617 145.78963,404.89378 142.85789,411.02643 L 142.85789,411.02643 z M 118.49823,445.59599 L 118.49823,445.59599 C 118.40827,444.3574 118.40827,443.19192 118.40827,441.95389 L 118.40827,420.71635 C 118.40827,418.22397 118.31959,416.53978 117.43169,414.137 C 115.47487,409.07034 110.31953,404.18397 98.681219,404.18397 C 91.305585,404.18397 87.038693,405.87274 84.28064,407.82772 C 82.85993,408.80503 80.818279,410.57918 79.39647,414.40432 C 78.687397,416.36224 78.331579,417.86668 78.238868,419.82442 L 90.149083,419.91548 C 90.325526,418.13639 91.121813,415.46482 95.302774,414.48934 C 96.727331,414.22568 97.790573,414.22568 98.235621,414.22568 C 98.504226,414.22568 101.61407,414.22568 103.39389,415.37779 C 104.45439,416.09254 105.25672,417.24849 105.25672,418.58199 C 105.25672,421.41882 102.14358,421.69238 101.70183,421.77739 C 100.72287,421.96098 99.661278,422.13852 98.681219,422.22189 L 95.481966,422.75122 C 90.945369,423.46652 85.351027,424.44163 81.44032,427.19859 C 76.192269,430.84179 75.930444,436.08929 75.930444,438.31288 C 75.841581,448.1776 84.015883,452.53006 92.723913,452.53006 C 97.881085,452.53006 101.87717,451.20041 105.61364,447.54713 C 105.87949,448.70253 106.14297,449.86783 106.50428,451.01993 L 120.09483,451.01993 C 119.47444,450.04665 119.11972,449.59373 118.8568,448.44052 C 118.49823,447.37014 118.49823,445.86844 118.49823,445.59599 L 118.49823,445.59599 z M 105.61364,436.35002 L 105.61364,436.35002 C 105.07808,437.32733 104.90273,437.68425 104.18908,438.57544 C 101.17067,442.21809 96.543742,442.21809 95.12633,442.21809 C 92.101872,442.21809 90.593581,441.24078 89.704584,440.08703 C 89.439278,439.64638 88.817236,438.84844 88.817236,437.50487 C 88.817236,435.99493 89.522461,434.75525 90.682444,433.86277 C 91.837115,433.06593 93.525879,432.53147 94.856626,432.17419 C 96.727331,431.64925 98.681219,431.29179 100.54533,430.84179 C 102.59083,430.40114 103.65572,430.2214 105.61364,429.33002 L 105.61364,436.35002 L 105.61364,436.35002 z M 56.0297,404.09804 L 56.0297,404.09804 C 50.431327,404.09804 46.87369,406.58309 45.279285,408.00545 L 43.851979,409.42488 L 43.851979,388.27547 L 30.611567,388.27547 L 30.611567,451.01993 L 43.851979,451.01993 L 43.851979,424.62522 C 43.851979,422.4894 43.764216,420.18189 45.097894,418.31998 C 45.89473,417.24849 47.943528,415.37779 51.581783,415.37779 C 52.655102,415.37779 55.137221,415.37779 56.916498,417.86668 C 58.695591,420.2702 58.428086,422.13852 58.428086,427.11412 L 58.428086,451.01993 L 71.579086,451.01993 L 71.579086,424.70914 C 71.579086,419.82442 71.758827,414.84607 68.824331,410.49197 C 67.316041,408.27057 63.312623,404.09804 56.0297,404.09804 L 56.0297,404.09804 z M 444.15239,405.19353 L 444.15239,405.19353 L 434.78824,405.19353 C 436.1778,399.62795 436.08802,396.29165 442.5796,396.29165 C 443.96972,396.29165 445.45529,396.47542 446.84375,396.57198 L 448.88485,387.11127 C 446.00972,386.64405 443.13514,386.3694 440.25945,386.3694 C 426.44482,386.3694 424.2194,392.95205 421.62111,405.19353 L 413.74052,405.19353 L 411.88411,414.00032 L 419.6762,414.00032 L 411.42202,453.12755 L 424.59116,453.12755 L 432.84553,414.00032 L 442.30166,414.00032 L 444.15239,405.19353 L 444.15239,405.19353 z M 506.26089,403.8943 L 506.26089,403.8943 C 500.13703,403.8943 493.28083,407.32386 490.03211,412.24229 C 488.91555,406.49038 484.19133,403.8943 478.44107,403.8943 C 471.57754,403.8943 465.64406,406.58309 461.6553,411.9583 L 461.47262,411.9583 L 462.956,405.19353 L 450.3455,405.19353 L 440.33164,453.12755 L 453.49529,453.12755 L 458.87489,427.44099 C 460.17632,421.6048 464.15959,414.27955 471.21238,414.27955 C 474.54814,414.27955 476.95715,416.50149 476.95715,419.37882 C 476.95715,420.30281 476.77173,421.41443 476.59034,422.81059 L 470.28014,453.12755 L 483.54034,453.12755 L 488.91555,427.44099 C 490.21588,421.6048 494.20354,414.27955 501.25634,414.27955 C 504.5877,414.27955 506.99561,416.50149 506.99561,419.37882 C 506.99561,420.30281 506.81239,421.41443 506.6277,422.81059 L 500.3274,453.12755 L 513.49123,453.12755 L 519.42563,424.9455 C 519.98061,422.06542 520.81647,419.00596 520.81647,416.04087 C 520.81647,407.78778 513.77137,403.8943 506.26089,403.8943 L 506.26089,403.8943 z M 388.44899,443.27804 L 388.44899,443.27804 C 385.58834,443.27804 383.26928,445.60643 383.26928,448.46123 C 383.26928,451.32573 385.58834,453.63049 388.44899,453.63049 C 391.30855,453.63049 393.62046,451.32573 393.62046,448.46123 C 393.62046,445.60643 391.30855,443.27804 388.44899,443.27804 z"
         id="path2413"
         style="fill:#141213;fill-rule:nonzero" />
      <path
         d="M 101.97463,436.49527 L 101.97463,436.49527 C 101.65919,437.0709 101.5559,437.28112 101.13557,437.80604 C 99.357718,439.95155 96.632459,439.95155 95.797604,439.95155 C 94.016197,439.95155 93.127814,439.37592 92.604195,438.69635 C 92.447931,438.43682 92.081548,437.96683 92.081548,437.17546 C 92.081548,436.28611 92.496925,435.55595 93.180154,435.03027 C 93.860256,434.56092 94.854937,434.24613 95.638748,434.03569 C 96.740593,433.7265 97.891432,433.51596 98.989395,433.25092 C 100.19419,432.99137 100.82142,432.88551 101.97463,432.36048 L 101.97463,436.49527 L 101.97463,436.49527 z"
         id="path2447"
         style="fill:#ff9900;fill-opacity:1;fill-rule:nonzero" />
    </g>
  </g>
</svg>
