<svg xmlns="http://www.w3.org/2000/svg" height="119.6" width="600">
    <path fill="#961580" d="M497.503 25.596h-8.636c-.929 0-1.685.756-1.685 1.685v26.471h-54.244V27.28a1.68 1.68 0 0 0-1.676-1.685h-8.636c-.929 0-1.685.756-1.685 1.685v65.55c0 .93.756 1.686 1.685 1.686h8.636a1.68 1.68 0 0 0 1.676-1.686V64.364h54.264V92.83c0 .93.756 1.686 1.685 1.686h8.636c.929 0 1.685-.756 1.685-1.686V27.281c0-.93-.756-1.685-1.685-1.685M571.053 83.915h-43.642V36.21h45.1c2.578 0 4.883.255 6.832.756 1.777.465 3.234 1.357 4.446 2.742 1.238 1.412 2.204 3.48 2.869 6.14.692 2.769 1.038 6.485 1.038 11.04v6.704c0 4.7-.419 8.49-1.248 11.241-.792 2.633-1.894 4.619-3.279 5.912-1.384 1.303-3.015 2.132-4.974 2.523-2.122.428-4.518.647-7.141.647m27.638-40.217c-.902-4.491-2.55-8.125-4.892-10.822-2.377-2.715-5.566-4.646-9.482-5.72-3.753-1.03-8.517-1.559-14.175-1.559H516.8c-.929 0-1.685.757-1.685 1.686v65.559c0 .93.756 1.676 1.685 1.676h53.071c5.74 0 10.586-.601 14.403-1.794 3.98-1.24 7.187-3.307 9.546-6.14 2.332-2.806 3.972-6.459 4.873-10.886.866-4.254 1.312-9.51 1.312-15.641 0-6.54-.446-12.042-1.312-16.36"/>
    <path fill-rule="evenodd" fill="#FFF" d="M130.12 46.855H114.8V29.329h15.613c3.589.018 7.023 4.39 7.023 8.736 0 4.454-3.361 8.79-7.315 8.79m.602 43.36h-15.806V72.661h14.567c4.518-.055 7.952 4.2 7.952 8.872 0 4.227-2.487 8.58-6.714 8.681m18.191-30.206c10.44-2.387 18.247-11.97 18.247-23.438 0-20.004-11.178-33.486-29.76-33.486l-51.96.018v113.84l51.358-.018c.246.018.492.028.738.028 18.583 0 29.76-13.483 29.76-33.468 0-11.523-7.87-21.143-18.382-23.475"/>
    <path fill-rule="evenodd" fill="#FFF" d="M216.731 88.295c-15.559 0-28.166-12.99-28.166-29.013 0-16.014 12.607-29.004 28.166-29.004 15.568 0 28.175 12.99 28.175 29.004 0 16.023-12.607 29.013-28.175 29.013m0-88.294c-31.791 0-57.58 26.544-57.58 59.283 0 32.748 25.788 59.283 57.58 59.283 31.8 0 57.59-26.535 57.59-59.283 0-32.74-25.789-59.283-57.59-59.283"/>
    <path fill-rule="evenodd" fill="#FFF" d="M216.731 36.545c-12.197 0-22.09 10.184-22.09 22.737 0 12.571 9.893 22.746 22.09 22.746s22.09-10.175 22.09-22.746c0-12.553-9.892-22.737-22.09-22.737M272.412 17.066c3.27 0 5.793-2.66 5.793-6.185 0-3.453-2.523-6.14-5.793-6.14-3.325 0-5.83 2.687-5.83 6.14 0 3.525 2.505 6.185 5.83 6.185m0-13.418c3.853 0 7.086 3.133 7.086 7.232 0 4.145-3.233 7.279-7.086 7.279-3.872 0-7.124-3.134-7.124-7.279 0-4.099 3.252-7.232 7.124-7.232m-1.54 6.731h1.94c1.294 0 1.704-.473 1.704-1.43 0-.838-.61-1.311-1.44-1.311h-2.204v2.741zm0 4.71h-1.175V6.627h3.134c1.922 0 2.86.801 2.86 2.395 0 1.53-.957 2.177-2.14 2.332l2.377 3.735h-1.321l-2.214-3.698h-1.521v3.698zM29.478 116.89H0V3.06h29.478v42.85h20.97V3.06h29.068v113.83H50.448V72.61h-20.97M130.12 46.855H114.8V29.329h15.613c3.589.018 7.023 4.39 7.023 8.736 0 4.454-3.361 8.79-7.315 8.79m.602 43.36h-15.806V72.661h14.567c4.518-.055 7.952 4.2 7.952 8.872 0 4.227-2.487 8.58-6.714 8.681m18.191-30.206c10.44-2.387 18.247-11.97 18.247-23.438 0-20.004-11.178-33.486-29.76-33.486l-51.96.018v113.84l51.358-.018c.246.018.492.028.738.028 18.583 0 29.76-13.483 29.76-33.468 0-11.523-7.87-21.143-18.382-23.475"/>
    <path fill-rule="evenodd" fill="#FFF" d="M216.731 88.295c-15.559 0-28.166-12.99-28.166-29.013 0-16.014 12.607-29.004 28.166-29.004 15.568 0 28.175 12.99 28.175 29.004 0 16.023-12.607 29.013-28.175 29.013m0-88.294c-31.791 0-57.58 26.544-57.58 59.283 0 32.748 25.788 59.283 57.58 59.283 31.8 0 57.59-26.535 57.59-59.283 0-32.74-25.789-59.283-57.59-59.283"/>
    <path fill-rule="evenodd" fill="#FFF" d="M216.731 36.545c-12.197 0-22.09 10.184-22.09 22.737 0 12.571 9.893 22.746 22.09 22.746s22.09-10.175 22.09-22.746c0-12.553-9.892-22.737-22.09-22.737M272.412 17.066c3.27 0 5.793-2.66 5.793-6.185 0-3.453-2.523-6.14-5.793-6.14-3.325 0-5.83 2.687-5.83 6.14 0 3.525 2.505 6.185 5.83 6.185m0-13.418c3.853 0 7.086 3.133 7.086 7.232 0 4.145-3.233 7.279-7.086 7.279-3.872 0-7.124-3.134-7.124-7.279 0-4.099 3.252-7.232 7.124-7.232m-1.54 6.731h1.94c1.294 0 1.704-.473 1.704-1.43 0-.838-.61-1.311-1.44-1.311h-2.204v2.741zm0 4.71h-1.175V6.627h3.134c1.922 0 2.86.801 2.86 2.395 0 1.53-.957 2.177-2.14 2.332l2.377 3.735h-1.321l-2.214-3.698h-1.521v3.698z"/>
    <path fill="#961580" d="M335.272 88.725c27.63-33.149 27.13-42.076 27.13-42.076h-.009c.92-3.808.938-7.442.292-11.715-2.178-18.984-19.194-33.768-39.872-33.768-22.163 0-40.117 18.018-40.117 38.942 0 .009.01.027.018.036h27.738c.174-6.094 5.439-11.268 11.915-11.268 5.603 0 10.294 3.644 11.579 8.563.227.874.364 1.776.364 2.714h-.01.037c-.246 2.378-1.147 4.628-2.46 6.495h-.045l-32.1 42.077h-.04l-21.69 28.226h88.076V88.728h-30.805z"/>
    <path fill="#961580" d="M310.492 40.565h.082c-.037 0-.064-.01-.082-.01v.01z"/>
    <path fill="#FFF" d="M396.822 3.096h-5.056v116.5h5.066V3.096h-.01z"/>
</svg>
