<svg xmlns="http://www.w3.org/2000/svg" height="210.05" width="600">
    <path d="M155.966 54.566h-17.845V34.153h18.184c4.18.022 8.18 5.114 8.18 10.175 0 5.188-3.915 10.238-8.52 10.238m.7 50.501h-18.407V84.622h16.965c5.262-.063 9.262 4.891 9.262 10.334 0 4.923-2.897 9.995-7.82 10.111m21.187-35.182c12.159-2.78 21.251-13.94 21.251-27.298 0-23.298-13.017-39-34.66-39l-60.518.02v132.59l59.816-.022c.286.021.573.032.86.032 21.643 0 34.66-15.702 34.66-38.98 0-13.42-9.166-24.625-21.41-27.341" fill-rule="evenodd"/>
    <path d="M256.84 102.84c-18.121 0-32.805-15.13-32.805-33.791 0-18.652 14.684-33.781 32.805-33.781 18.132 0 32.815 15.13 32.815 33.78 0 18.663-14.683 33.792-32.815 33.792m0-102.84c-37.028 0-67.063 30.917-67.063 69.046 0 38.142 30.035 69.047 67.063 69.047 37.039 0 67.074-30.905 67.074-69.047C323.914 30.916 293.879 0 256.84 0" fill-rule="evenodd"/>
    <path d="M256.84 42.56c-14.206 0-25.728 11.861-25.728 26.482 0 14.641 11.522 26.492 25.728 26.492s25.728-11.85 25.728-26.492c0-14.62-11.522-26.482-25.728-26.482M321.702 19.873c3.809 0 6.748-3.098 6.748-7.204 0-4.02-2.94-7.15-6.748-7.15-3.873 0-6.79 3.13-6.79 7.15 0 4.106 2.917 7.204 6.79 7.204m0-15.628c4.488 0 8.254 3.65 8.254 8.424 0 4.828-3.766 8.477-8.254 8.477-4.51 0-8.297-3.65-8.297-8.477 0-4.774 3.788-8.424 8.297-8.424m-1.793 7.84h2.26c1.506 0 1.984-.551 1.984-1.665 0-.976-.7-1.528-1.677-1.528h-2.567v3.194zm0 5.486h-1.369V7.714h3.65c2.239 0 3.342.934 3.342 2.79 0 1.783-1.125 2.536-2.504 2.717l2.77 4.35h-1.54l-2.578-4.308h-1.771v4.308zM38.755 136.151H4.422V3.574h34.333v49.907h24.423V3.574h33.856v132.577H63.178V84.58H38.755M155.966 54.566h-17.845V34.153h18.184c4.18.022 8.18 5.114 8.18 10.175 0 5.188-3.915 10.238-8.52 10.238m.7 50.501h-18.407V84.622h16.965c5.262-.063 9.262 4.891 9.262 10.334 0 4.923-2.897 9.995-7.82 10.111m21.187-35.182c12.159-2.78 21.251-13.94 21.251-27.298 0-23.298-13.017-39-34.66-39l-60.518.02v132.59l59.816-.022c.286.021.573.032.86.032 21.643 0 34.66-15.702 34.66-38.98 0-13.42-9.166-24.625-21.41-27.341" fill-rule="evenodd"/>
    <path d="M256.84 102.84c-18.121 0-32.805-15.13-32.805-33.791 0-18.652 14.684-33.781 32.805-33.781 18.132 0 32.815 15.13 32.815 33.78 0 18.663-14.683 33.792-32.815 33.792m0-102.84c-37.028 0-67.063 30.917-67.063 69.046 0 38.142 30.035 69.047 67.063 69.047 37.039 0 67.074-30.905 67.074-69.047C323.914 30.916 293.879 0 256.84 0" fill-rule="evenodd"/>
    <path d="M256.84 42.56c-14.206 0-25.728 11.861-25.728 26.482 0 14.641 11.522 26.492 25.728 26.492s25.728-11.85 25.728-26.492c0-14.62-11.522-26.482-25.728-26.482M321.702 19.873c3.809 0 6.748-3.098 6.748-7.204 0-4.02-2.94-7.15-6.748-7.15-3.873 0-6.79 3.13-6.79 7.15 0 4.106 2.917 7.204 6.79 7.204m0-15.628c4.488 0 8.254 3.65 8.254 8.424 0 4.828-3.766 8.477-8.254 8.477-4.51 0-8.297-3.65-8.297-8.477 0-4.774 3.788-8.424 8.297-8.424m-1.793 7.84h2.26c1.506 0 1.984-.551 1.984-1.665 0-.976-.7-1.528-1.677-1.528h-2.567v3.194zm0 5.486h-1.369V7.714h3.65c2.239 0 3.342.934 3.342 2.79 0 1.783-1.125 2.536-2.504 2.717l2.77 4.35h-1.54l-2.578-4.308h-1.771v4.308z" fill-rule="evenodd"/>
    <path d="M363.375 139.32h-5.889V3.632h5.889v135.686z"/>
    <path d="M502.893 29.814a1.958 1.958 0 0 0-1.747 1.965v76.36a1.958 1.958 0 0 0 1.93 1.929h61.837c6.646 0 12.221-.653 16.779-2.075 4.573-1.43 8.327-3.835 11.1-7.17 2.753-3.312 4.643-7.575 5.679-12.666 1.035-5.034 1.528-11.074 1.528-18.198 0-7.607-.492-13.956-1.528-19.072-1.036-5.157-2.9-9.39-5.678-12.593a1.958 1.958 0 0 0-.036 0c-2.784-3.183-6.51-5.42-11.029-6.66-4.463-1.237-9.968-1.82-16.524-1.82h-62.13a1.958 1.958 0 0 0-.182 0zm12.557 12.338h52.52c3.064 0 5.714.334 7.971.91 2.078.545 3.746 1.545 5.169 3.167 1.39 1.585 2.55 3.96 3.348 7.17.79 3.166 1.201 7.464 1.201 12.848v7.825c0 5.58-.515 9.953-1.456 13.067-.962 3.183-2.245 5.443-3.785 6.879a1.958 1.958 0 0 0-.036.036c-1.618 1.518-3.49 2.483-5.787 2.948-2.465.5-5.21.728-8.299.728H515.46V42.153zM393.202 29.81a1.958 1.958 0 0 0-1.783 1.966v76.36a1.958 1.958 0 0 0 1.965 1.965h10.046a1.958 1.958 0 0 0 1.965-1.966V74.978h63.221v33.157a1.958 1.958 0 0 0 1.922 1.969h10.082a1.958 1.958 0 0 0 1.965-1.966v-76.36a1.958 1.958 0 0 0-1.965-1.965h-10.082a1.958 1.958 0 0 0-1.93 1.966v30.828h-63.226V31.779a1.958 1.958 0 0 0-1.965-1.966H393.37a1.958 1.958 0 0 0-.182 0z" style="block-progression:tb;text-indent:0;text-transform:none;text-align:start" fill="#e97e16" color="#000"/>
    <path d="M44.955 166.492c-6.219-3.727-11.555-5.395-17.394-5.395-11.512 0-20.083 8.447-20.083 19.875 0 11.642 8.277 19.734 20.418 19.734 5.672 0 11.89-2.059 17.563-5.857v8.164c-4.915 2.657-10.335 4.536-18.233 4.536C8.277 207.55 0 192.542 0 181.648c0-15.834 11.596-27.407 27.646-27.407 5.168 0 10.42 1.278 17.31 4.26M79.198 200.71c11.302 0 19.663-8.447 19.663-19.804 0-11.428-8.36-19.805-19.663-19.805-11.26 0-19.579 8.377-19.579 19.805 0 11.357 8.319 19.804 19.579 19.804zm0-46.46c16.637 0 27.14 12.175 27.14 26.656 0 14.02-10.21 26.655-27.266 26.655-16.512 0-26.931-12.565-26.931-26.655 0-14.41 10.713-26.655 27.057-26.655M159.612 206.895h-7.269v-40.462h-.126l-15.545 20.125h-1.177l-15.545-20.125h-.126v40.462h-7.268v-51.96h6.806l16.722 21.33 16.806-21.33h6.722" fill="#e97e16"/>
    <path d="M189.486 157.058l-15.252 15.404 10.63 11.215 14.748-14.871 4.537 4.791-14.705 14.872 10.965 11.535 15.755-15.865 4.538 4.792-20.924 21.118-35.292-37.16 20.461-20.623" fill="#ab4b1d"/>
    <path d="M232.288 200.186H243.8c16.427 0 20.209-12.884 20.209-19.272 0-10.435-6.428-19.272-20.587-19.272h-11.134v38.544zm-7.268-45.253h19.578c18.655 0 26.848 13.7 26.848 25.981 0 13.345-10.126 25.98-26.764 25.98H225.02M306.118 154.938h8.74l-18.738 24.525v27.435h-7.227v-27.507l-18.737-24.455h8.739l13.527 17.924" fill="#e97e16"/>
</svg>
