<?xml version="1.0" encoding="UTF-8"?>
<!-- Created with Inkscape (http://www.inkscape.org/) -->
<svg id="svg4556" width="301.16mm" height="142.67mm" version="1.1" viewBox="0 0 301.16 142.67" xmlns="http://www.w3.org/2000/svg" xmlns:cc="http://creativecommons.org/ns#" xmlns:dc="http://purl.org/dc/elements/1.1/" xmlns:rdf="http://www.w3.org/1999/02/22-rdf-syntax-ns#">
 <metadata id="metadata4553">
  <rdf:RDF>
   <cc:Work rdf:about="">
    <dc:format>image/svg+xml</dc:format>
    <dc:type rdf:resource="http://purl.org/dc/dcmitype/StillImage"/>
    <dc:title/>
   </cc:Work>
  </rdf:RDF>
 </metadata>
 <g id="layer1" transform="translate(137.73 -33.655)">
  <g id="g10" transform="matrix(.35278 0 0 .35278 -163.63 16.643)" fill="#dd032b" stroke-width=".80328">
   <path id="path2" d="m632.15 352.02c8.6915-2.7312 18.532-2.5946 26.806 1.4379 5.2936 2.5625 9.7036 6.6994 12.965 11.567 4.7313-6.2335 11.142-11.382 18.845-13.326 13.575-3.5184 29.424-1.1728 39.827 8.7718 8.4505 7.8079 10.981 19.817 11.246 30.886 0.0723 19.383 0.0161 38.774 0.0241 58.166l-23.062-8e-3c-0.0402-18.564 0.0643-37.12-0.0562-55.675-0.20885-6.844-1.5985-14.572-7.1733-19.166-8.0007-6.0407-20.709-3.6228-26.179 4.7233-4.3538 6.5869-3.928 14.869-3.9682 22.42v47.691l-23.094 0.0161c-0.0241-15.64-8e-3 -31.272-8e-3 -46.904 0.0161-6.6913 0.30524-13.632-2.2813-19.946-1.944-5.1892-6.3058-9.6072-11.816-10.804-5.1651-0.96394-11.021-0.79525-15.375 2.4741-3.5344 2.6026-5.4864 6.7877-6.5226 10.949-1.8877 8.0489-1.4941 16.379-1.5262 24.588 0 13.214 8e-3 26.428 0 39.642l-22.958-8e-3 -0.0241-96.065h21.158l0.0402 8.3381c3.0605-4.6912 7.7838-8.1372 13.134-9.7679z"/>
   <path id="path4" d="m768.31 359.59c8.7558-6.7556 20.026-9.9768 31.031-9.3261 11.415 0.76312 22.484 6.5066 29.577 15.495l-0.0241-12.306 21.239-8e-3 -8e-3 96.065-21.231-8e-3v-11.824c-11.214 12.266-29.537 17.881-45.626 13.351-11.503-2.9561-21.295-11.093-27.103-21.351-6.603-11.495-8.6514-25.303-6.611-38.333 2.1287-12.371 8.6514-24.155 18.757-31.754m24.757 12.603c-5.0125 1.3094-9.6233 4.0807-13.102 7.9123-10.692 11.479-11.093 31.264-0.0241 42.638 9.3261 10.322 26.741 11.712 37.497 2.8516 9.9366-8.0489 13.005-22.476 9.3663-34.421-2.1849-7.2858-7.2617-13.792-14.17-17.11-6.0166-2.9882-13.094-3.3256-19.568-1.8716z"/>
   <path id="path6" d="m865.71 360.52c8.2979-8.8522 21.616-12.419 33.264-9.1494 12.555 3.2774 22.219 15.174 22.516 28.203l-22.484-0.0241c-0.73902-3.2854-2.6187-6.6833-6.0086-7.7677-2.9962-0.73099-6.5066-0.59443-8.9405 1.5021-2.7954 2.201-4.0164 6.4423-2.2251 9.6314 1.2451 2.209 3.7272 3.2292 5.9684 4.161 7.7517 3.0203 16.082 4.6912 23.319 8.9486 5.0446 2.8838 9.4064 7.2938 11.334 12.861 4.5787 13.286-0.44984 29.288-11.953 37.417-13.776 9.9848-34.461 7.7677-46.542-3.92-6.2415-6.0648-8.7799-14.764-9.4787-23.215l23.592 0.0241c0.82738 3.2131 1.8315 6.5548 4.2092 8.9968 4.3377 4.5466 12.788 4.4422 16.773-0.5382 3.1007-3.7594 2.7151-10.362-1.6949-12.965-5.9764-3.8397-13.029-5.3499-19.584-7.8641-6.6351-2.5785-12.909-6.9002-16.419-13.238-5.7515-10.451-3.9441-24.468 4.3538-33.063z"/>
   <path id="path8" d="m503.4 353.46h25.858l17.616 28.806 17.479-28.846 25.785 0.0402-29.794 46.566 34.397 49.49-27.384-0.0241-20.387-32.661-20.572 32.71-27.32-0.0321 34.091-49.458z"/>
  </g>
  <g id="g20" transform="matrix(.35278 0 0 .35278 -163.63 16.643)" fill="#dd032b">
   <path id="path12" d="m74.126 84.561 31.452 0.0214 0.0214 76.602c14.36-10.178 31.836-16.323 49.567-15.619 21.658 0.51211 42.825 10.626 56.95 27.035 12.632 14.36 19.524 33.436 19.332 52.533l0.0214 111.28h-31.452l-0.064-111.34c0.12802-13.891-5.9532-27.739-16.601-36.701-13.976-12.226-35.399-14.766-51.851-6.1879-15.897 7.8523-26.203 25.2-25.861 42.889l-0.064 111.32-31.452 0.0213z" stroke-width="2.1338"/>
   <path id="path14" d="m699.4 84.311 31.48-0.02139 0.043 62.939 58.284-0.0214 50.872 143.37 50.595-142.94 36.222 0.0214-72.827 187.45h-27.828l-61.081-156.38-34.257 0.0214c0.021 26.056-0.1069 52.111 0.043 78.167-0.8329 25.5 21.72 48.203 47.156 47.968l0.021 31.523c-18.751-0.17086-37.418-6.941-51.513-19.349-16.637-14.309-26.782-35.773-27.124-57.707-0.2563-26.867 0-53.756-0.1282-80.623h-15.697v-31.502l15.911-0.25629z" stroke-width="2.1357"/>
   <path id="path16" d="m282.35 160.67c26.08-17.934 61.224-22.178 90.631-10.236 24.14 9.1484 43.844 28.469 54.485 51.883-45.273 29.428-90.524 58.835-135.82 88.242 13.093 12.155 30.921 19.363 48.898 18.147 22.796-0.81035 44.484-14.373 55.359-34.397 6.1202-10.513 7.1865-23.18 13.84-33.416 10.94-18.382 31.838-30.303 53.27-30.175 0.0853-19.384 8.2954-38.747 23.713-50.839 21.432-18.51 55.935-18.958 77.857-1.0236 15.119 11.558 24.609 30.132 24.545 49.239l0.21325 128.06-105.84 0.27722c-12.795-0.27722-25.974 1.1729-38.363-2.7936-14.16-4.1157-26.272-13.691-34.546-25.76-16.804 18.446-40.624 30.409-65.574 32.115-29.876 2.5377-60.477-9.7455-80.395-32.115-19.64-21.474-28.746-51.969-24.182-80.715 3.8598-26.72 19.534-51.393 41.903-66.491m-8.9991 62.716c-3.9878 13.285-3.0708 27.637 1.1089 40.773 36.359-23.543 72.654-47.171 108.97-70.756-14.181-13.264-34.013-20.237-53.376-17.828-26.23 2.5803-49.495 22.583-56.703 47.81m221.97-19.747c-1.1515 12.752-0.21325 25.59-0.53313 38.363-12.368 0.31988-24.822-0.70372-37.127 0.63975-15.567 2.495-27.424 18.169-25.526 33.843 1.1516 15.226 14.842 28.128 30.132 28.341l95.472 0.10663-0.0853-96.73c-0.0213-12.923-8.8072-25.185-21.026-29.3-17.614-6.824-39.046 6.0136-41.306 24.737z" stroke-width="2.1325"/>
   <path id="path18" d="m597.22 336.42 0.0214-188.93 31.425 0.0214 0.021 15.744c13.675-9.8776 30.251-15.616 47.169-15.808v31.51c-24.768-0.19201-47.084 21.312-47.041 46.209l-0.1493 111.28z" stroke-width="2.1334"/>
  </g>
  <path id="path22" d="m3.9916 33.655c-0.63055-0.0021-1.2637 0.08485-1.8722 0.25683-3.4114 0.95603-6.2689 3.4822-7.9199 6.5867-0.9525 1.7392-1.3651 3.7004-1.8448 5.609-1.7392 0.52211-3.5418 1.115-4.84 2.452-3.3831 3.0092-3.9441 8.5899-1.2842 12.241 1.7709 2.6141 4.9811 3.9263 8.075 3.9016-0.0388 1.3053-0.095 2.6144-0.13384 3.9197-0.99836 0.61383-2.0748 1.2239-2.6851 2.2681-0.89958 1.2665-0.95228 2.9246-0.66301 4.3992 0.8255 2.3178 1.7778 4.5935 2.6174 6.9112 0.45155 1.2876 1.1256 2.5966 2.3497 3.3021 1.2982 0.90664 2.9387 1.0123 4.4592 0.78652l35.405-13.624c1.3547-0.49742 2.8153-1.0121 3.7078-2.2257 1.203-1.4041 1.4251-3.4293 0.91002-5.1614-0.94897-2.4448-1.8835-4.9-2.836-7.3448-0.43744-1.2065-1.2915-2.2575-2.4345-2.8572-1.397-0.87136-3.1361-0.62816-4.6778-0.39532-7.4154-6.6463-14.552-13.639-22.493-19.668-1.0768-0.91678-2.4518-1.3531-3.839-1.3575z" fill="#dd032b" stroke-width=".35278"/>
  <g id="g38" transform="matrix(.35278 0 0 .35278 -137.73 33.655)" fill="#fff">
   <path id="path24" d="m4.1159 23.528c5.26-2.08 11.03-1.18 16.54-1.19 4.13-0.02 9.32 1.23 10.72 5.69 1.19 4.17 2.1142 11.958 0.68 13.01-3.0847 1.5952-7.68-0.6-10.94-2.7-5.42-3.25-12.976 2.2908-16.62 2.01-1.1808-0.2748-2.4784-0.99727-3.57-2.5-0.97-3.33-1.15-6.82-0.67-10.26 0.30566-1.4806 1.99-3.38 3.86-4.06z"/>
   <path id="path26" d="m626.51 23.418c1.3-0.56 2.61-1.2598 4.1-1.1598h18.73c4.0739-0.18042 8.1251 4.2968 8.66 7.9698 0.48 3.57 0.79 7.39-0.73 10.77-0.67875 1.2922-1.5333 2.0822-2.89 2.37-2.3083 0.27391-6.67-4.99-10.47-6.73-3.44-1.29-5.98 2.42-9.25 2.6-3.16 0.23-6.15-1.21-8.53-3.17-1.8-1.66-2.6832-3.8165-2.94-6.35 0.0105-2.1603 1.08-4.85 3.32-6.3z"/>
   <path id="path28" d="m245.54 85.758c20.52-3.58 42.18-0.24 60.6 9.51 11 5.69 20.69 13.73 28.72 23.14 6.2 7.75 12.21 16 15.42 25.5 0.64 2.27 1.3 4.55 1.53 6.9 0.13 2.41-1.68 5.36-4.43 4.62-2.17-3.26-1.47-7.57-3.55-10.88-2.03-3.61-6.53-5.86-10.61-4.67-2.14 0.3-5.32 1.37-6.36-1.3-1.25-4.02-0.2-8.71-2.99-12.26-3.16-4.61-9.36-4.26-13.82-6.83-6.88-4.08-11.58-11.02-18.71-14.74-3-1.5-6.38-2.48-9.75-2.2-5.24 0.54-9.87 3.32-14.94 4.51-7.37 0.91-14.8 0-22.12-0.89-12.32-1.04-25.28 3.83-33.55 13.08-3.98 4.11-4.21 10.17-7.06 14.91-2.59 4.08-8.16 1.45-12 3.27-3.41 0.92-4.18 4.59-4.99 7.53-0.54 0.3-1.61 0.9-2.15 1.2-2.08-0.12-4.17-0.34-6.25-0.14-5.15 0.6-6.75 6.6-6.75 10.98-0.86 4.51-2.24 9.96-6.77 12.13-1.59 0.37-3.86 0.58-4.72-1.18-1.62-3.19-2.14-6.79-2.52-10.31-0.69-4.08-2.28-8.37-5.85-10.77-2.74-2.14-6.14-3.31-8.68-5.69-2.31-2.9-3.54-6.48-5.62-9.54-2.76-4.47-6.83-7.88-11.01-10.97-8-6.07-16.63-11.95-26.63-14.04-9.08-1.67-18.28 0.36-27.41-0.06-4.01-0.03-8.06-0.86-12.04-0.08-4.12 0.9-6.05 5.3-9.85 6.77-3.92 0.99-6.11-4.19-10.07-3.22-4.15 0.56-5.19 5.39-6.77 8.57-0.58688 1.0553-3.4941 1.0459-3.86-0.44-0.88-5.56 1.17-10.86 2.04-16.26 1.33-3.13 0.33-7.34 3.72-9.31 5.71-3.28 12.62-2.71 18.94-3.58 20.23-3 41.35-2.85 60.92 3.63 10.99 3.6 21.33 9.57 29.47 17.83 4.98 5.59 9.81 11.64 16.59 15.17 4.66 2.41 10.3 2.52 15.11 0.44 6.6-3.52 10.92-9.83 16.4-14.71 14.61-13.17 32.9-22.47 52.37-25.62z"/>
   <path id="path30" d="m523.57 88.598c3.61-2.19 7.96-1.1 11.91-1.95 6.1-0.23 12.28-0.32 18.31 0.82 4 1.5 7.37 4.58 11.74 5.09 3.17 0.93 6.41-0.02 9.57-0.51 14.84-3.89 30.3-6.03 45.64-4.74 4.35 2.32 1.76 8.18 2.48 12.08-0.03 1.62-0.14 3.24-0.24 4.85-4.24 0.31-8.47-0.19-12.7-0.23-2.62 0.03-5.25 0.18-7.83 0.54-7.25 0.78-13.03 5.58-19.82 7.63-3.99 1.12-6.25-3.74-10.03-3.78-6.04-0.01-8.5 9.33-15.04 6.69-1.0974-0.41245-2.44-7.09-5.86-8.66-3.77-1.06-6.95 1.64-10.25 2.91-1.87 0.92-3.44-0.84-5.05-1.47-3.07-1.68-7.07 0.31-8.31 3.4-1.67 3.96-1.54 8.62-4.27 12.12-1.36 1.62-4.1272 1.3567-5.41 0.81-2.3371-1.2382-2.21-12.98-2.12-19.49 0.46-5.87 1.55-13.03 7.28-16.11z"/>
   <path id="path32" d="m657.39 88.708c1.7-2.9 5.28-2.56 8.18-2.54 5.31 0.18 10.67-0.12 15.95 0.71 8.34 0.56 16.72 0.27 25.08 0.53 7.32 0.56 11.71 8.61 11.1 15.32l-0.4 1c-1.31 1.78-3.35 3.38-5.7 2.74-5.33-1.38-10.23-5.24-16-4.23-3.82 0.78-7.5 2.1-11.22 3.21-3.39 1-6.1908 3.8278-9.95 3.64-2.5017-0.35338-3.53-5.15-6.83-4.99-3.4-0.73-8.44 3.65-10.27-0.91-0.55-4.78-0.65-9.7 0.06-14.48z"/>
   <path id="path34" d="m820.5 90.768c1.71-2.68 5.06-3.68 8.09-3.73 4.95-0.13 9.91-0.05 14.87 0.06 3.99 0.02 8.09 2.53 9.07 6.56 0.58071 3.5449 1.7098 7.2626 0.86752 10.808-0.24588 1.6378-0.98463 1.7236-2.4775 2.082-5.79 1.11-9.66-4.92-15.32-4.48-4.33-0.15-7.83 3.25-12.12 3.16-2.65-0.61-3.58-3.38-4.1-5.72-0.3-2.94-0.21-6.04 1.12-8.74z"/>
   <path id="path36" d="m372.28 42.295c9.6229-0.2916 19.149 7.5235 19.799 17.404 1.2 9.17-5.509 18.441-14.439 20.511-9.22 2.38-19.44-2.9011-22.67-11.871-3.93-9.8 1.8788-21.969 12.009-25.009 1.7328-0.64844 3.5192-0.98018 5.3013-1.0342zm109.96 23.687c3.1083 0.0563 6.1643 1.9079 7.3418 4.8779 2.68 6.91 5.3605 13.809 7.9805 20.739 1.4 3.26 0.27945 7.3409-2.5606 9.4409-2.38 1.47-5.0787 2.3098-7.6787 3.2798-30.94 11.92-61.93 23.75-92.89 35.65-2.84 1.05-5.7106 2.7199-8.8506 2.1899-3.17-0.58-5.6203-3.25-6.5903-6.23-2.44-6.28-4.77-12.61-7.27-18.87-1.02-2.42-0.96987-5.4103 0.64013-7.5703 1.77-2.89 5.33-3.6201 8.25-4.8501 32.87-12.67 65.711-25.42 98.571-38.09 0.98001-0.405 2.021-0.58564 3.0571-0.56689z"/>
  </g>
 </g>
</svg>
