<svg xmlns="http://www.w3.org/2000/svg" height="408.27" width="600" viewBox="0 0 158.75 108.02">
    <defs>
        <clipPath id="t">
            <path d="M193.26 525H201v16h-7.74z"/>
        </clipPath>
        <clipPath id="u">
            <path d="M200.1 540.7s-3.32-2.56-3.32-3.02c0-.45 1.92-1.58 1.92-1.58s-3.48-1.64-3.48-2.19.45-1.16.45-1.16-2.41-1.37-2.41-1.95c0-.57 6.84-5.37 6.84-5.37s-.23 1.69-1.55 3.31c-.57.69-1.71 1.7-1.71 1.7s1.13.75 1.13 1.21-1.97 1.65-1.97 1.92c0 .28 4.1 2.38 4.1 3.09s-1.84 1.05-1.84 1.05l1.84 2.99"/>
        </clipPath>
        <clipPath id="v">
            <path d="M192.4 549.63s0 3.13 3.13 3.13h10.42s3.12 0 3.12-3.13v-32.02s0-3.12-3.12-3.12h-10.42s-3.13 0-3.13 3.12v32.02"/>
        </clipPath>
        <radialGradient id="w" gradientUnits="userSpaceOnUse" cy="0" cx="0" gradientTransform="matrix(-9.9495 -30.16 30.16 -9.9495 201.12 545.73)" r="1">
            <stop stop-color="#ea540a" offset="0"/>
            <stop stop-color="#ea5607" offset=".004"/>
            <stop stop-color="#ea5607" offset=".008"/>
            <stop stop-color="#ed590a" offset=".012"/>
            <stop stop-color="#ed590a" offset=".016"/>
            <stop stop-color="#ed5b07" offset=".02"/>
            <stop stop-color="#ed5b07" offset=".023"/>
            <stop stop-color="#ed5e07" offset=".027"/>
            <stop stop-color="#ed5e07" offset=".031"/>
            <stop stop-color="#ed6007" offset=".035"/>
            <stop stop-color="#ed6007" offset=".039"/>
            <stop stop-color="#ed6307" offset=".043"/>
            <stop stop-color="#ed6307" offset=".047"/>
            <stop stop-color="#ed6307" offset=".051"/>
            <stop stop-color="#ed6607" offset=".055"/>
            <stop stop-color="#ef6807" offset=".059"/>
            <stop stop-color="#ef6807" offset=".063"/>
            <stop stop-color="#ef6807" offset=".066"/>
            <stop stop-color="#ef6b07" offset=".07"/>
            <stop stop-color="#ef6d07" offset=".074"/>
            <stop stop-color="#ef6d05" offset=".078"/>
            <stop stop-color="#ef6d05" offset=".082"/>
            <stop stop-color="#ef7005" offset=".086"/>
            <stop stop-color="#ef7005" offset=".09"/>
            <stop stop-color="#ef7205" offset=".094"/>
            <stop stop-color="#ef7205" offset=".098"/>
            <stop stop-color="#ef7205" offset=".102"/>
            <stop stop-color="#ef7505" offset=".105"/>
            <stop stop-color="#ef7702" offset=".109"/>
            <stop stop-color="#ef7702" offset=".113"/>
            <stop stop-color="#ef7702" offset=".117"/>
            <stop stop-color="#ef7a02" offset=".121"/>
            <stop stop-color="#ef7a02" offset=".125"/>
            <stop stop-color="#f27c02" offset=".129"/>
            <stop stop-color="#f27c02" offset=".133"/>
            <stop stop-color="#f27c02" offset=".137"/>
            <stop stop-color="#f27f02" offset=".141"/>
            <stop stop-color="#f27f02" offset=".145"/>
            <stop stop-color="#f27f02" offset=".148"/>
            <stop stop-color="#f27f02" offset=".152"/>
            <stop stop-color="#f28202" offset=".156"/>
            <stop stop-color="#f28402" offset=".16"/>
            <stop stop-color="#f28402" offset=".164"/>
            <stop stop-color="#f28402" offset=".168"/>
            <stop stop-color="#f28402" offset=".172"/>
            <stop stop-color="#f28702" offset=".176"/>
            <stop stop-color="#f28702" offset=".18"/>
            <stop stop-color="#f28900" offset=".184"/>
            <stop stop-color="#f48900" offset=".188"/>
            <stop stop-color="#f48900" offset=".191"/>
            <stop stop-color="#f48c00" offset=".195"/>
            <stop stop-color="#f48c00" offset=".199"/>
            <stop stop-color="#f48e00" offset=".203"/>
            <stop stop-color="#f48e00" offset=".207"/>
            <stop stop-color="#f48e00" offset=".211"/>
            <stop stop-color="#f48e00" offset=".215"/>
            <stop stop-color="#f49100" offset=".219"/>
            <stop stop-color="#f49300" offset=".223"/>
            <stop stop-color="#f49300" offset=".227"/>
            <stop stop-color="#f49300" offset=".23"/>
            <stop stop-color="#f49300" offset=".234"/>
            <stop stop-color="#f49600" offset=".238"/>
            <stop stop-color="#f49600" offset=".242"/>
            <stop stop-color="#f49900" offset=".246"/>
            <stop stop-color="#f49900" offset=".25"/>
            <stop stop-color="#f49900" offset=".254"/>
            <stop stop-color="#f49900" offset=".258"/>
            <stop stop-color="#f49b00" offset=".262"/>
            <stop stop-color="#f79b00" offset=".266"/>
            <stop stop-color="#f79b00" offset=".27"/>
            <stop stop-color="#f79e00" offset=".273"/>
            <stop stop-color="#f49e00" offset=".277"/>
            <stop stop-color="#f7a000" offset=".281"/>
            <stop stop-color="#f7a000" offset=".289"/>
            <stop stop-color="#f7a000" offset=".293"/>
            <stop stop-color="#f7a300" offset=".297"/>
            <stop stop-color="#f7a300" offset=".301"/>
            <stop stop-color="#f7a300" offset=".305"/>
            <stop stop-color="#f7a500" offset=".309"/>
            <stop stop-color="#f7a500" offset=".313"/>
            <stop stop-color="#f7a500" offset=".316"/>
            <stop stop-color="#f7a800" offset=".32"/>
            <stop stop-color="#f9a800" offset=".328"/>
            <stop stop-color="#f9aa00" offset=".332"/>
            <stop stop-color="#f9aa00" offset=".336"/>
            <stop stop-color="#f9aa00" offset=".34"/>
            <stop stop-color="#f9ad00" offset=".348"/>
            <stop stop-color="#f9ad00" offset=".352"/>
            <stop stop-color="#f9af00" offset=".359"/>
            <stop stop-color="#f9af00" offset=".367"/>
            <stop stop-color="#f9af00" offset=".371"/>
            <stop stop-color="#f9b200" offset=".375"/>
            <stop stop-color="#f9b200" offset=".379"/>
            <stop stop-color="#f9b200" offset=".383"/>
            <stop stop-color="#f9b200" offset=".387"/>
            <stop stop-color="#f9b500" offset=".391"/>
            <stop stop-color="#f9b500" offset=".395"/>
            <stop stop-color="#f9b500" offset=".402"/>
            <stop stop-color="#f9b700" offset=".406"/>
            <stop stop-color="#f9b700" offset=".41"/>
            <stop stop-color="#f9b700" offset=".414"/>
            <stop stop-color="#f9ba00" offset=".422"/>
            <stop stop-color="#f9ba00" offset=".426"/>
            <stop stop-color="#f9ba00" offset=".434"/>
            <stop stop-color="#f9bc00" offset=".438"/>
            <stop stop-color="#f9bc00" offset=".441"/>
            <stop stop-color="#f9bc00" offset=".449"/>
            <stop stop-color="#f9bf00" offset=".453"/>
            <stop stop-color="#f9bf00" offset=".457"/>
            <stop stop-color="#f9bf00" offset=".465"/>
            <stop stop-color="#fcc100" offset=".469"/>
            <stop stop-color="#fcc100" offset=".473"/>
            <stop stop-color="#fcc100" offset=".48"/>
            <stop stop-color="#fcc100" offset=".484"/>
            <stop stop-color="#fcc400" offset=".488"/>
            <stop stop-color="#fcc400" offset=".496"/>
            <stop stop-color="#fcc600" offset=".504"/>
            <stop stop-color="#fcc600" offset=".508"/>
            <stop stop-color="#fcc600" offset=".512"/>
            <stop stop-color="#fcc600" offset=".516"/>
            <stop stop-color="#fcc600" offset=".52"/>
            <stop stop-color="#fcc900" offset=".523"/>
            <stop stop-color="#fcc900" offset=".527"/>
            <stop stop-color="#fcc900" offset=".531"/>
            <stop stop-color="#fccc00" offset=".535"/>
            <stop stop-color="#fccc00" offset=".547"/>
            <stop stop-color="#fccc00" offset=".551"/>
            <stop stop-color="#fccc00" offset=".555"/>
            <stop stop-color="#fccc00" offset=".559"/>
            <stop stop-color="#fcce00" offset=".57"/>
            <stop stop-color="#ffce00" offset=".574"/>
            <stop stop-color="#ffce00" offset=".586"/>
            <stop stop-color="#ffd100" offset=".59"/>
            <stop stop-color="#ffd100" offset=".602"/>
            <stop stop-color="#ffd300" offset=".605"/>
            <stop stop-color="#ffd300" offset=".617"/>
            <stop stop-color="#ffd300" offset=".621"/>
            <stop stop-color="#ffd300" offset=".625"/>
            <stop stop-color="#ffd600" offset=".637"/>
            <stop stop-color="#ffd600" offset=".645"/>
            <stop stop-color="#ffd600" offset=".652"/>
            <stop stop-color="#ffd800" offset=".656"/>
            <stop stop-color="#ffd800" offset=".664"/>
            <stop stop-color="#ffd800" offset=".672"/>
            <stop stop-color="#ffd800" offset=".68"/>
            <stop stop-color="#ffd800" offset=".688"/>
            <stop stop-color="#ffdb00" offset=".695"/>
            <stop stop-color="#ffdb00" offset=".703"/>
            <stop stop-color="#fd0" offset=".719"/>
            <stop stop-color="#fd0" offset=".727"/>
            <stop stop-color="#fd0" offset=".742"/>
            <stop stop-color="#ffe000" offset=".75"/>
            <stop stop-color="#ffe000" offset=".766"/>
            <stop stop-color="#ffe000" offset=".77"/>
            <stop stop-color="#ffe200" offset=".773"/>
            <stop stop-color="#ffe200" offset=".785"/>
            <stop stop-color="#ffe200" offset=".797"/>
            <stop stop-color="#ffe200" offset=".809"/>
            <stop stop-color="#ffe200" offset=".813"/>
            <stop stop-color="#ffe200" offset=".816"/>
            <stop stop-color="#ffe200" offset=".824"/>
            <stop stop-color="#ffe500" offset=".828"/>
            <stop stop-color="#ffe500" offset=".848"/>
            <stop stop-color="#ffe500" offset=".863"/>
            <stop stop-color="#ffe800" offset=".895"/>
            <stop stop-color="#ffe800" offset=".918"/>
            <stop stop-color="#ffe800" offset=".926"/>
            <stop stop-color="#ffe800" offset=".941"/>
            <stop stop-color="#ffe800" offset=".953"/>
            <stop stop-color="#ffea00" offset=".957"/>
            <stop stop-color="#ffea00" offset="1"/>
        </radialGradient>
        <clipPath id="q">
            <path d="M201 522.32h5V526h-5z"/>
        </clipPath>
        <clipPath id="r">
            <path d="M202.48 523.9c.04-.04.12-.31.19-.37.69.1 1.96.27 2.6.17l.16 1.2c-.48.07-1.08.05-1.64-.02-.51-.06-1-.14-1.29-.18 0 .4.01.55.21 1.05l-.96.09c-.16-.37-.19-.79-.19-1.17v-.6c0-.57-.12-1.11-.28-1.39l.93-.07c.19.27.3.59.27 1.29"/>
        </clipPath>
        <clipPath id="s">
            <path d="M192.4 549.63s0 3.13 3.13 3.13h10.42s3.12 0 3.12-3.13v-32.02s0-3.12-3.12-3.12h-10.42s-3.13 0-3.13 3.12v32.02"/>
        </clipPath>
        <radialGradient id="d" gradientUnits="userSpaceOnUse" cy="0" cx="0" gradientTransform="scale(-40.517) rotate(74.464 6.333 -10.12)" r="1">
            <stop stop-color="#4cad2b" offset="0"/>
            <stop stop-color="#4cad2b" offset=".008"/>
            <stop stop-color="#4caa2b" offset=".012"/>
            <stop stop-color="#49aa2b" offset=".023"/>
            <stop stop-color="#49aa2d" offset=".027"/>
            <stop stop-color="#49aa2d" offset=".055"/>
            <stop stop-color="#49aa2d" offset=".059"/>
            <stop stop-color="#47aa2d" offset=".086"/>
            <stop stop-color="#47aa2d" offset=".09"/>
            <stop stop-color="#47aa2d" offset=".102"/>
            <stop stop-color="#47aa30" offset=".105"/>
            <stop stop-color="#44aa30" offset=".117"/>
            <stop stop-color="#44a830" offset=".121"/>
            <stop stop-color="#44a830" offset=".133"/>
            <stop stop-color="#44a830" offset=".137"/>
            <stop stop-color="#44a830" offset=".148"/>
            <stop stop-color="#44a830" offset=".152"/>
            <stop stop-color="#44a830" offset=".164"/>
            <stop stop-color="#44a830" offset=".168"/>
            <stop stop-color="#42a830" offset=".18"/>
            <stop stop-color="#42a830" offset=".184"/>
            <stop stop-color="#42a830" offset=".207"/>
            <stop stop-color="#3fa833" offset=".211"/>
            <stop stop-color="#3fa533" offset=".215"/>
            <stop stop-color="#3fa533" offset=".238"/>
            <stop stop-color="#3fa533" offset=".242"/>
            <stop stop-color="#3fa533" offset=".246"/>
            <stop stop-color="#3fa533" offset=".258"/>
            <stop stop-color="#3fa535" offset=".262"/>
            <stop stop-color="#3fa535" offset=".27"/>
            <stop stop-color="#3da535" offset=".273"/>
            <stop stop-color="#3da535" offset=".277"/>
            <stop stop-color="#3da535" offset=".285"/>
            <stop stop-color="#3da535" offset=".293"/>
            <stop stop-color="#3da535" offset=".301"/>
            <stop stop-color="#3aa535" offset=".305"/>
            <stop stop-color="#3aa535" offset=".309"/>
            <stop stop-color="#3aa535" offset=".316"/>
            <stop stop-color="#3aa335" offset=".324"/>
            <stop stop-color="#3aa335" offset=".344"/>
            <stop stop-color="#3aa335" offset=".352"/>
            <stop stop-color="#38a335" offset=".355"/>
            <stop stop-color="#38a335" offset=".359"/>
            <stop stop-color="#38a335" offset=".367"/>
            <stop stop-color="#38a338" offset=".375"/>
            <stop stop-color="#38a338" offset=".383"/>
            <stop stop-color="#35a338" offset=".387"/>
            <stop stop-color="#35a038" offset=".391"/>
            <stop stop-color="#35a038" offset=".406"/>
            <stop stop-color="#35a038" offset=".414"/>
            <stop stop-color="#35a038" offset=".418"/>
            <stop stop-color="#33a038" offset=".422"/>
            <stop stop-color="#33a038" offset=".438"/>
            <stop stop-color="#33a038" offset=".445"/>
            <stop stop-color="#33a038" offset=".449"/>
            <stop stop-color="#30a03a" offset=".453"/>
            <stop stop-color="#30a03a" offset=".469"/>
            <stop stop-color="#30a03a" offset=".477"/>
            <stop stop-color="#30a03a" offset=".48"/>
            <stop stop-color="#30a03a" offset=".484"/>
            <stop stop-color="#30a03a" offset=".5"/>
            <stop stop-color="#2d9e3a" offset=".516"/>
            <stop stop-color="#2d9e3a" offset=".52"/>
            <stop stop-color="#2d9e3a" offset=".531"/>
            <stop stop-color="#2d9e3a" offset=".543"/>
            <stop stop-color="#2d9e3a" offset=".547"/>
            <stop stop-color="#2b9e3a" offset=".551"/>
            <stop stop-color="#2b9e3d" offset=".563"/>
            <stop stop-color="#2b9e3d" offset=".574"/>
            <stop stop-color="#2b9b3d" offset=".578"/>
            <stop stop-color="#289b3d" offset=".582"/>
            <stop stop-color="#289b3d" offset=".605"/>
            <stop stop-color="#289b3d" offset=".609"/>
            <stop stop-color="#289b3d" offset=".613"/>
            <stop stop-color="#289b3d" offset=".617"/>
            <stop stop-color="#269b3d" offset=".621"/>
            <stop stop-color="#269b3d" offset=".625"/>
            <stop stop-color="#239b3d" offset=".629"/>
            <stop stop-color="#239b3d" offset=".637"/>
            <stop stop-color="#239b3f" offset=".641"/>
            <stop stop-color="#239b3f" offset=".648"/>
            <stop stop-color="#239b3f" offset=".652"/>
            <stop stop-color="#239b3f" offset=".656"/>
            <stop stop-color="#219b3f" offset=".66"/>
            <stop stop-color="#219b3f" offset=".668"/>
            <stop stop-color="#239b3f" offset=".676"/>
            <stop stop-color="#239b3f" offset=".684"/>
            <stop stop-color="#21993f" offset=".691"/>
            <stop stop-color="#1e993f" offset=".695"/>
            <stop stop-color="#1e993f" offset=".711"/>
            <stop stop-color="#1e993f" offset=".719"/>
            <stop stop-color="#1e993f" offset=".723"/>
            <stop stop-color="#1c993f" offset=".727"/>
            <stop stop-color="#1c993f" offset=".734"/>
            <stop stop-color="#1c993f" offset=".738"/>
            <stop stop-color="#1c993f" offset=".754"/>
            <stop stop-color="#19993f" offset=".758"/>
            <stop stop-color="#19993f" offset=".77"/>
            <stop stop-color="#19993f" offset=".781"/>
            <stop stop-color="#19993f" offset=".785"/>
            <stop stop-color="#16993f" offset=".789"/>
            <stop stop-color="#169942" offset=".801"/>
            <stop stop-color="#169942" offset=".813"/>
            <stop stop-color="#169642" offset=".816"/>
            <stop stop-color="#149642" offset=".82"/>
            <stop stop-color="#149642" offset=".84"/>
            <stop stop-color="#119642" offset=".848"/>
            <stop stop-color="#0f9642" offset=".852"/>
            <stop stop-color="#0f9642" offset=".867"/>
            <stop stop-color="#0f9642" offset=".875"/>
            <stop stop-color="#0c9344" offset=".879"/>
            <stop stop-color="#0a9344" offset=".883"/>
            <stop stop-color="#0c9344" offset=".895"/>
            <stop stop-color="#0c9344" offset=".898"/>
            <stop stop-color="#079344" offset=".91"/>
            <stop stop-color="#059344" offset=".914"/>
            <stop stop-color="#059344" offset=".922"/>
            <stop stop-color="#029344" offset=".926"/>
            <stop stop-color="#009344" offset=".93"/>
            <stop stop-color="#009344" offset=".945"/>
            <stop stop-color="#009344" offset=".957"/>
            <stop stop-color="#009344" offset=".977"/>
            <stop stop-color="#009344" offset=".988"/>
            <stop stop-color="#009344" offset="1"/>
        </radialGradient>
        <clipPath id="n">
            <path d="M201 525h5v5h-5z"/>
        </clipPath>
        <clipPath id="o">
            <path d="M203.06 527.43c.19.1.57.31.76.4-.02-.15-.04-.45-.05-.6-.18.04-.52.15-.71.2zm2.42-.7c-.22.14-.46.22-.78.32 0 .24.02.51.06.77l-.35.24c.36.16.45.19.88.35l.16 1.18c-1.48-.44-2.83-1.21-3.9-1.92l-.13-.99c1.14-.4 2.87-.64 3.71-1.18l.35 1.23"/>
        </clipPath>
        <clipPath id="p">
            <path d="M192.4 549.63s0 3.13 3.13 3.13h10.42s3.12 0 3.12-3.13v-32.02s0-3.12-3.12-3.12h-10.42s-3.13 0-3.13 3.12v32.02"/>
        </clipPath>
        <clipPath id="k">
            <path d="M201 529h5v6h-5z"/>
        </clipPath>
        <clipPath id="l">
            <path d="M205.45 530.82c-.47.23-1.13.23-1.63.22v.04c.55.3 1.16.55 1.3.56l.25.92c-.49.24-1.12.33-1.63.47v.04c.45.13 1.05.24 1.55.24 0 0 .09.66.17 1.08-1.38.06-2.42-.57-3.73-.77l-.23-.96c.73-.36 1.53-.44 2.29-.66-.59-.36-1.64-.87-2.11-1.1l-.19-1.13c1.21.16 2.83.32 3.78-.07l.18 1.12"/>
        </clipPath>
        <clipPath id="m">
            <path d="M192.4 549.63s0 3.13 3.13 3.13h10.42s3.12 0 3.12-3.13v-32.02s0-3.12-3.12-3.12h-10.42s-3.13 0-3.13 3.12v32.02"/>
        </clipPath>
        <clipPath id="h">
            <path d="M201 534h5v3h-5z"/>
        </clipPath>
        <clipPath id="i">
            <path d="M205.25 534.8l.21 1.18c-1.32.18-2.45-.16-3.73-.25l-.25-1.15c1.32-.06 2.46.37 3.77.22"/>
        </clipPath>
        <clipPath id="j">
            <path d="M192.4 549.63s0 3.13 3.13 3.13h10.42s3.12 0 3.12-3.13v-32.02s0-3.12-3.12-3.12h-10.42s-3.13 0-3.13 3.12v32.02"/>
        </clipPath>
        <clipPath id="e">
            <path d="M201 536h5v4h-5z"/>
        </clipPath>
        <clipPath id="f">
            <path d="M202.49 537.95c.16.01.32.03.48.06-.03-.28-.06-.8-.08-1.24l.93-.09c.01.41.06.96.09 1.23l-.2.2c.09.01.17.02.25.02.37 0 .52-.13.52-.53 0-.41-.19-.92-.33-1.14l1.03-.03c.16.31.27.93.27 1.54 0 .79-.34 1.38-1.2 1.37-.49 0-.95-.15-1.5-.21l-.18-.31c.01.09.06.44.05.57-.26.03-.6.06-.88.04-.07-.97-.37-1.88-.25-2.87l.92-.21c-.07.61 0 1.1.08 1.6"/>
        </clipPath>
        <clipPath id="g">
            <path d="M192.4 549.63s0 3.13 3.13 3.13h10.42s3.12 0 3.12-3.13v-32.02s0-3.12-3.12-3.12h-10.42s-3.13 0-3.13 3.12v32.02"/>
        </clipPath>
        <clipPath id="a">
            <path d="M201 539h5v4.87h-5z"/>
        </clipPath>
        <clipPath id="b">
            <path d="M205.21 539.94l.24 1.16c-.45.08-.93.1-1.42.09.02.14.04.68.03.88l-.42.21c.44.04 1.16.08 1.63.04l.18 1.14c-1.32.2-2.43-.15-3.72-.23l-.25-1.14c.61-.02 1.08.03 1.54.1.02-.3.01-.78-.02-1.07-.45-.06-1-.15-1.35-.26l-.16-1.16c1.24.26 2.75.39 3.72.24"/>
        </clipPath>
        <clipPath id="c">
            <path d="M192.4 549.63s0 3.13 3.13 3.13h10.42s3.12 0 3.12-3.13v-32.02s0-3.12-3.12-3.12h-10.42s-3.13 0-3.13 3.12v32.02"/>
        </clipPath>
    </defs>
    <g fill="#30a830">
        <path d="M60.456 95.76h-4l-4.143 4.69v-4.69h-3.108v12.26h3.108v-5.3l4.287 5.3h4.144l-5.583-6.59 5.295-5.67M69.026 103.07h-2.61l1.32-3.57zm-2.73-7.31l-5.15 12.26h3.453l.892-2.33h4.465l.92 2.33h3.51l-5.1-12.26h-2.99M83.616 103.3l-4.63-7.54h-3.51v12.26h3.08l-.06-7.57 4.66 7.57h3.51V95.76h-3.1l.05 7.54M95.616 103.07h-2.62l1.33-3.57zm-2.73-7.31l-5.15 12.26h3.45l.89-2.33h4.46l.92 2.33h3.51l-5.09-12.26h-2.99M105.226 105.23v-9.47h-3.16v12.26h7.82v-2.79h-4.66"/>
    </g>
    <path d="M40.544 102H.547a.565.565 0 0 1-.547-.57c0-.29.259-.55.547-.55h39.997c.287 0 .546.26.546.55 0 .32-.259.57-.546.57M158.176 102.12h-39.97c-.29 0-.55-.26-.55-.55 0-.31.26-.57.55-.57h39.97c.32 0 .57.26.57.57 0 .29-.25.55-.57.55" fill="#aeaeb0"/>
    <g clip-path="url(#a)" transform="rotate(90 2714.963 1291.353) scale(7.3663)">
        <g clip-path="url(#b)">
            <g clip-path="url(#c)">
                <path d="M201.77 544.68l4.7-1.31-1.31-4.69-4.7 1.3z" fill="url(#d)"/>
            </g>
        </g>
    </g>
    <g clip-path="url(#e)" transform="rotate(90 2714.963 1291.353) scale(7.3663)">
        <g clip-path="url(#f)">
            <g clip-path="url(#g)">
                <path d="M201.66 540.5l4.59-1.27-1.09-3.93-4.59 1.27z" fill="url(#d)"/>
            </g>
        </g>
    </g>
    <g clip-path="url(#h)" transform="rotate(90 2714.963 1291.353) scale(7.3663)">
        <g clip-path="url(#i)">
            <g clip-path="url(#j)">
                <path d="M201.77 537.19l4.11-1.14-.71-2.56-4.11 1.14z" fill="url(#d)"/>
            </g>
        </g>
    </g>
    <g clip-path="url(#k)" transform="rotate(90 2714.963 1291.353) scale(7.3663)">
        <g clip-path="url(#l)">
            <g clip-path="url(#m)">
                <path d="M201.78 535.48l4.91-1.37-1.51-5.44-4.91 1.37z" fill="url(#d)"/>
            </g>
        </g>
    </g>
    <g clip-path="url(#n)" transform="rotate(90 2714.963 1291.353) scale(7.3663)">
        <g clip-path="url(#o)">
            <g clip-path="url(#p)">
                <path d="M201.71 530.64l4.83-1.34-1.35-4.84-4.82 1.34z" fill="url(#d)"/>
            </g>
        </g>
    </g>
    <g clip-path="url(#q)" transform="rotate(90 2714.963 1291.353) scale(7.3663)">
        <g clip-path="url(#r)">
            <g clip-path="url(#s)">
                <path d="M201.57 526.91l4.69-1.3-1.13-4.07-4.68 1.3z" fill="url(#d)"/>
            </g>
        </g>
    </g>
    <g clip-path="url(#t)" transform="rotate(90 2714.963 1291.353) scale(7.3663)">
        <g clip-path="url(#u)">
            <g clip-path="url(#v)">
                <path d="M193.93 542.74l10.71-3.54-5.21-15.8-10.72 3.53z" fill="url(#w)"/>
            </g>
        </g>
    </g>
</svg>
