<svg id="Logo" xmlns="http://www.w3.org/2000/svg" width="1260" height="720" viewBox="0 0 1260 720"><defs><style>.cls-1{fill:#302923;}.cls-2{fill:#b0adad;}.cls-3{fill:#993122;}.cls-4{fill:#5b4c4b;}.cls-5{fill:#9f9d9b;}.cls-6{fill:#807777;}.cls-7{fill:#d58772;}.cls-8{fill:#f9f6f6;}.cls-9{fill:#efecec;}.cls-10{fill:#fcfcfc;}.cls-11{fill:#d5d2d2;}.cls-12{fill:#bfbdbd;}.cls-13{fill:#d9271d;}.cls-14{fill:#80281d;}.cls-15{fill:#e19b81;}.cls-16{fill:#fffefe;}</style></defs><path class="cls-1" d="M884.85,99.43a34.59,34.59,0,0,1,11.07,8,35.63,35.63,0,0,1,10.06,21,84,84,0,0,1,.31,10.65c-.13,8.42-.07,16.85,0,25.28q.07,14.49.26,29c.06,5.37.21,10.75.38,16.12a32.55,32.55,0,0,1-.45,4.63,1.33,1.33,0,0,1-1.46,1.24q-1.46.06-2.91.06H782.46q-84.11,0-168.23.05c-13.87,0-27.74.17-41.61.19q-63.51.09-127,.12-44.14.06-88.3.18a9.16,9.16,0,0,1-3.05-.38,1.51,1.51,0,0,1-1.18-1.68c0-2.08,0-4.15,0-6.23-.08-25-.21-49.91-.22-74.87a34,34,0,0,1,5.83-19.06c.88.75.49,1.64.25,2.49a35.69,35.69,0,0,0-1.25,11.67,8.79,8.79,0,0,0,.9,4.2,7,7,0,0,0,.43-1.19,28.54,28.54,0,0,1,5.42-12.68,35.11,35.11,0,0,1,19.91-13.88c1.71-.46,3.55-.53,5.12-1.49l.82-.07c.18.37.45.33.81.27a37.06,37.06,0,0,1,5.77-.53c12.51,0,25,0,37.52,0l57.55,0c.73,0,1.57.31,2.19-.41,4.4,0,8.81.17,13.21-.09a8.18,8.18,0,0,0,2.7.16l161.8-.1q19.36,0,38.71,0c.74,0,1.55.29,2.22-.32,1.74.1,3.48.27,5.22.27q38.06,0,76.12,0c2.46,0,4.91-.22,7.36-.34a8.67,8.67,0,0,0,3.55,0,3.82,3.82,0,0,0,1.9,0,4,4,0,0,0,.75.14l14,0c.77,0,1.54.11,2.31.11q21.24,0,42.48-.09a49.58,49.58,0,0,1,7.49.71c2.64.4,5.06,1.5,7.63,2.11a1.12,1.12,0,0,0,1.25.66l1.11.41c1.94,1.43,3.3,2,4.79,2-.51-.66-1-1.34-1.52-2s-1.25-1.3-1.87-1.95C884,102.17,883.87,101.22,884.85,99.43ZM835,148a1.39,1.39,0,0,0,.75,1.19h0a3.27,3.27,0,0,0,1.2,1.92h0a1.39,1.39,0,0,0,.75,1.19h0a2.6,2.6,0,0,0,1,1.69.46.46,0,0,0,.16.23,1.39,1.39,0,0,0,.75,1.19h0a7.75,7.75,0,0,0,2,3.11h0a7.9,7.9,0,0,0,1.94,3.11h0c.19,1.09,1.19,1.8,1.45,3-.79,0-1.48.1-2.16.1-4.13,0-8.28.19-12.39-.06-2.62-.15-4.2.66-5.27,3-.78,1.73-2.09,3.2-2.87,5a6.27,6.27,0,0,0,2.61.08c8,0,15.9.07,23.84,0a2.59,2.59,0,0,1,2.58,1.22c2.37,4.29,5.16,8.33,7.7,12.52.31.5.68.77,1.28.54,3.35.15,6.71.13,10.06,0a2,2,0,0,0,1.49-.13c-.26-.46-.43-.8-.64-1.12q-16.7-26.37-33.4-52.72a10.8,10.8,0,0,0-1.64-2.16,5.29,5.29,0,0,0-7.24-.17,9.38,9.38,0,0,0-1.7,2.11q-16.66,26.37-33.33,52.76c-.25.4-.76.75-.48,1.43a12.73,12.73,0,0,0,2.69,0c2.2,0,4.41,0,6.6.11a3.11,3.11,0,0,0,3.23-1.77q12.29-19.9,24.7-39.74a6.34,6.34,0,0,1,1.48-2l2.12,3.1A1.41,1.41,0,0,0,835,148Zm-319.89,8.58,0-1.15c.24-.94,0-1.55-1.09-1.48a5.61,5.61,0,0,1-.58,0h-30.7c-.53,0-.88.22-.89.79,0,2.33,0,4.66,0,7,0,.68.4.92,1.05.63l.4,0H484l30.08.09c.72,0,1.06-.23,1-1-.06-1.35-.06-2.71-.09-4.07Zm252.86-25.27c.13-.57.14-1.06-.63-1.1-.45,0-.91,0-1.36,0H714.72c-2.87,0-2.87,0-2.59,3.06,0,2,0,3.94-.07,5.91,0,.71.27,1.07,1,1l1.32-.06c6.15,0,12.3,0,18.45.07.68,0,1.44-.25,2,.36a24.5,24.5,0,0,0,0,4.45q0,19.78,0,39.58c0,.52,0,1,0,1.56,0,.71.23,1.11,1,1.07l1.16-.07q3.85.18,7.71,0c.29.06.54,0,.58-.33a13.23,13.23,0,0,0,.07-1.54q0-20.81,0-41.6a3,3,0,0,0-.15-1.53c0-.19.06-.38.08-.57.14-1.35.14-1.35,1.44-1.38h1.36l19.19-.06c.82.21.84-.35.83-.89C768,136.57,768.22,133.92,767.94,131.28Zm-250.61,1.17c.13-2.25.13-2.26-2.06-2.26q-24.37,0-48.76,0c-3,0-2.65-.45-2.65,2.73q0,26.23,0,52.46a11.3,11.3,0,0,0,0,1.16c.07.78.6.69,1.14.57h.75c.58,0,1.16.1,1.74.1h48.41c1.52,0,1.55,0,1.55-1.47,0-1.94,0-3.88,0-5.83.2-2.7.2-2.7-2.4-2.7H478.52c-1.29,0-2.58,0-3.87,0-.67-.48-.38-1.19-.38-1.79q0-16.53,0-33.07c0-2.56-.3-2.21,2.33-2.21q19.17,0,38.32,0c.52,0,1,0,1.56,0s.93-.28.92-.93c0-2-.07-4-.1-6Zm155.79,29.91h30.34c.43.19.78.25.73-.4,0-1.8,0-3.6,0-5.4a8.77,8.77,0,0,0,.09-1.15c-.06-1.39-.07-1.39-1.43-1.44h-29.7c-.39,0-.78,0-1.17,0-.74,0-1,.32-1,1.05,0,2.07,0,4.14,0,6.21,0,.95.38,1.3,1.26,1.24C672.49,162.46,672.8,162.4,673.12,162.36ZM568.7,132.06a15,15,0,0,0,.76,1.56q7.95,12.56,15.93,25.1,8.07,12.74,16.1,25.48c.9,1.42,1.78,2.87,3.56,3.36a5.2,5.2,0,0,0,6.23-1.79c.43-.57.81-1.17,1.19-1.77q11.61-18.28,23.2-36.6c2.9-4.59,5.77-9.21,8.66-13.82a14.07,14.07,0,0,0,2-3.34h-1.78c-2.46,0-4.93.14-7.38,0-1.95-.15-3.24.44-4,2.24a1.57,1.57,0,0,1-.19.33q-11.76,19-23.5,38a19.27,19.27,0,0,1-2,3A5.45,5.45,0,0,1,606.1,172q-9.23-14.85-18.45-29.71c-2.31-3.71-4.68-7.39-7-11.08-.19-1-1-1-1.77-1-3.27,0-6.54,0-9.82,0-.41,0-.9-.18-1.29.33A3,3,0,0,0,568.7,132.06ZM404.27,187.32c.49.23.93.2,1.05-.39a6.86,6.86,0,0,0,0-1.36V134.05c0-.9-.08-1.81-.08-2.72s-.37-1.12-1.19-1.1c-2.07,0-4.15,0-6.22,0-3,0-3,0-3,3q0,26.15,0,52.29c0,1.93,0,1.93,1.9,1.94a2.27,2.27,0,0,0,.56-.13A58.05,58.05,0,0,0,404.27,187.32Zm381.62-54.11c0-.51.09-1,.07-1.54-.07-1.44-.08-1.46-1.59-1.47-2.13,0-4.27,0-6.41,0-2.72,0-2.46-.37-2.47,2.53q0,26.33,0,52.64c0,1.86,0,1.86,2,1.77,2.27,0,4.53.05,6.8.05,1.69,0,1.69,0,1.71-1.69,0-.39,0-.78,0-1.16v-48.6C785.94,134.9,785.91,134.05,785.89,133.21ZM528.43,187.15c.45,0,.9.06,1.35.06h46c1.51,0,1.54,0,1.55-1.47,0-1.81,0-3.62,0-5.43a6,6,0,0,0,.1-.95c-.08-2.46,0-2.11-2.13-2.12q-9.21,0-18.44,0c-5.82,0-11.65,0-17.47,0-.8,0-1.7.22-2.4-.44q0-14.49,0-29c0-4.86,0-9.72-.05-14.58,0-.51.09-1,.07-1.54-.07-1.44-.08-1.46-1.59-1.47-2.14,0-4.27,0-6.41,0-2.73,0-2.47-.37-2.47,2.53q0,26.33,0,52.65C526.48,187.23,526.49,187.23,528.43,187.15ZM443.2,164.31a3.75,3.75,0,0,0-.09.57q0,10.35,0,20.7c0,.32,0,.65,0,1,0,.86.58.86,1.21.73,2.71.31,5.43.08,8.15.14.7,0,1.11-.21,1.05-1,0-.32,0-.64,0-1V134.13c0-.91-.09-1.81-.09-2.72s-.33-1.13-1.17-1.12c-2.59.05-5.19.07-7.78,0-1.09,0-1.3.45-1.3,1.38,0,2.2,0,4.4,0,6.61,0,4.66,0,9.33,0,14,0,1.59,0,1.59-1.65,1.64-.45,0-.91,0-1.36,0H416c-.71,0-1.42,0-2.13,0s-.91.31-.91.94c0,1.68-.07,3.37,0,5.05.06,2.81-.67,2.71,2.68,2.73,8.56,0,17.11,0,25.66,0C442.88,162.69,442.88,162.7,443.2,164.31Zm211.29,22.82c.52,0,1,.08,1.55.08h48.57a5.81,5.81,0,0,1,.59,0c.95.1,1.41-.19,1.37-1.27-.09-2.14-.06-4.27-.08-6.41.17-2.31.17-2.31-2-2.32H667.61c-1.29,0-2.59,0-3.88,0-.67-.48-.38-1.19-.38-1.79q0-16.62,0-33.25c0-2.31-.23-2,2.12-2h38.11c.52,0,1,0,1.55,0,1,.09,1.41-.23,1.37-1.29-.09-2-.06-4-.08-6a4.67,4.67,0,0,0,.08-1.54c0-.81-.32-1.2-1.16-1.12a6.77,6.77,0,0,1-.78,0H655.21c-2.47,0-2.26-.27-2.27,2.34q0,17.58,0,35.17,0,9,0,18.07C652.93,187.14,653,187.14,654.49,187.13Z"/><path class="cls-2" d="M801.48,101.51c-2.45.12-4.9.34-7.36.34q-38.05,0-76.12,0c-1.74,0-3.48-.17-5.22-.27-.58-1-1.59-.69-2.45-.69H509.63c-.52,0-1,0-1.55,0s-.7.47-.73,1c-4.4.26-8.81.1-13.21.09-.61-.57-1.36-.32-2-.32q-49.75,0-99.49,0c-.58-.61-1-.48-1.2.3h-.77c-1.3-.75-2.59-.15-3.88,0,.44-1.14,1.49-1.09,2.42-1.11a11.62,11.62,0,0,0,3.05-.41c.42-.13.71-.3.72-.76s-.24-.67-.67-.8a8,8,0,0,0-3.82-.33c-1.52.29-3,.56-4.56.76a14.61,14.61,0,0,0-4.31.94c-2.42,1.16-5,1.93-7.2,3.66-1.73,1.39-3.7,2.54-4.58,4.75.73.6,1.3.19,1.87-.08s.88-.79,1.53-.76a1.35,1.35,0,0,1-.84,1.2,1.85,1.85,0,0,0-1.13,1.47.8.8,0,0,1-.76.44,1.27,1.27,0,0,0-.88.33,35.38,35.38,0,0,0-3.86,4.07,2.79,2.79,0,0,1-1.55,1.33,1.86,1.86,0,0,1-.18-1.92,37.58,37.58,0,0,1,4.95-8.23,1.91,1.91,0,0,0,.31-2.41,10.19,10.19,0,0,1,3.38-2.52,41.86,41.86,0,0,1,15.64-5.47,2.85,2.85,0,0,0,2.44.84q10.5,0,21,0a20.11,20.11,0,0,1,5.41.32,4.52,4.52,0,0,0,2.31,0,10.66,10.66,0,0,1,3.27-.28c5.62.16,11.24-.1,16.88.28a91.71,91.71,0,0,0,13.76-.19,95.46,95.46,0,0,1,13,.21A131.35,131.35,0,0,0,481.4,97,63.36,63.36,0,0,1,488,97c3,.08,6.07-.3,9.1.33a5.09,5.09,0,0,0,2.5-.14,8.39,8.39,0,0,1,4-.11,21.28,21.28,0,0,0,4.05.28c4.91,0,9.83-.3,14.73-.3q151.5-.15,303-.09c2.34,0,4.63.39,7,.53,1.1.06,2.19-.37,3.21-.06a15.39,15.39,0,0,0,4.82.3c3.5-.08,6.93.71,10.41.81.52,0,.87.24.83.82a.69.69,0,0,1-.76.7c-.52,0-1,0-1.56,0-4.86,0-9.72,0-14.58,0-.65,0-1.51-.32-1.72.75l-11.27,0c-.15-.11-.3-.32-.46-.32-4.49,0-9,0-13.47-.07-.67,0-.88.41-.88,1a3.82,3.82,0,0,1-1.9,0c0-.31,0-.73-.31-.83a4.88,4.88,0,0,0-2.93,0C801.49,100.78,801.5,101.2,801.48,101.51Z"/><path class="cls-3" d="M363.86,610.5l-.36-.41a.7.7,0,0,0-.78-.74,56.13,56.13,0,0,1-4-5.37c0-.16,0-.32.07-.48,1.11-.2.67-1.08.69-1.7s-.79-1.55,0-1.93,1.73.15,2.52.58a2.37,2.37,0,0,1,.57.53c1.39,1.51,2.92,2.88,4.41,4.29a56.56,56.56,0,0,0,6.65,4.89,46.46,46.46,0,0,0,5.6,3.05,10.7,10.7,0,0,0,3.51,1.52c2.33.24,4.49,1.08,6.78,1.47a64.29,64.29,0,0,0,10.77.87c9.83,0,19.68.54,29.51-.29h100c26.13,0,52.26.09,78.39,0s52.22,0,78.34-.24c60.15-.54,120.3.34,180.45-.46a54,54,0,0,0,8.8-1.13c1.55-.28,2.87-1.23,4.37-1.55,4.37-.94,7.79-3.59,11.19-6.18a30.6,30.6,0,0,0,6.34-7.25,23.22,23.22,0,0,0,2.12-2.72c.79-1.71,2-3.19,2.51-5.05a1.53,1.53,0,0,1,2.55-.82c.31.23.54.55,1,.53a10,10,0,0,1-1.54,5,1.81,1.81,0,0,0-1.44.88,55.54,55.54,0,0,1-5.14,6.21,62.86,62.86,0,0,1-6.49,5.81A36.4,36.4,0,0,1,878,616.4c-2.16.64-4.43.86-6.6,1.38a29.62,29.62,0,0,1-7,1H849.17a6.67,6.67,0,0,1-1.55-.05,15.54,15.54,0,0,0-6.72,0,5.5,5.5,0,0,1-2.7-.1,10.46,10.46,0,0,0-4.62-.13,25.16,25.16,0,0,1-3.86.28c-7.24,0-14.49-.23-21.73-.31-20.49-.21-41-.16-61.47,0s-41.08-.49-61.61.36q-115.15,0-230.31,0c-2.38,0-4.79-.32-7.15.35a1.65,1.65,0,0,1-1,0,12.63,12.63,0,0,0-4.24-.33c-2.46,0-4.92,0-7.39,0s-5,.09-7.48,0a84.57,84.57,0,0,0-12.22.27c-2.58.35-5.23-.09-7.87,0-2,0-4.1-.24-6.17-.29a5.66,5.66,0,0,1-1.14-.19,8.44,8.44,0,0,0-3.84,0,2,2,0,0,1-1.14.13c-2.06-.65-4.24-.13-6.33-.69-2.62-.69-5.32-1-7.87-2-1.38-.5-2.66-1.31-4-1.83a18.06,18.06,0,0,1-4-2c-2.72-1.86-5.4-3.77-8.18-5.55-.78-.49-1.47-1.45-2.64-1.11a4.11,4.11,0,0,0,1.5,2.59,3.21,3.21,0,0,1,1.08,2.59Z"/><path class="cls-4" d="M373.79,619.21a.23.23,0,0,1-.23-.15,2.55,2.55,0,0,0-2.3-1.54l0,0c0-.36-.05-.72-.08-1.09a1.63,1.63,0,0,1,1.09.34,27.27,27.27,0,0,0,4.68,2.34,38.6,38.6,0,0,0,14.67,3.16H520.16c39.49,0,79,.07,118.46,0s78.81.18,118.22-.24c36.63-.4,73.26-.09,109.9-.12a44.27,44.27,0,0,0,9-1.07,40,40,0,0,0,13.75-5.63A34,34,0,0,0,898,607.8a20.35,20.35,0,0,1,3.19-3.86,3,3,0,0,1-1.13,2.91,3.46,3.46,0,0,0-.84,1.06c-2,3.86-5.43,6.26-8.87,8.6-1.06.72-1.84,1.86-3.16,2.19a9.1,9.1,0,0,0-2.92,1.42,11.67,11.67,0,0,1-4,1.6c-2.67.55-5.2,1.62-7.93,1.91-3.07.32-6.15.82-9.24.43a28.75,28.75,0,0,0-3.46-.25l-11.64,0c-.45,0-.91-.1-1.28.28-.58,0-1.16.05-1.74.05h-59c-.26,0-.52,0-.78,0-.69-.53-1.5-.26-2.25-.26-34.48,0-69-.1-103.44,0s-68.93,0-103.4.24c-50.55.4-101.11.1-151.67.11h-1.75a.83.83,0,0,0-.88.61c-3.41,0-6.81.07-10.22.08-4,0-8,0-11.95,0a15.35,15.35,0,0,0-4.73-.23c-1.12,0-2.29-.33-3.38.22a3.8,3.8,0,0,1-1.54-.05c-.12-.45-.47-.53-.88-.6a39.46,39.46,0,0,1-13.65-4.48C374.91,619.41,374.43,619,373.79,619.21Z"/><path class="cls-5" d="M833,100.89c.21-1.07,1.07-.75,1.72-.75,4.86,0,9.72,0,14.58,0,.52,0,1,0,1.56,0a.69.69,0,0,0,.76-.7c0-.58-.31-.8-.83-.82-3.48-.1-6.91-.89-10.41-.81a15.39,15.39,0,0,1-4.82-.3c-1-.31-2.11.12-3.21.06-2.32-.14-4.61-.53-7-.53q-151.49,0-303,.09c-4.9,0-9.82.29-14.73.3a21.28,21.28,0,0,1-4.05-.28,8.39,8.39,0,0,0-4,.11,5.09,5.09,0,0,1-2.5.14c-3-.63-6.07-.25-9.1-.33a63.36,63.36,0,0,0-6.61,0,131.35,131.35,0,0,1-17.06.28,95.46,95.46,0,0,0-13-.21,91.71,91.71,0,0,1-13.76.19c-5.64-.38-11.26-.12-16.88-.28a10.66,10.66,0,0,0-3.27.28,4.52,4.52,0,0,1-2.31,0,20.11,20.11,0,0,0-5.41-.32q-10.5,0-21,0a2.85,2.85,0,0,1-2.44-.84,26.86,26.86,0,0,1,7.09-.77c12.83,0,25.67.07,38.5,0,49.85-.41,99.69-.23,149.53-.28Q665,95,748.66,95c7.38,0,14.77-.18,22.15-.2q18.06,0,36.13,0c3.63,0,7.25.17,10.88.27,0,1.26.84,1.2,1.72,1.19,2.71,0,5.44.14,8.15,0s5.5,1,8.26.06a1.62,1.62,0,0,1,.57,0,80.46,80.46,0,0,0,10.4.66c1.46,0,2.93-.3,4.41-.36,4.28-.19,8.51.49,12.77.42a20.58,20.58,0,0,1,5.9.9,5.29,5.29,0,0,1,3,1.58c.2.27.42.53.26.87a.78.78,0,0,1-1,.47,10.38,10.38,0,0,0-3.84-.28c-3.48,0-7,.16-10.44.27C849.72,101.08,841.36,100.9,833,100.89Z"/><path class="cls-5" d="M353.64,221.84a5.13,5.13,0,0,1,3.16-.66h15.95l101.34,0,156.39-.09c3.49,0,7,0,10.47,0,56.33-.64,112.67-.12,169-.29,8.94,0,17.89.08,26.84-.11,22.28-.47,44.56-.12,66.84-.23.87,0,1.84-.3,2.55.54a.31.31,0,0,1,0,.21,20,20,0,0,0-4.7-.08l-.78,0c-37.73,0-75.46,0-113.18.07s-75.57-.1-113.35.23c-62.93.56-125.87-.15-188.8.39-42.2.37-84.4.09-126.6.1l-4.7.08Z"/><path class="cls-6" d="M421.75,624.79a.83.83,0,0,1,.88-.61h1.75c50.56,0,101.12.29,151.67-.11,34.47-.28,68.93-.12,103.4-.24s69,0,103.44,0c.75,0,1.56-.27,2.25.26-.49.61-1.19.4-1.81.43-1.1,0-2.2,0-3.3,0-66.36,0-132.73-.24-199.09.08-52.1.26-104.2,0-156.29.21Z"/><path class="cls-6" d="M846.66,624.06c.37-.38.83-.28,1.28-.28l11.64,0a28.75,28.75,0,0,1,3.46.25c3.09.39,6.17-.11,9.24-.43,2.73-.29,5.26-1.36,7.93-1.91a11.67,11.67,0,0,0,4-1.6,9.1,9.1,0,0,1,2.92-1.42c1.32-.33,2.1-1.47,3.16-2.19,3.44-2.34,6.87-4.74,8.87-8.6a3.46,3.46,0,0,1,.84-1.06,3,3,0,0,0,1.13-2.91,3.38,3.38,0,0,1,.56-1.18c.95-1.91,2.32-3.64,2.59-5.85a10,10,0,0,0,1.54-5,30.93,30.93,0,0,0,1-8.45c-.12-23.27.08-46.53-.17-69.8-.27-25.47-.08-50.95-.14-76.43-.11-44.52.27-89.05-.27-133.58-.06-4.53,0-9.07,0-13.61l0-68.84a.31.31,0,0,0,0-.21c.62.73.37,1.61.37,2.43,0,19.84-.16,39.68.05,59.52.54,52,0,104,.35,156,.33,49.66.13,99.32.19,149a34.36,34.36,0,0,1-11.88,26.47,40,40,0,0,1-25,10.22c-7.26.47-14.5-.32-21.74-.09A2.19,2.19,0,0,1,846.66,624.06Z"/><path class="cls-2" d="M356.69,600.54a31.51,31.51,0,0,1-3.06-10.37,54.24,54.24,0,0,1-.3-7.75q-.06-48.63-.1-97.25c0-3.09,0-6.19,0-9.29-.59-42.84-.14-85.69-.25-128.53q-.17-61.17-.13-122.34c0-.77.05-1.55.08-2.33.3.15.33.43.37.71,0,1.17,0,2.33,0,3.5.05,42.71,0,85.42.24,128.14.11,22.16.07,44.33.1,66.5q.06,39.18.12,78.36c.06,28.65-.1,57.29.14,85.94A34.41,34.41,0,0,0,356.07,598a10.42,10.42,0,0,1,.83,2.37Z"/><path class="cls-6" d="M833,100.89c8.35,0,16.71.19,25-.08,3.48-.11,7-.22,10.44-.27a10.38,10.38,0,0,1,3.84.28.78.78,0,0,0,1-.47c.16-.34-.06-.6-.26-.87a5.29,5.29,0,0,0-3-1.58,20.58,20.58,0,0,0-5.9-.9c-4.26.07-8.49-.61-12.77-.42-1.48.06-3,.35-4.41.36a80.46,80.46,0,0,1-10.4-.66,1.62,1.62,0,0,0-.57,0c-2.76.93-5.5-.25-8.26-.06s-5.44,0-8.15,0c-.88,0-1.75.07-1.72-1.19,3.61,0,7.24,0,10.85-.07,12.67-.23,25.33-.07,38-.13a36.46,36.46,0,0,1,7.5.73,1.12,1.12,0,0,1,.84.39c-.14.37-1.13.55-.23,1.14.42.28.76.79,1.22.93,2.23.66,3.81,2.37,5.74,3.49a14.55,14.55,0,0,1,2.47,2.16c.82.74.54,1.32-.23,1.86l-1.11-.41c-.15-.72-.67-.74-1.25-.66-2.57-.61-5-1.71-7.63-2.11a49.58,49.58,0,0,0-7.49-.71q-21.24.06-42.48.09c-.77,0-1.54-.07-2.31-.11l0-.7Z"/><path class="cls-6" d="M368.48,111a.8.8,0,0,0,.76-.44c1.34-.54,2.63-1.14,3.16-2.65.42,0,.87,0,1.12-.45a9.65,9.65,0,0,0,4.3-2.31.79.79,0,0,0,.78-.37,3.26,3.26,0,0,0,.95-.1c2.6-1.12,5.42-1.39,8.13-2.1.61-.15,1.26-.37,1.8.2-1.57,1-3.41,1-5.12,1.49a35.11,35.11,0,0,0-19.91,13.88A28.54,28.54,0,0,0,359,130.84a7,7,0,0,1-.43,1.19,8.79,8.79,0,0,1-.9-4.2A35.69,35.69,0,0,1,359,116.16c.24-.85.63-1.74-.25-2.49a10.37,10.37,0,0,1,2.68-3.89c1.44.39,1.5.43.8,1.51a14.63,14.63,0,0,0-.88,2.33,28.11,28.11,0,0,0-2,8.95c1.23-.7,1.72-1.07,2-1.64a28.58,28.58,0,0,1,6.28-8.47C368,112.06,368.51,111.68,368.48,111Z"/><path class="cls-5" d="M368.48,111c0,.67-.45,1-.87,1.45a28.58,28.58,0,0,0-6.28,8.47c-.27.57-.76.94-2,1.64a28.11,28.11,0,0,1,2-8.95,14.63,14.63,0,0,1,.88-2.33c.7-1.08.64-1.12-.8-1.51a19.54,19.54,0,0,1,5.89-5.6,1.91,1.91,0,0,1-.31,2.41,37.58,37.58,0,0,0-4.95,8.23,1.86,1.86,0,0,0,.18,1.92,2.79,2.79,0,0,0,1.55-1.33,35.38,35.38,0,0,1,3.86-4.07A1.27,1.27,0,0,1,368.48,111Z"/><path class="cls-4" d="M884,105.52c.77-.54,1-1.12.23-1.86a14.55,14.55,0,0,0-2.47-2.16c-1.93-1.12-3.51-2.83-5.74-3.49-.46-.14-.8-.65-1.22-.93-.9-.59.09-.77.23-1.14l.75.11c.15.51.38.75.82.24l.73.21c.19.41.41.7.82.2l.74.24a.67.67,0,0,0,1,.32,14.82,14.82,0,0,1,5,2.17c-1,1.79-.87,2.74.53,4.22.62.65,1.28,1.27,1.87,1.95s1,1.31,1.52,2C887.28,107.53,885.92,107,884,105.52Z"/><path class="cls-6" d="M373.79,619.21c.64-.19,1.12.2,1.61.48a39.46,39.46,0,0,0,13.65,4.48c.41.07.76.15.88.6-1.65.27-3.16-.41-4.73-.72a35.62,35.62,0,0,1-10.06-3.8C374.64,620,374.05,619.8,373.79,619.21Z"/><path class="cls-6" d="M391.47,624.82c1.09-.55,2.26-.21,3.38-.22a15.35,15.35,0,0,1,4.73.23c-.15.11-.29.3-.44.32a49.71,49.71,0,0,1-7.22,0C391.77,625.12,391.62,624.93,391.47,624.82Z"/><path class="cls-6" d="M371.16,616.41l.08,1.09a7.65,7.65,0,0,1-3.25-2.57l.54-.18.71.48.45.38A1.48,1.48,0,0,1,371.16,616.41Z"/><path class="cls-6" d="M371.26,617.52a2.55,2.55,0,0,1,2.3,1.54A3.13,3.13,0,0,1,371.26,617.52Z"/><path class="cls-7" d="M353.29,223.39c0-.28-.07-.56-.37-.71a.67.67,0,0,1,.72-.84l.43.1,0,1.47Z"/><path class="cls-6" d="M363.86,610.5l.7.15c.26.49.8.8.88,1.41l-.24.22A3.4,3.4,0,0,1,363.86,610.5Z"/><path class="cls-4" d="M368.53,614.75l-.54.18a1.78,1.78,0,0,1-1-.94,1,1,0,0,0,.11-.37A2.32,2.32,0,0,1,368.53,614.75Z"/><path class="cls-2" d="M358.8,603.5c0,.16-.05.32-.07.48-.66-.26-.76-.87-.93-1.44l.18-.15Z"/><path class="cls-6" d="M876.58,96.29c-.44.51-.67.27-.82-.24A.61.61,0,0,1,876.58,96.29Z"/><path class="cls-6" d="M878.13,96.7c-.41.5-.63.21-.82-.2C877.65,96.32,877.93,96.34,878.13,96.7Z"/><path class="cls-6" d="M879.88,97.26a.67.67,0,0,1-1-.32C879.32,96.7,879.62,96.92,879.88,97.26Z"/><path class="cls-6" d="M362.72,609.35a.7.7,0,0,1,.78.74C363,610.06,362.9,609.68,362.72,609.35Z"/><path class="cls-2" d="M357.09,601.32l-.4-.78.21-.17a1.15,1.15,0,0,1,.39.78Z"/><path class="cls-2" d="M357.48,602.1l-.39-.78.2-.17a1.16,1.16,0,0,1,.4.77Z"/><path class="cls-6" d="M367.08,613.62a1,1,0,0,1-.11.37c-.35,0-.5-.25-.62-.53a2.77,2.77,0,0,0,.25-.24Z"/><path class="cls-6" d="M366.35,613.46l-.39-.38.24-.24.4.38A2.77,2.77,0,0,1,366.35,613.46Z"/><path class="cls-6" d="M366,613.08l-.39-.39.24-.24.39.39Z"/><path class="cls-6" d="M365.57,612.69c-.12-.14-.24-.28-.37-.41l.24-.22.37.39Z"/><path class="cls-2" d="M357.8,602.54l-.32-.44.21-.18c.1.15.19.31.29.47Z"/><path class="cls-8" d="M706.49,179.53c0,2.14,0,4.27.08,6.41,0,1.08-.42,1.37-1.37,1.27a5.81,5.81,0,0,0-.59,0H656c-.52,0-1-.05-1.55-.08,0-.45-.07-.9-.07-1.35q0-25.47,0-50.92c0-2.08.4-2.47,2.52-2.47q23.61,0,47.23,0a5.33,5.33,0,0,1,2.24.48c0,2,0,4,.08,6,0,1.06-.4,1.38-1.37,1.29-.51,0-1,0-1.55,0H665.47c-2.35,0-2.11-.28-2.12,2q0,16.64,0,33.25c0,.6-.29,1.31.38,1.79.63,1.77.68,1.81,2.85,1.81h37.08A6.5,6.5,0,0,1,706.49,179.53Z"/><path class="cls-8" d="M834.22,146.79l-2.12-3.1a6.34,6.34,0,0,0-1.48,2q-12.37,19.86-24.7,39.74a3.11,3.11,0,0,1-3.23,1.77c-2.19-.15-4.4-.08-6.6-.11a2.08,2.08,0,0,1,.36-1.26c2.37-3.7,4.69-7.43,7-11.14,3.56-5.61,7.17-11.2,10.72-16.83,4.89-7.76,9.72-15.55,14.62-23.31,2.27-3.61,6.68-3.47,8.54-.1.15.29.39.52.56.8q4.75,7.53,9.51,15.07,7,11.07,14,22.11,4.26,6.72,8.55,13.4a2.16,2.16,0,0,1,.37,1.26c-3.35.12-6.71.14-10.06,0-2.25-4.15-4.93-8.06-7.44-12.06a1.76,1.76,0,0,0-1.54-1,2.59,2.59,0,0,0-2.58-1.22c-7.94,0-15.89,0-23.84,0-.08-1.7,1.29-2.73,1.94-4.1a3.67,3.67,0,0,1,3.78-2.11c4.12.08,8.26,0,12.38,0a3.9,3.9,0,0,0,2.07-.39,1.15,1.15,0,0,0,.68-1.43c-.46-1.25-.9-2.54-2.22-3.2h0a3.67,3.67,0,0,0-1.94-3.11h0a3.68,3.68,0,0,0-2-3.11h0c.06-.59,0-1.09-.75-1.19a.46.46,0,0,1-.16-.23c.07-.83-.11-1.48-1-1.69h0c.06-.59,0-1.1-.75-1.19h0c0-.86-.16-1.68-1.2-1.92h0c.06-.59,0-1.1-.75-1.19h0C835,147.38,834.93,146.89,834.22,146.79Z"/><path class="cls-8" d="M517.3,133.21c0,2,.05,4,.1,6,0,.65-.26,1-.92.93s-1,0-1.56,0q-19.15,0-38.32,0c-2.63,0-2.32-.35-2.33,2.21q0,16.53,0,33.07c0,.6-.29,1.31.38,1.79.61,1.73.7,1.81,2.65,1.81q18,0,36,0a7.9,7.9,0,0,1,4.1.86c0,2,0,3.89,0,5.83,0,1.43,0,1.43-1.55,1.47H467.5c-.58,0-1.16-.07-1.74-.1V135.58a11.22,11.22,0,0,1,0-1.16,1.6,1.6,0,0,1,1.62-1.6c.52,0,1,0,1.56,0h44.13A13.35,13.35,0,0,1,517.3,133.21Z"/><path class="cls-8" d="M644.33,133.58c-2.89,4.61-5.76,9.23-8.66,13.82q-11.58,18.32-23.2,36.6c-.38.6-.76,1.2-1.19,1.77a5.2,5.2,0,0,1-6.23,1.79c-.21-1.09-1.23-1.61-1.77-2.49-3.27-5.27-6.63-10.48-9.94-15.72-4.45-7-8.87-14.11-13.32-21.15-2.8-4.43-5.63-8.82-8.44-13.24-.34-.52-.94-1-.52-1.72s1-.45,1.59-.45c1.82,0,3.64.1,5.45,0s2.86.76,3.72,2.21c1.45,2.44,3,4.84,4.47,7.26q3.78,6.09,7.57,12.17c4,6.37,7.87,12.75,11.89,19.07,2.06,3.24,3.21,2.57,5-.08,3.57-5.39,6.86-10.95,10.24-16.45,4.57-7.43,9.11-14.87,13.71-22.28.56-.91,1.22-1.88,2.53-1.87q3,0,6,0C643.81,132.78,644.24,132.92,644.33,133.58Z"/><path class="cls-9" d="M443.2,164.31c-.32-1.61-.32-1.62-1.91-1.62-8.55,0-17.1,0-25.66,0-3.35,0-2.62.08-2.68-2.73,0-1.68,0-3.37,0-5.05,0-.63.23-1,.91-.94s1.42,0,2.13,0h24.11c.45,0,.91,0,1.36,0,1.61,0,1.64,0,1.65-1.64,0-4.66,0-9.33,0-14,0-2.21.07-4.41,0-6.61,0-.93.21-1.41,1.3-1.38,2.59.06,5.19,0,7.78,0,.84,0,1.16.32,1.17,1.12s.09,1.81.09,2.72v51.32c0,.33,0,.65,0,1,.06.79-.35,1-1.05,1-2.72-.06-5.44.17-8.15-.14q0-6.39,0-12.79v-8.32C444.36,165.31,444.41,164.42,443.2,164.31Z"/><path class="cls-8" d="M536.9,133.21c0,4.86.05,9.72.05,14.58q0,14.49,0,29a.56.56,0,0,0-.15.69c.67,1.63,2,2,3.61,2,11.21,0,22.42,0,33.62,0a5.29,5.29,0,0,1,3.26.88c0,1.81.06,3.62,0,5.43,0,1.43,0,1.43-1.55,1.47h-46c-.45,0-.9,0-1.35-.06,0-.65-.09-1.29-.09-1.94q0-25,0-50a10.3,10.3,0,0,1,0-1.36,1.42,1.42,0,0,1,1.35-1.42C532.13,132.49,534.64,131.79,536.9,133.21Z"/><path class="cls-10" d="M734.85,140.53c-.58-.61-1.34-.35-2-.36-6.15,0-12.3,0-18.45-.07,0-1.81-.06-3.62,0-5.43,0-1.66.24-1.84,1.95-1.88h45c1.35,0,2.71,0,4.07,0,1.71,0,1.92.22,1.94,1.88,0,1.81,0,3.62,0,5.43l-19.19.06h-1.36c-1.3,0-1.3,0-1.44,1.38,0,.19,0,.38-.08.57-.73.61-.43,1.44-.43,2.18q0,15.49,0,31c0,3.94,0,7.88-.05,11.82q-3.85.18-7.71,0c0-.9-.06-1.81-.06-2.72V144.58a11.58,11.58,0,0,0,0-1.56C736.71,141.8,736.25,140.78,734.85,140.53Z"/><path class="cls-8" d="M785.89,133.21c0,.84.05,1.69.05,2.53v48.6c0,.38,0,.77,0,1.16,0,1.67,0,1.69-1.71,1.69-2.27,0-4.53,0-6.8-.05,0-.71-.1-1.42-.1-2.13V135.42c0-.39,0-.78,0-1.17,0-.93.42-1.34,1.35-1.55A11.35,11.35,0,0,1,785.89,133.21Z"/><path class="cls-8" d="M404.27,187.32a58.05,58.05,0,0,1-7,0,4.44,4.44,0,0,1-.42-2.64q0-24.37,0-48.77c0-.45,0-.91,0-1.36.09-1.13.58-1.69,1.67-1.74,1.61-.06,3.23,0,4.85,0,.88,0,1.28.51,1.29,1.37v1q0,25,0,49.93A3.88,3.88,0,0,1,404.27,187.32Z"/><path class="cls-11" d="M644.33,133.58c-.09-.66-.52-.8-1.11-.8q-3,0-6,0c-1.31,0-2,1-2.53,1.87-4.6,7.41-9.14,14.85-13.71,22.28-3.38,5.5-6.67,11.06-10.24,16.45-1.75,2.65-2.9,3.32-5,.08-4-6.32-7.93-12.7-11.89-19.07q-3.79-6.08-7.57-12.17c-1.5-2.42-3-4.82-4.47-7.26-.86-1.45-1.89-2.35-3.72-2.21s-3.63,0-5.45,0c-.57,0-1.24-.15-1.59.45s.18,1.2.52,1.72c2.81,4.42,5.64,8.81,8.44,13.24,4.45,7,8.87,14.1,13.32,21.15,3.31,5.24,6.67,10.45,9.94,15.72.54.88,1.56,1.4,1.77,2.49-1.78-.49-2.66-1.94-3.56-3.36q-8.06-12.73-16.1-25.48-7.95-12.56-15.93-25.1a15,15,0,0,1-.76-1.56,5,5,0,0,1,3.07-.82c3,0,5.91,0,8.86-.06,2.34,3.69,4.71,7.37,7,11.08q9.26,14.85,18.45,29.71a5.45,5.45,0,0,0,1.37,1.82,19.27,19.27,0,0,0,2-3q11.75-19,23.5-38a1.57,1.57,0,0,0,.19-.33c.73-1.8,2-2.39,4-2.24,2.45.18,4.92,0,7.38,0h1.78A14.07,14.07,0,0,1,644.33,133.58Z"/><path class="cls-11" d="M870.34,187.12a2.16,2.16,0,0,0-.37-1.26q-4.31-6.69-8.55-13.4-7-11-14-22.11-4.77-7.53-9.51-15.07c-.17-.28-.41-.51-.56-.8-1.86-3.37-6.27-3.51-8.54.1-4.9,7.76-9.73,15.55-14.62,23.31-3.55,5.63-7.16,11.22-10.72,16.83-2.36,3.71-4.68,7.44-7,11.14a2.08,2.08,0,0,0-.36,1.26,12.73,12.73,0,0,1-2.69,0c-.28-.68.23-1,.48-1.43q16.65-26.38,33.33-52.76a9.38,9.38,0,0,1,1.7-2.11,5.29,5.29,0,0,1,7.24.17,10.8,10.8,0,0,1,1.64,2.16q16.71,26.35,33.4,52.72c.21.32.38.66.64,1.12A2,2,0,0,1,870.34,187.12Z"/><path class="cls-5" d="M507.35,101.89c0-.49.13-.93.73-1s1,0,1.55,0h200.7c.86,0,1.87-.36,2.45.69-.67.61-1.48.32-2.22.32q-19.35,0-38.71,0l-161.8.1A8.18,8.18,0,0,1,507.35,101.89Z"/><path class="cls-12" d="M706.42,132.85a5.33,5.33,0,0,0-2.24-.48q-23.61,0-47.23,0c-2.12,0-2.52.39-2.52,2.47q0,25.45,0,50.92c0,.45.05.9.07,1.35-1.53,0-1.56,0-1.57-1.35q0-9,0-18.07,0-17.58,0-35.17c0-2.61-.2-2.34,2.27-2.34h49.35a6.77,6.77,0,0,0,.78,0c.84-.08,1.19.31,1.16,1.12A4.67,4.67,0,0,1,706.42,132.85Z"/><path class="cls-11" d="M404.27,187.32a3.88,3.88,0,0,0,.43-2.25q0-25,0-49.93v-1c0-.86-.41-1.36-1.29-1.37-1.62,0-3.24-.05-4.85,0-1.09.05-1.58.61-1.67,1.74,0,.45,0,.91,0,1.36q0,24.39,0,48.77a4.44,4.44,0,0,0,.42,2.64,2.27,2.27,0,0,1-.56.13c-1.89,0-1.9,0-1.9-1.94q0-26.14,0-52.29c0-3,0-3,3-3,2.07,0,4.15,0,6.22,0,.82,0,1.2.27,1.19,1.1s.08,1.82.08,2.72v51.52a6.86,6.86,0,0,1,0,1.36C405.2,187.52,404.76,187.55,404.27,187.32Z"/><path class="cls-8" d="M704.18,156.56V162a1.12,1.12,0,0,0-.73.4H673.12c-.25-.29-.73-.44-.74-.86a36.66,36.66,0,0,1,0-4.06,1.47,1.47,0,0,1,1.45-1.32,10.25,10.25,0,0,1,1.36,0q13.18,0,26.36,0A6.16,6.16,0,0,1,704.18,156.56Z"/><path class="cls-12" d="M465,187.12c-.54.12-1.07.21-1.14-.57a11.3,11.3,0,0,1,0-1.16q0-26.23,0-52.46c0-3.18-.31-2.72,2.65-2.73q24.39,0,48.76,0c2.19,0,2.19,0,2.06,2.26a5.76,5.76,0,0,0-2.44-.45c-15.6,0-31.2.05-46.8,0-2.19,0-3.18,1.16-3.16,3.11.09,9.71,0,19.42.05,29.13Q465,175.67,465,187.12Z"/><path class="cls-10" d="M515.06,157.32c0,1.36,0,2.72.09,4.07,0,.77-.31,1-1,1L484,162.3c0-1.23,0-2.45,0-3.68a1.43,1.43,0,0,1,1.45-1.66,13.37,13.37,0,0,1,1.55,0q11.63,0,23.24,0A15.44,15.44,0,0,1,515.06,157.32Z"/><path class="cls-12" d="M785.89,133.21a11.35,11.35,0,0,0-7.21-.51c-.93.21-1.37.62-1.35,1.55,0,.39,0,.78,0,1.17V185c0,.71.07,1.42.1,2.13-1.94.09-2,.09-2-1.77q0-26.31,0-52.64c0-2.9-.25-2.49,2.47-2.53,2.14,0,4.28,0,6.41,0,1.51,0,1.52,0,1.59,1.47C786,132.18,785.92,132.7,785.89,133.21Z"/><path class="cls-12" d="M536.9,133.21c-2.26-1.42-4.77-.72-7.18-.76a1.42,1.42,0,0,0-1.35,1.42,10.3,10.3,0,0,0,0,1.36q0,25,0,50c0,.65.06,1.29.09,1.94-1.94.08-1.95.08-1.95-1.77q0-26.32,0-52.65c0-2.9-.26-2.49,2.47-2.53,2.14,0,4.27,0,6.41,0,1.51,0,1.52,0,1.59,1.47C537,132.18,536.93,132.7,536.9,133.21Z"/><path class="cls-11" d="M767.24,140.1c0-1.81.07-3.62,0-5.43,0-1.66-.23-1.85-1.94-1.88-1.36,0-2.72,0-4.07,0h-45c-1.71,0-1.93.22-1.95,1.88,0,1.81,0,3.62,0,5.43l-1.32.06c-.73,0-1-.32-1-1,0-2,.05-3.94.07-5.91.27-.05.53-.15.6-.42.34-1.35,1.31-1.56,2.53-1.55q26.34,0,52.68,0c.28,2.64.08,5.29.13,7.93C768.08,139.75,768.06,140.31,767.24,140.1Z"/><path class="cls-11" d="M734.85,140.53c1.4.25,1.86,1.27,2,2.49a11.58,11.58,0,0,1,0,1.56V184.4c0,.91,0,1.82.06,2.72l-1.16.07c-.76,0-1-.36-1-1.07,0-.52,0-1,0-1.56q0-19.78,0-39.58A24.5,24.5,0,0,1,734.85,140.53Z"/><path class="cls-12" d="M577.26,180.31a5.29,5.29,0,0,0-3.26-.88c-11.2,0-22.41,0-33.62,0-1.63,0-2.94-.38-3.61-2a.56.56,0,0,1,.15-.69c.7.66,1.6.43,2.4.44,5.82,0,11.65,0,17.47,0q9.23,0,18.44,0c2.09,0,2-.34,2.13,2.12A6,6,0,0,1,577.26,180.31Z"/><path class="cls-2" d="M704.18,156.56a6.16,6.16,0,0,0-2.63-.49q-13.17,0-26.36,0a10.25,10.25,0,0,0-1.36,0,1.47,1.47,0,0,0-1.45,1.32,36.66,36.66,0,0,0,0,4.06c0,.42.49.57.74.86-.32,0-.63.1-1,.12-.88.06-1.29-.29-1.26-1.24.06-2.07.05-4.14,0-6.21,0-.73.28-1.09,1-1.05.39,0,.78,0,1.17,0h29.7c1.36.05,1.37.05,1.43,1.44A8.77,8.77,0,0,1,704.18,156.56Z"/><path class="cls-2" d="M517.43,179.91a7.9,7.9,0,0,0-4.1-.86q-18,0-36,0c-1.95,0-2-.08-2.65-1.81,1.29,0,2.58,0,3.87,0H515C517.63,177.21,517.63,177.21,517.43,179.91Z"/><path class="cls-2" d="M706.49,179.53a6.5,6.5,0,0,0-2.83-.47H666.58c-2.17,0-2.22,0-2.85-1.81,1.29,0,2.59,0,3.88,0H704.5C706.66,177.22,706.66,177.22,706.49,179.53Z"/><path class="cls-9" d="M465,187.12q0-11.46,0-22.91c0-9.71,0-19.42-.05-29.13,0-2,1-3.12,3.16-3.11,15.6.08,31.2.05,46.8,0a5.76,5.76,0,0,1,2.44.45l0,.76a13.35,13.35,0,0,0-4.22-.41H469c-.52,0-1,0-1.56,0a1.6,1.6,0,0,0-1.62,1.6,11.22,11.22,0,0,0,0,1.16v51.53Z"/><path class="cls-6" d="M392.61,101.69q49.74,0,99.49,0c.68,0,1.43-.25,2,.32-.62.72-1.46.41-2.19.41l-57.55,0c-12.51,0-25,0-37.52,0a37.06,37.06,0,0,0-5.77.53c-.36.06-.63.1-.81-.27.12-.24.23-.48.34-.72h.77C391.86,102.07,392.3,102.14,392.61,101.69Z"/><path class="cls-2" d="M767.94,131.28q-26.34,0-52.68,0c-1.22,0-2.19.2-2.53,1.55-.07.27-.33.37-.6.42-.28-3.05-.28-3.06,2.59-3.06H766c.45,0,.91,0,1.36,0C768.08,130.22,768.07,130.71,767.94,131.28Z"/><path class="cls-2" d="M843.51,161.6c1.32.66,1.76,2,2.22,3.2a1.15,1.15,0,0,1-.68,1.43,3.9,3.9,0,0,1-2.07.39c-4.12,0-8.26,0-12.38,0a3.67,3.67,0,0,0-3.78,2.11c-.65,1.37-2,2.4-1.94,4.1a6.27,6.27,0,0,1-2.61-.08c.78-1.83,2.09-3.3,2.87-5,1.07-2.36,2.65-3.17,5.27-3,4.11.25,8.26.07,12.39.06.68,0,1.37-.06,2.16-.1C844.7,163.4,843.7,162.69,843.51,161.6Z"/><path class="cls-5" d="M482.87,162.35c-.65.29-1.05.05-1.05-.63,0-2.33,0-4.66,0-7,0-.57.36-.79.89-.79h30.7a5.61,5.61,0,0,0,.58,0c1.12-.07,1.33.54,1.09,1.48a24.5,24.5,0,0,0-2.87-.44q-12.83,0-25.67,0a14.7,14.7,0,0,0-2.67.4,1.44,1.44,0,0,0-1.33,1.25C482.51,158.52,482.08,160.48,482.87,162.35Z"/><path class="cls-11" d="M482.87,162.35c-.79-1.87-.36-3.83-.31-5.74a1.44,1.44,0,0,1,1.33-1.25,14.7,14.7,0,0,1,2.67-.4q12.84,0,25.67,0a24.5,24.5,0,0,1,2.87.44l0,1.15a7.86,7.86,0,0,0-2.85-.42c-6.94,0-13.87,0-20.8,0-2,0-4,0-6,0-1.62,0-2.1.5-2.14,2.07,0,1.36,0,2.72,0,4.08Z"/><path class="cls-11" d="M744.67,187.12c0-3.94.05-7.88.05-11.82q0-15.5,0-31c0-.74-.3-1.57.43-2.18a3,3,0,0,1,.15,1.53q0,20.79,0,41.6a13.23,13.23,0,0,1-.07,1.54C745.21,187.1,745,187.18,744.67,187.12Z"/><path class="cls-9" d="M483.27,162.3c0-1.36,0-2.72,0-4.08,0-1.57.52-2,2.14-2.07,2,0,4,0,6,0,6.93,0,13.86,0,20.8,0a7.86,7.86,0,0,1,2.85.42l0,.77a15.44,15.44,0,0,0-4.79-.39q-11.61,0-23.24,0a13.37,13.37,0,0,0-1.55,0,1.43,1.43,0,0,0-1.45,1.66c.05,1.23,0,2.45,0,3.68Z"/><path class="cls-11" d="M443.2,164.31c1.21.11,1.16,1,1.16,1.86v8.32q0,6.4,0,12.79c-.63.13-1.18.13-1.21-.73,0-.32,0-.65,0-1q0-10.35,0-20.7A3.75,3.75,0,0,1,443.2,164.31Z"/><path class="cls-5" d="M821.74,100.91l0,.7-14,0a4,4,0,0,1-.75-.14c0-.59.21-1,.88-1,4.49,0,9,0,13.47.07C821.44,100.59,821.59,100.8,821.74,100.91Z"/><path class="cls-11" d="M851.3,174.05a1.76,1.76,0,0,1,1.54,1c2.51,4,5.19,7.91,7.44,12.06-.6.23-1,0-1.28-.54C856.46,182.38,853.67,178.34,851.3,174.05Z"/><path class="cls-2" d="M580.63,131.18c-3,0-5.91.1-8.86.06a5,5,0,0,0-3.07.82,3,3,0,0,1-1-1.55c.39-.51.88-.33,1.29-.33,3.28,0,6.55,0,9.82,0C579.67,130.15,580.44,130.15,580.63,131.18Z"/><path class="cls-5" d="M390.64,102c-.11.24-.22.48-.34.72l-.82.07c-.54-.57-1.19-.35-1.8-.2-2.71.71-5.53,1-8.13,2.1a3.26,3.26,0,0,1-.95.1L379,104a3.26,3.26,0,0,0,1.85-.47,11.16,11.16,0,0,1,3.59-1.1c.43,0,.89.08,1.17-.37l1.16,0C388.05,101.85,389.34,101.25,390.64,102Z"/><path class="cls-5" d="M801.48,101.51c0-.31,0-.73.31-.82a4.88,4.88,0,0,1,2.93,0c.3.1.29.52.31.83A8.67,8.67,0,0,1,801.48,101.51Z"/><path class="cls-2" d="M839.62,155.38a3.68,3.68,0,0,1,2,3.11A7.75,7.75,0,0,1,839.62,155.38Z"/><path class="cls-2" d="M841.57,158.49a3.67,3.67,0,0,1,1.94,3.11A7.9,7.9,0,0,1,841.57,158.49Z"/><path class="cls-2" d="M835.72,149.16c1,.24,1.15,1.06,1.2,1.92A3.27,3.27,0,0,1,835.72,149.16Z"/><path class="cls-2" d="M837.67,152.27c.93.21,1.11.86,1,1.69A2.6,2.6,0,0,1,837.67,152.27Z"/><path class="cls-2" d="M836.92,151.08c.73.09.81.6.75,1.19A1.39,1.39,0,0,1,836.92,151.08Z"/><path class="cls-2" d="M838.87,154.19c.73.1.81.6.75,1.19A1.39,1.39,0,0,1,838.87,154.19Z"/><path class="cls-2" d="M834.22,146.79c.71.1.8.59.75,1.18A1.41,1.41,0,0,1,834.22,146.79Z"/><path class="cls-2" d="M835,148c.74.09.81.6.75,1.19A1.39,1.39,0,0,1,835,148Z"/><path class="cls-4" d="M881.62,104.45c.58-.08,1.1-.06,1.25.66A1.12,1.12,0,0,1,881.62,104.45Z"/><path class="cls-2" d="M703.46,162.36a1.12,1.12,0,0,1,.73-.4C704.24,162.61,703.89,162.55,703.46,162.36Z"/><path class="cls-12" d="M384.43,102.44a11.16,11.16,0,0,0-3.59,1.1A3.26,3.26,0,0,1,379,104c-.61.07-1.41-.24-1.57.76l-2.31.81a.72.72,0,0,0-.81.74l-.77.41c-.82,0-1.46.18-1.57,1.13l-.75,0c-.65,0-1,.53-1.53.76s-1.14.68-1.87.08c.88-2.21,2.85-3.36,4.58-4.75,2.15-1.73,4.78-2.5,7.2-3.66a14.61,14.61,0,0,1,4.31-.94c1.53-.2,3-.47,4.56-.76a8,8,0,0,1,3.82.33c.43.13.68.34.67.8s-.3.63-.72.76a11.62,11.62,0,0,1-3.05.41c-.93,0-2,0-2.42,1.11l-1.16,0C385,101.47,384.59,101.62,384.43,102.44Z"/><path class="cls-5" d="M371.21,107.9l.75,0,.44.06c-.53,1.51-1.82,2.11-3.16,2.65a1.85,1.85,0,0,1,1.13-1.47A1.35,1.35,0,0,0,371.21,107.9Z"/><path class="cls-5" d="M392.61,101.69c-.31.45-.75.38-1.2.3C391.64,101.21,392,101.08,392.61,101.69Z"/><path class="cls-13" d="M358,602.39c-.1-.16-.19-.32-.29-.47a56.26,56.26,0,0,1-.79-1.55,10.42,10.42,0,0,0-.83-2.37,34.41,34.41,0,0,1-2.22-12.17c-.24-28.65-.08-57.29-.14-85.94q-.09-39.18-.12-78.36c0-22.17,0-44.34-.1-66.5-.23-42.72-.19-85.43-.24-128.14,0-1.17,0-2.33,0-3.5l.81,0,0,0a5.09,5.09,0,0,0,1.92,2.7l0,0a1.75,1.75,0,0,0,1.05,1.52,4.63,4.63,0,0,1,1.82,2.35c.43-1.28,1.15-1.78,2.27-1.62a.66.66,0,0,0,.63-.37c5.07.07,10.13.12,15.2,0,.71,0,1.42.1,2.13.1,4.93,0,9.86,0,14.78,0q25.2,0,50.38,0c2.84,0,5.7.29,8.53-.27a2.67,2.67,0,0,1,1.15.11,6.75,6.75,0,0,0,3.09.13,34.68,34.68,0,0,1,6.19-.26c6.75,0,13.49,0,20.23-.06,56.92-.22,113.84.12,170.76-.25,58.74-.38,117.49-.1,176.23-.1q33.16,0,66.33,0c.65,0,1.3,0,1.95,0,1.52-.11,3.75-3.41,3.28-4.84-.08-.23-.3-.42-.4-.66a4.48,4.48,0,0,1-.2-.74,20,20,0,0,1,4.7.08l0,68.84c0,4.54,0,9.08,0,13.61.54,44.53.16,89.06.27,133.58.06,25.48-.13,51,.14,76.43.25,23.27.05,46.53.17,69.8a30.93,30.93,0,0,1-1,8.45c-.43,0-.66-.3-1-.53a1.53,1.53,0,0,0-2.55.82c-.5,1.86-1.72,3.34-2.51,5.05a23.22,23.22,0,0,1-2.12,2.72,30.6,30.6,0,0,1-6.34,7.25c-3.4,2.59-6.82,5.24-11.19,6.18-1.5.32-2.82,1.27-4.37,1.55a54,54,0,0,1-8.8,1.13c-60.15.8-120.3-.08-180.45.46-26.12.23-52.23.12-78.34.24s-52.26,0-78.39,0h-100c-9.83.83-19.68.34-29.51.29a64.29,64.29,0,0,1-10.77-.87c-2.29-.39-4.45-1.23-6.78-1.47a10.7,10.7,0,0,1-3.51-1.52,46.46,46.46,0,0,1-5.6-3.05,56.56,56.56,0,0,1-6.65-4.89c-1.49-1.41-3-2.78-4.41-4.29a2.37,2.37,0,0,0-.57-.53c-.79-.43-1.75-.94-2.52-.58s0,1.27,0,1.93.42,1.5-.69,1.7Zm27.59-217.5a.77.77,0,0,0-.26.8c-.37,1.57-.81,3.11-1.1,4.69a55.42,55.42,0,0,0-1.21,9.33l-.07,1.53a7.22,7.22,0,0,0-.12,2.32,3,3,0,0,0-.22,1.51,91.57,91.57,0,0,0,2,21.53,44.44,44.44,0,0,0,2.57,8.88,7.43,7.43,0,0,0,.23.93,82.34,82.34,0,0,0,12.1,22.88,47.89,47.89,0,0,0,6.3,7.34,78.13,78.13,0,0,0,15.5,13.12,30.31,30.31,0,0,0,5.51,3.2,70.64,70.64,0,0,0,13.7,6.27,61.64,61.64,0,0,0,11.56,3.17,1.5,1.5,0,0,0,1.2.25,1.75,1.75,0,0,0,1.18.27,71.2,71.2,0,0,0,10.18,1.4c12.67,1,25.14,0,37.24-4,26.84-8.79,45.81-26.09,56.27-52.47a11,11,0,0,0,1-3.13,24,24,0,0,0,1.7-5.33,70.34,70.34,0,0,0,2.57-17.24,3.25,3.25,0,0,0,.25-1.51,86.68,86.68,0,0,0-2-22.6c-.09-.58-.14-1.16-.28-1.72A84,84,0,0,0,548.88,358a58,58,0,0,0-7.56-9.35,1,1,0,0,0-.87-.77,16,16,0,0,0-2.69-2.7c-.55-.67-1-1.5-1.94-1.66a1.4,1.4,0,0,0-.74-.7,7.24,7.24,0,0,0-.62-.73,83.64,83.64,0,0,0-8.38-6.49c-1.4-1-2.59-2.33-4.29-2.89a.81.81,0,0,0-.75-.42h0a2.35,2.35,0,0,0-1.07-.8,89.66,89.66,0,0,0-11.21-5.31,57.7,57.7,0,0,0-10-3.17,6,6,0,0,0-.87-.38,102.16,102.16,0,0,0-30-2.84,94.69,94.69,0,0,0-28.58,5.91,87.79,87.79,0,0,0-31.63,20.33A84.39,84.39,0,0,0,389.52,373a60.23,60.23,0,0,0-3.8,11.19Zm289.14-15.72.76-.24c.45,0,.95.15,1.27-.36l1-.11c1.94-.41,3.88-.81,5.82-1.24s3.75-.87,5.62-1.31c.62-.14,1.18-.17,1.22.7a9.33,9.33,0,0,0,0,2.69c0,.45-.09.9-.09,1.35q0,28.38,0,56.76l0,62.2c0,1.88,0,1.88,1.92,1.77a9,9,0,0,0,2.69,0c.45,0,.9.08,1.35.08h37c.45,0,.9-.06,1.35-.09,1.9.1,1.9.1,1.92-1.77V489q0-79.48,0-159c0-.77-.06-1.55-.09-2.32a2.08,2.08,0,0,0,0-1.16,2.12,2.12,0,0,0,0-1.17,2.21,2.21,0,0,0,0-1.17c.08-1.93.08-1.94-1.78-1.94H703.4a9.32,9.32,0,0,0-2.67.38q-16.25,4.9-32.5,9.76c-3.47,1.05-3.46,1.06-2.14,4.65a7.27,7.27,0,0,0,.32,1.9q2.9,11.63,5.78,23.26c.51,2.07,1,4.13,1.55,6.19C673.86,368.88,673.91,369.55,674.71,369.17Zm209.63,84.22c0-1.57,0-1.58-1.32-1.63-.71,0-1.42,0-2.14,0H799.54c-.38,0-.77,0-1.16.08a5,5,0,0,0-1.93,0l-.79,0c-1.06-.06-1.53-.45-1.51-1.67.08-5.29,0-10.58,0-15.87,0-2.32,0-4.64-.08-7,.16-2.32.16-2.32,2.5-2.33h74.16c.77,0,1.55-.05,2.32-.07,1.87.09,1.87.09,1.89-1.6v-1.16q0-11.43,0-22.85c0-2.06-.06-4.12-.09-6.19a5.85,5.85,0,0,0,0-2.32l0-.79c.1-1.86.1-1.86-1.63-1.89H799.9a5.39,5.39,0,0,0-1.92.14,1.46,1.46,0,0,0-1.19.06,5.3,5.3,0,0,0-2.31-.12c-.48-.56-.28-1.23-.28-1.85,0-3.55,0-7.09,0-10.64,0-3.28,0-6.56-.08-9.85,0-.19.06-.38.07-.57.07-2.54.07-2.54,2.62-2.54h82.53c.65,0,1.29-.05,1.94-.08a2,2,0,0,0,1.16,0c1.07.21.86-.48.76-1.09s.08-1,.08-1.54q0-14.5,0-29c0-.45,0-.9-.08-1.34a4.92,4.92,0,0,0,0-1.95,2.15,2.15,0,0,0,0-1.18v-1.16c.09-2.33.09-2.33-2.21-2.33q-65.06,0-130.1,0c-3.18,0-2.76-.39-2.76,2.82q0,81.78,0,163.55a7.92,7.92,0,0,0,.09,1.54c.08.39.45.39.79.27a1.38,1.38,0,0,0,1.19,0,.81.81,0,0,0,.77,0,1.37,1.37,0,0,0,1.17,0,2.73,2.73,0,0,0,1.85,0,5.47,5.47,0,0,0,1.93.14q59.39,0,118.78,0c2.59,0,5.18.09,7.76-.14,1.95.14,1.95.14,2-1.71v-.2q0-15.81,0-31.64c0-.64-.06-1.29-.09-1.94a2.12,2.12,0,0,0,0-1.17ZM685.09,486.83a7.07,7.07,0,0,0,0-2.34c0-.58.09-1.16.09-1.74q0-27.13,0-54.26c0-.78-.06-1.56-.09-2.33a3.38,3.38,0,0,0,0-1.55,4.53,4.53,0,0,0-.94-3.79q-20.37-29.16-40.69-58.37-12.54-18-25.16-35.91c-.11-.68-.71-1.07-1-1.64-.74-1.53-1.91-1.91-3.6-1.9-12.76.08-25.53,0-38.29.06-3.43,0-2.95-.47-2.95,3q0,81.63,0,163.27c0,.26,0,.52,0,.78.06,1.21.06,1.21,1.55,1.11a2.1,2.1,0,0,0,1.52,0,.78.78,0,0,0,.78,0,2.06,2.06,0,0,0,1.56,0,4.59,4.59,0,0,0,1.73.14q18.27,0,36.56,0c2.91,0,2.49.24,2.49-2.48q0-40.55,0-81.1c0-2.72,0-5.44.08-8.16l.15,0,.16,0,1.45,2,.74.88a9.48,9.48,0,0,0,1.7,2.28,4,4,0,0,0,.91,1.47l28.72,39.66,30.67,42.32c.54.75,1.11,1.49,1.67,2.24A9.64,9.64,0,0,0,685.09,486.83Z"/><path class="cls-14" d="M365.81,612.45l-.37-.39c-.08-.61-.62-.92-.88-1.41a3.21,3.21,0,0,0-1.08-2.59,4.11,4.11,0,0,1-1.5-2.59c1.17-.34,1.86.62,2.64,1.11,2.78,1.78,5.46,3.69,8.18,5.55a18.06,18.06,0,0,0,4,2c1.38.52,2.66,1.33,4,1.83,2.55.94,5.25,1.29,7.87,2,2.09.56,4.27,0,6.33.69a2,2,0,0,0,1.14-.13,8.44,8.44,0,0,1,3.84,0,5.66,5.66,0,0,0,1.14.19c2.07,0,4.15.32,6.17.29,2.64,0,5.29.4,7.87,0a84.57,84.57,0,0,1,12.22-.27c2.49,0,5,0,7.48,0s4.93,0,7.39,0a12.63,12.63,0,0,1,4.24.33,1.65,1.65,0,0,0,1,0c2.36-.67,4.77-.35,7.15-.35q115.15,0,230.31,0c20.53-.85,41.07-.24,61.61-.36s41-.16,61.47,0c7.24.08,14.49.29,21.73.31a25.16,25.16,0,0,0,3.86-.28,10.46,10.46,0,0,1,4.62.13,5.5,5.5,0,0,0,2.7.1,15.54,15.54,0,0,1,6.72,0,6.67,6.67,0,0,0,1.55.05h15.17a29.62,29.62,0,0,0,7-1c2.17-.52,4.44-.74,6.6-1.38a36.4,36.4,0,0,0,13.23-6.59,62.86,62.86,0,0,0,6.49-5.81,55.54,55.54,0,0,0,5.14-6.21,1.81,1.81,0,0,1,1.44-.88c-.27,2.21-1.64,3.94-2.59,5.85a3.38,3.38,0,0,0-.56,1.18A20.35,20.35,0,0,0,898,607.8a34,34,0,0,1-8.45,7.33,40,40,0,0,1-13.75,5.63,44.27,44.27,0,0,1-9,1.07c-36.64,0-73.27-.28-109.9.12-39.41.42-78.81.13-118.22.24s-79,0-118.46,0H391.6a38.6,38.6,0,0,1-14.67-3.16,27.27,27.27,0,0,1-4.68-2.34,1.63,1.63,0,0,0-1.09-.34,1.48,1.48,0,0,0-1.47-.8l-.45-.38-.71-.48a2.32,2.32,0,0,0-1.45-1.13l-.48-.4-.4-.38Z"/><path class="cls-7" d="M901.47,221.09a4.48,4.48,0,0,0,.2.74c.1.24.32.43.4.66.47,1.43-1.76,4.73-3.28,4.84-.65,0-1.3,0-1.95,0q-33.17,0-66.33,0c-58.74,0-117.49-.28-176.23.1-56.92.37-113.84,0-170.76.25-6.74,0-13.48,0-20.23.06a34.68,34.68,0,0,0-6.19.26,6.75,6.75,0,0,1-3.09-.13,2.67,2.67,0,0,0-1.15-.11c-2.83.56-5.69.27-8.53.27q-25.18.06-50.38,0c-4.92,0-9.85,0-14.78,0-.71,0-1.42-.07-2.13-.1.31-1,1.16-.64,1.81-.65,13.08-.24,26.16.11,39.25-.32,17.61-.57,35.23-.16,52.86-.36,35.79-.38,71.58,0,107.38-.14s71.55.29,107.33-.28c25.09-.4,50.19-.17,75.28,0s50.15-.25,75.24.27c20.41.41,40.85.09,61.27.09.33,0,.65,0,1,0a1.92,1.92,0,0,0,1.9-2.2c0-1.45-.51-2-2-2.07-.45,0-.9,0-1.36,0-11.07.23-22.15-.39-33.22.35-4.09.27-8.2.09-12.31.39s-8.14.17-12.21.33c-8.3.33-16.63.36-24.94.42-27.3.19-54.6,0-81.9.09s-54.56-.5-81.84.37H458.2a17.56,17.56,0,0,0-5.21.33,3.19,3.19,0,0,1-1.73-.07,7.1,7.1,0,0,0-2.5-.27c-6.19.15-12.38-.26-18.57,0-1.57.07-3.09-.29-4.63-.36-4.38-.2-8.78,0-13.18-.35-5.08-.45-10.2,0-15.32-.37-7-.5-14,.18-21-.41-2.14-.19-4.34,0-6.52-.06-3.11,0-6.23,0-9.34,0-.63,0-1.36.15-1.48-.81,42.2,0,84.4.27,126.6-.1,62.93-.54,125.87.17,188.8-.39,37.78-.33,75.56-.12,113.35-.23s75.45,0,113.18-.07Z"/><path class="cls-15" d="M358.76,221.86c.12,1,.85.81,1.48.81,3.11,0,6.23,0,9.34,0,2.18,0,4.38-.13,6.52.06,7,.59,14-.09,21,.41,5.12.36,10.24-.08,15.32.37,4.4.39,8.8.15,13.18.35,1.54.07,3.06.43,4.63.36,6.19-.26,12.38.15,18.57,0a7.1,7.1,0,0,1,2.5.27,3.19,3.19,0,0,0,1.73.07,17.56,17.56,0,0,1,5.21-.33H650.59c27.28-.87,54.56-.25,81.84-.37s54.6.1,81.9-.09c8.31-.06,16.64-.09,24.94-.42,4.07-.16,8.15,0,12.21-.33s8.22-.12,12.31-.39c11.07-.74,22.15-.12,33.22-.35.46,0,.91,0,1.36,0,1.45.08,2,.62,2,2.07a1.92,1.92,0,0,1-1.9,2.2c-.32,0-.64,0-1,0-20.42,0-40.86.32-61.27-.09-25.09-.52-50.16-.15-75.24-.27s-50.19-.35-75.28,0c-35.78.57-71.56.16-107.33.28s-71.59-.24-107.38.14c-17.63.2-35.25-.21-52.86.36-13.09.43-26.17.08-39.25.32-.65,0-1.5-.36-1.81.65-5.07.15-10.13.1-15.2,0-.1-.07-.21-.22-.31-.21a7.46,7.46,0,0,1-5.46-1.67l0,0c-.16-1.81-.49-2.28-1.92-2.7l0,0,0-1.47Z"/><path class="cls-5" d="M373.53,106.73l.77-.41a.69.69,0,0,0,.81-.74l2.31-.81.4.39a9.65,9.65,0,0,1-4.3,2.31C373.52,107.22,373.53,107,373.53,106.73Z"/><path class="cls-2" d="M373.53,106.73c0,.24,0,.49,0,.74-.25.47-.7.42-1.12.45l-.44-.06C372.07,106.91,372.71,106.69,373.53,106.73Z"/><path class="cls-2" d="M377.82,105.16l-.4-.39c.16-1,1-.69,1.57-.76l-.39.78A.79.79,0,0,1,377.82,105.16Z"/><path class="cls-4" d="M369.24,615.23l.45.38Z"/><path class="cls-2" d="M384.43,102.44c.16-.82.55-1,1.17-.37C385.32,102.52,384.86,102.45,384.43,102.44Z"/><path class="cls-2" d="M375.11,105.58a.69.69,0,0,1-.81.74A.72.72,0,0,1,375.11,105.58Z"/><path class="cls-16" d="M453.3,492.64a1.5,1.5,0,0,1-1.2-.25c0-.55-.26-.77-.79-.9-1.38-.34-2.73-.76-4.1-1.13a77.48,77.48,0,0,1-14.72-5.82A73.93,73.93,0,0,1,421,477.48a80.23,80.23,0,0,1-8.15-6.8c-1.28-1.29-2.55-2.57-3.84-3.84-.45-.45-.84-1-1.58-1,0-.13,0-.26,0-.39s-.07-.55-.22-.72a77.11,77.11,0,0,1-6.72-9.05c-.37-.58-.68-1.44-1.61-1.51h0c0-1.55-1.06-2.6-1.72-3.83a86.16,86.16,0,0,1-7.25-18.93c-.76-2.93-1.21-5.91-1.71-8.89a82.21,82.21,0,0,1-.91-8.81,62.66,62.66,0,0,1,.21-9.48,106.8,106.8,0,0,1,1.63-11.83,79.46,79.46,0,0,1,10-25.68,67.09,67.09,0,0,1,11-14.2c.43-.4.89-.79.87-1.45a1.36,1.36,0,0,1,.78-.78,1.85,1.85,0,0,0,1.32-.73c1.33-1.32,2.69-2.59,4.13-3.8a82.13,82.13,0,0,1,14.12-9.5,89,89,0,0,1,23-8.52,69.8,69.8,0,0,1,13.36-1.88c7-.16,14-.43,20.91.66a92.43,92.43,0,0,1,13.22,2.79,94,94,0,0,1,17.53,7.24A92.12,92.12,0,0,1,537.64,350c1.57,1.45,2.9,3.13,4.36,4.68a70.79,70.79,0,0,1,6.23,8.12,83.32,83.32,0,0,1,6.48,11.7,70.6,70.6,0,0,1,5.13,15,62.87,62.87,0,0,1,2,13.73c0,.56.09,1,.77,1.12v.78a1.18,1.18,0,0,0-.38,1.05c-.07,3.42,0,6.83-.32,10.26-.19,1.84-.29,3.74-.56,5.57A65.24,65.24,0,0,1,559,433c-.2.62-.52,1.22.15,1.76a11,11,0,0,1-1,3.13c-10.46,26.38-29.43,43.68-56.27,52.47-12.1,4-24.57,5-37.24,4a71.2,71.2,0,0,1-10.18-1.4c-.06-.4-.22-.77-.64-.86S453.34,492.31,453.3,492.64Zm35.78-127.93-2-.64a42.93,42.93,0,0,0-24.33-1.1c-14,3.48-23.36,12.31-28.85,25.47a61.4,61.4,0,0,0-2.81,9.69c-1,.25-1,1-1.1,1.82a7.12,7.12,0,0,1-.1,1.74c-.7,2.11-.53,4.3-.64,6.45a45,45,0,0,0,.68,9.95,52.79,52.79,0,0,0,3,11.18,48.4,48.4,0,0,0,15,19.7,35.31,35.31,0,0,0,7.63,4.88,42.12,42.12,0,0,0,10.06,3.32,45.87,45.87,0,0,0,5.53.83c4.32.14,8.67.26,12.93-.75a61.39,61.39,0,0,0,9.06-2.75,39.19,39.19,0,0,0,8.45-5,45.18,45.18,0,0,0,11.27-12.16,44.22,44.22,0,0,0,5.55-12.5,40.66,40.66,0,0,0,1.77-9.67c.07-4.32.36-8.67-.33-13a62.29,62.29,0,0,0-2.19-9.4,38.9,38.9,0,0,0-2.43-5.45,48.06,48.06,0,0,0-10.58-13.94,42.23,42.23,0,0,0-7.74-5.77,30.54,30.54,0,0,0-6.62-3.11C489.81,364.35,489.41,364.22,489.08,364.71Z"/><path class="cls-16" d="M873.08,424.9c-.77,0-1.55.07-2.32.07H796.6c-2.34,0-2.34,0-2.5,2.33A1.23,1.23,0,0,0,793,428.7c.1,1.83-.49,3.58-.45,5.4.13,6.14-.29,12.29.37,18.42a4.75,4.75,0,0,0,3.31,4.34,18.07,18.07,0,0,0,5.33.8h78.17c.52,0,1,0,1.56,0,1.22.08,1.44.3,1.51,1.52,0,.45,0,.91,0,1.36q0,13.51,0,27a12.43,12.43,0,0,1-.39,3.65c-2.58.23-5.17.14-7.76.14q-59.38,0-118.78,0a5.47,5.47,0,0,1-1.93-.14,5.13,5.13,0,0,1-1.12-3.57q0-77.61,0-155.22c0-3.19.35-3.54,3.58-3.54h122c2.79,0,3.24.45,3.24,3.28,0,4.92.07,9.85,0,14.78-.09,5.23.42,10.48-.37,15.7-.65,0-1.29.08-1.94.08H796.79c-2.55,0-2.55,0-2.62,2.54,0,.19,0,.38-.07.57-.33.06-.72.19-.7.55.09,1.51-.47,2.93-.46,4.42,0,5.39,0,10.77,0,16.15a7.44,7.44,0,0,0,.59,3.21,5.47,5.47,0,0,0,4,3.36c1.52.31,2.93-.09,4.39-.08q33.47,0,66.92,0a13.36,13.36,0,0,1,1.55,0c2.93.31,3.52,1,3.52,3.94,0,7.59,0,15.17,0,22.76A10.12,10.12,0,0,1,873.08,424.9Z"/><path class="cls-16" d="M620.45,401.6l-1.45-2-.16-.22-.15.22c0,2.72-.08,5.44-.08,8.16q0,40.55,0,81.1c0,2.72.42,2.48-2.49,2.48q-18.29,0-36.56,0a4.59,4.59,0,0,1-1.73-.14c-1-1.93-.8-4-.8-6.07V345.91c0-4.6,0-9.2,0-13.81,0-2.53.71-3.21,3.22-3.21,10.83,0,21.65,0,32.48,0a5.69,5.69,0,0,1,5.07,2.63q6.47,9.3,12.92,18.61c3.68,5.3,7.42,10.56,11.1,15.86,5.45,7.84,10.86,15.72,16.32,23.56,4.86,7,9.76,14,14.64,20.95,2.78,4,5.57,7.92,8.33,11.89a13,13,0,0,1,2.56,7.76c-.1,16.39,0,32.79,0,49.19,0,.58,0,1.17,0,1.75a1,1,0,0,1-.74,1c-.52.15-.84-.16-1.12-.56-.77-1.11-1.53-2.23-2.33-3.32-4-5.53-8.08-11-12.09-16.57-4.16-5.75-8.26-11.54-12.43-17.28-5-6.95-10.12-13.85-15.16-20.79q-7.34-10.11-14.62-20.24A6.54,6.54,0,0,0,622,401C621.36,400.76,620.76,400.81,620.45,401.6Z"/><path class="cls-16" d="M690.36,366.61c0-.87-.6-.84-1.22-.7-1.87.44-3.74.89-5.62,1.31s-3.88.83-5.82,1.24a4.4,4.4,0,0,0,0-1.15c-1.52-4.74-2.32-9.65-3.63-14.45-1.11-4.1-2.08-8.25-3.1-12.39-.4-1.63-.09-2.14,1.56-2.74.3-.11.6-.22.91-.31q12.6-3.82,25.21-7.65a39.1,39.1,0,0,1,12.41-1.7c6.8.14,13.61,0,20.42,0,.45,0,.91,0,1.36,0A2.22,2.22,0,0,1,735,330.2c0,.58,0,1.17,0,1.75q0,75,0,150c0,3.16.25,6.34-.39,9.47-.45,0-.9.09-1.35.09h-37c-.45,0-.9-.05-1.35-.08a14.59,14.59,0,0,1-.41-4.61V374.06a17.16,17.16,0,0,0-.35-4A3.84,3.84,0,0,0,690.36,366.61Z"/><path class="cls-11" d="M618.27,326.54q12.59,18,25.16,35.91,20.36,29.18,40.69,58.37a4.53,4.53,0,0,1,.94,3.79c-.91-.36-1.21-1.24-1.63-2-.32-.57-.58-1.15-1.35-1.16,0-.12,0-.25,0-.37a1.4,1.4,0,0,0-.11-.56c-1.69-2.51-3.4-5-5.11-7.5a1.23,1.23,0,0,0-1-.52c0-.12,0-.24,0-.37a1.64,1.64,0,0,0-.12-.56c-1.69-2.51-3.4-5-5.1-7.5a1.22,1.22,0,0,0-1-.51c0-.13,0-.25,0-.38-.64-1.38-1.15-2.85-2.72-3.51,0-.13,0-.25,0-.38a1.44,1.44,0,0,0-.12-.56c-1.69-2.51-3.4-5-5.1-7.5a1.22,1.22,0,0,0-1-.51c0-.13,0-.25,0-.38a1.64,1.64,0,0,0-.12-.56c-1.69-2.5-3.4-5-5.1-7.5a1.23,1.23,0,0,0-1-.51c0-.13,0-.25,0-.37-.63-1.38-1.15-2.86-2.71-3.52,0-.13,0-.25,0-.37a1.7,1.7,0,0,0-.12-.57c-1.69-2.5-3.4-5-5.1-7.49a1.24,1.24,0,0,0-1-.52,2.29,2.29,0,0,0,0-.37c-.63-1.38-1.15-2.86-2.71-3.52,0-.12,0-.25,0-.37a2,2,0,0,0-.56-1.21c-2.49-3.61-4.94-7.25-7.45-10.85-5.18-7.41-10.44-14.76-15.54-22.22a7.41,7.41,0,0,0-6.67-3.48c-10.89,0-21.78,0-32.68,0-3.67,0-4.42.74-4.42,4.4q0,78.59,0,157.16c0,.91,0,1.82,0,2.73a2.1,2.1,0,0,1-1.52,0c0-.77-.07-1.55-.07-2.33V331.23a9.63,9.63,0,0,1,.33-2.87,3.24,3.24,0,0,1,3.15-2.6c.59,0,1.17,0,1.75,0,11,0,22,0,33.06,0A16.09,16.09,0,0,1,618.27,326.54Z"/><path class="cls-8" d="M666.89,399.3c0,.13,0,.25,0,.38.5,1.48,1,3,2.72,3.51,0,.13,0,.25,0,.38a2.05,2.05,0,0,0,.43,1.27q2.22,3.29,4.49,6.55a1.5,1.5,0,0,0,1.29.75c0,.13,0,.25,0,.37a1.78,1.78,0,0,0,.35,1.1q2.47,3.57,5,7.12a1,1,0,0,0,.86.36c0,.12,0,.25,0,.37.25,1.76,1.87,2.84,2.25,4.54,0,.1.47.11.72.16,0,.77.09,1.55.09,2.33q0,27.12,0,54.26c0,.58-.06,1.16-.09,1.74a2.88,2.88,0,0,1-3.41-.76h0a2,2,0,0,0-.43-1.44c-3.54-4.44-6.71-9.15-10.05-13.74-2.08-2.87-4.1-5.79-6.22-8.63-3.12-4.18-6.09-8.48-9.25-12.63-2.77-3.65-5.47-7.35-8.06-11.12-2.71-3.93-5.67-7.67-8.37-11.61-2.26-3.29-4.65-6.49-7-9.74s-4.88-6.81-7.43-10.13a5,5,0,0,0-3.68-2.22l-.74-.88c.31-.79.91-.84,1.59-.58a6.54,6.54,0,0,1,3.07,2.29q7.3,10.13,14.62,20.24c5,6.94,10.13,13.84,15.16,20.79,4.17,5.74,8.27,11.53,12.43,17.28,4,5.53,8.07,11,12.09,16.57.8,1.09,1.56,2.21,2.33,3.32.28.4.6.71,1.12.56a1,1,0,0,0,.74-1c0-.58,0-1.17,0-1.75,0-16.4,0-32.8,0-49.19a13,13,0,0,0-2.56-7.76c-2.76-4-5.55-7.93-8.33-11.89-4.88-7-9.78-13.95-14.64-20.95-5.46-7.84-10.87-15.72-16.32-23.56-3.68-5.3-7.42-10.56-11.1-15.86q-6.48-9.3-12.92-18.61a5.69,5.69,0,0,0-5.07-2.63c-10.83.07-21.65,0-32.48,0-2.51,0-3.22.68-3.22,3.21,0,4.61,0,9.21,0,13.81V485.14c0,2.05-.22,4.14.8,6.07a2.06,2.06,0,0,1-1.56,0c0-.45,0-.91,0-1.36V331.37c0-.33,0-.65,0-1a2.23,2.23,0,0,1,2.35-2.28c.9,0,1.81,0,2.72,0,10.89,0,21.78,0,32.66,0a4.14,4.14,0,0,1,3.6,1.51c.64.81,1.2,1.68,1.79,2.53l14.41,20.64c2.59,3.7,5.2,7.38,7.78,11.09.32.46.62.82,1.21.83,0,.12,0,.25,0,.37.5,1.49,1,3,2.71,3.52a2.29,2.29,0,0,1,0,.37,1.85,1.85,0,0,0,.35,1.1q2.49,3.57,5,7.12a1.1,1.1,0,0,0,.87.36c0,.12,0,.24,0,.37.5,1.48,1,3,2.71,3.52,0,.12,0,.24,0,.37a1.8,1.8,0,0,0,.35,1.09q2.49,3.58,5,7.13a1.07,1.07,0,0,0,.87.35c0,.13,0,.25,0,.38a1.71,1.71,0,0,0,.35,1.09q2.47,3.57,5,7.13A1.07,1.07,0,0,0,666.89,399.3Z"/><path class="cls-11" d="M541.32,348.69a58,58,0,0,1,7.56,9.35,84,84,0,0,1,12.5,28.28c.14.56.19,1.14.28,1.72-.57-.12-.6-.62-.7-1a104,104,0,0,0-4.11-11.83c-.25-.65-.3-1.44-1.21-1.56h0a4.06,4.06,0,0,0-.63-2.39c-1-1.87-2-3.78-3-5.61-.53-.91-.57-2-1.15-2.85a89.41,89.41,0,0,0-9.93-12.59,79.91,79.91,0,0,0-9.86-8.7,83.57,83.57,0,0,0-16.22-9.67A121.65,121.65,0,0,0,502,326.94a75.47,75.47,0,0,0-9.75-2.23,84.7,84.7,0,0,0-11.69-1.22,159.07,159.07,0,0,0-17.05.36,5.58,5.58,0,0,0-.57.08c-2.09.36-4.18.69-6.27,1.07-3.35.61-6.78.94-9.73,2.92a4.8,4.8,0,0,1-1.27.46,102.64,102.64,0,0,0-12.74,5.06,1,1,0,0,0-.64.88c-.28.44-.74.37-1.16.39-1.17.44-2.53.58-3.13,1.94h-.37c-2,.6-3.52,2-5.22,3.17-.16.11-.17.46-.25.7l-1.14.41a1.65,1.65,0,0,0-1.58,1.54h-.37a1.13,1.13,0,0,0-1.19,1.16h-.37c-1.16.19-1.71,1.11-2.33,1.95l-.39.38a1.63,1.63,0,0,0-1.17.59l-6.81,6.81a1.62,1.62,0,0,0-.58,1.17c0,.12,0,.24,0,.37-1.47.67-3.41,3-4.27,5.07a2.32,2.32,0,0,0,0,.37c-1.78.9-2.43,2.61-3.11,4.3h0a2.39,2.39,0,0,0-1.16,1.94h0a3.37,3.37,0,0,0-1.56,2.72c0,.12,0,.25,0,.37a1.07,1.07,0,0,0-.88.66,85.26,85.26,0,0,0-4.44,9.85A89.57,89.57,0,0,0,387.63,391a86.52,86.52,0,0,0-1.72,26.52,104.57,104.57,0,0,0,2,13,81.07,81.07,0,0,0,6.38,17.75c.32.66.4,1.58,1.4,1.69a.76.76,0,0,1,.36.75c-.64.61,0,1.09.22,1.53a65.34,65.34,0,0,0,8.57,12.48c.5.59,1.11,1.08,1,2a47.89,47.89,0,0,1-6.3-7.34,82.34,82.34,0,0,1-12.1-22.88,7.43,7.43,0,0,1-.23-.93.73.73,0,0,0,.26-.86,68.9,68.9,0,0,1-2-8.83,75.56,75.56,0,0,1-1.3-11.49,89.88,89.88,0,0,1,.65-15.46,91.36,91.36,0,0,1,3.43-15.63,105.4,105.4,0,0,1,4.4-10.94,77.14,77.14,0,0,1,6.53-11.42,54.67,54.67,0,0,1,7.29-9,1.51,1.51,0,0,0,.58-1.18c0-.12,0-.24,0-.37a8.12,8.12,0,0,0,3.9-3.88c.9.11,1.4-.5,2-1a51,51,0,0,1,3.93-3.45,118.08,118.08,0,0,1,11.4-7.65,89.21,89.21,0,0,1,15.37-6.88,90.56,90.56,0,0,1,16.91-4c4-.57,7.94-.84,11.92-1a87.61,87.61,0,0,1,14.11.69,107.29,107.29,0,0,1,10.85,1.84,90.15,90.15,0,0,1,15.27,5,71.32,71.32,0,0,1,10.05,5,80.39,80.39,0,0,1,10.93,7.67,1.75,1.75,0,0,0,1.45.38,1.4,1.4,0,0,1,.74.7c0,1.25.79,1.69,1.94,1.66a16,16,0,0,1,2.69,2.7A.7.7,0,0,0,541.32,348.69Z"/><path class="cls-2" d="M749,491.24c-.34.12-.71.12-.79-.27a7.92,7.92,0,0,1-.09-1.54q0-81.78,0-163.55c0-3.21-.42-2.82,2.76-2.82q65,0,130.1,0c2.3,0,2.3,0,2.21,2.33-1.15-.08-2.26-.41-3.45-.41q-62.52,0-125,0a12.64,12.64,0,0,0-2.12.13,3.92,3.92,0,0,0-3.51,3.55A14,14,0,0,0,749,331q0,65.14,0,130.29Q749,476.28,749,491.24Z"/><path class="cls-2" d="M618.27,326.54a16.09,16.09,0,0,0-6.09-.8c-11,0-22,0-33.06,0-.58,0-1.16,0-1.75,0a3.24,3.24,0,0,0-3.15,2.6,9.63,9.63,0,0,0-.33,2.87V488.91c0,.78.05,1.56.07,2.33-1.49.1-1.49.1-1.55-1.11,0-.26,0-.52,0-.78q0-81.63,0-163.27c0-3.49-.48-3,2.95-3,12.76,0,25.53,0,38.29-.06,1.69,0,2.86.37,3.6,1.9C617.56,325.47,618.16,325.86,618.27,326.54Z"/><path class="cls-8" d="M734.58,491.38c.64-3.13.39-6.31.39-9.47q0-75,0-150c0-.58,0-1.17,0-1.75a2.22,2.22,0,0,0-2.14-2.08c-.45,0-.91,0-1.36,0-6.81,0-13.62.1-20.42,0a39.1,39.1,0,0,0-12.41,1.7q-12.6,3.84-25.21,7.65c-.31.09-.61.2-.91.31-1.65.6-2,1.11-1.56,2.74,1,4.14,2,8.29,3.1,12.39,1.31,4.8,2.11,9.71,3.63,14.45a4.4,4.4,0,0,1,0,1.15l-1,.11c-.28-.93-.6-1.84-.84-2.78-2-8-4-15.9-6-23.83a12.69,12.69,0,0,1-.27-2.11c-.17-1.79.22-2.78,2.57-3.46,1.8-.52,3.6-1,5.4-1.55,7.23-2.18,14.47-4.33,21.68-6.59a30.11,30.11,0,0,1,9.52-1.33c7.2.08,14.4,0,21.59,0,1.79,0,3.62-.3,5.27.74.19.12.51,0,.77,0,0,.77.09,1.55.09,2.32q0,79.49,0,159v.58C736.48,491.48,736.48,491.48,734.58,491.38Z"/><path class="cls-8" d="M881.26,362.65c.79-5.22.28-10.47.37-15.7.09-4.93,0-9.86,0-14.78,0-2.83-.45-3.28-3.24-3.28h-122c-3.23,0-3.58.35-3.58,3.54q0,77.61,0,155.22a5.13,5.13,0,0,0,1.12,3.57,2.73,2.73,0,0,1-1.85,0c0-1.36-.44-2.65-.44-4q0-77.81,0-155.61c0-.46,0-.91,0-1.36a2.22,2.22,0,0,1,2.14-2.09c.58-.05,1.17,0,1.75,0H878.35c1.74,0,3.5-.17,4.66,1.53,0,0,.12,0,.19,0,0,.44.08.89.08,1.34q0,14.5,0,29c0,.51,0,1-.08,1.54-.72,0-.77.54-.76,1.09A2,2,0,0,1,881.26,362.65Z"/><path class="cls-9" d="M882.44,491.22a12.43,12.43,0,0,0,.39-3.65q0-13.51,0-27c0-.45,0-.91,0-1.36-.07-1.22-.29-1.44-1.51-1.52-.52,0-1,0-1.56,0H801.57a18.07,18.07,0,0,1-5.33-.8,4.75,4.75,0,0,1-3.31-4.34c-.66-6.13-.24-12.28-.37-18.42,0-1.82.55-3.57.45-5.4a1.23,1.23,0,0,1,1.09-1.39c0,2.32.08,4.64.08,7,0,5.29.05,10.58,0,15.87,0,1.22.45,1.61,1.51,1.67.35,2.14,1,2.86,3.05,3.11a17.9,17.9,0,0,0,1.94,0q39.08,0,78.16,0a14.55,14.55,0,0,1,5.52.81c0,.64.09,1.29.09,1.93q0,15.82,0,31.64v.2C884.39,491.36,884.39,491.36,882.44,491.22Z"/><path class="cls-11" d="M751,491.22a.81.81,0,0,1-.77,0,13.54,13.54,0,0,1-.44-2.85q0-78.56,0-157.12a9.62,9.62,0,0,1,.38-2.67,3.18,3.18,0,0,1,2.88-2.45c.51,0,1,0,1.55,0H880a9.87,9.87,0,0,1,3.25.4,2.15,2.15,0,0,1,0,1.18c-2.77-1.2-5.7-.77-8.57-.77q-59.58,0-119.17,0a17,17,0,0,0-1.75,0,3.1,3.1,0,0,0-2.8,3.11c0,.46,0,.91,0,1.36V488.5C750.92,489.41,750.94,490.31,751,491.22Z"/><path class="cls-9" d="M690.36,366.61a3.84,3.84,0,0,1,3.8,3.41,17.16,17.16,0,0,1,.35,4V486.78a14.59,14.59,0,0,0,.41,4.61,9,9,0,0,1-2.69,0c0-1.29,0-2.59,0-3.89v-113c0-.84,0-1.69,0-2.53a2.63,2.63,0,0,0-1.81-2.69A9.33,9.33,0,0,1,690.36,366.61Z"/><path class="cls-12" d="M883.22,326.54a9.87,9.87,0,0,0-3.25-.4H754.55c-.52,0-1,0-1.55,0a3.18,3.18,0,0,0-2.88,2.45,9.62,9.62,0,0,0-.38,2.67q0,78.56,0,157.12a13.54,13.54,0,0,0,.44,2.85,1.38,1.38,0,0,1-1.19,0q0-15,0-29.95,0-65.15,0-130.29a14,14,0,0,1,.11-2.33,3.92,3.92,0,0,1,3.51-3.55,12.64,12.64,0,0,1,2.12-.13q62.53,0,125,0c1.19,0,2.3.33,3.45.41Z"/><path class="cls-9" d="M751,491.22c0-.91,0-1.81,0-2.72V331.42c0-.45,0-.9,0-1.36a3.1,3.1,0,0,1,2.8-3.11,17,17,0,0,1,1.75,0q59.6,0,119.17,0c2.87,0,5.8-.43,8.57.77a4.92,4.92,0,0,1,0,1.95c-.07,0-.17,0-.19,0-1.16-1.7-2.92-1.53-4.66-1.53H755.61c-.58,0-1.17,0-1.75,0a2.22,2.22,0,0,0-2.14,2.09c0,.45,0,.9,0,1.36q0,77.81,0,155.61c0,1.38.48,2.67.44,4A1.37,1.37,0,0,1,751,491.22Z"/><path class="cls-12" d="M690.36,369.3a2.63,2.63,0,0,1,1.81,2.69c.05.84,0,1.69,0,2.53v113c0,1.3,0,2.6,0,3.89-1.91.11-1.92.11-1.92-1.77l0-62.2q0-28.38,0-56.76C690.27,370.2,690.33,369.75,690.36,369.3Z"/><path class="cls-9" d="M642.77,364.68c-.59,0-.89-.37-1.21-.83-2.58-3.71-5.19-7.39-7.78-11.09l-14.41-20.64c-.59-.85-1.15-1.72-1.79-2.53a4.14,4.14,0,0,0-3.6-1.51c-10.88.05-21.77,0-32.66,0-.91,0-1.82,0-2.72,0a2.23,2.23,0,0,0-2.35,2.28c0,.33,0,.65,0,1V489.84c0,.45,0,.91,0,1.36a.78.78,0,0,1-.78,0c0-.91,0-1.82,0-2.73q0-78.57,0-157.16c0-3.66.75-4.4,4.42-4.4,10.9,0,21.79,0,32.68,0a7.41,7.41,0,0,1,6.67,3.48c5.1,7.46,10.36,14.81,15.54,22.22,2.51,3.6,5,7.24,7.45,10.85A2,2,0,0,1,642.77,364.68Z"/><path class="cls-5" d="M385.72,384.14a60.23,60.23,0,0,1,3.8-11.19,84.39,84.39,0,0,1,18.18-26.87,87.79,87.79,0,0,1,31.63-20.33,94.69,94.69,0,0,1,28.58-5.91,102.16,102.16,0,0,1,30,2.84,6,6,0,0,1,.87.38c-.27.38-.63.35-1,.24a25.05,25.05,0,0,0-3-.67c-3-.43-6.07-1-9.12-1.42-1.3-.17-2.68-.48-3.95.26h-1.15c-.17-.94-.92-.77-1.53-.75-3.74.14-7.48,0-11.23.27a103.75,103.75,0,0,0-11.3,1.38,92,92,0,0,0-18.35,5.39c-.53.22-1.13.37-1.2,1.1l-1.14,0c-1.19.41-2.52.58-3.14,1.92a6.39,6.39,0,0,0-1.93.79c-.85,0-1.71.08-2,1.16-.43,0-.88,0-1.16.4a.72.72,0,0,0-.79.76,6.41,6.41,0,0,0-1.93.8,1.12,1.12,0,0,0-1.19,1.14l-1.15.41a.72.72,0,0,0-.79.77h-.38a.72.72,0,0,0-.79.76l-.37,0a.72.72,0,0,0-.79.77,1.2,1.2,0,0,1-1.16.78.73.73,0,0,0-.79.77h0c-.83,0-1.48.18-1.55,1.17l-.39.39a1.7,1.7,0,0,0-1.95,1.55c-.38.27-.77.53-1.16.79a3.15,3.15,0,0,0-2.34,2.33L407,349.49a3.14,3.14,0,0,0-2.33,2.34c-.23.41-.35.9-.78,1.16a1.65,1.65,0,0,0-1.55,1.57,1.19,1.19,0,0,1-.79,1.16.72.72,0,0,0-.77.78l-.39.77a.72.72,0,0,0-.77.79c0,.12,0,.25,0,.38a.71.71,0,0,0-.76.78,1.48,1.48,0,0,1-.63,1.11,3.34,3.34,0,0,0-1.33,2,.72.72,0,0,0-.76.79,8.66,8.66,0,0,0-1.57,3.1c-.92.13-1,.86-1.16,1.57l0,.76a.72.72,0,0,0-.76.79c0,.13,0,.26,0,.39a1.17,1.17,0,0,0-.76,1.17,4.82,4.82,0,0,0-.8,2.32.72.72,0,0,0-.76.79v.77c-.57,0-.69.44-.86.89-.85,2.34-1.74,4.67-2.61,7C386.57,383.27,386.5,384,385.72,384.14Z"/><path class="cls-9" d="M873.08,424.9a10.12,10.12,0,0,0,.81-4.71c0-7.59,0-15.17,0-22.76,0-3-.59-3.63-3.52-3.94a13.36,13.36,0,0,0-1.55,0q-33.46,0-66.92,0c-1.46,0-2.87.39-4.39.08a5.47,5.47,0,0,1-4-3.36,7.44,7.44,0,0,1-.59-3.21c0-5.38,0-10.76,0-16.15,0-1.49.55-2.91.46-4.42,0-.36.37-.49.7-.55,0,3.29.07,6.57.08,9.85,0,3.55,0,7.09,0,10.64,0,.62-.2,1.29.28,1.85.22,2.4,1.45,3.84,5,4.1.51,0,1,0,1.55,0h66.64c2.44,0,4.91-.25,7.23.81,0,2.07.08,4.13.09,6.19q0,11.43,0,22.85v1.16C875,425,875,425,873.08,424.9Z"/><path class="cls-11" d="M874.88,393.1c-2.32-1.06-4.79-.81-7.23-.81H801c-.52,0-1,0-1.55,0-3.53-.26-4.76-1.7-5-4.1a5.3,5.3,0,0,1,2.31.12c.2,1.43,1.25,1.86,2.46,2.05a11.58,11.58,0,0,0,1.56,0c19.64,0,39.29,0,58.93,0,5,0,10.1-.38,15.12.39A5.85,5.85,0,0,1,874.88,393.1Z"/><path class="cls-2" d="M666.09,337.07c-1.32-3.59-1.33-3.6,2.14-4.65q16.26-4.87,32.5-9.76a9.32,9.32,0,0,1,2.67-.38h31.25c1.86,0,1.86,0,1.79,1.94l-31.64,0a6.91,6.91,0,0,0-1.91.25c-2.23.62-4.46,1.22-6.68,1.89s-4.17,1.29-6.28,1.82c-2.3.57-4.52,1.44-6.8,2.1-3.76,1.09-7.47,2.39-11.32,3.16A8.65,8.65,0,0,0,666.09,337.07Z"/><path class="cls-5" d="M798,388.24a5.39,5.39,0,0,1,1.92-.14h73.36c1.73,0,1.73,0,1.63,1.89a15.3,15.3,0,0,0-4.21-.43q-34.39,0-68.78,0c-.59,0-1.17,0-1.75,0A2.17,2.17,0,0,1,798,388.24Z"/><path class="cls-12" d="M435.8,328.89l1.14,0a11.27,11.27,0,0,0,2.39-.76c2.41-.9,4.79-1.89,7.26-2.6a92.84,92.84,0,0,1,13.55-2.92,101.94,101.94,0,0,1,13.63-1.09c2.26,0,4.52,0,6.78,0h1.15a.87.87,0,0,0,.64.38,38.65,38.65,0,0,1,4.8.38c2.54.34,5.07.68,7.59,1.16A86.51,86.51,0,0,1,507.91,327a58.52,58.52,0,0,1,9.51,4.15,6.68,6.68,0,0,0,3.63,1.18h0c0,.51.06,1.05.75.42,1.7.56,2.89,1.88,4.29,2.89a83.64,83.64,0,0,1,8.38,6.49,7.24,7.24,0,0,1,.62.73,1.75,1.75,0,0,1-1.45-.38,80.39,80.39,0,0,0-10.93-7.67,71.32,71.32,0,0,0-10.05-5,90.15,90.15,0,0,0-15.27-5A107.29,107.29,0,0,0,486.53,323a87.61,87.61,0,0,0-14.11-.69c-4,.2-8,.47-11.92,1a90.56,90.56,0,0,0-16.91,4,89.21,89.21,0,0,0-15.37,6.88,118.08,118.08,0,0,0-11.4,7.65,51,51,0,0,0-3.93,3.45c-.58.53-1.08,1.14-2,1l0,0c.35-.89,1.54-1.22,1.55-2.34.39-.26.78-.52,1.16-.79,1-.08,1.49-.8,1.95-1.55l.39-.39a1.72,1.72,0,0,0,1.55-1.17h0a.69.69,0,0,0,.79-.77,1.2,1.2,0,0,0,1.16-.78.7.7,0,0,0,.79-.77h.38a.69.69,0,0,0,.78-.77h.38a.69.69,0,0,0,.79-.77l1.15-.41a1.06,1.06,0,0,0,1.19-1.14,6.41,6.41,0,0,1,1.93-.8.68.68,0,0,0,.79-.76c.28-.44.73-.38,1.16-.4a2.3,2.3,0,0,0,2-1.16,6.39,6.39,0,0,1,1.93-.79c.92,0,1.61-.68,2.47-.88C435.61,329.82,435.77,329.36,435.8,328.89Z"/><path class="cls-9" d="M736.41,327.73c-.26,0-.58.08-.77,0-1.65-1-3.48-.74-5.27-.74-7.19,0-14.39.05-21.59,0a30.11,30.11,0,0,0-9.52,1.33c-7.21,2.26-14.45,4.41-21.68,6.59-1.8.54-3.6,1-5.4,1.55-2.35.68-2.74,1.67-2.57,3.46a12.69,12.69,0,0,0,.27,2.11c2,7.93,4,15.88,6,23.83.24.94.56,1.85.84,2.78-.32.51-.82.35-1.27.36a2.74,2.74,0,0,0,0-.58L670.87,350c-.75-3-1.56-6-2.2-9-.55-2.55-.63-4.16,2.64-5.28,3.66-1.25,7.32-2.46,11-3.51,5.71-1.62,11.38-3.36,17.07-5a26.31,26.31,0,0,1,7.6-1.33c8.3.06,16.6,0,24.89,0a9.83,9.83,0,0,1,4.52.81A2.08,2.08,0,0,1,736.41,327.73Z"/><path class="cls-11" d="M685.09,486.83a9.64,9.64,0,0,1-.23,3.62c-.56-.75-1.13-1.49-1.67-2.24l-30.67-42.32L623.8,406.23a4,4,0,0,1-.91-1.47c1.06,0,1.59.86,2.11,1.56,3.63,4.93,7.21,9.89,10.8,14.85,4.11,5.7,8.19,11.42,12.32,17.1,5,6.94,10.13,13.84,15.16,20.78q8.63,11.9,17.18,23.85c.32.45.62.82,1.2.84h0A3.57,3.57,0,0,0,685.09,486.83Z"/><path class="cls-12" d="M796.45,451.79a5,5,0,0,1,1.93,0c.12.91.84,1.08,1.55,1.16a14.6,14.6,0,0,0,1.75,0h79.61a8.69,8.69,0,0,1,3.05.4v1.17a8.71,8.71,0,0,0-3.25-.4H801.76a8.5,8.5,0,0,1-1.75,0C798.54,453.81,796.8,453.83,796.45,451.79Z"/><path class="cls-2" d="M884.34,453.39a8.69,8.69,0,0,0-3.05-.4H801.68a14.6,14.6,0,0,1-1.75,0c-.71-.08-1.43-.25-1.55-1.16.39,0,.78-.08,1.16-.08h81.34c.72,0,1.43,0,2.14,0C884.32,451.81,884.32,451.82,884.34,453.39Z"/><path class="cls-12" d="M666.09,337.07a8.65,8.65,0,0,1,5.72-3.64c3.85-.77,7.56-2.07,11.32-3.16,2.28-.66,4.5-1.53,6.8-2.1,2.11-.53,4.2-1.19,6.28-1.82s4.45-1.27,6.68-1.89a6.91,6.91,0,0,1,1.91-.25l31.64,0a2.32,2.32,0,0,1,0,1.17c-1.17,0-2.26-.44-3.45-.43-8.93,0-17.87,0-26.8,0-.58,0-1.16.07-1.74.12-3.24.27-6.22,1.59-9.33,2.37s-6.37,2-9.57,3c-1.55.45-3,1.1-4.61,1.39-2.24.41-4.29,1.35-6.48,1.9a27,27,0,0,0-4.23,1.34c-1.2.53-2.41,1.13-2.53,2.64a11,11,0,0,0,.09,3.29c1.64,6.69,3.4,13.36,5.07,20.05a54.48,54.48,0,0,1,1.85,8.09c-.8.38-.85-.29-1-.75-.53-2.06-1-4.12-1.55-6.19q-2.9-11.62-5.78-23.26A7.27,7.27,0,0,1,666.09,337.07Z"/><path class="cls-12" d="M392.59,369.73c0-.13,0-.26,0-.39a.68.68,0,0,0,.76-.79l0-.76c.94-.12,1-.85,1.16-1.57a8.66,8.66,0,0,1,1.57-3.1.69.69,0,0,0,.76-.79,3.34,3.34,0,0,1,1.33-2,1.48,1.48,0,0,0,.63-1.11.68.68,0,0,0,.76-.78c0-.13,0-.26,0-.38a.7.7,0,0,0,.77-.79l.39-.77a.69.69,0,0,0,.77-.78,1.19,1.19,0,0,0,.79-1.16,1.59,1.59,0,0,0,1.55-1.57c.43-.26.55-.75.78-1.16,1,.08,1.33-1.22,2.33-1.17a1.51,1.51,0,0,1-.58,1.18,54.67,54.67,0,0,0-7.29,9,77.14,77.14,0,0,0-6.53,11.42,105.4,105.4,0,0,0-4.4,10.94,91.36,91.36,0,0,0-3.43,15.63,89.88,89.88,0,0,0-.65,15.46,75.56,75.56,0,0,0,1.3,11.49,68.9,68.9,0,0,0,2,8.83.73.73,0,0,1-.26.86,44.44,44.44,0,0,1-2.57-8.88,91.57,91.57,0,0,1-2-21.53,3,3,0,0,1,.22-1.51c1.14-.68,1.18-1.43.12-2.32,0-.51.05-1,.07-1.53.57,0,1.06-.16,1-.86a16.4,16.4,0,0,1,.37-3A74.37,74.37,0,0,1,389,378.6a10.39,10.39,0,0,0,1.23-3.82V374a.68.68,0,0,0,.76-.79,4.82,4.82,0,0,1,.8-2.32C392.62,370.86,392.62,370.3,392.59,369.73Z"/><path class="cls-9" d="M681.66,483.74c-.58,0-.88-.39-1.2-.84Q671.9,471,663.28,459.05c-5-6.94-10.12-13.84-15.16-20.78-4.13-5.68-8.21-11.4-12.32-17.1-3.59-5-7.17-9.92-10.8-14.85-.52-.7-1-1.53-2.11-1.56a9.48,9.48,0,0,1-1.7-2.28,5,5,0,0,1,3.68,2.22c2.55,3.32,5,6.74,7.43,10.13s4.72,6.45,7,9.74c2.7,3.94,5.66,7.68,8.37,11.61,2.59,3.77,5.29,7.47,8.06,11.12,3.16,4.15,6.13,8.45,9.25,12.63,2.12,2.84,4.14,5.76,6.22,8.63,3.34,4.59,6.51,9.3,10.05,13.74A2,2,0,0,1,681.66,483.74Z"/><path class="cls-11" d="M674.71,369.17a54.48,54.48,0,0,0-1.85-8.09c-1.67-6.69-3.43-13.36-5.07-20.05a11,11,0,0,1-.09-3.29c.12-1.51,1.33-2.11,2.53-2.64a27,27,0,0,1,4.23-1.34c2.19-.55,4.24-1.49,6.48-1.9,1.56-.29,3.06-.94,4.61-1.39,3.2-.94,6.34-2.16,9.57-3s6.09-2.1,9.33-2.37c.58-.05,1.16-.12,1.74-.12,8.93,0,17.87,0,26.8,0,1.19,0,2.28.47,3.45.43a2.12,2.12,0,0,1,0,1.17,9.83,9.83,0,0,0-4.52-.81c-8.29,0-16.59.06-24.89,0a26.31,26.31,0,0,0-7.6,1.33c-5.69,1.68-11.36,3.42-17.07,5-3.72,1.05-7.38,2.26-11,3.51-3.27,1.12-3.19,2.73-2.64,5.28.64,3,1.45,6,2.2,9l4.56,18.4a2.74,2.74,0,0,1,0,.58Z"/><path class="cls-11" d="M796.45,451.79c.35,2,2.09,2,3.56,2.34a8.5,8.5,0,0,0,1.75,0h79.33a8.71,8.71,0,0,1,3.25.4,2.12,2.12,0,0,1,0,1.17,14.74,14.74,0,0,0-5.52-.8q-39.07,0-78.16,0a17.9,17.9,0,0,1-1.94,0c-2-.25-2.7-1-3.05-3.11Z"/><path class="cls-12" d="M798,388.24a2.17,2.17,0,0,0,2.17,1.32c.58,0,1.16,0,1.75,0q34.38,0,68.78,0a15.3,15.3,0,0,1,4.21.43l0,.79c-5-.77-10.08-.38-15.12-.39-19.64-.05-39.29,0-58.93,0a11.58,11.58,0,0,1-1.56,0c-1.21-.19-2.26-.62-2.46-2.05A1.46,1.46,0,0,1,798,388.24Z"/><path class="cls-8" d="M407.4,465.83c.74,0,1.13.56,1.58,1,1.29,1.27,2.56,2.55,3.84,3.84a80.23,80.23,0,0,0,8.15,6.8,73.93,73.93,0,0,0,11.52,7.06,77.48,77.48,0,0,0,14.72,5.82c1.37.37,2.72.79,4.1,1.13.53.13.8.35.79.9a61.64,61.64,0,0,1-11.56-3.17,70.64,70.64,0,0,1-13.7-6.27c0-.81-.74-1.05-1.24-1.35a60.15,60.15,0,0,1-5.08-3.49,91.33,91.33,0,0,1-12.13-10.7C408,467,407.38,466.57,407.4,465.83Z"/><path class="cls-9" d="M407.4,465.83c0,.74.55,1.12,1,1.58a91.33,91.33,0,0,0,12.13,10.7,60.15,60.15,0,0,0,5.08,3.49c.5.3,1.23.54,1.24,1.35a30.31,30.31,0,0,1-5.51-3.2,78.13,78.13,0,0,1-15.5-13.12c.14-.9-.47-1.39-1-2a65.34,65.34,0,0,1-8.57-12.48c-.22-.44-.86-.92-.22-1.53.75.29.91,1,1.23,1.64a3.55,3.55,0,0,0,1.53,1.88h0c.49,2.43,2.18,4.18,3.59,6,1,1.33,2.15,2.56,3.16,3.9.45.62.91,1.29,1.8,1.33C407.39,465.57,407.39,465.7,407.4,465.83Z"/><path class="cls-9" d="M555.64,373.61c.91.12,1,.91,1.21,1.56A104,104,0,0,1,561,387c.1.42.13.92.7,1a86.68,86.68,0,0,1,2,22.6,3.25,3.25,0,0,1-.25,1.51c-.49-.37-.4-.9-.4-1.4,0-1.34,0-2.68,0-4,0-.56.15-1.17-.39-1.6v-.78a37.79,37.79,0,0,0-.7-8.22c-.44-2.46-1-4.89-1.51-7.33a66.67,66.67,0,0,0-4.15-12.8A4.88,4.88,0,0,1,555.64,373.61Z"/><path class="cls-2" d="M521.05,332.34a6.68,6.68,0,0,1-3.63-1.18,58.52,58.52,0,0,0-9.51-4.15,86.51,86.51,0,0,0-13.18-3.62c-2.52-.48-5.05-.82-7.59-1.16a38.65,38.65,0,0,0-4.8-.38.87.87,0,0,1-.64-.38c1.27-.74,2.65-.43,3.95-.26,3.05.39,6.08,1,9.12,1.42a25.05,25.05,0,0,1,3,.67c.41.11.77.14,1-.24a57.7,57.7,0,0,1,10,3.17A89.66,89.66,0,0,1,520,331.54,2.35,2.35,0,0,1,521.05,332.34Z"/><path class="cls-8" d="M562.62,405.14c.54.43.38,1,.39,1.6,0,1.33,0,2.67,0,4,0,.5-.09,1,.4,1.4a70.34,70.34,0,0,1-2.57,17.24,24,24,0,0,1-1.7,5.33c-.67-.54-.35-1.14-.15-1.76A65.24,65.24,0,0,0,561.36,422c.27-1.83.37-3.73.56-5.57.36-3.43.25-6.84.32-10.26A1.18,1.18,0,0,1,562.62,405.14Z"/><path class="cls-2" d="M390.26,374.78A10.39,10.39,0,0,1,389,378.6a74.37,74.37,0,0,0-4.63,17.21,16.4,16.4,0,0,0-.37,3c0,.7-.46.84-1,.86a55.42,55.42,0,0,1,1.21-9.33c.29-1.58.73-3.12,1.1-4.69.53-.12.86-.31.26-.8l.15-.75c.78-.18.85-.87,1.07-1.46.87-2.34,1.76-4.67,2.61-7C389.57,375.22,389.69,374.81,390.26,374.78Z"/><path class="cls-7" d="M356.07,226.16a7.46,7.46,0,0,0,5.46,1.67c.1,0,.21.14.31.21a.66.66,0,0,1-.63.37c-1.12-.16-1.84.34-2.27,1.62a4.63,4.63,0,0,0-1.82-2.35A1.75,1.75,0,0,1,356.07,226.16Z"/><path class="cls-9" d="M685.09,486.83a3.57,3.57,0,0,1-3.43-3.1,2.88,2.88,0,0,0,3.41.76A7.07,7.07,0,0,1,685.09,486.83Z"/><path class="cls-9" d="M685.05,426.16c-.25-.05-.69-.06-.72-.16-.38-1.7-2-2.78-2.25-4.54.77,0,1,.59,1.35,1.16.42.75.72,1.63,1.63,2A3.38,3.38,0,0,1,685.05,426.16Z"/><path class="cls-7" d="M354.13,223.44c1.43.42,1.76.89,1.92,2.7A5.09,5.09,0,0,1,354.13,223.44Z"/><path class="cls-2" d="M382.93,401.24c1.06.89,1,1.64-.12,2.32A7.22,7.22,0,0,1,382.93,401.24Z"/><path class="cls-12" d="M537.76,345.22c-1.15,0-1.89-.41-1.94-1.66C536.8,343.72,537.21,344.55,537.76,345.22Z"/><path class="cls-8" d="M453.3,492.64c0-.33.12-.69.54-.59s.58.46.64.86A1.75,1.75,0,0,1,453.3,492.64Z"/><path class="cls-9" d="M882.42,362.65c0-.55,0-1,.76-1.09C883.28,362.17,883.49,362.86,882.42,362.65Z"/><path class="cls-5" d="M385.57,384.89c.6.49.27.68-.26.8A.77.77,0,0,1,385.57,384.89Z"/><path class="cls-2" d="M521.79,332.75c-.69.63-.71.09-.75-.42A.81.81,0,0,1,521.79,332.75Z"/><path class="cls-12" d="M541.32,348.69a.7.7,0,0,1-.87-.77A1,1,0,0,1,541.32,348.69Z"/><path class="cls-2" d="M618.69,399.6l.15-.22.16.22-.16,0Z"/><path class="cls-13" d="M431.06,398.13a61.4,61.4,0,0,1,2.81-9.69c5.49-13.16,14.9-22,28.85-25.47a42.93,42.93,0,0,1,24.33,1.1l2,.64c.29.4.77.46,1.17.64a42.52,42.52,0,0,1,11.05,7.16c1.75,1.55,3.22,3.37,4.84,5a2.49,2.49,0,0,0,.24.52,47.47,47.47,0,0,1,8.92,19.66c.24,1.7.49,3.41.74,5.11l.07,1.1a90.62,90.62,0,0,1-.57,12.1,1.22,1.22,0,0,0-.26,1.2l-.11.74a3.3,3.3,0,0,0-.32.69,44.45,44.45,0,0,1-4.51,12.15c-9.1,16.65-26.47,23.87-43.67,21.23-2.57-.4-5-1.21-7.55-1.74a55.29,55.29,0,0,1-7.1-3.44c-1.52-1-3-1.95-4.52-2.92a58.1,58.1,0,0,1-8.82-9.52,23.75,23.75,0,0,1-2.82-4.52,11.17,11.17,0,0,0-2-3.44l0-.7c.06-.29-.14-.38-.36-.45a1.65,1.65,0,0,0-.06-.32c.11-.33.13-.63-.22-.83-.28-1.05-.55-2.09-.84-3.13a54.48,54.48,0,0,1-2-14.2C430.37,403.91,430.85,401,431.06,398.13Z"/><path class="cls-9" d="M506.14,377.54c-1.62-1.66-3.09-3.48-4.84-5a42.52,42.52,0,0,0-11.05-7.16c-.4-.18-.88-.24-1.17-.64.33-.49.73-.36,1.2-.23a30.54,30.54,0,0,1,6.62,3.11,42.23,42.23,0,0,1,7.74,5.77,48.06,48.06,0,0,1,10.58,13.94,38.9,38.9,0,0,1,2.43,5.45,62.29,62.29,0,0,1,2.19,9.4c.69,4.31.4,8.66.33,13a40.66,40.66,0,0,1-1.77,9.67,44.22,44.22,0,0,1-5.55,12.5,45.18,45.18,0,0,1-11.27,12.16,39.19,39.19,0,0,1-8.45,5,61.39,61.39,0,0,1-9.06,2.75c-4.26,1-8.61.89-12.93.75a45.87,45.87,0,0,1-5.53-.83,42.12,42.12,0,0,1-10.06-3.32,35.31,35.31,0,0,1-7.63-4.88,48.4,48.4,0,0,1-15-19.7,52.79,52.79,0,0,1-3-11.18,45,45,0,0,1-.68-9.95c.11-2.15-.06-4.34.64-6.45A7.12,7.12,0,0,0,430,400c.06-.79.14-1.57,1.1-1.82-.21,2.9-.69,5.78-.67,8.7a54.48,54.48,0,0,0,2,14.2c.29,1,.56,2.08.84,3.13-.7.47-.38.68.22.83a1.65,1.65,0,0,1,.06.32l.36.45,0,.7a4.16,4.16,0,0,0,.36,2.07,48.94,48.94,0,0,0,7.06,11.94A45.58,45.58,0,0,0,453.56,451a33.69,33.69,0,0,0,5.6,2.64,46.65,46.65,0,0,0,10.48,2.55,49.39,49.39,0,0,0,9.87.15,40.55,40.55,0,0,0,13.18-3.46,41.77,41.77,0,0,0,12.05-8,49.29,49.29,0,0,0,7.74-9.87,41.25,41.25,0,0,0,4.23-9.74,65.85,65.85,0,0,0,2.08-11,44.32,44.32,0,0,0-.26-11,48.85,48.85,0,0,0-3.2-12.1,53.76,53.76,0,0,0-7.59-12.75A1.79,1.79,0,0,0,506.14,377.54Z"/><path class="cls-8" d="M555.64,373.61a4.88,4.88,0,0,0,.62,2.4,66.67,66.67,0,0,1,4.15,12.8c.52,2.44,1.07,4.87,1.51,7.33a37.79,37.79,0,0,1,.7,8.22c-.68-.08-.77-.56-.77-1.12a62.87,62.87,0,0,0-2-13.73,70.6,70.6,0,0,0-5.13-15,83.32,83.32,0,0,0-6.48-11.7A70.79,70.79,0,0,0,542,354.7c-1.46-1.55-2.79-3.23-4.36-4.68a92.12,92.12,0,0,0-18.37-13.48,94,94,0,0,0-17.53-7.24,92.43,92.43,0,0,0-13.22-2.79c-6.95-1.09-13.94-.82-20.91-.66a69.8,69.8,0,0,0-13.36,1.88,89,89,0,0,0-23,8.52,82.13,82.13,0,0,0-14.12,9.5c-1.44,1.21-2.8,2.48-4.13,3.8a1.85,1.85,0,0,1-1.32.73c.08-1.08,1.06-1.49,1.63-2.21s1.45-1.05,1.48-2.08l.39-.38a2.21,2.21,0,0,0,2.33-1.95h.37a1.07,1.07,0,0,0,1.19-1.16h.37a1.57,1.57,0,0,0,1.58-1.54l1.14-.41a19.9,19.9,0,0,0,5.39-3.5c.07-.07,0-.24.08-.37H428a3.74,3.74,0,0,0,3.13-1.94c.42,0,.88.05,1.16-.39,2.77-.71,5.25-2.15,7.9-3.17a90.74,90.74,0,0,1,24.16-5.84c3.28-.27,6.54-.62,9.83-.69,2.06,0,4.12.13,6.18.28,2.95.22,5.9.44,8.84.83a79.89,79.89,0,0,1,12.64,2.71,87.22,87.22,0,0,1,20.89,9.05,97.1,97.1,0,0,1,15.19,11.64c1.46,1.36,2.75,2.9,4.09,4.39a85.46,85.46,0,0,1,6.67,8.53,75.52,75.52,0,0,1,5.74,9.89c.3.63.46,1.38,1.23,1.67Z"/><path class="cls-8" d="M398.83,454.16a3.55,3.55,0,0,1-1.53-1.88c-.32-.61-.48-1.35-1.23-1.64a.76.76,0,0,0-.36-.75,5.05,5.05,0,0,0-.26-.92,87.88,87.88,0,0,1-7.68-23.45,106.63,106.63,0,0,1-1.35-12.85,83.39,83.39,0,0,1,.26-8.5,79.21,79.21,0,0,1,1-9,84.14,84.14,0,0,1,6.07-19.94,34.29,34.29,0,0,0,2.37-5.5c0-.12,0-.25,0-.37,1.25-.49,1.47-1.57,1.56-2.72h0c1.11-.21,1.14-1.07,1.16-1.94h0c1.66-1,2.36-2.66,3.11-4.3a2.32,2.32,0,0,1,0-.37c1.08,0,1.26-1,1.75-1.58.9-1.11,2.1-2,2.52-3.49,0-.13,0-.25,0-.37,1.11-.08,1.52-1.1,2.27-1.68s1.23-1.7,2.4-1.82c0,.66-.44,1.05-.87,1.45a67.09,67.09,0,0,0-11,14.2,79.46,79.46,0,0,0-10,25.68,106.8,106.8,0,0,0-1.63,11.83,62.66,62.66,0,0,0-.21,9.48,82.21,82.21,0,0,0,.91,8.81c.5,3,1,6,1.71,8.89a86.16,86.16,0,0,0,7.25,18.93C397.77,451.56,398.86,452.61,398.83,454.16Z"/><path class="cls-8" d="M407.39,465.44c-.89,0-1.35-.71-1.8-1.33-1-1.34-2.16-2.57-3.16-3.9-1.41-1.87-3.1-3.62-3.59-6,.93.07,1.24.93,1.61,1.51a77.11,77.11,0,0,0,6.72,9.05C407.32,464.89,407.32,465.2,407.39,465.44Z"/><path class="cls-9" d="M410.89,351.06c-1.17.12-1.61,1.21-2.4,1.82s-1.16,1.6-2.27,1.68a1.62,1.62,0,0,1,.58-1.17l6.81-6.81a1.63,1.63,0,0,1,1.17-.59c0,1-.95,1.41-1.48,2.08s-1.55,1.13-1.63,2.21A1.36,1.36,0,0,0,410.89,351.06Z"/><path class="cls-9" d="M666.89,399.3A1.07,1.07,0,0,1,666,399q-2.5-3.56-5-7.13a1.71,1.71,0,0,1-.35-1.09,1.22,1.22,0,0,1,1,.51c1.7,2.5,3.41,5,5.1,7.5A1.44,1.44,0,0,1,666.89,399.3Z"/><path class="cls-9" d="M660.67,390.35a1.07,1.07,0,0,1-.87-.35q-2.52-3.56-5-7.13a1.8,1.8,0,0,1-.35-1.09,1.23,1.23,0,0,1,1,.51c1.7,2.5,3.41,5,5.1,7.5A1.64,1.64,0,0,1,660.67,390.35Z"/><path class="cls-9" d="M651.72,377.52a1.1,1.1,0,0,1-.87-.36q-2.51-3.56-5-7.12a1.85,1.85,0,0,1-.35-1.1,1.24,1.24,0,0,1,1,.52c1.7,2.49,3.41,5,5.1,7.49A1.7,1.7,0,0,1,651.72,377.52Z"/><path class="cls-9" d="M675.84,412.14a1.5,1.5,0,0,1-1.29-.75q-2.26-3.27-4.49-6.55a2.05,2.05,0,0,1-.43-1.27,1.22,1.22,0,0,1,1,.51c1.7,2.5,3.41,5,5.1,7.5A1.64,1.64,0,0,1,675.84,412.14Z"/><path class="cls-9" d="M682.06,421.09a1,1,0,0,1-.86-.36q-2.52-3.56-5-7.12a1.78,1.78,0,0,1-.35-1.1,1.23,1.23,0,0,1,1,.52c1.71,2.5,3.42,5,5.11,7.5A1.4,1.4,0,0,1,682.06,421.09Z"/><path class="cls-9" d="M669.62,403.19c-1.73-.54-2.22-2-2.72-3.51C668.47,400.34,669,401.81,669.62,403.19Z"/><path class="cls-9" d="M645.49,368.57c-1.72-.54-2.21-2-2.71-3.52C644.34,365.71,644.86,367.19,645.49,368.57Z"/><path class="cls-9" d="M654.44,381.41c-1.72-.54-2.21-2-2.71-3.52C653.29,378.55,653.81,380,654.44,381.41Z"/><path class="cls-9" d="M555.64,373.61c-.77-.29-.93-1-1.23-1.67a75.52,75.52,0,0,0-5.74-9.89,85.46,85.46,0,0,0-6.67-8.53c-1.34-1.49-2.63-3-4.09-4.39a97.1,97.1,0,0,0-15.19-11.64,87.22,87.22,0,0,0-20.89-9.05,79.89,79.89,0,0,0-12.64-2.71c-2.94-.39-5.89-.61-8.84-.83-2.06-.15-4.12-.32-6.18-.28-3.29.07-6.55.42-9.83.69a90.74,90.74,0,0,0-24.16,5.84c-2.65,1-5.13,2.46-7.9,3.17a1,1,0,0,1,.64-.88,102.64,102.64,0,0,1,12.74-5.06,4.8,4.8,0,0,0,1.27-.46c2.95-2,6.38-2.31,9.73-2.92,2.09-.38,4.18-.71,6.27-1.07a5.58,5.58,0,0,1,.57-.08,159.07,159.07,0,0,1,17.05-.36,84.7,84.7,0,0,1,11.69,1.22,75.47,75.47,0,0,1,9.75,2.23,121.65,121.65,0,0,1,12.83,4.86A83.57,83.57,0,0,1,531,341.47a79.91,79.91,0,0,1,9.86,8.7,89.41,89.41,0,0,1,9.93,12.59c.58.89.62,1.94,1.15,2.85,1.08,1.83,2,3.74,3,5.61A4.06,4.06,0,0,1,555.64,373.61Z"/><path class="cls-9" d="M396.09,369.71a34.29,34.29,0,0,1-2.37,5.5,84.14,84.14,0,0,0-6.07,19.94,79.21,79.21,0,0,0-1,9,83.39,83.39,0,0,0-.26,8.5,106.63,106.63,0,0,0,1.35,12.85A87.88,87.88,0,0,0,395.45,449a5.05,5.05,0,0,1,.26.92c-1-.11-1.08-1-1.4-1.69a81.07,81.07,0,0,1-6.38-17.75,104.57,104.57,0,0,1-2-13A86.52,86.52,0,0,1,387.63,391a89.57,89.57,0,0,1,3.14-10.75,85.26,85.26,0,0,1,4.44-9.85A1.07,1.07,0,0,1,396.09,369.71Z"/><path class="cls-9" d="M406.21,354.93c-.42,1.47-1.62,2.38-2.52,3.49-.49.6-.67,1.62-1.75,1.58C402.8,357.91,404.74,355.6,406.21,354.93Z"/><path class="cls-12" d="M407,349.49l3.11-3.11h.79l0,0a8.12,8.12,0,0,1-3.9,3.88C407,350,407,349.76,407,349.49Z"/><path class="cls-9" d="M427.62,336.66c0,.13,0,.3-.08.37a19.9,19.9,0,0,1-5.39,3.5c.08-.24.09-.59.25-.7C424.1,338.7,425.61,337.26,427.62,336.66Z"/><path class="cls-9" d="M401.93,360.37c-.75,1.64-1.45,3.31-3.11,4.3C399.5,363,400.15,361.27,401.93,360.37Z"/><path class="cls-2" d="M407,349.49c0,.27,0,.54,0,.8s0,.25,0,.37c-1-.05-1.32,1.25-2.33,1.17A3.14,3.14,0,0,1,407,349.49Z"/><path class="cls-9" d="M431.12,334.71a3.74,3.74,0,0,1-3.13,1.94C428.59,335.29,430,335.15,431.12,334.71Z"/><path class="cls-9" d="M417.5,343.66a2.21,2.21,0,0,1-2.33,1.95C415.79,344.77,416.34,343.85,417.5,343.66Z"/><path class="cls-9" d="M397.66,366.62c-.09,1.15-.31,2.23-1.56,2.72A3.37,3.37,0,0,1,397.66,366.62Z"/><path class="cls-9" d="M421,340.94a1.57,1.57,0,0,1-1.58,1.54A1.65,1.65,0,0,1,421,340.94Z"/><path class="cls-9" d="M398.82,364.67c0,.87-.05,1.73-1.16,1.94A2.39,2.39,0,0,1,398.82,364.67Z"/><path class="cls-9" d="M419.06,342.49a1.07,1.07,0,0,1-1.19,1.16A1.13,1.13,0,0,1,419.06,342.49Z"/><path class="cls-2" d="M480.55,321.47c-2.26,0-4.52,0-6.78,0a101.94,101.94,0,0,0-13.63,1.09,92.84,92.84,0,0,0-13.55,2.92c-2.47.71-4.85,1.7-7.26,2.6a11.27,11.27,0,0,1-2.39.76c.07-.73.67-.88,1.2-1.1a92,92,0,0,1,18.35-5.39,103.75,103.75,0,0,1,11.3-1.38c3.75-.3,7.49-.13,11.23-.27C479.63,320.7,480.38,320.53,480.55,321.47Z"/><path class="cls-2" d="M435.8,328.89c0,.47-.19.93-.67,1-.86.2-1.55.85-2.47.88C433.28,329.47,434.61,329.3,435.8,328.89Z"/><path class="cls-2" d="M410.89,346.39h-.79a3.15,3.15,0,0,1,2.34-2.33C412.43,345.17,411.24,345.5,410.89,346.39Z"/><path class="cls-2" d="M415.55,341.71c-.46.75-.95,1.47-1.95,1.55A1.7,1.7,0,0,1,415.55,341.71Z"/><path class="cls-2" d="M403.88,353a1.59,1.59,0,0,1-1.55,1.57A1.65,1.65,0,0,1,403.88,353Z"/><path class="cls-2" d="M430.73,331.6a2.3,2.3,0,0,1-2,1.16C429,331.68,429.88,331.65,430.73,331.6Z"/><path class="cls-2" d="M394.54,366.22c-.12.72-.22,1.45-1.16,1.57C393.52,367.08,393.62,366.35,394.54,366.22Z"/><path class="cls-2" d="M417.49,340.15a1.72,1.72,0,0,1-1.55,1.17C416,340.33,416.66,340.12,417.49,340.15Z"/><path class="cls-2" d="M424.9,334.72a1.06,1.06,0,0,1-1.19,1.14A1.12,1.12,0,0,1,424.9,334.72Z"/><path class="cls-2" d="M392.59,369.73c0,.57,0,1.13-.76,1.17A1.17,1.17,0,0,1,392.59,369.73Z"/><path class="cls-2" d="M401.54,355.72a.69.69,0,0,1-.77.78A.72.72,0,0,1,401.54,355.72Z"/><path class="cls-2" d="M422.56,336.27a.69.69,0,0,1-.79.77A.72.72,0,0,1,422.56,336.27Z"/><path class="cls-2" d="M400.38,357.27a.7.7,0,0,1-.77.79A.72.72,0,0,1,400.38,357.27Z"/><path class="cls-2" d="M396.87,362.33a.69.69,0,0,1-.76.79A.72.72,0,0,1,396.87,362.33Z"/><path class="cls-2" d="M418.28,339.38a.69.69,0,0,1-.79.77A.73.73,0,0,1,418.28,339.38Z"/><path class="cls-2" d="M420.23,337.83a.7.7,0,0,1-.79.77A.72.72,0,0,1,420.23,337.83Z"/><path class="cls-2" d="M421.39,337.05a.69.69,0,0,1-.78.77A.71.71,0,0,1,421.39,337.05Z"/><path class="cls-2" d="M399.59,358.44a.68.68,0,0,1-.76.78A.71.71,0,0,1,399.59,358.44Z"/><path class="cls-2" d="M427.62,333.16a.68.68,0,0,1-.79.76A.72.72,0,0,1,427.62,333.16Z"/><path class="cls-2" d="M393.36,368.55a.68.68,0,0,1-.76.79A.72.72,0,0,1,393.36,368.55Z"/><path class="cls-2" d="M391,373.22a.68.68,0,0,1-.76.79A.72.72,0,0,1,391,373.22Z"/><path class="cls-11" d="M506.14,377.54a1.79,1.79,0,0,1,1.6,1,53.76,53.76,0,0,1,7.59,12.75,48.85,48.85,0,0,1,3.2,12.1,44.32,44.32,0,0,1,.26,11,65.85,65.85,0,0,1-2.08,11,41.25,41.25,0,0,1-4.23,9.74,49.29,49.29,0,0,1-7.74,9.87,41.77,41.77,0,0,1-12.05,8,40.55,40.55,0,0,1-13.18,3.46,49.39,49.39,0,0,1-9.87-.15,46.65,46.65,0,0,1-10.48-2.55,33.69,33.69,0,0,1-5.6-2.64,45.58,45.58,0,0,1-12.26-10.57,48.94,48.94,0,0,1-7.06-11.94,4.16,4.16,0,0,1-.36-2.07,11.17,11.17,0,0,1,2,3.44,23.75,23.75,0,0,0,2.82,4.52,58.1,58.1,0,0,0,8.82,9.52c-.1,1.36,1.15,1.63,1.9,2.22a39.12,39.12,0,0,0,12.88,6.89c1.79.53,3.62.86,5.45,1.24a40.1,40.1,0,0,0,14.24.17A38.6,38.6,0,0,0,495.06,450a39.6,39.6,0,0,0,12-10,52,52,0,0,0,6.86-11.58c3.2-7.52,3.48-15.41,3.24-23.39,0-.71-.28-1.09-1-1.1,0-.37-.05-.73-.07-1.1.68-.13.73-.62.62-1.16-.23-1.11-.5-2.22-.74-3.33a.75.75,0,0,0-.62-.62,47.47,47.47,0,0,0-8.92-19.66A2.49,2.49,0,0,1,506.14,377.54Z"/><path class="cls-12" d="M516.11,403.93c.73,0,1,.39,1,1.1.24,8,0,15.87-3.24,23.39A52,52,0,0,1,507,440a39.6,39.6,0,0,1-12,10A38.6,38.6,0,0,1,482,454.46a40.1,40.1,0,0,1-14.24-.17c-1.83-.38-3.66-.71-5.45-1.24a39.12,39.12,0,0,1-12.88-6.89c-.75-.59-2-.86-1.9-2.22,1.51,1,3,2,4.52,2.92a55.29,55.29,0,0,0,7.1,3.44c.13.81.79.94,1.42,1.11s1.12.28,1.67.46a42.11,42.11,0,0,0,22.89.81,40.07,40.07,0,0,0,11-4.54A36.66,36.66,0,0,0,507.37,438a44.58,44.58,0,0,0,5.52-9.9,66.66,66.66,0,0,0,2.6-8.69,1.26,1.26,0,0,0-.32-1.43c0-.25.07-.49.11-.74.77-.25.83-.66.26-1.2A90.62,90.62,0,0,0,516.11,403.93Z"/><path class="cls-5" d="M515.17,418a1.26,1.26,0,0,1,.32,1.43,66.66,66.66,0,0,1-2.6,8.69,44.58,44.58,0,0,1-5.52,9.9,36.66,36.66,0,0,1-11.24,10.15,40.07,40.07,0,0,1-11,4.54,42.11,42.11,0,0,1-22.89-.81c-.55-.18-1.12-.31-1.67-.46s-1.29-.3-1.42-1.11c2.53.53,5,1.34,7.55,1.74,17.2,2.64,34.57-4.58,43.67-21.23a44.45,44.45,0,0,0,4.51-12.15A3.3,3.3,0,0,1,515.17,418Z"/><path class="cls-12" d="M515.3,397.72a.75.75,0,0,1,.62.62c.24,1.11.51,2.22.74,3.33.11.54.06,1-.62,1.16C515.79,401.13,515.54,399.42,515.3,397.72Z"/><path class="cls-5" d="M515.54,416c.57.54.51,1-.26,1.2A1.22,1.22,0,0,1,515.54,416Z"/><path class="cls-11" d="M433.42,425c-.6-.15-.92-.36-.22-.83C433.55,424.36,433.53,424.66,433.42,425Z"/><path class="cls-11" d="M433.84,425.76l-.36-.45C433.7,425.38,433.9,425.47,433.84,425.76Z"/></svg>