<svg width="800mm" height="800.62mm" version="1.1" viewBox="0 0 800 800.62" xml:space="preserve" xmlns="http://www.w3.org/2000/svg" xmlns:xlink="http://www.w3.org/1999/xlink"><defs><linearGradient id="a" x1="12.804" x2="70.391" y1="94.189" y2="155.15" gradientTransform="matrix(2.4573 0 0 2.4573 163.07 121)" gradientUnits="userSpaceOnUse"><stop stop-color="#473275" offset="0"/><stop stop-color="#734fd3" offset="1"/></linearGradient></defs><g transform="translate(111.9 83.034)"><path d="m27.499-83.034s663.87 658.91 660.59 661.05l-660.83-1.0934z" fill="url(#a)" stroke-width="7.3718"/><path d="m-111.9 57.59 659.12 2.8981v657.1z" fill="#d1c8e2" fill-opacity=".8193" stroke-width="7.3718"/><g transform="matrix(2.5794 0 0 2.3409 163.07 121)" stroke-width="7.5656" aria-label="X"><path d="m8.1816 148.6c0 4.7285 4.6691 6.194 13.408 6.6256l5.4176-0.12385v12.294h-66.38v-11.883l3.7777-0.14999c8.9191-0.56036 17.773-2.8292 28.124-15.523 2.7583-3.4676 6.5262-7.8546 9.2057-10.849l33.94-46.168-41.225-47.861c-8.3824-9.141-13.725-18.069-25.691-23.288-3.3209-1.0545-10.997-1.8927-12.617-2.0565-0.06909-3.5725 0.0284-8.4455 0.0284-12.018l70.017 0.033981v11.933s-2.6208 0.19528-6.9576 0.3035c-3.5973 0.089765-5.9542 0.081707-7.8674 0.88731-2.3636 0.94149-6.6716 5.4017 1.8787 14.127l36.759 40.4s0.98224-1.2481 2.2099-2.6514l22.957-31.976c11.367-18.61 2.4641-22.048-14.545-20.769v-12.292h61.426v11.936c-11.868 2.1309-14.225-0.80583-26.676 13.695l-37.715 51.311s54.777 65.872 54.869 65.642c15.021 15.859 19.553 15.505 29.304 15.25 0 0 0.36742 11.966 0 11.966h-75.279v-11.921l6.8138-0.15155c17.979 0.16098 18.361-9.4992 1.6386-27.593l-32.414-35.455s-14.978 22.086-28.706 40.19c-7.2476 10.249-5.7012 14.086-5.7012 16.135z" fill="#fff"/></g></g></svg>
