<svg xmlns="http://www.w3.org/2000/svg" height="315.04" width="600" viewBox="0 0 158.75 83.355">
    <g fill="#fff">
        <path d="M28.03 35.91l-.001-.002a.593.593 0 1 0-.39-1.12v-.001a82.73 82.73 0 0 0-1.322.477c3.313-9.298 6.37-15.183 6.43-15.296l-.004-.002c.01-.02.023-.038.03-.058a.595.595 0 0 0-.34-.77.592.592 0 0 0-.738.277l-.003-.001c-.028.056-2.968 5.68-6.186 14.542-.216.595-.436 1.217-.66 1.859-2.35.893-5.92 2.31-9.687 4.03 2.398-6.74 5.198-13.972 5.275-14.171l.003-.007a.595.595 0 0 0-1.11-.429h-.001c-.188.485-3.238 8.359-5.683 15.31-2.758 1.303-5.547 2.749-7.98 4.254l.002.001a.591.591 0 0 0 .095 1.062.59.59 0 0 0 .528-.053l.001.002c2.084-1.289 4.435-2.535 6.802-3.683-.95 2.749-1.754 5.24-2.18 6.912l.005.001a.592.592 0 0 0 .36.7.596.596 0 0 0 .77-.34c.008-.023.012-.045.018-.066.472-1.847 1.433-4.764 2.541-7.928 3.646-1.705 7.2-3.147 9.735-4.127-2.735 8.094-5.801 19.323-6.994 31.58h.003a.595.595 0 0 0 1.146.271.588.588 0 0 0 .034-.157h.002c1.194-12.272 4.28-23.59 7.274-32.253a116.13 116.13 0 0 1 2.225-.813"/>
        <path d="M55.13 38.01c-.37.247-.649.19-.65.189a.5.5 0 0 0-.08-.02c-.528-.102-.904-.334-1.147-.713-.362-.562-.37-1.324-.323-1.826.363-.382.745-.79 1.123-1.203.935-1.018 1.668-1.869 2.18-2.531.102-.132.195-.256.28-.372-.112.22-.198.47-.228.753-.065.612.134 1.231.592 1.85-.49 2.617-1.257 3.544-1.747 3.873m.485-7.257c-.407.566-1.087 1.375-1.907 2.292.643-1.435 1.364-2.041 1.907-2.292M48.83 41.135a7.68 7.68 0 0 1-1.105.748 19.42 19.42 0 0 1 1.217-1.926c-.008.567-.043.983-.112 1.178m27.551-8.064a.595.595 0 0 0-.802.23c-.007.011-.099.176-.26.477-2.295 4.13-4.772 5.272-5.902 5.586.396-5.52 6.33-7.852 6.392-7.876a.595.595 0 0 0-.354-1.134c-3.886.949-7.972 5.459-10.06 8.06.754-3.866 2.401-7.831 2.42-7.878a.595.595 0 0 0-.837-.75c-2.155 1.19-4.169 3.07-5.568 4.555l1.036-3.194a.596.596 0 0 0-1.012-.578 31 31 0 0 1-3.284 3.182c.131-.831.23-1.75.294-2.759a.594.594 0 0 0-.886-.556 2.895 2.895 0 0 0-.704.595c.336-.546.42-.901.312-1.21a.594.594 0 0 0-.419-.385c-.135-.034-3.34-.76-4.892 5.392-.004.017-.028.117-.056.277-.58.608-1.178 1.22-1.763 1.803a99.793 99.793 0 0 0-.308-3.731 26.957 26.957 0 0 1-.013-2.037c.51-.888 1.052-1.85 1.63-2.894a.594.594 0 0 0-.133-.741c-.243-.21-.813-.487-1.398-.204-.506.246-1.13.898-1.272 3.49-3.516 6.1-5.3 8.368-6.11 9.205.383-3.103.888-5.64 1.442-7.711 1.408-2.533 2.998-5.551 4.758-9.039a.595.595 0 0 0-.823-.788c-.153.086-2.945 1.749-5.028 9.339-2.65 4.758-4.178 6.932-5.012 7.922.756-4.226 1.532-7.677 2.289-10.488 1.86-3.626 3.94-7.855 6.231-12.668a.596.596 0 0 0-.673-.835c-.417.097-3.448 1.214-6.663 13.043-4.676 9.107-7.031 12.609-8.141 13.953l1.247-7.246a.596.596 0 0 0-1.128-.349c-2.58 5.604-4.806 6.953-4.829 6.967h.001a.591.591 0 1 0 .584 1.031l.002.004c.08-.045 1.585-.92 3.56-4.16l-.868 5.042a.599.599 0 0 0 .155.511c.153.162.39.235.636.196.307-.048 1.126-.178 3.857-4.568 1.082-1.741 2.332-3.932 3.743-6.56a155.314 155.314 0 0 0-1.438 7.416.592.592 0 0 0 .197.55.718.718 0 0 0 .617.145c.409-.081 1.16-.497 2.965-3.166a61.765 61.765 0 0 0 1.767-2.79 68.943 68.943 0 0 0-.76 5.202.596.596 0 0 0 .07.354.743.743 0 0 0 .66.365c.438 0 1.641 0 6.686-8.508l.002.081.003.038c.167 1.602.3 3.347.364 4.796-1.87 2.16-2.901 4.562-2.951 4.68a.597.597 0 0 0 .666.816c1.372-.274 2.622-1.237 2.925-1.483.4-.205.665-.76.57-3.577.218-.235.446-.466.685-.685l.017-.017c.008-.008.392-.391.965-.978.07.429.21.873.466 1.273.415.648 1.049 1.061 1.88 1.23.17.05.863.201 1.665-.336.934-.627 1.633-1.925 2.091-3.876a.599.599 0 0 0 .568-.086c.053-.04.917-.707 2.064-1.803L59.37 36.76a.597.597 0 0 0 1.04.547c.029-.037 2.575-3.314 5.648-5.525-.754 2.074-1.916 5.673-2.173 8.777a.594.594 0 0 0 1.082.39 43.647 43.647 0 0 1 4.11-4.891 8.981 8.981 0 0 0-.872 4.026c.004.328.272.59.6.588.113-.001 1.927-.05 4.149-1.96-1.552 3.552-3.447 8.557-4.673 14.106l.003.001a.594.594 0 0 0 1.135.342c.01-.029.017-.057.023-.086h.001l.006-.026.001-.006c2.01-9.075 5.834-16.66 6.888-18.648.096-.172.191-.346.286-.525a.597.597 0 0 0-.244-.8"/>
        <path d="M32.28 30.09c0 .726.477 1.315 1.065 1.315s1.065-.59 1.065-1.315c0-.726-.477-1.315-1.065-1.315s-1.065.59-1.065 1.315"/>
        <path d="M41.68 80.14c-21.239 0-38.457-17.218-38.457-38.457S20.441 3.225 41.68 3.225s38.457 17.219 38.457 38.458S62.919 80.14 41.68 80.14m0-80.135C18.662.005.003 18.665.003 41.683S18.662 83.36 41.68 83.36s41.677-18.659 41.677-41.677S64.698.005 41.68.005M110.87 41.89h1.835l-.909-2.403z"/>
        <path d="M139.78 44.14h-4.14v-5.906h1.051v4.955h3.089zm-5.614 0h-4.063v-5.906h3.913v.951h-2.861v1.45h2.711v.952h-2.711v1.602h3.011zm-5.82 0h-1.334l-2.92-4.53h-.016v4.53h-1.052v-5.906h1.394l2.86 4.388h.017v-4.388h1.052zm-7.078 0h-1.335l-2.92-4.53h-.016v4.53h-1.052v-5.906h1.394l2.86 4.388h.017v-4.388h1.052zm-7.647 0l-.55-1.352h-2.562l-.533 1.352h-1.177l2.57-5.906h.91l2.543 5.906zm-5.94 0h-1.052v-2.603h-2.76v2.603h-1.052v-5.906h1.051v2.353h2.761v-2.353h1.052zm-8.21.15c-1.818 0-3.12-1.234-3.12-3.077 0-1.895 1.302-3.13 3.12-3.13.8 0 1.484.26 2.068.935l-.817.6c-.433-.458-.834-.583-1.243-.583-1.218 0-2.027.934-2.027 2.11 0 1.26.81 2.194 2.027 2.194.475 0 .934-.217 1.326-.717l.868.617c-.533.734-1.334 1.051-2.202 1.051M117.07 0c-16.084 0-30.04 9.113-36.987 22.456a42.768 42.768 0 0 1 4.534 19.221c0 6.91-1.635 13.438-4.534 19.221 6.948 13.343 20.903 22.456 36.987 22.456 23.018 0 41.677-18.659 41.677-41.677S140.087 0 117.07 0"/>
    </g>
</svg>
