<svg width="800" height="235.8" style="" viewBox="0 0 640 188.64" xmlns="http://www.w3.org/2000/svg">
 <g stroke-width=".6654">
  <path d="m137.07 81.947c5.6647-9.0154 11.076-18.207 16.858-27.136 4.866 2.9779 9.4785 6.4055 14.273 9.5129-3.677 5.8196-7.1979 11.741-10.914 17.533 4.0864 6.6576 8.1987 13.302 12.298 19.952-4.1514 6.569-8.1468 13.24-12.291 19.816 4.1057 6.6032 8.1532 13.247 12.272 19.837-3.9822 6.6644-8.2503 13.138-12.135 19.864 3.3847 6.0034 7.1722 11.775 10.784 17.636-4.8138 3.1482-9.5368 6.4668-14.324 9.6628-5.5028-9.145-11.317-18.106-16.716-27.319 3.9954-6.6371 8.1011-13.213 12.2-19.789-4.1254-6.6032-8.1466-13.288-12.324-19.864 4.1514-6.6236 8.2442-13.281 12.324-19.959-4.2162-6.5009-8.1272-13.213-12.304-19.749z" fill="#bb141a"/>
  <path d="m132.8-0.01098c-11.909 0.01806-21.55 9.6831-21.539 21.593 0.0142 11.909 9.672 21.556 21.582 21.55 11.909-0.0057 21.56-9.6611 21.562-21.57v-0.04166c-0.02275-11.91-9.6934-21.549-21.603-21.532zm-5.9403 54.585c-5.7819 8.9268-11.195 18.118-16.859 27.133 4.1773 6.535 8.0892 13.247 12.305 19.749-4.0796 6.6781-8.1735 13.336-12.325 19.959 4.1773 6.5759 8.1997 13.262 12.325 19.865-4.0992 6.5759-8.2045 13.153-12.2 19.79 5.3985 9.2131 11.213 18.173 16.716 27.319 4.7877-3.196 9.5107-6.5163 14.324-9.6645-3.6119-5.8604-7.4017-11.631-10.786-17.634 3.8851-6.7259 8.154-13.2 12.136-19.865-4.1185-6.5895-8.1665-13.231-12.272-19.834 4.1447-6.5759 8.1402-13.249 12.292-19.818-4.0993-6.6508-8.2108-13.293-12.297-19.951 3.7161-5.7922 7.2372-11.715 10.914-17.535-4.7942-3.1074-9.4057-6.5339-14.272-9.5118zm87.819 7.3178c-5.4011-0.05645-10.864 0.76339-15.877 2.8161-6.0203 2.4151-11.289 6.8511-14.283 12.628-2.5633 4.8585-3.5431 10.44-3.2854 15.894 0.13651 5.0186 1.2942 10.08 3.8103 14.464 1.9624 3.4767 4.708 6.4621 7.7704 9.009 3.5424 2.9965 7.5422 5.3806 11.345 8.0288 4.5023 3.053 9.0184 6.0943 13.514 9.159 2.9061 2.0456 5.8289 4.2998 7.6122 7.44 2.1162 3.7004 2.4125 8.2964 1.1664 12.333-1.0026 3.2554-3.5899 5.9725-6.8318 7.0789-3.067 1.0522-6.4891 1.1782-9.6034 0.25548-2.5537-0.76268-4.6553-2.6958-5.7738-5.085-1.4564-2.9448-1.9137-6.2497-2.2022-9.4839-0.21527-3.0201-0.32675-6.0454-0.42486-9.0702h-20.888c0.0284 6.1484 0.37012 12.331 1.6636 18.36 1.1492 5.2022 3.1202 10.353 6.5679 14.493 2.6083 3.1707 6.0806 5.5973 9.9089 7.0873 4.6397 1.8314 9.6804 2.4019 14.644 2.3828 5.543-0.0377 11.139-0.72099 16.375-2.5994 4.0698-1.4501 7.8944-3.6867 10.961-6.7374 3.0196-2.9777 5.244-6.7061 6.6013-10.703 1.6268-4.7572 2.1327-9.8363 1.9383-14.839-0.15556-4.7031-1.0444-9.4677-3.2436-13.672-2.1731-4.2747-5.5508-7.8114-9.2257-10.85-2.977-2.488-6.1989-4.6661-9.4172-6.8318-4.4905-3.0648-8.9861-6.1204-13.472-9.1923-2.9251-2.062-5.9152-4.1728-8.1287-7.0233-2.1442-2.7188-2.9705-6.4122-2.169-9.7784 0.61242-2.5094 2.326-4.694 4.5629-5.9792 2.9654-1.7373 6.6772-1.907 9.9143-0.88313 2.5232 0.80269 4.603 2.7059 5.7876 5.0433 2.166 4.1264 2.3147 8.9052 2.4356 13.455 6.9615 0.0028 13.923-7e-5 20.885 0.0028-0.0284-5.1151-0.38107-10.258-1.5775-15.244-1.0758-4.3948-2.9004-8.6835-5.8208-12.186-2.5655-3.1142-5.9704-5.5052-9.7089-7.0233-4.9044-2.0174-10.254-2.6975-15.53-2.7494zm-203.86 2.5244c-3.6156-0.0028-7.2326-0.0013-10.848 0.02773v112.39c7.2296 0.10778 14.461 0.0168 21.693 0.0472v-50.83c9.0791-3e-3 18.159-3e-3 27.238 0v50.83h21.64v-112.46h-21.64v43.632c-9.079 3e-3 -18.159 3e-3 -27.238 0v-43.632c-3.616 0.0085-7.2292 2.8e-4 -10.845-0.0028zm284.42 0.24438c-1.2797-0.0028-2.5591 0.0043-3.8353 0.0028h-31.795v112.47h21.818v-46.934c4.4181-0.0114 8.8404 0.0228 13.261-0.0195 6.2919-0.0656 12.723-0.68358 18.576-3.1742 4.0588-1.7175 7.6881-4.56 10.112-8.2925 3.168-4.8197 4.4292-10.633 4.8906-16.323 0.41292-5.7102 0.28097-11.519-0.9831-17.121-1.0947-4.8151-3.2206-9.5151-6.7458-13.011-3.7083-3.7302-8.7387-5.8521-13.838-6.7401-3.7763-0.74336-7.6197-0.8468-11.459-0.85536zm261.97 0.03327c-23.075 0.07095-46.165 0.02759-69.239 0.01422 0.0142 5.6014 0.0142 11.189 0 16.791 8.0656-0.02886 16.131 1e-3 24.184-0.02773-0.0711 31.899 0.0256 63.782-0.0441 95.667 6.9864-0.0705 13.976-0.12911 20.962 0.0277v-95.681c8.0515 0.01422 16.09-0.04379 24.141 0.04166zm5.9764 0c8.2645 37.471 24.484 112.47 24.484 112.47l28.088-0.0973 24.198-112.36-21.984 0.0583-15.961 80.384-17.552-80.384-21.273-0.07223zm-103.22 0.03057 0.0867 76.841-27.933-76.8-21.611-0.02773s0.0995 74.977 0 112.46c7.0147-0.18562 14.044-0.14454 21.073-0.0306-0.2841-25.401-0.4415-76.214-0.4415-76.214l28.105 76.185 21.809 0.0583v-112.46l-21.087-0.01422zm-83.581 0.04166-27.933 0.01422-26.81 112.44 22.054-0.1 6.1348-28.371 24.097-0.0417 6.0236 28.354 21.722 0.17217-25.288-112.47zm-94.964 17.893c3.3304 0.0071 6.6616-0.01948 9.9921 0.01422 3.4278 0.08432 7.0358 0.28179 10.109 1.9828 2.3262 1.2746 3.8484 3.6807 4.4629 6.2348 0.81404 3.3038 0.7947 6.7715 0.40268 10.134-0.38263 2.9008-1.3919 5.9044-3.6298 7.8843-2.6163 2.2868-6.1882 2.8852-9.5256 3.1381-3.9333 0.22259-7.8755 0.13395-11.811 0.15276zm80.451 7.3706 8.6176 42.171-17.293 0.0722 8.6757-42.243z" style=""/>
  <path d="m83.603 81.691c5.6647-9.0154 11.076-18.207 16.858-27.136 4.866 2.9779 9.4785 6.4055 14.273 9.5129-3.677 5.8196-7.1979 11.741-10.914 17.533 4.0864 6.6576 8.1987 13.302 12.298 19.952-4.1514 6.569-8.1468 13.24-12.291 19.816 4.1057 6.6032 8.1532 13.247 12.272 19.837-3.9822 6.6644-8.2503 13.138-12.135 19.864 3.3847 6.0034 7.1722 11.775 10.784 17.636-4.8138 3.1482-9.5368 6.4668-14.324 9.6628-5.5028-9.145-11.317-18.106-16.716-27.319 3.9954-6.6371 8.1011-13.213 12.2-19.789-4.1254-6.6032-8.1466-13.288-12.324-19.864 4.1514-6.6236 8.2442-13.281 12.324-19.959-4.2162-6.5009-8.1272-13.213-12.304-19.749z" fill="#faa61a"/>
 </g>
</svg>
