<svg width="200mm" height="604.535" viewBox="0 0 200 159.95" xmlns="http://www.w3.org/2000/svg">
    <defs>
        <clipPath id="d">
            <path d="M78.02 378h82.895v48.129H78.02z"/>
        </clipPath>
        <clipPath id="e">
            <path d="M100.55 381.09c-6.066 6.047-12.105 12.125-18.312 18.023-3 2.852-4.219 6.144-2.938 9.957.891 2.648 3.485 4.367 6.5 4.332 4.727-.059 7.973-.004 12.7 0h5.07v6.102c3.605 0 10.465.004 10.465.004l.004-35.133c0-2.512-1.785-6.313-5.77-6.368-.277-.004-.539-.008-.789-.008-2.426 0-3.687.297-6.93 3.09m2.782 10.465v13.461H89l14.332-13.46m15.559-13.044v26.133h4.953v4.953h4.957v-31.086zm27.332 6.528c-4.387 5.093-8.82 10.102-13.09 15.238-2.7 3.246-2.563 7.047.281 10.168 4.836 5.297 9.773 10.508 14.602 15.684h12.898c-5.984-5.977-11.48-11.453-16.957-16.95-3.606-3.617-3.617-4.624-.188-8.25 4.332-4.574 8.665-9.136 12.98-13.718.551-.586 1-1.262 1.711-2.172z"/>
        </clipPath>
        <linearGradient id="f" x1="-.009" x2="1" gradientTransform="translate(78.796 402.07) scale(82.117)" gradientUnits="userSpaceOnUse">
            <stop stop-color="#009ddf" offset="0"/>
            <stop stop-color="#009ddf" offset=".031"/>
            <stop stop-color="#009ddf" offset=".047"/>
            <stop stop-color="#009cdf" offset=".063"/>
            <stop stop-color="#009cde" offset=".078"/>
            <stop stop-color="#009bdd" offset=".094"/>
            <stop stop-color="#009adc" offset=".102"/>
            <stop stop-color="#0099db" offset=".109"/>
            <stop stop-color="#0099db" offset=".125"/>
            <stop stop-color="#0098da" offset=".141"/>
            <stop stop-color="#0097da" offset=".148"/>
            <stop stop-color="#0096d9" offset=".156"/>
            <stop stop-color="#0096d8" offset=".164"/>
            <stop stop-color="#0095d7" offset=".172"/>
            <stop stop-color="#0095d7" offset=".188"/>
            <stop stop-color="#0094d6" offset=".195"/>
            <stop stop-color="#0093d5" offset=".203"/>
            <stop stop-color="#0092d4" offset=".211"/>
            <stop stop-color="#0091d3" offset=".219"/>
            <stop stop-color="#0090d2" offset=".227"/>
            <stop stop-color="#0090d2" offset=".234"/>
            <stop stop-color="#008fd1" offset=".242"/>
            <stop stop-color="#008ed0" offset=".25"/>
            <stop stop-color="#008ecf" offset=".258"/>
            <stop stop-color="#008dcf" offset=".266"/>
            <stop stop-color="#008cce" offset=".273"/>
            <stop stop-color="#008bcd" offset=".281"/>
            <stop stop-color="#008acc" offset=".289"/>
            <stop stop-color="#008acb" offset=".297"/>
            <stop stop-color="#0089ca" offset=".305"/>
            <stop stop-color="#0088c9" offset=".313"/>
            <stop stop-color="#0087c8" offset=".32"/>
            <stop stop-color="#0086c7" offset=".328"/>
            <stop stop-color="#0085c6" offset=".336"/>
            <stop stop-color="#0084c5" offset=".344"/>
            <stop stop-color="#0083c4" offset=".352"/>
            <stop stop-color="#0082c3" offset=".359"/>
            <stop stop-color="#0081c2" offset=".367"/>
            <stop stop-color="#0081c1" offset=".375"/>
            <stop stop-color="#0080c0" offset=".383"/>
            <stop stop-color="#007fc0" offset=".391"/>
            <stop stop-color="#007ebf" offset=".395"/>
            <stop stop-color="#007dbe" offset=".398"/>
            <stop stop-color="#007dbd" offset=".402"/>
            <stop stop-color="#007cbd" offset=".406"/>
            <stop stop-color="#007cbc" offset=".41"/>
            <stop stop-color="#007bbb" offset=".414"/>
            <stop stop-color="#007bbb" offset=".418"/>
            <stop stop-color="#007aba" offset=".422"/>
            <stop stop-color="#007aba" offset=".43"/>
            <stop stop-color="#0079b9" offset=".438"/>
            <stop stop-color="#0078b8" offset=".441"/>
            <stop stop-color="#0077b7" offset=".445"/>
            <stop stop-color="#0077b7" offset=".449"/>
            <stop stop-color="#0076b6" offset=".453"/>
            <stop stop-color="#0076b6" offset=".461"/>
            <stop stop-color="#0075b4" offset=".465"/>
            <stop stop-color="#0074b4" offset=".469"/>
            <stop stop-color="#0074b3" offset=".473"/>
            <stop stop-color="#0073b2" offset=".477"/>
            <stop stop-color="#0073b2" offset=".48"/>
            <stop stop-color="#0072b1" offset=".484"/>
            <stop stop-color="#0072b1" offset=".492"/>
            <stop stop-color="#0070b0" offset=".496"/>
            <stop stop-color="#0070af" offset=".5"/>
            <stop stop-color="#006faf" offset=".504"/>
            <stop stop-color="#006eae" offset=".508"/>
            <stop stop-color="#006eae" offset=".512"/>
            <stop stop-color="#006dad" offset=".516"/>
            <stop stop-color="#006dad" offset=".523"/>
            <stop stop-color="#006cac" offset=".527"/>
            <stop stop-color="#006bab" offset=".531"/>
            <stop stop-color="#006aaa" offset=".535"/>
            <stop stop-color="#0069a9" offset=".539"/>
            <stop stop-color="#0069a9" offset=".543"/>
            <stop stop-color="#0068a8" offset=".547"/>
            <stop stop-color="#0068a7" offset=".551"/>
            <stop stop-color="#0067a6" offset=".555"/>
            <stop stop-color="#0067a6" offset=".559"/>
            <stop stop-color="#0066a5" offset=".563"/>
            <stop stop-color="#0066a5" offset=".57"/>
            <stop stop-color="#0065a4" offset=".574"/>
            <stop stop-color="#0064a3" offset=".578"/>
            <stop stop-color="#0063a2" offset=".582"/>
            <stop stop-color="#0062a1" offset=".586"/>
            <stop stop-color="#0062a1" offset=".59"/>
            <stop stop-color="#0061a0" offset=".594"/>
            <stop stop-color="#0061a0" offset=".602"/>
            <stop stop-color="#00609f" offset=".605"/>
            <stop stop-color="#005f9e" offset=".609"/>
            <stop stop-color="#005e9d" offset=".613"/>
            <stop stop-color="#005e9d" offset=".617"/>
            <stop stop-color="#005d9c" offset=".621"/>
            <stop stop-color="#005c9b" offset=".625"/>
            <stop stop-color="#005b9a" offset=".629"/>
            <stop stop-color="#005b9a" offset=".633"/>
            <stop stop-color="#005a99" offset=".637"/>
            <stop stop-color="#005998" offset=".641"/>
            <stop stop-color="#005997" offset=".645"/>
            <stop stop-color="#005897" offset=".648"/>
            <stop stop-color="#005896" offset=".652"/>
            <stop stop-color="#005795" offset=".656"/>
            <stop stop-color="#005695" offset=".66"/>
            <stop stop-color="#005694" offset=".664"/>
            <stop stop-color="#005594" offset=".668"/>
            <stop stop-color="#005493" offset=".672"/>
            <stop stop-color="#005392" offset=".676"/>
            <stop stop-color="#005391" offset=".68"/>
            <stop stop-color="#005290" offset=".684"/>
            <stop stop-color="#00518f" offset=".688"/>
            <stop stop-color="#00508f" offset=".691"/>
            <stop stop-color="#00508e" offset=".695"/>
            <stop stop-color="#004f8e" offset=".699"/>
            <stop stop-color="#004e8d" offset=".703"/>
            <stop stop-color="#004e8c" offset=".707"/>
            <stop stop-color="#004d8c" offset=".711"/>
            <stop stop-color="#004d8b" offset=".715"/>
            <stop stop-color="#004c8a" offset=".719"/>
            <stop stop-color="#004b89" offset=".723"/>
            <stop stop-color="#004b89" offset=".727"/>
            <stop stop-color="#004a88" offset=".73"/>
            <stop stop-color="#004987" offset=".734"/>
            <stop stop-color="#004886" offset=".738"/>
            <stop stop-color="#004886" offset=".742"/>
            <stop stop-color="#004785" offset=".746"/>
            <stop stop-color="#004684" offset=".75"/>
            <stop stop-color="#004584" offset=".754"/>
            <stop stop-color="#004583" offset=".758"/>
            <stop stop-color="#004483" offset=".762"/>
            <stop stop-color="#004382" offset=".766"/>
            <stop stop-color="#004281" offset=".77"/>
            <stop stop-color="#004281" offset=".773"/>
            <stop stop-color="#004180" offset=".777"/>
            <stop stop-color="#00407f" offset=".781"/>
            <stop stop-color="#00407e" offset=".785"/>
            <stop stop-color="#003f7e" offset=".789"/>
            <stop stop-color="#003f7d" offset=".793"/>
            <stop stop-color="#003e7c" offset=".797"/>
            <stop stop-color="#003e7c" offset=".801"/>
            <stop stop-color="#003d7b" offset=".805"/>
            <stop stop-color="#003c7a" offset=".809"/>
            <stop stop-color="#003b79" offset=".813"/>
            <stop stop-color="#003b79" offset=".816"/>
            <stop stop-color="#003a78" offset=".82"/>
            <stop stop-color="#003978" offset=".824"/>
            <stop stop-color="#003877" offset=".828"/>
            <stop stop-color="#003877" offset=".832"/>
            <stop stop-color="#003776" offset=".836"/>
            <stop stop-color="#003675" offset=".84"/>
            <stop stop-color="#003574" offset=".844"/>
            <stop stop-color="#003574" offset=".848"/>
            <stop stop-color="#003473" offset=".852"/>
            <stop stop-color="#003372" offset=".855"/>
            <stop stop-color="#003271" offset=".859"/>
            <stop stop-color="#003271" offset=".867"/>
            <stop stop-color="#003170" offset=".871"/>
            <stop stop-color="#00306f" offset=".875"/>
            <stop stop-color="#00306f" offset=".879"/>
            <stop stop-color="#002f6e" offset=".883"/>
            <stop stop-color="#002e6e" offset=".887"/>
            <stop stop-color="#002d6d" offset=".891"/>
            <stop stop-color="#002d6d" offset=".895"/>
            <stop stop-color="#002c6c" offset=".898"/>
            <stop stop-color="#002b6b" offset=".902"/>
            <stop stop-color="#002a6a" offset=".906"/>
            <stop stop-color="#002a6a" offset=".91"/>
            <stop stop-color="#002969" offset=".914"/>
            <stop stop-color="#002968" offset=".918"/>
            <stop stop-color="#002867" offset=".922"/>
            <stop stop-color="#002867" offset=".926"/>
            <stop stop-color="#002766" offset=".93"/>
            <stop stop-color="#002666" offset=".934"/>
            <stop stop-color="#002565" offset=".938"/>
            <stop stop-color="#002565" offset=".941"/>
            <stop stop-color="#012464" offset=".945"/>
            <stop stop-color="#012363" offset=".949"/>
            <stop stop-color="#022262" offset=".953"/>
            <stop stop-color="#032262" offset=".957"/>
            <stop stop-color="#042161" offset=".961"/>
            <stop stop-color="#052061" offset=".965"/>
            <stop stop-color="#071f60" offset=".969"/>
            <stop stop-color="#081f60" offset=".973"/>
            <stop stop-color="#091e5f" offset=".977"/>
            <stop stop-color="#0a1d5e" offset=".98"/>
            <stop stop-color="#0b1c5d" offset=".984"/>
            <stop stop-color="#0b1c5d" offset=".988"/>
            <stop stop-color="#0c1b5c" offset=".992"/>
            <stop stop-color="#0d1a5c" offset=".996"/>
            <stop stop-color="#0d195b" offset="1"/>
        </linearGradient>
        <clipPath id="a">
            <path d="M79.832 427.77h62.949v15.906H79.832z"/>
        </clipPath>
        <clipPath id="b">
            <path d="M79.832 427.77v12.547h1.11v-5.29c.035-1.772 1.09-3.112 2.843-3.112 1.793 0 2.305 1.18 2.305 2.742v5.66h1.105v-5.832c0-2.164-.77-3.5-3.32-3.5-1.285 0-2.496.738-2.898 1.828h-.035v-5.043zm58.629.738v2.723h-.914v1.672h.914v5.36c0 1.808 1.332 2.16 2.863 2.16.489 0 1.035-.016 1.457-.087v-1.949c-.261.051-.508.07-.773.07-.844 0-1.055-.214-1.055-1.058v-4.496h1.828v-1.672h-1.828v-2.723zm-49.414.637a.638.638 0 1 0 1.275.006.638.638 0 0 0-1.275-.006m39.332 4.883h2.496c.09-.985.703-1.375 1.652-1.375.88 0 1.618.16 1.618 1.234 0 1.016-1.426.965-2.954 1.192-1.546.214-3.093.703-3.093 2.761 0 1.864 1.37 2.723 3.093 2.723 1.106 0 2.266-.297 3.055-1.125.02.3.094.598.18.879h2.531c-.23-.367-.316-1.192-.316-2.02v-4.726c0-2.184-2.18-2.586-3.993-2.586-2.039 0-4.128.703-4.269 3.043m2.215 3.707c0-.914.703-1.176 1.476-1.336.774-.14 1.653-.156 2.075-.527v.93c0 .546-.07 2.093-2.02 2.093-.812 0-1.531-.23-1.531-1.16m-11.602-3.832c0 1.602 1.441 2.11 2.883 2.426 1.793.386 2.832.648 2.832 1.406 0 .879-.918 1.16-1.637 1.16-.984 0-1.898-.437-1.914-1.531h-2.375c.105 2.41 2.164 3.2 4.273 3.2 2.074 0 4.149-.774 4.149-3.165 0-1.687-1.426-2.21-2.883-2.547-1.426-.332-2.832-.457-2.832-1.351 0-.739.828-.848 1.39-.848.895 0 1.633.266 1.704 1.234h2.37c-.19-2.234-2.019-2.902-4.003-2.902-1.953 0-3.957.598-3.957 2.918m-8.719.125h1.11c.035-1.48 1.054-2.113 2.425-2.113 1.301 0 2.371.37 2.371 1.863 0 1.004-.508 1.125-1.422 1.234-2.39.282-4.867.368-4.867 2.914 0 1.829 1.371 2.657 3.04 2.657 1.738 0 2.53-.668 3.304-1.848h.035c0 .95.176 1.582 1.301 1.582.297 0 .473-.016.719-.066v-.934a1.02 1.02 0 0 1-.352.07c-.437 0-.648-.246-.648-.668v-4.816c0-2.426-1.742-2.918-3.34-2.918-2.074 0-3.566.914-3.676 3.043m.723 3.828c0-1.773 2.336-1.758 4.219-2.09.296-.054.789-.14.93-.406h.034v1.441c.02 1.778-1.476 2.848-3.164 2.848-1.035 0-2.02-.684-2.02-1.793m-9.472-4.887h-.035v-1.719h-1.02v12.426h1.106v-5.082h.035c.477 1.301 1.793 1.989 3.149 1.989 2.757 0 4.078-2.235 4.078-4.801 0-2.563-1.32-4.797-4.078-4.797-1.461 0-2.727.754-3.235 1.984m.051 2.813c0-2.055.738-3.867 3.184-3.867 2.11 0 2.968 1.988 2.968 3.867 0 1.883-.859 3.867-2.968 3.867-2.356 0-3.184-1.984-3.184-3.867m-9.578-2.25c0 1.547 1.09 2.04 2.531 2.43l1.422.312c1.004.246 1.988.602 1.988 1.653 0 1.265-1.441 1.722-2.48 1.722-1.477 0-2.582-.773-2.672-2.265h-1.106c.176 2.214 1.618 3.199 3.723 3.199 1.692 0 3.64-.758 3.64-2.727 0-1.582-1.316-2.32-2.581-2.512l-1.477-.332c-.758-.195-1.883-.546-1.883-1.53 0-1.177 1.16-1.567 2.145-1.567 1.265 0 2.32.617 2.371 1.988h1.11c-.07-1.969-1.512-2.918-3.325-2.918-1.598 0-3.406.703-3.406 2.547m-2.863 6.785h1.105v-9.066h-1.105z"/>
        </clipPath>
        <linearGradient id="c" x1="0" x2="1" gradientTransform="translate(79.832 435.73) scale(62.95)" gradientUnits="userSpaceOnUse">
            <stop stop-color="#009ddf" offset="0"/>
            <stop stop-color="#009ddf" offset=".031"/>
            <stop stop-color="#009ddf" offset=".047"/>
            <stop stop-color="#009cde" offset=".063"/>
            <stop stop-color="#009bde" offset=".078"/>
            <stop stop-color="#009add" offset=".086"/>
            <stop stop-color="#009adc" offset=".094"/>
            <stop stop-color="#0099db" offset=".102"/>
            <stop stop-color="#0099db" offset=".109"/>
            <stop stop-color="#0099db" offset=".125"/>
            <stop stop-color="#0098da" offset=".133"/>
            <stop stop-color="#0097da" offset=".141"/>
            <stop stop-color="#0096d9" offset=".148"/>
            <stop stop-color="#0096d8" offset=".156"/>
            <stop stop-color="#0095d7" offset=".164"/>
            <stop stop-color="#0095d7" offset=".172"/>
            <stop stop-color="#0094d6" offset=".188"/>
            <stop stop-color="#0093d5" offset=".195"/>
            <stop stop-color="#0092d4" offset=".203"/>
            <stop stop-color="#0091d3" offset=".211"/>
            <stop stop-color="#0090d2" offset=".219"/>
            <stop stop-color="#0090d2" offset=".227"/>
            <stop stop-color="#008fd1" offset=".234"/>
            <stop stop-color="#008ed0" offset=".242"/>
            <stop stop-color="#008ecf" offset=".25"/>
            <stop stop-color="#008dcf" offset=".258"/>
            <stop stop-color="#008dce" offset=".266"/>
            <stop stop-color="#008ccd" offset=".273"/>
            <stop stop-color="#008bcd" offset=".281"/>
            <stop stop-color="#008acc" offset=".289"/>
            <stop stop-color="#0089cb" offset=".297"/>
            <stop stop-color="#0088ca" offset=".305"/>
            <stop stop-color="#0088c9" offset=".313"/>
            <stop stop-color="#0087c8" offset=".32"/>
            <stop stop-color="#0086c7" offset=".328"/>
            <stop stop-color="#0085c6" offset=".336"/>
            <stop stop-color="#0084c5" offset=".344"/>
            <stop stop-color="#0083c4" offset=".352"/>
            <stop stop-color="#0082c3" offset=".359"/>
            <stop stop-color="#0081c2" offset=".367"/>
            <stop stop-color="#0080c1" offset=".375"/>
            <stop stop-color="#0080c0" offset=".383"/>
            <stop stop-color="#007ebf" offset=".387"/>
            <stop stop-color="#007ebe" offset=".391"/>
            <stop stop-color="#007dbe" offset=".395"/>
            <stop stop-color="#007cbd" offset=".398"/>
            <stop stop-color="#007cbc" offset=".402"/>
            <stop stop-color="#007bbc" offset=".406"/>
            <stop stop-color="#007bbb" offset=".41"/>
            <stop stop-color="#007aba" offset=".414"/>
            <stop stop-color="#007aba" offset=".422"/>
            <stop stop-color="#007aba" offset=".43"/>
            <stop stop-color="#0079b9" offset=".434"/>
            <stop stop-color="#0078b8" offset=".438"/>
            <stop stop-color="#0077b7" offset=".441"/>
            <stop stop-color="#0076b6" offset=".445"/>
            <stop stop-color="#0076b6" offset=".453"/>
            <stop stop-color="#0075b5" offset=".457"/>
            <stop stop-color="#0074b4" offset=".461"/>
            <stop stop-color="#0074b4" offset=".465"/>
            <stop stop-color="#0073b3" offset=".469"/>
            <stop stop-color="#0073b2" offset=".473"/>
            <stop stop-color="#0072b1" offset=".477"/>
            <stop stop-color="#0072b1" offset=".484"/>
            <stop stop-color="#0071b0" offset=".492"/>
            <stop stop-color="#0070af" offset=".496"/>
            <stop stop-color="#006fae" offset=".5"/>
            <stop stop-color="#006eae" offset=".504"/>
            <stop stop-color="#006eae" offset=".508"/>
            <stop stop-color="#006dad" offset=".516"/>
            <stop stop-color="#006cac" offset=".523"/>
            <stop stop-color="#006bab" offset=".527"/>
            <stop stop-color="#006aaa" offset=".531"/>
            <stop stop-color="#0069a9" offset=".535"/>
            <stop stop-color="#0069a9" offset=".539"/>
            <stop stop-color="#0068a8" offset=".543"/>
            <stop stop-color="#0068a7" offset=".547"/>
            <stop stop-color="#0067a6" offset=".551"/>
            <stop stop-color="#0067a6" offset=".555"/>
            <stop stop-color="#0066a5" offset=".559"/>
            <stop stop-color="#0066a5" offset=".563"/>
            <stop stop-color="#0065a4" offset=".57"/>
            <stop stop-color="#0064a3" offset=".574"/>
            <stop stop-color="#0063a2" offset=".578"/>
            <stop stop-color="#0062a1" offset=".582"/>
            <stop stop-color="#0062a1" offset=".586"/>
            <stop stop-color="#0061a0" offset=".59"/>
            <stop stop-color="#0061a0" offset=".594"/>
            <stop stop-color="#00609f" offset=".602"/>
            <stop stop-color="#005f9e" offset=".605"/>
            <stop stop-color="#005e9d" offset=".609"/>
            <stop stop-color="#005e9d" offset=".613"/>
            <stop stop-color="#005d9c" offset=".617"/>
            <stop stop-color="#005c9b" offset=".621"/>
            <stop stop-color="#005b9a" offset=".625"/>
            <stop stop-color="#005b9a" offset=".629"/>
            <stop stop-color="#005a99" offset=".633"/>
            <stop stop-color="#005998" offset=".637"/>
            <stop stop-color="#005997" offset=".641"/>
            <stop stop-color="#005897" offset=".645"/>
            <stop stop-color="#005896" offset=".648"/>
            <stop stop-color="#005795" offset=".652"/>
            <stop stop-color="#005695" offset=".656"/>
            <stop stop-color="#005694" offset=".66"/>
            <stop stop-color="#005594" offset=".664"/>
            <stop stop-color="#005493" offset=".668"/>
            <stop stop-color="#005492" offset=".672"/>
            <stop stop-color="#005391" offset=".676"/>
            <stop stop-color="#005290" offset=".68"/>
            <stop stop-color="#005190" offset=".684"/>
            <stop stop-color="#00518f" offset=".688"/>
            <stop stop-color="#00508e" offset=".691"/>
            <stop stop-color="#004f8e" offset=".695"/>
            <stop stop-color="#004e8d" offset=".699"/>
            <stop stop-color="#004e8d" offset=".703"/>
            <stop stop-color="#004d8c" offset=".707"/>
            <stop stop-color="#004d8b" offset=".711"/>
            <stop stop-color="#004c8a" offset=".715"/>
            <stop stop-color="#004c8a" offset=".719"/>
            <stop stop-color="#004b89" offset=".723"/>
            <stop stop-color="#004a88" offset=".727"/>
            <stop stop-color="#004987" offset=".73"/>
            <stop stop-color="#004987" offset=".734"/>
            <stop stop-color="#004886" offset=".738"/>
            <stop stop-color="#004785" offset=".742"/>
            <stop stop-color="#004685" offset=".746"/>
            <stop stop-color="#004684" offset=".75"/>
            <stop stop-color="#004584" offset=".754"/>
            <stop stop-color="#004483" offset=".758"/>
            <stop stop-color="#004482" offset=".762"/>
            <stop stop-color="#004382" offset=".766"/>
            <stop stop-color="#004281" offset=".77"/>
            <stop stop-color="#004180" offset=".773"/>
            <stop stop-color="#004180" offset=".777"/>
            <stop stop-color="#00407f" offset=".781"/>
            <stop stop-color="#00407e" offset=".785"/>
            <stop stop-color="#003f7d" offset=".789"/>
            <stop stop-color="#003e7d" offset=".793"/>
            <stop stop-color="#003e7c" offset=".797"/>
            <stop stop-color="#003d7b" offset=".801"/>
            <stop stop-color="#003c7a" offset=".805"/>
            <stop stop-color="#003c7a" offset=".809"/>
            <stop stop-color="#003b79" offset=".813"/>
            <stop stop-color="#003a79" offset=".816"/>
            <stop stop-color="#003978" offset=".82"/>
            <stop stop-color="#003978" offset=".824"/>
            <stop stop-color="#003877" offset=".828"/>
            <stop stop-color="#003776" offset=".832"/>
            <stop stop-color="#003776" offset=".836"/>
            <stop stop-color="#003675" offset=".84"/>
            <stop stop-color="#003574" offset=".844"/>
            <stop stop-color="#003473" offset=".848"/>
            <stop stop-color="#003473" offset=".852"/>
            <stop stop-color="#003372" offset=".855"/>
            <stop stop-color="#003271" offset=".859"/>
            <stop stop-color="#003271" offset=".867"/>
            <stop stop-color="#003170" offset=".871"/>
            <stop stop-color="#00306f" offset=".875"/>
            <stop stop-color="#002f6f" offset=".879"/>
            <stop stop-color="#002f6e" offset=".883"/>
            <stop stop-color="#002e6e" offset=".887"/>
            <stop stop-color="#002d6d" offset=".891"/>
            <stop stop-color="#002c6c" offset=".895"/>
            <stop stop-color="#002c6c" offset=".898"/>
            <stop stop-color="#002b6b" offset=".902"/>
            <stop stop-color="#002a6a" offset=".906"/>
            <stop stop-color="#002a69" offset=".91"/>
            <stop stop-color="#002969" offset=".914"/>
            <stop stop-color="#002968" offset=".918"/>
            <stop stop-color="#002867" offset=".922"/>
            <stop stop-color="#002867" offset=".926"/>
            <stop stop-color="#002766" offset=".93"/>
            <stop stop-color="#002666" offset=".934"/>
            <stop stop-color="#002565" offset=".938"/>
            <stop stop-color="#002565" offset=".941"/>
            <stop stop-color="#012464" offset=".945"/>
            <stop stop-color="#012363" offset=".949"/>
            <stop stop-color="#022262" offset=".953"/>
            <stop stop-color="#032262" offset=".957"/>
            <stop stop-color="#042161" offset=".961"/>
            <stop stop-color="#052061" offset=".965"/>
            <stop stop-color="#071f60" offset=".969"/>
            <stop stop-color="#081f60" offset=".973"/>
            <stop stop-color="#091e5f" offset=".977"/>
            <stop stop-color="#0a1d5e" offset=".98"/>
            <stop stop-color="#0b1c5d" offset=".984"/>
            <stop stop-color="#0b1c5d" offset=".988"/>
            <stop stop-color="#0c1b5c" offset=".992"/>
            <stop stop-color="#0d1a5c" offset=".996"/>
            <stop stop-color="#0d195b" offset="1"/>
        </linearGradient>
    </defs>
    <path d="M177.453 136.65h3.216v2.93h-3.216v7.916c0 1.484.37 1.855 1.855 1.855.466 0 .894-.028 1.36-.124v3.435c-.741.123-1.702.152-2.568.152-2.683 0-5.042-.62-5.042-3.806v-9.428h-2.655v-2.93h2.655v-4.795h4.395zM191.609 152.63h-4.88l-5.471-15.974h4.605l3.367 10.912h.07l3.367-10.912h4.358z" fill="#9c9c9e"/>
    <g transform="translate(-191.904 -920.63) scale(2.4355)" clip-path="url(#a)">
        <g clip-path="url(#b)">
            <path d="M79.832 427.77v15.906h62.949V427.77z" fill="url(#c)"/>
        </g>
    </g>
    <path d="M97.652 113.156h12.063v-12.063H97.652zM97.652 89.02h12.063V76.957H97.652z" fill="#fff" fill-rule="evenodd"/>
    <g transform="translate(-191.904 -920.63) scale(2.4355)" clip-path="url(#d)">
        <g clip-path="url(#e)">
            <path d="M78.02 378v48.129h82.895V378z" fill="url(#f)"/>
        </g>
    </g>
    <path d="M121.788 89.02h-12.073v12.073h12.073z" fill="#fff" fill-rule="evenodd"/>
    <path d="M109.716 101.093H97.653v12.063h12.063z" fill="#009cde" fill-rule="evenodd"/>
    <path d="M109.716 76.956H97.653v12.063h12.063z" fill="#e10019" fill-rule="evenodd"/>
    <path d="M121.788 89.02h-12.073v12.073h12.073z" fill="#3fa628" fill-rule="evenodd"/>
</svg>
