<svg width="250.272" height="261.617" fill="none" xmlns="http://www.w3.org/2000/svg"><defs><linearGradient id="a" x1="74.14" y1="279.983" x2="363.132" y2="97.38" gradientUnits="userSpaceOnUse"><stop stop-color="#DD972C"/><stop offset=".265" stop-color="#F8CB45"/><stop offset=".655" stop-color="#F2AC2F"/><stop offset="1" stop-color="#FDDB50"/></linearGradient><linearGradient id="c" x1="71.693" y1="170.997" x2="362.743" y2="270.635" gradientUnits="userSpaceOnUse"><stop stop-color="#DD972C"/><stop offset=".265" stop-color="#B55727"/><stop offset=".485" stop-color="#F2AC2F"/><stop offset=".826" stop-color="#E5B544"/><stop offset="1" stop-color="#FDDB50"/></linearGradient><linearGradient id="e" x1="41.359" y1="183.55" x2="390.693" y2="183.55" gradientUnits="userSpaceOnUse"><stop offset=".207" stop-color="#EE9322"/><stop offset=".401" stop-color="#F2AC2F"/><stop offset=".666" stop-color="#F8CB45"/><stop offset=".875" stop-color="#FCDE54"/><stop offset="1" stop-color="#FEE55A"/></linearGradient><linearGradient id="g" x1="306.737" y1="334.305" x2="214.572" y2="182.23" gradientUnits="userSpaceOnUse"><stop offset=".433" stop-color="#B55727"/><stop offset=".46" stop-color="#BD6829" stop-opacity=".961"/><stop offset=".514" stop-color="#CB8331" stop-opacity=".883"/><stop offset=".572" stop-color="#D89D3A" stop-opacity=".8"/><stop offset=".634" stop-color="#E4B442" stop-opacity=".711"/><stop offset=".701" stop-color="#EEC749" stop-opacity=".616"/><stop offset=".774" stop-color="#F6D54E" stop-opacity=".51"/><stop offset=".861" stop-color="#FCDE52" stop-opacity=".387"/><stop offset=".991" stop-color="#FEE153" stop-opacity=".2"/></linearGradient><linearGradient id="i" x1="216.026" y1="313.495" x2="216.026" y2="182.119" gradientUnits="userSpaceOnUse"><stop stop-color="#B55727" stop-opacity=".7"/><stop offset=".144" stop-color="#BF6C2A" stop-opacity=".642"/><stop offset=".553" stop-color="#DCA43C" stop-opacity=".477"/><stop offset=".846" stop-color="#F2CE4C" stop-opacity=".358"/><stop offset=".991" stop-color="#FEE153" stop-opacity=".3"/></linearGradient><linearGradient id="k" x1="65.167" y1="357.525" x2="151.51" y2="9.512" gradientUnits="userSpaceOnUse"><stop stop-color="#B55727" stop-opacity=".7"/><stop offset=".418" stop-color="#BF6C2A" stop-opacity=".642"/><stop offset=".846" stop-color="#F2CE4C" stop-opacity=".358"/><stop offset=".991" stop-color="#FEE153" stop-opacity=".3"/></linearGradient><linearGradient id="b" x1="74.14" y1="279.983" x2="363.132" y2="97.38" gradientUnits="userSpaceOnUse" gradientTransform="matrix(.5236 0 0 .5236 11.798 -.186)"><stop stop-color="#DD972C"/><stop offset=".265" stop-color="#F8CB45"/><stop offset=".655" stop-color="#F2AC2F"/><stop offset="1" stop-color="#FDDB50"/></linearGradient><linearGradient id="d" x1="71.693" y1="170.997" x2="362.743" y2="270.635" gradientUnits="userSpaceOnUse" gradientTransform="matrix(.5236 0 0 .5236 11.798 -.186)"><stop stop-color="#DD972C"/><stop offset=".265" stop-color="#B55727"/><stop offset=".485" stop-color="#F2AC2F"/><stop offset=".826" stop-color="#E5B544"/><stop offset="1" stop-color="#FDDB50"/></linearGradient><linearGradient id="f" x1="41.359" y1="183.55" x2="390.693" y2="183.55" gradientUnits="userSpaceOnUse" gradientTransform="matrix(.5236 0 0 .5236 11.798 -.186)"><stop offset=".207" stop-color="#EE9322"/><stop offset=".401" stop-color="#F2AC2F"/><stop offset=".666" stop-color="#F8CB45"/><stop offset=".875" stop-color="#FCDE54"/><stop offset="1" stop-color="#FEE55A"/></linearGradient><linearGradient id="h" x1="306.737" y1="334.305" x2="214.572" y2="182.23" gradientUnits="userSpaceOnUse" gradientTransform="matrix(.5236 0 0 .5236 11.798 -.186)"><stop offset=".433" stop-color="#B55727"/><stop offset=".46" stop-color="#BD6829" stop-opacity=".961"/><stop offset=".514" stop-color="#CB8331" stop-opacity=".883"/><stop offset=".572" stop-color="#D89D3A" stop-opacity=".8"/><stop offset=".634" stop-color="#E4B442" stop-opacity=".711"/><stop offset=".701" stop-color="#EEC749" stop-opacity=".616"/><stop offset=".774" stop-color="#F6D54E" stop-opacity=".51"/><stop offset=".861" stop-color="#FCDE52" stop-opacity=".387"/><stop offset=".991" stop-color="#FEE153" stop-opacity=".2"/></linearGradient><linearGradient id="j" x1="216.026" y1="313.495" x2="216.026" y2="182.119" gradientUnits="userSpaceOnUse" gradientTransform="matrix(.5236 0 0 .5236 11.798 -.186)"><stop stop-color="#B55727" stop-opacity=".7"/><stop offset=".144" stop-color="#BF6C2A" stop-opacity=".642"/><stop offset=".553" stop-color="#DCA43C" stop-opacity=".477"/><stop offset=".846" stop-color="#F2CE4C" stop-opacity=".358"/><stop offset=".991" stop-color="#FEE153" stop-opacity=".3"/></linearGradient><linearGradient id="l" x1="65.167" y1="357.525" x2="151.51" y2="9.512" gradientUnits="userSpaceOnUse" gradientTransform="matrix(.5236 0 0 .5236 11.798 -.186)"><stop stop-color="#B55727" stop-opacity=".7"/><stop offset=".418" stop-color="#BF6C2A" stop-opacity=".642"/><stop offset=".846" stop-color="#F2CE4C" stop-opacity=".358"/><stop offset=".991" stop-color="#FEE153" stop-opacity=".3"/></linearGradient></defs><path d="M32.703 191.841v-3.409l1.467-.012c.035 0 .11.006.209.006 2.963 0 5.832-1.193 8.32-2.718 3.212-1.974 4.933-5.426 5.484-9.077.128-.844.215-1.706.186-2.562 0 0 0-2.853-.006-2.853V17.19c-.07-1.875-.702-8.128-5.804-11.08-3.838-2.445-7.23-2.637-8.174-2.637-.099 0-.169 0-.21.006l-1.582-.03V.06h74.481v3.397l-1.015.023c-.04 0-.104-.006-.203-.006-.945 0-4.33.192-8.197 2.65-5.097 2.95-5.682 9.227-5.746 11.079l-.03 2.62-.005.733v1.624l.07 45.98h65.903l.07-45.974s0-2.358-.006-2.358v-2.596c-.064-1.88-.673-8.151-5.804-11.12-3.838-2.446-7.224-2.638-8.175-2.638-.098 0-.168 0-.202.006l-1.015-.023.006-3.456h74.492l-.006 3.45-1.6.029c-.035 0-.104-.006-.209-.006-.945 0-4.33.192-8.197 2.65-5.08 2.94-5.705 9.192-5.775 11.038v154.055h-.011v2.876c-.012.309-.215 8.21 5.809 11.697 3.838 2.445 7.224 2.637 8.169 2.637.104 0 .174 0 .209-.006l1.606.018v3.409H142.708l.028-3.48h1.004c.028 0 .087.007.173.007.946 0 4.308-.117 8.21-2.597 4.725-2.73 5.595-8.308 5.751-10.578v-.053l.023-65.431H91.676l-.134 64.441.064 1.817c.15 2.27 1.298 7.47 6.053 10.218 3.838 2.445 7.05 2.23 7.995 2.23.104 0 .174 0 .208-.007l.9.012v3.409H32.702ZM67.9 174.32h3.41V90.534h107.007v83.826h3.416V14.6h-3.416v72.665H71.31v-72.66H67.9z" fill="url(#a)" fill-opacity=".3" style="fill:url(#b);stroke-width:.523606"/><path d="M32.703 191.841v-3.409l1.467-.012c.035 0 .11.006.209.006 2.963 0 5.832-1.193 8.32-2.718 3.212-1.974 4.933-5.426 5.484-9.077.128-.844.215-1.706.186-2.562 0 0 0-2.853-.006-2.853V17.19c-.07-1.875-.702-8.128-5.804-11.08-3.838-2.445-7.23-2.637-8.174-2.637-.099 0-.169 0-.21.006l-1.582-.03V.06h74.481v3.397l-1.015.023c-.04 0-.104-.006-.203-.006-.945 0-4.33.192-8.197 2.65-5.097 2.95-5.682 9.227-5.746 11.079l-.03 2.62-.005.733v1.624l.07 45.98h65.903l.07-45.974s0-2.358-.006-2.358v-2.596c-.064-1.88-.673-8.151-5.804-11.12-3.838-2.446-7.224-2.638-8.175-2.638-.098 0-.168 0-.202.006l-1.015-.023.006-3.456h74.492l-.006 3.45-1.6.029c-.035 0-.104-.006-.209-.006-.945 0-4.33.192-8.197 2.65-5.08 2.94-5.705 9.192-5.775 11.038v154.055h-.011v2.876c-.012.309-.215 8.21 5.809 11.697 3.838 2.445 7.224 2.637 8.169 2.637.104 0 .174 0 .209-.006l1.606.018v3.409H142.708l.028-3.48h1.004c.028 0 .087.007.173.007.946 0 4.308-.117 8.21-2.597 4.725-2.73 5.595-8.308 5.751-10.578v-.053l.023-65.431H91.676l-.134 64.441.064 1.817c.15 2.27 1.298 7.47 6.053 10.218 3.838 2.445 7.05 2.23 7.995 2.23.104 0 .174 0 .208-.007l.9.012v3.409H32.702ZM67.9 174.32h3.41V90.534h107.007v83.826h3.416V14.6h-3.416v72.665H71.31v-72.66H67.9z" fill="url(#c)" fill-opacity=".6" style="fill:url(#d);stroke-width:.523606"/><path d="M249.831 204.69H0v4.086h249.831z" fill="#ee2d2b" style="stroke-width:.550572"/><path d="M33.568 190.983v-1.694l1.467-.012c.034 0 .11.006.208.006.945 0 4.337-.192 8.198-2.649 6-3.47 5.792-11.37 5.786-11.708v-2.853h-.006V16.332c-.07-1.875-.701-8.128-5.803-11.08-3.838-2.445-7.23-2.637-8.175-2.637-.098 0-.168 0-.209.006l-1.582-.029V.915h72.772v1.683l-1.015.023c-.04 0-.104-.006-.203-.006-.945 0-4.33.192-8.198 2.65-5.095 2.95-5.687 9.221-5.751 11.079l-.023 2.62-.006.733v1.624l.07 47.695h67.612l.07-47.689V18.97h-.007v-2.596c-.063-1.88-.672-8.151-5.803-11.12-3.838-2.446-7.224-2.638-8.175-2.638-.098 0-.168 0-.203.006l-1.014-.023-.006-1.73h72.784l.006 1.724-1.6.03c-.035 0-.105-.007-.209-.007-.945 0-4.33.192-8.198 2.65-5.078 2.94-5.705 9.192-5.774 11.038v155.77h-.012v2.876c-.011.309-.214 8.21 5.81 11.697 3.837 2.445 7.223 2.637 8.168 2.637.105 0 .174 0 .209-.006l1.606.017v1.695H143.566V189.3h1.004c.028 0 .086.006.173.006.946 0 4.337-.192 8.233-2.673 4.725-2.73 5.595-8.308 5.751-10.579v-.052l.023-67.146H90.831l.023 67.17v.022c.151 2.271 1.02 7.849 5.775 10.597 3.838 2.445 7.223 2.637 8.168 2.637.105 0 .174 0 .21-.006l1.008.012v1.694zm33.487-15.807h5.12V91.39h105.297v83.827h5.125V13.74h-5.125v72.665H72.174v-72.66h-5.119z" fill="url(#e)" style="fill:url(#f);stroke-width:.523606"/><path d="M33.568 190.984v-1.695l1.467-.011c.034 0 .11.006.208.006.945 0 4.337-.192 8.198-2.649 6-3.47 5.792-11.37 5.786-11.708v-2.854h-.006V16.333c-.07-1.875-.701-8.128-5.803-11.08-3.838-2.445-7.23-2.637-8.175-2.637-.098 0-.168 0-.209.006l-1.582-.03V.917h72.772v1.682l-1.015.024c-.04 0-.104-.006-.203-.006-.945 0-4.33.192-8.198 2.649-5.095 2.952-5.681 9.228-5.745 11.08l-.029 2.62-.006.733v1.624l.07 47.695h67.612l.07-47.689V18.97h-.007v-2.597c-.064-1.88-.672-8.15-5.803-11.12-3.838-2.445-7.224-2.637-8.175-2.637-.098 0-.168 0-.203.006l-1.014-.024.006-1.74h72.783l-.006 1.735-1.6.029c-.035 0-.104-.006-.208-.006-.945 0-4.331.192-8.198 2.649-5.079 2.94-5.705 9.193-5.775 11.038v155.77h-.011v2.877c-.012.309-.215 8.209 5.809 11.696 3.838 2.446 7.224 2.638 8.169 2.638.104 0 .174 0 .208-.006l1.606.017v1.695h-72.795l.03-1.764h1.002c.03 0 .087.006.174.006.945 0 4.307-.117 8.21-2.597 4.724-2.73 5.594-8.308 5.75-10.579v-.052l.024-67.147H90.831l.023 67.17v.023c.15 2.27 1.02 7.849 5.774 10.597 3.838 2.445 7.224 2.637 8.169 2.637.105 0 .174 0 .209-.006l1.009.011v1.695zm33.487-15.807h5.12V91.39h105.297v83.826h5.125V13.741h-5.125v72.666H72.174v-72.66h-5.119z" fill="url(#g)" style="fill:url(#h);stroke-width:.523606"/><path d="M33.568 190.984v-1.695l1.466-.011c.035 0 .11.006.21.006 2.962 0 5.832-1.194 8.319-2.72 3.212-1.973 4.934-5.425 5.484-9.076.128-.844.215-1.706.186-2.561 0 0 0-2.854-.006-2.854V16.333c-.07-1.875-.702-8.128-5.804-11.08-3.838-2.445-7.23-2.637-8.174-2.637-.099 0-.168 0-.209.006l-1.583-.03V.917h72.772v1.682l-1.014.024c-.04 0-.104-.006-.203-.006-.945 0-4.331.192-8.198 2.649-5.096 2.952-5.682 9.228-5.746 11.08l-.028 2.62-.006.733v1.624l.07 47.695h67.612l.07-47.689s0-2.358-.007-2.358v-2.597c-.064-1.88-.673-8.15-5.804-11.12-3.838-2.445-7.224-2.637-8.174-2.637-.1 0-.169 0-.203.006l-1.015-.024.006-1.74h72.784l-.006 1.735-1.6.029c-.035 0-.104-.006-.209-.006-.945 0-4.33.192-8.198 2.649-5.079 2.94-5.704 9.193-5.774 11.038v155.77h-.012v2.877c-.012.309-.214 8.209 5.81 11.696 3.837 2.446 7.224 2.638 8.168 2.638.105 0 .174 0 .209-.006l1.606.017v1.695h-72.795l.03-1.764h1.002c.03 0 .087.006.174.006.945 0 4.308-.117 8.21-2.597 4.725-2.73 5.594-8.308 5.751-10.579v-.052l.023-67.147H90.831l-.133 66.157.063 1.816c.151 2.27 1.3 7.47 6.053 10.218 3.838 2.445 7.05 2.23 7.995 2.23.104 0 .174 0 .21-.006l.898.012v1.694h-72.35Zm33.487-15.807h5.12V91.39H177.47v83.826h5.126V13.741h-5.126v72.666H72.174v-72.66h-5.119z" fill="url(#i)" style="fill:url(#j);stroke-width:.523606"/><path d="M33.568 190.984v-1.695l1.467-.011c.035 0 .11.006.209.006 2.962 0 5.832-1.194 8.32-2.72 3.211-1.973 4.933-5.425 5.484-9.076.127-.844.214-1.706.185-2.561 0 0 0-2.854-.006-2.854V16.333c-.07-1.875-.701-8.128-5.803-11.08-3.838-2.445-7.23-2.637-8.175-2.637-.098 0-.168 0-.208.006l-1.583-.03V.917h72.772v1.682l-1.015.024c-.04 0-.104-.006-.202-.006-.945 0-4.332.192-8.198 2.649-5.097 2.951-5.682 9.228-5.746 11.079l-.029 2.62-.006.734v1.624l.07 47.695h67.612l.07-47.69s0-2.357-.007-2.357v-2.597c-.063-1.88-.672-8.15-5.803-11.12-3.838-2.445-7.224-2.637-8.175-2.637-.098 0-.168 0-.203.006l-1.014-.024.006-1.74h72.784l-.006 1.734-1.6.03c-.035 0-.105-.006-.21-.006-.944 0-4.33.192-8.197 2.649-5.08 2.94-5.705 9.193-5.774 11.038v155.77h-.012v2.876c-.012.31-.215 8.21 5.809 11.697 3.838 2.446 7.224 2.638 8.169 2.638.104 0 .174 0 .209-.006l1.606.017v1.694H143.572l.029-1.764h1.003c.029 0 .087.006.174.006.945 0 4.308-.116 8.21-2.596 4.725-2.73 5.594-8.308 5.75-10.58v-.052l.024-67.146H90.83l-.134 66.157.064 1.816c.151 2.27 1.3 7.47 6.053 10.218 3.838 2.445 7.05 2.23 7.995 2.23.104 0 .174 0 .209-.006l.898.011v1.695H33.567zm33.488-15.807h5.119V91.39h105.297v83.826h5.125V13.741h-5.125v72.666H72.175v-72.66h-5.12Z" fill="url(#k)" style="fill:url(#l);stroke-width:.523606"/><g style="fill:#fff"><path d="M335.62 722.325H351v-14.951h8.291v38.612h-8.29v-15.72H335.62v15.72h-8.291v-38.612h8.29zM374.864 745.986h-8.297v-38.612h8.297zM394.355 721.55l4.998 1.933c6.152 2.317 9.12 5.846 9.12 11.028 0 7.725-6.43 12.19-13.567 12.19-6.371 0-11.972-3.365-14.39-9.49l7.085-3.807c1.322 3.313 4.065 5.52 7.416 5.52 2.695 0 4.945-1.38 4.945-3.86 0-1.88-1.264-3.144-4.012-4.14l-4.615-1.654c-5.6-2.043-9.172-5.46-9.172-11.032 0-7.004 5.322-11.586 12.575-11.586 5.717 0 10.714 3.144 13.074 8.331l-6.864 3.97c-1.154-2.59-3.183-4.634-6.042-4.634-2.527 0-4.284 1.38-4.284 3.424 0 1.822 1.374 2.928 3.733 3.807zM421.912 715.094h-10.158v-7.72h28.56v7.72h-10.106v30.892h-8.296z" fill="#000" style="fill:#fff;stroke-width:.523606" transform="translate(-324.105 -485.085)"/><path fill-rule="evenodd" clip-rule="evenodd" d="M442.215 726.68c0-11.138 8.952-20.023 20.1-20.023 11.15 0 20.101 8.88 20.101 20.022 0 11.144-8.952 20.023-20.1 20.023-11.15 0-20.1-8.879-20.1-20.023zm8.459 0c0 6.672 5.108 11.97 11.642 11.97s11.647-5.298 11.642-11.97c0-6.672-5.108-11.97-11.642-11.97s-11.642 5.298-11.642 11.97zM500.679 707.374c8.29 0 14.06 4.465 14.06 12.354 0 5.52-3.3 9.38-7.903 11.143l10.598 15.115h-9.723l-9.45-14.125h-2.197v14.125h-8.186v-38.612zm-4.615 17.652h4.667c3.293 0 5.71-1.933 5.71-5.13 0-3.254-2.417-5.076-5.71-5.076h-4.667z" fill="#000" style="fill:#fff;stroke-width:.523606" transform="translate(-324.105 -485.085)"/><path d="M531.73 745.986h-8.296v-38.612h8.297z" fill="#000" style="fill:#fff;stroke-width:.523606" transform="translate(-324.105 -485.085)"/><path style="fill:#fff;fill-opacity:1;fill-rule:evenodd;stroke:none;stroke-width:1px;stroke-linecap:butt;stroke-linejoin:miter;stroke-opacity:1" d="m551.65 707.374-15.238 38.611h7.977l2.847-7.455h16.317l2.847 7.455h7.977l-15.238-38.611zm3.745 9.8 4.988 13.061h-9.977z" transform="translate(-324.105 -485.085)"/><path style="fill:#fff;fill-rule:evenodd;stroke-width:2.5981;stroke-linecap:round;stroke-linejoin:round" d="m462.316 719.56-9.46-14.652h18.919z" transform="translate(-324.105 -485.085)"/></g></svg>