<svg width="1066.7" height="645.57" version="1.1" viewBox="0 0 1066.7 956.4" xmlns="http://www.w3.org/2000/svg" xmlns:xlink="http://www.w3.org/1999/xlink">
 <desc>Created with Sketch.</desc>
 <defs>
  <linearGradient id="k" x1="-26.106" x2="61.163" y1="-47.711" y2="36.189" gradientTransform="scale(1.4407 .6941)" gradientUnits="userSpaceOnUse">
   <stop stop-color="#55519E" offset="0"/>
   <stop stop-color="#1F1D51" offset="1"/>
  </linearGradient>
  <linearGradient id="i" x1="-33.415" x2="38.241" y1="22.37" y2="124.55" gradientTransform="scale(1.7546 .56992)" gradientUnits="userSpaceOnUse">
   <stop stop-color="#55519E" offset="0"/>
   <stop stop-color="#1F1D51" offset="1"/>
  </linearGradient>
  <linearGradient id="h" x1="-.17476" x2="3.0346" y1=".30156" y2="1.5343">
   <stop stop-color="#1F1D51" offset="0"/>
   <stop stop-color="#55519E" offset="1"/>
  </linearGradient>
  <linearGradient id="g" x1="72.998" x2="91.657" y1="9.1267" y2="12.57" gradientTransform="scale(.6302 1.5868)" gradientUnits="userSpaceOnUse">
   <stop stop-color="#1F1D51" offset="0"/>
   <stop stop-color="#55519E" offset="1"/>
  </linearGradient>
  <radialGradient id="b" cx="54.547" cy="44.704" r="109.38" gradientTransform="scale(1.2925 .7737)" gradientUnits="userSpaceOnUse">
   <stop stop-color="#1A1396" offset="0"/>
   <stop stop-color="#191471" offset=".42128"/>
   <stop stop-color="#0A054C" offset="1"/>
  </radialGradient>
  <linearGradient id="f" x1="123.58" x2="167.08" y1="23.189" y2="32.94" gradientTransform="scale(.74949 1.3342)" gradientUnits="userSpaceOnUse">
   <stop stop-color="#2F198D" offset="0"/>
   <stop stop-color="#43379C" offset="1"/>
  </linearGradient>
  <linearGradient id="e" x1="89.013" x2="64.91" y1="48.282" y2="17.83" gradientTransform="scale(1.4404 .69423)" gradientUnits="userSpaceOnUse">
   <stop stop-color="#0F0656" offset="0"/>
   <stop stop-color="#1A1573" offset="1"/>
  </linearGradient>
  <linearGradient id="d" x1="38.202" x2="70.583" y1="95.446" y2="135.61" gradientTransform="scale(1.7384 .57526)" gradientUnits="userSpaceOnUse">
   <stop stop-color="#1B1676" offset="0"/>
   <stop stop-color="#201C51" offset="1"/>
  </linearGradient>
  <linearGradient id="c" x1="94.494" x2="128.07" y1="8.5921" y2="28.144" gradientTransform="scale(1.0449 .95704)" gradientUnits="userSpaceOnUse">
   <stop stop-color="#2C198F" offset="0"/>
   <stop stop-color="#42379C" offset="1"/>
  </linearGradient>
  <linearGradient id="j" x1="66.581" x2="10.214" y1="33.256" y2="45.962" gradientTransform="scale(1.3455 .74323)" gradientUnits="userSpaceOnUse">
   <stop stop-color="#F82964" offset="0"/>
   <stop stop-color="#F60038" offset="1"/>
  </linearGradient>
  <linearGradient id="a" x1="-.99683" x2="20.694" y1="2.4921" y2="10.824" gradientTransform="scale(.90917 1.0999)" gradientUnits="userSpaceOnUse" xlink:href="#h"/>
 </defs>
 <g transform="translate(466.43 437.71)" fill="none" fill-rule="evenodd">
  <g transform="matrix(11.809,0,0,11.809,-3699.1,-886.45)">
   <g transform="translate(200,23)">
    <g transform="translate(52,15)">
     <g transform="translate(55,13)" fill-rule="nonzero">
      <path d="M 78.369,19.561 43.166,0 34.76,1.4489 69.963,21.01 Z" fill="url(#k)"/>
      <path d="M 70.689,62.806 35.485,45.028 0,51.214 37.291,67.989 Z" fill="url(#i)"/>
     </g>
     <g fill-rule="nonzero">
      <g transform="translate(13.407,14.424)" fill="url(#a)">
       <path d="m6.3123 4.0498-6.1447-3.5505 4.2454 7.4338z" fill="url(#a)"/>
      </g>
      <path d="m48.711 22.69 5.53-10.652-5.53-3.2728z" fill="url(#g)"/>
      <path d="m69.547 17.309v-10.485l-2.235-1.276v36.336l-11.73 2.053v-13.869l-7.933 15.256-10.669 1.886v-34.894l-2.011-1.11-10.278 19.306 10.892 16.92-12.848 2.275-4.915-8.044-4.86 9.708-12.792 2.274h0.05586l36.869 17.198 10.725-1.775 2.849-5.27 6.982 3.55 4.916-0.888 29.662 13.426 33.074-5.16v-16.753l-3.63-1.831 3.63-0.666v-22.301l8.32-1.443v-11.65l-34.858-20.082v12.205l-8.323 1.442v24.132l-12.569 2.219v-24.132z" fill="url(#b)"/>
      <g transform="translate(55.302,40.498)" fill="#f82964">
       <path d="m0.50275 23.023 35.136-6.158v-16.754l-35.136 6.1578z"/>
      </g>
     </g>
     <path d="m91.136 13.61 34.084 19.471v22.372l-3.04 0.622 3.04 1.993v16.223l-34.084-16.992z" fill="url(#f)"/>
     <path d="m133.81 32.306-34.636-19.928-9.23 1.677 35.466 19.463z" fill="url(#e)" fill-rule="nonzero"/>
     <path d="m125.76 75.45-34.42-17.501-35.199 6.206 37.046 16.831z" fill="url(#d)" fill-rule="nonzero"/>
     <path d="m133.82 32.243-35.084-19.88v-12.252l35.084 20.384z" fill="url(#c)"/>
     <path d="m98.762 0.11474v12.32l-8.3233 1.456v24.36l-12.569 2.24v-24.36l-8.3233 1.456v-12.32l8.3233-1.456 12.569-2.24zm-43.18 44.351v-14l-7.9323 15.4-10.669 1.904v-36.736l11.731-2.072v14.056l7.9323-15.456 10.669-1.848v36.68zm-20.192-33.264-10.221 19.417 10.832 17.802-13.56 2.2876-4.1045-8.0904-5.6162 9.7643-12.72 2.2876 10.776-21.652-10.221-15.79 12.776-2.2876 4.2216 7.4767 5.1163-8.9832z" fill="url(#j)" fill-rule="nonzero"/>
     <g transform="translate(66,48)" fill="#1c1885" fill-rule="nonzero">
      <path d="M 5.0556,3.7804 1.7435,4.379 1.7763,5.7619 4.7167,5.1633 V 7.0729 L 1.7435,7.7075 1.7763,10.701 0,11 0.071051,2.5472 5.0556,1.5714 Z"/>
      <path d="M 8.1608,9.0603 6.5,9.4286 6.5371,1.2041 8.2616,0.8768 9.8163,3.9456 11.212,0.2572 12.904,0 13,8.2186 11.18,8.5518 11.276,3.8755 9.7527,7.3418 8.1608,4.4951 Z"/>
     </g>
    </g>
   </g>
  </g>
 </g>
</svg>
