<svg version="1.1" viewBox="0 0 800 235.92" xmlns="http://www.w3.org/2000/svg">
 <g transform="translate(100.41 -296.61)">
  <path d="m463.67 414.56c0-65.151 52.807-117.96 117.96-117.96 65.151 0 117.96 52.807 117.96 117.96 0 65.151-52.807 117.96-117.96 117.96-65.15 0-117.96-52.807-117.96-117.96" fill="#de1d48"/>
  <path d="m479.11 453.67h22.969l6.8508-32.273h4.2465c4.02 0 6.0395 1.2645 4.5673 8.2665-0.86817 4.0198-1.3966 8.1531-2.2459 12.173-0.84931 4.02-1.8873 10.003-0.79269 11.834h24.347l0.24535-1.1513c-0.94366-0.45296-1.5665-1.2645-1.9062-2.4158-0.32086-1.1513 0.0377-5.0392 1.0192-9.6443l1.4344-6.7755c1.0192-4.8125 2.076-10.324 0.79267-14.004-1.34-3.9068-5.0014-6.1905-9.5122-6.5491l0.0566-0.22648c8.2665-1.1513 15.061-6.6623 17.854-19.742 2.9065-13.664-2.2269-21.478-18.062-21.478h-34.444l-17.42 81.985zm36.859-65.453h2.6423c5.1713 0 8.1533 1.6042 6.7189 8.3798-1.6797 7.9268-6.0584 9.6443-9.8519 9.6443h-3.3217l3.8124-18.024" fill="#fff" fill-rule="evenodd"/>
  <path d="m570.1 391.26h15.608l-13.306 62.697h22.969l13.306-62.697h15.627l4.0955-19.289h-54.204l-4.0955 19.289" fill="#fff"/>
  <path d="m697.76 435.36c-1.189 7.9268-2.7932 12.607-4.9071 18.609h-55.336l17.42-82.004h22.969l-13.456 63.395h33.311" fill="#fff"/>
  <path d="m-74.026 454.73h16.665l7.7945-36.671h19.421l-7.7758 36.671h16.646l17.552-82.608h-16.665l-6.7 31.594h-19.44l6.7189-31.594h-16.665l-17.552 82.608" fill="#eee"/>
  <path d="m20.453 454.73 17.552-82.608h-16.665l-17.552 82.608h16.665" fill="#eee"/>
  <path d="m54.048 372.12-2.9065 13.645h18.062l-14.665 68.963h16.665l14.646-68.963h18.062l2.8876-13.645h-52.751" fill="#eee"/>
  <path d="m104.5 454.73h16.665l7.417-34.934h8.9082c6.7189 0 8.7761 3.9256 7.6248 10.399l-2.9065 15.853c-0.56621 3.2462-0.88705 6.3603 0.24535 8.6817h18.043l0.15099-0.69831c-2.7744-1.6231-2.2837-6.1338-0.5662-14.816 3.4916-17.458 3.0764-23.705-7.9457-25.215l0.0566-0.22648c9.7953-1.9628 15.759-9.38 18.1-20.364 2.982-14.117-3.8124-21.289-17.477-21.289h-30.763l-17.552 82.608zm31.613-70.341h7.8513c7.5305 0 10.758 3.8122 9.1347 11.456-1.8873 8.9082-7.1341 12.381-15.118 12.381h-6.9454l5.0769-23.837" fill="#8e979d" fill-rule="evenodd"/>
  <path d="m221.11 386.46h0.22648l0.0944 37.143h-16.193zm-46.541 68.265h17.345l7.5303-17.477h21.987l0.0944 17.477h17.363l-4.322-82.608h-20.591l-39.407 82.608" fill="#8e979d" fill-rule="evenodd"/>
  <path d="m288.62 384.39h7.0586c12.721 0 12.192 9.6065 8.2099 28.348-4.775 22.44-8.6251 29.726-20.194 29.726h-7.4172zm-31.613 70.341h26.271c22.101 0 31.141-13.192 37.369-42.465 5.1524-24.29 4.3597-40.143-18.779-40.143h-27.31l-17.552 82.608" fill="#8e979d" fill-rule="evenodd"/>
  <path d="m352.79 454.73 17.552-82.608h-16.665l-17.552 82.608h16.665" fill="#8e979d" Googl="true"/>
  <path d="m403.88 413.43c4.6995-22.101 8.1344-30.65 17.967-30.65 9.8328 0 9.6441 8.5494 4.9448 30.65-4.7183 22.214-8.1344 30.65-17.967 30.65s-9.6632-8.4362-4.9448-30.65zm-16.665 0c-5.3223 25.101-5.9829 42.918 19.005 42.918 24.988 0 31.896-17.816 37.237-42.918 5.3223-25.101 5.9828-42.918-19.005-42.918-24.988 0-31.896 17.816-37.237 42.918" fill="#8e979d" fill-rule="evenodd"/>
  <path d="m-100.41 381.57c0-6.2282 5.0392-11.267 11.267-11.267 6.2282 0 11.267 5.0392 11.267 11.267s-5.0392 11.267-11.267 11.267c-6.2282 0-11.267-5.0392-11.267-11.267" fill="#de1d48"/>
  <path d="m47.744 498.15-0.18873 0.90592c-1.1324 5.3412-0.33972 11.626 9.097 11.626 7.6814 0 13.287-3.3594 15.004-11.456 1.1135-5.2279-0.60396-8.1533-5.5863-10.078l-3.7935-1.491c-3.718-1.5476-5.0203-3.2085-4.322-6.4547 0.8493-4.0578 3.6614-5.4922 6.2848-5.4922 3.7747 0 4.8882 2.0194 4.1521 5.4922l-0.16986 0.81155h6.077l0.18873-0.86817c0.83042-3.9445 1.1135-10.022-8.6438-10.022-7.1341 0-12.645 3.8502-14.117 10.776-1.1513 5.4355 0.64169 8.3043 5.7186 10.437l3.8502 1.4533c3.2085 1.0003 4.8504 2.7555 4.0011 6.7567-0.58507 2.831-3.0952 5.5488-6.9265 5.5488-4.2088 0-5.7375-2.3403-4.7561-6.9831l0.20761-0.96254h-6.0772" fill="#8e979d"/>
  <path d="m104.53 509.93h6.3414l4.4352-9.3234h11.135l0.35859 9.3234h6.3413l-1.9251-38.048h-7.7945zm12.928-14.174 8.5119-18.76 0.4907 18.76h-9.0026" fill="#8e979d" fill-rule="evenodd"/>
  <path d="m391.8 509.93h5.7564l6.1716-29.103 4.9637 29.103h7.417l8.0778-38.048h-5.7564l-6.0204 28.348-5.1147-28.348h-7.4172l-8.0778 38.048" fill="#8e979d"/>
  <path d="m335.83 509.93h21.006l1.0758-5.1147h-14.91l2.5668-12.154h13.645l1.0947-5.1147h-13.645l2.2459-10.55h14.495l1.0758-5.1147h-20.572l-8.0778 38.048" fill="#8e979d"/>
  <path d="m279.05 498.15-0.18873 0.90592c-1.1324 5.3412-0.33973 11.626 9.0969 11.626 7.6814 0 13.287-3.3594 15.004-11.456 1.1135-5.2279-0.60394-8.1533-5.5863-10.078l-3.7935-1.491c-3.7181-1.5476-5.0203-3.2085-4.322-6.4547 0.86817-4.0578 3.6614-5.4922 6.2848-5.4922 3.7747 0 4.8882 2.0194 4.1521 5.4922l-0.16986 0.81155h6.077l0.18874-0.86817c0.83042-3.9445 1.1135-10.022-8.6438-10.022-7.1341 0-12.645 3.8502-14.117 10.776-1.1513 5.4355 0.6417 8.3043 5.7375 10.437l3.8502 1.4533c3.1896 1.0003 4.8316 2.7555 4.0012 6.7567-0.60394 2.831-3.1141 5.5488-6.9454 5.5488-4.2088 0-5.7375-2.3403-4.7561-6.9831l0.2076-0.96254h-6.0772" fill="#8e979d"/>
  <path d="m218.79 509.93h6.0772l3.7558-17.684h11.192l-3.7558 17.684h6.077l8.0778-38.048h-6.0772l-3.2272 15.231h-11.192l3.2274-15.231h-6.0772l-8.0778 38.048" fill="#8e979d"/>
  <path d="m181.27 496.29-0.13213 0.64169c-0.75493 3.5104-2.529 9.1724-7.606 9.1724-4.473 0-5.8319-3.0952-3.2462-15.344 2.6045-12.268 5.2279-15.042 9.7009-15.042 4.4164-0.15099 4.6051 3.8879 3.869 7.4172l-0.13212 0.64169h6.0772l0.13212-0.69831c0.84929-3.9445 1.9062-11.947-8.9082-11.947-9.6632 0-13.947 6.1903-16.835 19.779-2.8876 13.589-1.2268 19.779 8.3798 19.779 8.946 0 13.155-6.7189 14.608-13.608l0.16986-0.79267h-6.0772" fill="#8e979d"/>
 </g>
</svg>
