<svg width="211.67mm" height="86.736mm" version="1.1" viewBox="0 0 211.67 86.736" xmlns="http://www.w3.org/2000/svg">
 <g transform="translate(58.964 51.683)">
  <path d="m-28.143-24.387v34.602h-8.308v-13.446h-12.949v13.446h-8.3064v-34.602h8.3064v13.398h12.949v-13.398z" fill="#fff"/>
  <path d="m-5.0174 2.7003c5.6421 0 9.3414-4.0019 9.3414-9.7868 0-5.833-3.6993-9.7868-9.3414-9.7868-5.5862 0-9.2887 3.9538-9.2887 9.7868 0 5.7849 3.7024 9.7868 9.2887 9.7868m0-27.779c9.9357 0 17.995 7.5647 17.995 17.992 0 10.432-8.0597 17.991-17.995 17.991-9.9357 0-17.941-7.5585-17.941-17.991 0-10.428 8.0054-17.992 17.941-17.992" fill="#fff"/>
  <path d="m52.712-24.387v34.602h-8.1575v-8.4538c0-8.204 0.2995-12.257 0.2483-12.257h-0.0512c-0.04179 0-2.8117 4.7452-3.1112 5.2386l-4.05 6.9207h-4.303l-4.0531-6.9207c-0.28552-0.49345-3.0647-5.2386-3.1143-5.2386h-0.0512c-0.04812 0 0.24826 4.0531 0.24826 12.257v8.4538h-8.1575v-34.602h7.813l6.4723 10.479c2.5216 4.1043 2.9188 4.9919 2.9685 4.9919h0.04812c0.0512 0 0.44379-0.88759 2.9685-4.9919l6.4738-10.479z" fill="#fff"/>
  <path d="m85.877 2.4533v7.7618h-25.459v-34.602h25.169v7.7633h-16.863v5.6824h13.196v7.2668h-13.196v6.1278z" fill="#fff"/>
  <path d="m124.57-24.387-13.244 19.277v15.325h-8.2568v-15.325l-13.249-19.277h9.2933l6.2768 9.2437c0.98845 1.4819 1.7364 2.5231 1.7845 2.5231h0.045c0.0497 0 0.79604-1.0412 1.7845-2.5231l6.2736-9.2437z" fill="#fff"/>
  <path d="m144.39-13.413c-0.83949-3.0662-3.5054-4.4985-5.9804-4.4985-2.4735 0-3.9011 1.2367-3.9011 2.6209 0 2.2733 3.4573 3.1112 7.6562 4.6474 5.1409 1.8745 10.535 4.7917 10.535 10.726 0 6.3249-5.4342 10.822-13.5 10.822-7.2156 0-12.358-4.0035-14.628-10.477l7.9542-2.1259c0.8907 2.6193 3.3626 5.2402 7.0231 5.2402 2.9607 0 4.3526-1.3826 4.3526-3.0647 0-2.7683-4.0609-3.4604-9-5.338-4.1555-1.5812-8.9488-3.8561-8.9488-9.9357 0-5.3892 5.4404-10.283 12.951-10.283 6.6259 0 11.863 4.0562 13.494 9.4904z" fill="#fff"/>
  <path d="m130.46-36.002-1.0536-0.14278c-1.9071-0.28085-4.0966-2.0467-4.0966-5.0136 0-3.0352 2.4672-5.5055 5.5738-5.5055 3.0383 0 5.518 2.4704 5.518 6.2147 0 4.4473-3.6093 9.8845-8.0566 13.412h-4.3107c2.475-1.5517 5.3721-6.4226 5.3721-8.6819z" fill="#fff"/>
  <path d="m-20.523 24.896c-0.41123 0.11172-0.78983 0.33828-1.1545 0.72-0.57104 0.59276-0.88449 1.3004-0.97449 2.0623v0.05586c0.011 0.02948 0.011 0.06983 0.011 0.11172 0.01407 0.08535 0.12413 0.14121 0.20484 0.14121h0.04179c0.03739-0.01241 0.06985-0.02638 0.08379-0.04034 0.06207-0.01552 0.12879-0.045 0.17845-0.06983 0.66259-0.42673 1.2755-0.94656 1.8481-1.5843 0.18778-0.20948 0.31965-0.47948 0.39412-0.83173 0.02155-0.07293-0.0154-0.15517-0.0636-0.24052-0.04355-0.07138-0.12413-0.15672-0.23585-0.25448-0.09466-0.06983-0.20792-0.09931-0.33364-0.06983m3.6388 3.5876c-0.01408 0.05586-0.03255 0.11172-0.06519 0.16914-0.0092 0.02793-0.06206 0.05586-0.09466 0.05586-0.06206 0.01396-0.12571 0.02948-0.18465 0.05586-0.17691 0.04345-0.36464 0.08535-0.55552 0.11172-0.09774 0.01552-0.19086 0.01552-0.30412 0.01552-0.34604 0-0.70914-0.08379-1.0862-0.25293-0.39878-0.19862-0.67035-0.52449-0.84104-1.0164-0.01715-0.04345-0.03431-0.10086-0.04654-0.14276-0.03431-0.11328-0.0636-0.22655-0.1474-0.32586-0.01408-0.01552-0.07447-0.03879-0.1086-0.03879h-0.0062c-0.1024 0.05431-0.19864 0.12724-0.2933 0.20793-0.15518 0.14276-0.2995 0.28397-0.45311 0.42517-0.15985 0.14276-0.32277 0.28397-0.47793 0.43604-0.18932 0.17069-0.43137 0.31345-0.69983 0.45466-0.07605 0.02948-0.17225 0.05586-0.26845 0.05586-0.32897 0-0.74173-0.23897-0.77277-0.59586v-0.16759c0-0.04034 0-0.06983-0.01715-0.09931v-0.01241c0.09774-1.156 0.60207-2.1491 1.5347-2.939 0.25292-0.21104 0.57104-0.38173 0.97759-0.52293 0.11326-0.0419 0.23898-0.07138 0.35378-0.07138 0.17071 0 0.3445 0.05741 0.48724 0.15672 0.08533 0.0419 0.14432 0.0869 0.22345 0.14276 0.045 0.02638 0.10865 0.06828 0.15672 0.11017 0.04654 0.02948 0.09466 0.0419 0.15672 0.0419 0.0512 0 0.11326-0.01241 0.17379-0.0419 0.06827-0.02638 0.12879-0.0419 0.1924-0.05586h0.04654c0.12725 0 0.23585 0.07293 0.28243 0.16914 0.04812 0.07138 0.08379 0.18466 0.04812 0.25448-0.17225 0.28397-0.34912 0.56483-0.5369 0.8069-0.15518 0.2219-0.23898 0.46862-0.21725 0.72v0.25448c0 0.16759 0 0.33983 0.011 0.50742 0.0154 0.13966 0.08067 0.28242 0.13033 0.39569 0.22191 0.46707 0.63155 0.69207 1.2662 0.69207h0.09312c0.09312 0 0.20484-0.01707 0.2995-0.02638 0.12879-0.01552 0.25292-0.02793 0.36157-0.02793 0.11326 0 0.20951 0.01241 0.28551 0.02793 0.02155 0.0093 0.0962 0.0419 0.0962 0.06983" fill="#fff"/>
  <path d="m-11.915 28.058c-0.32743 0.16914-0.6657 0.32742-0.99932 0.49345-0.20326 0.10086-0.4081 0.14276-0.61293 0.14276-0.31811-0.01396-0.60517-0.14276-0.81-0.39569-0.26999-0.29793-0.44224-0.65018-0.45466-1.0722v-0.60983c-0.08379-0.87518 0.11019-1.5936 0.23278-2.3152 0.14274-0.77742 0.4143-1.4974 0.71379-2.1895 0.17225-0.40966 0.41123-0.76345 0.71224-1.0443 0.09312-0.07138 0.21879-0.11483 0.32897-0.1288 0.13033-0.02639 0.24364 0.05741 0.30724 0.18155 0.05899 0.08845 0.04355 0.30259-0.02023 0.38328-0.04355 0.04192-0.07913 0.11638-0.12879 0.15673-0.4531 0.36776-0.7107 0.88914-0.90156 1.4679-0.14898 0.52448-0.32897 1.0319-0.45621 1.5548-0.15826 0.67811-0.28705 1.3857-0.25292 2.1026 0.01408 0.3119 0.09466 0.59431 0.25292 0.8488 0.11326 0.18466 0.25292 0.28242 0.45621 0.29638 0.30412 0.02948 0.60207-0.01397 0.88914-0.13966 0.17533-0.08535 0.3507-0.16914 0.5338-0.25759 0.03255-0.01241 0.08067-0.01241 0.12879-0.01241 0.11019 0 0.25446 0.02793 0.28551 0.12724 0.03123 0.06983-0.011 0.15517-0.06519 0.21259-0.03255 0.06983-0.09466 0.12569-0.13966 0.19707" fill="#fff"/>
  <path d="m0.34699 26.885c0-0.01241-0.052739-0.02793-0.085333-0.02793-0.15518 0.01552-0.28085 0.09776-0.4081 0.19707-0.28705 0.21414-0.62069 0.39569-0.98225 0.51052-0.17379 0.05741-0.36623 0.09931-0.55552 0.12724-0.17533 0.02638-0.37863-0.12724-0.39258-0.28397-0.0512-0.27-0.014076-0.52293 0.096198-0.7619 0.13812-0.28242 0.28243-0.56483 0.50276-0.81932 0.097737-0.11172 0.19086-0.22655 0.26845-0.3538 0.062064-0.06983 0.017155-0.19707-0.063604-0.19707-0.093119-0.01552-0.18619-0.0419-0.28551-0.0419-0.44069-0.01397-0.88294-0.05897-1.3267-0.14276-0.10706-0.02793-0.25138-0.01397-0.38017 0-0.048121 0-0.11019 0.05741-0.12571 0.11328-0.026392 0.12724-0.062064 0.28242-0.062064 0.42207 0.017155 0.45466-0.062064 0.90621-0.15826 1.3438-0.14278 0.69362-0.58655 1.201-1.2197 1.5672-0.25292 0.15672-0.57104 0.04345-0.69673-0.225-0.094658-0.21414-0.17225-0.42362-0.19864-0.64862-0.037388-0.22655-0.086917-0.45155-0.21258-0.65173-0.044998-0.07138-0.091535-0.08379-0.17533-0.0419-0.17071 0.11328-0.36157 0.22655-0.5369 0.33828-0.36157 0.24052-0.72776 0.46552-1.1545 0.60828-0.11172 0.0419-0.22965 0.05741-0.35998 0.06983-0.17691 0.01397-0.31811-0.04034-0.40964-0.16759-0.13191-0.17069-0.20951-0.33983-0.13191-0.56793 0.13191-0.45 0.42671-0.81776 0.71535-1.1824 0.39416-0.49811 0.86277-0.92018 1.4229-1.26 0.04966-0.0419 0.11172-0.07138 0.17071-0.08535 0.12571-0.04034 0.24364-0.01086 0.34916 0.06052 0.083794 0.05431 0.1474 0.23897 0.11019 0.30724-0.091535 0.15517-0.20484 0.29638-0.26532 0.46862-0.097737 0.29328-0.33517 0.38018-0.65328 0.39414-0.089996 0-0.18778 0.04345-0.24984 0.09931-0.30258 0.25293-0.53845 0.56328-0.72932 0.88759-0.00924 0.05897-0.027711 0.11328-0.04966 0.17224-0.03123 0.05586-0.012316 0.11328 0.065187 0.1381 0.015395 0.01707 0.063604 0.03104 0.077591 0.01707 0.097781-0.02793 0.19086-0.0419 0.27157-0.08535 0.50431-0.29793 0.9838-0.63776 1.454-0.97604 0.2995-0.20948 0.61603-0.09776 0.73086 0.23897 0.076052 0.21569 0.10706 0.43914 0.10706 0.66724 0.014075 0.19552 0.054323 0.39414 0.063604 0.59276 0.017155 0.09776 0.097737 0.1831 0.18465 0.1831 0.10086 0.01241 0.17999-0.02793 0.24364-0.09776 0.30104-0.27 0.45931-0.59431 0.52138-0.97449 0.11172-0.70759 0.19086-1.4136 0.17379-2.1336 0-0.19862 0.22499-0.36776 0.44535-0.34138h0.094658c0.062064 0.01552 0.12571 0.01552 0.18778 0.045 0.34758 0.14121 0.74328 0.14121 1.1095 0.225 0.72621 0.15517 1.454 0.14121 2.1817 0.0419 0.13966-0.02638 0.24984 0 0.38171 0.0419 0.10706 0.0419 0.20326 0.18466 0.17071 0.27-0.034309 0.1831-0.12879 0.32586-0.31657 0.40966-0.1086 0.04345-0.25446 0.04345-0.36464 0.09776-0.59897 0.3119-1.0443 0.73397-1.2119 1.3578-0.018474 0.0419 0.041787 0.09776 0.074468 0.13966 0 0 0.065187 0.01552 0.079131 0 0.78983-0.38018 1.485-0.87828 2.0871-1.471 0.097737-0.08069 0.18932-0.15207 0.28551-0.22345 0.076052-0.05586 0.30104 0.01552 0.33205 0.11172 0.062064 0.17224 0.062064 0.33983 0 0.495-0.063604 0.17069-0.15985 0.32431-0.23744 0.46552-0.27157 0.48259-0.34758 0.97449-0.29326 1.4974 0 0.05586 0.021553 0.11328 0.038708 0.17069 0.044998 0.11172 0.2545 0.23897 0.38017 0.225 0.53845-0.06983 1.0676-0.19552 1.5486-0.41121 0.052739-0.01086 0.12725 0.01552 0.17691 0.04655 0.076052 0.04034 0.076052 0.18155 0.014076 0.2219-0.048121 0.045-0.076052 0.08535-0.13812 0.11483-0.36464 0.18466-0.76345 0.31035-1.1576 0.40966-0.20638 0.05741-0.44379 0.05741-0.66414 0.05741-0.3507 0-0.5819-0.1831-0.74483-0.46707-0.14278-0.2824-0.17225-0.5912-0.093119-0.91861-0.017155-0.12569-0.017155-0.26845-0.026392-0.40966" fill="#fff"/>
  <path d="m11.415 25.008c-0.42983 0.38018-0.69828 0.86276-0.9357 1.3562-0.32897 0.67966-0.78828 1.3143-1.1995 1.9769-1.2166 1.9226-2.3571 3.898-3.3967 5.9183-0.13033 0.25449-0.25912 0.50897-0.38483 0.76345-0.014075 0.01399-0.063604 0.02793-0.091535 0.02793-0.058941 0.01086-0.11172-0.02793-0.11172-0.11328-0.03123-0.1831 0.010996-0.36621 0.091535-0.55086 0.27311-0.67811 0.55708-1.3391 0.90156-1.9909 0.77742-1.4416 1.5688-2.8676 2.4036-4.2673 0.11326-0.16914 0.21105-0.33673 0.28551-0.50586 0.0512-0.10086 0.03255-0.21414 0.0512-0.32742-0.60518 0.41121-1.1902 0.8488-1.8373 1.2026-0.11326 0.06983-0.23277 0.14121-0.36003 0.1831-0.24052 0.09776-0.47793 0.08379-0.69673-0.02793-0.47483-0.25448-0.65018-0.65173-0.63621-1.1188 0.020234-0.4081 0.16139-0.80535 0.31965-1.1855 0.26691-0.5788 0.63155-1.1141 1.1203-1.5657 0.10086-0.0869 0.22345-0.14276 0.3507-0.21259 0.077591-0.02793 0.20326 0 0.28243 0.06983 0.17071 0.1831 0.20792 0.33983 0.040467 0.49655-0.64242 0.5338-1.0366 1.184-1.274 1.9071-0.093119 0.27931-0.12879 0.54621 0.015395 0.83328 0.046537 0.05431 0.096198 0.09776 0.17533 0.08224 0.029471 0 0.062064 0.01552 0.093119 0 0.75725-0.28086 1.4555-0.62069 2.0079-1.1731 0.33517-0.32431 0.68276-0.61914 1.0117-0.945 0.33517-0.34138 0.585-0.70449 0.66414-1.1576 0.02155-0.12724 0.09466-0.2281 0.22345-0.29638 0.23585-0.12879 0.48724-0.11483 0.67966 0.05586 0.09932 0.08535 0.15826 0.19707 0.22191 0.31035 0.05586 0.08535 0.06206 0.19862-0.01539 0.25448" fill="#fff"/>
  <path d="m18.612 24.823c-0.011 0.04345-0.07447 0.11638-0.13812 0.11638h-0.52304c-0.11485 0-0.18932-0.01707-0.27311-0.01707-0.1412-0.01241-0.23585-0.01241-0.31657-0.02638-0.07759-0.01552-0.15826-0.02948-0.23898-0.02948-0.23585 0-0.48569 0.07293-0.70604 0.14121h-0.04812c-0.11485 0.02948-0.20326 0.11328-0.30412 0.19707-0.01232 0-0.01232 0.01552-0.03123 0.01552-0.13966 0.11172-0.13966 0.3119-0.01716 0.45 0.16138 0.17069 0.35224 0.32742 0.55396 0.45155 0.22345 0.14276 0.44845 0.28552 0.65018 0.42362 0.03123 0.03259 0.08533 0.05741 0.11172 0.0869 0.17379 0.11328 0.30412 0.25293 0.37863 0.42207 0.14278 0.26845 0.11485 0.52293-0.09466 0.73707 0 0-0.0154 0.02793-0.03123 0.02793-0.03431 0.05741-0.07913 0.11172-0.14278 0.13966-0.5369 0.3538-1.0598 0.58035-1.6247 0.66414-0.1474 0.02948-0.28864 0.05741-0.4345 0.08535-0.10706 0.01396-0.23585 0.02793-0.34138 0.02793-0.22499 0-0.4469-0.0419-0.66724-0.12724-0.14278-0.05741-0.22345-0.14121-0.29792-0.28242-0.08225-0.12724-0.06827-0.25448 0.06053-0.38018 0.02947-0.045 0.1086-0.06983 0.15672-0.06983 0.04812 0 0.08071 0.01397 0.11793 0.04034 0.04179 0.05741 0.08846 0.11328 0.13653 0.18155 0.06207 0.10086 0.14278 0.14276 0.24052 0.14276 0.54931 0 1.0754-0.11328 1.5471-0.33983 0.26532-0.11017 0.4888-0.3119 0.68276-0.54931 0.01232-0.01397 0.01232-0.06983 0-0.11017-0.02023-0.05897-0.06673-0.12724-0.13192-0.17379-0.15364-0.12724-0.33051-0.23742-0.48724-0.35224-0.11172-0.06983-0.2095-0.1381-0.31811-0.21104-0.17225-0.11017-0.31498-0.22655-0.4531-0.33828-0.08533-0.05741-0.16446-0.14276-0.22653-0.24207-0.20018-0.25448-0.2545-0.4919-0.18932-0.73397 0.07913-0.23897 0.26691-0.39569 0.42517-0.495 0.36464-0.24052 0.77897-0.36311 1.2972-0.39414 0.0636-0.01552 0.12571-0.01552 0.18778-0.01552 0.42829 0 0.85656 0.11328 1.2445 0.2281 0.08379 0.02793 0.17071 0.09776 0.21412 0.13966 0.03123 0.0419 0.04812 0.11328 0.03123 0.16914" fill="#fff"/>
  <path d="m32.471 25.461c-0.02023-0.08535-0.06519-0.15672-0.11326-0.22655-0.03255-0.08535-0.17379-0.09776-0.22345-0.02948-0.20172 0.28242-0.44069 0.5369-0.6269 0.81932-0.28864 0.46707-0.5757 0.93104-0.84259 1.3841-0.07913 0.12569-0.1412 0.25604-0.18778 0.38328-0.03431 0.08535-0.03431 0.16759-0.03431 0.25448-0.01232 0.09776 0.14278 0.19552 0.25138 0.15362 0.61914-0.19862 1.066-0.57724 1.395-1.0614 0.26845-0.40966 0.4019-0.87362 0.4143-1.3966-0.01232-0.07138-0.01232-0.1831-0.03255-0.28086m-0.17225 2.3431c-0.46242 0.46707-1.0645 0.74794-1.7395 0.8907-0.06053 0.01396-0.12879-0.01397-0.18932-0.02793-0.33363-0.02793-0.3833-0.01396-0.49655 0.24052-0.18778 0.46707-0.42517 0.91552-0.59897 1.3966-0.15985 0.43759-0.3833 0.87673-0.56794 1.3143-0.03431 0.07138-0.22499 0.12724-0.33364 0.09776-0.09-0.02638-0.20172-0.16914-0.19398-0.25448 0.01715-0.08379 0.01715-0.16914 0.0574-0.23897 0.49966-1.1995 0.83949-2.43 1.1467-3.673 0.21104-0.82087 0.49035-1.6091 0.96673-2.3292 0.04812-0.07138 0.08067-0.15672 0.14898-0.21259 0.07293-0.08535 0.18153-0.14121 0.32431-0.12724 0.12879 0.01552 0.28551 0.14276 0.30258 0.26845 0.02023 0.05586 0.02023 0.11172-0.01715 0.16914-0.0636 0.11328-0.15672 0.22655-0.23898 0.33828-0.26378 0.38018-0.45621 0.78983-0.56793 1.229-0.01408 0.01396 0 0.04345 0.01408 0.06983 0.03431 0.05741 0.08225 0.05741 0.12725 0 0.09466-0.11017 0.17533-0.23897 0.25138-0.35224 0.33517-0.52138 0.68277-1.0583 1.0164-1.5797 0.1086-0.17224 0.23585-0.33983 0.29792-0.52449 0.02023-0.05586 0.0636-0.08379 0.1024-0.14121 0.11793-0.14276 0.43603-0.15362 0.5819-0.01552 0.3445 0.3538 0.42363 0.79449 0.50587 1.1731-0.10086 0.86121-0.27157 1.6541-0.9 2.2888" fill="#fff"/>
  <path d="m36.426 26.663c0.10552-0.52604 0.13966-1.0754 0.31498-1.5983 0.01407-0.06983 0.04812-0.15517 0.09466-0.22655 0.03431-0.07138 0.21879-0.11328 0.32277-0.07138 0.18153 0.10086 0.31037 0.28397 0.27465 0.48104-0.02023 0.15517-0.07605 0.3119-0.11018 0.47949 0 0.02948 0.04812 0.08535 0.09 0.12724 0 0 0.05586-0.01241 0.06981-0.02638 0.04812-0.0419 0.09932-0.07138 0.1412-0.11172 0.0962-0.06983 0.18153-0.14431 0.26845-0.22966 0.76035-0.69052 1.6991-1.1157 2.7574-1.3547 0.77587-0.16914 1.5626-0.14276 2.354-0.15517 0.04654 0 0.11172 0.03104 0.17379 0.05741 0.0636 0.01086 0.09312 0.05586 0.0636 0.11328-0.01847 0.0419-0.04966 0.09776-0.09774 0.11017-0.07759 0.045-0.16605 0.05741-0.26845 0.045-0.82086 0-1.6247 0.13966-2.4145 0.32431-0.79138 0.16914-1.4586 0.53535-2.0886 0.97294-0.06519 0.04655-0.12879 0.11638-0.19398 0.17069-0.52138 0.65173-0.94345 1.3267-1.0878 2.1321-0.03563 0.18621-0.08067 0.36776-0.14432 0.55242-0.01539 0.06828-0.11018 0.12569-0.17379 0.16914-0.22191 0.11328-0.4531 0.01397-0.50742-0.1831-0.011-0.02793-0.03123-0.05586-0.03123-0.06983 0-0.11638-0.01847-0.2281-0.01847-0.29948 0.06673-0.49345 0.11326-0.95742 0.21104-1.409" fill="#fff"/>
  <path d="m46.437 24.896c-0.41277 0.11172-0.78983 0.33828-1.1576 0.72-0.56949 0.59276-0.87828 1.3004-0.97759 2.0623v0.05586c0.01408 0.02948 0.01408 0.06983 0.01408 0.11172 0.02023 0.08535 0.12725 0.14121 0.21412 0.14121h0.04179c0.02815-0.01241 0.06052-0.02638 0.07913-0.04034 0.05894-0.01552 0.12413-0.045 0.17225-0.06983 0.6719-0.42673 1.2864-0.94656 1.8512-1.5843 0.18778-0.20948 0.31657-0.47948 0.3957-0.83173 0.01539-0.07293-0.01716-0.15517-0.06206-0.24052-0.04812-0.07138-0.13192-0.15672-0.23744-0.25448-0.0962-0.06983-0.21105-0.09931-0.33364-0.06983m3.6373 3.5876c-0.01716 0.05586-0.03255 0.11172-0.06052 0.16914-0.02023 0.02793-0.06827 0.05586-0.09932 0.05586-0.0636 0.01396-0.12571 0.02948-0.18932 0.05586-0.17225 0.04345-0.3631 0.08535-0.55242 0.11172-0.09154 0.01552-0.18619 0.01552-0.2995 0.01552-0.34758 0-0.7138-0.08379-1.0924-0.25293-0.39416-0.19862-0.66569-0.52449-0.83794-1.0164-0.01847-0.04345-0.03123-0.10086-0.04179-0.14276-0.03871-0.11328-0.06985-0.22655-0.14898-0.32586-0.01539-0.01552-0.07759-0.03879-0.10864-0.03879h-0.01715c-0.09312 0.05431-0.18932 0.12724-0.28397 0.20793-0.15826 0.14276-0.30104 0.28397-0.45932 0.42517-0.15826 0.14276-0.31344 0.28397-0.47483 0.43604-0.18778 0.17069-0.42517 0.31345-0.69828 0.45466-0.07759 0.02948-0.17225 0.05586-0.26691 0.05586-0.32897 0-0.74328-0.23897-0.77432-0.59586v-0.16759c0-0.04034 0-0.06983-0.01715-0.09931v-0.01241c0.1024-1.156 0.60207-2.1491 1.5331-2.939 0.2545-0.21104 0.57259-0.38173 0.98535-0.52293 0.11018-0.0419 0.23431-0.07138 0.3445-0.07138 0.17379 0 0.34758 0.05741 0.49345 0.15672 0.07759 0.0419 0.13966 0.0869 0.22033 0.14276 0.04654 0.02638 0.10706 0.06828 0.15826 0.11017 0.04812 0.02948 0.09154 0.0419 0.15985 0.0419 0.04355 0 0.10864-0.01241 0.16913-0.0419 0.06519-0.02638 0.12725-0.0419 0.19086-0.05586h0.04966c0.12879 0 0.23744 0.07293 0.28398 0.16914 0.04812 0.07138 0.07759 0.18466 0.04812 0.25448-0.17379 0.28397-0.3507 0.56483-0.53845 0.8069-0.15985 0.2219-0.24052 0.46862-0.22345 0.72v0.25448c0 0.16759 0 0.33983 0.02023 0.50742 0.01847 0.13966 0.08692 0.28242 0.12413 0.39569 0.22033 0.46707 0.63156 0.69207 1.2616 0.69207h0.09774c0.09312 0 0.20638-0.01707 0.30258-0.02638 0.12567-0.01552 0.25292-0.02793 0.36623-0.02793 0.10706 0 0.20018 0.01241 0.28085 0.02793 0.01408 0.0093 0.09466 0.0419 0.09466 0.06983" fill="#fff"/>
  <path d="m52.939 27.566c0.03431 0.29483 0.36157 0.56173 0.69362 0.56173 0.09466 0 0.20792 0.01552 0.2995-0.01241 0.49035-0.12879 1.0024-0.21259 1.4586-0.4081 0.61604-0.28397 1.2631-0.46552 1.8326-0.80845 0.11172-0.05431 0.2545-0.09621 0.38171-0.11328 0.0636-0.01241 0.12567 0.045 0.17691 0.08845 0.04355 0.05586 0.02639 0.11328-0.02023 0.16914-0.03123 0.01241-0.04355 0.04034-0.07913 0.05431-0.72776 0.39414-1.4369 0.82087-2.2283 1.1172-0.4143 0.14121-0.83794 0.26845-1.2554 0.40966-0.26691 0.08379-0.53535 0.08379-0.8007 0.05741-0.3631-0.02948-0.65328-0.15828-0.88914-0.41121-0.24984-0.27-0.37863-0.56328-0.3631-0.91862 0.03563-0.66259 0.27157-1.2414 0.72776-1.7643 0.4143-0.46552 0.88914-0.8488 1.4866-1.1017 0.3507-0.14276 0.70914-0.21259 1.094-0.19862 0.3833 0.02793 0.71224 0.29793 0.7557 0.63621 0.03563 0.12724-0.03123 0.25293-0.15518 0.32431-0.04812 0.02793-0.12879 0.04345-0.17379 0.02793-0.06519-0.01397-0.14586-0.0419-0.17845-0.08379-0.23278-0.31035-0.55242-0.29638-0.89845-0.19707-0.4438 0.12724-0.78983 0.33828-1.0924 0.66259-0.26071 0.28242-0.4919 0.56638-0.63155 0.92018-0.10706 0.2669-0.16138 0.5369-0.16138 0.80224 0 0.05897 0.02023 0.12879 0.02023 0.18621" fill="#fff"/>
  <path d="m68.84 21.322c0.37551 0.31035 0.75259 0.63311 1.1312 0.945 0.03431 0.02639 0.04966 0.07138 0.04966 0.10086 0 0.05586-0.01539 0.12569-0.04966 0.18155-0.03123 0.07138-0.1086 0.09776-0.18465 0.05586-0.17071-0.06983-0.33671-0.15207-0.49345-0.225-0.20951-0.0869-0.41123-0.15518-0.63311-0.17069-0.36623-0.0124-0.50742-0.23897-0.59587-0.50742-0.06519-0.225 0.19244-0.48104 0.51673-0.46552 0.04812 0.01086 0.17225 0.02947 0.25912 0.08535m-4.843 3.0755c1.1359-0.19397 2.2888-0.26535 3.4278-0.50586 0.06519-0.01552 0.14273-0.01552 0.22191-0.01552 0.38017-0.01241 0.80535 0.36931 0.76035 0.72156-0.0636 0.36776-0.12567 0.73397-0.27777 1.0722-0.08533 0.15672-0.15206 0.31345-0.22811 0.46707-0.14273 0.29638-0.28551 0.60828-0.43916 0.91707-0.17379 0.3119-0.045 0.66414-0.1474 0.99156-0.01539 0.06828-0.17533 0.15362-0.26691 0.12569-0.20484-0.04345-0.38017-0.18466-0.39878-0.31035-0.02815-0.36931-0.0079-0.73552 0.14586-1.0878 0.13812-0.33983 0.30258-0.68121 0.42829-1.0319 0.11018-0.28086 0.19398-0.5788 0.26691-0.86121 0.04812-0.15672-0.15672-0.33828-0.33051-0.32431-0.08225 0-0.16138 0.01397-0.22657 0.02948-0.97914 0.05431-1.9273 0.20948-2.8754 0.39414-0.55242 0.09776-1.1219 0.11172-1.6573 0.25448-0.19398 0.0419-0.33364 0.14121-0.4143 0.31035-0.20484 0.42362-0.39258 0.86121-0.5819 1.3004-0.20792 0.49345-0.41743 1.0009-0.38017 1.5533 0 0.12569-0.13812 0.24052-0.30258 0.25448-0.12259 0.01397-0.33517-0.08535-0.34912-0.18621 0-0.16759-0.02463-0.33828 0.01407-0.4919 0.15985-0.55086 0.33517-1.1017 0.52603-1.6371 0.09312-0.30104 0.18778-0.5819 0.29792-0.86432 0.0154-0.08535-0.06827-0.21259-0.17379-0.21259-0.30104-0.02638-0.60207-0.02638-0.90001-0.08535-0.19086-0.02638-0.31657-0.15207-0.39724-0.32431 0-0.02793-0.011-0.06828-0.011-0.09776-0.03563-0.19707 0.18932-0.42207 0.3895-0.39569 0.40036 0.06983 0.79449 0.17069 1.2181 0.12724 0.19864-0.01396 0.36464-0.0869 0.47328-0.22655 0.04812-0.05431 0.08067-0.11172 0.11793-0.16914 0.42517-0.67811 0.83483-1.3407 1.246-2.0188 0.06207-0.08535 0.13812-0.15517 0.20484-0.225 0.0962-0.09931 0.31498-0.11328 0.4143-0.05742 0.09312 0.06983 0.20484 0.28242 0.16913 0.35224-0.04812 0.09931-0.07605 0.19862-0.13812 0.28397-0.28551 0.42362-0.5881 0.84569-0.855 1.2848-0.11172 0.16759-0.19244 0.36621-0.28864 0.5369-0.02771 0.08535 0.08225 0.19707 0.19086 0.19707h0.58656c0.09466-0.01552 0.31344-0.01552 0.54-0.045" fill="#fff"/>
  <path d="m73.122 27.566c0.03255 0.29483 0.36777 0.56173 0.69517 0.56173 0.0962 0 0.20638 0.01552 0.30258-0.01241 0.4888-0.12879 0.99621-0.21259 1.4524-0.4081 0.61759-0.28397 1.2647-0.46552 1.8341-0.80845 0.11172-0.05431 0.25758-0.09621 0.37863-0.11328 0.06673-0.01241 0.12879 0.045 0.17691 0.08845 0.045 0.05586 0.03739 0.11328-0.01716 0.16914-0.03123 0.01241-0.04812 0.04034-0.07447 0.05431-0.73242 0.39414-1.4416 0.82087-2.236 1.1172-0.41123 0.14121-0.83794 0.26845-1.246 0.40966-0.26845 0.08379-0.53535 0.08379-0.80846 0.05741-0.36464-0.02948-0.64862-0.15828-0.88293-0.41121-0.25292-0.27-0.3833-0.56328-0.36623-0.91862 0.03123-0.66259 0.26999-1.2414 0.72932-1.7643 0.41276-0.46552 0.88759-0.8488 1.4866-1.1017 0.34912-0.14276 0.7138-0.21259 1.0878-0.19862 0.38017 0.02793 0.7138 0.29793 0.76345 0.63621 0.03123 0.12724-0.03563 0.25293-0.15826 0.32431-0.04966 0.02793-0.12571 0.04345-0.17533 0.02793-0.06519-0.01397-0.14278-0.0419-0.17533-0.08379-0.23585-0.31035-0.55242-0.29638-0.90156-0.19707-0.44069 0.12724-0.78673 0.33828-1.0893 0.66259-0.26999 0.28242-0.4888 0.56638-0.63466 0.92018-0.10864 0.2669-0.15518 0.5369-0.15518 0.80224 0 0.05897 0.01408 0.12879 0.01408 0.18621" fill="#fff"/>
  <path d="m83.071 24.896c-0.40344 0.11172-0.79138 0.33828-1.1545 0.72-0.56793 0.59276-0.88759 1.3004-0.98224 2.0623v0.05586c0.01847 0.02948 0.01847 0.06983 0.01847 0.11172 0.01715 0.08535 0.12725 0.14121 0.20484 0.14121h0.04812c0.03123-0.01241 0.06206-0.02638 0.08067-0.04034 0.06207-0.01552 0.12571-0.045 0.17071-0.06983 0.66725-0.42673 1.2864-0.94656 1.8528-1.5843 0.18465-0.20948 0.31657-0.47948 0.40036-0.83173 0.011-0.07293-0.02331-0.15517-0.0636-0.24052-0.04966-0.07138-0.13033-0.15672-0.24206-0.25448-0.09466-0.06983-0.20484-0.09931-0.33364-0.06983m3.6388 3.5876c-0.01716 0.05586-0.02463 0.11172-0.06519 0.16914-0.01408 0.02793-0.06207 0.05586-0.09312 0.05586-0.06206 0.01396-0.12571 0.02948-0.18932 0.05586-0.17071 0.04345-0.36464 0.08535-0.55242 0.11172-0.0962 0.01552-0.19398 0.01552-0.30412 0.01552-0.34758 0-0.71224-0.08379-1.0831-0.25293-0.4019-0.19862-0.6688-0.52449-0.84104-1.0164-0.02023-0.04345-0.03431-0.10086-0.05432-0.14276-0.03255-0.11328-0.06053-0.22655-0.13653-0.32586-0.02155-0.01552-0.08067-0.03879-0.11485-0.03879h-0.01715c-0.08846 0.05431-0.18778 0.12724-0.27931 0.20793-0.16292 0.14276-0.30258 0.28397-0.46086 0.42517-0.15826 0.14276-0.31657 0.28397-0.47793 0.43604-0.18778 0.17069-0.42363 0.31345-0.69207 0.45466-0.08067 0.02948-0.17533 0.05586-0.26845 0.05586-0.33364 0-0.74483-0.23897-0.77897-0.59586v-0.16759c0-0.04034 0-0.06983-0.011-0.09931v-0.01241c0.09153-1.156 0.59897-2.1491 1.5316-2.939 0.25292-0.21104 0.57104-0.38173 0.9838-0.52293 0.10552-0.0419 0.23431-0.07138 0.34604-0.07138 0.17225 0 0.34292 0.05741 0.49501 0.15672 0.07447 0.0419 0.13653 0.0869 0.21412 0.14276 0.04812 0.02638 0.11172 0.06828 0.15985 0.11017 0.04654 0.02948 0.09774 0.0419 0.15672 0.0419 0.0512 0 0.1148-0.01241 0.17999-0.0419 0.06519-0.02638 0.12879-0.0419 0.18778-0.05586h0.04654c0.12571 0 0.23585 0.07293 0.28243 0.16914 0.04966 0.07138 0.07913 0.18466 0.04966 0.25448-0.17225 0.28397-0.34912 0.56483-0.5369 0.8069-0.15826 0.2219-0.23898 0.46862-0.22499 0.72v0.25448c0 0.16759 0 0.33983 0.01539 0.50742 0.01716 0.13966 0.08067 0.28242 0.13191 0.39569 0.21571 0.46707 0.63 0.69207 1.2616 0.69207h0.09466c0.09466 0 0.20638-0.01707 0.30412-0.02638 0.12105-0.01552 0.24672-0.02793 0.35844-0.02793 0.11639 0 0.20484 0.01241 0.29172 0.02793 0.011 0.0093 0.09 0.0419 0.09 0.06983" fill="#fff"/>
  <path d="m91.678 28.058c-0.33363 0.16914-0.66104 0.32742-0.99932 0.49345-0.20172 0.10086-0.40964 0.14276-0.61449 0.14276-0.31657-0.01396-0.59897-0.14276-0.80845-0.39569-0.26378-0.29793-0.4438-0.65018-0.45776-1.0722v-0.60983c-0.07759-0.87518 0.11019-1.5936 0.23585-2.3152 0.14274-0.77742 0.41123-1.4974 0.71379-2.1895 0.17379-0.40966 0.41123-0.76345 0.71224-1.0443 0.09-0.07138 0.21879-0.11483 0.33051-0.1288 0.12567-0.02639 0.23744 0.05741 0.2995 0.18155 0.06207 0.08845 0.05432 0.30259-0.0092 0.38328-0.05274 0.04192-0.08071 0.11638-0.12879 0.15673-0.46397 0.36776-0.71069 0.88914-0.90466 1.4679-0.15672 0.52448-0.33517 1.0319-0.45466 1.5548-0.16138 0.67811-0.28705 1.3857-0.25604 2.1026 0.02023 0.3119 0.09466 0.59431 0.25604 0.8488 0.1086 0.18466 0.25604 0.28242 0.45466 0.29638 0.30104 0.02948 0.60052-0.01397 0.88759-0.13966 0.17225-0.08535 0.34604-0.16914 0.5338-0.25759 0.03739-0.01241 0.08067-0.01241 0.13033-0.01241 0.10864 0 0.25758 0.02793 0.28085 0.12724 0.03563 0.06983-0.0092 0.15517-0.06206 0.21259-0.02463 0.06983-0.09 0.12569-0.13966 0.19707" fill="#fff"/>
  <path d="m-58.964-26.971h181.93l-92.429-24.713" fill="#fff"/>
  <path d="m-53.77-27.677h171.54l-87.158-23.301" fill="#d42036"/>
 </g>
</svg>
