<svg width="600" height="388.48" version="1.1" viewBox="0 0 158.75 102.79" xmlns="http://www.w3.org/2000/svg">
 <g transform="translate(-45.357,-103.49)">
  <g stroke-width=".81936">
   <path d="m144.71 104.86c-1.0324-0.78658-2.3844-1.3683-4.146-1.3683h-64.892s-5.3496-0.28677-4.1107 5.1866l11.022 48.67s1.2389 5.4733 6.4934 4.359l12.108-3.4495 0.0574-0.59815c0.73742-9.2096-0.0901-11.791-1.1225-16.33-1.9665-8.6688-13.834-21.492-14.9-22.409-1.0365-0.9013-1.4118-3.0152 2.3958-1.1717 15.7 7.6037 26.45 21.484 27.458 21.451 1.5486-0.041 20.754-25.466 28.415-33.25 0.42607-0.43426 0.83575-0.79478 1.2209-1.0898" fill="#034ea2"/>
   <path d="m146.68 107.09c-9.6111 18.485-15.437 30.71-16.453 42.902l-29.03 8.2673 0.0492-0.59814c0.73742-9.2096-0.0901-11.791-1.1225-16.33-1.9665-8.6688-13.833-21.492-14.9-22.409-1.0357-0.9013-1.4109-3.0152 2.3966-1.1717 15.699 7.6037 26.449 21.484 27.457 21.451 1.5486-0.041 20.754-25.466 28.415-33.25 0.42607-0.43426 0.83575-0.79478 1.2208-1.0898 1.2372 1.0078 1.9665 2.2287 1.9665 2.2287" fill="#ffd400"/>
   <path d="m114.47 110.7c5.8256 0.0164 10.545 4.6376 10.529 10.332-8e-3 5.6946-4.7441 10.299-10.57 10.291-5.8257-0.0164-10.537-4.6376-10.529-10.332 8e-3 -5.6864 4.7441-10.299 10.57-10.291" fill="#ffd400"/>
  </g>
  <g fill="#034ea2">
   <path d="m147.61 109.11s-0.2622-0.92588-0.93407-2.0238c-9.6111 18.485-15.437 30.71-16.453 42.902l23.671-6.7351s5.2521-1.1143 3.556-6.4484z" stroke-width=".81936"/>
   <path d="m45.357 182.45h4.375v7.15h6.651v-7.15h4.345v18.58h-4.345v-7.75h-6.651v7.75h-4.375z"/>
   <path d="m70.307 186.55c3.696 0 7.125 2.71 7.125 7.41s-3.429 7.41-7.125 7.41c-3.724 0-7.153-2.71-7.153-7.41s3.429-7.41 7.153-7.41m0 11.43c1.774 0 2.69-1.57 2.69-4.02s-0.916-4.02-2.69-4.02c-1.802 0-2.69 1.57-2.69 4.02s0.888 4.02 2.69 4.02"/>
   <path d="m83.877 202.14v4.13h-4.345v-19.37h3.546l0.296 1.39h0.118c1.153-1 2.632-1.74 4.168-1.74 3.547 0 5.734 2.82 5.734 7.18 0 4.85-3.014 7.64-6.177 7.64-1.271 0-2.454-0.54-3.488-1.48zm2.335-4.19c1.508 0 2.72-1.25 2.72-4.16 0-2.54-0.799-3.82-2.543-3.82-0.886 0-1.654 0.4-2.512 1.28v5.79c0.768 0.68 1.596 0.91 2.335 0.91"/>
   <path d="m101.64 186.55c4.17 0 6.24 2.94 6.24 6.79 0 0.74-0.09 1.42-0.18 1.76h-8.776c0.385 2.14 1.866 3.08 3.816 3.08 1.09 0 2.1-0.31 3.16-0.94l1.45 2.54c-1.51 0.99-3.46 1.59-5.2 1.59-4.202 0-7.423-2.73-7.423-7.41 0-4.59 3.398-7.41 6.913-7.41m2.55 5.96c0-1.63-0.71-2.77-2.46-2.77-1.36 0-2.539 0.89-2.836 2.77z"/>
   <path d="m118.2 181.99c2.3 0 4.14 1.08 5.29 2.31l-1.39 1.51c-1.03-1.05-2.28-1.74-3.87-1.74-3.7 0-6.15 2.91-6.15 7.55 0 4.71 2.33 7.67 6.03 7.67 1.83 0 3.19-0.74 4.43-2.08l1.39 1.45c-1.5 1.71-3.43 2.71-5.88 2.71-4.88 0-8.51-3.59-8.51-9.69 0-6.01 3.69-9.69 8.66-9.69"/>
   <path d="m126.36 180.74h2.42v5.53l-0.09 2.85c1.36-1.26 2.81-2.28 4.79-2.28 3.02 0 4.38 1.88 4.38 5.41v8.78h-2.43v-8.46c0-2.6-0.83-3.71-2.72-3.71-1.47 0-2.48 0.74-3.93 2.14v10.03h-2.42z"/>
   <path d="m149.68 192.25c0-1.77-0.62-3.47-2.95-3.47-1.69 0-3.17 0.74-4.29 1.48l-0.97-1.63c1.32-0.82 3.33-1.79 5.64-1.79 3.52 0 5 2.25 5 5.7v8.49h-2.01l-0.21-1.65h-0.06c-1.39 1.08-2.99 1.99-4.76 1.99-2.42 0-4.23-1.45-4.23-3.93 0-3.02 2.72-4.53 8.84-5.19m-3.93 7.24c1.39 0 2.54-0.65 3.93-1.85v-3.85c-4.82 0.57-6.44 1.71-6.44 3.48 0 1.57 1.09 2.22 2.51 2.22"/>
   <path d="m155.8 187.18h2.01l0.21 1.99h0.09c1.36-1.31 2.84-2.33 4.82-2.33 3.01 0 4.37 1.88 4.37 5.41v8.78h-2.42v-8.46c0-2.6-0.83-3.71-2.72-3.71-1.48 0-2.49 0.74-3.93 2.14v10.03h-2.43z"/>
   <path d="m171.09 187.18h2.01l0.2 1.99h0.09c1.36-1.31 2.84-2.33 4.82-2.33 3.01 0 4.38 1.88 4.38 5.41v8.78h-2.43v-8.46c0-2.6-0.83-3.71-2.72-3.71-1.48 0-2.48 0.74-3.93 2.14v10.03h-2.42z"/>
   <path d="m191.75 186.84c3.67 0 5.73 2.53 5.73 6.5 0 0.48-0.02 0.94-0.08 1.28h-9.7c0.18 2.99 2.04 4.87 4.79 4.87 1.36 0 2.51-0.43 3.58-1.08l0.85 1.54c-1.24 0.77-2.78 1.42-4.73 1.42-3.84 0-6.88-2.7-6.88-7.24 0-4.53 3.16-7.29 6.44-7.29m3.61 6.24c0-2.82-1.3-4.39-3.55-4.39-2.01 0-3.84 1.6-4.14 4.39z"/>
   <path d="m200.15 180.74h2.42v17.67c0 0.74 0.33 1.02 0.68 1.02 0.15 0 0.27 0 0.53-0.05l0.33 1.76c-0.33 0.15-0.74 0.23-1.39 0.23-1.84 0-2.57-1.11-2.57-3.13z"/>
  </g>
 </g>
</svg>
