<svg width="800mm" height="352.17mm" version="1.1" viewBox="0 0 800 352.17" xmlns="http://www.w3.org/2000/svg">
 <g transform="translate(-92.056 -113.44)" fill="#fff">
  <path d="m132.37 113.44-39.973 2.4311v261.83h41.273v-143.16s16.08-4.5232 38.842-4.5232c31.934-0.30269 30.983 17.548 30.983 31.775v115.9h42.291v-113.47c0-7.8704 0.14244-11.809-0.22612-18.771-1.4226-28.151-21.551-49.96-61.627-50.263-24.125-0.30268-51.563 5.4277-51.563 5.4277v-87.182zm254.82 81.698c-7.6472 0.0356-38.583 1.3212-57.839 5.8236-25.668 5.7509-42.139 21.451-44.439 45.061-0.45403 4.54-0.67838 7.2724-0.67838 17.866v113.81h42.291v-116.53c0-10.291 0.77275-16.618 7.463-22.672 7.5975-6.6588 24.821-7.5733 34.658-8.4808 6.9615-0.60538 20.297-1.2446 20.297-1.2446v-33.584c-0.0356-0.0356-0.66057-0.0534-1.752-0.0534zm-295.13 207.72v23.577c60.69 26.335 154.54 40.582 232.03 39.068 82.998-1.5134 159.28-14.816 226.78-38.729v-23.011c-60.235 23.61-147.07 37.838-230.79 39.351-77.49 1.2108-164.24-13.013-228.02-40.255z" data-darkreader-inline-fill="" data-darkreader-inline-stroke=""/>
  <path d="m601.6 194.35v183.29h27.824v-79.939h72.725v79.939h27.824v-183.29h-27.824v78.467h-72.725v-78.467zm160.61 0v183.29h62.42c13.592 0 25.115-2.8967 34.596-8.6859 9.5646-5.873 17.071-13.083 22.524-21.641 4.111-6.3764 6.7544-12.994 8.0969-19.874 1.4262-6.9638 2.2082-20.728 2.2082-41.368 0-19.213-0.46472-32.217-1.4725-39.013-1.0078-6.7959-3.8609-14.133-8.3914-21.935-12.166-20.556-30.709-30.768-55.795-30.768zm27.824 26.352h33.271c14.179 1.8e-4 25.047 5.0748 32.682 15.311 3.6916 5.0342 5.9329 10.638 6.772 16.93 0.92231 6.2927 1.4725 17.71 1.4725 34.154-1.8e-4 17.032-0.48608 28.196-1.3247 33.565-0.75494 5.2858-2.5741 10.255-5.5944 14.869-7.3834 10.656-18.737 16.047-34.007 16.047h-33.271z" data-darkreader-inline-fill="" data-darkreader-inline-stroke=""/>
 </g>
</svg>
