<svg width="200mm" height="71.113mm" version="1.1" viewBox="0 0 200 71.113" xmlns="http://www.w3.org/2000/svg">
 <defs>
  <clipPath id="a">
   <path d="m322.38 611.08h28.687v10.205h-28.687z"/>
  </clipPath>
 </defs>
 <g transform="matrix(1 0 0 1.0776 196.43 -95.906)">
  <g transform="matrix(.99999 0 0 .99999 -37.906 61.437)">
   <g transform="matrix(1.132,0,0,1.132,20.93,-12.553)">
    <path d="m-77.202 76.299h17.403v-17.38h-17.403z" fill="#ed1f24" stroke-width="5.7152"/>
    <path d="m-59.828 93.73h17.408v-17.403h-17.408z" fill="#ed1f24" stroke-width="5.7152"/>
    <g transform="matrix(5.7152,0,0,-5.7152,-125.15,35.435)">
     <path d="m0 0v-4.166h-2.659v4.166h-2.889v-10.163h2.889v3.588h2.659v-3.588h2.888v10.163z" fill="#b2b1b1"/>
    </g>
    <g transform="matrix(5.7152,0,0,-5.7152,-2001,3586.2)" clip-path="url(#a)">
     <g transform="translate(328.18,611.1)">
      <path d="m0 0v10.18h3.884v-2.323c-0.098 0.013-0.205 0.021-0.321 0.021h-0.65v-1.898h0.65c0.116 0 0.223 4e-3 0.321 0.021v-4.059l-0.962 1.655v-3.597zm3.884 10.18h0.252c4.611 0 4.839-4.748 1.613-5.945-4e-3 0-0.095-0.026-0.099-0.026l2.862-4.209h-3.499l-1.129 1.942v4.059c0.688 0.094 0.97 0.513 0.97 0.928s-0.282 0.835-0.97 0.928z" fill="#b2b1b1" Googl="true"/>
     </g>
     <g transform="translate(333.58,621.19)">
      <path d="m0 0h8.948v-2.523h-2.879v-1.493h-3.04v1.493h-3.029z" fill="#b2b1b1"/>
     </g>
     <path d="m322.38 621.28h0.583v-10.163h-0.583z" fill="#e3e7e6"/>
     <path d="m327.89 621.28h0.568v-4.17h-0.568z" fill="#e3e7e6"/>
     <path d="m333.27 621.19h0.564v-2.52h-0.564z" fill="#e3e7e6"/>
    </g>
    <path d="m-4.3287 93.408c-5.732-0.6884-11.041-4.2058-13.494-9.3624-1.0162-2.1232-1.8961-4.3853-2.0978-6.7378h5.4616c1.1345 3.8758 3.127 7.9518 7.1665 9.6009 3.5612 1.5022 7.7566 1.5769 11.424 0.37789 4.9365-1.6184 8.7433-6.5167 8.2883-11.703-0.2333-5.235-4.8223-9.6334-10.014-10.443-2.1649-0.49319-4.3904-0.62671-6.5959-0.85101l0.050059-5.3654c4.5917-0.13454 9.8137-1.4989 12.243-5.6565 1.9565-3.4363 0.63163-7.991-2.5867-10.237-3.1288-2.4747-7.7218-2.7561-11.366-1.3124-3.2857 1.3939-5.1655 4.7045-6.4189 7.8049l-5.8782-0.0026c1.268-5.2883 4.6834-10.66 9.941-12.828 3.2772-1.5093 7.0279-1.4027 10.539-0.99366 5.8921 1.2203 11.282 5.639 12.406 11.588 1.0286 4.6664-0.97984 9.7465-4.9851 12.503-1.3397 0.72856-2.5187 1.627-0.33721 2.161 5.665 2.8052 9.3596 9.0562 8.6409 15.281-0.5776 6.8083-5.5177 13.013-12.156 15.185-3.2658 1.2129-6.7944 1.2091-10.229 0.9918z" fill="#e3e7e6" fill-rule="evenodd" stroke-width=".98875"/>
   </g>
  </g>
 </g>
</svg>
