<?xml version="1.0" encoding="UTF-8" standalone="no"?>
<!-- Created with Inkscape (http://www.inkscape.org/) -->
<svg xmlns:rdf="http://www.w3.org/1999/02/22-rdf-syntax-ns#" xmlns="http://www.w3.org/2000/svg" height="76.58" width="600.01" version="1.1" xmlns:cc="http://creativecommons.org/ns#" xmlns:dc="http://purl.org/dc/elements/1.1/">
 <defs></defs>
 <metadata>
  <rdf:RDF>
   <cc:Work rdf:about="">
    <dc:format>image/svg+xml</dc:format>
    <dc:type rdf:resource="http://purl.org/dc/dcmitype/StillImage"/>
    <dc:title/>
   </cc:Work>
  </rdf:RDF>
 </metadata>
 <g transform="translate(-266.42931,392.6921)">
  <path fill="#ff640a" d="m266.43-383.95c0-5.2016,3.3293-8.1133,7.803-8.1133,4.4744-0.00022,7.8028,2.9117,7.8028,8.1133v22.058h22.05v-22.058c0-5.2016,3.33-8.1133,7.8024-8.1133,4.4744-0.00022,7.8042,2.9117,7.8042,8.1133l0.00022,59.099c0,5.202-3.33,8.1155-7.8044,8.1155-4.4724,0-7.8026-2.9135-7.8026-8.1155l0.00021-22.684h-22.05v22.684c0,5.202-3.3285,8.1155-7.8028,8.1155-4.4737,0-7.803-2.9135-7.803-8.1155v-59.099z"/>
  <path fill="#ff640a" d="m376.73-381.24c0,4.0581-2.7044,7.6994-6.9713,7.6994-4.2656,0-10.716-4.1617-16.96-4.1617-4.4728-0.00022-8.53,2.3916-8.53,6.7627,0,10.717,34.75,3.8484,34.75,30.693,0,14.878-12.277,24.138-26.635,24.138-8.0119,0-25.283-1.8734-25.283-11.653,0.00022-4.0581,2.7058-7.3868,6.9716-7.3868,4.8894,0,10.717,4.0574,17.479,4.0574,6.8666,0,10.613-3.8499,10.613-8.9488,0-12.277-34.751-4.8885-34.751-29.029,0-14.565,11.965-23.618,25.802-23.618,5.8267,0,23.514,3.227,23.514,11.446z"/>
  <path fill="#ff640a" d="m386.71-382.39c0-5.202,2.6008-9.0504,8.1159-9.0504l26.722,0.049c4.9943,0,7.387,3.5373,7.387,7.1786,0,3.5381-2.497,7.1793-7.3872,7.1793l-19.231-0.049v15.189h17.063c5.0986,0,7.596,3.5377,7.596,7.179,0.00022,3.5377-2.6008,7.1788-7.596,7.1788h-17.063v15.816h19.247c4.995,0,7.3885,3.5373,7.3885,7.1784,0,3.5381-2.4976,7.1795-7.3887,7.1795h-26.842c-4.5778,0-8.0119-3.1208-8.0119-7.8031v-57.225z"/>
  <path fill="#ff640a" d="m484.78-331.75c4.5787,0,7.5962,2.7313,7.5962,7.5175s-3.5381,6.8666-7.4906,6.8666h-34.751c-4.5787,0-8.1162-2.0804-8.1162-6.8666,0-2.186,1.353-4.057,2.3935-5.3068,8.6359-10.3,17.999-19.664,25.906-31.109,1.8736-2.7058,3.6413-5.9304,3.6413-9.6762,0-4.2667-3.2248-8.0114-7.4895-8.0114-11.967,0-6.2432,16.855-16.232,16.855-4.9952,0-7.5953-3.5373-7.5953-7.5954,0-13.109,11.653-23.618,24.451-23.618s23.098,8.428,23.098,21.641c0,14.463-15.607,28.17-24.452,39.303h19.04z"/>
  <path fill="#ff640a" d="m519.79-376.13-0.20991,0-14.045,29.028,14.255,0,0-29.028zm-25.075,42.762c-5.0986,0-7.2846-3.4334-7.2846-6.1389,0.00022-2.2877,0.83326-3.5377,1.4564-4.578l23.308-42.241c2.2886-4.1626,5.2018-6.0351,10.611-6.0351,6.0351,0,11.966,3.8495,11.966,13.318v31.941h1.768c4.0579,0,7.2829,2.7053,7.2829,6.8681,0,4.1615-3.225,6.8664-7.2831,6.8664h-1.7678v8.844c0,5.5138-2.1845,8.1148-7.4913,8.1148-5.3052,0-7.4897-2.601-7.4897-8.1148l0.00022-8.844h-25.075z"/>
  <path stroke-linejoin="miter" d="m553.98-389.46,310.57,0" stroke="#a8ba4b" stroke-linecap="round" stroke-miterlimit="4" stroke-dasharray="none" stroke-width="3.74561024" fill="#a8ba4b"/>
  <path stroke-linejoin="miter" d="m553.98-321.38,310.57,0" stroke="#b995b1" stroke-linecap="round" stroke-miterlimit="4" stroke-dasharray="none" stroke-width="3.74561024" fill="#b995b1"/>
  <path fill="#828186" d="m577.66-334.06,0.0244-37.017-24.19,0,0-4.2918,55.014,0,0,4.5357-23.02,0,0,36.773z"/>
  <path fill="#828186" d="m615.05-375.32,0,41.124,7.1635-0.0624,0-16.091,24.284,0,16.637,16.153,9.1143,0-17.464-16.387c7.9137-1.987,16.616-5.3762,16.2-12.735-0.6856-9.2725-14.289-11.708-18.775-12.002h-37.16zm7.1167,4.4323,29.918,0c4.7553,0.31403,10.457,2.6645,10.784,7.538-0.29875,5.2446-4.1744,7.9392-10.909,8.5681l-29.793,0.0312v-16.137z"/>
  <path fill="#828284" d="m681.52-334.25,0-41.016,50.771,0,0,4.4382-43.504,0,0,13.607,35.798,0,0,4.1943-35.7,0,0,14.436,42.87,0,0,4.4869z"/>
  <path fill="#828186" d="m741.75-334.3,0-41.602,45.455,30.872,0-30.482,7.3157,0,0,42.333-45.592-31.317,0.18588,30.292z"/>
  <path fill="#828186" d="m833.95-375.34-28.123,0.0468,0,41.092,27.655-0.0468c25.048-1.7111,33.254-13.425,32.493-20.804-1.9932-17.027-24.123-19.938-32.025-20.289zm-20.944,4.3855,21.865,0c7.0174,0.50049,22.849,4.5592,23.098,15.903,0.345,6.158-5.9416,15.317-23.488,16.481l-21.475-0.0312v-32.353z"/>
 </g>
</svg>
