<?xml version="1.0" encoding="UTF-8" standalone="no"?>
<!-- Created with Inkscape (http://www.inkscape.org/) -->
<svg xmlns:rdf="http://www.w3.org/1999/02/22-rdf-syntax-ns#" xmlns="http://www.w3.org/2000/svg" height="85.442" width="600" version="1.1" xmlns:cc="http://creativecommons.org/ns#" xmlns:dc="http://purl.org/dc/elements/1.1/">
 <defs></defs>
 <metadata>
  <rdf:RDF>
   <cc:Work rdf:about="">
    <dc:format>image/svg+xml</dc:format>
    <dc:type rdf:resource="http://purl.org/dc/dcmitype/StillImage"/>
    <dc:title/>
   </cc:Work>
  </rdf:RDF>
 </metadata>
 <g fill-rule="nonzero" transform="translate(-279.54596,99.422739)">
  <path fill="#ff640a" d="m279.55-84.731c0.37374-4.1969,3.2956-6.529,7.1337-6.529,4.1122,0,7.1708,2.6778,7.1708,7.4599v20.275h20.266v-20.275c0-4.782,3.0621-7.4599,7.1743-7.4599,4.1112,0,7.1718,2.6778,7.1718,7.4599v54.324c0,4.7805-3.0606,7.4569-7.1718,7.4569-4.1122,0-7.1743-2.6763-7.1743-7.4569v-20.853h-20.266v20.853c0,4.7805-3.0586,7.4569-7.1728,7.4569-3.8362,0-6.758-2.3306-7.1317-6.526v-56.186z"/>
  <path fill="#ff640a" d="m380.89-81.313c0,3.7309-2.4855,7.0776-6.4093,7.0776-3.9203,0-9.8486-3.8261-15.587-3.8261-4.1132,0-7.8426,2.2019-7.8426,6.2189,0,9.8492,31.943,3.5331,31.943,28.212,0,13.676-11.287,22.189-24.485,22.189-7.3632,0-23.239-1.7219-23.239-10.714,0-3.7289,2.4874-6.787,6.4093-6.787,4.4935,0,9.8506,3.7284,16.066,3.7284,6.3111,0,9.7545-3.5376,9.7545-8.2249,0-11.287-31.941-4.492-31.941-26.685,0-13.389,10.997-21.708,23.716-21.708,5.3572,0,21.615,2.9659,21.615,10.52z"/>
  <path fill="#ff640a" d="m390.07-82.365c0-4.782,2.3913-8.3181,7.4594-8.3181l24.563,0.0431c4.5912,0,6.79,3.251,6.79,6.5977,0,3.2545-2.2931,6.6007-6.79,6.6007l-17.677-0.04259v13.96h15.685c4.6864,0,6.9809,3.2535,6.9809,6.6002,0,3.249-2.3892,6.5957-6.9809,6.5957h-15.685v14.541h17.691c4.5932,0,6.792,3.2495,6.792,6.5962,0,3.249-2.2946,6.6002-6.792,6.6002h-24.672c-4.2104,0-7.3652-2.8672-7.3652-7.1728v-52.601z"/>
  <path fill="#ff640a" d="m480.22-35.817c4.2084,0,6.9819,2.511,6.9819,6.9098,0,4.4033-3.2525,6.3121-6.8857,6.3121h-31.941c-4.2089,0-7.4614-1.9088-7.4614-6.3121,0-2.0065,1.2445-3.7284,2.2004-4.8782,7.9388-9.4674,16.545-18.07,23.812-28.594,1.7209-2.486,3.3467-5.4509,3.3467-8.8952,0-3.9193-2.9644-7.3637-6.8827-7.3637-11.001,0-5.7385,15.495-14.921,15.495-4.5927,0-6.9824-3.2535-6.9824-6.9819,0-12.052,10.712-21.71,22.475-21.71,11.765,0,21.231,7.7465,21.231,19.89,0,13.294-14.343,25.896-22.475,36.128h17.502z"/>
  <path fill="#ff640a" d="m512.4-76.61-0.19389,0-12.91,26.685,13.104,0,0-26.685zm-23.05,39.309c-4.6858,0-6.6959-3.1563-6.6959-5.6463,0-2.0997,0.76554-3.249,1.3407-4.2034l21.423-38.829c2.1027-3.8256,4.7815-5.5491,9.7524-5.5491,5.5491,0,11,3.5411,11,12.243v29.362h1.6272c3.7264,0,6.6924,2.4855,6.6924,6.3116s-2.9659,6.3121-6.6924,6.3121h-1.6272v8.1272c0,5.0686-2.008,7.4614-6.8862,7.4614-4.8762,0-6.8842-2.3928-6.8842-7.4614v-8.1272h-23.05z"/>
  <path fill="#7b797c" d="m609.44-54.922-13.948,0,0,11.669,15.601,0,0,5.9554-22.365,0,0-39.733,21.538,0,0,5.9554-14.774,0,0,10.256,13.948,0,0,5.8963z"/>
  <path fill="#7b797c" d="m634.85-37.297-4.0085-7.9023c-1.5947-3.0626-2.6383-5.1838-3.6818-7.4829h-0.16533c-0.87824,2.2991-1.8667,4.4203-3.3512,7.4829l-3.6859,7.9023h-7.7414l10.986-20.102-10.549-19.631h7.7454l4.013,8.1948c1.2084,2.4729,2.0867,4.4203,3.0751,6.6643h0.11424c0.98446-2.4774,1.7565-4.2465,2.9103-6.6643l3.9534-8.1948h7.7495l-10.825,19.393,11.266,20.34h-7.8051z"/>
  <path fill="#7b797c" d="m653.91-70.956-10.556,0,0-6.0741,27.966,0,0,6.0741-10.651,0,0,33.659-6.7585,0,0-33.659z"/>
  <path fill="#7b797c" d="m680.43-58.931,4.0125,0c4.5601,0,7.4108-2.1378,7.4108-6.0872,0-4.3602-1.9599-6.4814-6.3547-6.4814-2.1462,0-4.4238,0.0085-5.0686,0.0085v12.56zm-6.7024-18.121c2.6513,0,7.9453,0.0085,11.848,0.0085,5.3316,0,7.3296,0.66182,9.8026,2.9018,2.0321,1.8282,3.1858,4.5977,3.1858,7.9574,0,5.1282-3.241,8.6067-6.7024,9.9639v0.17385c2.6342,1.0606,4.2249,3.8346,5.1623,7.6653,1.1538,4.9499,2.1423,9.548,2.9098,11.084h-6.9734c-0.55112-1.1793-1.4294-4.4243-2.477-9.3742-1.0436-5.1878-2.7956-6.8381-6.6472-6.9569h-3.4058v16.331h-6.7024v-39.754z"/>
  <path fill="#7b797c" d="m721.82-54.04-2.9098-9.7855c-0.71693-2.4178-1.3192-5.1287-1.8702-7.4278h-0.11072c-0.54709,2.2991-1.0982,5.0691-1.756,7.4278l-2.8587,9.7855h9.5054zm-10.604,5.485-3.1859,11.257-6.9819,0,11.869-39.733,8.6277,0,12.034,39.733-7.2535,0-3.3552-11.257-11.754,0z"/>
  <path fill="#ff640a" d="m757.49-56.695c-0.13578,9.7179-7.9534,16.746-15.542,21.633-12.11,7.7966-26.498,11.907-40.471,14.808-33.994,7.0756-71.355,5.8281-104.46-4.8527-15.555-5.018-46.796-19.305-34.876-40.763,5.3527-9.6332,16.857-15.339,26.596-19.383,15.071-6.2565,31.525-9.3597,47.691-10.977,27.852-2.7836,56.904-0.67084,83.623,7.9504,9.6753,3.1202,19.33,7.3948,27.291,13.825,5.4594,4.4158,10.049,10.477,10.151,17.76,0.0215,1.6333,13.557,1.5185,13.536,0,0.0215-1.5145-13.514-1.6287-13.536,0zm13.536,0c-0.13578-9.4043-7.5887-16.522-14.867-21.438-11.572-7.8156-25.587-12.12-39.067-15.219-18.397-4.2284-37.324-5.8472-56.166-6.0526-19.113-0.20892-38.29,1.4048-57.026,5.2024-14.041,2.8467-28.293,7.1583-40.645,14.572-7.6883,4.6147-15.917,11.606-17.115,21.056-1.1563,9.1287,5.8076,16.73,12.566,21.777,10.844,8.0976,24.464,12.564,37.435,15.848,17.812,4.5045,36.301,6.4303,54.63,6.8717,2.4379,0.05858,4.8777,0.09168,7.3186,0.09719h1.5255c16.578-0.03911,33.181-1.3522,49.472-4.3988,14.537-2.7189,29.184-6.778,42.21-13.926,8.1232-4.4539,17.026-11.143,19.309-20.649,0.29258-1.2219,0.40279-2.486,0.41984-3.7415z"/>
  <g transform="matrix(0.61669914,0,0,0.61669914,394.84449,98.73669)">
   <path style="text-align:start;" fill="#808080" d="m716.59-287.19,0,69.369,23.874,0c19.215,0,34.685-15.469,34.685-34.685,0-19.215-15.469-34.685-34.685-34.685h-23.874zm-76.689,0.0281,0,69.538,8.1362,0,0-33.868,37.275,0,0,33.868,8.1362,0,0-69.538-8.1362,0,0,28.266-37.275,0,0-28.266-8.1362,0zm84.797,7.1791,14.583,0c15.222,0,27.477,12.255,27.477,27.477s-12.255,27.477-27.477,27.477h-14.583v-54.955z"/>
   <path d="m629.06-308.52,156.91,0,0,5.7405-156.91,0z" fill="#808080"/>
   <path d="m629.06-308.52,156.91,0,0,5.7405-156.91,0z" fill="#89a02c"/>
   <path d="m629.06-201.05,156.91,0,0,5.7405-156.91,0z" fill="#bc5fd3"/>
  </g>
 </g>
</svg>
