<svg version="1.1" viewBox="0 0 600 124.85" xmlns="http://www.w3.org/2000/svg">
 <g transform="translate(-80.17 -434.22)">
  <g transform="matrix(.46455 0 0 .46455 -53.706 404.87)">
   <path d="m682.25 89.156c-31.776-2.278-63.859 16.311-76.781 45.438-0.0506-12.729-0.032-25.458 0-38.188h-54.094c-1.1579 55.742 2.2297 111.68-2.5312 167.28-4.7206 17-28.279 21.954-41.031 11.125-9.4032-7.3331-6.3644-20.45-7.6704-30.811-1.4236-46.765-1.1832-93.565-2.1515-140.34 2.5268-8.5272-6.4901-5.7346-11.986-6.3825-18.268-0.55337-36.342-1.4509-54.13-0.86919h-35c-0.39526 29.166-0.74969 58.333-1.0938 87.5-17.823 0.26422-35.646 0.54536-53.469 0.84375-0.26983-29.638-0.8015-59.272-1.3438-88.906-17.595 0.07845-35.188 0.27519-52.781 0.53125v226.91h54.188v-86.344h54.281v86.344h52.156v-44.438c8.9808 29.912 37.845 52.822 69.438 52.781 30.14 2.6849 62.455-11.59 76.594-38.969 2.3026-4.061 4.0176-8.3803 5.5-12.812 19.92 41.815 75.021 63.485 117.56 44 28.592-12.224 48.119-43.67 43.75-75-2.747-25.648-21.572-47.773-45.406-56.594-19.276-8.1867-42.953-9.9442-57.875-25.969-6.713-12.015 6.0426-26.934 18.844-25.812 15.899-0.4395 29.853 9.7835 39.938 21.219 12.315-4.1218 18.812-16.327 28.031-24.469 2.1647-3.3994 0.94863 3.4922 0.78125 5-1.9452 5.2006 1.8094 11.388 7.6562 10.75 16.196-0.9144 32.506-0.16054 48.75-0.40625v172.75h54.156v-172.75h50.281v172.94c102.75-0.75763 314.39-1.0993 314.39-1.0993s-0.4129-6.4008 0.022-12.242c0.4163-18.689 0.8511-37.378 1.3361-56.065 17.673 22.761 35.345 45.523 53.062 68.25 17.883-0.17907 63.746-0.54394 63.746-0.54394s-8.7954-15.045-13.152-19.55c-17.387-24.945-36.805-48.371-53.719-73.625 22.554-8.0626 41.788-27.254 45.653-51.514 4.4747-23.024-0.4685-50.005-19.528-65.142-20.281-17.26-48.44-18.521-74-19.123-19.638 0.01029-39.532-0.08217-59 1.0607-7.45 1.6703-15.386-0.40339-23 0.5h-105.25v175.84c-25.468-0.37912-50.937-0.73455-76.406-1.0625v-174.78h-214.84c-0.095 6.9582 0.17937 14.711-0.125 21.219-17.196-16.125-39.367-29.548-63.75-28.469h1e-4zm482.22 61.406c0.5048 11.284-0.1724 22.951 0 34.375-24.687-0.35629-49.375-0.70038-74.063-1.0312-0.2604-11.115-0.5208-22.229-0.7812-33.344h74.844zm67.75 0c10.761-0.0328 25.179-0.28585 31.094 10.469 4.4941 9.7225-5.9837 19.553-15.281 20.5-8.4605 2.0355-17.282 1.1039-25.937 1.0938-1e-4 -10.688 0-21.375 0-32.062h10.125zm-626.38 35.094c12.195 25.611 39.249 38.907 64.966 47.605 10.822 4.5683 22.921 7.4226 31.815 15.395 6.9275 7.151 4.5144 19.088-3.4688 24.375-11.523 9.1402-28.668 6.7781-39.312-2.7188-9.789-7.3915-17.75-16.818-26.719-25.094-10.26 10.045-21.774 18.835-31.312 29.438 5.1328-20.384 2.2753-41.647 3.4708-62.437 0.12601-9.1143 0.17844-18.229 0.21667-27.344l0.34375 0.78125zm558.38 61.188c0.01 8.4585 0.039 16.917 0.125 25.375-24.927-0.35768-49.348-0.70538-74.275-1.0312 0.2812-11.792 0.056-23.583 0.3375-35.375 24.604-0.36249 49.208-0.70592 73.813-1.0312 0 4.0208-1e-4 8.0417 0 12.062z" fill="#b7b7b7"/>
   <path d="m499.71 320.55c-20.454-6.6661-35.831-21.995-42.527-42.392-4.1293-12.579-4.3196-16.699-4.3196-93.531v-80.373l37.157 1.155 1.0042 80.34c0.89876 71.901 1.3778 81.024 4.5609 86.849 9.0444 16.551 35.428 21.234 50.097 8.8908 13.305-11.195 13.538-12.9 13.587-99.254l0.0441-77.829h19.081 19.081v76.049c0 41.827-0.86773 80.624-1.9283 86.217-4.4133 23.271-17.752 40.937-37.944 50.254-9.2396 4.2631-14.883 6.2046-30.425 6.6633-12.128 0.35796-22.137-1.2989-27.468-3.0364h-5e-5 6e-5zm163.04-0.0497c-19.645-4.8677-39.711-18.961-49.462-34.739l-4.2979-6.9541 10.744-10.879c10.723-8.8979 13.304-11.556 13.304-11.556s22.462 23.15 32.266 26.818c12.819 4.7962 20.227 5.012 30.123 0.87732 15.255-6.3741 22.077-18.306 18.296-32.002-2.6614-9.6389-11.932-16.081-35.007-24.329-33.118-11.165-69.015-29.61-70.685-68.1 0.0121-14.614 3.3528-19.616 6.8291-26.11 6.4104-11.977 18.124-23.009 30.686-28.901 10.022-4.7003 13.573-7.4088 34.278-7.4088 20.814 0 24.225 2.6936 34.496 7.5087 6.2692 2.9389 15.578 9.1961 20.687 13.905l9.2882 8.5616-25.014 25.238-7.369-6.6574c-16.358-14.778-42.2-17.7-54.271-6.1355-3.3142 3.1752-7.0385 9.1532-8.2763 13.284-5.3054 17.708 9.2841 30.485 46.527 40.746 40.635 11.196 60.27 34.677 57.798 69.119-2.9859 41.594-45.948 68.86-90.938 57.712zm147.62-89.561v-86.365h-28.119-28.119v-20.085-20.085h74.314 74.314v20.085 20.085h-27.115-27.115v86.365 86.365h-19.081-19.081v-86.365zm104.44-20.055v-106.48h19.081 19.081v87.327 87.327l79.336 1.0892v18.076 18.076l-117.5 1.0649v-106.48zm130.55 4.6e-4v-106.48h58.246 58.246v19.081 19.081h-40.232-39.726l0.6217 49.208 77.327 1.091v16.985 16.985l-77.327 1.091 0.3949 51.131 38.209 0.54478 39.728 0.54479v18.076 18.076l-115.49 1.0658v-106.48zm127.1 105.63s-0.3748-51.228-0.088-108.67l0.5223-104.44 30.115-0.55861c53.503-0.99248 77.574 4.1146 93.243 19.783 10.948 10.948 15.172 22.388 15.148 41.03-0.025 19.968-5.4648 33.426-18.284 45.243-8.4368 7.7768-25.392 16.143-33.549 18.041 0 0 30.692 41.992 32.833 44.867 17.675 23.556 32.136 43.46 32.136 44.23 0 0.77034-10.133 1.145-22.518 0.83269l-22.518-0.56789-64.427-82.767-1.0042 41.384-1.0043 41.384-19.618 0.57526c-14.567-0.20556-20.987-0.36337-20.987-0.36337h4e-4zm85.866-130.26c14.07-7.1006 18.338-21.547 9.6356-32.611-6.5744-8.3579-15.344-11.074-35.751-11.074h-18.141v24.102 24.102h17.651c14.312 0 19.345-0.85477 26.606-4.5191zm-962.14 23.524v-105.52l18.325-0.18179 18.579-0.18179 0.79452 45.251 0.54142 43.732 69.214-1.0988 0.54129-43.685 0.54131-43.685h18.037 18.037v105.45 105.45h-18.076-18.076v-43.183-43.183h-35.149-35.149v43.183 43.183h-19.081-19.081v-105.52z"/>
   <g transform="translate(-6.9129 424.01)">
    <path d="m1411.2-360.25c-50.876 0.64328-101.96-1.1878-152.66 3.5312-6.2053 1.4504-12.334 1.2378-15.312 6.9254-1.0103 0.77016-4.6196-1.6452-9.7045-0.35154-10.646 2.7085-26.049 9.6865-25.594 12.084 0.7966 4.1997 35.77 9.5806 40.236 10.373 2.0913 0.5523 8.5774-1.892 7.6418 1.1649 2.5138 3.6924 14.742 6.8009 24.646 7.4096 24.962 1.5344 47.532 0.6124 72.142 4.3858-20.934 42.992-43.707 89.094-50.679 136.85-0.8952 8.6661-1.4153 17.508 1.0467 25.963 2.4737 6.424 7.6683 10.319 15.012 14.122 3.915 9.0038 14.477 10.251 17.033 1.2066 3.0833-6.3806 6.1047-12.778 6.4703-20.135 6.9181-38.033 17.696-75.732 35.688-110.09 6.2285-11.274 12.844-22.85 21.906-31.875-8.4952 41.346-18.291 82.904-18.781 125.28 0.4586 11.499 1.8088 24.915 11.344 32.594 7.1255 5.5846 18.459 4.1433 23.277-3.7896 19.279-23.294 35.316-49.28 56.317-71.335 29.369-33.366 62.108-63.603 96.844-91.5 1.9855-1.6458 17.216-10.361 18.057-12.817 1.0485-3.0617-7.0014-2.4724-9.2365-5.2509 0.5179-3.8404 2.4373-6.0645 3.948-9.9942 3.1532-8.2019-8.1871 0.86774-8.3806-0.23225-0.6891-3.9178-0.8671-6.9536-4.69-5.9663-6.3699 0.53191-19.185 4.6919-24.892 6.0966-6.7751-0.97246-14.674 10.451-20.869 12.559-3.1816 1.2481-1.7848-7.7399-5.0431-5.3472-5.7703 4.2372-16.2 20.464-21.582 23.296-23.358 23.673-44.53 49.39-65.625 75.156 5.5557-24.494 10.927-49.466 23.187-71.594 1.8959-4.024 1.7902-9.1662-0.4374-12.812 9.387-0.9069 19.657-9.6353 20.29-18.472 0.01-1.422 5.934-3.5794 6.1377-5.0239 0.4593-3.2579-6.5908-6.531-8.3649-9.6295-4.6031-11.035-17.971-13.193-28.625-12.614-10.248-0.26376-20.5-0.26541-30.75-0.16681z" fill="#b7b7b7" stroke="#b7b7b7"/>
    <path d="m1324.3-149.2c-0.3592-8.292-0.4892-8.4817-2.34-3.4144-0.9519 2.6062-2.2911 4.2715-3.6495 4.9217-1.2494 0.59806-2.3359 7.0484-3.3309 5.871-0.4859-0.5751-1.0863-8.08-1.4098-9.0992-1.0125-3.1901-1.3738-6.2595-1.349-12.442 0-0.28631-1.3811 8.3821-1.4519 7.5332-0.5162-6.1889 0.6281-11.297 0.6465-11.578 0.685-10.334 2.3956-22.914 4.8925-32.521 6.5808-25.32 22.472-66.329 37.127-95.807l13.196-26.544-21.689-1.2499c-11.929-0.68743-35.737-1.2806-52.906-1.3181-28.62-0.0625-38.764-2.1055-21.362-4.0547 2.6032-0.2916 8.864-0.30463 12.57-0.59964 25.272-2.0115 24.088-5.0273-2.0364-5.1877-12.287-0.0754-24.096-0.8917-26.242-1.8139-2.1462-0.92225-6.2258-1.7385-4.9182-1.814 1.3077-0.0754 5.3259-1.2977 4.7815-2.7162-0.2816-0.73404-2.6477-4.3824-1.4574-4.4707 2.1519-0.15966 4.2003-2.2381 6.2665-2.8634 4.7812-1.4468 22.455-3.4537 100.11-3.923 93.158-0.56296 95.106 2.0343 98.973 5.9011 4.581 4.581 3.614 8.9021-2.4431 10.917l-4.2549 1.4155 6.6895 0.46361c2.4144 0.47495 2.7101 2.5276 2.0903 3.7412-2.2996 4.5026-10.018 7.0062-35.028 7.0062-15.99 0-28.738 0.24946-30.543 1.3886-0.845 0.53319 6.9663-0.2631 7.2486 0.81654 0.6569 2.5119-2.549 7.358-8.5543 12.633-22.211 19.508-45.664 71.301-58.765 129.78-2.7938 12.47-5.0797 24.542-5.0797 26.827 0 2.2852-0.8136 4.155-1.808 4.155s-3.7281 12.27-4.2189 14.148c-0.4907 1.8779-1.5695-8.992 0.246-16.099zm-5.9255-12.797c0-9.4542-3.0402-8.3923-3.6098 1.2609-0.304 5.1518 0.2516 7.5282 1.5696 6.7136 1.1221-0.69349 2.0402-4.282 2.0402-7.9745zm-44.875-180.36c0-1.0731-2.1432-1.9511-4.7626-1.9511s-5.3051 0.87798-5.9683 1.9511c-0.7035 1.1383 1.2804 1.9511 4.7625 1.9511 3.2826 0 5.9684-0.87798 5.9684-1.9511zm125.32 193.8c-5.2243-2.102-8.251-12.151-8.2455-27.376 0.01-21.302 2.8026-41.8 12.45-91.31 7.9817-40.96 8.6032-43.041 13.584-45.479 5.7635-2.8217 20.448-1.5154 25.582 2.2758 2.7002 1.9939 2.6204 2.9549-0.7522 9.0593-6.6448 12.027-8.1434 16.12-15.004 40.973-7.0412 25.507-13.685 61.853-11.673 63.864 0.6445 0.64455 1.4295 0.80607 1.7444 0.35895 17.838-25.328 84.523-103.24 88.362-103.24 0.867 0 4.1527-2.4144 7.3015-5.3655l5.7251-5.3654-2.3363 4.8777c-1.8468 3.8558-0.8725 3.3449 4.6511-2.4388 6.6426-6.9556 10.517-9.5838 7.9103-5.3655-0.6632 1.0731-0.3278 1.9511 0.7453 1.9511s5.2695-3.6392 5.9038-4.6654c0.6342-1.0262-1.4003 2.8116 0.1224 3.3959 1.5228 0.58434 6.6649-2.4608 10.205-5.0562 6.0893-4.4644 15.216-6.7303 15.216-3.7777 0 0.74828-1.756 2.4571-3.9022 3.7974s-3.9021 3.3573-3.9021 4.4821c0 1.1286 1.9433 0.68399 4.3363-0.99207 2.3849-1.6705 5.064-3.0372 5.9535-3.0372 0.8894 0-7.3599 7.1518-18.332 15.893-40.561 32.313-91.985 86.838-120.26 127.51-11.081 15.94-19.843 26.461-21.808 26.185-0.6041-0.0847-2.2142-0.60301-3.5782-1.1518zm151.74-169.12c0-1.0731-2.195 0.11098-4.8777 2.6313-2.6827 2.5203-4.8777 5.4603-4.8777 6.5334s2.195-0.11098 4.8777-2.6313c2.6827-2.5203 4.8777-5.4603 4.8777-6.5334z" fill="#cf0712"/>
   </g>
   <g stroke="#000" stroke-width="1.0704">
    <path d="m1442.2 279.2v-18.246h-5.5881v-2.4412h13.448v2.4412h-5.6163v18.246z"/>
    <path d="m1452.3 279.2v-20.687h3.3726l4.0217 14.647 0.8043 3.0621c0.1976-0.76201 0.4986-1.8674 0.9032-3.3162l4.064-14.393h3.0198v20.687h-2.159v-17.315l-4.9389 17.315h-2.018l-4.9107-17.611v17.611z"/>
   </g>
  </g>
 </g>
</svg>
