<svg xmlns="http://www.w3.org/2000/svg" height="184.86" width="600" viewBox="0 0 158.75 48.91">
    <g fill="#00464f">
        <path d="M42.69 9.98v22.74c0 4.14-2.52 7.69-6.11 9.2.11-4.19-.73-11.76-8.05-19.16-5.11-5.18-8.94-1.5-9.75-1.09-.58.29-1.26-1.14-1.24-1.92.05-2.49 3.24-3.09 4.69-6.07.67-1.39.36-3.32-.55-4.69.85.5 2.4 4.41 2.62 6.72.1-10.44-5.38-10.36-6.24-10.48-.98-.13-3.5.01-4.89 1.21-1.03.89-4.17 1.64-5.22 1.9-1.05.27-1.93.65-3.6 1.1.79-.01 4.06.09 4.94.31.88.23 4.88.73 5.73.66 2.02-.16 4.31 1.47 3.5 3.22-.99 2.13-2.48 2.46-3.88 4.8-5.32 8.9 5.9 16.64 6.21 18.27.39 2.13 4.93 6 4.93 6h-9.52l-2.2 6.21-2.84-6.21H9.97C4.46 42.7 0 38.23 0 32.72V9.98C0 4.47 4.46 0 9.97 0h22.75c5.51 0 9.97 4.47 9.97 9.98M147.313 19.722l5.598 12.146h.279l5.556-12.146h-1.671l-4.028 8.845-4.07-8.845zM137.398 17h3.7v14.925h1.69V17h3.688v-1.608h-9.078z" fill-rule="evenodd"/>
        <path d="M50.825 15.024h1.649v16.534h-1.65z"/>
        <path d="M62.398 30.352c.876 0 1.68-.21 2.423-.638.743-.433 1.333-1.043 1.77-1.823s.662-1.602.662-2.473c0-.866-.223-1.698-.661-2.484-.448-.786-1.038-1.396-1.792-1.829a4.56 4.56 0 0 0-2.382-.667c-.865 0-1.68.222-2.463.667a4.709 4.709 0 0 0-1.791 1.76c-.408.747-.611 1.579-.611 2.507 0 1.42.458 2.598 1.394 3.55.937.956 2.087 1.43 3.451 1.43m-6.3 1.202V14.61h1.567v6.82c.651-.81 1.394-1.413 2.209-1.812a6.021 6.021 0 0 1 2.687-.604c1.73 0 3.206.626 4.428 1.886 1.231 1.254 1.842 2.774 1.842 4.564 0 1.766-.61 3.275-1.852 4.528-1.232 1.255-2.718 1.875-4.459 1.875-.997 0-1.903-.21-2.707-.638s-1.527-1.066-2.148-1.92v2.245zM81.993 24.206c-.214-.838-.52-1.51-.927-2.012-.397-.5-.916-.906-1.577-1.213s-1.354-.461-2.077-.461c-1.201 0-2.23.387-3.094 1.156-.631.564-1.1 1.407-1.425 2.53zm0 3.293l1.333.695c-.448.854-.947 1.544-1.517 2.068s-1.2.929-1.913 1.202c-.713.273-1.517.404-2.423.404-1.995 0-3.542-.649-4.672-1.954-1.13-1.31-1.68-2.791-1.68-4.438 0-1.55.469-2.935 1.426-4.148 1.2-1.544 2.82-2.313 4.835-2.313 2.086 0 3.756.786 4.997 2.37.876 1.117 1.334 2.507 1.344 4.183H72.74c.02 1.424.478 2.591 1.354 3.503.875.906 1.954 1.362 3.247 1.362.62 0 1.221-.109 1.812-.33a4.84 4.84 0 0 0 1.506-.86c.407-.366.855-.941 1.334-1.744" fill-rule="evenodd"/>
        <path d="M86.064 19.328h1.609v1.79c.478-.707.977-1.231 1.506-1.573.54-.353 1.09-.53 1.67-.53l1.394.416-.825 1.327-.824-.217c-.53 0-1.038.217-1.527.65-.478.427-.855 1.1-1.11 2-.193.7-.284 2.108-.284 4.227v4.137h-1.609z"/>
        <path d="M99.47 20.531c-.886 0-1.69.216-2.433.65a4.686 4.686 0 0 0-1.77 1.811 4.96 4.96 0 0 0-.652 2.473c0 .86.224 1.687.661 2.472s1.039 1.402 1.771 1.84c.754.44 1.558.656 2.413.656s1.68-.217 2.443-.655a4.546 4.546 0 0 0 1.781-1.761c.417-.74.621-1.578.621-2.506 0-1.42-.458-2.599-1.405-3.55-.916-.951-2.076-1.43-3.43-1.43m6.29-1.202v12.226h-1.557v-2.102c-.651.803-1.394 1.407-2.219 1.812-.814.404-1.71.603-2.687.603-1.73 0-3.206-.627-4.438-1.873-1.222-1.26-1.832-2.786-1.832-4.587 0-1.761.62-3.265 1.852-4.519 1.242-1.247 2.728-1.874 4.459-1.874 1.007 0 1.913.211 2.728.639s1.527 1.07 2.137 1.926v-2.251z" fill-rule="evenodd"/>
        <path d="M109.069 14.609h1.567v16.943h-1.567z"/>
        <path d="M113.67 19.326h1.588v12.226h-1.588zm.794-5.03l.916.381.376.922-.376.906-.916.382-.916-.382-.377-.906.377-.922zM124.398 20.531c-.875 0-1.68.216-2.422.65-.743.427-1.334 1.03-1.782 1.811-.427.78-.64 1.6-.64 2.473 0 .86.213 1.687.66 2.472.439.786 1.029 1.402 1.772 1.84s1.547.656 2.402.656c.865 0 1.68-.217 2.453-.655a4.546 4.546 0 0 0 1.782-1.761c.417-.74.62-1.578.62-2.506 0-1.42-.468-2.599-1.394-3.55-.936-.951-2.087-1.43-3.45-1.43m6.3-1.202v12.226h-1.547v-2.102c-.672.803-1.415 1.407-2.23 1.812a6.021 6.021 0 0 1-2.686.603c-1.73 0-3.207-.627-4.439-1.873-1.221-1.26-1.832-2.786-1.832-4.587 0-1.761.611-3.265 1.853-4.519 1.232-1.247 2.718-1.874 4.458-1.874 1.008 0 1.914.211 2.728.639s1.527 1.07 2.148 1.926v-2.251z" fill-rule="evenodd"/>
    </g>
</svg>
