<svg xmlns="http://www.w3.org/2000/svg" width="600" height="184.859">
    <g fill="#FFF">
        <path d="M161.348 37.721v85.946c0 15.647-9.524 29.064-23.093 34.771.416-15.836-2.759-44.447-30.425-72.415-19.313-19.578-33.789-5.67-36.851-4.12-2.192 1.096-4.763-4.309-4.687-7.257.188-9.411 12.245-11.679 17.726-22.941 2.532-5.254 1.36-12.548-2.079-17.727 3.213 1.891 9.071 16.668 9.902 25.398.379-39.458-20.333-39.155-23.584-39.609-3.704-.491-13.229.038-18.481 4.573-3.894 3.364-15.761 6.199-19.729 7.182-3.969 1.021-7.294 2.456-13.606 4.157 2.986-.038 15.345.34 18.671 1.172 3.326.869 18.444 2.759 21.657 2.494 7.635-.604 16.289 5.557 13.228 12.17-3.741 8.051-9.373 9.298-14.664 18.143-20.107 33.638 22.299 62.891 23.471 69.052 1.474 8.05 18.633 22.677 18.633 22.677h-35.98l-8.315 23.471-10.733-23.471h-4.725c-20.825 0-37.682-16.895-37.682-37.72V37.721C.002 16.896 16.858.001 37.684.001h85.984c20.823 0 37.68 16.895 37.68 37.72M556.775 74.54l21.155 45.91h1.054l21.003-45.91h-6.317l-15.224 33.433-15.38-33.433h-6.291zM519.299 64.253h13.984v56.411h6.386V64.253h13.938v-6.078h-34.31v6.078zM192.093 56.787h6.232v62.489h-6.232v-62.49zM235.835 114.717c3.308 0 6.348-.797 9.156-2.412 2.808-1.636 5.04-3.94 6.695-6.89s2.5-6.052 2.5-9.345c0-3.274-.846-6.416-2.5-9.387-1.693-2.974-3.924-5.278-6.77-6.913-2.809-1.68-5.81-2.52-9.004-2.52-3.27 0-6.347.84-9.31 2.52-2.885 1.636-5.155 3.856-6.77 6.652-1.54 2.823-2.309 5.967-2.309 9.475 0 5.363 1.731 9.818 5.27 13.415 3.54 3.616 7.887 5.405 13.042 5.405m-23.814 4.543V55.22h5.925v25.776c2.463-3.058 5.271-5.34 8.348-6.847 3.116-1.527 6.503-2.282 10.158-2.282 6.54 0 12.118 2.366 16.734 7.125 4.655 4.74 6.964 10.489 6.964 17.252 0 6.674-2.309 12.38-7.003 17.116-4.654 4.74-10.271 7.086-16.85 7.086-3.77 0-7.194-.797-10.233-2.412-3.04-1.617-5.77-4.028-8.118-7.256v8.482h-5.925zM309.893 91.488c-.808-3.166-1.961-5.705-3.5-7.602-1.502-1.893-3.463-3.425-5.964-4.585a18.4 18.4 0 0 0-7.848-1.744c-4.54 0-8.425 1.462-11.696 4.37-2.385 2.132-4.154 5.317-5.384 9.56h34.392zm0 12.445l5.039 2.628c-1.693 3.228-3.577 5.836-5.733 7.817-2.154 1.982-4.539 3.51-7.232 4.544-2.692 1.03-5.732 1.527-9.156 1.527-7.54 0-13.387-2.455-17.659-7.387-4.27-4.95-6.347-10.548-6.347-16.773 0-5.855 1.769-11.092 5.386-15.677 4.54-5.836 10.657-8.741 18.274-8.741 7.887 0 14.196 2.97 18.89 8.957 3.307 4.22 5.038 9.476 5.077 15.808h-41.509c.078 5.382 1.808 9.796 5.116 13.242 3.309 3.425 7.387 5.148 12.273 5.148 2.346 0 4.617-.412 6.848-1.25 2.23-.82 4.117-1.898 5.694-3.251 1.539-1.383 3.232-3.556 5.04-6.592M325.282 73.052h6.078v6.764c1.809-2.67 3.693-4.652 5.694-5.945 2.039-1.334 4.116-2.005 6.309-2.005l5.272 1.575-3.117 5.016-3.115-.82c-2.001 0-3.925.82-5.771 2.454-1.808 1.617-3.232 4.16-4.194 7.56-.731 2.648-1.077 7.969-1.077 15.978v15.635h-6.078V73.052zM375.949 77.599c-3.347 0-6.386.816-9.195 2.455-2.808 1.615-5.04 3.896-6.694 6.847-1.655 2.947-2.463 6.048-2.463 9.345 0 3.25.846 6.375 2.5 9.344 1.654 2.97 3.925 5.298 6.695 6.956 2.847 1.658 5.885 2.478 9.118 2.478 3.232 0 6.348-.82 9.233-2.478 2.923-1.639 5.155-3.856 6.733-6.655 1.577-2.798 2.346-5.964 2.346-9.472 0-5.363-1.731-9.822-5.31-13.415-3.46-3.597-7.845-5.405-12.963-5.405m23.776-4.543v46.207h-5.885v-7.944c-2.464 3.035-5.271 5.317-8.387 6.848-3.078 1.527-6.464 2.281-10.158 2.281-6.54 0-12.118-2.37-16.772-7.082-4.617-4.76-6.925-10.53-6.925-17.335 0-6.656 2.346-12.338 7.002-17.079 4.693-4.712 10.31-7.082 16.85-7.082 3.81 0 7.232.797 10.31 2.412 3.078 1.617 5.771 4.049 8.08 7.28v-8.506h5.885zM412.229 55.216h5.924v64.036h-5.924V55.216zM429.618 73.045h6.001v46.207h-6.001V73.045zm3-19.014l3.463 1.443 1.423 3.485-1.423 3.425-3.462 1.442-3.462-1.442-1.424-3.425 1.424-3.485 3.462-1.443zM470.167 77.599c-3.308 0-6.348.816-9.156 2.455-2.809 1.615-5.04 3.896-6.733 6.847-1.616 2.947-2.423 6.048-2.423 9.345 0 3.25.807 6.375 2.5 9.344 1.654 2.97 3.885 5.298 6.694 6.956s5.848 2.478 9.08 2.478c3.27 0 6.348-.82 9.271-2.478 2.924-1.639 5.156-3.856 6.733-6.655 1.576-2.798 2.346-5.964 2.346-9.472 0-5.363-1.77-9.822-5.27-13.415-3.54-3.597-7.887-5.405-13.042-5.405m23.814-4.543v46.207h-5.848v-7.944c-2.539 3.035-5.348 5.317-8.425 6.848-3.116 1.527-6.503 2.281-10.158 2.281-6.54 0-12.118-2.37-16.773-7.082-4.616-4.76-6.925-10.53-6.925-17.335 0-6.656 2.309-12.338 7.002-17.079 4.655-4.712 10.272-7.082 16.85-7.082 3.81 0 7.233.797 10.311 2.412 3.078 1.617 5.77 4.049 8.117 7.28v-8.506h5.849z"/>
    </g>
</svg>
