<svg width="200mm" height="68.765mm" version="1.1" viewBox="0 0 200 68.765" xmlns="http://www.w3.org/2000/svg">
 <g transform="translate(177.86 -51.707)">
  <g transform="matrix(9.9963 0 0 9.9963 -11495 -1600.2)" fill="#211e1e">
   <g transform="matrix(.26458 0 0 .26458 57.179 67.909)"></g>
  </g>
  <g transform="matrix(9.9963 0 0 9.9963 -11495 -1600.2)" fill="#211e1e">
   <g transform="matrix(.26458 0 0 .26458 90.661 67.909)"></g>
  </g>
  <g transform="matrix(9.9963 0 0 9.9963 -11495 -1600.2)" fill="#211e1e">
   <g transform="matrix(.26458 0 0 .26458 181.83 67.909)"></g>
  </g>
  <g transform="matrix(9.9963 0 0 9.9963 -11495 -1600.2)" fill="#211e1e">
   <g transform="matrix(.26458 0 0 .26458 58.281 85.894)"></g>
  </g>
  <g transform="matrix(9.9963 0 0 9.9963 -11495 -1600.2)" fill="#211e1e">
   <g transform="matrix(.26458 0 0 .26458 90.661 85.894)"></g>
  </g>
  <g transform="matrix(9.9963 0 0 9.9963 -11495 -1600.2)" fill="#211e1e">
   <g transform="matrix(.26458 0 0 .26458 161.75 85.894)"></g>
  </g>
  <g transform="matrix(9.9963 0 0 9.9963 -11495 -1600.2)" fill="#211e1e">
   <g transform="matrix(.26458 0 0 .26458 58.189 103.88)"></g>
  </g>
  <g transform="matrix(9.9963 0 0 9.9963 -11495 -1600.2)" fill="#211e1e">
   <g transform="matrix(.26458 0 0 .26458 88.253 103.88)"></g>
  </g>
  <g transform="matrix(9.9963 0 0 9.9963 -11495 -1600.2)" fill="#211e1e">
   <g transform="matrix(.26458 0 0 .26458 205.67 103.88)"></g>
  </g>
  <g transform="matrix(9.9963 0 0 9.9963 -11495 -1600.2)" fill="#211e1e">
   <g transform="matrix(.26458 0 0 .26458 42.52 114.88)"></g>
  </g>
  <g transform="matrix(9.9963 0 0 9.9963 -11495 -1600.2)" fill="#211e1e">
   <g transform="matrix(.26458 0 0 .26458 58.986 151.01)"></g>
  </g>
  <g transform="matrix(9.9963 0 0 9.9963 -11495 -1600.2)" fill="#211e1e">
   <g transform="matrix(.26458 0 0 .26458 90.661 151.01)"></g>
  </g>
  <g transform="matrix(9.9963 0 0 9.9963 -11495 -1600.2)" fill="#211e1e">
   <g transform="matrix(.26458 0 0 .26458 155.46 151.01)"></g>
  </g>
  <g transform="matrix(9.9963 0 0 9.9963 -11495 -1600.2)" fill="#211e1e">
   <g transform="matrix(.26458 0 0 .26458 239.24 151.01)"></g>
  </g>
  <g transform="matrix(9.9963 0 0 9.9963 -11495 -1600.2)" fill="#211e1e">
   <g transform="matrix(.26458 0 0 .26458 56.968 168.99)"></g>
  </g>
  <g transform="matrix(9.9963 0 0 9.9963 -11495 -1600.2)" fill="#211e1e">
   <g transform="matrix(.26458 0 0 .26458 90.661 168.99)"></g>
  </g>
  <g transform="matrix(9.9963 0 0 9.9963 -11495 -1600.2)" fill="#211e1e">
   <g transform="matrix(.26458 0 0 .26458 163.83 168.99)"></g>
  </g>
  <g transform="matrix(9.9963 0 0 9.9963 -11495 -1600.2)" fill="#211e1e">
   <g transform="matrix(.26458 0 0 .26458 239.24 168.99)"></g>
   <g transform="matrix(.26458 0 0 .26458 254.28 168.99)"></g>
  </g>
  <g transform="matrix(9.9963 0 0 9.9963 -11495 -1600.2)" fill="#211e1e">
   <g transform="matrix(.26458 0 0 .26458 58.186 186.97)"></g>
  </g>
  <g transform="matrix(9.9963 0 0 9.9963 -11495 -1600.2)" fill="#211e1e">
   <g transform="matrix(.26458 0 0 .26458 90.661 186.98)"></g>
  </g>
  <g transform="matrix(9.9963 0 0 9.9963 -11495 -1600.2)" fill="#211e1e">
   <g transform="matrix(.26458 0 0 .26458 148.31 186.98)"></g>
  </g>
  <g transform="matrix(9.9963 0 0 9.9963 -11495 -1600.2)" fill="#211e1e">
   <g transform="matrix(.26458 0 0 .26458 57.977 204.96)"></g>
  </g>
  <g transform="matrix(9.9963 0 0 9.9963 -11495 -1600.2)" fill="#211e1e">
   <g transform="matrix(.26458 0 0 .26458 90.661 204.96)"></g>
  </g>
  <g transform="matrix(9.9963 0 0 9.9963 -11495 -1600.2)" fill="#211e1e">
   <g transform="matrix(.26458 0 0 .26458 147.9 204.96)"></g>
  </g>
  <g transform="matrix(9.9963 0 0 9.9963 -11495 -1600.2)" fill="#211e1e">
   <g transform="matrix(.26458 0 0 .26458 42.52 216.96)"></g>
  </g>
  <g transform="matrix(9.9963 0 0 9.9963 -11495 -1600.2)" fill="#211e1e">
   <g transform="matrix(.26458 0 0 .26458 57.967 253.09)"></g>
  </g>
  <g transform="matrix(9.9963 0 0 9.9963 -11495 -1600.2)" fill="#211e1e">
   <g transform="matrix(.26458 0 0 .26458 90.661 253.09)"></g>
  </g>
  <g transform="matrix(9.9963 0 0 9.9963 -11495 -1600.2)" fill="#211e1e">
   <g transform="matrix(.26458 0 0 .26458 165.35 253.09)"></g>
  </g>
  <g transform="matrix(9.9963 0 0 9.9963 -11495 -1600.2)" fill="#211e1e">
   <g transform="matrix(.26458 0 0 .26458 58.361 271.07)"></g>
  </g>
  <g transform="matrix(9.9963 0 0 9.9963 -11495 -1600.2)" fill="#211e1e">
   <g transform="matrix(.26458 0 0 .26458 90.661 271.07)"></g>
  </g>
  <g transform="matrix(9.9963 0 0 9.9963 -11495 -1600.2)" fill="#211e1e">
   <g transform="matrix(.26458 0 0 .26458 121.06 271.07)"></g>
  </g>
  <g transform="matrix(9.9963 0 0 9.9963 -11495 -1600.2)" fill="#211e1e">
   <g transform="matrix(.26458 0 0 .26458 57.745 289.06)"></g>
  </g>
  <g transform="matrix(9.9963 0 0 9.9963 -11495 -1600.2)" fill="#211e1e">
   <g transform="matrix(.26458 0 0 .26458 90.661 289.06)"></g>
  </g>
  <g transform="matrix(9.9963 0 0 9.9963 -11495 -1600.2)" fill="#211e1e">
   <g transform="matrix(.26458 0 0 .26458 162.02 289.06)"></g>
  </g>
  <g transform="matrix(9.9963 0 0 9.9963 -11495 -1600.2)" fill="#211e1e">
   <g transform="matrix(.26458 0 0 .26458 234.75 289.06)"></g>
  </g>
  <g transform="matrix(9.9963 0 0 9.9963 -11495 -1600.2)" fill="#211e1e">
   <g transform="matrix(.26458 0 0 .26458 58.688 307.04)"></g>
  </g>
  <g transform="matrix(9.9963 0 0 9.9963 -11495 -1600.2)" fill="#211e1e">
   <g transform="matrix(.26458 0 0 .26458 90.661 307.04)"></g>
  </g>
  <g transform="matrix(9.9963 0 0 9.9963 -11495 -1600.2)" fill="#211e1e">
   <g transform="matrix(.26458 0 0 .26458 137.88 307.04)"></g>
  </g>
  <g transform="matrix(9.9963 0 0 9.9963 -11495 -1600.2)" fill="#211e1e">
   <g transform="matrix(.26458 0 0 .26458 59.282 325.03)"></g>
  </g>
  <g transform="matrix(9.9963 0 0 9.9963 -11495 -1600.2)" fill="#211e1e">
   <g transform="matrix(.26458 0 0 .26458 90.661 325.03)"></g>
  </g>
  <g transform="matrix(9.9963 0 0 9.9963 -11495 -1600.2)" fill="#211e1e">
   <g transform="matrix(.26458 0 0 .26458 137.78 325.03)"></g>
  </g>
  <g transform="matrix(9.9963 0 0 9.9963 -11495 -1600.2)" fill="#211e1e">
   <g transform="matrix(.26458 0 0 .26458 56.868 343.01)"></g>
  </g>
  <g transform="matrix(9.9963 0 0 9.9963 -11495 -1600.2)" fill="#211e1e">
   <g transform="matrix(.26458 0 0 .26458 90.661 343.01)"></g>
  </g>
  <g transform="matrix(9.9963 0 0 9.9963 -11495 -1600.2)" fill="#211e1e">
   <g transform="matrix(.26458 0 0 .26458 170.32 343.01)"></g>
  </g>
  <g transform="matrix(9.9963 0 0 9.9963 -11495 -1600.2)" fill="#211e1e">
   <g transform="matrix(.26458 0 0 .26458 234.75 343.01)"></g>
  </g>
  <g transform="matrix(9.9963 0 0 9.9963 -11495 -1600.2)" fill="#211e1e">
   <g transform="matrix(.26458 0 0 .26458 59.05 361)"></g>
  </g>
  <g transform="matrix(9.9963 0 0 9.9963 -11495 -1600.2)" fill="#211e1e">
   <g transform="matrix(.26458 0 0 .26458 57.967 378.98)"></g>
  </g>
  <g transform="matrix(9.9963 0 0 9.9963 -11495 -1600.2)" fill="#211e1e">
   <g transform="matrix(.26458 0 0 .26458 90.661 378.98)"></g>
  </g>
  <g transform="matrix(9.9963 0 0 9.9963 -11495 -1600.2)" fill="#211e1e">
   <g transform="matrix(.26458 0 0 .26458 135.79 378.98)"></g>
  </g>
  <g transform="matrix(9.9963 0 0 9.9963 -11495 -1600.2)" fill="#211e1e">
   <g transform="matrix(.26458 0 0 .26458 58.654 397.13)"></g>
  </g>
  <g transform="matrix(9.9963 0 0 9.9963 -11495 -1600.2)" fill="#211e1e">
   <g transform="matrix(.26458 0 0 .26458 90.661 397.13)"></g>
  </g>
  <g transform="matrix(9.9963 0 0 9.9963 -11495 -1600.2)" fill="#211e1e">
   <g transform="matrix(.26458 0 0 .26458 156.11 397.13)"></g>
  </g>
  <g transform="matrix(9.9963 0 0 9.9963 -11495 -1600.2)" fill="#211e1e">
   <g transform="matrix(.26458 0 0 .26458 228.09 398.13)"></g>
   <g transform="matrix(.26458 0 0 .26458 230.39 398.13)"></g>
  </g>
  <g transform="matrix(9.9963 0 0 9.9963 -11495 -1600.2)" fill="#211e1e">
   <g transform="matrix(.26458 0 0 .26458 246.83 397.13)"></g>
  </g>
  <g transform="matrix(9.9963 0 0 9.9963 -11495 -1600.2)" fill="#211e1e">
   <g transform="matrix(.26458 0 0 .26458 57.748 415.27)"></g>
  </g>
  <g transform="matrix(9.9963 0 0 9.9963 -11495 -1600.2)" fill="#211e1e">
   <g transform="matrix(.26458 0 0 .26458 90.661 415.27)"></g>
  </g>
  <g transform="matrix(9.9963 0 0 9.9963 -11495 -1600.2)" fill="#211e1e">
   <g transform="matrix(.26458 0 0 .26458 159.99 415.27)"></g>
  </g>
  <g transform="matrix(9.9963 0 0 9.9963 -11495 -1600.2)" fill="#211e1e">
   <g transform="matrix(.26458 0 0 .26458 228.09 416.27)"></g>
   <g transform="matrix(.26458 0 0 .26458 230.39 416.27)"></g>
  </g>
  <g transform="matrix(9.9963 0 0 9.9963 -11495 -1600.2)" fill="#211e1e">
   <g transform="matrix(.26458 0 0 .26458 246.83 415.27)"></g>
   <g transform="matrix(.26458 0 0 .26458 254.27 415.27)"></g>
  </g>
  <g transform="matrix(9.9963 0 0 9.9963 -11495 -1600.2)" fill="#211e1e">
   <g transform="matrix(.26458 0 0 .26458 58.965 433.25)"></g>
  </g>
  <g transform="matrix(9.9963 0 0 9.9963 -11495 -1600.2)" fill="#211e1e">
   <g transform="matrix(.26458 0 0 .26458 90.661 433.26)"></g>
  </g>
  <g transform="matrix(9.9963 0 0 9.9963 -11495 -1600.2)" fill="#211e1e">
   <g transform="matrix(.26458 0 0 .26458 172.82 433.26)"></g>
  </g>
  <g transform="matrix(9.9963 0 0 9.9963 -11495 -1600.2)" fill="#211e1e">
   <g transform="matrix(.26458 0 0 .26458 58.202 451.24)"></g>
  </g>
  <g transform="matrix(9.9963 0 0 9.9963 -11495 -1600.2)" fill="#211e1e">
   <g transform="matrix(.26458 0 0 .26458 90.661 451.24)"></g>
  </g>
  <g transform="matrix(9.9963 0 0 9.9963 -11495 -1600.2)" fill="#211e1e">
   <g transform="matrix(.26458 0 0 .26458 171.66 451.24)"></g>
  </g>
  <g transform="matrix(9.9963 0 0 9.9963 -11495 -1600.2)" fill="#211e1e">
   <g transform="matrix(.26458 0 0 .26458 234.75 451.24)"></g>
  </g>
  <g transform="matrix(9.9963 0 0 9.9963 -11495 -1600.2)" fill="#211e1e">
   <g transform="matrix(.26458 0 0 .26458 58.791 469.22)"></g>
  </g>
  <g transform="matrix(9.9963 0 0 9.9963 -11495 -1600.2)" fill="#211e1e">
   <g transform="matrix(.26458 0 0 .26458 90.661 469.23)"></g>
  </g>
  <g transform="matrix(9.9963 0 0 9.9963 -11495 -1600.2)" fill="#211e1e">
   <g transform="matrix(.26458 0 0 .26458 169.68 469.23)"></g>
  </g>
  <g transform="matrix(9.9963 0 0 9.9963 -11495 -1600.2)" fill="#211e1e">
   <g transform="matrix(.26458 0 0 .26458 234.75 469.23)"></g>
  </g>
  <g transform="matrix(9.9963 0 0 9.9963 -11495 -1600.2)" fill="#211e1e">
   <g transform="matrix(.26458 0 0 .26458 57.985 487.21)"></g>
  </g>
  <g transform="matrix(9.9963 0 0 9.9963 -11495 -1600.2)" fill="#211e1e">
   <g transform="matrix(.26458 0 0 .26458 90.661 487.21)"></g>
  </g>
  <g transform="matrix(9.9963 0 0 9.9963 -11495 -1600.2)" fill="#211e1e">
   <g transform="matrix(.26458 0 0 .26458 162.41 487.21)"></g>
  </g>
  <g transform="matrix(9.9963 0 0 9.9963 -11495 -1600.2)" fill="#211e1e">
   <g transform="matrix(.26458 0 0 .26458 234.75 487.21)"></g>
  </g>
  <g transform="matrix(9.9963 0 0 9.9963 -11495 -1600.2)" fill="#211e1e">
   <g transform="matrix(.26458 0 0 .26458 57.867 505.19)"></g>
  </g>
  <g transform="matrix(9.9963 0 0 9.9963 -11495 -1600.2)" fill="#211e1e">
   <g transform="matrix(.26458 0 0 .26458 90.661 505.2)"></g>
  </g>
  <g transform="matrix(9.9963 0 0 9.9963 -11495 -1600.2)" fill="#211e1e">
   <g transform="matrix(.26458 0 0 .26458 191.06 505.2)"></g>
  </g>
  <g transform="matrix(9.9963 0 0 9.9963 -11495 -1600.2)" fill="#211e1e">
   <g transform="matrix(.26458 0 0 .26458 59.213 523.18)"></g>
  </g>
  <g transform="matrix(9.9963 0 0 9.9963 -11495 -1600.2)" fill="#211e1e">
   <g transform="matrix(.26458 0 0 .26458 90.661 523.18)"></g>
  </g>
  <g transform="matrix(9.9963 0 0 9.9963 -11495 -1600.2)" fill="#211e1e">
   <g transform="matrix(.26458 0 0 .26458 152.54 523.18)"></g>
  </g>
  <g transform="matrix(9.9963 0 0 9.9963 -11495 -1600.2)" fill="#211e1e">
   <g transform="matrix(.26458 0 0 .26458 56.603 541.17)"></g>
  </g>
  <g transform="matrix(9.9963 0 0 9.9963 -11495 -1600.2)" fill="#211e1e">
   <g transform="matrix(.26458 0 0 .26458 90.661 541.17)"></g>
  </g>
  <g transform="matrix(9.9963 0 0 9.9963 -11495 -1600.2)" fill="#211e1e">
   <g transform="matrix(.26458 0 0 .26458 174.49 541.17)"></g>
  </g>
  <g transform="matrix(9.9963 0 0 9.9963 -11495 -1600.2)" fill="#211e1e">
   <g transform="matrix(.26458 0 0 .26458 58.379 559.15)"></g>
  </g>
  <g transform="matrix(9.9963 0 0 9.9963 -11495 -1600.2)" fill="#211e1e">
   <g transform="matrix(.26458 0 0 .26458 90.661 559.15)"></g>
  </g>
  <g transform="matrix(9.9963 0 0 9.9963 -11495 -1600.2)" fill="#211e1e">
   <g transform="matrix(.26458 0 0 .26458 177.79 559.15)"></g>
  </g>
  <g transform="matrix(9.9963 0 0 9.9963 -11495 -1600.2)" fill="#211e1e">
   <g transform="matrix(.26458 0 0 .26458 234.75 559.15)"></g>
   <g transform="matrix(.26458 0 0 .26458 254.27 559.15)"></g>
  </g>
  <g transform="matrix(9.9963 0 0 9.9963 -11495 -1600.2)" fill="#211e1e">
   <g transform="matrix(.26458 0 0 .26458 58.157 577.13)"></g>
  </g>
  <g transform="matrix(9.9963 0 0 9.9963 -11495 -1600.2)" fill="#211e1e">
   <g transform="matrix(.26458 0 0 .26458 90.661 577.14)"></g>
  </g>
  <g transform="matrix(9.9963 0 0 9.9963 -11495 -1600.2)" fill="#211e1e">
   <g transform="matrix(.26458 0 0 .26458 160.3 577.14)"></g>
  </g>
  <g transform="matrix(9.9963 0 0 9.9963 -11495 -1600.2)" fill="#211e1e">
   <g transform="matrix(.26458 0 0 .26458 234.75 577.14)"></g>
   <g transform="matrix(.26458 0 0 .26458 254.27 577.14)"></g>
  </g>
  <g transform="matrix(9.9963 0 0 9.9963 -11495 -1600.2)" fill="#211e1e">
   <g transform="matrix(.26458 0 0 .26458 58.972 595.12)"></g>
  </g>
  <g transform="matrix(9.9963 0 0 9.9963 -11495 -1600.2)" fill="#211e1e">
   <g transform="matrix(.26458 0 0 .26458 90.661 595.12)"></g>
  </g>
  <g transform="matrix(9.9963 0 0 9.9963 -11495 -1600.2)" fill="#211e1e">
   <g transform="matrix(.26458 0 0 .26458 149.85 595.12)"></g>
  </g>
  <g transform="matrix(9.9963 0 0 9.9963 -11495 -1600.2)" fill="#211e1e">
   <g transform="matrix(.26458 0 0 .26458 58.153 613.11)"></g>
  </g>
  <g transform="matrix(9.9963 0 0 9.9963 -11495 -1600.2)" fill="#211e1e">
   <g transform="matrix(.26458 0 0 .26458 90.661 613.11)"></g>
  </g>
  <g transform="matrix(9.9963 0 0 9.9963 -11495 -1600.2)" fill="#211e1e">
   <g transform="matrix(.26458 0 0 .26458 180.67 613.11)"></g>
  </g>
  <g transform="matrix(9.9963 0 0 9.9963 -11495 -1600.2)" fill="#211e1e">
   <g transform="matrix(.26458 0 0 .26458 58.575 631.09)"></g>
  </g>
  <g transform="matrix(9.9963 0 0 9.9963 -11495 -1600.2)" fill="#211e1e">
   <g transform="matrix(.26458 0 0 .26458 90.661 631.09)"></g>
  </g>
  <g transform="matrix(9.9963 0 0 9.9963 -11495 -1600.2)" fill="#211e1e">
   <g transform="matrix(.26458 0 0 .26458 145.6 631.09)"></g>
  </g>
  <g transform="matrix(9.9963 0 0 9.9963 -11495 -1600.2)" fill="#211e1e">
   <g transform="matrix(.26458 0 0 .26458 234.75 631.09)"></g>
   <g transform="matrix(.26458 0 0 .26458 254.27 631.09)"></g>
  </g>
  <g transform="matrix(9.9963 0 0 9.9963 -11495 -1600.2)" fill="#211e1e">
   <g transform="matrix(.26458 0 0 .26458 57.853 649.07)"></g>
  </g>
  <g transform="matrix(9.9963 0 0 9.9963 -11495 -1600.2)" fill="#211e1e">
   <g transform="matrix(.26458 0 0 .26458 90.661 649.08)"></g>
  </g>
  <g transform="matrix(9.9963 0 0 9.9963 -11495 -1600.2)" fill="#211e1e">
   <g transform="matrix(.26458 0 0 .26458 180.44 649.08)"></g>
  </g>
  <g transform="matrix(9.9963 0 0 9.9963 -11495 -1600.2)" fill="#211e1e">
   <g transform="matrix(.26458 0 0 .26458 56.876 667.06)"></g>
  </g>
  <g transform="matrix(9.9963 0 0 9.9963 -11495 -1600.2)" fill="#211e1e">
   <g transform="matrix(.26458 0 0 .26458 90.661 667.06)"></g>
  </g>
  <g transform="matrix(9.9963 0 0 9.9963 -11495 -1600.2)" fill="#211e1e">
   <g transform="matrix(.26458 0 0 .26458 202.63 667.06)"></g>
  </g>
  <g transform="matrix(9.9963 0 0 9.9963 -11495 -1600.2)" fill="#211e1e">
   <g transform="matrix(.26458 0 0 .26458 236 667.06)"></g>
  </g>
  <g transform="matrix(9.9963 0 0 9.9963 -11495 -1600.2)" fill="#211e1e">
   <g transform="matrix(.26458 0 0 .26458 58.417 685.04)"></g>
  </g>
  <g transform="matrix(9.9963 0 0 9.9963 -11495 -1600.2)" fill="#211e1e">
   <g transform="matrix(.26458 0 0 .26458 90.661 685.05)"></g>
  </g>
  <g transform="matrix(9.9963 0 0 9.9963 -11495 -1600.2)" fill="#211e1e">
   <g transform="matrix(.26458 0 0 .26458 133.05 685.05)"></g>
  </g>
  <g transform="matrix(9.9963 0 0 9.9963 -11495 -1600.2)" fill="#211e1e">
   <g transform="matrix(.26458 0 0 .26458 234.75 685.05)"></g>
  </g>
  <g transform="matrix(9.9963 0 0 9.9963 -11495 -1600.2)" fill="#211e1e">
   <g transform="matrix(.26458 0 0 .26458 58.243 703.03)"></g>
  </g>
  <g transform="matrix(9.9963 0 0 9.9963 -11495 -1600.2)" fill="#211e1e">
   <g transform="matrix(.26458 0 0 .26458 90.661 703.03)"></g>
  </g>
  <g transform="matrix(9.9963 0 0 9.9963 -11495 -1600.2)" fill="#211e1e">
   <g transform="matrix(.26458 0 0 .26458 145.54 703.03)"></g>
  </g>
  <g transform="matrix(9.9963 0 0 9.9963 -11495 -1600.2)" fill="#211e1e">
   <g transform="matrix(.26458 0 0 .26458 59.497 721.17)"></g>
  </g>
  <g transform="matrix(9.9963 0 0 9.9963 -11495 -1600.2)" fill="#211e1e">
   <g transform="matrix(.26458 0 0 .26458 90.661 721.17)"></g>
  </g>
  <g transform="matrix(9.9963 0 0 9.9963 -11495 -1600.2)" fill="#211e1e">
   <g transform="matrix(.26458 0 0 .26458 180.62 721.17)"></g>
  </g>
  <g transform="matrix(9.9963 0 0 9.9963 -11495 -1600.2)" fill="#211e1e">
   <g transform="matrix(.26458 0 0 .26458 227.09 722.17)"></g>
   <g transform="matrix(.26458 0 0 .26458 229.39 722.17)"></g>
  </g>
  <g transform="matrix(9.9963 0 0 9.9963 -11495 -1600.2)" fill="#211e1e">
   <g transform="matrix(.26458 0 0 .26458 245.83 721.17)"></g>
  </g>
  <g transform="matrix(9.9963 0 0 9.9963 -11495 -1600.2)" fill="#211e1e">
   <g transform="matrix(.26458 0 0 .26458 57.441 739.32)"></g>
  </g>
  <g transform="matrix(9.9963 0 0 9.9963 -11495 -1600.2)" fill="#211e1e">
   <g transform="matrix(.26458 0 0 .26458 90.661 739.32)"></g>
  </g>
  <g transform="matrix(9.9963 0 0 9.9963 -11495 -1600.2)" fill="#211e1e">
   <g transform="matrix(.26458 0 0 .26458 167.93 739.32)"></g>
  </g>
  <g transform="matrix(9.9963 0 0 9.9963 -11495 -1600.2)" fill="#211e1e">
   <g transform="matrix(.26458 0 0 .26458 227.09 740.32)"></g>
   <g transform="matrix(.26458 0 0 .26458 229.39 740.32)"></g>
  </g>
  <g transform="matrix(9.9963 0 0 9.9963 -11495 -1600.2)" fill="#211e1e">
   <g transform="matrix(.26458 0 0 .26458 245.83 739.32)"></g>
  </g>
  <g transform="matrix(9.9963 0 0 9.9963 -11495 -1600.2)" fill="#211e1e">
   <g transform="matrix(.26458 0 0 .26458 345.68 83.754)"></g>
  </g>
  <g transform="matrix(9.9963 0 0 9.9963 -11495 -1600.2)" fill="#211e1e">
   <g transform="matrix(.26458 0 0 .26458 377.99 83.754)"></g>
  </g>
  <g transform="matrix(9.9963 0 0 9.9963 -11495 -1600.2)" fill="#211e1e">
   <g transform="matrix(.26458 0 0 .26458 459.54 83.754)"></g>
  </g>
  <g transform="matrix(9.9963 0 0 9.9963 -11495 -1600.2)" fill="#211e1e">
   <g transform="matrix(.26458 0 0 .26458 343.7 101.9)"></g>
  </g>
  <g transform="matrix(9.9963 0 0 9.9963 -11495 -1600.2)" fill="#211e1e">
   <g transform="matrix(.26458 0 0 .26458 373.22 101.9)"></g>
  </g>
  <g transform="matrix(9.9963 0 0 9.9963 -11495 -1600.2)" fill="#211e1e">
   <g transform="matrix(.26458 0 0 .26458 436.09 101.9)"></g>
  </g>
  <g transform="matrix(9.9963 0 0 9.9963 -11495 -1600.2)" fill="#211e1e">
   <g transform="matrix(.26458 0 0 .26458 344.56 120.04)"></g>
  </g>
  <g transform="matrix(9.9963 0 0 9.9963 -11495 -1600.2)" fill="#211e1e">
   <g transform="matrix(.26458 0 0 .26458 376.48 120.04)"></g>
  </g>
  <g transform="matrix(9.9963 0 0 9.9963 -11495 -1600.2)" fill="#211e1e">
   <g transform="matrix(.26458 0 0 .26458 437.75 120.04)"></g>
  </g>
  <g transform="matrix(9.9963 0 0 9.9963 -11495 -1600.2)" fill="#211e1e">
   <g transform="matrix(.26458 0 0 .26458 344.5 138.18)"></g>
  </g>
  <g transform="matrix(9.9963 0 0 9.9963 -11495 -1600.2)" fill="#211e1e">
   <g transform="matrix(.26458 0 0 .26458 375 138.18)"></g>
  </g>
  <g transform="matrix(9.9963 0 0 9.9963 -11495 -1600.2)" fill="#211e1e">
   <g transform="matrix(.26458 0 0 .26458 444.38 138.18)"></g>
  </g>
  <g transform="matrix(9.9963 0 0 9.9963 -11495 -1600.2)" fill="#211e1e">
   <g transform="matrix(.26458 0 0 .26458 520.32 138.18)"></g>
  </g>
  <g transform="matrix(9.9963 0 0 9.9963 -11495 -1600.2)" fill="#211e1e">
   <g transform="matrix(.26458 0 0 .26458 540.5 138.18)"></g>
  </g>
  <g transform="matrix(9.9963 0 0 9.9963 -11495 -1600.2)" fill="#211e1e">
   <g transform="matrix(.26458 0 0 .26458 345.29 156.33)"></g>
  </g>
  <g transform="matrix(9.9963 0 0 9.9963 -11495 -1600.2)" fill="#211e1e">
   <g transform="matrix(.26458 0 0 .26458 380.43 156.33)"></g>
  </g>
  <g transform="matrix(9.9963 0 0 9.9963 -11495 -1600.2)" fill="#211e1e">
   <g transform="matrix(.26458 0 0 .26458 444.78 156.33)"></g>
  </g>
  <g transform="matrix(9.9963 0 0 9.9963 -11495 -1600.2)" fill="#211e1e">
   <g transform="matrix(.26458 0 0 .26458 344.59 174.47)"></g>
  </g>
  <g transform="matrix(9.9963 0 0 9.9963 -11495 -1600.2)" fill="#211e1e">
   <g transform="matrix(.26458 0 0 .26458 376.94 174.47)"></g>
  </g>
  <g transform="matrix(9.9963 0 0 9.9963 -11495 -1600.2)" fill="#211e1e">
   <g transform="matrix(.26458 0 0 .26458 436.6 174.47)"></g>
  </g>
  <g transform="matrix(9.9963 0 0 9.9963 -11495 -1600.2)" fill="#211e1e">
   <g transform="matrix(.26458 0 0 .26458 344.99 192.61)"></g>
  </g>
  <g transform="matrix(9.9963 0 0 9.9963 -11495 -1600.2)" fill="#211e1e">
   <g transform="matrix(.26458 0 0 .26458 376.94 192.61)"></g>
  </g>
  <g transform="matrix(9.9963 0 0 9.9963 -11495 -1600.2)" fill="#211e1e">
   <g transform="matrix(.26458 0 0 .26458 451.88 192.61)"></g>
  </g>
  <g transform="matrix(9.9963 0 0 9.9963 -11495 -1600.2)" fill="#211e1e">
   <g transform="matrix(.26458 0 0 .26458 345.09 210.75)"></g>
  </g>
  <g transform="matrix(9.9963 0 0 9.9963 -11495 -1600.2)" fill="#211e1e">
   <g transform="matrix(.26458 0 0 .26458 376.94 210.75)"></g>
  </g>
  <g transform="matrix(9.9963 0 0 9.9963 -11495 -1600.2)" fill="#211e1e">
   <g transform="matrix(.26458 0 0 .26458 437.95 210.75)"></g>
  </g>
  <g transform="matrix(9.9963 0 0 9.9963 -11495 -1600.2)" fill="#211e1e">
   <g transform="matrix(.26458 0 0 .26458 344.21 265.18)"></g>
  </g>
  <g transform="matrix(9.9963 0 0 9.9963 -11495 -1600.2)" fill="#211e1e">
   <g transform="matrix(.26458 0 0 .26458 377.43 265.18)"></g>
  </g>
  <g transform="matrix(9.9963 0 0 9.9963 -11495 -1600.2)" fill="#211e1e">
   <g transform="matrix(.26458 0 0 .26458 445.14 265.18)"></g>
  </g>
  <g transform="matrix(9.9963 0 0 9.9963 -11495 -1600.2)" fill="#211e1e">
   <g transform="matrix(.26458 0 0 .26458 515.28 265.18)"></g>
  </g>
  <g transform="matrix(9.9963 0 0 9.9963 -11495 -1600.2)" fill="#211e1e">
   <g transform="matrix(.26458 0 0 .26458 345.3 283.33)"></g>
  </g>
  <g transform="matrix(9.9963 0 0 9.9963 -11495 -1600.2)" fill="#211e1e">
   <g transform="matrix(.26458 0 0 .26458 377.43 283.33)"></g>
  </g>
  <g transform="matrix(9.9963 0 0 9.9963 -11495 -1600.2)" fill="#211e1e">
   <g transform="matrix(.26458 0 0 .26458 443.42 283.33)"></g>
  </g>
  <g transform="matrix(9.9963 0 0 9.9963 -11495 -1600.2)" fill="#211e1e">
   <g transform="matrix(.26458 0 0 .26458 515.28 283.33)"></g>
  </g>
  <g transform="matrix(9.9963 0 0 9.9963 -11495 -1600.2)" fill="#211e1e">
   <g transform="matrix(.26458 0 0 .26458 345.04 301.47)"></g>
  </g>
  <g transform="matrix(9.9963 0 0 9.9963 -11495 -1600.2)" fill="#211e1e">
   <g transform="matrix(.26458 0 0 .26458 377.43 301.47)"></g>
  </g>
  <g transform="matrix(9.9963 0 0 9.9963 -11495 -1600.2)" fill="#211e1e">
   <g transform="matrix(.26458 0 0 .26458 449.1 301.47)"></g>
  </g>
  <g transform="matrix(9.9963 0 0 9.9963 -11495 -1600.2)" fill="#211e1e">
   <g transform="matrix(.26458 0 0 .26458 515.28 301.47)"></g>
  </g>
  <g transform="matrix(9.9963 0 0 9.9963 -11495 -1600.2)" fill="#211e1e">
   <g transform="matrix(.26458 0 0 .26458 345.96 319.61)"></g>
  </g>
  <g transform="matrix(9.9963 0 0 9.9963 -11495 -1600.2)" fill="#211e1e">
   <g transform="matrix(.26458 0 0 .26458 377.43 319.61)"></g>
  </g>
  <g transform="matrix(9.9963 0 0 9.9963 -11495 -1600.2)" fill="#211e1e">
   <g transform="matrix(.26458 0 0 .26458 452.26 319.61)"></g>
  </g>
  <g transform="matrix(9.9963 0 0 9.9963 -11495 -1600.2)" fill="#211e1e">
   <g transform="matrix(.26458 0 0 .26458 515.28 319.61)"></g>
  </g>
  <g transform="matrix(9.9963 0 0 9.9963 -11495 -1600.2)" fill="#211e1e">
   <g transform="matrix(.26458 0 0 .26458 558.25 319.61)"></g>
  </g>
  <g transform="matrix(9.9963 0 0 9.9963 -11495 -1600.2)" fill="#211e1e">
   <g transform="matrix(.26458 0 0 .26458 328.82 337.76)"></g>
  </g>
  <g transform="matrix(9.9963 0 0 9.9963 -11495 -1600.2)" fill="#211e1e">
   <g transform="matrix(.26458 0 0 .26458 377.43 337.76)"></g>
  </g>
  <g transform="matrix(9.9963 0 0 9.9963 -11495 -1600.2)" fill="#211e1e">
   <g transform="matrix(.26458 0 0 .26458 465.07 337.76)"></g>
  </g>
  <g transform="matrix(9.9963 0 0 9.9963 -11495 -1600.2)" fill="#211e1e">
   <g transform="matrix(.26458 0 0 .26458 515.28 337.76)"></g>
  </g>
  <g transform="matrix(9.9963 0 0 9.9963 -11495 -1600.2)" fill="#211e1e">
   <g transform="matrix(.26458 0 0 .26458 345.59 355.9)"></g>
  </g>
  <g transform="matrix(9.9963 0 0 9.9963 -11495 -1600.2)" fill="#211e1e">
   <g transform="matrix(.26458 0 0 .26458 377.43 355.9)"></g>
  </g>
  <g transform="matrix(9.9963 0 0 9.9963 -11495 -1600.2)" fill="#211e1e">
   <g transform="matrix(.26458 0 0 .26458 416.57 355.9)"></g>
  </g>
  <g transform="matrix(9.9963 0 0 9.9963 -11495 -1600.2)" fill="#211e1e">
   <g transform="matrix(.26458 0 0 .26458 515.28 355.9)"></g>
  </g>
  <g transform="matrix(9.9963 0 0 9.9963 -11495 -1600.2)" fill="#211e1e">
   <g transform="matrix(.26458 0 0 .26458 344.88 374.04)"></g>
  </g>
  <g transform="matrix(9.9963 0 0 9.9963 -11495 -1600.2)" fill="#211e1e">
   <g transform="matrix(.26458 0 0 .26458 377.43 374.04)"></g>
  </g>
  <g transform="matrix(9.9963 0 0 9.9963 -11495 -1600.2)" fill="#211e1e">
   <g transform="matrix(.26458 0 0 .26458 408.56 374.04)"></g>
  </g>
  <g transform="matrix(9.9963 0 0 9.9963 -11495 -1600.2)" fill="#211e1e">
   <g transform="matrix(.26458 0 0 .26458 515.28 374.04)"></g>
  </g>
  <g transform="matrix(9.9963 0 0 9.9963 -11495 -1600.2)" fill="#211e1e">
   <g transform="matrix(.26458 0 0 .26458 345.7 392.18)"></g>
  </g>
  <g transform="matrix(9.9963 0 0 9.9963 -11495 -1600.2)" fill="#211e1e">
   <g transform="matrix(.26458 0 0 .26458 376.94 392.18)"></g>
  </g>
  <g transform="matrix(9.9963 0 0 9.9963 -11495 -1600.2)" fill="#211e1e">
   <g transform="matrix(.26458 0 0 .26458 404.96 392.18)"></g>
  </g>
  <g transform="matrix(9.9963 0 0 9.9963 -11495 -1600.2)" fill="#211e1e">
   <g transform="matrix(.26458 0 0 .26458 520.32 392.18)"></g>
  </g>
  <g transform="matrix(9.9963 0 0 9.9963 -11495 -1600.2)" fill="#211e1e">
   <g transform="matrix(.26458 0 0 .26458 345.48 410.33)"></g>
  </g>
  <g transform="matrix(9.9963 0 0 9.9963 -11495 -1600.2)" fill="#211e1e">
   <g transform="matrix(.26458 0 0 .26458 376.94 410.33)"></g>
  </g>
  <g transform="matrix(9.9963 0 0 9.9963 -11495 -1600.2)" fill="#211e1e">
   <g transform="matrix(.26458 0 0 .26458 405.83 410.33)"></g>
  </g>
  <g transform="matrix(9.9963 0 0 9.9963 -11495 -1600.2)" fill="#211e1e">
   <g transform="matrix(.26458 0 0 .26458 342.07 428.47)"></g>
  </g>
  <g transform="matrix(9.9963 0 0 9.9963 -11495 -1600.2)" fill="#211e1e">
   <g transform="matrix(.26458 0 0 .26458 377.43 428.47)"></g>
  </g>
  <g transform="matrix(9.9963 0 0 9.9963 -11495 -1600.2)" fill="#211e1e">
   <g transform="matrix(.26458 0 0 .26458 447.79 428.47)"></g>
  </g>
  <g transform="matrix(9.9963 0 0 9.9963 -11495 -1600.2)" fill="#211e1e">
   <g transform="matrix(.26458 0 0 .26458 515.28 428.47)"></g>
  </g>
  <g transform="matrix(9.9963 0 0 9.9963 -11495 -1600.2)" fill="#211e1e">
   <g transform="matrix(.26458 0 0 .26458 343.23 446.61)"></g>
  </g>
  <g transform="matrix(9.9963 0 0 9.9963 -11495 -1600.2)" fill="#211e1e">
   <g transform="matrix(.26458 0 0 .26458 377.43 446.61)"></g>
  </g>
  <g transform="matrix(9.9963 0 0 9.9963 -11495 -1600.2)" fill="#211e1e">
   <g transform="matrix(.26458 0 0 .26458 415.92 446.61)"></g>
  </g>
  <g transform="matrix(9.9963 0 0 9.9963 -11495 -1600.2)" fill="#211e1e">
   <g transform="matrix(.26458 0 0 .26458 515.28 446.61)"></g>
  </g>
  <g transform="matrix(9.9963 0 0 9.9963 -11495 -1600.2)" fill="#211e1e">
   <g transform="matrix(.26458 0 0 .26458 343 464.76)"></g>
  </g>
  <g transform="matrix(9.9963 0 0 9.9963 -11495 -1600.2)" fill="#211e1e">
   <g transform="matrix(.26458 0 0 .26458 376.94 464.76)"></g>
  </g>
  <g transform="matrix(9.9963 0 0 9.9963 -11495 -1600.2)" fill="#211e1e">
   <g transform="matrix(.26458 0 0 .26458 430.68 464.76)"></g>
  </g>
  <g transform="matrix(9.9963 0 0 9.9963 -11495 -1600.2)" fill="#211e1e">
   <g transform="matrix(.26458 0 0 .26458 520.32 464.76)"></g>
  </g>
  <g transform="matrix(9.9963 0 0 9.9963 -11495 -1600.2)" fill="#211e1e">
   <g transform="matrix(.26458 0 0 .26458 343.64 482.9)"></g>
  </g>
  <g transform="matrix(9.9963 0 0 9.9963 -11495 -1600.2)" fill="#211e1e">
   <g transform="matrix(.26458 0 0 .26458 376.94 482.9)"></g>
  </g>
  <g transform="matrix(9.9963 0 0 9.9963 -11495 -1600.2)" fill="#211e1e">
   <g transform="matrix(.26458 0 0 .26458 399.9 482.9)"></g>
  </g>
  <g transform="matrix(9.9963 0 0 9.9963 -11495 -1600.2)" fill="#211e1e">
   <g transform="matrix(.26458 0 0 .26458 520.32 482.9)"></g>
  </g>
  <g transform="matrix(9.9963 0 0 9.9963 -11495 -1600.2)" fill="#211e1e">
   <g transform="matrix(.26458 0 0 .26458 343.01 501.04)"></g>
  </g>
  <g transform="matrix(9.9963 0 0 9.9963 -11495 -1600.2)" fill="#211e1e">
   <g transform="matrix(.26458 0 0 .26458 376.94 501.04)"></g>
  </g>
  <g transform="matrix(9.9963 0 0 9.9963 -11495 -1600.2)" fill="#211e1e">
   <g transform="matrix(.26458 0 0 .26458 417.27 501.04)"></g>
  </g>
  <g transform="matrix(9.9963 0 0 9.9963 -11495 -1600.2)" fill="#211e1e">
   <g transform="matrix(.26458 0 0 .26458 343.46 519.19)"></g>
  </g>
  <g transform="matrix(9.9963 0 0 9.9963 -11495 -1600.2)" fill="#211e1e">
   <g transform="matrix(.26458 0 0 .26458 377.43 519.19)"></g>
  </g>
  <g transform="matrix(9.9963 0 0 9.9963 -11495 -1600.2)" fill="#211e1e">
   <g transform="matrix(.26458 0 0 .26458 439.47 519.19)"></g>
  </g>
  <g transform="matrix(9.9963 0 0 9.9963 -11495 -1600.2)" fill="#211e1e">
   <g transform="matrix(.26458 0 0 .26458 515.28 519.19)"></g>
  </g>
  <g transform="matrix(9.9963 0 0 9.9963 -11495 -1600.2)" fill="#211e1e">
   <g transform="matrix(.26458 0 0 .26458 345.44 537.33)"></g>
  </g>
  <g transform="matrix(9.9963 0 0 9.9963 -11495 -1600.2)" fill="#211e1e">
   <g transform="matrix(.26458 0 0 .26458 377.43 537.33)"></g>
  </g>
  <g transform="matrix(9.9963 0 0 9.9963 -11495 -1600.2)" fill="#211e1e">
   <g transform="matrix(.26458 0 0 .26458 449.86 537.33)"></g>
  </g>
  <g transform="matrix(9.9963 0 0 9.9963 -11495 -1600.2)" fill="#211e1e">
   <g transform="matrix(.26458 0 0 .26458 515.28 537.33)"></g>
  </g>
  <g transform="matrix(9.9963 0 0 9.9963 -11495 -1600.2)" fill="#211e1e">
   <g transform="matrix(.26458 0 0 .26458 343.5 555.47)"></g>
  </g>
  <g transform="matrix(9.9963 0 0 9.9963 -11495 -1600.2)" fill="#211e1e">
   <g transform="matrix(.26458 0 0 .26458 377.43 555.47)"></g>
  </g>
  <g transform="matrix(9.9963 0 0 9.9963 -11495 -1600.2)" fill="#211e1e">
   <g transform="matrix(.26458 0 0 .26458 478.72 555.47)"></g>
  </g>
  <g transform="matrix(9.9963 0 0 9.9963 -11495 -1600.2)" fill="#211e1e">
   <g transform="matrix(.26458 0 0 .26458 515.28 555.47)"></g>
  </g>
  <g transform="matrix(9.9963 0 0 9.9963 -11495 -1600.2)" fill="#211e1e">
   <g transform="matrix(.26458 0 0 .26458 344.47 573.61)"></g>
  </g>
  <g transform="matrix(9.9963 0 0 9.9963 -11495 -1600.2)" fill="#211e1e">
   <g transform="matrix(.26458 0 0 .26458 376.94 573.61)"></g>
  </g>
  <g transform="matrix(9.9963 0 0 9.9963 -11495 -1600.2)" fill="#211e1e">
   <g transform="matrix(.26458 0 0 .26458 447.58 573.61)"></g>
  </g>
  <g transform="matrix(9.9963 0 0 9.9963 -11495 -1600.2)" fill="#211e1e">
   <g transform="matrix(.26458 0 0 .26458 344.52 591.76)"></g>
  </g>
  <g transform="matrix(9.9963 0 0 9.9963 -11495 -1600.2)" fill="#211e1e">
   <g transform="matrix(.26458 0 0 .26458 377.43 591.76)"></g>
  </g>
  <g transform="matrix(9.9963 0 0 9.9963 -11495 -1600.2)" fill="#211e1e">
   <g transform="matrix(.26458 0 0 .26458 467.14 591.76)"></g>
  </g>
  <g transform="matrix(9.9963 0 0 9.9963 -11495 -1600.2)" fill="#211e1e">
   <g transform="matrix(.26458 0 0 .26458 515.28 591.76)"></g>
  </g>
  <g transform="matrix(9.9963 0 0 9.9963 -11495 -1600.2)" fill="#211e1e">
   <g transform="matrix(.26458 0 0 .26458 344.68 609.9)"></g>
  </g>
  <g transform="matrix(9.9963 0 0 9.9963 -11495 -1600.2)" fill="#211e1e">
   <g transform="matrix(.26458 0 0 .26458 377.43 609.9)"></g>
  </g>
  <g transform="matrix(9.9963 0 0 9.9963 -11495 -1600.2)" fill="#211e1e">
   <g transform="matrix(.26458 0 0 .26458 447.02 609.9)"></g>
  </g>
  <g transform="matrix(9.9963 0 0 9.9963 -11495 -1600.2)" fill="#211e1e">
   <g transform="matrix(.26458 0 0 .26458 515.28 609.9)"></g>
  </g>
  <g transform="matrix(9.9963 0 0 9.9963 -11495 -1600.2)" fill="#211e1e">
   <g transform="matrix(.26458 0 0 .26458 344.53 628.04)"></g>
  </g>
  <g transform="matrix(9.9963 0 0 9.9963 -11495 -1600.2)" fill="#211e1e">
   <g transform="matrix(.26458 0 0 .26458 377.43 628.04)"></g>
  </g>
  <g transform="matrix(9.9963 0 0 9.9963 -11495 -1600.2)" fill="#211e1e">
   <g transform="matrix(.26458 0 0 .26458 451.49 628.04)"></g>
  </g>
  <g transform="matrix(9.9963 0 0 9.9963 -11495 -1600.2)" fill="#211e1e">
   <g transform="matrix(.26458 0 0 .26458 515.28 628.04)"></g>
  </g>
  <g transform="matrix(9.9963 0 0 9.9963 -11495 -1600.2)" fill="#211e1e">
   <g transform="matrix(.26458 0 0 .26458 344.29 646.19)"></g>
  </g>
  <g transform="matrix(9.9963 0 0 9.9963 -11495 -1600.2)" fill="#211e1e">
   <g transform="matrix(.26458 0 0 .26458 377.43 646.19)"></g>
  </g>
  <g transform="matrix(9.9963 0 0 9.9963 -11495 -1600.2)" fill="#211e1e">
   <g transform="matrix(.26458 0 0 .26458 420.14 646.19)"></g>
  </g>
  <g transform="matrix(9.9963 0 0 9.9963 -11495 -1600.2)" fill="#211e1e">
   <g transform="matrix(.26458 0 0 .26458 520.33 646.19)"></g>
  </g>
  <g transform="matrix(9.9963 0 0 9.9963 -11495 -1600.2)" fill="#211e1e">
   <g transform="matrix(.26458 0 0 .26458 344.88 664.33)"></g>
  </g>
  <g transform="matrix(9.9963 0 0 9.9963 -11495 -1600.2)" fill="#211e1e">
   <g transform="matrix(.26458 0 0 .26458 376.94 664.33)"></g>
  </g>
  <g transform="matrix(9.9963 0 0 9.9963 -11495 -1600.2)" fill="#211e1e">
   <g transform="matrix(.26458 0 0 .26458 465.77 664.33)"></g>
  </g>
  <g transform="matrix(9.9963 0 0 9.9963 -11495 -1600.2)" fill="#211e1e">
   <g transform="matrix(.26458 0 0 .26458 344.58 682.47)"></g>
  </g>
  <g transform="matrix(9.9963 0 0 9.9963 -11495 -1600.2)" fill="#211e1e">
   <g transform="matrix(.26458 0 0 .26458 377.43 682.47)"></g>
  </g>
  <g transform="matrix(9.9963 0 0 9.9963 -11495 -1600.2)" fill="#211e1e">
   <g transform="matrix(.26458 0 0 .26458 436.9 682.47)"></g>
  </g>
  <g transform="matrix(9.9963 0 0 9.9963 -11495 -1600.2)" fill="#211e1e">
   <g transform="matrix(.26458 0 0 .26458 515.28 682.47)"></g>
  </g>
  <g transform="matrix(9.9963 0 0 9.9963 -11495 -1600.2)" fill="#211e1e">
   <g transform="matrix(.26458 0 0 .26458 344.59 700.62)"></g>
  </g>
  <g transform="matrix(9.9963 0 0 9.9963 -11495 -1600.2)" fill="#211e1e">
   <g transform="matrix(.26458 0 0 .26458 375.72 700.62)"></g>
  </g>
  <g transform="matrix(9.9963 0 0 9.9963 -11495 -1600.2)" fill="#211e1e">
   <g transform="matrix(.26458 0 0 .26458 477.4 700.62)"></g>
  </g>
  <g transform="matrix(9.9963 0 0 9.9963 -11495 -1600.2)" fill="#211e1e">
   <g transform="matrix(.26458 0 0 .26458 342.84 755.04)"></g>
  </g>
  <g transform="matrix(9.9963 0 0 9.9963 -11495 -1600.2)" fill="#211e1e">
   <g transform="matrix(.26458 0 0 .26458 377.43 755.04)"></g>
  </g>
  <g transform="matrix(9.9963 0 0 9.9963 -11495 -1600.2)" fill="#211e1e">
   <g transform="matrix(.26458 0 0 .26458 440.21 755.04)"></g>
  </g>
  <g transform="matrix(9.9963 0 0 9.9963 -11495 -1600.2)" fill="#211e1e">
   <g transform="matrix(.26458 0 0 .26458 515.28 755.04)"></g>
  </g>
  <g transform="matrix(9.9963 0 0 9.9963 -11495 -1600.2)" fill="#211e1e">
   <g transform="matrix(.26458 0 0 .26458 344.41 773.19)"></g>
  </g>
  <g transform="matrix(9.9963 0 0 9.9963 -11495 -1600.2)" fill="#211e1e">
   <g transform="matrix(.26458 0 0 .26458 377.43 773.19)"></g>
  </g>
  <g transform="matrix(9.9963 0 0 9.9963 -11495 -1600.2)" fill="#211e1e">
   <g transform="matrix(.26458 0 0 .26458 441.47 773.19)"></g>
  </g>
  <g transform="matrix(9.9963 0 0 9.9963 -11495 -1600.2)" fill="#211e1e">
   <g transform="matrix(.26458 0 0 .26458 515.28 773.19)"></g>
  </g>
  <g transform="matrix(9.9963 0 0 9.9963 -11495 -1600.2)" fill="#211e1e">
   <g transform="matrix(.26458 0 0 .26458 344.2 791.33)"></g>
  </g>
  <g transform="matrix(9.9963 0 0 9.9963 -11495 -1600.2)" fill="#211e1e">
   <g transform="matrix(.26458 0 0 .26458 377.43 791.33)"></g>
  </g>
  <g transform="matrix(9.9963 0 0 9.9963 -11495 -1600.2)" fill="#211e1e">
   <g transform="matrix(.26458 0 0 .26458 425.08 791.33)"></g>
  </g>
  <g transform="matrix(9.9963 0 0 9.9963 -11495 -1600.2)" fill="#211e1e">
   <g transform="matrix(.26458 0 0 .26458 515.28 791.33)"></g>
  </g>
  <polygon class="st0" transform="matrix(1.5736 0 0 1.5736 -178.96 50.92)" points="61.2 0.7 61.2 2.2 63.6 2.2 63.6 8.8 65.2 8.8 65.2 2.2 67.5 2.2 67.5 0.7"/>
  <rect class="st0" x="-70.074" y="52.022" width="2.5177" height="12.746" stroke-width="1.5736"/>
  <polygon class="st0" transform="matrix(1.5736 0 0 1.5736 -178.96 50.92)" points="74.6 3.5 78.5 8.8 80.1 8.8 80.1 0.7 78.5 0.7 78.5 6 74.5 0.7 73 0.7 73 8.8 74.6 8.8"/>
  <path class="st0" d="m-42.851 60.519h2.3603c-0.47208 1.4162-1.5736 2.203-3.3045 2.203-2.8324 0-4.0913-2.203-4.0913-4.2486 0-2.0456 1.4162-4.406 3.9339-4.406 1.4162 0 2.675 0.78678 2.9898 1.8883l0.15736 0.31471h2.5177l-0.15736-0.62943c-0.31471-2.3603-2.675-3.9339-5.5075-3.9339-4.2486 0-6.4516 3.4618-6.4516 6.7663 0 3.3045 2.203 6.609 6.609 6.609 2.9898 0 5.3501-1.7309 5.9795-4.5633h1.4162v-2.3604h-6.2943v2.3604z" stroke-width="1.5736"/>
  <polygon class="st0" transform="matrix(1.5736 0 0 1.5736 -178.96 50.92)" points="113.1 0.7 111.4 0.7 109.8 3.9 107.8 0.7 105.9 0.7 108.9 5.5 107.3 8.8 109 8.8"/>
  <path class="st0" d="m-27.273 59.889c1.2588-0.78679 2.0456-2.203 2.0456-3.6192 0-2.3604-1.8883-4.2486-4.2486-4.2486h-4.878v12.746h2.5177v-4.2486h2.0456l1.8883 4.2486h2.8324zm-2.203-1.7309h-2.5177v-3.7766h2.5177c1.1015 0 1.8883 0.78678 1.8883 1.8883 0 1.1015-0.78678 1.8883-1.8883 1.8883" stroke-width="1.5736"/>
  <path class="st0" d="m-16.573 52.179-2.203-0.15736-4.406 12.746h2.6751l0.94413-2.8324h3.7766l0.94415 2.8324h2.675zm-2.5177 7.7105 1.4162-4.0913 1.4162 4.0913z" stroke-width="1.5736"/>
  <path class="st0" d="m-87.226 57.372-2.3603-0.47207c-0.94414-0.15735-1.4162-0.62942-1.4162-1.4162 0-0.94414 0.78678-1.4162 2.0456-1.4162 1.2588 0 2.0456 0.62942 2.3603 1.5736h2.6751c-0.62942-2.203-2.203-3.7766-5.1928-3.7766-2.6751 0-4.5633 1.5736-4.5633 3.9339 0 2.0456 1.4162 2.9898 3.1471 3.4618l2.203 0.47207c1.1015 0.31471 1.5736 0.62942 1.5736 1.4162 0 0.94414-0.78678 1.5736-2.0456 1.5736-1.2588 0-2.203-0.47207-2.5177-1.5736h-2.6751c0.47207 2.3603 2.3603 3.7766 5.1928 3.7766 2.6751 0 4.7207-1.4162 4.7207-3.9339 0.15736-1.8883-1.1015-3.1471-3.1471-3.6192" stroke-width="1.5736"/>
  <g transform="matrix(1.5736 0 0 1.5736 -178.96 50.92)">
   <path class="st1" d="m2.9 34.5s0.2-0.2 0.6-0.7 0.9-1.2 1.6-2c0.6-0.8 1.4-1.7 2.3-2.8s1.8-2.1 2.8-3.2c0.1-0.1 0.2-0.1 0.3 0 0.2 0.1 0.3 0.2 0.4 0.4s0.2 0.4 0.2 0.6 0 0.5-0.2 0.6c-0.1 0.1-0.3 0.4-0.8 0.9-0.4 0.5-0.9 1-1.4 1.6s-1.1 1.3-1.8 2c-0.6 0.7-1.2 1.4-1.7 2s-1 1.1-1.3 1.5c-0.4 0.4-0.5 0.6-0.6 0.6 0 0-0.1 0.1-0.2 0.1h-0.4c-0.1 0-0.3 0-0.5-0.1-0.2 0-0.4-0.1-0.6-0.4-0.2-0.2-0.5-0.6-0.6-1-0.2-0.4-0.3-1-0.3-1.6 0-0.9 0.2-1.9 0.5-2.9s0.8-2 1.3-3 1.1-1.9 1.8-2.8c0.6-0.9 1.2-1.7 1.8-2.4s1-1.2 1.4-1.6 0.6-0.6 0.7-0.6c0.3 0 0.5 0.1 0.8 0.3s0.5 0.4 0.7 0.7 0.4 0.6 0.5 0.9 0.2 0.6 0.2 0.8c0 0.1-0.2 0.4-0.6 0.9-0.4 0.4-0.8 1-1.4 1.6s-1.2 1.3-1.8 2.1c-0.7 0.8-1.3 1.6-1.8 2.5-0.6 0.8-1 1.7-1.4 2.6-0.3 0.7-0.5 1.5-0.5 2.4zm9.8-21.6c0.2 0 0.4 0.1 0.7 0.3s0.5 0.4 0.8 0.7 0.5 0.6 0.6 0.9 0.3 0.5 0.3 0.6-0.1 0.4-0.4 0.8-0.6 0.8-1 1.3l-1.1 1.1c-0.4 0.3-0.7 0.5-0.9 0.5s-0.4 0-0.6-0.1-0.5-0.2-0.6-0.4c-0.2-0.1-0.4-0.3-0.5-0.5s-0.2-0.3-0.2-0.5c0-0.3 0.1-0.7 0.4-1.2 0.2-0.5 0.5-1.1 0.9-1.6 0.3-0.5 0.7-1 1-1.4 0.1-0.3 0.4-0.5 0.6-0.5z" fill="#14c6ff"/>
  </g>
  <g transform="matrix(1.5736 0 0 1.5736 -178.96 50.92)" fill="#14c6ff">
   <path class="st1" d="m35.8 9.3c0.3 0 0.6 0.1 0.7 0.3 0.2 0.2 0.3 0.5 0.4 0.8s0.2 0.6 0.2 0.9v0.8c0 0.2-0.3 0.5-0.9 0.9-0.6 0.3-1.2 0.7-1.9 1.2-0.7 0.4-1.3 0.9-1.9 1.5-0.6 0.5-0.9 1.1-0.9 1.7 0 0.2 0 0.3-0.1 0.4h-0.2c-0.1 0-0.2 0-0.4-0.1s-0.3-0.2-0.5-0.4-0.3-0.4-0.5-0.7c-0.1-0.3-0.2-0.6-0.2-1v-0.6c0-0.2 0.1-0.4 0.1-0.6-0.8 0.1-1.8 0.4-3.1 1.1-1.3 0.6-2.6 1.5-4 2.5s-2.8 2.3-4.2 3.6c-1.4 1.4-2.7 2.8-3.8 4.4s-2.1 3.2-2.8 4.8c-0.7 1.7-1.1 3.3-1.1 4.9 0 0.8 0.3 1.3 0.8 1.5s1.2 0.2 2.1 0c0.8-0.2 1.8-0.5 2.9-1s2.1-1.1 3.2-1.7c1-0.6 2-1.3 3-2 0.9-0.7 1.7-1.4 2.4-2 0.5 0 0.9 0.1 1.2 0.2 0.2 0.1 0.4 0.3 0.4 0.6 0 0.2-0.2 0.6-0.7 1.1-0.9 0.9-2 1.8-3.3 2.8s-2.7 1.9-4.1 2.7c-1.5 0.8-2.9 1.5-4.3 2s-2.7 0.7-3.9 0.7c-1.2-0.1-2.1-0.5-2.8-1.2-0.7-0.8-1.1-2-1.1-3.7 0-2.2 0.5-4.4 1.4-6.5 1-2.1 2.2-4.2 3.7-6.1s3.3-3.7 5.2-5.3c2-1.6 3.9-3 5.9-4.2s3.9-2.1 5.8-2.8 3.5-1 4.9-1h0.4c0.2 0 0.3 0 0.4 0.1 0.8-0.4 1.3-0.6 1.6-0.6z"/>
   <path class="st1" d="m43.3 27.3c0.1-0.1 0.2-0.1 0.4 0s0.3 0.3 0.4 0.5 0.2 0.5 0.2 0.7c0 0.3 0 0.5-0.2 0.7-0.4 0.4-0.8 0.9-1.3 1.4s-1 1-1.6 1.4-1.1 0.8-1.6 1.1-1 0.5-1.4 0.5c-0.3 0-0.6 0-0.8-0.1s-0.4-0.2-0.6-0.4c-0.4 0.5-0.8 1-1.2 1.3-0.4 0.4-0.7 0.7-1.1 1s-0.8 0.5-1.2 0.7-0.9 0.3-1.5 0.4c-0.5 0.1-1 0.1-1.5 0s-1-0.3-1.5-0.6c-0.4-0.3-0.8-0.6-1.1-1s-0.4-0.9-0.4-1.4c0-1.1 0.2-2.3 0.6-3.4s1-2.1 1.6-3.1c0.7-1 1.4-1.9 2.2-2.7s1.6-1.5 2.4-2.1 1.5-1.1 2.1-1.4 1.1-0.5 1.5-0.5 0.8 0.1 1.2 0.3c0.3 0.2 0.6 0.4 0.8 0.7 0.2-0.3 0.4-0.5 0.6-0.5s0.5 0.1 0.7 0.3 0.4 0.5 0.6 0.9c0.2 0.3 0.3 0.7 0.5 1.1 0.1 0.4 0.2 0.8 0.2 1.2 0 0.3-0.1 0.7-0.4 1.1-0.2 0.5-0.5 1-0.9 1.5-0.3 0.5-0.7 1.1-1.1 1.6-0.4 0.6-0.8 1.1-1.1 1.5-0.3 0.5-0.6 0.9-0.9 1.2-0.2 0.4-0.3 0.6-0.3 0.7 0 0.2 0.3 0.2 0.7-0.1s0.9-0.8 1.5-1.3l1.8-1.8c0.8-0.4 1.3-0.9 1.7-1.4zm-13.1 8.1c0.3 0 0.6-0.1 1-0.4s0.9-0.6 1.3-1.1 1-0.9 1.4-1.4c0.5-0.5 0.9-1 1.3-1.5v-0.4-0.4c0-0.7 0.3-1.6 0.8-2.8 0.5-1.1 1.2-2.3 1.9-3.4-0.7 0.4-1.5 1-2.2 1.8-0.8 0.7-1.5 1.5-2.2 2.3s-1.4 1.7-1.9 2.5c-0.6 0.9-1 1.6-1.4 2.3-0.3 0.7-0.5 1.3-0.6 1.7 0 0.6 0.2 0.8 0.6 0.8z"/>
   <path class="st1" d="m49.4 19.7c0.7 0 1.3 0.1 1.7 0.3s0.7 0.5 0.7 0.8c0 0.1-0.2 0.3-0.5 0.7s-0.7 0.8-1.1 1.3-0.8 0.9-1.1 1.4c-0.3 0.4-0.5 0.8-0.5 1.1 0 0.1 0 0.1 0.1 0.2 0 0.1 0.1 0.1 0.2 0 0 0 0.3-0.2 0.7-0.7 0.5-0.4 1-0.9 1.7-1.5s1.4-1.3 2.2-2 1.6-1.4 2.3-2 1.3-1.1 1.8-1.5 0.8-0.6 0.9-0.6c0.3 0 0.6 0.1 0.9 0.3s0.6 0.5 0.9 0.8 0.5 0.7 0.6 1c0.2 0.3 0.3 0.6 0.3 0.9s-0.2 0.8-0.7 1.5-1 1.5-1.7 2.4-1.5 2-2.3 3.1-1.6 2.2-2.3 3.4c-0.7 1.1-1.3 2.3-1.7 3.4-0.5 1.1-0.7 2.2-0.7 3.2 0 0.2 0.2 0.1 0.6-0.3s0.9-0.9 1.5-1.6 1.2-1.5 2-2.4c0.7-0.9 1.4-1.7 2-2.5s1.2-1.5 1.7-2.1 0.8-1 0.9-1.1 0.2-0.1 0.4 0 0.3 0.3 0.4 0.5 0.2 0.5 0.2 0.8 0 0.5-0.2 0.7c-0.1 0.2-0.4 0.5-0.9 1.2-0.5 0.6-1 1.3-1.7 2.1s-1.4 1.6-2.1 2.5c-0.8 0.9-1.5 1.7-2.2 2.5-0.7 0.7-1.3 1.4-1.9 1.8-0.6 0.5-1 0.7-1.3 0.7-0.2 0-0.4-0.1-0.6-0.2-0.3-0.1-0.5-0.3-0.7-0.5s-0.4-0.5-0.6-0.8-0.3-0.8-0.3-1.2c0-1 0.1-2 0.4-3.1 0.2-1.1 0.5-2.1 0.9-3.2 0.3-1 0.7-2 1.1-2.9s0.8-1.7 1.1-2.4 0.6-1.2 0.8-1.6 0.3-0.6 0.2-0.6-0.4 0.2-0.8 0.7c-0.5 0.4-1.1 1-1.7 1.7l-2.2 2.2c-0.8 0.8-1.5 1.6-2.2 2.4s-1.2 1.5-1.6 2.2c-0.4 0.6-0.7 1.1-0.7 1.5 0 0.1-0.1 0.2-0.2 0.3s-0.3 0.2-0.6 0.2-0.6-0.2-0.9-0.7-0.4-1.2-0.4-2.2c0-0.6 0.1-1.3 0.4-2.1s0.6-1.7 1.1-2.6c0.4-0.9 1-1.8 1.5-2.7 0.6-0.9 1.1-1.7 1.7-2.4s1.1-1.3 1.6-1.7c0.1-0.3 0.6-0.6 0.9-0.6z"/>
   <path class="st1" d="m69.7 20c0.6 0 1.1 0.1 1.4 0.4s0.5 0.6 0.5 1.1c0.1 0.4 0 0.9-0.1 1.3s-0.3 0.9-0.5 1.3-0.4 0.8-0.6 1.1-0.4 0.4-0.5 0.4c-1.1 0-2.3 0.4-3.5 1.1s-2.3 1.6-3.3 2.8c-1 1.1-1.8 2.3-2.4 3.6s-1 2.5-1 3.7c0 0.3 0.2 0.4 0.7 0.4 0.4-0.1 1-0.3 1.7-0.6 0.7-0.4 1.5-0.8 2.5-1.4s1.9-1.3 3-2.1c1-0.8 2.1-1.7 3.1-2.6 1.1-1 2-1.9 3-3 0.1-0.1 0.2-0.1 0.4 0s0.3 0.3 0.5 0.5c0.1 0.2 0.2 0.4 0.3 0.7 0 0.3-0.1 0.5-0.2 0.8-0.1 0.1-0.4 0.4-0.9 1-0.5 0.5-1.2 1.2-2 1.9s-1.8 1.5-2.8 2.4c-1 0.8-2.1 1.6-3.2 2.3s-2.2 1.3-3.3 1.8-2.1 0.7-3 0.7c-0.2 0-0.5-0.1-0.8-0.3s-0.6-0.4-0.9-0.7-0.5-0.7-0.8-1.1c-0.2-0.4-0.3-0.9-0.3-1.3 0-1.2 0.3-2.5 0.8-3.8s1.1-2.5 1.9-3.7 1.7-2.3 2.6-3.3c1-1 1.9-1.9 2.9-2.7s1.8-1.4 2.7-1.8c0.9-0.7 1.6-0.9 2.1-0.9z"/>
   <path class="st1" d="m86.7 27.4c0.1-0.1 0.2-0.1 0.4 0s0.3 0.3 0.5 0.5c0.1 0.2 0.2 0.4 0.3 0.7 0 0.3 0 0.5-0.2 0.8-0.1 0.1-0.4 0.4-0.9 1-0.5 0.5-1.2 1.2-2 1.9s-1.7 1.5-2.7 2.3-1.9 1.6-2.9 2.3-1.8 1.3-2.6 1.7-1.5 0.7-2 0.7-1-0.1-1.3-0.4c-0.4-0.3-0.7-0.7-1-1.1-0.3-0.5-0.5-1-0.6-1.6s-0.2-1.3-0.2-2c0-1.1 0.2-2.3 0.6-3.4s1-2.1 1.6-3.1c0.7-1 1.4-1.9 2.2-2.7s1.6-1.5 2.4-2.1 1.5-1.1 2.1-1.4 1.1-0.5 1.5-0.5 0.8 0.1 1.2 0.3c0.3 0.2 0.6 0.4 0.8 0.7s0.4 0.6 0.5 0.9 0.2 0.5 0.2 0.7c-0.3 0-0.7 0.1-1.1 0.2 0.5 0.2 0.9 0.5 1.2 0.8s0.4 0.5 0.4 0.6c0 0.7-0.2 1.4-0.7 2.1-0.4 0.7-1.1 1.4-1.9 2s-1.8 1.1-3 1.5-2.5 0.6-4 0.7c-0.3 0.5-0.5 1-0.8 1.7-0.2 0.7-0.4 1.3-0.5 1.9s-0.2 1.2-0.1 1.6c0 0.4 0.2 0.7 0.4 0.7 0.4 0 0.9-0.2 1.6-0.6s1.4-0.9 2.2-1.5 1.6-1.3 2.4-2 1.6-1.5 2.4-2.2 1.5-1.4 2.1-2c0.7-0.8 1.2-1.3 1.5-1.7zm-5.1-2.8c-0.8 0.6-1.6 1.2-2.4 2.1-0.8 0.8-1.5 1.7-2.2 2.6 1-0.2 1.7-0.4 2.3-0.7s1.1-0.7 1.4-1.2c0.3-0.4 0.6-0.9 0.7-1.4 0.1-0.6 0.2-1 0.2-1.4z"/>
   <path class="st1" d="m100.6 27.3c0.1-0.1 0.2-0.1 0.4 0s0.3 0.3 0.5 0.5c0.1 0.2 0.2 0.4 0.3 0.7 0 0.3 0 0.5-0.2 0.7-0.1 0.1-0.4 0.5-0.9 1-0.4 0.5-1 1.2-1.6 1.9s-1.3 1.5-2 2.4c-0.7 0.8-1.4 1.6-2.1 2.3s-1.3 1.3-1.8 1.7c-0.5 0.5-0.9 0.7-1.2 0.7-0.4 0-0.8-0.1-1.2-0.4s-0.7-0.6-1.1-0.9c-0.3-0.4-0.5-0.7-0.7-1.1s-0.3-0.7-0.3-0.9c0-0.3 0.2-0.9 0.6-1.6 0.4-0.8 0.8-1.6 1.4-2.6 0.5-1 1.1-2 1.8-3.1 0.6-1.1 1.2-2.1 1.8-3 0.5-0.9 1-1.7 1.4-2.4s0.6-1.1 0.6-1.3c-0.4 0.1-0.9 0.2-1.5 0.4s-1.3 0.3-1.9 0.5c-0.4 0.5-0.8 1.1-1.3 1.7s-1 1.3-1.4 1.9c-0.5 0.6-0.9 1.2-1.3 1.7s-0.8 0.9-1 1.2-0.4 0.4-0.6 0.3-0.3-0.3-0.4-0.5c-0.1-0.3-0.1-0.6-0.1-0.9s0.1-0.6 0.3-0.8c0.7-0.7 1.3-1.5 1.8-2.2s0.9-1.3 1.3-1.8h-0.4-0.4c-0.2 0-0.4-0.1-0.7-0.4s-0.5-0.6-0.6-0.9c-0.2-0.3-0.3-0.7-0.3-0.9 0-0.3 0.1-0.4 0.4-0.4s0.7-0.1 1.3-0.3 1.2-0.4 1.9-0.7 1.5-0.6 2.2-0.9c0.8-0.3 1.5-0.6 2.1-0.9s1.2-0.5 1.6-0.7 0.7-0.3 0.8-0.3c0.3 0 0.6 0.2 1 0.5s0.7 0.7 1.1 1.2c0.3 0.5 0.6 1 0.8 1.5s0.3 0.9 0.3 1.3c0 0.2-0.2 0.7-0.7 1.4-0.4 0.7-1 1.6-1.7 2.6s-1.4 2.1-2.2 3.2c-0.9 1.2-1.7 2.3-2.3 3.3-0.7 1-1.2 2-1.7 2.8-0.4 0.8-0.7 1.5-0.7 1.9 0.1 0 0.3-0.2 0.7-0.6s0.9-0.9 1.4-1.5c0.6-0.6 1.2-1.3 1.9-2s1.3-1.5 1.9-2.2 1.2-1.3 1.7-1.9c0.4-0.5 0.8-0.9 1-1.2z"/>
   <path class="st1" d="m114.1 16.6c0.9 0.3 1.6 0.5 2.2 0.8 0.6 0.2 0.9 0.4 0.9 0.6s-0.1 0.4-0.2 0.7-0.3 0.4-0.6 0.4c-0.1 0-0.5 0-1.3-0.1s-1.7-0.2-2.8-0.3c-1.4 1.6-2.9 3.3-4.4 5.3-1.5 1.9-2.9 3.9-4.2 5.9s-2.4 4.1-3.2 6c-0.8 2-1.2 3.9-1.2 5.6 0 0.1 0 0.2 0.1 0.3 0.1 0 0.1 0.1 0.1 0.1 0.2 0 0.7-0.3 1.4-1 0.7-0.6 1.5-1.4 2.5-2.4 0.9-1 1.9-2 3-3.2s2.1-2.3 3-3.4c1-1.1 1.8-2 2.5-2.9 0.7-0.8 1.3-1.4 1.5-1.7 0.1-0.1 0.2-0.1 0.4 0l0.6 0.3c0.2 0.2 0.3 0.4 0.4 0.6s0 0.4-0.2 0.7c-0.1 0.1-0.3 0.4-0.7 0.8-0.4 0.5-0.9 1.1-1.5 1.8s-1.3 1.5-2.1 2.5c-0.8 0.9-1.6 1.8-2.5 2.8-0.9 0.9-1.7 1.9-2.6 2.7-0.9 0.9-1.7 1.7-2.5 2.4s-1.4 1.2-2 1.7c-0.6 0.4-1.1 0.6-1.4 0.6s-0.7-0.1-1.1-0.2-0.7-0.3-1-0.6-0.5-0.6-0.7-1.1-0.3-1.1-0.3-1.8c0-1.9 0.3-3.9 0.9-5.8 0.6-2 1.4-4 2.4-5.9s2.1-3.8 3.4-5.7c1.3-1.8 2.5-3.5 3.8-5.1-0.9-0.1-1.6-0.3-2.2-0.4-0.6-0.2-0.9-0.3-0.9-0.5s0-0.5 0.1-0.8 0.2-0.6 0.3-0.8c0.2-0.3 0.4-0.5 0.6-0.7 0.3-0.2 0.6-0.3 1.1-0.3 0.3 0.1 0.6 0.2 1 0.2 0.3 0.1 0.6 0.2 1 0.2s0.8 0.2 1.3 0.3c1.7-1.9 3.3-3.4 4.6-4.5s2.1-1.7 2.5-1.7c0.3 0 0.6 0.1 0.9 0.4s0.5 0.5 0.7 0.9c0.2 0.3 0.3 0.7 0.4 1s0.1 0.6 0.1 0.7-0.4 0.6-1.2 1.4c-0.7 0.8-1.7 1.9-2.9 3.2z"/>
   <path class="st1" d="m114.4 35.1c-0.1 0-0.3 0.1-0.6 0.2s-0.6 0.3-0.8 0.5c-0.3 0.2-0.5 0.4-0.6 0.5-0.1 0.2-0.1 0.3 0.1 0.3 0.8 0.2 1.6 0.1 2.3-0.2 0.8-0.3 1.5-0.6 2.2-1.1s1.3-1.1 1.9-1.7 1.1-1.2 1.5-1.8 0.8-1.1 1-1.6 0.3-0.8 0.3-0.9-0.3-0.1-0.8 0-1.1 0.3-1.8 0.5-1.4 0.4-2.2 0.6c-0.7 0.2-1.4 0.3-1.9 0.3-0.1 0-0.2-0.1-0.4-0.4s-0.4-0.6-0.6-1-0.4-0.7-0.5-1-0.2-0.5-0.2-0.7 0.2-0.5 0.6-0.9 0.9-0.9 1.5-1.4 1.4-1.1 2.2-1.6c0.8-0.6 1.8-1.1 2.7-1.5 1-0.5 2-0.8 3-1.1s2.1-0.5 3.1-0.5c0.5 0 0.8 0.1 1 0.3s0.3 0.5 0.4 0.8c0 0.3 0 0.7-0.1 1.1s-0.3 0.8-0.4 1.1c-0.2 0.3-0.4 0.6-0.5 0.8-0.2 0.2-0.3 0.3-0.5 0.3-1.3 0-2.5 0.2-3.7 0.6s-2.2 0.8-3.1 1.3-1.5 0.9-2 1.3-0.6 0.6-0.5 0.6 0.4-0.1 0.9-0.2 1.1-0.3 1.7-0.4c0.7-0.1 1.4-0.3 2.1-0.4s1.4-0.1 2 0 1.1 0.3 1.5 0.6 0.6 0.8 0.6 1.5c0 0.5-0.3 1.3-0.9 2.2-0.6 1-1.4 1.9-2.4 2.9s-2.2 1.8-3.6 2.5-2.9 1.1-4.5 1.1c-0.6 0-1.1-0.1-1.6-0.2s-1-0.3-1.3-0.6c-0.4-0.2-0.7-0.5-0.9-0.8s-0.3-0.7-0.3-1c0-0.4 0.1-0.8 0.3-1.1 0.2-0.4 0.5-0.7 0.8-1s0.7-0.5 1-0.7c0.4-0.2 0.7-0.3 1-0.3 0.1 0 0.2 0.1 0.3 0.3l0.3 0.6c0.1 0.2 0.2 0.5 0.2 0.7 0.1 0.2 0.1 0.4 0.1 0.4s0.2 0.2 0.1 0.2z"/>
  </g>
 </g>
</svg>
