<svg xmlns="http://www.w3.org/2000/svg" width="623" height="604" viewBox="0 0 623 604">
  <rect fill="#0c4c7e" x="6" y="6" width="610.55" height="591.96"/>
  <path fill="#fff" d="M622.55,603.96H0V0H622.55V603.96ZM12,591.96H610.55V12H12V591.96Z"/>
  <g>
    <path fill="#24a59a" d="M238.41,248.87l31.6-151.65,63.61,.07,55.02,176.15,54.39-176.56,79.76,.35-99.94,319.96-64.17-.02-50.13-159.31-27.41,128.89-42.72-137.87Z"/>
    <path fill="#fff" d="M200.41,184.56l71.95,232.61h-72.93S127.33,184.56,127.33,184.56h73.08Zm-79.76-20.1l-20.88-67.25,73.08,.07,20.88,67.23-73.08-.06Z"/>
  </g>
  <g fill="#fff">
    <path d="M180.26,513.56v-59.6h38.32v10.68h-25.58v13.58h21.69v10.26h-21.69v14.4h26.82v10.68h-39.57Z"/>
    <path d="M282.9,453.96l-20.69,29.55,21.02,30.05h-14.32l-13.49-20.2-13.49,20.2h-14.32l21.02-30.05-20.69-29.55h14.32l13.16,19.78,13.24-19.78h14.24Z"/>
    <path d="M318.58,464.64v48.92h-12.75v-48.92h-16.64v-10.68h46.1v10.68h-16.72Z"/>
    <path d="M366.84,453.96c13.82,0,23.01,6.87,23.01,19.62,0,8.69-4.88,14.4-11.34,16.97l12.5,23.01h-13.49l-10.51-20.86h-8.61v20.86h-12.5v-59.6h20.94Zm-8.44,10.68v17.8h9.11c5.63,0,9.52-2.81,9.52-8.86s-4.05-8.94-9.85-8.94h-8.77Z"/>
    <path d="M425.28,453.05h.5l28.97,60.51h-13.33l-4.8-10.51h-22.27l-4.64,10.51h-13.33l28.89-60.51Zm7.53,41.06c-2.73-6.21-5.38-12.5-7.2-17.71-1.74,4.14-4.88,12.08-7.37,17.71h14.57Z"/>
  </g>
</svg>
