<svg version="1.1" viewBox="0 0 703.37 800" xmlns="http://www.w3.org/2000/svg">
 <radialGradient id="ac" cx="675.09" cy="-103.99" r="396.3" gradientTransform="matrix(.62684 .84368 -.64547 .48568 -173.71 -189.67)" gradientUnits="userSpaceOnUse">
  <stop stop-color="#242424" offset="0"/>
  <stop stop-color="#171717" offset=".233"/>
  <stop stop-color="#060606" offset=".625"/>
  <stop offset=".92"/>
 </radialGradient>
 <path d="m676.54 576.4-574.3 100.66-102.24-576.4 574.3-100.66z" fill="url(#ac)" stroke-width="1.0526"/>
 <path d="m415.87 413.94c1.0737 6.0337 4.8926 9.9674 12.257 8.68 4.921-0.86316 55.473-9.939 55.473-9.939 58.955-10.56 82.323-49.608 70.083-117.14-2.1495-11.862-4.859-22.38-8.9326-33.225-50.109 25.366-98.387 45.741-145.07 62.318 7.8 42.975 15.417 84.941 16.187 89.311z" fill="none" stroke-width="1.0526"/>
 <linearGradient id="ab" x1="657.63" x2="601.91" y1="-78.897" y2="-281.75" gradientTransform="matrix(1.0486 .091688 -.091688 1.0486 -353.13 367.98)" gradientUnits="userSpaceOnUse">
  <stop stop-color="#404040" offset="0"/>
  <stop stop-color="#141414" offset="1"/>
 </linearGradient>
 <path d="m7.1042 103.96s17.555 97.215 20.701 114.6c3.1463 17.389 30.223 161.33 36.424 179.38 160.42-19.804 336.59-50.674 543.82-169.84-3.5074-31.034-0.67474-28.611 0.44947-28.123 1.1253 0.48842-34.183-195.36-34.183-195.36l-1.8484 3.3389-560.93 98.721z" fill="url(#ab)" stroke-width="1.0526" Googl="true"/>
 <radialGradient id="aa" cx="400.35" cy="-305.93" r="281.12" gradientTransform="matrix(1.0486 .091688 -.091688 1.0486 -353.13 367.98)" gradientUnits="userSpaceOnUse">
  <stop stop-color="#8c8c8c" offset=".129"/>
  <stop stop-color="#030303" offset="1"/>
 </radialGradient>
 <path d="m11.629 106.69-11.629-6.0379 418.68-73.455 39.107 0.68421z" fill="url(#aa)" stroke-width="1.0526"/>
 <radialGradient id="z" cx="326.33" cy="-280.17" r="256.96" gradientTransform="matrix(1.0486 .091688 -.091688 1.0486 -353.13 367.98)" gradientUnits="userSpaceOnUse">
  <stop stop-color="#595959" offset=".037"/>
  <stop stop-color="#6e6e6e" offset=".095"/>
  <stop stop-color="#878787" offset=".182"/>
  <stop stop-color="#989898" offset=".273"/>
  <stop stop-color="#a3a3a3" offset=".37"/>
  <stop stop-color="#a6a6a6" offset=".485"/>
  <stop stop-color="#9d9d9d" offset=".542"/>
  <stop stop-color="#595959" offset="1"/>
 </radialGradient>
 <path d="m11.536 106.68 133.41-23.6 167.63-29.562-305.32 50.956z" fill="url(#z)" stroke-width="1.0526"/>
 <path d="m102.24 677.05 8.6516-10.537 559.42-97.883 6.0095 7.7221z" fill="#080808" stroke-width="1.0526"/>
 <linearGradient id="y" x1="355.86" x2="360.45" y1="-142.8" y2="-144.08" gradientTransform="matrix(1.0486 .091688 -.091688 1.0486 -353.13 367.98)" gradientUnits="userSpaceOnUse">
  <stop offset="0"/>
  <stop stop-color="#595959" offset=".5"/>
  <stop offset="1"/>
 </linearGradient>
 <path d="m7.1042 103.96s17.555 97.215 20.701 114.6c3.1463 17.389 30.223 161.33 36.424 179.38l-52.694-291.26z" fill="url(#y)" stroke-width="1.0526"/>
 <linearGradient id="x" x1="869.92" x2="872.34" y1="-330.6" y2="-331.28" gradientTransform="matrix(1.0486 .091688 -.091688 1.0486 -353.13 367.98)" gradientUnits="userSpaceOnUse">
  <stop offset="0"/>
  <stop stop-color="#595959" offset=".5"/>
  <stop offset="1"/>
 </linearGradient>
 <g stroke-width="1.0526">
  <path d="m607.83 199.02c1.1232 0.48737-33.605-195.31-33.605-195.31l-1.8474 3.3389s34.328 191.48 35.453 191.97z" fill="url(#x)"/>
  <path d="m107.06 703.6 11.007-1.9442 8.8242 50.038-11.008 1.9463zm23.821-4.2021 10.153-1.7895 28.885 26.676-5.4347-30.812 10.86-1.9168 8.8263 50.042-9.3642 1.6463-29.842-27.542 5.6084 31.82-10.867 1.9095zm52.018-9.1684 12.149-2.1421 19.297 32.924 6.8653-37.542 11.866-2.0895-11.34 53.959-9.7232 1.7116zm57.766-10.188 37.742-6.6537 1.7295 9.7905-26.806 4.7232 1.7926 10.155 23.582-4.1579 1.7316 9.7905-23.588 4.1579 1.8505 10.515 27.163-4.7947 1.7263 9.7947-38.1 6.7147zm52.519 34.811 5.1232-8.9379c5.161 2.9242 10.295 4.4526 16.018 3.4453 4.4979-0.7979 6.9011-3.0611 6.3905-5.9874l-0.0274-0.14316c-0.49579-2.7916-2.4653-3.9221-11.206-4.5874-10.532-0.8021-17.527-2.4284-19.279-12.369l-0.0263-0.14527c-1.5979-9.08 4.6316-16.371 14.855-18.176 7.2884-1.2779 13.915-0.0926 19.708 3.0853l-4.2568 9.3021c-4.9716-2.2958-9.6621-3.38-13.88-2.6379-4.2168 0.74316-6.0947 3.06-5.6663 5.4874l0.0253 0.14947c0.5821 3.2916 2.9147 3.9737 11.956 4.6737 10.62 0.86 16.978 3.4937 18.512 12.212l0.0305 0.14948c1.7505 9.9358-4.841 16.841-15.635 18.744-7.5789 1.3389-15.695 0.0379-22.641-4.2642zm55.02-43.307-15.225 2.6842-1.7937-10.148 41.46-7.3105 1.7979 10.149-15.234 2.6758 7.0368 39.894-11.007 1.941zm32.596-16.215 11.015-1.939 8.8168 50.04-11.001 1.939zm25.854 21.385-0.019-0.1421c-2.5105-14.229 6.5179-27.834 21.673-30.502 9.0042-1.5968 14.865-0.12631 20.864 3.3916l-5.4621 9.5874c-4.4211-2.5284-8.1832-3.7884-13.978-2.7674-8.0021 1.4158-13.118 9.6053-11.621 18.109l0.0284 0.14947c1.6168 9.1474 9.0916 14.761 17.955 13.198 4.0053-0.70632 7.4032-2.339 9.8379-4.8326l-1.2632-7.1495-11.079 1.9537-1.6811-9.5095 21.736-3.8326 3.8337 21.736c-4.379 5.279-10.829 10.099-19.975 11.706-15.583 2.7495-28.235-6.3021-30.849-21.096zm70.288-38.709 10.153-1.7895 30.327 46.616-11.511 2.0305-6.5505-10.416-21.155 3.7284-2.6042 12.033-11.226 1.9768zm16.769 27.414-9.5084-15.052-3.7905 17.396zm30.027-24.825-15.226 2.6905-1.7895-10.156 41.464-7.3074 1.7884 10.147-15.222 2.6853 7.0274 39.884-11.005 1.9411zm32.606-16.216 11.011-1.9389 8.8158 50.037-11.003 1.9432zm25.706 21.415-0.0232-0.14947c-2.5084-14.224 6.6547-27.858 22.098-30.578 15.438-2.7232 28.552 6.8379 31.058 21.062l0.0232 0.13894c2.5105 14.22-6.6547 27.857-22.099 30.582-15.436 2.721-28.549-6.8347-31.057-21.056zm41.675-7.3526-0.0274-0.14421c-1.5074-8.5811-9.0558-14.618-17.928-13.055-8.86 1.5653-13.779 9.6526-12.263 18.228l0.0274 0.14632c1.5147 8.5779 9.0663 14.615 17.928 13.059 8.8632-1.5653 13.781-9.6589 12.263-18.235zm17.136-28.969 10.14-1.7832 28.893 26.675-5.4326-30.808 10.858-1.919 8.8232 50.034-9.3663 1.6547-29.839-27.541 5.6084 31.82-10.866 1.9084zm-368.72 140.48 19.517-3.4421c15.728-2.7737 28.496 6.1074 30.977 20.193l0.0232 0.14316c2.4863 14.078-6.4495 26.931-22.18 29.707l-19.517 3.441zm26.588 36.667c9.0105-1.5895 14.011-8.7337 12.446-17.601l-0.0253-0.14316c-1.5632-8.8684-8.7379-14.012-17.74-12.426l-8.5095 1.4968 5.3232 30.167zm29.936-46.633 11.007-1.941 8.8263 50.042-11.009 1.9337zm27.745 39.191 5.1221-8.9421c5.1642 2.9221 10.297 4.4484 16.019 3.4484 4.4979-0.79789 6.8979-3.0674 6.38-6.001l-0.0232-0.13684c-0.48842-2.7895-2.4579-3.921-11.197-4.5947-10.537-0.78737-17.532-2.4274-19.284-12.361l-0.0274-0.14526c-1.599-9.0747 4.6358-16.378 14.858-18.176 7.2926-1.2863 13.913-0.0874 19.704 3.0832l-4.2495 9.3095c-4.9779-2.299-9.6674-3.3884-13.882-2.6463-4.2221 0.74527-6.0968 3.0684-5.6674 5.4979l0.0253 0.14631c0.58106 3.2863 2.9126 3.9726 11.955 4.6684 10.623 0.85158 16.979 3.4937 18.514 12.218l0.0284 0.13684c1.7495 9.939-4.84 16.847-15.636 18.748-7.58 1.34-15.693 0.0463-22.639-4.2537zm43.469-25.801-0.019-0.14211c-2.5116-14.227 6.1537-27.774 21.526-30.48 9.4316-1.661 15.639 0.48737 21.088 4.2484l-5.5779 9.3074c-4.4821-2.8253-8.7874-4.2705-13.789-3.3916-8.4337 1.4884-13.284 9.5621-11.769 18.144l0.0295 0.14211c1.5084 8.5853 8.7053 14.679 17.279 13.168 5.7253-1.0084 8.8232-3.9147 12.121-8.1779l8.2537 5.8379c-4.1747 6.4126-9.2916 10.852-18.94 12.558-14.725 2.5905-27.673-6.8432-30.202-21.215zm50.995-8.9895-0.0137-0.14631c-2.5158-14.224 6.6579-27.86 22.091-30.582 15.442-2.7221 28.554 6.841 31.066 21.059l0.0263 0.14316c2.5021 14.226-6.6663 27.856-22.111 30.578-15.438 2.7232-28.547-6.8221-31.059-21.052zm41.676-7.3516-0.02-0.14737c-1.5158-8.5705-9.0642-14.615-17.928-13.049-8.86 1.5642-13.776 9.6526-12.264 18.234l0.0274 0.13474c1.5063 8.5884 9.061 14.619 17.923 13.055 8.8621-1.5642 13.78-9.6453 12.262-18.226zm9.9368-27.698 12.152-2.1442 19.296 32.943 6.8674-37.552 11.867-2.0895-11.343 53.963-9.7263 1.7126zm57.765-10.187 37.751-6.6558 1.72 9.799-26.803 4.721 1.7821 10.151 23.591-4.1611 1.7284 9.799-23.583 4.159 1.8474 10.512 27.171-4.7895 1.7221 9.7916-38.096 6.7074zm48.895-8.6179 22.873-4.0368c6.3663-1.12 11.613-0.19684 15.482 2.5032 3.2779 2.301 5.4737 5.9684 6.3053 10.685l0.0274 0.13369c1.4232 8.0884-2.04 13.929-7.9895 17.411l15.375 15.72-12.86 2.2642-13.549-14.116-0.14737 0.0295-8.501 1.4937 2.82 16.006-11.011 1.939zm26.451 20.394c5.3568-0.94316 7.9337-4.3358 7.1863-8.5621l-0.0253-0.14631c-0.83158-4.7095-4.5442-6.5674-9.9084-5.6168l-10.94 1.9263 2.5327 14.367zm42.882-1.3695-24.577-26.912 12.867-2.2716 15.488 17.985 8.6063-22.239 12.503-2.2053-13.922 33.485 3.5147 19.947-11.007 1.9316z" fill="#edeff4"/>
  <path d="m608.16 225.15-3.9695-22.734c-34.029-55.773-89.981-82.5-156.1-70.468 0 0-149.27 27.207-162.52 29.571-13.247 2.3547-15.769 5.9505-13.479 19.044 1.5021 8.6147 16.899 94.787 31.448 176.21l0.0568 0.31474-1e-3 1e-3c13.092 73.263 25.48 142.59 26.423 148 0.0842 0.48 0.17264 0.94211 0.26316 1.3958l0.0674 0.33053c0.0937 0.45053 0.18947 0.88947 0.29053 1.3137l8e-3 0.0337c0.0989 0.41368 0.20421 0.81158 0.31263 1.201 0.0253 0.0874 0.0484 0.17579 0.0747 0.26316a26.288 26.288 0 0 0 0.36421 1.1768c0.12315 0.36526 0.25368 0.71263 0.38842 1.0526 0.0253 0.0632 0.0495 0.12737 0.0758 0.18948 0.14105 0.34631 0.28842 0.68105 0.44315 1 1e-3 3e-3 3e-3 5e-3 3e-3 8e-3 0.15474 0.31579 0.31579 0.61473 0.48527 0.90421l0.0737 0.12737a10.731 10.731 0 0 0 1.2158 1.6695 8.7347 8.7347 0 0 0 1.4579 1.3042 8.7716 8.7716 0 0 0 1.6937 0.93158l0.04 0.0168c0.62105 0.25474 1.2937 0.45158 2.021 0.59053l0.0221 4e-3c2.2632 0.43368 5.0579 0.32316 8.5495-0.3 12.041-2.1358 165.31-30.076 165.31-30.076 65.229-11.866 107.78-53.539 120.95-114.34zm-190.83 203.43c-7.3653 1.3063-11.181-2.6642-12.249-8.7621-0.12-0.69158-0.40631-2.3074-0.83368-4.7116l-0.74316-4.1779-0.35158-1.9779c-2.8779-16.149-8.4779-47.492-14.177-79.383-8.321-46.551-16.853-94.273-17.438-97.627-0.20421-1.1653-0.27894-2.24-0.23052-3.2326 0.43789-4.1874 3.3474-6.7558 9.2905-7.8179 7.5695-1.3358 63.877-11.621 63.877-11.621 41.768-7.6116 72.976 12.989 89.586 57.765l0.22-0.11263c3.9663 10.789 6.6242 21.283 8.7347 33.1 12.178 68.245-11.229 107.73-70.198 118.46 0-3e-3 -50.564 9.2179-55.487 10.096zm-138.67 98.257a6.5158 6.5158 0 0 0 0.27474-0.32526c0.0547-0.0674 0.10947-0.13474 0.16-0.20422 0.0874-0.11684 0.16947-0.23684 0.24842-0.35789 0.0432-0.0642 0.0884-0.12947 0.12947-0.19684a8.0842 8.0842 0 0 0 0.26-0.46632c0.02-0.0389 0.0421-0.0747 0.0611-0.11263 0.0979-0.2 0.18736-0.40526 0.26947-0.61263 0.0232-0.0589 0.041-0.12105 0.0632-0.18211a8.9684 8.9684 0 0 0 0.15684-0.46631c0.0242-0.0821 0.0442-0.16421 0.0674-0.24737 0.0389-0.14632 0.0747-0.29158 0.10631-0.44211 0.0189-0.0895 0.0379-0.17789 0.0547-0.26842 0.0284-0.15473 0.0547-0.31263 0.0768-0.47263 0.0116-0.0874 0.0253-0.17474 0.0358-0.26316 0.0221-0.18421 0.0389-0.37473 0.0526-0.56631 4e-3 -0.0684 0.0126-0.13263 0.0169-0.20105 0.0137-0.26422 0.0242-0.53369 0.0253-0.81053 1e-3 -0.0484-1e-3 -0.10105-2e-3 -0.15158a19.892 19.892 0 0 0-0.0137-0.7c-3e-3 -0.0979-0.0105-0.2-0.0147-0.29895-0.0105-0.19789-0.0221-0.39684-0.0379-0.6-9e-3 -0.11263-0.019-0.22631-0.0305-0.3421-0.0179-0.2-0.0389-0.40527-0.0621-0.61263l-0.04-0.35053c-0.0274-0.22526-0.06-0.45579-0.0916-0.68842-0.0147-0.10316-0.0284-0.20526-0.0453-0.31053-0.0505-0.33895-0.10526-0.68421-0.16631-1.039-0.82316-4.7726-12.646-73.131-25.321-146.41l-0.0621-0.35895c-14.675-84.845-30.467-176.15-31.636-182.94-1.3242-7.6474-2.7368-11.635-6.9063-13.009l-0.0653-0.02a9.7537 9.7537 0 0 0-0.6821-0.19053l-0.1-0.0242c-0.23369-0.0526-0.47474-0.0989-0.72316-0.14l-0.0979-0.0168a14.152 14.152 0 0 0-0.84421-0.1021l-0.0242-3e-3a19.8 19.8 0 0 0-2.0137-0.0642 29.421 29.421 0 0 0-1.0337 0.0379l-0.25579 0.0158c-0.28106 0.0179-0.56843 0.0379-0.86421 0.0642-0.1179 9e-3 -0.23895 0.0221-0.36 0.0337-0.27369 0.0263-0.55474 0.0568-0.84106 0.0884l-0.41473 0.0484a96.877 96.877 0 0 0-1.3147 0.17684 77.511 77.511 0 0 0-1.3821 0.21369c-0.47158 0.0779-0.95368 0.16105-1.4526 0.25052-14.751 2.6558-43.086 7.9674-52.181 9.6032-13.144 2.3695-15.891 4.5537-13.503 18.346 1.5632 9.0642 17.413 100.71 32.008 185.12l0.0737 0.42315h-1e-3a2267191 2267191 0 0 1 24.125 139.52l0.30737 1.779 0.25473 1.4747 0.23684 1.3737c0.079 0.45684 0.16422 0.89368 0.25264 1.321l0.0516 0.24842a30.985 30.985 0 0 0 0.33263 1.3821c0.1 0.37684 0.20526 0.74316 0.31789 1.0926l0.0221 0.0716c0.11789 0.36316 0.24421 0.70842 0.37579 1.0432l0.0695 0.17263c0.13474 0.33052 0.27684 0.64737 0.42737 0.94947 0.0126 0.0274 0.0274 0.0516 0.0411 0.079 0.14947 0.29368 0.30632 0.57474 0.47263 0.84105l0.0474 0.0768c0.17263 0.27264 0.35579 0.53053 0.54737 0.77474l0.0853 0.10737c0.39895 0.49053 0.83895 0.92737 1.3274 1.3053l0.0779 0.0611a7.6295 7.6295 0 0 0 0.85894 0.56211 8.9358 8.9358 0 0 0 1.8179 0.77263l0.10947 0.0337c0.33158 0.0979 0.67684 0.18315 1.039 0.25157 0.0253 6e-3 0.0526 9e-3 0.0768 0.0137 0.74211 0.14 1.5484 0.22421 2.4232 0.25474l0.14316 4e-3c0.43789 0.0105 0.89052 0.0116 1.3653-3e-3h3e-3 -1e-3c1.7937-0.0547 3.8442-0.2979 6.1979-0.72211 12.863-2.3168 34.391-6.421 52.173-9.6116 5.5674-1.0084 9.2853-2.2021 11.617-3.9558v1e-3c0.0158-0.0116 0.0284-0.0242 0.0432-0.0368 0.17895-0.13685 0.35053-0.27685 0.51369-0.42 0.0611-0.0537 0.11789-0.11053 0.17579-0.16422 0.11368-0.10631 0.22631-0.21368 0.33157-0.3221 0.0663-0.0579 0.12421-0.12211 0.18316-0.18842z" opacity=".8"/>
 </g>
 <linearGradient id="w" x1="561.7" x2="549.55" y1="77.461" y2="-187.56" gradientTransform="matrix(1.0486 .091688 -.091688 1.0486 -353.13 367.98)" gradientUnits="userSpaceOnUse">
  <stop stop-color="#212121" offset="0"/>
  <stop stop-color="#b8b8b8" offset=".515"/>
  <stop stop-color="#f2f2f2" offset="1"/>
 </linearGradient>
 <path d="m200.99 524.1c1.739 9.8347 5.64 12.842 18.493 10.569 12.859-2.2705 34.38-6.2926 52.155-9.419 13.694-2.4274 16.184-5.981 14.397-16.138-0.83052-4.7147-12.773-72.364-25.557-144.79-28.785 6.7337-56.981 12.339-84.656 17.155 12.652 71.685 24.368 138.08 25.168 142.62z" fill="url(#w)" stroke-width="1.0526"/>
 <linearGradient id="v" x1="773.5" x2="787.63" y1="91.15" y2="-173.78" gradientTransform="matrix(1.0486 .091688 -.091688 1.0486 -353.13 367.98)" gradientUnits="userSpaceOnUse">
  <stop stop-color="#212121" offset="0"/>
  <stop stop-color="#b8b8b8" offset=".515"/>
  <stop stop-color="#f2f2f2" offset="1"/>
 </linearGradient>
 <path d="m613.69 221.99a146.52 146.52 0 0 1-10.703 6.5747 1350.7 1350.7 0 0 1-63.297 34.213c4.0747 10.844 6.7832 21.362 8.9337 33.224 12.24 67.536-11.128 106.58-70.083 117.14 0 0-50.551 9.0747-55.473 9.939-7.3632 1.2863-11.183-2.6463-12.257-8.68-0.77263-4.3705-8.3884-46.337-16.188-89.311a1226.6 1226.6 0 0 1-85.412 26.844c13.179 72.616 25.665 141.41 26.613 146.77 2.0116 11.32 5.8242 15.209 17.863 13.089 12.038-2.1011 165.27-29.605 165.27-29.605 65.215-11.679 107.72-52.871 120.84-113.01z" fill="url(#v)" stroke-width="1.0526"/>
 <path d="m209.24 171.36c-14.746 2.601-43.072 7.8063-52.163 9.4095-13.139 2.321-15.883 4.4726-13.48 18.079 1.5737 8.9442 17.532 99.359 32.226 182.63 27.675-4.8158 55.871-10.42 84.656-17.155-14.775-83.703-30.675-173.78-31.851-180.47-2.2042-12.476-4.6284-15.094-19.388-12.486zm167.86 57.124c-1.1379-6.4221 1.5242-10.172 9.099-11.503 7.5674-1.3147 63.861-11.44 63.861-11.44 41.759-7.4916 73.7 14.789 90.352 59.106 20.779-10.518 41.155-23.762 62.58-36.082a146.74 146.74 0 0 0 10.703-6.5747l-3.9905-22.496c-34.079-55.214-90.052-81.711-156.15-69.867 0 0-149.24 26.781-162.48 29.107-13.243 2.3179-15.761 5.8726-13.46 18.831 1.5095 8.5253 16.986 93.8 31.609 174.38a1227.2 1227.2 0 0 0 85.412-26.844c-8.3642-46.067-16.939-93.293-17.528-96.613z" fill="#fff" stroke-width="1.0526"/>
 <linearGradient id="u" x1="575.66" x2="605.47" y1="-48.612" y2="43.409" gradientTransform="matrix(1.0486 .091688 -.091688 1.0486 -353.13 367.98)" gradientUnits="userSpaceOnUse">
  <stop stop-color="#f2f2f2" offset="0"/>
  <stop stop-color="#bfbfbf" offset=".491"/>
  <stop stop-color="#9e9e9e" offset="1"/>
 </linearGradient>
 <path d="m286.04 509.12c-0.82842-4.7063-12.734-72.145-25.494-144.44-1.4779 0.34105-2.9547 0.67789-4.4316 1.0179l26.62 150.82c0.31895 1.8126 0.49579 3.4126 0.51895 4.8526 3.4021-2.5242 3.8474-6.2253 2.7863-12.254z" fill="url(#u)" opacity=".55" stroke-width="1.0526"/>
 <linearGradient id="t" x1="769.2" x2="708.47" y1="-113.19" y2="-200.42" gradientTransform="matrix(1.0486 .091688 -.091688 1.0486 -353.13 367.98)" gradientUnits="userSpaceOnUse">
  <stop stop-color="#fafafa" offset="0"/>
  <stop stop-color="#d1d1d1" offset=".491"/>
  <stop stop-color="#adadad" offset="1"/>
 </linearGradient>
 <path d="m421.7 429.55c5.28-0.92631 59.498-10.662 59.498-10.662 63.229-11.324 84.067-54.031 70.942-126.46-2.1095-11.629-5.02-22.04-8.3947-31.702-2.6063 1.3421-1.5084 0.85474-4.1042 2.1695 4.0737 10.844 6.8347 21.248 8.9853 33.112 12.24 67.536-11.128 106.58-70.083 117.14 0 0-50.551 9.0747-55.473 9.939-7.3632 1.2863-11.183-2.6463-12.257-8.68-0.77263-4.3705-8.3884-46.337-16.189-89.311-1.0905 0.38632-2.1779 0.76843-3.2684 1.1516 8.0874 44.554 16.396 89.449 17.198 93.991 1.1547 6.4737 5.2474 10.692 13.146 9.3126z" fill="url(#t)" opacity=".7" stroke-width="1.0526"/>
 <linearGradient id="s" x1="379.3" x2="503.52" y1="-142.05" y2="-133.76" gradientTransform="matrix(1.0486 .091688 -.091688 1.0486 -353.13 367.98)" gradientUnits="userSpaceOnUse">
  <stop stop-color="#1c1c1c" offset="0"/>
  <stop stop-color="#d1d1d1" offset=".515"/>
  <stop stop-color="#f2f2f2" offset="1"/>
 </linearGradient>
 <path d="m160.69 182.84c9.0916-1.6032 37.418-6.8084 52.163-9.4095 5.4358-0.96 9.1947-1.2084 11.889-0.51895-2.6358-2.8126-7.04-3.041-15.501-1.5463-14.746 2.601-43.072 7.8063-52.163 9.4095-13.139 2.321-15.883 4.4726-13.48 18.079 1.5737 8.9442 17.532 99.359 32.226 182.63 1.0463-0.18211 2.099-0.37369 3.1474-0.5579-14.565-82.535-30.206-171.15-31.763-180-2.4021-13.605 0.34211-15.758 13.481-18.079z" fill="url(#s)" stroke-width="1.0526"/>
 <linearGradient id="r" x1="800.13" x2="730.9" y1="-113.34" y2="-186.16" gradientTransform="matrix(1.0486 .091688 -.091688 1.0486 -353.13 367.98)" gradientUnits="userSpaceOnUse">
  <stop stop-color="#fafafa" offset="0"/>
  <stop stop-color="#d1d1d1" offset=".491"/>
  <stop stop-color="#a6a6a6" offset="1"/>
 </linearGradient>
 <path d="m451.31 200.47s-58.134 10.456-65.948 11.814c-7.8242 1.3758-10.572 5.2463-9.3958 11.879 0.60421 3.4158 9.7726 54.199 18.378 101.6l0.23263-0.0832c-8.3621-46.065-16.938-93.291-17.526-96.611-1.139-6.4221 1.5232-10.171 9.0979-11.503 7.5674-1.3147 63.861-11.44 63.861-11.44 41.759-7.4926 73.643 14.201 90.294 58.518 1.4316-0.72526 2.7263-1.419 4.1621-2.1516-17.266-45.222-50.278-69.715-93.155-62.022z" fill="url(#r)" opacity=".9" stroke-width="1.0526"/>
 <linearGradient id="q" x1="525.93" x2="500.11" y1="42.94" y2="-219.07" gradientTransform="matrix(1.0486 .091688 -.091688 1.0486 -353.13 367.98)" gradientUnits="userSpaceOnUse">
  <stop stop-color="#1c1c1c" offset="0"/>
  <stop stop-color="#d1d1d1" offset=".515"/>
  <stop stop-color="#f2f2f2" offset="1"/>
 </linearGradient>
 <path d="m204.63 526.93c-1.0926-5.2747-25.66-146-25.661-146.01h-2e-3c-0.87158 0.12737-1.9442 0.46948-3.0726 0.97474 12.624 71.525 24.297 137.67 25.095 142.21 1.421 8.0347 4.2874 11.511 12.298 11.276-4.1105-0.22842-7.6811-3.7347-8.6568-8.4495z" fill="url(#q)" opacity=".6" stroke-width="1.0526"/>
 <linearGradient id="p" x1="654.63" x2="628.8" y1="56.099" y2="-205.91" gradientTransform="matrix(1.0486 .091688 -.091688 1.0486 -353.13 367.98)" gradientUnits="userSpaceOnUse">
  <stop stop-color="#1c1c1c" offset="0"/>
  <stop stop-color="#b8b8b8" offset=".577"/>
  <stop stop-color="#e0e0e0" offset=".963"/>
 </linearGradient>
 <path d="m339.99 504.32c-1.0905-5.2758-26.985-153.35-26.985-153.35-1.0411 0.15158-2.3674 0.60421-3.7379 1.2874 13.158 72.499 25.609 141.11 26.557 146.46 1.5221 8.5695 4.0811 12.878 10.457 13.546-3.0547-1.1632-5.5074-4.1632-6.2905-7.941z" fill="url(#p)" opacity=".6" stroke-width="1.0526"/>
 <linearGradient id="b" x1="798.6" x2="730.94" y1="-113.13" y2="-184.29" gradientTransform="matrix(1.0486 .091688 -.091688 1.0486 -353.13 367.98)" gradientUnits="userSpaceOnUse">
  <stop stop-color="#fafafa" offset="0"/>
  <stop stop-color="#d1d1d1" offset=".491"/>
  <stop stop-color="#a6a6a6" offset="1"/>
 </linearGradient>
 <path d="m451.9 203.37s-58.135 10.456-65.948 11.815c-7.8232 1.3758-10.571 5.2474-9.3958 11.88 0.60526 3.4147 9.1958 51.363 17.801 98.764l0.23263-0.0811c-8.3621-46.066-16.939-93.292-17.526-96.612-1.1379-6.4232 1.5232-10.172 9.0989-11.503 7.5674-1.3147 63.861-11.44 63.861-11.44 41.758-7.4916 73.641 14.201 90.293 58.518 1.4316-0.72526 0.0568-0.0842 1.4937-0.81684-17.268-45.224-47.034-68.216-89.909-60.524z" fill="url(#b)" stroke-width="1.0526"/>
</svg>
