<svg version="1.1" viewBox="0 0 602.42 800" xmlns="http://www.w3.org/2000/svg">
 <defs>
  <linearGradient id="b" x2="1" gradientTransform="matrix(20.551 -20.287 -20.287 -20.551 284.15 177.84)" gradientUnits="userSpaceOnUse">
   <stop stop-color="#c5a152" offset="0"/>
   <stop stop-color="#f8e98c" offset=".13411"/>
   <stop stop-color="#f8e98c" offset=".16004"/>
   <stop stop-color="#c5a152" offset=".26101"/>
   <stop stop-color="#c5a152" offset=".33099"/>
   <stop stop-color="#c5a152" offset=".33635"/>
   <stop stop-color="#f8e375" offset=".70037"/>
   <stop stop-color="#c5a152" offset=".89399"/>
   <stop stop-color="#c5a152" offset=".91703"/>
   <stop stop-color="#ad823e" offset=".98253"/>
   <stop stop-color="#ad823e" offset="1"/>
  </linearGradient>
  <linearGradient id="a" x2="1" gradientTransform="matrix(43.551 0 0 -43.551 280.61 162.92)" gradientUnits="userSpaceOnUse">
   <stop stop-color="#c5a152" offset="0"/>
   <stop stop-color="#f8e98c" offset=".13411"/>
   <stop stop-color="#f8e98c" offset=".16004"/>
   <stop stop-color="#c5a152" offset=".26101"/>
   <stop stop-color="#c5a152" offset=".33099"/>
   <stop stop-color="#c5a152" offset=".33635"/>
   <stop stop-color="#f8e375" offset=".70037"/>
   <stop stop-color="#c5a152" offset=".89399"/>
   <stop stop-color="#c5a152" offset=".91703"/>
   <stop stop-color="#ad823e" offset=".98253"/>
   <stop stop-color="#ad823e" offset="1"/>
  </linearGradient>
 </defs>
 <g transform="matrix(1.3333,0,0,-1.3333,-374.15,978.43)">
  <g clip-path="url(#clipPath38)">
   <g mask="url(#mask86)">
    <g clip-path="url(#clipPath120)" opacity=".64999">
     <g clip-path="url(#clipPath124)">
      <path d="m379.86 576.7h-9.632v145.05h9.632z" fill="url(#linearGradient132)"/>
     </g>
    </g>
   </g>
  </g>
  <g transform="matrix(10.338,0,0,10.338,-2620.3,-1249.6)">
   <g clip-path="url(#clipPath7932)">
    <path d="m289.78 183.96c-4.01-3.031-7.111-6.345-8.224-9.822-0.569-1.776-0.825-3.632-0.789-5.401 0.045-2.1 0.504-4.102 1.351-5.736 0.932-1.797 2.322-3.166 4.145-3.81 0.113-0.041 0.228-0.078 0.345-0.111v-16.143h4.148v20.259l-2.115-0.048c-0.392-9e-3 -0.747 0.047-1.066 0.161-0.766 0.27-1.381 0.908-1.828 1.768-0.53 1.023-0.82 2.33-0.849 3.745-0.027 1.284 0.162 2.638 0.578 3.938 0.804 2.507 3.355 5.135 6.718 7.677 3.01 2.276 6.665 4.448 10.345 6.409 3.681-1.961 7.335-4.133 10.346-6.409 3.363-2.542 5.915-5.17 6.718-7.677 0.416-1.3 0.605-2.654 0.578-3.938-0.03-1.415-0.318-2.722-0.849-3.745-0.446-0.86-1.062-1.498-1.827-1.768-0.32-0.114-0.675-0.17-1.067-0.161l-2.114 0.048v-16.858l4.147 1.033v11.709c0.117 0.033 0.231 0.07 0.346 0.111 1.822 0.644 3.212 2.013 4.144 3.81 0.847 1.634 1.307 3.636 1.351 5.736 0.037 1.769-0.22 3.625-0.789 5.401-1.113 3.477-4.214 6.791-8.223 9.822-3.77 2.848-8.341 5.477-12.761 7.749-4.419-2.272-8.991-4.901-12.759-7.749m13.127-14.4v-5.319s0.387 2.035 4.25 2.035v4.997s-3.129-0.179-4.25-1.713m-4.985-3.355c3.865 0 4.25-2.035 4.25-2.035v5.32c-1.119 1.533-4.25 1.713-4.25 1.713zm12.478-2.029c-0.214-0.034-0.308-0.526-0.841-1.122-1.359-1.518-4.593-2.081-6.503-2.768-1.258-0.451-2.157-1.043-2.156-3.081l1e-3 -8.544c-0.046-0.47-0.163-0.182-0.287-0.634l6.561-0.014 0.027-1.511-10.19 0.015 0.012 11.507c-2e-3 0.132 0.037 0.647-0.07 0.742-0.095 0.131-0.291-0.298-0.486-0.585-0.621-0.906-2.221-2.08-3.181-2.03l0.047-11.669c4e-3 -0.841 0.031-1.575 0.024-2.304-0.017-1.668-0.214-2.992-1.287-3.723-1.034-0.706-4.494-0.831-5.723 1.169 0.735-3.937 4.932-5.001 7.699-3.552 2.426 1.272 2.856 3.354 2.956 5.807 0.015 0.368 0.023 0.686 0.028 1.07l13.823 0.013-0.142 19.454c-5e-3 0.641-0.052 1.23-0.109 1.542-0.017 0.094 0.024 0.224-0.135 0.224-0.02 0-0.042-1e-3 -0.068-6e-3m-3.621-12.699-2.359 3e-3 -0.01 4.045c-3e-3 1.422 1.026 2.384 2.475 2.521l0.145-6.193c8e-3 -0.298 0.072-0.376-0.245-0.376h-6e-3m7.545-6.247v-2.293h4.147v3.327zm1.075-3.817c-0.094-0.043-0.185-0.087-0.272-0.131-0.088-0.044-0.179-0.094-0.273-0.148-0.093-0.056-0.183-0.103-0.268-0.141-0.086-0.039-0.147-0.066-0.186-0.082l-0.156-0.47-0.257-0.728c-0.076-0.256-0.201-0.577-0.375-0.958-0.173-0.384-0.331-0.738-0.474-1.065-0.143-0.328-0.297-0.677-0.462-1.047-0.165-0.373-0.301-0.643-0.405-0.814-0.104-0.17-0.203-0.324-0.296-0.462 0.093 0.034 0.197 0.07 0.313 0.109 0.115 0.038 0.209 0.075 0.28 0.106l0.9 0.398 0.041 0.348c0.011 0.084 0.025 0.156 0.041 0.217 0.017 0.059 0.036 0.117 0.058 0.172l0.05 0.2h2.4l0.182-0.342 0.231-0.384c0.177-0.295 0.308-0.498 0.396-0.61 0.088-0.11 0.201-0.166 0.339-0.166 0.115-0.011 0.29 0.063 0.524 0.223 0.234 0.159 0.451 0.319 0.655 0.479l-0.066 0.157-0.23 0.04c-0.095 0.017-0.206 0.122-0.339 0.315-0.132 0.192-0.258 0.399-0.38 0.622-0.12 0.223-0.213 0.397-0.276 0.524-0.064 0.126-0.193 0.425-0.392 0.9-0.197 0.472-0.376 0.895-0.532 1.266-0.157 0.371-0.253 0.61-0.289 0.718-0.035 0.107-0.062 0.19-0.078 0.252l-0.09 0.313c-0.034 0.093-0.084 0.153-0.15 0.181-0.036 0.015-0.069 0.023-0.099 0.023-0.024 0-0.046-5e-3 -0.065-0.015m-1.453-3.729 0.859 2.112 0.891-2.104-1.008-0.024zm-14.236 3.664-0.25-0.149-0.992-0.651-0.05-0.042 0.115-0.149c0.051 0.061 0.11 0.091 0.182 0.091 0.071 0 0.125-0.027 0.161-0.082 0.036-0.056 0.062-0.114 0.079-0.177 0.016-0.064 0.032-0.155 0.049-0.273 0.016-0.118 0.032-0.249 0.045-0.392 0.015-0.143 0.021-0.377 0.021-0.701 0-0.208 0.011-0.81 0.033-1.806l-8e-3 -1.658 0.627 0.438 0.26 0.172 0.268 0.182v0.866l-0.042 3.39v0.586l-0.016 0.149c-0.033 0.175-0.125 0.263-0.275 0.263-0.066 0-0.136-0.019-0.207-0.057m3.845-0.054c-0.196-0.058-0.38-0.14-0.554-0.248-0.173-0.107-0.364-0.252-0.573-0.433-0.133-0.126-0.223-0.214-0.272-0.263-0.05-0.051-0.161-0.178-0.334-0.385-0.174-0.206-0.343-0.5-0.508-0.883-0.164-0.381-0.247-0.744-0.247-1.084 0-0.275 0.056-0.55 0.169-0.825 0.113-0.276 0.261-0.529 0.446-0.764 0.183-0.234 0.368-0.431 0.552-0.594 0.185-0.162 0.421-0.341 0.709-0.536 0.289-0.195 0.539-0.344 0.747-0.445 0.209-0.102 0.468-0.211 0.776-0.326s0.538-0.196 0.693-0.24c0.154-0.044 0.424-0.112 0.809-0.206 0.385-0.093 0.711-0.157 0.978-0.19 0.266-0.032 0.576-0.049 0.928-0.049 0.907 0 1.559 0.027 1.955 0.082 0.396 0.056 0.933 0.199 1.609 0.43l0.363 0.122-0.041 0.199c-0.352-0.055-0.68-0.089-0.982-0.102-0.302-0.016-0.724-0.022-1.263-0.022-0.401 0-0.797 0.03-1.188 0.091-0.39 0.06-0.754 0.133-1.092 0.219-0.339 0.085-0.612 0.164-0.822 0.235-0.209 0.072-0.466 0.166-0.771 0.285-0.305 0.118-0.615 0.262-0.928 0.433-0.314 0.171-0.594 0.349-0.842 0.536-0.247 0.187-0.458 0.36-0.631 0.52s-0.326 0.323-0.458 0.491c-0.132 0.167-0.242 0.334-0.33 0.498-0.088 0.165-0.166 0.368-0.235 0.607-0.068 0.24-0.103 0.437-0.103 0.59 0 0.225 9e-3 0.403 0.028 0.533 0.019 0.129 0.098 0.308 0.235 0.536 0.138 0.227 0.422 0.342 0.851 0.342 0.23 0 0.459-0.061 0.685-0.186 0.225-0.123 0.44-0.314 0.642-0.573l0.19-0.256c0.138-0.225 0.251-0.472 0.339-0.742 0.088-0.269 0.132-0.545 0.132-0.825 0-0.309-0.083-0.636-0.248-0.982l-0.14-0.255 0.116-0.084 0.23 0.224 0.034 0.024 0.198 0.198c0.308 0.33 0.521 0.601 0.64 0.813 0.118 0.211 0.19 0.396 0.214 0.557 0.024 0.159 0.039 0.256 0.045 0.289 5e-3 0.032 8e-3 0.063 8e-3 0.09v0.388c-0.032 0.335-0.1 0.629-0.202 0.879-0.102 0.251-0.303 0.542-0.603 0.875-0.299 0.333-0.746 0.498-1.34 0.498-0.215 0-0.419-0.029-0.614-0.086m4.306 0.029c-0.145-0.023-0.331-0.054-0.556-0.099l-0.248-0.24-0.247-0.23-0.248-0.24-0.248-0.239 0.573 0.033 0.549 8e-3v-0.198l0.025-0.198c-5e-3 -0.528-0.011-1.075-0.017-1.64-5e-3 -0.566-8e-3 -1.343-8e-3 -2.327l-0.033-0.635 0.297 0.2 0.289 0.198 0.33 0.223 0.339 0.223-0.042 0.496v3.774h0.206c0.149 0 0.336-0.019 0.562-0.058 0.225-0.039 0.427-0.147 0.606-0.326s0.269-0.383 0.269-0.615c0-0.286-0.155-0.547-0.463-0.783l-0.14-0.083-0.528-0.28c0.082-0.226 0.169-0.438 0.26-0.636 0.09-0.198 0.259-0.5 0.503-0.907s0.468-0.729 0.668-0.966c0.201-0.236 0.378-0.354 0.533-0.354 0.059 0 0.123 0.016 0.189 0.049l0.05 0.033 0.817 0.528 0.198 0.123-0.141 0.133c-0.044-0.011-0.077-0.016-0.099-0.016-0.065 0-0.148 0.049-0.247 0.147-0.099 0.1-0.217 0.239-0.355 0.418-0.137 0.178-0.221 0.29-0.252 0.337-0.03 0.047-0.069 0.11-0.119 0.186l-0.28 0.438-0.289 0.445-0.067 0.091-0.139 0.215 0.148 0.082 0.379 0.288c0.198 0.182 0.343 0.358 0.433 0.529 0.091 0.171 0.137 0.343 0.137 0.52 0 0.325-0.122 0.589-0.363 0.796-0.242 0.206-0.483 0.346-0.723 0.422-0.239 0.073-0.481 0.119-0.726 0.139-0.244 0.019-0.694 0.029-1.349 0.029-0.143 0-0.287-0.012-0.433-0.033" fill="url(#b)"/>
   </g>
   <g clip-path="url(#clipPath7970)">
    <path d="m289.63 184.11c-4.011-3.031-7.111-6.345-8.225-9.822-0.568-1.774-0.825-3.631-0.788-5.4 0.044-2.101 0.504-4.102 1.35-5.736 0.933-1.798 2.323-3.167 4.145-3.811 0.113-0.039 0.229-0.076 0.345-0.111v-16.142h4.148v20.259l-2.114-0.049c-0.392-8e-3 -0.747 0.048-1.067 0.161-0.766 0.271-1.381 0.908-1.828 1.768-0.53 1.024-0.819 2.331-0.848 3.746-0.027 1.283 0.162 2.637 0.577 3.937 0.804 2.509 3.356 5.137 6.719 7.678 3.009 2.276 6.664 4.449 10.345 6.408 3.681-1.959 7.335-4.132 10.345-6.408 3.363-2.541 5.915-5.169 6.719-7.678 0.415-1.3 0.604-2.654 0.577-3.937-0.029-1.415-0.318-2.722-0.848-3.746-0.447-0.86-1.062-1.497-1.828-1.768-0.32-0.113-0.675-0.169-1.067-0.161l-2.114 0.049v-16.858l4.148 1.033v11.708c0.116 0.035 0.232 0.072 0.345 0.111 1.822 0.644 3.213 2.013 4.144 3.811 0.847 1.634 1.307 3.635 1.351 5.736 0.037 1.769-0.22 3.626-0.788 5.4-1.114 3.477-4.214 6.791-8.224 9.822-3.769 2.849-8.341 5.477-12.76 7.749-4.42-2.272-8.991-4.9-12.759-7.749m13.127-14.398v-5.321s0.386 2.035 4.249 2.035v4.999s-3.129-0.181-4.249-1.713m-4.985-3.356c3.864 0 4.249-2.036 4.249-2.036v5.322c-1.119 1.531-4.249 1.711-4.249 1.711zm12.478-2.028c-0.215-0.034-0.309-0.527-0.842-1.122-1.359-1.519-4.593-2.082-6.503-2.769-1.257-0.452-2.157-1.044-2.156-3.082l2e-3 -8.544c-0.047-0.469-0.164-0.181-0.287-0.633l6.56-0.013 0.027-1.513-10.189 0.015 0.011 11.508c-1e-3 0.132 0.038 0.646-0.069 0.741-0.096 0.132-0.292-0.298-0.487-0.585-0.621-0.906-2.221-2.079-3.181-2.03l0.047-11.669c4e-3 -0.839 0.031-1.574 0.024-2.303-0.016-1.669-0.214-2.992-1.286-3.724-1.035-0.705-4.495-0.83-5.724 1.171 0.736-3.938 4.933-5.003 7.7-3.554 2.425 1.272 2.856 3.355 2.955 5.807 0.015 0.369 0.023 0.686 0.028 1.07l13.824 0.015-0.143 19.453c-5e-3 0.641-0.052 1.23-0.108 1.542-0.018 0.095 0.024 0.225-0.137 0.225-0.019 0-0.041-2e-3 -0.066-6e-3m-5.981-12.697-9e-3 4.044c-4e-3 1.423 1.026 2.385 2.474 2.523l0.146-6.195c8e-3 -0.3 0.071-0.376-0.251-0.376zm9.904-6.25v-2.293h4.148v3.326zm1.075-3.817c-0.094-0.044-0.185-0.088-0.272-0.132-0.088-0.044-0.179-0.094-0.273-0.148-0.093-0.054-0.183-0.102-0.268-0.141-0.085-0.038-0.147-0.066-0.185-0.082l-0.157-0.47-0.256-0.726c-0.077-0.257-0.202-0.579-0.376-0.96-0.173-0.383-0.331-0.737-0.474-1.065-0.142-0.326-0.297-0.677-0.462-1.047-0.165-0.371-0.3-0.643-0.405-0.813-0.104-0.171-0.202-0.325-0.296-0.462 0.094 0.034 0.197 0.069 0.313 0.108s0.209 0.075 0.28 0.108l0.9 0.397 0.042 0.348c0.01 0.084 0.024 0.155 0.04 0.216 0.017 0.061 0.037 0.118 0.059 0.173l0.049 0.2h2.4l0.182-0.343 0.231-0.383c0.177-0.295 0.308-0.499 0.396-0.61 0.089-0.111 0.201-0.166 0.339-0.166 0.115-0.012 0.29 0.064 0.524 0.223 0.234 0.158 0.452 0.319 0.656 0.478l-0.067 0.157-0.23 0.042c-0.094 0.016-0.206 0.121-0.339 0.313-0.132 0.193-0.258 0.401-0.379 0.623-0.121 0.223-0.213 0.398-0.277 0.524-0.063 0.127-0.193 0.426-0.391 0.899s-0.376 0.895-0.533 1.266c-0.157 0.372-0.253 0.611-0.289 0.718-0.035 0.107-0.061 0.192-0.077 0.252l-0.091 0.313c-0.034 0.094-0.083 0.155-0.15 0.182-0.036 0.015-0.07 0.023-0.1 0.023-0.023 0-0.045-5e-3 -0.064-0.015m-1.452-3.729 0.858 2.112 0.891-2.103-1.007-0.026zm-14.237 3.664-0.25-0.149-0.992-0.652-0.05-0.041 0.116-0.148c0.05 0.06 0.11 0.091 0.181 0.091s0.126-0.028 0.161-0.084c0.036-0.054 0.062-0.114 0.079-0.177 0.016-0.063 0.033-0.153 0.049-0.272 0.016-0.118 0.033-0.249 0.045-0.393 0.015-0.142 0.022-0.376 0.022-0.701 0-0.207 0.01-0.81 0.032-1.805l-8e-3 -1.659 0.627 0.438 0.26 0.172 0.268 0.182v0.867l-0.041 3.39v0.585l-0.017 0.149c-0.033 0.176-0.125 0.264-0.275 0.264-0.066 0-0.136-0.02-0.207-0.057m3.845-0.054c-0.196-0.058-0.379-0.141-0.554-0.248-0.173-0.108-0.363-0.251-0.572-0.433-0.133-0.127-0.223-0.215-0.273-0.264-0.049-0.049-0.161-0.177-0.334-0.383-0.174-0.207-0.343-0.501-0.507-0.884-0.165-0.382-0.248-0.743-0.248-1.085 0-0.275 0.057-0.55 0.169-0.825 0.114-0.275 0.261-0.529 0.446-0.763 0.184-0.234 0.369-0.432 0.552-0.594 0.185-0.163 0.422-0.342 0.71-0.537 0.289-0.194 0.538-0.344 0.747-0.445s0.468-0.21 0.775-0.325c0.308-0.116 0.539-0.197 0.693-0.241s0.424-0.112 0.809-0.206c0.385-0.093 0.711-0.155 0.978-0.189 0.266-0.033 0.576-0.05 0.928-0.05 0.908 0 1.559 0.028 1.955 0.084 0.396 0.054 0.933 0.198 1.61 0.428l0.362 0.124-0.041 0.197c-0.352-0.055-0.68-0.089-0.982-0.102-0.302-0.014-0.723-0.021-1.262-0.021-0.402 0-0.798 0.031-1.189 0.091-0.39 0.06-0.754 0.133-1.092 0.219-0.339 0.085-0.612 0.163-0.821 0.234-0.209 0.072-0.466 0.167-0.771 0.286-0.306 0.118-0.616 0.262-0.929 0.433-0.313 0.17-0.594 0.349-0.842 0.536-0.247 0.186-0.458 0.36-0.63 0.519-0.174 0.16-0.327 0.323-0.459 0.492-0.132 0.167-0.242 0.334-0.33 0.499-0.087 0.165-0.166 0.367-0.235 0.606-0.068 0.239-0.103 0.436-0.103 0.59 0 0.225 0.01 0.404 0.028 0.532 0.02 0.129 0.099 0.308 0.236 0.537 0.138 0.228 0.421 0.343 0.85 0.343 0.23 0 0.459-0.063 0.685-0.187 0.226-0.123 0.44-0.315 0.643-0.574l0.189-0.255c0.138-0.225 0.251-0.473 0.339-0.742 0.089-0.27 0.132-0.546 0.132-0.825 0-0.308-0.082-0.636-0.248-0.982l-0.14-0.256 0.116-0.083 0.231 0.223 0.033 0.025 0.198 0.199c0.308 0.329 0.521 0.6 0.64 0.811 0.118 0.213 0.19 0.398 0.214 0.558 0.025 0.159 0.04 0.255 0.045 0.288 5e-3 0.034 9e-3 0.063 9e-3 0.091v0.388c-0.033 0.335-0.101 0.628-0.202 0.879-0.102 0.25-0.303 0.541-0.603 0.874s-0.747 0.499-1.341 0.499c-0.214 0-0.419-0.029-0.614-0.086m4.306 0.028c-0.145-0.021-0.331-0.054-0.556-0.099l-0.248-0.239-0.247-0.231-0.248-0.24-0.247-0.238 0.573 0.032 0.548 9e-3v-0.198l0.026-0.198c-6e-3 -0.528-0.011-1.075-0.017-1.64-5e-3 -0.567-9e-3 -1.342-9e-3 -2.327l-0.032-0.635 0.296 0.199 0.289 0.198 0.33 0.224 0.339 0.222-0.041 0.497v3.774h0.206c0.149 0 0.335-0.019 0.561-0.058s0.427-0.148 0.607-0.326c0.178-0.179 0.268-0.384 0.268-0.615 0-0.286-0.154-0.547-0.463-0.784l-0.139-0.082-0.529-0.281c0.082-0.225 0.17-0.438 0.261-0.635 0.09-0.198 0.258-0.501 0.503-0.908 0.244-0.407 0.467-0.729 0.667-0.964 0.201-0.238 0.378-0.356 0.533-0.356 0.06 0 0.123 0.016 0.19 0.049l0.05 0.034 0.816 0.528 0.198 0.123-0.141 0.133c-0.044-0.012-0.076-0.017-0.099-0.017-0.065 0-0.148 0.049-0.247 0.149-0.099 0.099-0.217 0.238-0.355 0.416-0.137 0.179-0.221 0.292-0.252 0.339-0.029 0.047-0.069 0.108-0.119 0.186l-0.28 0.437-0.289 0.445-0.067 0.091-0.139 0.214 0.148 0.083 0.379 0.289c0.199 0.18 0.343 0.357 0.434 0.528s0.136 0.343 0.136 0.52c0 0.324-0.121 0.589-0.363 0.795s-0.483 0.347-0.722 0.422c-0.24 0.073-0.481 0.121-0.726 0.14s-0.695 0.029-1.349 0.029c-0.143 0-0.287-0.011-0.434-0.034" fill="url(#a)"/>
   </g>
  </g>
 </g>
</svg>
