<svg width="800" height="767.44" clip-rule="evenodd" fill-rule="evenodd" image-rendering="optimizeQuality" shape-rendering="geometricPrecision" text-rendering="geometricPrecision" version="1.1" viewBox="0 0 2400 2208.6" xml:space="preserve" xmlns="http://www.w3.org/2000/svg">
 <g transform="translate(0,-48.85)" fill="#139edf">
  <path d="m1197.4 0-1197.4 1180.9 362.95 379.23v433.52h444.38l395.26 308.67 384.91-308.67h444.13v-433.52l368.37-379.23zm12.33 333.1 869.5 853.7-266.23 274.12v313.35h-321.25l-278.06 223.3-285.96-223.3h-321.01v-313.35l-262.52-274.12 865.55-853.7z"/>
  <path d="m1207.9 398.15-203.33 199.77 306.21 281.28c63.767 58.598 109.46 120.04 138.58 164.99 0.097 0.1447 0.1447 0.353 0.24 0.4824 10.244 14.77 19.122 30.375 26.651 46.895 0.048 0.08 0.2095 0.1448 0.2412 0.2412 1.1249 2.4404 2.1674 4.929 3.2111 7.3999 27.935 60.527 28 103.63 23.696 128.05-0.015 0.08 0 0.1765 0 0.2412-5.3784 162.95-139.24 293.62-303.5 293.62-167.64 0-303.72-131.3-303.72-298.95 0-129.69 121.08-263.42 216.46-345.14l-207.1-183.54c-157.4 149.6-305.2 296.91-305.2 523.9 0 331.08 268.5 599.57 599.56 599.57 331.06 0 599.82-268.5 599.82-599.57 0-166.53-67.91-317.38-177.64-426.1l0.7401-0.73776-414.92-392.39v-1e-3z"/>
 </g>
</svg>
