<svg width="2400px" height="2100px" clip-rule="evenodd" fill="#FCBA04" fill-rule="evenodd" image-rendering="optimizeQuality" shape-rendering="geometricPrecision" text-rendering="geometricPrecision" version="1.1" viewBox="0 0 2400 2254.7" xml:space="preserve" xmlns="http://www.w3.org/2000/svg">
 <path d="m2220.5 1364.1c0 72.799-275.37 327.74-438.45 421.9-231.71 133.78-617.4 191.89-884.73 121.21 188.84 348.81 641.25 413.15 854.7 289.91 270-155.89 646.48-594.02 647.94-924.19 2.2349-115.27-177.53-339.26-432.81-624.85-255.28-285.6-626.93-646.29-704.03-648.06-42.78 78.411-39.146 255.56 1.687 312.24 161.16 223.7 955.7 972.61 955.7 1051.8z"/>
 <path d="m967.13 2184.6c-196.03-198.02-801.64-745.89-801.64-863.58 0-49.21 573.21-722.27 1318.7-557.13-227.76-390.04-665.8-390.32-940.51-219.7-274.71 170.63-543.69 649.08-543.69 794.5 0 200.94 56.691 350.46 259.96 553.73 203.27 203.27 446.99 498.01 707.17 292.18z"/>
 <path d="m1179.6 958.98c65.593 0.04686 170.65-133.37 229.39-105.08 58.74 28.285 21.366 196.02 60.869 244.86 40.858 51.309 210.67 50.268 225.18 113.83 14.51 63.559-139.94 138.92-153.49 200.25-14.638 63.94 92.052 196.06 51.404 247.02-40.648 50.972-195.86-22.791-252.27 4.8542-59.117 28.418-95.886 194.2-161.08 194.2-65.196 0-104.3-167.34-161.08-194.2-59.077-28.502-211.62 46.117-252.27-4.8542-40.644-50.972 65.807-185.88 51.408-247.02-14.553-63.958-168-136.7-153.5-200.25 14.512-63.56 186.36-64.448 225.18-113.83 40.933-51.254 2.1279-216.58 60.868-244.86 58.74-28.29 166.58 105.51 229.39 105.08zm0 94.608c49.901 0.034845 129.83-101.46 174.51-79.943 44.686 21.518 16.253 149.13 46.304 186.28 31.086 39.033 160.27 38.243 171.31 86.595 11.04 48.356-106.46 105.69-116.77 152.35-11.137 48.644 70.029 149.15 39.108 187.93-30.925 38.776-149.01-17.339-191.92 3.6911-44.975 21.619-72.945 147.74-122.54 147.74-49.598 0-79.35-127.31-122.54-147.74-44.942-21.682-160.99 35.085-191.92-3.6911-30.922-38.78 50.063-141.41 39.108-187.93-11.071-48.655-127.81-103.99-116.77-152.35 11.04-48.352 141.77-49.03 171.31-86.595 31.142-38.992 1.6185-164.77 46.305-186.28 44.689-21.521 126.73 80.27 174.51 79.943z"/>
 <path d="m1307.4 1336a127.77 127.77 0 0 1-127.77 127.77 127.77 127.77 0 0 1-127.77-127.77 127.77 127.77 0 0 1 127.77-127.77 127.77 127.77 0 0 1 127.77 127.77z"/>
 <path d="m1172.4 1068.6h14.422v148.6h-14.422z"/>
 <path transform="matrix(-2.1947 2.7521 -.50813 -.40522 1089.5 1257.1)" d="m0 0h4.0972v228.64h-4.0972z"/>
 <path transform="matrix(.78328 3.4318 -.63363 .14462 1060 1358.1)" d="m0 0h4.0972v228.64h-4.0972z"/>
 <path transform="matrix(3.1714 1.5273 -.28199 .58556 1120.6 1444.1)" d="m0 0h4.0972v228.64h-4.0972z"/>
 <path transform="matrix(3.1714 -1.5273 .28199 .58556 1225.6 1450.4)" d="m0 0h4.0972v228.64h-4.0972z"/>
 <path transform="matrix(.78328 -3.4318 .63363 .14462 1296 1372.2)" d="m0 0h4.0972v228.64h-4.0972z"/>
 <path transform="matrix(-2.1947 -2.7521 .50813 -.40522 1278.7 1268.4)" d="m0 0h4.0972v228.64h-4.0972z"/>
</svg>
