<svg width="2400px" height="2100px" clip-rule="evenodd" fill-rule="evenodd" image-rendering="optimizeQuality" shape-rendering="geometricPrecision" text-rendering="geometricPrecision" version="1.1" viewBox="0 0 2400 2092.4" xml:space="preserve" xmlns="http://www.w3.org/2000/svg" xmlns:xlink="http://www.w3.org/1999/xlink">
 <defs>
  <style type="text/css">
   <![CDATA[
    .fil0 {fill:#0099FF}
   ]]>
  </style>
 <linearGradient id="a" x1="1207.7" x2="1195" y1="-10.538" y2="1895.4" gradientUnits="userSpaceOnUse"><stop stop-color="#996a0d" offset="0"/><stop stop-color="#f0cc30" offset="1"/></linearGradient></defs>
 
  
  <path class="fil0" d="m1420.2 0.0125c-181.94 64.611-399.99 292.97-437.45 656.17-45.155-48.842-62.633-125.36-59.654-218.72-100.52 94.664-124.04 280.78-99.42 417.56-38.909-26.786-65.353-91.569-73.402-138.12v-0.00391c-83.748 74.988-200.68 388.56-62.074 803.2 78.503 234.84 269.56 420.57 521.43 448.64l0.4356 0.0937c73.671-59.439 239.47-284.12 236.2-592.02-4.2897-403.16-390.65-807.06-26.066-1376.8zm287.25 563.92c-198.75 2.3345-307.1 153.76-307.1 267.21 0 184.76 79.535 282.23 79.535 605.96 0 180.11-110.66 452.86-231.01 534.8l0.0117-2e-3 0.5117-0.0058c9.4748 0.437 18.998 0.6875 28.58 0.6875 5.7888 0 11.51-0.2754 17.26-0.4356-31.403 3.3037-63.129 5.3399-95.256 5.3399-587.42 0-1063.8-584.17-1063.8-584.17s184.55-226.26 465.53-397.16l-0.02148-0.01953c5.5451-48.797 20.49-100.93 41.256-147.8-382.19 205.84-642.96 544.99-642.96 544.99s537.37 699.07 1200 699.07c662.63 0 1200-699.07 1200-699.07s-263.78-343.09-649.57-548.56c3.985 39.097 38.826 106.3 61.949 160.04l-0.0215 0.0156c273.04 169.78 451.44 388.5 451.44 388.5s-310.91 381.05-740.03 527.58c214.67-94.595 364.65-309.13 364.65-558.74 0-108.28-28.246-209.96-77.713-298.14-75.789-173.58-162.6-308.16-12.574-491.42-32.03-6.2972-62.268-9.0073-90.66-8.6738z" fill="url(#a)"/>
  
  
 
</svg>
