<svg version="1.1" viewBox="0 0 458.42 800" xmlns="http://www.w3.org/2000/svg">
 <path d="m292.7 507.79q-58.732-171.54-116.01-345.41-0.50944-1.5284-1.8922-0.72779-0.36389 0.21834-0.655 0.58223-0.58223 0.58223-0.50945 1.31c9.534 118.05-10.335 222.56-45.123 333.32q-22.125 70.595-16.812 147.67c2.1106 30.349 15.138 57.786 21.178 87.479a17.176 17.176 0 0 1-14.119 20.378q-8.8062 1.3828-16.593-4.5122-125.91-95.412-96.65-254.51c14.265-77.654 50.071-151.67 82.676-226.05 36.899-84.059 43.376-171.32 37.845-261.86a5.1673 5.0945 0.4 0 1 5.6039-5.4584q5.0217 0.43667 6.6228 5.0217 83.258 242.06 169.06 494.16c3.7117 11.062 8.9517 19.359 19.577 24.963q28.529 14.847 43.885 41.265a2.1106 2.1106 0 0 0 3.7845-0.36389q19.505-54.001-14.992-95.267a12.445 12.591 22.4 0 1-2.9839-7.2778q-0.72779-9.6067 4.5122-13.828 9.6795-7.7873 19.141 0.29112c63.608 53.856 58.15 154.51 7.7873 214.99-12.227 14.628-14.847 35.079-7.5689 52.91q10.626 25.836 16.666 51.6 1.7467 7.205-4.585 3.4206l-4.1484-2.5472q-7.6417-4.585-10.844-12.882l-11.499-29.475q-2.2561-5.8223-6.0406-0.87334c-13.173 17.176-26.491 33.696-43.812 46.578q-59.096 44.031-137.77 17.03a8.0784 8.0056 18.3 0 1-5.0945-10.043q1.0917-3.275 3.1295-6.0406 6.55-8.5878 17.03-6.2589 78.601 17.467 113.32-61.643a2.1106 2.1106 0 0 0-2.3289-2.9111c-67.32 11.353-123.21-35.661-116.74-104.8 4.8034-51.309 50.071-86.242 101.53-85.514q5.0945 0.0728 3.4206-4.7306z" fill="#228fdc" stroke-width="7.2778"/>
 <path d="m458.42 320.24a79.474 79.474 0 0 1-79.474 79.474 79.474 79.474 0 0 1-79.474-79.474 79.474 79.474 0 0 1 79.474-79.474 79.474 79.474 0 0 1 79.474 79.474z" fill="#228fdc" stroke-width="7.2778"/>
</svg>
