<svg width="2400px" height="2100px" clip-rule="evenodd" fill-rule="evenodd" image-rendering="optimizeQuality" shape-rendering="geometricPrecision" text-rendering="geometricPrecision" version="1.1" viewBox="0 0 2370.3 2019.6" xml:space="preserve" xmlns="http://www.w3.org/2000/svg">
 <g fill="#00a03b">
  <path class="fil0" d="m1526.8 1009.7a341.61 341.61 0 0 1-341.61 341.61 341.61 341.61 0 0 1-341.61-341.61 341.61 341.61 0 0 1 341.61-341.61 341.61 341.61 0 0 1 341.61 341.61z" stroke-width="15.372"/>
  <path class="fil0" d="m1185.3 1494.8c515.08 0 692.4-649.46 1185-649.46v524.72c-489.99 0-669.99 649.46-1185.3 649.46l0.31861-524.72z"/>
  <path class="fil0" d="m1185 524.72c-515.09 0-692.41 649.46-1185 649.46v-524.73c489.99 0 669.99-649.46 1185.3-649.46l-0.31251 524.72z"/>
 </g>
</svg>
