<svg width="800" height="784.19" version="1.1" viewBox="0 0 800 784.19" xmlns="http://www.w3.org/2000/svg">
 <g fill="#ffcc05" stroke-width="25.834">
  <path d="m400.9 0.011763c-3.4901 0-6.9811 0.56117-10.334 1.6836-77.502 20.926-180.84 66.911-237.93 167.4-20.929 35.892-32.893 76.302-34.876 117.8v26.465h27.311v-30.834c0-7.8255 3.0093-186.9 254.93-258.55 251.01 71.632 254.93 256.43 254.93 258.24v31.133h27.311v-26.207c-1.9014-41.677-13.868-82.275-34.878-118.32-55.543-100.49-159.41-146.48-236.12-167.15-3.3529-1.1224-6.8419-1.6836-10.332-1.6836z"/>
  <path d="m117.78 622.98v119.12h80.33v-27.312h-53.022v-91.807zm537.16 0v91.807h-53.014v27.312h80.328v-119.12z"/>
 </g>
 <g fill="#fff">
  <g fill="#fff">
   <path class="cls-1" d="m185.81 402.38h-61.564a14.941 14.941 0 0 1-14.829-14.941v-2.5839a14.829 14.829 0 0 1 14.829-14.829h99.087v-35.051h-99.087a50.106 50.106 0 0 0-50.106 50.106v2.1346a50.106 50.106 0 0 0 50.106 50.106h61.564a14.38 14.38 0 1 1 0 28.648h-136.04a14.829 14.829 0 0 1-14.829-14.717v-112.34h-34.939v112.34a50.33 50.33 0 0 0 49.769 49.769h133.46a51.454 51.454 0 0 0 52.015-44.937 49.656 49.656 0 0 0-49.432-53.701" stroke-width="11.234"/>
   <path class="cls-1" d="m592.28 336.22c-27.673 0-50.106 22.433-50.106 50.106v67.406c-0.0607 8.1646-6.6648 14.768-14.829 14.829h-23.929v-82.236c0-27.673-22.433-50.106-50.106-50.106h-105.82v34.826h105.37c8.3414 0.0605 15.018 6.9392 14.829 15.278v11.234h-73.36c-27.673 0-50.106 22.433-50.106 50.106l-1.9e-4 19.885h-24.828c-8.2082-0.0618-14.829-6.7333-14.829-14.941v-168.97h-34.939v169.76c-6.2e-4 27.541 22.227 49.92 49.769 50.106h207.95c27.804 0.18705 50.444-22.3 50.443-50.106v-67.406c0.0607-8.1646 6.6648-14.768 14.829-14.828h63.474v130.31h34.377v-130.31l60.441-3.9e-4c8.1646 0.0611 14.768 6.6642 14.829 14.828v115.37h34.265v-115.49c-0.0562-27.398-22.258-49.594-49.656-49.656zm-215.37 112.34c0.0607-8.1646 6.6648-14.768 14.829-14.829h72.911v34.826h-87.741z" stroke-width="11.234"/>
   <path class="cls-1" d="m29.221 310.92c10.811-10.74 3.2076-29.19-12.034-29.19-9.3872-2e-4 -17.015 7.5769-17.077 16.964-0.099986 15.24 18.299 22.967 29.111 12.226z" stroke-width="11.234"/>
   <path class="cls-1" d="m134.7 554.73c-5.1457 0-9.1089 1.657-12.133 5.1678-3.2192 3.9884-4.4937 9.0398-4.4937 14.155 0 12.028 6.0743 18.275 16.56 18.421 4.5956 0 7.5268-0.43414 11.414-1.9061v6.067c-3.7525 1.4893-7.4203 1.8933-11.414 1.8933-4.4973 0-9.3839-1.2044-13.076-3.3537-3.2814-2.0269-5.8677-5.005-7.4146-8.5381-1.6552-4.1801-2.3592-7.3759-2.3592-13.144 0-5.4359 0.74903-8.7211 2.5839-12.694 1.6776-3.6182 4.4216-6.6367 7.864-8.6505 3.776-2.2057 6.9614-3.1456 12.47-3.1456 5.642 0 9.1231 0.83401 13.256 2.8086l-2.608 5.1919c-3.5343-1.8694-7.0931-2.2661-10.648-2.271z" stroke-width="11.234"/>
   <path class="cls-1" d="m233.22 550.12v19.773h-23.592v-19.773h-6.0666v47.858h6.0666v-21.907h23.592v21.907h6.0666v-47.858z" stroke-width="11.234"/>
   <path class="cls-1" d="m328.61 597.98-5.6172-14.604h-18.762l-5.6172 14.604h-6.0666l18.649-48.083h5.5049l18.649 48.083zm-7.527-20.222-7.6393-21.683-7.527 21.683z" stroke-width="11.234"/>
   <path class="cls-1" d="m425.78 597.98h-6.9653l-25.502-39.769v39.769h-5.6175v-47.858h6.9653l25.502 39.545v-39.545h5.6172z" stroke-width="11.234"/>
   <path class="cls-1" d="m522.51 597.98h-6.9653l-25.502-39.769v39.769h-5.6175v-47.858h6.9653l25.502 39.545v-39.545h5.6172z" stroke-width="11.234"/>
   <path class="cls-1" d="m581.71 597.53h26.289v-5.2802l-20.334 4.3e-4v-16.177h19.099v-5.1678h-19.099v-15.503h20.784v-5.2802h-26.738z" stroke-width="11.234"/>
   <path class="cls-1" d="m665.19 550.12v47.408h26.513v-5.3925h-20.11v-42.016z" stroke-width="11.234"/>
   <path transform="matrix(1.9501 0 0 -1.9501 -1553.9 953.28)" d="m910.06 139.61v5.5066h48.336v-5.5066h-9.0227v-52.895l-2.8481 1.9002c-1.0788 2.7849-2.478 5.4073-4.2022 7.8582-1.7242 2.4554-3.6876 4.6535-5.8857 6.5989-2.2026 1.9499-4.5903 3.6019-7.1721 4.965-2.5818 1.3586-5.2629 2.3426-8.0478 2.9429l-7.312 8.9234c2.4058 2.5005 4.7573 4.6942 7.0502 6.5763 2.2974 1.8822 4.6219 3.5071 6.9826 4.8702 2.3561 1.3586 4.8025 2.4825 7.3346 3.3717 2.5321 0.88466 5.2674 1.5662 8.2148 2.0402v2.8481zm33.428-10.684c-1.3631-0.0632-2.7533-0.32498-4.1796-0.78086-1.4263-0.46038-2.8165-1.0381-4.1796-1.7332-1.3586-0.69961-2.672-1.4669-3.9404-2.3064-1.2638-0.83502-2.4193-1.6746-3.4664-2.5141-1.0426-0.83953-1.9454-1.6475-2.7036-2.4238-0.7628-0.77634-1.3315-1.4128-1.7107-1.9228 1.3902-0.53712 2.997-1.3135 4.8205-2.3245 1.819-1.0156 3.6605-2.2658 5.5292-3.7508 1.8686-1.4895 3.665-3.2137 5.3892-5.1771s3.2047-4.1751 4.4414-6.644z"/>
   <path d="m313.21 681.03v-10.738h16.662v-19.998l11.486 10.272v9.726h17.595v10.738h-17.595v103.15l-11.486-7.4112v-95.737z" stroke-width="1.9501"/>
   <path transform="matrix(1.9501 0 0 -1.9501 -1553.9 953.28)" d="m987.12 117.91c1.9318-0.6635 3.972-1.6791 6.125-3.0377 2.153-1.3631 4.3195-3.2543 6.5041-5.6736 2.1845-2.4238 4.3285-5.4615 6.4364-9.1175 2.1033-3.656 4.0712-8.1109 5.9083-13.365l-2.8481 1.9002c-1.0156 1.9273-2.1756 3.7869-3.489 5.5788-1.3135 1.7874-2.7217 3.471-4.2248 5.0552-1.5075 1.5798-3.0737 3.0467-4.7032 4.3917-1.6294 1.345-3.2362 2.5231-4.8205 3.5387-1.5798 1.011-3.1144 1.8596-4.6039 2.5366-1.4895 0.68155-2.8661 1.151-4.13 1.4037zm-0.42879 13.387c0 1.5527 0.28435 3.0106 0.85758 4.3692 0.56872 1.3631 1.3496 2.5547 2.3471 3.5838s2.162 1.837 3.4935 2.4238c1.327 0.58677 2.7533 0.88015 4.2699 0.88015 1.5211 0 2.9428-0.29338 4.2743-0.88015 1.3316-0.58677 2.4915-1.3947 3.4891-2.4238 0.9975-1.0291 1.7873-2.2207 2.3741-3.5838 0.5868-1.3586 0.8802-2.8165 0.8802-4.3692 0-1.5482-0.2934-3.0061-0.8802-4.3646-0.5868-1.3631-1.3766-2.5592-2.3741-3.5883-0.9976-1.0291-2.1575-1.8325-3.4891-2.4193-1.3315-0.58677-2.7533-0.88016-4.2743-0.88016-1.5166 0-2.9429 0.29339-4.2699 0.88016-1.3315 0.58677-2.496 1.3902-3.4935 2.4193-0.99751 1.0291-1.7784 2.2252-2.3471 3.5883-0.57323 1.3586-0.85758 2.8165-0.85758 4.3646m5.0823-4.0352c0.25276-0.41074 0.6635-0.72669 1.2322-0.94786 0.57323-0.22117 1.2187-0.33401 1.9499-0.33401 0.72669 0 1.485 0.12187 2.2794 0.35658 0.78988 0.23922 1.5798 0.5958 2.3742 1.0697 1.2007 0.75829 2.1124 1.652 2.7263 2.6811 0.6183 1.0291 0.9298 1.9724 0.9298 2.8255 0 0.53712-0.1129 0.97945-0.3341 1.3315-0.2527 0.44234-0.6725 0.77183-1.2592 0.99751-0.5868 0.22117-1.2413 0.32949-1.968 0.32949-0.69961 0-1.4263-0.10381-2.1846-0.30692-0.76279-0.20763-1.503-0.54615-2.2342-1.0201-1.2322-0.76279-2.1846-1.6791-2.8481-2.7533-0.6635-1.0788-0.99751-2.0582-0.99751-2.9474 0-0.53712 0.11284-0.96591 0.33401-1.2819"/>
   <path transform="matrix(1.9501 0 0 -1.9501 -1553.9 953.28)" d="m1062.3 139.61v-52.895l-5.8857 3.8005v23.881c-0.2844 0.72669-0.659 1.5211-1.1194 2.3742-0.4559 0.85759-0.9885 1.6565-1.5888 2.3967-0.6003 0.74474-1.2503 1.3721-1.9454 1.8776-0.6996 0.50553-1.4263 0.75829-2.1846 0.75829-0.8259 0-1.5662-0.23019-2.2342-0.68607-0.6635-0.46039-1.2412-1.0291-1.7332-1.7106-0.4875-0.68156-0.8937-1.4308-1.2097-2.2568-0.3159-0.82147-0.5371-1.5978-0.6635-2.3245h-2.3741c-0.8215 1.2954-1.6294 2.3877-2.4238 3.2769-0.7899 0.88467-1.6204 1.6068-2.4915 2.1575-0.8712 0.55517-1.8055 0.95237-2.7985 1.1871-0.9975 0.23922-2.0988 0.35657-3.3039 0.35657-0.8847 0-1.8416-0.1986-2.8707-0.59128-1.0291-0.3972-1.9769-0.97494-2.8481-1.7332-0.8711-0.7628-1.5978-1.6926-2.1845-2.8029-0.5868-1.1058-0.8802-2.3561-0.8802-3.7508 0-1.0742 0.1444-2.0086 0.4288-2.803 0.2844-0.78988 0.6229-1.4714 1.0201-2.0402 0.3972-0.56871 0.8079-1.0291 1.2367-1.3766 0.4243-0.34754 0.7673-0.61836 1.0201-0.80793-0.5055 1.1419-0.7583 2.2162-0.7583 3.2317 0 0.88467 0.1715 1.6836 0.5191 2.3967 0.3475 0.71315 0.7989 1.3135 1.354 1.8054 0.5552 0.48747 1.1736 0.8621 1.8506 1.1149 0.6816 0.25277 1.3541 0.37915 2.0176 0.37915 0.9208 0 1.7829-0.15798 2.5908-0.47393s1.503-0.75377 2.0898-1.309c0.5823-0.55066 1.0426-1.2006 1.3767-1.9454 0.3294-0.74474 0.4964-1.5572 0.4964-2.4464 0-0.91626-0.1805-1.7648-0.5461-2.5366-0.3656-0.77634-0.8756-1.4444-1.5437-1.995-0.6635-0.55518-1.4488-0.98848-2.347-1.3044-0.9027-0.32047-1.8957-0.47845-2.97-0.47845-1.4579 0-2.8571 0.31596-4.2021 0.95237-1.3451 0.63191-2.5412 1.5256-3.5838 2.6811-1.0472 1.1555-1.8777 2.5412-2.4916 4.1525-0.6183 1.6159-0.9252 3.4213-0.9252 5.4163 0 2.0537 0.3204 3.9178 0.9704 5.5788 0.6499 1.661 1.5346 3.0692 2.6585 4.2247s2.4464 2.0402 3.9675 2.6585c1.5165 0.61836 3.164 0.92529 4.9378 0.92529 1.3586 0 2.6495-0.2302 3.8682-0.68607 1.2187-0.46039 2.3245-1.0878 3.322-1.8777s1.8822-1.7422 2.6585-2.8481c0.7764-1.1104 1.3857-2.2974 1.828-3.5612 0.1264 1.169 0.4108 2.2929 0.8576 3.3717 0.4423 1.0742 0.9704 2.0311 1.5888 2.8707s1.3135 1.503 2.0898 1.995 1.5888 0.73572 2.4464 0.73572c0.853 0 1.652-0.23471 2.3967-0.71315 0.7447-0.47393 1.4173-1.0923 2.0176-1.8506 0.6003-0.75828 1.1239-1.6204 1.5662-2.5863 0.4423-0.96592 0.7899-1.9408 1.0472-2.9203v18.754h-42.022v5.5066h56.93v-5.5066z"/>
   <path d="m533.49 681.03v-10.738h16.662v-19.998l11.486 10.272v9.726h17.595v10.738h-17.595v103.15l-11.486-7.4112v-95.737z" stroke-width="1.9501"/>
  </g>
 </g>
</svg>
