<?xml version="1.0" encoding="UTF-8" standalone="no"?>
<svg xmlns:rdf="http://www.w3.org/1999/02/22-rdf-syntax-ns#" xmlns="http://www.w3.org/2000/svg" height="258.99" width="600" version="1.1" xmlns:cc="http://creativecommons.org/ns#" xmlns:dc="http://purl.org/dc/elements/1.1/" viewBox="0 0 158.75 68.524978">
 <g transform="translate(103.94 -114.57)" fill="#007cab">
  <path d="m-81.732 134.58c0.177-0.21 0.56-0.31 1.137-0.31l22.49-0.06c0.334 0 0.613-0.1 0.858-0.31 0.238-0.21 0.367-0.46 0.367-0.74v-4.36c0-0.29-0.129-0.53-0.367-0.75-0.245-0.21-0.524-0.31-0.858-0.31h-22.774c-1.589 0-2.931 0.12-4.032 0.36-1.096 0.26-1.995 0.67-2.671 1.24-0.673 0.58-1.174 1.35-1.483 2.3-0.311 0.95-0.463 2.15-0.463 3.6v2.9c0 1.44 0.152 2.64 0.463 3.59 0.309 0.94 0.81 1.71 1.483 2.29 0.676 0.58 1.575 0.99 2.671 1.24 1.101 0.25 2.443 0.37 4.032 0.37h15.398c0.58 0 0.972 0.11 1.152 0.32 0.162 0.21 0.258 0.67 0.258 1.37v1.79c0 0.7-0.096 1.16-0.258 1.37-0.18 0.2-0.572 0.32-1.152 0.32h-28.806c-0.453 0-0.808-0.2-1.045-0.61-0.246-0.4-0.368-0.8-0.368-1.19v-6.51h0.003v-13.43c0-0.29-0.106-0.57-0.316-0.85-0.216-0.28-0.471-0.41-0.803-0.41h-5.194c-0.32 0-0.6 0.13-0.86 0.41-0.23 0.28-0.36 0.56-0.36 0.85v23.32c0 0.57 0.08 1.13 0.22 1.7 0.14 0.56 0.37 1.07 0.68 1.53 0.16 0.24 0.35 0.45 0.56 0.64 0 0.01 0.3 0.44 1.28 0.74 0.16 0.05 0.32 0.09 0.5 0.12 0.367 0.07 0.82 0.11 1.342 0.12 0.012 0.01 0.022 0.01 0.032 0.01h33.525c3.007 0 5.105-0.45 6.29-1.35 1.18-0.89 1.774-2.2 1.774-3.93v-5.27c0-1.45-0.151-2.65-0.44-3.59-0.286-0.95-0.777-1.72-1.453-2.3-0.678-0.58-1.572-0.99-2.67-1.24-1.104-0.25-2.451-0.37-4.038-0.37h-14.967c-0.577 0-0.96-0.1-1.137-0.31-0.177-0.22-0.261-0.67-0.261-1.38v-1.55c0-0.7 0.084-1.16 0.261-1.37"/>
  <path d="m-98.292 123.45 3.61-3.45c0.248-0.24 0.39-0.51 0.41-0.79 0.028-0.29-0.056-0.52-0.236-0.69l-3.88-3.72c-0.18-0.17-0.425-0.25-0.721-0.22-0.297 0.02-0.578 0.15-0.828 0.39l-3.603 3.45c-0.23 0.23-0.37 0.48-0.39 0.78-0.04 0.3 0.03 0.53 0.21 0.7l3.884 3.72c0.185 0.17 0.43 0.24 0.737 0.21 0.316-0.04 0.579-0.16 0.807-0.38"/>
  <path d="m54.609 130.96c-0.134-0.57-0.352-1.07-0.678-1.54-0.329-0.45-0.734-0.83-1.236-1.13-0.508-0.3-1.111-0.45-1.822-0.45h-46.735c-0.3268 0-0.6078 0.11-0.8558 0.31-0.238 0.22-0.3595 0.47-0.3595 0.74v21.88h-6.3181v-15.48c0-1.44-0.1417-2.65-0.4353-3.59-0.2911-0.95-0.7746-1.72-1.453-2.3-0.6809-0.58-1.5821-1-2.6806-1.25-1.0986-0.24-2.4377-0.36-4.0247-0.36h-22.984c-0.319 0-0.603 0.1-0.858 0.29-0.233 0.19-0.35 0.43-0.35 0.72v4.41c0 0.32 0.114 0.58 0.337 0.79 0.23 0.21 0.514 0.32 0.871 0.32h22.685c0.562 0 0.919 0.11 1.099 0.31 0.18 0.22 0.266 0.64 0.266 1.27v1.18c0 0.71-0.086 1.16-0.266 1.37s-0.537 0.32-1.099 0.32h-16.225c-1.575 0-2.921 0.13-4.02 0.37-1.109 0.24-2 0.66-2.686 1.24-0.673 0.58-1.169 1.34-1.465 2.29-0.317 0.95-0.469 2.15-0.469 3.59v1.63c0 1.17 0.129 2.13 0.329 2.98h-5.092c-0.456 0-0.803-0.2-1.038-0.61-0.259-0.4-0.375-0.8-0.375-1.19v-33.23c0-0.28-0.101-0.57-0.314-0.85-0.212-0.28-0.481-0.42-0.802-0.42h-5.192c-0.332 0-0.607 0.14-0.855 0.42-0.244 0.28-0.365 0.57-0.365 0.85v36.57c0 0.57 0.068 1.12 0.218 1.69 0.147 0.57 0.374 1.07 0.681 1.53 0.306 0.46 0.713 0.83 1.217 1.13 0.501 0.3 1.122 0.46 1.871 0.46h17.149c0.385 0.01 0.798 0.02 1.208 0.02h38.144c0.3519 0 0.6224-0.1 0.8024-0.32 0.177-0.21 0.261-0.45 0.261-0.73v-21.84h14.289v21.84c0 0.28 0.106 0.52 0.337 0.73 0.222 0.22 0.518 0.32 0.875 0.32h5.392c0.357 0 0.648-0.1 0.871-0.32 0.225-0.21 0.336-0.45 0.336-0.73v-21.84h12.882c0.448 0 0.8 0.2 1.041 0.6 0.25 0.41 0.359 0.81 0.359 1.2v20.04c0 0.28 0.116 0.52 0.342 0.73 0.23 0.22 0.524 0.32 0.873 0.32h5.303c0.352 0 0.643-0.1 0.876-0.32 0.22-0.21 0.337-0.45 0.337-0.73v-23.55c0-0.56-0.059-1.12-0.198-1.68m-84.234 15.25c0-0.7 0.086-1.16 0.266-1.38 0.175-0.2 0.555-0.3 1.139-0.3h17.297v6.27h-17.297c-0.584 0-0.964-0.12-1.139-0.32-0.18-0.21-0.266-0.67-0.266-1.37z"/>
  <path d="m-91.002 177.91v1.8c0 1.78-1.78 3.39-4.638 3.39h-2.789c-2.941 0-4.801-1.61-4.801-3.39v-8.68c0-1.78 1.86-3.38 4.801-3.38h2.789c2.858 0 4.638 1.6 4.638 3.38v1.73h-2.787v-1.23c0-1.07-0.954-1.74-2.152-1.74h-2.334c-1.156 0-2.135 0.67-2.135 1.74v7.68c0 1.07 0.979 1.73 2.135 1.73h2.334c1.198 0 2.152-0.66 2.152-1.73v-1.3z"/>
  <path d="m-78.874 182.96v-15.21h2.807v6.26h6.911v-6.26h2.784v15.21h-2.784v-6.79h-6.911v6.79z"/>
  <path d="m-46.741 167.71 6.002 15.26h-2.835l-1.407-3.76h-6.359l-1.374 3.76h-2.815l6.004-15.26zm-3.789 9.33h4.723l-2.366-6.31z"/>
  <path d="m-29.894 182.96v-15.21h2.835l6.882 10.75v-10.75h2.785v15.21h-2.843l-6.849-10.67v10.67z"/>
  <path d="m-5.4019 182.96v-15.21h2.8351l6.8749 10.75v-10.75h2.787v15.21h-2.8376l-6.8522-10.67v10.67z"/>
  <path d="m30.682 182.96h-10.69v-15.21h10.44v2.18h-7.637v4.16h6.885v2.17h-6.885v4.56h7.887z"/>
  <path d="m54.806 182.96h-9.963v-15.21h2.812v13.07h7.151z"/>
 </g>
</svg>
