<svg xmlns="http://www.w3.org/2000/svg" width="71.865mm" height="64.959mm" viewBox="0 0 71.86454 64.959061"><g><path d="M58.434 20.304l-14.382-14.356v-2.715c0-2.625-2.851-3.814-4.954-2.23-1.491-1.32-3.756-1.267-5.184.146l-19.185 19.155c-1.475 1.472-1.475 3.851 0 5.324l14.358 14.328.003 3.156c0 1.985 2.754 4.159 5.069 1.892 1.484 1.242 3.697 1.165 5.091-.224l19.185-19.152c1.475-1.472 1.475-3.851 0-5.324m-41.865 3.503c-.476-.481-.476-1.252 0-1.73l19.142-19.106c.414-.413 1.042-.466 1.516-.161l-12.89 12.888c-1.755 1.988-.881 4.901 2.711 4.901h2.023s.003 9.041.012 15.692zm15.106 18.602v-3.532l.003-20.813h-4.288c-1.313-.006-1.481-.283-.756-1l12.451-12.453 1.643-1.64.093-.093.084-.065c.383-.283.548.093.566.556l-.003.217v29.447c.072 1.221-.56 1.534-.56 1.59l-8.175 8.153-.128.124-.084.074-.031.028-.096.081-.006.003-.096.071c-.448.298-.613.043-.619-.749m24.904-18.605l-19.141 19.1c-.38.379-.949.457-1.397.23l7.313-7.306c0-.065.697-.665.697-1.985v-24.274l12.529 12.508c.482.478.482 1.249 0 1.73" fill="#238cc6"/><path d="M12.628 52.889h-2.218l-3.313 7.535-1.585-7.535h-2.29l-3.196 11.979h2.102l2.218-8.325h.029l1.728 8.325h.994l3.644-8.097h.029l.302 8.097h2.016zm9.362 0h-6.135l-1.383 11.979h7.187l.23-2.001h-5.098l.36-3.145h3.557l.232-2.003h-3.559l.332-2.828h4.047zm2.233 0l-1.368 11.979h5.071c2.62 0 4.637-2.582 4.637-6.147 0-2.6-1.152-5.831-5.071-5.831zm1.856 2.001h1.009c2.16 0 3.313 1.688 3.313 3.795 0 2.072-.951 4.181-3.268 4.181h-1.96zm11.106-2.001h-2.09l-1.382 11.979h2.088zm6.87-.158h-2.219l-4.81 12.136h2.305l.952-2.616h3.053l.302 2.616h2.146zm-1.441 2.511h.029l.518 5.305h-2.277zm11.134-1.562c-.851-.616-1.859-.949-2.809-.949-1.988 0-3.456 1.546-3.456 3.619 0 3.143 3.615 3.372 3.615 5.357 0 .789-.562 1.317-1.412 1.317-.82 0-1.987-.528-2.779-1.23l-.317 2.09c.878.703 1.915 1.143 3.342 1.143 2.203 0 3.327-1.74 3.327-3.671 0-3.355-3.616-3.583-3.616-5.305 0-.789.619-1.317 1.382-1.317.749 0 1.802.491 2.435 1.054zm8.295-.791h-6.135l-1.383 11.979h7.187l.229-2.001h-5.098l.36-3.145h3.558l.23-2.003h-3.557l.331-2.828h4.048zm9.866 0h-8.396l-.232 2.001h3.111l-1.152 9.977h2.087l1.153-9.977h3.197z" fill="#a7a5a5"/></g></svg>