<?xml version="1.0" encoding="UTF-8" standalone="no"?>
<svg xmlns:rdf="http://www.w3.org/1999/02/22-rdf-syntax-ns#" xmlns="http://www.w3.org/2000/svg" height="151.86" viewBox="0 0 600 151.86375" width="600" version="1.1" xmlns:cc="http://creativecommons.org/ns#" xmlns:dc="http://purl.org/dc/elements/1.1/">
 <g stroke-width=".82489">
  <path d="m395.04 103.83-0.01-0.49c-0.16-8.615 1.79-15.876 5.81-19.988 3.96-4.042 9.06-4.885 12.62-4.885h0.19c6.96 0 12.02 4.194 12.02 10.379 0 6.844-5.39 13.814-29.99 14.964l-0.64 0.02zm-68.84 24.81c-6.82 0-12.42-2.3-16.19-6.65-3.81-4.41-5.51-9.97-5.51-18.04v-12.129l0.52-0.122c7.52-1.797 14.4-2.711 20.44-2.711 14.06 0 22.46 7.261 22.46 19.382 0 9.77-6.79 20.27-21.72 20.27m-21.7-88.16c0-3.077 1.09-4.041 3.56-5.057 3.74-1.533 9.44-2.61 13.84-2.61 11.09 0 17.71 5.697 17.71 15.223 0 12.998-9.31 18.787-34.38 21.325l-0.73 0.082v-28.963zm146.45 83.22c-2.04-1.68-2.98-2.18-4.16-2.18-0.9 0-1.71 0.38-3.35 1.51-8.53 5.93-16.32 8.41-25.12 8.41-1.56 0-3.45-0.16-5.22-0.46-2.03-0.33-4.3-1-5.75-1.7-5.12-2.46-8.77-5.36-9.92-9.31l-0.24-0.84 0.87-0.03c37.34-1.35 50.67-15.45 50.67-30.747 0-11.029-5.49-17.761-10.09-21.458-5.83-4.681-13.82-7.372-21.95-7.372-21.04 0-38.41 13.262-44.45 32.07-3.77-7.952-10.69-14.055-20.18-17.498l-1.28-0.467 1.15-0.731c9.05-5.707 14.24-15.253 14.24-26.17 0-21.905-16.9-35.513-44.12-35.513-11.61 0-24.98 2.701-34.03 6.875-8.76 4.041-11.27 7.728-11.27 16.482v70.679c0 14.83 3.63 25.75 11.12 33.4 8.46 8.64 21.64 13.21 38.13 13.21 22.8 0 40.21-11.27 46.74-28.82 2.03 5.76 5.13 10.95 9.19 15.26 8.13 8.6 19.32 13.15 32.39 13.15 10.29 0 21.98-3.72 29.09-9.25 6.38-4.96 9.89-10.26 9.89-14.64 0-1.45-0.54-2.35-2.35-3.86" fill="#7e807b"/>
  <path d="m494.85 132.57c0 8.22-6.67 14.9-14.89 14.9-8.24 0-14.91-6.68-14.91-14.9 0-8.24 6.67-14.91 14.91-14.91 8.22 0 14.89 6.67 14.89 14.91" fill="#bb7bae"/>
  <path d="m88.349 27.467c-6.398 0-11.658 1.157-14.247 3.523-1.767 1.605-2.58 3.758-2.58 6.896v63.944c0 10.64-1.706 16.4-5.463 20.45-3.301 3.54-8.5 5.47-14.207 5.47-5.575 0-10.521-1.86-13.466-4.98-3.066-3.25-4.508-7.75-4.508-14.41v-41.644c0-1.827-0.681-2.64-2.692-2.64h-28.312c-1.9906 0-2.6506 0.782-2.6506 2.651v37.643c-0.00003 15.03 3.8793 23.62 10.643 30.39 8.784 8.79 23.815 12.71 38.092 12.71 14.259 0 29.126-5.06 37.91-13.17 8.621 7.86 24.292 13.16 41.582 13.16 22.85 0 39.65-9.44 49.45-25.5 4.36 6.73 7.56 11.75 10.66 16.32 4.55 6.72 8.68 9.19 17.96 9.19 8.77 0 14.04-2.11 18.78-9.36 12.45-19.04 23.07-41.557 30.71-62.273 0.97-2.59 1.65-4.479 1.65-5.657 0-1.218-0.79-2.173-2.67-2.772-1.83-0.579-6.75-2.082-9.2-2.834-4.1-1.238-5.58-1.614-6.47-1.614-1.66 0-2.55 0.934-3.13 2.843-5.74 19.082-14.46 40.527-22.25 53.857-2.55-4.87-7.26-13.33-11.64-20.964-6.76-11.81-13.44-23.722-16.81-29.196-3.39-5.534-5.66-7.017-10.12-7.017-9.2 0-22.83 8.266-22.83 15.964 0 2.61 0.73 4.57 3.43 9.191 3.09 5.271 4.64 9.536 4.64 14.782 0 13.09-9.77 24.96-28.65 24.96-8.96 0-15.88-2.55-20.38-7.17-4.3-4.42-6.39-10.35-6.39-20.264v-16.634c3.15 1.351 7 2.041 11.67 2.041h14.94c2.02 0 2.73-0.812 2.73-2.64v-16.005c0-1.818-0.71-2.63-2.73-2.63h-26.61v-26.19c0-3.138-0.82-5.291-2.58-6.895-2.6-2.367-7.953-3.524-14.26-3.524m-71.3 25.002c-10.541 0-17.05-7.474-17.05-16.909 0-9.434 6.5095-16.918 17.05-16.918 10.541 0 17.051 7.484 17.051 16.918 0 9.435-6.51 16.909-17.051 16.909" fill="#bb7bae"/>
 </g>
 <g fill="#7e807b">
  <path d="m547.75 0c-32.3 0-52.23 22.918-52.23 51.806 0 28.887 19.93 51.804 52.23 51.804 32.29 0 52.25-22.917 52.25-51.804 0-28.888-19.96-51.806-52.25-51.806zm0 6.663c28.13 0 45.5 19.979 45.5 45.143 0 25.163-17.37 45.113-45.5 45.113-28.14 0-45.5-19.95-45.5-45.113 0-25.164 17.36-45.143 45.5-45.143z" stroke-width="0.899"/>
  <path d="m535.02 71.165c0 0.889-0.89 1.508-4.04 1.508-3.41 0-3.96-0.689-3.96-1.508v-9.226h-9.57c-0.82 0-1.37-0.959-1.37-3.765 0-3.135 0.62-3.754 1.37-3.754h9.57v-10.525h8v10.525h10.93v7.519h-10.93v9.226z" stroke-width=".78353"/>
  <path d="m571.15 70.797c0 1.248-1.13 1.877-4.62 1.877-3.62 0-4.37-0.629-4.37-1.937v-29.896c-2.99 1.867-7.31 4.434-10.99 6.431l-3.37-6.87c4.93-2.936 10.37-6.181 13.86-8.428 1.37-0.879 2-1.069 3.56-1.069h3.74c1.63 0 2.19 0.569 2.19 1.937v37.955z" stroke-width=".78353"/>
 </g>
</svg>
