<svg id="svg2" width="385.6" height="259.3" version="1.1" xmlns="http://www.w3.org/2000/svg">
    <style id="dark-mode-custom-style" type="text/css"/>
    <g id="g11">
        <path id="path11" d="M259.92 256.62v-40.371h16.591q5.161 0 8.018.676 2.858.676 4.885 2.642 2.765 2.581 2.765 7.313 0 6.882-6.329 9.032v.123q3.749.676 5.961 3.318t2.212 6.698q0 6.513-4.394 9.524-4.393 3.011-12.996 3.011h-14.562q-1.229 0-1.69-.43t-.461-1.536zm8.971-5.285h9.463q3.134 0 4.824-1.474 1.689-1.475 1.689-3.994 0-2.827-1.536-4.117-1.536-1.291-4.608-1.291h-9.832zm0-27.835v9.77h8.48q2.949 0 4.27-1.229t1.321-3.933q0-2.457-1.198-3.533-1.198-1.075-3.902-1.075z" fill="#18adb7"/>
        <path id="path13" d="M187.7 259.3h-.736q-6.805 0-10.913-2.637-6.192-3.923-6.192-12.874v-27.343h8.951v26.852q0 4.598 2.269 6.683 2.145 1.962 6.314 1.962 4.047 0 6.192-1.962 2.269-2.085 2.269-6.683v-26.852h8.951v27.343q0 8.889-6.254 12.874-4.107 2.637-10.851 2.637z" fill="#18adb7"/>
        <path id="path15" d="M105.62 256.7v-16.133H87.965v16.194q0 1.826-4.445 1.826-2.557 0-3.5-.426-.944-.426-.944-1.461v-40.363h8.889v17.046h17.655v-17.046h8.888v40.424q0 1.826-4.444 1.826-2.557 0-3.501-.426-.943-.426-.943-1.461z" fill="#18adb7"/>
        <path id="path17" d="M0 25.362C0 11.387 9.834 0 25.707 0c16.736 0 25.621 11.991 25.621 25.966 0 15.442-11.301 24.844-25.535 24.844C10.352 50.81 0 40.286 0 25.362z" fill="#18adb7"/>
        <path id="path19" d="M.173 71.946c0-2.33 1.294-4.055 3.968-4.055h43.305c2.329 0 3.796 1.812 3.796 4.055v66.424c0 11.301 6.47 24.5 26.397 24.5 19.41 0 29.417-12.078 29.417-36.663v-5.176l20.617 39.164 2.674 13.285s-20.186 19.496-56.762 19.496c-18.202 0-73.326-3.019-73.326-63.319V71.946z" fill="#18adb7"/>
        <path id="path21" d="M263.54 119.56l-29.072-14.492s5.521 9.057 5.521 20.531c0 22.515-18.029 37.008-43.65 37.008-28.037 0-38.906-17.167-38.906-39.596V97.045s7.074 2.674 13.975 2.674h26.397c2.588 0 3.537-1.725 3.537-3.968V72.2c0-2.674-1.121-4.313-3.968-4.313h-39.855V28.464c0-6.557-2.502-15.356-24.931-15.356-20.617 0-25.534 6.643-25.534 14.234v95.151c0 33.212 23.205 50.983 23.205 50.983s19.41 19.324 61.939 19.324c54.52 0 73.843-37.957 73.843-37.957z" fill="#1d2232"/>
        <path id="path23" d="M382.42 73.326l-22.084-6.815c-3.537-.949-5.953-.173-6.815 2.847 0 0-13.026 44.34-33.471 81.521C287.872 91.7 275.278 73.24 275.278 73.24c-3.106-5.176-7.505-7.764-12.509-7.764-7.505 0-16.735 3.709-19.323 5.348-11.905 7.419-15.356 12.336-15.442 19.065 0 4.572 1.553 6.901 3.623 10.783l34.334 54.175 16.563 25.017c5.262 7.85 10.524 12.94 25.535 12.94 18.633 0 24.327-6.988 29.848-15.183 0 0 28.726-43.996 47.101-97.394 1.466-4.831.086-5.952-2.588-6.901z" fill="#6e7d81"/>
    </g>
</svg>
