<?xml version="1.0" encoding="UTF-8" standalone="no"?>
<!-- Created with Inkscape (http://www.inkscape.org/) -->
<svg xmlns:rdf="http://www.w3.org/1999/02/22-rdf-syntax-ns#" xmlns="http://www.w3.org/2000/svg" height="222.23" width="600" version="1.1" xmlns:cc="http://creativecommons.org/ns#" xmlns:dc="http://purl.org/dc/elements/1.1/">
 <defs></defs>
 <metadata>
  <rdf:RDF>
   <cc:Work rdf:about="">
    <dc:format>image/svg+xml</dc:format>
    <dc:type rdf:resource="http://purl.org/dc/dcmitype/StillImage"/>
    <dc:title/>
   </cc:Work>
  </rdf:RDF>
 </metadata>
 <g fill-rule="nonzero" transform="translate(-7.5939073,135.50512)">
  <path fill="#f8a10e" d="m323.23-53.949c1.0472,1.3198,2.2953,2.8405,4.3468,6.1687,5.7813,9.4539,17.315,29.997,28.993,50.368,7.5459,13.169,15.666,27.759,20.07,36.166,13.428-22.982,28.491-59.98,38.389-92.903,0.98987-3.2995,2.5392-4.8919,5.394-4.8919,1.535,0,4.0885,0.63121,11.147,2.7831,4.2464,1.2911,12.71,3.8877,15.866,4.8919,3.2565,1.0329,4.605,2.6683,4.605,4.7628,0,2.0371-1.162,5.3079-2.8118,9.7695-13.198,35.735-31.503,74.569-52.979,107.41-8.1914,12.51-17.272,16.153-32.421,16.153-15.981,0-23.125-4.2607-30.973-15.866-5.3223-7.8758-10.874-16.512-18.391-28.146,11.477-19.252,16.383-42.535,16.383-65.488,0-14.676-3.9594-26.626-7.6176-31.173"/>
  <path fill="#a71563" d="m330.84-22.782c0,22.953-4.9062,46.251-16.383,65.488l-37.815-59.176c-4.6767-7.9906-5.9248-11.362-5.9248-15.866,0-13.284,23.498-27.53,39.379-27.53,5.6666,0,9.2817,1.3772,13.126,5.9105,3.6582,4.5476,7.6176,16.498,7.6176,31.173"/>
  <path fill="#7c7722" d="m314.46,42.709c-16.914,27.702-45.878,43.998-85.286,43.998-29.839,0-56.852-9.1526-71.743-22.709,18.779-15.709,31.604-39.91,31.604-69.405l0.0144,10.142c0,17.1,3.5864,27.329,11.003,34.946,7.7754,7.9762,19.711,12.366,35.161,12.366,32.565,0,49.421-20.457,49.421-43.023,0-9.0665-2.6683-16.426-7.9906-25.507l37.815,59.191z"/>
  <path fill="#4dc4c6" d="m157.45,64c-15.149,14.001-40.799,22.709-65.388,22.709-24.632,0-50.554-6.7712-65.718-21.935-11.678-11.662-18.363-26.467-18.363-52.39v-64.958c0-3.1991,1.1477-4.5476,4.5763-4.5476h48.833c3.486,0,4.648,1.3915,4.648,4.5333v71.844c0,11.491,2.4818,19.252,7.7897,24.861,5.0784,5.3653,13.6,8.5644,23.211,8.5644,9.8555,0,18.822-3.3139,24.517-9.4395,6.4843-6.972,9.4108-16.914,9.4108-35.248v-5.6666c0,23.757,8.421,45.949,26.482,61.672zm-120.43-141.15c-18.19,0-29.423-12.911-29.423-29.179s11.233-29.165,29.423-29.165c18.176,0,29.409,12.897,29.409,29.165s-11.233,29.179-29.409,29.179"/>
  <path fill="#110f0d" d="m160-120.27c10.874,0,20.113,1.9941,24.589,6.0826,3.0413,2.7687,4.4472,6.4699,4.4472,11.878v45.175h45.921c3.4717,0,4.6911,1.4059,4.6911,4.5476v27.616c0,3.1274-1.2194,4.5333-4.6911,4.5333h-25.779c-8.048,0-14.704-1.1764-20.141-3.5004v18.535c0,29.481-12.825,53.696-31.575,69.405-18.06-15.736-26.48-37.958-26.48-61.715v-104.58c0-5.394,1.4059-9.1239,4.4328-11.893,4.4759-4.0885,13.542-6.0826,24.589-6.0826"/>
  <path fill="#110f0d" d="m540.93-3.2515c-41.215,0-66.665-29.251-66.665-66.12s25.449-66.134,66.665-66.134c41.215,0,66.665,29.265,66.665,66.134s-25.449,66.12-66.665,66.12"/>
  <path fill="#FFF" d="m524.67-44.658c0,1.1333-1.1333,1.9223-5.1501,1.9223-4.3611,0-5.0497-0.87509-5.0497-1.9223v-11.778h-12.223c-1.0472,0-1.7358-1.2194-1.7358-4.7915,0-4.0168,0.77467-4.8058,1.7358-4.8058h12.223v-13.428h10.2v13.428h13.958v9.5973h-13.958v11.778z"/>
  <path fill="#FFF" d="m570.78-45.13c0,1.5924-1.4346,2.3957-5.8961,2.3957-4.6193,0-5.5805-0.80336-5.5805-2.4675v-38.16c-3.816,2.3814-9.3247,5.6522-14.03,8.2058l-4.3037-8.7653c6.2978-3.7586,13.241-7.8902,17.703-10.759,1.7502-1.119,2.5392-1.3628,4.5332-1.3628h4.7772c2.0801,0,2.7974,0.71729,2.7974,2.4818v48.431z"/>
 </g>
</svg>
