<svg xmlns="http://www.w3.org/2000/svg" height="112.61" width="600" viewBox="0 0 158.75 29.795">
    <path d="M64.347 10.22v18.69c0 .73.66.88 2.067.88 1.418 0 2.036-.2 2.036-.88v-5.57h3.946c2.519 0 4.387-.67 5.464-1.77 1.266-1.36 1.714-3.01 1.714-4.87 0-2.17-.502-3.47-1.559-4.61-1.455-1.54-3.771-1.87-6.057-1.87zm4.103 3.35h3.696c.893 0 1.788.24 2.356.8.576.59.806 1.35.806 2.45 0 1-.273 1.86-.797 2.39-.544.56-1.397.81-2.804.81H68.45zM143.45 10.22v18.54c0 .76.3 1.03 2.07 1.03 1.81 0 2.03-.25 2.03-1.03v-6.2h2.73l3.58 5.98c.18.32.38.64.51.77.41.42 1.33.49 2.33.49 1.67 0 2.05-.29 2.05-.54 0-.18-.04-.33-.31-.71l-4.11-6.37s1.61-.47 2.49-1.45c1.43-1.44 1.7-3.21 1.7-4.49 0-1.88-.52-3.33-1.47-4.28-1.49-1.44-3.37-1.74-6.02-1.74zm4.1 3.35h3.79c.96 0 1.75.17 2.28.67.49.51.67 1.08.67 1.99 0 .97-.19 1.74-.65 2.2-.44.45-1.29.78-2.26.78h-3.83zM85.66 26.32h8.174v3.31H82.373c-.562 0-.816-.23-.816-.85V10.22h4.103zM101.794 10.22c-.738 0-1.053.24-1.231.81-1.767 5.43-3.436 11.15-5.15 16.74-.197.64-.316.95-.316 1.28 0 .59.913.68 2.082.68 1.343 0 1.824-.18 2.067-.42.097-.1.177-.25.258-.49l.935-3.29h7.563l.881 3.06c.074.25.134.53.363.75.378.37 1.128.39 2.028.39 1.323 0 2.075-.13 2.075-.7 0-.23-.032-.3-.136-.64-1.802-6.15-3.521-11.55-5.27-17.22-.268-.81-.446-.95-1.358-.95zm2.049 3.25h.771c.834 2.87 1.644 5.82 2.448 8.77h-5.7c.816-2.91 1.61-5.8 2.481-8.77zM118.835 29.8c-1.708 0-2.083-.26-2.083-.98v-6.27c-4.01-6.53-5.443-9.42-6.89-12.33h4.541c.707 1.66 2.209 4.54 4.291 8.33h.219c.924-1.9 1.077-1.92 3.852-8.33h4.529c-1.253 2.72-2.803 5.88-6.439 12.31v6.29c0 .68-.322.98-2.02.98zM129.077 29.63c-.578 0-.783-.29-.783-.78V11.1c0-.62.181-.88 1.127-.88h12.089v3.35h-9.113v4.51h7.793v3.32h-7.793v4.92h9.303v3.31z"/>
    <g>
        <path d="M0 3.91C0 1.76 1.522 0 3.967 0c2.574 0 3.954 1.85 3.954 4.01 0 2.38-1.744 3.83-3.936 3.83C1.6 7.84 0 6.21 0 3.91zM.021 11.1c0-.37.205-.63.614-.63h6.682c.353 0 .586.28.586.62v10.25c0 1.74.995 3.77 4.064 3.77 2.989 0 4.535-1.86 4.535-5.65v-.8l3.173 6.04.41 2.05s-3.114 3.01-8.757 3.01C8.527 29.76.021 29.3.021 19.99z" fill="#00beca"/>
        <path d="M20.085 26.75l3.173-8.19 1.024-1.03v1.43c0 3.45 1.672 6.1 6 6.1 3.945 0 6.723-2.23 6.723-5.7 0-1.76-.854-3.16-.854-3.16l4.476 2.23.392 5.45s-2.98 5.84-11.382 5.84c-6.561 0-9.552-2.97-9.552-2.97z" fill="#8c7b11"/>
        <path d="M20.085 26.75s-3.583-2.74-3.583-7.86V4.22c0-1.18.761-2.2 3.933-2.2 3.467 0 3.847 1.35 3.847 2.36v6.09h6.142c.443 0 .614.26.614.67v3.63c0 .34-.14.61-.542.61h-4.064c-1.054 0-2.15-.41-2.15-.41v2.46c0 3.06-.791 6.19-4.197 9.32z"/>
        <path d="M41.02 23.88l.975-10.72.44-1.86s1.947 2.84 6.905 11.97c3.15-5.73 5.158-12.57 5.158-12.57.141-.47.514-.58 1.055-.44l3.399 1.05c.413.15.637.31.405 1.08-2.828 8.23-7.255 15.01-7.255 15.01-.853 1.27-1.721 2.34-4.598 2.34-2.321 0-3.13-.79-3.938-2z" fill="#ffab00"/>
        <path d="M41.02 23.88l-5.3-8.35c-.318-.6-.56-.96-.56-1.66.004-1.04.543-1.79 2.374-2.94.396-.26 1.821-.83 2.976-.83 1.558 0 2.72 1.61 2.72 4.99 0 5.49-2.21 8.79-2.21 8.79z" fill="#c80063"/>
    </g>
</svg>
