<svg data-name="Layer 7" version="1.1" viewBox="0 0 800 229.45" xmlns="http://www.w3.org/2000/svg">
 <defs>
  <style>.cls-1{fill:#000;}.cls-2{fill:red;}</style>
 </defs>
 <path transform="matrix(2.8222 0 0 2.8222 .010109 0)" d="m209.76 0v79.37h73.7v-79.37z" fill="#fff" stroke-width=".99992"/>
 <path class="cls-1" d="m600.02 7.9869h192v148h-192z" stroke-width="2.8222"/>
 <path d="m132.23 0v161.4a80.547 80.547 0 0 1-5.3905 31.045 57.066 57.066 0 0 1-14.506 21.11 57.997 57.997 0 0 1-21.195 12.023 82.099 82.099 0 0 1-25.174 3.8664 78.825 78.825 0 0 1-24.723-3.9229 62.484 62.484 0 0 1-21.026-11.74 57.602 57.602 0 0 1-14.563-19.332 61.101 61.101 0 0 1-5.6445-26.783v-21.816h37.874v21.505a32.061 32.061 0 0 0 2.5682 13.377 28.222 28.222 0 0 0 6.6605 9.4827 26.981 26.981 0 0 0 9.144 5.6445 29.295 29.295 0 0 0 10.019 1.8344 31.045 31.045 0 0 0 8.8336-1.4393 26.811 26.811 0 0 0 9.0594-4.8825 27.601 27.601 0 0 0 7.1402-9.3134 33.161 33.161 0 0 0 2.8222-14.676v-167.39z" fill="#fff" stroke-width="2.8222"/>
 <path d="m245.54 0 81.845 224h-39.511l-24.074-65.504h-80.885q-5.6445 16.228-11.938 32.738-6.2936 16.51-11.966 32.766h-39.201l81.845-224zm-22.296 46.877-28.505 79.813h57.009z" fill="#fff" stroke-width="2.8222"/>
 <path d="m290.42 194.45 111.7-162.5h-111.7v-31.948h150.82v33.556l-110.07 157.85h110.21v32.597h-150.96z" fill="#fff" stroke-width="2.8222"/>
 <path class="cls-2" d="m441.01 166.2 77.781-105.97h-77.781v-60.226h150.79v61.835l-76.2 101.32h76.2v60.847h-150.79z" stroke-width="2.8222"/>
 <path class="cls-1" d="m629.11 194.76a12.898 12.898 0 0 1-4.2898 0.84667l12.361 16.454h-8.0716l-14.534-20.461v20.461h-6.4629v-44.14h13.66a16.425 16.425 0 0 1 11.769 3.6971 14.422 14.422 0 0 1 4.0358 10.442 12.361 12.361 0 0 1-8.4667 12.7zm-7.8458-20.913h-6.8016v16.933h4.4027c5.6445 0 12.164-1.6087 12.164-8.6643 0-5.6445-4.6567-8.2691-9.7649-8.2691z" stroke-width="2.8222"/>
 <path class="cls-1" d="m671.9 212.06-4.8825-12.982h-15.861l-4.9107 12.982h-6.8016l16.764-44.14h5.7856l16.764 44.14zm-12.7-35.786-5.6445 16.933h11.289z" stroke-width="2.8222"/>
 <path class="cls-1" d="m713.78 205.68a23.029 23.029 0 0 1-17.216 6.3782h-14.111v-44.14h14.309a20.885 20.885 0 0 1 18.006 8.128 24.553 24.553 0 0 1 4.5438 14.111 23.707 23.707 0 0 1-5.5316 15.522zm-2.2013-22.296a15.042 15.042 0 0 0-14.845-9.5392h-7.8176v32.427h7.7047c10.019 0 16.284-5.842 16.284-16.03a18.514 18.514 0 0 0-1.3264-6.858z" stroke-width="2.8222"/>
 <path class="cls-1" d="m725.86 212.06v-44.14h6.4347v44.14z" stroke-width="2.8222"/>
 <path class="cls-1" d="m761.05 212.91a22.917 22.917 0 1 1 22.973-22.775 22.973 22.973 0 0 1-22.973 22.775zm0-39.906a15.748 15.748 0 0 0-14.986 9.9625 17.695 17.695 0 0 0-1.5522 7.0274 18.486 18.486 0 0 0 1.5522 7.1685 16.313 16.313 0 0 0 30.367-1.0724 16.933 16.933 0 0 0-15.381-23.086z" stroke-width="2.8222"/>
 <path d="m628.89 43.632v32.173h34.713v8.0434h-34.713v40.584h-8.8618v-88.844h44.902v8.0434z" fill="#fff" stroke-width="2.8222"/>
 <path d="m763.11 124.43-5.6445-79.022h-0.22578l-30.508 79.022h-7.5636l-30.226-79.022h-0.254l-5.6445 79.022h-8.5231l5.6445-88.844h13.688l29.549 75.636 29.633-75.636h13.688l5.6445 88.844z" fill="#fff" stroke-width="2.8222"/>
</svg>
