<svg xmlns="http://www.w3.org/2000/svg" width="880" height="394.507">
    <defs>
        <clipPath clipPathUnits="userSpaceOnUse" id="a">
            <path d="M0 1080h1920V0H0z"/>
        </clipPath>
    </defs>
    <g clip-path="url(#a)" transform="matrix(1.33333 0 0 -1.33333 -841.183 923.012)">
        <path d="M895.928 616.775c21.855-7.283 25.25.362 33.97 21.631 9.857 24.042 14.998 40.106-1.197 47.843-16.538 7.901-26.52 1.552-35.77-18.098-7.953-16.894-17.533-44.535 2.997-51.376M775.72 681.66c-5.489 11.17-13.235 13.914-27.709 6.3-15.406-8.106-18.084-14.862-12.089-27.755 21.617-46.49 37.412-87.8 43.282-127.579 4.956-33.58 6.04-86.845-32.95-94.904-30.835-6.373-63.51 20.962-83.289 40.455-4.587 4.52-12.207 8.834-22.818-.528-9.603-8.473-12.795-14.667-4.468-24.355 12.021-13.984 57.681-59.724 114.398-56.78 60.387 3.135 79.724 67.494 72.741 134.462-3.516 33.722-21.217 102.465-47.098 150.684M1287.2 491.72c-7.414-10.532-43.057-58.774-93.689-58.774-57.98 0-69.564 61.236-69.564 61.295 0 .013-10.5-24.299-15.108-33.349-6.044-11.867-11.13-25.178-29.026-25.178-16.953 0-22.29 10.587-27.294 26.913-2.4 7.835-8.188 30.731-8.225 30.72-.01-.004-10.353-23.925-14.106-31.5-4.28-8.64-11.958-24.742-27.142-24.742-14.785 0-21.397 9.96-23.607 28.73-1.525 12.958-3.52 39.09-3.523 39.09 0 0-17.559-18.33-29.106-28.108-11.678-9.89-30.583-22.157-52.976-19.167-25.285 3.377-41.748 20.562-42.043 54.826-.24 27.868 5.417 54.997 11.085 68.855 4.886 11.946 11.531 13.901 29.418 8.64 16.133-4.745 15.827-13.35 11.388-26.67-3.796-11.389-14.469-52.25-6.58-62.814 10.784-14.44 37.93 12.6 61.265 36.655 10.704 11.036 20.232 19.661 33.964 19.661 12.9 0 16.37-13.928 17.714-26.005.844-7.586 2.263-26.715 2.263-26.715s14.202 27.121 16.245 31.348c4.246 8.783 11.726 20.377 23.606 20.377 14.906 0 18.621-13.45 19.985-18.727 2.284-8.836 10.165-42.53 10.178-42.533.463-.11 11.836 25.498 16.023 33.754 6.541 12.897 14.03 28.785 32.088 28.785 30.875 0 21.423-87.512 67.077-87.512 29.55 0 48.431 24.788 59.697 38.343 8.034 9.667 13.425 11.861 24.354 5.551 11.41-6.585 11.146-13.404 5.64-21.749" fill="#f25c19"/>
    </g>
</svg>
