<svg xmlns="http://www.w3.org/2000/svg" height="332.5" width="600" viewBox="0 0 158.75 87.974">
    <path d="M79.085 0C35.245.29-.158 20.22.001 44.51c.158 24.28 35.824 43.75 79.654 43.46 43.84-.28 79.24-20.2 79.09-44.5-.16-24.29-35.82-43.74-79.66-43.47" fill="#009fe3"/>
    <path d="M73.175 77.26c-37.86.25-68.661-16-68.795-36.28C4.243 20.7 34.835 4.06 72.695 3.81c37.87-.24 68.68 16 68.81 36.28s-30.46 36.93-68.33 37.17" fill="#fff"/>
    <g fill="#009fe3">
        <path d="M47.995 17.99h-14.23l-6.913 25.89c-.452 1.83-1.372 2.96-3.96 2.98-1.99.01-3.126-.95-3.138-2.52-.009-1.32.836-3.57 1.091-4.89H7.774c-.715 2.04-1.159 4.92-1.146 6.65.033 4.57 3.719 9.47 15.663 9.39 11.614-.07 17.124-4.23 19.054-12.57zM84.845 17.99l-11.78 19.22-.13.01-1.47-19.23h-20.76l-9.7 36.25h14.21l6.65-24.86h.13l1.91 24.86h10.81l15.35-25.05h.13l-6.71 25.05h14.2l9.71-36.25zM124.335 17.99h-14.19l-9.75 36.25h35.01l2.66-9.95h-20.8z"/>
    </g>
</svg>
