<svg version="1.1" viewBox="0 0 800 267.23" xml:space="preserve" xmlns="http://www.w3.org/2000/svg">
<style type="text/css">
	.st0{fill-rule:evenodd;clip-rule:evenodd;fill:#CEDC00;}
	.st1{fill-rule:evenodd;clip-rule:evenodd;fill:#FFFFFF;}
	.st2{filter:url(#Adobe_OpacityMaskFilter);}
	.st3{mask:url(#mask-2_00000127726052551242976790000015279758197753153160_);fill-rule:evenodd;clip-rule:evenodd;fill:#FFFFFF;}
	.st4{filter:url(#Adobe_OpacityMaskFilter_00000072240064025252240670000009576378624897830029_);}
	.st5{mask:url(#mask-4_00000110453694982651913530000014305678394926899126_);fill-rule:evenodd;clip-rule:evenodd;fill:#FFFFFF;}
	.st6{fill:#DC3C96;}
	.st7{fill:#FFFFFF;}
</style>
<g transform="matrix(8.4566 0 0 8.4566 0 -3.3827)">
	<path class="st6" d="m47.3 24.5c-4.6 0-8.3-3.7-8.3-8.3s3.7-8.3 8.3-8.3 8.3 3.7 8.3 8.3-3.7 8.3-8.3 8.3"/>
	<path class="st7" d="m47.3 24.4c-4.5 0-8.2-3.7-8.2-8.2s3.7-8.2 8.2-8.2 8.2 3.7 8.2 8.2-3.6 8.2-8.2 8.2m0-24c-8.7 0-15.8 7.1-15.8 15.8s7.1 15.8 15.8 15.8 15.8-7.1 15.8-15.8-7.1-15.8-15.8-15.8"/>
	<path class="st7" d="m31.9 3.7v-2.7h-7.9v15.2c0 4.5-3.7 8.2-8.2 8.2-4.2 0-7.7-3.1-8.2-7.3h-7.6c0.5 8.3 7.4 14.9 15.8 14.9 5.7 0 10.7-3 13.5-7.5-1.1-2.5-1.8-5.3-1.8-8.2 0-4.8 1.6-9.2 4.4-12.6"/>
	<path class="st7" d="m70.5 16.2c0-4.6 3.7-8.4 8.4-8.4 1 0 1.9 0.2 2.8 0.5l-10.7 10.7c-0.3-0.9-0.5-1.8-0.5-2.8m16.7 1c-0.5 4.1-4 7.4-8.3 7.4-1 0-1.9-0.2-2.8-0.5l16.2-16.2c-2.8-4.5-7.8-7.5-13.4-7.5-5.7 0-10.7 3-13.5 7.6 1.1 2.5 1.8 5.3 1.8 8.2s-0.6 5.7-1.8 8.2c2.8 4.6 7.8 7.6 13.5 7.6 8.4 0 15.3-6.6 15.7-14.8z"/>
</g>
</svg>
