<svg xmlns="http://www.w3.org/2000/svg" height="87.913" width="600" viewBox="0 0 158.75 23.26">
    <g fill="#bdbcbc">
        <path d="M58.089 2.44c1.187.24 1.69 1.07 1.484 2.285l-.18 1.04c-.176 1.187-.86 1.783-2.046 1.754-1.368-.03-2.613-.03-4.542-.03-2.11 0-2.734.562-3.354 5.401-.538 4.039-.508 4.927 1.69 4.927 1.962 0 3.354-.029 4.633-.088 1.246-.058 1.959.533 2.017 1.812l.059 1.011c.063 1.187-.445 1.958-1.573 2.197-1.601.352-3.203.503-5.43.503-6.832 0-9.234-2.763-8.106-10.836C43.898 4.164 46.3 2.054 53.133 2.054c2.134 0 3.59.118 4.956.386M67.231 4.46l-2.344 16.657c-.18 1.187-.864 1.782-2.051 1.782h-2.554c-1.304 0-1.958-.776-1.778-2.08l2.344-16.628c.147-1.186.86-1.777 2.047-1.777h2.524c1.338 0 1.988.742 1.812 2.046M65.954 20.82L68.21 4.876c.21-1.631 1.187-2.461 2.823-2.461h.771c1.485 0 2.461.59 3.145 1.9l3.472 6.768c.479.918.864 1.987 1.22 3.384.03.088.089.146.147.146.088 0 .117-.058.117-.176a13.389 13.389 0 0 1 .064-3.296l1.006-6.944c.151-1.191.864-1.782 2.05-1.782h2.018c1.338 0 1.992.742 1.782 2.046l-2.227 15.944c-.239 1.66-1.186 2.495-2.851 2.495h-.8c-1.514 0-2.462-.625-3.145-1.963l-3.536-7.066c-.444-.918-.742-2.046-1.006-3.262 0-.093-.063-.122-.122-.122-.088 0-.117.058-.117.151.03 1.216 0 2.374-.18 3.653l-1.007 6.827c-.18 1.186-.864 1.782-2.05 1.782h-2.048c-1.308 0-1.958-.771-1.782-2.08M93.592 8.41l-.176 1.216c-.063.415.147.654.562.654h4.693c1.303 0 1.958.742 1.806 2.046l-.058.42c-.147 1.187-.83 1.807-2.046 1.807h-5.08c-.356 0-.59.18-.62.537l-.268 1.841c-.122.772.234 1.158 1.099 1.158h5.166c1.275 0 1.958.683 1.929 1.958l-.03.8c-.029 1.192-.654 1.905-1.84 1.993-2.496.205-5.465.176-7.96.176-3.59 0-5.342-2.344-4.898-5.582l1.485-10.597c.415-2.764 2.348-4.541 5.552-4.541 2.73 0 5.67 0 8.077.205 1.274.088 1.87.894 1.66 2.168l-.117.772c-.21 1.186-.894 1.782-2.08 1.782h-5.342c-1.011 0-1.397.298-1.514 1.187M101.22 20.79l2.788-15.558c.327-1.9 1.456-2.818 3.355-2.818h3.682c1.993 0 3.091 1.036 3.18 3.028l.297 7.213c.059.923.03 1.84-.03 2.822-.034.147.03.234.118.234.117 0 .176-.058.205-.205.21-1.04.42-1.87.684-2.793l2.285-7.686c.508-1.782 1.636-2.613 3.506-2.613h4.068c2.075 0 3.145 1.187 2.94 3.262l-1.56 15.39c-.152 1.216-.835 1.841-2.051 1.841h-1.9c-1.309 0-1.958-.742-1.84-2.021l1.366-13.448c.03-.147-.029-.205-.18-.205h-.03c-.117 0-.175.058-.239.146l-3.145 9.679c-.566 1.753-1.694 2.554-3.5 2.554h-1.725c-1.987 0-3.086-1.04-3.179-3.028l-.503-9.146c-.029-.147-.088-.205-.239-.205h-.059c-.146 0-.205.058-.234.176l-2.378 13.746c-.176 1.157-.889 1.753-2.075 1.753h-1.881c-1.338 0-1.993-.772-1.754-2.11M140.672 21.06l-.146-1.929c-.03-.356-.27-.566-.626-.566h-4.512c-.356 0-.566.151-.683.478l-.86 2.315c-.386 1.07-1.098 1.543-2.197 1.543h-2.613c-1.455 0-2.05-.889-1.484-2.256l6.592-15.827c.679-1.631 1.836-2.403 3.619-2.403h3.71c1.93 0 3.058.982 3.326 2.881l2.169 15.553c.175 1.31-.474 2.051-1.783 2.051h-2.524c-1.216 0-1.9-.625-1.988-1.84m-3.296-7.184h2.11c.415 0 .59-.21.561-.625l-.293-3.8c-.093-.654-.063-1.308-.034-1.928 0-.24-.117-.357-.352-.357h-.151c-.205 0-.357.118-.386.328a16.2 16.2 0 0 1-.532 1.9l-1.397 3.798c-.18.416.03.684.474.684M152.422 0h-.982c-.263 0-.356.093-.356.371v1.895h-1.67V.37c0-.278-.083-.371-.361-.371h-.96c-.279 0-.372.093-.372.371v5.377c0 .263.093.361.372.361h.966c.279 0 .362-.098.362-.361V3.77h1.67v1.978c0 .263.093.361.356.361h.982c.268 0 .361-.098.361-.361V.37c0-.278-.093-.371-.361-.371m3.687.01h-2.1c-.274 0-.366.093-.366.361v5.377c0 .264.092.361.366.361h2.1c1.69 0 2.637-.928 2.637-2.407v-1.29c0-1.484-.948-2.402-2.637-2.402m.932 2.432v1.235c0 .61-.297.928-.996.928h-.703v-3.09h.703c.699 0 .996.317.996.927"/>
    </g>
    <path d="M32.772 1.79s-2.378-.122-3.076-.127H13.864c-.85.03-2.076.103-3.209.127-.937.02-1.792.044-2.573.132l-.43.073-.234.02c-4.405.722-6.197 3.35-7.15 10.138-1.132 8.072 1.275 10.836 8.102 10.836 1.167 0 2.163.215 3.076.127h15.831c.913.088 1.939-.127 3.209-.127 6.826 0 9.234-2.11 10.392-10.362C42.006 4.55 39.598 1.79 32.77 1.79" fill="#e91052"/>
    <g fill="#f7f7f7">
        <path d="M13.184 6.64v7.72c0 3.004-1.72 4.796-5.035 4.796-2.524 0-4.043-1.133-4.756-3.091-.2-.533-.054-.787.478-.987l1.9-.678c.552-.2.806-.108 1.026.439.312.732.698 1.118 1.425 1.118.899 0 1.338-.512 1.338-1.577V6.64c0-.566.181-.767.767-.767h2.105c.571 0 .752.2.752.767M20.082 5.61c3.604 0 5.62 1.958 5.62 5.122v3.297c0 3.164-2.016 5.122-5.62 5.122-3.623 0-5.635-1.958-5.635-5.122v-3.297c0-3.164 2.012-5.122 5.635-5.122m0 3.203c-1.28 0-2.012.601-2.012 1.758v3.624c0 1.152.732 1.753 2.012 1.753 1.265 0 1.997-.6 1.997-1.753V10.57c0-1.157-.732-1.758-1.997-1.758M36.038 6.64v7.72c0 3.004-1.719 4.796-5.035 4.796-2.524 0-4.043-1.133-4.756-3.091-.2-.533-.054-.787.479-.987l1.9-.678c.551-.2.805-.108 1.025.439.312.732.693 1.118 1.426 1.118.898 0 1.338-.512 1.338-1.577V6.64c0-.566.18-.767.766-.767h2.105c.566 0 .752.2.752.767"/>
    </g>
    <style>
    </style>
</svg>
