<svg xmlns="http://www.w3.org/2000/svg" height="286.17" width="600" viewBox="0 0 158.75 75.715">
    <g fill="#80cc28">
        <path d="M50.872 0l12.625 3.79v59.3H50.872zM31.557 11.98c-8.174 0-16.1 1.05-23.655 3.01L0 12.62v59.31l12.625 3.78V61.8a94.342 94.342 0 0 0 18.92 1.93h.012c6.962-.01 12.613-5.66 12.613-12.62v-26.5c0-6.97-5.651-12.62-12.613-12.62zm0 12.63l-.012 26.5a80.9 80.9 0 0 1-18.92-2.24V26.83a81.526 81.526 0 0 1 18.932-2.22zM101.744 51.11H82.813V12.62H70.2v38.49c0 6.97 5.651 12.62 12.613 12.62h18.931v-.01c6.962 0 12.613-5.65 12.613-12.61v-34.7l-12.613-3.79zM148.684 34.39l-15.642-5.12v-.03a1.547 1.547 0 0 1-1.113-1.48v-3.15c7.84 0 15.543.56 23.124 1.57l3.684-12.27c-8.767-1.24-17.707-1.92-26.808-1.92-6.974 0-12.613 5.65-12.613 12.62v3.15c0 6.03 3.771 11.18 9.076 13.23l16.62 5.49c.643.2 1.113.78 1.113 1.48v3.16c-7.84 0-15.544-.57-23.124-1.56l-3.673 12.25c8.755 1.24 17.696 1.92 26.797 1.92 6.974 0 12.622-5.64 12.622-12.61v-3.16c0-6.39-4.238-11.8-10.063-13.57"/>
    </g>
</svg>
