<svg version="1.1" viewBox="0 0 800 219.48" xml:space="preserve" xmlns="http://www.w3.org/2000/svg">
<style type="text/css">
	.st0{fill:#FCB73D;}
</style>
<g transform="matrix(.75786 0 0 .75786 -327.55 -299.36)">
	
		
			
				<path class="st0" d="m616.3 426.6c-52.9 0-95.7 42.9-95.7 95.9 0 34.6 28 62.7 62.6 62.7 7.5 0 14.6-1.3 21.2-3.7h-1c-26.9 0-48.8-21.9-48.8-48.9 0-33.6 27.2-60.9 60.7-60.9 28.1 0 51.8 19.2 58.7 45.1 0 0.2 0.1 0.4 0.2 0.6 0.4 1.4 0.6 2.8 0.9 4.2 0.6 3.5 1 7.2 1 10.9 0 53.5-43.3 96.8-96.6 96.8-59.1 0-107.3-46.5-110.3-105-0.1-1.9-0.1-3.8-0.1-5.7 0-61.9 44.8-113.4 103.6-123.6-77.7 0.7-140.5 64-140.5 142 0 2.4 0.1 4.9 0.2 7.3 3.8 78.1 68.2 140.3 147.1 140.3 81.3 0 147.3-66.1 147.3-147.6-0.1-60.9-49.5-110.4-110.5-110.4z"/>
			
		
	
	
		<g fill="#fff">
			<path d="m955.7 447.9c-0.2 0.3-0.3 0.6-0.2 0.9l51.3 182c0.1 0.2 0.2 0.3 0.4 0.4l1 0.1c6.1 0.9 22.3 3.1 41.4 3.1 19.7 0 34.3-2.1 41.2-3.1l0.7-0.1c0.2 0 0.4-0.2 0.4-0.4l51.6-182.2c0.1-0.3 0-0.6-0.1-0.8-0.2-0.2-0.4-0.4-0.7-0.4-3.4-0.2-8.7-0.5-15.4-0.8-20.4-0.9-38.3 12.2-43.7 31.8-11.1 41-26.2 97.4-26.3 97.7l-0.4 1.6-0.6 0.2c-0.1 0-2.2 0.6-6 0.6-4.4 0-6.3-0.6-6.4-0.6l-0.6-0.2-0.4-1.6s-15.6-55.8-27.5-98.1c-5.3-18.8-22.2-31.5-41.6-31.5h-2c-6.5 0.3-11.8 0.6-15.3 0.8-0.3 0.1-0.6 0.3-0.8 0.6z"/>
			<path d="m1320.3 548.5c0.1-20.6-0.5-42.4-1.5-54.3-0.9-11.8-4-21.5-9.1-28.8-5-7.2-13.1-12.5-24.1-15.8-10.5-3.1-21.5-5.1-44.1-5.1-22.2 0-33.5 2.1-44.4 5.4-11.5 3.5-20.2 9-25.8 16.4-5.7 7.5-9.3 17.2-10.7 29-1.5 12.2-2.2 27-2.2 44 0 17.1 0.7 31.9 2.2 44 1.4 11.7 5.2 21.4 11.2 28.7s15.3 12.7 27.7 16.1c13.7 3.8 27.4 5.3 48.7 5.3 6.3 0 12.7-0.3 19.5-0.5h0.7c2.1-0.1 4.1-0.2 6.2-0.3 22.8-1.5 40.6-20.6 40.6-43.4v-1.6c0-0.3-0.1-0.5-0.3-0.7s-0.4-0.3-0.8-0.3l-2.9 0.2c-6.8 0.5-13.1 1-21 1.5-10.5 0.6-19.2 0.9-25.9 0.9-10.9 0-19.6-0.3-25.7-0.8-6.6-0.5-11.8-2.1-15.2-4.6-3.7-2.6-6-6.6-6.8-11.7-0.8-4.6-1.1-10.8-1.1-18.6v-31.1c0-8.2 0.3-14.7 0.8-19.3 0.5-5 1.7-8.9 3.6-11.7 2-3.1 4.9-5 8.6-5.8 3.2-0.7 7.4-1 12.8-1 5.1 0 9.2 0.3 12.4 1 3.6 0.7 6.5 2.6 8.7 5.5 2 2.8 3.3 6.7 3.8 11.9 0.5 4.5 0.7 10.5 0.8 18 0 1.1-0.4 2.2-1.2 3s-1.9 1.2-3 1.2h-17.8c-0.6 0-1.1 0.5-1.1 1.1v25.8c0 0.6 0.5 1 1 1 11.7 0.1 51.4 0.3 73.4-2.8 1.2 0.2 2-0.7 2-1.8z"/>
			<path d="m1487.8 484.7v-36.3c0-0.6-0.5-1.2-1.1-1.2l-0.5-0.1c-9.8-1-35.8-3.6-70.3-3.6-36.8 0-64.2 2.6-74.5 3.6l-0.6 0.1c-0.6 0.1-1.1 0.6-1.1 1.2v36.2c0 0.5 0.4 1 1 1h48.3v143.8c0 0.5 0.4 1 1 1h47.7c0.5 0 1-0.4 1-1v-143.7h48.3c0.3 0 0.8-0.4 0.8-1z"/>
			<path d="m802.3 629.7c9.1 1.3 19.6 2.4 31.2 3.3 13.2 1 27.8 1.5 40 1.5 9.7 0 18.8-0.6 27.1-1.8 8.2-1.2 15.3-3.8 21.2-8 5.9-4.1 10.6-10.3 14.1-18.4s5.2-19.3 5.2-33.3c0-9-0.6-16.5-1.9-22.3-1.2-5.8-2.9-10.5-4.8-14-3.8-6.6-8.6-11.1-14.1-13.1-5.7-2.1-12.1-3.7-18.9-4.6l-31.3-4.4c-3.8-0.6-6.6-1.1-8.7-1.5-2.3-0.5-4-1.3-5.2-2.5s-1.9-2.8-2.2-4.7c-0.3-1.8-0.4-4.2-0.4-7.1 0-3 0.3-5.5 0.9-7.4 0.6-2.1 2.1-3.8 4.4-5 1.9-1.2 4.8-1.9 8.6-2.3l0.6-0.1c3.3-0.3 5.3-0.5 11.4-0.5 6 0 12 0.2 17.8 0.4 9 0.4 17.7-2.8 24.2-9.1s10.1-14.7 10.1-23.8c0-0.6-0.4-1.1-1-1.2-8.7-1.6-18.1-2.9-28-3.9-10.4-1-18.3-1.5-30.1-1.5-10.1 0-19.6 0.6-28.4 1.9-8.6 1.2-16.2 3.9-22.6 7.8-6.3 3.9-11.4 9.6-15 16.9-3.6 7.4-5.5 17.3-5.5 29.7 0 7.9 0.5 15.3 1.4 21.8s2.7 12.2 5.3 17.1c2.6 4.8 6.3 8.8 10.9 11.7 4.7 3 10.8 5 18.2 5.8l30.2 4.1c4.5 0.5 8.3 1.1 11 1.8 2.9 0.7 5 1.5 6.6 2.6 1.6 1.2 2.6 2.7 3.2 4.7 0.5 1.8 0.7 4.4 0.7 7.5s-0.2 5.8-0.6 7.8c-0.4 2.3-1.5 4.2-3.4 5.8-2.1 1.6-5.2 2.7-9.5 3.1-4.2 0.5-10.5 0.6-18.5 0.7-3.9 0.1-10.4-0.1-19.9-0.6h-1.7c-8.7 0-16.9 3.3-23.2 9.3-6.7 6.4-10.4 15.1-10.4 24.4 0 0.8 0.4 1.3 1 1.4z"/>
		</g>
	
</g>
</svg>
