<svg width="600" height="135.94" viewBox="0 0 158.75 35.967" xmlns="http://www.w3.org/2000/svg">
    <path d="M153.25 35.97H5.5c-3.022 0-5.498-2.474-5.498-5.499V5.501C.002 2.48 2.478.003 5.5.003h147.75c3.025 0 5.498 2.476 5.498 5.498v24.97c0 3.025-2.473 5.499-5.498 5.499" fill="#7f5c47"/>
    <path d="M151.88 32.02h-43.024a2.93 2.93 0 0 1-2.922-2.922V6.873a2.93 2.93 0 0 1 2.922-2.923h43.024a2.93 2.93 0 0 1 2.922 2.923v22.225a2.93 2.93 0 0 1-2.922 2.922" fill="#00b3c7"/>
    <g fill="#fff">
        <path d="M20.28 10.04v10.582c0 .923-.04 1.707-.123 2.348a7.485 7.485 0 0 1-.523 1.958c-.459 1.108-1.217 1.974-2.276 2.595-1.061.62-2.346.933-3.856.933-1.368 0-2.51-.216-3.424-.646-.918-.436-1.656-1.138-2.215-2.102a7.563 7.563 0 0 1-.718-1.774 7.207 7.207 0 0 1-.277-1.918c0-.64.177-1.13.533-1.466.362-.34.823-.512 1.385-.512.538 0 .946.158 1.22.471.28.308.495.795.646 1.456.149.705.302 1.27.461 1.692.157.426.42.787.79 1.087.369.302.892.451 1.569.451 1.81 0 2.717-1.325 2.717-3.978V10.04c0-.826.18-1.446.543-1.856.362-.416.854-.626 1.477-.626.635 0 1.138.21 1.507.626.374.41.564 1.03.564 1.856zM32.81 7.56c2.092 0 3.889.428 5.393 1.282a8.213 8.213 0 0 1 3.405 3.62c.771 1.566 1.158 3.404 1.158 5.516 0 1.566-.212 2.989-.635 4.265-.418 1.272-1.051 2.377-1.897 3.312-.849.939-1.887 1.656-3.117 2.154-1.23.497-2.64.748-4.225.748-1.58 0-2.994-.256-4.245-.769-1.25-.513-2.294-1.23-3.127-2.153-.836-.928-1.467-2.046-1.897-3.353-.426-1.305-.636-2.712-.636-4.225 0-1.55.22-2.973.666-4.265.444-1.297 1.087-2.402 1.928-3.312.846-.907 1.877-1.605 3.087-2.092 1.215-.484 2.596-.728 4.142-.728zm5.814 10.397c0-1.482-.241-2.763-.718-3.845-.48-1.087-1.164-1.907-2.05-2.461-.882-.554-1.898-.83-3.046-.83-.82 0-1.58.153-2.276.46a4.948 4.948 0 0 0-1.784 1.344c-.5.59-.898 1.34-1.19 2.256-.287.91-.43 1.935-.43 3.076 0 1.148.143 2.19.43 3.117.292.923.703 1.692 1.23 2.307a5.066 5.066 0 0 0 1.815 1.364 5.55 5.55 0 0 0 2.256.451 5.536 5.536 0 0 0 2.882-.78c.881-.525 1.581-1.335 2.102-2.43.517-1.091.779-2.435.779-4.029zM48.9 25.95v-6.398l-4.932-7.65c-.43-.69-.736-1.225-.913-1.61-.18-.389-.266-.727-.266-1.015 0-.463.18-.866.543-1.21.362-.34.81-.512 1.343-.512.56 0 .985.161 1.272.482.292.315.728.948 1.302 1.897l3.773 6.131 3.825-6.131c.226-.382.415-.7.574-.954.157-.259.328-.502.513-.728.19-.225.4-.395.625-.513.231-.122.516-.184.851-.184.513 0 .939.172 1.282.513.349.335.523.722.523 1.158 0 .357-.09.715-.266 1.077-.18.356-.477.851-.893 1.487l-5.055 7.762v6.398c0 .84-.194 1.471-.584 1.887-.385.41-.877.615-1.477.615-.602 0-1.094-.205-1.476-.615-.377-.41-.564-1.038-.564-1.887zM66.59 10.02l7.865 11.905V9.908c0-.78.166-1.364.502-1.753.333-.395.79-.595 1.364-.595.587 0 1.048.2 1.384.595.34.39.513.974.513 1.753v15.883c0 1.779-.736 2.666-2.205 2.666a2.87 2.87 0 0 1-.995-.164 2.43 2.43 0 0 1-.83-.503 4.978 4.978 0 0 1-.708-.81c-.22-.307-.44-.62-.666-.943l-7.67-11.761v11.833c0 .774-.182 1.359-.543 1.753-.357.395-.816.595-1.374.595-.575 0-1.041-.2-1.395-.595-.348-.402-.523-.986-.523-1.753V10.523c0-.656.075-1.171.226-1.548.17-.416.456-.754.861-1.015.41-.267.846-.4 1.313-.4.369 0 .681.061.943.184.267.118.495.277.687.482.197.205.4.47.605.79.21.323.425.656.646 1.005zM95.21 11.06h-9.218v4.963h8.49c.62 0 1.087.14 1.394.42.308.274.462.644.462 1.108 0 .458-.151.835-.451 1.128-.303.287-.77.43-1.405.43h-8.49v5.742h9.536c.64 0 1.123.151 1.446.451.328.295.492.692.492 1.19 0 .48-.164.869-.492 1.169-.323.294-.805.44-1.446.44H84.413c-.897 0-1.538-.197-1.928-.594-.39-.395-.584-1.036-.584-1.918V10.414c0-.587.084-1.066.256-1.435a1.66 1.66 0 0 1 .82-.82c.375-.17.854-.257 1.436-.257H95.21c.648 0 1.13.149 1.446.441.32.287.482.664.482 1.128 0 .48-.162.867-.482 1.159-.316.287-.798.43-1.446.43z"/>
    </g>
    <path d="M131.15 7.61v5.245l13.001 5.078-13.001 5.153v5.28l16.731-7.526c.076-.028.162-.057.236-.085a6.46 6.46 0 0 0 1.216-.596c.356-.229.643-.526.858-.893.215-.366.32-.815.315-1.34-.006-.529-.12-.975-.349-1.339a2.656 2.656 0 0 0-.869-.869 6.121 6.121 0 0 0-1.22-.569c-.046-.016-.1-.032-.148-.049z" fill="#7f5c47"/>
    <path d="M111.8 7.61v5.245l13.001 5.078-13.001 5.153v5.28l16.729-7.526c.076-.028.164-.056.238-.085.457-.171.861-.368 1.217-.596.354-.229.642-.526.857-.893.215-.366.32-.815.315-1.34-.006-.529-.12-.975-.349-1.339a2.647 2.647 0 0 0-.866-.869 6.15 6.15 0 0 0-1.223-.569c-.046-.016-.1-.032-.148-.049z" fill="#fff"/>
</svg>
