<?xml version="1.0" encoding="UTF-8" standalone="no"?>
<!-- Created with Inkscape (http://www.inkscape.org/) -->
<svg xmlns:rdf="http://www.w3.org/1999/02/22-rdf-syntax-ns#" xmlns="http://www.w3.org/2000/svg" height="219.77" width="600" version="1.1" xmlns:cc="http://creativecommons.org/ns#" xmlns:dc="http://purl.org/dc/elements/1.1/">
 <defs></defs>
 <metadata>
  <rdf:RDF>
   <cc:Work rdf:about="">
    <dc:format>image/svg+xml</dc:format>
    <dc:type rdf:resource="http://purl.org/dc/dcmitype/StillImage"/>
    <dc:title/>
   </cc:Work>
  </rdf:RDF>
 </metadata>
 <path fill-rule="nonzero" fill="#3cade2" d="m462.65,140.64c-11.936-1.492-13.428-13.428-11.936-19.395,0-4.4758,1.492-16.411,4.4759-19.395,1.492-2.9839,7.4598-8.9517,10.444-8.9517,0,0-1.492,10.444,1.492,16.411,1.492,5.9678,8.9517,16.411,8.9517,16.411s-2.9839,14.92-13.428,14.92zm-147.71-38.79c4.4759-5.9678,8.9517-10.444,14.92-7.4598,4.4759,2.9839,0,13.428-2.9839,16.411-4.4759,2.9839-16.411,8.9517-16.411,8.9517s0-10.444,4.4758-17.903zm-259.6,80.56c-5.9678,11.936-14.92,31.331-29.839,16.411,0,0-11.936-17.903,2.9839-29.839,13.428-13.428,35.807-20.887,35.807-20.887s-2.9839,23.871-8.9517,34.315zm187.99-147.7c5.9678,1.492-5.9678,40.283-11.936,46.251,0,0,4.4759-47.742,11.936-46.251zm138.75,26.855c1.492-10.444,5.9678-26.855,10.444-25.363,5.9678,0,4.4758,11.936,0,26.855-5.9678,14.92-14.92,28.347-14.92,28.347s1.492-19.395,4.4758-29.839zm217.83,44.756c-2.9839-5.9678-4.4758-4.4758-5.9678-1.492,0,4.4759-14.92,35.807-26.855,37.299-11.936,0-22.379-16.411-25.363-19.395,4.4758-14.92,41.775-44.759,41.775-44.759s-5.9678-7.4598-11.936-10.444c-5.9678-2.9839-8.9517,0-11.936,2.9839-2.9839,2.9839-25.363,40.283-25.363,40.283s-7.4598-13.428-7.4598-16.411c4.4758-10.444,4.4758-19.395-2.9839-22.379-5.9678-1.492-11.936,2.9839-16.411,8.9517-4.4759,4.4758,4.4759,26.855,4.4759,26.855s-10.444,13.428-20.887,10.444c1.492-17.903-2.9839-32.823-8.9517-35.807-11.936-4.4759-5.9678,0-13.428,1.492-22.379,1.492-26.855,19.395-32.823,28.347-5.9678,10.444-16.411,5.9678-16.411,5.9678,0-1.492-1.492-49.234-20.887-34.315-22.379,17.903,5.9678,41.775,5.9678,41.775s-4.4758,16.411-13.428,17.903c-8.9517,0-14.92-22.379-13.428-32.823,10.444-10.444,49.234-86.533,16.411-96.977-28.347-2.9839-35.807,102.94-35.807,102.94s-17.903,25.363-32.823,28.347c-14.92,1.492-13.428-11.936-13.428-16.411,4.4758,0,4.4758-1.492,10.444-2.9839,20.887-8.9517,40.283-44.759,11.936-47.742-29.839-2.9839-41.775,44.759-41.775,46.251-1.492,1.492-7.4598,14.92-17.903,16.411-10.444,0-14.92-19.395-14.92-19.395s5.9678-4.4758,11.936-10.444c4.4759-5.9678,16.411-32.823-4.4758-34.315-19.395-2.9839-37.299,31.331-37.299,31.331v-7.4598c13.428-14.92,43.267-83.549,11.936-86.533-28.347,0-31.331,98.469-31.331,98.469s-16.411,31.331-25.363,31.331c-8.9517,0-10.444-35.807-8.9517-37.299,1.492-1.492,16.411-31.331-1.492-31.331-16.411-1.492-17.903,41.775-17.903,43.267,0,0-11.936,25.363-19.395,25.363-8.9517,0-7.4598-22.379-4.4758-31.331,2.9839-10.444,11.936-31.331,1.492-34.315-11.936-1.492-19.395,23.871-19.395,29.839-2.9839,4.4759-23.871,14.92-23.871,14.92,5.9678-50.726,2.9839-98.469,2.9839-104.44,5.9678-2.9839,14.92-14.92,0-17.903-13.446-2.9863-19.414,11.933-19.414,11.933s-10.444,4.4758-31.331,7.4598c-19.395,4.4758-34.315,2.9839-34.315,2.9839,0,11.936,11.936,23.871,14.92,26.855,2.9839,1.492,5.9678,0,7.4598,0s25.363-10.444,40.283-19.395c1.492,1.492,0,92.501-4.4759,102.94-10.444,4.4758-59.678,22.379-65.646,43.267-4.4759,16.411-1.492,44.759,31.331,43.267,44.759-1.492,55.202-82.057,55.202-82.057l25.363-14.92s-4.4759,32.823,11.936,35.807c16.411,4.4759,32.823-22.379,32.823-22.379s5.9678,26.855,20.887,28.347c14.92,0,29.839-29.839,29.839-29.839v16.411c0,2.9839,0,7.4598,5.9678,7.4598,5.9678-1.492,14.92-8.9517,14.92-8.9517s0-13.428,1.492-19.395c0-5.9678,16.411-38.791,25.363-37.299,10.444,1.492-2.9839,22.379-5.9678,22.379s-10.444,1.492-13.428,7.4598c-1.492,4.4759,5.9678,5.9678,5.9678,5.9678s4.4758,28.347,19.395,31.331c14.92,4.4759,29.839-19.395,29.839-19.395s1.492,20.887,23.871,20.887c23.871,0,43.267-31.331,43.267-31.331s0,29.839,28.347,29.839c26.855,1.492,25.363-29.839,28.347-29.839,17.903,0,16.411-5.9678,16.411-1.492,0,4.4759-2.9839,29.839,25.363,29.839,26.855-1.492,26.855-26.855,29.839-28.347,19.395,1.492,26.855-13.428,26.855-13.428l7.4598,11.936s-10.444,26.855-11.936,31.331c0,5.9678,8.9517,8.9517,8.9517,8.9517l11.95-26.86s11.936,20.887,28.347,19.395c25.363,0,41.775-50.726,40.283-55.202"/>
 <path fill-rule="nonzero" fill="#3cade2" d="m85.183,198.82c7.4598-10.444,304.36-47.742,440.13-17.903,25.363,7.4598,14.92,32.823,1.492,28.347-102.94-35.807-358.07-23.871-429.68-2.9839-2.9839,0-13.428-4.4759-11.936-7.4598"/>
</svg>
