<svg xmlns="http://www.w3.org/2000/svg" height="692.83" width="600" viewBox="0 0 158.75 183.312">
    <path d="M79.371 40.576V91.67l27.93-16.12-.05-23.261 17.16 9.788.04 6.501-45.38 69.832-21.56-45.82zM35.1 144.926l.015-35.47 18.596 45.99s25.65 15.51 25.77 15.45l68.56-39.59v-25.37l-31.21 18.82 31.17-44.91.04-27.031-68.67-39.093-22.04 12.289-22.246 47.595c-.076-18.366-.167-22.73-.167-34.685-10.682 6.076-24.001 13.212-24.001 13.212l.015 79.053z" fill="#f7ec29"/>
    <path d="M148.041 105.94v25.37l-68.55 39.58c-.14.09-25.79-15.44-25.79-15.44l-18.563-45.99-.016 35.46-24.198-13.73-.015-79.051s13.319-7.137 24.001-13.228c0 11.97.106 16.349.182 34.709l22.229-47.588 22.05-12.304 68.67 39.108-.05 27.034-31.15 44.89zM79.371 0L0 45.836v91.654l79.151 45.82 79.6-45.82V45.836z" fill="#2a2d7d"/>
    <path d="M107.251 52.28l.05 23.26-27.93 16.12V40.567L57.511 92.6l21.56 45.82 45.38-69.851-.05-6.501z" fill="#2a2d7d"/>
</svg>
