<?xml version="1.0" encoding="UTF-8" standalone="no"?>
<svg
   id="_Слой_1"
   data-name="Слой 1"
   width="500"
   height="314.14"
   viewBox="0 0 500 314.14"
   version="1.1"
   sodipodi:docname="Kabaret_TV.svg"
   inkscape:version="1.3.1 (9b9bdc1480, 2023-11-25, custom)"
   xmlns:inkscape="http://www.inkscape.org/namespaces/inkscape"
   xmlns:sodipodi="http://sodipodi.sourceforge.net/DTD/sodipodi-0.dtd"
   xmlns="http://www.w3.org/2000/svg"
   xmlns:svg="http://www.w3.org/2000/svg">
  <sodipodi:namedview
     id="namedview21"
     pagecolor="#ffffff"
     bordercolor="#000000"
     borderopacity="0.25"
     inkscape:showpageshadow="2"
     inkscape:pageopacity="0.0"
     inkscape:pagecheckerboard="0"
     inkscape:deskcolor="#d1d1d1"
     inkscape:zoom="1.694"
     inkscape:cx="250"
     inkscape:cy="157.02479"
     inkscape:window-width="1530"
     inkscape:window-height="1136"
     inkscape:window-x="0"
     inkscape:window-y="0"
     inkscape:window-maximized="1"
     inkscape:current-layer="g26" />
  <defs
     id="defs1">
    <style
       id="style1">
      .cls-1 {
        fill: #cf9c02;
      }

      .cls-1, .cls-2, .cls-3, .cls-4, .cls-5, .cls-6 {
        stroke-width: 0px;
      }

      .cls-1, .cls-7 {
        opacity: .99;
      }

      .cls-2 {
        fill: #fff12d;
      }

      .cls-3 {
        fill: #ccc;
      }

      .cls-4 {
        fill: #ca0088;
      }

      .cls-5 {
        fill: #00acec;
      }

      .cls-6 {
        fill: #ccc225;
      }
    </style>
  </defs>
  <g
     id="g26"
     inkscape:label="Kabaret tv logo">
    <polygon
       class="cls-4"
       points="267.61 5.48 403.38 211.08 32.53 304.1 267.61 5.48"
       id="polygon1" />
    <polygon
       class="cls-5"
       points="400.87,195.57 250.9,0 37.36,314.14 "
       id="polygon2"
       style="display:inline" />
    <g
       id="g25"
       inkscape:label="text">
      <g
         id="g24"
         inkscape:label="kabaret background">
        <polygon
           class="cls-1"
           points="23.77,143.72 449.57,68.6 428.85,187.89 2.89,263.02 "
           id="polygon3"
           style="display:inline" />
        <polygon
           class="cls-2"
           points="0,260.12 20.88,140.82 446.67,65.7 425.96,185 "
           id="polygon4"
           style="display:inline" />
      </g>
      <g
         id="g23"
         inkscape:label="kabaret">
        <g
           class="cls-7"
           id="g10"
           style="display:inline">
          <path
             class="cls-6"
             d="m 42.56,207.92 -3.43,0.61 -7.36,43.46 -22.92,4.06 18.22,-108.63 22.99,-4.07 -7.36,43.32 2.73,-0.48 19.56,-45.48 20.82,-3.69 -2.17,16.25 -19.56,40.76 6.17,35.35 -2.73,16.28 -19.91,3.52 -5.05,-41.27 z"
             id="path4" />
          <path
             class="cls-6"
             d="m 105.69,238.72 1.91,-21.21 -11.3,1.98 -5.65,21.87 -21.12,3.7 3.04,-18.21 28.11,-92.36 31.5,-5.52 -2.12,87.81 -3.04,18.21 -21.33,3.74 z m 5.36,-77.12 -9.11,35.73 7.56,-1.32 3.04,-34.67 -1.48,0.26 z"
             id="path5" />
          <path
             class="cls-6"
             d="m 176.97,226.08 -44.4,7.87 18.07,-107.8 44.4,-7.87 c 3.15,0.72 5.48,2.4 6.98,5.04 1.51,2.64 1.89,6.3 1.15,10.97 l -2.71,16.01 c -0.79,4.82 -2.18,8.81 -4.17,11.98 -1.99,3.17 -5.3,5.87 -9.94,8.11 6.81,1.58 9.52,6.87 8.13,15.86 l -3.4,19.89 c -0.93,5.51 -2.46,9.71 -4.59,12.62 -2.13,2.91 -5.3,5.35 -9.52,7.33 z m -10.28,-14.91 1.74,-1.73 4.24,-25.15 -1.25,-1.27 -8.55,1.51 -4.72,28.14 8.55,-1.51 z m 3.89,-71.82 -4.72,28 8.55,-1.51 1.53,-1.76 4.31,-25.02 -1.18,-1.21 -8.48,1.5 z"
             id="path6" />
          <path
             class="cls-6"
             d="m 229.08,217.33 1.89,-21.27 -11.22,1.99 -5.61,21.93 -20.96,3.71 3.01,-18.26 27.9,-92.62 31.26,-5.53 -2.1,88.05 -3.01,18.26 -21.17,3.75 z m 5.33,-77.33 -9.04,35.83 7.5,-1.33 3.01,-34.76 z"
             id="path7" />
          <path
             class="cls-6"
             d="m 278.42,208.62 -23.05,4.05 18.33,-108.49 45.04,-7.92 c 3.19,0.72 5.56,2.41 7.08,5.07 1.53,2.66 1.91,6.34 1.16,11.04 l -3.95,23.1 c -0.94,5.35 -2.43,9.47 -4.48,12.35 -2.04,2.88 -5.02,5.28 -8.92,7.21 l 7.33,33.39 -2.61,13.88 -18.47,3.25 -7.33,-39.6 -3.03,0.53 -7.12,42.14 z m 23.82,-91.18 -8.6,1.51 -4.93,28.7 8.67,-1.52 1.69,-1.8 4.37,-25.6 z"
             id="path8" />
          <path
             class="cls-6"
             d="m 317.48,201.71 18.33,-108.56 47.66,-8.38 -3.81,21.88 -24.54,4.32 -3.45,20.67 23.13,-4.07 -3.6,21.84 -23.13,4.07 -3.74,22.29 25.24,-4.44 -3.74,21.87 -48.37,8.51 z"
             id="path9" />
          <path
             class="cls-6"
             d="m 439.98,96.01 -16.36,2.92 -14.41,86.71 -22.84,4.07 14.41,-86.71 -16.36,2.92 3.69,-21.87 55.64,-9.91 -3.76,21.88 z"
             id="path10" />
        </g>
        <g
           id="g17"
           style="display:inline">
          <path
             class="cls-4"
             d="m 39.7,205.66 -3.43,0.61 -7.36,43.46 -22.92,4.06 18.22,-108.63 22.99,-4.07 -7.36,43.32 2.73,-0.48 19.56,-45.48 20.82,-3.69 -2.17,16.25 -19.56,40.76 6.17,35.35 -2.73,16.28 -19.91,3.52 -5.05,-41.27 z"
             id="path11" />
          <path
             class="cls-4"
             d="m 102.83,236.46 1.91,-21.21 -11.3,1.98 -5.65,21.87 -21.12,3.7 3.04,-18.21 28.11,-92.36 31.5,-5.52 -2.12,87.81 -3.04,18.21 -21.33,3.74 z m 5.37,-77.12 -9.11,35.73 7.56,-1.32 3.04,-34.67 -1.48,0.26 z"
             id="path12" />
          <path
             class="cls-4"
             d="m 174.12,223.82 -44.4,7.87 18.07,-107.8 44.4,-7.87 c 3.15,0.72 5.48,2.4 6.98,5.04 1.51,2.64 1.89,6.3 1.15,10.97 l -2.71,16.01 c -0.79,4.82 -2.18,8.81 -4.17,11.98 -1.99,3.17 -5.3,5.87 -9.94,8.11 6.81,1.58 9.52,6.87 8.13,15.86 l -3.4,19.89 c -0.93,5.51 -2.46,9.71 -4.59,12.62 -2.13,2.91 -5.3,5.35 -9.52,7.33 z m -10.29,-14.91 1.74,-1.73 4.24,-25.15 -1.25,-1.27 -8.55,1.51 -4.72,28.14 8.55,-1.51 z m 3.9,-71.82 -4.72,28 8.55,-1.51 1.53,-1.76 4.31,-25.02 -1.18,-1.21 -8.48,1.5 z"
             id="path13" />
          <path
             class="cls-4"
             d="m 226.23,215.07 1.89,-21.27 -11.22,1.99 -5.61,21.93 -20.96,3.71 3.01,-18.26 27.9,-92.62 31.26,-5.53 -2.1,88.05 -3.01,18.26 -21.17,3.75 z m 5.33,-77.33 -9.04,35.83 7.5,-1.33 3.01,-34.76 z"
             id="path14" />
          <path
             class="cls-4"
             d="m 275.56,206.36 -23.05,4.05 18.33,-108.49 45.04,-7.92 c 3.19,0.72 5.56,2.41 7.08,5.07 1.53,2.66 1.91,6.34 1.16,11.04 l -3.95,23.1 c -0.94,5.35 -2.43,9.47 -4.48,12.35 -2.04,2.88 -5.02,5.28 -8.92,7.21 l 7.33,33.39 -2.61,13.88 -18.47,3.25 -7.33,-39.6 -3.03,0.53 -7.12,42.14 z m 23.82,-91.18 -8.6,1.51 -4.93,28.7 8.67,-1.52 1.69,-1.8 4.37,-25.6 z"
             id="path15" />
          <path
             class="cls-4"
             d="m 314.63,199.45 18.33,-108.56 47.66,-8.38 -3.81,21.88 -24.54,4.32 -3.45,20.67 23.13,-4.07 -3.6,21.84 -23.13,4.07 -3.74,22.29 25.24,-4.44 -3.74,21.87 -48.37,8.51 z"
             id="path16" />
          <path
             class="cls-4"
             d="m 437.13,93.75 -16.36,2.92 -14.41,86.71 -22.84,4.07 14.41,-86.71 -16.36,2.92 3.69,-21.87 55.64,-9.91 -3.76,21.88 z"
             id="path17" />
        </g>
      </g>
      <g
         id="g22"
         inkscape:label="tv">
        <g
           class="cls-7"
           id="g19">
          <path
             class="cls-3"
             d="M470.98,59.69l-4.77.84-5.74,33.7-11.01,1.94,5.74-33.7-4.05.71,1.69-9.48,4.05-.71,1.33-8.09,11.01-1.94-1.33,8.09,4.77-.84-1.69,9.48Z"
             id="path18" />
          <path
             class="cls-3"
             d="M486.25,89.55l-13.96,2.52.84-42.02,10.77-1.95-2.45,27.74.77-.14,7.03-28.57,10.74-1.94-13.75,44.35Z"
             id="path19" />
        </g>
        <g
           id="g21">
          <path
             class="cls-4"
             d="M468.13,56.71l-4.77.84-5.74,33.7-11.01,1.94,5.74-33.7-4.05.71,1.69-9.48,4.05-.71,1.33-8.09,11.01-1.94-1.33,8.09,4.77-.84-1.69,9.48Z"
             id="path20" />
          <path
             class="cls-4"
             d="M483.4,86.57l-13.96,2.52.84-42.02,10.77-1.95-2.45,27.74.77-.14,7.03-28.57,10.74-1.94-13.75,44.35Z"
             id="path21" />
        </g>
      </g>
    </g>
  </g>
</svg>
