<svg width="800" height="136.65" version="1.1" viewBox="0 0 1594.5 271.77" xmlns="http://www.w3.org/2000/svg">
 <defs>
  <style>.cls-1{fill:#e2e2df;}.cls-2,.cls-3,.cls-4{fill-rule:evenodd;}.cls-2{fill:url(#b);}.cls-3{fill:url(#a);}.cls-4{fill:url(#c);}</style>
  <linearGradient id="b" x1="421.57" x2="438.09" y1="72.32" y2="89.91" gradientUnits="userSpaceOnUse">
   <stop stop-color="#eb6209" offset="0"/>
   <stop stop-color="#e42313" offset=".44"/>
   <stop stop-color="#e42313" offset=".64"/>
   <stop stop-color="#c10c1a" offset=".89"/>
   <stop stop-color="#e40e1b" offset="1"/>
  </linearGradient>
  <linearGradient id="a" x1="432.88" x2="479" y1="41.91" y2="90.03" gradientUnits="userSpaceOnUse">
   <stop stop-color="#e8e100" offset="0"/>
   <stop stop-color="#c5d300" offset=".44"/>
   <stop stop-color="#95c11f" offset=".64"/>
   <stop stop-color="#80a51b" offset=".92"/>
   <stop stop-color="#93b316" offset="1"/>
  </linearGradient>
  <radialGradient id="c" cx="426.23" cy="7.71" r="115.16" gradientUnits="userSpaceOnUse">
   <stop stop-color="#83d0f5" offset="0"/>
   <stop stop-color="#009fe3" offset=".44"/>
   <stop stop-color="#0094da" offset=".64"/>
   <stop stop-color="#0074b6" offset=".89"/>
   <stop stop-color="#007ec7" offset="1"/>
  </radialGradient>
 </defs>
 <g transform="matrix(3.125 0 0 3.125 0 -.09428)" data-name="Laag 2">
  <g data-name="Layer 1">
   <path class="cls-1" d="m146.3 87a2.09 2.09 0 0 1-2.22-2.25v-5.75h-1v-1h1v-2l1.46-0.45v2.45h1.55v1h-1.55v5.8c0 0.71 0.31 1.29 1.12 1.29a2.14 2.14 0 0 0 0.43-0.07v0.93a2.55 2.55 0 0 1-0.79 0.05z"/>
   <path class="cls-1" d="m157.1 83.05c0.17 2 1.11 3 2.72 3a4.34 4.34 0 0 0 2.19-0.51l0.38 1a5.35 5.35 0 0 1-2.69 0.61c-2.33 0-4-1.47-4-4.64s1.49-4.6 3.59-4.6 3.42 1.39 3.39 4.36zm2.17-4.24c-1.29 0-2.25 1-2.21 3.46l4.26-0.65c0-2.01-0.78-2.81-2.05-2.81z"/>
   <path class="cls-1" d="m172.16 87v-13h1.45v13z"/>
   <path class="cls-1" d="m184.45 83.05c0.17 2 1.11 3 2.72 3a4.34 4.34 0 0 0 2.19-0.51l0.38 1a5.35 5.35 0 0 1-2.69 0.61c-2.33 0-4-1.47-4-4.64s1.49-4.6 3.59-4.6 3.42 1.39 3.39 4.36zm2.17-4.24c-1.29 0-2.25 1-2.21 3.46l4.26-0.65c0-2.01-0.78-2.81-2.05-2.81z"/>
   <path class="cls-1" d="m202.8 87h-1.31l-3-8.91h1.55l1.96 6.33a6.33 6.33 0 0 1 0.23 1.09 5.49 5.49 0 0 1 0.21-1.09l1.9-6.38h1.36z"/>
   <path class="cls-1" d="m215.47 76.32a0.81 0.81 0 1 1 0.84-0.8 0.84 0.84 0 0 1-0.84 0.8zm-0.73 10.68v-9h1.46v9z"/>
   <path class="cls-1" d="m227.72 87.08a4 4 0 0 1-2.29-0.61l0.4-1a2.84 2.84 0 0 0 1.74 0.53 1.54 1.54 0 0 0 1.65-1.54c0-0.93-0.5-1.34-1.47-1.7-1.74-0.65-2.08-1.57-2.08-2.5a2.49 2.49 0 0 1 2.66-2.45 3.64 3.64 0 0 1 2.08 0.62l-0.38 0.87a2.5 2.5 0 0 0-1.49-0.49 1.36 1.36 0 0 0-1.48 1.4c0 0.86 0.62 1.28 1.48 1.6 1.74 0.67 2.17 1.59 2.17 2.62a2.77 2.77 0 0 1-2.99 2.65z"/>
   <path class="cls-1" d="m240.84 76.32a0.81 0.81 0 1 1 0.84-0.8 0.84 0.84 0 0 1-0.84 0.8zm-0.73 10.68v-9h1.45v9z"/>
   <path class="cls-1" d="m252.37 83.05c0.17 2 1.11 3 2.71 3a4.36 4.36 0 0 0 2.2-0.51l0.38 1a5.38 5.38 0 0 1-2.69 0.61c-2.33 0-4-1.47-4-4.64s1.49-4.6 3.59-4.6 3.44 1.35 3.44 4.32zm2.17-4.24c-1.29 0-2.25 1-2.22 3.46l4.27-0.65c0-2.01-0.78-2.81-2.05-2.81z"/>
   <path class="cls-1" d="m289.27 87a2.08 2.08 0 0 1-2.21-2.25v-5.75h-1v-1h1v-2l1.45-0.45v2.45h1.55v1h-1.55v5.8c0 0.71 0.32 1.29 1.12 1.29a2 2 0 0 0 0.43-0.07v0.93a2.55 2.55 0 0 1-0.79 0.05z"/>
   <path class="cls-1" d="m300.08 83.05c0.16 2 1.11 3 2.71 3a4.36 4.36 0 0 0 2.2-0.51l0.38 1a5.43 5.43 0 0 1-2.7 0.61c-2.33 0-4-1.47-4-4.64s1.48-4.6 3.58-4.6 3.43 1.39 3.39 4.36zm2.16-4.24c-1.29 0-2.24 1-2.21 3.46l4.26-0.65c0-2.01-0.77-2.81-2.05-2.81z"/>
   <path class="cls-1" d="m315.13 87v-13h1.46v13z"/>
   <path class="cls-1" d="m327.43 83.05c0.16 2 1.11 3 2.71 3a4.36 4.36 0 0 0 2.2-0.51l0.38 1a5.43 5.43 0 0 1-2.7 0.61c-2.33 0-4-1.47-4-4.64s1.48-4.6 3.58-4.6 3.43 1.39 3.39 4.36zm2.16-4.24c-1.28 0-2.24 1-2.21 3.46l4.26-0.65c0-2.01-0.77-2.81-2.05-2.81z"/>
   <path class="cls-1" d="m344.23 79v8h-1.45v-8h-1v-1h1v-1.22a2.62 2.62 0 0 1 3-2.81v0.93a1.49 1.49 0 0 0-1.56 1.71v1.39h1.56v1z"/>
   <path class="cls-1" d="m357.74 87.11c-2.43 0-3.49-2-3.49-4.61s1.07-4.63 3.47-4.63 3.49 2 3.49 4.63-1.06 4.61-3.47 4.61zm0-8.31c-1.71 0-2 1.9-2 3.7s0.37 3.6 2 3.6 2-1.81 2-3.6-0.3-3.7-2-3.7z"/>
   <path class="cls-1" d="m375.57 87v-6.4c0-0.83-0.35-1.74-1.87-1.74a3.72 3.72 0 0 0-1.69 0.32v7.82h-1.45v-8.5a7.41 7.41 0 0 1 3.26-0.63c2.48 0 3.2 1.37 3.2 2.65v6.48z"/>
   <path class="cls-1" d="m387.55 76.32a0.81 0.81 0 1 1 0.84-0.8 0.84 0.84 0 0 1-0.84 0.8zm-0.73 10.68v-9h1.46v9z"/>
   <path class="cls-1" d="m399.08 83.05c0.17 2 1.11 3 2.71 3a4.36 4.36 0 0 0 2.2-0.51l0.38 1a5.38 5.38 0 0 1-2.69 0.61c-2.33 0-4-1.47-4-4.64s1.49-4.6 3.59-4.6 3.42 1.39 3.39 4.36zm2.17-4.24c-1.29 0-2.25 1-2.22 3.46l4.27-0.65c0-2.01-0.78-2.81-2.05-2.81z"/>
   <path class="cls-1" d="m4.44 76.32a0.83 0.83 0 0 1-0.86-0.79 0.85 0.85 0 0 1 1.7 0 0.82 0.82 0 0 1-0.84 0.79zm-0.73 10.68v-9h1.46v9z"/>
   <path class="cls-1" d="m20 87v-6.4c0-0.83-0.35-1.74-1.87-1.74a3.72 3.72 0 0 0-1.69 0.32v7.82h-1.44v-8.5a7.39 7.39 0 0 1 3.25-0.63c2.48 0 3.21 1.37 3.21 2.65v6.48z"/>
   <path class="cls-1" d="m33.79 87a2.09 2.09 0 0 1-2.22-2.25v-5.75h-1v-1h1v-2l1.43-0.46v2.46h1.55v1h-1.55v5.8c0 0.71 0.31 1.29 1.12 1.29a1.61 1.61 0 0 0 0.43-0.07v0.93a2.61 2.61 0 0 1-0.76 0.05z"/>
   <path class="cls-1" d="m44.59 83.05c0.17 2 1.11 3 2.71 3a4.36 4.36 0 0 0 2.2-0.51l0.38 1a5.35 5.35 0 0 1-2.69 0.61c-2.33 0-4-1.47-4-4.64s1.49-4.6 3.59-4.6 3.42 1.39 3.39 4.37zm2.17-4.24c-1.29 0-2.25 1-2.21 3.46l4.26-0.64c0-2.02-0.81-2.82-2.05-2.82z"/>
   <path class="cls-1" d="m63 79a2.64 2.64 0 0 0-2 0.16v7.84h-1.45v-8.48a7 7 0 0 1 3.83-0.63z"/>
   <path class="cls-1" d="m77.23 87v-6.4c0-0.83-0.35-1.74-1.87-1.74a3.68 3.68 0 0 0-1.68 0.32v7.82h-1.46v-8.5a7.47 7.47 0 0 1 3.26-0.63c2.48 0 3.21 1.37 3.21 2.65v6.48z"/>
   <path class="cls-1" d="m89.41 83.05c0.17 2 1.11 3 2.71 3a4.36 4.36 0 0 0 2.2-0.51l0.38 1a5.38 5.38 0 0 1-2.69 0.61c-2.33 0-4-1.47-4-4.64s1.49-4.6 3.59-4.6 3.42 1.39 3.39 4.37zm2.17-4.24c-1.29 0-2.25 1-2.22 3.46l4.27-0.64c0-2.02-0.78-2.82-2.05-2.82z"/>
   <path class="cls-1" d="m107 87a2.09 2.09 0 0 1-2.22-2.25v-5.75h-1v-1h1v-2l1.46-0.45v2.45h1.55v1h-1.55v5.8c0 0.71 0.31 1.29 1.12 1.29a1.61 1.61 0 0 0 0.43-0.07v0.93a2.55 2.55 0 0 1-0.79 0.05z"/>
   <path class="cls-2" d="m423.53 86.75h17a17.47 17.47 0 0 0-15.92-17c-0.27 0-0.75-0.09-1.12-0.1z" fill="url(#b)"/>
   <path class="cls-3" d="m423.53 52.3c7.85 0.24 16.49 2.38 24.23 10.12s9.91 16.43 10.24 24.33h17.42c-0.42-11.89-3.48-24.75-15.33-36.58a49.77 49.77 0 0 0-18.48-12 52 52 0 0 0-16.2-3.31c-0.23 0-1.26-0.11-1.88-0.11z" fill="url(#a)"/>
   <path class="cls-4" d="m423.53 17.45a69.27 69.27 0 0 1 48.9 20.38 67.88 67.88 0 0 1 15.9 24.63 69.88 69.88 0 0 1 4.48 24.29h17.43a87.64 87.64 0 0 0-5.59-30.44 86.81 86.81 0 0 0-81.12-56.25z" fill="url(#c)"/>
   <path class="cls-1" d="m27.13 62.2-16.13-21.79h-0.18v21.79h-10.82v-62.2h10.83v38.82h0.17l15.32-19.33h11.1l-16.65 19.57 18.62 23.14z"/>
   <path class="cls-1" d="m60.74 63c-13.16 0-19.74-4.76-19.74-13 0-11.26 12.31-14.5 27-15.77v-2.3c0-5.55-3.94-7-9.58-7a32.08 32.08 0 0 0-12.08 2.61l-2.52-5.54a42.37 42.37 0 0 1 16.56-3.3c9.94 0 17.82 3.72 17.82 14.74v26.46c-3.85 1.82-9.94 3.1-17.46 3.1zm7.26-24.18c-10.3 1.11-16.66 3.09-16.66 10.86 0 5.54 3.76 7.92 10.12 7.92a16.93 16.93 0 0 0 6.54-1.19z"/>
   <path class="cls-1" d="m104.18 63c-7.43 0-12.89-1.35-15.94-3.09v-59.91h10.84v20.68a22.83 22.83 0 0 1 9.49-1.74c11.19 0 19 8.16 19 20.91-0.02 14.34-8.35 23.15-23.39 23.15zm1.43-38.43a13.76 13.76 0 0 0-6.53 1.27v30.33a16.19 16.19 0 0 0 5.55 0.88c8.59 0 12.08-6.5 12.08-16.64 0-8.88-2.86-15.85-11.1-15.85z"/>
   <path class="cls-1" d="m144.31 44.37c0.9 7.92 5.19 11.88 13.16 11.88a29.21 29.21 0 0 0 12.18-2.37l2.6 6.1c-3.41 1.66-8.6 3-15.94 3-13.7 0-22.38-7.85-22.38-22.27 0-13.94 8-22 20.59-22 12.8 0 19.79 7.53 19.34 21.87zm9.85-19.73c-6.36 0-10.74 4.6-10.47 14.82l20-2.7c-0.04-8.63-3.53-12.12-9.53-12.12z"/>
   <path class="cls-1" d="m182.05 62.2v-62.2h10.95v62.2z"/>
   <path class="cls-1" d="m230.34 62.2v-30.27c0-3.49-1.79-7.13-8.68-7.13a20.17 20.17 0 0 0-7.52 1.2v36.2h-10.92v-40.41c4.56-1.9 10.74-3.09 18.89-3.09 14.41 0 19.16 6.18 19.16 13.07v30.43z"/>
   <path class="cls-1" d="m269.42 63c-13.52 0-20.05-9.51-20.05-22.11 0-12.75 6.53-22.18 20.05-22.18s20.06 9.43 20.06 22.18c0 12.59-6.54 22.11-20.06 22.11zm0-38.19c-7.7 0-9.22 7.84-9.22 16s1.7 15.61 9.22 15.61c7.79 0 9.22-7.52 9.22-15.61s-1.43-16.01-9.22-16.01z"/>
   <path class="cls-1" d="m315.91 63c-13.52 0-20.06-9.51-20.06-22.11 0-12.75 6.54-22.18 20.06-22.18s20 9.43 20 22.18c0.09 12.59-6.48 22.11-20 22.11zm0-38.19c-7.7 0-9.22 7.84-9.22 16s1.7 15.61 9.22 15.61c7.79 0 9.22-7.52 9.22-15.61s-1.43-16.01-9.22-16.01z"/>
   <path class="cls-1" d="m365.35 25.83c-3.68-1.11-7.7-0.95-10.21 0.32v36.05h-10.92v-40.41c5-2.14 11.1-3.33 23.27-3z"/>
   <path class="cls-1" d="m391.6 63c-14.23 0-22.47-8.08-22.47-21.63 0-13.95 8.59-22.27 21.13-22.27a28.9 28.9 0 0 1 7.25 0.8v-19.9h10.92v59.9c-3.85 1.9-9.31 3.1-16.83 3.1zm5.91-37.87a18.92 18.92 0 0 0-4.83-0.56c-9.49 0-12.72 7.21-12.72 16.24 0 9.67 3.49 16 11.91 16 2.6 0 4.39-0.24 5.64-1z"/>
  </g>
 </g>
</svg>
