<svg xmlns="http://www.w3.org/2000/svg" height="65.635" width="600" viewBox="0 0 158.75 17.366">
    <path d="M153.788 1.631c2.374 0 2.566.384 2.566 2.565 0 2.41-.097 2.734-2.23 2.734h-2.59V3.213h-2.327v5.348h5.54c3.285 0 4.005-1.103 4.005-4.28 0-3.178-.792-4.281-4.328-4.281h-5.216v1.63zM138.106.001h2.326v3.212h4.82V0h2.326v8.561h-2.326V4.844h-4.82v3.717h-2.326V.001" fill="#bdbcbc"/>
    <path d="M127.29 17.366c-2.583 0-4.544-.55-6.218-2.248l2.153-2.152c1.076 1.076 2.534 1.434 4.113 1.434 1.96 0 3.013-.74 3.013-2.104 0-.597-.167-1.1-.526-1.435-.335-.311-.717-.478-1.507-.598l-2.057-.286c-1.458-.216-2.535-.67-3.3-1.412-.813-.813-1.22-1.913-1.22-3.347 0-3.038 2.249-5.166 5.932-5.166 2.343 0 4.041.574 5.5 1.985l-2.105 2.08c-1.076-1.028-2.367-1.172-3.49-1.172-1.77 0-2.632.98-2.632 2.153 0 .43.144.885.502 1.22.335.31.886.573 1.579.67l2.009.286c1.555.215 2.535.646 3.253 1.316.908.86 1.315 2.104 1.315 3.61 0 3.3-2.75 5.166-6.314 5.166zm-13.721 0c-1.818 0-3.348-.622-4.592-1.866a4.928 4.928 0 0 1-1.388-2.558c-.19-.957-.286-2.368-.286-4.233 0-1.865.096-3.277.286-4.233.192-.98.647-1.818 1.388-2.559C110.22.674 111.75.052 113.569.052c3.276 0 5.692 1.912 6.266 5.38h-3.372c-.36-1.458-1.268-2.415-2.87-2.415-.91 0-1.627.287-2.129.885-.693.741-.837 1.507-.837 4.807 0 3.3.144 4.065.837 4.807.502.598 1.22.884 2.129.884 1.602 0 2.51-.956 2.87-2.415h3.372c-.574 3.467-3.014 5.381-6.266 5.381zm-12.407-.143V.195h3.325v17.028zm-8.711.143c-2.583 0-4.544-.55-6.218-2.248l2.153-2.152c1.076 1.076 2.535 1.434 4.113 1.434 1.961 0 3.013-.74 3.013-2.104 0-.597-.167-1.1-.526-1.435-.335-.311-.718-.478-1.507-.598l-2.056-.286c-1.459-.216-2.535-.67-3.3-1.412-.814-.813-1.22-1.913-1.22-3.347 0-3.038 2.248-5.166 5.93-5.166 2.344 0 4.043.574 5.501 1.985l-2.104 2.08c-1.077-1.028-2.368-1.172-3.492-1.172-1.77 0-2.63.98-2.63 2.153 0 .43.143.885.501 1.22.336.31.886.573 1.58.67l2.008.286c1.554.215 2.535.646 3.253 1.316.908.86 1.315 2.104 1.315 3.61 0 3.3-2.75 5.166-6.314 5.166zm-13.901 0c-2.583 0-4.544-.55-6.218-2.248l2.152-2.152c1.077 1.076 2.535 1.434 4.114 1.434 1.961 0 3.013-.74 3.013-2.104 0-.597-.168-1.1-.526-1.435-.334-.311-.718-.478-1.507-.598l-2.056-.286c-1.459-.216-2.535-.67-3.3-1.412-.814-.813-1.22-1.913-1.22-3.347 0-3.038 2.248-5.166 5.93-5.166 2.344 0 4.042.574 5.501 1.985l-2.104 2.08c-1.077-1.028-2.368-1.172-3.492-1.172-1.77 0-2.63.98-2.63 2.153 0 .43.143.885.502 1.22.334.31.885.573 1.578.67l2.009.286c1.554.215 2.535.646 3.252 1.316.909.86 1.316 2.104 1.316 3.61 0 3.3-2.75 5.166-6.314 5.166zM63.975 5.218l-2.152 6.193h4.232zm3.97 12.005L66.94 14.21h-6.05l-1.028 3.013h-3.468L62.588.195h2.607l6.217 17.028zm-23.967 0V.195h3.324v14.062h7.725v2.966zm-8.56.143c-1.818 0-3.349-.621-4.592-1.865a4.922 4.922 0 0 1-1.387-2.559c-.192-.956-.287-2.368-.287-4.233 0-1.865.095-3.276.287-4.233.191-.98.645-1.818 1.387-2.559C32.069.674 33.6.052 35.418.052c3.276 0 5.691 1.913 6.265 5.38h-3.372c-.359-1.458-1.267-2.415-2.87-2.415-.908 0-1.626.288-2.128.885-.694.742-.837 1.507-.837 4.807 0 3.3.143 4.066.837 4.807.502.598 1.22.885 2.129.885 1.602 0 2.51-.957 2.87-2.415h3.371c-.574 3.467-3.013 5.38-6.265 5.38" fill="#fff"/>
    <path d="M25.83 1.044C25.83.468 25.363 0 24.786 0H1.046C.468 0 .001.468.001 1.044v15.132c0 .576.467 1.044 1.043 1.044h23.741c.577 0 1.044-.468 1.044-1.044V1.045" fill="#ff3700"/>
    <path d="M0 9.626c.781 2.129 2.289 3.794 4.272 5.104 1.653.952 3.487 1.646 5.534 1.635 6.891-.035 11.262-5.056 11.23-11.217-.008-1.564-.464-3.046-1.052-4.394-1.174.391-3.632.9-4.894 1.049-.246 1.92-1.966 3.27-4.329 3.794.003.331-.083 2.466-.114 2.814.975-.15 2.159-.364 3.15-.658-1.138 4.37-5.574 6.284-9.486 4.758C1.72 11.498.021 9.35 0 5.217v4.409" fill="#fff"/>
</svg>
