<svg width="600" height="401.6" viewBox="0 0 158.75 106.257" xmlns="http://www.w3.org/2000/svg">
    <path d="M0 0v35.798c0 17.145 10.319 33.02 26.3 39.688 15.478 6.456 31.909 3.545 43.841-5.9C76.994 64.69 82.418 55.325 84.27 49.53c0 0-8.996 3.862-21.061 4.841 1.667-7.117 3.07-18.362 3.44-21.696 11.377-2.143 23.918-8.837 27.437-23.865 10.186-.794 20.902-2.355 32.173-4.71 3.28 5.795 6.191 18.256 6.191 27.332 0 38.841-30.109 70.353-69.268 70.353-26.776 0-51.356-15.24-63.183-40.667v45.138h158.75V-.003z" fill="#fff"/>
</svg>
