<svg width="800mm" height="721.22mm" version="1.1" viewBox="0 0 800 721.22" xmlns="http://www.w3.org/2000/svg" xmlns:xlink="http://www.w3.org/1999/xlink">
 <defs>
  <style>.cls-1{isolation:isolate;}.cls-2{fill:#fff200;}.cls-3,.cls-4{fill:#f04d24;}.cls-4{mix-blend-mode:darken;}.cls-5{fill:#fff;}.cls-6,.cls-7{fill:#0d4ba0;}.cls-7,.cls-8{stroke:#0d4ba0;}.cls-7{stroke-width:0.37px;}.cls-8{fill:none;stroke-width:1.37px;}</style>
  <style>.cls-1{isolation:isolate;}.cls-2{fill:#fff200;}.cls-3,.cls-4{fill:#f04d24;}.cls-4{mix-blend-mode:darken;}.cls-5{fill:#fff;}.cls-6,.cls-7{fill:#0d4ba0;}.cls-7,.cls-8{stroke:#0d4ba0;}.cls-7{stroke-width:0.37px;}.cls-8{fill:none;stroke-width:1.37px;}</style>
  <style>.cls-1{isolation:isolate;}.cls-2{fill:#fff200;}.cls-3,.cls-4{fill:#f04d24;}.cls-4{mix-blend-mode:darken;}.cls-5{fill:#fff;}.cls-6,.cls-7{fill:#0d4ba0;}.cls-7,.cls-8{stroke:#0d4ba0;}.cls-7{stroke-width:0.37px;}.cls-8{fill:none;stroke-width:1.37px;}</style>
  <rect id="i" width="128" height="128" opacity=".2"/>
  <radialGradient id="h" cx="-122.56" cy="456.31" r=".9998" gradientTransform="matrix(40.313 0 0 -40.313 5027.3 18476)" gradientUnits="userSpaceOnUse">
   <stop stop-color="#fff" offset="0"/>
   <stop stop-color="#D4DEF1" offset=".081078"/>
   <stop stop-color="#A9BFE3" offset=".1907"/>
   <stop stop-color="#86A8D8" offset=".3055"/>
   <stop stop-color="#6A97CF" offset=".4241"/>
   <stop stop-color="#538CC9" offset=".5478"/>
   <stop stop-color="#4084C5" offset=".6788"/>
   <stop stop-color="#3280C3" offset=".8219"/>
   <stop stop-color="#2D7EC2" offset="1"/>
  </radialGradient>
  <linearGradient id="r">
   <stop stop-color="#9d9d9d" offset="0"/>
   <stop stop-color="#e4e4e4" stop-opacity=".97647" offset=".57914"/>
   <stop stop-color="#cfcfcf" offset="1"/>
  </linearGradient>
  <path id="t" d="m82.6 9.4 10.5 34.1s10 2.3 19 12.2c5.3 5.8 10.6 14.2 12.4 29.8 2.2 18.8-9.4 34.6-16.3 40.2-4.3 3.5-20.3 12.3-34.3 9.1l20.6 32.2s38.6 2.6 72.8-25.8c25-20.8 29.5-47.9 25.3-66.4-7.7-34.3-35.3-47.5-48.4-53.7-23.4-11-51.5-11.8-59.4-11.8-1.4 0-2.2 0.1-2.2 0.1"/>
  <clipPath id="b">
   <use width="100%" height="100%" xlink:href="#t"/>
  </clipPath>
  <linearGradient id="f" x1="-121.58" x2="-122.47" y1="456.24" y2="456.24" gradientTransform="matrix(0 -157.7 -157.7 0 72091 -19158)" gradientUnits="userSpaceOnUse">
   <stop stop-color="#a7a6a7" offset="0"/>
   <stop stop-color="#c4c4c4" offset=".20088"/>
   <stop stop-color="#c3c3c3" offset=".52149"/>
   <stop stop-color="#727272" offset=".7797"/>
   <stop stop-color="#b5b5b5" offset="1"/>
  </linearGradient>
  <linearGradient id="a" x1="79.426" x2="216.86" y1="96.967" y2="96.967" gradientUnits="userSpaceOnUse" xlink:href="#r"/>
  <style>.cls-1{isolation:isolate;}.cls-2{fill:#fff200;}.cls-3,.cls-4{fill:#f04d24;}.cls-4{mix-blend-mode:darken;}.cls-5{fill:#fff;}.cls-6,.cls-7{fill:#0d4ba0;}.cls-7,.cls-8{stroke:#0d4ba0;}.cls-7{stroke-width:0.37px;}.cls-8{fill:none;stroke-width:1.37px;}</style>
  <style>.cls-1{isolation:isolate;}.cls-2{fill:#fff200;}.cls-3,.cls-4{fill:#f04d24;}.cls-4{mix-blend-mode:darken;}.cls-5{fill:#fff;}.cls-6,.cls-7{fill:#0d4ba0;}.cls-7,.cls-8{stroke:#0d4ba0;}.cls-7{stroke-width:0.37px;}.cls-8{fill:none;stroke-width:1.37px;}</style>
  <style>.cls-1{isolation:isolate;}.cls-2{fill:#fff200;}.cls-3,.cls-4{fill:#f04d24;}.cls-4{mix-blend-mode:darken;}.cls-5{fill:#fff;}.cls-6,.cls-7{fill:#0d4ba0;}.cls-7,.cls-8{stroke:#0d4ba0;}.cls-7{stroke-width:0.37px;}.cls-8{fill:none;stroke-width:1.37px;}</style>
  <path id="l" d="m75.3 5.7 12.3 40.7s6 1.3 9.3 3.1c10.3 5.5 12.8 10.5 17.3 17.2 4.4 6.5 10.8 26.8-0.3 45.8-16.1 27.5-46.5 19.4-46.5 19.4l26 39s40.1 3 76.4-26.9c26.5-21.8 31.2-50.4 26.8-69.8-8.1-36-37.4-50-51.3-56.5-23.3-11-54.3-12-65.6-12h-4.4"/>
  <polygon id="n" points="75.3 5.7 87.6 46.4 93.1 43.5 82.6 9.4"/>
  <polygon id="m" points="67.4 131.8 93.4 170.8 94.5 167 74 134.8"/>
  <linearGradient id="q" x1="75.3" x2="93.1" y1="5.7" y2="43.5" gradientUnits="userSpaceOnUse">
   <stop stop-color="#afafaf" stop-opacity=".91765" offset="0"/>
   <stop stop-color="#b4b4b4" stop-opacity=".99608" offset="1"/>
  </linearGradient>
  <linearGradient id="p" x1="67.4" x2="94.5" y1="131.9" y2="167" gradientUnits="userSpaceOnUse">
   <stop stop-color="#afafaf" stop-opacity=".91765" offset="0"/>
   <stop stop-color="#908e8e" stop-opacity=".83529" offset="1"/>
  </linearGradient>
  <radialGradient id="o" cx="425.75" cy="221.22" r="16.006" gradientTransform="matrix(1.052 0 2.2873e-7 1.1419 -22.071 -31.399)" gradientUnits="userSpaceOnUse">
   <stop stop-color="#fff" offset="0"/>
   <stop stop-color="#d3e5f1" offset=".25938"/>
   <stop stop-color="#3c6dac" offset=".77781"/>
   <stop stop-color="#094391" offset="1"/>
  </radialGradient>
  <style>.cls-1{isolation:isolate;}.cls-2{fill:#fff200;}.cls-3,.cls-4{fill:#f04d24;}.cls-4{mix-blend-mode:darken;}.cls-5{fill:#fff;}.cls-6,.cls-7{fill:#0d4ba0;}.cls-7,.cls-8{stroke:#0d4ba0;}.cls-7{stroke-width:0.37px;}.cls-8{fill:none;stroke-width:1.37px;}</style>
  <style>.cls-1{isolation:isolate;}.cls-2{fill:#fff200;}.cls-3,.cls-4{fill:#f04d24;}.cls-4{mix-blend-mode:darken;}.cls-5{fill:#fff;}.cls-6,.cls-7{fill:#0d4ba0;}.cls-7,.cls-8{stroke:#0d4ba0;}.cls-7{stroke-width:0.37px;}.cls-8{fill:none;stroke-width:1.37px;}</style>
  <style>.cls-1{isolation:isolate;}.cls-2{fill:#fff200;}.cls-3,.cls-4{fill:#f04d24;}.cls-4{mix-blend-mode:darken;}.cls-5{fill:#fff;}.cls-6,.cls-7{fill:#0d4ba0;}.cls-7,.cls-8{stroke:#0d4ba0;}.cls-7{stroke-width:0.37px;}.cls-8{fill:none;stroke-width:1.37px;}</style>
  <filter id="s" x="-.0089131" y="-.017306" width="1.0178" height="1.0346" color-interpolation-filters="sRGB">
   <feGaussianBlur stdDeviation="0.11447089"/>
  </filter>
 </defs>
 <g transform="matrix(7.2122 0 0 7.2122 -2928.7 -1221)" stroke-width=".13866">
  <path d="m438.1 226.44a16.006 16.006 0 0 1-16.006 16.006 16.006 16.006 0 0 1-16.006-16.006 16.006 16.006 0 0 1 16.006-16.006 16.006 16.006 0 0 1 16.006 16.006z" fill="url(#o)" fill-rule="evenodd" stroke-linecap="round" stroke-linejoin="round" stroke-width=".056926" style="paint-order:stroke fill markers"/>
  <g transform="matrix(1.791 0 0 1.6133 -14.755 298.77)" fill="#fff" stroke-width=".064521">
   <g transform="matrix(.33449 0 0 .33449 217.05 -75.465)" fill="#fff">
    <clipPath fill="url(#a)">
     <use width="100%" height="100%" fill="url(#a)" xlink:href="#l"/>
    </clipPath>
    <path class="st1" d="m67.4 5.7h133.7v168.2h-133.7z" clip-path="url(#c)"/>
   </g>
   <path class="st3" transform="matrix(.33449 0 0 .33449 217.05 -75.465)" d="m74 9.3h122.7v160.3h-122.7z" clip-path="url(#b)"/>
   <g transform="matrix(.33449 0 0 .33449 217.05 -75.465)" fill="#fff">
    <clipPath>
     <use width="100%" height="100%" xlink:href="#n"/>
    </clipPath>
    <path class="st4" d="m91 52.1-28.8-10.5 15.2-41.6 28.8 10.5z" clip-path="url(#e)"/>
    <clipPath>
     <use width="100%" height="100%" xlink:href="#m"/>
    </clipPath>
    <path class="st5" d="m91.3 179.5-36.5-13.2 15.7-43.2 36.5 13.3z" clip-path="url(#d)"/>
   </g>
  </g>
  <g transform="matrix(1.791 0 0 1.6133 -14.755 298.77)" opacity=".75738" stroke-width=".064521">
   <g transform="matrix(.33449 0 0 .33449 217.05 -75.465)" fill="url(#a)">
    <clipPath id="c" fill="url(#a)">
     <use width="100%" height="100%" fill="url(#a)" xlink:href="#l"/>
    </clipPath>
    <linearGradient id="g" x1="-122.54" x2="-121.54" y1="456.29" y2="456.29" gradientTransform="matrix(130.71 0 0 -130.71 16086 59734)" gradientUnits="userSpaceOnUse">
     <stop fill="url(#a)" stop-color="#bababa" stop-opacity=".63922" offset="0"/>
     <stop fill="url(#a)" stop-color="#808285" offset=".046875"/>
     <stop fill="url(#a)" stop-color="#A5A7AA" offset=".2205"/>
     <stop fill="url(#a)" stop-color="#CCCED0" offset=".4105"/>
     <stop fill="url(#a)" stop-color="#DCDDDE" offset=".5052"/>
     <stop fill="url(#a)" stop-color="#DCDDDE" offset="1"/>
    </linearGradient>
    <path class="st1" d="m67.4 5.7h133.7v168.2h-133.7z" clip-path="url(#c)" fill="url(#a)"/>
   </g>
   <path class="st3" transform="matrix(.33449 0 0 .33449 217.05 -75.465)" d="m74 9.3h122.7v160.3h-122.7z" clip-path="url(#b)" fill="url(#f)"/>
   <g transform="matrix(.33449 0 0 .33449 217.05 -75.465)">
    <clipPath id="e">
     <use width="100%" height="100%" xlink:href="#n"/>
    </clipPath>
    <linearGradient id="k" x1="-122.57" x2="-121.57" y1="456.35" y2="456.35" gradientTransform="matrix(27.85 10.137 10.137 -27.85 -1142.5 13973)" gradientUnits="userSpaceOnUse">
     <stop stop-color="#DCDDDE" offset="0"/>
     <stop stop-color="#DCDDDE" offset=".010422"/>
     <stop stop-color="#B3B5B8" offset=".3854"/>
     <stop stop-color="#8E9093" offset=".7954"/>
     <stop stop-color="#808285" offset="1"/>
    </linearGradient>
    <path class="st4" d="M 106.2,10.5 91,52.1 62.2,41.6 77.4,0 Z" clip-path="url(#e)" fill="url(#q)"/>
    <clipPath id="d">
     <use width="100%" height="100%" xlink:href="#m"/>
    </clipPath>
    <linearGradient id="j" x1="-122.57" x2="-121.57" y1="456.31" y2="456.31" gradientTransform="matrix(35.519 12.928 12.928 -35.519 -1482.7 17937)" gradientUnits="userSpaceOnUse">
     <stop stop-color="#808285" offset="0"/>
     <stop stop-color="#808285" offset=".046875"/>
     <stop stop-color="#A5A7AA" offset=".3429"/>
     <stop stop-color="#CCCED0" offset=".6666"/>
     <stop stop-color="#DCDDDE" offset=".8281"/>
     <stop stop-color="#DCDDDE" offset="1"/>
    </linearGradient>
    <path class="st5" d="m107 136.4-15.7 43.1-36.5-13.2 15.7-43.2z" clip-path="url(#d)" fill="url(#p)"/>
   </g>
  </g>
  <g transform="matrix(.82813 0 -.020514 .85985 147.05 141.43)" opacity=".7377" stroke-width=".028934">
   <g transform="matrix(1.2235 0 -.16904 1.3139 -16.231 -50.229)" fill="#999" filter="url(#s)" aria-label="HD">
    <path d="m360.76 69.289v-6.1267h-4.1266v15.875h4.1266v-6.5057h5.9583v6.5057h4.1266v-15.875h-4.1266v6.1267z"/>
    <path d="m373.54 79.037h5.853c4.4003 0 8.0637-3.4739 8.0637-7.9374s-3.6423-7.9374-8.0637-7.9374h-5.853zm4.1266-12.38h0.96848c2.6528 0 4.5266 1.6001 4.5266 4.4424 0 3.0949-2.1054 4.4424-4.5687 4.4424h-0.92637z"/>
   </g>
   <g transform="matrix(1.2235 0 -.16904 1.3139 -16.231 -50.229)" fill="#e6e6e6" aria-label="HD">
    <path d="m360.76 69.289v-6.1267h-4.1266v15.875h4.1266v-6.5057h5.9583v6.5057h4.1266v-15.875h-4.1266v6.1267z"/>
    <path d="m373.54 79.037h5.853c4.4003 0 8.0637-3.4739 8.0637-7.9374s-3.6423-7.9374-8.0637-7.9374h-5.853zm4.1266-12.38h0.96848c2.6528 0 4.5266 1.6001 4.5266 4.4424 0 3.0949-2.1054 4.4424-4.5687 4.4424h-0.92637z"/>
   </g>
  </g>
 </g>
 <style type="text/css">.st0{fill:#007BC2;}</style>
 <style type="text/css">.st0{fill:#007BC2;}</style>
 <style type="text/css">.st0{fill:#007BC2;}</style>
 <style type="text/css">.st0{fill:#007BC2;}</style>
 <style type="text/css">.st0{fill:#007BC2;}</style>
 <style type="text/css">.st0{fill:#007BC2;}</style>
 <style type="text/css">.st0{clip-path:url(#i);fill:url(#h);}
	.st1{clip-path:url(#c);fill:url(#g);}
	.st2{fill-rule:evenodd;clip-rule:evenodd;}
	.st3{clip-path:url(#b);fill:url(#f);}
	.st4{clip-path:url(#e);fill:url(#k);}
	.st5{clip-path:url(#d);fill:url(#j);}
	.st6{fill:#FFFFFF;}
	.st7{fill-rule:evenodd;clip-rule:evenodd;fill:#FFFFFF;}
	.st8{clip-path:url(#SVGID_17_);fill:url(#SVGID_18_);}
	.st9{clip-path:url(#SVGID_20_);fill:url(#SVGID_21_);}
	.st10{clip-path:url(#SVGID_23_);fill:url(#SVGID_24_);}
	.st11{clip-path:url(#SVGID_26_);fill:url(#SVGID_27_);}
	.st12{clip-path:url(#SVGID_29_);fill:url(#SVGID_30_);}</style>
 <style type="text/css">.st0{clip-path:url(#i);fill:url(#h);}
	.st1{clip-path:url(#c);fill:url(#g);}
	.st2{fill-rule:evenodd;clip-rule:evenodd;}
	.st3{clip-path:url(#b);fill:url(#f);}
	.st4{clip-path:url(#e);fill:url(#k);}
	.st5{clip-path:url(#d);fill:url(#j);}
	.st6{fill:#FFFFFF;}
	.st7{fill-rule:evenodd;clip-rule:evenodd;fill:#FFFFFF;}
	.st8{clip-path:url(#SVGID_17_);fill:url(#SVGID_18_);}
	.st9{clip-path:url(#SVGID_20_);fill:url(#SVGID_21_);}
	.st10{clip-path:url(#SVGID_23_);fill:url(#SVGID_24_);}
	.st11{clip-path:url(#SVGID_26_);fill:url(#SVGID_27_);}
	.st12{clip-path:url(#SVGID_29_);fill:url(#SVGID_30_);}</style>
 <style type="text/css">.st0{clip-path:url(#i);fill:url(#h);}
	.st1{clip-path:url(#c);fill:url(#g);}
	.st2{fill-rule:evenodd;clip-rule:evenodd;}
	.st3{clip-path:url(#b);fill:url(#f);}
	.st4{clip-path:url(#e);fill:url(#k);}
	.st5{clip-path:url(#d);fill:url(#j);}
	.st6{fill:#FFFFFF;}
	.st7{fill-rule:evenodd;clip-rule:evenodd;fill:#FFFFFF;}
	.st8{clip-path:url(#SVGID_17_);fill:url(#SVGID_18_);}
	.st9{clip-path:url(#SVGID_20_);fill:url(#SVGID_21_);}
	.st10{clip-path:url(#SVGID_23_);fill:url(#SVGID_24_);}
	.st11{clip-path:url(#SVGID_26_);fill:url(#SVGID_27_);}
	.st12{clip-path:url(#SVGID_29_);fill:url(#SVGID_30_);}</style>
 <style type="text/css">.st0{fill:#007BC2;}</style>
 <style type="text/css">.st0{fill:#007BC2;}</style>
 <style type="text/css">.st0{fill:#007BC2;}</style>
 <style type="text/css">.st0{fill:#007BC2;}</style>
 <style type="text/css">.st0{fill:#007BC2;}</style>
 <style type="text/css">.st0{fill:#007BC2;}</style>
 <style type="text/css">.st0{clip-path:url(#i);fill:url(#h);}
	.st1{clip-path:url(#c);fill:url(#g);}
	.st2{fill-rule:evenodd;clip-rule:evenodd;}
	.st3{clip-path:url(#b);fill:url(#f);}
	.st4{clip-path:url(#e);fill:url(#k);}
	.st5{clip-path:url(#d);fill:url(#j);}
	.st6{fill:#FFFFFF;}
	.st7{fill-rule:evenodd;clip-rule:evenodd;fill:#FFFFFF;}
	.st8{clip-path:url(#SVGID_17_);fill:url(#SVGID_18_);}
	.st9{clip-path:url(#SVGID_20_);fill:url(#SVGID_21_);}
	.st10{clip-path:url(#SVGID_23_);fill:url(#SVGID_24_);}
	.st11{clip-path:url(#SVGID_26_);fill:url(#SVGID_27_);}
	.st12{clip-path:url(#SVGID_29_);fill:url(#SVGID_30_);}</style>
 <style type="text/css">.st0{clip-path:url(#i);fill:url(#h);}
	.st1{clip-path:url(#c);fill:url(#g);}
	.st2{fill-rule:evenodd;clip-rule:evenodd;}
	.st3{clip-path:url(#b);fill:url(#f);}
	.st4{clip-path:url(#e);fill:url(#k);}
	.st5{clip-path:url(#d);fill:url(#j);}
	.st6{fill:#FFFFFF;}
	.st7{fill-rule:evenodd;clip-rule:evenodd;fill:#FFFFFF;}
	.st8{clip-path:url(#SVGID_17_);fill:url(#SVGID_18_);}
	.st9{clip-path:url(#SVGID_20_);fill:url(#SVGID_21_);}
	.st10{clip-path:url(#SVGID_23_);fill:url(#SVGID_24_);}
	.st11{clip-path:url(#SVGID_26_);fill:url(#SVGID_27_);}
	.st12{clip-path:url(#SVGID_29_);fill:url(#SVGID_30_);}</style>
 <style type="text/css">.st0{fill:#007BC2;}</style>
 <style type="text/css">.st0{fill:#007BC2;}</style>
 <style type="text/css">.st0{fill:#007BC2;}</style>
 <style type="text/css">.st0{fill:#007BC2;}</style>
 <style type="text/css">.st0{fill:#007BC2;}</style>
 <style type="text/css">.st0{fill:#007BC2;}</style>
 <style type="text/css">.st0{clip-path:url(#i);fill:url(#h);}
	.st1{clip-path:url(#c);fill:url(#g);}
	.st2{fill-rule:evenodd;clip-rule:evenodd;}
	.st3{clip-path:url(#b);fill:url(#f);}
	.st4{clip-path:url(#e);fill:url(#k);}
	.st5{clip-path:url(#d);fill:url(#j);}
	.st6{fill:#FFFFFF;}
	.st7{fill-rule:evenodd;clip-rule:evenodd;fill:#FFFFFF;}
	.st8{clip-path:url(#SVGID_17_);fill:url(#SVGID_18_);}
	.st9{clip-path:url(#SVGID_20_);fill:url(#SVGID_21_);}
	.st10{clip-path:url(#SVGID_23_);fill:url(#SVGID_24_);}
	.st11{clip-path:url(#SVGID_26_);fill:url(#SVGID_27_);}
	.st12{clip-path:url(#SVGID_29_);fill:url(#SVGID_30_);}</style>
 <style type="text/css">.st0{clip-path:url(#i);fill:url(#h);}
	.st1{clip-path:url(#c);fill:url(#g);}
	.st2{fill-rule:evenodd;clip-rule:evenodd;}
	.st3{clip-path:url(#b);fill:url(#f);}
	.st4{clip-path:url(#e);fill:url(#k);}
	.st5{clip-path:url(#d);fill:url(#j);}
	.st6{fill:#FFFFFF;}
	.st7{fill-rule:evenodd;clip-rule:evenodd;fill:#FFFFFF;}
	.st8{clip-path:url(#SVGID_17_);fill:url(#SVGID_18_);}
	.st9{clip-path:url(#SVGID_20_);fill:url(#SVGID_21_);}
	.st10{clip-path:url(#SVGID_23_);fill:url(#SVGID_24_);}
	.st11{clip-path:url(#SVGID_26_);fill:url(#SVGID_27_);}
	.st12{clip-path:url(#SVGID_29_);fill:url(#SVGID_30_);}</style>
 <style type="text/css">.st0{clip-path:url(#i);fill:url(#h);}
	.st1{clip-path:url(#c);fill:url(#g);}
	.st2{fill-rule:evenodd;clip-rule:evenodd;}
	.st3{clip-path:url(#b);fill:url(#f);}
	.st4{clip-path:url(#e);fill:url(#k);}
	.st5{clip-path:url(#d);fill:url(#j);}
	.st6{fill:#FFFFFF;}
	.st7{fill-rule:evenodd;clip-rule:evenodd;fill:#FFFFFF;}
	.st8{clip-path:url(#SVGID_17_);fill:url(#SVGID_18_);}
	.st9{clip-path:url(#SVGID_20_);fill:url(#SVGID_21_);}
	.st10{clip-path:url(#SVGID_23_);fill:url(#SVGID_24_);}
	.st11{clip-path:url(#SVGID_26_);fill:url(#SVGID_27_);}
	.st12{clip-path:url(#SVGID_29_);fill:url(#SVGID_30_);}</style>
</svg>
