<?xml version="1.0" encoding="UTF-8" standalone="no"?>
<!-- Created with Inkscape (http://www.inkscape.org/) -->
<svg xmlns:dc="http://purl.org/dc/elements/1.1/" xmlns:cc="http://creativecommons.org/ns#" xmlns:rdf="http://www.w3.org/1999/02/22-rdf-syntax-ns#" xmlns:svg="http://www.w3.org/2000/svg" xmlns="http://www.w3.org/2000/svg" xmlns:sodipodi="http://sodipodi.sourceforge.net/DTD/sodipodi-0.dtd" xmlns:inkscape="http://www.inkscape.org/namespaces/inkscape" width="1000" height="885.84668" id="svg5637" version="1.1" inkscape:version="0.48.2 r9819" sodipodi:docname="Sanrio.svg">
  <defs id="defs5639"/>
  <sodipodi:namedview id="base" pagecolor="#ffffff" bordercolor="#666666" borderopacity="1.0" inkscape:pageopacity="0.0" inkscape:pageshadow="2" inkscape:zoom="0.14304199" inkscape:cx="330.69646" inkscape:cy="-170.03851" inkscape:document-units="px" inkscape:current-layer="layer1" showgrid="false" fit-margin-left="0.5" fit-margin-bottom="0.5" fit-margin-top="0.5" fit-margin-right="0.5" inkscape:window-width="1060" inkscape:window-height="1036" inkscape:window-x="856" inkscape:window-y="-21" inkscape:window-maximized="0">
    <inkscape:grid type="xygrid" id="grid9981" empspacing="5" visible="true" enabled="true" snapvisiblegridlinesonly="true"/>
  </sodipodi:namedview>
  <metadata id="metadata5642">
    <rdf:RDF>
      <cc:Work rdf:about="">
        <dc:format>image/svg+xml</dc:format>
        <dc:type rdf:resource="http://purl.org/dc/dcmitype/StillImage"/>
      </cc:Work>
    </rdf:RDF>
  </metadata>
  <g inkscape:label="Layer 1" inkscape:groupmode="layer" id="layer1" transform="translate(-474.38472,290.81875)">
    <path style="fill:#94d500;fill-opacity:1;stroke:none" d="m 974.75398,-290.31875 c -42.18871,0 -61.56006,26.7325 -73.53501,45.68244 L 499.67773,449.56794 c -12.5396,21.97307 -24.79301,37.941 -24.79301,64.14531 0,43.0195 35.13786,80.81466 80.92016,80.81466 l 837.26522,0 c 44.5716,0 80.8146,-36.19686 80.8146,-81.65868 0,-24.92184 -9.3538,-37.96329 -23.6325,-62.03527 L 1050.399,-239.4667 c -15.5197,-28.10602 -37.7507,-50.85205 -75.64502,-50.85205 z m -78.70462,412.61897 c 7.89092,0 12.69011,3.71455 19.3069,7.49065 L 1124.356,250.69635 c 5.7065,3.60602 13.8208,9.45114 13.8208,22.15546 0,11.41115 -6.9397,18.00951 -15.4033,22.68296 L 914.93425,416.01825 c -7.24886,4.29976 -11.16915,7.06864 -18.67388,7.06864 -13.68996,0 -24.58201,-10.84356 -24.58201,-24.2655 l 0,-252.15017 c 0,-13.78645 11.41648,-24.371 24.371,-24.371 z" id="path9991" inkscape:connector-curvature="0" Googl="true"/>
  </g>
</svg>