<?xml version="1.0" encoding="UTF-8" standalone="no"?>
<svg xmlns:rdf="http://www.w3.org/1999/02/22-rdf-syntax-ns#" xmlns="http://www.w3.org/2000/svg" height="169.33mm" width="169.33mm" version="1.1" xmlns:cc="http://creativecommons.org/ns#" xmlns:dc="http://purl.org/dc/elements/1.1/" viewBox="0 0 599.99998 600">
 <g transform="translate(-399.18 -258.5)">
  <path d="m974.53 559.34c0 154.52-123.28 279.81-275.37 279.81-152.11 0-275.4-125.29-275.4-279.81s123.29-279.81 275.4-279.81c152.09 0 275.37 125.29 275.37 279.81" fill="#fff"/>
  <path d="m513.12 744.56c-49.7-49.7-77.07-115.78-77.07-186.04 0-70.3 27.37-136.37 77.07-186.04 49.7-49.71 115.78-77.08 186.04-77.08 70.3 0 136.37 27.37 186.04 77.08 49.74 49.67 77.08 115.74 77.08 186.04 0 70.26-27.34 136.34-77.08 186.04-49.67 49.7-115.74 77.07-186.04 77.07-70.26 0-136.34-27.37-186.04-77.07m-26.07-398.19c-56.7 56.67-87.87 132-87.87 212.15 0 80.11 31.17 155.47 87.87 212.14 56.64 56.64 132 87.84 212.11 87.84 80.15 0 155.48-31.2 212.15-87.84 56.67-56.67 87.87-132.03 87.87-212.14 0-80.15-31.2-155.48-87.87-212.15s-132-87.87-212.15-87.87c-80.11 0-155.47 31.2-212.11 87.87" fill="#ed1639"/>
  <path d="m818.62 373.96-10.01 105.05h-115.59s-3.33 18.34-5.01 29.2c55.12-8.36 116.92 3.36 144.48 54.3 20.88 45.11 10.87 97.72-19.19 135.29-55.98 65.16-147.02 67.66-222.16 40.93-24.07-8.93-36.33-21.19-36.33-21.19s7.1-55.63 12.1-79.04c32.56 22.56 83.53 39.25 120.28 13.37 12.1-9 18.31-21.73 15.01-37.57-9.44-26.42-41.75-35.1-70.13-35.1-21.1 1.46-41.72 4.56-59.33 19.2 6.71-75.14 19.23-149.49 28.41-224.66" fill="#0b2b53"/>
 </g>
</svg>
