<?xml version="1.0" encoding="UTF-8" standalone="no"?>
<!-- Created with Inkscape (http://www.inkscape.org/) -->
<svg xmlns:rdf="http://www.w3.org/1999/02/22-rdf-syntax-ns#" xmlns="http://www.w3.org/2000/svg" height="99.668" width="600" version="1.1" xmlns:cc="http://creativecommons.org/ns#" xmlns:dc="http://purl.org/dc/elements/1.1/">
 <metadata>
  <rdf:RDF>
   <cc:Work rdf:about="">
    <dc:format>image/svg+xml</dc:format>
    <dc:type rdf:resource="http://purl.org/dc/dcmitype/StillImage"/>
    <dc:title/>
   </cc:Work>
  </rdf:RDF>
 </metadata>
 <g fill-rule="nonzero" transform="translate(55.809195,9.2706502)">
  <path d="m-55.809,90.397,600,0,0-99.668-600,0,0,99.668z" fill="#1075bc"/>
  <path fill="#FFF" d="m177.52,86.959-229.83,0,0-92.567,229.83,0,0,92.567z"/>
  <path d="m266.3,10.078s-8.7073,32.002-10.314,37.464c-1.61-5.398-10.51-37.464-10.51-37.464h-12.402s-8.9643,31.809-10.539,37.464c-1.5422-5.6549-10.217-37.464-10.217-37.464h-13.43l17.286,60.823h12.82s8.7394-31.777,10.217-37.303c1.5422,5.5264,10.346,37.303,10.346,37.303h12.82l17.318-60.823h-13.398z" fill="#FFF"/>
  <path d="m309.15,8.9656c-9.4142,0-16.965,2.9378-22.459,8.7534-5.4943,5.6549-8.2927,13.377-8.2927,22.92,0,9.7355,2.7984,17.585,8.2927,23.304,5.4943,5.8477,12.981,8.8686,22.459,8.8686,9.1571,0,16.773-3.0209,22.267-8.8686,5.5585-5.7192,8.4079-13.569,8.4079-23.304,0-9.5427-2.8494-17.265-8.4079-22.92-5.4943-5.8156-13.11-8.7534-22.267-8.7534zm0,11.518c5.2051,0,9.1563,1.962,12.209,5.5285,3.0524,3.8235,4.4919,8.619,4.4919,14.627,0,6.2975-1.4395,11.367-4.4919,15.126-3.0524,3.5665-7.0036,5.4133-12.209,5.4133-5.4621,0-9.5536-1.8468-12.477-5.4133-2.9881-3.7592-4.4919-8.829-4.4919-15.126,0-6.0083,1.5038-10.804,4.4919-14.627,2.9238-3.5665,7.0153-5.5285,12.477-5.5285z" fill="#FFF"/>
  <path d="m346.46,10.079,0,60.967,13.13,0,0-23.304,9.4445,0c0.51409,0.67473,17.507,23.381,17.507,23.381h16.201s-17.437-23.456-18.851-25.224c3.8235-1.4459,6.849-3.5715,9.2909-6.3347,2.699-3.0202,4.0312-6.721,4.0312-10.673,0-5.7192-2.2588-10.339-6.757-13.744-4.3697-3.4379-9.9478-5.0678-16.47-5.0678h-27.527zm13.13,11.671,14.858,0c2.5383,0,4.6122,0.67988,6.4115,1.8044,1.7029,0.99604,2.5339,2.8304,2.5339,5.3365,0,2.3776-0.8552,4.1735-2.8794,5.2981-2.0885,1.1888-4.3668,1.958-6.6802,1.958h-14.243v-14.397z" fill="#FFF"/>
  <path d="m408.09,10.142,0,60.919,45.625,0,0-11.599-32.58,0,0-49.32-13.045,0z" fill="#FFF"/>
  <path d="m460.18,9.9638,0,61.235,23.074,0c9.4463,0,14.419-3.028,19.849-8.715,5.5264-5.8477,8.2927-13.182,8.2927-21.922,0-8.8358-2.7663-16.062-8.2927-21.845-5.43-5.687-10.402-8.7534-19.849-8.7534h-23.074zm13.092,11.786,8.3695,0c6.2975,0,10.923,1.821,13.783,5.4517,3.0202,3.6307,4.3767,8.0911,4.3767,13.36,0,5.2051-1.3565,9.819-4.3767,13.514-2.8596,3.5665-7.4852,5.3749-13.783,5.3749h-8.3695v-37.701z" fill="#FFF"/>
  <path d="m121.43,32.544c-2.6668-0.80326-4.2412-4.0805-3.9199-6.9723,0.3213-2.956,2.6989-7.1329,8.2575-7.1329h30.427v-9.9282h-28.885c-5.8156-0.6426-10.924,0.80325-10.924,0.80325s-10.378,1.3173-13.238,11.374c-1.8957,7.0365,0,15.487,6.7152,20.146,9.8318,6.651,21.367,0.86752,31.391,4.6268,4.7232,1.7672,6.3939,7.4863,4.2733,11.985,0,0-2.9881,5.6549-8.2575,5.1087h-32.58v10.089l39.263,0.19277s12.402-1.0603,16.129-12.306c2.7632-8.1611,1.735-13.912-4.4018-20.756-8.8679-9.6069-22.363-3.5986-34.251-7.2293" fill="#1075bc"/>
  <path d="m32.16,8.5714-16.676,0-24.098,30.01,0-30.01-13.912,0,0,64.26,14.073,0,0-32.002c0-0.19278,1.1246,0.38556,1.2531,0.54621l23.327,31.263h18.186l-26.443-32.868,24.29-31.199z" fill="#1075bc"/>
  <path d="m40.401,8.2362,0,64.921,35.743-0.07678,3.8392,0c12.724-0.931,19.67-12.226,18.16-21.576-0.771-5.462-4.203-10.481-8.83-13.437,0,0,3.6219-4.344,5.0678-7.5249,1.0924-2.5383,0.72945-7.4865,0.72945-7.4865-1.06-8.419-6.318-14.82-16.278-14.82h-38.431zm13.284,10.481,21.461,0s6.0401-0.33998,6.1043,7.3713c0,0,0.3217,6.7742-6.1043,7.2561h-21.461v-14.627zm0,25.3,21.615,0s7.6-0.22345,7.9856,8.6766c0,0,0.5461,8.7313-7.4865,9.4061h-22.114v-18.083z" fill="#1075bc"/>
 </g>
</svg>
