<svg version="1.1" viewBox="0 0 800 400.36" xmlns="http://www.w3.org/2000/svg">
 <path d="m235.17 18.699c-1.0093 0-1.9795 0.37627-2.7247 1.055l-12.753 11.625c-0.52225 0.47648-0.90954 1.0815-1.1247 1.7547l-5.3536 16.745c-0.20147 0.62552-0.2445 1.2906-0.12909 1.937l4.6416 26.045c0.30318 1.705-0.0626 3.4613-1.021 4.9041l-8.8998 13.391c-1.2675 1.9059-3.4171 3.0384-5.7056 3.0066l-43.598-0.60499c-0.95218-0.0131-1.8785 0.31002-2.6156 0.91247l-2.4802 2.0276c-0.91658 0.74953-1.4582 1.8629-1.4815 3.0461l-2.0047 101.53c-0.0712 3.6068-2.9749 6.5154-6.5839 6.5976l-61.866 1.3888c-3.4799 0.0782-6.4462-2.5056-6.8436-5.9599l-0.6533-5.6802c-0.10934-0.95061-0.01447-1.9149 0.27814-2.8264l2.8831-8.9735c0.13144-0.40919 0.19658-0.83677 0.19325-1.2665l-0.62611-78.814c-0.01702-2.1555-1.7254-3.9177-3.8811-4.0033l-39.757-1.58c-1.2035-0.0479-2.3658 0.44323-3.1701 1.3395l-3.9558 4.4088c-0.65604 0.73114-1.023 1.6761-1.0322 2.6582l-0.65447 69.841 1.4813 103.08 5.87e-4 0.0196 2.3151 76.462c0.04968 1.6411 1.0885 3.0885 2.6279 3.6616l3.6438 1.3594c0.45183 0.16821 0.93007 0.25427 1.4122 0.25427h24.985c0.35795 0 0.71413-0.0489 1.0594-0.14278l6.4078-1.7389c1.7017-0.46161 2.9074-1.9716 2.9792-3.732l3.8022-93.393c0.14866-3.6479 3.1824-6.5134 6.837-6.4567l59.379 0.93497c2.8526 0.045 5.3676 1.8817 6.2781 4.5829l2.721 8.0743c0.41584 1.2342 0.46455 2.5624 0.13985 3.824l-1.8826 7.3154c-0.072 0.27971-0.11383 0.56724-0.12459 0.85673l-2.7437 73.627c-0.0313 0.83912 0.19971 1.6665 0.66054 2.3687l3.5065 5.334c0.69731 1.0621 1.8535 1.733 3.1214 1.8132l30.505 1.9443c0.31257 0.0196 0.62651 4e-3 0.93536-0.0489l9.8343-1.6724c1.0611-0.18191 2.0057-0.77653 2.6257-1.6567l8.532-12.102c0.93496-1.3281 2.4606-2.1183 4.0861-2.1183 1.8152 0 3.4875 0.98191 4.3677 2.5682l5.954 10.707c0.52225 0.93888 1.3966 1.6313 2.4313 1.9247l14.236 4.0313c0.35795 0.10171 0.72959 0.15452 1.1012 0.15452h18.768c0.67286 0 1.3359-0.16821 1.9266-0.489l11.102-6.0127c1.0073-0.54572 1.7369-1.4944 2.0049-2.6093l4.0196-16.759c0.0685-0.2797 0.10562-0.56723 0.11149-0.85476l4.043-184.59c0.0822-3.7549 3.2254-6.7163 6.9809-6.5794l55.617 2.0291c3.6968 0.13477 6.5917 3.2215 6.488 6.9152l-1.0504 37.446c-6e-3 0.21516 6e-3 0.43032 0.0333 0.64352l0.82151 6.2024c0.15844 1.199 0.84694 2.2631 1.8758 2.9007l4.4225 2.7423c0.60244 0.37359 1.291 0.58289 2.001 0.60636l38.795 1.2616c3.6773 0.11932 6.578 3.1628 6.5154 6.8381l-0.71785 43.257 0.7824 16.569c0.0196 0.40489 2e-3 0.80978-0.0528 1.2108l-1.6254 12.127c-0.0313 0.22494-0.0411 0.44987-0.0333 0.67481l2.0362 59.137c0.0469 1.4024 0.82152 2.6797 2.044 3.3741l1.244 0.70416c0.55159 0.31296 1.1697 0.49291 1.8034 0.52225l25.862 1.2244c0.63178 0.0293 1.2596-0.088 1.8367-0.34426l7.0024-3.1198c1.3868-0.61809 2.31-1.958 2.3902-3.4719l2.0831-38.688c0.0156-0.28166 2e-3 -0.56332-0.043-0.84303l-5.0758-32.254c-0.0743-0.4753-0.0978-0.95843-0.0704-1.4376l3.5814-61.344c0.20538-3.5149 3.0885-6.2787 6.6132-6.3374l33.68-0.56528c0.72176-0.0117 1.4279-0.21711 2.044-0.59462l6.9907-4.2778c1.1834-0.72371 1.911-2.0029 1.9306-3.3878l0.55941-40.188c0.0509-3.6808 3.0514-6.6376 6.7345-6.6376h64.651c0.38141 0 0.76088-0.0542 1.1286-0.16058l3.5834-1.0412c4.446-1.2913 8.8411 2.1802 8.6083 6.8008l-9.244 184.23c-0.0391 0.7511 0.13496 1.4983 0.49877 2.1574l4.0802 7.3721c0.70024 1.2655 2.0244 2.0597 3.4699 2.0831l193.24 3.1668c0.44205 6e-3 0.88215-0.0587 1.3027-0.19365l17.275-5.5413c1.6587-0.53203 2.7892-2.0655 2.8068-3.8044l2.3648-235.81c0.01-1.0091-0.35794-1.9853-1.0308-2.7366l-4.0469-4.5086c-0.74719-0.83345-1.8073-1.3193-2.9281-1.3418l-138.81-2.78-365.57 3.5955c-2.9653 0.0293-5.6-1.8809-6.4919-4.7053l-6.2631-19.836c-0.39511-1.2516-0.41467-2.5915-0.0587-3.8545l8.6963-30.774c0.27384-0.96821 0.17604-2.0037-0.27384-2.9035l-10.285-20.549c-0.24841-0.49976-0.60049-0.9422-1.0308-1.2994l-9.6235-7.9957c-0.72568-0.60303-1.6391-0.93314-2.5839-0.93314zm-4.5398-0.93404c1.2401-1.1313 2.8597-1.7584 4.5398-1.7584h21.831c1.5726 0 3.0963 0.55026 4.3071 1.5554l9.6235 7.9957c0.71589 0.59521 1.3027 1.3326 1.7193 2.1655l10.283 20.549c0.74915 1.4999 0.91345 3.2254 0.4577 4.8393l-8.6963 30.774c-0.21515 0.75775-0.20146 1.5617 0.0352 2.3126l6.2631 19.836c0.53594 1.6947 2.1164 2.8407 3.8944 2.8233l365.59-3.5957 138.88 2.7804c1.866 0.0375 3.6342 0.84733 4.8802 2.2365l4.045 4.5086c1.1247 1.2522 1.7369 2.8792 1.7213 4.5608l-2.3648 235.81c-0.0293 2.8988-1.9149 5.4552-4.6787 6.3413l-17.275 5.5413c-0.7022 0.22494-1.4337 0.33252-2.1692 0.32079l-193.24-3.1648c-2.4117-0.0391-4.6181-1.3653-5.7858-3.4738l-4.0782-7.3721c-0.60832-1.0973-0.89585-2.3433-0.83325-3.5951l9.244-184.23c0.13888-2.7722-2.4978-4.8552-5.1658-4.0804l-3.5834 1.0412c-0.61027 0.17741-1.244 0.26758-1.8797 0.26758h-64.651c-2.2103 0-4.0098 1.7741-4.0411 3.9826l-0.55941 40.187c-0.0313 2.3081-1.246 4.4401-3.2156 5.645l-6.9927 4.2797c-1.0269 0.62787-2.2024 0.97017-3.4054 0.98973l-33.68 0.56528c-2.1144 0.0352-3.8435 1.6939-3.9668 3.8024l-3.5834 61.344c-0.0156 0.28753-2e-3 0.57702 0.043 0.86259l5.0758 32.254c0.0724 0.46552 0.0978 0.93692 0.0724 1.4064l-2.0831 38.688c-0.13496 2.5232-1.6743 4.757-3.9844 5.7858l-7.0024 3.1198c-0.96039 0.42836-2.0088 0.62592-3.0611 0.57506l-25.862-1.2244c-1.0582-0.0508-2.087-0.34816-3.0064-0.87041l-1.244-0.70416c-2.0362-1.156-3.3271-3.2841-3.4073-5.6235l-2.0362-59.135c-0.0137-0.3775 6e-3 -0.75305 0.0548-1.1266l1.6274-12.127c0.0313-0.24059 0.043-0.48313 0.0313-0.72568l-0.78827-16.653 0.72176-43.343c0.0372-2.2064-1.7037-4.0332-3.91-4.1037l-38.795-1.2616c-1.1814-0.0391-2.3296-0.38729-3.333-1.0093l-4.4244-2.7423c-1.7134-1.0641-2.8597-2.8381-3.1257-4.8372l-0.82152-6.2024c-0.0469-0.35404-0.0645-0.71198-0.0548-1.0719l1.0504-37.445c0.0626-2.2163-1.6743-4.0684-3.8924-4.1492l-55.617-2.0291c-2.2533-0.0821-4.1389 1.6947-4.1878 3.9478l-4.045 184.59c-0.01 0.47922-0.0724 0.95453-0.18387 1.422l-4.0215 16.759c-0.44401 1.8562-1.6587 3.4386-3.3408 4.3482l-11.102 6.0127c-0.98386 0.53399-2.089 0.81369-3.2098 0.81369h-18.768c-0.62005 0-1.2382-0.0861-1.8367-0.25428l-14.236-4.0332c-1.7232-0.48704-3.1804-1.6411-4.0508-3.2059l-5.954-10.709c-0.40684-0.72958-1.1775-1.1834-2.0127-1.1834-0.74914 0-1.4513 0.36382-1.8836 0.97604l-8.532 12.104c-1.0328 1.465-2.6073 2.4587-4.3761 2.7599l-9.8343 1.6724c-0.51462 0.0861-1.0378 0.11541-1.5589 0.0822l-30.505-1.9443c-2.1131-0.13496-4.0399-1.2538-5.2022-3.022l-3.5065-5.3359c-0.76812-1.1677-1.1531-2.5467-1.1008-3.9452l2.7437-73.629c0.0178-0.48118 0.0874-0.95844 0.20753-1.4259l1.8826-7.3154c0.19482-0.75697 0.16568-1.5531-0.0839-2.2944l-2.721-8.0743c-0.5463-1.6215-2.0554-2.7227-3.7668-2.7482l-59.379-0.93496c-2.1927-0.0352-4.0129 1.6841-4.1021 3.8729l-3.8024 93.393c-0.11951 2.934-2.1289 5.4513-4.9651 6.222l-6.4078 1.7389c-0.57545 0.15648-1.1693 0.23472-1.7657 0.23472h-24.985c-0.80352 0-1.6006-0.14279-2.3536-0.42445l-3.6438-1.3575c-2.5657-0.95648-4.2971-3.3682-4.3799-6.1027l-2.3159-76.493-1.4824-103.15 0.65486-69.873c0.01526-1.6368 0.6269-3.2117 1.7203-4.4303l3.9558-4.4088c1.3402-1.4936 3.2775-2.3122 5.2835-2.2324l39.757 1.5798c3.5928 0.14279 6.4399 3.0799 6.4685 6.6725l0.62592 78.814c0.0059 0.71628-0.10288 1.4286-0.32196 2.1107l-2.8831 8.9741c-0.17565 0.54768-0.23257 1.1247-0.16685 1.6958l0.6533 5.6782c0.23844 2.0734 2.0182 3.6244 4.1062 3.5775l61.866-1.3888c2.1653-0.0489 3.9075-1.7956 3.9501-3.9589l2.0047-101.53c0.0389-1.972 0.94161-3.8279 2.4694-5.0768l2.48-2.0276c1.2286-1.0044 2.7722-1.5429 4.3593-1.521l43.598 0.60518c1.3731 0.01897 2.6641-0.66054 3.423-1.804l8.8998-13.391c0.57701-0.86552 0.79608-1.9194 0.61418-2.9424l-4.6435-26.045c-0.19169-1.0778-0.11736-2.1858 0.21516-3.2286l5.3535-16.745c0.3599-1.1222 1.0073-2.1305 1.8778-2.9244z" clip-rule="evenodd" fill="#5dfc71" fill-rule="evenodd" stroke-width="1.956"/>
 <path d="m723.43 0h-393.34l1.5668 108.41 391.78-1.6749zm-369.32 28.01v64.024h13.518v-18.194l6.6504-8.1279 17.514 26.322h16.172l-24.008-35.357 23.726-28.667h-16.203l-23.008 28.229h-0.84303v-28.229zm60.614 0v64.024h43.208v-11.16h-29.69v-15.287h27.349v-11.16h-27.349v-15.256h29.565v-11.16zm51.396 11.16v-11.16h52.512v11.16h-19.576v52.863h-13.361v-52.863zm114.64 52.863v-64.024h-13.455v40.265h-0.56137l-27.599-40.265h-11.865v64.024h13.52v-40.296h0.46749l27.818 40.296zm11.169 0v-64.024h43.085v11.16h-29.565v15.256h27.349v11.16h-27.349v15.287h29.69v11.16zm51.398-64.024v11.16h19.576v52.863h13.361v-52.863h19.576v-11.16z" clip-rule="evenodd" fill="#ffe400" fill-rule="evenodd" stroke-width="1.956"/>
 <path d="m225.47 30.546c-1.0073 0-1.9795 0.37633-2.7227 1.0551l-12.753 11.625c-0.52225 0.47628-0.91149 1.0815-1.1266 1.7547l-5.3536 16.745c-0.19951 0.62553-0.24449 1.2906-0.12909 1.937l4.6416 26.045c0.30514 1.7048-0.0606 3.4613-1.0191 4.9039l-8.9017 13.391c-1.2655 1.9059-3.4152 3.0384-5.7046 3.0066l-43.598-0.60499c-0.95218-0.0133-1.8785 0.31003-2.6156 0.91247l-2.48 2.0276c-0.91677 0.74934-1.4584 1.8629-1.4817 3.0461l-2.0047 101.53c-0.0712 3.6068-2.9749 6.5154-6.5839 6.5956l-61.866 1.3907c-3.4797 0.0782-6.4462-2.5056-6.8436-5.9619l-0.6533-5.6782c-0.10934-0.95061-0.01448-1.9149 0.27834-2.8264l2.8829-8.9741c0.13144-0.4088 0.19677-0.83716 0.19325-1.2655l-0.62592-78.814c-0.01721-2.1557-1.7256-3.918-3.8813-4.0037l-39.756-1.5798c-1.2037-0.0479-2.366 0.44322-3.1701 1.3395l-3.9558 4.4088c-0.65608 0.73115-1.023 1.6763-1.0323 2.6582l-0.65446 69.842 1.4813 103.08 4.89e-4 0.0215 2.3151 76.462c0.04968 1.6411 1.0885 3.0885 2.6279 3.6616l3.644 1.3575c0.45164 0.16821 0.92988 0.25428 1.412 0.25428h24.985c0.35795 0 0.71413-0.0469 1.0596-0.14083l6.4076-1.7389c1.7017-0.46161 2.9074-1.9716 2.9792-3.734l3.8022-93.391c0.14866-3.6479 3.1824-6.5134 6.837-6.4567l59.379 0.93496c2.8526 0.045 5.3676 1.8797 6.2781 4.5829l2.721 8.0724c0.41604 1.2342 0.46454 2.5643 0.13985 3.8259l-1.8826 7.3154c-0.072 0.27971-0.11384 0.56724-0.1246 0.85477l-2.7437 73.629c-0.0311 0.83912 0.1997 1.6665 0.66073 2.3668l3.5063 5.3359c0.69731 1.0602 1.8535 1.733 3.1214 1.8132l30.505 1.9443c0.31257 0.0196 0.6265 2e-3 0.93535-0.0509l9.8343-1.6724c1.0611-0.17995 2.0064-0.77653 2.6263-1.6548l8.5312-12.104c0.93594-1.3281 2.4597-2.1183 4.0851-2.1183 1.8152 0 3.4875 0.98386 4.3697 2.5702l5.954 10.707c0.52224 0.93887 1.3966 1.6313 2.4293 1.9247l14.238 4.0313c0.35795 0.10171 0.72959 0.15256 1.1012 0.15256h18.768c0.67286 0 1.334-0.16626 1.9266-0.48704l11.102-6.0147c1.0073-0.54572 1.7369-1.4944 2.0029-2.6073l4.0215-16.761c0.0665-0.27971 0.10366-0.56528 0.10953-0.85281l4.045-184.59c0.0822-3.7551 3.2235-6.7163 6.9809-6.5794l55.617 2.0292c3.6949 0.13476 6.5917 3.2213 6.488 6.9152l-1.0504 37.447c-6e-3 0.21515 4e-3 0.43031 0.0333 0.64156l0.82152 6.2024c0.15843 1.199 0.84694 2.265 1.8738 2.9027l4.4244 2.7423c0.60048 0.37359 1.291 0.58288 1.999 0.6044l38.795 1.2616c3.6773 0.12127 6.578 3.1648 6.5174 6.8401l-0.7198 43.257 0.78435 16.567c0.0176 0.40489 0 0.81173-0.0528 1.2127l-1.6274 12.127c-0.0293 0.22298-0.0411 0.44987-0.0333 0.67481l2.0362 59.137c0.0489 1.4024 0.82347 2.6797 2.046 3.3721l1.242 0.70612c0.55159 0.31296 1.1697 0.49095 1.8034 0.52225l25.864 1.2244c0.62982 0.0293 1.2596-0.088 1.8367-0.34621l7.0024-3.1178c1.3848-0.61809 2.3081-1.958 2.3902-3.4719l2.0831-38.688c0.0156-0.28166 0-0.56528-0.043-0.84499l-5.0758-32.254c-0.0763-0.47531-0.0998-0.95648-0.0704-1.4377l3.5814-61.342c0.20538-3.5169 3.0885-6.2787 6.6112-6.3394l33.682-0.56332c0.72176-0.0117 1.4259-0.21711 2.042-0.59462l6.9927-4.2797c1.1814-0.72371 1.911-2.001 1.9306-3.3878l0.55745-40.186c0.0509-3.6806 3.0514-6.6376 6.7364-6.6376h64.649c0.38337 0 0.76283-0.054 1.1286-0.16039l3.5853-1.0412c4.446-1.2914 8.8391 2.1801 8.6083 6.8006l-9.246 184.24c-0.0372 0.7511 0.13496 1.4983 0.50073 2.1555l4.0802 7.3741c0.70024 1.2655 2.0225 2.0596 3.4699 2.0831l193.24 3.1648c0.44009 8e-3 0.88019-0.0567 1.3007-0.19169l17.277-5.5413c1.6587-0.53203 2.7892-2.0655 2.8068-3.8044l2.3648-235.81c0.01-1.0089-0.35794-1.9851-1.0328-2.7364l-4.045-4.5088c-0.74718-0.83345-1.8093-1.3193-2.9281-1.3418l-138.81-2.78-365.57 3.5957c-2.9633 0.0291-5.598-1.8811-6.49-4.7057l-6.2631-19.836c-0.39511-1.2514-0.41663-2.5913-0.0587-3.8543l8.6963-30.774c0.27188-0.96822 0.17408-2.0037-0.2758-2.9035l-10.283-20.549c-0.25037-0.49976-0.60049-0.9422-1.0308-1.2994l-9.6235-7.9957c-0.72567-0.60303-1.6411-0.9332-2.5839-0.9332zm-4.5399-0.93398c1.2421-1.1313 2.8616-1.7584 4.5399-1.7584h21.833c1.5726 0 3.0963 0.55022 4.3051 1.5554l9.6254 7.9955c0.71589 0.5954 1.3007 1.3328 1.7174 2.1657l10.283 20.549c0.7511 1.4997 0.91345 3.2256 0.45771 4.8393l-8.6944 30.773c-0.21516 0.75795-0.20342 1.5617 0.0352 2.3128l6.2631 19.836c0.53398 1.6947 2.1164 2.8407 3.8944 2.8233l365.59-3.5959 138.87 2.7806c1.868 0.0374 3.6342 0.84734 4.8822 2.2367l4.045 4.5086c1.1227 1.2522 1.7369 2.8792 1.7193 4.5608l-2.3648 235.8c-0.0293 2.9007-1.913 5.4553-4.6768 6.3413l-17.277 5.5413c-0.70024 0.22494-1.4337 0.33447-2.1692 0.32274l-193.24-3.1668c-2.4098-0.0391-4.6161-1.3633-5.7839-3.4719l-4.0802-7.3741c-0.60636-1.0954-0.89584-2.3413-0.83325-3.5932l9.246-184.24c0.13888-2.7722-2.4978-4.8552-5.1658-4.0804l-3.5834 1.0412c-0.61223 0.1774-1.244 0.26758-1.8817 0.26758h-64.649c-2.2103 0-4.0117 1.7741-4.0411 3.9824l-0.55942 40.186c-0.0313 2.31-1.246 4.4421-3.2176 5.647l-6.9907 4.2797c-1.0269 0.62787-2.2024 0.97017-3.4054 0.98973l-33.682 0.56528c-2.1125 0.0352-3.8435 1.6939-3.9668 3.8024l-3.5814 61.342c-0.0176 0.28949-4e-3 0.57898 0.0411 0.86455l5.0778 32.254c0.0724 0.46357 0.0958 0.93692 0.0724 1.4064l-2.0831 38.688c-0.13692 2.5232-1.6743 4.757-3.9844 5.7858l-7.0024 3.1198c-0.96235 0.42836-2.0108 0.62396-3.0611 0.57506l-25.864-1.2244c-1.0562-0.0509-2.0851-0.34816-3.0064-0.87041l-1.242-0.70416c-2.0381-1.156-3.3271-3.2841-3.4073-5.6235l-2.0381-59.137c-0.0117-0.37555 6e-3 -0.7511 0.0567-1.1247l1.6274-12.127c0.0313-0.24058 0.0411-0.48508 0.0313-0.72762l-0.78827-16.653 0.72176-43.343c0.0352-2.2044-1.7056-4.0313-3.91-4.1037l-38.797-1.2616c-1.1795-0.0372-2.3296-0.38533-3.333-1.0073l-4.4225-2.7443c-1.7134-1.0621-2.8616-2.8362-3.1257-4.8352l-0.82152-6.2024c-0.0469-0.35599-0.0665-0.71393-0.0548-1.0719l1.0504-37.446c0.0606-2.2161-1.6763-4.0683-3.8944-4.149l-55.615-2.0292c-2.2553-0.0822-4.1389 1.6947-4.1897 3.9476l-4.043 184.59c-0.0117 0.47922-0.0724 0.95648-0.18387 1.422l-4.0215 16.759c-0.44597 1.8582-1.6606 3.4386-3.3408 4.3501l-11.102 6.0127c-0.98582 0.53398-2.089 0.81369-3.2098 0.81369h-18.768c-0.62004 0-1.2401-0.0861-1.8367-0.25623l-14.236-4.0313c-1.7232-0.489-3.1824-1.643-4.0528-3.2078l-5.9521-10.707c-0.40684-0.73154-1.1775-1.1834-2.0147-1.1834-0.74914 0-1.4513 0.36381-1.8817 0.97604l-8.5318 12.102c-1.033 1.467-2.6085 2.4606-4.3769 2.7599l-9.8343 1.6724c-0.51482 0.088-1.038 0.1154-1.5589 0.0821l-30.505-1.9423c-2.1132-0.13496-4.0401-1.2538-5.2023-3.022l-3.5063-5.3359c-0.76831-1.1697-1.1531-2.5487-1.101-3.9452l2.7437-73.629c0.018-0.48117 0.0874-0.96039 0.20753-1.4259l1.8828-7.3154c0.19463-0.75697 0.16548-1.555-0.0841-2.2944l-2.721-8.0743c-0.54631-1.6215-2.0552-2.7227-3.7668-2.7501l-59.379-0.93301c-2.1927-0.0352-4.0129 1.6841-4.1021 3.8729l-3.8024 93.391c-0.11932 2.9359-2.1289 5.4533-4.9651 6.222l-6.4078 1.7408c-0.57545 0.15452-1.1693 0.23471-1.7657 0.23471h-24.985c-0.80352 0-1.6006-0.14474-2.3534-0.42444l-3.644-1.3575c-2.5657-0.95648-4.297-3.3682-4.3798-6.1027l-2.3159-76.495-1.4824-103.15 0.65475-69.873c0.01534-1.6366 0.62695-3.2117 1.7204-4.4303l3.9558-4.4088c1.3402-1.4936 3.2774-2.3122 5.2834-2.2326l39.757 1.58c3.5928 0.14279 6.4399 3.0799 6.4685 6.6725l0.62611 78.814c0.0057 0.71589-0.10308 1.4279-0.32215 2.1105l-2.8829 8.9741c-0.17584 0.54572-0.23276 1.1247-0.16704 1.6958l0.6533 5.6782c0.23844 2.0734 2.0184 3.6225 4.1062 3.5775l61.866-1.3907c2.1653-0.0489 3.9075-1.7936 3.9503-3.957l2.0047-101.53c0.0389-1.972 0.94142-3.8279 2.4692-5.077l2.48-2.0274c1.2286-1.0044 2.7724-1.5429 4.3593-1.521l43.598 0.60499c1.3737 0.0192 2.6631-0.66035 3.4238-1.8038l8.8998-13.391c0.57506-0.86553 0.79413-1.9194 0.61222-2.9424l-4.6416-26.045c-0.19169-1.0776-0.11736-2.1858 0.21516-3.2286l5.3535-16.745c0.35795-1.1222 1.0054-2.1305 1.8778-2.9244z" clip-rule="evenodd" fill="#5dfc71" fill-rule="evenodd" stroke-width="1.956"/>
 <path d="m213.61 41.316c-1.0073 0-1.9795 0.37633-2.7247 1.0551l-12.751 11.625c-0.5242 0.47628-0.91149 1.0813-1.1266 1.7545l-5.3539 16.746c-0.1999 0.62552-0.2443 1.2904-0.1289 1.937l4.6418 26.045c0.30318 1.705-0.0626 3.4615-1.0206 4.9041l-8.9005 13.391c-1.2667 1.9059-3.4156 3.0384-5.7052 3.0068l-43.598-0.60518c-0.95237-0.0133-1.8785 0.31002-2.6157 0.91247l-2.48 2.0276c-0.91658 0.74954-1.4582 1.8629-1.4817 3.0463l-2.0045 101.53c-0.0714 3.6068-2.9749 6.5154-6.5839 6.5976l-61.866 1.3888c-3.4799 0.0782-6.4464-2.5056-6.8438-5.9619l-0.6531-5.6782c-0.10954-0.95061-0.01467-1.9149 0.27814-2.8264l2.8829-8.9741c0.13144-0.4088 0.19677-0.83716 0.19345-1.2655l-0.62611-78.814c-0.01702-2.1555-1.7254-3.9176-3.8811-4.0033l-39.757-1.58c-1.2037-0.0477-2.3659 0.44342-3.1701 1.3395l-3.9558 4.4088c-0.65608 0.73115-1.023 1.6763-1.0322 2.6582l-0.65445 69.842 1.4813 103.08 4.694e-4 0.0215 2.3151 76.462c0.049682 1.6411 1.0884 3.0885 2.6279 3.6616l3.6439 1.3575c0.45176 0.16821 0.93001 0.25428 1.4121 0.25428h24.985c0.35775 0 0.71413-0.047 1.0594-0.14084l6.4078-1.7389c1.7017-0.46161 2.9074-1.9716 2.979-3.734l3.8024-93.391c0.14846-3.6479 3.1824-6.5134 6.837-6.4567l59.379 0.93496c2.8528 0.045 5.3678 1.8797 6.2781 4.5829l2.721 8.0724c0.41604 1.2362 0.46474 2.5643 0.14005 3.8259l-1.8826 7.3154c-0.0722 0.27971-0.11384 0.56724-0.1246 0.85477l-2.7437 73.629c-0.0313 0.83912 0.19971 1.6665 0.66054 2.3668l3.5065 5.3359c0.69731 1.0621 1.8533 1.733 3.1212 1.8132l30.505 1.9442c0.31276 0.0196 0.6267 2e-3 0.93535-0.0509l9.8343-1.6724c1.0611-0.17995 2.0064-0.77653 2.6263-1.6548l8.5312-12.104c0.93613-1.3281 2.4602-2.1183 4.0861-2.1183 1.815 0 3.4873 0.98386 4.3687 2.5702l5.9531 10.707c0.52225 0.93887 1.3966 1.6313 2.4313 1.9247l14.236 4.0313c0.35795 0.10172 0.72959 0.15257 1.1032 0.15257h18.766c0.67287 0 1.336-0.16626 1.9266-0.48704l11.102-6.0127c1.0093-0.54768 1.7369-1.4963 2.0049-2.6093l4.0215-16.761c0.0665-0.2797 0.10367-0.56528 0.10954-0.85281l4.045-184.59c0.0821-3.7551 3.2235-6.7165 6.979-6.5794l55.617 2.0289c3.6968 0.13497 6.5917 3.2215 6.488 6.9154l-1.0504 37.446c-6e-3 0.21516 6e-3 0.43032 0.0333 0.64352l0.82152 6.2005c0.15844 1.199 0.84694 2.265 1.8758 2.9027l4.4225 2.7423c0.60244 0.37359 1.2929 0.58288 2.001 0.60635l38.795 1.2616c3.6773 0.11931 6.578 3.1628 6.5174 6.8381l-0.71981 43.257 0.7824 16.567c0.0196 0.40489 2e-3 0.81173-0.0528 1.2127l-1.6254 12.127c-0.0293 0.22299-0.0411 0.44988-0.0333 0.67482l2.0362 59.137c0.0489 1.4024 0.82152 2.6797 2.044 3.3741l1.244 0.70416c0.55159 0.31295 1.1697 0.49095 1.8034 0.52224l25.862 1.2244c0.63178 0.0293 1.2616-0.088 1.8367-0.34621l7.0044-3.1178c1.3848-0.6181 2.3081-1.958 2.3902-3.4719l2.0812-38.688c0.0156-0.28166 2e-3 -0.56528-0.043-0.84303l-5.0758-32.256c-0.0743-0.4753-0.0978-0.95647-0.0704-1.4376l3.5834-61.342c0.20343-3.5169 3.0866-6.2787 6.6112-6.3374l33.68-0.56528c0.72176-0.0117 1.4279-0.21712 2.044-0.59462l6.9907-4.2797c1.1834-0.72371 1.911-2.001 1.9306-3.3878l0.55941-40.186c0.0509-3.6806 3.0514-6.6376 6.7345-6.6376h64.651c0.38142 0 0.76088-0.054 1.1286-0.16058l3.5834-1.041c4.446-1.2913 8.8411 2.1802 8.6083 6.8006l-9.244 184.24c-0.0372 0.75109 0.13496 1.4983 0.49877 2.1555l4.0802 7.3741c0.70024 1.2655 2.0244 2.0596 3.4719 2.0831l193.23 3.1648c0.44205 8e-3 0.88215-0.0567 1.3027-0.19169l17.277-5.5413c1.6567-0.53203 2.7873-2.0655 2.8049-3.8044l2.3648-235.81c0.0117-1.0091-0.35794-1.9851-1.0308-2.7364l-4.045-4.5088c-0.74914-0.83345-1.8093-1.3193-2.9301-1.3418l-138.81-2.78-365.57 3.5957c-2.9653 0.0291-5.6-1.8811-6.49-4.7055l-6.265-19.836c-0.39511-1.2516-0.41467-2.5913-0.0587-3.8543l8.6963-30.774c0.27384-0.96822 0.17604-2.0037-0.27384-2.9035l-10.283-20.549c-0.25037-0.49956-0.60245-0.942-1.0308-1.2992l-9.6254-7.9957c-0.72567-0.60303-1.6391-0.9332-2.5839-0.9332zm-4.5398-0.93418c1.2401-1.1311 2.8597-1.7582 4.5398-1.7582h21.831c1.5746 0 3.0983 0.55022 4.3071 1.5552l9.6235 7.9957c0.71785 0.5954 1.3027 1.3328 1.7193 2.1655l10.283 20.549c0.7511 1.4997 0.91345 3.2254 0.4577 4.8393l-8.6963 30.773c-0.2132 0.75775-0.20146 1.5617 0.0352 2.3126l6.2631 19.836c0.53594 1.6947 2.1164 2.8409 3.8944 2.8233l365.59-3.5957 138.88 2.7806c1.866 0.0374 3.6342 0.84733 4.8802 2.2365l4.045 4.5086c1.1247 1.252 1.7389 2.8792 1.7213 4.5608l-2.3648 235.8c-0.0293 2.9007-1.9149 5.4552-4.6768 6.3433l-17.277 5.5413c-0.70024 0.22298-1.4337 0.33252-2.1692 0.32078l-193.24-3.1667c-2.4117-0.0391-4.6181-1.3633-5.7839-3.4719l-4.0802-7.3721c-0.60832-1.0973-0.89585-2.3433-0.83325-3.5951l9.244-184.23c0.13888-2.7722-2.4978-4.8554-5.1638-4.0804l-3.5853 1.041c-0.61027 0.17761-1.244 0.26758-1.8797 0.26758h-64.651c-2.2103 0-4.0098 1.7743-4.0411 3.9826l-0.55746 40.186c-0.0333 2.31-1.2479 4.442-3.2176 5.6469l-6.9927 4.2797c-1.0249 0.62787-2.2024 0.97017-3.4054 0.98973l-33.68 0.56528c-2.1144 0.0352-3.8435 1.6939-3.9668 3.8024l-3.5834 61.344c-0.0156 0.28753-2e-3 0.57701 0.043 0.86259l5.0758 32.254c0.0743 0.46552 0.0978 0.93691 0.0724 1.4064l-2.0831 38.688c-0.13496 2.5232-1.6743 4.757-3.9844 5.7858l-7.0024 3.1198c-0.96039 0.42836-2.0088 0.62396-3.0611 0.57506l-25.862-1.2244c-1.0562-0.0509-2.087-0.34817-3.0064-0.87042l-1.244-0.70415c-2.0362-1.156-3.3271-3.2841-3.4073-5.6235l-2.0362-59.135c-0.0137-0.37751 6e-3 -0.75306 0.0548-1.1266l1.6274-12.127c0.0333-0.24058 0.043-0.48508 0.0313-0.72763l-0.78631-16.653 0.7198-43.343c0.0372-2.2044-1.7037-4.0313-3.91-4.1037l-38.795-1.2616c-1.1814-0.0372-2.3296-0.38533-3.333-1.0073l-4.4244-2.7442c-1.7134-1.0621-2.8597-2.8362-3.1257-4.8352l-0.82152-6.2024c-0.0469-0.35403-0.0645-0.71393-0.0548-1.0719l1.0504-37.446c0.0626-2.2163-1.6743-4.0683-3.8924-4.1492l-55.617-2.0289c-2.2533-0.0822-4.1389 1.6947-4.1878 3.9476l-4.045 184.59c-0.01 0.47922-0.0724 0.95648-0.18387 1.422l-4.0196 16.761c-0.44597 1.8562-1.6606 3.4367-3.3408 4.3482l-11.102 6.0127c-0.98582 0.53398-2.089 0.81369-3.2117 0.81369h-18.766c-0.622 0-1.2401-0.0861-1.8386-0.25624l-14.236-4.0313c-1.7232-0.489-3.1804-1.643-4.0508-3.2078l-5.9534-10.707c-0.40626-0.72958-1.1769-1.1834-2.0133-1.1834-0.74934 0-1.4517 0.36381-1.883 0.97604l-8.5312 12.104c-1.0332 1.465-2.6085 2.4587-4.3771 2.7579l-9.8343 1.6724c-0.51482 0.088-1.0378 0.1154-1.5589 0.0822l-30.505-1.9423c-2.1131-0.13496-4.0399-1.2538-5.2022-3.022l-3.5065-5.3359c-0.76831-1.1697-1.1531-2.5487-1.101-3.9452l2.7437-73.629c0.018-0.48117 0.0876-0.95843 0.20772-1.4259l1.8826-7.3154c0.19482-0.75697 0.16568-1.555-0.0841-2.2944l-2.7208-8.0743c-0.5463-1.6215-2.0554-2.7227-3.767-2.7501l-59.379-0.933c-2.1929-0.0352-4.0131 1.6841-4.1021 3.8729l-3.8024 93.391c-0.11951 2.9359-2.1289 5.4533-4.9653 6.224l-6.4076 1.7389c-0.57565 0.15453-1.1693 0.23472-1.7657 0.23472h-24.985c-0.80358 0-1.6006-0.14474-2.3536-0.42445l-3.6439-1.3575c-2.5657-0.95648-4.297-3.3682-4.3798-6.1027l-2.3159-76.495-1.4824-103.15 0.65476-69.873c0.015337-1.6366 0.62695-3.2115 1.7204-4.4303l3.9558-4.4088c1.3402-1.4936 3.2774-2.3122 5.2835-2.2324l39.757 1.58c3.5928 0.14279 6.4401 3.0797 6.4687 6.6723l0.62592 78.814c0.0057 0.71589-0.10308 1.4279-0.32215 2.1105l-2.8829 8.9741c-0.17565 0.54768-0.23257 1.1247-0.16704 1.6958l0.6533 5.6782c0.23844 2.0734 2.0184 3.6244 4.1062 3.5775l61.866-1.3907c2.1655-0.0469 3.9077-1.7936 3.9503-3.957l2.0047-101.53c0.0389-1.972 0.94161-3.8279 2.4694-5.0768l2.48-2.0278c1.2284-1.0042 2.7722-1.5429 4.3593-1.5208l43.598 0.60499c1.3737 0.0192 2.6631-0.66034 3.423-1.804l8.9005-13.391c0.57545-0.86553 0.79472-1.9194 0.61242-2.9424l-4.6418-26.045c-0.19208-1.0776-0.11834-2.1856 0.21516-3.2284l5.3534-16.745c0.35873-1.1222 1.006-2.1307 1.8768-2.9246z" clip-rule="evenodd" fill="#5dfc71" fill-rule="evenodd" stroke-width="1.956"/>
 <path d="m700.4 216.56c-0.76283-7.687-4.0352-13.659-9.8171-17.915-5.7819-4.2556-13.629-6.3838-23.54-6.3838-6.7364 0-12.422 0.95296-17.06 2.8591-4.6396 1.8425-8.1976 4.4147-10.676 7.7183-2.4137 3.3037-3.6205 7.0514-3.6205 11.245-0.12714 3.4934 0.60245 6.5428 2.1907 9.1482 1.6528 2.6034 3.9081 4.8587 6.7677 6.7638 2.8597 1.8425 6.1633 3.4641 9.911 4.8606 3.7496 1.334 7.7535 2.4782 12.01 3.4308l17.537 4.1917c8.5144 1.9071 16.329 4.4479 23.444 7.6244 7.1178 3.1765 13.281 7.0826 18.49 11.72 5.2108 4.6376 9.246 10.101 12.104 16.391 2.9242 6.2885 4.4166 13.498 4.4812 21.631-0.0645 11.941-3.1139 22.296-9.1501 31.063-5.9736 8.7042-14.613 15.47-25.925 20.297-11.245 4.7648-24.812 7.1472-40.696 7.1472-15.757 0-29.481-2.4137-41.174-7.2411-11.626-4.8293-20.712-11.977-27.257-21.442-6.4822-9.5296-9.8817-21.312-10.199-35.353h39.933c0.44597 6.5428 2.3198 12.006 5.6235 16.389 3.3682 4.3208 7.8474 7.5932 13.44 9.8152 5.6548 2.1614 12.039 3.2411 19.157 3.2411 6.9888 0 13.056-1.0171 18.202-3.0494 5.2108-2.0342 9.246-4.8606 12.106-8.4812 2.8577-3.6205 4.2875-7.7829 4.2875-12.483 0-4.3834-1.3027-8.0685-3.9081-11.053-2.5408-2.9868-6.2905-5.5276-11.245-7.6244-4.8939-2.0968-10.897-4.002-18.015-5.7174l-21.254-5.3359c-16.456-4.002-29.449-10.259-38.981-18.772-9.5296-8.5144-14.263-19.98-14.2-34.402-0.0626-11.816 3.0826-22.138 9.4357-30.969 6.4176-8.8303 15.218-15.723 26.4-20.678 11.184-4.9551 23.89-7.4328 38.124-7.4328 14.486 0 27.132 2.4776 37.933 7.4328 10.866 4.9551 19.315 11.848 25.352 20.678 6.0362 8.8303 9.1501 19.059 9.3398 30.683z" fill="#5dfc71" stroke-width="1.956"/>
 <path d="m575.29 148.61v219.17h180.54v-219.17zm-8.0822-13.462c-2.977 0-5.3907 2.4108-5.3907 5.3848v235.32c0 2.9731 2.4137 5.3848 5.3907 5.3848h196.7c2.9751 0 5.3888-2.4117 5.3888-5.3848v-235.32c0-2.9741-2.4137-5.3848-5.3888-5.3848z" clip-rule="evenodd" fill="#5dfc71" fill-rule="evenodd" stroke-width="1.956"/>
 <path d="m248.98 141.88c0-2.9741 2.4117-5.385 5.3888-5.385h67.634c2.9751 0 5.3888 2.411 5.3888 5.385v29.886c0 2.9741-2.4137 5.3848-5.3888 5.3848h-67.634c-2.977 0-5.3888-2.4108-5.3888-5.3848z" fill="#5dfc71" stroke-width="1.956"/>
 <path d="m383.71 242.31c0-2.9731 2.4117-5.3848 5.3888-5.3848h22.095c2.977 0 5.3907 2.4117 5.3907 5.3848v60.043c0 2.9731-2.4137 5.3848-5.3907 5.3848h-22.095c-2.977 0-5.3888-2.4117-5.3888-5.3848z" fill="#5dfc71" stroke-width="1.956"/>
 <path d="m382.36 314.2c0-2.9731 2.4137-5.3848 5.3888-5.3848h25.33c2.9751 0 5.3888 2.4117 5.3888 5.3848v62.197c0 2.9731-2.4137 5.3848-5.3888 5.3848h-25.33c-2.9751 0-5.3888-2.4117-5.3888-5.3848z" fill="#5dfc71" stroke-width="1.956"/>
 <path d="m470.47 141.88c0-2.9741 2.4117-5.385 5.3888-5.385h70.06c2.9751 0 5.3888 2.411 5.3888 5.385v29.886c0 2.9741-2.4137 5.3848-5.3888 5.3848h-70.06c-2.977 0-5.3888-2.4108-5.3888-5.3848z" fill="#5dfc71" stroke-width="1.956"/>
 <path d="m330.09 141.88c0-2.9741 2.4117-5.385 5.3888-5.385h126.91c2.977 0 5.3888 2.411 5.3888 5.385v87.505c0 2.9731-2.4117 5.3848-5.3888 5.3848h-126.91c-2.977 0-5.3888-2.4117-5.3888-5.3848z" fill="#5dfc71" stroke-width="1.956"/>
 <path d="m222.3 131.38c0 2.8254-2.2924 5.1157-5.1188 5.1157-2.8284 0-5.1208-2.2903-5.1208-5.1157 0-2.8252 2.2924-5.1157 5.1208-5.1157 2.8264 0 5.1188 2.2905 5.1188 5.1157z" fill="#5dfc71" stroke-width="1.956"/>
 <path d="m238.47 131.38c0 2.8254-2.2924 5.1157-5.1188 5.1157-2.8284 0-5.1208-2.2903-5.1208-5.1157 0-2.8252 2.2924-5.1157 5.1208-5.1157 2.8264 0 5.1188 2.2905 5.1188 5.1157z" fill="#5dfc71" stroke-width="1.956"/>
 <path d="m222.3 146.99c0 2.8254-2.2924 5.1157-5.1188 5.1157-2.8284 0-5.1208-2.2903-5.1208-5.1157 0-2.8252 2.2924-5.1155 5.1208-5.1155 2.8264 0 5.1188 2.2903 5.1188 5.1155z" fill="#5dfc71" stroke-width="1.956"/>
 <path d="m222.3 162.61c0 2.8254-2.2924 5.1157-5.1188 5.1157-2.8284 0-5.1208-2.2903-5.1208-5.1157 0-2.8252 2.2924-5.1155 5.1208-5.1155 2.8264 0 5.1188 2.2903 5.1188 5.1155z" fill="#5dfc71" stroke-width="1.956"/>
 <path d="m222.3 178.23c0 2.8254-2.2924 5.1157-5.1188 5.1157-2.8284 0-5.1208-2.2903-5.1208-5.1157 0-2.8252 2.2924-5.1155 5.1208-5.1155 2.8264 0 5.1188 2.2903 5.1188 5.1155z" fill="#5dfc71" stroke-width="1.956"/>
 <path d="m222.3 193.84c0 2.8246-2.2924 5.1151-5.1188 5.1151-2.8284 0-5.1208-2.2905-5.1208-5.1151 0-2.8254 2.2924-5.1157 5.1208-5.1157 2.8264 0 5.1188 2.2903 5.1188 5.1157z" fill="#5dfc71" stroke-width="1.956"/>
 <path d="m222.3 209.46c0 2.8244-2.2924 5.1149-5.1188 5.1149-2.8284 0-5.1208-2.2905-5.1208-5.1149 0-2.8264 2.2924-5.1169 5.1208-5.1169 2.8264 0 5.1188 2.2905 5.1188 5.1169z" fill="#5dfc71" stroke-width="1.956"/>
 <path d="m222.3 225.08c0 2.8264-2.2924 5.1169-5.1188 5.1169-2.8284 0-5.1208-2.2905-5.1208-5.1169 0-2.8244 2.2924-5.1149 5.1208-5.1149 2.8264 0 5.1188 2.2905 5.1188 5.1149z" fill="#5dfc71" stroke-width="1.956"/>
 <path d="m222.3 240.69c0 2.8264-2.2924 5.1169-5.1188 5.1169-2.8284 0-5.1208-2.2905-5.1208-5.1169 0-2.8244 2.2924-5.1149 5.1208-5.1149 2.8264 0 5.1188 2.2905 5.1188 5.1149z" fill="#5dfc71" stroke-width="1.956"/>
 <path d="m222.3 256.31c0 2.8264-2.2924 5.1169-5.1188 5.1169-2.8284 0-5.1208-2.2905-5.1208-5.1169 0-2.8244 2.2924-5.1149 5.1208-5.1149 2.8264 0 5.1188 2.2905 5.1188 5.1149z" fill="#5dfc71" stroke-width="1.956"/>
 <path d="m222.3 271.92c0 2.8244-2.2924 5.1149-5.1188 5.1149-2.8284 0-5.1208-2.2905-5.1208-5.1149 0-2.8264 2.2924-5.1149 5.1208-5.1149 2.8264 0 5.1188 2.2885 5.1188 5.1149z" fill="#5dfc71" stroke-width="1.956"/>
 <path d="m222.3 287.54c0 2.8244-2.2924 5.1149-5.1188 5.1149-2.8284 0-5.1208-2.2905-5.1208-5.1149 0-2.8264 2.2924-5.1169 5.1208-5.1169 2.8264 0 5.1188 2.2905 5.1188 5.1169z" fill="#5dfc71" stroke-width="1.956"/>
 <path d="m222.3 303.16c0 2.8244-2.2924 5.1149-5.1188 5.1149-2.8284 0-5.1208-2.2905-5.1208-5.1149 0-2.8264 2.2924-5.1169 5.1208-5.1169 2.8264 0 5.1188 2.2905 5.1188 5.1169z" fill="#5dfc71" stroke-width="1.956"/>
 <path d="m222.3 318.77c0 2.8264-2.2924 5.1169-5.1188 5.1169-2.8284 0-5.1208-2.2905-5.1208-5.1169 0-2.8244 2.2924-5.1149 5.1208-5.1149 2.8264 0 5.1188 2.2905 5.1188 5.1149z" fill="#5dfc71" stroke-width="1.956"/>
 <path d="m222.3 334.39c0 2.8264-2.2924 5.1169-5.1188 5.1169-2.8284 0-5.1208-2.2905-5.1208-5.1169 0-2.8244 2.2924-5.1149 5.1208-5.1149 2.8264 0 5.1188 2.2905 5.1188 5.1149z" fill="#5dfc71" stroke-width="1.956"/>
 <path d="m222.3 350.01c0 2.8244-2.2924 5.1149-5.1188 5.1149-2.8284 0-5.1208-2.2905-5.1208-5.1149s2.2924-5.1149 5.1208-5.1149c2.8264 0 5.1188 2.2905 5.1188 5.1149z" fill="#5dfc71" stroke-width="1.956"/>
 <path d="m222.3 365.62c0 2.8244-2.2924 5.1149-5.1188 5.1149-2.8284 0-5.1208-2.2905-5.1208-5.1149 0-2.8264 2.2924-5.1169 5.1208-5.1169 2.8264 0 5.1188 2.2905 5.1188 5.1169z" fill="#5dfc71" stroke-width="1.956"/>
 <path d="m222.3 381.24c0 2.8244-2.2924 5.1149-5.1188 5.1149-2.8284 0-5.1208-2.2905-5.1208-5.1149 0-2.8264 2.2924-5.1169 5.1208-5.1169 2.8264 0 5.1188 2.2905 5.1188 5.1169z" fill="#5dfc71" stroke-width="1.956"/>
 <path d="m238.47 146.99c0 2.8254-2.2924 5.1157-5.1188 5.1157-2.8284 0-5.1208-2.2903-5.1208-5.1157 0-2.8252 2.2924-5.1155 5.1208-5.1155 2.8264 0 5.1188 2.2903 5.1188 5.1155z" fill="#5dfc71" stroke-width="1.956"/>
 <path d="m238.47 162.61c0 2.8254-2.2924 5.1157-5.1188 5.1157-2.8284 0-5.1208-2.2903-5.1208-5.1157 0-2.8252 2.2924-5.1155 5.1208-5.1155 2.8264 0 5.1188 2.2903 5.1188 5.1155z" fill="#5dfc71" stroke-width="1.956"/>
 <path d="m238.47 178.23c0 2.8254-2.2924 5.1157-5.1188 5.1157-2.8284 0-5.1208-2.2903-5.1208-5.1157 0-2.8252 2.2924-5.1155 5.1208-5.1155 2.8264 0 5.1188 2.2903 5.1188 5.1155z" fill="#5dfc71" stroke-width="1.956"/>
 <path d="m238.47 193.84c0 2.8246-2.2924 5.1151-5.1188 5.1151-2.8284 0-5.1208-2.2905-5.1208-5.1151 0-2.8254 2.2924-5.1157 5.1208-5.1157 2.8264 0 5.1188 2.2903 5.1188 5.1157z" fill="#5dfc71" stroke-width="1.956"/>
 <path d="m238.47 209.46c0 2.8244-2.2924 5.1149-5.1188 5.1149-2.8284 0-5.1208-2.2905-5.1208-5.1149 0-2.8264 2.2924-5.1169 5.1208-5.1169 2.8264 0 5.1188 2.2905 5.1188 5.1169z" fill="#5dfc71" stroke-width="1.956"/>
 <path d="m238.47 225.08c0 2.8264-2.2924 5.1169-5.1188 5.1169-2.8284 0-5.1208-2.2905-5.1208-5.1169 0-2.8244 2.2924-5.1149 5.1208-5.1149 2.8264 0 5.1188 2.2905 5.1188 5.1149z" fill="#5dfc71" stroke-width="1.956"/>
 <path d="m238.47 240.69c0 2.8264-2.2924 5.1169-5.1188 5.1169-2.8284 0-5.1208-2.2905-5.1208-5.1169 0-2.8244 2.2924-5.1149 5.1208-5.1149 2.8264 0 5.1188 2.2905 5.1188 5.1149z" fill="#5dfc71" stroke-width="1.956"/>
 <path d="m238.47 256.31c0 2.8264-2.2924 5.1169-5.1188 5.1169-2.8284 0-5.1208-2.2905-5.1208-5.1169 0-2.8244 2.2924-5.1149 5.1208-5.1149 2.8264 0 5.1188 2.2905 5.1188 5.1149z" fill="#5dfc71" stroke-width="1.956"/>
 <path d="m238.47 271.92c0 2.8244-2.2924 5.1149-5.1188 5.1149-2.8284 0-5.1208-2.2905-5.1208-5.1149 0-2.8264 2.2924-5.1149 5.1208-5.1149 2.8264 0 5.1188 2.2885 5.1188 5.1149z" fill="#5dfc71" stroke-width="1.956"/>
 <path d="m238.47 287.54c0 2.8244-2.2924 5.1149-5.1188 5.1149-2.8284 0-5.1208-2.2905-5.1208-5.1149 0-2.8264 2.2924-5.1169 5.1208-5.1169 2.8264 0 5.1188 2.2905 5.1188 5.1169z" fill="#5dfc71" stroke-width="1.956"/>
 <path d="m238.47 303.16c0 2.8244-2.2924 5.1149-5.1188 5.1149-2.8284 0-5.1208-2.2905-5.1208-5.1149 0-2.8264 2.2924-5.1169 5.1208-5.1169 2.8264 0 5.1188 2.2905 5.1188 5.1169z" fill="#5dfc71" stroke-width="1.956"/>
 <path d="m238.47 318.77c0 2.8264-2.2924 5.1169-5.1188 5.1169-2.8284 0-5.1208-2.2905-5.1208-5.1169 0-2.8244 2.2924-5.1149 5.1208-5.1149 2.8264 0 5.1188 2.2905 5.1188 5.1149z" fill="#5dfc71" stroke-width="1.956"/>
 <path d="m238.47 334.39c0 2.8264-2.2924 5.1169-5.1188 5.1169-2.8284 0-5.1208-2.2905-5.1208-5.1169 0-2.8244 2.2924-5.1149 5.1208-5.1149 2.8264 0 5.1188 2.2905 5.1188 5.1149z" fill="#5dfc71" stroke-width="1.956"/>
 <path d="m238.47 350.01c0 2.8244-2.2924 5.1149-5.1188 5.1149-2.8284 0-5.1208-2.2905-5.1208-5.1149s2.2924-5.1149 5.1208-5.1149c2.8264 0 5.1188 2.2905 5.1188 5.1149z" fill="#5dfc71" stroke-width="1.956"/>
 <path d="m238.47 365.62c0 2.8244-2.2924 5.1149-5.1188 5.1149-2.8284 0-5.1208-2.2905-5.1208-5.1149 0-2.8264 2.2924-5.1169 5.1208-5.1169 2.8264 0 5.1188 2.2905 5.1188 5.1169z" fill="#5dfc71" stroke-width="1.956"/>
 <path d="m238.47 381.24c0 2.8244-2.2924 5.1149-5.1188 5.1149-2.8284 0-5.1208-2.2905-5.1208-5.1149 0-2.8264 2.2924-5.1169 5.1208-5.1169 2.8264 0 5.1188 2.2905 5.1188 5.1169z" fill="#5dfc71" stroke-width="1.956"/>
 <path d="m248.71 76.452c0 12.937-10.496 23.424-23.443 23.424-12.947 0-23.443-10.487-23.443-23.424 0-12.937 10.496-23.425 23.443-23.425 12.947 0 23.443 10.488 23.443 23.425z" fill="#5dfc71" stroke-width="1.956"/>
 <path d="m7.5449 136.22c0-2.9741 2.4128-5.385 5.3891-5.385h34.221c2.9764 0 5.3891 2.411 5.3891 5.385v79.966c0 2.9731-2.4127 5.3848-5.3891 5.3848h-34.221c-2.9764 0-5.3891-2.4117-5.3891-5.3848z" fill="#5dfc71" stroke-width="1.956"/>
 <path d="m133.65 129.22c0-2.9739 2.4127-5.3848 5.3891-5.3848h34.221c2.9762 0 5.3891 2.411 5.3891 5.3848v81.582c0 2.9731-2.4129 5.3848-5.3891 5.3848h-34.221c-2.9764 0-5.3891-2.4117-5.3891-5.3848z" fill="#5dfc71" stroke-width="1.956"/>
 <path d="m131.77 221.58c0-2.9731 2.4127-5.3848 5.3891-5.3848h34.221c2.9764 0 5.3893 2.4117 5.3893 5.3848v76.466c0 2.9751-2.4129 5.3848-5.3893 5.3848h-34.221c-2.9764 0-5.3891-2.4098-5.3891-5.3848z" fill="#5dfc71" stroke-width="1.956"/>
 <path d="m129.61 310.43c0-2.9731 2.4127-5.3848 5.3891-5.3848h34.221c2.9762 0 5.3892 2.4117 5.3892 5.3848v76.465c0 2.9751-2.4129 5.3848-5.3892 5.3848h-34.221c-2.9764 0-5.3891-2.4098-5.3891-5.3848z" fill="#5dfc71" stroke-width="1.956"/>
 <path d="m5.9282 228.31c0-2.9731 2.4128-5.3848 5.3892-5.3848h30.988c2.9764 0 5.3891 2.4117 5.3891 5.3848v73.236c0 2.9731-2.4127 5.3848-5.3891 5.3848h-30.988c-2.9764 0-5.3892-2.4117-5.3892-5.3848z" fill="#5dfc71" stroke-width="1.956"/>
 <path d="m49.85 246.08c0-2.9731 2.4129-5.3848 5.3891-5.3848h71.137c2.9762 0 5.3891 2.4117 5.3891 5.3848v28.81c0 2.9751-2.4129 5.3848-5.3891 5.3848h-71.137c-2.9762 0-5.3891-2.4098-5.3891-5.3848z" fill="#5dfc71" stroke-width="1.956"/>
 <path d="m9.1617 313.66c0-2.9731 2.4128-5.3848 5.3892-5.3848h27.754c2.9764 0 5.3891 2.4117 5.3891 5.3848v67.581c0 2.9731-2.4127 5.3848-5.3891 5.3848h-27.754c-2.9764 0-5.3892-2.4117-5.3892-5.3848z" fill="#5dfc71" stroke-width="1.956"/>
</svg>
