<svg version="1.1" viewBox="0 0 800 563.3" xml:space="preserve" xmlns="http://www.w3.org/2000/svg">
<style type="text/css">
	.st0{fill:#F2D025;}
	.st1{fill:#28AAEA;}
	.st2{fill:#D84A8A;}
	.st3{fill:#00CCFF;}
</style>
<g transform="matrix(9.9875 0 0 9.9875 -792.01 -210.74)">
	<path class="st0" d="m86.6 53.7c-0.1-0.1-0.1-0.2 0-0.3l4.2-7c0.3-0.5 0.1-0.8-0.5-0.8l-3.2 0.3c-0.3 0-0.6 0.2-0.7 0.5l-2.9 5v-0.1l-0.4-4.3c0-0.3-0.2-0.6-0.5-0.6h-0.2l-2.5 0.2c-0.3 0-0.6 0.2-0.6 0.6v0.1l1.3 13.7c0 0.3 0.3 0.6 0.6 0.6h0.1l2.5-0.2c0.3 0 0.6-0.2 0.6-0.6v-0.1l-0.4-3.1-0.1-1.2 4.2 4.3c0.2 0.3 0.5 0.4 0.8 0.4l3-0.3c0.5 0 0.7-0.4 0.3-0.8z"/>
	<path class="st1" d="m103.2 59.8c0.3 0 0.4-0.3 0.4-0.7l-0.2-2.4c0-0.4-0.2-0.6-0.5-0.6l-3.1 0.3-0.7-7.8 3.1-0.3c0.3 0 0.4-0.3 0.4-0.7l-0.2-2.4c0-0.4-0.2-0.6-0.5-0.6l-3.7 0.4-2.4 0.2-3.8 0.3c-0.3 0-0.4 0.3-0.4 0.7l0.2 2.4c0 0.4 0.2 0.6 0.5 0.6l3.1-0.3 0.7 7.8-3.1 0.3c-0.3 0-0.4 0.3-0.4 0.7l0.2 2.4c0 0.4 0.2 0.6 0.5 0.6z"/>
	<path class="st2" d="m115.5 53.4-0.4-4.7c-0.3-3.5-1.8-5.1-5.8-4.7l-4.8 0.4c-0.3 0-0.6 0.3-0.6 0.6v0.1l1.2 13.8c0 0.3 0.3 0.6 0.6 0.6h0.1l4.8-0.4c4-0.4 5.2-2.2 4.9-5.7zm-5.2 1.9-1.8 0.2-0.7-7.7 1.8-0.2c1-0.1 1.6 0 1.7 1.3l0.4 4.7c0.1 1.4-0.4 1.7-1.4 1.7z" Googl="true"/>
	<path class="st2" d="m159.3 53.4-0.4-3.6c0-0.5-0.4-0.9-0.8-0.9h-0.2l-5.6 0.7-0.7-5.6c0-0.5-0.4-0.9-0.9-0.9h-0.2l-3.6 0.4c-0.5 0-0.9 0.4-0.9 0.9v0.2l0.7 5.6-5.6 0.7c-0.5 0-0.9 0.4-0.9 0.9v0.2l0.4 3.6c0 0.5 0.4 0.9 0.9 0.9h0.2l5.6-0.7 0.7 5.6c0 0.5 0.4 0.9 0.9 0.9h0.2l3.6-0.4c0.5 0 0.9-0.4 0.9-0.8v-0.2l-0.7-5.6 5.6-0.7c0.5 0 0.9-0.4 0.9-0.9 0-0.2-0.1-0.2-0.1-0.3z"/>
	<path class="st2" d="m116.9 69.9-0.7-5.4c-0.2-1.4-0.9-5.2-6-4.6s-4.9 4.5-4.7 5.9l0.7 5.4c0.2 1.4 0.9 5.2 6 4.6s4.9-4.4 4.7-5.9zm-5.2 2.2c-1.6 0.2-1.8-0.8-2-2.5l-0.4-3.1c-0.2-1.7-0.2-2.7 1.4-2.9s1.8 0.8 2 2.5l0.4 3.1c0.2 1.7 0.2 2.7-1.4 2.9z"/>
	<path class="st0" d="m128.7 58.8c0-0.3-0.2-0.6-0.6-0.6h-0.2l-2.4 0.3c-0.3 0-0.6 0.3-0.6 0.6v0.1l0.9 7.6-0.3-0.6-3.8-6.8c-0.1-0.3-0.5-0.5-0.8-0.4l-3.2 0.4c-0.3 0-0.6 0.3-0.6 0.6v0.1l1.7 13.7c0 0.3 0.3 0.6 0.6 0.6h0.1l2.4-0.3c0.3 0 0.6-0.3 0.6-0.6v-0.1l-0.9-7.6 0.3 0.6 3.8 6.8c0.1 0.3 0.5 0.5 0.8 0.4l3.2-0.4c0.3 0 0.6-0.3 0.6-0.6v-0.1z"/>
	<path class="st1" d="m142.3 68.6c0-0.3-0.2-0.6-0.6-0.6h-0.2l-6.2 0.8-0.2-2 5.1-0.6c0.3 0 0.6-0.3 0.6-0.6v-0.1l-0.3-2.4c0-0.3-0.2-0.6-0.6-0.6h-0.2l-5.1 0.6-0.2-2 5.1-0.6c0.3 0 0.6-0.3 0.6-0.6v-0.1l-0.3-2.4c0-0.3-0.2-0.6-0.6-0.6h-0.2l-8.2 1c-0.3 0-0.6 0.3-0.6 0.6v0.1l1.7 13.7c0 0.3 0.3 0.6 0.6 0.6h0.1l9.4-1.2c0.3 0 0.6-0.2 0.6-0.6v-0.2z"/>
	<path class="st0" d="m105.3 73.2v-0.2c-0.1-0.3-0.4-0.5-0.7-0.4l-5.1 0.6 4.5-7.9c0.2-0.4 0.3-0.8 0.2-1.2l-0.3-2.4c0-0.3-0.3-0.5-0.6-0.5l-9.6 1.2c-0.3 0-0.6 0.3-0.6 0.6v0.1l0.3 2.4c0 0.4 0.4 0.6 0.7 0.6l5.4-0.7-4.8 8.3c-0.2 0.4-0.3 0.8-0.2 1.2l0.3 2.1c0 0.3 0.3 0.5 0.6 0.5l9.6-1.2c0.3 0 0.6-0.2 0.6-0.5v-0.2z"/>
	<path class="st3" d="m125 29.1c-0.6 0-1.7-0.1-2.8-0.2v0.1c1.1 0.1 2.2 0.2 2.8 0.1 0.9-3.7 4-6.5 7.8-6.9v-0.1c-3.9 0.5-7 3.3-7.8 7z"/>
	<path class="st1" d="m125 29.1c0.9-3.7 4-6.5 7.8-7-0.4-0.6-1.1-0.9-1.8-1h-0.3c-4.4 0-8.2 3.4-8.6 7.8 1.2 0.1 2.3 0.2 2.9 0.2z"/>
	<path class="st1" d="m121.6 42.6c-1.5572 2.1565-3.577 6.5222-3.5 8.8 0.4 4.2 3.5 5.4 7.2 5.1 0.6 0 1.2-0.1 1.8-0.2 4.3-0.8 6.3-2.4 6.9-4.1 0.2-0.6 0.2-1.2 0.1-1.7-0.3-1.9-2.2-3.5-6.2-3.3-0.1 0-0.2-0.1-0.2-0.2v-0.1c0.7-2.7 4.1-6.7 4-10.8v-0.4c0-0.2 0-0.4-0.1-0.6-0.3-1.6-1.3-3-2.7-3.7 0.1-0.3 0.2-0.6 0.3-0.8v-0.1c0-0.1 0.1-0.2 0.1-0.3s0.1-0.2 0.1-0.3c0 0 0-0.1 0.1-0.1 1.2-2 3.7-3 5.9-2.3 1 0.3 2 0 2.7-0.8 0.8-1.1 0.7-2.6-0.4-3.5-0.2-0.2-0.4-0.3-0.7-0.4-0.2-0.1-0.3-0.1-0.5-0.1-4-0.8-8 1.3-9.6 5.1v0.1c0 0.1-0.1 0.2-0.1 0.2 0 0.1 0 0.1-0.1 0.2v0.1c-0.3 0.8-0.4 1.6-0.5 2.4-1.5-0.2-3-0.1-4.5 0.2-4.6 0.8-6.9 2.7-7.6 4.8-0.3 0.8-0.3 1.7-0.2 2.5 0.4 2.5 2.7 4.6 7.7 4.3z"/>
</g>
</svg>
