<?xml version="1.0" encoding="UTF-8"?>
<!-- Generator: Adobe Illustrator 25.1.0, SVG Export Plug-In . SVG Version: 6.00 Build 0)  -->
<svg version="1.1" id="Layer_1" xmlns="http://www.w3.org/2000/svg" xmlns:xlink="http://www.w3.org/1999/xlink" x="0px" y="0px" viewBox="0 0 512 490.6" style="enable-background:new 0 0 512 490.6;" xml:space="preserve">
<style type="text/css">
	.st0{fill:#FFFFFF;}
</style>
<polygon points="435.8,142.2 359.5,0 88,32.7 23.1,215.2 80.2,259.4 0,294.8 97.3,485.7 459.4,490.6 512,235.9 449.3,211.4   373.8,226.8 " Googl="true"/>
<polygon class="st0" points="202.1,345.8 211.9,410.9 230.2,410.6 226.7,342.8 "/>
<path class="st0" d="M469.8,254.2L156,309l49.8-62.5L40.7,310.4l69.8,145.1l321.3,1.3L469.8,254.2z M138.5,431.7l-10.1-11.2  l15.4-67.5l-48.7,5.8l-4.9-18.9l65.8-8.7l11.4,11.1l-16,69.8l27.9-0.6l3.7,20.1H138.5z M240.2,430.7l-36.8-0.6l-9.8-8.2l-12.3-86.5  l8-9.3l44.7-5.4l11.7,9l3.9,92.5L240.2,430.7z M320.9,430.7l-34.1-65.2l2.5,65.5l-19.7-0.7l-4-113.2l19-2.5l35,69.7l0.7-74.6  l19.8-2.5l-1.2,123.2L320.9,430.7z M360.4,428.9l0.8-124.9l70.7-9.2c-0.7,5.6-3,23.7-3,23.7l-48,5.8v30.7l43.3-3.2l-2.9,21.7  l-41,1.8v32.3l36.8-0.7c0,0-2.7,17-3.5,22.5L360.4,428.9z"/>
<polygon class="st0" points="312.5,64.1 281.3,68.5 287.3,103.4 320.3,95.2 326.7,87.1 321.2,70.3 "/>
<path class="st0" d="M399.7,129.6L348.1,24.4l-240.8,32L60.3,200l224.6-56.3l-54.6,83.1L399.7,129.6z M176.2,149.1l-37.5-31.2  l-11.2,42.2l-25.8,6.1l26.8-94.4l25.2-3.6l-13.1,42l35.7-45.1l26.1-3.7L164,111.4l41.5,31.1L176.2,149.1z M222.6,138.6l-8.3-79  l23.8-3.3l8.2,76.9L222.6,138.6z M264.3,129.2l-9-75.3l62.5-8.8l22.9,11.4l16.8,37.4l-17.1,18.4L264.3,129.2z"/>
</svg>