<svg version="1.1" viewBox="0 0 1509 987" xmlns="http://www.w3.org/2000/svg">
 <rect width="1509" height="987" ry="0" fill="#3c6187"/>
 <g transform="matrix(5.7765 0 0 5.7765 -89929 3687)" fill="#fff">
  <path transform="translate(15607 -615.25)" d="m0 0h5.619v15.189h-5.619z"/>
  <path transform="translate(15569,-704)" d="m51.3 98.773c0-0.683-0.186-2.8-0.186-2.8 0.3 0.638 4.775 7.97 4.775 7.97h5.534v-15.19h-5.388v4.828c0 1.116 0.107 3.008 0.107 3.008-0.562-0.893-4.759-7.836-4.759-7.836h-5.448v15.189h5.365z"/>
  <path transform="translate(15569,-704)" d="m69.609 97.612c0.209 0.455 3.857 6.331 3.857 6.331h6.7l-5.378-7.743 4.667-7.446h-6.312l-3.535 6.469v-6.469h-5.386v15.189h5.386v-6.331z"/>
  <path transform="translate(15569,-704)" d="m25.468 103.94s3.648-5.875 3.857-6.331v6.331h5.386v-15.189h-5.386v6.469l-3.535-6.469h-6.312l4.667 7.446-5.38 7.743h6.7z"/>
  <path transform="translate(15569,-704)" d="m18.766 115.66v40.009l6.119 6.119h29.656v5.125h-35.775v20.5h61.4v-65.635l-6.119-6.119h-55.281zm35.775 25.627h-10.148v-5.125h10.148z"/>
  <path transform="translate(15569,-704)" d="m85.293 115.66v71.755h61.5v-71.755zm35.877 51.253h-10.251v-30.752h10.251z"/>
  <path transform="translate(15721 -588.34)" d="m0 0h20.501v30.752h-20.501z"/>
  <path transform="translate(15569,-704)" d="m239.05 181.32v-33.943l-6.092-6.092h-29.785v-5.126h35.877v-20.5h-55.5l-6.008 6.008v34.109l6.011 6.011h29.867v5.125h-35.874v20.5h55.412z"/>
  <g transform="translate(15569,-704)">
   <path d="m19.172 211.53 1.5-1.78a5.978 5.978 0 0 0 3.983 1.586c1.3 0 1.974-0.6 1.974-1.357 0-0.863-0.7-1.128-2.556-1.551-2.556-0.582-4.371-1.3-4.371-3.648 0-2.238 1.833-3.772 4.477-3.772a6.991 6.991 0 0 1 4.741 1.674l-1.357 1.868a5.612 5.612 0 0 0-3.454-1.339c-1.11 0-1.78 0.582-1.78 1.3 0 0.881 0.723 1.163 2.591 1.586 2.608 0.582 4.336 1.357 4.336 3.6 0 2.309-1.745 3.842-4.706 3.842a7.777 7.777 0 0 1-5.375-2.009z"/>
   <path d="m31.452 201.22h2.591l3.754 6.838 3.736-6.838h2.608v12.107h-2.608v-7.543l-3.733 6.838-3.754-6.838v7.543h-2.594z"/>
   <path d="m49.565 203.56v2.415h6.08v2.344h-6.08v2.662h6.715v2.344h-9.323v-12.107h9.323v2.344h-6.715z"/>
   <path d="m67.3 210.98v2.344h-8.637v-12.107h2.608v9.764h6.029z"/>
   <path d="m77.489 210.98v2.344h-8.636v-12.107h2.608v9.764h6.027z"/>
   <path d="m78.691 211.53 1.5-1.78a5.978 5.978 0 0 0 3.983 1.586c1.3 0 1.974-0.6 1.974-1.357 0-0.863-0.705-1.128-2.556-1.551-2.556-0.582-4.371-1.3-4.371-3.648 0-2.238 1.833-3.772 4.477-3.772a6.991 6.991 0 0 1 4.741 1.674l-1.357 1.868a5.612 5.612 0 0 0-3.454-1.339c-1.11 0-1.78 0.582-1.78 1.3 0 0.881 0.723 1.163 2.591 1.586 2.608 0.582 4.336 1.357 4.336 3.6 0 2.309-1.745 3.842-4.706 3.842a7.777 7.777 0 0 1-5.375-2.009z"/>
   <path d="m104.28 210.98v2.344h-8.636v-12.107h2.608v9.764h6.027z"/>
   <path d="m105.89 201.22h2.607v12.107h-2.608z"/>
   <path d="m111.29 201.22h2.591v5.551l4.9-5.551h3.155l-4.724 5.252 5.059 6.855h-3.155l-3.719-5.005-1.516 1.622v3.384h-2.591v-12.107z"/>
   <path d="m126.27 203.56v2.415h6.08v2.344h-6.08v2.662h6.715v2.344h-9.323v-12.107h9.323v2.344h-6.715z"/>
   <path d="m149.42 207.07c0 3.771-2.2 6.468-5.552 6.468a5.771 5.771 0 0 1-3.719-1.3l1.234-1.974a3.633 3.633 0 0 0 2.467 0.987c1.568 0 2.644-1.3 2.873-3.349a4.366 4.366 0 0 1-3 1.146 3.815 3.815 0 0 1-4.089-3.842c0-2.485 1.991-4.2 4.635-4.2 3.543 0 5.146 2.538 5.146 6.063zm-2.767-1.551c-0.229-1.48-0.882-2.309-2.238-2.309a1.877 1.877 0 1 0 0.07 3.719 2.266 2.266 0 0 0 2.168-1.41z"/>
   <path d="m151.17 207.27c0-3.666 2.238-6.257 5.429-6.257s5.445 2.591 5.445 6.257-2.256 6.274-5.445 6.274-5.429-2.591-5.429-6.274zm8.2 0c0-2.273-1.128-3.9-2.767-3.9-1.622 0-2.768 1.622-2.768 3.9s1.146 3.913 2.768 3.913 2.762-1.639 2.762-3.913z"/>
   <path d="m164.27 205.98a3.641 3.641 0 0 0 1.075-1.657 1.584 1.584 0 0 1-1.551-1.586 1.61 1.61 0 0 1 1.586-1.622c0.986 0 1.674 0.917 1.674 2.2a4.915 4.915 0 0 1-1.868 3.366l-0.916-0.7z"/>
   <path d="m168.56 211.53 1.5-1.78a5.978 5.978 0 0 0 3.983 1.586c1.3 0 1.974-0.6 1.974-1.357 0-0.863-0.705-1.128-2.556-1.551-2.556-0.582-4.371-1.3-4.371-3.648 0-2.238 1.833-3.772 4.477-3.772a6.991 6.991 0 0 1 4.741 1.674l-1.357 1.868a5.612 5.612 0 0 0-3.454-1.339c-1.11 0-1.78 0.582-1.78 1.3 0 0.881 0.723 1.163 2.591 1.586 2.608 0.582 4.336 1.357 4.336 3.6 0 2.309-1.745 3.842-4.706 3.842a7.777 7.777 0 0 1-5.375-2.009z"/>
   <path d="m184.81 211.53 1.5-1.78a5.978 5.978 0 0 0 3.983 1.586c1.3 0 1.974-0.6 1.974-1.357 0-0.863-0.705-1.128-2.556-1.551-2.556-0.582-4.371-1.3-4.371-3.648 0-2.238 1.833-3.772 4.477-3.772a6.991 6.991 0 0 1 4.741 1.674l-1.357 1.868a5.612 5.612 0 0 0-3.454-1.339c-1.11 0-1.78 0.582-1.78 1.3 0 0.881 0.723 1.163 2.591 1.586 2.608 0.582 4.336 1.357 4.336 3.6 0 2.309-1.745 3.842-4.706 3.842a7.777 7.777 0 0 1-5.375-2.009z"/>
   <path d="m197.04 201.22h5.446c2.626 0 4.564 1.692 4.564 4.088s-1.938 4.089-4.564 4.089h-2.855v3.93h-2.591zm5.164 5.8c1.286 0 2.168-0.669 2.168-1.709s-0.882-1.709-2.168-1.709h-2.573v3.419h2.569z"/>
   <path d="m208.84 201.22h2.608v12.107h-2.608z"/>
   <path d="m221.46 213.33-2.768-3.93h-1.921v3.93h-2.591v-12.107h5.446c2.626 0 4.564 1.692 4.564 4.088a3.941 3.941 0 0 1-2.75 3.79l2.979 4.229h-2.96zm-4.688-6.31h2.573c1.286 0 2.168-0.669 2.168-1.709s-0.882-1.709-2.168-1.709h-2.573v3.419z"/>
   <path d="m226.42 201.22h2.608v12.107h-2.608z"/>
   <path d="m234.44 203.56h-3.771v-2.344h10.15v2.344h-3.771v9.764h-2.607v-9.764z"/>
  </g>
 </g>
</svg>
