<svg version="1.1" viewBox="0 0 1509 987" xmlns="http://www.w3.org/2000/svg">
 <rect width="1509" height="987" ry="0" fill="#97a2ab"/>
 <path class="cls-2" d="m222.34 217.5v-88.442h32.715v88.442zm49.031 0v-88.442h31.718s24.439 40.431 27.71 45.624c0 0-0.62482-11.017-0.62482-17.519v-28.111h31.365v88.442h-32.22s-26.042-42.694-27.805-46.408c0 0 1.0787 12.331 1.0787 16.31v30.097h-31.229zm106.48 0v-88.442h31.365v37.666l20.584-37.666h36.752l-27.18 43.36 31.329 45.081h-39.022s-21.244-34.212-22.458-36.859v36.859h-31.365zm-171.83 0v-88.442h-31.365v37.666l-20.584-37.666h-36.752l27.18 43.36-31.329 45.081h39.022s21.244-34.212 22.458-36.859v36.859h31.365zm-29.178 623.89h-40.419l-6.3248 15.096h-16.923l34.931-83.632h16.923l34.937 83.632h-16.799zm-5.4819-13.151-14.725-35.178-14.73 35.178zm101.96 14.371v13.876h-58.073v-83.632h15.096v69.756zm16.31-69.762h15.096v83.632h-15.096zm117.47 0-34.931 83.632h-16.923l-34.937-83.632h16.799l26.537 63.425 26.531-63.425zm30.887 13.882v20.206h43.213v13.876h-43.213v21.792h47.716v13.876h-62.936v-83.632h62.936v13.882zm161.37 54.66h-40.419l-6.3248 15.096h-16.923l34.931-83.632h16.923l34.937 83.632h-16.799zm-5.4819-13.151-14.725-35.178-14.73 35.178zm44.834-55.391h15.214l44.185 58.798v-58.798h15.102v83.632h-15.102l-44.185-58.798v58.798h-15.214zm99.73 0h29.461c27.628 0 47.109 17.289 47.109 41.757s-19.476 41.875-47.109 41.875h-29.461zm31.041 69.88c17.654 0 30.068-11.689 30.068-28.117s-12.408-28.005-30.068-28.005h-15.821v56.122zm103.18-69.88h15.22v40.902l36.64-40.902h18.621l-33.469 36.888 35.904 46.744h-18.745l-27.628-36.039-11.323 12.172v23.861h-15.22v-83.632zm89.114 0h15.102v83.632h-15.102zm36.328 41.763c0-23.502 20.094-43.219 43.95-43.219 12.302 0 23.496 5.2343 31.536 13.516l-10.84 10.103c-5.1164-5.9653-12.661-9.7378-20.696-9.7378-15.461 0-28.488 13.392-28.488 29.343 0 16.063 13.027 29.455 28.488 29.455 8.1639 0 15.579-3.7725 20.814-9.7378l10.722 9.9794c-8.0461 8.3998-19.234 13.634-31.536 13.634-23.855 0-43.95-19.841-43.95-43.331zm94.118-41.763h15.22v40.902l36.64-40.902h18.621l-33.469 36.888 35.904 46.744h-18.745l-27.628-36.039-11.324 12.172v23.861h-15.22v-83.632zm89.114 0h15.09v83.632h-15.09zm40.908 0h15.208l44.191 58.798v-58.798h15.102v83.632h-15.102l-44.191-58.798v58.798h-15.208zm137.91 37.619h35.674v33.84c-8.046 8.3998-21.067 13.634-33.239 13.634-23.979 0-44.191-19.841-44.191-43.331s20.212-43.219 44.191-43.219c12.166 0 25.193 5.1164 33.239 13.516l-10.84 10.103c-5.2343-6.0832-14.241-9.7378-22.393-9.7378-15.579 0-28.73 13.392-28.73 29.343 0 16.063 13.145 29.455 28.73 29.455 6.3308 0 13.145-2.1869 18.379-5.9653v-15.22h-20.814v-12.414zm-1247-106.96v-179.06l29.844-29.844-29.844-29.844v-179.06h357.52v179.06l-29.844 29.844 29.844 29.844v179.06zm149.21-298.43v29.844h59.087v-29.844zm59.087 179.06v-29.844h-59.087v29.844zm179.06 119.37v-417.8h358.12v417.8zm149.21-298.43v179.06h59.688v-179.06zm358.12-119.37v179.06h-119.37v-179.06zm387.96 184.69-35.473-35.473h-173.43v-29.844h208.9v-119.37h-323.13l-34.984 34.984v198.6l35.002 34.996h173.9v29.844h-208.9v119.37h322.64l35.473-35.473z" stroke-width="5.8946"/>
</svg>
