<svg enable-background="new 0 0 419.547 175.783" version="1.1" viewBox="0 0 800.01 212.66" xml:space="preserve" xmlns="http://www.w3.org/2000/svg"><g transform="matrix(2.1572 0 0 2.1572 -.00023944 .0028907)"><path transform="rotate(1.156,1431.9,113.02)" d="m61.703 27.697 0.865 42.649-24.722-42.168-37.42 0.76 29.379 48.458-29.805 50.064 40.281-0.82 23.246-40.982 0.821 40.512 32.103-0.65-1.992-98.485z"/><path transform="rotate(1.156,1431.9,113.02)" d="m305.09 22.758 0.86 42.599 22.99-43.125 37.42-0.755-27.4 49.591 31.82 48.912-40.28 0.82-24.9-40.111 0.82 40.571-32.09 0.66-2-98.496z"/><path transform="rotate(-.0071969)" d="m110.21 0.084525h38.189v98.51h-38.189z"/><path transform="rotate(1.156,1431.9,113.02)" d="m193.12 25.031-33.08 0.676 2 98.483 34.9-0.7-0.97-48.072 31.17 47.452 33.44-0.67-2-98.514-32.2 0.652 1.07 52.812z"/></g></svg>
