<svg xmlns="http://www.w3.org/2000/svg" height="225.2" width="600" viewBox="0 0 158.75 59.585">
    <defs>
        <radialGradient id="a" gradientUnits="userSpaceOnUse" cy="0" cx="0" gradientTransform="matrix(132.02 48.867 -45.118 54.003 -78.041 -26.082)" r="1">
            <stop stop-color="#a49b8b" offset="0"/>
            <stop stop-color="#615a4b" offset="1"/>
        </radialGradient>
    </defs>
    <path d="M-144.5-51.65H14.25V7.935H-144.5V-51.65" fill="url(#a)" transform="translate(144.5 51.65)"/>
    <g fill="#fff">
        <path d="M8.69 8.963h88.184V4.889H8.69zM8.69 54.492h88.184v-4.077H8.69zM23.22 12.643V32.07h3.79v-5.84l2.51-2.998 4.99 8.838h4.42l-6.9-11.705 6.44-7.722h-4.61l-6.85 8.462v-8.462h-3.79M42.13 32.07h3.793V12.641H42.13zM66.042 12.643h-3.796V24.54l-7.693-11.897h-3.384V32.07h3.795V20.147l7.694 11.923h3.384V12.643M74.58 16.901c.543-.627 1.418-1.038 2.456-1.038 1.034 0 1.886.411 2.426 1.038.736.816.958 1.716.958 5.457 0 3.737-.222 4.634-.958 5.457-.54.623-1.392 1.034-2.426 1.034-1.038 0-1.913-.411-2.456-1.034-.739-.823-.925-1.72-.925-5.457 0-3.741.186-4.641.925-5.457zm-2.808 13.205c1.359 1.363 3.053 2.131 5.264 2.131s3.875-.768 5.235-2.131c1.966-1.964 1.938-4.393 1.938-7.748s.028-5.785-1.938-7.748c-1.36-1.363-3.024-2.128-5.235-2.128s-3.905.765-5.264 2.128c-1.967 1.963-1.913 4.393-1.913 7.748s-.054 5.784 1.913 7.748M25.66 46.673h1.11l2.48-8.941 2.48 8.94h1.11l2.86-11.167h-1.27l-2.18 9.004-2.47-9.004h-1.06l-2.46 9.004-2.19-9.004H22.8l2.86 11.168M38.99 46.673h6.931v-1.067H40.18v-4.03h4.896v-1.067H40.18v-3.937h5.741v-1.067H38.99v11.168M48.993 35.505v11.168h6.46v-1.067h-5.268V35.505h-1.192M59.601 46.673V36.572h3.23v-1.067h-7.655v1.067h3.233v10.1h1.192M64.094 46.673h1.475v-1.475h-1.475zM66.819 36.572h3.233v10.101h1.189V36.572h4.625l3.612 10.101h1.061l3.991-11.168h-1.366l-3.156 9.034-3.159-9.034h-10.03v1.067M126.806 12.709v34.265h11.503c3.561 0 6.544-1.107 8.565-3.128 3.467-3.465 3.322-9.866 3.322-14.486 0-4.62.145-10.059-3.322-13.523-2.021-2.02-5.004-3.128-8.565-3.128zm2.598 2.31h8.28c2.742 0 5.39.625 7.362 2.646 2.744 2.792 2.55 7.893 2.55 11.695s.194 9.866-2.55 12.657c-1.973 2.021-4.62 2.647-7.362 2.647h-8.28zM120.642 46.974v-16.12h-17.855v16.12h-2.599V12.708h2.599v15.834h17.855V12.708h2.599v34.266h-2.599"/>
    </g>
</svg>
