<svg Googl="true" version="1.1" viewBox="0 0 951.5 263.17" xmlns="http://www.w3.org/2000/svg">
 <g transform="translate(0 .15698)" fill="#fff">
  <path d="m39.245 133.29c-3.4238 7.4774-5.1357 11.261-8.5595 18.932v59.645c-12.286 1.9501-18.427 2.9635-30.685 5.0751v-216.89c12.258 2.1116 18.399 3.1251 30.685 5.0751v79.135c3.1613-9.0803 4.7401-13.554 7.9014-22.436 8.6039-21.568 12.92-31.989 21.512-52.209 14.228 2.0752 21.35 3.0564 35.59 4.9136-13.453 27.015-26.429 54.103-39.103 81.489 14.636 35.481 29.607 70.773 45.696 105.63-14.066 1.7927-21.1 2.7414-35.155 4.748q-14.502-36.329-27.883-73.106zm104.39-113.03v176.46c-12.517 1.3687-18.742 2.0954-31.23 3.6338v-183.73c12.488 1.5382 18.734 2.261 31.23 3.6338zm114.1 9.7101v157.06c-12.339 0.75097-18.508 1.1668-30.842 2.0752-10.4-24.189-15.596-36.531-25.994-61.931-5.5515-16.069-8.3374-24.201-13.873-40.727l-0.66215 0.70656c2.4225 21.16 3.9648 52.387 3.9648 71.015v33.915c-12.331 1.1063-18.492 1.6997-30.818 2.9635v-173.1c12.327 1.2678 18.487 1.8613 30.818 2.9635q14.208 36.624 29.292 72.921c3.7428 10.239 7.2674 20.829 11.01 30.859l0.66214-0.69848a578.17 578.17 0 0 1-4.413-62.787v-37.306c12.347 0.91248 18.516 1.3243 30.855 2.0752zm14.268 105.83v-54.599a47.239 47.239 0 0 1 50.045-50.804c28.339 1.1063 51.091 22.497 50.065 51.958v52.282c1.0416 29.474-21.718 50.844-50.065 51.95a47.239 47.239 0 0 1-50.045-50.788zm67.68-0.95286v-52.706c0-14.131-5.9512-21.722-17.64-21.968-11.688-0.24629-17.644 7.1948-17.644 21.56v53.525c0 14.361 5.9512 21.803 17.636 21.56 11.684-0.24224 17.652-7.8327 17.648-21.972zm206.29-105.14q-17.086 77.908-34.823 155.66c-13.227-0.62985-19.844-0.90036-33.071-1.3445-4.4089-20.341-6.6174-30.459-11.027-50.606a367.86 367.86 0 0 1-7.2675-49.128h-0.8842a361.92 361.92 0 0 1-7.2836 48.995c-4.4089 19.969-6.6135 29.918-11.027 49.782-13.231-0.23015-19.848-0.29879-33.079-0.34319q-17.438-74.289-34.844-148.6c12.968 0.14939 19.448 0.17765 32.417 0.14939 4.845 28.069 7.2675 42.095 12.113 70.195 1.7644 10.821 4.845 29.07 6.3994 41.412h0.88017c1.5424-12.311 4.631-30.58 6.3954-41.425 4.845-27.31 7.2675-40.984 12.113-68.452 13.053-0.23417 19.581-0.40375 32.635-0.8075 4.845 27.531 7.2675 41.352 12.113 69.178 1.7644 11.055 4.845 29.752 6.3954 42.393h0.8842c1.5424-12.585 4.627-31.303 6.3913-42.442 4.845-28.924 7.2675-43.479 12.113-72.84 13.021-0.60966 19.497-0.969 32.458-1.7765zm89.099 131.65v33.192c-27.169-2.7859-54.453-5.0549-81.707-6.7951v-158.52q39.777-2.5436 79.503-6.5771v33.107c-19.279 1.183-28.924 1.7119-48.216 2.6526v33.774c17.531-0.27859 26.296-0.43201 43.815-0.7752v31.718c-17.519-0.2907-26.284-0.42393-43.815-0.66216v36.103c20.163 0.98111 30.232 1.5342 50.42 2.7818zm89.463 6.5933v37.335q-38.356-5.4103-76.95-9.4396v-174.7c12.517-1.3283 18.746-2.0188 31.234-3.5248v146.7c18.285 1.3445 27.43 2.0752 45.705 3.6338zm74.863-126.08c-12.016 1.2678-18.024 1.8815-30.047 3.0523v167.04c-12.815-2.0187-19.223-3.008-32.05-4.845v-159.21c-12.036 1.074-18.055 1.5867-30.099 2.5598v-36.426c30.826-4.2797 61.487-8.939 92.196-14.002zm-603.46 181.26h-9.4316v39.002h-6.6457v-39.002h-9.3629v-6.1976h25.436zm49.16 32.885v6.1329h-22.792v-45.216h22.149v6.1329h-15.625v13.11h14.397v6.0037h-14.397v13.837zm48.571-0.0646v6.1976h-21.5v-45.216h6.5205v39.002zm48.877 0.0646v6.1329h-22.804v-45.216h22.145v6.1329h-15.625v13.11h14.397v6.0037h-14.385v13.837zm24.741-39.067h6.8638l5.4223 24.923c0.90439 4.0052 1.615 8.3979 2.261 12.012h0.2584c0.64599-3.6338 1.4171-8.0063 2.2569-12.012l5.4869-24.923h6.7829l-11.107 45.22h-7.1181zm61.988 0v45.22h-6.5205v-45.236zm26.619 32.8h6.6538a6.137 6.137 0 0 0 6.5852 6.9121 5.81 5.81 0 0 0 6.46-6.2016c0-8.9753-18.92-9.4921-18.92-22.921a11.365 11.365 0 0 1 12.399-11.426 11.878 11.878 0 0 1 12.589 12.654h-6.6497c-0.1292-4.3282-2.3902-6.3954-5.8745-6.3954a5.1398 5.1398 0 0 0-5.8139 5.2971c0 8.8462 18.976 8.8462 18.976 22.86a13.215 13.215 0 0 1-26.409-0.77923zm59.779-32.8v45.22h-6.5205v-45.236zm27.661 30.867v-16.546c0-9.4275 5.1639-15.173 13.817-15.173 8.6523 0 13.821 5.7453 13.821 15.173v16.53c0 9.4234-5.1679 15.173-13.821 15.173-8.6523 0-13.817-5.7453-13.817-15.173zm20.918 0v-16.546c0-5.6847-2.4508-8.7815-7.1019-8.7815-4.7118 0-7.1019 3.0968-7.1019 8.7815v16.53c0 5.6808 2.3902 8.7815 7.1019 8.7815 4.6512 0 7.1019-3.1008 7.1019-8.7815zm61.2-30.867v45.22h-6.5326l-10.093-22.149c-1.3566-3.3552-3.23-8.075-4.3282-10.974l-0.1938 0.12921c0.4522 4.522 0.77519 11.305 0.77519 15.56v17.434h-6.46v-45.236h6.5731l10.396 23.05c1.3566 3.0362 3.0362 7.2352 4.1344 9.9444l0.18975-0.12522c-0.51679-4.4413-0.90036-11.241-0.90036-15.242v-17.628z" stroke-width="4.0375"/>
  <g transform="matrix(1.2533 0 0 1.2512 0 .039597)" stroke-width=".44314" aria-label="HD">
   <path d="m659.49 74.289v-74.446h10.635v31.906h21.27v-31.906h10.635v74.446h-10.635v-31.906h-21.27v31.906z"/>
   <path d="m737.93 63.654q4.3206 0 7.4779-3.0742 3.1573-3.1573 3.1573-7.561v-31.906q0-4.3206-3.1573-7.4779-3.1573-3.1573-7.4779-3.1573h-10.635v53.176zm-21.27 10.635v-74.446h21.27q8.8073 0 14.956 6.2316 6.3147 6.2316 6.3147 15.039v31.906q0 8.8904-6.2316 15.039-6.2316 6.2316-15.039 6.2316z"/>
  </g>
 </g>
</svg>
