<?xml version="1.0" encoding="UTF-8" standalone="no"?>
<svg xmlns:rdf="http://www.w3.org/1999/02/22-rdf-syntax-ns#" xmlns="http://www.w3.org/2000/svg" height="203.6mm" width="169.33mm" version="1.1" xmlns:cc="http://creativecommons.org/ns#" xmlns:dc="http://purl.org/dc/elements/1.1/" viewBox="0 0 600.01177 721.42139">
 <g fill="#646363">
  <path d="m7.2781 553.86 27.716-27.89h9.714l-30.449 30.27 31.43 34.73h-9.922l-26.617-29.83-1.8719 1.81v28.02h-7.2781v-65h7.2781v27.89zm55.492 37.11h-7.278v-65h7.278v65zm16.873 0v-67.71l50.677 53.03v-50.32h7.28v67.94l-50.679-53.03v50.09h-7.278zm105.16-66.1c5.98 0 11.53 1.51 16.61 4.48 5.35 3.06 9.54 7.22 12.57 12.39s4.57 10.78 4.57 16.79c0 6-1.54 11.61-4.6 16.87-2.97 5.02-6.96 9-12.01 11.97-5.37 3.18-11.22 4.75-17.52 4.75-5.71 0-11.2-1.48-16.52-4.45-5.61-3.21-9.86-7.49-12.86-12.9-2.76-4.99-4.13-10.54-4.13-16.66 0-9.27 3.56-17.23 10.69-23.97 6.39-6 14.11-9.12 23.2-9.27m-0.06 6.8c-8.05 0-14.73 3.12-20.05 9.3-4.3 4.99-6.47 10.75-6.47 17.2 0 7.99 2.79 14.58 8.28 19.78 2.89 2.68 6.12 4.64 9.75 5.94 2.79 0.96 5.52 1.43 8.26 1.43 4.93 0 9.5-1.28 13.75-3.83 4.19-2.5 7.43-5.82 9.69-9.95 2.19-4.01 3.26-8.35 3.26-13.01 0-7.64-2.67-14.06-8.08-19.37-4.96-4.85-11.08-7.34-18.39-7.49m62.45 37.67v21.63h-16.91v-65h26.89c3.77 0 6.92 0.41 9.36 1.24 2.46 0.84 4.72 2.23 6.83 4.16 4.28 4.01 6.39 9.39 6.39 16.16 0 6.57-1.73 11.83-5.26 15.75-3.54 4.04-9.12 6.06-16.76 6.06h-10.54zm0-13.58h5.61c3.27 0 5.56-0.59 6.89-1.87 1.61-1.45 2.38-3.5 2.38-6.15 0-5.46-3.06-8.2-9.21-8.2h-5.67v16.22zm74.53-31.75c10.87 0 19.76 3.65 26.65 10.9 6.27 6.59 9.36 14.5 9.36 23.7 0 6.36-1.55 12.21-4.7 17.59-3.35 5.76-8.02 10.16-13.96 13.19-5.14 2.61-10.99 3.92-17.62 3.92-10.69 0-19.42-3.65-26.29-10.87-6.26-6.6-9.35-14.74-9.35-24.39 0-6.06 1.57-11.7 4.69-16.93 6.68-11.17 17.11-16.88 31.22-17.11m0 16.39c-5.02 0-9.33 1.76-12.83 5.32-3.6 3.63-5.38 7.87-5.38 12.72 0 5.14 1.78 9.53 5.38 13.13 3.5 3.59 7.84 5.34 12.89 5.34s9.39-1.75 12.95-5.34c3.57-3.57 5.35-7.88 5.35-12.96s-1.78-9.38-5.35-12.89c-3.56-3.5-7.9-5.26-13.01-5.32m63.63-14.43v50.71h20.29v14.29h-37.19v-65h16.9zm71.36 3.71-6.75 13.13c-3.62-2.91-7.27-4.37-11.05-4.37-2.37 0-4.24 0.66-5.55 1.99-1.13 1.07-1.69 2.26-1.69 3.57 0 1.96 1.36 3.59 4.04 4.9 0.77 0.33 3.32 1.19 7.69 2.47 5.61 1.66 9.71 3.95 12.18 6.77 2.49 2.82 3.74 6.59 3.74 11.29 0 8.38-2.79 14.52-8.38 18.45-4.57 3.17-10.18 4.78-16.93 4.78-8.02 0-15.56-2.47-22.63-7.37l7.27-13.63c5.02 4.42 9.99 6.62 14.89 6.62 2.97 0 5.14-0.77 6.5-2.35 1.1-1.21 1.64-2.55 1.64-3.98 0-1.78-0.72-3.18-2.11-4.25-1.43-1.01-4.13-2.1-8.08-3.26-6.21-1.84-10.31-3.57-12.33-5.26-3.48-2.82-5.2-7.13-5.2-12.92 0-6.72 2.23-12.15 6.71-16.22 4.07-3.81 9.21-5.65 15.45-5.65 7.07 0 13.93 1.76 20.59 5.29m30.21 23.08 20.62-26.79h20.85l-25.82 30.77 28.2 34.23h-21.9l-21.95-28.2v28.2h-16.9v-65h16.9v26.79zm90.84 26.89h-23.35l-4.45 11.32h-17.86l25.02-65h18.41l24.48 65h-18.06l-4.19-11.32zm-4.57-12.9-6.98-20.67-7.1 20.67h14.08z"/>
  <path d="m0.1558 718.61v-82.32c0-10.19 3.0895-18.51 9.2981-24.98 6.1791-6.45 14.229-9.69 24.092-9.69 11.734 0 20.735 5.38 27.063 16.13 3.832-5.79 7.961-9.95 12.357-12.41 4.427-2.47 9.833-3.72 16.309-3.72 10.279 0 18.155 3.24 23.585 9.69 5.47 6.47 8.2 15.77 8.2 27.92v79.38h-33.953v-74.27c0-3.62-0.297-6.06-0.891-7.22-0.565-1.19-1.753-1.78-3.536-1.78-3.356 0-5.02 2.79-5.02 8.41v74.86h-33.954v-74.27c0-3.59-0.327-5.97-0.921-7.19-0.624-1.19-1.842-1.81-3.625-1.81-3.356 0-5.02 3-5.02 9v74.27h-33.984z"/>
  <path d="m213.33 604.45v74.02c0 13.05-3.89 23.47-11.68 31.26-7.78 7.81-18.18 11.7-31.13 11.7-12.89 0-22.76-3.77-29.59-11.35-6.86-7.6-10.25-18.51-10.25-32.7v-72.93h33.96v72.84c0 6.95 2.49 10.42 7.48 10.42 4.82 0 7.22-3.47 7.22-10.42v-72.84h33.99z"/>
  <path d="m311.04 604.45-35.47 81.3h35.05v32.86h-86.18l35.33-81.31h-37.32v-32.85h88.59z"/>
  <path d="m402.89 604.45-32.29 50.76v63.4h-33.95v-63.4l-32.56-50.76h34.49l14.7 23.49 15.84-23.49h33.77z"/>
  <path d="m442.53 718.6h-33.98v-114.16h33.98v114.16zm65.21-114.16-30.12 51.78 29.94 62.38h-38.14l-25.85-63.06 29.29-51.1h34.88z"/>
  <path d="m560.47 661.22v30.15h-9.8v27.24h-33.98v-72.63c0-14.05 3.86-24.95 11.52-32.71 7.67-7.75 18.42-11.64 32.32-11.64 13.37 0 23.29 3.5 29.68 10.57 6.42 7.02 9.62 17.92 9.62 32.62v73.79h-33.95v-71.56c0-4.4-0.54-7.46-1.6-9.15-1.04-1.69-2.95-2.55-5.68-2.55-5.29 0-7.93 3.89-7.93 11.7v14.17h9.8z"/>
 </g>
 <g>
  <path d="m555.54 0.43853c-12.21 1.6933-96.88 13.249-172.51 23.111 23.23 12.982 52.46 34.371 66.78 48.838 11.47-0.832 23.68-3.506 25.87-3.327 24.96 1.812 34.94 10.842 34.94 23.468 0 12.621-57.39 306.96-59.89 319.58-2.49 12.63-14.97 18.06-29.97 16.25-1.79-0.21-7.13-0.92-15.15-2.02-9.78 4.13-19.91 8.67-28.22 15.09 39 5.79 68.47 10.22 74.59 11.32 19.96 3.62 31.19-3.62 34.93-14.44 6.84-19.78 106.06-382.8 111.05-402.67 4.99-19.843-16.19-38.796-42.42-35.201" fill="#e30613"/>
  <path d="m281.52 0.25703c-128.33 0-232.36 104.03-232.36 232.36-0.005 128.33 104.03 232.37 232.36 232.37s232.36-104.04 232.36-232.37-104.03-232.36-232.36-232.36"/>
  <path d="m359.73 232.62c0 43.2-35.02 78.22-78.21 78.22-43.2 0-78.19-35.02-78.19-78.22 0-43.19 34.99-78.21 78.19-78.21 43.19 0 78.21 35.02 78.21 78.21" fill="#fff"/>
 </g>
 <path d="m359.73 232.62c0 43.2-35.02 78.22-78.21 78.22-43.2 0-78.19-35.02-78.19-78.22 0-43.19 34.99-78.21 78.19-78.21 43.19 0 78.21 35.02 78.21 78.21z" stroke="#000" stroke-width="5.1689" fill="none"/>
 <g>
  <path d="m289.32 232.62c0 4.31-3.48 7.79-7.79 7.79-4.3 0-7.81-3.48-7.81-7.79 0-4.3 3.51-7.78 7.81-7.78 4.31 0 7.79 3.48 7.79 7.78"/>
  <path d="m372.93 255.91s0.6 14.38-11.2 25.14l101.63 60.18s22.01-18.48 22.13-49.76l-112.56-35.56z" fill="#fff"/>
  <path d="m202.51 180.06s-11.11 9.21-11.2 25.16l-112.7-35.2c-0.004 0-1.014-28.73 22.13-49.76l101.77 59.8z" fill="#fff"/>
  <path d="m156.49 392.04-2.05 16.34c51.34 7.81 157.33 23.35 227.68 33.75 11.08-4.93 19.24-9.63 27.03-15.3-47.71-6.48-193.84-26.74-252.66-34.79" fill="#e30613"/>
 </g>
</svg>
