<svg xmlns="http://www.w3.org/2000/svg" height="158.82" width="600" viewBox="0 0 158.75 42.021">
    <g fill="#92278f">
        <path d="M73.385 19.141l4.942 9.125a1.089 1.089 0 0 1-.181 1.293 1.017 1.017 0 0 1-.763.325c-.449 0-.779-.197-.987-.586L71.887 21l-1.975 2.489v5.295c0 .297-.108.558-.329.775a1.062 1.062 0 0 1-.775.325c-.301 0-.562-.108-.779-.325s-.329-.474-.329-.775v-16.01c0-.301.112-.558.329-.775s.478-.325.779-.325c.297 0 .558.108.775.325.221.217.329.474.329.771v7.198l6.283-7.893a.998.998 0 0 1 .831-.401c.269 0 .506.08.718.245a.996.996 0 0 1 .402.831c0 .253-.08.485-.245.694zM81.033 28.784v-16.01c0-.301.108-.558.325-.775.221-.217.478-.325.779-.325s.558.108.779.325c.216.217.325.474.325.775v16.01c0 .301-.109.558-.325.775-.221.217-.478.325-.779.325s-.558-.108-.779-.325a1.056 1.056 0 0 1-.325-.775M91.219 11.673c1.229 0 2.288.285 3.188.851.477.297.907.727 1.28 1.277.434.614.651 1.164.651 1.658 0 .57-.285.903-.855 1.008a.988.988 0 0 1-.293.044c-.554 0-.9-.261-1.032-.787-.301-1.228-1.285-1.847-2.951-1.847-1.827 0-2.742.775-2.742 2.313 0 .69.285 1.272.851 1.75.498.422 1.413.919 2.754 1.494 1.337.578 2.317 1.128 2.931 1.65 1.108.959 1.662 2.26 1.662 3.906 0 1.497-.562 2.71-1.682 3.637-1.02.839-2.285 1.257-3.794 1.257-1.433 0-2.638-.37-3.609-1.113-.972-.738-1.546-1.714-1.726-2.926-.045-.301.024-.57.212-.807a1.1 1.1 0 0 1 .731-.426c.313-.048.594.02.839.201s.389.418.438.719c.208 1.405 1.248 2.107 3.119 2.107.867 0 1.61-.216 2.224-.65.719-.482 1.076-1.144 1.076-1.995 0-.883-.293-1.602-.875-2.156-.462-.434-1.273-.895-2.425-1.389-1.57-.671-2.69-1.301-3.364-1.883-1.048-.895-1.57-2.019-1.57-3.364 0-1.389.486-2.501 1.457-3.34.916-.791 2.084-1.189 3.505-1.189M103.86 11.673c1.23 0 2.3.285 3.19.851.48.297.91.727 1.28 1.277.44.614.66 1.164.66 1.658 0 .57-.29.903-.86 1.008-.11.032-.2.044-.29.044-.56 0-.9-.261-1.04-.787-.3-1.228-1.28-1.847-2.94-1.847-1.83 0-2.75.775-2.75 2.313 0 .69.29 1.272.86 1.75.49.422 1.4.919 2.75 1.494 1.34.578 2.31 1.128 2.93 1.65 1.1.959 1.66 2.26 1.66 3.906 0 1.497-.56 2.71-1.68 3.637-1.02.839-2.28 1.257-3.8 1.257-1.43 0-2.64-.37-3.61-1.113-.972-.738-1.546-1.714-1.727-2.926-.044-.301.028-.57.217-.807a1.09 1.09 0 0 1 .727-.426 1.1 1.1 0 0 1 .843.201c.24.181.39.418.44.719.21 1.405 1.25 2.107 3.12 2.107.87 0 1.61-.216 2.22-.65.72-.482 1.08-1.144 1.08-1.995 0-.883-.29-1.602-.88-2.156-.46-.434-1.27-.895-2.42-1.389-1.57-.671-2.69-1.301-3.37-1.883-1.045-.895-1.567-2.019-1.567-3.364 0-1.389.485-2.501 1.457-3.34.92-.791 2.08-1.189 3.5-1.189M111.54 11.809h9.44c.3 0 .56.108.77.325.22.221.33.477.33.779 0 .297-.11.558-.33.774-.21.217-.47.326-.77.326h-3.62v14.769c0 .301-.11.558-.33.775-.21.217-.47.325-.77.325s-.56-.108-.78-.325-.33-.474-.33-.775V14.013h-3.61c-.3 0-.55-.109-.77-.326a1.052 1.052 0 0 1-.33-.774c0-.302.11-.558.33-.779.22-.217.47-.325.77-.325M124.87 12.84c1-.779 2.23-1.169 3.68-1.169 1.48 0 2.72.39 3.71 1.169 1.1.867 1.66 2.039 1.66 3.52v8.836c0 1.482-.56 2.654-1.66 3.521-.99.779-2.23 1.165-3.71 1.165-1.45 0-2.68-.386-3.68-1.165-1.11-.867-1.67-2.039-1.67-3.521V16.36c0-1.481.56-2.653 1.67-3.52m.54 3.524v8.824c0 .852.34 1.494 1.01 1.927.57.374 1.28.563 2.13.563.87 0 1.58-.189 2.15-.563.67-.433 1.01-1.075 1.01-1.927v-8.824c0-.851-.34-1.493-1.01-1.927-.57-.369-1.28-.558-2.15-.558-.85 0-1.56.189-2.13.558-.67.434-1.01 1.076-1.01 1.927M143.69 21.989l3.03 6.323a.99.99 0 0 1 .12.47c0 .301-.12.558-.33.775-.22.217-.48.325-.78.325-.46 0-.79-.217-.98-.65-1.69-3.59-2.82-5.914-3.37-6.974h-2.44v6.524c0 .301-.11.558-.33.775s-.48.325-.78.325-.56-.108-.78-.325a1.079 1.079 0 0 1-.32-.775V12.908c0-.301.11-.558.32-.775.22-.216.48-.325.78-.325h4.27c1.45 0 2.61.546 3.48 1.638.75.94 1.13 2.136 1.13 3.589 0 1.461-.38 2.666-1.13 3.609a4.036 4.036 0 0 1-1.89 1.345m-4.75-7.973v6.038h3.16c.82 0 1.44-.321 1.86-.963.36-.538.54-1.225.54-2.056 0-.835-.18-1.521-.54-2.059-.42-.643-1.04-.96-1.86-.96zM157.65 11.673c.3 0 .55.109.77.325.22.217.33.474.33.775v12.939c0 1.329-.5 2.385-1.49 3.16-.86.674-1.95 1.012-3.27 1.012-1.25 0-2.3-.314-3.15-.944a3.818 3.818 0 0 1-1.55-2.513c-.04-.297.03-.57.21-.819.18-.245.42-.393.72-.438.3-.044.57.024.82.205.25.177.4.418.44.715.17 1.064 1 1.594 2.51 1.594 1.7 0 2.55-.659 2.55-1.976v-1.726c-.7.373-1.55.562-2.54.562-1.3 0-2.37-.337-3.23-1.008-.98-.778-1.48-1.826-1.48-3.139v-7.624c0-.301.11-.558.33-.775.22-.216.48-.325.78-.325s.56.109.77.325c.23.217.33.474.33.775v7.62c0 .779.34 1.333 1.03 1.662.42.193.91.289 1.48.289 1.69 0 2.53-.65 2.53-1.951v-7.62c0-.301.11-.558.33-.775.22-.216.47-.325.78-.325M13.722 0L0 33.891l44.679 8.13-17.38-23.18L46.69 2.457z"/>
    </g>
    <path d="M61.947 35.252L50.055 23.425l-.919 10.298-13.65-13.963 15.762-9.723-.851 9.538 12.609-7.945zm-8.548-13.421l5.404 5.545.61-9.29zm-12.377-1.352l5.316 5.335.823-9.222-6.139 3.722z" fill="#00adef"/>
</svg>
