<svg version="1.1" viewBox="0 0 800 151.16" xmlns="http://www.w3.org/2000/svg">
 <defs>
  <style>
   .cls-1 {isolation: isolate;}
   .cls-2 {fill: #4faf39;}
   .cls-2, .cls-3 {stroke-width: 0px;}
   .cls-3 {fill: #8cca2c;}
  </style>
 </defs>
 <g class="cls-1" transform="matrix(4.7183 0 0 4.7183 -71.826 -375.7)">
  <path class="cls-2" d="m15.223 111.32h4.607v-5.057l2.684-2.802 6.415 7.859h5.409l-8.78-11.107 8.293-8.924h-5.151l-8.87 9.347v-9.347h-4.607z" fill="#4faf39" stroke-width="0px"/>
  <path class="cls-2" d="m35.825 91.288h4.636v20.031h-4.636z" fill="#4faf39" stroke-width="0px"/>
  <path class="cls-2" d="m53.956 111.32v-16.254h6.41v-3.777h-17.456v3.777h6.41v16.254z" fill="#4faf39" stroke-width="0px"/>
  <path class="cls-2" d="m66.701 96.668c0.572-0.572 1.249-1.011 2.032-1.316 0.782-0.305 1.64-0.458 2.575-0.458 0.992 0 1.907 0.196 2.747 0.586 0.839 0.391 1.602 0.978 2.289 1.76l2.976-2.747c-0.954-1.163-2.132-2.046-3.534-2.647s-2.971-0.901-4.707-0.901c-1.565 0-3.005 0.253-4.321 0.758-1.316 0.506-2.466 1.226-3.448 2.161-0.983 0.935-1.746 2.032-2.289 3.291s-0.815 2.642-0.815 4.149 0.272 2.89 0.815 4.149 1.302 2.356 2.275 3.291 2.122 1.655 3.448 2.161c1.326 0.505 2.761 0.758 4.307 0.758 1.755 0 3.334-0.305 4.736-0.915s2.58-1.498 3.534-2.661l-2.976-2.747c-0.687 0.801-1.45 1.398-2.289 1.789-0.84 0.391-1.755 0.586-2.747 0.586-0.935 0-1.793-0.152-2.575-0.458-0.782-0.305-1.459-0.744-2.032-1.316-0.572-0.572-1.016-1.249-1.331-2.032-0.315-0.782-0.472-1.65-0.472-2.604s0.157-1.822 0.472-2.604 0.758-1.46 1.331-2.032z"/>
  <path class="cls-2" d="m86.236 111.32v-8.213h9.1v8.213h4.635v-20.031h-4.635v7.898h-9.1v-7.898h-4.636v20.031z" fill="#4faf39" stroke-width="0px"/>
  <path class="cls-2" d="m109.02 107.6v-4.636h13.61v-3.606h-18.217v11.962h18.217v-3.72z" fill="#4faf39" stroke-width="0px"/>
  <path class="cls-2" d="m131.88 111.32v-12.158l9.986 12.158h3.806v-20.031h-4.578v12.152l-9.958-12.152h-3.835v20.031z" fill="#4faf39" stroke-width="0px"/>
  <path class="cls-2" d="m102.97 92.534 0.657 3.545 18.377-3.405-0.657-3.546-8.075 1.497-0.339-1.829-2.174 0.403 0.339 1.829z" fill="#4faf39" stroke-width="0px"/>
 </g>
 <path class="cls-3" transform="matrix(4.7183 0 0 4.7183 -71.826 -375.7)" d="m149.38 91.288v3.777h6.41v16.254h4.635v-16.254h4.091l7.013 16.254h4.578l8.67-20.031h-4.607l-6.184 14.307-6.092-14.307h-5.007z" fill="#8cca2c" stroke-width="0px"/>
 <path class="cls-3" d="m486.61 85.448s23.596-6.247 28.621-42.181c5.025-35.934 38.605-43.266 38.605-43.266s-21.152 16.58-26.177 43.266c-5.0249 26.686-14.452 37.576-41.049 42.181z"/>
</svg>
