<svg Googl="true" version="1.1" viewBox="0 0 440.58 183.53" xml:space="preserve" xmlns="http://www.w3.org/2000/svg">
<style type="text/css">
	.st0{fill:#FE0000;}
	.st1{enable-background:new    ;}
</style>
<g transform="matrix(5.8823 0 0 5.8823 0 -30.588)"><g fill="#fe0000">
	
		<path class="st0" d="m19.3 22v-0.2l-3.6 2 3.5-2.7c0-0.1-0.1-0.2-0.1-0.2l-4.8 2.7 4.6-3.5c0-0.1-0.1-0.1-0.1-0.2l-6 3.4 5.5-4.2c-0.2 0-0.3 0-0.3-0.1l-5 2.8 4.4-3.4-0.2-0.2-3.8 2.2 3.3-2.5c-0.1 0-0.1-0.1-0.2-0.1l-2.5 1.5 2.1-1.6c-1.6-0.7-3.5-0.6-5 0.4-2.5 1.6-3.1 4.9-1.5 7.3s4.9 3.1 7.4 1.5c1.6-1 2.4-2.7 2.4-4.5l-2.4 1.4z"/>
		<polygon class="st0" points="26.3 25.6 27.7 24.3 31.9 31.1 38 31.1 30.9 20.9 37.7 13.3 31.9 13.3 26.2 19.7 26.2 13.3 21.5 13.3 21.5 31.2 26.3 31.2"/>
		<path class="st0" d="m63.1 15.2v-1.8h-4.3v17.8h4.8v-8.4c0-4 0.9-5.5 3.2-5.5 2 0 3.2 1.5 3.2 4.3v9.6h4.9v-11.6c-0.1-7.8-9.7-7.4-11.8-4.4z"/>
		<path class="st0" d="m5.7 22.5c0-4.6 3.7-8.3 8.3-8.3 1.6 0 3.1 0.4 4.4 1.3v-6.3c-1.4-0.4-2.8-0.7-4.4-0.7-3.1 0-6 1-8.3 2.7v-6h-5.7v17.2c0 7.7 6.3 14 14 14 1.6 0 3-0.2 4.4-0.7v-6.2c-1.3 0.8-2.8 1.3-4.4 1.3-4.6 0-8.3-3.7-8.3-8.3z"/>
		<path class="st0" d="m56.5 15.1c-0.8-0.7-1.7-1.2-2.8-1.4-4.3-0.8-9.3-0.5-10.5 4.6h4.6c0.8-2.5 5.4-1.8 5.4 1.4-1.6 0.1-7.1-0.9-10.4 3.4v-9.8h-4.7v17.8h8.1c1.5 0 5.3 0.2 7.4-2v2h4.7v-11.5c0-0.8-0.2-1.6-0.4-2.5-0.5-0.9-0.9-1.6-1.4-2zm-7.6 12h-2.9c0-2.4 2-4.4 4.4-4.4h2.9c-0.1 2.5-2 4.4-4.4 4.4z"/>
	
	</g><g transform="translate(-89.1)">
		
		
		
			
		
	</g>
</g>
</svg>
