<?xml version="1.0" encoding="UTF-8" standalone="no"?>
<!-- Created with Inkscape (http://www.inkscape.org/) -->
<svg xmlns:rdf="http://www.w3.org/1999/02/22-rdf-syntax-ns#" xmlns="http://www.w3.org/2000/svg" xml:space="preserve" height="628.01" width="600" version="1.1" xmlns:cc="http://creativecommons.org/ns#" xmlns:dc="http://purl.org/dc/elements/1.1/"><metadata><rdf:RDF><cc:Work rdf:about=""><dc:format>image/svg+xml</dc:format><dc:type rdf:resource="http://purl.org/dc/dcmitype/StillImage"/><dc:title/></cc:Work></rdf:RDF></metadata><g fill-rule="nonzero" transform="matrix(1.25,0,0,-1.25,171.04187,448.98268)"><path fill="#000" d="m-136.8-15.182-0.0336,374.37,236.42,0,0-66.028,23.55,23.552c23.068,25.904,56.667,42.225,94.079,42.225,69.562,0,125.95-56.393,125.95-125.95,0-33.839-13.346-64.556-35.056-87.184l0.0698-0.0721-37.877-37.875,37.877-37.868-0.0698-0.0763c21.709-22.631,35.056-53.346,35.056-87.182,0-69.556-56.386-125.95-125.95-125.95-37.412,0-71.011,16.322-94.079,42.226l-24.155,24.151c-21.587-38.371-62.683-64.291-109.84-64.291-69.558,0-125.95,56.388-125.95,125.95,0,0.36058,0.01,0.7186,0.0127,1.0769h-0.0463"/><path fill="#FFF" d="m22.511-21.375s0.14726-1.3304,0.14726-2.659c0-1.0378-0.14726-2.6618-0.14726-2.6618s-18.623,0.14726-24.536,0.14726c-5.764,0-15.962-0.14726-15.962-0.14726s-0.14912,1.624-0.14912,2.6618c0,1.6256,0.14912,2.8079,0.14912,2.8079l7.5378,1.035-34.585,41.677,39.609,42.122-11.084,2.957s-0.14726,1.3286-0.14726,2.3636,0.14726,2.6618,0.14726,2.6618,11.233-0.14633,17.144-0.14633c5.9131,0,18.328,0.14633,18.328,0.14633s0.29544-1.6268,0.29544-2.6618c0-1.3304-0.14726-2.6588-0.14726-2.6588l-15.224-3.252-31.481-32.664,41.531-49.809,8.573-1.9192zm-59.267,90.304c0-1.3304-0.14796-2.6588-0.14796-2.6588l-9.7553-1.624v-84.246l10.05-1.6256s0.14819-1.333,0.14819-2.8079c0-1.0378-0.29544-2.6618-0.29544-2.6618s-14.19,0.14726-20.101,0.14726c-5.7649,0-21.58-0.14726-21.58-0.14726s-0.29428,1.624-0.29428,2.6618c0,1.4749,0.14726,2.659,0.14726,2.659l11.676,1.6238v84.397l-11.676,1.624s-0.14726,1.3283-0.14726,2.6588c0,1.035,0.29428,2.6618,0.29428,2.6618s15.815-0.14633,21.58-0.14633c6.6501,0,19.953,0.14633,19.953,0.14633s0.14796-1.3286,0.14796-2.6618"/><path fill="#FFF" d="m56.908-20.341c2.6609-0.44247,10.494-1.1795,12.266-1.3314,0,0,0.14982-0.88587,0.14982-2.3608,0-1.0378-0.14982-2.6618-0.14982-2.6618s-15.813,0.14726-21.578,0.14726c-5.9122,0-18.623-0.14726-18.623-0.14726s-0.29521,1.624-0.29521,2.6618c0,1.3286,0.14796,2.2172,0.14796,2.2172l9.46,1.3276v94.297l-11.086,3.8429s-0.14819,1.0352-0.14819,1.9211c0,1.3314,0.14819,2.2172,0.14819,2.2172,8.573,1.1815,30.152,4.7292,30.152,4.7292s-0.44363-21.137-0.44363-30.889v-75.971"/><path fill="#FFF" d="M110.51,6.5577c-13.302-0.1463-18.327-4.7271-18.327-14.63,0-5.7649,3.2525-11.231,9.3116-11.231,3.8454,0,8.426,2.5117,10.936,7.0925,0,8.1303,0,10.789,0.14889,18.769h-2.0681zm20.837,18.921c0-12.121-0.59089-22.91-0.59089-36.359,0-9.9032,4.2851-9.1655,11.822-6.2067l1.4796-3.6965c-5.6158-4.7292-11.676-6.9464-18.325-6.9464-6.6533,0-11.827,3.2525-12.269,10.643-2.6613-4.8807-11.676-10.938-20.101-10.938-11.675,0-20.839,6.651-20.839,17.587,0,13.453,13.892,21.283,37.541,21.579h2.5124c0.14656,2.6616,0.14656,11.825,0.14656,13.597,0,13.746-4.434,17.59-12.267,17.59-3.2522,0-7.2414-0.73978-10.345-2.2175,1.7738-6.6536,1.7738-14.337,0.29428-20.397-8.8664,0-13.596,4.5826-13.596,11.529,0,10.199,16.406,17.292,30.15,17.292,16.996,0,24.387-8.2794,24.387-23.056"/><path fill="#FFF" d="m175.48,29.763,0-49.514,15.075-1.922s0.14889-0.88587,0.14889-2.3608c0-1.0378-0.14889-2.6618-0.14889-2.6618s-18.771,0.14726-24.536,0.14726c-5.7647,0-18.62-0.14726-18.62-0.14726s-0.14888,1.624-0.14888,2.6618c0,1.3286,0.14888,2.2172,0.14888,2.2172l9.31,1.3276v56.607l-11.087,3.6968s-0.14656,1.035-0.14656,2.0681c0,1.3304,0.14656,2.2165,0.14656,2.2165,8.5772,1.1822,29.563,4.5808,29.563,4.5808v-12.416c3.543,6.949,12.264,12.27,17.734,12.27,10.05,0,14.337-5.9112,14.337-14.338,0-6.2064-5.4669-12.857-15.519-12.857-1.4796,7.5378-0.59089,17.294,0.14889,21.43-6.2067-0.8861-14.188-7.6841-16.405-13.007"/><path fill="#FFF" d="m245.74,6.5577c-13.302-0.14633-18.327-4.7271-18.327-14.631,0-5.7649,3.2546-11.231,9.3123-11.231,3.8408,0,8.4237,2.5117,10.936,7.0925,0,8.1303,0,10.789,0.14888,18.769h-2.0704zm20.842,18.921c0-12.121-0.59554-22.91-0.59554-36.359,0-9.9032,4.2921-9.1655,11.827-6.2067l1.4772-3.6965c-5.6158-4.7292-11.676-6.9464-18.327-6.9464-6.6487,0-11.822,3.2525-12.267,10.643-2.659-4.8807-11.676-10.938-20.102-10.938-11.676,0-20.837,6.651-20.837,17.587,0,13.453,13.893,21.283,37.54,21.579h2.5124c0.14889,2.6616,0.14889,11.825,0.14889,13.597,0,13.746-4.434,17.59-12.269,17.59-3.2522,0-7.2396-0.73978-10.345-2.2175,1.7727-6.6536,1.7727-14.337,0.29544-20.397-8.868,0-13.597,4.5826-13.597,11.529,0,10.199,16.408,17.292,30.152,17.292,16.994,0,24.387-8.2794,24.387-23.056"/></g></svg>
