<?xml version="1.0" encoding="UTF-8" standalone="no"?>
<!-- Created with Inkscape (http://www.inkscape.org/) -->

<svg
   xmlns:dc="http://purl.org/dc/elements/1.1/"
   xmlns:cc="http://creativecommons.org/ns#"
   xmlns:rdf="http://www.w3.org/1999/02/22-rdf-syntax-ns#"
   xmlns:svg="http://www.w3.org/2000/svg"
   xmlns="http://www.w3.org/2000/svg"
   xmlns:inkscape="http://www.inkscape.org/namespaces/inkscape"
   version="1.0"
   width="1536pt"
   height="651pt"
   viewBox="0 0 1536 651"
   id="Logo_klassikradio">
  <metadata
     id="metadata11">
    <rdf:RDF>
      <cc:Work
         rdf:about="">
        <dc:format>image/svg+xml</dc:format>
        <dc:type
           rdf:resource="http://purl.org/dc/dcmitype/StillImage" />
      </cc:Work>
    </rdf:RDF>
  </metadata>
  <defs
     id="defs9" />
  <path
     d="m 0,0 1536,0 0,651 L 0,651 0,0 z"
     inkscape:connector-curvature="0"
     id="bg_white"
     style="fill:#ffffff;fill-rule:nonzero;stroke:none" />
  <path
     d="M 33.232788,8.880447 C 36.044678,7.917175 39.024857,7.687897 41.897354,6.980301 146.25694,6.696838 250.62701,6.939819 354.99078,6.858826 c 341.33704,0 682.67392,0 1024.01102,0 38.3619,0.07959 76.7307,-0.159134 115.0904,0.119232 8.3367,1.167023 16.6937,4.098816 22.7527,10.17923 5.6202,5.000763 9.3052,11.803985 11.2279,19.024063 1.6036,8.516311 0.9637,17.185882 1.0802,25.798004 -3e-4,175.993425 -3e-4,351.986645 0,527.980145 -0.1076,8.28998 0.5176,16.64107 -1.1023,24.8329 -3.1944,13.73792 -14.5268,25.01458 -28.2303,28.27239 -8.201,1.57359 -16.546,0.99376 -24.8354,1.08423 -476.64818,-0.007 -953.29686,0.013 -1429.944518,-0.01 -2.977616,-0.13859 -5.904419,-0.75789 -8.863144,-1.07904 C 22.481384,639.81337 11.160797,628.54506 7.95813,614.82538 7.618759,611.86334 6.978958,608.93578 6.854309,605.95988 6.83313,419.28697 6.860367,232.61301 6.840714,45.939835 6.849838,42.65477 7.597641,39.437057 7.929749,36.180557 11.008011,23.584915 20.749863,12.672699 33.232788,8.880447 z"
     inkscape:connector-curvature="0"
     id="bg_black"
     style="fill:#000000;fill-rule:nonzero;stroke:none" />
  <path
     d="m 1042.4442,551.84497 c -3e-4,-150.69144 -0.014,-301.38261 0.01,-452.073943 38.6138,2.9e-4 77.228,-0.0025 115.8431,0.0014 -0.015,150.690903 0.015,301.381673 -0.015,452.072633 -38.6123,-0.009 -77.2239,-0.008 -115.835,-1.2e-4 z m 142.8007,-335.57138 c 56.3194,0.0226 112.6392,-0.0437 168.9595,0.0343 -15.0413,8.76383 -28.5029,20.17479 -39.3793,33.7693 -27.3298,34.21024 -40.844,78.04422 -42.4933,121.44228 -0.7771,6.06688 -0.6915,12.24532 0.019,18.31696 1.562,42.69868 14.6168,85.8164 41.092,119.77992 14.3287,18.54605 33.3588,33.78172 55.3971,42.07904 -61.1953,0.34111 -122.3986,0.0407 -183.5963,0.15053 0,-111.85759 2e-4,-223.71491 0,-335.57236 z"
     inkscape:connector-curvature="0"
     id="green"
     style="fill:#85ff00;fill-rule:nonzero;stroke:none" />
  <path
     d="m 302.83913,248.2439 c 11.32446,-0.0402 22.64944,-9.3e-4 33.97522,-0.0206 0.0132,44.36387 -3e-5,88.72772 0.006,133.09192 -11.32397,0.007 -22.64712,0.0121 -33.96985,-8.1e-4 -0.0272,-44.35701 -0.004,-88.71379 -0.0115,-133.07054 z M 425.325,275.2 c -4.44242,0.003 -8.86578,0.0945 -13.275,0.15 -4.6564,0.52423 -9.3208,1.05725 -13.975,1.575 -9.3331,2.16084 -19.35139,4.65631 -26.075,12 -5.24332,4.93322 -7.52926,11.95459 -9,18.8 11.54134,0.10234 23.08193,0.0924 34.625,0.025 2.15587,-3.29938 5.09537,-6.36172 9.1,-7.2 11.62544,-2.64357 23.9125,-2.47762 35.55,0 5.58652,1.22356 10.13426,5.51505 11.025,11.275 0.005,1.44699 0.0353,2.89511 0.05,4.35 -12.77235,-0.009 -25.55424,0.03 -38.325,0 -11.41082,0.82074 -22.95461,0.66945 -34.125,3.6 -2.58328,0.90065 -5.12806,1.8868 -7.675,2.875 -6.61533,3.2574 -12.1131,9.0161 -13.975,16.275 -1.12703,2.93302 -0.61694,6.14278 -1.5,9.125 4.6e-4,0.69474 -4.5e-4,2.08026 0,2.775 0.8193,3.33203 0.6149,6.85938 2,10.075 3.77773,10.4271 13.73636,17.25676 24.05,20.275 3.7182,0.80602 7.48314,1.44786 11.225,2.15 4.35349,-0.0501 8.68606,0.14626 13,0.7 3.70454,-0.7569 7.49803,-0.53508 11.25,-0.775 7.26262,-1.24234 14.6492,-2.5898 21.275,-5.975 4.23271,-2.15554 8.60894,-4.05006 12.6,-6.65 0.13995,3.65541 0.90622,7.24225 2.175,10.675 12.39054,0.003 24.78311,0.0602 37.175,-0.025 -2.67528,-4.01961 -5.008,-8.41156 -5.15,-13.35 -0.18282,-20.27066 0.0514,-40.5533 -0.125,-60.825 -1.37459,-6.48727 -2.95374,-13.5695 -8.1,-18.2 -3.83484,-4.27122 -9.20858,-6.57032 -14.375,-8.775 -12.73075,-4.22856 -26.09772,-4.93434 -39.425,-4.925 z m -5.35,59 c 9.51512,-0.033 19.0325,-0.0135 28.55,0 1.15819,7.87629 -4.29184,14.73318 -10.3,19.075 -6.47158,4.79195 -14.51622,6.70367 -22.35,7.8 -5.94064,0.53865 -12.00758,-0.0925 -17.675,-1.95 -4.68783,-1.65966 -9.10065,-5.86141 -8.7,-11.2 -0.0225,-4.59473 3.74299,-7.77339 7.225,-10.125 7.42766,-2.89806 15.43273,-2.92014 23.25,-3.6 z m 264.2234,-57.18953 c 14.80403,-2.25217 29.98373,-2.61087 44.72842,0.28738 11.78815,2.56105 23.73315,7.70433 31.04974,17.72429 2.55135,3.78558 4.18935,8.08965 5.43639,12.46192 -11.49365,0.60369 -22.94557,1.37072 -34.42166,2.19253 -1.90134,-3.54626 -4.3371,-6.91658 -8.17722,-8.51456 -9.84048,-4.39512 -21.25696,-4.81938 -31.60457,-2.04828 -3.37696,1.17185 -7.4189,2.50695 -8.90474,6.09955 -0.59716,2.04044 0.002,4.67494 1.99762,5.75752 4.06291,2.78034 9.09914,3.11722 13.77555,4.14724 14.369,1.52243 28.78261,2.60695 43.09343,4.61241 4.71106,1.25569 9.45416,2.79497 13.50192,5.5999 5.12321,3.2997 8.4969,8.83784 10.14436,14.61603 2.13767,8.88249 0.41004,19.02652 -5.57091,26.11344 -11.10411,12.76743 -29.09983,16.34407 -45.25198,16.72255 -5.20468,1.00856 -10.80728,0.96538 -16.01588,0.0189 -6.01117,0.0771 -11.97863,-0.71782 -17.84707,-1.95662 -9.86576,-1.91817 -19.83934,-5.6154 -27.07257,-12.84953 -5.58317,-5.18235 -8.74966,-12.35244 -10.90591,-19.52495 2.89735,-0.78732 5.87384,-1.26675 8.89198,-1.14078 8.88872,-0.71368 17.80545,-1.28059 26.7067,-2.01124 2.06454,5.77325 6.50708,10.90513 12.45688,12.841 7.89462,3.08411 16.53575,2.31853 24.83032,2.30453 5.45676,-1.04683 12.24527,-1.65905 15.52333,-6.8334 2.30835,-3.4946 -0.66702,-8.1496 -4.34126,-9.16234 -18.77704,-5.82379 -38.99932,-3.34737 -57.81836,-8.95514 -8.88153,-2.68757 -17.5968,-9.09092 -19.65073,-18.60513 -1.62784,-8.44126 -0.66063,-18.09235 5.19978,-24.79974 7.42388,-9.06446 19.18755,-12.76291 30.24644,-15.09746 z m -136.15859,-0.24605 c 7.96664,-0.79935 15.92265,-1.88159 23.95468,-1.52061 15.07387,0.48495 31.13567,2.84971 43.33757,12.45861 6.54212,4.62238 10.78093,11.88955 12.5109,19.63376 -3.86873,0.7638 -7.84551,0.11867 -11.70536,0.89519 -3.66093,0.59949 -7.40837,-0.0716 -11.0493,0.67712 -3.80501,0.6635 -7.70849,-0.0533 -11.49159,0.77359 -2.80051,-5.27861 -7.75659,-9.17245 -13.57359,-10.5625 -9.39843,-2.5576 -19.52181,-2.32277 -28.78301,0.68027 -2.92851,0.87288 -4.93265,3.24011 -6.54016,5.69771 0.0244,0.85954 0.0733,2.5786 0.0977,3.43812 1.63899,1.55629 3.22526,3.41887 5.56935,3.88541 7.51936,2.25626 15.40106,3.02563 23.20889,3.43344 l 0.82855,0.49182 c 9.95255,0.7361 19.99004,1.2329 29.79425,3.30352 4.78968,0.96986 9.42017,2.76094 13.47817,5.51408 1.86891,1.95097 3.78955,3.85715 5.73816,5.73965 5.69708,8.66181 6.10231,20.43845 1.54571,29.66625 -3.98228,8.38878 -12.1784,13.75989 -20.62712,16.92302 -13.51593,4.82197 -28.05992,5.75262 -42.28555,5.39329 -3.38867,-1.10191 -6.99664,-0.23504 -10.44585,-0.89489 -9.9787,-1.46337 -20.25462,-3.39164 -28.90054,-8.88135 -2.71315,-1.62616 -5.06116,-3.75299 -7.61037,-5.59738 -1.95785,-2.71892 -4.19705,-5.23522 -5.88173,-8.13919 -2.2039,-3.52112 -3.12732,-7.61191 -4.475,-11.48771 4.72342,-1.39582 9.67904,-0.52902 14.46056,-1.51132 7.04888,-0.20462 14.07969,-0.85534 21.0893,-1.66792 1.26774,3.81979 3.22454,7.65166 6.67962,9.93568 6.91827,4.98294 15.80612,5.7934 24.07849,5.47734 6.09567,0.34838 12.20416,-0.71914 17.89114,-2.92272 2.58211,-1.52475 4.42195,-3.85598 5.04082,-6.82659 -0.54158,-1.40123 -1.02323,-2.82649 -1.74339,-4.13872 -2.75585,-1.97828 -6.04433,-3.11648 -9.32839,-3.83954 -6.93278,-0.98863 -13.82066,-2.55944 -20.85533,-2.50993 -14.34801,-1.93748 -30.17929,-1.58559 -42.42191,-10.54104 -3.20259,-2.2686 -5.49182,-5.49053 -7.24656,-8.94869 -3.12326,-8.54462 -2.64113,-18.4686 2.27755,-26.24521 5.50347,-7.98624 14.30118,-13.01501 23.53573,-15.50093 3.24675,-0.90076 6.56658,-1.50502 9.84759,-2.28163 z m -391.3947,1.92096 c 11.55495,0.0155 23.11005,0.0114 34.66567,0.002 0.11151,13.36195 -0.21248,26.73363 0.16662,40.09047 15.16042,-13.56944 30.97699,-26.40347 46.00563,-40.11244 15.02066,0.0999 30.04293,-0.0602 45.06385,0.0829 -16.03817,13.49814 -32.34517,26.67507 -48.40523,40.14862 0.23675,0.15816 0.71025,0.47447 0.94699,0.63263 4.07437,4.72722 7.84802,9.73857 12.2496,14.18027 l 0.2211,0.8739 c 4.32187,4.42609 8.24278,9.23982 12.08937,14.08434 1.459,1.5346 2.92685,3.0756 4.16782,4.80529 8.08891,9.09679 15.77011,18.54551 23.73175,27.75515 -14.43652,0.20114 -28.87692,0.053 -43.31436,0.0792 -0.84802,-0.9022 -1.69364,-1.78756 -2.53818,-2.67662 -10.38034,-13.62499 -21.58461,-26.61527 -31.82964,-40.34334 -6.37243,4.88041 -12.12318,10.52641 -18.53006,15.37078 -0.0547,9.22126 -0.003,18.44347 -0.0274,27.66662 -11.556,-0.0186 -23.11149,0.004 -34.66685,-0.003 0.0183,-34.21245 0.009,-68.42447 0.003,-102.63649 z m 630.05872,0.008 c 11.31855,-0.003 22.63845,0.009 33.96016,-0.006 0.0199,34.21147 0.0101,68.42296 0.005,102.63486 -11.32432,-0.005 -22.64686,0.003 -33.96803,-0.009 0.008,-34.20712 0.005,-68.4138 0.003,-102.62048 z m 60.9927,-0.002 c 11.55782,0.004 23.11707,0.006 34.6782,-9.5e-4 -0.0118,13.24245 -0.0115,26.48518 10e-4,39.72862 3.93962,-3.04289 7.76701,-6.25719 11.29208,-9.78007 l 0.90169,-0.19829 c 5.60727,-5.74684 12.17689,-10.44566 18.02771,-15.93549 5.25507,-4.66894 10.78709,-9.03186 15.94133,-13.81672 14.89714,0.10417 29.80206,-0.18415 44.69763,0.15037 -15.90684,13.55499 -32.17291,26.69296 -48.25249,40.04372 1.70063,1.72781 3.46587,3.42416 4.93824,5.37344 13.21168,15.28949 26.09433,30.86519 39.40107,46.06711 2.9355,3.77647 6.18097,7.30031 9.32794,10.90666 -14.68989,0.21179 -29.38256,0.0212 -44.07125,0.10452 -0.31115,-0.49528 -0.9334,-1.48587 -1.24454,-1.98115 -11.18349,-13.50557 -21.68939,-27.56648 -32.93466,-41.02362 -6.04614,5.09445 -11.96929,10.32779 -18.02925,15.40079 -0.004,9.1986 -0.007,18.39784 -0.002,27.59822 -11.558,-0.0114 -23.11412,-0.0117 -34.66879,-4.8e-4 -8.3e-4,-34.21252 0.007,-68.4246 -0.004,-102.63668 z M 726.425,415.3 c -0.0462,14.47234 0.085,28.95276 -0.1,43.425 -7.26537,-6.21341 -16.34678,-9.57059 -25.5,-11.85 -10.51971,-2.07303 -21.47838,-2.12394 -31.85,0.775 -12.39253,3.1883 -23.29788,11.24611 -30.35,21.875 -12.13449,19.40167 -11.58578,46.4639 2.175,64.925 3.9492,3.97429 7.59741,8.4075 12.55,11.2 5.29793,3.56206 11.33106,5.80663 17.475,7.425 19.12964,4.20103 40.95283,0.49098 55.525,-13.25 0.0724,3.7839 0.0565,7.58397 0.075,11.375 11.31384,0.008 22.63319,-0.005 33.95,0 0.0121,-45.30082 0.007,-90.59965 0,-135.9 -11.32094,-0.0117 -22.63197,-6.8e-4 -33.95,0 z m -31.775,54.1 c 3.47958,0.002 6.97212,0.83702 10.4,1.45 2.14663,0.64176 4.27244,1.38286 6.4,2.125 7.03501,3.35391 12.83798,9.50574 14.65,17.225 2.08025,10.25306 1.08221,21.84076 -5.6,30.3 -5.30974,6.85094 -14.10694,10.16739 -22.55,10.65 -8.16661,0.52073 -16.84157,-1.53774 -23.075,-7.05 -3.63907,-3.61115 -6.27078,-8.11757 -7.925,-12.95 -2.11266,-7.70709 -2.53745,-16.18924 0.625,-23.675 3.36988,-9.4896 12.48793,-16.16826 22.35,-17.475 1.57218,-0.4375 3.14337,-0.60097 4.725,-0.6 z M 911.6,443.675 c -0.49992,0.002 -0.99728,0.0256 -1.5,0.075 -3.62144,1.2991 -7.54936,0.17778 -11.25,1.05 -17.04384,2.30659 -34.44632,8.89358 -45.82504,22.3 -6.62392,7.39153 -10.49688,16.98394 -11.52496,26.8 0.10992,5.81755 -0.55984,11.75303 0.82496,17.475 1.5152,8.25853 5.83696,15.73772 11.1,22.175 9.41096,10.42227 22.77432,16.74603 36.4,19.475 10.2552,1.97166 20.92032,3.21872 31.3,1.725 14.45696,-0.6319 28.92512,-5.29677 40.72504,-13.75 9.56208,-6.625 16.07768,-16.94075 19.27496,-28.025 0.96648,-6.67589 2.49128,-13.44467 1.32504,-20.2 -1.04072,-11.18135 -6.28112,-21.85781 -14.2,-29.775 -1.6612,-1.33282 -3.21272,-2.7759 -4.7,-4.275 -11.97832,-8.86626 -26.70368,-13.44304 -41.47496,-14.325 -3.52744,0.23065 -6.97544,-0.74136 -10.47504,-0.725 z m 2.5,24.975 c 0.71336,0.12944 2.13664,0.37056 2.85,0.5 8.96576,0.4128 18.06872,4.09681 24,10.975 7.08552,8.35186 8.47328,20.5947 4.47496,30.65 -3.0284,8.57862 -10.68944,14.58694 -19.1,17.45 -6.5824,2.10124 -13.53664,1.35129 -20.32496,1.425 -4.63856,-0.46802 -9.14344,-1.82373 -13.42496,-3.625 -7.64616,-3.60774 -13.27152,-10.83805 -15.07504,-19.075 -1.09184,-3.88761 -0.69008,-7.95024 -0.65,-11.925 1.69632,-7.53166 5.292,-14.99606 11.9,-19.375 7.3688,-5.21139 16.56152,-6.55879 25.35,-7 z M 449.28336,449.17561 c 5.59693,-1.94574 11.47827,-3.51934 17.44871,-3.45126 l 0.95337,-0.57445 c 1.90625,0.009 3.81818,0.0176 5.73647,0.0263 -0.009,10.13924 0.003,20.27924 -0.005,30.42049 -4.48938,-0.01 -8.97603,-0.0148 -13.46075,-0.022 -4.49601,-0.10665 -8.80068,1.3775 -13.15302,2.27238 -4.10068,1.58566 -7.98851,3.82304 -11.21145,6.82861 -3.65436,4.17696 -5.28011,9.84958 -5.16773,15.33599 0.0571,17.0614 -0.003,34.1235 0.0314,51.18634 -11.56293,6.1e-4 -23.12482,0.006 -34.68616,-0.003 -0.0188,-34.21762 -0.004,-68.43472 -0.008,-102.6517 11.56523,0.0261 23.13111,-0.004 34.69794,0.0133 -0.0478,5.43019 0.0399,10.86287 -0.0619,16.29636 4.50104,-7.00403 10.98691,-12.82866 18.88622,-15.67687 z M 549.525,445.15 c -3.84618,0.002 -7.70548,0.007 -11.55,0.025 -12.01411,1.06172 -24.55478,2.19945 -35.175,8.45 -8.98378,4.70175 -13.78986,14.39133 -15.775,23.95 11.50214,0.13147 23.03163,0.23218 34.525,-0.05 1.81285,-2.18196 3.73866,-4.2973 6.125,-5.875 3.98334,-1.39708 8.08668,-2.25475 12.25,-2.9 10.37401,-0.12853 21.34753,-0.97793 31,3.575 5.11186,2.41023 6.82746,8.53013 6.525,13.775 -12.16403,0.27595 -24.31998,-0.42786 -36.475,-0.1 -5.2967,0.94568 -10.68003,0.60892 -16.025,0.7 -5.72032,0.63065 -11.47363,0.9614 -17.1,2.275 -5.11375,1.03046 -9.81602,3.27035 -14.375,5.725 -7.17792,4.92234 -11.45738,13.64662 -11.05,22.325 0.205,3.98318 -0.63731,8.16275 1,11.95 2.39871,9.2713 10.17166,16.28702 18.75,19.95 7.44762,3.20168 15.65834,4.25034 23.7,4.525 6.06236,1.16521 12.13574,-0.41094 18.225,-0.325 11.79786,-1.76018 23.14958,-6.05846 33.1,-12.65 0.1313,3.66722 0.9796,7.268 2.2,10.725 12.40231,-0.0187 24.79574,0.0454 37.2,-0.025 -2.87204,-4.19522 -4.93327,-8.93685 -5.175,-14.075 -0.30354,-20.6643 0.29826,-41.35018 -0.325,-62 -1.35526,-6.95377 -4.25264,-13.84962 -9.975,-18.325 -11.2072,-9.06397 -26.25795,-10.40682 -40.075,-11.575 -3.84581,-0.0454 -7.67882,-0.052 -11.525,-0.05 z m 17.9,58.925 c 3.36514,0.008 6.73342,0.0424 10.1,0.075 -0.12598,1.29083 -0.26612,2.59726 -0.4,3.9 -1.06038,5.85101 -4.53631,11.14301 -9.475,14.45 -4.90622,3.88117 -10.96149,5.73186 -16.825,7.6 -9.1065,1.36903 -19.07568,1.96536 -27.375,-2.75 -6.72426,-3.15735 -6.78502,-13.85538 -0.95,-17.95 4.28585,-3.05498 9.5974,-3.75865 14.65,-4.6 10.07193,-0.5959 20.17957,-0.74922 30.275,-0.725 z m 219.99222,-56.86725 c 11.32034,-2.9e-4 22.64201,-4.4e-4 33.96552,-8e-4 -0.0173,34.66427 0.002,69.32865 -0.009,103.99353 -11.32222,-0.003 -22.64264,-10e-4 -33.9617,5.2e-4 0.009,-34.66481 -0.001,-69.32907 0.005,-103.99325 z"
     inkscape:connector-curvature="0"
     id="text"
     style="fill:#ffffff;fill-rule:nonzero;stroke:none" />
</svg>
