<?xml version="1.0" encoding="UTF-8" standalone="no"?>
<!-- Generator: Adobe Illustrator 19.2.0, SVG Export Plug-In . SVG Version: 6.00 Build 0)  -->

<svg
   xmlns:dc="http://purl.org/dc/elements/1.1/"
   xmlns:cc="http://creativecommons.org/ns#"
   xmlns:rdf="http://www.w3.org/1999/02/22-rdf-syntax-ns#"
   xmlns:svg="http://www.w3.org/2000/svg"
   xmlns="http://www.w3.org/2000/svg"
   xmlns:sodipodi="http://sodipodi.sourceforge.net/DTD/sodipodi-0.dtd"
   xmlns:inkscape="http://www.inkscape.org/namespaces/inkscape"
   version="1.1"
   id="Layer_1"
   x="0px"
   y="0px"
   viewBox="0 0 800.00072 347.92"
   xml:space="preserve"
   sodipodi:docname="kohavision.default.svg"
   width="800.00073"
   height="347.92001"
   inkscape:version="0.92.2 (5c3e80d, 2017-08-06)"><metadata
     id="metadata13"><rdf:RDF><cc:Work
         rdf:about=""><dc:format>image/svg+xml</dc:format><dc:type
           rdf:resource="http://purl.org/dc/dcmitype/StillImage" /><dc:title></dc:title></cc:Work></rdf:RDF></metadata><defs
     id="defs11" /><sodipodi:namedview
     pagecolor="#ffffff"
     bordercolor="#666666"
     borderopacity="1"
     objecttolerance="10"
     gridtolerance="10"
     guidetolerance="10"
     inkscape:pageopacity="0"
     inkscape:pageshadow="2"
     inkscape:window-width="1366"
     inkscape:window-height="705"
     id="namedview9"
     showgrid="false"
     inkscape:pagecheckerboard="true"
     inkscape:zoom="2.0697275"
     inkscape:cx="88.565483"
     inkscape:cy="55.874708"
     inkscape:window-x="-8"
     inkscape:window-y="-8"
     inkscape:window-maximized="1"
     inkscape:current-layer="layer2" /><style
     type="text/css"
     id="style2">
	.st0{fill:#E8303F;}
</style><g
     inkscape:groupmode="layer"
     id="layer2"
     inkscape:label="Layer 2"
     transform="translate(-250.48685,-42.567301)"
     style="display:inline"><g
       id="g6"
       transform="matrix(1.702273,0,0,1.702273,250.48685,42.403476)"
       style="fill:#e8303f;fill-opacity:1;stroke:none"><path
         class="st0"
         d="m 246.6,47.1 c 0,1.3 0,2.3 0,3.3 0,25 0,49.9 0,74.9 0,1.1 0,2.3 -0.2,3.3 -0.8,3.9 -4.1,6.5 -8.4,6.5 -5.8,0 -11.5,0 -17.3,0 -7,0 -14.1,-0.1 -21.1,0 -5.6,0.1 -9.2,-4 -9.2,-9.1 0.1,-25.3 0.1,-50.6 0.1,-75.8 0,-1 0,-2 0,-3.2 -1.1,-0.1 -1.9,-0.1 -2.6,-0.1 -20.2,0 -40.5,0 -60.7,0 -1.5,0 -2.7,0.4 -3.9,1.4 -3.4,3 -7,5.8 -10.6,8.9 0.6,0.8 1.1,1.5 1.6,2.1 17.7,21.2 35.3,42.4 53,63.6 0.8,0.9 1.5,1.9 2.1,2.9 2.2,4 0.4,7.8 -3.9,8.9 -1.1,0.3 -2.2,0.4 -3.3,0.4 -15.2,0 -30.4,0 -45.6,0.1 -5.1,0 -9.2,-1.8 -12.5,-5.9 C 93.8,116.7 83.3,104.2 72.8,91.7 72.2,91 71.6,90.3 70.9,89.5 c -0.6,0.6 -1.1,0.9 -1.6,1.4 -3.9,3.9 -7.8,7.8 -11.8,11.7 -1.1,1 -1.5,2.1 -1.5,3.6 0.1,6.6 -0.1,13.3 0.1,19.9 0.2,5.6 -4.1,9.2 -9.1,9.1 -12.6,-0.1 -25.3,-0.1 -37.9,0 C 3.4,135.3 0,131 0,126.1 0.1,87.3 0.1,48.6 0,9.9 0,6 2.2,2.3 5.9,1.3 6.8,1.1 7.7,1 8.5,1 c 13,0 26.1,0 39.1,0 5.1,0 8.4,3.4 8.4,8.4 0,11 0,22.1 0,33.1 0,0.9 0,1.9 0,3 1.3,-0.1 1.7,-0.9 2.3,-1.4 C 66,36.4 73.7,28.7 81.4,21.1 87.2,15.3 93,9.6 98.7,3.8 c 1.9,-2 4,-2.8 6.8,-2.8 51.6,-0.2 103.2,-0.4 154.8,-0.6 13.5,-0.1 27,0 40.6,-0.3 4.9,-0.1 8.5,1.8 11.7,5 1.9,1.9 3.5,4.2 5,6.4 14.1,20.8 28.1,41.6 42.1,62.4 0.5,0.7 1,1.4 1.7,2.4 0.8,-1.1 1.4,-1.9 1.9,-2.8 14,-20.8 28,-41.5 42,-62.3 1.4,-2 2.9,-4 4.5,-5.9 2.8,-3.2 6.5,-4.9 10.8,-4.9 13.7,0 27.4,-0.1 41,-0.1 1.3,0 2.6,0.1 3.8,0.5 3.3,1 4.9,3.6 4.5,7 -0.2,2.1 -1.2,3.9 -2.4,5.7 -10.2,15 -20.3,30.1 -30.5,45.1 -16.2,23.9 -32.3,47.8 -48.4,71.8 -2.2,3.3 -4.9,4.9 -8.9,4.8 -12.2,-0.2 -24.3,-0.2 -36.5,0 -4.1,0.1 -6.9,-1.5 -9.1,-4.9 -6.9,-10.5 -14,-20.8 -21,-31.3 C 301.7,82.2 290.4,65.3 279,48.5 c -1,-1.5 -2.1,-2.2 -4.1,-2.2 -8.7,0.3 -17.4,0.3 -26.2,0.5 -0.5,0.1 -1.1,0.2 -2.1,0.3 z"
         Googl="true"
         id="path4"
         inkscape:connector-curvature="0"
         style="fill:#e8303f;fill-opacity:1;stroke:none" /></g><g
       aria-label="KOHAVISION"
       transform="matrix(0.97911922,0,0,1.0213261,-1.2571139,-112.42917)"
       style="font-style:normal;font-variant:normal;font-weight:bold;font-stretch:normal;font-size:121.04747009px;line-height:1.25;font-family:'Gandhi Sans';-inkscape-font-specification:'Gandhi Sans Bold';font-variant-ligatures:normal;font-variant-caps:normal;font-variant-numeric:normal;font-feature-settings:normal;text-align:start;letter-spacing:0px;word-spacing:0px;writing-mode:lr-tb;text-anchor:start;display:inline;fill:#000000;fill-opacity:1;stroke:none;stroke-width:1.73261571"
       id="text853"><path
         d="m 366.62036,492.41518 c 25.66206,0 37.64576,-18.03607 37.64576,-42.36661 0,-23.36216 -11.37846,-42.12452 -37.64576,-42.12452 -25.54102,0 -37.28262,18.39922 -37.28262,42.24557 0,23.7253 11.49951,42.24556 37.28262,42.24556 z m 0,-13.55731 c -14.76779,0 -21.54645,-10.53113 -21.54645,-28.68825 0,-18.39922 6.77866,-28.68825 21.54645,-28.68825 14.5257,0 21.90959,9.07856 21.90959,28.5672 0,20.09388 -7.38389,28.8093 -21.90959,28.8093 z"
         style="fill:#000000;fill-opacity:1;stroke-width:1.73261571"
         id="path826"
         inkscape:connector-curvature="0" /><path
         d="m 469.76226,490.72052 h 15.49408 v -81.1018 h -15.49408 v 31.10919 h -35.9511 v -31.10919 h -15.49407 v 81.1018 h 15.49407 v -36.19319 h 35.9511 z"
         style="fill:#000000;fill-opacity:1;stroke-width:1.73261571"
         id="path828"
         inkscape:connector-curvature="0" /><path
         d="m 555.97454,490.72052 h 15.73617 l -32.92492,-81.1018 h -9.4417 l -33.04596,81.1018 h 15.85722 l 7.74704,-19.60969 h 28.32511 z m -21.9096,-55.43974 9.19961,23.36216 h -18.52026 z"
         style="fill:#000000;fill-opacity:1;stroke-width:1.73261571"
         id="path830"
         inkscape:connector-curvature="0" /><path
         d="m 582.25699,409.61872 h -15.97827 l 31.71444,81.1018 h 9.4417 l 31.95654,-81.1018 h -15.97827 l -20.45702,55.07659 z"
         style="fill:#000000;fill-opacity:1;stroke-width:1.73261571"
         id="path832"
         inkscape:connector-curvature="0" /><path
         d="m 650.48235,490.72052 h 15.49408 v -81.1018 h -15.49408 z"
         style="fill:#000000;fill-opacity:1;stroke-width:1.73261571"
         id="path834"
         inkscape:connector-curvature="0" /><path
         d="m 729.45825,467.60045 c 0,-25.41997 -34.37748,-25.17787 -34.37748,-38.12995 0,-5.44714 5.084,-8.35228 11.62056,-8.35228 6.41551,0 12.58894,2.05781 17.55188,5.20505 l 2.2999,-13.19418 c -5.20504,-2.90514 -12.58893,-5.20504 -21.06226,-5.20504 -14.0415,0 -25.29892,8.35228 -25.29892,23.48321 0,24.20949 33.77225,22.99902 33.77225,38.251 0,5.56818 -4.8419,9.92589 -12.46789,9.92589 -6.29447,0 -15.25198,-2.66304 -21.06226,-6.53656 l -1.93676,13.19417 c 6.65761,3.87352 15.73617,6.17342 23.24111,6.17342 16.46246,0 27.71987,-10.16798 27.71987,-24.81473 z"
         style="fill:#000000;fill-opacity:1;stroke-width:1.73261571"
         id="path836"
         inkscape:connector-curvature="0" /><path
         d="m 742.68649,490.72052 h 15.49407 v -81.1018 h -15.49407 z"
         style="fill:#000000;fill-opacity:1;stroke-width:1.73261571"
         id="path838"
         inkscape:connector-curvature="0" /><path
         d="m 809.43659,492.41518 c 25.66206,0 37.64576,-18.03607 37.64576,-42.36661 0,-23.36216 -11.37846,-42.12452 -37.64576,-42.12452 -25.54102,0 -37.28262,18.39922 -37.28262,42.24557 0,23.7253 11.49951,42.24556 37.28262,42.24556 z m 0,-13.55731 c -14.76779,0 -21.54645,-10.53113 -21.54645,-28.68825 0,-18.39922 6.77866,-28.68825 21.54645,-28.68825 14.5257,0 21.90959,9.07856 21.90959,28.5672 0,20.09388 -7.38389,28.8093 -21.90959,28.8093 z"
         style="fill:#000000;fill-opacity:1;stroke-width:1.73261571"
         id="path840"
         inkscape:connector-curvature="0" /><path
         d="m 861.13329,490.72052 h 15.37303 v -57.49755 l 39.34043,57.49755 h 11.13637 v -81.1018 h -15.25198 v 48.66108 l -33.89329,-48.66108 h -16.70456 z"
         style="fill:#000000;fill-opacity:1;stroke-width:1.73261571"
         id="path842"
         inkscape:connector-curvature="0" /></g><g
       aria-label="K"
       transform="matrix(0.94002602,0,0,1.0638003,0.6755061,3.7406072)"
       style="font-style:normal;font-variant:normal;font-weight:bold;font-stretch:normal;font-size:113.3216095px;line-height:1.25;font-family:Arial;-inkscape-font-specification:'Arial Bold';font-variant-ligatures:normal;font-variant-caps:normal;font-variant-numeric:normal;font-feature-settings:normal;text-align:start;letter-spacing:0px;word-spacing:0px;writing-mode:lr-tb;text-anchor:start;display:inline;fill:#000000;fill-opacity:1;stroke:none;stroke-width:1.62203157"
       id="text824"><path
         d="M 267.03477,363.55151 V 282.4336 h 16.37851 v 36.02167 l 33.08903,-36.02167 h 22.02246 l -30.54372,31.59504 32.2037,49.52287 h -21.19247 l -22.29912,-38.06897 -13.27988,13.55654 v 24.51243 z"
         style="font-style:normal;font-variant:normal;font-weight:bold;font-stretch:normal;font-family:Arial;-inkscape-font-specification:'Arial Bold';fill:#000000;fill-opacity:1;stroke-width:1.62203157"
         id="path821"
         inkscape:connector-curvature="0" /></g></g></svg>