<svg xmlns="http://www.w3.org/2000/svg" height="172.49" width="600" version="1.1" viewBox="0 0 158.75 45.638773">
 <g transform="translate(-26.458 -126.01)">
  <path d="m109.76 141.89v1.1147 25.301c0 0.37157 0 0.77693-0.0675 1.1147-0.27023 1.3174-1.385 2.1957-2.8375 2.1957h-5.8438c-2.3646 0-4.7629-0.0338-7.1275 0-1.8916 0.0338-3.1077-1.3512-3.1077-3.0739 0.03378-8.5462 0.03378-17.092 0.03378-25.605v-1.0809c-0.37157-0.0338-0.64181-0.0338-0.87827-0.0338h-20.504c-0.50669 0-0.91204 0.13512-1.3174 0.47292-1.1485 1.0134-2.3646 1.9592-3.5806 3.0064 0.20268 0.27024 0.37157 0.50668 0.54047 0.70936 5.979 7.1612 11.924 14.322 17.903 21.484 0.27024 0.30402 0.50669 0.64181 0.70937 0.97961 0.74315 1.3512 0.13512 2.6348-1.3174 3.0064-0.37158 0.10137-0.74315 0.13512-1.1147 0.13512-5.1345 0-10.269 0-15.403 0.0338-1.7228 0-3.1077-0.60803-4.2224-1.993-3.4793-4.2562-7.0261-8.4786-10.573-12.701-0.20268-0.23646-0.40535-0.47292-0.64181-0.74316-0.20268 0.20268-0.37157 0.30402-0.54047 0.47292-1.3174 1.3174-2.6348 2.6348-3.986 3.9522-0.37157 0.33781-0.50669 0.70938-0.50669 1.2161 0.03378 2.2294-0.03378 4.4927 0.03378 6.7221 0.06756 1.8916-1.385 3.1077-3.0739 3.0739-4.2562-0.0338-8.5462-0.0338-12.802 0-1.9254 0.0338-3.0739-1.4187-3.0739-3.0739 0.03378-13.106 0.03378-26.179 0-39.252 0-1.3174 0.74315-2.5672 1.993-2.905 0.30402-0.0675 0.60803-0.10138 0.87826-0.10138h13.208c1.7228 0 2.8375 1.1485 2.8375 2.8375v11.181 1.0134c0.43913-0.0338 0.57425-0.30402 0.77693-0.47291 2.601-2.601 5.202-5.202 7.8031-7.7693 1.9592-1.9592 3.9184-3.8846 5.8438-5.8438 0.64181-0.6756 1.3512-0.94583 2.297-0.94583 17.43-0.0675 34.86-0.13512 52.291-0.20267 4.5602-0.0338 9.1205 0 13.714-0.10137 1.6552-0.0338 2.8712 0.60803 3.9522 1.689 0.64181 0.64182 1.1823 1.4187 1.689 2.1619 4.7629 7.0261 9.492 14.052 14.221 21.078 0.16889 0.23646 0.33779 0.47292 0.57424 0.81071 0.27023-0.37157 0.47291-0.6418 0.64182-0.94582 4.7291-7.0261 9.4582-14.018 14.187-21.045 0.47292-0.67559 0.97962-1.3512 1.5201-1.993 0.94582-1.081 2.1957-1.6552 3.6482-1.6552 4.6278 0 9.2556-0.0338 13.85-0.0338 0.43912 0 0.87826 0.0338 1.2836 0.1689 1.1147 0.33779 1.6552 1.2161 1.5201 2.3646-0.0675 0.70936-0.40535 1.3174-0.8107 1.9254-3.4455 5.0669-6.8572 10.168-10.303 15.235-5.4723 8.0733-10.911 16.147-16.349 24.254-0.74315 1.1147-1.6552 1.6552-3.0064 1.6214-4.1211-0.0675-8.2084-0.0675-12.33 0-1.385 0.0338-2.3308-0.50668-3.0739-1.6552-2.3308-3.5468-4.7291-7.0261-7.0937-10.573-3.8508-5.6749-7.6679-11.384-11.519-17.059-0.33779-0.5067-0.70936-0.74316-1.385-0.74316-2.9388 0.10137-5.8776 0.10137-8.8502 0.16891-0.16891 0.0338-0.37159 0.0675-0.70938 0.10137z" class="st0" fill="#e8303f"/>
 </g>
</svg>
