<?xml version="1.0" encoding="UTF-8" standalone="no"?>
<svg xmlns:rdf="http://www.w3.org/1999/02/22-rdf-syntax-ns#" xmlns="http://www.w3.org/2000/svg" height="143.6" width="600" version="1.1" xmlns:cc="http://creativecommons.org/ns#" xmlns:dc="http://purl.org/dc/elements/1.1/" viewBox="0 0 480 114.87863">
 <metadata>
  <rdf:RDF>
   <cc:Work rdf:about="">
    <dc:format>image/svg+xml</dc:format>
    <dc:type rdf:resource="http://purl.org/dc/dcmitype/StillImage"/>
    <dc:title/>
   </cc:Work>
  </rdf:RDF>
 </metadata>
 <defs></defs>
 <g transform="matrix(0.7673002,0,0,0.7673002,-1.4806202e-6,-7.4596043e-7)">
  <path fill-rule="nonzero" fill="#100f0e" d="m479.96,143.5c0,3.4437-2.7817,6.2187-6.2421,6.2187h-467.47c-3.4203,0-6.2154-2.775-6.2154-6.2187v-36.543c0-3.4437,2.7951-6.2522,6.2154-6.2522h467.47c3.4604,0,6.2421,2.8085,6.2421,6.2522"/>
  <path fill-rule="nonzero" fill="#eb1c24" d="m479.92,91.61c0,2.9756,0,9.1275-9.8998,9.1275h-460.41c-9.61,0-9.61-6.088-9.61-9.064v-82.448c0-2.9756,0.49817-9.1943,9.7561-9.1943h458.37c3.2632,0,11.949-1.0364,11.869,8.392"/>
  <path fill-rule="nonzero" fill="#eb1c24" d="m6.7537,98.831,465.9,0,0-96.907-465.9,0,0,96.907z"/>
  <path fill-rule="nonzero" fill="#FFF" d="m70.171,133.34-1.7085,5.7172-4.6774,3.6778c-2.0094,0.86928-4.323,1.2705-6.9342,1.2705l-2.6781-0.13373-4.206-0.76899-5.4564-1.8723v-8.5926l5.2358,2.7082,5.5099,1.1033,3.5139-0.90272,0.8091-1.7051-1.3708-2.4073-3.982-2.006-5.0686-2.6413-3.5641-3.5774-1.3975-5.1154,1.4243-5.1154,4.2294-3.6443c1.9325-0.93615,4.2729-1.3708,7.0011-1.3708l5.4598,0.56838,4.099,1.2705,2.22,1.1033v8.2582l-4.7911-2.775-5.657-1.2036-2.8586,0.73555-0.90272,1.8723,0.90272,1.8054,3.1729,1.8389c2.7048,1.3039,4.8446,2.4407,6.4929,3.4437l3.7847,3.5106,1.3975,4.9482"/>
  <path fill-rule="nonzero" fill="#FFF" d="m148.89,119.53-1.4744-3.4437c-1.0064-0.60181-2.755-0.90272-5.316-0.90272h-2.2334v8.4254h2.2869l4.0723-0.3009,2.0261-1.2371,0.63859-2.541m10.816-0.0669-0.69208,3.8115-2.1565,3.5106-4.0355,2.5744-6.0215,1.003-6.9342,0,0,13.173-10.592,0,0-35.106,17.526,0,6.0215,1.003,4.0355,2.6413,2.1565,3.5106,0.69208,3.8784"/>
  <path fill-rule="nonzero" fill="#FFF" d="m244.27,125.95-0.58844-3.6109-1.7519-2.8419-2.872-1.8723-3.9318-0.66868c-2.8319,0-5.0653,0.83585-6.7136,2.4741-1.6182,1.6717-2.4273,3.8449-2.4273,6.5196s0.8091,4.8479,2.4541,6.5196c1.6215,1.6717,3.8549,2.5076,6.6868,2.5076l4.965-1.1702,3.1194-3.1762,1.0599-4.6808m10.786,0c0,3.2765-0.75561,6.319-2.2601,9.0606-1.5012,2.775-3.7613,4.9482-6.7503,6.5531-3.0057,1.6383-6.6233,2.4407-10.92,2.4407-4.3464,0-8.0175-0.86928-11.033-2.541-3.0057-1.6717-5.2391-3.9118-6.7136-6.6868-1.451-2.7082-2.1699-5.6504-2.1699-8.8266,0-3.1428,0.71882-6.085,2.1699-8.86,1.4477-2.7082,3.6811-4.9482,6.6868-6.6199,3.0425-1.7051,6.7136-2.541,11.06-2.541,3.2398,0,6.1385,0.50151,8.6728,1.4377,2.5343,1.003,4.6239,2.2735,6.2689,3.9452l3.7346,5.7507,1.2538,6.8874"/>
  <path fill-rule="nonzero" fill="#FFF" d="m333.18,119.53-1.5915-3.4103-5.2124-0.93615-2.2334,0,0,8.4254,2.2869,0c2.5978,0,4.3498-0.26747,5.3294-0.83585l1.4209-3.2431m14.407,24.006-11.401,0-2.755-6.2187-2.7316-5.0151-2.3772-2.0395-2.9756-0.43464-1.2036,0,0,13.708-10.579,0,0-35.106,18.024,0c2.8987,0,5.2893,0.60181,7.1315,1.772l4.0087,4.313,1.2538,4.8145-1.0331,4.4802-2.1665,2.6747-2.561,1.6048,2.8085,2.3404c0.73221,0.90272,1.7252,2.7416,2.979,5.4832"/>
  <path fill-rule="nonzero" fill="#FFF" d="m435.74,116.95-12.862,0,0,26.614-10.569,0,0-26.614-12.902,0,0-8.5257,36.333,0"/>
  <path fill-rule="nonzero" fill="#FFF" d="m148.79,49.884c0-2.8419-0.3778-5.4163-1.11-7.7567l-3.4203-6.1184-5.5768-4.0121c-2.1699-0.96959-4.7042-1.4377-7.5762-1.4377-5.5233,0-9.8096,1.772-12.956,5.316-3.1461,3.5774-4.7142,8.2582-4.7142,14.009,0,5.7841,1.5681,10.465,4.741,14.042,3.1462,3.5775,7.4692,5.3495,12.929,5.3495,3.7346,0,6.961-0.80241,9.6123-2.4741,2.638-1.6383,4.6507-3.9118,6.0215-6.854,1.3574-2.9088,2.0495-6.2522,2.0495-10.064m20.896,0c0,7.0546-1.4744,13.541-4.3999,19.459-2.9255,5.9178-7.2619,10.632-13.063,14.109-5.7707,3.5106-12.812,5.2157-21.117,5.2157-8.412,0-15.517-1.8054-21.341-5.4163-5.81-3.645-10.137-8.426-12.972-14.311-2.818-5.951-4.243-12.303-4.243-19.057,0-6.7871,1.4243-13.14,4.206-19.057,2.8185-5.8844,7.1683-10.632,12.992-14.243,5.8142-3.6443,12.956-5.4498,21.368-5.4498,6.2689,0,11.872,1.0699,16.771,3.1094,4.9349,2.0729,8.9704,4.8814,12.143,8.4254,3.1762,3.544,5.5768,7.6564,7.2251,12.371,1.6048,4.7142,2.4407,9.6624,2.4407,14.845"/>
  <path fill-rule="nonzero" fill="#FFF" d="m255.99,87.832-20.502,0,0-43.732-18.469,25.31-1.6182,0-18.559-25.31,0,43.732-19.89,0,0-75.528,18.583,0,20.896,28.319,20.99-28.319,18.569,0"/>
  <path fill-rule="nonzero" fill="#FFF" d="m306.77,65.297c0-6.4528-4.3999-9.6959-13.203-9.6959h-8.7263v19.358h8.7263c8.8032,0,13.203-3.2097,13.203-9.6624m-3.4738-31.428c0-3.6443-1.1234-6.085-3.3835-7.2552-2.2468-1.2036-5.7573-1.8054-10.552-1.8054h-4.5203v18.088h4.6239c4.8847,0,8.4254-0.60182,10.565-1.772,2.1699-1.2036,3.2665-3.6443,3.2665-7.2552m24.985,32.364c0,6.5196-2.0896,11.702-6.2689,15.58-4.1792,3.8784-10.03,5.8175-17.553,5.8175h-41.01v-75.528h34.323c4.4267,0,8.305,0.46807,11.595,1.3708,3.2799,0.93616,5.9312,2.1398,7.9674,3.7446l4.4802,5.5501c1.0064,2.1732,1.5012,4.547,1.5012,7.0546,0,2.775-0.52156,5.316-1.5547,7.6564l-3.7847,5.7841-4.5972,3.1762c4.8446,2.0395,8.5524,4.6139,11.087,7.7233,2.5343,3.1094,3.8148,7.1215,3.8148,12.07"/>
  <path fill-rule="nonzero" fill="#FFF" d="m379.89,59.279-9.95-27.583-10.057,27.583,20.007,0zm31.227,28.452-20.977,0-5.5501-15.346-29.529,0-5.627,15.346-20.99,0,30.067-75.528,22.658,0"/>
  <path fill-rule="nonzero" fill="#FFF" d="m469.34,30.559-24.905,0,0,57.172-20.452,0,0-57.172-24.908,0,0-18.355,70.265,0"/>
  <path fill-rule="nonzero" fill="#ac1b21" d="m93.458,88.366-28.302,0-29.449-36.042,0,36.042-23.21,0,0-76.932,23.21,0,0,34.404,27.897-34.404,25.206,0-28.67,36.008"/>
  <path stroke-linejoin="miter" d="m93.458,88.366-28.302,0-29.449-36.042,0,36.042-23.21,0,0-76.932,23.21,0,0,34.404,27.897-34.404,25.206,0-28.67,36.008,33.317,40.923z" stroke="#f5f4f4" stroke-linecap="butt" stroke-miterlimit="10" stroke-dasharray="none" stroke-width="4.68076897" fill="none"/>
  <path fill-rule="nonzero" fill="#75787d" d="m473.24,102.48-466.47,0-1.4109-1.9726,1.4109-2.006,466.47,0,1.3574,2.006"/>
  <path fill-rule="nonzero" fill="#100f0d" d="m14.694,85.959,18.689,0,0-72.497-18.689,0,0,72.497z"/>
  <path fill="#000" d="m545.19,47.483,4.825,0,0,65.939-4.825,0,0-36.304-47.231,0,0,36.304-4.825,0,0-65.939,4.825,0,0,25.66,47.231,0,0-25.66"/>
  <path fill="#000" d="m570.05,109.45,12.044,0c6.9968,0.00002,13.42-1.266,19.27-3.7982,5.888-2.5321,10.533-6.0212,13.936-10.467,3.441-4.446,5.1616-9.3336,5.1616-14.663-0.00005-5.3881-1.7206-10.305-5.1616-14.751-3.4029-4.4754-8.0483-7.9791-13.936-10.511-5.8498-2.5321-12.273-3.7981-19.27-3.7982h-12.044v57.989m-5.1616,3.9749,0-65.939,17.205,0c5.888,0.000074,11.508,0.85394,16.861,2.5616,5.3527,1.7078,9.979,4.0338,13.879,6.9781,3.8998,2.9149,6.9968,6.4187,9.2909,10.511,2.294,4.0927,3.441,8.4209,3.4411,12.985-0.0001,6.0654-1.95,11.63-5.8498,16.694-3.8999,5.0349-9.1762,8.995-15.829,11.88-6.6528,2.8855-13.917,4.3282-21.793,4.3282h-17.205"/>
 </g>
</svg>
