<svg xmlns="http://www.w3.org/2000/svg" width="500.804" height="260.044">
    <linearGradient x1="-.058" y1="843.642" x2="2.874" y2="843.642" id="a" gradientUnits="userSpaceOnUse" gradientTransform="scale(183.54 -183.54) rotate(45 1020.605 421.414)">
        <stop offset="0"/>
        <stop offset=".25"/>
        <stop offset="1" stop-color="#5a504e"/>
    </linearGradient>
    <path fill="url(#a)" d="M0 0h500.804v260.044H0z"/>
    <path d="M68.913 214.122l-20.884-22.395H41.99v22.395h-6.711v-49.486h6.711v20.967h5.873l20.881-20.967h8.637l-23.9 23.567 24.742 25.919m53.344-30.029c0 8.469-4.786 12.578-9.737 14.508l9.988 15.521h-7.716l-8.557-13.926c-1.007.088-1.929.088-2.599.088h-12.753v13.838h-6.454v-49.486h21.805c8.137 0 16.021 4.106 16.021 16.271v3.186m-6.46.335v-4.781c0-7.548-5.785-9.053-9.814-9.053h-15.097v23.982h12.584c7.384.001 12.327-2.935 12.327-10.148m67.845 15.856s.085 13.838-13.755 13.838h-16.189c-1.591 0-12.997-.673-12.997-14.514V178.47s0-13.835 13.835-13.835h16.107c1.591 0 12.999.753 12.999 14.594v21.055m-6.457 2.593v-23.229c0-5.364-3.359-9.053-8.22-9.053h-16.859c-3.017 0-4.948 1.923-4.948 5.025v23.235c0 5.201 2.681 8.97 8.216 8.97h16.86c3.858 0 4.951-2.847 4.951-4.948m66.68 11.245v-49.486h-6.456v37.237l.166 4.948-2.602-4.359-25.411-37.826h-7.045v49.486h6.459V178.56l-.169-5.366 2.85 4.693 24.407 36.235m59.976 0v-6.374h-26.251v-16.189h23.068v-5.787h-23.068v-15.1h25.498v-6.036h-32.12v49.486m95.623 0v-49.486H355.1v18.619h-17.868v-18.619H324.23v49.486h13.002v-19.465H355.1v19.465m30.617 0h13.002v-49.486h-13.002v49.486zm65.844-37.329v-12.157h-37.743v12.157h12.161v37.329h13.004v-37.329" fill="#fff"/>
    <path d="M387.84 139.221h3.955c.938 0 1.697.968 1.697 2.152 0 1.188-.759 2.152-1.697 2.152h-7.919c-.938 0-1.697-.964-1.697-2.152 0-1.185.759-2.146 1.697-2.152m0-7.882c-.938 0-1.697.965-1.697 2.155 0 1.185.759 2.149 1.697 2.149h7.919c.938 0 1.697-.965 1.697-2.153 0-1.187-.759-2.152-1.697-2.152h-3.955m-3.964-7.878c-.938 0-1.697.956-1.697 2.15 0 1.19.759 2.149 1.697 2.149h7.919c.938 0 1.697-.959 1.697-2.153 0-1.19-.759-2.146-1.697-2.146h-3.955m-3.964-7.881c-.938 0-1.697.961-1.697 2.149 0 1.185.759 2.149 1.697 2.149h7.919c.938 0 1.697-.964 1.697-2.155 0-1.183-.759-2.144-1.697-2.144h-3.955m-3.964-7.887c-.938 0-1.697.962-1.697 2.152 0 1.185.759 2.149 1.697 2.149h7.919c.938 0 1.697-.964 1.697-2.152 0-1.187-.759-2.149-1.697-2.149h-3.955m-3.964-7.882c-.938 0-1.697.961-1.697 2.155 0 1.183.759 2.145 1.697 2.145h7.919c.938 0 1.697-.961 1.697-2.15 0-1.188-.759-2.149-1.697-2.149h-3.955m-3.964-7.882c-.938 0-1.697.961-1.697 2.151 0 1.183.759 2.145 1.697 2.145h7.919c.938 0 1.697-.961 1.697-2.15 0-1.185-.759-2.146-1.697-2.146h-3.955m-3.964-7.881c-.938 0-1.697.958-1.697 2.148 0 1.185.759 2.147 1.697 2.147h7.919c.938 0 1.697-.962 1.697-2.147 0-1.19-.759-2.148-1.697-2.148h-3.955m-3.964-7.889c-.938 0-1.697.961-1.697 2.146 0 1.19.759 2.149 1.697 2.149h7.919c.938 0 1.697-.959 1.697-2.149 0-1.185-.759-2.146-1.697-2.146h-3.955m-3.964-7.881c-.938 0-1.697.958-1.697 2.146 0 1.19.759 2.152 1.697 2.152h7.919c.938 0 1.697-.961 1.697-2.152 0-1.188-.759-2.146-1.697-2.146h-3.955m-3.964-7.885c-.938 0-1.697.961-1.697 2.151 0 1.188.759 2.149 1.697 2.149h7.919c.938 0 1.697-.961 1.697-2.151 0-1.188-.759-2.149-1.697-2.149h-3.955m-3.964-7.888c-.938 0-1.697.97-1.697 2.153 0 1.19.759 2.158 1.697 2.158h7.919c.938 0 1.697-.968 1.697-2.158 0-1.183-.759-2.153-1.697-2.153h-3.955m-3.964-7.878c-.938 0-1.697.964-1.697 2.148 0 1.188.759 2.15 1.697 2.15h7.919c.938 0 1.697-.961 1.697-2.15 0-1.185-.759-2.148-1.697-2.148h-3.955m-3.964-7.885c-.938 0-1.697.962-1.697 2.152 0 1.188.759 2.149 1.697 2.149h7.919c.938 0 1.697-.961 1.697-2.158 0-1.182-.759-2.144-1.697-2.144h-3.955m8.489 102.596c-.941.003-1.726.965-1.766 2.153-.034 1.187.687 2.149 1.622 2.149h7.923c.934 0 1.726-.962 1.766-2.149.04-1.188-.692-2.153-1.626-2.153h-3.958m-3.704-7.882c-.941 0-1.727.964-1.766 2.155-.037 1.182.687 2.146 1.625 2.146h7.923c.933 0 1.723-.964 1.766-2.151.034-1.185-.693-2.149-1.632-2.149h-3.955m-3.703-7.886c-.942 0-1.727.961-1.764 2.158-.039 1.185.685 2.144 1.623 2.144h7.919c.937 0 1.726-.958 1.766-2.15.038-1.19-.689-2.151-1.625-2.151h-3.961m-3.7-7.88c-.939 0-1.723.964-1.764 2.153-.04 1.182.685 2.149 1.623 2.149h7.916c.938 0 1.731-.968 1.769-2.155.04-1.183-.689-2.147-1.625-2.147h-3.958m-3.701-7.885c-.944 0-1.725.959-1.766 2.149-.037 1.188.681 2.153 1.625 2.153h7.916c.939 0 1.729-.965 1.767-2.155.04-1.188-.689-2.147-1.625-2.147h-3.959m-3.704-7.878c-.94 0-1.725.958-1.762 2.149-.038 1.182.681 2.143 1.625 2.143h7.919c.933 0 1.729-.961 1.764-2.149.04-1.185-.689-2.143-1.623-2.143h-3.961m-3.701-7.888c-.942 0-1.727.961-1.764 2.152-.04 1.185.681 2.143 1.623 2.143h7.916c.938 0 1.731-.958 1.766-2.146.044-1.188-.687-2.149-1.622-2.149h-3.955m-3.71-7.878c-.938 0-1.72.958-1.76 2.146-.04 1.187.681 2.146 1.62 2.146h7.922c.939 0 1.727-.959 1.766-2.146.04-1.188-.687-2.146-1.625-2.146h-3.958m-3.703-7.888c-.942 0-1.724.959-1.764 2.145-.038 1.187.681 2.151 1.623 2.151h7.919c.936 0 1.729-.964 1.766-2.151.043-1.185-.687-2.145-1.626-2.145h-3.958m-3.703-7.882c-.938 0-1.724.956-1.76 2.146-.037 1.188.675 2.151 1.619 2.151h7.922c.934 0 1.727-.963 1.766-2.151.041-1.19-.691-2.146-1.628-2.146h-3.955m-3.703-7.887c-.941 0-1.731.964-1.772 2.155-.036 1.185.69 2.149 1.629 2.149h7.922c.936 0 1.723-.965 1.766-2.155.037-1.185-.689-2.149-1.628-2.149h-3.959m5.912 78.811c-.938.003-1.763.968-1.852 2.156-.088 1.187.595 2.149 1.534 2.149h7.922c.933 0 1.763-.962 1.854-2.149.086-1.188-.604-2.156-1.54-2.156h-3.958m-3.378-7.878c-.942 0-1.761.961-1.855 2.158-.086 1.182.599 2.143 1.54 2.143h7.916c.938 0 1.769-.961 1.857-2.149.086-1.19-.604-2.151-1.539-2.151h-3.959m-3.38-7.883c-.941 0-1.763.958-1.852 2.152-.089 1.19.596 2.149 1.534 2.149h7.919c.936 0 1.769-.959 1.854-2.155.089-1.188-.601-2.146-1.533-2.146H413.9m-3.376-7.876c-.941 0-1.769.961-1.854 2.143-.083 1.188.596 2.149 1.537 2.149h7.919c.938 0 1.766-.961 1.852-2.155.092-1.176-.599-2.138-1.534-2.138h-3.961m-3.378-7.89c-.941 0-1.763.959-1.854 2.149-.083 1.188.596 2.153 1.536 2.153h7.919c.938 0 1.767-.965 1.854-2.155.092-1.188-.601-2.147-1.535-2.147h-3.959m-3.38-7.881c-.945 0-1.767.961-1.852 2.155-.089 1.183.592 2.146 1.536 2.146h7.914c.938 0 1.769-.963 1.857-2.151.086-1.188-.601-2.149-1.537-2.149h-3.958m-3.379-7.886c-.942 0-1.766.964-1.854 2.155-.087 1.183.602 2.144 1.533 2.144h7.923c.938 0 1.766-.961 1.851-2.149.092-1.185-.601-2.149-1.533-2.149h-3.962m-3.377-7.879c-.941 0-1.763.958-1.854 2.148-.086 1.185.596 2.147 1.533 2.147h7.922c.937 0 1.766-.962 1.853-2.147.091-1.19-.601-2.148-1.537-2.148h-3.959m4.487 55.063c-.941.009-1.783.967-1.89 2.152-.105 1.191.562 2.155 1.501 2.155h7.919c.938 0 1.779-.963 1.892-2.155.105-1.185-.57-2.152-1.5-2.152h-3.964m-3.249-7.881c-.94 0-1.779.963-1.888 2.155-.106 1.187.562 2.149 1.499 2.149h7.919c.937 0 1.783-.962 1.892-2.149.109-1.191-.565-2.155-1.505-2.155h-3.959m-3.247-7.88c-.939 0-1.777.958-1.889 2.152-.106 1.188.561 2.147 1.499 2.147h7.922c.939 0 1.78-.959 1.889-2.152.104-1.188-.566-2.146-1.505-2.146h-3.955m-3.255-7.88c-.938 0-1.777.962-1.883 2.149-.108 1.182.555 2.146 1.5 2.146h7.918c.938 0 1.784-.965 1.89-2.155.106-1.179-.566-2.141-1.502-2.141h-3.961m-3.249-7.889c-.941 0-1.783.961-1.889 2.153-.103 1.187.558 2.151 1.502 2.151h7.919c.937 0 1.784-.964 1.889-2.158.104-1.185-.565-2.146-1.501-2.146h-3.961m5.978 31.53c-.936.009-1.828.967-1.989 2.152-.165 1.191.453 2.155 1.395 2.155h7.919c.936 0 1.831-.963 1.991-2.155.166-1.185-.457-2.152-1.394-2.152h-3.957m-2.866-7.881c-.939 0-1.829.963-1.992 2.155-.166 1.187.452 2.149 1.396 2.149h7.914c.938 0 1.828-.962 1.997-2.149.166-1.191-.461-2.155-1.396-2.155h-3.958m-2.861-7.88c-.942 0-1.827.958-1.996 2.152-.162 1.188.458 2.147 1.396 2.147h7.914c.938 0 1.834-.959 2.003-2.152.16-1.188-.466-2.146-1.402-2.146h-3.954m-2.866-7.88c-.938 0-1.829.962-1.991 2.149-.166 1.182.449 2.146 1.391 2.146h7.922c.938 0 1.828-.965 1.995-2.155.166-1.179-.461-2.141-1.399-2.141h-3.958m-2.864-7.889c-.937 0-1.826.961-1.988 2.153-.167 1.187.451 2.151 1.388 2.151h7.919c.938 0 1.829-.964 2-2.158.163-1.185-.461-2.146-1.396-2.146h-3.961m-2.868-7.88c-.936 0-1.823.962-1.989 2.153-.166 1.182.454 2.146 1.394 2.146h7.919c.936 0 1.828-.964 1.997-2.151.164-1.185-.461-2.147-1.398-2.147h-3.956m-2.868-7.887c-.937 0-1.826.967-1.988 2.155-.161 1.182.451 2.144 1.394 2.144h7.922c.933 0 1.825-.962 1.989-2.147.165-1.185-.456-2.151-1.397-2.151h-3.95m2.059 47.295c-.938.009-1.865.967-2.079 2.152-.212 1.191.36 2.155 1.301 2.155h7.919c.936 0 1.873-.963 2.09-2.155.209-1.185-.372-2.152-1.312-2.152h-3.957m-2.527-7.881c-.939 0-1.866.963-2.09 2.155-.208 1.187.367 2.149 1.308 2.149h7.921c.938 0 1.871-.962 2.085-2.149.218-1.191-.369-2.155-1.305-2.155h-3.955m-2.534-7.88c-.944 0-1.866.958-2.08 2.152-.218 1.188.357 2.147 1.305 2.147h7.916c.934 0 1.871-.959 2.093-2.152.209-1.188-.375-2.146-1.314-2.146h-3.958m-2.531-7.88c-.936 0-1.866.962-2.083 2.149-.212 1.182.367 2.146 1.308 2.146h7.916c.942 0 1.873-.965 2.09-2.155.215-1.179-.372-2.141-1.305-2.141h-3.965m-2.522-7.889c-.94 0-1.871.961-2.083 2.153-.22 1.187.36 2.151 1.297 2.151h7.922c.936 0 1.869-.964 2.086-2.158.221-1.185-.365-2.146-1.303-2.146h-3.96m-2.533-7.88c-.936 0-1.866.962-2.083 2.153-.21 1.182.363 2.146 1.308 2.146h7.919c.936 0 1.866-.964 2.087-2.151.211-1.185-.369-2.147-1.309-2.147h-3.958m-2.53-7.887c-.938 0-1.862.967-2.08 2.155-.215 1.182.363 2.144 1.299 2.144h7.926c.932 0 1.865-.962 2.086-2.147.214-1.185-.37-2.151-1.303-2.151h-3.963m-2.529-7.881c-.944 0-1.865.959-2.086 2.149-.214 1.185.361 2.149 1.302 2.149h7.917c.938 0 1.877-.964 2.089-2.149.217-1.19-.369-2.149-1.299-2.149h-3.964m-2.524-7.887c-.944 0-1.872.964-2.084 2.148-.217 1.185.364 2.15 1.302 2.15h7.917c.939 0 1.868-.965 2.086-2.15.221-1.185-.372-2.148-1.311-2.148h-3.958m-90.504 63.22c-.94.003-1.654.965-1.604 2.149.051 1.19.841 2.152 1.78 2.152h7.919c.938 0 1.659-.961 1.608-2.152-.05-1.185-.848-2.149-1.784-2.149h-3.96m-4.282-7.884c-.943 0-1.654.961-1.604 2.155.048 1.188.841 2.146 1.782 2.146h7.914c.94 0 1.663-.958 1.613-2.148-.049-1.191-.85-2.153-1.785-2.153h-3.958m-4.282-7.876c-.941 0-1.656.959-1.605 2.149.049 1.188.839 2.146 1.779 2.146h7.923c.934 0 1.651-.958 1.606-2.15-.047-1.187-.851-2.146-1.784-2.146h-3.958m-4.285-7.884c-.942 0-1.657.961-1.604 2.149.048 1.185.84 2.149 1.779 2.149h7.919c.938 0 1.657-.964 1.608-2.155-.049-1.183-.851-2.144-1.783-2.144h-3.958m-4.285-7.886c-.938 0-1.653.961-1.604 2.151.051 1.188.838 2.153 1.78 2.153h7.921c.936 0 1.654-.965 1.608-2.158-.051-1.185-.847-2.146-1.784-2.146h-3.962m-4.278-7.883c-.942 0-1.657.959-1.608 2.158.052 1.179.839 2.141 1.782 2.141h7.92c.938 0 1.656-.962 1.604-2.146-.045-1.193-.847-2.153-1.782-2.153h-3.958m-4.284-7.886c-.942 0-1.654.967-1.604 2.158.049 1.182.842 2.144 1.778 2.144h7.922c.936 0 1.656-.961 1.604-2.15-.046-1.185-.847-2.151-1.782-2.151h-3.958m-4.285-7.878c-.938 0-1.651.956-1.605 2.152.052 1.183.842 2.144 1.783 2.144h7.922c.936 0 1.654-.961 1.605-2.144-.048-1.196-.847-2.152-1.786-2.152h-3.954m-4.284-7.888c-.939 0-1.654.964-1.609 2.146.052 1.191.839 2.155 1.783 2.155h7.919c.941 0 1.654-.964 1.608-2.155-.046-1.182-.847-2.146-1.786-2.146h-3.957m-4.282-7.881c-.942 0-1.651.961-1.605 2.149.052 1.187.841 2.149 1.779 2.149h7.923c.938 0 1.657-.962 1.608-2.149-.05-1.188-.848-2.149-1.786-2.149h-3.961m-4.281-7.885c-.938 0-1.654.961-1.608 2.149.049 1.193.844 2.151 1.785 2.151h7.922c.934 0 1.654-.958 1.606-2.155-.052-1.185-.851-2.146-1.786-2.146h-3.959m-12.961 78.808c-.944.005-1.617.966-1.517 2.155.097 1.185.924 2.149 1.868 2.149h7.919c.937 0 1.62-.965 1.52-2.149-.097-1.188-.938-2.155-1.871-2.155h-3.961m-4.609-7.882c-.936 0-1.613.965-1.513 2.157.094 1.185.929 2.144 1.868 2.144h7.919c.936 0 1.614-.959 1.52-2.146-.097-1.19-.936-2.155-1.871-2.155h-3.962m-4.606-7.876c-.942 0-1.611.956-1.515 2.151.095 1.185.924 2.145 1.866 2.145h7.921c.934 0 1.618-.959 1.518-2.15-.097-1.19-.934-2.146-1.871-2.146h-3.958m-4.609-7.883c-.938 0-1.611.959-1.514 2.15.094 1.183.927 2.146 1.869 2.146h7.916c.938 0 1.62-.963 1.52-2.148-.098-1.188-.937-2.147-1.872-2.147h-3.961m-4.607-7.887c-.938 0-1.611.958-1.514 2.152.1 1.185.93 2.152 1.868 2.152h7.919c.939 0 1.617-.968 1.52-2.158-.094-1.188-.936-2.146-1.871-2.146h-3.961m-4.609-7.882c-.941 0-1.613.958-1.514 2.148.1 1.188.93 2.149 1.866 2.149h7.922c.938 0 1.617-.961 1.517-2.152-.092-1.188-.934-2.146-1.869-2.146h-3.961m-4.604-7.883c-.941 0-1.614.961-1.52 2.151.101 1.185.934 2.145 1.872 2.145h7.921c.934 0 1.615-.959 1.518-2.147-.097-1.187-.937-2.148-1.874-2.148h-3.958m-4.606-7.884c-.941 0-1.62.959-1.518 2.153.096 1.185.931 2.146 1.866 2.146h7.919c.939 0 1.62-.961 1.52-2.146-.094-1.193-.932-2.153-1.871-2.153h-3.956m-12.11 55.138c-.942.003-1.583.965-1.446 2.153.135 1.19 1.002 2.151 1.941 2.151h7.919c.936 0 1.585-.961 1.451-2.151-.144-1.188-1.011-2.153-1.946-2.153h-3.961m-4.872-7.881c-.936 0-1.582.964-1.438 2.151.137 1.188.998 2.153 1.938 2.153h7.921c.934 0 1.586-.965 1.446-2.155-.139-1.185-1.008-2.149-1.943-2.149h-3.959m-4.869-7.882c-.944 0-1.583.961-1.444 2.152.137 1.19 1.002 2.146 1.939 2.146h7.919c.939 0 1.586-.956 1.448-2.149-.134-1.187-1.008-2.148-1.943-2.148h-3.96m-4.872-7.88c-.936 0-1.577.961-1.44 2.146.138 1.188.999 2.153 1.944 2.153h7.915c.937 0 1.586-.965 1.448-2.158-.135-1.18-1.007-2.141-1.948-2.141h-3.956m-4.867-7.89c-.944 0-1.583.965-1.446 2.152.135 1.188 1.002 2.149 1.941 2.149h7.919c.938 0 1.586-.961 1.447-2.153-.135-1.184-1.007-2.148-1.939-2.148h-3.961m-12.659 31.59c-.94 0-1.54.964-1.354 2.148.187 1.191 1.091 2.153 2.029 2.153h7.922c.936 0 1.545-.961 1.354-2.153-.183-1.185-1.1-2.148-2.028-2.148h-3.965m-5.197-7.885c-.941 0-1.542.965-1.354 2.158.184 1.185 1.091 2.143 2.026 2.143h7.922c.939 0 1.542-.958 1.356-2.149-.187-1.187-1.099-2.152-2.037-2.152h-3.956m-5.199-7.879c-.942 0-1.54.959-1.354 2.153.188 1.187 1.094 2.146 2.029 2.146h7.922c.933 0 1.545-.959 1.357-2.155-.189-1.185-1.1-2.145-2.035-2.145h-3.958m-5.2-7.881c-.939 0-1.544.961-1.357 2.149.189 1.182 1.091 2.148 2.032 2.148h7.922c.936 0 1.54-.967 1.351-2.151-.187-1.185-1.093-2.146-2.028-2.146h-3.958m-5.205-7.884c-.941 0-1.539.958-1.355 2.149.191 1.187 1.089 2.149 2.034 2.149h7.919c.933 0 1.539-.962 1.354-2.156-.183-1.185-1.093-2.143-2.029-2.143h-3.961m-5.2-7.881c-.942 0-1.545.958-1.354 2.151.183 1.18 1.087 2.146 2.031 2.146h7.914c.938 0 1.545-.967 1.361-2.152-.191-1.188-1.099-2.146-2.037-2.146h-3.958m-5.199-7.887c-.939 0-1.54.961-1.354 2.155.187 1.182 1.091 2.146 2.032 2.146h7.919c.937 0 1.543-.964 1.352-2.152-.181-1.188-1.094-2.149-2.029-2.149h-3.958m-8.937 47.285c-.938.006-1.488.968-1.239 2.152.246 1.185 1.202 2.152 2.138 2.152h7.919c.939 0 1.501-.967 1.251-2.152-.245-1.185-1.208-2.152-2.146-2.152h-3.961m-5.685-7.965c-.942 0-1.491.959-1.242 2.153.247 1.187 1.202 2.149 2.141 2.149h7.919c.939 0 1.491-.962 1.245-2.152-.248-1.19-1.204-2.15-2.142-2.15h-3.963m-5.6-7.878c-.944 0-1.497.956-1.248 2.151.252 1.185 1.199 2.141 2.142 2.141h7.921c.934 0 1.5-.956 1.245-2.149-.246-1.187-1.208-2.143-2.146-2.143h-3.959m-5.608-7.882c-.938 0-1.487.958-1.241 2.148.246 1.185 1.202 2.149 2.141 2.149h7.919c.936 0 1.494-.964 1.245-2.155-.246-1.185-1.202-2.143-2.141-2.143h-3.958m-5.609-7.884c-.938 0-1.494.958-1.242 2.146.243 1.187 1.199 2.152 2.141 2.152h7.919c.936 0 1.494-.965 1.245-2.155-.246-1.185-1.206-2.143-2.146-2.143h-3.958m-5.605-7.884c-.944 0-1.494.958-1.243 2.155.247 1.185 1.2 2.143 2.142 2.143h7.916c.938 0 1.5-.958 1.245-2.15-.246-1.19-1.202-2.148-2.141-2.148h-3.958m-5.61-7.885c-.938 0-1.494.964-1.241 2.151.246 1.185 1.195 2.146 2.141 2.146h7.921c.934 0 1.494-.961 1.243-2.152-.246-1.182-1.208-2.146-2.145-2.146h-3.958m-5.607-7.881c-.941 0-1.491.962-1.242 2.153.246 1.182 1.197 2.146 2.139 2.146h7.919c.936 0 1.497-.964 1.251-2.146-.246-1.19-1.209-2.153-2.145-2.153h-3.961m-5.605-7.885c-.942 0-1.497.959-1.248 2.144.246 1.19 1.202 2.155 2.146 2.155h7.919c.934 0 1.491-.964 1.243-2.155-.247-1.185-1.208-2.144-2.141-2.144h-3.962" fill="#b89c4f" fill-rule="evenodd"/>
</svg>
