<svg xmlns="http://www.w3.org/2000/svg" height="250.74" width="600" viewBox="0 0 158.75 66.342">
    <defs>
        <linearGradient id="a" y2="52.652" gradientUnits="userSpaceOnUse" x2="475.39" gradientTransform="translate(-8.342 -24.651)" y1="52.652" x1="377.83">
            <stop stop-color="#fff" offset="0"/>
            <stop stop-color="#ffdf3f" offset=".305"/>
            <stop stop-color="#fcb433" offset=".552"/>
            <stop stop-color="#f58233" offset="1"/>
        </linearGradient>
    </defs>
    <g fill="#005994">
        <path d="M49.38 60.609h-1.721v5.46h-1.71v-5.46h-1.722v-1.535h5.153zM55.14 66.069h-4.758v-6.995h4.758v1.535H52.1v1.162h2.598v1.535h-2.6v1.228h3.037zm-.866-9.45l-1.162 1.776h-.976l.482-1.776zM61.01 66.069h-4.66v-6.995h1.722v5.46h2.938zM66.77 66.069h-4.758v-6.995h4.758v1.535h-3.037v1.162h2.598v1.535h-2.598v1.228h3.037zm-.866-9.45l-1.162 1.776h-.976l.482-1.776zM73.19 59.074l-2.324 6.995h-1.283l-2.302-6.995h1.776l1.184 3.914 1.151-3.914zM75.61 66.069h-1.721v-6.995h1.721zM81.72 63.931c0 .455-.12.85-.362 1.184-.241.329-.57.581-.987.756-.41.17-.863.253-1.359.253-.578 0-1.083-.066-1.513-.198a2.75 2.75 0 0 1-1.14-.723l1.107-1.097c.176.17.4.294.68.373.285.082.575.12.877.12.671 0 1.009-.21 1.009-.635 0-.176-.05-.31-.143-.406-.096-.093-.25-.156-.46-.186l-.845-.12c-.622-.088-1.09-.297-1.403-.626-.323-.329-.482-.795-.482-1.403 0-.422.101-.803.307-1.14a2.01 2.01 0 0 1 .888-.779c.386-.189.838-.285 1.36-.285.509 0 .959.066 1.348.198.386.131.723.345 1.008.636l-1.074 1.074a1.213 1.213 0 0 0-.592-.329 3.231 3.231 0 0 0-.746-.077c-.27 0-.48.066-.624.198a.588.588 0 0 0-.22.45c0 .125.047.235.143.328.11.104.268.17.482.197l.844.121c.614.088 1.07.282 1.37.581.182.176.313.392.395.647.088.25.132.545.132.888zM84.56 66.069h-1.721v-6.995h1.721zM91.08 62.572v.23c0 .395-.016.735-.044 1.02-.022.28-.085.548-.186.811a1.97 1.97 0 0 1-.472.702c-.257.263-.542.46-.855.592-.315.131-.68.197-1.096.197a3.25 3.25 0 0 1-.778-.088 2.631 2.631 0 0 1-.636-.252 2.403 2.403 0 0 1-.538-.45 2.111 2.111 0 0 1-.592-1.04c-.082-.387-.12-.883-.12-1.492v-.46c0-.606.038-1.102.12-1.491a2.12 2.12 0 0 1 .592-1.053c.264-.263.549-.455.856-.58.307-.132.671-.198 1.096-.198.417 0 .778.066 1.085.197.313.126.603.318.866.581.211.214.368.45.472.713.101.263.164.537.186.822.028.28.044.614.044 1.009zm-1.71 0c0-.592-.022-.998-.066-1.217-.038-.22-.099-.386-.186-.504a.766.766 0 0 0-.285-.22.963.963 0 0 0-.406-.087c-.154 0-.29.03-.406.088a.868.868 0 0 0-.285.219.837.837 0 0 0-.142.274c-.039.11-.066.28-.088.504-.016.22-.022.535-.022.943 0 .411.006.73.022.954.022.22.05.384.088.493a.804.804 0 0 0 .142.263c.16.214.39.318.69.318.291 0 .522-.104.692-.318.087-.123.148-.29.186-.504.044-.211.066-.614.066-1.206zM97.73 66.069h-1.502l-2.247-3.52v3.52h-1.722v-6.995h1.513l2.237 3.52v-3.52h1.721zM106.41 63.843c-.066.373-.18.707-.34.998a2.28 2.28 0 0 1-1.381 1.15 3.231 3.231 0 0 1-.932.132c-.784 0-1.43-.263-1.94-.789a2.111 2.111 0 0 1-.593-1.041c-.082-.387-.12-.883-.12-1.491v-.46c0-.606.038-1.102.12-1.491a2.12 2.12 0 0 1 .592-1.053c.255-.263.54-.455.855-.581a2.779 2.779 0 0 1 1.086-.197c.342 0 .66.049.954.142.29.096.55.239.778.428.233.183.428.422.581.712.16.285.274.62.34.998h-1.754a1.216 1.216 0 0 0-.296-.548c-.132-.137-.33-.208-.592-.208-.154 0-.29.03-.406.087a.775.775 0 0 0-.274.209.995.995 0 0 0-.142.285 2.133 2.133 0 0 0-.088.482c-.022.22-.033.543-.033.965 0 .564.016.962.055 1.195.044.227.112.405.208.537.154.197.378.296.68.296.255 0 .452-.069.592-.208.137-.137.236-.321.296-.549zM113.02 66.069h-1.798l-.318-1.042h-2.16l-.34 1.042h-1.798l2.544-6.995h1.326zm-2.576-2.478l-.581-1.863-.636 1.863zM118.47 60.609h-1.721v5.46h-1.71v-5.46h-1.722v-1.535h5.153zM124.74 66.069h-1.721v-2.774h-1.831v2.774h-1.721v-6.995h1.72v2.697h1.832v-2.697h1.721zM131.24 62.572v.23c0 .395-.016.735-.044 1.02-.022.28-.085.548-.186.811a1.97 1.97 0 0 1-.472.702c-.257.263-.542.46-.855.592-.315.131-.68.197-1.096.197a3.25 3.25 0 0 1-.778-.088 2.631 2.631 0 0 1-.636-.252 2.403 2.403 0 0 1-.538-.45 2.111 2.111 0 0 1-.592-1.04c-.082-.387-.12-.883-.12-1.492v-.46c0-.606.038-1.102.12-1.491a2.12 2.12 0 0 1 .592-1.053c.264-.263.549-.455.856-.58.307-.132.671-.198 1.096-.198.417 0 .778.066 1.085.197.313.126.603.318.866.581.211.214.368.45.472.713.101.263.164.537.186.822.028.28.044.614.044 1.009zm-1.71 0c0-.592-.022-.998-.066-1.217-.038-.22-.099-.386-.186-.504a.766.766 0 0 0-.285-.22.963.963 0 0 0-.406-.087c-.154 0-.29.03-.406.088a.868.868 0 0 0-.285.219.835.835 0 0 0-.142.274c-.039.11-.066.28-.088.504-.016.22-.022.535-.022.943 0 .411.006.73.022.954.022.22.05.384.088.493a.805.805 0 0 0 .142.263c.16.214.39.318.69.318.291 0 .522-.104.692-.318.087-.123.148-.29.186-.504.044-.211.066-.614.066-1.206zM137.09 66.069h-4.66v-6.995h1.722v5.46h2.938zM139.81 66.069h-1.721v-6.995h1.721zM146.43 65.466l-.866.877-.548-.537c-.368.214-.817.318-1.349.318a3.25 3.25 0 0 1-.778-.088 2.631 2.631 0 0 1-.636-.252 2.403 2.403 0 0 1-.537-.45 2.111 2.111 0 0 1-.592-1.041c-.083-.387-.12-.883-.12-1.491v-.46c0-.606.037-1.102.12-1.492a2.12 2.12 0 0 1 .592-1.052c.263-.263.548-.455.855-.581.307-.132.671-.197 1.096-.197.417 0 .779.065 1.086.197.312.126.603.318.866.581.21.214.367.45.471.713.102.263.165.537.187.822.027.28.043.614.043 1.008v.23c0 .39-.008.708-.022.955-.008.24-.04.49-.098.745-.06.25-.151.48-.274.69zm-1.82-2.894c0-.592-.022-.998-.066-1.217-.038-.22-.098-.387-.186-.505a.766.766 0 0 0-.285-.219.963.963 0 0 0-.406-.087.868.868 0 0 0-.69.307.837.837 0 0 0-.143.274c-.038.11-.066.28-.088.504-.016.22-.021.534-.021.943 0 .41.006.729.021.954.022.219.05.383.088.493a.805.805 0 0 0 .143.263c.159.214.389.318.69.318a.542.542 0 0 0 .132-.011l-.439-.439.877-.888.33.34c.027-.312.043-.658.043-1.03zM152.71 63.613c0 .367-.071.707-.208 1.02a2.404 2.404 0 0 1-1.437 1.315 2.954 2.954 0 0 1-1.02.176c-.476 0-.917-.102-1.326-.307a2.379 2.379 0 0 1-.965-.888c-.235-.379-.35-.817-.35-1.316v-4.539h1.71v4.495c0 .324.082.576.252.757.167.183.395.274.68.274.18 0 .345-.039.493-.12a.77.77 0 0 0 .33-.352c.079-.153.12-.34.12-.559v-4.495h1.721zM158.75 66.069h-4.758v-6.995h4.758v1.535h-3.037v1.162h2.598v1.535h-2.598v1.228h3.037zM99.69 20.898c-2.084-6.668-8.883-11.13-17.321-11.366l-.432-.007h-25.83c.194-1.114.772-4.403.772-4.403l.9-5.114L56.997 0h-4.964s-1.53 8.708-1.674 9.525h-6.96c-1.717-.008-3.806-.019-5.78 2.028l-14.15 15.16c.951-5.164 3.04-16.239 3.065-16.372l.146-.777h-5.833L14.455 44.5l.941-.073c1.882-.133 3.272-.568 4.018-1.252.711-.646 1.238-1.812 1.428-2.621l.787-3.632c.094-.47.198-.82.77-1.47l3.693-3.764 7.802 12.724h6.288L29.854 27.57l1.043-1.095 8.842-9.285c2.05-2.162 2.05-2.162 4.52-2.16 0 0 3.687-.004 5.133-.004-1.548 8.665-5.459 28.418-5.5 28.622l-.155.783h5.89l.099-.536c.202-1.086 4.62-24.916 5.347-28.87h10.555c-5.01 3.898-7.886 9.258-7.886 14.537 0 1.429.21 2.849.642 4.233 2.858 9.16 14.45 13.717 25.836 10.161 6.29-1.964 11.453-6.058 14.163-11.232 2.017-3.85 2.48-8.05 1.3-11.826m-17.35 17.805c-7.994 2.496-16.097-.588-18.06-6.876-1.962-6.29 2.943-13.437 10.934-15.933 7.99-2.495 16.093.59 18.062 6.876 1.962 6.288-2.943 13.437-10.937 15.933"/>
    </g>
    <path d="M369.49 25.766v4.47h97.557v-4.47z" fill="url(#a)" transform="translate(-369.49 22.753)"/>
</svg>
