<svg width="800" height="94.913" fill="none" version="1.1" viewBox="0 0 800 94.913" xmlns="http://www.w3.org/2000/svg">
 <g transform="matrix(.65866 0 0 .65866 -.33927 -.3952)" fill="#fff">
  <path d="m44 31.8c0-22.5 2-23.1 12.5-24.4l3.8-0.6c1.6-1.1 1.3-5.3-0.4-6.1-8.7 0.4-18.7 0.59998-28.5 0.59998-10.2 0-20.2-0.19998-29.4-0.59998-1.8 0.8-2 4.7-0.39999 6.1l4.2 0.6c10.5 1.3 12.5 1.9 12.5 24.4v78.8c0 22.5-2 23.1-12.5 24.6l-3.1 0.4c-1.6 1.1-1.3 5.3 0.4 6.1 8-0.4 18.5-0.6 28.3-0.6s19.8 0.2 30.3 0.6c1.8-0.8 1.9999-5.1 0.3999-6.1l-5.6-0.6c-10.5-1.3-12.5-1.9-12.5-24.4v-26.9c0-6.1-0.4-11.2 5.1-11.2 2 0 3.8 1.7 5.3 3.2 8.2 8.1 34.7 42.4 44 53.4 2.5 3 2 5.1-1.6 5.7l-6 0.8c-2 1.1-1.9999 5.3 0.4001 6.1 9.7999-0.4 19.8-0.6 30.7-0.6 11.8 0 20.7 0.2 28.5 0.6 1.8-0.6 2-5.1 0.4-6.1l-5.3-0.6c-6.7-0.9-11.8-2.8-16.5-8.1-16-17.8-37.2-43-54.7-65.1-2.4-3.2-2-4.4 0.7-7 8.7-8.3 17.6-17 27.2-26.1 15.4-14.2 21.4-19.3 42.1-22 2.2-1.1 1.8-5.5-0.7-6.1-8 0.2-14.9 0.6-24.5 0.6-8.2 0-15.6-0.2-24.9-0.6-1.8 1.7-2.2001 4.7-0.4001 6.1l6.9 1.9c2.7 0.6 2.4 2.3-1.5999 7.2-2.7 3.4-9.1 10.4-12 13.1l-22.7 23.3c-7.3 7.6-12.5 12.5-16.7 12.5-3.6 0-3.8001-3.8-3.8001-9.5v-23.4h0.1zm152.9 53.9c0 21.4 4.7 36.3 14.7 45.4 10.2 9.3 24.9 13.6 45.8 13.6 15.4 0 32-4 43.6-15.9s14.7-29.7 14.7-48.9v-25.2c0-16.8 0-35.4 3.1-41.8 1.6-3.4 5.6-4.2 9.8-5.1l4.9-1.1c1.8-1.5 1.3-4.9-0.5-5.9-8.2 0.4-14.2 0.6-23.6 0.6-8.7 0-17.1-0.2-24.7-0.6-2.2 0.6-2.4 4.4-0.4 5.9l4.5 0.59998c5.6 0.8 9.1 2.3 11.1 5.5 4 6.1 4.2 25.9 4.2 41.8v26.4c0 32.2-12 53.2-41.2 53.2-30.9 0-40.3-24.6-40.3-53.8v-48.5c0-22.5 2-23.1 12.5-24.6l4.9-0.59998c1.6-1.5 1.3-5.1-0.4-5.9-9.8 0.4-19.8 0.6-29.8 0.6-9.8 0-19.8-0.2-28.7-0.6-1.8 0.8-2 4.4-0.4 5.9l3.8 0.59998c10.5 1.5 12.5 2.1 12.5 24.6v53.8h-0.1zm190.2 25c0 22.5-2 23.1-12.5 24.4l-4.9 0.6c-2 1.5-1.3 5.3 0.4 6.1 10.2-0.4 20.2-0.6 30-0.6s19.8 0.2 29.6 0.6c1.8-0.8 2-4.7 0.4-6.1l-4.9-0.6c-10.5-1.3-12.5-1.9-12.5-24.4v-27.1c0-4.5 0.2-4.6999 6.9-4.6999 7.3 0 9.8 0.8999 13.8 7.1999 5.4 8.3 11.6 19.9 17.6 28.8 13.6 19.7 25.1 28 46.5 28 7.8 0 12-0.6 14.7-1.3 0.7-1.1 0.7-3.4-0.4-4.2-2.7-0.2-9.1-1.5-15.4-6.6-10.5-8.3-21.6-26.3-39.4-54.9-0.9-1.3-1.3-3 0-3.6 10.9-4.2 26.7-14 26.7-33.5 0-15.3-8.2-25.2-19.6-30.9-9.8-5.1-24.9-7.2-42.3-7.2-18.2 0-37.2 0.6-51.2 1.9-1.8 1.1-1.8 4.4-0.2 5.9l5.8 0.60001c10.5 1.1 10.7 3.6 10.7 23.9v77.7h0.2zm25.8-91.1c0-9.8 0.2-10.4 11.8-10.4 19.4 0 30.7 14.6 30.7 31.4 0 20.1-10 30.3-31.8 30.3-10.7 0-10.7-0.4-10.7-7.2zm178.3 12.2c0-22.5 2-23.1 12.5-24.4l4.9-0.6c1.6-1.5 1.3-5.3-0.4-6.1-9.8 0.4-19.8 0.59998-29.6 0.59998-10.2 0-20.3-0.19998-30-0.59998-1.8 0.8-2 4.7-0.4 6.1l4.9 0.6c10.4 1.3 12.5 1.9 12.5 24.4v78.8c0 22.5-2 23.1-12.5 24.4l-4.9 0.6c-1.6 1.5-1.3 5.3 0.4 6.1 9.8-0.4 20.2-0.6 30-0.6s19.8 0.2 29.6 0.6c1.8-0.8 2-4.7 0.4-6.1l-4.9-0.6c-10.5-1.3-12.5-1.9-12.5-24.4zm85.2 78.9c0 22.5-2 23.1-12.5 24.2l-8.2 0.8c-1.6 1.5-1.3 5.3 0.4 6.1 10-0.4 23.6-0.6 33.4-0.6h25.4c26 0 45.2 0.2 55 0.6 3.1-5.7 8-21.8 9.3-30.7-1.3-2.1-5.1-2.8-7.1-1.3-7.8 17.2-12.7 23.3-40.9 22.9-18.7 0-22.5-1.7-25.1-4.7-3.3-3.6-3.8-11.2-3.8-22v-26.9c0-5.3 0.2-5.6999 5.4-5.6999h10.7c19.4 0 23.1 0.4 24.7 9.3l1.6 8.5c1.8 1.3 6 1.3 7.1-0.2-0.2-6.8-0.7-14.2-0.7-22.2 0-7.8 0.4-15.5 0.7-21.2-1.1-1.7-5.3-1.6999-7.1-0.1999l-1.6 7.1999c-1.6 9.1-5.3 9.3001-24.7 9.3001h-10.7c-5.1 0-5.4-0.2-5.4-5.7v-35.8c0-12.1 0-12.5 9.6-12.5h14.9c6 0 12.7 0.40004 17.8 1.9 7.1 1.7 10.5 7 14 19.3 1.8 1.3 6.2 0.8 7.1-0.8-1.3-9.1-2.7-25.9-3.6-29.5-2.9 0.4-15.8 0.6-30 0.6h-42.5c-9.8 0-20.3-0.2-28.7-0.6-1.8 0.8-2 4.7-0.5 6.1l3.6 0.4c10.5 1.5 12.5 2.1 12.5 24.6v78.8h-0.1zm161.3 0c0 22.5-2 23.1-12.5 24.4l-4.9 0.6c-2 1.5-1.3 5.3 0.5 6.1 10.2-0.4 20.3-0.6 30-0.6 9.8 0 19.8 0.2 29.6 0.6 1.8-0.8 2-4.7 0.4-6.1l-4.9-0.6c-10.5-1.3-12.5-1.9-12.5-24.4v-27.1c0-4.5 0.2-4.6999 6.9-4.6999 7.3 0 9.8 0.8999 13.8 7.1999 5.3 8.3 11.6 19.9 17.6 28.8 13.6 19.7 25.1 28 46.5 28 7.8 0 12-0.6 14.7-1.3 0.7-1.1 0.7-3.4-0.4-4.2-2.7-0.2-9.1-1.5-15.3-6.6-10.5-8.3-21.6-26.3-39.4-54.9-0.9-1.3-1.3-3 0-3.6 10.9-4.2 26.7-14 26.7-33.5 0-15.3-8.2-25.2-19.6-30.9-9.8-5.1-24.9-7.2-42.3-7.2-18.2 0-37.2 0.6-51.2 1.9-1.8 1.1-1.8 4.4-0.2 5.9l5.8 0.60001c10.5 1.1 10.7 3.6 10.7 23.9v77.7zm25.8-91.1c0-9.8 0.2-10.4 11.8-10.4 19.4 0 30.7 14.6 30.7 31.4 0 20.1-10 30.3-31.8 30.3-10.7 0-10.7-0.4-10.7-7.2z"/>
  <path d="m987.3 6.6h42.9l-8 20.8h-34.9zm61.6 0h63.5l-5.7 20.8h-45.2v110.3h-20.6v-110.4z"/>
  <path d="m1141.9 91.9-11.2 29.3-37.7-110.9 19.5-3.7zm73.2-85.7-50.4 131.4h-21.5l50.6-131.4z"/>
 </g>
</svg>
