<svg enable-background="new 0 0 50 37.21" version="1.1" viewBox="0 0 800 623.72" xml:space="preserve" xmlns="http://www.w3.org/2000/svg" xmlns:xlink="http://www.w3.org/1999/xlink">
<g transform="matrix(16.8 0 0 16.8 -19.992 -1.3776)">
<defs>
<rect id="b" width="50" height="37.209"/>
</defs>
<clipPath id="a">
<use overflow="visible" xlink:href="#b"/>
</clipPath>
<g clip-path="url(#a)">
<path d="m37.227 37.23h-12.101v-19.361h12.101z" fill="#424143"/>
<path d="m24.872 37.23h-12.099v-19.361h12.099z" fill="#424143"/>
<path d="m24.872 26.34h-12.099v-8.471h12.099z" fill="#383939"/>
<path d="m37.227 26.34h-12.101v-8.471h12.101z" fill="#383939"/>
<path d="m13.723 26.34h-0.95v-8.511h0.95z" fill="#e7e7e7"/>
<path d="m37.226 26.34h-0.951v-8.511h0.951z" fill="#e7e7e7"/>
<path d="m19.746 26.581h-6.973v-0.241h6.973z" fill="#010101"/>
<path d="m24.873 26.581h-4.84v-0.241h4.84z" fill="#010101"/>
<path d="m19.82 26.823h-7.046v-0.242h7.046z" fill="#595a5c"/>
<path d="m24.872 26.823h-4.566v-0.242h4.566z" fill="#595a5c"/>
<path d="m31.394 26.581h-6.269v-0.241h6.269z" fill="#010101"/>
<path d="m37.226 26.581h-6.204v-0.241h6.204z" fill="#010101"/>
<path d="m31.802 26.823h-6.677v-0.242h6.677z" fill="#595a5c"/>
<path d="m37.227 26.823h-6.004v-0.242h6.004z" fill="#595a5c"/>
<path d="m24.873 37.23h0.252v-19.361h-0.252z" fill="#010101"/>
<path d="m1.19 4.45v15.137l1.429-1.918 1.429-0.921v-14.078z" fill="#010101"/>
<path d="m48.81 16.088v-15.137l-1.43 1.919-1.428 0.92v14.079z" fill="#010101"/>
<path d="m35.208 16.165h-31.16v-13.495h31.16z" fill="#010101"/>
<path d="m14.792 4.374h31.16v13.496h-31.16z" fill="#010101"/>
<path d="m4.048 7.9 41.904-4.867v9.609l-41.904 4.866z" fill="#dcddde"/>
<path d="m2.619 5.293 44.76-5.185v15.138l-44.76 5.185z" fill="#e7e7e7"/>
<path d="m24.999 2.7-22.38 2.593v15.137l22.38-2.591z" fill="#e7e7e7"/>
<path d="m2.619 20.43-1.429-0.843v-15.136l1.429 0.843z" fill="#e7e7e7"/>
<path d="m47.38 0.108 1.43 0.843v15.137l-1.43-0.842z" fill="#e7e7e7"/>
<path d="m48.81 1.835-1.43-0.841-44.761 5.183-1.429-0.842v-0.912l1.429 0.843 44.761-5.184 1.43 0.842z" fill="#424143"/>
<path d="m2.619 6.177v-0.911l-1.429-0.815v0.885z" fill="#595a5c"/>
<path d="m2.619 20.432v-0.914l-1.429-0.815v0.884z" fill="#595a5c"/>
<path d="m47.38 14.334v0.913l1.43 0.841v-0.878z" fill="#595a5c"/>
<path d="m47.38 0.082v0.912l1.43 0.841v-0.911z" fill="#595a5c"/>
<path d="m24.999 3.586v-0.916l22.38-2.588v0.912z" fill="#424143"/>
<path d="m24.999 17.869v-0.917l22.38-2.619v0.913z" fill="#424143"/>
<path d="m13.723 37.23h-0.95v-10.407h0.95z" fill="#e7e7e7"/>
<path d="m37.226 26.581h-0.951v0.242h0.951z" fill="#fff"/>
<path d="m13.723 26.581h-0.95v0.242h0.95z" fill="#fff"/>
<path d="m37.226 26.34h-0.951v0.241h0.951z" fill="#d2d3d4"/>
<path d="m13.723 26.34h-0.95v0.241h0.95z" fill="#d2d3d4"/>
<path d="m37.226 37.23h-0.951v-10.407h0.951z" fill="#e7e7e7"/>
<path d="m12.773 36.318h12.099v0.912h-12.099z" fill="#e7e7e7"/>
<path d="m25.126 36.318h12.101v0.912h-12.101z" fill="#e7e7e7"/>
<path d="m2.619 19.518 22.38-2.565v0.916l-22.38 2.563z" fill="#424143"/>
<path d="m2.619 5.266 22.38-2.596v0.916l-22.38 2.591z" fill="#424143"/>
<path d="m2.829 4.987 22.17-2.317-22.38 2.596-1.429-0.816 2.858-1.78h15.994l-15.826 0.351-2.311 1.413z" fill="#6e6f72"/>
<path d="m20.815 21.748h2.031v-1.935h-6.05v1.935h2.002v11.602h2.017z" fill="#e7e7e7"/>
<path d="m29.63 6.483 1.448-0.168-0.324 7.949 0.324 0.278 1.45-0.169v-8.226l1.45-0.169v-1.371l-0.328-0.279-4.02 0.785-0.326 1.092z" fill="#bbbdbf"/>
<path d="m45.859 11.445v1.371l-1.448 0.168-1.449 0.169-1.45 0.167-0.323-0.28 0.323-1.091v-8.226l1.124-0.446 0.326 0.278v8.227l1.449-0.169 1.124-0.448z" fill="#bbbdbf"/>
<path d="m4.263 8.059-0.325 9.317 0.325 0.281 1.45-0.17v-9.597l-0.326-0.28z" fill="#bbbdbf"/>
<path d="m7.524 7.68-1.812 5.01 1.484 4.309 0.327 0.28 1.544-0.179-1.81-4.59 1.812-5.009-0.326-0.281z" fill="#bbbdbf"/>
<path d="m19.943 5.919-1.141 0.452-0.38 0.043-1.896 9.501 0.326 0.281 1.466-0.17 0.225-1.398 1.604-0.186-0.101 1.064 0.326 0.28 1.466-0.17-1.57-9.416zm-1.175 7.31 0.414-3.475 0.15-2.074 0.026-3e-3 0.151 2.039 0.414 3.381z" fill="#bbbdbf"/>
<path d="m13.265 13.192-0.151 2.075-0.026 2e-3 -0.15-2.039-0.863-6.07-0.326-0.28-1.141 0.45 1.246 9.136 0.325 0.279 0.379-0.045 1.086-0.126 0.38-0.043 1.57-9.782-0.327-0.28-1.14 0.451z" fill="#bbbdbf"/>
<path d="m37.794 3.847-1.139 0.45-0.381 0.044-1.894 9.501 0.323 0.279 1.466-0.17 0.226-1.396 1.605-0.187-0.1 1.064 0.324 0.281 1.467-0.169-1.571-9.417zm-1.175 7.31 0.413-3.477 0.152-2.075 0.024-3e-3 0.152 2.04 0.415 3.38z" fill="#bbbdbf"/>
<path d="m28.181 14.872v-3.764c0-0.558-0.521-1.113-1.016-1.152-0.071-5e-3 4e-3 0.242-0.071 0.25 0.601-0.069 1.087-0.586 1.087-1.154v-2.743c0-0.6-0.7-1.255-1.3-1.186l-3.049 0.663-0.326 9.318 0.326 0.279 1.45-0.17v-4.112l1.448-0.168v0.343l-0.324 3.498 0.324 0.28zm-1.451-5.309-1.448 0.169v-2.743l1.448-0.168z" fill="#bbbdbf"/>
<path d="m29.304 6.203 1.449-0.167v8.227l1.451-0.169v-8.227l1.448-0.168v-1.372l-4.349 0.505v1.371z" fill="#221f20"/>
<path d="m44.086 11.332-1.449 0.169v-8.227l-1.449 0.168v9.598l1.449-0.168 1.449-0.169 1.449-0.168v-1.372" fill="#221f20"/>
<path d="m3.938 7.778v9.598l1.449-0.169v-9.597z" fill="#221f20"/>
<path d="m7.198 7.399-1.812 5.01 1.81 4.589 1.545-0.179-1.812-4.59 1.812-5.009z" fill="#221f20"/>
<path d="m19.563 5.964-1.086 0.126-0.38 0.044-1.57 9.782 1.466-0.17 0.225-1.398 1.604-0.186 0.225 1.344 1.466-0.171-1.57-9.416zm-1.121 6.985 0.414-3.476 0.152-2.074 0.025-3e-3 0.15 2.039 0.415 3.381z" fill="#221f20"/>
<path d="m12.941 12.912-0.15 2.075-0.025 2e-3 -0.15-2.039-0.866-6.069-1.465 0.169 1.57 9.417 0.379-0.045 1.086-0.127 0.38-0.042 1.568-9.782-1.465 0.17z" fill="#221f20"/>
<path d="m37.416 3.891-1.087 0.126-0.38 0.043-1.569 9.78 1.467-0.17 0.223-1.397 1.605-0.188 0.225 1.345 1.466-0.169-1.57-9.416zm-1.122 6.984 0.413-3.475 0.152-2.074 0.025-3e-3 0.15 2.04 0.415 3.38z" fill="#221f20"/>
<path d="m27.854 14.591v-3.763c0-0.568-0.485-0.972-1.087-0.902 0.602-0.069 1.087-0.585 1.087-1.154v-2.743c0-0.566-0.485-0.971-1.087-0.902l-3.261 0.378-1e-3 9.599 1.45-0.171v-4.112l1.45-0.169v4.121zm-1.448-5.309-1.45 0.17v-2.743l1.45-0.168z" fill="#221f20"/>
<path d="m29.304 6.203 1.449-0.167v8.227l1.451-0.169v-8.227l1.448-0.168v-1.372l-4.349 0.505v1.371z" fill="#5a5c5e"/>
<path d="m42.637 11.501v-8.227l-1.449 0.168v9.598l1.449-0.168 1.449-0.169 1.449-0.168v-1.372z" fill="#5a5c5e"/>
<path d="m3.938 7.778v9.598l1.449-0.169v-9.597z" fill="#5a5c5e"/>
<path d="m7.198 7.399-1.812 5.01 1.81 4.589 1.545-0.179-1.812-4.59 1.812-5.009z" fill="#5a5c5e"/>
<path d="m19.563 5.964-1.086 0.126-0.38 0.044-1.57 9.782 1.466-0.17 0.225-1.398 1.604-0.186 0.225 1.344 1.466-0.171-1.57-9.416zm-1.121 6.985 0.414-3.476 0.152-2.074 0.025-3e-3 0.15 2.039 0.415 3.381z" fill="#5a5c5e"/>
<path d="m12.941 12.912-0.15 2.075-0.025 2e-3 -0.15-2.039-0.866-6.069-1.465 0.169 1.57 9.417 0.379-0.045 1.086-0.127 0.38-0.042 1.568-9.782-1.465 0.17z" fill="#5a5c5e"/>
<path d="m37.416 3.891-1.087 0.126-0.38 0.043-1.569 9.78 1.467-0.17 0.223-1.397 1.605-0.188 0.225 1.345 1.466-0.169-1.57-9.416zm-1.122 6.984 0.413-3.475 0.152-2.074 0.025-3e-3 0.15 2.04 0.415 3.38z" fill="#5a5c5e"/>
<path d="m27.854 14.591v-3.763c0-0.568-0.485-0.972-1.087-0.902 0.602-0.069 1.087-0.585 1.087-1.154v-2.743c0-0.566-0.485-0.971-1.087-0.902l-3.261 0.378-1e-3 9.599 1.45-0.171v-4.112l1.45-0.169v4.121zm-1.448-5.309-1.45 0.17v-2.743l1.45-0.168z" fill="#5a5c5e"/>
<path d="m30.754 14.262 0.726-0.771v-8.225l-0.726 0.77z" fill="#5a5c5e"/>
<path d="m29.304 6.203 0.725-0.77 1.451-0.167 1.449-0.168 0.724-0.771-4.349 0.505z" fill="#5a5c5e"/>
<path d="m3.938 7.778v9.598l0.724-0.77v-8.226l0.725-0.77z" fill="#5a5c5e"/>
<path d="m26.767 5.126-3.26 0.38-1e-3 9.599 0.725-0.77v-8.228l2.536-0.294c0.102-0.011 0.192 0.016 0.257 0.071l-0.617 0.658v2.736l-1.451 0.169-0.725 0.77 2.536-0.295c0.102-0.013 0.192-0.06 0.257-0.129 0.066-0.07 0.105-0.16 0.105-0.256v-3.423c0-0.095-0.039-0.176-0.105-0.23l0.513-0.544c-0.198-0.164-0.471-0.248-0.77-0.214z" fill="#5a5c5e"/>
<path d="m7.198 7.399h-2e-3l-1.81 5.01 1.81 4.589 0.529-0.749-1.551-3.932 1.551-4.294 1.016-0.803-0.757 0.088z" fill="#5a5c5e"/>
<path d="m18.097 6.132-1.57 9.782 0.854-0.785 1.339-8.393 0.603-0.069 0.62-0.749z" fill="#5a5c5e"/>
<path d="m19.822 14.161 0.226 1.345 0.612-0.756-0.243-1.343z" fill="#5a5c5e"/>
<path d="m19.03 7.396 0.151 2.039 0.414 3.381-0.277 0.032-0.598 0.07-0.28 0.031-0.818 0.781 0.755-0.088 1.283-0.148 0.755-0.088-1.094-6.738z" fill="#5a5c5e"/>
<path d="m35.946 4.06-1.569 9.781 0.854-0.785 1.34-8.392 0.602-0.071 0.62-0.747z" fill="#5a5c5e"/>
<path d="m37.673 12.087 0.225 1.345 0.613-0.756-0.243-1.343z" fill="#5a5c5e"/>
<path d="m36.884 5.322 0.15 2.04 0.416 3.38-0.28 0.032-0.599 0.07-0.279 0.032-0.819 0.781 0.756-0.087 1.284-0.148 0.754-0.088-1.094-6.738z" fill="#5a5c5e"/>
<path d="m13.167 15.698 1.272-8.544 0.83-0.681-1.465 0.17-0.864 6.27-0.15 2.075zm-0.842 0.104-1.127-8.214 0.552-0.707-1.465 0.17 1.57 9.417z" fill="#5a5c5e"/>
<path d="m41.925 12.322 0.714-0.82 2.898-0.338-0.768 0.805z" fill="#5a5c5e"/>
<path d="m41.92 12.299-0.014-8.335 0.73-0.69-1.449 0.168v9.598z" fill="#5a5c5e"/>
<path d="m26.406 10.654 0.741 0.451v2.929l-0.741 0.74z" fill="#5a5c5e"/>
<path d="m13.167 15.698-0.842 0.104 0.44-0.813 0.026-3e-3z" fill="#5a5c5e"/>
<path d="m29.149 33.35h2.017l2.03-13.536h-2.03l-0.995 8.476-1.021-8.476h-2.002z" fill="#e7e7e7"/>
</g>
</g>
</svg>
