<svg width="600pt" height="219.03pt" version="1.1" viewBox="0 0 600 219.03" xmlns="http://www.w3.org/2000/svg">
 <g transform="matrix(.7163 0 0 .7163 -136.23 -130.56)">
  <path transform="matrix(.75 0 0 .75 190.19 182.28)" d="m610.37 0c-3.1429 0.0077083-6.2919 0.41023-9.3652 1.2402-14.56 3.84-25.532 15.453-32.932 28.066-12 20.827-22.401 42.507-32.654 64.227-13.493-29.307-33.974-56.453-62.32-72.693-21.56-12.747-47.413-17.359-72.146-14.025-30.28 3.76-58.279 18.533-81.186 38.307-31.427 27.16-55.214 62.838-69.107 101.93-30.2-11.96-65.121-12.678-95.268-0.1582 6.4533-33.88 5.0815-69.268-4.1719-102.51-4.16-15.067-11.788-30.346-25.668-38.586-11.627-7.4933-27.253-7.5874-39.199-0.80078-12.867 6.88-21.281 19.426-27.947 31.986-22.293 41.387-42.853 84.44-52.68 130.69-7.48 35.64-8.2533 73.215 1.3867 108.52 10.613 39.027 35.214 73.879 68.027 97.439 40.88 29.813 95.374 40.427 144.24 26.84 23.173-6.2667 44.599-18.453 62.105-34.826 10.853 13.187 24.76 24.172 40.92 30.012 14.213 5.2267 30.2 6.5337 44.773 2.0137 17.92-6.1333 31.227-21.799 37.773-39.199 15.173 18.76 35.173 35.426 59.387 40.279 17.4 3.8 35.933-1.9066 49.359-13.307 14.693-12.107 23.694-29.519 30.027-47.133 20.787 26.72 49.294 47.454 81.32 58.547 47.387 16.56 102.91 11.6 144.6-17.24 8.6133 8.8 19.334 15.854 31.428 18.707 13.853 3.52 28.612 0.77318 41.412-5.1602 16.667-7.8 30.72-20.348 42.213-34.574 6.1467 15.853 17.627 30.161 33.307 37.348 13.12 5.6933 28.174 5.4924 41.867 2.0391 10.533 12.307 32.334 13.374 43.014 0.7207 4.1466-4.56 5.2404-10.8 6.4004-16.627 4.76 7.0533 9.8399 14.24 17.226 18.787 10.947 7.36 26.267 7.1458 37.174-0.1875 10.707-6.8667 17.947-17.6 25.547-27.533 13.267-17.773 24.212-38.106 27.172-60.346 1.3067-10.64 0.1471-23.095-8.5996-30.441-8.8-7.7734-23.093-5.8533-30.893 2.3867-13.16 14.587-20.135 33.281-27.441 51.201-2.1333-8.8133-4.013-17.693-6.293-26.467l-2.1054-7.5 2.2519-7.8594c6.2134-21.587 9.4543-44.067 9.3477-66.533 0.48-44.467-12.494-88.747-35.627-126.61-18.947-30.733-44.414-58.095-75.867-76.229-21.413-12.24-46-19.492-70.76-18.879-21.373 0.12-42.48 7.0929-60.213 18.906-18.813 12.413-34.04 29.748-45.533 49.041-12.533 20.893-20.881 43.987-27.361 67.387-25.347-5.8267-52.573-4.3216-76.68 5.7051 6.2133-31.773 5.2411-64.88-2.4922-96.293-3.6667-15.093-9.4274-30.76-21.801-40.906-7.16-6.2-16.54-9.7302-25.969-9.707zm-207.67 68.738c6.7277-0.06066 13.477 1.4704 19.545 4.3945 11.293 5.4667 19.415 16.614 21.828 28.854 1.7867 10.28-0.76057 20.774-5.2539 30.014-4.6533 9.5733-11.081 18.094-17.641 26.414-10.027 12.707-19.905 25.52-29.639 38.453-0.89333 0.89333-1.4535 2.4129-2.8535 2.5996-11.907-19.747-23.282-40.36-28.295-63.08-2.5867-12.107-3.2796-25.026 0.78711-36.893 4.8933-14.48 17.428-26.281 32.428-29.668 2.9833-0.70417 6.0357-1.0603 9.0937-1.0879zm484.69 0.0078c5.1224 0.08921 10.223 1.0811 14.967 3.0273 14.347 5.7333 25.213 19.214 27.906 34.414 2.4533 12 0.66687 24.44-2.4531 36.146-5.5733 20.64-16.2 39.401-27.066 57.641-9.48-11.893-18.467-24.173-27.934-36.08-10.013-12.787-20.84-25.642-25.68-41.455-3.9733-12.547-2.1739-27.053 6.1328-37.506 7.8008-10.743 21.036-16.415 34.127-16.188z" fill="#fff" stroke-width="1.3333"/>
 </g>
 <g transform="matrix(.7163 0 0 .7163 -136.23 -130.56)" fill="#fad405">
  <path d="m930.21 354.92c4.7595-0.0365 9.5187 0.47023 14.271 0.76747 5.96 0.58 12.92 2.02 16.11 7.71 4.37 6.52 0.66 15.83-6.25 18.84-9.3 3.96-19.64 2.16-29.44 2.46-2.63 0.48-1.99 3.82-1.55 5.74 3.2 14.84 7.77 29.33 12.02 43.89 2.88 10.18 7.57 19.94 8.56 30.59 0.55 5.44-0.57 11.43-4.49 15.48-4.34 4.42-11.22 5.71-17.06 4.03-5.68-1.34-10.54-5.17-13.68-10.02-3.96-6.04-5.48-13.32-5.96-20.43-1.11-18.36-0.77-36.81 1.12-55.1 0.51-3.95 1.07-7.9 1.03-11.89-4.73 0.64-9.2 2.49-13.95 3.05-8.63 1.19-18.05 1.27-25.82-3.21-4.13-2.29-7.34-7.08-6.12-11.93 1.19-6.74 6.87-11.65 13.07-13.88 5.5844-2.0761 11.413-3.0906 17.313-3.6548 13.803-1.1785 28.054-2.321 40.826-2.4427z"/>
  <path d="m952.33 392.66c3.33-1.01 7.21-0.23 9.58 2.42 4.4 4.91 5.29 11.72 7.16 17.81 2.9 9.8 4.75 19.86 6.75 29.86 0.49507 1.9508 1.5007 1.2909 2.07-0.66 4.42-12.89 10.02-25.4 16.94-37.16 2.52-4.05 5.46-8.14 9.75-10.45 6.07-3.25 14.22-0.36 17.56 5.48 2.77 4.71 2.93 10.42 2.47 15.72-1.43 13.98-7.75 26.91-15.45 38.47-6.17 9.22-12.22 19.03-21.48 25.49-7.11 5.05-17.05 5.64-24.71 1.48-8.6-4.36-13.52-13.32-17.11-21.88-2.44-7.93-5.15-15.91-5.77-24.24-1.05-10.1 0.33-20.32 2.79-30.11 1.31-5.06 3.96-10.75 9.45-12.23z"/>
 </g>
 <g transform="matrix(.7163 0 0 .7163 -136.23 -130.56)" fill="#f6911f">
  <path d="m255.21 203.26c4.49-4.24 10.45-7.42 16.78-7.12 5.97-0.05 11.46 3.21 15.52 7.39 5.36 5.66 8.17 13.15 10.18 20.56 7.25 27.34 6.82 56.71-1.49 83.77 12.81-9.47 28.92-13.88 44.76-13.59 20.4 0 41.15 7.46 55.69 22.03 23.26 22.69 31.55 59.26 20.39 89.78-11.19 31.75-39.99 56.38-73.01 62.82-25.09 5.22-51.88 1.36-74.66-10.3-28.79-14.78-51.3-41.54-60.41-72.65-7.58-25.62-6.75-53.09-0.89-78.97 6.61-29.13 19.3-56.43 33.24-82.7 3.93-7.41 7.72-15.17 13.9-21.02z"/>
  <path d="m631.93 202.99c4.83-4.49 11.38-7.6 18.11-6.77 6.95 0.64 12.86 5.37 16.82 10.88 4.52 6.54 6.74 14.31 8.5 21.98 5.96 25.91 5.15 53.42-2.79 78.82 12.46-9.21 28.04-13.68 43.45-13.63 19.85-0.29 40.1 6.42 54.87 19.91 24.79 22.48 34.15 60.26 22.66 91.71-6.72 19.11-19.84 35.74-36.39 47.33-27.84 19.61-65.25 22.69-97 11.52-23.02-8.09-43.41-23.57-57.4-43.54 14.59-49.59 13.03-103.8-4.47-152.43-1.37-2.49 0.43-4.92 1.33-7.19 5.26-12.11 11.06-23.99 17.26-35.65 4.31-8.05 8.26-16.62 15.05-22.94z"/>
  <path d="m442.23 223.3c15.05-12.34 33.16-21.52 52.64-23.86 15.74-2.13 32.19 0.74 46.07 8.55 14.04 7.74 25.54 19.56 34.16 32.99 9.4 14.6 15.69 30.97 20.43 47.61 10.48 37.44 11.31 77.51 2.57 115.38-3.29 13.57-7.24 27.14-13.58 39.63-5.79 11.23-15.13 21.48-27.57 25.12-10.87 3.11-22.52 0.04-31.98-5.66-13.87-8.33-24.75-20.99-32.58-35.02 0.34 14.1-6.03 28.46-17.62 36.73-8.49 6.18-19.84 6.81-29.76 4.38-13.69-3.16-25.35-12.17-33.86-23.12 12.4-15.13 20.99-33.59 23.4-53.08 4.73-36.24-12.35-75.02-43.84-94.2 9.8-29.23 27.72-55.8 51.52-75.45m44.66 7.57c-14.13 3.04-25.81 14.57-29.63 28.43-3.37 12.01-1.58 24.82 2.02 36.56 5.45 17.7 15.33 33.53 24.94 49.19 9.82-12.17 19.01-24.82 28.76-37.05 8.09-10.13 16.17-21.02 18.82-33.99 2.47-11.07-0.82-23.09-8.33-31.53-8.78-10.27-23.52-14.68-36.58-11.61z"/>
  <path d="m808.32 210.27c10.66-6.79 23.06-10.78 35.68-11.4 20.24-1.01 40.31 5.82 56.97 17.08 26.12 17.78 45.98 44.04 57.9 73.17 13.75 33.25 15.79 70.86 6.94 105.66-3.54-4.36-9.58-6.82-15.06-4.9-6.48 2.29-9.76 9.09-11.45 15.29-2.3 7.49-1.94 15.37-2.61 23.09-4.03-13.5-8.42-26.97-10.85-40.86 10.69 0.41 22.36 1.94 32.1-3.56 9.04-4.95 9.91-19.34 1.73-25.49-7.52-5.8-17.56-5.9-26.62-5.98-15.43-0.32-30.79 1.4-46.11 2.93-7.42 0.86-15.14 1.95-21.54 6.09-6.1 3.82-10.55 11.1-9.07 18.45 1.25 6.83 7.58 11.45 14.05 12.87 10.5 2.32 21.37 0.47 31.63-2.17-2.73 19.35-3.44 38.95-2.57 58.47 0.39 7.15 1.25 14.39 3.98 21.08-8.41 1.01-17.5 0.04-24.56-4.97-11.95-8.18-18.36-22.78-18.17-37.06-5.46 9.98-12.55 19.09-21.1 26.62-9.8 8.62-22.18 15.75-35.63 15.23-9.65-0.15-18.47-5.27-25.17-11.91 21.92-19.99 36.23-49.01 35.51-78.97-0.52-22.29-8.56-44.43-22.93-61.53-9.27-11.15-21.34-19.83-34.79-25.23 4.67-17.23 10.86-34.22 20.29-49.45 7.98-12.92 18.52-24.45 31.45-32.55m28.1 26.17c-11.27 7.67-17.79 22.04-15.44 35.57 1.99 12.78 9.5 23.74 17.35 33.67 10.37 13 20.21 26.41 30.57 39.41 9.2-15.02 18.64-30.16 24.24-46.98 3.86-11.66 6.01-24.32 3.34-36.48-2.63-12.05-10.99-22.71-22.15-27.99-11.97-5.8-26.93-4.73-37.91 2.8z"/>
 </g>
</svg>
