<svg width="211.67mm" height="134.21mm" version="1.1" viewBox="0 0 211.67 134.21" xmlns="http://www.w3.org/2000/svg">
 <g transform="translate(-96.951 -63.491)" stroke-width=".85205">
  <g fill="#a9d898">
   <path d="m117.14 197.19c-16.965-3.6201-23.449-15.477-18.645-34.093 3.2198-12.477 13.315-27.62 21.041-31.561 3.935-2.0075 5.214-2.0642 8.4786-0.37601 6.2737 3.2443 6.7787 13.24 1.3336 26.399-1.7452 4.2176-3.3745 8.298-3.6207 9.0676-0.39426 1.2322 0.75517 1.4373 9.6392 1.7192 9.2424 0.29337 10.467 0.52932 14.627 2.8199 2.6328 1.4497 5.0884 3.5599 5.8449 5.0229 1.5242 2.9474 1.0965 8.0927-0.92958 11.185-1.7049 2.602-7.8878 6.2482-14.06 8.2911-5.4947 1.8189-18.435 2.6519-23.71 1.5262z"/>
   <path d="m230.02 167.32c-7.4853-0.88163-16.124-3.7894-18.374-6.1846-3.6424-3.8772-4.7678-8.1155-4.6838-17.639 0.0622-7.027 0.56481-10.592 2.3436-16.615 3.9119-13.246 10.806-24.851 17.01-28.634 3.1688-1.9324 9.0176-2.1015 12.389-0.35836 7.539 3.8986 8.1343 21.077 1.2047 34.762-1.7615 3.4785-1.8704 4.1372-0.75513 4.5651 0.71684 0.27501 2.1916 0.27727 3.2772 6e-3 3.072-0.77105 12.444 1.0303 17.619 3.3867 8.4206 3.8337 11.893 8.4852 10.189 13.649-2.9908 9.062-21.94 15.217-40.219 13.064z"/>
   <path d="m146.25 160.28c-2.4448-2.1085-2.4975-2.3286-2.4212-10.105 0.16359-16.667 8.5032-36.501 19.618-46.66 2.5739-2.3524 6.1556-4.7192 7.9593-5.2596 12.854-3.8511 23.303 10.551 25.821 35.588 1.6201 16.11-1.214 24.673-8.8457 26.728-4.4219 1.1907-10.996-0.11497-15.479-3.0741l-3.225-2.129-6.3492 3.138c-3.6129 1.7856-8.1229 3.3084-10.465 3.5334-3.5015 0.33646-4.4883 0.0737-6.6147-1.76z"/>
  </g>
  <path d="m283.06 139.21c-17.054-3.0292-27.424-15.088-27.493-31.968-0.0905-22.167 17.07-42.72 36.489-43.7 7.218-0.36448 11.675 1.2883 13.621 5.0509 2.8921 5.5926 0.71041 11.498-5.9375 16.072-2.1442 1.4752-3.8986 2.9817-3.8986 3.3477 0 0.36602 1.9519 1.5797 4.3375 2.6971 5.0247 2.3534 8.4432 6.0046 8.4432 9.018 0 4.5433-4.6854 9.979-10.511 12.194-2.9969 1.1394-2.7883 1.6997 1.9804 5.3178 6.7544 5.1247 9.3623 11.298 6.7976 16.09-1.2316 2.3014-6.3662 4.7372-12.297 5.8335-5.9318 0.72196-6.0146 0.72386-11.532 0.048z" fill="#ed4668"/>
 </g>
</svg>
