<svg width="925.27" height="694.23" version="1.1" viewBox="0 0 244.81 183.68" xml:space="preserve" xmlns="http://www.w3.org/2000/svg"><path d="m192.38 95.545h2.6553v19.466h-2.6553v4.0101h10.426v-4.0101h-2.5382v-8.3316h9.4499v8.3316h-2.6163v4.0101h10.387v-4.0101h-2.5382v-19.466h2.5382v-4.0105h-10.388v4.0101h2.616v7.0464h-9.449v-7.0464h2.538v-4.0101h-10.426z" fill="#d6d6d6"/><path d="m222.11 95.545h2.4917v19.466h-2.4917v4.0101h9.305q2.7253-0.0389 4.7498-0.31147 2.0245-0.31146 3.7765-1.3626 2.5696-1.5962 3.6986-4.633 1.168-3.0757 1.168-7.3194 0-3.3482-0.77866-6.2293-0.77866-2.92-2.6474-4.8277-1.6741-1.713-3.8933-2.2192-2.1802-0.50613-6.1125-0.584h-9.266zm10.006 0q1.129 0 1.9077 0.1168 0.81759 0.0779 1.6352 0.42826 0.85653 0.3504 1.5573 1.1291 0.73972 0.77866 1.2848 2.1024 0.54506 1.3626 0.77866 2.9978t0.2336 3.0368q0 2.4917-0.66186 4.7888-0.66186 2.2581-1.9077 3.4261-1.0123 0.93439-2.2192 1.2069-1.168 0.23359-2.9589 0.27253h-2.0245v-19.506z" fill="#d6d6d6"/><g transform="translate(0 -31.629)" stroke-width="1.0014"><path d="m103.36 147.2-12.15-20.06h-51.43v-48.037l27.693-47.475h55.952l-28.077 47.475h23.558l39.85 68.107-37.02 20.62z" fill="#44dd3a"/><path d="m39.777 215.31v-47.475h51.43l12.151-20.628h55.387l-39.845 68.103z" fill="#3bb33b"/><path d="M 39.777,215.31 0,147.22 39.777,79.103 67.47,127.14 55.45,147.22 67.47,167.83 Z" fill="#338a3b"/></g></svg>
