<?xml version="1.0" encoding="UTF-8" standalone="no"?>
<svg xmlns:rdf="http://www.w3.org/1999/02/22-rdf-syntax-ns#" xmlns="http://www.w3.org/2000/svg" height="447.72" width="600" version="1.1" xmlns:cc="http://creativecommons.org/ns#" xmlns:dc="http://purl.org/dc/elements/1.1/" viewBox="0 0 158.75 118.45845">
 <g transform="translate(194.11 -301.71)">
  <path d="m-153.82 420.16h118.46v-118.45h-118.46z" fill="#ee2722"/>
  <path d="m-194.11 371.38h7.98v-30.38h-7.98z" fill="#ea2229"/>
  <path d="m-161.65 364.4c0-0.86-0.26-1.4-0.76-1.64-0.63-0.34-2-0.5-4.09-0.5h-3.54c-1.61 0-2.69 0.18-3.24 0.54-0.56 0.38-0.83 1.02-0.83 1.92 0 0.72 0.31 1.21 0.95 1.48 0.61 0.31 1.69 0.46 3.24 0.46h2.28c2.55 0 4.19-0.18 4.91-0.54 0.71-0.34 1.08-0.91 1.08-1.72m-8.46-6.68c2.48 0 4.31 0.1 5.47 0.31 1.17 0.19 2.1 0.66 2.82 1.4v-1.86c0-1.1-0.22-1.84-0.67-2.2-0.53-0.43-1.55-0.65-3.06-0.65h-4.71c-1.21 0-2.03 0.1-2.43 0.29-0.42 0.21-0.63 0.68-0.63 1.41h-7.73c0-2.75 0.75-4.59 2.25-5.54 1.3-0.8 3.74-1.2 7.31-1.2h9.27c5.59 0 8.38 2.56 8.38 7.68v14.02h-7.55v-2.48c-1.11 1.18-2.08 1.93-2.89 2.28-0.82 0.35-2.2 0.52-4.13 0.52h-5.46c-2.7 0-4.64-0.37-5.8-1.11-1.45-0.91-2.17-2.55-2.17-4.95v-1.78c0-2.67 0.98-4.41 2.94-5.23 1.47-0.6 4.4-0.91 8.79-0.91" fill="#ea2229"/>
  <path d="m-194.11 371.38h7.98v-30.38h-7.98z" fill="#ee2722"/>
  <path d="m-161.65 364.4c0-0.86-0.26-1.4-0.76-1.64-0.63-0.34-2-0.5-4.09-0.5h-3.54c-1.61 0-2.69 0.18-3.24 0.54-0.56 0.38-0.83 1.02-0.83 1.92 0 0.72 0.31 1.21 0.95 1.48 0.61 0.31 1.69 0.46 3.24 0.46h2.28c2.55 0 4.19-0.18 4.91-0.54 0.71-0.34 1.08-0.91 1.08-1.72m-8.46-6.68c2.48 0 4.31 0.1 5.47 0.31 1.17 0.19 2.1 0.66 2.82 1.4v-1.86c0-1.1-0.22-1.84-0.67-2.2-0.53-0.43-1.55-0.65-3.06-0.65h-4.71c-1.21 0-2.03 0.1-2.43 0.29-0.42 0.21-0.63 0.68-0.63 1.41h-7.73c0-2.75 0.75-4.59 2.25-5.54 1.3-0.8 3.74-1.2 7.31-1.2h9.27c5.59 0 8.38 2.56 8.38 7.68v14.02h-7.55v-2.48c-1.11 1.18-2.08 1.93-2.89 2.28-0.82 0.35-2.2 0.52-4.13 0.52h-5.46c-2.7 0-4.64-0.37-5.8-1.11-1.45-0.91-2.17-2.55-2.17-4.95v-1.78c0-2.67 0.98-4.41 2.94-5.23 1.47-0.6 4.4-0.91 8.79-0.91" fill="#ee2722"/>
  <g fill="#fff">
   <path d="m-106.4 371.39v-3.44c-0.72 1.4-1.76 2.38-3.11 2.93-1.36 0.55-3.17 0.83-5.44 0.83-3.57 0-6.16-0.41-7.76-1.24-2.7-1.37-4.05-4.1-4.05-8.18v-12.28h7.97v12.28c0 2.11 1.72 3.17 5.14 3.17h1.83c1.73 0 3.08-0.4 4.02-1.2 0.93-0.81 1.4-1.97 1.4-3.49v-10.76h7.978v21.38h-7.978"/>
   <path d="m-86.443 350.01v3.44c0.716-1.4 1.752-2.38 3.108-2.93 1.355-0.55 3.168-0.83 5.436-0.83 3.56 0 6.144 0.41 7.749 1.23 2.713 1.4 4.067 4.13 4.067 8.19v12.28h-7.975v-12.28c0-2.11-1.714-3.16-5.141-3.16h-1.821c-1.74 0-3.074 0.38-4.006 1.15-0.943 0.81-1.417 1.98-1.417 3.51v10.78h-7.979v-21.38h7.979"/>
   <path d="m-49.011 354.73c-2.587 0-4.197 0.16-4.834 0.49-0.663 0.36-0.996 1.2-0.996 2.51h11.66c0-1.26-0.381-2.08-1.136-2.47-0.747-0.35-2.31-0.53-4.694-0.53m-4.001-5.04h5.585c4.401 0 7.446 0.59 9.141 1.78 1.894 1.33 2.844 3.81 2.844 7.44v3.61h-19.399v1.26c0 1.07 0.393 1.81 1.178 2.23 0.772 0.44 2.017 0.66 3.739 0.66h2.456c1.91 0 3.195-0.25 3.86-0.74 0.446-0.34 0.672-0.9 0.672-1.69h7.494v0.96c0 2.48-1.029 4.24-3.088 5.27-1.639 0.83-4.124 1.24-7.454 1.24h-5.972c-3.333 0-5.803-0.53-7.414-1.6-2.302-1.55-3.453-4.39-3.453-8.51v-2.08c0-3.76 0.9-6.4 2.701-7.93 1.529-1.26 3.9-1.9 7.11-1.9"/>
  </g>
 </g>
</svg>
