<svg width="200mm" height="76.25mm" version="1.1" viewBox="0 0 200 76.25" xmlns="http://www.w3.org/2000/svg" xmlns:xlink="http://www.w3.org/1999/xlink">
 <defs>
  <linearGradient id="h" x1="-3.9658e-15" x2="35.721" y1="17.861" y2="17.861" gradientTransform="scale(1.6237 .61588)" gradientUnits="userSpaceOnUse">
   <stop stop-color="#021E9E" offset="0"/>
   <stop stop-color="#3158E0" offset=".1482"/>
   <stop stop-color="#1B49D3" offset=".26144"/>
   <stop stop-color="#C23123" offset=".70442"/>
   <stop stop-color="#D32F1F" offset=".87913"/>
   <stop stop-color="#870F03" offset="1"/>
  </linearGradient>
  <radialGradient id="c" cx="17.861" cy="17.861" r="24.848" gradientTransform="scale(1.6237 .61588)" gradientUnits="userSpaceOnUse">
   <stop stop-opacity="0" offset="0"/>
   <stop stop-opacity=".53575" offset="1"/>
  </radialGradient>
  <path id="d" d="m0 0.83113v16.428s23.6-10.174 59.148-13.055v-3.3726h-59.148"/>
  <radialGradient id="b" cx="16.86" cy="1.34" r="31.962" gradientTransform="scale(1.6123 .62023)" gradientUnits="userSpaceOnUse">
   <stop stop-color="#fff" offset="0"/>
   <stop stop-color="#fff" stop-opacity="0" offset=".99203"/>
  </radialGradient>
  <linearGradient id="g" y1=".5" y2=".5">
   <stop stop-color="#111E9B" offset="0"/>
   <stop stop-color="#002DC0" offset=".239"/>
   <stop stop-color="#7E0839" offset=".644"/>
   <stop stop-color="#9E0003" offset="1"/>
  </linearGradient>
  <linearGradient id="f" x1="-6.9146e-19" x2="28.247" y1="14.124" y2="14.124" gradientTransform="scale(2.0494 .48794)" gradientUnits="userSpaceOnUse">
   <stop stop-color="#fff" offset="0"/>
   <stop stop-color="#0D2DAD" offset="0"/>
   <stop stop-color="#2751D1" offset=".224"/>
   <stop stop-color="#7D53A0" offset=".493"/>
   <stop stop-color="#9F080D" offset="1"/>
  </linearGradient>
  <linearGradient id="a" x2="35.591" y1="17.796" y2="17.796" gradientTransform="scale(1.6268 .61469)" gradientUnits="userSpaceOnUse" xlink:href="#g"/>
 </defs>
 <g transform="translate(5955.4 -5504.5)">
  <g transform="translate(-5714.8,5316.6)">
   <g transform="matrix(3.4395,0,0,3.4395,-240.56,188.5)" fill="none" fill-rule="evenodd">
    <path d="m0 0h58v22h-58z" fill="url(#h)"/>
    <path d="m0 0h58v22h-58z" fill="url(#c)" fill-opacity=".6"/>
    <g transform="translate(-1,-1)">
     <mask id="e" fill="#ffffff">
      <use width="100%" height="100%" xlink:href="#d"/>
     </mask>
     <path d="m1 0.83113v22.369h58.148v-22.369z" fill="url(#b)" fill-opacity=".7" mask="url(#e)" opacity=".6"/>
    </g>
    <path d="m18 8.9102v-4.7197h-12v4.7197h3.0657v8.9498h5.8683v-8.9498z" fill="#fff"/>
    <path d="m35.551 13.557v-3.424h-3.634v-2.5188h5.083v-3.4237h-11v13.67h5.917v-4.303z" fill="#fff"/>
    <path d="m46 17.86v-11.918l7-1.7516v13.67z" fill="#fff"/>
    <g fill-rule="nonzero">
     <g fill="url(#a)">
      <path d="M 57.901,0 H 0 V 21.877 H 57.901 V 0" fill="url(#a)"/>
     </g>
     <path d="m0 13.783s28.918-9.2696 57.891-7.6154v-6.1676h-57.891z" fill="url(#f)"/>
     <path d="m43.209 3.2484h5.2431v15.385h-5.2431z" fill="#fff"/>
     <path d="m18.888 13.976h-4.189v-10.728h-5.2428v15.386h9.4318z" fill="#fff"/>
     <path d="m35.247 8.8089c-0.82508-0.84819-1.9443-1.3179-3.1067-1.3037-1.8121 0-3.3289 1.3208-3.3289 3.4303 0 2.2116 1.6024 3.5071 3.5127 3.5071 1.0194 0.02522 2.0057-0.37558 2.7366-1.1121l2.4025 3.7258c-1.4868 1.411-3.2149 1.9885-5.6076 1.9885-4.6134 0-8.147-3.2435-8.147-8.1034s3.4704-8.1034 8.0836-8.1034c2.1362 0 4.1662 0.5555 5.6076 1.9229z" fill="#fff"/>
    </g>
   </g>
  </g>
 </g>
</svg>
