<svg version="1.1" viewBox="0 0 1907 520" xmlns="http://www.w3.org/2000/svg">
 <path d="m465 154.47c-29.974 5.061-54.842 19.082-69.919 39.419-13.255 17.881-20.06 40.181-20.075 65.788-0.027 46.78 23.19 83.135 62.994 98.638 15.428 6.009 25.032 7.844 44 8.408 40.206 1.194 67.351-7.695 94.541-30.958l7.324-6.266 0.067-45.75 0.068-45.75h-50-50v25.5 25.5h16 16v7.385c0 6.753-0.212 7.524-2.474 9.006-7.349 4.816-29.387 6.269-39.95 2.635-18.182-6.255-28.541-23.687-28.541-48.026 0-34.571 21.487-55.006 52.242-49.683 10.507 1.819 19.204 5.694 26.966 12.017 3.151 2.566 5.95 4.666 6.221 4.666 0.955 0 45.536-37.217 45.536-38.014 0-1.437-13.247-12.997-20.164-17.595-19.023-12.647-40.961-18.474-68.836-18.284-7.975 0.054-17.875 0.668-22 1.364m-385 105.53v104h70 70v-28.5-28.5h-35.5-35.5v-75.5-75.5h-34.5-34.5v104m145 0v104h76.5 76.5v-27.5-27.5h-41.5-41.5v-11.5-11.5h37.5 37.5v-27-27h-37.5-37.5v-11-11h40 40v-27-27h-75-75v104m364 0v104h76.5 76.5v-27.5-27.5h-41.5-41.5v-11.5-11.5h37.5 37.5v-27-27h-37.5-37.5v-11-11h40 40v-27-27h-75-75v104m158-0.012v104.01h34.08 34.079l-0.329-56.342-0.33-56.341 13.011 23.591c7.156 12.976 21.106 38.323 31 56.327l17.989 32.735 72.5 0.03v-104-104h-34.108-34.108l0.716 111.93-2.159-4.215c-1.188-2.318-14.331-27.39-29.207-55.715l-27.047-51.5-76.087-0.524v104.01m207 0.021v104.15l51.75-0.415c55.716-0.447 59.767-0.769 78.68-6.25 27.804-8.057 47.466-24.056 58.499-47.6 10.528-22.466 12.895-57.766 5.659-84.392-3.19-11.738-5.663-17.235-12.232-27.191-10.314-15.631-27.136-28.003-47.085-34.63-20.419-6.783-21.92-6.919-81.521-7.392l-53.75-0.426v104.15m70-1.009v47l10.25-0.017c17.697-0.03 29.026-3.494 36.776-11.244 7.89-7.891 11.034-17.537 11.157-34.239 0.133-17.95-2.807-27.976-10.667-36.379-7.907-8.454-19.42-12.098-38.266-12.113l-9.25-8e-3v47" fill="#fc6404" fill-rule="evenodd"/>
 <path d="m0 260v260h467.5 467.5v-49.5-49.5h-11.5-11.5v38 38h-444.5-444.5v-237-237h443.99 443.99l0.524 75.5 11.75 0.282 11.75 0.281v-49.531-49.532h-467.5-467.5v260m1204-65.484c0 0.284 6.667 10.522 14.815 22.75 8.148 12.229 17.617 26.579 21.042 31.89l6.227 9.656-22.042 34.532c-12.123 18.993-22.042 34.786-22.042 35.095 0 0.308 11.926 0.561 26.503 0.561h26.503l10.236-20.5c5.629-11.275 10.471-20.5 10.758-20.5s5.129 9.225 10.758 20.5l10.236 20.5h26.934 26.934l-44.92-70.262 1.706-2.619c0.939-1.441 10.102-15.444 20.363-31.119 10.262-15.675 18.983-29.062 19.382-29.75 0.572-0.987-4.917-1.25-26.086-1.25h-26.811l-8.879 17c-4.883 9.35-9.189 17-9.568 17-0.38 0-4.708-7.643-9.62-16.984l-8.929-16.984-26.75-0.016c-14.713-9e-3 -26.75 0.216-26.75 0.5m145 16.984v17.5h16 16v50 50h22.5 22.5v-50-50h15.5 15.5v-17.5-17.5h-54-54v17.5m111 49.927v67.573h22.5 22.5v-22.5-22.5h2.327c2.048 0 3.602 2.67 12.956 22.25l10.63 22.25 49.071 0.259c38.75 0.205 49.159-5e-3 49.489-1 0.229-0.692 1.391-4.971 2.582-9.509l2.164-8.25h18.659 18.66l5.104 18.5 24.179 0.268c13.299 0.147 24.187-0.078 24.197-0.5 9e-3 -0.422-10.413-30.806-23.162-67.518l-23.179-66.75h-24.729-24.73l-4.975 14.25c-2.737 7.838-13.219 37.98-23.293 66.982-10.075 29.003-18.421 52.628-18.545 52.5-0.125-0.127-6.779-11.257-14.787-24.732l-14.559-24.5 3.72-2.983c9.519-7.632 15.152-16.609 17.2-27.408 4.72-24.888-7.29-44.576-31.533-51.689-5.07-1.487-11.583-1.805-44.196-2.156l-38.25-0.411v67.574m382-52.427v15h11 11v52.5 52.5h21.5 21.5v-67.5-67.5h-32.5-32.5v15m-79 16v20h-20-20v16 16h20 20v20 20h16 16v-20-20h20.5 20.5v-16-16h-20.5-20.5v-20-20h-16-16v20m-258 14v11h8.05c5.351 0 9.065-0.525 11.078-1.566 3.622-1.873 6.176-7.313 5.255-11.192-1.508-6.345-6.946-9.242-17.351-9.242h-7.032v11m143.18 20.429c-2.298 8.486-4.178 15.686-4.178 16s4.102 0.571 9.117 0.571c8.198 0 9.068-0.176 8.638-1.75-0.263-0.962-2.228-8.161-4.366-15.997-2.139-7.836-4.146-14.249-4.461-14.25-0.315-2e-3 -2.452 6.94-4.75 15.426" fill="#fcfcfc" fill-rule="evenodd"/>
</svg>
