<svg version="1.1" viewBox="0 0 1195 360" xml:space="preserve" xmlns="http://www.w3.org/2000/svg">
	<path d="m647.65 68.029v-68.029h-647.65v360h647.65v-67.925h-15.766l-0.0144 52.376h-616.22v-328.9h616.12v52.481z" stroke-width="1.5968"/>
	<path d="m152.4 251.7v-38.557h-49.444v-105h-47.341v143.56z" fill="#f60" stroke-width="1.5968"/>
	<path d="m513.8 251.7v-37.518h-57.861v-16.576h52.588v-36.887h-52.588v-15.542h55.756v-37.033h-103.1v143.56z" fill="#f60" stroke-width="1.5968"/>
	<path d="m261.55 251.7v-37.518h-57.861v-16.576h52.601v-36.887h-52.601v-15.542h55.756v-37.033h-103.1v143.56z" fill="#f60" stroke-width="1.5968"/>
	<path d="m657.04 251.7v-143.56h-46.359v54.093c0 2.8415 0.17405 11.56 0.52406 17.17 0.21046 3.1208 0.38898 5.7154 0.59944 8.8361l-42.08-80.099h-51.549v143.56h46.289v-54.093c0-2.7046-0.0859-5.5632-0.19417-8.4815-0.1089-2.9381-0.1081-5.7928-0.31839-8.4974l-0.47153-8.8018 44.071 79.874z" fill="#f60" stroke-width="1.5968"/>
	<path d="m661.61 108.15v143.56h55.071c12.837 0 22.745-1.2072 33.104-3.9528 8.5699-2.2713 17.194-6.1272 24.447-11.559 2.9593-2.316 5.3186-4.1559 9.4881-8.9752 2.0911-2.2968 5.6283-7.5526 7.7329-12.13 2.1044-4.5772 3.7877-9.4969 5.0505-15.322 1.2626-5.8254 1.8943-12.556 1.8943-19.838 0-7.2818-0.63169-14.013-1.8943-19.838-1.2627-5.8254-2.9461-10.745-5.0506-15.322-2.1044-4.577-5.6414-9.833-7.7327-12.13-4.1695-4.8191-6.5288-6.6592-9.4881-8.975-7.2526-5.4321-15.948-9.288-24.519-11.559-10.36-2.7458-20.196-3.9528-33.033-3.9528zm47.349 38.489h10.387c4.8946 0 10.686 0.80462 14.19 2.1659 3.7275 1.4483 6.5668 3.2862 8.3713 5.1289 1.0516 1.0735 2.0051 2.1687 3.0569 3.6715 1.0518 1.5027 1.8401 3.2922 2.6816 5.2244 0.84151 1.9321 1.5602 4.8172 1.922 7.2174 0.42059 2.7907 0.81372 5.7345 0.81372 9.8672 0 4.0068-0.40415 6.847-0.8249 9.5529-0.36183 2.3273-1.1593 5.0988-2.0004 6.9722-0.84151 1.8732-1.6827 3.5913-2.7345 5.0482-1.0518 1.4571-1.8698 2.3971-2.9213 3.438-1.8047 1.7865-4.673 3.6943-8.4007 5.0985-3.8086 1.4349-8.6812 2.0828-13.94 2.0828h-10.601z" fill="#f60" stroke-width="1.5968"/>
	<path d="m404.23 227.76v-62.905h-68.523v34.842h22.145v10.304c-1.699 2.3757-6.3264 3.927-10.735 4.5852-4.5076 0.67305-9.2945 0.79025-12.883 0.42523-3.3512-0.34092-11.023-1.858-17.183-8.3432-1.9765-2.0806-3.6807-4.5085-5.2307-7.6532-1.26-2.5564-2.0487-4.9604-2.5587-6.9848-0.65357-2.6962-1.0475-5.2566-1.2931-8.2121-0.12151-1.4647-0.1576-2.8603-0.1576-3.9313 0-4.8526 0.88781-10.937 2.501-15.494 1.698-4.7964 5.9978-13.418 16.196-17.678 3.1249-1.3054 7.2333-2.1202 11.444-2.1202s7.7019 0.57116 11.111 1.4746c2.9248 0.84821 6.3169 2.2729 8.6312 3.5666 1.0365 0.51257 5.1238 3.2763 6.01 4.1524 1.3793 1.146 1.8628 1.5452 3.6324 3.2953l31.638-26.068c-1.3256-1.3317-3.6729-3.8874-5.6901-5.6623-4.9733-4.4914-10.962-8.5792-17.609-11.678-10.99-4.9487-23.338-7.6904-37.758-7.6567-9.8944 0-18.898 1.2083-28.372 4.1222-10.699 3.3606-18.875 8.1295-25.522 13.587-7.4934 6.3593-13.056 13.473-17.451 23.081-4.3634 9.7667-6.5487 20.713-6.5487 33.078 0 14.221 2.9577 29.207 11.644 42.515 3.4302 5.2553 7.6896 9.9237 12.146 13.682 3.6063 3.0412 7.564 5.7277 11.75 8.0114 6.2407 3.4047 15.139 7.0139 26.818 8.8098 4.6185 0.71041 9.421 1.0817 14.483 1.0817 9.684 0 18.06-0.92501 25.21-2.5876 7.1488-1.6627 13.599-3.952 18.856-6.6538 5.2566-2.7019 9.5261-5.5178 13.404-8.5217 3.6001-2.7888 6.9511-5.7574 9.8984-8.4633z" fill="#f60" stroke-width="1.5968"/>
	<path d="m935.27 227.62-31.062-48.569 29.306-44.521h-36.464l-13.1 24.959-13.235-24.959h-36.464l29.441 44.521-31.062 48.569h36.464l14.856-29.681 14.856 29.681z" stroke-width="1.5968"/>
	<path d="m1096.1 227.62-20.883-35.37c5.9457-3.4743 9.6547-7.5331 12.076-12.354 2.4022-4.7828 3.309-9.7135 3.4-15.686-0.052-6.1434-1.5774-10.945-4.0671-15.05-2.9927-4.9329-7.0985-8.2748-11.791-10.503-6.8225-3.2402-14.545-4.1282-22.229-4.1282h-40.744v93.091h30.468v-31.03h3.8878l14.815 31.03zm-36.156-62.06c0 2.8043-0.9277 4.5432-2.7041 5.9356-1.8255 1.4307-3.5433 2.1593-8.1687 2.1593h-6.9046v-16.19h7.6767c1.9841 0 4.1864 0.2419 5.92 1.2446 0.5907 0.34161 1.7867 1.1255 2.5972 2.0841 0.9977 1.18 1.5835 2.6602 1.5835 4.7661z" stroke-width="1.5968"/>
	<path d="m1195 227.62-32.41-93.091h-33.759l-32.41 93.091h31.734l3.511-13.087h26.602l3.6461 13.087zm-43.078-36.427h-13.774l6.887-24.959z" stroke-width="1.5968"/>
	<path d="m1009.1 158.28v-23.744h-74.207v23.744h21.818v69.347h30.438v-69.345z" stroke-width="1.5968"/>
</svg>
