<svg height="225.45" viewBox="0 0 500 225.4536" width="500" xmlns="http://www.w3.org/2000/svg">
 <path d="m405.6 42.604v-42.604h-405.6v225.45h405.6v-42.539h-9.8733l-.00902 32.801h-385.91v-205.98h385.85v32.867z"/>
 <g fill="#f60">
  <path d="m95.44 157.63v-24.147h-30.965v-65.756h-29.647v89.903z"/>
  <path d="m321.77 157.63v-23.496h-36.236v-10.381h32.934v-23.101h-32.934v-9.7332h34.918v-23.192h-64.566v89.903z"/>
  <path d="m253.15 142.64v-39.395h-42.913v21.82h13.868v6.4533c-1.064 1.4878-3.9619 2.4592-6.7229 2.8715-2.8229.4215-5.8208.49486-8.068.26625-2.0987-.21348-6.9031-1.1636-10.761-5.2249-1.2378-1.3031-2.3051-2.8235-3.2758-4.7929-.78913-1.6011-1.2831-3.1065-1.6024-4.3744-.40933-1.6884-.65605-3.292-.80974-5.1428-.07618-.91728-.09871-1.7914-.09871-2.462 0-3.0389.55599-6.8494 1.5663-9.7034 1.0634-3.0038 3.7561-8.4031 10.143-11.071 1.9569-.8175 4.5298-1.3278 7.1667-1.3278 2.6368 0 4.8234.35773 6.9581.92354 1.8317.53117 3.956 1.4233 5.4054 2.2336.64916.32092 3.2088 2.0517 3.7638 2.6005.86383.7177 1.1666.96774 2.2748 2.0637l19.814-16.325c-.83021-.83402-2.3002-2.4345-3.5635-3.5461-3.1146-2.8128-6.865-5.3728-11.028-7.3136-6.8828-3.0993-14.616-4.8162-23.646-4.7951-6.1966 0-11.835.7567-17.768 2.5816-6.7003 2.1046-11.821 5.0912-15.983 8.5089-4.6928 3.9826-8.1765 8.4379-10.929 14.455-2.7325 6.1165-4.1012 12.972-4.1012 20.716 0 8.9062 1.8523 18.291 7.2921 26.626 2.1482 3.2913 4.8157 6.2149 7.6063 8.5682 2.2585 1.9046 4.737 3.587 7.3587 5.0173 3.9084 2.1321 9.481 4.3925 16.795 5.5172 2.8924.4448 5.8999.67732 9.0703.67732 6.0647 0 11.31-.57922 15.788-1.6205 4.4771-1.0413 8.5165-2.475 11.809-4.167 3.292-1.6921 5.9658-3.4556 8.3942-5.3367 2.2546-1.7465 4.3532-3.6056 6.199-5.3002z"/>
  <path d="m163.8 157.63v-23.496h-36.236v-10.381h32.942v-23.101h-32.942v-9.7332h34.918v-23.192h-64.566v89.903z"/>
  <path d="m411.48 157.63v-89.903h-29.033v33.876c0 1.7794.10906 7.2398.32821 10.753.13174 1.9544.24358 3.5793.37536 5.5337l-26.353-50.163h-32.283v89.903h28.989v-33.876c0-1.6938-.0538-3.484-.12158-5.3116-.06824-1.84-.06769-3.6278-.19946-5.3216l-.29531-5.5122 27.6 50.022z"/>
  <path d="m414.34 67.728v89.903h34.489c8.0393 0 14.244-.75594 20.732-2.4754 5.367-1.4224 10.768-3.8372 15.31-7.2391 1.8533-1.4503 3.3308-2.6026 5.942-5.6207 1.3096-1.4384 3.5248-4.7299 4.8427-7.5964s2.3722-5.9475 3.1629-9.5958c.79075-3.6482 1.1863-7.8635 1.1863-12.424s-.39557-8.776-1.1863-12.424c-.79076-3.6483-1.845-6.7293-3.1629-9.5958s-3.5332-6.158-4.8427-7.5964c-2.6112-3.0181-4.0887-4.1704-5.942-5.6207-4.5421-3.4019-9.9878-5.8167-15.355-7.2391-6.488-1.7195-12.648-2.4755-20.687-2.4755zm29.653 24.104h6.5051c3.0653 0 6.6923.50382 8.8865 1.3563 2.3344.907 4.1125 2.058 5.2427 3.212.65855.67236 1.2557 1.3583 1.9144 2.2994.65869.94112 1.1524 2.0618 1.6794 3.2718.52693 1.21.97713 3.0168 1.2037 4.52.26341 1.7477.5096 3.5913.5096 6.1794 0 2.5093-.25314 4.2881-.51658 5.9827-.2266 1.4574-.72595 3.1932-1.2529 4.3664-.52696 1.1732-1.0538 2.2491-1.7125 3.1616-.65868.91246-1.171 1.5012-1.8295 2.153-1.1301 1.1188-2.9265 2.3136-5.261 3.193-2.3853.89855-5.4368 1.3044-8.7302 1.3044h-6.6387z"/>
 </g>
</svg>
