<svg version="1.1" viewBox="0 0 800 224.33" xmlns="http://www.w3.org/2000/svg">
 <title>Leomax24_black</title>
 <g transform="matrix(2.2813 0 0 2.2813 0 .0061708)" data-name="Слой 2">
  <g data-name="Слой 1">
   <path d="m325.06 21.28v4.84h-19.4v-3.85l9.9-9.36a10.62 10.62 0 0 0 2.13-2.58 4.67 4.67 0 0 0 0.55-2.15 2.86 2.86 0 0 0-1-2.37 4.89 4.89 0 0 0-3.11-0.81 7 7 0 0 0-3 0.64 5.79 5.79 0 0 0-2.28 1.93l-4.33-2.79a10.2 10.2 0 0 1 4.15-3.5 13.76 13.76 0 0 1 6.01-1.28 12.51 12.51 0 0 1 5 0.93 7.8 7.8 0 0 1 3.32 2.65 6.83 6.83 0 0 1 1.19 4 8.9 8.9 0 0 1-0.88 3.93 15.07 15.07 0 0 1-3.41 4.18l-5.9 5.59z" fill="#fff"/>
   <path d="m350.67 20.73h-4.18v5.39h-5.8v-5.39h-13.83v-4l12.11-16.29h6.23l-11.22 15.44h6.9v-4.8h5.61v4.8h4.18z" fill="#fff"/>
   <path d="m317.04 36.34v51.74h-306.79v-75.05h283.12v-10.25h-293.37v95.55h327.29v-61.99z" fill="#85be4c"/>
   <path d="m26.88 30.53h9.96v34.94h21.59v8.12h-31.55z" fill="#fff"/>
   <path d="m97.36 65.59v8h-33.33v-43.06h32.53v8h-22.63v9.35h19.99v7.75h-19.99v9.96z" fill="#fff"/>
   <path d="m114.06 71.43a21.38 21.38 0 0 1-8.42-8 21.77 21.77 0 0 1-3-11.41 21.72 21.72 0 0 1 3-11.41 21.41 21.41 0 0 1 8.42-8 26.65 26.65 0 0 1 24.14 0 22 22 0 0 1 0 38.75 26.65 26.65 0 0 1-24.14 0m19-7.35a12.61 12.61 0 0 0 4.83-4.89 15.42 15.42 0 0 0 0-14.27 12.61 12.61 0 0 0-4.89-4.85 14.44 14.44 0 0 0-13.78 0 12.61 12.61 0 0 0-4.83 4.89 14.36 14.36 0 0 0-1.75 7.14 14.35 14.35 0 0 0 1.75 7.13 12.61 12.61 0 0 0 4.83 4.89 14.37 14.37 0 0 0 13.78 0" fill="#fff"/>
   <path d="m196.39 73.59-0.06-25.84-12.67 21.28h-4.49l-12.61-20.72v25.28h-9.35v-43.06h8.24l16.12 26.76 15.87-26.76h8.18l0.12 43.06z" fill="#fff"/>
   <path d="m244.31 64.36h-20l-3.81 9.23h-10.21l19.19-43.06h9.84l19.26 43.06h-10.46zm-3.14-7.57-6.83-16.48-6.83 16.48z" fill="#fff"/>
   <path d="m291.98 73.59-10.4-14.95-10.21 14.95h-11.44l15.93-21.9-15.13-21.16h11.32l9.9 13.96 9.72-13.96h10.76l-15 20.79 16.05 22.27z" fill="#fff"/>
  </g>
 </g>
</svg>
