<?xml version="1.0" encoding="UTF-8" standalone="no"?>
<svg xmlns:rdf="http://www.w3.org/1999/02/22-rdf-syntax-ns#" xmlns="http://www.w3.org/2000/svg" height="249.32" width="600" version="1.1" xmlns:cc="http://creativecommons.org/ns#" xmlns:dc="http://purl.org/dc/elements/1.1/" viewBox="0 0 158.75 65.96477">
 <g transform="translate(57.666 -249.95)">
  <path d="m90.359 272.72 1.435 16.47 9.286-1.64-5.56-31.63-25.669 4.52 2.443 13.86 18.065-1.58z" fill="#fd0"/>
  <path d="m-30.133 283.27-0.891-5.04 100.88-17.79-0.986-5.5-126.54 22.31 5.586 31.63 16.371-2.87-1.941-22.08 7.521-0.66z" fill="#5ec5ed"/>
  <path d="m-25.447 309.86-0.966-5.5-9.3 1.65 0.868 9.91 128-11.2-1.361-15.53-117.24 20.67z" fill="#79b63e"/>
  <path d="m72.294 274.3 2.161 12.27-100.86 17.8 0.958 5.49 117.24-20.67-1.434-16.47-18.065 1.58z" fill="#fabb00"/>
  <path d="m72.294 274.3-2.443-13.86-100.88 17.79 0.896 5.04-7.519 0.66 1.939 22.08 9.303-1.64 100.86-17.8-2.156-12.27z" fill="#008bd0"/>
  <path d="m79.351 265.81h-128.5l0.001 32.11h128.5l-0.001-32.11z"/>
  <path d="m73.858 283.27s-0.026 0.06-0.106 0.06h-6.932c-0.114 0-0.17 0.05-0.17 0.05s-0.057 0.03-0.057 0.15v7.4c0 0.11-0.067 0.14-0.067 0.14s-0.036 0.04-0.114 0.04h-5.497c-0.077 0-0.134-0.04-0.134-0.04s-0.028-0.03-0.028-0.17v-7.39c0-0.09-0.08-0.13-0.08-0.13s-0.029-0.05-0.106-0.05h-7.095c-0.14 0-0.168-0.02-0.168-0.02s-0.041-0.07-0.041-0.23v-5.41c0-0.06 0.041-0.15 0.041-0.15s0.028-0.01 0.09-0.01h7.25c0.067 0 0.067-0.03 0.067-0.03s0.042-0.04 0.042-0.08v-6.46c0-0.09 0.028-0.15 0.028-0.15s0.057-0.03 0.212-0.03h5.388c0.109 0 0.145 0.03 0.145 0.03s0.067 0.06 0.067 0.17v6.48h7.028c0.183 0 0.237 0.04 0.237 0.04s0.09 0.03 0.09 0.19v5.46c0 0.06-0.09 0.14-0.09 0.14m-21.471 7.61c-0.025 0.16-0.051 0.21-0.051 0.21s-0.036 0.06-0.16 0.06h-11.156c-0.331 0-0.411-0.08-0.411-0.08s-0.052-0.11-0.026-0.36l2.76-19.22c0.026-0.23 0.083-0.32 0.083-0.32h0.286 5.079c0.142 0 0.194 0.02 0.194 0.02s0.018 0.09 0 0.2l-2.097 15.01c-0.026 0.18 0.054 0.2 0.054 0.2s0.065 0.03 0.269 0.03h5.522c0.109 0 0.168 0.04 0.168 0.04s0.031 0.03 0.031 0.17l-0.545 4.04zm-14.21 0.3h-4.96c-0.1 0.05-0.191-0.07-0.191-0.07s-0.018-0.02-0.054-0.18l-0.648-3.05c-0.054-0.18-0.106-0.25-0.106-0.25s-0.137-0.09-0.307-0.09h-6.439c-0.127 0-0.217 0.09-0.217 0.09s-0.103 0.1-0.158 0.27l-1.461 3.11c-0.028 0.08-0.08 0.1-0.08 0.1s-0.114 0.04-0.17 0.04h-5.585c-0.124 0.03-0.181-0.06-0.181-0.06s-0.025-0.05 0.057-0.16l9.827-19.63c0.049-0.02 0.106-0.11 0.106-0.11s0.064-0.02 0.219-0.02h6.091c0.129 0 0.219 0.09 0.219 0.09s0.028 0.02 0.054 0.1l4.09 19.71c0 0.04-0.026 0.08-0.026 0.08s0 0.03-0.08 0.03m-23.211-0.03h-4.962-0.1524s-0.0336-0.04-0.0594-0.06l-6.8729-12.2c-0.062-0.06-0.0774-0.06-0.0774-0.06s-0.0543 0-0.0543 0.08l-1.7014 11.99c-0.0336 0.14-0.062 0.17-0.062 0.17s-0.06193 0.02-0.13164 0.02h-4.9417c-0.0774 0-0.1239-0.05-0.1239-0.05s-0.1059-0.11-0.0878-0.22l2.7109-19.41c0.0259-0.11 0.0801-0.13 0.0801-0.13s0.0774-0.09 0.1678-0.09h5.4993c0.0775 0 0.1214 0.07 0.1214 0.07s0.0645 0.02 0.0929 0.1l6.1994 10.88c0.095 0.22 0.183 0.19 0.183 0.19s0.093 0 0.134-0.25l1.57-10.82c0-0.08 0.052-0.1 0.052-0.1s0.028-0.07 0.108-0.07l5.177 0.07c0.105 0 0.144 0.02 0.144 0.02s0.016 0.02 0.016 0.08l-2.776 19.57c-0.028 0.11-0.093 0.18-0.093 0.18s-0.026 0.04-0.16 0.04m-21.659-0.06-4.8201 0.02c-0.106 0-0.194-0.04-0.194-0.04s-0.026-0.03-0.054-0.23l-0.751-3.11c0-0.08-0.052-0.1-0.052-0.1h-0.09-6.785c-0.145 0-0.22 0.1-0.22 0.1s-0.116 0.09-0.191 0.28l-1.355 2.89c-0.052 0.11-0.081 0.14-0.081 0.14s-0.082 0.05-0.165 0.05h-5.61c-0.15 0.02-0.186-0.05-0.186-0.05s-0.026-0.08 0.036-0.2l9.713-19.54c0.052-0.11 0.132-0.13 0.132-0.13h0.188 6.21c0.095 0 0.185 0.09 0.185 0.09s0.024 0.02 0.055 0.1l4.1694 19.6c0 0.08-0.0543 0.11-0.0543 0.11s-0.0258 0.02-0.08 0.02m36.714-14.26s-0.023 0-0.049 0.1l-2.706 6.13c-0.057 0.18-0.039 0.21-0.039 0.21s0.088 0.06 0.142 0.06l4.01-0.02h0.054s0.029-0.04 0-0.12l-1.358-6.29c-0.028-0.07-0.054-0.07-0.054-0.07m-44.945 0.07s-0.036 0-0.064 0.06l-2.691 6.15c-0.062 0.08-0.033 0.13-0.033 0.13s0.033 0.03 0.157 0.03l3.984 0.04c0.026 0 0.054-0.04 0.054-0.04s0.026-0.03 0-0.11l-1.381-6.2c0-0.06-0.026-0.06-0.026-0.06m-13.864 13.51c-0.024 0.23-0.135 0.38-0.135 0.38s-0.108 0.11-0.302 0.17c-2.605 1.06-5.486 0.7-5.486 0.7-4.689-0.51-7.666-3.39-8.629-7.08-1.396-5.56 1.392-9.51 2.068-10.36 1.648-1.96 4.235-3.37 6.747-3.7 3.217-0.47 5.602 0.3 6.576 0.63 0 0 1.084 0.34 1.897 0.89 0.408 0.27 0.46 0.38 0.46 0.38s0.028 0.05-0.077 0.48l-0.77 3.97c-0.026 0.17-0.129 0.26-0.129 0.26s-0.054 0.03-0.431-0.23c-2.437-1.72-5.29-1.51-5.29-1.51-2.159 0.15-4.671 1.28-5.435 4.15-0.677 2.55 0.026 4.67 1.539 5.95 1.043 0.88 2.628 1.35 4.304 1.27 1.843-0.13 3.31-0.87 3.199-0.81 0 0 0.082-0.03 0.17-0.06 0.374-0.19 0.452-0.16 0.452-0.16s0.085 0.08 0.028 0.33l-0.756 4.35z" fill="#fff"/>
  <g>
   <path d="m-48.531 259.22v-9.05h2.349v7.06h2.827v1.99h-5.176z"/>
   <path d="m-42.293 259.22v-9.05h5.137v1.99h-2.785v1.52h2.641v1.97h-2.641v1.58h2.785v1.99h-5.137z"/>
   <path d="m-29.375 256.23c0 0.65-0.117 1.21-0.352 1.63-0.273 0.54-0.72 0.94-1.35 1.23-0.545 0.25-1.159 0.37-1.83 0.37-0.667 0-1.333-0.15-2.045-0.43-0.346-0.15-0.635-0.28-0.814-0.41-0.087-0.07-0.175-0.12-0.284-0.21l0.997-1.88c0.713 0.63 1.41 0.93 2.078 0.93 0.328 0 0.579-0.07 0.783-0.2 0.235-0.16 0.348-0.4 0.348-0.7 0-0.25-0.113-0.47-0.377-0.64-0.113-0.09-0.302-0.16-0.547-0.25-0.093-0.03-0.245-0.07-0.483-0.14l-0.488-0.15c-0.299-0.08-0.583-0.2-0.893-0.37-0.705-0.35-1.053-1.03-1.053-2 0-0.92 0.284-1.65 0.846-2.21 0.571-0.56 1.322-0.85 2.228-0.85 0.971 0 1.942 0.24 2.869 0.75l-0.942 1.82c-0.491-0.41-1.005-0.61-1.537-0.61-0.248 0-0.48 0.05-0.674 0.19-0.222 0.15-0.338 0.34-0.338 0.6 0 0.25 0.178 0.46 0.496 0.61 0.101 0.06 0.472 0.19 1.141 0.39 0.728 0.23 1.286 0.53 1.629 0.91 0.395 0.4 0.592 0.96 0.592 1.62"/>
   <path d="m-18.944 258.8c0 0.14-0.105 0.25-0.338 0.33-0.64 0.23-1.229 0.33-1.779 0.33-0.841 0-1.644-0.21-2.408-0.63-1.552-0.86-2.407-2.3-2.407-4.07 0-0.97 0.269-1.85 0.788-2.65 0.532-0.8 1.247-1.39 2.132-1.76 0.584-0.26 1.196-0.38 1.864-0.38 0.447 0 0.927 0.08 1.451 0.21 0.153 0.04 0.282 0.08 0.375 0.13l0.142 0.07c0.103 0.04 0.162 0.13 0.162 0.24v2.32c0 0.07-0.018 0.09-0.059 0.09-0.013 0-0.046-0.02-0.103-0.07-0.186-0.18-0.444-0.32-0.798-0.45-0.374-0.12-0.713-0.18-0.997-0.18-1.05 0-1.926 0.55-2.326 1.48-0.139 0.31-0.196 0.63-0.196 0.99 0 0.68 0.258 1.24 0.756 1.66 0.47 0.4 1.051 0.61 1.738 0.61 0.782 0 1.379-0.22 1.833-0.66 0.039-0.05 0.072-0.08 0.093-0.08 0.059 0 0.077 0.08 0.077 0.23v2.24z"/>
   <path d="m-11.753 259.22v-3.74h-3.395v3.74h-2.352v-9.05h2.352v3.51h3.395v-3.51h2.3499v9.05h-2.3499z"/>
   <path d="m-4.0839 252.96-0.976 2.89h1.9416l-0.9656-2.89zm2.2023 6.26-0.5861-1.57h-3.2531l-0.6171 1.57h-2.4812l3.4726-9.05h2.5561l3.4106 9.05h-2.5018z"/>
   <path d="m1.3273 250.17h2.3521v9.05h-2.3521v-9.05z"/>
   <path d="m12.224 259.22-4.3142-5.54v5.54h-2.3521v-9.05h2.3521l4.3142 5.54v-5.54h2.352v9.05h-2.352z"/>
   <path d="m16.305 259.22v-9.05h5.138v1.99h-2.789v1.52h2.649v1.97h-2.649v1.58h2.789v1.99h-5.138z"/>
   <path d="m29.05 256.23c0 0.65-0.113 1.21-0.343 1.63-0.279 0.54-0.721 0.94-1.356 1.23-0.544 0.25-1.167 0.37-1.825 0.37-0.669 0-1.34-0.15-2.058-0.43-0.338-0.15-0.627-0.28-0.805-0.41-0.078-0.07-0.176-0.12-0.282-0.21l0.997-1.88c0.712 0.63 1.397 0.93 2.076 0.93 0.33 0 0.578-0.07 0.787-0.2 0.22-0.16 0.346-0.4 0.346-0.7 0-0.25-0.126-0.47-0.377-0.64-0.119-0.09-0.294-0.16-0.552-0.25-0.091-0.03-0.24-0.07-0.481-0.14l-0.49-0.15c-0.292-0.08-0.589-0.2-0.888-0.37-0.715-0.35-1.064-1.03-1.064-2 0-0.92 0.294-1.65 0.855-2.21 0.57-0.56 1.319-0.85 2.23-0.85 0.968 0 1.932 0.24 2.866 0.75l-0.945 1.82c-0.496-0.41-0.996-0.61-1.531-0.61-0.248 0-0.48 0.05-0.676 0.19-0.225 0.15-0.333 0.34-0.333 0.6 0 0.25 0.162 0.46 0.495 0.61 0.088 0.06 0.468 0.19 1.131 0.39 0.739 0.23 1.289 0.53 1.635 0.91 0.387 0.4 0.588 0.96 0.588 1.62"/>
  </g>
 </g>
</svg>
