<svg version="1.1" viewBox="0 0 704.47 265" xml:space="preserve" xmlns="http://www.w3.org/2000/svg">
<path class="st1" d="m53.26 0h-53.26v26.467h107.5c-7.842-17.971-28.427-26.467-54.24-26.467m50.319 67.964h-103.58v-26.467h110.44v3.2675c0.32675 8.1687-1.9605 16.337-6.8617 23.199m-103.58 14.704v26.14h96.718l-16.338-26.14zm0 41.497h105.87l16.338 26.467h-122.2zm198.66 70.251h-13.07l-7.1885-8.8222h10.456l3.5942 5.5548 2.9407-5.5548h10.783zm261.73 38.23c0 6.2082-2.2872 12.416-8.8222 12.416s-8.8222-6.2082-8.8222-11.763 1.9605-11.763 9.149-11.763 8.4955 5.5548 8.4955 11.11m11.109 0.6535c0-11.763-7.1885-20.585-19.605-20.585-10.783-0.6535-20.258 7.5152-21.239 18.298v2.9408c0 12.09 7.842 20.585 19.605 20.585 11.11 0.32675 20.585-8.4955 20.912-19.605 0.6535-0.6535 0.6535-1.307 0.32675-1.6338m-42.477-10.129v-10.129h-1.9605c-4.5745-0.32675-8.8222 2.614-10.456 6.8618v-6.2082h-10.783v39.21h11.436v-18.625c0-6.535 0.98025-11.436 8.8222-11.436l2.9408 0.32675m-85.282 29.407-16.337-24.506 15.357-14.704h-14.377l-12.09 13.397v-27.447h-11.436v53.587h11.436v-13.07l3.5942-3.5942 9.8025 16.664zm-44.765-12.09c0-9.8025-10.129-11.436-17.318-13.07-2.2872-0.32675-6.8618-0.98025-6.8618-3.921s3.2675-2.9408 5.228-2.9408c2.2872 0 4.5745 0.6535 6.2082 2.2872 0.6535 0.98025 0.98025 1.9605 0.98025 3.2675l10.456-0.6535c-0.32675-9.4758-8.4955-13.397-17.318-13.397-8.8222 0-16.011 2.9408-16.011 12.416 0 15.357 23.199 9.8025 23.199 16.991 0 7.1885-3.2675 3.2675-5.5547 3.2675-2.2872 0-7.842-1.307-8.4955-6.535h-10.783c0 1.307 0 2.2872 0.32675 3.5942 2.2872 8.1687 10.456 10.783 18.298 10.783 7.842 0 17.644-1.9605 17.644-12.09m-50.973-13.397h-15.684c0.6535-4.2478 4.2478-7.1885 8.4955-6.535 3.5942 0 6.8618 2.9408 7.1885 6.535m11.436 8.8222v-1.6338c0-12.09-6.2082-22.219-19.278-22.219-13.07 0-19.932 9.149-19.932 20.912 0 11.763 7.5152 20.912 19.932 20.912 8.4955 0.6535 16.011-4.5745 18.952-12.416l-11.11-1.307c-1.307 2.9407-4.2478 4.5745-7.5152 4.2477-4.5745 0-8.4955-3.921-8.4955-8.4955zm-41.497-1.6338-12.416-0.6535c-0.6535 5.8815-5.5548 10.129-11.436 9.8025-2.9407 0-5.8815-0.98024-8.1687-2.9407-3.921-3.921-5.8815-9.4758-5.228-15.03 0-8.8222 3.5942-17.644 13.723-17.644 3.921-0.32675 7.842 1.6338 9.8025 5.228 0.6535 0.98025 0.98025 1.9605 1.307 2.9408l12.09-0.98025c-0.32675-0.98025-0.6535-2.2872-1.307-3.2675-2.9408-9.8025-12.743-14.05-22.219-14.05-16.664 0-26.794 11.436-26.794 28.1 0 11.436 5.228 22.219 16.338 26.467 3.2675 1.307 6.8618 1.9605 10.456 1.9605 8.4955 0.6535 16.991-3.5942 21.239-11.11 1.307-2.9407 2.2872-5.8815 2.614-8.8222m382.95 5.228c-1.9605 3.2675-5.5547 5.228-9.149 4.9012-2.614 0.32675-4.9012-1.307-5.5548-3.921 0-4.9012 8.1688-5.228 11.763-5.8815l2.9407-0.98025zm10.783-9.149c0.6535-3.5942 0.32675-7.1885-0.98025-10.456-2.614-6.8618-10.129-7.842-16.664-7.842-6.535 0-16.338 3.921-16.991 13.397h10.456c0-3.921 3.921-4.9012 6.8618-4.9012s6.2082 0.6535 6.2082 3.5942-4.2477 2.614-6.2082 2.9408c-8.4955 1.307-19.278 2.2872-19.278 13.397-0.32675 6.8617 5.228 12.416 12.09 12.743h0.32675 0.98025c4.5745 0 8.8222-1.6338 12.416-4.5745v3.5942h10.456zm41.824 9.8025c0-9.8025-9.4757-11.436-17.318-13.07-1.9605-0.32675-6.535-0.98025-6.535-3.921s2.9408-2.9408 5.228-2.9408 4.2478 0.6535 5.8815 2.2872c0.6535 0.98025 1.307 1.9605 1.307 3.2675h10.456c-0.32675-9.4758-8.4955-13.397-17.318-13.397s-16.338 2.9408-16.338 12.416c0 15.357 23.526 9.8025 23.526 16.991 0 7.1885-3.2675 3.2675-5.8815 3.2675s-7.842-1.307-8.4955-6.2082h-10.456c0 1.307 0 2.2872 0.32675 3.5942 1.9605 8.1687 10.129 10.783 17.971 10.783s17.644-2.614 17.644-13.07m-84.628 12.743h-11.11v-53.587h11.11zm-30.061 0v-21.892c0.32675-2.614-0.32675-5.228-1.6338-7.5152-0.98025-0.98025-2.614-1.307-3.921-1.307-1.6338 0-2.9408 0.32675-4.2478 1.307-2.2872 2.614-3.2675 5.8815-2.614 9.149v20.258h-10.783v-53.587h10.783v18.298c2.614-3.2675 6.535-4.9012 10.783-4.9012 2.614 0 5.5548 0.6535 7.842 1.9605 4.5745 3.2675 5.228 7.842 5.228 13.07v25.16zm-64.37 0v-8.4955l19.605-21.565h-17.318v-9.149h31.041v9.149l-18.952 21.239h20.258v9.149zm-98.678-55.874h-13.397l-5.5548 11.436h8.8222zm4.5745 16.664h-12.09l-6.2082 26.467-7.1885-26.467h-12.09l11.436 31.695c0.6535 1.9605 1.307 3.921 1.6338 5.8815 0 1.307-0.6535 2.9408-1.6338 3.921l-4.5745 0.98025h-2.9408v8.8222h2.9408c4.9012 0 10.783 0.32675 14.377-3.921 1.6338-2.614 2.9408-5.5548 3.921-8.4955zm301.26-94.757c-0.6535 8.1688-7.842 14.377-16.011 14.05-13.724 0-16.991-13.397-16.991-24.833 0-11.436 3.921-23.526 17.318-23.526 7.5152-0.6535 14.377 5.228 15.03 12.743l22.546-1.307c-0.98025-20.585-19.605-31.041-36.923-31.041-26.793 0-42.477 18.298-42.477 44.111 0 25.813 14.704 43.784 41.17 43.784 20.258 0 34.962-10.456 39.21-33.328zm-122.53-20.912c2.614-9.8025 7.842-14.377 17.644-14.377 8.1688-0.32675 15.03 6.2082 15.357 14.377zm57.835 17.971v-3.921c0-25.486-13.07-46.725-40.844-46.725s-42.151 19.278-42.151 43.784c0 24.506 15.684 44.111 42.151 44.111 18.298 0 33.982-8.4955 39.863-26.794l-23.526-1.6338c-2.9408 5.8815-9.149 9.149-15.684 8.8222-10.783 0-16.664-7.5152-17.971-17.644zm-112.08-48.032h-22.872v82.668h23.853v-41.17c0-9.8025 1.9605-22.219 18.951-22.219h5.5548v-21.565h-4.2478c-9.8025 0-16.991 3.5942-21.565 15.357v-13.07zm-92.47 30.061c2.614-9.8025 7.842-14.377 17.971-14.377 8.1688-0.32675 14.704 6.2082 15.03 14.377zm58.161 17.971v-3.921c0-25.486-13.07-46.725-40.517-46.725-27.447 0-41.824 19.278-41.824 43.784 0 24.506 15.357 44.111 41.824 44.111 18.298 0 33.982-8.4955 39.863-26.794l-23.853-1.6338c-2.9408 5.8815-8.8222 9.149-15.357 8.8222-11.109 0-16.664-7.5152-18.298-17.644zm-115.02-8.1687c0 10.783-2.9408 25.486-16.664 25.486-13.723 0-16.991-13.07-16.991-24.833 0-11.763 3.5942-23.526 17.318-23.526 13.724 0 16.338 12.416 16.338 22.872m-56.528-70.578v113.06h23.199s-0.32675-5.5548-0.32675-8.4955c5.5548 6.8618 13.723 11.11 22.546 11.11 25.486 0 35.289-23.199 35.289-45.418 0-22.219-10.783-42.151-35.289-42.151-8.1688 0-16.011 2.9408-21.892 8.4955v-36.596zm-15.684 0h-23.199v21.239h23.199zm0 30.388h-23.199v82.668h23.199zm-86.262 61.756v-92.143h-25.486v113.06h78.747v-21.239z" fill="#00ab96" stroke-width="3.2675" Googl="true"/>
</svg>
