<svg width="211.67mm" height="97.765mm" version="1.1" viewBox="0 0 211.67 97.765" xmlns="http://www.w3.org/2000/svg" xmlns:xlink="http://www.w3.org/1999/xlink">
 <defs>
  <linearGradient id="a">
   <stop stop-color="#ee9a05" offset="0"/>
   <stop stop-color="#f6da0a" offset="1"/>
  </linearGradient>
  <linearGradient id="g" x1="122.73" x2="139.93" y1="28.648" y2="28.651" gradientTransform="matrix(1.4617 0 0 1.4617 -35.104 -17.94)" gradientUnits="userSpaceOnUse">
   <stop stop-color="#ee9a05" offset="0"/>
   <stop stop-color="#f6da0a" offset="1"/>
  </linearGradient>
  <linearGradient id="f" x1="102.68" x2="115.29" y1="50.245" y2="50.012" gradientTransform="matrix(1.4617 0 0 1.4617 -42.165 5.069)" gradientUnits="userSpaceOnUse" xlink:href="#a"/>
  <linearGradient id="e" x1="97.673" x2="115.29" y1="50.245" y2="50.012" gradientTransform="matrix(1.4617 0 0 1.4617 -104.04 5.069)" gradientUnits="userSpaceOnUse" xlink:href="#a"/>
  <linearGradient id="d" x1="97.673" x2="115.29" y1="50.245" y2="50.012" gradientTransform="matrix(1.4617 0 0 1.4617 -139.14 5.069)" gradientUnits="userSpaceOnUse" xlink:href="#a"/>
  <linearGradient id="c" x1="96.411" x2="113.42" y1="50.222" y2="50.107" gradientTransform="matrix(1.3965 0 0 1.4617 -162.53 5.069)" gradientUnits="userSpaceOnUse" xlink:href="#a"/>
  <linearGradient id="b" x1="208.81" x2="424.08" y1="151.94" y2="149.08" gradientTransform="matrix(.38674 0 0 .38674 -35.104 -17.94)" gradientUnits="userSpaceOnUse">
   <stop stop-color="#02d1ff" offset="0"/>
   <stop stop-color="#42f9fc" offset="1"/>
  </linearGradient>
 </defs>
 <g transform="translate(29.803 10.026)" opacity=".997">
  <path d="m46.813 26.421-11.815 38.112h36.012l-6.8904 23.066 28.041 0.13823 16.904-56.95c0.85184-2.8335-0.83458-4.3675-2.7284-4.3675h-23.942l-8.3346 27.901h-8.2636l7.1034-23.533c0.85185-2.8335-0.83534-4.3675-2.7291-4.3675zm-49.137-35.278h28.016l-18.809 62.992h29.098l-3.9286 10.399h-56.291z" fill="url(#b)" opacity=".99383" stroke-width="4.5153"/>
  <path d="m153.64-10.026-22.074 74.56h28.256l22.038-74.56zm-23.197 81.236-4.9166 16.333h23.051c3.6904-0.05476 5.5354-3.9736 6.9093-8.9774l2.112-7.3557z" fill="url(#g)" opacity=".99383" stroke-width="3.3986"/>
  <path d="m127.09 71.209-4.736 16.334h-27.756l5.2369-16.333zm9.5959-44.789c1.8938-2.6e-5 3.5806 1.5344 2.7288 4.368l-9.9991 33.745h-27.756l11.815-38.113z" fill="url(#f)" opacity=".99383" stroke-width="4.5153"/>
  <path d="m65.216 71.209-4.736 16.334h-27.756l5.2369-16.333z" fill="url(#e)" opacity=".99383" stroke-width="4.5153"/>
  <path d="m30.116 71.209-4.736 16.334h-27.756l5.2369-16.333z" fill="url(#d)" opacity=".99383" stroke-width="4.5153"/>
  <path d="m-0.82369 71.209-4.8164 16.334h-17.478c-1.2208 0.04883-8.9092-1.6261-6.0547-9.2542l2.3098-7.0792z" fill="url(#c)" opacity=".99383" stroke-width="4.4134"/>
 </g>
</svg>
