<svg width="200mm" height="210.357" viewBox="0 0 200 55.657" xmlns="http://www.w3.org/2000/svg">
    <g fill="#cd181f">
        <path d="M171.797 4.26h-5.108l2.04-4.259h21.813c-1.541 4.414-3.087 9.265-4.122 12.917L194.526.001h5.477l-16.496 24.175h-6.752l5.552-19.923c-1.094 0-2.051-.073-2.985.042-.302.037-.63.525-.799.876-2.911 6.062-6.106 12.924-8.976 19.005h-7.239l9.49-19.916z" stroke-width=".776"/>
        <path d="M17.18 52.897C8.593 51.363 3.044 47.077.561 40.059c-.772-2.182-.732-8.656.08-12.934C2.446 17.619 6.477 8.9 11.406 3.842c1.101-1.13 2.112-2.34 2.245-2.687.41-1.07 1.33-1.126 4.189-.257 3.314 1.006 7.625 3.786 8.128 5.24.54 1.56.157 2.478-3.377 8.091-6.353 10.091-9.088 17.729-9.067 25.322.02 7.322 3.19 9.598 12.066 8.661 2.204-.232 5.185-.786 6.624-1.23l2.617-.809.23-1.944c.376-3.172 2.082-7.727 5.812-15.517 1.933-4.037 3.616-7.653 3.74-8.035.153-.476.634-.693 1.526-.69 2.363.006 7.926 3.124 8.434 4.726.132.414-1.29 3.792-3.53 8.397-4.086 8.39-5.784 12.998-5.784 15.69 0 1.877.256 2.034 1.917 1.175 3.49-1.805 7.534-8.523 7.904-13.133.14-1.737.374-2.575.72-2.575 1.113 0 3.346 4.414 3.346 6.613 0 2.456-3.548 6.893-7.833 9.796-4.9 3.319-7.939 3.377-12.538.24l-2.318-1.58-1.172.986c-2.004 1.686-5.908 2.662-11.254 2.813-2.62.075-5.702-.033-6.85-.238zM53.94 19.035c-3.635-1.3-5.73-3.961-5.403-6.865.56-4.972 5.081-5.447 9.136-.959 1.903 2.107 2.185 3.28 1.114 4.642-.459.582-.833 1.551-.833 2.153 0 1.63-1.36 1.978-4.014 1.03zM72.66 54.887c-4.508-1.621-7.942-4.782-10.234-9.422-1.489-3.013-1.495-3.048-1.46-7.808.03-4 .211-5.364 1.116-8.352 4.943-16.333 13.652-26.83 22.795-27.479 3.388-.24 8.82.43 11.9 1.468l2.414.813 1.854-1.983c1.02-1.09 2.206-1.983 2.634-1.983 2.358 0 5.407 2.881 6.251 5.907l.4 1.433-5.543 5.38c-4.007 3.889-5.772 5.895-6.368 7.244-.752 1.7-.92 1.842-1.896 1.616-3.93-.91-4.554-3.653-2.073-9.125.66-1.455 1.2-2.71 1.2-2.789 0-.413-1.626-.025-3.444.821-2.716 1.265-7.731 6.102-10.829 10.445-2.882 4.041-6.196 10.457-7.735 14.977-1.274 3.74-1.767 9.202-1.031 11.431 2.425 7.349 13.839 2.195 17.888-8.077.459-1.164.861-2.797.895-3.628.034-.855.261-1.512.524-1.512.255 0 1.2.735 2.098 1.634 1.42 1.42 1.634 1.863 1.634 3.384 0 3.745-4.22 9.511-9.56 13.06-5.003 3.326-9.097 4.102-13.43 2.544zM122.878 54.317c-3.11-1.109-6.255-4.418-7.048-7.418-.752-2.844.544-7.433 4.227-14.97 1.642-3.361 2.873-6.219 2.736-6.35-.47-.454-4.336 4.257-7.014 8.551-3.512 5.63-7.313 13.278-7.933 15.962-.63 2.726-1.572 3.441-3.758 2.853-.849-.23-2.381-.97-3.404-1.649-3.982-2.637-4.635-5.236-2.738-10.894 3.503-10.446 15.858-35.499 17.506-35.499 2.63 0 7.574 5.239 7.574 8.027 0 .503-2.336 5.197-5.192 10.432-7.332 13.44-10.256 19.397-9.762 19.89.084.084 1.19-1.68 2.458-3.92 3.351-5.921 7.717-12.492 9.902-14.904 2.09-2.306 3.599-3.257 5.169-3.257 2.315 0 6.7 3.197 7.925 5.778.824 1.737.715 2.104-3.183 10.733-3.139 6.95-4.54 10.991-4.54 13.092 0 1.608.474 1.685 2.213.359 1.523-1.162 5.23-6.551 5.553-8.074.6-2.828 2.534-7.676 5.723-14.348 1.93-4.037 3.607-7.653 3.727-8.035.715-2.28 10.163 2.076 10.163 4.685 0 .282-1.703 3.963-3.783 8.18-2.081 4.218-4.224 9.062-4.762 10.764-1.014 3.209-1.286 6.23-.562 6.23 1.467 0 5.194-3.392 7.044-6.408 1.345-2.195 2.46-5.791 2.46-7.94 0-1.344.16-1.92.533-1.92 1.184 0 2.921 3.005 3.289 5.688.339 2.471-.627 4.267-4.193 7.802-3.285 3.256-6.5 5.136-9.33 5.455-2.362.266-6.294-1.56-8.71-4.046l-1.764-1.816-.886 1.295c-1.327 1.941-4.39 5.051-5.604 5.69-1.312.69-2.056.687-4.036-.018zM152.342 19.035c-3.654-1.306-5.782-4.189-5.328-7.218.533-3.553 2.817-4.657 6.135-2.964 1.817.927 4.794 4.185 4.794 5.246 0 .415-.382 1.27-.847 1.9-.466.63-.742 1.42-.612 1.758.306.799-.745 1.83-1.843 1.808-.476-.01-1.51-.248-2.3-.53z" fill-rule="evenodd"/>
    </g>
</svg>
