<svg width="976.253" height="800.16" viewBox="0 0 732.19 600.12" xmlns="http://www.w3.org/2000/svg">
    <path d="M300.323 0C134.573-.113.153 134.09.003 299.8c-.15 165.75 134.09 300.17 299.8 300.32 165.75.15 300.17-134.09 300.32-299.8C600.273 134.57 466.033.15 300.323 0z" fill="#ef3749"/>
    <path d="M61.287 324.552l.075-64.026h-15.34l-.038 78.653 50.373.038v-14.628zM114.023 260.562h15.528v78.691h-15.528zM163.613 339.292v-30.644l30.531.037v-14.102l-30.606-.038v-19.391l34.394.037V260.64l-49.698-.038-.037 78.653zM215.523 339.332l49.285.037v-14.44h-33.944v-18.228l30.756.037v-13.653h-30.719v-18.004l33.944.037.038-14.402-49.285-.075zM321.703 339.402l.075-64.138 24.868.037V260.75l-65.15-.038v14.515l24.867.037-.075 64.139zM364.273 260.792h15.528v78.653h-15.528zM465.353 260.862l-23.105 56.787-23.592-56.824-20.179-.037-.075 78.69h14.628l.075-54.686 22.58 54.724h12.753l22.692-55.136-.037 55.136 15.078.038.037-78.691zM554.133 275.342v-14.403l-49.248-.038-.075 78.653 49.248.038.038-14.44h-33.944v-18.191h30.719v-13.615l-30.72-.037.038-17.967z" fill="#fff"/>
    <g fill="#ef3749">
        <path d="M715.43 261.08h16.761v78.47h-18.79v-57.5l-14.61 11.29-9.74-13.34zM637.19 275.82h14.62v23.25h23.63v13.5h-23.63v23.24h-14.62v-23.24h-23.51v-13.5h23.51v-23.25z"/>
    </g>
</svg>
