<svg enable-background="new 0 0 99 36.27" Googl="true" version="1.1" viewBox="0 0 1367.3 380.64" xml:space="preserve" xmlns="http://www.w3.org/2000/svg">

<g><g transform="matrix(10.769 0 0 10.769 .53845 -.010769)" fill="#2ea4e2">
	<path d="m22.983 4.562c-1.254 0-2.28-1.027-2.28-2.281 0-1.253 1.026-2.28 2.28-2.28s2.281 1.027 2.281 2.28-1.027 2.281-2.281 2.281m1.9 23.335h-3.801v-18.396c0-1.139-0.875-2.014-1.9-2.014v-0.115h1.9c2.433 0 3.801 1.369 3.801 3.803z"/>
	<path d="m47.156 7.372-7.069 20.525h-4.105l-6.728-18.623c-0.342-0.988-1.254-1.787-1.9-1.787v-0.115h2.052c2.015 0 3.649 0.838 4.333 2.814l5.815 16.723 6.652-19.537z"/>
	<path d="m52.668 4.562c-1.254 0-2.281-1.027-2.281-2.281 0-1.253 1.027-2.28 2.281-2.28s2.279 1.027 2.279 2.28-1.025 2.281-2.279 2.281m1.9 23.335h-3.802v-18.396c0-1.139-0.873-2.014-1.899-2.014v-0.115h1.899c2.433 0 3.802 1.369 3.802 3.803z"/>
	<path d="m76.575 27.897h-3.802v-14.631c0-2.433-1.9-4.372-4.332-4.372-2.279 0-4.143 1.711-4.297 4.372h-0.074c0-3.46 2.242-6.272 6.271-6.272 3.457 0 6.233 2.813 6.233 6.272v14.631zm-12.886 0h-3.801v-18.396c0-1.139-0.873-2.014-1.9-2.014v-0.115h1.9c2.205 0 3.801 1.711 3.801 3.803z"/>
	<path d="m99 7.487c-1.025 0-1.901 0.837-1.901 1.9v18.929c0 3.877-3.571 7.031-7.981 7.031-2.203 0-4.028-0.722-5.435-1.862l0.076-0.113c0.911 0.531 2.052 0.911 3.155 0.911 3.534 0 6.385-2.698 6.385-6.005v-17.103c0-2.09 1.255-3.803 3.8-3.803h1.901zm-5.892 2.434c-0.797-0.836-2.128-1.711-3.343-1.711-4.941 0-6.311 5.474-6.311 9.426 0 3.953 1.407 9.426 6.121 9.426 1.329 0 2.433-0.646 3.306-1.559v0.189c-1.256 1.635-2.508 2.586-5.209 2.586-5.928 0-8.056-5.549-8.056-10.643 0-5.093 2.128-10.643 8.056-10.643 2.093 0 3.842 0.799 5.437 2.736v0.193z"/>
	<path d="m17.282 23.718c-1.216 2.736-2.167 3.42-4.751 3.42h-6.88v-23.274c0-2.433-1.254-3.801-3.801-3.801h-1.9v0.114c1.026 0 1.9 0.836 1.9 1.9v25.82h15.089l0.532-4.18h-0.189z"/>
</g><path d="m1107.6 2.0877h259.67l-26 141.79h-257.67z" fill="#2ea4e2" fill-rule="evenodd" opacity=".993" stroke-width="1.7121"/><g transform="scale(.94469 1.0586)" fill="#fff" aria-label="HD"><path d="m1185.5 21.784h35.738v34.821h25.956v-34.821h35.877v99.508h-35.877v-40.251h-25.956v40.251h-35.738z" stroke-width="2.014"/><path d="m1299.1 21.784h49.355q14.594 0 23.54 3.6654 9.0201 3.6654 14.887 10.521 5.8668 6.8556 8.5069 15.951 2.64 9.0956 2.64 19.277 0 15.951-3.9601 24.775-3.8868 8.7562-10.854 14.729-6.9669 5.9053-14.96 7.8738-10.927 2.7151-19.8 2.7151h-49.355zm33.221 22.535v54.37h8.1402q10.414 0 14.814-2.1042 4.4001-2.1721 6.8935-7.4665 2.4935-5.3623 2.4935-17.309 0-15.815-5.5735-21.653t-18.48-5.8375z" stroke-width="2.0682"/></g></g></svg>
