<svg version="1.1" viewBox="0 0 1137.8 750.8" xml:space="preserve" xmlns="http://www.w3.org/2000/svg" xmlns:xlink="http://www.w3.org/1999/xlink">
	<defs>
		<linearGradient id="c">
			<stop stop-color="#fff" stop-opacity=".9797" offset="0"/>
			<stop stop-color="#fff9ea" stop-opacity=".51292" offset=".29405"/>
			<stop stop-color="#fdf6e2" stop-opacity=".28413" offset=".42782"/>
			<stop stop-color="#feedd3" stop-opacity=".27491" offset=".44024"/>
			<stop stop-color="#feeed5" stop-opacity=".10701" offset=".59954"/>
			<stop stop-color="#fffffe" stop-opacity="0" offset=".68763"/>
			<stop stop-color="#fff" stop-opacity="0" offset="1"/>
		</linearGradient>
		<linearGradient id="b">
			<stop stop-color="#f6a121" offset="0"/>
			<stop stop-color="#f29620" offset=".18396"/>
			<stop stop-color="#ef8b20" offset=".40016"/>
			<stop stop-color="#e9821d" offset=".53659"/>
			<stop stop-color="#e37a1b" offset=".64888"/>
			<stop stop-color="#cf6715" offset=".86187"/>
			<stop stop-color="#c96114" offset="1"/>
		</linearGradient>
		<linearGradient id="a">
			<stop stop-color="#9d9d9c" offset="0"/>
			<stop stop-color="#b8b7b7" offset=".10132"/>
			<stop stop-color="#ccc" offset=".19954"/>
			<stop stop-color="#cfcfcf" offset=".20881"/>
			<stop stop-color="#d0d0d0" offset=".21608"/>
			<stop stop-color="#d3d3d3" offset=".23562"/>
			<stop stop-color="#d6d6d6" offset=".26919"/>
			<stop stop-color="#d7d7d7" offset=".31004"/>
			<stop stop-color="#ddd" offset=".50915"/>
			<stop stop-color="#f1f1f1" offset="1"/>
		</linearGradient>
		<linearGradient id="d" x1="240.62" x2="198.35" y1="11.085" y2="36.218" gradientTransform="matrix(3.778 0 0 3.7922 1.9513 -25.846)" gradientUnits="userSpaceOnUse" xlink:href="#a"/>
		<linearGradient id="e" x1="270.78" x2="229.43" y1="36.126" y2="14.995" gradientTransform="matrix(3.778 0 0 3.7922 1.9513 -25.846)" gradientUnits="userSpaceOnUse" xlink:href="#b"/>
		<linearGradient id="g" x1="240.62" x2="198.35" y1="11.085" y2="36.218" gradientTransform="matrix(-6.8518 0 0 -6.8689 1868.1 797.61)" gradientUnits="userSpaceOnUse" xlink:href="#a"/>
		<linearGradient id="h" x1="270.78" x2="229.43" y1="36.126" y2="14.995" gradientTransform="matrix(-6.8518 0 0 -6.8689 1868.1 797.61)" gradientUnits="userSpaceOnUse" xlink:href="#b"/>
		<radialGradient id="f" cx="262.89" cy="79.2" r="19.174" gradientTransform="matrix(-1.1556 -16.961 13.55 -.9866 296.55 4963.2)" gradientUnits="userSpaceOnUse" xlink:href="#c"/>
		<radialGradient id="i" cx="262.98" cy="79.231" r="19.174" gradientTransform="matrix(1.6984 30.192 -24.593 1.4917 1439.9 -8076.1)" gradientUnits="userSpaceOnUse" xlink:href="#c"/>
	</defs>
	<path d="m234.06 291.45v-124.33h33.464v95.833h63.83v28.492zm245.59-62.212q0 14.034-5.3559 25.793-5.1498 11.758-14.832 20.482-9.4758 8.5343-22.659 13.465-13.184 4.7413-28.839 4.7413-15.862 0-29.045-4.7413-12.978-4.931-22.659-13.465-9.4757-8.724-14.832-20.482-5.1499-11.758-5.1499-25.793 0-13.845 5.1499-25.603 5.3558-11.948 14.832-20.482 9.6817-8.724 22.659-13.465 13.184-4.931 29.045-4.931 15.656 0 28.839 4.931 13.184 4.7413 22.659 13.465 9.6818 8.5343 14.832 20.482 5.3559 11.758 5.3559 25.603zm-71.686 36.034q8.6517 0 15.656-2.6551 7.0038-2.6551 11.948-7.3964 4.9439-4.931 7.6218-11.569 2.6778-6.6378 2.6778-14.414t-2.6778-14.414q-2.678-6.6378-7.6218-11.379-4.9438-4.9309-11.948-7.5861-7.0039-2.6551-15.656-2.6551-8.6517 0-15.656 2.6551-7.0038 2.6551-11.948 7.5861-4.9438 4.7413-7.6217 11.379-2.6779 6.6378-2.6779 14.414t2.6779 14.414q2.6779 6.6378 7.6217 11.569 4.9439 4.7413 11.948 7.3964 7.0039 2.6551 15.656 2.6551zm190.5-51.016q-4.1226-9.6722-13.192-15.362-8.8637-5.6896-21.644-5.6896-8.6576 0-15.666 2.6551-7.0085 2.6551-11.956 7.5861-4.9472 4.7413-7.6269 11.379t-2.6797 14.414 2.6797 14.414 7.6269 11.569q4.9472 4.7413 11.956 7.3964 7.0085 2.6551 15.666 2.6551 12.78 0 21.644-5.6896 9.0698-5.6896 13.192-15.362h35.249q-2.4736 11-8.8636 20.103-6.184 9.1033-15.254 15.741-9.0698 6.4482-20.819 10.052-11.543 3.6034-25.148 3.6034-15.872 0-29.065-4.7413-12.986-4.931-22.675-13.465-9.4821-8.724-14.842-20.482-5.1533-11.758-5.1533-25.793 0-13.845 5.1533-25.603 5.3595-11.948 14.842-20.482 9.6882-8.724 22.675-13.465 13.192-4.931 29.065-4.931 13.605 0 25.148 3.6034 11.75 3.6034 20.819 10.241 9.0698 6.4482 15.254 15.551 6.3901 9.1033 8.8636 20.103z" fill="#F3F3F3"/>
	<path d="m732.47 291.45v-35.33h-52.581v35.33h-32.341v-72.18c0-16.969 4.9885-30.265 14.966-39.889 10.114-9.7506 24.738-14.626 43.872-14.626 19.271 0 33.963 4.8753 44.077 14.626 10.114 9.6239 15.22 22.92 15.22 39.889v72.18zm0-72.18c0-8.6109-2.168-15.069-6.4048-19.374-4.1001-4.4321-10.729-6.6481-19.886-6.6481-9.0204 0-15.649 2.216-19.886 6.6481-4.2368 4.3054-6.4051 10.764-6.4051 19.374v10.307h52.581z" fill="#F3F3F3"/>
	<path d="m788.88 291.45v-124.33h33.361v95.833h63.633v28.492z" fill="#F3F3F3"/>
	<path d="m462.63 523.44-67.656-182.06h52.594l42.317 128.68h0.60452l42.317-128.68h51.385l-67.656 182.06zm-180.6 0v-140.48h-53.28v-41.58h156.47v41.58h-53.882v140.48z" fill="#F3F3F3"/>
	<path d="m935.48 87.741v-78.914l-40.222-8.0187h-85.977c-15.701 0-40.702 3.6821-60.236 25.949-19.707 25.112-18.565 41.33-18.565 60.984z" fill="url(#d)"/>
	<path d="m978.63 414.44c28.978 0 52.795-24.849 52.878-53.819l0.7615-265.82c0.0684-23.893-4.9373-39.172-12.947-52.246-23.148-37.785-64.167-42.558-101.4-42.558l-30.532 0.4519c10.73 3.9765 31.29 13.083 38.72 33.875 3.4185 9.5658 5.3203 22.665 4.9279 41.297l-5.8527 286.87c-0.46102 22.597 19.445 51.956 53.44 51.956z" fill="url(#e)"/>
	<path d="m978.63 414.44c28.978 0 52.795-24.849 52.878-53.819l0.7615-265.82c0.0684-23.893-4.9373-39.172-12.947-52.246-23.148-37.785-64.167-42.558-101.4-42.558l-30.532 0.4519c10.73 3.9765 31.29 13.083 38.72 33.875 3.4185 9.5658 5.3203 22.665 4.9279 41.297l-5.8527 286.87c-0.46102 22.597 19.445 51.956 53.44 51.956z" fill="url(#f)"/>
	<path d="m175.04 591.87v142.94l72.947 14.524h155.93c28.476 0 73.817-6.6694 109.24-47.001 35.74-45.485 33.67-74.862 33.67-110.46z" fill="url(#g)"/>
	<path d="m96.479 0.51977c-52.554 0-95.615 44.607-95.699 97.081l-0.7795 483.79c0 26.586 2.622 45.525 9.3043 63.512 7.0827 18.833 13.393 30.463 29.474 50.562 11.681 13.455 24.832 23.684 44.004 33.568 33.449 16.95 81.513 21.77 124.09 21.77 20.744-0.03807 40.885-0.11409 55.006-1.3948-11.363-3.6796-27.28-9.61-44.355-23.947-8.337-7.0002-20.255-21.315-25.701-36.533-6.1998-17.327-9.6488-41.354-8.9372-75.102l11.115-519.61c0.87555-40.929-35.868-93.707-97.521-93.707z" fill="url(#h)"/>
	<path d="m96.479 0.51977c-52.554 0-95.615 44.607-95.699 97.081l-0.7795 483.79c0 26.586 2.622 45.525 9.3043 63.512 7.0827 18.833 13.393 30.463 29.474 50.562 11.681 13.455 24.832 23.684 44.004 33.568 33.449 16.95 81.513 21.77 124.09 21.77 20.744-0.03807 40.885-0.11409 55.006-1.3948-11.363-3.6796-27.28-9.61-44.355-23.947-8.337-7.0002-20.255-21.315-25.701-36.533-6.1998-17.327-9.6488-41.354-8.9372-75.102l11.115-519.61c0.87555-40.929-35.868-93.707-97.521-93.707z" fill="url(#i)"/>
	<path d="m614.06 456.88h89.843v21.265h-30.873v93.366h-28.098v-93.366h-30.873z" fill="#F3F3F3"/>
	<path d="m736.99 542.41 19.292-52.803h28.677l-38.236 89.949q-5.3879 12.493-11.645 17.99-6.2569 5.6634-16.164 5.6634-13.209 0-21.03-2.9983l-2.7808-0.99943 5.5616-19.655q5.7355 2.1654 10.254 2.1654 2.0856 0 3.1284-0.16656 1.0428-0.16657 2.607-1.4992 1.5642-1.166 2.607-3.6646l3.1284-7.1626-33.891-79.621h29.025zm137.23-19.244v48.345h-27.652v-42.696q0-9.968-2.7652-14.454-2.7652-4.4856-10.369-4.4856-15.208 0-15.208 21.099v40.536h-27.652v-81.903h27.652l-0.17282 11.795h0.34565q8.6411-13.291 24.714-13.291 16.591 0 23.849 8.9712 7.2585 8.805 7.2585 26.083zm99.537 5.3128-0.34533 8.8774h-60.605q0.86333 8.3748 6.7339 12.897 5.8705 4.3549 15.022 4.3549 13.468 0 25.554-7.8724l10.878 13.902-1.554 1.34q-6.9065 5.1924-12.777 7.5374-13.986 4.5224-26.072 4.5224-20.029 0-32.806-11.39-12.604-11.557-12.604-31.657 0-19.765 13.122-31.322 13.122-11.557 32.806-11.557 19.166 0 30.734 11.222 11.914 11.055 11.914 29.144zm-60.777-6.3649h35.051q-0.17268-6.6999-5.0072-11.557-4.6619-5.0249-12.432-5.0249-7.5972 0-12.432 4.8574-4.8345 4.8574-5.1799 11.725zm197.6 21.388 27.23 27.08v1.3291h-31.913l-11.794-12.294q-9.7128 7.6421-18.558 10.965-8.6721 3.3226-19.772 3.3226-17.865 0-30.006-8.6389-11.968-8.6389-11.968-25.086 0-21.265 28.791-32.894-1.9078-1.9936-6.0705-6.8114-6.2438-8.6389-6.2438-17.942 0-13.124 10.58-20.268 10.58-7.1437 26.19-7.1437 15.09 0 25.149 6.9776 10.233 6.9776 10.233 19.77 0 8.9712-6.2439 16.613-6.0705 7.476-16.304 12.792l15.783 17.112q3.122-2.9904 7.9784-9.6357 5.2033-7.3098 7.2845-11.131l19.599 10.3q-11.274 17.278-19.946 25.584zm-31.74-60.805q0-4.6517-3.122-7.1437-2.9485-2.6581-8.1518-2.6581-5.2032 0-8.4986 2.8242-3.122 2.6581-3.122 7.3098 0 4.3194 5.7236 10.799l3.9892 4.1533q2.9485-1.6613 5.897-3.821 2.6017-1.9936 4.8564-5.1501 2.4282-3.3226 2.4282-6.313zm0.3468 61.801-22.2-23.425-3.4689 1.8275q-12.661 6.6453-12.661 16.447 0 6.313 4.8564 10.632 5.0299 4.1533 11.968 4.1533 12.488 0 21.507-9.6357zm-345.18 143.39 20.579-77.252h29.226l-34.587 114.63h-28.189l-22.655-78.581-22.655 78.581h-28.189l-34.587-114.63h29.226l20.752 77.252 21.444-77.252h28.016zm136.86-5.6517-0.34587 8.8775h-60.701q0.86467 8.3749 6.7445 12.897 5.8798 4.355 15.046 4.355 13.489 0 25.595-7.8724l10.895 13.902-1.5564 1.34q-6.9175 5.1925-12.797 7.5375-14.008 4.5225-26.113 4.5225-20.061 0-32.858-11.39-12.624-11.557-12.624-31.657 0-19.765 13.143-31.322 13.143-11.557 32.858-11.557 19.196 0 30.783 11.222 11.933 11.055 11.933 29.145zm-60.874-6.3649h35.106q-0.17294-6.7-5.0152-11.557-4.6693-5.025-12.451-5.025-7.6092 0-12.451 4.8575-4.8422 4.8575-5.1881 11.725zm149.12 3.4302v46.456h-26.524l-0.5201-8.6897q-2.2536 2.1724-5.0274 4.512-2.6003 2.0053-8.1478 4.0106-5.5474 2.0053-11.268 2.0053-12.828 0-21.843-6.6844-9.1879-6.8515-9.1879-19.552 0-8.6897 5.2007-14.371 8.8412-10.027 28.084-10.862l21.496-0.83556v-1.8382q0-13.202-17.509-13.202-6.7609 0-14.215 2.3395-7.4544 2.1724-11.962 5.0133l-7.281-17.379q17.682-8.3555 36.578-8.3555 21.15 0 31.898 9.5252 10.228 9.3581 10.228 27.907zm-27.564 23.73v-13.536l-13.695 0.83554q-13.522 0.50133-13.522 10.027 0 4.6791 3.6405 7.5199 3.6405 2.6737 9.3613 2.6737 4.6806 0 8.4945-2.1724 3.8139-2.3395 5.7208-5.3475zm99.744-60.261 0.8631 0.50012-1.5537 24.507h-1.2084q-3.798-2.0005-10.013-2.0005-8.1139 0-12.775 6.0016-4.3159 5.3348-4.3159 17.171v36.51h-27.622v-82.189h27.622l-0.1727 11.67h0.3453q6.9055-13.17 21.062-13.17 5.3517 0 7.7686 1.0003z" fill="#F3F3F3"/>
</svg>
