<svg width="173.18mm" height="211.67mm" version="1.1" viewBox="0 0 173.18 211.67" xml:space="preserve" xmlns="http://www.w3.org/2000/svg">
	<defs>
		<filter id="a" x="-.073755" y="-.032967" width="1.1058" height="1.0762" color-interpolation-filters="sRGB">
			<feFlood flood-color="rgb(255,255,255)" in="SourceGraphic" result="flood"/>
			<feGaussianBlur in="SourceGraphic" result="blur" stdDeviation="0.800000"/>
			<feOffset dx="-2.500000" dy="0.600000" in="blur" result="offset"/>
			<feComposite in="flood" in2="offset" operator="in" result="comp1"/>
			<feComposite in="SourceGraphic" in2="comp1" result="comp2"/>
		</filter>
	</defs>
	<g transform="translate(-31.549 -135.76)">
		<path d="m44.839 347.08h9.3367c6.7236 0 11.333-4.0829 11.333-10.355 0-6.2723-4.6096-10.355-11.333-10.355h-9.3367zm4.7564-3.935v-12.841h4.3454c4.0811 0 6.7529 2.4557 6.7529 6.4203s-2.6718 6.4203-6.7529 6.4203zm37.699 3.935-4.6096-6.657c2.6718-1.1538 4.2279-3.432 4.2279-6.5386 0-4.6451-3.4352-7.515-8.9256-7.515h-8.8963v20.711h4.7564v-5.7693h4.3747l3.9637 5.7693zm-5.1968-13.196c0 2.2486-1.468 3.6095-4.3747 3.6095h-3.8756v-7.2191h3.8756c2.9067 0 4.3747 1.3314 4.3747 3.6096zm18.527 13.551c6.4593 0 11.245-4.5267 11.245-10.71 0-6.1836-4.7858-10.71-11.245-10.71-6.4887 0-11.245 4.5563-11.245 10.71 0 6.154 4.7564 10.71 11.245 10.71zm0-4.0829c-3.6701 0-6.43-2.6924-6.43-6.6274s2.7599-6.6274 6.43-6.6274 6.43 2.6924 6.43 6.6274-2.7599 6.6274-6.43 6.6274zm28.979-16.983v12.574l-10.217-12.574h-3.9343v20.711h4.6977v-12.574l10.247 12.574h3.905v-20.711zm13.829 20.711h4.7564v-16.805h6.5768v-3.9054h-17.91v3.9054h6.5768zm18.615-3.8462v-4.793h9.5422v-3.7279h-9.5422v-4.4971h10.805v-3.8463h-15.532v20.711h15.913v-3.8462zm29.126-16.864v12.574l-10.217-12.574h-3.9343v20.711h4.6977v-12.574l10.247 12.574h3.905v-20.711z" fill="#fff" stroke-width=".36841" aria-label="DRONTEN"/>
		<path d="m45.817 322.51h9.7173v-2.5897h-6.6487v-11.144h-3.0686zm16.006 0.15691c3.2391 0 5.5879-2.2562 5.5879-5.4345s-2.3488-5.4345-5.5879-5.4345-5.6069 2.2562-5.6069 5.4345 2.3678 5.4345 5.6069 5.4345zm0-2.5112c-1.4775 0-2.614-1.0987-2.614-2.9233s1.1365-2.9232 2.614-2.9232 2.5951 1.0987 2.5951 2.9232c0 1.8246-1.1176 2.9233-2.5951 2.9233zm15.154 2.3543h3.5801l-4.6219-6.0819 4.243-4.4732h-3.5232l-4.3188 4.2377v-8.24h-2.955v14.557h2.955v-2.6878l1.4207-1.4518zm8.8271-10.712c-1.629 0-3.277 0.45124-4.3946 1.2752l1.0608 2.1385c0.73874-0.60818 1.8563-0.98094 2.936-0.98094 1.5911 0 2.3488 0.76515 2.3488 2.0796h-2.3488c-3.1065 0-4.3756 1.2948-4.3756 3.1587 0 1.8246 1.4207 3.1979 3.8074 3.1979 1.4964 0 2.5572-0.5101 3.1065-1.4714v1.3145h2.7656v-6.023c0-3.1979-1.7995-4.689-4.906-4.689zm-0.2273 8.809c-1.0418 0-1.6669-0.5101-1.6669-1.2752 0-0.70629 0.43567-1.236 1.8184-1.236h2.0268v1.079c-0.34096 0.96134-1.1934 1.4322-2.1784 1.4322zm7.8042 1.903h2.955v-14.557h-2.955zm15.684-5.2383c0-3.3941-2.311-5.4737-5.3038-5.4737-3.1065 0-5.4364 2.2758-5.4364 5.4345 0 3.139 2.292 5.4345 5.8153 5.4345 1.8374 0 3.2581-0.58858 4.2052-1.7069l-1.5722-1.7657c-0.70086 0.68666-1.4775 1.0202-2.5572 1.0202-1.5533 0-2.633-0.80437-2.9171-2.1188h7.7095c0.019-0.25505 0.0568-0.58858 0.0568-0.824zm-5.2849-3.1587c1.326 0 2.292 0.86323 2.5004 2.1973h-5.0197c0.20837-1.3537 1.1744-2.1973 2.5193-2.1973zm19.245 8.6324c4.1673 0 7.2549-3.0017 7.2549-7.1021s-3.0876-7.1021-7.2549-7.1021c-4.1862 0-7.2549 3.0213-7.2549 7.1021s3.0686 7.1021 7.2549 7.1021zm0-2.7074c-2.3678 0-4.1483-1.7854-4.1483-4.3947 0-2.6094 1.7806-4.3947 4.1483-4.3947s4.1483 1.7853 4.1483 4.3947c0 2.6093-1.7806 4.3947-4.1483 4.3947zm22.409-8.24c-1.5343 0-2.8603 0.64741-3.6748 1.7265-0.7198-1.1575-1.9321-1.7265-3.3528-1.7265-1.307 0-2.4435 0.47085-3.2012 1.3733v-1.2164h-2.8224v10.555h2.955v-5.2971c0-1.8834 0.92817-2.7663 2.2352-2.7663 1.2312 0 1.9321 0.78475 1.9321 2.4916v5.5718h2.955v-5.2971c0-1.8834 0.92817-2.7663 2.2541-2.7663 1.1934 0 1.9321 0.78475 1.9321 2.4916v5.5718h2.955v-6.0427c0-3.2175-1.7427-4.6693-4.1673-4.6693zm9.6416 1.5499v-1.393h-2.8224v10.555h2.955v-4.9832c0-2.0208 1.0797-2.9429 2.7087-2.9429 0.22729 0 0.41672 0.0186 0.66297 0.0394v-2.8251c-1.5722 0-2.7845 0.5297-3.5043 1.5499zm10.02 9.3191c3.2391 0 5.5879-2.2562 5.5879-5.4345s-2.3488-5.4345-5.5879-5.4345-5.6069 2.2562-5.6069 5.4345 2.3678 5.4345 5.6069 5.4345zm0-2.5112c-1.4775 0-2.614-1.0987-2.614-2.9233s1.1365-2.9232 2.614-2.9232 2.5951 1.0987 2.5951 2.9232c0 1.8246-1.1176 2.9233-2.5951 2.9233zm17.54-2.884c0-3.3941-2.3109-5.4737-5.3038-5.4737-3.1065 0-5.4364 2.2758-5.4364 5.4345 0 3.139 2.292 5.4345 5.8153 5.4345 1.8374 0 3.258-0.58858 4.2052-1.7069l-1.5722-1.7657c-0.70086 0.68666-1.4775 1.0202-2.5572 1.0202-1.5533 0-2.633-0.80437-2.9171-2.1188h7.7095c0.019-0.25505 0.0568-0.58858 0.0568-0.824zm-5.2849-3.1587c1.326 0 2.292 0.86323 2.5004 2.1973h-5.0197c0.20838-1.3537 1.1744-2.1973 2.5193-2.1973zm13.278-2.315c-1.3638 0-2.4625 0.45124-3.2012 1.3733v-1.2164h-2.8224v14.361h2.955v-4.9244c0.75769 0.86323 1.7995 1.2752 3.0686 1.2752 2.8603 0 5.0765-2.1188 5.0765-5.4345 0-3.3156-2.2162-5.4345-5.0765-5.4345zm-0.51144 8.3577c-1.4775 0-2.5951-1.0987-2.5951-2.9233s1.1176-2.9232 2.5951-2.9232 2.5951 1.0987 2.5951 2.9232c0 1.8246-1.1176 2.9233-2.5951 2.9233z" fill="#fff" stroke-width=".24097" aria-label="Lokale Omroep"/>
		<path transform="matrix(2.6133 0 0 2.6133 -50.897 -219.02)" d="m77.788 152.9 12.724 4.861c6.2908 1.7157 7.1962 4.861 2.0493 8.2447l-13.497 8.3074c0.71486-1.0961 0.34397-6.6394 0.34397-6.6394zm-24.51-2.4952 6.6724-0.60658c2.0219-0.26959 9.3794 0.921 8.975 8.4021l0.93244 12.491c0.33699 4.1786-2.1061 7.1858-7.3631 7.9271l-6.723 0.22798zm-11.501-12.408 9.285 3.9532-7.7285 0.86838 4.235 45.322 11.398-0.70968-11.377 7.3093c-1.8197 1.1458-7.1041 3.0095-7.003-3.1574l-4.5756-48.794c-0.40438-4.246 2.1935-5.8367 5.7656-4.7921z" fill="#70c488" filter="url(#a)" stroke-width="6.6146"/>
	</g>
</svg>
