<svg version="1.1" viewBox="0 0 800 207.6" xml:space="preserve" xmlns="http://www.w3.org/2000/svg">
	<style type="text/css">
		.st0{fill:#fff;}
		.st1{fill:#6D32A2;}
	</style>
	<g transform="scale(.51901)" stroke-width="1.9268">
		<path class="st0" d="m182.5 218.3c23.9-6.4 32.8-28 32.8-45.2 0-29.8-20.7-49.8-51.6-49.8h-63v30.2h58.3c12.9 0 21.6 8 21.6 19.6s-8.7 19.4-21.6 19.4h-43.2v30.1h32.1l29.6 54.1h39.1z"/>
		<path class="st0" d="m346.3 123.3h-115.9v30.1h40.9v123.2h34.1v-123.2h40.9z"/>
		<path class="st0" d="m34 123.3h-34v153.3h100.7v-30.1h-66.7z"/>
		<path class="st0" d="m618.6 229.6 10.7-12.8 45 59.9h42.2l-64.7-81.3 60.7-72h-42.2l-51.7 65.6v-65.6h-34.1v153.3h34.1z"/>
		<path class="st0" d="m734.7 123.4v153.3h97.7v-30.4h-63.6v-122.9z"/>
		<path class="st0" d="m949.1 220.7h-43.9l22-60.9zm-1.2-97.3h-41.6l-59 153.3h38.8l9.5-25.6h63l9.2 25.6h38.8l-58.5-152.6z"/>
		<path class="st0" d="m1085.5 181.3-0.5-0.1c-15.4-3.7-28.7-6.8-28.7-15.6 0-8.9 7.6-14.1 20.4-14.1 16.2 0 31.9 5.9 43 16.3l0.9 0.8 19.1-25.2-0.7-0.6c-15.3-14.2-35.2-21.4-59.3-21.4-33.7 0-58.1 19.8-58.1 47.1 0 34.8 31 42 56 47.7l2.2 0.5c15.9 3.9 28.4 7 28.4 17 0 7.8-7.8 15.7-25.1 15.7-24.3 0-39.9-12.6-47-20.1l-0.9-0.9-18.6 26.2 0.6 0.6c15.6 15.9 37.8 24.3 64.3 24.3 38.3 0 61.2-18.5 61.2-49.5 0-35.2-31.7-42.7-57.2-48.7"/>
		<path class="st0" d="m1170.3 123.4h34.1v153.3h-34.1z"/>
		<path class="st0" d="m1274 229.6 10.6-12.8 45.1 59.9h42.1l-64.6-81.3 60.6-72h-42.2l-51.6 65.6v-65.6h-34.1v153.3h34.1z"/>
		<path class="st0" d="m1483.9 220.7h-43.9l22-60.9zm-0.9-96.6-0.3-0.7h-41.6l-59 153.3h38.8l9.5-25.6h63l9.2 25.6h38.8z"/>
	</g>
	<path class="st1" d="m232.78 0h17.646v207.6h-17.646z"/>
</svg>
