<svg version="1.1" viewBox="0 0 1849.9 400" xml:space="preserve" xmlns="http://www.w3.org/2000/svg">
<style type="text/css">
	.st0{fill-rule:evenodd;clip-rule:evenodd;fill:#ffffff;}
	.st1{fill-rule:evenodd;clip-rule:evenodd;fill:#64B445;}
</style>

	<path class="st0" d="m190.2 218.3c24.9-6.4 34.2-28 34.2-45.2 0-29.8-21.6-49.8-53.8-49.8h-65.6v30.2h60.8c13.5 0 22.5 8 22.5 19.6s-9.1 19.4-22.5 19.4h-45.1v30.2h33.5l30.9 54.1h40.8z"/>
	<path class="st0" d="m240.3 123.3v30.1h42.6v123.3h35.5v-123.3h42.6v-30.1z"/>
	<path class="st0" d="m35.5 246.5v-123.2h-35.5v153.4h105v-30.1h-69.5z"/>


	<path class="st0" d="m645.1 123.4h-35.6v153.2h101.9v-30.4h-66.3z"/>
	<path class="st0" d="m735.1 276.7h35.6v-153.3h-35.6z"/>
	<path class="st0" d="m793.3 153.9h45.8v122.8h35.8v-122.8h45.6v-30.4h-127.2z"/>
	<path class="st0" d="m1050.9 214.2c0 21.6-13.3 34.5-35.6 34.5-22.4 0-35.8-12.9-35.8-34.5v-90.8h-36v91.9c0 40.7 26.2 64 71.8 64 45.7 0 71.9-23.4 71.9-64.3v-91.7h-36.3z"/>
	<path class="st0" d="m1203.9 123.4h-43.3l-61.6 153.3h40.4l9.9-25.6h65.7l9.6 25.6h40.4l-61-152.6zm1.2 97.3h-45.8l22.9-60.9z"/>
	<path class="st0" d="m1391.4 216.3-70.7-92.4-0.3-0.4h-36v153.2h35.6v-96.4l73.1 96.4h33.9v-153.3h-35.6z"/>
	<path class="st0" d="m1464.3 276.7h35.6v-153.3h-35.6z"/>
	<path class="st0" d="m1649.2 227.4c-6.9 13-21 21.4-35.9 21.4-27.8 0-48-20.4-48-48.6s20.2-48.6 48-48.6c14.6 0 29.1 8.6 35.9 21.4l0.5 0.9 30.7-14.5-0.6-1c-10-17.1-29.7-37.5-66.5-37.5-49 0-84.6 33.3-84.6 79.2s35.6 79.2 84.6 79.2c29.2 0 51.5-12.7 66.5-37.7l0.6-1-30.7-14.3z"/>
	<path class="st0" d="m1789 124.1-0.3-0.7h-43.3l-61.5 153.2h40.4l9.9-25.6h65.7l9.6 25.6h40.4zm1 96.6h-45.8l22.9-60.9z"/>

<path class="st1" d="m467.6 400h35.5v-400h-35.5z" Googl="true"/>
</svg>
