<svg width="200mm" height="520.479" viewBox="0 0 200 137.71" xmlns="http://www.w3.org/2000/svg">
    <path d="M55.71 13.38L24.445 67.562l6.718 3.875 33.125-57.4a56.146 56.146 0 0 0-8.565-.656h-.013zM79.78 65.186l-33.91 58.757c2.758.492 5.585.78 8.468.85l32.16-55.728z" color="#000" fill="#c00"/>
    <path d="M55.72 13.38C24.949 13.38.004 38.325.004 69.096s24.945 55.716 55.716 55.716 55.716-24.945 55.716-55.716S86.491 13.38 55.72 13.38zm0 7.524c26.615 0 48.191 21.576 48.191 48.191 0 26.615-21.576 48.191-48.191 48.191S7.529 95.71 7.529 69.096c0-26.616 21.576-48.192 48.191-48.192z" color="#000"/>
    <path d="M81.25 0L21.686 103.21a48.452 48.452 0 0 0 6.021 5.1L87.967 3.88zM82.54 29.048l-60.467 104.78 6.718 3.879 59.885-103.77a48.4 48.4 0 0 0-6.136-4.884z" color="#000" fill="#c00"/>
    <path d="M139.64 50.25v18.057h3.808v-12.71l5.12 12.71h1.722l5.147-12.71v12.71h3.81V50.25h-5.38l-4.442 10.934-4.426-10.934zM168.99 50.253l-7.238 11.297v3.033h8.72v3.72h3.807v-3.72h2.332V61.21h-2.332V50.253zm1.481 3.297v7.661h-4.95zM168.99 73.594a6.706 6.706 0 1 0 0 13.413 6.706 6.706 0 1 0 0-13.413zm0 2.755c2.183 0 3.95 1.771 3.95 3.954s-1.767 3.95-3.95 3.95a3.951 3.951 0 1 1 0-7.904zM188.93 73.85v2.411h4.126v10.491h2.83v-10.49h4.121V73.85zM151.34 73.845v12.911h2.887v-4.69l3.459-.018c1.722-.077 3.916-.923 3.916-4.125s-2.247-4.037-3.899-4.076l-6.363-.002zm4.258 2.147c.725 0 1.53.01 1.843.044.625.068 1.525.704 1.48 1.93-.044 1.226-.812 1.74-1.436 1.847-.625.107-3.258.062-3.258.062V76s.646-.01 1.37-.008zM177.15 73.845v12.911h2.887v-4.69l1.336-.009 3.31 4.699h3.205l-3.381-4.849c1.463-.344 3.01-1.44 3.01-3.984 0-2.991-2.35-4.035-4.002-4.073l-6.365-.005zm4.258 2.147c.725 0 1.53.01 1.843.044.625.068 1.525.704 1.48 1.93-.044 1.226-.812 1.74-1.436 1.847-.625.107-3.258.062-3.258.062V76s.646-.01 1.37-.008z" color="#000"/>
    <path d="M139.07 82.519l2.559.003c.12.946.42 1.421.815 1.761.395.34 1.387.625 2.214.643 1.002.009 2.505-.446 2.492-1.49-.016-.419-.145-.942-.624-1.29-.48-.347-1.157-.572-2.676-.921-1.527-.353-2.625-.58-3.379-1.351-.753-.771-1.026-1.541-1.026-2.617s.727-2.163 1.547-2.724c.82-.56 1.823-.995 3.314-.963 1.751.037 2.982.395 3.844 1.216 1.071 1.02 1.179 1.77 1.191 2.91l-2.623-.002c-.1-1.047-.713-1.955-2.344-1.977-1.63-.022-2.099.664-2.258 1.417-.044.708.344 1.02.807 1.215.463.194.71.275 1.529.484 1.12.253 1.965.43 2.567.663.602.233 1.532.617 1.983 1.124.45.507.839 1.11.848 2.216.009 1.367-.443 2.244-1.428 3.11-.985.865-2.472 1.087-3.68 1.087-1.698 0-3.802-.322-4.832-1.76-.661-.923-.81-1.592-.84-2.754z"/>
</svg>
