<svg xmlns="http://www.w3.org/2000/svg" height="223.01" width="600" viewBox="0 0 158.75 59.003">
    <defs>
        <radialGradient id="a" gradientUnits="userSpaceOnUse" cy="0" cx="0" gradientTransform="rotate(-180 243.11 119.07) scale(136.95)" r="1">
            <stop stop-color="#fbbc09" offset="0"/>
            <stop stop-color="#fbbc09" offset=".147"/>
            <stop stop-color="#fbbc09" offset=".43"/>
            <stop stop-color="#f89c0e" offset="1"/>
        </radialGradient>
    </defs>
    <path d="M429.68 213.04c-3.83 1.43-7.3 3.52-10.43 6.29a33.23 33.23 0 0 0-7.38 9.38l-.65-16.45h-25.25l-5.58 12.57c-1.35-5.74-2.08-10.79-2.49-12.57h-24.52l-16.25 56.17h24.77l4.49-17.5 2.98 17.5H381.38l3.81-9.12 3.65-8.58.56 17.7H413.46l-.33-8.29c1.87 2.39 4.25 4.47 7.13 6.26 1.93 1.13 4.11 2 6.56 2.61 2.46.61 5.06.91 7.81.91.21 0 .43-.01.64-.01 2.38-.12 9.62-.79 13.11-4.28 2.26 1.11 4.54 2.05 6.85 2.72a38.14 38.14 0 0 0 10.86 1.57c7.19 0 13.26-1.96 18.22-5.9s7.8-9.02 8.54-15.23c.45-3.82-.27-7.07-2.18-9.75s-4.75-4.46-8.5-5.33c-.47-.1-1.14-.25-2.01-.47-5.47-1.19-8.1-2.59-7.91-4.17.1-.85.55-1.51 1.38-1.99.83-.46 1.94-.71 3.35-.71 1.84 0 3.69.39 5.56 1.14 1.87.76 3.69 1.85 5.47 3.28l7.87-14.7c-2.96-1.7-5.96-2.98-8.98-3.83-3.02-.84-6.14-1.27-9.35-1.27-7.02 0-12.91 1.9-17.68 5.68-2.92 2.32-5.07 5.06-6.47 8.22l1.31-11.13c-1.97-.94-4.05-1.66-6.2-2.13-2.16-.48-4.38-.71-6.65-.71-4.28 0-8.32.71-12.18 2.12m2.37 34.26c-1.38-1.62-1.89-3.79-1.55-6.65.35-2.99 1.47-5.32 3.43-7.09 1.98-1.76 4.34-2.62 7.24-2.62 1.87 0 3.61.38 5.2 1.13 1.19.58 2.36 1.41 3.53 2.47.15 2.89 1.03 5.45 2.6 7.58.18.25.38.5.58.74l-.01.01c.11.11.21.23.32.35v-.01c2.12 2.34 5.16 4.01 9.06 4.98.7.15 1.66.38 2.94.66.76.17 1.37.33 1.89.49 2.33.63 2.56 1.15 2.6 1.69.05.56-1.03 2.76-7.52.93-5.89-1.65-10.75-6.57-11.6-7.48l-.39.28c-2.49 1.74-4.74 3.01-6.72 3.79-1.91.75-3.75 1.13-5.47 1.13-2.76 0-4.76-.77-6.13-2.38" fill="url(#a)" transform="translate(-337.13 -210.92)"/>
    <path d="M75.09 32.64c1.96.25 3.9.4 5.89.4.57 0 1.77 0 1.77-.82 0-.6-.31-.71-3.39-.71-1.59 0-3.33-.55-3.33-2.47 0-2.65 1.38-4.8 3.45-5.39 1.15-.32 2.82-.36 4.1-.36 1.72 0 4.49.09 7 .47l-1.09 3.8c-1.67-.2-3.32-.38-5-.38-2.05 0-2.54.3-2.54.88 0 .5.35.64 3.06.64 1.95 0 3.67.09 3.67 2.66 0 .97-.44 2.31-.8 2.9-1.07 1.72-2.79 2.05-6.18 2.05-2.75 0-5.1-.16-7.39-.58l.78-3.09zm-3.96-8.99h5.26l-3.33 12.29h-5.18l3.25-12.29zm-15.93 0h6.04l1.11 7.13h.03l1.86-7.13h5.3l-3.3 12.29h-5.86l-1.44-6.4h-.03l-1.71 6.4h-5.3l3.3-12.29zm-15.92 0h6.04l1.1 7.13h.04l1.86-7.13h5.3l-3.31 12.29h-5.85l-1.44-6.4h-.04l-1.7 6.4h-5.3l3.3-12.29zm-13.83 0h12.69l-1.01 3.89H29.8l-.36 1.38h7.34l-.69 2.65h-7.33l-.3 1.1h7.34l-.84 3.27H22.29l3.16-12.29zM15.2 27.72h-3.48l1.1-4.07h12.29l-1.1 4.07h-3.46l-2.14 8.22h-5.35l2.14-8.22z" fill="#fff"/>
</svg>
