<?xml version="1.0" encoding="UTF-8" standalone="no"?>
<!-- Generator: Adobe Illustrator 18.1.0, SVG Export Plug-In . SVG Version: 6.00 Build 0)  -->
<svg xmlns:rdf="http://www.w3.org/1999/02/22-rdf-syntax-ns#" xmlns="http://www.w3.org/2000/svg" enable-background="new 0 0 209 90.1" xml:space="preserve" height="242" viewBox="0 0 600 242" width="600" version="1.1" y="0px" x="0px" xmlns:cc="http://creativecommons.org/ns#" xmlns:dc="http://purl.org/dc/elements/1.1/"><metadata><rdf:RDF><cc:Work rdf:about=""><dc:format>image/svg+xml</dc:format><dc:type rdf:resource="http://purl.org/dc/dcmitype/StillImage"/><dc:title/></cc:Work></rdf:RDF></metadata><path fill="none" d="m0,0,600,0,0,241.72-600,0z"/><path fill="#000" d="m3.445,201.24,4.3062,0,0,39.617-4.3062,0z"/><path fill="#000" d="m57.703,240.86-24.976-32.44,0,32.44-4.3062,0,0-39.617,3.7321,0,24.976,32.44,0-32.44,4.0191,0,0,39.617z"/><path fill="#000" d="m99.043,208.71,0-7.4641,33.301,0,0,7.4641-12.632,0,0,32.153-8.3254,0,0-32.153z"/><path fill="#000" d="m167.08,223.06,0,17.799-8.0383,0,0-17.799-15.502-21.818,9.7608,0,9.7608,14.067,10.048-14.067,9.1866,0z"/><path fill="#000" d="m224.78,240.86-20.383-25.55,0,25.55-8.0383,0,0-39.617,7.177,0,19.809,25.263,0-25.263,8.0383,0,0,39.617z"/><path fill="#000" d="m274.74,223.35-16.938,0,0,10.335,21.531,0,0,7.177-29.856,0,0-39.617,29.282,0,0,7.4641-20.957,0,0,7.4641,16.938,0z"/><path fill="#000" d="m333.88,200.38c-3.445,0-6.3284,1.1467-8.625,3.1562-2.0096,2.0096-3.1562,4.5921-3.1562,7.75,0,2.2966,0.59584,4.3029,2.0312,6.3125-1.7225,0.86125-3.1583,2.3029-4.5938,4.3125-1.4354,2.0096-2.0312,4.6038-2.0312,7.1875,0,4.0191,1.1604,7.1721,4.0312,9.4688,2.5837,2.2966,6.0375,3.4375,10.344,3.4375,4.3062,0,8.305-1.4163,11.75-4l3.1562,3.1562h10.344l-8.3125-8.3438c2.5837-4.0191,4.0254-8.5884,4.3125-13.469h-7.7812c0,3.445-0.56459,6.0217-2,8.0312l-10.031-9.7812c-2.0096-1.7225-2.5821-2.2833-3.1562-3.7188-0.28708-0.57416-0.59375-1.4258-0.59375-2,0-2.2966,2.3167-4.3125,5.1875-4.3125s6.0296,1.1408,9.1875,3.4375h0.28125v-7.75c-2.8708-2.0096-6.3246-2.875-10.344-2.875zm-5.75,22.406,10.062,9.75c-2.0096,1.4354-4.0158,2.3125-6.3125,2.3125-4.0191,0-7.1875-2.2992-7.1875-6.0312,0-2.8708,1.715-5.17,3.4375-6.0312z"/><path fill="#000" d="m441.53,201.24,8.8995,0-13.493,39.904-7.177,0-8.6124-26.411-8.8995,26.411-7.177,0-13.206-39.904,8.8995,0,8.3254,26.699,8.8995-26.699,6.3158,0,8.8995,26.699z"/><path fill="#000" d="m490.33,223.35-16.938,0,0,10.335,21.531,0,0,7.177-29.569,0,0-39.617,28.995,0,0,7.4641-20.957,0,0,7.4641,16.938,0z"/><path fill="#000" d="m524.5,200.97-16.938,39.906,8.3125,0,4.0312-9.1875,16.656,0,4,9.1875,8.625,0-16.938-39.906-7.75,0zm3.7188,10.312,5.75,13.781-11.469,0,5.7188-13.781z"/><path fill="#000" d="m563.81,201.25,0,39.312,8.3438,0,0-16.062,6.875,0,11.5,16.062,9.4688,0-12.344-16.938c5.1675-1.4354,8.3125-5.7388,8.3125-10.906,0-3.445-1.4221-6.3029-3.7188-8.3125-2.5837-2.0096-5.7563-3.1562-10.062-3.1562h-18.375zm8.3438,7.1562,9.75,0c3.732,0,6.0312,2.0354,6.0312,4.9062,0,3.1579-2.2992,4.875-6.0312,4.875h-9.75v-9.7812z"/><path fill="#2face3" d="m419.71,0.0000012842h54.545l0.29,38.756s-17.512-31.005-54.833-38.756"/><path fill="#2face3" d="m419.71,178.56h54.545l0.28708-38.756c0,0.28708-17.512,31.005-54.833,38.756"/><path fill="#da1d5d" d="M99.617,0.0000012842,52.249,74.641,4.5933,0.0000012842z"/><path fill="#8a3188" d="m0,60.861,51.962,79.234,51.388-79.234,0,117.7-103.35,0z"/><path fill="#abcd71" d="m269.28,138.66,16.651,39.904-110.24,0,15.789-39.904z"/><path fill="#2f358b" d="M359.43,33.589v110.24h36.172s50.526,2.5837,50.526-58.278c0,0,0.57416-51.962-50.526-51.962h-36.172z"/><path fill="#ea5b2d" d="m514.16,31.579,84.402,0,0,39.043-84.402,0z"/><path fill="#c01e2f" d="m514.16,105.36,84.402,0,0,39.043-84.402,0z"/><path fill="#016839" d="m143.54,0.0000012842,67.464,0l-67.46,156.75z"/><path fill="#016839" d="m318.95,0.0000012842-67.464,0l67.46,156.75z"/><path fill="#d3d92e" d="m206.99,102.78,47.943,0-24.402-60z"/></svg>
