<svg xmlns="http://www.w3.org/2000/svg" height="268.87" width="600" viewBox="0 0 158.75 71.138">
    <path d="M125.855 2.97a4.81 4.81 0 0 0-4.797 4.822 4.81 4.81 0 0 0 4.82 4.8 4.81 4.81 0 0 0 4.797-4.823 4.808 4.808 0 0 0-4.82-4.799" fill="#14af8a"/>
    <path d="M125.885 14.39a6.62 6.62 0 0 1-6.632-6.597c-.009-3.647 2.953-6.62 6.599-6.63 3.647-.01 6.623 2.951 6.63 6.597.009 3.646-2.95 6.622-6.597 6.63m7.76-6.635C133.638 3.47 130.142-.01 125.85 0c-4.29.011-7.773 3.507-7.762 7.795.01 4.29 3.508 7.769 7.8 7.759 4.29-.012 7.768-3.508 7.758-7.799" fill="#14af8a"/>
    <g fill="#2c3592">
        <path d="M62.068 35.31c.258-7.086 4.322-10.247 8.077-8.979-.647 2.949-1.335 8.113-2.053 13.38-.948.924-1.924 1.496-2.858 1.496-1.985 0-3.287-2.626-3.166-5.897M59.88 49.34c3.933 0 6.24-1.939 7.87-4.52.429 2.675 2.364 4.552 6.505 4.552 1.175 0 4.203-.565 5.488-1.387-1.028-2.63-.611-5.322-.233-8.135 1.098-8.241 1.994-14.693 2.555-18.171-2.182-1.288-7.315-2.726-12.37-2.726-13.484 0-19.33 9.121-19.33 17.648 0 8.524 4.56 12.739 9.515 12.739M34.259 13.99c-1.867 3.088-5.426 10.55-8.316 18.563-1.7-7.545-2.722-17-3.073-20.821-2.562-1.321-12.825-3.877-15.61 3.536-1.804 4.805-5.926 20.72-7.172 28.93-.312 2.082-.108 5.158 6.182 5.18 1.453.005 3.869-.174 6.226-1.31-.739-2.664.153-6.551.69-9.749.766-4.56 1.484-7.609 2.672-11.934.652 8.041 1.93 14.748 2.326 16.57.543 2.484 2.047 4.928 10.715 3.34 2.911-8.467 6.523-16.105 8.855-21.048-1.63 6.76-2.488 14.985-2.484 17.778 0 2.395-.19 6.309 6.968 6.309 1.908 0 4.32-.348 5.878-1.266-.92-2.183-.77-5.404-.595-8.47.705-12.165 1.592-23.181 1.95-27.866-2.555-1.004-11.948-3.148-15.212 2.257M91.903 65.92c-1.571 0-3.871-1.32-3.477-3.91.596-3.93 5.782-4.319 9.563-4.319h.31c-1.177 6.862-3.457 8.229-6.396 8.229m5.548-24.71c-1.982 0-3.287-2.629-3.168-5.9.263-7.07 4.31-10.235 8.057-8.986-.71 3.03-1.448 8.278-2.072 13.427-.937.9-1.898 1.46-2.817 1.46m57.71 13.907c.303-1.496.123-2.967-.119-4.251-2.387 1.373-4.541 2.473-18.237 2.473-6.921 0-15.253-.907-26.707-1.405.047-.295.087-.59.127-.882 1.939-14.833 3.205-24.064 4.057-29.373-2.182-1.288-7.311-2.726-12.367-2.726-13.484 0-19.332 9.12-19.332 17.648 0 8.524 4.562 12.74 9.519 12.74 3.665 0 5.918-1.685 7.527-4.005a483.44 483.44 0 0 0-.644 6.303 277.63 277.63 0 0 0-3.156-.018c-10.187 0-16.494 4.477-16.694 10.144-.261 7.392 8.183 9.371 12.545 9.371 9.843 0 14.626-5.87 16.94-12.818 12.134 1.355 22.96 4.425 34.145 4.425 8.514 0 11.737-4.35 12.397-7.625"/>
        <path d="M129.195 23.81c.43-2.624-1.03-6.891-10.849-3.87-1.925 10.608-3.273 21.411-3.447 24.775-.025 1.335.511 4.6 5.674 4.6 2.905 0 4.553-.626 6.599-1.417-.796-1.707-.708-4.638-.473-6.616.827-6.935 1.86-13.61 2.496-17.472M148.925 27.77a4.905 4.905 0 0 0 4.902 4.906c2.71 0 4.78-2.166 4.905-4.906.33-5.426-5.495-8.865-10.685-8.865-7.911 0-16.882 5.373-17.581 16.865-.398 6.542 2.485 13.55 13.068 13.55 8.764 0 12.559-5.096 12.985-10.644-2.066 1.336-5.91 3.324-10.075 2.924-3.077-.29-4.78-3.063-4.533-7.136.31-5.05 2.552-8.684 5.539-8.684 1.34 0 1.648.495 1.563 1.094-.043.293-.087.59-.087.896"/>
    </g>
</svg>
