<svg version="1.1" viewBox="0 0 1517.1 572" xmlns="http://www.w3.org/2000/svg" xmlns:xlink="http://www.w3.org/1999/xlink">
 <defs>
  <linearGradient id="a">
   <stop stop-color="#ffe500" offset="0"/>
   <stop stop-color="#ffe500" offset=".5"/>
   <stop stop-color="#e15007" offset="1"/>
  </linearGradient>
  <linearGradient id="c">
   <stop stop-color="#da030e" stop-opacity="0" offset="0"/>
   <stop stop-color="#da020e" stop-opacity="0" offset=".875"/>
   <stop stop-color="#da020e" offset="1"/>
  </linearGradient>
  <linearGradient id="b">
   <stop stop-color="#740703" offset="0"/>
   <stop stop-color="#da020e" stop-opacity="0" offset="1"/>
  </linearGradient>
  <linearGradient id="t" x1="476.07" x2="476.07" y1="403.81" y2="458.88" gradientUnits="userSpaceOnUse" spreadMethod="reflect">
   <stop stop-color="#8f0904" offset="0"/>
   <stop stop-color="#b40509" offset=".2496"/>
   <stop stop-color="#da020e" offset="1"/>
  </linearGradient>
  <linearGradient id="s" x1="368.06" x2="399.48" y1="470.94" y2="507" gradientUnits="userSpaceOnUse" xlink:href="#b"/>
  <linearGradient id="r" x1="368.06" x2="399.48" y1="470.94" y2="507" gradientTransform="matrix(-1 0 0 1 957.36 0)" gradientUnits="userSpaceOnUse" xlink:href="#b"/>
  <radialGradient id="m" cx="360.51" cy="438.59" r="18.756" gradientTransform="matrix(1.0407 0 0 1.0237 -14.655 -10.386)" gradientUnits="userSpaceOnUse" xlink:href="#c"/>
  <radialGradient id="l" cx="360.51" cy="438.59" r="18.756" gradientTransform="matrix(1.0407 0 0 1.0237 223 -10.48)" gradientUnits="userSpaceOnUse" xlink:href="#c"/>
  <linearGradient id="q" x1="600.95" x2="583.95" y1="404.58" y2="388.58" gradientUnits="userSpaceOnUse" xlink:href="#b"/>
  <linearGradient id="p" x1="600.95" x2="582.95" y1="404.58" y2="385.58" gradientTransform="matrix(-1 0 0 1 957.89 0)" gradientUnits="userSpaceOnUse" xlink:href="#b"/>
  <radialGradient id="k" cx="446.42" cy="291.63" r="14.723" gradientTransform="matrix(.81453 0 0 .77555 83.801 67.229)" gradientUnits="userSpaceOnUse" xlink:href="#a"/>
  <radialGradient id="j" cx="446.42" cy="291.63" r="14.723" gradientTransform="matrix(-.81453 0 0 .77555 874.09 67.229)" gradientUnits="userSpaceOnUse" xlink:href="#a"/>
  <radialGradient id="i" cx="478.89" cy="288.52" r="8.2664" gradientTransform="matrix(1.096 0 0 1.0476 -45.916 -14.399)" gradientUnits="userSpaceOnUse" xlink:href="#a"/>
  <radialGradient id="h" cx="357.14" cy="347.1" r="8.529" gradientTransform="matrix(1.0879 -1.9053 1.676 .95703 -610.04 702.53)" gradientUnits="userSpaceOnUse" xlink:href="#a"/>
  <linearGradient id="o" x1="357.73" x2="362.28" y1="346.83" y2="351.83" gradientUnits="userSpaceOnUse" xlink:href="#a"/>
  <radialGradient id="g" cx="357.14" cy="347.1" r="8.529" gradientTransform="matrix(-1.0879 -1.9053 -1.676 .95703 1567.9 702.53)" gradientUnits="userSpaceOnUse" xlink:href="#a"/>
  <linearGradient id="n" x1="357.73" x2="362.28" y1="346.83" y2="351.83" gradientTransform="matrix(-1 0 0 1 957.89 0)" gradientUnits="userSpaceOnUse" xlink:href="#a"/>
  <clipPath id="v">
   <path d="m423.57 366.84v115.77l55.354 35.567 55.349-35.567 0.0823-115.59c-1.773-1.5632-5.4547-4.9899-8.3384-6.7834h-94.442c-2.39 1.6784-7.1784 5.718-8.0052 6.6066z" fill="#ffe500"/>
  </clipPath>
  <filter id="u">
   <feGaussianBlur stdDeviation="3.0914156"/>
  </filter>
  <radialGradient id="f" cx="452.38" cy="563.36" r="12.242" gradientTransform="matrix(.85679 1.2551e-7 -1.1285e-7 .77036 64.786 129.37)" gradientUnits="userSpaceOnUse" xlink:href="#a"/>
  <radialGradient id="e" cx="452.38" cy="563.36" r="12.242" gradientTransform="matrix(-.85679 1.2551e-7 1.1285e-7 .77036 894.86 129.37)" gradientUnits="userSpaceOnUse" xlink:href="#a"/>
  <radialGradient id="d" cx="479.62" cy="566.71" r="11.666" gradientTransform="matrix(.85027 -1.5152e-7 1.1263e-7 .63206 71.816 208.59)" gradientUnits="userSpaceOnUse" xlink:href="#a"/>
 </defs>
 <g transform="translate(-334.14 -1.7934)">
  <g transform="matrix(1.9466 0 0 1.9466 -316.29 -543.13)">
   <path d="m493.57 561.89c-1.1724 3.4473-4.9076 11.901-13.949 11.901-10.284 0-13.851-11.127-14.024-11.596l-0.30441-1.0531s8.8567 0.73635 13.736 0.73635c4.8665 0 13.205-0.4813 14.554-0.73635l-0.0123 0.74869z"/>
   <path d="m520.56 556.41 2.1103 0.26739c-2.5176 6.5778-7.0385 13.949-15.899 13.949-8.6428 0-12.905-5.0022-14.69-8.3466l-1.5097-0.92146s14.887-0.4813 29.989-4.9488"/>
   <path d="m439 556.41-2.1103 0.26739c2.5052 6.5778 7.0467 13.949 15.936 13.949 8.5935 0 13.225-5.2655 15.134-8.3466l1.0243-0.92146s-14.863-0.4813-29.985-4.9488"/>
   <path d="m486.84 562.59c-1.4028 2.0075-2.3448 1.9046-4.0026 1.9046-0.85976 0-2.0939 0.6911-2.0815 1.9663 0.037 1.0037 0.85565 1.8182 2.2008 1.8182 3.0606 0 5.4012-4.2412 6.0224-6.0471 0 0 1.7936-0.074 2.316-0.12752 0 0-3.2087 9.5931-11.559 9.5931-8.3631 0-11.773-9.4779-11.773-9.4779s7.0508 0.42782 11.07 0.42782c4.0314 0 6.5983-0.037 7.8078-0.0576" fill="url(#d)"/>
   <path d="m440.13 558.37c5.4342 1.4398 9.3175 2.6574 18.47 3.7681 0 0-0.29207 0.92558-2.2831 0.85153-0.76103-0.0494-0.86387-0.23859-1.1271-0.28384-0.58826-0.10696-1.4398 0.48952-1.3534 1.4809 0.0905 0.69932 0.67464 1.5673 2.7068 1.5673 2.0322 0 4.3975-1.6537 5.5946-3.2004 0 0 1.2135 0.28385 2.4764 0.34555 0 0-3.9121 5.463-11.596 5.463-8.4371 0-11.58-7.5733-12.888-9.9921" fill="url(#f)"/>
   <path d="m478.93 513.4c29.141 0 61.425-17.886 84.092-43.671 2.4682-2.7891 6.6024-8.0875 16.446-8.0875 9.8605 0 22.967 8.9884 21.432 25.344-1.1436 11.913-18.17 38.792-47.324 55.325-29.145 16.599-55.995 20.149-74.647 20.149-18.668 0-45.493-3.5501-74.655-20.149-29.149-16.533-46.172-43.412-47.307-55.325-1.5344-16.356 11.576-25.344 21.416-25.344 9.8687 0 14.019 5.2984 16.479 8.0875 22.633 25.784 54.934 43.671 84.067 43.671z" fill="#ffe500" stroke="#000" stroke-miterlimit="3.863" stroke-width="2.098"/>
   <path d="m478.68 517.37c-29.322 0-62.688-17.302-87.263-45.292-2.5011-2.8426-5.6851-6.4996-13.262-6.4996-4.4263 0-9.445 2.3695-12.773 6.0348-2.5052 2.7232-5.3149 7.5239-4.6402 14.883 0.97494 10.054 16.907 36.073 45.304 52.231 22.888 13.02 47.328 19.598 72.635 19.598 25.332 0 49.771-6.5778 72.66-19.598 28.388-16.158 44.345-42.177 45.283-52.231 0.70344-7.3594-2.1268-12.16-4.5991-14.883-3.3444-3.6653-8.3754-6.0348-12.781-6.0348-7.6103 0-10.79 3.657-13.269 6.4996-24.561 27.989-57.968 45.292-87.294 45.292z" fill="#da020e"/>
   <path d="m604.82 371.41 0.10284-6.7958c2.0939 1.6002 6.0306 1.6249 8.3343-0.83096 1.049-1.1189 1.6455-2.8508 1.5591-4.632-0.0987-2.0116-1.012-4.1013-2.5134-5.574-8.5071-8.3137-16.064-16.615-16.064-16.615-0.78159-1.2341-2.0034-2.1268-2.7109-2.4312-1.0408-0.49776-4.7431-2.1885-7.565 2.098-2.5464 3.8833-2.1679 9.3586-1.6784 11.358l7.9764 10.872c2.7315 3.4637 10.428 10.831 12.559 12.551"/>
   <path d="m434.33 300.93c10.041-3.3732 19.223-6.1623 31.597-7.2565l1.8758-1.0531c-6.9068-5.4506-13.768-9.1694-20.601-9.1694-4.2906 0-13.02 2.9166-14.966 18.318l2.0939-0.83919z"/>
   <path d="m523.55 300.93c-10.046-3.3732-19.219-6.1623-31.581-7.2565l-1.9005-1.0531c6.9356-5.4506 13.781-9.1694 20.622-9.1694 4.2947 0 12.987 2.9166 14.974 18.318l-2.1144-0.83919z"/>
   <path d="m467.58 293.17c5.0516-9.7124 9.6712-13.225 12.255-13.225 3.1922 0 6.9521 5.0763 9.9057 11.646l0.62116 1.4892-2.5957-0.20157c-1.7031-0.32087-6.5531-0.38257-8.4042-0.38257-1.9005 0-5.9977 0-8.4659 0.23036l-3.3156 0.44428z"/>
   <path d="m427.75 512.04-7.3141 13.221c-2.209 3.9738-4.4839 6.4955-8.215 4.3564-3.6735-2.0774-2.822-5.0886-0.56769-9.194l7.3347-13.238-5.9154-3.2827-7.7502 13.991c-4.2659 7.7008 1.1025 12.477 5.3066 14.793 4.488 2.4847 11.021 4.3317 15.249-3.3115l7.8036-14.052-5.9319-3.2827zm94.055 27.239-2.4641-7.5856 7.3388-2.3695-1.0161-3.1552-7.347 2.3818-2.0898-6.4832 7.5116-2.4641-1.012-3.1223-13.752 4.4716 7.6432 23.497 15.159-4.9158-0.99963-3.1346-8.9719 2.8796zm15.71-30.408-8.3713 4.8253 12.394 21.494 8.3384-4.8212c8.6181-4.9693 9.4368-12.497 6.043-18.536-4.0849-7.166-10.827-7.3306-18.405-2.9618m12.65 6.5407c3.1387 5.5 2.5011 9.5108-2.3325 12.279l-2.3036 1.3411-9.0994-15.722 2.4764-1.4357c5.8044-3.3362 9.0994-0.36612 11.259 3.5378m-66.966 10.071 0.44839 3.221 6.9192-0.97905 2.9906 21.243 6.4338-0.89266-2.9824-21.231 6.8164-0.94614-0.46896-3.2662-20.157 2.8508zm-5.8579 0.20116-6.479-0.35378-1.2958 24.682 6.4832 0.34555 1.2917-24.674zm-19.672-3.0174-4.5127 16.866-8.4454-20.342-5.2532-1.411-6.4009 23.88 5.7221 1.518 4.5497-17.006 8.5729 20.515 5.138 1.3863 6.3762-23.888-5.7468-1.5179z" fill="#ffe500"/>
   <path d="m423.57 366.84v115.77l55.354 35.567 55.349-35.567 0.0823-115.59c-1.773-1.5632-5.4547-4.9899-8.3384-6.7834h-94.442c-2.39 1.6784-7.1784 5.718-8.0052 6.6066z" fill="#ffe500"/>
   <path d="m423.57 319.81-2e-5 47.023v115.77l55.354 35.567 55.349-35.567 0.0823-162.61" clip-path="url(#v)" fill="none" filter="url(#u)" stroke="#b54005" stroke-miterlimit="3.863" stroke-width="10"/>
   <path d="m501.05 449.9v-4.3029s-1.1436-1.7689-3.9779-1.7689c-2.8261 0-4.5168 0.85153-4.5168 1.5632 0 1.1642 2.5299 4.5086 8.4947 4.5086m-22.321-38.088 4.2782-7.4704 3.3526 7.4704h5.5535c-3.3403 3.1346-4.706 7.8777-4.706 11.041v3.4473c0 1.4645-0.73635 3.8874-0.73635 3.8874s4.8212 3.6735 5.5617 4.3111c0.30852 0.24271 0.64584 0.3908 0.4237 1.0284-0.38257 1.0737-3.657 2.5505-3.9903 2.8302-0.74046 0.65819-0.9338 1.0531-0.74046 1.7031 0.23448 0.62528 0.84742 0.74046 2.1021 0.29619 1.267-0.40726 3.8915-1.7853 6.0923-2.7274 2.1926-0.95437 5.1298-0.71166 5.1298-0.71166v-4.2165h-8.2932v-13.398l-1.4645-2.3612 3.6571-6.5161 3.6776 6.5572-1.448 2.3201v6.9974h4.2247v-6.9974l-1.4562-2.3201 3.6694-6.5078 3.6529 6.5078-1.4439 2.3201v6.9974h4.2535v-6.9974l-1.5056-2.3201 3.6817-6.5078 3.6694 6.5078-1.4645 2.3201 0.0699 13.378h-8.359v6.187c1.8964 1.7812 3.6858 5.8126 3.6858 8.1862 0 2.4312-1.5838 3.4596-1.5838 3.4596 0.53067 1.9087 0.42783 2.7027 0.20157 4.4304-0.20157 1.7565-2.3942 4.4962-2.3942 4.4962v31.976c0 2.172-5.031 1.9581-5.031 0.10284v-31.359c-2.8467-3.114-10.597-5.5617-10.597-5.5617-2.8426 2.8426-4.5909 7.779-4.5909 7.779 1.2341 0.86387 3.1552 0 3.8792-0.83919 0.71167-0.83919 2.172-1.0572 3.0153-0.52655 0.82685 0.52655 1.0325 0.72812 0.74869 1.9622-0.32498 1.2999-0.8433 3.3773-0.8433 4.8294 0 1.4892 1.6743 1.1559 2.9248 1.267 2.5258 0.22214 2.9413 3.0441 2.7315 4.6196-0.20568 1.5838-0.94614 4.9446-0.94614 7.0344 0 2.0692 0.11107 4.1589 0.31675 5.3437 0.21803 1.1436 0.62939 2.4065 0.51421 3.8833-0.12752 1.9869-1.3493 2.3037-2.6163 1.0284-1.2506-1.2547-18.762-19.923-18.762-19.923-1.1642 3.7969 3.6817 10.272 5.2449 12.271 1.5755 1.9992 1.4727 3.4678 0.0946 4.8377-1.3493 1.3534-3.9779 2.0774-4.4921 3.3526-0.53477 1.2341 1.2547 5.0351 4.9364 9.7494 3.6694 4.706-4.2124 7.8653-8.9143 8.8074-4.7348 0.92969-4.7348-2.3201-4.4057-4.1013 0.31264-1.7648 0.31264-2.8384 0.19746-4.3893-0.10284-1.5796-1.5508-3.7681-3.5624-6.3885-1.9869-2.6328-1.9869-5.0269-1.16-11.127 0.83507-6.0841 0.63762-9.9674 0.63762-9.9674s-2.098 0.0864-5.1421 0c-3.0277-0.11518-5.5411-1.8717-5.755-9.2187-0.20979-7.3264-0.38257-24.822-0.88032-26.657-0.48541-1.8141-2.4476-2.1473-3.2745-2.39-0.85976-0.21391-0.9009-1.4521-0.0699-1.8964 2.1885-1.0654 4.813-3.7517 3.8422-5.4218-0.98316-1.6743-4.8377-1.3287-7.4169-0.0658-2.5875 1.2506-5.3149 3.9985-6.0183 4.7472-0.67876 0.74046-1.267 0.74046-1.193-0.0576 0.0864-0.85564-0.47718-4.8582-0.81039-6.2446-0.37023-1.3986-1.6208-4.0437-2.0445-4.7431-0.41549-0.70344 0-0.97494 0.70755-0.70344 0.67875 0.27973 2.2337 0.92557 3.6941 1.3123 1.4727 0.44428 2.8755-0.27973 3.546-1.6537 0.69932-1.4192 2.0651-4.4098 2.7644-5.7468 0.68698-1.3205 1.7977-1.0243 2.7109-0.82274 0.90501 0.21391 1.7442 0.77337 2.5793 1.1066 0.83096 0.34555 1.5262 0.27973 1.8224-0.14398 0.28384-0.40314 0.62939-0.55534 1.1313-1.6002 0.48952-1.0449 1.0984-0.54711 1.1765-0.13163 2.5011 15.04 9.0172 15.731 9.0172 15.731-0.97905 2.5052-3.2745 6.4996-3.8175 7.5074-0.58826 0.94203-0.80628 2.2831-0.95026 3.3238-0.11107 1.0366 0.362 10.971 1.0572 14.612 0.70755 3.6447 2.933 2.2255 3.657 1.1107 0.67053-1.1107 2.8549-5.7345 2.8549-5.7345s0.53889-1.2588 0.53889-2.3036c0-1.0531-1.81-3.3362-2.2255-4.0478-0.43194-0.72401-1.9581-2.1103-1.9581-5.611 0-3.4884 3.1428-5.9072 4.2741-6.8246 1.1189-0.91734 1.1189-2.1885 0.96671-2.9536-0.48952-2.6986-3.3568-8.3754-4.7348-10.552-1.411-2.1679-4.1342-6.2857-4.1342-6.2857h5.6604l3.6447-7.5692 3.9656 7.6021 4.1425 0.037zm-0.91735 22.93c1.847-3.0524 2.6204-6.224 2.6204-6.224h-5.3396s0.85565 3.2457 2.7191 6.224m-5.5617-15.389c0.21391 1.5632 1.3781 2.1597 2.2625 1.7031 0.88033-0.48542 0.72812-1.7524 0.074-2.7644-0.62528-0.99139-1.9252-2.098-2.3242-1.9334-0.40726 0.16867-0.15221 2.0733-0.0123 2.9948m10.584-2.9948c-0.38257-0.16454-1.7524 0.94204-2.4024 1.9334-0.62528 1.012-0.78572 2.279 0.10284 2.7644 0.86798 0.45661 1.9869-0.15221 2.2666-1.7031 0.15221-0.92147 0.4525-2.8261 0.0329-2.9948" fill="url(#t)"/>
   <path transform="translate(330.95 277.01)" d="m96.969 118.69v6.9688h102.12v-6.9688h-7.5312v1.125h-87.062v-1.125h-7.5312z" fill="#da020e"/>
   <path d="m427.92 364.38h102.11v27.767h-102.11v-27.767z" fill="#da020e"/>
   <path d="m445.47 384.08 7.8201 1.9211 4.2206-11.761v-2.9783zm64.449 6.9329v-3.6222h-7.3799v-3.0441h6.0306v-13.427h-5.5576l-1.9005-3.6941-1.8553 3.6941h-5.574v13.427h6.0553v3.0441h-14.517v-3.0441h6.0389v-13.427h-5.5658l-1.88-3.6941-1.9005 3.6941h-5.5493v13.427h6.0677v3.0441h-14.817v-3.0441h6.0512v-13.427h-5.574l-1.8635-3.6941-1.9129 3.6941h-5.5534v13.427h6.0718v3.0441l-11.724 0.037-11.662-2.7232 2.3366 6.3084h66.135z" fill="#ffe500"/>
   <path d="m434.91 299.84c9.8564-3.2992 17.306-5.8702 29.446-6.948-5.5946-3.8833-10.56-7.1701-16.27-7.1701-3.003 0-5.5699 1.1477-6.1623 3.2457-0.55123 1.9087 0.95437 2.7397 1.4892 2.6122 0.55946-0.14398 0.95848-0.30852 0.82273-0.82685-0.14398-0.54712 0.27973-1.9375 2.1885-1.9375 1.9416 0 2.6739 1.7977 2.6739 3.0318s-1.9581 3.295-5.5576 3.295c-3.5295 0-5.3395-2.353-5.2038-4.5292-1.7031 2.4929-2.6945 5.0146-3.4267 9.227" fill="url(#k)"/>
   <path d="m366.22 358.85 8.0052-10.872c0.46073-1.9992 0.82685-7.4704-1.7318-11.354-2.7973-4.2906-6.4832-2.5957-7.565-2.098-0.68287 0.30441-1.9252 1.193-2.6903 2.4312 0 0-7.6967 8.4742-16.167 16.813-1.1971 1.1888-2.5134 3.3609-2.6245 5.3724-0.10284 1.7853 0.61705 3.5789 1.6537 4.6978 2.316 2.4682 6.3638 2.3695 8.433 0.76514l0.14398 6.7958c2.1309-1.7154 9.8152-9.0871 12.543-12.551"/>
   <path d="m478.93 343.03c45.579 0 71.512 42.782 77.172 50.294 10.054 13.419 22.362 24.312 36.624 20.712 20.951-5.3601 19.861-36.394 19.861-36.394-5.0557-3.6406-13.67-8.2232-29.376-30.486-15.381-21.823-50.187-54.152-104.28-54.152-54.107 0-88.905 32.329-104.25 54.152-15.722 22.263-24.365 26.846-29.372 30.486 0 0-1.1313 31.034 19.836 36.394 14.254 3.5995 26.554-7.2935 36.624-20.712 5.6398-7.5116 31.589-50.294 77.16-50.294z" fill="#ffe500" stroke="#000" stroke-miterlimit="3.863" stroke-width="2.098"/>
   <path d="m478.93 338.97c43.942 0 70.076 37.274 79.528 50.724 12.508 16.695 23.096 22.997 33.269 20.41 14.702-3.7434 16.529-23.979 16.726-30.104v-0.2427l-0.16454-0.12753c-5.1832-3.5912-13.855-9.5437-28.384-30.141-8.6675-12.3-41.573-52.462-100.97-52.462-59.381 0-92.315 40.162-100.98 52.462-14.41 20.466-23.473 26.706-28.327 30.038l-0.20568 0.16866 0.0247 0.21391c0.19746 6.1376 2.028 26.48 16.693 30.194 10.185 2.5875 20.795-3.7146 33.269-20.41 9.4429-13.45 35.602-50.724 79.523-50.724" fill="#da020e"/>
   <path d="m455.05 307.83c-8.0628 1.7072-13.374 7.6514-11.633 15.71 1.012 4.3523 4.8953 12.362 17.179 9.7494 3.4102-0.64996 5.2532-2.0075 7.0385-3.7146l-2.2378-2.571c-0.8433 0.93791-2.1021 2.3036-4.9282 2.8919-5.9442 1.2547-9.4779-3.5542-10.358-7.7049-1.3081-6.1499 2.2749-10.387 6.3227-11.263 2.8919-0.63762 4.6443 0.1481 5.755 0.58003h0.037l0.7528-3.1511c-1.9499-0.7816-4.2906-1.2999-7.927-0.52655m67.431 35.453c4.6114 2.7767 9.6424 2.3037 11.995-1.592 1.7113-2.7232 1.7277-4.9858-0.32909-9.0377-0.53067-1.1477-1.2259-1.9704-1.6907-3.0153-0.90912-1.6948-1.7483-3.0811-0.96671-4.3934 0.86387-1.4233 2.8631-1.5385 4.6731-0.43194 1.8964 1.1477 2.6821 3.0441 3.0811 4.3399l2.9742-1.2835c-0.91324-2.4435-2.2666-4.6361-5.3601-6.4667-5.2861-3.184-9.5848-2.3448-11.374 0.63762-1.8141 2.9989-1.2999 5.4959 0.0658 8.0546 0 0 0.84741 1.4521 1.3369 2.4435 1.1971 1.9992 2.5916 4.5209 1.6126 6.0965-1.1847 1.9869-3.2251 2.4188-5.212 1.1847-2.5464-1.6043-3.1428-3.4719-3.6735-5.2943l-3.2704 1.3986c0.7199 2.5093 2.4106 5.1092 6.1376 7.3594m-35.205-36.75-0.18512 10.07-9.6836-0.13986 0.14397-10.107-6.4914-0.11929-0.43193 24.711 6.5037 0.13987 0.20568-11.329 9.7 0.17689-0.18512 11.308 6.4955 0.0987 0.4237-24.711-6.4955-0.0987zm92.998 78.467c0.0453 0.0617 3.8093 1.9211 7.9929-1.8347 3.4966-3.1428 2.3242-7.4498-1.3287-11.494l-6.7341-7.4828-18.359 16.545 4.3399 4.813 7.31-6.5572 2.1103 2.3818-4.6279 10.44 5.5411 4.4263 3.7558-11.239zm3.2786-12.172c1.7195 1.9087 1.7483 4.1754-0.25093 5.936-1.9458 1.7936-4.4304 1.3822-6.3186-0.6911l-1.0984-1.23 6.2158-5.6152 1.4521 1.6002zm-28.652-6.3128 6.1499-5.1051 4.9323 5.8702 2.5505-2.1268-4.9611-5.8949 5.2038-4.3811 5.0804 6.0512 2.5217-2.1021-9.2804-11.062-18.919 15.887 10.218 12.197 2.5505-2.1185-6.0471-7.2154zm-7.092-37.132-2.2049 2.4188 5.1832 4.6855-14.365 15.936 4.8459 4.3564 14.344-15.94 5.1174 4.6073 2.1967-2.4188-15.118-13.645zm-42.301 1.5665 2.6163-7.5362 7.2771 2.5093 1.0819-3.1346-7.2894-2.5052 2.2173-6.4543 7.4992 2.571 1.0531-3.1182-13.662-4.7019-8.0299 23.403 15.056 5.1544 1.0696-3.1182-8.8896-3.0688zm-78.238-12.107 9.2804 14.793-20.663-7.7131-4.5991 2.8878 13.102 20.992 4.9899-3.1428-9.3421-14.945 20.877 7.7502 4.5086-2.8261-13.127-20.98-5.0269 3.184zm-28.903 22.353-4.2247 4.5333 11.843 23.551 2.8919-3.0935-3.2169-6.2651 5.718-6.1499 6.4831 2.7479 4.7636-5.101-24.258-10.222zm9.988 11.214-4.2906 4.6073-4.4098-8.4742 8.7004 3.8668zm-23.946 3.7307-4.5991 5.4753 8.5934 17.771-18.429-6.0348-3.9656 4.6978 18.935 15.899 2.8754-3.4144-13.382-11.263 17.936 5.8414 1.8882-2.2378-8.5523-17.138 13.439 11.267 4.1959-4.9652-18.935-15.899z" fill="#ffe500"/>
   <path d="m355.49 368.73-0.0206-5.4506c9.301-8.54 13.686-17.121 13.686-17.121s-3.4185-1.2876-4.9487-3.2333c-0.75692-1.0819-1.049-2.5587-0.92147-3.5501 0.29619-1.8594 1.7442-2.8014 2.2378-3.0153 1.0696-0.46073 3.0565-1.5056 5.2696 1.5385 2.3571 3.295 1.736 9.5478 1.411 10.988 0 0-4.3358 7.5486-16.714 19.844" fill="url(#h)"/>
   <path d="m365.78 347.16c-1.2547 2.1885-4.4181 7.4704-12.419 14.97-1.3287 1.2464-4.6443 2.3036-6.5243 0.19334-0.70344-0.81862-1.1683-1.9663-1.0984-3.2992 0.0905-1.5426 1.0161-3.3362 1.9458-4.126 1.6126-1.3616 8.4865-8.3014 13.374-13.76 0.13575 0.99551 0.99139 2.6615 0.99139 2.6615 0.67464 0.92969 1.4974 2.2666 3.7311 3.3609" fill="url(#o)"/>
   <path d="m478.68 517.37c-29.322 0-62.688-17.302-87.263-45.292-2.5011-2.8426-5.6851-6.4996-13.262-6.4996-4.4263 0-9.445 2.3695-12.773 6.0348-2.5052 2.7232-5.3149 7.5239-4.6402 14.883 0.97494 10.054 16.907 36.073 45.304 52.231 22.888 13.02 47.328 19.598 72.635 19.598" fill="url(#s)"/>
   <path d="m478.68 517.37c29.322 0 62.688-17.302 87.263-45.292 2.5011-2.8426 5.6851-6.4996 13.262-6.4996 4.4263 0 9.445 2.3695 12.773 6.0348 2.5052 2.7232 5.3149 7.5239 4.6402 14.883-0.97494 10.054-16.907 36.073-45.304 52.231-22.888 13.02-47.328 19.598-72.635 19.598" fill="url(#r)"/>
   <path d="m558.45 389.69c12.508 16.695 23.096 22.997 33.269 20.41 14.702-3.7434 16.529-23.979 16.726-30.104v-0.2427l-0.16454-0.12753c-5.1832-3.5912-13.855-9.5437-28.384-30.141" fill="url(#q)"/>
   <path d="m399.44 389.69c-12.508 16.695-23.096 22.997-33.269 20.41-14.702-3.7434-16.529-23.979-16.726-30.104v-0.2427l0.16454-0.12753c5.1832-3.5912 13.855-9.5437 28.384-30.141" fill="url(#p)"/>
   <path d="m522.99 299.84c-9.8564-3.2992-17.306-5.8702-29.446-6.948 5.5946-3.8833 10.56-7.1701 16.27-7.1701 3.003 0 5.5699 1.1477 6.1623 3.2457 0.55123 1.9087-0.95437 2.7397-1.4892 2.6122-0.55946-0.14398-0.95848-0.30852-0.82273-0.82685 0.14398-0.54712-0.27973-1.9375-2.1885-1.9375-1.9416 0-2.6739 1.7977-2.6739 3.0318s1.9581 3.295 5.5576 3.295c3.5295 0 5.3395-2.353 5.2038-4.5292 1.7031 2.4929 2.6945 5.0146 3.4267 9.227" fill="url(#j)"/>
   <path d="m479.39 286.9c-0.30852 1.8841-2.4764 3.69-4.669 3.69-2.1967 0-2.8549-0.35378-2.8549-0.35378-0.33321 0.51832-0.62528 0.91735-0.97083 1.4768 1.991-0.0782 6.6107-0.20569 8.4618-0.20569 1.847 0 6.9686 0.26739 8.071 0.34555-1.7812-4.1754-5.2161-9.9551-7.5897-9.9551-0.0823 0-0.18511-8e-3 -0.31264-8e-3 -0.55534 0-2.479 1.6679-3.5096 3.1325-1.354 1.924 3.3739 1.8778 3.3739 1.8778z" fill="url(#i)"/>
   <path d="m602.41 368.73 0.0206-5.4506c-9.301-8.54-13.686-17.121-13.686-17.121s3.4185-1.2876 4.9487-3.2333c0.75692-1.0819 1.049-2.5587 0.92147-3.5501-0.29619-1.8594-1.7442-2.8014-2.2378-3.0153-1.0696-0.46073-3.0565-1.5056-5.2696 1.5385-2.3571 3.295-1.736 9.5478-1.411 10.988 0 0 4.3358 7.5486 16.714 19.844" fill="url(#g)"/>
   <path d="m592.11 347.16c1.2547 2.1885 4.4181 7.4704 12.419 14.97 1.3287 1.2464 4.6443 2.3036 6.5243 0.19334 0.70344-0.81862 1.1683-1.9663 1.0984-3.2992-0.0905-1.5426-1.0161-3.3362-1.9458-4.126-1.6126-1.3616-8.4865-8.3014-13.374-13.76-0.13575 0.99551-0.99139 2.6615-0.99139 2.6615-0.67464 0.92969-1.4974 2.2666-3.7311 3.3609" fill="url(#n)"/>
   <path d="m423.57 366.84v115.77l55.354 35.567 55.349-35.567 0.0823-115.59c-1.773-1.5632-5.4547-4.9899-8.3384-6.7834h-94.442c-2.39 1.6784-7.1784 5.718-8.0052 6.6066z" fill="none" stroke="#000" stroke-miterlimit="3.863" stroke-width="2.098"/>
   <path d="m519.51 558.37c-5.4342 1.4398-9.3175 2.6574-18.47 3.7681 0 0 0.29207 0.92558 2.2831 0.85153 0.76103-0.0494 0.86387-0.23859 1.1271-0.28384 0.58826-0.10696 1.4398 0.48952 1.3534 1.4809-0.0905 0.69932-0.67464 1.5673-2.7068 1.5673-2.0322 0-4.3975-1.6537-5.5946-3.2004 0 0-1.2135 0.28385-2.4764 0.34555 0 0 3.9121 5.463 11.596 5.463 8.4371 0 11.58-7.5733 12.888-9.9921" fill="url(#e)"/>
   <path d="m335.19 439.54c0-13.966 11.333-25.324 25.316-25.324 13.986 0 25.311 11.358 25.311 25.324 0 13.991-11.325 25.324-25.311 25.324-13.982 0-25.316-11.333-25.316-25.324z" fill="#ffe500" stroke="#000" stroke-miterlimit="3.863" stroke-width="2.098"/>
   <path d="m340.99 438.59c0-10.589 8.7386-19.2 19.52-19.2 10.784 0 19.517 8.6113 19.517 19.2 0 10.607-8.7322 19.2-19.517 19.2-10.781 0-19.52-8.5926-19.52-19.2z" fill="url(#m)"/>
   <path d="m365.89 456.94c-1.1107 0.35378-1.592-0.42371-2.098-0.98317-1.9704-2.2666-2.4764-8.3014-2.4764-9.0994 0-0.80216 0.29618-1.6825 0.85976-1.703 4.7513-0.0905 8.1451-1.4686 11.259-4.0561 3.1099-2.5422 4.4592-5.4588 4.7348-5.9772 0.27151-0.57591 0.91735-0.47307 1.0366 0.32498 0.13164 0.66642 0.38257 1.8635 0.38257 3.1593 0 8.6963-5.862 15.801-13.699 18.335m-5.0146 0.78571c-0.13575 0-0.28796 0.0165-0.41548 0.0165-3.5007 0-7.3552-1.337-9.6383-2.6369-2.3654-1.2876-3.2539-7.3594-3.2539-10.428 0-9.9921 4.0972-15.94 4.7636-17.109 0.64996-1.1847 2.1144-1.3082 3.1881-1.0202 1.1107 0.32086 1.5056 0.5142 2.785 0.89266 0.66642 0.21803 2.0198 0.49364 3.0359 0.67464 1.0161 0.24271 2.1103 0.45662 1.4521 2.353-0.64996 1.9005-2.8631 6.4667-3.0853 11.88-0.21391 4.8994 0.43605 9.7659 1.5426 12.756 0.72812 1.9334 0.72812 2.6574-0.37434 2.6204m-14.464-22.81c-0.9338-0.49364-2.0568-2.9042-2.4353-3.6077-0.25505-0.50598-0.25505-1.954 0.11107-2.571 1.5632-2.7356 3.7805-5.2696 6.6354-6.5901 0.34966-0.15221 0.83919-0.181 0.83919 0.65819 0 0.44839 0.2427 1.1477 0.25093 1.592 0 0.44839 0.18923 1.3657-0.37846 2.0897-0.59648 0.72812-3.1511 5.2573-3.8051 7.7954-0.10696 0.56768-0.27973 1.1642-1.2176 0.6335m-0.52655 16.035c-2.6492-2.6163-4.5374-7.3552-4.5374-12.345 0-1.9375 0.28796-3.7928 0.80217-5.5534 0 0 0.47307-0.78983 0.88444-0.1193 0.31675 0.49364 0.7528 0.9914 1.1066 1.6496 0.39491 0.65819 2.4435 2.2173 2.2707 3.4884-0.71578 4.669-0.074 10.872 0.14809 11.917 0.19746 1.0325-0.0864 1.4727-0.67464 0.9626m8.3631-30.433c1.9622-0.64996 4.0561-1.0161 6.2116-1.0161 3.2786 0 6.4626 0.59648 9.12 2.2913 0.68287 0.44428 0.87621 0.9626 0.87621 1.7319 0 2.5052-3.9162 3.3444-6.5078 3.3444-2.6081 0-5.8167-1.0325-8.0875-1.7524-2.2625-0.70755-2.7562-2.0157-2.7562-2.6122 0-0.5718 0.44017-1.7565 1.1436-1.9869m17.681 2.785c0.34966 0.28384 1.2752 1.0325 1.2752 1.0325 1.8265 1.666 3.476 3.5666 4.4345 5.8455 1.1971 2.8713-2.5176 7.2195-3.6077 8.2232-4.92 4.6196-8.0011 4.5333-9.7453 4.7842-1.7442 0.25505-2.8755-0.83919-2.8302-2.1514 0.11107-3.8422 2.8467-10.465 3.6324-11.712 0.50187-0.80216 1.374-1.2999 1.374-1.2999 1.8265-0.50598 3.5995-1.267 4.5168-2.3119 0.89678-1.0613 0.95026-2.4106 0.95026-2.4106m-11.28-5.0475c-11.761 0-21.284 9.5273-21.284 21.28 0 11.761 9.5231 21.284 21.284 21.284 11.753 0 21.296-9.5232 21.296-21.284 0-11.753-9.5437-21.28-21.296-21.28" fill="#da020e"/>
   <path d="m572.56 439.49c0-13.966 11.333-25.283 25.316-25.283 13.991 0 25.316 11.317 25.316 25.283 0 13.991-11.325 25.328-25.316 25.328-13.982 0-25.316-11.337-25.316-25.328z" fill="#ffe500" stroke="#000" stroke-miterlimit="3.863" stroke-width="2.098"/>
   <path d="m612.7 450.86c-0.55535 0.54712-0.86798 0.0699-0.63351-0.95437 0.19335-1.0161 0.83919-7.2401 0.1193-11.909-0.17689-1.267 1.8841-2.822 2.2625-3.4884 0.37846-0.65407 0.81039-1.1642 1.1148-1.6414 0.42371-0.6911 0.8721 0.0823 0.8721 0.0823 0.54301 1.7812 0.80628 3.6447 0.80628 5.574 0 5.0063-1.9128 9.7288-4.5415 12.337m-1.7154-16.648c-0.65819-2.5299-3.2292-7.0796-3.8093-7.8036-0.58414-0.69933-0.39902-1.629-0.3908-2.0774 0-0.44427 0.25505-1.1559 0.25505-1.6167 0-0.80217 0.48541-0.78571 0.83096-0.63351 2.8713 1.3205 5.0763 3.8175 6.6559 6.5778 0.34966 0.62939 0.35789 2.0692 0.0987 2.5587-0.37023 0.70755-1.485 3.1182-2.4394 3.6282-0.95437 0.52244-1.0942-0.0864-1.2012-0.6335m-3.1963 20.819c-2.2872 1.2794-6.1417 2.6286-9.6589 2.6286h-0.40725c-1.0819 0.0288-1.1066-0.72401-0.36612-2.6492 1.0737-2.966 1.7442-7.853 1.5221-12.74-0.22214-5.4383-2.4065-9.9551-3.0852-11.868-0.65819-1.8964 0.44016-2.1268 1.4686-2.3407 1.0202-0.20157 2.3695-0.49775 3.04-0.71166 1.2588-0.38258 1.666-0.57592 2.7767-0.89267 1.0819-0.27973 2.5381-0.13987 3.2004 1.0161 0.64996 1.1847 4.7554 7.1701 4.7554 17.138 0 3.0523-0.89678 9.1159-3.2457 10.42m-15.068 1.8265c-7.8571-2.5464-13.707-9.6466-13.707-18.335 0-1.2794 0.25093-2.4641 0.35377-3.1552 0.15221-0.79805 0.7528-0.92969 1.0531-0.34144 0.27562 0.53478 1.6414 3.4473 4.7348 5.9977 3.1346 2.5669 6.4955 3.9697 11.276 4.0684 0.58002 0.0288 0.85152 0.88033 0.85152 1.699 0 0.81039-0.48952 6.8328-2.4517 9.083-0.52244 0.57592-1.0243 1.3657-2.1103 0.98317m-11.74-26.747c0.9338-2.279 2.5916-4.2124 4.4181-5.8414 0 0 0.90501-0.76515 1.2547-1.0325 0 0 0.0741 1.3616 0.98317 2.3818 0.90501 1.0284 2.6615 1.8347 4.488 2.316 0 0 0.85976 0.52243 1.374 1.3246 0.81039 1.2094 3.5254 7.8242 3.6447 11.695 0.0329 1.3164-1.086 2.4106-2.8343 2.1597-1.7524-0.23448-4.8253-0.181-9.7412-4.776-1.086-1.0078-4.8006-5.3478-3.5871-8.2273m8.0299-8.3919c2.6945-1.7031 5.8373-2.2995 9.12-2.2995 2.172 0 4.2371 0.37023 6.2158 1.0202 0.72812 0.22625 1.1559 1.3986 1.1559 1.9869 0 0.58003-0.4813 1.9046-2.7603 2.6163-2.2707 0.69932-5.4671 1.7442-8.071 1.7442-2.6204 0-6.5243-0.85153-6.5243-3.3444 0-0.7528 0.18923-1.2999 0.86387-1.7236m8.9184-3.5213c-11.749 0-21.276 9.5314-21.276 21.255 0 11.79 9.5273 21.284 21.276 21.284 11.769 0 21.296-9.4944 21.296-21.284 0-11.724-9.5273-21.255-21.296-21.255" fill="#da020e"/>
   <path d="m578.65 438.5c0-10.589 8.7386-19.2 19.52-19.2 10.784 0 19.517 8.6113 19.517 19.2 0 10.607-8.7322 19.2-19.517 19.2-10.781 0-19.52-8.5926-19.52-19.2z" fill="url(#l)"/>
  </g>
  <path d="m994.15 240.85h45.201l39.406 98.627 43.518-98.627h46.464l0.065 153.74h-44.586l-0.032-86.517-36.135 86.517h-23.896l-35.228-87.909-0.1296 87.909h-34.646z"/>
  <path d="m1185.6 240.85c15.315-0.0648 30.631-0.0648 45.914 0 0.097 31.343-0.097 62.718 0.097 94.062 0.5829 11.009 1.8133 24.543 12.142 30.987 10.556 5.5692 26.648 4.9216 33.318-6.2816 5.634-9.39 6.0225-20.755 6.2492-31.408 0.032-29.076 0.032-58.153 0-87.23 15.315-0.35617 30.631-0.0971 45.946-0.12952 0.097 32.476-0.1296 64.92-0.2915 97.397-0.2914 17.193-7.6414 34.613-21.662 45.007-18.359 13.858-42.74 16.287-64.92 13.534-16.352-1.9751-33.124-8.2243-43.809-21.306-9.4547-11.203-12.855-26.195-12.952-40.571-0.1295-31.343 0-62.718-0.032-94.062z"/>
  <path d="m1341.6 240.85h127.99l0.032 29.238-41.057 0.0324 0.032 124.47h-45.752l-0.032-124.47-41.251-0.0324z"/>
  <path d="m1479.4 240.85h49.929l33.772 97.04 33.804-97.04h34.905l-56.113 153.74h-40.215z"/>
  <path d="m1656.1 240.85h19.977v30.048h47.178v-30.048h20.01l0.032 78.453h-20.043v-33.576h-47.178v33.576h-19.977z"/>
  <path d="m1765 240.85c17.047-2e-3 33.855 0.0397 50.673 0.1619 13.794 0.45331 27.717 8.5157 32.541 21.856 5.375 14.894 3.8856 33.61-7.6414 45.298-7.1882 7.6739-17.938 10.782-28.235 10.977-15.704 0.38855-31.634 0.0635-47.338 0.1606m19.946-64.53v50.35c13.708 0.25586 28.084 1.6561 38.564-4.1445 13.261-7.3404 14.146-36.061 0.097-42.287-11.198-4.9633-24.126-3.9295-38.661-3.9179z"/>
 </g>
</svg>
