<svg version="1.0" viewBox="0 0 800 225.5" xml:space="preserve" xmlns="http://www.w3.org/2000/svg">
<style type="text/css">
	.st0{fill:#FFD100;}
	.st1{fill:#231161;}
</style>
<g transform="matrix(2.8653 0 0 2.8653 -59.599 -25.788)" stroke-width=".349">
	<path class="st0" d="m211 75.3c-0.5 1-1.1 1.9-1.8 2.8-0.4 0.5-0.8 0.9-1.2 1.3h92v-4.1z"/>
	<path class="st1" d="m261.2 31.6h-19.7-0.3-0.1-0.4-0.2c-12.8 0.4-17.1 9.6-18.5 14-0.7 2.1-1 3.9-1.2 5.4 6.9-6.3 14-12.3 21.2-12.5 1.9-0.1 4-0.1 5.8 0-0.9 3.7-1.6 7.3-2.5 11 0 0.2-0.1 0.4-0.1 0.6-0.9 4.2-2.7 11.1-8.4 11.1-3.3 0-4.4-2.3-4.7-3.4-0.2-0.6-0.3-1.3-0.3-2.5 0-1.7 0.3-4.1 0.9-6.3-3.1 0.8-12.6 3.7-20.6 13-2.5 2.9-7.2 5.4-11.2 7.1-0.8 2.8-1.8 5.2-4.7 6.7-1.9 1-3.7 1-4.6 1-5.6 0-8.2-2.9-9.6-4.5l-0.7 0.1c-1.1 2.4-2.1 4.8-3.3 7.1v0.5c0.4 0.3 1.1 1 2.3 1.6 4.6 2.7 10.5 2.7 11.9 2.7 1.9 0 10.9 0 15.8-6.2 1.9-2.5 3-5.2 4.1-9.7 0.8-2.6 3.3-8.4 9.1-9.8 0.9 3.1 3 6.8 8 8.5 3 1.1 6.2 1.1 7.2 1.1 5.5 0 16.4-1.5 19.9-15.6 0.1-0.4 0.2-0.8 0.3-1.1l5.1-19.5z" fill="#fff"/>
	<path class="st1" d="m131.7 47.4c-0.9 3.7-1.7 7.5-2.6 11.1-0.3 0.4-0.5 0.5-1 0.9-1.5 1-3.4 1.2-4 1.2-0.9 0-1.9-0.2-2.7-0.8-0.8-0.5-1.3-1.3-1.5-1.6-0.9-1.6-0.9-3.6-0.9-4.1 0-3.9 1.7-8.6 4.5-11.4 3-3 6-3.2 10-3.1-0.7 2.7-1.2 5.2-1.8 7.8m65.6-4.7c3.1-3.1 7.7-2.8 8.8-2.9l1.3 0.1-4.4 18.9c-1.8 1.7-4 2-4.8 2-0.5 0-1.5-0.1-2.6-0.7-0.3-0.1-1-0.5-1.5-1.2-0.7-0.9-1.3-2.4-1.3-4.8 0.2-3.6 1.8-8.7 4.5-11.4m-4.5 25.5c0.9 0 1.7-0.1 2.4-0.2 1.5-0.3 3.6-1 6.4-2.4l0.1-0.1c1.8-0.9 3.9-2.2 6.3-3.8 2.2-1.5 4.5-3.4 6.7-5.4l0.7-3.1c0.9-4 1.8-7.9 2.8-11.8 0.7-3 1.5-5.9 2.3-8.8l-0.3-0.5-12.2 0.4c-5 0.1-9.9 0.1-14.7 2.4-6.3 3-10 9.2-11.4 15.8-0.5 2.3-0.5 4.1-0.5 5 0 1.5 0.2 2.9 0.5 4.2-2.2 1.2-4.7 1.9-4.8-0.6 0-0.2 0.1-0.3 0.1-0.5l0.9-4.6c1.4-6.4 2.5-11.1 2.5-13.8 0-7.8-6.4-8.8-9-8.8-5.2 0-9.4 3.1-10.6 4l0.9-3.6-0.4-0.5c-1.9 0.4-3.7 0.8-5.7 1.1-1.8 0.3-3.7 0.6-5.6 0.8l-0.5 0.5c-0.3 2.4-0.6 4.8-1.1 7.2-0.6 3.4-1.3 6.8-2.1 10.2l-1.1 4.5c-0.3 1.4-0.7 2.7-1 4.1-2.3 1.2-4.8 1.9-4.6-1.1 0.8-4.3 1.8-8.2 2.9-13.2l3.1-12.7-0.4-0.5h-11.4c-5 0.1-9.5 0.2-14.1 2.3-6.2 2.8-10.3 8.2-11.9 14.6-0.7 2.8-0.8 4.9-0.8 6.2 0 1.5 0.1 2.8 0.4 4-2.5 1.4-5.9 2.8-6 0.1 0.4-2.1 0.7-4.3 1.2-6.7l2.8-16.4c0.9-5.1 1.8-10.3 2.8-15.4l-0.3-0.4c-5.1 0.1-8.1 0.1-13.1 0.1l-15.5 15.5s-3.1-11-14.5-16.3c-3-1.6-5.8-2.5-7.9-2.9-5 18.5-13.4 46.1-17.2 52.3-3.5 5.6-11.3 8.8-17.3 9.9-0.2 0-0.4 0.1-0.5 0.1l-1.3 7.1c1.6-0.1 3.4-0.3 5.1-0.6 10.9-2 20-7.5 24.5-14.7 4.1-6.5 9.5-25.2 13.8-40l0.1 0.1v-0.3s10 5.8 10.6 20.5l20.7-19.9c-0.5 3-0.9 3.8-1.5 6.8l-1.6 7.4-1.9 9.6c-0.9 4-0.5 2.4-1.4 6.3-0.5 2.9 0.6 6 6.5 6 4.6 0 10.7-2.6 13.7-4 1.4 2.1 3.3 3.4 5 4 0.7 0.3 2 0.7 4 0.7 1.3 0 5-0.3 8.3-2.6 0.5-0.4 0.9-0.7 1.4-1.2l0.4-0.4c0.4 2 1.9 3.6 5.9 3.6 2.8 0 6.1-1.1 8.9-2.2-0.2 0.6-0.3 1.3-0.5 1.9l0.3 0.5c3.7-0.1 7.4-0.3 11.1-0.3l0.5-0.4c1.6-8.2 3.5-16.6 5.3-24.9 1.5-1.1 3.3-2.1 5.2-2.1 1.4 0 2.9 0.7 3.5 2.2 0.2 0.6 0.2 0.9 0.2 1.6 0 1.9-0.7 5.2-0.8 5.4l-1.5 6.9-0.1 0.5s-0.1 0.4-0.2 1.1l-0.7 3.3c-0.7 3 0.2 6.6 6.1 6.6 4 0 9.2-2.2 12.2-3.7 1.7 2.4 4.8 4 8.9 4" fill="#fff"/>
	<path class="st0" d="m39.9 69.4c3.8-6.1 12.2-33.8 17.2-52.3l1.2 0.3c0-0.1 0.1-0.2 0.1-0.3 2.1 0.5 4.9 1.3 7.9 2.9 9.4 4.4 13.1 12.6 14.2 15.4l14.5-14.7c5 0 8.1 0 13.1-0.1h1.2l0.3 0.4c-0.9 5.1-1.9 10.3-2.7 15.4l-2.8 16.4c-0.4 2.5-0.8 4.6-1.2 6.7 0 0.8 0.4 1.2 0.9 1.4 1.2-0.2 2.6-0.9 3.8-1.6-0.3-1.2-0.4-2.5-0.4-4 0-1.3 0.1-3.3 0.8-6.2 1.5-5.6 4.8-10.4 9.7-13.4v-21.1c0-3.1-2.5-5.6-5.6-5.6h-67.4c-3.1 0-5.6 2.5-5.6 5.6v56c0.3-0.4 0.6-0.8 0.8-1.2"/>
	<path class="st0" d="m177.9 79.4c0.7-1.4 1.3-2.7 1.9-4.1h-62.1v4.1z"/>
	<path class="st0" d="m117.8 75.3v-7.2c-1.6-0.1-2.8-0.4-3.4-0.6-1.6-0.6-3.3-1.6-4.7-3.5-3.2 1.4-8.6 3.6-12.7 3.6h-0.6-0.6c-5.9 0-7-3.1-6.5-6 0.8-3.9 0.5-2.3 1.4-6.3l1.9-9.6 1.6-7.4c0.5-2.4 0.8-3.4 1.3-5.3l-19.3 18.4c0-0.4 0-0.8-0.1-1.2l-1.2 1.2c-0.5-11.6-6.9-17.7-9.5-19.7-4.2 14.7-9.6 33.1-13.7 39.5-2.7 4.4-7.2 8.1-12.6 10.8v0.1c0 3.1 2.5 5.6 5.6 5.6h67.4c3.1 0 5.6-2.5 5.6-5.6v-2.6h-59v-4.1h59.1z"/>
</g>
</svg>
