<svg data-name="Layer 1" version="1.1" viewBox="0 0 794.09 200.23" xmlns="http://www.w3.org/2000/svg">
 <defs>
  <style>.cls-1,.cls-5{fill:none;}.cls-2{clip-path:url(#b);}.cls-3{fill:url(#a);}.cls-4{clip-path:url(#a);}.cls-5{stroke:#fff;stroke-width:0.87px;}.cls-6{fill:#003a79;}.cls-7{fill:#0081c8;}</style>
  <clipPath id="b" transform="translate(.01 -.66)">
   <path class="cls-1" d="m76.28 21.33c0 11.13 10.15 20.15 22.68 20.15s22.68-9 22.68-20.15-10.16-20.16-22.64-20.16-22.68 9-22.68 20.16" fill="none"/>
  </clipPath>
  <radialGradient id="a" cx="189.13" cy="834.83" r=".95" gradientTransform="matrix(22.7,0,0,-22.7,-4194.1,18970)" gradientUnits="userSpaceOnUse">
   <stop stop-color="#fff" offset="0"/>
   <stop stop-color="#fff" offset=".16"/>
   <stop stop-color="#f2f9fc" offset=".23"/>
   <stop stop-color="#d1eaf5" offset=".37"/>
   <stop stop-color="#9bd1ea" offset=".56"/>
   <stop stop-color="#51aedb" offset=".78"/>
   <stop stop-color="#0089ca" offset="1"/>
  </radialGradient>
 </defs>
 <g transform="translate(320.75 61.008)">
  <g class="cls-2" transform="matrix(3.9407 0 0 3.9407 -298.54 -61.024)" clip-path="url(#b)">
   <rect class="cls-3" x="76.29" y=".51" width="45.36" height="40.31" fill="url(#a)"/>
  </g>
  <g class="cls-4" transform="matrix(3.9407 0 0 3.9407 -298.54 -61.024)" clip-path="url(#a)" fill="none" stroke="#fff" stroke-width=".87px">
   <path class="cls-5" transform="translate(.01 -.66)" d="m81.35 21.25v-0.36h-5v0.36a18.08 18.08 0 0 0 0.58 4.52h4.9a23.13 23.13 0 0 1-0.48-4.52z"/>
   <path class="cls-5" transform="translate(.01 -.66)" d="m81.9 16.27h-4.9a18 18 0 0 0-0.69 4.62h5a22.3 22.3 0 0 1 0.59-4.62z"/>
   <path class="cls-5" transform="translate(.01 -.66)" d="m81.81 25.77h-4.91a18.83 18.83 0 0 0 2 4.88h4.45a21.38 21.38 0 0 1-1.54-4.88z"/>
   <path class="cls-5" transform="translate(.01 -.66)" d="m83.39 30.65h-4.45a20.45 20.45 0 0 0 3.87 4.71h3.59a20.3 20.3 0 0 1-3.01-4.71z"/>
   <path class="cls-5" transform="translate(.01 -.66)" d="m99 1.1a24.25 24.25 0 0 0-15.18 5.18h3.37a16.44 16.44 0 0 1 11.81-5.18z"/>
   <path class="cls-5" transform="translate(.01 -.66)" d="m114.19 6.28a24.22 24.22 0 0 0-15.19-5.18 16.44 16.44 0 0 1 11.82 5.19z"/>
   <path class="cls-5" transform="translate(.01 -.66)" d="m86.41 35.36h-3.59a24.08 24.08 0 0 0 16.18 6.05 16.6 16.6 0 0 1-12.59-6.05z"/>
   <path class="cls-5" transform="translate(.01 -.66)" d="m83.64 11.33h-4.38a18.5 18.5 0 0 0-2.26 4.94h4.9a21.17 21.17 0 0 1 1.74-4.94z"/>
   <path class="cls-5" transform="translate(.01 -.66)" d="m87.19 6.28h-3.37a20.8 20.8 0 0 0-4.56 5.05h4.38a20 20 0 0 1 3.55-5.05z"/>
   <path class="cls-5" transform="translate(.01 -.66)" d="m114.37 11.33h4.38a20.77 20.77 0 0 0-4.56-5.05h-3.36a20 20 0 0 1 3.54 5.05z"/>
   <path class="cls-5" transform="translate(.01 -.66)" d="m114.62 30.65h4.45a18.6 18.6 0 0 0 2-4.88h-4.9a21.64 21.64 0 0 1-1.55 4.88z"/>
   <path class="cls-5" transform="translate(.01 -.66)" d="m99 41.41a24.09 24.09 0 0 0 16.19-6.05h-3.59a16.59 16.59 0 0 1-12.6 6.05z"/>
   <path class="cls-5" transform="translate(.01 -.66)" d="m116.65 21.25a22.56 22.56 0 0 1-0.45 4.52h4.9a17.89 17.89 0 0 0 0.58-4.52v-0.36h-5c-0.03 0.11-0.03 0.24-0.03 0.36z"/>
   <path class="cls-5" transform="translate(.01 -.66)" d="m116.65 20.89h5a18.13 18.13 0 0 0-0.69-4.63h-4.87a23 23 0 0 1 0.56 4.63z"/>
   <path class="cls-5" transform="translate(.01 -.66)" d="m111.6 35.36h3.59a20.45 20.45 0 0 0 3.87-4.71h-4.45a20.06 20.06 0 0 1-3.01 4.71z"/>
   <path class="cls-5" transform="translate(.01 -.66)" d="m114.37 11.33a21.79 21.79 0 0 1 1.74 4.94h4.89a18.61 18.61 0 0 0-2.24-4.94z"/>
   <path class="cls-5" transform="translate(.01 -.66)" d="m83.39 30.65a20.3 20.3 0 0 0 3 4.71h5.36a25.42 25.42 0 0 1-1.75-4.71z"/>
   <path class="cls-5" transform="translate(.01 -.66)" d="m110.82 6.28h-5a23.79 23.79 0 0 1 2 5.05h6.54a20 20 0 0 0-3.54-5.05z"/>
   <path class="cls-5" transform="translate(.01 -.66)" d="m109.14 20.89h7.51a23 23 0 0 0-0.54-4.63h-7.28a37.45 37.45 0 0 1 0.31 4.63z"/>
   <path class="cls-5" transform="translate(.01 -.66)" d="m108.83 16.27h7.29a21.75 21.75 0 0 0-1.74-4.94h-6.54a33.16 33.16 0 0 1 0.99 4.94z"/>
   <path class="cls-5" transform="translate(.01 -.66)" d="m92.22 6.28h-5a20 20 0 0 0-3.55 5.05h6.54a23.7 23.7 0 0 1 2.01-5.05z"/>
   <path class="cls-5" transform="translate(.01 -.66)" d="m108 30.65h6.64a21.64 21.64 0 0 0 1.58-4.88h-7.32a34.3 34.3 0 0 1-0.9 4.88z"/>
   <path class="cls-5" transform="translate(.01 -.66)" d="m106.24 35.36h5.36a20.07 20.07 0 0 0 3-4.71h-6.6a24.9 24.9 0 0 1-1.76 4.71z"/>
   <path class="cls-5" transform="translate(.01 -.66)" d="m109.14 21.25a40.45 40.45 0 0 1-0.26 4.52h7.32a22.68 22.68 0 0 0 0.45-4.52v-0.36h-7.51z"/>
   <path class="cls-5" transform="translate(.01 -.66)" d="m89.18 16.27h-7.28a22.24 22.24 0 0 0-0.54 4.62h7.51a38.63 38.63 0 0 1 0.31-4.62z"/>
   <path class="cls-5" transform="translate(.01 -.66)" d="m92.22 6.28c1.78-3.22 4.18-5.18 6.78-5.18a16.44 16.44 0 0 0-11.81 5.18z"/>
   <path class="cls-5" transform="translate(.01 -.66)" d="m111.6 35.36h-5.36c-1.84 3.73-4.4 6.05-7.24 6.05a16.59 16.59 0 0 0 12.6-6.05z"/>
   <path class="cls-5" transform="translate(.01 -.66)" d="m90.18 11.33h-6.54a21.36 21.36 0 0 0-1.74 4.94h7.28a33.15 33.15 0 0 1 1-4.94z"/>
   <path class="cls-5" transform="translate(.01 -.66)" d="m105.79 6.28h5a16.44 16.44 0 0 0-11.79-5.18c2.62 0 5 1.96 6.79 5.18z"/>
   <path class="cls-5" transform="translate(.01 -.66)" d="m89.12 25.77h-7.31a21.5 21.5 0 0 0 1.59 4.88h6.6a34.89 34.89 0 0 1-0.88-4.88z"/>
   <path class="cls-5" transform="translate(.01 -.66)" d="m91.77 35.36h-5.36a16.6 16.6 0 0 0 12.59 6.05c-2.83 0-5.39-2.32-7.23-6.05z"/>
   <path class="cls-5" transform="translate(.01 -.66)" d="m88.87 21.25v-0.36h-7.51v0.36a23.2 23.2 0 0 0 0.46 4.52h7.32a38.91 38.91 0 0 1-0.27-4.52z"/>
   <path class="cls-5" transform="translate(.01 -.66)" d="m96 11.33c0.19-1.9 0.43-3.6 0.7-5.05h-4.48a23.69 23.69 0 0 0-2 5.05z"/>
   <path class="cls-5" transform="translate(.01 -.66)" d="m107.83 11.33a23.88 23.88 0 0 0-2-5.05h-4.45c0.28 1.45 0.52 3.15 0.7 5.05z"/>
   <path class="cls-5" transform="translate(.01 -.66)" d="m95.62 16.27h-6.44a38.3 38.3 0 0 0-0.31 4.62h6.64c0.01-1.59 0.05-3.14 0.11-4.62z"/>
   <path class="cls-5" transform="translate(.01 -.66)" d="m89.12 25.77a34.89 34.89 0 0 0 0.88 4.88h5.88c-0.14-1.52-0.24-3.16-0.31-4.88z"/>
   <path class="cls-5" transform="translate(.01 -.66)" d="m102.1 30.65h5.9a34.3 34.3 0 0 0 0.91-4.88h-6.48c-0.09 1.73-0.2 3.36-0.33 4.88z"/>
   <path class="cls-5" transform="translate(.01 -.66)" d="m102.39 16.27h6.44a33.4 33.4 0 0 0-1-4.94h-5.83c0.19 1.53 0.32 3.19 0.39 4.94z"/>
   <path class="cls-5" transform="translate(.01 -.66)" d="m96 11.33h-5.82a33.15 33.15 0 0 0-1 4.94h6.44c0.08-1.75 0.2-3.41 0.38-4.94z"/>
   <path class="cls-5" transform="translate(.01 -.66)" d="m102.49 21.25c0 1.56 0 3.07-0.09 4.52h6.48a40.26 40.26 0 0 0 0.26-4.52v-0.36h-6.65z"/>
   <path class="cls-5" transform="translate(.01 -.66)" d="m102.49 20.89h6.65a37.61 37.61 0 0 0-0.31-4.63h-6.44c0.06 1.49 0.1 3.04 0.1 4.63z"/>
   <path class="cls-5" transform="translate(.01 -.66)" d="m92.22 6.28h4.45c0.62-3.22 1.44-5.18 2.33-5.18-2.6 0-5 1.96-6.78 5.18z"/>
   <path class="cls-5" transform="translate(.01 -.66)" d="m101.34 6.28h4.45c-1.79-3.22-4.17-5.18-6.79-5.18 0.9 0 1.73 1.96 2.34 5.18z"/>
   <path class="cls-5" transform="translate(.01 -.66)" d="m106.24 35.36h-4.74c-0.63 3.73-1.52 6.05-2.49 6.05 2.83 0 5.39-2.32 7.23-6.05z"/>
   <path class="cls-5" transform="translate(.01 -.66)" d="m96.51 35.36h-4.74c1.84 3.73 4.4 6.05 7.24 6.05-1.01 0-1.86-2.32-2.5-6.05z"/>
   <path class="cls-5" transform="translate(.01 -.66)" d="m90 30.65a25.42 25.42 0 0 0 1.73 4.71h4.75c-0.23-1.39-0.44-3-0.6-4.71z"/>
   <path class="cls-5" transform="translate(.01 -.66)" d="m102.1 30.65c-0.16 1.73-0.36 3.32-0.6 4.71h4.75a25 25 0 0 0 1.75-4.71z"/>
   <path class="cls-5" transform="translate(.01 -.66)" d="m95.51 21.25v-0.36h-6.64v0.36a39.1 39.1 0 0 0 0.26 4.52h6.47c-0.05-1.45-0.09-2.96-0.09-4.52z"/>
   <path class="cls-5" transform="translate(.01 -.66)" d="m102.39 16.27c-0.07-1.75-0.2-3.41-0.35-4.94h-6.04c-0.15 1.53-0.27 3.18-0.34 4.94z"/>
   <path class="cls-5" transform="translate(.01 -.66)" d="m95.51 20.89h7c0-1.6 0-3.15-0.11-4.63h-6.78c-0.07 1.49-0.1 3.04-0.11 4.63z"/>
   <path class="cls-5" transform="translate(.01 -.66)" d="m95.51 21.25c0 1.56 0 3.07 0.09 4.52h6.8c0.06-1.45 0.09-3 0.09-4.52v-0.36h-7z"/>
   <path class="cls-5" transform="translate(.01 -.66)" d="m101.5 35.36h-5c0.63 3.73 1.52 6.05 2.49 6.05s1.87-2.32 2.51-6.05z"/>
   <path class="cls-5" transform="translate(.01 -.66)" d="m96.67 6.28h4.67c-0.61-3.22-1.44-5.18-2.34-5.18s-1.71 1.96-2.33 5.18z"/>
   <path class="cls-5" transform="translate(.01 -.66)" d="m95.61 25.77c0.07 1.72 0.17 3.36 0.31 4.88h6.18c0.14-1.52 0.24-3.16 0.31-4.88z"/>
   <path class="cls-5" transform="translate(.01 -.66)" d="m102 11.33c-0.18-1.9-0.42-3.6-0.7-5.05h-4.63c-0.27 1.45-0.51 3.15-0.7 5.05z"/>
   <path class="cls-5" transform="translate(.01 -.66)" d="m95.92 30.65c0.16 1.73 0.36 3.32 0.6 4.71h5c0.23-1.39 0.44-3 0.6-4.71z"/>
  </g>
 </g>
 <g transform="translate(22.255)" fill="#00396c" stroke="#fff">
  <g transform="scale(.98935 1.0108)" style="font-feature-settings:normal;font-variant-caps:normal;font-variant-ligatures:normal;font-variant-numeric:normal" aria-label="RÁDIÓ">
   <path d="m441.87 79.381h8.5641c11.726 0 15.415 2.8986 17.26 12.253 1.1858 6.5877 2.1081 11.99 3.2939 18.446 1.5811 8.1688 6.5877 11.858 15.152 11.858h9.7498v-2.5033c-10.013-1.054-11.594-7.51-13.175-17.919-2.3716-13.439-6.8512-20.422-20.686-23.584v-0.79053c11.594-1.4493 21.213-8.1688 21.213-21.081 0-13.307-7.3783-21.081-28.986-21.081h-35.969v2.5033c10.936 0.79053 11.199 0.92228 11.199 8.037v65.877c0 6.983-0.26351 7.2465-11.199 8.037v2.5033h34.52v-2.5033c-10.804-0.79053-10.936-1.054-10.936-8.037zm0-35.574c0-5.2702 0.92228-6.1925 9.0911-6.1925 9.3546 0 19.104 5.0067 19.104 19.631 0 13.175-5.5337 19.5-19.631 19.5h-8.5641z" stroke-width="1.8859"/>
   <path d="m575.83 121.94v-2.6351c-8.4588-0.79053-9.7804-1.4493-12.027-7.7735-6.7406-18.182-20.354-56.786-27.623-77.077h-8.5909c-7.5336 22.662-16.389 49.935-24.583 71.938-4.2294 11.199-5.6832 12.648-13.745 13.044v2.5033h27.094v-2.5033l-6.344-0.65878c-4.2294-0.39526-5.4189-2.6351-3.172-10.013 1.9825-7.51 4.0972-13.834 6.6084-22.003h28.68c2.6434 7.3783 6.8727 19.763 9.1196 26.219 1.3217 3.6891 0.66084 5.402-3.3042 5.7972l-4.8902 0.52702v2.6351zm-34.76-38.209h-26.434c3.5685-12.121 8.8552-28.327 12.424-39.526h0.3965c4.0972 10.672 10.441 30.04 13.613 39.526zm-13.613-52.834 16.653-6.983c3.4364-1.5811 6.6084-2.7668 6.6084-5.1384 0-1.9763-1.8503-4.8749-3.7007-4.8749-1.7182 0-2.7755 0.92228-6.7406 4.2162l-13.745 11.331z" stroke-width="1.8888"/>
   <path d="m595.62 44.461c0-6.1934 0.77981-6.984 13.777-6.8522 25.994 0.26355 34.702 18.185 34.702 39.532 0 33.075-15.726 42.168-36.131 42.168-10.527 0-12.347-1.4495-12.347-10.937zm-22.744-9.4877v2.5037c9.4877 0.65887 10.527 0.92242 10.527 8.0382v65.755c0 6.984-1.1697 7.5111-10.527 8.17v2.5037h37.431c28.853 0 47.698-13.573 47.698-45.594 0-12.782-3.1192-24.246-10.787-31.626-7.9281-7.5111-18.196-9.7513-33.142-9.7513z" stroke-width="1.8732"/>
   <path d="m683.07 45.52c0-6.7195 0.26351-7.2465 10.672-8.037v-2.5033h-33.729v2.5033c10.409 0.79053 10.672 1.8446 10.672 8.037v65.877c0 6.456-0.13176 7.2465-10.672 8.037v2.5033h33.729v-2.5033c-10.54-0.79053-10.672-1.4493-10.672-8.037z" stroke-width="1.8859"/>
   <path d="m738.72 35.375c21.794 0 26.694 24.77 26.694 43.084s-4.6424 42.952-26.436 42.952-26.823-24.638-26.823-42.952 4.9004-43.084 26.436-43.084zm0-2.6351c-27.597 0-40.364 18.973-40.364 45.719 0 26.746 12.638 45.587 40.364 45.587 27.855 0 40.493-18.841 40.493-45.587 0-26.746-12.767-45.719-40.364-45.719zm-3.3529-2.5033 16.249-6.983c3.3529-1.5811 6.4479-2.7668 6.4479-5.1384 0-1.9763-1.8054-4.8749-3.6108-4.8749-1.6764 0-2.7081 0.92228-6.5768 4.2162l-13.412 11.331z" stroke-width="1.8657"/>
  </g>
  <g transform="scale(.96179 1.0397)" stroke-width="1.9486" style="font-feature-settings:normal;font-variant-caps:normal;font-variant-ligatures:normal;font-variant-numeric:normal" aria-label="MÁRIA">
   <path d="m8.8742 120.01v-4.9009c-6.8068-0.68068-11.435 0.81681-12.116-7.6236-0.54454-4.6286-0.68068-9.6657-0.68068-20.693v-42.883h0.40841c6.2623 16.745 18.242 51.459 26.819 76.236h8.3043c4.3564-13.477 18.242-55.952 25.185-76.236h0.40841v63.712c0 6.3984-1.2252 7.2152-9.9379 7.4875v4.9009h40.977v-4.9009c-8.7127-0.40841-9.9379-1.0891-9.9379-7.4875v-63.984c0-6.5345 1.2252-7.3513 9.9379-7.6236v-4.9009h-33.353c-6.9429 19.876-12.525 36.212-19.604 55.816h-0.27227c-3.9479-10.482-16.064-40.705-21.373-55.816h-34.987v4.9009c8.7127 0.27227 9.9379 1.0891 9.9379 7.4875v43.291c0 11.027-0.13614 16.2-0.68068 20.693-0.81682 7.8959-3.2673 6.8068-10.074 7.6236v4.9009z"/>
   <path d="m174.77 120.01v-4.9009c-6.5345-0.13614-8.3043-0.95296-10.21-5.99-6.5345-17.017-19.331-56.36-26.547-78.55h-17.425c-7.7598 23.96-20.284 62.623-26.819 78.006-2.1782 5.1732-3.4034 6.1261-10.21 6.5345v4.9009h29.405v-4.9009l-7.7598-0.68068c-2.7227-0.27228-2.995-1.7698-2.3143-4.4925 1.6336-6.3984 4.0841-13.886 6.2623-21.237h25.321c1.6336 5.037 4.4925 13.75 6.8068 21.101 0.81681 2.5866 0.54454 4.2202-2.042 4.4925l-7.6236 0.81682v4.9009zm-42.338-37.574h-21.373c3.2673-10.346 8.032-26.41 10.482-34.306h0.4084c2.4504 8.5766 7.6236 25.866 10.482 34.306zm-7.7598-56.496 20.557-7.3513c5.5816-2.1782 9.8018-4.4925 9.8018-8.3043 0-3.4034-2.7227-8.7127-6.6707-8.7127-2.042 0-4.6286 0.54454-9.8018 5.1732l-16.064 14.975z"/>
   <path d="m202.63 79.035h4.7648c7.0791 0 10.346 2.1782 12.116 9.8018 0.95296 4.6286 1.6336 11.572 3.8118 18.106 3.1311 9.6656 9.5295 13.069 23.824 13.069h10.346v-4.9009c-8.7127-0.40841-10.891-7.6236-12.797-17.562-1.7698-10.21-6.5345-18.923-20.829-22.19v-0.81682c12.797-1.4975 21.782-8.5766 21.782-21.509 0-20.148-15.111-21.918-30.494-21.918h-44.925v4.9009c8.985 0.40841 10.074 0.95295 10.074 7.4875v64.12c0 6.3984-1.2252 7.0791-10.074 7.4875v4.9009h42.338v-4.9009c-8.8488-0.40841-9.9379-1.0891-9.9379-7.4875zm0-37.301c0-3.5395 0.13614-4.6286 6.3984-4.6286 8.032 0 13.886 5.3093 13.886 17.562 0 9.5295-1.7698 18.378-15.383 18.378h-4.9009z"/>
   <path d="m284.4 43.504c0-6.5345 1.0891-7.2152 9.9379-7.4875v-4.9009h-42.202v4.9009c8.7127 0.27227 9.9379 1.0891 9.9379 7.4875v64.12c0 6.3984-1.2252 7.0791-9.9379 7.4875v4.9009h42.202v-4.9009c-8.8488-0.40841-9.9379-1.0891-9.9379-7.4875z"/>
   <path d="m380.71 120.01v-4.9009c-6.5345-0.13614-8.3043-0.95296-10.21-5.99-6.5345-17.017-19.331-56.36-26.547-78.55h-17.425c-7.7598 23.96-20.284 62.623-26.819 78.006-2.1782 5.1732-3.4034 6.1261-10.21 6.5345v4.9009h29.405v-4.9009l-7.7598-0.68068c-2.7227-0.27228-2.995-1.7698-2.3143-4.4925 1.6336-6.3984 4.0841-13.886 6.2623-21.237h25.321c1.6336 5.037 4.4925 13.75 6.8068 21.101 0.81682 2.5866 0.54455 4.2202-2.042 4.4925l-7.6236 0.81682v4.9009zm-42.338-37.574h-21.373c3.2673-10.346 8.032-26.41 10.482-34.306h0.40841c2.4504 8.5766 7.6236 25.866 10.482 34.306z"/>
  </g>
  <g transform="scale(.97855 1.0219)" style="font-feature-settings:normal;font-variant-caps:normal;font-variant-ligatures:normal;font-variant-numeric:normal" aria-label="ERDÉLY">
   <path d="m273.74 192.11c0 1.8285-0.35015 2.062-2.8401 2.1398v1.4006h20.658l0.54467-7.781h-1.4006c-1.4006 3.8516-2.023 6.0692-6.3415 6.0692-4.1239 0-4.3184-0.35014-4.3184-2.6455v-7.9366h3.1124c2.2176 0 2.7233 0.817 3.3458 3.5403h1.4006v-8.7925h-1.4006c-0.62248 2.7233-1.1282 3.3458-3.3458 3.3458h-3.1124v-8.17c0-1.0504 0.27233-1.3228 1.2839-1.3228h2.4899c3.696 0 4.3574 1.5562 5.6023 5.1354h1.4006v-6.8473h-19.919v1.4006c2.5288 0.0778 2.8401 0.27233 2.8401 2.1398z" stroke-width=".55687"/>
   <path d="m323.4 183.94h1.453c2.1587 0 3.1551 0.62248 3.6948 2.8012 0.29059 1.3228 0.49817 3.3069 1.1624 5.1744 0.95483 2.7622 2.906 3.7349 7.265 3.7349h3.1551v-1.4006c-2.6569-0.11671-3.3211-2.1787-3.9023-5.0187-0.53968-2.9179-1.9927-5.4078-6.3516-6.3415v-0.23343c3.9023-0.42796 6.6422-2.451 6.6422-6.147 0-5.7579-4.608-6.2637-9.2991-6.2637h-13.7v1.4006c2.7399 0.11671 3.072 0.27233 3.072 2.1398v18.324c0 1.8285-0.37363 2.0231-3.072 2.1398v1.4006h12.911v-1.4006c-2.6984-0.11671-3.0305-0.31124-3.0305-2.1398zm0-10.66c0-1.0115 0.0415-1.3228 1.9512-1.3228 2.4493 0 4.2344 1.5173 4.2344 5.0187 0 2.7233-0.53967 5.2522-4.6911 5.2522h-1.4945z" stroke-width=".57524"/>
   <path d="m368.82 172.85c0-0.70029 0.33038-0.89481 2.3127-0.89481 4.2583 0 6.7178 3.5403 6.7178 10.777 0 9.7651-3.3038 11.205-6.571 11.205-2.0557 0-2.4595-0.42795-2.4595-1.3617zm-8.7001-2.6066v1.4006c2.3494 0.0778 2.6798 0.27233 2.6798 2.1787v18.285c0 1.8674-0.29368 2.0231-2.6798 2.1398v1.4006h10.095c5.0292 0 14.207-0.50577 14.207-13.111 0-4.2017-0.91774-7.1974-2.9-9.2983-1.9823-2.062-4.9558-2.9957-9.5077-2.9957z" stroke-width=".54092"/>
   <path d="m408.36 192.11c0 1.8285-0.35015 2.062-2.8401 2.1398v1.4006h20.658l0.54467-7.781h-1.4006c-1.4006 3.8516-2.023 6.0692-6.3415 6.0692-4.1239 0-4.3184-0.35014-4.3184-2.6455v-7.9366h3.1124c2.2176 0 2.7233 0.817 3.3458 3.5403h1.4006v-8.7925h-1.4006c-0.62247 2.7233-1.1282 3.3458-3.3458 3.3458h-3.1124v-8.17c0-1.0504 0.27233-1.3228 1.2839-1.3228h2.4899c3.696 0 4.3573 1.5562 5.6023 5.1354h1.4006v-6.8473h-19.919v1.4006c2.5288 0.0778 2.8401 0.27233 2.8401 2.1398zm6.2637-23.343 5.8746-2.1009c1.5951-0.62248 2.8012-1.2839 2.8012-2.3732 0-0.97262-0.7781-2.4899-1.9063-2.4899-0.58357 0-1.3228 0.15562-2.8012 1.4784l-4.5908 4.2795z" stroke-width=".55687"/>
   <path d="m458.38 173.78c0-1.8674 0.29838-2.0231 3.6231-2.1398v-1.4006h-13.768v1.4006c2.7706 0.0778 3.1542 0.27233 3.1542 2.1398v18.324c0 1.8285-0.38363 2.0231-3.1542 2.1398v1.4006h21.866l0.38363-7.3919h-1.5345c-1.5345 3.4625-1.7902 5.6801-6.4363 5.6801-3.2394 0-4.1346-0.27233-4.1346-2.6455z" stroke-width=".58288"/>
   <path d="m511.67 195.65v-1.4006c-3.3105-0.11671-3.6375-0.31124-3.6375-2.1398v-5.9914c0-1.0504 0.28609-1.8285 0.73568-2.6844 1.7574-3.4625 3.4332-6.7694 5.3541-9.8429 0.85829-1.4006 1.5122-1.7118 3.5558-1.9452v-1.4006h-8.9916v1.4006l2.0435 0.23343c0.69482 0.0778 0.94003 0.50576 0.5722 1.5173-1.0218 2.5677-2.6566 6.147-4.3732 9.415h-0.12262c-1.1444-2.1398-3.7192-7.0029-5.068-9.7262-0.24522-0.54467-0.40871-1.1282 0.44958-1.206l2.0844-0.23343v-1.4006h-12.67v1.4006c2.0027 0.15562 2.2479 0.50576 3.2288 2.1398 1.0626 1.7507 4.2506 7.3919 5.681 9.9986 0.36785 0.73919 0.81742 1.6729 0.81742 2.6066v5.719c0 1.8285-0.32697 2.0231-3.6375 2.1398v1.4006z" stroke-width=".57076"/>
  </g>
 </g>
</svg>
