<svg width="774.8" height="661.21" viewBox="0 0 205 174.95" xmlns="http://www.w3.org/2000/svg" xmlns:xlink="http://www.w3.org/1999/xlink">
    <defs>
        <linearGradient id="a">
            <stop stop-color="#fec910" offset="0"/>
            <stop stop-color="#faab18" offset="1"/>
        </linearGradient>
        <linearGradient id="c" x1="39.394" x2="107.95" y1="76.565" y2="133.18" gradientTransform="translate(0 -.002)" gradientUnits="userSpaceOnUse" xlink:href="#a"/>
        <linearGradient id="b" x2="56.687" y1="28.343" y2="28.343" gradientUnits="userSpaceOnUse" xlink:href="#a"/>
    </defs>
    <path d="M158.75 97.606c0 42.71-34.64 77.34-77.35 77.34-42.733 0-77.366-34.63-77.366-77.34 0-42.72 34.633-77.351 77.366-77.351 42.71 0 77.35 34.631 77.35 77.351" fill="#085ba6" fill-rule="evenodd"/>
    <path d="M56.687 28.344c0 15.662-12.683 28.342-28.343 28.342C12.683 56.686 0 44.006 0 28.344 0 12.683 12.683 0 28.344 0c15.66 0 28.343 12.683 28.343 28.344" fill="url(#b)" fill-rule="evenodd"/>
    <path d="M128.78 97.394c0 27.41-22.22 49.61-49.61 49.61-27.406 0-49.606-22.2-49.606-49.61 0-27.4 22.2-49.6 49.606-49.6 27.39 0 49.61 22.2 49.61 49.6" fill="url(#c)" fill-rule="evenodd"/>
    <path d="M124.42 112.9c-10.89-13.02-20.82-13.71-26.89-12.16-6.87 1.72-11.05 6.04-15.24 10.16-.67.08-6.41-14.62-13.77-30.01-1.68-3.54-4.04-5.73-6.555-6.04-3.582-.44-6.331 3.12-8.622 6.83-5.227 8.48-12.85 21.24-16.515 27.01-.437.71-.771-.31-.854-.81C30.997 77.93 55.55 52.4 85.66 55.82c28.31 3.37 46.34 31.32 38.76 57.08m5.81 6.81c14.93-36.09-11.37-70.37-43.05-73.79-31.609-3.58-59.328 20.41-59.349 53.07 0 10.33 3.041 16.18 6.102 17.91 4.561 2.56 8.289-3.4 10.58-6.42 5.373-7.08 11.787-16.76 14.161-20.12.667-.95 1.375-.7 1.854.03 1.957 2.89 10.182 21.63 16.032 31.73 1.42 2.44 3.84 4.11 6.69 1.65 2.87-2.48 8.97-9.52 14.93-11.39 7.79-2.46 15.95 3.89 21.08 10.43-7.83 12.95-21.64 20.95-37.97 21.41-37.902 1.08-48.898-28.95-74.326-35.03-2.103-.5-3.832 2.13-.167 3.35 11.288 3.79 19.764 12.6 29.24 20.93 11.37 10 25.574 18.54 45.043 18.64 17.5.09 33.72-8.22 44.11-23.09 9.06 8.22 23.7 4.06 29.22-4.52.37-.58.17-1.36-.81-.73-13.06 8.52-22.39-2.81-23.37-4.06" fill="#fff" fill-rule="evenodd"/>
    <path d="M28.439 18.137v3.041l-1.457.146v14.953l1.457.145v3.041h-6.914v-3.041l1.458-.145V30.05h-9.351v6.227l1.458.145v3.041H8.134v-3.041l1.479-.145V21.324l-1.479-.146v-3.041h6.956v3.041l-1.458.146v5.31h9.351v-5.31l-1.458-.146v-3.041zM45.237 27.409c0-4.644-1.874-6.019-5.935-6.019h-2.686v14.828h2.686c4.061 0 5.935-1.458 5.935-6.102zm-5.893 12.225c-2.604 0-5.54-.084-8.143-.188v-3.02l1.499-.229V21.39l-1.499-.25v-2.998c2.603-.125 5.373-.188 8.143-.188 6.935 0 9.892 3.228 9.892 9.455v2.707c0 6.29-2.791 9.518-9.892 9.518" fill="#fff"/>
    <path d="M166.18 10.073h12.458v13.043h13.015V35.57h-13.015l-.027 12.983h-12.43V35.57h-13.014V23.116h13.014V10.073z" fill="#fbbc13" stroke-width=".162"/>
    <path d="M191.65 10.072h13.348v38.48H191.65V23.114h-13.015l13.015-13.043z" fill="#085ba6" stroke-width=".162"/>
</svg>
