<?xml version="1.0" encoding="UTF-8"?>
<svg id="svg20" width="774.8" height="661.21" version="1.1" viewBox="0 0 205 174.95" xmlns="http://www.w3.org/2000/svg" xmlns:cc="http://creativecommons.org/ns#" xmlns:dc="http://purl.org/dc/elements/1.1/" xmlns:rdf="http://www.w3.org/1999/02/22-rdf-syntax-ns#" xmlns:xlink="http://www.w3.org/1999/xlink">
 <metadata id="metadata26">
  <rdf:RDF>
   <cc:Work rdf:about="">
    <dc:format>image/svg+xml</dc:format>
    <dc:type rdf:resource="http://purl.org/dc/dcmitype/StillImage"/>
    <dc:title/>
   </cc:Work>
  </rdf:RDF>
 </metadata>
 <defs id="defs24">
  <linearGradient id="linearGradient4521">
   <stop id="stop4517" stop-color="#fec910" offset="0"/>
   <stop id="stop4519" stop-color="#faab18" offset="1"/>
  </linearGradient>
  <linearGradient id="linearGradient4523" x1="39.394" x2="107.95" y1="76.565" y2="133.18" gradientTransform="translate(-5.4915e-5 -.0021842)" gradientUnits="userSpaceOnUse" xlink:href="#linearGradient4521"/>
  <linearGradient id="linearGradient4531" x2="56.687" y1="28.343" y2="28.343" gradientTransform="translate(-.00019785)" gradientUnits="userSpaceOnUse" xlink:href="#linearGradient4521"/>
 </defs>
 <path id="path2" d="m158.75 97.606c0 42.71-34.64 77.34-77.35 77.34-42.733 0-77.366-34.63-77.366-77.34 0-42.72 34.633-77.351 77.366-77.351 42.71 0 77.35 34.631 77.35 77.351" fill="#085ba6" fill-rule="evenodd"/>
 <path id="path4" d="m56.687 28.344c0 15.662-12.683 28.342-28.343 28.342-15.661 0-28.344-12.68-28.344-28.342 0-15.661 12.683-28.344 28.344-28.344 15.66 0 28.343 12.683 28.343 28.344" fill="url(#linearGradient4531)" fill-rule="evenodd"/>
 <path id="path6" d="m128.78 97.394c0 27.41-22.22 49.61-49.61 49.61-27.406 0-49.606-22.2-49.606-49.61 0-27.4 22.2-49.6 49.606-49.6 27.39 0 49.61 22.2 49.61 49.6" fill="url(#linearGradient4523)" fill-rule="evenodd"/>
 <path id="path10" d="m124.42 112.9c-10.89-13.02-20.82-13.71-26.89-12.16-6.87 1.72-11.05 6.04-15.24 10.16-0.67 0.08-6.41-14.62-13.77-30.01-1.68-3.54-4.04-5.73-6.555-6.04-3.582-0.44-6.331 3.12-8.622 6.83-5.227 8.48-12.85 21.24-16.515 27.01-0.437 0.71-0.771-0.31-0.854-0.81-4.977-29.95 19.576-55.48 49.686-52.06 28.31 3.37 46.34 31.32 38.76 57.08m5.81 6.81c14.93-36.09-11.37-70.37-43.05-73.79-31.609-3.58-59.328 20.41-59.349 53.07 0 10.33 3.041 16.18 6.102 17.91 4.561 2.56 8.289-3.4 10.58-6.42 5.373-7.08 11.787-16.76 14.161-20.12 0.667-0.95 1.375-0.7 1.854 0.03 1.957 2.89 10.182 21.63 16.032 31.73 1.42 2.44 3.84 4.11 6.69 1.65 2.87-2.48 8.97-9.52 14.93-11.39 7.79-2.46 15.95 3.89 21.08 10.43-7.83 12.95-21.64 20.95-37.97 21.41-37.902 1.08-48.898-28.95-74.326-35.03-2.103-0.5-3.832 2.13-0.167 3.35 11.288 3.79 19.764 12.6 29.24 20.93 11.37 10 25.574 18.54 45.043 18.64 17.5 0.09 33.72-8.22 44.11-23.09 9.06 8.22 23.7 4.06 29.22-4.52 0.37-0.58 0.17-1.36-0.81-0.73-13.06 8.52-22.39-2.81-23.37-4.06" fill="#fff" fill-rule="evenodd"/>
 <path id="path12" d="m28.439 18.137v3.041l-1.457 0.146v14.953l1.457 0.145v3.041h-6.914v-3.041l1.458-0.145v-6.227h-9.351v6.227l1.458 0.145v3.041h-6.956v-3.041l1.479-0.145v-14.953l-1.479-0.146v-3.041h6.956v3.041l-1.458 0.146v5.31h9.351v-5.31l-1.458-0.146v-3.041z" fill="#fff"/>
 <path id="path14" d="m45.237 27.409c0-4.644-1.874-6.019-5.935-6.019h-2.686v14.828h2.686c4.061 0 5.935-1.458 5.935-6.102zm-5.893 12.225c-2.604 0-5.54-0.084-8.143-0.188v-3.02l1.499-0.229v-14.807l-1.499-0.25v-2.998c2.603-0.125 5.373-0.188 8.143-0.188 6.935 0 9.892 3.228 9.892 9.455v2.707c0 6.29-2.791 9.518-9.892 9.518" fill="#fff"/>
 <path id="path4-1" d="m166.18 10.073 12.458-1.2e-4v13.043h13.015v12.454h-13.015l-0.0274 12.983h-12.43v-12.983h-13.014v-12.454h13.014l3e-5 -13.043z" fill="#fbbc13" stroke-width=".16154"/>
 <path id="path13" d="m191.65 10.072 13.348 1.02e-4v38.48l-13.348 2.4e-5v-25.438h-13.015l13.015-13.043z" fill="#085ba6" stroke-width=".16154"/>
</svg>
