<svg version="1.1" viewBox="0 0 1111.8 133.38" xmlns="http://www.w3.org/2000/svg">
 <defs>
  <linearGradient id="paint0_linear" x1=".414" x2=".414" y1="8.008" y2="43.962" gradientTransform="matrix(4.4199 0 0 4.4199 -43.647 -39.766)" gradientUnits="userSpaceOnUse">
   <stop stop-color="#FCDF6B" offset="0"/>
   <stop stop-color="#EFBD50" offset=".224"/>
   <stop stop-color="#CD9638" offset=".423"/>
   <stop stop-color="#AC772A" offset=".559"/>
   <stop stop-color="#8E5C1E" offset=".756"/>
   <stop stop-color="#83551A" offset=".892"/>
   <stop stop-color="#996520" offset="1"/>
  </linearGradient>
  <linearGradient id="paint1_linear" x1="174.6" x2="192.11" y1="256.91" y2="12.375" gradientTransform="matrix(4.4199 0 0 4.4199 -43.647 -39.766)" gradientUnits="userSpaceOnUse">
   <stop offset="0"/>
   <stop stop-color="#F0F0F0" offset="1"/>
  </linearGradient>
  <linearGradient id="paint2_linear" x1="135.04" x2="122.24" y1="32.753" y2="1.203" gradientTransform="matrix(4.4199 0 0 4.4199 -43.647 -39.766)" gradientUnits="userSpaceOnUse">
   <stop stop-color="#F1F1F1" offset="0"/>
   <stop stop-color="#BDBDBD" offset="1"/>
  </linearGradient>
 </defs>
 <g clip-rule="evenodd" fill-rule="evenodd" stroke-width="4.4199">
  <path d="m389.9 0v66.25h-21.98v-66.25h-190.31l-38.506 62.003v-62.003h-41.335l-28.022 36.951-28.394-36.951h-41.357v131.06h41.362v-69.866l28.394 36.769 28.022-36.296v69.393h42.36l17.202-27.726h43.678v27.726h41.366v-93.817h21.98v93.817h41.366v-93.817h20.827v66.25h63.346v27.567h41.366v-131.05h-41.366zm-188.89 32.995v33.123h-20.566z" fill="url(#paint0_linear)" Googl="true"/>
  <path d="m448.16 0v80.164l41.362-24.871v-55.293z" fill="url(#paint1_linear)"/>
  <path d="m492.55 106.87c-1.1138-11.235-10.223-20.332-21.49-21.437-15.218-1.5072-27.907 11.151-26.4 26.343 1.1182 11.235 10.228 20.327 21.49 21.437 15.222 1.5028 27.907-11.156 26.4-26.343z" fill="url(#paint2_linear)"/>
 </g>
 <g stroke-width="6.6667">
  <path d="m531.76 0.043h505.43v133.33h-505.43z" fill="#50d200"/>
  <path d="m621.84 32.51v5.8333h13.367c9.44 0 14.207 4.66 14.207 13.887v28.527c0 9.3333-4.7733 13.893-14.207 13.893h-13.367v6.26h-19.193v-6.26h-13.473c-9.44 0-14.107-4.66-14.107-14v-28.413c0-9.2267 4.6667-13.887 14.107-13.887h13.473v-5.84zm-29.373 48.68h10.173v-29.273h-10.173zm29.373 0h9.9733v-29.273h-9.9733zm52.6 16.753 9.6533-18.767h-3.3933c-4.1333 0-5.94-0.74-7.1067-4.3467l-13.467-38.713v-1.4867h19.94l8.6933 34.367h0.95333l9.9733-34.367h19.72v1.48l-25.453 63.427h-19.513zm89.087-49v50.587h-18.24v-50.587h-17.387v-14.313h52.92v14.32h-17.293zm85.687 35.64c0 9.9667-3.5 14.953-12.513 14.953h-41.04v-64.907h51.64v14.32h-32.553v9.5467h19.3c9.7667 0 15.167 3.1867 15.167 12.62zm-19.087-11.887h-15.38v12.513h15.38zm91.313 14.213c0 8.38-4.14 12.627-12.527 12.627h-29.273c-8.3733 0-12.407-4.2467-12.407-12.627v-39.24c0-8.6933 4.0333-13.047 12.407-13.047h29.273c8.3867 0 12.527 4.14 12.527 12.627zm-19.307-37.967h-15.913v36.267h15.913zm91.727-14.313v64.907h-19.087v-50.593h-11.98v18.033c0 17.387-3.7133 31.713-22.28 33.407l-5.8333-14.32c10.407-2.1133 11.46-6.8867 11.46-19.507v-31.927z" fill="#fff" Googl="true"/>
  <path d="m1111.8 0.043v133.33h-31.613v-98.08h-15.053v-35.253z" fill="#50d200"/>
 </g>
</svg>
