<svg width="800" height="430" version="1.1" viewBox="0 0 800 429.98" xmlns="http://www.w3.org/2000/svg">
 <g stroke-width="5.3333">
  <path d="m0 215v-215h800v430h-800z" fill="#1d823e"/>
  <path d="m154.91 217.5 31.472 67.048 20.928 0.40533 20.928 2e-5 31.477-67.453 0.288 107.5h102.81l14.691-42.5h80l7.3461 21.25 7.3456 21.25h81.636l46.405-69.048 46.405 69.045h55.285l-74.133-110.21 74.133-110.21h-55.285l-46.405 69.045-46.405-69.045h-55.285l74.133 110.21-55.109 82.936-71.409-193.15-54.309-4e-5 -79.439 211.83v-211.83h-52.699l-52.405 112.11-52.4-112.11-52.411-2e-3v220.44l27.315 2e-3h25.095z" fill="#fff"/>
  <path d="m442.87 240h-50.512l25.256-72.608z" fill="#1d823e"/>
 </g>
</svg>
