<svg version="1.1" viewBox="0 0 677.1 115" xml:space="preserve" xmlns="http://www.w3.org/2000/svg">
	<g transform="scale(1.5436)">
		<path d="m0 74.5 14.5-74.5h351.9l-14.5 74.5z" fill="#fff"/>
		<path d="m351.9 74.5 72.241-2e-6 14.5-74.5h-72.241" fill="#41b6e6"/>
		<path d="m240.1 17.4h-18.5l-7.6 38.9h6.3l3.2-16.8h12.2c5.3 0 9.3-2.4 9.9-5.8l2.1-10.4c0.8-3.6-2.4-5.9-7.6-5.9zm-0.8 16.7c-0.2 0.8-1.1 1.4-2.4 1.4h-12.6l2.8-14.2h12.6c1.3 0 2 0.6 1.8 1.4zm33.2-16.9h-9.6c-5.2 0-9.3 2.4-9.9 5.8l-5.3 27.4c-0.7 3.4 2.5 5.8 7.7 5.8h9.6c5.2 0 9.3-2.4 9.9-5.8l5.3-27.4c0.6-3.4-2.5-5.8-7.7-5.8zm-4.1 33.7c-0.2 0.8-1.1 1.4-2.4 1.4h-10.5c-1.3 0-2-0.6-1.8-1.4l5.5-28.2c0.2-0.8 1.1-1.4 2.4-1.4h10.5c1.3 0 2 0.6 1.8 1.4zm38.6-33.5h-18.5l-7.6 38.9h6.3l3.3-16.9h8.8l2.9 16.9h6.7l-3.4-17.1c3.8-0.7 6.6-2.8 7.1-5.6l2-10.3c0.7-3.6-2.4-5.9-7.6-5.9zm-0.7 16.6c-0.2 0.8-1.1 1.4-2.4 1.4h-12.6l2.7-14.1h12.6c1.3 0 2 0.6 1.8 1.4zm11-16.6-0.8 3.9h10.5l-6.8 34.9h6.3l6.8-34.9h10.5l0.8-3.9zm-128.3 5.7-1.6 6.3c-0.4 2.2 0.3 4 2.1 5.3l13.4 5.9c0.6 0.4 0.8 1.1 0.7 1.8l-2 8.5c-0.2 0.8-1.1 1.4-2.4 1.4h-14.3l-0.8 4.1h13.9c5 0 9.3-2.5 9.9-5.8l1.8-7.5c0.4-2.2-0.3-4.1-2.1-5.3l-13.4-5.9c-0.6-0.4-0.8-1.1-0.7-1.8l1.8-7.3c0.2-0.8 1.1-1.4 2.4-1.4h15l0.8-4.1h-14.5c-5.1-0.1-9.3 2.4-10 5.8z" Googl="true"/>
		<path d="m66.6 17.4-9.3 14.5-3.7-14.6h-19.9l-7.9 39h15.9l3.9-24.3 3.9 14h10.6l9.1-14-6.6 24.4h16.4l7.4-39zm37.9 23.2 6.8-11.2h23.4l2.3-12.2h-33.8l-23.8 39.1h15.5l3.7-6h17.1l-1.5 6h15.2l3-15.7zm83.5-23.4h-18l-9.9 9.5-6.3-9.5h-16.2l12.7 19.1-20.4 20h18l9.6-9.3 6.2 9.3h16.3l-12.6-18.8z"/>
		<path d="m406.8 16.7h-23.5l-1.6 8.9h19.2c0.2 0 0.3 0.1 0.2 0.2l-1.5 6.1c0 0.1-0.1 0.2-0.3 0.2h-16.5l-1.5 8.2h16.5c0.2 0 0.3 0.1 0.2 0.2l-1.7 6.9c0 0.1-0.1 0.2-0.3 0.2h-19.2l-1.5999 8.9h23.5c5.5 0 9.9-2.4 10.6-6.8l2-9.7c0.5-1.7-0.9-3.2-3.5-3.7v-0.1c2.9-0.5 4.8-1.9 5.4-4.5l1.8-8.9c0.7-3.7-2.6-6.1-8.2-6.1z" fill="#fff"/>
	</g>
</svg>
