<?xml version="1.0" encoding="UTF-8" standalone="no"?>
<svg xmlns="http://www.w3.org/2000/svg" height="242.87" width="600" version="1.1" viewBox="0 0 158.75 64.258454">
  <defs>
    <linearGradient id="b" gradientUnits="userSpaceOnUse" gradientTransform="matrix(43.978 0 0 43.978 452.8 29.079)" x1="0" x2="1" y1="0" y2="0">
      <stop stop-color="#4f4c4d" offset="0"/>
      <stop stop-color="#231f20" offset=".35954"/>
      <stop stop-color="#4f4c4d" offset=".65169"/>
      <stop stop-color="#231f20" offset="1"/>
    </linearGradient>
    <linearGradient id="c" gradientUnits="userSpaceOnUse" gradientTransform="matrix(30.488 0 0 30.488 499.45 33.014)" x1="0" x2="1" y1="0" y2="0">
      <stop stop-color="#4f4c4d" offset="0"/>
      <stop stop-color="#231f20" offset=".35954"/>
      <stop stop-color="#4f4c4d" offset=".65169"/>
      <stop stop-color="#231f20" offset="1"/>
    </linearGradient>
    <linearGradient id="d" gradientUnits="userSpaceOnUse" gradientTransform="matrix(31.915 0 0 31.915 422.58 32.512)" x1="0" x2="1" y1="0" y2="0">
      <stop stop-color="#4f4c4d" offset="0"/>
      <stop stop-color="#231f20" offset=".35954"/>
      <stop stop-color="#4f4c4d" offset=".65169"/>
      <stop stop-color="#231f20" offset="1"/>
    </linearGradient>
    <linearGradient id="e" gradientUnits="userSpaceOnUse" gradientTransform="matrix(45.054 0 0 45.054 375.88 32.52)" x1="0" x2="1" y1="0" y2="0">
      <stop stop-color="#4f4c4d" offset="0"/>
      <stop stop-color="#231f20" offset=".35954"/>
      <stop stop-color="#4f4c4d" offset=".65169"/>
      <stop stop-color="#231f20" offset="1"/>
    </linearGradient>
    <linearGradient id="f" gradientUnits="userSpaceOnUse" gradientTransform="matrix(48.921 0 0 48.921 373.95 32.517)" x1="0" x2="1" y1="0" y2="0">
      <stop stop-color="#d7d7d7" offset="0"/>
      <stop stop-color="#d7d7d7" offset=".15169"/>
      <stop stop-color="#5a5758" offset=".23033"/>
      <stop stop-color="#dad9d9" offset=".39326"/>
      <stop stop-color="#514e4f" offset=".46068"/>
      <stop stop-color="#cac9c9" offset=".56180"/>
      <stop stop-color="#5a5758" offset=".74719"/>
      <stop stop-color="#e2e2e2" offset=".88763"/>
      <stop stop-color="#615e5e" offset="1"/>
    </linearGradient>
    <linearGradient id="g" gradientUnits="userSpaceOnUse" gradientTransform="matrix(.057555 0 0 .057555 397.94 14.523)" x1="0" x2="1" y1="0" y2="0">
      <stop stop-color="#d7d7d7" offset="0"/>
      <stop stop-color="#d7d7d7" offset=".15169"/>
      <stop stop-color="#5a5758" offset=".23033"/>
      <stop stop-color="#dad9d9" offset=".39326"/>
      <stop stop-color="#514e4f" offset=".46068"/>
      <stop stop-color="#cac9c9" offset=".56180"/>
      <stop stop-color="#5a5758" offset=".74719"/>
      <stop stop-color="#e2e2e2" offset=".88763"/>
      <stop stop-color="#615e5e" offset="1"/>
    </linearGradient>
    <linearGradient id="h" gradientUnits="userSpaceOnUse" gradientTransform="matrix(112.04 0 0 112.04 420.65 29.284)" x1="0" x2="1" y1="0" y2="0">
      <stop stop-color="#d5d4d5" offset="0"/>
      <stop stop-color="#d5d4d5" offset=".067413"/>
      <stop stop-color="#464344" offset=".11798"/>
      <stop stop-color="#d7d7d7" offset=".19101"/>
      <stop stop-color="#5a5758" offset=".23033"/>
      <stop stop-color="#d1d0d0" offset=".28651"/>
      <stop stop-color="#514e4f" offset=".33708"/>
      <stop stop-color="#dad9d9" offset=".39326"/>
      <stop stop-color="#514e4f" offset=".43259"/>
      <stop stop-color="#cac9c9" offset=".48314"/>
      <stop stop-color="#797777" offset=".55057"/>
      <stop stop-color="#deddde" offset=".60112"/>
      <stop stop-color="#727070" offset=".72472"/>
      <stop stop-color="#deddde" offset=".77528"/>
      <stop stop-color="#727070" offset=".83147"/>
      <stop stop-color="#e2e2e2" offset=".91011"/>
      <stop stop-color="#615e5e" offset="1"/>
    </linearGradient>
    <linearGradient id="a" gradientUnits="userSpaceOnUse" gradientTransform="matrix(0 -64.258 64.258 0 458.67 64.802)" x1="0" x2="1" y1="0" y2="0">
      <stop stop-color="#dd95cf" offset="0"/>
      <stop stop-color="#b60d8b" offset=".12921"/>
      <stop stop-color="#e3a6d7" offset=".25281"/>
      <stop stop-color="#b60d8b" offset=".44382"/>
      <stop stop-color="#e3a6d7" offset=".73596"/>
      <stop stop-color="#b60d8b" offset=".98877"/>
      <stop stop-color="#b60d8b" offset="1"/>
    </linearGradient>
  </defs>
  <g transform="translate(-373.95 -.54350)">
    <g fill-rule="evenodd">
      <path d="m458.67 40.738c-2.6129 9.1454-16.275 24.043-40.898 24.063l-3.1584-0.02498c-2.7584-2.1668-2.2343-7.0145 0.009-8.5678l3.7224 0.01666c16.129 0 27.337-8.4802 31.209-15.616 3.4358-6.3309 1.5854-12.391-0.0539-15.762-3.27-6.729-15.03-15.727-31.16-15.727l-3.7224 0.016209c-2.6484-1.8342-3.1252-6.1201-0.009-8.5683l3.1584-0.024532c24.623 0.019723 37.998 14.948 40.925 24.063 2.9437-8.9639 16.258-24.044 40.88-24.063l3.1584 0.024532c3.1164 2.4481 2.6401 6.734-0.009 8.5683l-3.7215-0.016209c-16.13 0-28.155 9.3009-31.155 15.727-1.588 3.399-3.4901 9.4315-0.0548 15.762 3.8727 7.1358 15.08 15.616 31.21 15.616l3.7215-0.01666c2.2426 1.5534 2.7671 6.401 0.009 8.5678l-3.1584 0.02498c-24.63-0.02-38.41-14.955-40.91-24.063" fill="#b60d8b"/>
      <path d="m458.67 40.739c-2.6129 9.1454-16.275 24.043-40.898 24.063l-3.1584-0.02498c-2.7588-2.1668-2.2343-7.0149 0.009-8.5683l3.722 0.01666c16.13 0 27.337-8.4797 31.209-15.616 3.4362-6.3313 1.5858-12.392-0.0539-15.762-3.27-6.729-15.03-15.728-31.16-15.728l-3.722 0.016657c-2.6484-1.8343-3.1256-6.1201-0.009-8.5683l3.1584-0.024979c24.623 0.020159 37.998 14.949 40.925 24.064 2.9442-8.9639 16.258-24.044 40.881-24.064l3.1584 0.024979c3.1159 2.4481 2.6396 6.734-0.009 8.5683l-3.7215-0.016657c-16.13 0-28.155 9.3009-31.154 15.727-1.588 3.399-3.4901 9.431-0.0548 15.762 3.8727 7.1358 15.08 15.616 31.209 15.616l3.7215-0.01666c2.2431 1.5534 2.7676 6.4014 0.009 8.5683l-3.1584 0.02498c-24.623-0.02058-38.402-14.956-40.907-24.063" fill="url(#a)"/>
      <path d="m460.26 25.119-1.5775 4.8021-1.5446-4.8126c-2.8421-8.8531-16.042-22.905-39.363-22.924 0 0-1.687 0.013141-2.5012 0.019712-0.74974 0.73834-1.1761 1.6607-1.1761 2.6725 0 0.03812 0.00098 0.07624 0.001 0.11481 0.0298 0.98285 0.45614 1.8767 1.1331 2.5003 0.85534-0.00397 3.1089-0.013576 3.1089-0.013576 15.941 0 28.712 8.5788 32.638 16.65 1.6577 3.4078 3.8644 10.182 0.0206 17.264-4.3056 7.9346-16.36 16.474-32.651 16.474 0 0-2.1905-0.01006-3.0783-0.01358-0.49952 0.55649-0.85533 1.5104-0.88556 2.5235-0.001 0.04294-0.002 0.09026-0.002 0.14197 0 0.61258 0.15513 1.7619 0.93729 2.6221 0.84263 0.0066 2.4687 0.01929 2.4687 0.01929 13.326-0.01093 22.44-4.5216 27.736-8.304 6.862-4.9002 10.477-10.739 11.571-14.569l1.6081-5.6289 1.5525 5.6447c2.049 7.4487 14.358 22.836 39.326 22.857 0 0 1.6143-0.0123 2.4547-0.01929 0.78216-0.86016 0.93684-2.0095 0.93684-2.6221 0-0.05171-0.00034-0.09858-0.001-0.14197-0.0307-1.0131-0.38605-1.967-0.88558-2.5235-0.88689 0.0035-3.0704 0.01358-3.0704 0.01358-16.299 0-28.353-8.5398-32.659-16.474-2.828-5.2113-2.8241-11.173 0.01-17.24 3.1391-6.7239 15.684-16.673 32.642-16.673 0 0 2.2593 0.00969 3.1155 0.013576 0.67656-0.62354 1.1034-1.517 1.1332-2.4998 0.00098-0.038555 0.001-0.076687 0.001-0.11524 0-1.0113-0.42635-1.9341-1.1765-2.6725-0.81547-0.00658-2.5148-0.020159-2.5148-0.020159-23.151 0.019277-36.399 14.078-39.308 22.935" fill="#b60d8b"/>
    </g>
    <path fill="url(#h)" d="m481.69 9.3734s0.0189 3.5256 0.0324 5.9751c-1.3097-0.70767-2.9406-1.0495-3.9914-1.0442-0.15731 0.000427-0.96357 0.0092-1.3847 0.10867l-1.368 0.32513-0.11179 1.4009c-0.0232 0.28044-0.0688 0.56394-0.13715 0.84219-0.19411 0.79793-1.0792 2.6313-4.1877 6.8379-0.23968 0.32426-0.55079 0.70504-0.87549 1.0889-0.16212-0.6599-0.30716-1.3557-0.38823-1.9872-0.25897-1.9994-0.4211-4.3442-0.4579-6.6017l-0.0329-1.9688-1.9674 0.06835c-2.5042 0.08764-6.862 1.1428-8.6046 3.6921-0.90089 1.3181-0.91447 2.5494-0.93113 3.9752-0.00099 0.02016-0.00099 0.03987-0.00099 0.06047 0 2.0687 1.1664 6.3922 1.8088 7.9789 0.46097 1.1384 0.7011 1.9766 0.82817 2.5191-2.1563 2.4622-6.7485 7.826-7.9916 10.24-0.0692-0.47893-0.11564-0.98285-0.11564-1.5139 0-0.16651 0.005-0.33477 0.0135-0.5061 0.29841-5.6145 1.0403-9.9919 2.3053-16.106 0.0973-0.46929 0.30017-1.2396 0.47894-1.9188l0.25458-0.98241c0.30849-1.2339 0.77428-2.3105 1.1139-3.0971l0.31373-0.7471c0.0596-0.1503 0.13408-0.40357 0.13408-0.71906 0-0.40357-0.13188-0.90967-0.56788-1.4289-1.3768-1.6931-6.1451-1.8667-8.3487-1.4802-0.25414 0.04119-0.87506 0.16125-1.9127 0.86103-1.4894-0.61083-3.3412-1.0806-3.9993-1.1866-5.8755-0.94736-11.014 1.9837-15.707 8.9617-3.186 4.7377-6.5285 15.354-4.7346 21.884 0.59507 2.1664 1.482 3.4923 3.2711 4.8932 1.8106 1.4167 5.3165 1.7768 7.5013 0.77033 2.0915-0.964 3.1777-1.9412 4.2837-3.0274 0.58541-0.57402 1.8702-2.1077 3.2535-3.9892 0.11875 3.0489 1.2278 5.1325 3.3372 6.1837 2.2904 1.1415 6.1775 0.94954 8.159-0.40094 0.29051-0.17396 0.66472-0.43205 1.0065-0.76551 1.5516 1.368 4.5646 2.1239 6.1276 1.857l1.2944-0.22216 0.2708-1.2852c0.39655-1.8833 1.6879-4.4226 3.7268-7.3492 0.95525 2.1598 3.8806 8.1112 7.4618 8.9797l1.0731 0.17878 0.0312-0.0075c2.5402 0.12006 5.267-1.3553 7.695-4.1474 0.005-0.004 0.009-0.0097 0.0132-0.01446 0.0312-0.03593 0.0636-0.06705 0.095-0.10297 0 0-0.0316 0.02408-0.0355 0.02761 0.3488-0.37246 0.55474-0.86585 0.55474-1.4131 0-0.06442-0.002-0.1297-0.007-0.195l-0.053-0.62485-0.40969-0.47499c-0.28701-0.33434-0.7125-0.63361-1.4381-1.1336-0.25021-0.17264-0.62835-0.43292-0.73396-0.52407-0.43775-0.38122-1.127-1.1717-1.7974-2.0621-1.5109-2.0056-2.5695-4.4134-3.2557-6.3313 2.0384-1.9854 6.2253-6.4453 7.9666-8.3514h1.187v17.239c0 2.431 0.69321 4.3573 2.0625 5.7258 1.315 1.3154 3.1948 2.01 5.4388 2.01 0.006 0 9.4126-0.02803 9.4126-0.02803l0.074-9.5213s-4.7021 0.03023-5.1346 0.03287v-0.23925c0-1.96 0.0112-11.37 0.0162-15.48h4.9042l0.002-4.4502 10.683 29.591h10.932l12.573-34.479h-12.55l-5.1522 17.951-5.2109-17.933h-16.25v-8.3448l-11.82-0.0237zm-48.28 25.511c0.77691-5.8279 2.3535-8.5932 3.7702-10.728 1.0446-1.574 1.6016-1.5196 2.1927-1.4618 1.2471 0.12138 2.3802 1.2804 2.9621 2.0187-0.0832 0.15774-0.18798 0.35405-0.18798 0.35405-1.6804 3.1681-6.5758 12.392-8.9311 14.703-0.0263-0.11392-0.0596-0.2616-0.0596-0.2616l0.0175 0.06397c-0.095-0.45002-0.0496-2.5494 0.23619-4.6886"/>
    <path fill="url(#g)" d="m397.97 14.521c-0.01 0.0022-0.0201 0.0048-0.0307 0.0075 0.001-0.000427 0.0579-0.0118 0.0579-0.0118z"/>
    <path fill="url(#f)" d="m412.32 15.366c-2.2593 1.3597-4.2175 3.2128-6.1429 5.7985 0.0215-0.28789 0.0329-0.5657 0.0329-0.82861 0-3.9196-2.2523-5.0821-3.2816-5.6127l-0.0376-0.01928-0.0605-0.02936c-1.1629-0.53721-3.1983-0.59944-4.8582-0.15293l0.0272-0.0043s-0.0562 0.01143-0.0579 0.0118c0.009-0.0022 0.0175-0.0043 0.0263-0.0066-2.531 0.41102-5.1312 2.3811-7.5201 5.6995 0 0-0.007 0.0097-0.0124 0.01797 0.0469-0.41189 0.0797-0.83255 0.0797-1.2037 0-0.16169-0.006-0.3133-0.0192-0.45089-0.26028-2.6953-1.7243-3.4796-2.8035-3.8354l-0.10471-0.0355 0.0258 0.01143-0.0898-0.03855-0.13145-0.04557c-1.6051-0.4969-5.0396-0.13408-6.7244 0.5118l0.0255-0.0088-0.15643 0.05433c0.002-0.000887-1.1077 0.44782-1.1077 0.44782l-1.4482 0.5841 0.33391 1.5104c0.0771 0.44257 0.21952 0.83693 0.31417 1.0981 0 0 0.01 0.02848 0.0197 0.05609 0.0737 0.33915 0.11216 0.80494 0.11216 1.3351 0 0.45571-0.0272 0.95568-0.0829 1.4508-0.24275 2.176-0.74884 6.7047-2.1673 12.094l-0.43336 1.6331c-0.79837 2.9967-1.4876 5.5838-1.9907 8.6182-0.10347 0.62485-0.13847 1.4714-0.13847 1.9745 0 0.06442 0.00088 0.12313 0.002 0.17527 0.0198 0.97847 0.18316 2.2453 1.2865 3.3753 0.60732 0.6231 1.4561 1.0065 2.5213 1.141l0.0872 0.01093 0.0867 0.0026c1.8128 0.06485 3.4266-0.163 4.4612-0.36501 2.3268-0.45527 2.562-0.7734 2.8609-1.1765l0.61434-0.82948-0.34879-0.97321c-0.0626-0.17396-0.2077-0.70635-0.2077-1.8824 0-0.75587 0.33915-3.2246 3.4836-9.7991 1.8408-3.8494 3.963-7.2064 5.5755-9.2308-0.11353 0.55299-0.83563 4.0541-0.83563 4.0541-0.83562 4.0103-1.9797 9.502-2.343 11.654-0.1021 0.6025-0.48244 3.0279-0.48244 3.8762 0 2.134 1.0148 3.7864 2.6475 4.3135l0.10123 0.03287 0.10433 0.02146c2.5844 0.5302 5.7323-0.07799 7.2178-0.61696l1.811-0.65596-0.65069-1.8154c-0.12048-0.33696-0.18141-0.82072-0.18141-1.4403 0-0.05302 0.00042-0.10735 0.001-0.16256 0.0219-1.3387 0.2756-2.5748 1.7203-6.3594 0.86804-2.2759 3.849-7.8987 7.2068-12.591-0.17266 0.87944-0.74668 3.7894-0.74668 3.7894l-0.64194 3.2895-0.38385 1.8228c-0.43819 2.0564-0.67962 3.1895-1.0069 6.0163-0.0482 0.41672-0.15425 1.694-0.15425 2.9687 0 0.87418 0.0499 1.747 0.20332 2.3395l0.035 0.13759 0.0548 0.13058c1.7488 4.1465 5.462 3.86 8.5008 3.1475l0.0421-0.01093c1.0639-0.27386 2.7404-1.074 3.541-1.8268l1.1445-1.0784s-0.79661-1.2979-0.82116-1.3382c-0.21646-0.36851-0.96094-1.8864-1.1261-2.6243-0.11-0.492-0.15-1.081-0.15-1.67 0-1.0499 0.12272-2.1007 0.18272-2.6111l0.046-0.42154c0.18841-2.1695 1.063-5.8651 1.4832-7.6406l0.12752-0.54423 0.13408-0.56964c0.67436-2.8784 1.5144-6.4623 1.6844-9.063 0.0184-0.27912 0.0312-0.58322 0.0312-0.9031 0-1.3167-0.22873-2.8999-1.2979-4.1286-0.69014-0.79268-1.6997-1.3273-3.0011-1.5897-0.5657-0.11481-1.1572-0.17002-1.7527-0.17002-1.6134 0-3.257 0.40751-4.4975 1.1546m-14.352-0.84351h0.001l0.002-0.000888c-0.001 0.000427-0.002 0.000888-0.005 0.000888"/>
    <path fill="url(#e)" d="m413.32 17.021c-1.9552 1.1774-3.8218 2.8596-5.7888 5.5606 0 0-2.5196 3.466-4.0344 5.9654-0.39787-0.73834 0.14197-2.8688 0.68225-6.8182 0.5381-3.9402-1.1283-4.7696-2.1567-5.3003-0.67-0.31-2.26-0.398-3.58-0.033l-0.0364 0.0097-0.0368 0.0083c-0.2914 0.0688-2.9407 0.202-6.3497 4.937-1.1814 1.641-4.1667 6.2498-4.9581 7.0263-0.42066-1.0416 0.98853-5.5255 1.336-7.5122 0.1538-0.87593 0.21428-1.7142 0.17746-2.0941-0.19893-2.0621-1.2269-2.0472-1.7505-2.2834-1.0324-0.31944-4.0195-0.08194-5.4628 0.47105l-0.0258 0.0097-0.15599 0.05433c-0.156 0.05521-0.77033 0.3041-0.95744 0.38779 0.0723 0.41628 0.27256 0.86016 0.30761 1.0131 0.23662 1.031 0.18184 2.4915 0.0723 3.4726-0.30673 2.7448-0.83694 7.1183-2.2194 12.372-0.95612 3.6334-1.8093 6.5964-2.3864 10.076-0.0846 0.51136-0.11912 1.3619-0.11042 1.7944 0.0189 0.92632 0.20113 1.5152 0.73747 2.0652 0.32645 0.33434 0.83824 0.50479 1.3807 0.57271 3.1523 0.1113 5.7043-0.7471 5.6999-0.76069-0.26511-0.73966-0.32119-1.7558-0.32119-2.5349 0-2.5336 2.1278-7.4027 3.6729-10.633 2.5774-5.3901 6.0101-10.44 7.9561-11.792 1.9705-1.3684 1.6835 1.6318 1.3259 3.4472-0.49209 2.5003-2.7075 12.846-3.236 15.977-0.18492 1.0946-0.45528 3.0147-0.45528 3.5546 0 0.85095 0.25239 2.134 1.3084 2.4744 2.2185 0.45484 5.0001-0.11656 6.1714-0.54028 0-0.000986-0.00042-0.0016-0.00088-0.0026-0.21121-0.59024-0.30893-1.3224-0.29315-2.2864 0.0289-1.7492 0.42241-3.2851 1.847-7.0171 1.01-2.648 4.2039-8.5236 7.5065-13.12 3.5681-4.9668 4.2832-2.506 3.4463 1.3698-0.46974 2.2041-0.98767 5.1509-1.4359 7.3177-0.71994 3.4809-0.96576 4.2329-1.3636 7.6709-0.1332 1.1529-0.23442 3.6943 0 4.6023 0.99469 2.3579 2.7316 2.8495 6.2787 2.0174 0.88076-0.22698 2.2159-0.90967 2.6988-1.3632-0.14285-0.22742-1.1117-2.0871-1.3636-3.211-0.44126-1.9679-0.01-4.7083 0.0404-5.2933 0.22303-2.5656 1.2961-6.9242 1.655-8.4574 0.65597-2.8092 1.6002-6.7042 1.7711-9.3184 0.092-1.4162-0.0289-2.7557-0.79616-3.6369-0.44696-0.51355-1.1599-0.8102-1.9263-0.96444-0.43994-0.08895-0.90399-0.13189-1.3728-0.13189-1.2633 0-2.5586 0.31242-3.4972 0.87768"/>
    <path fill="url(#d)" d="m427.49 24.099c-2.9227 4.3464-6.0974 14.388-4.4752 20.293 0.48988 1.7821 1.1353 2.7378 2.5989 3.8832 1.2339 0.9662 4.0028 1.2269 5.5014 0.53722 1.8982-0.87549 2.8307-1.7602 3.7382-2.651 1.0766-1.0565 4.8174-5.7788 6.6731-9.4521 0.83168-0.93859 0.13102 2.9117-0.0482 4.5041-0.33215 2.9367 0.006 5.7074 2.1813 6.791 1.687 0.84132 4.799 0.69716 6.2126-0.26948 0 0 0.81853-0.46535 1.0227-0.91186-0.29752-1.2269-1.1476-3.353-1.0043-6.0614 0.30454-5.7372 1.0569-10.181 2.343-16.396 0.16082-0.77778 0.54773-2.1624 0.75148-2.9779 0.45572-1.825 1.1901-3.2807 1.5026-4.0791 0.0227-0.05828-0.12883-0.22698-0.12883-0.22698-0.47675-0.61521-3.8766-1.2598-6.5263-0.79268-0.67129 0.10735-1.6638 0.9123-2.0126 1.2072-1.0998-0.67086-3.7031-1.3956-4.5348-1.5288-0.60207-0.09728-1.1923-0.14504-1.7716-0.14504-4.5703 0-8.4614 2.9797-12.023 8.2764m3.8324 16.02c-0.25503-0.76419-0.0858-3.5611 0.17088-5.4922 0.78699-5.8953 2.3377-8.9214 4.0764-11.541 1.6809-2.5314 3.0949-2.4039 3.9897-2.3171 2.8513 0.27737 4.824 3.4314 4.8875 3.6295 0.085 0.26598-0.0329 0.51925-0.0329 0.51925-2.3373 4.3854-7.8558 15.05-10.585 16.843-0.41803 0.2743-0.76857 0.38604-1.0613 0.38604-1.2282 0-1.4456-1.9596-1.4456-2.0279"/>
    <path fill="url(#c)" d="m521.56 17.708-6.596 22.663-6.7003-22.663h-8.8176l11.101 30.613h8.2243l11.163-30.613z"/>
    <path fill="url(#b)" d="m483.67 17.752h-1.9499c-0.62397-0.85358-2.6502-1.5214-3.9778-1.5157-0.20507 0.000887-0.80189 0.02278-0.94693 0.05696-0.0315 0.39305-0.0964 0.78172-0.18533 1.1467-0.5175 2.1182-3.4625 6.1079-4.5116 7.528-0.9662 1.3071-3.0489 3.5791-3.2391 3.5607-0.21077-0.02103-1.212-3.1633-1.496-5.3603-0.26903-2.0779-0.43598-4.4888-0.4741-6.8186-2.1979 0.07669-5.852 1.0613-7.0754 2.8517-0.57007 0.83299-0.58015 1.6314-0.59505 2.9069-0.0192 1.6664 1.0604 5.795 1.6669 7.2918 1.0218 2.5226 1.1007 3.8245 1.1007 3.8245s-7.5403 8.5244-8.4517 10.784c-0.31506 0.78041-1.0372 1.9127-0.5955 2.761 0.46886 0.90178 3.4643 1.9845 4.8345 1.751 0.59767-2.8421 2.6856-6.1517 4.1772-8.2681 0 0 1.7313-2.194 1.8391-2.1668 0.10644 0.0263 0.8308 1.4092 1.0915 2.0525 0.74886 1.8474 3.6558 7.8606 6.4273 8.5328 0.24275 0.05871 0.73922 0.11919 0.73922 0.11919 2.0582 0.09728 4.3306-1.3536 6.2432-3.59-0.002-0.02935 0.0688 0.0061 0.0548-0.16301-0.25021-0.29008-1.5674-1.1042-1.9771-1.4613-0.65289-0.56789-1.4754-1.5634-2.0735-2.3579-1.8189-2.414-3.0682-5.3691-3.8644-7.8124l0.0289-0.34091c0.62485-0.42635 7.3291-7.4719 9.233-9.6247h3.977v19.171c-0.00032 4.0295 2.2777 5.8046 5.5689 5.8046l7.4947-0.02278 0.0439-5.6491-3.4248 0.02277c-1.1121 0-1.6975-1.0013-1.6975-1.8018l0.0215-17.785h4.9072l0.0162-5.4628-5.0339 0.01489v-8.3554l-7.9412-0.015775z"/>
  </g>
</svg>
