<svg version="1.1" viewBox="0 0 225.31 83.662" xmlns="http://www.w3.org/2000/svg">
 <path d="m119.7 83.218c-7.0753-1.2004-13.388-4.6018-17.095-9.2119-2.4953-3.1028-4.1654-7.4448-2.8635-7.4448 0.28623 0 1.2153 0.62509 2.0645 1.3891 3.48 3.1306 7.5054 5.2738 12.494 6.6519 2.4992 0.69039 3.4039 0.78645 7.35 0.78038 4.2597-7e-3 4.6479-0.0576 7.2694-0.95655 3.5925-1.2319 6.4696-3.0059 9.1063-5.6148 4.7423-4.6924 6.7154-9.0491 7.9481-17.55 2.0098-13.859-4.7688-24.889-15.624-25.424-4.5606-0.22447-8.0271 0.88507-10.504 3.3621-2.0606 2.0606-2.2288 2.6027-3.0167 9.7228-0.39494 3.5689-0.92765 8.2439-1.1838 10.389-0.25615 2.145-0.47189 5.52-0.47942 7.5-0.0172 4.5204 0.60913 6.515 2.6746 8.5176 1.261 1.2226 1.32 1.3461 0.8187 1.7127-1.6661 1.2183-7.0569 0.73984-10.54-0.93548-4.0152-1.9312-6.6583-5.3963-7.7913-10.214-0.75874-3.2265-0.53894-6.6839 2.1253-33.431 0.82147-8.2469 1.1388-13.354 0.91997-14.807-0.42148-2.798-2.6258-4.4134-8.1232-5.9529-1.1437-0.32029-1.5-0.55904-1.5-1.0052 0-0.56688 0.31158-0.5876 9.985-0.66419 9.6299-0.07625 10.038-0.05623 11.477 0.56288 1.8602 0.80025 3.0682 2.1499 3.7432 4.1824 0.61472 1.8508 0.54755 3.8169-0.44878 13.136-0.35882 3.3562-0.60804 6.1465-0.55382 6.2007 0.0542 0.0542 1.1602-0.41924 2.4577-1.0521 3.9293-1.9166 7.0553-2.5539 12.339-2.5157 3.8568 0.0279 4.9288 0.14676 7.5 0.83174 6.9597 1.8541 12.253 5.5698 15.425 10.828 6.1448 10.186 5.3109 26.783-1.8892 37.598-3.4591 5.196-10.108 10.099-16.544 12.2-4.9394 1.6124-12.221 2.1161-17.542 1.2135zm75.9-0.91651c-17.963-2.508-30.142-17.065-28.522-34.09 0.94427-9.9217 6.2992-18.705 14.888-24.42 9.6849-6.4441 21.895-8.177 33.434-4.7448 5.8904 1.7521 11.538 5.5043 9.4758 6.2956-0.23332 0.0895-1.7521-0.34544-3.375-0.9666-2.8734-1.0998-3.0745-1.1326-7.6704-1.2535-3.6318-0.0955-5.2567-0.01-7.05 0.37243-11.608 2.4734-19.874 10.471-22.128 21.411-0.58498 2.8383-0.58054 8.6139 9e-3 11.155 1.041 4.491 2.8639 7.8362 6.1084 11.209 4.8528 5.0454 10.782 7.6005 18.331 7.8989 4.4394 0.17549 7.7308-0.42325 11.942-2.1723 3.7151-1.5431 3.9582-1.5808 3.9582-0.61421 0 1.6373-4.1973 5.1265-8.5303 7.0912-6.5 2.9472-13.357 3.8763-20.87 2.8274zm-185.12-0.849c-4.5125-1.2169-6.0497-5.1321-5.0915-12.968 0.15959-1.305 0.50505-4.5327 0.76768-7.1727s0.66687-6.555 0.89832-8.7c0.23144-2.145 0.63491-5.9925 0.8966-8.55s0.68631-6.54 0.9436-8.85c0.70807-6.3571 0.68526-8.7472-0.09736-10.2-1.2526-2.324-3.697-3.997-6.6121-4.523-1.6004-0.289-2.1872-0.653-2.1872-1.357 0-0.60083 0.12359-0.60772 9.225-0.51445 8.9846 0.0921 9.2664 0.11324 10.813 0.8121 0.87343 0.39465 2.0406 1.2463 2.5938 1.8926 1.571 1.8354 1.744 3.0537 1.2143 8.5527-0.25098 2.6054-0.66277 6.8972-0.91508 9.5372-1.2368 12.941-1.9015 19.832-2.6912 27.9-0.61267 6.2594-0.35293 8.0394 1.4066 9.6399 1.126 1.0242 2.5114 1.6052 5.2603 2.2059 1.414 0.30899 2.7191 0.71006 2.9003 0.89126 0.45393 0.45393-0.10467 1.2908-1.0354 1.5512-1.3381 0.37442-16.817 0.24936-18.29-0.14777zm31.616 0.0962c-3.6199-0.71577-5.799-3.6912-5.7973-7.9161 6e-4 -1.3958 0.6879-8.7922 1.0474-11.271 0.08377-0.5775 0.28291-2.4675 0.44254-4.2s0.50066-5.1075 0.75785-7.5c0.25718-2.3925 0.66076-6.24 0.89684-8.55s0.63722-6.1575 0.89143-8.55 0.46246-4.9647 0.4628-5.7161c9e-4 -1.7528-1.1952-4.1895-2.6413-5.3815-1.0244-0.84439-3.4659-1.8117-5.7033-2.2597-1.1047-0.22118-1.5058-0.82872-0.97177-1.4722 0.52472-0.63225 16.299-0.48242 18.535 0.17605 2.2882 0.67395 3.8372 1.87 4.7223 3.6462 0.84157 1.6888 0.91953 2.8069 0.47465 6.8072-0.15598 1.4025-0.49888 4.845-0.76202 7.65-1.0255 10.931-2.1376 22.404-2.7119 27.977-0.61967 6.0122-0.58424 9.2631 0.11527 10.578 0.91116 1.7129 2.7007 2.7423 6.2875 3.6167 2.7603 0.67288 3.2198 0.87183 3.3023 1.4297 0.06954 0.47037-0.12086 0.73039-0.69453 0.9485-0.94773 0.36033-16.821 0.34941-18.653-0.0128zm30.702-0.30074c-2.788-0.46803-4.6309-2.4018-5.4946-5.7658-0.53275-2.0748-0.5034-2.794 0.49249-12.07 0.6892-6.4195 0.95024-8.8983 1.8165-17.25 0.33375-3.2175 0.81082-7.74 1.0602-10.05 0.8478-7.8545 0.87926-9.4675 0.21387-10.965-1.247-2.8067-2.8719-4.0471-6.4933-4.9567-2.2246-0.5588-2.8831-1.0691-2.2947-1.7781 0.5366-0.64655 14.486-0.64368 17.542 4e-3 2.9246 0.6195 4.5747 1.7149 5.6507 3.751 1.0362 1.961 1.0536 1.3916-0.55144 18.077-0.57499 5.9774-1.2459 12.961-1.4909 15.518-0.24499 2.5575-0.66044 6.81-0.92323 9.45-0.62311 6.2599-0.59614 8.232 0.13519 9.8853 0.904 2.0436 2.741 3.0277 7.6874 4.118 1.6142 0.35581 1.8 0.47418 1.8 1.1468 0 0.68542-0.14209 0.76682-1.65 0.94533-2.3439 0.27748-15.765 0.23193-17.5-0.0594z" fill="#d32329"/>
</svg>
