<svg version="1.1" viewBox="0 0 800 355.42" xmlns="http://www.w3.org/2000/svg">
 <path d="m799.93 24.582c-0.81487-13.649-12.087-24.446-25.872-24.582h-132.62v0.13594c84.339 2.6483 146.41 52.695 156.93 165.15 0.95068 9.6426 1.4939 19.896 1.5618 30.626z" fill="#65318e" stroke-width="6.7906"/>
 <path d="m457.69 0h-53.102v247.45h53.102z" fill="#fff" stroke-width="6.7906"/>
 <path d="m207.05 0h-48.756v196.18h-105.19v-0.47534-195.7h-33.749c-10.661 0-19.353 8.6922-19.353 19.353l0.33945 201s0.13594 0.61115 0.13594 0.88278c0 14.532 11.748 26.212 26.212 26.212h338.78v-51.269c-1.3581-134.39-66.751-193.33-158.49-196.18zm4.4818 196.18v-144.64c56.634 5.9757 101.52 73.338 101.52 144.64z" fill="#fff" stroke-width="6.7906"/>
 <path d="m500.88 0-0.33953 252.2c0 23.971-9.4389 42.917-48.485 52.355l36.805 48.417c48.485-22.816 65.19-46.787 65.19-88.006v-264.97z" fill="#fff" stroke-width="6.7906"/>
 <path d="m641.44 0c-2.92 0-6.4511 0.20363-10.322 0.33945v-0.33945h-17.452v51.065h24.242c60.438 0 109.6 70.418 109.6 145.11h-154.69v51.269h180.97c14.26 0 25.804-11.34 26.212-25.533v-25.736c-1.2902-134.39-66.751-193.33-158.49-196.18z" fill="#fff" stroke-width="6.7906"/>
 <path d="m593.9 293.69c-0.47534-0.27162-0.95068-0.74696-0.40743-1.4939 0.33953-0.47534 0.88276-0.40743 0.88276-0.40743h13.921s2.7162 0.13581 4.2781 1.1544c1.5618 1.0186 2.3767 2.173 2.852 3.5311s0.33953 3.4632 0.33953 3.4632l-1.5618 18.538-2.2409 24.921s-0.27162 2.5125 0.67906 4.2102c0.81487 1.4939 2.3767 2.3088 3.4632 2.7162 1.0865 0.40743 4.0064 0.95068 4.0064 0.95068s0.81487 0.27162 0.81487 0.74696c0 0.47535-0.13581 0.74697-0.61115 1.0865-0.54325 0.33953-1.0186 0.33953-1.0186 0.33953h-14.532s-2.3767 0.0679-4.6176-2.0372c-1.9693-1.9014-1.9693-4.7534-1.9693-4.7534v-2.852l4.0064-41.966s0-2.5125-0.54325-3.7348c-0.74697-1.4939-1.2223-2.0372-2.92-2.852-1.3581-0.61115-4.7534-1.6976-4.7534-1.6976z" fill="#fff" opacity=".5" stroke-width="6.7906"/>
 <path d="m650.74 293.63c-0.47534-0.27163-0.95069-0.74629-0.47534-1.4933 0.33953-0.47534 0.88277-0.40743 0.88277-0.40743h13.921s2.7162 0.13513 4.2781 1.1537c1.5618 1.0186 2.3767 2.1737 2.852 3.5318s0.33953 3.5304 0.33953 3.5304l-1.5618 18.539-2.2409 24.921s-0.27162 2.5125 0.74697 4.2102c0.81486 1.4939 2.2409 2.3774 3.3274 2.7169 1.0865 0.40744 4.1423 0.95069 4.1423 0.95069s0.74697 0.33953 0.74697 0.81487-0.0679 0.81487-0.61115 1.1544-1.0186 0.27094-1.0186 0.27094h-14.532s-2.3767 0.0679-4.6176-2.0372c-1.9693-1.9014-1.9693-4.7534-1.9693-4.7534v-2.852l4.0064-41.965s-0.13581-2.1737-0.74697-3.4639c-0.67906-1.4939-1.6297-2.4446-2.7841-3.1237-1.2902-0.74696-4.6855-1.6976-4.6855-1.6976z" fill="#fff" opacity=".5" stroke-width="6.7906"/>
 <path d="m679.53 275.42c-0.47602-0.40744-0.67973-0.67906-0.47602-1.2902 0.27231-0.74696 1.2909-0.67838 1.2909-0.67838h13.989s3.8027 0 5.9078 1.8335c2.0372 1.8335 2.3767 3.3274 2.4446 4.6855 0 1.3581-1.1544 16.297-1.1544 16.297s-0.13581 0.88278 0.13581 0.88278c0.27163 0 2.173-1.0193 3.8706-1.7662 1.6976-0.67906 5.9078-1.9693 9.5747-1.6976 3.6669 0.27162 8.5561 0.74764 14.124 4.6862 5.5683 3.9385 7.4018 8.3524 8.8957 12.766 1.4939 4.4818 1.426 10.049 1.426 10.049s0.13582 5.7727-1.5618 11.68c-1.6976 5.9078-4.4818 9.5061-4.4818 9.5061s-1.9014 3.1237-5.9757 6.4511c-4.0744 3.3953-8.9636 4.9578-8.9636 4.9578s-4.9571 1.6976-10.39 1.6298c-5.4325 0-9.5747-1.2223-13.445-2.9879-4.4139-2.0372-7.198-5.9757-7.198-5.9757s-2.852-3.8034-3.2595-5.2973c-0.40743-1.4939-0.27162-2.1723 0.0679-2.4439 0.33953-0.33953 0.74696-0.13581 0.95068 0 0.20372 0.20372 2.173 2.1723 3.2595 2.9193 1.0186 0.74696 2.6483 2.1737 5.6362 3.2602 2.9879 1.0865 5.772 1.9014 8.8278 2.1051 3.1237 0.27161 7.6055-0.47534 10.797-2.1051 3.1916-1.6976 6.451-4.8899 7.6055-6.6555 1.1544-1.7655 3.1916-4.4132 4.5497-10.457 1.3581-6.1115 0.88278-9.5075 0.88278-9.5075s0-4.8886-2.6483-10.796c-2.92-6.7227-9.3031-8.0129-9.3031-8.0129s-2.852-0.67974-5.8399-0.2723c-2.5804 0.40743-5.6362 2.3095-6.7906 3.9392-1.1544 1.6298-1.2902 2.852-1.6298 5.4325-0.13581 1.1544-1.9693 18.946-1.9693 18.946s-0.20372 3.802 0.0679 5.1602c0.27161 1.3581 1.0186 3.5318 1.9693 4.4146 0.88278 0.81486 1.6976 0.94999 1.6297 1.4932 0 0.54325-0.67906 1.223-1.6976 1.4267-0.95068 0.20372-2.9878 0.27163-5.5683-0.40743-2.5804-0.61115-5.2967-1.9693-7.4017-5.025-2.1051-3.0558-2.852-5.5683-3.1916-8.8278-0.33953-3.2595 1.6976-22.952 1.6976-22.952l1.9693-20.372s-0.0679-2.4446-1.9693-4.2781-4.8213-2.3095-4.8213-2.3095-1.6297-0.13513-2.0372-0.54257z" fill="#fff" opacity=".5" stroke-width="6.7906"/>
 <path d="m783.36 296.89s3.0558-0.61115 5.5683-0.47534 5.025 0.67906 6.3832 1.2223 2.5125 0.95 2.9879 1.1537 1.2902 0.20372 1.426-0.54325c0.13581-0.67906-0.54325-1.2902-1.5618-2.0372-1.0186-0.74697-5.4325-3.5304-9.1673-4.4811-3.7348-0.95068-6.7227-1.0872-10.525-0.95136-3.8027 0.20372-11.001 2.1051-15.415 4.5497-5.772 3.1916-10.118 7.9457-11.748 10.798-1.7656 3.1237-4.0064 6.7899-4.6176 14.26-0.47533 5.9757 0.27162 11.68 2.5125 16.094 2.6483 5.1608 6.8585 10.186 11.408 12.834 4.5497 2.5804 11.001 5.0929 17.859 4.9571s13.853-2.8514 17.248-5.6355 3.5311-3.1916 3.6669-3.8706c0.27162-1.0865-0.40744-1.3588-0.88278-1.3588s-0.88278 0.34021-2.4446 1.0872c-1.5618 0.74697-4.6855 1.7656-6.9264 2.0372-2.2409 0.33953-6.1794 0.67905-11.001-0.95068-4.7534-1.6297-8.8278-5.3646-8.8278-5.3646s-3.8027-3.7348-5.4325-8.1487-1.4939-10.458-1.4939-10.458 0.13582-7.4011 3.5311-12.494c3.3953-5.025 5.8399-6.9943 9.7105-9.3031 3.8027-2.2409 7.8092-3.0564 7.8092-3.0564z" fill="#fff" opacity=".5" stroke-width="6.7906"/>
 <path d="m622.43 293.63c-0.54325-0.27163-0.95069-0.74629-0.47535-1.4933 0.33953-0.47534 0.88277-0.40743 0.88277-0.40743h13.921s2.7162 0.13513 4.2781 1.1537c1.5618 1.0186 2.3767 2.1737 2.852 3.5318 0.47534 1.3581 0.33953 3.4632 0.33953 3.4632l-1.5618 18.538-2.2409 24.921s-0.27162 2.5125 0.67906 4.2102c0.81486 1.4939 2.3767 2.3088 3.5311 2.7169 1.1544 0.40743 4.0064 0.95068 4.0064 0.95068s0.74697 0.27162 0.74697 0.74697c0 0.47466-0.13581 0.74628-0.67906 1.0858-0.47534 0.33953-1.0186 0.34021-1.0186 0.34021h-14.532s-2.3767 0.0672-4.6176-2.0379c-1.9693-1.9014-1.9693-4.7527-1.9693-4.7527v-2.8527l4.0064-41.966s0-2.5125-0.61115-3.7348c-0.74697-1.4939-1.2223-2.0365-2.92-2.8514-1.3581-0.61115-4.6855-1.6976-4.6855-1.6976z" fill="#fff" opacity=".5" stroke-width="6.7906"/>
</svg>
