<?xml version="1.0" encoding="UTF-8" standalone="no"?>
<svg xmlns="http://www.w3.org/2000/svg" xml:space="preserve" height="59.869" viewBox="0 0 600 59.869034" width="600" version="1.1"><g transform="matrix(1.3333 0 0 -1.3333 88.593 67.525)" fill="#235c7a"><path d="m354.75 6.4727v44.171h9.8006v-36.358h19.007v-7.8133z"/><path d="m317.26 6.4727v44.171h9.8021v-36.358h19.006v-7.8133z"/><path d="m277.65 6.4727v44.171h28.808v-6.7552h-19.205v-11.589h18.344v-6.689h-18.34v-12.384h19.802v-6.7543z"/><path d="m246.99 5.7421c-10.795 0-18.543 5.5638-18.543 16.953v27.948h9.8006v-27.616c0-5.6947 2.5838-10.132 8.8094-10.132 6.2241 0 9.0058 4.3707 9.0058 10.065v27.683h9.8006v-27.549c0-11.39-8.144-17.352-18.873-17.352z"/><path d="m206.92 42.828v-36.355h-9.8676v36.355h-13.841v7.8161h37.55v-7.8161z"/><path d="m168.32 6.4727-16.89 21.059v-21.059h-9.8021v44.171h9.8021v-19.073l15.961 19.073h11.588l-18.6-20.662 20.19-23.509z"/><path d="m104.54 50.644-16.817-44.172h9.6675l3.972 11.058h18.808l3.9104-11.058h10.199l-16.89 44.172zm6.2913-6.2251 7.282-20.198h-14.767z"/><path d="m55.293 25.859v3.0985c0 1.9205-1.1158 2.9967-3.0103 2.9967h-11.296v-5.3751h4.7773c1.6911 0 2.3771-0.95575 2.3771-2.3759v-13.549c0-0.31541 0.06997-0.4767 0.27583-0.54371 0.21614-0.06685 0.40595 0.01527 0.58252 0.19978 1.5979 1.6782 5.3429 5.6898 7.7766 8.0566 5.5152 5.3642 9.8939 7.6257 13.718 7.6257v6.5536c-4.8518 0-6.5046-0.71591-9.3698-2.2377-2.105-1.1202-4.5175-3.1272-5.8317-4.4499z"/><path d="m16.845 32.547c-11.791 0-17.287-10.179-17.287-16.644 0-4.7128 1.2327-7.4509 2.5219-9.5571h7.991c-1.435 2.1203-3.3434 5.215-3.3434 9.557 0 5.2626 4.2065 10.09 10.087 10.09 4.4967 0 7.7108-2.978 9.5614-4.439 2.6949-2.1262 6.9865-5.646 8.9922-7.4479 0.18872-0.1722 0.36403-0.26788 0.58018-0.19776 0.20695 0.06389 0.27692 0.22643 0.27692 0.53873v33.076c0 1.9193-1.1158 2.9961-3.0101 2.9961h-11.294v-5.3751h4.611c1.6893 0 2.3759-0.95575 2.3759-2.3746v-15.258c-4.0681 4.1156-8.5587 5.036-12.063 5.036z"/><path d="m-29.779 26.661c1.3452 1.5588 5.7245 5.8852 13.12 5.8852 4.0943 0 7.4862-2.0154 9.3301-5.2947 0.95933-1.7094 1.4993-3.6678 1.4993-6.4272v-6.9285h-7.152v6.5207c0 1.4415-0.1401 2.2389-0.40736 2.9494-0.68895 1.8342-2.2255 2.6268-4.3932 2.6268-3.278 0-6.0527-2.3103-8.3603-4.4694-2.3218-2.172-5.6436-5.6248-7.2849-7.4833-0.16799-0.18981-0.36512-0.26477-0.58065-0.19776-0.20695 0.06685-0.27754 0.22705-0.27754 0.54294v6.3662c0 3.5671-1.8926 5.2413-4.9551 5.2413-3.6548 0-6.6536-2.8794-10.234-6.3857-2.7954-2.7374-5.3581-5.4798-8.9581-9.2509-0.17422-0.18451-0.36341-0.26368-0.58143-0.19667-0.20508 0.06576-0.27692 0.22518-0.27692 0.54184v13.501c0 1.4201-0.68552 2.3759-2.3765 2.3759h-4.7775v5.3751h11.296c1.8943 0 3.0108-1.0762 3.0108-2.9967v-3.0985s6.3254 6.6876 13.296 6.6876c5.9195 0 8.2777-3.5769 9.0636-5.8852"/></g></svg>
