<svg width="600" height="119.94" version="1.1" viewBox="0 0 158.75 31.73331" xmlns="http://www.w3.org/2000/svg" xmlns:xlink="http://www.w3.org/1999/xlink">
 <g transform="translate(-26.458 -132.97)" stroke-width=".26458">
  <path d="m126.47 132.97h58.738v31.731h-58.738z" fill="#f03c1f"/>
  <path d="m112.2 132.97h12.705v31.731h-12.706v-31.731z" fill="#6d94d4"/>
  <path d="m26.458 132.97h84.148v31.731h-84.145v-31.731z" fill="#1969bc"/>
  <g fill="#FFF">
   <path d="m45.606 143.48c-0.75269-1.8666-2.89-3.4621-5.66-3.3417-2.7998 0.12041-4.6064 2.0171-5.8105 3.9439v-3.3118h-7.6772v1.9269h2.7398c1.3547 0 1.5054 0.60204 1.5054 1.8966v7.978s2.9805-4.7871 3.7933-6.0214c0.99351-1.5354 2.4386-4.3654 5.389-4.4558 4.4857-0.18052 4.9072 4.7268 4.9974 5.6298l0.06011 0.0301s2.0473-5.4793 6.0214-5.66c3.974-0.21076 4.7868 3.7031 4.9374 5.2083 0.06011 0.60204 0.03005 1.987 0.03005 1.987h1.6859v-0.57198c0-4.6966-1.2645-8.7307-6.5932-8.5802-2.4985 0.0905-4.2447 1.6562-5.4187 3.3422"/>
   <path d="m62.857 152.33c0-0.0603-0.12041-0.72263-0.1807-1.2042-0.09035-0.81298-0.03005-1.8365 0-2.0774 0.24082-3.5827 1.9569-6.7437 5.7806-6.7138 3.0708 0.0302 4.7567 2.1978 5.5695 3.0104l3.5825 4.0341v-16.408h-7.4663v1.8666h2.1375c1.3247 0 1.8666 0.93322 1.8666 2.2579v5.6298c-1.7462-1.8966-3.974-2.6193-6.5932-2.6193-5.7203 0-8.4299 4.4257-8.7609 8.9715-0.03006 0.30112-0.09035 1.4451 0.15046 3.2515h3.9142"/>
   <path d="m92.813 142.09c0.8731-0.0301 2.0773 0.21076 2.2879 1.1441-1.415 0-2.3783 0.66233-2.3783 2.1677 0 1.174 1.144 1.8966 2.2278 1.8966 1.5655 0 2.1978-1.2042 2.1978-2.7697 0-2.8601-1.7763-4.4857-4.4556-4.3955-2.7998 0.12041-4.4558 2.0473-5.66 3.974v-3.3417h-7.647v1.9269h2.7398c1.3247 0 1.5052 0.63227 1.5052 1.8966v7.978s2.9805-4.7567 3.7632-5.9912c1.0236-1.5354 2.4686-4.3654 5.4192-4.4857"/>
   <path d="m131.08 156.63v1.3547h1.8365v1.0538h-1.8365v2.4989h-1.415v-5.9912h3.3417v1.0838h-1.9267z"/>
   <path d="m134.06 161.54v-5.9912h3.4322v1.0838h-2.0473v1.2946h1.8966v1.0536h-1.8966v1.4753h2.1074v1.0838h-3.4936z"/>
   <path d="m141.46 161.54-0.48181-1.7462c-0.15046-0.48162-0.33115-0.66233-0.63227-0.66233h-0.27088v2.4085h-1.415v-5.9912h2.1978c0.96346 0 1.8666 0.48181 1.8666 1.5354 0 0.78274-0.45157 1.3247-1.2043 1.4751 0.42151 0.12041 0.63228 0.36121 0.8128 0.9334l0.63228 2.0473h-1.5052zm-0.99351-4.9374h-0.39127v1.4751h0.39127c0.51168 0 0.78274-0.27088 0.78274-0.75269 0-0.51168-0.30112-0.72244-0.78274-0.72244"/>
   <path d="m146.58 161.54-1.4753-4.3654v4.3654h-1.2043v-5.9912h1.8365l1.4751 4.3654v-4.3654h1.2042v5.9912z"/>
   <path d="m151.16 161.63c-0.51186 0-1.174-0.0902-1.5955-0.24081l0.0603-1.144c0.45156 0.24081 0.96345 0.36121 1.3247 0.36121 0.63227 0 0.84304-0.39127 0.84304-0.72245 0-0.4215-0.30112-0.60222-0.69239-0.78274l-0.54192-0.27088c-0.75268-0.36121-1.0236-0.90316-1.0236-1.6558 0-1.1139 0.99351-1.7161 2.1074-1.7161 0.54192 0 0.90316 0.12041 1.385 0.21076l-0.0603 1.144c-0.33118-0.18071-0.8128-0.33115-1.1742-0.33115-0.4215 0-0.8128 0.21076-0.8128 0.63209 0 0.3612 0.21076 0.51186 0.60222 0.69238l0.51168 0.24082c0.72263 0.33118 1.144 0.72263 1.144 1.7161 0 1.1141-0.87328 1.8666-2.0775 1.8666"/>
   <path d="m154.32 161.54v-5.9912h3.4322v1.0838h-2.017v1.2946h1.8966v1.0536h-1.8966v1.4753h2.1074v1.0838h-3.5224z"/>
   <path d="m161.73 161.54v-2.5289h-1.3547v2.5289h-1.415v-5.9912h1.415v2.3484h1.3547v-2.3484h1.4451v5.9912z"/>
   <path d="m164.53 161.54v-5.9912h3.402v1.0838h-2.017v1.2946h1.8966v1.0536h-1.8966v1.4753h2.1074v1.0838h-3.4925z"/>
   <path d="m171.81 161.54-1.4751-4.3654v4.3654h-1.2017v-5.9912h1.8363l1.4753 4.3654v-4.3654h1.2042v5.9912h-1.8365z"/>
   <path d="m132.37 139.22h3.7446c-0.35544 1.6166-0.70022 3.2382-0.99965 4.8668 1.3837 0.01 2.7686 0.0261 4.1537-0.0106 0.37801-1.6108 0.65262-3.244 1.0282-4.8562h3.7518c-0.94385 4.232-1.7843 8.4889-2.7342 12.72h-3.7433c0.36962-1.656 0.74186-3.3142 1.0544-4.9821-1.3885-0.0106-2.7781-0.0392-4.1653 0.0155-0.36851 1.6523-0.68829 3.3168-1.0663 4.9665h-3.7433v-0.0963c0.95337-4.1974 1.7747-8.4249 2.7199-12.623z"/>
   <path d="m146.3 139.22h5.8438c1.3956 0.15812 2.8602 0.53129 3.8907 1.5442 0.6812 0.64068 1.0353 1.5431 1.1876 2.4488v1.398c-0.14747 1.2375-0.39706 2.4916-1.0092 3.5912-0.70247 1.3112-1.8651 2.3561-3.225 2.9493-1.0152 0.46127-2.1244 0.65373-3.2226 0.78814h-6.1698c0.91043-4.2381 1.8009-8.4807 2.7043-12.72m3.2229 2.4714c-0.53129 2.5998-1.1139 5.1901-1.6215 7.7946 1.2506 0.0928 2.6021-0.0689 3.6161-0.87011 1.2291-0.94385 1.7225-2.5439 1.7772-4.0394 0.0441-0.82381-0.095-1.7666-0.77266-2.3193-0.83576-0.67074-1.9864-0.64442-2.999-0.56599z"/>
  </g>
 </g>
</svg>
