<svg width="1151.4px" height="300px" enable-background="new 0 0 1151.42358 300" version="1.1" viewBox="0 0 1151.42358 300" xml:space="preserve" xmlns="http://www.w3.org/2000/svg"><style type="text/css">
	.st0{fill:#0666B0;}
</style><path class="st0" d="m579.73 45.56c0-11.776-0.0965-23.456 0.0965-35.232 25.097 0.09653 50.097 0 75.193 0 4.9228 0.09653 10.039 1.6409 13.61 5.2124 3.6679 3.7645 5.2123 9.1699 5.1158 14.382v217.37c0.57916 2.9923-3.2819 4.2471-5.1158 2.3166-23.649-20.753-48.166-40.444-72.973-59.846-10.907-8.1081-23.263-14.768-36.776-17.278-14.865-2.8958-30.792-0.57916-44.112 6.7567-14.672 7.915-25.869 21.622-31.081 37.355-4.5367 13.031-4.1506 27.317-1.2548 40.637 3.2818 15.541 10.811 29.73 19.788 42.664-17.568 0.19305-35.039 0-52.606 0.09653-13.224-20.753-17.857-45.946-16.216-70.174 4.3436-40.927 32.143-79.344 70.946-94.112 18.34-7.0463 38.417-8.8803 57.819-6.5637 24.035 2.8958 46.525 14.672 63.32 31.95 0.0965-33.205 0-66.409 0.0965-99.614 0.0965-5.0193-1.4479-10.714-6.081-13.417-5.502-3.3784-12.259-2.027-18.436-2.2201-7.0463-0.3861-14.189 0.28957-21.332-0.28958l-6e-5 -1e-5z"/><path class="st0" d="m869.69 130.21c9.4594-1.6409 19.112-2.027 28.668-2.027v43.05c-17.085 0.09653-33.205 6.9498-47.49 15.734-23.938 14.865-43.822 35.135-63.224 55.309-10.425 10.618-20.463 21.525-30.792 32.239-1.9305 1.834-5.7915 0.57913-5.1158-2.4132-0.0965-29.054 0-58.108 0-87.066 0.19305-4.6332-0.28961-9.8456-3.668-13.32-2.8958-3.2818-7.5289-4.2471-11.776-4.3436h-31.371v-35.232h74.517c5.2123-0.09653 10.714 1.5444 14.382 5.3089 3.3784 3.5714 4.8262 8.6873 4.9227 13.61 0.0965 6.9498-0.0965 13.803 0.0965 20.753 10.425-10.135 21.815-19.305 34.266-26.834 11.486-6.4672 23.456-12.548 36.583-14.768z"/><path class="st0" d="m151.54 133.78c16.602-6.1776 35.135-7.529 52.22-2.5097 11.776 3.4749 22.394 10.811 29.537 20.946 3.1853 4.4402 5.5019 9.3629 7.529 14.382 18.533-21.236 45.367-35.039 73.359-37.838 15.541-1.834 31.757-0.28958 45.753 7.0463 18.629 9.3629 31.95 27.896 35.907 48.263 2.4132 10.907 1.7375 22.201 1.834 33.301v33.108h-46.815v-40.444c0-8.3012-0.19305-16.892-4.0541-24.421-2.8958-6.0811-8.5907-10.714-15.058-12.645-12.066-3.5714-25.193-1.2548-36.293 4.3436-14.768 7.4324-26.641 19.112-38.417 30.405-13.996 13.707-27.606 27.799-40.734 42.278-1.6409 2.027-5.3089 1.0618-5.2124-1.7374-0.19304-14.672 0-29.44-0.09653-44.112-0.09653-8.2046-2.027-16.795-7.4324-23.166-4.7297-5.5984-11.873-8.4942-18.919-9.3629-11.39-1.5444-22.876 1.6409-32.625 7.4324-13.32 7.722-24.517 18.533-35.425 29.247-22.008 21.139-42.761 43.533-63.9 65.541-1.5444 2.3166-5.9846 1.5444-5.5984-1.641-0.09652-29.826 0-59.749 0-89.575-0.09652-3.9575-1.0618-8.3012-3.9575-11.197s-7.1429-3.9575-11.197-4.0541c-10.618-0.09653-21.236 0.09654-31.95-0.09653 0.09653-11.776-0.09653-23.456 0.09653-35.232 25 0.09653 50 0 75 0 5.0193 0 10.232 1.4479 13.803 5.1158 3.668 3.5714 5.1158 8.7838 5.1158 13.803 0.09652 6.9498-0.09653 13.9 0.09652 20.753 16.506-16.023 35.714-29.826 57.432-37.934l-4e-5 2e-5z"/><path class="st0" d="m1100.2 0h-44.788v119.21h39.961c32.046-2.2201 55.116-23.938 55.984-55.985 0.09656-2.9923 0.09656-9.0734 0-12.066-0.96521-28.185-22.973-51.158-51.158-51.158zm-8.7837 110.33h-24.131v-101.35h25.097c27.606 0 45.56 15.927 46.718 50.29 1.0618 29.633-19.498 51.062-47.683 51.062z"/><path class="st0" d="m1021.7 0v52.606h-68.05v-52.606h-11.969v119.21h11.969v-57.239h68.05v57.239h11.487v-119.21h-11.487z"/></svg>
