<?xml version="1.0" encoding="UTF-8" standalone="no"?>
<svg xmlns="http://www.w3.org/2000/svg" xml:space="preserve" height="119.99" viewBox="0 0 600 119.99138" width="600" version="1.1"><g transform="matrix(1.3333 0 0 -1.3333 -259.25 251.63)"><path d="m477.94 98.733h166.5v89.987h-166.5z" fill="#932783"/><path d="m437.44 98.728h36.001v89.993h-36.001z" fill="#709acd"/><path d="m194.44 98.728h238.5v89.992h-238.5z" fill="#0064ae"/><g fill="#fff"><path d="m248.7 158.91c-2.171 5.2431-8.2002 9.7726-16.105 9.4436-7.9086-0.33357-13.025-5.7135-16.455-11.192v9.4413h-21.703v-5.4771h7.768c3.7692 0 4.2278-1.7506 4.2278-5.3629v-22.611s8.4666 13.516 10.745 17.011c2.8461 4.3654 6.9126 12.4 15.3 12.712 12.681 0.46511 13.936-13.406 14.166-15.967l0.11553-0.11552s5.8893 15.545 17.134 16.083c11.23 0.53503 13.528-10.579 13.951-14.819 0.16641-1.6622 0.14587-5.6626 0.14587-5.6626h4.7525c0.0192 0 0.004 1.6688 0.004 1.6688 0 13.343-3.6455 24.702-18.738 24.292-7.0406-0.19581-11.996-4.6658-15.308-9.4436"/><path d="m297.61 133.83c0 0.20617-0.39105 2.0774-0.52505 3.4173-0.23406 2.2879-0.0846 5.1862-0.0337 5.8974 0.72443 10.177 5.6066 19.096 16.43 18.994 8.6698-0.1142 13.445-6.1963 15.757-8.5639l10.173-11.377v46.524h-21.151v-5.2953h6.0093c3.8148 0 5.3179-2.7032 5.3179-6.4207v-15.997c-4.9691 5.407-11.248 7.4367-18.648 7.4367-16.232 0-23.951-12.542-24.872-25.419-0.0626-0.87821-0.22822-4.1123 0.42912-9.1969h11.114"/><path d="m382.47 162.85c2.4692 0.0907 5.9462-0.58667 6.5059-3.2795-4.0349 0-6.7298-1.875-6.7298-6.0917 0-3.3975 3.2547-5.3865 6.2832-5.3865 4.4834 0 6.2794 3.3973 6.2794 7.8453 0 8.0794-5.0544 12.736-12.674 12.42-7.9077-0.33357-12.572-5.7391-16-11.22v9.4412h-21.705v-5.4785h7.7688c3.7692 0 4.2279-1.7483 4.2279-5.3614v-22.609s8.4695 13.512 10.748 17.009c2.8431 4.3632 6.9104 12.401 15.296 12.711"/><path d="m496.58 137.06-4.7962 9.0298v-9.0298h-4.6756v19.619h4.6756v-8.2354l4.5607 8.2354h5.322l-5.8516-9.1483 6.383-10.47h-5.6179"/><path d="m505.13 137.06h4.6798v19.619h-4.6798z"/><path d="m523.49 137.06-4.8226 14.265v-14.265h-3.9708v19.619h6.0005l4.8528-14.295v14.295h3.9708v-19.619h-6.0306"/><path d="m540.61 137.06h-6.2059v19.619h6.057c6.1192 0 9.1477-3.9731 9.1477-9.8254 0-5.5301-3.2056-9.7932-8.9988-9.7932m-0.53145 16.059h-1.0007v-12.502h1.1176c3.4733 0 4.5588 2.9431 4.5588 6.2353 0 3.3236-0.96867 6.2662-4.6756 6.2662"/><path d="m553.72 137.06v19.619h11.264v-3.5592h-6.645v-4.205h6.1758v-3.5298h-6.1758v-4.7666h6.9126v-3.5579h-11.532"/><path d="m578.46 137.06-1.5604 5.7346c-0.44099 1.5887-1.0309 2.1188-1.9995 2.1188h-0.9404v-7.8534h-4.6191v19.619h7.2066c3.1755 0 6.0589-1.6194 6.0589-5.0294 0-2.5619-1.3814-4.3249-3.9105-4.8256 1.4116-0.37898 2.0881-1.1741 2.6761-3.0881l2.058-6.6755zm-3.266 16.207h-1.2646v-4.9118h1.2966c1.6735 0 2.6459 0.94021 2.6459 2.4993 0 1.6763-1.061 2.4124-2.678 2.4124"/><path d="m495.19 107.32c-5.3522 0-8.8518 3.9723-8.8518 10.119 0 6.9714 4.7962 10.117 8.6163 10.117 2.7044 0 4.2064-0.70521 4.8245-0.94078l-0.17527-3.7927c-0.64829 0.47114-1.7093 1.1166-3.5901 1.1166-2.8231 0-4.8226-2.4991-4.8226-6.5002 0-3.9694 1.911-6.4981 4.7642-6.4981 2.2634 0 3.3526 0.88119 3.7654 1.0586l0.17527-3.9996c-0.9404-0.26501-2.237-0.67947-4.7058-0.67947"/><path d="m512.43 107.65v8.234h-4.4419v-8.234h-4.6756v19.616h4.6756v-7.7055h4.4419v7.7055h4.7039v-19.62h-4.7039"/><path d="m528.96 107.32c-6.0024 0-8.0886 4.9418-8.0886 10.119 0 5.0597 2.4122 10.117 8.0886 10.117 6.057 0 8.147-4.9986 8.147-10.117 0-5.2039-2.4424-10.119-8.147-10.119m0 16.882c-2.825 0-3.2358-3.909-3.2358-6.7639 0-3.5299 0.64641-6.7653 3.2358-6.7653 2.9701 0 3.2942 3.9422 3.2942 6.7653 0 2.8843-0.26761 6.7639-3.2942 6.7639"/><path d="m549.99 107.65-1.5585 5.7347c-0.44099 1.5879-1.0309 2.1179-1.9995 2.1179h-0.94228v-7.8526h-4.6172v19.616h7.2047c3.1774 0 6.0589-1.6173 6.0589-5.0294 0-2.5583-1.3795-4.3236-3.9105-4.8234 1.4134-0.38132 2.0881-1.1764 2.678-3.0867l2.058-6.677zm-3.2622 16.207h-1.2664v-4.9138h1.2947c1.6754 0 2.6478 0.94003 2.6478 2.5008 0 1.6769-1.0591 2.413-2.6761 2.413"/></g></g></svg>
