<svg xmlns="http://www.w3.org/2000/svg" height="119.99" viewBox="0 0 600 119.991" width="600">
    <path d="M377.984 120.003H599.98V.022H377.984z" fill="#932783"/>
    <path d="M323.985 120.003h48V.015h-48z" fill="#709acd"/>
    <path d="M-.006 120.003h317.992V.017H-.006z" fill="#0064ae"/>
    <g fill="#fff">
        <path d="M72.338 39.765c-2.894-6.99-10.933-13.03-21.472-12.591-10.545.444-17.367 7.617-21.94 14.922V29.508H-.01v7.303h10.357c5.025 0 5.637 2.334 5.637 7.15v30.147s11.288-18.02 14.326-22.68c3.795-5.821 9.216-16.534 20.4-16.95 16.907-.62 18.58 17.875 18.887 21.29l.154.153s7.852-20.726 22.845-21.443c14.97-.714 18.037 14.105 18.6 19.758.222 2.216.195 7.55.195 7.55h6.336c.026 0 .006-2.225.006-2.225 0-17.79-4.86-32.935-24.984-32.389-9.387.261-15.994 6.221-20.41 12.592M137.55 73.204c0-.275-.521-2.77-.7-4.556-.312-3.05-.113-6.915-.045-7.863.966-13.57 7.475-25.461 21.906-25.325 11.56.152 17.926 8.262 21.009 11.418l13.564 15.17V.016h-28.2v7.06h8.011c5.087 0 7.09 3.604 7.09 8.56v21.307c-6.625-7.21-14.996-9.916-24.863-9.916-21.642 0-31.934 16.723-33.162 33.892-.083 1.17-.304 5.483.573 12.262h14.818M250.694 34.512c3.292-.121 7.928.782 8.674 4.372-5.38 0-8.973 2.5-8.973 8.122 0 4.53 4.337 7.182 8.378 7.182 5.977 0 8.372-4.53 8.372-10.46 0-10.772-6.739-16.981-16.898-16.56-10.543.445-16.762 7.652-21.333 14.96V29.54h-28.94v7.304h10.359c5.025 0 5.637 2.331 5.637 7.149v30.146s11.292-18.016 14.33-22.678c3.79-5.818 9.214-16.535 20.394-16.948M402.25 69.777l-2.08-7.646c-.586-2.115-1.372-2.822-2.666-2.822h-1.252v10.468h-6.16V43.622h9.61c4.237 0 8.079 2.156 8.079 6.71 0 3.41-1.845 5.762-5.217 6.43 1.885.51 2.784 1.568 3.573 4.117l2.742 8.898zm-4.354-21.603h-1.687v6.547h1.73c2.23 0 3.53-1.252 3.53-3.33 0-2.239-1.415-3.217-3.574-3.217M422.063 70.217c-6.47 0-9.292-3.646-9.292-9.96v-16.63h6.272v17.687c0 2.239.432 4.276 3.02 4.276 2.472 0 3.1-2.037 3.1-4.276V43.628h6.235v16.629c0 6.04-3.096 9.96-9.335 9.96M448.876 69.777l-6.433-19.014v19.013h-5.297V43.621h8.006l6.467 19.06v-19.06h5.297v26.16h-8.04M471.195 69.777h-8.274V43.622h8.083c8.151 0 12.197 5.296 12.197 13.1 0 7.375-4.274 13.055-12.006 13.055m-.703-21.41h-1.332v16.667h1.487c4.631 0 6.081-3.919 6.081-8.311 0-4.434-1.294-8.356-6.236-8.356M494.408 48.365v5.882h7.96v4.667h-7.96v10.86h-6.237V43.62h14.587v4.745h-8.35M516.487 70.217c-6.473 0-9.294-3.646-9.294-9.96v-16.63h6.272v17.687c0 2.239.434 4.276 3.022 4.276 2.473 0 3.096-2.037 3.096-4.276V43.628h6.239v16.629c0 6.04-3.1 9.96-9.335 9.96M543.313 69.777l-6.435-19.014v19.013h-5.294V43.621h8.003l6.468 19.06v-19.06h5.294v26.16h-8.036M569.98 69.777l-6.39-12.035v12.035h-6.24V43.622h6.24v10.98l6.075-10.98h7.098L568.96 55.82l8.508 13.956h-7.488M400.877 109.43c-7.134 0-11.797-5.296-11.797-13.495 0-9.292 6.39-13.486 11.483-13.486 3.61 0 5.608.937 6.432 1.251l-.233 5.063c-.862-.628-2.274-1.495-4.787-1.495-3.764 0-6.43 3.335-6.43 8.667 0 5.298 2.55 8.67 6.355 8.67 3.015 0 4.467-1.178 5.017-1.413l.237 5.331c-1.254.356-2.98.906-6.277.906M423.863 109.003V98.025h-5.92v10.978h-6.234V82.845h6.234v10.277h5.92V82.845h6.277v26.158h-6.277M445.902 109.43c-7.998 0-10.784-6.59-10.784-13.495 0-6.743 3.216-13.486 10.784-13.486 8.076 0 10.863 6.663 10.863 13.486 0 6.943-3.254 13.495-10.863 13.495m0-22.513c-3.766 0-4.311 5.218-4.311 9.018 0 4.71.859 9.02 4.311 9.02 3.96 0 4.395-5.253 4.395-9.02 0-3.842-.36-9.018-4.395-9.018M473.942 109.003l-2.078-7.646c-.588-2.115-1.372-2.824-2.666-2.824h-1.257v10.47h-6.156V82.845h9.611c4.232 0 8.074 2.16 8.074 6.709 0 3.41-1.84 5.761-5.214 6.434 1.884.505 2.786 1.563 3.573 4.115l2.744 8.9zm-4.35-21.609h-1.688v6.55h1.726c2.234 0 3.53-1.251 3.53-3.333 0-2.235-1.412-3.217-3.568-3.217"/>
    </g>
</svg>
