<?xml version="1.0" encoding="UTF-8" standalone="no"?>
<svg xmlns:rdf="http://www.w3.org/1999/02/22-rdf-syntax-ns#" xmlns="http://www.w3.org/2000/svg" height="152.77" width="600" version="1.1" xmlns:cc="http://creativecommons.org/ns#" xmlns:dc="http://purl.org/dc/elements/1.1/" viewBox="0 0 600 152.76513">
 <g>
  <path d="m139.52 16.372h-3.12l1.17-9.5714h3.16c3.35 0.0244 5.16 1.6658 5.18 4.4614-0.02 2.583-1.79 5.086-6.39 5.11m7.24 4.965c4.73-1.259 6.94-5.42 6.93-9.856-0.01-4.6804-2.84-11.465-11.33-11.481h-11.5l-4.63 37.799h7.55l1.82-15.072h1.24c3.3 0.04 3.85 0.609 6.69 7.361l3.19 7.711h8.32l-5.22-12.253c-0.8-1.861-1.55-3.283-3.06-4.209m119.34-21.337-0.04 0.26001-2.78 22.532c-0.78 6.102-4.34 8.02-7.93 8.036-2.58-0.033-7.13-1.032-7.15-7.451 0-0.618 0.04-1.276 0.14-1.983l2.67-21.394h-7.53l-2.73 21.427c-0.13 1.023-0.19 2.031-0.19 2.998 0.01 7.995 4.65 13.854 14.79 13.862h0.13c6.25 0 13.77-2.608 15.24-14.764l2.92-23.523zm-39.71 37.799h7.55l4.69-37.799h-7.55zm-12.05-37.799-0.07 0.17876-10.68 22.638-5.16-22.816h-8.09l-9.52 33.298 0.24-1.975 0.03-0.325h-16.99l1.13-9.19h11.86l0.84-6.792h-11.86l1.03-8.2154h13.49l0.85-6.801h-21.04l-4.68 37.799h31.41l7.21-25.172 5.61 25.172h3.72l11.82-24.482 0.97 24.482h7.31l-1.57-37.799zm-101.81 17.356h-2.59l1.31-10.888 1.43 0.0158c4.36 0.0162 6.07 2.2345 6.09 5.2162-0.02 3.153-1.74 5.623-6.24 5.656m2.93-17.356h-10.96l-4.636 37.799h7.546l1.73-14.024h5.27c5.69-0.016 12.13-2.909 12.15-12.416-0.02-7.5567-5.11-11.343-11.1-11.359m198.32-0.00039607h-7.85l-10.77 22.816-5.14-22.816h-8.09l-10.82 37.799h7.6l7.2-25.172 5.62 25.172h3.72l11.81-24.465 0.98 24.465h7.3z"/>
  <path d="m320.26 68.041c11.58 0.008 20.96 5.923 27.28 12.733l14.25-16.544c-9.96-10.506-24.12-17.827-41.53-17.827-31.77 0.016-54.28 23.905-54.31 53.173 0.03 29.274 22.54 53.164 54.31 53.194 17.41 0 31.57-7.33 41.53-17.84l-14.25-16.54c-6.32 6.81-15.7 12.72-27.28 12.73-8.08 0-15.48-3.22-20.85-8.78-5.36-5.56-8.68-13.46-8.68-22.764 0-9.296 3.32-17.194 8.68-22.751 5.37-5.566 12.77-8.784 20.85-8.784"/>
  <path d="m473.47 122.34c-5.36 5.56-12.76 8.78-20.83 8.78h-0.01c-8.09 0-15.49-3.22-20.85-8.78-5.37-5.56-8.69-13.46-8.69-22.766 0-9.296 3.32-17.194 8.69-22.752 5.36-5.558 12.76-8.784 20.85-8.784 8.08 0 15.48 3.226 20.84 8.784s8.69 13.456 8.69 22.752c0 9.306-3.33 17.206-8.69 22.766m-20.84-75.94c-31.77 0.008-54.3 23.914-54.31 53.174 0.01 29.276 22.54 53.166 54.31 53.186 31.77-0.02 54.29-23.91 54.3-53.186-0.01-29.26-22.53-53.166-54.3-53.174"/>
  <path d="m54.311 68.041c11.579 0.008 20.956 5.923 27.269 12.733l14.26-16.544c-9.962-10.506-24.124-17.827-41.529-17.827-31.779 0.016-54.295 23.905-54.311 53.173 0.01625 29.274 22.532 53.164 54.311 53.194 17.405 0 31.567-7.33 41.529-17.84l-14.26-16.54c-6.313 6.81-15.69 12.72-27.269 12.73-8.085 0-15.487-3.22-20.85-8.78s-8.686-13.46-8.686-22.764c0-9.296 3.323-17.194 8.686-22.751 5.363-5.566 12.765-8.784 20.85-8.784"/>
  <path d="m368.16 150.61h23.72v-101.86h-23.72z"/>
  <path d="m222.76 127.5c-1.72-1.88-2.29-4.68-2.3-8.62 0-0.07 0-0.15 0.01-0.23v-69.899h-23.73v74.109c0.01 0 0.01 0.02 0 0.04 0.02 8.31 2.18 15.24 6.4 20.05 4.24 4.83 10.57 7.65 19.24 7.65h46.94v-20.59h-38.59c-3.58 0-6.23-0.64-7.97-2.51"/>
  <path d="m167.85 151.51v-0.01z"/>
  <path d="m130.92 110.94 0.31-1.13c3.79-13.581 8.18-27.882 12.82-40.931l0.84-2.373 0.86 2.373c4.63 13.049 9.02 27.35 12.8 40.931l0.33 1.13zm30.84-62.188h-32.15c-13.56 29.382-27.32 76.488-33.144 101.85h24.744c1.04-5.04 2.37-11.09 3.95-17.76l0.16-0.7h39.15l0.16 0.7c1.59 6.67 2.92 12.72 3.96 17.76h26.32c-5.82-25.36-19.59-72.483-33.15-101.85"/>
  <path d="m575.29 117.66c0-9.09-3.31-14.93-13.37-14.93-4.46 0-9.2 0.54-13.51 2.04v12.89c0 8.41 4.45 13.71 13.51 13.71 8.91 0 13.37-4.75 13.37-13.71m-51.6 0v-28.649c0-26.465 20.26-40.319 48.29-40.319h20.12v20.095h-23.57c-11.21 0-20.12 6.378-20.12 16.966v1.365c5.46-2.454 11.5-3.405 17.97-3.405 22.41 0 33.62 12.766 33.62 33.947 0 21.72-16.23 33.94-39.23 33.94-22.56 0-37.08-12.76-37.08-33.94"/>
 </g>
</svg>
