<svg xmlns="http://www.w3.org/2000/svg" height="231.84" width="600" viewBox="0 0 158.75 61.342">
    <path d="M40.008 4.494h-.857l.319-2.627h.868c.923.01 1.42.456 1.42 1.222 0 .71-.487 1.395-1.75 1.405m1.988 1.36c1.299-.345 1.902-1.486 1.897-2.704 0-1.283-.776-3.144-3.104-3.15h-3.155l-1.273 10.373h2.069l.503-4.134h.339c.908.01 1.055.167 1.837 2.019l.877 2.115h2.282l-1.435-3.358c-.223-.517-.426-.903-.837-1.161M74.741 0l-.01.071-.766 6.183c-.213 1.679-1.187 2.202-2.171 2.207-.71-.01-1.957-.284-1.962-2.044 0-.173.01-.35.035-.543L70.602 0h-2.069l-.745 5.879a6.552 6.552 0 0 0-.056.822c.005 2.196 1.278 3.804 4.062 3.804h.031c1.714 0 3.784-.715 4.184-4.048L76.811 0zM63.847 10.373h2.074L67.204 0h-2.069zM60.54 0l-.021.046-2.931 6.218L56.173 0h-2.217l-2.617 9.135.066-.537.01-.092h-4.661l.309-2.521h3.256l.229-1.866h-3.257l.284-2.252h3.703L51.511 0h-5.772l-1.288 10.373h8.622l1.979-6.908 1.536 6.908h1.02l3.246-6.721.269 6.721h2.003L62.695 0zM32.603 4.763h-.715l.36-2.987.395.005c1.197.005 1.664.613 1.674 1.43-.01.867-.482 1.542-1.714 1.552M33.404 0h-3.008l-1.268 10.373h2.07l.471-3.85h1.446c1.567-.005 3.332-.796 3.332-3.403 0-2.075-1.4-3.114-3.043-3.12m54.427 0h-2.16l-2.96 6.264L81.305 0h-2.217l-2.972 10.373h2.089l1.974-6.908 1.541 6.908h1.021l3.24-6.711.27 6.711h2zM36.189 41.842h-7V13.401h7zM47.398 28.115v13.727h-7V12.65L57.562 27.1V13.401h7.005v29.161zM88.981 41.842H75.857c-4.864 0-7.283-3.2-7.283-7.86V13.401h19.847v6.112H75.578v4.889h11.663v6.11H75.578v2.32c-.015 2.17.629 2.87 2.572 2.87h10.831zM106.32 36.182l7.01-7.18v12.84h6.97V12.65l-13.98 14.1-13.98-14.1v29.192h6.97v-12.84zM132.47 30.472c1.03-3.727 2.24-7.642 3.51-11.218 1.27 3.576 2.47 7.491 3.5 11.218zm9.8 11.37h7.74c-1.57-6.94-5.44-20.24-9.25-28.441h-9.14c-3.81 8.201-7.68 21.501-9.24 28.441h7.3c.28-1.42.67-3.15 1.12-5.06h10.35c.46 1.91.84 3.64 1.12 5.06M0 27.597c0 8.165 6.299 14.845 15.15 14.845 4.935 0 8.947-2.12 11.726-5.14l-4.235-4.92c-1.704 1.92-4.286 3.62-7.491 3.62-4.306 0-7.857-3.42-7.857-8.405s3.55-8.409 7.857-8.409c3.205 0 5.787 1.699 7.49 3.621l4.236-4.919c-2.78-3.013-6.791-5.133-11.726-5.133-8.851 0-15.15 6.68-15.15 14.84"/>
    <path d="M75.857 41.842c-4.859 0-7.659 1.85-8.212 4.54l-2.434 11.87h19.85l.73-3.52H72.936l.578-2.82h11.667l.72-3.53H74.239l.274-1.34c.238-1.25.969-1.65 2.911-1.65h10.837l.73-3.55zM107.07 54.752v.12c-.38.24-.8.48-1.12.48-.3 0-.45-.23-.45-.53 0-.07.02-.34.07-.59l.67-2.94c.07-.38.15-.9.15-1.19 0-1.49-.96-2.3-2.44-2.3-1.32 0-2.33.51-3.41 1.12l-1.02.59h-.15c-.25-1.06-1.14-1.71-2.36-1.71-1.33 0-2.33.49-3.41 1.12l-.91.49.32-1.46h-4.14l-2.22 10.35h4.15l1.29-6.05.92-.61c.44-.26 1.12-.73 1.55-.73.31 0 .46.22.46.52 0 .08-.02.34-.08.59l-1.34 6.28h4.14l1.35-6.09.86-.57c.46-.26 1.12-.73 1.56-.73.3 0 .45.22.45.52 0 .08-.01.34-.07.59l-.67 2.95c-.07.38-.15.89-.15 1.2 0 1.47.97 2.28 2.44 2.28 1.33 0 2.33-.5 3.41-1.11 0 0 .25-.15.74-.51.77 1.1 2.28 1.62 4.43 1.62 4.44 0 6.96-2.51 6.96-7.09 0-2.37-1.78-3.56-5.04-3.56-4.44 0-6.94 2.44-6.94 6.95m4.2-.59c0-1.25.44-3.25 2.25-3.25.97 0 1.31.47 1.31 1.19 0 1.24-.44 3.25-2.25 3.25-1.01 0-1.31-.44-1.31-1.19M122.01 45.292l-.55 2.66h-1.07l-.67 2.96h1.12l-.85 4.06c-.08.38-.15.89-.15 1.2 0 1.47.96 2.28 2.44 2.28 1.32 0 2.32-.5 3.41-1.11 0 0 .37-.23 1.12-.79.16 1.23 1.08 1.9 2.42 1.9 1.32 0 2.32-.5 3.4-1.11 0 0 .26-.15.76-.52.77 1.1 2.28 1.63 4.43 1.63 4.44 0 6.97-2.51 6.97-7.09 0-2.37-1.79-3.56-5.04-3.56-4.44 0-6.94 2.44-6.94 6.95v.11c-.39.24-.82.49-1.14.49-.31 0-.46-.23-.46-.53 0-.07.02-.34.08-.59l1.37-6.28h-4.16l-.68 2.96-.68 3.14-.87.56c-.45.27-1.11.74-1.55.74-.3 0-.45-.23-.45-.53 0-.07.01-.34.07-.59l.73-3.32h1.55l.66-2.96h-1.63l.59-2.66zm15 8.87c0-1.25.43-3.25 2.25-3.25.97 0 1.31.47 1.31 1.19 0 1.24-.44 3.25-2.26 3.25-1 0-1.3-.44-1.3-1.19M151.54 48.922l-.91.49.33-1.46h-4.15l-2.21 10.35h4.14l1.28-6.05.94-.61c.43-.26 1.11-.73 1.54-.73.31 0 .46.22.46.52 0 .08-.02.34-.07.59l-1.29 5.84c-.08.38-.16.89-.16 1.19 0 1.48.97 2.29 2.45 2.29 1.83 0 4.38-1.11 4.86-4.41 0 0-.74 1.37-2.43 1.31-.3-.01-.45-.23-.45-.53 0-.08.02-.35.08-.59l1.29-5.83c.07-.38.15-.9.15-1.19 0-1.49-.97-2.3-2.44-2.3-1.32 0-2.33.49-3.41 1.12"/>
    <path d="M128.9 45.602c0 1.12.81 1.52 1.89 1.52 1.45 0 2.78-.8 2.78-2.76 0-1.13-.78-1.55-1.87-1.55-1.47 0-2.8.84-2.8 2.79"/>
</svg>
