<svg width="600" height="454.72" viewBox="0 0 158.75 120.311" xmlns="http://www.w3.org/2000/svg">
    <path d="M31.461 105.68a14.597 14.597 0 0 1-14.629 14.629h-2.203A14.597 14.597 0 0 1-.001 105.68V14.627A14.597 14.597 0 0 1 14.63-.002h2.203c3.77 0 7.2 1.412 9.788 3.739L38.026 14.57l51.132 48.975c7.33 7.021 8.228 14.999 1.84 21.998-5.899 6.463-16.555 6.38-23.014.109L31.46 50.19z" fill="#fff"/>
    <path d="M127.291 105.68a14.597 14.597 0 0 0 14.629 14.629h2.203a14.597 14.597 0 0 0 14.63-14.629V14.627c-.984-11.984-15.88-18.933-26.117-10.89L121.23 14.57l-20.304 19.051c-6.627 6.218-8.228 14.999-1.84 21.998 5.899 6.463 17.094 6.426 23.015.109l5.19-5.538z" fill="#ff2b1c"/>
</svg>
