<?xml version="1.0" encoding="UTF-8" standalone="no"?>
<svg xmlns:rdf="http://www.w3.org/1999/02/22-rdf-syntax-ns#" xmlns="http://www.w3.org/2000/svg" height="111.1" width="600" version="1.1" xmlns:cc="http://creativecommons.org/ns#" xmlns:dc="http://purl.org/dc/elements/1.1/" viewBox="0 0 158.75 29.394937">
 <path d="m119.48 9.5006-2.57 19.639h39.27l2.57-19.639zm4.23 1.0304h3.85l-0.9 6.674h7.19l0.9-6.674h3.85l-2.18 17.451h-3.85l0.9-6.93h-7.19l-0.9 6.93h-3.85zm16.56 0h5.26c1.54 0 2.82 0.255 3.85 0.766 1.03 0.51 1.93 1.285 2.57 2.051 0.64 0.775 1.02 1.796 1.28 2.827 0.26 1.03 0.39 1.923 0.39 2.954 0.12 1.158-0.13 2.434-0.39 3.464-0.38 1.159-0.9 2.052-1.54 2.827-0.64 0.766-1.41 1.404-2.44 1.924-0.9 0.382-1.92 0.638-2.95 0.638h-8.21zm3.46 3.465-1.28 10.776h2.69c0.9 0 1.55-0.127 2.19-0.51 0.64-0.255 1.15-0.775 1.54-1.286 0.38-0.51 0.64-1.158 0.9-1.796 0.12-0.638 0.25-1.413 0.25-2.051 0-0.776-0.13-1.414-0.38-2.051-0.39-0.648-0.64-1.286-1.03-1.669-0.38-0.393-0.9-0.775-1.54-1.031-0.64-0.255-1.28-0.382-2.05-0.382z" stroke-width="1.2835" fill="#fff"/>
 <rect height="0" width="0" y="29.542" x="34.321" stroke-width="1.3077"/>
 <g stroke-width=".18865" fill="#fff">
  <path d="m26.675 3.1302h-0.6l0.226-1.8294h0.604c0.641 0.0047 0.986 0.3159 0.99 0.8523-0.004 0.4925-0.343 0.9709-1.22 0.9771m1.382 0.9491c0.906-0.2407 1.329-1.0366 1.325-1.8857-0.002-0.8928-0.542-2.1921-2.166-2.1936h-2.198l-0.886 7.2252h1.445l0.349-2.8801h0.234c0.634 0.0078 0.735 0.1157 1.281 1.4073l0.611 1.4728h1.588l-0.998-2.3405c-0.154-0.3566-0.296-0.6271-0.585-0.8054m22.815-4.0793-0.005 0.048471-0.532 4.3091c-0.149 1.1666-0.83 1.5323-1.515 1.5356-0.494-0.0048-1.364-0.1972-1.37-1.423 0-0.1204 0.01-0.2454 0.027-0.3799l0.513-4.0903h-1.441l-0.523 4.095c-0.023 0.1969-0.038 0.3876-0.038 0.5753 0.006 1.5277 0.891 2.6471 2.832 2.6488h0.023c1.194 0 2.633-0.4972 2.914-2.8223l0.557-4.4968zm-7.589 7.2252h1.445l0.894-7.2252h-1.443zm-2.303-7.2252-0.015 0.032834-2.043 4.3294-0.987-4.3623h-1.545l-1.82 6.3669 0.045-0.3785 0.007-0.0624h-3.25l0.217-1.7559h2.267l0.161-1.3009h-2.268l0.198-1.5684h2.579l0.162-1.3008h-4.023l-0.895 7.2251h6.005l1.379-4.811 1.072 4.811h0.713l2.258-4.6797 0.186 4.6797h1.396l-0.298-7.2251zm-19.465 3.3179h-0.498l0.251-2.0811 0.275 0.0015c0.832 0.0047 1.161 0.4269 1.164 0.9976-0.003 0.6034-0.333 1.0756-1.192 1.082m0.559-3.3179h-2.096l-0.885 7.2252h1.443l0.33-2.6799h1.006c1.088-0.0032 2.32-0.5567 2.324-2.3736-0.004-1.4462-0.977-2.1702-2.122-2.1717m37.914-0.000054874h-1.5l-2.058 4.3623-0.985-4.3623h-1.545l-2.069 7.2252h1.454l1.377-4.811 1.072 4.811h0.713l2.258-4.6765 0.187 4.6765h1.394z"/>
  <path d="m61.229 13.198c2.213 0.001 4.005 1.132 5.214 2.433l2.724-3.162c-1.903-2.007-4.61-3.4083-7.938-3.4083-6.074 0.0032-10.381 4.5703-10.383 10.166 0.002 5.597 4.309 10.164 10.383 10.168 3.328 0 6.035-1.4 7.938-3.409l-2.724-3.163c-1.209 1.301-3.001 2.433-5.214 2.433-1.547 0.002-2.96-0.615-3.986-1.677-1.026-1.064-1.66-2.573-1.66-4.352 0-1.778 0.634-3.288 1.66-4.35 1.026-1.063 2.439-1.679 3.986-1.679"/>
  <path d="m90.518 23.579c-1.024 1.062-2.439 1.677-3.984 1.677-1.545 0.002-2.96-0.615-3.986-1.677-1.026-1.064-1.66-2.573-1.66-4.352 0-1.778 0.634-3.288 1.66-4.35 1.026-1.063 2.441-1.679 3.986-1.679s2.96 0.616 3.984 1.679c1.027 1.062 1.661 2.572 1.661 4.35 0 1.779-0.634 3.288-1.661 4.352m-3.984-14.518c-6.074 0.0015-10.379 4.5701-10.383 10.166 0.004 5.597 4.309 10.164 10.383 10.168 6.075-0.004 10.378-4.571 10.383-10.168-0.005-5.596-4.308-10.165-10.383-10.166"/>
  <path d="m10.382 13.198c2.214 0.001 4.008 1.132 5.215 2.433l2.725-3.162c-1.904-2.007-4.611-3.4083-7.94-3.4083-6.0727 0.0032-10.379 4.5703-10.382 10.166 0.003127 5.597 4.3093 10.164 10.382 10.168 3.329 0 6.036-1.402 7.94-3.409l-2.725-3.163c-1.207 1.301-3.001 2.433-5.215 2.433-1.5446 0.002-2.9597-0.615-3.9854-1.677-1.0256-1.064-1.6604-2.573-1.6604-4.352 0-1.778 0.6348-3.288 1.6604-4.35 1.0257-1.063 2.4408-1.679 3.9854-1.679"/>
  <path d="m70.384 28.984h4.535v-19.474h-4.535z"/>
  <path d="m42.587 24.566c-0.33-0.361-0.438-0.896-0.441-1.647 0-0.017 0-0.032 0.002-0.046v-13.364h-4.534v14.176c0 1.59 0.413 2.914 1.223 3.835 0.809 0.922 2.02 1.46 3.676 1.462h8.976v-3.935h-7.378c-0.684-0.004-1.19-0.123-1.524-0.481"/>
  <path d="m32.091 29.155v-0.001z"/>
  <path d="m25.03 21.4 0.058-0.217c0.725-2.597 1.564-5.33 2.451-7.824l0.162-0.455 0.162 0.455c0.887 2.494 1.726 5.227 2.449 7.824l0.062 0.217zm5.895-11.89h-6.146c-2.594 5.6165-5.224 14.622-6.339 19.474h4.732c0.198-0.968 0.454-2.123 0.754-3.398l0.032-0.132h7.486l0.03 0.132c0.302 1.275 0.556 2.43 0.756 3.396h5.033c-1.113-4.85-3.744-13.856-6.338-19.472"/>
  <path d="m108.96 15.19c0-1.55-0.76-2.508-2.29-2.508-1.55 0-2.31 0.885-2.31 2.508h-4.23c0-3.934 2.78-6.1481 6.72-6.1481 3.82 0 6.29 2.2661 6.34 6.0351v0.03c-0.04 2.794-1.31 4.075-3.71 5.725l-3.25 2.004c-0.88 0.588-1.55 1.254-1.55 2.311v0.173h8.51v3.664h-13.07v-2.877c0-2.509 0.86-3.962 3.44-5.778l3.48-2.459c0.67-0.443 1.92-1.351 1.92-2.68"/>
 </g>
</svg>
