<svg width="72" height="24" viewBox="0 0 72 24" fill="none" xmlns="http://www.w3.org/2000/svg" style="cursor: default;">
<g id="Logo" clip-path="url(#clip0_3448_1211)">
<path id="Vector" fill-rule="evenodd" clip-rule="evenodd" d="M36.8994 8.74009C35.6202 7.4745 33.9339 6.83583 31.8872 6.83191C29.949 6.83191 28.2977 7.41964 26.9836 8.5716C25.7199 9.70789 24.9872 11.2595 24.8128 13.1834C24.6926 14.4019 24.6926 15.7498 24.8128 17.3053C24.9872 19.0803 25.7392 20.581 27.0533 21.7564C28.3946 22.9045 30.073 23.4883 32.0461 23.4883C34.0192 23.4883 35.7054 23.1435 36.849 22.4578C37.7134 21.9406 38.1359 21.3333 38.1398 20.6123C38.1631 19.9815 37.8956 19.4604 37.3452 19.0607C36.8257 18.6767 36.1551 18.6571 35.4186 19.0058C34.2673 19.5426 33.1935 19.813 32.2322 19.813C31.236 19.813 30.3909 19.5662 29.7939 19.1038C29.1815 18.6336 28.8559 17.9636 28.8597 17.176V16.6157L36.9226 16.5844C38.1437 16.5844 38.8182 15.883 38.8182 14.6057V13.8926C38.8182 11.7258 38.1747 9.99 36.9071 8.74009H36.8994ZM34.341 14.0532H28.852L28.8481 13.681C28.8481 11.4711 29.9916 10.2016 31.9802 10.2016C32.9106 10.2016 33.6354 10.4798 34.2053 11.0558C34.717 11.6043 34.9844 12.3057 35.0193 13.1951C35.0193 13.9827 34.4999 14.0493 34.341 14.0532Z" fill="#563FFF"/>
<path id="Vector_2" fill-rule="evenodd" clip-rule="evenodd" d="M56.0916 6.76526C51.5329 6.76526 47.8193 10.515 47.8193 15.1268C47.8193 19.7385 51.529 23.4883 56.0916 23.4883C60.6541 23.4883 64.3638 19.7385 64.3638 15.1268C64.3638 10.515 60.6541 6.76526 56.0916 6.76526ZM56.0916 19.1273C53.913 19.1273 52.1376 17.3327 52.1376 15.1268C52.1376 12.9208 53.913 11.1302 56.0916 11.1302C58.2701 11.1302 60.0494 12.9247 60.0494 15.1268C60.0494 17.3288 58.2778 19.1273 56.0916 19.1273Z" fill="#563FFF"/>
<path id="Vector_3" fill-rule="evenodd" clip-rule="evenodd" d="M22.3706 13.4851C22.3706 9.01044 20.3277 6.83191 16.1296 6.83191C14.4511 6.83191 12.8308 7.37262 11.3074 8.43838L11.0593 8.6147L10.8383 8.3992C9.73741 7.3452 8.40006 6.83191 6.75259 6.83191C4.48102 6.83191 2.73665 7.41964 1.08531 8.74009C0.581374 9.13975 0.496094 9.63344 0.496094 10.5895V21.2353C0.496094 22.4578 1.49233 23.4922 2.66687 23.4922C3.84142 23.4922 4.83765 22.5009 4.83765 21.2353V11.8668L5.00434 11.7532C5.65945 11.3222 6.33006 11.1067 7.00068 11.1067C7.87287 11.1067 9.28775 11.4437 9.28775 13.681V21.2432C9.28775 22.4656 10.2685 23.5001 11.4314 23.5001C12.5943 23.5001 13.5983 22.5087 13.5983 21.2432V11.9883L13.7301 11.8747C14.3387 11.3614 15.0209 11.1067 15.7613 11.1067C17.3351 11.1067 18.0523 11.9452 18.0523 13.7437V21.2392C18.0523 22.5401 18.8934 23.4961 20.192 23.4961C21.4906 23.4961 22.3667 22.5244 22.3667 21.2392V13.4929L22.3706 13.4851Z" fill="#563FFF"/>
<path id="Vector_4" fill-rule="evenodd" clip-rule="evenodd" d="M45.4277 2.7569C45.4277 1.51482 44.4702 0.5 43.2879 0.5C42.0475 0.5 41.1133 1.4678 41.1133 2.7569V21.2431C41.1133 22.4852 42.0708 23.5 43.2531 23.5C44.4896 23.5 45.4277 22.5322 45.4277 21.2431V2.7569Z" fill="#563FFF"/>
<path id="Vector_5" d="M68.5653 23.4882C70.1859 23.4882 71.4997 22.1603 71.4997 20.5221C71.4997 18.884 70.1859 17.556 68.5653 17.556C66.9446 17.556 65.6309 18.884 65.6309 20.5221C65.6309 22.1603 66.9446 23.4882 68.5653 23.4882Z" fill="#563FFF"/>
</g>
<defs>
<clipPath id="clip0_3448_1211">
<rect width="71" height="23" fill="white" transform="translate(0.5 0.5)"/>
</clipPath>
</defs>
</svg>