<svg xmlns="http://www.w3.org/2000/svg" width="600" height="191.54" viewBox="0 0 158.75 50.679">
    <defs>
        <linearGradient id="a" x2="1" gradientTransform="rotate(-90 270.23 170.22) scale(35.165)" gradientUnits="userSpaceOnUse" x1="0" y1="0" y2="0">
            <stop stop-color="#f79820" offset="0"/>
            <stop stop-color="#ef352f" offset="1"/>
        </linearGradient>
        <linearGradient id="b" x2="1" gradientTransform="rotate(-90 244.23 203.16) scale(50.679)" gradientUnits="userSpaceOnUse" x1="0" y1="0" y2="0">
            <stop stop-color="#f79820" offset="0"/>
            <stop stop-color="#ef352f" offset="1"/>
        </linearGradient>
    </defs>
    <path d="M143.26 405.29l-2.187 9.476c-.182-.82-.656-1.493-1.427-2.033-.777-.529-1.807-.793-3.096-.793-1.334 0-2.64.264-3.917.793-1.273.54-2.452 1.3-3.532 2.292-1.08.997-2.022 2.198-2.837 3.609-.81 1.416-1.416 3.002-1.824 4.76-.325 1.421-.374 2.782-.137 4.082.231 1.3.705 2.446 1.41 3.438.705.991 1.625 1.78 2.766 2.363 1.14.584 2.446.876 3.933.876 1.984 0 3.73-.248 5.229-.743 1.504-.496 2.804-1.235 3.9-2.21 1.096-.98 2.011-2.192 2.727-3.63.722-1.438 1.3-3.113 1.741-5.02l2.815-12.18c.408-1.78.342-3.074-.198-3.879-.545-.799-1.51-1.2-2.892-1.2zm-11.597 21.938c-.606-.909-.672-2.391-.193-4.446a9.085 9.085 0 0 1 .766-2.16 7.42 7.42 0 0 1 1.13-1.658l1.333-1.052 1.393-.364c.612 0 1.152.094 1.631.27l1.113.953c.259.458.402 1.075.424 1.851.033.777-.093 1.752-.358 2.92-.386 1.653-.942 2.91-1.686 3.763-.743.848-1.664 1.278-2.754 1.278-1.262 0-2.193-.452-2.799-1.355M93.77 405.29l-4.914 21.31c-.287 1.245-.358 2.32-.199 3.223.155.909.48 1.653.97 2.253a4.477 4.477 0 0 0 1.884 1.333c.75.298 1.592.447 2.518.447a8.37 8.37 0 0 0 1.658-.177 5.664 5.664 0 0 0 1.581-.556l1.279-1.03c.363-.43.622-.964.77-1.604l.58-2.517H98.37c-.97 0-1.658-.171-2.066-.513-.407-.347-.501-.991-.286-1.933l3.52-15.228c.402-1.785.342-3.07-.21-3.84-.55-.777-1.591-1.168-3.117-1.168zm-33.193.898c-.573.424-1.24 1.041-1.994 1.84-.75.81-1.504 1.807-2.26 2.997l-3.938 6.27c-.64.997-1.279 2.071-1.918 3.206s-1.212 2.21-1.718 3.212a36.597 36.597 0 0 0-.265-3.868c-.165-1.41-.325-2.705-.49-3.862l-.816-5.316a5.855 5.855 0 0 0-.528-1.724 4.29 4.29 0 0 0-1.146-1.427c-.502-.408-1.113-.733-1.851-.97-.744-.242-1.626-.358-2.667-.358h-2.49c-.634 1.427-1.3 3.069-2.006 4.914-.705 1.851-1.399 3.796-2.082 5.835a138.866 138.866 0 0 0-1.928 6.22 127.28 127.28 0 0 0-1.576 6.104c-.16.688-.187 1.3-.083 1.823.105.535.309.976.623 1.334l1.151.832c.452.198.959.297 1.515.297H36.8c.259-1.135.59-2.485.986-4.05.397-1.553.826-3.167 1.29-4.83.457-1.67.914-3.295 1.366-4.882a90.962 90.962 0 0 1 1.278-4.121c.06.584.149 1.416.253 2.496.1 1.085.188 2.198.248 3.333l.276 4.562c.17 2.77.617 4.715 1.338 5.823.728 1.113 1.708 1.67 2.948 1.67h2c.352-.425.716-.915 1.096-1.472.38-.556.75-1.118 1.113-1.702.358-.584.705-1.14 1.03-1.68.325-.546.606-1.03.827-1.45l6.242-11.497a72.28 72.28 0 0 1-.535 3.465c-.22 1.306-.457 2.606-.688 3.884a144.77 144.77 0 0 1-1.25 6.165c-.326 1.427-.172 2.5.473 3.212.639.716 1.592 1.074 2.848 1.074h3.063c.435-1.873.838-3.79 1.212-5.73.37-1.945.71-3.84 1.008-5.69.303-1.852.568-3.615.805-5.29.237-1.68.419-3.195.556-4.545.204-1.983-.055-3.493-.766-4.54-.721-1.04-2.027-1.564-3.911-1.564zm15.657 6.628a13.787 13.787 0 0 0-3.818 2.479 15.641 15.641 0 0 0-2.936 3.67 15.56 15.56 0 0 0-1.785 4.5c-.336 1.455-.43 2.826-.281 4.127.148 1.3.556 2.43 1.217 3.393.661.97 1.593 1.741 2.783 2.314s2.644.854 4.374.854c1.432 0 2.672-.138 3.719-.413 1.047-.286 1.934-.661 2.66-1.13s1.306-1.013 1.725-1.625a5.574 5.574 0 0 0 .86-1.906l.385-1.68h-.253c-.656.402-1.52.733-2.612.975-1.085.242-2.43.364-4.032.364-2.893 0-4.292-1.03-4.204-3.097h2.986c1.697 0 3.179-.071 4.44-.225 1.262-.155 2.342-.436 3.234-.843.898-.403 1.615-.953 2.16-1.642.551-.683.942-1.554 1.185-2.595.303-1.322.341-2.512.099-3.57-.248-1.058-.7-1.945-1.378-2.65-.672-.716-1.526-1.262-2.567-1.642-1.041-.385-2.215-.578-3.531-.578-1.548 0-3.03.308-4.43.92m.276 5.564c.721-.705 1.691-1.063 2.903-1.063 1.025 0 1.708.237 2.06.705.359.463.469.959.348 1.488l-.281.606-.673.451c-.308.127-.716.22-1.228.287-.518.06-1.18.094-2.011.094h-2.689c.326-1.009.849-1.868 1.57-2.568m33.845-5.586a13.51 13.51 0 0 0-3.978 2.33 15.057 15.057 0 0 0-3.102 3.647 15.8 15.8 0 0 0-1.906 4.733c-.358 1.553-.419 2.975-.17 4.275.247 1.3.726 2.419 1.448 3.36.716.943 1.647 1.676 2.788 2.199 1.146.518 2.43.782 3.862.782 1.724 0 3.322-.264 4.793-.804a13.145 13.145 0 0 0 3.95-2.27 13.505 13.505 0 0 0 2.942-3.548c.81-1.388 1.41-2.953 1.813-4.683.374-1.625.43-3.102.16-4.43-.26-1.322-.76-2.462-1.499-3.415a7.51 7.51 0 0 0-2.81-2.215c-1.129-.518-2.369-.782-3.735-.782-1.576 0-3.09.275-4.556.82m-1.917 14.309c-.49-.915-.507-2.386-.033-4.413a7.35 7.35 0 0 1 .749-1.978 6.446 6.446 0 0 1 1.157-1.565l1.383-1.024 1.454-.386c1.218 0 2.066.485 2.562 1.449.49.964.523 2.396.083 4.303-.337 1.443-.937 2.633-1.813 3.575-.865.937-1.851 1.405-2.942 1.405-1.234 0-2.105-.457-2.6-1.366m55.065-14.556a49.004 49.004 0 0 1-1.284 3.283c-.502 1.168-1.047 2.347-1.631 3.515s-1.19 2.281-1.807 3.339a45.292 45.292 0 0 1-1.746 2.771 38.5 38.5 0 0 1-.342-2.16 59.056 59.056 0 0 1-.275-2.523 82.211 82.211 0 0 1-.188-2.65 29.41 29.41 0 0 1-.038-2.595l-.243-1.245-.716-.93-1.025-.596-1.223-.21h-3.608c-.133 1.4-.144 3.009-.039 4.81.105 1.813.298 3.62.573 5.438.264 1.824.6 3.57.997 5.234.386 1.67.816 3.063 1.29 4.187-.568.86-1.141 1.493-1.72 1.906-.578.408-1.338.65-2.275.722l-3.04.231-.403 1.752c-.281 1.196-.088 2.105.573 2.716.661.612 1.553.915 2.666.915 1.042 0 1.984-.116 2.816-.358s1.735-.788 2.721-1.625c.986-.843 2.138-2.088 3.471-3.741 1.328-1.659 3.025-3.9 5.08-6.722a57.539 57.539 0 0 0 2.407-3.57 73.098 73.098 0 0 0 2.154-3.669 45.18 45.18 0 0 0 1.642-3.24c.446-.985.733-1.751.865-2.313l.1-.716v-.177l-.359-1.074c-.363-.468-1.058-.705-2.077-.705z" fill="url(#a)" transform="translate(-10.508 -396.71)"/>
    <path d="M20.408 400.24c-6.77 4.953-7.89 12.082-9.074 19.15-.496 2.958-.799 5.713-.826 8.258v.656c.055 5.515 1.493 10.005 5.272 13.332 4.21 3.719 13.24 5.322 28.874 5.697 10.49.248 20.225-.254 26.973-2.033-4.347.347-9.266.672-15.387.54-15.944-.353-26.604-2.121-32.059-6.314-4.793-3.691-6.291-11.25-4.462-21.205 1.294-7.052 2.705-15.9 9.8-18.687 2.436-.948 4.48-2.248 13.736-2.413-3.807-.336-6.909-.507-9.493-.507-7.002 0-10.209 1.223-13.355 3.526" fill="url(#b)" transform="translate(-10.508 -396.71)"/>
</svg>
