<svg width="200mm" height="56.506mm" version="1.1" viewBox="0 0 200 56.506" xmlns="http://www.w3.org/2000/svg">
 <g transform="translate(68.392 -119.51)">
  <path d="m5.9516 149.27h-17.082q0.37008 2.2594 1.9673 3.6034 1.6167 1.3245 4.1099 1.3245 2.9801 0 5.1227-2.0841l4.4799 2.1036q-1.6751 2.3763-4.0125 3.5255-2.3374 1.1297-5.5512 1.1297-4.9864 0-8.1223-3.136-3.136-3.1554-3.136-7.8886 0-4.85 3.1165-8.0444 3.136-3.2139 7.8496-3.2139 5.0058 0 8.1418 3.2139 3.136 3.1944 3.136 8.4534zm-5.337-4.1878q-0.52591-1.7725-2.0841-2.8828-1.5388-1.1102-3.5839-1.1102-2.2205 0-3.8956 1.2466-1.0518 0.77913-1.9478 2.7464z" fill="#f9f9f9"/>
  <path d="m9.1075 128.95h5.3175v29.373h-5.3175z" fill="#f9f9f9"/>
  <path d="m28.544 136.59q2.9996 0 5.6291 1.4998 2.649 1.4998 4.1293 4.0709 1.4803 2.5711 1.4803 5.5512 0 2.9996-1.4998 5.6097-1.4803 2.61-4.0514 4.0904-2.5711 1.4608-5.6681 1.4608-4.5578 0-7.7912-3.2334-3.2139-3.2528-3.2139-7.8886 0-4.9669 3.6424-8.2781 3.1944-2.8827 7.3432-2.8827zm0.07791 5.0058q-2.4737 0-4.1293 1.7335-1.6362 1.7141-1.6362 4.402 0 2.7659 1.6167 4.4799 1.6362 1.7141 4.1293 1.7141 2.4932 0 4.1488-1.7335t1.6556-4.4604q0-2.7269-1.6362-4.4215-1.6167-1.7141-4.1488-1.7141z" fill="#f9f9f9"/>
  <path d="m58.957 128.95h5.298v29.373h-5.298v-2.24q-1.5582 1.4803-3.136 2.1426-1.5582 0.64277-3.3892 0.64277-4.1099 0-7.1095-3.1749-2.9996-3.1944-2.9996-7.9275 0-4.9084 2.9022-8.0444 2.9022-3.136 7.051-3.136 1.9088 0 3.5839 0.72068 1.6751 0.72069 3.097 2.1621zm-5.5902 12.544q-2.4737 0-4.1099 1.753-1.6362 1.7335-1.6362 4.4604 0 2.7464 1.6556 4.5189 1.6751 1.7725 4.1099 1.7725 2.5127 0 4.1683-1.7335 1.6556-1.753 1.6556-4.5773 0-2.7659-1.6556-4.4799-1.6556-1.7141-4.1878-1.7141z" fill="#f9f9f9"/>
  <path d="m66.732 137.13h5.4344l5.5123 13.303 6.0771-13.303h5.4538l-13.284 28.944h-5.4928l4.3631-9.33z" fill="#f9f9f9"/>
  <path d="m95.928 127.89v34.639h20.09c7.0587 0 15.196-4.6134 15.196-13.494v-9.2826c0-6.5252-6.2606-11.862-13.438-11.862z" fill="#9d0b0e" stroke="#000" stroke-width=".7888"/>
  <path d="m103.76 135.1h3.6382v5.3636h2.1668v3.1433h-2.1668v11.409h-3.6382v-11.409h-1.8726v-3.1433h1.8726z" fill="#fff"/>
  <path d="m110.69 140.46h3.7184l3.6783 8.5871 3.6649-8.5871h3.705l-6.1929 14.553h-2.3675z" fill="#fff"/>
  <path d="m-68.391 168.91c-0.02391-1.957 0.44597-8.68 12.732-9.1048 5.0126 0.17524 5.0379 0.82146 5.0379-5.5325v-32.943c11.41 0.39682 18.658 4.6908 17.981 18.539-0.04082 1.0575-0.66976 1.1081-0.90739 0.57328-1.2064-2.8854-0.84776-13.318-12.531-13.41v36.236c0.01465 7.552-9.2261 12.702-15.315 12.75-3.2693-0.10636-6.9149-2.7635-6.998-7.108z" fill="#f9f9f9"/>
  <path d="m-35.44 160.05c-0.01541-1.2606 0.25064-5.5181 8.165-5.7918 3.1361-0.0828 3.5793-1.036 3.5836-2.1541 0.0272-7.0466 5.35e-4 -26.36 5.35e-4 -26.36-2.5364 0.10136-7.3085 4.5391-8.2474 9.4896-0.15469 0.81566-0.52228 0.72925-0.66648 0.18501-0.1846-0.6967-0.9323-3.0918-0.35823-4.955 2.2039-7.1528 7.0676-10.888 12.732-10.946l-1.1e-4 36.788c-0.02717 3.6557-5.7526 8.3486-10.701 8.3244-2.1071-0.0105-4.4544-1.7801-4.5079-4.5788z" fill="#f9f9f9"/>
 </g>
</svg>
