<svg width="600" height="224.9" version="1.1" viewBox="0 0 158.75 59.505166" xmlns="http://www.w3.org/2000/svg">
 <g transform="translate(-58.089 -119.08)">
  <path d="m58.227 144.95c-0.78584-4.8577 1.837-8.7994 6.8298-8.9946 5.3207-0.13014 138.68-4.73 145.12-4.8577 5.0529-0.13264 6.9549 3.0157 6.6271 7.4154-0.32785 3.6114-1.9646 29.484-2.2324 32.9-0.26528 3.6764-2.3625 7.3579-7.9435 7.1626-5.5835-0.27029-134.68-9.0672-139.01-9.3275-4.6625-0.33285-6.1065-2.0372-6.7597-6.4369-0.59814-4.0718-2.1022-15.041-2.6303-17.862" fill="#b0191b"/>
  <g fill="#fbb81e">
   <path d="m141.56 129.59c-0.46049-0.39542-1.0561-0.6607-1.6468-0.6607-0.58812 0.0701-1.1788 0.32784-1.6367 0.72327l-13.532 15.564c0.6607 0.32785 1.1838 0.72327 1.5792 1.1838 0.13265 0.1952 0.32785 0.39041 0.39543 0.58562l14.903-13.985c0.46049-0.45799 0.6607-1.0511 0.6607-1.7043 0-0.6607-0.26778-1.2513-0.72327-1.7068"/>
   <path d="m111.68 160.32-3.8066 4.3346 4.6625-4.3346z"/>
   <path d="m122.25 160.38-10.899 11.755 0.19521 0.0651 13.001-11.82z"/>
   <path d="m147.66 150.21h-0.0676 0.13014z"/>
   <path d="m168.21 128.87c-0.46049-0.46049-1.1137-0.72327-1.7068-0.72327-0.72327-0.0626-1.3089 0.19521-1.7744 0.6607l-14.903 15.689h2.4301c0.59063 0.0676 1.1838 0.13264 1.7068 0.32785l14.185-12.411c0.45799-0.46049 0.71827-1.1137 0.71827-1.7744 0-0.6507-0.1902-1.3089-0.6557-1.7694"/>
   <path d="m134.47 160.72-5.7787 6.1015 6.9574-6.1015z"/>
  </g>
  <g fill="#fff">
   <path d="m152.65 150.34c-0.13264 0.72327-0.59564 1.0511-1.3139 1.0511h-4.9928l0.19771-2.2974h5.0529c0.79335 0.0626 1.1187 0.52306 1.0561 1.2463m-0.46049-4.6575h-9.395l-1.3089 13.519h4.0043l0.46299-4.1995h5.5134c2.8205-0.20021 4.3371-1.7744 4.665-4.6625 0.32285-2.9582-0.98355-4.5323-3.9417-4.6575"/>
   <path d="m122.77 150.34c-0.12764 0.72327-0.52306 1.0511-1.3089 1.0511h-4.9978l0.26528-2.2974h4.9903c0.79084 0.0626 1.1888 0.52306 1.0511 1.2463m-0.46049-4.6575h-9.32l-1.379 13.519h4.0668l0.39542-4.1995h3.5488l1.8395 4.1995h4.5248l-1.902-4.3997c1.444-1.1137 2.2349-2.6253 2.2349-4.5298 0.20021-2.5627-1.1888-4.1369-4.0093-4.5899"/>
   <path d="m130.59 154.87c0.19521 0.58562 0.59063 0.98355 1.1838 1.0511h3.739c0.6582-0.0676 1.1187-0.33285 1.384-0.85591 0.32034-0.39542 0.52306-1.2463 0.6532-2.6253 0.13264-1.4466 0-2.2974-0.26278-2.6929-0.32785-0.39542-0.78835-0.6557-1.4466-0.72327h-2.8906c-0.84841 0.0676-1.4415 0.46049-1.832 1.2463-0.1952 0.32785-0.39542 1.1187-0.52806 2.365s-0.13264 1.9721 0 2.2349m6.2366 4.6575h-6.4319c-2.8255 0-4.0093-2.2974-3.5488-6.8924 0.46299-4.6625 2.1698-7.0275 5.2556-7.0275h5.2481c3.1534-0.0651 4.4673 2.2374 4.0093 6.7647-0.26028 4.7275-1.7068 7.0926-4.5323 7.1551"/>
  </g>
  <path d="m164.21 120c-0.59063-0.59063-1.379-0.91848-2.1648-0.91848-0.85591 0-1.6418 0.32785-2.1698 0.91848l-26.068 27.975c-0.0651 0.0676-0.92098 1.1813-1.5066 2.1698-0.52806 0.78084-0.6607 2.7554-0.6607 3.8016l31.784-28.956 0.78584-0.6557c0.59063-0.59063 0.85091-1.3765 0.85091-2.1698 0-0.85091-0.32785-1.6368-0.85091-2.1648" fill="#fbb81e"/>
  <g fill="#fff">
   <path d="m67.817 159.27 1.379-13.59h12.083c2.6879-0.0726 3.9342 1.374 3.8016 4.3271l-0.91848 9.1948h-3.4111l0.78584-8.1387c0.20021-1.0561-0.13014-1.5116-0.85341-1.5116h-1.8345l-0.98605 9.6503h-3.4136l0.98355-9.6503h-2.9532l-0.92349 9.7179z"/>
   <path d="m97.56 159.2h-8.5341c-2.7629-0.19521-3.8766-2.4301-3.4812-6.7597 0.45549-4.3371 2.1022-6.5695 5.0504-6.7022h8.2788l-0.32535 3.286h-7.2252c-0.6607-0.0651-1.1187 0.13014-1.2513 0.52807l-0.32284 1.1137h8.6667l-0.33286 3.2785-8.5992-0.0626v0.78583c0.06507 0.59314 0.26528 0.98856 0.72077 1.0561l7.6832-0.0676z"/>
   <path d="m167.23 152.24c-0.13264 1.4465-0.32785 2.2974-0.6557 2.6303-0.26278 0.52305-0.72327 0.85591-1.3139 0.91848h-3.8141c-0.58563-0.13265-0.98105-0.46049-1.1763-1.1187-0.13264-0.26027-0.13264-0.98355 0-2.1673 0.13014-1.2463 0.32785-2.0372 0.59063-2.36 0.32785-0.79084 0.91848-1.1838 1.7744-1.2513h2.8831c0.66071 0.0676 1.1212 0.26528 1.449 0.72327 0.32535 0.39042 0.39542 1.2513 0.26278 2.6253m-0.19521-6.7647h-5.2556c-3.0207 0.0676-4.73 2.37-5.1855 7.0275-0.46049 4.5949 0.71827 6.8924 3.5438 6.8924h6.3693c2.8205-0.0626 4.267-2.4927 4.5298-7.1551 0.4655-4.5323-0.8484-6.7647-4.0018-6.7647"/>
   <path d="m208.01 149.22h-7.4204c-0.52306 0-0.91848 0-1.1838 0.0676-0.32535 0.0651-0.52056 0.26529-0.71827 0.59313 0.0651 0.45799 0.19771 0.6532 0.52807 0.71827 0.26027 0.0676 0.71826 0.13264 1.3114 0.13264h3.6063c1.5116 0.0676 2.4977 0.45799 3.0908 1.2463 0.59063 0.78584 0.78584 1.842 0.6532 3.2209-0.19521 1.3139-0.6532 2.36-1.4465 3.0207-0.71827 0.6532-1.9646 0.98105-3.6714 0.98105h-8.2738l0.32785-3.744h7.8784c0.6557 0 0.91848 0 1.2463-0.0626 0.39542 0 0.85591 0 0.98354-0.4655 0-0.39042-0.1952-0.58562-0.52305-0.71827-0.26529-0.0676-0.78834-0.0676-1.5742-0.0676h-3.4812c-1.5792 0-2.6929-0.39041-3.3486-1.1788-0.59063-0.72327-0.85591-1.7744-0.72327-3.1534 0.26528-1.3765 0.72327-2.4276 1.5116-3.0207 0.78584-0.6532 1.9696-0.98105 3.6114-1.1087h8.011z"/>
   <path d="m107.87 149.02h4.0043l0.33035-3.2835h-12.478l-0.32785 3.2835h4.4047l-0.98855 10.176h4.0043z"/>
   <path d="m191.2 145.68-0.39042 3.6714s0.0626 1.3139-1.0561 1.3139h-3.9993c-0.72828-0.0676-0.99106-0.45799-0.92349-1.2463l0.32785-3.739h-3.5438l-0.46049 4.5273c-0.20021 2.9506 1.0461 4.3972 3.739 4.3296h0.6557l-0.39042 4.7326h4.0093l0.52056-4.7326h1.0561c2.7529 0.0676 3.739-1.7068 3.8041-4.1344l0.39542-4.7225z"/>
   <path d="m176.55 145.68-0.85591 8.4015c0 0.84591 0.39542 1.3114 1.2513 1.374h4.9903l-0.32785 3.8141h-6.109c-2.9532-0.13264-4.262-1.8395-3.9342-5.0604l0.91848-8.5291z"/>
  </g>
 </g>
</svg>
