<svg width="180.62mm" height="175.71mm" version="1.1" viewBox="0 0 640 622.59" xmlns="http://www.w3.org/2000/svg">
 <g transform="translate(334.29 -526.78)">
  <g transform="matrix(55.793 0 0 -55.793 -12614 41991)">
   <path d="m231.57 732.03h-11.471v11.159h11.471v-11.159z" fill="#bf1c2d"/>
   <g transform="translate(223.22 738.03)">
    <path d="m0 0c-0.146 0.402-0.298 0.816-0.443 1.221l-0.205-1.396c-3e-3 -0.021-3e-3 -0.043-3e-3 -0.058 0-0.04-0.035-0.084-0.079-0.084h-0.011c-0.036 0-0.055 0.03-0.055 0.065 0 0.013 1e-3 0.032 7e-3 0.045 3e-3 0.017 5e-3 0.036 8e-3 0.049 0.075 0.491 0.159 1.023 0.232 1.515 0.022 0.08 0.075 0.155 0.15 0.155 0.033 0 0.059-5e-3 0.065-0.032v3e-3c0.139-0.387 0.275-0.771 0.415-1.152l0.408 1.152c9e-3 0.02 0.028 0.032 0.062 0.032 0.074 0 0.133-0.078 0.151-0.158l0.195-1.515c5e-3 -0.017 7e-3 -0.041 0.013-0.051 5e-3 -0.011 8e-3 -0.024 8e-3 -0.035 0-0.038-0.018-0.073-0.058-0.073h-0.061c-0.048 0-0.066 0.054-0.071 0.097-3e-3 6e-3 -5e-3 0.013-8e-3 0.024-2e-3 6e-3 -2e-3 0.014-5e-3 0.016l-0.175 1.388-0.394-1.116c-0.02-0.06-0.07-0.129-0.109-0.129-0.014 0-0.026 0.011-0.037 0.037" fill="#fff"/>
   </g>
   <g transform="translate(225.38 738.83)">
    <path d="m0 0c0 0.316-0.199 0.556-0.463 0.556h-0.011c-0.306 0-0.472-0.335-0.486-0.725 0.319 0.037 0.639 0.085 0.96 0.125v0.044zm-0.9-0.629c0.079-0.223 0.274-0.368 0.488-0.368 0.199 0 0.379 0.114 0.495 0.316v-3e-3c7e-3 0.019 0.021 0.025 0.032 0.025 0.026 0 0.047-0.022 0.047-0.05v-0.09c0-0.053-0.015-0.113-0.058-0.157-0.127-0.133-0.329-0.214-0.541-0.214-0.449 0-0.767 0.39-0.767 0.961 0 0.537 0.318 0.937 0.748 0.937 0.412 0 0.679-0.32 0.679-0.827v-0.055c0-0.022-0.018-0.044-0.042-0.048-0.362-0.04-0.777-0.092-1.141-0.13 0.017-0.176 0.06-0.297 0.06-0.297" fill="#fff"/>
   </g>
   <g transform="translate(225.53 737.89)">
    <path d="m0 0s-0.05-0.123-0.118-0.123h-0.096c-0.05 0-0.076 0.038-0.076 0.081 0 0.039 0.034 0.099 0.131 0.196 0.183 0.281 0.367 0.55 0.556 0.831-0.176 0.259-0.355 0.519-0.527 0.78-0.025 0.043-0.068 0.067-0.068 0.119 0 0.043 0.025 0.085 0.076 0.085h0.117c0.059 0 0.08-0.042 0.105-0.094v5e-3c0.151-0.251 0.318-0.498 0.489-0.75 0.143 0.22 0.297 0.443 0.44 0.661 0.033 0.067 0.037 0.178 0.134 0.178h0.088c0.05 0 0.076-0.042 0.076-0.085 0-0.052-0.085-0.132-0.135-0.209l-0.473-0.711c0.189-0.29 0.389-0.581 0.577-0.869l0.025-0.038c6e-3 -9e-3 0.013-0.014 0.018-0.023l-5e-3 5e-3c0.017-0.018 0.025-0.042 0.025-0.064 0-0.051-0.032-0.098-0.088-0.098h-0.108c-0.083 0-0.134 0.157-0.159 0.191-0.163 0.248-0.318 0.492-0.482 0.738-0.171-0.26-0.376-0.528-0.522-0.806" fill="#fff"/>
   </g>
   <g transform="translate(227.14 737.85)">
    <path d="m0 0c0-6e-3 2e-3 -0.014 2e-3 -0.021 0-0.039-0.015-0.084-0.057-0.084h-0.04c-0.057 0-0.06 0.063-0.06 0.11 3e-3 8e-3 3e-3 0.013 3e-3 0.018v1.03c0 0.026-8e-3 0.053-8e-3 0.079 0 0.052 0.031 0.079 0.097 0.079 0.037 0 0.063-0.011 0.063-0.045v-1.166zm-0.08 1.668c0.067 0 0.116-0.053 0.116-0.116 0-0.061-0.049-0.117-0.116-0.117-0.065 0-0.114 0.056-0.114 0.117 0 0.063 0.049 0.116 0.114 0.116" fill="#fff"/>
   </g>
   <g transform="translate(228.05 738.65)">
    <path d="m0 0c7e-3 0.011 0.014 0.017 0.024 0.017 0.018 0 0.033-0.017 0.033-0.036v-0.056c0-0.046-0.025-0.087-0.06-0.112-0.077-0.053-0.175-0.088-0.276-0.088-0.302 0-0.523 0.273-0.523 0.645 0 0.378 0.227 0.661 0.53 0.661 0.075 0 0.115-0.01 0.187-0.04l0.015-0.011c0.05-0.022 0.105-0.051 0.105-0.11v-0.031c0-0.033-0.025-0.054-0.053-0.054-0.015 0-0.029 9e-3 -0.041 0.021-0.061 0.058-0.144 0.106-0.228 0.106-0.204 0-0.358-0.229-0.358-0.542 0-0.306 0.157-0.526 0.376-0.526 0.114 0 0.215 0.061 0.269 0.156" fill="#fff"/>
   </g>
   <g transform="translate(229.15 738.59)">
    <path d="m0 0c0 0.396-0.223 0.708-0.506 0.708s-0.502-0.315-0.502-0.712c0-0.395 0.225-0.719 0.502-0.719 0.283 0 0.506 0.324 0.506 0.723m0.206 0c0-0.498-0.306-0.881-0.712-0.881-0.403 0-0.712 0.383-0.712 0.884 0 0.487 0.309 0.863 0.712 0.863 0.406 0 0.712-0.376 0.712-0.866" fill="#fff"/>
   </g>
   <g transform="translate(224.52 739.64)">
    <path d="m0 0c-8e-3 -1e-3 -0.02 2e-3 -0.024 5e-3 0 0-0.055 0.054-0.058 0.098-2e-3 0.018 4e-3 0.034 0.025 0.044l0.746 0.309c4e-3 0 4e-3 0 8e-3 1e-3 8e-3 1e-3 0.017-4e-3 0.025-0.01 0 0 0.072-0.086 0.078-0.147 3e-3 -0.025-7e-3 -0.05-0.035-0.061l-0.765-0.239z" fill="#fff"/>
   </g>
   <g transform="translate(222.92 737.35)">
    <path d="m0 0v-1.056c0-0.012 0-0.024 2e-3 -0.033v-0.011c0-0.026-0.015-0.048-0.044-0.048h-0.041c-0.032 0-0.046 0.031-0.046 0.059v6e-3c2e-3 0.013 2e-3 0.027 2e-3 0.044v1.039h-0.27c-0.025 0-0.042-3e-3 -0.051-0.01-6e-3 -3e-3 -0.011-5e-3 -0.016-5e-3 -0.018 0-0.034 0.012-0.034 0.028 0 0.046 0.036 0.085 0.084 0.085h0.707c0.045 0 0.083-0.039 0.083-0.085 0-0.015-0.018-0.023-0.037-0.023-8e-3 0-0.014 0-0.022 5e-3 -6e-3 3e-3 -0.019 5e-3 -0.047 5e-3h-0.27z" fill="#fff"/>
   </g>
   <g transform="translate(224.21 736.89)">
    <path d="m0 0c0.056 0.039 0.101 0.121 0.101 0.202 0 0.076-0.039 0.154-0.093 0.196-0.058 0.041-0.127 0.055-0.248 0.055h-0.194c-5e-3 0-9e-3 -3e-3 -9e-3 -0.01v-0.472c0-9e-3 4e-3 -0.011 9e-3 -0.011h0.198c0.136 0 0.19 0.011 0.236 0.04m0.312-0.673c6e-3 -2e-3 7e-3 -6e-3 7e-3 -0.012 0-3e-3 -1e-3 -6e-3 -6e-3 -9e-3 0 0-0.027-0.019-0.07-0.019h-0.011c-0.05 5e-3 -0.1 0.027-0.128 0.07l-0.277 0.417c-0.035 0.054-0.097 0.088-0.162 0.088h-0.099c-5e-3 0-9e-3 -4e-3 -9e-3 -0.01v-0.454c0-7e-3 2e-3 -0.017 2e-3 -0.023v-0.011c0-0.028-0.014-0.059-0.047-0.059h-0.038c-0.029 0-0.048 0.026-0.048 0.054v5e-3c2e-3 0.011 2e-3 0.021 2e-3 0.034v1.081c0 0.036 0.018 0.072 0.058 0.072h0.272c0.155 0 0.249-0.02 0.319-0.065 0.097-0.056 0.158-0.167 0.158-0.284 0-0.11-0.056-0.219-0.14-0.276-0.051-0.033-0.095-0.045-0.186-0.055-4e-3 0-4e-3 -1e-3 -4e-3 -4e-3 0.102-0.146 0.211-0.303 0.312-0.451 0.03-0.043 0.041-0.059 0.053-0.066 6e-3 -6e-3 0.016-0.012 0.042-0.023" fill="#fff"/>
   </g>
   <g transform="translate(225.32 737.29)">
    <path d="m0 0-0.205-0.535c-2e-3 -4e-3 -5e-3 -8e-3 -7e-3 -8e-3h0.428c-1e-3 0-3e-3 4e-3 -5e-3 0.01l-0.211 0.533zm-4e-3 0.155c0.053 0 0.099-0.034 0.119-0.08l0.407-1.054 0.013-0.039c3e-3 -7e-3 5e-3 -0.012 6e-3 -0.015 5e-3 -9e-3 6e-3 -0.015 6e-3 -0.023 0-0.018-0.012-0.035-0.034-0.035h-0.079c-0.032 0-0.032 0.031-0.032 0.056 0 4e-3 -9e-3 0.025-0.015 0.048-0.043 0.109-0.091 0.232-0.13 0.341-1e-3 4e-3 -5e-3 7e-3 -0.01 7e-3h-0.482c-3e-3 0-6e-3 -5e-3 -9e-3 -9e-3l-0.127-0.339c-5e-3 -0.013-0.011-0.034-0.011-0.038 0-0.031-8e-3 -0.066-0.043-0.066h-0.045c-0.021 0-0.035 0.018-0.035 0.039 0 6e-3 2e-3 0.014 3e-3 0.019 0.011 0.015 0.018 0.031 0.029 0.068l0.393 1.018c6e-3 0.012 9e-3 0.027 9e-3 0.041 0 0.029 0.017 0.061 0.049 0.061h0.018z" fill="#fff"/>
   </g>
   <g transform="translate(226.2 737.44)">
    <path d="m0 0c0.027-2e-3 0.03-0.024 0.03-0.048 0-5e-3 2e-3 -0.01 4e-3 -0.014 1e-3 -4e-3 5e-3 -0.014 6e-3 -0.021 0.112-0.327 0.225-0.647 0.337-0.977 0.1 0.329 0.202 0.65 0.302 0.977 1e-3 0.01 6e-3 0.021 8e-3 0.03 7e-3 0.025 0.018 0.057 0.052 0.057h0.026c0.023 0 0.032-0.02 0.032-0.042 0-0.023-0.016-0.045-0.017-0.051h1e-3c-0.042-0.138-0.311-0.99-0.353-1.127-0.011-0.025-0.03-0.038-0.055-0.038h-0.026c-0.026 0-0.047 0.019-0.055 0.038-0.124 0.365-0.26 0.759-0.385 1.123-4e-3 0.017-6e-3 0.02-8e-3 0.023-1e-3 4e-3 -1e-3 6e-3 -3e-3 9e-3 -5e-3 8e-3 -6e-3 0.016-6e-3 0.023 0 0.021 0.013 0.042 0.036 0.042l0.074-4e-3z" fill="#fff"/>
   </g>
   <g transform="translate(227.56 736.79)">
    <path d="m0 0c-5e-3 0-8e-3 -3e-3 -8e-3 -9e-3v-0.486c0-6e-3 3e-3 -0.012 8e-3 -0.012h0.489c0.022 0 0.038 2e-3 0.052 8e-3 0.014 5e-3 0.026 8e-3 0.04 8e-3 0.025 0 0.048-0.01 0.05-0.036 1e-3 -7e-3 1e-3 -0.015 1e-3 -0.022 0-0.028-8e-3 -0.052-0.033-0.052h-0.681c-0.039 0-0.054 0.039-0.054 0.072v1.103 7e-3c0 0.033 0.019 0.066 0.054 0.066h0.651c0.027 0 0.035-0.021 0.035-0.05 0-7e-3 0-0.015-3e-3 -0.023-3e-3 -0.023-0.027-0.033-0.052-0.033-0.013 0-0.027 3e-3 -0.038 7e-3h3e-3c-0.01 1e-3 -0.021 3e-3 -0.033 3e-3h-0.481c-5e-3 0-8e-3 -5e-3 -8e-3 -0.01v-0.433c0-6e-3 3e-3 -0.011 8e-3 -0.011h0.437c3e-3 0 5e-3 1e-3 0.013 1e-3h0.01c0.031 0 0.062-7e-3 0.062-0.043v-0.011c0-0.032-0.033-0.044-0.064-0.044h-0.016-0.442z" fill="#fff"/>
   </g>
   <g transform="translate(228.7 736.33)">
    <path d="m0 0c-0.043 0.075-0.054 0.133-0.054 0.294v0.717c0 0.012 0 0.023-2e-3 0.033v0.012c0 0.028 0.018 0.05 0.046 0.05h0.039c0.031 0 0.05-0.022 0.05-0.05 0-4e-3 -2e-3 -7e-3 -2e-3 -0.012-2e-3 -0.01-2e-3 -0.021-2e-3 -0.033v-0.718c0-0.113 7e-3 -0.179 0.024-0.229 0.02-0.055 0.085-0.099 0.156-0.109h0.016c0.09 0 0.186 0.06 0.249 0.133h-1e-3c6e-3 0.01 0.016 0.017 0.027 0.017 0.02 0 0.039-0.019 0.039-0.043v-0.053c0-0.035-0.043-0.048-0.068-0.067-5e-3 -4e-3 -0.01-6e-3 -0.019-0.011h1e-3c-0.057-0.041-0.167-0.076-0.25-0.076-0.014 0-0.027 0-0.041 3e-3 -0.089 0.019-0.164 0.062-0.208 0.142" fill="#fff"/>
   </g>
   <g transform="translate(222.79 735.57)">
    <path d="m0 0 0.059-0.013c-0.028-0.113-0.092-0.171-0.191-0.171-0.066 0-0.118 0.027-0.155 0.08-0.037 0.052-0.055 0.118-0.055 0.194 0 0.08 0.02 0.143 0.058 0.191 0.039 0.049 0.091 0.072 0.157 0.072 0.097 0 0.158-0.054 0.186-0.166l-0.06-0.011c-0.023 0.082-0.066 0.123-0.127 0.123-0.046 0-0.082-0.02-0.107-0.057-0.024-0.039-0.038-0.093-0.038-0.16 0-0.065 0.014-0.115 0.039-0.153 0.026-0.039 0.06-0.057 0.103-0.057 0.066 0 0.11 0.043 0.131 0.128" fill="#fff"/>
   </g>
   <g transform="translate(223.91 735.4)">
    <path d="m0 0h-0.064v0.247h-0.239v-0.247h-0.065v0.518h0.065v-0.214h0.239v0.214h0.064v-0.518z" fill="#fff"/>
   </g>
   <g transform="translate(224.88 735.6)">
    <path d="m0 0-0.08 0.249-0.08-0.249h0.16zm0.131-0.2h-0.066l-0.051 0.151h-0.191l-0.047-0.151h-0.054l0.167 0.517h0.074l0.168-0.517z" fill="#fff"/>
   </g>
   <g transform="translate(226.08 735.4)">
    <path d="m0 0h-0.063l-0.268 0.45 1e-3 -0.032c1e-3 -0.014 1e-3 -0.024 1e-3 -0.033v-0.385h-0.052v0.518h0.081l0.25-0.421-1e-3 0.036c-1e-3 0.013-1e-3 0.026-1e-3 0.037v0.348h0.052v-0.518z" fill="#fff"/>
   </g>
   <g transform="translate(227.21 735.4)">
    <path d="m0 0h-0.063l-0.267 0.45 2e-3 -0.032v-0.033-0.385h-0.052v0.518h0.081l0.25-0.421-2e-3 0.036v0.037 0.348h0.051v-0.518z" fill="#fff"/>
   </g>
   <g transform="translate(228.29 735.46)">
    <path d="m0 0v-0.058h-0.333v0.518h0.326v-0.057h-0.263v-0.164h0.209v-0.052h-0.209v-0.187h0.27z" fill="#fff"/>
   </g>
   <g transform="translate(229.3 735.46)">
    <path d="m0 0v-0.058h-0.305v0.518h0.066v-0.46h0.239z" fill="#fff"/>
   </g>
   <g transform="translate(230.97 732.51)">
    <path d="m0 0h0.086c0.023 0 0.039 6e-3 0.051 0.017 0.011 0.011 0.016 0.025 0.016 0.043 0 0.015-5e-3 0.029-0.017 0.039-0.012 8e-3 -0.027 0.012-0.044 0.012h-0.092v-0.111zm0.211-0.183h-0.055l-0.064 0.143h-0.092v-0.143h-0.05v0.336h0.142c0.038 0 0.067-0.01 0.085-0.03 0.019-0.019 0.03-0.041 0.03-0.065 0-0.017-6e-3 -0.035-0.016-0.051-0.011-0.017-0.027-0.028-0.05-0.035l0.07-0.155zm0.112 0.169c0 0.068-0.024 0.125-0.074 0.175-0.047 0.048-0.106 0.071-0.175 0.071-0.068 0-0.126-0.023-0.175-0.071-0.047-0.05-0.071-0.107-0.071-0.175 0-0.069 0.023-0.127 0.071-0.174 0.049-0.05 0.107-0.074 0.175-0.074 0.069 0 0.128 0.024 0.175 0.074 0.049 0.047 0.074 0.105 0.074 0.174m0.041 0c0-0.079-0.03-0.148-0.085-0.204-0.058-0.056-0.126-0.085-0.205-0.085-0.078 0-0.147 0.029-0.203 0.085-0.057 0.056-0.085 0.125-0.085 0.204 0 0.078 0.028 0.147 0.085 0.203 0.056 0.057 0.125 0.085 0.203 0.085 0.079 0 0.147-0.028 0.205-0.085 0.055-0.056 0.085-0.125 0.085-0.203" fill="#fff"/>
   </g>
  </g>
 </g>
</svg>
