<svg width="211.67mm" height="211.67mm" version="1.1" viewBox="0 0 211.67 211.67" xmlns="http://www.w3.org/2000/svg">
 <path d="m165.59 106.21c0 34.884-23.912 60.895-59.005 60.895-35.092 0-61.273-26.011-61.273-60.895-1e-6 -34.884 25.424-61.651 60.517-61.651 35.092 3e-6 59.761 26.767 59.761 61.651z" fill="#fff" stroke="#fff" stroke-width=".34495"/>
 <g transform="translate(355.3 22.012)">
  <g transform="matrix(.46354 0 0 .46354 -579.6 -32.917)">
   <g transform="rotate(-3 712.22 251.84)">
    <path d="m712.22 23.531c-30.963 0-60.482 6.1767-87.406 17.344l38.062 91.844c15.199-6.3014 31.866-9.8125 49.344-9.8125 17.467 0 34.121 3.5182 49.312 9.8125l38.062-91.875c-26.914-11.157-56.426-17.312-87.375-17.312z" fill="#8ec244"/>
    <path d="m501.22 164.47c-11.158 26.915-17.312 56.425-17.312 87.375s6.1544 60.46 17.312 87.375l91.875-38.031c-6.3014-15.199-9.8125-31.866-9.8125-49.344s3.5112-34.145 9.8125-49.344z" fill="#229ed4"/>
    <path d="m923.19 164.47-91.844 38.031c6.3014 15.199 9.7812 31.866 9.7812 49.344s-3.4799 34.145-9.7812 49.344l91.844 38.031c11.16-26.917 17.344-56.422 17.344-87.375s-6.1837-60.458-17.344-87.375z" fill="#8ec244"/>
    <path d="m662.84 370.97-38.031 91.844c26.924 11.167 56.443 17.344 87.406 17.344 30.953 0 60.458-6.1837 87.375-17.344l-38.031-91.844c-15.199 6.3014-31.866 9.7812-49.344 9.7812-17.488 0-34.169-3.4729-49.375-9.7812z" fill="#229ed4"/>
    <path d="m799.59 40.844-38.062 91.875c31.533 13.065 56.74 38.252 69.812 69.781l91.844-38.031c-23.145-55.824-67.768-100.48-123.59-123.62z" fill="#b2ce3b"/>
    <path d="m624.81 40.875c-55.811 23.148-100.45 67.778-123.59 123.59l91.875 38.031c13.068-31.52 38.261-56.713 69.781-69.781z" fill="#2ea86f"/>
    <path d="m593.09 301.19-91.875 38.031c23.139 55.815 67.783 100.45 123.59 123.59l38.031-91.844c-31.508-13.071-56.685-38.27-69.75-69.781z" fill="#207ab8"/>
    <path d="m831.34 301.19c-13.068 31.52-38.261 56.713-69.781 69.781l38.031 91.844c55.821-23.144 100.45-67.773 123.59-123.59z" fill="#2ea86f"/>
   </g>
  </g>
  <g transform="matrix(.29506 0 0 .23725 -355.3 -22.012)" stroke-width="4.3274" style="font-feature-settings:normal;font-variant-caps:normal;font-variant-ligatures:normal;font-variant-numeric:normal" aria-label="24">
   <path d="m359.03 503.52v52.274h-148.99c0.96669-22.126 4.4747-35.715 14.172-52.486 7.8732-13.089 24.031-30.486 46.648-47.502 18.699-17.419 28.371-24.768 32.602-30.968 11.642-24.562-0.36731-40.602-17.693-40.795-24.233 2.9644-24.486 16.77-25.937 40.497h-44.921c-0.57933-44.758 10.186-63.425 23.177-73.365 12.991-9.9398 29.229-14.91 48.715-14.91 21.356 0 38.136 3.5269 50.339 15.041s21.892 30.295 21.892 47.419c0 9.743-1.7715 25.734-5.3144 34.592-17.407 35.586-48.466 44.614-72.231 70.204z"/>
   <path d="m450.63 555.8v-45.779l-81.399 1.2e-4v-51.928l83.127-119.59h47.393v123.91h21.487v47.614h-21.487v45.779zm0-93.393 3.5e-4 -67.268-42.575 67.267z"/>
  </g>
 </g>
</svg>
