<svg width="600" height="600" version="1.1" viewBox="0 0 158.75 158.75" xmlns="http://www.w3.org/2000/svg">
 <path d="m158.75 79.375a79.374 80.276 0 0 1-79.374 80.276 79.374 80.276 0 0 1-79.374-80.276 79.374 80.276 0 0 1 79.374-80.276 79.374 80.276 0 0 1 79.374 80.276z" fill="#f47442" fill-rule="evenodd"/>
 <g transform="translate(-55.94 -43.758)">
  <path d="m110.99 117.03c-4.2371 0.21134-7.5444 7.8086-7.5444 7.8086-0.66568-5.727-2.7156-7.1218-4.6598-6.9316h-0.01057c-0.0634 0.0106-0.11623 0.0106-0.17963 0.0211-3.2862 0.42266-5.0191 3.2122-7.8192 8.1678 0 0-0.29586-1.1623-0.64455-3.1805-0.2219-1.3314-1.4899-1.4265-2.3669-0.99325-1.2574 0.49662-1.0883 1.3948-0.65512 4.6175 0.08453 0.68681 0.20076 1.5427 0.33813 2.6416 0.44379 3.508 3.0854 2.9692 4.0575 1.4899 0.97211-1.4899 2.3563-6.287 4.4379-8.823 4.459-5.41 3.1488 7.0161 3.5926 12.109 0.23246 2.6627 1.2468 3.2439 2.1767 2.9163 1.0355-0.39095 1.5321-1.7963 1.8491-3.5714 0.41209-2.779 1.1834-5.0402 3.0114-9.3724 0.53889-1.1095 1.1306-2.1661 1.8069-2.9797 4.459-5.4206 3.1382 7.0055 3.5926 12.099 0.44379 5.1036 3.7405 2.5782 3.8884 0.64455 1.1412-14.423-2.0499-17.118-4.8711-16.663" fill="#fff"/>
  <path d="m130.03 117.33c-3.1911 0.28529-5.4206 3.8567-7.4493 7.6924 0 0-0.27473-1.0989-0.59172-2.9903-0.20076-1.1412-1.2046-1.3208-1.9971-1.0355-1.4582 0.48606-1.2891 0.88758-0.91927 3.8673 0.0845 0.71852 0.21132 1.6906 0.39095 3.0537 0.41209 3.2862 2.8952 2.7895 3.8039 1.3948 0.91928-1.3948 2.219-5.8961 4.1737-8.2841 4.1843-5.0824 2.9586 6.5829 3.3707 11.369 0.42265 4.7972 3.5186 2.4197 3.6666 0.60228 1.0461-13.314-1.8386-15.987-4.4485-15.67" fill="#fff"/>
  <path d="m129 112.08c-0.94041 0.26416-3.0431 1.3419-4.1209 2.2295-0.46492 0.35926-0.47549 1.0461-0.48605 1.1095-0.0106 0.0634-0.11623 0.0845-0.1268 0-0.0317-0.48606-0.16906-0.72909-0.26416-0.83475-1.0778-1.0144-3.413-2.5465-4.8077-2.9269-1.5955-0.44379-2.2718-0.51775-0.33813 1.0461 1.6589 1.3419 3.4658 2.9163 4.3534 3.6032 0.22189 0.16906 0.48605 0.45435 0.98268 0.45435 0.49662 0 0.79248-0.24302 1.0461-0.40151 0.92985-0.61286 2.9058-1.9865 4.0469-3.2122 1.3525-1.4476 0.92985-1.4053-0.28529-1.0672" fill="#f5f686"/>
  <path d="m178.38 116.2c-3.9835 0.20076-7.0795 7.3754-7.0795 7.3754-0.62342-5.41-2.5571-6.7308-4.3745-6.5512h-0.0106c-0.0528 0.0106-0.10567 0.0211-0.1585 0.0211-3.0854 0.40153-4.7126 3.0326-7.3437 7.7241 0 0-0.27472-1.1095-0.60228-3.0114-0.21133-1.2574-1.4053-1.342-2.219-0.94042-1.1834 0.47549-1.025 1.3208-0.61286 4.3639 0.074 0.64456 0.17963 1.4582 0.317 2.4937 0.41209 3.3073 2.8846 2.8107 3.8039 1.4053 0.90871-1.4053 2.2084-5.9278 4.1632-8.3263 4.1843-5.1142 2.948 6.6146 3.3707 11.433 0.2219 2.5148 1.1729 3.0643 2.0499 2.7473 0.96155-0.36983 1.4265-1.6906 1.7329-3.3601 0.36983-2.6416 1.1095-4.7654 2.8107-8.8547 0.50719-1.0461 1.0778-2.0499 1.7118-2.8212 4.1737-5.1142 2.9375 6.6146 3.3601 11.433 0.42266 4.8077 3.508 2.4303 3.656 0.60228 1.0672-13.62-1.9336-16.167-4.5753-15.733" fill="#fff"/>
  <path d="m148.23 127.46c-0.84531 1.6695-2.1027 3.4235-3.2016 4.7655-2.8107 3.413-3.1805-0.70796-3.2439-5.2304 0.0528-6.53 3.4446-10.376 6.1919-4.9451 0.0317 0.0528 0.0528 0.10566 0.074 0.15849 0.0106 0.0106 0.0106 0.0211 0.0211 0.0317 1.0038 2.1344 0.65512 4.1209 0.1585 5.2198m5.3044 2.0182c-0.13737-1.5216-0.40153-3.3918-0.73965-4.7232v-0.0106c-0.42266-1.9442-1.0989-4.0152-2.2084-5.5791-4.5964-5.9383-13.409-2.3352-12.796 7.2169 0 0-0.0106 0-0.0106 0.0106 0.27473 13.462 6.5406 9.1928 8.0622 7.5339 3.5926-3.9307 4.0469-5.6847 4.0469-5.6847s0.17963 2.948 0.88758 3.6771c0.52832 0.66569 1.585 0.52832 2.219 0.0634 0.42266-0.30643 0.64455-0.60228 0.61285-1.585 0 0-0.0317-0.59172-0.074-0.91928" fill="#fff"/>
  <path d="m181.26 85.583-0.0423-0.05283c-10.894-13.335-27.473-21.841-46.048-21.841-32.83 0-59.436 26.606-59.436 59.436s26.606 59.447 59.436 59.447 59.447-26.617 59.447-59.447c0-4.4696-0.51775-8.823-1.4265-13.028-0.0528-0.21132-0.0951-0.42265-0.14793-0.63397-0.0106-0.0423-0.0211-0.074-0.0317-0.11624" fill="none"/>
  <path d="m185.4 94.949c0 0.34869 0.0951 0.61285 0.28529 0.84531 1.6484 2.4725 2.5148 4.0258 3.6348 6.8682 0.45436 0.91928 2.0922 0.97211 2.5994 0.0211 0.0634-0.11623 0.10566-0.26416 0.15849-0.39096 0.0106-0.0528 0.0317-0.0845 0.0423-0.13736 0.22189-0.61285 0.57058-1.5216 0.83475-2.1344l0.33812-0.78191c0.0317-0.08453 0.0634-0.16906 0.10567-0.25359 0.074-0.16906 0.14793-0.33812 0.23246-0.50719l0.16906-0.38039c0.0317-0.04227 0.0423-0.08453 0.0634-0.1268s0.0423-0.08453 0.0634-0.1268l0.61285-1.2363c0.0951-0.1902 0.24303-0.43322 0.29586-0.63398 0.0211-0.0951 0.0423-0.17963 0.0528-0.27473v-0.1902c-0.0317-0.38039-0.23246-0.72908-0.56002-0.97211-0.0528-0.04227-0.13736-0.0951-0.20076-0.11623-0.1902-0.08453-0.34869-0.1268-0.59172-0.1268-0.13736 0-0.29586 0.0317-0.39096 0.07397-0.22189 0.07397-0.41209 0.20076-0.57059 0.36982-0.074 0.08454-0.12679 0.1902-0.19019 0.28529-0.0528 0.10566-0.0951 0.21133-0.14793 0.30643-0.0845 0.14793-0.43323 0.84531-0.50719 1.0249-0.0211 0.02113-0.0317 0.04227-0.0423 0.07397-0.0317 0.05283-0.0528 0.10566-0.074 0.1585-0.0528 0.10566-0.10567 0.21133-0.1585 0.32756-0.0634 0.1585-0.14793 0.30643-0.22189 0.47549-0.0106 0.0317-0.0211 0.05283-0.0317 0.08453l-0.17963 0.40152c-0.0951 0.2219-0.20076 0.44379-0.29586 0.65512-0.0423 0.10566-0.10567 0.2219-0.13736 0.33813h-0.0211c-0.0106-0.07397-0.32756-0.68682-0.36982-0.76078-0.57059-0.92985-1.1095-1.902-1.6906-2.8424-0.14793-0.22189-0.29586-0.45436-0.45436-0.67625-0.15849-0.21133-0.29586-0.44379-0.50719-0.62342-0.36982-0.31699-0.90871-0.38039-1.3631-0.1902-0.45436 0.20076-0.78192 0.66568-0.78192 1.1729" fill="#fff" fill-rule="evenodd"/>
  <path d="m178.9 94.967c0 0.31699 0.0845 0.60229 0.29586 0.81362 0.0634 0.08453 0.074 0.0951 0.16906 0.16906 0.14793 0.10566 0.41209 0.21133 0.60229 0.20076l0.45436-0.01057c0.074 0 0.11623-0.01057 0.19019-0.02113 0.0106 0.47549-0.0106 0.94041-0.0106 1.4053 0.0106 0.0951 0 2.1661 0.0106 2.2823 0.0211 0.14793 0 0.32756 0.0211 0.48605v0.24303l0.0423 0.46492c0.0317 0.24303 0.0423 0.38039 0.1268 0.61286 0.51775 1.1834 2.3352 2.7367 3.2756 1.268 0.61285-0.9721-0.45436-1.7329-0.60229-2.2189-0.24302-0.81362-0.12679-2.5042-0.12679-3.1594 0-0.0634 0.0106-0.10566 0.0106-0.17963v-0.48606c0-0.04227 0.0106-0.04227 0.0106-0.0951 0-0.11623-0.0106-0.2536-0.0106-0.38039 0-0.1268 0.0106-0.24303 0.0106-0.38039 0.29586-0.01057 0.48605 0.01057 0.76078-0.11623 0.2219-0.10566 0.46492-0.36982 0.56002-0.60229 0.17963-0.43322 0.1268-0.91928-0.17963-1.268-0.0528-0.0634-0.0211-0.04227-0.0951-0.10566-0.0211-0.01057-0.0317-0.02113-0.0423-0.0317-0.1902-0.1585-0.47549-0.25359-0.72908-0.24303l-0.24303 0.01057v-0.59172c-0.0106-1.1412-0.0423-2.4725-1.3842-2.4408-1.3525 0.0317-1.3631 1.5638-1.3736 2.6099l0.0106 0.33813c-0.0317 0.28529 0.10566 0.22189-0.44379 0.24303-0.44379 0.01057-0.81362 0.10566-1.0884 0.49662-0.12679 0.20076-0.22189 0.43322-0.22189 0.68682" fill="#fff" fill-rule="evenodd"/>
 </g>
</svg>
