<?xml version="1.0" encoding="UTF-8" standalone="no"?>
<svg xmlns:rdf="http://www.w3.org/1999/02/22-rdf-syntax-ns#" xmlns="http://www.w3.org/2000/svg" version="1.1" xml:space="preserve" height="341.1" width="600" enable-background="new 0.2 46.1 212.2 120.6" y="0px" x="0px" xmlns:cc="http://creativecommons.org/ns#" xmlns:xlink="http://www.w3.org/1999/xlink" viewBox="0.2 46.1 600.00001 341.09385" xmlns:dc="http://purl.org/dc/elements/1.1/"><g stroke-width="2.8274"><path d="m215.25 344.5c-1.7 0-3.39 1.7-3.39 3.39 0 1.98 1.69 3.4 3.39 3.4s3.39-1.7 3.39-3.4c0-1.69-1.69-3.39-3.39-3.39z" fill="#112d5d"/><path d="m183.3 254.59c0 16.4-0.28 53.44 0 56.83 0.28 4.52 3.39 8.2 7.92 8.48 7.07 0 16.68 0.29 20.92-0.28 7.07-0.28 7.63-8.48 7.63-8.48l0.29-120.17s0.28-6.22-6.22-5.93c-4.25 0.28-15.55 0.28-22.91 0-4.24 0-7.06 0.28-11.59 6.22-3.67 4.52-30.82 41.56-42.97 58.52-3.68 5.09-5.94-0.28-5.94-0.28v-58.81s1.13-5.37-7.07-5.37h-22.34c-3.956 0-7.631 1.13-13.003 8.2-4.241 5.65-63.051 85.95-84.822 115.36-5.0895 6.78-3.393 11.02 2.8271 11.02h27.426c5.938 0 8.765-2.26 11.592-6.5 11.875-16.4 42.411-57.4 43.542-59.38 1.697-2.26 5.09-4.24 5.09 0.29-0.283 16.4-0.566 54.28 0 58.81 0.565 5.65 2.827 7.07 6.498 7.07 8.2 0 22.06 0.28 24.89 0 4.24-0.29 6.22-1.7 8.2-4.25 10.17-14.13 41.56-56.83 45.52-61.63 3.95-6.22 4.52-4.24 4.52 0.28z" fill="#154382"/><path d="m363.12 313.4v-121.86s-0.28-6.22-7.07-5.94h-22.33c-3.68 0-6.22 1.42-6.51 7.35-0.28 4.53-0.28 41 0 57.68 0 3.39-2.54 4.24-4.8 1.7-1.7-2.26-33.65-46.09-44.96-61.36-2.26-3.11-3.96-5.37-9.33-5.09-3.39 0.29-14.98 0.29-22.9 0-4.52 0-7.63 2.27-7.92 9.33-0.28 6.23-0.28 91.61-0.28 117.62 0 4.81 1.7 7.07 7.07 7.64 3.67 0.28 16.12 0.28 23.75 0.28 3.39 0 5.65-1.7 5.65-7.07 0.29-5.37 0-66.16 0-66.16s44.11 60.79 48.92 66.73c4.8 5.94 7.63 6.5 11.31 6.5 7.07 0 18.38 0.28 22.9 0 6.79-0.85 6.5-7.35 6.5-7.35z" fill="#d31e23"/></g><g stroke-width="2.8274" fill="#112d5d"><path d="m132.97 355.81c-2.82 0-5.65 0.85-7.63 2.26-1.7-1.69-4.24-2.26-6.79-2.26-3.11 0-5.93 0.57-9.04 1.7-1.42 0.56-2.27 1.69-2.27 3.11v23.18c0 1.7 1.13 2.83 2.83 2.83s2.83-1.13 2.83-2.83v-21.77c1.69-0.56 3.67-0.85 5.65-0.85s4.24 1.13 4.24 3.11v19.51c0 1.7 1.13 2.83 2.83 2.83s2.83-1.13 2.83-2.83v-21.2c1.41-1.13 3.11-1.42 5.09-1.42 2.54 0 4.8 2.27 4.8 5.09v17.82c0 1.69 1.14 2.82 2.83 2.82 1.7 0 2.83-1.13 2.83-2.82v-17.53c-0.85-5.94-5.37-10.75-11.03-10.75z"/><path d="m172.27 355.81c-1.69 0-2.82 1.13-2.82 2.83v22.05c-1.7 0.28-3.68 0.85-5.38 0.85-3.67 0-5.65-1.98-5.65-5.65v-17.25c0-1.7-1.13-2.83-2.83-2.83-1.69 0-2.83 1.13-2.83 2.83v16.96c0 6.79 4.25 11.03 11.03 11.03 3.11 0 5.66-0.28 8.77-1.41 1.41-0.29 2.26-1.7 2.26-3.4v-23.18c0-1.42-1.13-2.83-2.55-2.83z"/><path d="m196.87 369.1-5.09-2.26c-1.13-0.28-2.26-1.13-2.26-3.11 0-3.11 3.68-3.11 3.96-3.11 1.98 0 3.67 0.28 5.65 1.13 0.29 0.28 0.85 0.28 1.13 0.28 1.7 0 2.83-1.13 2.83-2.54 0-1.13-0.56-2.27-1.69-2.55-2.27-1.13-4.53-1.41-7.07-1.41-5.66 0-9.9 3.67-9.9 8.48 0 3.68 1.7 6.22 5.37 7.92l5.09 2.26c2.26 1.13 3.11 1.98 3.11 3.67 0 2.27-1.98 3.11-3.96 3.11-1.69 0-3.67-0.28-5.65-1.41-0.28-0.28-0.57-0.28-1.13-0.28-1.7 0-2.83 1.13-2.83 2.83 0 1.13 0.57 1.98 1.7 2.54 2.26 1.13 5.09 1.7 7.63 1.7 5.66 0 9.61-3.96 9.61-9.05-0.56-3.39-2.54-6.5-6.5-8.2z"/><path d="m215.25 355.81c-1.7 0-2.83 1.13-2.83 2.83v25.16c0 1.7 1.13 2.83 2.83 2.83s2.83-1.13 2.83-2.83v-25.16c0-1.42-1.13-2.83-2.83-2.83z"/><path d="m238.72 361.18c1.69 0 3.39 0.29 5.37 1.42 1.98 0.85 3.96-0.57 3.96-2.27 0-1.13-0.57-1.97-1.7-2.26-2.26-1.13-5.09-1.69-7.63-1.69-6.51 0-11.03 4.24-11.03 11.02v8.77c0 6.5 4.24 11.03 11.03 11.03 2.82 0 5.37-0.57 7.63-1.7 1.13-0.28 1.7-1.41 1.7-2.26 0-1.42-1.13-2.83-2.83-2.83-0.57 0-1.13 0.28-1.13 0.28-1.7 0.85-3.68 1.42-5.09 1.42-3.68 0-5.65-1.98-5.65-5.66v-9.05c0-4.24 1.97-6.22 5.37-6.22z"/><path d="m283.96 355.81c-3.11 0-6.22 0.85-8.77 2.26-0.85 0.57-1.41 1.42-1.41 2.26 0 1.7 1.13 2.83 2.82 2.83 0.57 0 1.14-0.28 1.42-0.28 2.26-1.13 3.96-1.7 5.94-1.7 1.69 0 5.08 0.29 5.08 4.24v2.55h-5.37c-3.67 0-6.5 0.85-8.2 2.26-1.69 1.7-2.82 3.96-2.82 6.79 0 2.82 1.13 5.09 2.82 7.07 1.98 1.69 4.81 2.54 8.2 2.54 2.83 0 5.66-0.28 8.77-1.41 1.41-0.29 2.26-1.7 2.26-3.4v-16.68c0-5.65-4.24-9.33-10.74-9.33zm-0.57 17.25h5.37v7.63c-1.69 0.28-3.67 0.85-5.37 0.85-4.81 0-5.65-2.26-5.65-4.24 0.28-1.98 1.13-4.24 5.65-4.24z"/><path d="m307.42 386.63c1.7 0 2.83-1.13 2.83-2.83v-22.05c1.7-0.28 3.68-0.85 5.66-0.85 3.39 0 5.37 1.98 5.37 5.66v17.24c0 1.7 1.13 2.83 2.82 2.83 1.7 0 2.83-1.13 2.83-2.83v-16.96c0-6.51-4.24-11.03-11.02-11.03-3.12 0-6.23 0.28-8.77 1.41-1.41 0.57-2.26 1.7-2.26 3.4v23.18c-0.28 1.7 0.85 2.83 2.54 2.83z"/><path d="m346.44 386.63c3.11 0 5.66-0.28 8.77-1.41 1.41-0.29 2.26-1.7 2.26-3.4v-34.49c0-1.7-1.13-2.83-2.83-2.83s-2.83 1.13-2.83 2.83v9.61c-1.69-0.85-3.67-1.13-5.65-1.13-6.79 0-11.03 4.24-11.03 11.03v8.76c0.28 6.51 4.81 11.03 11.31 11.03zm0-25.45c2.26 0 4.24 0.57 5.66 1.7v17.81c-1.7 0.28-3.68 0.85-5.66 0.85-3.39 0-5.65-1.98-5.65-5.65v-9.05c0.28-3.68 2.26-5.66 5.65-5.66z"/><path d="m388.57 386.63c1.7 0 2.83-1.13 2.83-2.83v-21.77c1.69-0.56 3.67-0.85 5.65-0.85s4.24 1.13 4.24 3.11v19.51c0 1.7 1.13 2.83 2.83 2.83s2.83-1.13 2.83-2.83v-21.2c1.41-1.13 3.11-1.42 5.09-1.42 2.54 0 4.8 2.27 4.8 5.09v17.82c0 1.69 1.13 2.82 2.83 2.82s2.83-1.13 2.83-2.82v-17.53c0-5.66-4.81-10.47-10.46-10.47-2.83 0-5.66 0.85-7.64 2.27-1.69-1.7-4.24-2.27-6.78-2.27-3.11 0-5.94 0.57-9.05 1.7-1.41 0.57-2.26 1.7-2.26 3.11v23.19c-0.29 1.41 0.85 2.54 2.26 2.54z"/><path d="m453.88 375.04v-7.64c0-7.07-4.52-11.59-11.59-11.59s-11.59 4.81-11.59 11.59v7.64c0 7.07 4.52 11.59 11.59 11.59s11.59-4.81 11.59-11.59zm-11.31-13.86c3.68 0 5.94 2.27 5.94 6.22v8.2c0 3.68-2.26 6.22-5.94 6.22-3.67 0-5.93-2.26-5.93-6.22v-8.2c0-4.24 1.97-6.22 5.93-6.22z"/><path d="m468.58 364.29c0-1.69 1.14-3.11 2.55-3.11 0.85 0 1.7 0 2.54 0.29h0.29c0.28 0 0.56 0.28 0.84 0.28 1.7 0 2.83-1.13 2.83-2.83 0-1.41-1.13-2.54-2.26-2.83-1.7-0.28-2.83-0.28-4.24-0.28-4.81 0-8.2 3.68-8.2 8.48v19.51c0 1.7 1.13 2.83 2.83 2.83 1.69 0 2.82-1.13 2.82-2.83z"/><path d="m494.31 386.63c3.11 0 5.66-0.57 8.2-1.7 1.13-0.28 1.7-1.41 1.7-2.26 0-1.7-1.13-2.83-2.83-2.83-0.28 0-0.85 0.29-1.13 0.29-2.26 1.13-4.24 1.41-5.94 1.41-3.39 0-5.65-2.26-5.65-5.65v-2.27h13.01c1.97 0 3.67-1.69 3.67-3.67v-3.11c0-6.51-4.24-11.03-11.03-11.03-6.5 0-11.02 4.24-11.02 11.03v8.76c-0.29 6.51 4.52 11.03 11.02 11.03zm0-25.45c3.4 0 5.66 1.98 5.66 5.66v1.41h-11.03v-1.41c-0.28-3.68 1.98-5.66 5.37-5.66z"/></g><path d="m421.31 153.84c3.34 4.86 23.52 32.4 23.52 32.4s6.19 8.98 6.33-3.19c0.08-9.01 0.07-30.17 0.03-40.57-0.01-3.68 1.56-6.34 5.75-7.89 4.14-1.56 41.01-13.3 41.01-13.3s8.77-2.94-0.67-6.01c-7.02-2.29-28.89-9.41-39.76-12.97-3.8-1.24-6.28-4.256-6.25-9.181 0.01-4.907 0.03-40.571 0.03-40.571s1.39-12.896-6.24-2.247c-5.65 7.843-18.36 25.242-24.58 33.797-2.21 3.016-5.28 4.375-9.77 2.938-4.49-1.447-38.67-12.618-38.67-12.618s-11.96-5.355-4.36 5.369c5.85 8.276 19.3 26.713 25.12 34.693 1.75 2.36 2.25 4.5-0.18 7.85-2.44 3.34-24.48 33.61-24.48 33.61s-8.56 10.01 3.17 6.35c8.73-2.69 29.43-9.45 39.63-12.76 3.57-1.19 7.06-0.54 10.37 4.3z" fill="#0098cc"/><path d="m598.88 312.16s-81.74-110.83-87.53-119.34c-5.82-8.52-11.81-7.48-11.81-7.48l-22.49-0.02s-7.63-0.94-7.62 8.79c0 7.11 0.01 38.31 0.01 54.57-0.03 4.17-3.43 5.04-5.92 1.92-2.01-2.55-32.67-44.49-43.8-59.75-1.67-2.28-5.65-5.44-10.97-5.53-3.54-0.03-15.68-0.03-23.27-0.01-3.67-0.01-6.33 3.71-6.28 9.42 0.04 4.84 0.01 91.65 0 118.06-0.01 4.78 2.68 7.63 6.48 7.64 7.33 0.06 18.87 0.12 23.38-0.06 6.81-0.3 6.62-7.81 6.62-7.81l-0.02-58.82s1.63-4.53 4.3-0.88c11.02 15.14 39.98 54.81 44.34 60.49 5.41 7.06 7.96 7.01 11.93 7.06 8.05 0.05 20.72 0.12 23.85-0.08 4.75-0.26 5.81-4.18 5.82-7.6 0.06-15.01 0.16-47.83 0-57.1-0.26-12.14 5.23-1.42 5.23-1.42s36.06 49.07 41.72 56.93c5.6 7.86 9.89 9.3 14.45 9.38 7.93 0.16 19.94 0.27 26.47-0.23 10.34-0.74 5.11-8.13 5.11-8.13z" fill="#0098cc"/></svg>
