<svg version="1.1" viewBox="0 0 600.01 348.4" xmlns="http://www.w3.org/2000/svg" xmlns:xlink="http://www.w3.org/1999/xlink">
 <defs>
  <linearGradient id="a">
   <stop stop-color="#797925" offset="0"/>
   <stop stop-color="#486331" offset=".4445"/>
   <stop stop-color="#104b40" offset="1"/>
  </linearGradient>
  <linearGradient id="h" x1="-7.447" x2="394.4" y1="-62.164" y2="61.268" gradientTransform="matrix(1.0854 0 0 1.0854 -927.13 183.46)" gradientUnits="userSpaceOnUse">
   <stop stop-color="#0b4743" offset="0"/>
   <stop stop-color="#094743" offset=".14312"/>
   <stop stop-color="#566a2d" offset=".92172"/>
   <stop stop-color="#0a4a3e" offset="1"/>
  </linearGradient>
  <linearGradient id="g" x1="47.878" x2="508.49" y1="-16.844" y2="94.025" gradientTransform="matrix(1.0854 0 0 1.0854 -927.13 183.46)" gradientUnits="userSpaceOnUse">
   <stop stop-color="#05483c" offset="0"/>
   <stop stop-color="#0b4842" offset=".28064"/>
   <stop stop-color="#c89e11" offset=".90096"/>
   <stop stop-color="#c89e11" offset="1"/>
  </linearGradient>
  <linearGradient id="f" x1="-155.33" x2="-178.08" y1="-576.74" y2="-798.06" gradientTransform="matrix(1.0854 0 0 1.0854 -647.24 1185.4)" gradientUnits="userSpaceOnUse">
   <stop stop-color="#797925" offset="0"/>
   <stop stop-color="#486331" offset=".46281"/>
   <stop stop-color="#104b40" offset="1"/>
  </linearGradient>
  <linearGradient id="e" x1="-152.5" x2="66.582" y1="-671.49" y2="-717.45" gradientTransform="matrix(1.0854 0 0 1.0854 -647.65 1185.4)" gradientUnits="userSpaceOnUse" xlink:href="#a"/>
  <linearGradient id="d" x1="-152.5" x2="66.582" y1="-671.49" y2="-717.45" gradientTransform="matrix(1.0854 0 0 1.0854 -648.39 1185.4)" gradientUnits="userSpaceOnUse" xlink:href="#a"/>
  <linearGradient id="c" x1="190.23" x2="208" y1="-448.69" y2="-1186.4" gradientTransform="matrix(1.0854 0 0 1.0854 -648.87 1185.4)" gradientUnits="userSpaceOnUse">
   <stop stop-color="#094942" offset="0"/>
   <stop stop-color="#0a4941" offset=".26906"/>
   <stop stop-color="#c79e11" offset="1"/>
  </linearGradient>
  <radialGradient id="b" cx="-425.16" cy="226.35" r="110.13" gradientTransform="matrix(2.2292 -.020162 .014283 1.5792 523.53 -144.15)" gradientUnits="userSpaceOnUse">
   <stop stop-color="#c69e11" offset="0"/>
   <stop stop-color="#cb9e12" offset=".30839"/>
   <stop stop-color="#0b4742" offset=".89959"/>
   <stop stop-color="#0b4640" offset="1"/>
  </radialGradient>
 </defs>
 <g transform="translate(927.13 -183.46)" clip-rule="evenodd" stroke-linejoin="round" stroke-miterlimit="1.4142">
  <path d="m-739.93 183.46-50.517 65.93v-65.93h-37.142l-99.544 130h47.917l53.669-70.015v70.015h28.601l53.673-70.015v70.015h36.4v-130z" fill="url(#h)" stroke-width=".25373"/>
  <path d="m-463.81 183.46v65.93l-50.517-65.93h-33.057v130h36.401v-70.015l53.673 70.015h28.6v-70.015l53.673 70.015h47.916l-99.544-130z" fill="url(#b)" stroke-width=".25373"/>
  <path d="m-603.07 183.46v65.93l-50.517-65.93h-33.058v130h36.402v-70.015l53.669 70.015h28.6v-130z" fill="url(#g)" stroke-width=".25373"/>
  <path d="m-741.29 403.87q21.043 0 33.298 13.329 12.255 13.329 12.255 36.146v77.714h-39.311v-69.127q0-10.844-4.3933-16.04-4.1624-5.4221-15.493-5.4221-23.123 0-23.123 24.625v65.967h-39.311v-173.96h39.311v63.707q14.106-16.943 36.767-16.943z" fill="url(#f)" fill-rule="evenodd" stroke-width=".26459" style="font-variant-caps:normal;font-variant-ligatures:normal;font-variant-numeric:normal"/>
  <path d="m-671.15 531.05v-124.25h36.296v124.25zm18.148-176.53q9.6075 0 15.799 6.3258 6.1916 6.0997 6.1916 15.589 0 9.7141-6.1916 16.04-6.1916 6.0997-15.799 6.0997-9.394 0-15.799-6.3257-6.1916-6.3258-6.1916-15.814 0-9.4884 6.1916-15.589 6.4051-6.3258 15.799-6.3258z" fill="url(#e)" fill-rule="evenodd" stroke-width=".26459" style="font-variant-caps:normal;font-variant-ligatures:normal;font-variant-numeric:normal"/>
  <path d="m-531.01 499.12 0.22186 31.086c-23.337 3.1052-44.859 1.4693-55.721-8.6365-8.5402-8.434-12.81-21.311-12.81-38.63v-41.072h-18.305v-32.89h18.305v-36.057l38.468-8.8e-4v36.058h26.471v32.89h-26.471v38.812c0 8.7628 2.0592 13.254 4.4303 15.722 1.9101 1.9881 13.075 4.0992 25.413 2.7192z" fill="url(#d)" fill-rule="evenodd" stroke-width=".26459" style="font-variant-caps:normal;font-variant-ligatures:normal;font-variant-numeric:normal"/>
  <path d="m-466.42 531.86c-15.941 0-29.746-1.4382-40.562-8.9688-10.675-7.5303-14.911-17.283-17.046-30.385h36.722c2.8565 8.022 6.2524 15.113 19.632 15.108 11.837-5e-3 15.168-7.2317 15.255-12.372-1.6753-9.5818-15.333-10.557-19.48-11.532-17.222-3.9159-28.895-6.805-36.011-12.528-7.1168-5.7229-12.248-13.294-12.424-24.341-0.21468-13.403 3.5588-21.883 13.095-29.413 10.165-8.0605 22.594-10.93 39.534-10.93 31.314 0 47.875 12.567 51.859 38.472h-36.272c-1.708-6.6266-6.0661-14.51-16.172-14.51-10.675 0-16.485 3.3563-16.485 12.051 0.15458 3.1429 2.6268 6.3341 11.45 8.369 1.281 0.30123 2.2062 0.52713 2.7756 0.67774 19.5 4.5184 33.014 9.3996 41.268 14.972 8.2556 5.4221 12.551 12.841 12.551 24.89 0 13.856-3.5556 22.963-13.661 30.342-10.767 6.6474-19.924 9.6438-36.027 10.098z" fill="url(#c)" fill-rule="evenodd" stroke-width=".26459" style="font-variant-caps:normal;font-variant-ligatures:normal;font-variant-numeric:normal"/>
 </g>
</svg>
