<svg width="600" height="92.308" viewBox="0 0 158.75 24.423" xmlns="http://www.w3.org/2000/svg">
    <path d="M2.542 24.42A2.548 2.548 0 0 1 0 21.88V2.537A2.549 2.549 0 0 1 2.542-.003h153.67a2.548 2.548 0 0 1 2.54 2.541V21.88a2.548 2.548 0 0 1-2.54 2.541z" fill="#ff4e00"/>
    <g fill="#fff">
        <path d="M5.074 21.4c-.51 0-.933-.178-1.267-.54-.333-.36-.483-.795-.448-1.306l.95-14.698a1.9 1.9 0 0 1 .632-1.305 1.907 1.907 0 0 1 1.347-.542H9.19c.527 0 .993.175 1.399.529.403.352.65.78.737 1.292l.476 3.14c.035.247.084.563.144.95.062.389.132.814.211 1.28.08.463.15.955.21 1.465.063.51.111.994.145 1.451h.027c.035-.422.083-.866.145-1.334.06-.465.127-.93.197-1.397.07-.464.144-.907.224-1.32.08-.412.145-.778.198-1.095l.58-3.14c.088-.527.34-.963.753-1.307a2.155 2.155 0 0 1 1.412-.514h2.77c.51 0 .955.178 1.332.542.38.359.585.795.62 1.305l.872 14.698c.034.51-.119.945-.461 1.305a1.69 1.69 0 0 1-1.28.543h-1.583a1.81 1.81 0 0 1-1.32-.543 1.958 1.958 0 0 1-.607-1.305l-.21-4.668c-.036-.44-.053-.81-.053-1.11V10.9h-.024c-.053.493-.102.934-.146 1.33-.044.399-.093.777-.145 1.135l-.158 1.096c-.052.368-.105.767-.158 1.19l-.555 3.93c-.088.51-.33.94-.726 1.294a2.013 2.013 0 0 1-1.386.526h-.764c-.526 0-.99-.174-1.384-.526a2.18 2.18 0 0 1-.728-1.294l-.58-4.063-.185-1.306c-.053-.38-.106-.741-.16-1.094L8.766 10.9H8.74c.034.494.052.924.052 1.292v1.796c0 .261-.01.551-.028.869l-.157 4.698c-.035.51-.236.944-.606 1.306-.37.361-.81.541-1.32.541H5.073zM38.214 12.22c0 3.219-.617 5.612-1.846 7.176-1.233 1.567-3.16 2.349-5.779 2.349-5.136 0-7.705-3.185-7.705-9.553 0-3.237.641-5.633 1.927-7.19 1.283-1.556 3.236-2.337 5.857-2.337 2.6 0 4.512.781 5.725 2.349 1.214 1.568 1.82 3.967 1.82 7.206zm-9.579-.133c0 1.058.028 1.924.08 2.614.053.686.15 1.231.29 1.636.14.404.333.684.58.843.246.157.572.238.976.238.387 0 .709-.084.962-.251.256-.166.454-.463.595-.884.14-.421.236-.989.289-1.702.052-.712.08-1.606.08-2.678 0-1.02-.028-1.852-.08-2.493-.053-.64-.15-1.143-.289-1.504-.142-.36-.34-.607-.595-.738-.253-.131-.575-.197-.961-.197-.404 0-.73.076-.976.223-.248.15-.44.418-.58.805-.142.388-.238.91-.29 1.57-.053.658-.08 1.499-.08 2.519zM45.39 10.43l2.323-5.698c.21-.51.547-.924 1.015-1.241a2.704 2.704 0 0 1 1.544-.475h1.688c.44 0 .775.18 1.002.542.23.36.256.741.08 1.147l-2.957 6.413 3.617 8.575c.087.213.119.418.09.621-.025.204-.09.382-.197.542-.105.158-.25.29-.435.394a1.156 1.156 0 0 1-.592.16h-2.109a2.53 2.53 0 0 1-1.505-.49 2.684 2.684 0 0 1-.977-1.253l-2.585-6.937v6.831c0 .511-.18.945-.54 1.306-.362.359-.797.54-1.306.54h-1.795c-.51 0-.947-.178-1.306-.54-.36-.36-.54-.796-.54-1.306V4.865c0-.51.177-.946.54-1.305a1.774 1.774 0 0 1 1.306-.541h1.795c.509 0 .945.178 1.305.541.36.36.541.795.541 1.305v5.565zM68.794 15.49c0 1.251-.185 2.28-.553 3.088-.37.81-.866 1.446-1.49 1.915a5.644 5.644 0 0 1-2.15.976c-.812.184-1.655.277-2.534.277-.915 0-1.773-.093-2.573-.277a5.335 5.335 0 0 1-2.11-.992c-.607-.475-1.088-1.12-1.44-1.938-.353-.82-.529-1.861-.529-3.126V4.857c0-.51.183-.946.543-1.305a1.774 1.774 0 0 1 1.305-.543h1.796c.51 0 .944.18 1.305.543.36.359.542.795.542 1.305v10.95c0 .512.073.894.224 1.148.148.257.472.382.963.382.51 0 .84-.121.99-.368.15-.246.224-.625.224-1.133V4.856c0-.51.178-.945.54-1.305a1.778 1.778 0 0 1 1.307-.542h1.792c.51 0 .947.18 1.306.542.362.36.543.796.543 1.305v10.635zM71.987 21.4c-.51 0-.932-.178-1.267-.54-.334-.36-.484-.795-.449-1.306l.95-14.699c.035-.51.246-.945.635-1.305a1.905 1.905 0 0 1 1.346-.542h2.902c.526 0 .994.175 1.397.529.405.353.653.781.742 1.292l.473 3.141c.035.247.082.563.147.95.062.389.13.814.211 1.28a33.56 33.56 0 0 1 .358 2.916h.024c.035-.422.082-.866.145-1.334.063-.465.129-.93.199-1.397.07-.464.146-.907.223-1.32.08-.412.145-.778.198-1.095l.583-3.14c.084-.527.338-.963.751-1.307a2.148 2.148 0 0 1 1.411-.514h2.77c.51 0 .954.178 1.332.542.379.358.586.795.622 1.305l.87 14.698a1.66 1.66 0 0 1-.46 1.305c-.346.363-.77.542-1.28.542h-1.584c-.51 0-.951-.178-1.32-.542a1.944 1.944 0 0 1-.604-1.305l-.213-4.669a14.39 14.39 0 0 1-.053-1.11V10.9h-.025c-.052.494-.102.935-.145 1.33-.042.4-.09.778-.145 1.136-.053.363-.107.726-.157 1.096-.054.368-.108.767-.16 1.19l-.554 3.93c-.088.51-.33.94-.726 1.294a2.017 2.017 0 0 1-1.389.525h-.764a2.02 2.02 0 0 1-1.386-.525 2.174 2.174 0 0 1-.726-1.294l-.581-4.063-.183-1.306c-.054-.38-.106-.742-.16-1.094l-.264-2.219h-.024c.034.495.053.924.053 1.292v1.797c0 .261-.01.551-.025.869l-.16 4.698c-.036.51-.237.944-.605 1.306-.368.361-.81.541-1.32.541h-1.609zM92.466 21.4a.559.559 0 0 1-.409-.17.556.556 0 0 1-.171-.409V3.856c0-.158.057-.294.171-.408a.555.555 0 0 1 .409-.17h4.04a7.51 7.51 0 0 1 2.134.288c.652.195 1.208.49 1.676.885.466.395.832.902 1.096 1.518.266.614.397 1.352.397 2.215 0 2.671-1.127 4.282-3.378 4.828.44.177.84.462 1.202.858.358.398.708 1.043 1.043 1.94l1.871 5.04a.396.396 0 0 1-.368.553h-.634c-.387 0-.65-.183-.792-.552l-1.79-4.802c-.214-.545-.424-.991-.638-1.333-.21-.343-.442-.613-.697-.805a2.345 2.345 0 0 0-.858-.408 4.514 4.514 0 0 0-1.108-.12H93.55v7.442a.556.556 0 0 1-.169.41.563.563 0 0 1-.41.17h-.504zm1.082-9.393h2.93c1.355 0 2.296-.322 2.822-.964.53-.642.793-1.586.793-2.837 0-1.16-.276-2.036-.832-2.625-.554-.588-1.515-.882-2.889-.882h-2.824zM108.349 15.57l-1.637 5.277a.645.645 0 0 1-.264.394.755.755 0 0 1-.474.158h-.527a.413.413 0 0 1-.343-.17.375.375 0 0 1-.054-.382l5.307-17.02a.803.803 0 0 1 .29-.397.758.758 0 0 1 .475-.158h.658a.78.78 0 0 1 .478.158c.14.106.226.238.262.397l5.225 17.02a.422.422 0 0 1-.08.383.407.407 0 0 1-.341.169h-.633a.759.759 0 0 1-.475-.158.665.665 0 0 1-.266-.394l-1.556-5.277zm5.622-1.425L112.438 9a34.2 34.2 0 0 1-.648-2.426 52.38 52.38 0 0 1-.33-1.689h-.05c-.09.51-.209 1.083-.358 1.714a37.12 37.12 0 0 1-.67 2.4l-1.583 5.147zM121.758 21.4a.561.561 0 0 1-.41-.17.567.567 0 0 1-.17-.409V3.856c0-.158.058-.294.17-.408a.562.562 0 0 1 .41-.17h3.51c1.284 0 2.38.166 3.285.5a4.873 4.873 0 0 1 2.217 1.609c.57.739.99 1.701 1.252 2.888.265 1.19.397 2.626.397 4.316 0 1.635-.136 3.015-.409 4.142-.273 1.126-.695 2.037-1.266 2.73a4.7 4.7 0 0 1-2.19 1.49c-.89.3-1.956.45-3.206.45h-3.59zm1.083-1.422h2.613c1.02 0 1.865-.136 2.532-.409a3.4 3.4 0 0 0 1.596-1.306c.394-.598.672-1.368.83-2.308.156-.94.238-2.089.238-3.443 0-1.408-.075-2.609-.224-3.603-.15-.992-.417-1.801-.805-2.427a3.434 3.434 0 0 0-1.594-1.371c-.68-.293-1.538-.437-2.575-.437h-2.612zM137.242 21.4a.557.557 0 0 1-.408-.17.558.558 0 0 1-.171-.409V3.856c0-.158.055-.294.171-.408a.556.556 0 0 1 .408-.17h.5c.16 0 .295.056.409.17a.56.56 0 0 1 .173.408v16.966a.559.559 0 0 1-.173.41.557.557 0 0 1-.41.169zM155.396 12.33c0 3.077-.509 5.404-1.53 6.979-1.022 1.574-2.639 2.361-4.855 2.361-2.234 0-3.87-.772-4.91-2.32-1.036-1.548-1.556-3.856-1.556-6.916 0-3.042.542-5.369 1.625-6.978 1.082-1.61 2.677-2.415 4.789-2.415 2.127 0 3.734.797 4.816 2.387 1.08 1.595 1.621 3.892 1.621 6.902zm-11.083.028c0 2.67.357 4.668 1.068 5.987.715 1.32 1.916 1.98 3.604 1.98 1.687 0 2.884-.655 3.586-1.967.704-1.309 1.057-3.273 1.057-5.897 0-2.69-.362-4.708-1.08-6.057-.722-1.343-1.911-2.017-3.563-2.017-1.653 0-2.848.66-3.575 1.98-.73 1.318-1.097 3.315-1.097 5.99z"/>
    </g>
</svg>
