<?xml version="1.0" encoding="UTF-8" standalone="no"?>
<!-- Created with Inkscape (http://www.inkscape.org/) -->
<svg xmlns:rdf="http://www.w3.org/1999/02/22-rdf-syntax-ns#" xmlns="http://www.w3.org/2000/svg" height="196.09" width="600" version="1.1" xmlns:cc="http://creativecommons.org/ns#" xmlns:dc="http://purl.org/dc/elements/1.1/">
 <defs></defs>
 <metadata>
  <rdf:RDF>
   <cc:Work rdf:about="">
    <dc:format>image/svg+xml</dc:format>
    <dc:type rdf:resource="http://purl.org/dc/dcmitype/StillImage"/>
    <dc:title/>
   </cc:Work>
  </rdf:RDF>
 </metadata>
 <g transform="translate(-189.662,-310.86145)">
  <g fill-rule="nonzero" transform="matrix(0.99999291,0,0,0.99999291,0.00347064,0.00289826)">
   <path d="m763.05,314.39-511.08,0-0.20902,1.7186c0.0929,0.0232,8.8718,2.1599,11.914,7.757,1.2309,2.276,1.347,4.854,0.32515,7.6874-4.3895,12.356-17.976,49.492-30.355,83.33l-1.1148,3.0192,2.485-2.0438c3.9714-3.2979,9.8705-5.2488,15.77-5.2488h481.84c10.149,0,17.813,3.7624,20.02,9.824l0.83609,2.276,31.423-89.276-0.0232,0.0697c0.18579-0.41804,3.8321-9.7311-2.8334-14.771-6.41-4.854-18.464-4.3895-18.998-4.343" fill="#FFF"/>
   <path d="m647.17,352.91c0.0232,0.0697,4.1572-10.892,4.0875-10.892,0.99866-2.6708,1.9509-3.9017,4.343-4.8772,2.3921-0.99866,7.548-0.41804,9.6615,0.3716,6.7119,2.5083,7.6177,8.3841,4.9933,12.541-2.1599,3.4837-5.5739,5.8294-9.2899,7.3622-0.95221,0.32514-8.059,3.3211-12.541,1.138-1.6257-1.0683-2.1367-3.2282-1.2541-5.6436m-35.603,34.791c-2.8566,7.3622-12.356,11.543-12.332,11.589h18.58c5.6668,0,9.2666-0.16257,13.029-4.2269,1.2309-1.347,1.9973-3.1353,2.787-5.2952,0.0232-0.0697,5.1326-14.144,5.1094-14.167,2.2296-6.4565,2.4154-5.3881,6.8513-5.3881,4.3895,0,5.9687,0.0464,6.201,2.5315,0.20902,1.5561,3.2282,22.087,3.2282,22.087s0.11612,1.2541,1.7186,2.7173c1.8348,1.649,4.3895,1.649,4.3895,1.649h10.265s2.0438,0.0232,2.8102-1.5793c0.76642-1.6025,0.30192-2.787,0.30192-2.787s-3.5534-18.092-4.343-21.227c-0.78964-3.1121,0.55739-4.4127,3.0424-5.6204,3.5534-1.6954,7.9196-4.7843,10.289-7.3622,4.4359-4.8075,11.032-14.028,8.1751-23.991-1.8115-6.3171-10.01-8.988-15.677-9.9634-6.7584-1.1612-20.879-0.67352-20.879-0.67352h-29.913s6.9442,3.9946,4.7146,10.637c-2.2063,6.6655-15.491,43.732-18.347,51.071" fill="#2d7bc8"/>
   <path d="m705.15,393.08c-6.1545,0-12.286-1.6954-15.305-1.6954-3.5302-0.0232-6.619,3.5998-2.6476,6.4565,4.0411,2.9031,13.145,3.7159,17.906,3.8553,19.88,0.62707,37.879-4.4591,45.079-19.648,1.0916-2.2992,1.8812-4.761,2.1831-7.3854,0.23224-2.0902,0.18579-4.2269-0.5574-6.7119-1.138-3.7392-3.7159-6.0152-6.8745-7.6874-3.8785-2.0206-13.168-4.3662-17.256-6.0849-1.7418-0.71996-6.7816-2.8798-7.339-6.6887-0.37159-2.4618,0.3716-4.6217,1.5793-6.3868,4.7611-6.7816,15.05-9.6847,23.41-8.7557,7.3854,0.83609,10.033,0.0929,10.637-3.3676,0.81286-4.6217-13.47-5.481-20.531-5.481-7.0835,0-13.819,1.9973-15.328,2.485-7.5248,2.3457-12.82,7.0371-16.838,13.61-1.9509,3.2282-3.3676,6.8977-3.623,10.916-0.18579,2.996,0.30192,6.8745,2.6244,9.9169,3.2747,4.2966,16.699,8.4306,21.251,10.498,1.7418,0.78964,5.7365,1.9973,6.7352,5.5042,2.1367,10.799-14.841,16.652-25.106,16.652" fill="#2d7bc8"/>
   <path d="m418.67,389.95c12.936-4.0179,22.969-20.763,26.314-33.931,3.0424-11.984-0.0929-26.221-15.607-21.413-11.659,3.623-23.48,19.462-26.639,33.211-3.623,15.653,4.0411,25.826,15.932,22.133m-9.7544,11.636c-22.9,0-35.418-16.513-27.637-37.438,4.2037-11.264,11.45-21.111,20.507-27.962,10.614-8.059,22.876-12.681,36.788-12.681,22.226,0,34.883,16.699,26.662,38.832-8.6628,23.341-32.747,39.25-56.32,39.25" fill="#2d7bc8"/>
   <path d="m374.12,325.87-6.9906,0c-7.339,0-12.634,1.6257-15.375,6.6422-0.0232,0.0232-20.879,28.52-20.949,28.59-5.0398,7.5712-11.984,13.261-12.774,2.5083,0.0232,0-3.5766-24.154-3.5998-24.177-1.858-10.73-6.0384-13.563-10.428-13.563h-23.039s5.9455,8.2912,2.485,18.115c-1.7418,4.9468-12.936,34.396-15.096,39.97-4.4127,11.38-10.219,15.282-10.219,15.282h14.539c3.4372,0,5.8991-3.2979,9.1505-12.17,1.5096-4.0643,10.567-28.543,10.799-29.17,0.0929-0.30192,0.41804-1.6954,1.6025-1.6954,0.99866,0,0.92899,1.4399,0.95221,1.7418,0.76641,7.1068,2.8334,30.726,2.9728,32.422,0.41804,5.7829,3.414,8.8254,7.0835,8.8254,0.0232,0.0232,7.9428,0.0232,7.9196,0,3.1818,0,5.5972-0.76641,8.1286-4.3662,2.5315-3.623,26.36-36.765,26.36-36.765,0.76641-1.3703,2.1134-2.1599,2.9263-1.9044,0.99866,0.34837,1.0916,1.3006,0.69674,2.3689-2.9031,7.9196-11.31,30.494-11.961,32.259-1.9276,5.1326-0.97544,8.4073,3.9482,8.4073,3.4605,0,7.3622,0.0232,10.521,0.0232,5.5972,0,7.7338-5.8526,8.7789-8.4306,0.88253-2.1599,14.19-38.599,19.718-53.579,2.6012-7.3158-0.65029-11.334-8.1519-11.334" fill="#2d7bc8"/>
   <path d="m473.54,390.61c-0.71996,2.0902-1.2541,8.4073,4.7611,8.4073h10.08c5.5739,0,6.5726-3.2979,8.4073-8.4073,0,0,9.8937-26.592,14.724-39.25,4.1804-11.008,13.377-15.746,19.95-16.629,9.7079-0.78964,10.103-1.347,11.752-5.4346,2.2992-5.69,2.0902-5.8062-9.2434-5.8062h-49.608c-12.239-0.0464-12.75-0.11613-15.305,5.7365-1.7651,4.0643,0.69674,5.5042,7.4087,5.5042,12.681,0,13.586,11.264,11.682,16.559-1.9044,5.2952-14.608,39.319-14.608,39.319" fill="#2d7bc8"/>
   <path d="m562.98,389.95c12.936-4.0179,22.969-20.763,26.314-33.931,3.0424-11.984-0.0929-26.221-15.63-21.413-11.636,3.623-23.457,19.462-26.615,33.211-3.623,15.653,4.0411,25.826,15.932,22.133m-9.7544,11.636c-22.9,0-35.394-16.513-27.637-37.438,4.2037-11.264,11.45-21.111,20.507-27.962,10.614-8.059,22.876-12.681,36.811-12.681,22.203,0,34.86,16.699,26.639,38.832-8.6628,23.341-32.747,39.25-56.32,39.25" fill="#2d7bc8"/>
   <path d="m784.07,333.16-30.61,86.976c-2.2296-6.1545-9.9634-10.405-20.833-10.405h-481.84c-6.1081,0-12.146,1.9973-16.327,5.4578,12.727-34.837,26.012-71.137,30.355-83.353,4.4591-12.472-12.843-16.582-12.843-16.582h511.15s12.193-0.53416,18.417,4.1572c6.1778,4.7146,2.5315,13.749,2.5315,13.749m0.25547-17.279c-7.0603-5.3417-21.111-5.0165-21.111-5.0165h-510.99c-2.2063,0-4.1804,1.649-4.5753,3.8321-0.41804,2.1831,0.85931,4.2501,2.9495,4.8075,6.0616,1.6257,12.286,5.8991,10.103,11.078,0,0-9.1505,24.827-9.1505,24.827-17.372,47.611-46.473,127.29-48.679,133.66-1.6954,4.9469-8.0125,8.5002-10.289,9.4292-1.9741,0.83609-3.1818,2.8799-2.8799,4.9236,0.30192,2.0438,1.9973,3.5302,4.0875,3.5302,0,0,513.29-0.0232,513.45-0.0232,1.4864,0.0697,10.428,0.2787,17.07-4.0643,6.921-4.4824,10.335-15.862,10.846-17.744,0.0697-0.20902,52.395-148.89,53.045-150.68,1.9973-4.8307,2.9263-13.401-3.8785-18.557m-60.03,186.95s-0.0232,0.0232-0.0232,0.0232c0.0232-0.0232,0.0232-0.0232,0.0232-0.0232" fill="#2d7bc8"/>
   <path d="m506.51,425.73c-0.32515-3.6927-0.37159-6.2474,5.2488-6.2474h8.1054c4.2501,0,6.8745,0.23225,7.7106,8.3377,0.0232,0.0232,3.4372,30.471,3.414,30.471,0.76641,10.405,7.4783,4.9004,12.356-2.4154,0.0464-0.0697,16.141-22.621,22.969-32.213,1.858-2.6012,3.5534-4.2269,6.3171-4.2269s3.716,0.0232,5.783,0.0232,2.6941,1.8812,0.51094,5.0165c-10.776,15.421-42.757,61.081-44.8,63.984-2.4386,3.4837-4.7611,4.2501-7.8499,4.2501h-7.6641c-3.5302,0-6.4332-2.9495-6.8513-8.5467-0.13934-1.6257-2.1367-24.502-2.8798-31.353,0-0.20902-1.5328-17.488-2.3689-27.08" fill="#FFF"/>
   <path d="m433.11,484.39c-0.69674,2.0206-1.2309,8.1286,4.5985,8.1286h9.7544c5.3881,0,6.3403-3.1818,8.1286-8.1286,0,0,9.5686-25.71,14.237-37.949,4.0411-10.66,12.936-15.259,19.3-16.071,9.406-0.78964,9.7776-1.3238,11.38-5.2952,2.2063-5.5042,2.0206-5.5971-8.9647-5.5971h-47.959c-11.845-0.0464-12.356-0.11612-14.817,5.5507-1.6954,3.925,0.67351,5.3417,7.1764,5.3417,12.263,0,13.122,10.869,11.287,16.002-1.8348,5.1094-14.121,38.019-14.121,38.019" fill="#FFF"/>
  </g>
 </g>
</svg>
