<svg xmlns="http://www.w3.org/2000/svg" height="283.19" width="600" viewBox="0 0 158.75 74.926">
    <path d="M58.4 36.81c-.69.832-1.375 2.102-.983 3.527 1.178 3.974 7.5 5.724 10.163 5.835l-.31-4.655s-4.32.571-6.502-1.718c-.928-.97-.741-1.991-.045-2.87-.814-.04-1.774-.093-2.323-.119M68.17.002a5.823 5.823 0 0 0-.495.008c-.396.023-.798.011-1.187.099-.18.04-.35.06-.535.041-.229-.022-.462 0-.693 0-.317.103-.652.112-.98.149-.048.005-.107.012-.14.04-.18.155-.395.167-.61.15-.184-.015-.356.01-.536.032-.23.03-.463.046-.684.124a1 1 0 0 1-.289.05c-.298.016-.59.076-.881.14-.113.023-.224.065-.338.073-.463.033-.906.19-1.368.223-.476.14-.974.194-1.443.363-.17.06-.348.085-.527.115-.31.052-.618.127-.915.23-.107.038-.225.04-.338.067-.08.018-.172.027-.23.074-.16.128-.36.166-.528.247-.045.085-.085.15-.132.239-.08.028-.17.07-.264.099-.204.064-.42.109-.618.19-.244.1-.486.198-.742.271-.25.073-.48.217-.733.297-.252.08-.48.211-.734.28a3.483 3.483 0 0 0-.684.28c-.175.091-.356.19-.544.248-.333.103-.64.272-.956.412-.452.2-.9.409-1.335.651-.244.137-.483.283-.741.387a2.189 2.189 0 0 0-.594.355c-.15.127-.31.246-.51.288a.534.534 0 0 0-.355.247c-.034.052-.096.086-.149.124-.268.191-.538.379-.807.569-.027.019-.062.033-.091.05-.047.024-.107-.009-.14-.091-.045-.11-.078-.13-.181-.075-.323.176-.323.176-.602.495a1.193 1.193 0 0 0-.09.124c-.008.01.004.025.007.057.027.023.061.06.1.091-.03.124-.134.186-.232.247-.336.21-.668.418-1.005.627-.06.037-.12.043-.181 0-.082-.058-.166-.034-.231.024-.148.132-.287.267-.437.396-.113.097-.213.2-.305.321-.201.265-.438.51-.775.594a.912.912 0 0 0-.412.247c-.072.067-.148.14-.214.214-.242.272-.522.499-.791.742-.085.077-.194.133-.289.198-.19.13-.4.24-.568.396-.377.346-.74.703-1.096 1.07-.356.369-.68.766-1.047 1.122-.392.38-.77.776-1.137 1.178-.1.11-.2.223-.28.346a1.057 1.057 0 0 1-.388.371.788.788 0 0 0-.37.38.395.395 0 0 1-.265.214c-.045.014-.083.045-.123.074a.314.314 0 0 0-.132.255.408.408 0 0 0 .016.14.332.332 0 0 1-.041.289c-.036.055-.082.1-.115.156-.1.17-.24.258-.437.248h-.008v.008c.023.046.003.08-.033.107-.017.012-.06.014-.074 0-.014-.016-.021-.065-.008-.083.026-.037.071-.055.115-.033-.01-.027-.021-.054-.025-.082-.007-.05-.016-.096-.074-.1-.028 0-.065.012-.082.034-.084.103-.154.212-.24.313-.084.1-.181.194-.271.288-.005.14-.007.273-.017.404-.008.11.034.18.124.248.143.106.158.203.074.337-.113.182-.23.36-.354.536-.277.39-.59.751-.825 1.17a.444.444 0 0 1-.099.116.728.728 0 0 0-.19.28c-.168.383-.45.692-.683 1.03a.45.45 0 0 1-.28.19c-.063.014-.138.012-.182.082-.095.31-.079.647-.206.956-.023.057-.017.133-.016.198a.366.366 0 0 1-.066.23c-.168.229-.275.486-.404.734-.057.11-.091.212-.041.33a.302.302 0 0 1-.074.363c-.135.127-.155.283-.132.453.014.097.037.199.05.297.005.046.007.103-.017.14-.077.123-.145.254-.313.296-.116.03-.152.136-.107.231.056.119.12.232.165.355.05.137.084.278.123.42-.21.307-.337.651-.453.997-.065.195-.11.377-.066.577a.348.348 0 0 1-.025.24c-.058.117-.082.249-.18.345-.077.232-.204.458-.125.717a.385.385 0 0 1-.04.33.126.126 0 0 0 .007.14.397.397 0 0 1 .074.23c.001.116.008.233.017.347.017.25.01.495-.074.733-.04.11-.051.222-.058.338-.018.292-.026.586-.09.866-.053.012-.075-.011-.091-.05a.791.791 0 0 0-.091-.165c-.016-.02-.063-.038-.09-.033a.115.115 0 0 0-.075.058.346.346 0 0 0-.033.14 14.09 14.09 0 0 0 0 .544.438.438 0 0 0 .025.149c.01.023.046.037.074.049.01.004.043-.014.05-.025.031-.056.055-.12.09-.173.014-.021.047-.031.074-.033.039-.003.053.027.058.066.06.458-.017.92.082 1.376a.23.23 0 0 1-.008.1.8.8 0 0 0 .017.387c.095.403.118.812.074 1.228-.037.343-.037.692-.058 1.038a.786.786 0 0 0 .05.338c.092.234.115.485.115.734 0 .48.066.95.132 1.425.036.261.067.523.033.792a1.48 1.48 0 0 0 .05.543c.06.24.107.482.148.726.021.132.054.253.123.37.085.143.136.304.149.47.037.479.155.942.206 1.418.038.359.114.722.272 1.055.064.135.106.279.123.428.023.197.045.394.132.577.02.041.02.096.008.14-.048.188.007.363.066.536.037.11.048.239.116.321.205.25.3.549.412.841.042.11.089.211.18.289a.181.181 0 0 1 .067.173c-.026.163.036.292.148.403.18.177.302.388.388.627.1.278.227.548.337.824.14.351.29.698.57.972.08.08.143.185.189.289.087.199.215.377.338.552.162.232.3.476.379.75.04.144.105.278.198.396.226.29.375.616.486.964.05.162.135.3.255.42.175.175.282.41.478.569.048.04.077.106.107.165.094.177.145.368.19.56.008.035-.032.105-.066.124-.035.02-.102.01-.14-.008-.057-.03-.1-.079-.148-.124-.048-.044-.089-.092-.14-.132-.016-.012-.055-.003-.083.008-.012.004-.032.028-.033.042-.008.15-.005.297.107.42.077.084.148.173.206.272.103.174.227.329.404.428.12.068.209.161.272.28.117.219.287.397.404.619.083.158.216.294.338.428a.904.904 0 0 0 .263.215c.267.129.452.335.577.593.097.198.236.357.396.503.209.19.387.407.503.667.01.023.054.028.082.042.003-.034.023-.056.058-.05a.14.14 0 0 1 .082.041c.117.137.208.304.346.412.276.215.477.497.717.742.043.044.09.121.083.173-.017.142.042.25.09.371.027.066-.003.123-.057.173-.146.137-.142.134-.025.256.08.082.174.159.23.255.128.214.251.424.504.511.148.218.39.35.535.577.13.2.263.408.47.544.019-.058.032-.118.058-.173.02-.042.11-.047.14-.017.023.025.053.047.066.075.134.282.282.55.461.807.053.19.171.308.363.363.097.027.146.122.198.206.053.085.116.17.214.198.149.041.249.152.37.23.012.007.037.005.05 0 .037-.013.046-.047.025-.082-.05-.084-.109-.159-.148-.247-.016-.036.004-.1.025-.14.023-.047.128-.077.173-.05.04.024.082.06.107.099.039.061.08.1.156.074a.188.188 0 0 1 .223.066c.06.077.105.17.173.239.29.294.493.648.684 1.022.108.028.218.064.33.083.043.008.093-.021.14-.033a.65.65 0 0 1-.272-.33c-.004-.014 0-.046.008-.05.027-.012.066-.027.082-.016a.828.828 0 0 1 .338.412.663.663 0 0 0 .297.38c.028.015.056.039.074.065a.484.484 0 0 0 .387.198c.26.014.399.291.668.288.04 0 .085.045.124.074.026.02.048.055.074.075.223.173.455.316.733.395.349.1.698.208 1.014.396.212.05.4.158.577.28.066.045.144.067.222.09.47.148.973.219 1.385.52.038.028.093.033.14.05.28.097.566.183.84.296.596.245 1.188.499 1.78.75a.34.34 0 0 1 .182.157c.046.09.12.11.206.082.13-.041.235-.01.289.116.038.09.104.117.19.123.064.004.131-.004.197-.008.185-.014.356.024.528.1.362.16.726.318 1.096.46.156.06.312.116.436.231a.37.37 0 0 0 .223.091c.2.022.395.03.585-.05a.82.82 0 0 1 .14-.04c.052-.012.15.037.173.09.026.06.038.122.066.181.02.042.052.099.09.116.29.124.58.243.907.14.131-.041.252-.047.363.066.046.046.545.111.626.082.183-.065.359-.032.536.008a.364.364 0 0 0 .363-.099c.047-.046.102-.078.156-.115a.248.248 0 0 1 .28.016.806.806 0 0 1 .24.314c.019.044.037.095.057.14.025.056.1.096.157.09.148-.014.298-.025.445-.04.133-.016.26-.017.379.065.056.04.123.028.19.017.114-.02.231-.039.346-.05.316-.03.616-.018.915.124.22.104.463.181.717.181.135 0 .256.055.379.107.332.142.66.294 1.038.264.08-.005.166.014.247.025.441.058.878.134 1.327.074.113-.015.232.012.346.025.132.012.265.039.396.049.182.015.36-.005.536-.074.326-.127.673-.118 1.013-.182.105-.02.194.028.256.116.056.078.08.184.239.239.13.005.306.029.486.025a24.625 24.625 0 0 0 2.225-.173c.296-.035.587-.088.882-.124.312-.039.622-.074.923-.173a.763.763 0 0 1 .198-.033c.25-.01.486-.084.725-.148.096-.026.2-.049.297-.05.17-.003.324-.047.478-.099.22-.075.45-.119.676-.165.146-.029.29-.045.428-.107.075-.034.16-.05.24-.066.306-.064.616-.124.922-.19.08-.015.164-.041.24-.073.47-.204.97-.308 1.433-.528.683-.211 1.29-.595 1.929-.898.059-.029.11-.069.165-.107.189-.133.373-.272.568-.396.236-.147.452-.334.734-.403.06-.015.114-.074.165-.116a8.23 8.23 0 0 1 .791-.585 1.65 1.65 0 0 0 .404-.363c.259-.324.578-.587.906-.84.275-.214.575-.385.858-.585.11-.078.21-.149.272-.272.074-.152.2-.267.321-.38.11-.1.228-.199.321-.313.15-.18.331-.316.495-.478.067-.065.15-.073.23-.025.125.076.242.086.363-.008a.211.211 0 0 1 .091-.04c.16-.03.253-.132.346-.256.17-.225.376-.432.618-.577.176-.104.307-.236.445-.38.205-.21.36-.475.627-.626.135-.168.277-.325.51-.362.044-.007.08-.058.116-.091.12-.115.232-.23.313-.38a.738.738 0 0 1 .198-.222c.304-.236.53-.522.709-.865.21-.402.505-.737.931-.931a.784.784 0 0 0 .24-.165c.125-.13.286-.223.378-.388.1-.179.308-.245.42-.412.074-.109.163-.213.223-.33a2.71 2.71 0 0 1 .61-.758c.095-.003.117.067.165.108.055.046.124.04.173-.008.034-.036.072-.067.099-.108.427-.668.862-1.34 1.286-2.01.071-.114.154-.203.247-.297.197-.2.393-.407.51-.668a.498.498 0 0 1 .083-.123c.134-.151.217-.333.305-.511.182-.371.367-.741.594-1.088.117-.18.215-.372.296-.569.174-.412.364-.815.552-1.22.208-.448.417-.893.701-1.302.198-.285.329-.613.429-.948.038-.126.066-.257.164-.354a.736.736 0 0 0 .198-.445c.021-.15.068-.287.116-.429a2.99 2.99 0 0 0 .107-.428c.065-.358.106-.727.255-1.063.027-.06.035-.125.05-.19.093-.42.18-.843.28-1.261.06-.257.12-.509.206-.758.195-.564.33-1.144.47-1.723.107-.449.165-.908.33-1.343.023-.062.03-.133.04-.198.087-.522.205-1.04.248-1.566.06-.723.153-1.446.132-2.176-.001-.032-.005-.066 0-.098.086-.492.05-.991.057-1.484.007-.375.037-.756-.107-1.12-.005-.016-.01-.034-.008-.05.037-.266-.031-.527-.033-.791a3.229 3.229 0 0 0-.05-.495c-.113-.667-.187-1.342-.378-1.995-.107-.363-.18-.736-.272-1.104-.025-.096-.058-.187-.091-.28l-.115-.33c-.177-.497-.328-1-.602-1.459-.12-.198-.23-.399-.354-.593-.304-.474-.595-.953-.775-1.492a5.401 5.401 0 0 0-.24-.601c-.126-.269-.272-.53-.411-.791-.146-.278-.341-.527-.47-.816-.038-.089-.12-.154-.181-.231-.105-.13-.218-.253-.313-.387-.089-.124-.198-.16-.338-.149-.05.004-.1.003-.149.008a.41.41 0 0 1-.321-.099c-.203-.17-.413-.335-.61-.51a4.784 4.784 0 0 0-.808-.57.787.787 0 0 0-.42-.123.54.54 0 0 1-.28-.083c-.117-.062-.248-.1-.363-.164-.302-.17-.645-.256-.94-.445a.144.144 0 0 0-.098-.017.328.328 0 0 0-.124.058c-.043.031-.07.146-.041.181.05.064.104.13.165.182.107.09.176.202.19.337.033.312.084.627.082.94-.005.693-.04 1.384-.066 2.077-.02.512-.052 1.03-.074 1.541-.005.131-.004.26.025.387.051.232.026.462.016.693-.019.411-.122.821-.066 1.236.005.048-.004.099-.008.148-.02.264-.043.528-.066.791-.022.248-.037.489-.074.734-.066.457-.152.914-.19 1.376-.04.495-.135.981-.18 1.476-.032.343-.05.69-.124 1.03-.047.21-.063.426-.116.634-.095.37-.054.762-.156 1.13-.004.014 0 .032 0 .049.029.33-.086.65-.025.98.005.031-.003.067-.008.1a52.394 52.394 0 0 1-.38 2.25c-.115.617-.228 1.233-.362 1.846-.149.676-.247 1.364-.462 2.027a3.03 3.03 0 0 0-.164.725 1.13 1.13 0 0 1-.074.289c-.16.435-.281.878-.396 1.327-.148.575-.314 1.149-.544 1.697-.09.214-.19.422-.255.643-.136.461-.32.897-.495 1.344a26.56 26.56 0 0 1-1.195 2.612c-.13.248-.252.505-.37.759-.01.02.017.055.032.082.003.007.03.008.041 0 .066-.048.164-.084.19-.148.115-.295.329-.53.445-.824.04-.104.092-.216.198-.28.012-.009.03-.022.04-.017.013.005.026.028.026.041-.01.184-.06.357-.157.511-.203.323-.382.66-.527 1.014-.05.12-.141.22-.215.33-.022.035-.1.02-.115-.025-.027-.078-.044-.163-.074-.24-.01-.023-.044-.035-.066-.049-.008-.004-.034.005-.041.017-.162.268-.333.531-.478.807a8.64 8.64 0 0 1-.75 1.162 6.163 6.163 0 0 0-.684 1.097 2.33 2.33 0 0 1-.429.659c-.336.345-.62.733-.89 1.129-.177.26-.36.51-.618.7a.87.87 0 0 0-.173.174c-.18.24-.405.435-.627.634-.22.199-.425.41-.585.668a1.926 1.926 0 0 1-.37.404c-.271.24-.55.475-.833.7-.285.226-.569.45-.865.66-.609.428-1.2.886-1.88 1.203-.044.02-.082.046-.123.074-.521.353-1.096.617-1.648.915-.218.117-.464.184-.684.296-.312.158-.628.28-.965.371a.787.787 0 0 0-.305.157c-.165.134-.33.276-.519.37-.31.155-.639.285-.964.405-.162.06-.293.118-.346.305-.019.065-.11.123-.182.156-.102.049-.219.068-.33.1-.267.074-.545.11-.79.263a.601.601 0 0 1-.33.082c-.304-.014-.57.14-.866.157-.285.13-.595.2-.865.37-.138.088-.296.137-.445.207-.33.012-.639.187-.98.14-.142-.02-.29.053-.438.058-.396.014-.79.03-1.186.016-.511-.017-1.023-.01-1.533-.058-.065-.005-.132.01-.198.017-.132.013-.264.025-.396.04-.097.013-.195.012-.288.042a1.23 1.23 0 0 1-.495.05c-.23-.021-.462-.039-.692-.066-.443-.052-.878-.126-1.327-.107a1.139 1.139 0 0 1-.296-.033c-.306-.072-.63-.062-.932-.157-.077-.024-.157-.022-.239-.033-.163-.022-.334-.038-.494-.074-.388-.085-.769-.179-1.154-.272-.048-.01-.093-.027-.14-.041-.086-.026-.136-.085-.173-.165-.043-.094-.07-.116-.14-.083a.529.529 0 0 1-.338.058c-.081-.016-.166-.036-.248-.05a6.957 6.957 0 0 1-.972-.28c-.231-.088-.468-.16-.7-.247-.108-.04-.207-.1-.33-.041-.036.017-.095-.011-.14-.025-.3-.093-.597-.208-.857-.387a.445.445 0 0 0-.272-.083.783.783 0 0 1-.338-.066c-.361-.164-.733-.32-1.088-.494-.209-.102-.403-.2-.643-.223-.142-.013-.279-.117-.42-.156-.142-.04-.296-.027-.429-.083-.304-.129-.62-.243-.915-.395a27.59 27.59 0 0 1-1.426-.791c-.24-.144-.492-.273-.725-.429-.454-.303-.897-.619-1.343-.931a17.363 17.363 0 0 1-2.275-1.912c-.581-.587-1.166-1.169-1.747-1.756-.267-.27-.503-.566-.791-.816a1.246 1.246 0 0 1-.231-.264c-.16-.255-.388-.446-.593-.659-.138-.143-.267-.295-.396-.445-.54-.625-1.065-1.258-1.525-1.945-.055-.083-.108-.165-.173-.239-.2-.225-.337-.488-.461-.758-.063-.137-.143-.262-.223-.388-.107-.166-.213-.33-.313-.502-.059-.101-.11-.2-.206-.272a.697.697 0 0 1-.256-.42c-.025-.112-.043-.227-.074-.338-.091-.334-.181-.669-.362-.973a3.5 3.5 0 0 1-.297-.626c-.166-.467-.35-.92-.544-1.377a2.901 2.901 0 0 1-.124-.379c-.1-.366-.18-.743-.296-1.104-.141-.44-.27-.88-.388-1.327a2.036 2.036 0 0 0-.148-.371c-.066-.133-.144-.254-.223-.38a2.709 2.709 0 0 1-.362-.972c-.115-.633-.201-1.275-.297-1.912-.01-.065-.01-.132-.016-.197a8.123 8.123 0 0 0-.14-1.13 3.292 3.292 0 0 1-.091-.881c.007-.115.01-.233-.008-.347-.048-.295-.044-.592-.05-.89-.007-.363 0-.734-.033-1.096-.019-.216-.03-.42-.008-.634.008-.081-.003-.165 0-.248.013-.445-.015-.89.042-1.335a2.05 2.05 0 0 1 .42-1.046c.214-.268.305-.587.38-.907.084-.37.143-.745.205-1.12.051-.31.094-.622.14-.932a.854.854 0 0 0-.033-.437c-.071-.19-.073-.386-.066-.585.003-.083.016-.173-.008-.247-.089-.273-.067-.555-.09-.833a4.337 4.337 0 0 1 .09-1.236c.088-.42.206-.827.305-1.245.119-.498.237-.997.338-1.5.03-.146.065-.29.124-.428.09-.213.149-.426.181-.66.033-.241.12-.49.214-.716.103-.244.172-.496.264-.742.151-.401.289-.81.437-1.212.028-.076.088-.136.132-.206.222-.35.38-.737.568-1.104.075-.145.122-.31.149-.47a1.74 1.74 0 0 1 .313-.717c.22-.313.315-.689.527-1.005a.263.263 0 0 0 .033-.1c.035-.22.163-.394.289-.568.136-.188.272-.368.412-.552.2-.263.389-.533.536-.833.115-.235.258-.459.445-.65.138-.143.264-.298.321-.495a.36.36 0 0 1 .149-.19.707.707 0 0 0 .255-.354.63.63 0 0 1 .23-.322c.211-.141.36-.34.504-.544.057-.08.115-.156.18-.23.176-.197.362-.38.47-.627a.437.437 0 0 1 .091-.123c.164-.165.292-.356.437-.536.187-.231.38-.46.544-.709.07-.108.176-.144.305-.082.05.024.096 0 .124-.041.071-.11.176-.209.18-.347.008-.191.124-.303.273-.379.098-.05.164-.115.181-.222a.246.246 0 0 1 .1-.157 38.28 38.28 0 0 1 1.606-1.253c.253-.187.51-.363.783-.519.144-.08.276-.178.412-.272.448-.312.905-.615 1.377-.89.812-.474 1.665-.87 2.44-1.41.013-.01.034-.007.049-.016.277-.147.552-.294.849-.403.232-.086.457-.18.684-.28a17.883 17.883 0 0 1 1.763-.676 48.005 48.005 0 0 1 2.81-.783c.513-.13 1.04-.217 1.558-.322a21.67 21.67 0 0 1 1.616-.264c.672-.081 1.344-.122 2.019-.18.164-.015.331-.041.495-.042.644-.004 1.284-.007 1.928 0 .827.008 1.65.1 2.473.181.659.065 1.31.158 1.944.355.048.014.101.021.149.033.544.137 1.094.254 1.632.412.665.195 1.317.42 1.978.634a9.285 9.285 0 0 1 1.549.66c.174.094.355.184.536.263.591.258 1.163.55 1.73.857.158.086.306.201.503.198.06 0 .125.041.181.074.128.077.25.158.38.24.024-.005.059 0 .082-.017.204-.151.413-.064.618-.008.209.194.484.28.717.437.1.067.178.134.223.247.032.083.105.125.19.148.094.027.188.054.28.091.342.139.626.372.881.635.097.201.273.323.429.47a.538.538 0 0 0 .346.164c.06.004.126.05.173.091.162.142.32.292.478.437.086.079.175.136.305.132.166-.004.265.127.371.23.063.062.056.146.058.231 0 .064.03.127.05.19.017.061.099.085.164.05.014-.009.019-.026.033-.034.112-.07.158-.076.214-.016.147.155.336.265.462.445.044.063.128.102.198.156l-.033.19c.015.029.02.06.04.082.18.196.337.4.43.66.07.198.212.377.378.519.044.039.097.027.14 0 .028-.017.043-.044.066-.066.079-.072.15-.067.182.025.026.077.028.17.074.23.12.158.263.307.395.454.047.05.106.068.173.074.049.004.097.018.157.033.187.284.395.563.651.8.11.1.23.187.346.28.212.039.338.202.478.337.203.194.373.422.618.57.042.024.074.062.108.098.389.429.865.772 1.244 1.212.042.049.09.094.148.123.224.115.371.317.553.478.018-.06.023-.123-.017-.173-.11-.142-.215-.294-.379-.387a.528.528 0 0 1-.173-.157 1.28 1.28 0 0 0-.28-.288c-.065-.05-.144-.097-.182-.165-.172-.314-.468-.501-.725-.725-.262-.229-.474-.505-.742-.726-.022-.02-.035-.06-.04-.09-.005-.025.003-.048.007-.074.102.014.165.088.24.148.062.051.117.128.189.148.301.085.489.318.709.511.042.124.153.165.263.198.068.02.11.075.116.14.017.173.086.28.272.28.046 0 .104.014.14.042.1.076.191.165.288.247.005-.065.02-.126.017-.19-.001-.065-.02-.133-.025-.198-.001-.012.02-.037.033-.04.029-.009.07-.02.09-.009a.279.279 0 0 1 .1.1c.072.128.133.265.206.395.049.088.117.157.23.156a.349.349 0 0 1 .264.132c.088.099.166.2.256.297.077.084.148.19.247.239.172.086.286.219.387.37.083.124.174.246.264.363a.659.659 0 0 1 .157.404c0 .103.06.181.131.256.103.105.216.209.297.33.07.1.139.182.264.205.04.008.08.053.107.091.16.228.319.457.47.692.238.377.544.704.824 1.047.008.01.03.014.041.008.012-.005.028-.03.025-.041a7.247 7.247 0 0 0-.371-1.072c-.053-.12-.138-.23-.173-.354-.083-.29-.247-.538-.388-.8-.109-.203-.227-.404-.313-.618a3.46 3.46 0 0 0-.28-.576.71.71 0 0 1-.115-.371c-.005-.27-.198-.443-.371-.618-.02-.02-.06-.016-.091-.025-.131-.043-.182-.086-.165-.198.026-.16.001-.289-.115-.404-.047-.045-.082-.108-.116-.165-.07-.117-.159-.208-.305-.23-.065-.01-.112-.062-.131-.132-.036-.126-.078-.256-.116-.396-.065-.041-.138-.078-.198-.132-.072-.065-.128-.145-.197-.214-.41-.41-.468-.478-.759-.956a.938.938 0 0 0-.115-.157c-.132-.145-.23-.326-.404-.436-.05-.032-.08-.098-.107-.157-.042-.09-.063-.192-.107-.28-.066-.134-.146-.27-.289-.322-.17-.061-.263-.189-.362-.321-.159-.209-.327-.407-.454-.643-.148-.276-.44-.45-.61-.717a.447.447 0 0 0-.14-.14c-.162-.098-.256-.249-.362-.396-.067-.093-.129-.195-.206-.28-.357-.389-.718-.77-1.072-1.162-.31-.341-.616-.686-.914-1.038-.063-.074-.099-.175-.14-.264-.011-.024-.004-.052 0-.083.04.013.082.03.123.042.056.015.109.027.165.04a.542.542 0 0 0-.173-.387.81.81 0 0 0-.198-.14.448.448 0 0 1-.264-.28.485.485 0 0 0-.214-.264c-.102-.066-.139-.176-.19-.28-.033-.07-.016-.092.091-.123.087-.026.108-.07.066-.132-.036-.055-.07-.113-.115-.157a2.566 2.566 0 0 1-.313-.379 3.015 3.015 0 0 0-.223-.264c-.123-.133-.253-.263-.38-.395-.146.029-.256-.017-.304-.173-.004-.014-.026-.02-.041-.033h-.198c-.184-.135-.354-.286-.429-.52-.004-.015-.016-.027-.024-.04-.025-.041-.076-.033-.124.016-.149.148-.154.14-.256-.05a.563.563 0 0 0-.082-.115.186.186 0 0 0-.223-.041c-.166.079-.183.08-.255-.066-.087-.178-.18-.362-.272-.536a.407.407 0 0 0-.124-.148.884.884 0 0 1-.33-.355.358.358 0 0 0-.14-.132.61.61 0 0 1-.214-.197.503.503 0 0 0-.272-.206c-.09-.034-.173-.094-.255-.149a4.577 4.577 0 0 1-.28-.206c-.058-.044-.116-.06-.182-.033-.07.03-.13 0-.19-.033-.04-.024-.083-.056-.131-.016-.06.049-.121.042-.181.008-.271-.154-.58-.245-.841-.42a.288.288 0 0 0-.14-.034c-.028 0-.065.02-.083.042-.018.023-.016.06-.024.09-.03.103-.098.143-.173.1-.156-.09-.324-.148-.462-.273a.347.347 0 0 0-.23-.082c-.18.019-.279-.063-.347-.215-.033-.075-.083-.139-.115-.214a.399.399 0 0 0-.198-.214 11.654 11.654 0 0 0-.404-.181c-.021-.01-.058.008-.082.024-.037.025-.03.1.008.132.012.01.019.026.033.033.167.082.27.243.412.355.007.007.008.033 0 .04-.022.02-.052.053-.074.05-.048-.005-.112-.017-.14-.05-.2-.225-.484-.274-.75-.354-.14-.041-.3-.003-.43-.057-.13-.058-.25-.164-.386-.223-.093-.041-.176-.077-.28-.058a.368.368 0 0 1-.24-.049.31.31 0 0 0-.239-.017c-.145.04-.257-.008-.33-.14-.04-.073-.082-.149-.172-.173a.454.454 0 0 1-.24-.165 1.83 1.83 0 0 0-.205-.214.345.345 0 0 0-.165-.09c-.261-.038-.524-.124-.792-.116-.024.001-.062.03-.065.05a.098.098 0 0 0 .033.082c.12.086.297.064.403.181.018.02.016.06.017.091 0 .011-.02.027-.033.033a.225.225 0 0 1-.23 0c-.187-.107-.362-.245-.553-.338-.192-.092-.402-.145-.602-.222-.076-.03-.15-.077-.222-.116-.029-.015-.061-.035-.091-.033-.026.003-.046.029-.066.05-.01.01-.012.033-.016.05-.035.14-.087.167-.19.073-.193-.177-.421-.254-.667-.288-.31-.045-.627-.065-.94-.09-.23-.02-.461-.049-.692-.042-.528.014-1.054.02-1.583 0zM92.3 18.86c-.001.005-.007.011-.008.016l.016-.008-.008-.008zM74.35 1a.184.184 0 0 1 .165.057c.02.021.04.067.033.09-.007.024-.046.036-.075.05-.013.007-.034.007-.049.008a.176.176 0 0 1-.157-.099c-.019-.038-.014-.073.025-.09a.177.177 0 0 1 .058-.017zm5.72 1.936a.545.545 0 0 1 .337.264c.005.01 0 .03-.008.04-.008.013-.029.027-.041.025-.047-.007-.097-.007-.132-.033a1.567 1.567 0 0 1-.214-.197c-.011-.013.01-.054.016-.083.015-.004.03-.02.041-.016zm1.326.725c.124.028.24.079.33.173.008.01.01.028.008.041-.003.014-.015.04-.025.042a.344.344 0 0 1-.363-.149c-.007-.012-.015-.03-.008-.04.015-.024.038-.045.058-.067zm-.478.148c.012.004.03.001.041.008.029.02.03.046 0 .058-.018.008-.05-.005-.074-.016-.007-.004-.015-.035-.008-.042.007-.01.027-.004.041-.008zm.322.207l-.008.024-.025-.016.033-.008zm3.667 2.25c.02-.01.057 0 .074.016.019.019.024.054.033.082-.018.021-.036.041-.058.058-.007.004-.033.001-.04-.008a.18.18 0 0 1-.042-.082c-.003-.023.014-.058.033-.066zm.536.354c.03.063.061.124.09.19.003.007-.005.027-.016.032-.014.007-.031.008-.041 0-.024-.017-.055-.04-.066-.065-.029-.06 0-.109.033-.157zm.18.89c.078.07.162.134.24.206.121.11.24.221.354.338.026.027.026.087.025.132 0 .036-.083.035-.123 0-.025-.022-.052-.042-.075-.066-.133-.143-.265-.29-.395-.437-.046-.052-.039-.11-.025-.173zm1.212 1.162l.042.058c-.027.014-.045.014-.058-.017-.004-.007.01-.029.016-.04zm67.722.272c-.027-.004-.055-.003-.074.008-.122.07-.231.154-.346.24-.048.035-.054.09-.033.147a.703.703 0 0 1 .05.206c.007.18-.09.333-.149.495-.068.188-.166.368-.247.552a.235.235 0 0 0-.025.14c.024.102-.016.185-.066.264-.09.145-.132.31-.18.47a.778.778 0 0 0-.042.264.581.581 0 0 1-.099.387 1.046 1.046 0 0 0-.165.321c-.072.3-.184.586-.297.874-.103.268-.16.554-.239.832-.047.167-.096.335-.14.503-.032.125-.062.245-.09.37a.193.193 0 0 0 .008.083c.024.079.003.15-.025.223-.016.041-.018.088-.025.132.028.005.042.01.05.008a.326.326 0 0 0 .05-.017c.13-.057.15-.045.14.091-.004.03-.005.068-.009.099-.014.146-.014.293-.041.437-.05.271-.133.535-.165.807-.029.243-.106.466-.156.701-.013.056-.045.087-.108.074-.02-.004-.036.007-.057.008-.047.093-.026.18.041.23.12.092.098.199.058.314-.054.155-.114.305-.165.462-.03.093-.031.203-.074.288-.093.18-.059.396-.19.56.011.131-.063.237-.099.355-.024.081-.053.165-.074.247-.007.03.011.059.017.09.029-.014.065-.017.082-.04.035-.052.061-.11.09-.165.03-.054.052-.115.15-.116-.005.045-.005.082-.017.116-.024.072-.055.143-.083.214-.01.03-.035.07-.025.09.07.144-.005.26-.05.388-.025.078-.048.136-.123.173-.054.027-.095.073-.082.14.01.062.065.061.115.066.004 0 .013.007.017.008.066.02.09.054.057.116-.02.038-.054.073-.082.107-.027.033-.054.062-.1.115.158.039.14.143.125.247-.013.095-.022.11-.116.116-.1.005-.123.018-.14.115-.01.062-.012.132-.033.19-.056.167-.07.339-.074.51a.653.653 0 0 1-.066.298c-.015.027-.023.052-.033.082-.033.09-.028.111.05.173.023.02.051.04.057.066.024.117.058.235-.016.346-.042.065-.04.124 0 .19a.316.316 0 0 1 0 .354c-.045.07-.065.14-.025.214.04.078.039.144-.025.206-.04.04-.044.084-.008.132.041.054.042.109.033.173-.029.216-.056.435-.082.651-.004.04-.01.084-.008.124.01.306-.017.605-.107.898a.388.388 0 0 0-.017.116c.001.074-.008.148-.057.206-.05.058-.051.121-.025.19.014.036.032.079.025.115-.034.17-.08.333-.116.503-.025.12-.054.247-.074.37-.005.029.015.06.016.091.007.125.013.247.017.371.003.07.007.145.016.214.016.124.03.24.05.363l.099.626c.015.101.037.197.057.297.027.13.042.27.083.396.063.2.145.387.214.585.049.139.095.28.14.42.031.098.05.21.1.297.183.32.308.674.518.98.074.108.144.211.223.314.054.072.108.08.173.016a.753.753 0 0 0 .148-.214.928.928 0 0 1 .24-.322c.067-.058.132-.121.189-.19a.481.481 0 0 0 .099-.156c.044-.135.078-.272.107-.412.026-.116.033-.245.058-.362.033-.16.03-.324.107-.478.033-.068.032-.152.04-.231.009-.072-.003-.145.009-.214.034-.188.074-.377.157-.553.027-.06.033-.132.049-.197.06-.242.122-.484.181-.726.003-.013.001-.02.008-.033.06-.104.112-.216.182-.313.077-.108.122-.231.164-.354.046-.13.088-.26.165-.371.151-.22.276-.457.371-.7.092-.234.187-.464.322-.677a.78.78 0 0 0 .074-.156c.07-.204.147-.4.255-.585.04-.07.067-.15.1-.223.046-.11.087-.221.14-.33.043-.092.11-.177.148-.271.079-.2.126-.406.18-.61.07-.257.173-.504.265-.75a.41.41 0 0 1 .082-.132c.038-.042.096-.067.148-.025.045.036.044.083.017.132-.012.024-.034.05-.033.074 0 .03.014.06.025.09.023-.016.06-.027.074-.049.028-.044.044-.091.066-.14.027-.06.06-.12.082-.181.026-.071.045-.15.066-.223.023-.08.048-.156.066-.239.067-.327.13-.661.198-.989.012-.056.038-.11.057-.165.077-.21.165-.41.14-.642a.365.365 0 0 1 .008-.132c.082-.274.17-.55.248-.824.05-.176.106-.356.132-.536.036-.264.026-.533.14-.783.01-.023.01-.048.016-.074.05-.235.07-.475.206-.684a.274.274 0 0 0 .025-.066l.181-.676c.019-.068.028-.142.058-.206.081-.175.147-.352.173-.544.007-.043.029-.08.041-.124.052-.184.116-.364.157-.552.04-.182.065-.367.082-.552.012-.14.034-.3-.008-.428a.964.964 0 0 1-.058-.413 2.982 2.982 0 0 0-.016-.816.39.39 0 0 1 0-.131.606.606 0 0 0-.074-.363c-.016-.032-.041-.065-.05-.099-.073-.28-.233-.516-.354-.775-.058-.124-.154-.235-.173-.379a.63.63 0 0 0-.05-.206c-.067-.139-.133-.278-.222-.404-.26-.368-.52-.741-.84-1.063a6.408 6.408 0 0 0-.94-.766c-.266-.182-.57-.258-.874-.33a2.274 2.274 0 0 1-.263-.082c-.058-.023-.107-.063-.165-.083-.024-.008-.055-.02-.083-.025zM8.487 13.608L0 13.616V61.45h5.596V28.615L10.4 61.45h4.508l4.83-32.884V61.45h5.595V13.616l-8.497-.008L12.658 44.3zm98.288.016v39.08c0 5.676 3.951 9.486 9.124 9.486s8.983-3.81 8.983-9.486v-39.08h-6.032v39.37c0 2.011-1.012 3.164-2.951 3.164-1.796 0-2.802-1.153-2.802-3.165v-39.37h-6.321zm21.478 0l6.758 47.852h6.248l6.898-47.852h-5.967l-3.948 33.906-3.52-33.906h-6.47zm-37.087.619c.001.003.007.004.008.008-.003 0-.005.007-.008.008 0-.005.003-.007 0-.017zm.025.04c.007.016.014.032.025.042.366.31.623.709.882 1.104.005.01-.001.03-.008.042-.02.032-.055.04-.083.008-.262-.315-.521-.634-.783-.948-.063-.077-.042-.16-.033-.248zm-2.893.29c.015.02.03.035.042.057 0 .003-.014.017-.025.025-.014-.021-.03-.036-.041-.058-.001-.003.014-.017.024-.025zm64.45.172a.082.082 0 0 1 .042 0c.017.005.028.04.04.058-.01.028-.011.05-.024.066a.392.392 0 0 0-.082.222c-.001.013 0 .027-.008.033-.026.02-.06.056-.083.05-.023-.005-.056-.063-.05-.083.04-.112.09-.214.14-.321.005-.008.012-.02.026-.025zm-63.839.248c.021-.004.057.025.075.049.075.1.051.225.057.338-.02.022-.035.054-.057.058a.103.103 0 0 1-.083-.033c-.048-.065-.103-.132-.132-.206a.187.187 0 0 1 .017-.14c.023-.035.08-.056.123-.066zm2.25.107a.072.072 0 0 1 .042 0c.02.01.028.042.04.065-.023.007-.052.015-.073.008-.021-.005-.034-.036-.05-.057.014-.003.028-.013.041-.017zm.314.288a.51.51 0 0 1 .099.074c.01.01-.01.049-.017.074-.027-.008-.071-.01-.074-.025-.01-.038-.007-.082-.008-.123zm.321.363c.014.005.03.008.041.016.08.055.102.126.083.214-.05-.051-.104-.099-.149-.156-.008-.011.017-.049.025-.074zm.157.239c.023.024.014.027-.017.008.005-.003.016-.01.017-.008zm.535.033c.007 0 .01.003.017.008.018.012.023.05.033.074a.069.069 0 0 1-.033.016c-.018-.018-.046-.035-.05-.057-.005-.028.014-.042.033-.042zm-.239.214c.028.035.066.066.083.107.008.022-.014.065-.033.083-.011.01-.054-.001-.074-.017-.04-.03-.07-.08-.05-.132.008-.02.042-.021.074-.04zm-.923.437c.017.003.036 0 .05.008.117.063.222.147.264.28.004.018-.027.066-.042.066a.304.304 0 0 1-.14-.033c-.107-.062-.147-.173-.165-.289 0-.008.021-.022.033-.033zm1.797.725c.04.007.075.028.09.066-.028-.022-.061-.044-.09-.066zm.527.058c.095.035.147.126.14.23-.01.013-.022.031-.032.033-.03.005-.07.014-.091 0-.076-.05-.085-.13-.083-.214.001-.018.052-.054.066-.05zm.742 1.162c.007.007.024.01.025.016 0 .007-.005.018-.008.025-.007-.012-.01-.029-.016-.041zm.033.066l.033.008c-.008.003-.021.003-.025 0l-.008-.008zm-27.04 11.01l-3.784.29.05 7.532s4.557.228 5.637.297c1.069.069 2.213.093 2.555 1.384.37 1.405-1.28 2.44-1.838 2.44 1.692 0 1.31-.008 2.58-.008 1.038-.191 2.218-1.439 2.068-3.297-.196-2.453-2.081-3.033-4.088-3.033l-3.18.008v-5.612zm24.42 20.737c.004-.001.03.019.032.033.014.066.028.137.09.173.085.05.102.122.083.206-.09.385-.203.768-.403 1.112-.042.072-.078.141-.116.215-.115.218-.16.471-.313.667-.143.181-.284.364-.404.56-.023.038-.065.069-.099.1-.004-.041-.02-.087-.008-.124.038-.126.094-.248.14-.37.023-.063.06-.119.066-.182.034-.335.187-.632.322-.932.1-.225.187-.449.247-.692.062-.251.192-.484.297-.725.008-.02.04-.032.065-.041zM42.17 65.547c.065.02.113.066.124.132.004.02-.023.053-.041.074-.007.007-.037-.001-.05-.008-.06-.033-.098-.078-.09-.149 0-.018.035-.032.057-.05zm.7.288c.01.001.03.003.034.008.007.011.004.03 0 .041-.004.011-.016.016-.025.025-.007-.01-.015-.02-.017-.033a.127.127 0 0 1 .008-.041zM58.44 72.7c.41-.007.72.11 1.013.264.117.062.236.12.363.157.052.015.072.077.05.115-.028.047-.064.073-.116.074-.237.003-.462-.04-.643-.206a.456.456 0 0 0-.272-.115l-.437-.041c-.049-.005-.102-.008-.148-.025a.293.293 0 0 1-.115-.074c-.03-.032.054-.112.131-.124.082-.014.16-.023.174-.025zm1.805.454c.007-.004.014 0 .024 0 .026-.001.048.014.074.024-.022.019-.04.045-.065.058-.008.004-.034-.005-.042-.016-.017-.026-.01-.056.008-.066zm25.368-60.698l.034-.015-.003.034-.031-.02m1.738-3.388l.023-.028s-.014.01-.015.014l-.008.014M35.833 59.463c.01 0 .02.003.03.004-.01-.03-.016-.026-.019.013l-.01-.018m.491.912l.032-.004c-.004-.028-.01-.023-.02.014l-.012-.01m1.678.716l-.019.018.017-.025v.008m.549.924c.04.038.082.076.123.112l.014-.01-.127-.112-.01.01m53.436-44.219l.037-.012-.025.016-.012-.003m.308 1.088a.146.146 0 0 1 .139.093.17.17 0 0 0 .014-.013l-.138-.091-.014.01m-46.5-12.11v-.036l.005.024-.005.013m.007-.012l-.023.004.016.008.007-.012m-4.78 58.306l.123.092.017-.014c-.07.008-.122-.008-.13-.09l-.011.012m.125.09c.005.009.012.017.018.025l.02-.018c-.006-.007-.014-.013-.023-.019l-.015.013m52.223-45.565l.015-.067a1.473 1.473 0 0 0-.011.07l-.004-.003M43.519 8.272c-.022.012-.044.027-.068.036-.004.001-.016-.02-.025-.031.022-.01.043-.026.066-.034.005 0 .018.019.027.029M32.15 52.339l.012.04-.032-.006.02-.034m-3.22-7.325l.04.071c-.075-.004-.035-.048-.029-.081l-.01.01m.012-.011l-.075-.025.017-.031.045.066.012-.01M87.155 8.814c.116.035.204.091.174.235l.007-.013c-.095-.05-.183-.104-.169-.233l-.01.01M36.321 60.358l-.021-.093c-.003-.016-.01-.04-.003-.047.03-.026.048-.01.04.037-.003.032-.018.062-.028.092l.012.01m-.494-.904c.03-.003.06-.008.089-.01a.083.083 0 0 1 .043.008c.008.003.011.018.017.027-.026-.003-.053-.003-.078-.01-.028-.008-.054-.023-.081-.033l.01.018m52.621-49.365c.02.019.042.038.06.06.01.01.019.03.014.036-.019.028-.038.019-.047-.023-.007-.029-.011-.057-.017-.086l-.01.013M29.238 46.986c.023.038.043.079.068.116.023.034.022.07 0 .065-.023-.005-.052-.037-.057-.062-.01-.04-.003-.086-.001-.13l-.01.01M44.83 67.78l.054.258c-.084-.081-.043-.176-.057-.262l.003.004M27.783 35.434c-.004.014-.007.039-.012.04-.027.002-.054-.002-.081-.002.004-.013.004-.032.014-.04.029-.027.057-.024.08.003M86.758 7.822c.077.011.104.074.126.134.007.02-.017.052-.028.079-.025-.011-.07-.02-.072-.034-.01-.063-.008-.127-.01-.19l-.015.012M38.546 61.979c-.118 0-.158-.087-.191-.177-.004-.011.007-.03.016-.04.01-.008.029-.012.039-.007.096.048.135.129.126.234l.01-.01m-3.817-3.952c-.014.011-.025.026-.038.028a.07.07 0 0 1-.047-.01.188.188 0 0 1-.085-.166c0-.015.013-.031.023-.04.011-.01.035-.02.043-.014a.214.214 0 0 1 .104.202M88.15 9.708c.082.016.133.072.17.14.045.08.085.163.128.245l.01-.014c-.171-.07-.299-.175-.297-.382l-.01.01m6.01 10.843c-.02.1.052.14.117.187.053.038.103.08.098.154a.06.06 0 0 1-.02.037c-.011.01-.03.02-.04.017-.116-.046-.188-.142-.182-.253 0-.048.017-.095.027-.142M86.773 7.81c-.086-.073-.172-.144-.254-.222-.01-.01.003-.067.02-.076.021-.011.066-.005.083.01a.41.41 0 0 1 .137.301l.014-.012M38.66 62.104c.104.144.21.285.31.432.01.017-.005.06-.02.086-.02.037-.103.02-.118-.025l-.159-.503-.013.01M88.162 9.7c-.016 0-.035.008-.048.003a1.217 1.217 0 0 1-.5-.37c-.007-.008-.003-.031.005-.042.007-.01.03-.022.037-.019.074.033.158.056.215.108.108.095.217.195.28.33l.01-.01M31.018 50.973c.013.01.03.018.038.03.179.258.306.544.434.827.01.02-.02.058-.033.086-.015-.007-.036-.008-.044-.02a2.308 2.308 0 0 1-.395-.788c-.01-.045.005-.096.01-.146l-.01.01m59.365-38.534c.02-.01.038-.027.047-.023.254.112.427.3.523.56.01.024 0 .055-.001.084-.03-.004-.068.004-.086-.011a2.094 2.094 0 0 1-.483-.609M29.25 46.98a.516.516 0 0 1-.25-.224c-.141-.238-.253-.488-.247-.778.082.004.097.074.133.116a.5.5 0 0 1 .099.166c.075.247.205.476.254.732l.01-.012m1.777 3.981c-.03-.005-.068 0-.088-.018a.395.395 0 0 1-.092-.113 12.19 12.19 0 0 1-.273-.519.944.944 0 0 1-.077-.23c-.01-.059-.063-.12.003-.196.18.197.278.44.408.664.075.13.094.276.107.423l.011-.01m60.282-37.486c.03 0 .07-.012.09.001.245.193.442.438.63.684.168.22.311.461.463.695.041.063.032.182-.004.175-.043-.008-.098-.028-.121-.06-.342-.481-.706-.945-1.067-1.411-.012-.017.005-.057.01-.085m2.067 6.125c.038.03.104.052.111.089.084.36.341.595.588.837.02.019.06.018.09.027v-.001c-.206.028-.206.028-.31-.068-.334-.315-.673-.625-1.003-.946-.174-.17-.355-.343-.417-.595l-.012.012c.139.012.25.056.305.206.026.073.09.138.15.19.114.096.233.185.359.264.028.019.09-.011.134-.019l.004.004" stroke-width=".362" fill="#fff"/>
</svg>
