<svg enable-background="new 0 0 1700 622" version="1.1" viewBox="0 0 755.91 275.3" xml:space="preserve" xmlns="http://www.w3.org/2000/svg"><path d="m230.99 121.75c-1.365-11.116-8.6538-61.727-41.421-60.373-28.279 1.4919-36.507 28.015-45.256 48.76-10.425 28.392-14.044 34.183-28.825 34.183-15.981-0.74921-25.638-23.031-32.082-32.398-5.2253-7.7828-19.092-31.791-38.887-31.044-10.776 0-27.618 5.4846-38.242 32.726-9.6163 29.281-5.9738 58.798-3.4569 71.465 8.4125 31.364 13.348 49.84 28.134 47.719 15.894-1.1174 7.0487-25.212 2.932-37.84-2.6323-7.8664-11.873-34.063-1.2933-40.171 11.11-7.1661 21.179 19.996 31.693 36.074 9.4728 16.48 15.729 35.532 47.974 36.143 20.154 0 31.986-11.618 37.833-22.687 8.6404-17.848 19.132-78.239 41.922-78.811 16.624 0.66101 12.169 28.401 11.938 38.468-0.65397 11.169-8.1097 34.348 10.549 36.626 21.719 0.37459 19.218-58.535 16.49-78.843z" stroke-width="6.4316"/><g transform="matrix(.71436 0 0 .71436 281.57 -12.722)"><path d="m148.72 221.21 8.67 25.461c4.691 13.768 8.879 24.779 9.425 24.779 9e-3 0 0.017-4e-3 0.024-0.01 0.6-0.53 17.57-49.811 17.57-49.811h32.89l-39.68 115.62h-22.86s-24.4-70.471-24.3-70.739l-25.47 69.851h-22.63l-39.18-115.15 32.73 0.021s17.929 50.821 18.168 50.821c1e-3 0 1e-3 -1e-3 2e-3 -2e-3l17.89-50.841h36.751m-116.72-8.006 3.601 10.584 39.18 115.15 1.845 5.424h33.957l19.603-53.76c1.524 4.434 3.171 9.213 4.818 13.988 6.089 17.655 12.191 35.277 12.191 35.277l1.864 5.383h34.268l1.854-5.403 39.68-115.62 3.637-10.598h-49.8l-1.858 5.396c-2.974 8.635-6.921 20.031-10.296 29.676-0.509-1.463-1.039-3.001-1.587-4.611l-8.669-25.46-1.846-5.421h-48.143l-1.881 5.345-10.453 29.706c-3.453-9.706-7.456-21.017-10.516-29.691l-1.882-5.334-5.657-4e-3 -32.73-0.021z"/><path d="m655.26 220.76-0.075 30.305s-32.643-0.109-49.239-0.109c-5.521 0-9.266 0.013-9.444 0.045-2.86 0.521-4.681 6.602-3.87 9.271 0.399 1.35 3.391 5.76 6.63 9.81 3.229 4.051 8.54 10.681 11.78 14.729 8.319 10.381 9.46 12.43 10.229 18.391 1.25 9.681-3.329 20.16-11.829 27.07-8.518 6.93-8.145 6.979-71.383 6.979h-2.777c-38.46-0.01-58.8-0.329-61.761-0.989-5.26-1.19-13.64-8.03-35.79-29.28-7.967-7.636-15.309-14.322-15.686-14.324-0.01 0-0.015 6e-3 -0.015 0.016l-0.261 44.579-35.899-0.159-0.221-114.98h80.061c24.13 0.871 40.46 24.91 37.21 40.24-0.74 3.479-2.62 8.521-4.181 11.2-3.21 5.5-11.38 12.56-18.011 15.591-2.449 1.108-4.449 2.398-4.449 2.858 0 1.71 8.061 9.649 11.08 10.91 2.579 1.079 10.09 1.319 43.21 1.319 3.882 0 7.408 2e-3 10.608 2e-3 33.293 0 31.618-0.24 34.19-5.741 1.801-3.83 0.431-6.12-12.239-20.39-16.051-15.971-14.37-23.621-14.48-29.271-0.229-6.77 5.102-28.069 32.812-28.069l73.8-3e-3m-215.07 53.12c15.37 0 18.49-0.239 21.761-1.66 11.04-4.8 11.63-18.979 1.04-25.271-2.319-1.381-5.3-1.609-21.96-1.7l-19.279-0.101c0.159 0.15-0.061 27.57-0.061 27.57s4.829 1.162 18.499 1.162m223.09-61.12h-81.821c-16.032 0-25.515 6.328-30.646 11.637-8.347 8.633-10.313 19.504-10.162 24.629 8e-3 0.427 3e-3 0.865-2e-3 1.322-0.073 8.329 1.154 17.758 16.659 33.246 3.065 3.452 8.193 9.239 10.131 12.115-4.238 0.521-14.98 0.521-26.262 0.521h-4.792l-5.816-2e-3c-19.904 0-36.688-0.057-40.128-0.736-0.481-0.314-1.156-0.854-1.898-1.498 6.877-4.235 13.83-10.799 17.104-16.412 1.987-3.413 4.178-9.243 5.098-13.568 2.04-9.625-1.325-21.236-9.001-31.068-8.956-11.471-21.985-18.334-35.746-18.83l-0.145-6e-3h-88.222l0.016 8.017 0.221 114.98 0.016 7.949 7.949 0.035 43.887 0.194 0.047-7.988 0.155-26.706c0.733 0.696 1.491 1.419 2.269 2.165 24.227 23.24 32.359 29.679 39.562 31.308 1.979 0.441 5.253 1.172 63.523 1.188h2.779c31.546 0 47.38 0 56.799-0.91 10.789-1.043 14.259-3.49 19.461-7.725l0.173-0.141c10.685-8.687 16.323-21.83 14.715-34.3-1.048-8.11-3.194-11.479-11.922-22.368l-2.594-3.24c-3.04-3.799-6.713-8.387-9.175-11.475-1.986-2.484-3.546-4.689-4.487-6.133 1.236-3e-3 2.841-5e-3 4.918-5e-3 16.395 0 48.887 0.108 49.213 0.11l8.008 0.026 0.02-8.008 0.075-30.306zm-233.54 52.828c0.013-2.021 0.025-4.287 0.038-6.557 0.01-2 0.019-4.004 0.022-5.84l11.187 0.058c6.429 0.035 16.103 0.088 17.989 0.623 2.407 1.461 3.75 3.72 3.604 6.06-0.08 1.264-0.682 3.588-3.821 4.951-1.75 0.76-4.54 0.997-18.57 0.997-4.45 0-7.883-0.129-10.449-0.292z"/><path d="m312.91 220.29 40.29 115.92-32.83 0.15-5.45-17.41-58.7-0.471-5.18 17.431-32.5-0.341 39.78-115.23 54.59-0.05m-26.401 16.996c-0.083 0.333-5.144 14.219-10.222 28.104-5.12 14-10.257 28-10.328 28.109 0 1e-3 -1e-3 1e-3 0 1e-3v-1e-3c0.136-0.04 18.316-0.08 29.968-0.08 5.453 0 9.475 9e-3 9.55 0.029 1e-3 4e-3 1e-3 5e-3 1e-3 5e-3v-3e-3l-1e-3 -2e-3c-0.204-0.529-18.909-55.486-18.968-56.162 1e-3 -4e-3 1e-3 -6e-3 1e-3 -6e-3 -1e-3 0-1e-3 2e-3 -1e-3 6e-3m32.088-25.001-5.693 5e-3 -54.59 0.051-5.696 5e-3 -1.859 5.386-39.78 115.23-3.623 10.494 11.102 0.115 38.533 0.404 1.719-5.782 3.466-11.662 46.854 0.375 3.708 11.848 1.765 5.638 5.907-0.026 32.829-0.15 11.195-0.052-3.676-10.574-40.29-115.92zm-41.123 73.142c1.515-4.129 3.556-9.71 6.327-17.289 0.869-2.376 1.664-4.551 2.393-6.545 0.663 1.956 1.385 4.084 2.169 6.398 0.646 1.906 3.485 10.27 5.92 17.428-7.24 0-12.69 1e-3 -16.809 8e-3z"/><path d="m326.49 81.928v28.6h-57.28v87.47h-34.15v-87.54l-66.86 0.19c-8.06 0-9.14 6.42-9.14 8.88 0 3.02 1.97 6.04 12.79 19.74 7.02 8.9 13.47 17.78 14.32 19.72 4.64 10.68-1.36 27.32-12.29 34.08-7.79 4.813-6.459 4.931-64.308 4.931h-71.662v-32.13h97.9l2.89-2.01c1.95-1.36 3.08-3.23 3.51-5.79 0.6-3.68 0.29-4.16-11.8-17.78-14.29-16.1-15.8-19.04-15.06-29.32 0.84-11.73 11.3-28.77 29.58-28.77l181.56-0.271m8-8.012-8.013 0.012-181.56 0.27c-10.458 0-20.171 4.518-27.342 12.722-5.814 6.652-9.63 15.429-10.206 23.477-0.973 13.511 2.137 18.393 17.056 35.202 4.33 4.877 8.447 9.516 9.821 11.486-0.022 0.079-0.042 0.13-0.054 0.159-0.015 0.012-0.038 0.03-0.07 0.052l-0.822 0.572h-103.39v48.13h79.662c28.522 0 42.6-0.027 50.894-0.635 9.49-0.695 12.518-2.323 17.054-5.14l0.566-0.351c14.262-8.821 21.612-29.827 15.422-44.074-1.91-4.358-14.003-19.746-15.376-21.486-3.796-4.807-10.062-12.74-11.054-15.036 0.024-0.193 0.071-0.393 0.121-0.532 0.165-0.042 0.481-0.098 1.001-0.098l58.86-0.167v87.517h50.15v-87.47h57.28v-36.6z"/><path d="m419.55 82.857 40.18 116.22-32.77-0.18-5.32-17.41-58.439-0.26-5.221 16.77h-33.369l39.739-115.14h55.2m-46.811 73.621 39.801-0.05c1e-3 0 1e-3 1e-3 1e-3 1e-3 0.136 0-19.342-57.201-19.472-57.241-0.142-5e-3 -20.779 57.29-20.33 57.29m52.51-81.621h-66.6l-1.86 5.39-39.74 115.14-3.662 10.61h50.484l1.75-5.623 3.461-11.121 46.632 0.207 3.599 11.774 1.721 5.629 5.887 0.033 44.067 0.242-3.691-10.676-40.18-116.22zm-41.396 73.607c2.468-7.027 5.904-16.657 9.014-25.312 2.948 8.644 6.209 18.245 8.588 25.29z"/><path d="m532.4 82.857c25.921 0 43.91 0.37 47.37 0.97 8 1.39 15.23 5.66 20.65 12.22 5.67 6.86 6.97 10.14 7.71 19.54 1.061 13.27-5.25 24.72-17.7 32.15-3.63 2.17-7.359 4.28-8.29 4.7-1.43 0.65-1.239 1.27 1.32 4.27 1.649 1.93 4.51 4.68 6.35 6.11l3.36 2.61 62.08 0.89 0.609 31.68h-38.061c-29.439 0-38.86-0.27-41.62-1.2-4.13-1.4-14.069-9.82-34.271-29.04l-14.42-13.72 0.152 43.96h-37.043v-115.14h41.804m-5.458 51.77h19.671c19.141 0 19.739-0.06 22.47-2.11 4.881-3.66 6.609-7.43 6.091-13.22-0.53-5.97-2.83-9.08-8.601-11.58-3.25-1.42-6.381-1.65-21.721-1.65h-17.91v28.56m5.458-59.77h-49.8v131.14h53.071l-0.028-8.028-0.088-25.216 0.84 0.799c24.986 23.773 32.356 29.173 37.218 30.821 3.733 1.259 9.982 1.624 44.188 1.624h46.215l-0.156-8.154-0.609-31.68-0.148-7.734-67.136-0.962-1.245-0.967c-0.396-0.309-0.876-0.717-1.389-1.179 0.446-0.264 0.854-0.507 1.207-0.717 15.003-8.953 22.866-23.407 21.569-39.653-0.863-10.959-2.82-15.896-9.52-24-6.584-7.969-15.621-13.298-25.447-15.005-5.46-0.947-32.881-1.089-48.742-1.089zm2.542 39.21h9.91c14.027 0 16.806 0.233 18.518 0.981 3.25 1.408 3.58 2.091 3.835 4.957 0.256 2.848-0.097 3.994-2.922 6.112-0.093 0.069-0.164 0.123-0.223 0.166-1.865 0.345-8.786 0.345-17.447 0.345h-11.67z"/></g><rect x="266.41" width="3.6796" height="275.3" opacity=".99" style="paint-order:stroke markers fill"/></svg>
