<svg xmlns="http://www.w3.org/2000/svg" width="600" height="169.09">
    <path fill="#01DA95" d="M177.238 38.042v117.214a13.801 13.801 0 0 0 13.833 13.832h395.111a13.802 13.802 0 0 0 13.833-13.832V51.875a13.804 13.804 0 0 0-13.833-13.833H177.238z"/>
    <path fill="#FF0" d="M177.238 38.042h-.028.028z"/>
    <path fill="#FFF" d="M137.499 35.956c-.813-6.617-5.151-36.746-24.657-35.939C96.007.904 91.11 16.693 85.901 29.042c-6.205 16.902-8.359 20.349-17.158 20.349-9.514-.446-15.262-13.71-19.099-19.286-3.11-4.633-11.364-18.925-23.148-18.48-6.415 0-16.44 3.265-22.765 19.481C-1.994 48.537.174 66.107 1.672 73.648c5.009 18.671 7.946 29.67 16.748 28.407 9.462-.665 4.196-15.009 1.746-22.526-1.567-4.683-7.068-20.277-.771-23.913 6.613-4.266 12.607 11.903 18.866 21.474 5.64 9.81 9.363 21.151 28.559 21.516 11.997 0 19.041-6.916 22.521-13.505 5.144-10.625 11.389-46.576 24.955-46.916 9.896.394 7.245 16.907 7.107 22.9-.39 6.649-4.828 20.447 6.279 21.803 12.929.223 11.44-34.845 9.816-46.934l.001.002z"/>
    <g fill="#FFF">
        <path d="M210.077 72.677h13.269l14.993 39.724 14.996-39.724h13.269v63.617H254.79V97.036l-12.178 33.444h-8.546l-12.178-33.444v39.262h-11.814l.003-63.621zM274.167 112.66c0-3.332.515-6.422 1.545-9.27 1.029-2.908 2.545-5.423 4.544-7.543 1.999-2.121 4.423-3.787 7.271-4.999 2.908-1.212 6.211-1.817 9.906-1.817 3.696 0 6.968.605 9.815 1.817 2.908 1.212 5.362 2.878 7.361 4.999 2 2.12 3.515 4.635 4.544 7.543 1.03 2.848 1.546 5.938 1.546 9.27 0 3.333-.516 6.453-1.546 9.361-1.029 2.848-2.544 5.332-4.544 7.453-1.999 2.12-4.453 3.787-7.361 4.998-2.848 1.212-6.119 1.818-9.815 1.818-3.695 0-6.998-.606-9.906-1.818-2.847-1.209-5.271-2.875-7.271-4.996-1.998-2.121-3.513-4.605-4.543-7.453-1.031-2.924-1.546-6.047-1.546-9.373v.01zm11.815 0c0 1.879.242 3.666.727 5.363.546 1.695 1.303 3.18 2.272 4.453a11.562 11.562 0 0 0 3.544 3.09c1.454.727 3.09 1.09 4.908 1.09 1.817 0 3.423-.363 4.816-1.09a11.24 11.24 0 0 0 3.636-3.09c.969-1.272 1.696-2.758 2.181-4.453a17.43 17.43 0 0 0 .818-5.363c0-1.878-.273-3.666-.818-5.361-.484-1.697-1.212-3.182-2.181-4.454a10.302 10.302 0 0 0-3.636-2.999c-1.394-.787-2.999-1.182-4.816-1.182-1.818 0-3.454.395-4.908 1.182a10.533 10.533 0 0 0-3.544 2.999c-.97 1.272-1.727 2.757-2.272 4.454-.483 1.688-.726 3.477-.726 5.366l-.001-.005zM352.237 135.3c-.787.243-1.727.454-2.817.636-1.03.243-2.363.364-3.999.364-4.786 0-8.664-1.394-11.632-4.181-2.908-2.787-4.362-7.028-4.362-12.723V99.402h-7.09v-9.635h7.09v-11.45l11.269-7.089v18.54h12.088v9.634h-12.088v19.813c0 2.848.516 4.816 1.546 5.906 1.029 1.031 2.514 1.545 4.453 1.545 1.029 0 1.969-.121 2.817-.363.848-.242 1.757-.605 2.727-1.09l-.002 10.087zM354.504 112.66c0-3.332.516-6.422 1.545-9.27 1.03-2.908 2.545-5.423 4.544-7.543 2-2.121 4.423-3.787 7.271-4.999 2.908-1.212 6.21-1.817 9.906-1.817 3.695 0 6.968.605 9.815 1.817 2.908 1.212 5.362 2.878 7.361 4.999 1.999 2.12 3.514 4.635 4.544 7.543 1.03 2.848 1.545 5.938 1.545 9.27 0 3.333-.515 6.453-1.545 9.361-1.03 2.848-2.545 5.332-4.544 7.453-1.999 2.12-4.453 3.787-7.361 4.998-2.848 1.212-6.12 1.818-9.815 1.818-3.696 0-6.998-.606-9.906-1.818-2.848-1.209-5.271-2.875-7.272-4.996-1.998-2.121-3.513-4.605-4.543-7.453-1.033-2.924-1.55-6.047-1.55-9.373l.005.01zm11.815 0c0 1.879.242 3.666.728 5.363.545 1.695 1.303 3.18 2.271 4.453a11.577 11.577 0 0 0 3.545 3.09c1.454.727 3.09 1.09 4.907 1.09s3.424-.363 4.817-1.09a11.225 11.225 0 0 0 3.635-3.09c.97-1.272 1.697-2.758 2.182-4.453.545-1.697.817-3.484.817-5.363 0-1.878-.272-3.666-.817-5.361-.484-1.697-1.212-3.182-2.182-4.454a10.29 10.29 0 0 0-3.635-2.999c-1.394-.787-2.999-1.182-4.817-1.182-1.817 0-3.453.395-4.907 1.182a10.546 10.546 0 0 0-3.545 2.999c-.969 1.272-1.727 2.757-2.271 4.454-.486 1.695-.728 3.483-.728 5.361zM450.406 128.762c-1.212 1.878-3.091 3.605-5.635 5.18-2.484 1.576-5.756 2.363-9.815 2.363-3.817 0-7.513-.666-11.088-1.999a28.068 28.068 0 0 1-9.361-6.089c-2.727-2.727-4.907-6.12-6.544-10.18-1.575-4.059-2.362-8.815-2.362-14.268 0-5.453.817-10.21 2.453-14.27 1.697-4.059 3.938-7.422 6.726-10.087 2.849-2.727 6.09-4.756 9.726-6.089a31.457 31.457 0 0 1 11.359-2.09c3.515 0 6.726.515 9.635 1.545 2.908.969 5.452 2.363 7.634 4.18a23.652 23.652 0 0 1 5.635 6.362c1.515 2.423 2.696 5.089 3.544 7.998l-10.814 2.818c-1.515-3.637-3.545-6.545-6.089-8.725-2.484-2.182-5.665-3.272-9.543-3.272-2.545 0-4.938.455-7.18 1.363-2.182.848-4.12 2.151-5.816 3.908-1.636 1.757-2.938 3.999-3.908 6.726-.909 2.727-1.363 5.938-1.363 9.633 0 3.818.454 7.09 1.363 9.816.97 2.727 2.272 4.969 3.908 6.726s3.544 3.06 5.726 3.907c2.181.788 4.514 1.182 6.998 1.182 2.362 0 4.393-.363 6.089-1.09s3.12-1.666 4.271-2.818c1.151-1.15 2.029-2.423 2.636-3.816.666-1.454 1.091-2.908 1.272-4.363h-11.814v-9.814h23.266v32.081h-9.906l-1.003-6.818zM482.759 111.413v24.901h-11.815v-63.62h23.993c3.333 0 6.241.485 8.725 1.454 2.545.969 4.636 2.333 6.271 4.09 1.636 1.696 2.848 3.726 3.635 6.089.849 2.363 1.272 4.938 1.272 7.725s-.424 5.361-1.272 7.725c-.787 2.363-1.999 4.423-3.635 6.18-1.636 1.697-3.727 3.029-6.271 4-2.483.969-5.393 1.453-8.725 1.453l-12.178.003zm11.724-10.905c2.604 0 4.635-.667 6.089-2 1.515-1.393 2.271-3.545 2.271-6.453s-.757-5.028-2.271-6.361c-1.454-1.394-3.484-2.09-6.089-2.09h-11.717v16.904h11.717zM532.346 71.233h15.856v3.386h-5.925v19.186h-4.007V74.619h-5.925v-3.386zm24.151 0l5.925 14.84 5.925-14.84h4.175v22.572h-4.006V79.528l-4.909 12.189h-2.37l-4.909-12.189v14.277h-4.006V71.233h4.175z"/>
    </g>
</svg>
