<?xml version="1.0" encoding="UTF-8" standalone="no"?>
<svg xmlns="http://www.w3.org/2000/svg" height="214" width="600" version="1.1" viewBox="0 0 158.75 56.621613">
 <g stroke-width="1.2819">
  <path d="m59.345 12.738v39.252c0 2.5658 2.0655 4.6317 4.6314 4.6317h90.144c2.5658 0 4.6314-2.0657 4.6314-4.6317v-34.62c0-2.5658-2.0656-4.6314-4.6314-4.6314h-94.776z" fill="#ff544d"/>
  <path d="m59.345 12.738-0.0094 0.000268h0.0094z" fill="#ff544d"/>
  <path d="m46.04 12.04c-0.272-2.2162-1.726-12.304-8.257-12.035-5.636 0.29819-7.276 5.5849-9.02 9.7197-2.079 5.6583-2.8 6.8123-5.746 6.8123-3.185-0.148-5.11-4.589-6.394-6.457-1.041-1.5509-3.807-6.336-7.7514-6.1871-2.1478 0-5.5049 1.0932-7.6223 6.5229-1.9167 5.8356-1.1908 11.719-0.68908 14.244 1.6767 6.2531 2.6604 9.9359 5.6077 9.5117 3.168-0.22182 1.405-5.024 0.58446-7.5417-0.52465-1.5672-2.3666-6.789-0.2579-8.0065 2.2143-1.4284 4.2213 3.9857 6.3171 7.1902 1.8882 3.2847 3.1352 7.0824 9.5622 7.2041 4.0173 0 6.3755-2.3157 7.541-4.5221 1.7222-3.5575 3.8134-15.594 8.3559-15.708 3.3134 0.13178 2.4257 5.6609 2.3795 7.6675-0.13035 2.2263-1.6165 6.8464 2.1026 7.3003 4.3291 0.07469 3.8306-11.667 3.2869-15.715z" fill="#004e7e"/>
 </g>
 <g fill="#fff">
  <path d="m70.291 45.405v-21.302h6.6642q1.8867 0 3.6516 0.6086 1.7954 0.6086 3.1952 1.9171t2.2214 3.3169q0.85204 2.0084 0.85204 4.808t-0.85204 4.808q-0.82162 2.0084-2.2214 3.3169t-3.1952 1.9171q-1.7649 0.6086-3.6516 0.6086zm5.4166-3.6516q1.2781 0 2.5561-0.3043 1.2781-0.3043 2.2823-1.0651 1.0346-0.79118 1.6737-2.1301 0.63904-1.3694 0.63904-3.4995t-0.63904-3.469q-0.63903-1.3694-1.6737-2.1301-1.0042-0.79118-2.2823-1.0955-1.2781-0.3043-2.5561-0.3043h-1.4606v13.998z"/>
  <path d="m103.84 31.224q-0.60859-1.6128-1.8258-2.6474-1.2172-1.0651-3.4386-1.0651-1.2476 0-2.3431 0.45645-1.0955 0.42602-1.9171 1.3389-0.82162 0.88248-1.3085 2.2518-0.48689 1.3389-0.48689 3.1952 0 1.8562 0.48689 3.2256 0.48688 1.3389 1.3085 2.2518 0.82161 0.88248 1.9171 1.3389 1.0955 0.42602 2.3431 0.42602 2.2214 0 3.4386-1.0346 1.2172-1.0651 1.8258-2.6779l3.5603 0.9129q-0.76075 3.0734-3.043 4.7775-2.2823 1.6737-5.7817 1.6737-2.0084 0-3.8342-0.6999-1.7954-0.69989-3.1952-2.0693t-2.2214-3.4082q-0.82162-2.0388-0.82162-4.7167t0.82162-4.7167 2.2214-3.4082 3.1952-2.0693q1.8258-0.69989 3.8342-0.69989 3.4995 0 5.7817 1.7041 2.2823 1.6737 3.043 4.7471z"/>
  <path d="m108.52 25.899q0-1.0346 0.66946-1.7345 0.69989-0.69989 1.765-0.69989 1.065 0 1.7345 0.69989 0.69988 0.69989 0.69988 1.7345t-0.69988 1.7345q-0.66948 0.69989-1.7345 0.69989-1.0651 0-1.765-0.69989-0.66946-0.69989-0.66946-1.7345zm4.3211 4.4124v15.337h-3.7733v-15.337z"/>
  <path d="m119.48 30.311v2.4648q0.85204-1.2172 2.0388-1.9475 1.2172-0.76075 2.7083-0.76075 2.0692 0 3.3778 1.1563 1.3389 1.1563 1.3389 3.469v10.955h-3.7733v-9.8289q0-1.3694-0.60861-1.9475-0.60859-0.57817-1.5824-0.57817-0.6999 0-1.3389 0.42602-0.60859 0.39559-1.0955 1.1868-0.48688 0.79118-0.79118 1.9475-0.27387 1.1563-0.27387 2.6779v6.1165h-3.7734v-15.337z"/>
  <path d="m145.53 38.953h-10.559q0.0304 0.63903 0.27387 1.2781 0.24345 0.6086 0.6999 1.0955 0.45645 0.48688 1.0955 0.79118 0.66946 0.3043 1.552 0.3043 1.3085 0 2.1301-0.54774 0.82161-0.57817 1.4911-1.6432l3.043 1.1259q-0.45645 0.94334-1.0651 1.7345-0.6086 0.79118-1.4302 1.3694-0.82161 0.54774-1.9171 0.88248-1.065 0.3043-2.4648 0.3043-1.978 0-3.3778-0.73032t-2.2823-1.8562q-0.88246-1.1563-1.3085-2.5561-0.39559-1.3998-0.39559-2.7691 0-1.3694 0.39559-2.7691 0.42603-1.3998 1.3085-2.5257 0.88248-1.1563 2.2823-1.8867 1.3998-0.73032 3.3778-0.73032 1.9171 0 3.256 0.73032 1.3694 0.6999 2.2214 1.8258 0.88248 1.0955 1.2781 2.4344 0.3956 1.3389 0.3956 2.5866zm-7.1511-5.9035q-0.73033 0-1.3085 0.27387-0.54774 0.24344-0.97377 0.66946-0.39559 0.39559-0.66946 0.9129t-0.36516 1.0651h6.6033q-0.12172-0.57817-0.36516-1.0955-0.24343-0.51731-0.63903-0.9129-0.39559-0.42602-0.97376-0.66946-0.54774-0.24344-1.3085-0.24344z"/>
 </g>
</svg>
