<svg enable-background="new 0 0 409.173 187.864" version="1.1" viewBox="0 0 409.17 187.86" xml:space="preserve" xmlns="http://www.w3.org/2000/svg">

	<g fill="#fa3732">
		<path d="m46.081 67.734h-20.653l-4.997 16.545h-20.431l26.316-77.728h18.877l26.316 77.727h-20.432zm-15.656-16.879h10.66l-5.33-18.21z"/>
		<path d="m129.52 68.844c-2.517 5.626-5.979 9.754-10.381 12.381-4.405 2.628-9.938 3.942-16.601 3.942-4.59 0-8.68-0.761-12.269-2.277-3.592-1.517-6.626-3.59-9.105-6.219-2.481-2.626-4.368-5.699-5.663-9.216-1.296-3.515-1.943-7.235-1.943-11.159 0-3.923 0.647-7.642 1.943-11.159 1.295-3.515 3.182-6.588 5.663-9.216 2.479-2.627 5.514-4.7 9.105-6.219 3.59-1.516 7.679-2.277 12.269-2.277 6.588 0 12.176 1.352 16.767 4.053 4.589 2.703 7.957 6.829 10.105 12.381l-16.101 6.662c-0.815-2.294-2.054-4.126-3.719-5.497-1.665-1.369-3.831-2.054-6.496-2.054-3.627 0-6.311 1.259-8.051 3.775-1.74 2.517-2.609 5.701-2.609 9.549 0 3.85 0.869 7.033 2.609 9.549 1.739 2.518 4.497 3.775 8.272 3.775 2.368 0 4.403-0.628 6.108-1.888 1.702-1.258 3.181-3.071 4.441-5.441z"/>
		<path d="m190.94 68.844c-2.517 5.626-5.979 9.754-10.381 12.381-4.405 2.628-9.938 3.942-16.601 3.942-4.59 0-8.68-0.761-12.269-2.277-3.592-1.517-6.626-3.59-9.105-6.219-2.481-2.626-4.368-5.699-5.663-9.216-1.296-3.515-1.943-7.235-1.943-11.159 0-3.923 0.647-7.642 1.943-11.159 1.295-3.515 3.182-6.588 5.663-9.216 2.479-2.627 5.514-4.7 9.105-6.219 3.59-1.516 7.679-2.277 12.269-2.277 6.588 0 12.176 1.352 16.766 4.053 4.589 2.703 7.957 6.829 10.105 12.381l-16.1 6.662c-0.815-2.294-2.054-4.126-3.719-5.497-1.665-1.369-3.831-2.054-6.496-2.054-3.627 0-6.311 1.259-8.051 3.775-1.74 2.517-2.609 5.701-2.609 9.549 0 3.85 0.869 7.033 2.609 9.549 1.739 2.518 4.497 3.775 8.272 3.775 2.368 0 4.403-0.628 6.108-1.888 1.702-1.258 3.181-3.071 4.441-5.441z"/>
		<path d="m198.08 10.881c0-1.555 0.278-2.979 0.834-4.275 0.555-1.294 1.313-2.443 2.276-3.443 0.962-0.999 2.11-1.776 3.443-2.331 1.332-0.554 2.775-0.832 4.33-0.832s2.997 0.278 4.33 0.833c1.332 0.555 2.479 1.332 3.443 2.331 0.961 0.999 1.721 2.148 2.276 3.443 0.555 1.296 0.834 2.721 0.834 4.275s-0.278 2.98-0.834 4.275c-0.555 1.296-1.315 2.443-2.276 3.442-0.963 0.999-2.11 1.776-3.443 2.332-1.333 0.555-2.776 0.833-4.33 0.833-1.555 0-2.998-0.278-4.331-0.833-1.332-0.555-2.481-1.332-3.443-2.332-0.963-0.999-1.721-2.146-2.276-3.442-0.554-1.294-0.833-2.721-0.833-4.276zm19.988 17.434v55.964h-18.21v-55.964z"/>
		<path d="m226.61 56.297c0-3.848 0.628-7.513 1.887-10.993 1.258-3.479 3.109-6.551 5.552-9.216s5.514-4.775 9.217-6.329c3.7-1.555 7.995-2.331 12.88-2.331 4.886 0 9.178 0.777 12.88 2.331 3.7 1.555 6.774 3.664 9.216 6.329s4.292 5.737 5.552 9.216c1.258 3.481 1.887 7.145 1.887 10.993 0 3.85-0.63 7.515-1.887 10.993-1.26 3.481-3.109 6.552-5.552 9.217s-5.516 4.775-9.216 6.329c-3.702 1.555-7.995 2.331-12.88 2.331-4.886 0-9.18-0.778-12.88-2.331-3.702-1.555-6.774-3.664-9.217-6.329s-4.294-5.736-5.552-9.217c-1.26-3.479-1.887-7.144-1.887-10.993zm18.209 0c0 3.997 0.906 7.218 2.721 9.66 1.812 2.443 4.681 3.664 8.605 3.664 3.923 0 6.791-1.222 8.605-3.664 1.813-2.443 2.721-5.663 2.721-9.66s-0.908-7.218-2.721-9.66c-1.814-2.443-4.683-3.664-8.605-3.664-3.925 0-6.793 1.221-8.605 3.664-1.815 2.442-2.721 5.662-2.721 9.66zm8.107-50.634h23.097l-16.878 17.766h-13.214z"/>
		<path d="m313.48 28.315v6.44c1.48-2.147 3.626-3.904 6.44-5.275 2.812-1.369 5.958-2.054 9.438-2.054 6.44 0 11.16 1.611 14.157 4.83 2.998 3.22 4.497 7.755 4.497 13.602v38.419h-18.209v-33.09c0-2.368-0.555-4.22-1.665-5.552s-2.665-1.999-4.664-1.999c-3.109 0-5.552 1.352-7.329 4.053-1.776 2.703-2.665 6.718-2.665 12.048v24.54h-18.21v-55.962z"/>
	</g>
	<path d="m380.1 5.486h13.033v78.966h-13.033c-5e-3 -26.327-5e-3 -52.649 0-78.966z" fill="#000000ff"/>
	<g fill="#000000ff">
		<g fill="#000000ff">
			<path d="m409.17 146.87h-16.032v-16.032h-13.033c-2e-3 5.343-2e-3 10.688-3e-3 16.032h-16.033v13.033c5.344 2e-3 10.689 2e-3 16.033 3e-3 1e-3 5.344 1e-3 10.688 3e-3 16.033h13.033v-16.033c5.344-1e-3 10.687-1e-3 16.032-3e-3z"/>
			<path d="m329.35 121.34c3.883-1.75 8.412-1.237 11.807 1.334 4.232 3.335 6.026 8.686 7.46 13.67 2.553 10.323 2.921 21.066 1.081 31.54-0.483 3.067-2.3 6.639-5.712 7.061-2.551 0.279-4.845-1.563-5.123-4.114l-6e-3 -0.057c-0.606-7.069 1.963-14.168 0.36-21.183-0.437-2.3-2.76-4.309-5.144-3.749-3.067 0.997-5.098 3.833-6.601 6.547-3.136 5.942-4.937 12.466-6.969 18.837-1.395 4.6-3.649 9.438-8.073 11.837-7.253 3.933-17.556 3.113-22.777-3.764-4.508-6.133-7.559-13.194-11.745-19.534-1.119-1.426-2.668-3.596-4.776-2.829-2.062 0.56-2.591 2.99-2.591 4.853 0.314 6.946 3.672 13.256 4.807 20.04 0.659 2.76-1.119 6.471-4.385 5.988-3.067 0.353-4.907-2.599-5.949-5.029-4.6-11.255-7.084-23.82-4.485-35.872 1.196-5.558 3.067-11.362 7.375-15.333 4.309-3.971 11.607-4.83 16.314-1.05 6.716 5.221 9.545 13.67 15.203 19.787 3.12 3.458 9.146 3.626 11.945-0.307 6.109-9.33 6.507-23.666 17.984-28.673z"/>
		
		
			<path d="m180.61 161.31c0 2.193-0.275 4.196-0.822 6.011-0.548 1.815-1.371 3.365-2.466 4.65-1.097 1.285-2.458 2.287-4.083 3.005-1.626 0.718-3.515 1.078-5.67 1.078-1.437 0-2.788-0.312-4.054-0.935-1.267-0.624-2.221-1.333-2.863-2.126v14.175h-7.032v-40.144h7.031v2.948c0.189-0.377 0.491-0.765 0.908-1.163 0.416-0.396 0.925-0.765 1.531-1.105 0.604-0.341 1.284-0.614 2.041-0.822 0.755-0.207 1.568-0.312 2.438-0.312 2.155 0 4.044 0.36 5.67 1.078 1.625 0.719 2.986 1.721 4.083 3.005 1.096 1.285 1.918 2.835 2.466 4.649s0.822 3.816 0.822 6.008zm-7.371 0c0-2.835-0.643-4.999-1.927-6.492-1.286-1.493-2.854-2.24-4.706-2.24s-3.412 0.747-4.678 2.24c-1.267 1.494-1.9 3.657-1.9 6.492s0.632 5 1.9 6.492c1.266 1.494 2.825 2.24 4.678 2.24 1.852 0 3.421-0.746 4.706-2.24 1.284-1.492 1.927-3.657 1.927-6.492z"/>
			<path d="m184.95 161.31c0-2.078 0.321-4.016 0.964-5.812 0.642-1.795 1.587-3.354 2.835-4.678 1.248-1.323 2.768-2.362 4.564-3.118 1.795-0.755 3.846-1.134 6.152-1.134 2.305 0 4.357 0.379 6.152 1.134 1.795 0.756 3.317 1.796 4.565 3.118 1.248 1.324 2.192 2.883 2.835 4.678 0.642 1.796 0.964 3.734 0.964 5.812 0 2.08-0.321 4.017-0.964 5.812-0.644 1.796-1.587 3.355-2.835 4.678s-2.77 2.363-4.565 3.118c-1.796 0.755-3.847 1.134-6.152 1.134-2.306 0-4.357-0.379-6.152-1.134s-3.317-1.795-4.564-3.118c-1.248-1.323-2.193-2.882-2.835-4.678-0.644-1.795-0.964-3.732-0.964-5.812zm7.371 0c0 1.173 0.161 2.288 0.482 3.346 0.321 1.059 0.785 1.985 1.389 2.778 0.604 0.794 1.351 1.427 2.24 1.9 0.888 0.473 1.9 0.709 3.033 0.709 1.134 0 2.145-0.236 3.034-0.709 0.888-0.472 1.634-1.106 2.24-1.9 0.604-0.794 1.068-1.72 1.389-2.778s0.482-2.173 0.482-3.346c0-1.171-0.161-2.287-0.482-3.346-0.321-1.058-0.785-1.985-1.389-2.778-0.605-0.794-1.352-1.426-2.24-1.9-0.889-0.472-1.9-0.709-3.034-0.709s-2.145 0.237-3.033 0.709c-0.889 0.473-1.636 1.106-2.24 1.9-0.605 0.794-1.068 1.721-1.389 2.778-0.322 1.059-0.482 2.175-0.482 3.346z"/>
			<path d="m219.09 175.6v-28.578h7.031v4.65c1.021-1.701 2.277-2.977 3.77-3.828 1.493-0.85 3.052-1.276 4.678-1.276 0.302 0 0.652 0.02 1.049 0.057 0.397 0.038 0.765 0.095 1.106 0.17v6.861c-0.87-0.529-1.852-0.794-2.948-0.794-1.02 0-1.995 0.227-2.92 0.68-0.927 0.453-1.739 1.172-2.438 2.155-0.7 0.984-1.257 2.278-1.672 3.884-0.416 1.607-0.624 3.563-0.624 5.868v10.149z"/>
		</g>
	</g>

</svg>
