<svg xmlns="http://www.w3.org/2000/svg" height="177.98" width="600" viewBox="0 0 158.75 47.092">
    <g stroke-width="1.066">
        <path d="M49.357 10.594V43.24a3.844 3.844 0 0 0 3.852 3.852h101.69a3.844 3.844 0 0 0 3.852-3.852V14.446a3.843 3.843 0 0 0-3.852-3.852H49.359z" fill="#ff544d"/>
        <path d="M49.357 10.594h-.008.008z" fill="#01da95"/>
        <path d="M38.291 10.014C38.064 8.171 36.856-.22 31.424.004c-4.688.248-6.051 4.645-7.502 8.084-1.729 4.706-2.329 5.666-4.779 5.666-2.649-.124-4.25-3.817-5.318-5.37-.866-1.29-3.166-5.27-6.447-5.146-1.786 0-4.578.909-6.34 5.425-1.594 4.853-.99 9.746-.572 11.846 1.394 5.2 2.212 8.264 4.663 7.91 2.635-.183 1.169-4.177.487-6.271-.437-1.304-1.969-5.647-.215-6.66 1.842-1.187 3.51 3.316 5.254 5.98 1.57 2.733 2.607 5.891 7.953 5.993 3.341 0 5.302-1.926 6.272-3.761 1.432-2.96 3.171-12.97 6.95-13.064 2.755.11 2.017 4.708 1.978 6.377-.108 1.851-1.344 5.694 1.75 6.071 3.6.062 3.185-9.703 2.733-13.07z" fill="#004e7e"/>
    </g>
    <g fill="#fff">
        <path d="M69.413 20.267v3.037h-7.668v3.72h6.15v3.038h-6.15v4.885h7.922v3.036H58.455V20.267zM75.646 24.823q1.29 0 2.354.582 1.063.557 1.645 1.493l-1.873 1.721q-.43-.582-1.012-.835-.582-.278-1.114-.278-.455 0-.81.278-.354.253-.354.785 0 .43.304.734.329.303.91.506.659.228 1.443.506.81.253 1.519.683.708.405 1.164 1.063.48.658.48 1.67 0 .861-.328 1.646-.304.76-.911 1.341-.582.582-1.418.937-.835.329-1.872.329-.987 0-1.823-.304-.835-.33-1.467-.81-.633-.506-1.089-1.114-.455-.632-.683-1.214l2.506-1.342q.354.937.987 1.519.632.582 1.569.582.734 0 1.139-.33.43-.328.43-1.037 0-.405-.279-.658t-.734-.455q-.455-.228-1.037-.405-.557-.178-1.14-.43-.53-.228-1.011-.507-.456-.278-.81-.683t-.557-.962-.203-1.29q0-.735.279-1.393.304-.683.835-1.19.531-.53 1.265-.834.76-.304 1.696-.304zM89.12 37.705q-.329.101-.785.177-.43.101-1.113.101-2 0-3.24-1.164-1.214-1.164-1.214-3.543v-5.568h-1.974v-2.683h1.974v-3.189l3.138-1.974v5.163h3.366v2.683h-3.366v5.517q0 1.19.43 1.645.43.43 1.24.43.43 0 .785-.1.354-.102.76-.305zM90.888 37.983V25.228h3.138v2.075q.684-1.139 1.67-1.695 1.013-.583 2.101-.583.203 0 .456.026.278.025.506.076v3.062q-.582-.354-1.316-.354-.683 0-1.316.304-.608.303-1.088.961-.456.658-.734 1.747-.279 1.063-.279 2.606v4.53zM111.43 32.415h-8.782q.025.531.228 1.063.202.506.582.911t.91.658q.558.253 1.292.253 1.088 0 1.771-.455.684-.481 1.24-1.367l2.531.936q-.38.785-.886 1.443t-1.19 1.139q-.682.455-1.594.734-.885.253-2.05.253-1.645 0-2.809-.607t-1.898-1.544q-.734-.962-1.088-2.126-.33-1.164-.33-2.303t.33-2.303q.354-1.165 1.088-2.101.734-.962 1.898-1.57 1.164-.606 2.81-.606 1.594 0 2.707.607 1.14.582 1.848 1.518.734.912 1.063 2.025.329 1.114.329 2.151zm-5.947-4.91q-.608 0-1.089.228-.455.202-.81.557-.329.329-.556.759t-.304.886h5.492q-.101-.481-.304-.911t-.531-.76q-.33-.354-.81-.556-.456-.203-1.089-.203zM116.36 25.228v2.05q.709-1.012 1.696-1.62 1.012-.633 2.252-.633 1.721 0 2.81.962 1.113.962 1.113 2.885v9.112h-3.138v-8.175q0-1.14-.506-1.62-.507-.48-1.316-.48-.582 0-1.114.353-.506.33-.911.988t-.658 1.62q-.228.961-.228 2.227v5.087h-3.138V25.229zM125.9 31.403q0-1.392.43-2.582.43-1.214 1.266-2.1.835-.886 2.024-1.392 1.215-.506 2.759-.506t2.733.506q1.215.506 2.05 1.392.835.886 1.266 2.1.43 1.19.43 2.582t-.43 2.607q-.43 1.19-1.266 2.075-.835.886-2.05 1.392-1.19.506-2.733.506t-2.759-.506q-1.19-.506-2.024-1.392-.836-.886-1.266-2.075-.43-1.215-.43-2.607zm3.29 0q0 .785.203 1.493.227.709.632 1.24.405.532.987.86.608.304 1.367.304.76 0 1.341-.303.608-.33 1.013-.86.405-.532.607-1.24.228-.71.228-1.494 0-.785-.228-1.493-.202-.709-.607-1.24-.405-.532-1.013-.835-.582-.33-1.341-.33-.76 0-1.367.33-.582.303-.987.835-.405.531-.632 1.24-.203.708-.203 1.493zM144.58 24.823q1.29 0 2.354.582 1.063.557 1.645 1.493l-1.873 1.721q-.43-.582-1.012-.835-.583-.278-1.114-.278-.456 0-.81.278-.354.253-.354.785 0 .43.303.734.33.303.912.506.658.228 1.442.506.81.253 1.519.683.708.405 1.164 1.063.48.658.48 1.67 0 .861-.328 1.646-.304.76-.911 1.341-.583.582-1.418.937-.835.329-1.873.329-.987 0-1.822-.304-.835-.33-1.468-.81-.632-.506-1.088-1.114-.456-.632-.683-1.214l2.505-1.342q.355.937.987 1.519.633.582 1.57.582.733 0 1.138-.33.43-.328.43-1.037 0-.405-.278-.658t-.734-.455q-.455-.228-1.037-.405-.557-.178-1.14-.43-.53-.228-1.012-.507-.455-.278-.81-.683-.354-.405-.556-.962-.203-.557-.203-1.29 0-.735.279-1.393.303-.683.835-1.19.531-.53 1.265-.834.76-.304 1.696-.304z"/>
    </g>
</svg>
