<svg width="600" height="152.89" version="1.1" viewBox="0 0 158.75 40.453402" xmlns="http://www.w3.org/2000/svg">
 <g transform="translate(-64.256 -175.48)">
  <path d="m107.28 184.15v28.429c0 1.8584 1.4952 3.3549 3.3537 3.3549h109.02c1.8584 0 3.3537-1.4963 3.3537-3.3549v-25.075c0-1.8584-1.4953-3.3549-3.3537-3.3549-37.845 0.0374-77.649-0.0432-112.37 1e-3z" fill="#ff544d" stroke-width=".92846"/>
  <g fill="#fffdfd">
   <path d="m173 204.04c0.51161 0.0666 1.0282 0.11065 1.539 0.16055l0.14724 0.62308c-0.85269-0.0516-1.7253-0.0624-2.5789-0.0624-0.81609 0-1.6455 7e-3 -2.4607 0.0649l0.11979-0.62059c0.42676-0.0557 0.85685-0.094 1.2853-0.16139 0.0399-0.74953 0.0466-3.0863 0.0466-4.1445v-0.49082c0-0.36021-7e-3 -2.2885-0.0466-2.9-0.42593-0.0915-0.87099-0.11065-1.3044-0.14807l-0.0849-0.60812 3.0447-0.0101c1.3394 0 2.504 0.10896 3.1421 0.36936 1.1771 0.48915 1.3152 1.3152 1.3152 1.6763 0 2.1371-2.0989 3.1154-3.9274 3.3675l0.0807-0.66634c1.1089-0.27536 1.9117-0.89096 1.9117-2.2586 0-0.68547-0.33692-1.2312-0.89262-1.5066-0.32777-0.15974-0.85019-0.23459-1.3385-0.24957-0.0374 0.55737-0.0441 2.039-0.0441 2.9698v0.5191c0 0.95085 7e-3 3.4066 0.0457 4.0763"/>
   <path d="m181.8 204.05c0.41928 0.074 0.84936 0.11147 1.272 0.15307l0.15056 0.6314c-0.87099-0.0799-1.7911-0.0707-2.6579-0.0707-0.71376 0-1.4292 0.0166-2.1346 0.0624l0.11729-0.62641c0.42593-0.0249 0.86101-0.0865 1.2811-0.15472 0.0399-0.69547 0.0532-2.7228 0.0532-3.8375v-0.72042c0-0.37268-0.0118-2.3301-0.0499-2.9657-0.4226-0.0641-0.8452-0.1148-1.2695-0.15805l-0.14807-0.63307c0.87099 0.0915 1.8135 0.0765 2.6804 0.0765 0.70046 0 1.4309 2e-3 2.1296-0.079l-0.15222 0.63557c-0.42426 0.0433-0.85019 0.11645-1.2736 0.16971-0.0341 0.42843-0.0441 1.6704-0.0441 3.0164v0.75868c0 1.4566 0.0101 3.2402 0.0457 3.7418"/>
   <path d="m190.65 202.72c-0.65719-0.77116-1.2146-1.4824-1.5323-1.8618-0.43342 0.58981-1.5074 2.2719-1.9924 3.2036 0.30114 0.0566 0.60395 0.10232 0.90842 0.13809l0.0865 0.60312h-0.20798c-0.19551 0-1.2437-0.0474-1.9441-0.0474-0.53741 0-1.059 0.0249-1.5972 0.0682l0.2088-0.62391c0.27286-0.0408 0.57068-0.0674 0.82524-0.16638 0.52326-0.35106 2.6313-3.1429 3.1853-3.8542-0.42593-0.54738-1.0008-1.2986-1.5415-1.9949-0.55653-0.7146-1.0715-1.3635-1.3526-1.6638-0.27785-0.0865-0.57401-0.12478-0.85851-0.1797l-0.0899-0.63141c0.67466 0.11396 1.425 0.089 2.0922 0.089 0.77033 0 1.5432-0.0266 2.3093-0.0616l-0.17636 0.61809c-0.30198 0.0324-0.60479 0.0699-0.90427 0.12896 0.34108 0.54239 1.237 1.8668 1.6297 2.3892 0.41511-0.56402 1.2537-1.7644 1.6155-2.3958l-0.21628-0.0433c-0.18135-0.0324-0.36354-0.0591-0.53824-0.0865l-0.12061-0.61976c0.64139 0.0549 1.2878 0.0707 1.9333 0.0707 0.49414 0 0.98496-0.0266 1.4783-0.0682l-0.0591 0.60145c-0.2895 0.0757-0.57983 0.13061-0.87348 0.2005l-0.10233 0.099c-0.42509 0.40346-0.81192 0.85601-1.2037 1.2919-0.56569 0.64139-1.1464 1.3169-1.4101 1.6338 1.3601 1.8593 2.6895 3.7518 4.0862 5.5795l-0.99328 0.19632c-0.97081-0.73455-1.8584-1.6987-2.6446-2.613"/>
   <path d="m199.47 197.09c-0.35189 0.97831-0.85269 2.3268-1.0565 2.9166l2.0697 0.0408c-0.25705-0.76368-0.73955-2.1355-1.0132-2.9574m2.4042 6.9712c-0.37102-1.0873-0.70211-2.2236-1.163-3.2776-0.5399 0.0101-2.0423 0.0807-2.5888 0.14143-0.14059 0.44174-0.63889 2.2245-0.79029 3.1362 0.33109 0.074 0.6705 0.10482 1.0082 0.13975l0.11813 0.62309c-0.72707-0.0449-1.4633-0.0624-2.1904-0.0624-0.54489 0-1.0939 0.0182-1.6355 0.0682l0.0874-0.62891c0.36853-0.0358 0.73289-0.0857 1.0956-0.16223 0.48-0.94669 2.5032-6.3864 2.9349-7.5544-0.29782-0.0599-0.60063-0.0915-0.9026-0.12896l-0.0266-0.6156c0.62891 0.0441 1.2678 0.0649 1.8975 0.0649 0.80527 0 1.6255-0.0101 2.4241-0.0649l-0.0873 0.61893c-0.28783 0.0316-0.58066 0.0657-0.86516 0.12896 0.21961 0.70211 0.81109 2.395 1.2329 3.5597 0.33442 0.9209 1.0632 2.8966 1.6197 3.9914 0.37186 0.0724 0.74704 0.12063 1.1197 0.16972l0.0915 0.63889c-0.73706-0.12313-1.6338-0.0857-2.3667-0.0857-0.76118 0-1.5465 7e-3 -2.3102 0.0682l0.15057-0.63141c0.38599-0.0324 0.767-0.0657 1.1463-0.13725"/>
   <path d="m210.59 199.84c0.49331-0.18384 1.2786-0.70211 1.2786-1.8077 0-0.62476-0.54572-1.5082-2.4807-1.5606-0.0308 0.7096-0.0507 2.5997-0.0507 3.3916v0.1955c0.38766-9e-3 0.81858-0.0607 1.2528-0.21877m-3.152-3.3234c-0.42676-0.0632-0.87099-0.0948-1.3061-0.13226l-0.0857-0.60812 2.9724-0.0132c1.1522 0 2.7677 0.0117 3.6445 0.35771 0.69962 0.27869 1.168 0.79945 1.168 1.5673 0 0.83106-0.87183 1.831-1.7794 2.3908 0.86267 1.465 2.5206 3.7618 3.632 4.9364l-1.0573 0.14309c-0.88513-0.4068-3.5929-3.4798-4.3732-4.4198-0.33941 0.0266-0.68714 0.0524-0.91591 0.0591v0.14557c0 0.74039 0.0199 2.4225 0.0541 3.108 0.41428 0.0707 0.84603 0.11146 1.2678 0.14724l0.11897 0.6289c-0.77033-0.0641-1.5623-0.0682-2.3318-0.0682-0.79529 0-1.6238 0-2.415 0.0682l0.11895-0.6314c0.42676-0.0324 0.86766-0.069 1.2853-0.14973 0.0391-0.60894 0.0516-2.7236 0.0516-3.9041v-0.74704c0-0.41595-0.0125-2.3518-0.0491-2.8784"/>
   <path d="m165.03 200.89c0-0.39515 0.32527-0.71626 0.71709-0.71626 0.39348 0 0.71459 0.32111 0.71459 0.71626 0 0.39681-0.32111 0.71543-0.71459 0.71543-0.39182 0-0.71709-0.31862-0.71709-0.71543"/>
   <path d="m135.73 199.53c-0.094-0.31279-0.22544-0.62142-0.57151-0.67383-0.20049 0.0457-0.31528 0.25206-0.35688 0.40346-0.24624 1.4508-0.2895 2.9699-0.26787 4.5105 0.0258 0.52908-0.0666 1.2961 0.57983 1.4308 0.31362 0.0899 0.62475 0 0.87016-0.20215 0.0857-1.7403-0.0549-3.3376-0.16472-5.0072-0.0233-0.20798-0.0657-0.37602-0.089-0.4617"/>
   <path d="m153.61 200.26c0.3078-0.0192 1.1613 0.0209 1.564-0.31279 0.0449-0.49165-0.40263-0.93921-0.84769-1.1389-1.3643-0.0899-2.6604 0.19965-3.954 0.35688-0.12147 0.0182-0.35771 0.0433-0.35771 0.22377 0.11146 0.57983 0.6913 0.69213 1.1389 0.80361l-0.0241 0.0666-0.35355 1.0831-0.089 2e-3 -0.17221 0.0142c-0.0366 6e-3 -0.0774 0.0132-0.11646 0.0249-0.14723 0.0474-0.32693 0.12147-0.27202 0.30614 0.42426 0.84936-0.4251 1.4267-0.33443 2.2786 0.0607 0.55238 0.3494 1.1264 0.84271 1.4059 0.0715 0.0341 0.17886 0.0724 0.32277 0.089 1.3002 0.1148 2.3626-0.57067 3.3434-1.3385 0.11314-0.24624-0.0641-0.55903-0.22295-0.75952-0.93755-0.20299-1.831 0.22295-2.7677 0.2895l-2e-3 -2e-3 -0.0757 8e-3c0.0982-0.23876 0.2737-0.75868 0.47002-1.3552 0.11898-0.0158 0.35688-0.0274 0.54905-0.0132 0.19133 7e-3 0.39515 0.0249 0.51078 0.0233 0.45255 0 0.90843 0.0383 1.2387-0.20549 0.0549-0.0449 0.0682-0.10397 0.0707-0.13893 0.0125-0.15724 0.0582-0.46004-0.0599-0.63889-0.5607-0.2005-1.2495-0.11147-1.8551-0.11147l-0.0857 8.3e-4 0.28867-0.91674"/>
   <path d="m160.55 201.11-2e-3 -2e-3c-9e-3 0.7096-0.29781 1.3302-0.8427 1.8152-0.53324 0.4251-1.1572 0.75785-1.8443 0.75952 0.0324-0.0616 0.0649-0.12394 0.099-0.18718 0.1564-0.27286 0.31446-0.54739 0.47501-0.82358 0.39266-0.63473 0.84271-1.2528 1.3485-1.8235 0.0149-0.0158 0.0266-0.0291 0.0408-0.0449 0.0108-0.0118 0.0216-0.0241 0.0333-0.0366 0.10482-0.1123 0.21547-0.22376 0.3286-0.33358 0.0291-0.0216 0.0715-0.0458 0.11147-0.0341l-8.4e-4 -2e-3c0.11564 0.0216 0.15806 0.16139 0.19716 0.27868 0.0233 0.0874 0.0557 0.24624 0.0557 0.43175zm0.25455-1.6105c-0.0433-0.0499-0.0907-0.0923-0.12144-0.11979-0.15222-0.11814-0.33109-0.19217-0.52409-0.19551-0.14807 8.4e-4 -0.34607 0.0957-0.44839 0.15141-0.73622 0.42177-1.3793 1.0199-1.9683 1.7104-0.0108 0.0125-0.0209 0.0249-0.0316 0.0374-0.34856 0.42094-0.83438 1.0582-1.3194 1.8501-0.13394-0.15472-0.13394-0.4775-0.11813-0.67383 0.15556-1.3635 1.5323-2.2752 1.3784-3.6928-0.25622-0.0192-0.42426 0.21961-0.59813 0.3835-0.0607 0.0632-0.12811 0.13725-0.19632 0.21546-0.97081 1.2129-1.7436 2.5764-1.5282 4.2268 0.0358 0.21962 0.12063 0.46087 0.22127 0.65803 0.0399 0.0849 0.0832 0.15225 0.1173 0.198-0.23128 0.47834-0.44507 0.99078-0.62226 1.5274-0.26038 0.87266-0.5008 1.752-0.64305 2.6787-0.0424 0.21048-0.10816 0.61477-0.0624 0.97082 0.0101 0.10731 0.0299 0.21213 0.0732 0.30946 0.22296 0.47085 0.73789 0.98496 1.2495 0.91675 0.15724-1.1821 0.43259-2.3185 0.75619-3.4332 0.17387-0.56319 0.40347-1.2279 0.6963-1.9383 0.67217 0.11729 1.2179-0.0807 1.2179-0.0807 1.4059-0.49248 2.7419-1.8293 3.048-3.2818 0.21796-0.88929-0.0316-1.7353-0.57651-2.4183"/>
   <path d="m137.57 196.11c-0.19965 0.1331-0.40263 0.22211-0.60228 0.31112-0.62392 0.22461-1.2736 0.33609-1.9192 0.22461 0.55238-0.87349 1.4308-1.7228 2.38-2.0922 0.0524-0.0158 0.15391-0.0482 0.26205-0.0641 0.27452-0.0258 0.58731-0.0482 0.68548 0.27952 0.11064 0.57983-0.38101 1.0274-0.80611 1.341m-3.5688-0.11065c-0.0241 0.0291-0.0482 0.0574-0.0715 0.0874-0.11979-0.10316-0.0982-0.27119-0.0541-0.43092 0.0349-0.12063 0.0857-0.2063 0.0998-0.23127 0.0923-0.15724 0.22461-0.32195 0.35771-0.45422 0.20215-0.20215 0.44257-0.36936 0.69962-0.51327 0.0458-0.0249 0.11646-0.0574 0.18051-0.0832 7e-3 -3e-3 0.0158-7e-3 0.0266-9e-3 0.0707-0.0258 0.22127-0.0666 0.43591-0.0449h2e-3c0.0424 5e-3 0.089 0.0125 0.1331 0.0249-0.88929 0.58732-1.5914 1.3918-1.8094 1.6546m5.0371-1.8734c-0.0258-0.0341-0.0574-0.0649-0.0882-0.094h2e-3s-0.18384-0.18469-0.43258-0.26205c-0.0266-7e-3 -0.0532-0.0158-0.0765-0.0209-0.11648-0.0274-0.21878-0.0333-0.28285-0.0333-0.0233 0-0.0474 8.3e-4 -0.074 3e-3 -0.079-0.26454-0.39764-0.43508-0.39764-0.43508-0.21878-0.12063-0.46336-0.17885-0.68465-0.20548l-0.0291-4e-3c-0.53491-0.0566-0.95169 0.0125-1.277 0.0957-0.26038 0.0699-0.48748 0.16722-0.62059 0.22959-1.262 0.63141-1.7478 1.3585-1.9341 1.7852-5e-3 0.0108-0.0118 0.0209-0.0166 0.0308-0.0192 0.0491-0.0366 0.0998-0.0516 0.15057-0.0233 0.0757-0.0349 0.12977-0.0408 0.1589-0.11314 0.54572 0.0158 1.133 0.42676 1.544 0 0.0507-7e-3 0.20548-5e-3 0.35522 4e-3 0.0815 0.0142 0.18634 0.0391 0.287 0.0149 0.0591 0.0383 0.12394 0.0691 0.198 0.0973 0.2063 0.18634 0.27619 0.3444 0.27619 0.28866 0.0241 0.42426-0.44673 0.51327-0.55737 0.5582 0.17801 1.2287 0.29116 1.8327 0.11065 0.4226-0.13395 0.78198-0.3128 1.1597-0.5582 0.62225-0.41096 1.1879-0.92091 1.5856-1.5898 0.12478-0.22211 0.18469-0.43591 0.21213-0.57567 0.0649-0.34024 0.0324-0.64305-0.17386-0.88929"/>
   <path d="m147.96 198.52c-0.17969-0.25706-0.49331-0.73789-0.89345-0.75952-0.1564 0.0682-0.16388 0.2895-0.1356 0.4226 0.292 1.4691 0.86683 2.8043 0.87099 4.3816 0 0.0616-2e-3 0.16804-0.0175 0.23044-0.0209 0.0649-0.0557 0.11813-0.11564 0.12478-0.88181-1.1904-1.4791-2.5298-2.5672-3.6154-0.0474-0.0433-0.0799-0.0657-0.0982-0.0757-0.1747-0.0782-0.33608 0.0182-0.45837 0.15472-0.0324 0.0441-0.10148 0.13975-0.17636 0.3053-0.34357 0.80111-0.50496 1.6929-0.62974 2.5839-0.0682 0.45171-0.26704 1.697 0.0433 2.3884 0.13476 0.2479 0.38018 0.49331 0.66968 0.47085 0.20131-0.0226 0.35771-0.26787 0.42509-0.47085l0.21796-3.6154 0.0948 0.15472c0.73789 1.1838 1.1156 2.5231 2.2769 3.4607 0.16554 0.10896 0.37768 0.0849 0.55903 0.0118 0.1148-0.0416 0.27452-0.1123 0.40679-0.23044 0.39931-0.32194 0.60978-0.8793 0.66884-1.3244 0.19716-1.6946-0.22628-3.281-1.1414-4.5979"/>
   <path d="m143.13 199.25c-2e-3 -0.0283-0.0132-0.0566-0.0374-0.0857-0.0158-0.0142-0.0399-0.0291-0.0607-0.0383-1.6946-0.6963-4.0397-0.49331-5.6144 0.37352-0.47751 0.2479-0.69213 0.7096-0.73123 1.232-2e-3 0.0874 0 0.31279 0.0973 0.49664 0.0799 0.13394 0.19217 0.25622 0.32028 0.32443 0.0199 9e-3 0.0541 0.0226 0.094 0.0324 0.5191 0.11065 1.0698 0.14975 1.6197 0.18468 0.27869 0.0199 0.48001 0.0333 0.48001 0.0333 1.0415 0.0873 1.5332 0.22211 1.5332 0.22211h5e-3c0.41678 0.11564 0.99411 0.20964 1.1089 0.72292 4e-3 0.0233 8.3e-4 0.0366-7e-3 0.0574-0.35105 0.56319-1.4009 0.75535-2.1063 0.87015-0.4617 0.0549-1.633 0.24791-2.2028-0.22127-0.0774-0.0674-0.0948-0.14474-0.0973-0.18883 0-0.0108 0-0.0226 8.4e-4 -0.0341v-8.3e-4c5e-3 -0.0799 0.0308-0.16223 0.084-0.23708 9e-3 -0.0108 0.0341-0.0433 0.0749-0.0716 0.73789-0.42759 1.6788 0.48832 2.4308 0.39682 0.76035-0.0757 1.0033-0.25623 1.0806-0.42011 0.0624-0.12228 0.0333-0.20549 0.0333-0.20549-0.26621-0.22376-0.86849-0.40097-1.3593-0.48998-0.69629-0.10067-1.6879-0.24707-2.385 0.17137-0.0118 7e-3 -0.14309 0.0907-0.23209 0.2213-0.13476 0.19965-0.23294 0.43923-0.24375 0.69462 2e-3 0.0449 7e-3 0.11231 0.0316 0.18884 0.35688 0.89096 1.2878 1.3635 2.1371 1.559 1.1522 0.18469 2.3983 0.0274 3.2519-0.73039h-2e-3c0.16472-0.14558 0.25206-0.27619 0.29366-0.3469 0.21378-0.42427 0.27868-1.1064 0.14143-1.6355-0.0399-0.14808-0.10398-0.26371-0.1564-0.33775-0.88597-1.1688-2.5181-0.83855-3.8999-1.0607-0.17137-0.0233-0.41345-0.0649-0.62808-0.13394-0.13226-0.0366-0.21129-0.0724-0.25289-0.0948-0.0125-6e-3 -0.0241-0.0132-0.0349-0.0192l-3e-3 -3e-3c-0.0316-0.0233-0.0549-0.0532-0.0666-0.094-4e-3 -0.0233 9e-3 -0.0366 0.0182-0.0433 1.1996-0.48083 2.6412-0.41511 3.9739-0.57151 0.42344-0.0632 0.86767-0.0474 1.1605-0.37185 0.0101-0.0101 0.0241-0.0241 0.0416-0.0474 0-2e-3 2e-3 -2e-3 2e-3 -5e-3 2e-3 0 2e-3 -2e-3 2e-3 -2e-3 0.0283-0.0383 0.0599-0.0931 0.0815-0.16139 0.0132-0.0358 0.0182-0.069 0.0209-0.094v-0.0142c2e-3 -9e-3 2e-3 -0.0149 2e-3 -0.0175v-2e-3"/>
   <path d="m122.18 204.28c-1.3319-0.48583-2.7286-1.1963-3.6445-2.4757-0.0158-0.025-0.0233-0.0491-0.0274-0.0641 0-8.3e-4 -8.3e-4 -3e-3 -8.3e-4 -6e-3 -8.4e-4 -8.3e-4 -2e-3 -2e-3 -2e-3 -6e-3 -0.0383-0.24124 0.24707-0.42176 0.43591-0.48499 0.51411-0.17801 1.0731-0.29199 1.6313-0.38017 0.97581-0.14892 1.5165-0.17636 1.7412-0.19383 0 1.2062-0.089 2.3842-0.13394 3.6104m11.454-3.5896h8.3e-4s-0.22295-2.4116-3.6187-4.9789c-0.0216-0.0165-0.0441-0.0341-0.0649-0.0516-0.0125-8e-3 -0.0249-0.0166-0.0383-0.0249-0.23708-0.17802-0.48999-0.35439-0.75952-0.53158-1.0781-0.71376-2.1887-1.247-3.0755-1.6347-2.6196-1.1488-6.4563-1.9633-9.8837-0.91424-0.49498 0.1772-0.673 0.65303-0.83272 1.0989-0.0166 0.0657-0.0399 0.188 6e-3 0.26371 0.18136 0.198 0.47751 0.21713 0.76701 0.22879 0.12063 8.3e-4 0.37851 0 0.55154-0.0266 0.10897-0.0249 0.20465-0.0699 0.20299-0.18634-3e-3 -0.0266-9e-3 -0.0433-0.0209-0.0599-0.21962-0.27619-0.574-0.16722-0.81276-0.30447-8e-3 -7e-3 -9e-3 -0.0175-7e-3 -0.0258 0.0108-0.0182 0.0233-0.0341 0.0383-0.0483h-2e-3c0.0832-0.0782 0.2271-0.11979 0.35189-0.14642 2e-3 -8.3e-4 0.0449-0.0101 0.0483-0.0118 0.0241-3e-3 0.0482-8e-3 0.0724-0.0108 0.0274-4e-3 0.0457-7e-3 0.0457-7e-3 2.7719-0.43591 5.4547 0.0749 7.8539 0.95501 2.7544 1.1247 5.9605 2.8143 7.2491 5.8199 0.0316 0.079 0.0666 0.17387 0.0982 0.27785 3e-3 0.0101 6e-3 0.0192 8e-3 0.0291 6e-3 0.0182 0.0108 0.0383 0.0158 0.0574 0.0149 0.0599 0.0291 0.11979 0.0408 0.18051 2e-3 0.0132 6e-3 0.0274 8e-3 0.0408 0.19965 1.0532-0.0482 2.212-0.9234 2.9316-1.8976 1.5199-4.5987 1.6521-6.9871 1.2054l-0.0641-3.3866c2e-3 -0.17137 3e-3 -0.56485-2e-3 -0.74537-3e-3 -0.0632-2e-3 -0.0341 0-0.0973 0.31528-7e-3 0.40596 0 0.51161 5e-3 1.0756 0.0482 2.5972 0.24624 3.7244 0.80527 0.0175 0.0117 0.0449 0.0349 0.0457 0.074v3e-3c0 6e-3 -8.4e-4 0.0132-3e-3 0.0216-0.0118 0.0674-0.0416 0.13061-0.0724 0.18469 0 3e-3 -2e-3 5e-3 -4e-3 7e-3 -0.0132 0.0226-0.0275 0.0449-0.0416 0.0649-0.0882 0.13061-0.14393 0.17636-0.16139 0.188-0.19966 0.16804-0.49414 0.24957-0.49414 0.50496 2e-3 0.0199 8e-3 0.0249 0.0283 0.0374 0.23044 0.0998 0.4983 0.14642 0.75203 0.14976 0.0358 0 0.17053-4e-3 0.3103-0.074 0.37851-0.20714 0.81941-0.54073 0.9184-0.95917 0.10816-0.38017-0.0182-0.70128-0.18799-0.9991-0.10566-0.1772-0.26704-0.32194-0.35106-0.38766-0.93089-0.70794-2.0623-0.97997-3.2352-1.0731-0.70045-0.0607-1.2329-0.0557-1.5373-0.0416h-0.0916l-0.0782 4e-3c-3e-3 0-0.0699 7e-3 -0.0749 7e-3l-0.0474-1.9325c-0.0682-0.49081-0.33442-1.0706-0.84853-1.2503-0.53657 0.98246-0.54904 3.1579-0.59979 3.3292-0.0641 0.0125-0.13061 0.0274-0.19299 0.0416-0.35189 0.0632-0.73705 0.14642-1.138 0.25622-0.33359 0.0832-0.66718 0.17802-0.99494 0.30281-0.60729 0.24125-1.2146 0.54239-1.7387 1.0474-0.0349 0.0383-0.0815 0.089-0.11813 0.14474-0.12312 0.19382-0.20465 0.44839-0.16055 0.69047 5e-3 0.0233 0.0241 0.089 0.0616 0.16304 0.92423 1.5789 2.5997 2.7669 4.1653 3.4948 0.1123 0.55903 0.1123 1.1605 0.47002 1.5648 0.31362 0.0865 0.66052 0.0374 0.89345-0.0233 0.3103-0.12646 0.29199-0.55903 0.31861-0.85685 0.025 4e-3 0.0233 4e-3 0.0391 7e-3 2.7211 0.64804 5.7151 0.40097 7.9038-1.2062 1.3676-1.0249 2.039-2.5381 1.7628-4.1936"/>
  </g>
  <path d="m98.451 184.42c-0.20148-1.6459-1.2812-9.1381-6.1319-8.9384-4.1861 0.22147-5.4041 4.1479-6.6992 7.2188-1.5439 4.2029-2.0796 5.0598-4.2678 5.0598-2.3655-0.11048-3.7952-3.4086-4.7487-4.7958-0.77334-1.1519-2.8278-4.7058-5.757-4.5952-1.5951 0-4.0885 0.81192-5.6611 4.8446-1.4235 4.334-0.88441 8.7036-0.51179 10.579 1.2452 4.6441 1.9759 7.3794 4.1648 7.0643 2.3529-0.16477 1.0435-3.7313 0.43407-5.6012-0.38966-1.1639-1.7577-5.0422-0.19152-5.9464 1.6445-1.0608 3.1351 2.9602 4.6917 5.3401 1.4023 2.4395 2.3285 5.2601 7.1018 5.3504 2.9836 0 4.7351-1.7198 5.6007-3.3585 1.279-2.6422 2.8322-11.582 6.2059-11.666 2.4609 0.0978 1.8015 4.2044 1.7673 5.6947-0.09678 1.6534-1.2006 5.0848 1.5616 5.4219 3.2153 0.0555 2.845-8.665 2.4412-11.672z" fill="#004e7e" stroke-width=".95205"/>
 </g>
</svg>
