<svg enable-background="new 0 0 404.5 146.405" Googl="true" version="1.1" viewBox="0 0 800 756.82" xml:space="preserve" xmlns="http://www.w3.org/2000/svg">

<path d="m720.77 10.062h36.276v480.03h-36.274z" stroke-width="5.1296"/><g transform="matrix(1.464 0 0 1.464 -371.2 137)"><path d="m745.88 316.85h24.778l-3.6e-4 29.901h29.342v24.261h-29.414v29.846h-24.706v-29.887h-29.86v-24.22h29.86z" stroke-width="2.3181"/><path d="m662.37 299.18c7.251-3.2662 15.705-2.3112 22.043 2.4897 7.9024 6.2264 11.25 16.217 13.927 25.522 4.7661 19.275 5.4545 39.331 2.0191 58.887-0.90174 5.7257-4.2931 12.395-10.663 13.183-4.7614 0.51922-9.0452-2.9185-9.5645-7.6799-5e-3 -0.036-9e-3 -0.0694-0.0135-0.10675-1.1312-13.197 3.6649-26.452 0.67227-39.549-0.81599-4.2931-5.1532-8.0438-9.6039-7.0007-5.7258 1.8614-9.5182 7.156-12.325 12.223-5.8555 11.094-9.2191 23.274-13.012 35.17-2.6056 8.5886-6.8129 17.62-15.072 22.101-13.54 7.3438-32.78 5.8115-42.528-7.0285-8.4171-11.451-14.113-24.635-21.929-36.473-2.0909-2.6635-4.9816-6.7132-8.9177-5.2829-3.8504 1.0455-4.8379 5.582-4.8379 9.0615 0.58646 12.967 6.8569 24.748 8.9757 37.417 1.2309 5.1531-2.0909 12.082-8.1876 11.18-5.7257 0.65835-9.1612-4.8518-11.108-9.3906-8.5886-21.014-13.227-44.473-8.373-66.975 2.2323-10.378 5.7257-21.213 13.77-28.629 8.0438-7.4156 21.672-9.0174 30.46-1.9611 12.539 9.7477 17.822 25.522 28.385 36.944 5.8254 6.456 17.078 6.7712 22.3-0.57255 11.412-17.416 12.156-44.183 33.582-53.53z" stroke-width="2.3181"/><g transform="matrix(4.504,0,0,4.504,0,-603.53)" stroke-width=".51468"><path d="m89.208 216.92c0 0.91047-0.11375 1.7422-0.34123 2.4957-0.22749 0.75349-0.56924 1.3974-1.0242 1.9306-0.45549 0.53372-1.0206 0.94959-1.6954 1.2476-0.67474 0.298-1.4596 0.44725-2.3541 0.44725-0.59652 0-1.1575-0.1297-1.6835-0.38858s-0.92231-0.55328-1.1889-0.88268v5.8859h-2.9193v-16.669h2.9193v1.2244c0.07823-0.15698 0.20381-0.31807 0.37675-0.48277 0.17242-0.1647 0.38447-0.31807 0.63563-0.45909 0.25065-0.14154 0.53321-0.25477 0.84768-0.34123 0.31396-0.086 0.65107-0.12971 1.0124-0.12971 0.89452 0 1.6794 0.14926 2.3541 0.44726 0.67475 0.29852 1.2399 0.71438 1.6954 1.2476 0.45498 0.53372 0.79621 1.1771 1.0242 1.9306 0.22749 0.75401 0.34123 1.5862 0.34123 2.4962zm-3.0608 0c0-1.1771-0.26712-2.0757-0.80033-2.6959-0.53372-0.61968-1.1853-0.93003-1.9542-0.93003-0.76893 0-1.4169 0.31035-1.9424 0.93003-0.526 0.62019-0.78849 1.5188-0.78849 2.6959s0.26249 2.0757 0.78849 2.6959c0.52549 0.62019 1.173 0.93002 1.9424 0.93002 0.76893 0 1.4205-0.30983 1.9542-0.93002s0.80033-1.5188 0.80033-2.6959z"/><path d="m90.906 216.92c0-0.86312 0.1333-1.6676 0.40042-2.4133 0.2666-0.74526 0.6593-1.3927 1.1771-1.9424 0.51777-0.54916 1.1498-0.98046 1.8951-1.2949 0.74526-0.31396 1.5971-0.47094 2.5544-0.47094s1.8091 0.15698 2.5544 0.47094c0.74525 0.31395 1.3773 0.74577 1.8956 1.2949 0.51777 0.54968 0.90996 1.1972 1.1771 1.9424 0.2666 0.74577 0.40042 1.5502 0.40042 2.4133s-0.1333 1.6681-0.40042 2.4133c-0.26712 0.74577-0.65931 1.3932-1.1771 1.9424-0.51776 0.54968-1.1498 0.98098-1.8956 1.2949-0.74577 0.31395-1.5971 0.47093-2.5544 0.47093-0.95782 0-1.8091-0.15698-2.5544-0.47093-0.74577-0.31344-1.3773-0.74526-1.8951-1.2949-0.51777-0.54916-0.91047-1.1966-1.1771-1.9424-0.26712-0.74526-0.40042-1.5502-0.40042-2.4133zm3.0608 0c0 0.48689 0.06639 0.9501 0.20021 1.3891 0.1333 0.43954 0.3258 0.82401 0.57696 1.1534 0.25065 0.3294 0.561 0.5924 0.93003 0.78849 0.36851 0.19661 0.78849 0.2944 1.2594 0.2944 0.47093 0 0.89092-0.0978 1.2599-0.2944 0.36851-0.19609 0.67835-0.45909 0.93003-0.78849 0.25065-0.32991 0.44314-0.71386 0.57696-1.1534 0.1333-0.43902 0.20021-0.90223 0.20021-1.3891 0-0.48637-0.06691-0.94958-0.20021-1.3891-0.1333-0.43902-0.32579-0.824-0.57696-1.1534-0.25116-0.32939-0.56152-0.5924-0.93003-0.78849-0.36902-0.19609-0.789-0.2944-1.2599-0.2944-0.47093 0-0.89091 0.0983-1.2594 0.2944-0.36903 0.19661-0.67938 0.4591-0.93003 0.78849-0.25116 0.32991-0.44365 0.71438-0.57696 1.1534-0.13382 0.43954-0.20021 0.90275-0.20021 1.3891z"/><path d="m104.94 222.86v-11.866h2.9193v1.9306c0.4241-0.70614 0.94547-1.2363 1.5657-1.5893 0.61967-0.35307 1.2671-0.5296 1.9424-0.5296 0.12558 0 0.27072 8e-3 0.43542 0.0237 0.1647 0.016 0.31807 0.0396 0.45909 0.0705v2.8488c-0.3613-0.21976-0.76893-0.32939-1.2244-0.32939-0.42358 0-0.82812 0.0942-1.2126 0.28256-0.38446 0.18837-0.72209 0.48637-1.0124 0.89451-0.29028 0.40815-0.52189 0.94599-0.69431 1.613-0.17293 0.66754-0.25888 1.4797-0.25888 2.4365v4.2142z"/></g></g><path d="m328.64 0.01a336.23 336.23 0 0 0-288.02 164.68h7.8326a329.46 329.46 0 0 1 196.84-146.47l-22.685 43.387-91.21 63.867h13.656l79.597-55.735 100.08 23.346-3e-3 79.441h7.8326l-3e-3 -79.441 100.08-23.346 79.597 55.735h13.656l-91.21-63.867-22.684-43.387a329.46 329.46 0 0 1 196.84 146.46h7.8334a336.23 336.23 0 0 0-288.02-164.68z" stop-color="#000000" style="paint-order:stroke fill markers"/><g transform="matrix(8.0038 0 0 10.692 2733.7 2649.4)" style="shape-inside:url(#rect750);white-space:pre" aria-label="CRACKS"><path d="m-341.55-206.68c0 2.84 1.92 4.72 4.76 4.72h2.6c2.84 0 4.76-1.88 4.76-4.72v-4.96h-4.68v4.6c0 0.48-0.32 0.8-0.8 0.8h-1.2c-0.48 0-0.8-0.32-0.8-0.8v-18.16c0-0.48 0.32-0.8 0.8-0.8h1.2c0.48 0 0.8 0.32 0.8 0.8v4.8h4.68v-5.16c0-2.84-1.92-4.72-4.76-4.72h-2.6c-2.84 0-4.76 1.88-4.76 4.72z"/><path d="m-326.83-202.12h4.64v-11.64h1.2l2.44 11.64h4.32l-2.6-12.32c1.32-0.8 2.12-2.24 2.12-4.04v-6.88c0-2.88-1.92-4.76-4.76-4.76h-7.36zm6.64-24.04c0.48 0 0.8 0.32 0.8 0.8v6.88c0 0.48-0.32 0.8-0.8 0.8h-2v-8.48z"/><path d="m-309.31-202.12 0.68-6h3.28l0.64 6h4.32l-3.48-28h-6.24l-3.48 28zm1.12-9.96 1-9c0.12-1.08 0.16-2.52 0.16-3.64h0.08c0 1.12 0.04 2.56 0.16 3.64l1 9z"/><path d="m-299.15-206.68c0 2.84 1.92 4.72 4.76 4.72h2.6c2.84 0 4.76-1.88 4.76-4.72v-4.96h-4.68v4.6c0 0.48-0.32 0.8-0.8 0.8h-1.2c-0.48 0-0.8-0.32-0.8-0.8v-18.16c0-0.48 0.32-0.8 0.8-0.8h1.2c0.48 0 0.8 0.32 0.8 0.8v4.8h4.68v-5.16c0-2.84-1.92-4.72-4.76-4.72h-2.6c-2.84 0-4.76 1.88-4.76 4.72z"/><path d="m-284.43-230.12v28h4.64v-10.8l2.92 10.8h4.48l-4.36-14.36 4.16-13.64h-4.48l-2.72 10.08v-10.08z"/><path d="m-271.55-221c0 1.72 0.96 3.52 2.4 4.52l4.44 3.52c0.36 0.28 0.6 0.72 0.6 1.2v4.72c0 0.48-0.32 0.8-0.8 0.8h-1.2c-0.48 0-0.8-0.32-0.8-0.8v-4.8h-4.64v5.16c0 2.84 1.92 4.72 4.76 4.72h2.6c2.84 0 4.76-1.88 4.76-4.72v-5c0-1.72-0.96-3.56-2.4-4.52l-4.48-3.56c-0.36-0.24-0.6-0.72-0.6-1.16v-4.28c0-0.48 0.32-0.8 0.8-0.8h1.2c0.48 0 0.8 0.32 0.8 0.8v4.8h4.68v-5.16c0-2.84-1.92-4.72-4.76-4.72h-2.6c-2.84 0-4.76 1.88-4.76 4.72z"/></g></svg>
