<svg version="1.1" viewBox="0 0 830.57 340.16" xmlns="http://www.w3.org/2000/svg">
 <defs>
  <style>.cls-1{fill:#3f9;}</style>
 </defs>
 <g transform="scale(2.0749)" stroke-width=".9632" data-name="Capa 2">
  <g data-name="Layer 1">
   <path class="cls-1" d="m15.25 24.71a48.8 48.8 0 0 1 35.12-24.71c1.48 7.76 3 15.52 4.31 23.31-4.68 1.17-9.34 2.92-13 6.23-2.51 2-3.95 4.89-6.18 7.12-6.67-4.06-13.56-7.83-20.25-11.95z" stroke-width=".9632"/>
   <path class="cls-1" d="m55.07 6.19a49.79 49.79 0 0 1 41.17 12c-4.73 5.81-9.84 11.46-14.78 17.19-0.79 1.53-2.08-0.18-2.93-0.63-5.55-4.5-13-5.93-20-4.94-1.3-7.81-2.53-15.72-3.46-23.62z" stroke-width=".9632"/>
   <path class="cls-1" d="m376.3 12.32h10.73q0 32.87 0 65.74-5.39 0-10.75 0 0.03-32.87 0.02-65.74z" stroke-width=".9632"/>
   <path class="cls-1" d="m246.76 20.77c5.09-2.11 11.16 2.86 9.91 8.28-0.64 5.13-7.23 8.05-11.46 5.09-5.02-2.94-4-11.63 1.55-13.37z" stroke-width=".9632"/>
   <path class="cls-1" d="m7.34 24.56c7.17 3.53 14.18 7.38 21.14 11.29a26.28 26.28 0 0 0-1.42 22.89c-7.39 3-14.78 6.12-22.4 8.48a50.17 50.17 0 0 1 2.68-42.66z" stroke-width=".9632"/>
   <path class="cls-1" d="m93.71 26.36c1.09-1.09 2.1 0.8 2.91 1.38a50.26 50.26 0 0 1 13.9 37.75c-7.83-0.17-15.66-0.69-23.48-1-1-1.21-0.26-3-0.57-4.46-0.38-6.58-3.83-12.53-8.47-16.98 5.1-5.68 10.46-11.14 15.71-16.69z" stroke-width=".9632" Googl="true"/>
   <path class="cls-1" d="m128.53 28.08c4.45 0 8.89-0.09 13.34 0.1-0.18 12.8 0 25.6-0.07 38.4h15.74v11.49q-14.5 0-29 0 0.02-24.99-0.01-49.99z" stroke-width=".9632"/>
   <path class="cls-1" d="m209 28.08h13.25q0 19.24 0 38.5h15.74q0 5.74 0 11.49-14.49 0-29 0z" stroke-width=".9632"/>
   <path class="cls-1" d="m166.77 41.5c6.4-5.72 17-6.06 23.27 0.08v-3.74h12.23q0 20.13 0 40.25h-12.49c0-0.87 0-2.6 0.06-3.47-7.44 6.8-20.54 5.73-26.48-2.51-6.42-9.11-5.36-23.27 3.41-30.61zm10.79 7.71c-8.13 2.83-7.33 16.2 0.81 18.42 6.36 1.88 13.11-4 12-10.57-0.32-6.06-7.27-10.34-12.81-7.85z" stroke-width=".9632"/>
   <path class="cls-1" d="m266.06 41.89c6.09-6.42 17.4-6.47 23.49 0v-4.07h11.72v36.25a17.3 17.3 0 0 1-7.54 14.49c-6 4-13.77 4.37-20.55 2.53-6.07-1.67-11.29-6.62-12.22-13h13.83c2.55 4 8.43 3.8 12 1.42 2.35-1.61 2.28-4.65 2.3-7.18-3.89 3.06-8.91 5.14-13.93 4.28a16.66 16.66 0 0 1-12.51-9c-4.05-8.18-2.98-19.02 3.41-25.72zm10.61 6.74c-6.44 3.71-5.8 15.41 1.68 17.49 6 1.74 12.19-4 11.22-10.05 0.08-6.34-7.5-10.44-12.9-7.44z" stroke-width=".9632"/>
   <path class="cls-1" d="m311.24 44c5.95-7.82 18.68-9.59 25.8-2.37v-3.83h12.22v40.25h-12.5c0-0.87 0-2.6 0.05-3.47-7.32 6.56-19.91 5.82-26.08-1.93-6.16-8.15-6.04-20.65 0.51-28.65zm13.28 5.19c-7.32 2.62-7.61 14-1 17.61 6 3.52 14.53-1.76 13.84-8.77 0.4-6.39-6.96-11.55-12.84-8.8z" stroke-width=".9632"/>
   <path class="cls-1" d="m48.67 38.65c9-3.08 19.82 2 23.06 11a18.69 18.69 0 1 1-35.57 2.44 18.62 18.62 0 0 1 12.51-13.44zm-7 6.59c0.75 2-0.35 4-0.59 5.92a50 50 0 0 1 4.53 2.5c1-0.31 2.1-0.65 3.14-1a53.16 53.16 0 0 1 5.51-4.29q-0.4-2.82-0.61-5.65a14.16 14.16 0 0 0-5.8-1l1.15-1.72c-2.43 1.76-5.36 2.81-7.3 5.24zm13.41-2.73c-0.24 1.94-0.48 3.88-0.74 5.82q3.8 2.85 7.69 5.59c1.71-1 3.81-1.51 5.25-2.91a12 12 0 0 0-0.83-4.47l0.55-1.42a54.32 54.32 0 0 0-5-3.86c-2.32 0.43-4.63 0.74-6.89 1.25zm-17.73 15.43a53.69 53.69 0 0 0 2.07 6.79c2.29 0 4 1.91 6.11 2.54a54.17 54.17 0 0 1 3.85-4.16 46.15 46.15 0 0 1-2.64 5.14c1 1.48 3.36 2.4 3.31 4.41a13.78 13.78 0 0 0 7.74 0.23 30.81 30.81 0 0 1 4.11-4.65c-1-1.74-2-3.5-2.8-5.31 1.45 1.44 2.85 2.93 4.26 4.4 2-0.81 3.6-2.45 5.78-2.62 0.81-2.08 2-4.2 1.78-6.5-1-1.84-2.09-3.58-3.14-5.37q-2.85 0.6-5.72 1.16c-1 2.93-2 5.89-3 8.84h-9.48c-0.88-2.61-1.81-5.2-2.48-7.87a17.57 17.57 0 0 0-6.1-2.17c-1.56 1.47-1.43 4.51-3.65 5.14z" stroke-width=".9632"/>
   <path class="cls-1" d="m243 37.84q6.12 0 12.23 0 0 20.11 0 40.24h-12.23z" stroke-width=".9632"/>
   <path class="cls-1" d="m0 73.13c7.32-3 14.44-6.55 21.9-9.23a26.25 26.25 0 0 0 16.93 15.19c-2.1 7.71-4.43 15.39-7.16 22.9-14.12-4.25-26.6-14.86-31.67-28.86z" stroke-width=".9632"/>
   <path class="cls-1" d="m79.66 66.91c7.9 0.34 15.78 1.07 23.65 1.76-0.5 14.79-8.48 29.38-20.94 37.43-4.57-6.4-9.37-12.65-13.86-19.1 6.31-4.79 10.72-12.06 11.15-20.09z" stroke-width=".9632"/>
   <path class="cls-1" d="m39.59 86.27a26.16 26.16 0 0 0 22.6-3.7c4.54 6.51 8.94 13.11 13.32 19.72a48.3 48.3 0 0 1-42.41 6.9c2.18-7.64 4.01-15.38 6.49-22.92z" stroke-width=".9632"/>
   <path d="m334.07 108.63a9.7 9.7 0 0 1 9.82 1.11c3.52 2.78 5 7.22 6.2 11.37a63.39 63.39 0 0 1 0.9 26.23c-0.4 2.57-1.89 5.52-4.75 5.87a3.84 3.84 0 0 1-4.26-3.46c-0.51-5.88 1.63-11.78 0.3-17.62-0.37-1.9-2.3-3.58-4.28-3.12-2.57 0.83-4.24 3.18-5.49 5.45-2.61 4.94-4.11 10.37-5.8 15.66-1.16 3.84-3 7.85-6.71 9.85-6 3.27-14.6 2.59-18.94-3.13-3.75-5.11-6.29-11-9.77-16.25-0.93-1.19-2.22-3-4-2.35-1.71 0.47-2.15 2.49-2.15 4 0.26 5.78 3 11 4 16.67 0.55 2.3-0.93 5.38-3.65 5-2.56 0.29-4.08-2.16-4.95-4.18-3.83-9.36-5.89-19.81-3.73-29.84 1-4.62 2.56-9.44 6.13-12.74s9.66-4 13.57-0.87c5.59 4.34 7.94 11.37 12.65 16.45 2.59 2.88 7.61 3 9.93-0.24 5.1-7.79 5.44-19.69 14.98-23.86z" fill="#fff" stroke-width=".92775"/>
   <path d="m376.19 116.5h11v13.29h13.11v10.81h-13.1q0 6.65 0 13.29h-11v-13.3h-13.3v-10.79h13.3z" fill="#fff" stroke-width=".92775"/>
   <path d="m248.28 133.26a9.83 9.83 0 0 1 8.79-3.76c0 1.94 0 3.88 0.1 5.83-2.39-0.51-5.32-0.57-6.76 1.78-3.08 4.95-1.74 11.09-2 16.6q-3 0-6 0v-23.91h6.06c-0.12 1.2-0.15 2.3-0.19 3.46z" fill="#fff" stroke-width=".92775"/>
   <path d="m188.29 129.8h5.82v1.93c4.05-3.41 10.82-2.81 14.06 1.42s3.21 10.38 1.25 15.19c-2.37 5.82-10.51 7.43-15.3 3.64 0.06 3.76 0 7.53 0 11.29h-5.82zm8.61 5.36c-5 2.91-4.31 13.25 2.15 13.78 5-0.38 6.25-6.68 4.72-10.6a5 5 0 0 0-6.87-3.18z" fill="#fff" stroke-width=".92775"/>
   <path d="m221.84 130.19c4.63-1.4 10.36-0.73 13.67 3.11a13.93 13.93 0 0 1 1.26 15.11c-4 7.26-15.8 7.58-20.41 0.85-4.24-6.19-2.21-16.68 5.48-19.07zm2.43 4.91c-5.56 2.45-4.94 12.81 1.4 13.74 4 0.56 6.75-3.8 6.43-7.42 0.16-3.97-3.73-8.17-7.83-6.32z" fill="#fff" stroke-width=".92775"/>
  </g>
 </g>
</svg>
