<svg xmlns="http://www.w3.org/2000/svg" height="218.26" width="600" viewBox="0 0 158.75 57.747">
    <g stroke-width="1.308">
        <path d="M60.53 12.992v40.03a4.715 4.715 0 0 0 4.725 4.725h88.774a4.715 4.715 0 0 0 4.724-4.725V17.717a4.715 4.715 0 0 0-4.724-4.725H60.537z" fill="#ff8c1f"/>
        <path d="M60.53 12.992h-.012.012z" fill="#ff544d"/>
        <path d="M46.96 12.28C46.682 10.02 45.2-.269 38.54.006c-5.749.304-7.421 5.696-9.2 9.912-2.12 5.771-2.856 6.949-5.86 6.949-3.249-.152-5.212-4.681-6.521-6.586-1.062-1.582-3.884-6.462-7.906-6.31-2.19 0-5.615 1.115-7.774 6.652C-.676 16.575.065 22.575.577 25.15c1.71 6.377 2.713 10.134 5.719 9.702 3.23-.227 1.433-5.125.596-7.692-.536-1.599-2.414-6.924-.263-8.166 2.258-1.457 4.305 4.065 6.442 7.333 1.926 3.35 3.198 7.223 9.753 7.347 4.097 0 6.502-2.362 7.69-4.612 1.757-3.628 3.89-15.904 8.523-16.02 3.38.134 2.474 5.772 2.426 7.82-.132 2.27-1.648 6.982 2.145 7.445 4.415.076 3.907-11.9 3.352-16.027z" fill="#004e7e"/>
    </g>
    <g stroke-width="1.123" fill="#fff">
        <path d="M80.48 30.479q-.62-1.21-1.335-1.738-.713-.559-1.675-.559-.9 0-1.49.559t-.59 1.428q0 .93.683 1.583t1.707 1.21q1.055.527 2.234 1.086 1.21.559 2.235 1.335 1.055.744 1.738 1.83.683 1.087.683 2.7 0 1.584-.497 2.856-.496 1.241-1.427 2.11-.9.87-2.204 1.335-1.272.466-2.824.466-1.49 0-2.762-.466-1.242-.497-2.204-1.335-.962-.838-1.614-1.924-.651-1.117-.9-2.359l3.26-2.048q.248.87.62 1.676.372.807.9 1.428.527.59 1.21.962.683.341 1.583.341 1.272 0 2.048-.652.776-.682.776-2.172 0-.9-.683-1.49-.651-.59-1.675-1.086-1.025-.528-2.204-1.055-1.148-.559-2.172-1.335-1.025-.807-1.707-1.924-.652-1.148-.652-2.886 0-1.242.435-2.297.465-1.086 1.241-1.862.807-.807 1.893-1.272 1.086-.466 2.359-.466 2.172 0 3.755 1.024 1.614 1.024 2.514 2.918zM100.52 39.853H89.751q.03.652.28 1.303.247.621.713 1.118.466.496 1.118.807.682.31 1.582.31 1.335 0 2.173-.559.838-.59 1.52-1.676l3.104 1.149q-.466.962-1.086 1.769-.621.807-1.459 1.396-.838.559-1.955.9-1.086.31-2.514.31-2.017 0-3.445-.744-1.428-.745-2.328-1.893-.9-1.18-1.334-2.607-.404-1.428-.404-2.825 0-1.396.404-2.824.434-1.427 1.334-2.576.9-1.18 2.328-1.924 1.428-.745 3.445-.745 1.955 0 3.32.745 1.397.714 2.266 1.862.9 1.117 1.304 2.483.404 1.365.404 2.638zm-7.293-6.02q-.745 0-1.335.279-.559.248-.993.682-.404.404-.683.931-.28.528-.372 1.087h6.735q-.125-.59-.373-1.118-.248-.528-.652-.931-.404-.435-.994-.683-.558-.248-1.334-.248zM102.45 46.68V31.039h3.848v2.545q.838-1.397 2.049-2.08 1.241-.713 2.576-.713.248 0 .558.03.341.032.62.094v3.755q-.713-.435-1.613-.435-.838 0-1.614.373-.745.372-1.335 1.18-.558.806-.9 2.14-.34 1.304-.34 3.197v5.556zM112.58 26.538q0-1.055.683-1.769.714-.714 1.8-.714t1.769.714q.714.714.714 1.769t-.714 1.769q-.683.714-1.77.714t-1.8-.714q-.682-.714-.682-1.769zm4.407 4.5V46.68h-3.848V31.04zM133.62 39.853h-10.769q.03.652.28 1.303.248.621.713 1.118.466.496 1.118.807.682.31 1.582.31 1.335 0 2.173-.559.838-.59 1.52-1.676l3.104 1.149q-.465.962-1.086 1.769-.62.807-1.459 1.396-.838.559-1.955.9-1.086.31-2.514.31-2.017 0-3.445-.744-1.427-.745-2.328-1.893-.9-1.18-1.334-2.607-.404-1.428-.404-2.825t.404-2.824q.435-1.428 1.335-2.576.9-1.18 2.327-1.924 1.428-.745 3.445-.745 1.956 0 3.321.745 1.397.714 2.266 1.862.9 1.117 1.303 2.483.404 1.365.404 2.638zm-7.293-6.02q-.745 0-1.335.279-.559.248-.993.682-.404.404-.683.931-.28.528-.372 1.087h6.735q-.125-.59-.373-1.118-.248-.527-.651-.93-.404-.435-.994-.684-.558-.248-1.334-.248zM140.37 30.542q1.583 0 2.886.714 1.304.683 2.018 1.83l-2.297 2.111q-.528-.713-1.242-1.024-.713-.341-1.365-.341-.56 0-.993.341-.435.31-.435.962 0 .528.372.9.403.373 1.118.62.806.28 1.769.622.993.31 1.862.838.869.496 1.427 1.303.59.807.59 2.048 0 1.056-.404 2.018-.372.93-1.117 1.645-.714.713-1.738 1.148-1.024.403-2.296.403-1.21 0-2.235-.372-1.024-.404-1.8-.993-.776-.62-1.335-1.366-.558-.776-.838-1.49l3.073-1.644q.435 1.148 1.21 1.862.776.714 1.924.714.9 0 1.397-.404.527-.403.527-1.272 0-.497-.341-.807-.341-.31-.9-.559-.558-.28-1.272-.496-.683-.218-1.397-.528-.652-.28-1.241-.62-.56-.342-.994-.839-.434-.496-.682-1.18-.249-.682-.249-1.582t.341-1.707q.373-.838 1.025-1.458.651-.652 1.551-1.025.931-.372 2.08-.372z"/>
    </g>
</svg>
