<svg xmlns="http://www.w3.org/2000/svg" height="201.43" width="600" viewBox="0 0 158.75 53.296">
    <g stroke-width="1.207">
        <path d="M55.859 11.99v36.946a4.35 4.35 0 0 0 4.36 4.36h94.173a4.35 4.35 0 0 0 4.36-4.36V16.349a4.35 4.35 0 0 0-4.36-4.36H55.86zM55.859 11.99h-.009.009z" fill="#ff544d"/>
        <path d="M43.336 11.333C43.08 9.247 41.712-.249 35.564.005c-5.305.28-6.848 5.257-8.49 9.149-1.957 5.326-2.636 6.412-5.409 6.412-2.998-.14-4.809-4.32-6.018-6.078-.98-1.46-3.584-5.964-7.297-5.824-2.021 0-5.181 1.03-7.174 6.14C-.628 15.297.055 20.835.527 23.211c1.578 5.886 2.504 9.353 5.279 8.953 2.981-.208 1.322-4.729.55-7.098-.494-1.476-2.228-6.39-.243-7.537 2.084-1.344 3.973 3.752 5.946 6.768 1.777 3.092 2.95 6.666 9 6.781 3.782 0 6.002-2.18 7.099-4.256 1.62-3.35 3.589-14.678 7.865-14.786 3.119.124 2.283 5.328 2.24 7.217-.123 2.095-1.522 6.444 1.979 6.871 4.074.07 3.605-10.982 3.093-14.792z" fill="#004e7e"/>
    </g>
    <g fill="#fff">
        <path d="M75.885 38.239h-6.359l-1.46 4.726h-4.01l6.788-20.05h3.723l6.789 20.05h-4.01zm-5.299-3.437h4.24l-2.12-6.96zM95.182 38.84q-.83 2.062-2.492 3.093-1.632 1.032-4.067 1.032-1.776 0-3.094-.573-1.317-.602-2.205-1.604-.86-1.031-1.318-2.378-.43-1.375-.43-2.893 0-1.518.43-2.864.459-1.375 1.318-2.377.888-1.031 2.205-1.604 1.318-.602 3.094-.602 2.434 0 4.067 1.031 1.661 1.031 2.492 3.094l-3.18 1.289q-.572-1.146-1.374-1.748-.802-.63-2.005-.63-1.69 0-2.52 1.26-.803 1.232-.803 3.151t.802 3.18q.83 1.231 2.52 1.231 1.204 0 2.006-.601.802-.63 1.375-1.776zM109.59 38.84q-.83 2.062-2.492 3.093-1.632 1.032-4.067 1.032-1.776 0-3.094-.573-1.317-.602-2.205-1.604-.86-1.031-1.318-2.378-.43-1.375-.43-2.893 0-1.518.43-2.864.459-1.375 1.318-2.377.888-1.031 2.205-1.604 1.318-.602 3.094-.602 2.434 0 4.067 1.031 1.661 1.031 2.492 3.094l-3.18 1.289q-.572-1.146-1.374-1.748-.802-.63-2.005-.63-1.69 0-2.52 1.26-.803 1.232-.803 3.151t.802 3.18q.83 1.231 2.52 1.231 1.204 0 2.006-.601.802-.63 1.375-1.776zM110.89 24.375q0-.974.63-1.633.659-.658 1.661-.658t1.633.658q.659.66.659 1.633 0 .974-.659 1.633-.63.658-1.633.658-1.002 0-1.66-.658-.631-.66-.631-1.633zm4.067 4.153v14.436h-3.551V28.528zM116.73 35.517q0-1.575.487-2.922.487-1.374 1.432-2.377.945-1.002 2.292-1.575 1.374-.573 3.122-.573t3.093.573q1.375.572 2.32 1.575.945 1.003 1.432 2.377.487 1.347.487 2.922t-.487 2.95q-.487 1.346-1.432 2.349-.945 1.002-2.32 1.575-1.346.573-3.093.573t-3.122-.573q-1.347-.573-2.292-1.575-.945-1.003-1.432-2.349-.487-1.375-.487-2.95zm3.724 0q0 .888.229 1.69.258.802.716 1.403.458.602 1.117.974.687.344 1.547.344.859 0 1.518-.344.687-.372 1.145-.974.459-.601.688-1.403.258-.802.258-1.69 0-.888-.258-1.69-.23-.802-.688-1.403t-1.145-.946q-.66-.372-1.518-.372-.86 0-1.547.372-.659.344-1.117.946-.458.601-.716 1.403-.23.802-.23 1.69zm3.208-13.061h4.812l-3.924 4.24h-2.722zM137.05 28.529v2.32q.802-1.146 1.92-1.833 1.145-.716 2.548-.716 1.948 0 3.18 1.088 1.26 1.089 1.26 3.266v10.31h-3.552v-9.251q0-1.29-.573-1.833-.572-.545-1.489-.545-.659 0-1.26.401-.573.373-1.031 1.117-.459.745-.745 1.834-.258 1.088-.258 2.52v5.757h-3.552V28.528z"/>
    </g>
</svg>
