<svg xmlns="http://www.w3.org/2000/svg" height="139.75" width="600" viewBox="0 0 158.75 36.976">
    <path d="M38.754 8.318h-.006.006z" stroke-width=".837" fill="#ff0"/>
    <path d="M38.754 8.319v25.633a3.017 3.017 0 0 0 3.024 3.025h113.95a3.017 3.017 0 0 0 3.025-3.024v-22.61a3.018 3.018 0 0 0-3.025-3.024H38.758z" stroke-width=".837" fill="#01da95"/>
    <path d="M30.065 7.863c-.178-1.448-1.127-8.036-5.392-7.86-3.681.195-4.752 3.647-5.89 6.348-1.358 3.695-1.829 4.449-3.753 4.449-2.08-.098-3.337-2.998-4.175-4.217-.68-1.013-2.487-4.138-5.063-4.04-1.402 0-3.594.713-4.977 4.259-1.252 3.811-.778 7.654-.45 9.302 1.095 4.083 1.737 6.488 3.662 6.211 2.069-.145.917-3.28.382-4.925-.343-1.024-1.546-4.433-.169-5.228 1.446-.933 2.757 2.603 4.125 4.695 1.234 2.145 2.048 4.626 6.245 4.705 2.624 0 4.164-1.512 4.925-2.953 1.124-2.323 2.49-10.183 5.457-10.258 2.163.086 1.584 3.697 1.554 5.007-.086 1.454-1.056 4.471 1.373 4.767 2.827.05 2.501-7.619 2.146-10.263z" stroke-width=".837" fill="#004e7e"/>
    <g fill="#fff">
        <path d="M46.025 15.812h2.831l3.2 8.473 3.199-8.473h2.83v13.573h-2.52v-8.377l-2.598 7.136h-1.823l-2.598-7.136v8.377h-2.52zM65.865 29.385v-1.57q-.543.775-1.319 1.26-.756.465-1.706.465-1.318 0-2.172-.737-.833-.736-.833-2.21v-6.98h2.404v6.262q0 .873.388 1.241.388.369 1.008.369.427 0 .834-.252.407-.272.717-.776t.485-1.24q.194-.738.194-1.707v-3.898h2.404v9.773zM72.156 15.657v13.728h-2.404V15.657zM79.585 29.327q-.252.078-.601.136-.33.077-.853.077-1.532 0-2.482-.892-.93-.892-.93-2.714v-4.266h-1.513v-2.055h1.512v-2.444l2.405-1.512v3.956H79.7v2.055h-2.578v4.227q0 .911.33 1.26.329.33.95.33.329 0 .6-.078t.582-.232zM80.557 16.801q0-.66.427-1.105.446-.446 1.124-.446.679 0 1.105.446.446.446.446 1.105 0 .66-.446 1.105-.426.446-1.105.446-.678 0-1.124-.446-.427-.446-.427-1.105zm2.753 2.812v9.772h-2.404v-9.772zM84.77 24.499q0-1.125.271-2.055.291-.931.854-1.59.562-.66 1.396-1.028.833-.368 1.939-.368.737 0 1.376.33.66.31.99.717v-4.848H94v13.728h-2.405v-1.008q-.097.194-.31.407-.213.194-.523.368t-.698.272q-.388.116-.834.116-1.105 0-1.94-.368-.833-.369-1.395-1.028-.563-.66-.854-1.59-.271-.93-.271-2.055zm2.52 0q0 1.454.66 2.23.66.756 1.61.756.95 0 1.59-.756.659-.776.659-2.23t-.66-2.21q-.64-.776-1.59-.776-.95 0-1.609.775-.66.757-.66 2.211zM104.41 25.274h-6.728q.019.407.174.814.155.388.446.698.29.31.698.505.427.193.989.193.834 0 1.357-.349.524-.368.95-1.047l1.94.718q-.291.6-.68 1.105-.387.504-.91.873-.524.349-1.222.562-.679.194-1.57.194-1.261 0-2.153-.466-.892-.465-1.454-1.182-.563-.737-.834-1.63-.252-.891-.252-1.764 0-.872.252-1.764.271-.892.834-1.61.562-.736 1.454-1.202.892-.465 2.152-.465 1.222 0 2.075.465.873.446 1.415 1.164.563.698.815 1.55t.252 1.649zm-4.557-3.762q-.465 0-.833.175-.35.155-.621.426-.252.252-.427.582-.174.33-.232.679h4.207q-.077-.369-.232-.698-.155-.33-.407-.582-.253-.271-.621-.427-.349-.155-.834-.155zM114.92 24.499q0 1.125-.29 2.055-.272.931-.835 1.59-.562.66-1.396 1.028-.834.368-1.939.368-.737 0-1.396-.31-.64-.33-.97-.737v4.848h-2.404V19.614h2.405v1.008q.097-.194.31-.388.213-.213.523-.387.31-.175.698-.272.388-.116.834-.116 1.105 0 1.94.368.833.369 1.395 1.028.563.66.834 1.59.291.93.291 2.055zm-2.52 0q0-1.454-.66-2.21-.66-.776-1.61-.776-.95 0-1.609.775-.64.757-.64 2.211t.64 2.23q.66.756 1.61.756.95 0 1.609-.756.66-.776.66-2.23zM115.86 24.499q0-1.067.33-1.978.33-.93.97-1.61.639-.678 1.55-1.066.931-.388 2.114-.388t2.094.388q.93.388 1.57 1.067.64.678.97 1.61.33.91.33 1.977t-.33 1.997q-.33.912-.97 1.59-.64.679-1.57 1.067-.911.388-2.094.388t-2.114-.388q-.911-.388-1.55-1.067-.64-.678-.97-1.59-.33-.93-.33-1.997zm2.52 0q0 .601.156 1.144.174.543.485.95.31.407.756.66.465.232 1.047.232.582 0 1.028-.233.465-.252.775-.659.31-.407.466-.95.174-.543.174-1.144 0-.601-.174-1.144-.156-.543-.466-.95-.31-.407-.775-.64-.446-.252-1.028-.252-.582 0-1.047.252-.446.233-.756.64-.31.407-.485.95-.155.543-.155 1.144zM126.92 29.385v-9.773h2.404v1.59q.524-.872 1.28-1.299.776-.446 1.61-.446.155 0 .349.02.213.02.387.058v2.346q-.446-.271-1.008-.271-.523 0-1.008.232-.466.233-.834.737-.349.504-.562 1.338-.214.814-.214 1.997v3.471zM140.45 29.327q-.252.078-.601.136-.33.077-.853.077-1.532 0-2.482-.892-.93-.892-.93-2.714v-4.266h-1.513v-2.055h1.512v-2.444l2.405-1.512v3.956h2.578v2.055h-2.578v4.227q0 .911.33 1.26.329.33.95.33.329 0 .6-.078.272-.077.582-.232zM150.44 25.274h-6.728q.019.407.174.814.155.388.446.698t.698.505q.427.193.989.193.834 0 1.357-.349.524-.368.95-1.047l1.94.718q-.291.6-.68 1.105-.387.504-.91.873-.524.349-1.222.562-.679.194-1.57.194-1.261 0-2.153-.466-.892-.465-1.454-1.182-.563-.737-.834-1.63-.252-.891-.252-1.764 0-.872.252-1.764.271-.892.834-1.61.562-.736 1.454-1.202.892-.465 2.152-.465 1.222 0 2.075.465.872.446 1.415 1.164.563.698.815 1.55t.252 1.649zm-4.557-3.762q-.465 0-.833.175-.35.155-.621.426-.252.252-.427.582t-.232.679h4.207q-.077-.369-.232-.698-.155-.33-.407-.582-.253-.271-.621-.427-.349-.155-.834-.155z"/>
    </g>
</svg>
