<svg Googl="true" version="1.1" viewBox="0 0 943.99 280.09" xmlns="http://www.w3.org/2000/svg">
 <path class="cls-1" d="m495.09 17.354c9.1512-5.9295 18.441-11.602 27.671-17.354v34.984h21.247v21.742h-21.267c0.19765 10.792-0.31624 21.583 0.21741 32.375a9.3488 9.3488 0 0 0 9.4872 8.6373 76.491 76.491 0 0 0 10.634-2.5892c-0.11859 8.4594 0 16.939 0 25.418-11.464 2.9845-24.489 3.0636-34.865-3.281a27.987 27.987 0 0 1-13.104-24.489v-36.032h-12.353v-21.742h12.353c0-5.9097 0-11.8-0.0198-17.67z" fill="#1ec33c" stroke-width="1.9765"/>
 <path class="cls-1" d="m899.52 1.1323h20.259v121.55h-20.259q0-60.777 0-121.55z" fill="#000000ff" stroke-width="1.9765"/>
 <path class="cls-1" d="m0 1.8777q21.287 0 42.534 0c16.86 0 34.332 6.6608 45.005 20.081 9.3093 11.385 12.61 26.623 12.333 41.19-0.15812 15.081-4.7436 30.833-15.654 41.684-10.831 11.187-26.643 16.188-41.922 16.543-14.092 0.35578-28.185 0-42.277 0.13837q-0.019765-59.848-0.019765-119.64zm30.161 26.09v66.865c9.5663 0.23718 20.121 0 27.967-6.226 9.3686-7.2538 11.859-20.081 10.891-31.268-0.7313-9.25-4.3285-19.113-12.571-24.153-7.7084-5.2377-17.373-5.2773-26.287-5.218z" fill="#1ec33c" stroke-width="1.9765"/>
 <path class="cls-1" d="m120.15 50.065c14.764-20.318 48.701-22.334 65.64-3.8344 9.5267 10.594 11.602 25.418 10.851 39.154-19.884 0-39.767-0.19765-59.651 0.15812 1.9765 6.1469 5.5342 12.63 12.353 14.211 8.9535 3.1426 18.54-0.92896 23.995-8.2618 7.2538 2.688 14.527 5.2773 21.742 8.0839-5.7318 10.357-15.219 18.915-27.078 21.504-14.369 3.1624-31.071 1.8579-42.534-8.2618-17.393-15.397-19.113-44.432-5.3168-62.754zm17.611 16.84c11.108 0.31624 22.216 0.3953 33.324 0-2.8659-7.3328-9.6651-13.717-18.105-12.393-7.3328 0.25694-12.235 6.305-15.219 12.393z" fill="#1ec33c" stroke-width="1.9765"/>
 <path class="cls-1" d="m240.11 41.23c11.266-10.021 29.173-9.8825 41.348-1.5812 9.6651 6.562 14.784 18.045 16.108 29.371 1.344 12.571 0.43484 26.149-6.8584 36.921-10.12 16.405-34.45 21.88-50.598 11.464v38.641h-28.62v-121.06h28.679c0 1.5614-0.0395 4.6843-0.0593 6.2457zm6.7992 18.737c-9.7244 6.1272-9.8825 20.378-5.9295 30.003s18.48 11.187 25.022 3.281c5.5342-7.5898 5.4749-18.263 2.1742-26.742-3.3205-8.0444-14.053-10.732-21.267-6.5422z" fill="#1ec33c" stroke-width="1.9765"/>
 <path class="cls-1" d="m342.05 34.984c14.863-3.1624 31.822-1.0871 43.7 8.9931 15.199 13.144 18.144 36.585 10.317 54.453a40.064 40.064 0 0 1-28.264 22.75c-14.112 2.8659-30.023 1.7195-41.902-7.1352-22.453-16.622-22.374-55.342 0-71.885a40.854 40.854 0 0 1 16.148-7.1747zm3.696 25.22c-9.6256 6.226-9.8825 20.239-5.6726 29.825 5.3563 11.365 24.212 10.97 29.391-0.35577a29.766 29.766 0 0 0-0.21742-23.599c-4.0518-8.499-15.852-9.9813-23.501-5.8702z" fill="#1ec33c" stroke-width="1.9765"/>
 <path class="cls-1" d="m443.01 42.89a35.794 35.794 0 0 1 31.347-8.5978v27.197c-5.6726-1.4231-11.859-3.5182-17.452-0.86966-9.3884 3.7751-12.907 14.745-13.579 24.014-0.33601 12.274 0 24.548-0.11859 36.822h-28.62v-86.472h28.738c-0.0791 2.6485-0.19765 5.2773-0.31624 7.906z" fill="#1ec33c" stroke-width="1.9765"/>
 <path class="cls-1" d="m568.9 42.001c17.788-13.262 47.021-11.187 60.204 7.6095 7.5898 10.219 8.6768 23.461 8.4001 35.775-19.963 0-39.906-0.15812-59.868 0.11859 2.1346 6.7003 6.5224 13.677 14.112 14.685 8.5385 2.3718 17.136-1.9765 22.275-8.6966 7.2538 2.7473 14.567 5.3168 21.742 8.0839-5.7912 9.7639-14.488 18.283-25.694 21.149-15.14 3.696-33.205 2.4509-45.025-8.8547-19.251-18.421-17.808-53.879 3.8542-69.869zm9.5663 24.924c11.009 0.29648 22.018 0.31624 33.027 0-2.4904-8.0839-10.653-14.31-19.33-12.215-6.7794 0.71154-10.97 6.5817-13.697 12.215z" fill="#1ec33c" stroke-width="1.9765"/>
 <path class="cls-1" d="m659.66 39.985c15.081-11.049 38.838-7.5898 49.412 8.1036-5.1982 4.7436-10.416 9.4477-15.456 14.349-3.7751-3.2019-7.5107-7.3921-12.867-7.5305-4.5262-0.90919-8.5978 5.6133-3.953 8.3211 10.1 6.7003 24.469 6.7992 32.039 17.294 8.0839 12.966 2.0753 31.98-11.681 38.443-13.756 6.4632-31.387 4.4471-42.87-5.5737a55.915 55.915 0 0 1-10.475-14.349c6.9375-3.7949 13.934-7.5107 20.892-11.306 3.1229 7.0166 9.25 14.764 17.927 13.104 4.4867-0.25694 7.3526-6.2853 3.3008-9.1512-8.5582-6.5422-20.635-7.0363-28.402-14.923-10.456-9.5663-9.3884-28.402 2.1346-36.783z" fill="#1ec33c" stroke-width="1.9765"/>
 <path d="m821.43 177.79a17.907 17.907 0 0 1 18.164 1.9765c6.5224 5.1389 9.2895 13.361 11.483 21.05a117.21 117.21 0 0 1 1.6603 48.543c-0.73131 4.7436-3.4984 10.219-8.7757 10.851a7.1352 7.1352 0 0 1-7.906-6.4039c-0.92896-10.891 3.024-21.742 0.55342-32.612a7.0363 7.0363 0 0 0-7.906-5.7714c-4.7436 1.5417-7.906 5.9295-10.139 10.08-4.8424 9.1512-7.6095 19.192-10.732 28.995-2.1544 7.0956-5.6133 14.527-12.432 18.223-11.147 6.0481-27.019 4.7831-35.043-5.7911-6.9375-9.4477-11.642-20.318-18.085-30.063-1.7196-2.2137-4.1111-5.5342-7.3526-4.3681s-3.953 4.6052-3.953 7.4712c0.49413 10.693 5.6528 20.397 7.4119 30.853 1.008 4.2495-1.7196 9.8825-6.7596 9.2105-4.7436 0.53366-7.5502-3.953-9.1512-7.7281-7.0956-17.334-10.91-36.684-6.9178-55.223 1.8579-8.5582 4.7436-17.492 11.365-23.58 6.6213-6.0876 17.788-7.4316 25.102-1.6207 10.337 8.0444 14.705 21.03 23.402 30.458 4.8029 5.3168 14.092 5.5737 18.401-0.4546 9.3291-14.448 9.9418-36.407 27.612-44.096z" fill="#000000ff" stroke-width="1.9765"/>
 <path d="m899.38 192.33h20.378v24.607h24.232v20.002h-24.252q0 12.314 0 24.607h-20.358v-24.607h-24.627v-20.002h24.627z" fill="#000000ff" stroke-width="1.9765"/>
 <path d="m662.65 223.34a18.223 18.223 0 0 1 16.267-6.9573c0 3.5972 0 7.1945 0.17788 10.792-4.4076-0.94872-9.8825-1.0673-12.511 3.3008-5.6923 9.1512-3.2019 20.516-3.7751 30.715h-11.147q0-22.117 0-44.254h11.187c-0.0593 2.1544-0.11859 4.3285-0.19766 6.4039z" fill="#000000ff" stroke-width="1.9765"/>
 <path d="m551.65 216.94h10.772v3.5775a18.698 18.698 0 0 1 25.932 2.7276c5.9295 7.906 5.9295 19.212 2.3125 28.106-4.3878 10.772-19.429 13.836-28.303 6.7399 0.0988 6.9573 0 13.836 0 20.892h-10.772zm15.911 9.8825c-9.2896 5.3761-7.906 24.509 3.953 25.497 9.2698-0.71154 11.563-12.373 8.7361-19.607a9.2896 9.2896 0 0 0-12.689-5.8504z" fill="#000000ff" stroke-width="1.9765"/>
 <path d="m613.73 217.67c8.5582-2.609 19.172-1.3638 25.299 5.7516a25.694 25.694 0 0 1 2.3323 27.948c-7.313 13.44-29.232 14.033-37.771 1.601-7.8467-11.464-4.0914-30.893 10.139-35.3zm4.5064 9.0721c-10.298 4.546-9.1512 23.718 2.5892 25.438 7.4712 1.0278 12.491-7.0363 11.859-13.836 0.33601-7.1945-6.8782-15.1-14.448-11.602z" fill="#000000ff" stroke-width="1.9765"/>
 <g fill="#1ec33c" aria-label="5">
  <path d="m793.37 86.739q0.50395 3.6956 2.0158 6.2153 1.5118 2.3517 3.5276 3.8636 2.1838 1.5118 4.5355 2.1838 2.3518 0.50394 4.7035 0.50394 5.7114 0 9.407-3.8636 3.8636-4.0316 3.8636-11.927 0-7.5592-3.8636-11.927-3.6956-4.3675-10.415-4.3675-5.0395 0-9.575 2.5197-4.5355 2.3517-6.8873 6.7193l-20.158-4.3675 6.2153-67.193h64.841v23.182h-43.339l-2.6877 19.822q2.8557-1.5118 6.8873-2.3517 4.1996-1.0079 9.407-1.0079 9.239 0 16.126 2.8557 6.8873 2.8557 11.423 8.0631 4.5355 5.0395 6.7193 12.263 2.3518 7.2232 2.3518 15.79 0 8.903-3.0237 16.294-2.8557 7.3912-8.3991 12.767-5.3754 5.3754-12.935 8.3991-7.3912 2.8557-16.462 2.8557-7.5592 0-14.278-2.3518-6.7193-2.5197-11.927-6.7193-5.2074-4.3675-8.7351-10.415-3.3596-6.0474-4.0316-13.439z" fill="#1ec33c"/>
 </g>
</svg>
