<?xml version="1.0" encoding="UTF-8" standalone="no"?>
<svg xmlns="http://www.w3.org/2000/svg" height="159.75" width="600" version="1.1" viewBox="0 0 158.75 42.267314">
 <g transform="translate(-24.269 -24.038)">
  <path d="m42.484 50.811h-8.1638l-1.9751 6.5398h-8.076l10.402-30.724h7.4615l10.402 30.724h-8.076zm-6.1887-6.6715h4.2136l-2.1068-7.1982z"/>
  <path d="m62.258 26.276v31.075h-7.198v-31.075z"/>
  <path d="m65.833 46.29q0-2.6335 0.70226-4.7403 0.70226-2.1507 1.9751-3.5991 1.2728-1.4923 3.1163-2.2823 1.8434-0.79004 4.0819-0.79004 1.624 0 2.8529 0.5267 1.2728 0.4828 2.2823 1.7118v-1.8873h7.1982v31.075h-7.197v-10.71q-1.0095 1.0534-2.2385 1.5801-1.1851 0.5267-3.0285 0.5267-2.1946 0-3.9941-0.79004t-3.0724-2.2385q-1.2728-1.4923-1.9751-3.5991-0.70226-2.1507-0.70226-4.7842zm7.0226 0q0 2.7652 1.1851 4.038 1.1851 1.229 2.9846 1.229t2.9846-1.229q1.1851-1.2728 1.1851-4.038t-1.1851-3.9941q-1.1851-1.2728-2.9846-1.2728t-2.9846 1.2728q-1.1851 1.229-1.1851 3.9941z"/>
  <path d="m106.42 57.351v-2.5457q-0.87782 1.229-2.4579 2.0629-1.5801 0.83394-3.8185 0.83394-3.5991 0-5.4864-1.9751-1.8873-2.019-1.8873-6.0131v-14.484h7.1982v12.904q0 1.5362 0.65836 2.3701 0.65837 0.79004 1.8434 0.79004 1.8434 0 2.8968-1.5801 1.0534-1.624 1.0534-4.7842v-9.7h7.1982v22.121z"/>
  <path d="m118.09 28.339q0-0.92172 0.30724-1.6679 0.35113-0.79004 0.92171-1.3606 0.57059-0.61448 1.3606-0.92172 0.79005-0.35113 1.7118-0.35113 0.92172 0 1.7118 0.35113 0.79005 0.30724 1.3606 0.92172 0.57059 0.57059 0.87783 1.3606 0.35113 0.74615 0.35113 1.6679 0 0.92172-0.35113 1.7118-0.30724 0.74615-0.87783 1.3606-0.57058 0.57059-1.3606 0.92172-0.79004 0.30724-1.7118 0.30724-0.92171 0-1.7118-0.30724-0.79004-0.35113-1.3606-0.92172-0.57058-0.61448-0.92171-1.3606-0.30724-0.79004-0.30724-1.7118zm7.9004 6.8909v22.121h-7.1982v-22.121z"/>
  <path d="m138.3 26.276v31.075h-7.1982v-31.075z"/>
  <path d="m148.59 48.134q0.35113 1.9751 1.5801 3.0285 1.229 1.0095 3.3357 1.0095 2.809 0 4.3452-2.3701l5.5303 2.019q-1.4045 2.5896-3.9063 4.2575-2.4579 1.624-6.452 1.624-2.9846 0-5.1353-1.0534-2.1068-1.0534-3.4674-2.6774-1.3167-1.6679-1.9312-3.6869-0.61448-2.019-0.61448-3.9941t0.65837-3.9941q0.70226-2.019 2.1068-3.643 1.4045-1.6679 3.5113-2.7213t4.9597-1.0534q2.9846 0 5.0475 1.0534t3.3357 2.6774 1.7995 3.5552q0.57059 1.9312 0.57059 3.6869v2.2823zm4.433-8.0321q-1.3606 0-2.5896 0.83394-1.1851 0.79004-1.6679 2.5457h8.471q-0.21945-1.4045-1.3167-2.3701-1.0534-1.0095-2.8968-1.0095z"/>
  <path d="m167.79 57.351v-22.121h7.1982v2.414q0.87782-1.2728 2.5018-2.019 1.6679-0.74615 3.643-0.74615 0.61448 0 1.0534 0.08778 0.4828 0.08778 0.83393 0.17556v6.847q-0.4828-0.30724-1.3167-0.43891-0.79005-0.17556-1.4923-0.17556-0.96561 0-1.8873 0.43891-0.92172 0.43891-1.6679 1.4045-0.74616 0.92172-1.229 2.5018-0.43891 1.5362-0.43891 3.7747v7.8565z"/>
 </g>
</svg>
