<svg xmlns="http://www.w3.org/2000/svg" width="600" height="153.26">
    <path fill="#FF0" d="M160.638 34.478l-.024.001.024-.001z"/>
    <path fill="#01DA95" d="M160.638 34.479v106.243a12.51 12.51 0 0 0 12.536 12.536h414.299a12.508 12.508 0 0 0 12.535-12.536V47.015a12.508 12.508 0 0 0-12.535-12.536H160.638z"/>
    <path fill="#FFF" d="M124.624 32.589c-.737-5.998-4.672-33.305-22.348-32.575C87.019.821 82.582 15.13 77.862 26.323c-5.628 15.315-7.578 18.44-15.553 18.44-8.62-.404-13.832-12.424-17.306-17.478-2.819-4.199-10.307-17.151-20.982-16.748-5.813 0-14.9 2.959-20.632 17.655C-1.8 43.989.165 59.915 1.524 66.746c4.538 16.925 7.201 26.895 15.179 25.745 8.575-.601 3.803-13.598 1.582-20.412-1.42-4.244-6.406-18.376-.698-21.671 5.993-3.866 11.426 10.788 17.099 19.462 5.111 8.891 8.486 19.17 25.883 19.5 10.873 0 17.257-6.268 20.411-12.24 4.662-9.63 10.322-42.209 22.618-42.519 8.969.356 6.565 15.322 6.44 20.754-.353 6.026-4.375 18.531 5.691 19.76 11.718.202 10.368-31.58 8.895-42.536z"/>
    <g fill="#FFF">
        <path d="M190.14 123.004V65.455h18.006c3.397 0 6.687.548 9.865 1.645a23.597 23.597 0 0 1 8.633 5.18c2.521 2.356 4.521 5.344 6.002 8.961 1.534 3.618 2.302 7.948 2.302 12.99 0 5.043-.768 9.373-2.302 12.99-1.48 3.618-3.48 6.604-6.002 8.962a23.63 23.63 0 0 1-8.633 5.18 30.06 30.06 0 0 1-9.865 1.644l-18.006-.003zm14.635-9.865a29.73 29.73 0 0 0 6.906-.822c2.302-.548 4.357-1.507 6.166-2.878 1.863-1.425 3.37-3.343 4.521-5.755 1.151-2.466 1.727-5.618 1.727-9.454 0-3.837-.575-6.961-1.727-9.373-1.151-2.467-2.658-4.385-4.521-5.755-1.809-1.425-3.864-2.412-6.166-2.96a29.736 29.736 0 0 0-6.906-.822h-3.946v37.82l3.946-.001zM278.499 104.92h-28.527c.055 1.151.302 2.302.74 3.453.438 1.096 1.068 2.083 1.891 2.96s1.809 1.589 2.96 2.138c1.206.548 2.604.821 4.192.821 2.357 0 4.275-.493 5.755-1.479 1.48-1.041 2.823-2.521 4.029-4.439l8.222 3.042a26.8 26.8 0 0 1-2.878 4.687 17.691 17.691 0 0 1-3.864 3.699c-1.479.987-3.206 1.781-5.18 2.385-1.918.548-4.138.822-6.659.822-3.563 0-6.604-.658-9.126-1.974s-4.576-2.987-6.166-5.016a21.713 21.713 0 0 1-3.535-6.905c-.713-2.521-1.068-5.016-1.068-7.482s.355-4.96 1.068-7.481a20.763 20.763 0 0 1 3.535-6.823c1.59-2.083 3.646-3.782 6.166-5.098 2.521-1.315 5.563-1.974 9.126-1.974 3.453 0 6.386.658 8.797 1.974 2.467 1.261 4.467 2.905 6.002 4.933a18.96 18.96 0 0 1 3.453 6.577c.712 2.412 1.068 4.741 1.068 6.989l-.001 4.191zm-19.321-15.95c-1.315 0-2.493.247-3.535.74a8.668 8.668 0 0 0-2.631 1.809c-.713.713-1.315 1.535-1.809 2.467s-.822 1.891-.986 2.877h17.841a13.486 13.486 0 0 0-.987-2.959 8.667 8.667 0 0 0-1.727-2.467c-.712-.768-1.589-1.37-2.631-1.809-.986-.438-2.165-.658-3.535-.658zM322.9 101.632c0 3.179-.411 6.084-1.233 8.715-.768 2.631-1.946 4.878-3.535 6.742-1.59 1.863-3.563 3.315-5.92 4.356-2.357 1.042-5.098 1.563-8.222 1.563-2.083 0-4.057-.438-5.92-1.315-1.809-.932-3.179-1.974-4.11-3.124v20.554h-10.195v-58.21h10.195v4.274c.273-.548.712-1.096 1.315-1.644.603-.604 1.343-1.151 2.22-1.645s1.863-.877 2.959-1.151c1.097-.329 2.275-.493 3.536-.493 3.124 0 5.864.521 8.222 1.563 2.356 1.041 4.33 2.493 5.919 4.357 1.59 1.863 2.769 4.11 3.535 6.741.822 2.631 1.233 5.536 1.233 8.715l.001.002zm-10.689 0c0-4.11-.932-7.235-2.796-9.373-1.863-2.192-4.138-3.288-6.823-3.288s-4.96 1.096-6.823 3.288c-1.809 2.138-2.714 5.263-2.714 9.373s.905 7.263 2.714 9.455c1.863 2.138 4.138 3.206 6.823 3.206s4.96-1.068 6.823-3.206c1.865-2.192 2.796-5.345 2.796-9.455zM327.442 101.632c0-3.015.466-5.81 1.398-8.386.932-2.632 2.302-4.906 4.11-6.824s4.001-3.426 6.577-4.521c2.631-1.097 5.618-1.645 8.962-1.645 3.343 0 6.303.548 8.879 1.645 2.631 1.096 4.851 2.604 6.659 4.521 1.81 1.918 3.18 4.193 4.111 6.824.932 2.575 1.397 5.371 1.397 8.386s-.466 5.837-1.397 8.468c-.932 2.576-2.302 4.823-4.111 6.742-1.809 1.918-4.028 3.426-6.659 4.521-2.576 1.097-5.536 1.645-8.879 1.645-3.344 0-6.331-.548-8.962-1.645-2.576-1.097-4.769-2.604-6.577-4.521-1.809-1.919-3.179-4.166-4.11-6.742-.933-2.631-1.398-5.453-1.398-8.468zm10.688 0c0 1.699.22 3.316.658 4.851.493 1.535 1.178 2.878 2.055 4.028a10.468 10.468 0 0 0 3.207 2.796c1.315.657 2.795.986 4.439.986s3.097-.329 4.357-.986a10.172 10.172 0 0 0 3.288-2.796c.877-1.15 1.535-2.493 1.974-4.028.493-1.534.739-3.151.739-4.851s-.246-3.316-.739-4.851c-.438-1.535-1.097-2.878-1.974-4.029a9.325 9.325 0 0 0-3.288-2.713c-1.261-.712-2.713-1.068-4.357-1.068s-3.124.356-4.439 1.068a9.548 9.548 0 0 0-3.207 2.713c-.877 1.151-1.562 2.494-2.055 4.029a17.597 17.597 0 0 0-.658 4.851zM375.316 123.004V81.567h10.194v6.742c1.48-2.467 3.289-4.303 5.427-5.509 2.192-1.261 4.467-1.891 6.824-1.891.438 0 .932.027 1.479.082.603.055 1.151.137 1.645.247v9.948c-1.261-.768-2.686-1.151-4.275-1.151-1.48 0-2.905.329-4.275.986-1.315.658-2.494 1.699-3.535 3.124-.986 1.426-1.781 3.316-2.385 5.673-.603 2.303-.904 5.125-.904 8.469v14.717h-10.195zM429.804 122.101c-.713.22-1.563.411-2.549.576-.932.219-2.138.329-3.618.329-4.33 0-7.837-1.261-10.523-3.782-2.631-2.521-3.946-6.358-3.946-11.511V89.626h-6.413v-8.715h6.413V70.552l10.194-6.413v16.772h10.936v8.715h-10.936v17.923c0 2.576.467 4.357 1.398 5.344.932.932 2.274 1.397 4.028 1.397.932 0 1.781-.109 2.549-.328.767-.22 1.589-.549 2.466-.987l.001 9.126zM471.982 104.92h-28.529c.055 1.151.302 2.302.74 3.453a9.383 9.383 0 0 0 1.892 2.96 9.771 9.771 0 0 0 2.959 2.138c1.206.548 2.604.821 4.193.821 2.356 0 4.275-.493 5.755-1.479 1.48-1.041 2.823-2.521 4.028-4.439l8.222 3.042a26.796 26.796 0 0 1-2.877 4.687 17.713 17.713 0 0 1-3.864 3.699c-1.479.987-3.206 1.781-5.18 2.385-1.918.548-4.138.822-6.659.822-3.563 0-6.604-.658-9.126-1.974s-4.577-2.987-6.166-5.016a21.693 21.693 0 0 1-3.535-6.905c-.713-2.521-1.069-5.016-1.069-7.482s.356-4.96 1.069-7.481a20.744 20.744 0 0 1 3.535-6.823c1.59-2.083 3.645-3.782 6.166-5.098s5.563-1.974 9.126-1.974c3.453 0 6.386.658 8.797 1.974 2.467 1.261 4.467 2.905 6.002 4.933a18.976 18.976 0 0 1 3.453 6.577c.712 2.412 1.068 4.741 1.068 6.989v4.191zm-19.321-15.95c-1.315 0-2.494.247-3.536.74a8.668 8.668 0 0 0-2.631 1.809c-.712.713-1.315 1.535-1.809 2.467s-.822 1.891-.986 2.877h17.841a13.484 13.484 0 0 0-.986-2.959 8.687 8.687 0 0 0-1.727-2.467c-.713-.768-1.59-1.37-2.631-1.809-.987-.438-2.165-.658-3.535-.658zM490.237 80.256c2.795 0 5.344.63 7.646 1.891 2.303 1.206 4.084 2.822 5.345 4.851l-6.084 5.591c-.933-1.261-2.028-2.165-3.289-2.713-1.261-.604-2.467-.904-3.617-.904a4.14 4.14 0 0 0-2.631.904c-.768.548-1.151 1.397-1.151 2.548 0 .933.329 1.727.986 2.385.713.657 1.699 1.206 2.96 1.645 1.425.493 2.987 1.041 4.687 1.644a22.251 22.251 0 0 1 4.933 2.221 11.424 11.424 0 0 1 3.782 3.452c1.042 1.426 1.563 3.234 1.563 5.427 0 1.863-.356 3.645-1.069 5.344a12.298 12.298 0 0 1-2.959 4.357c-1.261 1.261-2.796 2.274-4.604 3.042-1.809.713-3.837 1.068-6.084 1.068-2.138 0-4.111-.328-5.92-.986-1.809-.712-3.398-1.589-4.769-2.631a20.01 20.01 0 0 1-3.535-3.617c-.986-1.37-1.727-2.686-2.22-3.946l8.14-4.357c.767 2.027 1.836 3.672 3.206 4.933s3.069 1.891 5.098 1.891c1.589 0 2.822-.355 3.699-1.068.932-.713 1.397-1.836 1.397-3.371 0-.877-.301-1.589-.904-2.138-.603-.548-1.397-1.041-2.384-1.479-.986-.493-2.11-.932-3.371-1.315a39.072 39.072 0 0 1-3.699-1.397 30.568 30.568 0 0 1-3.289-1.645c-.986-.603-1.863-1.343-2.631-2.22s-1.37-1.919-1.809-3.124c-.438-1.206-.658-2.604-.658-4.193 0-1.589.302-3.097.904-4.521a12.035 12.035 0 0 1 2.714-3.864c1.15-1.15 2.521-2.056 4.11-2.713 1.642-.664 3.478-.992 5.507-.992zM528.975 118.897l20.555-26.556c1.754-2.192 2.932-4.057 3.535-5.591.603-1.59.904-3.206.904-4.851 0-2.357-.604-4.193-1.809-5.509-1.151-1.37-2.905-2.056-5.262-2.056-2.083 0-3.782.658-5.098 1.974-1.261 1.261-2.056 3.124-2.384 5.59l-9.537-1.809c.164-2.192.685-4.22 1.562-6.084a16.78 16.78 0 0 1 3.618-4.851c1.534-1.37 3.315-2.439 5.344-3.206 2.083-.768 4.33-1.151 6.741-1.151 2.741 0 5.18.411 7.317 1.233s3.919 1.973 5.344 3.453c1.48 1.479 2.604 3.261 3.371 5.344.768 2.028 1.151 4.248 1.151 6.659 0 2.302-.384 4.577-1.151 6.824s-2.028 4.521-3.782 6.823l-14.059 18.334h20.225v9.537h-36.586v-4.107z"/>
    </g>
</svg>
