<svg width="765.68" height="201.39" version="1.1" viewBox="0 0 202.59 53.286" xmlns="http://www.w3.org/2000/svg">
 <g transform="translate(50.342 -110.73)">
  <g transform="translate(139.54 218.27)">
   <path d="m-134.02-95.549-9e-3 2.52e-4h9e-3z" fill="#ff544d" stroke-width="1.2067"/>
   <path d="m-146.55-96.206c-0.25599-2.0861-1.624-11.582-7.7718-11.328-5.3049 0.28038-6.8479 5.2565-8.4898 9.1483-1.957 5.3264-2.636 6.4124-5.4089 6.4124-2.9979-0.14-4.8089-4.3199-6.0179-6.0775-0.97998-1.4602-3.5839-5.9642-7.2964-5.824-2.0216 0-5.1815 1.029-7.1745 6.1397-1.8042 5.4928-1.1209 11.031-0.6486 13.407 1.5782 5.8859 2.504 9.3528 5.2783 8.9528 2.9817-0.208 1.3225-4.7289 0.55009-7.0978-0.49389-1.476-2.2276-6.3909-0.2428-7.5368 2.0842-1.3445 3.9733 3.7516 5.9459 6.7678 1.7773 3.0917 2.9509 6.6663 9.0004 6.7809 3.7812 0 6.001-2.1797 7.098-4.2564 1.621-3.3485 3.5893-14.678 7.865-14.786 3.1188 0.12404 2.2832 5.3283 2.2396 7.217-0.12269 2.0956-1.5215 6.4442 1.9791 6.8714 4.0747 0.07031 3.6055-10.982 3.0938-14.792z" fill="#fff" stroke-width="1.2067"/>
   <path d="m-134.03-95.549v36.937c0 2.4146 1.9436 4.3586 4.3585 4.3586l138.01-0.0011c2.4145-1.8e-5 4.3585-1.9439 4.3585-4.3586v-32.579c0-2.4145-1.9439-4.3585-4.3585-4.3585l-142.37 0.0011z" fill="#ff544d" stroke-width=".64026"/>
  </g>
 </g>
 <g transform="scale(.9981 1.0019)" fill="#fff" stroke-width=".14934" aria-label="Biografías">
  <path d="m71.518 23.585h-7.3404v20.071h7.4837c2.0645 0 3.6702-0.51612 4.8458-1.5484 1.1756-1.0322 1.7777-2.5233 1.7777-4.5017 0-1.2616-0.28673-2.3225-0.80285-3.1254-0.51612-0.80285-1.2616-1.3763-2.2078-1.7777 0.63081-0.31541 1.1183-0.80285 1.4623-1.4623s0.51612-1.405 0.51612-2.2365c0-0.91755-0.14337-1.6917-0.4301-2.3799s-0.65949-1.233-1.1756-1.6917c-0.51612-0.45877-1.1183-0.77418-1.8064-1.0036-0.68816-0.22939-1.4623-0.34408-2.3225-0.34408zm-3.6128 3.4408h3.3261c0.80285 0 1.405 0.17204 1.8064 0.48745 0.40143 0.31541 0.63081 0.88887 0.63081 1.6917 0 0.83153-0.22939 1.405-0.63081 1.7204-0.40143 0.31541-0.97489 0.45877-1.7204 0.45877h-3.4121zm0 7.7991h3.4121c1.1469 0 1.9785 0.25806 2.4946 0.71683 0.48745 0.45877 0.7455 1.1183 0.7455 1.9785s-0.25806 1.5484-0.7455 2.0071c-0.51612 0.45877-1.3476 0.68816-2.4946 0.68816h-3.4121z"/>
  <path d="m80.55 25.047c0 0.65949 0.20071 1.2043 0.63081 1.6344 0.4301 0.45877 0.97489 0.65949 1.6631 0.65949 0.65949 0 1.2043-0.20071 1.6344-0.65949 0.4301-0.4301 0.65948-0.97489 0.65948-1.6344 0-0.63081-0.22939-1.1756-0.65948-1.6344-0.4301-0.4301-0.97489-0.65949-1.6344-0.65949-0.68816 0-1.233 0.22939-1.6631 0.65949-0.4301 0.45877-0.63081 1.0036-0.63081 1.6344zm4.0716 4.1576h-3.5555v14.451h3.5555z"/>
  <path d="m87.689 36.431c0 1.0609 0.14337 2.0358 0.48745 2.9534 0.31541 0.91755 0.80285 1.6917 1.4337 2.3512 0.63081 0.68816 1.3763 1.2043 2.2939 1.577 0.91754 0.40143 1.9498 0.57347 3.1254 0.57347 1.1469 0 2.1792-0.17204 3.0967-0.57347 0.91754-0.37275 1.6917-0.88887 2.3225-1.577 0.63081-0.65949 1.0896-1.4337 1.4337-2.3512 0.31541-0.91754 0.48745-1.8924 0.48745-2.9534 0-1.0322-0.17204-2.0071-0.48745-2.9247-0.34408-0.91755-0.80285-1.6917-1.4337-2.3799-0.63081-0.65949-1.405-1.1756-2.3225-1.577-0.91755-0.37275-1.9498-0.57347-3.0967-0.57347-1.1756 0-2.2078 0.20071-3.1254 0.57347-0.91755 0.40143-1.6631 0.91755-2.2939 1.577-0.63081 0.68816-1.1183 1.4623-1.4337 2.3799-0.34408 0.91754-0.48745 1.8924-0.48745 2.9247zm3.7275 0c0-0.57347 0.05735-1.1469 0.22939-1.6917 0.17204-0.51612 0.40143-1.0036 0.71683-1.405 0.28673-0.40143 0.65949-0.71683 1.1183-0.94622 0.45877-0.22939 0.97489-0.37275 1.5484-0.37275s1.0609 0.14337 1.5197 0.37275c0.45877 0.22939 0.83153 0.54479 1.1469 0.94622 0.28673 0.40143 0.51612 0.88887 0.68816 1.405 0.17204 0.54479 0.25806 1.1183 0.25806 1.6917 0 0.60214-0.08602 1.1756-0.25806 1.6917-0.17204 0.54479-0.40143 1.0036-0.68816 1.405-0.31541 0.40143-0.68816 0.74551-1.1469 0.97489-0.45877 0.22939-0.94622 0.34408-1.5197 0.34408s-1.0896-0.11469-1.5484-0.34408c-0.45877-0.22939-0.83152-0.57347-1.1183-0.97489-0.31541-0.40143-0.54479-0.8602-0.71683-1.405-0.17204-0.51612-0.22939-1.0896-0.22939-1.6917z"/>
  <path d="m105.52 33.85c0 0.63081 0.086 1.1756 0.25806 1.6631 0.17204 0.51612 0.40143 0.94622 0.74551 1.319-0.54479 0.34408-0.97489 0.7455-1.2903 1.2616-0.34408 0.51612-0.48745 1.0896-0.48745 1.7777 0 0.45877 0.0574 0.88887 0.20072 1.2616 0.11469 0.40143 0.3154 0.71683 0.54479 0.97489-0.40143 0.34408-0.68816 0.77418-0.88887 1.2616-0.20072 0.48745-0.28674 1.0322-0.28674 1.6057 0 0.80285 0.14337 1.491 0.48745 2.0645 0.34408 0.60214 0.80285 1.0896 1.3763 1.491s1.2903 0.71683 2.0932 0.91754c0.80285 0.20071 1.663 0.28673 2.5806 0.28673 0.80285 0 1.577-0.08602 2.3799-0.25806 0.77418-0.17204 1.4623-0.48745 2.0932-0.88887 0.63081-0.40143 1.1183-0.91754 1.5197-1.5484 0.37275-0.63081 0.57346-1.3763 0.57346-2.2939 0-1.3763-0.48744-2.4372-1.405-3.1541-0.91754-0.71683-2.1505-1.0896-3.6702-1.0896h-2.9534c-0.91755 0-1.3476-0.34408-1.3476-1.0609 0-0.45877 0.22939-0.80285 0.68816-1.0896 0.65949 0.22939 1.3476 0.31541 2.0932 0.31541 0.71684 0 1.405-0.08602 2.0645-0.31541 0.63081-0.22939 1.2043-0.54479 1.6917-0.94622 0.45877-0.40143 0.83152-0.91755 1.1182-1.5197 0.28674-0.57347 0.4301-1.2616 0.4301-2.0358 0-0.8602-0.20071-1.6057-0.57346-2.2939l2.0645-1.0322-1.405-2.3512-2.724 1.4337c-0.8602-0.40143-1.7491-0.63081-2.6666-0.63081-0.7455 0-1.4337 0.11469-2.0645 0.34408-0.65949 0.22939-1.233 0.57347-1.6917 0.97489-0.48744 0.4301-0.8602 0.94622-1.1469 1.5484-0.28673 0.60214-0.40143 1.2616-0.40143 2.0071zm4.0716 9.6342h1.9498c0.65948 0 1.2043 0.11469 1.663 0.28673 0.4301 0.20071 0.65948 0.60214 0.65948 1.2043 0 0.65949-0.28673 1.1183-0.8602 1.3763-0.57346 0.28673-1.2903 0.40143-2.1505 0.40143-0.94622 0-1.7204-0.17204-2.3225-0.51612-0.63081-0.34408-0.91755-0.8602-0.91755-1.5484 0-0.54479 0.086-0.97489 0.31541-1.319 0.25806 0.05735 0.51612 0.08602 0.80285 0.08602 0.25806 0.02867 0.5448 0.02867 0.8602 0.02867zm-0.7455-9.6342c0-0.60214 0.17204-1.0896 0.54479-1.4623 0.37275-0.34408 0.8602-0.54479 1.4337-0.54479 0.57347 0 1.0322 0.20071 1.405 0.54479 0.37275 0.37275 0.57346 0.8602 0.57346 1.4623 0 0.60214-0.20071 1.0896-0.57346 1.4337-0.37276 0.34408-0.83153 0.51612-1.405 0.51612-0.57346 0-1.0609-0.17204-1.4337-0.51612-0.37275-0.34408-0.54479-0.83152-0.54479-1.4337z"/>
  <path d="m119.89 43.656h3.5555v-5.1325c0-1.1469 0.086-2.1505 0.31541-2.9534 0.20071-0.80285 0.48745-1.4623 0.83153-1.9785 0.34407-0.48745 0.77417-0.8602 1.233-1.0896 0.45877-0.22939 0.97489-0.34408 1.491-0.34408 0.54479 0 1.0322 0.14337 1.491 0.40143v-3.4695c-0.17204-0.02867-0.37275-0.05735-0.57347-0.08602-0.20071 0-0.37275-0.02867-0.51612-0.02867-0.83152 0-1.6344 0.22939-2.3799 0.65949-0.7455 0.4301-1.3763 1.0609-1.8924 1.9211v-2.3512h-3.5555z"/>
  <path d="m130.81 36.431c0 1.1183 0.14337 2.1218 0.45877 3.0394 0.28674 0.91755 0.74551 1.7204 1.3476 2.3512 0.57346 0.65949 1.2903 1.1756 2.1505 1.5197 0.86019 0.37275 1.8351 0.54479 2.9247 0.54479 0.88887 0 1.663-0.14337 2.2939-0.48745 0.63081-0.34408 1.1469-0.74551 1.491-1.233v1.491h3.5555v-14.451h-3.5555v1.3763c-0.34408-0.40143-0.8602-0.74551-1.5484-1.0896-0.68816-0.34408-1.4337-0.51612-2.2365-0.51612-1.0896 0-2.0645 0.20071-2.9247 0.54479-0.8602 0.37275-1.577 0.88887-2.1505 1.5197-0.60214 0.65949-1.0609 1.4337-1.3476 2.3512-0.3154 0.91754-0.45877 1.9498-0.45877 3.0394zm3.7275 0c0-0.68816 0.086-1.319 0.28673-1.8924 0.20072-0.54479 0.48745-1.0036 0.83153-1.3763s0.71683-0.65949 1.1756-0.8602c0.4301-0.17204 0.88888-0.28673 1.3476-0.28673s0.88887 0.11469 1.3476 0.28673c0.4301 0.20071 0.80286 0.48745 1.1469 0.8602s0.60213 0.83153 0.80285 1.3763c0.20071 0.57347 0.3154 1.2043 0.3154 1.8924 0 0.74551-0.11469 1.3763-0.3154 1.9211-0.20072 0.54479-0.45877 1.0036-0.80285 1.3763s-0.71684 0.65949-1.1469 0.83153c-0.45877 0.20071-0.88887 0.28673-1.3476 0.28673s-0.91755-0.08602-1.3476-0.28673c-0.45877-0.17204-0.83152-0.45877-1.1756-0.83153s-0.63081-0.83153-0.83153-1.3763c-0.20071-0.54479-0.28673-1.1756-0.28673-1.9211z"/>
  <path d="m147.79 29.205v3.0394h1.8351v11.412h3.5555v-11.412h3.0394v-3.0394h-3.0394v-1.0036c0-0.63081 0.14337-1.0896 0.4301-1.3763s0.68816-0.4301 1.2043-0.4301c0.28673 0 0.57347 0.05735 0.8602 0.11469 0.25806 0.05735 0.54479 0.17204 0.8602 0.28673v-3.2114c-0.28673-0.08602-0.57347-0.14337-0.88887-0.17204-0.31541-0.02867-0.65949-0.05735-1.0322-0.05735-1.491 0-2.6953 0.4301-3.6128 1.233-0.91754 0.83152-1.3763 2.1218-1.3763 3.8709v0.74551z"/>
  <path d="m163.04 29.205h-3.5555v14.451h3.5555zm-2.4086-5.8494-1.8351 4.2436h2.724l3.9282-4.2436z"/>
  <path d="m166.34 36.431c0 1.1183 0.14336 2.1218 0.45877 3.0394 0.28673 0.91755 0.7455 1.7204 1.3476 2.3512 0.57347 0.65949 1.2903 1.1756 2.1505 1.5197 0.8602 0.37275 1.8351 0.54479 2.9247 0.54479 0.88887 0 1.663-0.14337 2.2939-0.48745 0.63081-0.34408 1.1469-0.74551 1.491-1.233v1.491h3.5555v-14.451h-3.5555v1.3763c-0.34408-0.40143-0.8602-0.74551-1.5484-1.0896-0.68816-0.34408-1.4337-0.51612-2.2365-0.51612-1.0896 0-2.0645 0.20071-2.9247 0.54479-0.8602 0.37275-1.577 0.88887-2.1505 1.5197-0.60214 0.65949-1.0609 1.4337-1.3476 2.3512-0.31541 0.91754-0.45877 1.9498-0.45877 3.0394zm3.7275 0c0-0.68816 0.086-1.319 0.28674-1.8924 0.20071-0.54479 0.48744-1.0036 0.83152-1.3763s0.71684-0.65949 1.1756-0.8602c0.4301-0.17204 0.88887-0.28673 1.3476-0.28673 0.45878 0 0.88888 0.11469 1.3476 0.28673 0.4301 0.20071 0.80285 0.48745 1.1469 0.8602s0.60214 0.83153 0.80285 1.3763c0.20072 0.57347 0.31541 1.2043 0.31541 1.8924 0 0.74551-0.11469 1.3763-0.31541 1.9211-0.20071 0.54479-0.45877 1.0036-0.80285 1.3763s-0.71683 0.65949-1.1469 0.83153c-0.45877 0.20071-0.88887 0.28673-1.3476 0.28673-0.45877 0-0.91754-0.08602-1.3476-0.28673-0.45877-0.17204-0.83153-0.45877-1.1756-0.83153s-0.63081-0.83153-0.83152-1.3763c-0.20072-0.54479-0.28674-1.1756-0.28674-1.9211z"/>
  <path d="m188.99 28.976c-0.71683 0-1.3476 0.11469-1.9211 0.34408s-1.0322 0.54479-1.4337 0.94622c-0.40142 0.40143-0.71683 0.83153-0.94621 1.3476-0.22939 0.51612-0.31541 1.0322-0.31541 1.577 0 0.57346 0.0574 1.0609 0.22939 1.4623 0.14336 0.4301 0.34408 0.80285 0.63081 1.0896 0.25806 0.31541 0.57346 0.57347 0.91754 0.77418 0.34408 0.22939 0.74551 0.40143 1.1469 0.57347 0.4301 0.20071 0.86019 0.37275 1.2903 0.48745 0.4301 0.14337 0.83153 0.28673 1.1756 0.45877s0.60214 0.34408 0.83153 0.51612c0.20071 0.20071 0.3154 0.45877 0.3154 0.7455 0 0.54479-0.17204 0.94622-0.48744 1.1756-0.31541 0.25806-0.74551 0.37275-1.2903 0.37275-0.71684 0-1.319-0.20071-1.7778-0.65949-0.48744-0.4301-0.8602-1.0036-1.1183-1.7204l-2.8386 1.5197c0.17204 0.45877 0.4301 0.91754 0.77418 1.3763s0.7455 0.88887 1.233 1.2616c0.45877 0.37275 1.0322 0.68816 1.663 0.91755 0.63081 0.22939 1.319 0.34408 2.0645 0.34408 0.77418 0 1.491-0.11469 2.1218-0.37275 0.63081-0.25806 1.1469-0.60214 1.6057-1.0609 0.45877-0.4301 0.80285-0.94622 1.0322-1.5197 0.22939-0.57347 0.37276-1.2043 0.37276-1.8638 0-0.74551-0.20072-1.3763-0.5448-1.8924-0.34407-0.48745-0.80285-0.88887-1.319-1.2043-0.54479-0.31541-1.1183-0.57347-1.7204-0.77418-0.60214-0.20071-1.1469-0.40143-1.6344-0.57347-0.45878-0.14337-0.80286-0.34408-1.0322-0.57347-0.22939-0.22939-0.34408-0.48745-0.34408-0.83152 0-0.40143 0.11469-0.68816 0.40142-0.88887 0.25806-0.20071 0.57347-0.31541 0.91755-0.31541 0.40143 0 0.80285 0.11469 1.2616 0.31541 0.4301 0.20071 0.80285 0.51612 1.1469 0.94622l2.1218-1.9498c-0.45877-0.68816-1.0609-1.2616-1.8638-1.6917-0.80286-0.4301-1.6917-0.65949-2.6666-0.65949z"/>
 </g>
</svg>
