<?xml version="1.0" encoding="utf-8"?>
<!-- Generator: Adobe Illustrator 16.0.0, SVG Export Plug-In . SVG Version: 6.00 Build 0)  -->
<!DOCTYPE svg PUBLIC "-//W3C//DTD SVG 1.1//EN" "http://www.w3.org/Graphics/SVG/1.1/DTD/svg11.dtd">
<svg version="1.1" id="Capa_1" xmlns="http://www.w3.org/2000/svg" xmlns:xlink="http://www.w3.org/1999/xlink" x="0px" y="0px"
	 width="600px" height="170.34px" viewBox="0 0 600 170.34" enable-background="new 0 0 600 170.34" xml:space="preserve">
<g>
	<path fill="#FF544D" d="M178.533,38.32v118.084c0,7.719,6.214,13.934,13.934,13.934h393.599c7.719,0,13.933-6.215,13.933-13.934
		V52.252c0-7.719-6.214-13.933-13.933-13.933H178.521L178.533,38.32z"/>
	<path fill="#FF544D" d="M178.533,38.32l-0.028,0.001L178.533,38.32L178.533,38.32z"/>
	<path fill="#FFFFFF" d="M138.505,36.221c-0.82-6.667-5.189-37.017-24.839-36.205c-16.955,0.896-21.888,16.8-27.137,29.24
		C80.278,46.28,78.109,49.75,69.245,49.75C59.66,49.304,53.87,35.943,50.008,30.326c-3.134-4.667-11.452-19.063-23.319-18.614
		c-6.462,0-16.562,3.289-22.931,19.624c-5.767,17.557-3.583,35.256-2.073,42.848c5.044,18.815,8.003,29.892,16.87,28.615
		c9.53-0.665,4.227-15.114,1.758-22.688c-1.578-4.713-7.119-20.42-0.775-24.083c6.661-4.297,12.699,11.991,19.004,21.631
		c5.681,9.882,9.432,21.307,28.768,21.673c12.085,0,19.18-6.967,22.687-13.604c5.181-10.703,11.472-46.912,25.138-47.256
		c9.968,0.396,7.297,17.03,7.158,23.066c-0.393,6.698-4.863,20.597,6.325,21.962C141.64,83.724,140.14,48.4,138.505,36.221
		L138.505,36.221z"/>
</g>
<g>
	<path fill="#FFFFFF" d="M254.892,94.503c-1.221-3.234-3.052-5.89-5.493-7.964c-2.441-2.137-5.89-3.205-10.345-3.205
		c-2.502,0-4.852,0.458-7.049,1.373c-2.197,0.854-4.12,2.197-5.768,4.029c-1.647,1.77-2.96,4.027-3.937,6.773
		c-0.977,2.686-1.465,5.891-1.465,9.613s0.488,6.957,1.465,9.703c0.977,2.686,2.289,4.943,3.937,6.775
		c1.647,1.77,3.57,3.111,5.768,4.027c2.197,0.854,4.547,1.281,7.049,1.281c4.455,0,7.903-1.037,10.345-3.111
		c2.441-2.137,4.272-4.822,5.493-8.057l10.71,2.746c-1.525,6.164-4.577,10.955-9.154,14.373c-4.577,3.356-10.375,5.035-17.394,5.035
		c-4.028,0-7.873-0.702-11.535-2.105c-3.601-1.404-6.805-3.479-9.612-6.226s-5.035-6.164-6.683-10.253
		c-1.648-4.089-2.472-8.818-2.472-14.189s0.823-10.101,2.472-14.189c1.647-4.089,3.875-7.507,6.683-10.253
		c2.808-2.747,6.012-4.822,9.612-6.226c3.662-1.404,7.507-2.105,11.535-2.105c7.019,0,12.816,1.709,17.394,5.126
		c4.577,3.357,7.629,8.117,9.154,14.282L254.892,94.503z"/>
	<path fill="#FFFFFF" d="M268.857,114.096c0-3.356,0.519-6.469,1.557-9.338c1.037-2.929,2.563-5.461,4.577-7.598
		s4.455-3.814,7.323-5.035c2.93-1.221,6.256-1.831,9.979-1.831c3.724,0,7.019,0.61,9.887,1.831c2.93,1.221,5.401,2.898,7.415,5.035
		c2.015,2.136,3.54,4.668,4.578,7.598c1.037,2.869,1.556,5.981,1.556,9.338c0,3.357-0.519,6.5-1.556,9.43
		c-1.038,2.868-2.563,5.371-4.578,7.506c-2.014,2.137-4.485,3.814-7.415,5.035c-2.868,1.221-6.163,1.832-9.887,1.832
		c-3.723,0-7.049-0.611-9.979-1.832c-2.868-1.221-5.31-2.898-7.323-5.035c-2.014-2.135-3.54-4.638-4.577-7.506
		C269.375,120.596,268.857,117.453,268.857,114.096z M280.758,114.096c0,1.893,0.244,3.693,0.732,5.402
		c0.549,1.708,1.312,3.203,2.288,4.485c0.977,1.281,2.167,2.319,3.57,3.112c1.465,0.732,3.112,1.099,4.943,1.099
		s3.448-0.366,4.853-1.099c1.464-0.793,2.685-1.831,3.661-3.112c0.977-1.282,1.709-2.776,2.197-4.485
		c0.549-1.709,0.824-3.51,0.824-5.402c0-1.892-0.275-3.691-0.824-5.4c-0.488-1.709-1.221-3.205-2.197-4.486
		s-2.197-2.289-3.661-3.021c-1.404-0.793-3.021-1.189-4.853-1.189c-1.83,0-3.479,0.396-4.943,1.189
		c-1.403,0.732-2.594,1.74-3.57,3.021s-1.739,2.777-2.288,4.486C281.002,110.404,280.758,112.204,280.758,114.096z"/>
	<path fill="#FFFFFF" d="M349.357,137.896v-30.759c0-2.32-0.519-3.968-1.557-4.944c-1.037-0.977-2.41-1.465-4.119-1.465
		c-2.808,0-5.188,1.647-7.141,4.944c-1.893,3.295-2.838,8.391-2.838,15.287v16.937h-11.351V91.763h11.353v7.415
		c1.708-2.563,3.601-4.547,5.675-5.95c2.075-1.465,4.608-2.196,7.599-2.196c2.868,0,5.462,0.762,7.781,2.288
		c2.38,1.464,4.089,3.876,5.127,7.231c1.647-2.99,3.692-5.309,6.134-6.957c2.441-1.709,5.096-2.563,7.964-2.563
		c4.334,0,7.69,1.25,10.07,3.753c2.441,2.502,3.662,5.981,3.662,10.437v32.682h-11.352v-30.76c0-2.318-0.519-3.967-1.557-4.943
		c-1.037-0.977-2.411-1.465-4.119-1.465c-2.747,0-5.097,1.586-7.05,4.76c-1.953,3.113-2.93,7.935-2.93,14.465v17.943
		L349.357,137.896z"/>
	<path fill="#FFFFFF" d="M437.631,117.758h-31.767c0.061,1.282,0.336,2.564,0.824,3.846c0.488,1.221,1.189,2.318,2.105,3.295
		c0.915,0.977,2.014,1.771,3.295,2.381c1.343,0.609,2.899,0.916,4.669,0.916c2.624,0,4.761-0.55,6.408-1.648
		c1.648-1.16,3.144-2.808,4.485-4.943l9.155,3.387c-0.916,1.893-1.983,3.631-3.204,5.219c-1.221,1.586-2.655,2.959-4.303,4.119
		c-1.647,1.099-3.57,1.983-5.768,2.654c-2.136,0.611-4.607,0.916-7.415,0.916c-3.967,0-7.354-0.732-10.162-2.197
		s-5.096-3.326-6.865-5.584c-1.771-2.319-3.082-4.883-3.937-7.689c-0.794-2.809-1.19-5.585-1.19-8.332
		c0-2.746,0.396-5.523,1.19-8.33c0.854-2.808,2.166-5.34,3.937-7.598c1.77-2.32,4.059-4.212,6.865-5.676
		c2.808-1.465,6.195-2.197,10.162-2.197c3.845,0,7.11,0.732,9.795,2.197c2.747,1.402,4.975,3.234,6.684,5.492
		c1.77,2.197,3.051,4.639,3.845,7.324c0.793,2.685,1.189,5.278,1.189,7.781L437.631,117.758z M416.117,99.998
		c-1.465,0-2.777,0.275-3.937,0.824c-1.099,0.488-2.075,1.16-2.93,2.014c-0.793,0.794-1.465,1.709-2.014,2.746
		c-0.549,1.038-0.915,2.106-1.099,3.205h19.865c-0.244-1.16-0.61-2.258-1.098-3.296c-0.488-1.038-1.13-1.953-1.923-2.747
		c-0.794-0.854-1.77-1.525-2.93-2.014C418.955,100.242,417.644,99.998,416.117,99.998L416.117,99.998z"/>
	<path fill="#FFFFFF" d="M441.297,114.096c0-3.539,0.427-6.774,1.281-9.703c0.916-2.93,2.259-5.432,4.028-7.508
		c1.771-2.074,3.967-3.691,6.592-4.852c2.624-1.159,5.676-1.739,9.154-1.739c2.319,0,4.486,0.519,6.5,1.556
		c2.075,0.977,3.631,2.106,4.669,3.389V72.351h11.352v64.815h-11.352v-4.76c-0.306,0.609-0.794,1.25-1.465,1.922
		c-0.672,0.61-1.495,1.189-2.472,1.739s-2.075,0.977-3.296,1.282c-1.221,0.365-2.532,0.549-3.937,0.549
		c-3.479,0-6.53-0.58-9.154-1.739s-4.821-2.776-6.592-4.853c-1.77-2.074-3.112-4.576-4.028-7.506
		C441.724,120.871,441.297,117.637,441.297,114.096L441.297,114.096z M453.198,114.096c0,4.578,1.038,8.087,3.113,10.528
		c2.074,2.38,4.607,3.57,7.598,3.57c2.991,0,5.493-1.19,7.507-3.57c2.075-2.441,3.113-5.95,3.113-10.528
		c0-4.577-1.038-8.056-3.113-10.436c-2.014-2.441-4.516-3.662-7.507-3.662c-2.99,0-5.523,1.221-7.598,3.662
		C454.236,106.039,453.198,109.519,453.198,114.096z"/>
	<path fill="#FFFFFF" d="M492.396,78.485c0-2.075,0.672-3.814,2.015-5.218c1.403-1.404,3.173-2.106,5.309-2.106
		c2.137,0,3.876,0.702,5.219,2.106c1.403,1.404,2.105,3.143,2.105,5.218c0,2.075-0.702,3.814-2.105,5.218
		c-1.343,1.403-3.082,2.105-5.219,2.105c-2.136,0-3.905-0.702-5.309-2.105C493.068,82.3,492.396,80.561,492.396,78.485z
		 M505.396,91.76V137.9h-11.352V91.76H505.396z"/>
	<path fill="#FFFFFF" d="M510.953,114.096c0-3.539,0.488-6.774,1.465-9.703c0.977-2.93,2.41-5.432,4.303-7.508
		c1.892-2.074,4.181-3.691,6.865-4.852c2.747-1.159,5.859-1.739,9.338-1.739c2.563,0,4.943,0.55,7.141,1.647
		c2.258,1.038,3.906,2.197,4.943,3.479v-4.393h11.353v46.14h-11.353v-4.761c-1.098,1.525-2.685,2.838-4.76,3.938
		c-2.014,1.037-4.455,1.556-7.323,1.556c-3.479,0-6.592-0.58-9.338-1.739c-2.686-1.16-4.975-2.777-6.866-4.852
		c-1.892-2.076-3.326-4.578-4.303-7.508c-0.977-2.929-1.465-6.164-1.465-9.703V114.096z M522.855,114.096
		c0,2.319,0.305,4.363,0.915,6.134c0.671,1.708,1.557,3.173,2.654,4.394c1.099,1.16,2.351,2.045,3.754,2.655
		s2.838,0.915,4.303,0.915s2.898-0.305,4.303-0.915c1.403-0.61,2.624-1.495,3.661-2.655c1.099-1.221,1.953-2.686,2.563-4.394
		c0.672-1.771,1.007-3.814,1.007-6.134c0-2.258-0.335-4.271-1.007-6.041c-0.61-1.771-1.465-3.235-2.563-4.395
		c-1.037-1.221-2.258-2.137-3.661-2.746c-1.404-0.611-2.838-0.916-4.303-0.916s-2.899,0.305-4.303,0.916
		c-1.403,0.609-2.655,1.525-3.754,2.746c-1.098,1.16-1.983,2.624-2.654,4.395C523.159,109.824,522.855,111.838,522.855,114.096z"/>
</g>
</svg>
