<svg xmlns="http://www.w3.org/2000/svg" width="600" height="201.43">
    <path fill="#FF544D" d="M211.122 45.316v139.636a16.441 16.441 0 0 0 16.477 16.477h355.925a16.441 16.441 0 0 0 16.477-16.477V61.79a16.441 16.441 0 0 0-16.477-16.477h-372.4l-.002.003zM211.122 45.316l-.032.001.032-.001z"/>
    <path fill="#FFF" d="M163.792 42.832c-.967-7.884-6.138-43.773-29.374-42.813-20.05 1.06-25.881 19.867-32.087 34.576-7.396 20.132-9.963 24.236-20.443 24.236-11.331-.529-18.175-16.328-22.744-22.971-3.704-5.518-13.546-22.54-27.577-22.011-7.641 0-19.584 3.89-27.116 23.205C-2.368 57.814.215 78.745 2 87.725c5.964 22.246 9.464 35.35 19.949 33.838 11.27-.786 4.998-17.873 2.079-26.827-1.867-5.578-8.419-24.154-.918-28.485 7.877-5.081 15.018 14.18 22.473 25.579 6.717 11.686 11.153 25.195 34.018 25.628 14.291 0 22.681-8.237 26.826-16.087 6.127-12.656 13.566-55.475 29.727-55.883 11.788.469 8.629 20.139 8.465 27.277-.464 7.92-5.75 24.355 7.479 25.97 15.401.267 13.628-41.506 11.693-55.905l.001.002z"/>
    <g fill="#FFF">
        <path d="M286.81 144.523h-24.032l-5.521 17.861h-15.155l25.656-75.777h14.073l25.656 75.777h-15.155l-5.522-17.861zm-20.028-12.992h16.021l-8.011-26.306-8.01 26.306zM359.741 146.794c-2.093 5.195-5.232 9.093-9.418 11.69-4.113 2.599-9.237 3.897-15.372 3.897-4.475 0-8.372-.722-11.691-2.165-3.32-1.516-6.099-3.536-8.336-6.063-2.165-2.598-3.824-5.593-4.979-8.985-1.082-3.464-1.624-7.108-1.624-10.934s.542-7.434 1.624-10.825c1.155-3.464 2.814-6.459 4.979-8.985 2.237-2.598 5.017-4.618 8.336-6.063 3.32-1.516 7.217-2.273 11.691-2.273 6.135 0 11.259 1.3 15.372 3.897 4.186 2.598 7.325 6.495 9.418 11.691l-12.017 4.871c-1.443-2.887-3.175-5.088-5.196-6.604-2.021-1.588-4.547-2.382-7.577-2.382-4.259 0-7.434 1.588-9.527 4.764-2.021 3.104-3.03 7.072-3.03 11.908 0 4.835 1.01 8.841 3.03 12.016 2.094 3.104 5.269 4.655 9.527 4.655 3.03 0 5.557-.758 7.577-2.273 2.021-1.588 3.753-3.825 5.196-6.712l12.017 4.875zM414.196 146.794c-2.093 5.195-5.232 9.093-9.418 11.69-4.113 2.599-9.237 3.897-15.372 3.897-4.475 0-8.372-.722-11.691-2.165-3.319-1.516-6.099-3.536-8.335-6.063-2.166-2.598-3.825-5.593-4.98-8.985-1.082-3.464-1.624-7.108-1.624-10.934s.542-7.434 1.624-10.825c1.155-3.464 2.814-6.459 4.98-8.985 2.237-2.598 5.016-4.618 8.335-6.063 3.32-1.516 7.217-2.273 11.691-2.273 6.135 0 11.259 1.3 15.372 3.897 4.186 2.598 7.325 6.495 9.418 11.691l-12.017 4.871c-1.443-2.887-3.175-5.088-5.196-6.604-2.021-1.588-4.546-2.382-7.577-2.382-4.258 0-7.434 1.588-9.526 4.764-2.021 3.104-3.031 7.072-3.031 11.908 0 4.835 1.01 8.841 3.031 12.016 2.093 3.104 5.268 4.655 9.526 4.655 3.031 0 5.557-.758 7.577-2.273 2.021-1.588 3.753-3.825 5.196-6.712l12.017 4.875zM419.109 92.124c0-2.454.794-4.511 2.382-6.171 1.66-1.66 3.753-2.49 6.279-2.49 2.525 0 4.582.83 6.17 2.49 1.66 1.66 2.49 3.717 2.49 6.171 0 2.453-.83 4.511-2.49 6.17-1.588 1.66-3.645 2.49-6.17 2.49-2.526 0-4.619-.83-6.279-2.49-1.588-1.66-2.382-3.717-2.382-6.17zm15.372 15.697v54.561h-13.423v-54.561h13.423zM441.181 134.235c0-3.97.613-7.65 1.841-11.042 1.227-3.464 3.031-6.459 5.412-8.985 2.382-2.526 5.269-4.511 8.66-5.954 3.465-1.443 7.398-2.165 11.801-2.165s8.299.722 11.69 2.165c3.465 1.443 6.388 3.428 8.77 5.954 2.381 2.526 4.186 5.521 5.412 8.985 1.228 3.392 1.841 7.072 1.841 11.042s-.613 7.687-1.841 11.15c-1.227 3.392-3.03 6.351-5.412 8.877-2.382 2.525-5.305 4.51-8.77 5.954-3.392 1.443-7.288 2.165-11.69 2.165s-8.336-.722-11.8-2.165c-3.393-1.443-6.279-3.429-8.661-5.954-2.381-2.526-4.186-5.485-5.412-8.877-1.228-3.465-1.841-7.182-1.841-11.15zm14.073 0c0 2.237.289 4.366.866 6.387.649 2.021 1.552 3.789 2.706 5.305a13.787 13.787 0 0 0 4.223 3.681c1.731.866 3.681 1.299 5.846 1.299s4.077-.433 5.737-1.299c1.731-.938 3.175-2.165 4.33-3.681 1.154-1.516 2.021-3.284 2.598-5.305.649-2.021.975-4.149.975-6.387s-.325-4.366-.975-6.387c-.577-2.021-1.443-3.789-2.598-5.305a12.263 12.263 0 0 0-4.33-3.572c-1.66-.938-3.572-1.407-5.737-1.407-2.166 0-4.114.469-5.846 1.407a12.575 12.575 0 0 0-4.223 3.572c-1.154 1.516-2.057 3.284-2.706 5.305-.577 2.02-.866 4.149-.866 6.387zm12.125-49.364h18.187l-14.831 16.021H460.45l6.929-16.021zM517.98 107.823v8.769c2.021-2.887 4.438-5.195 7.253-6.928 2.887-1.805 6.098-2.707 9.635-2.707 4.907 0 8.912 1.371 12.016 4.114 3.176 2.742 4.764 6.855 4.764 12.341v38.97h-13.424v-34.966c0-3.248-.722-5.558-2.165-6.929s-3.319-2.057-5.629-2.057c-1.66 0-3.247.505-4.763 1.515-1.443.938-2.743 2.346-3.897 4.223-1.155 1.876-2.093 4.186-2.815 6.929-.649 2.742-.974 5.917-.974 9.526v21.759h-13.424v-54.561l13.423.002z"/>
    </g>
</svg>
