<svg xmlns="http://www.w3.org/2000/svg" height="156.67" width="600" viewBox="0 0 158.75 41.452">
    <g stroke-width=".939">
        <path d="M43.446 9.325v28.736a3.383 3.383 0 0 0 3.39 3.391h108.53a3.383 3.383 0 0 0 3.391-3.39V12.716a3.383 3.383 0 0 0-3.39-3.391H43.447z" fill="#01da95"/>
        <path d="M43.446 9.325h-.007.007z" fill="#ff0"/>
        <path d="M33.705 8.815C33.506 7.192 32.442-.194 27.66.004c-4.126.218-5.326 4.088-6.603 7.115-1.522 4.143-2.05 4.988-4.207 4.988-2.332-.109-3.741-3.36-4.681-4.727-.762-1.136-2.787-4.64-5.675-4.53-1.572 0-4.03.8-5.58 4.775-1.403 4.273-.872 8.58-.504 10.428 1.227 4.578 1.947 7.274 4.105 6.964 2.32-.162 1.029-3.678.428-5.521-.384-1.148-1.733-4.97-.189-5.862 1.621-1.046 3.09 2.918 4.625 5.264 1.382 2.405 2.295 5.185 7 5.274 2.941 0 4.668-1.695 5.521-3.31 1.26-2.605 2.792-11.416 6.117-11.5 2.426.096 1.776 4.144 1.742 5.613-.095 1.63-1.183 5.012 1.54 5.344 3.169.055 2.804-8.541 2.406-11.505z" fill="#004e7e"/>
    </g>
    <g fill="#fff">
        <path d="M51.471 33.287v-15.6h4.88q1.382 0 2.674.446 1.315.445 2.34 1.404 1.025.958 1.627 2.429.624 1.47.624 3.52t-.624 3.522q-.601 1.47-1.627 2.429-1.025.958-2.34 1.403-1.292.446-2.674.446zm3.967-2.674q.936 0 1.872-.223t1.671-.78q.758-.58 1.226-1.56.468-1.003.468-2.563t-.468-2.54q-.468-1.003-1.226-1.56-.735-.58-1.671-.802-.936-.223-1.872-.223h-1.07v10.25zM75.115 28.384h-7.733q.022.468.2.936.179.446.513.802t.803.58q.49.222 1.136.222.958 0 1.56-.4.602-.424 1.092-1.204l2.228.824q-.334.691-.78 1.27-.445.58-1.047 1.003-.602.402-1.404.647-.78.223-1.805.223-1.448 0-2.473-.535t-1.672-1.36q-.646-.846-.958-1.872-.29-1.025-.29-2.027t.29-2.028q.312-1.025.958-1.85.646-.847 1.671-1.382 1.026-.534 2.474-.534 1.404 0 2.385.534 1.002.513 1.626 1.337.647.803.936 1.783.29.98.29 1.894zm-5.237-4.323q-.535 0-.958.2-.401.179-.713.49-.29.29-.49.67t-.268.78h4.836q-.09-.424-.268-.803t-.468-.669q-.29-.312-.713-.49-.4-.178-.958-.178zM87.05 27.493q0 1.292-.334 2.362-.312 1.07-.959 1.827-.646.758-1.604 1.182-.958.423-2.229.423-.846 0-1.604-.357-.735-.378-1.114-.846v5.57h-2.764V21.878h2.763v1.159q.112-.223.357-.446.245-.245.601-.446.357-.2.803-.312.445-.133.958-.133 1.27 0 2.228.423.959.423 1.605 1.181t.958 1.827q.334 1.07.334 2.363zm-2.897 0q0-1.671-.758-2.54-.757-.892-1.85-.892-1.091 0-1.849.891-.735.87-.735 2.541t.735 2.563q.758.869 1.85.869t1.85-.87q.757-.89.757-2.562zM87.873 27.493q0-1.226.379-2.273.379-1.07 1.114-1.85.735-.78 1.783-1.225 1.07-.446 2.429-.446 1.36 0 2.407.446 1.07.445 1.805 1.225.735.78 1.114 1.85.379 1.047.379 2.273 0 1.226-.38 2.295-.378 1.048-1.113 1.828-.736.78-1.805 1.225-1.048.446-2.407.446-1.36 0-2.43-.446-1.047-.445-1.782-1.225-.735-.78-1.114-1.828-.379-1.07-.379-2.295zm2.897 0q0 .69.178 1.315.2.624.557 1.092.357.468.87.757.534.268 1.203.268.668 0 1.181-.268.535-.29.891-.757t.535-1.092q.2-.624.2-1.315 0-.69-.2-1.315-.178-.624-.535-1.092-.356-.468-.891-.735-.513-.29-1.181-.29-.669 0-1.203.29-.513.267-.87.735-.356.468-.557 1.092-.178.624-.178 1.315zM100.75 33.287V22.055h2.763v1.827q.602-1.003 1.471-1.493.891-.512 1.85-.512.178 0 .4.022.246.022.447.067v2.696q-.513-.312-1.16-.312-.601 0-1.158.268-.535.267-.958.846-.401.58-.647 1.538-.245.936-.245 2.295v3.99zM115.37 33.041q-.29.09-.69.156-.38.09-.981.09-1.76 0-2.853-1.026-1.07-1.025-1.07-3.12V24.24h-1.738v-2.363h1.739v-2.808l2.763-1.738v4.546h2.964v2.363h-2.964v4.858q0 1.047.379 1.448.379.379 1.092.379.379 0 .69-.09.313-.088.67-.267zM126.55 28.384h-7.733q.023.468.2.936.179.446.513.802t.803.58q.49.222 1.136.222.958 0 1.56-.4.602-.424 1.092-1.204l2.228.824q-.334.691-.78 1.27-.445.58-1.047 1.003-.602.402-1.404.647-.78.223-1.805.223-1.448 0-2.474-.535t-1.67-1.36q-.647-.846-.96-1.872-.289-1.025-.289-2.027t.29-2.028q.312-1.025.958-1.85.646-.847 1.671-1.382 1.026-.534 2.474-.534 1.404 0 2.385.534 1.002.513 1.626 1.337.647.803.936 1.783.29.98.29 1.894zm-5.237-4.323q-.535 0-.958.2-.401.179-.713.49-.29.29-.49.67-.201.378-.268.78h4.836q-.09-.424-.268-.803-.178-.379-.468-.669-.29-.312-.713-.49-.4-.178-.958-.178zM131.35 21.699q1.137 0 2.072.513.936.49 1.449 1.314l-1.65 1.516q-.378-.513-.89-.736-.513-.245-.981-.245-.401 0-.713.245-.312.223-.312.691 0 .379.267.646.29.268.803.446.579.2 1.27.446.713.223 1.337.602.624.356 1.025.935.423.58.423 1.471 0 .758-.29 1.449-.267.668-.802 1.18-.512.513-1.247.825-.736.29-1.65.29-.869 0-1.604-.267-.735-.29-1.293-.713-.557-.446-.958-.981-.401-.557-.602-1.07l2.207-1.18q.312.824.869 1.336.557.513 1.381.513.647 0 1.003-.29.379-.29.379-.913 0-.357-.245-.58-.245-.223-.646-.401-.401-.2-.914-.357-.49-.156-1.003-.378-.468-.2-.891-.446-.401-.245-.713-.602-.312-.356-.49-.847-.179-.49-.179-1.136 0-.646.245-1.226.268-.601.736-1.047.468-.468 1.114-.736.668-.267 1.493-.267zM147.61 17.687v15.6h-2.81V21.609l-2.986 1.783v-3.03l4.568-2.675z"/>
    </g>
</svg>
