<svg width="2449.1" height="680" version="1.1" viewBox="0 0 647.98 179.92" xmlns="http://www.w3.org/2000/svg">
 <path d="m146.29 38.259c-0.86519-7.0423-5.484-39.099-26.235-38.242-17.912 0.94657-23.121 17.746-28.662 30.884-6.6066 17.98-8.896 21.649-18.258 21.649-10.121-0.47475-16.239-14.585-20.317-20.519-3.3099-4.9294-12.1-20.135-24.633-19.662-6.8249 0-17.493 3.4738-24.221 20.727-6.0905 18.544-3.784 37.241-2.1897 45.261 5.3278 19.868 8.4536 31.573 17.819 30.224 10.067-0.70547 4.4649-15.964 1.8573-23.964-1.6669-4.9827-7.5201-21.572-0.8195-25.441 7.0361-4.539 13.414 12.665 20.073 22.848 6 10.437 9.9622 22.505 30.385 22.892 12.765 0 20.259-7.3582 23.963-14.37 5.4725-11.305 12.118-49.551 26.552-49.915 10.529 0.41876 7.7078 17.988 7.5614 24.364-0.41418 7.0747-5.1366 21.755 6.6811 23.198 13.756 0.23733 12.172-37.074 10.444-49.937z" fill="#fff" stroke-width="4.0736"/>
 <path d="m186.36 40.476-0.0293 8.51e-4h0.0293z" fill="#ff0" stroke-width="4.0736"/>
 <path d="m186.36 40.477v124.73c0 8.1533 6.5631 14.718 14.717 14.718h432.2c8.1533 0 14.717-6.564 14.717-14.718v-110.01c0-8.1533-6.5635-14.717-14.717-14.717h-446.88z" fill="#01da95" stroke-width="4.0736"/>
 <g transform="matrix(1.2143 0 0 1.2143 186.34 -78.955)" fill="#fff" fill-rule="evenodd">
  <path d="m147.36 173.57h-23.01v-40.568h10.411v31.355h12.599" stroke-width="8.1973"/>
  <path d="m148.17 157.47c0-9.058 6.6152-17.059 15.517-17.059 3.9101 0 6.3529 1.328 9.222 3.9757v-3.3281h9.5826v32.519h-9.7466v-3.1806s-3.4838 3.9675-9.5744 3.9675c-8.9104 0-15.001-6.4595-15.001-16.895m17.452-7.9432c-4.6397 0-7.6071 3.492-7.6071 7.7792 0 4.5085 2.8117 8.2219 7.2874 8.2219 4.3282 0 7.9186-3.2379 7.9186-7.9514 0-4.7626-3.3281-8.0497-7.5989-8.0497" stroke-width="8.1973"/>
  <path d="m209.56 173.57h-23.026v-40.568h10.427v31.355h12.599" stroke-width="8.1973"/>
  <path d="m211.67 132.78c0-3.279 2.5986-5.9841 5.8365-5.9841 3.2215 0 5.8857 2.5904 5.8857 5.8857 0 3.3281-2.6641 6.0251-6.0005 6.0251-3.1724 0-5.7217-2.5904-5.7217-5.9266m0.93453 40.79h9.6812v-32.527h-9.6812z" stroke-width=".92767"/>
  <path d="m224.9 156.67c0-8.7875 5.5168-16.255 13.96-16.255 4.0577 0 6.8202 1.3198 9.5744 4.2872v-3.656h9.2793v28.658c0 10.058-7.4513 15.304-16.411 15.304-7.8694 0-14.739-4.0249-15.772-11.337h10.878c1.3526 2.2297 2.7051 2.6477 5.1069 2.6477 3.3855 0 6.5005-1.5821 6.5005-5.1315 0-0.85252 0.0573-1.5985-0.0492-2.4428-1.8772 1.6968-5.361 3.7626-9.1646 3.7626-8.2711 0-13.903-6.9923-13.903-15.837m16.198-7.8366c-4.5331 0-6.771 3.7544-6.771 7.7792 0 4.1888 2.4428 7.6399 6.7136 7.6399 4.8446 0 7.4514-3.9347 7.4514-7.5825 0-4.3446-2.4018-7.8366-7.394-7.8366" stroke-width="8.1973"/>
  <path d="m259.37 157.47c0-9.058 6.607-17.059 15.517-17.059 3.9019 0 6.3529 1.328 9.222 3.9757v-3.3281h9.5825v32.519h-9.7465v-3.1806s-3.4921 3.9675-9.5744 3.9675c-8.9104 0-15.001-6.4595-15.001-16.895m17.444-7.9432c-4.6397 0-7.5989 3.492-7.5989 7.7792 0 4.5085 2.8035 8.2219 7.2874 8.2219 4.32 0 7.9104-3.2379 7.9104-7.9514 0-4.7626-3.3281-8.0497-7.5989-8.0497" stroke-width="8.1973"/>
  <g transform="translate(-157.37 172.64)" stroke-width="5.917">
   <path d="m222.73-29.198c-3.1123 0.87571-5.7692 2.8402-7.5265 5.4673 0.50886-0.43194 1.1954-0.73377 1.7102-0.98228l-0.46166 1.1479c-0.37868 1.1716-0.49693 2.3431-0.38451 3.3963l3.7632 1.7218-0.0118 0.04149-4.0294-0.81651c-0.73371 0.79879-1.3433 1.8343-1.7338 3.0355l-0.30171 1.1952c-0.26035-0.49111-0.62727-1.1124-0.78703-1.7455l-0.0118 0.43783c0 3.1064 1.0532 5.9465 2.8224 8.2186-0.23076-0.5917-0.29585-1.284-0.36685-1.8224l0.94097 0.79303c1.0059 0.72187 2.0827 1.2011 3.1241 1.4141l2.8224-3.065 0.0355 0.02366-2.0414 3.6211c0.53252 0.92897 1.3254 1.8225 2.3372 2.5622l1.0472 0.65674c-0.53253 0.094673-1.207 0.24267-1.8401 0.21309 1.4142 0.50886 2.9288 0.78102 4.5146 0.78102 1.5798 0 3.1006-0.27216 4.5029-0.78102-0.6272 0.023668-1.3017-0.11841-1.8283-0.21309l1.0412-0.65674c1.0236-0.73962 1.8107-1.6332 2.3432-2.5622l-2.0414-3.6211 0.0355-0.02366 2.8224 3.0708c1.0355-0.21893 2.1183-0.69806 3.1183-1.4199l0.94662-0.79303c-0.071 0.53253-0.14193 1.2248-0.36086 1.8106 1.7574-2.2603 2.8106-5.1063 2.8106-8.2068l-0.0118-0.426c-0.15384 0.6272-0.52076 1.2425-0.78702 1.7336l-0.29589-1.1952c-0.39052-1.1952-0.99986-2.2368-1.7276-3.0296l-4.0294 0.81669-0.012-0.04149 3.7574-1.7218c0.11242-1.0591-6e-3 -2.2248-0.38451-3.4023l-0.46166-1.1479c0.51478 0.24851 1.1952 0.55026 1.6982 0.97628-1.7514-2.6212-4.4022-4.5796-7.5145-5.4553 0.57986 0.34318 1.0828 0.91703 1.4911 1.3371l-1.2307-0.0888c-1.2485 0-2.4141 0.26037-3.3845 0.69822l-0.47349 4.0769h-0.0413l-0.47331-4.0769c-0.9763-0.43786-2.142-0.69822-3.3905-0.69822l-1.2307 0.0888c0.40828-0.42602 0.91122-0.99995 1.4911-1.3431zm3.6227 6.7017 5.8873 4.278-2.2484 6.9228h-7.2778l-2.2486-6.9228z"/>
   <path d="m195.98-41.655 0.0237 0.50294 0.18934 0.16568 15.218 8.8459 0.0355 0.01775 0.51478-0.0355 0.12426-0.12426 0.0414-0.071c1.4023-2.4911 3.3608-4.7099 5.846-6.4732 2.491-1.7633 5.2543-2.8697 8.0767-3.3608l0.0592-0.01183 0.1716-0.08284 0.20117-0.47928-6e-3 -0.02959-3.2188-17.307-6e-3 -0.0355-0.0888-0.19526-0.44969-0.19526-0.0414 0.01183c-5.3785 0.9763-10.704 3.1242-15.455 6.485-4.7632 3.3727-8.5264 7.6152-11.236 12.372"/>
   <path d="m187.28-8.2146 0.41419 0.29585 0.2426-0.047336 16.42-6.3312 0.0414-0.0059 0.30177-0.43194-0.0237-0.17159-0.0296-0.08284c-1.0651-2.6508-1.5739-5.562-1.3905-8.6033 0.18343-3.0532 1.0473-5.8992 2.4319-8.408l0.0296-0.05325 0.0473-0.18343-0.24852-0.46152-0.0296-0.01183-15.514-8.3193-0.0296-0.01775-0.20118-0.05325-0.44378 0.23076-0.0177 0.04142 6e-3 -0.0059c-2.6153 4.8046-4.2721 10.296-4.6212 16.112-0.35502 5.8223 0.60354 11.42 2.6153 16.502"/>
   <path d="m208.17 19.253 0.4852-0.13609 0.11242-0.21893 5.2365-16.81 0.0118-0.035502-0.14201-0.49703-0.15384-0.088755-0.0769-0.023668c-2.7336-0.81654-5.343-2.2307-7.6152-4.2602-2.2721-2.0354-3.9644-4.4851-5.0768-7.1241l-0.0178-0.053253-0.11242-0.15384-0.5207-0.08875-0.0296 0.01183-16.153 6.988-0.0355 0.017751-0.16567 0.12426-0.0888 0.49111 0.0118 0.035502c2.1479 5.0294 5.4259 9.7394 9.7689 13.627 4.3372 3.8934 9.3252 6.6152 14.562 8.195"/>
   <path d="m242.49 20.077 0.19526-0.46744-0.0947-0.22484-9.8104-14.615-0.0237-0.035502-0.47928-0.20118-0.16567 0.05917-0.0651 0.047336c-2.349 1.6272-5.0886 2.7691-8.0885 3.2662-3.0177 0.49111-5.9821 0.2781-8.7394-0.51478l-0.0592-0.017752-0.18343-0.00592-0.39643 0.3491-6e-3 0.029585-4.6803 16.976-0.0118 0.02367-6e-3 0.21893 0.32543 0.37277 0.0414 0.01183h-6e-3c5.2602 1.4792 10.988 1.8757 16.739 0.92897 5.7513-0.9408 11-3.1123 15.514-6.201"/>
   <path d="m264.84-6.1455-0.24259-0.44377-0.23668-0.05917-17.55-1.3727-0.0355-0.00592-0.4556 0.25443-0.0592 0.17159v0.082838c-0.18935 2.852-0.98222 5.704-2.4615 8.3666-1.4852 2.6745-3.491 4.8697-5.8164 6.5324l-0.0532 0.041419-0.12426 0.14201 0.0296 0.52069 0.0178 0.029586 10.414 14.195 0.0118 0.02367 0.17159 0.14201 0.49111-0.02367 0.0296-0.02367c4.4318-3.2129 8.2897-7.4554 11.118-12.55 2.8283-5.1004 4.3726-10.562 4.7513-16.017"/>
   <path d="m258.21-40.015-0.49702-0.08875-0.20118 0.14201-12.118 12.775-0.0296 0.02959-0.0828 0.50886 0.0947 0.14792 0.0592 0.05917c2.1005 1.9408 3.8105 4.3549 4.9584 7.1773 1.142 2.8342 1.5798 5.775 1.4082 8.6388l-6e-3 0.05917 0.0414 0.18343 0.4201 0.30768h0.0296l17.591 0.85205h0.0237l0.21302-0.035501 0.29585-0.39644v-0.047336c0.29585-5.4555-0.56803-11.124-2.7514-16.532-2.1834-5.4081-5.4495-10.047-9.4494-13.781"/>
   <path d="m227.42-55.757-0.37277 0.34318-0.0177 0.2426 2.5739 17.42 6e-3 0.0355 0.3491 0.3846 0.17751 0.01775 0.0828-0.01183c2.8165-0.45561 5.775-0.3136 8.698 0.53253 2.9407 0.84613 5.5265 2.3195 7.6743 4.2188l0.0414 0.0355 0.16567 0.08875 0.50295-0.14201 0.0237-0.02367 11.526-13.313 0.0177-0.01775 0.0947-0.19526-0.12426-0.47928-0.0355-0.02367h6e-3c-4.1182-3.5975-9.1181-6.4199-14.71-8.0412-5.6034-1.6153-11.272-1.9171-16.68-1.071"/>
  </g>
 </g>
 <g transform="translate(-291.17 344.79)" fill="#004e7e">
  <path d="m868.68-263.25v50.272h-9.049v-37.632l-9.6235 5.7454v-9.7671l14.723-8.6181z"/>
  <path d="m896.37-263.83q4.5245 0 7.9717 1.7954 3.4472 1.7236 5.7454 5.0272 2.37 3.3036 3.5909 8.1153 1.2209 4.7399 1.2209 10.773 0 6.0326-1.2209 10.844-1.2209 4.7399-3.5909 8.0435-2.2982 3.3036-5.7454 5.099-3.4472 1.7236-7.9717 1.7236t-7.9717-1.7236q-3.4472-1.7954-5.8172-5.099-2.2982-3.3036-3.519-8.0435-1.2209-4.8118-1.2209-10.844 0-6.0326 1.2209-10.773 1.2209-4.8118 3.519-8.1153 2.37-3.3036 5.8172-5.0272 3.4472-1.7954 7.9717-1.7954zm0 8.3308q-4.9554 0-7.3254 4.4527-2.2982 4.4527-2.2982 12.927 0 8.4744 2.2982 12.927 2.37 4.4527 7.3254 4.4527t7.2535-4.4527q2.37-4.4527 2.37-12.927 0-8.4744-2.37-12.927-2.2982-4.4527-7.2535-4.4527z"/>
 </g>
</svg>
