<svg width="200mm" height="322.337" viewBox="0 0 200 85.285" xmlns="http://www.w3.org/2000/svg">
    <path d="M42.64 0C19.123 0-.003 19.127-.003 42.643S19.124 85.285 42.64 85.285c18.164 0 33.708-11.41 39.844-27.44h-6.276C70.431 70.612 57.591 79.472 42.64 79.472c-20.375 0-36.83-16.454-36.83-36.829s16.455-36.83 36.83-36.83c14.972 0 27.827 8.885 33.592 21.682h6.273C76.384 11.436 60.825-.001 42.64-.001zm35.282 32.033a36.946 36.946 0 0 1 1.548 10.611c0 3.71-.548 7.29-1.564 10.665h6.027a42.584 42.584 0 0 0 1.35-10.665 42.59 42.59 0 0 0-1.336-10.611z" color="#000" fill="#78ccd0" style="font-feature-settings:normal;font-variant-alternates:normal;font-variant-caps:normal;font-variant-ligatures:normal;font-variant-numeric:normal;font-variant-position:normal;isolation:auto;mix-blend-mode:normal;shape-padding:0;text-decoration-color:#000;text-decoration-line:none;text-decoration-style:solid;text-indent:0;text-orientation:mixed;text-transform:none;white-space:normal"/>
    <path d="M27.35 48.22h3.482l2.891-5.458v10.492h5.104V32.028h-4.732l-5.004 9.692-5.005-9.692h-4.732v21.226h5.01V42.762zM50.01 32.07c-4.946 0-8.105 3.479-8.105 8.372v4.6c0 4.893 3.159 8.372 8.105 8.372s8.105-3.479 8.105-8.373v-4.599c0-4.893-3.159-8.372-8.105-8.372zm0 16.745c-1.788 0-2.8-1.297-2.8-4.127v-3.892c0-2.83 1.012-4.127 2.8-4.127 1.788 0 2.8 1.297 2.8 4.127v3.892c0 2.83-1.012 4.127-2.8 4.127zM60.71 49.21v4.047h14.171v-4.676h-8.058l8.058-12.503V32.03H60.978v4.677h7.736zM95.86 44.07l-3.6-11.968h-5.432l7.04 21.15h4.008l6.784-21.15h-5.265zM107.756 53.18h14.222v-4.62h-9.08v-3.763h7.837V40.28h-7.838v-3.554h9.081v-4.62h-14.222zM136.208 53.25h5.9l-4.59-8.883c1.989-1.091 3.465-2.529 3.465-5.47 0-4.67-3.736-6.813-7.26-6.797h-8.195v21.15h5.106v-7.926h1.763zm-5.574-12.049V36.7h2.667c1.325 0 2.434.825 2.434 2.25 0 1.426-1.109 2.251-2.434 2.251zM172.32 32.1v12.935c0 2.66-.984 3.706-2.768 3.706-1.783 0-2.778-1.047-2.767-3.706V32.1h-5.272v13.237c0 5.047 3.083 8.28 8.04 8.28 4.956 0 8.039-3.233 8.039-8.28V32.1zM144.338 49.23v4.047H158.7v-4.676h-8.166l8.166-12.503V32.05h-14.09v4.677h7.84zM188.521 48.23h3.482l2.891-5.458v10.492H200V32.038h-4.732l-5.005 9.692-5.005-9.692h-4.732v21.226h5.01V42.772z" fill="#b2b1af"/>
</svg>
