<svg width="179.76mm" height="96.344mm" version="1.1" viewBox="0 0 636.93172 341.37563" xmlns="http://www.w3.org/2000/svg">
 <g transform="translate(-29.591 -688.84)">
  <path d="m80.216 957.59h-50.625v-268.75h151.15l1.2476 4.6875c0.68615 2.5781 8.2571 33.656 16.824 69.062 8.5672 35.406 19.043 78.578 23.28 95.938l7.7032 31.562 0.83326-6e-3 0.83325-6e-3 24.313-100.62 24.313-100.62h149.5v268.75h-98.75v-147.5h-2.0184l-19.846 73.75-19.846 73.75h-116.85l-1.2836-4.0625c-0.70598-2.2344-6.4291-23.188-12.718-46.562-6.2889-23.375-12.43-46.156-13.646-50.625-1.2162-4.4688-4.3491-16.281-6.9618-26.25s-5.2194-18.659-5.7926-19.312l-1.0421-1.1875v148h-50.625z" fill="#436e64"/>
  <path d="m189.62 1030.2c-13.737 1.0356-23.404-11.573-22.957-22.359-0.0686-12.301 11.089-21.856 22.957-22.052 13.353 0.14968 22.654 9.6746 22.992 22.052-0.0726 12.672-10.567 22.234-22.992 22.359zm9.5361-22.359c0.0535-5.5633-3.9149-9.5228-9.5361-9.5228-5.7849 0.10576-8.9064 3.6205-9.1742 9.5228-0.28876 6.4009 2.9559 9.863 9.0076 10.854 7.0293-0.9866 9.9019-5.4341 9.7027-10.854zm-159.88 21.727h-7.6167v-42.5h13.789l6.3842 8.75c3.5113 4.8125 6.5431 8.75 6.7373 8.75s3.2721-3.9375 6.8397-8.75l6.4867-8.75h13.513v42.5h-14.375c-0.03888-8.8462 0.04978-15.099 0-24.7l-6.1671 8.7452-6.1671 8.418-5.7079-8.0484c-3.1394-4.4265-7.099-9.0813-7.6964-9.1148 0.06097 8.5697-0.22194 17.526 0 24.695h-6.0199zm275.51 0h-21.875v-0.6619c0-0.364 4.6406-7.5359 10.312-15.938 5.6719-8.4016 10.5-15.698 10.729-16.213l0.41668-0.9375h-22.791v-8.75h45.127l-11.294 16.875-11.294 16.875h22.544v8.75zm108.75 0h-6.875v-42.5h13.75v42.5zm39.38-18.91-2.5048 1.715v-305.15l17.188 12.806c9.4531 7.0431 54.875 40.555 100.94 74.47 46.062 33.915 84.704 62.571 85.869 63.679l2.1192 2.015-100.55 74.375c-55.304 40.906-101.68 75.147-103.06 76.09zm73.12-102.34h16.875v-31.25h32.5v-33.75h-32.5v-32.5h-33.75v32.5h-32.5v33.75h32.5v31.25z" fill="#29b473"/>
 </g>
</svg>
