<svg width="679.408" height="364.135" viewBox="0 0 636.932 341.376" xmlns="http://www.w3.org/2000/svg">
    <path d="M50.625 268.75H0V0h151.15l1.248 4.688c.686 2.578 8.257 33.655 16.824 69.061 8.567 35.407 19.043 78.579 23.28 95.939l7.703 31.562.833-.006.833-.006 24.313-100.62L250.497-.002h149.5v268.75h-98.75v-147.5h-2.018l-19.846 73.75-19.846 73.75h-116.85l-1.284-4.063c-.706-2.234-6.429-23.188-12.718-46.562a37662.215 37662.215 0 0 0-13.646-50.625c-1.216-4.469-4.349-16.281-6.961-26.25s-5.22-18.659-5.793-19.312l-1.042-1.188v148H50.618z" fill="#436e64"/>
    <path d="M160.029 341.36c-13.737 1.036-23.404-11.573-22.957-22.359-.069-12.301 11.089-21.856 22.957-22.052 13.353.15 22.654 9.675 22.992 22.052-.073 12.672-10.567 22.234-22.992 22.359zm9.536-22.359c.054-5.563-3.915-9.523-9.536-9.523-5.785.106-8.906 3.62-9.174 9.523-.289 6.4 2.956 9.863 9.007 10.854 7.03-.987 9.902-5.434 9.703-10.854zM9.685 340.728H2.068v-42.5h13.79l6.384 8.75c3.51 4.813 6.543 8.75 6.737 8.75s3.272-3.938 6.84-8.75l6.486-8.75h13.513v42.5H41.443c-.039-8.846.05-15.099 0-24.7l-6.167 8.745-6.167 8.418-5.708-8.048c-3.14-4.427-7.099-9.081-7.696-9.115.06 8.57-.222 17.526 0 24.695h-6.02zm275.51 0H263.32v-.662c0-.364 4.64-7.536 10.312-15.938 5.672-8.401 10.5-15.698 10.73-16.213l.416-.937h-22.791v-8.75h45.127l-11.294 16.875-11.294 16.875h22.544v8.75zm108.75 0h-6.875v-42.5h13.75v42.5zm39.38-18.91l-2.505 1.715V18.383l17.188 12.806c9.453 7.043 54.875 40.555 100.94 74.47 46.062 33.915 84.704 62.571 85.87 63.679l2.119 2.015-100.55 74.375c-55.304 40.906-101.68 75.147-103.06 76.09zm73.12-102.34h16.875v-31.25h32.5v-33.75h-32.5v-32.5h-33.75v32.5h-32.5v33.75h32.5v31.25z" fill="#29b473"/>
</svg>
