<svg version="1.1" viewBox="0 0 800 288.6" xmlns="http://www.w3.org/2000/svg" xmlns:xlink="http://www.w3.org/1999/xlink">
 <defs>
  <linearGradient id="b" x1="210.16" x2="94.337" y1="100.4" y2="64.661" gradientTransform="translate(5.7709 -100.92)" gradientUnits="userSpaceOnUse">
   <stop stop-color="#fbdf11" offset="0"/>
   <stop stop-color="#fbdf11" stop-opacity="0" offset="1"/>
  </linearGradient>
  <linearGradient id="a" x1="-64.531" x2="-79.836" y1="182.33" y2="33.151" gradientTransform="translate(5.7709 -100.92)" gradientUnits="userSpaceOnUse">
   <stop stop-color="#dd000f" offset="0"/>
   <stop stop-color="#dd000f" stop-opacity="0" offset="1"/>
  </linearGradient>
 </defs>
 <g transform="matrix(3.7281 0 0 3.7281 -31.536 -44.6)">
  <path d="m8.9579 23.567h136.79v54.218h-136.79z" fill="url(#a)" stroke="#000" stroke-linecap="round" stroke-linejoin="round" stroke-width=".99799"/>
  <path d="m145.77 12.477h76.775v76.398h-76.775z" fill="url(#b)" stroke="#000" stroke-linecap="round" stroke-linejoin="round"/>
  <path d="m21.247 50.281v-16.495l3.7266 4e-3 3.7266 3e-3 5.3985 5.9486c2.9692 3.2718 5.4726 6.0361 5.5632 6.143l0.16464 0.19434 11.187-12.292h7.4594v32.989h-8.5409v-10.319c0-5.6753-0.02719-10.317-0.06043-10.315-0.03324 2e-3 -2.1617 2.3325-4.7298 5.1786l-4.6694 5.1746h-1.2448l-4.6995-5.1975-4.6995-5.1976-0.04084 20.676h-8.5404v-16.495z" fill="#fff"/>
  <path d="m68.829 52.844v-19.091l9.4766 0.0337c9.2042 0.0328 9.5046 0.0391 10.453 0.22134 1.8722 0.35965 3.2803 0.91673 4.691 1.8559 3.4367 2.2879 5.3316 6.2243 4.9418 10.266-0.23567 2.4435-1.0201 4.3324-2.585 6.2244-1.7631 2.1316-4.0212 3.4086-7.0131 3.9659-0.92667 0.17261-1.4062 0.19191-5.7384 0.23088l-3.7297 0.0425v7.6705l0.08312 2.4338h-10.496l-0.08312-13.854zm15.249-3.2772c2.0397-0.23453 3.2912-0.84671 4.0126-1.9628 0.49032-0.75862 0.65951-1.5396 0.6016-2.7771-0.07085-1.514-0.4951-2.4216-1.4242-3.047-1.2017-0.80875-2.9641-1.0926-6.7871-1.0931l-1.2384-3e-4v8.9661l1.5935-7.1e-4c1.3793-3.5e-4 2.8383-0.0387 3.2421-0.0851z" fill="#fff"/>
  <path d="m115.17 53.475-0.0888-10.591h-9.8906l0.0888-6.1425v-3.0354h30.982v3.0354l-0.0888 6.0537h-9.9647l0.0888 10.68v13.698h-11.127z" fill="#fff"/>
  <path d="m195.09 50.589v-14.584c-0.90056-8e-3 -3.0473-0.0125-5.2387-0.0187-2.0138-0.0624-4.4184 0.0948-6.1377-0.0491 5.4068-12.463 9.2499-21.355 10.09-23.186h28.884v75.676h-27.597z" fill="#dd000f"/>
  <path d="m145.76 12.463h76.775v76.398h-76.775z" fill="none" stroke="#000" stroke-linecap="round" stroke-linejoin="round"/>
 </g>
</svg>
