<svg version="1.1" viewBox="0 0 800 143.11" xmlns="http://www.w3.org/2000/svg">
 <g fill="#26ace2">
  <path class="st0" d="m0 2.4034h57.179l22.05 85.61 21.891-85.61h57.141v140.7h-35.604v-107.31l-27.434 107.31h-32.232l-27.388-107.31v107.31h-35.604z"/>
  <path class="st0" d="m185.59 143.1v-140.69h72.465c13.433 0 23.708 1.1551 30.806 3.4561 7.0984 2.3009 12.827 6.5768 17.178 12.809 4.3504 6.2414 6.5302 13.834 6.5302 22.795 0 7.8064-1.6675 14.542-4.9931 20.205-3.3256 5.6638-7.9089 10.256-13.731 13.768-3.7169 2.245-8.8032 4.0988-15.268 5.5707 5.1794 1.7327 8.9522 3.4561 11.318 5.1887 1.6023 1.1551 3.9125 3.6144 6.9494 7.3965 3.0369 3.7821 5.0676 6.6885 6.0924 8.738l21.053 40.774h-49.13l-23.242-43c-2.9437-5.5707-5.5707-9.1758-7.8716-10.843-3.1393-2.1705-6.6885-3.2604-10.657-3.2604h-3.838v57.104h-43.671zm43.671-83.691h18.333c1.9842 0 5.8222-0.64277 11.514-1.919 2.8785-0.57756 5.2353-2.0494 7.0519-4.4156 1.8258-2.3661 2.7388-5.0863 2.7388-8.1604 0-4.546-1.4439-8.03-4.3224-10.461-2.8785-2.4314-8.2908-3.6517-16.218-3.6517h-19.097v28.599z"/>
  <path class="st0" d="m325.31 2.4034h132.16v34.747h-44.342v105.95h-43.476v-105.96h-44.342z"/>
  <path class="st0" d="m463.92 2.4034h45.45l31.663 101.25 31.272-101.25h44.128l-52.241 140.7h-47.127z"/>
  <path class="st0" d="m610.97 76.685h56.815v30.229h-56.815z"/>
  <path class="st0" d="m748.27 116.8h-71.217v-32.148l71.217-84.65h34.067v86.476h17.662v30.331h-17.662v26.298h-34.067v-26.298zm0-30.322v-44.277l-37.625 44.277z"/>
 </g>
</svg>
