<svg width="266.37mm" height="95.695mm" version="1.1" viewBox="0 0 757.13 271.14" xmlns="http://www.w3.org/2000/svg">
 <g transform="translate(0 -4.3025e-6)" fill="#fff">
  <path d="m577 271.57h-144c-30-2-50-13-61-34s-8-24-6-39 7-25 9-38h-18l-30 111h-66l30-112h-21c-9 38-20 74-29 112h-66l22-82 4-14c1-5 3-13 0-16s-9-1-12 0-11 21-14 32l-21 80h-66c8-32 18-64 26-97 1-6 4-14-1-16s-8-1-11 1-10 16-12 25c-8 29-16 59-23 87h-67l29-108c6-24 20-41 38-54 18-13 19-12 31-15s28-3 39 2c11 5 18 12 25 21 16-11 33-25 61-25h86c1-5 3-9 4-14s-5-16-13-18 1-5 2-6h21c-4-6-2-15 1-20 3.5792-5.1174 8.3954-9.2456 14-12 5-3 13-5 18-8 3.8962-2.8316 6.996-6.6203 9-11 1-2 1-4 2-4h1c-1 4 0 9 1 12 1.4933 2.4496 3.5504 4.5067 6 6l9 4c4 3 9 9 8 18s-5 10-8 14-1 1-1 1h21l-2 6c-16 3-24 15-26 31l102 7.6e-5c18 1.3e-5 33 1.9999 45 6.9999 12 5 30 23 32 45s-5 44-10 64c-2 7-4 14-5 21s1 15 4 21 17 20 33 22zm-94-105c-3-4-9-8-17-7s-21 8-26 15-7 14-5 21c1.7133 7.6543 8.186 13.318 16 14h28c2-12 12-31 4-43z" fill-rule="evenodd"/>
  <path transform="matrix(.75204 0 0 .75204 0 -.43212)" d="m886.52 121.18a120.25 120.25 0 0 0-120.25 120.25 120.25 120.25 0 0 0 120.25 120.25 120.25 120.25 0 0 0 120.25-120.25 120.25 120.25 0 0 0-120.25-120.25zm11.779 57.967h24.926l-38.979 130.94h-24.342l34.396-108.66-38.307 23.844 7.8184-24.625 34.486-21.498z"/>
 </g>
</svg>
