<svg version="1.1" viewBox="0 0 800 800" xmlns="http://www.w3.org/2000/svg">
 <path d="m400 0c-220.48 0-400 179.52-400 400s179.52 400 400 400 400-179.52 400-400-179.52-400-400-400z" fill="#ff3334" stroke-width="1.6" Googl="true"/>
 <path d="m641.92 266.08c-29.6 0-57.278 16.158-70.878 40.638l33.919 21.122c10.24-14.56 22.399-21.6 36.959-21.6 20.8 0 34.081 15.041 34.081 33.441 0 18.4-15.041 32.319-35.041 32.319h-21.278v38.241h21.278c24.16 0 43.2 18.721 43.2 42.241 0 23.52-16.478 38.878-42.078 38.878-16.8 0-32.161-11.359-41.441-30.559l-32.481 27.041c12.16 27.52 41.282 46.078 73.922 46.078 50.24 0 82.559-31.998 82.559-81.438 0-28.96-17.122-55.521-33.922-63.841 12.16-7.52 25.281-24.159 25.281-48.959 0-42.56-31.201-73.6-74.081-73.6zm-268.48 30.878c-20.96 0-41.922 16.162-41.922 43.522v89.278a95.52 95.52 0 0 0 2.8812 24.641c6.24 24.96 30.081 35.681 52.481 35.681a71.84 71.84 0 0 0 41.119-12.962l-13.119-30.559c-2.88 1.92-7.6819 7.5219-21.122 7.5219-13.44 0-17.441-12.003-17.441-21.762v-56.959h34.562v-34.719h-34.562v-43.681zm164.8 39.681-38.559 98.078-30.562-94.078h-49.919l57.759 144.16h42.241s40.479-80.641 41.759-83.681c10.08-22.08-1.5988-51.998-22.719-64.478zm-368.48 0.47813c-16.16 0-36.159 10.562-43.359 22.722l-1.9188-22.559h-3.0406c-19.84 0.48-39.522 16.158-39.522 38.078v109.44h44.8v-77.441c0-9.28 2.5606-16.799 7.8406-22.719a27.04 27.04 0 0 1 20.8-8.9594c7.68 0 13.441 2.2375 17.281 7.0375s5.7594 11.36 5.7594 20v82.081h43.2v-77.441c0-9.28 2.7206-16.799 7.8406-22.719s13.12-8.9594 20.8-8.9594c7.68 0 13.438 2.2375 17.278 7.0375s5.7625 11.36 5.7625 20v82.081h44.8v-89.119c0-18.08-4.8019-32.162-14.722-42.722-9.92-10.56-23.198-15.841-42.878-15.841-19.68 0-36.96 7.04-48.8 20-7.68-10.56-20.002-20-41.922-20z" fill="#fff" stroke-width="1.6"/>
</svg>
