<svg version="1.1" viewBox="0 0 800 760.28" xmlns="http://www.w3.org/2000/svg">
 <g transform="matrix(.80017 0 0 .80017 -.087519 -19.948)" stroke-width="1.28">
  <path d="m0.10938 975.07h999.78v-950.14h-999.78z" fill="#00fff5"/>
  <path d="m846.29 760.8c-4.387 16.218-6.043 28.582-6.422 44.675-0.644 27.54-39.855 38.473-61.586 7.207-17.887-25.734-38.406-117.56-40.805-128.46-9.804-44.535-13.593-60.757-14.828-77.222-1.582-21.098 6.914-33.082 25.657-37.934 19.418-5.027 35.207 4.649 36.781 25.93 2.957 40.008 5.387 71.215 9.246 89.422 1.293 6.094 4.883 8.293 8.734 8.293 5.024 0 7.957-3.504 9.735-7.332 7.343-15.817 26.16-83.321 88.043-161.77v-161.13h-298.65l-102.26 102.26-102.27-102.26h-298.66v524.4h301.94v-180.77l98.977 98.973 98.972-98.973v180.77h40.567c0.402-14.207 0.691-33.125 0.433-41.153-0.371-8.378-0.781-28.511-0.781-39.394 0-60.531 5.297-75.363 5.297-162.6 0-26.086-5.84-32.425-14.254-32.425-9.402 0-33.18 17.875-50.699 30.347-28.094 19.969-43.227 35.883-61.411 35.883-10.738 0-16.863-4.734-23.679-13.453-1.274-1.609-4.891-8.824-4.891-14.57 0-6.446 2.578-15.368 12.481-21.34 10.707-6.442 22.531-5.211 47.922-20.535 30.109-18.172 66.105-39.25 71.902-42.918 10.348-5.442 7.875-13.817 7.887-21.571 0-16.886 15.136-22.726 28.125-22.726 12.457 0 20.187 4.605 22.054 5.453 4.664-2.586 16.778-9.371 39.461-23.359 27.899-17.208 27.414-30.817 44.805-34.547 19.285-4.133 31.5 14.679 31.5 27.82 0 19.715-25.188 31.172-37.875 38.336-35.52 20.058-48.074 28.512-60.727 36.695 0.672 7.906 0.664 26.262 0.676 42.125 0 26.41 7.926 75.707 7.926 103.03 0 32.421-1.352 72.625-1.352 82.625 0 16.125 1.825 34.445 3.325 47.128 0.976 10.379 2.308 27.383 3.039 41.153h190.21v-252.72c-0.332 0.652-0.664 1.301-0.996 1.961-16.461 32.789-37.5 69.191-53.559 124.68"/>
  <g transform="translate(271.04 282.77)">
   <path d="m83.812-26.516c-26.734 0-42.469-18.656-42.469-53.031 0-33.484 16.188-51.234 41.797-51.234 19.547 0 32.359 10.562 37.75 28.312l31.906-6.969c-6.516-28.749-29.438-52.343-69.438-52.343-47.625 0-76.625 35.047-76.625 82.234 0 48.312 28.547 84.047 77.078 84.047 39.328 0 62.25-20.453 69.656-53.484l-31.672-7.1875c-5.406 19.766-18.203 29.656-37.984 29.656z" stroke-width="1.28"/>
  </g>
  <g transform="translate(428.1 282.77)">
   <path d="m41.125 0v-158.42h-31.469v158.42z" stroke-width="1.28"/>
  </g>
  <g transform="translate(479.34 282.77)">
   <path d="m47.641 4.5c17.297 0 28.531-9.2188 34.375-18.203v13.703h30.562v-113.25h-30.562v63.594c0 16.625-6.5156 27.859-22.922 27.859-13.484 0-20.219-7.4219-20.219-24.719v-66.734h-30.562v72.578c0 27.859 13.266 45.172 39.328 45.172z" stroke-width="1.28"/>
  </g>
  <g transform="translate(601.13 282.77)">
   <path d="m122.47-56.625c0-42.469-21.125-61.125-47.422-61.125-17.75 0-29.875 9-35.281 17.75v-58.422h-30.547v158.42h30.547v-14.375c5.1719 9.6562 17.078 18.875 34.156 18.875 30.562 0 48.547-24.5 48.547-61.125zm-82.703-0.4531c0-20.438 9-32.797 26.078-32.797 16.844 0 25.609 12.359 25.609 32.797 0 20.672-8.7656 33.703-25.609 33.703-17.078 0-26.078-13.031-26.078-33.703z" stroke-width="1.28"/>
  </g>
 </g>
</svg>
