<svg width="600" height="585.74" version="1.1" viewBox="0 0 158.75 154.9781" xmlns="http://www.w3.org/2000/svg">
 <g transform="translate(-95.543 -127.21)" fill="#7541bb">
  <path d="m95.548 229.12v53.073h158.73v-53.073zm116.01 11.684c3.6516 0 6.6739 0.74256 9.0465 2.2484l-1.187 7.7365c-0.95909-0.99126-2.1052-1.7631-3.4246-2.3011-1.31-0.53512-2.7548-0.8041-4.3124-0.8041-1.155 0-2.2278 0.20479-3.1869 0.66096-0.97079 0.43275-1.7956 1.0524-2.4856 1.8448-0.70177 0.79534-1.237 1.7426-1.6201 2.8479-0.38012 1.114-0.56689 2.3219-0.56689 3.6623 0 2.2895 0.66963 4.064 2.0118 5.3123 1.3509 1.2486 3.2801 1.8686 5.8074 1.8686 1.0731 0 2.0845-0.14626 3.0117-0.4036 0.93862-0.26315 1.9097-0.69 2.898-1.2573l-1.157 7.1499c-0.64914 0.39182-1.5585 0.70223-2.7223 0.90691-1.155 0.20469-2.5176 0.31835-4.0747 0.31835-2.0936 0-3.9922-0.31874-5.6736-0.95033-1.6813-0.64037-3.1152-1.5469-4.2912-2.7223-1.1872-1.1755-2.0849-2.5995-2.7223-4.2705-0.64037-1.6814-0.95911-3.559-0.95911-5.6529 0-2.3012 0.40356-4.4766 1.2077-6.5293 0.81581-2.0527 1.9796-3.8477 3.5176-5.3744 2.8276-2.8685 6.4578-4.2912 10.883-4.2912zm11.387 0.70589h16.402l-0.98237 6.5174h-8.6238l-0.55553 3.1047c-0.0585 0.30996-0.117 0.54679-0.14624 0.70178-0.0205 0.14618-0.0874 0.3918-0.17518 0.70176 0.30995-0.0585 0.53489-0.0873 0.68109-0.0873h8.0775l-1.1028 6.2818h-8.5411l-0.55552 3.3218c-0.0585 0.30996-0.11701 0.54679-0.14625 0.70176-0.0205 0.14621-0.0874 0.37147-0.17518 0.66095 0.31872-0.0585 0.5468-0.0878 0.70177-0.0878h7.9737l-1.0206 6.4988h-16.329zm-107.35 9e-3h10.336c1.7837 0 3.4248 0.31853 4.931 0.93845 1.5059 0.62868 2.7838 1.5061 3.8478 2.6406 1.0614 1.1345 1.8857 2.4856 2.4851 4.054 0.59943 1.579 0.88624 3.3112 0.88624 5.2095 0 1.5585-0.20502 3.0635-0.58807 4.5077-0.40352 1.4445-0.95879 2.7837-1.681 4.0127-0.72224 1.2369-1.6085 2.33-2.6407 3.2696-1.0322 0.95033-2.1666 1.7224-3.4143 2.3218l1e-3 -2e-3c-1.9913 0.90646-4.3222 1.3627-7.0249 1.3627h-11.636zm33.804 0h9.4387l5.9934 28.316h-7.7783l-1.0614-5.6116h-10.027l-2.5177 5.6116h-8.5819zm19.951 5e-3h8.6754l4.6731 12.079c0.37134 0.92985 0.68112 1.7339 0.93844 2.4035 0.26317 0.66085 0.48539 1.3012 0.70177 1.9094 0.20469 0.60819 0.42369 1.2486 0.6196 1.9094 0.20469 0.66961 0.42429 1.4852 0.68161 2.4443l0.20464-0.0289c0.0292-0.99127 0.0583-1.8245 0.11679-2.5058 0.0292-0.68131 0.0877-1.3423 0.14624-1.9709 0.0585-0.64037 0.11692-1.31 0.20464-2.0205 0.0877-0.71057 0.20501-1.5792 0.33951-2.588l1.5787-11.615h7.6951l-4.5641 28.293h-8.6336l-4.6731-11.945c-0.35965-0.93861-0.66974-1.7338-0.91829-2.4034-0.23392-0.66085-0.46504-1.2983-0.66973-1.9094-0.20467-0.60822-0.42369-1.2486-0.61959-1.9182-0.20469-0.66085-0.42431-1.4649-0.68162-2.4035l-0.26303 0.0584c-0.0292 0.99126-0.0581 1.8274-0.0873 2.5058-0.0292 0.66961-0.0585 1.3304-0.14625 1.9503-0.0585 0.62868-0.14637 1.2898-0.23409 2.0004-0.11696 0.71054-0.23393 1.5671-0.35967 2.5993l-1.5792 11.471h-7.6435zm-16.226 5.3237c-0.20468 0.6813-0.37141 1.2572-0.50592 1.7425-0.1462 0.4854-0.29268 0.93874-0.43304 1.3627-0.1462 0.42399-0.30949 0.86555-0.5054 1.31-0.20468 0.45323-0.44466 1.0117-0.72243 1.6609l-0.8568 1.9999c-0.1462 0.33914-0.26318 0.62026-0.35967 0.84542-0.0877 0.23392-0.2046 0.45299-0.29817 0.68109-0.0877 0.23392-0.2048 0.4649-0.31885 0.70175-0.11695 0.23395-0.23368 0.53536-0.42374 0.87747 0.71054-0.0585 1.2574-0.0878 1.6609-0.0878h3.7662c0.17544 0 0.45287 0.0293 0.82424 0.0878-0.11696-0.37134-0.1751-0.6495-0.23358-0.83664-0.0293-0.17545-0.0877-0.47376-0.14625-0.86559l0.0176-0.0108-0.58807-3.4044c-0.11696-0.6813-0.20477-1.2485-0.29249-1.7017-0.0585-0.45323-0.11671-0.8862-0.17518-1.3219-0.0292-0.42397-0.0587-0.86524-0.0879-1.3301-0.0208-0.46495-0.0291-1.0324-0.0584-1.6816zm-28.671 1.0449-8e-3 5e-3h-2.0939l-2.2893 14.153c-0.0585 0.31872-0.11679 0.54679-0.11679 0.70175-0.0292 0.14621-0.088 0.38024-0.17569 0.66096 0.26317-0.0585 0.44426-0.0873 0.57877-0.0873h1.6407c1.4123 0 2.5787-0.14647 3.5068-0.42426 0.91815-0.29242 1.7021-0.7544 2.3513-1.4035 0.82458-0.8246 1.4764-1.8977 1.9384-3.2287 0.46493-1.3422 0.70177-2.7956 0.70177-4.3842 0-1.9504-0.51449-3.445-1.5467-4.4664-1.041-1.0117-2.5262-1.526-4.4871-1.526z"/>
  <path d="m155.02 225.32h7.3756v-13.183l-7.3756-6.2098z"/>
  <path d="m173.94 212.54h6.1791l1.6726-1.4036v-5.199z"/>
  <path d="m173.34 136.15-4.9411 5.199-13.358-14.06 16.958 7.4479z"/>
  <path d="m245.33 163.62v-36.403l8.964 5.3846v19.94c-2.2077 2.2895-6.8081 7.8914-8.964 11.079"/>
  <path d="m254.29 170.88v54.445h-8.964v-39.838c1.9182-4.1364 6.54-11.409 8.964-14.607"/>
  <path d="m207.55 225.32c-0.29241-2.4445-0.64037-5.9829-0.64037-9.088 0-1.9299 0.26317-9.6862 0.26317-15.937 0-5.2712-1.1345-14.638-1.1345-19.733 0-3.0533 0.23393-7.2104-0.11696-8.6652 2.4445-1.579 4.5697-2.5995 11.306-6.6739 2.1755-1.3217 6.3338-3.5486 6.3338-6.2306 0-1.1959-0.30995-1.9708-2.0001-3.363-1.1872-0.93862-2.4562-1.2164-3.889-1.2164-3.4246 0-4.9823 3.4349-7.8602 5.199-4.3843 2.6814-6.7052 4.0022-7.6026 4.5077-0.35966-0.17544-1.8568-1.0614-4.2604-1.0614-2.5059 0-5.4156 1.1345-5.4156 4.384-0.0102 1.4971 0.4737 3.1153-1.5264 4.1677-1.1141 0.70177-6.5709 3.8165-12.378 7.3239-4.8998 2.9501-7.1797 2.7223-9.2427 3.9612-1.9094 1.155-2.4036 2.5878-2.4036 3.827 0 1.1141 0.69008 2.4972 0.93862 2.8159 1.31 1.6813 2.4972 2.5878 4.57 2.5878 3.5071 0 6.4265-3.0741 11.842-6.9215 3.3732-2.4036 6.4782-4.8998 8.2938-4.8998 1.6199 0 2.7428 1.2164 2.7428 6.251 0 16.824-1.0205 19.496-1.0205 31.163 0 2.1053 0.0877 5.9829 0.1462 7.6026h-8.9228v-27.563l-17.186 14.473-17.175-14.473v27.563h-55.672v-98.11h54.197l18.65 19.641 18.661-19.641h54.476v41.953c-1.7223 2.6609-6.9835 11.677-10.532 20.889-1.155 3.0018-1.693 5.1785-3.2185 5.1785-1.6813 0-1.8246-1.6521-1.9796-3.1463-0.33919-3.2185-1.0614-9.2426-1.4036-11.461-0.64037-4.291-1.4971-8.8298-6.282-8.8298-3.5589 0-7.2724 1.9386-7.2724 7.2517 0 3.0018 1.5176 8.2318 4.1261 15.102 1.0205 2.7135 6.4782 17.02 7.2622 19.094 1.4445 3.796 3.4454 4.8276 6.5709 4.8276 3.9817 0 5.3639-1.465 7.0043-7.0558 1.3918-4.7762 3.765-12.544 5.725-17.423v31.73z"/>
 </g>
</svg>
