<svg version="1.1" viewBox="0 0 223.7 299.9" xmlns="http://www.w3.org/2000/svg">
 <path d="m111.9 0c-58.4 0-105.9 47.5-105.9 105.9s47.5 105.9 105.9 105.9 105.9-47.5 105.9-105.9-47.6-105.9-105.9-105.9z" fill="#ff3334"/>
 <path d="m179.9 84.1-12 30.4-9.5-29.2h-15.5l17.9 44.8h13.1l13-26c3.1-6.9-0.5-16.1-7.1-20z" fill="#fff"/>
 <path d="m135.1 120.5c-4.2 0-5.4-3.7-5.4-6.8v-17.7h10.7v-10.8h-10.7v-13.6h-0.9c-6.5 0-13 5.1-13 13.5v27.7c0 2.9 0.3 5.3 0.9 7.6 2 7.7 9.4 11.1 16.3 11.1s8.8-1.3 12.7-4l-4.1-9.5c-0.9 0.6-2.9 2.4-6.5 2.4z" fill="#fff"/>
 <path d="m93.7 84.2c-6.1 0-11.5 2.2-15.2 6.2-2.4-3.3-6.2-6.2-13-6.2s-11.2 3.3-13.4 7l-0.6-7h-0.9c-6.2 0.2-12.3 5-12.3 11.8v34h13.9v-24.1c0-2.9 0.8-5.2 2.5-7.1 1.6-1.8 3.8-2.8 6.4-2.8s4.2 0.7 5.4 2.2 1.8 3.5 1.8 6.2v25.5h13.4v-24.1c0-2.9 0.8-5.2 2.4-7.1 1.6-1.8 3.8-2.8 6.5-2.8s4.2 0.7 5.4 2.2 1.8 3.5 1.8 6.2v25.5h13.9v-27.7c0-5.6-1.5-10-4.6-13.3-3.1-3.2-7.5-4.9-13.3-4.9z" fill="#fff"/>
 <path d="m147.9 284.6c-3.7 0-7-0.9-10-2.6s-5.4-4.1-7.1-7.1-2.6-6.4-2.6-10 0.9-6.9 2.6-9.9 4.1-5.4 7.1-7.1 6.4-2.6 10-2.6 6.9 0.9 9.8 2.6c3 1.7 5.3 4.1 7.1 7.1 1.7 3 2.6 6.3 2.6 9.8s-0.9 7-2.6 10-4.1 5.4-7.1 7.1-6.3 2.6-9.8 2.6zm0-31.7c-2.1 0-4.1 0.5-5.8 1.6s-3.1 2.6-4.1 4.4-1.5 3.8-1.5 5.9 0.5 4.3 1.5 6.1 2.4 3.3 4.2 4.3c1.8 1.1 3.7 1.6 5.8 1.6s4.1-0.5 5.8-1.6 3.1-2.5 4.1-4.3 1.5-3.8 1.5-6-0.5-4.2-1.5-6-2.4-3.3-4.1-4.4-3.7-1.6-5.8-1.6z"/>
 <path d="m67.3 264.6c0-12.3 7.3-18.6 18.2-18.6s18.2 6.3 18.2 18.6v19.1h-8.9v-19.1c0-7-3.7-10.3-9.3-10.3s-9.3 3.3-9.3 10.3v19.1h-8.9z"/>
 <path d="m111.9 247h8.8v36.7h-8.8z"/>
 <path d="m122.3 236.4a5.9 5.9 0 0 1-5.9 5.9 5.9 5.9 0 0 1-5.9-5.9 5.9 5.9 0 0 1 5.9-5.9 5.9 5.9 0 0 1 5.9 5.9z"/>
 <path d="m213.3 247h8.8v36.7h-8.8z"/>
 <path d="m223.7 236.4a5.9 5.9 0 0 1-5.9 5.9 5.9 5.9 0 0 1-5.9-5.9 5.9 5.9 0 0 1 5.9-5.9 5.9 5.9 0 0 1 5.9 5.9z"/>
 <path d="m23.8 266.1v-19.1h8.9v19.1c0 7 4.5 10.1 9.3 10.1s9-3.1 9-10.1v-19.1h8.9v19.1c0 12.3-7 18.6-17.9 18.6s-18.2-6.3-18.2-18.6z"/>
 <path d="m173.4 262.4c0-11.1 6.5-16.4 16.1-16.4s16.1 5.3 16.1 16.5v0.2h-8.8v-0.4c0-6-4-8.2-7.3-8.2s-7.3 2.3-7.3 8.2v21.4h-8.9v-21.4z"/>
 <path d="m0 292.3h1.1c3.7 0 5.1-1.7 5.1-6v-39.4h8.9v38.8c0 9.2-3.8 14.2-13.2 14.2h-1.9v-7.7z"/>
 <path d="m16.4 236.3a5.9 5.9 0 0 1-5.9 5.9 5.9 5.9 0 0 1-5.9-5.9 5.9 5.9 0 0 1 5.9-5.9 5.9 5.9 0 0 1 5.9 5.9z"/>
</svg>
