<svg width="800.013" height="247.756" viewBox="0 0 211.67 65.552" xmlns="http://www.w3.org/2000/svg">
    <g stroke-width=".244">
        <path d="M68.98 46.129c-4.672-.755-8.379-3.18-10.011-6.548-.643-1.328-.616-1.453-.805-4.029.118-2.528.137-2.665.878-4.172.55-1.118 1.087-1.812 1.768-2.283.537-.372.977-.76.977-.862 0-.101-1.658-4.393-3.685-9.537-3.958-10.047-4.271-11.21-3.634-13.483.968-3.458 6.198-5.796 11.38-5.089 3.79.518 6.278 2.025 7.516 4.555.391.8 1.05 3.276 1.73 6.504 1.046 4.955 1.208 5.57 1.409 5.333.047-.056.49-2.077.983-4.49 1.389-6.797 1.644-7.507 3.28-9.143.989-.99 1.802-1.543 2.846-1.94 5.352-2.028 12.042-.559 14.205 3.12.582.99.665 1.383.65 3.086l-.015 1.95-5.199 13.167c-2.86 7.242-5.471 13.716-5.804 14.386-2.227 4.483-5.916 7.593-10.548 8.89-1.806.507-6.336.84-7.92.584z" fill="#7d0121"/>
        <path d="M160.49 30.292c.783-.549.654-1.939-.243-2.606-1.723-1.28-3.686 1.163-2 2.49.77.605 1.491.642 2.243.116zm-7.815 15.372c-8.323-1.296-12.673-5.795-13.973-14.452-.492-3.28-1.649-20.311-1.506-22.184.152-1.995 1.287-4.343 2.68-5.546C142.383 1.32 145.483.4 150.412.355c3.076-.028 3.533.024 4.62.525 1.732.799 2.744 1.643 3.368 2.81.507.948.547 1.336.547 5.312v4.29l3.9-.016c3.589-.015 4.054.035 5.79.622 3.482 1.176 5.761 3.134 7.353 6.315 1.282 2.563 1.732 4.87 1.732 8.883 0 2.85-.09 3.696-.541 5.12-1.142 3.604-3.786 6.929-7.041 8.855-2.059 1.218-5.425 2.362-7.98 2.711-2.53.346-6.853.292-9.484-.117z" fill="#29abe1"/>
        <path d="M5.96 44.679C2.833 43.546.718 41.089.098 37.867c-.265-1.377-.147-2.263 2.158-16.178C4.943 5.46 4.989 5.285 7.02 3.412 9.414 1.206 12.706.18 17.523.137c2.67-.024 3.367.05 4.421.471 3.119 1.245 3.963 2.688 5.468 9.346.56 2.481 1.105 4.605 1.21 4.719.233.253.215.316 1.463-5.085 1.188-5.14 1.679-6.407 2.919-7.527C34.609.611 36.336.114 39.712.13c6.367.03 10.604 1.978 12.375 5.69.9 1.89 5.42 28.996 5.245 31.455-.14 1.962-1.227 4.183-2.693 5.508-3.066 2.77-8.405 3.078-12.04.694-2.286-1.498-3.138-3.117-3.878-7.37-.24-1.375-.522-2.5-.627-2.5-.202 0-.279.258-1.313 4.389-.834 3.335-1.29 4.32-2.502 5.411-1.272 1.147-2.991 1.66-5.556 1.66-2.449 0-4.15-.512-5.477-1.648-1.32-1.129-1.71-1.994-2.783-6.155-.501-1.944-1-3.628-1.109-3.742-.216-.227-.293.084-.862 3.467-.466 2.77-1.107 4.204-2.5 5.598-1.683 1.684-3.34 2.307-6.394 2.403-1.9.06-2.838-.02-3.638-.31z" fill="#ec1746"/>
        <path d="M188.39 44.46c-3.485-.977-5.718-3.057-6.362-5.928-.139-.615-.065-4.252.201-9.957.23-4.944.37-9.126.308-9.294-.074-.2-.64-.305-1.643-.305-2.204 0-3.856-.612-5.36-1.988-3.814-3.484-3.93-10.93-.227-14.344C177.777.37 178.9.205 192.108.205c11.041 0 12.818.129 14.895 1.075 5.397 2.459 6.33 11.459 1.634 15.75-1.527 1.396-3.034 1.947-5.33 1.947-.995 0-1.55.105-1.618.305-.057.167.087 4.364.32 9.326.294 6.3.35 9.366.181 10.163-.494 2.35-2.457 4.352-5.26 5.363-1.864.672-6.654.855-8.54.326z" fill="#4abc2c"/>
    </g>
    <path d="M97.2 44.202c-3.023-.814-5.072-2.688-5.912-5.406-1.8-5.83.214-11.315 4.589-12.493.548-.148 1.052-.357 1.12-.466.066-.108.297-1.724.512-3.59 1.126-9.77 3.413-14.798 8.326-18.304 3.25-2.32 6.831-3.305 11.908-3.278 10.7.055 15.623 4.197 17.055 14.347.801 5.68 1.547 20.914 1.118 22.83-.935 4.168-3.898 6.42-8.786 6.675-5.047.264-8.698-1.863-9.73-5.668-.356-1.314-.325-5.524.099-13.289.473-8.667.492-8.046-.253-8.046-.498 0-.707.208-1.08 1.076-.652 1.523-1.527 5.265-2.683 11.481-.549 2.95-1.211 6.01-1.472 6.798-1.255 3.787-4.15 6.411-8.101 7.343-1.905.449-5.023.445-6.71-.01z" fill="#fabd2d" stroke-width=".244"/>
    <g fill="#fabd2d" stroke-width=".189" style="font-feature-settings:normal;font-variant-caps:normal;font-variant-ligatures:normal;font-variant-numeric:normal" aria-label="телеканал">
        <path d="M72.296 59h5.434v.91h-2.104v5.368H74.4V59.91h-2.104zM85.369 62.469H79.73q.03.982.613 1.57.6.586 1.636.586 1.49 0 2.001-1.258h1.227q-.234 1.03-1.095 1.606t-2.177.575q-1.606 0-2.541-.887-.935-.898-.935-2.444t.95-2.468q.964-.935 2.556-.935 3.403 0 3.403 3.655zm-5.609-.815h4.309q0-.815-.599-1.366-.599-.551-1.519-.551-.92 0-1.519.527-.599.515-.672 1.39zM87.235 59h4.951v6.278H90.96V59.91h-2.512v1.175q0 .443-.015.802t-.073.827q-.058.467-.16.827-.088.347-.263.719-.175.359-.424.599-.233.24-.599.395-.365.144-.818.144v-.959q.263 0 .468-.143.204-.156.321-.492.117-.335.19-.67.088-.348.117-.935.03-.6.03-1.03.014-.432.014-1.175zM100.396 62.469h-5.638q.029.982.613 1.57.599.586 1.636.586 1.49 0 2.001-1.258h1.227q-.234 1.03-1.096 1.606-.861.575-2.176.575-1.607 0-2.541-.887-.935-.898-.935-2.444t.95-2.468q.963-.935 2.555-.935 3.404 0 3.404 3.655zm-5.61-.815h4.31q0-.815-.6-1.366-.598-.551-1.518-.551t-1.52.527q-.598.515-.671 1.39zM102.935 59v2.54l3.097-2.54h1.402l-3.666 2.995 4.002 3.283h-1.549l-3.286-2.708v2.708h-1.212V59zM108.687 60.856q.088-2.036 3.068-2.036 1.416 0 2.147.443.73.431.73 1.27v3.69q0 .492.657.492.132 0 .263-.024v.754q-.51.108-.832.108-.584 0-.891-.227-.292-.216-.365-.695-1.227.922-2.6.922-1.154 0-1.84-.503-.672-.503-.672-1.354 0-.275.058-.503.073-.228.146-.396.088-.18.292-.323.205-.156.336-.252.146-.095.467-.18.336-.095.512-.131.175-.048.613-.108t.643-.084l.73-.084q.716-.072.993-.227.278-.156.278-.468v-.263q0-.456-.453-.695-.438-.24-1.256-.24-.847 0-1.285.276-.439.263-.512.838zm2.44 3.823q1.007 0 1.65-.432.643-.443.643-.946v-1.127q-.365.144-1.11.24l-1.271.168q-.54.072-.979.347-.438.264-.438.743t.395.743 1.11.264zM116.725 59h1.227v2.576h3.652V59h1.226v6.278h-1.226v-2.792h-3.652v2.792h-1.227zM124.465 60.856q.088-2.036 3.067-2.036 1.417 0 2.147.443.73.431.73 1.27v3.69q0 .492.658.492.131 0 .263-.024v.754q-.511.108-.833.108-.584 0-.89-.227-.293-.216-.366-.695-1.227.922-2.6.922-1.154 0-1.84-.503-.672-.503-.672-1.354 0-.275.058-.503.073-.228.146-.396.088-.18.293-.323.204-.156.336-.252.146-.095.467-.18.336-.095.511-.131.175-.048.614-.108.438-.06.642-.084t.73-.084q.716-.072.994-.227.277-.156.277-.468v-.263q0-.456-.452-.695-.439-.24-1.257-.24-.847 0-1.285.276-.438.263-.511.838zm2.44 3.823q1.007 0 1.65-.432.642-.443.642-.946v-1.127q-.365.144-1.11.24l-1.27.168q-.54.072-.979.347-.438.264-.438.743t.394.743q.395.264 1.11.264zM133.055 59h4.951v6.278h-1.227V59.91h-2.512v1.175q0 .443-.014.802t-.073.827-.161.827q-.088.347-.263.719-.175.359-.424.599-.233.24-.598.395-.366.144-.818.144v-.959q.263 0 .467-.143.205-.156.321-.492t.19-.67q.088-.348.117-.935.03-.6.03-1.03.014-.432.014-1.175z"/>
    </g>
</svg>
