<svg xmlns="http://www.w3.org/2000/svg" height="432.27" width="600" viewBox="0 0 158.75 114.372">
    <path d="M156.201 24.78c10.977 26.01-14.524 61.62-56.954 79.51-42.434 17.9-85.726 11.32-96.7-14.7-10.975-26.02 14.526-61.62 56.956-79.51 42.431-17.91 85.727-11.32 96.698 14.7" fill="#d62845"/>
    <g fill="#fff">
        <path d="M66.843 60.04h-2.282a.397.397 0 0 0-.393.4v18.19c0 1.21-.446 2.15-1.361 2.87-.876.69-1.988 1.04-3.307 1.04-1.34 0-2.452-.34-3.309-1.01-.889-.69-1.325-1.64-1.325-2.9V60.44c0-.22-.177-.4-.392-.4h-2.25a.396.396 0 0 0-.392.4v18.19c0 2.18.784 3.93 2.332 5.23 1.429 1.16 3.225 1.75 5.336 1.75 2.18 0 3.981-.58 5.342-1.72 1.588-1.31 2.394-3.08 2.394-5.26V60.44c0-.22-.173-.4-.393-.4M81.223 52.56c-.776-.46-1.706-.94-2.768-1.41-1.968-.9-2.78-1.4-3.103-1.66-.777-.67-1.154-1.42-1.154-2.29 0-1.02.345-1.78 1.086-2.39.705-.6 1.586-.89 2.686-.89 1.066 0 1.93.2 2.586.61.486.28.917.72 1.278 1.32l.213.35a.39.39 0 0 0 .491.16l2.131-.93c.1-.04.178-.13.213-.24a.367.367 0 0 0-.028-.31l-.246-.45c-1.302-2.35-3.536-3.55-6.638-3.55-1.884 0-3.497.58-4.788 1.73-1.364 1.15-2.054 2.7-2.054 4.59 0 1.88.676 3.42 2 4.57.758.68 2.087 1.45 4.066 2.33.963.43 1.766.82 2.38 1.16.573.31.998.6 1.267.85.986.87 1.468 1.94 1.468 3.26 0 1.4-.392 2.43-1.192 3.12-.804.7-1.966 1.05-3.445 1.05-2.6 0-4.125-1.14-4.796-3.6l-.131-.48a.387.387 0 0 0-.195-.24.415.415 0 0 0-.309-.03l-2.248.77a.391.391 0 0 0-.25.48l.13.43c1.153 3.81 3.779 5.74 7.8 5.74 1.26 0 2.384-.17 3.342-.52 2.893-1.08 4.363-3.34 4.363-6.72 0-2.11-.733-3.89-2.17-5.3-.51-.51-1.178-1.02-1.985-1.51M91.95 41.01h-2.249a.397.397 0 0 0-.394.4v24.54c0 .22.177.4.394.4h2.249c.214 0 .389-.18.389-.4V41.41c0-.22-.175-.4-.389-.4M98.956 52.73c0-2.9.942-5.31 2.799-7.17 1.809-1.85 4.209-2.78 7.13-2.78 2.924 0 5.347.93 7.199 2.79 1.831 1.83 2.761 4.24 2.761 7.16 0 2.95-.926 5.37-2.753 7.2-1.854 1.81-4.279 2.73-7.207 2.73-2.902 0-5.316-.94-7.167-2.79-1.833-1.83-2.762-4.23-2.762-7.14zm23.96 9.94h-5.321c.222-.19.446-.38.657-.59 2.429-2.41 3.662-5.55 3.662-9.35 0-3.79-1.233-6.94-3.664-9.37-2.447-2.4-5.6-3.62-9.365-3.62-3.79 0-6.945 1.23-9.371 3.66-2.405 2.4-3.626 5.54-3.626 9.33 0 3.8 1.23 6.95 3.658 9.38 2.37 2.37 5.459 3.58 9.173 3.61.044.01.085.02.132.02h14.065c.386 0 .697-.18.697-.39v-2.29c0-.21-.311-.39-.697-.39M133.228 34.2c1.757-1 2.644-2.67 2.644-4.98 0-1.91-.651-3.46-1.935-4.61-1.258-1.15-2.84-1.72-4.697-1.72-1.79 0-3.304.52-4.498 1.55-1.209 1.03-1.925 2.45-2.132 4.23l-.061.52c-.012.11.023.22.099.3.074.09.18.13.292.13h2.313a.39.39 0 0 0 .388-.31l.075-.38c.422-2.11 1.538-3.1 3.524-3.1 1.035 0 1.852.31 2.502.96.632.62.944 1.42.944 2.43 0 1.06-.273 1.83-.839 2.35-.603.55-1.407.82-2.457.82h-1.726a.397.397 0 0 0-.394.4v2.7c0 .22.176.39.394.39h1.726c.717 0 1.451.3 2.176.87.954.76 1.42 1.79 1.42 3.15 0 1.08-.377 1.98-1.15 2.75-.786.76-1.703 1.12-2.809 1.12-.837 0-1.593-.27-2.312-.82-.734-.55-1.191-1.2-1.404-2l-.087-.35a.402.402 0 0 0-.384-.29h-2.26a.372.372 0 0 0-.308.15.384.384 0 0 0-.078.33l.132.57c.383 1.67 1.173 2.99 2.354 3.94 1.214.94 2.675 1.42 4.347 1.42 2.004 0 3.69-.64 5.008-1.89 1.342-1.25 2.018-2.91 2.018-4.93 0-2.6-.948-4.51-2.825-5.7M43.264 60.54a.392.392 0 0 0-.359-.3.396.396 0 0 0-.39.25l-7.76 18.25-7.76-18.21a.4.4 0 0 0-.39-.26.394.394 0 0 0-.359.3l-6.659 24.85a.406.406 0 0 0 .071.34c.077.09.191.15.313.15h2.311c.179 0 .337-.12.38-.3l4.482-17.2 7.242 16.95c.058.15.206.26.369.26.162 0 .309-.11.369-.26l7.241-16.92 4.452 17.17c.041.18.199.3.379.3h2.354c.256.01.4-.18.4-.4a.34.34 0 0 0-.054-.19l-6.632-24.78"/>
    </g>
</svg>
