<svg viewBox="0 0 600 255.48" xmlns="http://www.w3.org/2000/svg">
    <style>
        .st1{fill:#114591}.st2{fill:#ffed00}
    </style>
    <g stroke-width="1.668">
        <path d="M472.1 93.218c13.674 0 26.181 1 31.851 2.668h.167v.167c1.667 5.67 2.668 18.344 2.668 31.85 0 13.675-1 26.182-2.668 31.852v.167h-.167c-5.67 1.667-18.344 2.668-31.851 2.668-13.674 0-26.181-1-31.851-2.668h-.167v-.167c-1.667-5.67-2.668-18.344-2.668-31.851 0-13.508 1-26.181 2.668-32.018v-.167h.167c5.67-1.334 18.177-2.501 31.851-2.501" fill="#fff"/>
        <path d="M.167 22.679h23.847l17.843 52.362L59.2 22.679h23.346v76.209H66.704V44.691L48.027 98.888H35.02L16.176 45.192v53.696H.166zM154.92 68.371c0 21.679-10.172 31.851-32.351 31.851-22.679 0-32.852-10.339-32.852-32.185V22.678h16.676v45.525c0 11.673 3.335 18.344 16.342 18.344 12.84 0 15.509-7.004 15.509-18.344V22.678h16.676zM205.28 45.359c-.667-7.337-5.503-11.34-14.508-11.34-7.67 0-12.34 3.168-12.34 8.672 0 6.67 8.171 7.17 23.346 11.506 13.508 3.835 22.179 9.171 22.179 21.845 0 18.01-15.842 24.68-31.351 24.68-20.678 0-32.852-10.006-33.018-27.182h16.676c.334 10.339 7.004 14.34 17.176 14.34 8.838 0 14.175-3.835 14.175-10.171 0-6.004-5.17-7.004-20.845-11.506-12.34-3.502-24.347-6.67-24.347-22.18 0-13.84 11.506-22.845 29.35-22.845 16.009 0 29.016 7.337 29.35 24.347h-15.842zM246.47 98.888h-16.843V22.679h16.843zM289.66 100.72c-22.179 0-36.854-16.009-36.854-40.022 0-22.179 14.175-39.855 37.521-39.855 18.344 0 31.684 11.506 33.018 27.349h-16.342c-1.668-8.338-7.838-13.341-16.843-13.341-14.675 0-20.345 13.174-20.345 25.848 0 15.675 7.838 25.848 20.178 25.848 10.006 0 16.009-6.003 17.51-17.176h16.509c-1.834 18.677-13.508 31.351-34.352 31.351zM57.365 105.39c21.345 0 38.688 9.005 38.688 30.517 0 11.673-6.67 20.511-16.509 25.014 12.674 3.502 22.179 12.84 22.179 29.683 0 23.68-18.177 36.02-41.023 36.02H0v-121.23zm-31.518 49.027h24.18c9.672 0 20.011-1.834 20.011-14.175 0-12.34-9.839-14.341-20.011-14.341h-24.18zm0 51.028h26.681c11.34 0 22.513-2.168 22.513-16.509 0-14.675-11.84-16.509-23.847-16.509H25.847zM224.79 166.09c0 37.854-24.013 63.369-59.533 63.369-35.853 0-59.867-25.347-59.867-63.369 0-38.521 23.847-63.702 60.033-63.702 35.353.167 59.366 25.848 59.366 63.702zm-92.551-.5c0 26.014 12.674 41.69 33.185 41.857 20.011 0 32.518-16.01 32.518-41.857 0-25.514-12.674-41.356-32.852-41.356-20.178 0-32.852 16.176-32.852 41.356z"/>
        <path d="M283.82 163.26l42.524 63.369h-31.851l-26.515-42.023-26.848 42.023h-30.35l42.69-63.369-39.522-57.865h31.017l24.18 39.022 24.347-39.022h29.35zM593.66 35.353c-1-5.67-2.668-12.34-2.668-12.34-1.835-6.67-5.003-11.34-14.008-14.008 0 0-6.504-1.668-11.84-2.501C541.964 2.5 508.779 0 472.092 0S402.22 2.501 379.04 6.337c-5.337.834-11.84 2.501-11.84 2.501-8.838 2.502-12.173 7.17-14.008 14.008 0 0-1.668 6.837-2.668 12.34-3.836 23.18-6.337 56.198-6.337 92.551 0 36.354 2.501 69.372 6.337 92.551 1 5.503 2.668 12.34 2.668 12.34 1.834 6.67 5.003 11.34 14.008 13.841 0 0 6.503 1.668 11.84 2.502 23.346 4.002 56.365 6.503 93.052 6.503s69.872-2.501 93.052-6.503c5.336-.834 11.84-2.502 11.84-2.502 8.838-2.501 12.173-7.17 14.008-13.84 0 0 1.667-6.838 2.668-12.34 3.836-23.18 6.337-56.199 6.337-92.552 0-36.354-2.502-69.205-6.337-92.385zM472.09 20.345c42.524 0 79.211 1.5 96.387 3.836l-52.362 56.03c-8.671-1-25.347-1.667-44.191-1.667s-35.853.667-44.358 1.668L375.204 24.18c17.343-2.167 54.197-3.835 96.887-3.835zm38.855 107.73c0 14.508-1.167 27.182-2.835 33.018-.333.834-.5 1.668-.834 2.168-.5.333-1.334.5-2.168.834-5.836 1.667-18.51 2.835-33.018 2.835s-27.182-1.168-33.018-2.835c-.833-.334-1.667-.5-2.167-.834-.334-.5-.5-1.334-.834-2.168-1.668-5.837-2.835-18.51-2.835-33.018s1.167-27.182 2.835-33.018c.333-.834.5-1.668.833-2.168.5-.333 1.335-.5 2.168-.834 5.837-1.667 18.51-2.835 33.018-2.835s27.182 1.168 33.018 2.835c.834.334 1.668.5 2.168.834.334.5.5 1.334.834 2.168 1.668 6.003 2.835 18.51 2.835 33.018zm-146.41-.167c0-42.023 1.5-78.377 3.835-95.887l56.198 52.03c-1 8.67-1.667 25.346-1.667 44.023 0 18.51.667 35.186 1.667 43.858l-56.198 52.03c-2.167-17.677-3.835-54.03-3.835-96.054zm107.56 107.56c-42.857 0-79.711-1.667-96.72-3.835l52.196-56.031c8.505 1 25.514 1.667 44.525 1.667 18.844 0 35.686-.667 44.191-1.667l52.362 56.03c-17.176 2.169-53.863 3.836-96.554 3.836zm103.72-11.506l-56.198-52.029c1-8.671 1.668-25.347 1.668-44.19 0-18.678-.667-35.52-1.668-44.192l56.198-51.862c2.168 17.343 3.835 53.863 3.835 96.22 0 42.19-1.5 78.71-3.835 96.053z"/>
        <path class="st1" d="M429.24 179.6c9.172 1 25.347 1.5 42.857 1.5 17.343 0 33.352-.5 42.69-1.5l45.359 48.694c-19.511 1.834-52.696 3.002-88.049 3.002-35.686 0-68.872-1.168-88.382-3.002L429.24 179.6M472.1 24.347c35.353 0 68.371 1.167 88.049 3.002L514.79 76.043c-9.172-.834-25.181-1.501-42.524-1.501-17.51 0-33.685.5-42.857 1.5L384.05 27.35c19.344-1.835 52.529-3.002 88.049-3.002" fill="#114591"/>
        <path class="st2" d="M572.65 40.189c1.834 19.678 2.835 52.529 2.835 87.715 0 35.019-1.167 68.038-2.835 87.715l-48.694-45.192c1-9.338 1.5-25.181 1.5-42.524s-.5-33.352-1.5-42.524l48.694-45.192M371.54 40.356l48.694 45.192c-.834 9.338-1.5 25.181-1.5 42.357s.5 33.018 1.5 42.357l-48.86 45.192c-1.834-19.678-2.835-51.862-2.835-87.382.167-35.186 1.167-68.038 3.002-87.715" fill="#ffed00"/>
    </g>
</svg>
