<svg version="1.1" viewBox="0 0 600 510.71" xmlns="http://www.w3.org/2000/svg">
 <defs>
  <style>.cls-1{fill:#d62845;}</style>
 </defs>
 <g transform="matrix(.59997 0 0 .59997 -.1557 40.682)">
  <path class="cls-1" d="m321.38 769.74 12.06-14.47c5.09 6.83 10.72 10.32 17.42 10.32 8.71 0 13.27-5.23 13.27-15.54v-44.62h-32.96v-17.42h54.54v60.84c0 23.18-11.66 34.57-33.77 34.57-12.6 0-23.72-4.82-30.55-13.67z"/>
  <path class="cls-1" d="m466.9 761.7h-43.55l-8.31 20.1h-22.24l41.81-93.8h21.44l41.94 93.8h-22.78zm-6.83-16.48-14.87-35.91-14.87 35.91h29.75z"/>
  <path class="cls-1" d="m583.75 764.12v17.69h-82.01v-14.07l51.46-62.04h-50.38v-17.69h78.93v14.07l-51.32 62.04h53.33z"/>
  <path class="cls-1" d="m673.67 764.12v17.69h-82.01v-14.07l51.46-62.04h-50.38v-17.69h78.93v14.07l-51.32 62.04h53.33z"/>
 </g>
 <g transform="matrix(3.7795 0 0 3.7795 302.2 -809.98)">
  <path d="m76.244 239.09c10.977 26.01-14.524 61.62-56.954 79.51-42.434 17.9-85.726 11.32-96.7-14.7-10.975-26.02 14.526-61.62 56.956-79.51 42.431-17.91 85.727-11.32 96.698 14.7" fill="#d62845"/>
  <g fill="#fff">
   <path d="m-13.114 274.35h-2.282c-0.217 0-0.393 0.18-0.393 0.4v18.19c0 1.21-0.446 2.15-1.361 2.87-0.876 0.69-1.988 1.04-3.307 1.04-1.34 0-2.452-0.34-3.309-1.01-0.889-0.69-1.325-1.64-1.325-2.9v-18.19c0-0.22-0.177-0.4-0.392-0.4h-2.25c-0.218 0-0.392 0.18-0.392 0.4v18.19c0 2.18 0.784 3.93 2.332 5.23 1.429 1.16 3.225 1.75 5.336 1.75 2.18 0 3.981-0.58 5.342-1.72 1.588-1.31 2.394-3.08 2.394-5.26v-18.19c0-0.22-0.173-0.4-0.393-0.4"/>
   <path d="m1.2659 266.87c-0.77633-0.46-1.7054-0.94-2.7674-1.41-1.9687-0.9-2.7799-1.4-3.1035-1.66-0.7768-0.67-1.1541-1.42-1.1541-2.29 0-1.02 0.3454-1.78 1.0856-2.39 0.706-0.6 1.5861-0.89 2.6865-0.89 1.0658 0 1.9294 0.2 2.5858 0.61 0.4861 0.28 0.9172 0.72 1.2779 1.32l0.2129 0.35c0.101 0.17 0.3133 0.24 0.4914 0.16l2.1313-0.93c0.1001-0.04 0.1781-0.13 0.2127-0.24 0.0366-0.1 0.0273-0.22-0.0278-0.31l-0.2459-0.45c-1.3026-2.35-3.5362-3.55-6.6383-3.55-1.8839 0-3.4968 0.58-4.788 1.73-1.3636 1.15-2.0542 2.7-2.0542 4.59 0 1.88 0.676 3.42 1.9995 4.57 0.7588 0.68 2.0876 1.45 4.0662 2.33 0.9635 0.43 1.7667 0.82 2.3804 1.16 0.57311 0.31 0.99836 0.6 1.2667 0.85 0.9863 0.87 1.468 1.94 1.468 3.26 0 1.4-0.3921 2.43-1.1913 3.12-0.80467 0.7-1.9664 1.05-3.4451 1.05-2.601 0-4.1249-1.14-4.7967-3.6l-0.1306-0.48c-0.0281-0.1-0.097-0.19-0.1952-0.24-0.0948-0.05-0.2089-0.06-0.3086-0.03l-2.2484 0.77c-0.1977 0.07-0.3107 0.28-0.2497 0.48l0.13 0.43c1.1534 3.81 3.779 5.74 7.7992 5.74 1.2601 0 2.3848-0.17 3.3429-0.52 2.8933-1.08 4.363-3.34 4.363-6.72 0-2.11-0.7329-3.89-2.17-5.3-0.5096-0.51-1.1782-1.02-1.9852-1.51"/>
   <path d="m11.993 255.32h-2.2489c-0.2175 0-0.3937 0.18-0.3937 0.4v24.54c0 0.22 0.1762 0.4 0.3937 0.4h2.2489c0.214 0 0.389-0.18 0.389-0.4v-24.54c0-0.22-0.175-0.4-0.389-0.4"/>
   <path d="m18.999 267.04c0-2.9 0.942-5.31 2.799-7.17 1.809-1.85 4.209-2.78 7.13-2.78 2.924 0 5.347 0.93 7.199 2.79 1.831 1.83 2.761 4.24 2.761 7.16 0 2.95-0.926 5.37-2.753 7.2-1.854 1.81-4.279 2.73-7.207 2.73-2.902 0-5.316-0.94-7.167-2.79-1.833-1.83-2.762-4.23-2.762-7.14zm23.96 9.94h-5.321c0.222-0.19 0.446-0.38 0.657-0.59 2.429-2.41 3.662-5.55 3.662-9.35 0-3.79-1.233-6.94-3.664-9.37-2.447-2.4-5.6-3.62-9.365-3.62-3.79 0-6.945 1.23-9.371 3.66-2.405 2.4-3.626 5.54-3.626 9.33 0 3.8 1.23 6.95 3.658 9.38 2.37 2.37 5.459 3.58 9.173 3.61 0.044 0.01 0.085 0.02 0.132 0.02h14.065c0.386 0 0.697-0.18 0.697-0.39v-2.29c0-0.21-0.311-0.39-0.697-0.39"/>
   <path d="m53.271 248.51c1.757-1 2.644-2.67 2.644-4.98 0-1.91-0.651-3.46-1.935-4.61-1.258-1.15-2.84-1.72-4.697-1.72-1.79 0-3.304 0.52-4.498 1.55-1.209 1.03-1.925 2.45-2.132 4.23l-0.061 0.52c-0.012 0.11 0.023 0.22 0.099 0.3 0.074 0.09 0.18 0.13 0.292 0.13h2.313c0.191 0 0.353-0.13 0.388-0.31l0.075-0.38c0.422-2.11 1.538-3.1 3.524-3.1 1.035 0 1.852 0.31 2.502 0.96 0.632 0.62 0.944 1.42 0.944 2.43 0 1.06-0.273 1.83-0.839 2.35-0.603 0.55-1.407 0.82-2.457 0.82h-1.726c-0.218 0-0.394 0.18-0.394 0.4v2.7c0 0.22 0.176 0.39 0.394 0.39h1.726c0.717 0 1.451 0.3 2.176 0.87 0.954 0.76 1.42 1.79 1.42 3.15 0 1.08-0.377 1.98-1.15 2.75-0.786 0.76-1.703 1.12-2.809 1.12-0.837 0-1.593-0.27-2.312-0.82-0.734-0.55-1.191-1.2-1.404-2l-0.087-0.35c-0.048-0.17-0.207-0.29-0.384-0.29h-2.26c-0.124 0-0.233 0.05-0.308 0.15-0.075 0.09-0.104 0.21-0.078 0.33l0.132 0.57c0.383 1.67 1.173 2.99 2.354 3.94 1.214 0.94 2.675 1.42 4.347 1.42 2.004 0 3.69-0.64 5.008-1.89 1.342-1.25 2.018-2.91 2.018-4.93 0-2.6-0.948-4.51-2.825-5.7"/>
   <path d="m-36.693 274.85c-0.043-0.17-0.185-0.29-0.359-0.3-0.165-0.01-0.33 0.09-0.39 0.25l-7.76 18.25-7.76-18.21c-0.061-0.16-0.22-0.27-0.39-0.26-0.172 0.01-0.316 0.13-0.359 0.3l-6.659 24.85c-0.029 0.12-2e-3 0.24 0.071 0.34 0.077 0.09 0.191 0.15 0.313 0.15h2.311c0.179 0 0.337-0.12 0.38-0.3l4.482-17.2 7.242 16.95c0.058 0.15 0.206 0.26 0.369 0.26 0.162 0 0.309-0.11 0.369-0.26l7.241-16.92 4.452 17.17c0.041 0.18 0.199 0.3 0.379 0.3h2.354c0.256 0.01 0.4-0.18 0.4-0.4 0-0.07-0.019-0.14-0.054-0.19l-6.632-24.78"/>
  </g>
 </g>
</svg>
