<svg fill="none" version="1.1" viewBox="0 0 638.69 800" xmlns="http://www.w3.org/2000/svg">
 <path d="m570.39 451.53c2.9822 2.9715 6.7786 4.9921 10.91 5.8064 4.13 0.81428 8.4089 0.38497 12.296-1.233s7.2079-4.3517 9.5408-7.8554c2.3328-3.5055 3.5747-7.623 3.5676-11.833v-415.12c0-4.2092-1.2489-8.324-3.5871-11.824-2.3382-3.5001-5.6609-6.2285-9.5496-7.8404-3.8869-1.6119-8.1659-2.0349-12.296-1.2156-4.1282 0.8193-7.9211 2.8442-10.9 5.8187l-207.56 207.56c-1.9852 1.978-3.5587 4.3286-4.6338 6.9152-1.0751 2.5883-1.6268 5.3629-1.6268 8.1641s0.55172 5.5758 1.6268 8.1641c1.0751 2.5865 2.6486 4.9371 4.6338 6.9152zm-512.7-0.23062 207.33-207.33c1.9851-1.978 3.5587-4.3286 4.6338-6.9152 1.0751-2.5883 1.6268-5.3629 1.6268-8.1641s-0.55173-5.5758-1.6268-8.1641c-1.0751-2.5865-2.6486-4.9371-4.6338-6.9152l-207.38-207.28c-2.9752-2.9856-6.7701-5.0208-10.903-5.8477-4.1331-0.82688-8.4189-0.40821-12.314 1.203-3.8949 1.6112-7.2239 4.3423-9.5651 7.8474-2.3412 3.505-3.5892 7.6261-3.5858 11.841v414.68c-3e-3 4.2151 1.2447 8.3362 3.5858 11.842 2.3412 3.5037 5.6702 6.2357 9.5651 7.8466 3.8949 1.6108 8.1806 2.0295 12.314 1.2028 4.133-0.8267 7.9278-2.8615 10.903-5.8472zm48.857 70.27h414.68c4.2116 0 8.3273-1.2489 11.829-3.5889 3.502-2.3417 6.2304-5.668 7.8395-9.5585 1.6108-3.8922 2.0313-8.173 1.2081-12.303-0.82315-4.13-2.8526-7.9228-5.833-10.9l-207.33-207.38c-1.978-1.9851-4.3286-3.5587-6.9152-4.6338-2.5883-1.0751-5.3629-1.6268-8.1641-1.6268s-5.5758 0.55172-8.1641 1.6268c-2.5865 1.0751-4.9371 2.6486-6.9152 4.6338l-207.28 207.33c-2.9979 2.9733-5.0439 6.7715-5.8779 10.91s-0.41814 8.4338 1.1946 12.335c1.6126 3.9029 4.3492 7.2363 7.862 9.5798 3.5126 2.3435 7.6427 3.5889 11.865 3.5782zm101.74 97.572h-24.641c-5.0223 0-9.9653 1.2542-14.38 3.6492-4.4147 2.3949-8.1613 5.8543-10.9 10.064l-46.799 71.955c-0.56362 0.86751-1.3353 1.5807-2.2445 2.0738-0.90937 0.49318-1.9277 0.75219-2.9623 0.75219-1.0346 0-2.0529-0.25901-2.9623-0.75219s-1.6807-1.2063-2.2445-2.0738l-46.799-71.955c-2.7386-4.2098-6.4853-7.6692-10.9-10.064-4.4147-2.395-9.3575-3.6492-14.38-3.6492h-24.641c-1.1762 0-2.3043 0.46657-3.1361 1.2986-0.83174 0.83202-1.299 1.9603-1.299 3.1365v168.53c0 1.1762 0.46727 2.3045 1.299 3.1365 0.83175 0.83202 1.9598 1.2986 3.1361 1.2986h39.029c1.1762 0 2.3043-0.46657 3.1361-1.2986 0.83167-0.83202 1.2989-1.9603 1.2989-3.1365v-85.402l32.287 46.214c2.9433 4.2133 6.8598 7.6532 11.417 10.027 4.557 2.3754 9.6201 3.6155 14.759 3.6155 5.1388 0 10.202-1.24 14.759-3.6155 4.5571-2.3737 8.4735-5.8135 11.417-10.027l32.287-46.214v85.402c0 1.1762 0.46729 2.3045 1.299 3.1365 0.83185 0.83202 1.9598 1.2986 3.1361 1.2986h39.029c1.1762 0 2.3045-0.46657 3.1365-1.2986 0.83203-0.83202 1.2986-1.9603 1.2986-3.1365v-168.53c0-0.58188-0.11531-1.1584-0.33707-1.6978-0.22353-0.53753-0.54995-1.0272-0.96153-1.4387-0.41157-0.41158-0.9012-0.738-1.4387-0.96153-0.5393-0.22175-1.1159-0.33706-1.6978-0.33706zm240.19 0h-43.712c-1.5416-4e-3 -3.0584 0.39738-4.3996 1.1584-1.3412 0.76284-2.4606 1.861-3.2465 3.1879l-45.043 76.284h-3.3352c-1.4849 2e-3 -2.9484-0.36899-4.2524-1.0786-1.3057-0.70961-2.4109-1.735-3.2163-2.9839l-46.799-72.558c-0.80364-1.2454-1.9071-2.2708-3.2075-2.9804-1.3021-0.70962-2.7604-1.0822-4.2435-1.0822h-43.996c-0.80009 2e-3 -1.586 0.21999-2.2725 0.63156-0.68655 0.41158-1.2489 1.0023-1.6286 1.7084-0.37787 0.70606-0.55882 1.5008-0.52156 2.3009 0.0373 0.80009 0.29094 1.5753 0.73267 2.2424l64.256 97.341c2.3187 3.5268 5.48 6.4202 9.1966 8.4213 3.7148 1.9993 7.8714 3.0442 12.092 3.0389h5.8188l-36.119 54.835c-0.44351 0.66881-0.69542 1.4458-0.73267 2.2477-0.0355 0.80186 0.14547 1.5966 0.52688 2.3045 0.37965 0.70606 0.94556 1.295 1.6339 1.7066 0.6901 0.4098 1.4778 0.62623 2.2796 0.62446h43.57c1.5115 0 2.9964-0.38674 4.3162-1.123 1.3199-0.73623 2.4286-1.7971 3.2234-3.0815l102.79-166.44c0.4027-0.66526 0.62268-1.4246 0.63865-2.2016 0.016-0.77703-0.17386-1.5452-0.55172-2.2246-0.3761-0.68123-0.92428-1.2489-1.5913-1.6498-0.66527-0.40093-1.4263-0.61737-2.2034-0.62978zm151.22 83.22c20.277-9.5088 30.265-22.3 30.265-39.029 0-13.447-6.4398-25.245-19.319-34.753-12.56-9.8459-39.827-14.76-62.694-14.76-22.211 0-51.447 4.2754-71.387 13.075-1.2507 0.56237-2.3116 1.4742-3.0549 2.6273-0.74332 1.1514-1.1354 2.4943-1.1318 3.8656v35.481c-7e-3 0.63687 0.15611 1.2649 0.47544 1.8166 0.31755 0.55172 0.7788 1.0076 1.3341 1.3199s1.1833 0.46834 1.8202 0.45415c0.63688-0.016 1.2596-0.20224 1.7989-0.5393 14.778-9.4911 43.074-14.192 62.411-14.192 22.229 0 42.417 5.5882 42.417 15.416 0 10.502-22.122 14.423-40.483 14.423h-15.523c-1.1762 0-2.3045 0.46658-3.1365 1.2986s-1.2986 1.9603-1.2986 3.1365v27.533c0 1.1762 0.46657 2.3045 1.2986 3.1365s1.9603 1.2986 3.1365 1.2986h15.523c23.506 0 46.604 5.9608 46.604 15.736 0 11.159-24.056 16.41-48.218 16.41-21.43 0-51.216-5.8366-67.307-17.74-0.52511-0.39916-1.1531-0.64398-1.8095-0.70784-0.65817-0.0621-1.3199 0.0603-1.9124 0.35303-0.59076 0.29449-1.0893 0.74687-1.4388 1.3075-0.34771 0.5606-0.53398 1.2081-0.53398 1.8681v39.898c2e-3 1.3784 0.40625 2.7267 1.162 3.8798s1.8326 2.0614 3.0957 2.6132c19.514 8.2315 50.063 12.418 75.184 12.418 24.836 0 54.002-4.5948 69.187-14.192s22.53-21.98 22.53-37.397c-0.0532-21.838-12.915-37.255-38.993-46.107z" fill="url(#a)" stroke-width="1.774" Googl="true"/>
 <defs>
  <linearGradient id="a" x1="-39.54" x2="375.81" y1="16.71" y2="432.07" gradientTransform="matrix(1.774 0 0 1.774 0 .016667)" gradientUnits="userSpaceOnUse">
   <stop stop-color="#FFB991" offset="0"/>
   <stop stop-color="#FF008C" offset=".35"/>
   <stop stop-color="#FF008C" offset=".45"/>
   <stop stop-color="#B400E6" offset=".8"/>
  </linearGradient>
 </defs>
</svg>
