<svg xmlns="http://www.w3.org/2000/svg" height="222.87" width="600" viewBox="0 0 158.75 58.966">
    <g fill="#5f5f5f">
        <path d="M21.464 30.57c0 .78-.303 1.39-.91 1.84-.481.36-1.007.54-1.588.54h-.531c-.582 0-1.113-.18-1.589-.54-.606-.45-.91-1.06-.91-1.84V18.45c0-.51-.212-.76-.642-.76h-.718l-.835.39c-.152.26-.227.75-.227 1.48v11.01c0 .78-.304 1.39-.911 1.84a2.58 2.58 0 0 1-1.588.54h-.566c-.531 0-1.037-.18-1.518-.54-.632-.47-.945-1.09-.945-1.84v-11.9c0-.66-.238-.98-.719-.98H6.66l-.89.3c-.187.21-.283.56-.283 1.07v11.51c0 .77-.303 1.37-.91 1.82-.501.37-1.022.56-1.553.56h-.566c-.557 0-1.073-.18-1.553-.54C.298 31.95 0 31.34 0 30.57V19.49c0-2.21.566-3.93 1.699-5.13 1.138-1.21 2.665-1.81 4.582-1.81h.986c.658 0 1.31.07 1.968.2.657.14 1.198.34 1.628.6a6.21 6.21 0 0 1 1.457-.6 6.43 6.43 0 0 1 1.573-.2h1.436c1.821 0 3.298.61 4.431 1.82 1.138 1.21 1.704 2.92 1.704 5.12v11.08zM39.582 26.52c0 1.84-.62 3.36-1.86 4.59-1.23 1.23-2.87 1.84-4.92 1.84h-3.137c-2.322 0-4.077-.66-5.265-1.97-1.032-1.14-1.553-2.62-1.553-4.46V14.93c0-.77.294-1.38.875-1.82a2.534 2.534 0 0 1 1.588-.56h.567c.531 0 1.037.18 1.517.54.627.47.946 1.08.946 1.84v11.6l.566.95c.38.23.845.35 1.401.35h1.935c.48 0 .9-.12 1.27-.34l.54-.9V14.93c0-.77.31-1.38.91-1.82.5-.37 1.02-.56 1.56-.56h.56c.58 0 1.11.18 1.59.54.61.44.91 1.06.91 1.84v11.59zM57.472 30.57c0 .78-.3 1.39-.91 1.84-.48.36-1 .54-1.59.54h-11.05c-.73 0-1.4-.4-1.99-1.19-.59-.78-.89-1.62-.89-2.52 0-.55.14-1.01.42-1.36l10.79-13.66c.5-.63 1.12-.94 1.86-.94.77 0 1.5.3 2.15.92.66.62.99 1.29.99 2l-.37 1.1-8.19 10.48 6.33.05c.56 0 1.07.18 1.55.54.6.45.9 1.07.9 1.83v.37zM64.272 10.53c0 .88-.13 1.53-.41 1.97-.43.66-1.24 1-2.42 1-1.22 0-2.1-.33-2.65-.99-.43-.5-.65-1.17-.65-1.98 0-.83.2-1.48.6-1.97.56-.65 1.46-.98 2.7-.98 1.13 0 1.92.34 2.38 1 .3.45.45 1.1.45 1.95m-.26 20.04c0 .78-.3 1.39-.91 1.84-.48.36-1.01.54-1.59.54h-.53c-.58 0-1.11-.18-1.59-.54-.6-.45-.91-1.06-.91-1.84V16.41c0-.87.22-1.47.66-1.83.44-.35 1.21-.52 2.3-.52 1.03 0 1.72.16 2.06.5.34.33.51.95.51 1.85v14.16zM79.212 28.81l.85 1.11.29.96c0 .57-.33 1.04-.99 1.42-.5.28-1.17.5-2.01.65-.4.07-.94-.01-1.63-.25l-.91-.4-3.94-3.87.01 2.13c0 .77-.3 1.39-.91 1.83-.47.36-1 .54-1.59.54h-.53c-.55 0-1.07-.18-1.55-.54-.6-.46-.9-1.07-.9-1.83V9.86c0-.78.28-1.38.87-1.82.48-.36 1-.53 1.58-.53h.53c.59 0 1.12.17 1.59.52.61.44.91 1.05.91 1.83v7.27l3.75-3.69.79-.49c.45-.19.91-.29 1.37-.29h.22l.19.04c.71.13 1.28.48 1.72 1.02.45.54.67 1.13.67 1.76 0 .53-.17.97-.53 1.32l-6.06 5.91 6.21 6.1zM98.432 26.49c0 1.85-.38 3.33-1.14 4.41-.95 1.36-2.42 2.05-4.39 2.05h-5.64c-1.74 0-3.25-.66-4.54-1.95-1.09-1.1-1.63-2.54-1.63-4.31v-2.4c0-1.79.58-3.3 1.74-4.52 1.16-1.23 2.6-1.84 4.32-1.84h5.6l-.61-.24h-1.58c-.54 0-1.04-.18-1.52-.54-.63-.47-.95-1.08-.95-1.82v-.4c0-.77.31-1.38.91-1.82.51-.37 1.02-.56 1.56-.56h1.17c2.02 0 3.64.59 4.86 1.76 1.23 1.18 1.84 2.79 1.84 4.83v7.35zm-5.53.21v-3.64h-5.75l-.4.41-.17.8v2.39l.26.78.79.39h4.78l.49-.41v-.72zM129.272 0c-10.1 0-19.01 5.08-24.33 12.82l.86-.03h13.34c.93 0 1.78.29 2.55.89.96.73 1.45 1.74 1.45 3.03v.67c0 1.25-.49 2.24-1.45 2.98-.81.61-1.66.91-2.55.91h-13.1c-.48 0-.83.13-1.03.37-.2.25-.3.82-.3 1.72v12.12c0 .91.13 1.56.39 1.96s.76.59 1.49.59h12.67c.93 0 1.78.3 2.55.89.96.74 1.45 1.75 1.45 3.04v.61c0 1.28-.53 2.3-1.57 3.03-.85.6-1.76.89-2.74.89h-12.48l-1.31-.04c5.34 7.57 14.14 12.52 24.11 12.52 16.28 0 29.48-13.2 29.48-29.49 0-16.28-13.2-29.48-29.48-29.48m20.58 36.27c0 3.32-.82 5.85-2.46 7.6-1.64 1.74-3.92 2.62-6.84 2.62h-11.55c-.93 0-1.78-.29-2.55-.89-.97-.73-1.46-1.75-1.46-3.03v-.61c0-1.29.49-2.3 1.46-3.04.77-.59 1.63-.89 2.56-.89h9.55c.9 0 1.5-.13 1.83-.4.32-.26.49-.71.49-1.36v-1.13c0-.48-.25-.84-.76-1.1s-1.02-.39-1.55-.39h-3.33c-3.31 0-5.85-.84-7.61-2.51s-2.64-4.13-2.64-7.35V22.1c0-2.67.79-4.84 2.37-6.49 1.78-1.88 4.32-2.82 7.64-2.82h2.48c.93 0 1.78.29 2.55.89.97.73 1.45 1.74 1.45 3.03v.67c0 1.25-.48 2.24-1.45 2.98-.81.61-1.66.91-2.55.91h-1.63c-.61 0-1.1.06-1.46.19l-.55.64v1.63c0 .49.33.86.98 1.1.52.18 1.17.28 1.93.28h4.13c2.58 0 4.73.86 6.42 2.57 1.7 1.72 2.55 4.1 2.55 7.15v1.44z"/>
    </g>
</svg>
