<?xml version="1.0" encoding="UTF-8"?>
<svg width="799.98" height="244.31" version="1.1" viewBox="0 0 799.98 244.31" xmlns="http://www.w3.org/2000/svg" xmlns:xlink="http://www.w3.org/1999/xlink">
 <defs>
  <clipPath id="clipPath14735">
   <path d="m-9.9332-6.715h20.071v10.115h-20.071z"/>
  </clipPath>
  <clipPath id="clipPath14741">
   <path d="m-19.736-4.918h20.071v6.119h-20.071z"/>
  </clipPath>
  <clipPath id="clipPath14783">
   <path d="m-14.089-6.2016h20.071v10.115h-20.071z"/>
  </clipPath>
  <clipPath id="clipPath14819">
   <path d="m-16.004-6.6135h20.071v10.115h-20.071z"/>
  </clipPath>
  <clipPath id="clipPath14903">
   <path d="m-11.633-6.6074h20.071v10.115h-20.071z"/>
  </clipPath>
  <clipPath id="clipPath14952">
   <path d="m-17.793-6.8318h20.071v10.115h-20.071z"/>
  </clipPath>
  <clipPath id="clipPath15169">
   <path d="m-1.6989-6.1193h20.071v6.119h-20.071z"/>
  </clipPath>
  <clipPath id="clipPath16689">
   <path d="m49.139 333.32c-0.121-0.068-0.22-0.16-0.295-0.275-0.077-0.116-0.132-0.25-0.167-0.404-0.034-0.154-0.051-0.316-0.051-0.487 0-0.172 0.017-0.335 0.051-0.49 0.035-0.156 0.09-0.292 0.167-0.41 0.075-0.117 0.174-0.21 0.295-0.28 0.122-0.07 0.267-0.105 0.438-0.105s0.317 0.035 0.437 0.105 0.218 0.163 0.292 0.28c0.076 0.118 0.131 0.254 0.165 0.41 0.034 0.155 0.051 0.318 0.051 0.49 0 0.171-0.017 0.333-0.051 0.487s-0.089 0.288-0.165 0.404c-0.074 0.115-0.172 0.207-0.292 0.275s-0.266 0.103-0.437 0.103-0.316-0.035-0.438-0.103m0.252-1.877c-0.049 0.054-0.085 0.12-0.112 0.199-0.026 0.078-0.045 0.164-0.054 0.256-9e-3 0.093-0.014 0.177-0.014 0.256 0 0.074 5e-3 0.158 0.014 0.249 9e-3 0.092 0.028 0.176 0.054 0.255 0.027 0.079 0.063 0.144 0.112 0.199 0.049 0.053 0.111 0.08 0.186 0.08 0.077 0 0.138-0.027 0.186-0.08 0.047-0.055 0.083-0.12 0.109-0.199 0.025-0.079 0.042-0.163 0.051-0.255 9e-3 -0.091 0.014-0.175 0.014-0.249 0-0.079-5e-3 -0.163-0.014-0.256-9e-3 -0.092-0.026-0.178-0.051-0.256-0.026-0.079-0.062-0.145-0.109-0.199-0.048-0.054-0.109-0.081-0.186-0.081-0.075 0-0.137 0.027-0.186 0.081"/>
  </clipPath>
  <clipPath id="clipPath16725">
   <path d="m47.616 333.36-0.797-0.585 0.298-0.408 0.452 0.349v-1.779h0.575v2.423z"/>
  </clipPath>
  <linearGradient id="linearGradient1030" x2="1" gradientTransform="matrix(0,2.5532,2.5532,0,48.671,330.87)" gradientUnits="userSpaceOnUse">
   <stop stop-color="#ee682e" offset="0"/>
   <stop stop-color="#db2524" offset=".75"/>
   <stop stop-color="#db2524" offset="1"/>
  </linearGradient>
  <linearGradient id="linearGradient1" x2="1" gradientTransform="matrix(0,2.5532,2.5532,0,48.671,330.87)" gradientUnits="userSpaceOnUse" xlink:href="#linearGradient1030"/>
 </defs>
 <g transform="translate(.011756 .091433)" fill="#fff">
  <path transform="matrix(39.858 0 0 -39.858 67.703 -.10339)" d="m0 0c-0.937 0-1.699-0.762-1.699-1.699s0.762-1.7 1.699-1.7 1.699 0.763 1.699 1.7-0.762 1.699-1.699 1.699m0-0.349c0.745 0 1.35-0.606 1.35-1.35 0-0.203-0.045-0.395-0.125-0.567h-2.45c-0.08 0.172-0.125 0.364-0.125 0.567 0 0.744 0.605 1.35 1.35 1.35" clip-path="url(#clipPath15169)"/>
  <path d="m219.97 97.094h0.12l29.057-71.785h13.472v86.731h-8.8484v-75.331h-0.23919l-31.369 75.331h-4.6236l-31.369-75.331h-0.27892v75.331h-8.8087v-86.731h13.472z" stroke-width="1.3333"/>
  <path d="m312.36 112.03h-8.8086v-37.347l-32.485-49.384h11.041l26.067 42.011 26.346-42.011h10.323l-32.485 49.384z" stroke-width="1.3333"/>
  <path transform="matrix(39.858,0,0,-39.858,395.96,47.895)" d="m0 0c-0.045 0.057-0.104 0.103-0.177 0.137s-0.143 0.05-0.21 0.05c-0.035 0-0.07-3e-3 -0.106-9e-3s-0.068-0.018-0.097-0.035c-0.029-0.018-0.053-0.04-0.072-0.068-0.02-0.027-0.03-0.063-0.03-0.106 0-0.037 8e-3 -0.067 0.023-0.092 0.016-0.025 0.038-0.046 0.068-0.064 0.03-0.019 0.065-0.036 0.106-0.051 0.041-0.016 0.087-0.032 0.138-0.048 0.074-0.024 0.151-0.052 0.231-0.081 0.08-0.03 0.153-0.069 0.218-0.119 0.066-0.049 0.12-0.11 0.163-0.183 0.043-0.072 0.065-0.163 0.065-0.272 0-0.125-0.023-0.233-0.069-0.324-0.047-0.091-0.109-0.166-0.186-0.226-0.078-0.059-0.167-0.103-0.268-0.132-0.1-0.029-0.204-0.043-0.31-0.043-0.156 0-0.307 0.027-0.452 0.081-0.146 0.055-0.267 0.132-0.363 0.233l0.344 0.35c0.054-0.066 0.124-0.12 0.211-0.165 0.087-0.044 0.174-0.066 0.26-0.066 0.039 0 0.077 4e-3 0.113 0.013 0.037 8e-3 0.07 0.021 0.097 0.04 0.028 0.018 0.05 0.043 0.066 0.073 0.017 0.031 0.025 0.068 0.025 0.111 0 0.041-0.01 0.076-0.031 0.105-0.02 0.028-0.05 0.054-0.087 0.078-0.038 0.024-0.086 0.045-0.142 0.065-0.056 0.019-0.12 0.04-0.192 0.063-0.07 0.022-0.138 0.049-0.204 0.079-0.067 0.031-0.126 0.071-0.179 0.119-0.052 0.048-0.094 0.106-0.126 0.175-0.031 0.069-0.047 0.152-0.047 0.251 0 0.12 0.024 0.224 0.073 0.31 0.05 0.086 0.114 0.157 0.194 0.212s0.17 0.096 0.271 0.121c0.1 0.026 0.201 0.039 0.304 0.039 0.123 0 0.248-0.023 0.376-0.068 0.129-0.045 0.241-0.111 0.337-0.199z" clip-path="url(#clipPath14735)"/>
  <path transform="matrix(39.858,0,0,-39.858,463.69,52.162)" d="m0 0c0 0.051-0.01 0.093-0.031 0.126-0.02 0.033-0.048 0.058-0.083 0.077-0.035 0.018-0.074 0.031-0.118 0.037s-0.09 9e-3 -0.137 9e-3h-0.23v-0.513h0.221c0.049 0 0.096 4e-3 0.141 0.012s0.086 0.022 0.122 0.043c0.036 0.02 0.064 0.048 0.084 0.081 0.021 0.034 0.031 0.077 0.031 0.128m0.526 3e-3c0-0.127-0.024-0.234-0.071-0.321s-0.111-0.157-0.191-0.211c-0.08-0.053-0.172-0.092-0.276-0.117-0.105-0.024-0.213-0.036-0.326-0.036h-0.261v-0.821h-0.526v2.176h0.799c0.119 0 0.23-0.012 0.334-0.035 0.103-0.024 0.193-0.062 0.27-0.114s0.137-0.121 0.182-0.206c0.044-0.085 0.066-0.19 0.066-0.315" clip-path="url(#clipPath14903)"/>
  <path transform="matrix(39.858,0,0,-39.858,561.56,68.295)" d="m0 0c0 0.094-0.015 0.182-0.046 0.264s-0.073 0.153-0.128 0.211c-0.054 0.058-0.12 0.104-0.196 0.138-0.077 0.034-0.162 0.051-0.254 0.051s-0.176-0.017-0.252-0.051-0.141-0.08-0.197-0.138c-0.055-0.058-0.098-0.129-0.127-0.211-0.03-0.082-0.045-0.17-0.045-0.264 0-0.098 0.015-0.189 0.046-0.272s0.073-0.154 0.128-0.214c0.054-0.059 0.119-0.106 0.195-0.14 0.076-0.033 0.16-0.05 0.252-0.05s0.176 0.017 0.252 0.05c0.076 0.034 0.141 0.081 0.197 0.14 0.055 0.06 0.098 0.131 0.129 0.214s0.046 0.174 0.046 0.272m0.563 0c0-0.172-0.03-0.329-0.09-0.472-0.059-0.142-0.142-0.264-0.247-0.366-0.106-0.101-0.231-0.179-0.377-0.235-0.145-0.055-0.303-0.083-0.473-0.083s-0.327 0.028-0.472 0.083c-0.144 0.056-0.269 0.134-0.375 0.235-0.105 0.102-0.188 0.224-0.247 0.366-0.06 0.143-0.089 0.3-0.089 0.472 0 0.174 0.029 0.331 0.089 0.472 0.059 0.14 0.142 0.26 0.247 0.358 0.106 0.098 0.231 0.174 0.375 0.227 0.145 0.054 0.302 0.08 0.472 0.08s0.328-0.026 0.473-0.08c0.146-0.053 0.271-0.129 0.377-0.227 0.105-0.098 0.188-0.218 0.247-0.358 0.06-0.141 0.09-0.298 0.09-0.472" clip-path="url(#clipPath14783)"/>
  <path transform="matrix(39.858,0,0,-39.858,637.82,51.895)" d="m0 0c0 0.051-0.011 0.093-0.032 0.125-0.022 0.031-0.05 0.056-0.084 0.073-0.034 0.018-0.072 0.029-0.114 0.036-0.042 6e-3 -0.083 9e-3 -0.122 9e-3h-0.281v-0.507h0.25c0.043 0 0.087 3e-3 0.133 0.01 0.045 8e-3 0.086 0.02 0.123 0.039 0.037 0.018 0.068 0.045 0.091 0.08 0.024 0.035 0.036 0.08 0.036 0.135m0.021-1.509-0.472 0.863h-0.179v-0.863h-0.513v2.176h0.829c0.105 0 0.207-0.011 0.306-0.032 0.1-0.022 0.189-0.058 0.268-0.109 0.079-0.052 0.142-0.119 0.189-0.203s0.07-0.189 0.07-0.314c0-0.147-0.039-0.271-0.119-0.372-0.08-0.1-0.191-0.172-0.332-0.215l0.568-0.931z" clip-path="url(#clipPath14819)"/>
  <path transform="matrix(39.858,0,0,-39.858,709.15,43.229)" d="m0 0v-1.728h-0.526v1.728h-0.614v0.449h1.755v-0.449z" clip-path="url(#clipPath14952)"/>
  <path transform="matrix(39.858,0,0,-39.858,786.62,47.895)" d="m0 0c-0.045 0.057-0.104 0.103-0.177 0.137s-0.143 0.05-0.21 0.05c-0.035 0-0.071-3e-3 -0.106-9e-3 -0.036-6e-3 -0.069-0.018-0.097-0.035-0.029-0.018-0.053-0.04-0.072-0.068-0.02-0.027-0.03-0.063-0.03-0.106 0-0.037 8e-3 -0.067 0.023-0.092 0.016-0.025 0.038-0.046 0.068-0.064 0.03-0.019 0.065-0.036 0.106-0.051 0.041-0.016 0.087-0.032 0.138-0.048 0.074-0.024 0.151-0.052 0.231-0.081 0.08-0.03 0.153-0.069 0.218-0.119 0.066-0.049 0.12-0.11 0.163-0.183 0.043-0.072 0.065-0.163 0.065-0.272 0-0.125-0.023-0.233-0.07-0.324-0.046-0.091-0.108-0.166-0.185-0.226-0.078-0.059-0.168-0.103-0.268-0.132s-0.204-0.043-0.31-0.043c-0.156 0-0.307 0.027-0.452 0.081-0.146 0.055-0.267 0.132-0.363 0.233l0.344 0.35c0.054-0.066 0.124-0.12 0.211-0.165 0.087-0.044 0.174-0.066 0.26-0.066 0.039 0 0.077 4e-3 0.113 0.013 0.037 8e-3 0.07 0.021 0.097 0.04 0.028 0.018 0.05 0.043 0.066 0.073 0.017 0.031 0.025 0.068 0.025 0.111 0 0.041-0.01 0.076-0.031 0.105-0.02 0.028-0.05 0.054-0.087 0.078-0.038 0.024-0.086 0.045-0.142 0.065-0.056 0.019-0.12 0.04-0.192 0.063-0.07 0.022-0.138 0.049-0.204 0.079-0.067 0.031-0.126 0.071-0.179 0.119-0.052 0.048-0.094 0.106-0.126 0.175s-0.047 0.152-0.047 0.251c0 0.12 0.024 0.224 0.073 0.31 0.05 0.086 0.114 0.157 0.194 0.212s0.17 0.096 0.271 0.121c0.1 0.026 0.201 0.039 0.304 0.039 0.123 0 0.248-0.023 0.376-0.068 0.129-0.045 0.241-0.111 0.337-0.199z" clip-path="url(#clipPath14741)"/>
 </g>
 <path transform="matrix(39.858 0 0 -39.858 -1695.4 13432)" d="m47.616 333.36-0.797-0.585 0.298-0.408 0.452 0.349v-1.779h0.575v2.423z" clip-path="url(#clipPath16725)" fill="url(#linearGradient1)"/>
 <path transform="matrix(39.858 0 0 -39.858 -1695.4 13432)" d="m49.139 333.32c-0.121-0.068-0.22-0.16-0.295-0.275-0.077-0.116-0.132-0.25-0.167-0.404-0.034-0.154-0.051-0.316-0.051-0.487 0-0.172 0.017-0.335 0.051-0.49 0.035-0.156 0.09-0.292 0.167-0.41 0.075-0.117 0.174-0.21 0.295-0.28 0.122-0.07 0.267-0.105 0.438-0.105s0.317 0.035 0.437 0.105 0.218 0.163 0.292 0.28c0.076 0.118 0.131 0.254 0.165 0.41 0.034 0.155 0.051 0.318 0.051 0.49 0 0.171-0.017 0.333-0.051 0.487s-0.089 0.288-0.165 0.404c-0.074 0.115-0.172 0.207-0.292 0.275s-0.266 0.103-0.437 0.103-0.316-0.035-0.438-0.103m0.252-1.877c-0.049 0.054-0.085 0.12-0.112 0.199-0.026 0.078-0.045 0.164-0.054 0.256-9e-3 0.093-0.014 0.177-0.014 0.256 0 0.074 5e-3 0.158 0.014 0.249 9e-3 0.092 0.028 0.176 0.054 0.255 0.027 0.079 0.063 0.144 0.112 0.199 0.049 0.053 0.111 0.08 0.186 0.08 0.077 0 0.138-0.027 0.186-0.08 0.047-0.055 0.083-0.12 0.109-0.199 0.025-0.079 0.042-0.163 0.051-0.255 9e-3 -0.091 0.014-0.175 0.014-0.249 0-0.079-5e-3 -0.163-0.014-0.256-9e-3 -0.092-0.026-0.178-0.051-0.256-0.026-0.079-0.062-0.145-0.109-0.199-0.048-0.054-0.109-0.081-0.186-0.081-0.075 0-0.137 0.027-0.186 0.081" clip-path="url(#clipPath16689)" fill="url(#linearGradient1)"/>
</svg>
