<svg width="154.66mm" height="122.5mm" version="1.1" viewBox="0 0 154.66 122.5" xmlns="http://www.w3.org/2000/svg">
 <g transform="translate(.0020554 .00065665)">
  <g fill="#034ea2">
   <path d="m137.16 118.37h-4.13v-15.769h4.13zm0.388-20.326q0 1.229-0.748 1.949-0.721 0.69-1.718 0.69-0.998 0-1.746-0.69-0.721-0.719-0.721-1.949 0-1.229 0.721-1.919 0.748-0.719 1.746-0.719t1.718 0.719q0.748 0.69 0.748 1.919z" style="font-feature-settings:normal;font-variant-caps:normal;font-variant-ligatures:normal;font-variant-numeric:normal"/>
   <path d="m154.66 118.49h-4.52v-5.318h-2.027l-3.387 5.318h-5.074l4.054-6q-1.423-0.695-2.166-1.746-0.73-1.064-0.73-2.932 0-1.268 0.453-2.127 0.466-0.859 1.246-1.473 0.692-0.518 1.624-0.777 0.944-0.259 2.103-0.259h8.423zm-4.52-8.318v-3.818h-2.682q-0.932 0-1.46 0.464-0.516 0.45-0.516 1.323 0 1.077 0.516 1.555 0.516 0.477 1.536 0.477z" style="font-feature-settings:normal;font-variant-caps:normal;font-variant-ligatures:normal;font-variant-numeric:normal"/>
   <path d="m97.819 113.55c0 2.571 1.663 4.828 4.455 4.828 1.604 0 2.911-0.752 4.098-1.881h0.119l0.356 1.505h4.158v-8.716c0-5.142-2.316-7.337-6.177-7.337-2.316 0-4.455 0.752-6.534 2.069l1.782 3.512c1.544-0.878 2.673-1.317 3.742-1.317 1.307 0 1.96 0.502 2.079 1.63-5.702 0.627-8.078 2.446-8.078 5.706zm4.871-0.439c0-0.878 0.772-1.693 3.207-2.069v2.132c-0.535 0.627-1.01 1.066-1.841 1.066-0.891 0-1.366-0.408-1.366-1.129z" style="font-feature-settings:normal;font-variant-caps:normal;font-variant-ligatures:normal;font-variant-numeric:normal"/>
   <path d="m130.13 122.5h-4.212v-3.895h-8.686v3.895h-4.212v-7.307h1.22q0.997-2.182 1.588-5.332 0.604-3.163 0.604-6.713h12.177v12.045h1.522zm-6.22-7.307v-8.578h-3.241q-0.223 2.555-0.761 4.752-0.525 2.196-1.273 3.826z" style="font-feature-settings:normal;font-variant-caps:normal;font-variant-ligatures:normal;font-variant-numeric:normal"/>
   <path d="m94.055 118.43v-21.12h-4.151v8.81h-8.329v-8.81h-4.151v21.12h4.151v-8.327h8.329v8.327z" style="font-feature-settings:normal;font-variant-caps:normal;font-variant-ligatures:normal;font-variant-numeric:normal"/>
  </g>
  <path d="m51.269 70.272c-3.507-16.098-24.673-39.911-26.573-41.616-1.847-1.674-2.516-5.599 4.271-2.176 28.001 14.12 47.173 39.896 48.97 39.835 2.762-0.076 37.016-47.291 50.679-61.746 0.76-0.806 1.491-1.476 2.177-2.024-1.841-1.461-4.252-2.541-7.394-2.541h-115.74s-9.541-0.533-7.335 9.632l19.662 90.38s2.208 10.164 11.58 8.095l21.594-6.406 0.102-1.111c1.315-17.102-0.161-21.896-2.002-30.325" fill="#034ea2"/>
  <path d="m134.3 6.689c-17.142 34.327-27.532 57.029-29.344 79.669l-51.775 15.353 0.088-1.111c1.315-17.102-0.161-21.896-2.002-30.325-3.507-16.098-24.672-39.911-26.574-41.616-1.847-1.674-2.516-5.599 4.274-2.176 27.999 14.12 47.172 39.896 48.969 39.835 2.762-0.076 37.016-47.291 50.679-61.746 0.76-0.806 1.491-1.476 2.177-2.024 2.207 1.872 3.507 4.139 3.507 4.139" fill="#ffd400"/>
  <path d="m76.857 13.399c10.39 0.03 18.807 8.612 18.778 19.187-0.015 10.575-8.461 19.126-18.851 19.111-10.39-0.03-18.793-8.612-18.778-19.187 0.015-10.56 8.461-19.126 18.851-19.111" fill="#ffd400"/>
  <path d="m135.97 10.447s-0.468-1.719-1.666-3.758c-17.142 34.327-27.532 57.029-29.344 79.669l42.218-12.507s9.367-2.069 6.342-11.975z" fill="#034ea2"/>
 </g>
</svg>
