<?xml version="1.0" encoding="UTF-8" standalone="no"?>
<!-- Created with Inkscape (http://www.inkscape.org/) -->

<svg
   xmlns:dc="http://purl.org/dc/elements/1.1/"
   xmlns:cc="http://creativecommons.org/ns#"
   xmlns:rdf="http://www.w3.org/1999/02/22-rdf-syntax-ns#"
   xmlns:svg="http://www.w3.org/2000/svg"
   xmlns="http://www.w3.org/2000/svg"
   xmlns:sodipodi="http://sodipodi.sourceforge.net/DTD/sodipodi-0.dtd"
   xmlns:inkscape="http://www.inkscape.org/namespaces/inkscape"
   width="154.5508mm"
   height="122.50455mm"
   viewBox="0 0 154.5508 122.50455"
   version="1.1"
   id="svg881"
   inkscape:version="0.92.3 (2405546, 2018-03-11)"
   sodipodi:docname="nadiya.default.svg">
  <defs
     id="defs875" />
  <sodipodi:namedview
     id="base"
     pagecolor="#ffffff"
     bordercolor="#666666"
     borderopacity="1.0"
     inkscape:pageopacity="0.0"
     inkscape:pageshadow="2"
     inkscape:zoom="0.55371094"
     inkscape:cx="95.182654"
     inkscape:cy="214.4888"
     inkscape:document-units="mm"
     inkscape:current-layer="layer1"
     showgrid="false"
     fit-margin-top="0"
     fit-margin-left="0"
     fit-margin-right="0"
     fit-margin-bottom="0"
     inkscape:window-width="1920"
     inkscape:window-height="983"
     inkscape:window-x="0"
     inkscape:window-y="27"
     inkscape:window-maximized="1" />
  <metadata
     id="metadata878">
    <rdf:RDF>
      <cc:Work
         rdf:about="">
        <dc:format>image/svg+xml</dc:format>
        <dc:type
           rdf:resource="http://purl.org/dc/dcmitype/StillImage" />
        <dc:title></dc:title>
      </cc:Work>
    </rdf:RDF>
  </metadata>
  <g
     inkscape:label="Layer 1"
     inkscape:groupmode="layer"
     id="layer1"
     transform="translate(-31.91026,-83.07894)">
    <g
       id="g1478">
      <g
         id="g26"
         transform="matrix(0.70093529,0,0,0.70093529,32.15562,83.033824)"
         style="fill:#034ea2">
        <g
           id="g8"
           aria-label="і"
           style="font-variant-ligatures:normal;font-variant-caps:normal;font-variant-numeric:normal;font-feature-settings:normal"
           transform="scale(0.96121,1.0404)">
          <path
             id="path6"
             d="m 203.13,162.43 h -6.1274 v -21.631 h 6.1274 z m 0.57573,-27.882 q 0,1.686 -1.1103,2.673 -1.0692,0.94583 -2.5496,0.94583 -1.4804,0 -2.5908,-0.94583 -1.0692,-0.98696 -1.0692,-2.673 0,-1.68604 1.0692,-2.6319 1.1103,-0.98696 2.5908,-0.98696 1.4804,0 2.5496,0.98696 1.1103,0.94583 1.1103,2.6319 z"
             inkscape:connector-curvature="0"
             style="fill:#034ea2;stroke-width:0.58862001" />
        </g>
        <g
           id="g12"
           aria-label="я"
           style="font-variant-ligatures:normal;font-variant-caps:normal;font-variant-numeric:normal;font-feature-settings:normal"
           transform="scale(0.9609,1.0407)">
          <path
             id="path10"
             d="m 229.1,162.38 h -6.7062 v -7.2853 h -3.0075 l -5.025,7.2853 h -7.5282 l 6.0151,-8.2194 q -2.1109,-0.9527 -3.213,-2.3911 -1.0835,-1.4571 -1.0835,-4.0163 0,-1.7373 0.67249,-2.9141 0.69118,-1.1769 1.8494,-2.0175 1.0274,-0.70985 2.4098,-1.0648 1.401,-0.35493 3.1196,-0.35493 h 12.497 z m -6.7062,-11.395 v -5.2305 h -3.9789 q -1.3824,0 -2.1669,0.63513 -0.7659,0.61645 -0.7659,1.812 0,1.4758 0.7659,2.1296 0.76589,0.65382 2.279,0.65382 z"
             inkscape:connector-curvature="0"
             style="fill:#034ea2;stroke-width:0.54759997" />
        </g>
        <g
           id="g16"
           aria-label="a"
           style="font-variant-ligatures:normal;font-variant-caps:normal;font-variant-numeric:normal;font-feature-settings:normal"
           transform="scale(0.9733,1.0274)">
          <path
             id="path14"
             d="m 143.07,157.77 c 0,3.5708 2.4386,6.7062 6.532,6.7062 2.3515,0 4.2676,-1.0451 6.0094,-2.6128 h 0.17419 l 0.52256,2.0902 h 6.0965 v -12.106 c 0,-7.1416 -3.3966,-10.19 -9.0577,-10.19 -3.3966,0 -6.532,1.0451 -9.5803,2.8741 l 2.6128,4.8772 c 2.2644,-1.2193 3.9192,-1.829 5.4869,-1.829 1.916,0 2.8741,0.69674 3.0483,2.2644 -8.361,0.87093 -11.845,3.3966 -11.845,7.9255 z m 7.1416,-0.60965 c 0,-1.2193 1.1322,-2.3515 4.703,-2.8741 v 2.9612 c -0.78384,0.87093 -1.4806,1.4806 -2.6999,1.4806 -1.3064,0 -2.0031,-0.56611 -2.0031,-1.5677 z"
             inkscape:connector-curvature="0"
             style="fill:#034ea2;stroke-width:0.62331003" />
        </g>
        <g
           id="g20"
           aria-label="д"
           style="font-variant-ligatures:normal;font-variant-caps:normal;font-variant-numeric:normal;font-feature-settings:normal"
           transform="scale(0.97489,1.0258)">
          <path
             id="path18"
             d="m 190.17,170.44 h -6.167 v -5.4177 h -12.718 v 5.4177 h -6.167 v -10.163 h 1.7867 q 1.4601,-3.0354 2.3246,-7.4157 0.88374,-4.3995 0.88374,-9.3369 h 17.828 v 16.753 h 2.2286 z m -9.1064,-10.163 v -11.93 h -4.7453 q -0.3266,3.5542 -1.1143,6.6088 -0.76847,3.0547 -1.8635,5.3216 z"
             inkscape:connector-curvature="0"
             style="fill:#034ea2;stroke-width:0.56317002" />
        </g>
        <g
           id="g24"
           aria-label="H"
           style="font-variant-ligatures:normal;font-variant-caps:normal;font-variant-numeric:normal;font-feature-settings:normal"
           transform="scale(0.93359,1.0711)">
          <path
             id="path22"
             d="m 143.44,157.76 v -28.122 h -6.3475 v 11.731 h -12.735 V 129.638 H 118.01 v 28.122 h 6.3475 v -11.088 h 12.735 v 11.088 z"
             inkscape:connector-curvature="0"
             style="fill:#034ea2;stroke-width:0.57503003" />
        </g>
      </g>
      <g
         id="g36"
         transform="matrix(0.70093529,0,0,0.70093529,32.15562,83.033824)"
         style="stroke-width:2.12719989">
        <path
           id="path28"
           d="M 72.788,100.31 C 67.7849,77.345 37.591,43.375 34.881,40.944 c -2.635,-2.3877 -3.5898,-7.9878 6.0934,-3.104 39.944,20.143 67.294,56.913 69.858,56.826 3.94,-0.10853 52.804,-67.462 72.295,-88.083 1.084,-1.1504 2.1263,-2.1055 3.1061,-2.8869 -2.6267,-2.0838 -6.0663,-3.6249 -10.548,-3.6249 h -165.1 c 0,0 -13.611,-0.75971 -10.463,13.74 l 28.049,128.93 c 0,0 3.1499,14.5 16.519,11.548 l 30.805,-9.1382 0.14593,-1.5845 c 1.8762,-24.397 -0.22931,-31.235 -2.856,-43.26"
           inkscape:connector-curvature="0"
           style="fill:#034ea2" />
        <path
           id="path30"
           d="m 191.24,9.6057 c -24.453,48.969 -39.275,81.354 -41.86,113.65 l -73.859,21.901 0.12508,-1.5845 c 1.8762,-24.397 -0.22931,-31.235 -2.856,-43.26 -5.0031,-22.965 -35.195,-56.935 -37.909,-59.366 -2.635,-2.3877 -3.5898,-7.9878 6.0976,-3.104 39.942,20.143 67.292,56.913 69.856,56.826 3.94,-0.10853 52.804,-67.462 72.295,-88.083 1.084,-1.1504 2.1263,-2.1055 3.1061,-2.8869 3.1478,2.6698 5.0032,5.904 5.0032,5.904"
           inkscape:connector-curvature="0"
           style="fill:#ffd400" />
        <path
           id="path32"
           d="m 109.29,19.178 c 14.822,0.04341 26.829,12.286 26.788,27.371 -0.0208,15.086 -12.07,27.284 -26.892,27.263 C 94.364,73.768588 82.377,61.526 82.398,46.441 82.418847,31.377 94.468,19.157 109.29,19.178"
           inkscape:connector-curvature="0"
           style="fill:#ffd400" />
        <path
           id="path34"
           d="m 193.61,14.967 c 0,0 -0.66708,-2.4528 -2.3765,-5.3613 -24.453,48.969 -39.275,81.354 -41.86,113.65 l 60.225,-17.842 c 0,0 13.363,-2.952 9.0474,-17.083 z"
           inkscape:connector-curvature="0"
           style="fill:#034ea2" />
      </g>
    </g>
  </g>
</svg>
