<svg version="1.1" viewBox="0 0 800 463.44" xml:space="preserve" xmlns="http://www.w3.org/2000/svg">
<g transform="scale(1.5625)" fill="#d6d6d6">
	<g fill="#d6d6d6">
		<g fill="#d6d6d6">
			
				<path class="st0" d="M 175.2,96.8 H 54.1 L 0,0 h 121.1 z"/>
				<path class="st0" d="m175.2 110.9h-121.1l-54.1 96.7h121.1z"/>
			
			
				<path class="st0" d="m343.6 96.8h-121.1l-54.1-96.8h121.1z"/>
				<path class="st0" d="m343.6 110.9h-121.1l-54.1 96.7h121.1z"/>
			
			
				<path class="st0" d="m512 96.8h-121.1l-54.1-96.8h121.1z"/>
				<path class="st0" d="m512 110.9h-121.1l-54.1 96.7h121.1z"/>
			
		
	
	
		
			<path class="st0" d="m23 278.7h-15v17.1h-8v-40.9h8v16.7h15v-16.7h8v40.9h-8z"/>
			<path class="st0" d="m58.1 286.8h-12.6l-3.1 9.1h-8l14.7-41.2h5.9l14.7 41.2h-8.4zm-10.5-6.4h8.8l-3-9.1-1.2-6.4h-0.3l-1.2 6.5z"/>
			<path class="st0" d="m73.1 295.8v-40.9h8v33.8h9.6v-33.8h8v33.8h9.6v-33.8h8v40.9z"/>
			<path class="st0" d="m124.1 254.9h24.2v7.1h-16.2v9.5h14.8v7.1h-14.8v10h16.5v7.1h-24.5z"/>
			<path class="st0" d="m193.8 278.7h-15v17.1h-8v-40.9h8v16.7h15v-16.7h8v40.9h-8z"/>
			<path class="st0" d="m207.2 275.4c0-6.8 1.5-12.1 4.5-15.7 3-3.7 7.3-5.5 12.9-5.5 2.9 0 5.5 0.5 7.6 1.5 2.2 1 4 2.5 5.4 4.3 1.4 1.9 2.5 4.1 3.2 6.7s1.1 5.5 1.1 8.7c0 6.8-1.5 12.1-4.5 15.7-3 3.7-7.3 5.5-12.8 5.5-3 0-5.5-0.5-7.7-1.5s-4-2.5-5.4-4.3c-1.4-1.9-2.5-4.1-3.2-6.7-0.8-2.6-1.1-5.5-1.1-8.7zm8.4 0c0 2.1 0.2 4 0.5 5.7s0.9 3.2 1.6 4.5 1.6 2.2 2.8 2.9c1.1 0.7 2.5 1.1 4 1.1 2.8 0 5-1.1 6.6-3.3s2.3-5.8 2.3-10.8c0-2-0.2-3.8-0.5-5.6-0.3-1.7-0.8-3.2-1.5-4.5s-1.6-2.3-2.8-3c-1.1-0.7-2.5-1.1-4.1-1.1-2.8 0-5.1 1.1-6.6 3.4s-2.3 5.8-2.3 10.7z"/>
			<path class="st0" d="m274.7 264.5c0 1-0.1 2-0.4 3s-0.7 1.9-1.3 2.8c-0.6 0.8-1.3 1.6-2.3 2.2-0.9 0.6-2.1 1.1-3.4 1.4v0.3c1.2 0.2 2.3 0.5 3.3 1s2 1.1 2.7 1.9c0.8 0.8 1.4 1.8 1.8 3 0.5 1.2 0.7 2.6 0.7 4.1 0 2.1-0.5 3.9-1.4 5.5-0.9 1.5-2.1 2.8-3.6 3.8s-3.2 1.7-5.1 2.2-3.9 0.7-5.9 0.7h-2.5c-1 0-2.1 0-3.3-0.1s-2.4-0.1-3.6-0.3c-1.2-0.1-2.3-0.3-3.4-0.5v-40.3c0.7-0.1 1.6-0.2 2.5-0.3 1-0.1 2-0.2 3.1-0.3s2.2-0.1 3.4-0.2c1.2 0 2.3-0.1 3.4-0.1 1.9 0 3.8 0.1 5.6 0.4s3.4 0.8 4.9 1.5c1.4 0.7 2.6 1.8 3.4 3.1 1 1.5 1.4 3.1 1.4 5.2zm-17.1 7.6c0.5 0 1.2 0 1.9-0.1 0.7 0 1.3-0.1 1.8-0.2 1.5-0.5 2.8-1.2 3.8-2.1 1.1-0.9 1.6-2.1 1.6-3.6 0-1-0.2-1.8-0.6-2.5s-0.9-1.2-1.6-1.6c-0.6-0.4-1.4-0.6-2.2-0.8-0.8-0.1-1.7-0.2-2.6-0.2-1 0-1.9 0-2.8 0.1-0.9 0-1.5 0.1-2 0.2v10.8zm2.5 17.6c0.9 0 1.9-0.1 2.8-0.3s1.7-0.6 2.4-1.1 1.2-1.1 1.7-1.8c0.4-0.7 0.6-1.6 0.6-2.6 0-1.3-0.3-2.3-0.7-3-0.5-0.7-1.1-1.3-2-1.7-0.8-0.4-1.7-0.7-2.7-0.8s-2-0.2-3-0.2h-4.2v11.2c0.2 0.1 0.5 0.1 0.9 0.2 0.4 0 0.9 0.1 1.3 0.1 0.5 0 1 0 1.5 0.1 0.6-0.1 1-0.1 1.4-0.1z"/>
			<path class="st0" d="m280 275.4c0-6.8 1.5-12.1 4.5-15.7 3-3.7 7.3-5.5 12.8-5.5 2.9 0 5.5 0.5 7.7 1.5s4 2.5 5.4 4.3c1.4 1.9 2.5 4.1 3.2 6.7s1.1 5.5 1.1 8.7c0 6.8-1.5 12.1-4.5 15.7-3 3.7-7.3 5.5-12.8 5.5-3 0-5.5-0.5-7.7-1.5s-4-2.5-5.4-4.3c-1.4-1.9-2.5-4.1-3.2-6.7s-1.1-5.5-1.1-8.7zm8.4 0c0 2.1 0.2 4 0.5 5.7s0.9 3.2 1.6 4.5 1.6 2.2 2.8 2.9c1.1 0.7 2.5 1.1 4 1.1 2.8 0 5-1.1 6.6-3.3s2.3-5.8 2.3-10.8c0-2-0.2-3.8-0.5-5.6-0.3-1.7-0.9-3.2-1.6-4.5s-1.6-2.3-2.7-3-2.5-1.1-4.2-1.1c-2.8 0-5 1.1-6.6 3.4-1.4 2.3-2.2 5.8-2.2 10.7z"/>
			<path class="st0" d="m320 254.9h24.2v7.1h-16.2v9.5h14.8v7.1h-14.8v10h16.5v7.1h-24.5z"/>
			<path class="st0" d="m376.8 278.4h-2.1v17.5h-8v-40.9h8v18.1l1.9-0.8 11.3-17.3h9.1l-11.9 17.2-3.2 2.2 3.3 2.3 13.6 19.2h-9.9z"/>
			<path class="st0" d="m425.2 273.2 0.5-5.3h-0.3l-2.7 5.5-15.3 22.5h-6v-40.9h8v22.3l-0.6 5.5h0.3l2.9-5.7 15.2-22.1h6v40.9h-8z"/>
			<path class="st0" d="m463.9 278.7h-15v17.1h-8v-40.9h8v16.7h15v-16.7h8v40.9h-8z"/>
			<path class="st0" d="m477.3 275.4c0-6.8 1.5-12.1 4.5-15.7 3-3.7 7.3-5.5 12.9-5.5 2.9 0 5.5 0.5 7.6 1.5 2.2 1 4 2.5 5.4 4.3 1.4 1.9 2.5 4.1 3.2 6.7s1 5.5 1 8.7c0 6.8-1.5 12.1-4.5 15.7-3 3.7-7.3 5.5-12.8 5.5-3 0-5.5-0.5-7.7-1.5s-4-2.5-5.4-4.3c-1.4-1.9-2.5-4.1-3.2-6.7-0.6-2.6-1-5.5-1-8.7zm8.4 0c0 2.1 0.2 4 0.5 5.7 0.4 1.7 0.9 3.2 1.6 4.5s1.6 2.2 2.8 2.9c1.1 0.7 2.5 1.1 4 1.1 2.8 0 5-1.1 6.6-3.3s2.3-5.8 2.3-10.8c0-2-0.2-3.8-0.5-5.6-0.3-1.7-0.8-3.2-1.5-4.5s-1.6-2.3-2.7-3-2.5-1.1-4.2-1.1c-2.8 0-5 1.1-6.6 3.4-1.5 2.3-2.3 5.8-2.3 10.7z"/>
		</g>
	</g>
</g>
</svg>
