<svg version="1.1" viewBox="0 0 800 258.09" xml:space="preserve" xmlns="http://www.w3.org/2000/svg">
<style type="text/css">
	.st4{display:none;}
	.st15{display:inline;fill:#2D1996;}
</style>
	<g transform="matrix(4.6087 0 0 4.6087 -.027987 -55.304)">
		<g class="st4">
			<path class="st15" d="m7.82 41.65-7.14 4.19c-0.52 0.3-0.78 0.9-0.64 1.49l0.18 0.75c0.07 0.24 0.15 0.48 0.23 0.71 1.37 4.13 3.71 7.91 6.8 11 4.82 4.81 11.49 8.2 19.91 8.18 7.41-0.01 14.58-2.96 19.83-8.18 3.09-3.09 5.43-6.87 6.79-11 0.08-0.24 0.15-0.47 0.23-0.71l0.19-0.75c0.14-0.58-0.12-1.19-0.64-1.49l-7.14-4.19c-0.38-0.22-0.85-0.24-1.25-0.05-0.19 0.08-0.36 0.23-0.44 0.39-0.06 0.11-0.08 0.2-0.1 0.3-0.06 0.53-0.1 0.8-0.2 1.31-0.25 1.25-0.65 2.48-1.15 3.65l-0.02-0.02c-2.76 6.15-8.94 10.44-16.14 10.44-8.54 0-15.67-6.04-17.31-14.08-0.11-0.51-0.15-0.78-0.21-1.31-0.01-0.1-0.03-0.19-0.09-0.3-0.08-0.16-0.25-0.3-0.44-0.39-0.41-0.18-0.87-0.16-1.25 0.06z"/>
		</g>
		<g fill="#2d1996">
			<path d="m7.82 41.67-7.14 4.19c-0.52 0.3-0.77 0.89-0.64 1.49l0.19 0.75c1.26 4.36 3.93 8.63 7.02 11.72 4.82 4.81 11.48 8.2 19.88 8.18 7.41-0.01 14.62-2.96 19.86-8.18 3.09-3.09 5.43-6.87 6.79-11 0.08-0.24 0.16-0.47 0.23-0.71l0.19-0.75c0.15-0.58-0.12-1.19-0.64-1.49l-7.14-4.19c-0.39-0.22-0.85-0.25-1.25-0.05-0.19 0.08-0.46 0.34-0.51 0.69-0.05 0.32-0.15 0.93-0.22 1.31-0.22 1.09-0.46 1.99-1.18 3.63-2.58 5.94-8.94 10.44-16.14 10.44-8.54 0-15.74-6.04-17.38-14.08-0.11-0.51-0.15-0.79-0.24-1.31-0.07-0.42-0.23-0.6-0.42-0.69-0.42-0.2-0.88-0.17-1.26 0.05z"/>
			<path d="m7.82 38.33-7.14-4.19c-0.52-0.3-0.77-0.89-0.64-1.49l0.19-0.75c1.26-4.36 3.93-8.63 7.02-11.72 4.82-4.81 11.48-8.2 19.88-8.18 7.41 0.01 14.62 2.96 19.86 8.18 3.09 3.09 5.43 6.87 6.79 11 0.08 0.24 0.16 0.47 0.23 0.71l0.19 0.75c0.15 0.58-0.12 1.19-0.64 1.49l-7.14 4.19c-0.39 0.22-0.85 0.25-1.25 0.05-0.19-0.08-0.46-0.34-0.51-0.69-0.05-0.32-0.15-0.93-0.22-1.31-0.22-1.09-0.46-1.99-1.18-3.63-2.58-5.94-8.94-10.44-16.14-10.44-8.54 0-15.74 6.04-17.38 14.08-0.11 0.51-0.15 0.79-0.24 1.31-0.07 0.42-0.23 0.6-0.42 0.69-0.42 0.2-0.88 0.17-1.26-0.05z"/>
			<path d="m18.22 27.82c-0.16 0.22-0.1 0.5 0.26 1l7.89 10.34c0.25 0.33 0.48 0.58 0.51 0.86-0.03 0.27-0.26 0.52-0.51 0.86l-7.89 10.34c-0.28 0.39-0.42 0.78-0.26 0.99 0.21 0.3 0.75 0.03 1.1-0.16l19.25-11.16 0.8-0.49c0.43-0.29 0.43-0.48 0-0.75l-0.8-0.49-19.25-11.18c-0.37-0.22-0.9-0.46-1.1-0.16z"/>
			<path d="m71.8 38.7v-16.39h-4.39v6.2h-3.46v-6.2h-4.39v16.39h4.39v-6.46h3.46v6.46z"/>
			<path d="m79.68 33.48c0 0.13-0.01 0.26-0.02 0.38-0.01 0.13-0.04 0.25-0.07 0.37-0.16 0.47-0.41 0.8-0.73 1.03-0.33 0.21-0.67 0.33-1.02 0.33-0.23 0-0.46-0.07-0.69-0.21s-0.42-0.37-0.58-0.69-0.25-0.74-0.25-1.27c0.01-0.55 0.12-1 0.32-1.35 0.21-0.35 0.49-0.62 0.83-0.82 0.34-0.19 0.7-0.33 1.09-0.41 0.39-0.07 0.76-0.11 1.13-0.13v2.77zm4.41 4.96c-0.1-0.55-0.17-1.12-0.21-1.75-0.04-0.62-0.05-1.25-0.05-1.89v-5.9c0.01-0.81-0.06-1.6-0.2-2.37-0.13-0.78-0.4-1.49-0.79-2.12s-0.96-1.13-1.7-1.51-1.72-0.58-2.92-0.58c-0.74 0.01-1.42 0.07-2.06 0.2-0.63 0.12-1.2 0.27-1.69 0.46-0.49 0.18-0.88 0.36-1.18 0.54l0.78 2.85c0.46-0.3 0.97-0.51 1.5-0.68 0.54-0.15 1.11-0.23 1.74-0.23 0.74 0.01 1.31 0.21 1.68 0.61 0.37 0.39 0.56 0.91 0.56 1.54v0.36c-0.91 0-1.8 0.12-2.66 0.36-0.86 0.22-1.63 0.57-2.33 1.05-0.7 0.46-1.24 1.07-1.65 1.82-0.41 0.74-0.62 1.63-0.63 2.67 0.01 0.95 0.19 1.78 0.55 2.51 0.36 0.72 0.86 1.29 1.48 1.7 0.63 0.41 1.34 0.62 2.15 0.63 0.71 0 1.35-0.15 1.95-0.44 0.6-0.31 1.12-0.76 1.56-1.38h0.06l0.23 1.56h3.83z"/>
			<path d="m124.24 29.62c-0.11 0.01-0.21 0.02-0.3 0.03-0.09 0-0.21 0.01-0.33 0.01-0.53-0.01-1-0.11-1.4-0.32-0.42-0.21-0.75-0.5-0.99-0.87-0.24-0.36-0.36-0.79-0.36-1.27 0.01-0.73 0.23-1.29 0.67-1.66 0.43-0.37 1.04-0.55 1.79-0.56 0.17 0 0.33 0.01 0.47 0.03 0.16 0.01 0.31 0.04 0.46 0.07v4.54zm4.15-7.08c-0.54-0.1-1.21-0.17-2-0.22s-1.64-0.07-2.55-0.07c-0.75 0-1.47 0.04-2.16 0.13-0.69 0.08-1.32 0.22-1.89 0.39s-1.03 0.39-1.4 0.64c-0.61 0.41-1.07 0.9-1.4 1.47-0.32 0.56-0.49 1.25-0.5 2.06 0.01 0.77 0.19 1.43 0.53 1.97 0.35 0.55 0.81 0.98 1.38 1.31s1.2 0.57 1.88 0.71v0.06c-0.44 0.13-0.83 0.3-1.15 0.49-0.33 0.2-0.59 0.4-0.81 0.64-0.35 0.4-0.64 0.87-0.89 1.42-0.25 0.56-0.45 1.12-0.62 1.7-0.16 0.58-0.31 1.11-0.45 1.6-0.1 0.35-0.22 0.68-0.36 0.98-0.14 0.29-0.3 0.57-0.46 0.82h4.52c0.1-0.18 0.19-0.38 0.27-0.58s0.15-0.41 0.19-0.62c0.16-0.66 0.33-1.31 0.49-1.97 0.17-0.66 0.38-1.24 0.62-1.76 0.26-0.51 0.58-0.9 0.98-1.14 0.15-0.09 0.32-0.16 0.51-0.23s0.42-0.1 0.68-0.1h0.4v6.39h4.19z"/>
			<path d="m148.45 35.37v-13.06h-4.25v12.7h-3.09v-12.7h-4.28v12.7h-3.1v-12.7h-4.28v16.26h16.87l0.21 4.48h3.28l0.17-7.61z"/>
			<path d="m153.48 28.94c0-0.4 0.05-0.83 0.12-1.25 0.08-0.42 0.19-0.82 0.36-1.19 0.15-0.36 0.36-0.65 0.61-0.88 0.25-0.22 0.55-0.34 0.9-0.34 0.42 0.01 0.77 0.17 1.03 0.49 0.27 0.32 0.46 0.76 0.58 1.3 0.12 0.55 0.19 1.17 0.18 1.86h-3.78zm7.51 3c0.05-0.22 0.08-0.5 0.1-0.85s0.03-0.8 0.03-1.37c-0.01-2.42-0.48-4.28-1.42-5.57s-2.26-1.95-3.98-1.96c-1.22 0-2.31 0.35-3.26 1.03-0.96 0.67-1.72 1.65-2.27 2.92-0.56 1.27-0.84 2.8-0.86 4.59 0 1.67 0.26 3.09 0.77 4.26 0.52 1.16 1.27 2.06 2.28 2.68 0.99 0.61 2.22 0.92 3.66 0.92 0.83 0 1.63-0.06 2.4-0.19s1.44-0.31 2-0.52l-0.59-3.06c-0.38 0.13-0.82 0.25-1.34 0.36-0.52 0.1-1.08 0.16-1.69 0.16-0.63 0-1.2-0.11-1.7-0.34-0.51-0.22-0.9-0.57-1.2-1.08-0.29-0.5-0.46-1.16-0.48-1.98z"/>
			<path d="m165.93 28.94c0-0.4 0.05-0.83 0.12-1.25 0.08-0.42 0.2-0.82 0.35-1.18 0.16-0.36 0.36-0.66 0.62-0.88 0.24-0.22 0.54-0.33 0.89-0.34 0.42 0.01 0.77 0.17 1.03 0.49 0.27 0.33 0.46 0.76 0.58 1.3 0.12 0.55 0.18 1.17 0.18 1.86zm7.52 3c0.05-0.22 0.08-0.5 0.11-0.85 0.02-0.34 0.03-0.8 0.03-1.37-0.01-2.42-0.49-4.28-1.42-5.57-0.94-1.29-2.27-1.94-3.99-1.96-1.22 0.01-2.31 0.35-3.26 1.03-0.95 0.67-1.71 1.65-2.27 2.92s-0.84 2.8-0.85 4.59c0 1.67 0.26 3.08 0.78 4.26 0.51 1.16 1.27 2.06 2.27 2.67 0.99 0.61 2.21 0.92 3.66 0.93 0.83-0.01 1.63-0.07 2.39-0.19 0.77-0.13 1.44-0.31 2.01-0.52l-0.59-3.06c-0.38 0.13-0.82 0.26-1.34 0.36-0.52 0.11-1.08 0.16-1.68 0.16-0.64 0-1.21-0.11-1.7-0.34-0.5-0.22-0.9-0.57-1.2-1.08-0.3-0.49-0.46-1.16-0.48-1.98z"/>
			<path d="m63.67 50.84h1.01c0.56 0 1.08 0.07 1.53 0.22 0.46 0.15 0.82 0.38 1.09 0.7s0.41 0.72 0.42 1.22c-0.01 0.52-0.15 0.93-0.44 1.24-0.28 0.3-0.65 0.52-1.09 0.65-0.45 0.13-0.93 0.19-1.44 0.19-0.19 0-0.37 0-0.56-0.02s-0.36-0.04-0.51-0.07v-4.13zm0.03-6.51c0.33-0.07 0.69-0.11 1.08-0.11 0.77 0 1.38 0.16 1.83 0.47 0.44 0.31 0.67 0.77 0.69 1.39-0.01 0.44-0.13 0.81-0.36 1.1-0.24 0.29-0.55 0.51-0.95 0.67-0.4 0.15-0.83 0.23-1.3 0.23h-0.99zm-4.09 13.34c0.47 0.05 1.04 0.09 1.73 0.13s1.41 0.05 2.17 0.05c0.66 0 1.37-0.02 2.13-0.1 0.76-0.07 1.51-0.2 2.26-0.4 0.73-0.18 1.41-0.46 2.02-0.82s1.1-0.83 1.46-1.41c0.37-0.58 0.56-1.29 0.57-2.13 0-0.64-0.15-1.21-0.44-1.73-0.29-0.53-0.71-0.96-1.27-1.32-0.56-0.35-1.24-0.6-2.03-0.73v-0.07c0.55-0.13 1.05-0.36 1.51-0.67 0.46-0.33 0.83-0.74 1.12-1.24 0.28-0.51 0.42-1.1 0.42-1.77 0-0.71-0.16-1.31-0.46-1.8-0.3-0.48-0.7-0.87-1.21-1.16s-1.06-0.51-1.68-0.67c-0.61-0.15-1.25-0.25-1.88-0.3-0.63-0.06-1.24-0.08-1.8-0.08-0.82 0.01-1.64 0.04-2.43 0.09-0.8 0.06-1.53 0.14-2.19 0.24z"/>
			<path d="m89.7 48.13c0.01-0.4 0.05-0.82 0.13-1.25 0.08-0.42 0.2-0.82 0.35-1.17 0.16-0.36 0.36-0.66 0.61-0.88s0.55-0.34 0.9-0.35c0.42 0.01 0.77 0.17 1.03 0.49 0.27 0.32 0.46 0.76 0.58 1.3 0.12 0.55 0.18 1.17 0.18 1.86zm7.52 3c0.05-0.22 0.08-0.5 0.11-0.85 0.01-0.34 0.03-0.8 0.03-1.36-0.01-2.43-0.49-4.28-1.42-5.57-0.94-1.29-2.26-1.95-3.99-1.95-1.22 0-2.31 0.34-3.26 1.02-0.96 0.67-1.71 1.65-2.27 2.92s-0.84 2.79-0.86 4.59c0 1.67 0.26 3.08 0.77 4.25 0.52 1.17 1.28 2.05 2.27 2.67 1 0.62 2.22 0.93 3.67 0.93 0.83 0 1.63-0.07 2.39-0.2 0.77-0.13 1.44-0.3 2-0.52l-0.59-3.06c-0.38 0.14-0.82 0.26-1.34 0.36-0.52 0.11-1.08 0.16-1.69 0.16-0.63 0-1.2-0.11-1.7-0.33-0.5-0.23-0.9-0.59-1.2-1.08-0.3-0.5-0.46-1.16-0.48-1.98z"/>
			<path d="m98.49 57.77h3.96l0.17-5.7c0.01-0.52 0.02-1.11 0.04-1.76 0.02-0.66 0.03-1.4 0.05-2.25 0.01-0.85 0.03-1.83 0.04-2.95h0.07c0.09 0.42 0.2 0.92 0.31 1.5 0.12 0.57 0.23 1.16 0.35 1.79 0.12 0.62 0.24 1.24 0.36 1.83 0.11 0.59 0.22 1.12 0.32 1.59l1.31 5.7h3.56l1.27-5.63c0.19-0.85 0.37-1.71 0.55-2.56s0.34-1.65 0.48-2.39 0.26-1.34 0.35-1.82h0.06c0.03 1.14 0.05 2.14 0.07 2.99s0.04 1.59 0.06 2.23c0.01 0.64 0.03 1.21 0.05 1.72l0.2 5.73h4.09l-1.08-16.39h-5.46l-1.14 5.23c-0.1 0.45-0.19 0.92-0.29 1.39-0.1 0.48-0.19 0.99-0.31 1.54-0.11 0.55-0.23 1.18-0.37 1.86h-0.1c-0.15-0.7-0.29-1.33-0.42-1.87-0.12-0.55-0.25-1.05-0.35-1.52-0.12-0.47-0.22-0.94-0.33-1.4l-1.21-5.23h-5.46z"/>
			<path d="m125.72 48.76c-0.11 0.02-0.21 0.03-0.3 0.03-0.09 0.01-0.2 0.01-0.33 0.01-0.52-0.01-0.99-0.11-1.41-0.33-0.41-0.21-0.74-0.49-0.98-0.87-0.24-0.36-0.36-0.79-0.37-1.27 0.01-0.73 0.23-1.28 0.67-1.66 0.43-0.37 1.03-0.56 1.79-0.56 0.16 0 0.32 0.01 0.48 0.03 0.15 0.01 0.3 0.04 0.45 0.07zm4.16-7.08c-0.54-0.1-1.21-0.18-2-0.23-0.8-0.05-1.64-0.07-2.55-0.07-0.75 0-1.47 0.04-2.16 0.13-0.69 0.08-1.32 0.22-1.88 0.39-0.57 0.17-1.04 0.39-1.42 0.64-0.6 0.41-1.06 0.9-1.39 1.47s-0.49 1.26-0.5 2.06c0.01 0.78 0.19 1.43 0.53 1.98 0.34 0.54 0.81 0.98 1.38 1.31s1.19 0.57 1.88 0.71v0.06c-0.44 0.13-0.83 0.3-1.15 0.49-0.33 0.19-0.59 0.4-0.81 0.64-0.35 0.4-0.65 0.87-0.9 1.42-0.24 0.55-0.45 1.12-0.62 1.7-0.16 0.58-0.31 1.12-0.45 1.6-0.1 0.35-0.22 0.68-0.36 0.97-0.14 0.3-0.3 0.58-0.47 0.82h4.52c0.1-0.18 0.19-0.37 0.28-0.57 0.08-0.2 0.15-0.4 0.2-0.63 0.16-0.65 0.33-1.3 0.49-1.96 0.17-0.65 0.37-1.23 0.63-1.75 0.25-0.52 0.57-0.9 0.97-1.14 0.15-0.08 0.32-0.16 0.52-0.23 0.19-0.07 0.42-0.1 0.68-0.1h0.4v6.38h4.19v-16.09z"/>
			<path d="m77.45 48.77c0.11 0.02 0.21 0.03 0.31 0.03 0.09 0 0.19 0.01 0.32 0.01 0.53-0.01 0.99-0.11 1.41-0.33 0.41-0.21 0.74-0.49 0.98-0.87 0.24-0.36 0.37-0.79 0.37-1.27-0.01-0.73-0.23-1.29-0.66-1.66-0.44-0.37-1.04-0.56-1.8-0.56-0.16 0-0.32 0.01-0.47 0.03-0.15 0.01-0.3 0.04-0.45 0.07v4.55zm-4.15-7.08c0.54-0.1 1.21-0.18 2-0.23s1.64-0.08 2.55-0.08c0.75 0 1.47 0.05 2.16 0.14s1.32 0.22 1.89 0.39 1.03 0.38 1.41 0.64c0.6 0.41 1.07 0.9 1.4 1.47s0.5 1.26 0.5 2.06c-0.01 0.77-0.19 1.94-0.53 2.48-1.51 2.85-4.36 3.03-7.18 2.65v6.57h-4.2z"/>
			<path d="m109.85 35.47c-1.13 0-2.28-1.7-2.28-4.96 0-3.61 1.38-4.96 2.25-4.96 1.22 0 2.14 2.07 2.14 4.82 0 4.03-1.37 5.1-2.11 5.1zm0.12-13.16c-4.08 0-6.71 3.2-6.71 8.15 0 5.16 2.41 8.24 6.45 8.24 2.46 0 6.6-1.1 6.6-8.47 0-4.96-2.37-7.92-6.34-7.92z"/>
			<path d="m93.93 22.31h-2.75c-3.44 0-6.87 2.77-6.87 8.59 0 4.72 2.49 7.67 6.51 7.8 1.7 0.06 3.64-0.68 3.64-0.68l-0.74-3.16s-0.6 0.3-1.76 0.34c-2.51 0.08-3.38-2.57-3.38-4.52 0-2.81 1-4.46 3.29-4.63 0.57-0.05 2-0.09 2-0.09h2.21v12.47h4.28v-12.47h3.38v-3.65z"/>
		</g>
	</g>
</svg>
