<svg xmlns="http://www.w3.org/2000/svg" height="142.35" width="600">
    <path fill="#ffd300" d="M84.622 14.752h-70.39v113.26h70.39V14.752zM-.032.472h98.968v141.82H-.032V.472z"/>
    <path d="M342.522 103.692c0 .06.012.127.012.195.012-.017.025-.025.034-.034a.652.652 0 0 1-.042-.16M347.022 88.292c0 .06 0 .127.012.195.012-.017.017-.025.025-.033-.017-.05-.025-.11-.034-.161M162.822 52.672h-6.243c-8.214-11.91-16.428-23.746-24.516-37.137h-.127v37.137h-6.92V.883h6.311c8.206 11.835 16.361 23.602 24.448 36.917h.127V.883h6.92v51.79zM192.222 32.182c-1.835-6.801-3.671-13.095-5.693-21.08h-.127c-1.776 7.985-3.798 14.28-5.82 21.08h11.64zM191.055.89l16.124 51.79h-9.686l-3.985-14.137h-15.202L173.9 52.68h-7.478L183.89.89h7.165zM216.222 52.672V7.837h-13.239V.883h35.115v6.954H224.86v44.835h-8.637zM294.522 29.002V50.38c-4.602 1.853-9.44 3.18-14.339 3.18-14.838 0-24.21-11.834-24.21-27.07 0-14.135 9.313-26.486 24.455-26.486 4.712 0 9.433 1.776 12.25 3.993l-2.759 6.141c-2.326-1.48-5.938-2.74-9.254-2.74-9.187 0-15.498 7.47-15.498 19.236 0 12.283 7.233 19.533 14.643 19.533 2.326 0 4.23-.296 6.065-1.26V29.002h8.646zM326.622 7.842h-14.406v14.203h14.102V29h-14.102v16.724h17.046v6.954H303.58V.887h23.044v6.954zM366.522 26.042c0-9.542-3.612-18.645-12.199-18.645-8.578 0-12.19 9.102-12.19 18.645 0 9.915 3.181 20.125 12.19 20.125 9.018 0 12.2-10.21 12.2-20.125m-33.585 0c0-14.5 9.069-26.038 21.386-26.038 12.317 0 21.394 11.54 21.394 26.038 0 15.464-8.222 27.52-21.394 27.52-13.18 0-21.386-12.056-21.386-27.52M158.022 122.392l-1.666-5.76c-1.15-.593-.533-1.862-1.15-2.742-.12-2.927-3.038-6.835-2.936-9.567v-.296c-1.675-3.122-1.05-6.734-2.614-9.864-2.927-6.252-6.692-28.136-8.68-30.386-.829-.381-1.666-.686-2.605-.686h-.423c-1.887.889-3.545 2.352-4.078 4.213.626.872-.101 2.234.736 3.122.516 2.64 4.39 17.68 5.643 19.144 0 1.37.313 2.546.524 3.917 1.244 1.455.838 3.603 1.98 5.067-.203 3.519 2.098 6.556 2.098 9.965 0 2.741-2.716 1.565-3.24 3.52 0 .49-.11.98-.11 1.463 0 .49.212.786.736.981.102 0 .211.195.211.288 0 .296-.524.49-.735.592l-.102.389c0 1.463 2.09 1.074 2.09 2.538 0 3.815 2.402 1.86 2.817 4.103 3.45 2.935 3.036 6.835 4.601 10.456.423.972 3.765 5.76 4.5 5.76 1.667 0 2.606-3.417 4.594-3.806.313-.787.525-1.667.525-2.547 0-2.732-2.098-5.566-2.098-7.808 0-.685.211-1.666-.618-2.055M128.122 110.492c-1.362-1.269-1.988-3.122-1.988-4.881 0-4.111 7.86-16.504 7.86-19.829 0-2.047-1.151-4.01-1.464-6.057-.94-1.658-.728-3.604-1.878-5.076-.313-.101-.415-.101-.736-.101-.313 0-.626.194-.838.49.11 1.862-1.878 2.834-2.19 4.585-1.041 4.501-11.2 29.11-11.2 32.24-1.676 2.241-1.058 5.278-2.623 7.613-.415 1.963-.516 4.204-1.768 5.964-.525 2.25-1.472 4.297-1.565 6.64-1.472 1.566-.533 3.917-.948 5.77.22 1.176 1.675.871 2.513 1.557 1.768-.102 3.13-1.557 4.077-2.834 1.557-.483 1.667-2.242 1.768-3.511 1.16-.787 1.887-8.299 6.379-10.363.837-1.26 2.3-1.76 3.764-1.76.423-.389 8.756-.05 8.756-.829 0-2.648-.347-5.592-.347-8.23 0-.585-6.734-1.49-7.571-1.388" fill="#FFF"/>
    <path d="M158.022 122.392l-1.666-5.76c-1.15-.593-.533-1.862-1.15-2.742-.12-2.927-3.038-6.835-2.936-9.567v-.296c-1.675-3.122-1.05-6.734-2.614-9.864-2.927-6.252-6.692-28.136-8.68-30.386-.829-.381-1.666-.686-2.605-.686h-.423c-1.887.889-3.545 2.352-4.078 4.213.626.872-.101 2.234.736 3.122.516 2.64 4.39 17.68 5.643 19.144 0 1.37.313 2.546.524 3.917 1.244 1.455.838 3.603 1.98 5.067-.203 3.519 2.098 6.556 2.098 9.965 0 2.741-2.716 1.565-3.24 3.52 0 .49-.11.98-.11 1.463 0 .49.212.786.736.981.102 0 .211.195.211.288 0 .296-.524.49-.735.592l-.102.389c0 1.463 2.09 1.074 2.09 2.538 0 3.815 2.402 1.86 2.817 4.103 3.45 2.935 3.036 6.835 4.601 10.456.423.972 3.765 5.76 4.5 5.76 1.667 0 4.12-2.207 6.109-2.596.304-.787-.99-2.877-.99-3.757 0-2.732-2.098-5.566-2.098-7.808 0-.685.211-1.666-.618-2.055M130.822 108.192c-1.37-1.269-4.686-.431-4.686-2.19 0-4.104 7.859-16.505 7.859-19.83 0-2.047-1.151-4.001-1.464-6.057-.939-1.658-.727-3.612-1.878-5.076-.313-.101-.415-.101-.736-.101-.313 0-.626.194-.837.49.11 1.861-1.878 2.834-2.191 4.594-1.523 6.54-11.2 31.165-11.2 32.23-1.675 2.251-1.058 5.271-2.623 7.623-.414 1.954-.516 4.196-1.768 5.955-.524 2.25-1.472 4.298-1.565 6.65-1.472 1.556-.533 3.9-.947 5.76.22 1.176 1.675.88 2.512 1.565 1.768-.11 3.13-1.565 4.078-2.834 1.556-.49 1.666-2.25 1.768-3.519 1.159-.786 1.886-8.298 6.378-10.354.838-1.269 5-4.458 6.455-4.458.423-.38 8.764-.05 8.764-.829 0-2.64-.347-5.592-.347-8.23 0-.593-6.742-1.49-7.571-1.388" fill="#FFF"/>
    <path d="M184.022 133.692c.635-.508.804-1.48 1.015-2.2.432-1.437 1.548-1.124 2.893-1.167 2.301-.076 4.594.28 6.895.119 3.451-.246 5.55-2.014 8.366-3.816 1.98-1.26 4.052-1.057 5.651-2.935.144-.16 2.707-2.758 2.183-3.282-.152-.144 2.013-5.702 2.259-7.123 1.277-7.352 1.886-13.688 1.277-21.208-.245-3.046-.626-5.592-2.191-8.214-.787-1.32-1.201-2.64-2.14-3.909-.017-.034-.872-1.548-.973-1.59-1.574-.719-1.337-1.058-2.216-2.216-.99-1.312-4.772-3.046-6.15-3.122-2.877-.144-5.702-.398-8.57-.364-1.624.034-3.037.034-4.653.246-2.724.363-1.328-3.655-1.116-5.508.152-1.345.186-3.231.566-4.534.483 0 1.286.229 1.6-.237.117-.186 1.556.313 1.818.339 2.682.245 5.465.651 8.172.499 1.455-.085 2.91.871 4.5 1.43 2.454.87 4.958 1.657 6.929 2.842 1.218.719 1.31 2.047 3.096 1.768.905 1.963 3.054 2.868 4.424 4.424 1.675 1.904 2.318 4.915 3.993 6.65.634.66.186 2.25.44 3.087.567 1.903 1.709 3.46 1.92 5.473.203 1.946.195 3.909.415 5.854.118.982-.127 3.824.558 4.51.203.202-.237 4.576-.237 5.371.012 1.438-.144 2.85-.321 4.28-.085.677-.643 2.936-.567 3.291.17.838-.93 3.689-1.328 5.304-.178.72-1.328 2.504-1.328 2.657.033.287.177.44.448.448-.584 1.616-2.538 3.375-2.885 5.11-.262 1.328-2.817 2.639-2.876 3.739-.06 1.184-2.572 1.573-3.096 2.216-.592.72-1.184 1.776-2.064 1.996-1.15.288-2.75.457-2.817 1.988-.998-1.082-4.847.356-4.856 1.768-1.108-.253-3.714.364-4.433 1.32-.922-.457-4.399-.457-5.278.237-.195.152-1.565.203-1.794.211-.897.042-3.976.068-4.576-.558-.423-.44-3.401-4.83-2.953-5.194" fill-rule="evenodd" fill="#FFF"/>
    <path d="M180.122 96.692c0-3.976-.406-7.952-.406-11.826 0-.998.102-7.055.406-7.453-.592-3.079.592-6.361-.101-9.449.101-.296.296-.694.296-1.091 0-1.295-1.193-2.284-1.396-3.579l-.592-.287h-.203c-1.388-.203-1.49 1.184-2.276 1.184-.397 0-.803-.101-1.1-.296-1.886 1.988-3.629 4.771-3.629 7.453 0 8.34.398 16.699.398 25.048 0 3.18-.694 6.463-.305 9.542-.296.888.203 1.582.203 2.386 0 .287-.101.592-.203.888.601 6.86.203 20.176.102 27.13-.102 1.294 3.637 2.681 4.627 3.19 1.59-.509 1.988.092 3.376.194.499-.296.803-.796 1.09-1.295.11-1.387.11-2.783.11-4.17 0-10.134-.803-20.37-.803-30.513 0-2.284.406-4.771.406-7.055" fill="#FFF"/>
    <path d="M180.122 96.692c0-3.976-.406-7.952-.406-11.826 0-.998.102-7.055.406-7.453-.592-3.079.592-6.361-.101-9.449.101-.296.296-.694.296-1.091 0-1.295-1.193-2.284-1.396-3.579l-.592-.287h-.203c-1.388-.203-1.49 1.184-2.276 1.184-.397 0-.803-.101-1.1-.296-1.886 1.988-3.629 4.771-3.629 7.453 0 8.34.398 16.699.398 25.048 0 3.18-.694 6.463-.305 9.542-.296.888.203 1.582.203 2.386 0 .287-.101.592-.203.888.601 6.86.203 20.176.102 27.13-.102 1.294 3.637 2.681 4.627 3.19 1.59-.509 1.988.092 3.376.194.499-.296.803-.796 1.09-1.295.11-1.387.11-2.783.11-4.17 0-10.134-.803-20.37-.803-30.513 0-2.284.406-4.771.406-7.055M278.122 61.692c-1.573.804-3.493 1.802-3.612 3.494-2.174 2.994-2.174 6.59-3.02 9.88-.846.601-1.083 1.498-1.083 2.403-2.53 2.8-1.446 6.683-3.502 9.678-.237 2.098-1.447 3.891-1.565 5.997-2.775 3.19-1.557 10.481-4.94 13.383-.728.093-1.76 1.65-2.369 1.65-1.311 0-2.335-1.861-3.18-2.648-2.048 0-2.657-4.695-3.85-5.693-.127-1.7-1.937-2.8-2.174-4.5-.61-3.088-2.166-5.99-3.138-8.984-1.684-1.997-1.32-4.594-2.166-6.895-1.083-1.091-.728-2.69-1.692-3.79.364-1.497-.592-2.791-.592-4.187v-.406c-.254-.203-.728-.6-.728-.897l.11-.398c-.6-.296-.719-.795-.719-1.294 0-.6.119-1.303-.482-1.7.118-1.904-2.41-4.695-4.822-4.695-2.648 0-4.458 2.791-4.458 4.788 0 3.595 3.494 11.488 4.585 15.48.474.305.72.804.72 1.194 0 .702-.12 1.404.481 1.895-.118 2.402 5.178 17.18 6.269 20.675-.245 1.006.846 1.7.846 2.69 0 .203-.127.507-.246.71 1.692 1.396.61 3.587 1.938 5.186 0 1.201 1.2 2.2 1.082 3.392 1.202.998.229 2.597 1.32 3.596.728 3.603 2.293 6.996 3.012 10.59 1.201.796 1.573 7.09 3.739 7.09.482 0 .964-.406.964-.897 0-.102 0-.203-.118-.305.118-.194.482-.6.727-.6.855 0 .119 1.802 1.565 1.802.965 0 1.93-.804 2.53-1.396-.118-2.2 2.41-3.604 2.41-5.693.847-1.303.601-2.902 1.574-4.095 0-.194.11-.499.11-.795 0-.609-.237-1.201.728-1.413 1.582-1.886 1.2-4.289 2.529-6.285.364-2.09 4.94-18.67 6.032-19.668-.118-1.895 1.446-3.392 1.328-5.194v-.296c1.692-2.394 1.573-5.693 2.893-8.29 1.328-2.496 6.032-17.174 6.032-19.965 0-4.89-3.858-3.299-5.068-4.593M319.022 129.292c-1.379.694-1.421-.195-2.8-.195-.787 0-2.86.39-3.747.593l-.796-.398c-.499 0-.99.5-1.48.5-.288 0 10.278-.102 10.092-.204-1.886.49-2.411-.49-4.187.102-1.278-.593-2.767-.203-4.146-.398-.693.296-1.387.398-2.08.398-1.676 0-3.258-.796-4.933-.796-.499 0-1.082.102-1.581.305-.787-.5-1.878-.702-2.268-1.683-1.776-.398-.896-2.37-1.878-3.359-.101-.99-.397-1.98-.397-2.96 0-.491.101-.982.397-1.481-.203-1.193.398-2.377-.101-3.46 0-.296.203-.694.203-.981 0-1.185-.694-2.369 0-3.553-.305-1.092.389-2.97.685-4.052.888-2.97 7.994-2.868 10.473-2.868 4.239 0 6.226.787 9.974-.398 1.489-.397 2.876-2.267 2.97-3.849-2.073-2.47-.195-2.96-4.645-5.135-1.777-.194-3.553-.194-5.33-.194-3.755 0-7.02.888-9.982 0-1.184-.296-4.145-2.767-4.838-3.756-1.185-1.777-.889-6.81-1.48-9.28-.102-.593-.195-1.185-.195-1.777 0-1.97.685-3.95 1.184-5.828 2.96-2.758 7.106-2.961 10.862-2.758.288-.102.787-.305.981-.305 6.023 0 .22.398 6.243-.194.889.592 1.777-.195 2.767-.195.296 0 .397 0 .592.102 1.083-.796 3.553-.5 3.553-2.276 0-1.683-.787-1.184-1.675-1.87 0-.211.093-.397.397-.397.297 0 .787.093 1.075-.203-.872-4.247-1.87-1.379-2.758-2.961-1.675 0-3.257-.49-4.94-.49-.491 0-.982 0-1.388.092-2.36-.693 4.035-.389 1.37-.389-5.236 0-10.472.39-15.7.39-6.328 0-7.31-.491-8.883 6.031.685 6.412.685 16.877.685 23.602 0 13.518-.947 28.4-.947 41.917 0 2.572 2.132 3.697 5.296 3.697.49 0 .88 0 1.285-.195 4.738 1.48 13.324 1.083 18.46 1.083 1.581 0 2.503.102 4.085-.195.593.195-9.694.195-9.094.195 2.166 0 4.442-.592 6.607-.592.99 0 .635.592 1.616 0 .888.694 1.988-.195 2.96.101.796-.49 2.674-.896 2.674-2.174v-.296c.888-.194 1.286-.99 1.286-1.98 0-1.082-.398-2.072-.702-3.155-1.574-1.48-3.748-1.776-5.82-1.878M391.422 122.892c0-6.776-.372-13.544-.372-20.32 0-2.69-.626-5.972-.127-8.57-.118-.194-.245-.49-.245-.786 0-.804.507-1.497.127-2.293 0-5.777-.635-11.649-.635-17.325 0-1.894.753-3.688.753-5.481 0-1.59-.753-2.987-2.385-3.883-.127-.398-.373-.897-.872-.897-1.886.804-3.147-.296-4.906.305-1.125.896-2.758 1.886-2.758 3.282 0 4.78-.254 10.854.626 15.54.262.287.262.49.262.888 0 5.88.119 11.945.119 17.824 0 .694-.254 1.295-.889 1.692l-1.133-.194c-1.878.406-3.384-.102-5.262-.102l-.88.102c-2.013-.406-2.14-2.191-3.646-2.894-1.133-1.488-2.64-2.884-4.018-4.28.127-1.794-5.025-8.561-6.658-9.957-1.379-3.282-5.152-5.676-6.158-9.052-.626-.507-5.27-6.581-5.27-6.776-1.769-1.2-2.14-4.88-4.78-4.88-1.125 0-.626 1.691-2.132 1.691-.254 0-.49-.304-.49-.397 0-.398.617-.6.617-.999 0-.296-1.134-1.691-1.633-1.691-1.895 0-3.4 3.383-3.4 4.576 0 .804.507 1.497.507 2.191 0 .11 0 .203-.127.305.626.998.127 2.19.762 3.18-.381 1.1-.5 2.293-.5 3.494V88.14c0 2.081.364 4.18.364 6.268 0 2.885-.363 5.871-.363 8.866 0 7.859.617 15.735.617 23.594 0 2.292-1.134 10.66 1.514 11.556 1.125.998 2.758 1.497 4.39 1.497 3.14 0 3.266-2.3 5.026-3.79.135-1.395.253-2.791.253-4.187 0-6.268-1.006-12.546-1.006-18.712 0-.71.626-1.193.626-1.895 0-.304-.245-.6-.626-.795.753-3.19-.127-6.378 2.005-9.263.507-2.293 3.646-1.59 5.405-2.69 2.259.499 3.147 2.588 4.653 3.883.753 2.3 3.891 3.688 4.264 6.074 3.646 2.69 5.151 7.08 8.036 10.058.508 2.986 10.431 15.642 12.816 18.129.5 1.497 2.005 2.182 3.52 2.783 1.623-.093 2.639-1.193 4.009-1.794a3.01 3.01 0 0 0 .761-1.988c0-1.793-.998-3.586 0-5.38-.372-2.487-.761-4.974-.761-7.461M447.422 66.892l.415-.5v-.507c0-1.903-2.64-2.2-3.866-3.003-3.756.102-10.27.5-14.026.5-.812 0-1.624-.102-2.343-.204-.897.305-1.718.305-2.631.305-1.92 0-3.96-.305-5.888.296-.702-.195-1.616-.5-2.327 0-3.045-.093-6.09.296-9.136-.093-.702.296-1.615.296-2.436.296-1.717 0-3.443-.296-5.27-.102-2.64 1.506-4.873 2.208-4.873 5.922 0 2.301 1.421 2.699 3.045 3.798h1.93c6.902.212 8.662-1.1 15.15 2.411 1.125 1.608.305 3.511.71 5.313-.405 1.303.102 2.808-1.014 3.917 0 4.5.812 9.017.812 13.628 0 1.1-.305 1.708.406 2.707-.406 2.504-.508 7.918 0 10.524-.61 2.41 0 5.016-.406 7.52.617 2.005 0 4.111 0 6.218 0 3.714.304 9.83 1.117 13.239.905.397 1.218 1.506 2.123 1.793 4.77-.194 7.004-.896 7.004-6.108 0-4.018.263-8.12.263-12.13 0-7.123-.297-14.33-.297-21.454l.102-7.216c.719-.905-.305-1.81-.305-2.715l.102-.398.101-5.515c-.304-.296-.609-.804-.609-1.201 0-1.1.711-2.208-.203-3.206 1.633-4.112-.473-7.716 5.516-7.716 1.726 0 7.605.296 9.322.296.72 0 1.328 0 1.93-.101 1.522.499 2.435-1.1 3.857-1.007H446c1.015-.998 2.64-1.903 2.64-3.502 0-.203 0-.5-.093-.804.093-.702-.914-.6-1.126-1.2M500.522 78.992c0-.203.118-.398.474-.499-.355-2.47-.592-4.94-.592-7.419 0-2.073 1.167-7.41-2.893-7.41-1.16 0-2.2.592-3.359.693-3.832 1.878-2.901 9.89-2.901 13.248 0 5.144-.229 10.287-.229 15.43 0 4.84.347 9.585-.228 14.34.228.794-.237 1.378-.237 2.173 0 .296.118.49.347.787-.347 2.572.583 7.817-.465 9.89.583 5.642-5.102 8.805-7.885 13.357 0 .888-1.15 1.091-1.616 1.675-.118.102-.355.203-.465.203-.93 0-.93-1.091-1.852-1.091 0-.99 1.269-1.286 2.08-1.675l-.346-.694c-1.514.296-2.09.093-3.595-.102-1.506.889-2.902-.101-4.4.491-3.02-.685-5.227-2.86-8.12-4.052-1.388-1.286-1.743-2.97-2.09-4.644-1.159-1.193-1.04-2.876-1.734-4.255-.118-2.174-.584-4.45-.584-6.726 0-1.083.118-2.275.465-3.358l1.15-.296c-.227-.694-.456-1.388-.338-2.183v-.49c-.465-.694-.693-1.388-.693-2.174 0-1.286.457-2.572.457-3.96 0-.98-.576-1.878-.576-2.867 0-.99.347-2.081.347-3.063 0-.397 0-.888-.347-1.285.347-.694.119-10.287-.118-10.88 1.04-1.387-.347-3.07.465-4.644-.465-2.182.466-4.255.466-6.437 0-.787-.237-1.675-.576-2.37.229-.295.576-.794.576-1.183 0-.99-1.05-1.785-1.506-2.665-1.16.093-2.09-.99-3.249-.99-4.754 0-4.517 6.32-4.517 8.891l-.127 11.573c0 .195 0 .49-.22.685 1.032 5.245-.702 10.591.575 15.828-.355 1.184-.575 2.47-.575 3.663 0 3.858-.127 7.614-.127 11.37 0 5.042.93 10.287 3.02 15.032 2.437 1.785 3.367 4.839 6.489 6.032 1.159 1.98 4.526 1.582 5.338 3.663 1.734.101 3.358.685 5.1.981 1.388 1.193 3.596.6 5.33.795 3.012-.888 6.844-.397 9.052-2.673 4.982-1.48 14.026-10.278 14.026-14.829l-.118-.398c2.207-3.358 1.624-10.185 1.624-14.144 0-2.165 0-4.348-.356-6.623.127-.491.356-1.092.356-1.582 0-.398-.11-.787-.356-1.083.356-.6.466-.99.246-1.582.11-.694.22-1.294.22-1.98 0-6.031-.812-12.368-.812-18.492M523.622 118.592c.457-2.597-.085-4.991-.085-7.487 0-2.504 0-5.295.178-7.698 0-1.192-.457-2.394-.457-3.493 0-1.997.457-3.993.093-5.998.186-1.1.27-2.293.27-3.494 0-2.496-.27-4.991-.27-7.495 0-2.09.448-4.28.448-6.285 0-.804-.541-1.7-.541-2.598 0-.304 0-.6.186-.905-.457-2.09.178-4.187.178-6.294 0-.592 0-1.192-.178-1.793l-2.555-.203c-.541-.5-.541-1.599-1.269-1.692-2.182 1.599-4.187-2.698-5.82 4.788-.093.6-.727 1.007-.727 1.6 0 1.107.727 2.503.727 3.899 0 1.996-.457 8.984.085 10.388-.541 2.394-.355 5.693-.355 8.197 0 .49.27 1.091 0 1.497-.093 1.895-.28 3.79-.28 5.694 0 .998.094 1.996.187 2.994l-.28.702c0 .491.187.897.187 1.295 0 .194-.093.397-.186.6.457 7.589-.085 15.185-.178 22.773.178.195.364.796.364 1.1a.95.95 0 0 1-.27.694c-.094.803-.187 1.599-.187 2.3 0 1.997.457 4.095.457 6.092 0 2.504 2.732 4.399 5.008 4.297h.355c.82-.398 1.641-.702 2.462-.795.448-1.108 1.903-1.497 1.903-2.902 0-3.798.55-7.69.55-11.488 0-2.597-.177-5.194.28-7.79l-.28-.5zM546.822 115.892c-.981-1.692-1.243-5.236-1.895-7.436a1.87 1.87 0 0 1-.414-1.201c0-.897.414-1.599.414-2.496v-.203l2.183-2.394c0-1.895 2.698-2.402 3.612-3.206 2.377-2.09 2.487-9.128 2.902-12.326-.5-1.599.076-3.299.076-4.898 0-.693-.076-1.303-.33-1.895-.905-.896-.905-2.3-.905-3.595-1.726-3.9-3.866-7.893-7.081-10.092-.567-.998-4.027-2.496-5.008-2.496-.744 0-2.86.204-3.595-.101-1.396.6-7.944-.897-7.944 2.098 0 .406.085.803.085 1.193-.169.211-.253.406-.253.702 0 .71.583 1.201.499 1.903l.085.6c0 .897-.33 1.794-.33 2.69 0 .5 3.333 1 3.747 1.304 6.582-.999 11.65 3.46 11.742 12.35-.744.999-.524 2.8-.609 4.01-.99 1.396-1.827 6.751-1.827 6.751s-1.337 3.206-2.648 3.206c-.245 0-4.407.296-4.568.203-.338.195-.744.39-1.074.39-.982 0-1.71.16-2.877.11-4.305-.195-3.595 1.59-3.595 2.486 0 1.608.33 3.105.33 4.602 0 .491-.076.897-.152 1.396.575 2.293 5.71 1.202 6.954 2.504 2.8 2.995 2.571 2.005 4.22 5.397 2.14 4.4 9.442 24.406 12.157 24.406 4.898 0 6.1-.33 6.1-4.61 0-1.599-5.178-9.33-5.745-11.124-1.167-3.705-2.2-7.131-4.255-10.228M599.422 132.192c-1.396-1.48-1.962-1.785-3.79-1.878-1.218.685.263-.203-.964-.203-.694 0 .178.398-.6.6l1.996-.397c-.432 0-.871.5-1.311.5-.263 0-.432-.102-.61-.204-1.65.49-3.307-.499-4.872.102-1.134-.6-2.428-.203-3.655-.398-.6.296-1.218.398-1.827.398-1.48 0-2.868-.795-4.348-.795a3.56 3.56 0 0 0-1.387.296c-.703-.49-1.658-.694-2.014-1.675-1.556-.398-.778-2.369-1.65-3.359-.084-.99-.346-1.97-.346-2.952 0-.5.093-.99.347-1.489-.17-1.184.355-2.369-.085-3.451 0-.297.177-.694.177-.99 0-1.185-.609-2.369 0-3.553-.262-1.091.347-2.961.61-4.044.778-2.97 7.046-2.868 9.229-2.868 3.739 0 7.216.787 10.524-.397 1.31-.398 2.52-2.267 2.614-3.85-1.828-2.461-.17-2.96-4.095-5.126-1.565-.203-3.13-.203-4.695-.203-3.307 0-7.926.889-10.532 0-1.04-.296-3.654-2.758-4.263-3.747-1.05-1.777-.787-6.81-1.303-9.28-.093-.593-.178-1.185-.178-1.777 0-1.98.61-3.95 1.04-5.82 2.606-2.766 6.27-2.97 9.577-2.766.254-.102.694-.305.871-.305 5.304 0 2.792.406 8.096-.194.778.6 1.574-.195 2.445-.195.262 0 .347 0 .516.102.956-.796 3.138-.5 3.138-2.276 0-1.675-.702-1.184-1.48-1.87 0-.203.085-.397.347-.397.27 0 .693.101.964-.195-.795-4.246-1.658-1.387-2.445-2.969-1.472 0-2.876-.49-4.348-.49-.44 0 4.518 0 4.162.1-2.09-.693-4.441-.397-6.784-.397-4.61 0-9.221.398-13.84.398-5.566 0-9.128-.5-10.524 6.023.609 6.412.609 16.877.609 23.594 0 13.518.347 27.045.347 40.572 0 2.563 3.392 5.034 6.184 5.034.431 0 .778 0 1.125-.203 4.179 1.48 11.742 1.09 16.268 1.09 1.387 0 3.4.086 4.788-.202.524.203.956.203 1.48.203 1.912 0-1.472-.592.432-.592.871 0-.948.592-.077 0 .778.676.389-.203 1.26.093.694-.491 2.352-.889 2.352-2.175v-.296c.787-.194 1.134-.98 1.134-1.97 0-1.084-.347-2.073-.61-3.156" fill="#FFF"/>
</svg>
