<svg xmlns="http://www.w3.org/2000/svg" height="152.72" width="600" version="1.1" viewBox="0 0 158.75 40.406691">
 <g transform="translate(-102.05 -348.56)">
  <path d="m244.29 370.49v14.196h16.512v-14.196zm12.671 2.1572h1.7366v9.9374h-1.7366v-7.9823l-1.948 1.7658v-1.9554zm-8.0112 1.6873h1.8661v2.5607h2.4604v1.9499h-2.4604v2.5607h-1.8661v-2.5607h-2.4689v-1.9499h2.4689z" stroke-width=".18394" fill="#fff"/>
  <path d="m102.05 388.96h28.199v-40.407h-28.199zm4.0632-36.339h20.059v32.27h-20.059z" stroke-width=".19258" fill="#ffd800"/>
  <g stroke-width=".24044" fill="#fff">
   <path d="m179.78 354.48c2.384 0 3.3873 2.4667 3.3873 5.05 0 2.684-0.87915 5.4508-3.3873 5.4508-2.503 0-3.3847-2.7667-3.3847-5.4508 0-2.583 1.0007-5.05 3.3847-5.05m0 12.505c3.6691 0 5.9574-3.2657 5.9574-7.4546 0-3.9302-2.5287-7.0538-5.9574-7.0538-3.426 0-5.9523 3.1236-5.9523 7.0538 0 4.1889 2.2858 7.4546 5.9523 7.4546"/>
   <path d="m155.99 372.75v-1.8824h-6.4152v14.028h7.1338v-1.885h-4.7292v-4.5275h3.9302v-1.885h-3.9302v-3.8475h4.0105z"/>
   <path d="m163.11 366.74h2.4046v-12.145h3.6871v-1.8824h-9.7792v1.8824h3.6871v12.145z"/>
   <path d="m220.57 376.26h-4.993v-5.3911h-2.3814v14.028h2.3814v-6.7513h4.993v6.7513h2.4046v-13.986h-2.4046z"/>
   <path d="m140.32 356.69c2.2677 3.6251 4.5301 6.834 6.8134 10.058h1.7454v-14.028h-1.9238l-0.0388 9.9989c-2.247-3.6044-4.5121-6.7927-6.7953-9.9989h-1.7428v14.028h1.9264l0.0155-10.058z"/>
   <path d="m155.11 355.48c0.56369 2.1668 1.0627 3.8708 1.5825 5.7119h-3.2476c0.56109-1.841 1.1222-3.545 1.6652-5.7119m-2.2832 7.4366h4.2276l1.1041 3.8268h2.6814l-4.4681-14.028h-2.0039l-4.8509 14.028h2.0841l1.2256-3.8268z"/>
   <path d="m195.57 379.34c0.55852-1.8436 1.1222-3.5477 1.6626-5.7092 0.56109 2.1616 1.0627 3.8656 1.5825 5.7092h-3.245zm0.9231-8.476-4.8509 14.028h2.0841l1.2204-3.8268h4.2303l1.1015 3.8268h2.6864l-4.4707-14.028h-2.0013z"/>
   <path d="m189.14 356.69c2.2651 3.6251 4.5301 6.834 6.8134 10.058h1.7454v-14.028h-1.9212l-0.0414 9.9989c-2.2444-3.6044-4.5121-6.7927-6.7977-9.9989h-1.7428v14.028h1.9264l0.0181-10.058z"/>
   <path d="m217.5 364.86h-4.7499v-12.145h-2.384v14.028h7.1339v-1.8824z"/>
   <path d="m236.08 383.13c-2.3246 0-4.2897-1.9651-4.2897-5.293 0-3.1856 1.7841-5.2077 4.2303-5.2077 0.91794 0 1.8824 0.41889 2.4616 0.78088l0.76537-1.7066c-0.82485-0.55852-1.9832-1.0808-3.227-1.0808-4.1913 0-6.777 3.3486-6.777 7.1728 0 4.1293 2.609 7.3356 6.7383 7.3356 1.161 0 2.441-0.45768 3.1649-0.9593l-0.66453-1.7454c-0.61798 0.40079-1.4816 0.70332-2.4021 0.70332"/>
   <path d="m185.51 372.75h1.0653c1.4221 0 2.2211 0.82226 2.2211 2.2651 0 1.8824-1.1429 2.7254-2.2832 2.7821-0.24046 0.0207-0.80157 0.0439-1.0033 0.0646v-5.112zm-2.4021 12.145h2.4021v-5.2904h1.0834l2.2625 5.2904h2.7461l-2.8235-5.8126c1.5437-0.81967 2.4253-2.485 2.4253-4.1656 0-2.728-1.6652-4.0492-4.3517-4.0492h-3.7441v14.028z"/>
   <path d="m225.27 384.89h2.384v-14.028h-2.384z"/>
   <path d="m203.93 355.48c0.5611 2.1668 1.0627 3.8708 1.585 5.7119h-3.2476c0.56109-1.841 1.1222-3.545 1.6626-5.7119m-2.2832 7.4366h4.2276l1.1015 3.8268h2.684l-4.4681-14.028h-2.0014l-4.8533 14.028h2.0867l1.223-3.8268z"/>
   <path d="m178.5 382.79c-0.49904 0.26116-1.0394 0.34389-1.6833 0.34389-2.0608 0-4.0673-1.9651-4.0673-5.293 0-3.1856 1.7454-5.2101 4.3077-5.2101 0.92569 0 1.9264 0.34131 2.5703 0.7421l0.77831-1.6652c-0.80415-0.59989-2.1048-1.0808-3.408-1.0808-4.2096 0-6.8107 3.3486-6.8107 7.1728 0 4.1293 2.6013 7.3332 6.7306 7.3332 1.3653 0 2.7098-0.35684 3.9898-0.85848v-5.792h-2.4073v4.3077z"/>
   <path d="m172.36 352.72h-2.3866v14.028h2.3866z"/>
   <path d="m207.14 377.8c-0.23789 0.0181-0.81709 0.0388-1.0033 0.0569v-5.1043h1.086c1.404 0 2.203 0.81965 2.203 2.2651 0 1.8824-1.1429 2.7228-2.2858 2.7821m0.3413-6.9324h-3.7468v14.028h2.4021v-5.2904h1.086c2.8651 0 4.6104-2.3246 4.6104-4.6879 0-2.7254-1.6678-4.0492-4.3517-4.0492"/>
   <path d="m163.41 383.13c-2.5056 0-3.3873-2.7667-3.3873-5.4532 0-2.5806 1.0033-5.0473 3.3873-5.0473s3.3873 2.4667 3.3873 5.0473c0 2.6864-0.88432 5.4532-3.3873 5.4532m0-12.507c-3.426 0-5.9497 3.1262-5.9497 7.0538 0 4.189 2.2832 7.4546 5.9497 7.4546s5.9497-3.2657 5.9497-7.4546c0-3.9276-2.5237-7.0538-5.9497-7.0538"/>
   <path d="m143.4 385.13c1.3653 0 2.7074-0.35941 3.9899-0.86104v-5.7893h-2.4046v4.3077c-0.50163 0.25856-1.042 0.3413-1.6833 0.3413-2.0634 0-4.0699-1.9651-4.0699-5.2904 0-3.1856 1.7454-5.2101 4.3104-5.2101 0.9231 0 1.9238 0.33872 2.565 0.74208l0.78087-1.6678c-0.80307-0.60133-2.1062-1.0798-3.407-1.0798-4.2096 0-6.8134 3.346-6.8134 7.1702 0 4.1293 2.6037 7.3356 6.7306 7.3356"/>
  </g>
 </g>
</svg>
