<svg width="600" height="188.69" version="1.1" viewBox="0 0 158.75 49.924057" xmlns="http://www.w3.org/2000/svg">
 <g transform="translate(-26.458 -123.87)" fill="#fff">
  <path d="m73.244 150.02c0-2.0554-1.1089-2.593-2.9684-2.593h-2.9739v5.438h2.9739c1.7698 0 2.9684-1.0137 2.9684-2.8451m5.4716 14.763h-5.0292l-3.7635-8.0926h-2.5258v8.0926h-4.6821v-21.086h7.3647c4.6205 0 7.6558 1.5177 7.6558 6.575 0 2.565-1.0137 4.6149-3.478 5.5669l4.458 8.944z"/>
  <path d="m45.203 123.87h-2.4978v19.82h2.4978z"/>
  <path d="m56.014 156.94v-5.438c0-2.5594-1.1705-3.8251-3.7635-3.8251h-2.2402v13.122h2.2402c2.593 0 3.7635-1.2993 3.7635-3.8587m4.5532 0.44244c0 5.3428-2.7834 7.3983-7.9024 7.3983h-7.4655v-21.086h7.4655c4.9284 0 7.9024 2.1786 7.9024 7.3311v6.3566z"/>
  <path d="m42.705 164.78v-21.086h-4.458v13.116l-7.1126-13.116h-4.6763v21.086h4.4524v-12.299l6.8326 12.299h4.962z"/>
  <path d="m45.203 164.78h-2.4978v9.0112h2.4978z"/>
  <path d="m91.053 146.56c-0.83448-0.14561-1.1593-0.17921-1.6969-0.17921-1.4281 0-1.8426 0.50965-1.8426 2.2626v0.73925h2.8562v2.621h-2.8562v12.786h-3.3602v-12.786h-2.1394v-2.621h2.1394v-0.80087c0-3.3883 1.5737-5.0573 4.7604-5.0573 0.89049 0 1.4841 0.0616 2.3466 0.24081l-0.20722 2.7946z"/>
  <path d="m102.03 160.15c0 3.2092-1.8146 4.9676-5.1748 4.9676-3.3322 0-5.2028-1.8762-5.2028-5.2364v-5.4716c0-3.5674 1.753-5.3542 5.2364-5.3542 3.5338 0 5.1412 1.6354 5.1412 5.2084v3.7468h-7.079v2.4082c0 1.1873 0.68326 1.8426 1.9378 1.8426 1.2769 0 1.8089-0.62165 1.8089-2.1114v-0.23522h3.3322v0.23522zm-3.2986-6.3622c0-1.2825-0.68326-2.0218-1.9042-2.0218-1.1929 0-1.8762 0.73925-1.8762 2.0218v1.5737h3.7804v-1.5737z"/>
  <path d="m111.75 152.86c-2.173 0.11761-3.0634 0.62725-3.8362 2.229-0.17922 0.35845-0.26882 0.62726-0.26882 0.71688v8.9776h-3.3602v-15.401h3.2147v2.4642c1.2489-1.9938 2.173-2.5818 4.2508-2.7946v3.8084z"/>
  <path d="m120.2 164.79v-10.887c0-1.1873-0.38643-1.7194-1.3049-1.7194-0.77846 0-1.4617 0.35283-2.2346 1.1257v11.481h-3.3602v-15.407h3.0356l0.14562 1.4281c1.3385-1.3049 2.2626-1.753 3.5116-1.753 2.2906 0 3.5674 1.4281 3.5674 3.9876v11.744h-3.3602z"/>
  <path d="m132.27 153.28c0-1.1313-0.53765-1.6354-1.7866-1.6354-1.0697 0-1.6354 0.47604-1.6354 1.3665 0 0.95209 0.68886 1.6073 2.7387 2.649 3.0356 1.5457 4.1947 2.9123 4.1947 4.934v0.42004c0 2.4978-2.0274 4.0995-5.2364 4.0995-3.2986 0-5.3206-1.6354-5.3206-4.3125v-0.62165h3.3547v0.41444c0 1.3665 0.59926 1.9658 1.9938 1.9658 1.1873 0 1.7866-0.47605 1.7866-1.4561 0-1.0137-0.65525-1.669-2.6771-2.7107-2.9739-1.5177-4.0773-2.8506-4.0773-4.9956v-0.35843c0-2.5258 1.7866-3.954 4.9676-3.954 3.125 0 4.9395 1.4897 4.9395 4.0156v0.62164h-3.2428v-0.44243z"/>
  <path d="m147.74 160.15c0 3.2092-1.8146 4.9676-5.1748 4.9676-3.3322 0-5.2084-1.8762-5.2084-5.2364v-5.4716c0-3.5674 1.7585-5.3542 5.2364-5.3542 3.5396 0 5.1467 1.6354 5.1467 5.2084v3.7468h-7.079v2.4082c0 1.1873 0.68326 1.8426 1.9322 1.8426 1.2825 0 1.8146-0.62165 1.8146-2.1114v-0.23522h3.3322v0.23522zm-3.3044-6.3622c0-1.2825-0.68326-2.0218-1.9042-2.0218-1.1873 0-1.8706 0.73925-1.8706 2.0218v1.5737h3.7748v-1.5737z"/>
  <path d="m157.01 164.79v-11.005c0-1.0417-0.44243-1.5737-1.3105-1.5737-0.73925 0-1.4225 0.32484-2.3746 1.0977v11.481h-3.3602v-20.671h3.3602v6.3397c1.4561-0.98569 2.4698-1.3721 3.7132-1.3721 2.2346 0 3.3322 1.3721 3.3322 4.1331v11.571h-3.3602z"/>
  <path d="m172.95 160.15c0 3.2092-1.8146 4.9676-5.1748 4.9676-3.3322 0-5.2028-1.8762-5.2028-5.2364v-5.4716c0-3.5674 1.753-5.3542 5.2364-5.3542 3.5338 0 5.1412 1.6354 5.1412 5.2084v3.7468h-7.079v2.4082c0 1.1873 0.68885 1.8426 1.9378 1.8426 1.2769 0 1.8146-0.62165 1.8146-2.1114v-0.23522h3.3266v0.23522zm-3.2986-6.3622c0-1.2825-0.68326-2.0218-1.9042-2.0218-1.1873 0-1.8762 0.73925-1.8762 2.0218v1.5737h3.7804v-1.5737z"/>
  <path d="m181.85 164.79v-10.887c0-1.1873-0.38642-1.7194-1.3105-1.7194-0.77285 0-1.4561 0.35283-2.229 1.1257v11.481h-3.3602v-15.407h3.0356l0.14561 1.4281c1.3385-1.3049 2.2626-1.753 3.5116-1.753 2.2906 0 3.5674 1.4281 3.5674 3.9876v11.744h-3.3602z"/>
 </g>
</svg>
