<?xml version="1.0" encoding="UTF-8" standalone="no"?>
<!-- Created with Inkscape (http://www.inkscape.org/) -->

<svg
   xmlns:dc="http://purl.org/dc/elements/1.1/"
   xmlns:cc="http://creativecommons.org/ns#"
   xmlns:rdf="http://www.w3.org/1999/02/22-rdf-syntax-ns#"
   xmlns:svg="http://www.w3.org/2000/svg"
   xmlns="http://www.w3.org/2000/svg"
   xmlns:inkscape="http://www.inkscape.org/namespaces/inkscape"
   version="1.0"
   width="708.66144"
   height="423.42358"
   id="svg5541">
  <metadata
     id="metadata27">
    <rdf:RDF>
      <cc:Work
         rdf:about="">
        <dc:format>image/svg+xml</dc:format>
        <dc:type
           rdf:resource="http://purl.org/dc/dcmitype/StillImage" />
      </cc:Work>
    </rdf:RDF>
  </metadata>
  <defs
     id="defs5543" />
  <g
     transform="translate(-94.806328,190.88718)"
     id="layer1">
    <g
       transform="matrix(10.494063,0,0,10.494063,4286.9658,4208.6524)"
       id="g5568">
      <path
         d="m -359.55272,-388.3425 -3.83816,0 -2.88464,-6.17966 -1.93115,0 0,6.17966 -3.57262,0 0,-16.11299 5.63653,0 c 3.52434,0 5.84172,1.15869 5.84172,5.02098 0,1.95528 -0.77246,3.53641 -2.65533,4.26059 l 3.40365,6.83142 z m -4.17611,-11.28513 c 0,-1.56905 -0.84487,-1.97942 -2.26909,-1.97942 l -2.28117,0 0,4.15196 2.28117,0 c 1.3518,0 2.26909,-0.77246 2.26909,-2.17254"
         inkscape:connector-curvature="0"
         id="path4165"
         style="fill:#00417c;fill-rule:evenodd;stroke:none" />
      <path
         d="m -387.05948,-404.45549 1.90701,0 0,-14.78533 -1.90701,0 0,14.78533 z"
         inkscape:connector-curvature="0"
         id="path4167"
         style="fill:#00417c;fill-rule:nonzero;stroke:none" />
      <path
         d="m -373.42076,-393.9911 c 0,4.07955 -2.12426,5.6486 -6.03483,5.6486 l -5.69688,0 0,-16.11299 5.69688,0 c 3.76573,0 6.03483,1.66561 6.03483,5.60032 l 0,4.86407 z m -3.47606,-0.33795 0,-4.16403 c 0,-1.95528 -0.89316,-2.92086 -2.87258,-2.92086 l -1.7139,0 0,10.02989 1.7139,0 c 1.97942,0 2.87258,-0.98971 2.87258,-2.945"
         inkscape:connector-curvature="0"
         id="path4169"
         style="fill:#00417c;fill-rule:evenodd;stroke:none" />
      <path
         d="m -387.05948,-388.3425 0,-16.11299 -3.41571,0 0,10.02989 -5.43135,-10.02989 -3.57262,0 0,16.11299 3.40365,0 0,-9.40226 5.21409,9.40226 3.80194,0"
         inkscape:connector-curvature="0"
         id="path4171"
         style="fill:#00417c;fill-rule:nonzero;stroke:none" />
      <path
         d="m -387.05948,-381.46279 1.90701,0 0,-6.87971 -1.90701,0 0,6.87971 z"
         inkscape:connector-curvature="0"
         id="path4173"
         style="fill:#00417c;fill-rule:nonzero;stroke:none" />
      <path
         d="m -377.59686,-379.00058 0,-5.56411 -0.65177,0 0,4.06747 c 0,0.43451 0.0121,0.55521 0.0362,0.72418 -0.0483,-0.19311 -0.0965,-0.31381 -0.31381,-0.74832 l -2.0277,-4.04333 -0.89316,0 0,5.56411 0.66384,0 0,-3.94678 c 0,-0.47072 0,-0.57934 -0.0362,-0.83281 0.0603,0.2414 0.18104,0.47072 0.37416,0.82074 l 2.00356,3.95885 0.84488,0"
         inkscape:connector-curvature="0"
         id="path4175"
         style="fill:#00417c;fill-rule:nonzero;stroke:none" />
      <path
         d="m -376.40197,-383.90086 0.73625,0 0,-0.86902 -0.73625,0 0,0.86902 z m 0.70004,4.90028 0,-4.30887 -0.63969,0 0,4.30887 0.63969,0"
         inkscape:connector-curvature="0"
         id="path4177"
         style="fill:#00417c;fill-rule:evenodd;stroke:none" />
      <path
         d="m -371.99654,-381.58349 -2.00357,0 c 0.0845,-0.89315 0.45865,-1.29145 1.06213,-1.29145 0.54314,0 0.94144,0.45865 0.94144,1.29145 z m 0.66383,1.61734 -0.54314,-0.28968 c -0.20518,0.49486 -0.49485,0.83281 -1.03799,0.83281 -0.73625,0 -1.0742,-0.50692 -1.08627,-1.64147 l 2.6674,0 0,-0.36209 c 0,-1.01385 -0.44658,-1.9915 -1.5932,-1.9915 -1.02592,0 -1.7501,0.72418 -1.7501,2.22082 0,1.4725 0.56728,2.30531 1.7501,2.30531 0.89316,0 1.32767,-0.47072 1.5932,-1.0742"
         inkscape:connector-curvature="0"
         id="path4179"
         style="fill:#00417c;fill-rule:evenodd;stroke:none" />
      <path
         d="m -367.76009,-380.05064 c -0.31381,0.38623 -0.60349,0.59141 -0.96558,0.59141 -0.6759,0 -1.03799,-0.5552 -1.03799,-1.66561 0,-1.12248 0.36209,-1.72596 1.01386,-1.72596 0.42243,0 0.68797,0.20518 0.98971,0.47071 l 0,2.32945 z m 0.63969,1.05006 0,-5.7693 -0.63969,0 0,1.89494 c -0.30174,-0.30174 -0.78453,-0.49486 -1.18283,-0.49486 -0.97764,0 -1.50871,0.7966 -1.50871,2.23289 0,1.42422 0.55521,2.20875 1.53285,2.20875 0.54313,0 0.86902,-0.2776 1.17076,-0.57935 l 0.0121,0.50693 0.61555,0"
         inkscape:connector-curvature="0"
         id="path4181"
         style="fill:#00417c;fill-rule:evenodd;stroke:none" />
      <path
         d="m -363.33053,-381.58349 -1.99149,0 c 0.0724,-0.89315 0.45865,-1.29145 1.05006,-1.29145 0.54313,0 0.94143,0.45865 0.94143,1.29145 z m 0.66383,1.61734 -0.54313,-0.28968 c -0.20519,0.49486 -0.49486,0.83281 -1.03799,0.83281 -0.72418,0 -1.0742,-0.50692 -1.0742,-1.64147 l 2.65532,0 0,-0.36209 c 0,-1.01385 -0.44657,-1.9915 -1.59319,-1.9915 -1.02592,0 -1.73803,0.72418 -1.73803,2.22082 0,1.4725 0.56727,2.30531 1.73803,2.30531 0.89315,0 1.33973,-0.47072 1.59319,-1.0742"
         inkscape:connector-curvature="0"
         id="path4183"
         style="fill:#00417c;fill-rule:evenodd;stroke:none" />
      <path
         d="m -359.43203,-382.71804 0,-0.68797 c -0.0604,0 -0.13276,0.0121 -0.21725,0.0121 -0.70004,0.0724 -0.96557,0.44658 -1.27939,0.97765 l 0,-0.89316 -0.62762,0 0,4.30887 0.63969,0 0,-2.59498 c 0.33795,-0.6759 0.72418,-1.01385 1.12248,-1.09834 0.1207,-0.0241 0.2414,-0.0241 0.36209,-0.0241"
         inkscape:connector-curvature="0"
         id="path4185"
         style="fill:#00417c;fill-rule:nonzero;stroke:none" />
      <path
         d="m -355.95597,-380.12306 c 0,-1.48457 -2.28116,-1.24317 -2.28116,-2.22082 0,-0.35002 0.26553,-0.5552 0.7966,-0.5552 0.66383,0 0.86901,0.5552 0.86901,0.5552 l 0.53107,-0.26553 c 0,0 -0.30175,-0.80867 -1.40008,-0.80867 -0.89316,0 -1.42422,0.43451 -1.42422,1.13455 0,1.43629 2.28116,1.26732 2.28116,2.23289 0,0.42244 -0.36209,0.65176 -0.90522,0.65176 -0.80867,0 -1.02592,-0.72418 -1.02592,-0.72418 l -0.53107,0.26553 c 0,0 0.25346,0.96558 1.55699,0.96558 0.91729,0 1.53284,-0.36209 1.53284,-1.23111"
         inkscape:connector-curvature="0"
         id="path4187"
         style="fill:#00417c;fill-rule:nonzero;stroke:none" />
      <path
         d="m -352.76958,-380.08685 c -0.36209,0.53106 -0.72418,0.63969 -1.11041,0.63969 -0.42243,0 -0.6759,-0.2776 -0.6759,-0.74832 0,-0.85694 1.13455,-1.01385 1.78631,-1.08627 l 0,1.1949 z m 0.62763,1.08627 0,-3.12604 c 0,-0.85695 -0.48279,-1.29146 -1.44836,-1.29146 -1.03799,0 -1.4725,0.70004 -1.54492,0.80867 l 0.49486,0.32588 c 0.0241,-0.0604 0.35002,-0.60348 1.02592,-0.60348 0.57934,0 0.84487,0.32588 0.84487,0.80867 l 0,0.32588 c -0.97764,0.12069 -2.43807,0.33795 -2.43807,1.60526 0,0.73625 0.45865,1.21904 1.1949,1.21904 0.5552,0 0.92936,-0.15691 1.26731,-0.59142 l 0.0121,0.519 0.59142,0"
         inkscape:connector-curvature="0"
         id="path4189"
         style="fill:#00417c;fill-rule:evenodd;stroke:none" />
      <path
         d="m -349.46249,-383.41808 c -1.30352,0 -1.68975,1.24318 -1.68975,2.34152 0,1.09834 0.41037,2.18461 1.67768,2.18461 0.61555,0 1.13455,-0.2414 1.42422,-0.78453 0.0724,-0.1207 0.13277,-0.28967 0.15691,-0.42244 l -0.59142,-0.21725 c -0.0604,0.50692 -0.45864,0.89315 -0.97764,0.89315 -0.88108,0 -1.01385,-1.02592 -1.01385,-1.70182 0,-0.6759 0.10863,-1.7501 1.01385,-1.7501 0.50693,0 0.85695,0.43451 0.92936,0.89315 l 0.61556,-0.1569 c -0.0241,-0.14484 -0.0845,-0.30174 -0.15691,-0.44658 -0.28967,-0.54313 -0.77246,-0.83281 -1.38801,-0.83281"
         inkscape:connector-curvature="0"
         id="path4191"
         style="fill:#00417c;fill-rule:nonzero;stroke:none" />
      <path
         d="m -343.91045,-379.00058 0,-2.90879 c 0,-0.80867 -0.10862,-1.4725 -1.15868,-1.4725 -0.56728,0 -1.25525,0.56728 -1.25525,0.56728 l 0,-1.95529 -0.63969,0 0,5.7693 0.63969,0 0,-3.31916 c 0,0 0.62762,-0.53106 1.12248,-0.53106 0.54313,0 0.65176,0.2776 0.65176,0.80867 l 0,3.04155 0.63969,0"
         inkscape:connector-curvature="0"
         id="path4193"
         style="fill:#00417c;fill-rule:nonzero;stroke:none" />
      <path
         d="m -340.01195,-380.12306 c 0,-1.48457 -2.29323,-1.24317 -2.29323,-2.22082 0,-0.35002 0.26553,-0.5552 0.7966,-0.5552 0.66383,0 0.86901,0.5552 0.86901,0.5552 l 0.53107,-0.26553 c 0,0 -0.30175,-0.80867 -1.40008,-0.80867 -0.89316,0 -1.42422,0.43451 -1.42422,1.13455 0,1.43629 2.28116,1.26732 2.28116,2.23289 0,0.42244 -0.36209,0.65176 -0.90522,0.65176 -0.80867,0 -1.02592,-0.72418 -1.02592,-0.72418 l -0.53107,0.26553 c 0,0 0.25346,0.96558 1.55699,0.96558 0.91729,0 1.54491,-0.36209 1.54491,-1.23111"
         inkscape:connector-curvature="0"
         id="path4195"
         style="fill:#00417c;fill-rule:nonzero;stroke:none" />
      <path
         d="m -336.70486,-381.58349 -1.99149,0 c 0.0724,-0.89315 0.45864,-1.29145 1.05006,-1.29145 0.54313,0 0.94143,0.45865 0.94143,1.29145 z m 0.66383,1.61734 -0.54313,-0.28968 c -0.19312,0.49486 -0.49486,0.83281 -1.03799,0.83281 -0.72418,0 -1.0742,-0.50692 -1.0742,-1.64147 l 2.65532,0 0,-0.36209 c 0,-1.01385 -0.44658,-1.9915 -1.59319,-1.9915 -1.02593,0 -1.73803,0.72418 -1.73803,2.22082 0,1.4725 0.56727,2.30531 1.73803,2.30531 0.89315,0 1.33973,-0.47072 1.59319,-1.0742"
         inkscape:connector-curvature="0"
         id="path4197"
         style="fill:#00417c;fill-rule:evenodd;stroke:none" />
      <path
         d="m -331.94941,-379.00058 0,-2.98121 c 0,-1.03799 -0.35002,-1.38801 -1.15869,-1.38801 -0.3983,0 -0.83281,0.21726 -1.29146,0.57935 l 0,-0.519 -0.61555,0 0,4.30887 0.63969,0 0,-3.31916 c 0.44658,-0.35002 0.84488,-0.53106 1.14662,-0.53106 0.44658,0 0.63969,0.20518 0.63969,0.77246 l 0,3.07776 0.6397,0"
         inkscape:connector-curvature="0"
         id="path4199"
         style="fill:#00417c;fill-rule:nonzero;stroke:none" />
      <path
         d="m -354.10931,-399.94144 -2.35358,0 0,-2.28116 0.2776,-0.0604 c 1.08627,-0.20519 1.68975,-0.49486 2.10012,-0.80867 0.20518,-0.15691 0.37416,-0.32588 0.53107,-0.53107 0.16897,-0.20518 0.32588,-0.42243 0.50692,-0.63969 l 0.10863,-0.14483 2.18461,0 0,13.15593 2.36565,0 0,2.88464 -8.11081,0 0,-2.88464 2.38979,0 0,-8.69016"
         inkscape:connector-curvature="0"
         id="path4201"
         style="fill:#de721b;fill-rule:nonzero;stroke:none" />
    </g>
  </g>
</svg>
