<?xml version="1.0" encoding="UTF-8" standalone="no"?>
<!-- Created with Inkscape (http://www.inkscape.org/) -->

<svg
   xmlns:dc="http://purl.org/dc/elements/1.1/"
   xmlns:cc="http://creativecommons.org/ns#"
   xmlns:rdf="http://www.w3.org/1999/02/22-rdf-syntax-ns#"
   xmlns:svg="http://www.w3.org/2000/svg"
   xmlns="http://www.w3.org/2000/svg"
   xmlns:inkscape="http://www.inkscape.org/namespaces/inkscape"
   version="1.0"
   width="708.66144"
   height="540.19092"
   id="svg5629">
  <metadata
     id="metadata21">
    <rdf:RDF>
      <cc:Work
         rdf:about="">
        <dc:format>image/svg+xml</dc:format>
        <dc:type
           rdf:resource="http://purl.org/dc/dcmitype/StillImage" />
      </cc:Work>
    </rdf:RDF>
  </metadata>
  <defs
     id="defs5631" />
  <g
     transform="translate(-323.19338,-12.604142)"
     id="layer1">
    <g
       transform="matrix(13.217986,0,0,13.217986,-3948.771,-6754.0563)"
       id="g5650">
      <path
         d="m 362.80591,542.9352 -3.81401,0 -2.84844,-6.13138 -1.91908,0 0,6.13138 -3.54848,0 0,-15.98022 5.58825,0 c 3.48813,0 5.79344,1.14661 5.79344,4.98476 0,1.93115 -0.76039,3.48814 -2.63119,4.21232 l 3.37951,6.78314 z m -4.15196,-11.18857 c 0,-1.55699 -0.83281,-1.96735 -2.25703,-1.96735 l -2.24496,0 0,4.11575 2.24496,0 c 1.3518,0 2.25703,-0.76039 2.25703,-2.1484"
         inkscape:connector-curvature="0"
         id="path4233"
         style="fill:#00417c;fill-rule:evenodd;stroke:none" />
      <path
         d="m 335.50434,526.95498 1.89494,0 0,-15.02673 -1.89494,0 0,15.02673 z"
         inkscape:connector-curvature="0"
         id="path4235"
         style="fill:#00417c;fill-rule:nonzero;stroke:none" />
      <path
         d="m 349.0465,537.32281 c 0,4.05541 -2.11219,5.61239 -5.98655,5.61239 l -5.66067,0 0,-15.98022 5.66067,0 c 3.72952,0 5.98655,1.65354 5.98655,5.55204 l 0,4.81579 z m -3.45193,-0.32588 0,-4.12782 c 0,-1.94322 -0.88108,-2.89672 -2.84844,-2.89672 l -1.70182,0 0,9.9454 1.70182,0 c 1.96736,0 2.84844,-0.98971 2.84844,-2.92086"
         inkscape:connector-curvature="0"
         id="path4237"
         style="fill:#00417c;fill-rule:evenodd;stroke:none" />
      <path
         d="m 335.50434,542.9352 0,-15.98022 -3.3795,0 0,9.94539 -5.38307,-9.94539 -3.54848,0 0,15.98022 3.3795,0 0,-9.31777 5.17789,9.31777 3.75366,0"
         inkscape:connector-curvature="0"
         id="path4239"
         style="fill:#00417c;fill-rule:nonzero;stroke:none" />
      <path
         d="m 335.50434,549.76663 1.89494,0 0,-6.83143 -1.89494,0 0,6.83143 z"
         inkscape:connector-curvature="0"
         id="path4241"
         style="fill:#00417c;fill-rule:nonzero;stroke:none" />
      <path
         d="m 368.4183,531.43282 -2.34151,0 0,-2.28117 0.2776,-0.0483 c 1.08627,-0.21725 1.68975,-0.49485 2.08805,-0.80866 0.21725,-0.16898 0.38623,-0.33795 0.54313,-0.53107 0.16898,-0.20518 0.32588,-0.42244 0.50693,-0.65176 l 0.0966,-0.13277 2.19667,0 0,13.15593 2.36566,0 0,2.87258 -8.11081,0 0,-2.87258 2.37772,0 0,-8.70222"
         inkscape:connector-curvature="0"
         id="path4243"
         style="fill:#009d9f;fill-rule:nonzero;stroke:none" />
      <path
         d="m 343.3979,547.26821 c 0.79659,0 1.32766,0.0966 1.32766,1.05006 0,0.7966 -0.45865,1.06213 -1.38801,1.06213 l -1.05006,0 0,-2.11219 1.11041,0 z m 2.17254,5.40721 -1.33974,-2.81223 c 0.82074,-0.18105 1.23111,-0.70004 1.23111,-1.60527 0,-1.32766 -0.83281,-1.60526 -1.9915,-1.60526 l -1.907,0 0,6.02276 0.72418,0 0,-2.67947 1.25524,0 1.21904,2.67947 0.80867,0"
         inkscape:connector-curvature="0"
         id="path4245"
         style="fill:#00417c;fill-rule:evenodd;stroke:none" />
      <path
         d="m 349.09478,551.50466 c -0.38623,0.57935 -0.77246,0.68797 -1.18283,0.68797 -0.45865,0 -0.74832,-0.30174 -0.74832,-0.80866 0,-0.92937 1.24318,-1.09834 1.93115,-1.18283 l 0,1.30352 z m 0.68797,1.17076 0,-3.37951 c 0,-0.92936 -0.519,-1.38801 -1.56906,-1.38801 -1.12248,0 -1.59319,0.74832 -1.66561,0.86902 l 0.53106,0.33795 c 0.0241,-0.0603 0.38623,-0.63969 1.12248,-0.63969 0.61555,0 0.89316,0.35002 0.89316,0.86901 l 0,0.35002 c -1.05006,0.13277 -2.63119,0.37416 -2.63119,1.73803 0,0.7966 0.50693,1.32767 1.29145,1.32767 0.60349,0 1.01385,-0.18105 1.37594,-0.6397 l 0.0121,0.55521 0.6397,0"
         inkscape:connector-curvature="0"
         id="path4247"
         style="fill:#00417c;fill-rule:evenodd;stroke:none" />
      <path
         d="m 353.95885,551.54087 c -0.33795,0.41037 -0.65176,0.63969 -1.05006,0.63969 -0.72418,0 -1.12248,-0.60348 -1.12248,-1.81045 0,-1.20696 0.38623,-1.85872 1.09834,-1.85872 0.45865,0 0.74832,0.21725 1.0742,0.50692 l 0,2.52256 z m 0.70004,1.13455 0,-6.24001 -0.70004,0 0,2.03977 c -0.32588,-0.32588 -0.84488,-0.53107 -1.29146,-0.53107 -1.03799,0 -1.61733,0.86902 -1.61733,2.426 0,1.53285 0.60348,2.3898 1.65354,2.3898 0.57935,0 0.94144,-0.30175 1.26732,-0.62763 l 0.0121,0.54314 0.6759,0"
         inkscape:connector-curvature="0"
         id="path4249"
         style="fill:#00417c;fill-rule:evenodd;stroke:none" />
      <path
         d="m 356.22794,547.37684 0.7966,0 0,-0.94143 -0.7966,0 0,0.94143 z m 0.74832,5.29858 0,-4.65889 -0.70004,0 0,4.65889 0.70004,0"
         inkscape:connector-curvature="0"
         id="path4251"
         style="fill:#00417c;fill-rule:evenodd;stroke:none" />
      <path
         d="m 358.9919,550.37011 c 0,-1.31559 0.36209,-1.89493 1.17075,-1.89493 0.7966,0 1.15869,0.57934 1.15869,1.87079 0,1.30353 -0.36209,1.8708 -1.15869,1.8708 -0.79659,0 -1.17075,-0.59141 -1.17075,-1.84666 z m 1.20696,-2.46221 c -1.46043,0 -1.91907,1.17076 -1.91907,2.43807 0,1.54492 0.62762,2.45015 1.85872,2.45015 1.48457,0 1.89494,-1.15869 1.89494,-2.45015 0,-1.59319 -0.61555,-2.43807 -1.83459,-2.43807"
         inkscape:connector-curvature="0"
         id="path4253"
         style="fill:#00417c;fill-rule:evenodd;stroke:none" />
      <path
         d="m 371.08569,546.65266 -1.17075,0 -1.08627,3.85022 c -0.19312,0.65176 -0.2414,1.29145 -0.2414,1.29145 0,0 -0.0845,-0.63969 -0.2776,-1.29145 l -1.08627,-3.85022 -1.17075,0 0,6.02276 0.73625,0 0,-3.85022 c 0,-0.32588 -0.0604,-1.52078 -0.0604,-1.52078 0,0.0121 0.1569,0.83281 0.33795,1.43629 l 1.19489,3.93471 0.62763,0 1.17075,-3.92264 c 0.19312,-0.6759 0.37416,-1.44836 0.37416,-1.44836 0,0 -0.0603,1.24318 -0.0603,1.52078 l 0,3.85022 0.71211,0 0,-6.02276"
         inkscape:connector-curvature="0"
         id="path4255"
         style="fill:#00417c;fill-rule:nonzero;stroke:none" />
      <path
         d="m 376.80671,546.65266 -0.74832,0 -1.21903,4.33301 c -0.10863,0.41036 -0.16898,0.60348 -0.21726,0.94143 -0.0483,-0.31381 -0.0965,-0.63969 -0.19311,-0.94143 l -1.25524,-4.33301 -0.77246,0 1.79838,6.02276 0.78452,0 1.82252,-6.02276"
         inkscape:connector-curvature="0"
         id="path4257"
         style="fill:#00417c;fill-rule:nonzero;stroke:none" />
    </g>
  </g>
</svg>
