<svg enable-background="new 0 0 600 334.07999" version="1.1" viewBox="0 0 600 334.08" xml:space="preserve" xmlns="http://www.w3.org/2000/svg">
<g transform="translate(-297.47 -104.64)" fill="#fff">
	
		<path d="m579.46 262.21c0-12.388-6.6807-15.636-17.929-15.636h-17.9v32.802h17.9c10.656 0 17.929-6.1042 17.929-17.166v-6e-5zm32.938 88.973h-30.279l-22.679-48.774h-15.255v48.774h-28.178v-127.06h44.394c27.832 0 46.102 9.1407 46.102 39.617 0 15.44-6.1043 27.832-20.968 33.527l26.862 53.918"/>
		<path d="m395.36 104.64h15.047v119.47h-15.047v-119.47z"/>
		<path d="m475.56 303.93v-32.777c0-15.44-7.0241-23.044-22.663-23.044h-13.522v79.052h13.522c15.639 0 22.663-7.7865 22.663-23.23v-7.6e-4zm27.438 2.6584c0 32.201-16.732 44.579-47.603 44.579h-44.995v-127.06h44.995c29.703 0 47.603 13.128 47.603 44.171v38.313"/>
		<path d="m395.36 351.18v-127.06h-26.846v79.063l-42.867-79.063h-28.191v127.06h26.849v-74.097l41.17 74.097h29.886"/>
		<path d="m395.36 351.18h15.047v54.308h-15.047v-54.308z"/>
	
	
		<path d="m636.15 223.43h21.938v127.53h-21.938v-127.53z"/>
		<path d="m750.56 350.95v-65.521c0-20.89-7.2097-29.712-24.288-29.712-9.1785 0-18.184 4.331-28.805 12.599l-0.52594-10.779h-19.812v93.41h21.066v-68.942c7.5533-6.2872 14.568-9.7205 19.797-9.7205 7.7265 0 11.516 4.3344 11.516 14.581v64.081h21.053"/>
		<path d="m817.3 222.79c-5.2161-0.71506-10.618-1.4269-15.834-1.4269-22.874 0-26.452 13.484-26.452 30.956v5.3895h-14.051v16.732h14.221v76.505h21.053v-76.678h17.447v-16.732h-17.62v-5.2161c0-7.7393 1.4269-15.123 11.875-15.123 2.5198 0 5.402 0.54181 7.9343 1.2663l1.4269-15.674"/>
		<path d="m858.24 254.38c-29.75 0-41.317 21.74-41.317 48.997 0 29.577 12.281 48.824 39.545 48.824 31.35 0 40.974-21.201 40.974-48.997-1e-5 -31.719-13.352-48.824-39.201-48.824zm-19.586 49.719c0-23.366 5.5248-33.158 18.527-33.158 13.006 0 18.518 9.9786 18.518 32.434 0 22.638-5.512 32.248-18.518 32.248-12.659 0-18.527-9.9662-18.527-31.524"/>
	
	
		<path d="m456.48 427.64c-9.0307 0-14.174-3.8018-16.219-12.625l5.3643-1.6978c1.1466 6.0415 4.1484 9.7076 10.99 9.7076 4.4885 0 9.4967-2.1671 9.4967-7.3957 0-5.8303-5.6224-7.6036-9.7678-9.3614-4.8128-2.0442-9.437-3.8649-12.083-7.2604-1.4773-1.8962-2.438-4.0097-2.438-7.2729 0-8.4763 6.9297-11.317 13.844-11.317 8.3534 0 13.289 4.6113 14.937 11.317l-5.4364 1.4395c-1.282-4.8823-4.3438-8.1456-9.7708-8.1456-4.2081 0-7.802 1.7607-7.802 6.4478 0 5.4398 6.7816 7.6036 10.461 9.2291 4.7372 2.0915 9.3486 3.5183 11.799 7.1251 1.2189 1.7576 1.9561 3.9972 1.9561 6.9864 0 9.4872-6.8412 12.823-15.33 12.823"/>
		<path d="m495.74 427.22c-4.1356 0-6.5706-1.6851-9.7708-4.0002v15.482h-5.2285v-47.092h5.1057l0.12283 4.1355c2.2395-2.375 5.3042-4.6775 9.648-4.6775 7.9974 0 12.265 6.2399 12.265 17.844 0 11.799-4.3434 18.307-12.143 18.307l3.4e-4 0.00259zm-1.5623-31.879c-2.9797 0-5.4901 1.6348-8.2084 4.958v18.653c1.9687 2.1041 5.1563 4.0002 8.1327 4.0002 5.3643 0 8.1456-4.8854 8.1456-14.039-1e-5 -9.0935-2.6458-13.573-8.07-13.573"/>
		<path d="m529.23 427.48c-9.5754 0-14.187-6.6334-14.187-18.578 0-12.208 6.1012-18.174 14.455-18.174 9.352 0 12.687 7.9249 12.687 16.13v2.9892h-21.655c0.07257 9.2291 2.8663 13.302 8.7597 13.302 4.4035 0 6.8541-2.7057 8.4763-6.7184l4.69 2.2521c-2.1166 4.8098-5.9814 8.7976-13.226 8.7976l-3.6e-4 8e-5zm0.05976-32.421c-4.8223 0-8.1456 3.2601-8.7597 10.521h16.278c-0.06311-6.7184-3.0396-10.521-7.5185-10.521"/>
		<path d="m547.64 426.62v-3.594l13.708-21.52c1.2158-1.8836 2.4474-3.7168 3.7263-5.4871-1.7576 0.05969-3.4554 0.14816-5.2286 0.14816h-10.445v-4.5547h22.061v3.8018l-13.979 22.124c-1.0962 1.6851-2.2521 3.2474-3.4585 4.7973 1.4174 0 2.8443-0.05969 4.2587-0.05969h13.314v4.3438h-23.957"/>
		<path d="m578.63 386.78v-7.062h5.9691v7.062h-5.9691zm0.40637 39.828v-35.007h5.2161v35.007h-5.2161"/>
		<path d="m613.36 426.62v-4.1956c-2.7939 3.5057-5.8586 4.7973-10.385 4.7973-5.9188 0-9.7077-3.9246-9.7077-9.8936 0-10.309 11.872-12.143 19.822-13.103v-2.4978c0-3.9375-2.4506-6.7279-7.1376-6.7279-5.4871 0-8.0729 4.8823-8.0729 4.8823l-4.4035-2.7057s3.5814-6.435 12.612-6.435c7.8746 0 12.143 3.6538 12.143 10.631v25.249l-4.8699-2.8e-4zm-0.27093-18.594c-5.232 0.61737-14.533 1.9088-14.533 8.8856 0 3.8018 2.1041 6.1137 5.5751 6.1137 3.1246 0 6.0286-0.88513 8.9582-5.2286v-9.7708"/>
		<path d="m629.05 379.75h5.2285v46.892h-5.2285v-46.892z"/>
	
</g>
</svg>
