<?xml version="1.0" encoding="UTF-8" standalone="no"?>
<!-- Created with Inkscape (http://www.inkscape.org/) -->

<svg
   width="800mm"
   height="266.53647mm"
   viewBox="0 0 799.99999 266.53647"
   version="1.1"
   id="svg8813"
   inkscape:version="1.2.2 (732a01da63, 2022-12-09)"
   sodipodi:docname="ndrschlager.light.svg"
   xmlns:inkscape="http://www.inkscape.org/namespaces/inkscape"
   xmlns:sodipodi="http://sodipodi.sourceforge.net/DTD/sodipodi-0.dtd"
   xmlns="http://www.w3.org/2000/svg"
   xmlns:svg="http://www.w3.org/2000/svg">
  <sodipodi:namedview
     id="namedview8815"
     pagecolor="#ffffff"
     bordercolor="#111111"
     borderopacity="1"
     inkscape:showpageshadow="0"
     inkscape:pageopacity="0"
     inkscape:pagecheckerboard="1"
     inkscape:deskcolor="#d1d1d1"
     inkscape:document-units="mm"
     showgrid="false"
     inkscape:zoom="0.2102413"
     inkscape:cx="487.53503"
     inkscape:cy="166.47538"
     inkscape:window-width="1920"
     inkscape:window-height="1017"
     inkscape:window-x="-8"
     inkscape:window-y="-8"
     inkscape:window-maximized="1"
     inkscape:current-layer="layer1" />
  <defs
     id="defs8810" />
  <g
     inkscape:label="Layer 1"
     inkscape:groupmode="layer"
     id="layer1"
     transform="translate(119.70692,-104.42431)">
    <path
       class="cls-1"
       d="m 130.11653,243.92813 c 0,-10.965 -5.91496,-13.95037 -15.87554,-13.95037 H 98.365457 v 29.23998 h 15.875533 c 9.43046,0 15.87554,-5.41273 15.87554,-15.20589 z m 29.1842,78.90336 H 132.48809 L 112.39954,279.64113 H 98.895567 v 43.19036 H 73.784882 V 210.2519 h 39.340078 c 24.63638,0 40.84672,8.09122 40.84672,35.12708 0,13.64346 -5.41275,24.63636 -18.58191,29.68642 z"
       id="path44"
       inkscape:connector-curvature="0"
       style="fill:#2a69d7;fill-opacity:1;stroke-width:2.79008" />
    <path
       id="polygon46"
       style="fill:#2a69d7;stroke-width:2.79008;fill-opacity:1"
       class="cls-1"
       d="m -32.963443,210.2519 h 13.364468 V 104.42431 h -13.364468 z" />
    <path
       class="cls-1"
       d="m 38.099808,281.00826 v -29.04472 c 0,-13.69925 -6.221878,-20.42335 -20.060655,-20.42335 H 6.0418223 v 70.03092 H 18.039153 c 13.950385,0 20.060655,-6.91939 20.060655,-20.56285 z m 24.329461,2.31575 c 0,28.54249 -14.843205,39.50748 -42.213855,39.50748 H -19.598981 V 210.2519 h 39.814395 c 26.338324,0 42.213855,11.66254 42.213855,39.06108 z"
       id="path48"
       inkscape:connector-curvature="0"
       style="fill:#2a69d7;fill-opacity:1;stroke-width:2.79008" />
    <path
       id="polygon50"
       style="fill:#2a69d7;stroke-width:2.79008;fill-opacity:1"
       class="cls-1"
       d="m -95.907578,322.83149 v -65.65048 l 36.46631,65.65048 h 26.477825 V 210.2519 h -23.771452 v 70.05884 l -38.00085,-70.05884 h -24.971175 v 112.57959 z" />
    <path
       id="polygon52"
       style="fill:#2a69d7;stroke-width:2.79008;fill-opacity:1"
       class="cls-1"
       d="m -32.963443,370.96031 h 13.364468 v -48.12882 h -13.364468 z" />
    <path
       class="cls-1"
       d="m 212.31218,325.06356 c -18.05179,0 -30.91405,-10.21169 -30.91405,-30.07704 v -6.41717 h 19.36314 v 4.85475 c 0,11.35558 4.51992,15.20592 13.05754,15.20592 7.67272,0 12.19264,-3.68292 12.19264,-10.51861 0,-21.06507 -43.44149,-29.90962 -43.44149,-61.38167 0,-18.05181 10.8534,-27.06376 31.89057,-27.06376 18.38661,0 29.60271,10.3512 29.60271,29.74224 v 3.82239 h -19.53053 v -2.79007 c 0,-7.031 -0.83702,-14.7037 -11.85782,-14.7037 -8.53764,0 -11.1603,4.65942 -11.1603,9.84897 0,17.88439 44.1111,30.07701 44.1111,61.38167 0.16741,18.41452 -9.65366,28.09608 -33.31351,28.09608 z"
       id="path54"
       inkscape:connector-curvature="0"
       style="fill:#d3ad6a;fill-opacity:1;stroke-width:2.79008" />
    <path
       class="cls-1"
       d="m 284.15664,325.06356 c -18.19129,0 -28.73779,-10.3512 -28.73779,-27.90076 v -35.60139 c 0,-15.87553 11.69042,-26.72893 28.73779,-26.72893 17.04736,0 27.39856,9.68156 27.39856,25.11069 v 6.69619 h -18.52611 v -2.79008 c 0,-9.01194 -2.79008,-12.52744 -9.20725,-12.52744 -6.41719,0 -9.51417,3.18069 -9.51417,11.16029 v 32.50439 c 0,9.84898 2.34368,13.5319 9.84897,13.5319 6.86359,0 9.54207,-3.34812 9.54207,-12.86229 v -4.2967 h 18.69351 v 8.37024 c 0,16.15456 -11.35562,25.33389 -28.23558,25.33389 z"
       id="path56"
       inkscape:connector-curvature="0"
       style="fill:#d3ad6a;fill-opacity:1;stroke-width:2.79008" />
    <path
       class="cls-1"
       d="m 362.97631,323.22211 v -61.82809 c 0,-5.99867 -2.51108,-8.84457 -7.36581,-8.84457 -3.98981,0 -8.17493,1.84148 -13.36447,6.16609 v 64.50657 h -18.8609 v -116.123 h 18.8609 v 35.57349 c 7.70061,-5.32903 13.95039,-7.67274 20.89768,-7.67274 12.52745,0 18.72141,7.67274 18.72141,23.21346 v 65.00879 z"
       id="path58"
       inkscape:connector-curvature="0"
       style="fill:#d3ad6a;fill-opacity:1;stroke-width:2.79008" />
    <path
       class="cls-1"
       d="m 394.78317,323.22211 v -116.123 h 18.86093 v 116.123 z"
       id="path60"
       inkscape:connector-curvature="0"
       style="fill:#d3ad6a;fill-opacity:1;stroke-width:2.79008" />
    <path
       class="cls-1"
       d="m 467.29727,323.22211 -0.66962,-7.17051 a 26.980039,26.980039 0 0 1 -18.88882,8.17493 c -13.02966,0 -23.21344,-8.67714 -23.21344,-22.0695 v -3.655 c 0,-22.90654 22.71122,-26.92423 40.76302,-29.4074 v -9.37467 c 0,-7.17051 -2.51107,-10.01636 -9.68156,-10.01636 -9.87688,0 -10.04429,5.18952 -10.2117,13.36448 h -17.85647 v -2.79011 c 0,-18.554 11.69042,-25.38968 29.0447,-25.38968 17.35427,0 27.56595,7.19839 27.56595,25.11069 v 63.33474 z m -2.00886,-41.09784 c -9.17935,1.50664 -21.9021,3.82243 -21.9021,15.70815 v 1.89725 c 0,6.52877 3.51549,9.37464 9.87687,9.37464 a 20.81397,20.81397 0 0 0 12.02523,-5.58015 z"
       id="path62"
       inkscape:connector-curvature="0"
       style="fill:#d3ad6a;fill-opacity:1;stroke-width:2.79008" />
    <path
       class="cls-1"
       d="m 525.77726,361.11136 c -21.39988,0 -35.09915,-9.34679 -35.09915,-23.88306 0,-9.51418 5.58015,-16.74047 15.54072,-20.70238 a 12.583245,12.583245 0 0 1 -8.84454,-11.88572 c 0,-6.66827 4.49202,-10.85339 9.68157,-14.2015 -7.86802,-2.98537 -10.8534,-11.16029 -10.8534,-21.37198 v -8.84454 c 0,-16.37775 10.18377,-25.11068 29.0726,-25.11068 8.67713,0 14.53629,1.33922 19.53051,4.68734 a 19.363131,19.363131 0 0 1 15.01063,-7.36581 h 2.34366 v 13.02965 a 18.805116,18.805116 0 0 0 -4.99423,-0.66962 8.8166415,8.8166415 0 0 0 -5.35694,2.17625 29.965421,29.965421 0 0 1 2.79008,13.36448 v 9.03986 c 0,17.88435 -8.70506,25.72447 -28.9052,25.72447 a 28.960993,28.960993 0 0 1 -9.03985,-1.33922 6.5008782,6.5008782 0 0 0 -2.31576,4.85472 c 0,2.79008 3.8224,4.82685 11.35561,6.8357 l 13.95037,3.85031 c 20.20017,5.58015 23.38086,13.53186 23.38086,22.73911 -0.16751,17.9123 -14.03408,29.07262 -37.24754,29.07262 z m 4.49203,-36.271 -15.20593,-4.35253 c -4.1572,2.17627 -7.17048,5.18956 -7.17048,10.18378 0,6.6962 3.8503,14.36889 18.554,14.36889 11.35562,0 18.21921,-1.98095 18.21921,-9.34675 0,-6.27767 -4.18512,-8.28652 -14.2852,-11.13241 z m 6.19397,-64.17177 c 0,-7.50531 -4.01772,-11.52303 -11.1603,-11.52303 -7.1426,0 -11.0208,4.18514 -11.0208,11.52303 v 9.54205 a 11.160306,11.160306 0 0 0 22.32061,0 z"
       id="path64"
       inkscape:connector-curvature="0"
       style="fill:#d3ad6a;fill-opacity:1;stroke-width:2.79008" />
    <path
       class="cls-1"
       d="m 597.06371,325.06356 c -18.35871,0 -29.04468,-10.54649 -29.04468,-29.40743 V 264.9653 c 0,-20.22805 10.18379,-30.07701 29.04468,-30.07701 22.32061,0 29.26792,11.3556 29.26792,29.23998 v 21.06509 h -39.78651 v 13.53186 a 9.542061,9.542061 0 0 0 10.51859,10.35121 c 7.031,0 10.54649,-2.79011 10.54649,-11.85784 v -1.39504 h 18.72143 v 1.33925 c 0,17.68907 -9.70947,27.90076 -29.26792,27.90076 z m 10.71391,-63.66954 c 0,-7.33793 -3.85033,-11.35562 -10.71391,-11.35562 -6.86358,0 -10.51859,4.35253 -10.51859,11.35562 v 8.87244 h 21.2325 z"
       id="path66"
       inkscape:connector-curvature="0"
       style="fill:#d3ad6a;fill-opacity:1;stroke-width:2.79008" />
    <path
       class="cls-1"
       d="m 658.72443,268.75983 a 16.740458,16.740458 0 0 0 -1.50668,3.98978 v 50.4725 h -18.8609 v -86.49237 h 18.02387 v 13.9504 c 6.52881,-10.3512 11.38353,-14.53632 23.91098,-15.70815 v 21.39989 c -10.21169,0.19533 -17.04736,2.51105 -21.56727,12.38795 z"
       id="path68"
       inkscape:connector-curvature="0"
       style="fill:#d3ad6a;fill-opacity:1;stroke-width:2.79008" />
  </g>
</svg>
