<svg width="200mm" height="254.392" viewBox="0 0 200 67.308" xmlns="http://www.w3.org/2000/svg">
    <path d="M102.9 33.654h2.046v-11.03H102.9v6.861l-4.907-6.861h-2.77v11.03h2.108v-7.6zM114.08 29.279v-2.141h-5.022v-2.48h5.684v-2.034h-8.026v11.03h8.55V31.62h-6.208V29.28zM117.31 33.645h2.082l.029-7.387 2.66 7.394h1.868l2.608-7.41.03 7.403h2.117V22.621h-3.196l-2.501 4.863-2.548-4.863h-3.15zM130.38 33.654h9.3v-2.04h-6.071l5.916-7.075v-1.915h-8.682v2.039h5.454l-5.917 7.075zM148.1 29.279v-2.141h-5.022v-2.48h5.684v-2.034h-8.026v11.03h8.55V31.62h-6.208V29.28zM161.2 33.654h2.425v-11.03H161.2zM191.06 28.097v1.617l2.252.005c-.432 1.015-1.527 1.64-2.72 1.64a3.201 3.201 0 0 1-3.225-3.223 3.21 3.21 0 0 1 3.224-3.224c1.194 0 2.21.612 2.761 1.567 1.045-.523 1.12-.567 2.06-1.045-.955-1.657-2.761-2.806-4.82-2.806-3.03 0-5.509 2.478-5.509 5.508 0 3.045 2.478 5.522 5.508 5.522 2.075 0 3.926-1.15 4.836-2.866.552-.716.612-2.367.612-2.68zM197.57 33.654h2.425v-11.03h-2.425z" fill="#fff" stroke-width=".931"/>
    <path d="M165.3 29.912c0 2.595 2.126 3.746 4.488 3.746 2.88 0 4.385-1.446 4.385-3.377 0-2.39-2.347-2.876-3.13-3.068-2.642-.634-3.106-.81-3.106-1.592 0-.885.861-1.118 1.6-1.118.723 0 1.923.097 2.01 1.564l2.287-.01c0-2.433-2.038-3.43-4.237-3.43-1.905 0-3.942 1.018-3.942 3.185 0 3.938 6.274 2.492 6.274 4.734 0 1.076-1.24 1.312-2.052 1.312-.856 0-2.184-.272-2.332-1.964z" fill="#fff" stroke-width=".369"/>
    <path d="M153.89 33.654h2.451l.011-8.88h2.83v-2.15h-8.15v2.134h2.87z" fill="#fff" stroke-width=".774"/>
    <path d="M182.93 29.279v-2.141h-5.022v-2.48h5.684v-2.034h-8.026v11.03h8.55V31.62h-6.208V29.28z" fill="#fff" stroke-width=".931"/>
    <path d="M179.7 19.738l-.683 1.98 2.048-.012 1.08-1.98z" fill="#fff" stroke-width=".824"/>
    <path d="M99.535 42.134c1.304-.285 1.863-1.359 1.863-2.421 0-1.271-.756-2.51-2.729-2.51h-3.528v7.834h1.732v-2.815h.843l1.972 2.815h2.104L99.6 42.134zm-1.326-3.594c.822 0 1.501.154 1.501 1.173 0 .997-.679 1.183-1.5 1.183h-1.337V38.54zM110.83 45.057h3.374c2.389 0 3.55-1.687 3.55-3.955 0-2.586-1.523-3.868-3.55-3.868h-3.374zm1.72-6.376h1.227c1.698 0 2.257 1.008 2.257 2.585 0 1.731-.953 2.345-1.95 2.345h-1.534zM118.67 45.029h1.72v-7.823h-1.72zM129.43 41.082c0-2.285-1.842-4.124-4.081-4.124-2.25 0-4.07 1.84-4.07 4.124 0 2.274 1.82 4.113 4.07 4.113 2.239 0 4.081-1.84 4.081-4.113zm-4.081-2.441c1.312 0 2.382 1.115 2.382 2.441 0 1.326-1.07 2.43-2.382 2.43-1.313 0-2.405-1.104-2.405-2.43s1.092-2.441 2.405-2.441z" fill="#fff" stroke-width=".788"/>
    <path d="M103.34 45.122l.828-1.753h3.983l.773 1.753h1.677l-3.52-7.912h-1.744l-3.575 7.912zm2.902-6.425l1.28 3.063h-2.615l1.325-3.063z" fill="#fff" stroke-width=".277"/>
    <path d="M106.05 35.274l-.456 1.322 1.368-.008.722-1.322zM125.39 35.265l-.456 1.322 1.368-.008.722-1.322z" fill="#fff" stroke-width=".788"/>
    <path fill="#5fbef2" fill-rule="evenodd" stroke-width=".931" d="M0 31.262h20.799v4.654H0zM66.293 31.262h20.799v4.654H66.293z"/>
    <path fill="#edd840" fill-rule="evenodd" stroke-width=".931" d="M23.68 31.262h11.399v4.654H23.68z"/>
    <path fill="#b21212" fill-rule="evenodd" stroke-width=".931" d="M37.847 31.262h11.399v4.654H37.847z"/>
    <path fill="#7de01e" fill-rule="evenodd" stroke-width=".931" d="M52.07 31.262h11.399v4.654H52.07z"/>
    <path d="M74.806 33.654a31.197 31.282 0 0 1-31.197 31.282 31.197 31.282 0 0 1-31.197-31.282A31.197 31.282 0 0 1 43.609 2.372a31.197 31.282 0 0 1 31.197 31.282z" fill="none" stroke="#fff" stroke-opacity=".988" stroke-width="4.744" paint-order="stroke markers fill"/>
</svg>
