<svg width="600" height="162.16" viewBox="0 0 158.75 42.906" xmlns="http://www.w3.org/2000/svg">
    <g fill="#e50914">
        <path d="M150.263 20.42l8.492 22.482c-2.503-.357-5.004-.805-7.551-1.208L146.42 29.27l-4.916 11.397c-2.413-.404-4.782-.538-7.195-.851l8.625-19.665-7.823-20.156h7.241l4.38 11.26 4.693-11.26h7.328zM129.393 0h-6.57v38.972c2.145.135 4.379.223 6.57.49zM117.147 38.52c-5.988-.402-11.978-.758-18.1-.894V-.004h6.703V31.28c3.845.089 7.687.4 11.397.58zM91.894 15.24v6.703h-9.162v15.24H76.12V-.002H94.89v6.704H82.733v8.538h9.162zM64.855 6.7v30.839c-2.235 0-4.514 0-6.705.089V6.7h-6.928V-.004h20.603V6.7zM43.983 22.3c-2.949 0-6.436 0-8.939.136V32.4c3.933-.268 7.866-.58 11.843-.715v6.436L28.34 39.598v-39.6h18.545v6.704H35.043v9.029c2.593 0 6.57-.135 8.939-.135v6.705zM6.84 18.55v23.419c-2.411.269-4.558.582-6.836.94V.004h6.391l8.714 24.359V.003h6.705v40.135c-2.368.403-4.782.537-7.33.893z"/>
    </g>
</svg>
