<svg version="1.1" viewBox="0 0 1000 454.29" xml:space="preserve" xmlns="http://www.w3.org/2000/svg"><g transform="matrix(3.9746 0 0 3.9746 -18.283 -9.9364)"><path class="st0" d="m210.5 66.3c-1.7 1.2-3 1.2-8.9 1.2v10.4h7.3c4.7 0 11 0.4 15.7-4.5 2.6-2.9 3-4 5.2-11.3l13.2-46.6h-16.5l-5.5 32.1-5.7-32.1h-16.8l13.5 47.1c0 0.7-0.3 2.8-1.5 3.7zm-177.9-50.7c-6.7 0-9.8 3.9-11.2 5.7v-4.7h-16.8v47.2h16.8v-33.8c0-1.3 0-4.4 3.7-4.4 3.4 0 3.4 3 3.4 4.4v33.7h16.9v-32.1c0-4.2-0.1-8.2-2.4-11.3-2.3-3.3-6.3-4.7-10.4-4.7zm50.3 2.2c-4.4-2-9.4-2.4-14.2-2.4-18.6 0-19.8 7.6-19.8 17v16.2c0 7.9 0.7 16.2 20.5 16.2 8.8 0 12.9-1.3 15.9-3.7 4.4-3.4 4.4-7.7 4.4-13.7h-16.2c0 5 0 6.9-3.7 6.9-3.9 0-3.9-3-3.9-4.6v-7h23.8v-12c0-4 0-9.7-6.8-12.9zm-9.1 17.3h-7.9v-5.7c0-1.4 0-4.2 4-4.2 3.9 0 3.9 2.8 3.9 4.1zm63.5 14.4-4.8-32.9h-16.3l-5.4 32.9-3.2-32.9h-16.8l8.7 47.2h18.7l5.7-30.5 5.5 30.5h18.7l9.4-47.2h-16.6zm48-47v10.7c1.9 0.2 3.8 0.6 5.6 1.2v-6.4h59.6v77.4h-59.6v-19.2c-1.8 0.7-3.8 1.1-5.6 1.3v23.5l16.3 25.8v-25.8h54.6v-88.5zm13.8 47.7c0-8.7-4.9-10.9-17.6-16.6-4.6-2.1-5.2-2.3-5.9-3.2s-0.8-1.9-0.8-2.5c0-3.5 2.5-3.5 3.6-3.5 3.7 0 3.7 2.4 3.7 6.5h16c0-5.8 0-10.4-7-13.4-3.7-1.5-8.6-1.9-12.1-1.9-1.9 0-7.8 0.2-12.1 1.6-6.9 2.4-8.3 7.1-8.3 12.6 0 9.7 4.5 11.9 16.7 17.3 6.2 2.7 6.8 3 6.8 5.3 0 2.2-1.1 3.6-3.5 3.6-3.8 0-3.8-2.1-3.8-6.5h-16.8c0 4.8 0 10.5 7.9 13.5 3.7 1.5 8.2 1.8 12.9 1.8 6.5 0.2 20.3-0.5 20.3-14.6z" fill="#41a5f0"/></g></svg>
