<svg version="1.1" viewBox="0 0 259.33 75.53" xmlns="http://www.w3.org/2000/svg">
 <path d="m128.06 1.46-0.04-0.09 0.01 0.01a37.7 37.7 0 0 1 14.69 7.44l11.88 40.23a38 38 0 0 1-6.37 12.06v-0.08a38.1 38.1 0 0 1-17.21 12.33c-3.66 1.41-7.87 2.17-12.63 2.17-2.37 0-4.68-0.23-6.92-0.64l-2.01-0.32 0.09-0.08-0.341-0.082 22.741-21.198c4.74-4.63 6.95-9.49 6.95-15.29h0.01c0-11.2-9.23-20.32-20.58-20.32s-20.51 9.14-20.51 20.38c0 7.75 4.38 14.73 11.43 18.2l1.88 0.93-13.414 12.344c-10.416-6.712-17.306-18.347-17.306-31.584 0-3.46 0.48-6.67 1.36-9.61 4.28-16.13 19.08-28.05 36.63-28.05 3.34 0 6.58 0.44 9.66 1.25m-19.37 36.35c0 5.42 4.34 9.83 9.68 9.83h0.01c5.37 0 9.75-4.37 9.75-9.83s-4.3-9.9-9.68-9.9-9.76 4.48-9.76 9.9" clip-rule="evenodd" fill="#1234e0" fill-rule="evenodd"/>
 <path d="m118.35 47.72c-5.34 0-9.68-4.41-9.68-9.83s4.38-9.9 9.76-9.9 9.68 4.44 9.68 9.9-4.38 9.83-9.75 9.83m-36.75-33.72c-4.03-8.44-12.04-14-22.7-14-9.02 0-15.13 4.37-19.06 10.62v-9.17h-19.79v72.47h19.79v-42.06c0.44-7.71 5.09-12.51 12.37-12.51s12.37 5.38 12.37 13.39v41.18h19.94l-0.06-9.09c-6.5-7.5-10.2-17.14-10.2-27.26 0-8.74 2.71-16.85 7.35-23.57m86.031-12.55 12.81 48.17 16.22-48.1 12.74-0.07 16.88 48.17 12.52-48.17h20.51l-21.53 72.47h-20.67l-14.41-39.73-13.38 39.73h-20.81l-21.4-72.47zm-159.91 0.56c-0.61 0.47-1.22 1.34-1.82 2.61-0.46 0.96-0.77 1.57-0.95 1.82-0.18 0.26-0.36 0.44-0.55 0.56q-0.285 0.18-0.66 0.18c-0.41 0-0.74-0.15-0.99-0.44s-0.38-0.71-0.38-1.25c0-0.46 0.06-0.92 0.18-1.4 0.12-0.47 0.32-1.07 0.62-1.8l-2.24-0.93c-0.3 0.7-0.54 1.37-0.7 2.01a7.8 7.8 0 0 0-0.25 2.02c0 1.43 0.34 2.56 1.03 3.37 0.69 0.81 1.63 1.22 2.83 1.22 0.64 0 1.19-0.12 1.67-0.37s0.89-0.58 1.25-0.99 0.73-1.04 1.12-1.86c0.42-0.89 0.73-1.47 0.92-1.76s0.39-0.51 0.6-0.65c0.21-0.15 0.44-0.22 0.71-0.22 0.48 0 0.83 0.17 1.08 0.51 0.24 0.34 0.36 0.82 0.36 1.45 0 0.53-0.08 1.1-0.25 1.74s-0.45 1.41-0.86 2.32h2.67c0.54-1.11 0.82-2.39 0.82-3.84 0-1.57-0.35-2.8-1.06-3.68-0.7-0.88-1.67-1.32-2.89-1.32-0.88 0-1.63 0.24-2.24 0.71m-7.56 15.68v2.83l7.4 1.72c0.45 0.11 1.03 0.24 1.75 0.37q1.08 0.21 1.8 0.3-0.75 0.105-1.8 0.3c-0.7 0.13-1.22 0.24-1.56 0.32l-7.6 1.98v2.72l7.6 1.98c0.41 0.12 0.98 0.24 1.72 0.38 0.74 0.13 1.28 0.22 1.64 0.26-1 0.14-2.19 0.35-3.55 0.66l-7.4 1.73v2.83l13.56-3.46v-3.27l-7.11-1.83c-0.31-0.08-0.84-0.19-1.58-0.34s-1.28-0.24-1.61-0.28c0.27-0.03 0.81-0.12 1.6-0.28a27 27 0 0 0 1.57-0.35l7.12-1.84v-3.28l-13.56-3.45zm11.19 26.16v4.94h-3.5v-4.59h-2.36v4.59h-2.98v-4.94h-2.36v7.81h13.56v-7.81h-2.38zm-11.19 17.89v2.59h6.42c0.73 0 1.98-0.05 3.74-0.14v0.07l-10.16 5.89v3.63h13.56v-2.57h-6.38c-0.77 0-2.07 0.06-3.88 0.18v-0.08l10.26-5.9v-3.66h-13.56z" fill="#1234e0"/>
</svg>
