<?xml version="1.0" encoding="UTF-8" standalone="no"?>
<!-- Created with Inkscape (http://www.inkscape.org/) -->
<svg xmlns:rdf="http://www.w3.org/1999/02/22-rdf-syntax-ns#" xmlns="http://www.w3.org/2000/svg" height="150" width="600" version="1.1" xmlns:cc="http://creativecommons.org/ns#" xmlns:dc="http://purl.org/dc/elements/1.1/">
 <metadata>
  <rdf:RDF>
   <cc:Work rdf:about="">
    <dc:format>image/svg+xml</dc:format>
    <dc:type rdf:resource="http://purl.org/dc/dcmitype/StillImage"/>
    <dc:title/>
   </cc:Work>
  </rdf:RDF>
 </metadata>
 <g fill-rule="nonzero" transform="translate(-117.74265,-194.59096)">
  <path d="m717.74,344.59-300.01,0,0-150,300.01,0,0,150z" fill="#6d6e71"/>
  <path d="m417.75,344.59-300.01,0,0-150,300.01,0,0,150z" fill="#dcddde"/>
  <path d="m642.74,294.59-450.01,0,0-75.001,450.01,0,0,75.001z" fill="#FFF"/>
  <path d="m642.74,294.59-450.01,0,0,25.004,450.01,0,0-25.004z" fill="#ed1c29"/>
  <path fill="#414042" d="m427.21,237.44,4.3686,29.175,0.10976,0,4.643-29.175,7.6286,0,4.643,29.175,0.0988,0,4.3796-29.175,7.6176,0-7.1895,39.46-8.8799,0-4.4235-28.626-0.12074,0-4.4125,28.626-8.9018,0-7.1895-39.46,7.6286,0z"/>
  <path fill="#414042" d="m468.83,248.91c0.28538-2.5246,0.90006-4.6869,1.833-6.487,0.93299-1.8111,2.2941-3.2051,4.0612-4.2369,1.7672-1.0098,4.1381-1.5147,7.1346-1.5147,2.9856,0,5.3565,0.50492,7.1236,1.5147,1.7672,1.0318,3.1283,2.4258,4.0612,4.2369,0.94397,1.8001,1.5477,3.9625,1.8221,6.487,0.27441,2.5246,0.4171,5.2796,0.4171,8.2652,0,3.0185-0.14269,5.7845-0.4171,8.2762-0.27441,2.5136-0.8781,4.6759-1.8221,6.476-0.93299,1.8111-2.2941,3.1831-4.0612,4.1491-1.7672,0.95494-4.1381,1.4269-7.1236,1.4269-2.9965,0-5.3674-0.47198-7.1346-1.4269-1.7672-0.96592-3.1283-2.338-4.0612-4.1491-0.93299-1.8001-1.5477-3.9625-1.833-6.476-0.26343-2.4916-0.40612-5.2577-0.40612-8.2762,0-2.9856,0.14269-5.7406,0.40612-8.2652m7.7493,15.038c0.13172,1.855,0.38417,3.3697,0.76834,4.5332,0.38418,1.1525,0.94397,1.9977,1.6574,2.5355,0.72444,0.53784,1.6684,0.81225,2.8538,0.81225,1.1635,0,2.1184-0.27441,2.8429-0.81225,0.72444-0.53784,1.2732-1.383,1.6464-2.5355,0.39515-1.1635,0.65858-2.6782,0.77932-4.5332,0.13171-1.866,0.19757-4.1271,0.19757-6.7724,0-2.6563-0.0659-4.8954-0.19757-6.7395-0.12074-1.855-0.38417-3.3588-0.77932-4.5332-0.3732-1.1854-0.92201-2.0306-1.6464-2.5794-0.72444-0.52686-1.6794-0.7903-2.8429-0.7903-1.1854,0-2.1294,0.26344-2.8538,0.7903-0.71346,0.54882-1.2732,1.394-1.6574,2.5794-0.38417,1.1745-0.63662,2.6782-0.76834,4.5332-0.13172,1.844-0.19757,4.0832-0.19757,6.7395,0,2.6453,0.0659,4.9064,0.19757,6.7724"/>
  <path fill="#414042" d="m520.8,237.44c3.2929,0,5.8943,0.84518,7.7274,2.5136,1.844,1.6794,2.766,4.2369,2.766,7.6505,0,2.6563-0.52687,4.8186-1.6026,6.487-1.0647,1.6904-2.7221,2.766-4.9723,3.249v0.10976c1.9867,0.29636,3.4356,0.94396,4.3466,1.9318,0.93299,0.99884,1.5038,2.6014,1.7343,4.8076l0.16465,2.4038c0.0329,0.85616,0.0659,1.833,0.10976,2.8978,0.0768,2.1075,0.17562,3.699,0.32929,4.8076,0.21953,1.1086,0.69151,1.866,1.4379,2.2721v0.32929h-8.6164l-0.77932-1.8989-0.21953-2.2502-0.21952-7.5737c-0.0878-1.5477-0.47199-2.7551-1.1745-3.6442-0.69151-0.87811-1.877-1.3281-3.5344-1.3281h-4.2369v16.695h-7.9578v-39.46h14.697zm-3.4246,17.244c1.9099,0,3.3807-0.45003,4.4125-1.3611,1.0318-0.90006,1.5586-2.4148,1.5586-4.5552,0-3.6442-1.855-5.4662-5.5321-5.4662h-3.7539v11.382h3.3149z"/>
  <path fill="#414042" d="m542.46,237.44,7.9469,0,0,32.94,14.094,0,0,6.52-22.04,0,0-39.46z"/>
  <path fill="#414042" d="m587.45,237.44c2.766,0,4.9942,0.45003,6.6846,1.3611,1.7013,0.90006,3.0075,2.1843,3.9515,3.8637,0.94397,1.6794,1.5806,3.688,1.9099,6.048,0.32929,2.3489,0.49394,4.9942,0.49394,7.903,0,3.4685-0.20855,6.476-0.63663,9.0335-0.4171,2.5685-1.1525,4.6759-2.1733,6.3334-1.0428,1.6574-2.4148,2.8978-4.16,3.71-1.7233,0.80127-3.9186,1.2074-6.5639,1.2074h-12.546v-39.46h13.04zm-1.5586,33.588c1.405,0,2.5355-0.21953,3.3917-0.70249,0.8342-0.48296,1.5038-1.2732,2.0087-2.3928,0.49394-1.0867,0.82323-2.5465,0.99885-4.3466,0.15367-1.8111,0.24148-4.0503,0.24148-6.7505,0-2.2392-0.0768-4.2149-0.20855-5.9162-0.16465-1.6904-0.45003-3.0953-0.92202-4.2259-0.47198-1.1196-1.1415-1.9648-2.0416-2.5355-0.90006-0.57077-2.1184-0.85615-3.6222-0.85615h-3.3697v27.726h3.5234z"/>
  <path fill="#414042" d="m283.23,237.39c-3.2929-1.1415-6.8602,0.6037-8.0018,3.8746l-5.6199,16.223-10.614-17.068c-0.72444-1.3611-1.9318-2.4587-3.5015-3.0075-3.2819-1.1306-6.8492,0.6037-8.0018,3.8856l-9.5384,27.529c-1.1306,3.2819,0.61468,6.8602,3.8966,8.0018,3.271,1.1306,6.8492-0.6037,7.9798-3.8856l5.6199-16.212,10.658,17.101c0.71346,1.3501,1.9099,2.4368,3.4685,2.9636,3.271,1.1306,6.8602-0.6037,7.9908-3.8856l9.5384-27.518c1.1415-3.2819-0.6037-6.8602-3.8746-8.0018"/>
  <path fill="#414042" d="m385.82,266.41-8.0237-8.3969,14.763-9.3848c2.8099-1.7891,3.6441-5.4992,1.855-8.3201-1.7782-2.799-5.5101-3.6332-8.3201-1.844l-19.922,12.667,2.0087-5.7736c1.1306-3.2819-0.6037-6.8602-3.8856-8.0127-3.2819-1.1306-6.8602,0.61467-8.0018,3.8966l-9.5275,27.518c-1.1306,3.2819,0.6037,6.8712,3.8746,8.0127,3.2819,1.1306,6.8602-0.6037,8.0018-3.8856l4.3247-12.524,13.918,14.577c2.3599,2.4587,6.2675,2.5575,8.7372,0.19758,2.4587-2.3489,2.5465-6.2565,0.19757-8.7262"/>
  <path fill="#414042" d="m337.75,237.35c-3.2819-1.1306-6.8602,0.6037-8.0018,3.8966l-3.5014,10.043-14.401,0.011,2.0526-5.9162c1.1415-3.2819-0.6037-6.8602-3.8746-8.0018-3.2929-1.1306-6.8602,0.6037-8.0018,3.8856l-9.5384,27.529c-1.1306,3.2819,0.6037,6.8602,3.8856,7.9908s6.8492-0.59272,7.9908-3.8746l3.5234-10.186,14.412-0.022-2.0855,6.0589c-1.1306,3.2819,0.6037,6.8602,3.8856,8.0018,3.2819,1.1306,6.8602-0.6037,7.9908-3.8856l9.5494-27.529c1.1306-3.2819-0.6037-6.8492-3.8856-8.0018"/>
 </g>
</svg>
