<?xml version="1.0" encoding="UTF-8" standalone="no"?>
<!-- Created with Inkscape (http://www.inkscape.org/) -->

<svg
   xmlns:dc="http://purl.org/dc/elements/1.1/"
   xmlns:cc="http://creativecommons.org/ns#"
   xmlns:rdf="http://www.w3.org/1999/02/22-rdf-syntax-ns#"
   xmlns:svg="http://www.w3.org/2000/svg"
   xmlns="http://www.w3.org/2000/svg"
   version="1.1"
   width="625"
   height="106.99729"
   id="svg2">
  <metadata
     id="metadata18">
    <rdf:RDF>
      <cc:Work
         rdf:about="">
        <dc:format>image/svg+xml</dc:format>
        <dc:type
           rdf:resource="http://purl.org/dc/dcmitype/StillImage" />
        <dc:title></dc:title>
      </cc:Work>
    </rdf:RDF>
  </metadata>
  <defs
     id="defs16" />
  <g
     transform="translate(-214.47351,-340.03841)"
     id="layer1">
    <path
       d="m 363.61758,421.64583 c -1.6127,2.94821 -3.65376,4.68689 -6.098,4.71209 -2.39385,-0.0252 -4.46011,-1.76388 -6.07281,-4.71209 -1.5875,-2.99861 -2.49464,-6.85396 -2.49464,-11.36446 0,-4.51051 0.90714,-8.36586 2.49464,-11.33926 1.6127,-2.94821 3.67896,-4.6869 6.07281,-4.7121 2.44424,0.0252 4.4853,1.76389 6.098,4.7121 1.18432,2.21745 1.99067,4.91368 2.34345,7.98788 l 27.11343,0 c -0.78114,-8.49185 -4.5861,-16.20255 -10.28093,-21.89738 -6.42558,-6.42558 -15.44659,-10.45732 -25.27395,-10.45732 -9.80217,0 -18.82318,4.03174 -25.22356,10.45732 -6.45078,6.42558 -10.48252,15.4466 -10.45732,25.24876 -0.0252,9.82736 4.00654,18.82317 10.45732,25.24876 0,0.0252 0,0.0504 0,0.0504 6.40038,6.45078 15.42139,10.48252 25.22356,10.45732 9.82736,0.0252 18.84837,-4.00654 25.27395,-10.45732 0,0 -0.0252,-0.0252 0,-0.0504 5.69483,-5.66963 9.49979,-13.38033 10.28093,-21.89738 l -27.11343,0 c -0.35278,3.0994 -1.15913,5.79562 -2.34345,8.01308"
       id="path64732"
       style="fill:#f57c14;fill-opacity:1;fill-rule:nonzero;stroke:none" />
    <path
       d="m 250.17959,374.54253 c -9.80216,0 -18.84837,4.00654 -25.24876,10.45732 -6.45078,6.40039 -10.45732,15.4466 -10.45732,25.24876 l 0,32.80827 27.11344,0 0,-14.46386 0,-17.79005 c 0,-3.90574 0.93234,-7.23193 2.51984,-9.82736 1.5875,-2.57023 3.65376,-4.05693 6.0728,-4.05693 2.41905,0 4.48531,1.4867 6.07281,4.05693 1.5875,2.59543 2.51984,5.92162 2.51984,9.82736 l 0,32.25391 27.11343,0 0,-32.80827 c 0,-9.80216 -4.00654,-18.84837 -10.45732,-25.24876 -6.40038,-6.45078 -15.44659,-10.45732 -25.24876,-10.45732"
       id="path64736"
       style="fill:#f57c14;fill-opacity:1;fill-rule:nonzero;stroke:none" />
    <path
       d="m 459.50491,394.54751 c 3.80495,-6.45078 1.66309,-14.74104 -4.78769,-18.54599 -6.45078,-3.83015 -14.76624,-1.68829 -18.5712,4.78769 l -12.2716,21.92257 0,-14.61505 c 0,-7.48391 -6.0476,-13.55672 -13.55672,-13.55672 -7.48391,0 -13.55671,6.07281 -13.55671,13.55672 l 0,54.95763 27.11343,0 0,-21.6202 14.36307,22.07377 22.37614,0 c 3.98135,0 5.82083,-3.98134 2.57024,-8.86983 l -13.9599,-21.4186 z"
       id="path64740"
       style="fill:#f57c14;fill-opacity:1;fill-rule:nonzero;stroke:none" />
    <path
       d="m 315.05782,365.76594 c 2.74662,-2.72142 4.40971,-6.50118 4.40971,-10.65891 0,-4.15773 -1.66309,-7.93748 -4.40971,-10.6589 -2.72143,-2.72143 -6.50118,-4.40972 -10.65891,-4.40972 -4.15773,0 -7.93748,1.68829 -10.63371,4.43492 -2.74662,2.69622 -4.43491,6.47597 -4.43491,10.6337 0,4.15773 1.68829,7.93749 4.43491,10.65891 l 3.30099,3.32619 c 5.56883,5.56883 5.97201,7.03034 0.68035,12.32199 l -3.0238,3.02381 c -2.49464,2.46944 -4.00654,5.89641 -4.00654,9.67617 l 0,48.93522 27.39062,0 0,-48.93522 c 0,-3.77976 -1.5371,-7.20673 -4.00654,-9.67617 l -3.0238,-3.02381 c -5.29166,-5.26645 -4.91369,-6.75316 0.65515,-12.32199 z"
       id="path64744"
       style="fill:#f57c14;fill-opacity:1;fill-rule:nonzero;stroke:none" />
    <path
       d="m 521.80786,374.53245 -42.50964,0 c -7.48391,0 -13.55672,6.07281 -13.53152,13.55672 0,7.50911 6.0728,13.55672 13.55672,13.55672 l 7.6603,0 0.0252,41.35051 27.11344,-0.0252 -0.0252,-41.32531 7.6855,0 c 7.48391,0 13.55672,-6.04761 13.55672,-13.55672 0.0252,-7.48391 -6.04761,-13.55672 -13.53152,-13.55672"
       id="path64748"
       style="fill:#eb1628;fill-opacity:1;fill-rule:nonzero;stroke:none" />
    <path
       d="m 798.20365,405.10562 c -10.20534,-4.5357 -15.57259,-6.22399 -15.74898,-9.90295 -0.15119,-3.27579 3.40178,-3.90575 4.6365,-3.90575 7.20673,0 7.7359,7.28233 7.7359,8.97062 l 21.94777,0 c 0,-12.47319 -11.23847,-25.32435 -30.46482,-25.32435 -16.50492,0 -27.693,11.23846 -27.693,21.92257 0,4.00654 1.83948,12.07002 19.67992,20.0075 10.20534,4.5357 15.59779,6.224 15.74898,9.92815 0.17639,3.27579 -3.37658,4.20813 -4.6365,4.20813 -7.18153,0 -7.7359,-7.6351 -7.7359,-9.29819 l -21.94777,0 c 0,12.47318 11.23847,25.32435 30.46482,25.32435 16.50493,0 27.693,-11.26367 27.693,-21.92258 0,-4.03173 -1.83948,-12.09521 -19.67992,-20.0075"
       id="path64752"
       style="fill:#eb1628;fill-opacity:1;fill-rule:nonzero;stroke:none" />
    <path
       d="m 743.68447,385.09561 c -6.42558,-6.45079 -15.47179,-10.48252 -25.29915,-10.45732 -9.82736,-0.0252 -18.84838,4.00653 -25.29916,10.45732 -6.42558,6.42558 -10.45732,15.44659 -10.45732,25.29915 l 0,32.65708 27.16384,0 0,-14.28747 0,-17.81525 c 0,-3.90574 0.93234,-7.25712 2.49463,-9.85255 1.6127,-2.57024 3.70416,-4.05694 6.09801,-4.08214 2.44424,0.0252 4.48531,1.5119 6.098,4.08214 1.5875,2.59543 2.51984,5.94681 2.51984,9.85255 l 0,32.10272 27.13863,0 0,-32.65708 c 0.0252,-9.85256 -4.00654,-18.87357 -10.45732,-25.29915"
       id="path64756"
       style="fill:#eb1628;fill-opacity:1;fill-rule:nonzero;stroke:none" />
    <path
       d="m 649.58623,421.7945 c -1.61269,2.94821 -3.65376,4.71209 -6.098,4.71209 -2.39385,0 -4.48531,-1.76388 -6.07281,-4.71209 -1.5875,-2.99861 -2.51983,-6.85395 -2.51983,-11.36446 0,-4.53571 0.93233,-8.39106 2.51983,-11.38966 1.5875,-2.94821 3.67896,-4.71209 6.07281,-4.71209 2.44424,0 4.48531,1.76388 6.098,4.71209 1.5875,2.9986 2.49464,6.85395 2.51984,11.38966 -0.0252,4.51051 -0.93234,8.36585 -2.51984,11.36446 m 19.20115,-36.66362 c -6.42558,-6.47598 -15.47179,-10.48252 -25.29915,-10.48252 -9.82736,0 -18.84838,4.00654 -25.29916,10.48252 -6.42558,6.42559 -10.45732,15.4466 -10.45732,25.29916 0,9.82736 4.03174,18.84837 10.45732,25.27396 l 0.0252,0 -0.0252,0 c 0.60476,0.60476 2.04107,1.86467 2.11666,1.91507 6.1988,5.31686 14.38827,8.59264 23.1825,8.56744 8.81942,0.0252 16.98369,-3.22539 23.20769,-8.51704 0.0756,-0.1008 1.4867,-1.38591 2.09146,-1.96547 6.45078,-6.42559 10.48252,-15.4466 10.48252,-25.27396 0,-9.85256 -4.03174,-18.87357 -10.48252,-25.29916"
       id="path64760"
       style="fill:#eb1628;fill-opacity:1;fill-rule:nonzero;stroke:none" />
    <path
       d="m 575.96418,421.7945 c -1.6127,2.94821 -3.65377,4.71209 -6.09801,4.71209 -2.39384,0 -4.48531,-1.76388 -6.098,-4.71209 -1.5623,-2.99861 -2.49464,-6.85395 -2.49464,-11.36446 0,-4.53571 0.93234,-8.39106 2.49464,-11.38966 1.61269,-2.94821 3.70416,-4.71209 6.098,-4.71209 2.44424,0 4.48531,1.76388 6.09801,4.71209 1.58749,2.9986 2.51983,6.85395 2.51983,11.38966 0,4.51051 -0.93234,8.36585 -2.51983,11.36446 m 19.20115,-36.66362 c -6.42558,-6.47598 -15.4718,-10.48252 -25.29916,-10.48252 -9.82736,0 -18.84837,4.00654 -25.29915,10.48252 -6.42559,6.42559 -10.45732,15.4466 -10.45732,25.29916 0,9.82736 4.03173,18.84837 10.45732,25.27396 l 0.0252,0 -0.0252,0 c 0.60476,0.60476 2.04106,1.86467 2.11666,1.91507 6.1988,5.31686 14.38826,8.59264 23.18249,8.56744 8.81943,0.0252 16.9837,-3.22539 23.20769,-8.51704 0.0756,-0.1008 1.51191,-1.38591 2.09147,-1.96547 6.45078,-6.42559 10.48252,-15.4466 10.48252,-25.27396 0,-9.85256 -4.03174,-18.87357 -10.48252,-25.29916"
       id="path64764"
       style="fill:#eb1628;fill-opacity:1;fill-rule:nonzero;stroke:none" />
    <path
       d="m 830.12493,376.79778 0.27719,0 4.40971,4.93888 4.38452,-4.93888 0.27718,0 0,9.273 -1.66309,0 0,-5.74522 -2.84742,3.40177 -0.30238,0 -2.87261,-3.40177 0,5.74522 -1.6631,0 z m -6.37518,1.5623 -2.77182,0 0,-1.41111 7.18153,0 0,1.41111 -2.74662,0 0,7.7107 -1.66309,0 z"
       id="path64768"
       style="fill:#eb1628;fill-opacity:1;fill-rule:nonzero;stroke:none" />
  </g>
</svg>
