<svg width="464.52mm" height="108.82mm" version="1.1" viewBox="0 0 464.52 108.82" xmlns="http://www.w3.org/2000/svg">
 <g transform="translate(9229 -3802.4)">
  <g transform="matrix(.62082 0 0 .54641 -9229.2 3835)" fill="#fff">
   <path d="m17.464 129.51-3.432 8.646h-13.728l19.14-49.764h14.124l18.744 49.764h-13.793l-3.234-8.646zm9.042-25.739h-0.132l-5.346 15.84h10.758z"/>
   <path d="m97.053 88.39v27.983c0 6.402-0.264 12.738-5.214 17.557-4.158 4.092-10.692 5.544-16.5 5.544s-12.342-1.452-16.5-5.544c-4.95-4.818-5.214-11.154-5.214-17.557v-27.983h12.936v26.202c0 6.468 0.462 13.529 8.778 13.529s8.778-7.062 8.778-13.529v-26.202z"/>
   <path d="m131.42 101.19c-2.376-1.98-5.412-3.3-8.58-3.3-2.376 0-5.544 1.386-5.544 4.158 0 2.903 3.498 4.025 5.742 4.752l3.3 0.989c6.93 2.046 12.276 5.544 12.276 13.597 0 4.949-1.188 10.031-5.148 13.397-3.894 3.3-9.108 4.687-14.124 4.687-6.27 0-12.408-2.112-17.49-5.677l5.544-10.428c3.234 2.838 7.062 5.148 11.484 5.148 3.036 0 6.27-1.519 6.27-5.017 0-3.63-5.082-4.884-7.854-5.676-8.118-2.31-13.464-4.422-13.464-14.058 0-10.099 7.194-16.698 17.16-16.698 5.016 0 11.154 1.584 15.576 4.092z"/>
   <path d="m163.88 138.15h-12.936v-38.807h-10.692v-10.956h34.32v10.956h-10.692z"/>
   <path d="m219.8 138.15h-16.104l-12.21-19.14h-0.132v19.14h-12.936v-49.763h19.338c9.834 0 17.292 4.686 17.292 15.312 0 6.864-3.828 12.804-10.89 14.059zm-28.446-27.456h1.254c4.224 0 8.976-0.792 8.976-6.204s-4.752-6.204-8.976-6.204h-1.254z"/>
   <path d="m236.04 138.15h-12.936v-49.763h12.936z"/>
   <path d="m256.7 129.51-3.433 8.646h-13.728l19.14-49.764h14.124l18.744 49.764h-13.794l-3.234-8.646zm9.041-25.739h-0.132l-5.346 15.84h10.758z"/>
  </g>
  <g transform="matrix(.20178 0 0 .20178 -9190.6 3761.3)" fill="#eb5d0b">
   <path d="m177.61 297.44c10.007-9.949 16.174-23.678 16.174-38.845 0-15.204-6.163-28.933-16.174-38.841-9.692-9.637-22.956-15.731-37.635-16.105h-2.854c-14.679 0.37-27.946 6.461-37.637 16.105-10.005 9.908-16.213 23.637-16.213 38.841 0 15.167 6.203 28.896 16.213 38.845l12.191 12.125c20.359 20.288 21.8 25.639 2.445 44.883l-11.1 11.033c-9.086 9.084-14.724 21.556-14.724 35.372v177.71h100.45v-177.71c0-13.816-5.591-26.292-14.679-35.372l-11.101-10.995c-19.358-19.25-17.912-24.638 2.446-44.926z"/>
   <path d="m-59.1 329.93c-35.783-0.042-68.614 14.616-92.017 38.078-23.45 23.33-38.125 56.113-38.084 91.885v118.7h98.747v-116.7c0.044-14.222 3.428-26.359 9.204-35.783 5.821-9.277 13.332-14.787 22.146-14.823 8.815 0.036 16.329 5.546 22.15 14.823 5.77 9.424 9.157 21.562 9.204 35.783v116.7h98.788v-118.7c0-35.771-14.675-68.555-38.125-91.885-23.405-23.462-56.229-38.125-92.013-38.078z"/>
   <path d="m353.98 500.17c-5.807 10.701-13.339 17.081-22.087 17.122-8.789-0.045-16.329-6.421-22.131-17.122-5.713-10.84-9.133-24.883-9.133-41.317 0-16.431 3.42-30.428 9.133-41.313 5.802-10.706 13.338-17.082 22.131-17.122 8.748 0.044 16.28 6.416 22.087 17.122 4.248 8.064 7.193 17.863 8.443 29.085h98.641c-2.897-30.912-16.716-58.956-37.41-79.634-23.345-23.452-56.12-38.064-91.761-38.064-35.681 0-68.461 14.608-91.76 38.064-23.425 23.362-38.062 56.14-38.017 91.858-0.044 35.718 14.592 68.498 38.017 91.862 17.971 17.997 49.237 38.065 91.76 38.065 31.913 0 61.491-11.751 84.095-30.993 16.459-14.006 40.881-42.099 45.076-86.707h-98.641c-1.249 11.227-4.195 21.025-8.443 29.094z"/>
   <path d="m722.42 560.1c0-3.284-0.996-6.356-2.604-8.952l-54.094-81.543 37.463-67.773c13.855-23.416 6.039-53.628-17.447-67.432-23.499-13.808-53.797-6.02-67.644 17.442l-44.715 79.686v-53.147c0-27.179-22.103-49.212-49.369-49.212-27.263 0-49.401 22.034-49.401 49.212v198.95h98.771v-77.9l52.104 77.864 79.752-0.045c9.502-9e-3 17.184-7.675 17.184-17.152z"/>
   <polygon points="800.8 340.86 800.02 340.86 784.47 358.84 768.86 340.86 767.9 340.86 767.9 374.56 773.79 374.56 773.79 353.69 783.93 366.1 785.02 366.1 795.16 353.69 795.16 374.56 800.8 374.56"/>
   <polygon points="751.19 374.56 745.3 374.56 745.3 346.56 735.58 346.56 735.58 341.42 760.91 341.42 760.91 346.56 751.19 346.56"/>
  </g>
 </g>
 <path d="m267.77 9.4786e-4c-20.359 0-38.107 11.191-47.431 27.758l11.395 6.4075c7.083-12.587 20.566-21.094 36.038-21.094 22.824 0 41.327 18.509 41.327 41.336 0 22.831-18.502 41.336-41.327 41.336-15.449 0-28.915-8.4824-36.004-21.041l-11.395 6.4112c9.33 16.536 27.062 27.702 47.401 27.702 30.041 0 54.394-24.358 54.394-54.409 0-30.048-24.354-54.409-54.394-54.409" fill="#fdc600" stroke-width=".24418"/>
 <path d="m280.5 61.607c-2.5109 4.4349-7.2728 7.4276-12.731 7.4276-8.078 0-14.627-6.5482-14.627-14.627 0-8.078 6.5485-14.627 14.627-14.627 5.4827 0 10.255 3.0175 12.759 7.4804l11.384-6.4042c-4.7407-8.4366-13.779-14.141-24.143-14.141-15.291 0-27.684 12.397-27.684 27.692 0 15.291 12.393 27.692 27.684 27.692 10.343 0 19.364-5.6799 24.115-14.089z" fill="#fdc600" stroke-width=".24418"/>
 <path d="m340.44 17.787c-0.87345 1.019-1.3806 2.8-1.3806 6.2891v3.0547c0 3.4551 0.50719 5.2361 1.3806 6.2189 0.69151 0.79834 1.5991 1.1259 2.6908 1.1259 1.5991 0 2.9091-0.65278 3.8531-2.6908l4.7993 2.0744c-1.5991 3.8894-4.654 5.707-8.6524 5.707-2.436 0-4.3262-0.6529-5.8184-1.8539-2.436-1.9265-3.7075-5.345-3.7075-10.545v-3.3074c0-5.0542 1.2714-8.4 3.7075-10.363 1.4921-1.1646 3.3825-1.9288 5.8184-1.9288 3.9258 0 7.0534 1.7833 8.6524 5.8911l-4.7993 2.0722c-0.87132-2.2541-2.3633-2.8728-3.8531-2.8728-1.1281 0-1.9993 0.36389-2.6908 1.1281" fill="#fff" stroke-width=".24418"/>
 <path d="m361 17.787c-0.87345 1.019-1.383 2.8-1.383 6.2891v3.0547c0 3.4551 0.50956 5.2361 1.383 6.2189 0.69152 0.79834 1.5991 1.1259 2.6907 1.1259 1.0897 0 1.9994-0.3275 2.691-1.1259 0.87107-0.98266 1.3806-2.7637 1.3806-6.2189v-3.0547c0-3.4893-0.50957-5.2703-1.3806-6.2891-0.69151-0.76424-1.565-1.1281-2.691-1.1281-1.1281 0-1.9992 0.36389-2.6907 1.1281m-3.1276 19.925c-2.436-1.9265-3.7075-5.345-3.7075-10.545v-3.3074c0-5.0542 1.2714-8.4 3.7075-10.363 1.4923-1.1646 3.3822-1.8925 5.8181-1.9288 2.4363 0.03636 4.3262 0.76424 5.8184 1.9288 2.436 1.9629 3.7075 5.3087 3.7075 10.363v3.4527c0 5.0542-1.2714 8.4729-3.7075 10.399-1.4923 1.201-3.3822 1.8539-5.8184 1.8539-2.436 0-4.3259-0.6529-5.8181-1.8539" fill="#fff" stroke-width=".24418"/>
 <path d="m381.19 39.204h-5.0542l3.1639-27.27h5.1271l4.69 17.234 4.69-17.234h5.0905l3.2002 27.27h-5.0542l-1.7083-14.944-4.0738 14.944h-4.2899l-4.108-14.944z" fill="#fff" stroke-width=".24418"/>
 <path d="m420.8 17.023h-9.0233v5.7818h7.8222v5.0905h-7.8222v6.2164h9.0233v5.0905h-14.478v-27.27h14.478z" fill="#fff" stroke-width=".24418"/>
 <path d="m433.49 34.113c1.5285 0 2.6907-0.54583 3.4551-1.6354 0.76211-1.1281 1.126-2.8363 1.126-5.1631v-4.3287c0-1.9265-0.36388-3.4163-1.126-4.4355-0.76425-1.0168-1.9265-1.5262-3.4551-1.5262h-2.6545v17.089zm-8.1088-22.179h8.7275c2.9094 0 5.2361 1.126 6.8715 3.0913 1.6356 1.9265 2.5453 4.6174 2.5453 7.7813v4.8723c0 3.4527-0.90971 6.3254-2.5453 8.3612-1.6353 1.9993-3.9621 3.1639-6.8715 3.1639h-8.7275z" fill="#fff" stroke-width=".24418"/>
 <path d="m449.41 11.934 4.4718 8.6161 4.4718-8.6161h5.8914l-7.6357 14.143v13.127h-5.4543v-13.127l-7.6357-14.143z" fill="#fff" stroke-width=".24418"/>
 <path d="m438.6 55.695-1.9262 8.0356h5.0536l-1.9265-8.0356c-0.1228-0.53225-0.25014-1.1759-0.38201-1.9265-0.13425-0.7528-0.2139-1.3214-0.23655-1.7103-0.025 0.38891-0.0908 0.94606-0.20006 1.674-0.10921 0.72551-0.23655 1.3805-0.38226 1.9628m5.0902 16.216-0.83484-3.5274h-7.3098l-0.83698 3.5274h-5.5633l7.8192-27.27h4.3988l7.89 27.27z" fill="#fff" stroke-width=".24418"/>
 <path d="m340.44 50.451c-0.87333 1.0167-1.3805 2.7998-1.3805 6.2909v3.0522c0 3.4551 0.50719 5.2358 1.3805 6.2183 0.69139 0.79834 1.5988 1.126 2.6906 1.126 1.5988 0 2.9089-0.6529 3.8528-2.6907l4.799 2.0743c-1.5988 3.8891-4.6534 5.7064-8.6518 5.7064-2.436 0-4.3259-0.65287-5.8178-1.8537-2.4359-1.9262-3.7072-5.3447-3.7072-10.544v-3.3071c0-5.056 1.2713-8.3991 3.7072-10.362 1.492-1.1645 3.3818-1.9287 5.8178-1.9287 3.9258 0 7.053 1.7832 8.6518 5.8908l-4.799 2.0721c-0.87107-2.254-2.3631-2.8725-3.8528-2.8725-1.1281 0-1.9992 0.36388-2.6906 1.128" fill="#fff" stroke-width=".24418"/>
 <path d="m368.5 49.688h-8.3289v5.7815h7.1282v5.0902h-7.1282v6.2158h8.3289v5.0902h-13.783v-27.268h13.783z" fill="#fff" stroke-width=".24418"/>
 <path d="m384.61 60.56v-15.962h4.9809v27.268h-4.799l-7.2872-15.743v15.743h-4.9809v-27.268h4.799z" fill="#fff" stroke-width=".24418"/>
 <path d="m392.33 44.597h15.614v5.0902h-5.0789v22.178h-5.454v-22.178h-5.081z" fill="#fff" stroke-width=".24418"/>
 <path d="m418.85 58.124c2.0355 0 3.5274-1.2736 3.5274-4.253v-0.07273c0-2.7271-1.492-4.1098-3.5274-4.1098h-2.618v8.4357zm-2.618 13.742h-5.454v-27.268h8.6906c4.799 0 8.3606 3.8549 8.3606 9.0181v0.61627c0 3.4914-1.5988 6.3275-4.1077 7.8537l3.9984 9.7796h-5.4879l-3.5278-8.6515h-2.4723z" fill="#fff" stroke-width=".24418"/>
 <path d="m456.59 66.777h7.9217v5.0902h-13.376v-27.268h5.454z" fill="#fff" stroke-width=".24418"/>
 <path d="m378.38 80.048c2.0881-1.6475 4.9254-2.0931 7.4993-1.6234 1.8871 0.3286 3.6874 1.3148 4.8533 2.8546 0.8744 1.1417 1.3988 2.5257 1.6091 3.9432l-4.9135 1.4465c-0.17979-0.90492-0.49385-1.8456-1.2164-2.4644-0.79858-0.72014-1.951-0.86512-2.9797-0.71751-0.92879 0.1426-1.8244 0.75732-2.1172 1.6768-0.25944 0.84388-0.18767 1.8499 0.40991 2.5393 0.65073 0.77044 1.5783 1.2295 2.4752 1.6515 1.3308 0.61618 2.772 0.96071 4.0802 1.6289 1.601 0.76782 3.0821 1.9255 3.9325 3.5131 0.87559 1.6117 1.0101 3.5213 0.78783 5.3124-0.29282 2.2331-1.6701 4.2746-3.597 5.4296-1.9203 1.1951-4.2746 1.5292-6.493 1.2376-1.9444-0.23941-3.8821-1.0273-5.2406-2.4725-1.2164-1.2283-1.8976-2.8984-2.1518-4.5899l5.1729-1.5531c0.11708 0.88896 0.40036 1.7965 1.0392 2.4539 0.86655 0.9276 2.2477 1.2335 3.4682 1.006 1.0833-0.20364 2.0562-1.0208 2.3264-2.1067 0.19696-0.90877 0.10778-1.9548-0.54583-2.6669-0.72514-0.77307-1.7393-1.1789-2.712-1.5409-1.9525-0.64954-3.9007-1.44-5.5163-2.7415-1.1045-0.88108-2.0202-2.0347-2.4914-3.3764-0.37915-1.0139-0.46714-2.1079-0.43519-3.1832-0.0145-2.1773 1.0234-4.3332 2.7561-5.6573z" fill="#fff" stroke-width=".24418"/>
 <path d="m340.98 89.986-1.9265 8.0356h5.0536l-1.9265-8.0356c-0.12281-0.53225-0.25014-1.1758-0.38214-1.9265-0.13413-0.7528-0.21377-1.3215-0.23643-1.7102-0.025 0.38891-0.091 0.94594-0.20018 1.674-0.10921 0.72539-0.23655 1.3804-0.38214 1.9627m5.0902 16.217-0.8346-3.5278h-7.31l-0.83698 3.5278h-5.5633l7.8192-27.271h4.3986l7.89 27.271z" fill="#fff" stroke-width=".24418"/>
 <path d="m353.73 78.623v16.806c0.0799 2.4141 0.33074 4.9333 1.5471 7.072 0.81458 1.3532 1.8685 2.3469 3.2234 3.0517 0.83435 0.43281 1.7417 0.72728 2.6692 0.86512 0.65146 0.10921 1.3156 0.15738 1.978 0.15452 0.66242 3e-3 1.3268-0.0451 1.9784-0.15452 0.92641-0.13758 1.8325-0.43182 2.6659-0.86368 1.3272-0.67244 2.5121-1.8072 3.2262-3.0531 1.2164-2.1387 1.4672-4.6577 1.5471-7.072v-16.806h-5.5459v16.744c-0.051 1.3442-0.0324 2.6199-0.48383 3.8626-0.52556 1.0938-1.2438 1.7872-2.3342 2.0467-0.37316 0.0739-0.72276 0.11684-1.0535 0.12185-0.35983-0.0107-0.74636-0.0527-1.0537-0.12185-1.0509-0.21199-1.9975-1.1684-2.3342-2.0467-0.44068-1.2276-0.45258-2.6211-0.48384-3.8699v-16.736h-5.5404z" fill="#fff" stroke-width=".24418"/>
 <path d="m395.31 78.934h15.614v5.0902h-5.0786v22.177h-5.454l-5.3e-4 -22.177h-5.0807z" fill="#fff" stroke-width=".24418"/>
 <path d="m422.78 92.462c2.0357 0 3.5274-1.2736 3.5274-4.253v-0.07273c0-2.727-1.4918-4.1098-3.5274-4.1098h-2.6178v8.4357zm-2.6178 13.742h-5.454v-27.268h8.6906c4.799 0 8.3603 3.8549 8.3603 9.0181v0.61615c0 3.4911-1.5988 6.3272-4.1074 7.8533l3.9981 9.7799h-5.4879l-3.5278-8.6518h-2.472z" fill="#fff" stroke-width=".24418"/>
 <path d="m435.5 78.934h5.4543v27.268h-5.4543z" fill="#fff" stroke-width=".24418"/>
 <path d="m453.33 89.986-1.9265 8.0356h5.0539l-1.9265-8.0356c-0.1228-0.53225-0.25014-1.1758-0.38201-1.9265-0.13425-0.7528-0.2139-1.3215-0.23655-1.7102-0.025 0.38891-0.0911 0.94594-0.2003 1.674-0.10921 0.72539-0.23655 1.3804-0.38202 1.9627m5.0902 16.217-0.83484-3.5278h-7.3098l-0.83698 3.5278h-5.5633l7.8192-27.271h4.3988l7.8897 27.271z" fill="#fff" stroke-width=".24418"/>
</svg>
