<?xml version="1.0" encoding="UTF-8" standalone="no"?>
<svg xmlns:rdf="http://www.w3.org/1999/02/22-rdf-syntax-ns#" xmlns="http://www.w3.org/2000/svg" enable-background="new 0 0 1600 900" xml:space="preserve" viewBox="0 0 600 132.01724" height="132.02" width="600" version="1.1" x="0px" y="0px" xmlns:cc="http://creativecommons.org/ns#" xmlns:dc="http://purl.org/dc/elements/1.1/"><g stroke-width=".42857" fill="#f78f35"><path d="m184.04 100.69c-1.99 3.63-4.53 5.79-7.51 5.8-2.98-0.01-5.53-2.17-7.51-5.8-1.94-3.685-3.1-8.443-3.1-14.021 0-5.567 1.16-10.326 3.1-14.003 1.98-3.637 4.53-5.786 7.51-5.808 2.98 0.022 5.52 2.171 7.51 5.808 1.43 2.731 2.44 6.058 2.87 9.87h33.48c-0.98-10.495-5.67-20.011-12.7-27.017-7.93-7.945-19.05-12.909-31.16-12.907-12.12-0.002-23.23 4.962-31.16 12.907-7.95 7.918-12.91 19.04-12.9 31.15-0.01 12.121 4.95 23.231 12.9 31.161 0.02 0.02 0 0.06 0 0.06 7.93 7.94 19.04 12.91 31.16 12.9 12.11 0.01 23.23-4.96 31.16-12.9 0 0-0.03-0.04 0-0.06 7.03-7.01 11.72-16.52 12.7-27.01h-33.48c-0.43 3.805-1.44 7.129-2.87 9.87"/><path d="m44.059 42.568c-12.111-0.005-23.234 4.959-31.156 12.904-7.9436 7.92-12.908 19.043-12.903 31.153v40.485h33.451l-0.005-17.85v-21.942c0.013-4.828 1.166-8.944 3.112-12.137 1.972-3.15 4.519-5.011 7.501-5.026 2.987 0.015 5.533 1.876 7.502 5.026 1.944 3.193 3.099 7.309 3.109 12.137v39.792h33.447v-40.485c0.01-12.11-4.956-23.232-12.902-31.153-7.925-7.945-19.04-12.909-31.156-12.904"/><path d="m302.36 67.257c4.69-7.953 2.05-18.207-5.91-22.897-7.95-4.692-18.21-2.048-22.9 5.91l-15.14 27.067v-18.045c0-9.232-7.49-16.724-16.73-16.724-9.23 0-16.72 7.491-16.72 16.724v67.818h33.45v-26.69l17.71 27.25s21.49-0.01 27.63-0.01c4.89 0 7.15-4.91 3.15-10.93l-17.22-26.452z"/><path d="m124.11 31.737c3.37-3.364 5.45-8.012 5.45-13.146 0-5.137-2.08-9.7804-5.45-13.155-3.36-3.3587-8.01-5.436-13.14-5.436-5.14 0-9.78 2.0777-13.151 5.4442-3.361 3.3664-5.448 8.0098-5.448 13.148 0 5.133 2.087 9.782 5.448 13.146l4.111 4.107c6.85 6.859 7.34 8.673 0.82 15.189l-3.732 3.739c-3.062 3.058-4.949 7.285-4.949 11.953v60.384h33.801v-60.385c0-4.668-1.89-8.895-4.95-11.953l-3.73-3.731c-6.53-6.516-6.04-8.34 0.82-15.196z"/></g><g stroke-width=".42857" fill="#9543c8"><path d="m376.95 42.568c-9.24 0-16.73 7.492-16.73 16.724v18.069h-11.87v-18.069c0-9.232-7.49-16.724-16.73-16.724-9.23 0-16.72 7.492-16.72 16.724v67.818h33.45v-26.93h11.87v26.93h33.45v-67.818c0-9.232-7.49-16.724-16.72-16.724z"/><path d="m567.24 80.279c-12.9-4.234-20.34-6.57-19.44-12.231 0.64-4.004 5.26-4.793 6.8-4.793 8.88 0 9.17 9.105 8.48 11.052h27.08c1.13-15.51-13.88-31.248-37.59-31.241-20.37-0.007-34.17 13.886-34.17 27.032 0 4.978 1.38 17.192 24.28 24.704 12.91 4.231 20.35 6.568 19.44 12.238-0.63 4-5.26 4.79-6.8 4.79-8.88 0-9.16-9.11-8.48-11.06h-27.08c-1.13 15.52 13.88 31.25 37.59 31.25 20.37 0 34.18-13.89 34.18-27.04 0-4.98-1.39-17.182-24.29-24.701z"/><path d="m499.11 42.555h-43.63c-9.24 0.008-16.72 7.498-16.71 16.737 0 9.234 7.5 16.716 16.73 16.709h5.06l0.03 51.029 33.45-0.02-0.04-51.009h5.09c9.24 0.007 16.73-7.475 16.73-16.709 0.01-9.239-7.47-16.729-16.71-16.737z"/><path d="m417.59 79.725c-9.25 0.003-16.75 7.507-16.74 16.76l0.04 30.625h33.49l-0.04-30.648c0-9.248-7.51-16.745-16.75-16.737z"/><path d="m417.59 75.693c9.15 0 16.56-7.416 16.56-16.561 0-9.153-7.41-16.564-16.56-16.564s-16.57 7.411-16.57 16.564c0 9.145 7.42 16.561 16.57 16.561z"/><path d="m586.41 44.335h-2.39v-1.217h6.2v1.217h-2.38v6.653h-1.43v-6.653zm5.51-1.35h0.24l3.81 4.265 3.79-4.265h0.24v8.002h-1.43v-4.956l-2.47 2.942h-0.26l-2.49-2.942v4.956h-1.43z"/></g></svg>
