<svg width="600" height="240.7" enable-background="new -189 203.44 990 385.12" version="1.1" viewBox="-189 203.44 600 240.7" xml:space="preserve" xmlns="http://www.w3.org/2000/svg"><g transform="matrix(.36333 0 0 .36333 -120.26 179.97)" fill="#f58220" stroke-width="2.2241"><path d="m177.61 297.44c10.007-9.949 16.174-23.678 16.174-38.845 0-15.204-6.163-28.933-16.174-38.841-9.692-9.637-22.956-15.731-37.635-16.105h-2.854c-14.679 0.37-27.946 6.461-37.637 16.105-10.005 9.908-16.213 23.637-16.213 38.841 0 15.167 6.203 28.896 16.213 38.845l12.191 12.125c20.359 20.288 21.8 25.639 2.445 44.883l-11.1 11.033c-9.086 9.084-14.724 21.556-14.724 35.372v177.71h100.45v-177.71c0-13.816-5.591-26.292-14.679-35.372l-11.101-10.995c-19.358-19.25-17.912-24.638 2.446-44.926z"/><path d="m-59.1 329.93c-35.783-0.042-68.614 14.616-92.017 38.078-23.45 23.33-38.125 56.113-38.084 91.885v118.7h98.747v-116.7c0.044-14.222 3.428-26.359 9.204-35.783 5.821-9.277 13.332-14.787 22.146-14.823 8.815 0.036 16.329 5.546 22.15 14.823 5.77 9.424 9.157 21.562 9.204 35.783v116.7h98.788v-118.7c0-35.771-14.675-68.555-38.125-91.885-23.405-23.462-56.229-38.125-92.013-38.078z"/><path d="m353.98 500.17c-5.807 10.701-13.339 17.081-22.087 17.122-8.789-0.045-16.329-6.421-22.131-17.122-5.713-10.84-9.133-24.883-9.133-41.317 0-16.431 3.42-30.428 9.133-41.313 5.802-10.706 13.338-17.082 22.131-17.122 8.748 0.044 16.28 6.416 22.087 17.122 4.248 8.064 7.193 17.863 8.443 29.085h98.641c-2.897-30.912-16.716-58.956-37.41-79.634-23.345-23.452-56.12-38.064-91.761-38.064-35.681 0-68.461 14.608-91.76 38.064-23.425 23.362-38.062 56.14-38.017 91.858-0.044 35.718 14.592 68.498 38.017 91.862 17.971 17.997 49.237 38.065 91.76 38.065 31.913 0 61.491-11.751 84.095-30.993 16.459-14.006 40.881-42.099 45.076-86.707h-98.641c-1.249 11.227-4.195 21.025-8.443 29.094z"/><path d="m722.42 560.1c0-3.284-0.996-6.356-2.604-8.952l-54.094-81.543 37.463-67.773c13.855-23.416 6.039-53.628-17.447-67.432-23.499-13.808-53.797-6.02-67.644 17.442l-44.715 79.686v-53.147c0-27.179-22.103-49.212-49.369-49.212-27.263 0-49.401 22.034-49.401 49.212v198.95h98.771v-77.9l52.104 77.864 79.752-0.045c9.502-9e-3 17.184-7.675 17.184-17.152z"/><polygon points="784.47 358.84 768.86 340.86 767.9 340.86 767.9 374.56 773.79 374.56 773.79 353.69 783.93 366.1 785.02 366.1 795.16 353.69 795.16 374.56 800.8 374.56 800.8 340.86 800.02 340.86"/><polygon points="745.3 346.56 735.58 346.56 735.58 341.42 760.91 341.42 760.91 346.56 751.19 346.56 751.19 374.56 745.3 374.56"/></g><path d="m410.39 323.48c0 16.588-3.1644 32.241-9.4874 46.963-6.323 14.717-14.875 27.521-25.656 38.404-10.781 10.885-23.53 19.485-38.246 25.809-14.723 6.323-30.376 9.4874-46.963 9.4874-22.388 0-42.864-5.7034-61.418-17.104-18.556-11.4-33.01-26.33-43.38-44.783l25.188-13.684c7.671 13.684 18.659 24.775 32.964 33.279 14.31 8.4974 29.859 12.749 46.648 12.749 12.439 0 24.259-2.387 35.452-7.1552 11.195-4.7678 20.888-11.242 29.076-19.437 8.1934-8.1876 14.723-17.826 19.595-28.917 4.8712-11.091 7.3068-22.959 7.3068-35.61v0.62564c0-12.652-2.4356-24.52-7.3068-35.61-4.8712-11.091-11.401-20.73-19.595-28.917-8.1876-8.1934-17.882-14.668-29.076-19.437-11.195-4.7678-23.013-7.1548-35.452-7.1548-16.789 0-32.337 4.2518-46.648 12.749-14.304 8.5036-25.292 19.595-32.964 33.279l-25.188-13.684c10.368-18.452 24.823-33.381 43.38-44.783 18.556-11.401 39.031-17.104 61.418-17.104 16.588 0 32.241 3.1644 46.963 9.4874 14.717 6.323 27.466 14.924 38.246 25.809 10.781 10.885 19.333 23.688 25.656 38.404 6.323 14.723 9.4874 30.376 9.4874 46.963z" fill-opacity=".94118" fill-rule="evenodd" stroke-width="3.5433"/><path d="m392.67 407.88c0 0.08 0.08 0.13326 0.13327 0.13326h0.26658c0.0799 0 0.13322-0.0533 0.13322-0.13326v-4.3712h1.2526c0.08 0 0.13331-0.08 0.13331-0.15992v-0.18657c0-0.08-0.0533-0.13328-0.13331-0.13328h-3.0384c-0.08 0-0.13322 0.0533-0.13322 0.13328v0.18657c0 0.08 0.0533 0.15992 0.13322 0.15992h1.2526v4.3712z" stroke-width="1.1545"/><path d="m394.92 407.83c-0.027 0.10662 0.027 0.15993 0.13331 0.15993h0.2932c0.0533 0 0.1066-0.0267 0.1066-0.08l0.63967-3.6782h0.0265l1.306 3.7581c0.027 0.0533 0.0799 0.08 0.13323 0.08h0.13331c0.0533 0 0.1066-0.0267 0.13327-0.08l1.306-3.7581h0.0265l0.63972 3.6782c0 0.0533 0.0533 0.08 0.1066 0.08h0.2932c0.10661 0 0.15989-0.0533 0.13327-0.15993l-0.93283-4.7974c0-0.0533-0.0533-0.10661-0.13331-0.10661h-0.1066c-0.0265 0-0.10661 0.0533-0.10661 0.08l-1.386 3.9447h-0.0534l-1.4126-3.9447c0-0.0267-0.0533-0.08-0.10661-0.08h-0.13331c-0.0533 0-0.1066 0.0533-0.1066 0.10661z" stroke-width="1.1545"/><path d="m318.34 339.96c-2.6968 4.9746-6.5842 8.965-11.662 11.972-5.0838 3.0065-10.629 4.5065-16.642 4.5065-8.9106 0-16.533-3.1586-22.855-9.4811-6.323-6.323-9.4811-13.946-9.4811-22.855 0-8.9168 3.1586-16.588 9.4811-23.013 6.323-6.4264 13.946-9.6389 22.855-9.6389 6.0132 0 11.558 1.6035 16.642 4.8163 5.0776 3.2129 8.965 7.2038 11.662 11.972l25.188-14.304c-5.1873-9.3296-12.543-16.843-22.079-22.546-9.5423-5.6976-20.008-8.5522-31.416-8.5522-8.291 0-16.168 1.6096-23.634 4.8226-7.4646 3.2129-13.94 7.568-19.437 13.059-5.4907 5.4966-9.8458 11.972-13.059 19.437-3.2129 7.4646-4.8226 15.446-4.8226 23.949 0 8.4974 1.6096 16.479 4.8226 23.944 3.2132 7.4646 7.568 13.94 13.059 19.437 5.497 5.497 11.972 9.8458 19.437 13.059 7.4646 3.2129 15.342 4.8226 23.634 4.8226 11.2 0 21.617-2.9033 31.255-8.71 9.6389-5.8005 17.05-13.265 22.236-22.388z" fill-opacity=".94118" fill-rule="evenodd" stroke-width="3.5433"/><g transform="matrix(.87536 0 0 .87536 166.25 222.15)" fill-opacity=".94118" stroke-width="1.1464"><path d="m249.66 10.495v-7.4414h-7.5v-5.1367h7.5v-7.4414h5v7.4414h7.5195v5.1367h-7.5195v7.4414z"/><path d="m279.6 14.616h-5.4883v-20.684c-2.0052 1.875-4.3685 3.2617-7.0898 4.1602v-4.9805c1.4323-0.46873 2.9883-1.3574 4.668-2.666s2.832-2.8353 3.457-4.5801h4.4531z"/></g></svg>
