<svg xmlns="http://www.w3.org/2000/svg" width="990" height="385.12" viewBox="-189 203.44 990 385.12">
    <g fill="#F58220">
        <path d="M177.614 297.445c10.007-9.949 16.174-23.678 16.174-38.845 0-15.204-6.163-28.933-16.174-38.841-9.692-9.637-22.956-15.731-37.635-16.105h-2.854c-14.679.37-27.946 6.461-37.637 16.105-10.005 9.908-16.213 23.637-16.213 38.841 0 15.167 6.203 28.896 16.213 38.845l12.191 12.125c20.359 20.288 21.8 25.639 2.445 44.883l-11.1 11.033C93.938 374.57 88.3 387.042 88.3 400.858v177.714h100.454v-177.71c0-13.816-5.591-26.292-14.679-35.372l-11.101-10.995c-19.358-19.25-17.912-24.638 2.446-44.926l12.194-12.124zM-59.1 329.926c-35.783-.042-68.614 14.616-92.017 38.078-23.45 23.33-38.125 56.113-38.084 91.885v118.697h98.747V461.887c.044-14.222 3.428-26.359 9.204-35.783 5.821-9.277 13.332-14.787 22.146-14.823 8.815.036 16.329 5.546 22.15 14.823 5.77 9.424 9.157 21.562 9.204 35.783v116.699h98.788V459.889c0-35.771-14.675-68.555-38.125-91.885-23.405-23.462-56.229-38.125-92.013-38.078zM353.985 500.168c-5.807 10.701-13.339 17.081-22.087 17.122-8.789-.045-16.329-6.421-22.131-17.122-5.713-10.84-9.133-24.883-9.133-41.317 0-16.431 3.42-30.428 9.133-41.313 5.802-10.706 13.338-17.082 22.131-17.122 8.748.044 16.28 6.416 22.087 17.122 4.248 8.064 7.193 17.863 8.443 29.085h98.641c-2.897-30.912-16.716-58.956-37.41-79.634-23.345-23.452-56.12-38.064-91.761-38.064-35.681 0-68.461 14.608-91.76 38.064-23.425 23.362-38.062 56.14-38.017 91.858-.044 35.718 14.592 68.498 38.017 91.862 17.971 17.997 49.237 38.065 91.76 38.065 31.913 0 61.491-11.751 84.095-30.993 16.459-14.006 40.881-42.099 45.076-86.707h-98.641c-1.249 11.227-4.195 21.025-8.443 29.094zM722.418 560.104c0-3.284-.996-6.356-2.604-8.952l-54.094-81.543 37.463-67.773c13.855-23.416 6.039-53.628-17.447-67.432-23.499-13.808-53.797-6.02-67.644 17.442l-44.715 79.686v-53.147c0-27.179-22.103-49.212-49.369-49.212-27.263 0-49.401 22.034-49.401 49.212v198.952h98.771v-77.9l52.104 77.864 79.752-.045c9.502-.009 17.184-7.675 17.184-17.152zM800.8 374.563v-33.708h-.785l-15.544 17.987-15.613-17.987h-.957v33.708h5.893v-20.876l10.132 12.413h1.095l10.135-12.413v20.876zM745.299 346.562h-9.722v-5.145h25.334v5.145h-9.721v28.001h-5.891z"/>
    </g>
</svg>
