<svg xmlns="http://www.w3.org/2000/svg" height="355.79" width="600" viewBox="0 0 158.75 94.135">
    <g fill="#f58113">
        <path d="M158.69 19.976l-.93 1.053-.94-1.053h-.06v1.973h.35v-1.22l.62.722h.06l.61-.722v1.22h.35v-1.973zm-3.88.034v.3h.59v1.639h.35V20.31h.59v-.3zM7.607 7.384A7.612 7.612 0 0 0 0 14.996v6.952h5.776v-6.834c.003-.832.2-1.546.537-2.096.34-.544.78-.865 1.294-.868.516.003.955.324 1.297.868.336.55.534 1.264.537 2.096v6.834h5.773v-6.952a7.593 7.593 0 0 0-2.227-5.383 7.583 7.583 0 0 0-5.38-2.229M145.84 7.384a7.592 7.592 0 0 0-5.38 2.229 7.617 7.617 0 0 0-2.23 5.383v6.952H144v-6.834c.01-.832.21-1.546.54-2.096.34-.544.78-.865 1.3-.868.51.003.95.324 1.29.868.34.55.54 1.264.54 2.096v6.834h5.77v-6.952a7.592 7.592 0 0 0-7.6-7.612M21.429 5.512a3.2 3.2 0 0 0 .94-2.27 3.2 3.2 0 0 0-.94-2.273c-.58-.581-1.384-.94-2.27-.94s-1.687.359-2.27.94a3.2 3.2 0 0 0-.94 2.273 3.2 3.2 0 0 0 .94 2.27l.709.711c1.184 1.184 1.268 1.497.144 2.622l-.645.647a2.912 2.912 0 0 0-.855 2.065v10.391h5.835V11.557c0-.806-.327-1.535-.853-2.065l-.645-.647c-1.125-1.125-1.042-1.438.139-2.624zM31.773 17.424c-.341.629-.78 1.002-1.294 1.002-.516 0-.955-.373-1.297-1.002-.334-.634-.534-1.458-.537-2.422.003-.96.203-1.784.537-2.419.342-.629.781-.999 1.297-1.004.514.005.953.375 1.294 1.004.249.473.422 1.045.496 1.706h5.781a7.6 7.6 0 0 0-2.193-4.667 7.6 7.6 0 0 0-10.758 0 7.596 7.596 0 0 0-2.227 5.38 7.615 7.615 0 0 0 2.227 5.386c1.053 1.05 2.889 2.229 5.38 2.229a7.593 7.593 0 0 0 4.928-1.818 7.529 7.529 0 0 0 2.643-5.08h-5.781c-.074.657-.247 1.233-.496 1.705M58.53 13.632c.103-.444.244-.837.38-1.127.257-.552.778-1.002 1.295-1.002.521 0 .945.368 1.307 1.022.154.283.298.773.362 1.097zm1.675-6.253a7.578 7.578 0 0 0-5.378 2.229 7.613 7.613 0 0 0 5.413 12.995c2.258 0 4.128-1.009 5.391-2.275 1.587-1.826 1.664-3.776 1.664-3.776h-5.146s-.714 1.798-1.944 1.798c-.517-.003-.953-.375-1.295-1.002a4.687 4.687 0 0 1-.477-1.556h8.965s.611-3.662-1.839-6.138c-1.425-1.44-3.241-2.278-5.354-2.275M112.59 13.632c.1-.444.24-.837.38-1.127.25-.552.78-1.002 1.29-1.002.52 0 .94.368 1.3 1.022.16.283.3.773.37 1.097zm1.67-6.253a7.592 7.592 0 0 0-5.38 2.229c-1.37 1.366-2.23 3.29-2.23 5.383s.86 4.014 2.23 5.383a7.605 7.605 0 0 0 5.42 2.229c2.25 0 4.12-1.009 5.38-2.275 1.59-1.826 1.67-3.776 1.67-3.776h-5.15s-.71 1.798-1.94 1.798c-.51-.003-.96-.375-1.29-1.002-.24-.436-.4-.96-.48-1.556h8.96s.61-3.662-1.83-6.138c-1.43-1.44-3.25-2.278-5.36-2.275M71.106.002a2.888 2.888 0 0 0-2.887 2.891l.008 19.053H74l-.007-19.058A2.887 2.887 0 0 0 71.106.002M82.406 18.424c-1.01 0-1.831-1.536-1.831-3.428 0-1.893.821-3.429 1.831-3.429 1.014 0 1.833 1.536 1.833 3.429 0 1.892-.819 3.428-1.833 3.428m0-11.04a7.608 7.608 0 0 0-7.607 7.612 7.608 7.608 0 0 0 15.214 0 7.607 7.607 0 0 0-7.607-7.612M129.91 18.424c-1.01 0-1.83-1.536-1.83-3.428 0-1.893.82-3.429 1.83-3.429s1.83 1.536 1.83 3.429c0 1.892-.82 3.428-1.83 3.428m0-11.04a7.612 7.612 0 0 0 0 15.224 7.613 7.613 0 0 0 0-15.224"/>
        <path d="M98.313 18.424c-1.012 0-1.834-1.536-1.834-3.428 0-1.893.822-3.429 1.834-3.429 1.011 0 1.837 1.536 1.837 3.429 0 1.892-.826 3.428-1.837 3.428m7.607-3.428l.01.007-.01-12.114A2.887 2.887 0 0 0 103.03 0a2.89 2.89 0 0 0-2.88 2.892v4.725a7.616 7.616 0 0 0-7.218 2.003 7.623 7.623 0 0 0 0 10.766c.879.881 2.758 2.232 5.381 2.232 2.627 0 4.507-1.351 5.377-2.232a7.622 7.622 0 0 0 2.23-5.383zM53.437 20.938a1 1 0 0 0-.152-.526l-3.164-4.787 2.191-3.976a2.888 2.888 0 1 0-4.975-2.935L44.72 13.39v-3.117a2.887 2.887 0 1 0-5.773 0v11.674h5.773v-4.571l3.049 4.571h4.661a1.011 1.011 0 0 0 1.007-1.009"/>
    </g>
    <g stroke-width=".265" fill="#fff">
        <path d="M151.82 45.518v.661l.96-.005v2.712h.74v-2.712h.96v-.656zM157.63 45.518l-.77 2.196h-.01l-.78-2.196h-1.12v3.363h.74v-2.577h.01l.85 2.577h.57l.88-2.577h.01v2.577h.74v-3.363zM21.165 32.429c-1.651 0-13.061-.127-17.458 8.109-1.527 2.808-1.589 5.488-1.589 6.673-.057 4.802 2.383 7.734 3.727 8.922 2.072 1.871 5.251 3.365 11.168 4.551 3.849.812 6.595 1.188 8.119 1.746 1.278.439 1.77.998 2.075 1.625.063.187.307.561.307 1.058 0 2.18-2.69 3.371-6.534 3.371-2.991 0-7.506-.937-9.95-3.12-.608-.497-1.16-1.182-2.075-2.683L0 71.328c.9 1.035 1.83 1.924 3.098 2.892 5.125 3.932 11.107 4.993 17.395 4.993 1.831 0 9.097.124 14.65-4.056 1.625-1.231 4.633-4.027 5.456-8.935v27.913l12.333-12.692v-6.292c.38.709.994 1.363 1.417 1.672.658.45 1.274.871 1.962 1.125l18.53-19.302c-.874-7.609-4.946-13.93-13.611-13.93-3.6 0-5.978 1.185-7.143 2.119-.365.249-.608.5-1.217 1.252v-2.498H40.6v15.426c-1.163-6.689-6.722-8.719-9.119-9.496-4.273-1.44-8.303-2.001-9.83-2.249-1.158-.188-3.724-.686-4.819-1.374-.616-.436-1.103-1.182-1.103-1.995 0-1.497 1.467-2.182 1.712-2.309 1.28-.561 2.93-.561 3.232-.561 3.236 0 7.572.688 10.073 3.058.368.31.674.686 1.222 1.434l8.094-7.821c-.905-.931-1.643-1.688-2.786-2.534-6.162-4.617-13.914-4.739-16.112-4.739zm36.772 21.95c.611 0 2.256.241 3.352 1.68 1.225 1.614 1.349 4.074 1.349 5.987 0 2.284-.307 5.276-2.566 6.657-1.037.598-1.889.657-2.44.657-.428 0-1.222 0-2.198-.538-2.445-1.317-2.625-4.492-2.625-6.889 0-2.464.124-5.575 2.685-6.956.977-.54 1.958-.598 2.443-.598zM87.458 45.333L74.879 58.496v19.407h12.579zM81.163 45.24c3.469 0 6.282-2.876 6.282-6.424 0-3.546-2.813-6.416-6.282-6.416-3.468 0-6.284 2.87-6.284 6.416 0 3.548 2.816 6.424 6.284 6.424M102.77 68.857l3.3-3.244 6.84 12.29h14.34l-3.69-6.072-.49-.797-8.39-13.777 12.02-11.67h-15.32l-8.61 9.236V29.497L90.199 42.581v35.322h12.571z"/>
        <path d="M137.33 44.772c-1.7 0-7.74.296-12.08 4.548-1.75 1.738-4.62 5.688-4.62 12.094 0 3.276.79 6.422 2.31 9.099l.46.765c1.61 2.497 3.9 4.529 6.84 5.765 2.28.96 4.68 1.318 7.2 1.318s4.93-.358 7.21-1.318c4.53-1.902 7.53-5.678 8.85-10.176h-10.88c-.58 1.223-1.84 2.826-4.55 2.776l-.04-.022c-3.22.056-4.72-2.217-5.13-3.413-.3-.957-.3-2.397-.3-2.397h21.48c0-2.815-.06-5.448-.88-8.144-.64-2.095-1.76-4.13-3.22-5.749-4.39-4.85-10.6-5.146-12.65-5.146zm.23 7.842c.94 0 3.16.357 3.98 2.934.24.778.24 1.376.3 1.736h-9.12c.11-.659.41-3.175 2.63-4.191.36-.18 1.27-.421 2.21-.479z"/>
    </g>
</svg>
