<svg version="1.1" viewBox="0 0 625 107" xmlns="http://www.w3.org/2000/svg">
 <g transform="translate(-214.47 -340.04)">
  <path d="m363.62 421.65c-1.6127 2.9482-3.6538 4.6869-6.098 4.7121-2.3938-0.0252-4.4601-1.7639-6.0728-4.7121-1.5875-2.9986-2.4946-6.854-2.4946-11.364 0-4.5105 0.90714-8.3659 2.4946-11.339 1.6127-2.9482 3.679-4.6869 6.0728-4.7121 2.4442 0.0252 4.4853 1.7639 6.098 4.7121 1.1843 2.2174 1.9907 4.9137 2.3434 7.9879h27.113c-0.78114-8.4918-4.5861-16.203-10.281-21.897-6.4256-6.4256-15.447-10.457-25.274-10.457-9.8022 0-18.823 4.0317-25.224 10.457-6.4508 6.4256-10.483 15.447-10.457 25.249-0.0252 9.8274 4.0065 18.823 10.457 25.249v0.0504c6.4004 6.4508 15.421 10.483 25.224 10.457 9.8274 0.0252 18.848-4.0065 25.274-10.457 0 0-0.0252-0.0252 0-0.0504 5.6948-5.6696 9.4998-13.38 10.281-21.897h-27.113c-0.35278 3.0994-1.1591 5.7956-2.3434 8.0131" fill="#f57c14"/>
  <path d="m250.18 374.54c-9.8022 0-18.848 4.0065-25.249 10.457-6.4508 6.4004-10.457 15.447-10.457 25.249v32.808h27.113v-32.254c0-3.9057 0.93234-7.2319 2.5198-9.8274 1.5875-2.5702 3.6538-4.0569 6.0728-4.0569 2.419 0 4.4853 1.4867 6.0728 4.0569 1.5875 2.5954 2.5198 5.9216 2.5198 9.8274v32.254h27.113v-32.808c0-9.8022-4.0065-18.848-10.457-25.249-6.4004-6.4508-15.447-10.457-25.249-10.457" fill="#f57c14"/>
  <path d="m459.5 394.55c3.805-6.4508 1.6631-14.741-4.7877-18.546-6.4508-3.8302-14.766-1.6883-18.571 4.7877l-12.272 21.923v-14.615c0-7.4839-6.0476-13.557-13.557-13.557-7.4839 0-13.557 6.0728-13.557 13.557v54.958h27.113v-21.62l14.363 22.074h22.376c3.9814 0 5.8208-3.9813 2.5702-8.8698l-13.96-21.419z" fill="#f57c14"/>
  <path d="m315.06 365.77c2.7466-2.7214 4.4097-6.5012 4.4097-10.659s-1.6631-7.9375-4.4097-10.659c-2.7214-2.7214-6.5012-4.4097-10.659-4.4097s-7.9375 1.6883-10.634 4.4349c-2.7466 2.6962-4.4349 6.476-4.4349 10.634s1.6883 7.9375 4.4349 10.659l3.301 3.3262c5.5688 5.5688 5.972 7.0303 0.68035 12.322l-3.0238 3.0238c-2.4946 2.4694-4.0065 5.8964-4.0065 9.6762v48.935h27.391v-48.935c0-3.7798-1.5371-7.2067-4.0065-9.6762l-3.0238-3.0238c-5.2917-5.2664-4.9137-6.7532 0.65515-12.322z" fill="#f57c14"/>
  <path d="m521.81 374.53h-42.51c-7.4839 0-13.557 6.0728-13.532 13.557 0 7.5091 6.0728 13.557 13.557 13.557h7.6603l0.0252 41.351 27.113-0.0252-0.0252-41.325h7.6855c7.4839 0 13.557-6.0476 13.557-13.557 0.0252-7.4839-6.0476-13.557-13.532-13.557" fill="#449de8"/>
  <path d="m798.2 405.11c-10.205-4.5357-15.573-6.224-15.749-9.903-0.15119-3.2758 3.4018-3.9058 4.6365-3.9058 7.2067 0 7.7359 7.2823 7.7359 8.9706h21.948c0-12.473-11.238-25.324-30.465-25.324-16.505 0-27.693 11.238-27.693 21.923 0 4.0065 1.8395 12.07 19.68 20.008 10.205 4.5357 15.598 6.224 15.749 9.9282 0.17639 3.2758-3.3766 4.2081-4.6365 4.2081-7.1815 0-7.7359-7.6351-7.7359-9.2982h-21.948c0 12.473 11.238 25.324 30.465 25.324 16.505 0 27.693-11.264 27.693-21.923 0-4.0317-1.8395-12.095-19.68-20.008" fill="#449de8"/>
  <path d="m743.68 385.1c-6.4256-6.4508-15.472-10.483-25.299-10.457-9.8274-0.0252-18.848 4.0065-25.299 10.457-6.4256 6.4256-10.457 15.447-10.457 25.299v32.657h27.164v-32.103c0-3.9057 0.93234-7.2571 2.4946-9.8526 1.6127-2.5702 3.7042-4.0569 6.098-4.0821 2.4442 0.0252 4.4853 1.5119 6.098 4.0821 1.5875 2.5954 2.5198 5.9468 2.5198 9.8526v32.103h27.139v-32.657c0.0252-9.8526-4.0065-18.874-10.457-25.299" fill="#449de8"/>
  <path d="m649.59 421.79c-1.6127 2.9482-3.6538 4.7121-6.098 4.7121-2.3938 0-4.4853-1.7639-6.0728-4.7121-1.5875-2.9986-2.5198-6.854-2.5198-11.364 0-4.5357 0.93233-8.3911 2.5198-11.39 1.5875-2.9482 3.679-4.7121 6.0728-4.7121 2.4442 0 4.4853 1.7639 6.098 4.7121 1.5875 2.9986 2.4946 6.854 2.5198 11.39-0.0252 4.5105-0.93234 8.3658-2.5198 11.364m19.201-36.664c-6.4256-6.476-15.472-10.483-25.299-10.483s-18.848 4.0065-25.299 10.483c-6.4256 6.4256-10.457 15.447-10.457 25.299 0 9.8274 4.0317 18.848 10.457 25.274h0.0252-0.0252c0.60476 0.60476 2.0411 1.8647 2.1167 1.9151 6.1988 5.3169 14.388 8.5926 23.182 8.5674 8.8194 0.0252 16.984-3.2254 23.208-8.517 0.0756-0.1008 1.4867-1.3859 2.0915-1.9655 6.4508-6.4256 10.483-15.447 10.483-25.274 0-9.8526-4.0317-18.874-10.483-25.299" fill="#449de8"/>
  <path d="m575.96 421.79c-1.6127 2.9482-3.6538 4.7121-6.098 4.7121-2.3938 0-4.4853-1.7639-6.098-4.7121-1.5623-2.9986-2.4946-6.854-2.4946-11.364 0-4.5357 0.93234-8.3911 2.4946-11.39 1.6127-2.9482 3.7042-4.7121 6.098-4.7121 2.4442 0 4.4853 1.7639 6.098 4.7121 1.5875 2.9986 2.5198 6.854 2.5198 11.39 0 4.5105-0.93234 8.3658-2.5198 11.364m19.201-36.664c-6.4256-6.476-15.472-10.483-25.299-10.483s-18.848 4.0065-25.299 10.483c-6.4256 6.4256-10.457 15.447-10.457 25.299 0 9.8274 4.0317 18.848 10.457 25.274h0.0252-0.0252c0.60476 0.60476 2.0411 1.8647 2.1167 1.9151 6.1988 5.3169 14.388 8.5926 23.182 8.5674 8.8194 0.0252 16.984-3.2254 23.208-8.517 0.0756-0.1008 1.5119-1.3859 2.0915-1.9655 6.4508-6.4256 10.483-15.447 10.483-25.274 0-9.8526-4.0317-18.874-10.483-25.299" fill="#449de8"/>
  <path d="m830.12 376.8h0.27719l4.4097 4.9389 4.3845-4.9389h0.27718v9.273h-1.6631v-5.7452l-2.8474 3.4018h-0.30238l-2.8726-3.4018v5.7452h-1.6631zm-6.3752 1.5623h-2.7718v-1.4111h7.1815v1.4111h-2.7466v7.7107h-1.6631z" fill="#449de8"/>
 </g>
</svg>
