<svg xmlns="http://www.w3.org/2000/svg" width="500.035" height="143.375">
    <path fill="#201C1D" d="M368.413 59.095h17.162v24.719h24.015V59.095h17.161v65.719H409.59V98.141h-24.015v26.673h-17.162M441.344 59.105h27.46c17.677 0 31.23 13.121 31.23 32.102 0 19.212-12.79 33.63-31.067 33.63h-27.623m17.416-14.765h7.544c10.134 0 16.403-8.07 16.403-19.128 0-10.051-6.705-17.505-15.889-17.505h-8.059v36.633zM368.356 44.921h131.351v7.217H368.356zM368.367 131.925h131.461v7.219H368.367z"/>
    <path fill="#E08C44" d="M48.322 46.694a48.247 48.247 0 0 0-34.168 14.144A48.335 48.335 0 0 0 0 94.999v44.146h36.684V95.762c.023-5.279 1.288-9.815 3.415-13.306 2.169-3.447 4.961-5.498 8.223-5.498 3.28 0 6.062 2.051 8.231 5.498 2.138 3.49 3.392 8.026 3.403 13.306v43.382H96.64V94.999c.012-13.262-5.441-25.47-14.143-34.16a48.246 48.246 0 0 0-34.175-14.145M136.138 34.808a20.342 20.342 0 0 0 5.965-14.426 20.305 20.305 0 0 0-5.965-14.407A20.29 20.29 0 0 0 121.711 0a20.273 20.273 0 0 0-14.418 5.975c-3.684 3.685-5.975 8.778-5.975 14.407a20.36 20.36 0 0 0 5.975 14.426l4.504 4.516c7.514 7.513 8.048 9.493.905 16.652l-4.088 4.087c-3.359 3.371-5.43 7.995-5.43 13.119v65.962h37.076V73.182c0-5.124-2.083-9.748-5.432-13.119l-4.099-4.087c-7.144-7.144-6.62-9.139.894-16.665M201.842 110.415c-2.163 3.995-4.951 6.35-8.223 6.372-3.262-.022-6.075-2.377-8.223-6.372-2.139-4.03-3.403-9.242-3.413-15.353.01-6.125 1.274-11.337 3.413-15.376 2.148-3.991 4.961-6.34 8.223-6.36 3.272.02 6.061 2.369 8.223 6.36 1.59 3.013 2.691 6.655 3.152 10.841h36.729a48.288 48.288 0 0 0-13.939-29.645 48.249 48.249 0 0 0-34.164-14.144 48.229 48.229 0 0 0-34.166 14.144 48.268 48.268 0 0 0-14.155 34.18 48.178 48.178 0 0 0 14.155 34.152c6.674 6.699 18.32 14.16 34.166 14.16a48.35 48.35 0 0 0 31.318-11.517c6.132-5.215 15.224-15.658 16.786-32.279h-36.729c-.462 4.206-1.563 7.852-3.153 10.837M339.449 132.728c0-1.22-.355-2.377-.966-3.335L318.404 99.01l13.905-25.252c5.136-8.722 2.238-19.968-6.488-25.108-8.722-5.14-19.98-2.25-25.116 6.484L284.1 84.814v-19.79c0-10.137-8.226-18.342-18.356-18.342-10.12 0-18.34 8.206-18.34 18.342v74.12H284.1v-29.031l19.352 29.031 29.597-.022c3.535 0 6.4-2.86 6.4-6.394M344.356 132.326h-2.45v-1.247h6.345v1.247h-2.439v6.818h-1.455m5.641-8.202h.24l3.909 4.376 3.889-4.376h.232v8.202h-1.457v-5.084l-2.53 3.015h-.267l-2.55-3.015v5.084h-1.467v-8.202z"/>
</svg>
