<svg xmlns="http://www.w3.org/2000/svg" height="211.612" width="639.987" viewBox="0 0 600.012 198.383">
    <g fill="#f25c19">
        <path d="M29.728 28.774c-8.17 0-15.68 3.329-21.036 8.668C3.336 42.782-.034 50.302 0 58.453v27.08h22.558v-26.63c0-3.26.77-6.03 2.09-8.181 1.36-2.12 3.06-3.36 5.08-3.36 2.01 0 3.72 1.24 5.07 3.36 1.32 2.151 2.09 4.921 2.09 8.181v26.63H59.48v-27.08c0-8.151-3.37-15.671-8.72-21.011a29.846 29.846 0 0 0-21.03-8.668M570.29 28.774c-8.17 0-15.71 3.329-21.03 8.668-5.36 5.34-8.73 12.86-8.73 21.011v27.08h22.6v-26.63c0-3.26.76-6.03 2.08-8.181 1.32-2.12 3.06-3.36 5.08-3.36 2.01 0 3.72 1.24 5.08 3.36 1.28 2.151 2.08 4.921 2.08 8.181v26.63h22.56v-27.08c.04-8.151-3.34-15.671-8.69-21.011a29.81 29.81 0 0 0-21.03-8.668M83.789 21.487a12.512 12.512 0 0 0 3.68-8.841c0-3.469-1.42-6.589-3.68-8.843a12.543 12.543 0 0 0-8.9-3.675 12.49 12.49 0 0 0-8.87 3.675c-2.26 2.254-3.69 5.374-3.69 8.843 0 3.432 1.43 6.587 3.69 8.841l2.78 2.773c4.63 4.611 4.97 5.825.56 10.228l-2.54 2.534a11.326 11.326 0 0 0-3.34 8.04v40.501h22.84V45.062c0-3.15-1.28-6-3.34-8.04l-2.53-2.534c-4.38-4.403-4.07-5.617.55-10.228l2.79-2.773M124.21 67.913c-1.32 2.43-3.05 3.89-5.07 3.89-1.98 0-3.72-1.46-5.04-3.89-1.32-2.49-2.12-5.68-2.12-9.43 0-3.74.8-6.971 2.12-9.431s3.06-3.92 5.04-3.92c2.02 0 3.75 1.46 5.07 3.92.98 1.84 1.68 4.061 1.95 6.621h22.6a29.679 29.679 0 0 0-8.55-18.161c-5.35-5.378-12.9-8.707-21.07-8.707s-15.68 3.329-21.03 8.707a29.326 29.326 0 0 0-8.691 20.971c-.04 8.15 3.33 15.64 8.691 20.98 4.13 4.09 11.3 8.67 21.03 8.67 7.34 0 14.11-2.67 19.29-7.08 3.76-3.19 9.39-9.6 10.33-19.79h-22.6c-.27 2.56-.97 4.81-1.95 6.65M228.86 53.113c.41-1.741.93-3.261 1.49-4.411 1.01-2.15 3.03-3.88 5.04-3.88 2.05 0 3.69 1.42 5.11 3.99.63 1.07 1.19 2.98 1.43 4.261l-13.07.04zm6.53-24.377c-8.17 0-15.67 3.329-21.03 8.706a29.606 29.606 0 0 0-8.69 20.971c0 8.15 3.34 15.64 8.69 20.98 5.21 5.2 12.58 8.7 21.17 8.67 8.83.03 16.17-3.92 21.1-8.88 6.19-7.11 6.5-14.7 6.5-14.7h-20.12s-2.79 7-7.62 7c-2.01 0-3.72-1.45-5.04-3.88-.9-1.7-1.56-3.78-1.88-6.07h35.05s2.39-14.281-7.16-23.921c-5.6-5.617-12.69-8.876-20.97-8.876M440.24 53.113c.41-1.741.97-3.261 1.49-4.411 1.01-2.15 3.06-3.88 5.08-3.88 2.01 0 3.68 1.42 5.11 3.99.59 1.07 1.14 2.98 1.42 4.261l-13.1.04zm6.57-24.377c-8.17 0-15.68 3.329-21.04 8.706a29.466 29.466 0 0 0-8.72 20.971c0 8.15 3.33 15.64 8.72 20.98 5.22 5.2 12.59 8.7 21.14 8.67 8.87.03 16.17-3.92 21.1-8.88 6.22-7.11 6.5-14.7 6.5-14.7h-20.13s-2.78 7-7.57 7c-2.02 0-3.76-1.45-5.08-3.88-.9-1.7-1.53-3.78-1.88-6.07h35.08s2.4-14.281-7.2-23.921c-5.56-5.617-12.69-8.876-20.92-8.876M278.01-.003c-6.22 0-11.29 5.062-11.26 11.27l.03 74.266h22.57l-.04-74.267c0-6.241-5.07-11.269-11.3-11.269M322.2 71.803c-3.93 0-7.16-5.96-7.16-13.35 0-7.381 3.23-13.381 7.16-13.381 3.96 0 7.17 6 7.17 13.381 0 7.39-3.21 13.35-7.17 13.35m0-43.029c-16.41 0-29.76 13.278-29.76 29.679 0 16.37 13.35 29.64 29.76 29.64 16.45 0 29.77-13.27 29.77-29.64 0-16.401-13.32-29.679-29.77-29.679M507.99 71.803c-3.96 0-7.16-5.96-7.16-13.35 0-7.381 3.2-13.381 7.16-13.381 3.97 0 7.16 6 7.16 13.381 0 7.39-3.19 13.35-7.16 13.35m0-43.029c-16.44 0-29.76 13.278-29.76 29.679 0 16.37 13.32 29.64 29.76 29.64 16.41 0 29.76-13.27 29.76-29.64 0-16.401-13.35-29.679-29.76-29.679M384.44 71.803c-3.97 0-7.16-5.96-7.16-13.35 0-7.381 3.19-13.381 7.16-13.381 3.96 0 7.16 6 7.16 13.381 0 7.39-3.2 13.35-7.16 13.35m29.76-13.35h.03l-.03-47.187c0-6.242-5.08-11.269-11.27-11.269-6.25 0-11.3 5.062-11.3 11.269v18.41a30.962 30.962 0 0 0-7.19-.867c-8.17 0-15.68 3.328-21.03 8.703-5.36 5.3-8.7 12.79-8.7 20.941 0 8.18 3.34 15.67 8.7 21.01 3.44 3.43 10.77 8.67 21.03 8.67 10.25 0 17.62-5.24 21.03-8.67a29.568 29.568 0 0 0 8.73-21.01"/>
        <path d="M208.94 81.613c0-.76-.21-1.46-.59-2.04l-12.38-18.69 8.55-15.501c3.2-5.34 1.39-12.239-3.96-15.394-5.39-3.155-12.31-1.387-15.47 3.987l-10.22 18.207v-12.14c0-6.206-5.08-11.268-11.3-11.268s-11.3 5.062-11.3 11.268v45.491h22.6v-17.82l11.92 17.82h18.22c2.15 0 3.93-1.77 3.93-3.92"/>
    </g>
    <g fill="#a12a9a">
        <path d="M510.32 100.43c-8.17 0-15.71 3.33-21.07 8.71-5.35 5.34-8.72 12.82-8.72 21.01v27.28h22.63V130.6c0-3.26.76-6.04 2.08-8.19 1.36-2.11 3.06-3.36 5.08-3.39 2.02.03 3.72 1.28 5.08 3.39 1.32 2.15 2.08 4.93 2.08 8.19v26.83h22.6v-27.28c.03-8.19-3.34-15.67-8.69-21.01a29.716 29.716 0 0 0-21.07-8.71M441.63 124.98c.41-1.73.97-3.26 1.49-4.4 1.01-2.15 3.06-3.92 5.08-3.92 2.05 0 3.68 1.46 5.11 3.99.62 1.11 1.18 3.01 1.42 4.3l-13.1.03zm6.57-24.44c-8.21 0-15.72 3.36-21.1 8.7-5.36 5.37-8.73 12.86-8.73 21.04 0 8.19 3.37 15.68 8.73 21.02 5.24 5.23 12.61 8.74 21.23 8.74 8.84 0 16.17-3.96 21.14-8.92 6.22-7.11 6.5-14.73 6.5-14.73h-20.16s-2.78 7-7.61 7c-2.02 0-3.76-1.42-5.08-3.88-.9-1.7-1.56-3.78-1.88-6.1h35.15s2.4-14.29-7.2-23.96c-5.59-5.65-12.72-8.91-20.99-8.91M379.26 124.98c.42-1.73.97-3.26 1.49-4.4 1.01-2.15 3.06-3.92 5.08-3.92 2.01 0 3.68 1.46 5.11 3.99.62 1.11 1.18 3.01 1.43 4.3l-13.11.03zm6.57-24.44c-8.21 0-15.72 3.36-21.1 8.7-5.36 5.37-8.73 12.86-8.73 21.04 0 8.19 3.37 15.68 8.73 21.02 5.25 5.23 12.62 8.74 21.24 8.74 8.83 0 16.16-3.96 21.1-8.92 6.26-7.11 6.53-14.73 6.53-14.73h-20.16s-2.82 7-7.61 7c-2.02 0-3.75-1.42-5.08-3.88-.9-1.7-1.56-3.78-1.87-6.1h35.14s2.4-14.29-7.19-23.96c-5.6-5.65-12.73-8.91-21-8.91M345.96 100.54h-35.48c-6.22 0-11.3 5.06-11.3 11.3 0 6.21 5.08 11.27 11.34 11.23h6.4v34.4h22.64l-.04-34.4h6.44c6.22.04 11.29-5.02 11.29-11.23 0-6.24-5.04-11.3-11.29-11.3M250.55 157.22l16.34-23.47v23.4l-16.34.07zm10.5-49.58c-5.18 7.46-14.85 21.4-23.5 33.81-2.75 3.95-7.47 10.85-10.22 14.8-1.18 1.7-2.4 3.38-3.58 5.08-2.33 3.36-2.05 7.8-.46 11.64 1.53 3.78 7.48 5.76 11.44 5.76 3.51 0 5.64 0 9.11-.03h22.98c0 5.27-.76 11.3 2.71 15.74 4.63 5.89 14.5 5.02 18.15-1.46 1.6-2.91 1.77-6.14 1.77-9.4 0-.9.04-4.92.04-4.92s6.67.04 9.42-2.11c3.54-2.81 4.73-7.49 3.82-11.83-.76-3.57-3.41-5.76-6.81-6.94-2.05-.73-4.28-.52-6.4-.52 0-12.79-.07-24.86-.07-37.65v-5.97c0-10.64-5.8-13.656-11.16-13.656-11.02 0-11.68-.38-17.24 7.656M554.58 102.21h.24l4.03 4.61 4-4.61h.28v8.63h-1.53v-5.34l-2.61 3.15h-.28l-2.64-3.15v5.34h-1.49v-8.63zm-5.81 1.45h-2.54v-1.32h6.54v1.32h-2.51v7.18h-1.49v-7.18z"/>
    </g>
</svg>
