<svg version="1.1" viewBox="0 0 800 792.92" xmlns="http://www.w3.org/2000/svg">
 <defs>
  <style>.cls-1{fill:#5eb78d;stroke-width:0px;}</style>
 </defs>
 <g transform="matrix(6.464 0 0 6.464 -246.6 -217.6)">
  <path class="cls-1" d="m40.88 155.33c0 0.18 0.06 0.33 0.18 0.45s0.27 0.18 0.45 0.18h3.99c0.18 0 0.33-0.06 0.45-0.18s0.18-0.27 0.18-0.45v-12.52h0.06l13.28 13.34s0.12 0.06 0.21 0.12c0.09 0.03 0.18 0.06 0.24 0.06h0.54c0.18 0 0.33-0.06 0.45-0.18s0.18-0.24 0.18-0.42v-22.59c0-0.18-0.06-0.33-0.18-0.45s-0.27-0.18-0.45-0.18h-4.08c-0.18 0-0.33 0.06-0.45 0.18s-0.18 0.27-0.18 0.45v11.92h-0.06l-13.4-12.88h-0.82c-0.18 0-0.33 0.06-0.45 0.18s-0.18 0.27-0.18 0.42l0.03 22.56z"/>
  <path class="cls-1" d="m65.13 144.23c0 1.36 0.21 2.63 0.6 3.84s0.97 2.3 1.69 3.33c0.73 1 1.6 1.88 2.6 2.6 1 0.73 2.12 1.3 3.33 1.69s2.48 0.6 3.84 0.6 2.63-0.21 3.84-0.6 2.3-0.97 3.33-1.69c1-0.73 1.88-1.6 2.6-2.6 0.73-1 1.3-2.12 1.72-3.33 0.39-1.21 0.6-2.48 0.6-3.84s-0.21-2.63-0.6-3.84-0.97-2.33-1.72-3.33c-0.73-1-1.6-1.88-2.6-2.63-1-0.73-2.12-1.33-3.33-1.72s-2.48-0.6-3.84-0.6-2.63 0.21-3.84 0.6-2.3 0.97-3.33 1.72c-1 0.73-1.88 1.6-2.6 2.63-0.73 1-1.3 2.12-1.69 3.33s-0.6 2.51-0.6 3.84zm5.38 0c0-0.94 0.18-1.81 0.54-2.6 0.33-0.82 0.82-1.54 1.45-2.15 0.6-0.6 1.33-1.09 2.12-1.45 0.79-0.33 1.66-0.51 2.6-0.54 0.94 0 1.78 0.18 2.6 0.54s1.51 0.85 2.15 1.45c0.6 0.64 1.09 1.33 1.45 2.15s0.51 1.69 0.54 2.6c0 0.94-0.18 1.78-0.54 2.6-0.33 0.82-0.82 1.51-1.45 2.12-0.6 0.6-1.33 1.09-2.15 1.45-0.82 0.33-1.69 0.51-2.6 0.54-0.94 0-1.78-0.18-2.6-0.54-0.82-0.33-1.51-0.82-2.12-1.45-0.6-0.6-1.09-1.33-1.45-2.12-0.36-0.82-0.54-1.66-0.54-2.6z"/>
  <path class="cls-1" d="m93.35 155.33c0 0.18 0.06 0.33 0.18 0.45s0.27 0.18 0.45 0.18h13.91c0.18 0 0.33-0.06 0.45-0.18s0.18-0.27 0.18-0.45v-3.66c0-0.18-0.06-0.33-0.18-0.45s-0.27-0.18-0.45-0.18h-9.32v-4.54h7.65c0.18 0 0.33-0.06 0.45-0.18s0.18-0.27 0.18-0.45v-3.66c0-0.18-0.06-0.33-0.18-0.45s-0.27-0.18-0.45-0.18h-7.65v-4.17h9.32c0.18 0 0.33-0.06 0.45-0.18s0.18-0.27 0.18-0.45v-3.66c0-0.18-0.06-0.33-0.18-0.45s-0.27-0.18-0.45-0.18h-13.91c-0.18 0-0.33 0.06-0.45 0.18s-0.18 0.27-0.18 0.45v22.23z"/>
  <path class="cls-1" d="m105.51 109.75c-0.18 0.57-0.3 0.85-0.67 1.33 3.78 1.36 6.9 3.05 9.5 4.99 5.41 4.08 8.44 9.29 9.77 14.73 1.72 6.96 0.51 13.52-1.45 20.17-0.48 1.66-1 3.3-1.66 4.9h-3.93c3.15-7.5 5.6-16.15 3.6-24.26-1.18-4.84-3.93-9.44-8.92-13.07-5.11-3.69-12.37-6.14-18.6-6.68-3.6 1.24-7.59 0.57-11.34 0.64-1.78 5.32-6.23 8.29-11.49 9.65-2.06 0.51-6.41 0.42-6.08-2.75 0.57-4.96 7.77-8.23 11.8-9.47-2.21-0.85-4.54-1.21-6.81-1.85-1.51-0.51-2.93-1.15-4.11-2-0.6-0.45-1.18-0.97-1.72-1.51-1.06 0.06-2.33-0.15-3.81-0.7-1.45-0.54-3.15-1.39-5.11-2.63-4.29 0.42-17.03 1.15-16.3-6.29 0.15-1.66 1.81-3.05 3.36-3.42 2.15-0.45 4.69 0.51 6.53 1.42 4.36 2.09 7.83 5.63 12.31 7.5-1.21-2.09-2.15-4.36-2.6-6.71-0.39-2.09-0.7-4.45 0.6-6.23 1.78-2.45 4.17-1.97 5.87 0.33 2.36 3.21 4.33 8.68 3.51 12.76-0.15 0.82-0.48 1.63-1 2.27 0.73 0.91 2.3 1.42 3.72 1.88 2.99 1.21 8.77 1.63 11.07 4.2 2.72-0.06 5.44 0.24 8.14 0-1.12-1.24-2.09-2.54-2.87-3.87-1.06-1.78-1.81-3.57-2.15-5.23-0.36-1.72-0.45-3.99 0.21-5.63 0.85-2.06 3.15-3.27 5.11-1.66 2.03 1.63 3.36 5.26 4.2 7.65 0.57 1.63 1.06 3.36 1.33 4.9 0.24 1.33 0.3 2.57 0.18 3.57 2.12 0.36 4.11 0.82 5.96 1.33 0.27-0.73 0.48-2.18 0.36-3.09-0.18-1.27-0.36-2.57 0.06-3.87 0.45-1.33 1.51-2.54 3.72-3.51 2.69-1.45 5.02-3.57 6.26-6.41 1.27-2.93 1.24-5.81-0.7-8.59-1.27-1.81-3.24-3.6-5.5-5.63-5.26-4.42-8.77-8.95-11.58-15.3-1.63-3.75-3.18-8.17-4.05-12.43-0.73-3.51-1.03-6.99-0.67-9.98 0.21-1.66 1.51-7.77 4.36-7.53 1.81 0.18 3.18 2.18 4.45 3.36 2.15 1.97 4.84 3.48 7.29 5.05 6.41 4.05 14.7 9.32 20.3 15.64 5.69 6.41 8.59 13.91 4.11 22.32 2 1.24 3.6 1.54 4.93 1.21 1.45-0.36 2.63-1.51 3.63-2.96 1.51-2.18 2.51-4.69 3.54-7.11 0.97-2.15 2.18-6.02 4.63-7.08 0.67-0.3 1.3-0.45 2.03-0.33 2.27 0.42 4.26 2.12 5.78 3.72 1.6 1.72 3.12 3.9 4.33 6.23 1.21 2.3 2.12 4.78 2.6 7.11 0.42 1.97 0.6 4.23-0.09 6.17-0.42 1.24-2.06 2.3-4.26 3.12-2.12 0.82-4.81 1.48-7.53 1.94 5.17 9.38 5.23 22.02 7.77 32.45 0.73 3.05 1.57 5.44 2.6 6.65 1.03 1.15 0.09 2.81-0.82 3.69-1.39 1.39-3.45 1.57-5.29 1.27-2.9-0.48-5.78-2-8.29-3.54-6.96-4.23-13.31-10.07-18.27-16.45-3.09-3.96-5.29-7.92-5.87-11.31-2.09 1.15-4.66 2.06-6.99 2.72-2.78 0.76-6.44 0.73-8.95 2.21zm39.08-19.9c-1.45-1.91-6.84 0.64-2.57 0.36 0.76-0.06 1.36-0.15 2.57-0.36zm-54.59 13.73c0.6 0.97 1.33 1.97 2.15 2.87-0.33-2.57-1.88-9.19-3.99-10.68-0.57-0.36-1.33 2.72 1.85 7.8zm-12.43 9.62c-2.51 0.42-5.5 2.21-6.78 2.81-1.27 0.6-4.75 3.6-2.48 3.36 3.96-0.7 8.74-3.48 9.26-6.17zm-15.82-18.15c0.6 1.81 1.45 3.48 2.51 5.08 0.45-1.91-0.18-4.14-0.76-5.93-0.18-0.54-1.81-6.14-2.33-3.78-0.33 1.48 0.12 3.21 0.57 4.63zm-12.13 2.9c-1.18-0.76-2.24-1.36-3.15-1.81-1.63-0.79-2.21-1.09-3.6-1.06-1.39 0-1.03 1.24-0.12 1.72 2.03 1.12 4.6 1.12 6.87 1.15zm56.95 7.65c2.3-0.57 4.63-0.85 6.9-1.48 1.78-0.51 3.84-1.27 6.32-2.45 1.18-0.67 3.24-0.88 4.36 0.06 0.45 0.39 0.73 1 0.67 1.6 0.12 2.9 2.18 6.68 5.2 10.56 3.54 4.54 8.38 9.19 13.13 12.73 3.21 2.42 7.14 5.17 11.13 5.96 0.67 0.12 1.69 0.27 2.3-0.18-1.09-1.75-1.94-4.29-2.66-7.26-2.45-10.07-2.3-22.81-7.53-31.73-0.18-0.3-0.51-0.57-0.73-0.85-2.42 0.27-6.5 1.27-8.47-0.64-3.51-3.6 7.47-8.74 10.5-3.12 1.57-0.21 9.83-1.36 10.4-3.33 0.33-1.12 0.3-2.48-0.09-4.17-0.42-1.91-1.24-3.99-2.27-5.99s-2.3-3.87-3.63-5.32c-0.45-0.51-2.87-3.15-3.93-2.69-0.3 0.12-0.67 0.73-1.12 1.57-0.51 1-1.06 2.3-1.66 3.69-0.54 1.27-1.12 2.63-1.72 3.9-0.64 1.33-1.33 2.63-2.15 3.78-1.51 2.21-3.36 3.9-5.66 4.51-2.93 0.76-6.14-0.51-8.44-2.27-1.24-0.94-1.3-2.63-0.54-3.93 3.81-6.96 1.09-13.37-4.02-18.96-5.26-5.78-13.07-10.71-19.12-14.55-1.78-1.15-3.57-2.27-5.32-3.45-1.6-1.09-2.93-2.36-4.26-3.78-0.67 1.21-1.06 2.72-1.21 4.42-0.21 2.48 0.09 5.32 0.7 8.26 0.82 4.02 2.24 8.14 3.81 11.71 2.66 6.08 5.93 9.8 10.77 14.19 2.21 2.03 4.57 3.99 6.26 6.53 2.51 3.72 2.51 7.83 0.82 11.74-1.57 3.63-4.48 6.5-8.02 8.2-0.76 0.51-1.48 0.67-1.78 1.63-0.42 1.45-0.09 1.39 1.09 1.12z"/>
 </g>
</svg>
