<svg width="152.79" height="81.177" version="1.1" viewBox="0 0 40.425 21.478" xmlns="http://www.w3.org/2000/svg">
 <defs>
  <clipPath id="a">
   <path d="m0 0h595.28v841.89h-595.28z"/>
  </clipPath>
 </defs>
 <g transform="translate(-.094 -2.1632e-5)" clip-path="url(#a)" fill="#231f20">
  <path d="m3.973 11.616c-0.631-0.845-1.221-1.664-1.826-2.509l-0.027 0.013c0.013 0.927 0.027 1.866 0.027 2.806v3.61h-2.053v-9.717h2.013l2.913 3.919c0.631 0.845 1.221 1.664 1.826 2.509l0.026-0.013c-0.014-0.926-0.026-1.866-0.026-2.805v-3.61h2.053v9.717h-2.014z"/>
  <path d="m33.97 12.851c1.047 0.671 2.281 0.967 3.046 0.967 0.778 0 1.356-0.309 1.356-1.034 0-0.899-0.913-0.98-2.162-1.382-1.341-0.443-2.55-1.1-2.55-2.791 0-1.813 1.369-2.94 3.409-2.94 0.952 0 2.12 0.241 2.966 0.698v2.108c-1.033-0.644-2.227-0.939-2.979-0.939-0.726 0-1.249 0.268-1.249 0.913 0 0.858 0.899 0.926 2.067 1.316 1.463 0.483 2.645 1.167 2.645 2.885 0 1.892-1.437 3.033-3.53 3.033-0.966 0-2.134-0.242-3.019-0.684z"/>
  <path d="m21.223 4.364 0.313-8e-3 0.322 8e-3 0.13-4.538h-0.894z"/>
  <path d="m21.223 16.939 0.313 8e-3 0.322-8e-3 0.13 4.539h-0.894z"/>
  <path d="m15.253 10.97-7e-3 -0.313 7e-3 -0.322-4.539-0.13v0.894z"/>
  <path d="m27.828 10.97 7e-3 -0.313-7e-3 -0.322 4.539-0.13v0.894z"/>
  <path d="m20.135 4.515 0.306-0.062 0.32-0.048-0.66-4.493-0.882 0.155z"/>
  <path d="m22.319 16.899 0.31-0.047 0.317-0.064 0.916 4.447-0.88 0.156z"/>
  <path d="m15.404 12.057-0.063-0.307-0.048-0.318-4.492 0.66 0.155 0.881z"/>
  <path d="m27.788 9.873-0.047-0.31-0.063-0.316 4.447-0.917 0.155 0.881z"/>
  <path d="m19.091 4.852 0.292-0.114 0.305-0.103-1.43-4.309-0.84 0.306z"/>
  <path d="m23.393 16.669 0.297-0.1 0.3-0.117 1.675 4.22-0.84 0.306z"/>
  <path d="m15.741 13.101-0.114-0.292-0.102-0.305-4.31 1.43 0.306 0.84z"/>
  <path d="m27.558 8.8-0.099-0.297-0.119-0.3 4.222-1.675 0.306 0.84z"/>
  <path d="m18.122 5.366 0.267-0.164 0.283-0.154-2.156-3.996-0.775 0.447z"/>
  <path d="m24.409 16.256 0.275-0.15 0.275-0.168 2.382 3.865-0.775 0.447z"/>
  <path d="m16.256 14.07-0.164-0.267-0.154-0.283-3.995 2.157 0.446 0.774z"/>
  <path d="m27.144 7.784-0.149-0.275-0.169-0.276 3.865-2.382 0.447 0.775z"/>
  <path d="m17.257 6.04 0.234-0.208 0.252-0.201-2.817-3.561-0.686 0.575z"/>
  <path d="m25.339 15.672 0.245-0.195 0.241-0.213 3.017 3.393-0.686 0.575z"/>
  <path d="m16.928 14.936-0.207-0.234-0.201-0.252-3.561 2.817 0.575 0.686z"/>
  <path d="m26.561 6.854-0.195-0.246-0.213-0.241 3.393-3.017 0.576 0.684z"/>
  <path d="m16.521 6.854 0.195-0.246 0.213-0.241-3.393-3.017-0.576 0.686z"/>
  <path d="m26.153 14.936 0.208-0.235 0.201-0.252 3.561 2.818-0.575 0.686z"/>
  <path d="m17.744 15.672-0.245-0.195-0.242-0.213-3.018 3.393 0.686 0.575z"/>
  <path d="m25.826 6.04-0.234-0.208-0.252-0.201 2.817-3.561 0.686 0.575z"/>
  <path d="m15.938 7.784 0.149-0.276 0.169-0.275-3.867-2.382-0.446 0.775z"/>
  <path d="m26.827 14.07 0.164-0.267 0.155-0.283 3.994 2.157-0.446 0.774z"/>
  <path d="m18.673 16.256-0.275-0.15-0.275-0.168-2.382 3.865 0.775 0.448z"/>
  <path d="m24.96 5.366-0.266-0.164-0.283-0.153 2.156-3.997 0.775 0.448z"/>
  <path d="m15.524 8.799 0.1-0.297 0.118-0.299-4.222-1.675-0.304 0.841z"/>
  <path d="m27.342 13.101 0.114-0.292 0.102-0.306 4.309 1.43-0.306 0.84z"/>
  <path d="m19.689 16.669-0.297-0.101-0.3-0.116-1.675 4.219 0.84 0.307z"/>
  <path d="m23.991 4.852-0.291-0.115-0.306-0.103 1.43-4.31 0.841 0.306z"/>
  <path d="m15.294 9.873 0.046-0.31 0.065-0.316-4.447-0.916-0.155 0.881z"/>
  <path d="m27.679 12.056 0.061-0.307 0.049-0.319 4.492 0.661-0.155 0.88z"/>
  <path d="m20.763 16.899-0.309-0.048-0.316-0.063-0.917 4.447 0.88 0.155z"/>
  <path d="m22.946 4.515-0.306-0.063-0.318-0.047 0.659-4.493 0.882 0.155z"/>
 </g>
</svg>
