<?xml version="1.0" encoding="UTF-8"?>
<svg width="500" height="182.2" enable-background="new 0 0 500 182.1" version="1.1" viewBox="0 0 500 182.2" xml:space="preserve" xmlns="http://www.w3.org/2000/svg" xmlns:cc="http://creativecommons.org/ns#" xmlns:dc="http://purl.org/dc/elements/1.1/" xmlns:rdf="http://www.w3.org/1999/02/22-rdf-syntax-ns#"><metadata><rdf:RDF><cc:Work rdf:about=""><dc:format>image/svg+xml</dc:format><dc:type rdf:resource="http://purl.org/dc/dcmitype/StillImage"/><dc:title/></cc:Work></rdf:RDF></metadata>
	<g fill="#48f75c">	
		<path class="st0" d="m211.4 106.3c2.6 2.9 4.7 4.9 6.4 5.7 1.8 0.7 4.6 1.1 8.6 1.1h3.5c6 0 8.3-0.3 10.4-1.8 1.4-1 2.4-3.1 2.9-6 0.1-1.7 0.3-2.8 0.3-3.2 0-1.2-0.1-2.1-0.4-2.8-0.7-1.2-1.9-1.9-4-2.2l-17.9-3.1c-5.1-1-7.8-2.8-9.4-5.7-1-1.8-1.5-4.2-1.5-7.1 0-1.8 0.3-4 0.7-6.8 1.2-5.1 3.3-8.9 6.2-11.5 4.4-4 11.1-6.1 19.8-6.1h6.1c9 0 15.3 1.8 19.1 6.7l-9.7 9.6c-3.2-2.9-5.8-4-11.4-4h-4.9c-4.6 0-6.9 0.4-8.7 1.5-1.4 1-2.2 2.5-2.6 4.7-0.1 0.6-0.1 1.4-0.1 2.5s0.1 1.9 0.6 2.6c0.6 1 1.7 1.7 3.5 1.8l17.1 3.2c4.2 0.7 7.1 1.9 8.7 3.6 2.8 2.2 3.7 5.3 3.7 9.3 0 1.7-0.1 3.5-0.4 5.4-1.2 9.6-3.9 13.6-8.5 16.8-4.9 3.3-10.4 4.7-20.5 4.7h-5.4c-12.5 0-15.8-1.5-21.9-9.6z"/>
		<path class="st0" d="m270.3 85.8c1.2-7.2 2.8-12.6 4.3-16.2 1.7-3.6 4.2-6.5 7.6-8.6 4.6-2.8 10.4-4 19.8-4h5.4c8.3 0 14.4 1.8 18.2 5.3 3.2 2.9 4.7 7.6 4.7 14.4 0 3.7-0.6 8.6-1.5 14.4-2.8 15.7-6.9 24.3-13.7 29.1-4.6 3.5-10.8 5.1-19 5.1h-5.4c-5.3 0-9.2-0.8-11.7-2.6h-0.1l-5.5 30.9h-15zm27 27.3c5.1 0 8.6-1.5 10.7-4.4 2.2-3.2 3.6-7.8 5.4-18.5 1-5 1.4-8.9 1.4-11.8 0-2.1-0.3-3.6-0.7-4.9-1.1-3.2-4-4.4-9.2-4.4h-4.7c-5.7 0-8.9 1-10.7 3.1-2.1 2.1-2.8 4.4-3.9 11.5l-2.1 12.1c-1 5.7-1.5 9.2-1.5 10.7 0 1.9 0.6 3.3 1.5 4.3 1.5 1.8 4.2 2.4 8.6 2.4h5.2z"/>
		<path class="st0" d="m337.7 105.9c0-4.2 0.6-9.2 1.7-15.1 2.2-13.7 5.7-21.5 10.8-26.5 5.1-5.1 12.3-7.4 22.3-7.4h5.7c8.9 0 15.1 1.9 18.6 5.7 2.9 3.1 4.3 7.8 4.3 14 0 3.5-0.6 8.2-1.5 14.2-2.9 16.2-6.8 24.7-13.9 29.5-4.6 3.3-11.1 5-19.6 5h-5.7c-8.7 0-15-1.9-18.6-5.8-2.7-2.9-4.1-7.4-4.1-13.6zm30.1 7.2c5.4 0 8.7-1.4 11-4.6 1.9-3.1 3.7-8.9 5.3-17.6 1-6 1.4-10.1 1.4-12.5 0-2.1-0.1-3.7-0.6-4.7-1.1-3.2-3.7-4.6-9.2-4.6h-5c-5.1 0-8.7 1.7-11 5-1.9 2.9-3.6 8.5-5 16.6-1 5.1-1.5 9.6-1.5 13.2 0 2.1 0.1 3.6 0.6 4.6 1.1 3.2 3.9 4.6 9.3 4.6z"/>
		<path class="st0" d="m414.1 80.6c1.5-8.5 4.7-14.7 9.6-18.6 4.3-3.5 10.1-5.1 17.8-5.1h10.8l-2.1 12.2h-8.9c-4.3 0-7.1 0.8-8.9 2.9-2.1 2.4-2.9 5.7-4.4 14.6l-6.7 37.9h-15z"/>
		<path class="st0" d="m478.4 94.8c-1 5.4-1.4 9-1.4 10.8 0 1.4 0.3 2.5 0.7 3.5 1 2.1 3.3 3.2 7.2 3.2h9l-2.2 12.2h-10.4c-8.9 0-13.6-1.9-16.8-5.8-1.9-2.5-2.9-5.8-2.9-10.1 0-2.4 0.3-4.9 0.8-7.8l5.4-30.5h-10.5l2.2-12.2h10.4l4.2-23.6h15l-4.2 23.5h15.1l-2.2 12.2h-15.1z"/>
</g>
	
	<g fill="#c6c6c6">
		<path class="st1" d="m139.1 69.1c-1.7-6.4-7.6-10.8-14.2-10.7-13-0.1-70.2 0-70.2 0 0.9 0.4 5.7 1.4 2.9 10.2-1.7 6.1-14.2 52.7-14.8 54.8h28.8c0.9 0 1.1-0.4 1.3-1.1 3.3-12.2 11.7-43.3 12.7-46.7 0.7-2.5 2.4-4.2 5.2-4.3 5.2-0.1 10.4-0.1 15.6 0 3.4 0.1 4.6 1.9 3.7 5.2-2.6 9.6-9.4 34.5-10.7 39.8-1.1 4.5 1 7.1 5.6 7.4 0.3 0 27.7 0.1 27.7 0.1-0.9-0.4-5.7-1.4-2.9-10.2 0 0 7-25.8 8.1-30 0.9-3.5 1.8-7.1 1.8-10.7-0.1-0.1-0.1-2-0.6-3.8"/>
		<path class="st1" d="m91.1 0c-50.3 0-91.1 40.8-91.1 91.1s40.8 91.1 91.1 91.1 91.1-40.8 91.1-91.1-40.9-91.1-91.1-91.1zm0 158.1c-37 0-67-30-67-67s30-67 67-67 67 30 67 67-30 67-67 67z"/>
	</g>

</svg>
