<svg fill="none" version="1.1" viewBox="0 0 124.2 47.8" xmlns="http://www.w3.org/2000/svg">
 <rect width="124.19" height="47.8" fill="#0d1767" stroke-width=".99723px" style="--darkreader-inline-fill:#0a1252" data-darkreader-inline-fill=""/>
 <g clip-path="url(#e)">
  <path d="m17 14.145h4.9037v2.565c1.3577-1.8103 3.5088-2.9431 6.111-2.9431 4.6775 0 7.884 3.3943 7.884 8.0345v11.769h-4.905v-10.902c0-2.6036-1.8861-4.4511-4.527-4.4511s-4.5643 1.8489-4.5643 4.4511v10.902h-4.9024zm56.242 19.426h5.5081l7.7323-19.426h-4.941l-5.3949 14.296-5.3563-14.296h-5.2804zm23.535-4.1117c-3.0176 0-5.2805-2.4146-5.2805-5.6199 0-3.2052 2.2629-5.5839 5.2805-5.5839 3.0175 0 5.3187 2.4146 5.3187 5.5839 0 3.1694-2.2998 5.6199-5.3187 5.6199zm5.3187 4.1117h4.904v-19.426h-4.904v2.4518c-1.546-1.773-3.6961-2.8285-6.2984-2.8285-5.319 0-9.3935 4.3752-9.3935 10.072 0 5.697 4.0745 10.11 9.3935 10.11 2.6036 0 4.7524-1.0569 6.2984-2.7913v2.4146z" fill="#fff" style="--darkreader-inline-fill:#181a1b" data-darkreader-inline-fill=""/>
  <g clip-path="url(#d)">
   <path d="m51.887 37.756c-3.5413 0-7.0825-1.3495-9.772-4.0485-5.398-5.3981-5.398-14.184 0-19.582 6.9773-6.4413 15.007-4.4888 19.544 0.0478 4.5271 4.5271 6.4891 12.567 0.0862 19.496-2.7278 2.7277-6.2977 4.0868-9.8486 4.0868zm-7.5132-6.2977c4.1538 4.1538 10.911 4.1538 15.065 0 4.9482-5.3693 3.5508-11.418-0.0479-15.026-3.6082-3.5987-9.6571-5.0056-15.065 0-4.1059 4.1059-4.1059 10.873 0.0479 15.026z" fill="url(#c)"/>
   <path d="m49.083 36.598c-2.632 0-5.1013-1.0241-6.9677-2.8905-1.8567-1.8567-2.8904-4.3356-2.8904-6.9676s1.0241-5.1109 2.8904-6.9677c3.838-3.8379 10.088-3.8379 13.935 0 1.8567 1.8664 2.8808 4.3357 2.8808 6.9677s-1.0241 5.1013-2.8904 6.9676c-1.8568 1.8568-4.3357 2.8809-6.9677 2.8809zm0-16.51c-1.7036 0-3.4073 0.6508-4.7089 1.9429-1.2538 1.2538-1.9525 2.9287-1.9525 4.7089s0.6891 3.4551 1.9525 4.7089c1.2538 1.2538 2.9287 1.9525 4.7089 1.9525s3.4551-0.6891 4.7089-1.9525 1.9525-2.9287 1.9525-4.7089-0.6891-3.4551-1.9525-4.7089c-1.3016-1.3017-3.0053-1.9429-4.7089-1.9429z" fill="url(#b)"/>
   <path d="m49.083 36.598c-2.632 0-5.1013-1.0241-6.9677-2.8905-1.8567-1.8567-2.8904-4.3356-2.8904-6.9676s1.0241-5.1109 2.8904-6.9677c3.838-3.8379 10.088-3.8379 13.935 0 1.8567 1.8664 2.8808 4.3357 2.8808 6.9677s-1.0241 5.1013-2.8904 6.9676c-1.8568 1.8568-4.3357 2.8809-6.9677 2.8809zm0-16.51c-1.7036 0-3.4073 0.6508-4.7089 1.9429-1.2538 1.2538-1.9525 2.9287-1.9525 4.7089s0.6891 3.4551 1.9525 4.7089c1.2538 1.2538 2.9287 1.9525 4.7089 1.9525s3.4551-0.6891 4.7089-1.9525 1.9525-2.9287 1.9525-4.7089-0.6891-3.4551-1.9525-4.7089c-1.3016-1.3017-3.0053-1.9429-4.7089-1.9429z" fill="url(#a)"/>
   <path d="m42.115 33.717c-2.6224-2.6225-4.0581-6.0967-4.0581-9.8007 0-3.7039 1.4453-7.1782 4.0581-9.7911l2.2588 2.2588c-2.0099 2.0099-3.1202 4.6897-3.1202 7.5323s1.1103 5.5225 3.1202 7.5324l-2.2588 2.2587z" fill="#f03b3b" style="--darkreader-inline-fill:#a50d0d" data-darkreader-inline-fill=""/>
  </g>
 </g>
 <defs>
  <linearGradient id="c" x1="50.978" x2="44.756" y1="21.964" y2="35.842" gradientUnits="userSpaceOnUse">
   <stop stop-color="#F03C3C" style="--darkreader-inline-stopcolor:#a40d0d" data-darkreader-inline-stopcolor="" offset="0"/>
   <stop stop-color="#F03C3C" stop-opacity="0" style="--darkreader-inline-stopcolor:#a40d0d" data-darkreader-inline-stopcolor="" offset="1"/>
  </linearGradient>
  <linearGradient id="b" x1="54.806" x2="42.842" y1="20.528" y2="27.706" gradientUnits="userSpaceOnUse">
   <stop stop-color="#F03B3B" style="--darkreader-inline-stopcolor:#a50d0d" data-darkreader-inline-stopcolor="" offset="0"/>
   <stop stop-color="#F03B3B" stop-opacity="0" style="--darkreader-inline-stopcolor:#a50d0d" data-darkreader-inline-stopcolor="" offset="1"/>
  </linearGradient>
  <linearGradient id="a" x1="43.321" x2="43.8" y1="31.535" y2="32.013" gradientUnits="userSpaceOnUse">
   <stop stop-color="#F03B3B" stop-opacity="0" style="--darkreader-inline-stopcolor:#a50d0d" data-darkreader-inline-stopcolor="" offset="0"/>
   <stop stop-color="#F03B3B" style="--darkreader-inline-stopcolor:#a50d0d" data-darkreader-inline-stopcolor="" offset="1"/>
  </linearGradient>
  <clipPath id="e">
   <rect transform="translate(17,10)" width="90" height="27.756" fill="#fff" style="--darkreader-inline-fill:#e8e6e3" data-darkreader-inline-fill=""/>
  </clipPath>
  <clipPath id="d">
   <rect transform="translate(38.057 10)" width="27.775" height="27.756" fill="#fff" style="--darkreader-inline-fill:#e8e6e3" data-darkreader-inline-fill=""/>
  </clipPath>
 </defs>
</svg>
