<svg width="179.92mm" height="68.598mm" version="1.1" viewBox="0 0 179.91667 68.597922" xmlns="http://www.w3.org/2000/svg" xmlns:xlink="http://www.w3.org/1999/xlink">
 <defs>
  <clipPath id="clipPath87361">
   <path d="m289.4 622.63h20.976v9.064h-20.976z"/>
  </clipPath>
  <clipPath id="clipPath87351">
   <path d="m289.4 619.65h20.976v15.024h-20.976z"/>
  </clipPath>
 </defs>
 <g transform="translate(-58.744 -39.352)">
  <g transform="matrix(8.5773 0 0 -7.5682 -2423.5 4820.1)">
   <g clip-path="url(#clipPath87351)">
    <path d="m289.4 622.63h20.976v9.064h-20.976z" fill="#5b3699"/>
   </g>
  </g>
  <g transform="matrix(7.5682 0 0 -7.5682 -2134.4 4820.1)">
   <g clip-path="url(#clipPath87361)">
    <g transform="translate(291.27 629.84)">
     <path d="m0 0h0.407v-0.213c0.112 0.151 0.29 0.244 0.506 0.244 0.388 0 0.654-0.281 0.654-0.666v-0.976h-0.407v0.904c0 0.216-0.156 0.369-0.375 0.369s-0.378-0.153-0.378-0.369v-0.904h-0.407z" fill="#fff"/>
    </g>
    <g transform="translate(293.93 628.57)">
     <path d="m0 0c0.25 0 0.441 0.2 0.441 0.466 0 0.263-0.191 0.463-0.441 0.463s-0.438-0.2-0.438-0.463c0-0.266 0.188-0.466 0.438-0.466m0 1.301c0.488 0 0.86-0.363 0.86-0.835 0-0.475-0.372-0.838-0.86-0.838s-0.86 0.363-0.86 0.838c0 0.472 0.372 0.835 0.86 0.835" fill="#fff"/>
    </g>
    <g transform="translate(294.78 629.84)">
     <path d="m0 0h0.438l0.444-1.185 0.447 1.185h0.41l-0.641-1.611h-0.457z" fill="#fff"/>
    </g>
    <g transform="translate(297.37 628.57)">
     <path d="m0 0c0.25 0 0.441 0.2 0.441 0.466 0 0.263-0.191 0.463-0.441 0.463s-0.438-0.2-0.438-0.463c0-0.266 0.188-0.466 0.438-0.466m0.441-0.141c-0.128-0.144-0.307-0.231-0.522-0.231-0.441 0-0.779 0.363-0.779 0.838 0 0.472 0.338 0.835 0.779 0.835 0.215 0 0.394-0.088 0.522-0.235v0.204h0.406v-1.611h-0.406z" fill="#fff"/>
    </g>
    <g transform="translate(292.61 627.57)">
     <path d="m0 0c0.719 0 1.225-0.433 1.429-0.879l-0.684-0.26c-0.126 0.256-0.394 0.464-0.745 0.464-0.476 0-0.84-0.386-0.84-0.884s0.364-0.883 0.84-0.883c0.351 0 0.619 0.208 0.745 0.463l0.684-0.259c-0.204-0.446-0.71-0.879-1.429-0.879-0.905 0-1.602 0.679-1.602 1.558s0.697 1.559 1.602 1.559" fill="#fff"/>
    </g>
    <path d="m294.46 627.53h0.736v-3.031h-0.736z" fill="#fff"/>
    <g transform="translate(295.76 627.53)">
     <path d="m0 0h0.714l1.321-1.793v1.793h0.736v-3.031h-0.714l-1.321 1.793v-1.793h-0.736z" fill="#fff"/>
    </g>
    <g transform="translate(299.11 627.53)">
     <path d="m0 0h2.078v-0.65h-1.342v-0.541h1.299v-0.649h-1.299v-0.541h1.342v-0.65h-2.078z" fill="#fff"/>
    </g>
    <g transform="translate(301.73 627.53)">
     <path d="m0 0h1.005l0.792-2.091 0.792 2.091h0.961v-3.031h-0.714v1.853l-0.736-1.853h-0.654l-0.732 1.849v-1.849h-0.714z" fill="#fff"/>
    </g>
    <g transform="translate(306.78 625.75)">
     <path d="m0 0h0.727l-0.363 0.966zm-0.022 1.784h0.823l1.191-3.031h-0.788l-0.23 0.598h-1.216l-0.226-0.598h-0.744z" fill="#fff"/>
    </g>
   </g>
  </g>
  <path d="m205.05 71.221h2.8691v4.6453h5.0746v-4.6453h2.869v11.832h-2.869v-4.6548h-5.0746v4.6548h-2.8691z" fill="#fff" stroke-width=".95191"/>
  <path d="m223.06 80.511c2.0142 0 3.345-1.4183 3.345-3.3793 0-1.98-1.3308-3.3793-3.345-3.3793h-1.7896v6.7586zm-4.6672-9.2906h4.9176c3.5182 0 6.0684 2.5702 6.0684 5.9114s-2.5502 5.9114-6.0684 5.9114h-4.9176z" fill="#fff" stroke-width=".95191"/>
 </g>
</svg>
