<svg width="600" height="157.9" version="1.1" viewBox="0 0 158.75 41.778499" xmlns="http://www.w3.org/2000/svg">
 <g transform="translate(-26.458 -177.84)">
  <g>
   <path d="m27.216 178.08h3.1324v1.636c0.86457-1.1572 2.2412-1.8754 3.9038-1.8754 2.9861 0 5.0344 2.1681 5.0344 5.1342v7.5151h-3.1324v-6.9631c0-1.6626-1.2037-2.8464-2.893-2.8464-1.6826 0-2.9129 1.1838-2.9129 2.8464v6.9631h-3.1324z"/>
   <path d="m47.7 187.86c1.9286 0 3.3984-1.5429 3.3984-3.5913 0-2.0218-1.4698-3.5647-3.3984-3.5647-1.9286 0-3.3718 1.5429-3.3718 3.5647 0 2.0484 1.4432 3.5913 3.3718 3.5913m0-10.022c3.7575 0 6.6239 2.7932 6.6239 6.431 0 3.6644-2.8664 6.4576-6.6239 6.4576-3.7575 0-6.6239-2.7932-6.6239-6.4576 0-3.6378 2.8664-6.431 6.6239-6.431"/>
   <path d="m54.218 178.08h3.3718l3.425 9.1312 3.445-9.1312h3.1523l-4.9347 12.41h-3.5181z"/>
   <path d="m74.236 187.86c1.9286 0 3.3984-1.5429 3.3984-3.5913 0-2.0218-1.4698-3.5647-3.3984-3.5647-1.9286 0-3.3718 1.5429-3.3718 3.5647 0 2.0484 1.4432 3.5913 3.3718 3.5913m3.3984 1.084c-0.99093 1.1106-2.3609 1.7823-4.0236 1.7823-3.3984 0-5.9988-2.7932-5.9988-6.4576 0-3.6378 2.6004-6.431 5.9988-6.431 1.6626 0 3.0326 0.6717 4.0236 1.8089v-1.5695h3.1324v12.41h-3.1324z"/>
  </g>
  <path d="m139.41 214.26 9.723-8.0804c0.86456-0.73821 1.5961-1.7025 1.5961-3.0393 0-1.2702-0.8313-2.3742-2.7999-2.3742-1.636 0-2.8065 0.97097-2.8065 3.0725l-5.879-0.66505c0.33253-5.0145 3.6378-7.6148 8.6856-7.6148 5.1076 0 8.6789 2.7666 8.6789 7.4153 0 3.0326-1.769 5.5399-3.9038 7.2092l-5.081 4.0768h9.1511v5.0078h-17.364z" fill="#21bfd5"/>
  <g>
   <path d="m32.204 211.87c0.36578 1.6693 1.4365 2.5405 3.4716 2.5405 1.7424 0 2.8398-0.6717 2.8398-1.8422 0-4.0036-11.559-1.2969-11.559-9.8162 0-4.11 3.7775-7.1826 8.5526-7.1826 4.8748 0 8.1535 2.6402 8.7188 6.5774l-5.746 1.1705c-0.36578-1.7358-1.37-2.5338-3.1723-2.5338-1.5363 0-2.4673 0.66505-2.4673 1.8023 0 3.6711 11.552 0.99757 11.552 9.8162 0 4.11-3.8772 7.2158-8.8851 7.2158-5.0411 0-8.5526-2.74-9.0513-6.6106z"/>
   <path d="m58.407 207.08c1.9353 0 3.1723-1.3035 3.1723-3.0725 0-1.8023-1.237-3.1058-3.1723-3.1058h-4.6421v6.1783zm-10.322-11.186h10.322c5.5465 0 9.0513 3.4716 9.0513 8.1801 0 4.7086-3.5048 8.0139-9.0513 8.0139h-4.6421v7.1826h-5.6795z"/>
   <path d="m81.95 214.39c3.6777 0 6.4776-2.9728 6.4776-6.8168 0-3.8373-2.7999-6.8101-6.4776-6.8101-3.6777 0-6.4776 2.9728-6.4776 6.8101 0 3.844 2.7999 6.8168 6.4776 6.8168m0-18.834c6.983 0 12.357 5.2406 12.357 12.017 0 6.7835-5.3736 12.031-12.357 12.031-6.983 0-12.357-5.2473-12.357-12.031 0-6.7769 5.3736-12.017 12.357-12.017"/>
   <path d="m108.02 206.41c1.7025 0 2.8065-1.1705 2.8065-2.74 0-1.6028-1.104-2.7733-2.8065-2.7733h-4.6753v5.5133zm-2.3742 5.1741h-2.3011v7.6813h-5.6795v-23.377h10.355c5.3138 0 8.6856 3.3386 8.6856 7.8476 0 3.272-1.8023 5.9123-4.7751 7.1493l5.4401 8.3796h-6.7436z"/>
   <path d="m124.91 200.89h-6.8434v-5.0078h19.366v5.0078h-6.8434v18.369h-5.6795z"/>
   <path d="m159.71 195.74h3.0065v4.8679h5.3177v-4.8679h3.0065v12.399h-3.0065v-4.8778h-5.3177v4.8778h-3.0065z"/>
   <path d="m178.59 205.47c2.1107 0 3.5053-1.4863 3.5053-3.5412 0-2.0748-1.3945-3.5412-3.5053-3.5412h-1.8753v7.0823zm-4.8908-9.7357h5.1531c3.6868 0 6.3591 2.6933 6.3591 6.1946 0 3.5013-2.6723 6.1945-6.3591 6.1945h-5.1531z"/>
  </g>
 </g>
</svg>
