<svg version="1.1" viewBox="0 0 800 800.01" xmlns="http://www.w3.org/2000/svg">
 <defs>
  <style>.a{fill:#510084;}</style>
 </defs>
 <path class="a" d="m400.02 0c-220.93 0-400.02 179.1-400.02 400.02 0 220.93 179.1 399.99 400.02 399.99 93.554 0 179.62-32.127 247.78-85.995-39.51-5.3781-70.297-37.987-72.862-78.356-50.295 37.579-111.05 57.854-174.92 57.854-78.321 0-151.97-30.508-207.38-85.918s-85.947-129.14-85.947-207.57 30.501-152.16 85.947-207.61c55.445-55.442 129.06-85.918 207.38-85.918s151.94 30.501 207.35 85.918c55.41 55.416 85.947 129.18 85.947 207.61 0 51.953-13.392 101.83-38.522 145.69 1.5041-0.11224 3.0466-0.14752 4.5892-0.14752 39.349 0 72.378 26.858 81.893 63.158 37.242-60.753 58.723-132.22 58.723-208.7 0.00962-220.93-179.09-400.03-399.98-400.03" fill="#fff" stroke-width=".3207"/>
 <path class="a" d="m609.84 303.92a63.328 63.328 0 0 0-62.289-46.844h-0.19563c-56.946-0.2277-307.23 0.11545-307.36 0.12507 3.7425 1.7157 24.953 6.2792 12.655 44.513-7.2958 26.688-62.215 230.8-64.646 239.83 0 0 85.626-0.13469 125.88 0 3.7938 0 4.9644-1.5746 5.8559-4.897 14.313-53.264 51.196-189.68 55.545-204.55 3.2551-11.154 10.41-18.466 22.593-18.62 22.705-0.29184 45.427-0.53236 68.122 0.0609 14.813 0.38804 20.143 8.2515 16.304 22.571-11.224 41.873-41.014 150.94-46.722 174.42-4.8104 19.819 4.169 31.188 24.373 32.304 1.4752 0.0834 121.1 0.25335 121.22 0.24693-3.7393-1.7157-24.953-6.2792-12.655-44.516 0 0 30.575-112.91 35.498-131.26 4.1306-15.416 7.9276-30.902 7.9693-46.908 0-0.32069 0-8.4984-2.1551-16.458" fill="#fff" stroke-width=".3207"/>
 <path class="a" d="m712.96 594.89c-4.0504-4.7688-11.519-7.1868-22.205-7.1868h-7.0233c-5.3685 0-9.9416 0.72477-13.598 2.1422-2.6265 0.90436-4.7399 2.0749-6.2889 3.486-1.0872-1.6035-3.1011-2.9344-6.0163-3.9382-3.3609-1.1192-7.4273-1.6901-12.087-1.6901h-7.0329c-10.631 0-18.818 2.3828-24.331 7.0746-5.0317 4.1081-8.3574 10.779-9.8775 19.819l-8.5594 47.684h21.657l7.4498-42.143a83.06 83.06 0 0 1 1.844-8.2804c0.5067-1.6452 1.2122-2.9344 2.1038-3.8259 1.6035-1.6035 4.2781-2.4373 7.9116-2.4373h5.083c3.5726 0 5.8976 0.73118 6.9046 2.1551 0.50028 0.74722 0.75043 1.844 0.75043 3.2583 0 1.3277-0.39767 4.2973-1.1834 8.8192l-7.5075 42.454h21.657l7.4594-42.165c0.59008-3.7457 1.1609-6.5518 1.6901-8.3381 0.5067-1.6997 1.2154-3.0081 2.0909-3.8836 1.6035-1.5265 4.2813-2.3026 7.9212-2.3026h5.237c3.3769 0 5.6539 0.78571 6.7571 2.3026 0.49708 0.74722 0.75043 1.8472 0.75043 3.2583 0 2.1134-0.39446 5.0221-1.1834 8.6588l-7.5107 42.454h21.653l8.5113-47.402a53.197 53.197 0 0 0 0.75685-7.7609c0.01-5.0638-1.2636-9.1783-3.7842-12.212z" fill="#fff" stroke-width=".3207"/>
</svg>
