<?xml version="1.0" encoding="UTF-8" standalone="no"?>
<svg xmlns:rdf="http://www.w3.org/1999/02/22-rdf-syntax-ns#" xmlns="http://www.w3.org/2000/svg" version="1.1" xml:space="preserve" height="417.48" width="600" enable-background="new 0 0 1600 900" y="0px" x="0px" xmlns:cc="http://creativecommons.org/ns#" xmlns:dc="http://purl.org/dc/elements/1.1/" viewBox="0 0 600 417.48126"><g><path d="m404.71 235.53-169.18 169.17c-17.03 17.04-36.57 17.04-53.59 0l-169.16-169.15c-17.04-17.04-17.04-36.56-0.001-53.61l169.16-169.15c17.04-17.053 36.57-17.053 53.59-0.003l169.17 169.15c17.04 17.02 17.04 36.56 0.01 53.58" stroke-width=".76311" fill="#e5e5e5"/><path d="m126.29 201.15c4.74 4.76 4.05 10.09 0.38 13.76-3.65 3.65-8.95 4.28-13.68-0.48l-27.03-27.03c-5.116-5.14-9.949-4.98-15.691 0.78l-10.802 10.81c-5.753 5.74-5.913 10.57-0.795 15.68l27.034 27.05c4.755 4.73 4.125 10.02 0.484 13.69-3.662 3.64-8.991 4.35-13.761-0.4l-27.262-27.29c-12.748-12.75-12.974-28.06 1.322-42.36l10.186-10.17c14.312-14.3 29.586-14.06 42.335-1.31zm115.39-144.29c12.73 12.749 12.96 28.05-1.35 42.348l-10.17 10.191c-14.28 14.29-29.6 14.07-42.33 1.29l-12.85-12.797c-12.72-12.752-12.96-28.044 1.35-42.337l10.18-10.186c14.29-14.299 29.61-14.072 42.33-1.319zm-13.52 13.064-12.35-12.373c-5.14-5.12-9.95-4.971-15.7 0.794l-10.81 10.802c-5.73 5.738-5.9 10.568-0.76 15.683l12.34 12.358c5.14 5.141 9.94 4.981 15.7-0.778l10.8-10.806c5.73-5.735 5.9-10.577 0.78-15.68m-50.82 51.265c12.74 12.76 12.99 28.06-1.34 42.34l-10.87 10.89c-3.73 3.72-6.9 5.68-9.48 6.23l9.47 9.45c4.75 4.76 4.14 10.02 0.48 13.68-3.66 3.65-9.01 4.35-13.77-0.39l-41.18-41.16c-12.737-12.76-12.959-28.06 1.34-42.33l10.18-10.19c14.28-14.304 29.59-14.073 42.32-1.32zm-13.53 13.07-12.35-12.36c-5.14-5.13-9.95-4.99-15.72 0.77l-10.8 10.81c-5.74 5.73-5.89 10.56-0.75 15.67l12.35 12.37c5.14 5.14 9.92 4.98 15.69-0.77l10.79-10.81c5.75-5.73 5.92-10.56 0.79-15.68" stroke-width=".76311" fill="#2f6492"/><polyline transform="matrix(.76311 0 0 .76311 -301.77 -128.67)" points="1012.2 661.68 1063 661.68 1072.1 661.68 1076.2 653.57 1178.4 448.45 1181.7 441.92 1178.4 435.37 1076.2 230.21 1072.1 222.1 1063 222.1 1012.2 222.1 1017.3 222.1 804.36 222.1 795.29 222.1 791.24 230.21 688.94 435.35 685.68 441.89 688.94 448.43 791.24 653.57 795.29 661.68 804.36 661.68 1016.3 661.68" fill="#2f6492"/><polyline transform="matrix(.76311 0 0 .76311 -301.77 -128.67)" points="1012.4 647.14 1063.2 647.14 1165.5 442.08 1165.6 442.08 1165.5 442 1165.6 441.92 1165.5 441.92 1063.2 236.86 1012.4 236.86 1002.1 257.45 991.83 236.86 875.9 236.86 865.63 257.45 855.36 236.86 804.52 236.86 702.26 441.92 702.19 441.92 702.23 442 702.19 442.08 702.26 442.08 804.52 647.14 855.36 647.14" fill="#8eb442"/></g><path stroke-width=".76311" fill="#fff" d="m352.06 180.58h-10.57c0.24-0.47 49.99-100.23 50.08-100.41h10.56c-0.23 0.473-49.98 100.23-50.07 100.41zm14.48-128.67-78.25 156.94h88.79l78.26-156.94zm104.15 0-78.26 156.94h39.12l78.25-156.94zm-158.61 0-78.26 156.94h39.11l78.26-156.94z"/></svg>
