<svg width="200mm" height="138.67mm" version="1.1" viewBox="0 0 200 138.67" xmlns="http://www.w3.org/2000/svg">
 <g transform="translate(544.79 -81.89)">
  <path d="m-385.87 183.46-1.007 1.007c-0.84526 0.84526-1.5518 0.84523-2.3971 0l-0.37971-0.3797c-0.84523-0.84524-0.84523-1.5518-1e-5 -2.3971l1.007-1.007-2.2353-2.2353c-0.84196-0.84196-0.84523-1.5518 0-2.397l0.87168-0.87168c0.84526-0.84526 1.5551-0.84196 2.397 0l2.2353 2.2353 3.3777-3.3777c0.84526-0.84526 1.5518-0.84522 2.3971 2e-5l0.37971 0.3797c0.84523 0.84523 0.84524 1.5518 0 2.3971l-3.3777 3.3777 5.6096 5.6096c2.2881 2.2881 3.7871 1.9382 5.3687 0.3566 0.24433-0.24432 0.48858-0.54815 0.68013-0.79242 0.13553-0.18805 0.34998-0.46227 0.45893-0.57123 0.43583-0.43583 0.87167-0.48862 1.5023-0.0825l0.62405 0.41271c0.16504 0.10568 0.48861 0.32358 0.6273 0.46227 0.51507 0.51507 0.54147 1.1424 0.0528 1.849-0.48863 0.7066-1.007 1.39-1.6343 2.0174-3.404 3.404-6.8609 3.7044-10.622-0.0563l-5.9365-5.9365z" fill="#d9151b" stroke-width=".41275"/>
  <path d="m-376.72 172.4c-0.81049-0.81049-0.91992-1.6244-0.35224-2.623 1.0294-1.8433 2.3563-3.5463 3.6832-4.8732 0.61899-0.61899 1.3234-1.2688 2.0519-1.8398 0.75925-0.59499 1.491-0.56768 2.0587 0 0.10947 0.10946 0.35226 0.40693 0.45831 0.56766l0.21891 0.32826c0.59506 0.91651 0.70108 1.4603 0.0547 2.1066-0.3796 0.3796-1.1662 0.94726-1.9254 1.7065-0.64977 0.64977-1.515 1.679-1.9185 2.4657l9.6063 9.6063c0.83787 0.83787 0.8413 1.5389 0 2.3802l-0.86522 0.86523c-0.83786 0.83786-1.5423 0.83786-2.3802 0l-10.69-10.69z" fill="#d9151b" stroke-width=".41415"/>
  <path d="m-353.01 160.7c-0.81221 0.43523-1.7615 1.1651-2.6319 2.0356-2.1418 2.1418-2.5188 3.821-1.1103 5.2295 1.3845 1.3845 3.0123 1.0041 5.233-1.2166 0.78819-0.78819 1.5729-1.7375 2.0082-2.5496l-3.4989-3.4989zm-13.314 1.5454c-0.2982-0.13361-0.51751-0.29812-0.67856-0.45918-0.51405-0.51405-0.40782-1.1686-0.18849-1.7101 0.51403-1.3297 2.087-3.4441 3.6051-4.9621 3.7971-3.797 7.3782-4.0678 11.364-0.0822l6.751 6.751c0.97667 0.97668 0.75734 1.7374 0.24328 2.5805-0.70595 1.1378-2.7656 3.684-4.3109 5.2294-3.7698 3.7698-7.5119 4.6402-10.524 1.6278-3.0364-3.0364-2.0597-6.7751 1.4391-10.274 1.3845-1.3845 2.6045-2.1727 3.2796-2.5805l-0.40439-0.40439c-1.6826-1.6826-3.4955-1.8162-5.6923 0.38053-1.0864 1.0864-1.6826 2.1692-2.2241 3.1973-0.16445 0.32905-0.32556 0.59972-0.51405 0.78821-0.43524 0.43523-0.92527 0.43179-1.7683 0.0822l-0.37698-0.16447z" fill="#d9151b" stroke-width=".41501"/>
  <path d="m-394.58 210.07c0.29798 0.13431 0.54038 0.27182 0.72704 0.45847 0.4585 0.45851 0.51417 1.1102 0.18996 1.8078-0.80889 1.7848-2.109 3.3535-3.4845 4.7289-4.7028 4.7028-9.6186 4.5948-14.21 3e-3 -4.9975-4.9975-4.1594-10.054-0.70434-13.509 3.8088-3.8088 8.5934-3.8906 13.159 0.67452 0.78269 0.78269 0.62223 1.5392 0.10807 2.0534l-8.3741 8.3741c2.0239 1.9191 4.6734 2.191 7.6469-0.78249 0.99886-0.99886 1.6997-2.132 2.2106-3.1341 0.1638-0.3209 0.29805-0.56656 0.48798-0.75649 0.43229-0.4323 0.97589-0.4323 1.7848-0.10816l0.4585 0.18995zm-8.7278-3.8089c-2.2138-1.9453-4.5357-2.1057-6.3992-0.2423-1.8634 1.8635-1.6505 4.133 0.26864 6.3728z" fill="#d9151b" stroke-width=".4094"/>
  <path d="m-391.13 209.66c-0.10866-0.0781-0.26108-0.26489-0.33871-0.41501-0.0893-0.17274-0.41887-2.2045-0.89756-5.5337l-0.75642-5.2607-4.773-0.6729c-2.6252-0.3701-4.9179-0.716-5.095-0.76867-0.35805-0.10649-0.77282-0.53817-0.77282-0.80434 0-0.32624 0.24736-0.64764 1.2579-1.6344 1.1088-1.0828 1.5964-1.3775 2.4214-1.4638 0.3503-0.0367 1.2957 0.0769 3.4807 0.41822 2.8195 0.4404 2.9998 0.45873 2.9998 0.30506 0-0.0899-0.21995-1.4718-0.48877-3.0709-0.52734-3.1369-0.54217-3.4494-0.19761-4.1656 0.21161-0.43978 1.8883-2.2258 2.2804-2.4291 0.48921-0.25364 0.95307-0.0737 1.1742 0.45558 0.0672 0.16091 0.43752 2.468 0.82286 5.1269s0.71163 4.8453 0.72508 4.8588c0.0135 0.0134 1.5604 0.22567 3.4376 0.47159 7.7066 1.0096 7.4567 0.96185 7.8582 1.5005 0.31634 0.42444 0.16532 0.70172-1.0194 1.8717-0.65522 0.64704-1.232 1.1352-1.5005 1.27-0.69189 0.34732-1.7345 0.29963-5.3374-0.24413-1.6359-0.2469-2.9889-0.43443-3.0066-0.41673s0.20737 1.4754 0.50013 3.2394c0.57343 3.455 0.63354 4.2407 0.36901 4.823-0.20971 0.46162-0.97403 1.3529-1.7501 2.0409-0.68826 0.61013-1.0554 0.74145-1.3934 0.49841z" fill="#d9151b" fill-rule="evenodd" style="paint-order:stroke markers fill"/>
  <path d="m-475.63 98.171-3.676-3.6656c-3.6412-3.6516-8.0252-3.714-12.114 0.37836l-2.9123 2.9158c-4.0924 4.0888-4.0232 8.466-0.38183 12.114l3.6724 3.6656c3.6448 3.6584 8.0288 3.7212 12.118-0.37141l2.9088-2.9157c4.096-4.0924 4.03-8.4728 0.38528-12.121m-18.411 18.411-3.6792-3.662c-3.6448-3.648-8.0216-3.7176-12.111 0.37836l-2.9158 2.9157c-4.0924 4.0856-4.0264 8.4624-0.38184 12.114l11.788 11.781c1.3607 1.3537 2.8914 1.1559 3.9396 0.11108 1.0448-1.0448 1.2218-2.5513-0.13538-3.9156l-2.7144-2.704c0.73936-0.1562 1.6453-0.71852 2.7144-1.7842l3.11-3.1172c4.0992-4.0888 4.0264-8.4624 0.38528-12.118m-14.614 22.885-7.8064-7.8032c-3.648-3.648-8.0216-3.7176-12.118 0.37488l-2.9157 2.9088c-4.0888 4.0924-4.0264 8.4728-0.37488 12.121l7.7996 7.8136c1.3676 1.3572 2.8914 1.1524 3.9396 0.11454 1.0448-1.0518 1.2253-2.5686-0.13885-3.9188l-7.7336-7.744c-1.4683-1.4614-1.4232-2.8428 0.22562-4.488l3.0892-3.0892c1.6453-1.6488 3.0268-1.6974 4.4916-0.22562l7.7372 7.7336c1.3537 1.3642 2.8706 1.1836 3.9156 0.13884 1.0483-1.0483 1.2496-2.5756-0.11107-3.9364m79.687 9.8408-48.423 48.415c-4.8736 4.8768-10.466 4.8768-15.335 0l-48.415-48.42c-4.8768-4.8736-4.8768-10.462 0-15.339l48.415-48.415c4.8768-4.8768 10.462-4.8768 15.335 0l48.418 48.412c4.8768 4.8736 4.8768 10.462 3e-3 15.339m-54.065-50.935c-1.4718-1.4648-2.8498-1.4232-4.4952 0.22562l-3.0883 3.0913c-1.6453 1.6418-1.6904 3.0232-0.21868 4.488l3.53 3.5372c1.4683 1.4718 2.8428 1.4266 4.4952-0.22215l3.0892-3.0928c1.6418-1.6384 1.687-3.0268 0.22215-4.488l-3.5336-3.5404zm-14.877 21.955c1.4648 1.4648 1.4197 2.8463-0.22562 4.488l-3.0892 3.0928c-1.6522 1.6453-3.0232 1.6904-4.4916 0.21868l-3.5372-3.5372c-1.4683-1.4614-1.4266-2.8428 0.21868-4.488l3.0892-3.0928c1.6522-1.6453 3.0268-1.687 4.4984-0.22215l3.5372 3.5404z" fill="#e6e6e6" stroke-width=".29724"/>
  <path d="m-503.61 110.2c-2.0614 0.0391-4.1789 1.0545-6.2236 3.1026l-2.9074 2.9074c-4.0924 4.0888-4.0347 8.4702-0.39013 12.122l11.787 11.778c1.3607 1.3537 2.8936 1.1563 3.9384 0.11147 1.0483-1.0448 1.2272-2.5557-0.13004-3.92l-2.7123-2.703c0.73588-0.1562 1.6432-0.71781 2.7123-1.7834l3.1118-3.1118c4.096-4.0888 4.0255-8.4702 0.38082-12.122l-3.6769-3.659c-1.8206-1.8258-3.8276-2.7606-5.8889-2.7216zm-0.0178 5.526c0.73457-0.0325 1.4487 0.32652 2.1829 1.0589l3.5401 3.5401c1.4648 1.4648 1.4131 2.8481-0.23222 4.4866l-3.0839 3.0931c-1.6522 1.6453-3.0241 1.6912-4.4958 0.22293l-3.5431-3.5401c-1.4648-1.4614-1.4189-2.8446 0.22293-4.4866l3.0839-3.0931c0.82612-0.8244 1.5876-1.2493 2.3222-1.2818z" fill="#d9151b" stroke-width=".29724"/>
  <path d="m-485.19 91.79c-2.0623 0.03905-4.1789 1.0487-6.2236 3.0931l-2.9159 2.9168c-4.093 4.0888-4.0217 8.4645-0.38046 12.113l3.6691 3.6691c3.6412 3.6552 8.0329 3.7209 12.122-0.37155l2.9074-2.9167c4.0989-4.0915 4.0276-8.4728 0.38344-12.121l-3.6709-3.6691c-1.8206-1.8258-3.8267-2.7514-5.8889-2.7123zm-0.0268 5.5269c0.73371-0.03384 1.447 0.31722 2.1829 1.0496l3.5401 3.5389c1.4683 1.4614 1.4154 2.8539-0.22293 4.4958l-3.0931 3.0931c-1.6488 1.6488-3.0182 1.6947-4.4866 0.22293l-3.5401-3.5386c-1.4718-1.4648-1.4189-2.8446 0.22293-4.4866l3.0943-3.0931c0.82092-0.82612 1.5699-1.248 2.3036-1.2818z" fill="#d9151b" stroke-width=".29724"/>
  <path d="m-508.65 139.46c1.3572 1.3642 1.1594 2.8914 0.1076 3.9396-1.0448 1.0448-2.5582 1.2253-3.9156-0.13885l-7.7336-7.7336c-1.4648-1.4718-2.8498-1.4232-4.4916 0.22562l-3.0928 3.0892c-1.6453 1.6453-1.6904 3.0232-0.22562 4.488l7.7336 7.744c1.3642 1.3503 1.1836 2.8671 0.14231 3.9188-1.0483 1.0379-2.5756 1.2426-3.9396-0.11802l-7.8032-7.81c-3.648-3.648-3.714-8.0288 0.37836-12.121l2.9158-2.9088c4.096-4.0924 8.4696-4.0264 12.114-0.37488l7.81 7.7996z" fill="#d9151b" stroke-width=".29724"/>
  <path d="m-482.28 133.97c-4.8736 4.8736-4.8736 10.462 0 15.335l48.415 48.418c4.8768 4.8768 10.466 4.8768 15.342 0l48.415-48.418c4.8736-4.8736 4.87-10.466 0-15.335l-48.415-48.412c-4.8768-4.8804-10.466-4.8804-15.339 0l-48.42 48.412z" fill="#d9151b" stroke-width=".29724"/>
  <path d="m-418.19 119.66c0-5.7308-3.5892-8.5632-7.9976-8.5632-4.4084 0-7.994 2.8324-7.994 8.5632v43.944c0 5.7272 3.5892 8.5668 7.994 8.5668 4.4084 0 7.9976-2.8394 7.9976-8.5668z" fill="#fff" stroke-width=".29724"/>
 </g>
</svg>
