<svg width="600" height="400.01" viewBox="0 0 158.75 105.836" xmlns="http://www.w3.org/2000/svg">
    <g fill="#1d1d1b">
        <path d="M111 1.843a4.392 4.392 0 0 0-.048-.035l-.011-.008.059.043M111.41 2.156a2.9 2.9 0 0 0-.069-.053l-.01-.008.079.061M111.82 2.494a5.17 5.17 0 0 0-.092-.078l-.007-.006.099.084M110.59 1.555l-.028-.018-.009-.006.037.024"/>
    </g>
    <path d="M123.71 93.602c.584-1.116 1.2-2.355 1.797-3.577l.002-.002.17-.349.03-.06h-.001l.097-.2c1.263-2.593 2.522-5.206 3.497-6.856.17.376.345.79.525 1.229-.077.06-.153.126-.228.202-.776.775-1.48 2.25-2.159 3.79l-.242.555c-.775 1.78-1.522 3.547-2.31 4.335-.314.314-.722.627-1.178.933M128.95 22.102a.489.489 0 0 1-.34-.15v-.001l-.004-.004-.012-.011c-.733-.734-1.775-2.582-2.861-4.726l-.214-1.07-.085-.426a87.499 87.499 0 0 0-.446-2.102c.955.254 1.774.424 2.585 1.234.984.985 1.785 3.179 2.53 5.536l.122.391-.025.046-.01.018c-.005.006-.008.012-.011.018-.438.762-.853 1.243-1.225 1.247h-.005" fill="#f0f"/>
    <path d="M111.61 103.522l.065-.055.002-.001-.066.056" fill="#1d1d1b"/>
    <g fill="#f0f">
        <path d="M141.33 36.482c-.68-1.11-1.253-3.461-1.777-6.32l-.053-.292c-.338-1.88-.657-3.966-.972-6.055.163-.086.323-.133.479-.133.208 0 .408.084.599.275 1.334 1.335 2.319 4.696 3.218 7.994a72.666 72.666 0 0 1-.319 1.162c-.406 1.433-.802 2.614-1.175 3.369M150.31 72.082c.467-4.111 1.032-8.199 2.334-9.502l1.57-1.568c-.374.394-.725.809-.865 1.128-.846 1.928-1.97 8.35-3.04 9.942M141.21 77.582c-.514 0-1.01-.853-1.493-1.811l-.012-.024.056-.283c.538-2.746 1.052-5.222 1.514-6.854.448.176 1.006 1.697 1.604 3.736l.06.204c.077.266.155.542.233.823-.508 1.935-1.021 3.487-1.537 4.002-.143.143-.284.207-.425.207"/>
    </g>
    <path d="M113.35 3.895a13.99 13.99 0 0 1-.422-.352l-.21-.211c.215.197.425.383.632.563" fill="#1d1d1b"/>
    <g fill="#ff0">
        <path d="M124.99 13.612c-.373-.1-.767-.212-1.19-.38-1.027-2.172-1.944-4.158-2.5-5.188.775.14 1.343.252 1.795.704.824.824 1.394 2.662 1.895 4.864M131.3 18.492c.698-5.355 1.34-11.454 2.646-11.454.147 0 .303.078.468.243.532.532.977 1.816 1.367 3.568a1.97 1.97 0 0 0-.278-.37c0-.002 0-.002-.002-.003 0 0 0-.002-.003-.003a.342.342 0 0 0-.242-.11.293.293 0 0 0-.041.003c-.385.05-.85.788-1.359 1.873-.764 1.625-1.628 4.027-2.473 6.053l-.007.018a5.602 5.602 0 0 0-.026.063l-.027.064a.024.024 0 0 1-.004.008l-.008.02a.062.062 0 0 0-.005.013l-.006.014M143.64 34.942c-.088-.31-.176-.628-.265-.95l-.09-.327-.462-1.705c1.773-6.68 3.699-17.15 4.88-17.15.06 0 .118.027.174.083.354.355.631 1.44.872 2.997-1.291 2.702-3.21 11.687-4.86 16.378l-.064.175c-.062.173-.124.339-.185.5"/>
    </g>
    <g fill="#1d1d1b">
        <path d="M156.67 58.412l.012-.015.028-.036a3.217 3.217 0 0 1-.04.051M156.26 58.902l.04-.047.038-.045-.078.092M111.45 2.189l-.04-.033.04.033M110.6 1.561l-.009-.006.009.006M111.03 1.866"/>
    </g>
    <g fill="#ff0">
        <path d="M138.78 80.542c.197-1.508.394-3.014.592-4.422l.044-.308.072-.502a52.44 52.44 0 0 0 .217.44l-.009.045c-.3 1.54-.607 3.154-.916 4.747M148.06 82.122a.48.48 0 0 1-.282-.108c.52-2.551.869-6.6 1.345-10.225l.003.005c0 .004.004.008.005.011l.02.043c.19.397.397.63.626.631h.003c.11 0 .227-.055.349-.174l.005-.005.006-.006c.055-.055.11-.129.167-.211-.5 4.404-.89 8.834-1.953 9.898a.413.413 0 0 1-.294.14M134.86 92.592c-1.582 0-3.136-4.031-4.483-7.438l-.089-.224c-.156-.395-.31-.78-.46-1.147l.013-.01a2.03 2.03 0 0 1 1.287-.44h.005c.212 0 .422.027.63.068h.005c.013.004.026.006.04.009a5.934 5.934 0 0 1 .417.104v.001l.007.001c1.125 2.861 2.363 7.277 3.356 8.774-.243.206-.486.3-.729.3"/>
    </g>
    <path d="M154.21 61.012l.004-.004 1.3-1.3.05-.05a16.122 16.122 0 0 0-.05.05l-1.304 1.305" fill="#1d1d1b"/>
    <path d="M112.28 102.932l.026-.025c.105-.099.21-.2.314-.304l.008-.008.33-.33.987-.987-.988.988.988-.988c1.414-1.414 3.856-1.863 5.763-2.777-.036.045-.071.084-.105.118-1.115 1.115-5.314 2.618-7.324 4.314" fill="#ff0"/>
    <path d="M111.03 1.866" fill="#030303"/>
    <path d="M142.19 37.172h-.003c-.306-.005-.591-.25-.86-.688.373-.754.769-1.936 1.175-3.369l.053-.185c.088-.315.177-.64.266-.976l.462 1.704.09.328c.089.322.177.64.265.95 0 .003-.002.005-.003.008l-.002-.008c-.524 1.366-1.015 2.236-1.443 2.236" fill="red"/>
    <g fill="#030303">
        <path d="M111.45 2.189a9.854 9.854 0 0 0-.04-.033l.04.033M110.6 1.561a1.74 1.74 0 0 1-.036-.024l.027.018.01.006M112.62 102.602l.008-.008.33-.33-.33.33-.008.008"/>
    </g>
    <path d="M112.62 102.602l.008-.008.33-.33-.33.33-.008.008m.338-.338l.987-.987-.987.987" fill="#030300"/>
    <path d="M125.74 17.212a115.176 115.176 0 0 1-1.163-2.36c-.261-.543-.52-1.087-.772-1.62.422.169.817.282 1.19.381.153.674.3 1.38.446 2.103l.086.425.213 1.071" fill="red"/>
    <path d="M111.87 2.536a14.446 14.446 0 0 0-.047-.042l.047.042" fill="#030303"/>
    <path d="M111.87 2.536l-.047-.042.047.042"/>
    <g fill="red">
        <path d="M129.83 83.792c-.18-.439-.355-.853-.525-1.23.4-.678.754-1.195 1.04-1.48a.375.375 0 0 1 .267-.125c.433.007.934.9 1.464 2.19l.001.003c.03.073.06.144.09.22l.06.154a6.962 6.962 0 0 0-.418-.105l-.04-.008h-.003a3.222 3.222 0 0 0-.63-.069h-.006a2.028 2.028 0 0 0-1.3.45M131.767 83.411h-.004.004m-.634-.07M149.78 72.482h-.001c-.228 0-.436-.234-.626-.631l-.02-.043c0-.004-.004-.008-.005-.012 0 0 0-.004-.003-.005.394-2.999.876-5.708 1.615-7.04.2-.359.596-.833 1.074-1.338l.953-.953 1.449-1.449-.004.005-1.569 1.568c-1.302 1.303-1.867 5.391-2.334 9.502a1.453 1.453 0 0 1-.167.212l-.006.007a.022.022 0 0 0-.004.005c-.122.118-.238.174-.35.174"/>
        <path d="M149.78 72.482h-.001.001m.001 0c.111 0 .227-.056.35-.174-.123.118-.239.174-.35.174m.354-.179l.006-.006-.006.006m-.983-.452l-.02-.043.02.043m-.025-.055s-.001-.004-.003-.005c0 .001.001.004.003.005M139.7 75.752l-.075-.152a49.721 49.721 0 0 1-.142-.288c.493-3.405.994-6.102 1.529-6.637a.234.234 0 0 1 .167-.078c.028 0 .056.007.085.018v-.001h.005c-.461 1.633-.976 4.11-1.514 6.855l-.055.283"/>
    </g>
    <g fill="#1d1d1b">
        <path d="M156.34 58.812l.064-.078.002-.003-.066.08M155.97 59.239l.03-.033.002-.002-.031.036M158.1 56.012l.02-.046c.02-.046.038-.092.056-.138a8.544 8.544 0 0 0-.056.139l-.02.045M156.71 58.362l.054-.07.002-.003a3.642 3.642 0 0 1-.056.073M109.36 104.992l.129-.063-.13.063"/>
    </g>
    <g fill="#0ff">
        <path d="M119.7 98.502c.442-.546 1.022-1.857 1.679-3.535.79-.427 1.618-.888 2.327-1.364-.903 1.725-1.73 3.15-2.294 3.736-.465.481-1.057.85-1.712 1.163M146.76 84.472c-.865 0-2.295-6.424-3.597-11.101.119-.452.237-.925.355-1.411l.084-.348c.083-.344.165-.693.247-1.044l.178.62.058.206c1.181 4.201 2.558 9.778 3.69 10.616-.242 1.185-.52 2.046-.866 2.392a.21.21 0 0 1-.149.07M136.2 92.812c-.19 0-.397-.19-.615-.519.04-.033.08-.066.12-.106.908-.91 2-6.147 3.067-11.648-.737 5.636-1.485 11.315-2.33 12.159a.34.34 0 0 1-.242.114M121.3 8.044c-1.557-.28-3.954-.669-7.954-4.148 3.59 2.892 6.33 2.017 7.556 3.497.094.114.23.34.398.651M130.73 22.422c-.156-.512-.313-1.03-.473-1.543l-.032-.103a8.68 8.68 0 0 0 .096-.173 25.1 25.1 0 0 0 .981-2.107c-.122.939-.246 1.855-.376 2.712l-.045.294c-.05.317-.1.624-.151.92"/>
    </g>
    <path d="M112.71 3.332l-.089-.089a10.075 10.075 0 0 0-.154-.15l-.003-.003c.053.05.105.101.157.153l.089.089" fill="#1d1d1b"/>
    <path d="M137.68 24.532c-.57-4.95-1.124-10.226-1.892-13.68 1.086 1.796 1.899 7.392 2.739 12.969-.274.144-.558.396-.847.711M157.11 48.032a13.523 13.523 0 0 0-1.603-1.91l-1.666-1.666c-2.11-2.11-1.646-10.08-3.011-11.445l-.01-.01-.008-.009-.008-.007c-.139-.13-.279-.19-.419-.191h-.005a.504.504 0 0 0-.077.006c-.654-5.396-1.014-11.378-1.561-14.92.24-.502.458-.788.65-.788.056 0 .11.024.16.075 1.573 1.573 2.528 25.526 5.312 28.311l.643.643c.625.625 1.16 1.263 1.603 1.91" fill="#0ff"/>
    <path d="M109.36 104.992c.086-.042.172-.085.259-.13l-.033.017.033-.017-.033.017a8.392 8.392 0 0 1-.226.113m2.543-1.718c.122-.108.244-.218.365-.332l.003-.003.006-.004-.059.055c-.105.098-.21.192-.315.284" fill="#030303"/>
    <path d="M109.58 104.882l.032-.017-.032.017M112.215 102.988l.06-.055-.06.055M110.38499999999999 104.408"/>
    <g fill="#00f">
        <path d="M121.38 94.972a113.927 113.927 0 0 0 .695-1.823c1.76-4.717 3.887-10.92 5.466-12.5a.394.394 0 0 1 .281-.131c.428.007.924.83 1.472 2.045l.003-.005.002.005c-.975 1.65-2.234 4.263-3.496 6.857l-.098.2h.001l-.03.06-.17.348-.001.002a150.29 150.29 0 0 1-1.798 3.577c-.708.476-1.537.937-2.327 1.364M143.17 73.372c-.078-.28-.156-.556-.233-.823l-.06-.204c-.597-2.039-1.155-3.56-1.604-3.736.282-.998.544-1.681.78-1.917a.197.197 0 0 1 .139-.066c.428.011 1.008 1.693 1.659 3.943 0-.004 0-.007.002-.01 0 .004.002.008.003.01-.082.351-.165.7-.247 1.044l-.084.348c-.118.486-.237.959-.355 1.411M157.07 47.972a13.604 13.604 0 0 0-1.562-1.85l-2.192-2.193h-.001c-1.527-1.53-2.398-6.07-3.01-11.129a.503.503 0 0 1 .077-.006h.005c.14.001.28.062.419.192l.008.007.008.008.01.01c1.365 1.365.9 9.334 3.01 11.445l1.667 1.666a13.51 13.51 0 0 1 1.561 1.85M150.839 33.017l-.01-.01.01.01m-.018-.018l-.008-.007.008.007m-.426-.199h-.005.005"/>
    </g>
    <path d="M156.71 58.362l.051-.067c0-.001.002-.001.002-.003a6.456 6.456 0 0 1-.053.07M155.96 59.242l.035-.04-.029.033c-.002.002-.005.004-.006.007" fill="#030303"/>
    <path d="M155.95 59.262l.014-.015.006-.007-.02.022m.02-.022l.03-.033-.03.033"/>
    <path d="M156.34 58.812l.063-.076v-.001l-.063.077M112.71 3.332l-.002-.001-.087-.087-.15-.148-.005-.004.155.151.088.089" fill="#030303"/>
    <g fill="#00f">
        <path d="M129.21 26.422c-.128-.002-.263-.07-.405-.212-1.534-1.535-2.335-5.306-3.072-8.997 1.086 2.143 2.128 3.991 2.861 4.725a.249.249 0 0 0 .012.011l.004.004c.109.103.222.15.34.151h.005c.372-.004.787-.484 1.225-1.246l.01-.018c.005-.006.008-.012.011-.019l.025-.045.033.103c.16.514.316 1.031.472 1.543 0 .004 0 .007-.002.011a.036.036 0 0 0-.004-.011c-.404 2.343-.875 4-1.514 4"/>
        <path d="M128.95499999999998 22.102c.371-.004.787-.484 1.225-1.247-.439.763-.853 1.243-1.225 1.247m-.344-.15v-.001m-.005-.004l-.012-.011a.249.249 0 0 0 .012.011m1.583-1.11l.01-.018-.01.018M140.52 37.382c-.087-.001-.172-.042-.254-.124-.882-.882-1.508-4.255-2.061-8.446l-.052-.391a286.725 286.725 0 0 1-.47-3.894c.29-.316.573-.568.847-.712.315 2.09.633 4.175.972 6.056l.053.29c.524 2.86 1.097 5.212 1.777 6.322l-.002.005a.037.037 0 0 1-.003-.005c-.284.572-.554.899-.807.899"/>
    </g>
    <g fill="#030303">
        <path d="M158.1 56.012a10.026 10.026 0 0 0 .02-.045l-.02.045M154.21 61.012l.956-.956.344-.344-1.3 1.3"/>
    </g>
    <path d="M155.52 59.712l.05-.05-.05.05M155.9 59.312l.05-.055-.05.055" fill="#030303"/>
    <path d="M155.56 59.662c.132-.133.26-.267.383-.4l-.05.054c-.108.116-.22.23-.333.346"/>
    <path d="M156.22 58.952l.005-.005.036-.041-.04.046" fill="#030303"/>
    <path d="M156.23 58.942l.003-.004.074-.085-.04.047-.037.041"/>
    <path d="M156.31 58.852l.038-.045-.038.045" fill="#030303"/>
    <path d="M156.67 58.412l.012-.015-.012.015"/>
    <path d="M156.68 58.392l.028-.036-.028.036" fill="#030303"/>
    <g fill="#0f0">
        <path d="M123.8 13.232c-.65-.259-1.366-.649-2.178-1.33-1.84-1.544-6.296-5.96-7.961-7.62-.403-.402-.644-.645-.644-.645l-.304-.303.21.21c.143.124.283.24.423.353 4 3.48 6.397 3.869 7.954 4.148.555 1.03 1.472 3.016 2.5 5.187M145.91 39.782h-.003a.476.476 0 0 1-.328-.16c-.706-.707-1.32-2.52-1.938-4.689.061-.16.123-.326.186-.5l.062-.174c1.651-4.69 3.57-13.675 4.861-16.378.548 3.54.907 9.522 1.561 14.919h-.005c-.966.146-1.958 2.974-2.894 4.986l-.075.159v.003c-.497 1.045-.977 1.834-1.426 1.834M133.79 28.632h-.008c-.206-.004-.404-.09-.594-.28-.904-.903-1.67-3.336-2.46-5.929a57.069 57.069 0 0 0 .195-1.214c.13-.857.254-1.773.377-2.712 0-.004.004-.01.006-.014 0-.004.004-.01.005-.014l.008-.02.004-.007.026-.064c.01-.02.018-.042.027-.063a.129.129 0 0 0 .007-.018c.844-2.026 1.709-4.429 2.472-6.054.51-1.084.975-1.822 1.359-1.872a.343.343 0 0 1 .284.107s0 .002.003.003l.002.002c.094.094.187.221.277.37.769 3.454 1.322 8.73 1.893 13.68a.022.022 0 0 1-.004.006l-.001-.005c-.488.532-.992 1.246-1.494 1.93l-.144.192v.002c-.78 1.05-1.549 1.974-2.24 1.974"/>
        <path d="M131.3 18.492l.006-.014-.006.014m.011-.027l.008-.02-.008.02m.012-.028l.027-.063c-.01.02-.018.042-.027.063m.053-.126a.129.129 0 0 0 .007-.018l-.007.018m2.48-6.072c.51-1.084.974-1.823 1.359-1.873-.385.05-.85.789-1.359 1.873m1.645-1.763s0-.002-.003-.003l.003.003m-.245-.112M147.78 82.012c-1.131-.838-2.508-6.415-3.69-10.616l-.058-.206-.177-.62c.881-3.768 1.741-7.813 2.564-8.635.058-.058.115-.086.17-.086.54.018.952 2.693 1.423 5.356v.003l.04.22c.31 1.742.65 3.444 1.068 4.36v-.01l.004.01c-.476 3.624-.824 7.673-1.344 10.224M113.94 101.282l4.62-4.62c.431-.43 1.578-1.02 2.821-1.691-.657 1.677-1.237 2.988-1.678 3.534-1.907.914-4.35 1.363-5.763 2.777M135.59 92.292c-.993-1.497-2.231-5.913-3.356-8.774.58.165 1.13.38 1.607.385h.019c.293 0 .558-.082.783-.307.56-.56.976-2.222 1.35-4.056l.078-.39c.5-2.519.936-5.24 1.559-5.863.101-.101.204-.147.307-.147h.004c.494.013 1.007 1.08 1.54 2.165v-.008l.005.008-.072.502-.044.308c-.197 1.408-.394 2.914-.592 4.422-1.068 5.502-2.159 10.739-3.068 11.648-.04.04-.08.073-.12.107"/>
    </g>
    <path d="M112.28 102.932" fill="#030303"/>
    <path d="M112.28 102.932l.027-.025-.027.025" fill="#030300"/>
    <path d="M107.13 105.722h.003l.005-.001.004-.001h.001-.006l-.007.001" fill="#030303"/>
    <path d="M115.53 2.133c.033.033.064.059.097.092-.55-.547-.667-.662-.097-.092" fill="#0ff"/>
    <g fill="#030303">
        <path d="M106.86.075l-.027-.004-.037-.005c-.031-.004-.063-.01-.095-.013.053.006.106.014.159.022M106.43.029l-.025-.002.025.002m-.038-.004h-.017l-.098-.01.115.01M105.94.005l-.03-.001-.047-.002h-.004.017l.064.003M106.83.071l-.037-.005.037.005M106.83.071l-.037-.005.037.005M106.38.025h-.01.01M106.38.025h-.01.01M107.12.114l-.007-.001.007.001m-.173-.026l-.05-.007.048.007h.002M106.27.016a7.821 7.821 0 0 0-.328-.01h-.009c.113.001.225.003.337.01M104.523.11699999999999999l.04-.006a7.3 7.3 0 0 1 .673-.082 7.594 7.594 0 0 1 .46-.024c.051 0 .102-.003.154-.003h.005-.005l-.154.003a7.342 7.342 0 0 0-.46.024l-.15.012a8.088 8.088 0 0 0-.522.07l-.041.006"/>
    </g>
    <path d="M106.37.024a7.353 7.353 0 0 0-.425-.019c.109.002.218.004.327.01.033.002.065.007.098.009M106.79.066a7.167 7.167 0 0 0-.095-.013c.032.003.064.009.095.013M106.5.035a6.14 6.14 0 0 0-.073-.006l-.025-.002-.013-.001a6.856 6.856 0 0 1 .038.003l.073.006M106.43.029l-.025-.002.025.002m-.025-.002l-.02-.002h.008l.012.002"/>
    <path d="M106.5.035a6.14 6.14 0 0 0-.073-.006l.073.006M105.95.005a1.692 1.692 0 0 1-.009 0h.009M105.91.004l-.046-.002.046.002M105.86.002h-.001.001"/>
    <g fill="#030303">
        <path d="M110.73 1.654l-.008-.005-.066-.046.074.051M110.95 1.808l-.14-.097-.019-.014.148.103.011.008M111.34 2.103l-.144-.109-.012-.01.146.111.01.008M111.14 1.947l-.004-.003-.047-.036.05.039M111.73 2.416l-.144-.12-.007-.005.144.12.007.005M111.54 2.265l-.001-.002-.036-.03.038.032M111.94 2.605l-.029-.026.03.026M110.18 1.292c-.047-.029-.095-.054-.142-.081L110 1.189c.06.034.12.067.179.103M110.32 1.383l-.013-.008-.08-.05c.031.018.062.039.093.058M110.56 1.537l-.137-.087-.028-.018.156.099.009.006M112.34 2.967l-.005-.004.004.003a.01.01 0 0 0-.004-.003l.004.003v.001m-.004-.004c-.124-.117-.247-.23-.371-.34l-.003-.003c.125.11.25.225.373.343M111.67 103.472l.042-.035c-.014.01-.027.023-.04.034h-.002M109.34.839l-.1-.046-.055-.026.155.072M109.76 1.053c-.04-.022-.08-.04-.12-.062l-.046-.025c.055.03.111.057.166.087M109.49.912L109.464.9l-.096-.05.122.062M109.91 1.136l-.019-.01c-.03-.017-.06-.036-.09-.052l.109.062M108.5.485l-.065-.022-.07-.026.135.048M109.07.713l-.034-.015-.092-.041.126.056M107.33.156l-.057-.011-.066-.013-.09-.018c.071.012.142.028.213.042M108.21.386l-.052-.016-.063-.02-.063-.02-.078-.024c.085.025.17.052.256.08M108.64.537l-.043-.016-.089-.035.132.051M108.92.65l-.082-.032-.063-.027.145.059M107.78.259l-.06-.015-.048-.013-.048-.012-.084-.021c.08.018.16.04.24.061M108.93.654l-.01-.005.01.005M108.37 105.402l.045-.015-.045.015M158.65 54.102V54.1v.002M158.05 56.142c.01-.025.023-.05.034-.075l-.008.02-.026.055M158.75 52.932v-.027.027M158.74 53.312v-.01.01M156.54 58.572l.084-.104-.084.104m.116-.143c.004-.005.007-.01.012-.014h-.001l-.01.014M156.95 58.042l.044-.06-.042.058-.001.002m.057-.077l.004-.005a1.976 1.976 0 0 0-.004.005M157.58 57.062l.036-.062a.031.031 0 0 0-.005.01l-.03.053M157.28 57.552l.016-.024.026-.039.024-.037-.066.1M111.51 2.233l-.053-.044.053.044M158.25 50.202l-.003-.008c0 .002.001.005.003.007M158.39 50.612l-.004-.012.004.012m-.02-.067l-.01-.032.01.032M110.66 1.602l-.059-.041.059.041M110.23 1.325l-.052-.033.052.033M158.5 51.012l-.008-.03-.01-.041.018.071M158.71 52.162l-.005-.057.005.057M158.74 52.542l-.001-.037.001.037M158.59 51.392l-.003-.015-.003-.015.006.03m-.007-.039a.037.037 0 0 1-.001-.009l.001.007v.002M158.66 51.772l-.008-.057.008.057M109.37.851l-.022-.011.022.011M109.8 1.074l-.035-.02.035.02M108.5.485"/>
    </g>
    <path d="M132.23 83.522l-.006-.001v-.001l.005.001.001.001" fill="#1d1d00"/>
    <path d="M111.14 1.945c-.107-.08-.214-.158-.321-.233l.14.097a6.558 6.558 0 0 1 .134.1l.047.036M108.16.37l-.063-.02.063.02M108.09.35l-.064-.02.064.02M112.34 2.966a.01.01 0 0 0-.004-.004.021.021 0 0 0 .004.004M107.72.244l-.048-.012.048.012M107.67.232l-.048-.012.048.012"/>
    <path d="M107.27.145l-.066-.013.066.013M107.27.145l-.066-.013.066.013" fill="#030303"/>
    <path d="M142.19 37.172h-.008.003c.428 0 .92-.87 1.443-2.236l.002.007c-.523 1.363-1.013 2.23-1.44 2.23" fill="#1d0000"/>
    <path d="M111.54 2.263a12.477 12.477 0 0 0-.342-.27l.144.11.109.086.052.044.037.03M109.89 1.126a9.42 9.42 0 0 0-.247-.134c.04.021.08.04.12.062l.036.02.091.052M109.03.698a9.605 9.605 0 0 0-.19-.08c.028.01.055.02.083.032l.01.004.005.002c.03.014.061.029.092.042M108.94.657l-.005-.002.005.002M109.46.9a8.781 8.781 0 0 0-.219-.106l.101.046.022.011c.032.015.064.033.096.049M110.72 1.649c-.1-.068-.199-.134-.298-.198.045.03.091.057.137.086l.036.025.059.04.066.047M108.6.522c-.053-.02-.106-.04-.158-.058l.064.021.005.002c.03.01.06.024.09.035M108.51.486l-.004-.002.004.002M110.31 1.375a11.084 11.084 0 0 0-.274-.165c.048.027.095.053.142.081l.052.033.08.051M111.94 2.604c-.12-.106-.24-.207-.36-.307l.145.12.14.119c.015.014.03.029.047.043l.028.025"/>
    <path d="M111.91 2.579l-.048-.043h.001c.016.015.031.03.047.043"/>
    <path d="M132.23 83.522l-.006-.001-.06-.155-.09-.219v-.003c-.531-1.29-1.032-2.182-1.465-2.19.434 0 .937.895 1.47 2.19l.09.222.061.156M141.27 68.612a.247.247 0 0 0-.085-.018c.028 0 .057.005.085.016v.001" fill="#1d0000"/>
    <path d="M158.65 51.702l-.006-.036.006.036" fill="#030303"/>
    <g fill="#030303">
        <path d="M158.64 51.622a10.59 10.59 0 0 0-.045-.232v-.001l.045.233M158.75 52.902v-.014.014M111.82 103.342l.078-.068v.001a7.13 7.13 0 0 1-.078.067M156.41 58.732l.032-.04.094-.117-.094.117.094-.117.006-.008-.006.008.005-.007-.129.16c0 .001 0 .003-.002.004M158.74 52.502c0-.014-.001-.029-.003-.043 0 .015.001.029.003.043"/>
    </g>
    <g fill="#030303">
        <path d="M158.73 52.402l-.005-.068a9.588 9.588 0 0 0-.016-.176v-.001c.008.082.015.163.021.245M156 59.202l.043-.05-.04.048c-.002 0-.002.002-.003.002m.044-.05l.018-.021-.009.01-.003.004c-.002.002-.005.004-.006.007M158.7 52.102a6.662 6.662 0 0 0-.037-.28l-.007-.044v-.001c.017.108.032.217.044.326M157.34 57.452l.001-.003-.001.002m.004-.008a9.059 9.059 0 0 0 .221-.37l.001-.003c-.071.125-.144.25-.222.373M158.74 53.302l.005-.122-.005.122v-.02.02m.005-.117v-.005l.001-.037-.001.043m.005-.25M157.86 56.532a9.381 9.381 0 0 1 0 0M158.71 53.702l.005-.043-.005.043M158.65 54.102l.006-.04-.006.04m.032-.224l.005-.04.014-.124-.019.164M158.08 56.062c.008-.02.017-.039.026-.057l-.026.057m.1-.241l.05-.133.001-.002.004-.012c0 .004-.003.008-.004.012l.004-.012c0 .004-.003.008-.004.012l.004-.012a7.972 7.972 0 0 1-.055.146m.05-.134v.001M157.04 57.912a9 9 0 0 0 .143-.21l.092-.141-.092.14.092-.14.002-.004c-.077.118-.155.237-.237.355M156.76 58.292a8.743 8.743 0 0 0 .172-.235l.005-.007c-.058.08-.115.16-.175.239 0 0 0 .002-.002.003M157.62 56.992l.005-.01-.005.009M157.691 56.862l.136-.26v-.003l-.05.1.05-.098c-.045.088-.09.174-.137.261m.068-.127s0-.003.002-.005l-.002.005m.007-.012v-.001m.007-.012M158.72 53.592c.008-.09.014-.18.019-.27v-.001c-.005.09-.01.18-.019.271M110.8 1.697l-.063-.044.063.044M108.41 105.382l.052-.019.178-.065.098-.038c-.109.043-.218.083-.328.122m.515-.199h.002-.003m.003 0c.01-.006.021-.01.032-.014l-.032.013M107.361.161l-.018-.003.015.002.004.001M109.19.768c-.04-.019-.082-.037-.123-.055l.123.055M108 105.513c.11-.032.218-.067.326-.103l-.01.003c.004-.001.007-.001.01-.003a8.863 8.863 0 0 1-.326.103M109.01 105.152c.117-.05.234-.103.35-.16v.001c-.117.056-.233.109-.35.16M111.96 2.62l-.017-.015.017.015M111.58 2.292l-.033-.027.033.027M111.19 1.984l-.048-.037.048.037M107.15 105.722a7.77 7.77 0 0 1 0 0M158.75 52.842c0-.1-.006-.199-.01-.298.004.099.01.198.01.298"/>
    </g>
    <path d="M112.47 3.093l-.125-.119-.007-.006a28.015 28.015 0 0 1 .132.125M158.36 50.512a8.29 8.29 0 0 0-.107-.302l-.005-.015c.04.106.078.211.112.317" fill="#030303"/>
    <path d="M158.22 50.122a6.796 6.796 0 0 0-.036-.094l.01.026.026.068m-.04-.102a10.318 10.318 0 0 0 0 0" fill="#001d1b"/>
    <g fill="#030303">
        <path d="M158.48 50.912a2.165 2.165 0 0 1-.015-.053l.015.053M158.46 50.852a10.168 10.168 0 0 0-.07-.23l-.003-.01c.025.08.05.16.073.24M158.57 51.302a4.937 4.937 0 0 0-.072-.295v-.001c.025.099.05.198.072.297"/>
    </g>
    <g>
        <path d="M109.64.992a9.642 9.642 0 0 0-.18-.092l.027.012.054.028.054.027.045.025M109.54.939l-.054-.027.054.027M158.46 50.852c-.022-.078-.046-.155-.07-.233a10.674 10.674 0 0 1 .07.233M158.48 50.912l-.015-.053v-.002l.015.055M109.24.794a9.361 9.361 0 0 0-.211-.096l.034.015.123.055.054.026M158.65 51.702l-.006-.036-.007-.042.013.078"/>
        <path d="M158.65 51.702l-.006-.036.006.036m-.006-.036a9.42 9.42 0 0 0-.007-.042l.007.042M109.01 105.152c1.005-.437 1.997-1.083 2.96-1.938.093-.09.192-.181.298-.27a14.898 14.898 0 0 1-.552.491l-.042.036a12.16 12.16 0 0 1-1.289.948 10.446 10.446 0 0 1-.745.432l-.023.012.023-.012-.023.012a9.882 9.882 0 0 1-.607.29M109.62 104.862l.023-.013-.023.013M111.81899999999999 103.339"/>
        <path d="M110.385 104.42l.005-.003a.037.037 0 0 1-.005.003M111.2 1.994l-.064-.05.004.004.048.036.012.01M111.58 2.297l-.041-.034.002.001.032.027.007.006M110.81 1.711l-.09-.063.008.005.063.044.02.014M110.43 1.45l-.118-.075.013.008.077.049.028.018M110.4 1.432l-.077-.049.077.049M110.03 1.21l-.147-.085.018.01.093.053.036.022M108.44.463a8.089 8.089 0 0 0-.28-.093l.051.016.08.025.078.026.071.026M108.29.411l-.079-.025.079.025"/>
    </g>
    <path d="M129.3 82.562c-.548-1.214-1.045-2.038-1.472-2.045.428 0 .925.823 1.475 2.04l-.003.005" fill="#00001b"/>
    <path d="M158.75 52.902a8.537 8.537 0 0 0 0-.056v.042-.042.056M158.75 52.882v-.042.042"/>
    <path d="M143.85 70.572c-.65-2.25-1.23-3.932-1.66-3.943h.002c.428 0 1.008 1.68 1.66 3.933 0 .004 0 .007-.002.01" fill="#00001b"/>
    <g>
        <path d="M107.62.22a7.797 7.797 0 0 0-.264-.058l.092.018.087.018.085.022M107.45.18l-.092-.018-.004-.001.095.019M107.35.16l-.014-.003-.066-.013.066.013a.107.107 0 0 1-.01-.002l.024.005"/>
        <path d="M107.34.158l-.066-.013.057.011.01.002M108.03.331a8.167 8.167 0 0 0-.314-.087l.06.016.088.023c.03.007.059.015.088.024l.078.024M107.86.282l-.088-.023.088.023M158.74 52.502l-.003-.043a.722.722 0 0 0-.004-.051l.006.094"/>
        <path d="M158.74 52.502l-.003-.043c0 .015.001.029.003.043m-.003-.043c-.003-.04-.005-.08-.009-.119l.005.068c0 .017.002.034.004.051M107.21.132a7.019 7.019 0 0 0-.264-.044c.056.008.111.015.167.025l.007.001.09.018"/>
        <path d="M107.11.113a5.09 5.09 0 0 0-.166-.025h-.002c.056.008.112.015.168.025M106.94.087l-.048-.007-.065-.01.065.01-.039-.005.087.012M106.89.081l-.065-.01.026.004.039.006"/>
    </g>
    <g fill="#00001b">
        <path d="M158.22 50.122l-.026-.068.026.068M158.18 50.032a10.353 10.353 0 0 0 0 0M158.19 50.052l-.01-.027c-.001-.002-.001-.005-.003-.007l.013.034"/>
    </g>
    <g>
        <path d="M108.84.618a9.01 9.01 0 0 0-.245-.096l.043.016.14.053.062.027M108.78.591c-.046-.019-.093-.036-.14-.054.047.018.094.035.14.054M108.41 105.382a9.756 9.756 0 0 0 .052-.018l-.052.018M108.64 105.302c.108-.041.217-.085.325-.131l-.034.014a9.233 9.233 0 0 1-.29.116m.103-.04"/>
        <path d="M108.64 105.302c.095-.037.19-.075.286-.115h-.001a8.192 8.192 0 0 1-.187.077l-.098.038M156.76 58.292a6.464 6.464 0 0 0 .002-.003l-.002.003M156 59.202l.044-.05-.044.05M156 59.202l.043-.05-.043.05m.043-.05l.006-.006-.007.007M156.41 58.732l.033-.04-.032.04h-.001M156.41 58.732l.032-.04-.032.04m.032-.04l.094-.117-.094.117M108 105.522c.108-.032.217-.067.325-.103l-.009.003a8.792 8.792 0 0 1-.316.1M112.47 3.097l-.129-.123.125.119.004.004m-.129-.122l-.007-.007v-.001a.046.046 0 0 0 .007.008M112.35 2.974l-.007-.007.007.007"/>
    </g>
    <path d="M129.22 26.422h-.006c.64 0 1.11-1.657 1.515-4l.004.01c-.404 2.338-.874 3.99-1.512 3.99" fill="#00001b"/>
    <path d="M158.71 53.702a7.537 7.537 0 0 0 .011-.108l-.006.065-.005.043m.012-.108l-.006.065.006-.065M158.71 53.662l.006-.065-.006.065"/>
    <path d="M140.52 37.382h-.005c.253 0 .523-.326.806-.9l.003.006c-.282.57-.551.894-.803.894" fill="#00001b"/>
    <g>
        <path d="M158.65 54.102l.006-.04a10.498 10.498 0 0 0-.006.04M158.66 54.062c.011-.075.022-.15.031-.224l-.005.04a8.924 8.924 0 0 1-.026.184M158.69 53.842l.014-.124a3.986 3.986 0 0 1-.014.124M158.74 53.282l.004-.097c0 .033-.002.065-.004.097"/>
        <path d="M158.74 53.302l.005-.122v.005l-.004.097-.001.02M158.74 53.182c.003-.081.004-.163.005-.244 0 .07 0 .138-.003.207v.037M158.74 53.182v-.037.037m0-.037a7.036 7.036 0 0 1 0 0M111.96 2.623l-.021-.019v.001l.018.015.003.003M157.62 56.982a6.17 6.17 0 0 0 .011-.02l-.011.02M157.62 56.992l.005-.009.011-.02-.016.03m.016-.03M157.75 56.742l.002-.004-.002.004m.005-.008l.005-.008-.005.008m.005-.01l.006-.011-.006.011m.007-.013l.005-.01-.005.01M157.69 56.862c.047-.087.092-.174.136-.26l-.05.096c0 .003-.004.007-.005.01v.001l-.006.012h-.001l-.005.009-.002.004-.002.004-.065.122M157.182 57.702l.092-.14-.092.14M157.34 57.452a9.463 9.463 0 0 0 .004-.006l-.004.006M157.34 57.452l.002-.002.004-.006-.005.008m.13-.213M158.71 53.712l.001-.012-.001.012m.001-.012l-.001.012.001-.012M158.71 53.712l.001-.012-.001.012M158.66 51.772l-.008-.059c.003.02.004.038.008.057v.002m-.008-.058c0-.005 0-.01-.002-.016l.002.016M158.65 51.722l-.002-.015.002.015M158.74 53.322v-.012.011-.01.011M158.74 53.322v-.011.011M158.74 53.312v-.01.01M156.05 59.142l.009-.01.17-.19a24.324 24.324 0 0 1-.178.2"/>
        <path d="M156.06 59.132l.172-.193-.003.004c-.056.064-.112.127-.17.19M157.57 57.072l.01-.018-.008.015.04-.068-.04.068-.001.003"/>
        <path d="M157.57 57.072a.368.368 0 0 1 .009-.015l.031-.052-.04.067M157.61 57.002l.005-.01-.005.01M157.27 57.552l.018-.028-.016.024-.002.004M157.29 57.532l.025-.038-.025.038M157.32 57.492l.024-.038h.001a1.858 1.858 0 0 1-.025.038M158.5 51.012l-.008-.033.008.031v.001m-.017-.073l-.007-.028.007.028M158.49 50.972a1.426 1.426 0 0 0-.017-.069l.007.028a.634.634 0 0 1 .01.04M156.93 58.052l.013-.017-.009.01.01-.012-.01.012-.005.007M156.94 58.052l.008-.01.001-.003-.009.013M156.95 58.032l.042-.057a.186.186 0 0 0 .013-.018l-.055.075M156.99 57.982l.017-.023-.004.005-.013.018M157.01 57.952l.034-.048-.034.048M157.82 56.602l.037-.071-.036.069v.002m.036-.07l-.035.068.035-.069M157.83 56.602l.035-.069-.035.069M158.71 52.162v-.004.003-.003.003M158.71 52.162v-.003.003M158.71 52.162l-.005-.057.005.057M158.74 52.552l-.001-.038.001.037M158.74 52.512v-.008.009M158.74 52.512v-.008.008M158.65 54.112v-.003.004M158.65 54.112v-.002.002M158.65 54.102v-.001.001-.001.002M158.65 54.102v-.001.001M158.04 56.142l.035-.077-.034.076M156.54 58.572l.085-.104.032-.04-.117.144M156.62 58.462l.044-.054h-.001l-.011.015-.032.04M156.53 58.572l.006-.008a.03.03 0 0 0-.006.008M158.75 52.932v-.027.027m0-.027v-.007.007-.007.007M158.75 52.912v-.007.007M158.25 50.212l-.008-.022.003.008.005.015m-.008-.022l-.024-.069.024.069-.024-.069c.009.023.016.047.024.07M158.25 50.192l-.024-.069.024.069M158.23 55.692v-.002.002M158.23 55.692v-.002.002"/>
    </g>
    <path d="M145.91 39.782h-.008.003c.45 0 .93-.79 1.426-1.835l.002-.002c.025-.052.05-.105.074-.159.936-2.011 1.928-4.84 2.894-4.986-.964.156-1.954 2.978-2.888 4.986l-.076.162c-.497 1.045-.976 1.834-1.426 1.834M133.8 28.632h-.013.008c.69 0 1.46-.925 2.239-1.973v-.002l.144-.194c.502-.683 1.006-1.396 1.494-1.929l.001.005c-.487.532-.99 1.243-1.49 1.924l-.144.195c-.779 1.049-1.548 1.974-2.24 1.974" fill="#001d00"/>
    <g>
        <path d="M158.59 51.392l-.003-.016.003.015M158.58 51.362l-.001-.009v-.002l.001.011M158.59 51.372l-.005-.024.001.009.003.015m-.005-.024v-.002.002M158.58 51.342a.509.509 0 0 1 0 0M158.58 51.352c0-.002 0-.005-.002-.007l-.007-.038.009.045"/>
    </g>
    <g fill="#001d00">
        <path d="M149.12 71.792c-.419-.915-.757-2.617-1.068-4.358a71.479 71.479 0 0 1-.039-.221v-.003c-.472-2.663-.883-5.338-1.424-5.356.543 0 .956 2.685 1.429 5.356l.04.224c.31 1.735.646 3.432 1.063 4.35v.008M133.84 83.902c-.476-.004-1.027-.22-1.607-.385h-.001c.58.164 1.131.38 1.608.386M139.48 75.312c-.532-1.085-1.045-2.152-1.54-2.165.495.006 1.009 1.07 1.541 2.157v.008"/>
    </g>
    <g>
        <path d="M158.39 50.622l-.007-.021.004.012.003.01M158.39 50.602l-.016-.055.016.055M158.39 50.602l-.016-.055.016.055M158.37 50.542l-.01-.032.01.032M108.32 105.412l.09-.031-.045.016-.045.015.045-.015-.045.015M108.32 105.412l.045-.015-.045.015m.045-.015l.044-.015-.044.015M107.7 105.602l.091-.022-.09.022m.09-.022l-.09.022.09-.022M107.7 105.602l.09-.022-.09.022M107.11 105.722l.028-.005h-.003l-.022.005h-.003m.037-.006h.01H107.148M108.96 105.172l.047-.02h-.001l-.046.02m.046-.02l-.045.02.045-.02M108.96 105.172l.046-.02-.046.02"/>
    </g>
    <path d="M102.6 59.712l-42.89 42.886c-4.317 4.32-9.27 4.32-13.586 0L3.239 59.714c-4.319-4.319-4.319-9.268 0-13.587L46.125 3.246c4.32-4.322 9.268-4.322 13.584 0l42.886 42.881c4.32 4.315 4.32 9.267.004 13.584" fill="#e3e3e2"/>
    <g fill="#1d1d1b">
        <path d="M105.83.002l-.12.003-.015.001a7.355 7.355 0 0 0-.565.032l-.045.004h-.004-.001c-2.065.209-4.117 1.274-6.043 3.202L79.372 22.907 56.151 46.126c-4.319 4.318-4.319 9.268 0 13.587l23.221 23.22 19.664 19.663c2.157 2.16 4.474 3.24 6.792 3.24.426 0 .853-.037 1.278-.11l.028-.005.008-.001.009-.002a8 8 0 0 0 1.122-.288l.093-.03.045-.016a8.595 8.595 0 0 0 .225-.082l.002-.001.095-.037-.053.02a8.188 8.188 0 0 0 .546-.236 9.64 9.64 0 0 0 .502-.25l.003-.002c.127-.068.253-.14.379-.215l.062-.037c.607-.367 1.206-.81 1.795-1.333.092-.09.192-.18.297-.27.12-.112.24-.227.357-.346l5.987-5.985c.464-.426 1.57-.996 2.768-1.643a110.7 110.7 0 0 0 .692-1.818l.002-.005c1.762-4.716 3.888-10.919 5.467-12.498a.394.394 0 0 1 .28-.132h.006c.428 0 .926.823 1.475 2.04.4-.676.752-1.191 1.037-1.475a.376.376 0 0 1 .267-.126h.006c.434 0 .937.895 1.47 2.19l.09.222.061.156c.58.165 1.131.38 1.608.386h.013c.294 0 .558-.081.784-.307.56-.56.976-2.221 1.35-4.056l.076-.385.001-.005c.5-2.518.936-5.24 1.56-5.862.1-.102.203-.148.306-.148h.009c.495.007 1.009 1.072 1.541 2.157.493-3.4.993-6.094 1.528-6.628a.235.235 0 0 1 .168-.079h.005a.23.23 0 0 1 .085.017c.282-.997.544-1.68.78-1.915a.196.196 0 0 1 .139-.066h.006c.428 0 1.008 1.68 1.66 3.933.88-3.765 1.74-7.803 2.562-8.625.058-.058.114-.086.17-.086h.005c.543 0 .957 2.685 1.43 5.356l.039.225c.31 1.735.647 3.431 1.063 4.349.394-2.996.875-5.7 1.613-7.03.192-.347.568-.799 1.022-1.283l3.76-3.759c.167-.167.328-.336.482-.506l.003-.003a14.808 14.808 0 0 0 .408-.467l.003-.004a.077.077 0 0 1 .01-.011l.02-.026c.063-.076.125-.152.185-.229l.015-.019.017-.02a.355.355 0 0 1 .01-.014h.002l.091-.118.004-.005c.005-.005.008-.01.012-.016l.022-.029.025-.034.01-.013a12.235 12.235 0 0 0 .172-.236l.003-.004v-.001c.228-.32.432-.644.615-.969l.011-.02.006-.01c.152-.271.286-.543.406-.816.01-.024.022-.047.033-.07l-.006.014.033-.075-.024.051c.053-.123.103-.246.15-.368v-.001l.004-.013c.096-.255.178-.512.247-.769v-.003l.021-.084c.065-.252.119-.506.158-.76l.006-.043c.014-.098.027-.196.038-.293v-.024c.011-.1.018-.2.024-.3l.008-.1c0-.005 0-.011.002-.017v-.003l.004-.12v-.02a6.85 6.85 0 0 0 0-.009c.002-.085.003-.17.002-.256 0-.095-.004-.19-.008-.284a4.304 4.304 0 0 0-.006-.147c0-.005 0-.011-.002-.017a7.563 7.563 0 0 0-.065-.609l-.002-.014-.005-.03v-.001a8.76 8.76 0 0 0-.028-.174l-.002-.008a8.064 8.064 0 0 0-.044-.226v-.004-.002a11.757 11.757 0 0 0-.018-.086l-.028-.118c0-.002 0-.005-.002-.007a7.62 7.62 0 0 0-.05-.201l.006.027-.01-.039a9.433 9.433 0 0 0-.045-.16v-.001-.001c-.022-.077-.044-.154-.069-.23-.01-.034-.023-.068-.035-.101l.025.07c-.008-.027-.019-.054-.028-.08a8.67 8.67 0 0 0-.202-.54l.055.133-.003-.007-.059-.142a9.546 9.546 0 0 0-.505-1.035l-.06-.102-.028-.047a10.598 10.598 0 0 0-.178-.296c-.029-.046-.06-.092-.09-.137-.002-.005-.006-.01-.01-.015-.072-.111-.145-.223-.223-.334a13.703 13.703 0 0 0-1.519-1.787l-2.248-2.248c-1.495-1.576-2.354-6.07-2.96-11.073-.964.156-1.955 2.978-2.889 4.986l-.076.161c-.496 1.046-.975 1.835-1.425 1.835h-.008c-.113 0-.224-.051-.334-.16-.705-.706-1.32-2.516-1.935-4.681-.523 1.362-1.013 2.228-1.44 2.228h-.008c-.307 0-.593-.245-.862-.682-.282.57-.552.894-.804.894h-.006c-.088 0-.175-.04-.26-.124-.88-.882-1.507-4.255-2.06-8.446l-.001-.004a285.79 285.79 0 0 1-.52-4.276c-.487.532-.99 1.244-1.49 1.925l-.145.195c-.778 1.049-1.547 1.974-2.239 1.974l-.013-.001c-.207-.001-.408-.088-.6-.28-.901-.901-1.666-3.33-2.456-5.918-.404 2.337-.874 3.99-1.513 3.99h-.007c-.129 0-.265-.07-.41-.213-1.534-1.535-2.334-5.306-3.071-8.997-.28-.553-.562-1.124-.843-1.701l-.004-.007-.316-.653c-.262-.543-.52-1.086-.772-1.62-.65-.258-1.366-.648-2.178-1.33-1.555-1.303-4.974-4.655-7.003-6.667v.002l-1.991-1.99-.149-.148-.007-.006a14.748 14.748 0 0 0-.525-.486V2.6a13.907 13.907 0 0 0-.741-.608l-.065-.049c-.106-.08-.213-.158-.32-.233l-.02-.014-.007-.005a5.101 5.101 0 0 0-.058-.04l-.006-.004a11.17 11.17 0 0 0-.298-.198l-.118-.075a11.092 11.092 0 0 0-.274-.165l-.137-.079-.01-.006h-.002a9.465 9.465 0 0 0-1.465-.668c-.063-.022-.126-.043-.19-.063-.066-.022-.133-.044-.2-.064l-.05-.015.044.014a8.03 8.03 0 0 0-.24-.067c-.054-.014-.109-.03-.164-.043h-.003a7.74 7.74 0 0 0-.232-.052l-.178-.036a6.86 6.86 0 0 0-.232-.039l-.184-.026.036.005.066.009.048.007-.087-.013c-.05-.007-.1-.015-.15-.02.028.002.056.008.084.011a7.428 7.428 0 0 0-.23-.025c-.065-.006-.13-.013-.196-.017a7.359 7.359 0 0 1-.47-.02h.045-.03l-.039-.002.024.001h-.043l-.02-.001zm.42.013l.051.003-.028-.002h-.023zm.307.026l.145.013-.008-.001a4.75 4.75 0 0 0-.195-.018l.058.006zM106.5.035L106.4.027l.025.002.074.006zm.474.058c.043.007.085.011.128.019a5.39 5.39 0 0 0-.16-.024l.032.005zm.232.039l.066.013.066.013-.01-.002c-.04-.009-.081-.016-.122-.024zm.179.036c.049.01.098.019.146.03a3.678 3.678 0 0 0-.083-.018l-.092-.018.029.006zm.399.095c.051.014.103.025.154.04a3.946 3.946 0 0 0-.075-.02l-.088-.023-.045-.012.054.015zm.446.132c.045.015.09.027.135.043l-.078-.027-.079-.025-.052-.016.074.025zm.189.063l.017.006a8.943 8.943 0 0 1 .404.154l.02.009c.016.006.03.01.046.017l-.129-.053-.14-.053c-.043-.017-.087-.035-.131-.051L108.5.485a7.377 7.377 0 0 0-.136-.047l.053.02zm1.04.442c.091.045.182.09.272.14l-.137-.073-.054-.027-.055-.028A30.486 30.486 0 0 0 109.4.87l.058.03zM109.4.87l-.056-.029.019.01.037.019zm.495.262c.067.038.135.075.202.115l-.101-.058a7.308 7.308 0 0 0-.092-.053zm.202.115l.123.074-.046-.029-.077-.045zm.21.129a.105.105 0 0 1 .012.007c-.031-.019-.062-.04-.093-.058l.08.05zm1.632 1.226l-.074-.066c.016.015.031.03.047.043zm46.543 48.336l.004.012-.004-.013-.008-.028.008.03zm.082.338a.3.3 0 0 0 .007.03l.008.037-.007-.038-.008-.03zm.065.325l.007.04-.003-.016-.004-.023zm.007.04l.01.058-.005-.032a.208.208 0 0 1-.005-.025zm.101.953l.001.04c0-.028 0-.057-.003-.086l.001.046zm.008.284v.024-.056-.021.053zm-.009.425v.01zm-.008.1c-.005.083-.01.167-.018.25l.005-.058c.008-.089.014-.177.018-.265-.002.024-.005.048-.006.073zm-.026.323l-.015.126v-.013c.006-.038.01-.075.014-.113zm-.015.126a11.31 11.31 0 0 1-.004.028l.003-.028zm-48.578 50.73l-.108.066.117-.071a.04.04 0 0 0-.009.005zm-.884.467c-.073.034-.146.07-.22.101.117-.05.233-.103.349-.158l-.129.057zm-.347.155a.217.217 0 0 1-.025.01l.07-.028.003-.001.033-.014c-.027.012-.055.022-.082.033zm-.796.287a.074.074 0 0 1-.012.004l.049-.014-.037.01zM108.954.66a9.259 9.259 0 0 1 .23.102l-.122-.054-.108-.048zm.783.378l.056.03-.035-.02-.02-.01zm48.916 53.045c0 .004 0 .01-.002.014l.002-.014zm-.08.43c-.018.085-.04.17-.061.254.021-.085.043-.169.061-.254zm-.715 2.015l-.037.071c-.033.066-.068.132-.102.197l.031-.06.002-.003.001-.005.005-.01a.142.142 0 0 1 .006-.011v-.001a.047.047 0 0 0 .005-.01l.051-.1zm-45.961 46.74c-.075.066-.15.131-.226.195l.04-.034.109-.093a9.78 9.78 0 0 0 .077-.067zm-1.511 1.14l-.005.004a.037.037 0 0 1 .005-.003zM36.485 25.072c-1.826.034-3.7.926-5.512 2.74l-2.582 2.582c-3.625 3.62-3.568 7.496-.34 10.732L38.494 51.56c1.206 1.2 2.563 1.024 3.49.099.926-.927 1.082-2.26-.12-3.468l-2.403-2.397c.654-.137 1.459-.636 2.404-1.58l2.755-2.76c3.63-3.621 3.567-7.498.34-10.734l-3.258-3.245c-1.614-1.616-3.39-2.439-5.216-2.404zm-.02 4.892c.651-.029 1.281.287 1.933.936l3.132 3.136c1.3 1.297 1.259 2.522-.2 3.974l-2.736 2.74c-1.462 1.458-2.675 1.498-3.978.195l-3.132-3.134c-1.3-1.295-1.263-2.52.193-3.974l2.736-2.739c.732-.73 1.402-1.104 2.053-1.133zM52.8 8.762c-1.827.035-3.704.926-5.514 2.739l-2.58 2.582c-3.626 3.623-3.565 7.5-.34 10.732l3.255 3.247c3.227 3.239 7.11 3.295 10.732-.328l2.578-2.585c3.627-3.623 3.568-7.502.34-10.735l-3.254-3.248c-1.612-1.616-3.39-2.438-5.216-2.403zm-.02 4.893c.65-.03 1.281.285 1.933.935l3.13 3.135c1.298 1.294 1.256 2.522-.196 3.976L54.91 24.44c-1.463 1.46-2.68 1.5-3.981.197L47.8 21.503c-1.305-1.296-1.262-2.52.192-3.975l2.74-2.739c.728-.73 1.397-1.105 2.047-1.134zM32.016 50.992c1.204 1.205 1.027 2.558.098 3.488-.926.924-2.268 1.085-3.468-.121l-6.852-6.851c-1.298-1.303-2.524-1.261-3.978.199l-2.739 2.736c-1.46 1.457-1.499 2.68-.2 3.976l6.85 6.858c1.209 1.198 1.048 2.541.125 3.472-.928.922-2.28 1.101-3.49-.103l-6.91-6.918c-3.233-3.232-3.29-7.112.334-10.737l2.582-2.578c3.627-3.624 7.502-3.564 10.733-.332l6.915 6.91"/>
    </g>
    <g fill="#fff">
        <path d="M101.17 30.472H84.3a5.403 5.403 0 1 0 0 10.806h11.467v6.24H84.3a5.403 5.403 0 1 0 0 10.807h11.467v6.24H84.3a5.403 5.403 0 1 0 0 10.806h16.87a5.403 5.403 0 0 0 5.403-5.403V35.875a5.403 5.403 0 0 0-5.403-5.403M124.45 46.032l.853-4.538h-8.463l.984-5.016h9.861l.922-4.709h-14.875l-4.644 23.75h5.005l1.859-9.487h8.498"/>
        <path d="M125.44 58.142h-.142l-1.1-8.736h-5.25l-4.577 23.75h4.936l2.366-12.352.069-.102.376 4.402h3.43l2.057-4.402.102.025-2.417 12.43h4.867l4.62-23.75h-4.867l-4.47 8.736"/>
    </g>
</svg>
