<svg xmlns="http://www.w3.org/2000/svg" height="401.97" width="600">
    <path d="M219.676 67.304c4.933 4.91 4.763 9.57-.747 15.102l-10.396 10.396c-5.554 5.543-10.18 5.701-15.114.746l-11.89-11.89c-4.955-4.932-4.785-9.582.736-15.102L192.66 56.16c5.543-5.554 10.17-5.701 15.125-.77l11.89 11.913zm-73.849 50.036c-4.944-4.921-9.57-4.797-15.125.758l-10.396 10.396c-5.532 5.52-5.668 10.18-.735 15.102l11.9 11.9c4.944 4.944 9.549 4.797 15.103-.746l10.396-10.396c5.532-5.52 5.69-10.17.758-15.102l-11.901-11.912zm243.85 109.42l-162.89 162.89c-16.403 16.403-35.217 16.403-51.597 0L12.31 226.77c-16.403-16.403-16.403-35.205 0-51.61L175.19 12.29c16.403-16.414 35.205-16.414 51.597 0l162.88 162.87c16.415 16.393 16.415 35.206.011 51.598m-268.08-33.112L95.33 167.4c-12.274-12.274-26.98-12.5-40.76 1.267l-9.808 9.785c-13.768 13.768-13.54 28.508-1.267 40.782l26.246 26.28c4.593 4.57 9.73 3.89 13.247.384 3.507-3.53 4.118-8.632-.464-13.18l-26.03-26.052c-4.933-4.921-4.775-9.57.769-15.102l10.396-10.385c5.532-5.555 10.18-5.713 15.114-.758l26.019 26.019c4.559 4.582 9.66 3.97 13.168.464 3.54-3.53 4.208-8.677-.362-13.258m49.165-76.983l-12.376-12.32c-12.263-12.286-26.992-12.501-40.748 1.267l-9.808 9.808c-13.768 13.756-13.553 28.474-1.29 40.76l39.651 39.64c4.593 4.559 9.74 3.891 13.26.373 3.517-3.518 4.117-8.586-.453-13.168l-9.13-9.107c2.489-.52 5.532-2.42 9.13-5.995l10.476-10.487c13.779-13.756 13.54-28.485 1.29-40.771M232.7 54.726l-12.365-12.331c-12.252-12.286-27.003-12.501-40.76 1.267l-9.797 9.808c-13.768 13.768-13.54 28.486-1.29 40.76l12.366 12.33c12.252 12.309 27.003 12.524 40.76-1.244l9.785-9.82c13.78-13.755 13.564-28.496 1.301-40.77" fill="#e6e6e5"/>
    <path fill="#009cdd" d="M121.596 193.704c4.57 4.581 3.903 9.717.362 13.247-3.507 3.507-8.609 4.129-13.168-.464l-26.019-26.02c-4.932-4.943-9.582-4.784-15.114.759l-10.396 10.396c-5.543 5.532-5.701 10.17-.77 15.102l26.032 26.042c4.582 4.559 3.97 9.65.464 13.19-3.53 3.496-8.655 4.187-13.247-.395l-26.257-26.28c-12.274-12.262-12.49-27.003 1.278-40.77l9.808-9.786c13.78-13.779 28.485-13.54 40.76-1.267l26.268 26.246zM200.515 33.296c-6.939.133-14.059 3.522-20.938 10.406l-9.812 9.781c-13.78 13.756-13.533 28.507-1.281 40.781l12.375 12.312c12.252 12.297 26.994 12.506 40.75-1.25l9.78-9.812c13.78-13.768 13.577-28.476 1.313-40.75l-12.37-12.342c-6.126-6.138-12.874-9.258-19.812-9.125zm-.062 18.562c2.469-.113 4.866 1.102 7.344 3.562l11.875 11.906c4.932 4.91 4.759 9.574-.75 15.094l-10.375 10.406c-5.555 5.544-10.181 5.705-15.125.75l-11.89-11.906c-4.96-4.92-4.8-9.561.72-15.094l10.4-10.406c2.771-2.777 5.312-4.199 7.78-4.312zM138.575 95.233c-6.936.132-14.059 3.517-20.938 10.407l-9.812 9.812c-13.768 13.745-13.544 28.464-1.281 40.75l39.65 39.658c4.582 4.548 9.732 3.851 13.25.344 3.519-3.518 4.102-8.563-.468-13.156l-9.125-9.094c2.477-.52 5.527-2.445 9.125-6.03l10.48-10.47c13.79-13.756 13.564-28.464 1.312-40.75l-12.38-12.343c-6.12-6.138-12.87-9.257-19.81-9.126zm-.093 18.562c2.469-.109 4.871 1.096 7.343 3.562l11.906 11.906c4.933 4.933 4.782 9.585-.75 15.094l-10.41 10.408c-5.554 5.544-10.15 5.694-15.094.75l-11.906-11.906c-4.944-4.922-4.813-9.574.72-15.094l10.405-10.406c2.778-2.777 5.313-4.203 7.782-4.312zM210.326 175.204c-16.392 16.392-16.392 35.194 0 51.597l162.89 162.89c16.403 16.403 35.194 16.403 51.61 0l162.89-162.89c16.391-16.404 16.37-35.205 0-51.597l-162.89-162.87c-16.416-16.415-35.206-16.415-51.598 0l-162.9 162.87z"/>
    <path d="M321.476 165.204h-14.842c-3.439 0-5.125 1.674-5.125 5.124v58.046c0 3.45 1.686 5.125 5.125 5.125h14.842c22.761 0 35.827-12.444 35.827-34.153 0-21.698-13.066-34.142-35.827-34.142m.94 56.36h-7.298v-44.436h7.297c13.35 0 20.996 8.1 20.996 22.218 0 14.13-7.647 22.218-20.996 22.218M399.386 164.304c-19.684 0-30.974 12.783-30.974 35.08 0 22.298 11.29 35.082 30.974 35.082s30.974-12.783 30.974-35.081c0-22.297-11.29-35.081-30.974-35.081m0 58.136c-10.86 0-17.082-8.406-17.082-23.055 0-14.661 6.222-23.055 17.082-23.055s17.082 8.394 17.082 23.055c0 14.65-6.222 23.055-17.082 23.055M492.096 221.904c-.803-1.426-1.708-3.043-4.061-3.043-.883 0-1.878.271-2.862.757-2.41 1.166-5.396 2.602-10.758 2.602-12.455 0-18.768-7.692-18.768-22.874 0-15.17 6.312-22.863 18.768-22.863 5.35 0 8.349 1.437 10.747 2.591.995.498 1.99.77 2.873.77 2.353 0 3.258-1.618 4.073-3.055l1.04-1.9c.442-.883.668-1.788.668-2.693 0-1.754-.928-3.156-2.828-4.322-3.609-2.183-10.261-3.597-16.946-3.597-20.521 0-32.275 12.783-32.275 35.069 0 22.297 11.754 35.081 32.275 35.081 6.686 0 13.338-1.403 16.958-3.597 1.889-1.154 2.817-2.568 2.817-4.322 0-.905-.227-1.81-.69-2.726l-1.03-1.878z" fill="#FFF"/>
</svg>
