<svg version="1.1" viewBox="0 0 315.74 125.88" xmlns="http://www.w3.org/2000/svg">
 <g transform="translate(-162.78 -451.34)">
  <g transform="matrix(.99373 0 0 .99373 1426.7 1401.4)">
   <g transform="matrix(.95716 0 -.16877 1.0448 -1063.9 -1022.2)" fill="#6e2b82" stroke-width=".26625" aria-label="SLOW JAMZ">
    <path d="m-151.01 159.93c-0.12234-1.5496-0.57091-2.7322-1.2234-3.6293-1.1418-1.6312-3.0584-3.1808-5.1381-4.1594-4.8119-2.1205-10.072-2.2836-13.702-2.2836-3.3031 0-8.7267 1.0195-11.663 5.1381-1.468 2.202-1.6312 5.9537-0.81558 8.0334 1.5496 3.9555 4.6896 5.2605 8.115 6.1576l8.6451 2.2428c1.2641 0.36701 3.4662 0.77479 3.9963 2.2428 0.28546 0.69324 0.0408 1.3049-0.24467 1.7127-1.101 1.468-3.874 1.6719-5.2197 1.6312-2.202-0.16312-4.3633-0.69325-5.709-3.2215h-12.601c0.16311 1.9574 0.89713 3.6293 1.5496 4.4857 4.0371 5.2197 13.212 6.2392 19.615 6.2392 3.2215 0 10.235-1.0195 13.335-5.709 1.6312-2.4875 1.9574-5.9129 0.97869-8.5228-1.5496-4.0371-6.0353-5.342-9.6238-6.3207l-8.4412-2.2021c-1.101-0.28545-3.2215-0.73402-3.7109-1.9982-0.24467-0.65246 0-1.1826 0.28546-1.5496 0.97869-1.3049 3.507-1.3865 4.608-1.2642 2.4467 0.24467 4.4449 0.61168 5.342 2.9769h10.684z" style="font-feature-settings:normal;font-variant-caps:normal;font-variant-ligatures:normal;font-variant-numeric:normal"/>
    <path d="m-138.01 150.92h-11.785v32.542h29.075v-7.9926h-17.29z" style="font-feature-settings:normal;font-variant-caps:normal;font-variant-ligatures:normal;font-variant-numeric:normal"/>
    <path d="m-101.98 149.98c-3.0584 0.28545-6.3207 0.93792-9.216 2.2428-6.4431 2.9768-8.6859 6.8916-9.4607 12.274-0.69324 4.3633 0.24467 10.684 5.1381 15.007 6.076 5.4236 17.576 5.8722 24.1 4.0779 6.076-1.6719 10.766-4.4041 12.886-11.092 1.468-4.4041 0.97869-11.01-2.8137-15.7-5.1789-6.4023-15.578-7.381-20.634-6.8101zm-5.1381 11.377c1.6312-2.5691 3.9148-3.507 6.0353-3.7924 2.2021-0.32623 6.7285-0.28545 9.1345 3.0992 2.0797 2.8545 2.3652 8.6043 0.85636 11.581-1.7535 3.6293-4.2818 4.5672-7.2586 4.6488-2.8545 0.0408-6.6062-0.40779-8.8898-4.4041-1.4273-2.406-1.7127-8.115 0.12234-11.133z" style="font-feature-settings:normal;font-variant-caps:normal;font-variant-ligatures:normal;font-variant-numeric:normal"/>
    <path d="m-55.175 150.92-4.2818 15.7s-0.44857 1.5088-0.5709 2.6098c-0.08156-0.89714-0.61168-2.6506-0.61168-2.6506l-5.4644-15.659h-11.948l11.377 32.542h11.051l5.8722-15.822s0.53012-1.3457 0.73402-2.7322c0.24467 1.4273 0.65246 2.6506 0.65246 2.6506l6.2392 15.904h10.97l10.235-32.542h-11.826l-4.4857 14.884s-0.44857 1.468-0.69324 2.8137c-0.20389-1.3865-0.61168-2.8137-0.61168-2.8137l-5.1381-14.884z" style="font-feature-settings:normal;font-variant-caps:normal;font-variant-ligatures:normal;font-variant-numeric:normal"/>
    <path d="m-8.5115 150.92v19.778c0 2.1613-0.040779 3.3439-0.48935 3.9963-0.69324 0.89714-2.1613 0.7748-5.6275 0.7748v7.9926h5.0566c3.3031 0 7.1771 0.12234 10.032-2.6914 2.8545-2.8545 2.8545-5.8722 2.8137-8.8082v-21.042z" style="font-feature-settings:normal;font-variant-caps:normal;font-variant-ligatures:normal;font-variant-numeric:normal"/>
    <path d="m16.201 150.92-14.191 32.542h12.56l1.7943-4.0779h12.601l1.835 4.0779h12.764l-14.599-32.542zm3.0992 20.104 3.2623-10.276 3.3439 10.276z" style="font-feature-settings:normal;font-variant-caps:normal;font-variant-ligatures:normal;font-variant-numeric:normal"/>
    <path d="m59.041 150.92h-15.007v32.542h11.785v-17.698c0.5709 2.1205 0.81558 2.9361 2.1205 5.5051l6.1168 12.193h8.6859l6.076-12.927c0.48934-1.101 1.468-2.8545 1.9166-4.8527v17.78h11.785v-32.542h-15.088s-8.849 16.638-9.0937 19.329c-0.12234-2.5691-9.2976-19.329-9.2976-19.329z" style="font-feature-settings:normal;font-variant-caps:normal;font-variant-ligatures:normal;font-variant-numeric:normal"/>
    <path d="m132.25 150.92h-36.538v7.9926h19.411l-20.226 16.597v7.9519h37.353v-7.9926h-19.492l19.492-16.556z" style="font-feature-settings:normal;font-variant-caps:normal;font-variant-ligatures:normal;font-variant-numeric:normal"/>
   </g>
   <g transform="matrix(.26458 0 0 .26458 -1218.6 -956.2)" stroke-width="1.0063">
    <path d="m137.46 66.65-7.285-7.267c-7.203-7.212-15.88-7.349-23.993 0.755l-5.757 5.775c-8.095 8.095-7.967 16.762-0.764 23.993l7.267 7.258c7.221 7.24 15.907 7.358 23.993-0.755l5.784-5.766c8.104-8.104 7.967-16.771 0.755-23.993m-36.462 36.453-7.294-7.249c-7.212-7.231-15.853-7.367-23.974 0.737l-5.766 5.766c-8.104 8.104-7.967 16.762-0.755 24.002l23.329 23.32c2.701 2.692 5.739 2.292 7.822 0.227 2.065-2.083 2.419-5.057-0.282-7.758l-5.366-5.348c1.464-0.318 3.265-1.437 5.366-3.538l6.166-6.166c8.095-8.104 7.967-16.771 0.755-23.993m-28.931 45.311-15.462-15.452c-7.221-7.221-15.88-7.358-23.984 0.737l-5.766 5.757c-8.104 8.104-7.976 16.78-0.746 24.011l15.443 15.452c2.701 2.701 5.73 2.31 7.785 0.236 2.083-2.083 2.428-5.084-0.264-7.749l-15.316-15.325c-2.91-2.91-2.81-5.639 0.446-8.904l6.112-6.112c3.265-3.265 6.003-3.356 8.913-0.446l15.307 15.316c2.692 2.692 5.675 2.337 7.749 0.264 2.092-2.083 2.474-5.102-0.218-7.785m157.76 19.481-95.861 95.87c-9.641 9.65-20.728 9.65-30.368 0l-95.852-95.87c-9.659-9.65-9.659-20.718 0-30.368l95.852-95.852c9.668-9.659 20.728-9.659 30.368 0l95.861 95.852c9.677 9.641 9.677 20.718 0 30.368m-107.03-100.85c-2.91-2.91-5.648-2.819-8.895 0.437l-6.121 6.121c-3.265 3.256-3.347 6.012-0.446 8.886l6.994 7.012c2.919 2.929 5.648 2.838 8.904-0.446l6.121-6.121c3.247-3.238 3.347-5.994 0.437-8.877zm-29.459 43.456c2.91 2.91 2.81 5.657-0.446 8.886l-6.112 6.13c-3.283 3.274-5.994 3.356-8.895 0.437l-7.003-7.012c-2.91-2.883-2.829-5.63 0.418-8.868l6.13-6.13c3.274-3.256 5.994-3.338 8.904-0.446l7.003 7.003z" fill="#dcddde"/>
    <path d="m93.342 110.5-7.003-7.003c-2.919-2.901-5.621-2.819-8.913 0.437l-6.121 6.13c-3.256 3.256-3.338 5.985-0.418 8.886l7.003 6.994c2.901 2.929 5.612 2.847 8.895-0.427l6.103-6.13c3.274-3.238 3.365-5.975 0.455-8.886m7.667-7.403c7.203 7.221 7.34 15.898-0.764 23.993l-6.166 6.166c-2.101 2.101-3.902 3.22-5.375 3.547l5.375 5.348c2.701 2.692 2.347 5.675 0.273 7.749-2.074 2.065-5.111 2.465-7.804-0.227l-23.338-23.31c-7.221-7.231-7.349-15.889 0.764-24.002l5.766-5.766c8.104-8.113 16.762-7.976 23.974-0.746l7.294 7.249zm28.795-29.049-6.994-7.003c-2.929-2.91-5.657-2.81-8.913 0.437l-6.112 6.121c-3.265 3.256-3.347 6.012-0.446 8.877l7.003 7.021c2.901 2.919 5.63 2.829 8.895-0.437l6.112-6.13c3.256-3.238 3.347-5.994 0.455-8.886m7.658-7.394c7.212 7.221 7.349 15.88-0.755 23.993l-5.775 5.766c-8.095 8.113-16.771 7.985-23.993 0.746l-7.276-7.258c-7.212-7.231-7.331-15.898 0.764-23.993l5.757-5.766c8.113-8.104 16.78-7.967 23.993-0.755zm-65.384 81.755c2.683 2.692 2.292 5.721 0.218 7.794-2.092 2.065-5.075 2.428-7.758-0.273l-15.316-15.307c-2.901-2.919-5.639-2.829-8.904 0.446l-6.121 6.103c-3.247 3.274-3.347 5.994-0.437 8.904l15.316 15.325c2.701 2.665 2.337 5.675 0.273 7.758-2.074 2.065-5.093 2.465-7.794-0.227l-15.443-15.462c-7.231-7.231-7.367-15.916 0.746-24.011l5.766-5.757c8.104-8.104 16.771-7.967 23.993-0.746l15.462 15.452z" fill="#6e2b82"/>
    <path d="m704.68 227.67 55.933-78.175-55.933-77.954zm-32.965 44.24h-25.787l-75.004-78.307v78.307h-72.691v-27.174c-16.67 21.228-44.482 32.019-82.733 32.019-63.927 0-99.139-30.235-99.139-85.199v-32.833h-50.164v113.19h-101.21v-237.45l392.57 0.044 74.431 77.712v-77.734l171.68-0.022 20.325 27.945 20.325-27.945h37.788l24.752-33.956h92.642l-113.76 156.35 83.768 115.06h-126.82l-20.347-27.967-20.347 27.967h-37.238l-32.767 45.011-92.995 0.022 32.723-45.033z" fill="#6e2b82"/>
    <path d="m455.08 48.662h-0.088l0.088 0.396v145.1c0 17.661-8.566 33.868-27.702 39.021 29.442 0 43.778-15.525 43.778-39.021v-131.24h13.367v128.65c0 49.129-38.669 54.81-69.014 54.81s-69.014-5.681-69.014-54.81v-142.89l-167.45-0.022v209.07h16.031v-194.49h135.36v128.34c0 58.708 45.473 71.018 85.067 71.018 39.572 0 85.045-12.31 85.045-71.018v-142.89z" fill="#fff"/>
    <path d="m207.56 257.71h16.009v-140.3h95.153v-14.556h-95.153v-12.53h95.153v-14.578h-111.16z" fill="#fff"/>
    <path d="m236.05 257.71h16.031v-113.19h54.282v-14.556h-70.313z" fill="#fff"/>
    <path d="m402.72 233.27c-19.136-5.131-27.724-21.338-27.724-39.021v-131.05h12.574v130.52c0 14.732 7.355 29.574 27.636 29.574s27.614-14.842 27.614-29.574v-145.07h-16.053v145.07c0 8.896-2.731 13.411-11.561 13.411-8.808 0-11.583-4.514-11.583-13.411l-0.022-145.07-44.659 0.044v145.56c0 23.518 14.336 39.021 43.778 39.021" fill="#fff"/>
    <path d="m690.9 234.74-178.61-186.39v209.35h16.075v-169.47l12.464 13.014v156.46h16.031v-139.74l134.04 139.74v-22.968z" fill="#fff"/>
    <path d="m690.62 193.78v-145.1h-16.053v128.36l-12.442-13.014v-115.35h-16.075v98.632l-94.448-98.632-22.285-0.044 161.3 168.42v-23.276z" fill="#fff"/>
    <path d="m567.51 146.66v22.946l84.406 88.084h22.087l-106.49-111.03z" fill="#fff"/>
    <path d="m773.8 257.71h21.096l27.46-37.722 27.46 37.722h21.096l-38.052-52.168 7.179-9.887 45.209 62.055h21.03l-66.239-90.837z" fill="#7ccbb7"/>
    <path d="m971.73 14.681h-20.612c-0.176 0.176-103.78 142.23-103.78 142.23l73.308 100.77h21.074l-73.418-100.83z" fill="#7ccbb7"/>
    <path d="m872.55 48.642h-21.096l-27.46 37.744-27.482-37.744h-21.074l38.052 52.168-7.201 9.909-45.187-62.077h-21.052l66.239 90.815z" fill="#7ccbb7"/>
    <path d="m725.71 48.642h-21.096l73.44 100.86-111.32 153.29h20.634c0.154-0.176 111.65-153.35 111.65-153.35z" fill="#7ccbb7"/>
    <path d="m914.02 14.681c-0.154 0.176-210.15 288.17-210.15 288.17l20.964-0.066 209.84-288.1z" fill="#7ccbb7"/>
   </g>
  </g>
 </g>
</svg>
