<svg version="1.1" viewBox="0 0 265 127.35" xmlns="http://www.w3.org/2000/svg">
 <g transform="translate(-167.15 -469.08)">
  <g transform="matrix(1.0026 0 0 1.0026 1056.8 694.76)">
   <g transform="matrix(.95716 0 -.16877 1.0448 -926.33 -293.56)" fill="#6e2b82" stroke-width=".2639" aria-label="REGGAE">
    <path d="m124.05 153.32h-22.469v32.542h11.785v-12.152h4.9342l6.7285 12.152h13.702l-7.8295-12.601c2.9361-0.9787 4.8527-2.2836 6.2799-5.0566 1.5496-3.0992 1.3049-6.8916-0.48935-9.8685-3.1808-5.2605-7.8703-5.0158-12.641-5.0158zm-10.684 13.253v-5.2605h6.1168c3.4662 0 5.5459-0.16312 6.5246 1.6719 0.32623 0.57091 0.44856 1.5496-0.12234 2.3244-0.97869 1.4273-3.507 1.2642-6.0353 1.2642z" style="font-feature-settings:normal;font-variant-caps:normal;font-variant-ligatures:normal;font-variant-numeric:normal"/>
    <path d="m171.93 153.32h-32.623v32.542h34.417v-7.9926h-22.632v-4.5672h18.269v-7.4625h-18.269v-4.5264h20.838z" style="font-feature-settings:normal;font-variant-caps:normal;font-variant-ligatures:normal;font-variant-numeric:normal"/>
    <path d="m215.41 160.82c-0.81558-1.3049-1.1418-1.9982-2.6098-3.3031-6.7285-5.9129-18.514-5.8314-24.63-4.2002-6.1576 1.6312-11.622 5.1789-13.824 12.071-1.3457 4.2818-0.73402 11.459 3.14 15.781 5.0566 5.5867 11.867 6.647 19.044 5.5459 3.2215-0.48935 6.647-1.9982 8.6859-3.9556v3.0992h10.399v-18.677h-18.147v6.7693h7.748c-2.2428 3.507-5.4236 4.9342-8.6043 5.1789-2.6506 0.16311-6.1576-0.28545-8.7674-3.6293-2.1205-2.6506-2.4467-6.2799-1.6312-8.7267 1.0602-3.1808 3.4662-5.3828 6.6062-6.2799 3.3846-0.89713 7.8295-0.5709 11.663 3.0992z" style="font-feature-settings:normal;font-variant-caps:normal;font-variant-ligatures:normal;font-variant-numeric:normal"/>
    <path d="m258.15 160.82c-0.81558-1.3049-1.1418-1.9982-2.6098-3.3031-6.7285-5.9129-18.514-5.8314-24.63-4.2002-6.1576 1.6312-11.622 5.1789-13.824 12.071-1.3457 4.2818-0.73402 11.459 3.14 15.781 5.0566 5.5867 11.867 6.647 19.044 5.5459 3.2215-0.48935 6.647-1.9982 8.6859-3.9556v3.0992h10.399v-18.677h-18.147v6.7693h7.748c-2.2428 3.507-5.4236 4.9342-8.6043 5.1789-2.6506 0.16311-6.1576-0.28545-8.7674-3.6293-2.1205-2.6506-2.4467-6.2799-1.6312-8.7267 1.0602-3.1808 3.4662-5.3828 6.6062-6.2799 3.3846-0.89713 7.8295-0.5709 11.663 3.0992z" style="font-feature-settings:normal;font-variant-caps:normal;font-variant-ligatures:normal;font-variant-numeric:normal"/>
    <path d="m272.56 153.32-14.191 32.542h12.56l1.7943-4.0779h12.601l1.835 4.0779h12.764l-14.599-32.542zm3.0992 20.104 3.2623-10.276 3.3439 10.276z" style="font-feature-settings:normal;font-variant-caps:normal;font-variant-ligatures:normal;font-variant-numeric:normal"/>
    <path d="m333.02 153.32h-32.623v32.542h34.417v-7.9926h-22.632v-4.5672h18.269v-7.4625h-18.269v-4.5264h20.838z" style="font-feature-settings:normal;font-variant-caps:normal;font-variant-ligatures:normal;font-variant-numeric:normal"/>
   </g>
   <g transform="matrix(.26458 0 0 .26458 -887.48 -225.23)" stroke-width=".99742">
    <path d="m137.46 66.65-7.285-7.267c-7.203-7.212-15.88-7.349-23.993 0.755l-5.757 5.775c-8.095 8.095-7.967 16.762-0.764 23.993l7.267 7.258c7.221 7.24 15.907 7.358 23.993-0.755l5.784-5.766c8.104-8.104 7.967-16.771 0.755-23.993m-36.462 36.453-7.294-7.249c-7.212-7.231-15.853-7.367-23.974 0.737l-5.766 5.766c-8.104 8.104-7.967 16.762-0.755 24.002l23.329 23.32c2.701 2.692 5.739 2.292 7.822 0.227 2.065-2.083 2.419-5.057-0.282-7.758l-5.366-5.348c1.464-0.318 3.265-1.437 5.366-3.538l6.166-6.166c8.095-8.104 7.967-16.771 0.755-23.993m-28.931 45.311-15.462-15.452c-7.221-7.221-15.88-7.358-23.984 0.737l-5.766 5.757c-8.104 8.104-7.976 16.78-0.746 24.011l15.443 15.452c2.701 2.701 5.73 2.31 7.785 0.236 2.083-2.083 2.428-5.084-0.264-7.749l-15.316-15.325c-2.91-2.91-2.81-5.639 0.446-8.904l6.112-6.112c3.265-3.265 6.003-3.356 8.913-0.446l15.307 15.316c2.692 2.692 5.675 2.337 7.749 0.264 2.092-2.083 2.474-5.102-0.218-7.785m157.76 19.481-95.861 95.87c-9.641 9.65-20.728 9.65-30.368 0l-95.852-95.87c-9.659-9.65-9.659-20.718 0-30.368l95.852-95.852c9.668-9.659 20.728-9.659 30.368 0l95.861 95.852c9.677 9.641 9.677 20.718 0 30.368m-107.03-100.85c-2.91-2.91-5.648-2.819-8.895 0.437l-6.121 6.121c-3.265 3.256-3.347 6.012-0.446 8.886l6.994 7.012c2.919 2.929 5.648 2.838 8.904-0.446l6.121-6.121c3.247-3.238 3.347-5.994 0.437-8.877zm-29.459 43.456c2.91 2.91 2.81 5.657-0.446 8.886l-6.112 6.13c-3.283 3.274-5.994 3.356-8.895 0.437l-7.003-7.012c-2.91-2.883-2.829-5.63 0.418-8.868l6.13-6.13c3.274-3.256 5.994-3.338 8.904-0.446l7.003 7.003z" fill="#dcddde"/>
    <path d="m93.342 110.5-7.003-7.003c-2.919-2.901-5.621-2.819-8.913 0.437l-6.121 6.13c-3.256 3.256-3.338 5.985-0.418 8.886l7.003 6.994c2.901 2.929 5.612 2.847 8.895-0.427l6.103-6.13c3.274-3.238 3.365-5.975 0.455-8.886m7.667-7.403c7.203 7.221 7.34 15.898-0.764 23.993l-6.166 6.166c-2.101 2.101-3.902 3.22-5.375 3.547l5.375 5.348c2.701 2.692 2.347 5.675 0.273 7.749-2.074 2.065-5.111 2.465-7.804-0.227l-23.338-23.31c-7.221-7.231-7.349-15.889 0.764-24.002l5.766-5.766c8.104-8.113 16.762-7.976 23.974-0.746l7.294 7.249zm28.795-29.049-6.994-7.003c-2.929-2.91-5.657-2.81-8.913 0.437l-6.112 6.121c-3.265 3.256-3.347 6.012-0.446 8.877l7.003 7.021c2.901 2.919 5.63 2.829 8.895-0.437l6.112-6.13c3.256-3.238 3.347-5.994 0.455-8.886m7.658-7.394c7.212 7.221 7.349 15.88-0.755 23.993l-5.775 5.766c-8.095 8.113-16.771 7.985-23.993 0.746l-7.276-7.258c-7.212-7.231-7.331-15.898 0.764-23.993l5.757-5.766c8.113-8.104 16.78-7.967 23.993-0.755zm-65.384 81.755c2.683 2.692 2.292 5.721 0.218 7.794-2.092 2.065-5.075 2.428-7.758-0.273l-15.316-15.307c-2.901-2.919-5.639-2.829-8.904 0.446l-6.121 6.103c-3.247 3.274-3.347 5.994-0.437 8.904l15.316 15.325c2.701 2.665 2.337 5.675 0.273 7.758-2.074 2.065-5.093 2.465-7.794-0.227l-15.443-15.462c-7.231-7.231-7.367-15.916 0.746-24.011l5.766-5.757c8.104-8.104 16.771-7.967 23.993-0.746l15.462 15.452z" fill="#6e2b82"/>
    <path d="m704.68 227.67 55.933-78.175-55.933-77.954zm-32.965 44.24h-25.787l-75.004-78.307v78.307h-72.691v-27.174c-16.67 21.228-44.482 32.019-82.733 32.019-63.927 0-99.139-30.235-99.139-85.199v-32.833h-50.164v113.19h-101.21v-237.45l392.57 0.044 74.431 77.712v-77.734l171.68-0.022 20.325 27.945 20.325-27.945h37.788l24.752-33.956h92.642l-113.76 156.35 83.768 115.06h-126.82l-20.347-27.967-20.347 27.967h-37.238l-32.767 45.011-92.995 0.022 32.723-45.033z" fill="#6e2b82"/>
    <path d="m455.08 48.662h-0.088l0.088 0.396v145.1c0 17.661-8.566 33.868-27.702 39.021 29.442 0 43.778-15.525 43.778-39.021v-131.24h13.367v128.65c0 49.129-38.669 54.81-69.014 54.81s-69.014-5.681-69.014-54.81v-142.89l-167.45-0.022v209.07h16.031v-194.49h135.36v128.34c0 58.708 45.473 71.018 85.067 71.018 39.572 0 85.045-12.31 85.045-71.018v-142.89z" fill="#fff"/>
    <path d="m207.56 257.71h16.009v-140.3h95.153v-14.556h-95.153v-12.53h95.153v-14.578h-111.16z" fill="#fff"/>
    <path d="m236.05 257.71h16.031v-113.19h54.282v-14.556h-70.313z" fill="#fff"/>
    <path d="m402.72 233.27c-19.136-5.131-27.724-21.338-27.724-39.021v-131.05h12.574v130.52c0 14.732 7.355 29.574 27.636 29.574s27.614-14.842 27.614-29.574v-145.07h-16.053v145.07c0 8.896-2.731 13.411-11.561 13.411-8.808 0-11.583-4.514-11.583-13.411l-0.022-145.07-44.659 0.044v145.56c0 23.518 14.336 39.021 43.778 39.021" fill="#fff"/>
    <path d="m690.9 234.74-178.61-186.39v209.35h16.075v-169.47l12.464 13.014v156.46h16.031v-139.74l134.04 139.74v-22.968z" fill="#fff"/>
    <path d="m690.62 193.78v-145.1h-16.053v128.36l-12.442-13.014v-115.35h-16.075v98.632l-94.448-98.632-22.285-0.044 161.3 168.42v-23.276z" fill="#fff"/>
    <path d="m567.51 146.66v22.946l84.406 88.084h22.087l-106.49-111.03z" fill="#fff"/>
    <path d="m773.8 257.71h21.096l27.46-37.722 27.46 37.722h21.096l-38.052-52.168 7.179-9.887 45.209 62.055h21.03l-66.239-90.837z" fill="#7ccbb7"/>
    <path d="m971.73 14.681h-20.612c-0.176 0.176-103.78 142.23-103.78 142.23l73.308 100.77h21.074l-73.418-100.83z" fill="#7ccbb7"/>
    <path d="m872.55 48.642h-21.096l-27.46 37.744-27.482-37.744h-21.074l38.052 52.168-7.201 9.909-45.187-62.077h-21.052l66.239 90.815z" fill="#7ccbb7"/>
    <path d="m725.71 48.642h-21.096l73.44 100.86-111.32 153.29h20.634c0.154-0.176 111.65-153.35 111.65-153.35z" fill="#7ccbb7"/>
    <path d="m914.02 14.681c-0.154 0.176-210.15 288.17-210.15 288.17l20.964-0.066 209.84-288.1z" fill="#7ccbb7"/>
   </g>
  </g>
 </g>
</svg>
