<?xml version="1.0" encoding="UTF-8" standalone="no"?>
<!-- Created with Inkscape (http://www.inkscape.org/) -->

<svg
   xmlns:dc="http://purl.org/dc/elements/1.1/"
   xmlns:cc="http://creativecommons.org/ns#"
   xmlns:rdf="http://www.w3.org/1999/02/22-rdf-syntax-ns#"
   xmlns:svg="http://www.w3.org/2000/svg"
   xmlns="http://www.w3.org/2000/svg"
   xmlns:sodipodi="http://sodipodi.sourceforge.net/DTD/sodipodi-0.dtd"
   xmlns:inkscape="http://www.inkscape.org/namespaces/inkscape"
   id="svg2985"
   version="1.1"
   inkscape:version="0.48.5 r10040"
   width="1000"
   height="317.43976"
   xml:space="preserve"
   sodipodi:docname="A.svg"><metadata
     id="metadata2991"><rdf:RDF><cc:Work
         rdf:about=""><dc:format>image/svg+xml</dc:format><dc:type
           rdf:resource="http://purl.org/dc/dcmitype/StillImage" /><dc:title></dc:title></cc:Work></rdf:RDF></metadata><defs
     id="defs2989"><clipPath
       clipPathUnits="userSpaceOnUse"
       id="clipPath3175"><path
         d="M 0,792 612,792 612,0 0,0 0,792 z"
         id="path3177"
         inkscape:connector-curvature="0" /></clipPath><clipPath
       clipPathUnits="userSpaceOnUse"
       id="clipPath3205"><path
         d="M 0,792 612,792 612,0 0,0 0,792 z"
         id="path3207"
         inkscape:connector-curvature="0" /></clipPath><clipPath
       clipPathUnits="userSpaceOnUse"
       id="clipPath3265"><path
         d="m 242.252,718.14 127.044,0 0,48.045 -127.044,0 0,-48.045 z"
         id="path3267"
         inkscape:connector-curvature="0" /></clipPath><clipPath
       clipPathUnits="userSpaceOnUse"
       id="clipPath3281"><path
         d="M 0,792 612,792 612,0 0,0 0,792 z"
         id="path3283"
         inkscape:connector-curvature="0" /></clipPath><clipPath
       clipPathUnits="userSpaceOnUse"
       id="clipPath6031"><path
         inkscape:connector-curvature="0"
         d="m 761.528,166.79 43.511,0 0,27.877 -43.511,0 0,-27.877 z"
         id="path6033" /></clipPath></defs><sodipodi:namedview
     pagecolor="#ffffff"
     bordercolor="#666666"
     borderopacity="1"
     objecttolerance="10"
     gridtolerance="10"
     guidetolerance="10"
     inkscape:pageopacity="0"
     inkscape:pageshadow="2"
     inkscape:window-width="1052"
     inkscape:window-height="1015"
     id="namedview2987"
     showgrid="false"
     fit-margin-left="0.5"
     fit-margin-bottom="0.5"
     fit-margin-top="0.5"
     fit-margin-right="0.5"
     inkscape:zoom="0.26930546"
     inkscape:cx="972.78039"
     inkscape:cy="-269.4316"
     inkscape:window-x="861"
     inkscape:window-y="-1"
     inkscape:window-maximized="0"
     inkscape:current-layer="g2993"><inkscape:grid
       type="xygrid"
       id="grid13664"
       empspacing="5"
       visible="true"
       enabled="true"
       snapvisiblegridlinesonly="true"
       originx="246.39239px"
       originy="607.05817px" /></sodipodi:namedview><g
     id="g2993"
     inkscape:groupmode="layer"
     inkscape:label="it_artist_application_membership"
     transform="matrix(1.25,0,0,-1.25,-55.922586,607.55658)"><g
       id="g13279"
       transform="matrix(7.2763583,0,0,7.2763583,154.70911,432.72522)"><path
         d="M 0,0 -0.801,0.799 C -1.593,1.592 -2.547,1.607 -3.439,0.716 L -4.072,0.081 c -0.89,-0.89 -0.876,-1.843 -0.084,-2.638 l 0.799,-0.798 c 0.794,-0.796 1.749,-0.809 2.638,0.083 l 0.636,0.634 C 0.808,-1.747 0.793,-0.794 0,0 m -4.009,-4.008 -0.802,0.797 c -0.793,0.795 -1.743,0.81 -2.636,-0.081 l -0.634,-0.634 c -0.891,-0.891 -0.876,-1.843 -0.083,-2.639 l 2.565,-2.564 c 0.297,-0.296 0.631,-0.252 0.86,-0.025 0.227,0.229 0.266,0.556 -0.031,0.853 l -0.59,0.588 c 0.161,0.035 0.359,0.158 0.59,0.389 l 0.678,0.678 c 0.89,0.891 0.876,1.844 0.083,2.638 m -3.181,-4.982 -1.7,1.699 c -0.794,0.794 -1.746,0.809 -2.637,-0.081 l -0.634,-0.633 c -0.891,-0.891 -0.877,-1.845 -0.082,-2.64 l 1.698,-1.699 c 0.297,-0.297 0.63,-0.254 0.856,-0.026 0.229,0.229 0.267,0.559 -0.029,0.852 l -1.684,1.685 c -0.32,0.32 -0.309,0.62 0.049,0.979 l 0.672,0.672 c 0.359,0.359 0.66,0.369 0.98,0.049 l 1.683,-1.684 c 0.296,-0.296 0.624,-0.257 0.852,-0.029 0.23,0.229 0.272,0.561 -0.024,0.856 m 17.346,-2.142 -10.54,-10.541 c -1.06,-1.061 -2.279,-1.061 -3.339,0 l -10.539,10.541 c -1.062,1.061 -1.062,2.278 0,3.339 L -3.723,2.746 c 1.063,1.062 2.279,1.062 3.339,0 l 10.54,-10.539 c 1.064,-1.06 1.064,-2.278 0,-3.339 M -1.612,-0.043 c -0.32,0.32 -0.621,0.31 -0.978,-0.048 l -0.673,-0.673 c -0.359,-0.358 -0.368,-0.661 -0.049,-0.977 l 0.769,-0.771 c 0.321,-0.322 0.621,-0.312 0.979,0.049 l 0.673,0.673 c 0.357,0.356 0.368,0.659 0.048,0.976 l -0.769,0.771 z m -3.239,-4.778 c 0.32,-0.32 0.309,-0.622 -0.049,-0.977 L -5.572,-6.472 C -5.933,-6.832 -6.231,-6.841 -6.55,-6.52 l -0.77,0.771 c -0.32,0.317 -0.311,0.619 0.046,0.975 L -6.6,-4.1 c 0.36,0.358 0.659,0.367 0.979,0.049 l 0.77,-0.77 z"
         style="fill:#dcddde;fill-opacity:1;fill-rule:nonzero;stroke:none"
         id="path13281"
         inkscape:connector-curvature="0" /></g><g
       id="g13283"
       transform="matrix(7.2763583,0,0,7.2763583,119.41151,397.64371)"
       style="fill:#6e2b82;fill-opacity:1"><path
         d="M 0,0 -0.77,0.77 C -1.091,1.089 -1.388,1.08 -1.75,0.722 L -2.423,0.048 C -2.781,-0.31 -2.79,-0.61 -2.469,-0.929 l 0.77,-0.769 c 0.319,-0.322 0.617,-0.313 0.978,0.047 l 0.671,0.674 C 0.31,-0.621 0.32,-0.32 0,0 M 0.843,0.814 C 1.635,0.02 1.65,-0.934 0.759,-1.824 L 0.081,-2.502 C -0.15,-2.733 -0.348,-2.856 -0.51,-2.892 L 0.081,-3.48 c 0.297,-0.296 0.258,-0.624 0.03,-0.852 -0.228,-0.227 -0.562,-0.271 -0.858,0.025 l -2.566,2.563 c -0.794,0.795 -0.808,1.747 0.084,2.639 l 0.634,0.634 c 0.891,0.892 1.843,0.877 2.636,0.082 L 0.843,0.814 z M 4.009,4.008 3.24,4.778 C 2.918,5.098 2.618,5.087 2.26,4.73 L 1.588,4.057 C 1.229,3.699 1.22,3.396 1.539,3.081 L 2.309,2.309 C 2.628,1.988 2.928,1.998 3.287,2.357 L 3.959,3.031 C 4.317,3.387 4.327,3.69 4.009,4.008 M 4.851,4.821 C 5.644,4.027 5.659,3.075 4.768,2.183 L 4.133,1.549 C 3.243,0.657 2.289,0.671 1.495,1.467 l -0.8,0.798 C -0.098,3.06 -0.111,4.013 0.779,4.903 L 1.412,5.537 C 2.304,6.428 3.257,6.413 4.05,5.62 L 4.851,4.821 z m -7.189,-8.989 c 0.295,-0.296 0.252,-0.629 0.024,-0.857 -0.23,-0.227 -0.558,-0.267 -0.853,0.03 l -1.684,1.683 c -0.319,0.321 -0.62,0.311 -0.979,-0.049 l -0.673,-0.671 c -0.357,-0.36 -0.368,-0.659 -0.048,-0.979 l 1.684,-1.685 c 0.297,-0.293 0.257,-0.624 0.03,-0.853 -0.228,-0.227 -0.56,-0.271 -0.857,0.025 l -1.698,1.7 c -0.795,0.795 -0.81,1.75 0.082,2.64 l 0.634,0.633 c 0.891,0.891 1.844,0.876 2.638,0.082 l 1.7,-1.699 z"
         style="fill:#6e2b82;fill-opacity:1;fill-rule:nonzero;stroke:none"
         id="path13285"
         inkscape:connector-curvature="0" /></g><g
       id="g6035"
       transform="matrix(17.616688,0,0,17.616688,608.48584,303.91151)"
       style="fill:#6e2b82;fill-opacity:1"><path
         d="M 0,0 2.54,3.55 0,7.09 0,0 z m -1.497,-2.009 -1.171,0 -3.406,3.556 0,-3.556 -3.301,0 0,1.234 c -0.757,-0.964 -2.02,-1.454 -3.757,-1.454 -2.903,0 -4.502,1.373 -4.502,3.869 l 0,1.491 -2.278,0 0,-5.14 -4.596,0 0,10.783 17.827,-0.002 3.38,-3.529 0,3.53 7.796,10e-4 0.923,-1.269 0.923,1.269 1.716,0 1.124,1.542 4.207,0 -5.166,-7.1 3.804,-5.225 -5.759,0 -0.924,1.27 -0.924,-1.27 -1.691,0 -1.488,-2.044 -4.223,-0.001 1.486,2.045 z"
         style="fill:#6e2b82;fill-opacity:1;fill-rule:nonzero;stroke:none"
         id="path6037"
         inkscape:connector-curvature="0" /></g><g
       id="g6039"
       transform="matrix(17.616688,0,0,17.616688,408.80067,447.11582)"><path
         d="M 0,0 -0.004,0 0,-0.018 0,-6.607 c 0,-0.802 -0.389,-1.538 -1.258,-1.772 1.337,0 1.988,0.705 1.988,1.772 l 0,5.96 0.607,0 0,-5.842 c 0,-2.231 -1.756,-2.489 -3.134,-2.489 -1.378,0 -3.134,0.258 -3.134,2.489 l 0,6.489 -7.604,0.001 0,-9.494 0.728,0 0,8.832 6.147,0 0,-5.828 c 0,-2.666 2.065,-3.225 3.863,-3.225 1.797,0 3.862,0.559 3.862,3.225 L 2.065,0 2.064,0 0,0 z"
         style="fill:#ffffff;fill-opacity:1;fill-rule:nonzero;stroke:none"
         id="path6041"
         inkscape:connector-curvature="0" /></g><g
       id="g6043"
       transform="matrix(17.616688,0,0,17.616688,210.7891,279.88059)"><path
         d="m 0,0 0.727,0 0,6.371 4.321,0 0,0.661 -4.321,0 0,0.569 4.321,0 0,0.662 L 0,8.263 0,0 z"
         style="fill:#ffffff;fill-opacity:1;fill-rule:nonzero;stroke:none"
         id="path6045"
         inkscape:connector-curvature="0" /></g><g
       id="g6047"
       transform="matrix(17.616688,0,0,17.616688,233.58156,279.88059)"><path
         d="m 0,0 0.728,0 0,5.14 2.465,0 0,0.661 L 0,5.801 0,0 z"
         style="fill:#ffffff;fill-opacity:1;fill-rule:nonzero;stroke:none"
         id="path6049"
         inkscape:connector-curvature="0" /></g><g
       id="g6051"
       transform="matrix(17.616688,0,0,17.616688,366.91699,299.43159)"><path
         d="m 0,0 c -0.869,0.233 -1.259,0.969 -1.259,1.772 l 0,5.951 0.571,0 0,-5.927 c 0,-0.669 0.334,-1.343 1.255,-1.343 0.921,0 1.254,0.674 1.254,1.343 l 0,6.588 -0.729,0 0,-6.588 c 0,-0.404 -0.124,-0.609 -0.525,-0.609 -0.4,0 -0.526,0.205 -0.526,0.609 L 0.04,8.384 -1.988,8.382 l 0,-6.61 C -1.988,0.704 -1.337,0 0,0"
         style="fill:#ffffff;fill-opacity:1;fill-rule:nonzero;stroke:none"
         id="path6053"
         inkscape:connector-curvature="0" /></g><g
       id="g6055"
       transform="matrix(17.616688,0,0,17.616688,597.45427,298.25304)"><path
         d="m 0,0 -8.111,8.464 0,-9.507 0.73,0 0,7.696 0.566,-0.591 0,-7.105 0.728,0 0,6.346 L 0,-1.043 0,0 z"
         style="fill:#ffffff;fill-opacity:1;fill-rule:nonzero;stroke:none"
         id="path6057"
         inkscape:connector-curvature="0" /></g><g
       id="g6059"
       transform="matrix(17.616688,0,0,17.616688,597.23405,331.01832)"><path
         d="m 0,0 0,6.589 -0.729,0 0,-5.829 -0.565,0.591 0,5.238 -0.73,0 0,-4.479 L -6.313,6.589 -7.325,6.591 0,-1.057 0,0 z"
         style="fill:#ffffff;fill-opacity:1;fill-rule:nonzero;stroke:none"
         id="path6061"
         inkscape:connector-curvature="0" /></g><g
       id="g6063"
       transform="matrix(17.616688,0,0,17.616688,498.74796,368.7198)"><path
         d="m 0,0 0,-1.042 3.833,-4 1.003,0 L 0,0 z"
         style="fill:#ffffff;fill-opacity:1;fill-rule:nonzero;stroke:none"
         id="path6065"
         inkscape:connector-curvature="0" /></g><g
       id="g6067"
       transform="matrix(17.616688,0,0,17.616688,663.77404,279.88059)"
       style="fill:#7ccbb7;fill-opacity:1"><path
         d="M 0,0 0.958,0 2.205,1.713 3.452,0 4.41,0 2.682,2.369 3.008,2.818 5.061,0 6.016,0 3.008,4.125 0,0 z"
         style="fill:#7ccbb7;fill-opacity:1;fill-rule:nonzero;stroke:none"
         id="path6069"
         inkscape:connector-curvature="0" /></g><g
       id="g6071"
       transform="matrix(17.616688,0,0,17.616688,822.11989,474.30013)"
       style="fill:#7ccbb7;fill-opacity:1"><path
         d="m 0,0 -0.936,0 c -0.008,-0.008 -4.713,-6.459 -4.713,-6.459 l 3.329,-4.576 0.957,0 -3.334,4.579 L 0,0 z"
         style="fill:#7ccbb7;fill-opacity:1;fill-rule:nonzero;stroke:none"
         id="path6073"
         inkscape:connector-curvature="0" /></g><g
       id="g6075"
       transform="matrix(17.616688,0,0,17.616688,742.77609,447.13167)"
       style="fill:#7ccbb7;fill-opacity:1"><path
         d="M 0,0 -0.958,0 -2.205,-1.714 -3.453,0 -4.41,0 -2.682,-2.369 -3.009,-2.819 -5.061,0 -6.017,0 -3.009,-4.124 0,0 z"
         style="fill:#7ccbb7;fill-opacity:1;fill-rule:nonzero;stroke:none"
         id="path6077"
         inkscape:connector-curvature="0" /></g><g
       id="g6079"
       transform="matrix(17.616688,0,0,17.616688,625.30273,447.13167)"
       style="fill:#7ccbb7;fill-opacity:1"><path
         d="m 0,0 -0.958,0 3.335,-4.58 -5.055,-6.961 0.937,0 c 0.007,0.008 5.07,6.964 5.07,6.964 L 0,0 z"
         style="fill:#7ccbb7;fill-opacity:1;fill-rule:nonzero;stroke:none"
         id="path6081"
         inkscape:connector-curvature="0" /></g><g
       id="g6083"
       transform="matrix(17.616688,0,0,17.616688,775.95008,474.30013)"
       style="fill:#7ccbb7;fill-opacity:1"><path
         d="m 0,0 c -0.007,-0.008 -9.543,-13.086 -9.543,-13.086 l 0.952,0.003 L 0.938,0 0,0 z"
         style="fill:#7ccbb7;fill-opacity:1;fill-rule:nonzero;stroke:none"
         id="path6085"
         inkscape:connector-curvature="0" /></g></g></svg>