<?xml version="1.0" encoding="UTF-8" standalone="no"?>
<!-- Created with Inkscape (http://www.inkscape.org/) -->
<svg xmlns:rdf="http://www.w3.org/1999/02/22-rdf-syntax-ns#" xmlns="http://www.w3.org/2000/svg" height="633.53" width="600" version="1.1" xmlns:cc="http://creativecommons.org/ns#" xmlns:dc="http://purl.org/dc/elements/1.1/">
 <metadata>
  <rdf:RDF>
   <cc:Work rdf:about="">
    <dc:format>image/svg+xml</dc:format>
    <dc:type rdf:resource="http://purl.org/dc/dcmitype/StillImage"/>
    <dc:title/>
   </cc:Work>
  </rdf:RDF>
 </metadata>
 <g transform="matrix(2,0,0,2,7.3955779e-6,-1.5388109e-5)">
  <g transform="matrix(0.50000583,0,0,0.50000583,-173.2879,652.31974)">
   <g fill-rule="nonzero" transform="translate(1.5777987e-6,-2.6931052e-6)">
    <path d="m566.24-1237.3c4.9324,4.9097,4.7627,9.5706-0.74664,15.102l-10.396,10.396c-5.5546,5.5432-10.181,5.7016-15.114,0.7466l-11.89-11.89c-4.955-4.9324-4.7853-9.5819,0.73533-15.102l10.396-10.396c5.5432-5.5546,10.17-5.7017,15.125-0.7693l11.89,11.912zm-73.849,50.036c-4.9437-4.921-9.5706-4.7966-15.125,0.758l-10.396,10.396c-5.5319,5.5206-5.6677,10.181-0.73533,15.102l11.901,11.901c4.9437,4.9437,9.548,4.7966,15.102-0.7466l10.396-10.396c5.5319-5.5206,5.6903-10.17,0.75796-15.102l-11.901-11.912zm243.85,109.42-162.89,162.89c-16.403,16.403-35.217,16.403-51.597,0l-162.88-162.88c-16.403-16.403-16.403-35.205,0-51.609l162.88-162.87c16.403-16.415,35.205-16.415,51.597,0l162.88,162.87c16.415,16.392,16.415,35.205,0.0113,51.597m-268.08-33.112-26.268-26.246c-12.274-12.274-26.981-12.5-40.76,1.2671l-9.8081,9.7855c-13.768,13.768-13.541,28.508-1.267,40.782l26.246,26.279c4.593,4.5704,9.729,3.8916,13.247,0.3847,3.5069-3.5296,4.1178-8.6317-0.46383-13.179l-26.031-26.053c-4.9324-4.921-4.774-9.5706,0.76927-15.102l10.396-10.385c5.5319-5.5545,10.181-5.7129,15.114-0.7579l26.019,26.019c4.559,4.5816,9.6611,3.9707,13.168,0.4638,3.5409-3.5296,4.2083-8.6769-0.36201-13.258m49.165-76.983-12.376-12.32c-12.263-12.286-26.992-12.501-40.748,1.267l-9.8081,9.8081c-13.768,13.756-13.553,28.474-1.2896,40.76l39.651,39.64c4.593,4.559,9.7403,3.8916,13.259,0.3733,3.5183-3.5182,4.1178-8.5863-0.45251-13.168l-9.1294-9.1067c2.4888-0.5204,5.5319-2.421,9.1294-5.9958l10.476-10.487c13.779-13.756,13.541-28.485,1.2896-40.771m61.937-61.937-12.365-12.331c-12.252-12.286-27.003-12.501-40.76,1.267l-9.7968,9.8081c-13.768,13.768-13.541,28.486-1.2896,40.76l12.365,12.331c12.252,12.308,27.003,12.523,40.76-1.2444l9.7855-9.8195c13.779-13.756,13.564-28.497,1.301-40.771" fill="#e6e6e5"/>
    <path d="m468.16-1110.9c4.5703,4.5817,3.9029,9.7176,0.36201,13.247-3.507,3.507-8.609,4.1292-13.168-0.4638l-26.019-26.019c-4.9324-4.9437-9.5819-4.7853-15.114,0.758l-10.396,10.396c-5.5432,5.5319-5.7016,10.17-0.76927,15.102l26.031,26.042c4.5817,4.559,3.9708,9.6497,0.46383,13.191-3.5296,3.4956-8.6542,4.1857-13.247-0.3846l-26.257-26.291c-12.274-12.263-12.489-27.004,1.2783-40.771l9.8081-9.7855c13.779-13.779,28.485-13.541,40.76-1.267l26.268,26.246z" fill="#d9151b"/>
    <path d="m266.66-24.594c-6.9389,0.13291-14.059,3.5224-20.938,10.406l-9.8125,9.8125c-13.77,13.757-13.54,28.508-1.29,40.782l12.38,12.313c12.252,12.297,26.994,12.506,40.75-1.25l9.7812-9.8125c13.779-13.768,13.576-28.507,1.3125-40.781l-12.375-12.344c-6.1258-6.1372-12.874-9.2579-19.812-9.125zm-0.07,18.594c2.469-0.11312,4.8663,1.0708,7.3438,3.5312l11.875,11.938c4.9324,4.9098,4.7688,9.5636-1.7812,16.125l-10.4,10.406c-4.5138,4.5025-9.1188,4.6736-14.062-0.28125l-11.9-11.907c-4.955-4.9211-4.7706-9.5618,0.75-15.094l10.4-10.406c2.7716-2.7773,5.3122-4.1994,7.7812-4.3125z" transform="translate(280.42482,-1246.7282)" fill="#d9151b"/>
    <path d="m204.72,37.375c-6.9361,0.1315-14.059,3.5168-20.938,10.406l-9.8125,9.8125c-13.768,13.745-13.544,28.464-1.2812,40.75l39.656,39.625c4.5817,4.5478,9.7317,3.8819,13.25,0.375,3.5183-3.5183,4.1016-8.5632-0.46875-13.156l-9.13-9.09c2.4775-0.5204,5.5276-2.445,9.125-6.0312l10.469-10.469c13.79-13.756,13.564-28.496,1.3125-40.781l-12.4-12.31c-6.1258-6.1372-12.845-9.2565-19.781-9.125zm-0.0937,18.562c2.469-0.10889,4.8719,1.0964,7.3438,3.5625l11.906,11.906c4.9324,4.9211,4.7819,9.5844-0.75,15.094l-10.406,10.406c-5.5546,5.5433-10.15,5.6936-15.094,0.75l-11.91-11.906c-4.9437-4.9211-4.8132-9.5732,0.71875-15.094l10.4-10.406c2.7773-2.7773,5.3122-4.2036,7.7812-4.3125z" transform="translate(280.42482,-1246.7282)" fill="#d9151b"/>
    <path d="m556.89-1129.4c-16.392,16.392-16.392,35.205,0,51.597l162.89,162.88c16.403,16.403,35.194,16.403,51.609,0l162.89-162.89c16.392-16.392,16.37-35.205,0-51.597l-162.89-162.87c-16.415-16.415-35.205-16.415-51.597,0l-162.9,162.87z" fill="#d9151b"/>
    <path d="m590.98-1124.3c0-3.0771,1.4933-4.2875,3.8237-5.0342,3.0771-1.0294,9.4235-1.6856,13.813-1.6856,16.799,0,25.567,9.333,25.567,24.356,0,15.306-9.1407,24.73-24.073,24.73-3.3599,0-6.0636-0.4639-7.9302-1.0295v12.783c0,2.8961-1.2105,4.1065-4.1065,4.1065h-2.9866c-2.8961,0-4.1065-1.2104-4.1065-4.1065v-54.12zm11.2,31.823c1.6743,0.5543,4.2875,0.9277,6.6293,0.9277,9.7968,0,13.994-5.9619,13.994-14.922,0-8.9597-4.197-14.933-13.994-14.933-2.3417,0-4.955,0.3733-6.6293,0.9276v27.999z" fill="#FFF"/>
    <path d="m642.09-1106.5c0-15.962,9.2425-24.537,23.417-24.537,14.186,0,23.429,8.575,23.429,24.537,0,16.053-9.2425,24.537-23.429,24.537-14.175,0-23.417-8.4845-23.417-24.537m35.465,0c0-9.514-4.2988-14.933-12.048-14.933-7.7379,0-12.037,5.4188-12.037,14.933,0,9.6158,4.2988,14.933,12.037,14.933,7.7492,0,12.048-5.317,12.048-14.933" fill="#FFF"/>
    <path d="m697.94-1145c0-2.8961,1.2105-4.1065,4.1065-4.1065h2.9866c2.8961,0,4.1065,1.2104,4.1065,4.1065v58.046c0,2.8961-1.2105,4.1065-4.1065,4.1065h-2.9866c-2.8961,0-4.1065-1.2104-4.1065-4.1065v-58z" fill="#FFF"/>
    <path d="m728.28-1150c4.1065,0,6.9008,2.7037,6.9008,6.7198,0,4.016-2.7942,6.7197-6.9008,6.7197-4.1065,0-6.9008-2.7037-6.9008-6.7197,0-4.0161,2.7942-6.7198,6.9008-6.7198m-5.5998,24.074c0-2.8848,1.2105-4.1065,4.1065-4.1065h2.9866c2.8961,0,4.1065,1.2217,4.1065,4.1065v39.006c0,2.896-1.2105,4.1065-4.1065,4.1065h-2.9866c-2.8961,0-4.1065-1.2105-4.1065-4.1065v-39.006z" fill="#FFF"/>
    <path d="m749.58-1120.6-3.4504,0c-2.8961,0-4.1065-1.2105-4.1065-4.1065v-1.301c0-2.896,1.2105-4.1065,4.1065-4.1065h3.4504v-7.6587c0-2.8848,1.2105-4.1065,4.1065-4.1065h2.9866c2.8961,0,4.1065,1.2217,4.1065,4.1065v7.6587h11.573c2.8961,0,4.1065,1.2105,4.1065,4.1065v1.301c0,2.896-1.2105,4.1065-4.1065,4.1065h-11.573v19.22c0,7.8397,3.1676,9.8082,8.5864,9.8082,0.83714,0,1.7761-0.1019,2.5227-0.1924,0.55433-0.09,1.3915-0.1923,1.7648-0.1923,1.4933,0,2.3304,0.6562,2.715,2.4323l0.36201,1.7761c0.10181,0.4638,0.28282,1.3914,0.28282,1.8666,0,1.7648-1.0295,2.8847-3.0771,3.258-2.0476,0.3734-4.1065,0.6562-6.2559,0.6562-11.663,0-18.1-5.4075-18.1-18.293v-20.34z" fill="#FFF"/>
    <path d="m791.96-1150c4.1065,0,6.9008,2.7037,6.9008,6.7198,0,4.016-2.7942,6.7197-6.9008,6.7197-4.1065,0-6.9008-2.7037-6.9008-6.7197,0-4.0161,2.7942-6.7198,6.9008-6.7198m-5.5998,24.074c0-2.8848,1.2105-4.1065,4.1065-4.1065h2.9866c2.8961,0,4.1065,1.2217,4.1065,4.1065v39.006c0,2.896-1.2105,4.1065-4.1065,4.1065h-2.9866c-2.8961,0-4.1065-1.2105-4.1065-4.1065v-39.006z" fill="#FFF"/>
    <path d="m848.48-1089.6c0.28282,0.7466,0.46382,1.4028,0.46382,2.0476,0,1.5838-1.0295,2.8056-2.7942,3.4504-4.4798,1.6856-9.4348,2.1494-14.186,2.1494-16.245,0-24.549-8.6769-24.549-24.537,0-17.263,10.181-24.549,22.116-24.549,13.157,0,21.562,8.1225,21.562,23.892,0,2.7037-1.5838,3.7332-3.3599,3.7332h-28.927c0.18101,6.8102,4.2875,11.856,14.559,11.856,3.4504,0,6.618-0.7466,9.2312-1.5951,0.83714-0.2715,1.4933-0.4638,2.1494-0.4638,1.4933,0,2.4322,0.9389,3.2694,2.896l0.46382,1.12zm-8.4959-21.653c-0.46382-7.1835-4.197-11.471-10.634-11.471s-9.9891,4.2876-10.543,11.471h21.177z" fill="#FFF"/>
    <path d="m860.86-1145c0-2.8961,1.2105-4.1065,4.1065-4.1065h2.9866c2.8961,0,4.1065,1.2104,4.1065,4.1065v34.99l15.023-16.98c1.9571-2.24,3.8237-3.0771,6.7198-3.0771h4.197c1.6856,0,2.5227,0.8371,2.5227,1.9571,0,0.7466-0.46382,1.6856-1.6856,2.9866l-15.951,17.636,16.324,19.786c1.0295,1.3009,1.3123,2.1494,1.3123,2.896,0,1.12-0.83714,1.9571-2.2399,1.9571h-5.6903c-2.2399,0-4.016-0.8371-5.8826-3.2693l-14.65-18.564v17.727c0,2.8961-1.2105,4.1065-4.1065,4.1065h-2.9866c-2.8961,0-4.1065-1.2104-4.1065-4.1065v-58.046z" fill="#FFF"/>
   </g>
  </g>
  <g transform="matrix(0.50000583,0,0,0.50000583,-183.04301,697.0317)">
   <g fill-rule="nonzero" transform="translate(1.6254179e-6,-2.3464349e-6)">
    <path fill="#e6e6e5" d="m585.76-1095.2c4.9324,4.9097,4.7627,9.5706-0.74664,15.102l-10.396,10.396c-5.5546,5.5432-10.181,5.7016-15.114,0.7466l-11.89-11.89c-4.955-4.9324-4.7853-9.5819,0.73533-15.102l10.396-10.396c5.5432-5.5546,10.17-5.7017,15.125-0.7693l11.89,11.912zm-73.849,50.036c-4.9437-4.921-9.5706-4.7966-15.125,0.758l-10.396,10.396c-5.5319,5.5206-5.6677,10.181-0.73533,15.102l11.901,11.901c4.9437,4.9437,9.548,4.7966,15.102-0.7466l10.396-10.396c5.5319-5.5206,5.6903-10.17,0.75796-15.102l-11.901-11.912zm243.84,109.45-162.89,162.89c-16.403,16.403-35.217,16.403-51.597,0l-162.88-162.88c-16.403-16.403-16.403-35.205,0-51.609l162.88-162.87c16.403-16.415,35.205-16.415,51.597,0l162.88,162.87c16.415,16.392,16.415,35.205,0.0113,51.597m-268.08-33.112-26.268-26.246c-12.274-12.274-26.981-12.501-40.76,1.267l-9.8081,9.7855c-13.768,13.768-13.541,28.508-1.267,40.782l26.246,26.279c4.593,4.5703,9.729,3.8916,13.247,0.38463,3.5069-3.5296,4.1178-8.6316-0.46383-13.179l-26.031-26.053c-4.9324-4.921-4.774-9.5706,0.76927-15.102l10.396-10.385c5.5319-5.5546,10.181-5.7129,15.114-0.75795l26.019,26.019c4.559,4.5817,9.6611,3.9708,13.168,0.46383,3.5409-3.5296,4.2083-8.6769-0.36201-13.259m49.165-76.983-12.376-12.32c-12.263-12.286-26.992-12.501-40.748,1.267l-9.8081,9.8081c-13.768,13.756-13.553,28.474-1.2896,40.76l39.651,39.64c4.593,4.559,9.7403,3.8916,13.259,0.37332,3.5183-3.5183,4.1178-8.5864-0.45251-13.168l-9.1294-9.1067c2.4888-0.52039,5.5319-2.4209,9.1294-5.9958l10.476-10.487c13.779-13.756,13.541-28.485,1.2896-40.771m61.937-61.937-12.365-12.331c-12.252-12.286-27.003-12.501-40.76,1.267l-9.7968,9.8081c-13.768,13.768-13.541,28.486-1.2896,40.76l12.365,12.331c12.252,12.308,27.003,12.523,40.76-1.2444l9.7855-9.8195c13.779-13.756,13.564-28.497,1.301-40.771"/>
    <path fill="#d9151b" d="m487.68-968.86c4.5703,4.5817,3.9029,9.7176,0.36201,13.247-3.507,3.5069-8.609,4.1291-13.168-0.46383l-26.019-26.019c-4.9324-4.9437-9.5819-4.7853-15.114,0.75795l-10.396,10.396c-5.5432,5.5319-5.7016,10.17-0.76927,15.102l26.031,26.042c4.5817,4.559,3.9708,9.6498,0.46383,13.191-3.5296,3.4956-8.6542,4.1857-13.247-0.38464l-26.257-26.291c-12.274-12.263-12.489-27.003,1.2783-40.771l9.8081-9.7855c13.779-13.779,28.485-13.541,40.76-1.267l26.268,26.246z"/>
    <path d="m126.19,10.656c-6.939,0.13292-14.059,3.5225-20.938,10.406l-9.81,9.813c-13.779,13.756-13.533,28.476-1.282,40.75l12.375,12.344c12.252,12.297,26.994,12.506,40.75-1.25l9.7812-9.8125c13.78-13.767,13.58-28.507,1.32-40.781l-12.38-12.344c-6.1258-6.1372-12.874-9.2579-19.812-9.125zm-0.07,18.594c2.469-0.11314,4.8663,1.0708,7.3438,3.5312l11.875,11.938c4.9324,4.9097,4.7688,9.5636-1.7812,16.125l-10.4,10.406c-4.5138,4.5025-9.1501,4.6738-14.094-0.28125l-11.88-11.907c-4.955-4.921-4.7706-9.5618,0.75-15.094l10.4-10.406c2.7716-2.7772,5.3122-4.1994,7.7812-4.3125z" fill="#d9151b" transform="translate(440.41215,-1139.9139)"/>
    <path d="M64.219,72.625c-6.936,0.132-14.059,3.517-20.938,10.406l-9.781,9.813c-13.768,13.745-13.544,28.464-1.2812,40.75l39.625,39.625c4.5817,4.5477,9.763,3.882,13.281,0.375,3.5183-3.5182,4.1016-8.5945-0.46875-13.188l-9.125-9.0938c2.4775-0.52038,5.5276-2.4139,9.125-6l10.469-10.48c13.79-13.756,13.564-28.496,1.3125-40.781l-12.407-12.309c-6.126-6.137-12.876-9.257-19.812-9.125zm-0.0625,18.562c2.469-0.108,4.872,1.097,7.344,3.563l11.906,11.906c4.9324,4.921,4.7507,9.5844-0.78125,15.094l-10.375,10.41c-5.5546,5.5433-10.181,5.6937-15.125,0.75l-11.875-11.91c-4.9437-4.9211-4.8132-9.5732,0.71875-15.094l10.406-10.41c2.7773-2.7773,5.3122-4.2036,7.7812-4.3125z" fill="#d9151b" transform="translate(440.41215,-1139.9139)"/>
    <path fill="#d9151b" d="m576.4-987.35c-16.392,16.392-16.392,35.205,0,51.597l162.89,162.89c16.403,16.403,35.194,16.403,51.609,0l162.89-162.89c16.392-16.392,16.37-35.205,0-51.597l-162.89-162.85c-16.415-16.415-35.205-16.415-51.597,0l-162.9,162.87z"/>
    <path fill="#FFF" d="m673.25-1002.9c0-2.8961,1.2105-4.1065,4.1065-4.1065h2.9866c2.8848,0,4.1065,1.2104,4.1065,4.1065v15.023c1.8666-0.55432,4.5703-1.0294,7.9302-1.0294,14.933,0,24.073,9.4235,24.073,24.73,0,15.023-8.7674,24.356-25.567,24.356-4.3893,0-10.736-0.64483-13.813-1.6743-2.3304-0.74664-3.8237-1.9571-3.8237-5.0455v-56.36zm11.2,52.627c1.6743,0.56563,4.2875,0.93895,6.6293,0.93895,9.7968,0,13.994-5.9731,13.994-14.933,0-8.9597-4.197-14.933-13.994-14.933-2.3417,0-4.955,0.37332-6.6293,0.93895v27.988z"/>
    <path fill="#FFF" d="m767.22-947.51c0.28282,0.74664,0.46382,1.4028,0.46382,2.0476,0,1.5951-1.0181,2.8056-2.7942,3.4617-4.4798,1.6743-9.4235,2.1381-14.186,2.1381-16.245,0-24.549-8.6769-24.549-24.537,0-17.263,10.181-24.549,22.116-24.549,13.168,0,21.562,8.1225,21.562,23.892,0,2.7037-1.5838,3.7332-3.3599,3.7332h-28.927c0.18101,6.8103,4.2875,11.856,14.559,11.856,3.4504,0,6.618-0.74664,9.2312-1.5951,0.84846-0.2715,1.4933-0.46382,2.1494-0.46382,1.4933,0,2.4322,0.93896,3.2694,2.8961l0.46382,1.12zm-8.4959-21.653c-0.46382-7.1836-4.197-11.471-10.634-11.471s-9.9891,4.2875-10.543,11.471h21.177z"/>
    <path fill="#FFF" d="m779.17-948.91c0.83714-1.9571,1.7761-2.8961,3.2581-2.8961,0.65613,0,1.3123,0.19232,2.1494,0.47514,3.4617,1.2105,7.3759,2.1381,11.482,2.1381,6.5274,0,9.514-1.6743,9.514-4.9437,0-3.6314-3.5409-4.3893-8.575-5.5093-10.091-2.2399-18.202-4.2875-18.202-14.458,0-9.2425,7.0026-14.842,20.25-14.842,4.1065,0,8.7674,0.56564,12.976,2.1494,1.7648,0.65614,2.7037,1.8666,2.7037,3.3599,0,0.65614-0.19232,1.301-0.47514,2.0476l-0.46382,1.12c-0.83714,1.9684-1.7648,2.896-3.2694,2.896-0.64482,0-1.301-0.181-2.1381-0.46382-3.1789-1.12-6.7198-1.7761-9.6158-1.7761-5.6903,0-8.8692,1.6856-8.8692,4.8532,0,3.2694,2.6246,3.9142,8.4959,5.317,10.08,2.3304,18.293,4.3893,18.293,14.65,0,9.2425-6.7198,14.933-20.714,14.933-5.136,0-10.645-0.55432-15.125-2.3304-1.7648-0.65614-2.7037-1.8666-2.7037-3.3599,0-0.65614,0.19232-1.3123,0.46382-2.0589l0.56564-1.301z"/>
    <path fill="#FFF" d="m828.81-978.49-3.4504,0c-2.8961,0-4.1065-1.2105-4.1065-4.1065v-1.301c0-2.8961,1.2105-4.1065,4.1065-4.1065h3.4504v-7.6587c0-2.8848,1.2105-4.1065,4.1065-4.1065h2.9866c2.8961,0,4.1065,1.2218,4.1065,4.1065v7.6587h11.573c2.8848,0,4.1065,1.2105,4.1065,4.1065v1.301c0,2.8961-1.2218,4.1065-4.1065,4.1065h-11.573v19.22c0,7.8397,3.1676,9.8081,8.5864,9.8081,0.83714,0,1.7648-0.10181,2.5114-0.19231,0.56564-0.0905,1.4028-0.19232,1.7761-0.19232,1.4933,0,2.3304,0.65614,2.7037,2.4322l0.38463,1.7761c0.0905,0.46382,0.27151,1.3915,0.27151,1.8666,0,1.7648-1.0295,2.8847-3.0771,3.2694-2.0589,0.37332-4.1065,0.64483-6.2559,0.64483-11.663,0-18.1-5.4075-18.1-18.293v-20.34z"/>
   </g>
  </g>
 </g>
</svg>
