<svg xmlns="http://www.w3.org/2000/svg" height="401.98" width="600">
    <path d="M232.697 54.748L220.33 42.416c-12.25-12.285-27-12.495-40.756 1.273l-9.798 9.81c-13.768 13.756-13.535 28.482-1.285 40.755l12.355 12.332c12.262 12.308 27.011 12.519 40.767-1.25l9.786-9.81c13.78-13.767 13.558-28.504 1.297-40.778m-61.94 61.939l-12.377-12.32c-12.262-12.273-26.987-12.507-40.744 1.273l-9.81 9.809c-13.768 13.745-13.546 28.47-1.284 40.756l39.658 39.634c4.577 4.554 9.727 3.889 13.254.374 3.515-3.515 4.11-8.584-.456-13.173l-9.12-9.097c2.475-.526 5.535-2.418 9.12-6.003l10.463-10.487c13.791-13.756 13.546-28.47 1.296-40.767m-49.164 76.992L95.33 167.426c-12.273-12.273-26.987-12.507-40.767 1.261l-9.809 9.786c-13.756 13.768-13.546 28.505-1.261 40.78l26.24 26.286c4.6 4.566 9.727 3.877 13.254.386 3.515-3.539 4.122-8.642-.467-13.184L56.5 206.688c-4.94-4.917-4.788-9.564.759-15.1l10.393-10.392c5.535-5.547 10.183-5.71 15.11-.76l26.03 26.019c4.555 4.59 9.658 3.982 13.174.467 3.526-3.527 4.204-8.665-.374-13.243m268.09 33.107l-162.91 162.88c-16.396 16.407-35.209 16.407-51.592 0l-162.87-162.9c-16.407-16.396-16.407-35.197 0-51.604l162.88-162.88c16.407-16.407 35.197-16.407 51.592 0l162.9 162.87c16.407 16.396 16.407 35.197.012 51.604m-181.89-171.37c-4.952-4.928-9.588-4.788-15.123.759L182.289 66.55c-5.536 5.524-5.687 10.17-.736 15.099l11.876 11.9c4.94 4.951 9.564 4.8 15.123-.747l10.393-10.405c5.524-5.512 5.675-10.183.747-15.1l-11.888-11.91zm-50.051 73.862c4.928 4.928 4.776 9.576-.76 15.099l-10.404 10.405c-5.547 5.535-10.16 5.687-15.1.736l-11.9-11.9c-4.939-4.917-4.799-9.565.736-15.1l10.393-10.404c5.559-5.536 10.183-5.676 15.134-.748l11.9 11.911z" fill="#e6e6e6"/>
    <path d="M138.573 95.241c-6.935.132-14.06 3.517-20.938 10.406l-9.813 9.782c-13.768 13.756-13.543 28.496-1.281 40.78l39.66 39.62c4.578 4.555 9.735 3.89 13.25.376 3.527-3.515 4.097-8.567-.469-13.156l-9.094-9.094c2.476-.526 5.529-2.415 9.125-6l10.47-10.5c13.78-13.756 13.542-28.496 1.28-40.781l-12.374-12.312c-6.125-6.143-12.877-9.257-19.812-9.125zm-.063 18.562c2.472-.109 4.843 1.099 7.313 3.563l11.906 11.906c4.928 4.928 4.785 9.582-.75 15.094l-10.41 10.41c-5.559 5.535-10.142 5.69-15.094.75l-11.91-11.91c-4.928-4.916-4.805-9.57.718-15.094l10.41-10.41c2.78-2.774 5.342-4.203 7.813-4.313zM200.513 33.271c-6.938.132-14.06 3.528-20.938 10.406l-9.781 9.813c-13.768 13.756-13.563 28.508-1.313 40.781l12.375 12.312c12.25 12.297 26.994 12.518 40.75-1.25l9.813-9.813c13.78-13.768 13.543-28.508 1.28-40.78l-12.374-12.313c-6.125-6.142-12.874-9.287-19.812-9.156zm-.063 18.594c2.469-.113 4.868 1.099 7.344 3.563l11.88 11.91c4.94 4.916 4.793 9.57-.719 15.094l-10.41 10.41c-5.547 5.547-10.185 5.701-15.125.75l-11.875-11.906c-4.951-4.928-4.805-9.57.719-15.094l10.406-10.406c2.762-2.78 5.313-4.199 7.781-4.313zM121.607 193.668c4.566 4.59 3.9 9.728.362 13.254-3.515 3.515-8.607 4.123-13.173-.467l-26.018-26.018c-4.928-4.951-9.588-4.788-15.111.76l-10.405 10.392c-5.536 5.535-5.687 10.171-.76 15.1l26.019 26.052c4.589 4.543 3.982 9.646.478 13.184-3.526 3.492-8.665 4.18-13.254-.397l-26.252-26.275c-12.273-12.273-12.495-27.01 1.273-40.779l9.81-9.786c13.78-13.768 28.494-13.546 40.755-1.261l26.275 26.24zM210.327 175.188c-16.396 16.396-16.396 35.197 0 51.592l162.88 162.89c16.407 16.407 35.209 16.407 51.616 0l162.88-162.89c16.396-16.396 16.384-35.209 0-51.592l-162.88-162.87c-16.407-16.419-35.21-16.419-51.604 0l-162.89 162.87z" fill="#003576"/>
    <path d="M417.757 201.218c0-13.453-8.42-20.097-18.766-20.097-10.347 0-18.755 6.657-18.755 20.097v103.11c0 13.441 8.408 20.086 18.743 20.086 10.358 0 18.778-6.633 18.778-20.086v-103.11zM298.957 121.828c0-2.767 1.202-4.344 3.877-5.08a54.935 54.935 0 0 1 14.609-2.031c2.113 0 4.426.093 6.644.362 2.313.28 3.515 1.576 3.515 3.515 0 .373-.093 1.296-.186 1.751l-.187.934c-.55 2.581-1.297 3.69-3.504 3.69-1.296 0-3.608-.373-6.2-.373-2.22 0-5.454.28-7.486.934v32.803c0 2.861-1.191 4.064-4.064 4.064h-2.954c-2.862 0-4.064-1.203-4.064-4.064v-36.505zM361.987 142.248c-2.126-.642-4.987-1.016-7.953-1.016-7.299 0-10.802 2.219-10.802 7.019 0 4.717 3.422 6.843 10.989 6.843 2.686 0 5.64-.28 7.766-.923v-11.923zm-25.317-20.05a5.419 5.419 0 0 1-.374-1.94c0-1.751 1.296-2.685 2.592-3.234 3.142-1.39 9.424-2.312 14.597-2.312 12.94 0 19.502 5.64 19.502 19.222v23.005c0 3.328-1.67 4.25-3.982 4.81-3.14.737-10.989 1.566-16.255 1.566-12.846 0-20.705-4.893-20.705-15.158 0-10.347 8.035-15.053 19.957-15.053 4.718 0 8.14.735 9.985 1.19v-1.377c0-5.734-2.861-9.05-10.347-9.05-3.702 0-6.563.829-9.237 1.658-.841.28-1.577.467-2.219.467-1.483 0-2.312-.841-3.153-2.873l-.362-.922zM414.387 125.248c-1.659-.549-4.251-.922-6.563-.922-9.704 0-13.862 5.909-13.862 14.784 0 8.863 4.157 14.784 13.862 14.784 2.312 0 4.904-.374 6.563-.923v-27.723zm0-24.395c0-2.86 1.202-4.064 4.064-4.064h2.954c2.861 0 4.064 1.203 4.064 4.064v55.808c0 3.048-1.471 4.25-3.784 4.998-3.048 1.016-9.33 1.659-13.675 1.659-16.629 0-25.317-9.238-25.317-24.115 0-15.158 9.062-24.488 23.834-24.488 3.329 0 6.014.455 7.86 1.016v-14.878zM437.397 119.698c0-2.86 1.202-4.064 4.064-4.064h2.954c2.873 0 4.064 1.203 4.064 4.064v38.63c0 2.861-1.191 4.064-4.064 4.064h-2.954c-2.862 0-4.064-1.203-4.064-4.064v-38.63zm5.547-23.834c4.064 0 6.831 2.674 6.831 6.645 0 3.982-2.767 6.656-6.831 6.656s-6.844-2.674-6.844-6.656c0-3.97 2.78-6.645 6.844-6.645M495.057 139.008c0-9.424-4.251-14.784-11.923-14.784-7.661 0-11.911 5.36-11.911 14.784 0 9.518 4.25 14.784 11.91 14.784 7.673 0 11.924-5.266 11.924-14.784m-35.115 0c0-15.8 9.143-24.3 23.192-24.3s23.192 8.5 23.192 24.3c0 15.893-9.144 24.301-23.192 24.301s-23.192-8.408-23.192-24.3" fill="#FFF"/>
</svg>
