<?xml version="1.0" encoding="UTF-8" standalone="no"?>
<!-- Created with Inkscape (http://www.inkscape.org/) -->
<svg xmlns:rdf="http://www.w3.org/1999/02/22-rdf-syntax-ns#" xmlns="http://www.w3.org/2000/svg" height="401.98" width="600" version="1.1" xmlns:cc="http://creativecommons.org/ns#" xmlns:dc="http://purl.org/dc/elements/1.1/">
 <metadata>
  <rdf:RDF>
   <cc:Work rdf:about="">
    <dc:format>image/svg+xml</dc:format>
    <dc:type rdf:resource="http://purl.org/dc/dcmitype/StillImage"/>
    <dc:title/>
   </cc:Work>
  </rdf:RDF>
 </metadata>
 <g fill-rule="nonzero" transform="translate(-368.36489,1174.3101)">
  <path d="m601.07-1119.6-12.367-12.332c-12.25-12.285-26.999-12.495-40.756,1.2728l-9.7977,9.8094c-13.768,13.756-13.535,28.482-1.2846,40.756l12.355,12.332c12.262,12.308,27.011,12.519,40.767-1.2495l9.786-9.8094c13.78-13.768,13.558-28.505,1.2962-40.779m-61.939,61.939-12.378-12.32c-12.262-12.273-26.987-12.507-40.744,1.2729l-9.8094,9.8094c-13.768,13.745-13.546,28.47-1.2846,40.756l39.658,39.634c4.5777,4.5543,9.7276,3.8887,13.254,0.37369,3.515-3.515,4.1106-8.5832-0.45544-13.173l-9.1204-9.097c2.4757-0.5255,5.5353-2.4173,9.1204-6.0024l10.463-10.487c13.791-13.756,13.546-28.47,1.2962-40.767m-49.164,76.992-26.263-26.252c-12.273-12.273-26.987-12.507-40.767,1.2612l-9.8093,9.786c-13.756,13.768-13.546,28.505-1.2612,40.779l26.24,26.287c4.601,4.566,9.7276,3.877,13.254,0.38536,3.515-3.5384,4.1223-8.6416-0.46712-13.184l-26.018-26.053c-4.9397-4.9164-4.7879-9.5641,0.75906-15.099l10.393-10.393c5.5353-5.547,10.183-5.7104,15.111-0.75905l26.03,26.018c4.5543,4.5894,9.6575,3.9821,13.173,0.46711,3.5267-3.5267,4.204-8.6649-0.37369-13.243m268.09,33.107-162.91,162.88c-16.396,16.407-35.209,16.407-51.592,0l-162.89-162.93c-16.407-16.396-16.407-35.197,0-51.604l162.88-162.88c16.407-16.407,35.197-16.407,51.592,0l162.89,162.87c16.407,16.396,16.407,35.197,0.0117,51.604m-181.88-171.37c-4.9514-4.928-9.5875-4.7879-15.123,0.7591l-10.393,10.405c-5.5353,5.5236-5.6871,10.171-0.7357,15.099l11.876,11.9c4.9397,4.9513,9.5641,4.7995,15.123-0.7474l10.393-10.405c5.5236-5.512,5.6754-10.183,0.74738-15.099l-11.888-11.911zm-50.051,73.862c4.928,4.928,4.7762,9.5758-0.75905,15.099l-10.405,10.405c-5.547,5.5352-10.16,5.6871-15.099,0.7357l-11.9-11.9c-4.9397-4.9164-4.7996-9.5641,0.7357-15.099l10.393-10.405c5.5586-5.5353,10.183-5.6754,15.134-0.7474l11.9,11.911z" fill="#e6e6e6"/>
  <path d="m210.62,58.344c-6.9352,0.13138-14.059,3.5164-20.938,10.406l-9.8125,9.8125c-13.768,13.756-13.543,28.465-1.2812,40.75l39.66,39.66c4.5777,4.5543,9.735,3.89,13.25,0.375,3.5267-3.515,4.0973-8.5981-0.46875-13.188l-9.0938-9.0938c2.4757-0.5255,5.5282-2.4149,9.125-6l10.469-10.5c13.78-13.756,13.543-28.465,1.2812-40.75l-12.37-12.31c-6.125-6.1426-12.877-9.2876-19.812-9.1562zm-0.0937,18.594c2.4713-0.11094,4.8739,1.0984,7.3438,3.5625l11.906,11.906c4.928,4.928,4.7853,9.5818-0.75,15.094l-10.406,10.406c-5.5586,5.5353-10.142,5.6897-15.094,0.75l-11.91-11.91c-4.928-4.9163-4.8048-9.6014,0.71875-15.125l10.41-10.375c2.7793-2.7793,5.3099-4.2016,7.7812-4.3125z" transform="translate(296.31816,-1137.4284)" fill="#d6630e"/>
  <path d="m272.56-3.5938c-6.9381,0.13138-14.059,3.528-20.938,10.406l-9.7812,9.8125c-13.768,13.756-13.563,28.477-1.3125,40.75l12.375,12.344c12.25,12.297,26.994,12.518,40.75-1.25l9.8125-9.8125c13.79-13.768,13.55-28.508,1.29-40.781l-12.37-12.344c-6.125-6.1426-12.874-9.2564-19.812-9.125zm-0.06,18.594c2.4684-0.11386,4.8681,1.0672,7.3438,3.5312l11.875,11.906c4.9397,4.9164,4.7932,9.5702-0.71875,15.094l-10.41,10.407c-5.547,5.547-10.185,5.7014-15.125,0.75l-11.875-11.875c-4.9514-4.928-4.8048-9.6014,0.71875-15.125l10.406-10.375c2.77-2.78,5.32-4.199,7.79-4.313z" transform="translate(296.31816,-1137.4284)" fill="#d6630e"/>
  <path fill="#d6630e" d="m489.97-980.64c4.566,4.5894,3.9004,9.7276,0.36201,13.254-3.515,3.515-8.6065,4.1223-13.173-0.46711l-26.02-26.01c-4.928-4.9514-9.5875-4.7879-15.111,0.75905l-10.405,10.393c-5.5353,5.5353-5.6871,10.171-0.75906,15.099l26.018,26.053c4.5894,4.5427,3.9821,9.6458,0.47879,13.184-3.5267,3.4917-8.6649,4.1806-13.254-0.39704l-26.252-26.275c-12.273-12.273-12.495-27.011,1.2729-40.779l9.8094-9.786c13.78-13.768,28.494-13.546,40.755-1.2612l26.275,26.24z"/>
  <path d="m578.69-999.13c-16.396,16.396-16.396,35.197,0,51.592l162.88,162.89c16.407,16.407,35.209,16.407,51.616,0l162.88-162.89c16.396-16.396,16.384-35.209,0-51.592l-162.88-162.87c-16.407-16.419-35.209-16.419-51.604,0l-162.89,162.87z" fill="#d6630e"/>
  <path d="m793.23-907.65c2.5107,0,3.9821,1.343,3.9821,4.2858l-0.0117,12.554c0,2.9662-1.4597,4.2858-3.9588,4.2974h-73.43c-11.514-0.0117-17.435,7.2286-17.435,16.08,0,8.8634,5.9206,16.104,17.435,16.115l94.684-0.0117c11.818,0.0117,17.89-7.357,17.89-16.536v-52.445c-0.0117-9.1671-6.0725-16.547-17.89-16.559h-72.963c-2.5224,0.0117-4.0055-1.3196-4.0055-4.2741v-12.554c0-2.9428,1.4831-4.2741,4.0055-4.2741h73.395c11.549,0,17.447-7.2519,17.447-16.104,0-8.8751-5.8973-16.104-17.435-16.115h-94.684c-11.83,0-17.89,7.4037-17.879,16.547l-0.0117,52.445c0,9.1671,6.0608,16.536,17.89,16.547h72.975z" fill="#FFF"/>
  <path d="m667.32-1052.5c0-2.7676,1.2028-4.3441,3.877-5.0798,4.9047-1.3897,10.078-2.032,14.609-2.032,2.1137,0,4.4259,0.093,6.6447,0.362,2.3122,0.2803,3.515,1.5765,3.515,3.5151,0,0.3736-0.0934,1.2962-0.18684,1.7516l-0.18685,0.9342c-0.54885,2.5808-1.2962,3.6902-3.5033,3.6902-1.2962,0-3.6084-0.3737-6.2009-0.3737-2.2188,0-5.4535,0.2803-7.4855,0.9343v32.803c0,2.861-1.1911,4.0638-4.0639,4.0638h-2.9545c-2.8611,0-4.0639-1.2028-4.0639-4.0638v-36.505z" fill="#FFF"/>
  <path d="m730.35-1032.1c-2.1254-0.6423-4.9864-1.016-7.9526-1.016-7.2986,0-10.802,2.2188-10.802,7.0184,0,4.7178,3.4216,6.8432,10.989,6.8432,2.6859,0,5.6404-0.2803,7.7657-0.9226v-11.923zm-25.317-20.051c-0.28027-0.7357-0.37369-1.3896-0.37369-1.9385,0-1.7517,1.2962-2.6859,2.5925-3.2347,3.1413-1.3897,9.424-2.3122,14.597-2.3122,12.939,0,19.502,5.6403,19.502,19.222v23.005c0,3.3281-1.6699,4.2507-3.9821,4.8112-3.1413,0.7357-10.989,1.5648-16.255,1.5648-12.846,0-20.705-4.893-20.705-15.146,0-10.358,8.0343-15.064,19.957-15.064,4.7178,0,8.1394,0.7357,9.9845,1.1911v-1.378c0-5.7338-2.8611-9.0502-10.347-9.0502-3.7019,0-6.5629,0.8291-9.2371,1.6582-0.8408,0.2803-1.5765,0.4671-2.2188,0.4671-1.4831,0-2.3122-0.8408-3.153-2.8727l-0.36201-0.9226z" fill="#FFF"/>
  <path d="m782.75-1049.1c-1.6582-0.5489-4.2507-0.9225-6.5629-0.9225-9.7042,0-13.862,5.9089-13.862,14.784,0,8.8635,4.1573,14.784,13.862,14.784,2.3122,0,4.9047-0.3737,6.5629-0.9225v-27.723zm0-24.395c0-2.8611,1.2028-4.0639,4.0639-4.0639h2.9545c2.8611,0,4.0639,1.2028,4.0639,4.0639v55.808c0,3.0479-1.4714,4.2507-3.7836,4.9981-3.0479,1.0159-9.3306,1.6582-13.675,1.6582-16.629,0-25.317-9.2371-25.317-24.115,0-15.158,9.062-24.488,23.834-24.488,3.3282,0,6.0141,0.4555,7.8592,1.016v-14.878z" fill="#FFF"/>
  <path d="m805.76-1054.6c0-2.8611,1.2028-4.0639,4.0639-4.0639h2.9545c2.8727,0,4.0639,1.2028,4.0639,4.0639v38.63c0,2.8611-1.1911,4.0639-4.0639,4.0639h-2.9545c-2.8611,0-4.0639-1.2028-4.0639-4.0639v-38.63zm5.547-23.834c4.0639,0,6.8315,2.6742,6.8315,6.6447,0,3.9821-2.7676,6.6563-6.8315,6.6563s-6.8432-2.6742-6.8432-6.6563c0-3.9705,2.7793-6.6447,6.8432-6.6447" fill="#FFF"/>
  <path d="m863.42-1035.3c0-9.424-4.2507-14.784-11.923-14.784-7.6606,0-11.911,5.3601-11.911,14.784,0,9.5174,4.2507,14.784,11.911,14.784,7.6723,0,11.923-5.2667,11.923-14.784m-35.115,0c0-15.8,9.1437-24.302,23.192-24.302s23.192,8.5014,23.192,24.302c0,15.894-9.1437,24.302-23.192,24.302s-23.192-8.408-23.192-24.302" fill="#FFF"/>
 </g>
</svg>
