<svg xmlns="http://www.w3.org/2000/svg" height="249.766" width="639.987" viewBox="0 0 600 234.155">
    <path d="M600 117.08c0 64.66-52.41 117.07-117.08 117.07-64.62 0-117.03-52.41-117.03-117.07C365.89 52.41 418.3 0 482.92 0 547.59 0 600 52.41 600 117.08" fill="#85ce26"/>
    <g fill="#8f8b8d">
        <path d="M0 176.87h41.94V57.25H0v119.62zM119.579 176.87h41.936V57.25h-41.936v119.62zM214.043 176.87h41.935V57.25h-41.935v119.62zM187.767 54.81c-13.053 0-23.646 10.68-23.646 23.85 0 13.13 10.593 23.8 23.646 23.8s23.646-10.67 23.646-23.8c0-13.17-10.593-23.85-23.646-23.85M308.383 122.65c-2.499-4.25-2.618-6.87-.238-10.95l33.245-54.44h-46.099s-27.692 45.27-31.461 51.58c-3.769 6.27-3.611 10.2.158 16.62 3.769 6.47 31.303 51.42 31.303 51.42h46.099l-33.007-54.23M116.95 176.8L94.49 76.46c-2.1-10.95-11.7-19.2-23.17-19.2H44.38l27.06 119.62h45.54l-.03-.08z"/>
    </g>
    <path d="M505.43 92.23l24.32-35.11h-93.67v31.34h40.95l-21.71 31.31h32.46c7.14 0 12.97 5.83 12.97 12.97s-5.83 12.97-12.97 12.97h-51.7v31.3h51.7c24.4 0 44.23-19.83 44.23-44.23 0-18.13-10.95-33.72-26.58-40.55" fill="#fff"/>
</svg>
