<svg viewBox="0 0 800 135.01" xmlns="http://www.w3.org/2000/svg">
    <style>
        .st0{fill:#fff}
    </style>
    <g fill="#fff">
        <path class="st0" d="M0 2.79v129.985h46.304V2.79zM131.102 2.79h45.746v129.985h-45.746zM234.31 2.79h45.746v129.985H234.31zM205.858 0c-14.505 0-25.663 11.715-25.663 25.662 0 14.505 11.716 26.22 25.663 26.22 14.505 0 25.662-11.715 25.662-26.22C231.52 11.715 219.805 0 205.858 0M337.517 73.64c-2.789-4.463-2.789-7.252-.557-11.715l36.82-59.136h-50.21s-30.125 49.094-34.588 56.346c-3.905 6.695-3.905 11.158 0 17.852 3.905 7.253 34.03 55.788 34.03 55.788h50.21c.558 0-35.147-58.02-35.705-59.135M103.766 23.43C101.534 11.716 90.934 2.79 78.103 2.79H48.536l29.567 129.985h50.21zM460.81 104.32c0 21.199-8.926 30.683-28.452 30.683-7.81 0-18.41-1.674-25.105-5.02l3.347-11.159c6.137 2.79 12.273 3.905 19.526 3.905 11.715 0 16.736-5.02 16.736-21.757V2.785h13.947zM538.91 2.79l47.42 129.99h-15.063L557.32 95.4h-52.441l-12.831 37.378h-15.063l47.42-129.99zm15.063 80.334L531.658 18.41l-22.315 64.714zM599.72 123.85l71.409-108.23h-66.388V2.789h87.029v6.137l-73.64 111.58h73.64v12.273h-92.05zM707.95 123.85l71.409-108.23h-66.388V2.789H800v6.137l-73.64 111.58H800v12.273h-92.05z"/>
    </g>
</svg>
