<svg viewBox="0 0 800 800" xmlns="http://www.w3.org/2000/svg">
    <g fill="none">
        <path fill="#03fca3" d="M0 0h800v800H0z"/>
        <g fill="#000">
            <path d="M189.65 174.375H242V324.15h-52.35zM338.95 174.375h52.35V324.15h-52.35zM456.9 174.375h52.35V324.15H456.9zM424.055 230.97c16.304 0 29.57-13.347 29.57-29.89 0-16.464-13.266-29.81-29.57-29.81-16.303 0-29.49 13.347-29.49 29.81 0 16.543 13.187 29.89 29.49 29.89zM558.4 324.155h57.543s-40.76-67.053-41.24-67.932c-3.117-5.355-3.277-8.552-.24-13.747l41.477-68.172h-57.542s-34.605 56.742-39.32 64.575c-4.715 7.912-4.476 12.787.16 20.859 4.715 8.152 39.16 64.415 39.16 64.415zM335.665 324.155v-.08L307.693 198.44c-2.717-13.746-14.626-24.056-29.01-24.056h-33.648l33.805 149.85h56.823z"/>
        </g>
        <g fill="#000">
            <path d="M450.913 365.385h-82.318s46.753 76.722 47.313 77.762c3.596 6.074 3.836 9.83.32 15.665l-47.553 78.002h82.318s39.72-64.895 45.075-73.925 5.115-14.625-.24-23.896c-5.834-9.91-5.914-9.91-44.915-73.607zM708.638 409.58c-2.797-4.715-27.253-44.195-27.253-44.195H505.24l38.443 64.575h92.787l-38.282 62.738 42.677 71.687-41.16 67.692h75.205c12.068-19.74 30.13-50.35 33.965-56.662 5.435-9.031 5.195-14.625-.24-23.976-3.756-6.394-23.896-38.362-35.965-58.023 0 0 32.368-53.627 36.125-59.94 5.435-9.03 5.195-14.625-.16-23.896z"/>
            <path d="M539.213 502.288c-11.589 18.94-31.01 50.67-34.605 56.822-5.195 8.951-5.435 14.386-.24 23.017 3.596 6.074 23.177 38.043 34.845 57.063 11.668-19.021 31.17-51.07 34.845-57.063 5.195-8.711 4.955-14.146-.24-23.017-3.676-6.154-23.017-37.883-34.605-56.822zM305.133 365.385c-7.513 0-14.945 1.758-24.056 7.353-6.074 3.756-55.385 45.635-59.14 48.83-3.756-3.197-53.148-45.075-59.14-48.83-9.111-5.515-16.544-7.353-24.056-7.353H86.313V600.35l72.808-54.745V451.3l62.817 47.232 62.818-47.232v180.78h73.287v-266.7h-52.907z"/>
        </g>
    </g>
</svg>
