<svg viewBox="0 0 800 316.03" xmlns="http://www.w3.org/2000/svg">
    <g fill="none" fill-rule="evenodd">
        <g fill="#000">
            <path d="M407.643 171.051c-3.315-5.946-3.505-9.602-.308-15.342l43.918-76.115h-60.929s-36.605 63.33-41.61 72.13c-4.956 8.789-4.742 14.261.204 23.292 5.005 9.019 41.407 71.897 41.407 71.897h60.928s-43.13-74.925-43.61-75.863M338.35 79.593h-55.408v167.32h55.407zM248.167 76.351c-17.249 0-31.208 14.92-31.208 33.34 0 18.407 13.96 33.373 31.208 33.373 17.276 0 31.294-14.966 31.294-33.374 0-18.42-14.018-33.339-31.294-33.339M213.441 79.593h-55.377v167.32h55.377zM55.275 79.593H0v167.32h55.275zM124.918 106.476c-2.836-15.333-15.503-26.882-30.685-26.882H58.632l35.774 167.318h60.176z"/>
        </g>
        <path d="M641.982 0C554.685 0 483.95 70.74 483.95 158.014c0 87.264 70.74 158.014 158.033 158.014 87.253 0 158.015-70.748 158.015-158.014C799.997 70.736 729.239 0 641.982 0" fill="#00b8f1"/>
        <path fill="#fff" d="M701.093 238.735h39.417V77.263h-62.982v34.193l23.565.03v127.249M582.052 111.358h20.436c15.92 0 23.089 8.518 23.089 21.986 0 13.693-7.854 22.004-24.012 22.004H594.3v32.313h9.521c41.048 0 61.027-21.315 61.027-56.1 0-34.103-21.764-54.303-59.02-54.303H542.34v161.48h39.712V111.362"/>
    </g>
</svg>
