<svg viewBox="0 0 800 316.05" xmlns="http://www.w3.org/2000/svg">
    <g fill="none" fill-rule="evenodd">
        <g fill="#000">
            <path d="M407.643 171.051c-3.315-5.946-3.505-9.602-.308-15.342l43.918-76.115h-60.929s-36.605 63.33-41.61 72.13c-4.956 8.789-4.742 14.261.204 23.292 5.005 9.019 41.407 71.897 41.407 71.897h60.928s-43.13-74.925-43.61-75.863M338.35 246.912V79.592h-55.408v167.32zM248.167 76.351c-17.249 0-31.208 14.92-31.208 33.34 0 18.407 13.96 33.373 31.208 33.373 17.276 0 31.294-14.966 31.294-33.374 0-18.42-14.018-33.339-31.294-33.339M213.441 246.912V79.592h-55.377v167.32zM55.275 246.912V79.592H0v167.32zM124.918 106.476c-2.836-15.333-15.503-26.882-30.685-26.882H58.632l35.774 167.318h60.176z"/>
        </g>
        <path d="M641.992 0C554.683 0 483.95 70.743 483.95 158.014c0 87.264 70.735 158.034 158.043 158.034 87.257 0 158.005-70.765 158.005-158.034C799.996 70.74 729.25 0 641.991 0" fill="#be1f3b"/>
        <path d="M729.468 166.468c15.176-16.075 21.873-23.652 21.873-40.235 0-28.845-21.714-48.216-50.601-48.216h-49.022c11.052 6.952 19.742 18.831 24.256 33.338h21.904c6.73 0 15.028 5.17 15.028 14.39 0 6.517-1.452 8.975-6.295 14.083-6.517 6.845-13.013 13.955-31.696 34.407s-26.058 31.25-26.058 55.634v8.201h98.992v-34.365h-53.324l34.949-37.237" fill="#fff"/>
        <path d="M605.913 77.26H542.33v161.758h39.74V111.394h20.474c15.959 0 23.143 8.552 23.143 22.041 0 13.702-7.874 22.02-24.055 22.02h-7.27v32.352h9.527c41.128 0 61.114-21.343 61.114-56.174 0-34.143-21.788-54.372-59.09-54.372" fill="#fff"/>
    </g>
</svg>
