<svg Googl="true" version="1.1" viewBox="0 0 800 145.42" xml:space="preserve" xmlns="http://www.w3.org/2000/svg">
	<style type="text/css">
		.st0{display:none;}
		.st1{display:inline;}
	</style>
	<g class="st0" transform="translate(302.35 54.958)" display="none">
		<g class="st1" display="inline">
			<polygon points="0 32.7 0 34.8 9.8 34.8 9.8 7 0 7"/>
			<rect x="27.9" y="7" width="9.8" height="27.8"/>
			<rect x="50" y="7" width="9.8" height="27.8"/>
			<path d="m43.9 6.5c-3.1 0-5.5 2.5-5.5 5.5 0 3.1 2.5 5.5 5.5 5.5 3.1 0 5.5-2.5 5.5-5.5 0-3.1-2.5-5.5-5.5-5.5"/>
			<path d="m72 22.2c-0.6-1-0.6-1.6-0.1-2.5l7.8-12.7h-10.7s-6.5 10.5-7.4 12-0.8 2.4 0 3.9c0.9 1.5 7.3 11.9 7.3 11.9h10.8s-7.6-12.4-7.7-12.6"/>
			<path d="m22.1 11.5c-0.5-2.5-2.8-4.5-5.4-4.5h-6.3l6.3 27.8h10.7z"/>
		</g>
		<path class="st1" d="m92.4 29.2c2.5 2.2 5.1 3.5 8.1 3.5 3.5 0 6.1-1.8 6.1-5.1 0-2.9-1.3-4.2-6.4-5.8-6.1-1.9-8.4-3.7-8.4-7.8 0-4.8 3.8-7.4 8.9-7.4 3.5 0 6.6 1.3 8.9 4l-1.7 1.8c-2-2.3-4.7-3.2-7.1-3.2-3.3 0-5.8 1.5-5.8 4.7s2.4 4 7.1 5.6c5.7 1.9 7.7 3.8 7.7 7.9 0 4.9-3.7 7.9-9.3 7.9-3.9 0-7.4-1.7-9.7-4.2z" display="inline"/>
		<path class="st1" d="m127.9 32c-1 1.2-3.2 3.3-6.7 3.3-5.7 0-8.3-4.2-8.3-10.5 0-6.4 3-10.6 8.3-10.6 3 0 5.2 1.5 6.6 3.5v-3h2.7v20.3h-2.5zm-0.2-11.6c-1-1.3-3.1-3.7-6.1-3.7-3.4 0-5.7 2.8-5.7 8 0 4 1.4 8 6 8 2.9 0 4.8-2 5.9-3.4v-8.9zm-2.6-14.8 1.7 2-5.8 4.7-1.3-1.6z" display="inline"/>
		<path class="st1" d="m135.9 42.5v-28h2.7v3.1c1.8-2.3 4-3.6 6.9-3.6 5.4 0 8.1 4.1 8.1 10.6 0 6.4-2.7 10.6-8.4 10.6-3.5 0-5.7-1.9-6.4-2.9v10.2zm2.8-13c1 1.3 3.1 3.2 5.9 3.2 3.7 0 5.9-2.7 5.9-7.9s-2-8.1-5.6-8.1c-2.7 0-4.9 1.9-6.3 3.6v9.2z" display="inline"/>
		<path class="st1" d="m160.7 14.5v3.1c1.5-1.9 3.4-3.5 6.3-3.5 3 0 4.3 1.5 4.9 3.5 1.6-1.9 3.6-3.5 6.5-3.5 4.3 0 5.4 3.1 5.4 6.7v14h-2.8v-13.6c0-2.8-0.7-4.5-3.3-4.5-2.5 0-4.5 2.2-5.3 3.2v14.8h-2.9v-13.4c0-2.8-0.7-4.6-3.2-4.6s-4.5 2.2-5.4 3.3v14.7h-2.8v-20.2z" display="inline"/>
		<path class="st1" d="m190.6 7.3c1.1 0 1.9 0.7 1.9 1.8 0 1-0.8 1.7-1.9 1.7s-1.9-0.7-1.9-1.7c0-1.1 0.9-1.8 1.9-1.8zm1.4 27.5h-2.8v-20.3h2.8z" display="inline"/>
	</g>
	<g transform="scale(4.0963)">
		<path d="m89.5 29.2c2.5 2.2 5.1 3.6 8.1 3.6 3.5 0 6.1-1.8 6.1-5.1 0-2.9-1.4-4.2-6.5-5.8-6.1-1.9-8.5-3.7-8.5-7.8 0-4.8 3.8-7.5 8.9-7.5 3.6 0 6.6 1.3 8.9 4l-1.7 1.8c-2-2.3-4.7-3.2-7.1-3.2-3.3 0-5.8 1.5-5.8 4.7s2.4 4 7.1 5.6c5.7 1.9 7.7 3.8 7.7 8 0 4.9-3.7 8-9.3 8-3.9 0-7.4-1.7-9.7-4.2z"/>
		<path d="m122.2 7 10.2 27.8h-3.2l-2.9-8h-11.3l-2.9 8h-3.1l10-27.8zm3.2 17.2-4.8-13.8-4.8 13.8zm-2.2-24.2 1.2 2.4-6.7 3.2-1-1.8z"/>
		<path d="m136.3 7h8.8c6.3 0 9.3 3.1 9.3 8.3 0 5.1-3.1 8.5-9.8 8.5h-5.3v11h-3zm2.9 2.6v11.6h5.3c4.6 0 6.9-2.1 6.9-5.9s-2-5.7-6.5-5.7z"/>
		<path d="m184 34.8-2.3-22.8-8 22.8h-2.5l-8-22.8-2.3 22.8h-2.9l2.8-27.8h3.5l8.1 23.5 8.2-23.5h3.4l2.8 27.8z"/>
		<path d="m192.3 7h3v27.8h-3z"/>
		<g>
			<g>
				<polygon points="0 34.8 9.8 34.8 9.8 7 0 7 0 32.7"/>
				<rect x="28" y="7" width="9.8" height="27.8"/>
				<rect x="50.1" y="7" width="9.8" height="27.8"/>
				<path d="m44 6.4c-3.1 0-5.5 2.5-5.5 5.5 0 3.1 2.5 5.6 5.5 5.6 3.1 0 5.5-2.5 5.5-5.6 0-3-2.5-5.5-5.5-5.5"/>
				<path d="m72.2 22.2c-0.6-1-0.6-1.6-0.1-2.6l7.8-12.6h-10.7s-6.5 10.5-7.4 12-0.9 2.4 0 3.9 7.3 12 7.3 12h10.8c0-0.1-7.6-12.5-7.7-12.7"/>
				<path d="m22.2 11.4c-0.6-2.5-2.8-4.4-5.5-4.4h-6.3l6.3 27.8h10.7z"/>
			</g>
		</g>
	</g>
</svg>
