<svg version="1.1" viewBox="0 0 939.53 310" xmlns="http://www.w3.org/2000/svg">
 <path d="m588.53 51.679h-79.56c-4.6311 7.5421-8.8085 14.366-12.476 20.471-3.686 6.0866-7.6933 12.721-12.06 19.885-4.3476 7.164-8.5628 14.082-12.627 20.755-4.064 6.6726-7.5988 12.532-10.585 17.56-3.0055 5.047-5.0847 8.4305-6.2567 10.17-3.289 5.425-4.8768 10.17-4.7823 14.234 0.0944 4.064 1.7012 8.903 4.7823 14.517 1.172 1.739 3.2512 5.1226 6.2567 10.151 2.9866 5.0469 6.5213 10.888 10.585 17.56 4.064 6.6915 8.2792 13.572 12.627 20.623 4.3665 7.0695 8.3738 13.648 12.06 19.753 3.6671 6.0866 7.8445 12.91 12.476 20.452h79.56c-5.425-8.8841-10.264-16.88-14.517-23.949-4.2531-7.0695-8.8085-14.517-13.648-22.362-4.839-7.8256-9.4323-15.33-13.78-22.494-4.3665-7.164-7.9012-13.024-10.604-17.56-2.7219-4.5555-4.1585-6.9183-4.3664-7.1262-2.1171-3.6671-3.2323-6.8616-3.3268-9.5646-0.0943-2.722 0.90732-5.822 3.0433-9.3zm-219.5 206.13h72.302v-206.13h-72.302zm-65.762-204.98c-6.1055 3.686-10.982 8.6762-14.668 14.952-3.6671 6.2945-5.5195 13.213-5.5195 20.774 0 7.5421 1.8524 14.423 5.5195 20.604 3.686 6.2 8.5628 11.134 14.668 14.801 6.0866 3.686 12.91 5.5195 20.471 5.5195 7.5421 0 14.404-1.8335 20.604-5.5195 6.2-3.6671 11.134-8.6006 14.82-14.801 3.6671-6.1811 5.5006-13.062 5.5006-20.604 0-7.561-1.8335-14.479-5.5006-20.774-3.686-6.2756-8.6195-11.266-14.82-14.952-6.2-3.6671-13.062-5.5195-20.604-5.5195-7.561 0-14.385 1.8524-20.471 5.5195m-97.121 204.98h72.302v-206.13h-72.302zm-129.5-206.13 46.462 206.13h78.691l-38.92-173.03c-1.739-9.489-6.3323-17.371-13.78-23.666-7.4665-6.2945-16.218-9.4323-26.293-9.4323zm-76.649 0h72.302v206.13h-72.302z" fill="#092343" stroke-width="4.839"/>
 <path d="m784.53 0c-85.609 0-155 69.391-155 155s69.391 155 155 155 155-69.391 155-155-69.391-155-155-155" fill="#00b8f1" stroke-width="4.839"/>
 <path d="m850.36 163.54c7.2585-0.0377 12.268-2.3439 15.784-5.822 3.4781-3.5158 5.7842-8.5439 5.822-15.802-0.11323-6.7671-2.2872-10.604-6.0677-13.912-3.8372-3.1945-10.056-5.4817-17.806-5.4628l-21.889-0.0189c-6.7482 0.0189-12.4 5.6707-12.4 12.419v31.756c3.875-1.3799 8.0524-3.1378 12.4-3.1567h24.157m27.673 40.092c4.4988 4.8579 10.566 3.1567 10.566 3.1567l-0.0388 20.074h-14.687c-0.17033 0-0.34018 0.0189-0.51037 0.0189-0.17034 0-0.34018-0.0189-0.51037-0.0189h-0.54817v-0.0189c-2.9488-0.26464-5.5951-1.5311-7.6177-3.478l-1.8714-2.2872-26.709-32.72h-9.9048c-6.7482 0.0189-12.4 5.6707-12.4 12.419v26.085h-24.838v-91.923c0.0566-20.566 16.672-37.181 37.238-37.238h21.889c12.438 0 24.384 3.5537 33.627 11.19 9.3 7.561 15.198 19.621 15.084 33.023 0.0388 12.91-4.5933 24.895-13.099 33.363-5.2927 5.3116-11.965 9.1299-19.394 11.209 0 0 8.4116 11.455 13.723 17.145m-105.19-20.547c-0.0943 33.117-23.855 43.646-32.871 48.901l-15.594-18.865c0.0943-0.0567 0.22695-0.11343 0.35907-0.17014l-0.35907-0.43473c5.0091-2.514 23.647-12.079 23.647-26.728v-11.058c-2.5707 5.2171-15.84 11.096-24.876 11.266h-1.0018c-13.44-0.22681-25.745-4.9902-34.724-13.44-9.9238-9.3567-15.179-22.305-15.179-37.465v-33.401h24.214v33.401c0 19.432 13.44 26.501 26.199 26.69 11.152-0.17014 25.159-5.0091 25.632-19.961v-40.13h24.554z" fill="#fff" stroke-width="4.839"/>
</svg>
