<svg width="211.67mm" height="211.67mm" version="1.1" viewBox="0 0 211.67 211.67" xmlns="http://www.w3.org/2000/svg" xmlns:xlink="http://www.w3.org/1999/xlink">
 <defs>
  <linearGradient id="a" x1="313.92" x2="314.13" y1="23.861" y2="358.75" gradientTransform="matrix(.59793 0 0 .59793 130.94 102.66)" gradientUnits="userSpaceOnUse">
   <stop stop-color="#fff" offset="0"/>
   <stop stop-color="#fff" stop-opacity="0" offset="1"/>
  </linearGradient>
 </defs>
 <g transform="translate(-212.42 -9.7381)">
  <circle cx="318.26" cy="115.57" r="105.83" fill="url(#a)" fill-rule="evenodd"/>
  <path d="m296.95 155.58-7.2377-5.3978v-33.029l-0.35595-0.22978c-0.77247-0.49865-3.4472-0.64768-11.588-0.64568-7.9181 2e-3 -10.322 0.1297-11.305 0.6007l-0.40188 0.1926-0.0814 21.116h-14.552v-43.054l-0.39537-1.1778c-0.47432-1.413-0.96545-2.2219-2.0412-3.362-1.5399-1.6321-4.005-2.9824-6.1414-3.3642-0.93085-0.16635-1.0806-0.23813-1.0403-0.49867 0.0448-0.28994 0.18553-0.30178 2.9738-0.25017 4.3442 0.0804 20.091-6.5e-5 20.684-0.1057l0.5132-0.09141 0.0405 12.384 0.0405 12.384 0.41609 0.19942c1.0348 0.49593 4.5054 0.73076 10.974 0.74252 7.6175 0.0139 11.565-0.29055 12.098-0.9329 0.11862-0.14294 0.15679-3.8271 0.12648-12.207l-0.0434-12.002-0.35571-0.94302c-1.1911-3.1577-4.5125-5.8175-8.0853-6.4746-0.83879-0.15428-1.0603-0.25551-1.0965-0.50109-0.0446-0.30259 0.15791-0.30776 12.063-0.30776h12.108l-2e-5 12.305c-1e-5 11.306 0.0213 12.313 0.26188 12.406 0.18352 0.0704 0.40696-0.085 0.7465-0.51912 0.85192-1.0893 2.9882-3.231 4.2123-4.223 2.5791-2.0901 6.473-4.2617 9.5712-5.3377 3.2682-1.135 7.1707-1.9316 10.953-2.2356 3.3594-0.27 9.8878-0.07343 13.569 0.40854 2.9682 0.38865 7.5039 1.1696 8.7643 1.509l0.6487 0.17468v9.6442c0 8.412-0.03 9.6442-0.2343 9.6442-0.12885 0-0.26716-0.16018-0.30733-0.35595-0.99604-4.8533-2.8211-8.4385-5.7511-11.297-2.9962-2.9233-6.6656-4.42-11.268-4.5957-5.7486-0.21954-10.14 1.3837-13.763 5.0244-3.0436 3.059-5.0624 7.116-6.0856 12.23-1.674 8.3662-0.4789 15.817 3.5035 21.843 1.3344 2.0192 4.3179 5.0362 6.2197 6.2896 3.9606 2.6102 7.8026 3.7679 12.504 3.7679 2.6092 0 4.3065-0.23962 6.7966-0.95953 2.8412-0.82141 6.7654-2.8954 9.1427-4.8319 0.46915-0.38218 0.94929-0.69486 1.067-0.69486 0.11768 0 0.40505 0.16435 0.63857 0.36522 0.33182 0.28543 0.39907 0.44566 0.30776 0.73336-0.1889 0.59516-3.6717 3.9535-5.3026 5.113-2.7188 1.9331-6.8132 3.778-10.439 4.7036-4.1191 1.0517-9.9622 1.3198-14.284 0.65554-8.7232-1.3407-15.384-4.951-20.096-10.893-0.60677-0.76505-0.98227-1.1116-1.1392-1.0514-0.20313 0.0779-0.23951 1.5758-0.27474 11.311l-0.0406 11.221zm68.383-27.096-7.04-5.2582-0.0402-17.777c-0.0314-13.868-0.0834-17.829-0.23649-18.014-0.16845-0.20296-0.75683-0.22328-4.1521-0.14346-3.3438 0.07862-9.432 0.55105-10.63 0.82487-0.30529 0.06978-0.35635-3.17e-4 -0.43246-0.5938-0.0475-0.37011-0.10525-1.6228-0.12843-2.7837l-0.0422-2.1108 3.0058 0.12019c3.9547 0.15813 35.678 0.1579 39.594-3.17e-4l3.0499-0.12318-0.0826 0.60951c-0.10152 0.74902-0.35702 8.0289-0.50032 14.254-0.098 4.2561-0.12866 4.6274-0.38263 4.6274-0.23138 0-0.29403-0.21132-0.38694-1.3052-0.62561-7.3653-3.5459-11.69-8.8605-13.123-1.4266-0.38446-4.8713-0.57487-5.2165-0.28834-0.21447 0.178-0.24148 2.7803-0.24148 23.279 0 12.693-0.0534 23.075-0.11865 23.071-0.0653-4e-3 -3.2866-2.3734-7.1586-5.2654z" stroke-width=".1582"/>
 </g>
</svg>
