<svg version="1.1" viewBox="0 0 600 600" xmlns="http://www.w3.org/2000/svg">
 <defs>
  <linearGradient id="j" x1="2182.1" x2="2322.1" y1="17.158" y2="944.88" gradientTransform="matrix(.58572 0 0 .58608 -885.46 4.3885)" gradientUnits="userSpaceOnUse">
   <stop stop-color="#1a1b1d" offset="0"/>
   <stop stop-color="#3a4348" offset=".1024"/>
   <stop stop-color="#4d545a" offset=".20479"/>
   <stop stop-color="#454d50" offset=".3"/>
   <stop stop-color="#313c40" offset=".4"/>
   <stop stop-color="#1f2d30" offset=".5"/>
   <stop stop-color="#101e21" offset=".6"/>
   <stop stop-color="#0c1a1d" offset=".7"/>
   <stop stop-color="#0c1a1d" offset=".8"/>
   <stop stop-color="#0c1a1d" offset=".9"/>
   <stop stop-color="#0c1a1d" offset="1"/>
  </linearGradient>
  <linearGradient id="i" x1="2414.8" x2="2331.2" y1="366.83" y2="37.326" gradientTransform="matrix(.58572 0 0 .58608 -885.46 4.3885)" gradientUnits="userSpaceOnUse">
   <stop stop-color="#2e3a3d" offset="0"/>
   <stop stop-color="#394346" offset=".1024"/>
   <stop stop-color="#666f74" offset=".20479"/>
   <stop stop-color="#7a8187" offset=".3"/>
   <stop stop-color="#80878d" offset=".4"/>
   <stop stop-color="#868d93" offset=".5"/>
   <stop stop-color="#91989e" offset=".6"/>
   <stop stop-color="#91989e" offset=".7"/>
   <stop stop-color="#9aa1a7" offset=".8"/>
   <stop stop-color="#99a0a6" offset=".9"/>
   <stop stop-color="#889390" offset="1"/>
  </linearGradient>
  <linearGradient id="h" x1="1577" x2="1846.5" y1="579.47" y2="401.07" gradientTransform="matrix(.58572 0 0 .58608 -885.46 4.3885)" gradientUnits="userSpaceOnUse">
   <stop stop-color="#fde875" offset="0"/>
   <stop stop-color="#ffdd2e" offset=".5"/>
   <stop stop-color="#ffdc10" offset="1"/>
  </linearGradient>
  <radialGradient id="a" cx="1632.3" cy="532.93" r="432.61" gradientTransform="matrix(1.0082 -.15803 .17002 1.086 -1669.1 -6.7128)" gradientUnits="userSpaceOnUse">
   <stop stop-color="#7e5c09" stop-opacity="0" offset="0"/>
   <stop stop-color="#fcb913" stop-opacity=".40179" offset=".67768"/>
   <stop stop-color="#faac18" stop-opacity=".58036" offset=".74251"/>
   <stop stop-color="#bf7c26" stop-opacity=".74118" offset=".85261"/>
   <stop stop-color="#bb7628" offset=".92417"/>
   <stop stop-color="#915124" offset="1"/>
  </radialGradient>
  <linearGradient id="g" x1="2160" x2="2273" y1="398.86" y2="380.36" gradientTransform="matrix(.58572 0 0 .58608 -885.46 4.3885)" gradientUnits="userSpaceOnUse">
   <stop stop-color="#152326" offset="0"/>
   <stop stop-color="#122023" offset="1"/>
  </linearGradient>
  <linearGradient id="f" x1="1931" x2="2118" y1="367.86" y2="334.86" gradientTransform="matrix(.58572 0 0 .58608 -885.46 4.3885)" gradientUnits="userSpaceOnUse">
   <stop stop-color="#2f4143" offset="0"/>
   <stop stop-color="#132531" offset="1"/>
  </linearGradient>
  <linearGradient id="e" x1="1650.5" x2="1929.5" y1="569.36" y2="520.36" gradientTransform="matrix(.58572 0 0 .58608 -885.46 4.3885)" gradientUnits="userSpaceOnUse">
   <stop stop-color="#5c636d" offset="0"/>
   <stop stop-color="#384653" offset="1"/>
  </linearGradient>
  <linearGradient id="d" x1="2227" x2="2298.5" y1="527.86" y2="514.36" gradientTransform="matrix(.58572 0 0 .58608 -885.46 4.3885)" gradientUnits="userSpaceOnUse">
   <stop stop-color="#0c1e20" offset="0"/>
   <stop stop-color="#0e191e" offset="1"/>
  </linearGradient>
  <linearGradient id="c" x1="2017.5" x2="2089.5" y1="506.36" y2="492.36" gradientTransform="matrix(.58572 0 0 .58608 -885.46 4.3885)" gradientUnits="userSpaceOnUse">
   <stop stop-color="#1e2c2f" offset="0"/>
   <stop stop-color="#1d2421" offset="1"/>
  </linearGradient>
  <linearGradient id="b" x1="1651" x2="1929.5" y1="570.86" y2="521.86" gradientTransform="matrix(.58572 0 0 .58608 -885.46 4.3885)" gradientUnits="userSpaceOnUse">
   <stop stop-color="#2d3a42" offset="0"/>
   <stop stop-color="#172f33" offset="1"/>
  </linearGradient>
 </defs>
 <path d="M 295.29,600 295.2,0 C 486.82,0 600,151.09 600,299.98 600,458.31 476.98,600 295.29,600 Z" fill="url(#j)"/>
 <path d="m295.29 600-0.09-600c156.18 0 225.14 174.24 225.14 299.98 0 118.47-64.45 300.02-225.05 300.02z" fill="#ffd11c"/>
 <path d="m529.45 181.35c0 31.99-12.17 39.49-12.17 39.49-10.9-56.57-44.16-143.69-118.67-194.57 33.3 10.33 130.84 63.96 130.84 155.08z" fill="url(#i)"/>
 <path d="m505.38 263.93-98.13 114.44-295 36.02-107.71-62.34c3e-3 0-5.2519-27.82-4.4584-52.66 9e-6 -161.68 131.98-299.39 295.12-299.39 130.33 0 203.69 152.32 210.18 263.93z" color="#000000" fill="url(#h)" style="text-decoration-line:none;text-indent:0;text-transform:none"/>
 <path d="m4.543 352.05c19.099 120.1 131.87 247.95 290.75 247.95 110.8 0 211.48-121.76 211.48-300.73l-1.39-35.34z" color="#000000" fill="#fd0" style="text-decoration-line:none;text-indent:0;text-transform:none"/>
 <path d="m4.543 352.05s-5.2549-27.82-4.4614-52.66c9e-6 -161.68 131.98-299.39 295.12-299.39 130.33 0 203.69 152.32 210.18 263.93l1.39 35.34c0 178.97-100.68 300.73-211.48 300.73-158.88 0-271.65-127.85-290.75-247.95z" color="#000000" fill="url(#a)" style="text-decoration-line:none;text-indent:0;text-transform:none"/>
 <path d="m391.74 195.25c-10.12 0-20.03 2.07-20.03 2.07l7.49 41.52s6.26-1.69 12.65-1.69c7.64 0 14.79 2.46 16.36 11.95l5.44 30.98 27.29 27.32 14.09-34.6-5.62-32.18c-3.94-22.05-24.07-45.37-57.67-45.37z" color="#000000" fill="url(#g)" style="text-decoration-line:none;text-indent:0;text-transform:none"/>
 <path d="m357.09 200.29-111.69 19.32 7.32 41.81 36.17-6.46 7.96 45.67 26.69 28.2 14.59-35.47-8.09-45.84 34.33-5.97z" color="#000000" fill="url(#f)" style="text-decoration-line:none;text-indent:0;text-transform:none"/>
 <path d="m229.31 222.63-42.94 7.58 15.45 87.13 28.11 25.87 14.83-33.42zm-108.41 19.69c-8.37-0.09-16.86 2.07-24.585 5.8-17.868 10.12-25.362 28.35-22.056 46.95l7.56 43.38 24.851 16.69 18.07-24.23-7.23-40.97c-1.46-7.02 2.51-6.53 4.06-3.12l21.6 40.85 30.35 21.84 13.25-29.52-29.47-55.29c-8.91-15.82-22.46-22.23-36.4-22.38z" color="#000000" fill="url(#e)" style="text-decoration-line:none;text-indent:0;text-transform:none"/>
 <path d="m455.03 272.8-41.38 7.28 13.23 75.52 41.28-7.55z" color="#000000" fill="url(#d)" style="text-decoration-line:none;text-indent:0;text-transform:none"/>
 <path d="m338.13 293.36-41.28 7.27 13.18 75.64 41.42-7.27z" color="#000000" fill="url(#c)" style="text-decoration-line:none;text-indent:0;text-transform:none"/>
 <path d="m244.76 309.79-42.94 7.55 5.12 28.88c1.71 7.21-1.78 8.64-3.91 4.27l-16.26-30.5-43.6 7.68 24.57 46.46c16.23 28.61 48.64 21.68 60.53 15.2 15.79-9.29 26.7-24.84 22.02-48.29zm-120.02 21.12-42.921 7.54 13.215 75.83 43.016-7.93z" color="#000000" fill="url(#b)" style="text-decoration-line:none;text-indent:0;text-transform:none"/>
</svg>
