<svg width="509.68" height="253" viewBox="0 0 382.26 189.75" xmlns="http://www.w3.org/2000/svg">
    <path d="M303.27 75.97a15.001 9.269 0 0 1-15.001 9.27 15.001 9.269 0 0 1-15.001-9.27 15.001 9.269 0 0 1 15.001-9.268 15.001 9.269 0 0 1 15.001 9.269z" fill="#cc513c" paint-order="stroke fill markers"/>
    <path d="M260.927 99.373c-.573-.154-.78-.435-.576-1.796l.55-3.673c.16-1.059.662-1.15 1.58-1.15h37.35l-15.63 41.345c-1.544 4.104-4.185 10.35-2.61 11.26 1.887 1.09 6.805-3.892 9.891-6.733 1.993-1.791 3.987-3.4 6.508-1.944.89.514 1.655 2.12.991 3.457-2.52 4.53-4.412 6.79-7.12 9.86-4.688 5.012-9.28 8.415-19.025 8.429-8.35 0-11.99-.845-15.815-4.43-1.796-1.873-1.95-6.432-.91-9.5l8.71-26.45c1.45-4.95 3.84-12.224 3.32-15.2-.4-1.66-1.595-2.213-2.972-2.523z" fill="#c54f3a"/>
    <g fill="#7a2425">
        <path d="M37.21 92.754h25.752l27.325 47.378v-18.469h27.53l-.013 68.08H82.652l-17.313-32.631v32.63H-.001V166.68h37.21zM160.628 121.663h87.532v45.01h38.597v23.072h-65.583V177.55h-33.299v12.196h-62.458v-23.071h35.208v-45.01m27.25 33.357h33.299v-10.717h-33.299z"/>
    </g>
    <path d="M90.29 92.754h157.87v23.437h-94.92v45.145l-27.823.007v-45.152h-35.13z" fill="#fa8f05"/>
    <g>
        <path d="M290.938 0l-2.284 3.607-9.34 3.307 2.927 3.75-10.168 6.397-5.717 7.003v5.92l-3.156 6.42v1.039l2.644 6.673 2.714 2.695.36 2.93c31.734-3.8 64.484-6.182 85.806-24.502l-7.612-16.977-6.572 2.876-11.254-3.725-3.868 2.292-.026 2.598h-.838l-5.434-3.738-3.6-1.256.138-3.49-.411-3.51h-15.4l-4.893 2.6-2.442-1.948z" fill="#090"/>
        <path d="M354.724 25.24l5.014 11.794 12.08 10.308 10.447-3.802-2.497 8.6c-18.152 8.024-44.552 9.587-70.386 8.225l-8.172-2.632-.337-3.051-5.809-.196-5.456 3.619-4.608-1.1-2.36-.032-6.334 1.058-7.435-7.419.046-.87z" fill="#fc0"/>
        <path d="M379.768 52.14l-3.384 11.164h-6.166l-8.837 11.438c-15.907 2.137-31.854 4.018-49.917-8.16l.06-5.532-2.142-.684z" fill="#292929"/>
        <path d="M311.463 66.582l49.917 8.16-1.373 1.77 3.586 16.447-5.633 2.587c-23.61.968-38.524-1.095-40.297-7.74l-.048-7.783-6.2-7.527z" fill="#960"/>
        <path d="M317.663 87.806l40.297 7.74-2.232.916-2.941 3.59 1.73 4.79-9.81 13.427-9.536 4.774h-9.169c-.004-.056-.033-.174-.071-.392-.3-2.053-.825-4.064-1.262-6.092l-10.032-22.094z" fill="#f30"/>
    </g>
</svg>
