<svg xmlns="http://www.w3.org/2000/svg" viewBox="0 0 723.5 271.5" enable-background="new 0 0 723.5 271.5"><style type="text/css">.st0{fill:#FFFFFF;} .st1{fill:#D61F2C;} .st2{fill:#F3F2F3;} .st3{fill:#9B9696;} .st4{fill:#EFEFEF;} .st5{fill:#9A9595;}</style><path id="rect15" class="st0" d="M0 0h435v271.5h-435z"/><path id="path4" class="st1" d="M0 0v271.5h435v-271.5h-435zm172.3 203.7c0 1.7 0 3.2-2.5 3.2-11.7-.1-23.5-.1-35.2-.1-.2 0-.5-.2-1.2-.5v-74.60000000000001c0-8.7-1.7-10.5-10.5-10.5-6.2 0-12.5.2-18.7-.1-3.7-.2-4.9.7-4.9 4.7.2 25.4.1 50.7.1 76.1 0 5 0 5-5.1 5-10.1 0-20.2-.1-30.4 0-2.6 0-3.5-.8-3.5-3.4.1-38.9.1-77.7 0-116.6 0-2.4.7-3.3 3.2-3.3 27 .1 54-.1 81 .1 15.9.2 27.5 11.8 27.6 27.7.3 30.8.1 61.6.1 92.3zm199.3-96.7c-12.6 32.2-25.2 64.5-37.7 96.7-1 2.5-2.2 3.4-4.9 3.4-10.5-.1-21-.2-31.5 0-3.3.1-4.5-1.2-5.6-4-10-25.9-20.1-51.7-30.1-77.5-1.3-3.3-2.9-4.6-6.5-4.4-7.1.3-14.2.2-21.4 0-2.4 0-3.6.5-3.6 3.3l.1 39.7c0 5.9 2.3 8 8.3 8.1 3.7.1 7.5.1 11.2 0 2.4-.1 3.4.6 3.3 3.2-.1 10-.1 20 0 30 0 2.3-.7 3.4-3.2 3.4-10.1-.1-20.3.3-30.4-.2-17.7-.8-28.3-12-28.4-29.7l-.1-131.2c0-2.6.8-3.7 3.4-4.2 11.6-2.2 23.2-4.5 35.5-7v47.2h4.9c16.1 0 32.2.1 48.4-.1 3.2 0 4.5 1.1 5.5 4 7.4 21.6 14.9 43.2 22.4 64.8.3.9.7 1.8 1.5 3.8 1.1-2.9 2-5 2.7-7.2 7.2-20.6 14.4-41.3 21.4-62 .9-2.6 2.1-3.4 4.8-3.4 12.6.1 25.2.1 38.6.1-2.7 8.1-5.6 15.7-8.6 23.2z"/><path class="st2" d="M456.2 0h267.5v271.5h-267.5z"/><path class="st3" d="M598.8 136c0-14.6.2-29.1-.1-43.7-.1-4.9 1.4-6.8 6.6-6.8 12.5 0 25.7-.5 38.6 1.1 13.5 1.7 23.1 8.1 26.8 21.1 5.3 18.8 5.6 37.8-.5 56.6-4.5 13.9-14.7 20.8-28.9 21.5-12.1.6-24.3.4-36.5.4-5 0-6.2-1.8-6.1-6.4.2-14.7.1-29.3.1-43.8z"/><path class="st4" d="M613.6 135.9c0-10 .1-19.9-.1-29.9-.1-3.7 1.3-5.3 5.2-5.1l16.5.1c11.3.3 16.7 4.4 18.9 15 2.7 13 2.8 26.1 0 39-2.4 11.3-9.2 16.3-21.2 16.6-19.4.4-19.4.4-19.4-18.2.1-5.8.1-11.7.1-17.5z"/><path class="st3" d="M505.3 85.4h16.4v42.4h43.4v-42.4h16.4v100.8h-16.4v-42.4l-43.1-.3v42.7h-16.7z"/><path class="st5" d="M598.4 85.4h16.4v100.7h-16.4z"/></svg>