<svg width="266.597" height="333.831" viewBox="0 0 70.537 88.326" xmlns="http://www.w3.org/2000/svg">
    <defs>
        <radialGradient id="a" cx="574.78" cy="489.18" r="123.57" gradientTransform="matrix(.01187 -1.2779 1.2023 .01117 -1151.9 1115.3)" gradientUnits="userSpaceOnUse">
            <stop stop-color="#fff" offset="0"/>
            <stop stop-color="#018f61" offset="1"/>
        </radialGradient>
    </defs>
    <path d="M0 52.87h70.536v23.898H0z" fill="#2a6eaf"/>
    <path d="M0 68.563h70.536v3.443H0z" fill="#3db650"/>
    <g fill="#fff">
        <path d="M12.397 57.3l4.575 7.453 4.575-7.453h3.542v14.707h-3.394v-8.508l-3.049 5.064h-2.928l-3.395-5.064v8.508H8.781V60.473h-1.5V57.3zM29.37 57.3h5.238v9.372l7.01-9.372h3.69v11.263h1.476v3.444h-5.166v-9.172l-7.01 9.172H31.14V60.473h-1.77zM50.695 57.3v3.026h1.623v11.68h3.69v-3.443h3.985s4.796-.318 4.796-5.631c0-5.313-4.796-5.632-4.796-5.632zm5.24 3.247h2.73s2.213.023 2.287 2.385c.074 2.36-2.288 2.559-2.288 2.559h-2.73z"/>
    </g>
    <g transform="matrix(.07087 0 0 .07087 71.794 6.261)">
        <path d="M-1013 121.65h270v-210h490v210h95s195.1 30 125.08 240c70.02 210-125.08 245-125.08 245h-300v-195h70v-80h-70v-280h65v70h70v-140h-345v140h70v-70h65v280h-65v80h65v195h-480v-205h70v-70h-70z" fill="#2a6eaf"/>
        <path d="M-942.98 186.65v70h65v210h-65v75h140v-140h60v140h145v-75h-70v-210h70v-70h-145v145h-60v-145zM-393 186.653v70h70v210h-70v75h235s128.08-50 53.08-180c75-130-53.08-175-53.08-175zm140 70h65c45 0 45 75 0 75h-65zm0 140h65c45 0 45 75 0 75h-65z" fill="#fff"/>
        <path d="M-374.41 448.08c0 68.24-55.32 123.57-123.57 123.57s-123.57-55.33-123.57-123.57c0-68.25 55.32-123.58 123.57-123.58s123.57 55.33 123.57 123.58z" fill="url(#a)"/>
        <circle cx="-546.22" cy="390.2" r="27.977" fill="#fff" stroke-width=".76"/>
        <g fill="#2a6eaf">
            <path d="M-918.47 1122.8q0 7.807-3.264 13.951-3.19 6.144-8.829 10.192-6.528 4.77-14.393 6.795-7.79 2.024-19.808 2.024h-48.223v-107.63h42.881q13.354 0 19.512.867 6.232.867 12.315 3.831 6.306 3.108 9.348 8.385 3.116 5.205 3.116 11.927 0 7.807-4.229 13.806-4.229 5.927-11.944 9.252v.579q10.832 2.096 17.138 8.674 6.38 6.578 6.38 17.348zm-36.501-44.238q0-2.675-1.41-5.349-1.335-2.675-4.822-3.976-3.116-1.156-7.79-1.229-4.6-.144-12.983-.144h-2.67v22.77h4.45q6.752 0 11.5-.217t7.493-1.446q3.858-1.662 5.045-4.264 1.187-2.675 1.187-6.145zm6.974 43.804q0-5.132-2.078-7.879-2.003-2.82-6.9-4.193-3.338-.94-9.198-1.012-5.861-.071-12.241-.071h-6.232v26.818h2.077q12.019 0 17.212-.072t9.57-1.88q4.452-1.807 6.084-4.77 1.706-3.037 1.706-6.94zM-717.37 1155.8h-29.453l-7.641-21.758h-40.952l-7.642 21.758h-28.71l40.803-107.63h32.791zm-43.994-41.491l-13.577-38.6-13.577 38.6zM-543.87 1155.8h-79.679v-107.63h28.489v86.814h51.19zM-362.58 1069h-34.498v86.814h-28.489V1069h-34.498v-20.818h97.484zM-207.93 1155.8h-64.693v-19.083h18.102v-69.466h-18.102v-19.083h64.693v19.083h-18.102v69.466h18.102zM-56.836 1157.9q-12.315 0-22.776-3.542-10.386-3.542-17.88-10.554-7.493-7.012-11.648-17.493-4.08-10.48-4.08-24.215 0-12.794 3.932-23.203t11.425-17.854q7.196-7.156 17.805-11.06 10.683-3.903 23.295-3.903 6.973 0 12.538.795 5.638.723 10.386 1.952 4.97 1.373 8.977 3.108 4.08 1.662 7.122 3.108v26.095h-3.265q-2.077-1.735-5.267-4.12-3.116-2.385-7.122-4.699-4.08-2.313-8.829-3.903-4.748-1.59-10.164-1.59-6.009 0-11.425 1.88-5.415 1.806-10.015 6.071-4.377 4.12-7.122 10.915-2.67 6.795-2.67 16.481 0 10.12 2.893 16.915 2.967 6.795 7.419 10.698 4.525 3.976 10.09 5.71 5.564 1.663 10.98 1.663 5.193 0 10.238-1.518 5.119-1.518 9.422-4.12 3.635-2.096 6.75-4.482t5.12-4.12h2.968v25.733q-4.155 1.807-7.939 3.397-3.783 1.59-7.938 2.747-5.416 1.518-10.164 2.313-4.748.796-13.057.796z" style="font-feature-settings:normal;font-variant-caps:normal;font-variant-ligatures:normal;font-variant-numeric:normal"/>
        </g>
    </g>
</svg>
