<svg width="70.536mm" height="76.768mm" version="1.1" viewBox="0 0 70.536 76.768" xmlns="http://www.w3.org/2000/svg">
 <defs>
  <radialGradient id="a" cx="574.78" cy="489.18" r="123.57" gradientTransform="matrix(.011874 -1.2779 1.2023 .011171 -1151.9 1115.3)" gradientUnits="userSpaceOnUse">
   <stop stop-color="#fff" offset="0"/>
   <stop stop-color="#018f61" offset="1"/>
  </radialGradient>
 </defs>
 <g transform="translate(-114.64 -85.768)">
  <g transform="matrix(.070873 0 0 .070873 114.64 85.768)">
   <g transform="translate(6.3771e-6)">
    <path d="m0 745.98h995.25v337.19h-995.25z" fill="#2a6eaf"/>
   </g>
   <g transform="translate(6.3771e-6)">
    <path d="m0 967.4 995.25-3.4e-4v48.591l-995.25 2e-4z" fill="#3db650"/>
   </g>
   <g transform="translate(6.3771e-6)" fill="#fff">
    <path d="m174.92 808.49 64.553 105.16 64.553-105.16 49.977 1.4e-4v207.51h-47.894v-120.05l-43.012 71.456h-41.324l-47.894-71.456v120.05h-49.977v-162.74h-21.181v-44.771z"/>
    <path d="m414.39 808.49h73.924l3.4e-4 132.23 98.912-132.23 52.059 1.4e-4v158.92h20.824v48.591h-72.883v-129.42l-98.912 129.42h-48.936v-162.74h-24.988z"/>
    <path d="m715.29 808.49v42.689h22.906v164.82h52.061v-48.592h56.223s67.678-4.4917 67.678-79.457c0-74.965-67.678-79.459-67.678-79.459zm73.926 45.812h38.523s31.236 0.32858 32.277 33.646c1.0412 33.318-32.277 36.113-32.277 36.113h-38.523z"/>
   </g>
   <g transform="translate(1013,88.347)">
    <path d="m-1013 121.65h270v-210h490v210h95s195.1 30 125.08 240c70.02 210-125.08 245-125.08 245h-300v-195h70v-80h-70v-280h65v70h70v-140h-345v140h70v-70h65v280h-65v80h65v195h-480v-205h70v-70h-70z" fill="#2a6eaf"/>
    <path d="m-942.98 186.65v70h65v210h-65v75h140v-140h60v140h145v-75h-70v-210h70v-70h-145v145h-60v-145z" fill="#fff"/>
    <path transform="translate(-1013,-88.347)" d="m620 275v70h70v210h-70v75h235s128.08-50 53.08-180c75-130-53.08-175-53.08-175zm140 70h65c45 0 45 75 0 75h-65zm0 140h65c45 0 45 75 0 75h-65z" fill="#fff"/>
    <path d="m-374.41 448.08c0 68.24-55.32 123.57-123.57 123.57s-123.57-55.33-123.57-123.57c0-68.25 55.32-123.58 123.57-123.58s123.57 55.33 123.57 123.58z" fill="url(#a)"/>
    <circle cx="-546.22" cy="390.2" r="27.977" fill="#fff" stroke-width=".76"/>
   </g>
  </g>
 </g>
</svg>
