<svg version="1.1" viewBox="0 0 800 247.52" xml:space="preserve" xmlns="http://www.w3.org/2000/svg">
<style type="text/css">
	.st0{fill:#E4251E;}
</style>
<g transform="scale(9.901)" stroke-width=".101">
	
		<path class="st0" d="m57.9 9.8-1.4 4h3.4l-1.5-4z" fill="#e4251e"/>
		<path class="st0" d="m42.2 1.9v12.6h0.2l4-6.5h2.9v9.1h-2v-6.5h-0.2l-4 6.5h-2.9v-15.1l-40.2 2v17l28.3 1.4v-14.4h2 2.1c1.1 0 3.9 0 3.9 3.3 0 3.4-3 3.3-3.9 3.3h-2.1v8l50.5 2.4v-25zm-36.3 10.6c0 1.8 1.1 2.6 2.6 2.6s2.1-0.5 2.4-1.4h2c-0.2 2-1.9 3.4-4.4 3.4-2.6 0-4.5-1.6-4.5-4.6 0-2.9 1.9-4.5 4.5-4.5 2.5 0 4.3 1.5 4.4 3.4h-2c-0.3-1-1-1.4-2.4-1.4-1.5 0-2.6 0.7-2.6 2.5zm2.3-0.9c0 0.3-0.2 0.5-0.5 0.5s-0.5-0.2-0.5-0.5 0.2-0.5 0.5-0.5c0.3 0.1 0.5 0.3 0.5 0.5zm16.2-1.8h-5.5v1.9h5.5v1.8h-5.5v1.8h5.5v1.8h-7.5v-9.1h7.5zm36.7 7.3-0.5-1.5h-4.7l-0.5 1.5h-2.1l3.2-9.1h3.3l3.3 9.1zm13.4 0-2.5-7.3h-0.2l-2.5 7.3h-2.3l3.4-9.1h3.2l3.3 9.1z" stroke-width=".101"/>
	
	<path class="st0" d="m34.4 11.2c0-1.6-1.3-1.6-1.9-1.6h-2.2v3.1h2.2c0.5 0.1 1.9 0.2 1.9-1.5z"/>
</g>
</svg>
