<svg xmlns="http://www.w3.org/2000/svg" height="191.81" width="600">
    <g fill="#ec1e27">
        <path d="M112.96 0L95.709 29.242H61.811L77.749 0h35.211zM79.5 32.78C32.33 32.78 0 68.006 0 112.53c0 44.958 30.587 79.281 80.625 79.281 49.181 0 80.188-35.233 80.188-79.969 0-44.746-31.243-79.062-81.312-79.062zm.688 34.562c26.373 0 41.843 19.918 41.843 44.938 0 25.04-14.585 44.97-41.594 44.97-25.462 0-41.655-19.729-41.655-44.97 0-25.019 14.408-44.938 41.406-44.938zM234.76 29.24L212.852-.002h31.888l8.647 9.737 8.636-9.737H293.9L271.993 29.24H234.76zM307.63 171.85c-13.06 12.382-29.443 19.928-50.948 19.928-50.927 0-81.492-34.533-81.492-79.28 0-44.29 31.909-79.735 80.836-79.735 23.262 0 39.645 7.536 51.827 18.14l-21.918 27.92c-5.556-5.091-15.716-11.505-29.453-11.505-27.231 0-42.524 19.918-42.524 44.947 0 25.231 17.05 44.98 42.725 44.98 12.859 0 22.606-5.78 29.252-11.526l21.696 26.13zM360.8 95.68l41.857-60.018h42.736l-53.816 73.311 53.605 79.968h-43.191l-41.19-62.685v62.685h-36.989V35.661h36.989V95.68z"/>
        <path d="M518.72 32.78c-47.191 0-79.531 35.226-79.531 79.75 0 44.97 30.566 79.281 80.625 79.281 49.17 0 80.188-35.202 80.188-79.938 0-44.757-31.243-79.094-81.281-79.094zm.656 34.562c26.374 0 41.844 19.92 41.844 44.938 0 25.03-14.616 44.97-41.656 44.97-25.464 0-41.625-19.729-41.625-44.97 0-25.019 14.408-44.938 41.438-44.938z"/>
    </g>
</svg>
