<?xml version="1.0" encoding="UTF-8" standalone="no"?>
<!-- Created with Inkscape (http://www.inkscape.org/) -->
<svg xmlns:rdf="http://www.w3.org/1999/02/22-rdf-syntax-ns#" xmlns="http://www.w3.org/2000/svg" height="368.98" width="600" version="1.1" xmlns:cc="http://creativecommons.org/ns#" xmlns:dc="http://purl.org/dc/elements/1.1/">
 <defs></defs>
 <metadata>
  <rdf:RDF>
   <cc:Work rdf:about="">
    <dc:format>image/svg+xml</dc:format>
    <dc:type rdf:resource="http://purl.org/dc/dcmitype/StillImage"/>
    <dc:title/>
   </cc:Work>
  </rdf:RDF>
 </metadata>
 <g transform="translate(336.06083,386.19401)">
  <path fill-rule="nonzero" fill="#f25822" d="m12.582-313.43c-1.1108-7.3868-6.4426-22.16-32.324-22.16-29.269,0-38.655,28.436-38.655,55.762,0,27.27,9.3862,55.707,38.655,55.707,21.049,0,29.325-8.3865,32.99-27.436h61.427c0,40.988-33.268,78.089-92.696,78.089-65.704,0-102.91-46.375-102.91-106.36,0-63.982,40.377-106.36,102.91-106.36,55.762,0.2777,86.031,21.827,91.474,72.757h-60.873z"/>
  <path fill-rule="nonzero" fill="#f25822" d="m-233.15-224.1c15.94,0,40.377-10.552,40.377-55.762,0-45.209-24.437-55.707-40.377-55.707s-40.377,10.497-40.377,55.707c0,45.209,24.437,55.762,40.377,55.762m0-162.06c61.705,0,102.97,44.32,102.97,106.3,0,62.038-41.266,106.36-102.97,106.36-61.705,0-102.91-44.32-102.91-106.36,0-61.983,41.21-106.3,102.91-106.3"/>
  <path fill-rule="nonzero" fill="#f25822" d="m143.36-251.55c0,5.1096,0.8331,14.662,2.2771,18.328,4.5542,12.219,18.161,14.773,29.824,14.773,10.275,0,25.881-3.3879,25.881-18.439,0-10.552-8.7753-13.385-43.765-23.326-32.157-9.1085-68.814-17.939-68.814-58.872,0-46.931,40.044-67.092,81.866-67.092,44.098,0,83.032,23.271,84.754,72.757h-59.15c1.1663-7.6645-2.2771-19.328-7.3868-22.715-5.1096-3.7211-12.219-5.1096-18.495-5.1096-8.4976,0-22.438,2.2771-22.438,13.607,1.1108,14.496,30.158,17.661,58.872,25.604,28.714,7.9977,57.151,21.327,57.151,58.595,0,52.873-48.652,69.925-93.862,69.925-22.993,0-88.697-13.218-89.308-78.033h62.594z"/>
  <path d="m-147.05-139.92c9.4793-10.436,23.881-14.175,37.517-14.854,11.601,0.73051,23.863,2.9568,32.96,10.784,9.201,7.5138,13.654,19.428,14.575,31.012-10.14,0.0348-20.28,0.0173-30.421,0.0173-0.5218-6.8007-3.7743-14.088-10.505-16.697-5.7224-1.3219-12.645-1.4088-17.219,2.8525-3.0264,2.4698-4.4526,6.2094-6.2268,9.5836-3.3047,9.8619-2.5046,20.437-1.9306,30.647,1.3741,8.5401,4.6788,18.802,13.723,21.881,5.618,0.92184,12.454,1.1132,16.593-3.5308,4.4005-3.7743,5.8615-9.5836,5.9485-15.167,10.401-0.01734,20.802,0.01734,31.203-0.01734-1.2001,14.071-7.3399,28.473-19.967,35.882-19.706,11.34-47.24,10.158-64.337-5.5484-12.506-11.827-16.123-29.638-16.715-46.144,0.85227-14.541,3.983-30.073,14.802-40.7z" fill="#000"/>
  <path d="m-55.688-151.23h29.568v22.611h-29.568v-22.611z" fill="#000"/>
  <path d="m-15.684-146.01h29.568v24.35c13.897,0.10437,27.812-0.17394,41.691,0.10437,0.38265,0.43481,1.1479,1.3045,1.5306,1.7393,2.4698,17.654,8.4531,34.839,9.3227,52.684,2.7655-4.2439,2.4524-9.4097,3.183-14.21,2.8873-13.445,6.2268-26.803,8.7662-40.317h30.716c-6.5398,22.524-13.497,44.909-20.089,67.416-3.1482,10.158-5.9833,20.994-13.462,28.96-5.705,5.6702-13.897,7.1486-21.585,7.9661-8.1922,0.59137-16.228-1.6871-24.42-1.4262v-22.907c6.1224-0.43483,12.262,0.27829,18.385-0.40004,0.40004-1.2871,1.1827-3.8265,1.5828-5.0962-5.4441-18.715-12.21-37.013-18.576-55.415-5.6876,0.0521-11.358,0.0348-17.045,0.0348,0.46962,12.575-0.99141,25.29,0.81748,37.761,3.7743,0.45222,7.566,0.55658,11.358,0.38265v20.976c-9.8619,0.0174-19.828,3.7569-29.429-0.20872-8.9053-2.5394-11.706-12.436-12.21-20.646-0.27829-12.749-0.0174-25.516-0.10436-38.265h-10.436v59.137h-29.568v-78.269h40.004v-24.35z" fill="#000"/>
 </g>
</svg>
