<svg width="200.001" height="40.203" viewBox="0 0 52.917 10.637" xmlns="http://www.w3.org/2000/svg">
    <defs>
        <clipPath id="a">
            <path d="M376.14 537.52c-.081 0-.181-.046-.216-.119l-1.223-2.615a.212.212 0 0 1 .382-.183l.256.537c.036.073.11.12.192.12h1.227a.213.213 0 0 0 .191-.12l.258-.537a.212.212 0 0 1 .296-.092.214.214 0 0 1 .082.281l-1.228 2.609c-.036.073-.135.119-.216.119zm-.492-1.736l.43.901a.07.07 0 0 0 .127 0l.434-.9a.07.07 0 0 0-.064-.101h-.864a.07.07 0 0 0-.063.1"/>
        </clipPath>
        <linearGradient id="b" x2="1" gradientTransform="scale(14.77 -14.77) rotate(7 310.066 181.487)" gradientUnits="userSpaceOnUse">
            <stop stop-color="#374ea8" offset="0"/>
            <stop stop-color="#ee2849" offset="1"/>
        </linearGradient>
        <clipPath id="c">
            <path d="M371.44 537.51a.211.211 0 0 1-.211-.212v-2.592c0-.117.094-.212.211-.212h1.744a.21.21 0 0 1 .21.226.216.216 0 0 1-.218.197h-1.383a.142.142 0 0 0-.141.142v.589c0 .079.064.142.141.142h.029c.15 0 .299-.026.444-.062a.276.276 0 0 1 .081-.009.282.282 0 1 1-.083.557 1.823 1.823 0 0 0-.471-.062.142.142 0 0 0-.141.142v.589a.14.14 0 0 0 .141.141h1.383c.113 0 .211.086.218.198a.211.211 0 0 1-.21.226z"/>
        </clipPath>
        <linearGradient id="d" x2="1" gradientTransform="scale(14.77 -14.77) rotate(7 309.849 181.472)" gradientUnits="userSpaceOnUse">
            <stop stop-color="#374ea8" offset="0"/>
            <stop stop-color="#ee2849" offset="1"/>
        </linearGradient>
        <clipPath id="e">
            <path d="M360.43 537.56a1.567 1.567 0 0 1-1.469-1.484 1.562 1.562 0 0 1 3.058-.512.216.216 0 0 0 .423-.062v-.797c0-.117.094-.212.212-.212h.9c.827 0 1.518.658 1.53 1.485a1.509 1.509 0 0 1-1.507 1.531h-.923a.211.211 0 0 1-.212-.212v-.798a.216.216 0 0 0-.216-.216.213.213 0 0 0-.206.154 1.567 1.567 0 0 1-1.59 1.123m-1.047-1.559a1.14 1.14 0 0 0 1.137 1.138 1.14 1.14 0 0 0 1.138-1.138 1.14 1.14 0 0 0-1.138-1.138 1.14 1.14 0 0 0-1.137 1.138m3.483-.943v1.886a.14.14 0 0 0 .141.141h.57c.591 0 1.074-.475 1.083-1.066.011-.606-.496-1.103-1.103-1.103h-.55a.142.142 0 0 0-.141.142"/>
        </clipPath>
        <linearGradient id="f" x2="1" gradientTransform="scale(14.77 -14.77) rotate(7 309.146 181.432)" gradientUnits="userSpaceOnUse">
            <stop stop-color="#374ea8" offset="0"/>
            <stop stop-color="#ee2849" offset="1"/>
        </linearGradient>
        <clipPath id="g">
            <path d="M366.46 536.73c0-.647.569-.798.875-.878l.103-.029c.05-.015.104-.028.16-.042.407-.096.578-.181.578-.451 0-.173-.061-.289-.193-.366a.867.867 0 0 0-.427-.099c-.263 0-.707.199-.885.33a.212.212 0 0 1-.296-.044.212.212 0 0 1 .045-.296c.234-.173.76-.412 1.136-.412.634 0 1.043.348 1.043.887 0 .648-.587.788-.903.863l-.138.035a1.584 1.584 0 0 1-.115.032c-.387.103-.559.195-.559.47 0 .34.314.411.578.411.233 0 .395-.065.535-.134a.21.21 0 0 1 .283.097.208.208 0 0 1-.096.282 1.55 1.55 0 0 1-.722.178c-.618 0-1.002-.32-1.002-.834"/>
        </clipPath>
        <linearGradient id="h" x2="1" gradientTransform="scale(14.77 -14.77) rotate(7 309.53 181.453)" gradientUnits="userSpaceOnUse">
            <stop stop-color="#374ea8" offset="0"/>
            <stop stop-color="#ee2849" offset="1"/>
        </linearGradient>
        <clipPath id="i">
            <path d="M368.73 536.73c0-.647.569-.798.874-.878l.103-.029c.051-.015.104-.028.16-.042.408-.096.578-.181.578-.451 0-.173-.061-.289-.192-.366a.87.87 0 0 0-.427-.099c-.159 0-.42.08-.665.201a.213.213 0 0 1-.284-.095.213.213 0 0 1 .096-.285c.115-.057.517-.243.853-.243.634 0 1.043.348 1.043.887 0 .648-.588.788-.903.863l-.138.035a1.74 1.74 0 0 1-.115.032c-.387.103-.559.195-.559.47 0 .34.314.411.577.411.297 0 .483-.102.699-.22a.211.211 0 1 1 .201.373c-.232.126-.496.27-.9.27-.617 0-1.001-.32-1.001-.834"/>
        </clipPath>
        <linearGradient id="j" x2="1" gradientTransform="scale(14.77 -14.77) rotate(7 309.681 181.466)" gradientUnits="userSpaceOnUse">
            <stop stop-color="#374ea8" offset="0"/>
            <stop stop-color="#ee2849" offset="1"/>
        </linearGradient>
        <clipPath id="k">
            <path d="M373.85 537.29a.247.247 0 1 1 0 0"/>
        </clipPath>
        <linearGradient id="l" x2="1" gradientTransform="scale(14.77 -14.77) rotate(7 310.68 181.527)" gradientUnits="userSpaceOnUse">
            <stop stop-color="#374ea8" offset="0"/>
            <stop stop-color="#ee2849" offset="1"/>
        </linearGradient>
        <clipPath id="m">
            <path d="M373.88 536.52c0-.016.002-.032.006-.047a2.61 2.61 0 0 0 .064-.591v-.22c0-.283-.054-.562-.129-.834a.275.275 0 0 1-.011-.082.281.281 0 0 1 .269-.272.279.279 0 0 1 .278.364 2.393 2.393 0 0 0-.127.726v.318c0 .202.031.402.067.602a.208.208 0 0 1-.183.244c-.008.002-.016.002-.024.002a.21.21 0 0 1-.21-.21"/>
        </clipPath>
        <linearGradient id="n" x2="1" gradientTransform="scale(14.77 -14.77) rotate(7 309.754 181.467)" gradientUnits="userSpaceOnUse">
            <stop stop-color="#374ea8" offset="0"/>
            <stop stop-color="#ee2849" offset="1"/>
        </linearGradient>
        <clipPath id="o">
            <path d="M365.44 537.26c0-.295.139-.713.139-1.5 0-.456-.073-.694-.073-.879a.213.213 0 0 1 .426 0c0 .139-.071.348-.071.877 0 1.07.139 1.219.139 1.502a.28.28 0 1 1-.56 0"/>
        </clipPath>
        <linearGradient id="p" x2="1" gradientTransform="scale(14.77 -14.77) rotate(7 309.458 181.452)" gradientUnits="userSpaceOnUse">
            <stop stop-color="#374ea8" offset="0"/>
            <stop stop-color="#ee2849" offset="1"/>
        </linearGradient>
        <clipPath id="q">
            <path d="M365.46 534.07a.258.258 0 1 1 .515.001.258.258 0 0 1-.515-.001"/>
        </clipPath>
        <linearGradient id="r" x2="1" gradientTransform="scale(14.77 -14.77) rotate(7 308.348 181.38)" gradientUnits="userSpaceOnUse">
            <stop stop-color="#374ea8" offset="0"/>
            <stop stop-color="#ee2849" offset="1"/>
        </linearGradient>
    </defs>
    <g clip-path="url(#a)" transform="matrix(2.838 0 0 -2.838 -1018.728 1525.66)">
        <path d="M376.14 537.52c-.081 0-.181-.046-.216-.119l-1.223-2.615a.212.212 0 0 1 .382-.183l.256.537c.036.073.11.12.192.12h1.227a.213.213 0 0 0 .191-.12l.258-.537a.212.212 0 0 1 .296-.092.214.214 0 0 1 .082.281l-1.228 2.609c-.036.073-.135.119-.216.119zm-.492-1.736l.43.901a.07.07 0 0 0 .127 0l.434-.9a.07.07 0 0 0-.064-.101h-.864a.07.07 0 0 0-.063.1" fill="url(#b)"/>
    </g>
    <g clip-path="url(#c)" transform="matrix(2.838 0 0 -2.838 -1018.728 1525.66)">
        <path d="M371.44 537.51a.211.211 0 0 1-.211-.212v-2.592c0-.117.094-.212.211-.212h1.744a.21.21 0 0 1 .21.226.216.216 0 0 1-.218.197h-1.383a.142.142 0 0 0-.141.142v.589c0 .079.064.142.141.142h.029c.15 0 .299-.026.444-.062a.276.276 0 0 1 .081-.009.282.282 0 1 1-.083.557 1.823 1.823 0 0 0-.471-.062.142.142 0 0 0-.141.142v.589a.14.14 0 0 0 .141.141h1.383c.113 0 .211.086.218.198a.211.211 0 0 1-.21.226z" fill="url(#d)"/>
    </g>
    <g clip-path="url(#e)" transform="matrix(2.838 0 0 -2.838 -1018.728 1525.66)">
        <path d="M360.43 537.56a1.567 1.567 0 0 1-1.469-1.484 1.562 1.562 0 0 1 3.058-.512.216.216 0 0 0 .423-.062v-.797c0-.117.094-.212.212-.212h.9c.827 0 1.518.658 1.53 1.485a1.509 1.509 0 0 1-1.507 1.531h-.923a.211.211 0 0 1-.212-.212v-.798a.216.216 0 0 0-.216-.216.213.213 0 0 0-.206.154 1.567 1.567 0 0 1-1.59 1.123m-1.047-1.559a1.14 1.14 0 0 0 1.137 1.138 1.14 1.14 0 0 0 1.138-1.138 1.14 1.14 0 0 0-1.138-1.138 1.14 1.14 0 0 0-1.137 1.138m3.483-.943v1.886a.14.14 0 0 0 .141.141h.57c.591 0 1.074-.475 1.083-1.066.011-.606-.496-1.103-1.103-1.103h-.55a.142.142 0 0 0-.141.142" fill="url(#f)"/>
    </g>
    <g clip-path="url(#g)" transform="matrix(2.838 0 0 -2.838 -1018.728 1525.66)">
        <path d="M366.46 536.73c0-.647.569-.798.875-.878l.103-.029c.05-.015.104-.028.16-.042.407-.096.578-.181.578-.451 0-.173-.061-.289-.193-.366a.867.867 0 0 0-.427-.099c-.263 0-.707.199-.885.33a.212.212 0 0 1-.296-.044.212.212 0 0 1 .045-.296c.234-.173.76-.412 1.136-.412.634 0 1.043.348 1.043.887 0 .648-.587.788-.903.863l-.138.035a1.584 1.584 0 0 1-.115.032c-.387.103-.559.195-.559.47 0 .34.314.411.578.411.233 0 .395-.065.535-.134a.21.21 0 0 1 .283.097.208.208 0 0 1-.096.282 1.55 1.55 0 0 1-.722.178c-.618 0-1.002-.32-1.002-.834" fill="url(#h)"/>
    </g>
    <g clip-path="url(#i)" transform="matrix(2.838 0 0 -2.838 -1018.728 1525.66)">
        <path d="M368.73 536.73c0-.647.569-.798.874-.878l.103-.029c.051-.015.104-.028.16-.042.408-.096.578-.181.578-.451 0-.173-.061-.289-.192-.366a.87.87 0 0 0-.427-.099c-.159 0-.42.08-.665.201a.213.213 0 0 1-.284-.095.213.213 0 0 1 .096-.285c.115-.057.517-.243.853-.243.634 0 1.043.348 1.043.887 0 .648-.588.788-.903.863l-.138.035a1.74 1.74 0 0 1-.115.032c-.387.103-.559.195-.559.47 0 .34.314.411.577.411.297 0 .483-.102.699-.22a.211.211 0 1 1 .201.373c-.232.126-.496.27-.9.27-.617 0-1.001-.32-1.001-.834" fill="url(#j)"/>
    </g>
    <g clip-path="url(#k)" transform="matrix(2.838 0 0 -2.838 -1018.728 1525.66)">
        <path d="M373.85 537.29a.247.247 0 1 1 0 0" fill="url(#l)"/>
    </g>
    <g clip-path="url(#m)" transform="matrix(2.838 0 0 -2.838 -1018.728 1525.66)">
        <path d="M373.88 536.52c0-.016.002-.032.006-.047a2.61 2.61 0 0 0 .064-.591v-.22c0-.283-.054-.562-.129-.834a.275.275 0 0 1-.011-.082.281.281 0 0 1 .269-.272.279.279 0 0 1 .278.364 2.393 2.393 0 0 0-.127.726v.318c0 .202.031.402.067.602a.208.208 0 0 1-.183.244c-.008.002-.016.002-.024.002a.21.21 0 0 1-.21-.21" fill="url(#n)"/>
    </g>
    <g clip-path="url(#o)" transform="matrix(2.838 0 0 -2.838 -1018.728 1525.66)">
        <path d="M365.44 537.26c0-.295.139-.713.139-1.5 0-.456-.073-.694-.073-.879a.213.213 0 0 1 .426 0c0 .139-.071.348-.071.877 0 1.07.139 1.219.139 1.502a.28.28 0 1 1-.56 0" fill="url(#p)"/>
    </g>
    <g clip-path="url(#q)" transform="matrix(2.838 0 0 -2.838 -1018.728 1525.66)">
        <path d="M365.46 534.07a.258.258 0 1 1 .515.001.258.258 0 0 1-.515-.001" fill="url(#r)"/>
    </g>
</svg>
