<svg width="800.013" height="239.15" viewBox="0 0 211.67 63.275" xmlns="http://www.w3.org/2000/svg">
    <defs>
        <linearGradient id="a" x1="1901.8" x2="2725" y1="409" y2="409" gradientTransform="matrix(.07773 0 0 .07773 -428.03 -9.204)" gradientUnits="userSpaceOnUse">
            <stop stop-color="#cc7c0b" offset="0"/>
            <stop stop-color="#ffa60f" offset="1"/>
        </linearGradient>
    </defs>
    <g stroke-width=".078">
        <path d="M0 0h147.68v63.275H0z" fill="#d21b09"/>
        <path d="M-280.19-9.048h63.992v63.275h-63.992z" fill="url(#a)" transform="translate(427.87 9.048)"/>
        <path class="cls-3" d="M126.37 43.331c-7.543 0-13.585-5.757-13.585-13.217s6.042-13.217 13.585-13.217c7.543 0 13.585 5.757 13.585 13.217 0 7.46-6.042 13.217-13.585 13.217zm0-20.434c-3.73 0-7.137 3.203-7.137 7.217 0 4.014 3.406 7.217 7.137 7.217 3.69 0 7.137-3.203 7.137-7.217 0-4.014-3.447-7.217-7.137-7.217zm-25.02-5.514h6.245v25.462h-6.245zM82.493 42.845H70.854V17.383h11.639c8.394 0 13.585 6 13.585 12.73s-5.353 12.731-13.585 12.731zm0-19.46h-5.434v13.46h5.434c4.583 0 7.34-3.041 7.34-6.731s-2.758-6.73-7.34-6.73zm-25.344 15.04h-9.692l-2.109 4.42H38.13l14.396-27.286 13.99 27.286h-7.138zm-4.785-9.974l-2.23 4.582h4.46zM27.628 42.844l-4.907-7.42h-4.664v7.42h-6.245V17.382h12.936c5.678 0 9.408 3.933 9.408 9.001 0 3.446-2.028 6.69-5.028 7.541l6.285 8.92zm-3.245-19.46h-6.326v6.04h6.326c2.718 0 3.529-1.297 3.529-3 0-1.662-.811-3.04-3.529-3.04z" fill="#fff"/>
        <path class="cls-4" d="M174.22 40.143v-6.81h7.573c1.671 0 2.9.3 3.685.898.784.599 1.177 1.408 1.177 2.428v.106c0 1.091-.41 1.926-1.228 2.507-.82.58-1.996.871-3.531.871zm0-13.989v-6.493h6.448c1.5 0 2.626.273 3.377.818.75.547 1.126 1.33 1.126 2.35v.105c0 1.091-.402 1.9-1.203 2.428-.802.528-1.97.792-3.505.792zm-9.672 22.224h18.473c4.299 0 7.633-.897 10.004-2.692 2.371-1.795 3.557-4.293 3.557-7.496v-.105c0-2.499-.642-4.443-1.926-5.834-1.283-1.39-3.02-2.454-5.21-3.193 1.595-.704 2.91-1.716 3.946-3.036 1.034-1.32 1.552-3.052 1.552-5.2v-.105c0-1.267-.204-2.393-.613-3.378a8.204 8.204 0 0 0-1.685-2.587c-1.057-1.09-2.385-1.918-3.985-2.48-1.601-.563-3.526-.846-5.773-.846h-18.34z" fill="#d32824"/>
    </g>
</svg>
