<svg width="159.31mm" height="47.625mm" version="1.1" viewBox="0 0 159.31 47.625" xmlns="http://www.w3.org/2000/svg">
 <defs>
  <linearGradient id="a" x1="1901.8" x2="2725" y1="409" y2="409" gradientTransform="matrix(.077733 0 0 .077733 -354.7 215.31)" gradientUnits="userSpaceOnUse">
   <stop stop-color="#011641" offset="0"/>
   <stop stop-color="#234087" offset="1"/>
  </linearGradient>
 </defs>
 <g transform="matrix(.75267 0 0 .75267 266.85 -162.18)" stroke-width=".077733">
  <rect class="cls-1" x="-354.54" y="215.47" width="147.68" height="63.275" fill="#d21b09"/>
  <rect class="cls-2" x="-206.87" y="215.47" width="63.992" height="63.275" fill="url(#a)"/>
  <path class="cls-3" d="m-228.17 258.8c-7.5429 0-13.585-5.7572-13.585-13.217s6.0424-13.217 13.585-13.217c7.5429 0 13.585 5.7572 13.585 13.217s-6.0424 13.217-13.585 13.217zm0-20.434c-3.7308 0-7.1373 3.2029-7.1373 7.2168s3.4065 7.2168 7.1373 7.2168c3.6904 0 7.1374-3.203 7.1374-7.2168s-3.447-7.2168-7.1374-7.2168zm-25.02-5.5139h6.2452v25.462h-6.2452zm-18.857 25.462h-11.639v-25.462h11.639c8.3944 0 13.585 6.0005 13.585 12.73 0 6.7303-5.353 12.731-13.585 12.731zm0-19.461h-5.4341v13.46h5.4341c4.5825 0 7.3401-3.0408 7.3401-6.7303s-2.7577-6.7302-7.3401-6.7302zm-25.344 15.041h-9.6918l-2.1088 4.4193h-7.2185l14.396-27.286 13.99 27.286h-7.1373zm-4.7853-9.974-2.2304 4.5814h4.4609zm-24.736 14.393-4.9069-7.4195h-4.6636v7.4195h-6.2452v-25.462h12.936c5.6775 0 9.4081 3.9327 9.4081 9.0008 0 3.4462-2.0277 6.6897-5.0286 7.5412l6.2858 8.9199zm-3.2443-19.461h-6.3263v6.041h6.3263c2.7171 0 3.5282-1.2974 3.5282-3.0003 0-1.6623-0.81107-3.0408-3.5282-3.0408z" fill="#fff" fill-rule="evenodd"/>
 </g>
 <path class="logo" d="m145.39 9.4403h4.086v3.6632h-4.086zm-5.4954 0h4.086v3.6632h-4.086zm-0.4226 14.372a5.1491 5.1491 0 0 1 5.2171-5.3544 5.2697 5.2697 0 0 1 5.2136 5.4954 5.2178 5.2178 0 1 1-10.427-0.14086zm5.2171-9.2996a9.4186 9.4186 0 0 0-9.7264 9.4403 9.4186 9.4186 0 0 0 9.7264 9.4403 9.4186 9.4186 0 0 0 9.7264-9.4403c0-5.4954-4.2267-9.4403-9.7264-9.4403m-16.067 10.991-8.0317-10.709h-4.086v18.176h4.3675v-10.991l8.3135 10.991h3.6632v-18.176h-4.2267z" fill="#fecd07" stroke-width=".83846"/>
</svg>
