<svg width="800.013" height="239.15" viewBox="0 0 211.67 63.275" xmlns="http://www.w3.org/2000/svg">
    <defs>
        <linearGradient id="a" x1="1901.8" x2="2725" y1="409" y2="409" gradientTransform="matrix(.07773 0 0 .07773 -218.63 122.33)" gradientUnits="userSpaceOnUse">
            <stop stop-color="#670d0c" offset="0"/>
            <stop stop-color="#cb1918" offset="1"/>
        </linearGradient>
    </defs>
    <g stroke-width=".078">
        <path class="cls-1" fill="#d21b09" d="M0 0h147.68v63.275H0z"/>
        <path class="cls-2" fill="url(#a)" d="M-70.794 122.49h63.992v63.275h-63.992z" transform="translate(218.47 -122.49)"/>
        <path class="cls-3" d="M126.369 43.33c-7.543 0-13.585-5.757-13.585-13.217 0-7.46 6.042-13.217 13.585-13.217 7.543 0 13.585 5.757 13.585 13.217 0 7.46-6.042 13.217-13.585 13.217zm0-20.434c-3.73 0-7.137 3.203-7.137 7.217 0 4.014 3.406 7.217 7.137 7.217 3.69 0 7.137-3.203 7.137-7.217 0-4.014-3.447-7.217-7.137-7.217zm-25.02-5.514h6.245v25.462h-6.245zM82.492 42.844H70.853V17.382h11.639c8.394 0 13.585 6 13.585 12.73s-5.353 12.731-13.585 12.731zm0-19.46h-5.434v13.46h5.434c4.582 0 7.34-3.042 7.34-6.731 0-3.69-2.758-6.73-7.34-6.73zm-25.344 15.04h-9.692l-2.109 4.42H38.13l14.396-27.287 13.99 27.286h-7.138zm-4.785-9.974l-2.23 4.581h4.46zM27.627 42.843l-4.907-7.42h-4.664v7.42h-6.245V17.381h12.936c5.678 0 9.408 3.933 9.408 9 0 3.447-2.028 6.69-5.028 7.542l6.285 8.92zm-3.245-19.46h-6.326v6.04h6.326c2.718 0 3.529-1.297 3.529-3 0-1.663-.811-3.041-3.529-3.041zM186.17 48.19c1.773-.544 3.292-1.334 4.554-2.371a10.81 10.81 0 0 0 2.943-3.768c.698-1.475 1.049-3.161 1.049-5.059v-.105c0-1.72-.307-3.205-.921-4.453-.615-1.247-1.502-2.309-2.661-3.187-1.16-.879-2.568-1.625-4.222-2.24-1.655-.615-3.505-1.15-5.552-1.607-1.228-.28-2.244-.553-3.045-.817-.802-.263-1.433-.526-1.893-.79-.46-.264-.785-.554-.973-.87a2.123 2.123 0 0 1-.28-1.106v-.106c0-.667.297-1.229.895-1.686.596-.457 1.491-.685 2.686-.685 1.603 0 3.266.308 4.99.923 1.722.617 3.402 1.523 5.04 2.72l4.963-7.255a20.541 20.541 0 0 0-6.524-3.691c-2.405-.832-5.143-1.249-8.213-1.249-2.15 0-4.077.29-5.783.87-1.706.58-3.164 1.396-4.375 2.45a10.488 10.488 0 0 0-2.763 3.741c-.632 1.44-.947 3.022-.947 4.743v.105c0 1.897.35 3.487 1.05 4.769a9.438 9.438 0 0 0 2.865 3.214c1.21.861 2.635 1.564 4.273 2.108a64.02 64.02 0 0 0 5.321 1.502c1.229.28 2.226.553 2.994.817.767.264 1.382.536 1.842.817.46.28.776.57.947.869.17.299.256.642.256 1.028v.104c0 .809-.35 1.433-1.05 1.872-.7.439-1.714.658-3.044.658-4.163 0-8.034-1.478-11.616-4.434l-5.527 6.824a21.995 21.995 0 0 0 7.65 4.622c2.883 1.026 5.928 1.54 9.135 1.54 2.183 0 4.162-.272 5.936-.817z" fill="#fff" fill-rule="evenodd"/>
    </g>
</svg>
