<svg version="1.1" viewBox="0 0 1066.7 463.16" xmlns="http://www.w3.org/2000/svg">
 <g transform="matrix(1.4986 0 0 1.4986 .012481 0)" data-name="Layer 6">
  <path d="m443.44 99.41c-14.77 0-23.72 9.52-23.72 23.91 0 13.09 8.44 23.06 22.76 23.06s23.78-9.72 23.78-24c0-13.7-9.14-22.97-22.82-22.97zm-0.32 40.32c-9.14 0-13.87-6.58-13.87-17.05 0-10 5.11-16.62 13.55-16.62 8.69 0 13.94 6.2 13.94 17-0.01 10.21-5.74 16.67-13.62 16.67z" fill="#15294e"/>
  <path d="m499.12 135-9.4-13.54 7.86-12.91c2.75-4.47 5.37-7 7.35-7.73v-0.13h-14.06v0.13c1 1.92 0.19 3.64-1.41 6.39l-4.54 7.8-4.86-8.12c-1.47-2.49-2.11-4.16-1.73-6.07v-0.13h-14.88v0.13a16 16 0 0 1 5.75 5.56l10.1 15.09-9.91 15.26c-2.62 4-5.69 7.22-7.93 8.25v0.13h15.09v-0.11c-1-0.7-1.47-2.62 0.38-5.63l7-11.44 6.52 10.1c2.62 4 4 6.71 4 8.5l13.36-2.37v-0.16a34.51 34.51 0 0 1-8.69-9z" fill="#15294e"/>
  <path d="m528.39 99.41c-14.77 0-23.72 9.52-23.72 23.91 0 13.09 8.44 23.06 22.76 23.06s23.78-9.72 23.78-24c0.01-13.7-9.14-22.97-22.82-22.97zm-0.32 40.32c-9.14 0-13.87-6.58-13.87-17.05 0-10 5.11-16.62 13.55-16.62 8.69 0 13.94 6.2 13.94 17 0 10.21-5.75 16.67-13.62 16.67z" fill="#15294e"/>
  <path d="m587.46 100.17a65.16 65.16 0 0 1-8.76 0.51h-15.6a65.16 65.16 0 0 1-8.76-0.51l-1.09 11.7 0.13 0.06a9.59 9.59 0 0 1 8.31-4.73h4.86v27.8c0 5.43-2 8.89-3.9 10v0.13h16.56v-0.13c-2.11-1.09-3.9-4.47-3.9-10v-27.79h4.79a9.59 9.59 0 0 1 8.31 4.73l0.13-0.06z" fill="#15294e"/>
  <path d="m625.43 134.61-9.43-26.32c-1.34-3.77-0.06-6.39 1.15-7.48v-0.13h-16.9v0.13c1.21 1 2.43 3.71 1.15 7.48l-9.14 26.32c-1.73 4.92-4.47 8.82-6.2 10.36v0.13h13.42v-0.1c-0.89-0.83-1.53-3.45 0.13-7.86l0.58-1.53h16.49l0.58 1.53c1.6 4.41 1.09 7 0 7.86v0.13h14.44v-0.13c-1.79-1.5-4.54-5.46-6.27-10.39zm-23.14-5.31 2.37-6.78a59.76 59.76 0 0 0 3.58-13.34h0.26a63.4 63.4 0 0 0 3.71 13.34l2.37 6.78z" fill="#15294e"/>
  <path d="m436.66 173.89c0 10.42-5.94 15.34-16.11 15.34h-5.24v5.3c0 5 1.79 8.12 3.45 9.2v0.13h-15.66v-0.13c1.6-1.09 3.45-4.22 3.45-9.46v-25.5c0-5-1.79-8.12-3.45-9.2v-0.13h17.45c10.16 0 16.11 5.24 16.11 14.45zm-9.08 0.45c0-5.88-2.68-8.57-8.5-8.57h-3.77v17.07l3.77 0.06c5.92 0.1 8.5-3.07 8.5-8.57z" fill="#15294e"/>
  <path d="m456.6 203.86h-17.44v-0.13c1.66-1.09 3.45-4.15 3.45-9.2v-25.53c0-5.24-1.85-8.37-3.45-9.46v-0.13h15.66v0.13c-1.66 1.09-3.45 4.15-3.45 9.2v5.3h5.24c10.16 0 16.11 4.92 16.11 15.34-0.01 9.24-5.95 14.48-16.12 14.48zm-1.47-23.46-3.77 0.06v17.07h3.77c5.82 0 8.5-2.68 8.5-8.57 0.01-5.49-2.63-8.62-8.5-8.56z" fill="#15294e"/>
  <path d="m511 174.07h-5.2v-5.31c0-1.58-0.19-8.47 0.93-9.21l2.52-0.13h-15.66v0.13a8.42 8.42 0 0 1 2.88 4.83v0.18a18 18 0 0 1 0.53 4.44v25.51c0 5.05-1.79 8.12-3.45 9.21v0.13h17.45c10.16 0 16.11-5.24 16.11-14.45 0.04-10.4-5.91-15.33-16.11-15.33zm-1.47 23.46h-3.73v-17.06l3.77-0.06c5.88-0.06 8.5 3.07 8.5 8.57 0 5.87-2.69 8.55-8.5 8.55z" fill="#15294e"/>
  <path d="m572.78 203.73v0.13h-14.44v-0.13c1.09-0.83 1.6-3.45 0-7.86l-0.58-1.53h-16.49l-0.57 1.53c-1.66 4.41-1 7-0.13 7.86v0.13h-13.43v-0.13c1.72-1.53 4.47-5.43 6.2-10.35l9.14-26.38c1.28-3.77 0.06-6.45-1.15-7.48v-0.13h16.94v0.13c-1.21 1.09-2.49 3.71-1.15 7.48l9.4 26.33c1.72 4.97 4.48 8.93 6.26 10.4zm-27-22.43-2.36 6.77h12.27l-2.36-6.77a63.88 63.88 0 0 1-3.71-13.36h-0.26a60.09 60.09 0 0 1-3.62 13.36z" fill="#15294e"/>
  <path d="m614.74 193.38-9.4-26.38c-1.34-3.77-0.06-6.39 1.15-7.48v-0.13h-16.94v0.13c1.21 1 2.43 3.71 1.15 7.48l-9.14 26.34c-1.73 4.92-4.47 8.82-6.2 10.36v0.13h13.42v-0.13c-0.89-0.83-1.53-3.45 0.13-7.86 0 0 8.05-23 8.63-27.94h0.26c0.64 4.92 8.76 27.94 8.76 27.94 1.6 4.41 1.09 7 0 7.86v0.13h14.44v-0.13c-1.78-1.44-4.53-5.4-6.26-10.32z" fill="#15294e"/>
  <path d="m639 203.73v0.13h-15.37v-0.13c1.6-1.09 3.45-4.22 3.45-9.46v-25.5c0-5-1.79-8.12-3.45-9.2v-0.13h15.37v0.13c-1.47 1.09-3.13 4.22-3.13 9.46v25.31c-0.03 5.24 1.63 8.31 3.13 9.39zm26.46-1v0.13l-12.85 2.17a23.94 23.94 0 0 0-3.13-6.07l-12.91-19.17 10.8-15.28c1.6-2.3 2.17-3.9 2.11-5.11h13.29v0.13c-2.68 1.28-5.5 4.28-7.54 7.09l-9 12.21 12.15 17.77c2.13 3.23 3.92 4.9 7.05 6.17z" fill="#15294e"/>
  <path d="m711.77 203.73v0.13h-14.44v-0.13c1.09-0.83 1.6-3.45 0-7.86l-0.58-1.53h-16.49l-0.57 1.53c-1.66 4.41-1 7-0.13 7.86v0.13h-13.42v-0.13c1.72-1.53 4.47-5.43 6.2-10.35l9.14-26.38c1.28-3.77 0.06-6.45-1.15-7.48v-0.13h16.94v0.13c-1.21 1.09-2.49 3.71-1.15 7.48l9.4 26.33c1.72 4.97 4.48 8.93 6.25 10.4zm-27-22.43-2.36 6.77h12.27l-2.36-6.77a63.88 63.88 0 0 1-3.71-13.36h-0.26a60.09 60.09 0 0 1-3.61 13.36z" fill="#15294e"/>
  <path d="m339.22 160h14.78v0.13c-1.66 1.09-3.26 4.15-3.26 9.46 0 0-0.13 19.62-1.15 25.69 0 0 18.41-33.55 19.11-35.28h13.49v0.13c-1.66 1.09-3.45 4.22-3.45 9.46v25.25c0 5.24 1.79 8.37 3.45 9.46v0.13h-14.78v-0.13c1.66-1.09 3.26-4.15 3.26-9.46 0 0 0.13-19.56 1-24.67h-0.26c-1.92 4.92-15.08 28.12-15.08 28.12-2.11 3.52-2.49 4.86-2.62 6.14h-14.49v-0.13c2.37-1.6 3.45-5.69 3.45-9.14v-25.53c0-5.24-1.85-8.37-3.45-9.46z" fill="#15294e"/>
  <path d="m483.65 168.77c0-5.05 1.79-8.12 3.45-9.21v-0.13h-15.66v0.13c1.6 1.09 3.45 4.22 3.45 9.46v25.39c0 5.05-1.79 8.12-3.45 9.21v0.13h15.66v-0.13c-1.6-1.09-3.45-4.22-3.45-9.46z" fill="#15294e"/>
  <path d="m526.89 159.43v8.68h-0.13c-1.07-1.66-4.14-3.47-9.19-3.48h-21.03v-0.18a8.42 8.42 0 0 0-2.88-4.83v-0.13z" fill="#15294e"/>
  <path d="m289.82 165.08-4.25 14.82-4.18 14.61-63.33 6.88-36.27 95.9a138.56 138.56 0 0 1-121.54-38.57l-0.55-0.56c-10.32-10.89-18.64-19.85-25.44-38.85l3.82 0.14 117.76-59.35c-36.08 6.67-54.49-17.16-54.49-17.16l62.78-21.94-36.77-17.83-31.23-15.17a148.56 148.56 0 0 1-18.86-10.83c-0.62-0.43-1.21-0.83-1.72-1.21-2.67-1.89-5.23-3.9-7.73-6a99.55 99.55 0 0 1-22.11-24.18 145.88 145.88 0 0 1 11.83-11.24c4.11 6.77 19.57 22.13 20.29 22.75 7.07 6 18 4.37 22.48-3.79 0-0.05 10.15-16.21 2.37-44 4.2-1.82 8.12-2.5 12.52-3.92a60.54 60.54 0 0 1 4.74 23.84c-0.21 11-1.93 19.81-9.08 32a12.09 12.09 0 0 0 7 17.61 109.21 109.21 0 0 0 13.94 3.17 35.64 35.64 0 0 0 36-16.7l0.14-0.23c4.54-7.63 6.62-16.27 6.62-25.81 0-7.17-0.51-24.53-17.78-39.43 4.92 0.25 14 0.28 18.82 1 0 0 13.53 16.17 13.07 38.11a68.18 68.18 0 0 1-3.54 21.06 65.64 65.64 0 0 1-7.8 14.61 2.8 2.8 0 0 0 3.07 4.28c22.76-7.19 41.39-19.7 55.38-37.3a139.31 139.31 0 0 0-14.44-8.35c0.67-0.79 2.59-3 3.22-3.83 9.94 4.62 18.65 10.89 27.32 17.64-0.82 1.14-2.26 3-3.12 4.14s-1.6 2-2.43 3q-1.44 1.73-2.95 3.39a126.21 126.21 0 0 1-87.38 41.72z" fill="#6b89b5"/>
  <path d="m180.4 79.12a2.8 2.8 0 0 1-3.07-4.29 64.26 64.26 0 0 0 8.27-53.69c-0.56-1.91-1.21-3.79-1.94-5.62a63.28 63.28 0 0 0-8.06-14.52 160.46 160.46 0 0 1 70.4 25.57c-16.19 29.77-43.46 46.07-65.6 52.55z" fill="#15294e"/>
  <path d="m175.09 39.16a50.79 50.79 0 0 1-7.16 26.08l-0.14 0.23a35.63 35.63 0 0 1-36 16.7 109.57 109.57 0 0 1-13.95-3.17 12.09 12.09 0 0 1-7-17.61q0.59-1 1.14-2a63.81 63.81 0 0 0 7.64-30.39q0-2.82-0.25-5.59c-0.15-1.75-0.36-3.48-0.65-5.18a63.73 63.73 0 0 0-3.53-12.7 161.38 161.38 0 0 1 41.57-5.53 51.19 51.19 0 0 1 11.44 13.56 48 48 0 0 1 2.73 5.44 50.65 50.65 0 0 1 4.16 20.16z" fill="#15294e"/>
  <path d="m106.55 29a50.87 50.87 0 0 1-6.16 24.33l-0.08 0.15c-4.45 8.16-15.41 9.83-22.48 3.79q-1.09-0.93-2.15-1.88c-2.34-2.08-4.57-4.26-6.72-6.54-1.19-1.24-2.34-2.53-3.46-3.84-1.93-2.25-3.77-4.57-5.52-7-0.85-1.14-1.67-2.32-2.45-3.5 0.91-0.74 1.85-1.45 2.79-2.14q5.18-3.89 10.68-7.37c1.67-1 3.33-2.08 5-3.06a159.2 159.2 0 0 1 26.68-12.46 50.69 50.69 0 0 1 3.43 12.78 52.73 52.73 0 0 1 0.42 5.36c0.02 0.47 0.02 0.92 0.02 1.38z" fill="#15294e"/>
  <path d="m101.36 142.93 62.77-21.93-36.77-17.83-31.23-15.17a148.56 148.56 0 0 1-18.85-10.84c-0.62-0.43-1.21-0.83-1.72-1.21-2.67-1.89-5.23-3.9-7.73-6a129.73 129.73 0 0 1-11-10.42c-1.14-1.25-2.3-2.53-3.43-3.83a121.2 121.2 0 0 1-7.69-9.91 157.28 157.28 0 0 0-41 149.1 9.7 9.7 0 0 0 12.65 6.81c11.4-4 29-10.34 31.79-10.93a2.61 2.61 0 0 1 2.63 3.7c-3.82 7.86-11.14 13.54-18.18 20a2.93 2.93 0 0 0 1.46 5 7.75 7.75 0 0 0 3-0.13l117.76-59.35c-36.05 6.77-54.46-17.06-54.46-17.06zm-73.75 4.07a8.6 8.6 0 0 1-6.61 3.62 8.27 8.27 0 0 1-2-0.16 8.11 8.11 0 0 1-3.3-1.46 8.54 8.54 0 0 1 5-15.5 8.36 8.36 0 0 1 3.46 0.76 9.83 9.83 0 0 1 1.4 0.82 8.57 8.57 0 0 1 2.05 11.92z" fill="#15294e"/>
  <path d="m251.85 47.28c-1 1.41-2 2.78-3.1 4.13q-1.19 1.51-2.43 3-1.44 1.73-2.95 3.39a126.21 126.21 0 0 1-87.37 41.7l133.78 65.59-4.25 14.82-4.18 14.61-63.33 6.88-36.27 95.9a138.54 138.54 0 0 1-141.62-64.14 138.21 138.21 0 0 0 123.48 75.9q3.7 0 7.35-0.19 3.39-0.18 6.74-0.52a138.44 138.44 0 0 0 111.87-80.35 148.22 148.22 0 0 0-37.72-180.72z" fill="#15294e"/>
 </g>
</svg>