<svg width="600" height="192.49" viewBox="0 0 158.75 50.929" xmlns="http://www.w3.org/2000/svg">
    <g fill="#49562b">
        <path d="M7.306 0h2.219c3.212.226 6.613 1.25 8.72 3.83 2.49 3.012 2.802 7.16 2.482 10.902-1.399-4.032-4.054-7.595-7.455-10.166.086-.71-.122-1.593-.925-1.771-1.063-.358-2.067 1.018-1.396 1.92.403.69 1.287.65 1.923.34 3.25 2.537 5.605 6.174 6.66 10.154-4.012-.658-7.602-3.232-9.614-6.747-.932-1.439-1.287-3.193-2.41-4.512C6.3 2.465 4.65 1.43 2.947.6A30.669 30.669 0 0 1 7.307 0zM30.041 4.5c2.87-.073 6.117-.232 8.35-2.276-.333 3.942-2.005 7.902-5.108 10.454-2.673 2.238-6.19 3.194-9.622 3.336 1.687-3.175 4.246-5.908 7.389-7.672.658.604 1.838.447 2.151-.44.437-.97-.69-2.091-1.66-1.637-.645.221-.82.932-.832 1.54-3.321 1.802-6.106 4.515-8.133 7.69-.105-2.86.288-5.923 1.96-8.325 1.222-1.772 3.383-2.706 5.505-2.671zM1.963 21.857c2.042-2.845 5.495-4.561 8.983-4.586 5.456-.01 10.914-.008 16.369-.003 2.964.008 5.915 1.203 8 3.314 1.903 1.894 3.05 4.54 3.05 7.232.005 3.563-.002 7.128.005 10.69.033 1.431-.034 2.89-.506 4.256-1.079 3.351-3.948 5.997-7.31 6.971-1.443.457-2.968.512-4.469.485-4.97-.005-9.94 0-14.91-.003-2.716.02-5.434-.944-7.494-2.723C1.617 45.756.321 43.215 0 40.546V27.031c.216-1.85.847-3.669 1.962-5.174m9.105.43c-3.247.65-6.166 3.373-6.412 6.777-.064 2.976-.015 5.955-.025 8.93-.005 2.21 1.153 4.329 2.887 5.663 1.598 1.247 3.632 1.883 5.652 1.865 4.052.003 8.102.005 12.153 0 2.244-.007 4.502-.837 6.132-2.392 1.39-1.32 2.275-3.19 2.28-5.115.015-2.736.003-5.47.005-8.206a7.048 7.048 0 0 0-.994-3.722c-1.503-2.559-4.489-4.014-7.41-4.017-3.478-.015-6.957-.002-10.432-.007-1.282.007-2.577-.058-3.836.223m7.4 24.481c-.827.492-.762 1.849.115 2.256.867.51 2.062-.32 1.896-1.31-.07-.929-1.248-1.492-2.01-.946zM110.03 20.434c7.62-.003 15.237 0 22.854 0 .002 1.21.002 2.422 0 3.632-3.13.005-6.26 0-9.39.003-.006 8.715 0 17.43-.006 26.145-1.354.002-2.708.002-4.062 0-.005-8.715 0-17.43-.002-26.143-3.132-.008-6.263 0-9.393-.005-.002-1.21-.002-2.42 0-3.632zM133.47 20.436c1.399-.005 2.797-.003 4.196-.003 2.862 8.29 5.697 16.593 8.564 24.881 2.772-8.29 5.522-16.59 8.3-24.88h4.22v.074c-3.507 9.895-6.96 19.808-10.456 29.705-1.411.003-2.822 0-4.234 0-3.537-9.922-7.06-19.852-10.59-29.777zM43.491 21.132c1.369 0 2.735-.003 4.102.005-.008 8.663.005 17.328-.008 25.991.793.012 1.585.015 2.38.015.003 1.262 0 2.524 0 3.786h-6.464c-.022-9.932-.005-19.865-.01-29.797zM52.961 21.134c1.217-.005 2.435-.003 3.652 0-.003 1.386 0 2.772-.003 4.159-1.214.002-2.432.002-3.646 0-.003-1.386 0-2.773-.003-4.159zM85.864 28.722c2.11-.986 4.541-1.05 6.8-.638 2.288.43 4.385 1.82 5.59 3.82 1.567 2.54 1.778 5.637 1.62 8.547-5.213 0-10.425-.005-15.637.002.065 1.968.505 4.077 1.948 5.518 1.71 1.717 4.48 1.992 6.685 1.197 1.702-.61 2.808-2.24 3.16-3.965 1.2-.012 2.403-.007 3.603-.002-.35 2.037-1.252 4.032-2.832 5.406-1.744 1.59-4.13 2.273-6.45 2.323h-.966c-1.804-.17-3.627-.674-5.068-1.814-2.298-1.751-3.506-4.603-3.784-7.423-.25-2.68-.112-5.466.87-8 .822-2.119 2.377-4.005 4.461-4.971m1.34 3.09c-2 1.089-2.808 3.446-2.977 5.593 3.955 0 7.913.005 11.87-.003 0-2.06-.67-4.352-2.534-5.475-1.908-1.093-4.41-1.118-6.36-.114zM52.964 29.256c1.215-.005 2.432-.005 3.647 0 0 7.224.01 14.449-.005 21.673h-3.635c-.02-7.224-.005-14.449-.007-21.673zM59.627 29.256c1.307-.003 2.614-.005 3.92 0 2.013 5.769 4.015 11.542 6.032 17.308 1.973-5.769 3.92-11.545 5.898-17.311 1.302 0 2.606-.003 3.91.003-2.633 7.227-5.264 14.454-7.912 21.672h-3.838c-2.706-7.21-5.337-14.45-8.01-21.672z"/>
    </g>
</svg>
