<svg width="211.67mm" height="211.25mm" version="1.1" viewBox="0 0 211.67 211.25" xmlns="http://www.w3.org/2000/svg">
 <g transform="translate(40.069 -113.51)">
  <path d="m102.96 219.89a35.498 35.498 0 0 1-35.498 35.498 35.498 35.498 0 0 1-35.498-35.498 35.498 35.498 0 0 1 35.498-35.498 35.498 35.498 0 0 1 35.498 35.498z" fill="#fd0504" fill-rule="evenodd"/>
  <g fill="none" stroke="#fd0504">
   <path d="m120.53 219.34a53.575 53.575 0 0 1-53.575 53.575 53.575 53.575 0 0 1-53.575-53.575 53.575 53.575 0 0 1 53.575-53.575 53.575 53.575 0 0 1 53.575 53.575z" stroke-width="9.9963"/>
   <path d="m144.65 219.29a77.402 77.402 0 0 1-77.402 77.402 77.402 77.402 0 0 1-77.402-77.402 77.402 77.402 0 0 1 77.402-77.402 77.402 77.402 0 0 1 77.402 77.402z" stroke-width="10.04"/>
   <path d="m66.066 118.51c55.525 0 100.54 45.012 100.54 100.54" stroke-width="9.9963"/>
   <path d="m65.469 319.76c-55.525 0-100.54-45.012-100.54-100.54" stroke-width="9.9963"/>
  </g>
 </g>
</svg>
