<svg enable-background="new 0 0 242 67" version="1.1" viewBox="0 0 800 217.88" xml:space="preserve" xmlns="http://www.w3.org/2000/svg" xmlns:xlink="http://www.w3.org/1999/xlink"><g transform="scale(3.2938)"><g fill="#bed73d" stroke="#bed73d" stroke-miterlimit="10" stroke-width="1.0092"><path d="m72.993 24.076c1.419 0 2.634 0.253 3.644 0.758 1.009 0.505 1.842 1.161 2.497 1.965 0.655 0.805 1.132 1.706 1.433 2.702 0.3 0.996 0.45 2 0.45 3.009 0 0.792-0.109 1.576-0.328 2.354-0.218 0.777-0.546 1.509-0.982 2.19-0.438 0.683-0.962 1.304-1.577 1.863-0.614 0.56-1.317 1.003-2.109 1.331l5.282 12.036h-4.177l-4.79-11.341h-7.286v11.341h-3.767v-28.208zm4.257 8.434c0-1.528-0.471-2.743-1.412-3.644-0.942-0.901-2.15-1.351-3.624-1.351h-7.164v9.949h7.165c1.474 0 2.682-0.436 3.624-1.31 0.941-0.873 1.411-2.088 1.411-3.644z"/><path d="m84.865 52.285v-28.209h18.833v3.439h-15.066v8.966h12.897v3.398h-12.897v9.007h15.066v3.398h-18.833z"/><path d="m108.45 52.285v-28.209h3.767v28.209z"/><path d="m135.72 45.202v-21.126h3.767v28.209h-3.645l-9.867-14.738-4.012-6.183h-0.287v20.921h-3.767v-28.209h3.562l10.195 15.272 3.767 5.854z"/><path d="m164.5 43.114c0 1.365-0.253 2.614-0.757 3.746-0.506 1.133-1.194 2.102-2.068 2.907-0.873 0.806-1.896 1.427-3.07 1.862-1.174 0.438-2.43 0.655-3.767 0.655h-10.563v-28.208h10.604c1.337 0 2.593 0.212 3.767 0.635 1.173 0.424 2.196 1.031 3.07 1.822 0.873 0.792 1.557 1.76 2.047 2.907 0.492 1.146 0.737 2.429 0.737 3.849zm-3.849-9.158c0-1.176-0.191-2.174-0.573-2.994s-0.887-1.491-1.515-2.01c-0.628-0.52-1.345-0.89-2.149-1.108-0.806-0.219-1.617-0.329-2.437-0.329h-5.937v21.455h5.937c0.765 0 1.549-0.11 2.354-0.329s1.521-0.588 2.149-1.107 1.146-1.183 1.556-1.989c0.41-0.807 0.614-1.812 0.614-3.016v-8.573z"/><path d="m189.68 43.073c0 1.447-0.268 2.758-0.801 3.931-0.533 1.174-1.271 2.17-2.215 2.988-0.943 0.819-2.051 1.453-3.323 1.904-1.271 0.45-2.646 0.676-4.122 0.676-1.531 0-2.94-0.226-4.226-0.676-1.286-0.451-2.386-1.085-3.302-1.904-0.916-0.818-1.628-1.814-2.134-2.988-0.506-1.173-0.759-2.483-0.759-3.931v-9.744c0-1.419 0.253-2.716 0.759-3.89 0.506-1.173 1.218-2.176 2.134-3.009s2.016-1.48 3.302-1.945c1.285-0.463 2.694-0.696 4.226-0.696 1.504 0 2.898 0.232 4.185 0.696 1.285 0.465 2.393 1.112 3.322 1.945 0.93 0.833 1.654 1.836 2.174 3.009 0.52 1.174 0.78 2.471 0.78 3.89zm-3.849-9.294c0-1.146-0.178-2.129-0.531-2.948s-0.83-1.495-1.429-2.026c-0.599-0.533-1.299-0.921-2.102-1.167s-1.653-0.369-2.551-0.369-1.748 0.123-2.552 0.369c-0.803 0.246-1.496 0.634-2.081 1.167-0.585 0.532-1.055 1.208-1.408 2.026s-0.53 1.801-0.53 2.948v8.844c0 1.146 0.177 2.129 0.53 2.947 0.354 0.819 0.83 1.488 1.429 2.007s1.299 0.9 2.102 1.146 1.64 0.368 2.511 0.368c0.897 0 1.741-0.122 2.53-0.368s1.489-0.628 2.102-1.146 1.096-1.188 1.449-2.007c0.354-0.818 0.531-1.802 0.531-2.947z"/><path d="m211.99 45.202v-21.126h3.767v28.209h-3.645l-9.867-14.738-4.012-6.183h-0.287v20.921h-3.767v-28.209h3.563l10.194 15.272 3.767 5.854z"/><path d="m224.56 38.733 11.955-14.658h4.545l-9.09 11.137 10.031 17.073h-4.422l-8.147-13.961-5.158 6.141v7.82h-3.768v-28.209h3.768v14.658h0.286z"/></g><g fill="#939598"><path d="m73.484 11.845c0 0.865-0.159 1.648-0.479 2.35-0.319 0.702-0.76 1.297-1.324 1.787-0.564 0.489-1.226 0.869-1.986 1.138-0.76 0.27-1.582 0.404-2.465 0.404-0.915 0-1.757-0.135-2.526-0.404s-1.426-0.648-1.974-1.138-0.973-1.085-1.275-1.787c-0.303-0.701-0.455-1.485-0.455-2.35v-5.825c0-0.849 0.151-1.624 0.454-2.326 0.302-0.701 0.728-1.301 1.275-1.799 0.548-0.498 1.206-0.885 1.974-1.163s1.611-0.416 2.526-0.416c0.899 0 1.733 0.139 2.501 0.416 0.769 0.277 1.431 0.665 1.987 1.163s0.989 1.098 1.299 1.799c0.311 0.702 0.466 1.477 0.466 2.326v5.825zm-2.301-5.556c0-0.686-0.106-1.273-0.317-1.762-0.212-0.49-0.497-0.894-0.854-1.212-0.358-0.318-0.777-0.55-1.256-0.697-0.48-0.147-0.988-0.22-1.525-0.22s-1.045 0.073-1.525 0.22c-0.479 0.147-0.894 0.379-1.244 0.697s-0.63 0.722-0.842 1.212c-0.211 0.489-0.317 1.077-0.317 1.762v5.287c0 0.686 0.106 1.273 0.317 1.763 0.211 0.489 0.496 0.889 0.854 1.199 0.357 0.31 0.776 0.538 1.256 0.686 0.479 0.147 0.98 0.22 1.5 0.22 0.537 0 1.042-0.073 1.513-0.22s0.89-0.375 1.256-0.686c0.366-0.31 0.654-0.71 0.867-1.199 0.211-0.49 0.317-1.077 0.317-1.763z"/><path d="m85.208 11.845 2.081-4.479 3.353-6.877h2.08v16.864h-2.251v-11.48h-0.123l-1.542 3.255-2.84 5.728h-1.689l-2.692-5.263-1.836-3.72h-0.122v11.479h-2.252v-16.864h2.154l3.402 6.877 2.129 4.479h0.148z"/><path d="m103.74 0.488c0.848 0 1.574 0.151 2.178 0.453s1.102 0.694 1.493 1.175c0.392 0.481 0.677 1.02 0.856 1.616s0.27 1.195 0.27 1.799c0 0.474-0.065 0.942-0.196 1.407-0.13 0.465-0.326 0.902-0.587 1.31s-0.575 0.779-0.943 1.114c-0.367 0.334-0.787 0.6-1.26 0.795l3.158 7.196h-2.497l-2.864-6.78h-4.357v6.78h-2.252v-16.865zm2.546 5.042c0-0.914-0.282-1.64-0.845-2.178-0.563-0.539-1.285-0.808-2.167-0.808h-4.283v5.948h4.283c0.881 0 1.604-0.261 2.167-0.783s0.845-1.249 0.845-2.179z"/><path d="m124.32 11.845c0 0.865-0.159 1.648-0.479 2.35-0.318 0.702-0.76 1.297-1.324 1.787-0.563 0.489-1.226 0.869-1.986 1.138-0.761 0.27-1.582 0.404-2.465 0.404-0.916 0-1.757-0.135-2.526-0.404s-1.427-0.648-1.974-1.138c-0.548-0.49-0.973-1.085-1.276-1.787-0.302-0.701-0.453-1.485-0.453-2.35v-5.825c0-0.849 0.151-1.624 0.453-2.326 0.303-0.701 0.728-1.301 1.276-1.799 0.547-0.498 1.206-0.885 1.974-1.163s1.61-0.416 2.526-0.416c0.899 0 1.733 0.139 2.501 0.416s1.43 0.665 1.986 1.163 0.989 1.098 1.3 1.799c0.311 0.702 0.466 1.477 0.466 2.326v5.825zm-2.3-5.556c0-0.686-0.105-1.273-0.317-1.762-0.211-0.49-0.496-0.894-0.854-1.212-0.357-0.318-0.776-0.55-1.256-0.697s-0.988-0.22-1.525-0.22-1.045 0.073-1.525 0.22-0.896 0.379-1.245 0.697c-0.35 0.318-0.63 0.722-0.842 1.212-0.211 0.489-0.317 1.077-0.317 1.762v5.287c0 0.686 0.105 1.273 0.317 1.763 0.211 0.489 0.496 0.889 0.854 1.199s0.777 0.538 1.257 0.686c0.479 0.147 0.98 0.22 1.5 0.22 0.537 0 1.041-0.073 1.513-0.22s0.891-0.375 1.256-0.686c0.366-0.31 0.655-0.71 0.866-1.199 0.212-0.49 0.317-1.077 0.317-1.763v-5.287z"/><path d="m128.29 17.353v-16.865h11.259v2.056h-9.007v5.36h7.71v2.032h-7.71v5.385h9.007v2.032z"/><path d="m154.74 5.53c0 0.604-0.109 1.204-0.33 1.799-0.22 0.596-0.534 1.134-0.942 1.616-0.407 0.481-0.905 0.873-1.493 1.175-0.587 0.302-1.257 0.453-2.007 0.453h-4.748v6.78h-2.252v-16.865h7c0.815 0 1.521 0.151 2.117 0.453s1.09 0.694 1.481 1.175c0.392 0.481 0.685 1.02 0.881 1.616 0.195 0.595 0.293 1.195 0.293 1.798zm-2.226 0c0-0.914-0.282-1.64-0.845-2.178-0.563-0.539-1.285-0.808-2.166-0.808h-4.283v5.948h4.283c0.881 0 1.604-0.261 2.166-0.783s0.845-1.249 0.845-2.179z"/></g><g fill="#939598"><path d="m64.987 66.08v-3.006h-3.163v3.006h-0.9v-6.746h0.9v2.917h3.163v-2.917h0.92v6.746z"/><path d="m74.484 63.877c0 0.346-0.064 0.659-0.191 0.94-0.127 0.28-0.304 0.519-0.53 0.715-0.226 0.195-0.49 0.348-0.794 0.455s-0.633 0.161-0.986 0.161c-0.367 0-0.703-0.054-1.011-0.161s-0.57-0.26-0.79-0.455c-0.219-0.196-0.389-0.435-0.51-0.715-0.121-0.281-0.182-0.595-0.182-0.94v-2.33c0-0.339 0.061-0.649 0.182-0.931 0.121-0.279 0.292-0.52 0.51-0.72 0.219-0.199 0.482-0.354 0.79-0.465 0.308-0.11 0.644-0.166 1.011-0.166 0.359 0 0.693 0.056 1 0.166 0.307 0.111 0.572 0.266 0.794 0.465 0.223 0.2 0.396 0.44 0.52 0.72 0.125 0.281 0.187 0.592 0.187 0.931zm-0.92-2.223c0-0.273-0.042-0.509-0.127-0.705-0.085-0.195-0.199-0.357-0.342-0.484s-0.311-0.221-0.502-0.278c-0.192-0.06-0.395-0.089-0.61-0.089s-0.418 0.029-0.61 0.089c-0.192 0.058-0.358 0.151-0.498 0.278s-0.252 0.289-0.336 0.484c-0.085 0.196-0.127 0.432-0.127 0.705v2.114c0 0.275 0.042 0.51 0.127 0.705 0.084 0.196 0.198 0.356 0.342 0.48 0.143 0.124 0.31 0.215 0.502 0.274s0.392 0.088 0.601 0.088c0.215 0 0.417-0.029 0.605-0.088 0.188-0.06 0.356-0.15 0.502-0.274s0.262-0.284 0.347-0.48c0.084-0.195 0.127-0.43 0.127-0.705v-2.114z"/><path d="m80.887 59.334c0.339 0 0.63 0.061 0.872 0.182 0.241 0.12 0.44 0.277 0.598 0.47 0.156 0.192 0.27 0.408 0.342 0.646s0.108 0.479 0.108 0.72c0 0.189-0.026 0.378-0.078 0.563-0.053 0.187-0.131 0.36-0.236 0.523-0.104 0.163-0.229 0.312-0.376 0.446-0.146 0.134-0.315 0.239-0.504 0.317l1.263 2.879h-0.999l-1.146-2.713h-1.743v2.713h-0.901v-6.746zm1.018 2.017c0-0.364-0.113-0.656-0.338-0.87-0.225-0.216-0.514-0.324-0.867-0.324h-1.713v2.38h1.713c0.353 0 0.642-0.104 0.867-0.313s0.338-0.501 0.338-0.873z"/><path d="m90.815 64.21c0 0.301-0.058 0.569-0.171 0.808-0.115 0.238-0.278 0.44-0.49 0.607-0.212 0.166-0.465 0.294-0.759 0.381-0.293 0.089-0.62 0.133-0.979 0.133-0.463 0-0.899-0.065-1.307-0.195-0.408-0.131-0.801-0.343-1.18-0.637l0.509-0.646c0.3 0.209 0.618 0.372 0.954 0.49 0.336 0.117 0.681 0.176 1.033 0.176 0.457 0 0.816-0.098 1.077-0.294s0.391-0.47 0.391-0.822c0-0.222-0.05-0.402-0.151-0.544-0.102-0.14-0.232-0.253-0.392-0.338-0.16-0.084-0.336-0.149-0.528-0.195-0.193-0.045-0.381-0.088-0.563-0.127-0.268-0.052-0.525-0.119-0.773-0.201-0.248-0.081-0.467-0.194-0.656-0.338s-0.343-0.321-0.46-0.533-0.176-0.475-0.176-0.788c0-0.28 0.05-0.54 0.152-0.778 0.101-0.238 0.246-0.442 0.436-0.612 0.189-0.169 0.417-0.303 0.686-0.401 0.268-0.098 0.571-0.146 0.91-0.146 0.392 0 0.774 0.036 1.146 0.107 0.372 0.072 0.728 0.212 1.067 0.422l-0.421 0.763c-0.287-0.169-0.586-0.29-0.896-0.362-0.311-0.071-0.612-0.107-0.906-0.107-0.177 0-0.343 0.023-0.5 0.068-0.157 0.046-0.293 0.116-0.412 0.21-0.117 0.095-0.21 0.215-0.279 0.358-0.068 0.144-0.103 0.31-0.103 0.499s0.049 0.343 0.147 0.461c0.098 0.117 0.222 0.214 0.372 0.288 0.15 0.075 0.313 0.136 0.489 0.181 0.176 0.046 0.343 0.085 0.5 0.117 0.28 0.065 0.555 0.14 0.822 0.221 0.268 0.082 0.506 0.194 0.715 0.338 0.208 0.145 0.377 0.33 0.504 0.558 0.128 0.225 0.192 0.519 0.192 0.878z"/><path d="m96.689 60.166v5.914h-0.921v-5.914h-1.948v-0.832h4.807v0.832z"/><path d="m111.01 66.08-0.529-1.518h-2.683l-0.519 1.518h-0.94l2.351-6.746h0.91l2.359 6.746zm-1.89-5.513-0.489 1.566-0.539 1.606h2.105l-0.538-1.606-0.5-1.566z"/><path d="m119.4 66.08-0.529-1.518h-2.682l-0.519 1.518h-0.939l2.349-6.746h0.911l2.359 6.746zm-1.89-5.513-0.49 1.566-0.538 1.606h2.105l-0.539-1.606-0.499-1.566z"/><path d="m127.83 64.386v-5.052h0.9v6.746h-0.87l-2.36-3.524-0.96-1.479h-0.067v5.003h-0.901v-6.746h0.852l2.438 3.652 0.9 1.399h0.068z"/><path d="m142.16 63.887c0 0.326-0.061 0.625-0.181 0.896s-0.286 0.503-0.494 0.695c-0.21 0.192-0.454 0.341-0.734 0.445-0.281 0.105-0.581 0.157-0.9 0.157h-2.526v-6.746h2.535c0.32 0 0.62 0.051 0.901 0.151 0.28 0.102 0.525 0.247 0.734 0.437 0.208 0.188 0.372 0.421 0.489 0.694 0.117 0.275 0.176 0.582 0.176 0.921zm-0.92-2.19c0-0.282-0.045-0.521-0.138-0.717-0.091-0.196-0.212-0.356-0.361-0.48-0.15-0.124-0.321-0.213-0.515-0.265-0.192-0.053-0.387-0.079-0.582-0.079h-1.42v5.131h1.42c0.183 0 0.37-0.026 0.563-0.079 0.192-0.052 0.364-0.141 0.514-0.265s0.275-0.282 0.372-0.476c0.099-0.192 0.147-0.433 0.147-0.722z"/><path d="m145.82 66.08v-6.746h4.505v0.822h-3.604v2.145h3.084v0.813h-3.084v2.154h3.604v0.813h-4.505z"/><path d="m161.82 63.877 0.831-1.792 1.343-2.751h0.831v6.746h-0.9v-4.592h-0.049l-0.617 1.302-1.136 2.291h-0.675l-1.077-2.104-0.734-1.488h-0.049v4.592h-0.9v-6.746h0.861l1.36 2.751 0.852 1.792h0.059z"/><path d="m172.72 66.08-0.528-1.518h-2.683l-0.519 1.518h-0.94l2.35-6.746h0.91l2.36 6.746zm-1.89-5.513-0.489 1.566-0.539 1.606h2.105l-0.538-1.606-0.5-1.566z"/><path d="m181.11 66.08-0.529-1.518h-2.682l-0.52 1.518h-0.94l2.351-6.746h0.91l2.359 6.746zm-1.889-5.513-0.489 1.566-0.539 1.606h2.104l-0.538-1.606-0.499-1.566z"/><path d="m189.84 64.21c0 0.301-0.057 0.569-0.171 0.808s-0.277 0.44-0.49 0.607c-0.212 0.166-0.465 0.294-0.759 0.381-0.293 0.089-0.619 0.133-0.979 0.133-0.464 0-0.899-0.065-1.307-0.195-0.408-0.131-0.802-0.343-1.18-0.637l0.509-0.646c0.3 0.209 0.618 0.372 0.955 0.49 0.335 0.117 0.68 0.176 1.032 0.176 0.456 0 0.816-0.098 1.077-0.294s0.392-0.47 0.392-0.822c0-0.222-0.051-0.402-0.151-0.544-0.103-0.14-0.232-0.253-0.393-0.338-0.16-0.084-0.335-0.149-0.528-0.195-0.192-0.045-0.38-0.088-0.563-0.127-0.268-0.052-0.524-0.119-0.772-0.201-0.249-0.081-0.467-0.194-0.656-0.338s-0.343-0.321-0.461-0.533c-0.117-0.212-0.176-0.475-0.176-0.788 0-0.28 0.051-0.54 0.151-0.778 0.102-0.238 0.247-0.442 0.437-0.612 0.188-0.169 0.417-0.303 0.685-0.401 0.269-0.098 0.571-0.146 0.911-0.146 0.392 0 0.772 0.036 1.146 0.107 0.372 0.072 0.728 0.212 1.066 0.422l-0.42 0.763c-0.288-0.169-0.586-0.29-0.896-0.362-0.31-0.071-0.612-0.107-0.905-0.107-0.176 0-0.343 0.023-0.499 0.068-0.157 0.046-0.294 0.116-0.411 0.21-0.117 0.095-0.211 0.215-0.279 0.358s-0.103 0.31-0.103 0.499 0.049 0.343 0.146 0.461c0.099 0.117 0.223 0.214 0.372 0.288 0.15 0.075 0.314 0.136 0.49 0.181 0.176 0.046 0.343 0.085 0.499 0.117 0.281 0.065 0.555 0.14 0.822 0.221 0.268 0.082 0.506 0.194 0.716 0.338 0.208 0.145 0.376 0.33 0.504 0.558 0.125 0.225 0.189 0.519 0.189 0.878z"/></g><path d="m53.643 43.467c0 5.058-3.699 9.158-8.263 9.158h-37.117c-4.564 0-8.263-4.101-8.263-9.158v-34.309c0-5.057 3.699-9.158 8.263-9.158h37.117c4.563 0 8.263 4.101 8.263 9.158z" fill="#bed73d"/><path d="m29.1 12.929c0.101 0 0.204 7e-3 0.307 0.021 1.1 0.147 1.89 1.055 1.761 2.023-0.115 0.861-0.943 1.51-1.925 1.51-0.101 0-0.204-7e-3 -0.306-0.021-0.561-0.075-1.054-0.346-1.389-0.763-0.173-0.215-0.451-0.666-0.372-1.26 0.115-0.861 0.942-1.51 1.924-1.51m0-3.154c-2.534 0-4.721 1.781-5.051 4.245-0.361 2.696 1.64 5.189 4.469 5.567 0.244 0.033 0.485 0.048 0.724 0.048 2.534 0 4.722-1.781 5.051-4.245 0.36-2.696-1.64-5.189-4.469-5.567-0.243-0.032-0.485-0.048-0.724-0.048z" fill="#fff"/><defs><path id="d" d="m53.643 43.467c0 5.058-3.699 9.158-8.263 9.158h-37.117c-4.564 0-8.263-4.101-8.263-9.158v-34.309c0-5.057 3.699-9.158 8.263-9.158h37.117c4.563 0 8.263 4.101 8.263 9.158z"/></defs><clipPath id="c"><use width="100%" height="100%" overflow="visible" xlink:href="#d"/></clipPath><path d="m26.996 25.901c7.106 8.359 20.272 25.834 22.347 25.678 2.585-1.671-17.671-29.551-14.158-30.412 2.488-0.61 5.164 5.556 7.568 5.244 3.77-1.051 2.191-6.287 4.142-8.099 1.95-1.812 3.297-0.374 4.966 5e-3 0.982 0.223 2.763-0.182 4.289-1.054" clip-path="url(#c)" fill="#bed73d" stroke="#fff" stroke-width="3.1537"/><defs><path id="b" d="m53.643 43.467c0 5.058-3.699 9.158-8.263 9.158h-37.117c-4.564 0-8.263-4.101-8.263-9.158v-34.309c0-5.057 3.699-9.158 8.263-9.158h37.117c4.563 0 8.263 4.101 8.263 9.158z"/></defs><clipPath id="a"><use width="100%" height="100%" overflow="visible" xlink:href="#b"/></clipPath><path d="m-1.962 35.035c1.09-1.309 3.237-1.346 4.222-1.14 1.675 0.352 2.487 1.759 4.965-0.077 2.479-1.836 0.255-7.053 4.007-8.167 2.397-0.352 5.176 5.769 7.653 5.118 3.499-0.917-17.215-28.459-14.658-30.172 2.072-0.191 15.525 17.063 22.769 25.304" clip-path="url(#a)" fill="#bed73d" stroke="#fff" stroke-width="3.1537"/></g></svg>
