<svg xmlns="http://www.w3.org/2000/svg" height="600" width="600" viewBox="0 0 158.75 158.75">
    <path d="M153.546 67.84L90.886 5.171C87.816 2.107 83.722.397 79.368.397s-8.45 1.71-11.514 4.774L5.186 67.84C2.09 70.9.412 75 .412 79.35c0 4.36 1.678 8.45 4.774 11.52l62.668 62.7c3.064 3.06 7.16 4.74 11.514 4.74s8.448-1.68 11.518-4.74l62.66-62.7c3.07-3.07 4.78-7.16 4.78-11.52 0-4.35-1.71-8.45-4.78-11.51" fill="#fff"/>
    <path d="M153.846 67.54c3.26 3.26 4.9 7.55 4.9 11.84 0 4.25-1.64 8.54-4.9 11.8l-62.67 62.67a16.653 16.653 0 0 1-11.801 4.9c-4.29 0-8.58-1.64-11.837-4.9L4.87 91.18C1.612 87.92 0 83.63 0 79.38c0-4.29 1.612-8.58 4.87-11.84L67.538 4.871C70.795 1.613 75.085 0 79.375 0c4.257 0 8.551 1.613 11.801 4.871l62.67 62.669z" fill="#d60560"/>
    <path d="M79.368 149.16L12.83 82.63c-.903-.91-1.355-2.07-1.355-3.26s.452-2.39 1.355-3.29L79.368 9.541 74.917 46.57h38.609c2.87 0 5.61 1.32 7.38 3.58 1.78 2.26 2.58 5.19 1.75 8.03l-14.58 46.8c-1.36 4.48-4.81 7.16-9.13 7.16H74.917l4.451 37.02z" fill="#fff"/>
    <path d="M100.146 55.34s-6.23 24.06-7.19 27.8c-.97-3.74-7.131-27.8-7.131-27.8H71.021s-5.677 24.09-6.58 27.83c-1.032-3.7-7.837-27.83-7.837-27.83H41.767l15.353 48.03h13.707s6.193-25.45 7.128-29.26c1.032 3.81 7.999 29.26 7.999 29.26h13.452l14.93-48.03h-14.19z" fill="#0060ac"/>
</svg>
