<svg version="1.1" viewBox="0 0 800 313" xml:space="preserve" xmlns="http://www.w3.org/2000/svg">
<style type="text/css">
	.st0{fill-rule:evenodd;clip-rule:evenodd;fill:#006633;}
	.st1{fill-rule:evenodd;clip-rule:evenodd;fill:#8CC3B1;}
	.st2{fill-rule:evenodd;clip-rule:evenodd;fill:#70A4AC;}
	.st3{fill-rule:evenodd;clip-rule:evenodd;fill:#70A32E;}
	.st4{fill-rule:evenodd;clip-rule:evenodd;fill:#1D71B8;}
	.st5{fill:#1D71B8;}
	.st6{fill:#70A32E;}
	.st7{fill:#006633;}
	.st8{fill:#FFFFFF;}
</style>
<g transform="matrix(1.4285 0 0 1.4285 .021608 .11324)"><g clip-rule="evenodd" fill-rule="evenodd">
	<path class="st0" d="m195.6 20.6c3.7 3.7 7.3 7.7 10.6 12 38.7 51 28.7 124.2-22.3 162.9-5.8 4.4-11.8 8.1-18.1 11.3h122.8v-186.2z" fill="#063"/>
	<path class="st1" d="m64.4 58.9c-34.9 35.1-39.6 91.8-8.8 132.3 6.9 9.1 15.1 16.7 24.2 22.8 16.8 5.1 34.7 6.3 52.1 3.6-4.3-1.2-8.7-2.8-12.9-4.5-28.2-11.8-49.2-33.6-60.9-59.5-13.4-29.6-16.8-68.9 6.3-94.7zm164.7 31.9c4 39.1-11.8 79.3-45.3 104.7-5.8 4.4-11.8 8.1-18.1 11.3-16 0.4-32.3-2.4-48-9-30.7-12.9-53-37.6-63.8-66.6 1.9 4 4.3 7.9 7 11.6 22 28.9 63.5 34.6 92.4 12.6s34.6-63.5 12.6-92.4c-19-25-49.8-31-78.1-21.7 43.2-23.3 98.2-12.4 128.7 27.8 5.2 6.8 9.4 14.1 12.6 21.7z" fill="#8cc3b1"/>
	<path class="st2" d="m64.4 58.9-0.6 0.6c-25.2 28-27.9 71.1-4.2 102.2 2.5 3.3 5.2 6.3 8.1 9.1-3.7-5.5-6.9-11.2-9.6-17.2-13.4-29.6-16.8-68.9 6.3-94.7zm39.8 132.1c-23.7-13.8-41.1-35.3-50.3-59.8 1.9 4 4.3 7.9 7 11.6 22 28.9 63.5 34.6 92.4 12.6s34.6-63.5 12.6-92.4c-19-25-49.8-31-78.1-21.7l1.2-0.6c33.5-15.8 74.9-6.7 98.2 24 26.7 35.2 19.8 85.7-15.4 112.4-19.9 15.2-44.9 19.5-67.6 13.9z" fill="#70a4ac"/>
	<path class="st3" d="m64.4 58.8c-20.5 17.8-35 42.9-38.9 71.9-2.6 18.8-0.4 37.3 5.5 54.1 26.8 27 64.7 38.5 100.8 32.8-4.3-1.2-8.7-2.8-12.9-4.5-28.2-11.8-49.2-33.6-60.9-59.5-13.3-29.6-16.7-69 6.4-94.8z" fill="#70a32e"/>
	<path class="st0" d="m45.8 23.5c50.9-38.7 124-28.7 162.6 22.2 10.2 13.4 17 28.3 20.5 43.8 4.5 39.5-11.3 80.3-45.1 105.9-5.8 4.4-11.8 8.1-18.1 11.3-16 0.4-32.3-2.4-48-9-30.7-12.9-53-37.6-63.8-66.6 1.9 4 4.3 7.9 7 11.6 22 28.9 63.5 34.6 92.4 12.6s34.6-63.5 12.6-92.4c-21.3-28-57.2-32.2-88-17.8-27.2 12.7-50.1 38.3-60.2 64.2 5.8-25.8 20.4-49.8 43-67 33.7-25.6 77-29.9 113.7-15.2-39.1-22-89.4-20.2-127.4 8.7-31.3 23.7-47.1 60.4-45.8 97-5.9-40.4 9.8-82.9 44.6-109.3z" fill="#063"/>
	<path class="st4" d="m64.4 58.9c-34.9 35.1-39.6 91.8-8.8 132.3 6.9 9.1 15.1 16.7 24.2 22.8 16.8 5.1 34.7 6.3 52.1 3.6-4.3-1.2-8.7-2.8-12.9-4.5-28.2-11.8-49.2-33.6-60.9-59.5-13.4-29.6-16.8-68.9 6.3-94.7z" fill="#1d71b8"/>
	<path class="st3" d="m229.1 90.8c4 39.1-11.8 79.3-45.3 104.7-5.8 4.4-11.8 8.1-18.1 11.3-16 0.4-32.3-2.4-48-9-30.7-12.9-53-37.6-63.8-66.6 1.9 4 4.3 7.9 7 11.6 22 28.9 63.5 34.6 92.4 12.6s34.6-63.5 12.6-92.4c-19-25-49.8-31-78.1-21.7 43.2-23.3 98.2-12.4 128.7 27.8 5.2 6.8 9.4 14.1 12.6 21.7z" fill="#70a32e"/>
	<path class="st0" d="m64.4 58.9-0.6 0.6c-25.2 28-27.9 71.1-4.2 102.2 2.5 3.3 5.2 6.3 8.1 9.1-3.7-5.5-6.9-11.2-9.6-17.2-13.4-29.6-16.8-68.9 6.3-94.7z" fill="#063"/>
	<path class="st0" d="m104.2 191c-23.7-13.8-41.1-35.3-50.3-59.8 1.9 4 4.3 7.9 7 11.6 22 28.9 63.5 34.6 92.4 12.6s34.6-63.5 12.6-92.4c-19-25-49.8-31-78.1-21.7l1.2-0.6c33.5-15.8 74.9-6.7 98.2 24 26.7 35.2 19.8 85.7-15.4 112.4-19.9 15.2-44.9 19.5-67.6 13.9z" fill="#063"/>
	</g><g fill="#1d71b8">
		<path class="st5" d="m333.2 47.7c0 20.6-7.3 29-17.7 29-12.4 0-17.3-13.1-17.3-28.2 0-14.9 5.9-27.8 18-27.8 13.3 0 17 14.5 17 27zm-23.9 1c0 12.4 2.4 18.7 6.7 18.7 4.5 0 6.2-8.1 6.2-19.2 0-9.6-1.5-18.3-6.2-18.3-4.4 0.1-6.7 7-6.7 18.8z"/>
		<path class="st5" d="m340 76.1v-54.7h9.7l8.4 21.4c1.6 4.2 4.3 11.3 5.8 16h0.2c-0.3-5.8-1.1-15.3-1.1-25.3v-12.1h9.3v54.7h-9.7l-8.4-20.8c-1.8-4.6-4.3-11.5-5.5-16.5h-0.2c0.2 5.5 0.6 14 0.6 24.9v12.3h-9.1z"/>
		<path class="st5" d="m380.6 65.2c2.2 1.2 5.9 2.1 9 2.1 5 0 7.5-2.6 7.5-6.2 0-4-2.4-5.9-7.1-8.9-7.5-4.5-10.3-10.3-10.3-15.3 0-8.8 5.8-16.1 17.3-16.1 3.6 0 7 1 8.6 1.9l-1.7 9.2c-1.5-1-3.9-1.9-7-1.9-4.5 0-6.7 2.8-6.7 5.7 0 3.2 1.6 5 7.5 8.5 7.2 4.4 9.9 9.9 9.9 15.7 0 10-7.4 16.6-18.1 16.6-4.4 0-8.7-1.1-10.5-2.2z"/></g><g fill="#70a32e">
		<path class="st6" d="m306.6 141.4-9.3-54.7h11l2.7 21.8c0.7 6.2 1.2 12.5 1.9 19.2h0.2c0.7-6.7 1.9-12.7 3.1-19.2l3.9-21.8h8.6l3.7 21.6c1 6.2 1.9 12.3 2.6 19.4h0.2c0.7-7.1 1.4-13 2.1-19.3l2.7-21.7h10.4l-9.7 54.7h-11l-3.2-17.9c-0.9-5-1.7-11.3-2.4-17.9h-0.2c-1 6.6-1.9 12.7-3 18l-3.7 17.9h-10.6z"/>
		<path class="st6" d="m379.2 117.4h-12.5v14.8h14.1v9.3h-24.8v-54.8h23.8v9.3h-13.1v12.6h12.5z"/>
		<path class="st6" d="m386.8 130.6c2.2 1.2 5.9 2.1 9 2.1 5 0 7.5-2.6 7.5-6.2 0-4-2.4-5.9-7.1-8.9-7.5-4.5-10.3-10.3-10.3-15.3 0-8.8 5.8-16.1 17.3-16.1 3.6 0 7 1 8.6 1.9l-1.7 9.2c-1.5-1-3.9-1.9-7-1.9-4.5 0-6.7 2.8-6.7 5.7 0 3.2 1.6 5 7.5 8.5 7.2 4.4 9.9 9.9 9.9 15.7 0 10-7.4 16.6-18.1 16.6-4.4 0-8.7-1.1-10.5-2.2z"/>
		<path class="st6" d="m425.9 96.6h-9.7v-9.8h30v9.8h-9.7v44.9h-10.6z"/></g><g fill="#063">
		<path class="st7" d="m300.9 152.9c3.2-0.7 7.5-1.1 12.1-1.1 5.1 0 10.1 0.6 13.9 3.9 2.9 2.4 4.1 6.1 4.1 9.9 0 4.9-2.5 9.6-8 11.9v0.3c6.3 1.8 9.7 7.1 9.7 13.1 0 4.5-1.5 8-4.1 10.7-3.2 3.6-8.8 5.5-17.9 5.5-4.1 0-7.5-0.2-9.9-0.6v-53.6zm10.6 21.7h2.3c3.8 0 6.7-3.2 6.7-7.7 0-4-1.9-7.1-6.2-7.1-1.1 0-2.1 0.1-2.8 0.3zm0 24.3c0.6 0.2 1.4 0.2 2.4 0.2 4.3 0 7.9-2.6 7.9-8.2 0-5.4-3.7-8.3-8-8.4h-2.3z"/>
		<path class="st7" d="m340.1 152.9c3.3-0.6 7.5-1.1 11.6-1.1 5.8 0 11 0.8 14.6 4.1 3.3 3 4.3 6.7 4.3 11.4 0 5.8-2.8 11.1-8.4 13.7v0.2c3.7 1.5 5.6 5 6.7 10.8 1.1 6.1 2.5 12.8 3.5 14.9h-11.1c-0.6-1.5-1.9-7.1-2.7-13.1-1-6.8-2.7-8.8-6.2-8.8h-1.5v21.8h-10.6v-53.9zm10.6 23.9h1.9c4.6 0 7.3-3.7 7.3-8.5 0-4.6-1.9-8-6.7-8.1-0.9 0-1.9 0.1-2.5 0.3z"/>
		<path class="st7" d="m387 194.3-2.4 12.5h-10.3l11.9-54.7h12.7l10.6 54.7h-10.3l-2.4-12.5zm8.8-8.2-1.8-11.4c-0.6-3.3-1.3-8.8-1.8-12.4h-0.2c-0.6 3.7-1.4 9.3-1.9 12.5l-2 11.4h7.7z"/>
		<path class="st7" d="m415.4 152.9c3.2-0.7 7.5-1.1 12.1-1.1 5.1 0 10.1 0.6 13.9 3.9 2.9 2.4 4.1 6.1 4.1 9.9 0 4.9-2.5 9.6-8 11.9v0.3c6.3 1.8 9.7 7.1 9.7 13.1 0 4.5-1.5 8-4.1 10.7-3.2 3.6-8.8 5.5-17.9 5.5-4.1 0-7.5-0.2-9.9-0.6v-53.6zm10.7 21.7h2.3c3.8 0 6.7-3.2 6.7-7.7 0-4-1.9-7.1-6.2-7.1-1.1 0-2.1 0.1-2.8 0.3zm0 24.3c0.6 0.2 1.4 0.2 2.4 0.2 4.3 0 7.9-2.6 7.9-8.2 0-5.4-3.7-8.3-8-8.4h-2.3z"/>
		<path class="st7" d="m463.3 194.3-2.4 12.5h-10.3l11.9-54.7h12.7l10.6 54.7h-10.3l-2.4-12.5zm8.9-8.2-1.8-11.4c-0.6-3.3-1.3-8.8-1.8-12.4h-0.2c-0.6 3.7-1.4 9.3-1.9 12.5l-2 11.4h7.7z"/>
		<path class="st7" d="m491.8 206.8v-54.7h9.7l8.4 21.4c1.6 4.2 4.3 11.3 5.8 16h0.2c-0.3-5.8-1.1-15.3-1.1-25.3v-12.1h9.3v54.7h-9.7l-8.4-20.8c-1.8-4.6-4.3-11.5-5.5-16.5h-0.2c0.2 5.5 0.6 14 0.6 24.9v12.3h-9.1z"/>
		<path class="st7" d="m539.6 162h-9.6v-9.8h30v9.8h-9.7v44.9h-10.6v-44.9z"/>
	</g>
	<g fill="#fff">
		<path class="st8" d="m259.8 171.3c13.5 0 18.7 4.6 18.7 10.4 0 6-6.3 10-18.4 10-11.9 0-18.3-4.3-18.3-10.6-0.1-6.1 6.5-9.8 18-9.8zm0.3 16.1c7.4 0 14.8-1.4 14.8-6s-7.8-5.9-14.9-5.9c-6.7 0-14.7 1.2-14.7 5.9 0 4.6 7.5 6 14.8 6z"/>
		<path class="st8" d="m262.6 141.6c-4.7 0.3-10 0.5-14.1 0.4v0.2c4 0.8 8.3 1.8 12.5 2.9l16.8 4.4v2.6l-16.1 4.2c-4.6 1.2-9 2.2-13.2 2.9v0.2c4.2 0 9.2 0.2 14.3 0.4l15.2 0.7v3.7l-35.9-2.1v-4.4l16.4-4.2c4.7-1.2 8.3-2.1 12.4-2.9v-0.2c-4.1-0.7-7.5-1.5-12.4-2.7l-16.4-4v-4.6l35.9-2.1v3.8z"/>
		<path class="st8" d="m242.6 128.3c-0.5-1.8-0.7-3.9-0.7-5.9 0-3.6 0.7-6.2 2.6-8.1 1.8-1.8 4.2-2.5 7-2.5 4.6 0 7.6 2.1 9.2 5.8h0.1c0.8-2.7 3.4-4 8-4.8 5-0.8 8-1.5 9.1-2v4.2c-1.1 0.5-4.5 1.2-8.9 1.9-4.9 0.8-6.8 2.3-6.8 5.9v1.6h15.8v4.1h-35.4zm16.6-4.1v-1.7c0-3.9-2.9-6.6-7.2-6.6-4.2 0-6.7 1.7-6.8 6.1 0 0.8 0.1 1.6 0.2 2.1h13.8z"/>
		<path class="st8" d="m259.8 84.5c13.5 0 18.7 4.6 18.7 10.4 0 6-6.3 10-18.4 10-11.9 0-18.3-4.3-18.3-10.6-0.1-6.1 6.5-9.8 18-9.8zm0.3 16.1c7.4 0 14.8-1.4 14.8-6s-7.8-5.9-14.9-5.9c-6.7 0-14.7 1.2-14.7 5.9 0 4.6 7.5 6 14.8 6z" Googl="true"/>
		<path class="st8" d="m261 63.4v9h13.5v-10.2h3.6v14.3h-35.9v-13.6h3.6v9.6h11.8v-9h3.4z"/>
		<path class="st8" d="m242.6 54.6c-0.4-1.7-0.7-3.6-0.7-6 0-3.3 0.8-6.1 2.7-7.9 1.7-1.8 4.3-2.7 7.4-2.7 3.3 0 5.5 0.8 7.4 2.2 2.7 2 4 5.3 4 8.5 0 0.7 0 1.2-0.1 1.8h14.7v4.1zm17.3-4.1c0.1-0.5 0.2-0.9 0.2-1.6 0-4-2.7-6.8-7.7-6.8-3.7 0-7 1.5-7 6.1 0 1 0.1 1.8 0.3 2.3z"/>
	</g>
</g>
</svg>
