<svg width="600" height="124.93" viewBox="0 0 158.75 33.055" xmlns="http://www.w3.org/2000/svg">
    <g fill="#fff">
        <path d="M14.061 13.39c-1.94 0-3.88 1.563-3.88 5.334 0 4.149 1.024 5.819 3.664 5.819 2.532 0 3.88-2.21 3.88-5.55 0-3.825-.97-5.603-3.664-5.603m-.755 19.666C5.28 33.056 0 29.446 0 19.802 0 10.697 6.41 4.986 14.653 4.986c8.782 0 13.254 4.902 13.254 13.415 0 8.944-6.52 14.655-14.6 14.655M45.308 32.41V15.492c0-1.347-.378-2.209-1.509-2.209-2.155 0-4.202 3.125-4.202 6.088V32.41h-9.806V5.633h9.052c0 .7-.054 2.37-.27 3.556h.054c1.67-2.37 4.472-4.202 8.567-4.202 5.926 0 7.92 3.879 7.92 8.458V32.41zM70.308 12.04c-1.886 0-3.179 1.509-3.286 3.718h6.034c.108-2.587-1.023-3.718-2.748-3.718m11.96 10.075H67.078c.162 1.886 1.94 3.394 5.764 3.394a19.58 19.58 0 0 0 7.921-1.67l.862 7.328c-3.232 1.293-7.058 1.885-10.344 1.885-8.998 0-14.117-4.202-14.117-13.685 0-8.297 4.687-14.439 13.362-14.439 8.298 0 12.069 5.55 12.069 12.984 0 1.347-.107 2.748-.324 4.203"/>
        <path d="M96.948 1.63a9.494 9.494 0 1 0 0 18.988 9.494 9.494 0 0 0 0-18.988m4.468 13.999V4.491l-11.2 4.02v2.767l3.709-1.34v8.371zM96.945-.002c6.145 0 11.126 4.981 11.126 11.126S103.09 22.25 96.945 22.25c-6.144 0-11.126-4.981-11.126-11.126S90.8-.002 96.945-.002" fill-rule="evenodd"/>
        <path d="M130.088 32.94V20.874h-13.92V32.94h-2.922V7.327h2.922v11.128h13.923V7.327h2.897v25.614zM145.268 9.57c-1.432 0-3.144.082-4.165.115V30.41c1.021.148 2.568.264 3.671.264 6.453 0 10.93-3.293 10.93-10.585 0-6.947-3.49-10.52-10.436-10.52m-.872 23.49c-2.585 0-4.428-.115-6.223-.115V7.331c1.976 0 4.741-.115 7.408-.115 8.313 0 13.169 3.95 13.169 12.692 0 8.79-5.975 13.153-14.354 13.153" stroke-width="1.646"/>
    </g>
</svg>
