<svg xmlns="http://www.w3.org/2000/svg" width="600" height="152.076">
    <defs>
        <clipPath id="a">
            <path d="M232.876 137.569h23.158v5.87h-23.158v-5.87z"/>
        </clipPath>
    </defs>
    <g clip-path="url(#a)" transform="matrix(25.90909 0 0 -25.90909 -6033.607 3716.363)">
        <path d="M256.034 140.504c0-1.614-1.345-2.935-2.99-2.935h-17.178c-1.644 0-2.99 1.32-2.99 2.935 0 1.614 1.346 2.935 2.99 2.935h17.178c1.645 0 2.99-1.321 2.99-2.935" fill="#151118"/>
        <path d="M241.301 139.423h-.054l-1.423 2.835a.423.423 0 0 1-.397.241h-.76a.434.434 0 0 1-.313-.129.434.434 0 0 1-.128-.313v-3.518h.884v3.075h.047l1.42-2.828a.42.42 0 0 1 .397-.247h.77c.12 0 .23.044.313.129a.433.433 0 0 1 .128.313v3.518h-.884v-3.076zM246.13 142.499h-3.518v-.884h3.076v-.053l-2.837-1.415a.424.424 0 0 1-.239-.397v-.77c0-.12.045-.228.129-.312a.434.434 0 0 1 .313-.13h3.518v.886h-3.076v.056l2.831 1.42a.413.413 0 0 1 .245.39v.768c0 .12-.044.229-.129.313a.433.433 0 0 1-.313.128M247.097 142.37a.439.439 0 0 1-.128-.314v-3.075a.439.439 0 0 1 .442-.442h3.26v.884h-2.818v.653h2.817v.885h-2.817v.653h2.817v.884h-3.259a.437.437 0 0 1-.314-.128M253.079 139.288c-.67 0-1.216.546-1.216 1.216 0 .67.546 1.216 1.216 1.216.67 0 1.216-.546 1.216-1.216 0-.67-.546-1.216-1.216-1.216m0 3.269a2.055 2.055 0 0 1-2.053-2.053c0-1.132.921-2.053 2.053-2.053 1.133 0 2.053.92 2.053 2.053 0 1.132-.92 2.053-2.053 2.053M235.813 139.303c-.67 0-1.216.545-1.216 1.216 0 .67.546 1.216 1.216 1.216a1.217 1.217 0 0 0 0-2.432m0 3.269a2.055 2.055 0 0 1-2.053-2.053c0-1.132.92-2.053 2.053-2.053 1.132 0 2.053.921 2.053 2.053a2.055 2.055 0 0 1-2.053 2.053" fill="#fff"/>
        <path d="M236.316 140.519a.503.503 0 1 0-1.007 0 .503.503 0 0 0 1.007 0" fill="#a6ce1d"/>
    </g>
</svg>
