<svg xmlns="http://www.w3.org/2000/svg" width="245.58" height="73"><path fill="#7d50e1" d="m143.63 0 .036 7.663.036 7.662.337 1.017c1.026 3.095 3.368 5.329 6.474 6.173.814.221 1.579.236 12.478.243l11.611.007V12.59h-18.701V0h-6.136zM79.301 11.764l-.95.333c-1.383.485-2.487 1.167-3.52 2.175-1.286 1.254-2.015 2.498-2.63 4.487-.173.558-.202 2.093-.237 12.559l-.04 11.923h12.269V21.875H95.07c11.41 0 12.457.04 15.076.576 3.904.8 6.888 2.325 9.162 4.685 2.383 2.472 3.522 5.336 3.522 8.856 0 3.567-1.273 6.684-3.703 9.068-2.475 2.428-5.47 3.838-9.98 4.7-1.303.249-1.966.263-15.48.34-15.896.09-14.584.004-16.781 1.111-.977.493-1.357.778-2.24 1.685-.883.907-1.161 1.297-1.64 2.3-1.035 2.165-.996 1.79-1.045 10.096-.023 4.05-.013 7.44.022 7.535.053.142 1.134.173 6.136.173h6.07l.065-12.654 11.951-.073c12.614-.077 12.436-.07 15.722-.695 11.043-2.105 19.737-8.734 22.482-17.141.73-2.238.86-3.207.861-6.446.001-2.832-.018-3.069-.348-4.515-1.26-5.525-4.549-10.113-9.865-13.765-3.693-2.536-8.595-4.485-13.495-5.364-3.238-.58-3.328-.584-18.144-.584zm-51.452.064c-.269 0-1.147.087-1.95.193-9.924 1.311-18.23 5.995-22.665 12.78C.768 28.575-.316 33.033.075 37.804c.423 5.173 2.414 9.324 6.365 13.272 5.015 5.01 12.442 8.231 20.914 9.069 1.806.179 6.635.15 8.673-.05 12.95-1.275 22.995-7.88 26.406-17.363 1.806-5.02 1.463-10.78-.936-15.706-3.447-7.08-11.195-12.432-20.899-14.437-1.721-.356-4.505-.761-5.228-.761h-.345v10.139l.96.087c1.377.125 3.782.643 5.122 1.104 6.85 2.357 10.587 7.7 9.926 14.193-.673 6.606-5.741 11.143-13.902 12.444-1.769.282-6.816.393-8.881.194-5.247-.503-9.36-2.209-12.122-5.027-2.895-2.952-4.124-6.884-3.46-11.069.794-5.01 4.144-8.69 9.718-10.676 1.35-.48 3.685-1.01 5.116-1.158l.836-.087V11.827zm115.78 17.805.034 11.605.035 11.605.337 1.017c1.047 3.159 3.614 5.54 6.722 6.236.584.13 3.507.169 13.654.177l12.911.01V50.109h-21.425V29.633h-6.134zM207.9 12.021c.804-.106 1.682-.193 1.951-.193h.489v10.145l-.836.087c-1.431.148-3.767.677-5.116 1.158-5.575 1.985-8.924 5.665-9.718 10.676-.664 4.185.565 8.116 3.46 11.069 2.762 2.818 6.875 4.523 12.122 5.027 2.065.198 7.112.088 8.881-.194 8.161-1.302 13.229-5.84 13.902-12.444.661-6.494-3.075-11.836-9.926-14.193-1.34-.461-3.745-.98-5.122-1.104l-.96-.087v-10.14h.345c.723 0 3.507.406 5.229.762 9.704 2.005 17.451 7.356 20.899 14.437 2.398 4.925 2.741 10.687.935 15.706-3.411 9.482-13.457 16.088-26.406 17.363-2.038.2-6.867.228-8.673.05-8.472-.838-15.899-4.06-20.914-9.07-3.951-3.947-5.942-8.098-6.365-13.272-.391-4.77.693-9.228 3.159-13.003 4.434-6.784 12.74-11.468 22.664-12.78z"/></svg>