<svg enable-background="new 0 0 100 30" version="1.1" viewBox="0 0 800 235.8" xml:space="preserve" xmlns="http://www.w3.org/2000/svg">
<g transform="matrix(7.8601 0 0 7.8601 .2358 0)">
	<rect x="69.71" width="32.04" height="30" opacity=".2"/>
	<polygon points="95.16 0 75.25 0 75.25 9.95 85.21 9.95 85.21 29.86 95.16 29.86" fill="#fff"/>
	
		<path d="m-0.03 0h69.75v29.86h-69.75z" fill="#d32824"/>
		<path d="m14.39 6.29c-4.93 0-8.88 3.76-8.88 8.64 0 4.87 3.95 8.64 8.88 8.64s8.88-3.76 8.88-8.64c0-4.87-3.95-8.64-8.88-8.64zm0 13.36c-2.44 0-4.67-2.09-4.67-4.72 0-2.62 2.23-4.72 4.67-4.72 2.41 0 4.67 2.09 4.67 4.72 0 2.62-2.26 4.72-4.67 4.72zm29.37-7.16c0-3.31-2.44-5.88-6.15-5.88h-8.46v16.64h4.08v-4.85h3.05l3.21 4.85h5.09l-4.11-5.83c1.94-0.85 3.29-2.67 3.29-4.93zm-6.39 1.99h-4.14v-3.95h4.14c1.78 0 2.31 0.87 2.31 1.96 0 1.12-0.53 1.99-2.31 1.99zm26.8-3.95v-3.92h-13.54v16.63h4.08v-5.6h7.71v-3.92h-7.71v-3.19z" fill="#fff" Googl="true"/>
	
</g>
</svg>
