<svg viewBox="0 0 779.79 179.77" xmlns="http://www.w3.org/2000/svg">
    <defs>
        <linearGradient id="a" x1="626.52" x2="451.71" y1="20.041" y2="20.041" gradientTransform="translate(-359.66 -231.88) scale(.88085)" gradientUnits="userSpaceOnUse">
            <stop stop-color="#FFF" offset="0"/>
            <stop offset="1"/>
        </linearGradient>
    </defs>
    <path d="M420.24 0h179.77v179.77H420.24z" fill="#fff"/>
    <path d="M0 0h419.89v179.77H0z" fill="#ec1b24"/>
    <g fill="#fff">
        <path d="M140.31 89.89c0-29.353-23.788-52.007-53.476-52.007-29.695 0-53.483 22.654-53.483 52.007 0 29.345 23.788 51.99 53.483 51.99 29.687 0 53.476-22.645 53.476-51.99m-25.382 0c0 15.787-13.567 28.386-28.094 28.386-14.693 0-28.102-12.6-28.102-28.386 0-15.795 13.409-28.393 28.102-28.393 14.527 0 28.094 12.598 28.094 28.393M175.71 139.97h24.59v-29.187h18.356l19.316 29.187h30.647l-24.74-35.086c11.647-5.106 19.792-16.112 19.792-29.671 0-19.942-14.686-35.411-37.039-35.411H175.71v100.17zm49.487-52.791h-24.898V63.407h24.898c10.697 0 13.892 5.265 13.892 11.806 0 6.7-3.196 11.965-13.892 11.965M305.018 139.91h24.563v-33.725h46.425V82.596h-46.424V63.388h56.956V39.801h-81.522v100.11zM547.1 69.36c0-18.123-14.852-33.634-38.38-33.634-17.774 0-31.541 6.85-42.47 24.656l21.859 10.446c4.757-8.486 11.433-12.733 19.609-12.733 8.177 0 14.267 5.39 14.267 10.938 0 3.755-1.67 7.352-6.758 11.264l-46.642 36.913v23.021h78.181v-23.353h-41.469l24.364-18.448c10.43-7.835 17.438-17.473 17.438-29.071"/>
    </g>
    <path d="M135.03-304.11h63.2v179.77h-63.203v-179.77z" fill="url(#a)" transform="translate(284.88 304.11)"/>
    <path d="M0 0h419.89v179.77H0z" fill="#e2001a"/>
    <g fill="#fff">
        <path d="M140.31 89.89c0-29.353-23.788-52.007-53.476-52.007-29.695 0-53.483 22.654-53.483 52.007 0 29.345 23.788 51.99 53.483 51.99 29.687 0 53.476-22.645 53.476-51.99m-25.382 0c0 15.787-13.567 28.386-28.094 28.386-14.693 0-28.102-12.6-28.102-28.386 0-15.795 13.409-28.393 28.102-28.393 14.527 0 28.094 12.598 28.094 28.393M175.71 139.97h24.59v-29.187h18.356l19.316 29.187h30.647l-24.74-35.086c11.647-5.106 19.792-16.112 19.792-29.671 0-19.942-14.686-35.411-37.039-35.411H175.71v100.17zm49.487-52.791h-24.898V63.407h24.898c10.697 0 13.892 5.265 13.892 11.806 0 6.7-3.196 11.965-13.892 11.965M305.018 139.91h24.563v-33.725h46.425V82.596h-46.424V63.388h56.956V39.801h-81.522v100.11z"/>
    </g>
    <path d="M547.1 69.36c0-18.123-14.852-33.634-38.38-33.634-17.774 0-31.541 6.85-42.47 24.656l21.859 10.446c4.757-8.486 11.433-12.733 19.609-12.733 8.177 0 14.267 5.39 14.267 10.938 0 3.755-1.67 7.352-6.758 11.264l-46.642 36.913v23.021h78.181v-23.353h-41.469l24.364-18.448c10.43-7.835 17.438-17.473 17.438-29.071" fill="#e2001a"/>
    <path d="M600.01 179.77h179.78V0H600.01z" fill="#eda901"/>
    <path d="M738.23 109.32c0-10.53-5.265-18.499-12.746-23.139 4.761-4.462 7.48-10.83 7.48-17.848 0-18.83-14.819-28.541-30.279-28.541h-54.704v100.14h58.027c17.701 0 32.221-11.953 32.221-30.615m-29.664-39.234c0 3.99-1.92 7.339-7.821 7.339h-28.221v-14.82h28.22c5.901 0 7.822 3.644 7.822 7.481m5.119 38.436c0 4.782-3.056 8.457-9.586 8.457h-31.575V99.905h31.575c6.237 0 9.586 4.142 9.586 8.614" fill="#f50020" fill-rule="evenodd"/>
</svg>
