<svg viewBox="0 0 1030 180" xmlns="http://www.w3.org/2000/svg">
    <defs>
        <linearGradient id="a" x1="626.52" x2="451.71" y1="20.041" y2="20.041" gradientTransform="translate(-174.24 -239.35) scale(.64465)" gradientUnits="userSpaceOnUse">
            <stop stop-color="#FFF" offset="0"/>
            <stop offset="1"/>
        </linearGradient>
    </defs>
    <path d="M419.69.48h430.299v179.527h-430.3z" fill="#fff" stroke-width="1.548"/>
    <path d="M.007.48h419.328v179.527H.007z" fill="#ec1b24"/>
    <g fill="#fff">
        <path d="M140.13 90.244c0-29.315-23.756-51.94-53.404-51.94-29.657 0-53.414 22.624-53.414 51.94 0 29.306 23.757 51.921 53.414 51.921 29.648 0 53.405-22.615 53.405-51.921m-25.35 0c0 15.765-13.548 28.35-28.057 28.35-14.673 0-28.064-12.584-28.064-28.35 0-15.775 13.392-28.357 28.064-28.357 14.509 0 28.058 12.582 28.058 28.357M175.488 140.256h24.557v-29.149h18.332l19.292 29.15h30.606l-24.707-35.041c11.632-5.1 19.766-16.09 19.766-29.63 0-19.916-14.667-35.366-36.99-35.366h-50.856zm49.423-52.714h-24.866v-23.74h24.866c10.683 0 13.874 5.258 13.874 11.79 0 6.692-3.192 11.95-13.874 11.95M304.626 140.202h24.532V106.52h46.363V82.962h-46.363V63.78h56.88V40.223h-81.412V140.2zM546.392 69.747c0-18.098-14.831-33.59-38.33-33.59-17.75 0-31.499 6.842-42.414 24.624l21.83 10.432c4.75-8.475 11.418-12.716 19.584-12.716S521.31 63.88 521.31 69.42c0 3.75-1.667 7.342-6.75 11.25l-46.58 36.864v22.99h78.078v-23.322h-41.414l24.332-18.423c10.416-7.825 17.415-17.45 17.415-29.032"/>
    </g>
    <path d="M187.8-292.21h46.253v131.56H187.8z" fill="url(#a)" transform="translate(163.09 399.23) scale(1.3646)"/>
    <path d="M.007.48h419.328v179.527H.007z" fill="#e2001a"/>
    <g fill="#fff">
        <path d="M140.13 90.244c0-29.315-23.756-51.94-53.404-51.94-29.657 0-53.414 22.624-53.414 51.94 0 29.306 23.757 51.921 53.414 51.921 29.648 0 53.405-22.615 53.405-51.921m-25.35 0c0 15.765-13.548 28.35-28.057 28.35-14.673 0-28.064-12.584-28.064-28.35 0-15.775 13.392-28.357 28.064-28.357 14.509 0 28.058 12.582 28.058 28.357M175.488 140.256h24.557v-29.149h18.332l19.292 29.15h30.606l-24.707-35.041c11.632-5.1 19.766-16.09 19.766-29.63 0-19.916-14.667-35.366-36.99-35.366h-50.856zm49.423-52.714h-24.866v-23.74h24.866c10.683 0 13.874 5.258 13.874 11.79 0 6.692-3.192 11.95-13.874 11.95M304.626 140.202h24.532V106.52h46.363V82.962h-46.363V63.78h56.88V40.223h-81.412V140.2z"/>
    </g>
    <g fill="#e2001a">
        <path d="M546.392 69.747c0-18.098-14.831-33.59-38.33-33.59-17.75 0-31.499 6.842-42.414 24.624l21.83 10.432c4.75-8.475 11.418-12.716 19.584-12.716S521.31 63.88 521.31 69.42c0 3.75-1.667 7.342-6.75 11.25l-46.58 36.864v22.99h78.078v-23.322h-41.414l24.332-18.423c10.416-7.825 17.415-17.45 17.415-29.032M695.12 140.87V39.606h-24.834v37.573h-41.278V39.606h-24.833V140.87h24.833v-39.827h41.278v39.827zm123.65-50.632c0-26.768-20.643-50.632-54.02-50.632h-46.28V140.87h46.28c32.733 0 54.02-23.864 54.02-50.632m-24.834 0c0 14.672-10.966 26.768-29.184 26.768h-21.609V63.47h21.609c18.218 0 29.184 12.096 29.184 26.768M789.018 10.524v24.131c3.679 1.366 7.074 3.064 10.281 4.984V.242H618.544v29.521h10.282V10.524M618.539 179.543h180.768v-39.315c-3.215 1.945-6.614 3.678-10.282 5.068v23.965H628.808v-18.87h-10.283"/>
    </g>
    <path d="M850 180h180.01V0H850z" fill="#f50020"/>
    <path d="M986.72 39.823h-26.668l-19.968 48.868-20.11-48.868H893.29l46.794 106.19 46.636-106.19" fill="#fff"/>
</svg>
