<svg version="1.1" viewBox="0 0 780.04 180" xmlns="http://www.w3.org/2000/svg">
 <defs>
  <linearGradient id="a" x1="626.52" x2="451.71" y1="20.041" y2="20.041" gradientTransform="matrix(.88085 0 0 .88085 -359.66 -231.88)" gradientUnits="userSpaceOnUse">
   <stop stop-color="#FFF" offset="0"/>
   <stop offset="1"/>
  </linearGradient>
 </defs>
 <g transform="translate(284.88,304.34)">
  <path d="m135.36-304.11h179.77v179.77h-179.77z" fill="#fff"/>
  <path d="m-284.88-304.11h419.89v179.77h-419.89z" fill="#ec1b24"/>
  <g fill="#fff">
   <path d="m-144.57-214.22c0-29.353-23.788-52.007-53.476-52.007-29.695 0-53.483 22.654-53.483 52.007 0 29.345 23.788 51.99 53.483 51.99 29.687 0 53.476-22.645 53.476-51.99m-25.382 0c0 15.787-13.567 28.386-28.094 28.386-14.693 0-28.102-12.6-28.102-28.386 0-15.795 13.409-28.393 28.102-28.393 14.527-8.8e-4 28.094 12.598 28.094 28.393"/>
   <path d="m-109.17-164.14h24.59v-29.187h18.356l19.316 29.187h30.647l-24.74-35.086c11.647-5.1063 19.792-16.112 19.792-29.671 0-19.942-14.686-35.411-37.039-35.411h-50.922v100.17zm49.487-52.791h-24.898v-23.772h24.898c10.697 0 13.892 5.2648 13.892 11.806 0 6.7006-3.1957 11.965-13.892 11.965"/>
   <path d="m20.138-164.2h24.563v-33.725h46.425v-23.589h-46.424v-19.208h56.956v-23.587h-81.522v100.11z"/>
   <path d="m262.22-234.75c0-18.123-14.852-33.634-38.38-33.634-17.774 0-31.541 6.8504-42.47 24.656l21.859 10.446c4.7566-8.4861 11.433-12.733 19.609-12.733 8.1769 0 14.267 5.3899 14.267 10.938 0 3.7551-1.6692 7.3516-6.7579 11.264l-46.642 36.913v23.021h78.181v-23.353h-41.469l24.364-18.448c10.429-7.8352 17.438-17.473 17.438-29.071"/>
  </g>
  <path d="m135.03-304.11h63.2v179.77h-63.203v-179.77z" fill="url(#a)"/>
  <path d="m-284.88-304.11h419.89v179.77h-419.89z" fill="#e2001a"/>
  <g fill="#fff">
   <path d="m-144.57-214.22c0-29.353-23.788-52.007-53.476-52.007-29.695 0-53.483 22.654-53.483 52.007 0 29.345 23.788 51.99 53.483 51.99 29.687 0 53.476-22.645 53.476-51.99m-25.382 0c0 15.787-13.567 28.386-28.094 28.386-14.693 0-28.102-12.6-28.102-28.386 0-15.795 13.409-28.393 28.102-28.393 14.527-8.8e-4 28.094 12.598 28.094 28.393"/>
   <path d="m-109.17-164.14h24.59v-29.187h18.356l19.316 29.187h30.647l-24.74-35.086c11.647-5.1063 19.792-16.112 19.792-29.671 0-19.942-14.686-35.411-37.039-35.411h-50.922v100.17zm49.487-52.791h-24.898v-23.772h24.898c10.697 0 13.892 5.2648 13.892 11.806 0 6.7006-3.1957 11.965-13.892 11.965"/>
   <path d="m20.138-164.2h24.563v-33.725h46.425v-23.589h-46.424v-19.208h56.956v-23.587h-81.522v100.11z"/>
  </g>
  <path d="m262.22-234.75c0-18.123-14.852-33.634-38.38-33.634-17.774 0-31.541 6.8504-42.47 24.656l21.859 10.446c4.7566-8.4861 11.433-12.733 19.609-12.733 8.1769 0 14.267 5.3899 14.267 10.938 0 3.7551-1.6692 7.3516-6.7579 11.264l-46.642 36.913v23.021h78.181v-23.353h-41.469l24.364-18.448c10.429-7.8352 17.438-17.473 17.438-29.071" fill="#e2001a"/>
 </g>
 <path class="background" d="m600.04 0h180v180h-180z" fill="#b62025" stroke-width="3.1474"/>
 <path class="logo" d="m698.04 78.817c-17.04-4.2616-19.171-6.3892-19.171-10.651v-0.53191c0-3.7265 4.2616-6.3892 10.651-6.3892 6.9243 0 14.912 3.1946 23.964 9.0519l1.5989 1.0638 12.772-18.636-1.5989-1.0638a57.163 57.163 0 0 0-36.746-12.785c-20.773 0-35.147 12.782-35.147 30.889v0.53191c0 19.171 14.912 26.095 33.019 30.889 16.508 4.2616 17.575 6.9243 17.575 10.651v0.53191c0 4.2616-4.2616 6.9243-11.715 6.9243-9.587 0-18.107-3.7265-27.159-11.183l-1.5989-1.0638-14.916 17.572 1.5989 1.0638a62.567 62.567 0 0 0 42.071 15.976c22.365 0 37.278-12.25 37.278-31.421v-0.54451c-0.53191-17.575-13.314-26.095-32.484-30.889" fill="#fff" stroke-width="3.1474"/>
</svg>
