<?xml version="1.0" encoding="UTF-8" standalone="no"?>
<!-- Created with Inkscape (http://www.inkscape.org/) -->

<svg
   xmlns:dc="http://purl.org/dc/elements/1.1/"
   xmlns:cc="http://creativecommons.org/ns#"
   xmlns:rdf="http://www.w3.org/1999/02/22-rdf-syntax-ns#"
   xmlns:svg="http://www.w3.org/2000/svg"
   xmlns="http://www.w3.org/2000/svg"
   version="1.0"
   width="1025.4055"
   height="396.07684"
   id="svg13519">
  <metadata
     id="metadata16">
    <rdf:RDF>
      <cc:Work
         rdf:about="">
        <dc:format>image/svg+xml</dc:format>
        <dc:type
           rdf:resource="http://purl.org/dc/dcmitype/StillImage" />
        <dc:title></dc:title>
      </cc:Work>
    </rdf:RDF>
  </metadata>
  <defs
     id="defs13521" />
  <path
     d="m 0,0.00787701 708.66141,0 0,303.40220299 L 0,303.41008 0,0.00787701 z"
     id="path3603"
     style="font-size:10px;letter-spacing:0;word-spacing:0;fill:#e2001a;fill-opacity:1;fill-rule:nonzero;stroke:none" />
  <path
     d="m 236.80723,151.716 c 0,-49.54134 -40.14851,-87.774651 -90.25319,-87.774651 -50.118755,0 -90.267274,38.233311 -90.267274,87.774651 0,49.52735 40.148519,87.74655 90.267274,87.74655 50.10468,0 90.25319,-38.2192 90.25319,-87.74655 m -42.83826,0 c 0,26.64365 -22.89773,47.90791 -47.41493,47.90791 -24.79884,0 -47.429052,-21.26426 -47.429052,-47.90791 0,-26.65764 22.630212,-47.9219 47.429052,-47.9219 24.5172,0 47.41493,21.26426 47.41493,47.9219"
     id="path3593"
     style="font-size:10px;letter-spacing:0;word-spacing:0;fill:#ffffff;fill-rule:nonzero;stroke:none" />
  <path
     d="m 296.5582,236.23777 41.50042,0 0,-49.25972 30.98095,0 32.60051,49.25972 51.72406,0 -41.75384,-59.21594 c 19.65881,-8.61829 33.40307,-27.19279 33.40307,-50.0765 0,-33.6566 -24.78478,-59.765092 -62.51116,-59.765092 l -85.94401,0 0,169.057532 z m 83.52189,-89.09849 -42.02147,0 0,-40.12026 42.02147,0 c 18.05346,0 23.44696,8.88579 23.44696,19.92631 0,11.30803 -5.3935,20.19395 -23.44696,20.19395"
     id="path3595"
     style="font-size:10px;letter-spacing:0;word-spacing:0;fill:#ffffff;fill-rule:nonzero;stroke:none" />
  <path
     d="m 514.791,236.13923 41.4581,0 0,-56.92059 78.3537,0 0,-39.81054 -78.3537,0 0,-32.41732 96.12555,0 0,-39.810542 -137.58365,0 0,168.958992 z"
     id="path3597"
     style="font-size:10px;letter-spacing:0;word-spacing:0;fill:#ffffff;fill-rule:nonzero;stroke:none" />
  <path
     d="m 236.80723,151.716 c 0,-49.54134 -40.14851,-87.774651 -90.25319,-87.774651 -50.118755,0 -90.267274,38.233311 -90.267274,87.774651 0,49.52735 40.148519,87.74655 90.267274,87.74655 50.10468,0 90.25319,-38.2192 90.25319,-87.74655 m -42.83826,0 c 0,26.64365 -22.89773,47.90791 -47.41493,47.90791 -24.79884,0 -47.429052,-21.26426 -47.429052,-47.90791 0,-26.65764 22.630212,-47.9219 47.429052,-47.9219 24.5172,0 47.41493,21.26426 47.41493,47.9219"
     id="path3605"
     style="font-size:10px;letter-spacing:0;word-spacing:0;fill:#ffffff;fill-rule:nonzero;stroke:none" />
  <path
     d="m 296.5582,236.23777 41.50042,0 0,-49.25972 30.98095,0 32.60051,49.25972 51.72406,0 -41.75384,-59.21594 c 19.65881,-8.61829 33.40307,-27.19279 33.40307,-50.0765 0,-33.6566 -24.78478,-59.765092 -62.51116,-59.765092 l -85.94401,0 0,169.057532 z m 83.52189,-89.09849 -42.02147,0 0,-40.12026 42.02147,0 c 18.05346,0 23.44696,8.88579 23.44696,19.92631 0,11.30803 -5.3935,20.19395 -23.44696,20.19395"
     id="path3607"
     style="font-size:10px;letter-spacing:0;word-spacing:0;fill:#ffffff;fill-rule:nonzero;stroke:none" />
  <path
     d="m 514.791,236.13923 41.4581,0 0,-56.92059 78.3537,0 0,-39.81054 -78.3537,0 0,-32.41732 96.12555,0 0,-39.810542 -137.58365,0 0,168.958992 z"
     id="path3609"
     style="font-size:10px;letter-spacing:0;word-spacing:0;fill:#ffffff;fill-rule:nonzero;stroke:none" />
  <path
     d="m 816.76791,303.29801 c -0.55692,-0.29438 -9.56598,-4.2719 -20.02013,-8.83897 -10.45416,-4.56704 -19.72903,-8.63477 -20.61083,-9.0394 -0.88181,-0.40463 -1.66916,-0.7357 -1.74968,-0.7357 -0.0805,0 -0.94514,-0.36859 -1.92139,-0.81913 -0.97625,-0.45051 -2.76322,-1.27528 -3.97105,-1.83283 -1.20783,-0.55752 -2.2667,-1.0137 -2.35304,-1.0137 -0.3903,0 -8.47538,-3.77626 -8.91515,-4.16396 -0.46856,-0.41307 -0.49346,-6.72056 -0.49346,-125.00355 0,-107.104444 0.056,-124.624684 0.39953,-124.968194 0.21974,-0.21974 2.53545,-1.32427 5.14602,-2.45452 2.61057,-1.13024 4.87338,-2.14942 5.02847,-2.26485 0.15508,-0.11543 0.59919,-0.30582 0.98691,-0.42309 0.38771,-0.11727 1.46626,-0.56314 2.39677,-0.99082 0.93052,-0.42767 2.68654,-1.23547 3.90227,-1.7951 1.21574,-0.55963 2.26953,-1.01751 2.34176,-1.01751 0.13631,0 1.9533,-0.79152 3.90703,-1.70197 4.97943,-2.32047 36.77918,-16.12772538 37.22053,-16.16092538 0.56322,-0.0424 0.56404,0.15321 0.6347,151.87102938 0.0673,144.55286 0.0468,151.91274 -0.42296,151.90087 -0.27155,-0.007 -0.94938,-0.25333 -1.5063,-0.54768 z"
     id="path3785"
     style="fill:#e6e6e6;fill-opacity:1" />
  <path
     d="m 920.901,303.62307 c -0.1532,-0.14118 -2.2454,-1.11484 -4.6492,-2.16364 -2.4039,-1.04883 -5.0287,-2.20704 -5.8329,-2.57386 -0.8043,-0.36679 -1.5282,-0.66689 -1.6087,-0.66689 -0.081,0 -0.9452,-0.3702 -1.9214,-0.82269 -3.965,-1.83773 -6.203,-2.84297 -6.3292,-2.84297 -0.073,0 -0.7916,-0.30932 -1.5962,-0.68739 -0.8046,-0.37808 -9.8853,-4.36572 -20.1794,-8.86148 -10.294,-4.49576 -18.8278,-8.28549 -18.964,-8.42163 -0.3916,-0.39161 -0.3216,-249.049604 0.07,-249.521754 0.1748,-0.21059 0.435,-0.3829 0.5783,-0.3829 0.1433,0 1.2091,-0.44411 2.3684,-0.98691 1.1594,-0.54279 2.1765,-0.9869 2.2603,-0.9869 0.084,0 0.8105,-0.30919 1.6151,-0.68709 0.8046,-0.3779 9.5838,-4.23381 19.5092,-8.5687 17.8286,-7.7865304 19.8051,-8.6575304 23.1219,-10.1894504 0.9305,-0.42978 2.0034,-0.87865 2.3841,-0.99748 0.3808,-0.11884 1.9669,-0.81001 3.5247,-1.535945 5.4785,-2.55292998 6.6549,-2.98255998 6.9388,-2.53417998 0.1525,0.24095 1.42127,61.60314538 0.1895,151.96508938 l -0.066,151.56087 -0.5672,0.0813 c -0.312,0.0447 -0.6927,-0.0342 -0.846,-0.17539 z"
     id="path3783"
     style="fill:#d2d2d2;fill-opacity:1" />
  <path
     d="m 1023.9,303.61907 c -0.1533,-0.14325 -2.1186,-1.05543 -4.3673,-2.02706 -2.2487,-0.97165 -4.8705,-2.12819 -5.8261,-2.5701 -0.9556,-0.44188 -1.8064,-0.80346 -1.8906,-0.80346 -0.084,0 -0.952,-0.3691 -1.9282,-0.8202 -0.9763,-0.45111 -2.9805,-1.34874 -4.4538,-1.99474 -3.8574,-1.69136 -6.9328,-3.06153 -8.9534,-3.98906 -0.9697,-0.44509 -1.844,-0.80929 -1.9429,-0.80929 -0.099,0 -0.7013,-0.2538 -1.3387,-0.56397 -0.6373,-0.3102 -7.6803,-3.41208 -15.651,-6.8931 -7.9708,-3.48099 -14.6011,-6.4379 -14.7341,-6.57089 -0.1337,-0.13371 -0.2418,-55.88834 -0.2418,-124.70713 0,-99.390954 0.071,-124.530814 0.3534,-124.789904 0.1944,-0.17846 8.7013,-3.96472 18.9041,-8.41391 10.2029,-4.4492 19.4023,-8.47417 20.4431,-8.9443804 1.0409,-0.47021 2.4303,-1.09827 3.0877,-1.3957 0.6575,-0.29742 1.2527,-0.54077 1.3227,-0.54077 0.07,0 1.2452,-0.51905 2.6114,-1.15344 1.3661,-0.63439 3.2452,-1.47229 4.1758,-1.86203 0.9305,-0.38973 2.2628,-0.96711 2.9607,-1.28306 5.0898,-2.304305 8.3171,-3.60337498 8.6422,-3.47864498 0.3201,0.12318 0.3701,24.56018538 0.3107,151.92794938 l -0.071,151.78099 -0.5672,0.0813 c -0.312,0.0447 -0.6927,-0.0359 -0.846,-0.17917 z"
     id="path3000"
     style="fill:#bebebe;fill-opacity:1" />
  <g
     transform="matrix(0.96326418,0,0,1.0381368,-4.004268e-6,-0.59022438)"
     id="text3009"
     style="font-size:91.07810211px;font-style:normal;font-weight:normal;line-height:125%;letter-spacing:0px;word-spacing:0px;fill:#000000;fill-opacity:1;stroke:none;font-family:Sans">
    <path
       d="m 72.903135,381.00226 -27.140925,-36.704 25.956925,-27.04985 -16.940309,0 -25.865848,27.86954 0,-27.86954 -14.025847,0 0,63.75385 14.025847,0 0,-19.49046 7.377232,-7.65047 19.763693,27.14093 z"
       id="path2996"
       style="font-variant:normal;font-weight:bold;font-stretch:normal;fill:#000000;fill-opacity:1;font-family:Gotham;-inkscape-font-specification:Gotham Bold" />
    <path
       d="m 124.31407,381.00226 0,-48.81724 -13.84369,0 0,27.23201 c -0.0304,3.28258 -0.81214,5.75683 -2.34523,7.42276 -1.53316,1.66597 -3.63552,2.50084 -6.30708,2.50462 -2.660229,-0.004 -4.717048,-0.83865 -6.170461,-2.50462 -1.453457,-1.66593 -2.189661,-4.14018 -2.208614,-7.42276 l 0,-27.23201 -13.843694,0 0,31.6037 c 0.03605,5.65627 1.489481,10.07729 4.360309,13.26307 2.870808,3.1858 6.942701,4.80621 12.215693,4.86124 3.46469,-0.0702 6.326017,-0.86334 8.583997,-2.37939 2.25792,-1.51605 4.16294,-3.33379 5.71508,-5.45323 l 0,6.92185 z"
       id="path2998"
       style="font-variant:normal;font-weight:bold;font-stretch:normal;fill:#000000;fill-opacity:1;font-family:Gotham;-inkscape-font-specification:Gotham Bold" />
    <path
       d="m 151.18677,381.00226 0,-66.48616 -13.8437,0 0,66.48616 z"
       id="path3001"
       style="font-variant:normal;font-weight:bold;font-stretch:normal;fill:#000000;fill-opacity:1;font-family:Gotham;-inkscape-font-specification:Gotham Bold" />
    <path
       d="m 191.69217,378.99857 0,-11.11139 c -1.00188,0.55027 -2.07203,0.97529 -3.21046,1.27508 -1.1385,0.2998 -2.34526,0.4516 -3.62031,0.45538 -1.54075,0.002 -2.67162,-0.38896 -3.39262,-1.17261 -0.72105,-0.78363 -1.07776,-1.97142 -1.07015,-3.56339 l 0,-20.85662 11.47569,0 0,-11.84 -11.47569,0 0,-12.47754 -13.84369,0 0,12.47754 -5.82893,0 0,11.84 5.82893,0 0,23.13355 c 0.0626,5.5519 1.37183,9.40749 3.92769,11.56677 2.55583,2.15928 5.9826,3.19148 10.28031,3.09661 2.30536,-0.009 4.3432,-0.26374 6.11354,-0.76277 1.77027,-0.49902 3.3755,-1.1859 4.81569,-2.06061 z"
       id="path3003"
       style="font-variant:normal;font-weight:bold;font-stretch:normal;fill:#000000;fill-opacity:1;font-family:Gotham;-inkscape-font-specification:Gotham Bold" />
    <path
       d="m 246.3445,381.00226 0,-48.81724 -13.84369,0 0,27.23201 c -0.0304,3.28258 -0.81214,5.75683 -2.34523,7.42276 -1.53317,1.66597 -3.63552,2.50084 -6.30708,2.50462 -2.66023,-0.004 -4.71705,-0.83865 -6.17047,-2.50462 -1.45345,-1.66593 -2.18966,-4.14018 -2.20861,-7.42276 l 0,-27.23201 -13.84369,0 0,31.6037 c 0.036,5.65627 1.48948,10.07729 4.36031,13.26307 2.8708,3.1858 6.9427,4.80621 12.21569,4.86124 3.46469,-0.0702 6.32602,-0.86334 8.584,-2.37939 2.25791,-1.51605 4.16294,-3.33379 5.71508,-5.45323 l 0,6.92185 z"
       id="path3005"
       style="font-variant:normal;font-weight:bold;font-stretch:normal;fill:#000000;fill-opacity:1;font-family:Gotham;-inkscape-font-specification:Gotham Bold" />
    <path
       d="m 288.15381,345.75549 0,-14.48124 c -4.05865,-0.13277 -7.32603,0.77041 -9.80216,2.70954 -2.47617,1.93923 -4.40017,4.61841 -5.772,8.03754 l 0,-9.83631 -13.84369,0 0,48.81724 13.84369,0 0,-18.03323 c 0.0436,-5.81752 1.36804,-10.14367 3.97324,-12.97847 2.60515,-2.83473 6.22925,-4.24642 10.8723,-4.23507 z"
       id="path3007"
       style="font-variant:normal;font-weight:bold;font-stretch:normal;fill:#000000;fill-opacity:1;font-family:Gotham;-inkscape-font-specification:Gotham Bold" />
    <path
       d="m 365.36511,381.00226 0,-46.44924 -4.46277,0 0,26.8677 c -0.10251,4.91437 -1.65081,8.8838 -4.64493,11.90831 -2.99419,3.02451 -6.81942,4.58041 -11.47569,4.66769 -4.71895,-0.0626 -8.35064,-1.50846 -10.89508,-4.33754 -2.54448,-2.82907 -3.83093,-6.66568 -3.85938,-11.50985 l 0,-27.59631 -4.46277,0 0,28.41601 c 0.0398,5.65816 1.66783,10.23477 4.884,13.72984 3.21614,3.49508 7.78136,5.29385 13.69569,5.39631 4.21038,-0.0645 7.67509,-1.00564 10.39415,-2.82338 2.71899,-1.81774 4.84032,-4.12502 6.36401,-6.92185 l 0,8.65231 z"
       id="path3009"
       style="font-weight:normal;fill:#000000;fill-opacity:1;-inkscape-font-specification:Gotham" />
    <path
       d="m 422.13238,381.00226 0,-28.416 c -0.0399,-5.65813 -1.66789,-10.23474 -4.884,-13.72985 -3.21619,-3.49503 -7.78142,-5.2938 -13.69569,-5.39631 -4.21044,0.0646 -7.67515,1.00569 -10.39416,2.82339 -2.71904,1.81778 -4.84037,4.12506 -6.364,6.92184 l 0,-8.65231 -4.46277,0 0,46.44924 4.46277,0 0,-26.8677 c 0.10245,-4.91432 1.65076,-8.88376 4.64493,-11.90831 2.99413,-3.02447 6.81935,-4.58036 11.47569,-4.66769 4.71889,0.0627 8.35057,1.50851 10.89507,4.33754 2.54442,2.82912 3.83088,6.66573 3.85939,11.50985 l 0,27.59631 z"
       id="path3011"
       style="font-weight:normal;fill:#000000;fill-opacity:1;-inkscape-font-specification:Gotham" />
    <path
       d="m 481.3587,381.00226 0,-66.48616 -4.46277,0 0,30.05539 c -1.88989,-3.01309 -4.3945,-5.5936 -7.51384,-7.74154 -3.11943,-2.14785 -6.99019,-3.27114 -11.61231,-3.36985 -5.84223,0.0684 -11.00705,2.23143 -15.49447,6.48923 -4.48744,4.25789 -6.85164,10.20065 -7.09261,17.82831 l 0,0.18216 c 0.24097,7.62011 2.60517,13.53252 7.09262,17.73723 4.48741,4.20472 9.65223,6.33743 15.49446,6.39815 4.57089,-0.0968 8.4075,-1.24661 11.50984,-3.44954 3.10227,-2.20292 5.64104,-4.8783 7.61631,-8.02615 l 0,10.38277 z m -4.18954,-23.13354 c -0.18599,6.01109 -2.13655,10.8154 -5.85169,14.41292 -3.71522,3.59754 -8.07932,5.44185 -13.09231,5.53293 -5.02253,-0.0721 -9.27658,-1.88605 -12.76215,-5.44185 -3.48561,-3.55578 -5.30335,-8.42081 -5.45323,-14.59508 l 0,-0.18215 c 0.12712,-6.28618 1.89932,-11.155 5.31661,-14.60647 3.41726,-3.45139 7.71685,-5.20083 12.89877,-5.2483 5.013,0.0854 9.37709,1.91835 13.09231,5.49877 3.71514,3.58049 5.6657,8.39618 5.85169,14.44707 z"
       id="path3013"
       style="font-weight:normal;fill:#000000;fill-opacity:1;-inkscape-font-specification:Gotham" />
    <path
       d="m 539.55232,381.00226 0,-63.75385 -14.02585,0 0,63.75385 z"
       id="path3015"
       style="font-variant:normal;font-weight:bold;font-stretch:normal;fill:#000000;fill-opacity:1;font-family:Gotham;-inkscape-font-specification:Gotham Bold" />
    <path
       d="m 598.747,381.00226 0,-31.6037 c -0.0361,-5.65622 -1.48953,-10.07724 -4.36031,-13.26308 -2.87086,-3.18574 -6.94276,-4.80615 -12.21569,-4.86123 -3.46475,0.0703 -6.32608,0.86339 -8.584,2.37939 -2.25797,1.5161 -4.163,3.33384 -5.71508,5.45323 l 0,-6.92185 -13.84369,0 0,48.81724 13.84369,0 0,-27.232 c 0.0303,-3.28254 0.81209,-5.75679 2.34523,-7.42277 1.53311,-1.66592 3.63546,-2.50079 6.30708,-2.50462 2.66017,0.004 4.71699,0.8387 6.17046,2.50462 1.4534,1.66598 2.1896,4.14023 2.20862,7.42277 l 0,27.232 z"
       id="path3017"
       style="font-variant:normal;font-weight:bold;font-stretch:normal;fill:#000000;fill-opacity:1;font-family:Gotham;-inkscape-font-specification:Gotham Bold" />
    <path
       d="m 638.09722,326.72041 0,-11.47569 c -1.25234,-0.41548 -2.66403,-0.74563 -4.23508,-0.99047 -1.57111,-0.2447 -3.43818,-0.36993 -5.60123,-0.37569 -4.89351,-0.0189 -8.63145,1.24858 -11.21385,3.80246 -2.58242,2.55401 -3.88406,6.50827 -3.90492,11.86277 l 0,3.09662 -5.73785,0 0,11.38461 5.73785,0 0,36.97724 13.84369,0 0,-36.97724 11.02031,0 0,-11.29353 -11.20246,0 0,-1.91262 c 0.009,-1.8139 0.44587,-3.14969 1.30923,-4.00738 0.86331,-0.85759 2.09664,-1.28262 3.7,-1.27508 1.17259,0.004 2.26551,0.1101 3.27877,0.31877 1.0132,0.20877 2.01504,0.49718 3.00554,0.86523 z"
       id="path3019"
       style="font-variant:normal;font-weight:bold;font-stretch:normal;fill:#000000;fill-opacity:1;font-family:Gotham;-inkscape-font-specification:Gotham Bold" />
    <path
       d="m 696.0966,356.68472 0,-0.18216 c -0.15185,-7.18745 -2.64887,-13.1454 -7.49108,-17.87385 -4.8423,-4.72836 -11.11901,-7.17984 -18.83015,-7.35446 -7.75864,0.18221 -14.07709,2.66405 -18.95539,7.44555 -4.87831,4.78157 -7.39431,10.76987 -7.548,17.96492 l 0,0.18215 c 0.15179,7.18751 2.64882,13.14545 7.49108,17.87385 4.84224,4.72841 11.11895,7.1799 18.83016,7.35446 7.75857,-0.18215 14.07703,-2.664 18.95538,-7.44554 4.87825,-4.78153 7.39425,-10.76983 7.548,-17.96492 z m -13.66154,0.18215 c -0.0323,3.70192 -1.15178,6.81751 -3.35846,9.34677 -2.20675,2.52929 -5.30716,3.84611 -9.30123,3.95046 -3.88218,-0.11193 -6.97879,-1.45911 -9.28985,-4.04154 -2.31109,-2.58239 -3.49509,-5.72834 -3.552,-9.43784 l 0,-0.18216 c 0.0322,-3.70187 1.15173,-6.81745 3.35846,-9.34677 2.2067,-2.52924 5.30711,-3.84606 9.30124,-3.95046 3.88212,0.11199 6.97873,1.45917 9.28984,4.04154 2.31104,2.58244 3.49504,5.72839 3.552,9.43785 z"
       id="path3021"
       style="font-variant:normal;font-weight:bold;font-stretch:normal;fill:#000000;fill-opacity:1;font-family:Gotham;-inkscape-font-specification:Gotham Bold" />
    <path
       d="m 735.5394,345.75549 0,-14.48124 c -4.05865,-0.13277 -7.32603,0.77041 -9.80216,2.70954 -2.47617,1.93923 -4.40017,4.61841 -5.772,8.03754 l 0,-9.83631 -13.84369,0 0,48.81724 13.84369,0 0,-18.03323 c 0.0436,-5.81752 1.36804,-10.14367 3.97324,-12.97847 2.60515,-2.83473 6.22925,-4.24642 10.8723,-4.23507 z"
       id="path3023"
       style="font-variant:normal;font-weight:bold;font-stretch:normal;fill:#000000;fill-opacity:1;font-family:Gotham;-inkscape-font-specification:Gotham Bold" />
    <path
       d="m 818.69029,381.00226 0,-31.78585 c -0.0437,-5.88771 -1.50475,-10.34668 -4.38308,-13.37692 -2.87849,-3.03016 -6.91243,-4.55191 -12.10185,-4.56524 -3.30918,0.01 -6.27677,0.67364 -8.90277,1.99231 -2.6261,1.31877 -5.00169,3.23518 -7.12676,5.74923 -1.29031,-2.47421 -3.10425,-4.37923 -5.44185,-5.71507 -2.33768,-1.33575 -5.10794,-2.01124 -8.31077,-2.02647 -3.46854,0.0703 -6.34505,0.86339 -8.62954,2.37939 -2.28454,1.5161 -4.20474,3.33384 -5.76062,5.45323 l 0,-6.92185 -13.84369,0 0,48.81724 13.84369,0 0,-27.232 c 0.0246,-3.28254 0.77224,-5.75679 2.24278,-7.42277 1.47048,-1.66592 3.51592,-2.50079 6.1363,-2.50462 2.60894,0.004 4.60884,0.8387 5.99969,2.50462 1.39079,1.66598 2.09284,4.14023 2.10616,7.42277 l 0,27.232 13.84369,0 0,-27.232 c 0.0246,-3.28254 0.77221,-5.75679 2.24277,-7.42277 1.47046,-1.66592 3.5159,-2.50079 6.13631,-2.50462 2.60891,0.004 4.60881,0.8387 5.99969,2.50462 1.39076,1.66598 2.09281,4.14023 2.10616,7.42277 l 0,27.232 z"
       id="path3025"
       style="font-variant:normal;font-weight:bold;font-stretch:normal;fill:#000000;fill-opacity:1;font-family:Gotham;-inkscape-font-specification:Gotham Bold" />
    <path
       d="m 872.62889,381.00226 0,-28.32493 c 0.0379,-6.65427 -1.70015,-11.8115 -5.21416,-15.47169 -3.51409,-3.66011 -9.03183,-5.5158 -16.55323,-5.56708 -4.07951,0.0152 -7.60115,0.37195 -10.56492,1.07016 -2.96381,0.6983 -5.75683,1.64702 -8.37908,2.84615 l 3.46093,10.56492 c 2.18393,-0.82724 4.32803,-1.47237 6.4323,-1.93538 2.10424,-0.46294 4.45326,-0.69822 7.04708,-0.70585 3.46469,0.0133 6.07556,0.78368 7.83262,2.31108 1.75699,1.52747 2.6374,3.73229 2.64123,6.61446 l 0,0.81969 c -1.70393,-0.60145 -3.51029,-1.0834 -5.41908,-1.44584 -1.90885,-0.36238 -4.07951,-0.54833 -6.512,-0.55785 -5.88017,-0.017 -10.60478,1.24665 -14.17385,3.79108 -3.56908,2.54449 -5.402,6.47217 -5.49877,11.78308 l 0,0.18215 c 0.12333,4.84606 1.76651,8.54226 4.92954,11.08862 3.16302,2.54636 7.10588,3.82902 11.82862,3.848 3.35274,-0.0247 6.23305,-0.5901 8.64092,-1.69631 2.40782,-1.10621 4.44566,-2.60518 6.11354,-4.49692 l 0,5.28246 z m -13.11508,-17.21354 c -0.0475,2.54827 -1.04552,4.60129 -2.99415,6.15907 -1.9487,1.55781 -4.56336,2.35853 -7.844,2.40216 -2.26746,-0.0133 -4.0852,-0.53317 -5.45324,-1.55969 -1.36806,-1.02651 -2.07012,-2.47994 -2.10615,-4.36031 l 0,-0.18215 c 0.0285,-2.19342 0.88229,-3.86316 2.56154,-5.00924 1.67921,-1.14603 4.01305,-1.72285 7.00154,-1.73046 1.69438,0.008 3.29202,0.17459 4.79292,0.50092 1.50084,0.32638 2.84802,0.76659 4.04154,1.32062 z"
       id="path3027"
       style="font-variant:normal;font-weight:bold;font-stretch:normal;fill:#000000;fill-opacity:1;font-family:Gotham;-inkscape-font-specification:Gotham Bold" />
    <path
       d="m 911.9563,378.99857 0,-11.11139 c -1.00188,0.55027 -2.07203,0.97529 -3.21046,1.27508 -1.1385,0.2998 -2.34526,0.4516 -3.62031,0.45538 -1.54075,0.002 -2.67162,-0.38896 -3.39262,-1.17261 -0.72105,-0.78363 -1.07776,-1.97142 -1.07015,-3.56339 l 0,-20.85662 11.47569,0 0,-11.84 -11.47569,0 0,-12.47754 -13.84369,0 0,12.47754 -5.82893,0 0,11.84 5.82893,0 0,23.13355 c 0.0626,5.5519 1.37183,9.40749 3.92769,11.56677 2.55583,2.15928 5.9826,3.19148 10.28031,3.09661 2.30536,-0.009 4.3432,-0.26374 6.11354,-0.76277 1.77027,-0.49902 3.3755,-1.1859 4.81569,-2.06061 z"
       id="path3029"
       style="font-variant:normal;font-weight:bold;font-stretch:normal;fill:#000000;fill-opacity:1;font-family:Gotham;-inkscape-font-specification:Gotham Bold" />
    <path
       d="m 937.09972,326.81149 0,-12.29539 -14.57231,0 0,12.29539 z m -0.36431,54.19077 0,-48.81724 -13.84369,0 0,48.81724 z"
       id="path3031"
       style="font-variant:normal;font-weight:bold;font-stretch:normal;fill:#000000;fill-opacity:1;font-family:Gotham;-inkscape-font-specification:Gotham Bold" />
    <path
       d="m 1000.2832,356.68472 0,-0.18216 c -0.1518,-7.18745 -2.64883,-13.1454 -7.49103,-17.87385 -4.8423,-4.72836 -11.11901,-7.17984 -18.83015,-7.35446 -7.75864,0.18221 -14.0771,2.66405 -18.95539,7.44555 -4.87832,4.78157 -7.39431,10.76987 -7.548,17.96492 l 0,0.18215 c 0.15179,7.18751 2.64881,13.14545 7.49108,17.87385 4.84224,4.72841 11.11895,7.1799 18.83015,7.35446 7.75858,-0.18215 14.07703,-2.664 18.95539,-7.44554 4.87825,-4.78153 7.39425,-10.76983 7.54795,-17.96492 z m -13.66149,0.18215 c -0.0323,3.70192 -1.15179,6.81751 -3.35846,9.34677 -2.20676,2.52929 -5.30717,3.84611 -9.30123,3.95046 -3.88218,-0.11193 -6.9788,-1.45911 -9.28985,-4.04154 -2.3111,-2.58239 -3.4951,-5.72834 -3.552,-9.43784 l 0,-0.18216 c 0.0322,-3.70187 1.15172,-6.81745 3.35846,-9.34677 2.2067,-2.52924 5.3071,-3.84606 9.30123,-3.95046 3.88212,0.11199 6.97873,1.45917 9.28985,4.04154 2.31103,2.58244 3.49503,5.72839 3.552,9.43785 z"
       id="path3033"
       style="font-variant:normal;font-weight:bold;font-stretch:normal;fill:#000000;fill-opacity:1;font-family:Gotham;-inkscape-font-specification:Gotham Bold" />
    <path
       d="m 1055.027,381.00226 0,-31.6037 c -0.036,-5.65622 -1.4896,-10.07724 -4.3603,-13.26308 -2.8709,-3.18574 -6.9428,-4.80615 -12.2157,-4.86123 -3.4648,0.0703 -6.3261,0.86339 -8.584,2.37939 -2.258,1.5161 -4.163,3.33384 -5.7151,5.45323 l 0,-6.92185 -13.8437,0 0,48.81724 13.8437,0 0,-27.232 c 0.03,-3.28254 0.8121,-5.75679 2.3452,-7.42277 1.5331,-1.66592 3.6355,-2.50079 6.3071,-2.50462 2.6602,0.004 4.717,0.8387 6.1705,2.50462 1.4534,1.66598 2.1896,4.14023 2.2086,7.42277 l 0,27.232 z"
       id="path3035"
       style="font-variant:normal;font-weight:bold;font-stretch:normal;fill:#000000;fill-opacity:1;font-family:Gotham;-inkscape-font-specification:Gotham Bold" />
  </g>
</svg>
