<svg version="1" viewBox="0 0 1417 400" xmlns="http://www.w3.org/2000/svg">
 <g font-size="10" letter-spacing="0" word-spacing="0">
  <path d="m-0.172 0.538h708.82v303.47h-708.82v-303.47z" fill="#ec1b24"/>
  <path d="m236.69 152.28c0-49.553-40.158-87.795-90.274-87.795-50.13 0-90.288 38.242-90.288 87.795 0 49.539 40.158 87.767 90.288 87.767 50.116 0 90.274-38.228 90.274-87.767m-42.848 0c0 26.65-22.903 47.919-47.426 47.919-24.805 0-47.44-21.269-47.44-47.919 0-26.664 22.635-47.933 47.44-47.933 24.523 0 47.426 21.269 47.426 47.933" fill="#fff"/>
  <path d="m296.46 236.82h41.51v-49.271h30.988l32.608 49.271h51.736l-41.763-59.23c19.663-8.62 33.411-27.199 33.411-50.088 0-33.664-24.791-59.779-62.526-59.779h-85.964v169.1zm83.541-89.119h-42.031v-40.13h42.031c18.058 0 23.452 8.888 23.452 19.931 0 11.311-5.395 20.199-23.452 20.199" fill="#fff"/>
  <path d="m514.74 236.72h41.468v-56.934h78.372v-39.82h-78.372v-32.425h96.148v-39.82h-137.62v169z" fill="#fff"/>
  <path d="m-0.172 0.538h708.82v303.47h-708.82v-303.47z" fill="#e2001a"/>
  <path d="m236.69 152.28c0-49.553-40.158-87.795-90.274-87.795-50.13 0-90.288 38.242-90.288 87.795 0 49.539 40.158 87.767 90.288 87.767 50.116 0 90.274-38.228 90.274-87.767m-42.848 0c0 26.65-22.903 47.919-47.426 47.919-24.805 0-47.44-21.269-47.44-47.919 0-26.664 22.635-47.933 47.44-47.933 24.523 0 47.426 21.269 47.426 47.933" fill="#fff"/>
  <path d="m296.46 236.82h41.51v-49.271h30.988l32.608 49.271h51.736l-41.763-59.23c19.663-8.62 33.411-27.199 33.411-50.088 0-33.664-24.791-59.779-62.526-59.779h-85.964v169.1zm83.541-89.119h-42.031v-40.13h42.031c18.058 0 23.452 8.888 23.452 19.931 0 11.311-5.395 20.199-23.452 20.199" fill="#fff"/>
  <path d="m514.74 236.72h41.468v-56.934h78.372v-39.82h-78.372v-32.425h96.148v-39.82h-137.62v169z" fill="#fff"/>
 </g>
 <path d="M816.768 303.888c-.557-.294-9.566-4.272-20.02-8.839-10.454-4.567-19.729-8.635-20.611-9.039-.882-.405-1.669-.736-1.75-.736-.081 0-.945-.369-1.921-.819l-3.971-1.833c-1.208-.558-2.267-1.014-2.353-1.014-.39 0-8.475-3.776-8.915-4.164-.469-.413-.493-6.721-.493-125.004 0-107.104.056-124.625.4-124.968.22-.22 2.535-1.324 5.146-2.455 2.611-1.13 4.873-2.149 5.028-2.265.155-.115.599-.306.987-.423.388-.117 1.466-.563 2.397-.991l3.902-1.795c1.216-.56 2.27-1.018 2.342-1.018.136 0 1.953-.792 3.907-1.702 4.979-2.32 36.779-16.128 37.221-16.161.563-.042.564.153.635 151.871.067 144.553.047 151.913-.423 151.901-.272-.007-.949-.253-1.506-.548zm104.133.325c-.153-.141-2.245-1.115-4.649-2.164-2.404-1.049-5.029-2.207-5.833-2.574-.804-.367-1.528-.667-1.609-.667-.081 0-.945-.37-1.921-.823-3.965-1.838-6.203-2.843-6.329-2.843-.073 0-.792-.309-1.596-.687-.805-.378-9.885-4.366-20.179-8.861-10.294-4.496-18.828-8.285-18.964-8.422-.392-.392-.322-249.05.07-249.522.175-.211.435-.383.578-.383.143 0 1.209-.444 2.368-.987 1.159-.543 2.176-.987 2.26-.987.084 0 .81-.309 1.615-.687.805-.378 9.584-4.234 19.509-8.569 17.829-7.787 19.805-8.658 23.122-10.189.93-.43 2.003-.879 2.384-.997.381-.119 1.967-.81 3.525-1.536 5.479-2.553 6.655-2.983 6.939-2.534.152.241 1.421 61.603.19 151.965l-.066 151.561-.567.081c-.312.045-.693-.034-.846-.175zm102.999-.004c-.153-.143-2.119-1.055-4.367-2.027-2.249-.972-4.87-2.128-5.826-2.57-.956-.442-1.806-.803-1.891-.803-.084 0-.952-.369-1.928-.82-.976-.451-2.981-1.349-4.454-1.995-3.857-1.691-6.933-3.062-8.953-3.989-.97-.445-1.844-.809-1.943-.809-.099 0-.701-.254-1.339-.564-.637-.31-7.68-3.412-15.651-6.893s-14.601-6.438-14.734-6.571c-.134-.134-.242-55.888-.242-124.707 0-99.391.071-124.531.353-124.79.194-.178 8.701-3.965 18.904-8.414s19.402-8.474 20.443-8.944l3.088-1.396c.657-.297 1.253-.541 1.323-.541.07 0 1.245-.519 2.611-1.153s3.245-1.472 4.176-1.862c.93-.39 2.263-.967 2.961-1.283 5.09-2.304 8.317-3.603 8.642-3.479.32.123.37 24.56.311 151.928l-.071 151.781-.567.081c-.312.045-.693-.036-.846-.179z" fill="#565656"/>
 <g font-family="Sans" font-size="91.078" letter-spacing="0" word-spacing="0">
  <path d="m70.225 395.53-26.144-38.104 25.003-28.081h-16.318l-24.916 28.932v-28.932h-13.511v66.185h13.511v-20.234l7.106-7.942 19.038 28.176z" font-family="Gotham" font-weight="bold"/>
  <path d="m119.75 395.53v-50.679h-13.335v28.271c-0.029 3.408-0.782 5.976-2.259 7.706s-3.502 2.596-6.075 2.6c-2.563-4e-3 -4.544-0.871-5.944-2.6s-2.109-4.298-2.127-7.706v-28.271h-13.335v32.809c0.035 5.872 1.435 10.462 4.2 13.769s6.688 4.99 11.767 5.047c3.337-0.073 6.094-0.896 8.269-2.47s4.01-3.461 5.505-5.661v7.186z" font-family="Gotham" font-weight="bold"/>
  <path d="m145.63 395.53v-69.022h-13.335v69.022z" font-family="Gotham" font-weight="bold"/>
  <path d="M184.65 393.452v-11.535c-.965.571-1.996 1.012-3.093 1.324-1.097.311-2.259.469-3.487.473-1.484.002-2.573-.404-3.268-1.217-.695-.814-1.038-2.047-1.031-3.699v-21.652h11.054v-12.292h-11.054v-12.953h-13.335v12.953h-5.615v12.292h5.615v24.016c.06 5.764 1.321 9.766 3.783 12.008 2.462 2.242 5.763 3.313 9.903 3.215 2.221-.009 4.184-.274 5.889-.792s3.251-1.231 4.639-2.139z" font-family="Gotham" font-weight="bold"/>
  <path d="m237.3 395.53v-50.679h-13.335v28.271c-0.029 3.408-0.782 5.976-2.259 7.706s-3.502 2.596-6.075 2.6c-2.563-4e-3 -4.544-0.871-5.944-2.6s-2.109-4.298-2.127-7.706v-28.271h-13.335v32.809c0.035 5.872 1.435 10.462 4.2 13.769s6.688 4.99 11.767 5.047c3.337-0.073 6.094-0.896 8.269-2.47s4.01-3.461 5.505-5.661v7.186z" font-family="Gotham" font-weight="bold"/>
  <path d="M277.568 358.941v-15.034c-3.91-.138-7.057.8-9.442 2.813s-4.239 4.795-5.56 8.344v-10.211h-13.335v50.679h13.335v-18.721c.042-6.039 1.318-10.531 3.827-13.473 2.509-2.943 6-4.408 10.473-4.397z" font-family="Gotham" font-weight="bold"/>
  <path d="m351.94 395.53v-48.221h-4.299v27.892c-0.099 5.102-1.59 9.223-4.474 12.362-2.884 3.14-6.569 4.755-11.054 4.846-4.546-0.065-8.044-1.566-10.495-4.503s-3.69-6.92-3.718-11.949v-28.649h-4.299v29.5c0.038 5.874 1.607 10.625 4.705 14.253s7.496 5.496 13.193 5.602c4.056-0.067 7.393-1.044 10.012-2.931s4.663-4.282 6.13-7.186v8.982z"/>
  <path d="m406.62 395.53v-29.5c-0.038-5.874-1.607-10.625-4.705-14.253s-7.496-5.496-13.193-5.602c-4.056 0.067-7.393 1.044-10.012 2.931s-4.663 4.282-6.13 7.186v-8.982h-4.299v48.221h4.299v-27.892c0.099-5.102 1.59-9.223 4.474-12.362 2.884-3.14 6.569-4.755 11.054-4.846 4.546 0.065 8.044 1.566 10.495 4.503s3.69 6.92 3.718 11.949v28.649z"/>
  <path d="m463.68 395.53v-69.022h-4.299v31.202c-1.82-3.128-4.233-5.807-7.238-8.037s-6.733-3.396-11.186-3.498c-5.628 0.071-10.603 2.317-14.925 6.737-4.323 4.42-6.6 10.59-6.832 18.508v0.189c0.232 7.911 2.509 14.049 6.832 18.414s9.298 6.579 14.925 6.642c4.403-0.1 8.099-1.294 11.087-3.581s5.434-5.064 7.337-8.332v10.779zm-4.036-24.016c-0.179 6.24-2.058 11.228-5.637 14.963s-7.783 5.649-12.611 5.744c-4.838-0.075-8.936-1.958-12.293-5.649-3.358-3.691-5.109-8.742-5.253-15.152v-0.189c0.122-6.526 1.83-11.58 5.121-15.164 3.292-3.583 7.433-5.399 12.425-5.448 4.829 0.089 9.033 1.992 12.611 5.708 3.579 3.717 5.458 8.716 5.637 14.998z"/>
  <path d="m519.73 395.53v-66.185h-13.511v66.185z" font-family="Gotham" font-weight="bold"/>
  <path d="m576.75 395.53v-32.809c-0.035-5.872-1.435-10.462-4.2-13.769s-6.688-4.989-11.767-5.047c-3.337 0.073-6.094 0.896-8.269 2.47s-4.01 3.461-5.505 5.661v-7.186h-13.335v50.679h13.335v-28.271c0.029-3.408 0.782-5.976 2.259-7.706 1.477-1.729 3.502-2.596 6.075-2.6 2.562 4e-3 4.544 0.871 5.944 2.6 1.4 1.73 2.109 4.298 2.127 7.706v28.271z" font-family="Gotham" font-weight="bold"/>
  <path d="m614.66 339.18v-11.913c-1.206-0.431-2.566-0.774-4.08-1.028-1.513-0.254-3.312-0.384-5.395-0.39-4.714-0.02-8.314 1.296-10.802 3.947s-3.741 6.756-3.761 12.315v3.215h-5.527v11.819h5.527v38.387h13.335v-38.387h10.615v-11.724h-10.791v-1.986c9e-3 -1.883 0.429-3.27 1.261-4.16s2.02-1.332 3.564-1.324c1.13 4e-3 2.182 0.114 3.158 0.331s1.941 0.516 2.895 0.898z" font-family="Gotham" font-weight="bold"/>
  <path d="m670.52 370.29v-0.189c-0.146-7.462-2.552-13.647-7.216-18.556s-10.711-7.454-18.138-7.635c-7.474 0.189-13.56 2.766-18.259 7.729-4.699 4.964-7.123 11.181-7.271 18.65v0.189c0.146 7.462 2.552 13.647 7.216 18.556s10.71 7.454 18.138 7.635c7.474-0.189 13.56-2.766 18.259-7.729 4.699-4.964 7.123-11.181 7.271-18.65zm-13.16 0.189c-0.031 3.843-1.109 7.078-3.235 9.703-2.126 2.626-5.112 3.993-8.96 4.101-3.74-0.116-6.722-1.515-8.949-4.196-2.226-2.681-3.367-5.947-3.422-9.798v-0.189c0.031-3.843 1.109-7.077 3.235-9.703s5.112-3.993 8.96-4.101c3.74 0.116 6.722 1.515 8.949 4.196 2.226 2.681 3.367 5.947 3.422 9.798z" font-family="Gotham" font-weight="bold"/>
  <path d="M708.519 358.941v-15.034c-3.91-.138-7.057.8-9.442 2.813s-4.239 4.795-5.56 8.344v-10.211h-13.335v50.679h13.335v-18.721c.042-6.039 1.318-10.531 3.827-13.473 2.509-2.943 6-4.408 10.473-4.397z" font-family="Gotham" font-weight="bold"/>
  <path d="m788.62 395.53v-32.998c-0.042-6.112-1.449-10.741-4.222-13.887s-6.658-4.726-11.657-4.739c-3.188 0.01-6.046 0.699-8.576 2.068s-4.818 3.359-6.865 5.968c-1.243-2.569-2.99-4.546-5.242-5.933s-4.92-2.088-8.005-2.104c-3.341 0.073-6.112 0.896-8.313 2.47s-4.05 3.461-5.549 5.661v-7.186h-13.335v50.679h13.335v-28.271c0.024-3.408 0.744-5.976 2.16-7.706 1.416-1.729 3.387-2.596 5.911-2.6 2.513 4e-3 4.44 0.871 5.779 2.6 1.34 1.73 2.016 4.298 2.029 7.706v28.271h13.335v-28.271c0.024-3.408 0.744-5.976 2.16-7.706 1.416-1.729 3.387-2.596 5.911-2.6 2.513 4e-3 4.44 0.871 5.779 2.6 1.34 1.73 2.016 4.298 2.029 7.706v28.271z" font-family="Gotham" font-weight="bold"/>
  <path d="m840.57 395.53v-29.405c0.037-6.908-1.638-12.262-5.023-16.062s-8.7-5.726-15.945-5.779c-3.93 0.016-7.322 0.386-10.177 1.111s-5.545 1.71-8.071 2.955l3.334 10.968c2.104-0.859 4.169-1.529 6.196-2.009 2.027-0.481 4.29-0.725 6.788-0.733 3.337 0.014 5.852 0.814 7.545 2.399 1.692 1.586 2.541 3.875 2.544 6.867v0.851c-1.641-0.624-3.381-1.125-5.22-1.501s-3.93-0.569-6.273-0.579c-5.664-0.018-10.215 1.294-13.653 3.936s-5.204 6.719-5.297 12.232v0.189c0.119 5.031 1.702 8.868 4.748 11.512 3.047 2.643 6.845 3.975 11.394 3.995 3.23-0.026 6.004-0.613 8.323-1.761s4.282-2.705 5.889-4.668v5.484zm-12.633-17.87c-0.046 2.645-1.007 4.777-2.884 6.394s-4.396 2.448-7.556 2.494c-2.184-0.014-3.935-0.554-5.253-1.619-1.318-1.066-1.994-2.575-2.029-4.527v-0.189c0.027-2.277 0.85-4.01 2.467-5.2 1.618-1.19 3.866-1.789 6.744-1.796 1.632 8e-3 3.171 0.181 4.617 0.52s2.743 0.796 3.893 1.371z" font-family="Gotham" font-weight="bold"/>
  <path d="M878.455 393.452v-11.535c-.965.571-1.996 1.012-3.093 1.324-1.097.311-2.259.469-3.487.473-1.484.002-2.573-.404-3.268-1.217-.695-.814-1.038-2.047-1.031-3.699v-21.652h11.054v-12.292h-11.054v-12.953h-13.335v12.953h-5.615v12.292h5.615v24.016c.06 5.764 1.321 9.766 3.783 12.008 2.462 2.242 5.763 3.313 9.903 3.215 2.221-.009 4.184-.274 5.889-.792s3.251-1.231 4.639-2.139z" font-family="Gotham" font-weight="bold"/>
  <path d="m902.68 339.28v-12.764h-14.037v12.764zm-0.351 56.257v-50.679h-13.335v50.679z" font-family="Gotham" font-weight="bold"/>
  <path d="m963.54 370.29v-0.189c-0.146-7.462-2.552-13.647-7.216-18.556s-10.711-7.454-18.138-7.635c-7.474 0.189-13.56 2.766-18.259 7.729-4.699 4.964-7.123 11.181-7.271 18.65v0.189c0.146 7.462 2.552 13.647 7.216 18.556s10.71 7.454 18.138 7.635c7.474-0.189 13.56-2.766 18.259-7.729 4.699-4.964 7.123-11.181 7.271-18.65zm-13.16 0.189c-0.031 3.843-1.109 7.078-3.235 9.703-2.126 2.626-5.112 3.993-8.96 4.101-3.74-0.116-6.722-1.515-8.949-4.196-2.226-2.681-3.367-5.947-3.422-9.798v-0.189c0.031-3.843 1.109-7.077 3.235-9.703s5.112-3.993 8.96-4.101c3.74 0.116 6.722 1.515 8.949 4.196 2.226 2.681 3.367 5.947 3.422 9.798z" font-family="Gotham" font-weight="bold"/>
  <path d="m1016.3 395.53v-32.809c-0.035-5.872-1.435-10.462-4.2-13.769s-6.688-4.989-11.767-5.047c-3.338 0.073-6.094 0.896-8.269 2.47s-4.01 3.461-5.505 5.661v-7.186h-13.335v50.679h13.335v-28.271c0.029-3.408 0.782-5.976 2.259-7.706 1.477-1.729 3.502-2.596 6.075-2.6 2.562 4e-3 4.544 0.871 5.944 2.6 1.4 1.73 2.109 4.298 2.127 7.706v28.271z" font-family="Gotham" font-weight="bold"/>
 </g>
 <g fill="#e2001a">
  <path d="m1208.9 238.48v-169.96h-41.681v63.06h-69.28v-63.06h-41.675v169.96h41.675v-66.845h69.28v66.845h41.681zm207.52-84.978c0-44.927-34.643-84.978-90.659-84.978h-77.674v169.96h77.674c54.938 0 90.659-40.051 90.659-84.978m-41.675 0c0 24.626-18.406 44.927-48.985 44.927h-36.266v-89.854h36.266c30.579 0 48.985 20.301 48.985 44.927"/>
  <path d="m1367 59.566c6.173 2.293 11.871 5.142 17.256 8.365v-66.123h-303.39v49.547h17.256v-32.291h268.88v40.502zm-268.88 196.72h-17.256v48.925h303.39v-65.986c-5.397 3.27-11.101 6.173-17.256 8.507v40.223h-268.88v-31.669z"/>
 </g>
</svg>
