<svg data-name="Слой 1" version="1.1" viewBox="0 0 800 160.05" xmlns="http://www.w3.org/2000/svg">
 <defs>
  <style>
   .cls-1 {fill: #2e72ff;}
   .cls-1, .cls-2, .cls-3 {stroke-width: 0px;}
   .cls-2 {fill: #fff;}
   .cls-3 {fill: #00cfff;}
  </style>
 </defs>
 <g transform="matrix(1.6 0 0 1.6 0 .064001)" stroke-width=".62499">
  <path class="cls-3" d="m0 1.99h211.58v90.16h-211.58z"/>
  <path class="cls-2" d="m70.7 47.07c0-14.72-11.99-26.08-26.95-26.08s-26.95 11.36-26.95 26.08 11.99 26.07 26.95 26.07 26.95-11.36 26.95-26.07m-12.79 0c0 7.92-6.84 14.24-14.16 14.24s-14.16-6.32-14.16-14.24 6.76-14.24 14.16-14.24 14.16 6.32 14.16 14.24"/>
  <path class="cls-2" d="m88.54 72.18h12.39v-14.64h9.25l9.73 14.64h15.44l-12.47-17.6c5.87-2.56 9.97-8.08 9.97-14.88 0-10-7.4-17.76-18.66-17.76h-25.66v50.24zm24.94-26.47h-12.55v-11.92h12.55c5.39 0 7 2.64 7 5.92s-1.61 6-7 6"/>
  <path class="cls-2" d="m153.7 72.16h12.38v-16.91h23.39v-11.83h-23.39v-9.63h28.7v-11.83h-41.08v50.21z"/>
  <path class="cls-2" d="m335.15 60.62c-10.64 0-19.23-8.24-19.57-18.75-0.16-5.16 1.72-10.09 5.31-13.85 3.58-3.77 8.44-5.93 13.66-6.09h0.61c10.64 0 19.23 8.23 19.57 18.74 0.16 5.17-1.71 10.09-5.3 13.86-3.58 3.76-8.44 5.93-13.66 6.09z"/>
  <path class="cls-1" d="m335.17 28.66c6.86 0 12.53 5.39 12.73 12.21 0.22 6.96-5.31 12.77-12.35 12.99h-0.41c-6.86 0-12.53-5.38-12.74-12.21-0.22-6.96 5.32-12.77 12.35-12.98h0.41m0-13.51h-0.83c-14.56 0.44-26.03 12.51-25.58 26.9 0.45 14.18 12.04 25.29 26.4 25.29h0.83c14.56-0.44 26.04-12.51 25.58-26.9-0.45-14.18-12.04-25.29-26.4-25.29z"/>
  <path class="cls-1" d="m324.59 38.74c0.24 0 0.51 0.02 0.8 0.04 6.72 0.7 13.45 1.4 20.17 2.1 0.38 0.04 0.76 0.12 1.12 0.23 0.95 0.29 1.48 0.99 1.41 1.83-0.04 0.5-0.11 0.99-0.15 1.48-0.7 6.61-1.41 13.22-2.11 19.83-0.74 6.99-1.48 13.97-2.23 20.95-0.14 1.25-0.84 1.87-2.18 1.87-0.16 0-0.33 0-0.51-0.03-1.62-0.16-3.23-0.34-4.86-0.5-5.2-0.54-10.41-1.08-15.6-1.63-0.38-0.04-0.76-0.11-1.12-0.2-0.95-0.27-1.42-0.81-1.45-1.68-0.02-0.29 0-0.59 0.03-0.89 1.46-13.75 2.92-27.51 4.39-41.26 0.16-1.53 0.79-2.15 2.32-2.15m-0.02-12.91c-8.16 0-14.46 5.64-15.32 13.72l-0.39 3.68-4 37.58c-0.1 0.91-0.13 1.84-0.08 2.78 0.28 6.47 4.58 11.8 10.97 13.57 1.06 0.29 2.16 0.5 3.28 0.62 4.21 0.44 8.44 0.89 12.66 1.32l2.96 0.31 1.45 0.15c1.16 0.12 2.32 0.24 3.48 0.35 0.63 0.06 1.24 0.09 1.8 0.09 7.97 0 14.36-5.65 15.19-13.43l2.23-20.95 1.53-14.4 0.58-5.43 0.04-0.38c0.05-0.47 0.1-0.95 0.14-1.42 0.56-6.86-3.77-13.12-10.53-15.21-1.18-0.36-2.4-0.61-3.64-0.74-5.88-0.62-11.77-1.23-17.66-1.84l-2.53-0.27c-0.76-0.08-1.47-0.12-2.17-0.12"/>
  <path class="cls-1" d="m313.53 15.91c0.32 0 0.65 0.02 0.97 0.06 0.83 0.1 1.27 0.68 1.14 1.5-0.07 0.43-0.22 0.85-0.42 1.23-2.45 4.76-4.93 9.5-7.38 14.25-2.01 3.9-4 7.8-6.05 11.68-0.31 0.58-0.26 0.89 0.14 1.38 3.87 4.79 7.7 9.61 11.54 14.42 2.75 3.44 5.51 6.88 8.25 10.34 0.32 0.41 0.51 0.95 0.63 1.46 0.12 0.5-0.12 0.95-0.64 1.13-0.5 0.19-0.99 0.41-1.51 0.47-8.18 1-16.36 1.97-24.54 2.96-0.23 0.03-0.43 0.04-0.65 0.04-1.32 0-2.36-0.54-3.19-1.72-2.16-3.01-4.4-5.98-6.61-8.96-0.23-0.31-0.39-0.47-0.53-0.47s-0.29 0.18-0.5 0.52c-0.89 1.54-1.79 3.08-2.65 4.63-0.09 0.16-0.09 0.39-0.07 0.58 0.16 1.43 0.4 2.84 0.51 4.28 0.15 2.08-0.72 2.8-2.33 3-7.45 0.93-14.9 1.81-22.35 2.69-0.21 0.03-0.4 0.04-0.59 0.04-1.43 0-2.18-0.76-2.37-2.36-1.84-14.9-3.66-29.81-5.5-44.71-0.32-2.67-0.66-5.33-0.97-8-0.19-1.66 0.39-2.45 2.05-2.83 0.23-0.05 0.47-0.08 0.71-0.11 7.17-0.86 14.35-1.73 21.53-2.59 0.25-0.03 0.51-0.04 0.77-0.04h0.13c1.54 0 2.29 0.94 2.48 2.42 0.7 5.41 1.34 10.83 2.01 16.24l0.06 0.54c0.05 0 0.1 0.02 0.15 0.04 0.51-1.14 1.01-2.28 1.51-3.43 2.24-5.13 4.52-10.24 6.71-15.39 0.66-1.54 1.76-2.24 3.34-2.43 0.48-0.05 0.95-0.12 1.43-0.17 7.35-0.89 14.69-1.76 22.05-2.64 0.25-0.03 0.51-0.04 0.77-0.04m-0.02-13.65c-0.81 0-1.62 0.04-2.4 0.14-5.9 0.7-11.8 1.41-17.7 2.12l-4.37 0.52-1.36 0.17c-3.15 0.36-6 1.43-8.38 3.1-1.92-0.77-4.03-1.19-6.28-1.19h-0.56c-0.67 0.03-1.34 0.07-1.99 0.15l-21.54 2.59c-0.47 0.05-1.25 0.14-2.2 0.37-8.55 1.98-13.61 9.09-12.6 17.69 0.28 2.35 0.56 4.7 0.85 7.04l0.13 1.03 0.62 5.07c1.62 13.22 3.25 26.43 4.87 39.66 1.05 8.45 7.65 14.36 16.07 14.36 0.73 0 1.47-0.04 2.22-0.13 7.48-0.89 14.96-1.76 22.44-2.7 2.91-0.36 5.49-1.34 7.63-2.8 1.9 0.68 3.93 1.04 6.03 1.04 0.76 0 1.53-0.04 2.31-0.14l7.5-0.89c5.69-0.68 11.38-1.36 17.07-2.06 2.15-0.27 3.81-0.9 4.6-1.21 7.06-2.66 10.99-9.99 9.27-17.1-0.61-2.52-1.68-4.77-3.17-6.66-2.1-2.67-4.22-5.31-6.34-7.96l-1.97-2.46-2.64-3.29c-1.31-1.64-2.61-3.27-3.92-4.91 0.15-0.29 0.31-0.59 0.46-0.89l1.92-3.73 2.99-5.77c1.47-2.83 2.94-5.66 4.4-8.49 0.87-1.67 1.45-3.45 1.75-5.28 0.67-4.1-0.34-8.15-2.83-11.4s-6.16-5.3-10.32-5.79c-0.87-0.1-1.73-0.15-2.58-0.15"/>
  <path class="cls-1" d="m393.64 13.64c2.55 0 5.08 0.27 7.59 0.95 5.21 1.4 9.31 4.37 12.36 8.73 1.6 2.28 2.92 4.7 3.8 7.34 0.53 1.59 1.22 3.13 1.62 4.75 1.09 4.49 1.78 9.02 1.02 13.65-0.74 4.59-2.75 8.55-6.05 11.87-2.52 2.55-5.48 4.49-8.71 6.07-3.35 1.63-6.83 2.9-10.42 3.91-8.25 2.32-16.52 4.61-24.77 6.93-0.23 0.06-0.45 0.13-0.69 0.17-0.25 0.04-0.47 0.05-0.68 0.05-1.06 0-1.61-0.5-2.04-1.75-0.29-0.83-0.52-1.67-0.77-2.52-2.17-7.56-4.33-15.13-6.5-22.7h0.03c-2.31-8.08-4.62-16.15-6.92-24.23-0.18-0.63-0.29-1.29-0.39-1.94-0.09-0.6 0.18-1.08 0.68-1.4 0.42-0.27 0.87-0.53 1.34-0.66 8.84-2.49 17.66-4.99 26.52-7.39 2.7-0.73 5.45-1.22 8.25-1.52 1.58-0.18 3.16-0.27 4.72-0.27m-4.55 42.54c0.05 0 0.11 0 0.18-0.04 0.72-0.23 1.46-0.38 2.18-0.65 1.66-0.62 2.98-1.64 3.18-3.5 0.12-1.13 0.15-2.35-0.12-3.44-0.91-3.67-1.94-7.3-3-10.92-0.5-1.71-0.99-3.44-2.02-4.95-0.81-1.2-1.81-2.05-3.34-2.2-0.15-0.02-0.31-0.02-0.46-0.02-1.25 0-2.43 0.45-3.62 0.77-0.09 0.02-0.18 0.29-0.14 0.41 1.14 4.03 2.29 8.06 3.45 12.09h-0.03c1.16 4.03 2.31 8.06 3.46 12.09 0.06 0.21 0.13 0.34 0.3 0.34m4.54-56.2c-1.99 0-4.03 0.12-6.24 0.35-3.7 0.4-7.11 1.04-10.41 1.93-7.55 2.05-15.19 4.21-22.57 6.29l-4.06 1.14c-2.19 0.62-3.83 1.55-5.01 2.3-5.07 3.21-7.76 9.06-6.88 14.91 0.15 1.03 0.37 2.26 0.75 3.6 1.07 3.75 2.15 7.51 3.21 11.26h-0.02l3.72 12.98 1.5 5.26 4.99 17.44 0.05 0.19c0.29 1 0.58 2 0.91 2.98 2.33 6.79 8.11 11.01 15.11 11.01 0.87 0 1.73-0.06 2.65-0.19 1.13-0.16 2-0.42 2.42-0.53l6.23-1.74c6.2-1.73 12.4-3.46 18.59-5.2 4.55-1.28 8.84-2.89 12.75-4.79 4.95-2.41 9.02-5.27 12.48-8.77 5.3-5.36 8.6-11.83 9.8-19.23s-0.03-14.05-1.23-19c-0.44-1.82-1.02-3.37-1.48-4.61-0.15-0.41-0.31-0.81-0.44-1.22-1.25-3.74-3.07-7.28-5.56-10.84-4.94-7.04-11.88-11.92-20.09-14.13-3.54-0.96-7.2-1.43-11.19-1.43z"/>
  <path class="cls-1" d="m446.83 20.07c0.99 0 1.99 0.05 2.98 0.14 2.23 0.21 4.42 0.69 6.61 1.19 3.99 0.89 7.74 2.43 11.44 4.07 2.18 0.97 4.26 2.15 6.25 3.47 3.79 2.5 7.21 5.36 9.61 9.24 1.97 3.18 2.87 6.62 2.29 10.34-0.08 0.51-0.25 1.03-0.44 1.52-0.25 0.66-0.78 1-1.45 1h-0.07c-0.56-0.02-1.15-0.11-1.66-0.31-5.74-2.21-11.48-4.44-17.22-6.66-0.37-0.15-0.76-0.27-1.14-0.4-1.39-0.46-1.91-1.14-1.94-2.6-0.02-1.22-0.44-2.28-1.37-3.08-0.91-0.79-2-1.27-3.17-1.57-0.44-0.11-0.88-0.19-1.33-0.19-0.3 0-0.6 0.04-0.9 0.12-1.51 0.4-2.28 1.98-1.49 3.32 0.4 0.67 0.92 1.34 1.54 1.8 1.44 1.07 2.97 2.03 4.5 2.99 2.32 1.48 4.7 2.88 7 4.39 3.1 2.03 5.99 4.3 8.38 7.14 2.21 2.62 3.71 5.57 3.93 9.02 0.13 2.02-0.05 4.03-0.85 5.93-0.52 1.25-0.9 2.59-1.59 3.75-2.46 4.19-6.2 6.7-10.96 7.81-2.05 0.48-4.12 0.68-6.19 0.68-1 0-2-0.04-3-0.13-2.59-0.22-5.12-0.77-7.65-1.34-4.23-0.95-8.11-2.77-12.1-4.35-1.11-0.43-2.13-1.12-3.17-1.72-4.58-2.63-8.72-5.77-11.58-10.28-2.43-3.83-3.2-7.99-2.31-12.42 0.27-1.37 1.04-2.09 2.12-2.09 0.39 0 0.82 0.1 1.29 0.28 1.56 0.65 3.16 1.23 4.74 1.84s3.15 1.23 4.73 1.84c0-0.02 0.02-0.04 0.03-0.06 3.1 1.2 6.19 2.41 9.28 3.61 0.32 0.12 0.64 0.29 0.97 0.43 0.6 0.25 0.9 0.74 1.02 1.33 0.08 0.43 0.12 0.85 0.14 1.28 0.07 1.9 1.23 3.52 3.02 4.2 0.58 0.22 1.15 0.47 1.73 0.66 0.51 0.18 1.02 0.27 1.53 0.27 0.64 0 1.27-0.15 1.89-0.48 1.15-0.61 1.62-2.05 0.94-3.15-0.42-0.67-0.97-1.34-1.61-1.82-1.54-1.16-3.15-2.25-4.78-3.29-3.01-1.92-6.12-3.69-9.07-5.7-3.12-2.13-5.89-4.66-7.83-7.94-1.57-2.65-2.26-5.49-1.97-8.56 0.27-2.93 1.25-5.63 2.87-8.07 2.9-4.37 7.17-6.54 12.33-7.24 1.23-0.17 2.45-0.24 3.68-0.24m0-13.63c-1.88 0-3.75 0.12-5.55 0.36-11.99 1.62-18.59 8.11-22.01 13.27-2.88 4.35-4.58 9.16-5.06 14.28-0.15 1.65-0.16 3.28-0.04 4.87-3.99 2.24-6.94 6.19-7.91 11.08-1.56 7.84-0.13 15.54 4.14 22.3 4.86 7.68 11.65 12.15 16.34 14.84l0.56 0.34c1.07 0.64 2.54 1.51 4.43 2.26 0.84 0.33 1.67 0.67 2.5 1.01 3.38 1.39 7.23 2.98 11.65 3.97 2.64 0.59 5.9 1.32 9.54 1.63 1.42 0.12 2.82 0.18 4.17 0.18 3.25 0 6.4-0.35 9.37-1.05 8.59-2.01 15.41-6.92 19.7-14.23 1.07-1.82 1.69-3.47 2.14-4.68 0.09-0.25 0.18-0.5 0.28-0.74 1.51-3.62 2.14-7.66 1.86-11.98-0.04-0.69-0.11-1.38-0.21-2.06 2.55-1.71 4.59-4.2 5.75-7.22 0.37-0.97 0.89-2.46 1.18-4.28 1.05-6.7-0.39-13.47-4.16-19.54-4.13-6.68-9.82-10.88-13.73-13.46-2.8-1.84-5.5-3.34-8.25-4.56-4.22-1.88-8.84-3.77-14.07-4.94-2.31-0.51-5.18-1.15-8.34-1.45-1.44-0.13-2.89-0.2-4.3-0.2"/>
  <path class="cls-2" d="m256.69 84.34c-2.94 0-4.93-1.84-5.32-4.93l-5.63-45.82c-0.28-2.3-0.56-4.6-0.84-6.91-0.37-3.15 1.16-5.29 4.3-6.02 0.31-0.07 0.62-0.12 0.94-0.15l21.62-2.59c0.33-0.04 0.69-0.06 1.03-0.06 3.15 0 5.23 1.9 5.62 4.97 0.27 2.13 0.54 4.28 0.8 6.41 1.34-3.06 2.67-6.1 3.97-9.17 0.72-1.7 2.29-3.8 5.72-4.2 0 0 18.14-2.18 23.47-2.81 0.37-0.04 0.75-0.07 1.12-0.07 0.44 0 0.88 0.03 1.32 0.08 1.2 0.14 2.25 0.71 2.93 1.61 0.69 0.9 0.97 2.06 0.77 3.25-0.11 0.7-0.35 1.43-0.7 2.1l-9.28 17.92c-1.22 2.36-2.43 4.73-3.66 7.08 2.74 3.4 5.46 6.81 8.19 10.22l4.62 5.78c2.12 2.65 4.23 5.29 6.33 7.94 0.54 0.67 0.92 1.51 1.17 2.57 0.47 1.92-0.56 3.83-2.45 4.55-0.76 0.29-1.41 0.54-2.2 0.64-6.14 0.74-24.55 2.96-24.55 2.96-0.34 0.04-0.68 0.06-1 0.06-2.29 0-4.23-1.02-5.61-2.95-1.45-2.03-2.94-4.04-4.44-6.04-0.17 0.29-0.33 0.59-0.51 0.89l0.12 0.91c0.14 0.97 0.26 1.95 0.33 2.92 0.25 3.46-1.53 5.69-4.91 6.11-7.45 0.93-14.91 1.82-22.37 2.69-0.33 0.04-0.64 0.05-0.93 0.05"/>
  <path class="cls-3" d="m313.53 15.91c0.32 0 0.65 0.02 0.97 0.06 0.83 0.1 1.27 0.68 1.14 1.5-0.07 0.43-0.22 0.85-0.42 1.23-2.45 4.76-4.93 9.5-7.38 14.25-2.01 3.9-4 7.8-6.05 11.68-0.31 0.58-0.26 0.89 0.14 1.38 3.87 4.79 7.7 9.61 11.54 14.42 2.75 3.44 5.51 6.88 8.25 10.34 0.32 0.41 0.51 0.95 0.63 1.46 0.12 0.5-0.12 0.95-0.64 1.13-0.5 0.19-0.99 0.41-1.51 0.47-8.18 1-16.36 1.97-24.54 2.96-0.23 0.03-0.43 0.04-0.65 0.04-1.32 0-2.36-0.54-3.19-1.72-2.16-3.01-4.4-5.98-6.61-8.96-0.23-0.31-0.39-0.47-0.53-0.47s-0.29 0.18-0.5 0.52c-0.89 1.54-1.79 3.08-2.65 4.63-0.09 0.16-0.09 0.39-0.07 0.58 0.16 1.43 0.4 2.85 0.51 4.28 0.15 2.08-0.72 2.8-2.33 2.99-7.45 0.93-14.9 1.82-22.35 2.69-0.21 0.03-0.4 0.04-0.59 0.04-1.43 0-2.18-0.76-2.37-2.36-1.84-14.9-3.66-29.81-5.5-44.71-0.32-2.67-0.66-5.33-0.97-8-0.19-1.66 0.39-2.45 2.05-2.84 0.23-0.05 0.47-0.08 0.71-0.11 7.17-0.87 14.35-1.73 21.53-2.59 0.25-0.03 0.51-0.04 0.77-0.04h0.13c1.54 0 2.29 0.94 2.48 2.42 0.7 5.41 1.34 10.83 2.01 16.24l0.06 0.54c0.05 0 0.1 0.02 0.15 0.04 0.51-1.14 1.01-2.28 1.51-3.43 2.24-5.13 4.52-10.24 6.71-15.39 0.66-1.54 1.76-2.24 3.34-2.43 0.48-0.05 0.95-0.12 1.43-0.17 7.35-0.89 14.69-1.76 22.05-2.64 0.25-0.03 0.51-0.04 0.77-0.04m-0.02-5.86c-0.5 0-0.98 0.03-1.47 0.09-5.89 0.69-11.78 1.4-17.66 2.11l-4.4 0.53-0.47 0.05-0.93 0.12c-3.78 0.43-6.66 2.56-8.11 5.98-0.04 0.1-0.08 0.19-0.13 0.29-1.42-2.67-4.09-4.3-7.34-4.3h-0.32c-0.42 0.02-0.86 0.04-1.29 0.1l-21.53 2.58c-0.5 0.06-0.93 0.12-1.35 0.22-4.59 1.07-7.11 4.59-6.57 9.2 0.27 2.34 0.56 4.67 0.85 7l0.13 1.03 0.62 5.05c1.62 13.22 3.25 26.44 4.87 39.67 0.56 4.56 3.8 7.5 8.25 7.5 0.41 0 0.83-0.03 1.28-0.08 7.46-0.89 14.93-1.76 22.39-2.69 3.56-0.44 6.07-2.46 7.07-5.43 1.91 2.34 4.58 3.61 7.58 3.61 0.44 0 0.89-0.03 1.36-0.08l7.48-0.89c5.69-0.68 11.38-1.36 17.08-2.06 1.16-0.14 2.08-0.5 2.69-0.74l0.19-0.07c3.3-1.24 5.1-4.59 4.29-7.96-0.35-1.44-0.93-2.68-1.72-3.69-2.08-2.65-4.19-5.28-6.29-7.91l-1.98-2.47-2.64-3.3c-2.35-2.94-4.69-5.88-7.05-8.81 0.92-1.78 1.84-3.55 2.75-5.33l1.93-3.75 3-5.77c1.46-2.82 2.93-5.65 4.4-8.48 0.49-0.95 0.82-1.95 0.98-2.97 0.32-1.98-0.15-3.92-1.34-5.47-1.18-1.54-2.94-2.52-4.95-2.75-0.56-0.07-1.12-0.1-1.66-0.1"/>
  <path class="cls-2" d="m368.73 80.96c-1.62 0-3.78-0.65-4.84-3.74-0.29-0.84-0.53-1.69-0.78-2.54l-7.26-25.35h0.02l-6.2-21.71c-0.21-0.74-0.35-1.53-0.47-2.3-0.26-1.7 0.5-3.35 2-4.3 0.61-0.39 1.29-0.78 2.12-1.01l3.91-1.1c7.54-2.13 15.07-4.25 22.63-6.3 2.74-0.75 5.6-1.28 8.71-1.61 1.8-0.19 3.46-0.29 5.04-0.29 3.02 0 5.75 0.35 8.37 1.05 5.79 1.56 10.51 4.89 14.02 9.89 1.9 2.7 3.26 5.35 4.18 8.09 0.18 0.53 0.37 1.06 0.57 1.59 0.4 1.07 0.82 2.19 1.11 3.39 0.97 3.99 1.97 9.27 1.07 14.8-0.84 5.18-3.15 9.71-6.85 13.45-2.58 2.61-5.7 4.78-9.51 6.64-3.37 1.64-6.94 2.98-10.92 4.1l-24.77 6.93c-0.43 0.12-0.74 0.2-1.06 0.25-0.41 0.06-0.77 0.09-1.1 0.09m22.2-28.4c0.7-0.35 0.74-0.66 0.76-0.84 0.11-1.06 0.1-1.86-0.04-2.44-0.95-3.83-2.03-7.62-2.97-10.81-0.47-1.59-0.88-3.02-1.63-4.13-0.59-0.87-0.92-0.89-1.16-0.92h-0.39c0.78 2.77 3.49 12.23 3.49 12.23h-0.03z"/>
  <path class="cls-3" d="m393.64 13.64c2.55 0 5.07 0.27 7.59 0.95 5.21 1.4 9.31 4.37 12.36 8.73 1.6 2.28 2.92 4.7 3.8 7.34 0.52 1.59 1.22 3.13 1.62 4.75 1.09 4.49 1.78 9.02 1.02 13.65-0.74 4.59-2.75 8.55-6.05 11.87-2.53 2.55-5.49 4.49-8.71 6.06-3.35 1.63-6.83 2.9-10.42 3.91-8.26 2.31-16.52 4.61-24.77 6.93-0.23 0.06-0.45 0.13-0.69 0.17s-0.47 0.05-0.68 0.05c-1.06 0-1.61-0.5-2.04-1.75-0.29-0.83-0.52-1.67-0.77-2.52-2.17-7.56-4.33-15.13-6.5-22.7h0.02c-2.31-8.08-4.62-16.14-6.92-24.23-0.18-0.63-0.3-1.28-0.39-1.94-0.09-0.59 0.18-1.08 0.68-1.4 0.42-0.27 0.87-0.53 1.34-0.66 8.84-2.49 17.66-4.99 26.52-7.39 2.7-0.74 5.45-1.22 8.25-1.52 1.58-0.18 3.16-0.27 4.72-0.27m-4.55 42.53c0.05 0 0.11 0 0.18-0.04 0.72-0.23 1.46-0.38 2.17-0.65 1.66-0.62 2.98-1.64 3.18-3.5 0.12-1.13 0.15-2.35-0.12-3.44-0.91-3.67-1.94-7.3-3-10.92-0.5-1.71-0.99-3.44-2.02-4.95-0.81-1.2-1.81-2.06-3.34-2.2-0.15-0.02-0.31-0.02-0.46-0.02-1.25 0-2.43 0.45-3.62 0.77-0.09 0.02-0.18 0.29-0.14 0.41 1.14 4.03 2.29 8.06 3.45 12.09h-0.03c1.16 4.03 2.31 8.06 3.46 12.09 0.06 0.21 0.13 0.34 0.3 0.34m4.53-48.4c-1.71 0-3.47 0.1-5.37 0.31-3.28 0.35-6.28 0.91-9.18 1.7-7.52 2.05-15.13 4.19-22.5 6.27l-4.07 1.14c-1.19 0.34-2.14 0.88-2.91 1.36-2.49 1.58-3.76 4.33-3.33 7.19 0.13 0.82 0.28 1.72 0.54 2.65 1.77 6.2 3.54 12.4 5.32 18.6l1.59 5.64 1.54 5.38 4.96 17.31 0.05 0.2c0.25 0.87 0.51 1.74 0.79 2.6 1.77 5.16 5.93 5.72 7.63 5.72 0.49 0 0.98-0.04 1.52-0.12 0.6-0.09 1.07-0.22 1.36-0.3l6.29-1.75c6.19-1.73 12.38-3.45 18.57-5.19 4.15-1.16 7.89-2.57 11.43-4.29 4.12-2.01 7.5-4.37 10.32-7.22 4.14-4.19 6.71-9.24 7.65-15.03 0.98-6.04-0.08-11.69-1.11-15.94-0.33-1.38-0.8-2.62-1.21-3.73-0.18-0.49-0.37-0.98-0.53-1.48-1-3.01-2.5-5.91-4.55-8.85-3.92-5.59-9.19-9.3-15.68-11.04-2.87-0.77-5.86-1.15-9.13-1.15"/>
  <path class="cls-2" d="m459.6 86.12c-1.08 0-2.16-0.05-3.25-0.14-2.87-0.24-5.63-0.86-8.06-1.4-3.52-0.79-6.76-2.12-9.89-3.41-0.88-0.36-1.76-0.73-2.64-1.07-1.06-0.42-2-0.97-2.83-1.47l-0.74-0.43c-3.7-2.13-9.02-5.61-12.61-11.26-2.82-4.46-3.74-9.36-2.7-14.54 0.54-2.7 2.51-4.45 5.02-4.45 0.78 0 1.61 0.17 2.43 0.51 1.02 0.42 2.05 0.81 3.08 1.2l3.54 1.37 1.21 0.44c-1.98-1.81-3.57-3.74-4.81-5.82-1.9-3.21-2.7-6.68-2.36-10.31 0.31-3.37 1.44-6.53 3.34-9.4 3.18-4.8 8.02-7.67 14.4-8.53 1.33-0.18 2.7-0.27 4.09-0.27 1.09 0 2.18 0.05 3.27 0.16 2.31 0.22 4.44 0.67 6.99 1.24 4.3 0.96 8.31 2.61 12 4.26 2.2 0.97 4.39 2.19 6.68 3.7 3.06 2.02 7.47 5.27 10.5 10.14 2.45 3.95 3.35 8.09 2.69 12.32-0.13 0.81-0.38 1.52-0.6 2.11-0.69 1.78-2.3 2.89-4.22 2.89-1.13-0.04-2.02-0.2-2.82-0.5-2.38-0.92-4.77-1.83-7.15-2.75 1.25 1.11 2.36 2.25 3.36 3.44 2.85 3.38 4.36 6.88 4.6 10.71 0.18 2.73-0.17 5.08-1.06 7.24-0.15 0.36-0.29 0.74-0.42 1.1-0.34 0.94-0.74 1.99-1.34 3-2.8 4.76-7.12 7.86-12.82 9.19-2.19 0.5-4.44 0.76-6.88 0.76m-12.56-24.63c0.08 0.66 0.49 1.17 1.11 1.4l0.69 0.27c0.32 0.12 0.62 0.25 0.95 0.35 0.05 0.02 0.09 0.04 0.14 0.04-0.06-0.06-0.12-0.1-0.15-0.13-0.86-0.64-1.76-1.28-2.74-1.95m11.9-21.09c-0.05-0.09-0.13-0.15-0.19-0.2-0.28-0.25-0.61-0.45-1.01-0.62 0.4 0.28 0.79 0.55 1.2 0.82z"/>
  <path class="cls-3" d="m446.83 20.07c0.99 0 1.99 0.05 2.98 0.14 2.23 0.21 4.42 0.69 6.61 1.19 3.99 0.89 7.74 2.43 11.44 4.07 2.18 0.97 4.26 2.15 6.25 3.47 3.79 2.5 7.21 5.36 9.61 9.24 1.97 3.18 2.87 6.62 2.29 10.34-0.08 0.51-0.25 1.03-0.44 1.52-0.25 0.66-0.78 1-1.45 1h-0.07c-0.56-0.02-1.15-0.11-1.66-0.31-5.74-2.21-11.48-4.44-17.22-6.66-0.37-0.15-0.76-0.27-1.14-0.4-1.39-0.46-1.91-1.14-1.94-2.6-0.02-1.23-0.44-2.28-1.37-3.08-0.91-0.79-2-1.27-3.17-1.56-0.44-0.12-0.88-0.19-1.33-0.19-0.3 0-0.6 0.04-0.9 0.12-1.51 0.4-2.28 1.98-1.49 3.32 0.4 0.67 0.92 1.34 1.54 1.8 1.44 1.07 2.97 2.03 4.5 3 2.32 1.48 4.7 2.88 7 4.39 3.1 2.03 5.99 4.3 8.38 7.14 2.21 2.62 3.71 5.57 3.93 9.02 0.13 2.03-0.05 4.03-0.85 5.93-0.52 1.26-0.9 2.59-1.59 3.75-2.46 4.19-6.2 6.7-10.96 7.82-2.05 0.48-4.12 0.68-6.19 0.68-1 0-1.99-0.04-3-0.13-2.59-0.22-5.12-0.77-7.65-1.34-4.23-0.95-8.11-2.77-12.1-4.35-1.11-0.44-2.13-1.12-3.17-1.72-4.58-2.63-8.72-5.77-11.58-10.28-2.43-3.83-3.2-7.99-2.31-12.42 0.27-1.36 1.04-2.09 2.12-2.09 0.39 0 0.82 0.1 1.29 0.28 1.56 0.65 3.16 1.22 4.74 1.84 1.58 0.61 3.16 1.23 4.73 1.84 0-0.02 0.02-0.04 0.03-0.06 3.1 1.2 6.19 2.41 9.28 3.61 0.32 0.12 0.64 0.28 0.97 0.43 0.6 0.25 0.9 0.73 1.02 1.33 0.08 0.42 0.12 0.85 0.14 1.28 0.07 1.9 1.23 3.52 3.02 4.2 0.58 0.22 1.15 0.47 1.73 0.66 0.51 0.18 1.02 0.27 1.53 0.27 0.64 0 1.27-0.15 1.89-0.48 1.15-0.61 1.62-2.05 0.94-3.14-0.42-0.67-0.97-1.34-1.61-1.82-1.54-1.16-3.15-2.25-4.77-3.29-3.01-1.92-6.12-3.69-9.07-5.7-3.12-2.13-5.89-4.66-7.83-7.94-1.57-2.65-2.26-5.49-1.97-8.56 0.27-2.93 1.25-5.63 2.87-8.07 2.9-4.37 7.17-6.54 12.33-7.24 1.23-0.17 2.46-0.24 3.68-0.24m0-5.84c-1.52 0-3.03 0.1-4.48 0.29-7.27 0.98-12.82 4.29-16.48 9.83-2.18 3.28-3.45 6.88-3.81 10.73-0.32 3.54 0.26 6.95 1.75 10.16-0.63-0.14-1.27-0.21-1.9-0.21-3.93 0-7.11 2.74-7.92 6.8-1.18 5.94-0.14 11.55 3.1 16.66 3.94 6.21 9.66 9.95 13.62 12.24 0.23 0.13 0.45 0.27 0.68 0.4 0.88 0.53 1.99 1.19 3.28 1.69 0.88 0.35 1.73 0.7 2.6 1.05 3.25 1.34 6.61 2.71 10.37 3.56 2.39 0.54 5.37 1.2 8.47 1.47 1.19 0.1 2.37 0.15 3.5 0.15 2.67 0 5.14-0.27 7.55-0.83 6.53-1.53 11.47-5.08 14.7-10.57 0.72-1.23 1.18-2.46 1.55-3.45 0.13-0.34 0.25-0.67 0.39-1.01 1.06-2.56 1.48-5.35 1.28-8.53-0.17-2.71-0.91-5.34-2.21-7.84 0.32 0.04 0.64 0.06 0.98 0.07h0.28c3.13 0 5.88-1.88 6.99-4.77 0.27-0.7 0.6-1.63 0.76-2.7 0.77-4.93-0.27-9.74-3.09-14.29-3.32-5.37-8.09-8.87-11.38-11.04-2.44-1.6-4.76-2.9-7.11-3.94-3.84-1.71-8.02-3.43-12.57-4.45-2.2-0.49-4.69-1.04-7.36-1.29-1.2-0.12-2.39-0.17-3.55-0.17"/>
  <path class="cls-2" d="m341.6 89.85c-0.31 0-0.64-0.02-0.99-0.05l-20.47-2.13c-0.48-0.05-0.97-0.12-1.43-0.23-3.02-0.67-3.57-2.72-3.66-3.57-0.05-0.4-0.05-0.8 0-1.19l2.97-27.98c0.1-0.9 0.72-3.85 4.77-3.85 0.39 0 0.84 0.03 1.34 0.08l20.17 2.1c0.5 0.05 1.01 0.14 1.5 0.26 2.8 0.68 3.67 2.66 3.57 4.15-0.02 0.27-0.87 8.17-0.87 8.17l-2.19 20.57c-0.19 1.77-1.52 3.67-4.68 3.67"/>
  <path class="cls-3" d="m322.77 53.6c0.31 0 0.65 0.02 1.05 0.06 6.72 0.7 13.45 1.4 20.17 2.1 0.38 0.04 0.76 0.11 1.12 0.19 0.95 0.23 1.5 0.73 1.46 1.3-0.02 0.34-0.07 0.67-0.1 1.01l-1.44 13.44c-0.51 4.74-1.01 9.47-1.51 14.2-0.09 0.81-0.71 1.2-1.92 1.2-0.22 0-0.46 0-0.71-0.04-1.62-0.16-3.23-0.34-4.86-0.5-5.21-0.54-10.41-1.08-15.6-1.62-0.38-0.04-0.76-0.1-1.13-0.18-0.95-0.21-1.44-0.6-1.51-1.2-0.03-0.2-0.03-0.41 0-0.6 0.99-9.33 1.99-18.65 2.98-27.97 0.1-0.98 0.65-1.39 1.99-1.39m0.01-5.48c-5.06 0-7.22 3.4-7.53 6.31l-0.31 2.9-2.66 25.08c-0.06 0.58-0.06 1.19 0 1.78 0.26 2.31 1.92 5.09 5.82 5.95 0.56 0.12 1.15 0.22 1.75 0.28l12.56 1.31 3.05 0.32 1.45 0.15c1.15 0.12 2.28 0.24 3.43 0.35 0.46 0.04 0.88 0.07 1.27 0.07 4.69 0 7.13-3.07 7.45-6.13l1.39-13.05 0.12-1.15 1.42-13.44 0.03-0.27c0.04-0.31 0.07-0.63 0.09-0.94 0.19-2.76-1.49-6-5.69-7.01-0.6-0.15-1.23-0.26-1.86-0.32l-17.49-1.82-2.68-0.28c-0.61-0.06-1.16-0.1-1.63-0.1"/>
  <path class="cls-2" d="m335.15 56.74c-8.5 0-15.38-6.59-15.64-14.99-0.13-4.13 1.38-8.07 4.24-11.08s6.74-4.74 10.93-4.87h0.5c8.5 0 15.38 6.58 15.64 14.98 0.14 4.14-1.37 8.07-4.24 11.08-2.86 3.01-6.74 4.74-10.93 4.87h-0.5z"/>
  <path class="cls-3" d="m335.17 28.66c6.86 0 12.53 5.39 12.73 12.21 0.22 6.96-5.31 12.77-12.35 12.99h-0.41c-6.86 0-12.53-5.38-12.74-12.21-0.22-6.96 5.32-12.77 12.35-12.98h0.41m0-5.75h-0.59c-4.95 0.15-9.56 2.21-12.95 5.77-3.39 3.57-5.18 8.24-5.03 13.13 0.32 9.97 8.47 17.77 18.56 17.77h0.59c10.23-0.32 18.3-8.79 17.98-18.91-0.32-9.97-8.47-17.78-18.56-17.78"/>
 </g>
</svg>
