<svg version="1.1" viewBox="0 0 1160.8 300" xml:space="preserve" xmlns="http://www.w3.org/2000/svg">
 <style type="text/css">
  .st0{fill:#3349EB;}
  .st1{fill:#FFBB18;}
  .st2{fill:#E21306;}
  .st3{fill:#1BC14F;}
  .st4{fill:#FFF;}
  .st5{fill:url(#a);}
 </style>
 <g  stroke-width="2.322">
  <path class="st0" d="m734.44 197.14v-70.124l13.468-2.322v38.545l12.074-15.789h16.254l-15.325 17.879 19.272 31.579h-15.325l-12.539-21.362-4.1796 4.8762v16.486h-13.7z"/>
  <path class="st1" d="m788.08 138.16c-1.6254-1.6254-2.322-3.483-2.322-5.5728 0-2.322 0.6966-3.9474 2.322-5.3406 1.6254-1.3932 3.483-2.0898 5.3406-2.0898 2.0898 0 3.9474 0.69659 5.5728 2.0898s2.322 3.2508 2.322 5.3406-0.92879 3.9474-2.322 5.5728c-1.6254 1.6254-3.483 2.322-5.5728 2.322-2.0898-0.2322-3.9474-0.9288-5.3406-2.322zm-1.161 58.746v-49.923h13.468v49.923z"/>
  <path class="st2" d="m848.68 196.9-0.92879-4.4118c-3.7152 3.9474-8.3591 5.805-13.932 5.805-6.9659 0-12.306-2.5542-16.718-7.8947-4.1796-5.1084-6.5015-11.378-6.5015-18.344 0-6.9659 2.0898-13.235 6.5015-18.344 4.1796-5.3406 9.7523-7.8947 16.95-7.8947 5.1084 0 9.5201 1.6254 13.235 5.1084v-25.077h13.467v71.285h-12.074zm-13.003-10.449c3.483 0 6.5016-1.3932 8.8235-3.9474 2.322-2.7864 3.483-6.0372 3.483-10.449 0-4.4118-1.161-7.8947-3.483-10.449-2.322-2.7864-5.3406-3.9474-8.5913-3.9474-3.483 0-6.2694 1.3932-8.1269 4.4118-1.8576 2.7864-2.7864 6.2694-2.7864 10.217s0.92879 7.4303 2.7864 10.217c1.6254 2.5542 4.4118 3.9474 7.8947 3.9474z"/>
  <path class="st0" d="m953.41 197.14v-6.9659l18.808-31.347h-17.647v-11.61h36.223v6.966l-18.808 31.347h19.505v11.61z"/>
  <path class="st1" d="m1042.6 190.87c-4.8762 5.1084-11.146 7.6625-18.808 7.6625s-13.932-2.5542-18.808-7.6625c-4.8762-5.1084-7.1982-11.378-7.1982-18.576s2.322-13.467 7.1982-18.576c4.8761-5.1084 11.146-7.6625 18.808-7.6625s13.932 2.5542 18.808 7.6625c4.8761 5.1084 7.1981 11.378 7.1981 18.576 0.2322 7.1981-2.322 13.467-7.1981 18.576zm-27.167-8.1269c2.322 2.7864 5.1083 3.9474 8.3591 3.9474s6.0372-1.3932 8.3591-3.9474c2.322-2.5542 3.483-6.0372 3.483-10.449 0-4.1796-1.161-7.8947-3.483-10.449-2.3219-2.7864-5.1083-3.9474-8.3591-3.9474s-6.0371 1.3932-8.3591 3.9474c-2.322 2.7864-3.483 6.0372-3.483 10.449 0 4.4118 1.161 7.6625 3.483 10.449z"/>
  <path class="st3" d="m1058.6 197.14v-48.994l11.61-0.92879 0.9288 5.3406c3.483-4.4118 8.5914-6.5016 15.093-6.5016 5.1084 0 9.0557 1.6254 12.074 5.1084s4.4118 8.1269 4.4118 13.932v32.043h-13.7v-30.418c0-6.0372-1.8576-8.8235-5.805-8.8235-3.4829 0-6.2693 1.3932-8.3591 4.4118-1.8576 3.0186-2.7864 7.1981-2.7864 12.306v22.755h-13.468z"/>
  <path class="st2" d="m1155.4 183.44 2.7863 11.146c-5.5727 2.5542-11.378 3.9474-17.647 3.9474-8.3592 0-14.861-2.322-19.505-7.4303-4.6439-5.1084-7.1981-11.378-7.1981-18.808s2.0898-13.467 6.5015-18.808c4.1796-5.1084 9.9846-7.6625 17.183-7.6625 7.4303 0 13.235 2.5542 17.183 7.8947 4.1795 5.3406 6.0371 12.306 6.0371 21.362h-33.436c1.3932 7.6625 5.8049 11.61 13.468 11.61 4.6439 0 9.2879-0.9288 14.628-3.2508zm-27.632-17.183h19.505c-0.6966-3.483-1.8576-5.805-3.483-6.7338-1.6253-1.161-3.7151-1.6254-6.0371-1.6254-5.5728 0-8.8235 2.7864-9.9845 8.3591z"/>
  <path class="st3" d="m959.21 102.17c-0.6966-4.8762-5.1084-7.6625-6.2694-8.3591-5.1084-3.2508-10.449-2.7864-12.771-2.322-10.217 1.161-15.789 7.8947-17.647 10.681-3.483 5.1084-4.1796 9.9845-5.1084 12.771-3.9474-1.6254-8.3591-2.322-13.003-2.0898 0.4644-1.6254 1.6254-4.4118 3.483-6.5016 1.3932-1.6254 3.483-3.483 5.3406-4.1796 4.4118-1.6254 7.6625-3.483 9.0557-5.1084 0.4644-0.4644 2.322-2.7864 2.0898-5.805-0.23219-2.322-1.8576-3.9474-2.5542-4.644-3.0186-2.7864-6.966-2.5542-8.1269-2.5542-4.1796 0.2322-6.9659 2.0898-8.5913 3.2508-6.0372 4.1796-8.3591 10.217-9.5201 13.235-2.0898 5.3406-2.322 10.217-2.322 13.932-9.5201 2.322-18.111 7.1982-21.362 11.146 0 0-7.8947 8.8235-3.7152 18.344 3.9474 9.0557 13.932 9.7523 16.486 9.5201 4.4118-0.46439 8.3591-0.92879 7.6625 1.3932-0.69659 2.7864-13.467 8.3591-15.093 26.703-0.46439 7.1981 1.8576 15.093 7.1981 20.201 3.2508 3.2508 6.7338 4.644 9.9845 5.3406 9.7523 1.8576 21.827 0.9288 29.025-1.3932 7.6625-2.322 10.217-4.644 11.378-5.805 1.6254-1.6254 6.0372-5.805 5.5728-12.074-0.2322-3.7152-1.161-6.966-5.805-9.9845-2.322-1.6254-5.5728-1.3932-10.217-1.3932-1.8576 0-4.1796-0.2322-6.5015-0.4644-2.0898-0.2322-3.9474-0.46439-4.644-2.322-0.92879-2.5542 0.6966-6.7338 3.2508-10.217 2.5542-3.7152 4.1796-4.8762 6.5016-7.4303 1.6254-1.6254 5.805-6.5016 7.8947-13.003 0.6966-2.322 3.9474-9.2879-0.46439-17.415-1.3932-2.5542-3.0186-4.4118-4.8762-6.0372 2.0898-3.483 3.0186-5.3406 5.805-8.5913 1.8576-2.0898 4.644-3.7152 8.3591-3.9474 2.0898-0.23219 6.2694 2.0898 9.2879 2.322 3.2508 0.46439 7.4303 1.3932 9.9845-2.0898 0.69659-1.6254 0.46439-3.9474 0.2322-5.1084z"/>
  <path class="st4" d="m329.49 40.635-14.396-40.635c-67.802 23.452-101.47 78.251-109.37 150-7.4303 66.641-45.511 97.291-80.573 109.37l14.396 40.635c67.802-23.452 101.47-78.251 109.37-150 7.1981-66.641 45.511-97.291 80.573-109.37zm35.294 20.433c-49.226 0-88.932 36.687-88.932 88.932v82.198h44.582l0.23219-82.198c0-29.257 19.737-46.904 44.118-46.904 24.381 0 44.118 17.647 44.118 46.904v82.198h44.814v-82.198c0-52.477-39.706-88.932-88.932-88.932zm-186.69 88.932c0-52.477-39.938-88.932-88.932-88.932-48.994 0-89.164 36.455-89.164 88.932s39.938 89.164 88.932 89.164c48.994 0 89.164-36.687 89.164-89.164zm-89.164 47.136c-24.381 0-44.118-18.808-44.118-47.136 0-29.257 19.737-46.904 44.118-46.904 24.381 0 44.118 17.647 44.118 46.904 0 28.56-19.737 47.136-44.118 47.136z"/>
 </g>
 <linearGradient id="a" x1="207.77" x2="301.66" y1="359.15" y2="359.15" gradientTransform="matrix(2.322 0 0 -2.322 0 980.61)" gradientUnits="userSpaceOnUse">
  <stop stop-color="#CC3A41" offset="0"/>
  <stop stop-color="#3349EB" offset="1"/>
 </linearGradient>
 <path class="st5" d="m655.5 61.068h-111.92s-28.328 0-39.938 25.077l-0.2322 0.2322c-2.5542 5.805-3.9474 12.074-4.1796 18.344h22.755c0-2.7864 0.4644-5.5728 1.3932-8.1269 4.644-11.146 12.539-13.7 20.666-13.932h111.22c12.306 0 22.291 8.8235 22.291 23.452v81.502c0 14.861-9.9845 23.452-22.291 23.452h-36.92l26.238-75h-22.291l-22.523 64.551-22.523-64.551h-55.263v-18.576h-22.755v18.344h-17.183v21.362h17.183v29.954c0 26.238 19.737 44.582 44.118 44.814h31.579l-7.1981-21.362h-23.684c-12.306 0-22.291-8.8235-22.291-23.452v-29.721h40.402l26.238 75h66.873c24.845 0 44.814-18.344 44.814-44.814v-81.734c0.4644-26.471-19.737-44.814-44.582-44.814z" fill="url(#a)" stroke-width="2.322"/>
</svg>
