<svg version="1.1" viewBox="0 0 718.47 265" xml:space="preserve" xmlns="http://www.w3.org/2000/svg">
<path class="st1" d="m0 124.14h105.78l16.352 26.697h-122.14zm0-41.38v26.363h96.775l-16.352-26.363zm103.45-14.683h-103.45v-26.363h110.46v3.3371c0.33371 8.3427-2.0022 16.352-7.0078 23.026m-50.39-68.076h-53.059v26.697h107.12c-7.6752-18.02-28.031-26.697-54.06-26.697m221.58 93.772c0-34.038-21.357-58.732-56.396-58.732-35.039 0-55.395 25.028-55.395 59.4 0 34.372 21.024 58.732 55.062 58.732 34.038 0 56.73-25.028 56.73-59.4zm-26.363 1.3348c0 19.689-9.6775 36.708-29.366 36.708s-29.366-19.355-29.366-37.709c0-18.354 8.3427-37.375 29.366-37.375s29.366 19.355 29.366 38.376zm36.04 27.364v1.0011c0 22.025 20.69 29.7 38.376 29.7s37.709-6.3404 37.709-27.698c0-33.037-50.723-23.026-50.723-35.373 0-6.6741 7.0078-7.3415 11.68-7.3415s14.349 3.3371 14.683 12.013l21.691-1.0011c-1.0011-20.022-18.02-28.365-36.374-28.365s-34.705 6.6741-34.705 26.363c0 33.371 49.389 21.024 49.389 36.04 0 6.6741-7.0078 7.6753-11.68 7.6753-10.679 0-16.352-3.0034-17.686-13.682 0 0-22.358 0.66742-22.358 0.66742zm131.15-36.708v-18.02h-14.349v-24.361h-23.359v24.361h-11.68v18.02h11.68v40.045c0 16.352 3.3371 25.695 22.692 25.695 5.3393 0 10.679-0.33371 16.018-1.0011v-18.354h-6.3404c-7.6752 0-8.6764-3.0034-8.6764-9.6775v-36.708zm36.04-18.02h-23.359v82.759h24.027v-40.712c0-10.011 2.0022-22.358 19.021-22.358h5.673v-21.691h-4.3382c-10.011 0-17.019 3.6708-21.691 15.351zm80.423 56.063c-4.0045 6.6741-11.346 11.012-19.355 10.679-5.0056 0-11.012-2.0022-11.012-8.6764s18.02-11.012 24.694-13.015l5.673-1.6685zm23.359-19.021c0-6.6741 0.33371-16.352-2.0022-22.692-6.0067-14.349-21.691-16.685-35.373-16.685-19.021 0-34.372 8.3427-35.373 28.699h21.691c-0.3337-8.009 8.3427-10.345 14.683-10.345 6.3404 0 12.681 1.6685 12.681 8.009 0 6.3404-8.3427 6.3404-12.681 6.6741-18.02 2.3359-40.712 4.6719-40.712 28.365 0 17.019 12.681 26.697 28.699 26.697 16.018 0 17.019-3.3371 26.029-9.6775v7.3415h22.692zm83.76-36.708h-25.028l-13.682 51.391-15.351-51.391h-25.028l28.699 82.759h22.692zm55.729 55.729c-4.0045 6.6741-11.346 11.012-19.355 10.679-5.0056 0-11.012-2.0022-11.012-8.6764s18.02-11.012 24.694-13.015l5.673-1.6685zm23.359-19.021c0-6.6741 0.33371-16.352-2.0022-22.692-6.3404-14.349-21.691-16.685-35.707-16.685-14.016 0-34.038 8.3427-35.373 28.699h22.025c-0.33371-8.009 8.3427-10.345 14.683-10.345s12.681 1.6685 12.681 8.009c0 6.3404-8.6764 6.3404-12.681 6.6741-18.02 2.3359-40.712 4.6719-40.712 28.365 0 17.019 12.681 26.697 28.699 26.697s17.019-3.3371 26.029-9.6775v7.3415h22.692v-46.385zm-338.04 109.12h-12.013l-6.3404 26.363-7.0078-26.363h-12.013l11.346 31.702c0.66741 1.6685 1.3348 3.6708 1.6685 5.673 0 1.3348-0.66741 3.0034-1.6685 4.0045l-4.6719 1.0011h-3.0034v8.6764h3.0034c5.0056 0 11.012 0.66741 14.349-3.6708 1.6685-2.6696 3.0034-5.673 4.0045-8.6764zm-4.6719-16.685h-13.348l-5.3393 11.346h9.0101zm98.777 55.729v-8.3427l19.689-21.691h-17.353v-9.0101h31.035v9.0101l-18.688 21.357h20.022v9.0101zm64.405 0v-21.691c0.33371-2.6696-0.3337-5.3393-1.6685-7.6752-2.336-1.6685-5.673-1.6685-8.009 0-2.3359 2.6696-3.3371 6.0067-2.6696 9.3438v20.022h-11.012v-53.727h11.012v18.354c2.6696-3.0034 6.6741-4.6719 10.679-4.6719 2.6696 0 5.3393 0.66742 7.6752 2.0022 4.6719 3.0034 5.3393 7.6753 5.3393 13.015v25.028zm30.034 0h-11.346v-53.727h11.346zm84.428-12.013c0-9.6775-9.6775-11.68-17.353-13.015-2.336-0.3337-6.6741-1.0011-6.6741-4.0045s3.0034-3.0034 5.3393-3.0034c2.336 0 4.3382 1.0011 6.0067 2.336 0.66741 1.0011 1.0011 2.0022 1.0011 3.3371l10.679-0.66742c-0.3337-9.6775-8.6764-13.682-17.353-13.682s-16.352 3.3371-16.352 12.681c0 15.351 23.359 9.6775 23.359 16.685s-3.3371 3.6708-5.673 3.6708c-2.3359 0-7.6752-1.3348-8.6764-6.3404h-10.345c0 1.3348 0 2.336 0.3337 3.6708 2.0022 8.009 10.011 11.012 17.686 11.012 7.6753 0 18.02-2.6696 18.02-12.681m-41.38-10.011c0.33371-3.6708 0-7.3415-1.0011-10.679-3.0034-6.6741-10.345-7.6752-16.685-7.6752-6.3404 0-16.352 3.6708-17.019 13.348h10.345c0-4.0045 3.6708-5.0056 7.0078-5.0056 3.3371 0 6.0067 0.66742 6.0067 3.6708s-4.3382 2.6696-6.0067 3.0034c-8.6764 1.0011-19.689 2.0022-19.689 13.348-0.33371 7.0078 5.3393 12.681 12.347 13.015h0.33371 1.0011c4.3382-0.33371 8.6764-2.0022 12.347-4.6719v3.3371h10.679v-21.691zm-11.346 9.0101c-2.0022 3.3371-5.673 5.3393-9.3438 5.0056-2.6696 0.33371-5.0056-1.3348-5.3393-4.0045 0-4.6719 8.3427-5.3393 11.68-6.0067l3.0034-1.0011zm-382.76-5.0056-12.347-0.66741c-0.33371 6.0067-5.3393 10.345-11.346 10.011-3.0034 0-5.673-1.0011-8.009-3.0034-4.0045-4.0045-6.0067-9.3438-5.3393-15.017 0-9.0101 3.6708-17.686 13.682-17.686 4.0045-0.33371 8.009 1.6685 10.011 5.3393l1.0011 2.6697 12.013-0.66742c-0.33371-1.3348-0.66742-2.3359-1.0011-3.6708-3.0034-9.3438-12.681-13.682-22.358-13.682-16.685 0-26.697 11.346-26.697 28.031 0 11.346 5.3393 22.358 16.018 26.363 3.3371 1.3348 7.0078 2.0022 10.679 2.0022 8.6764 0.66741 17.019-3.6708 21.357-11.012 1.3348-3.0034 2.0022-6.0067 2.3359-9.0101m41.713 2.0022v-2.0022c0-12.013-6.3404-22.025-19.355-22.025-13.015 0-19.689 9.0101-19.689 20.69 0 11.68 7.3415 21.024 19.689 21.024 8.3427 0.66741 16.352-4.3382 19.021-12.347l-11.346-1.3348c-1.3348 3.0034-4.3382 4.6719-7.3416 4.3382-4.6719 0-8.3427-3.6708-8.3427-8.3427zm-11.68-9.0101h-15.351c0.66742-4.0045 4.3382-7.0078 8.3427-6.6741 3.6708 0 6.6741 3.0034 7.0078 6.6741m51.057 13.015c0-9.6775-9.6775-11.68-17.353-13.015-2.0022-0.3337-6.6741-1.0011-6.6741-4.0045s3.3371-3.0034 5.3393-3.0034c2.336 0 4.3382 0.66742 6.0067 2.336 0.66741 1.0011 1.0011 2.0022 1.0011 3.3371l10.679-0.66742c-0.33371-9.6775-8.3427-13.682-17.353-13.682s-16.352 3.3371-16.352 12.681c0 15.351 23.359 9.6775 23.359 16.685s-3.0034 3.6708-5.673 3.6708c-2.6696 0-7.6752-1.3348-8.3427-6.3404h-10.679c0 1.3348 0 2.336 0.3337 3.6708 2.0022 8.009 10.345 11.012 17.686 11.012 7.3416 0 18.02-2.6696 18.02-12.681m44.717 11.68-16.352-24.361 15.351-14.683h-14.683l-12.013 13.348v-27.698h-11.346v53.727h11.346v-12.681l3.6708-3.3371 9.6775 16.352zm85.429-29.7v-10.011h-2.0022c-4.6719-0.3337-9.0101 2.6697-10.345 7.0078v-6.3404h-11.012v39.044h11.346v-18.688c0-6.3404 1.3348-11.346 9.0101-11.346l3.0034 0.3337m42.714 9.6775c0.66742-10.345-7.0078-19.689-17.686-20.356h-2.3359c-11.012-0.66741-20.356 7.3416-21.024 18.354v2.6696c0 12.013 7.6752 20.69 19.689 20.69 11.346 0.3337 20.69-8.3427 21.024-19.689 0.3337-0.66742 0.3337-1.0011 0.3337-1.6685m-11.346-0.3337c0 6.0067-2.336 12.347-9.0101 12.347s-8.6764-6.3404-8.6764-12.013c0-5.673 2.0022-11.68 9.0101-11.68s8.6764 5.673 8.6764 11.346m-261.63-37.709h-13.015l-7.0078-8.6764h10.011l3.6708 5.3393 3.3371-5.3393h10.011z" fill="#00ab96" stroke-width="3.3371"/>
</svg>
