<svg width="200mm" height="547.918" viewBox="0 0 200 144.97" xmlns="http://www.w3.org/2000/svg" xmlns:xlink="http://www.w3.org/1999/xlink">
    <defs>
        <linearGradient id="a">
            <stop stop-color="#44b449" offset="0"/>
            <stop stop-color="#288a43" offset="1"/>
        </linearGradient>
        <linearGradient id="b" x1="203.81" x2="827.18" y1="370.42" y2="370.42" gradientUnits="userSpaceOnUse" xlink:href="#a"/>
        <linearGradient id="g" x1="217.44" x2="284.87" y1="315.68" y2="315.68" gradientUnits="userSpaceOnUse" xlink:href="#a"/>
        <linearGradient id="c" x1="104.08" x2="200.74" y1="343" y2="343" gradientUnits="userSpaceOnUse" xlink:href="#a"/>
        <linearGradient id="i" x1="0" x2="96.653" y1="343.27" y2="343.27" gradientUnits="userSpaceOnUse" xlink:href="#a"/>
        <linearGradient id="d" x1="741.15" x2="813.61" y1="315.21" y2="315.21" gradientUnits="userSpaceOnUse" xlink:href="#a"/>
        <linearGradient id="e" x1="830.29" x2="923.99" y1="342.98" y2="342.98" gradientUnits="userSpaceOnUse" xlink:href="#a"/>
        <linearGradient id="f" x1="930.07" x2="1022" y1="299.87" y2="299.87" gradientUnits="userSpaceOnUse" xlink:href="#a"/>
        <linearGradient id="h" x1="931.32" x2="1007.5" y1="389.35" y2="389.35" gradientUnits="userSpaceOnUse" xlink:href="#a"/>
    </defs>
    <path d="M515.45 0l311.73 428.99-311.41 311.84-311.96-311.84C308.32 285.63 421.76 129.14 515.45 0" fill="url(#b)" transform="matrix(.19569 0 0 .19569 .015 -.005)"/>
    <path d="M104.23 256.73c19.42.26 39.46 2.3 57.21 10.77 13.07 6.12 24.05 16.7 30.29 29.76 8.35 17.21 9.72 36.85 8.72 55.69-1.14 17.71-5.89 36.04-17.81 49.67-10.38 12.12-25.45 19.18-40.8 22.63-12.37 2.82-25.1 3.82-37.76 4.01 4.6-.92 9.51-1.82 13.03-5.21 5.88-5.05 7.94-12.94 9.42-20.23 2.53-13.78 3.03-27.84 3.35-41.82.55-18.37.24-36.75-.53-55.1-.76-11.28-1.34-22.77-4.87-33.59-2.46-7.91-9.35-14.39-17.58-15.83-.88-.27-1.92-.15-2.67-.75z" fill="url(#c)" transform="matrix(.19569 0 0 .19569 .015 -.005)"/>
    <path d="M741.15 256.57c24.11.27 48.26.11 72.39.15-.01 39.04-.08 78.11.07 117.13-1.02-7.93-1.1-15.95-2.48-23.83-3.63-21.13-10.42-41.98-21.91-60.19-8.45-13.27-20.12-25.42-35.34-30.55-4.11-1.55-8.53-1.64-12.73-2.71z" fill="url(#d)" transform="matrix(.19569 0 0 .19569 .015 -.005)"/>
    <path d="M885.99 260.89c12.4-3.07 25.23-3.95 37.96-4.25-6.39 1.31-13.08 3.72-17.07 9.2-4.6 6.58-5.91 14.75-7.15 22.51-2.91 22.41-2.55 45.06-2.49 67.61.29 16.32.5 32.77 3.47 48.87 1.42 7.41 4.07 15.41 10.75 19.71 3.64 2.8 8.19 3.66 12.53 4.77-18.99-.53-38.63-2-56-10.39-12.37-5.88-22.64-16.01-28.53-28.38-8.26-17.11-9.72-36.59-9.01-55.31.83-18.08 4.97-36.91 16.58-51.28 9.65-12.14 24.09-19.5 38.96-23.06z" fill="url(#e)" transform="matrix(.19569 0 0 .19569 .015 -.005)"/>
    <path d="M930.07 256.7c18.19.26 36.89 2.55 53.38 10.72 11.62 5.69 21.54 14.87 27.77 26.24 7.91 14.15 10.44 30.57 10.81 46.58v2.79h-90.66c7.03-.75 15.24-1.81 20.03-7.71 4.35-5.46 3.33-12.83 3.3-19.32-.56-15.14-1.7-30.76-7.92-44.78-3.03-7.05-8.89-13.2-16.71-14.52z" fill="url(#f)" transform="matrix(.19569 0 0 .19569 .015 -.005)"/>
    <path d="M217.48 262c0-1.8-.15-3.6.19-5.37 22.29.05 44.6.33 66.88-.12l.32.89c-14.89 2.24-27.51 11.96-36.65 23.5-12.62 16-20.38 35.32-25.31 54.96-3.45 12.73-4.33 25.91-5.47 38.99.05-37.59.05-75.23.04-112.85z" fill="url(#g)" transform="matrix(.19569 0 0 .19569 .015 -.005)"/>
    <path d="M1005.8 364.52c.88-5.12 1.276-9.765 1.68-15.44v80.55h-76.14c3.472-.67 6.64-1.022 9.825-1.459 13.592-1.645 26.8-6.949 37.455-15.59 14.77-11.81 23.89-29.63 27.18-48.06z" fill="url(#h)" transform="matrix(.19569 0 0 .19569 .015 -.005)"/>
    <path d="M96.503 429.54c-19.42-.26-39.46-2.3-57.21-10.77-13.07-6.12-24.05-16.7-30.29-29.76-8.35-17.21-9.72-36.85-8.72-55.69 1.14-17.71 5.89-36.04 17.81-49.67 10.38-12.12 25.45-19.18 40.8-22.63 12.37-2.82 25.1-3.82 37.76-4.01-4.6.92-9.51 1.82-13.03 5.21-5.88 5.05-7.94 12.94-9.42 20.23-2.53 13.78-3.03 27.84-3.35 41.82-.55 18.37-.24 36.75.53 55.1.76 11.28 1.34 22.77 4.87 33.59 2.46 7.91 9.35 14.39 17.58 15.83.88.27 1.92.15 2.67.75z" fill="url(#i)" transform="matrix(.19569 0 0 .19569 .015 -.005)"/>
    <path d="M102.2 50.22l-.17.078c1.798.192 3.358 1.564 3.845 3.295.736 2.406.826 4.946.953 7.439.17 5.15.21 10.319-.237 15.455-.168 1.573-.372 3.172-.947 4.657-.403 1.053-1.168 2.02-2.233 2.454-.444.216-.941.255-1.405.407 3.568-.127 7.221-.44 10.534-1.876 2.507-1.063 4.703-2.904 6.041-5.292 1.738-3.053 2.205-6.647 2.162-10.11-.025-2.932-.47-5.923-1.769-8.578-1.207-2.509-3.305-4.55-5.812-5.75-3.393-1.673-7.236-2.038-10.962-2.18zm-23.853.012l-11.725.018-24.487 33.735 11.667-.035zm45.144.01l24.551 33.731 11.659.028-24.478-33.754zm-23.49.012c-3.432.014-6.938.36-10.168 1.594-2.599.986-4.94 2.759-6.38 5.16-1.911 3.13-2.405 6.898-2.36 10.504.033 3.078.497 6.233 1.938 8.988 1.201 2.342 3.211 4.23 5.58 5.358 3.474 1.689 7.402 2.012 11.207 2.147-.699-.217-1.446-.3-2.084-.687-1.206-.665-1.803-2.014-2.084-3.302-.623-2.892-.617-5.866-.729-8.807-.04-4.687-.102-9.388.382-14.053.24-1.75.442-3.6 1.415-5.121.712-1.118 2.06-1.521 3.284-1.781zm24.015 11.192v.03zm0 .03l.011 22.513c4.63-.022 9.264.024 13.892-.015v-.058c-2.106-.11-4.09-1.066-5.69-2.401-2.523-2.111-4.25-5.01-5.513-8.008a34.867 34.867 0 0 1-2.315-8.493c-.093-.653-.21-1.436-.385-3.538zm-46.181.15a81.812 81.812 0 0 1-.384 3.264 35.073 35.073 0 0 1-2.113 8.08c-1.194 2.983-2.818 5.867-5.188 8.072-1.706 1.601-3.902 2.766-6.258 2.94h13.903z" fill="#fff" fill-rule="evenodd" opacity=".99" paint-order="stroke markers fill"/>
</svg>
