<svg width="211.67mm" height="82.008mm" version="1.1" viewBox="0 0 211.67 82.008" xmlns="http://www.w3.org/2000/svg">
 <g transform="translate(380.18 -31.988)" fill="#62bb46">
  <path d="m-298.04 102a7.3873 7.3873 0 1 1-7.3873-7.3873 7.3873 7.3873 0 0 1 7.3873 7.3873z" stroke-width="2.9549"/>
  <path d="m-378.23 82.459-1.9543-22.777a47.97 50.172 0 0 1 8.9341-1.1681 62.872 65.759 0 0 1 7.259-0.29247 25.127 26.281 0 0 1 9.2133 2.0441 15.914 16.645 0 0 1 9.4925 14.893 20.409 21.346 0 0 1-1.396 9.6363 17.98 18.805 0 0 1-5.863 7.3003 34.761 36.357 0 0 1-5.5838 2.9201 65.657 68.672 0 0 1-6.9798 1.4601v2.044l1.1168 14.601-6.1422 0.58383-5.3046 0.29247-2.2335-24.529zm21.498-6.4243a7.0635 7.3879 0 0 0-3.6295-5.8401 11.168 11.68 0 0 0-5.0254-1.1681 4.2158 4.4094 0 0 0-1.9544 0.29246l1.396 16.061a6.0864 6.3658 0 0 0 2.2335-0.29247 8.3757 8.7603 0 0 0 4.4671-2.0441 6.366 6.6583 0 0 0 1.9543-2.9201 16.919 17.695 0 0 0 0.55838-4.0882z" fill="#147c3e" stroke-width="2.8553"/>
  <path d="m-341.53 79.246-1.9543-22.777c2.7919-0.58384 5.863-1.168 8.6549-1.46a62.872 65.759 0 0 1 7.259-0.29246 25.127 26.281 0 0 1 9.2133 2.0441 16.249 16.995 0 0 1 9.7717 14.601 22.335 23.361 0 0 1-1.396 9.9283 17.98 18.805 0 0 1-5.863 7.3003 34.761 36.357 0 0 1-5.5838 2.9201 65.671 68.686 0 0 1-6.9798 1.4602v2.044l1.396 14.601v0.29249l-6.1422 0.58383-5.3046 0.29137-2.2335-24.529zm21.498-6.7162a7.0635 7.3879 0 0 0-3.6295-5.8401 11.167 11.68 0 0 0-5.0254-1.1681 4.216 4.4096 0 0 0-1.9543 0.29247l1.396 16.061a6.0857 6.3651 0 0 0 2.2335-0.29247 8.3757 8.7603 0 0 0 4.467-2.0441 6.3658 6.6581 0 0 0 1.9543-2.9201 8.8783 9.2859 0 0 0 0.5584-4.0882z" fill="#147c3e" stroke-width="2.8553"/>
  <path d="m-258.7 31.988a39.955 39.955 0 0 0-35.864 22.372l30.604-4.3721 6.4975 10.246-14.836 1.8874 5.7874 43.31-10.927 1.7803a39.955 39.955 0 0 0 58.693-35.269 39.955 39.955 0 0 0-7.2643-22.969c-1.0932 3.5369-2.278 7.3734-3.8704 12.553l-12.815 40.612-2.6936 0.58576c-7.2228-11.173-24.29-37.079-24.348-37.149l13.841-1.8147s8.7171 13.64 8.6107 14.099l0.91292-0.79962 9.8343-38.361a39.955 39.955 0 0 0-22.162-6.7114zm-26.245 32.05-13.247 1.9215a39.955 39.955 0 0 0 18.916 40.212z" stroke-width="15.982"/>
  <path d="m-193.99 44.724c-4.8827 0.24217-8.964 1.2405-13.929 3.0825l1.5397 9.31c5.8987-4.063 12.661-5.3556 16.802-0.41702 8.3828 7.8848-9.052 28.633-16.637 36.152l0.93966 7.3577 36.758-1.6408-0.70985-8.5133-22.197 0.62146c6.4097-8.5313 13.017-20.674 12.853-24.658 0.26926-8.6708-1.9937-15.488-7.7213-19.194-2.2835-1.4065-4.8481-2.1085-7.698-2.1012z" fill="#147c3e" stroke-width=".73063"/>
 </g>
</svg>
