<svg width="142" height="88" viewBox="0 0 142 88" fill="none" xmlns="http://www.w3.org/2000/svg">
<path d="M4.83 80.7899C6.52 80.7899 7.57 79.8499 7.57 78.5199V78.4799C7.57 76.9899 6.5 76.2098 4.83 76.2098H2.23V80.7899H4.83ZM0 75.2999C0 74.6699 0.490001 74.1699 1.13 74.1699H5.02C8 74.1699 9.85 75.8599 9.85 78.4199V78.4598C9.85 81.3098 7.56 82.7999 4.76 82.7999H2.24V85.8699C2.24 86.4899 1.75 86.9799 1.13 86.9799C0.510001 86.9799 0 86.4899 0 85.8699V75.2999Z" fill="#522EE8"/>
<path d="M18.7105 81.84L16.4805 76.7L14.2505 81.84H18.7205H18.7105ZM10.3905 85.4399L15.1105 74.91C15.3605 74.35 15.8205 74 16.4505 74H16.5605C17.2005 74 17.6305 74.35 17.8905 74.91L22.6105 85.4399C22.7005 85.5999 22.7405 85.77 22.7405 85.91C22.7405 86.51 22.2905 86.98 21.6905 86.98C21.1605 86.98 20.8005 86.67 20.6005 86.2L19.5605 83.8199H13.3805L12.3105 86.27C12.1305 86.72 11.7505 86.98 11.2705 86.98C10.6905 86.98 10.2305 86.5299 10.2305 85.9399C10.2305 85.7799 10.2805 85.6099 10.3805 85.4299" fill="#522EE8"/>
<path d="M25.1504 75.2301C25.1504 74.6101 25.6404 74.1001 26.2804 74.1001H26.5204C27.0604 74.1001 27.3704 74.3701 27.6804 74.7501L34.0404 82.9801V75.1702C34.0404 74.5702 34.5304 74.0801 35.1304 74.0801C35.7304 74.0801 36.2404 74.5702 36.2404 75.1702V85.8501C36.2404 86.4701 35.7704 86.9601 35.1504 86.9601H35.0604C34.5304 86.9601 34.2104 86.6902 33.9004 86.2902L27.3604 77.8301V85.8901C27.3604 86.4901 26.8704 86.9801 26.2704 86.9801C25.6704 86.9801 25.1604 86.4901 25.1604 85.8901V75.2301H25.1504Z" fill="#522EE8"/>
<path d="M49.8904 80.5699V80.53C49.8904 78.06 48.0904 76.01 45.5704 76.01C43.0504 76.01 41.2804 78.03 41.2804 80.5V80.54C41.2804 83.01 43.0804 85.04 45.6004 85.04C48.1204 85.04 49.8904 83.0399 49.8904 80.5699ZM38.9404 80.5699V80.53C38.9404 76.95 41.7004 73.96 45.6104 73.96C49.5204 73.96 52.2404 76.92 52.2404 80.5V80.54C52.2404 84.12 49.4804 87.11 45.5704 87.11C41.6604 87.11 38.9404 84.1499 38.9404 80.5699Z" fill="#522EE8"/>
<path d="M60.4399 80.4799C62.0399 80.4799 63.0599 79.6399 63.0599 78.3599V78.3198C63.0599 76.9598 62.0799 76.2098 60.4299 76.2098H57.1799V80.4799H60.4499H60.4399ZM54.9399 75.2999C54.9399 74.6699 55.4299 74.1699 56.0699 74.1699H60.6099C62.2099 74.1699 63.4599 74.6398 64.2799 75.4398C64.9499 76.1298 65.3299 77.0698 65.3299 78.1798V78.2198C65.3299 80.2498 64.1499 81.4899 62.4399 82.0199L64.8699 85.0898C65.0899 85.3598 65.2299 85.5998 65.2299 85.9398C65.2299 86.5598 64.6999 86.9799 64.1599 86.9799C63.6499 86.9799 63.3199 86.7399 63.0699 86.3999L59.9799 82.4598H57.1599V85.8699C57.1599 86.4899 56.6699 86.9799 56.0499 86.9799C55.4299 86.9799 54.9199 86.4899 54.9199 85.8699V75.2999H54.9399Z" fill="#522EE8"/>
<path d="M75.6597 81.84L73.4297 76.7L71.1997 81.84H75.6697H75.6597ZM67.3397 85.4399L72.0597 74.91C72.3097 74.35 72.7697 74 73.3997 74H73.5097C74.1497 74 74.5797 74.35 74.8397 74.91L79.5597 85.4399C79.6497 85.5999 79.6897 85.77 79.6897 85.91C79.6897 86.51 79.2397 86.98 78.6397 86.98C78.1097 86.98 77.7497 86.67 77.5497 86.2L76.5097 83.8199H70.3297L69.2597 86.27C69.0797 86.72 68.6997 86.98 68.2197 86.98C67.6397 86.98 67.1797 86.5299 67.1797 85.9399C67.1797 85.7799 67.2297 85.6099 67.3297 85.4299" fill="#522EE8"/>
<path d="M82.0996 75.2296C82.0996 74.6096 82.5896 74.0996 83.2296 74.0996H83.4696C83.9596 74.0996 84.2896 74.3496 84.5096 74.6996L88.3596 80.7296L92.2296 74.6796C92.4696 74.2996 92.7896 74.0996 93.2496 74.0996H93.4896C94.1296 74.0996 94.6196 74.6096 94.6196 75.2296V85.8696C94.6196 86.4896 94.1296 86.9796 93.4896 86.9796C92.8896 86.9796 92.3796 86.4696 92.3796 85.8696V78.2396L89.2696 82.9097C89.0296 83.2697 88.7396 83.4896 88.3296 83.4896C87.9196 83.4896 87.6396 83.2697 87.3996 82.9097L84.3096 78.2797V85.8896C84.3096 86.5096 83.8196 86.9796 83.1996 86.9796C82.5796 86.9796 82.1096 86.5096 82.1096 85.8896V75.2296H82.0996Z" fill="#522EE8"/>
<path d="M105.46 81.84L103.23 76.7L101 81.84H105.47H105.46ZM97.1405 85.4399L101.86 74.91C102.11 74.35 102.57 74 103.2 74H103.31C103.95 74 104.38 74.35 104.64 74.91L109.36 85.4399C109.45 85.5999 109.49 85.77 109.49 85.91C109.49 86.51 109.04 86.98 108.44 86.98C107.91 86.98 107.55 86.67 107.35 86.2L106.31 83.8199H100.13L99.0605 86.27C98.8805 86.72 98.5005 86.98 98.0205 86.98C97.4405 86.98 96.9805 86.5299 96.9805 85.9399C96.9805 85.7799 97.0305 85.6099 97.1305 85.4299" fill="#522EE8"/>
<path d="M117.35 75.2999C117.35 74.6699 117.84 74.1699 118.48 74.1699H125.89C126.45 74.1699 126.91 74.6198 126.91 75.1898C126.91 75.7598 126.46 76.2098 125.89 76.2098H119.59V79.6798H125.07C125.63 79.6798 126.09 80.1298 126.09 80.6998C126.09 81.2698 125.64 81.7198 125.07 81.7198H119.59V85.8799C119.59 86.4999 119.1 86.9899 118.48 86.9899C117.86 86.9899 117.35 86.4999 117.35 85.8799V75.3098V75.2999Z" fill="#522EE8"/>
<path d="M129.27 75.2296C129.27 74.6096 129.76 74.0996 130.4 74.0996H130.64C131.13 74.0996 131.46 74.3496 131.68 74.6996L135.53 80.7296L139.4 74.6796C139.64 74.2996 139.96 74.0996 140.42 74.0996H140.66C141.3 74.0996 141.79 74.6096 141.79 75.2296V85.8696C141.79 86.4896 141.3 86.9796 140.66 86.9796C140.06 86.9796 139.55 86.4696 139.55 85.8696V78.2396L136.44 82.9097C136.2 83.2697 135.91 83.4896 135.5 83.4896C135.09 83.4896 134.81 83.2697 134.57 82.9097L131.48 78.2797V85.8896C131.48 86.5096 130.99 86.9796 130.37 86.9796C129.75 86.9796 129.28 86.5096 129.28 85.8896V75.2296H129.27Z" fill="#522EE8"/>
<path d="M83.5096 28.0098C85.2496 28.0098 86.6696 29.4198 86.6696 31.1698V34.8397C86.6696 36.5797 85.2596 37.9998 83.5096 37.9998H80.3496V31.1698C80.3496 29.4298 81.7596 28.0098 83.5096 28.0098Z" fill="#522EE8"/>
<path d="M67.7202 18.1299C64.2302 18.1299 61.4102 20.9598 61.4102 24.4398V34.8398C61.4102 36.5798 62.8202 37.9999 64.5702 37.9999H74.0402V24.4398C74.0402 20.9498 71.2102 18.1299 67.7302 18.1299" fill="#522EE8"/>
<path d="M99.3005 37.9999H96.1405C94.4005 37.9999 92.9805 36.5899 92.9805 34.8399V14.0799C92.9805 12.3799 94.2905 10.9199 95.9805 10.8399C97.7905 10.7499 99.2905 12.1999 99.2905 13.9899V37.9899L99.3005 37.9999Z" fill="#522EE8"/>
<path d="M58.2498 38C56.5098 38 55.0898 39.41 55.0898 41.16V59.73C55.0898 61.5 56.5398 62.99 58.3098 62.96C60.0298 62.93 61.4098 61.53 61.4098 59.8V41.16C61.4098 39.42 59.9998 38 58.2498 38Z" fill="#522EE8"/>
<path d="M36.1504 38V45.47C36.1504 48.91 38.8504 51.82 42.2904 51.91C45.8604 52.01 48.7804 49.14 48.7804 45.6V41.16C48.7804 39.42 47.3704 38 45.6204 38H36.1504Z" fill="#522EE8"/>
<path d="M36.1501 37.9999H32.9901C31.2501 37.9999 29.8301 36.5899 29.8301 34.8399V18.3699C29.8301 16.6699 31.1401 15.21 32.8301 15.13C34.6401 15.04 36.1401 16.49 36.1401 18.28V37.9899L36.1501 37.9999Z" fill="#522EE8"/>
<path d="M102.45 46.7502C100.71 46.7502 99.29 45.3402 99.29 43.5902V37.9902H105.6V43.5902C105.6 45.3302 104.19 46.7502 102.44 46.7502" fill="#522EE8"/>
<path d="M108.77 31.6797C110.51 31.6797 111.93 33.0897 111.93 34.8397C111.93 36.5897 110.52 37.9998 108.77 37.9998H105.61V34.8397C105.61 33.0997 107.02 31.6797 108.77 31.6797Z" fill="#522EE8"/>
<path d="M77.1903 55.95C75.4503 55.95 74.0303 54.54 74.0303 52.79V38H80.3403V52.79C80.3403 54.53 78.9303 55.95 77.1803 55.95" fill="#522EE8"/>
<path d="M86.6696 21.7704C86.6696 23.5104 85.2596 24.9303 83.5096 24.9303C81.7596 24.9303 80.3496 23.5204 80.3496 21.7704C80.3496 20.0204 81.7596 18.6104 83.5096 18.6104C85.2596 18.6104 86.6696 20.0204 86.6696 21.7704Z" fill="#522EE8"/>
<path d="M105.59 52.9999C105.59 54.7399 104.18 56.1599 102.43 56.1599C100.68 56.1599 99.2695 54.7499 99.2695 52.9999C99.2695 51.2499 100.68 49.8398 102.43 49.8398C104.18 49.8398 105.59 51.2499 105.59 52.9999Z" fill="#522EE8"/>
<path d="M51.9403 0C50.2003 0 48.7803 1.41003 48.7803 3.16003V34.84C48.7803 36.58 50.1903 38 51.9403 38C53.6903 38 55.1003 36.59 55.1003 34.84V3.16003C55.1003 1.42003 53.6903 0 51.9403 0Z" fill="#522EE8"/>
</svg>
