<svg xmlns="http://www.w3.org/2000/svg" height="174.074" width="639.987" viewBox="0 0 600 163.195">
    <path d="M.02 163.15H600v-81.6H.02v81.6z"/>
    <g fill="#fff">
        <path d="M26.05 115.65h22.17c1.69 0 3.38-.3 5-1 1.63-.6 3.08-1.6 4.34-2.8 1.29-1.2 2.29-2.6 3.04-4.3.74-1.6 1.12-3.4 1.12-5.5 0-2-.38-3.9-1.16-5.6-.79-1.7-1.81-3.1-3.1-4.3-1.26-1.2-2.69-2.1-4.36-2.7-1.58-.7-3.29-1-4.98-1H26.05v27.2zm-7.25 34.1v-68.2h29.81c2.95 0 5.72.5 8.31 1.6 2.57 1 4.84 2.5 6.73 4.3 1.93 1.8 3.43 4 4.52 6.5 1.1 2.5 1.64 5.2 1.64 8.1 0 2.7-.52 5.3-1.58 7.8-1.07 2.5-2.49 4.7-4.34 6.6-1.85 1.8-4.04 3.3-6.57 4.5-2.51 1.1-5.3 1.6-8.29 1.6H26.05v27.2H18.8zM176.58 81.55h42.38v6.9h-35.09v23.1h27.53v7h-27.53v24.2h34.58v7h-41.87v-68.2zM538.65 81.55h42.31v6.9h-35.08v23.1h27.53v7h-27.53v24.2h34.62v7h-41.85v-68.2zM338.38 81.45h7.23v68.3h-7.23v-68.3zM377.86 81.55h46.73v6.9h-39.34v23.1h31.79v7h-31.79v24.2h38.86v7h-46.25v-68.2zM485.47 115.65c2.05 0 3.78-.4 5.5-1.1 1.59-.7 3-1.7 4.1-2.9 1.11-1.3 2.05-2.7 2.51-4.4.64-1.6.95-3.3.95-5.1 0-1.7-.31-3.4-.95-5-.62-1.6-1.4-3-2.67-4.3-1.1-1.3-2.51-2.4-4.1-3.2-1.72-.8-3.61-1.2-5.66-1.2h-22.01v27.2h22.33zm.62-34.1c3.16 0 5.99.6 8.5 1.7 2.53 1.2 4.72 2.7 6.47 4.7 1.72 1.9 3.13 4.1 4.07 6.6.95 2.5 1.43 5 1.43 7.6 0 2.7-.48 5.2-1.43 7.5-.94 2.2-2.19 4.2-3.77 5.9-1.41 1.8-3.14 3.2-5.18 4.3-1.89 1.1-3.94 1.8-5.99 2.1l1.57 2.5c.94 1.3 2.05 3 3.31 4.9 1.11 1.9 2.51 4 3.94 6.2 1.4 2.2 2.67 4.3 3.93 6.3 1.25 2 2.35 3.7 3.3 5.1.94 1.5 1.56 2.4 1.72 2.8h-8.95l-1.59-2.6c-.78-1.4-1.89-3.1-2.97-5-1.27-1.8-2.53-3.8-3.94-5.9-1.26-2.2-2.53-4.2-3.61-6-1.27-1.9-2.37-3.5-3.16-4.9l-1.72-2.8h-18.88v27.2h-7.25v-68.2h30.2zM123.09 115.65c2.03 0 3.88-.4 5.52-1.1 1.63-.7 3-1.7 4.12-2.9 1.15-1.3 1.99-2.7 2.57-4.4.56-1.6.89-3.3.89-5.1 0-1.7-.35-3.4-.95-5-.62-1.6-1.48-3-2.61-4.3-1.12-1.3-2.51-2.4-4.2-3.2-1.66-.8-3.49-1.2-5.54-1.2h-22.11v27.2h22.31zm.68-34.1c3.14 0 5.97.6 8.5 1.7 2.53 1.2 4.66 2.7 6.47 4.7 1.74 1.9 3.13 4.1 4.07 6.6.95 2.5 1.43 5 1.43 7.6 0 2.7-.48 5.2-1.43 7.5-.94 2.2-2.19 4.2-3.73 5.9-1.55 1.8-3.28 3.2-5.2 4.3-1.97 1.1-3.98 1.8-6.03 2.1l1.67 2.5c.86 1.3 1.93 3 3.17 4.9 1.21 1.9 2.53 4 3.94 6.2 1.38 2.2 2.73 4.3 3.99 6.3 1.27 2 2.33 3.7 3.28 5.1.9 1.5 1.5 2.4 1.79 2.8h-9l-1.61-2.6c-.84-1.4-1.87-3.1-3.05-5-1.21-1.8-2.45-3.8-3.78-5.9-1.34-2.2-2.59-4.2-3.81-6-1.19-1.9-2.19-3.5-3.1-4.9l-1.72-2.8h-18.84v27.2h-7.25v-68.2h30.24zM301.18 149.75v-50.8l-19.96 43.9h-6.67l-20.28-43.9v50.8h-7.77v-68.3h7.77l23.78 51.7 23.13-51.7h7.79v68.3h-7.79z"/>
    </g>
    <path d="M0 81.65h600V0H0v81.65z" fill="#f78e1e"/>
    <g fill="#fff">
        <path d="M63.73 35.64c0-1.51-.26-2.9-.82-4.18l-2.23-3.24-3.25-2.1-3.8-.79H31.3v20.61h22.33l3.8-.79 3.25-2.14 2.23-3.26c.56-1.24.82-2.61.82-4.11m12.49-.06c0 2.93-.54 5.74-1.66 8.41-1.15 2.65-2.65 5.02-4.62 7.05-1.99 2.07-4.36 3.69-7.07 4.92-2.73 1.22-5.64 1.85-8.86 1.85H31.3v23.74H18.81V13.26h34.94c3.11 0 6.07.57 8.78 1.75 2.75 1.14 5.12 2.75 7.17 4.74 2.05 2.03 3.65 4.4 4.82 7.13 1.14 2.73 1.7 5.62 1.7 8.7M192.36 55.25l-.86-1.91c-.45-1.06-.99-2.35-1.65-3.86-.64-1.5-1.33-3.11-2.09-4.82-.76-1.72-1.47-3.37-2.15-4.96-.7-1.56-1.3-2.95-1.79-4.09l-1-2.37-1.06 2.37c-.51 1.14-1.09 2.51-1.73 4.05-.64 1.55-1.37 3.16-2.11 4.84-.76 1.67-1.47 3.26-2.09 4.78-.66 1.51-1.2 2.81-1.65 3.9l-.86 2.07h19.04zm11.07 26.3l-1.13-2.6c-.62-1.41-1.26-2.9-1.95-4.5-.68-1.61-1.34-3.12-1.95-4.5l-1.24-2.81H168.7l-1.12 2.55c-.6 1.36-1.27 2.87-1.99 4.5-.72 1.64-1.39 3.19-2.01 4.66-.6 1.4-.98 2.3-1.12 2.7h-13.42c.06-.2.54-1.3 1.45-3.4.86-2.1 2.01-4.75 3.37-7.96 1.37-3.19 2.91-6.83 4.66-10.91 1.75-4.05 3.49-8.19 5.26-12.37 1.79-4.21 3.56-8.33 5.28-12.35 1.75-4.01 3.28-7.63 4.6-10.8 1.33-3.18 2.43-5.75 3.28-7.73.86-1.99 1.32-3.04 1.38-3.18h9.14c.06.14.5 1.19 1.31 3.12.82 1.94 1.9 4.51 3.27 7.69 1.36 3.17 2.91 6.74 4.62 10.74 1.72 4 3.47 8.07 5.26 12.25 1.81 4.16 3.59 8.28 5.36 12.33 1.73 4.08 3.3 7.71 4.7 10.91 1.41 3.21 2.57 5.86 3.48 7.99.92 2.17 1.44 3.37 1.58 3.67h-13.61zM339.95 35.12c0-2.75-.95-5.1-2.83-7.05-1.89-1.95-4.34-2.93-7.43-2.93h-22.42V44.9h22.52c3.07 0 5.6-.94 7.33-2.83 1.88-1.89 2.83-4.2 2.83-6.95m-1.11 46.43l-1.4-2.4c-.81-1.25-1.75-2.72-2.69-4.38-1.09-1.69-2.15-3.5-3.32-5.43-1.16-1.97-2.27-3.77-3.31-5.48-1.07-1.71-1.99-3.21-2.73-4.52l-1.53-2.55h-16.59v24.76h-12.31v-68.3h36.05c3.11 0 6.11.58 8.62 1.71 2.67 1.12 5.04 2.67 6.93 4.66a22.37 22.37 0 0 1 4.55 6.97c1.11 2.65 1.57 5.52 1.57 8.59 0 2.53-.3 4.9-1.24 7.11-.79 2.21-1.89 4.22-3.32 5.99-1.4 1.78-2.99 3.27-4.72 4.45a17.133 17.133 0 0 1-5.5 2.51l1.57 2.57c.94 1.37 1.88 2.94 2.99 4.76 1.1 1.81 2.37 3.76 3.61 5.83 1.27 2.09 2.37 4.04 3.48 5.84 1.24 1.81 2.21 3.4 2.99 4.81l1.57 2.5h-15.27zM434.49 13.26h12.6v68.29h-12.6V13.26zM581.28 57.08c0 3.56-.62 6.93-1.89 10.11-1.26 3.15-3.15 5.94-5.5 8.29-2.37 2.35-5.2 4.17-8.49 5.67-3.32 1.4-6.77 2-10.71 2-3.45 0-6.61-.5-9.6-1.6-2.83-1.1-5.34-2.5-7.39-4.34-2.21-1.81-3.93-3.88-5.34-6.25-1.43-2.35-2.53-4.82-3.15-7.41l2.37-.58 3.45-.76 3.45-.77 2.54-.58c.78 3.21 2.51 5.82 5.02 7.79 2.53 1.99 5.52 2.97 9.13 2.97 3.92 0 7.07-1.14 9.44-3.41 2.51-2.29 3.92-5.6 4.24-9.88-.32-.08-1.41-.5-3.29-1.25-2.05-.74-4.42-1.64-7.25-2.65-2.83-1.02-5.83-2.15-8.96-3.39-3.15-1.23-6.31-2.37-9.14-3.44-2.83-1.04-5.34-1.96-7.39-2.75-2.19-.78-3.45-1.28-3.93-1.48l-.15-2.55-.16-3.2c0-3.33.79-6.58 2.05-9.72 1.25-3.13 2.97-5.92 5.34-8.35 2.35-2.41 5.05-4.34 8.18-5.79 3.15-1.42 6.77-2.14 10.54-2.14 3.15 0 6.15.5 8.98 1.48 2.83.99 5.5 2.37 7.69 4.1 2.21 1.75 4.1 3.79 5.68 6.2 1.57 2.39 2.84 4.99 3.46 7.78l-2.37.56-3.46.76-3.31.79-2.67.56c-.3-1.45-.94-2.79-1.57-4.06l-2.99-3.37c-1.26-.99-2.51-1.77-4.1-2.35-1.56-.58-3.13-.87-5.02-.87-3.77 0-6.93 1.19-9.44 3.58-2.53 2.39-3.93 5.36-4.41 8.9.48.16 1.58.6 3.63 1.38 2.03.78 4.56 1.71 7.39 2.77 2.99 1.07 5.97 2.19 9.12 3.4 3.31 1.18 6.29 2.31 8.98 3.37 2.83 1.07 5.18 1.95 7.23 2.71 1.88.74 2.99 1.17 3.31 1.23.3 1.56.46 3.75.46 6.54"/>
    </g>
</svg>
