<?xml version="1.0" encoding="UTF-8"?>
<!DOCTYPE svg PUBLIC "-//W3C//DTD SVG 1.1//EN" "http://www.w3.org/Graphics/SVG/1.1/DTD/svg11.dtd">
<svg width="800pt" height="228pt" viewBox="0 0 800 228" version="1.1" xmlns="http://www.w3.org/2000/svg" style="cursor: default;">
<g id="#ff5400ff">
<path fill="#ff5400" opacity="1.00" d=" M 0.00 0.00 L 800.00 0.00 L 800.00 113.33 C 784.76 113.17 769.50 113.54 754.27 113.14 C 760.63 109.89 766.52 105.32 770.04 98.98 C 774.71 91.16 775.57 81.67 774.23 72.81 C 773.35 71.80 771.89 71.72 770.75 71.18 C 755.55 65.27 740.22 59.72 724.97 53.94 C 723.69 53.41 722.26 53.12 721.18 52.24 C 722.30 44.58 728.10 37.47 735.96 36.21 C 745.43 34.01 755.91 40.40 758.00 49.98 C 763.29 48.96 768.65 47.97 773.77 46.28 C 771.24 37.63 765.69 29.70 757.69 25.33 C 748.74 20.00 737.38 18.91 727.57 22.37 C 716.40 26.33 707.70 36.37 705.38 48.00 C 704.21 52.61 704.71 57.41 704.71 62.11 C 705.16 63.44 706.83 63.42 707.90 63.97 C 724.65 70.26 741.43 76.46 758.11 82.90 C 757.68 88.70 755.28 94.85 750.06 97.91 C 742.43 102.44 731.55 101.21 725.56 94.50 C 723.27 92.21 722.04 89.18 720.85 86.24 C 715.73 87.37 710.64 88.64 705.50 89.63 C 707.59 99.58 714.67 108.19 723.74 112.70 L 723.03 113.24 C 680.78 113.39 638.53 113.27 596.28 113.30 C 596.22 83.05 596.21 52.80 596.28 22.55 C 590.56 22.54 584.83 22.47 579.11 22.59 C 579.30 52.82 579.22 83.07 579.15 113.30 C 574.56 113.46 569.93 113.01 565.38 113.51 C 552.63 114.12 539.78 113.60 526.99 113.77 C 519.52 113.64 512.03 114.03 504.59 113.59 C 493.68 112.93 482.68 113.50 471.73 113.30 C 464.37 101.92 457.75 90.06 450.25 78.77 C 459.00 76.38 465.90 69.17 468.75 60.67 C 471.47 52.17 470.13 42.44 465.09 35.05 C 459.89 27.12 450.40 22.34 440.96 22.58 C 425.01 22.60 409.05 22.56 393.10 22.60 C 393.21 52.83 393.20 83.07 393.11 113.30 C 358.44 113.29 323.77 113.34 289.10 113.28 C 275.92 83.02 262.81 52.73 250.03 22.31 C 245.99 21.85 241.87 22.34 237.80 22.07 C 224.55 52.36 211.93 82.96 198.77 113.31 C 146.40 113.30 94.03 113.32 41.66 113.30 C 41.67 102.91 41.65 92.52 41.67 82.14 C 52.44 82.15 63.21 82.25 73.98 82.09 C 89.55 81.31 102.66 66.56 101.57 51.01 C 101.33 35.98 87.96 22.91 73.01 22.60 C 57.03 22.56 41.05 22.56 25.07 22.61 C 25.18 52.85 25.15 83.09 25.08 113.33 C 16.72 113.26 8.36 113.36 0.00 113.27 L 0.00 0.00 Z"/>
<path fill="#ff5400" opacity="1.00" d=" M 409.46 38.59 C 419.29 38.27 429.19 38.55 439.06 38.45 C 443.58 38.31 448.33 40.29 450.78 44.21 C 454.43 49.50 453.68 57.49 448.69 61.69 C 446.37 63.84 443.20 64.79 440.09 64.85 C 429.94 64.90 419.78 64.77 409.63 64.92 C 409.35 56.16 409.70 47.36 409.46 38.59 Z"/>
<path fill="#ff5400" opacity="1.00" d=" M 41.64 38.73 C 51.44 38.72 61.24 38.73 71.04 38.73 C 76.80 38.57 82.33 42.40 84.28 47.81 C 85.20 51.80 85.28 56.39 82.85 59.87 C 80.48 63.55 76.34 66.09 71.94 66.22 C 61.84 66.24 51.73 66.23 41.63 66.22 C 41.69 57.06 41.66 47.90 41.64 38.73 Z"/>
<path fill="#ff5400" opacity="1.00" d=" M 243.21 50.16 L 244.05 50.09 C 247.86 59.45 252.20 68.60 255.94 77.97 L 255.94 78.71 C 247.68 78.58 239.40 78.65 231.14 78.68 C 234.77 69.02 239.35 59.73 243.21 50.16 Z"/>
<path fill="#ff5400" opacity="1.00" d=" M 409.53 80.65 C 416.96 80.93 424.51 80.32 431.85 80.95 C 437.99 91.48 444.35 101.88 450.73 112.27 C 450.71 112.53 450.67 113.07 450.65 113.34 C 436.93 113.28 423.22 113.30 409.51 113.32 C 409.57 102.43 409.52 91.54 409.53 80.65 Z"/>
<path fill="#ff5400" opacity="1.00" d=" M 216.79 113.30 C 219.26 106.95 222.17 100.78 224.89 94.53 C 237.55 94.61 250.22 94.46 262.88 94.61 C 265.50 100.86 268.17 107.09 270.96 113.27 C 252.90 113.35 234.85 113.30 216.79 113.30 Z"/>
</g>
<g id="#ffffffff">
<path fill="#ffffff" opacity="1.00" d=" M 727.57 22.37 C 737.38 18.91 748.74 20.00 757.69 25.33 C 765.69 29.70 771.24 37.63 773.77 46.28 C 768.65 47.97 763.29 48.96 758.00 49.98 C 755.91 40.40 745.43 34.01 735.96 36.21 C 728.10 37.47 722.30 44.58 721.18 52.24 C 722.26 53.12 723.69 53.41 724.97 53.94 C 740.22 59.72 755.55 65.27 770.75 71.18 C 771.89 71.72 773.35 71.80 774.23 72.81 C 775.57 81.67 774.71 91.16 770.04 98.98 C 766.52 105.32 760.63 109.89 754.27 113.14 C 746.17 113.51 738.05 113.14 729.95 113.31 C 727.87 113.26 725.70 113.51 723.74 112.70 C 714.67 108.19 707.59 99.58 705.50 89.63 C 710.64 88.64 715.73 87.37 720.85 86.24 C 722.04 89.18 723.27 92.21 725.56 94.50 C 731.55 101.21 742.43 102.44 750.06 97.91 C 755.28 94.85 757.68 88.70 758.11 82.90 C 741.43 76.46 724.65 70.26 707.90 63.97 C 706.83 63.42 705.16 63.44 704.71 62.11 C 704.71 57.41 704.21 52.61 705.38 48.00 C 707.70 36.37 716.40 26.33 727.57 22.37 Z"/>
<path fill="#ffffff" opacity="1.00" d=" M 25.07 22.61 C 41.05 22.56 57.03 22.56 73.01 22.60 C 87.96 22.91 101.33 35.98 101.57 51.01 C 102.66 66.56 89.55 81.31 73.98 82.09 C 63.21 82.25 52.44 82.15 41.67 82.14 C 41.65 92.52 41.67 102.91 41.66 113.30 C 36.13 113.27 30.61 113.22 25.08 113.33 C 25.15 83.09 25.18 52.85 25.07 22.61 M 41.64 38.73 C 41.66 47.90 41.69 57.06 41.63 66.22 C 51.73 66.23 61.84 66.24 71.94 66.22 C 76.34 66.09 80.48 63.55 82.85 59.87 C 85.28 56.39 85.20 51.80 84.28 47.81 C 82.33 42.40 76.80 38.57 71.04 38.73 C 61.24 38.73 51.44 38.72 41.64 38.73 Z"/>
<path fill="#ffffff" opacity="1.00" d=" M 198.77 113.31 C 211.93 82.96 224.55 52.36 237.80 22.07 C 241.87 22.34 245.99 21.85 250.03 22.31 C 262.81 52.73 275.92 83.02 289.10 113.28 C 283.05 113.26 277.01 113.25 270.96 113.27 C 268.17 107.09 265.50 100.86 262.88 94.61 C 250.22 94.46 237.55 94.61 224.89 94.53 C 222.17 100.78 219.26 106.95 216.79 113.30 C 210.78 113.32 204.78 113.31 198.77 113.31 M 243.21 50.16 C 239.35 59.73 234.77 69.02 231.14 78.68 C 239.40 78.65 247.68 78.58 255.94 78.71 L 255.94 77.97 C 252.20 68.60 247.86 59.45 244.05 50.09 L 243.21 50.16 Z"/>
<path fill="#ffffff" opacity="1.00" d=" M 393.10 22.60 C 409.05 22.56 425.01 22.60 440.96 22.58 C 450.40 22.34 459.89 27.12 465.09 35.05 C 470.13 42.44 471.47 52.17 468.75 60.67 C 465.90 69.17 459.00 76.38 450.25 78.77 C 457.75 90.06 464.37 101.92 471.73 113.30 C 468.07 113.28 464.42 113.39 460.77 113.22 C 460.55 143.71 460.63 174.22 460.73 204.71 C 457.28 204.86 453.84 204.80 450.40 204.76 C 450.45 174.85 450.41 144.94 450.42 115.03 C 450.47 114.60 450.59 113.76 450.65 113.34 C 450.67 113.07 450.71 112.53 450.73 112.27 C 444.35 101.88 437.99 91.48 431.85 80.95 C 424.51 80.32 416.96 80.93 409.53 80.65 C 409.52 91.54 409.57 102.43 409.51 113.32 C 404.04 113.45 398.57 113.26 393.11 113.30 C 393.20 83.07 393.21 52.83 393.10 22.60 M 409.46 38.59 C 409.70 47.36 409.35 56.16 409.63 64.92 C 419.78 64.77 429.94 64.90 440.09 64.85 C 443.20 64.79 446.37 63.84 448.69 61.69 C 453.68 57.49 454.43 49.50 450.78 44.21 C 448.33 40.29 443.58 38.31 439.06 38.45 C 429.19 38.55 419.29 38.27 409.46 38.59 Z"/>
<path fill="#ffffff" opacity="1.00" d=" M 579.11 22.59 C 584.83 22.47 590.56 22.54 596.28 22.55 C 596.21 52.80 596.22 83.05 596.28 113.30 C 590.57 113.31 584.86 113.31 579.15 113.30 C 579.22 83.07 579.30 52.82 579.11 22.59 Z"/>
<path fill="#ffffff" opacity="1.00" d=" M 25.24 113.78 C 38.50 113.65 51.76 113.83 65.02 113.76 C 75.04 113.85 85.08 119.24 89.81 128.24 C 96.32 139.67 92.72 155.35 82.08 163.01 C 77.51 166.53 71.83 168.63 66.05 168.64 C 55.60 168.64 45.16 168.67 34.71 168.63 C 34.79 180.69 34.69 192.75 34.77 204.81 C 31.55 204.88 28.34 204.84 25.13 204.84 C 25.21 174.49 24.98 144.13 25.24 113.78 M 34.76 123.09 C 34.70 135.19 34.76 147.30 34.74 159.41 C 44.50 159.33 54.25 159.39 64.01 159.37 C 70.02 159.41 76.03 156.34 79.29 151.24 C 83.39 145.31 83.33 136.81 79.08 130.97 C 76.08 126.27 70.64 123.34 65.10 123.19 C 54.99 123.09 44.87 123.28 34.76 123.09 Z"/>
<path fill="#ffffff" opacity="1.00" d=" M 124.69 113.73 C 138.48 113.82 152.27 113.71 166.06 113.78 C 174.75 114.07 183.33 118.66 187.78 126.23 C 192.36 133.08 193.40 142.04 190.94 149.85 C 187.74 158.79 179.91 166.33 170.36 167.79 C 178.51 179.95 186.09 192.50 194.06 204.78 C 190.09 204.92 186.11 204.81 182.14 204.86 C 174.55 192.73 167.15 180.39 159.14 168.57 C 150.97 168.68 142.78 168.74 134.61 168.54 L 134.30 169.19 C 134.34 181.08 134.36 192.97 134.30 204.86 C 131.12 204.85 127.94 204.83 124.76 204.87 C 124.55 174.51 124.69 144.10 124.69 113.73 M 134.29 123.27 C 134.56 135.33 133.94 147.52 134.60 159.49 C 144.69 159.20 154.79 159.47 164.88 159.35 C 169.65 159.18 174.40 157.11 177.46 153.39 C 182.30 147.26 182.86 138.03 178.61 131.44 C 175.71 126.33 169.95 123.03 164.07 123.17 C 154.15 123.23 144.20 123.02 134.29 123.27 Z"/>
<path fill="#ffffff" opacity="1.00" d=" M 235.41 114.25 L 235.78 113.67 C 254.43 114.01 273.11 113.48 291.75 113.85 C 291.81 116.89 291.80 119.92 291.76 122.96 C 276.32 123.45 260.68 123.03 245.17 123.17 C 245.13 133.37 245.17 143.58 245.15 153.79 C 257.17 153.76 269.20 153.92 281.21 153.70 C 282.39 156.43 281.32 159.92 281.76 162.94 C 269.69 163.52 257.34 163.01 245.17 163.19 C 245.20 174.00 245.04 184.84 245.25 195.63 C 260.57 195.58 275.90 195.62 291.22 195.61 C 291.20 198.68 291.21 201.75 291.22 204.83 C 272.59 204.83 253.95 204.94 235.33 204.77 C 235.46 174.60 235.30 144.42 235.41 114.25 Z"/>
<path fill="#ffffff" opacity="1.00" d=" M 328.55 113.59 C 332.03 113.80 335.56 113.37 339.01 113.81 C 349.34 136.52 359.84 159.15 370.14 181.87 L 371.07 181.93 C 380.06 161.14 389.52 140.55 398.66 119.83 C 399.67 117.75 400.39 115.52 401.74 113.63 C 404.95 113.73 408.19 113.78 411.39 113.48 L 411.70 114.08 C 411.82 144.30 411.67 174.53 411.78 204.75 C 408.42 205.76 404.93 204.60 401.52 204.96 C 401.38 182.70 401.29 160.39 401.57 138.13 C 401.34 138.18 400.89 138.30 400.66 138.36 C 392.33 157.59 383.42 176.59 374.81 195.70 C 371.90 195.78 368.98 195.70 366.07 195.76 C 357.55 177.91 349.49 159.79 341.11 141.85 C 340.32 140.44 340.21 138.58 338.68 137.68 C 339.03 160.06 338.71 182.47 338.84 204.87 C 335.43 204.94 332.01 204.83 328.60 204.93 C 328.44 174.49 328.55 144.04 328.55 113.59 Z"/>
<path fill="#ffffff" opacity="1.00" d=" M 504.59 113.59 C 512.03 114.03 519.52 113.64 526.99 113.77 C 539.78 113.60 552.63 114.12 565.38 113.51 C 566.30 116.56 565.60 119.89 565.76 123.05 C 548.33 123.34 530.85 123.06 513.39 123.19 C 513.41 133.39 513.41 143.59 513.40 153.79 C 527.49 153.95 541.68 153.52 555.72 154.00 C 555.77 157.06 555.72 160.11 555.77 163.17 C 541.64 163.23 527.51 163.14 513.39 163.21 C 513.42 174.01 513.41 184.81 513.39 195.61 C 530.68 195.61 547.98 195.60 565.27 195.61 C 565.23 198.68 565.25 201.75 565.27 204.82 C 544.74 204.88 524.20 204.84 503.67 204.85 C 503.65 174.78 503.75 144.70 503.62 114.63 L 504.59 113.59 Z"/>
<path fill="#ffffff" opacity="1.00" d=" M 607.64 113.74 C 621.42 113.80 635.21 113.73 649.00 113.78 C 657.48 114.04 665.79 118.42 670.37 125.63 C 675.57 133.26 676.83 143.55 673.00 152.02 C 669.43 160.01 662.00 166.45 653.24 167.83 C 661.57 179.87 668.93 192.56 677.05 204.75 C 673.07 204.96 669.09 204.80 665.11 204.85 C 657.54 192.72 650.04 180.54 642.22 168.58 C 633.94 168.95 625.31 168.18 617.24 168.97 C 617.40 180.93 617.27 192.89 617.31 204.86 C 614.08 204.85 610.85 204.83 607.63 204.87 C 607.59 174.49 607.57 144.12 607.64 113.74 M 617.31 123.20 C 617.31 135.10 617.30 147.01 617.32 158.91 L 617.64 159.50 C 627.74 159.19 637.87 159.48 647.99 159.35 C 652.67 159.13 657.34 157.09 660.36 153.45 C 665.22 147.31 665.85 138.06 661.56 131.45 C 658.68 126.33 652.90 123.05 647.04 123.17 C 637.13 123.18 627.21 123.12 617.31 123.20 Z"/>
<path fill="#ffffff" opacity="1.00" d=" M 717.81 113.79 C 736.64 113.64 755.47 113.82 774.30 113.75 C 774.37 116.89 774.34 120.04 774.32 123.19 C 758.80 123.10 743.28 123.28 727.77 123.10 C 727.32 133.27 727.61 143.63 727.62 153.87 C 739.83 153.70 752.04 153.87 764.25 153.78 C 764.33 156.92 764.25 160.05 764.30 163.19 C 752.08 163.14 739.85 163.28 727.63 163.11 C 727.39 173.87 727.74 184.64 727.45 195.39 C 742.69 195.82 758.09 195.62 773.39 195.49 C 773.95 198.51 773.42 201.69 773.66 204.78 C 755.12 204.93 736.56 204.85 718.01 204.82 C 717.47 195.02 717.93 184.89 717.78 174.96 C 717.80 154.57 717.74 134.18 717.81 113.79 Z"/>
</g>
<g id="#231f20ff">
<path fill="#231f20" opacity="1.00" d=" M 723.74 112.70 C 725.70 113.51 727.87 113.26 729.95 113.31 C 738.05 113.14 746.17 113.51 754.27 113.14 C 769.50 113.54 784.76 113.17 800.00 113.33 L 800.00 228.00 L 0.00 228.00 L 0.00 113.27 C 8.36 113.36 16.72 113.26 25.08 113.33 C 30.61 113.22 36.13 113.27 41.66 113.30 C 94.03 113.32 146.40 113.30 198.77 113.31 C 204.78 113.31 210.78 113.32 216.79 113.30 C 234.85 113.30 252.90 113.35 270.96 113.27 C 277.01 113.25 283.05 113.26 289.10 113.28 C 323.77 113.34 358.44 113.29 393.11 113.30 C 398.57 113.26 404.04 113.45 409.51 113.32 C 423.22 113.30 436.93 113.28 450.65 113.34 C 450.59 113.76 450.47 114.60 450.42 115.03 C 450.41 144.94 450.45 174.85 450.40 204.76 C 453.84 204.80 457.28 204.86 460.73 204.71 C 460.63 174.22 460.55 143.71 460.77 113.22 C 464.42 113.39 468.07 113.28 471.73 113.30 C 482.68 113.50 493.68 112.93 504.59 113.59 L 503.62 114.63 C 503.75 144.70 503.65 174.78 503.67 204.85 C 524.20 204.84 544.74 204.88 565.27 204.82 C 565.25 201.75 565.23 198.68 565.27 195.61 C 547.98 195.60 530.68 195.61 513.39 195.61 C 513.41 184.81 513.42 174.01 513.39 163.21 C 527.51 163.14 541.64 163.23 555.77 163.17 C 555.72 160.11 555.77 157.06 555.72 154.00 C 541.68 153.52 527.49 153.95 513.40 153.79 C 513.41 143.59 513.41 133.39 513.39 123.19 C 530.85 123.06 548.33 123.34 565.76 123.05 C 565.60 119.89 566.30 116.56 565.38 113.51 C 569.93 113.01 574.56 113.46 579.15 113.30 C 584.86 113.31 590.57 113.31 596.28 113.30 C 638.53 113.27 680.78 113.39 723.03 113.24 L 723.74 112.70 M 25.24 113.78 C 24.98 144.13 25.21 174.49 25.13 204.84 C 28.34 204.84 31.55 204.88 34.77 204.81 C 34.69 192.75 34.79 180.69 34.71 168.63 C 45.16 168.67 55.60 168.64 66.05 168.64 C 71.83 168.63 77.51 166.53 82.08 163.01 C 92.72 155.35 96.32 139.67 89.81 128.24 C 85.08 119.24 75.04 113.85 65.02 113.76 C 51.76 113.83 38.50 113.65 25.24 113.78 M 124.69 113.73 C 124.69 144.10 124.55 174.51 124.76 204.87 C 127.94 204.83 131.12 204.85 134.30 204.86 C 134.36 192.97 134.34 181.08 134.30 169.19 L 134.61 168.54 C 142.78 168.74 150.97 168.68 159.14 168.57 C 167.15 180.39 174.55 192.73 182.14 204.86 C 186.11 204.81 190.09 204.92 194.06 204.78 C 186.09 192.50 178.51 179.95 170.36 167.79 C 179.91 166.33 187.74 158.79 190.94 149.85 C 193.40 142.04 192.36 133.08 187.78 126.23 C 183.33 118.66 174.75 114.07 166.06 113.78 C 152.27 113.71 138.48 113.82 124.69 113.73 M 235.41 114.25 C 235.30 144.42 235.46 174.60 235.33 204.77 C 253.95 204.94 272.59 204.83 291.22 204.83 C 291.21 201.75 291.20 198.68 291.22 195.61 C 275.90 195.62 260.57 195.58 245.25 195.63 C 245.04 184.84 245.20 174.00 245.17 163.19 C 257.34 163.01 269.69 163.52 281.76 162.94 C 281.32 159.92 282.39 156.43 281.21 153.70 C 269.20 153.92 257.17 153.76 245.15 153.79 C 245.17 143.58 245.13 133.37 245.17 123.17 C 260.68 123.03 276.32 123.45 291.76 122.96 C 291.80 119.92 291.81 116.89 291.75 113.85 C 273.11 113.48 254.43 114.01 235.78 113.67 L 235.41 114.25 M 328.55 113.59 C 328.55 144.04 328.44 174.49 328.60 204.93 C 332.01 204.83 335.43 204.94 338.84 204.87 C 338.71 182.47 339.03 160.06 338.68 137.68 C 340.21 138.58 340.32 140.44 341.11 141.85 C 349.49 159.79 357.55 177.91 366.07 195.76 C 368.98 195.70 371.90 195.78 374.81 195.70 C 383.42 176.59 392.33 157.59 400.66 138.36 C 400.89 138.30 401.34 138.18 401.57 138.13 C 401.29 160.39 401.38 182.70 401.52 204.96 C 404.93 204.60 408.42 205.76 411.78 204.75 C 411.67 174.53 411.82 144.30 411.70 114.08 L 411.39 113.48 C 408.19 113.78 404.95 113.73 401.74 113.63 C 400.39 115.52 399.67 117.75 398.66 119.83 C 389.52 140.55 380.06 161.14 371.07 181.93 L 370.14 181.87 C 359.84 159.15 349.34 136.52 339.01 113.81 C 335.56 113.37 332.03 113.80 328.55 113.59 M 607.64 113.74 C 607.57 144.12 607.59 174.49 607.63 204.87 C 610.85 204.83 614.08 204.85 617.31 204.86 C 617.27 192.89 617.40 180.93 617.24 168.97 C 625.31 168.18 633.94 168.95 642.22 168.58 C 650.04 180.54 657.54 192.72 665.11 204.85 C 669.09 204.80 673.07 204.96 677.05 204.75 C 668.93 192.56 661.57 179.87 653.24 167.83 C 662.00 166.45 669.43 160.01 673.00 152.02 C 676.83 143.55 675.57 133.26 670.37 125.63 C 665.79 118.42 657.48 114.04 649.00 113.78 C 635.21 113.73 621.42 113.80 607.64 113.74 M 717.81 113.79 C 717.74 134.18 717.80 154.57 717.78 174.96 C 717.93 184.89 717.47 195.02 718.01 204.82 C 736.56 204.85 755.12 204.93 773.66 204.78 C 773.42 201.69 773.95 198.51 773.39 195.49 C 758.09 195.62 742.69 195.82 727.45 195.39 C 727.74 184.64 727.39 173.87 727.63 163.11 C 739.85 163.28 752.08 163.14 764.30 163.19 C 764.25 160.05 764.33 156.92 764.25 153.78 C 752.04 153.87 739.83 153.70 727.62 153.87 C 727.61 143.63 727.32 133.27 727.77 123.10 C 743.28 123.28 758.80 123.10 774.32 123.19 C 774.34 120.04 774.37 116.89 774.30 113.75 C 755.47 113.82 736.64 113.64 717.81 113.79 Z"/>
<path fill="#231f20" opacity="1.00" d=" M 34.76 123.09 C 44.87 123.28 54.99 123.09 65.10 123.19 C 70.64 123.34 76.08 126.27 79.08 130.97 C 83.33 136.81 83.39 145.31 79.29 151.24 C 76.03 156.34 70.02 159.41 64.01 159.37 C 54.25 159.39 44.50 159.33 34.74 159.41 C 34.76 147.30 34.70 135.19 34.76 123.09 Z"/>
<path fill="#231f20" opacity="1.00" d=" M 134.29 123.27 C 144.20 123.02 154.15 123.23 164.07 123.17 C 169.95 123.03 175.71 126.33 178.61 131.44 C 182.86 138.03 182.30 147.26 177.46 153.39 C 174.40 157.11 169.65 159.18 164.88 159.35 C 154.79 159.47 144.69 159.20 134.60 159.49 C 133.94 147.52 134.56 135.33 134.29 123.27 Z"/>
<path fill="#231f20" opacity="1.00" d=" M 617.31 123.20 C 627.21 123.12 637.13 123.18 647.04 123.17 C 652.90 123.05 658.68 126.33 661.56 131.45 C 665.85 138.06 665.22 147.31 660.36 153.45 C 657.34 157.09 652.67 159.13 647.99 159.35 C 637.87 159.48 627.74 159.19 617.64 159.50 L 617.32 158.91 C 617.30 147.01 617.31 135.10 617.31 123.20 Z"/>
</g>
</svg>