<svg width="200mm" height="262.983" viewBox="0 0 200 69.581" xmlns="http://www.w3.org/2000/svg">
    <path fill="#840d38" fill-rule="evenodd" d="M0 32.37h90.56v4.924H0z"/>
    <path d="M40.85 69.27c-16.494-2.219-29.092-15.676-30.144-32.198-.815-12.81 5.189-24.688 16.03-31.712C30.48 2.934 35.051 1.202 39.968.346c2.614-.455 8.348-.453 10.938.004 7.978 1.407 14.458 4.867 19.977 10.667 2.997 3.15 5.569 7.278 7.13 11.443.757 2.022.98 2.809 1.572 5.526.802 3.686.79 9.908-.028 13.761-2.27 10.706-9.106 19.506-18.85 24.268-6.303 3.08-12.994 4.177-19.858 3.254zm8.595-4.863c10.776-1.572 19.534-8.32 23.624-18.2 1.507-3.64 2.026-6.14 2.14-10.3.156-5.759-.597-9.485-2.869-14.182C68.238 13.242 60.624 7.362 51.174 5.38c-1.266-.266-2.682-.396-4.984-.46-2.785-.076-3.528-.035-5.547.306-2.405.407-5.666 1.37-7.487 2.212-1.368.633-3.593 1.904-3.596 2.055-.001.065 4.265.149 9.48.185 9.125.063 9.554.081 11.33.473 5.164 1.138 9.084 3.262 12.723 6.89 3.178 3.168 5.241 6.596 6.413 10.652.467 1.616.865 3.595.867 4.443l.064.7-2.549-.014-2.423-.005-.216-1.7c-1.008-7.935-7.247-13.934-15.402-16.04-1.462-.377-1.814-.389-14.031-.453l-12.531-.066-.929 1.144c-.51.63-1.292 1.686-1.736 2.348l-.807 1.204 13.914.106c9.612.072 14.187.169 14.796.31 8.565 1.995 13.878 10.363 11.823 18.62-1.958 7.182-7.962 11.752-13.278 11.739l-12.879-.032c-8.003-.02-14.335.124-14.335.21 0 .281 1.84 2.885 2.719 3.848l.866.95 12.366-.073c11.638-.067 12.45-.092 13.777-.424 5.214-1.303 9.072-3.807 12.084-7.841 1.753-2.349 3.262-5.859 3.612-8.402l.127-1.588h2.476l2.523-.094-.088 1.562c-.069 1.234-.862 4.064-1.425 5.545-1.259 3.31-3.507 6.71-6.015 9.093-3.649 3.47-7.514 5.477-12.78 6.637-1.64.362-2.343.392-11.277.488l-9.527.101 1.147.641c3.67 2.052 6.517 3.06 10.375 3.672 2.603.413 6.145.448 8.63.085zm3.618-22.633c4.907-5.202 3.034-13.82-3.602-16.574-2.174-.903-2.884-.937-18.124-.881l-14.01.051-.404 1.235c-1.108 3.395-1.56 7.492-1.276 11.55.184 2.631.266 3.09 1.068 5.965l.554 1.99s9.36.011 14.481-.006c5.121-.016 12.672.045 15.363-.048 2.241-.078 5.48-2.273 5.95-3.283z" fill-rule="evenodd"/>
    <path fill="#840d38" fill-rule="evenodd" d="M64.9 32.37h6.44v4.924H64.9z"/>
    <path d="M103.37 43.65c1.36-.297 1.942-1.417 1.942-2.525 0-1.326-.788-2.617-2.845-2.617h-3.679v8.17h1.805v-2.937h.88l2.057 2.937h2.194l-2.285-3.028zm-1.383-3.748c.857 0 1.566.16 1.566 1.223 0 1.04-.709 1.234-1.566 1.234h-1.394v-2.457zM115.153 46.7h3.52c2.49 0 3.702-1.76 3.702-4.125 0-2.697-1.589-4.034-3.703-4.034h-3.519zm1.794-6.65h1.28c1.77 0 2.354 1.051 2.354 2.696 0 1.806-.995 2.446-2.034 2.446h-1.6zM123.326 46.67h1.794v-8.158h-1.794zM134.55 42.55c0-2.383-1.921-4.301-4.256-4.301-2.347 0-4.245 1.918-4.245 4.301 0 2.372 1.898 4.29 4.245 4.29 2.335 0 4.256-1.919 4.256-4.29zm-4.256-2.546c1.369 0 2.484 1.163 2.484 2.546 0 1.383-1.115 2.534-2.484 2.534-1.37 0-2.508-1.15-2.508-2.534 0-1.383 1.139-2.546 2.508-2.546z" stroke-width=".822"/>
    <path d="M107.34 46.76l.863-1.828h4.155l.806 1.828h1.75l-3.672-8.251h-1.819l-3.729 8.251zm3.027-6.7l1.335 3.194h-2.728l1.381-3.194z" stroke-width=".289"/>
    <path d="M110.16 36.49l-.475 1.379 1.426-.008.753-1.379zM130.332 36.48l-.475 1.379 1.426-.008.753-1.379z" stroke-width=".822"/>
    <path d="M98.85 34.94h2.565v-4.182h2.695c2.924 0 4.035-1.846 4.035-3.74s-1.111-3.741-4.035-3.741h-5.26zm2.565-9.67h1.993c1.176 0 2.254.261 2.254 1.748 0 1.486-1.078 1.747-2.254 1.747h-1.993zM108.76 34.94l1.225-2.581h5.897l1.144 2.581h2.483l-5.211-11.647h-2.581l-5.293 11.647zm4.296-9.458l1.895 4.508h-3.871l1.96-4.508zM126.588 30.63c1.944-.425 2.777-2.026 2.777-3.61 0-1.895-1.127-3.74-4.067-3.74h-5.26v11.68h2.58v-4.2h1.258l2.94 4.2h3.137l-3.267-4.33zm-1.977-5.358c1.225 0 2.238.229 2.238 1.748 0 1.486-1.013 1.764-2.238 1.764h-1.993v-3.512zM138.455 34.86v-2.156h-5.185v-9.475h-2.515V34.86zM140.957 34.94l1.225-2.581h5.897l1.144 2.581h2.483l-5.211-11.647h-2.581L138.62 34.94zm4.296-9.458l1.895 4.508h-3.871l1.96-4.508zM173.386 30.29v-2.27h-5.325v-2.63h6.027v-2.157h-8.51V34.93h9.066v-2.156h-6.583V30.29zM184.255 34.96h2.173V23.248h-2.173v7.286l-5.21-7.286h-2.941V34.96h2.238v-8.07zM197.434 34.94h2.565V23.277h-2.565zM152.079 34.94h2.202l.03-7.813 2.814 7.82h1.976l2.758-7.837.033 7.83h2.238V23.281h-3.38l-2.645 5.144-2.695-5.144h-3.331z"/>
    <path d="M190.677 34.94h2.617l.012-9.482h3.023V23.16h-8.703v2.28h3.063z" stroke-width=".827"/>
</svg>
