<svg width="248pt" height="45pt" version="1.1" viewBox="0 0 248 45" xmlns="http://www.w3.org/2000/svg">
 <path d="m21.374 0h204.85l1.7 45h-208.25zc-6.1 0.39-11.99 3.19-15.96 7.86-6.35 7.14-7.18 18.42-2.14 26.5 3.49 5.83 9.7398 9.62 16.4 10.64m206.55-45c6.1 0.39 11.99 3.1898 15.96 7.8598 6.35 7.14 7.18 18.42 2.14 26.5-3.49 5.83-9.74 9.6202-16.4 10.64" fill="#a31e22"/>
 <g fill="#fafae6">
  <path d="m15.6 13.98c-0.14-2.42 1.6538-4.5825 4.28-4.67 4.49-0.04 9.73-0.83 13.37 2.43 4.45 3.81 4.17 11.54-0.51 15.05-2.22 1.88-5.24 1.94-7.99 2.13-0.24 2.37 0.15 5.27-1.91 6.98-2.53 1.99-6.84 0.34-7.12-2.97-0.39-6.3-0.17-12.64-0.12-18.95z"/>
  <path d="m44.52 11.44c1.34-3.28 6.66-3.22 8.02 0.02 3.05 6.01 5.73 12.2 8.67 18.27 1.69 2.69 0 6.84-3.33 6.97-2.7 0.54-4.24-2.04-5.64-3.84-2.49 0-4.99 0.01-7.48 0.05-1.34 1.88-2.97 4.38-5.68 3.77-3.26-0.19-4.81-4.23-3.26-6.88 2.91-6.11 5.65-12.31 8.7-18.36z"/>
  <path d="m63.56 12.38c0.94809-2.8247 3.6235-3.2242 6.3375-3.1967 1.5432 0.015662 3.2396 0.030728 4.596 0.023578 4.4971-0.023705 8.7271 3.2987 9.5465 7.7431 0.93 3.3-0.7 6.51-2.53 9.14 1.24 2.41 3.72 5 2.52 7.9-0.96 2.67-4.72 3.63-6.88 1.89-1.87-2.15-3.16-4.71-4.65-7.11-0.23 2.36 0.36 5.33-1.75 7.02-2.6 2.22-7.24 0.4-7.29-3.14-0.2-6.74-0.37-13.54 0.1-20.27z"/>
  <path d="m85.5 15.62c-1.82-2.57 0.2951-6.2532 3.5-6.27 5.1816-0.2791 10.56-0.2696 15.82 0.0804 3.21 0.39 4.2 5.0496 1.85 7.0396-1.52 1.45-3.83 0.97-5.73 1.27 0.05 5.34 0.6 10.77-0.31 16.06-0.98 3.92-7.4 3.84-8.3-0.08-0.49-5.3-0.32-10.66-0.26-15.98-2.28-0.19-5.13 0.08-6.57-2.12z"/>
  <path d="m108.26 13.87c-0.39-3.6 4.05-6.16 7.07-4.23 1.99 1.67 3.17 4.07 4.66 6.16 1.98-2.5 3.28-6.72 7.06-6.77 2.86-0.23 5.43 2.85 4.43 5.61-1.73 3.91-5.11 6.82-6.87 10.71-0.54 3.06 0.56 6.43-0.9 9.3-1.65 2.97-6.72 2.74-7.89-0.53-0.81-2.89-0.08-5.96-0.57-8.9-2-3.98-5.41-7.14-6.99-11.35z"/>
  <path d="m133.43 11.58c1.31-3.59 7.47-3.35 8.26 0.47 0.89 5.29 0.23 10.68 0.47 16.02 3.08 0.05 6.58-0.54 8.95 1.94 2.76-6.18 5.65-12.31 8.59-18.41 1.38-3.62 7.34-3.35 8.45 0.36 2.79 6.12 5.89 12.12 8.52 18.32 1.71 3.02-1.23 7.1-4.63 6.42-2.21-0.01-3.12-2.29-4.26-3.78-2.6-0.05-5.21-0.05-7.81-0.01-1.23 1.68-2.45 4.07-4.92 3.81-1.68 0.22-2.82-1.15-4.05-2.02-2.99 2.83-7.32 1.65-11.02 1.89-2.39 0.05-5.76-0.05-6.6-2.84-0.96-4.53-0.29-9.21-0.49-13.81 0.05-2.78-0.17-5.64 0.54-8.36z"/>
  <path d="m178.73 12.98c0.04-3.47 4.84-5.39 7.26-2.9 2.85 2.91 5.17 6.28 7.75 9.43 0.16-2.9-0.48-6.12 1.06-8.75 2.11-3.2 7.95-1.71 7.98 2.25 0.17 6.62 0.27 13.27-0.06 19.89-0.04 3.47-4.89 5.17-7.19 2.69-2.91-3.01-5.17-6.57-7.82-9.8-0.25 2.97 0.51 6.22-0.81 9.01-1.88 3.3-7.75 2.16-8.04-1.72-0.46-6.68-0.27-13.41-0.13-20.1z"/>
  <path d="m210.3 9.4c1.4896-0.10845 3.052-0.18241 4.6251-0.21684 4.7028-0.10291 9.518 0.39992 12.935 3.9068 5.64 5.29 5.16 15.2-0.75 20.09-4.35 3.95-10.67 3.55-16.13 3.27-2.36 0.07-4.38-2.06-4.21-4.41-0.12-6.02-0.06-12.05-0.04-18.08-0.28-2.18 1.3478-4.3982 3.57-4.56z"/>
 </g>
</svg>
