<svg enable-background="new 0 0 1999 742" version="1.1" viewBox="0 0 1999 742" xml:space="preserve" xmlns="http://www.w3.org/2000/svg"><defs><radialGradient id="l" cx="96.973" cy="28.951" r="65.771" gradientTransform="matrix(-.5076 .8616 -.8616 -.5076 187.3 -61.064)" gradientUnits="userSpaceOnUse"><stop offset=".7"/><stop stop-color="#030303" offset=".7679"/><stop stop-color="#0B0B0B" offset=".8088"/><stop stop-color="#191919" offset=".8425"/><stop stop-color="#2E2E2E" offset=".8723"/><stop stop-color="#484848" offset=".8996"/><stop stop-color="#686868" offset=".925"/><stop stop-color="#8F8F8F" offset=".9489"/><stop stop-color="#bbb" offset=".9717"/><stop stop-color="#EDEDED" offset=".9928"/><stop stop-color="#fff" offset="1"/></radialGradient><linearGradient id="g" x1="-1004" x2="-1004" y1="488.58" y2="407.31" gradientTransform="matrix(.8873 -.4612 .4612 .8873 801.62 -849.8)" gradientUnits="userSpaceOnUse"><stop stop-color="#404040" offset=".2582"/><stop stop-color="#3B3B3B" offset=".2638"/><stop stop-color="#252525" offset=".2947"/><stop stop-color="#141414" offset=".3311"/><stop stop-color="#090909" offset=".3762"/><stop stop-color="#020202" offset=".4396"/><stop offset=".6154"/></linearGradient><mask id="k" x="97.2" y="1" width="59.2" height="55.5" maskUnits="userSpaceOnUse"><g class="st4" filter="url(#d)"><linearGradient id="b" x1="5.5047" x2="5.5047" y1="-891.84" y2="-945.78" gradientTransform="matrix(.8836 -.4684 .4684 .8836 552.29 843.18)" gradientUnits="userSpaceOnUse"><stop offset="0"/><stop stop-color="#020202" offset=".2481"/><stop stop-color="#0A0A0A" offset=".3852"/><stop stop-color="#181818" offset=".4953"/><stop stop-color="#2C2C2C" offset=".591"/><stop stop-color="#454545" offset=".6774"/><stop stop-color="#646464" offset=".7571"/><stop stop-color="#898989" offset=".8317"/><stop stop-color="#B5B5B5" offset=".9022"/><stop stop-color="#E4E4E4" offset=".9671"/><stop stop-color="#fff" offset="1"/></linearGradient><path class="st5" d="m153.6 14.5c7 13.2 0.6 30.2-14.2 38s-32.4 3.5-39.4-9.6c-7-13.2-0.6-30.2 14.1-38 14.8-7.8 32.5-3.5 39.5 9.6z" fill="url(#b)"/><path class="st6" d="m153.6 14.5c7 13.2 0.6 30.2-14.2 38s-32.4 3.5-39.4-9.6c-7-13.2-0.6-30.2 14.1-38 14.8-7.8 32.5-3.5 39.5 9.6z" fill="url(#b)"/></g></mask><filter id="d" x="97.2" y="1" width="59.2" height="55.5" filterUnits="userSpaceOnUse"><feColorMatrix values="1 0 0 0 0  0 1 0 0 0  0 0 1 0 0  0 0 0 1 0"/></filter><linearGradient id="e" x1="429.46" x2="400.55" y1="-470.27" y2="-508.51" gradientTransform="matrix(.9824 .1866 -.1866 .9824 -378.83 419.12)" gradientUnits="userSpaceOnUse"><stop offset=".4011"/><stop stop-color="#282828" offset=".427"/><stop stop-color="#545454" offset=".4606"/><stop stop-color="#7D7D7D" offset=".4978"/><stop stop-color="#A0A0A0" offset=".5374"/><stop stop-color="#BEBEBE" offset=".5804"/><stop stop-color="#D6D6D6" offset=".6277"/><stop stop-color="#E8E8E8" offset=".6812"/><stop stop-color="#F5F5F5" offset=".7444"/><stop stop-color="#FDFDFD" offset=".8269"/><stop stop-color="#fff" offset="1"/></linearGradient><mask id="f" x="100" y="1.8" width="46.1" height="39.5" maskUnits="userSpaceOnUse"><g class="st8" filter="url(#c)"><linearGradient id="a" x1="5.57" x2="5.57" y1="-908.64" y2="-945.25" gradientTransform="matrix(.8836 -.4684 .4684 .8836 552.29 843.18)" gradientUnits="userSpaceOnUse"><stop offset="0"/><stop stop-color="#020202" offset=".2481"/><stop stop-color="#0A0A0A" offset=".3852"/><stop stop-color="#181818" offset=".4953"/><stop stop-color="#2C2C2C" offset=".591"/><stop stop-color="#454545" offset=".6774"/><stop stop-color="#646464" offset=".7571"/><stop stop-color="#898989" offset=".8317"/><stop stop-color="#B5B5B5" offset=".9022"/><stop stop-color="#E4E4E4" offset=".9671"/><stop stop-color="#fff" offset="1"/></linearGradient><path class="st9" d="m144.4 10.2c4.7 8.9-1 21.3-12.8 27.5-11.8 6.3-25.2 4.1-30-4.8-4.7-8.9 1-21.3 12.8-27.5 11.9-6.3 25.3-4.2 30 4.8z" fill="url(#a)"/><path class="st10" d="m144.4 10.2c4.7 8.9-1 21.3-12.8 27.5-11.8 6.3-25.2 4.1-30-4.8-4.7-8.9 1-21.3 12.8-27.5 11.9-6.3 25.3-4.2 30 4.8z" fill="url(#a)"/></g></mask><filter id="c" x="100" y="1.8" width="46.1" height="39.5" filterUnits="userSpaceOnUse"><feColorMatrix values="1 0 0 0 0  0 1 0 0 0  0 0 1 0 0  0 0 0 1 0"/></filter></defs>
<filter x="97.2" y="1" width="59.2" height="55.5" filterUnits="userSpaceOnUse">
	<feColorMatrix values="1 0 0 0 0  0 1 0 0 0  0 0 1 0 0  0 0 0 1 0"/>
</filter>
<filter x="100" y="1.8" width="46.1" height="39.5" filterUnits="userSpaceOnUse">
	<feColorMatrix values="1 0 0 0 0  0 1 0 0 0  0 0 1 0 0  0 0 0 1 0"/>
</filter>
<g transform="matrix(11.242,0,0,11.242,-1082.6,0)"><path d="m162.3 33c0 18.2-14.8 33-33 33s-33-14.8-33-33 14.8-33 33-33c18.3 0 33 14.8 33 33z"/><path class="st3" d="m113.8 60.5c-15.1-8.9-20.1-28.3-11.2-43.3s28.3-20.1 43.3-11.2c15.1 8.9 20.1 28.3 11.2 43.3-8.9 15.1-28.3 20.1-43.3 11.2z" fill="url(#l)"/><mask x="97.2" y="1" width="59.2" height="55.5" maskUnits="userSpaceOnUse"><g class="st4" fill="url(#b)" filter="url(#d)"><path class="st5" d="m153.6 14.5c7 13.2 0.6 30.2-14.2 38s-32.4 3.5-39.4-9.6c-7-13.2-0.6-30.2 14.1-38 14.8-7.8 32.5-3.5 39.5 9.6z"/><path class="st6" d="m153.6 14.5c7 13.2 0.6 30.2-14.2 38s-32.4 3.5-39.4-9.6c-7-13.2-0.6-30.2 14.1-38 14.8-7.8 32.5-3.5 39.5 9.6z"/></g></mask><path class="st7" d="m153.6 14.5c7 13.2 0.6 30.2-14.2 38s-32.4 3.5-39.4-9.6c-7-13.2-0.6-30.2 14.1-38 14.8-7.8 32.5-3.5 39.5 9.6z" fill="url(#g)" mask="url(#k)"/><mask x="100" y="1.8" width="46.1" height="39.5" maskUnits="userSpaceOnUse"><g class="st8" fill="url(#a)" filter="url(#c)"><path class="st9" d="m144.4 10.2c4.7 8.9-1 21.3-12.8 27.5-11.8 6.3-25.2 4.1-30-4.8-4.7-8.9 1-21.3 12.8-27.5 11.9-6.3 25.3-4.2 30 4.8z"/><path class="st10" d="m144.4 10.2c4.7 8.9-1 21.3-12.8 27.5-11.8 6.3-25.2 4.1-30-4.8-4.7-8.9 1-21.3 12.8-27.5 11.9-6.3 25.3-4.2 30 4.8z"/></g></mask><path class="st11" d="m144.4 10.2c4.7 8.9-1 21.3-12.8 27.5-11.8 6.3-25.2 4.1-30-4.8-4.7-8.9 1-21.3 12.8-27.5 11.9-6.3 25.3-4.2 30 4.8z" fill="url(#e)" mask="url(#f)"/><path class="st1" d="m132.7 14.6h-10c-8.2 0-14.9 5.7-14.9 14.2 0 7.1 4.3 12.2 10.7 13.2v9.9h13.3v-9.5h1.8c2.2-0.2 3.6-1.6 3.6-3.6v-5.5h3.6zm-2.6 16c-1.8 0-3.3-1.5-3.3-3.3s1.5-3.3 3.3-3.3 3.3 1.5 3.3 3.3-1.5 3.3-3.3 3.3zm13.8-16h-5.4l8.2 18.6h-3.7v4.9c0 3-1.2 4.3-5.3 4.2v9.5h5.3v-9.5h1.7c1.6 0 3.6-1.2 3.7-3.7v-5.5h3.6z" fill="#fff"/></g>
<g transform="translate(-3.12e-5)" fill="#231F20">
	<g transform="matrix(.66282 0 0 .66282 294.63 464.27)">
		<path d="m824.1-405.1h-36v-43.8h119.2c64.1 0 101.2 32.6 101.2 85.4s-38.3 85.5-99 85.5h-32.6v67.5h41.6v45h-130.4v-45h36v-194.6zm51.7 82.1h34.9c29.2 0 45-18 45-40.5 0-23.6-16.9-40.5-45-40.5h-34.9v81z"/>
		<path d="m1059-405.1h-32.6v-43.8h113.6c69.7 0 92.2 41.6 92.2 73.1 0 25.9-13.5 47.2-33.7 57.3 28.1 12.4 43.8 40.5 43.8 66.3 0 61.8-48.3 86.6-94.4 86.6h-125.9v-45h36v-194.5h1zm51.7 193.4h32.6c27 0 46.1-14.6 46.1-40.5 0-21.4-14.6-40.5-46.1-40.5h-32.6v81zm0-124.8h31.5c23.6 0 39.3-13.5 39.3-34.9 0-20.2-15.7-33.7-39.3-33.7h-31.5v68.6z"/>
		<path d="m1408.7-405.1c-9-3.4-21.4-6.7-33.7-6.7-34.9 0-46.1 20.2-46.1 36 0 20.2 13.5 27 29.2 30.4l30.4 7.9c37.1 10.1 77.6 23.6 77.6 82.1 0 52.8-32.6 92.2-103.4 92.2-27 0-56.2-3.4-89.9-15.7v-74.2h51.7v37.1c13.5 5.6 27 6.7 41.6 6.7 30.4 0 43.8-16.9 43.8-38.2 0-14.6-6.7-24.7-40.5-34.9l-27-7.9c-51.7-14.6-68.6-37.1-68.6-80.9 0-45 28.1-83.2 98.9-83.2 30.4 0 60.7 5.6 82.1 14.6v67.5h-47.2v-32.6l1.1-0.2z"/>
	</g>
		<path d="m1140.8 557.9h-14.2v26.9h64.7v-26.9h-16.8v-130.8h17.6v-26.9h-61.1l-39.2 114.8c-5.1 15-7.7 22.4-8.4 33h-0.5c-1-10.6-4.1-17.9-6.7-25.1l-43.3-122.7h-61.9v26.9h17.6v130.8h-14.7v26.9h59.6v-26.9h-17.5v-108.1h0.5c0.2 5.3 3.4 14.8 6.7 24.3l39 110.8h33.7l38-109c3.4-9.5 6.3-19 6.5-24.3h0.5l-0.1 106.3z"/>
		<path d="m1309.2 557.9h-45.9v-53.8h46.4v-28.5h-46.4v-48.5h45.1l1.6 27.4h31.7l-1.6-54.3h-135.1v26.9h19.8v130.8h-16.6v26.9h132.7l2.1-58h-31.7l-2.1 31.1z"/>
		<path d="m1376.4 557.9h-16.8v26.9h72.7v-26.9h-16.8v-48.5h9.1c7 0 11.8 3.2 15.5 9.2l22.7 38.5c14.4 24.3 21.4 27.7 31.3 27.7h29.9v-26.9h-7c-5.1 0-9.6-2.1-15.2-11.6l-16.8-27.7c-9.4-15.3-14.7-18.7-24.1-19.5v-0.5c20.8-0.8 44.1-20.3 44.1-47.8 0-18.7-8.3-35.6-25.1-43.8-10.7-5.3-17.4-6.9-39.3-6.9h-82.6v26.9h18.4v130.9zm39-130.8h17.6c23.8 0 32.9 9 32.9 26.9s-9.6 26.9-30.5 26.9h-20v-53.8z"/>
		<path d="M1556.1,557.9H1539v26.9h74v-26.9h-17.1V427.1h17.1v-26.9h-74v26.9h17.1V557.9z"/>
		<path d="m1746.8 555.3c-6.7 2.1-16.6 2.6-22 2.6-51 0-63.3-38.5-63.3-66.5 0-33.8 16.1-66 61.2-66 9.7 0 17.2 1.1 26.6 4.2v29.5h33.8v-51.4c-18.3-6.3-38.1-10.8-62-10.8-69.3 0-102 46.7-102 96.8 0 57.5 37.6 94.2 100.4 94.2 22.5 0 40.8-2.4 61.2-9.2l1.6-57h-33.8l-1.7 33.6z"/>
		<path d="m1917.8 494.1h-43.7l14.5-38.5c3.2-8.4 6.2-17.1 8.3-26.9h0.5c1.3 9.8 4 18.7 7 26.9l13.4 38.5zm22 63.8h-15.3v26.9h74.5v-26.9h-15l-61.9-157.8h-43.1l-66 157.8h-15v26.9h69.7v-26.9h-18l13.4-35.4h64.6l12.1 35.4z"/>
		<path d="m878.8 494.1h-43.7l14.5-38.5c3.2-8.4 6.2-17.1 8.3-26.9h0.5c1.3 9.8 4 18.7 7 26.9l13.4 38.5zm22 63.8h-15.3v26.9h74.5v-26.9h-15l-61.9-157.8h-43.1l-66 157.8h-15v26.9h69.7v-26.9h-18l13.4-35.4h64.6l12.1 35.4z"/>
</g>
</svg>
