<svg data-name="Layer 01" version="1.1" viewBox="0 0 735.11 200" xmlns="http://www.w3.org/2000/svg">
	<path d="m0 4.7009e-4 312.27-4.7009e-4c23.89-3.5964e-5 43.122 27.191 43.122 60.966v78.067c0 33.775-19.233 60.966-43.122 60.966l-312.27 4.7e-4z" fill="#025a91"/>
	<path d="m274.1 66.136c4.0142-4.873 5.9193-11.116 5.3128-17.399-0.6086-6.284-3.6746-12.047-8.5475-16.062-4.873-4.0143-11.116-5.9193-17.399-5.3127-6.284 0.6086-12.047 3.6746-16.062 8.5475-4.0143 4.873-5.9193 11.116-5.3128 17.399 0.6086 6.284 3.6746 12.047 8.5475 16.062 4.8729 4.0144 11.116 5.9193 17.399 5.3127 6.284-0.60652 12.047-3.6746 16.062-8.5475zm5.0606 15.563v94.76c-12.566 0-24.617-4.9918-33.502-13.877-8.8872-8.8852-13.879-20.936-13.879-33.502s4.9918-24.617 13.877-33.502c8.8852-8.8852 20.936-13.877 33.504-13.877zm6.8978-54.223v94.761c12.566 0 24.617-4.9918 33.502-13.877 8.8853-8.8852 13.877-20.937 13.877-33.505s-4.9918-24.617-13.877-33.502c-8.8852-8.8852-20.937-13.877-33.505-13.877z" fill="#fff"/>
	<path d="m438.37 28.248c11.113 0 17.836 4.8251 17.836 13.944 0 10.244-7.9974 15.466-19.325 15.466h-3.6099v14.541h-12.173v-43.95h17.269zm5.3818 14.673c0-4.4932-2.5493-5.7508-7.0782-5.7508h-3.3991v11.631h2.7602c4.6706 0 7.714-1.3223 7.714-5.883zm47.213-14.673v9.9121h-18.617v6.7411h15.925v9.7826h-15.925v7.5993h19.11v9.9121h-31.284v-43.947zm21.943 0c10.899 0 18.192 3.1061 18.192 12.424 0 5.6186-3.6793 9.6475-7.6448 11.234 1.7688 0.72589 2.5493 1.916 3.6793 4.1641l7.7141 16.124h-13.096l-6.3702-14.276c-0.77743-1.6515-1.9104-2.445-3.8209-2.445h-3.3267v16.721h-12.173v-43.947h16.844zm5.7344 13.682c0-3.9643-2.266-4.8251-6.7227-4.8251h-3.6793v10.376h4.6013c3.6099 0 5.8037-1.9835 5.8037-5.551zm15.928 26.501 4.1765-9.2509c3.1851 1.8513 9.3443 4.0317 13.376 4.0317 2.6909 0 4.8846-0.85813 4.8846-3.8348 0-2.7769-2.9741-3.6997-7.0782-4.8899-6.0176-1.6515-13.59-4.3609-13.59-13.217 0-8.857 7.2892-13.812 17.059-13.812 6.7227 0 13.166 2.5772 17.342 6.5415l-6.3008 7.4671c-3.7516-2.5772-7.714-4.4932-10.899-4.4932-2.4077 0-4.529 0.92564-4.529 3.3706 0 2.8416 3.2544 3.832 7.6448 5.1544 6.4424 1.9835 13.379 4.5607 13.379 13.415 0 8.8541-7.4308 14.076-17.977 14.076-7.0782 0-14.509-2.6419-17.484-4.5607zm52.664-40.182v43.95h-12.173v-43.95zm32.064 0 16.281 43.95h-12.813l-3.2544-9.3859h-14.084l-3.2574 9.3859h-11.89l15.431-43.95h13.59zm-6.7257 10.576h-0.35255l-4.743 15.663h9.9797zm37.022-10.576 15.642 23.923h0.14164v-23.923h12.032v43.95h-10.757l-15.998-24.453h-0.28326v24.453h-11.963v-43.95h11.182zm59.6 0 16.281 43.95h-12.813l-3.2574-9.3859h-14.084l-3.2574 9.3859h-11.89l15.431-43.95zm-6.7227 10.576h-0.35255l-4.743 15.663h9.9797z" fill="#025a91"/>
	<path d="m442.93 198.03c-4.3317 0-8.6027-0.0657-12.917-0.0683-7.7432-4e-3 -8.9086-1.1818-8.9124-8.9996-6e-3 -20.964-3e-3 -43.093 0-64.069 8.3056 0.22498 19.218-2.2903 20.139 9.4824v45.466c7.8038-0.48031 22.456-0.3615 30.384-1.1654 8.8289-1.221 14.998-6.3718 17.841-14.896 5.3656-15.61 1.6242-38.005-16.299-42.993-8.0819-2.3409-18.46-0.99728-26.551-1.2488v-0.0746h-16.224c-5.0269 0.10617-9.4458-4.362-9.2764-9.3876 0.0329-7.5119 0.91639-8.973 8.6457-9.0451 10.265-0.11123 25.723-0.0897 35.591 0.0455 24.165 0.39562 42.723 14.358 46.489 38.41 4.568 25.334-7.139 51.981-34.265 56.9-10.597 2.2423-23.39 1.4094-34.645 1.6419z"/>
	<path d="m559.42 199.38c-26.968 0.10744-40.421-19.633-34.344-45.373 0.3122-1.1616 1.3828-1.9566 2.5861-1.9566h14.498c1.9845-3e-3 3.2586 2.0704 2.4155 3.8653-3.8931 9.6581-1.6179 23.085 8.719 26.438 11.847 4.0928 23.667-3.9626 22.9-16.838 0.32232-10.71-5.8143-18.933-16.613-18.893h-26.69c-2.2549 0-3.5076-2.6101-2.0982-4.3709 4.2558-5.3163 10.389-8.8517 18.309-10.537 20.255-4.0865 41.895 3.2699 45.526 24.876 4.6312 25.447-9.5671 42.868-35.21 42.791z"/>
	<path d="m703.78 199.25c-5.7044 0-10.784-0.76092-15.528-2.3257-5.0888-1.7784-15.264-7.2806-9.3876-13.075 2.2385-2.0426 5.377-5.9079 8.4143-6.3224 0.8633 0 1.762 0.43734 2.916 1.4169 5.7688 5.0446 13.455 5.4225 21.275 3.8817 6.2972-1.1123 5.923-8.1767 0.44619-9.9817-6.1872-1.7392-12.587-2.3599-18.707-4.29-6.9785-2.3738-10.853-6.8356-11.758-13.584-0.22751-1.7013 1.0744-3.2219 2.7909-3.2219h14.152c1.8328-0.0961 2.3548 1.8492 3.9411 2.4104 5.8131 2.4294 12.54 3.2244 18.594 5.1179 18.062 4.8107 19.374 29.815 0.99476 37.122-5.2278 2.0767-12.312 2.8718-18.139 2.8516zm19.336-48.288c-1.2273 0-2.5469-0.44366-3.9209-1.3196-3.4962-2.2271-7.3791-3.3559-11.541-3.3559-0.41332 0-0.83549 0.0114-1.2564 0.0329h-21.483c-1.6621 0-2.7871-1.6798-2.1728-3.2232 4.5225-10.576 14.824-11.946 23.844-12.491 6.3743 0.16052 12.072 0.51191 17.203 2.9906 3.0133 1.4561 5.7296 3.6479 7.7596 5.3947 1.5863 1.3651 1.7304 2.8794 0.43987 4.6287-2.4812 2.9438-5.1191 7.1567-8.8732 7.3425z"/>
	<path d="m661.85 193.49c-15.763-0.41458-15.759-23.495 0-23.907 15.762 0.41459 15.759 23.495 0 23.907z" fill="#025a91"/>
	<path d="m639.75 199.22c-16.108 0.23889-30.904-8.4194-33.382-25.565-1.0933-3.6643-1.2261-20.618 1.8669-21.302h14.354c2.3586 0 3.955 2.351 3.146 4.5655-1.6735 4.5908-1.8846 9.442-0.62946 14.416 1.8593 9.1146 11.597 12.898 20.421 10.957 2.4496-0.50939 0.0531 7.5472 8.9136 12.505 3.8425 3.1473-13.154 4.7121-14.689 4.4227zm12.603-48.385c-1.1919 0-2.4888-0.41585-3.8552-1.2362-2.26-1.3563-4.5124-2.1374-6.8647-2.3776v-0.29703h-29.491c-1.1717 0-1.8745-1.2867-1.2577-2.2828 4.1282-6.67 10.595-11.008 19.276-12.918 10.794-2.6329 23.573-0.8039 31.358 6.4261 1.3436 1.3512 2.504 3.4482 0.40447 5.7574-2.3219 2.2221-6.0962 6.8154-9.5696 6.9292z"/>
</svg>
