<svg width="200mm" height="92.256mm" version="1.1" viewBox="0 0 200 92.256" xmlns="http://www.w3.org/2000/svg">
 <g transform="translate(282.71 -54.752)">
  <path d="m-184.08 84.792h21.163v6.3956h-21.163z" fill="#cd2a3e" style="paint-order:stroke markers fill"/>
  <path d="m-181.63 110.64h18.709v6.3956h-18.709z" fill="#436f4d" style="paint-order:stroke markers fill"/>
  <path d="m-282.71 84.792h21.16v6.3956h-21.16z" fill="#cd2a3e" style="paint-order:stroke markers fill"/>
  <path d="m-282.71 97.703h119.79v6.3956h-119.79z" fill="#fff" style="paint-order:stroke markers fill"/>
  <path d="m-282.71 110.64h18.7v6.3956h-18.7z" fill="#436f4d" style="paint-order:stroke markers fill"/>
  <path d="m-146.1 112.43c1.7901-0.39108 2.5572-1.8653 2.5572-3.3243 0-1.7449-1.0379-3.4446-3.7455-3.4446h-4.8436v10.755h2.3766v-3.8658h1.1582l2.7076 3.8658h2.8881l-3.0084-3.9862zm-1.8201-4.9339c1.1281 0 2.0608 0.21061 2.0608 1.6095 0 1.3689-0.93263 1.6245-2.0608 1.6245h-1.8352v-3.2341z" stroke-width="1.0824" fill="#fff"/>
  <path d="m-130.59 116.45h4.633c3.2792 0 4.8737-2.3165 4.8737-5.4303 0-3.55-2.0909-5.3099-4.8737-5.3099h-4.633zm2.3616-8.7546h1.6847c2.3316 0 3.0987 1.3839 3.0987 3.55 0 2.3766-1.3087 3.2191-2.6775 3.2191h-2.1059z" stroke-width="1.0824" fill="#fff"/>
  <path d="m-119.83 116.4h2.3617v-10.74h-2.3617z" stroke-width="1.0824" fill="#fff"/>
  <path d="m-108.37 102.99-2.2428 0.0124-0.6258 1.8154 1.8774-0.0124zm-2.2862 2.3404c-3.0893 0-5.5878 2.525-5.5878 5.6622 0 3.122 2.4985 5.6472 5.5878 5.6472 3.0741 0 5.6033-2.5253 5.6033-5.6472 0-3.1372-2.5291-5.6622-5.6033-5.6622zm0 2.3104c1.8022 0 3.2711 1.5306 3.2711 3.3517s-1.4691 3.3362-3.2711 3.3362c-1.8022 0-3.3011-1.515-3.3011-3.3362 0-1.8211 1.4989-3.3517 3.3011-3.3517z" fill="#fff"/>
  <path d="m-137.16 103.01-0.62589 1.8152 1.8777-0.0123 0.99103-1.8152zm-3.7155 13.521 1.1364-2.4071h5.4698l1.0606 2.4071h2.3031l-4.8335-10.862h-2.394l-4.9092 10.862zm3.9849-8.8208 1.7576 4.2046h-3.591l1.8183-4.2046z" fill="#fff"/>
  <path d="m-152.22 100.8h3.3298v-5.4294h3.4994c3.7964 0 5.2385-2.3966 5.2385-4.8568s-1.4422-4.8568-5.2385-4.8568h-6.8292zm3.3298-12.556h2.5874c1.527 0 2.9268 0.33935 2.9268 2.2693 0 1.93-1.3998 2.2693-2.9268 2.2693h-2.5874z" fill="#fff"/>
  <path d="m-128.76 94.754v-2.948h-6.914v-3.4146h7.826v-2.7996h-11.05v15.185h11.771v-2.7996h-8.5471v-3.2237z" fill="#fff"/>
  <path d="m-122.42 100.8h3.3298v-12.322h3.9593v-2.7996h-11.291v2.7783h4.0017z" fill="#fff"/>
  <path d="m-94.774 94.727h6.914v-2.948h-6.914v-3.4146h7.826v-2.7996h-11.05v15.207h3.2237v-2.8208z" fill="#fff"/>
  <path d="m-86.036 100.74h3.3298v-15.143h-3.3298z" fill="#fff"/>
  <path d="m-105.01 81.849-0.8834 2.5812 2.6503-0.01782 1.3987-2.5812zm-4.46-0.018-0.88342 2.5812 2.6503-0.01782 1.3987-2.5812zm10.151 11.345c0-4.3705-3.5542-7.8883-7.8746-7.8883-4.3417 0-7.8533 3.5178-7.8533 7.8883 0 4.3492 3.5117 7.867 7.8533 7.867 4.3204 0 7.8746-3.5178 7.8746-7.867zm-7.8746-4.669c2.5326 0 4.5971 2.132 4.5971 4.669 0 2.5371-2.0644 4.6477-4.5971 4.6477s-4.6396-2.1106-4.6396-4.6477c0-2.537 2.107-4.669 4.6396-4.669z" fill="#fff"/>
  <g fill="#fff">
   <path d="m-261.55 84.792h77.467v6.3956h-77.467z" style="paint-order:stroke markers fill"/>
   <path d="m-264.01 110.64h82.381v6.3956h-82.381z" style="paint-order:stroke markers fill"/>
  </g>
  <path d="m-180.27 100.88a42.76 42.877 0 0 1-42.76 42.877 42.76 42.877 0 0 1-42.76-42.877 42.76 42.877 0 0 1 42.76-42.877 42.76 42.877 0 0 1 42.76 42.877z" fill="none" stroke="#fff" stroke-opacity=".98792" stroke-width="6.5024" style="paint-order:stroke markers fill"/>
 </g>
</svg>
