<?xml version="1.0" encoding="UTF-8" standalone="no"?>
<!-- Created with Inkscape (http://www.inkscape.org/) -->

<svg
   xmlns:dc="http://purl.org/dc/elements/1.1/"
   xmlns:cc="http://creativecommons.org/ns#"
   xmlns:rdf="http://www.w3.org/1999/02/22-rdf-syntax-ns#"
   xmlns:svg="http://www.w3.org/2000/svg"
   xmlns="http://www.w3.org/2000/svg"
   xmlns:sodipodi="http://sodipodi.sourceforge.net/DTD/sodipodi-0.dtd"
   xmlns:inkscape="http://www.inkscape.org/namespaces/inkscape"
   width="200mm"
   height="92.257118mm"
   viewBox="0 0 200 92.257118"
   version="1.1"
   id="svg2498"
   inkscape:version="0.92.2 (5c3e80d, 2017-08-06)"
   sodipodi:docname="petofiradio.light.svg">
  <defs
     id="defs2492" />
  <sodipodi:namedview
     id="base"
     pagecolor="#ffffff"
     bordercolor="#666666"
     borderopacity="1.0"
     inkscape:pageopacity="0.0"
     inkscape:pageshadow="2"
     inkscape:zoom="0.35"
     inkscape:cx="775.63807"
     inkscape:cy="-6.902534"
     inkscape:document-units="mm"
     inkscape:current-layer="layer1"
     showgrid="false"
     fit-margin-top="0"
     fit-margin-left="0"
     fit-margin-right="0"
     fit-margin-bottom="0"
     inkscape:window-width="1920"
     inkscape:window-height="1017"
     inkscape:window-x="-8"
     inkscape:window-y="-8"
     inkscape:window-maximized="1" />
  <metadata
     id="metadata2495">
    <rdf:RDF>
      <cc:Work
         rdf:about="">
        <dc:format>image/svg+xml</dc:format>
        <dc:type
           rdf:resource="http://purl.org/dc/dcmitype/StillImage" />
        <dc:title></dc:title>
      </cc:Work>
    </rdf:RDF>
  </metadata>
  <g
     inkscape:label="1. réteg"
     inkscape:groupmode="layer"
     id="layer1"
     transform="translate(282.70602,-54.74992)">
    <rect
       style="opacity:1;fill:#35c9a6;fill-opacity:1;stroke:none;stroke-width:7.63572121;stroke-linejoin:miter;stroke-miterlimit:4;stroke-dasharray:none;stroke-opacity:1;paint-order:stroke markers fill"
       id="rect2388"
       width="119.78926"
       height="6.3956075"
       x="-282.70602"
       y="84.79232" />
    <rect
       style="opacity:1;fill:#35c9a6;fill-opacity:1;stroke:none;stroke-width:7.63572121;stroke-linejoin:miter;stroke-miterlimit:4;stroke-dasharray:none;stroke-opacity:1;paint-order:stroke markers fill"
       id="rect2388-1"
       width="119.78926"
       height="6.3956075"
       x="-282.70587"
       y="97.70256" />
    <rect
       style="opacity:1;fill:#35c9a6;fill-opacity:1;stroke:none;stroke-width:7.63572121;stroke-linejoin:miter;stroke-miterlimit:4;stroke-dasharray:none;stroke-opacity:1;paint-order:stroke markers fill"
       id="rect2388-6"
       width="119.78926"
       height="6.3956075"
       x="-282.70587"
       y="110.63569" />
    <path
       d="m -146.10054,112.4332 c 1.79007,-0.39108 2.55718,-1.86526 2.55718,-3.3243 0,-1.7449 -1.03792,-3.44465 -3.74547,-3.44465 h -4.84361 v 10.75517 h 2.3766 v -3.86584 h 1.15823 l 2.70762,3.86584 h 2.88807 l -3.00844,-3.98622 z m -1.82012,-4.93388 c 1.12812,0 2.06077,0.21061 2.06077,1.60947 0,1.36888 -0.93263,1.62453 -2.06077,1.62453 h -1.83518 v -3.23413 z"
       id="path876"
       inkscape:connector-curvature="0"
       style="fill:#ffffff;stroke-width:1.08244503" />
    <path
       d="m -130.58912,116.44583 h 4.633 c 3.27925,0 4.87371,-2.31654 4.87371,-5.43031 0,-3.54997 -2.09086,-5.30993 -4.87371,-5.30993 h -4.633 z m 2.36159,-8.7546 h 1.68472 c 2.3316,0 3.09871,1.3839 3.09871,3.54999 0,2.37662 -1.30866,3.21909 -2.67753,3.21909 h -2.1059 z"
       id="path878"
       inkscape:connector-curvature="0"
       style="fill:#ffffff;stroke-width:1.08244503" />
    <path
       d="m -119.82959,116.40469 h 2.36166 v -10.74013 h -2.36166 z"
       id="path880"
       inkscape:connector-curvature="0"
       style="fill:#ffffff;stroke-width:1.08244503" />
    <path
       d="m -105.0542,110.98921 c 0,-3.13715 -2.52905,-5.66227 -5.60319,-5.66227 -3.0893,0 -5.58802,2.52512 -5.58802,5.66227 0,3.12201 2.49872,5.64702 5.58802,5.64702 3.07414,0 5.60319,-2.52513 5.60319,-5.64702 z m -5.60319,-3.35146 c 1.80215,0 3.27103,1.53036 3.27103,3.35146 0,1.82111 -1.46897,3.33621 -3.27103,3.33621 -1.80217,0 -3.30135,-1.51497 -3.30135,-3.33621 0,-1.8211 1.49918,-3.35146 3.30135,-3.35146 z"
       id="path882"
       inkscape:connector-curvature="0"
       style="fill:#ffffff;stroke-width:1.08244503" />
    <g
       transform="matrix(1.7615712,0,0,1.7712048,-543.99652,-340.97163)"
       aria-label="A"
       id="g886"
       style="fill:#ffffff">
      <path
         d="m 228.84,258.3 0.64509,-1.359 h 3.105 l 0.60209,1.359 h 1.3074 l -2.7438,-6.1327 h -1.359 l -2.7868,6.1327 z m 2.2621,-4.9801 0.99775,2.3739 h -2.0385 l 1.0322,-2.3739 z"
         id="path884"
         inkscape:connector-curvature="0"
         style="fill:#ffffff;stroke-width:0.21503" />
    </g>
    <path
       d="m -137.15954,103.0116 -0.62589,1.81517 1.87773,-0.0123 0.99103,-1.81515 z"
       id="path888"
       inkscape:connector-curvature="0"
       style="fill:#ffffff;stroke-width:1.08244503" />
    <path
       d="m -110.60716,102.9986 -0.6259,1.81517 1.87775,-0.0124 0.991,-1.81516 z"
       id="path890"
       inkscape:connector-curvature="0"
       style="fill:#ffffff;stroke-width:1.08244503" />
    <path
       inkscape:connector-curvature="0"
       id="path2415"
       style="font-style:normal;font-variant:normal;font-weight:normal;font-stretch:normal;font-size:medium;line-height:1.25;font-family:Couture;-inkscape-font-specification:Couture;letter-spacing:0px;word-spacing:0px;fill:#ffffff;fill-opacity:1;stroke:none;stroke-width:0.53021711"
       d="m -152.21768,100.79856 h 3.32977 v -5.429436 h 3.49944 c 3.79635,0 5.23854,-2.396577 5.23854,-4.856795 0,-2.460202 -1.44219,-4.856778 -5.23854,-4.856778 h -6.82921 z m 3.32977,-12.555559 h 2.58745 c 1.52702,0 2.9268,0.339348 2.9268,2.269328 0,1.929996 -1.39978,2.269345 -2.9268,2.269345 h -2.58745 z" />
    <path
       inkscape:connector-curvature="0"
       id="path2417"
       style="font-style:normal;font-variant:normal;font-weight:normal;font-stretch:normal;font-size:medium;line-height:1.25;font-family:Couture;-inkscape-font-specification:Couture;letter-spacing:0px;word-spacing:0px;fill:#ffffff;fill-opacity:1;stroke:none;stroke-width:0.53021711"
       d="m -128.76167,94.754069 v -2.948007 h -6.91403 v -3.414586 h 7.826 v -2.79955 h -11.04974 v 15.185424 h 11.77083 V 97.9778 h -8.54709 v -3.223731 z" />
    <path
       inkscape:connector-curvature="0"
       id="path2419"
       style="font-style:normal;font-variant:normal;font-weight:normal;font-stretch:normal;font-size:medium;line-height:1.25;font-family:Couture;-inkscape-font-specification:Couture;letter-spacing:0px;word-spacing:0px;fill:#ffffff;fill-opacity:1;stroke:none;stroke-width:0.53021711"
       d="m -122.42034,100.79856 h 3.32975 V 88.476309 h 3.95932 v -2.79955 h -11.2908 V 88.4551 h 4.00173 z"
       sodipodi:nodetypes="ccccccccc" />
    <path
       inkscape:connector-curvature="0"
       id="path2421"
       style="font-style:normal;font-variant:normal;font-weight:normal;font-stretch:normal;font-size:medium;line-height:1.25;font-family:Couture;-inkscape-font-specification:Couture;letter-spacing:0px;word-spacing:0px;fill:#ffffff;fill-opacity:1;stroke:none;stroke-width:0.53253126"
       d="m -99.319293,93.17646 c 0,-4.370543 -3.554227,-7.888312 -7.874637,-7.888312 -4.34168,0 -7.85334,3.517769 -7.85334,7.888312 0,4.349246 3.51166,7.867 7.85334,7.867 4.32041,0 7.874637,-3.517754 7.874637,-7.867 z m -7.874637,-4.66901 c 2.53265,0 4.59707,2.131986 4.59707,4.66901 0,2.537076 -2.06442,4.647713 -4.59707,4.647713 -2.53265,0 -4.63965,-2.110637 -4.63965,-4.647713 0,-2.537024 2.107,-4.66901 4.63965,-4.66901 z" />
    <path
       inkscape:connector-curvature="0"
       id="path2423"
       style="font-style:normal;font-variant:normal;font-weight:normal;font-stretch:normal;font-size:medium;line-height:1.25;font-family:Couture;-inkscape-font-specification:Couture;letter-spacing:0px;word-spacing:0px;fill:#ffffff;fill-opacity:1;stroke:none;stroke-width:0.53021711"
       d="m -94.77404,94.726703 h 6.914024 V 91.778696 H -94.77404 V 88.36411 h 7.826011 V 85.56456 H -97.99777 v 15.20663 h 3.22373 v -2.820756 z" />
    <path
       inkscape:connector-curvature="0"
       id="path2425"
       style="font-style:normal;font-variant:normal;font-weight:normal;font-stretch:normal;font-size:medium;line-height:1.25;font-family:Couture;-inkscape-font-specification:Couture;letter-spacing:0px;word-spacing:0px;fill:#ffffff;fill-opacity:1;stroke:none;stroke-width:0.53021711"
       d="m -86.035778,100.74383 h 3.329754 V 85.600819 h -3.329754 z" />
    <path
       d="m -109.474,81.831375 -0.88342,2.581204 2.65031,-0.01782 1.39872,-2.581205 z"
       id="path890-3"
       inkscape:connector-curvature="0"
       style="fill:#ffffff;stroke-width:1.53351438" />
    <path
       d="m -105.00522,81.849054 -0.8834,2.581204 2.65031,-0.01782 1.39872,-2.581204 z"
       id="path890-3-8"
       inkscape:connector-curvature="0"
       style="fill:#ffffff;stroke-width:1.53351438" />
    <ellipse
       cx="-223.03387"
       cy="100.87848"
       rx="42.759632"
       ry="42.877338"
       style="fill:none;stroke:#ffffff;stroke-width:6.50244093;stroke-opacity:0.98792001;paint-order:stroke markers fill"
       id="ellipse874" />
  </g>
</svg>
