<svg version="1.1" viewBox="0 0 878.09 171.95" xmlns="http://www.w3.org/2000/svg">
 <defs>
  <clipPath id="a">
   <path d="M 0,128.962 H 658.565 V 0 H 0 Z"/>
  </clipPath>
 </defs>
 <g transform="matrix(1.3333 0 0 -1.3333 0 171.95)">
  <g clip-path="url(#a)">
   <g transform="translate(38.636 37.766)">
    <path d="m0 0c-14.455 0-26.212 11.757-26.212 26.212 0 14.453 11.757 26.211 26.212 26.211 14.452 0 26.211-11.758 26.211-26.211 0-14.455-11.759-26.212-26.211-26.212m0 64.846c-21.305 0-38.636-17.329-38.636-38.634v-57.766c0-3.43 2.782-6.213 6.213-6.213 3.43 0 6.211 2.783 6.211 6.213v29.409c6.892-6.376 16.103-10.277 26.212-10.277 21.302 0 38.635 17.33 38.635 38.634 0 21.305-17.333 38.634-38.635 38.634" fill="#2078c3"/>
   </g>
   <g transform="translate(91.211 102.49)">
    <path d="m0 0c-3.392 0-6.143-2.748-6.143-6.14v-64.873c0-3.392 2.751-6.143 6.143-6.143 3.393 0 6.144 2.751 6.144 6.143v64.873c0 3.392-2.751 6.14-6.144 6.14" fill="#2078c3"/>
   </g>
   <g transform="translate(174.74 52.744)">
    <path d="m0 0c-2.916 1.731-6.68 0.774-8.415-2.145-4.466-7.522-12.336-12.312-21.053-12.821-14.445-0.843-26.88 10.222-27.723 24.665-0.843 14.447 10.221 26.884 24.666 27.727 9.759 0.57 18.962-4.284 24.016-12.66 1.751-2.907 5.531-3.836 8.435-2.089 2.905 1.754 3.837 5.531 2.084 8.435-7.415 12.296-20.926 19.413-35.251 18.577-21.208-1.235-37.452-19.498-36.217-40.702 1.239-21.208 19.499-37.457 40.707-36.219 12.795 0.748 24.347 7.779 30.899 18.816 1.733 2.916 0.773 6.685-2.148 8.416" fill="#2078c3"/>
   </g>
   <g transform="translate(285.67 37.749)">
    <path d="m0 0c-14.452 0-26.212 11.76-26.212 26.212 0 14.456 11.76 26.212 26.212 26.212 14.454 0 26.211-11.756 26.211-26.212 0-14.452-11.757-26.212-26.211-26.212m0 64.846c-10.106 0-19.319-3.901-26.212-10.277v29.41c0 3.43-2.781 6.21-6.211 6.21-3.431 0-6.211-2.78-6.211-6.21v-57.767c0-21.303 17.329-38.634 38.634-38.634 21.302 0 38.634 17.331 38.634 38.634 0 21.305-17.332 38.634-38.634 38.634" fill="#2382c4"/>
   </g>
   <g transform="translate(371.24 37.019)">
    <path d="m0 0c-14.803 0-26.845 12.042-26.845 26.845 0 14.805 12.042 26.848 26.845 26.848 14.805 0 26.848-12.043 26.848-26.848 0-14.803-12.043-26.845-26.848-26.845m0 65.979c-21.576 0-39.129-17.554-39.129-39.134 0-21.575 17.553-39.132 39.129-39.132 21.578 0 39.135 17.557 39.135 39.132 0 21.58-17.557 39.134-39.135 39.134" fill="#268ac7"/>
   </g>
   <g transform="translate(473.66 37.418)">
    <path d="m0 0-22.644 28.194c6.662 8.771 13.653 17.316 20.314 25.197 6.326 7.214-4.886 16.871-10.657 9.324l-19.316-24.196-19.312 23.972c-5.106 7.771-18.092-0.774-11.1-9.1 6.775-7.881 13.544-16.426 20.535-25.197l-22.309-28.304c-6.327-7.549 6.214-16.65 11.878-8.549l20.088 26.749 20.424-26.194c5.994-8.215 18.203-0.221 12.099 8.104" fill="#288fcb"/>
   </g>
   <g transform="translate(214.86 60.263)">
    <path d="m0 0c5.78 6.32 16.66 16.056 21.99 22.375 2.528 2.437 2.528 5.599 0 8.037-2.258 2.255-5.417 2.979-8.576 0l-30.747-31.045v63.475c0 7.945-11.919 7.674-11.919 0v-92.094c0-7.582 11.919-7.494 11.919 0v12.64l8.577 9.476 30.102-25.164c3.613-5.779 15.167-0.359 9.75 7.132z" fill="#2078c3"/>
   </g>
   <g transform="translate(629.4 85.34)">
    <path d="m0 0-22.781-48.318c0.01 0-0.065-0.122-0.144-0.246-0.214-0.315-0.328-0.489-0.467-0.655l-0.302-0.333c-0.259-0.263-0.443-0.442-0.641-0.598l-0.322-0.236c-0.274-0.186-0.492-0.325-0.731-0.454l-0.526-0.234c-0.198-0.087-0.417-0.171-0.65-0.24-0.189-0.053-0.368-0.092-0.556-0.132-0.263-0.048-0.452-0.078-0.655-0.098-0.363-0.04-0.82-0.045-1.246 0-0.194 0.02-0.392 0.05-0.591 0.088-0.239 0.05-0.422 0.092-0.611 0.146-0.233 0.067-0.466 0.159-0.7 0.256l-0.417 0.181c-0.288 0.162-0.507 0.301-0.729 0.455l-0.368 0.263c-0.233 0.194-0.417 0.375-0.59 0.553l-0.343 0.363c-0.169 0.208-0.303 0.405-0.437 0.615l-0.278 0.442-21.029 44.645h-11.602v-42.791c0-3.571-2.909-6.482-6.483-6.482-3.577 0-6.482 2.911-6.482 6.482v42.791h-13.5c-3.574 0-6.481 2.901-6.481 6.478s2.907 6.481 6.481 6.481h39.961c0.437 0 0.873-0.049 1.332-0.156 2.758 0.4 5.501-1.036 6.733-3.535l16.769-35.624 16.745 35.592c1.559 3.175 5.55 4.532 8.693 2.978 3.207-1.583 4.532-5.478 2.948-8.677m-100.74 35.356c-15.142 0-27.416-12.274-27.416-27.416v-86.684h129.91c15.146 0 27.418 12.277 27.418 27.417v86.683z" fill="#2c99d3"/>
   </g>
   <g transform="translate(626.45 94.017)">
    <path d="m0 0c-3.143 1.554-7.134 0.196-8.692-2.979l-16.745-35.591-16.77 35.624c-1.231 2.499-3.975 3.934-6.732 3.534-0.459 0.107-0.896 0.157-1.332 0.157h-39.961c-3.575 0-6.482-2.904-6.482-6.481s2.907-6.478 6.482-6.478h13.5v-42.791c0-3.572 2.904-6.482 6.481-6.482 3.574 0 6.483 2.91 6.483 6.482v42.791h11.602l21.029-44.645 0.279-0.442c0.133-0.211 0.267-0.407 0.436-0.616l0.343-0.362c0.174-0.179 0.357-0.36 0.591-0.554l0.367-0.263c0.223-0.154 0.441-0.293 0.729-0.454l0.417-0.181c0.234-0.097 0.467-0.189 0.701-0.256 0.188-0.054 0.372-0.096 0.61-0.146 0.199-0.038 0.397-0.068 0.591-0.088 0.427-0.045 0.884-0.04 1.246 0 0.203 0.02 0.392 0.05 0.655 0.098 0.189 0.04 0.367 0.079 0.556 0.131 0.233 0.07 0.452 0.154 0.65 0.241l0.527 0.233c0.238 0.129 0.457 0.268 0.73 0.455l0.322 0.235c0.199 0.157 0.382 0.335 0.641 0.599l0.303 0.333c0.138 0.166 0.253 0.339 0.466 0.655 0.08 0.124 0.154 0.245 0.144 0.245l22.781 48.319c1.584 3.199 0.259 7.094-2.948 8.677" fill="#fff"/>
   </g>
  </g>
 </g>
</svg>
