<svg version="1.1" viewBox="0 0 600 262.92" xmlns="http://www.w3.org/2000/svg">
 <defs>
  <clipPath id="a">
   <path d="m454.68 764.18h129.83v60.705h-129.83v-60.705z"/>
  </clipPath>
  <clipPath id="b">
   <path d="m454.68 764.18h129.83v60.705h-129.83v-60.705z"/>
  </clipPath>
 </defs>
 <g transform="translate(-217.86 -567.37)">
  <g transform="matrix(.87639 0 0 .87639 64.012 86.382)">
   <g transform="matrix(6.0979 0 0 -6.0979 -2647.8 5539.7)">
    <g clip-path="url(#b)">
     <g transform="translate(529.88 779.69)">
      <path d="m0 0c0-5.759-4.669-10.428-10.428-10.428-5.76 0-10.429 4.669-10.429 10.428s4.669 10.428 10.429 10.428c5.759 0 10.428-4.669 10.428-10.428" fill="#8f1543"/>
     </g>
     <g transform="translate(501.44 788.87)" fill="#fff">
      <path d="m0 0h-38.442v-3.7h36.995c0.362 1.291 0.849 2.528 1.447 3.7" fill="#fff"/>
     </g>
     <g transform="translate(537.47 788.87)" fill="#fff">
      <path d="m0 0c0.598-1.172 1.085-2.409 1.447-3.7h36.362v3.7h-37.809z" fill="#fff"/>
     </g>
     <g transform="translate(539.59 781.46)" fill="#fff">
      <path d="m0 0c0.051-0.584 0.082-1.174 0.082-1.771 0-0.651-0.034-1.294-0.094-1.928h35.7v3.699h-35.688z" fill="#fff"/>
     </g>
     <g transform="translate(499.24 779.69)" fill="#fff">
      <path d="m0 0c0 0.597 0.031 1.187 0.082 1.771h-36.321v-3.699h36.333c-0.06 0.634-0.094 1.277-0.094 1.928" fill="#fff"/>
     </g>
     <g transform="translate(500.04 774.06)" fill="#fff">
      <path d="m0 0h-37.04v-3.699h38.523c-0.61 1.171-1.109 2.408-1.483 3.699" fill="#fff"/>
     </g>
     <g transform="translate(538.87 774.06)" fill="#fff">
      <path d="m0 0c-0.374-1.291-0.873-2.528-1.483-3.699h37.89v3.699h-36.407z" fill="#fff"/>
     </g>
     <g transform="translate(468.75 810.58)" fill="#fff">
      <path d="m0 0h1.4c1.102 0 1.876 0.191 2.321 0.574 0.446 0.383 0.669 0.873 0.669 1.47 0 0.58-0.194 1.072-0.58 1.476-0.387 0.403-1.115 0.605-2.183 0.605h-1.627v-4.125zm-5.74 7.885h9.499c2.069 0 3.619-0.492 4.649-1.476s1.546-2.385 1.546-4.201c0-1.868-0.562-3.327-1.685-4.378-1.122-1.051-2.836-1.577-5.14-1.577h-3.129v-6.862h-5.74v18.494z" fill="#fff"/>
     </g>
     <g transform="translate(481.69 818.46)" fill="#fff">
      <path d="m0 0h5.715v-13.94h8.919v-4.554h-14.634v18.494z" fill="#fff"/>
     </g>
     <g transform="translate(509.11 807.02)" fill="#fff">
      <path d="m0 0-2.042 6.648-2.019-6.648h4.061zm1.185-3.999h-6.488l-0.901-3.053h-5.835l6.951 18.494h6.233l6.95-18.494h-5.984l-0.926 3.053z" fill="#fff"/>
     </g>
     <g transform="translate(519.06 818.46)" fill="#fff">
      <path d="m0 0h5.337l6.963-10.232v10.232h5.387v-18.494h-5.387l-6.926 10.154v-10.154h-5.374v18.494z" fill="#fff"/>
     </g>
     <g transform="translate(540.53 818.46)" fill="#fff">
      <path d="m0 0h15.315v-3.948h-9.587v-2.94h8.893v-3.772h-8.893v-3.646h9.865v-4.188h-15.593v18.494z" fill="#fff"/>
     </g>
     <g transform="translate(557.9 818.46)" fill="#fff">
      <path d="m0 0h17.371v-4.567h-5.828v-13.927h-5.715v13.927h-5.828v4.567z" fill="#fff"/>
     </g>
    </g>
   </g>
   <g transform="matrix(6.0979 0 0 -6.0979 471.26 760.83)">
    <path d="m0 0h2.461v-2.787h2.69v2.787h2.472v-7.965h-2.472v3.222h-2.69v-3.222h-2.461v7.965z" fill="#fff"/>
   </g>
   <g transform="matrix(6.0979 0 0 -6.0979 -2647.8 5539.7)">
    <g clip-path="url(#a)">
     <g transform="translate(523.25 781.89)">
      <path d="m0 0v-4.352h0.603c0.515 0 0.88 0.057 1.098 0.171 0.217 0.114 0.387 0.313 0.51 0.598 0.124 0.284 0.185 0.745 0.185 1.383 0 0.843-0.138 1.421-0.413 1.733-0.275 0.311-0.732 0.467-1.369 0.467h-0.614zm-2.461 1.804h3.656c0.721 0 1.303-0.098 1.747-0.293 0.444-0.196 0.811-0.477 1.1-0.843 0.29-0.365 0.5-0.791 0.631-1.277 0.13-0.485 0.195-0.999 0.195-1.543 0-0.851-0.096-1.511-0.29-1.98-0.195-0.469-0.463-0.862-0.807-1.179s-0.714-0.528-1.109-0.633c-0.539-0.145-1.028-0.217-1.467-0.217h-3.656v7.965z" fill="#fff"/>
     </g>
    </g>
   </g>
  </g>
 </g>
</svg>
