<?xml version="1.0" encoding="UTF-8"?>
<svg id="a" xmlns="http://www.w3.org/2000/svg" width="450" height="500" viewBox="0 0 450 500">
  <path d="M318.38,426.09c-.03-1.45,1.28-2.76,2.74-2.71,7.53,0,15.06,0,22.59,0,.52,0,1.04-.03,1.56.04,1,.15,1.87.92,2.16,1.89.19.65.12,1.33.13,2,0,22.92,0,45.85,0,68.78-.01.79.08,1.64-.29,2.38-.44.92-1.41,1.52-2.43,1.54h-23.91c-1.39-.09-2.59-1.33-2.56-2.73,0-23.73,0-47.46,0-71.18ZM4.92,425.03c.44-.92,1.42-1.56,2.45-1.55,12.6,0,25.2,0,37.81,0,.88-.04,1.76.35,2.29,1.05.43.53.55,1.21.74,1.85,3.76,12.84,7.53,25.68,11.29,38.52,3.88-12.85,7.76-25.7,11.63-38.55.21-.66.34-1.38.81-1.9.53-.63,1.35-1,2.18-.97,12.61,0,25.21,0,37.82,0,1.21,0,2.33.89,2.61,2.07.12.56.12,1.14.17,1.72,1.73,23.28,3.47,46.55,5.2,69.83.12,1.47-1.12,2.83-2.59,2.9h-23.01c-.9-.09-1.76-.6-2.19-1.4-.42-.71-.36-1.56-.43-2.35-1.09-16.44-2.15-32.88-3.25-49.31-4.98,17.02-9.98,34.03-14.96,51.05-.28,1.1-1.3,1.9-2.42,2.02h-25.47c-.76-.05-1.51-.38-2.01-.97-.51-.57-.63-1.35-.84-2.05-4.51-15.96-9.01-31.92-13.52-47.88-.93,16.13-1.84,32.25-2.78,48.38-.07,1.33-1.24,2.45-2.57,2.54H2.82c-1.1-.05-2.14-.79-2.5-1.84-.26-.73-.11-1.51-.08-2.26,1.45-22.96,2.9-45.91,4.34-68.87.05-.68.01-1.39.33-2.01ZM131.39,426.28c-.07-1.51,1.29-2.87,2.8-2.8,22.25,0,44.51,0,66.76,0,1.06,0,2.07.69,2.48,1.67.28.62.21,1.32.22,1.98,0,4.55,0,9.11,0,13.66.04,1.09-.63,2.16-1.64,2.59-.65.31-1.39.21-2.09.22-13.11,0-26.23,0-39.34,0,0,2.98,0,5.96,0,8.94,12.72,0,25.44,0,38.16,0,1.51-.07,2.88,1.26,2.83,2.77,0,4.03,0,8.07,0,12.1.04,1.44-1.22,2.76-2.67,2.75-12.77,0-25.55,0-38.32,0,0,3.23,0,6.47,0,9.71,13.58,0,27.15,0,40.73,0,1.43,0,2.7,1.29,2.67,2.71,0,4.9,0,9.8,0,14.7.03,1.46-1.28,2.73-2.73,2.72h-67.3c-1.39-.1-2.57-1.33-2.55-2.73,0-23.67,0-47.33,0-71ZM217.73,423.72c.69-.33,1.47-.23,2.21-.24,12.67,0,25.34,0,38.01,0,7.04-.09,14.15.42,20.98,2.21,6.01,1.58,11.82,4.19,16.7,8.07,4.13,3.27,7.39,7.58,9.46,12.41,2.74,6.32,3.52,13.39,2.69,20.2-.78,6.09-3.22,11.95-6.98,16.81-2.06,2.65-4.54,4.95-7.26,6.91-4.65,3.32-9.91,5.77-15.42,7.3-6.75,1.89-13.78,2.54-20.77,2.61h-38.69c-.95-.1-1.85-.68-2.26-1.55-.38-.74-.26-1.58-.27-2.38,0-23.27,0-46.54,0-69.81-.04-1.08.63-2.13,1.62-2.55M245.28,443.6v36.27c2.57,0,5.14,0,7.71,0,2.6-.02,5.21.1,7.79-.31,4.31-.6,8.54-2.46,11.51-5.69,2.42-2.6,3.79-6.03,4.23-9.52.5-4.07.14-8.34-1.67-12.07-1.19-2.53-3.19-4.63-5.61-6.02-3.4-2-7.42-2.63-11.31-2.65-4.22-.02-8.43,0-12.65,0ZM380.43,425.31c.36-1.1,1.49-1.87,2.64-1.83,12.84,0,25.68,0,38.51,0,1.17,0,2.26.83,2.59,1.94,8.16,23.65,16.33,47.29,24.49,70.94.63,1.66-.72,3.6-2.49,3.63h-24.06c-1.08-.1-2.08-.84-2.41-1.88-1.28-4.04-2.56-8.08-3.83-12.11-9.39,0-18.78,0-28.17,0-1.18,3.73-2.36,7.46-3.54,11.19-.2.61-.34,1.27-.76,1.78-.5.63-1.29.99-2.09,1.03h-23.13c-1.2-.11-2.27-1.04-2.48-2.23-.2-.84.18-1.64.44-2.41,8.1-23.35,16.19-46.7,24.29-70.05M392.69,470.24c6.07,0,12.13,0,18.2,0-3.03-9.59-6.06-19.17-9.1-28.75-3.03,9.58-6.06,19.17-9.1,28.75Z" fill="#ff283f"/>
  <path d="M5.93,10.49v161.57c0,5.78,4.7,10.49,10.5,10.49h71.36c5.79,0,10.49-4.68,10.49-10.49v-29.69h45.93c20.57,0,38.07-3,52.52-8.99,14.42-6.01,25.39-14.28,32.81-24.89,7.45-10.59,11.13-22.92,11.13-37.02s-3.17-26.72-9.48-37.41l.04-.04c-6.33-10.68-15.7-19.02-28.12-25.02-12.45-6.02-27.84-9.01-46.19-9.01H16.42C10.61.02,5.92,4.71,5.93,10.49M98.26,95.63v-37.28h21.33c7.62,0,13.32,1.62,17.23,4.85,3.86,3.26,5.8,7.7,5.8,13.4,0,6.02-2.26,10.69-6.77,14.01v.04c-4.51,3.32-11.13,4.99-19.88,4.99h-17.71M434.97,58.28l-89.64.04V10.49c0-5.78-4.69-10.49-10.49-10.49h-71.36c-5.79,0-10.5,4.68-10.5,10.49v161.57c0,5.78,4.7,10.49,10.5,10.49h171.5c5.79,0,10.5-4.69,10.5-10.49v-103.3c0-5.78-4.7-10.49-10.5-10.49M361.21,208.1l-22.47,47.57-22.69-47.64c-1.74-3.64-5.42-5.97-9.46-5.98h-69c-7.78,0-12.85,8.17-9.4,15.13l57.64,116.21v40.67c0,5.78,4.68,10.49,10.49,10.49h84.82c5.79,0,10.5-4.68,10.5-10.49v-40.67l57.27-116.28c3.42-6.97-1.65-15.11-9.43-15.11l-68.78.06c-4.05,0-7.74,2.33-9.48,6.01l-.02.02v.02ZM52.95,209.28L.52,370.85c-1.79,5.5,1.23,11.41,6.75,13.2,1.05.34,2.13.51,3.23.51h76.23c4.92,0,9.15-3.41,10.23-8.18l3.74-16.59h56.31l3.65,16.57c1.05,4.8,5.33,8.21,10.24,8.21h76.38c5.8,0,10.5-4.7,10.49-10.49,0-1.09-.17-2.18-.51-3.22l-52.43-161.57c-1.41-4.31-5.43-7.23-9.98-7.24H62.93c-4.54,0-8.57,2.93-9.98,7.25v-.03h0ZM128.86,255.86l20.53,57.01h-40.9l20.39-57.02h-.02Z" fill="#ff283f"/>
</svg>