<svg width="600.42" height="246.87" viewBox="1.655 344.89 600.42 246.87" xmlns="http://www.w3.org/2000/svg">
    <g fill="#fdc500">
        <path d="M244.011 388.773c-2.465-20.505-18.073-36.498-38.612-38.957 0 0-32.861-4.921-80.1-4.921s-80.1 4.92-80.1 4.92c-20.539 2.46-36.148 18.453-38.612 38.958 0 0-4.929 36.498-4.929 79.557s4.929 79.556 4.929 79.556c2.464 20.503 18.073 36.496 38.612 38.957 0 0 32.861 4.92 80.1 4.92s80.1-4.92 80.1-4.92c20.539-2.46 36.147-18.454 38.612-38.957 0 0 4.93-36.498 4.93-79.556-.411-43.059-4.93-79.557-4.93-79.557m-33.273 137.38c-1.642 14.763-13.144 26.245-27.93 28.295 0 0-23.414 3.691-58.331 3.691-34.915 0-58.33-3.691-58.33-3.691-14.787-1.64-25.877-13.533-27.931-28.295 0 0-3.697-26.246-3.697-57.821 0-31.577 3.697-57.822 3.697-57.822 1.643-14.764 13.144-26.246 27.932-28.297 0 0 23.413-3.69 58.329-3.69s58.33 3.69 58.33 3.69c14.787 1.64 25.878 13.533 27.931 28.297 0 0 3.698 26.245 3.698 57.822 0 31.575-3.698 57.82-3.698 57.82"/>
        <path d="M175.41 444.952V431.83c0-1.23-1.233-1.23-1.233-1.23-6.572-1.64-12.323-2.46-18.484-2.872-5.75 0-11.502.411-17.252 1.64 0 0-1.232.41-1.232 1.641v12.712c0 2.46 1.643 1.64 1.643 1.64 5.34-.82 11.09-1.23 16.841-1.23s12.733.82 18.074 1.64c-.001.411 1.643.82 1.643-.819M112.56 437.158c0-15.994-19.307-15.994-19.307-15.994s-19.306 0-19.306 15.994 19.306 15.993 19.306 15.993 19.307.41 19.307-15.993M125.295 517.951c-24.647 0-45.595-14.353-52.168-19.684 0 0-2.054-2.05-2.054-3.691v-6.561c0-3.282 2.465-1.23 2.465-1.23 6.983 4.1 26.289 14.763 51.757 14.763s45.184-11.073 51.757-14.764c0 0 2.464-1.64 2.464 1.23v6.562c0 2.05-2.053 3.691-2.053 3.691-6.983 4.51-27.521 19.684-52.168 19.684"/>
    </g>
    <path d="M284.47 546.42c2.464 19.781 17.658 35.439 37.37 37.912 0 0 30.8 4.533 77.204 4.533 46.406 0 77.204-4.533 77.204-4.533 19.712-2.472 34.907-17.72 37.37-37.912 0 0 4.518-35.44 4.518-77.06s-4.518-77.06-4.518-77.06c-2.463-19.781-17.658-35.44-37.37-37.913 0 0-30.799-4.532-77.204-4.532s-77.204 4.532-77.204 4.532c-19.712 2.472-34.906 18.132-37.37 37.913 0 0-4.518 35.44-4.518 77.06s4.518 77.06 4.518 77.06z" fill="#49b869" stroke-width=".995"/>
    <path d="M396.017 395.68c-10.543 0-15.004 4.525-15.004 20.975v5.758c0 16.038 4.461 20.973 15.004 20.973 10.544 0 15.005-4.524 15.005-20.973v-5.758c0-16.45-4.867-20.974-15.005-20.974zm7.3 27.143c0 10.282-1.62 13.16-7.299 13.16-5.677 0-7.298-2.88-7.298-13.16v-6.58c0-10.28 1.621-13.159 7.298-13.159 5.678 0 7.3 2.88 7.3 13.16zm-79.48-14.393c-6.488-1.235-8.516-3.702-8.516-10.282 0-5.757 2.028-8.636 6.894-8.636s6.892 2.879 6.892 9.047h8.516c0-11.515-4.055-16.45-15.408-16.45-10.544 0-15.004 6.58-15.004 16.04 0 10.691 4.055 14.805 13.382 16.449 8.11 1.645 9.732 4.524 9.732 10.282 0 6.99-2.028 9.87-8.11 9.87-4.866 0-7.705-2.468-7.705-9.87h-8.516c0 13.16 5.272 17.272 15.815 17.272s15.814-4.524 15.814-17.272c.812-9.047-2.432-13.983-13.786-16.45zm38.118-12.75c-2.839 0-6.894 1.235-10.544 4.525l-1.216-3.702h-6.488v60.865h8.111v-18.094c3.244 2.466 6.488 3.702 9.327 3.702 7.704 0 12.57-3.702 12.57-19.74v-8.638c.81-15.627-4.056-18.917-11.76-18.917zm4.866 27.966c0 9.048-1.216 11.516-6.488 11.516-2.433 0-5.677-2.057-8.11-4.525v-23.44c2.026-2.468 5.271-4.525 8.11-4.525 4.461 0 6.488 2.467 6.488 11.104zm58.394-23.441L424 396.503h-6.083v45.237h8.516v-33.722c2.027-2.467 4.867-3.702 8.922-3.702v-8.636c-4.056 0-7.3 2.056-10.139 4.525zm52.717 16.039c-4.461-.823-6.488-2.056-6.488-6.58 0-3.702 1.622-6.58 6.488-6.58s6.488 3.29 6.488 7.402h8.11c0-10.692-3.65-14.394-13.381-14.394-8.921 0-13.382 4.113-13.382 13.572 0 8.226 2.839 11.926 12.57 13.16 5.677.822 7.705 2.467 7.705 6.991 0 3.702-1.217 6.58-6.488 6.58-4.461 0-6.488-1.645-6.488-6.992h-8.517c0 9.048 2.84 13.983 14.194 13.983 13.382 0 14.193-6.58 14.193-13.571-1.623-8.637-4.866-12.338-15.004-13.571zm-27.575 14.804v-26.732h7.299v-7.401h-7.299v-12.338l-8.11 1.645v10.693l-4.056 1.233v6.58h4.055v27.553c0 9.049 3.65 11.516 9.327 11.516 2.433 0 4.461-.822 6.488-1.234v-7.401c-1.216.41-3.244 1.233-4.46 1.233-1.622-.823-3.244-2.056-3.244-5.347zM381.053 567.781l26.88-89.455h-37.217V461.09h56.65v15.183l-26.05 91.507z" fill="#fff"/>
    <path d="M557.83 439.18h-10.752v-26.051h-11.991v26.051h-10.752v-61.2h10.752v25.225h11.991V377.98h10.752zM567.34 439.18v-61.2h16.54c11.992 0 18.195 3.722 18.195 21.503v17.781c0 17.781-6.203 21.916-18.195 21.916zm11.165-51.275v41.352h5.375c6.203 0 7.443-2.895 7.443-11.579v-18.194c0-8.684-1.24-11.165-7.443-11.165 0-.414-5.375-.414-5.375-.414z" fill="#404041"/>
</svg>
