<svg width="215.84mm" height="164.39mm" version="1.1" viewBox="0 0 215.84 164.39" xmlns="http://www.w3.org/2000/svg" xmlns:xlink="http://www.w3.org/1999/xlink">
 <defs>
  <linearGradient id="a">
   <stop stop-color="#0480be" offset="0"/>
   <stop stop-color="#015fbf" offset="1"/>
  </linearGradient>
  <linearGradient id="d" x1="13.822" x2="94.952" y1="100.09" y2="39.48" gradientUnits="userSpaceOnUse" xlink:href="#a"/>
  <linearGradient id="c" x1="13.822" x2="94.952" y1="100.09" y2="39.48" gradientTransform="matrix(.2281 0 0 .2281 -33.659 -23.97)" gradientUnits="userSpaceOnUse" xlink:href="#a"/>
  <linearGradient id="b" x1="13.822" x2="94.952" y1="100.09" y2="39.48" gradientTransform="matrix(.2281 0 0 .2281 -57.73 65.749)" gradientUnits="userSpaceOnUse" xlink:href="#a"/>
 </defs>
 <g transform="translate(1.3946 -66.21)"></g>
 <g transform="translate(73.501 56.63)">
  <path d="m14.207-56.149 117.39 74.113c3.3414 2.1096 7.133 3.1813 7.133 7.133v0.61842c0 3.9517-3.7957 5.0168-7.133 7.133l-117.39 74.434c-3.3373 2.1161-7.133-3.1813-7.133-7.133v-149.17c0-3.9517 3.7915-9.2426 7.133-7.133z" fill="url(#d)"/>
  <path d="m-72.939 7.0726v43.081h13.095v-13.132c1.2414 0.05921 2.4232 0.08881 3.5445 0.08881 3.9645 0 7.3486-0.3351 10.152-1.0053 2.8233-0.68986 5.0759-1.7247 6.7578-3.1044 1.6819-1.3994 2.9033-3.0551 3.6641-4.9671 0.78091-1.9316 1.1713-4.2181 1.1713-6.8592 0-2.0302-0.26031-3.7746-0.78091-5.2332-0.52059-1.4783-1.3916-2.789-2.613-3.9322-1.2214-1.1629-2.8733-2.0893-4.9556-2.7792-2.0624-0.70957-4.6155-1.2418-7.6587-1.5966-3.0235-0.3745-6.6378-0.56171-10.843-0.56168l-11.533 3.19e-5zm13.095 20.122v-10.471l6.3077-0.05793c3.3197 0.09327 5.7608-0.02228 6.8286 3.0619 0.14018 0.59131 0.21026 1.291 0.21026 2.0992 0 0.80812-0.10012 1.5374-0.30035 2.1879-0.91556 3.1572-4.0133 3.2599-6.8286 3.2386l-6.2178-0.0573z" stroke="#fff" stroke-width="1.123"/>
  <path d="m-27.189 7.4228v42.728l31.859 1.59e-4v-10.142h-19.083v-32.586z" stroke="#fff" stroke-width="1.123"/>
  <path d="m23.461 7.4228-14.905 42.728h12.037l2.2554-6.0541h14.73l2.4897 6.0541h12.038l-14.958-42.728zm1.3411 29.335 5.6173-17.559 5.41 17.559z" stroke="#fff" stroke-width="1.1229"/>
  <path d="m78.854 33.652 15.768-26.246h-13.904l-8.286 15.729-8.2498-15.729h-13.716l15.32 26.246v16.802h13.068z" stroke="#fff" stroke-width="1.123"/>
  <g transform="scale(1.1173 .89499)" fill="#037fc9" stroke-width=".63742" aria-label="Drama">
   <path d="m71.94 100.21h1.0107q1.1823 0 2.0404-0.52354 0.87717-0.54733 1.4302-1.4278 0.57207-0.90429 0.83904-2.0703 0.26697-1.1898 0.26697-2.4511 0-1.3326-0.26697-2.4273t-0.83904-1.8562q-0.553-0.7853-1.4111-1.2136-0.8581-0.42835-2.0594-0.42835h-1.0107zm-2.4599 2.7842v-17.967h3.8329q1.7353 0 3.0129 0.73771 1.2967 0.71391 2.1167 1.9276 0.83904 1.2136 1.2395 2.7842 0.41952 1.5706 0.41952 3.2602 0 1.642-0.36231 3.3078-0.34324 1.642-1.1441 2.9746-0.8009 1.3088-2.0976 2.1417-1.2967 0.8329-3.1845 0.8329z"/>
   <path d="m85.012 90.957q0.64252 0 1.1898 0.0238 0.57113 0 0.97568 0.0238 0.47594 0.0238 0.90429 0.0238 0 0.16658 0.0238 0.38075 0.0238 0.19038 0.0238 0.42835 0.0238 0.23797 0.0238 0.52353 0 0.59492-0.07139 1.2374h-3.1888v9.3522q-0.21417 0.0238-0.45214 0.0476-0.21417 0.0238-0.47594 0.0238t-0.59493 0q-0.69011 0-1.404-0.0714v-11.827q0.38075-0.0238 0.8329-0.07139 0.40455-0.04759 0.95188-0.07139 0.57113-0.0238 1.2612-0.0238z"/>
   <path d="m92.627 103.05q-2.1417 0-3.046-0.92808-0.90429-0.95188-0.90429-2.7129 0-1.7372 0.92808-2.6891 0.95188-0.95188 3.2364-0.95188h2.1893v-0.61872q0-0.49974-0.16658-0.8091-0.14278-0.33316-0.42835-0.49974-0.26177-0.19038-0.64252-0.26177-0.38075-0.07139-0.8091-0.07139-0.59492 0-1.1661 0.07139-0.54733 0.07139-0.99947 0.16658-0.52353 0.09519-0.97568 0.23797-0.09519-0.38075-0.16658-0.8091-0.04759-0.35696-0.07139-0.8091-0.0238-0.47594 0.0238-0.95188 0.35696-0.14278 0.85669-0.23797 0.42835-0.09519 1.0471-0.16658 0.61872-0.07139 1.4516-0.07139 2.4749 0 3.7123 0.90429 1.2612 0.88049 1.2612 3.165v7.9482q-0.8091 0.0238-1.6896 0.0476-0.7615 0.0238-1.7134 0.0238-0.92808 0.0238-1.9276 0.0238zm0.23797-2.2607q0.35696 0 0.71391 0 0.38075 0 0.71391-0.0238 0.38075-0.0238 0.73771-0.0476v-2.7604l-1.9514-0.0238q-0.52353 0-0.8329 0.11898t-0.47594 0.33316q-0.14278 0.21417-0.19038 0.47594-0.04759 0.26177-0.04759 0.54733 0 0.57113 0.23797 0.97568 0.26177 0.40455 1.0947 0.40455z"/>
   <path d="m109.74 102.95q-0.19037 0.0238-0.42834 0.0476-0.19038 0.0238-0.47594 0.0238-0.26177 0-0.59493 0-0.66631 0-1.404-0.0714v-9.3046l-3.2364 0.0238v9.2808q-0.19038 0.0238-0.42835 0.0476-0.19037 0.0238-0.47594 0.0238-0.26177 0-0.59492 0-0.66632 0-1.404-0.0714v-11.827q0.71391-0.0238 1.642-0.07139 0.7853-0.0238 1.88-0.04759 1.0947-0.0238 2.4511-0.0238h4.688q1.4992 0 2.4273 0.26177 0.92809 0.23797 1.4278 0.8329 0.52354 0.57113 0.69012 1.5468 0.16658 0.95188 0.16658 2.3797v6.9487q-0.19038 0.0238-0.42835 0.0476-0.19038 0.0238-0.45214 0.0238-0.26177 0-0.59493 0-0.69011 0-1.4278-0.0714v-7.1629q0-0.64252-0.0714-1.0471-0.0714-0.42835-0.28556-0.66632-0.19038-0.26177-0.54733-0.35696-0.35696-0.09519-0.90429-0.09519h-1.6182z"/>
   <path d="m122.06 103.05q-2.1417 0-3.046-0.92808-0.90429-0.95188-0.90429-2.7129 0-1.7372 0.92809-2.6891 0.95188-0.95188 3.2364-0.95188h2.1893v-0.61872q0-0.49974-0.16658-0.8091-0.14278-0.33316-0.42834-0.49974-0.26177-0.19038-0.64252-0.26177-0.38075-0.07139-0.8091-0.07139-0.59492 0-1.166 0.07139-0.54733 0.07139-0.99948 0.16658-0.52353 0.09519-0.97567 0.23797-0.0952-0.38075-0.16658-0.8091-0.0476-0.35696-0.0714-0.8091-0.0238-0.47594 0.0238-0.95188 0.35696-0.14278 0.8567-0.23797 0.42834-0.09519 1.0471-0.16658 0.61873-0.07139 1.4516-0.07139 2.4749 0 3.7123 0.90429 1.2612 0.88049 1.2612 3.165v7.9482q-0.80909 0.0238-1.6896 0.0476-0.76151 0.0238-1.7134 0.0238-0.92808 0.0238-1.9276 0.0238zm0.23797-2.2607q0.35695 0 0.71391 0 0.38075 0 0.71391-0.0238 0.38075-0.0238 0.7377-0.0476v-2.7604l-1.9514-0.0238q-0.52353 0-0.8329 0.11898-0.30936 0.11898-0.47594 0.33316-0.14278 0.21417-0.19037 0.47594-0.0476 0.26177-0.0476 0.54733 0 0.57113 0.23797 0.97568 0.26177 0.40455 1.0947 0.40455z"/>
  </g>
  <path d="m-30.419-36.778 26.776 16.905c0.76218 0.4812 1.627 0.72565 1.627 1.627v0.14106c0 0.90137-0.86578 1.1443-1.627 1.627l-26.776 16.978c-0.76124 0.48269-1.627-0.72565-1.627-1.627v-34.024c0-0.90137 0.86484-2.1082 1.627-1.627z" fill="url(#c)"/>
  <path d="m-54.49 52.941 26.776 16.905c0.76218 0.4812 1.627 0.72565 1.627 1.627v0.14106c0 0.90137-0.86578 1.1443-1.627 1.627l-26.776 16.978c-0.76124 0.48269-1.627-0.72565-1.627-1.627v-34.024c0-0.90137 0.86484-2.1082 1.627-1.627z" fill="url(#b)"/>
 </g>
</svg>
