<svg xmlns="http://www.w3.org/2000/svg" height="134.71" viewBox="0 0 142.239 134.707" width="142.24">
    <g fill="#fff" transform="translate(197.09 -2.44)">
        <rect ry="22.309" height="44.619" width="99.534" y="61.78" x="-180.76"/>
        <rect ry="18.591" height="37.182" width="98.962" y="87.521" x="-177.9"/>
        <rect ry="18.591" height="42.903" width="66.356" y="85.233" x="-140.15"/>
    </g>
    <path d="M45.36 134.34c-.687-.257-4.52-1.14-8.516-1.962-9.026-1.858-14.4-6.333-20.1-16.742C8.409 100.418 2.58 77.272.336 50.472-1.434 29.343 3.96 4.857 11.245.958 12.697.181 17.41-.193 22.087.098c19.2 1.194 52.935 23.517 83.954 55.552 12.144 12.542 23.694 25.743 23.694 27.08 0 .408 1.673 3.22 3.717 6.25 4.857 7.196 8.783 16.46 8.783 20.724 0 8.548-16.701 17.436-41.653 22.167-9.165 1.738-52.04 3.653-55.222 2.467zm69.41-17.058c.668-1.249 1.215-10.35 1.215-20.228 0-18.544-.604-20.957-5.25-20.957-1.954 0-2.25 1.16-2.25 8.826v8.825l-4.687-.388-4.688-.388-.387-6.837c-.424-7.48-1.798-10.038-5.39-10.038-2.082 0-2.348 1.031-2.348 9.097 0 11.942 1.566 14.2 10.634 15.333l6.867.858v9.023c0 4.962.336 9.358.747 9.77 1.178 1.177 4.205-.406 5.537-2.896zm-80.295-7.848l.365-9.587h4.385c6.937 0 11.51-3.02 12.49-8.249 1.188-6.33-1.23-13.509-5.152-15.295-5.209-2.373-13.953-1.83-16.828 1.045-2.277 2.277-2.5 4.166-2.5 21.188 0 16.48.258 18.838 2.187 19.96 3.845 2.235 4.68.738 5.053-9.06zm.26-22.087v-5.15l4.687.387c4.45.369 4.688.61 4.688 4.763s-.238 4.395-4.688 4.763l-4.687.388v-5.15zm25 31.324c0-.647-.563-1.524-1.25-1.949-1.661-1.026-1.61-5.624.064-5.624.722 0 2.136 1.968 3.142 4.374s2.411 4.376 3.125 4.376c1.266 0 4.919-7.396 4.919-9.96 0-2.319-2.311-1.354-3.16 1.318l-.828 2.609-1.841-2.63c-1.013-1.446-2.32-2.334-2.906-1.972-.585.362-1.948-.227-3.03-1.309s-2.533-1.616-3.226-1.188c-1.64 1.015-1.62 7.623.035 10.713 1.32 2.465 4.956 3.376 4.956 1.242zm23.192-.182c.605-.979 1.22-.979 2.199 0 1.992 1.992 3.353 1.66 3.398-.829.038-2.083.12-2.083 1.7 0 1.787 2.353 4.51 2.95 4.51.987 0-.66-.79-1.926-1.757-2.813-1.506-1.38-1.461-1.952.312-3.986 1.981-2.272 1.923-2.339-1.367-1.539-3.061.745-3.437.492-3.437-2.313 0-3.744-2.455-4.215-3.388-.648-.36 1.375-1.395 2.5-2.3 2.5s-1.824 1.423-2.042 3.163c-.546 4.367-2.761 4.343-3.52-.038-.344-1.985-1.188-3.36-1.875-3.055-1.182.525-1.18 4.948.005 8.367.665 1.92 6.406 2.074 7.562.204zm-20.97-37.397c.308-15.926.091-18.29-1.8-19.672-5.03-3.678-5.423-2.454-5.423 16.928 0 18.905.731 22.022 4.974 21.208 1.578-.303 1.96-3.446 2.25-18.464zm26.527 8.756c0-11.973-1.98-15-9.815-15-10.515 0-17.57 9.324-13.517 17.865 2.579 5.435 5.904 6.945 15.519 7.05l7.812.084v-10zm-14.771 2.43c-4.27-1.713-3.347-7.575 1.455-9.254 2.956-1.034 3.857-.838 5.313 1.153 1.965 2.688 2.372 8.17.606 8.17-.632 0-1.897.247-2.813.547s-2.968.024-4.561-.615z" fill="#0082c8"/>
</svg>
