<svg width="600.41" height="246.87" viewBox="1.4 345.39 600.41 246.87" xmlns="http://www.w3.org/2000/svg">
    <g fill="#fcc016">
        <path d="M243.718 389.288c-2.481-20.295-18.195-36.45-38.456-38.935 0 0-32.254-4.97-80.222-4.97s-80.222 4.97-80.222 4.97c-20.263 2.485-35.977 18.64-38.457 38.935 0 0-4.963 36.451-4.963 79.943 0 43.493 4.963 79.114 4.963 79.114 2.48 20.296 18.194 36.45 38.457 38.936 0 0 32.254 4.97 80.222 4.97s80.222-4.97 80.222-4.97c20.26-2.486 35.975-18.64 38.456-38.936 0 0 4.962-36.45 4.962-79.942 0-43.078-4.962-79.115-4.962-79.115m-32.668 137.1c-1.654 14.913-13.232 26.51-28.119 28.167 0 0-23.57 3.728-57.891 3.728s-57.893-3.728-57.893-3.728c-14.886-1.657-26.052-13.254-28.119-28.166 0 0-3.72-26.51-3.72-57.575 0-31.066 4.134-57.99 4.134-57.99 1.654-14.911 13.232-26.51 28.12-28.166 0 0 23.569-3.728 57.89-3.728s57.893 3.728 57.893 3.728c14.887 1.657 26.052 13.255 28.119 28.166 0 0 3.721 26.51 3.721 57.576-.827 31.48-4.135 57.989-4.135 57.989"/>
        <path d="M175.494 444.38v-12.84c0-1.244-1.654-1.657-1.654-1.657-6.203-1.658-12.406-2.486-18.609-2.9-5.789 0-11.578.414-17.368 1.657 0 0-1.654.415-1.654 1.657v13.255c0 2.485 1.654 1.657 1.654 1.657 5.376-.828 10.752-1.243 16.954-.828 6.203 0 12.406.828 18.195 1.657.828-.002 2.482.412 2.482-1.658M113.048 436.93c0-16.153-19.435-16.153-19.435-16.153s-19.436 0-19.436 16.154 19.436 16.154 19.436 16.154 19.435-.414 19.435-16.154M125.459 517.691c-24.811 0-45.486-14.497-52.103-19.468 0 0-2.067-2.071-2.067-4.143v-6.626c0-3.314 2.481-1.658 2.481-1.658 6.617 4.142 26.466 14.912 51.69 14.912 25.224 0 45.072-10.77 51.69-14.912 0 0 2.48-1.657 2.48 1.658v6.626c0 2.071-2.067 4.143-2.067 4.143-6.618 4.971-27.293 19.468-52.104 19.468"/>
    </g>
    <path d="M557.57 439.67h-10.752v-26.051h-11.993v26.052h-10.751v-61.199h10.751v25.224h11.993v-25.224h10.752zM567.08 439.67v-61.199h16.541c11.992 0 18.194 3.722 18.194 21.503v17.78c0 17.782-6.202 21.917-18.194 21.917zm11.166-51.274v41.349h5.375c6.203 0 7.443-2.894 7.443-11.578v-18.194c0-8.684-1.24-11.165-7.443-11.165.001-.412-5.375-.412-5.375-.412z" fill="#bfbfbe" stroke-width=".981"/>
    <path d="M284.66 546.77c2.48 19.848 17.367 35.148 37.216 37.629 0 0 31.013 4.963 76.913 4.963s76.913-4.963 76.913-4.963c19.848-2.48 34.735-17.78 37.216-37.629 0 0 4.963-35.149 4.963-76.914s-4.963-76.5-4.963-76.913c-2.48-19.848-17.367-35.148-37.216-37.63 0 0-31.013-4.962-76.913-4.962s-76.913 4.962-76.913 4.962c-19.848 2.481-34.735 17.781-37.216 37.63 0 0-4.963 35.148-4.963 76.913.415 41.765 4.963 76.914 4.963 76.914z" fill="#49b869" stroke-width=".981"/>
    <path d="M396.299 396.254c-10.338 0-15.3 4.55-15.3 20.675v5.79c0 16.126 4.962 20.674 15.3 20.674s15.3-4.548 15.3-20.675v-5.789c0-16.126-4.963-20.675-15.3-20.675zm7.443 26.88c0 10.337-1.654 12.817-7.03 12.817s-7.029-2.894-7.029-12.818v-6.616c0-10.338 2.067-12.819 7.03-12.819 5.375 0 7.029 2.895 7.029 12.819zm-80.22-14.06c-6.617-1.241-8.685-4.136-8.685-9.925 0-5.788 2.067-8.683 7.03-8.683s7.03 2.894 7.03 9.096h8.27c0-11.578-4.135-16.954-15.3-16.954-10.337 0-15.3 6.203-15.3 16.127 0 10.338 4.55 14.473 13.646 16.54 7.857 1.654 9.51 4.55 9.51 10.338 0 7.029-2.067 9.924-7.856 9.924-4.963 0-7.858-2.481-7.858-9.924h-8.27c0 13.231 5.375 17.367 16.127 17.367 10.75 0 16.127-4.963 16.127-17.367 0-9.924-3.308-14.06-14.471-16.54zm38.87-12.82c-2.894 0-6.617 1.241-10.338 4.962l-1.24-3.721h-5.79v60.372h8.271v-18.194c2.894 2.48 6.616 3.721 9.51 3.721 7.443 0 12.405-3.308 12.405-19.435v-8.271c-.414-15.712-5.375-19.434-12.818-19.434zm4.134 27.706c0 9.097-1.655 11.579-6.202 11.579-2.481 0-5.79-2.067-7.858-4.55v-23.57c2.067-2.48 5.376-4.548 7.858-4.548 4.548 0 6.202 2.48 6.202 11.165zm59.546-23.157l-1.241-3.722h-5.79v45.072h8.271V408.66c2.067-2.48 4.963-4.136 9.098-4.136v-8.27c-4.55.001-7.858 2.07-10.338 4.55zm52.929 15.714c-4.55-.414-6.617-2.067-6.617-6.616 0-4.136 1.656-6.203 5.79-6.203 4.962 0 6.202 3.309 6.202 7.03h7.856c0-10.338-3.72-14.473-14.058-14.473-9.098 0-14.06 4.135-14.06 13.232 0 7.857 2.894 11.992 12.819 13.232 5.788.827 7.856 2.481 7.856 6.617s-1.654 6.202-6.615 6.202c-4.55 0-6.617-2.067-6.617-7.03h-7.856c0 9.097 2.894 14.06 14.473 14.06 13.645 0 14.473-6.617 14.473-13.646.413-7.444-2.895-10.338-13.646-12.405zm-27.292 14.887v-26.879h7.444v-7.029h-7.444V385.09l-8.27 2.068v10.337l-4.55 1.241v6.202h4.55v27.292c0 9.096 3.308 11.578 9.51 11.578 2.482 0 4.55-.414 6.203-1.24v-7.03c-1.241.413-3.308.827-4.55.827-1.653-.414-2.893-1.241-2.893-4.961zM410.591 536.637c0-13.387-6.744-14.198-11.38-14.198h-8.852v-16.632h8.009c6.322 0 10.537-2.028 10.537-14.198 0-8.113-2.107-13.387-10.537-13.387-8.009 0-11.381 4.462-11.381 14.603h-18.545c0-21.094 8.851-31.235 29.926-31.235 23.182 0 29.925 12.17 29.925 29.614 0 10.141-5.479 18.66-14.33 22.311 9.694 3.652 16.017 11.765 16.017 23.528 0 18.255-5.479 31.237-31.19 31.237-21.917 0-31.19-9.736-31.19-31.642h18.968c0 10.141 3.793 15.01 12.223 15.01 8.85-.001 11.8-5.275 11.8-15.01z" fill="#fff"/>
</svg>
