<svg xmlns="http://www.w3.org/2000/svg" version="1.0" height="706.93" width="600" viewBox="0 0 600 706.932">
    <defs>
        <clipPath id="a" clipPathUnits="userSpaceOnUse">
            <path d="M-8.182-6.867H7.343V9.691H-8.182V-6.867z"/>
        </clipPath>
    </defs>
    <path style="block-progression:tb;text-indent:0;text-align:start;text-transform:none" fill="#FFF" d="M-.007 0v611.82h573.95V0H-.007z" color="#000"/>
    <path d="M3.283 638.24v66.948h19.724v-20.844h9.956c17.31 0 25.012-9.111 25.012-23.519 0-13.79-8.355-22.586-25.666-22.586H3.283zm19.724 15.616h5.6c4.174 0 10.577.789 10.577 7.031 0 5.77-3.391 7.84-7.964 7.84h-8.213v-14.871zM63.593 705.18v-66.923h19.743v51.316h27.11v15.605H63.593zM133.883 638.24l-21.59 66.948h19.32l2.27-8.804h19.662l2.334 8.804h19.662l-21.56-66.949h-20.096zm9.893 20.158l6.347 23.986h-12.475l6.128-23.986zM211.103 705.18H191.36V680.79l-22.428-42.534h22.102l10.38 22.646 10.378-22.646h21.74l-22.429 42.171v24.751zM238.133 638.24v66.948h29.368c15.642 0 25.946-5.202 25.946-20.19 0-7.222-3.516-13.486-10.049-15.337 3.847-2.685 7.84-7.731 7.84-14.59 0-13.32-10.791-16.832-24.328-16.832h-28.777zm19.755 15.616h6.938c4.173 0 7.995.063 7.995 5.289 0 3.883-2.831 5.817-6.75 5.817h-8.183v-11.106zm0 23.333h6.285c6.242 0 10.826.374 10.826 6.253 0 5.008-3.662 6.129-8.525 6.129h-8.586v-12.382zM330.313 636.47c-18.726 0-31.546 13.638-31.546 34.687 0 22.791 12.674 35.777 31.546 35.777 17.82 0 31.608-12.804 31.608-35.559 0-17.747-10.087-34.905-31.608-34.905zm-.155 16.363c8.673-.29 12.07 9.396 12.07 18.542 0 11.033-3.386 19.195-11.914 19.195-9.436 0-11.76-10.666-11.76-19.195 0-8.528 2.64-18.542 11.604-18.542zM406.003 705.18H386.26V680.79l-22.428-42.534h22.102l10.38 22.646 10.343-22.646h21.775l-22.428 42.171v24.751zM458.703 638.24h55.236v17.564h-17.747v49.357H476.45v-49.357h-17.747V638.24zM516.603 638.24h19.888l10.561 44.53 10.96-44.53h19.924l-20.94 66.921h-19.815l-20.577-66.922zM582.203 685.93v13.843h2.458v-5.444h1.929c1.27 0 2.198.202 2.706.529.871.472 1.338 1.514 1.338 3.11v1.12l.031.436c0 .073-.01.12.031.156 0 .073 0 .093.031.093h2.302l-.094-.124c-.036-.11-.052-.353-.124-.716v-2.053c0-.653-.27-1.42-.778-2.147-.508-.725-1.275-1.187-2.364-1.368.835-.11 1.55-.363 2.022-.654.907-.58 1.338-1.535 1.338-2.768 0-1.742-.695-2.904-2.147-3.485-.798-.363-2.058-.529-3.764-.529h-4.916zm2.458 1.741h2.084c1.38 0 2.37.13 2.987.53.617.326.933.974.933 1.99 0 1.053-.518 1.784-1.462 2.147-.508.218-1.25.342-2.302.342h-2.24v-5.009z" fill="#FFF"/>
    <path d="M587.403 680.33c-3.447 0-6.43 1.233-8.897 3.701-2.468 2.432-3.702 5.414-3.702 8.898s1.24 6.46 3.67 8.928c2.469 2.468 5.445 3.702 8.93 3.702 3.52 0 6.491-1.234 8.96-3.702 2.43-2.467 3.67-5.444 3.67-8.928s-1.24-6.466-3.67-8.898c-2.469-2.468-5.44-3.702-8.96-3.702zm0 1.71c3.013 0 5.58 1.094 7.685 3.236 2.105 2.105 3.142 4.677 3.142 7.653 0 3.012-1.037 5.574-3.142 7.715-2.105 2.105-4.672 3.204-7.685 3.204s-5.61-1.099-7.715-3.204c-2.105-2.141-3.11-4.703-3.11-7.715 0-2.976 1.005-5.548 3.11-7.653 2.141-2.142 4.703-3.236 7.715-3.236z" fill="#FFF"/>
    <g clip-path="url(#a)" transform="matrix(36.29165 0 0 -36.29165 302.31 357.238)">
        <path d="M0 0c-.422-.141-.669-.563-.669-1.021.035-.388.247-.775.634-.95.387-.176.845-.071 1.162.211.282.281.388.739.282 1.126C1.197-.035.528.177 0 0m7.395 1.197C8.134.071 8.979-1.057 9.05-2.499c.14-1.656 0-3.486-.846-4.895-1.373-.775-2.852-1.339-4.366-1.797-.176.353.071.811.036 1.268-1.022-.14-1.937-.88-2.888-1.337-.458.352-.422.986-.352 1.548l.282.775c-1.62.458-3.795 1.534-4.261 2.958-.351 1.217.247 2.782 1.303 3.768 1.514 1.585 3.486 2.042 5.599 2.218-1.867.845-3.874 1.408-5.493 2.887-2.254 2.254-4.049 4.754-3.979 7.958 4.718-1.971 8.732-6.479 11.408-10.81.106 1.867.036 3.803.705 5.458.704 2.359 2.676 4.437 4.753 5.951-.07-4.472-.035-9.155-3.556-12.254"/>
    </g>
</svg>
