<?xml version="1.0" encoding="UTF-8" standalone="no"?>
<svg id="svg2" xmlns:rdf="http://www.w3.org/1999/02/22-rdf-syntax-ns#" xmlns="http://www.w3.org/2000/svg" height="134.71" viewBox="0 0 142.23859 134.70728" width="142.24" version="1.1" xmlns:cc="http://creativecommons.org/ns#" xmlns:dc="http://purl.org/dc/elements/1.1/">
 <g id="g4146" transform="translate(197.09 -2.4408)">
  <g fill="#fff">
   <rect id="rect4140" ry="22.309" height="44.619" width="99.534" y="61.78" x="-180.76"/>
   <rect id="rect4142" ry="18.591" height="37.182" width="98.962" y="87.521" x="-177.9"/>
   <rect id="rect4144" ry="18.591" height="42.903" width="66.356" y="85.233" x="-140.15"/>
  </g>
  <path id="path4138" d="m-151.73 136.78c-0.6875-0.25617-4.5198-1.1387-8.5162-1.9612-9.0261-1.8577-14.4-6.3335-20.1-16.742-8.3345-15.218-14.163-38.364-16.408-65.164-1.7706-21.129 3.6242-45.615 10.909-49.514 1.4518-0.77696 6.1662-1.151 10.842-0.86019 19.2 1.194 52.935 23.517 83.954 55.552 12.144 12.542 23.694 25.743 23.694 27.081 0 0.40704 1.6729 3.2189 3.7176 6.2485 4.857 7.1967 8.7824 16.46 8.7824 20.725 0 8.5478-16.701 17.436-41.653 22.167-9.1647 1.7378-52.039 3.6528-55.222 2.4665zm69.41-17.057c0.6684-1.2489 1.2153-10.351 1.2153-20.228 0-18.544-0.60446-20.957-5.25-20.957-1.9542 0-2.25 1.1602-2.25 8.8255v8.8255l-4.6875-0.38796-4.6875-0.38796-0.38735-6.8371c-0.42376-7.4797-1.7976-10.038-5.3907-10.038-2.0809 0-2.3469 1.0311-2.3469 9.0969 0 11.942 1.5661 14.2 10.634 15.333l6.8664 0.8579v9.0226c0 4.9624 0.33624 9.3589 0.74721 9.7698 1.1776 1.1776 4.2048-0.40516 5.5375-2.8954zm-80.295-7.8479 0.36508-9.5872h4.3845c6.9378 0 11.51-3.0193 12.491-8.2487 1.1874-6.3295-1.2312-13.509-5.153-15.295-5.2086-2.3732-13.953-1.8306-16.828 1.0441-2.277 2.277-2.5 4.1667-2.5 21.188 0 16.48 0.25842 18.838 2.1875 19.96 3.8447 2.2353 4.6794 0.73849 5.0526-9.0604zm0.25992-22.087v-5.1509l4.6875 0.38796c4.4499 0.36829 4.6875 0.6097 4.6875 4.763s-0.23759 4.3947-4.6875 4.763l-4.6875 0.38796v-5.1509zm25 31.324c0-0.64692-0.5625-1.5239-1.25-1.9488-1.6612-1.0266-1.609-5.625 0.0638-5.625 0.72258 0 2.1364 1.9688 3.1418 4.375s2.4116 4.375 3.125 4.375c1.2665 0 4.9194-7.3956 4.9194-9.9598 0-2.3186-2.3113-1.354-3.1595 1.3185l-0.82795 2.6086-1.8418-2.6296c-1.013-1.4463-2.3205-2.3337-2.9055-1.9722-0.58503 0.36157-1.9485-0.22739-3.0299-1.3088s-2.533-1.6159-3.2258-1.1877c-1.641 1.0142-1.6198 7.6222 0.0344 10.713 1.3192 2.4648 4.956 3.376 4.956 1.2416zm23.192-0.18268c0.60478-0.97856 1.2202-0.97856 2.1988 0 1.9924 1.9924 3.3534 1.6605 3.3987-0.82859 0.0379-2.0833 0.11882-2.0833 1.7003 0 1.7864 2.3533 4.51 2.9492 4.51 0.98678 0-0.66039-0.79118-1.926-1.7582-2.8125-1.5058-1.3804-1.461-1.9526 0.3125-3.9864 1.9814-2.2723 1.9225-2.3386-1.3668-1.5387-3.0615 0.74455-3.4375 0.49158-3.4375-2.3128 0-3.7448-2.4552-4.215-3.3878-0.64882-0.35957 1.375-1.3946 2.5-2.3 2.5s-1.8242 1.4237-2.0417 3.1639c-0.5459 4.3667-2.7617 4.3422-3.5205-0.0389-0.34375-1.9845-1.1875-3.3589-1.875-3.0541-1.1822 0.52406-1.1795 4.948 0.005 8.3666 0.66506 1.9193 6.4063 2.0739 7.5622 0.20359zm-20.969-37.397c0.3068-15.926 0.0904-18.289-1.8014-19.672-5.0301-3.6781-5.4222-2.4538-5.4222 16.928 0 18.905 0.73116 22.022 4.974 21.208 1.5774-0.30254 1.9604-3.4453 2.2497-18.464zm26.526 8.7559c0-11.973-1.9804-15-9.8152-15-10.515 0-17.57 9.3241-13.517 17.865 2.5792 5.4352 5.9046 6.9459 15.519 7.05l7.8125 0.0846v-10zm-14.771 2.4311c-4.269-1.7135-3.3471-7.5752 1.4555-9.2546 2.956-1.0337 3.8562-0.83822 5.3125 1.1534 1.9654 2.6879 2.3719 8.1701 0.60567 8.1701-0.63127 0-1.8969 0.24608-2.8125 0.54684s-2.9681 0.02366-4.5612-0.61576z" fill="#0082c8"/>
 </g>
</svg>
