<svg xmlns="http://www.w3.org/2000/svg" height="224.35" width="600" version="1.0">
    <path d="M154.7 0v130.43h110.21V89.609h-61.174V0zm122.48 20.348v69.261c0 4.043-4.043 40.696 36.913 40.957 10.957 0 52.826-.26 69.13-.26 40.696.13 40.696-36.523 40.696-40.697V20.35C423.909 4.043 423.909 0 399.519 0c-24.52 0-24.52 4.044-24.52 20.348v52.957c0 8.087-4.043 16.304-12.261 16.304h-24.52c-8.217 0-12.261-8.087-12.261-16.304V20.348c.13-16.304.39-20.348-24.39-20.348-24.783 0-24.391 4.044-24.391 20.348zM436.7 40.696c-1.043 11.739 0 44.87 0 44.87s-3.13 38.087 32.609 44.87c35.739 6.783 130.57 0 130.57 0v-73.44l-57.27-.13V82.17h9s2.74 11.739-14.478 12.652c-17.217.913-45.783 3.522-49.304-7.957-3-9.782-1.043-35.738-1.043-35.738s3.39-14.61 23.348-14.61h32.609v4.044h57.13V20.345S596.218-.003 567.26-.003H473.48c-8.087 0-33.522 5.217-36.783 40.696zM114 0H0v130.43h51.783V89.609H114c24.261 0 32.609-16.304 32.609-32.609V32.609c0-16.305-8.22-32.609-32.61-32.609zm-4.304 46.565v-.913c0 6.391-.392 11.348-12 11.348H60.909c-11.348 0-11.87-4.696-11.87-10.826v-1.435V45c0-6.26.521-12.522 11.87-12.522H97.56c11.739 0 12 6.652 12 13.043v-.913 1.956z" stroke-width="1.304" fill="#fff"/>
    <path d="M249.13 137.35h33.13s66.391 78.391 159.65-11.087l7.826 7.435c.13 0-85.826 121.96-200.61 3.652zm232.83 56.217h-6c-1.956.13-3.522.913-4.435 2.217-.913 1.435-1.565 3.392-1.826 5.87a30.374 30.374 0 0 0-.26 3.783v6.782c0 3 0 5.479-.131 7.435a16.508 16.508 0 0 1-1.044 4.435h-19.826v-1.044a7.026 7.026 0 0 0 1.696-2.739c.26-1.435.522-3.391.652-6s.391-5.87.522-9.782c.13-4.435.26-7.435.391-8.74.13-2.608 1.044-4.826 2.609-6.521 1.565-1.696 3.782-2.87 6.391-3.522v-.26c-3.652-1.696-6.13-3.914-7.565-6.783s-2.087-6.522-2.087-10.957c0-7.566 1.826-13.043 5.478-16.435 3.652-3.392 9.261-4.957 16.826-4.957h26.61v77.61h-18.262v-30.392zm0-33.13c-5.087 0-8.478.522-10.174 1.696-1.696 1.174-2.609 3.652-2.609 7.695 0 2.87.522 5.087 1.435 6.913.913 1.826 2.609 2.74 5.087 2.74h6.261zm24.13-13.696h47.217v15.522h-14.609v62.087h-18.261v-62.087h-14.348zm53.348 77.609v-77.609h18.261v62.087h22.3v15.522z" stroke-width="1.304" fill="#fff"/>
</svg>
