<?xml version="1.0" encoding="UTF-8"?>
<svg width="600" height="198.48" version="1.1" xmlns="http://www.w3.org/2000/svg" xmlns:cc="http://creativecommons.org/ns#" xmlns:dc="http://purl.org/dc/elements/1.1/" xmlns:rdf="http://www.w3.org/1999/02/22-rdf-syntax-ns#">
 <defs>
  <clipPath id="clipPath4048">
   <path d="m172.61 253.46c-0.348-0.295-0.539-0.613-0.539-0.895 0-0.315 0.221-0.91 1.057-0.91 0.312 0 0.521 0.113 0.663 0.262v-0.798h-0.739v-0.328h1.804v0.328h-0.738v0.833c0.141-0.166 0.359-0.297 0.694-0.297 0.836 0 1.058 0.595 1.058 0.91 0 0.282-0.192 0.6-0.539 0.895l-1.36 1.155-1.361-1.155z"/>
  </clipPath>
 </defs>
 <metadata>
  <rdf:RDF>
   <cc:Work rdf:about="">
    <dc:format>image/svg+xml</dc:format>
    <dc:type rdf:resource="http://purl.org/dc/dcmitype/StillImage"/>
    <dc:title/>
   </cc:Work>
  </rdf:RDF>
 </metadata>
 <g transform="translate(42.307225,-321.18547)">
  <g transform="matrix(1.1350308,0,0,1.1350308,-34.796451,-56.770221)">
   <g transform="matrix(34.833091,0,0,-34.833091,-5604.1626,9202.0887)" clip-path="url(#clipPath4048)">
    <g transform="translate(171.884,253.1791)">
     <path d="m0 0v-1.084l4.842 0.96-1.652 1.75z" fill="#aaca26"/>
    </g>
    <g transform="translate(172.0418,253.0054)">
     <path d="m0 0 2.747 1.465-0.931 0.968z" fill="#c8d528"/>
    </g>
    <g transform="translate(171.7708,252.9892)">
     <path d="m0 0 3.944 1.136 0.966-3.384-4.507-0.676z" fill="#87bf35"/>
    </g>
    <g transform="translate(173.7923,251.9191)">
     <path d="m0 0 1.504 2.661 1.541-3.78-4.562-0.27z" fill="#51b33f"/>
    </g>
   </g>
   <g>
    <path d="m84.158 418.73c-7.0015 8.1509-17.103 12.435-29.19 12.435h-46.119v-80.987h46.119c26.787 0 38.978 21.004 38.978 40.511 0 10.729-3.4833 20.691-9.7881 28.041m-29.19-83.983h-61.585v172.88h15.466v-61.237h46.119c16.685 0 30.758-6.0958 40.685-17.66 8.7431-10.102 13.515-23.686 13.515-38.142 0-27.762-18.601-55.837-54.2-55.837"/>
    <path d="m266.33 435.36c15.292-12.784 24.209-30.096 24.418-47.373 0.38316-13.689-4.5631-26.508-13.933-36.157-11.042-11.321-26.856-17.312-45.806-17.312-39.048 0-59.495 29.016-59.495 57.684v5.852h15.013v-5.852c0-20.447 13.898-42.462 44.482-42.462 14.421 0 26.299 4.389 34.38 12.714 6.688 6.897 10.206 16.093 9.9274 25.881-0.48767 16.824-12.331 29.469-19.332 35.495l-80.743 68.552h-27.17v-142.43h34.276v-14.978h-83.774v14.978h34.276v142.43h-34.276v15.222h190.82v-15.222h-90.81l67.75-57.022z"/>
    <path d="m358.41 450.97h-69.422l69.422-87.71zm15.222 0v-116.45h-12.435l-94.607 120.28v11.39h91.82v41.66h15.222v-41.66h14.943v-15.222h-14.943z"/>
   </g>
  </g>
 </g>
</svg>
