<svg width="200mm" height="60.5mm" version="1.1" viewBox="0 0 200 60.5" xmlns="http://www.w3.org/2000/svg">
 <g transform="translate(254 -102.21)" fill-rule="evenodd">
  <rect x="-254" y="102.21" width="200" height="60.5" fill="#002856"/>
  <path d="m-206.44 151.35c-4.8494-0.75468-8.9857-2.93-12.162-6.396-2.4203-2.6414-2.3844-2.3918-0.88127-6.1241 0.71232-1.7687 1.2568-3.2542 1.2098-3.3012-0.047-0.047-0.39395 0.1574-0.77115 0.45407-0.37718 0.2967-1.5026 0.82958-2.5008 1.1842-1.6448 0.58422-2.2706 0.6552-6.6719 0.75662l-4.8569 0.11192-0.0676 6.0942-0.0676 6.0942-4.1566 0.0772c-2.2862 0.0425-4.419 0.0115-4.7397-0.0691l-0.58308-0.14636 0.0677-18.366 0.0678-18.366 8.9651 7e-3c9.8974 7e-3 10.387 0.0688 13.466 1.7023 3.1198 1.6553 5.4748 5.7446 5.4748 9.5066 0 0.68825 0.0902 1.0396 0.2297 0.89395 0.12633-0.13195 1.2242-2.8537 2.4398-6.0483 1.2155-3.1946 2.3067-5.9352 2.4247-6.0902 0.4179-0.54848 3.3554-0.98101 6.5226-0.9604 6.0895 0.0397 10.922 1.9149 14.722 5.7134 0.66638 0.666 1.2594 1.2109 1.3178 1.2109 0.0584 0 0.13824-1.3353 0.17737-2.9673l0.0711-2.9673 9.2135-0.1376 0.1304 28.927h8.5567l5.4444-14.197c2.9944-7.8081 5.5662-14.317 5.715-14.463 0.17652-0.17387 2.0092-0.24275 5.2691-0.198l4.9984 0.0686 9.6469 25.659 0.50547-1.3388c0.278-0.73636 2.5068-6.5096 4.9528-12.829l4.4474-11.49 4.0212 0.0215c4.3049 0.0232 6.0445 0.30082 7.9894 1.2752 2.5412 1.2731 4.5902 3.8475 5.3776 6.7564 0.53155 1.9636 0.41867 5.4132-0.2405 7.3516-1.0122 2.9766-3.3212 5.2336-6.138 6-0.5903 0.16061-1.0721 0.35365-1.0707 0.42903 3e-3 0.0753 2.5121 3.4194 5.5792 7.4313 4.0064 5.2403 5.4851 7.3508 5.2517 7.4951-0.17869 0.11046-2.7468 0.21261-5.7069 0.22703l-5.382 0.0262-3.0997-4.7433c-1.7048-2.6088-3.7782-5.804-4.6074-7.1004l-1.5077-2.3571-0.25254 14.058-7.8691 0.0532c-5.911 0.04-7.9294-0.023-8.1114-0.25255-0.13324-0.16815-0.66082-1.4324-1.1724-2.8095-0.5116-1.3771-1.0428-2.7142-1.1805-2.9715-0.23533-0.43972-0.6461-0.46372-6.8542-0.40045l-6.6039 0.0673-1.1578 2.9042c-0.63678 1.5973-1.2448 3.0436-1.3512 3.2139-0.14925 0.239-3.002 0.29665-12.493 0.25255l-12.3-0.0572-0.0658-11.301c-0.0362-6.2156-0.1498-11.299-0.25255-11.297-0.10273 3e-3 -0.77708 1.5649-1.4986 3.4724-4.263 11.271-7.229 18.911-7.443 19.172-0.70987 0.8668-7.3751 1.556-10.438 1.0793zm7.7414-10.029c2.0306-0.99967 4.2633-3.2687 5.2093-5.2941 0.60415-1.2935 0.68215-1.7623 0.68412-4.1116 3e-3 -2.4605-0.0559-2.7744-0.80417-4.354-1.6758-3.5377-4.9462-5.749-8.8017-5.9514-9.5225-0.49979-14.752 10.476-8.2854 17.39 2.3069 2.4663 4.3674 3.296 7.9381 3.1965 2.1351-0.0594 2.6116-0.1622 4.0597-0.8751zm49.901-5.1757c-0.0639-0.17363-0.94015-2.7945-1.9473-5.8242-1.0072-3.0297-1.9018-5.438-1.988-5.3518-0.0863 0.0863-1.0244 2.7071-2.0849 5.8242l-1.9281 5.6674h4.0322c3.1193 0 4.006-0.0714 3.9161-0.31567zm-77.905-6.5565c1.4845-0.82206 2.0793-1.9625 2.0793-3.987 0-2.0582-0.67078-3.2651-2.2358-4.0227-0.87587-0.424-1.5671-0.52299-3.6523-0.52299h-2.5719v4.5036c0 2.477 0.0852 4.5928 0.1894 4.7018 0.10418 0.10905 1.3051 0.13228 2.6687 0.0516 1.9201-0.11354 2.7146-0.27689 3.5226-0.72434zm103.65-0.0741c4.3299-1.2858 4.4254-7.2756 0.1351-8.4768-0.63867-0.17883-1.9081-0.3331-2.8209-0.34285l-1.6597-0.0178-0.0689 4.6088-0.0688 4.6088h1.6014c0.88072 0 2.1776-0.17112 2.8818-0.38025z" fill="#fff"/>
  <path d="m-88.307 111.56v12.679h-14.464v11.428h14.464v14.464h11.071v-14.464h13.571v-11.428h-13.571v-12.679z" fill="#fff"/>
 </g>
</svg>
