<svg xmlns="http://www.w3.org/2000/svg" height="805.35" width="600">
    <path fill="#ff2c23" d="M300.558 128.67c-94.327 0-170.79 76.46-170.79 170.78 0 94.327 76.46 170.79 170.79 170.79 94.315 0 170.78-76.46 170.78-170.79 0-94.315-76.46-170.78-170.78-170.78m0 42.42c34.277 0 66.512 13.347 90.754 37.59 24.242 24.253 37.6 56.476 37.6 90.765 0 34.29-13.36 66.525-37.6 90.766-24.242 24.242-56.477 37.601-90.754 37.601-34.29 0-66.525-13.36-90.766-37.6-24.242-24.243-37.601-56.478-37.601-90.767 0-34.29 13.36-66.512 37.6-90.766 24.243-24.242 56.478-37.589 90.767-37.589"/>
    <path fill="#fff000" d="M300.558 86.23c-28.774 0-56.701 5.653-83.01 16.784-25.387 10.733-48.185 26.097-67.757 45.67-19.56 19.56-34.937 42.358-45.67 67.757-11.131 26.31-16.771 54.236-16.771 82.997s5.64 56.69 16.77 83.01c10.734 25.387 26.11 48.185 45.67 67.757 19.574 19.56 42.37 34.925 67.758 45.67 26.309 11.131 54.236 16.771 83.01 16.771 28.76 0 56.689-5.64 82.997-16.77 25.387-10.746 48.197-26.11 67.757-45.67 19.56-19.574 34.937-42.37 45.67-67.758 11.13-26.32 16.77-54.248 16.77-83.01 0-28.76-5.64-56.689-16.77-82.997-10.733-25.4-26.11-48.197-45.67-67.757-19.56-19.573-42.37-34.937-67.757-45.67-26.31-11.13-54.236-16.784-82.997-16.784m0 42.432c94.315 0 170.78 76.46 170.78 170.78 0 94.327-76.46 170.79-170.78 170.79-94.327 0-170.79-76.46-170.79-170.79 0-94.315 76.46-170.78 170.79-170.78"/>
    <path fill="#25cce0" d="M300.558 43.6c-34.588 0-68.168 6.773-99.793 20.158-30.53 12.911-57.934 31.388-81.466 54.908-23.52 23.532-41.997 50.936-54.908 81.466-13.385 31.625-20.17 65.205-20.17 99.793 0 34.576 6.785 68.156 20.17 99.781 12.91 30.53 31.388 57.946 54.908 81.466 23.532 23.532 50.936 41.997 81.466 54.908 31.625 13.385 65.205 20.17 99.793 20.17 34.576 0 68.156-6.785 99.78-20.17 30.53-12.91 57.935-31.376 81.467-54.908 23.52-23.52 41.997-50.936 54.908-81.466 13.385-31.625 20.17-65.205 20.17-99.78 0-34.589-6.786-68.169-20.17-99.794-12.911-30.529-31.388-57.934-54.908-81.466-23.532-23.52-50.936-41.997-81.466-54.908C368.714 50.373 335.134 43.6 300.558 43.6m0 43.117c117.75 0 213.2 95.448 213.2 213.21 0 117.75-95.448 213.21-213.2 213.21-117.76 0-213.21-95.46-213.21-213.21 0-117.76 95.448-213.21 213.21-213.21"/>
    <path fill="#F60" d="M300.558 0c-40.415 0-79.635 7.919-116.58 23.544-35.66 15.09-67.683 36.668-95.174 64.16-27.48 27.49-49.07 59.501-64.147 95.173C9.03 219.82 1.1 259.04 1.1 299.437c0 40.415 7.93 79.623 23.557 116.58 15.078 35.66 36.668 67.683 64.147 95.162 27.49 27.491 59.515 49.081 95.174 64.16 36.942 15.625 76.162 23.556 116.58 23.556 40.403 0 79.623-7.93 116.56-23.557 35.659-15.078 67.683-36.668 95.174-64.159 27.479-27.479 49.069-59.502 64.159-95.162 15.626-36.954 23.544-76.162 23.544-116.58 0-40.403-7.92-79.623-23.544-116.56-15.09-35.672-36.68-67.683-64.16-95.174-27.49-27.49-59.514-49.069-95.173-64.159C380.176 7.918 340.956 0 300.558 0m0 43.117c141.57 0 256.32 114.76 256.32 256.32 0 141.57-114.76 256.32-256.32 256.32-141.57 0-256.32-114.76-256.32-256.32 0-141.57 114.76-256.32 256.32-256.32"/>
    <path fill="#F60" d="M44.237 641.527H1.12v-341.61h43.117v341.61z"/>
    <path fill="#25cce0" d="M87.347 616.613H44.23v-316.7h43.117v316.7z"/>
    <path fill="#fff000" d="M130.468 592.658H87.35v-292.74h43.117v292.74z"/>
    <path fill="#ff2c23" d="M171.506 569.936H129.77v-270.01h41.735v270.01zM506.847 743.79l.062-45.259c0-4.42 3.374-8.018 7.495-8.018 4.134 0 7.496 3.598 7.496 8.03l.05 39.806c0 1.37.51 2.714 1.294 3.71 10.284 13.571 16.273 20.78 24.864 30.965 1.071 1.307 2.59 2.042 4.396 2.042.236 0 .697-.05.933-.087 17.17-2.13 30.48-16.858 30.48-34.663l-.012-42.445c0-4.408 3.35-7.994 7.47-7.994 4.134 0 7.508 3.586 7.508 7.994l.137 42.482c0 27.828-22.237 48.969-52.107 49.965-1.768 0-3.685-.635-4.756-1.893-11.405-13.086-17.294-20.307-26.035-31.04l-7.969-9.774c-.809-.983-1.307-2.415-1.307-3.822M50.067 690.94c-28.19 0-50.062 26.953-50.062 50.124v56.28c0 4.42 3.479 8 7.75 8s7.718-3.586 7.718-8.031l-.094-20.25a49.973 49.973 0 0 0 34.687 13.969c27.616 0 50.062-22.427 50.062-50.031 0-27.603-22.446-50.062-50.062-50.062zm0 15.094c19.274 0 34.937 15.694 34.937 34.968 0 19.261-15.663 34.906-34.937 34.906S15.13 760.264 15.13 741.002c0-15.738 16.124-34.968 34.937-34.968zM159.217 690.47c-27.591 0-50.031 22.44-50.031 50.031 0 27.603 22.44 50.062 50.03 50.062s50.063-22.458 50.063-50.062c0-27.59-22.471-50.03-50.062-50.03zm0 15.094c19.274 0 34.937 15.676 34.937 34.937s-15.663 34.937-34.937 34.937c-19.261 0-34.937-15.676-34.937-34.937s15.676-34.937 34.937-34.937zM269.693 789.93c-27.58 0-50.04-22.41-50.04-49.953l.112-57.54c0-4.407 3.362-8.006 7.483-8.006s7.483 3.599 7.483 8.019l.025 57.635c0 19.187 15.676 34.788 34.937 34.788 4.12 0 7.482 3.336 7.482 7.433 0 4.208-3.361 7.62-7.482 7.62M321.527 690.47c-27.603 0-50.031 22.44-50.031 50.031 0 27.603 22.427 50.062 50.03 50.062 27.617 0 50.063-22.458 50.063-50.062 0-27.59-22.446-50.03-50.062-50.03zm0 15.094c19.274 0 34.968 15.676 34.968 34.937s-15.694 34.937-34.968 34.937-34.937-15.676-34.937-34.937 15.663-34.937 34.937-34.937zM455.747 700.01l34.265-.1c4.432 0 8.03 3.362 8.043 7.484 0 4.146-3.61 7.52-8.031 7.532l-34.277-.037.025 25.412c0 19.187 15.663 34.8 34.925 34.8 4.134 0 7.483 3.337 7.483 7.445 0 4.196-3.35 7.608-7.483 7.608-27.579 0-50.027-22.411-50.027-49.965l.1-57.523c0-4.408 3.349-8.006 7.47-8.006 4.146 0 7.508 3.598 7.508 8.006v17.344z"/>
</svg>
