<svg width="706.24" height="615" version="1.1" viewBox="0 0 706.24 614.99" xmlns="http://www.w3.org/2000/svg">
 <g transform="matrix(.99999 0 0 .99999 340.03 -2879.3)">
  <path transform="matrix(.26458 0 0 .26458 -3015.2 -2147.1)" d="m10111 20688v467.64c0 91.726 74.244 166.48 166.52 166.48h1936.2c92.273 0 166.52-74.229 166.52-166.48v-318.73h-246.25c-46.981 0-88.144-27.34-111.03-68.318h-1745.4c-67.35 0-127.28-31.812-166.52-80.59z" fill="#dc3323" stroke-width="3.7796"/>
  <path d="m366.21 3331.7c0 10.435-12.768 22.106-23.845 22.103l-144.64-0.033c-10.474 0-23.798-11.691-23.798-22.07l1e-4 -83.095c-1e-4 -13.044 13.324-24.141 23.842-24.139l144.61 0.036c10.383 0.042 23.838 11.055 23.838 24.111z" fill="#dc3323" fill-rule="evenodd" stroke-width="3.7795"/>
  <g transform="translate(10.746,2510.1)" fill="#fff" stroke-width=".99999">
   <path d="m206.32 782.83h33.239v30.997h13.136v-70.818h-13.136v30.444h-33.239v-30.444h-13.482v70.818h13.482z" style="font-variant-caps:normal;font-variant-ligatures:normal;font-variant-numeric:normal"/>
   <path d="m273.38 743.01v70.818l27.721 3e-5c21.593 0.13965 35.281-14.454 35.281-35.143 0-20.602-13.771-35.674-35.281-35.674zm13.367 60.251v-49.874h14.191c13.95 0 21.472 10.882 21.472 24.941-0.0889 14.057-7.3587 24.933-21.475 24.91z" style="font-variant-caps:normal;font-variant-ligatures:normal;font-variant-numeric:normal"/>
  </g>
  <path d="m-295.74 2879.3c-24.414 0-44.198 19.64-44.198 43.909v362.78c0 24.269 19.644 43.909 44.058 43.909h456.78c-0.024-0.5932-0.04-1.1898-0.04-1.7899v-77.613c0-20.885 15.418-37.816 34.436-37.816 0.2601 0 0.5191 0.01 0.7779 0.011h64.38v-289.34c0-24.269-19.644-43.91-44.058-43.91v-0.1389z" fill="#1c58aa" stroke-width=".76877"/>
  <path d="m-198.51 3413.7a15.418 15.418 0 0 1-5.3259 12.193 19.201 19.2 0 0 1-12.894 4.485h-31.114v-11.352h31.114c4.2047 0 6.4473-1.822 6.4473-5.3259v-7.428c0-3.7841-2.1025-5.6062-6.4473-5.6062h-42.046v51.296h-11.913v-62.508h53.819c5.1858 0 9.5307 1.4014 13.035 4.625 3.5038 3.2234 5.326 7.2879 5.326 12.193zm76.106 21.444v-29.011c0-1.4014-0.5606-2.8031-1.9621-3.9243-1.4015-1.2613-2.8032-1.822-4.485-1.822h-35.039c-1.5418 0-3.0835 0.5606-4.4851 1.822-1.4015 1.1212-1.962 2.3826-1.962 3.9243v29.011c0 3.7841 2.1024 5.6062 6.4471 5.6062h35.039c4.2046 0 6.4471-1.822 6.4471-5.6062m11.913 0a15.418 15.418 0 0 1-5.4661 12.193 18.921 18.92 0 0 1-12.894 4.7653h-35.039c-5.0455 0-9.3904-1.6819-12.894-4.7653a15.418 15.418 0 0 1-5.4662-12.193v-29.153a15.418 15.418 0 0 1 5.6064-11.913c3.7842-3.3637 7.9889-5.0455 12.755-5.0455h35.039c4.7652 0 8.97 1.6819 12.613 5.0455a15.418 15.418 0 0 1 5.6063 11.913zm71.34 16.958h-35.039c-4.9053 0-9.2503-1.6819-12.755-4.7653a15.418 15.418 0 0 1-5.4661-12.193v-45.97h11.913v45.97c0 3.7841 2.1024 5.6062 6.4471 5.6062h34.898zm85.634-51.717h-52.278c-1.6819 0-3.0834 0.5606-4.485 1.822-1.4015 1.1212-1.9621 2.5227-1.9621 3.9243v3.2236c0 3.6439 2.1024 5.6061 6.4471 5.6061h35.039c5.0456 0 9.2504 1.5418 12.755 4.625 3.7843 3.2236 5.6064 7.2879 5.6064 12.334v3.2235a15.418 15.418 0 0 1-5.6064 12.054 18.781 18.78 0 0 1-12.755 4.9052h-52.419v-11.212h52.419a7.0078 7.0076 0 0 0 4.4851-1.6818c1.4015-1.1212 1.9621-2.5228 1.9621-4.2045v-3.0834c0-3.7841-2.1025-5.6062-6.4472-5.6062l-35.039-0.1401c-5.0455 0-9.3904-1.5418-12.894-4.7654a15.418 15.418 0 0 1-5.4661-12.054v-3.3637a15.418 15.418 0 0 1 5.6063-11.913c3.7842-3.3637 7.989-5.0455 12.755-5.0455h52.278zm89.98 51.857h-12.613l-5.7465-22.004h-28.872l2.8031-11.492h22.845l-3.0834-12.474c-1.1213-3.7841-3.2235-5.6062-6.4472-5.6062h-14.436c-3.3638 0-5.6063 1.822-6.5874 5.6062l-11.773 45.97h-12.613l11.773-45.83c2.9433-11.352 9.1101-16.958 18.36-16.958h15.978c9.3904 0 15.418 5.6061 18.36 16.819zm65.452-51.857h-26.21v51.577h-11.773v-51.577h-25.928v-11.212h63.91z" fill="#fff"/>
  <path d="m-5.8016 3152.9 13.736-41.204a168.19 168.19 0 0 0 6.5874-21.024 285.91 285.91 0 0 0 7.0078 20.742l14.015 41.345zm2.3826-93.341-47.374 123.2h-51.436l-0.2802-122.92h-35.039l0.2802 140.43c0 5.8864 4.7653 10.652 10.652 10.652l68.116-0.1402h26.911v-0.4204c1.822-0.2803 3.3638-0.9811 4.7653-1.962a12.613 12.613 0 0 0 4.2046-5.3259l8.6897-26.348h57.464l8.97 26.209a13.455 13.455 0 0 0 4.2047 5.466c1.962 1.4014 4.485 2.1024 7.4283 2.1024h27.19l-58.866-151.08zm215.57-0.5606-31.114 0.1401a11.353 11.352 0 0 0-7.1479 2.3826c-0.9811 0.841-1.8221 1.5418-2.5228 2.5227-0.7008 0.841-1.2613 1.822-1.682 2.8031l-21.025 43.869c-1.822 3.3637-3.3638 6.5872-4.7652 9.6705-1.4015 2.9432-2.5228 5.3259-3.5038 8.2691-1.1213-2.8031-2.3826-5.1857-3.9244-8.1289l-4.9054-9.8107-21.303-43.869c-1.1213-2.2425-2.6629-4.0644-4.3449-5.466a11.213 11.212 0 0 0-7.2881-2.1024h-30.835l54.94 93.623v57.463h35.039v-57.463zm-402.53 52.697-21.584 12.334-21.163 12.193c-2.1025 1.4014-4.7653-0.2803-4.7653-2.8031v-49.052c0-2.3826 2.5228-3.7841 4.485-2.6628l21.444 12.474 21.584 12.474c1.9621 1.1212 1.9621 3.9243 0 5.0454m15.978-37.421c-5.0455-4.3447-11.213-7.8486-18.92-10.371-7.7086-2.5227-16.82-3.7841-27.47-3.6439h-42.468a10.792 10.792 0 0 0-10.792 10.932l0.2803 140.14h35.039v-50.456h18.22a86.897 86.895 0 0 0 27.049-3.9243c7.5686-2.5228 14.015-6.1667 18.92-10.652 4.9054-4.485 8.6897-9.8108 11.072-16.118a57.464 57.463 0 0 0 0-40.224 40.646 40.644 0 0 0-10.932-15.697" fill="#fff"/>
 </g>
</svg>
