<svg version="1.0" viewBox="0 0 600.41 615" xmlns="http://www.w3.org/2000/svg">
 <g transform="matrix(1.6227 0 0 1.6227 -232.29 -1348.5)" stroke-width=".61623">
  <path d="m143.17 1106.7v76.241c0 14.954 12.165 27.085 27.17 27.085h315.68c14.988 0 27.136-12.131 27.136-27.085v-63.17h-342.81c-10.985 0-20.771-5.1159-27.17-13.072" fill="#f68300"/>
  <path d="m486 831.03h-315.68c-15.005 0-27.17 12.131-27.17 27.085v223.56c0 14.971 12.165 27.102 27.17 27.102l342.83-0.017v-250.64c0-14.954-12.165-27.085-27.153-27.085" fill="#456b78"/>
  <path d="m230.43 1160.3c0 3.0969-1.1121 5.612-3.2851 7.5112-2.1901 1.8992-4.8763 2.8574-8.0074 2.8574h-19.163v-7.1006h19.163c2.652 0 4.0037-1.095 4.0037-3.268v-4.5512c0-2.3441-1.3517-3.5075-4.0037-3.5075h-25.939v31.739h-7.2888v-38.651h33.193c3.1482 0 5.8173 0.9753 8.0245 2.9258 2.1901 1.9505 3.3022 4.4314 3.3022 7.4941v4.5512" fill="#fff"/>
  <path d="m284.66 1173.6c0 3.0798-1.1121 5.5949-3.3364 7.5283-2.2243 1.9677-4.8763 2.9258-7.9903 2.9258h-21.576c-3.114 0-5.766-0.9581-7.9903-2.9258-2.2243-1.9334-3.3193-4.4485-3.3193-7.5283v-17.846c0-2.8744 1.1464-5.3211 3.4391-7.3743 2.3098-2.0361 4.9447-3.0627 7.8705-3.0627h21.576c2.9429 0 5.5436 1.0266 7.8534 3.0627 2.3098 2.0532 3.4733 4.4999 3.4733 7.3743zm-7.2888 0.086v-17.931c0-0.9239-0.42774-1.7452-1.2832-2.4467-0.83838-0.7357-1.7452-1.095-2.7205-1.095h-21.644c-0.97526 0-1.8992 0.3593-2.7376 1.095-0.83838 0.7015-1.2661 1.5228-1.2661 2.4467v17.931c0 2.3098 1.3346 3.4733 4.0037 3.4733h21.644c2.6691 0 4.0037-1.1635 4.0037-3.4733" fill="#fff"/>
  <path d="m328.65 1184h-21.507c-3.0969 0-5.7489-0.9581-7.9732-2.9258-2.19-1.9505-3.3022-4.4485-3.3022-7.5283v-28.3h7.2888v28.368c0 2.327 1.3346 3.4905 3.9866 3.4905h21.507v6.8952" fill="#fff"/>
  <path d="m381.56 1152.2h-32.303c-0.99237 0-1.8992 0.3764-2.7376 1.0608-0.83838 0.7357-1.2661 1.557-1.2661 2.4809v1.9335c0 2.3269 1.3346 3.4733 4.0037 3.4733l21.61 0.068c3.0969 0 5.7489 0.941 7.9219 2.806 2.2756 2.0019 3.4048 4.517 3.4048 7.5797v2.0018c0 2.9258-1.1635 5.4067-3.4562 7.4257-2.3098 2.0018-4.9276 3.0113-7.8534 3.0113h-32.303v-6.8952h32.32c0.97526 0 1.8821-0.3422 2.7376-1.0266 0.83839-0.6844 1.2661-1.5399 1.2661-2.5152v-2.0018c0-2.3099-1.3346-3.4733-4.0037-3.4733l-21.61-0.068c-3.114 0-5.766-0.9581-7.9903-2.8915s-3.3364-4.4144-3.3364-7.4941v-1.9335c0-2.8744 1.1464-5.3382 3.4562-7.3743s4.9276-3.0627 7.8534-3.0627h32.286v6.8953" fill="#fff"/>
  <path d="m437.05 1184.1h-7.8021l-3.5588-13.517h-17.692l1.6596-7.1006h14.15c-0.29087-1.1806-1.2661-5.3725-1.9163-7.7165-0.65018-2.327-1.9676-3.5075-3.9695-3.5075h-8.9313c-2.0361 0-3.3706 1.1805-4.0037 3.5246l-7.2546 28.317h-7.8021l7.2717-28.283c1.8136-6.9808 5.5949-10.471 11.31-10.471h9.8724c5.7831 0 9.5473 3.4904 11.327 10.471l7.3401 28.283" fill="#fff"/>
  <path d="m477.41 1152.2h-16.169v31.841h-7.3059v-31.841h-15.929v-6.8953h39.404v6.8953" fill="#fff"/>
  <path d="m496.09 862.99v73.624l-34.665 34.665v-64.573l-64.47 64.727-24.724-24.724 65.12-64.829h-64.59l33.775-33.758h74.684c8.2127 0 14.868 6.6557 14.868 14.868" fill="#fff" fill-rule="evenodd"/>
  <path d="m232.02 1089.2-30.883-47.856v47.856h-15.228v-77.97h13.585l30.883 47.736v-47.736h15.228v77.97h-13.585" fill="#fff"/>
  <path d="m261.04 1089.2v-77.97h51.347v13.585h-36.136v18.29h30.781v13.568h-30.781v18.941h36.136v13.585h-51.347" fill="#fff"/>
  <path d="m396.58 1089.2h-12.713l-14.338-47.309-14.338 47.309h-12.713l-20.806-77.97h15.878l12.045 49.174 14.235-49.174h11.395l14.235 49.174 12.165-49.174h15.861l-20.908 77.97" fill="#fff"/>
  <path d="m448.75 1089.9c-11.823 0-20.806-2.5151-28.471-10.283l9.8553-9.8553c4.9276 4.9277 11.6 6.5702 18.838 6.5702 8.9827 0 13.791-3.4049 13.791-9.6499 0-2.7376-0.76995-5.0303-2.4125-6.5702-1.5228-1.4201-3.2851-2.1901-6.8782-2.7376l-9.4275-1.3003c-6.6899-0.9924-11.6-3.0798-15.108-6.4676-3.73-3.7299-5.5949-8.7602-5.5949-15.33 0-13.91 10.3-23.663 27.17-23.663 10.728 0 18.496 2.6349 25.186 9.1025l-9.65 9.513c-4.9276-4.7052-10.831-5.3554-15.981-5.3554-8.1101 0-12.045 4.4828-12.045 9.8553 0 1.9676 0.65018 4.055 2.3098 5.5778 1.5228 1.4201 4.0379 2.6349 7.2032 3.0798l9.2051 1.3003c7.1177 0.9924 11.618 2.96 14.886 6.0227 4.1748 3.9524 6.0398 9.6328 6.0398 16.545 0 15.108-12.593 23.646-28.916 23.646" fill="#fff"/>
 </g>
</svg>
