<svg xmlns="http://www.w3.org/2000/svg" height="614.55" width="600" viewBox="0 0 158.75 162.599">
    <path fill="#ce35c4" d="M11.67 0C5.22 0 0 5.206 0 11.62v95.911c0 6.42 5.22 11.62 11.67 11.62h147.08l.004-107.53C158.754 5.206 153.527 0 147.097 0H11.667z"/>
    <path d="M.01 118.271v32.709c0 6.424 5.21 11.624 11.66 11.624H147.1c6.428 0 11.655-5.2 11.655-11.624v-27.092H11.675c-4.74 0-8.92-2.207-11.67-5.617" fill="#aa0145"/>
    <g fill="#fff">
        <path d="M37.46 141.279c0 1.331-.48 2.402-1.4 3.226-.94.813-2.09 1.219-3.44 1.219h-8.24v-3.035h8.24c1.14 0 1.7-.47 1.7-1.41v-1.953c0-1.014-.56-1.505-1.7-1.505H21.48v13.615h-3.14v-16.587h14.25c1.35 0 2.51.438 3.46 1.262.93.839 1.41 1.911 1.41 3.215v1.953zM57.6 146.991v-7.697c0-.385-.18-.755-.55-1.056-.36-.301-.76-.459-1.16-.459H46.6c-.42 0-.81.158-1.17.459s-.55.671-.55 1.056v7.697c0 .993.57 1.484 1.72 1.484h9.29c1.14 0 1.71-.491 1.71-1.484m3.13-.037c0 1.315-.47 2.397-1.44 3.226-.95.839-2.09 1.256-3.42 1.256h-9.25c-1.33 0-2.49-.417-3.43-1.256-.97-.829-1.44-1.911-1.44-3.226v-7.66c0-1.23.5-2.286 1.49-3.162s2.12-1.32 3.38-1.32h9.25c1.26 0 2.39.444 3.37 1.32s1.49 1.932 1.49 3.162v7.66zM79.6 151.435h-9.23c-1.33 0-2.47-.412-3.42-1.256-.93-.834-1.42-1.917-1.42-3.226v-12.131h3.13v12.168c0 .993.57 1.484 1.71 1.484h9.23v2.961zM102.29 137.779H88.43c-.42 0-.81.153-1.18.459-.34.306-.52.67-.52 1.05v.835c0 1.003.56 1.494 1.7 1.494l9.27.015c1.33 0 2.48.407 3.41 1.215.97.855 1.46 1.942 1.46 3.251v.866c0 1.241-.5 2.318-1.49 3.178-.99.866-2.11 1.294-3.36 1.294H83.85v-2.962h13.87c.42 0 .81-.142 1.17-.438.36-.301.54-.66.54-1.072v-.866c0-.992-.56-1.483-1.71-1.483l-9.27-.037c-1.34 0-2.47-.406-3.43-1.235-.95-.84-1.42-1.901-1.42-3.22v-.835c0-1.224.5-2.28 1.48-3.162.98-.871 2.11-1.314 3.37-1.314h13.84v2.967zM126.097 151.482h-3.336l-1.531-5.802h-7.597l.713-3.046h6.076c-.132-.502-.554-2.307-.834-3.31-.269-1.009-.845-1.51-1.695-1.51h-3.832c-.872 0-1.452.501-1.727 1.51l-3.109 12.158h-3.342l3.115-12.142c.776-2.988 2.402-4.488 4.867-4.488h4.224c2.47 0 4.101 1.5 4.856 4.488l3.152 12.142zM143.414 137.779h-6.937v13.657h-3.135v-13.657h-6.826v-2.967h16.898v2.967zM33.26 73.759v.232c0 1.077-1.08 1.579-2.28 1.579-1.84 0-2.76-1.811-4.15-4.424-1.5-2.809-3.65-6.963-7.04-6.963-.61 0-1.88-.349-1.88-1.31 0-.427.15-.997.42-1.383 0 0 .96.613 2.24.613 4.22 0 5.99-3.5 5.99-5.734 0-2.956-1.54-6.234-6.81-6.234-1.42 0-3.5.39-4.68 1.077v20.314c0 1.425.84 2.349 2.15 2.349h1.42v1.15H8.95v-1.15h1.11c1.46 0 2.19-.808 2.19-2.35V51.83c0-1.078-.85-1.727-2.19-1.727H8.95v-1.12h3.69c3 0 4.46-.575 7.34-.575 6.66 0 9.63 3.463 9.63 7.618 0 4.076-3.55 6.884-5.77 7.196 2.07.5 3.81 3.5 4.96 5.58 2.35 4.265 2.96 4.957 4.46 4.957M43.68 73.914c4.81 0 6.62-4.002 6.62-7.967 0-3.959-1.39-8.224-6.62-8.224-5.27 0-6.84 4.497-6.84 8.224 0 3.965 1.81 7.967 6.84 7.967m0-17.965c7.12 0 9.2 5.343 9.2 9.998 0 4.577-2.34 9.735-9.2 9.735-6.81 0-9.46-5.158-9.46-9.735 0-4.656 2.08-9.998 9.46-9.998M110.471 74.027v.998h-1.964c-3.078 0-3.157-2.112-3.157-3.189V65.95h-2.497c-4.733 0-7.423 1.077-7.423 4.197 0 2.497 1.96 3.574 3.62 3.574 2.57 0 3.645-1.732 3.645-1.732.158 0 .813.502.813 1.077 0 .813-.391 2.233-4.578 2.233-2.39 0-6.19-1.309-6.19-5.194 0-4.73 4.53-5.807 10.15-5.807h2.46v-1.811c0-1.732-.074-4.92-4.34-4.92-3.77 0-4.85 2.576-4.85 4.424 0 0-1.89-.042-1.89-2.043 0-2.344 2.89-4.039 6.74-4.039 4.229 0 6.921 1.616 6.921 6.578v8.658c0 1.805.497 2.882 1.964 2.882h.576zM133.516 74.027v.998h-2.466c-2.074 0-2.924-1.61-2.924-3.421V63.49c0-3.928-1.69-5.464-4.498-5.464-3.31 0-5.923 2.92-5.923 7.771v6.314c0 .918.422 1.916 1.499 1.916h.771v.998h-7.581v-.998h.998c.733 0 1.768-.612 1.768-1.689v-12.47c0-.881-.264-2.074-1.884-2.074h-.882v-.924h2.539c2.228 0 2.65 1.31 2.65 2.808.966-1.652 3.279-3.5 6.43-3.5 4.614 0 6.694 2.772 6.694 6.43v8.959c0 .924.465 2.46 2.265 2.46h.544zM136.398 61.025c0-2.502 2.465-4.962 7.19-4.962 4.777 0 6.467 1.847 6.467 3.885 0 2.043-1.653 2.276-2.038 2.276 0-3.469-1.964-4.467-4.429-4.467-2.492 0-4.651 1.035-4.651 2.925 0 5.189 11.815 3.616 11.815 9.693 0 3.426-3.157 5.347-7.391 5.347-3.886 0-7.27-1.694-7.27-3.611 0-1.699 1.927-1.736 1.927-1.736s1.072 3.574 5.533 3.574c3.157 0 4.614-1.648 4.614-2.883 0-5.385-11.767-3.268-11.767-10.041M72.31 82.735c.6-.138 1.14-.433 1.65-.745.51-.317 1-.67 1.48-1.045.94-.75 1.83-1.563 2.7-2.413.86-.844 1.68-1.731 2.47-2.644.8-.908 1.57-1.832 2.3-2.783.73-.955 1.44-1.926 2.11-2.929a59.04 59.04 0 0 0 1.9-3.041c.59-1.03 1.13-2.096 1.62-3.162.48-1.077.9-2.17 1.2-3.279.3-1.103.5-2.228.48-3.31-.02-1.087-.26-2.106-.77-2.961a5.398 5.398 0 0 0-.42-.608c-.04-.047-.08-.09-.12-.142l-.03-.037c-.01-.016.01.016.01.01l-.01-.015-.02-.016-.08-.085-.16-.163c-.06-.058-.1-.095-.14-.138-.09-.09-.19-.179-.29-.274-.1-.09-.21-.18-.31-.259a6.633 6.633 0 0 0-.64-.464 6.158 6.158 0 0 0-2.84-.972c-.98-.09-1.99.048-2.99.349-1.01.29-2 .75-2.96 1.314-.96.565-1.88 1.225-2.74 1.975-.87.744-1.67 1.562-2.38 2.47l-.74.956-.39-.908c-.62-.829-1.44-1.59-2.29-2.27a18.57 18.57 0 0 0-2.73-1.79c-.96-.512-1.95-.94-2.96-1.22-1.03-.28-2.06-.427-3.05-.364-1 .07-1.95.338-2.8.824-.42.243-.82.538-1.18.876-.19.159-.37.343-.54.534l-.06.063-.01.021-.01.005c.02-.031 0 0 .01-.005l-.04.037c-.05.058-.1.121-.13.148-.05.068-.12.169-.17.258-.5.745-.73 1.695-.76 2.703-.04 1.009.1 2.07.34 3.115.48 2.096 1.34 4.165 2.36 6.14.51.982 1.05 1.958 1.66 2.903.59.945 1.21 1.88 1.88 2.782.67.898 1.35 1.779 2.1 2.619.72.839 1.51 1.647 2.33 2.386.81.755 1.7 1.409 2.6 2.027.91.613 1.81 1.183 2.94 1.568v.021c-.58.174-1.22.169-1.82.069a7.403 7.403 0 0 1-1.74-.549 10.59 10.59 0 0 1-1.56-.892c-.49-.333-.97-.697-1.42-1.067a28.635 28.635 0 0 1-2.61-2.386c-.82-.839-1.6-1.716-2.33-2.634a39.962 39.962 0 0 1-2.09-2.83 36.782 36.782 0 0 1-1.82-3.025 33.183 33.183 0 0 1-1.52-3.21 22.87 22.87 0 0 1-1.12-3.426c-.27-1.182-.44-2.418-.4-3.7.02-.64.11-1.294.28-1.943.18-.65.45-1.293.84-1.88.09-.153.19-.285.31-.438.07-.09.11-.132.16-.184l.03-.043.04-.042.02-.021.08-.095c.22-.232.44-.454.69-.67a7.925 7.925 0 0 1 1.59-1.135c.57-.328 1.19-.581 1.83-.755a8.628 8.628 0 0 1 1.93-.29c1.29-.043 2.56.173 3.73.554 1.18.38 2.29.913 3.31 1.546 1.03.623 1.99 1.357 2.87 2.17.45.407.87.84 1.26 1.299.4.459.76.95 1.07 1.494l-1.12.053c.43-1.252 1.13-2.365 1.95-3.39a14.497 14.497 0 0 1 2.84-2.697c1.07-.782 2.27-1.436 3.59-1.848.67-.206 1.36-.343 2.07-.406a8.162 8.162 0 0 1 2.15.09c1.44.232 2.78.88 3.87 1.72.28.211.54.433.79.67.13.112.25.228.37.354.12.117.24.243.36.37l.17.195.15.175.07.084.1.116c.05.069.11.137.16.211.23.29.42.591.59.914.7 1.277.96 2.708.93 4.054-.02 1.357-.29 2.65-.66 3.88-.36 1.23-.86 2.402-1.42 3.532-.54 1.124-1.18 2.206-1.85 3.252a40.83 40.83 0 0 1-2.15 3.03c-.76.982-1.54 1.927-2.37 2.845-.82.919-1.65 1.816-2.54 2.677-.88.855-1.79 1.679-2.74 2.465-.94.787-1.92 1.537-2.95 2.202-.52.327-1.05.638-1.61.908-.55.258-1.13.491-1.74.565"/>
    </g>
</svg>
