<svg version="1.1" viewBox="0 0 600 615" xmlns="http://www.w3.org/2000/svg">
 <g transform="matrix(1 0 0 1 .001 .281)">
  <path d="m0 446.94v123.73c0 24.269 19.631 44.049 44.029 44.049h511.94c24.398 0 44.029-19.64 44.029-44.049v-102.41h-555.97c-17.808 0-33.653-8.417-44.029-21.323" fill="#dc3323"/>
  <path d="m141.48 534.06a15.424 15.431 0 0 1-5.3284 12.205 19.21 19.219 0 0 1-12.9 4.489h-31.129v-11.363h31.129c4.2066 0 6.4501-1.8236 6.4501-5.3307v-7.435c0-3.7876-2.1033-5.6114-6.4501-5.6114h-42.066v51.343h-11.919v-62.567h53.844c5.1881 0 9.5349 1.4028 13.04 4.6293s5.3284 7.2947 5.3284 12.205zm76.139 21.464v-29.038c0-1.4028-0.56088-2.8057-1.9631-3.928-1.4022-1.2626-2.8044-1.8236-4.487-1.8236h-35.055c-1.5424 0-3.0848 0.56113-4.487 1.8236-1.4022 1.1223-1.9631 2.3848-1.9631 3.928v29.038c0 3.7876 2.1033 5.6114 6.4501 5.6114h35.055c4.2066 0 6.4501-1.8237 6.4501-5.6114m11.919 0a15.424 15.431 0 0 1-5.4686 12.205 18.93 18.939 0 0 1-12.9 4.7697h-35.055c-5.0479 0-9.3947-1.6834-12.9-4.7697a15.424 15.431 0 0 1-5.4686-12.205v-29.179a15.424 15.431 0 0 1 5.6088-11.924c3.7859-3.3668 7.9925-5.0502 12.76-5.0502h35.055c4.7675 0 8.9741 1.6834 12.62 5.0502a15.424 15.431 0 0 1 5.6088 11.924zm71.372 16.975h-35.055c-4.9077 0-9.2545-1.6834-12.76-4.7697a15.424 15.431 0 0 1-5.4686-12.205v-46.013h11.919v46.013c0 3.7876 2.1033 5.6114 6.4501 5.6114h34.915zm85.674-51.765h-52.302c-1.6826 0-3.0848 0.56113-4.487 1.8236-1.4022 1.1223-1.9631 2.5252-1.9631 3.928v3.2266c0 3.6474 2.1033 5.6114 6.4501 5.6114h35.055c5.0479 0 9.2545 1.5431 12.76 4.6293 3.7859 3.2266 5.6088 7.2947 5.6088 12.345v3.2265a15.424 15.431 0 0 1-5.6088 12.065 18.789 18.798 0 0 1-12.76 4.9099h-52.442v-11.223h52.442a7.011 7.0142 0 0 0 4.487-1.6834c1.4022-1.1223 1.9631-2.5252 1.9631-4.2085v-3.0862c0-3.7876-2.1033-5.6114-6.4501-5.6114l-35.055-0.14029c-5.0479 0-9.3947-1.5431-12.9-4.7697a15.424 15.431 0 0 1-5.4686-12.065v-3.3668a15.424 15.431 0 0 1 5.6088-11.924c3.7859-3.3668 7.9925-5.0502 12.76-5.0502h52.302zm90.021 51.905h-12.62l-5.749-22.024h-28.885l2.8044-11.503h22.856l-3.0848-12.486c-1.1218-3.7876-3.225-5.6114-6.4501-5.6114h-14.443c-3.3653 0-5.6088 1.8236-6.5903 5.6114l-11.778 46.013h-12.62l11.778-45.873c2.9446-11.363 9.1143-16.975 18.369-16.975h15.985c9.3947 0 15.424 5.6114 18.369 16.834zm65.483-51.905h-26.221v51.625h-11.778v-51.625h-25.941v-11.223h63.94z" fill="#fff"/>
  <path d="m555.97-0.281h-511.8c-24.398 0-44.169 19.64-44.169 43.909v362.78c0 24.269 19.631 43.909 44.029 43.909h555.97v-406.55c0-24.269-19.631-43.909-44.029-43.909" fill="#a51657"/>
  <path d="m288.01 194.15c-4.2066 16.132-8.5534 32.406-13.461 48.538a55.527 55.552 0 0 1-13.461 20.621 77.121 77.156 0 0 1-14.583 11.223c-2.6642 1.4028-6.0294 3.0862-8.6936 2.1043-3.0848-1.4028-1.6826-5.4711-1.4022-8.6976 5.0479-27.636 11.218-54.991 30.147-77.156 4.2066-5.1905 9.1143-9.5392 14.162-13.467 4.2066-3.3668 5.6088-1.4028 6.8708 2.1043 1.8229 4.7697 1.6826 9.8199 0.42066 14.73m31.83-45.312c-9.1143-3.928-12.62-2.3848-18.088 7.9962-1.262 2.3848-2.1033 4.2085-3.7859 8.2768-7.011-13.607-18.088-13.888-29.867-9.5393a76.56 76.595 0 0 0-43.328 37.456 142.46 142.53 0 0 0-16.406 72.386c-13.882 12.205-30.007 24.269-44.309 35.071-7.011 5.1905-13.601 8.417-23.136 12.065-8.1327 3.3668-17.107 5.3308-25.66-0.14029-5.3284-18.237-1.9631-36.474 0.7011-54.43 7.7121-50.081 29.166-94.832 55.387-137.34 10.516-17.255 22.435-35.211 43.889-42.927 7.5719-2.6654 11.498 1.1223 13.742 7.435 4.7675 13.327 6.1697 26.654 3.9262 41.244-0.28044 2.6654-0.84132 5.8919 2.8044 7.0142 3.7859 0.98199 6.3099-1.6834 7.011-4.7697a94.368 94.411 0 0 0-2.8044-50.081c-0.28044-1.4028-1.8228-3.0862-2.8044-4.2085a47.254 47.276 0 0 0-58.612-8.6976c-12.48 7.0142-22.435 16.975-30.989 28.057-40.664 51.905-67.305 109.42-70.671 176.34-0.84132 18.377 3.5055 33.527 14.022 47.977 4.2066 5.6114 9.8154 9.5393 15.845 11.503 22.155 7.435 42.627 2.8057 60.575-10.942 14.583-11.082 27.904-23.848 41.645-35.912l3.5055-3.2265c1.9631 3.7876 4.487 7.0142 6.7305 9.399 14.863 14.45 33.512 12.065 47.955-9.5393-1.1218 6.0322-2.1033 12.205-2.3837 15.151-0.84132 9.2587-1.4022 13.327-1.4022 23.007-0.14022 7.2947 1.262 13.187 8.4132 18.237 7.1512 4.7697 13.742 7.9962 21.734 4.3488 8.4132-3.6474 6.0294-11.924 6.3099-18.798v-2.8057c0-3.6474 0-7.1545 0.42066-11.223 4.487-46.293 16.125-91.605 32.952-135.37 3.6457-9.399-1.4022-17.676-13.321-23.007m196.17-39.139c-2.524-1.8236-4.487-1.4028-6.5903 0.28057-16.125 12.626-32.671 24.549-51.18 33.668-2.8044 1.4028-3.7859 3.2265-2.2435 6.7336 5.6088 12.345 20.051 17.535 31.83 10.942 5.4686-3.0862 10.516-6.5933 15.845-9.8199a30.848 30.862 0 0 0 16.265-28.898c0.56088-5.0502 0.7011-9.5393-3.9262-12.906" fill="#fff"/>
  <path d="m481.37 198.78c0.42066 0.42085 0.84132 1.6834 0.98154 2.2445 4.487 16.834-15.144 47.697-32.251 51.203-1.6826 0.42085-3.5055 0.42085-4.7675-1.1223 8.6936-20.201 19.631-38.017 36.036-52.326m-27.904 67.757c8.4132-1.4028 23.557-6.8739 30.007-18.237a84.412 84.451 0 0 0 12.62-54.15c-2.1033-16.414-5.6088-19.64-22.155-19.92-7.011 0-13.882-1.1223-20.192 3.7876a95.349 95.393 0 0 0-23.276 26.373c-14.863 24.409-27.623 49.801-31.269 78.839a41.084 41.103 0 0 1-23.136 12.626l-7.4316 1.4028 0.56088-5.0502c0.28044-2.2445 12.199-82.768 22.716-123.45 1.1218-3.0862 2.1033-8.1364 3.225-11.363 7.011-25.252 15.424-47.697 32.251-68.598 1.6826 3.2266 1.5424 5.8919 0.7011 9.5393-1.8228 9.1185-5.6088 17.535-12.339 24.549-2.2435 2.2445-5.3284 4.91-2.2435 8.6976 2.524 3.2265 6.0294 2.5252 9.3947 1.4028 4.0664-1.1223 6.8708-3.928 8.974-7.435a68.287 68.318 0 0 0 9.6752-28.898c0.7011-8.8378 0-17.535-6.7305-25.392-6.5903-8.417-14.022-8.417-22.435-6.0322-10.236 2.8057-16.826 10.662-22.435 18.939-12.059 17.115-20.472 36.474-27.343 56.114-16.826 47.977-28.044 97.356-33.653 148l-1.4022 14.45c-4.3468 1.4028-10.937 0.70142-13.461 1.2626-4.2066 0.70142-2.2435 4.7697 0.42066 5.8919 5.3284 2.1043 12.199 1.4028 12.199 1.4028l-0.84131 9.8199c-1.1218 19.219-1.8229 37.876-0.84132 56.254 1.1218 20.341 0 21.884 8.5534 32.686 4.9077 6.5933 7.011 12.626 15.424 11.643 7.5719-1.1223 13.321-5.3307 14.022-12.626 1.1218-10.381-0.14022-18.517-0.28044-27.215v-18.658c0.7011-16.834 1.5424-34.51 4.3468-51.625 13.321-2.1043 24.258-6.3128 35.616-11.223l1.4022 1.4028c15.004 19.92 26.782 24.97 48.095 12.205 14.022-8.417 21.033-15.291 31.83-28.337 1.9631-2.3848 2.6642-7.5754-0.28044-10.381-2.8044-2.6654-5.3284-1.6834-8.4132-0.14028-5.6088 2.8057-10.516 6.453-15.424 10.381-7.011 5.4711-14.022 10.381-22.155 13.607-3.0848 1.1223-8.273 4.489-8.6936-3.0862 0.7011-8.9782 4.0664-17.255 8.4132-24.83 2.8044-5.3308 9.8154-3.6474 15.985-4.6293" fill="#fff"/>
 </g>
</svg>
