<svg xmlns="http://www.w3.org/2000/svg" version="1.0" width="230" height="236">
    <path d="M.008 171.568v47.385c0 9.299 7.558 16.842 16.883 16.842h196.224c9.322 0 16.876-7.543 16.876-16.842v-39.258h-213.1c-6.824 0-12.91-3.184-16.883-8.127" fill="#c7c9ca"/>
    <path d="M213.115.205H16.891C7.565.205.008 7.749.008 17.047v138.96c0 9.303 7.557 16.848 16.883 16.848l213.1-.01V17.047c0-9.298-7.554-16.842-16.876-16.842" fill="#b10034"/>
    <path d="M54.25 204.904c0 1.928-.683 3.483-2.038 4.667-1.36 1.179-3.025 1.77-4.973 1.77H35.324v-4.41h11.915c1.65 0 2.48-.677 2.48-2.027v-2.834c0-1.451-.83-2.183-2.48-2.183H31.114v19.733H26.58v-24.025H47.21c1.959 0 3.62.61 4.99 1.817 1.36 1.21 2.05 2.76 2.05 4.658v2.834zM87.97 213.12c0 1.91-.693 3.468-2.074 4.677-1.38 1.22-3.033 1.82-4.968 1.82H67.52c-1.936 0-3.594-.6-4.973-1.82-1.382-1.209-2.07-2.767-2.07-4.677v-11.092c0-1.79.719-3.315 2.15-4.582 1.433-1.275 3.067-1.91 4.893-1.91h13.407c1.825 0 3.448.635 4.888 1.91 1.429 1.267 2.154 2.791 2.154 4.582v11.092zm-4.532.045v-11.137c0-.575-.266-1.094-.794-1.529-.525-.45-1.092-.675-1.699-.675h-13.45c-.609 0-1.177.224-1.699.675-.522.435-.79.954-.79 1.53v11.136c0 1.445.83 2.161 2.49 2.161h13.45c1.658 0 2.492-.716 2.492-2.16M115.314 219.617H101.95c-1.934 0-3.58-.6-4.956-1.82-1.37-1.21-2.057-2.766-2.057-4.676v-17.585h4.526v17.63c0 1.445.826 2.16 2.486 2.16h13.366v4.29zM148.199 199.825H128.11c-.606 0-1.17.224-1.696.662-.517.445-.782.966-.782 1.54v1.2c0 1.442.832 2.159 2.478 2.159l13.441.042c1.931 0 3.573.582 4.926 1.738 1.41 1.248 2.114 2.814 2.114 4.72v1.245c0 1.817-.722 3.357-2.149 4.61-1.438 1.25-3.063 1.876-4.882 1.876h-20.076v-4.291h20.088c.608 0 1.174-.212 1.7-.64.522-.425.787-.946.787-1.552v-1.25c0-1.441-.832-2.158-2.491-2.158l-13.43-.037c-1.934 0-3.586-.606-4.965-1.8-1.383-1.208-2.07-2.753-2.07-4.662v-1.2c0-1.788.714-3.32 2.147-4.585 1.43-1.271 3.055-1.908 4.88-1.908h20.069v4.29zM182.68 219.681h-4.843l-2.216-8.409H164.62l1.038-4.407h8.8c-.19-.734-.798-3.338-1.199-4.795-.402-1.452-1.225-2.183-2.466-2.183h-5.556c-1.264 0-2.092.731-2.485 2.195l-4.512 17.6h-4.853l4.518-17.587c1.134-4.335 3.485-6.498 7.044-6.498h6.131c3.592 0 5.937 2.163 7.044 6.498l4.557 17.586z" fill="#fff"/>
    <g>
        <path d="M207.778 199.825h-10.056v19.792h-4.537v-19.792h-9.907v-4.291h24.5v4.29z" fill="#fff"/>
    </g>
    <g>
        <path d="M175.904 71.559v.01l.264.099c.076.028 2.52.989 5.904 1.32l.926.058c.156.002.294.006.44.006l.055-.004c2.554.002 5.16-.73 7.65-2.217l.033-.02a19.342 19.342 0 0 0 2.283-1.601c1.806-1.297 3.035-3.048 3.326-3.47l.24-.346-.036-.022.036-.072c.115-.271.237-.636.237-1.075v-.005c0-1.006-.568-1.953-1.505-2.384a2.472 2.472 0 0 0-2.566.294l-.272.24-.033.029-.039.035-.044.066-.004.005c-.017.024-.096.119-.147.194-.238.297-.525.635-.807.948-.294.32-.6.62-.897.883a16.708 16.708 0 0 1-2.346 1.707c-1.987 1.185-3.883 1.699-5.727 1.699-1.63 0-3.232-.406-4.823-1.173a2.404 2.404 0 0 0-1.054-.258c-.015-.001-.03-.004-.047-.002-.005 0-.032-.002-.073.005-1.379.046-2.489 1.21-2.489 2.65 0 1.077.63 1.99 1.515 2.4M80.184 57.291c-2.26 3.903-4.007 8.322-4.01 13.22 0 .318.01.631.02.94l.03.593.005.121c.002.12.11 1.705 1.712 2.868.842.586 2.087.866 3.378.883h.012c.796-.016 1.506-.332 2.03-.635a6.204 6.204 0 0 0 .811-.554.23.23 0 0 0 .035-.025l.027-.022c6.652-5.024 8.842-13.284 8.857-21.39a31.624 31.624 0 0 0-.333-4.589c.934-1.19 5.767-6.729 6.845-7.722 1.544-1.403 1.94-2.23 1.93-3.102l-.003-.01.003-.02v-.03c0-.593-.179-1.193-.54-1.705a2.78 2.78 0 0 0-2.262-1.184c-.575 0-1.165.183-1.665.565-2.037 1.553-3.535 3.41-4.89 5.037-.504.61-.989 1.191-1.466 1.728a11.702 11.702 0 0 0-3.856-3.37c-2.497-1.354-5.234-1.796-7.759-1.796-1.438 0-2.826.15-4.098.381-10.415 1.962-20.392 9.177-28.533 18.418-8.132 9.28-14.449 20.668-17.148 31.54-1.035 4.183-1.555 8.268-1.56 12.151 0 .01 0 .023-.002.041l.001.002v.025c0 7.713 2.073 14.72 6.45 19.857 4.355 5.138 10.945 8.14 19.09 8.146h.1c1.68 0 3.426-.122 5.238-.37 5.338-.735 11.147-3.164 16.683-6.698 5.535-3.544 10.791-8.206 14.831-13.59.337-.452.524-.979.57-1.512l.01-.016v-.251c0-.867-.387-1.714-1.087-2.273l-.246.325.244-.327a2.746 2.746 0 0 0-1.71-.604 2.76 2.76 0 0 0-2.224 1.132c-3.547 4.731-8.338 9.008-13.34 12.204-4.996 3.204-10.237 5.315-14.465 5.88a33.232 33.232 0 0 1-4.504.317c-6.93-.029-11.693-2.366-14.98-6.18-3.257-3.813-5.053-9.37-5.053-16.066 0-3.36.455-6.989 1.388-10.762 2.385-9.71 8.3-20.484 15.87-29.092 7.557-8.634 16.79-15.049 25.366-16.605.97-.182 2.044-.294 3.11-.294h.039c1.861 0 3.722.365 5.088 1.124 1.327.758 2.236 1.682 2.89 3.432a6.6 6.6 0 0 0 0 .2c-2.305 2.876-4.85 6.086-6.929 9.664m7.628-1.982c-.414 5.763-2.667 11.504-6.427 14.847.077-3.418 1.344-6.797 3.273-10.112.931-1.61 2.012-3.192 3.154-4.735M200.501 105.66l.025-.026-.339-.289a2.744 2.744 0 0 0-1.784-.663c-.8 0-1.61.357-2.167 1.053-2.846 3.563-5.823 6.864-9.035 9.437-3.213 2.58-6.632 4.428-10.487 5.242-1.063.221-2.028.34-2.886.36H173.49c-2.909-.05-4.433-.922-5.626-2.339-1.1-1.349-1.802-3.498-1.847-6.19l.025-.048-.027-.33c.002-.992.101-2.12.305-3.285.41-2.476 1.496-5.628 3.07-8.866 1.187-2.819 3.031-5.345 3.031-5.345a43.927 43.927 0 0 1 1.553-2.248c3.974-5.46 9.12-9.636 13.55-10.26.297-.047.564-.068.807-.068 1.103.03 1.591.301 2.066.79.414.465.782 1.24.795 2.663 0 1.148-.287 2.684-1.036 4.485-.776 1.925-2.569 4.271-4.676 5.947-1.98 1.61-4.265 2.61-6.025 2.698-.083.004-.173.017-.255.017h-.018v-.003H179.154a.378.378 0 0 0-.058.006.816.816 0 0 0-.078.005c-1.34-.07-2.323-.39-3.443-1.609-.008-.008-.033 0-.057.008-1.189-.84-2.858-.614-3.817.565-.863 1.062-.857 2.542-.064 3.55.124.156.261.302.42.433.018.013.036.021.053.034 1.975 1.84 4.397 2.768 6.797 2.794l.007.001h.176c.152 0 .3-.022.45-.027 3.478-.152 6.694-1.77 9.377-3.907 2.807-2.266 5.112-5.162 6.4-8.245.98-2.387 1.477-4.65 1.48-6.752v-.024c.001-2.526-.755-4.876-2.312-6.597-1.553-1.727-3.783-2.61-6.114-2.61-.014-.003-.026-.003-.038-.003-.028 0-.059 0-.099.005h-.04a9.92 9.92 0 0 0-1.512.128c-6.864 1.14-12.675 6.417-17.176 12.477-4.499 6.126-7.703 13.186-8.709 18.95a25.969 25.969 0 0 0-.39 4.392c0 3.763.913 7.387 3.143 10.167 2.217 2.788 5.694 4.413 9.83 4.42h.138c1.362 0 2.801-.158 4.32-.476 4.876-1.025 9.103-3.366 12.81-6.34 3.712-2.985 6.931-6.598 9.918-10.322a2.95 2.95 0 0 0 .638-1.84v-.006c0-.685-.24-1.37-.704-1.909M133.17 95.985c1.03-.063 1.97-.717 2.402-1.743.794-1.926 1.2-3.797 1.202-5.583a14.86 14.86 0 0 0-.022-.72c-.001-.033-.004-.052-.007-.096-.221-3.493-2.174-6.336-4.782-7.98-2.278-1.457-5.02-2.14-7.87-2.14-.397 0-.796.011-1.197.04-1.28.085-2.58.312-3.87.68-6.551 1.92-12.975 7.38-17.92 13.97-4.622 6.26-7.993 13.6-8 20.595 0 .408.012.82.04 1.23a16.87 16.87 0 0 0 .66 3.832c.912 3.085 2.475 5.54 4.625 7.13 1.896 1.403 4.13 2.031 6.38 2.036H104.855c.28 0 .565-.01.849-.029h.026c3.747-.277 7.545-2.007 11.132-4.702.315 1.493.816 2.997 1.619 4.386.71 1.21 1.692 2.345 3.01 3.14 1.167.707 2.553 1.083 4.026 1.083.19 0 .387-.006.585-.017l.033-.004c.145-.01.293-.024.438-.039l.72-.079.162-.018.182-.019.043-.066c.7-.192 2.776-.865 2.893-3.106.006-.049.009-.142.009-.243 0-.055 0-.117-.005-.188 0-.002.002-.007 0-.02v-.007l-.004-.053c-.147-1.435-1.254-2.514-2.593-2.614v-.024l-.304.02c-.031 0-.064.002-.1.004l-.021.002c-.014.001-.033.002-.05.006l-.331.03v.015a5.648 5.648 0 0 0-1.26.338c-.127.06-.608.247-.99.245-.233-.004-.384-.057-.488-.15-.591-.539-1.203-1.137-1.622-2.224-.34-.82-.818-3.897-.827-5.04l.008-.017-.008-.097c0-.043.002-.083.004-.114 1.878-3.182 5.188-8.808 6.87-12.275 1.5-3.11 2.266-6.458 2.585-9.85a2.738 2.738 0 0 0 1.726.475m-11.298 14.316c.314-2.199 3.288-11.779 3.288-11.779.2-.579 1.283-3.382 1.508-2.893.97 3.197-3.715 12.98-4.796 14.672m8.995-19.64a3.461 3.461 0 0 0-.622-.69 3.08 3.08 0 0 0-.498-.34c-.136-.06-.157-.087-.264-.112a5.942 5.942 0 0 0-1.865-.312c-.095 0-.195.001-.304.01h.016a.864.864 0 0 0-.162.012c-1.318.102-2.458.744-3.264 1.522-1.188 1.15-1.824 2.52-2.301 3.685-.476 1.194-.81 2.332-1.037 2.943-1.677 4.632-2.593 8.708-3.906 17.78-3.914 3.86-8.237 6.096-11.23 6.276a.749.749 0 0 0-.095.008c-.161.007-.327.013-.492.013-1.29-.006-2.27-.322-3.142-.958-.965-.717-1.873-1.927-2.532-4.124a11.416 11.416 0 0 1-.432-2.51c-.003-.06-.007-.087-.007-.093-.02-.27-.028-.552-.031-.838v-.015c-.006-4.969 2.72-11.498 6.852-16.979 4.335-5.887 10.276-10.634 14.969-11.926a13.294 13.294 0 0 1 2.647-.48l.014.001.046.004.135-.02c.199-.01.465-.02.728-.02 1.959-.003 3.726.495 4.907 1.268 1.39.961 2.005 1.893 2.16 3.558.004.093.01.212.01.337 0 .571-.087 1.235-.3 2" fill="#fff"/>
        <path d="M156.979 109.702l-.388-.281a27.612 27.612 0 0 1-4.423-4.048 34.407 34.407 0 0 1-.907-1.078c1.496-1.511 4.488-5.15 5.469-6.582.216-.324.428-.65.646-.982 6.139-9.583 11.566-23.546 12.874-34.008.184-1.56.36-3.253.36-4.993 0-.968-.025-1.985-.198-3.013-1.212-7.444-5.242-8.267-6.11-8.241-.017 0-.037-.001-.071.002a.976.976 0 0 0-.104.005c-2.597.082-4.148 2.82-5.098 4.224-2.31 3.662-2.937 7.948-3.855 10.719-3.692 11.657-7.497 25.109-10.043 38.159-.691-.332-1.127-.554-1.434-.693-1.452-.66-3.21-1.328-5.265-1.335l-.037-.002c-1.634-.002-2.764.82-3.183 1.107-.531.364-1.022.886-1.531 1.514-.285.369-.44.798-.54 1.139-.05.17-.085.323-.108.433-.01.04-.016.076-.022.105l-.002.005s-.04.496-.04.662c-.002.03-.004.056-.002.065-.002 1.072.193 2.103.617 3.04a6.23 6.23 0 0 0 2.167 2.58c1.626 1.084 3.418 1.364 5.063 1.364.34 0 .674-.015 1-.032.29-.018.569-.047.842-.083-1.881 11.98-5.258 24.336-5.263 37.344 0 2.455.125 4.935.399 7.439.169 1.474 1.377 2.56 2.788 2.56.089 0 .197-.005.316-.018 1.433-.174 2.485-1.424 2.485-2.873 0-.096-.004-.216-.022-.35a59.936 59.936 0 0 1-.364-6.732c0-.023 0-.047-.002-.071.002-12.201 3.363-24.5 5.317-37.17a32.936 32.936 0 0 0 5.05 4.562 2.729 2.729 0 0 0 1.615.528c.877 0 1.744-.43 2.29-1.218.297-.437.462-.93.5-1.423l.013-.02V111.772c0-.751-.29-1.493-.827-2.041l.028-.028zm-15.098-5.246l-.003-.01-.395.118c-.015.006-.031.008-.044.013l-.187.047a5.194 5.194 0 0 1-.458.074l-.056.006c-1.13.147-2.201-.298-2.52-.678a2.875 2.875 0 0 1-.378-.5c-.02-.034-.042-.07-.06-.105a1.934 1.934 0 0 1-.11-.26 2.74 2.74 0 0 1-.144-.77c.022-1.034 2.509.364 4.004 1.366.259.17.525.353.794.544-.148.058-.295.11-.443.155m18.389-40.484h.005l.21-.682.02-.062.112-.36.114-.374-.007-.003c.92-3.187 1.646-6.595 2.969-8.572.145-.241.293-.432.41-.555l.067-.067c.222.3.58 1.385.696 2.297.095.644.136 1.36.136 2.113 0 1.352-.138 2.825-.316 4.288-1.074 9.12-6.068 22.249-11.057 31.285-.588 1.066-2.29 3.283-2.377 3.41 2.342-10.574 6.01-23.17 9.018-32.718" fill="#fff"/>
    </g>
</svg>
