<?xml version="1.0" encoding="UTF-8" standalone="no"?>
<svg
   inkscape:version="1.3.1 (91b66b0783, 2023-11-16)"
   height="474.46487"
   width="647.89062"
   sodipodi:docname="polsatnewspolityka.default.svg"
   version="1.1"
   viewBox="0 0 647.8906 474.46484"
   data-name="Шар 1"
   id="Шар_1"
   xmlns:inkscape="http://www.inkscape.org/namespaces/inkscape"
   xmlns:sodipodi="http://sodipodi.sourceforge.net/DTD/sodipodi-0.dtd"
   xmlns="http://www.w3.org/2000/svg"
   xmlns:svg="http://www.w3.org/2000/svg"
   xmlns:rdf="http://www.w3.org/1999/02/22-rdf-syntax-ns#"
   xmlns:cc="http://creativecommons.org/ns#"
   xmlns:dc="http://purl.org/dc/elements/1.1/">
  <metadata
     id="metadata41">
    <rdf:RDF>
      <cc:Work
         rdf:about="">
        <dc:format>image/svg+xml</dc:format>
        <dc:type
           rdf:resource="http://purl.org/dc/dcmitype/StillImage" />
        <dc:title />
      </cc:Work>
    </rdf:RDF>
  </metadata>
  <sodipodi:namedview
     inkscape:current-layer="Шар_1"
     inkscape:window-maximized="1"
     inkscape:window-y="-8"
     inkscape:window-x="-8"
     inkscape:cy="212.83914"
     inkscape:cx="330.21887"
     inkscape:zoom="0.70710678"
     showguides="true"
     showgrid="false"
     id="namedview39"
     inkscape:window-height="1017"
     inkscape:window-width="1920"
     inkscape:pageshadow="2"
     inkscape:pageopacity="0"
     guidetolerance="10"
     gridtolerance="10"
     objecttolerance="10"
     borderopacity="1"
     bordercolor="#666666"
     pagecolor="#ffffff"
     inkscape:showpageshadow="2"
     inkscape:pagecheckerboard="0"
     inkscape:deskcolor="#d1d1d1" />
  <defs
     id="defs4">
    <style
       id="style2">.cls-1{fill:#00b0d1;}.cls-2{fill:#0087ab;}.cls-3{fill:#00c9f2;}.cls-4{fill:#005e8c;}</style>
    <style
       id="style483">.cls-1{opacity:0.49;}.cls-2{fill:#fff;}</style>
  </defs>
  <g
     id="g3"
     inkscape:label="Polsat News Polityka">
    <g
       inkscape:export-ydpi="356.6528"
       inkscape:export-xdpi="356.6528"
       transform="translate(-4.01367)"
       id="g67"
       inkscape:label="Text under logo">
      <path
         transform="translate(154)"
         d="m 143.39258,370.03711 c -6.23505,0 -9.6582,3.05704 -9.6582,8.55859 0,5.62374 3.30095,8.55664 9.6582,8.55664 6.23505,0 9.6582,-2.93289 9.6582,-8.55664 0,-5.50155 -3.42315,-8.55859 -9.6582,-8.55859 z m 131.98633,0.58008 v 80.66992 h 16.48242 v -16.15625 l 5.78711,-6.11328 13.86328,22.26953 h 19.32031 l -22.37695,-34.11328 21.9414,-24.34375 h -20.68554 l -17.84961,20.6875 v -42.90039 z m -178.214848,0.98242 v 61.89453 c 10e-7,11.828 6.135458,19.16797 17.314458,19.16797 a 28.10579,28.10579 0 0 0 12.37695,-2.63086 l -1.42578,-14.24023 a 16.68161,16.68161 0 0 1 -6.68555,1.5332 c -3.61,0 -5.36328,-2.18947 -5.36328,-6.35547 v -59.36914 z m 88.466798,7.42578 -16.24805,2.41992 v 12.05274 h -8.71679 v 14.79687 h 8.71679 v 25.28906 c 0,12.483 7.37077,19.10157 18.88477,19.10157 6.887,0 10.70808,-1.13072 14.20508,-2.63672 l -1.50782,-14.36719 a 20.9879,20.9879 0 0 1 -8.01757,1.66797 c -5.595,0 -7.31641,-1.88205 -7.31641,-8.12305 v -20.92968 h 13.66797 V 393.49805 H 185.63086 Z M 57.277344,391.97461 c -17.963,0 -29.90625,12.0498 -29.90625,30.3418 0,18.292 11.94325,30.34179 29.90625,30.34179 17.963,0 29.90625,-12.04979 29.90625,-30.34179 0,-18.292 -11.94325,-30.3418 -29.90625,-30.3418 z m -62.9980471,0.0176 c -12.5899999,0 -18.7247339,6.13434 -20.1777349,18.40234 l -1.236328,-0.10742 1.667969,-16.78711 h -16.519531 v 78.87891 h 17.05664 v -18.29297 l -1.398437,-13.13086 1.183594,-0.10742 c 1.991,6.78 7.802187,11.83789 18.6171872,11.83789 15.3880001,0 25.1269528,-12.15971 25.1269528,-30.34571 -0.001,-18.294 -9.7393121,-30.34765 -24.3203121,-30.34765 z m 363.2910131,0.14648 c -15.658,0 -25.5039,12.15971 -25.5039,30.34571 0,18.29399 9.73931,30.29296 24.32031,30.29296 12.591,0 18.72505,-6.67236 20.12305,-19.69336 l 1.29101,0.10743 -1.9375,18.07812 h 16.73438 v -57.625 h -16.51954 l 0.86133,8.87695 -1.18359,0.10938 c -2.636,-6.241 -7.20955,-10.49219 -18.18555,-10.49219 z m -152.17187,0.66602 23.81445,59.14062 c -2.54184,6.25899 -5.56448,6.76367 -8.82617,6.76367 a 28.458559,28.45842 0 0 1 -9.06445,-1.56054 l -1.5586,14.72461 a 40.673412,40.673213 0 0 0 14.07813,2.59179 c 8.70602,0 14.96514,-4.15067 20.09765,-17.55664 l 24.48438,-64.10351 h -16.98047 l -13.76563,39.52343 -14.29296,-39.52343 z m -70.32032,0.21679 v 59.41602 h 16.62696 V 393.0215 Z m -146.072261,13.28321 c 9.0930004,0 13.8828129,5.59715 13.8828129,16.03515 0,10.385 -4.7898125,15.97852 -13.8828129,15.97852 -9.201,0 -14.15039,-5.59452 -14.15039,-15.97852 0,-10.438 4.94939,-16.03515 14.15039,-16.03515 z m 68.271485,0.13086 c 9.311,0 14.240234,5.58586 14.240234,15.88086 0,10.408 -4.929234,15.88867 -14.240234,15.88867 -9.311,0 -14.240235,-5.47967 -14.240235,-15.88867 0,-10.295 4.929235,-15.88086 14.240235,-15.88086 z m 304.328126,0.0137 c 9.201,0 14.15039,5.59716 14.15039,16.03516 0,10.38499 -4.9494,15.98046 -14.15039,15.98046 -9.093,0 -13.88281,-5.59646 -13.88281,-15.98046 0,-10.438 4.78981,-16.03516 13.88281,-16.03516 z"
         style="fill:#00c9f2;fill-opacity:1"
         id="path6-3"
         inkscape:label="polityka" />
      <g
         id="g1"
         inkscape:label="polsat news">
        <path
           d="m 103.38477,288.99218 c -15.658004,0 -25.503911,12.16165 -25.503911,30.34765 0,18.294 9.739313,30.29297 24.320311,30.29297 12.591,0 18.72505,-6.67236 20.12305,-19.69336 l 1.29101,0.10743 -1.9375,18.07812 h 16.73438 v -57.62695 h -16.51953 l 0.86133,8.8789 -1.1836,0.10743 c -2.636,-6.241 -7.20954,-10.49219 -18.18554,-10.49219 z m 4.03515,14.3125 c 9.201,0 14.15039,5.59715 14.15039,16.03515 0,10.385 -4.9494,15.97852 -14.15039,15.97852 -9.092998,0 -13.882811,-5.59452 -13.882811,-15.97852 0,-10.438 4.789813,-16.03515 13.882811,-16.03515 z"
           transform="translate(154)"
           style="display:inline;fill:#00b0d1;fill-opacity:1"
           id="path247"
           inkscape:label="a" />
        <path
           transform="translate(154)"
           id="path249"
           d="m 351.89453,290.55077 18.66992,57.57031 h 15.76563 l 11.89062,-36.74804 12.10742,36.74804 h 15.60352 l 18.29297,-57.57031 h -15.76367 l -10.54688,36.04883 -11.62109,-36.04883 h -15.44336 l -11.73047,35.88867 -10.54492,-35.88867 z"
           style="display:inline;fill:#00b0d1;fill-opacity:1"
           inkscape:label="w" />
        <path
           d="m -113.7207,288.99218 c -12.59,0 -18.72474,6.13434 -20.17774,18.40234 l -1.23633,-0.10742 1.66797,-16.78711 h -16.51953 v 78.87891 h 17.05664 v -18.29297 l -1.39843,-13.13086 1.18359,-0.10742 c 1.991,6.78 7.80219,11.83789 18.61719,11.83789 15.387996,0 25.126949,-12.15971 25.126949,-30.34571 -0.001,-18.294 -9.739312,-30.34765 -24.320309,-30.34765 z m -5.27344,14.3125 c 9.093,0 13.88086,5.59715 13.88086,16.03515 0,10.385 -4.78786,15.97852 -13.88086,15.97852 -9.201,0 -14.15039,-5.59452 -14.15039,-15.97852 0,-10.438 4.94939,-16.03515 14.15039,-16.03515 z"
           transform="translate(154)"
           style="display:inline;fill:#00b0d1;fill-opacity:1"
           id="path245"
           inkscape:label="p" />
        <path
           id="path233"
           transform="translate(154)"
           d="m 172.63086,276.02539 -16.25,2.41992 v 12.05274 h -8.71484 v 14.79687 h 8.71484 v 25.28906 c 0,12.483 7.37272,19.10157 18.88672,19.10157 6.887,0 10.70808,-1.13072 14.20508,-2.63672 l -1.50782,-14.36719 a 20.9879,20.9879 0 0 1 -8.01757,1.66797 c -5.595,0 -7.31641,-1.88205 -7.31641,-8.12305 v -20.92968 h 13.66602 v -14.79883 h -13.66602 z"
           style="display:inline;fill:#00b0d1;fill-opacity:1"
           inkscape:label="t" />
        <path
           id="path243"
           transform="translate(154)"
           d="m 46.964844,288.97458 c -15.231,0 -24.320313,6.67761 -24.320313,17.84961 0,9.317 4.274531,14.46133 14.019531,16.98633 l 12.820313,3.2832 c 5.037,1.313 6.462891,2.41169 6.462891,4.92969 -0.107,3.288 -2.409891,4.3789 -9.087891,4.3789 -8.547,0 -15.231734,-1.19778 -21.802734,-4.05078 l -1.533203,14.56836 c 5.915,1.975 12.484937,2.73828 23.335937,2.73828 15.117,0 24.205078,-6.46409 24.205078,-18.62109 0,-9.089 -4.380187,-15.44489 -15.117187,-17.96289 l -12.820313,-2.96094 c -4.052,-0.877 -5.365234,-1.86036 -5.365234,-3.94336 0,-2.953 2.519297,-4.16015 8.654297,-4.16015 a 51.62928,51.62928 0 0 1 20.490234,4.60156 l 1.419922,-14.13281 a 64.35817,64.35817 0 0 0 -21.361328,-3.50391 z"
           style="display:inline;fill:#00b0d1;fill-opacity:1"
           inkscape:label="s" />
        <path
           d="m -52.722656,288.97458 c -17.963,0 -29.90625,12.0498 -29.90625,30.3418 0,18.292 11.94325,30.34179 29.90625,30.34179 17.963,0 29.90625,-12.04979 29.90625,-30.34179 0,-18.292 -11.94325,-30.3418 -29.90625,-30.3418 z m 0,14.46096 c 9.311,0 14.238281,5.58586 14.238281,15.88086 0,10.408 -4.927281,15.88867 -14.238281,15.88867 -9.311,0 -14.240235,-5.47967 -14.240235,-15.88867 0,-10.295 4.929235,-15.88086 14.240235,-15.88086 z"
           transform="translate(154)"
           style="display:inline;fill:#00b0d1;fill-opacity:1"
           id="path241"
           inkscape:label="o" />
        <path
           transform="translate(154)"
           d="m 321.87109,288.93748 c -16.68,0 -28.41015,12.4827 -28.41015,30.3457 0,18.455 10.86908,30.40039 30.83008,30.40039 9.631,0 17.05673,-3.17517 24.42773,-9.20117 l -5.91797,-12.1074 c -6.886,4.94899 -12.37455,6.83398 -18.18555,6.83398 -9.9,0 -14.36609,-3.76567 -15.49609,-11.51367 h 39.49219 a 45.635999,45.636 0 0 0 0.32422,-5.48828 c 0,-17.54 -10.86846,-29.26953 -27.06446,-29.26953 z m 0,13.9336 c 6.349,0 10.65279,3.33757 11.67579,10.60157 h -24.2129 c 1.346,-6.94199 5.65011,-10.60157 12.53711,-10.60157 z"
           style="display:inline;fill:#00b0d1;fill-opacity:1"
           id="path239"
           inkscape:label="e" />
        <path
           transform="translate(154)"
           id="path237"
           d="m 473.80664,288.92578 c -15.231,0 -24.32031,6.67956 -24.32031,17.85156 0,9.317 4.27258,14.46133 14.01758,16.98633 l 12.82031,3.28125 c 5.037,1.313 6.46289,2.41169 6.46289,4.92969 -0.114,3.288 -2.40989,4.38086 -9.08789,4.38086 -8.547,0 -15.23174,-1.19974 -21.80274,-4.05274 l -1.5332,14.56836 c 5.915,1.975 12.48494,2.73829 23.33594,2.73829 15.11,-10e-6 24.20508,-6.46215 24.20508,-18.61915 0,-9.089 -4.38019,-15.44684 -15.11719,-17.96484 l -12.81836,-2.96094 c -4.052,-0.877 -5.36523,-1.86231 -5.36523,-3.94531 0,-2.953 2.51929,-4.1582 8.65429,-4.1582 a 51.57785,51.57785 0 0 1 20.48242,4.60156 l 1.42774,-14.13281 a 64.317609,64.31761 0 0 0 -21.36133,-3.50391 z"
           style="display:inline;fill:#00b0d1;fill-opacity:1"
           inkscape:label="s" />
        <path
           id="path6"
           transform="translate(154)"
           d="m -13.835938,268.59961 v 61.89453 c 0,11.828 6.1335005,19.16797 17.3125005,19.16797 a 28.10579,28.10579 0 0 0 12.3769535,-2.63086 l -1.425782,-14.24023 a 16.68161,16.68161 0 0 1 -6.6835934,1.5332 c -3.61,0 -5.3652344,-2.18947 -5.3652344,-6.35547 v -59.36914 z"
           style="display:inline;fill:#00b0d1;fill-opacity:1"
           inkscape:label="l" />
        <path
           transform="translate(154)"
           id="path235"
           d="m 262.32031,288.48242 c -12.283,0 -18.31228,6.25633 -19.73828,18.86133 l -1.20508,-0.10742 1.64649,-16.7793 H 228 v 57.67578 h 16.22852 v -33.11328 c 0,-8.332 3.94387,-12.0625 13.04687,-12.0625 6.356,0 9.75977,3.731 9.75977,10.75 v 34.42578 h 16.22851 v -36.40234 c 0,-14.802 -7.67436,-23.24805 -20.94336,-23.24805 z"
           style="display:inline;fill:#00b0d1;fill-opacity:1"
           inkscape:label="n" />
      </g>
    </g>
    <g
       id="g2"
       inkscape:label="Logo">
      <path
         inkscape:export-ydpi="356.6528"
         inkscape:export-xdpi="356.6528"
         style="fill:#0087ab;fill-opacity:1;stroke-width:1"
         id="path26"
         d="m 247.87782,160.54302 c 26.18901,3.731 56.986,-20.301 81.808,-38.962 23.28901,-17.515 51.97601,-39.029001 73.47601,-38.788001 14.052,0.161 26.37,8.225 30.228,19.136001 -0.375,-4.165999 -2.364,-16.557 -3.791,-22.485002 -2.726,-8.111001 -10.161,-26.109 -34.976,-26.001002 -25.606,0.107001 -54.226,22.277003 -77.053,39.049004 -28.33901,20.824 -53.73701,42.632 -80.696,37.656 -14.468,-2.679 -20.724,-9.364 -22.80001,-15.318 a 209.34079,209.34079 0 0 0 3.724,22.25 c 3.47001,7.783 10.85701,20.72301 30.08,23.463 z"
         class="cls-2" />
      <path
         inkscape:export-ydpi="356.6528"
         inkscape:export-xdpi="356.6528"
         style="opacity:1;stroke-width:1"
         id="path28"
         d="m 359.36884,5.9150175 c -51.166,-16.9520005 -102.578,3.7380003 -130.409,46.6649985 0,0 5.74699,12.358002 29.397,-7.360998 36.85199,-30.730001 56.055,-44.71600056 101.012,-39.3040005 z"
         class="cls-1" />
      <path
         inkscape:export-ydpi="356.6528"
         inkscape:export-xdpi="356.6528"
         style="stroke-width:1"
         id="path30"
         d="m 301.23984,39.854018 c -11.333,8.298999 -27.79,20.870999 -39.458,28.667003 -13.791,9.222999 -33.067,22.223996 -42.411,5.056998 -1.36001,4.239998 -3.90501,13.081001 -3.99201,16.993002 0.46201,5.579 5.91401,17.514999 21.956,17.789999 20.62901,0.355 39.739,-17.455003 68.94101,-39.123002 30.683,-22.773 52.049,-37.723 77.046,-34.802 19.806,2.311 29.303,11.648 36.544,20.991001 -6.276,-12.036001 -18.949,-26.651002 -35.332,-37.167002 -18.144,-11.6609995 -46.71,-5.198 -83.294,21.594001 z"
         class="cls-3" />
      <path
         inkscape:export-ydpi="356.6528"
         inkscape:export-xdpi="356.6528"
         style="stroke-width:1"
         id="path32"
         d="m 287.83083,208.96202 c 51.165,16.952 102.578,-3.73699 130.408,-46.664 0,0 -5.747,-12.358 -29.397,7.361 -36.852,30.73 -56.055,44.715 -101.011,39.303 z"
         class="cls-4" />
      <path
         inkscape:export-ydpi="356.6528"
         inkscape:export-xdpi="356.6528"
         style="stroke-width:1"
         id="path34"
         d="m 345.95884,175.02303 c 11.333,-8.29901 27.79,-20.87101 39.457,-28.66701 13.791,-9.223 33.067,-22.224 42.411,-5.057 1.36,-4.24 3.905,-13.081 3.992,-16.993 -0.462,-5.579 -5.914,-17.515 -21.956,-17.79 -20.629,-0.355 -39.739,17.455 -68.941,39.123 -30.683,22.773 -52.049,37.72301 -77.04601,34.80201 -19.806,-2.311 -29.30299,-11.64801 -36.544,-20.99101 6.27601,12.036 18.955,26.65101 35.325,37.167 18.151,11.66101 46.71801,5.19701 83.30201,-21.59399 z"
         class="cls-4" />
    </g>
  </g>
</svg>
