<?xml version="1.0" encoding="UTF-8" standalone="no"?>
<!-- Created with Inkscape (http://www.inkscape.org/) -->

<svg
   xmlns:dc="http://purl.org/dc/elements/1.1/"
   xmlns:cc="http://creativecommons.org/ns#"
   xmlns:rdf="http://www.w3.org/1999/02/22-rdf-syntax-ns#"
   xmlns:svg="http://www.w3.org/2000/svg"
   xmlns="http://www.w3.org/2000/svg"
   xmlns:sodipodi="http://sodipodi.sourceforge.net/DTD/sodipodi-0.dtd"
   xmlns:inkscape="http://www.inkscape.org/namespaces/inkscape"
   width="600.40247mm"
   height="615mm"
   viewBox="0 0 600.40247 615"
   version="1.1"
   id="svg2427"
   inkscape:version="0.92.5 (2060ec1f9f, 2020-04-08)"
   sodipodi:docname="polsatdoku.default.svg">
  <defs
     id="defs2421" />
  <sodipodi:namedview
     id="base"
     pagecolor="#ffffff"
     bordercolor="#666666"
     borderopacity="1.0"
     inkscape:pageopacity="0.0"
     inkscape:pageshadow="2"
     inkscape:zoom="0.10489211"
     inkscape:cx="176.57506"
     inkscape:cy="1046.6116"
     inkscape:document-units="mm"
     inkscape:current-layer="layer1"
     showgrid="false"
     fit-margin-top="0"
     fit-margin-left="0"
     fit-margin-right="0"
     fit-margin-bottom="0"
     inkscape:window-width="1920"
     inkscape:window-height="1017"
     inkscape:window-x="-8"
     inkscape:window-y="-8"
     inkscape:window-maximized="1" />
  <metadata
     id="metadata2424">
    <rdf:RDF>
      <cc:Work
         rdf:about="">
        <dc:format>image/svg+xml</dc:format>
        <dc:type
           rdf:resource="http://purl.org/dc/dcmitype/StillImage" />
        <dc:title></dc:title>
      </cc:Work>
    </rdf:RDF>
  </metadata>
  <g
     inkscape:label="Layer 1"
     inkscape:groupmode="layer"
     id="layer1"
     transform="translate(-11.759823,372.86533)">
    <g
       id="g3100">
      <path
         id="path2345"
         d="M 11.793858,74.478223 V 198.17936 c 0,24.2607 19.732809,43.95531 44.068767,43.95531 H 568.10106 c 24.33444,0 44.0612,-19.69612 44.0612,-43.95531 V 95.686293 H 55.866407 c -17.8113,0 -33.700713,-8.308133 -44.068767,-21.209583"
         inkscape:connector-curvature="0"
         style="fill:#dc3323;fill-opacity:1;stroke-width:0.99999374" />
      <g
         transform="matrix(3.7817529,0,0,3.7817529,-97.597126,-437.72239)"
         id="g2359"
         style="fill:#ffffff;stroke-width:0.26442599">
        <path
           id="path2347"
           d="m 66.368,158.44 c 0,1.3351 -0.47404,2.4064 -1.4068,3.225 -0.93903,0.81164 -2.0883,1.2223 -3.4352,1.2223 h -8.2236 v -3.0426 h 8.2236 c 1.1395,0 1.7138,-0.46988 1.7138,-1.4047 v -1.9525 c 0,-1.0045 -0.57428,-1.5091 -1.7138,-1.5091 H 50.395 v 13.623 h -3.1282 v -16.58 h 14.24 c 1.3525,0 2.499,0.41835 3.4443,1.2495 0.93903,0.8374 1.4165,1.9094 1.4165,3.2166 z"
           inkscape:connector-curvature="0"
           style="stroke-width:0.26442599" />
        <path
           id="path2349"
           d="m 89.641,164.12 c 0,1.3198 -0.47613,2.3946 -1.4291,3.2292 -0.95434,0.84227 -2.0931,1.2571 -3.4303,1.2571 h -9.2545 c -1.3372,0 -2.4795,-0.41486 -3.4331,-1.2571 -0.95295,-0.83461 -1.4277,-1.9094 -1.4277,-3.2292 v -7.6535 c 0,-1.237 0.49492,-2.2894 1.4848,-3.1672 0.98706,-0.87638 2.1147,-1.3184 3.376,-1.3184 h 9.2545 c 1.2599,0 2.3806,0.44201 3.3726,1.3184 0.98775,0.87777 1.4869,1.9303 1.4869,3.1672 z m -3.1268,0.0306 v -7.6842 c 0,-0.40026 -0.18238,-0.75734 -0.54643,-1.0553 -0.36336,-0.31395 -0.75526,-0.46569 -1.1743,-0.46569 h -9.2838 c -0.41905,0 -0.81095,0.15174 -1.1743,0.46569 -0.35849,0.29793 -0.54225,0.65501 -0.54225,1.0553 v 7.6842 c 0,0.99821 0.57219,1.491 1.7166,1.491 h 9.2838 c 1.1444,0 1.7207,-0.49282 1.7207,-1.491"
           inkscape:connector-curvature="0"
           style="stroke-width:0.26442599" />
        <path
           id="path2351"
           d="m 108.52,168.6 h -9.2253 c -1.333,0 -2.4725,-0.41557 -3.4192,-1.2572 -0.94669,-0.83461 -1.4221,-1.9094 -1.4221,-3.2292 v -12.141 h 3.1254 v 12.172 c 0,0.99681 0.57149,1.4903 1.7159,1.4903 h 9.2253 z"
           inkscape:connector-curvature="0"
           style="stroke-width:0.26442599" />
        <path
           id="path2353"
           d="m 131.21,154.94 h -13.863 c -0.41975,0 -0.80677,0.15174 -1.1729,0.45454 -0.3557,0.3063 -0.53878,0.66686 -0.53878,1.0671 v 0.82209 c 0,0.99749 0.5708,1.4952 1.7117,1.4952 l 9.2754,0.0264 c 1.3358,0 2.4683,0.40375 3.4004,1.1994 0.97313,0.85758 1.4597,1.9442 1.4597,3.2598 v 0.85758 c 0,1.2537 -0.49772,2.3173 -1.4834,3.1825 -0.99402,0.86107 -2.1154,1.2961 -3.3691,1.2961 h -13.86 v -2.9646 h 13.868 c 0.42044,0 0.81164,-0.1476 1.1736,-0.43854 0.36058,-0.29444 0.54225,-0.65571 0.54225,-1.0755 v -0.86105 c 0,-0.99403 -0.57497,-1.491 -1.7159,-1.491 l -9.2712,-0.0231 c -1.3393,0 -2.476,-0.41904 -3.4269,-1.2418 -0.95504,-0.83461 -1.4291,-1.9017 -1.4291,-3.2215 v -0.82209 c 0,-1.2383 0.49004,-2.2936 1.4834,-3.1672 0.98497,-0.87708 2.1078,-1.3191 3.3649,-1.3191 h 13.852 z"
           inkscape:connector-curvature="0"
           style="stroke-width:0.26442599" />
        <path
           id="path2355"
           d="m 155.02,168.65 h -3.3454 l -1.53,-5.8019 h -7.5909 l 0.7149,-3.0433 h 6.0692 c -0.13161,-0.50813 -0.5513,-2.3054 -0.82279,-3.3099 -0.27982,-1.0052 -0.84645,-1.5098 -1.7033,-1.5098 h -3.8341 c -0.87358,0 -1.4478,0.50466 -1.7166,1.5175 l -3.1157,12.147 h -3.3496 l 3.1164,-12.136 c 0.78381,-2.9967 2.4064,-4.4863 4.8671,-4.4863 h 4.2295 c 2.4767,0 4.0993,1.4896 4.8636,4.4863 z"
           inkscape:connector-curvature="0"
           style="stroke-width:0.26442599" />
        <path
           id="path2357"
           d="m 172.34,154.94 h -6.9393 v 13.661 h -3.1282 V 154.94 h -6.8419 v -2.9646 h 16.909 z"
           inkscape:connector-curvature="0"
           style="stroke-width:0.26442599" />
      </g>
      <path
         id="path2361"
         d="M 568.06702,-372.86533 H 55.828589 c -24.334445,0 -44.068766,19.69613 -44.068766,43.9591 V 33.835724 c 0,24.294737 19.732808,43.98935 44.068766,43.98935 L 612.12444,77.79482 v -406.68971 c 0,-24.26335 -19.72487,-43.95909 -44.05742,-43.95909"
         inkscape:connector-curvature="0"
         style="fill:#1a3e7c;fill-opacity:1;stroke-width:0.99999374" />
      <g
         transform="matrix(3.7817529,0,0,3.7817529,-97.597126,-437.72239)"
         id="g2371"
         style="fill:#ffffff;stroke-width:0.26442599">
        <path
           id="path2363"
           d="m 75.458,41.35 h -6.96e-4 c -2.1983,-1.8746 -4.5914,-2.7865 -7.3138,-2.7865 h -11.965 c -0.1942,0 -0.35153,0.15732 -0.35153,0.35152 v 75.747 c 0,0.19495 0.15732,0.35152 0.35153,0.35152 h 13.432 c 5.0286,0 9.1056,-4.0756 9.1056,-9.1049 v -56.001 c 0,-3.8877 -1.0657,-6.6874 -3.2577,-8.5571 m -4.7891,63.894 c 0,1.5787 -1.2801,2.8581 -2.8588,2.8581 h -3.5849 c -0.19422,0 -0.35153,-0.15667 -0.35153,-0.35152 v -61.316 c 0,-0.1942 0.15732,-0.35153 0.35153,-0.35153 h 3.5849 c 1.5787,0 2.8588,1.2794 2.8588,2.8582 z"
           inkscape:connector-curvature="0"
           style="stroke-width:0.26442599" />
        <path
           id="path2365"
           d="m 95.11,38.564 c -7.3918,0 -11.141,3.6663 -11.141,10.897 v 55.346 c 0,6.7737 3.7352,10.207 11.101,10.207 7.311,0 11.018,-3.4338 11.018,-10.207 V 49.461 c 0,-7.231 -3.6935,-10.897 -10.978,-10.897 m 3.4589,10.33 v 56.805 c 0,2.3215 -1.8147,2.8094 -3.337,2.8094 -1.578,0 -3.4589,-0.40513 -3.4589,-2.8094 V 48.894 c 0,-2.4224 1.8808,-2.9319 3.4589,-2.9319 1.5223,0 3.337,0.50954 3.337,2.9319"
           inkscape:connector-curvature="0"
           style="stroke-width:0.26442599" />
        <path
           id="path2367"
           d="m 153.33,38.564 c -0.19357,0 -0.35153,0.15732 -0.35153,0.35153 v 66.256 c 0,1.1708 -0.57845,2.5665 -3.3364,2.5665 -2.7516,0 -3.4589,-1.347 -3.4589,-2.5665 v -66.256 c 0,-0.1942 -0.15726,-0.35153 -0.35152,-0.35153 h -7.3431 c -0.19495,0 -0.35154,0.15732 -0.35154,0.35153 v 65.77 c 0,6.8544 3.871,10.329 11.505,10.329 h 11.032 c 0.19416,0 0.35152,-0.15726 0.35152,-0.35152 v -75.747 c 0,-0.1942 -0.15726,-0.35153 -0.35152,-0.35153 z"
           inkscape:connector-curvature="0"
           style="stroke-width:0.26442599" />
        <path
           id="path2369"
           d="m 120.07,81.077 5.6801,33.644 c 0.0286,0.1699 0.17463,0.29375 0.34596,0.29375 h 7.6556 c 0.21648,0 0.38215,-0.19554 0.34665,-0.41 l -5.8367,-34.734 c -0.34874,-2.0764 -0.34874,-4.196 0.001,-6.2725 l 5.8353,-34.624 c 0.0355,-0.2144 -0.13023,-0.41 -0.34665,-0.41 h -7.6758 c -0.17127,0 -0.31811,0.1239 -0.34666,0.29375 l -5.6592,33.634 c -0.0466,0.27774 -0.45594,0.24363 -0.45594,-0.03828 v -33.538 c 0,-0.1942 -0.15726,-0.35153 -0.35152,-0.35153 h -7.5714 c -0.19416,0 -0.35152,0.15732 -0.35152,0.35153 v 75.748 c 0,0.19357 0.15726,0.35152 0.35152,0.35152 h 7.5714 c 0.19416,0 0.35152,-0.15805 0.35152,-0.35152 v -33.548 c 0,-0.28192 0.4086,-0.31602 0.45594,-0.03828"
           inkscape:connector-curvature="0"
           style="stroke-width:0.26442599" />
      </g>
    </g>
  </g>
</svg>
