<svg version="1.1" viewBox="0 0 780.84 800" xmlns="http://www.w3.org/2000/svg">
 <g stroke-width="1.8248">
  <path d="m0 581.75v160.95c0 31.569 25.547 57.299 57.299 57.299h666.24c31.752 0 57.299-25.547 57.299-57.299v-133.21h-723.54c-23.175 0-43.796-10.949-57.299-27.737" fill="#dc3323"/>
  <path d="m184.12 695.07a20.073 20.073 0 0 1-6.9343 15.876 25 25 0 0 1-16.788 5.8394h-40.511v-14.781h40.511c5.4744 0 8.3942-2.3723 8.3942-6.9343v-9.6715c0-4.927-2.7372-7.2993-8.3942-7.2993h-54.745v66.788h-15.511v-81.387h70.073c6.7518 0 12.409 1.8248 16.971 6.0219 4.562 4.1971 6.9343 9.489 6.9343 15.876zm99.088 27.92v-37.774c0-1.8248-0.72993-3.6496-2.5547-5.1095-1.8248-1.6423-3.6496-2.3723-5.8394-2.3723h-45.62c-2.0073 0-4.0146 0.72992-5.8394 2.3723-1.8248 1.4598-2.5548 3.1022-2.5548 5.1095v37.774c0 4.927 2.7372 7.2993 8.3942 7.2993h45.62c5.4744 0 8.3942-2.3723 8.3942-7.2993m15.511 0a20.073 20.073 0 0 1-7.1168 15.876 24.635 24.635 0 0 1-16.788 6.2044h-45.62c-6.5693 0-12.226-2.1898-16.788-6.2044a20.073 20.073 0 0 1-7.1168-15.876v-37.956a20.073 20.073 0 0 1 7.2993-15.511c4.927-4.3796 10.401-6.5694 16.606-6.5694h45.62c6.2044 0 11.679 2.1898 16.423 6.5694a20.073 20.073 0 0 1 7.2993 15.511zm92.883 22.08h-45.62c-6.3869 0-12.044-2.1898-16.606-6.2044a20.073 20.073 0 0 1-7.1168-15.876v-59.854h15.511v59.854c0 4.927 2.7372 7.2993 8.3942 7.2993h45.438zm111.5-67.336h-68.066c-2.1898 0-4.0146 0.72992-5.8394 2.3723-1.8248 1.4598-2.5547 3.2847-2.5547 5.1095v4.1971c0 4.7445 2.7372 7.2993 8.3942 7.2993h45.62c6.5693 0 12.044 2.0073 16.606 6.0219 4.927 4.1971 7.2993 9.489 7.2993 16.058v4.1971a20.073 20.073 0 0 1-7.2993 15.693 24.453 24.453 0 0 1-16.606 6.3869h-68.248v-14.599h68.248a9.1241 9.1241 0 0 0 5.8394-2.1898c1.8248-1.4598 2.5548-3.2847 2.5548-5.4744v-4.0146c0-4.927-2.7372-7.2993-8.3942-7.2993l-45.62-0.18248c-6.5693 0-12.226-2.0073-16.788-6.2044a20.073 20.073 0 0 1-7.1168-15.693v-4.3796a20.073 20.073 0 0 1 7.2993-15.511c4.927-4.3796 10.401-6.5694 16.606-6.5694h68.066zm117.15 67.518h-16.423l-7.4818-28.65h-37.591l3.6496-14.964h29.745l-4.0146-16.241c-1.4599-4.927-4.1971-7.2993-8.3942-7.2993h-18.796c-4.3796 0-7.2993 2.3723-8.5766 7.2993l-15.328 59.854h-16.423l15.328-59.672c3.8321-14.781 11.861-22.08 23.905-22.08h20.803c12.226 0 20.073 7.2993 23.905 21.898zm85.219-67.518h-34.124v67.153h-15.328v-67.153h-33.759v-14.599h83.212z" fill="#fff"/>
  <path d="m723.54 0h-666.06c-31.752 0-57.482 25.547-57.482 57.117v471.9c0 31.569 25.547 57.117 57.299 57.117h723.54v-528.83c0-31.569-25.547-57.117-57.299-57.117" fill="#aed41a"/>
  <path d="m71.533 463.87v33.577c0 8.5766 5.8394 14.599 14.051 14.599 8.5766 0 14.599-6.0219 14.599-14.599v-16.423c0-38.321-68.796-47.445-68.796-110.95v-16.058a52.555 52.555 0 0 1 54.197-54.015 52.92 52.92 0 0 1 54.745 54.197v33.394h-40.146v-33.577c0-8.5766-6.0219-14.599-14.599-14.599-8.2117 0-14.234 6.0219-14.234 14.599v16.058c0 38.686 68.978 47.628 68.978 110.95v16.423a52.92 52.92 0 0 1-54.745 54.197 52.555 52.555 0 0 1-54.197-54.197v-33.577zm129.2-58.029h29.015v-51.825c0-8.5766-6.0219-14.599-14.599-14.599-8.2117 0-14.416 6.0219-14.416 14.599zm-39.781-52.007a52.555 52.555 0 0 1 54.197-54.197 52.92 52.92 0 0 1 54.745 54.197v91.241h-68.978v52.19c0 8.5766 6.2044 14.599 14.234 14.599 8.7591 0 14.599-6.0219 14.599-14.599v-25.547h40.146v25.547a52.92 52.92 0 0 1-54.745 54.197 52.555 52.555 0 0 1-54.197-54.197zm128.65-49.818h40.146v14.599c7.6642-14.599 21.35-20.62 39.051-14.051v42.153c-21.898-6.9343-38.869 3.1022-39.234 21.898v178.83h-40.146zm94.526 0h40.146v243.43h-40.146zm19.708-78.467c16.971 0 28.832 12.591 28.832 29.015 0 16.788-11.861 28.832-28.832 28.832-16.423 0-28.832-12.044-28.832-28.832 0-16.423 12.591-28.832 28.832-28.832m80.839 270.07c0 8.5766 6.0219 14.599 14.234 14.599 8.5766 0 14.599-6.0219 14.599-14.599v-41.423c0-8.5766-6.0219-14.599-14.599-14.599-8.2117 0-14.234 6.0219-14.234 14.599zm68.978 51.642h-40.146v-10.949a36.314 36.314 0 0 1-28.832 13.504c-23.175 0-40.146-18.248-40.146-43.066v-64.234c0-25 18.248-43.066 43.248-43.066 10.766 0 19.708 4.0146 25.73 10.036v-55.657c0-8.5766-6.0219-14.599-14.599-14.599-8.2117 0-14.234 6.0219-14.234 14.599v29.197h-40.146v-29.197a52.555 52.555 0 0 1 54.38-54.197 52.92 52.92 0 0 1 54.745 54.197zm22.08-546.72h40.146v546.72h-40.146zm100.73 405.11h28.832v-51.825c0-8.5766-6.0219-14.599-14.599-14.599-8.2117 0-14.234 6.0219-14.234 14.599zm-40.146-51.825a52.555 52.555 0 0 1 54.38-54.197 52.92 52.92 0 0 1 54.745 54.197v91.241h-68.978v52.19c0 8.5766 6.0219 14.599 14.234 14.599 8.5766 0 14.599-6.0219 14.599-14.599v-25.547h40.146v25.547a52.92 52.92 0 0 1-54.745 54.197 52.555 52.555 0 0 1-54.38-54.197z" fill="#fff" Googl="true"/>
 </g>
</svg>
