<svg Googl="true" version="1.1" viewBox="0 0 800 522.21" xmlns="http://www.w3.org/2000/svg">
 <defs>
  <style>.a{fill:#fec605;}</style>
 </defs>
 <g transform="matrix(3.2158 0 0 3.2158 240.24 -.077571)">
  <path class="a" transform="translate(-363.38 -167.65)" d="m382.92 193.24c0.973 4.608 7.4 27.321 8.835 30.388 2.468 5.281 5.8 8.447 16.187 8.43 10.537-0.017 38.629-6.223 42.753-7.984 7.009-2.993 10.245-9.65 9.621-17.392v-0.025a73.477 73.477 0 0 0-4.809-18.762c-1.939-5.114-7.116-18.614-23.364-20.019a89.271 89.271 0 0 0-35.955 4.924c-4.391 1.574-16.191 6.588-13.268 20.44zm54.47-20.134c3.055 0.38 8.328 0.871 12.868 10.973a79.937 79.937 0 0 1 5.939 20.817c1.069 6.893-2.347 9.546-5.482 10.506-6.247 1.912-30.993 6.817-41.673 7.465-5.01 0.3-9.431-2.346-10.98-6.274-0.971-2.463-6.9-25.715-6.9-25.715-1.808-7.235 3.251-11.634 9.829-13.48 20.036-5.618 32.381-4.791 36.399-4.292z"/>
  <path class="a" transform="translate(-368.03 -170.44)" d="m455.89 208.8c-13.3 2.991-27.862 5.756-43.419 7.732-2.433-9.506-4.861-18.993-7.313-28.573 13.354-4.663 27.738-7.563 41.94-6.425 5.43 8.259 8.589 26.166 8.792 27.266z"/>
  <path class="a" transform="translate(-358.47 -178.05)" d="m445.9 256.32c-8.968 6.9-36.292 13.1-54.066 8.939-31.742-7.438-32.8-46.749-32.8-46.8l-0.285-0.01c-1.655 18.855 4.011 35.593 16.673 45.1a42.3 42.3 0 0 0 14.178 7.191 57.246 57.246 0 0 0 18.581 1.683c15.634-0.771 31.012-7.16 37.834-16.022z"/>
  <path class="a" transform="translate(-359.99 -168.19)" d="m459.01 223.96c-1.024 1.993-3.837 5.824-12.664 9.286s-26.183 7.14-39.605 7.751c-8.8 0.4-23.7-1.125-28.079-16.48-1.087-3.814-7-24.137-7.167-30.385-0.435-16.367 15.6-23.306 16.861-23.826v-9e-3c-1.231 0.358-15.864 4.945-21.55 22.387-3.433 10.53 4.123 34.6 6.961 40.321 6.981 14.075 21 16.067 27.113 16.559 16.224 1.3 36.347-3.1 49.749-12.069a20.962 20.962 0 0 0 8.726-13.496z"/>
 </g>
 <g transform="matrix(3.2158 0 0 3.2158 0 379.7)">
  <path class="a" transform="translate(-220.58 -318.48)" d="m220.58 328.11h7.273l-1.012 10.307v4.432l1.252 11.9v8.044h-7.513zm7.417 20.806-2.456 0.193v-13.774l2.12 0.192c0.626-5.393 3.324-8.091 8.861-8.091 6.407 0 10.693 5.3 10.693 13.342 0 7.994-4.286 13.342-11.029 13.342-4.769 0-7.322-2.217-8.189-5.2m12.33-8.139c0-4.575-2.119-7.031-6.116-7.031-4.046 0-6.214 2.456-6.214 7.031s2.168 7.032 6.214 7.032c4 0 6.116-2.458 6.116-7.032"/>
  <path class="a" transform="translate(-228.21 -318.48)" d="m284.13 340.78c0 8.044-5.25 13.342-13.148 13.342s-13.148-5.3-13.148-13.342 5.25-13.342 13.148-13.342 13.148 5.3 13.148 13.342m-6.888 0c0-4.527-2.166-6.984-6.261-6.984s-6.261 2.457-6.261 6.984c0 4.574 2.168 6.984 6.261 6.984s6.261-2.41 6.261-6.984"/>
  <path class="a" transform="translate(-236 -316.17)" d="m308.3 344.4 0.627 6.26a12.371 12.371 0 0 1-5.443 1.157c-4.913 0-7.611-3.227-7.611-8.43v-27.215h7.127v26.106c0 1.83 0.771 2.794 2.362 2.794a7.325 7.325 0 0 0 2.937-0.674"/>
  <path class="a" transform="translate(-240.13 -318.48)" d="m336.13 328.98-0.626 6.213a22.688 22.688 0 0 0-9.007-2.022c-2.7 0-3.8 0.53-3.8 1.829 0 0.915 0.578 1.35 2.361 1.733l5.634 1.3c4.721 1.109 6.647 3.9 6.647 7.9 0 5.346-4 8.187-10.645 8.187-4.768 0-7.659-0.336-10.26-1.2l0.675-6.4a23 23 0 0 0 9.585 1.782c2.937 0 3.949-0.481 4-1.926 0-1.108-0.627-1.59-2.841-2.168l-5.635-1.445c-4.287-1.109-6.165-3.373-6.165-7.465 0-4.913 4-7.852 10.691-7.852a28.25 28.25 0 0 1 9.392 1.542"/>
  <path class="a" transform="translate(-246.39 -318.48)" d="m346.57 340.78c0-8 4.334-13.342 11.223-13.342 4.816 0 6.84 1.878 7.994 4.625l2.458-0.192v13.774l-2.12-0.192c-0.627 5.731-3.324 8.669-8.863 8.669-6.406 0-10.692-5.3-10.692-13.341m19.217 0c0-4.577-2.167-7.031-6.213-7.031-4 0-6.117 2.455-6.117 7.031s2.12 7.032 6.117 7.032c4.046 0 6.213-2.457 6.213-7.032m1.156 2.168v-4.576l-1.011-10.26h7.272v25.335h-7.369z"/>
  <path class="a" transform="translate(-254.29 -317.02)" d="m402.16 333.15h-17v-6.5h17zm0.723 12.042 0.674 6.309a14.3 14.3 0 0 1-6.262 1.155c-5.057 0-8.285-2.89-8.285-8.38v-22.926l7.128-1.06v22.061c0 2.744 0.771 3.563 3.227 3.563a9.009 9.009 0 0 0 3.516-0.722"/>
  <g transform="translate(167.27)">
   <path class="a" transform="translate(-430.95 -316.17)" d="m446.93 325.15c-5.552 0-8.256 2.7-8.883 8.11l-0.53-0.048 0.964-9.608v-7.434h-7.531v35.049h7.386l-0.468-4.5 0.516-0.041c0.869 2.994 3.428 5.214 8.207 5.214 6.759 0 11.055-5.359 11.055-13.373 1e-3 -8.058-4.295-13.369-10.716-13.369zm-2.318 20.421c-4.055 0-6.228-2.463-6.228-7.049s2.172-7.048 6.228-7.048c4.007 0 6.131 2.462 6.131 7.048s-2.123 7.05-6.131 7.05z"/>
   <path class="a" transform="translate(-438.59 -318.49)" d="m481.46 327.46c-7.918 0-13.18 5.311-13.18 13.373s5.262 13.373 13.18 13.373 13.179-5.311 13.179-13.373-5.262-13.373-13.179-13.373zm0 20.373c-4.1 0-6.276-2.414-6.276-7 0-4.538 2.172-7 6.276-7s6.276 2.462 6.276 7c0 4.586-2.173 7-6.276 7z"/>
   <path class="a" transform="translate(-445.37 -318.66)" d="m526.58 328.32h-7.966l-4.469 7.462-4.51-7.462h-8.3l8.667 12.653-8.671 12.741h7.917l4.666-7.721 4.748 7.721h8.207l-8.8-13z"/>
  </g>
 </g>
</svg>
