<svg version="1.1" viewBox="0 0 600.79 800" xml:space="preserve" xmlns="http://www.w3.org/2000/svg">
<g transform="matrix(1.7495 0 0 1.7495 0 .00014324)">
	
		<path d="m94.986 162.39c26.489 3.774 57.64-20.534 82.747-39.409 23.556-17.716 52.572-39.477 74.319-39.233 14.214 0.163 26.672 8.319 30.575 19.356-0.379-4.214-2.391-16.747-3.834-22.743-2.757-8.204-10.278-26.408-35.378-26.3-25.9 0.108-54.849 22.533-77.937 39.497-28.664 21.063-54.354 43.121-81.622 38.088-14.634-2.71-20.962-9.471-23.062-15.494 0.278 3.828 2.202 15.914 3.767 22.506 3.508 7.872 10.981 20.961 30.425 23.732z" fill="#8f36e5"/>
		<path d="m207.76 5.983c-51.753-17.147-103.76 3.781-131.9 47.2 0 0 5.813 12.499 29.734-7.445 37.275-31.083 56.699-45.229 102.17-39.755z" fill="#c400ff"/>
		<path d="m148.96 40.311c-11.463 8.394-28.109 21.11-39.911 28.996-13.949 9.329-33.447 22.479-42.898 5.115-1.375 4.289-3.95 13.231-4.038 17.188 0.468 5.643 5.982 17.716 22.208 17.994 20.866 0.359 40.195-17.655 69.733-39.572 31.035-23.034 52.647-38.156 77.93-35.202 20.033 2.337 29.64 11.781 36.964 21.232-6.348-12.174-19.166-26.957-35.731-37.593-18.359-11.795-47.254-5.257-84.257 21.842z" fill="#d18ce5"/>
		<path d="m135.4 211.36c51.752 17.147 103.76-3.78 131.9-47.2 0 0-5.813-12.499-29.734 7.445-37.276 31.083-56.699 45.229-102.17 39.755z" fill="#6114ad"/>
		<path d="m194.19 177.03c11.463-8.394 28.108-21.11 39.91-28.996 13.949-9.329 33.447-22.479 42.898-5.115 1.375-4.289 3.95-13.231 4.038-17.188-0.467-5.643-5.982-17.716-22.208-17.994-20.866-0.359-40.195 17.655-69.733 39.572-31.035 23.034-52.647 38.156-77.93 35.202-20.033-2.337-29.64-11.781-36.964-21.232 6.348 12.174 19.166 26.957 35.737 37.593 18.354 11.795 47.248 5.257 84.252-21.842z" fill="#6114ad" Googl="true"/>
	
	<g fill="#8f36e5">
		
			<path d="m36.681 292.3c-12.735 0-18.939 6.204-20.354 18.613l-1.252-0.109 1.687-16.98h-16.762v79.784h17.306v-18.504l-1.415-13.279 1.197-0.109c2.014 6.857 7.837 11.973 18.83 11.973 15.511 0 25.361-12.3 25.361-30.695 1e-3 -18.503-9.849-30.694-24.598-30.694zm-5.333 46.858c-9.252 0-14.259-5.66-14.259-16.164 0-10.558 5.007-16.218 14.259-16.218s14.095 5.66 14.095 16.218c0 10.504-4.843 16.164-14.095 16.164z"/>
			<path d="m112.81 322.98c0-10.413-4.986-16.063-14.403-16.063s-14.403 5.65-14.403 16.063c0 10.528 4.986 16.063 14.403 16.063s14.403-5.535 14.403-16.063zm15.847 0c0 18.502-12.08 30.69-30.25 30.69s-30.25-12.188-30.25-30.69 12.08-30.69 30.25-30.69 30.25 12.188 30.25 30.69z"/>
			<path d="m166.33 336.61 1.443 14.403c-3.774 1.775-7.757 2.663-12.52 2.663-11.307 0-17.513-7.425-17.513-19.396v-62.599h16.402v60.052c0 4.214 1.775 6.429 5.426 6.429 2.331 0 3.882-0.447 6.762-1.552z"/>
			<path d="m220.85 295.84-1.443 14.295c-7.202-3.103-14.071-4.654-20.718-4.654-6.205 0-8.753 1.22-8.753 4.207 0 2.107 1.328 3.103 5.427 3.99l12.967 2.994c10.86 2.547 15.291 8.97 15.291 18.17 0 12.296-9.2 18.834-24.491 18.834-10.968 0-17.614-0.772-23.596-2.771l1.551-14.735c6.646 2.879 13.407 4.099 22.045 4.099 6.762 0 9.085-1.104 9.2-4.431 0-2.547-1.443-3.658-6.538-4.986l-12.967-3.32c-9.857-2.554-14.179-7.757-14.179-17.181 0-11.3 9.193-18.055 24.599-18.055 7.642 1e-3 15.068 1.22 21.605 3.544z"/>
			<path d="m275.05 293.82 0.871 8.98-1.197 0.109c-2.667-6.313-7.347-10.613-18.395-10.613-15.891 0-25.851 12.3-25.851 30.695 0 18.504 9.851 30.695 24.599 30.695 12.735 0 18.939-6.748 20.409-19.973l1.252 0.109-1.905 18.286h16.925v-58.287h-16.708zm-14.64 45.334c-9.197 0-14.095-5.66-14.095-16.164 0-10.558 4.898-16.218 14.095-16.218 9.306 0 14.313 5.66 14.313 16.218 0 10.504-5.006 16.164-14.313 16.164z"/>
			<path d="m343.41 351.02c-3.537 1.524-7.456 2.667-14.422 2.667-11.647 0-19.048-6.64-19.048-19.32v-25.579h-8.871v-14.966h8.871v-12.191l16.381-2.395v14.585h13.878v14.966h-13.878v21.171c0 6.313 1.796 8.218 7.456 8.218 2.667 0 4.952-0.49 8.055-1.687z"/>
		
		
			<path d="m93.662 398.32v4.082h14.857v15.293h-14.857v38.042h-16.436v-38.042h-7.728v-15.293h7.728v-8.272c0-12.409 8.218-20.409 20.953-20.409 5.66 0 11.211 0.871 14.858 2.34l-1.687 15.402c-3.32-1.252-5.714-1.905-10.286-1.905-5.66 0-7.402 1.796-7.402 8.762z"/>
			<path d="m136.75 455.72h-16.402v-58.283h16.402zm-8.198-80.999c6.205 0 9.532 2.994 9.532 8.421 0 5.542-3.327 8.421-9.532 8.421-6.206 0-9.525-2.879-9.525-8.421 0-5.427 3.32-8.421 9.525-8.421z"/>
			<path d="m177.75 440.21 1.443 14.403c-3.767 1.775-7.757 2.663-12.52 2.663-11.307 0-17.506-7.425-17.506-19.389v-62.606h16.395v60.052c0 4.214 1.775 6.429 5.426 6.429 2.331 0 3.882-0.447 6.762-1.552z"/>
			<path d="m281.26 418.94v36.79h-16.436v-34.831c0-7.075-3.32-10.83-9.306-10.83-8.871 0-12.626 3.755-12.626 12.191v33.47h-16.381v-34.831c0-7.075-3.32-10.83-9.306-10.83-8.871 0-12.626 3.755-12.626 12.191v33.47h-16.436v-58.287h15.184l-1.633 16.925 1.197 0.109c1.469-12.735 7.456-19.048 19.647-19.048 10.721 0 17.796 6.095 18.885 18.994l0.816 0.054c1.089-13.279 7.401-19.048 18.395-19.048 12.953 1e-3 20.626 8.545 20.626 23.511z"/>
		
	</g>
</g>
</svg>
