<svg data-name="Шар 1" version="1.1" viewBox="0 0 647.89 474.46" xmlns="http://www.w3.org/2000/svg">
 <defs>
  <style>.cls-1{fill:#00b0d1;}.cls-2{fill:#0087ab;}.cls-3{fill:#00c9f2;}.cls-4{fill:#005e8c;}</style>
  <style>.cls-1{opacity:0.49;}.cls-2{fill:#fff;}</style>
 </defs>
 <g transform="translate(-4.0137)">
  <path transform="translate(154)" d="m351.89 290.55 18.67 57.57h15.766l11.891-36.748 12.107 36.748h15.604l18.293-57.57h-15.764l-10.547 36.049-11.621-36.049h-15.443l-11.73 35.889-10.545-35.889z" fill="#00b0d1"/>
  <path transform="translate(154)" d="m103.38 288.99c-15.658 0-25.504 12.162-25.504 30.348 0 18.294 9.7393 30.293 24.32 30.293 12.591 0 18.725-6.6724 20.123-19.693l1.291 0.10743-1.9375 18.078h16.734v-57.627h-16.52l0.86133 8.8789-1.1836 0.10743c-2.636-6.241-7.2095-10.492-18.186-10.492zm4.0352 14.312c9.201 0 14.15 5.5972 14.15 16.035 0 10.385-4.9494 15.979-14.15 15.979-9.093 0-13.883-5.5945-13.883-15.979 0-10.438 4.7898-16.035 13.883-16.035z" fill="#00b0d1"/>
  <path transform="translate(154)" d="m-113.72 288.99c-12.59 0-18.725 6.1343-20.178 18.402l-1.2363-0.10742 1.668-16.787h-16.52v78.879h17.057v-18.293l-1.3984-13.131 1.1836-0.10742c1.991 6.78 7.8022 11.838 18.617 11.838 15.388 0 25.127-12.16 25.127-30.346-1e-3 -18.294-9.7393-30.348-24.32-30.348zm-5.2734 14.312c9.093 0 13.881 5.5972 13.881 16.035 0 10.385-4.7879 15.979-13.881 15.979-9.201 0-14.15-5.5945-14.15-15.979 0-10.438 4.9494-16.035 14.15-16.035z" fill="#00b0d1"/>
  <path transform="translate(154)" d="m46.965 288.97c-15.231 0-24.32 6.6776-24.32 17.85 0 9.317 4.2745 14.461 14.02 16.986l12.82 3.2832c5.037 1.313 6.4629 2.4117 6.4629 4.9297-0.107 3.288-2.4099 4.3789-9.0879 4.3789-8.547 0-15.232-1.1978-21.803-4.0508l-1.5332 14.568c5.915 1.975 12.485 2.7383 23.336 2.7383 15.117 0 24.205-6.4641 24.205-18.621 0-9.089-4.3802-15.445-15.117-17.963l-12.82-2.9609c-4.052-0.877-5.3652-1.8604-5.3652-3.9434 0-2.953 2.5193-4.1602 8.6543-4.1602a51.629 51.629 0 0 1 20.49 4.6016l1.4199-14.133a64.358 64.358 0 0 0-21.361-3.5039z" fill="#00b0d1"/>
  <path transform="translate(154)" d="m-52.723 288.97c-17.963 0-29.906 12.05-29.906 30.342s11.943 30.342 29.906 30.342 29.906-12.05 29.906-30.342-11.943-30.342-29.906-30.342zm0 14.461c9.311 0 14.238 5.5859 14.238 15.881 0 10.408-4.9273 15.889-14.238 15.889s-14.24-5.4797-14.24-15.889c0-10.295 4.9292-15.881 14.24-15.881z" fill="#00b0d1"/>
  <path transform="translate(154)" d="m321.87 288.94c-16.68 0-28.41 12.483-28.41 30.346 0 18.455 10.869 30.4 30.83 30.4 9.631 0 17.057-3.1752 24.428-9.2012l-5.918-12.107c-6.886 4.949-12.375 6.834-18.186 6.834-9.9 0-14.366-3.7657-15.496-11.514h39.492a45.636 45.636 0 0 0 0.32422-5.4883c0-17.54-10.868-29.27-27.064-29.27zm0 13.934c6.349 0 10.653 3.3376 11.676 10.602h-24.213c1.346-6.942 5.6501-10.602 12.537-10.602z" fill="#00b0d1"/>
  <path transform="translate(154)" d="m473.81 288.93c-15.231 0-24.32 6.6796-24.32 17.852 0 9.317 4.2726 14.461 14.018 16.986l12.82 3.2812c5.037 1.313 6.4629 2.4117 6.4629 4.9297-0.114 3.288-2.4099 4.3809-9.0879 4.3809-8.547 0-15.232-1.1997-21.803-4.0527l-1.5332 14.568c5.915 1.975 12.485 2.7383 23.336 2.7383 15.11-1e-5 24.205-6.4622 24.205-18.619 0-9.089-4.3802-15.447-15.117-17.965l-12.818-2.9609c-4.052-0.877-5.3652-1.8623-5.3652-3.9453 0-2.953 2.5193-4.1582 8.6543-4.1582a51.578 51.578 0 0 1 20.482 4.6016l1.4277-14.133a64.318 64.318 0 0 0-21.361-3.5039z" fill="#00b0d1"/>
  <path transform="translate(154)" d="m262.32 288.48c-12.283 0-18.312 6.2563-19.738 18.861l-1.2051-0.10742 1.6465-16.779h-15.023v57.676h16.229v-33.113c0-8.332 3.9439-12.062 13.047-12.062 6.356 0 9.7598 3.731 9.7598 10.75v34.426h16.229v-36.402c0-14.802-7.6744-23.248-20.943-23.248z" fill="#00b0d1"/>
  <path transform="translate(154)" d="m172.63 276.03-16.25 2.4199v12.053h-8.7148v14.797h8.7148v25.289c0 12.483 7.3727 19.102 18.887 19.102 6.887 0 10.708-1.1307 14.205-2.6367l-1.5078-14.367a20.988 20.988 0 0 1-8.0176 1.668c-5.595 0-7.3164-1.882-7.3164-8.123v-20.93h13.666v-14.799h-13.666z" fill="#00b0d1"/>
  <path transform="translate(154)" d="m-13.836 268.6v61.895c0 11.828 6.1335 19.168 17.313 19.168a28.106 28.106 0 0 0 12.377-2.6309l-1.4258-14.24a16.682 16.682 0 0 1-6.6836 1.5332c-3.61 0-5.3652-2.1895-5.3652-6.3555v-59.369z" fill="#00b0d1"/>
  <path transform="translate(154)" d="m143.39 370.04c-6.235 0-9.6582 3.057-9.6582 8.5586 0 5.6237 3.301 8.5566 9.6582 8.5566 6.235 0 9.6582-2.9329 9.6582-8.5566 0-5.5016-3.4232-8.5586-9.6582-8.5586zm131.99 0.58008v80.67h16.482v-16.156l5.7871-6.1133 13.863 22.27h19.32l-22.377-34.113 21.941-24.344h-20.686l-17.85 20.688v-42.9zm-178.21 0.98242v61.895c1e-6 11.828 6.1355 19.168 17.314 19.168a28.106 28.106 0 0 0 12.377-2.6309l-1.4258-14.24a16.682 16.682 0 0 1-6.6856 1.5332c-3.61 0-5.3633-2.1895-5.3633-6.3555v-59.369zm88.467 7.4258-16.248 2.4199v12.053h-8.7168v14.797h8.7168v25.289c0 12.483 7.3708 19.102 18.885 19.102 6.887 0 10.708-1.1307 14.205-2.6367l-1.5078-14.367a20.988 20.988 0 0 1-8.0176 1.668c-5.595 0-7.3164-1.882-7.3164-8.123v-20.93h13.668v-14.799h-13.668zm-128.35 12.949c-17.963 0-29.906 12.05-29.906 30.342s11.943 30.342 29.906 30.342 29.906-12.05 29.906-30.342-11.943-30.342-29.906-30.342zm-62.998 0.0176c-12.59 0-18.725 6.1343-20.178 18.402l-1.2363-0.10742 1.668-16.787h-16.52v78.879h17.057v-18.293l-1.3984-13.131 1.1836-0.10742c1.991 6.78 7.8022 11.838 18.617 11.838 15.388 0 25.127-12.16 25.127-30.346-1e-3 -18.294-9.7393-30.348-24.32-30.348zm363.29 0.14648c-15.658 0-25.504 12.16-25.504 30.346 0 18.294 9.7393 30.293 24.32 30.293 12.591 0 18.725-6.6724 20.123-19.693l1.291 0.10743-1.9375 18.078h16.734v-57.625h-16.52l0.86133 8.877-1.1836 0.10938c-2.636-6.241-7.2096-10.492-18.186-10.492zm-152.17 0.66602 23.814 59.141c-2.5418 6.259-5.5645 6.7637-8.8262 6.7637a28.459 28.458 0 0 1-9.0644-1.5605l-1.5586 14.725a40.673 40.673 0 0 0 14.078 2.5918c8.706 0 14.965-4.1507 20.098-17.557l24.484-64.104h-16.98l-13.766 39.523-14.293-39.523zm-70.32 0.21679v59.416h16.627v-59.416zm-146.07 13.283c9.093 0 13.883 5.5972 13.883 16.035 0 10.385-4.7898 15.979-13.883 15.979-9.201 0-14.15-5.5945-14.15-15.979 0-10.438 4.9494-16.035 14.15-16.035zm68.271 0.13086c9.311 0 14.24 5.5859 14.24 15.881 0 10.408-4.9292 15.889-14.24 15.889s-14.24-5.4797-14.24-15.889c0-10.295 4.9292-15.881 14.24-15.881zm304.33 0.0137c9.201 0 14.15 5.5972 14.15 16.035 0 10.385-4.9494 15.98-14.15 15.98-9.093 0-13.883-5.5965-13.883-15.98 0-10.438 4.7898-16.035 13.883-16.035z" fill="#00c9f2"/>
 </g>
 <path class="cls-2" d="m247.88 160.54c26.189 3.731 56.986-20.301 81.808-38.962 23.289-17.515 51.976-39.029 73.476-38.788 14.052 0.161 26.37 8.225 30.228 19.136-0.375-4.166-2.364-16.557-3.791-22.485-2.726-8.111-10.161-26.109-34.976-26.001-25.606 0.107-54.226 22.277-77.053 39.049-28.339 20.824-53.737 42.632-80.696 37.656-14.468-2.679-20.724-9.364-22.8-15.318a209.34 209.34 0 0 0 3.724 22.25c3.47 7.783 10.857 20.723 30.08 23.463z" fill="#0087ab"/>
 <path class="cls-1" d="m359.37 5.915c-51.166-16.952-102.58 3.738-130.41 46.665 0 0 5.747 12.358 29.397-7.361 36.852-30.73 56.055-44.716 101.01-39.304z"/>
 <path class="cls-3" d="m301.24 39.854c-11.333 8.299-27.79 20.871-39.458 28.667-13.791 9.223-33.067 22.224-42.411 5.057-1.36 4.24-3.905 13.081-3.992 16.993 0.46201 5.579 5.914 17.515 21.956 17.79 20.629 0.355 39.739-17.455 68.941-39.123 30.683-22.773 52.049-37.723 77.046-34.802 19.806 2.311 29.303 11.648 36.544 20.991-6.276-12.036-18.949-26.651-35.332-37.167-18.144-11.661-46.71-5.198-83.294 21.594z"/>
 <path class="cls-4" d="m287.83 208.96c51.165 16.952 102.58-3.737 130.41-46.664 0 0-5.747-12.358-29.397 7.361-36.852 30.73-56.055 44.715-101.01 39.303z"/>
 <path class="cls-4" d="m345.96 175.02c11.333-8.299 27.79-20.871 39.457-28.667 13.791-9.223 33.067-22.224 42.411-5.057 1.36-4.24 3.905-13.081 3.992-16.993-0.462-5.579-5.914-17.515-21.956-17.79-20.629-0.355-39.739 17.455-68.941 39.123-30.683 22.773-52.049 37.723-77.046 34.802-19.806-2.311-29.303-11.648-36.544-20.991 6.276 12.036 18.955 26.651 35.325 37.167 18.151 11.661 46.718 5.197 83.302-21.594z"/>
</svg>
