<svg version="1.1" viewBox="0 0 800 410.95" xmlns="http://www.w3.org/2000/svg">
 <path d="m324.34 64.071c2.4355 11.559 18.586 68.593 22.179 76.299 6.1886 13.255 14.553 21.201 40.645 21.161 26.451 0 96.981-15.631 107.34-19.963 17.587-7.5261 25.712-24.235 24.135-43.679-1.9264-16.162-5.9869-31.998-12.078-47.093-4.871-12.856-17.867-46.733-58.651-50.267-30.619-2.1066-61.347 2.0993-90.273 12.357-11.02 3.8329-40.645 16.43-33.298 51.185zm136.75-50.546c7.6658 0.93826 20.921 2.176 32.32 27.549 7.3105 16.667 12.327 34.248 14.912 52.263 2.675 17.308-5.8891 23.956-13.775 26.371-15.671 4.8111-77.856 17.128-104.63 18.745-12.577 0.75859-23.676-5.8891-27.569-15.751-2.4355-6.1886-17.308-64.561-17.308-64.561-4.5516-18.166 8.1649-29.206 24.674-33.937 50.287-14.034 81.29-11.918 91.371-10.66z" fill="#00293f"/>
 <path d="m495.86 96.132c-33.398 7.5061-69.871 14.433-109.02 19.404l-18.346-71.747c33.518-11.698 69.631-18.985 105.29-16.13 13.635 20.742 21.56 65.718 22.079 68.473z" fill="#00293f"/>
 <path d="m494.8 196.33c-22.518 17.308-91.131 32.899-135.75 22.438-79.693-18.685-82.368-117.38-82.368-117.5h-0.6987c-4.1723 47.332 9.9815 89.355 41.922 113.23 10.604 8.2088 22.668 14.331 35.554 18.047 13.315 3.7531 28.348 5.1305 46.634 4.2122 39.267-1.9963 77.856-17.967 94.984-40.226z" fill="#00293f"/>
 <path d="m523.87 139.93c-2.5752 4.9908-9.6422 14.613-31.801 23.297-22.159 8.6839-65.738 17.967-99.436 19.464-22.079 1.0181-59.51-2.8148-70.49-41.363-2.7349-9.5823-17.587-60.608-17.967-76.299-1.078-41.084 39.168-58.512 42.342-59.889-3.0743 0.89834-39.926 12.417-54.1 56.196-8.6041 26.431 10.361 86.859 17.488 101.23 17.528 35.335 52.722 40.345 68.074 41.583 40.725 3.2739 91.251-7.7856 124.89-30.304 5.7154-3.9309 10.598-8.9528 14.367-14.777 3.767-5.8242 6.3483-12.336 7.592-19.16z" fill="#00293f"/>
 <path d="m0 320.52h18.266l-2.5353 25.952v11.06l3.1342 29.945v20.203h-18.865zm18.626 52.223-6.1686 0.49907v-34.596l5.3301 0.47911c1.5771-13.535 8.3446-20.302 22.239-20.302 16.09 0 26.85 13.295 26.85 33.498 0 20.203-10.76 33.498-27.689 33.498-11.978 0-18.386-5.5697-20.562-13.076zm30.963-20.422c0-11.499-5.3301-17.667-15.352-17.667-10.021 0-15.611 6.1686-15.611 17.667 0 11.499 5.4499 17.647 15.611 17.647 10.161 0 15.352-6.1686 15.352-17.647z" fill="#00293f"/>
 <path d="m140.4 352.32c0 20.183-13.176 33.498-33.019 33.498-19.843 0-32.999-13.315-32.999-33.498 0-20.183 13.176-33.498 32.999-33.498 19.823 0 33.019 13.295 33.019 33.498zm-17.288 0c0-11.379-5.4499-17.548-15.731-17.548-10.281 0-15.711 6.1686-15.711 17.548s5.4499 17.528 15.711 17.528c10.261 0 15.731-5.9889 15.731-17.528z" fill="#00293f"/>
 <path d="m181.52 367.19 1.5571 15.711c-4.2709 1.9963-8.9409 2.9925-13.655 2.9146-12.337 0-19.105-8.105-19.105-21.181v-68.314h17.967v65.539c0 4.5915 1.9963 7.027 5.9889 7.027 2.5523-0.0539 5.0662-0.63283 7.3863-1.6969" fill="#00293f"/>
 <path d="m241.01 322.69-1.5771 15.591c-7.1108-3.226-14.811-4.9528-22.618-5.0706-6.7675 0-9.5423 1.3176-9.5423 4.5915 0 2.2958 1.4573 3.3937 5.9889 4.352l14.134 3.254c11.858 2.7948 16.689 9.8019 16.689 19.843 0 13.415-9.9815 20.562-26.711 20.562-11.978 0-19.244-0.85841-25.772-3.0344l1.6969-15.97c7.6139 3.1901 15.823 4.7153 24.075 4.4717 7.3664 0 9.9815-1.2178 9.9815-4.851 0-2.7749-1.5571-3.9926-7.1268-5.43l-14.154-3.6333c-10.76-2.7749-15.471-8.4643-15.471-18.745 0-12.337 9.9815-19.704 26.85-19.704 8.0212-0.0599 15.994 1.2497 23.576 3.8728" fill="#00293f"/>
 <path d="m251.53 352.32c0-20.083 10.88-33.498 28.168-33.498 12.098 0 17.188 4.7113 20.083 11.599l6.1686-0.47911v34.576l-5.3301-0.47911c-1.5571 14.393-8.3446 21.78-22.239 21.78-16.09 0-26.85-13.315-26.85-33.498zm48.251 0c0-11.499-5.4499-17.667-15.611-17.667s-15.352 6.1686-15.352 17.667c0 11.499 5.3301 17.647 15.352 17.647s15.611-6.1686 15.611-17.647zm2.8946 5.43v-11.479l-2.5353-25.752h18.266v63.602h-18.506z" fill="#00293f"/>
 <path d="m371.25 336.83h-42.681v-16.31h42.681zm1.8166 30.244 1.6969 15.831c-4.9588 2.142-10.335 3.1382-15.731 2.9146-12.697 0-20.802-7.2666-20.802-21.041v-57.573l17.967-2.6551v55.378c0 6.9072 1.9963 8.9634 8.105 8.9634 3.0324-0.014 6.0328-0.63283 8.8237-1.8166" fill="#00293f"/>
 <path d="m460.09 318.86c-13.974 0-20.722 6.7874-22.299 20.362l-1.3375-0.11977 2.4355-24.115v-18.665h-18.925v87.997h18.546l-1.1778-11.299 1.2976-0.0998c2.1959 7.5261 8.6041 13.096 20.622 13.096 16.969 0 27.749-13.455 27.749-33.578 0-20.123-10.78-33.578-26.91-33.578zm-5.8092 51.285c-10.181 0-15.651-6.1886-15.651-17.707 0-11.519 5.4699-17.687 15.651-17.687 10.181 0 15.392 6.1686 15.392 17.687 0 11.519-5.3301 17.707-15.392 17.707z" fill="#00293f"/>
 <path d="m527.58 318.86c-19.963 0-33.099 13.335-33.099 33.578 0 20.243 13.216 33.578 33.099 33.578 19.883 0 33.079-13.335 33.079-33.578 0-20.243-13.216-33.578-33.079-33.578zm0 51.165c-10.301 0-15.771-5.9889-15.771-17.587 0-11.599 5.4699-17.568 15.771-17.568s15.751 6.1686 15.751 17.568c0 11.399-5.4499 17.587-15.751 17.587z" fill="#00293f"/>
 <path d="m623.87 320.56h-20.003l-11.219 18.725-11.339-18.725h-20.841l21.78 31.761-21.78 31.981h19.883l11.718-19.364 11.918 19.364h20.602l-22.099-32.64z" fill="#00293f"/>
 <path d="m655.27 351.26c0-19.404 10.9-32.4 28.268-32.4 12.118 0 17.228 4.7312 20.123 11.658l6.1886-0.47912v32.26l-4.4717-0.47911c-1.597 14.433-8.7438 21.84-23.177 21.84-16.15 0-26.93-12.856-26.93-32.4zm50.467 26.092 0.83845-19.424v-11.519l-2.5353-25.852h18.306v56.795c0 23.656-12.118 33.598-34.935 33.598-9.726-0.0439-19.286-2.5433-27.789-7.2666l4.3719-15.411c10.68 4.851 15.771 6.6677 23.417 6.6677 11.519 0 17.827-5.949 18.326-17.587zm-1.9963-26.092c0-10.68-5.4499-16.489-15.651-16.489s-15.392 5.8092-15.392 16.489c0 10.68 5.3301 16.509 15.392 16.509 10.061 0 15.571-5.8292 15.571-16.509z" fill="#00293f"/>
 <path d="m800 352.48c0 20.263-13.236 33.598-33.119 33.598-19.883 0-33.119-13.335-33.119-33.598 0-20.263 13.216-33.618 33.119-33.618s33.119 13.355 33.119 33.618zm-17.348 0c0-11.399-5.4699-17.587-15.771-17.587-10.301 0-15.771 6.1886-15.771 17.587s5.4499 17.587 15.771 17.587c10.321 0 15.791-6.0688 15.791-17.587z" fill="#00293f"/>
</svg>
