<svg width="701.12" height="800" Googl="true" version="1.1" viewBox="0 0 568.69 648.89" xmlns="http://www.w3.org/2000/svg">
 <g transform="matrix(15.712 0 0 15.712 -289.18 -251.68)">
  <path d="m46.173 23.273a3.153 3.153 0 0 0-3.2-2.375c-2.339 0.01-4.955 2.035-7.04 3.567-2.589 1.9-4.909 3.895-7.372 3.44-1.322-0.244-1.894-0.855-2.083-1.4a19.187 19.187 0 0 0 0.34 2.033 3.384 3.384 0 0 0 2.748 2.143c2.393 0.341 5.206-1.855 7.474-3.56 2.128-1.6 4.749-3.565 6.713-3.543a2.921 2.921 0 0 1 2.761 1.748c-0.03-0.38-0.214-1.511-0.341-2.053z" fill="#ff6700"/>
  <path d="m27.842 20.819q0.525 1.128 2.686-0.673c3.367-2.807 5.121-4.085 9.228-3.591a10.194 10.194 0 0 0-11.914 4.264z" fill="#ff8533"/>
  <path d="m42.056 17.683c-1.659-1.065-4.268-0.475-7.611 1.973-1.035 0.758-2.539 1.907-3.6 2.619-1.261 0.842-3.022 2.03-3.875 0.462a8.013 8.013 0 0 0-0.37 1.553 1.914 1.914 0 0 0 2.006 1.625c1.885 0.032 3.631-1.595 6.3-3.575 2.8-2.08 4.756-3.446 7.039-3.179a4.52 4.52 0 0 1 3.339 1.918 9.64 9.64 0 0 0-3.228-3.396z" fill="#ffc700"/>
  <path d="m42.448 31.515c-3.366 2.807-5.12 4.085-9.228 3.591a10.194 10.194 0 0 0 11.914-4.263q-0.525-1.129-2.686 0.672z" fill="#ff4a33"/>
  <path d="m44.369 25.747c-1.885-0.033-3.63 1.594-6.3 3.574-2.8 2.08-4.756 3.446-7.039 3.179a4.52 4.52 0 0 1-3.339-1.918 9.653 9.653 0 0 0 3.228 3.4c1.658 1.065 4.268 0.475 7.61-1.973 1.035-0.758 2.539-1.907 3.6-2.619 1.261-0.842 3.022-2.03 3.875-0.462a7.948 7.948 0 0 0 0.365-1.552 1.913 1.913 0 0 0-2-1.629z" fill="#ff4a33"/>
  <path d="m29.88 42.416a2.772 2.772 0 1 0 2.732 2.772 2.6 2.6 0 0 0-2.732-2.772zm0 4.223c-0.851 0-1.3-0.5-1.3-1.451s0.45-1.451 1.3-1.451 1.3 0.51 1.3 1.451-0.45 1.451-1.3 1.451z" fill="#ff6700"/>
  <path d="m36.014 46.419a1.519 1.519 0 0 1-0.61 0.14c-0.33 0-0.49-0.2-0.49-0.58v-5.425h-1.482v5.655c0 1.081 0.561 1.751 1.582 1.751a2.576 2.576 0 0 0 1.131-0.24z" fill="#ff6700"/>
  <path d="m39.808 44.617-1.171-0.27c-0.371-0.079-0.491-0.17-0.491-0.36 0-0.27 0.23-0.38 0.791-0.38a4.723 4.723 0 0 1 1.872 0.42l0.13-1.291a5.876 5.876 0 0 0-1.952-0.32c-1.391 0-2.222 0.61-2.222 1.631a1.451 1.451 0 0 0 1.281 1.553l1.171 0.3c0.461 0.12 0.591 0.22 0.591 0.45-0.01 0.3-0.221 0.4-0.831 0.4a4.786 4.786 0 0 1-1.992-0.37l-0.14 1.331a6.542 6.542 0 0 0 2.132 0.25c1.381 0 2.212-0.59 2.212-1.7a1.559 1.559 0 0 0-1.381-1.644z" fill="#ff6700"/>
  <path d="m45.833 42.556 0.08 0.812-0.11 9e-3a1.545 1.545 0 0 0-1.662-0.961c-1.431 0-2.332 1.111-2.332 2.772s0.891 2.772 2.222 2.772c1.151 0 1.712-0.61 1.842-1.8l0.114 0.01-0.174 1.651h1.531v-5.265zm-1.322 4.093c-0.83 0-1.271-0.51-1.271-1.461s0.441-1.461 1.271-1.461 1.292 0.51 1.292 1.461-0.451 1.461-1.292 1.461z" fill="#ff6700"/>
  <path d="m51.868 46.409a1.873 1.873 0 0 1-0.731 0.15c-0.51 0-0.67-0.17-0.67-0.74v-1.912h1.251v-1.351h-1.251v-1.321l-1.482 0.22v1.1h-0.8v1.351h0.8v2.312a1.58 1.58 0 0 0 1.722 1.741 2.974 2.974 0 0 0 1.3-0.24z" fill="#ff6700"/>
  <path d="m25.131 51.773a2.773 2.773 0 0 0 0 5.545 2.773 2.773 0 0 0 0-5.545zm0 4.224c-0.851 0-1.3-0.5-1.3-1.451s0.45-1.452 1.3-1.452 1.3 0.511 1.3 1.452-0.45 1.454-1.3 1.454z" fill="#ff6700"/>
  <path d="m32.417 49.912v1.541l0.127 1.273-0.107 8e-3a1.545 1.545 0 0 0-1.662-0.961c-1.431 0-2.332 1.111-2.332 2.773s0.891 2.772 2.222 2.772c1.151 0 1.712-0.611 1.842-1.8l0.114 0.011-0.174 1.651h1.531v-7.268zm-1.271 6.095c-0.831 0-1.271-0.511-1.271-1.461s0.44-1.462 1.271-1.462 1.291 0.511 1.291 1.462-0.451 1.461-1.291 1.461z" fill="#ff6700"/>
  <path d="m39.342 51.913h-4.203v1.301h2.344l-2.414 2.713v1.251h4.333v-1.301h-2.551l2.491-2.783z" fill="#ff6700"/>
  <path d="m41.224 51.383c0.56 0 0.861-0.26 0.861-0.761s-0.3-0.761-0.861-0.761-0.861 0.271-0.861 0.761 0.301 0.761 0.861 0.761zm-0.741 5.794h1.482v-5.264h-1.482z" fill="#ff6700"/>
  <path d="m46.278 51.733c-1.121 0-1.671 0.571-1.8 1.721l-0.111-9e-3 0.15-1.532h-1.37v5.264h1.481v-3.022c0-0.761 0.36-1.1 1.191-1.1 0.58 0 0.89 0.34 0.89 0.981v3.142h1.481v-3.323c0-1.355-0.701-2.122-1.912-2.122z" fill="#ff6700"/>
  <path d="m53.084 51.913 0.08 0.812-0.11 9e-3a1.545 1.545 0 0 0-1.662-0.961c-1.431 0-2.331 1.111-2.331 2.773s0.89 2.772 2.221 2.772c1.151 0 1.712-0.611 1.842-1.8l0.114 0.011-0.174 1.651h1.536v-5.267zm-1.321 4.094c-0.831 0-1.271-0.511-1.271-1.461s0.44-1.462 1.271-1.462 1.291 0.511 1.291 1.462-0.454 1.461-1.291 1.461z" fill="#ff6700"/>
  <path d="m24.305 42.416a1.651 1.651 0 0 0-1.841 1.684l-0.111-0.01 0.151-1.531h-1.512v7.206h1.562v-1.675l-0.127-1.2 0.107-9e-3a1.573 1.573 0 0 0 1.7 1.081c1.4 0 2.292-1.111 2.292-2.772s-0.89-2.774-2.221-2.774zm-0.48 4.233c-0.841 0-1.291-0.51-1.291-1.461s0.45-1.461 1.291-1.461 1.271 0.51 1.271 1.461-0.441 1.461-1.271 1.461z" fill="#ff6700"/>
  <path d="m21.318 51.773c-0.871 0-1.342 0.571-1.5 1.722l-0.135-0.013 0.135-1.569h-1.413v5.265h1.481v-2.232c0-1.021 0.371-1.652 1.572-1.542l0.55 0.051 0.11-1.532a2.109 2.109 0 0 0-0.8-0.15z" fill="#ff6700"/>
 </g>
</svg>
