<svg version="1.1" viewBox="0 0 798.93 740" xml:space="preserve" xmlns="http://www.w3.org/2000/svg">
<g transform="matrix(1.6126 0 0 1.6126 0 -.00043277)">
	
		<path d="m153.43 199.56c32.55 4.635 70.833-25.237 101.69-48.435 28.948-21.767 64.61-48.509 91.328-48.21 17.482 0.2 32.784 10.226 37.576 23.789-0.458-5.184-2.937-20.577-4.709-27.958-3.386-10.076-12.631-32.451-43.475-32.318-31.827 0.142-67.406 27.7-95.78 48.543-35.221 25.886-66.798 52.994-100.31 46.804-17.981-3.328-25.761-11.641-28.34-19.038 0.341 4.701 2.704 19.554 4.627 27.658 4.317 9.67 13.495 25.762 37.392 29.165z" fill="#ffc700" Googl="true"/>
		<path d="m292.02 7.355c-63.595-21.076-127.51 4.643-162.1 58.004 0 0 7.148 15.36 36.545-9.153 45.813-38.192 69.677-55.574 125.56-48.851z" fill="#ffe003"/>
		<path d="m219.76 49.541c-14.087 10.318-34.548 25.944-49.042 35.629-17.149 11.466-41.112 27.625-52.72 6.291-1.689 5.275-4.851 16.258-4.967 21.126 0.574 6.931 7.355 21.767 27.3 22.108 25.636 0.441 49.391-21.7 85.686-48.634 38.142-28.299 64.702-46.887 95.771-43.259 24.621 2.879 36.428 14.487 45.431 26.102-7.805-14.969-23.564-33.133-43.917-46.205-22.557-14.495-58.07-6.465-103.54 26.842z" fill="#ccff2e"/>
		<path d="m203.09 259.75c63.594 21.076 127.51-4.643 162.1-58.003 0 0-7.148-15.36-36.545 9.153-45.813 38.192-69.677 55.573-125.56 48.85z" fill="#faad17"/>
		<path d="m275.35 217.56c14.087-10.318 34.547-25.944 49.042-35.629 17.149-11.466 41.112-27.625 52.72-6.291 1.689-5.275 4.851-16.258 4.967-21.126-0.574-6.931-7.355-21.767-27.3-22.108-25.636-0.441-49.391 21.7-85.686 48.634-38.142 28.299-64.702 46.887-95.771 43.259-24.621-2.879-36.428-14.487-45.431-26.102 7.805 14.969 23.564 33.133 43.917 46.205 22.557 14.495 58.069 6.466 103.54-26.842z" fill="#faad17"/>
	
	<g fill="#ffc700">
		
			<path d="m44.985 359.15c-15.641 0-23.194 7.62-24.999 22.86l-1.47-0.133 2.005-20.788h-20.521v97.789h21.189v-22.659l-1.671-16.309 1.403-0.134c2.473 8.422 9.692 14.638 23.127 14.638 18.983 0 31.081-15.039 31.081-37.632 1e-3 -22.66-12.097-37.632-30.144-37.632zm-6.551 57.483c-11.363 0-17.512-6.951-17.512-19.852 0-12.9 6.15-19.852 17.512-19.852 11.296 0 17.312 6.952 17.312 19.852 0 12.901-6.016 19.852-17.312 19.852z"/>
			<path d="m138.34 396.78c0-12.772-6.116-19.703-17.665-19.703s-17.665 6.931-17.665 19.703c0 12.906 6.116 19.703 17.665 19.703s17.665-6.797 17.665-19.703zm19.429 0c0 22.691-14.811 37.635-37.094 37.635s-37.094-14.944-37.094-37.635c0-22.69 14.811-37.634 37.094-37.634s37.094 14.944 37.094 37.634z"/>
			<path d="m203.96 414.04 1.905 17.931c-4.618 1.772-9.652 2.446-16.441 2.446-12.639 0-20.519-9.103-20.519-23.772v-76.766h20.111v73.638c0 5.167 2.172 7.88 6.249 7.88 3.262 0 5.3-0.267 8.695-1.357z"/>
			<path d="m271.76 411.19c0 14.403-11.416 23.231-30.029 23.231-10.193 0-19.837-2.172-29.347-6.382l4.077-15.085c10.051 3.669 16.85 5.026 24.996 5.026 7.613 0 11.557-2.039 11.557-6.249 0-3.262-1.631-4.892-7.472-6.116l-14.403-3.12c-12.639-2.854-18.755-9.652-18.755-21.201 0-13.721 11.549-22.141 30.437-22.141 8.828 0 17.257 1.631 26.085 5.567l-3.528 14.944c-6.798-2.846-15.218-4.343-23.106-4.343-7.331 0-11.133 1.905-11.133 5.566 0 2.721 1.764 4.219 6.107 5.167l15.36 3.262c12.497 2.579 19.154 10.192 19.154 21.874z"/>
			<path d="m333.61 361.02 1.069 11.029-1.47 0.134c-3.275-7.754-9.024-13.034-22.592-13.034-19.384 0-31.616 15.106-31.616 37.632 0 22.726 12.032 37.632 30.146 37.632 15.641 0 23.194-8.288 24.999-24.464l1.538 0.134-2.34 22.459h20.788v-71.52h-20.522zm-17.98 55.612c-11.229 0-17.245-6.951-17.245-19.852 0-12.9 6.016-19.852 17.245-19.852 11.43 0 17.579 6.952 17.579 19.852 0 12.901-6.149 19.852-17.579 19.852z"/>
			<path d="m416.36 430.87c-4.345 2.072-9.091 3.543-17.713 3.543-14.237 0-23.328-8.155-23.328-23.662v-31.348h-10.895v-18.315h10.895v-14.972l20.119-3.008v17.98h16.978v18.315h-16.978v25.934c0 7.754 2.139 10.093 9.09 10.093 3.275 0 6.082-0.869 9.892-2.473z"/>
		
		<path d="m478.98 352.62-21.06 12.231-9.918-16.167 24.862-14.81h22.558v98.641h-19.571v-80.71z"/>
	</g>
</g>
</svg>
