<?xml version="1.0" encoding="UTF-8" standalone="no"?>
<svg
   viewBox="0 0 480.6 364.44"
   version="1.1"
   id="svg179"
   xmlns="http://www.w3.org/2000/svg"
   xmlns:svg="http://www.w3.org/2000/svg">
  <defs
     id="defs150">
    <style
       id="style148">.cls-1{fill:#ffc700;}.cls-2{fill:#ffe300;}.cls-3{fill:#fff32d;}.cls-4{fill:#fbad18;}</style>
  </defs>
  <g
     id="Capa_2"
     data-name="Capa 2">
    <path
       class="cls-1"
       d="M125.55,403.34c-12.17,0-18.1,5.92-19.47,17.78l-1.17-.11,1.59-16.19h-16V481H107V463.34l-1.34-12.72,1.13-.08c1.9,6.56,7.51,11.42,18,11.42,14.82,0,24.23-11.74,24.23-29.31S139.63,403.34,125.55,403.34Zm-5.08,44.76c-8.89,0-13.65-5.4-13.65-15.45s4.76-15.45,13.65-15.45,13.44,5.4,13.44,15.45S129.26,448.1,120.47,448.1Z"
       transform="translate(-90.52 -119.08)"
       id="path152" />
    <path
       class="cls-1"
       d="M185.13,403.34c-17.36,0-28.89,11.64-28.89,29.31S167.77,462,185.13,462,214,450.32,214,432.65,202.49,403.34,185.13,403.34Zm0,44.66c-9,0-13.76-5.3-13.76-15.35s4.76-15.34,13.76-15.34,13.76,5.39,13.76,15.34S194.13,448,185.13,448Z"
       transform="translate(-90.52 -119.08)"
       id="path154" />
    <path
       class="cls-1"
       d="M542.23,403.34c-17.35,0-28.89,11.64-28.89,29.31S524.88,462,542.23,462s28.89-11.64,28.89-29.31S559.59,403.34,542.23,403.34Zm0,44.66c-9,0-13.76-5.3-13.76-15.35s4.77-15.34,13.76-15.34S556,422.7,556,432.65,551.23,448,542.23,448Z"
       transform="translate(-90.52 -119.08)"
       id="path156" />
    <path
       class="cls-1"
       d="M243.26,447.15c-3.49,0-5.19-2.12-5.19-6.14V383.65H222.41v59.79c0,11.43,5.93,18.52,16.72,18.52a27.24,27.24,0,0,0,12-2.53l-1.38-13.76A16,16,0,0,1,243.26,447.15Z"
       transform="translate(-90.52 -119.08)"
       id="path158" />
    <path
       class="cls-1"
       d="M289.53,426.62l-12.38-2.86c-3.91-.85-5.18-1.8-5.18-3.81,0-2.86,2.43-4,8.36-4a49.89,49.89,0,0,1,19.79,4.44l1.37-13.65a62.08,62.08,0,0,0-20.63-3.38c-14.71,0-23.5,6.45-23.5,17.25,0,9,4.13,14,13.55,16.4l12.38,3.17c4.87,1.27,6.24,2.33,6.24,4.77-.1,3.17-2.33,4.23-8.78,4.23-8.26,0-14.71-1.16-21.06-3.92l-1.48,14.08c5.71,1.9,12.06,2.64,22.54,2.64,14.6,0,23.39-6.24,23.39-18C304.14,435.19,299.9,429.05,289.53,426.62Z"
       transform="translate(-90.52 -119.08)"
       id="path160" />
    <path
       class="cls-1"
       d="M354.72,413.4l-1.16.1c-2.54-6-7-10.16-17.57-10.16-15.13,0-24.66,11.74-24.66,29.31S320.75,462,334.83,462c12.17,0,18.09-6.45,19.47-19l1.21.11-1.85,17.45h16.2V404.82h-16Zm-14.81,34.7c-8.79,0-13.44-5.4-13.44-15.45s4.65-15.45,13.44-15.45,13.65,5.4,13.65,15.45S348.8,448.1,339.91,448.1Z"
       transform="translate(-90.52 -119.08)"
       id="path162" />
    <path
       class="cls-1"
       d="M409.37,447.15c-5.4,0-7.09-1.8-7.09-7.83V419.1h13.23V404.82H402.28v-14l-15.67,2.33v11.64h-8.46V419.1h8.46v24.45c0,12.07,7.09,18.41,18.21,18.41,6.66,0,10.37-1,13.75-2.53l-1.48-13.87A19.64,19.64,0,0,1,409.37,447.15Z"
       transform="translate(-90.52 -119.08)"
       id="path164" />
    <path
       class="cls-1"
       d="M490.37,413.39l-1.16.09c-2.54-6-7-10.14-17.54-10.14-15.1,0-24.61,11.3-24.61,28.2s9.4,28.21,23.45,28.21c12.57,0,18.81-6.44,20.18-19l.9.09L491,454.26c-.43,10.14-5.92,15.32-16,15.32-6.65,0-11.09-1.59-20.39-5.81l-3.8,13.41c8.66,4.44,15.85,6.34,24.19,6.34,19.87,0,30.43-8.66,30.43-29.26V404.82h-16Zm-14.79,32.52c-8.77,0-13.42-5.07-13.42-14.37s4.65-14.36,13.42-14.36,13.63,5.07,13.63,14.36S484.46,445.91,475.58,445.91Z"
       transform="translate(-90.52 -119.08)"
       id="path166" />
    <path
       class="cls-1"
       d="M400.28,171.7c-25.21.11-53.39,21.94-75.86,38.45-27.9,20.5-52.91,42-79.45,37.07-14.25-2.63-20.41-9.21-22.46-15.08a209.47,209.47,0,0,0,3.67,21.91c3.42,7.66,10.69,20.4,29.62,23.1,25.78,3.68,56.11-20,80.54-38.36,22.93-17.24,51.18-38.43,72.35-38.19,13.84.16,26,8.1,29.76,18.84-.37-4.1-2.33-16.3-3.73-22.14C432,189.32,424.72,171.6,400.28,171.7Z"
       transform="translate(-90.52 -119.08)"
       id="path168" />
    <path
       class="cls-2"
       d="M266.12,163.6c36.28-30.25,55.19-44,99.45-38.69-50.37-16.69-101,3.68-128.39,45.94C237.18,170.85,242.83,183,266.12,163.6Z"
       transform="translate(-90.52 -119.08)"
       id="path170" />
    <path
       class="cls-3"
       d="M245.42,225.77c20.31.35,39.13-17.18,67.88-38.52,30.21-22.42,51.25-37.14,75.86-34.26,19.5,2.28,28.84,11.47,36,20.67-6.18-11.86-18.66-26.24-34.79-36.6-17.87-11.48-46-5.12-82,21.26-11.16,8.17-27.36,20.55-38.85,28.23-13.58,9.08-32.56,21.88-41.75,5-1.35,4.18-3.85,12.88-3.94,16.73C224.26,213.75,229.62,225.5,245.42,225.77Z"
       transform="translate(-90.52 -119.08)"
       id="path172" />
    <path
       class="cls-4"
       d="M394.59,286.13c-36.29,30.25-55.19,44-99.45,38.69,50.37,16.7,101-3.67,128.39-45.94C423.53,278.88,417.88,266.71,394.59,286.13Z"
       transform="translate(-90.52 -119.08)"
       id="path174" />
    <path
       class="cls-4"
       d="M415.28,224c-20.3-.35-39.12,17.19-67.87,38.52-30.21,22.42-51.25,37.14-75.86,34.27-19.5-2.28-28.85-11.47-36-20.67,6.18,11.85,18.66,26.24,34.78,36.59,17.87,11.48,46,5.12,82-21.26,11.16-8.17,27.36-20.55,38.84-28.22,13.59-9.08,32.57-21.89,41.76-5,1.34-4.17,3.85-12.87,3.94-16.73C436.45,236,431.08,224.23,415.28,224Z"
       transform="translate(-90.52 -119.08)"
       id="path176" />
  </g>
</svg>
