<svg version="1.1" viewBox="0 0 1001 525.32" xmlns="http://www.w3.org/2000/svg">
 <g fill="#fff">
  <path d="m154.12 443.09h-98.77l102.22-380.52h123.6c92.96 0 142.89 40.711 149.04 104.89 0 0 32.077-24.717 85.558-24.717 63.92 0 119.63 31.177 137.77 96.863l23.941-91.265h98.022l-3.9082 15.422s21.211-21.442 62.743-21.442c73.409 0 115.98 55.535 115.98 127.39 0 113.73-85.779 178.8-163.16 178.8-59.61 0-82.844-34.725-82.844-34.725l-29.062 111.02h325.24v-524.32h-1e3v524.32h576.85l35.303-132.54c-24.316 28.93-68.265 57.212-124.43 57.212-85.702 0-143.1-55.516-142.96-136.68 0 0-31.384 21.063-108.75 21.063h-53.03z"/>
  <path d="m231.14 152.97h45.262c35.773 0 53.179 14.899 53.179 37.644 0.47531 33.937-34.612 54.822-77.229 54.822h-44.963z"/>
  <path d="m441.1 310.19c0-45.877 36.628-82.073 70.665-82.073 32.252 0 51.018 20.92 51.018 53.87 0 43.88-33.9 81.861-70.876 81.861-28.448 0-50.807-16.532-50.807-53.659z"/>
  <path d="m736.64 310.19c0-45.877 35.534-81.439 69.927-81.439 32.59 0 53.032 22.187 53.032 53.236 0 43.88-32.143 81.861-71.619 81.861-28.747 0-51.34-16.532-51.34-53.659z"/>
 </g>
</svg>
