<svg width="199.85mm" height="211.67mm" version="1.1" viewBox="0 0 199.85 211.67" xmlns="http://www.w3.org/2000/svg">
 <g transform="translate(18.326 -45.374)">
  <path d="m171.4 190.83c-18.494 41.96-65.702 64.069-110.55 51.774-44.85-12.295-73.566-55.217-67.246-100.52 6.3197-45.298 45.734-79.057 92.299-79.057" fill="none" opacity=".97" stroke="#fff" stroke-width="22.128"/>
  <path d="m116.07 155.5a31.391 31.391 0 0 1-31.391 31.392 31.391 31.391 0 0 1-31.391-31.392 31.391 31.391 0 0 1 31.391-31.391 31.391 31.391 0 0 1 31.391 31.391z" fill="none" opacity=".97" stroke="#fff" stroke-width="40.938"/>
  <path d="m84.764 45.645 22.269 11.384c2.5183 1.2874 5.1068 2.277 5.1053 5.1053l-2e-3 3.0067c-2e-3 2.8283-2.6279 3.7408-5.1053 5.1053l-22.267 12.264c-2.4774 1.3645-5.1053-2.277-5.1053-5.1053v-26.655c0-2.8283 2.587-6.3927 5.1053-5.1053z" fill="#fff" opacity=".97"/>
 </g>
</svg>
