<svg width="200mm" height="150.52" viewBox="0 0 200 39.825" xmlns="http://www.w3.org/2000/svg">
    <path d="M29.752 18.523c-3.274.008-4.86.464-6.814 1.955-2.697 2.06-4.051 6.196-3.448 10.534.647 4.66 3.17 7.565 7.36 8.477 2.022.44 3.417.44 5.498-.002 4.552-.964 6.99-3.575 7.682-8.227.62-4.17-.764-8.638-3.295-10.64-2.07-1.635-3.636-2.105-6.983-2.097zm42.05.104c-1.384-.007-2.628.11-3.438.352-2.588.772-4.192 2.88-4.192 5.507 0 2.965 1.502 4.567 5.976 6.376 1.384.56 2.928 1.356 3.431 1.771 1.475 1.216 1.704 3.13.58 4.846-.567.865-1.926 1.382-3.638 1.382-2.954 0-4.582-1.46-5.285-4.738-.17-.795-.402-1.262-.625-1.262-.286 0-.354.57-.354 2.944v2.945l2.312.398c6.206 1.068 10.031.096 11.758-2.987.606-1.083.742-1.617.742-2.915 0-2.869-1.464-4.584-5.226-6.12-3.55-1.45-4.61-2.043-5.107-2.857-1.416-2.322.527-5.166 3.52-5.152 2.375.01 4.198 1.491 4.77 3.873.164.685.34 1.396.39 1.58.05.182.23.286.403.229.217-.073.333-.907.383-2.743l.07-2.64-2.195-.403a25.072 25.072 0 0 0-4.275-.387zm41.55.029a.718.718 0 0 0-.526.257c-.142.178-1.516 3.36-3.054 7.073-3.307 7.985-2.951 7.154-4.355 10.188-.998 2.156-1.203 2.437-1.77 2.437-.352 0-.64.14-.64.312v.001c0 .228.642.312 2.375.312s2.374-.084 2.374-.312c0-.199-.37-.312-1.016-.312-.898 0-1-.06-.875-.5.078-.276.21-.754.295-1.063.085-.31.496-1.437.913-2.506l.76-1.944 7.035.138 1.298 2.875 1.297 2.874-1.103.076c-.654.046-1.103.2-1.103.379 0 .225 1.147.301 4.5.299 3.431-.003 4.5-.078 4.5-.316 0-.18-.318-.313-.756-.313-.544 0-.823-.157-.998-.562-2.73-6.314-8.825-19.332-9.078-19.386a.384.384 0 0 0-.074-.008zm-70.969.202v3.002c0 2.593.055 3.001.403 3.001.297 0 .442-.332.554-1.274.308-2.6 1.5-3.727 4.146-3.916l1.772-.127v19.067h-1.125c-.733 0-1.125.109-1.125.312 0 .239 1.092.313 4.625.313s4.625-.074 4.625-.313c0-.203-.392-.312-1.125-.312h-1.125V19.553l1.622.104c1.103.07 1.843.264 2.312.606.917.668 1.816 2.475 1.816 3.651 0 .78.087.947.5.947.472 0 .5-.166.5-2.991v-2.992l-18.375-.02zm-36.795.003c-4.792 0-5.579.053-5.579.375 0 .278.292.375 1.125.375h1.125v19H1.134c-.733 0-1.125.109-1.125.312 0 .24 1.168.313 5 .316 3.86.002 5-.069 5-.312 0-.22-.46-.316-1.5-.316h-1.5v-8.5h2.197c2.316 0 4.673-.483 5.923-1.212 1.15-.672 2.293-2.339 2.486-3.627.33-2.199-.748-4.463-2.566-5.39-1.561-.797-3.639-1.02-9.461-1.02zm139.51 0l-1.443 3.687c-.794 2.028-1.59 4.025-1.77 4.438-.178.412-.748 1.819-1.264 3.125s-1.013 2.46-1.105 2.565c-.091.104-1.413-2.934-2.937-6.75l-2.77-6.94h-3.777c-2.348 0-3.778.094-3.78.25-.003.137.45.285 1.008.327l1.013.077-.032 8.423c-.018 4.632-.108 8.872-.2 9.422-.161.967-.202 1.003-1.226 1.077-1.005.073-1.267.258-.893.632.092.091 1.329.167 2.75.167 2.13 0 2.583-.066 2.583-.376 0-.268-.274-.375-.965-.375h-.965l-.158-1.312c-.086-.722-.15-4.969-.142-9.437l.016-8.125.5 1.125c.276.618 1.177 2.868 2.002 5 .825 2.131 1.65 4.212 1.832 4.624.182.413 1.036 2.584 1.897 4.825 2.047 5.325 2.03 5.325 4.166-.075.871-2.2 2.564-6.468 3.763-9.486l2.18-5.485.151 5.236c.084 2.88.169 7.007.188 9.173l.035 3.937h-1.125c-.81 0-1.125.1-1.125.358 0 .298.787.363 4.625.38 3.981.02 4.625-.03 4.625-.357 0-.284-.285-.38-1.125-.38-.904 0-1.126-.086-1.128-.438 0-.24-.075-4.516-.164-9.5l-.163-9.062h1.165c.868 0 1.165-.096 1.165-.376 0-.316-.579-.374-3.704-.374h-3.703zm-62.165.011c-1.666.016-1.926.112-1.926.338 0 .309.259.401 1.125.401h1.125v19h-1.125c-1.044 0-1.355.186-.965.576.088.088 2.928.12 6.312.073 4.694-.067 6.495-.183 7.598-.492 4.858-1.36 6.918-4.277 6.927-9.799.004-3.67-.853-5.808-3.136-7.817-2.096-1.845-3.373-2.1-11.173-2.231-2.258-.038-3.763-.058-4.762-.049zm-53.308.21a4.777 4.777 0 0 1 4.276 2.582c1.39 2.66 1.576 10.962.312 13.913-.723 1.69-1.444 2.55-2.56 3.058v-.001c-1.937.88-4.238.329-5.46-1.308-1.301-1.743-1.566-3.155-1.561-8.34.004-4.39.049-4.86.588-6.208.321-.802.916-1.835 1.32-2.297.82-.932 1.941-1.384 3.085-1.4zm58.382.47l2.349.102c2.075.091 2.49.19 3.56.852 2.31 1.428 3.225 4.31 3.034 9.56-.176 4.82-1.244 6.966-3.944 7.921-.618.22-1.996.466-3.061.548l-1.938.15V19.552zm-80.998.06h1.437c1.783 0 3 .579 3.68 1.75.409.703.508 1.316.508 3.124 0 2.626-.466 3.722-1.883 4.437-.525.265-1.434.437-2.305.438H7.01v-9.75zm104.263 5.002c.147-.003 2.998 6.73 2.99 7.06-.004.103-1.366.187-3.027.187-1.687 0-2.984-.1-2.938-.225.72-1.947 2.87-7.02 2.975-7.022z" fill="#6f7072" stroke-width="3.78"/>
    <path d="M164.38 39.63c-2.276-.551-3.838-1.973-4.55-4.143-.428-1.305-.46-2.236-.539-15.937l-.036-6.188-36.812-.005c-35.66-.005-36.845-.02-37.862-.482-.577-.262-1.646-.922-2.375-1.466-4.263-3.184-9.4-4.828-15.076-4.828-5.545 0-9.675 1.268-14.434 4.435-1.339.89-2.826 1.783-3.304 1.983-.711.297-2.657.363-10.628.363h-9.758V12.13l19.897-.142 2.489-1.671C55.827 7.337 59.648 5.9 64.619 5.34c3.031-.34 6.184-.083 9.512.777 2.495.645 6.954 2.81 9.21 4.472.94.692 2.066 1.323 2.5 1.4.435.079 16.596.11 35.915.07l35.125-.072 1.375-.648c2.555-1.203 4.116-3.402 4.892-6.892.35-1.572.488-1.85.887-1.786.44.071.476.387.534 4.701l.062 4.625 19.875.131v.622c0 .588-.076.622-1.375.622-.756 0-1.375.1-1.375.22 0 .224.516 1.564 1.118 2.905.186.413.954 2.27 1.707 4.125 2.711 6.681 4.234 10.38 4.363 10.595.19.317.26.16 3.08-6.844 2.654-6.599 4.026-10.477 3.821-10.808-.065-.106-.73-.192-1.478-.192-1.285 0-1.36-.035-1.36-.625v-.625h7v.625c0 .561-.102.625-.988.625h-.987l-1.205 2.438c-.662 1.34-3.115 7.192-5.45 13.004l-4.246 10.567-.743-.067c-.735-.066-.807-.217-6.13-12.942l-5.388-12.875h-10.135l.016 10.613c.01 5.837.086 11.049.17 11.582.097.598.464 1.295.963 1.824.668.71.986.856 1.852.856 2.392 0 3.656-1.397 5.146-5.688.06-.172.352-.312.649-.312.493 0 .525.09.374 1.036-.461 2.884-2.466 5.334-4.956 6.058-1.442.42-3.264.488-4.567.173z" fill="#c3103c"/>
    <path d="M.17 8.195c-.092-.092-.167-.427-.167-.746v-.578l47.701-.135 1.087-.817c3.342-2.511 6.96-4.153 11.587-5.259C62.767.09 63.671.003 67.253 0c4.5-.004 6.527.31 10.357 1.605 2.288.773 6.117 2.669 7.203 3.566.673.557.677.574.227 1.156l-.456.591-1.262-.907c-2.566-1.843-7.021-3.518-11.3-4.248-7.325-1.249-15.853.678-21.533 4.866-.938.691-2.115 1.318-2.75 1.464-1.24.286-47.287.384-47.57.102z" fill="#c3103c"/>
</svg>
