<svg xmlns="http://www.w3.org/2000/svg" height="127.25" width="600" viewBox="0 0 158.75 33.669">
    <g fill="#444141">
        <path d="M122.02 27.952c-.5-.227-1.07-.377-1.93-.377-.93 0-1.4.501-1.4 1.404 0 .828.42 1.433 1.4 1.433.75 0 1.51-.302 1.93-.654zm0 5.367v-.878c-.85.654-2 1.155-3.21 1.155-2.56 0-4.26-1.578-4.26-4.539 0-2.836 1.95-4.293 4.74-4.293 1.2 0 2.01.227 2.73.554v-.654c0-1.155-.62-1.557-1.85-1.557-1.36 0-2.39.253-3.67.957l-1.18-2.986c1.61-.779 3.39-1.205 5.68-1.205 3.68 0 5.29 1.83 5.29 4.891v8.555zM134.75 24.213c-.45-.377-.91-.629-1.61-.629-.93 0-1.43.579-1.43 3.039 0 2.634.5 3.259 1.46 3.259.65 0 1.13-.248 1.58-.625zm0 9.106v-.927c-.88.704-1.73 1.205-3.11 1.205-2.46 0-4.37-1.934-4.37-6.825 0-4.716 1.68-6.899 4.54-6.899 1.33 0 2.21.601 2.94 1.152v-4.187l4.54-1.809v18.29zM140.72 20.147h4.52V33.32h-4.52zm2.26-.952c-1.48 0-2.58-.853-2.58-2.236 0-1.276 1.1-2.182 2.58-2.182 1.55 0 2.63.906 2.63 2.182 0 1.383-1.08 2.236-2.63 2.236M152.48 23.536c-1.18 0-1.78.953-1.78 3.185 0 2.186.6 3.213 1.78 3.213s1.78-1.027 1.78-3.213c0-2.232-.6-3.185-1.78-3.185m0 10.062c-3.64 0-6.25-2.335-6.25-6.877 0-4.592 2.61-6.85 6.25-6.85s6.27 2.258 6.27 6.85c0 4.542-2.63 6.877-6.27 6.877M107.13 19.921h-2.95v3.86h2.87c1.59 0 2.22-.708 2.22-1.97 0-1.109-.6-1.89-2.14-1.89m1.89 13.677l-2.88-5.954h-1.96v5.954h-4.824V15.933h7.894c4.14 0 6.9 1.567 6.9 5.754 0 2.648-1.24 4.29-3.19 5.172l3.53 6.739z"/>
    </g>
    <g fill="#f03a1f">
        <path d="M8.005 33.667C2.787 33.667 0 29.803 0 24.607c0-5.644 3.31-9.057 8.03-9.057 4.314 0 6.02 1.856 7.225 5.168l-4.414 1.731c-.629-1.627-1.23-2.658-2.837-2.658-2.033 0-2.91 2.033-2.91 4.816 0 2.687.853 4.82 2.96 4.82 1.529 0 2.183-.828 3.135-2.485l4.116 2.183c-1.18 2.306-3.135 4.542-7.3 4.542M23.611 33.392v-7.479c0-1.706-.576-2.157-1.504-2.157-.956 0-1.532.451-1.532 2.107v7.529h-4.517V16.906l4.517-1.805v5.996c.828-.629 1.756-1.155 3.313-1.155 2.886 0 4.265 1.933 4.265 5.395v8.055zM37.762 25.186c-.576-.629-1.227-1.105-2.108-1.105-1.102 0-1.781.53-1.781 2.133v7.179h-4.517V20.217h4.517v.953c.779-.75 1.657-1.226 2.812-1.226.952 0 1.606.224 2.132.551zM39.722 20.218h4.514v13.173h-4.514zm2.257-.956c-1.483 0-2.584-.853-2.584-2.232 0-1.279 1.101-2.182 2.584-2.182 1.556 0 2.633.903 2.633 2.182 0 1.379-1.077 2.232-2.633 2.232M50.835 33.667c-1.933 0-3.813-.426-5.495-1.08l1.052-3.413c1.582.704 3.391 1.156 4.543 1.156.878 0 1.205-.203 1.205-.601 0-.43-.199-.604-1.052-.828-4.066-1.081-5.47-1.909-5.47-4.642 0-2.712 1.78-4.315 5.367-4.315 1.983 0 3.312.323 5.068.952l-1.002 3.487c-1.731-.753-3.035-1.105-4.191-1.105-.878 0-1.105.177-1.105.579s.153.551 1.308.903c3.714.977 5.218 1.855 5.218 4.464 0 3.039-2.083 4.443-5.446 4.443M65.615 32.965c-.878.427-1.983.704-3.263.704-2.381 0-3.486-1.205-3.486-4.191v-5.722h-2.009v-3.537h2.009v-3.341l4.393-1.777v5.118h2.857v3.537h-2.857v4.766c0 1.006.373 1.305 1.126 1.305.605 0 1.106-.224 1.806-.701zM67.201 20.218h4.517v13.173h-4.517zm2.257-.956c-1.483 0-2.588-.853-2.588-2.232 0-1.279 1.105-2.182 2.588-2.182 1.553 0 2.633.903 2.633 2.182 0 1.379-1.08 2.232-2.633 2.232M80.173 28.021c-.505-.224-1.081-.377-1.934-.377-.928 0-1.404.501-1.404 1.408 0 .828.427 1.429 1.404 1.429.754 0 1.507-.303 1.934-.654zm0 5.371v-.878c-.853.65-2.009 1.155-3.214 1.155-2.559 0-4.265-1.582-4.265-4.543 0-2.836 1.959-4.293 4.742-4.293 1.205 0 2.008.227 2.737.554v-.654c0-1.151-.63-1.557-1.859-1.557-1.355 0-2.385.253-3.661.956l-1.18-2.985c1.603-.779 3.383-1.205 5.669-1.205 3.689 0 5.296 1.83 5.296 4.891v8.559zM93.195 33.392v-7.479c0-1.706-.579-2.157-1.507-2.157-.952 0-1.532.451-1.532 2.107v7.529h-4.514V20.219h4.514v.878c.832-.629 1.76-1.155 3.316-1.155 2.887 0 4.262 1.933 4.262 5.395v8.055z"/>
    </g>
    <path d="M73.265 0H38.137v12.714h9.714v4.838l3.497-4.838h21.917z" fill-rule="evenodd" fill="#444141"/>
    <g fill="#fff">
        <path d="M42.026 3.745v2.132h.565c.306 0 .64 0 .871-.245.206-.22.263-.533.263-.828 0-.288-.074-.633-.298-.821-.26-.238-.505-.238-.836-.238zM40.214 8.88v-.74h.689V3.739h-.689v-.732h2.772c.54 0 1.002.057 1.404.476.334.352.49.839.49 1.322 0 .59-.163 1.08-.614 1.475-.395.338-.978.338-1.468.338h-.772v1.525h.86v.739zM46.855 5.444c.17-.765.689-1.074 1.453-1.003v1.067a1.574 1.574 0 0 0-.387-.064.956.956 0 0 0-.896.614c-.103.296-.103.697-.103 1.003v1.123h.697v.697h-2.364v-.697h.576V5.213h-.576v-.697h1.6zM51.354 6.289c-.007-.494-.206-1.198-.828-1.198-.69 0-.91.622-.96 1.198zm-1.813.632c-.007.622.252 1.344 1.002 1.344.434 0 .736-.295.811-.714h1.041c-.071.96-1.024 1.428-1.912 1.428a2.46 2.46 0 0 1-.91-.206 1.612 1.612 0 0 1-.665-.547c-.344-.444-.476-1.017-.476-1.568 0-1.197.682-2.25 2.005-2.25.579 0 1.13.157 1.532.583.355.377.458.992.483 1.486.007.132.025.253.007.377 0 .025-.007.043-.007.067zM54.254 5.23c.277-.558.739-.82 1.369-.82.582 0 1.012.223 1.215.82.238-.558.704-.82 1.273-.82.622 0 1.066.287 1.279.82.107.27.075.47.075.68v2.274h.533v.697h-2.143v-.697h.515V6.24c0-.445-.053-1.028-.647-1.028-.32 0-.547.15-.686.445-.142.288-.142.533-.142.846v1.681h.508v.697h-2.1v-.697h.501V6.165c0-.245 0-.434-.107-.665a.562.562 0 0 0-.483-.288c-.459 0-.704.281-.828.69-.057.213-.057.42-.057.64v1.642h.526v.697h-2.193v-.697h.576V5.213h-.576v-.697h1.592zM61.976 3.85h-1.092v-.998h1.092zm-1.671 5.03v-.697h.579V5.215h-.579v-.7h1.671v3.668h.508v.697zM65.58 6.289c-.007-.494-.206-1.198-.828-1.198-.69 0-.91.622-.96 1.198zm-1.813.632c-.007.622.252 1.344.999 1.344.437 0 .739-.295.814-.714h1.041c-.074.963-1.027 1.428-1.912 1.428-.277 0-.658-.088-.91-.206a1.612 1.612 0 0 1-.665-.547c-.344-.444-.476-1.017-.476-1.568 0-1.197.682-2.25 2.005-2.25.579 0 1.13.157 1.532.583.352.38.458.992.483 1.486.007.132.025.253.007.377 0 .025-.007.043-.007.067zM68.481 5.444c.171-.765.686-1.074 1.45-1.003v1.07a1.371 1.371 0 0 0-.384-.067.956.956 0 0 0-.895.614c-.107.296-.107.697-.107 1.003v1.123h.697v.697h-2.36v-.697h.572V5.213h-.572v-.697h1.599zM70.072 7.8h1.117v1.084h-1.117z"/>
    </g>
</svg>
