<svg width="782.87" height="749.95" viewBox="0 0 782.869 749.946" xmlns="http://www.w3.org/2000/svg">
    <g color="#000">
        <path d="M0 596.38l9.188 35.625 27.688-6.813v124.75h44.906v-167.06H48.485S7.28 594.354 0 596.382z" fill="#ee5d33"/>
        <g fill="#424244">
            <path d="M369.8 582.87h45.985v166.08H369.8zM444.5 582.85v166.09h44.438v-95.781l43.594 66.531 43.594-66.531v95.781h44.438V582.85h-48.562l-39.469 64-39.469-64h-23.562zM648.6 582.85v166.09h134.34v-39h-89.062v-26.594h80.5v-35.438h-80.5v-26.062h89.062v-39h-89.062zM89.6 582.85v39c8.487-.103 17.073.168 25.469 0 12.508 0 22 8.607 22 22 0 12.155-9.845 22-22 22-8.487-.19-17.675.013-25.469 0v35.438s.662-.04 25.749 0 67.285-10.41 67.285-59.188c0-48.528-42.176-59.231-67.285-59.234-25.108-.004-25.746-.016-25.746-.016zM202 582.85v166.09h45.812v-50.094c8.103.01 13.628-.01 20.656 0l33.125 50.094h52.469l-38.938-57.688c17.696-7.862 34.344-22.915 34.344-50.375 0-49.483-45.981-58.031-70.07-58.031-27.922-.071-51.329 0-77.398 0zm75.656 39c14.424 0 25.75 7.63 25.75 20.75 0 11.907-8.452 20.438-25.75 20.438-4.729-.097-17.348-.09-29.844-.062v-41.062c12.475.018 25.586.016 29.844-.062zM392.8 0C270.66 0 171.64 98.986 171.64 221.13c0 122.14 99.017 221.16 221.16 221.16 122.14 0 221.16-99.017 221.16-221.16C613.96 98.99 514.943 0 392.8 0zm0 21.829c110.07 0 199.3 89.228 199.3 199.3s-89.228 199.3-199.3 199.3c-110.07 0-199.3-89.228-199.3-199.3s89.228-199.3 199.3-199.3z"/>
        </g>
        <path d="M263 128.85l13.708 53.154 41.311-10.165v186.13h67.002v-249.27h-49.678s-61.483 17.116-72.344 20.143z" fill="#ee5d33"/>
        <path d="M396.6 108.66v58.19c12.663-.154 25.473.25 38.001 0 18.663 0 32.825 12.843 32.825 32.825 0 18.136-14.689 32.825-32.825 32.825-12.664-.282-26.372.02-38.001 0v52.875s.827-.035 38.418 0 100.39-15.532 100.39-88.311c0-72.406-62.946-88.332-100.39-88.381-37.447-.049-38.415-.024-38.415-.024z" fill="#424244"/>
    </g>
</svg>
