<?xml version="1.0" encoding="UTF-8" standalone="no"?>
<svg xmlns="http://www.w3.org/2000/svg" height="167.4" width="600" version="1.1" viewBox="0 0 600 167.39847">
 <g fill="#1de11c">
  <path d="m50.384 72.943c0 3.86 2.241 5.503 9.04 5.503h14.891v-9.537h-17.58c-3.91 0-6.351 1.12-6.351 4.034"/>
  <path d="m50.384 53.563c0 4.607 3.586 5.055 8.99 5.055h14.941v-9.537h-18.229c-3.586 0-5.703 1.693-5.703 4.482"/>
  <path d="m60.084 15.303c0.971 1.519 1.145 4.308 1.793 6.649 0.573 2.39 1.594 4.432 4.233 4.432 2.69 0 3.785-2.091 3.785-4.507 0-5.105-2.938-6.823-9.811-6.574"/>
  <path d="m38.334 137.17-0.897 7.05h12.476l0.598-7.05c0.274-3.16-1.096-5.41-5.354-5.41-4.358 0-6.425 2.29-6.823 5.41"/>
  <path d="m66.564 37.113c-10.857 0-10.011-11.629-11.555-19.075l-3.088-2.864c-2.49 0-3.461 2.964-3.461 5.18 0 2.988 1.344 4.881 4.158 5.379v10.061c-4.358-0.199-7.172-2.217-8.915-5.13-1.668-2.889-2.316-6.699-2.316-10.409 0-6.873 1.37-13.522 8.144-15.016l-28.065 0.0001h-3.686v86.66l-17.78 69.301v4.24h74.309v-10.11h-48.809l3.163-19.7c1.12-7.07 6.001-13.42 16.685-13.42 11.206 0 15.289 5.1 14.842 13.42l-0.474 8.56h14.593v-24.03h-36.158l1.196-9.01h6.375v-0.1c-4.433-1.3-5.902-4.53-5.404-8.19l0.249-1.77h10.21l-0.224 2.34c-0.274 2.99 0.274 7.47 7.147 7.47h16.61v-11.333h-32.996l1.021-7.744h31.975v-3.088h-31.95v-9.961h4.557v-0.125c-3.337-1.967-5.528-5.453-5.528-9.438 0-4.108 1.369-7.296 5.403-9.089-3.536-2.59-5.403-5.802-5.403-10.235 0-10.434 8.043-11.106 14.394-11.106h18.527v-5.08c-1.669 2.117-4.234 3.412-7.745 3.412m-28.264 62.48h-8.616l1.369-7.695h8.368z"/>
  <path d="m202.74 134.22 1.55 2.07c0 1.37-0.95 3.76-2.84 7.2-1.87 3.41-5.06 7.37-9.51 11.83-7.7 7.87-18.75 11.83-33.17 11.83h-12.6c-7.2 0-13.75-1.08-19.68-3.22-5.9-2.14-10.95-5.23-15.16-9.26-4.19-4.03-7.42-8.84-9.64-14.39-2.217-5.58-3.338-11.78-3.338-18.66v-76.099c0-6.849 1.146-13.074 3.458-18.652 2.32-5.554 5.53-10.31 9.64-14.269 4.13-3.9348 9.14-7.0226 15.04-9.2639 5.93-2.2163 12.48-3.3369 19.67-3.3369h12.61c5.82 0.00003805 11.15 0.6973 15.96 2.0669 4.78 1.3696 9.16 3.5113 13.1 6.4248 2.56 1.8921 4.88 3.9341 6.94 6.1751l5.13 6.425 3.22 5.653 1.17 3.611-1.55 2.042-22.36 11.057-1.29 0.249-1.8-1.146-1.79-3.212c-2.24-3.935-4.63-6.998-7.22-9.139-2.57-2.142-5.73-3.213-9.51-3.213h-12.61c-5.13 0-9.51 1.818-13.09 5.404-3.61 3.611-5.41 7.969-5.41 13.124v76.099c0 5.16 1.8 9.52 5.41 13.13 3.58 3.58 7.96 5.38 13.09 5.38h12.61c3.78 0 6.89-1.02 9.38-3.07 2.49-2.06 4.86-5.15 7.08-9.26 1.54-3.26 2.84-4.88 3.86-4.88l1.29 0.25 22.36 11.06z"/>
  <path d="m252.88 41.143v85.117c0 4.81 1.15 8.14 3.46 10.01 2.32 1.89 4.59 2.84 6.83 2.84l1.29 0.25 1.27 2.31v23.16l-1.54 2.29-3.59 0.28c-4.98-0.18-9.78-1.35-14.39-3.49-4.63-2.14-8.77-5.08-12.35-8.86-3.61-3.76-6.48-8.1-8.62-12.98s-3.21-10.16-3.21-15.81v-85.117c0-5.653 1.07-10.932 3.21-15.813s5.01-9.214 8.62-12.974c3.58-3.7848 7.72-6.7481 12.35-8.8897 4.61-2.1416 9.41-3.287 14.39-3.4614l3.59 0.24911 1.54 2.3159v23.134l-1.27 2.316-1.29 0.273c-2.24 0-4.51 0.947-6.83 2.814-2.31 1.893-3.46 5.23-3.46 10.036"/>
  <path d="m304.31 41.143c0-4.806-1.14-8.143-3.46-10.036-2.31-1.868-4.6-2.814-6.82-2.814l-1.3-0.274-1.27-2.316v-23.134l1.55-2.3155 3.58-0.24899c4.81 0.17429 9.52 1.3198 14.15 3.4614s8.74 5.1049 12.35 8.8901c3.59 3.76 6.5 8.093 8.74 12.974 2.22 4.881 3.34 10.16 3.34 15.813v85.117c0 5.65-1.12 10.93-3.34 15.81-2.24 4.88-5.15 9.22-8.74 12.98-3.61 3.78-7.72 6.72-12.35 8.86s-9.34 3.31-14.15 3.49l-3.58-0.28-1.55-2.29v-23.16l1.27-2.31 1.3-0.25c2.22 0 4.51-0.95 6.82-2.84 2.32-1.87 3.46-5.2 3.46-10.01v-85.118z"/>
  <path d="m391.73 41.143v85.117c0 4.81 1.15 8.14 3.46 10.01 2.32 1.89 4.59 2.84 6.83 2.84l1.29 0.25 1.27 2.31v23.16l-1.54 2.29-3.59 0.28c-4.98-0.18-9.78-1.35-14.39-3.49-4.63-2.14-8.77-5.08-12.35-8.86-3.61-3.76-6.48-8.1-8.62-12.98s-3.21-10.16-3.21-15.81v-85.117c0-5.653 1.07-10.932 3.21-15.813s5.01-9.214 8.62-12.974c3.58-3.7848 7.72-6.7481 12.35-8.8897 4.61-2.1416 9.41-3.287 14.39-3.4614l3.59 0.24911 1.54 2.3159v23.134l-1.27 2.316-1.29 0.273c-2.24 0-4.51 0.947-6.83 2.814-2.31 1.893-3.46 5.23-3.46 10.036"/>
  <path d="m443.16 41.143c0-4.806-1.15-8.143-3.47-10.036-2.31-1.868-4.6-2.814-6.82-2.814l-1.29-0.274-1.27-2.316v-23.134l1.54-2.3155 3.59-0.24899c4.8 0.17429 9.51 1.3198 14.14 3.4614s8.74 5.1049 12.35 8.8901c3.59 3.76 6.5 8.093 8.74 12.974 2.22 4.881 3.34 10.16 3.34 15.813v85.117c0 5.65-1.12 10.93-3.34 15.81-2.24 4.88-5.15 9.22-8.74 12.98-3.61 3.78-7.72 6.72-12.35 8.86s-9.34 3.31-14.14 3.49l-3.59-0.28-1.54-2.29v-23.16l1.27-2.31 1.29-0.25c2.22 0 4.51-0.95 6.82-2.84 2.32-1.87 3.47-5.2 3.47-10.01v-85.118z"/>
  <path d="m600 161.99-2.56 2.57h-90.77l-2.57-2.57v-156.86l2.57-2.5607h24.43l2.56 2.5649v129.86l2.57 2.57h61.2l2.57 2.56v21.87z"/>
 </g>
</svg>
