<svg xmlns="http://www.w3.org/2000/svg" height="170.32" width="600" viewBox="0 0 158.75 45.064">
    <path d="M4.318 26L0 45.06h18.973v-2.61H6.319l.813-5.12c.299-1.83 1.561-3.48 4.326-3.48 2.906 0 3.969 1.33 3.853 3.48l-.116 2.23h3.778v-6.24H9.59L9.906 31h1.652v-.04c-1.146-.34-1.528-1.17-1.395-2.12.017-.17.058-.46.058-.46h2.649l-.058.61c-.075.77.074 1.93 1.851 1.93h4.31v-2.93h-8.561l.274-2.02h8.287v-.8h-8.287v-2.58h1.188v-.03c-.872-.51-1.437-1.41-1.437-2.44 0-1.06.349-1.89 1.395-2.36-.913-.67-1.395-1.5-1.395-2.65 0-2.71 2.084-2.88 3.728-2.88h4.808v-1.32c-.432.55-1.096.89-2.01.89-2.814 0-2.599-3.02-2.997-4.95-.1-.48-.266-.74-.797-.74-.648 0-.897.76-.897 1.35 0 .76.349 1.25 1.079 1.38v2.61c-1.129-.05-1.868-.57-2.316-1.33-.432-.75-.598-1.73-.598-2.7 0-1.77.349-3.5 2.117-3.88H4.318zm5.604 0l-.29 1.99H7.406L7.755 26zm5.829-18.14c.15.63.415 1.15 1.096 1.15.698 0 .98-.54.98-1.16 0-1.33-.764-1.77-2.549-1.71.249.39.299 1.12.473 1.72m-4.334 28.47c-1.138 0-1.669.59-1.777 1.4l-.224 1.83h3.23l.157-1.83c.067-.81-.29-1.4-1.386-1.4m1.353-20.27c0 1.19.93 1.31 2.325 1.31h3.878V14.9h-4.725c-.93 0-1.478.44-1.478 1.16m0 5.02c0 1.01.581 1.43 2.342 1.43h3.861v-2.47h-4.559c-1.013 0-1.644.29-1.644 1.04M33.502 4.88c2.5 0 4.351.79 6.045 2.33.224.21.224.5.025.7l-1.951 2.02a.427.427 0 0 1-.623 0 5.122 5.122 0 0 0-3.371-1.27c-2.823 0-4.891 2.34-4.891 5.15 0 2.77 2.093 5.07 4.916 5.07 1.171 0 2.449-.43 3.346-1.21.174-.14.498-.14.648.03l1.951 2.07c.174.18.149.51-.025.68-1.702 1.65-3.844 2.43-6.07 2.43-4.998 0-9.017-3.98-9.017-8.97 0-5.01 4.019-9.03 9.017-9.03M53.441 18.87c2.748 0 4.99-2.24 4.99-4.96 0-2.75-2.242-5.02-4.99-5.02-2.724 0-4.974 2.27-4.974 5.02 0 2.72 2.25 4.96 4.974 4.96m0-13.99c4.99 0 8.992 4.03 8.992 9.03 0 4.99-4.002 8.97-8.992 8.97a8.917 8.917 0 0 1-8.968-8.97c0-5 3.969-9.03 8.968-9.03M70.432 5.29c.025-.23.25-.41.448-.41h.4a.59.59 0 0 1 .43.26l5.788 10.79h.058l5.788-10.79c.074-.15.298-.26.423-.26h.407c.2 0 .423.18.448.41l2.823 16.78c.05.33-.174.55-.481.55h-2.948c-.224 0-.44-.2-.473-.39l-1.121-7.73h-.05l-4.193 8.1a.576.576 0 0 1-.423.27h-.457a.535.535 0 0 1-.424-.27l-4.218-8.1h-.05l-1.104 7.73c-.016.19-.224.39-.473.39h-2.948c-.299 0-.523-.22-.473-.55zM93.893 5.61c0-.25.2-.47.474-.47h10.337c.282 0 .482.22.482.47v2.73c0 .25-.2.46-.482.46h-6.916v3.11h5.696c.249 0 .473.22.473.46v2.74c0 .27-.224.46-.473.46h-5.696v3.38h6.916c.282 0 .482.23.482.47v2.72c0 .27-.2.48-.482.48H94.367a.466.466 0 0 1-.474-.48zM118.076 18.93c2.823 0 4.874-2.23 4.874-5.07 0-2.83-2.051-5.05-4.874-5.05h-2.399v10.12zm-6.293-13.32c0-.25.199-.46.448-.46h6.094c4.825 0 8.769 3.91 8.769 8.71 0 4.84-3.944 8.76-8.769 8.76h-6.094c-.249 0-.448-.22-.448-.48zM136.269 14.2l-5.521-8.33c-.2-.34 0-.73.398-.73h3.247a.49.49 0 0 1 .398.22l3.479 5.12 3.471-5.12c.075-.1.174-.22.399-.22h3.246c.399 0 .598.39.399.73l-5.597 8.31v7.96c0 .26-.224.48-.473.48h-2.972a.472.472 0 0 1-.474-.48zM137.436 43.71c-2.342 0-4.06-.73-5.655-2.17-.199-.19-.199-.47-.016-.65l1.818-1.89a.395.395 0 0 1 .581 0c.864.77 2.01 1.18 3.156 1.18 2.64 0 4.575-2.19 4.575-4.8 0-2.59-1.96-4.74-4.6-4.74-1.096 0-2.284.39-3.131 1.12-.166.14-.465.14-.606-.03l-1.818-1.93a.47.47 0 0 1 .025-.63c1.586-1.55 3.587-2.27 5.671-2.27 4.666 0 8.428 3.71 8.428 8.38s-3.762 8.43-8.428 8.43M125.919 43.04a.44.44 0 0 1-.44.44h-9.665a.446.446 0 0 1-.449-.44v-2.55c0-.24.191-.44.449-.44h6.468v-2.91h-5.331c-.232 0-.44-.2-.44-.43v-2.55c0-.26.208-.44.44-.44h5.331v-3.16h-6.468a.44.44 0 0 1-.449-.44v-2.54c0-.24.191-.44.449-.44h9.665c.257 0 .44.2.44.44zM109.22 43.29c0 .24-.207.42-.44.42h-.589l-9.316-8.96h-.017v8.29c0 .23-.191.44-.448.44h-2.799a.456.456 0 0 1-.44-.44V27.32c0-.23.208-.43.44-.43h.374c.066 0 .257.08.307.12l9.225 9.28h.017v-8.71c0-.24.182-.44.44-.44h2.781c.233 0 .449.2.449.44zM86.005 40.05h3.338c.258 0 .449.2.449.44v2.55c0 .23-.191.44-.449.44H78.981a.439.439 0 0 1-.44-.44v-2.55c0-.24.183-.44.44-.44h3.338V27.58c0-.24.208-.44.448-.44h2.798c.233 0 .44.2.44.44zM66.046 36.49c-.955 0-1.777.89-1.777 1.87s.822 1.77 1.777 1.77H69.5v-3.64zm7.115 6.55a.44.44 0 0 1-.44.44h-6.983c-2.798 0-5.089-2.27-5.089-5.05 0-2.14 1.419-3.87 3.454-4.69l-3.197-5.93c-.158-.31 0-.67.399-.67h3.105c.183 0 .324.1.374.2l3.105 6.19h1.61v-5.95c0-.24.208-.44.44-.44h2.782c.258 0 .44.2.44.44zM46.984 32.73l1.777 3.86h.025l1.752-3.86zm9.599-4.99l-7.307 15.71c-.075.14-.241.26-.399.26h-.232c-.166 0-.324-.12-.399-.26l-7.307-15.71c-.141-.3.05-.6.399-.6h2.591c.415 0 .606.13.813.58l.847 1.83h6.344l.847-1.86c.116-.29.373-.55.838-.55h2.566c.357 0 .54.3.399.6M35.986 43.04a.44.44 0 0 1-.44.44h-2.782a.456.456 0 0 1-.44-.44V30.56h-5.563c-.257 0-.44-.2-.44-.44v-2.54c0-.24.183-.44.44-.44h8.785c.257 0 .44.2.44.44zM157.222 1.55A5.135 5.135 0 0 0 153.544 0c-1.86 0-3.595 1.04-4.534 2.7l-.049.09.805.47.05-.1a4.266 4.266 0 0 1 3.728-2.22c2.35 0 4.268 1.94 4.268 4.31 0 2.39-1.918 4.33-4.268 4.33a4.253 4.253 0 0 1-3.745-2.25l-.05-.09-.813.44.05.09a5.183 5.183 0 0 0 4.558 2.75c2.873 0 5.206-2.36 5.206-5.27 0-1.38-.54-2.7-1.528-3.7"/>
    <path d="M153.538 3.53c.631 0 1.204.34 1.503.88l.025.05.814-.44-.025-.05a2.617 2.617 0 0 0-2.317-1.37 2.645 2.645 0 0 0-2.64 2.65c0 1.48 1.179 2.68 2.64 2.68a2.62 2.62 0 0 0 2.333-1.4l.025-.05-.805-.44-.025.05c-.324.57-.889.91-1.528.91-.938 0-1.702-.78-1.702-1.75 0-.94.764-1.72 1.702-1.72"/>
</svg>
