<svg xmlns="http://www.w3.org/2000/svg" height="370.98" width="600">
    <path fill="#4e91d4" d="M168.97 102.55h-41.409c-8.14 0-12.97 3.9-12.97 10.195 0 10.483 8.167 11.543 20.403 11.543h33.975V102.55zM150.35 50.97c6.099 0 8.612-4.764 8.612-10.195 0-11.661-6.701-15.535-22.327-14.972 2.146 3.455 2.59 9.75 4.083 15.077 1.322 5.484 3.638 10.09 9.632 10.09M87.21 302.87l-2.015 15.98h28.307l1.4-15.98c.59-7.211-2.512-12.315-12.184-12.315-9.947 0-14.62 5.183-15.51 12.315M114.59 156.81c0 8.782 5.13 12.538 20.6 12.538h33.779v-21.699h-39.93c-8.913 0-14.449 2.618-14.449 9.161"/>
    <path fill="#4e91d4" d="M70.673 199.96h19.003l-2.565 17.446H67.558l3.115-17.446zM0 367.22h168.99l-.013-23.126H58.047l7.146-44.759c2.578-16.058 13.676-30.507 37.94-30.507 25.456 0 34.775 11.609 33.767 30.507l-1.047 19.514h33.125V264.13H86.762l2.722-20.443h14.527l.026-.262c-10.137-3-13.448-10.35-12.322-18.69.183-1.479.55-3.978.55-3.978h23.23l-.51 5.287c-.616 6.806.654 16.922 16.241 16.922h37.744v-25.678H93.926l2.395-17.642h72.65v-7.015H96.346v-22.628h10.34v-.314c-7.552-4.424-12.526-12.342-12.526-21.424 0-9.331 3.09-16.608 12.224-20.626-7.996-5.902-12.224-13.232-12.224-23.296 0-23.715 18.231-25.246 32.653-25.246h42.155V67.528c-3.743 4.803-9.593 7.774-17.616 7.774-24.657 0-22.746-26.437-26.267-43.385-.89-4.175-2.342-6.491-7.015-6.491-5.68 0-7.865 6.766-7.865 11.805 0 6.78 3.05 11.02 9.501 12.21v22.852c-9.96-.445-16.386-5.039-20.325-11.674-3.808-6.583-5.221-15.221-5.221-23.662 0-15.574 3.088-30.77 18.519-34.106H40.476v196.97L.026 357.35l-.027 9.8z"/>
    <path fill="#231f20" d="M240.96 146.89v-.667c0-4.712 1.78-8.94 5.104-12.734l98.471-106.52h-88.864c-6.491 0-12.093-5.314-12.093-12.041 0-6.636 5.602-12.263 12.093-12.263h113.67c6.714 0 12.315 5.627 12.315 12.04v.694c0 4.672-1.479 9.07-4.908 12.721L278.081 134.6h91.233c6.623 0 12.25 5.562 12.25 12.29 0 6.687-5.627 12.066-12.25 12.066h-116.11c-6.452 0-12.237-5.627-12.237-12.067M571.22 81.26v-.471c0-30.337-22.131-55.544-53.162-55.544-31.017 0-52.717 24.735-52.717 55.125v.419c0 30.376 22.157 55.36 53.175 55.36 31.044 0 52.704-24.54 52.704-54.89m-134.63 0v-.47c0-43.961 33.949-80.79 81.928-80.79 47.992 0 81.483 36.41 81.483 80.372v.418c0 43.974-33.949 80.842-81.941 80.842-47.979 0-81.47-36.423-81.47-80.37M361.87 290.59v-.419c0-30.324-22.131-55.596-53.149-55.596-31.004 0-52.651 24.762-52.651 55.151v.445c0 30.337 22.092 55.373 53.07 55.373 31.083 0 52.73-24.592 52.73-54.955m-134.62 0v-.419c0-43.987 33.936-80.829 81.889-80.829 48.018 0 81.483 36.396 81.483 80.384v.445c0 43.948-33.923 80.816-81.902 80.816s-81.47-36.436-81.47-80.397M444.24 224.84c0-7.604 6.046-13.834 13.886-13.834h2.892c6.02 0 10.012 3.102 12.734 7.368l44.563 69.98 44.786-70.176c2.932-4.711 6.937-7.172 12.512-7.172h2.88c7.826 0 13.834 6.23 13.834 13.834v130.81c0 7.604-6.008 13.624-13.834 13.624-7.342 0-13.598-6.23-13.598-13.624v-93.72l-35.402 53.201c-2.932 4.45-6.492 7.185-11.648 7.185-4.908 0-8.468-2.735-11.373-7.185L471.24 262.35v93.497c0 7.617-6.034 13.428-13.598 13.428-7.578 0-13.402-5.81-13.402-13.428v-131.01z"/>
</svg>
