<!DOCTYPE svg  PUBLIC '-//W3C//DTD SVG 1.1//EN'  'http://www.w3.org/Graphics/SVG/1.1/DTD/svg11.dtd'>
<svg clip-rule="evenodd" fill-rule="evenodd" stroke-linecap="round" stroke-linejoin="round" version="1.1" viewBox="0 0 148 71" xml:space="preserve" xmlns="http://www.w3.org/2000/svg" xmlns:serif="http://www.serif.com/"><g fill-rule="nonzero" serif:id="Ebene 1"><path d="m127.17 12.354c-1.122 0-2.021 0.143-2.827 0.451-2.003 0.765-3.247 2.533-3.247 4.616 0 1.686 1.247 3.834 3.711 6.394h-3.77c-3.712 0-4.583 3.893-5.159 6.47-0.574 2.564-1.087 5.824-1.417 8.107-0.762 5.271-1.582 12.602-1.582 16.242v0.054l1e-3 0.055c0.057 2.069 0.058 3.755 0.059 5.11 2e-3 2.564 3e-3 4.112 0.383 5.448 0.339 1.19 1.547 3.956 5.44 3.956 0.083 0 0.168-1e-3 0.256-3e-3h22.66l0.131 4e-3c0.162 6e-3 0.339 0.012 0.518 0.012 3.561 0 5.183-2.432 5.183-4.691 0-0.643 0-1.373-2.133-5.901-1.555-3.302-2.898-6.154-5.926-6.154-1.414 0-2.522 0.606-3.695 1.247-1.404 0.768-3.151 1.723-5.413 1.723-1.484 0-2.237-0.342-2.237-2.21 0-1.967 1.674-2.119 2.187-2.119 0.667 0 1.545 0.276 2.187 0.478 0.689 0.217 1.338 0.421 2.12 0.421 3.038 0 4.112-2.572 5.597-6.132 1.769-4.24 1.769-4.515 1.769-5.247 0-0.789-0.188-1.513-0.535-2.15 1.368-0.929 2.307-2.673 3.342-4.593 2.143-3.979 2.143-4.589 2.143-5.361 0-0.489-0.163-4.773-5.813-4.773-0.155 0-0.3 3e-3 -0.427 5e-3l-0.136 2e-3h-0.936c-0.266-0.741-0.659-1.335-0.922-1.727l-3.704-6.292c-1.077-1.81-2.301-3.421-5.516-3.421-0.15 0-0.317 2e-3 -0.502 5e-3 -0.19 3e-3 -0.404 6e-3 -0.647 6e-3 -0.071-1e-3 -0.161-6e-3 -0.262-0.01-0.263-0.011-0.566-0.022-0.881-0.022m13.933 15.454c0.757 0 1.813 0.08 1.813 0.773 0 0.359-3.168 6.659-3.812 6.659-0.841 0-2.327-2.115-7.177-2.115-3.416 0-7.029 1.845-7.029 6.165 0 0.945 0.198 2.565 1.584 2.565 1.584 0 5.098-2.115 9.256-2.115 0.594 0 2.228 0.18 2.228 0.945 0 0.045-2.773 7.379-3.366 7.379-0.495 0-2.376-0.899-4.307-0.899-2.524 0-6.187 1.665-6.187 6.119 0 3.6 2.079 6.21 6.237 6.21 4.9 0 7.92-2.97 9.108-2.97 0.742 0 4.059 7.605 4.059 8.055 0 0.602-0.613 0.691-1.183 0.691-0.24 0-0.473-0.016-0.649-0.016h-22.72c-0.068 2e-3 -0.133 3e-3 -0.196 3e-3 -2.388 0-1.642-1.723-1.883-10.623 0-6.03 2.722-26.819 4.158-26.819h19.503c0.136 0 0.337-7e-3 0.563-7e-3m-13.933-11.454c0.453 0 0.875 0.032 1.143 0.032 0.473 0 0.846-0.011 1.149-0.011 1.124 0 1.289 0.14 2.069 1.451l3.762 6.389c0.148 0.225 0.594 0.855 0.594 1.171 0 0.27-0.347 0.315-0.644 0.315-4.141 0-10.147-7.2-10.147-8.28 0-0.921 1.104-1.067 2.074-1.067"/><path d="m135.3 24.216c0.148 0.225 0.594 0.855 0.594 1.17 0 0.27-0.346 0.315-0.643 0.315-4.142 0-10.148-7.199-10.148-8.279 0-1.351 2.376-1.036 3.218-1.036 2.227 0 2.227-0.224 3.217 1.44l3.762 6.39zm-16.334 41.039c-2.624 0.089-1.832-1.485-2.08-10.62 0-6.03 2.723-26.819 4.158-26.819h19.503c0.594 0 2.376-0.135 2.376 0.765 0 0.36-3.168 6.66-3.811 6.66-0.842 0-2.327-2.115-7.178-2.115-3.415 0-7.029 1.845-7.029 6.165 0 0.945 0.198 2.565 1.584 2.565 1.584 0 5.099-2.116 9.257-2.116 0.594 0 2.227 0.181 2.227 0.946 0 0.045-2.772 7.379-3.366 7.379-0.495 0-2.376-0.9-4.307-0.9-2.524 0-6.187 1.665-6.187 6.12 0 3.6 2.079 6.21 6.237 6.21 4.901 0 7.92-2.97 9.108-2.97 0.742 0 4.059 7.605 4.059 8.055 0 0.855-1.238 0.675-1.831 0.675h-22.72z" fill="#ff0c75"/><path d="m104.44 23.808c-2.582 0-5.361 1.479-5.361 4.728 0 1.317 0.547 2.328 1.029 3.219 0.782 1.444 2.237 4.131 2.237 10.145 0 4.42-2.043 8.012-3.513 9.737-1.445-1.944-3.435-5.6-3.435-9.737 0-6.196 1.205-8.966 1.852-10.455 0.379-0.871 0.771-1.773 0.771-2.909 0-0.484-0.161-4.728-5.743-4.728-0.16 0-0.31 3e-3 -0.441 5e-3l-0.143 3e-3h-5.642c-6.673 0-6.673 9.348-6.673 14.934 0 21.79 15.102 31.584 18.998 31.584 6.321 0 19.196-14.203 19.196-30.684 0-13.087-3.736-15.834-6.871-15.834h-5.741l-0.131-3e-3c-0.121-3e-3 -0.253-5e-3 -0.389-5e-3m0 4c0.195 0 0.377 8e-3 0.52 8e-3h5.741c1.139 0 2.871 3.6 2.871 11.834 0 15.525-12.226 26.684-15.196 26.684-0.99 0-14.998-7.109-14.998-27.584 0-10.709 1.782-10.934 2.673-10.934h5.642c0.143 0 0.351-8e-3 0.584-8e-3 0.742 0 1.743 0.078 1.743 0.728 0 1.17-2.623 3.87-2.623 13.364 0 8.055 5.791 14.67 6.979 14.67 2.574 0 7.969-6.615 7.969-14.67 0-9.494-3.266-12.194-3.266-13.364 0-0.65 0.743-0.728 1.361-0.728"/><path d="m110.7 27.816c1.139 0 2.871 3.6 2.871 11.834 0 15.525-12.226 26.685-15.196 26.685-0.99 0-14.999-7.11-14.999-27.584 0-10.71 1.782-10.935 2.674-10.935h5.642c0.594 0 2.327-0.135 2.327 0.72 0 1.17-2.624 3.87-2.624 13.364 0 8.055 5.792 14.67 6.98 14.67 2.574 0 7.969-6.615 7.969-14.67 0-9.494-3.267-12.194-3.267-13.364 0-0.855 1.287-0.72 1.881-0.72h5.742z" fill="#ff0c75"/><path d="m141.11 26.808c-0.134 0-0.26 2e-3 -0.37 4e-3l-0.193 3e-3h-19.503c-0.921 0-1.872 0-3.607 12.006-0.899 6.217-1.551 12.868-1.551 15.813 0.057 2.135 0.058 3.843 0.06 5.216 3e-3 4.399 5e-3 6.407 2.823 6.407 0.073 0 0.151-1e-3 0.23-4e-3l22.686 1e-3c0.071 0 0.152 3e-3 0.239 6e-3 0.128 5e-3 0.268 9e-3 0.41 9e-3 2.025 0 2.183-1.294 2.183-1.69 0-0.668-1.538-3.968-1.847-4.623-1.947-4.133-2.513-4.432-3.212-4.432-0.648 0-1.322 0.369-2.256 0.879-1.523 0.833-3.824 2.091-6.852 2.091-3.329 0-5.238-1.899-5.238-5.21 0-3.756 3.102-5.12 5.188-5.12 1.128 0 2.308 0.372 3.088 0.617 0.541 0.171 0.898 0.283 1.219 0.283 0.77 0 1.186-0.351 2.828-4.288 0.361-0.864 1.538-3.714 1.538-4.091 0-1.436-1.739-1.945-3.228-1.945-2.74 0-5.202 0.856-7 1.481-0.936 0.326-1.821 0.634-2.257 0.634-0.542 0-0.584-1.198-0.584-1.565 0-3.813 3.248-5.165 6.03-5.165 3.146 0 4.734 0.958 5.682 1.53 0.541 0.327 0.969 0.585 1.495 0.585 0.637 0 1.159-0.25 3.027-3.721 1.184-2.198 1.785-3.523 1.785-3.939 0-0.808-0.488-1.772-2.813-1.772m-13.933-11.454c-2.675 0-3.074 1.295-3.074 2.067 0 1.845 6.669 9.28 11.147 9.28 1.597 0 1.644-1.181 1.644-1.315 0-0.493-0.262-0.978-0.712-1.65l-0.035-0.053-3.747-6.365c-0.857-1.44-1.302-1.943-2.931-1.943-0.138 0-0.292 2e-3 -0.462 5e-3 -0.202 3e-3 -0.429 6e-3 -0.687 6e-3 -0.105 0-0.237-6e-3 -0.386-0.013-0.226-9e-3 -0.487-0.019-0.757-0.019m13.933 12.454c0.757 0 1.812 0.08 1.812 0.772 0 0.36-3.167 6.66-3.811 6.66-0.841 0-2.327-2.115-7.177-2.115-3.416 0-7.03 1.845-7.03 6.165 0 0.945 0.199 2.565 1.584 2.565 1.584 0 5.099-2.115 9.257-2.115 0.594 0 2.228 0.18 2.228 0.945 0 0.045-2.773 7.379-3.366 7.379-0.496 0-2.376-0.9-4.307-0.9-2.524 0-6.188 1.665-6.188 6.12 0 3.6 2.08 6.21 6.238 6.21 4.9 0 7.92-2.97 9.108-2.97 0.742 0 4.059 7.605 4.059 8.055 0 0.602-0.613 0.69-1.183 0.69-0.24 0-0.473-0.015-0.649-0.015h-22.72c-0.068 2e-3 -0.133 3e-3 -0.196 3e-3 -2.388 0-1.642-1.723-1.883-10.623 0-6.03 2.722-26.819 4.158-26.819h19.503c0.136 0 0.336-7e-3 0.563-7e-3m-13.933-11.454c0.453 0 0.875 0.032 1.143 0.032 0.473 0 0.846-0.011 1.149-0.011 1.123 0 1.289 0.14 2.069 1.451l3.761 6.389c0.149 0.225 0.595 0.855 0.595 1.171 0 0.27-0.347 0.315-0.644 0.315-4.141 0-10.147-7.2-10.147-8.28 0-0.921 1.104-1.067 2.074-1.067" fill="#fff"/><path d="m78.716 23.808c-0.134 0-0.265 2e-3 -0.388 5e-3l-0.152 3e-3h-5.346c-0.041-2e-3 -0.115-4e-3 -0.194-4e-3 -2.911 0-4.884 2.013-5.864 5.984-0.913 3.703-1.357 10.062-1.357 19.439 0 7.28 0.268 11.92 0.845 14.6 0.965 4.485 3.54 5.427 5.531 5.427 0.1 0 0.2-3e-3 0.3-6e-3l0.06-2e-3h7.015c3.114 0 4.743-2.261 4.743-4.495 0-0.601-0.109-1.047-0.348-2.022-0.582-2.379-2.127-8.698-2.127-17.552 0-6.532 1.629-12.424 2.241-14.643 0.263-0.947 0.382-1.38 0.382-2.006 0-2.277-1.671-4.728-5.341-4.728m0 4c0.625 0 1.341 0.078 1.341 0.728 0 0.45-2.623 7.964-2.623 16.649 0 11.519 2.475 18.944 2.475 19.574 0 0.45-0.297 0.495-0.743 0.495h-0.99-6.039c-0.113 0-0.23 8e-3 -0.346 8e-3 -1.152 0-2.376-0.705-2.376-16.027 0-20.719 2.236-21.423 3.221-21.423 0.072 0 0.137 4e-3 0.194 4e-3h5.346c0.154 0 0.343-8e-3 0.54-8e-3"/><path d="m72.138 65.254c-1.238 0-2.723 0.855-2.723-16.02 0-22.229 2.575-21.418 3.416-21.418h5.346c0.643 0 1.881-0.135 1.881 0.72 0 0.449-2.624 7.964-2.624 16.649 0 11.519 2.475 18.944 2.475 19.574 0 0.45-0.297 0.495-0.742 0.495h-0.99-6.039z" fill="#ff0c75"/><path d="m104.44 26.808c-2.131 0-2.361 1.208-2.361 1.728 0 0.557 0.279 1.074 0.667 1.79 0.908 1.678 2.599 4.8 2.599 11.574 0 7.695-5.135 13.448-6.872 13.663-1.134-0.589-6.076-6.432-6.076-13.663 0-6.82 1.366-9.963 2.101-11.651 0.303-0.697 0.522-1.201 0.522-1.713 0-0.789-0.476-1.728-2.743-1.728-0.138 0-0.268 2e-3 -0.382 5e-3l-0.202 3e-3h-5.642c-2.205 0-3.673 2.029-3.673 11.934 0 21.335 14.702 28.584 15.998 28.584 3.795 0 16.196-11.798 16.196-27.684 0-7.797-1.519-12.834-3.871-12.834h-5.741l-0.198-4e-3c-0.1-2e-3 -0.209-4e-3 -0.322-4e-3m0 1c0.195 0 0.377 8e-3 0.52 8e-3h5.741c1.139 0 2.871 3.6 2.871 11.834 0 15.525-12.226 26.684-15.196 26.684-0.99 0-14.998-7.109-14.998-27.584 0-10.709 1.782-10.934 2.673-10.934h5.642c0.143 0 0.351-8e-3 0.584-8e-3 0.742 0 1.743 0.078 1.743 0.728 0 1.17-2.623 3.87-2.623 13.364 0 8.055 5.791 14.67 6.979 14.67 2.574 0 7.969-6.615 7.969-14.67 0-9.494-3.266-12.194-3.266-13.364 0-0.65 0.743-0.728 1.361-0.728" fill="#fff"/><path d="m48.637 37.305c0.019 0 0.413-0.179 1.772-0.179 0.548 0 0.988 0.068 1.305 0.15-0.676 0.814-2.192 1.853-3.661 2.657 0.169-2.1 0.554-2.594 0.584-2.629-1e-3 1e-3 -1e-3 1e-3 0 1e-3m-9.46-13.493c-2.912 0-4.884 2.014-5.864 5.984-0.913 3.704-1.357 10.062-1.357 19.439 0 7.28 0.268 11.92 0.845 14.601 0.965 4.485 3.54 5.426 5.53 5.426 0.101 0 0.202-2e-3 0.301-6e-3l0.059-1e-3h5.685l0.1 5e-3c0.215 0.013 0.457 0.025 0.699 0.025 3.268 0 4.978-2.299 4.978-4.57 0-0.575-0.087-0.916-0.375-2.049-0.376-1.479-1.341-5.27-1.447-7.476 0.127-0.123 0.314-0.26 0.517-0.385 0.498 0.686 1.205 1.882 1.902 3.616 0.911 2.262 1.5 4.716 1.5 6.249 0 0.47 0.158 4.594 5.598 4.594 0.179 0 0.356-2e-3 0.525-5e-3 0.107-2e-3 0.21-4e-3 0.303-4e-3h5.593c4.986 0 5.238-3.82 5.238-4.585 0-8.217-4.332-13.953-7.289-17.267 2.561-2.036 5.804-5.474 5.804-11.172 0-6.002-4.081-12.415-15.533-12.415h-13.118c-0.041-2e-3 -0.115-4e-3 -0.194-4e-3m6.332 21.328c1.683 0 10.494-4.004 10.494-8.144 0-2.835-2.921-3.87-5.594-3.87-4.504 0-6.484 1.485-6.434 9.27 0 0.945 0.049 2.744 1.534 2.744m-6.332-17.328c0.072 0 0.137 4e-3 0.194 4e-3h13.118c9.207 0 11.533 4.59 11.533 8.415 0 7.199-7.425 9.405-7.425 10.664 0 1.261 8.91 7.155 8.91 17.775 0 0.495-0.198 0.585-1.238 0.585h-5.593c-0.243 0-0.534 9e-3 -0.828 9e-3 -0.786 0-1.598-0.071-1.598-0.594 0-5.085-3.96-14.219-6.83-14.219-1.485 0-5.099 1.844-5.099 4.364 0 3.42 1.832 9.585 1.832 9.9 0 0.481-0.491 0.57-0.978 0.57-0.286 0-0.571-0.03-0.755-0.03h-5.742c-0.114 0-0.23 7e-3 -0.347 7e-3 -1.151 0-2.375-0.705-2.375-16.027 0-20.719 2.236-21.423 3.221-21.423"/><path d="m45.509 44.14c-0.146 0-0.534 0-0.534-1.745-0.025-3.84 0.462-6.128 1.53-7.203 0.743-0.748 1.911-1.067 3.904-1.067 0.767 0 4.594 0.139 4.594 2.87 0 3.369-8.128 7.145-9.494 7.145m-6.332-17.328c-2.043 0-4.221 1.733-4.221 22.423 0 15.881 1.275 17.027 3.375 17.027 0.07 0 0.138-2e-3 0.207-5e-3l0.14-3e-3h5.742c0.065 0 0.146 6e-3 0.236 0.012 0.16 9e-3 0.339 0.019 0.519 0.019 1.882 0 1.978-1.309 1.978-1.571 0-0.193-0.04-0.356-0.283-1.309-0.464-1.823-1.549-6.092-1.549-8.59 0-1.765 2.951-3.365 4.099-3.365 1.906 0 5.83 8.166 5.83 13.219 0 1.595 1.956 1.595 2.598 1.595 0.161 0 0.32-2e-3 0.472-5e-3 0.126-3e-3 0.246-5e-3 0.356-5e-3h5.593c0.782 0 2.238 0 2.238-1.585 0-8.292-5.217-13.885-7.724-16.573-0.374-0.401-0.783-0.84-1.025-1.138 0.249-0.203 0.637-0.476 0.97-0.71 2.199-1.546 6.294-4.422 6.294-10.018 0-2.83-1.221-9.414-12.534-9.414h-13.117l-0.057-2e-3 -0.137-2e-3zm6.332 18.328c1.683 0 10.494-4.005 10.494-8.145 0-2.834-2.921-3.87-5.594-3.87-4.504 0-6.484 1.486-6.434 9.27 0 0.945 0.049 2.745 1.534 2.745m-6.332-17.328c0.072 0 0.137 4e-3 0.194 4e-3h13.117c9.208 0 11.534 4.59 11.534 8.414 0 7.2-7.425 9.405-7.425 10.665s8.91 7.155 8.91 17.774c0 0.495-0.198 0.585-1.238 0.585h-5.593c-0.243 0-0.534 0.01-0.828 0.01-0.786 0-1.598-0.071-1.598-0.595 0-5.085-3.96-14.219-6.83-14.219-1.485 0-5.099 1.845-5.099 4.365 0 3.42 1.832 9.584 1.832 9.899 0 0.482-0.491 0.571-0.978 0.571-0.286 0-0.571-0.031-0.755-0.031h-5.742c-0.114 0-0.23 8e-3 -0.347 8e-3 -1.151 0-2.375-0.705-2.375-16.027 0-20.72 2.236-21.423 3.221-21.423" fill="#fff"/><path d="m56.003 36.995c0-2.835-2.921-3.87-5.594-3.87-4.504 0-6.484 1.485-6.434 9.27 0 0.945 0.049 2.745 1.534 2.745 1.683 0 10.494-4.005 10.494-8.145m-3.515-9.18c9.207 0 11.534 4.59 11.534 8.415 0 7.2-7.425 9.405-7.425 10.664 0 1.261 8.91 7.155 8.91 17.775 0 0.495-0.198 0.585-1.238 0.585h-5.593c-0.891 0-2.426 0.135-2.426-0.585 0-5.085-3.96-14.219-6.83-14.219-1.485 0-5.099 1.844-5.099 4.364 0 3.42 1.831 9.585 1.831 9.9 0 0.765-1.237 0.54-1.732 0.54h-5.742c-1.237 0-2.722 0.855-2.722-16.02 0-22.229 2.573-21.419 3.415-21.419h13.117z" fill="#ff0c75"/><path d="m78.716 26.808c-0.112 0-0.221 2e-3 -0.324 4e-3l-0.216 4e-3h-5.346l-0.057-2e-3 -0.137-2e-3c-2.043 0-4.221 1.733-4.221 22.423 0 15.881 1.275 17.027 3.376 17.027 0.069 0 0.138-2e-3 0.206-5e-3l0.14-3e-3h7.029c1.573 0 1.743-1.046 1.743-1.495 0-0.23-0.059-0.479-0.262-1.309-0.605-2.475-2.213-9.049-2.213-18.265 0-6.939 1.707-13.116 2.35-15.442 0.215-0.779 0.273-0.988 0.273-1.207 0-0.645-0.304-1.728-2.341-1.728m0 1c0.625 0 1.341 0.078 1.341 0.728 0 0.45-2.623 7.964-2.623 16.649 0 11.519 2.475 18.944 2.475 19.574 0 0.45-0.297 0.495-0.743 0.495h-0.99-6.039c-0.113 0-0.23 8e-3 -0.346 8e-3 -1.152 0-2.376-0.705-2.376-16.027 0-20.719 2.236-21.423 3.221-21.423 0.072 0 0.137 4e-3 0.194 4e-3h5.346c0.154 0 0.343-8e-3 0.54-8e-3" fill="#fff"/><path d="m18.021 37.233c0.158-0.052 0.55-0.107 1.503-0.107 0.758 0 1.3 0.095 1.649 0.195-0.749 0.927-2.388 2.293-3.96 3.327 0.228-2.488 0.698-3.264 0.808-3.415m-9.729-13.421c-2.912 0-4.885 2.013-5.864 5.984-0.914 3.704-1.358 10.062-1.358 19.439 0 7.28 0.269 11.919 0.846 14.601 0.965 4.484 3.54 5.426 5.53 5.426 0.1 0 0.201-3e-3 0.301-6e-3l0.059-2e-3h6.533l0.059 3e-3c0.15 6e-3 0.33 0.012 0.517 0.012 1.988 0 4.946-1.177 4.946-4.419 0-0.581-0.098-0.948-0.334-1.833-0.359-1.346-1.275-4.782-1.387-7.233 0.794-0.764 3.193-2.007 4.83-2.855 5.779-2.993 14.513-7.516 14.513-17.103 0-5.784-4.319-12.01-13.801-12.01h-15.196c-0.041-2e-3 -0.116-4e-3 -0.194-4e-3m6.332 22.228c2.574 0 10.84-5.535 10.84-8.774 0-3.105-2.97-4.14-5.94-4.14-3.564 0-6.484 0.495-6.435 10.844 0 1.08 0.099 2.07 1.535 2.07m-6.332-18.228c0.071 0 0.137 4e-3 0.194 4e-3h15.196c8.118 0 9.801 5.355 9.801 8.01 0 12.059-19.355 13.814-19.355 19.484 0 3.78 1.733 9.27 1.733 9.54 0 0.36-0.507 0.419-0.946 0.419-0.22 0-0.424-0.015-0.539-0.015h-6.584c-0.113 0-0.229 8e-3 -0.346 8e-3 -1.152 0-2.376-0.705-2.376-16.027 0-20.719 2.236-21.423 3.222-21.423"/><path d="m14.624 45.04c-0.463 0-0.535 0-0.535-1.07-0.023-4.72 0.575-7.623 1.829-8.883 0.804-0.808 1.888-0.962 3.605-0.962 1.846 0 4.941 0.408 4.941 3.141 0 0.878-1.255 2.704-4.054 4.801-2.485 1.861-4.893 2.973-5.786 2.973m-6.332-18.228c-2.043 0-4.221 1.733-4.221 22.423 0 15.881 1.275 17.027 3.375 17.027 0.07 0 0.138-2e-3 0.207-5e-3l0.14-3e-3h6.583c0.038 0 0.088 3e-3 0.146 5e-3 0.114 5e-3 0.25 0.01 0.393 0.01 1.806 0 1.946-1.086 1.946-1.419 0-0.188-0.035-0.322-0.232-1.06-0.449-1.685-1.5-5.628-1.5-8.48 0-1.698 3.139-3.324 6.461-5.045 5.744-2.975 12.893-6.677 12.893-14.439 0-3.347-2.276-9.01-10.8-9.01h-15.197l-0.057-2e-3 -0.137-2e-3zm6.332 19.228c2.574 0 10.84-5.535 10.84-8.774 0-3.105-2.969-4.141-5.94-4.141-3.564 0-6.484 0.496-6.434 10.845 0 1.08 0.098 2.07 1.534 2.07m-6.332-18.228c0.072 0 0.137 4e-3 0.194 4e-3h15.197c8.117 0 9.8 5.355 9.8 8.01 0 12.059-19.354 13.814-19.354 19.484 0 3.78 1.732 9.27 1.732 9.54 0 0.359-0.506 0.419-0.946 0.419-0.22 0-0.423-0.015-0.539-0.015h-6.583c-0.114 0-0.23 8e-3 -0.347 8e-3 -1.151 0-2.375-0.705-2.375-16.027 0-20.719 2.236-21.423 3.221-21.423" fill="#fff"/><path d="m25.464 37.265c0-3.105-2.97-4.14-5.94-4.14-3.564 0-6.484 0.495-6.435 10.845 0 1.08 0.099 2.069 1.535 2.069 2.574 0 10.84-5.534 10.84-8.774m-1.782-9.45c8.118 0 9.801 5.355 9.801 8.01 0 12.06-19.354 13.815-19.354 19.484 0 3.78 1.732 9.27 1.732 9.54 0 0.54-1.138 0.405-1.485 0.405h-6.583c-1.238 0-2.723 0.855-2.723-16.02 0-22.229 2.574-21.419 3.416-21.419h15.196z" fill="#ff0c75"/><path d="m46.383 6e-3c2.332 0.083 4.333 0.829 5.688 2.083 1.584 1.468 2.747 3.169 4.103 4.764 0.585 0.689 1.021 1.53 1.858 1.992 0.634 0.35 1.915 0.444 2.702 0.242 2.171-0.56 4.225-1.349 6.342-2.019 1.878-0.595 3.096-0.324 3.996 1.329 0.929 1.703 1.925 5.177 1.952 5.338 0.026 0.16-0.068 0.232-0.213 0.367-0.305 0.281-0.907 0.271-1.197-0.017-0.103-0.101-0.177-0.205-0.191-0.312-0.206-1.574-0.311-3.248-2.625-3.975-0.985-0.309-2.469-0.204-3.527 0.085-2.492 0.682-4.958 1.421-7.65 1.385-0.805-0.011-1.955-0.435-2.327-0.916-1.303-1.682-2.164-3.542-3.518-5.199-1.187-1.451-2.78-2.666-5.435-2.92-3.498-0.334-6.59 0.483-9.637 1.469-1.288 0.417-2.427 1.063-3.681 1.541-0.156 0.059-0.362 0.053-0.579 0.03-0.36-0.039-0.658-0.264-0.664-0.524-4e-3 -0.192 7e-3 -0.347 0.177-0.461 2.296-1.614 11.195-4.429 14.426-4.282"/><path d="m35.408 16.15c10.476-0.349 7.656-3.739 16.464-4.107-0.734-3.949-4.191-6.941-8.352-6.941-4.695 0-8.501 3.806-8.501 8.501 0 0.887 0.137 1.743 0.389 2.547" fill="#d31c2e"/><path d="m35.408 16.15c10.476-0.349 7.656-3.739 16.464-4.107 0.094 0.506 0.149 1.026 0.149 1.56 0 4.695-3.806 8.502-8.501 8.502-3.808 0-7.03-2.504-8.112-5.955" fill="#ee828c"/><path d="m38.94 15.864c-0.156-0.508-0.241-1.047-0.241-1.607 0-3.023 2.451-5.475 5.475-5.475 2.325 0 4.306 1.452 5.1 3.496-4.878 0.737-4.776 2.795-10.334 3.586"/><path d="m49.274 12.277c0.239 0.615 0.375 1.281 0.375 1.979 0 3.024-2.452 5.476-5.475 5.476-2.464 0-4.548-1.629-5.234-3.869 5.558-0.791 5.456-2.849 10.334-3.586z" fill="#666" stroke="#000" stroke-width=".1px"/><path d="m43.52 6.256c-4.051 0-7.347 3.296-7.347 7.347s3.296 7.348 7.347 7.348 7.348-3.297 7.348-7.348-3.297-7.347-7.348-7.347m0 15.695c-4.603 0-8.347-3.745-8.347-8.348 0-4.602 3.744-8.347 8.347-8.347s8.348 3.745 8.348 8.347c0 4.603-3.745 8.348-8.348 8.348" fill="#990009"/><path d="m43.501 10.272c0 1.732-1.404 3.137-3.136 3.137-1.733 0-3.137-1.405-3.137-3.137s1.404-3.136 3.137-3.136c1.732 0 3.136 1.404 3.136 3.136" fill="#fff"/><path d="m58.853 19.859c7.333-0.244 5.36-2.617 11.525-2.875-0.514-2.764-2.933-4.858-5.846-4.858-3.287 0-5.951 2.664-5.951 5.95 0 0.621 0.096 1.22 0.272 1.783" fill="#d31c2e"/><path d="m58.853 19.859c7.333-0.244 5.36-2.617 11.525-2.875 0.066 0.354 0.104 0.719 0.104 1.092 0 3.287-2.664 5.951-5.95 5.951-2.666 0-4.921-1.752-5.679-4.168" fill="#ee828c"/><path d="m61.325 19.659c-0.109-0.355-0.168-0.733-0.168-1.125 0-2.116 1.716-3.832 3.832-3.832 1.628 0 3.014 1.016 3.57 2.447-3.415 0.516-3.343 1.956-7.234 2.51"/><path d="m68.56 17.149c0.166 0.43 0.261 0.896 0.261 1.386 1e-3 2.116-1.715 3.832-3.831 3.832-1.725 0-3.183-1.14-3.664-2.708 3.891-0.553 3.819-1.994 7.234-2.51z" fill="#666" stroke="#000" stroke-width=".1px"/><path d="m64.532 13.083c-2.753 0-4.993 2.24-4.993 4.993 0 2.754 2.24 4.993 4.993 4.993s4.993-2.239 4.993-4.993c0-2.753-2.24-4.993-4.993-4.993m0 10.986c-3.305 0-5.993-2.688-5.993-5.993s2.688-5.993 5.993-5.993 5.993 2.688 5.993 5.993-2.688 5.993-5.993 5.993" fill="#990009"/><path d="m64.518 15.745c0 1.212-0.983 2.195-2.195 2.195-1.213 0-2.196-0.983-2.196-2.195 0-1.213 0.983-2.196 2.196-2.196 1.212 0 2.195 0.983 2.195 2.196" fill="#fff"/></g></svg>
