<svg xmlns="http://www.w3.org/2000/svg" height="93.649" width="600" viewBox="0 0 158.75 24.778">
    <g fill="#fff">
        <path d="M0 7.08h24.777V0H0zM24.777 8.496s-7.196-.448-14.866 4.248C2.103 17.52.206 24.242.001 24.778h24.776V8.496M26.901 4.13v20.648h14.158L26.901 4.13M38.935 0H26.901v3.098l14.866 21.68h14.159L38.935 0M74.331 0H60.173l16.98 24.763.01.015h14.158l-.001-.002L74.332 0M93.445 0H79.287l16.99 24.777 14.158-.001L93.445 0M47.43.001l-3.893 5.678 13.097 19.1h1.416V0H47.43M109.018 14.454l-2.477 3.612 4.602 6.712h4.956l-7.081-10.324M113.975 0l-7.08 10.324 9.912 14.453 14.158-.002L113.975 0M111.152.002L98.401.001l-2.123 3.097 6.37 9.305L111.153.002M131.672.002V.001H118.93l-2.123 3.097 6.361 9.305L131.671.002M88.488 14.454l-1.77 2.58 5.31 7.742 3.54.002-7.08-10.324M68.668 24.778l.001-.002 3.897-5.683-12.392-18.06v23.745h8.495M141.916 12.494V7.479h-4.946v5.015h-2.683V0h2.683v4.946h4.946V0h2.679v12.494h-2.679M152.276 0h-4.752v2.478h3.63v.005h1.122c2.19 0 3.675 1.551 3.675 3.762v.04c0 2.21-1.484 3.726-3.675 3.726h-2.074V5.219h-2.678v7.275h4.752c3.83 0 6.474-2.731 6.474-6.25v-.03c0-3.518-2.645-6.214-6.474-6.214"/>
    </g>
</svg>
