<svg width="800mm" height="237.3mm" version="1.1" viewBox="0 0 800 237.3" xml:space="preserve" xmlns="http://www.w3.org/2000/svg"><defs><style type="text/css">
   <![CDATA[
    .fil0 {fill:#005CAB}
   ]]>
  </style>
   
   
   
  </defs><g transform="translate(-1206.1 -921.23)"><g transform="matrix(25.4 0 0 25.4 358.85 93.519)" clip-rule="evenodd" fill-rule="evenodd" image-rendering="optimizeQuality" shape-rendering="geometricPrecision"><g fill="#1955ff">
  
  
 <g transform="matrix(.81511 0 0 .81511 6.1672 6.0249)" stroke-width=".34995" aria-label="PRO-tv"><path d="m33.381 32.741h3.2336q1.4782 0 2.32 0.63645 0.89308 0.67751 0.89308 1.9196v0.02053q0 1.2729-0.90335 1.9812-0.87255 0.67751-2.361 0.67751h-0.78016v1.9504h-2.4021zm3.0488 3.521q1.0265 0 1.0265-0.79043v-0.02053q0-0.79043-1.0163-0.79043h-0.65698v1.6014z" Googl="true"/><path d="m40.341 32.741h3.5107q1.7656 0 2.5869 0.82122 0.65698 0.65698 0.65698 1.704v0.02053q0 1.509-1.4166 2.1968l1.6732 2.4431h-2.7408l-1.355-2.0531h-0.51326v2.0531h-2.4021zm3.4389 3.4183q0.92388 0 0.92388-0.69804v-0.02053q0-0.68778-0.91361-0.68778h-1.0471v1.4063z"/><path d="m51.263 32.587q1.5501 0 2.6484 1.0984t1.0984 2.6484-1.0984 2.6484q-1.0984 1.0984-2.6484 1.0984-1.5501 0-2.6484-1.0984-1.0984-1.0984-1.0984-2.6484t1.0984-2.6484 2.6484-1.0984zm0 2.2276q-0.62618 0-1.0779 0.44141-0.44141 0.44141-0.44141 1.0779 0 0.62618 0.44141 1.0779 0.45167 0.44141 1.0779 0.44141 0.63645 0 1.0779-0.44141 0.44141-0.45167 0.44141-1.0779 0-0.63645-0.44141-1.0779t-1.0779-0.44141z"/><path d="m57.504 34.712q0.67751 0 1.1497 0.4722 0.4722 0.4722 0.4722 1.1497 0 0.66724-0.4722 1.1497-0.4722 0.4722-1.1497 0.4722-0.66724 0-1.1497-0.4722-0.4722-0.48247-0.4722-1.1497 0-0.67751 0.4722-1.1497 0.48247-0.4722 1.1497-0.4722z"/><path d="m59.437 32.741h5.728v1.0573h-2.2173v6.1284h-1.314v-6.1284h-2.1968z"/><path d="m68.131 39.927q-0.41061-1.1908-1.2524-3.5929-0.84175-2.4021-1.2626-3.5929h1.3653l1.7862 5.5125 1.7862-5.5125h1.3653l-2.5253 7.1857z"/></g><g transform="matrix(.79962 0 0 .79962 6.684 6.6882)" stroke-width=".11928" aria-label="INTERNATIONAL"><path d="m34.091 41.585v2.4491h-0.73474v-2.4491z"/><path d="m35.435 41.585h0.5738l0.81521 1.1476v-1.1476h0.73474v2.4491h-0.5703l-0.81871-1.1686v1.1686h-0.73474z"/><path d="m39.409 42.215h-0.65077v-0.62978h2.0363v0.62978h-0.66476v1.8194h-0.72074z"/><path d="m41.995 44.034v-2.4491h1.7809v0.62978h-1.0461v0.31839h0.91317v0.5598h-0.91317v0.31139h1.0461v0.62978z"/><path d="m45.777 44.034h-0.73474v-2.4491h1.1896q0.41285 0 0.64377 0.24491 0.23092 0.24141 0.23092 0.60878 0 0.2694-0.13295 0.45834-0.13295 0.18893-0.37437 0.2659 0.02449 0.16794 0.09797 0.25541 0.07697 0.08397 0.18893 0.08397 0.13645 0 0.2659-0.08397l0.22392 0.46533q-0.2764 0.18893-0.64027 0.18893-0.18194 0-0.32538-0.06648-0.13995-0.06997-0.22042-0.16094-0.07697-0.09447-0.13295-0.22392-0.05598-0.13295-0.07697-0.22392-0.01749-0.09097-0.02799-0.18893h-0.17494zm0.37786-1.8194h-0.37786v0.48633h0.37786q0.09097 0 0.15394-0.07347 0.06298-0.07347 0.06298-0.16444 0-0.09797-0.06298-0.17144-0.06298-0.07697-0.15394-0.07697z"/><path d="m48.471 41.585h0.5738l0.81521 1.1476v-1.1476h0.73474v2.4491h-0.5703l-0.81871-1.1686v1.1686h-0.73474z"/><path d="m52.467 44.034h-0.75923l0.94816-2.4491h0.65077l0.97265 2.4491h-0.78022l-0.15744-0.40935h-0.72774zm0.26241-0.98315h0.48982l-0.23442-0.68925z"/><path d="m55.594 42.215h-0.65077v-0.62978h2.0363v0.62978h-0.66476v1.8194h-0.72074z"/><path d="m58.915 41.585v2.4491h-0.73474v-2.4491z"/><path d="m62.421 43.709q-0.36037 0.36387-0.96216 0.36387t-0.96216-0.36387q-0.36037-0.36737-0.36037-0.89918t0.36037-0.89568q0.36037-0.36737 0.96216-0.36737t0.96216 0.36737q0.36037 0.36387 0.36037 0.89568t-0.36037 0.89918zm-1.3925-0.44784q0.15744 0.18194 0.43035 0.18194 0.2729 0 0.43035-0.18194t0.15744-0.45134q0-0.2694-0.15744-0.45134t-0.43035-0.18194q-0.2729 0-0.43035 0.18194-0.15744 0.18194-0.15744 0.45134 0 0.2694 0.15744 0.45134z"/><path d="m64.002 41.585h0.5738l0.81521 1.1476v-1.1476h0.73474v2.4491h-0.5703l-0.81871-1.1686v1.1686h-0.73474z"/><path d="m67.998 44.034h-0.75923l0.94816-2.4491h0.65077l0.97265 2.4491h-0.78022l-0.15744-0.40935h-0.72774zm0.26241-0.98315h0.48982l-0.23442-0.68925z"/><path d="m71.647 41.585v1.8194h1.0986v0.62978h-1.8333v-2.4491z"/></g></g></g></g></svg>
