<svg xmlns="http://www.w3.org/2000/svg" version="1" width="603.87" height="100">
    <path d="M435.877 84.933c0 8.285-6.777 15.067-15.062 15.067H333.73c-8.285 0-15.062-6.782-15.062-15.067V15.062C318.668 6.777 325.445 0 333.73 0h87.085c8.285 0 15.062 6.777 15.062 15.062v69.871z" fill="#ed008c"/>
    <path d="M408.517 43.585h-50.34c-2.286 0-3.471-1.181-3.471-3.467V24.224c0-2.29-1.87-4.16-4.156-4.16h-4.523a4.166 4.166 0 0 0-4.156 4.16v28.017c0 2.281 1.865 4.174 4.156 4.174h50.34c2.286 0 3.476 1.177 3.476 3.462v15.899c0 2.29 1.865 4.16 4.151 4.16h4.523c2.29 0 4.156-1.87 4.156-4.16V47.759c0-2.286-1.865-4.174-4.156-4.174" fill="#fff"/>
    <path d="M4.138 20.072A4.135 4.135 0 0 0 0 24.21v51.557a4.132 4.132 0 0 0 4.138 4.138h4.473a4.135 4.135 0 0 0 4.138-4.138V59.886h42.722c16.225 0 24.269-6.594 24.269-16.664v-6.598c0-9.949-8.043-16.552-24.269-16.552H4.138zm86.226 0a4.14 4.14 0 0 0-4.138 4.138v39.031c0 10.235 8.043 16.664 24.269 16.664h23.038c16.221 0 24.38-6.442 24.38-16.664V24.21c0-2.286-1.968-4.138-4.25-4.138h-4.473a4.135 4.135 0 0 0-4.138 4.138v36.571c0 5.283-5.525 6.263-11.519 6.263h-22.927c-5.999 0-11.631-.98-11.631-6.263V24.21a4.135 4.135 0 0 0-4.138-4.138h-4.473zm82.2 0a4.131 4.131 0 0 0-4.138 4.138v39.143c0 10.213 8.155 16.552 24.38 16.552h81.976c16.225 0 24.38-6.576 24.38-16.552V60.11c0-9.971-8.155-16.552-24.38-16.552h-25.163c-6.773 0-9.618-1.566-9.618-5.368 0-3.798 2.845-5.256 9.618-5.256h43.169c2.29 0 4.138-1.964 4.138-4.25v-4.473a4.135 4.135 0 0 0-4.138-4.138h-41.38c-16.221 0-24.269 6.58-24.269 16.552v3.243c0 9.971 8.048 16.552 24.269 16.552h25.275c6.768 0 9.618 1.57 9.618 5.368 0 3.802-2.85 5.368-9.618 5.368l-83.878-.112c-5.99 0-11.519-.98-11.519-6.263V24.21a4.132 4.132 0 0 0-4.138-4.138h-4.585zM12.749 32.821h42.61c6.692 0 11.519.622 11.519 6.375v1.566c0 5.713-4.907 6.375-11.519 6.375h-42.61c0-4.581.005-9.837 0-14.315z"/>
    <g fill="#ed008c">
        <path d="M466.691 21.202v57.453h15.334V53.878h32.5v24.777h15.329V21.202h-15.329v21.659h-32.5V21.202h-15.334zM540.844 21.199v11.143h13.827s13.228.003 19.927 0c3.89.003 8.641.003 11.401 2.882 2.577 2.687 2.895 9.894 2.863 14.949-.034 5.309.008 12.966-3.193 15.664-2.468 2.08-7.15 2.078-10.824 2.079h-18.612v-25.52H540.86v36.261c13.046-.001 24.203-.002 35.023-.001 6.14.001 17.546-.266 21.935-4.564 5.972-5.849 6.718-14.176 6.716-24.161-.002-9.986.242-17.893-9.268-25.24-4.513-3.487-14.999-3.487-20.354-3.487-9.069 0-20.242-.006-20.242-.006h-13.827z"/>
    </g>
</svg>
