<svg xmlns="http://www.w3.org/2000/svg" version="1.0" width="603.87" height="100">
    <path d="M435.877 84.933c0 8.285-6.777 15.067-15.062 15.067H333.73c-8.285 0-15.062-6.782-15.062-15.067v-69.87C318.668 6.776 325.445 0 333.73 0h87.085c8.285 0 15.062 6.777 15.062 15.062v69.871z" fill="#ed008c"/>
    <path d="M408.517 43.585h-50.34c-2.285 0-3.47-1.181-3.47-3.467V24.224c0-2.29-1.87-4.16-4.157-4.16h-4.522a4.166 4.166 0 0 0-4.156 4.16V52.24c0 2.282 1.865 4.174 4.156 4.174h50.34c2.286 0 3.475 1.176 3.475 3.462v15.9c0 2.29 1.866 4.16 4.152 4.16h4.523c2.29 0 4.155-1.87 4.155-4.16V47.758c0-2.286-1.865-4.174-4.155-4.174M4.138 20.072A4.134 4.134 0 0 0 0 24.21v51.557a4.131 4.131 0 0 0 4.138 4.138h4.473a4.134 4.134 0 0 0 4.138-4.138v-15.88h42.722c16.225 0 24.269-6.595 24.269-16.664v-6.599c0-9.949-8.044-16.552-24.269-16.552H4.138zm86.226 0a4.14 4.14 0 0 0-4.138 4.138v39.031c0 10.236 8.043 16.664 24.269 16.664h23.038c16.221 0 24.38-6.442 24.38-16.664v-39.03c0-2.287-1.968-4.139-4.25-4.139h-4.473a4.134 4.134 0 0 0-4.138 4.138v36.571c0 5.283-5.524 6.263-11.519 6.263h-22.926c-6 0-11.631-.98-11.631-6.263v-36.57a4.134 4.134 0 0 0-4.138-4.139h-4.474zm82.2 0a4.131 4.131 0 0 0-4.138 4.138v39.143c0 10.213 8.155 16.552 24.38 16.552h81.977c16.225 0 24.38-6.576 24.38-16.552V60.11c0-9.971-8.155-16.552-24.38-16.552H249.62c-6.773 0-9.618-1.566-9.618-5.368 0-3.798 2.845-5.256 9.618-5.256h43.169c2.29 0 4.138-1.964 4.138-4.25V24.21a4.134 4.134 0 0 0-4.138-4.138h-41.38c-16.22 0-24.269 6.58-24.268 16.552v3.244c0 9.971 8.047 16.551 24.268 16.551h25.275c6.769 0 9.618 1.57 9.618 5.369 0 3.802-2.85 5.368-9.618 5.368l-83.877-.112c-5.99 0-11.52-.98-11.52-6.263v-36.57a4.132 4.132 0 0 0-4.137-4.139h-4.586zM12.75 32.822h42.61c6.693 0 11.52.622 11.52 6.375v1.565c0 5.713-4.908 6.375-11.52 6.375H12.75c0-4.58.005-9.837 0-14.315z" fill="#fff"/>
    <g fill="#ed008c">
        <path d="M466.34 21.339V78.66h15.3V53.94h32.425v24.721h15.294V21.34h-15.294v21.61H481.64v-21.61h-15.3zM540.325 21.336v11.118h13.795s13.198.002 19.881 0c3.881.002 8.621.002 11.376 2.875 2.57 2.682 2.889 9.871 2.856 14.915-.034 5.297.008 12.937-3.186 15.629-2.462 2.075-7.133 2.073-10.799 2.074h-18.57V42.485h-15.337v36.179c13.016-.001 24.148-.002 34.944-.001 6.126 0 17.506-.265 21.884-4.554 5.959-5.836 6.703-14.143 6.7-24.106-.002-9.963.242-17.852-9.246-25.182-4.503-3.48-14.965-3.48-20.307-3.48-9.049.001-20.196-.005-20.196-.005h-13.795z"/>
    </g>
</svg>
