<?xml version="1.0" encoding="UTF-8" standalone="no"?>
<!-- Created with Inkscape (http://www.inkscape.org/) -->
<svg
   xmlns:svg="http://www.w3.org/2000/svg"
   xmlns="http://www.w3.org/2000/svg"
   version="1.0"
   width="602.36218"
   height="165.50787"
   id="svg6331">
  <defs
     id="defs6333" />
  <g
     transform="translate(-744.81676,-261.98151)"
     id="layer1">
    <g
       id="g6378">
      <path
         d="M 1329.4624,390.17192 C 1329.4624,400.94774 1320.6474,409.76855 1309.8716,409.76855 L 1196.6033,409.76855 C 1185.8275,409.76855 1177.0125,400.94774 1177.0125,390.17192 L 1177.0125,299.29313 C 1177.0125,288.51731 1185.8275,279.70231 1196.6033,279.70231 L 1309.8716,279.70231 C 1320.6474,279.70231 1329.4624,288.51731 1329.4624,299.29313 L 1329.4624,390.17192 z"
         id="path1093"
         style="fill:#ed008c;fill-opacity:1;fill-rule:nonzero;stroke:none" />
      <path
         d="M 1293.8766,336.39174 L 1228.4013,336.39174 C 1225.428,336.39174 1223.8861,334.85566 1223.8861,331.88242 L 1223.8861,311.20937 C 1223.8861,308.23031 1221.454,305.79818 1218.4808,305.79818 L 1212.5983,305.79818 C 1209.6192,305.79818 1207.1929,308.23031 1207.1929,311.20937 L 1207.1929,347.65049 C 1207.1929,350.61791 1209.6192,353.07913 1212.5983,353.07913 L 1278.0736,353.07913 C 1281.0469,353.07913 1282.5946,354.60939 1282.5946,357.58263 L 1282.5946,378.2615 C 1282.5946,381.24056 1285.0209,383.67268 1287.9941,383.67268 L 1293.8766,383.67268 C 1296.8557,383.67268 1299.282,381.24056 1299.282,378.2615 L 1299.282,341.82038 C 1299.282,338.84713 1296.8557,336.39174 1293.8766,336.39174"
         id="path1095"
         style="fill:#ffffff;fill-opacity:1;fill-rule:nonzero;stroke:none" />
      <path
         d="M 767.91536,305.80982 C 764.93629,305.80987 762.53326,308.21867 762.53326,311.19191 L 762.53326,378.24986 C 762.53317,381.22878 764.93629,383.63195 767.91536,383.63195 L 773.73383,383.63195 C 776.70703,383.63205 779.11592,381.22892 779.11592,378.24986 L 779.11592,357.59427 L 834.68238,357.59427 C 855.78604,357.59431 866.24762,349.01783 866.24762,335.92044 L 866.24762,327.33819 C 866.24762,314.39785 855.786,305.80982 834.68238,305.80982 L 767.91536,305.80982 z M 880.0665,305.80982 C 877.09913,305.80987 874.68441,308.21867 874.68441,311.19191 L 874.68441,361.95813 C 874.68446,375.27089 885.14603,383.63195 906.24965,383.63195 L 936.21481,383.63195 C 957.31274,383.63195 967.92551,375.25335 967.92551,361.95813 L 967.92551,311.19191 C 967.92541,308.21853 965.36538,305.80982 962.39795,305.80982 L 956.57948,305.80982 C 953.60042,305.80987 951.19738,308.21867 951.19738,311.19191 L 951.19738,358.75796 C 951.19738,365.62963 944.01157,366.90383 936.21481,366.90383 L 906.39511,366.90383 C 898.59258,366.90379 891.26707,365.62959 891.26707,358.75796 L 891.26707,311.19191 C 891.26716,308.21853 888.86404,305.80982 885.88498,305.80982 L 880.0665,305.80982 z M 986.98102,305.80982 C 984.00196,305.80982 981.59888,308.21271 981.59893,311.19191 L 981.59893,362.10359 C 981.59893,375.38717 992.20606,383.63205 1013.3096,383.63195 L 1119.9332,383.63195 C 1141.0368,383.63195 1151.6439,375.07865 1151.6439,362.10359 L 1151.6439,357.88519 C 1151.6439,344.91581 1141.0368,336.35692 1119.9332,336.35683 L 1087.2043,336.35683 C 1078.3951,336.35683 1074.6946,334.32031 1074.6946,329.37465 C 1074.6946,324.43477 1078.3951,322.53785 1087.2043,322.53794 L 1143.3526,322.53794 C 1146.3317,322.53794 1148.7348,319.98359 1148.7347,317.01039 L 1148.7347,311.19191 C 1148.7347,308.21867 1146.3315,305.80982 1143.3526,305.80982 L 1089.5317,305.80982 C 1068.4339,305.80982 1057.9663,314.3688 1057.9664,327.33819 L 1057.9664,331.55658 C 1057.9664,344.52597 1068.4338,353.08495 1089.5317,353.08495 L 1122.4061,353.08495 C 1131.2094,353.08495 1134.9158,355.12728 1134.9158,360.06712 C 1134.9158,365.01283 1131.2095,367.04934 1122.4061,367.04929 L 1013.3096,366.90383 C 1005.5187,366.90383 998.32705,365.62949 998.32705,358.75796 L 998.32705,311.19191 C 998.32705,308.21285 995.92393,305.80987 992.94496,305.80982 L 986.98102,305.80982 z M 779.11592,322.39248 L 834.53692,322.39248 C 843.24131,322.39239 849.5195,323.20125 849.5195,330.68381 L 849.5195,332.72028 C 849.51959,340.15038 843.13663,341.01161 834.53692,341.01161 L 779.11592,341.01161 C 779.11602,335.05339 779.12174,328.21678 779.11592,322.39248 z"
         id="path1099"
         style="fill:#000000;fill-opacity:1;fill-rule:nonzero;stroke:none" />
    </g>
  </g>
</svg>
