<svg width="127.12mm" height="48.028mm" version="1.1" viewBox="0 0 127.12 48.028" xmlns="http://www.w3.org/2000/svg">
 <g transform="translate(-37.967 -114.5)">
  <g transform="matrix(.29643 0 0 .29643 28.071 123)">
   <g transform="translate(-9.7047,-131.65)">
    <g fill="#fff" stroke-width="1.7265">
     <path d="m471.94 201.89c-5.9284 7.9299-13.422 11.37-22.887 11.37-15.604 0-27.056-11.691-27.056-26.297 0-14.708 11.769-26.399 27.162-26.399 8.7431 0 16.536 4.0666 21.216 10.133l-9.5699 8.4382c-2.7091-3.5413-6.7552-6.0491-11.646-6.0491-7.8107 0-13.634 6.1677-13.634 13.877 0 7.9299 5.7173 13.776 13.95 13.776 5.5062 0 9.869-3.338 12.068-6.676l10.397 7.8282"/>
     <path d="m403.28 212.23h13.528v-50.612h-13.528z"/>
     <path d="m365.44 196.78c3.4304 3.1347 8.7431 5.0155 13.845 5.0155 3.6415 0 6.4386-1.7791 6.4386-4.2869 0-7.6079-24.435-4.8969-24.435-21.18 0-9.709 9.3588-15.758 19.351-15.758 6.5441 0 13.722 2.5077 17.064 5.1171l-6.3506 9.8107c-2.6036-1.8808-6.034-3.4397-9.6754-3.4397-3.747 0-6.8784 1.4572-6.8784 4.0666 0 6.5743 24.453 3.9649 24.453 21.485 0 9.709-9.4644 15.656-20.072 15.656-6.9663 0-14.355-2.3891-20.283-6.7777l6.5441-9.709"/>
     <path d="m308.32 190.61v-28.331h13.528v26.145c0 4.5919 0.93236 6.8963 2.498 8.6754 2.0758 2.2875 4.9961 3.1177 7.582 3.1177 4.4859 0 10.837-2.3044 10.837-12.115v-25.823h13.528v28.212c0 13.64-9.693 22.248-24.787 22.248-13.722 0-23.186-9.421-23.186-22.129"/>
     <path d="m279.89 160.23c-8.386 0-13.465 4.8121-17.249 9.0821-3.784-4.2699-8.8627-9.0821-17.25-9.0821-12.995 0-23.411 8.6076-23.411 22.265v29.381h13.347v-27.009c0-9.7937 6.2679-12.115 10.682-12.115 2.5666 0 5.4429 0.83027 7.4941 3.1347 1.541 1.7622 2.4628 4.0666 2.4628 8.6585v27.331h13.35v-27.331c0-4.5919 0.92357-6.8963 2.4646-8.6585 2.0512-2.3044 4.9257-3.1347 7.4941-3.1347 4.4138 0 10.682 2.3214 10.682 12.115v27.009h13.347v-29.381c0-13.657-10.416-22.265-23.413-22.265"/>
    </g>
    <path d="m125.26 196.41c0.19-4.15 2.88-7.16 6.44-7.16s6.45 3.21 6.45 7.16c0 0.66-0.08 1.29-0.19 1.91-0.27 1.77-1.78 5.86-6.32 11.05-0.76-0.9-1.49-1.79-2.18-2.64-2.13-2.67-4.39-6.16-4.2-10.32zm75.54-49.52-0.06-0.33c-0.06-0.3-0.11-0.59-0.17-0.89-1.51-7.34-4.33-14.12-8.4-19.99-4.65-6.7-10.82-12.08-18.36-15.98-7.38-3.82-15.72-6.04-24.8-6.59-4.15-0.25-8.44-0.15-12.74 0.31-15.25 1.6-30.76 7.43-46.088 17.33-30.07 19.42-48.033 50.59-47.055 77.33 0.29 7.47 2.061 14.59 5.465 21.02 6.963 13.13 18.697 22.52 33.04 26.42 6.831 1.86 14.032 2.41 21.398 1.64 0.36-0.04 0.72-0.08 1.08-0.13 7.93-0.97 15.86-3.47 23.56-7.42 1.98-1.01 3.99-2.25 5.99-3.69 5.58 4.44 10.76 8.17 14.38 10.72 1.7 0.88 3.62 1.22 5.54 1 2.81-0.22 5.35-1.73 6.98-4.03 1.52-2.14 2.12-4.71 1.68-7.3-0.43-2.59-1.85-4.84-3.99-6.36-2.52-1.8-6.33-4.56-10.53-7.85l-0.06-0.05 0.05-0.07c0.09-0.11 0.17-0.23 0.25-0.34 3.63-4.92 9.69-14.65 9.51-24.59-0.15-6.54-2.55-12.87-6.75-17.83-4.76-5.62-11.3-8.81-18.42-8.98-1.06-0.03-2.14 0.01-3.21 0.12-9.94 1.05-18.74 7.91-21.89 17.07-1.21 3.51-1.72 7.09-1.57 10.66 0.37 7.91 4.03 15.75 10.7 22.49 0.59 0.6 1.21 1.21 1.84 1.83l0.07 0.08-0.07 0.04c-5.75 2.88-11.54 4.64-17.21 5.24-4.889 0.51-9.655 0.15-14.166-1.08-9.048-2.46-16.451-8.38-20.843-16.67-1.957-3.69-3.013-8.01-3.18-12.73-0.266-6.86 1.359-14.58 4.841-22.47 6.471-14.65 18.268-28.04 33.218-37.69 12.72-8.21 25.33-13.02 37.48-14.3 3.25-0.34 6.45-0.42 9.51-0.23 12.38 0.74 22.4 5.77 28.2 14.15 2.66 3.83 4.49 8.42 5.43 13.48 0.01 0.05 0.02 0.11 0.03 0.16 0.04 0.2 0.07 0.4 0.11 0.6 0.04 0.23 0.07 0.45 0.11 0.67 0 0.03 0 0.06 0.01 0.09 0.7 4.6 0.67 9.55-0.1 14.68-1.68 11.06-6.86 22.05-14.73 31.39-2.67 4.13-1.87 9.62 2.02 12.81 2.05 1.68 4.63 2.59 7.26 2.08 2.58 0 4.92-1.43 6.56-3.44 10.6-12.91 17.07-27.85 18.72-43.29 0.7-6.6 0.47-13.01-0.64-19.09" fill="#ee2922"/>
   </g>
   <g transform="scale(.99202 1.008)" fill="#ee2922" style="font-feature-settings:normal;font-variant-caps:normal;font-variant-ligatures:normal;font-variant-numeric:normal" aria-label="CLASSICS">
    <path d="m223.73 132.29c-2.6302 0-4.8711-0.93614-6.7229-2.8084-1.8307-1.8938-2.746-4.175-2.746-6.8435v-22.08c0-2.6901 0.92581-4.9712 2.7775-6.8435 1.8517-1.8938 4.0821-2.8407 6.6913-2.8407 2.6303 0 4.8607 0.9469 6.6913 2.8407 1.8307 1.8938 2.746 4.175 2.746 6.8435v1.291h-6.1863v-1.4202c0-0.96844-0.33669-1.7969-1.01-2.4856-0.67332-0.68865-1.4834-1.033-2.4303-1.033s-1.757 0.34433-2.4303 1.033c-0.65228 0.68866-0.97848 1.5172-0.97848 2.4856v22.144c0 0.96844 0.32615 1.797 0.97848 2.4856 0.67332 0.66712 1.4834 1.0007 2.4303 1.0007 0.94689 0 1.757-0.33356 2.4303-1.0007 0.67336-0.68865 1.01-1.5172 1.01-2.4856v-1.2619h6.1863v1.3265c0 2.6901-0.92589 4.9712-2.7776 6.8435s-4.0716 2.8084-6.6596 2.8084z"/>
    <path d="m252.83 131.77h-14.929v-40.448h6.0986v34.379h8.8307z"/>
    <path d="m264.91 126.46-1.4183 5.3067h-6.0742l6.5678-40.448h8.0165l6.4747 40.448h-6.1051l-1.3874-5.3067zm3.0525-22.219-2.1583 16.279h4.3166z"/>
    <path d="m300.61 121.7q0.0557 4.2288-1.8818 7.2311-1.273 2.0337-3.5977 2.873-1.2454 0.45193-2.9058 0.45193-3.0718 0-5.0921-1.7754-1.6881-1.4526-2.6845-3.9382-0.96855-2.5179-1.1346-5.746l4.9815-0.41965q0.33203 3.5186 1.6051 5.1004 0.94095 1.1944 2.1586 1.1298 1.7158-0.0646 2.7398-1.9691 0.52582-0.93614 0.52582-2.6793 0-2.5179-1.965-5.0035-1.5497-1.7109-4.6492-5.1326-2.6015-2.9375-3.6808-5.2617-1.1623-2.6148-1.1623-5.6814 0-5.52 3.1826-8.3605 1.9648-1.7109 4.8707-1.7109 2.7951 0 4.7877 1.4526 1.5497 1.1298 2.4907 3.1635 0.96862 2.0337 1.1624 4.6807l-5.0091 1.0653q-0.2214-2.4856-1.2177-3.8737-0.71951-1.0007-2.0756-1.0007-1.439 0-2.1863 1.4849-0.60882 1.1944-0.60882 2.9699 0 2.7762 2.0479 5.6491 0.77487 1.0975 2.3247 2.5824 1.8266 1.7754 2.4077 2.4856 1.9372 2.2597 2.9888 4.4547 0.49821 1.033 0.80261 1.9046 0.7472 2.1628 0.77486 3.8737z"/>
    <path d="m334.15 131.77h-6.0986v-40.448h6.0986z"/>
    <path d="m322.47 121.7q0.0557 4.2288-1.8818 7.2311-1.273 2.0337-3.5977 2.873-1.2454 0.45193-2.9058 0.45193-3.0718 0-5.0921-1.7754-1.6881-1.4526-2.6845-3.9382-0.96856-2.5179-1.1346-5.746l4.9815-0.41965q0.33204 3.5186 1.6051 5.1004 0.94094 1.1944 2.1586 1.1298 1.7158-0.0646 2.7398-1.9691 0.52582-0.93614 0.52582-2.6793 0-2.5179-1.965-5.0035-1.5497-1.7109-4.6492-5.1326-2.6015-2.9375-3.6808-5.2617-1.1623-2.6148-1.1623-5.6814 0-5.52 3.1826-8.3605 1.9648-1.7109 4.8707-1.7109 2.7951 0 4.7877 1.4526 1.5497 1.1298 2.4907 3.1635 0.96862 2.0337 1.1624 4.6807l-5.0092 1.0653q-0.22138-2.4856-1.2177-3.8737-0.71953-1.0007-2.0756-1.0007-1.4391 0-2.1863 1.4849-0.60881 1.1944-0.60881 2.9699 0 2.7762 2.0479 5.6491 0.77486 1.0975 2.3247 2.5824 1.8265 1.7754 2.4077 2.4856 1.9372 2.2597 2.9888 4.4547 0.49821 1.033 0.80259 1.9046 0.7472 2.1628 0.77487 3.8737z"/>
    <path d="m351.31 132.29c-2.6302 0-4.8711-0.93614-6.7229-2.8084-1.8307-1.8938-2.746-4.175-2.746-6.8435v-22.08c0-2.6901 0.92581-4.9712 2.7775-6.8435 1.8517-1.8938 4.0821-2.8407 6.6913-2.8407 2.6303 0 4.8607 0.9469 6.6913 2.8407 1.8307 1.8938 2.746 4.175 2.746 6.8435v1.291h-6.1863v-1.4202c0-0.96844-0.33669-1.7969-1.01-2.4856-0.6733-0.68865-1.4834-1.033-2.4303-1.033s-1.757 0.34433-2.4303 1.033c-0.65229 0.68866-0.97849 1.5172-0.97849 2.4856v22.144c0 0.96844 0.32615 1.797 0.97849 2.4856 0.6733 0.66712 1.4834 1.0007 2.4303 1.0007 0.94689 0 1.757-0.33356 2.4303-1.0007 0.67338-0.68865 1.01-1.5172 1.01-2.4856v-1.2619h6.1863v1.3265c0 2.6901-0.92587 4.9712-2.7776 6.8435-1.8517 1.8723-4.0716 2.8084-6.6596 2.8084z"/>
    <path d="m381.91 121.7q0.0557 4.2288-1.8818 7.2311-1.273 2.0337-3.5977 2.873-1.2454 0.45193-2.9058 0.45193-3.0719 0-5.0921-1.7754-1.6881-1.4526-2.6845-3.9382-0.96855-2.5179-1.1346-5.746l4.9815-0.41965q0.33203 3.5186 1.6051 5.1004 0.94095 1.1944 2.1586 1.1298 1.7158-0.0646 2.7398-1.9691 0.52582-0.93614 0.52582-2.6793 0-2.5179-1.965-5.0035-1.5497-1.7109-4.6492-5.1326-2.6015-2.9375-3.6808-5.2617-1.1623-2.6148-1.1623-5.6814 0-5.52 3.1826-8.3605 1.9648-1.7109 4.8707-1.7109 2.7951 0 4.7877 1.4526 1.5497 1.1298 2.4907 3.1635 0.9686 2.0337 1.1624 4.6807l-5.0091 1.0653q-0.2214-2.4856-1.2177-3.8737-0.71953-1.0007-2.0756-1.0007-1.4391 0-2.1863 1.4849-0.60881 1.1944-0.60881 2.9699 0 2.7762 2.0479 5.6491 0.77487 1.0975 2.3247 2.5824 1.8266 1.7754 2.4077 2.4856 1.9372 2.2597 2.9888 4.4547 0.49821 1.033 0.8026 1.9046 0.74719 2.1628 0.77486 3.8737z"/>
   </g>
  </g>
 </g>
</svg>
