<svg width="211.67mm" height="81.927mm" version="1.1" viewBox="0 0 211.67 81.927" xmlns="http://www.w3.org/2000/svg">
 <g transform="matrix(.49357 0 0 .49357 189.41 -78.859)">
  <g transform="translate(-426.85,56.797)">
   <g fill="#313435" stroke-width="1.7265">
    <path d="m471.94 201.89c-5.9284 7.9299-13.422 11.37-22.887 11.37-15.604 0-27.056-11.691-27.056-26.297 0-14.708 11.769-26.399 27.162-26.399 8.7431 0 16.536 4.0666 21.216 10.133l-9.5699 8.4382c-2.7091-3.5413-6.7552-6.0491-11.646-6.0491-7.8107 0-13.634 6.1677-13.634 13.877 0 7.9299 5.7173 13.776 13.95 13.776 5.5062 0 9.869-3.338 12.068-6.676l10.397 7.8282"/>
    <path d="m403.28 212.23h13.528v-50.612h-13.528z"/>
    <path d="m365.44 196.78c3.4304 3.1347 8.7431 5.0155 13.845 5.0155 3.6415 0 6.4386-1.7791 6.4386-4.2869 0-7.6079-24.435-4.8969-24.435-21.18 0-9.709 9.3588-15.758 19.351-15.758 6.5441 0 13.722 2.5077 17.064 5.1171l-6.3506 9.8107c-2.6036-1.8808-6.034-3.4397-9.6754-3.4397-3.747 0-6.8784 1.4572-6.8784 4.0666 0 6.5743 24.453 3.9649 24.453 21.485 0 9.709-9.4644 15.656-20.072 15.656-6.9663 0-14.355-2.3891-20.283-6.7777l6.5441-9.709"/>
    <path d="m308.32 190.61v-28.331h13.528v26.145c0 4.5919 0.93236 6.8963 2.498 8.6754 2.0758 2.2875 4.9961 3.1177 7.582 3.1177 4.4859 0 10.837-2.3044 10.837-12.115v-25.823h13.528v28.212c0 13.64-9.693 22.248-24.787 22.248-13.722 0-23.186-9.421-23.186-22.129"/>
    <path d="m279.89 160.23c-8.386 0-13.465 4.8121-17.249 9.0821-3.784-4.2699-8.8627-9.0821-17.25-9.0821-12.995 0-23.411 8.6076-23.411 22.265v29.381h13.347v-27.009c0-9.7937 6.2679-12.115 10.682-12.115 2.5666 0 5.4429 0.83027 7.4941 3.1347 1.541 1.7622 2.4628 4.0666 2.4628 8.6585v27.331h13.35v-27.331c0-4.5919 0.92357-6.8963 2.4646-8.6585 2.0512-2.3044 4.9257-3.1347 7.4941-3.1347 4.4138 0 10.682 2.3214 10.682 12.115v27.009h13.347v-29.381c0-13.657-10.416-22.265-23.413-22.265"/>
   </g>
   <path d="m125.26 196.41c0.19-4.15 2.88-7.16 6.44-7.16s6.45 3.21 6.45 7.16c0 0.66-0.08 1.29-0.19 1.91-0.27 1.77-1.78 5.86-6.32 11.05-0.76-0.9-1.49-1.79-2.18-2.64-2.13-2.67-4.39-6.16-4.2-10.32zm75.54-49.52-0.06-0.33c-0.06-0.3-0.11-0.59-0.17-0.89-1.51-7.34-4.33-14.12-8.4-19.99-4.65-6.7-10.82-12.08-18.36-15.98-7.38-3.82-15.72-6.04-24.8-6.59-4.15-0.25-8.44-0.15-12.74 0.31-15.25 1.6-30.76 7.43-46.088 17.33-30.07 19.42-48.033 50.59-47.055 77.33 0.29 7.47 2.061 14.59 5.465 21.02 6.963 13.13 18.697 22.52 33.04 26.42 6.831 1.86 14.032 2.41 21.398 1.64 0.36-0.04 0.72-0.08 1.08-0.13 7.93-0.97 15.86-3.47 23.56-7.42 1.98-1.01 3.99-2.25 5.99-3.69 5.58 4.44 10.76 8.17 14.38 10.72 1.7 0.88 3.62 1.22 5.54 1 2.81-0.22 5.35-1.73 6.98-4.03 1.52-2.14 2.12-4.71 1.68-7.3-0.43-2.59-1.85-4.84-3.99-6.36-2.52-1.8-6.33-4.56-10.53-7.85l-0.06-0.05 0.05-0.07c0.09-0.11 0.17-0.23 0.25-0.34 3.63-4.92 9.69-14.65 9.51-24.59-0.15-6.54-2.55-12.87-6.75-17.83-4.76-5.62-11.3-8.81-18.42-8.98-1.06-0.03-2.14 0.01-3.21 0.12-9.94 1.05-18.74 7.91-21.89 17.07-1.21 3.51-1.72 7.09-1.57 10.66 0.37 7.91 4.03 15.75 10.7 22.49 0.59 0.6 1.21 1.21 1.84 1.83l0.07 0.08-0.07 0.04c-5.75 2.88-11.54 4.64-17.21 5.24-4.889 0.51-9.655 0.15-14.166-1.08-9.048-2.46-16.451-8.38-20.843-16.67-1.957-3.69-3.013-8.01-3.18-12.73-0.266-6.86 1.359-14.58 4.841-22.47 6.471-14.65 18.268-28.04 33.218-37.69 12.72-8.21 25.33-13.02 37.48-14.3 3.25-0.34 6.45-0.42 9.51-0.23 12.38 0.74 22.4 5.77 28.2 14.15 2.66 3.83 4.49 8.42 5.43 13.48 0.01 0.05 0.02 0.11 0.03 0.16 0.04 0.2 0.07 0.4 0.11 0.6 0.04 0.23 0.07 0.45 0.11 0.67 0 0.03 0 0.06 0.01 0.09 0.7 4.6 0.67 9.55-0.1 14.68-1.68 11.06-6.86 22.05-14.73 31.39-2.67 4.13-1.87 9.62 2.02 12.81 2.05 1.68 4.63 2.59 7.26 2.08 2.58 0 4.92-1.43 6.56-3.44 10.6-12.91 17.07-27.85 18.72-43.29 0.7-6.6 0.47-13.01-0.64-19.09" fill="#ee2922"/>
  </g>
  <g transform="matrix(.9706 0 0 1.0303 -417.14 188.45)" fill="#ee2922" style="font-feature-settings:normal;font-variant-caps:normal;font-variant-ligatures:normal;font-variant-numeric:normal" aria-label="HET FOUTE  UUR">
   <path d="m224.29 116.42v16.39h-5.3119v-38.677h5.3119v16.421h6.3184v-16.421h5.312v38.677h-5.312v-16.39z"/>
   <g stroke-width="1.0483">
    <path d="m240.05 132.81v-38.707h16.606v5.8339h-10.773v10.588h7.8709v5.8648h-7.8709v10.588h10.773v5.8339z"/>
    <path d="m264.31 99.972h-6.2045v-5.8339h18.212v5.8339h-6.1736v32.843h-5.8339z"/>
    <path d="m295.26 132.81h-5.8339v-38.707h16.606v5.8339h-10.773v10.588h7.8715v5.8648h-7.8715z"/>
    <path d="m316.84 93.639q3.8584 0 6.5439 2.7163 2.7163 2.7163 2.7163 6.5439v21.113q0 3.8584-2.7163 6.5748-2.7163 2.6855-6.5439 2.6855-3.8584 0-6.5439-2.7163-2.6855-2.7163-2.6855-6.5439v-21.113q0-3.8584 2.7163-6.5439 2.7163-2.7163 6.5131-2.7163zm3.1793 9.1367q0-1.389-0.98773-2.346-0.95688-0.98773-2.3459-0.98773-1.389 0-2.3768 0.98773-0.98773 0.95688-0.98773 2.346v21.175q0 1.389 0.98773 2.3768 0.98773 0.95687 2.3768 0.95687 1.3891 0 2.3459-0.95687 0.98773-0.98773 0.98773-2.3768z"/>
    <path d="m340.66 133.25q-3.8584 0-6.5439-2.6855-2.6855-2.6855-2.6855-6.5131v-29.91h5.7105v29.849q0 1.389 0.98773 2.3768 0.98773 0.95687 2.3768 0.95687 1.389 0 2.346-0.95687 0.98774-0.98773 0.98774-2.3768v-29.849h6.081v29.91q0 3.8893-2.7163 6.5439-2.7163 2.6546-6.5439 2.6546z"/>
    <path d="m358.69 99.972h-6.2045v-5.8339h18.212v5.8339h-6.1736v32.843h-5.8339z"/>
    <path d="m372.72 132.81v-38.707h16.606v5.8339h-10.773v10.588h7.8715v5.8648h-7.8715v10.588h10.773v5.8339z"/>
    <path d="m411.15 133.25q-3.8584 0-6.5439-2.6855-2.6855-2.6855-2.6855-6.5131v-29.91h5.7105v29.849q0 1.389 0.98774 2.3768 0.98771 0.95687 2.3768 0.95687 1.389 0 2.3459-0.95687 0.98774-0.98773 0.98774-2.3768v-29.849h6.0811v29.91q0 3.8893-2.7163 6.5439-2.7163 2.6546-6.5439 2.6546z"/>
    <path d="m434.99 133.25q-3.8584 0-6.5439-2.6855-2.6855-2.6855-2.6855-6.5131v-29.91h5.7105v29.849q0 1.389 0.98773 2.3768 0.98774 0.95687 2.3768 0.95687 1.389 0 2.3459-0.95687 0.98774-0.98773 0.98774-2.3768v-29.849h6.081v29.91q0 3.8893-2.7163 6.5439-2.7163 2.6546-6.5439 2.6546z"/>
    <path d="m457.45 94.138q4.8771 0 7.1611 2.6855 2.0064 2.346 2.0064 6.5439v5.6179q0 4.1053-3.1176 6.9451l4.3214 16.885h-6.2971l-3.5498-14.601q-0.24693 0.0309-0.52475 0.0309h-3.3646v14.57h-5.8339v-38.677zm3.488 9.3218q0-3.3645-3.3337-3.3645h-3.5189v12.378h3.5189q1.389 0 2.346-0.98773 0.98774-0.98773 0.98774-2.3768z"/>
   </g>
  </g>
 </g>
</svg>
