<?xml version="1.0" encoding="UTF-8" standalone="no"?>
<svg
   xmlns:dc="http://purl.org/dc/elements/1.1/"
   xmlns:cc="http://creativecommons.org/ns#"
   xmlns:rdf="http://www.w3.org/1999/02/22-rdf-syntax-ns#"
   xmlns:svg="http://www.w3.org/2000/svg"
   xmlns="http://www.w3.org/2000/svg"
   xmlns:sodipodi="http://sodipodi.sourceforge.net/DTD/sodipodi-0.dtd"
   xmlns:inkscape="http://www.inkscape.org/namespaces/inkscape"
   width="211.67mm"
   height="81.927mm"
   version="1.1"
   viewBox="0 0 211.67 81.927"
   id="svg1209"
   sodipodi:docname="qmusicsummer.default.svg"
   inkscape:version="0.92.3 (2405546, 2018-03-11)">
  <metadata
     id="metadata1215">
    <rdf:RDF>
      <cc:Work
         rdf:about="">
        <dc:format>image/svg+xml</dc:format>
        <dc:type
           rdf:resource="http://purl.org/dc/dcmitype/StillImage" />
        <dc:title></dc:title>
      </cc:Work>
    </rdf:RDF>
  </metadata>
  <defs
     id="defs1213" />
  <sodipodi:namedview
     pagecolor="#ffffff"
     bordercolor="#666666"
     borderopacity="1"
     objecttolerance="10"
     gridtolerance="10"
     guidetolerance="10"
     inkscape:pageopacity="0"
     inkscape:pageshadow="2"
     inkscape:window-width="1920"
     inkscape:window-height="1017"
     id="namedview1211"
     showgrid="false"
     inkscape:lockguides="false"
     showguides="true"
     inkscape:guide-bbox="true"
     inkscape:zoom="2.2062153"
     inkscape:cx="400.0063"
     inkscape:cy="154.82268"
     inkscape:window-x="-8"
     inkscape:window-y="-8"
     inkscape:window-maximized="1"
     inkscape:current-layer="svg1209" />
  <g
     id="g1967">
    <g
       transform="matrix(0.49357,0,0,0.49357,-21.270355,-50.825705)"
       style="fill:#313435;stroke-width:1.72650003"
       id="g1175">
      <path
         inkscape:connector-curvature="0"
         id="path1165"
         d="m 471.94,201.89 c -5.9284,7.9299 -13.422,11.37 -22.887,11.37 -15.604,0 -27.056,-11.691 -27.056,-26.297 0,-14.708 11.769,-26.399 27.162,-26.399 8.7431,0 16.536,4.0666 21.216,10.133 l -9.5699,8.4382 c -2.7091,-3.5413 -6.7552,-6.0491 -11.646,-6.0491 -7.8107,0 -13.634,6.1677 -13.634,13.877 0,7.9299 5.7173,13.776 13.95,13.776 5.5062,0 9.869,-3.338 12.068,-6.676 l 10.397,7.8282" />
      <path
         inkscape:connector-curvature="0"
         id="path1167"
         d="m 403.28,212.23 h 13.528 V 161.618 H 403.28 Z" />
      <path
         inkscape:connector-curvature="0"
         id="path1169"
         d="m 365.44,196.78 c 3.4304,3.1347 8.7431,5.0155 13.845,5.0155 3.6415,0 6.4386,-1.7791 6.4386,-4.2869 0,-7.6079 -24.435,-4.8969 -24.435,-21.18 0,-9.709 9.3588,-15.758 19.351,-15.758 6.5441,0 13.722,2.5077 17.064,5.1171 l -6.3506,9.8107 c -2.6036,-1.8808 -6.034,-3.4397 -9.6754,-3.4397 -3.747,0 -6.8784,1.4572 -6.8784,4.0666 0,6.5743 24.453,3.9649 24.453,21.485 0,9.709 -9.4644,15.656 -20.072,15.656 -6.9663,0 -14.355,-2.3891 -20.283,-6.7777 l 6.5441,-9.709" />
      <path
         inkscape:connector-curvature="0"
         id="path1171"
         d="m 308.32,190.61 v -28.331 h 13.528 v 26.145 c 0,4.5919 0.93236,6.8963 2.498,8.6754 2.0758,2.2875 4.9961,3.1177 7.582,3.1177 4.4859,0 10.837,-2.3044 10.837,-12.115 v -25.823 h 13.528 v 28.212 c 0,13.64 -9.693,22.248 -24.787,22.248 -13.722,0 -23.186,-9.421 -23.186,-22.129" />
      <path
         inkscape:connector-curvature="0"
         id="path1173"
         d="m 279.89,160.23 c -8.386,0 -13.465,4.8121 -17.249,9.0821 -3.784,-4.2699 -8.8627,-9.0821 -17.25,-9.0821 -12.995,0 -23.411,8.6076 -23.411,22.265 v 29.381 h 13.347 v -27.009 c 0,-9.7937 6.2679,-12.115 10.682,-12.115 2.5666,0 5.4429,0.83027 7.4941,3.1347 1.541,1.7622 2.4628,4.0666 2.4628,8.6585 v 27.331 h 13.35 v -27.331 c 0,-4.5919 0.92357,-6.8963 2.4646,-8.6585 2.0512,-2.3044 4.9257,-3.1347 7.4941,-3.1347 4.4138,0 10.682,2.3214 10.682,12.115 v 27.009 h 13.347 v -29.381 c 0,-13.657 -10.416,-22.265 -23.413,-22.265" />
    </g>
    <path
       style="fill:#ee2922;stroke-width:0.49357"
       inkscape:connector-curvature="0"
       id="path1177"
       d="m 40.554223,46.116379 c 0.09378,-2.048316 1.421482,-3.533961 3.178591,-3.533961 1.757109,0 3.183527,1.584359 3.183527,3.533961 0,0.325756 -0.03949,0.636705 -0.09378,0.942718 -0.133264,0.873619 -0.878554,2.892321 -3.119362,5.453949 -0.375113,-0.444213 -0.735419,-0.88349 -1.075983,-1.303025 -1.051304,-1.317832 -2.166772,-3.040391 -2.072994,-5.093642 z M 77.838501,21.674792 77.808887,21.511914 C 77.779273,21.363843 77.754594,21.220708 77.72498,21.072637 76.979689,17.449833 75.587822,14.103428 73.578992,11.206173 71.283891,7.8992536 68.238565,5.243847 64.517047,3.318924 60.8745,1.4334866 56.758126,0.3377612 52.276511,0.0662977 50.228195,-0.0570948 48.11078,-0.0077378 45.988429,0.2193044 38.461486,1.0090164 30.806216,3.8865295 23.240775,8.7728725 8.3991248,18.358002 -0.46687307,33.742579 0.01583839,46.940641 c 0.1431353,3.686967 1.01724781,7.201186 2.69736001,10.374841 3.4367279,6.480574 9.2282786,11.115196 16.3075526,13.040119 3.371577,0.918041 6.925774,1.189504 10.561411,0.809455 0.177685,-0.01974 0.35537,-0.03949 0.533056,-0.06416 3.91401,-0.478763 7.82802,-1.712688 11.628509,-3.662289 0.977268,-0.498506 1.969344,-1.110533 2.956484,-1.821274 2.754121,2.191451 5.310813,4.032467 7.097537,5.291071 0.839069,0.434341 1.786723,0.602155 2.734378,0.49357 1.386931,-0.108586 2.640599,-0.853876 3.445118,-1.989087 0.750227,-1.05624 1.046369,-2.324715 0.829198,-3.603061 -0.212235,-1.278347 -0.913105,-2.388879 -1.969345,-3.139106 -1.243796,-0.888426 -3.124298,-2.250679 -5.197292,-3.874524 l -0.02961,-0.02468 0.02468,-0.03455 c 0.04442,-0.05429 0.08391,-0.113522 0.123392,-0.167814 1.791659,-2.428365 4.782693,-7.230801 4.693851,-12.136887 -0.07404,-3.227947 -1.258604,-6.352245 -3.331598,-8.800353 -2.349393,-2.773863 -5.577341,-4.348351 -9.091559,-4.432258 -0.523184,-0.01481 -1.05624,0.0049 -1.58436,0.05923 -4.906086,0.518249 -9.249502,3.904139 -10.804247,8.42524 -0.59722,1.732431 -0.84894,3.499411 -0.774905,5.261456 0.182621,3.904139 1.989087,7.773728 5.281199,11.10039 0.291206,0.296142 0.59722,0.597219 0.908169,0.903233 l 0.03455,0.03948 -0.03455,0.01974 c -2.838028,1.421482 -5.695798,2.290165 -8.49434,2.586307 -2.413064,0.251721 -4.765418,0.07403 -6.991912,-0.533056 C 17.102738,59.847496 13.44884,56.925562 11.28108,52.833866 10.315164,51.012593 9.7939537,48.880371 9.7115275,46.55072 9.5802378,43.16483 10.382289,39.35447 12.1009,35.460202 c 3.193891,-7.2308 9.016537,-13.839702 16.395408,-18.602653 6.27821,-4.05221 12.502128,-6.426281 18.499004,-7.0580509 1.604102,-0.1678138 3.183526,-0.2072994 4.69385,-0.1135211 6.110397,0.365242 11.055968,2.847899 13.918674,6.984016 1.312897,1.890373 2.21613,4.155859 2.680085,6.653323 0.0049,0.02468 0.0099,0.05429 0.01481,0.07897 0.01974,0.09871 0.03455,0.197428 0.05429,0.296142 0.01974,0.113521 0.03455,0.222107 0.05429,0.330692 0,0.01481 0,0.02961 0.0049,0.04442 0.345499,2.270422 0.330692,4.713594 -0.04936,7.245608 -0.829198,5.458884 -3.385891,10.883219 -7.270286,15.493162 -1.317832,2.038445 -0.922976,4.748144 0.997011,6.322632 1.011818,0.829198 2.285229,1.278346 3.583318,1.026626 1.273411,0 2.428365,-0.705805 3.237819,-1.697881 5.231842,-6.371989 8.42524,-13.745925 9.239631,-21.366645 0.345499,-3.257562 0.231978,-6.421346 -0.315885,-9.422252" />
    <g
       style="display:inline;fill:#ee2922;fill-opacity:1;stroke-width:1.20508623"
       transform="matrix(0.80567682,0,0,0.85467861,40.443904,34.76606)"
       id="g1857">
      <path
         sodipodi:nodetypes="cccccccccccccc"
         inkscape:connector-curvature="0"
         id="path148-8-2"
         d="M 84.843577,54.909263 V 32.05869 h 2.77201 l 5.491717,16.595858 5.552047,-16.595858 h 2.816199 V 54.909519 H 97.988769 V 43.60073 l -3.922588,11.308766 -1.936159,-1.75e-4 -3.799636,-11.308529 v 11.308471 z"
         style="display:inline;fill:#ee2922;fill-opacity:1;stroke-width:1.20508623" />
      <path
         id="path28-9-1-6"
         d="m 77.180941,55.071573 q -2.301368,0 -3.903144,-1.580252 -1.60179,-1.580213 -1.60179,-3.832517 V 32.05874 h 3.406064 v 17.564185 q 0,0.817318 0.589134,1.39857 0.589136,0.563054 1.417654,0.563054 0.828493,0 1.399283,-0.563054 0.589147,-0.581218 0.589147,-1.39857 V 32.05874 h 3.627053 v 17.600064 q 0,2.288587 -1.620169,3.850635 -1.62015,1.562064 -3.903132,1.562064 z"
         style="font-variant-ligatures:normal;font-variant-caps:normal;font-variant-numeric:normal;font-feature-settings:normal;display:inline;fill:#ee2922;fill-opacity:1;stroke-width:0.59479725"
         inkscape:connector-curvature="0" />
      <path
         sodipodi:nodetypes="cccccccccccccc"
         inkscape:connector-curvature="0"
         id="path148-6-3-9"
         d="M 103.51516,54.909273 V 32.056108 h 2.79269 l 5.5327,16.597741 5.59356,-16.597741 h 2.83724 v 22.853409 h -3.51282 V 43.599455 l -3.95195,11.310039 -1.95059,-1.63e-4 -3.82801,-11.309805 v 11.309805 z"
         style="display:inline;fill:#ee2922;fill-opacity:1;stroke-width:1.20508623" />
      <path
         sodipodi:nodetypes="ccccccccccccc"
         id="path20-9-0-4"
         d="M 122.61963,54.907544 V 32.058737 l 8.43418,-0.0013 v 3.443758 l -4.86034,0.0013 v 6.250124 h 4.82241 v 3.462001 h -4.82241 v 6.250112 l 4.86034,-0.0011 v 3.443769 c -0.67799,0 -8.43418,3.23e-4 -8.43418,3.23e-4 z"
         style="font-variant-ligatures:normal;font-variant-caps:normal;font-variant-numeric:normal;font-feature-settings:normal;display:inline;fill:#ee2922;fill-opacity:1;stroke-width:0.59479725"
         inkscape:connector-curvature="0" />
      <path
         inkscape:connector-curvature="0"
         d="m 138.21862,32.058737 q 2.69441,0 3.95624,1.586599 1.10848,1.386031 1.10848,3.866174 v 3.319088 q 0,2.425431 -1.72238,4.103202 l 2.38742,9.975749 h -3.47892 l -1.96113,-8.626352 q -0.13642,0.01828 -0.28992,0.01828 h -1.8588 v 8.608035 h -3.22302 V 32.058938 Z m 1.92699,5.507369 q 0,-1.987779 -1.84176,-1.987779 h -1.94405 v 7.313003 h 1.94405 q 0.76738,0 1.29608,-0.58356 0.5457,-0.583554 0.5457,-1.404225 z"
         style="font-variant-ligatures:normal;font-variant-caps:normal;font-variant-numeric:normal;font-feature-settings:normal;display:inline;fill:#ee2922;fill-opacity:1;stroke-width:0.59479725"
         id="path38-2-9" />
      <path
         id="path28-7-1-3"
         d="m 70.212862,49.088872 q 0.03538,2.330886 -1.200221,3.985664 -0.811913,1.12099 -2.294601,1.583622 -0.794305,0.2491 -1.853318,0.2491 -1.959215,0 -3.247722,-0.978657 -1.076692,-0.800704 -1.712112,-2.170785 -0.617787,-1.387854 -0.723684,-3.167203 l 3.177113,-0.231317 q 0.211814,1.939465 1.023726,2.81135 0.600111,0.658361 1.376725,0.622761 1.094314,-0.03553 1.747411,-1.085384 0.335365,-0.516006 0.335365,-1.476853 0,-1.387851 -1.253207,-2.757931 -0.98843,-0.943054 -2.96531,-2.829121 -1.659135,-1.619189 -2.347521,-2.900286 -0.741327,-1.441255 -0.741327,-3.131611 0,-3.042637 2.029822,-4.608474 1.253209,-0.943052 3.106515,-0.943052 1.78271,0 3.05355,0.800708 0.988406,0.622778 1.588527,1.743715 0.617788,1.120981 0.741305,2.580006 l -3.194733,0.587199 q -0.141205,-1.370084 -0.776603,-2.135207 -0.458938,-0.551622 -1.323817,-0.551622 -0.91782,0 -1.394402,0.818478 -0.388319,0.658375 -0.388319,1.636961 0,1.530197 1.306127,3.113803 0.494226,0.604964 1.482621,1.423441 1.164933,0.978636 1.53562,1.370079 1.235518,1.245519 1.906237,2.455497 0.31771,0.569373 0.511858,1.049807 0.476559,1.192167 0.494214,2.135162 z"
         style="font-variant-ligatures:normal;font-variant-caps:normal;font-variant-numeric:normal;font-feature-settings:normal;display:inline;fill:#ee2922;fill-opacity:1;stroke-width:0.59478825"
         inkscape:connector-curvature="0" />
    </g>
  </g>
</svg>
