<svg width="800.013" height="309.645" viewBox="0 0 211.67 81.927" xmlns="http://www.w3.org/2000/svg">
    <g fill="#313435" stroke-width="1.726">
        <path d="M211.665 48.821c-2.926 3.914-6.625 5.612-11.296 5.612-7.702 0-13.354-5.77-13.354-12.98 0-7.259 5.809-13.03 13.406-13.03 4.315 0 8.162 2.008 10.472 5.002l-4.724 4.165c-1.337-1.748-3.334-2.986-5.748-2.986-3.855 0-6.73 3.045-6.73 6.85 0 3.914 2.823 6.8 6.886 6.8 2.718 0 4.871-1.648 5.956-3.296l5.132 3.864M177.777 53.925h6.677v-24.98h-6.677zM159.1 46.299c1.693 1.547 4.315 2.476 6.833 2.476 1.798 0 3.178-.879 3.178-2.116 0-3.755-12.06-2.417-12.06-10.454 0-4.792 4.62-7.778 9.55-7.778 3.23 0 6.774 1.238 8.423 2.526l-3.134 4.842c-1.285-.928-2.978-1.698-4.776-1.698-1.85 0-3.395.72-3.395 2.007 0 3.245 12.07 1.957 12.07 10.605 0 4.792-4.672 7.727-9.907 7.727-3.439 0-7.086-1.179-10.011-3.345l3.23-4.792M130.907 43.254V29.27h6.677v12.905c0 2.266.46 3.404 1.233 4.282 1.025 1.129 2.466 1.538 3.742 1.538 2.214 0 5.35-1.137 5.35-5.98V29.27h6.676v13.925c0 6.732-4.784 10.98-12.234 10.98-6.773 0-11.444-4.649-11.444-10.921M116.875 28.259c-4.14 0-6.646 2.375-8.514 4.483-1.867-2.108-4.374-4.483-8.514-4.483-6.414 0-11.555 4.248-11.555 10.99v14.5h6.588V40.42c0-4.834 3.094-5.98 5.272-5.98 1.267 0 2.687.41 3.7 1.548.76.87 1.215 2.007 1.215 4.273v13.49h6.589V40.26c0-2.266.456-3.404 1.216-4.273 1.013-1.138 2.432-1.548 3.7-1.548 2.178 0 5.272 1.146 5.272 5.98v13.33h6.587v-14.5c0-6.741-5.14-10.99-11.556-10.99"/>
    </g>
    <path d="M40.554 46.116c.094-2.048 1.422-3.534 3.179-3.534s3.183 1.585 3.183 3.534c0 .326-.04.637-.093.943-.134.874-.879 2.892-3.12 5.454a87.082 87.082 0 0 1-1.076-1.303c-1.051-1.318-2.167-3.04-2.073-5.094zM77.84 21.675l-.03-.163c-.03-.148-.054-.291-.084-.44-.745-3.622-2.137-6.969-4.146-9.866-2.295-3.307-5.34-5.962-9.062-7.887C60.875 1.433 56.758.338 52.277.066a37.9 37.9 0 0 0-6.289.153c-7.527.79-15.182 3.668-22.747 8.554C8.399 18.358-.467 33.743.016 46.94c.143 3.687 1.017 7.2 2.697 10.374 3.437 6.481 9.228 11.116 16.308 13.04 3.371.919 6.926 1.19 10.561.81.178-.02.356-.04.533-.064 3.914-.479 7.828-1.713 11.629-3.662.977-.499 1.97-1.11 2.956-1.822a152.003 152.003 0 0 0 7.098 5.291c.839.435 1.786.603 2.734.494 1.387-.109 2.64-.854 3.445-1.99a4.777 4.777 0 0 0 .83-3.602 4.784 4.784 0 0 0-1.97-3.14 146.587 146.587 0 0 1-5.197-3.874l-.03-.024.025-.035c.044-.054.084-.114.123-.168 1.792-2.428 4.783-7.23 4.694-12.137a14.159 14.159 0 0 0-3.331-8.8c-2.35-2.774-5.578-4.348-9.092-4.432a12.18 12.18 0 0 0-1.584.059c-4.906.518-9.25 3.904-10.805 8.425a14.229 14.229 0 0 0-.775 5.262c.183 3.904 1.99 7.773 5.282 11.1.29.296.597.597.908.903l.034.04-.034.02c-2.838 1.42-5.696 2.29-8.495 2.586-2.413.251-4.765.074-6.991-.533-4.466-1.215-8.12-4.136-10.288-8.228-.966-1.821-1.487-3.954-1.57-6.283-.13-3.386.671-7.197 2.39-11.09 3.194-7.232 9.016-13.84 16.395-18.603 6.279-4.053 12.502-6.427 18.5-7.059a28.386 28.386 0 0 1 4.693-.113c6.11.365 11.056 2.848 13.919 6.984 1.313 1.89 2.216 4.156 2.68 6.653l.015.08c.02.098.034.197.054.295.02.114.035.223.054.331 0 .015 0 .03.005.045.346 2.27.33 4.713-.05 7.245-.828 5.459-3.385 10.883-7.27 15.493a4.789 4.789 0 0 0 .998 6.323c1.011.83 2.285 1.278 3.583 1.027 1.273 0 2.428-.706 3.238-1.698 5.232-6.372 8.425-13.746 9.24-21.367.345-3.258.231-6.421-.316-9.422" fill="#ee2922"/>
    <g fill="#ee2922" style="font-feature-settings:normal;font-variant-caps:normal;font-variant-ligatures:normal;font-variant-numeric:normal" aria-label="HET FOUTE UUR">
        <path d="M90.97 73.357v8.334h-2.544V62.023h2.544v8.35h3.027v-8.35h2.545v19.668h-2.545v-8.334z"/>
        <g stroke-width="1.048">
            <path d="M98.52 81.691V62.008h7.956v2.967h-5.161v5.384h3.77v2.982h-3.77v5.385h5.16v2.966zM110.142 64.993h-2.972v-2.967h8.725v2.967h-2.958v16.701h-2.795zM124.97 81.691h-2.796V62.008h7.956v2.967h-5.161v5.384h3.77v2.982h-3.77zM135.307 61.772q1.849 0 3.135 1.381 1.301 1.382 1.301 3.328v10.737q0 1.962-1.3 3.343-1.302 1.366-3.136 1.366-1.848 0-3.135-1.382-1.286-1.38-1.286-3.327V66.48q0-1.962 1.301-3.328 1.301-1.38 3.12-1.38zm1.523 4.646q0-.706-.473-1.193-.458-.502-1.124-.502-.665 0-1.138.502-.473.487-.473 1.193v10.768q0 .707.473 1.209.473.487 1.138.487.666 0 1.124-.487.473-.502.473-1.209zM146.718 81.915q-1.848 0-3.134-1.365-1.287-1.366-1.287-3.312v-15.21h2.736v15.179q0 .706.473 1.208.473.487 1.139.487.665 0 1.123-.487.474-.502.474-1.208v-15.18h2.913v15.21q0 1.978-1.302 3.328-1.3 1.35-3.134 1.35zM155.356 64.993h-2.972v-2.967h8.724v2.967h-2.957v16.701h-2.795zM162.077 81.691V62.008h7.955v2.967h-5.16v5.384h3.77v2.982h-3.77v5.385h5.16v2.966zM180.487 81.915q-1.848 0-3.135-1.365-1.286-1.366-1.286-3.312v-15.21h2.736v15.179q0 .706.473 1.208.473.487 1.138.487.666 0 1.124-.487.473-.502.473-1.208v-15.18h2.914v15.21q0 1.978-1.302 3.328-1.3 1.35-3.135 1.35zM191.908 81.915q-1.848 0-3.135-1.365-1.286-1.366-1.286-3.312v-15.21h2.735v15.179q0 .706.474 1.208.473.487 1.138.487.666 0 1.124-.487.473-.502.473-1.208v-15.18h2.913v15.21q0 1.978-1.3 3.328-1.302 1.35-3.136 1.35zM202.668 62.026q2.336 0 3.43 1.365.962 1.193.962 3.328v2.857q0 2.088-1.494 3.532l2.07 8.586h-3.016l-1.701-7.425q-.118.016-.251.016h-1.612v7.41h-2.795V62.025zm1.67 4.74q0-1.71-1.596-1.71h-1.686v6.294h1.686q.665 0 1.124-.503.473-.502.473-1.208z"/>
        </g>
    </g>
</svg>
