<svg width="600" height="430.22" version="1.1" viewBox="0 0 158.75 113.83064" xmlns="http://www.w3.org/2000/svg">
 <g fill="#e63246">
  <path d="m79.348 0c-18.887 0-35.254 14.825-35.254 35.726 0 12.331 5.1002 19.159 12.385 27.117l22.82 23.291 22.77-23.192c9.0959-9.5221 12.534-15.763 12.534-27.341 0-19.198-14.975-35.601-35.254-35.601zm0.07456 20.087c8.4953 0 15.379 6.8962 15.379 15.392 0 8.4953-6.8838 15.379-15.379 15.379-8.4953 0-15.379-6.8835-15.379-15.379 0-8.4953 6.8835-15.392 15.379-15.392z" stroke-width=".59098"/>
  <path d="m154.62 95.261c-0.25201 0-0.46525 0.18091-0.51048 0.42648-0.27138 1.6155-2.0419 2.8109-4.226 2.8303-0.27788 6e-3 -0.5105 0.23263-0.5105 0.51694v2.8044c0 0.28432 0.23264 0.51695 0.51696 0.51695h3.6251v10.759c0 0.28432 0.23264 0.51696 0.51695 0.51696h4.1937c0.29081 0 0.52342-0.23264 0.52342-0.51696v-17.344c0-0.28431-0.23263-0.51048-0.52342-0.51048z" stroke-width=".64618"/>
  <path d="m139.97 98.867c-0.28431 0-0.51695 0.23263-0.51695 0.51048v4.6977h-4.562c-0.28432 0-0.5105 0.23263-0.5105 0.51696v3.3149c0 0.28431 0.22616 0.51696 0.5105 0.51696h4.562v4.6913c0 0.28432 0.23264 0.51696 0.51695 0.51696h3.4183c0.29076 0 0.51694-0.23264 0.51694-0.51696v-4.6913h4.5362c0.28432 0 0.51695-0.23265 0.51695-0.51696v-3.3149c0-0.28433-0.23263-0.51696-0.51695-0.51696h-4.5362v-4.6977c0-0.27787-0.22614-0.51048-0.51694-0.51048z" stroke-width=".64618"/>
  <g>
   <path d="m70.376 113.67c-0.51221 0-0.84307-0.33085-0.84307-0.84307v-13.041h-3.2693c-0.51221 0-0.84307-0.33086-0.84307-0.84307v-2.8184c0-0.51221 0.33086-0.84062 0.84307-0.84062l11.666-0.0025c0.51221 0.0025 0.84307 0.33087 0.84307 0.84308v2.8184c0 0.51221-0.33086 0.84307-0.84307 0.84307h-3.2693v13.041c0 0.51222-0.33086 0.84307-0.84307 0.84307z"/>
   <path d="m57.859 113.83c-3.3698 0-5.8157-2.4802-6.0853-2.762-0.15195-0.14706-0.59064-0.65192-0.02206-1.2916l1.8552-2.1788c0.18626-0.21076 0.38477-0.31369 0.60779-0.31369 0.30145 0 0.52692 0.19116 0.67396 0.3382 0.51466 0.50731 2.0513 1.8234 2.9704 1.8234 0.80386 0 1.245-0.44359 1.245-1.245 0-0.72054-1.022-1.2401-2.2033-1.8406-1.9092-0.97051-4.5217-2.3013-4.5217-5.6074 0-3.3429 2.5072-5.6785 6.1-5.6785 2.4091 0 3.8306 0.83817 4.9016 1.6592 0.66416 0.51222 0.43869 1.0097 0.1691 1.3872l-1.4558 2.1493c-0.1642 0.23527-0.38968 0.36028-0.64946 0.35782-0.21812 3e-3 -0.35046-0.0661-0.52447-0.16176 0 0-0.25978-0.18626-0.57838-0.38722-0.3186-0.20342-0.96316-0.55633-1.8234-0.47056-0.39703 0.03925-0.83817 0.30145-0.83817 0.9215 0 0.62495 0.96316 1.1224 2.0807 1.7008 1.941 1.0024 4.5977 2.3748 4.5977 5.7961 0 3.3086-2.7963 5.8035-6.4995 5.8035"/>
   <path d="m38.913 113.67c-0.51221 0-0.84307-0.33085-0.84307-0.84307v-16.7c0-0.51221 0.33086-0.84307 0.84307-0.84307h10.095c0.51221 0 0.84307 0.33086 0.84307 0.84307v2.816c0 0.51221-0.33086 0.84552-0.84307 0.84552h-5.8108v2.4238l5.1123 3e-3c0.51221-3e-3 0.84307 0.33085 0.84307 0.84061v2.8184c0 0.50976-0.33086 0.84307-0.84307 0.84307h-5.1123v2.4508h5.8108c0.51221 0 0.84307 0.33086 0.84307 0.84307v2.816c0 0.51222-0.33086 0.84307-0.84307 0.84307z"/>
   <path d="m28.121 113.83c-4.6148 0-6.9553-2.49-6.9553-7.3989v-10.313c0-0.50976 0.3235-0.83817 0.82837-0.83817h3.3821c0.50241 0 0.82836 0.32841 0.82836 0.84062v10.31c0 2.8356 1.4435 2.8356 1.9165 2.8356 1.3332 0 2.0391-0.98031 2.0391-2.8356v-10.31c0-0.51221 0.3235-0.84062 0.82836-0.84062h3.3821c0.50241 0 0.82836 0.32841 0.82836 0.84062v10.31c0 4.8403-2.4483 7.3989-7.0779 7.3989"/>
   <path d="m18.462 103.77c-0.12744-2.1812-1.022-4.3281-2.691-5.9946-3.6076-3.6076-9.4576-3.6076-13.065 0-3.6076 3.6076-3.6076 9.4576 0 13.065 1.6665 1.669 3.8134 2.5635 5.9946 2.691 0 0 5.5069 0.18381 9.8889 0.12989 0.06617-5.2447-0.12744-9.8914-0.12744-9.8914m-6.3941 3.3674c-1.5611 1.5612-4.0953 1.5612-5.6564 0-1.5611-1.5636-1.5611-4.0953 0-5.6564 1.5611-1.5611 4.0953-1.5611 5.6564 0 1.5612 1.5612 1.5612 4.0928 0 5.6564"/>
   <path d="m98.907 113.67h-3.2571c-0.32596 0-0.6274-0.19115-0.76955-0.48525l-2.9238-6.0755h-0.77199v5.7054c0 0.47055-0.38477 0.85532-0.85533 0.85532h-2.9777c-0.47055 0-0.85532-0.38477-0.85532-0.85532v-16.67c0-0.473 0.38477-0.85532 0.85532-0.85532h6.5093c3.5904 0 6.0976 2.4238 6.0976 5.8966 0 2.3577-1.2376 4.2619-3.3355 5.1712l3.0488 6.0755c0.13479 0.26469 0.12009 0.57594-0.03675 0.83081-0.15685 0.2549-0.42888 0.40684-0.72788 0.40684m-7.7224-10.703h1.9312c1.3161 0 2.1052-0.6568 2.1052-1.7572 0-1.1323-0.74749-1.7572-2.1052-1.7572h-1.9312z"/>
   <path d="m113.04 113.67h-9.9404c-0.55144 0-1.0024-0.45094-1.0024-1.0024v-16.376c0-0.55387 0.45094-1.0024 1.0024-1.0024h9.9159c0.55141 0 1.0024 0.4485 1.0024 1.0024v2.4581c0 0.55387-0.45094 1.0024-1.0024 1.0024h-6.2299v2.5954h5.5584c0.55388 0 1.0024 0.44849 1.0024 1.0024v2.2106c0 0.55143-0.44849 1.0024-1.0024 1.0024h-5.5584v2.6174h6.2544c0.55387 0 1.0024 0.45096 1.0024 1.0024v2.4851c0 0.55143-0.4485 1.0024-1.0024 1.0024"/>
   <path d="m123.33 113.67h-5.7422c-0.55142 0-0.99992-0.44849-0.99992-1.0024v-16.379c0-0.55142 0.4485-0.99992 0.99992-0.99992h5.7667c5.6074 0 9.2296 3.6125 9.2296 9.2027 0 5.5755-3.632 9.1782-9.2542 9.1782m-2.0562-4.4629h1.9067c2.8429 0 4.5413-1.7646 4.5413-4.7153 0-2.9679-1.6984-4.7398-4.5413-4.7398h-1.9067z"/>
  </g>
 </g>
</svg>
