<svg width="477.94pt" height="300pt" version="1.1" viewBox="0 0 477.94 300" xmlns="http://www.w3.org/2000/svg" xmlns:xlink="http://www.w3.org/1999/xlink">
 <defs>
  <linearGradient id="a" x1="295.44" x2="398.39" y1="606.25" y2="453.01" gradientUnits="userSpaceOnUse">
   <stop stop-color="#360020" offset="0"/>
   <stop stop-color="#a41a58" offset="1"/>
  </linearGradient>
  <linearGradient id="b" x1="295.44" x2="398.39" y1="606.25" y2="453.01" gradientUnits="userSpaceOnUse" xlink:href="#a"/>
 </defs>
 <g transform="matrix(2.3481 0 0 2.3481 -660.09 -970.54)" fill="url(#b)">
  <g fill="url(#b)">
   <path d="m312.92 415.49c4.0848-2.3307 9.1568-2.7907 13.604-1.2741 6.2603 2.0417 10.958 8.0923 11.363 14.696 0.25685 6.1221 0.30327 12.25 0.24756 18.379-4.9606 0.0217-9.9212-0.0497-14.879-0.1678-1.9681-0.0591-3.9579-0.012-5.8828-0.4879-4.3045-0.9696-8.1511-3.7478-10.478-7.5081-2.2869-3.6484-3.0729-8.198-2.1755-12.412 0.94694-4.6988 4.0353-8.891 8.2006-11.225m6.644 7.5982c-2.4818 0.54073-4.5985 2.4923-5.3319 4.9381-0.83244 2.5017-0.10521 5.4198 1.7484 7.2781 1.8258 1.905 4.7223 2.6539 7.2382 1.877 3.5494-0.98824 5.8951-4.9567 5.0101-8.5585-0.74888-3.8193-4.8925-6.4857-8.6648-5.5347z" stroke-width=".31011"/>
   <path d="m407.84 413.6c3.7042-0.69612 7.7364-0.0497 10.84 2.1754 0.73649 0.52208 1.8165 1.1778 1.5535 2.253-0.54155 1.2866-1.5009 2.337-2.2219 3.5241-0.50441 0.65571-0.83244 1.5538-1.6432 1.8926-0.82624 0.26105-1.5132-0.36982-2.16-0.7738-1.1419-0.808-2.6149-1.3176-4.0044-0.94785-0.95932 0.26727-1.4297 1.6036-0.77364 2.3805 0.71174 0.87636 1.767 1.3643 2.7325 1.9019 2.5716 1.3301 5.2824 2.6664 7.1113 4.9971 1.9558 2.4395 2.4292 5.861 1.5782 8.832-0.63129 2.2251-2.0857 4.1736-3.9641 5.4943-2.7727 1.9547-6.3408 2.6042-9.655 2.0511-3.2029-0.57182-6.1272-2.2624-8.4884-4.4719-0.42087-0.42575-0.95003-0.89191-0.92218-1.5476-0.0371-0.66504 0.48585-1.1468 0.86028-1.6222 1.0614-1.2058 2.0517-2.4737 3.1348-3.6577 0.47657-0.60599 1.4204-0.63396 1.9558-0.087 1.6308 1.4109 3.274 3.0735 5.4526 3.5458 1.5349 0.3232 2.8748-1.2648 2.3797-2.7285-0.47966-1.0473-1.5751-1.5849-2.519-2.135-2.6954-1.4295-5.6352-2.6912-7.6126-5.1245-3.2648-3.9778-2.423-10.535 1.5535-13.727 1.3802-1.1405 3.0667-1.8739 4.812-2.2251z" stroke-width=".31011"/>
   <path d="m343.72 413.81c2.2405-0.18336 4.5026-0.0467 6.7523-0.0745 0.83553-0.087 1.5566 0.67436 1.4761 1.501 0.0154 6.1221 6e-3 12.244 3e-3 18.366 3e-3 1.4264 0.0588 2.943 0.78911 4.214 1.111 2.0107 4.4221 1.846 5.5516-0.0683 0.71176-1.1405 0.82006-2.5296 0.82625-3.8411 3e-3 -6.2246-0.0186-12.446 0.01-18.668-0.0743-0.85461 0.69008-1.616 1.5411-1.5072 2.0734-6e-3 4.1498-0.0218 6.2263 9e-3 0.80767-0.059 1.4482 0.71475 1.3987 1.4948 0.0279 6.3303 6e-3 12.657 0.01 18.988-0.0371 3.2444-0.64676 6.6784-2.7201 9.2732-1.7825 2.2841-4.5892 3.5272-7.4053 3.897-2.7232 0.34183-5.5609 0.25482-8.182-0.63396-2.1198-0.71788-4.0136-2.1505-5.1865-4.0772-1.5473-2.5172-2.0146-5.5441-2.0084-8.459 0.01-6.3241-0.01-12.648 6e-3 -18.975-0.0465-0.61533 0.30017-1.2617 0.9129-1.4389z" stroke-width=".31011"/>
   <path d="m373.5 415.23c-0.0619-0.78002 0.58487-1.5352 1.3833-1.4854 6.0994-0.028 12.202 0 18.304-0.012 0.77364-0.11194 1.637 0.38535 1.6834 1.2244 0.0619 1.8584 0.034 3.723 0.0155 5.5845 0.0371 0.77381-0.67152 1.4326-1.4297 1.4047-3.5433 0.0341-7.0865 0-10.627 0.012-3e-3 1.4637 3e-3 2.9243-0.01 4.388 3.1379 0.0374 6.2758-0.0217 9.4136 0.028 0.7396-0.031 1.3895 0.6122 1.3864 1.3549 0.0371 1.8304 0.0402 3.6702-3e-3 5.5037-3e-3 0.73031-0.65295 1.3705-1.3864 1.3394-3.1348 0.0342-6.2696 3e-3 -9.4013 0.012-3e-3 1.4854 0 2.9709-3e-3 4.4595 3.5464 0.012 7.0958-0.0187 10.642 0.012 0.7427-0.0467 1.4235 0.59667 1.4111 1.3456 0.034 1.8553 0.0434 3.7168-3e-3 5.5782-0.0155 0.86703-0.9067 1.3953-1.7051 1.3021-5.9818 9e-3 -11.964 9e-3 -17.942 0-0.91599 0.13055-1.8289-0.59356-1.733-1.5507-0.01-10.168-0.0155-20.336 3e-3 -30.502z" stroke-width=".31011"/>
   <path d="m423.21 414.93c0.0309-0.74895 0.78292-1.2648 1.4916-1.1964 7.0339-0.0155 14.065-6e-3 21.099-6e-3 0.74269-0.0809 1.5535 0.41954 1.5999 1.2213 0.0774 1.8584 0.0402 3.7261 0.0186 5.5907 0.0248 0.73963-0.61581 1.3922-1.3492 1.3984-2.0331 0.0716-4.0724 3e-3 -6.1056 0.0281-3e-3 7.9152 0.01 15.827-6e-3 23.739 0.0588 0.74583-0.48275 1.5072-1.2564 1.5476-1.866 0.1087-3.7413 3e-3 -5.6104 0.0496-0.69628-0.0342-1.5256 0.0932-2.061-0.4537-0.38063-0.36982-0.3992-0.93541-0.40848-1.4264v-23.457c-1.9712-0.0155-3.9425 0.0248-5.9106-0.012-0.78602 0.0529-1.572-0.57803-1.5225-1.4047-0.01-1.8739-0.0495-3.751 0.0217-5.6186z" stroke-width=".31011"/>
   <path d="m281.15 463.99c-0.26322-2.0546 1.1432-4.3508 3.3242-4.4264 8.0396-0.12841 16.079-0.0151 24.119-0.0529 3.7528 0.0529 7.5583-0.24172 11.258 0.52874 5.3923 1.0197 10.544 3.6634 14.259 7.765 8.9045 9.7742 8.8594 26.838-0.90249 36.023-2.0983 2.047-4.6478 3.5275-7.2499 4.8267 4.4297 8.8376 8.8594 17.69 13.259 26.551 1.5041 2.2283-0.12786 5.6727-2.8353 5.7784-5.0163 0.15863-10.048 0.13597-15.056 0.0151-1.7899 0-2.9782-1.4956-3.6024-2.9987-4.0988-8.6865-8.3254-17.313-12.402-26.014-1.1432-0.0378-2.2713-0.0453-3.4069-0.0529-0.0301 8.4524 0.0602 16.905-0.0301 25.357 0.0602 2.0092-1.7298 3.7768-3.7303 3.7314-4.3244 0.10575-8.6563 0.068-12.981 0.0227-2.1359 0.13596-4.1289-1.7222-3.9935-3.8976-0.0677-24.383-0.0151-48.773-0.0301-73.156m20.772 14.019c-0.0151 5.1666 0 10.341-7e-3 15.515 5.1742-0.41545 11.311 1.3672 15.62-2.3642 3.5272-3.3764 2.6774-10.454-2.0832-12.252-4.3094-1.6391-9.0399-0.61939-13.53-0.89887z" stroke-width=".75371"/>
   <path d="m350.09 463.92c-0.12785-2.334 1.9554-4.517 4.2943-4.3886 14.568-0.0378 29.135-0.0151 43.695-0.0151 2.4367-0.24171 4.7155 1.9412 4.6027 4.3961 0.0301 3.807 0.0752 7.6139-0.0226 11.421-0.0977 2.3038-2.3465 4.1318-4.5952 3.9807-9.1076 0.0755-18.215-0.0604-27.323 0.0604 0.0977 3.7994 0.0376 7.5988 0.0527 11.406 8.0772 0.0227 16.154-0.0227 24.232 8e-3 2.3389-0.23416 4.6328 1.7146 4.6779 4.1016 0.0902 3.535 0.11281 7.0852-0.015 10.628-0.10529 2.3567-2.3991 4.1695-4.6854 3.9958-8.0772 0.068-16.147-0.0302-24.224 0.0453 0.0226 3.8372 0.0226 7.6744 0 11.519 9.0925 0.0529 18.178-8e-3 27.27 0.0227 2.3164-0.24927 4.6704 1.6467 4.7155 4.0336 0.10529 3.7692 0.0527 7.5535 0.0301 11.338 0.1805 2.5757-2.2036 4.7511-4.723 4.5774-14.297 0.0453-28.609 0.0151-42.913 0.0151-2.5946 0.27948-5.257-1.8204-5.0765-4.5396-0.0226-24.201-0.0301-48.403 7e-3 -72.604z" stroke-width=".75371"/>
   <path d="m417.04 459.69c5.1818-0.43055 10.416-0.0529 15.62-0.18128 7.7839 0.17373 15.718-0.66471 23.344 1.3823 9.1301 2.1754 17.538 7.8028 22.479 15.9 6.5731 10.726 7.5658 24.247 4.5726 36.295-2.7676 11.149-11.018 20.772-21.772 24.813-9.3181 3.89-19.576 3.112-29.428 3.1725-4.5275-0.0604-9.0549 0.0982-13.575-0.0604-2.3314 0-4.3921-2.1301-4.2567-4.4717-0.0452-23.952 7e-3 -47.904-0.0226-71.849-0.24818-2.1225 0.93257-4.381 3.0384-5.0004m17.674 19.677c0.0527 13.944 0 27.888 0.0226 41.839 6.2647-0.15107 12.988 0.75535 18.742-2.334 5.8436-2.8779 9.07-9.3361 9.5287-15.658 0.78215-7.5837-1.3086-16.368-8.0547-20.719-5.9639-4.0562-13.439-3.0969-20.238-3.1272z" stroke-width=".75371"/>
  </g>
 </g>
</svg>
