<svg width="800.04" height="800" version="1.1" viewBox="0 0 800.04 800" xml:space="preserve" xmlns="http://www.w3.org/2000/svg"><g transform="matrix(1.2787 0 0 1.2787 .0012653 -.067464)"><g transform="matrix(13.766,0,0,-13.766,481.34,440)"><path d="m0 0c-1.788 0.03-2.696 0.935-3.526 1.843 1.934 2.277 2.89 5.226 2.689 8.163-0.395 5.77-5.06 10.369-10.861 10.638-3.248 0.151-6.416-1.104-8.693-3.427-2.276-2.323-3.46-5.412-3.239-8.767 0.382-5.794 5.191-10.643 11.399-10.64 1.346 1e-3 2.708 0.23 4.108 0.765 0.174 0.069 0.177 0.278 0.098 0.389-0.282 0.417-0.822 0.98-1.112 1.183-0.239 0.168-0.872 0.63-1.85 0.514-0.36-0.047-0.596-0.079-1.247-0.079-4.757-4e-3 -8.419 3.755-8.643 8.21-0.127 2.509 0.849 4.951 2.665 6.688 1.815 1.737 4.295 2.599 6.805 2.363 4.095-0.385 7.372-3.63 7.778-7.711 0.048-0.483 0.062-0.962 0.036-1.437-0.08-1.166-0.402-3.129-2.11-5.133-0.316 0.145-0.673 0.202-0.897 0.217-1.362 0.091-2.045-0.589-2.276-0.885-0.132-0.173-0.015-0.388 0.184-0.428 0.266-0.049 1.006-0.253 1.978-1.086 0.31-0.272 0.611-0.6 0.893-0.919 1.195-1.357 2.738-3.151 5.821-3.191h1e-3c0.143 0 0.259 0.115 0.259 0.258v2.214c0 0.142-0.116 0.258-0.259 0.258z" fill="#122f4b"/></g><g transform="matrix(13.766,0,0,-13.766,-9.895e-4,621.45)"><path d="m0 0c0-0.17 0.138-0.308 0.308-0.308h44.833c0.171 0 0.309 0.138 0.309 0.308v44.832c0 0.17-0.138 0.308-0.309 0.308h-44.833c-0.17 0-0.307-0.137-0.308-0.306zm42.801 2.34h-40.153v40.152h40.153z" fill="#d95a41"/></g></g></svg>
