<?xml version="1.0" encoding="utf-8"?>
<!-- Generator: Adobe Illustrator 23.0.1, SVG Export Plug-In . SVG Version: 6.00 Build 0)  -->
<svg version="1.1" id="Ebene_1" xmlns="http://www.w3.org/2000/svg" xmlns:xlink="http://www.w3.org/1999/xlink" x="0px" y="0px"
	 viewBox="0 0 600 328.8" style="enable-background:new 0 0 600 328.8;" xml:space="preserve">
<style type="text/css">
	.st0{fill:#FFFFFF;}
</style>
<g transform="matrix(.57842 0 0 .57842 .0017353 .00034705)">
	<g>
		<path class="st0" d="M357.7,279.3l-4.6-3.5l-3.2-2.5l-2.7,3.1c-4.6,5.4-10.2,8.1-17,8.1c-6.3,0-11.2-1.9-15.3-5.8
			c-4.1-4-6-8.8-6-14.6c0-3.8,0.9-7.3,2.7-10.4c1.8-3,4.2-5.5,7.5-7.3c3.3-1.8,6.8-2.8,10.6-2.8c3.6,0,6.9,0.8,9.8,2.1
			c2.9,1.4,5.4,3.5,7.5,6.2l2.6,3.4l3.4-2.6l4.6-3.5l3.3-2.5l-2.4-3.4c-3.1-4.3-7.2-7.8-12.2-10.3c-5-2.4-10.4-3.6-16.6-3.6
			c-10.1,0-18.5,3.3-25.3,9.8c-6.8,6.6-10.2,14.9-10.2,24.5c0,9.1,2.8,17,8.4,23.4c6.6,7.7,15.7,11.6,27.1,11.6
			c6,0,11.3-1.1,16.3-3.5c4.9-2.3,9.1-5.5,12.3-9.7l2.6-3.4L357.7,279.3z"/>
		<path class="st0" d="M189.9,229.2c-19.1,0-34.6,15.6-34.6,34.7c0,19.1,15.5,34.6,34.6,34.6c5.1,0,10.2-1.2,14.8-3.4l5,6.3h18
			l-11.8-14.8c5.5-6.3,8.6-14.3,8.6-22.7C224.5,244.7,209,229.2,189.9,229.2L189.9,229.2z M189.9,243.6c11.1,0,20.2,9.1,20.2,20.3
			c0,11.2-9.1,20.2-20.2,20.2c-11.1,0-20.2-9.1-20.2-20.2C169.8,252.6,178.8,243.6,189.9,243.6z"/>
		<path class="st0" d="M276.8,230.6l-16.9,41.8l-17.2-41.8h-15.5l28.9,69.3h7.3l29-69.3H276.8z"/>
		<path class="st0" d="M457.6,432.6l-152-24.7c-14.1,4.3-29,6.6-44.5,6.6c-84,0-152.2-68.4-152.2-152.7
			c0-84.4,68.3-152.9,152.2-152.9c84.1,0,152.4,68.6,152.4,152.9c0,33.4-10.7,64.2-28.9,89.4l95.8,51.1
			c26.9-41.6,41.7-90.2,41.7-140.6C522.1,117.5,405,0,261,0C117.1,0,0,117.5,0,261.8C0,406,117.1,523.3,261,523.3
			c38.7,0,78.3-9.7,113.3-26.5l82.9-63.8L457.6,432.6"/>
	</g>
	<path class="st0" d="M305.5,407.9l14.4,108.2c2.5-0.6,5-1.2,7.5-1.9c16-4.3,31.7-10.1,46.5-17.2L305.5,407.9"/>
	<path class="st0" d="M305.5,407.8l121.3,160.5l87.4-66.6L460,433L305.5,407.8z"/>
	<path class="st0" d="M581.3,455.3L544.8,436l0.1-5.1c0.1-7.9,1.6-18.4,3.9-26.9c8.8-32.4,29.7-58.4,66.7-83
		c12.6-8.4,22.1-13.8,49.6-28.5c25.1-13.4,33-17.9,44-25.3c19.5-13,30.5-25.2,35.1-39.1c3-9.1,3.5-20.5,1.3-30.8
		c-4.8-22-21.2-40.2-42.6-47.2c-7.4-2.4-10.9-2.9-20.5-2.9c-7.4,0-9,0.1-12.3,0.8c-8.3,1.8-16.1,5-22.9,9.6
		c-14.3,9.6-22.9,22.4-30.4,45.4c-0.9,2.9-1.9,5.3-2.1,5.3c-0.6,0-64.5-33.8-64.9-34.4c-0.2-0.3,0.3-2.4,1.4-5.6
		c6.8-20.7,17.9-38.7,33.5-54.4c15.9-15.9,34.2-27.1,55.5-34c13.7-4.4,27.3-6.5,42.4-6.5c21.6,0,41,4.4,60.1,13.7
		c14.7,7.1,26.5,15.5,37.9,26.9c22,22,35.6,50,39.4,81c0.9,7.4,0.9,24.8,0,31.9c-4.8,38-23.3,67.4-59.2,94.1
		c-14.3,10.7-29.5,19.8-58.6,35.2c-23,12.2-30.4,16.5-38.5,22.2c-7.8,5.6-13.3,10.5-16.7,15c-2.1,2.8-3.9,6.7-3.3,7.2
		c0.2,0.2,40.3,0.3,89.2,0.4l88.9,0.1v73.2l-204.2,0.2L581.3,455.3L581.3,455.3z"/>
</g>
<g transform="matrix(.21352 0 0 .21352 80.449 131.98)">
	<g>
		<path class="st0" d="M1972.2,411.7h45.2v79.5h80.1v-79.5l44.5,0v200.7l-44.5,0v-80.1h-80.1v80.1h-45.2V411.7z"/>
		<path class="st0" d="M2189.3,411.7c24.9,0,49.9,0,74.8,0c21.6-0.1,43.7,4,62.4,15.2c19.8,11.5,35.5,30.2,42.5,52.1
			c6.1,18.1,7,38,2.6,56.6c-4.8,22.3-18.1,42.7-36.6,56.1c-18.4,13.9-41.5,20.2-64.3,20.8c-27.2-0.1-54.3,0.1-81.5,0
			C2189.3,545.6,2189.2,478.6,2189.3,411.7 M2233.8,452.2c0,39.9,0,79.9,0,119.8c11.9,0,23.7,0,35.6,0c11.9-0.4,24.1-3.5,34-10.5
			c22.5-14.8,29-46,20.6-70.5c-5.9-19.5-23.7-34.2-43.6-37.5c-5.5-0.9-11-1.3-16.5-1.3L2233.8,452.2z"/>
	</g>
	<g transform="translate(-116.79 897.8)">
		<path class="st0" d="M2098.5-547.2c-35.2,1.7-64.5,30.5-67.8,68.4l0,183.9c3.4,38,32.7,66.8,67.8,68.4h383.6
			c35.2-1.7,64.5-30.5,67.8-68.4l0-183.9c-3.4-38-32.7-66.8-67.8-68.4H2098.5z M2482.2-520.9c21.6,0.9,40.4,20,41,41.7v184.4
			c-0.6,21.6-19.4,40.8-41,41.7c-141.6-0.1-242.2,0.2-383.7,0c-21.6-0.9-40.4-20-41-41.7v-184.4c0.6-21.6,19.4-40.8,41-41.7
			C2240-521,2340.6-521,2482.2-520.9L2482.2-520.9z"/>
	</g>
</g>
</svg>
