<svg viewBox="0 0 600 414.92" xmlns="http://www.w3.org/2000/svg">
    <g fill="#eb5d5e">
        <path d="M261.14 203.86l-3.337-2.579-2.332-1.8-1.953 2.256c-3.393 3.962-7.45 5.877-12.437 5.877-4.569 0-8.209-1.383-11.167-4.247-2.957-2.9-4.38-6.389-4.38-10.674 0-2.768.664-5.327 1.992-7.621 1.289-2.2 3.071-3.982 5.498-5.347 2.427-1.327 4.948-2.01 7.773-2.01 2.616 0 5.005.55 7.128 1.555 2.143 1.024 3.963 2.522 5.48 4.512l1.934 2.503 2.464-1.934 3.337-2.54 2.39-1.858-1.745-2.446c-2.275-3.148-5.29-5.726-8.93-7.546-3.678-1.783-7.621-2.655-12.096-2.655-7.337 0-13.518 2.408-18.447 7.186-4.967 4.853-7.45 10.845-7.45 17.859 0 6.654 2.066 12.418 6.142 17.082 4.797 5.612 11.47 8.437 19.793 8.437 4.399 0 8.285-.834 11.907-2.522 3.583-1.65 6.617-4.02 9.006-7.09l1.915-2.484zM138.65 167.29c-13.916 0-25.254 11.374-25.254 25.31 0 13.973 11.338 25.293 25.254 25.293 3.754 0 7.414-.87 10.789-2.501l3.64 4.624h13.138l-8.608-10.825c4.02-4.588 6.276-10.467 6.276-16.591 0-13.935-11.3-25.31-25.235-25.31zm0 10.521c8.114 0 14.73 6.617 14.73 14.789 0 8.153-6.616 14.772-14.73 14.772s-14.711-6.62-14.711-14.772c0-8.172 6.596-14.789 14.711-14.789zM202.1 168.35l-12.342 30.504-12.57-30.504h-11.337l21.12 50.604h5.346l21.14-50.604z"/>
        <path d="M334.05 315.81l-110.99-18.052c-10.295 3.11-21.197 4.834-32.516 4.834-61.313 0-111.14-49.955-111.14-111.5 0-61.58 49.826-111.65 111.14-111.65 61.393 0 111.25 50.073 111.25 111.65 0 24.382-7.83 46.887-21.083 65.277l69.935 37.33c19.642-30.35 30.471-65.863 30.471-102.61C381.117 85.81 295.628 0 190.537 0 85.467 0-.003 85.805-.003 191.09c0 105.32 85.47 190.94 190.54 190.94 28.231 0 57.179-7.052 82.738-19.338l60.519-46.546.247-.341"/>
    </g>
    <path d="M223.01 297.8l10.542 79.024c1.82-.436 3.659-.891 5.48-1.403a199.965 199.965 0 0 0 33.936-12.57l-49.96-65.054" fill="#c05255"/>
    <path d="M223.01 297.73l88.579 117.19 63.817-48.632-39.57-50.183z" fill="#f39e9f"/>
    <path d="M424.33 332.38l-26.6-14.075.043-3.71c.067-5.78 1.182-13.415 2.869-19.63 6.422-23.67 21.68-42.643 48.71-60.567 9.203-6.104 16.144-10.09 36.213-20.8 18.315-9.774 24.06-13.07 32.13-18.438 14.242-9.47 22.233-18.374 25.643-28.57 2.224-6.65 2.572-14.98.941-22.518-3.472-16.04-15.492-29.363-31.109-34.48-5.37-1.76-7.99-2.13-14.965-2.117-5.413.011-6.536.086-8.954.607-6.08 1.311-11.743 3.684-16.724 7.007-10.46 6.976-16.73 16.35-22.166 33.132-.692 2.136-1.39 3.884-1.552 3.884-.468 0-47.103-24.702-47.351-25.08-.139-.213.242-1.765 1.003-4.096 4.945-15.128 13.036-28.246 24.492-39.705 11.633-11.637 24.978-19.817 40.543-24.85 10.028-3.241 19.896-4.76 30.972-4.763 15.737-.015 29.9 3.218 43.851 9.98 10.7 5.186 19.341 11.321 27.661 19.639 16.052 16.046 25.981 36.466 28.752 59.131.657 5.374.653 18.104-.004 23.308-3.52 27.738-17.014 49.173-43.237 68.689-10.449 7.776-21.528 14.435-42.797 25.724-16.774 8.903-22.224 12.05-28.085 16.219-5.707 4.06-9.74 7.677-12.204 10.946-1.55 2.057-2.85 4.865-2.44 5.273.121.122 29.43.252 65.127.289l64.907.066v53.463l-149.07.117-26.6-14.075z" fill="#3baeb5"/>
</svg>
