<svg width="600" height="431.27" viewBox="0 0 158.75 114.108" xmlns="http://www.w3.org/2000/svg">
    <g fill="#88868d">
        <path d="M9.796 110.72v-.033q0-1.152-.576-1.794-.576-.659-1.58-1.037.313-.165.576-.395.28-.23.477-.527.214-.313.33-.691.131-.379.131-.873v-.033q0-1.366-1.02-2.172-1.004-.807-2.782-.807H.002v11.522h5.482q.97 0 1.76-.197.807-.198 1.367-.593.576-.395.872-.988.313-.592.313-1.382zm-3.16-4.921q0 .641-.494.938-.494.28-1.333.28H2.47v-2.437h2.502q.807 0 1.235.313.428.297.428.873zm.642 4.608q0 .642-.478.955-.477.296-1.316.296H2.47v-2.535h2.93q.988 0 1.432.346.445.33.445.905zM19.686 113.88v-2.255h-6.255v-2.42h5.432v-2.255h-5.432v-2.337h6.173v-2.255h-8.691v11.522zM32.186 113.88l-4.938-11.604h-2.337l-4.938 11.604h2.584l1.053-2.584h4.873l1.053 2.584zm-4.609-4.823h-3.061l1.53-3.736zM42.816 108.86v-6.502h-2.535v6.6q0 1.383-.658 2.075t-1.827.691q-1.169 0-1.827-.708-.659-.724-.659-2.14v-6.518h-2.534v6.584q0 2.552 1.333 3.835 1.333 1.284 3.654 1.284 1.152 0 2.09-.312.938-.33 1.597-.972.658-.658 1.004-1.63.362-.97.362-2.287zM53.146 104.69v-2.337h-9.547v2.337h3.506v9.185h2.535v-9.185z"/>
        <path d="M64.316 102.36h-2.88l-2.799 4.625-2.748-4.625h-2.963l4.427 6.979v4.543h2.535v-4.592zM78.506 112.81l-1.695-1.695q.428-.576.806-1.202.379-.625.708-1.234l-1.86-1.021q-.28.527-.56 1.037-.28.494-.56.938l-1.53-1.53q1.07-.412 1.745-1.136.674-.725.674-1.893 0-.61-.23-1.136-.23-.543-.659-.938-.427-.395-1.02-.61-.593-.23-1.333-.23-.84 0-1.498.264-.642.246-1.086.674-.445.412-.675.972-.23.543-.23 1.135 0 .61.18 1.169.198.543.626 1.152-1.087.494-1.663 1.284-.576.774-.576 1.893 0 .774.296 1.4.297.608.807 1.052.527.428 1.234.659.708.23 1.531.23 1.004 0 1.827-.345.84-.362 1.547-.938l1.334 1.35zm-4.477-7.588q0 .56-.395.922-.379.345-1.136.625-.362-.411-.527-.724-.148-.33-.148-.724 0-.527.296-.856.313-.33.823-.33.478 0 .774.28.313.28.313.807zm-.132 6.09q-.395.313-.823.494-.411.164-.84.164-.707 0-1.168-.362-.444-.378-.444-1.004 0-.428.247-.823.246-.411.823-.707zM91.656 110.47v-.033q0-.757-.247-1.3-.23-.543-.708-.939-.46-.411-1.152-.69-.675-.297-1.547-.528-.74-.197-1.234-.345-.478-.148-.758-.313t-.395-.362q-.098-.214-.098-.494v-.033q0-.428.362-.708.378-.296 1.119-.296t1.481.313q.741.296 1.515.823l1.316-1.91q-.888-.707-1.958-1.086-1.054-.379-2.321-.379-.889 0-1.63.248-.74.246-1.284.707-.526.461-.823 1.103-.296.626-.296 1.416v.033q0 .856.263 1.432.28.576.774.97.494.38 1.202.643.707.263 1.58.477.724.181 1.168.346.461.164.708.329.263.164.346.362.099.181.099.428v.033q0 .51-.445.807-.428.28-1.218.28-.987 0-1.827-.38-.823-.378-1.613-1.02l-1.498 1.794q1.037.939 2.305 1.4 1.267.444 2.584.444.938 0 1.712-.23.773-.248 1.333-.692.56-.46.872-1.12.313-.674.313-1.53zM101.606 104.69v-2.337h-9.547v2.337h3.506v9.185H98.1v-9.185z"/>
        <path d="M112.776 102.36h-2.88l-2.799 4.625-2.748-4.625h-2.963l4.427 6.979v4.543h2.535v-4.592zM121.666 113.88v-2.304h-5.745v-9.218h-2.534v11.522zM131.376 113.88v-2.255h-6.255v-2.42h5.432v-2.255h-5.432v-2.337h6.173v-2.255h-8.691v11.522zM146.356 113.88v-11.522h-2.535v4.56h-4.674v-4.56h-2.535v11.522h2.535v-4.625h4.674v4.625zM158.746 108.12v-.033q0-1.218-.444-2.255-.445-1.053-1.268-1.827-.806-.774-1.942-1.202-1.12-.444-2.47-.444h-4.493v11.522h4.494q1.35 0 2.469-.444 1.136-.445 1.942-1.219.823-.773 1.268-1.827.444-1.053.444-2.27zm-2.65.033q0 .774-.263 1.4-.247.625-.708 1.086-.445.46-1.087.707-.642.247-1.415.247h-1.959v-6.946h1.959q.773 0 1.415.263.642.247 1.087.708.46.46.708 1.103.263.642.263 1.399z"/>
    </g>
    <g fill="#c95759">
        <path d="M95.576 46.81l-.766-.592-.536-.414-.448.518c-.78.91-1.71 1.35-2.856 1.35-1.049 0-1.885-.318-2.564-.975-.679-.666-1.005-1.467-1.005-2.45 0-.636.152-1.224.457-1.75a3.293 3.293 0 0 1 1.262-1.228 3.623 3.623 0 0 1 1.785-.462c.6 0 1.15.126 1.637.357.492.235.91.58 1.258 1.036l.444.575.566-.444.766-.584.549-.426-.4-.562a5.604 5.604 0 0 0-2.051-1.732c-.845-.41-1.75-.61-2.778-.61-1.684 0-3.103.553-4.235 1.65-1.14 1.114-1.711 2.49-1.711 4.1 0 1.529.474 2.852 1.41 3.923 1.102 1.289 2.634 1.937 4.545 1.937 1.01 0 1.902-.191 2.734-.579a5.497 5.497 0 0 0 2.068-1.628l.44-.57zM67.456 40.83a3.392 3.392 0 0 1 3.382 3.396 3.39 3.39 0 0 1-3.382 3.39 3.387 3.387 0 0 1-3.378-3.39 3.388 3.388 0 0 1 3.378-3.396m4.353 7.205a5.781 5.781 0 0 0 1.441-3.81c0-3.2-2.595-5.811-5.794-5.811-3.196 0-5.799 2.612-5.799 5.811a5.807 5.807 0 0 0 5.799 5.808c.862 0 1.702-.2 2.477-.575l.836 1.062h3.016zM82.026 38.66l-2.834 7.004-2.886-7.004h-2.603l4.85 11.619h1.227l4.854-11.619z"/>
    </g>
    <path d="M112.316 72.51l-25.483-4.145a25.77 25.77 0 0 1-7.466 1.11c-14.078 0-25.519-11.47-25.519-25.601 0-14.139 11.44-25.636 25.52-25.636 14.095 0 25.544 11.497 25.544 25.636a25.532 25.532 0 0 1-4.84 14.988l16.057 8.571c4.51-6.968 6.997-15.123 6.997-23.56 0-24.174-19.63-43.876-43.76-43.876-24.125 0-43.75 19.702-43.75 43.876 0 24.182 19.625 43.841 43.75 43.841 6.482 0 13.129-1.619 18.997-4.44l13.896-10.687.056-.078" fill="#eb5d5e"/>
    <path d="M86.816 68.38l2.42 18.145a45.918 45.918 0 0 0 9.05-3.208L86.816 68.38" fill="#c05255"/>
    <path d="M86.816 68.37l20.339 26.907 14.653-11.166-9.085-11.523z" fill="#f39e9f"/>
</svg>
