<svg width="1656" height="529" version="1.1" viewBox="0 0 1656 529" xml:space="preserve" xmlns="http://www.w3.org/2000/svg"><g transform="matrix(10.297 0 0 -10.297 360.06 359.1)"><path d="m0 0c-1.788 0.03-2.696 0.935-3.526 1.843 1.934 2.277 2.89 5.226 2.689 8.163-0.395 5.77-5.06 10.369-10.861 10.638-3.248 0.151-6.416-1.104-8.693-3.427-2.276-2.323-3.46-5.412-3.239-8.767 0.382-5.794 5.191-10.643 11.399-10.64 1.346 1e-3 2.708 0.23 4.108 0.765 0.174 0.069 0.177 0.278 0.098 0.389-0.282 0.417-0.822 0.98-1.112 1.183-0.239 0.168-0.872 0.63-1.85 0.514-0.36-0.047-0.596-0.079-1.247-0.079-4.757-4e-3 -8.419 3.755-8.643 8.21-0.127 2.509 0.849 4.951 2.665 6.688 1.815 1.737 4.295 2.599 6.805 2.363 4.095-0.385 7.372-3.63 7.778-7.711 0.048-0.483 0.062-0.962 0.036-1.437-0.08-1.166-0.402-3.129-2.11-5.133-0.316 0.145-0.673 0.202-0.897 0.217-1.362 0.091-2.045-0.589-2.276-0.885-0.132-0.173-0.015-0.388 0.184-0.428 0.266-0.049 1.006-0.253 1.978-1.086 0.31-0.272 0.611-0.6 0.893-0.919 1.195-1.357 2.738-3.151 5.821-3.191h1e-3c0.143 0 0.259 0.115 0.259 0.258v2.214c0 0.142-0.116 0.258-0.259 0.258z" fill="#122f4b"/></g><g transform="matrix(10.297 0 0 -10.297 0 494.83)" fill="#34ab53"><path d="m0 0c0-0.17 0.138-0.308 0.308-0.308h44.833c0.171 0 0.309 0.138 0.309 0.308v44.832c0 0.17-0.138 0.308-0.309 0.308h-44.833c-0.17 0-0.307-0.137-0.308-0.306zm42.801 2.34h-40.153v40.152h40.153z" fill="#34ab53"/></g><path d="m497.02 0h1159v529h-1159z" fill="#34ab53" style="paint-order:stroke markers fill"/><g transform="translate(-3.8547 -215.57)" fill="#fff"><g transform="matrix(7.5851 0 0 7.5851 25755 7607)" fill="#fff" aria-label="EXTRA "><path d="m-3317.3-927.04v-11.663h14.551v-3.129h-14.551v-10.306h18.14v-3.1509h-21.509v31.378h21.969v-3.129z"/><path d="m-3282.9-942.95-8.7525-12.341h-4.0261l10.744 15.01-11.641 16.367h4.0261l9.6496-13.676 9.6277 13.676h4.0261l-11.641-16.367 10.744-15.01h-4.0261z"/><path d="m-3268.2-955.29v3.1509h9.8684v28.227h3.3478v-28.227h9.8684v-3.1509z"/><path d="m-3240.4-955.29v31.378h3.3697v-12.538h8.9494l6.9582 12.538h3.8073l-7.3958-12.997 0.6783-0.21881c0.4376-0.13129 0.9628-0.43763 1.6192-0.87525 0.6345-0.43762 1.2691-0.96277 1.9036-1.5973 0.6127-0.61267 1.1597-1.4879 1.6192-2.6038 0.4377-1.0941 0.6784-2.3194 0.6784-3.676 0-2.6695-0.919-4.9232-2.7571-6.7175-1.838-1.7942-4.1355-2.6914-6.8925-2.6914zm12.538 3.1509c1.9036 0 3.4353 0.56891 4.5731 1.7067 1.1379 1.1378 1.7068 2.6476 1.7068 4.5732 0 1.9255-0.5689 3.4353-1.7068 4.5732-1.1378 1.1378-2.6695 1.7067-4.5731 1.7067h-9.1682v-12.538z"/><path d="m-3193.9-935.79h-12.1l6.0611-14.792zm1.3567 3.1509 3.5885 8.7306h3.5666l-12.997-31.378h-3.129l-12.997 31.378h3.5885l3.5885-8.7306z"/></g></g></svg>
