<svg version="1.1" viewBox="0 0 922.15 441.99" xmlns="http://www.w3.org/2000/svg">
 <defs>
  <linearGradient id="b" x1="100.67" x2="221.11" y1="234.58" y2="206.77" gradientTransform="translate(0 444) scale(1 -1)" gradientUnits="userSpaceOnUse">
   <stop stop-color="#3c3c3b" offset="0"/>
   <stop stop-color="#80807f" offset=".09"/>
   <stop stop-color="#b6b6b6" offset=".17"/>
   <stop stop-color="#dededd" offset=".24"/>
   <stop stop-color="#f6f6f6" offset=".3"/>
   <stop stop-color="#fff" offset=".33"/>
   <stop stop-color="#fff" offset="1"/>
  </linearGradient>
  <linearGradient id="a" x1="714.14" x2="847.83" y1="311.03" y2="334.6" gradientTransform="translate(0 444) scale(1 -1)" gradientUnits="userSpaceOnUse">
   <stop stop-color="#50250f" offset="0"/>
   <stop stop-color="#723412" offset=".06"/>
   <stop stop-color="#a64b16" offset=".16"/>
   <stop stop-color="#cc5b1a" offset=".24"/>
   <stop stop-color="#e3661c" offset=".31"/>
   <stop stop-color="#ec6a1d" offset=".35"/>
   <stop stop-color="#ec6a1d" offset=".45"/>
   <stop stop-color="#ec6a1d" offset="1"/>
  </linearGradient>
 </defs>
 <rect x="384.09" width="57.62" height="287.73" fill="#fff"/>
 <rect x="863.53" width="57.62" height="287.73" fill="#fff"/>
 <path d="m604.56 244.49v-52.86c0.12-10.75-1.64-20.67-5.29-29.75-3.64-9.08-8.6-17.08-14.87-24.01s-13.59-12.63-21.95-17.11-17.23-7.44-26.61-8.87-18.93-1.22-28.67 0.63-19.2 5.65-28.4 11.38l18.81 41.39c6.81-4.66 13.74-7.38 20.79-8.15 7.05-0.78 13.53 0.06 19.44 2.51s10.81 6.39 14.69 11.83 6.06 12.16 6.54 20.16v51.61h-95.87v44.49h141.97s-0.39-43.2-0.59-43.24h0.01z" fill="#fff"/>
 <path d="m805.91 287.73h-19.21c0-26.48 21.54-45.87 48.02-45.87v19.21c-15.89 0-28.81 10.77-28.81 26.66z" fill="#fff"/>
 <path d="m548.53 47.7c0 14.32-11.71 26.03-26.03 26.03s-26.03-11.71-26.03-26.03 11.71-26.03 26.03-26.03 26.03 11.45 26.03 26.03z" fill="#fff"/>
 <path d="m102.7 200.65c-21.99 19.76-37.46 50.76-41.17 87.09h81.98c-3.69-36.18-19.01-67.31-40.8-87.08h-0.01z" fill="none"/>
 <path d="m102.7 200.64c21.79 19.78 37.11 50.9 40.8 87.08h61.51c-3.24-52.73-21.44-99.66-48.95-133.93l-24.24 12.43c-19.74 0-13.86 20.74-29.11 34.41z" fill="url(#b)"/>
 <path d="m102.69 200.65c15.25-13.67 33.61-21.68 53.35-21.68v-25.16c-15.19-18.93-33.23-33.91-53.17-43.63-20.22 9.72-38.53 24.82-53.93 43.99-27.49 34.26-45.69 80.89-48.94 133.56h61.52c3.72-36.33 19.18-67.32 41.17-87.09z" fill="#fff"/>
 <path d="M361.78,243.24v44.49h-201.97v-44h60.59v-53.1c-.12-10.75,1.64-20.67,5.28-29.75,3.65-9.07,8.6-17.08,14.88-24.01,6.27-6.93,13.58-12.63,21.95-17.11,8.36-4.48,17.23-7.44,26.61-8.87,9.37-1.43,18.93-1.22,28.67.63,9.73,1.85,19.2,5.64,28.4,11.38l-18.82,41.39c-6.81-4.66-13.74-7.38-20.78-8.15-7.05-.78-13.53.06-19.44,2.5-5.92,2.45-10.82,6.4-14.7,11.83-3.88,5.44-6.06,12.16-6.54,20.16v52.61h95.87Z" fill="#fff"/>
 <path d="M779.04,245.11c30.43-37.91,49.48-91.71,49.5-151.3V0h-61.2v93.81c-.03,43.33-16.57,81.62-41.69,104.42,1.09,5.76,3.9,16.15,12.07,26.01,15.08,18.22,36.65,20.48,41.32,20.86h0Z" fill="url(#a)"/>
 <path d="M779.05,219.93v25.18c-15.22,18.95-33.27,33.92-53.22,43.66-20.24-9.72-38.55-24.85-53.95-44.03-30.43-37.9-49.47-91.67-49.51-151.23v-19.78h61.19v19.73c.04,43.55,16.73,82.02,42.09,104.77,15.24,13.7,33.61,21.7,53.39,21.7h.01Z" fill="#ec6a1d"/>
 <path d="m164.53 47.7c0 14.32-11.71 26.03-26.03 26.03s-26.03-11.71-26.03-26.03 11.71-26.03 26.03-26.03 26.03 11.45 26.03 26.03z" fill="#ec6a1d"/>
 <path d="m92.93 47.7c0 14.32-11.71 26.03-26.03 26.03s-26.03-11.71-26.03-26.03 11.71-26.03 26.03-26.03 26.03 11.45 26.03 26.03z" fill="#ec6a1d"/>
 <path d="m533.41 326.42c-2.14-2.14-4.72-3.19-7.73-3.19s-5.54 1.05-7.6 3.19c-2.14 2.14-3.21 4.72-3.21 7.75s1.07 5.54 3.21 7.6c2.06 2.14 4.59 3.21 7.6 3.21s5.58-1.07 7.73-3.21c2.14-2.06 3.21-4.59 3.21-7.6s-1.07-5.6-3.21-7.75zm-23.77 0c-2.14-2.14-4.72-3.19-7.73-3.19s-5.46 1.05-7.6 3.19-3.21 4.72-3.21 7.75 1.07 5.54 3.21 7.6c2.14 2.14 4.68 3.21 7.6 3.21s5.58-1.07 7.73-3.21c2.14-2.06 3.21-4.59 3.21-7.6s-1.07-5.6-3.21-7.75z" fill="#ec6a1d"/>
 <path d="m781.1 326.42c-2.14-2.14-4.72-3.19-7.73-3.19s-5.58 1.05-7.73 3.19c-2.06 2.14-3.09 4.72-3.09 7.75s1.03 5.54 3.09 7.6 4.72 3.21 7.73 3.21 5.58-1.07 7.73-3.21 3.09-4.59 3.09-7.6-1.03-5.6-3.09-7.75z" fill="#ec6a1d"/>
 <path d="m910.27 326.42c-2.14-2.14-4.72-3.19-7.73-3.19s-5.58 1.05-7.73 3.19c-2.06 2.14-3.09 4.72-3.09 7.75s1.03 5.54 3.09 7.6 4.72 3.21 7.73 3.21 5.58-1.07 7.73-3.21c2.14-2.06 3.21-4.59 3.21-7.6s-1.07-5.6-3.21-7.75zm-25.31 0c-2.14-2.14-4.72-3.19-7.73-3.19s-5.48 1.05-7.62 3.19c-2.12 2.14-3.19 4.72-3.19 7.75s1.07 5.54 3.19 7.6c2.14 2.14 4.68 3.21 7.62 3.21s5.58-1.07 7.73-3.21c2.14-2.06 3.21-4.59 3.21-7.6s-1.07-5.6-3.21-7.75z" fill="#ec6a1d"/>
 <path d="m896.73 360.56c-13.78 0-24.31 4.66-31.64 13.97-6.37 8.11-9.56 18.87-9.56 32.24v14.32h-48.68v-60.53h-25.45c-13.76 0-24.31 4.66-31.64 13.97-6.37 8.11-9.54 18.87-9.54 32.24v14.32h-49.7v-60.53h-64.36c-7.88 0-14.82 1.63-20.8 4.88v-4.88h-20.65v60.53h-40.12v-60.53h-38.7c-13.7 0-24.21 4.66-31.54 13.97-6.37 8.11-9.54 18.87-9.54 32.24v22.68l0.1 12.54h457.24v-81.43h-25.43 0.01zm-372.81 60.53h-38.57l0.12-14.57c0-8.42 1.63-14.8 4.9-19.1 3.25-4.3 8.5-6.46 15.75-6.46h17.8v40.12zm146.07 0.12h-64.38v-14.69c0-8.42 1.63-14.8 4.9-19.1 3.33-4.3 8.63-6.46 15.87-6.46h43.6v40.25h0.01zm116.19-0.12h-25.31v-14.57c0-8.42 1.63-14.8 4.88-19.1 3.27-4.3 8.53-6.46 15.77-6.46h4.66v40.12zm115.33 0h-25.33v-14.57c0-8.42 1.63-14.8 4.9-19.1s8.53-6.46 15.77-6.46h4.66v40.12z" fill="#ec6a1d"/>
</svg>
