<svg version="1.1" viewBox="0 0 800 278.63" xml:space="preserve" xmlns="http://www.w3.org/2000/svg">
<style type="text/css">
	.st0{fill:#FFFFFF;}
	.st1{fill:url(#c);}
	.st2{fill:url(#b);}
	.st3{opacity:0.3;fill:url(#a);}
</style>

<g transform="matrix(1.7115 0 0 1.7115 -36.903 -46.894)">
	
	
		<linearGradient id="c" x1="23.051" x2="489" y1="609.78" y2="609.78" gradientTransform="matrix(1 0 0 -1 0 775.71)" gradientUnits="userSpaceOnUse">
		<stop stop-color="#822C87" offset=".0060606"/>
		<stop stop-color="#34276E" offset="1"/>
	</linearGradient>
	<path class="st1" d="m489 180.3c0 5.5-4.8 9.9-10.6 9.9h-444.7c-5.9 0-10.6-4.4-10.6-9.9v-28.7c0-5.5 4.8-9.9 10.6-9.9h444.7c5.9 0 10.6 4.4 10.6 9.9z" fill="url(#c)"/>
	
		
			<path class="st0" d="m191.4 153.8c2.7 0 4.5 0.3 6.3 1.8 1.9 1.7 2.4 4 2.4 5.8 0 0.9-0.1 3.5-2 5.3-1.3 1.3-3.3 2.1-6 2.1h-3v8.8h-4.7v-23.8zm-2.3 11.1h1.9c0.9 0 2 0 3-0.7 0.9-0.7 1.3-1.7 1.3-2.8 0-1.3-0.6-2.2-1.3-2.7-1-0.7-2.2-0.7-3.3-0.7h-1.6z"/>
			<path class="st0" d="m221.6 172.7h-9.6l-2.1 5h-5l10.3-24.3h3.5l10 24.3h-5zm-1.4-3.8-3.4-8.6-3.4 8.6z"/>
			<path class="st0" d="m258.6 153.8v19.8h2.5v9.4h-4.3v-5.4h-14.7v5.4h-4.3v-9.4c1.7 0.1 3.1-1.4 3.8-3.2 0.5-1.2 0.9-3 0.9-6.2v-10.4zm-11.6 10.4c0 3.7-0.4 5.5-0.8 6.7-0.5 1.3-1.2 2.2-1.9 2.8h9.6v-15.8h-6.9z"/>
			<path class="st0" d="m277 153.8v16l13.2-16.6h3.2v24.4h-4.6v-16.1l-13.2 16.6h-3.2v-24.3z"/>
			<path class="st0" d="m327.5 165.8c0 7.2-5.2 12.4-12.7 12.4s-12.7-5.2-12.7-12.4 5.2-12.5 12.7-12.5 12.7 5.2 12.7 12.5zm-4.7 0c0-4.8-3.3-8.3-7.9-8.3s-7.9 3.4-7.9 8.3c0 4.8 3.3 8.2 7.9 8.2s7.9-3.4 7.9-8.2z"/>
		
	
	
		<linearGradient id="b" x1="21.774" x2="488.79" y1="699.78" y2="699.78" gradientTransform="matrix(1 0 0 -1 0 775.71)" gradientUnits="userSpaceOnUse">
		<stop stop-color="#822C87" offset=".0060606"/>
		<stop stop-color="#34276E" offset="1"/>
	</linearGradient>
	<path class="st2" d="m396.6 110.1v1 9.7h-10.3v-26.4c0-5.4-0.2-7.5-0.4-8.3-0.2-0.9-0.5-1.1-0.5-1.2-0.2-0.2-0.6-0.2-0.9-0.2-0.7 0-1.5 0.2-2.5 0.6l-1.3 0.5-1.6-4.2 13.8-5.6h3.7zm-207.6-26.6c3.4 4.2 5.1 9.2 5.1 14.7 0 3.8-0.9 7.8-2.8 11.7-1.9 4-4.5 7-7.8 9.1-3.3 2-7 3.1-11 3.1-6.6 0-11.9-2.7-15.8-7.9-1.1-1.4-1.9-3-2.7-4.5v0.1l-0.3 0.3c-1.4 1.3-2.8 2.6-4.3 3.9-7 6.2-13.2 9.2-18.7 9.2-6.8 0-11.1-3.5-11.6-9.4-0.6-4.4 1.4-10 5.8-16.7l1-1.5c2.9-4.2 5.1-7.4 4.7-10.5-0.1-1.4-1.1-2.6-3-3.6-1.1 0.2-3.2 0.3-4.4 0.2s-2.1-0.3-3.1-0.7c-1.1 1.9-3.1 5.1-4.4 7-12.2 17.2-23 24-32.1 28.6 2.2 0.4 4.7 0.8 6.2 0.9 0.7 0.1 1.4 0.1 2.1 0.1 4.5 0 8.4-1.1 11.4-3.4 1.4-1 2.1-1.7 2.4-2s0.7-0.7 1.3-0.7c0.2 0 0.4 0.1 0.7 0.2s0.7 0.5 0.9 1.2c0.3 1.2-0.5 2.8-2 4.3-4.8 4.7-11.2 7.2-19.1 7.2-5.5 0-14-2.4-15.7-2.8-6.9 2.1-17.8 3.5-27.9 3.5h-2.2c-2 0-19.4-0.2-20.1-8-0.2-1.8 0.4-3.4 1.7-4.8 2.7-3 8.6-4.6 16.5-4.6 1 0 2 0 3 0.1 7.1 0.5 17.7 3.1 27.1 5.4l0.5 0.1c2 0.5 3.9 0.9 5.7 1.4 7.6-4.1 15.6-13.2 25.9-29.3 16.7-25.6 28.9-37.7 36.3-43.4-4.3-2.2-11.7-4.5-23.3-4.5-26.5 0-50.3 16.6-53.2 37-1 6.4 0.2 12.1 3.1 15.7 2 2.5 4.7 3.9 8.1 4.1 0.6 0.1 1.2 0.1 1.7 0.1 1.4 0 2.1-0.2 2.5-0.3 0.3-0.1 0.6-0.1 0.8-0.1 0.5 0 1 0.2 1.3 0.7s0.4 1.1 0.2 1.6c-0.7 1.5-3.5 2.6-6.7 2.6-6.5-0.2-12.1-2.7-16-7.1-4.1-4.6-5.9-10.7-5.2-17.8 2.1-22.8 29.9-40.7 63.2-40.7 15.1 0 24.5 3.5 28.2 5.2 3.2-2.5 8.4-5.2 11.9-6.7 4-1.8 11.3-4 18.4-4 5.8 0 13 1.8 16 5.9 0.9 1.3 1.7 3.2 1.2 4.2-0.2 0.5-0.7 0.8-1.2 0.8-1 0-1.4-0.7-1.6-1s-0.5-0.8-1.3-1.6c-2.4-2.5-7.3-3.9-12.9-3.9-5.3 0-12 1.9-16.2 3.8-3.3 1.5-7.1 3.5-9.6 5.3 4.3 3.2 14.1 12.2 10.1 24.8-3 9.2-13.5 14.3-22.8 15.4 2.8 2 4.6 4.7 5.2 7.7 1 5.3-2.2 11-3.1 12.6-0.6 1.1-1.2 2.3-1.9 3.4-2.3 4.1-4.2 7.3-3.9 10.3 0 0.6 0.4 2.4 2.9 2.4 2.7 0 6.8-2.4 13-7.6 1.5-1.3 3.1-2.7 4.8-4.3l0.4-0.3c-0.4-1.8-0.6-3.7-0.6-5.6 0-3.9 1-7.9 2.9-11.8 2-3.9 4.6-6.9 7.9-8.8 3.2-1.9 6.7-2.8 10.3-2.8 6.7-0.8 12.1 1.8 16.1 6.8zm-126.1 35.3c-0.9-0.2-1.8-0.4-2.8-0.7h-0.1c-6-1.4-12.8-3.1-17.6-3.5-2.8-0.3-5.3-0.4-7.5-0.4-5.6 0-7.4 1-7.9 1.6-0.2 0.3-0.3 0.5-0.3 0.9 0.1 1.4 6.3 3.3 14.9 3.6h2.1c6.4 0 13.7-0.6 19.2-1.5zm84.9-56.2c2.7-8.3-0.5-14.8-4.3-18-3.2 3.1-6.7 7.8-10.8 14.5-2 3.1-3.9 6.5-5.6 9.5-1.5 2.6-2.9 5-4.3 7.3 0.6 0 1.2 0.1 1.8 0.2 1.7 0.2 3.1 0.7 4.1 1 8.7-0.7 16.6-6.7 19.1-14.5zm35.1 39c0-6.9-1.5-12.4-4.4-16.3-1.8-2.5-4.1-3.7-6.9-3.7-1.3 0-2.7 0.4-4 1.2s-2.4 2.2-3.3 4.2c-0.9 2.2-1.4 5-1.4 8.5 0 5.7 1.1 10.6 3.4 14.7 2.1 3.8 4.8 5.7 8.1 5.7 2.4 0 4.4-1 6-3 1.7-2 2.5-5.8 2.5-11.3zm76.6-9c0-3.9-0.4-6.7-1.1-8.6-1.1-2.8-2.6-4.8-4.5-6.1s-4.1-1.9-6.6-1.9-4.9 0.6-7.2 1.8c-1.9 1-4 2.8-6.5 5.4-0.8-2-1.9-3.5-3.4-4.7-2.1-1.7-4.6-2.5-7.5-2.5-1.7 0-3.4 0.3-5.1 1s-3.3 1.6-4.7 2.9c-0.3 0.2-0.9 0.8-2.9 2.8v-6.7h-3.6l-13.9 5.6 1.7 4.2 1.3-0.5c1-0.4 1.8-0.6 2.5-0.6 0.3 0 0.7 0 0.9 0.2 0.1 0 0.3 0.3 0.5 1.2 0.2 0.8 0.4 3 0.4 8.4v26.2h10.2v-32c1.2-1.3 2.9-2.6 5-3.7 1.4-0.7 2.7-1.1 4.1-1.1 1.9 0 3.3 0.7 4.3 2.2 0.6 0.8 1.2 2.6 1.2 6.4v17.6 2.3 8.3h10.2v-30.1l-0.1-1.7c2-1.8 3.7-3.1 5.1-3.8s2.8-1 4.1-1c2.1 0 3.5 0.7 4.3 2.2 0.5 0.8 1 2.5 1 6.3v17.6c0 1.5 0 2.4-0.1 3v7.7h10.3v-9.1-1.5zm229.3 15v6.4l-0.3 0.4c-3.6 4.9-7.1 7.2-10.7 7.2-1.9 0-3.4-0.7-4.6-2-0.7-0.8-1.2-1.9-1.4-3.4-4.1 3.1-5.4 3.9-6.1 4.2-1.8 0.8-3.7 1.2-5.7 1.2-3.2 0-5.9-1.1-8-3.3s-3.1-5.1-3.1-8.6c0-2.2 0.5-4.2 1.5-5.9 1.3-2.2 3.6-4.3 6.8-6.2 3-1.8 7.7-3.8 14.3-6.3v-0.6c0-4.6-0.9-6.6-1.6-7.5-1-1.2-2.5-1.8-4.6-1.8-1.5 0-2.7 0.4-3.5 1.1s-1.2 1.5-1.2 2.4l0.1 2.5c0 1.8-0.5 3.2-1.4 4.2-1 1-2.2 1.6-3.8 1.6-1.5 0-2.8-0.6-3.7-1.6s-1.4-2.4-1.4-4.1c0-3 1.5-5.7 4.4-8.1 2.9-2.3 6.9-3.5 11.9-3.5 3.8 0 7.1 0.7 9.6 2 2 1.1 3.6 2.8 4.5 5 0.6 1.5 0.9 4.2 0.9 8.4v13.9c0 4.7 0.1 6.4 0.2 6.9 0.1 0.7 0.3 1 0.3 1 0.1 0.1 0.1 0.1 0.2 0.1 0.2 0 0.4 0 0.5-0.1 0.3-0.2 1.1-0.8 3.3-3zm-17.2-10.5c-3.3 1.3-5.5 2.3-6.6 2.9-2.2 1.2-3.7 2.4-4.6 3.7-0.8 1.2-1.2 2.5-1.2 3.9 0 1.8 0.5 3.2 1.6 4.4 1 1.1 2.1 1.7 3.4 1.7 1.2 0 3.6-0.7 7.5-3.7zm-27.4 18.9c-0.9-0.3-2-1.2-3.3-2.4-1-0.9-2.9-3.2-5.7-6.8l-9.7-12.2 9.5-8.8c1.8-1.6 3.5-2.8 4.9-3.4s3.3-0.9 5.6-1h1.4v-4.2h-11.7s-6.6 6.3-9.4 9l-8 7.3v-38.9h-3.8l-13.8 5.7 2 4.1 1.2-0.5c1.5-0.6 2.1-0.7 2.3-0.7 0.4 0 0.7 0.1 1 0.3 0.1 0 0.3 0.3 0.6 1.4 0.1 0.7 0.3 2.7 0.3 8.4v47.5h10.2v-20l14.3 20h17v-4.4h-1.4c-2.3-0.1-3.1-0.3-3.5-0.4zm-71.7-5.3c-0.4 0.9-0.9 1.6-1.6 2.1s-1.4 0.7-2.1 0.7c-0.8 0-1.3-0.3-1.8-0.9-0.2-0.3-0.8-1.3-0.8-4.4v-25h9.5v-6h-9.5v-13.5h-3.7l-0.4 0.9c-1.2 2.9-2.1 4.9-2.7 6-1.3 2-2.7 3.8-4.3 5.2s-3.1 2.5-4.6 3.1l-0.9 0.4v3.8h6.5v26c0 3.2 0.3 5.5 1.1 7.1 0.7 1.7 1.9 3 3.5 3.9 1.5 0.9 3.1 1.3 4.7 1.3 2.3 0 4.6-0.8 6.7-2.5 2.1-1.6 3.7-4.1 4.9-7.2l0.7-1.9h-4.7zm17.5-39.7c1.6 0 3.1-0.6 4.2-1.8s1.7-2.6 1.7-4.2-0.6-3-1.7-4.2-2.6-1.7-4.2-1.7c-1.7 0-3.1 0.6-4.2 1.7-1.2 1.2-1.7 2.6-1.7 4.2s0.6 3.1 1.7 4.2c1.1 1.3 2.5 1.8 4.2 1.8zm-43 44.9c-0.5-0.3-0.8-0.6-1-1.1-0.2-0.4-0.5-1.6-0.5-4.7v-17.4c0-3.9-0.3-6.7-1.1-8.7-1-2.8-2.5-4.9-4.3-6.2s-4-1.9-6.6-1.9c-4 0-8.1 2.1-12.3 6.4v-6.4h-3.6l-13.9 5.6 1.7 4.2 1.3-0.5c1.6-0.6 2.9-0.7 3.4-0.3 0 0 0.3 0.3 0.5 1.4 0.1 0.7 0.3 2.7 0.3 8.7v25.8h10.2v-31.6c3.1-3.3 6.2-4.9 9.1-4.9 2.3 0 3.2 1 3.7 1.8 0.8 1.5 1.3 3.9 1.3 7.4v27.3h16.4v-4.4h-1.4c-2.2-0.1-3-0.4-3.2-0.5zm-42.4-5.9 2.4-2.4v6.4l-0.3 0.4c-3.6 4.9-7.1 7.2-10.7 7.2-1.9 0-3.4-0.7-4.6-2-0.7-0.8-1.2-1.9-1.4-3.4-4.1 3.1-5.4 3.9-6.1 4.2-1.8 0.8-3.7 1.2-5.7 1.2-3.2 0-5.9-1.1-8-3.3s-3.1-5.1-3.1-8.6c0-2.2 0.5-4.2 1.5-5.9 1.3-2.2 3.6-4.3 6.8-6.2 3-1.8 7.7-3.8 14.3-6.3v-0.6c0-4.6-0.9-6.6-1.6-7.5-1-1.2-2.5-1.8-4.6-1.8-1.5 0-2.7 0.4-3.5 1.1s-1.2 1.5-1.2 2.4l0.1 2.5c0 1.8-0.5 3.2-1.4 4.2-1 1-2.2 1.6-3.8 1.6-1.5 0-2.8-0.6-3.7-1.6s-1.4-2.4-1.4-4.1c0-3 1.5-5.7 4.4-8.1 2.9-2.3 6.9-3.5 11.9-3.5 3.8 0 7.1 0.7 9.6 2 2 1.1 3.6 2.8 4.5 5 0.6 1.5 0.9 4.2 0.9 8.4v13.9c0 4.7 0.1 6.4 0.2 6.9 0.1 0.7 0.3 1 0.3 1 0.1 0.1 0.1 0.1 0.2 0.1 0.2 0 0.4 0 0.5-0.1 0.5-0.2 1.3-0.9 3.5-3.1zm-14.7-12.9c-3.3 1.3-5.5 2.3-6.6 2.9-2.2 1.2-3.7 2.4-4.6 3.7-0.8 1.2-1.2 2.5-1.2 3.9 0 1.8 0.5 3.2 1.5 4.4 1 1.1 2.1 1.7 3.4 1.7s3.6-0.7 7.5-3.7z" fill="url(#b)" Googl="true"/>
	
		<linearGradient id="a" x1="266.89" x2="266.89" y1="675.89" y2="748.49" gradientTransform="matrix(1 0 0 -1 0 775.71)" gradientUnits="userSpaceOnUse">
		<stop stop-color="#fff" offset=".0060606"/>
		<stop stop-color="#231F20" offset=".8"/>
	</linearGradient>
	<path class="st3" d="m300.1 91.3v8.5h-4.4-5.8v-2.7c-2.8 1.2-4.9 2-6 2.6-3.8 0-7.5-0.1-11.3-0.1 0.9-0.7 1.9-1.4 3-2 3-1.8 7.7-3.8 14.3-6.3v-0.6c0-4.6-0.9-6.6-1.6-7.5-1-1.2-2.5-1.8-4.6-1.8-1.5 0-2.7 0.4-3.5 1.1s-1.2 1.5-1.2 2.4l0.1 2.5c0 1.8-0.5 3.2-1.4 4.2-1 1-2.2 1.6-3.8 1.6-1.5 0-2.8-0.6-3.7-1.6s-1.4-2.4-1.4-4.1c0-3 1.5-5.7 4.4-8.1 2.9-2.3 6.9-3.5 11.9-3.5 3.8 0 7.1 0.7 9.6 2 2 1.1 3.6 2.8 4.5 5 0.6 1.5 0.9 4.2 0.9 8.4zm92.8-15.4-13.8 5.6 1.6 4.2 1.3-0.5c1-0.4 1.9-0.6 2.5-0.6 0.3 0 0.7 0 0.9 0.2 0 0 0.3 0.3 0.5 1.2 0.2 0.8 0.4 3 0.4 8.3v2.3c3.4-0.2 6.9-0.5 10.2-0.8v-20zm-134.5 8.1c-1.1-2.8-2.6-4.8-4.5-6.1s-4.1-1.9-6.6-1.9-4.9 0.6-7.2 1.8c-1.9 1-4 2.8-6.5 5.4-0.8-2-1.9-3.5-3.4-4.7-2.1-1.7-4.6-2.5-7.5-2.5-1.7 0-3.4 0.3-5.1 1s-3.3 1.6-4.7 2.9c-0.3 0.2-0.9 0.8-2.9 2.8v-6.7h-3.6l-13.9 5.6 1.7 4.2 1.3-0.5c1-0.4 1.8-0.6 2.5-0.6 0.3 0 0.7 0 0.9 0.2 0.1 0 0.3 0.3 0.5 1.2 0.2 0.8 0.4 3 0.4 8.4v1.8c3.4 0.2 6.8 0.5 10.2 0.7v-8.3c1.2-1.3 2.9-2.6 5-3.7 1.4-0.7 2.7-1.1 4.1-1.1 1.9 0 3.3 0.7 4.3 2.2 0.6 0.8 1.2 2.6 1.2 6.4v5.4c3.4 0.2 6.8 0.4 10.2 0.5v-7.9l-0.1-1.7c2-1.8 3.7-3.1 5.1-3.8s2.8-1 4.1-1c2.1 0 3.5 0.7 4.3 2.2 0.5 0.8 1 2.5 1 6.3v6.5l10.2 0.3v-6.8c0.1-3.8-0.3-6.6-1-8.5zm86 0c-1-2.8-2.5-4.9-4.3-6.2s-4-1.9-6.6-1.9c-4 0-8.1 2.1-12.3 6.4v-6.4h-3.6l-13.9 5.6 1.7 4.2 1.3-0.5c1.6-0.6 2.9-0.7 3.4-0.3 0 0 0.3 0.3 0.5 1.4 0.1 0.7 0.3 2.7 0.3 8.7v4.7c3.4 0 6.8-0.1 10.2-0.2v-10.4c3.1-3.3 6.2-4.9 9.1-4.9 2.3 0 3.2 1 3.7 1.8 0.8 1.5 1.3 3.9 1.3 7.4v5.8l10.2-0.3v-6.2c0.1-3.9-0.2-6.7-1-8.7zm31.3-0.9v-6h-9.5v-13.4h-3.7l-0.4 0.9c-1.2 2.9-2.1 4.9-2.7 6-1.3 2-2.7 3.8-4.3 5.2s-3.1 2.5-4.6 3.1l-0.9 0.4v3.8h6.5v15.4c3.4-0.2 6.8-0.3 10.2-0.5v-14.9zm105.2-0.2c-1-2.3-2.5-4-4.5-5-2.5-1.3-5.7-2-9.6-2-5 0-9 1.2-11.9 3.5-2.9 2.4-4.4 5.1-4.4 8.1 0 0.9 0.2 1.8 0.5 2.5 3.3-0.5 6.6-0.9 9.8-1.4 0-0.3 0.1-0.7 0.1-1.1l-0.1-2.5c0-0.9 0.4-1.7 1.2-2.4 0.8-0.8 2-1.1 3.5-1.1 2 0 3.5 0.6 4.6 1.8 0.5 0.6 1 1.7 1.3 3.7 3.4-0.6 6.8-1.2 10.1-1.8-0.2-0.9-0.4-1.7-0.6-2.3zm-53.7 10.2 7.9-7.3c1.8-1.6 3.5-2.8 4.9-3.4s3.3-0.9 5.6-1h1.4v-4.2h-11.7s-6.6 6.3-9.4 9l-8 7.3v-38.9h-3.9l-13.8 5.7 2 4.1 1.2-0.5c1.5-0.6 2.1-0.7 2.3-0.7 0.4 0 0.7 0.1 1 0.3 0.1 0 0.3 0.3 0.6 1.4 0.1 0.7 0.3 2.7 0.3 8.4v21.7c6.6-0.6 13.2-1.2 19.6-1.9zm-33-23.8c1.1-1.2 1.7-2.6 1.7-4.2s-0.6-3-1.7-4.2-2.6-1.7-4.2-1.7c-1.7 0-3.1 0.6-4.2 1.7-1.2 1.2-1.7 2.6-1.7 4.2s0.6 3.1 1.7 4.2c1.2 1.2 2.6 1.7 4.2 1.7s3-0.5 4.2-1.7zm-264.1 19.3c0.5-1.3 0.8-2.5 0.6-3.7-0.1-1.4-1.1-2.6-3-3.6-1.1 0.2-3.2 0.3-4.4 0.2s-2.1-0.3-3.1-0.7c-0.9 1.5-2.3 3.8-3.5 5.7-4.7-0.8-9.3-1.7-13.8-2.6 16.4-24.8 28.2-36.7 35.6-42.3-4.3-2.2-11.7-4.5-23.3-4.5-26.2 0-49.8 16.3-53 36.4-3.5-1.2-6.7-2.3-9.8-3.5 4.5-21.1 31.1-37.1 62.6-37.1 15.1 0 24.5 3.5 28.2 5.2 3.2-2.5 8.4-5.2 11.9-6.7 4-1.8 11.3-4 18.4-4 5.8 0 13 1.8 16 5.9 0.9 1.3 1.7 3.2 1.2 4.2-0.2 0.5-0.7 0.8-1.2 0.8-1 0-1.4-0.7-1.6-1s-0.5-0.8-1.3-1.6c-2.4-2.5-7.3-3.9-12.9-3.9-5.3 0-12 1.9-16.2 3.8-3.3 1.5-7.1 3.5-9.6 5.3 4.3 3.2 14.1 12.2 10.1 24.8-3 9.2-13.5 14.3-22.8 15.4 2.8 2 4.6 4.7 5.2 7.7 0.1 0.5 0.1 1 0.2 1.6-3.7-0.8-7.1-1.3-10.5-1.8zm17.7-26c2.7-8.3-0.5-14.8-4.3-18-3.2 3.1-6.7 7.8-10.8 14.5-2 3.1-3.9 6.5-5.6 9.5-1.5 2.6-2.9 5-4.3 7.3 0.6 0 1.2 0.1 1.8 0.2 1.7 0.2 3.1 0.7 4.1 1 8.7-0.7 16.6-6.7 19.1-14.5zm41.2 20.9c-4-5-9.4-7.6-16-7.6-3.6 0-7.1 1-10.3 2.8-3.3 1.9-5.9 4.9-7.9 8.8-0.7 1.4-1.3 2.8-1.7 4.2 3.3 0.4 6.6 0.8 10 1.2 0.2-2.3 0.6-4.2 1.2-5.8 0.9-2.1 2-3.5 3.3-4.2 1.4-0.8 2.7-1.2 4-1.2 2.8 0 5.1 1.2 6.9 3.7 1.9 2.5 3.2 5.7 3.8 9.5 3.8 0.3 7.7 0.7 11.6 1-0.4-4.6-2.1-8.7-4.9-12.4z" fill="url(#a)"/>
</g>
</svg>
