<svg width="200mm" height="34.726mm" version="1.1" viewBox="0 0 200 34.726" xmlns="http://www.w3.org/2000/svg">
 <g transform="translate(21.361 -97.124)">
  <path d="m165.52 107.44h3.6323l2.9652 11.297h0.0741l3.0022-11.297h3.447l-4.5219 14.652h-4.1512z" fill="#fff"/>
  <path d="m161.89 119.65c-1.0378 0-1.5938-0.45588-1.5938-2.0237v-7.5982h4.04l-0.77836-2.5871h-10.119v2.5871h3.3358v8.0245c0 3.0763 1.4826 4.2698 4.0771 4.2698 0.70423 0 1.2972-0.10377 1.742-0.24463v-2.513c-0.18531 0.0482-0.44477 0.0852-0.70421 0.0852" fill="#fff"/>
  <path d="m137.05 100.6c-5.2632 0-9.5256 4.2624-9.5256 9.5182 0 4.6664 3.3729 8.5471 7.7836 9.3625v-9.3625h3.4841v9.3625c4.4107-0.81542 7.7835-4.6961 7.7835-9.3625 0-5.2558-4.2624-9.5182-9.5256-9.5182m0-3.4729c7.1534 0 12.973 5.8191 12.973 12.991 0 7.172-5.8191 12.984-12.973 12.984-7.1905 0-13.01-5.8117-13.01-12.984 0-7.172 5.8191-12.991 13.01-12.991" fill="#ed7e00"/>
  <path d="m-21.25 131.62h1.6308v-9.1327c0-2.6761 1.2231-3.8102 3.8176-3.8102v-1.7643c-1.5938 0-2.8169 0.42253-3.8547 2.5018h-0.07413c0-0.59674-0.07413-1.4492-0.1112-2.3054h-1.5197c0.03707 1.5085 0.1112 2.9874 0.1112 4.4996z" fill="#fff"/>
  <path d="m-5.0898 121.72c0-1.0489 0-4.8036-4.4848-4.8036-1.5938 0-2.5945 0.53743-3.9659 1.2787l0.25945 1.7643c0.14824-0.14457 1.705-1.5085 3.6323-1.5085 3.0022 0 3.0022 2.6205 3.0022 4.444h-1.0378c-2.0756 0-7.0052 0.0815-7.0052 4.722 0 2.3573 1.7791 4.2105 4.04 4.2105 1.8903 0 3.0764-0.68569 4.0771-2.2795h0.07413l0.1112 2.0756h1.4826c-0.11119-1.0749-0.18532-2.1609-0.18532-3.2431zm-1.5567 4.2995c0 3.9548-2.8169 4.2698-3.5952 4.2698-1.7791 0-2.6687-1.4492-2.6687-2.6724 0-3.3062 2.854-3.3062 6.2639-3.3062z" fill="#fff"/>
  <path d="m8.4388 110.28h-1.6679v8.7027h-0.074126c-0.70423-1.3343-1.8162-2.0719-3.6323-2.0719-3.6694 0-4.8184 4.1549-4.8184 6.9125 0 2.0237 0.14826 7.9985 4.8925 7.9985 1.8162 0 2.7428-0.82283 3.8176-2.1942h0.037065v1.9904h1.5567c-0.074128-1.2454-0.11119-2.5315-0.11119-4.8073zm-8.4507 14.088c0-3.3618 0.85249-5.9229 3.3358-5.9229 3.5582 0 3.5582 4.1586 3.5582 6.0934 0 2.954-0.77836 5.745-3.5953 5.745-3.2987 0-3.2987-4.722-3.2987-5.9155" fill="#fff"/>
  <path d="m12.59 131.62h1.6679v-14.511h-1.6679zm-0.14826-17.728h2.0015v-2.5574h-2.0015z" fill="#fff"/>
  <path d="m23.227 130.29c-3.6694 0-3.6694-4.7517-3.6694-5.9155 0-1.1675 0-5.9229 3.6694-5.9229 3.6694 0 3.6694 4.7554 3.6694 5.9229 0 1.1638 0 5.9155-3.6694 5.9155m0 1.5382c4.2254 0 5.4114-3.814 5.4114-7.4537 0-3.6434-1.1861-7.4574-5.4114-7.4574-4.2624 0-5.4485 3.8139-5.4485 7.4574 0 3.6397 1.1861 7.4537 5.4485 7.4537" fill="#fff"/>
  <path d="m32.049 110.28v18.84c0 1.0489-0.03706 1.9644-0.1112 2.4982h3.2987c0.03706-0.42254 0.11119-1.275 0.11119-2.2721h0.07413c0.55597 1.2528 1.6308 2.5018 3.8918 2.5018 3.6694 0 5.152-3.4729 5.152-7.5426 0-4.7776-1.8903-7.5649-5.0408-7.5649-2.1127 0-3.2987 1.1935-3.7806 2.3351h-0.07413v-8.7954zm3.5211 13.97c0-2.8428 0.81542-4.9259 2.7428-4.9259 1.9644 0 2.6316 1.9125 2.6316 4.8406 0 3.3877-0.51889 5.0964-2.5945 5.0964-2.0756 0-2.7798-2.2498-2.7798-5.0111" fill="#fff"/>
  <path d="m47.653 131.62h3.5211v-8.0208c0-2.7354 1.6308-3.6175 3.0763-3.6175 0.37065 0 0.66717 0.0593 1.0007 0.14827v-3.3062c-0.22239-0.0296-0.40771-0.0815-0.63009-0.0815-2.1868 0-3.2987 1.7643-3.7064 2.8984h-0.07413c0-0.87844-0.07413-1.7939-0.11119-2.6724h-3.1875c0.07413 0.65604 0.11119 1.5085 0.11119 2.4166z" fill="#fff"/>
  <path d="m67.594 128.12c-0.66717 0.48184-1.705 1.1379-3.8547 1.1379-2.7428 0-3.7435-1.5085-3.7435-4.0141h8.4878v-0.682c0-5.9748-2.7057-7.8243-5.8562-7.8243-3.7064 0-6.0415 3.3877-6.0415 7.7687 0 3.9548 2.0756 7.3388 6.7828 7.3388 2.1127 0 3.6323-0.62268 4.3736-0.93401zm-7.5982-5.0964c0-1.9348 0.77834-3.8955 2.6316-3.8955 1.5938 0 2.4463 1.3047 2.4463 3.8955z" fill="#fff"/>
  <path d="m71.708 131.62h3.5211v-8.877c0-1.6197 0.85248-3.1023 2.4092-3.1023 1.2973 0 1.8903 0.91549 1.8903 2.7316v9.2476h3.5211v-8.877c0-1.6197 0.81543-3.1023 2.3721-3.1023 1.3343 0 1.8903 0.91549 1.8903 2.7316v9.2476h3.5211v-9.0438c0-3.5582-1.0007-5.8339-4.1883-5.8339-2.1868 0-3.2246 1.3084-3.9288 2.3351-0.44476-0.80059-1.2231-2.3351-3.7064-2.3351-2.0386 0-3.1876 1.3899-3.7065 2.5315h-0.07413c0-0.76725-0.07413-1.5382-0.11119-2.3054h-3.5211c0.07413 0.53744 0.11119 1.3343 0.11119 2.3907z" fill="#fff"/>
  <path d="m104.81 128.12c-0.63008 0.48184-1.6679 1.1379-3.8547 1.1379-2.7057 0-3.7064-1.5085-3.7064-4.0141h8.4878v-0.682c0-5.9748-2.7057-7.8243-5.8933-7.8243-3.7065 0-6.0044 3.3877-6.0044 7.7687 0 3.9548 2.0385 7.3388 6.7457 7.3388 2.1127 0 3.6694-0.62268 4.4107-0.93401zm-7.5611-5.0964c0-1.9348 0.77836-3.8955 2.5945-3.8955 1.6309 0 2.4833 1.3047 2.4833 3.8955z" fill="#fff"/>
  <path d="m109.03 131.62h3.5211v-8.5322c0-1.8792 0.66716-3.447 2.5204-3.447 1.4455 0 2.0015 0.94514 2.0015 3.1838v8.7954h3.5211v-9.444c0-2.9614-0.96368-5.4336-4.2995-5.4336-2.4092 0-3.4099 1.5938-3.8918 2.4722h-0.0741c0-0.73758-0.0741-1.5048-0.11119-2.2461h-3.2988c0.0741 0.65604 0.11121 1.5085 0.11121 2.4166z" fill="#fff"/>
 </g>
</svg>
