<svg enable-background="new 0 0 614.612 130.133" version="1.1" viewBox="0 0 800 169.39" xml:space="preserve" xmlns="http://www.w3.org/2000/svg"><g stroke-width="1.3016"><path d="m116.72 0.16921h-6.5082v6.5069h6.5082zm-114.14 12.623c-1.7325 1.7051-2.5799 3.7578-2.5799 6.1711v21.67h6.503v-21.67c0-0.60656 0.21607-1.1129 0.62999-1.5568 0.40221-0.43345 0.92286-0.65342 1.5255-0.65342h16.921v-6.503h-16.887c-2.3651 0-4.4074 0.84216-6.1125 2.5421zm91.695-2.5421h-18.495c-2.3794 0-4.4321 0.84216-6.1489 2.5421-1.7169 1.7051-2.5694 3.7578-2.5694 6.1711v12.963c0 2.4028 0.85127 4.4607 2.5694 6.1607 1.7117 1.6934 3.7461 2.546 6.1229 2.546h25.038v-40.464h-6.5186v10.081zm0 23.877h-18.557c-0.60266 0-1.1142-0.21868-1.5294-0.65342-0.41392-0.42824-0.61177-0.9541-0.61177-1.5463v-12.963c0-0.60656 0.19655-1.1129 0.61177-1.5568 0.41392-0.43345 0.92677-0.65342 1.5294-0.65342h18.557zm23.07-0.65342c-0.41002-0.42824-0.62349-0.9541-0.62349-1.5463v-21.678h-6.5082v21.676c0 2.4028 0.85387 4.4607 2.5824 6.1607 1.7012 1.6934 3.7552 2.546 6.1268 2.546h5.9993v-6.5069h-6.0461c-0.59355 0.0013-1.1181-0.21737-1.5307-0.65212zm45.112-20.682c-1.6843-1.6999-3.7487-2.5421-6.1516-2.5421h-16.334c-2.3599 0-4.4087 0.84216-6.119 2.5421-1.7156 1.7051-2.5772 3.7578-2.5772 6.1711v12.963c0 2.4028 0.86169 4.4607 2.5772 6.1607 1.7104 1.6934 3.7591 2.546 6.119 2.546h16.334c2.4028 0 4.4672-0.85257 6.1516-2.546 1.7116-1.7012 2.5538-3.7591 2.5538-6.1607v-12.963c0-2.4132-0.84216-4.4659-2.5538-6.1711zm-3.9531 19.134c0 0.59225-0.20957 1.1181-0.6313 1.5463-0.41392 0.43475-0.92807 0.65342-1.5307 0.65342h-16.395c-0.60266 0-1.1259-0.21868-1.5464-0.65342-0.41913-0.42824-0.61438-0.9541-0.61438-1.5463v-12.963c0-0.60656 0.19395-1.1129 0.61438-1.5568 0.41913-0.43345 0.94369-0.65342 1.5464-0.65342h16.395c0.60266 0 1.1155 0.21998 1.5307 0.65342 0.42173 0.44386 0.6313 0.9502 0.6313 1.5568zm-107.71-21.676h-16.865v6.503h16.915c0.60656 0 1.1116 0.21998 1.5372 0.65342 0.40872 0.44386 0.62479 0.9502 0.62479 1.5568v4.2407h-15.795c-2.3781 0-4.4256 0.84476-6.1372 2.5447-1.7169 1.7078-2.5851 3.7578-2.5851 6.1776 0 2.4028 0.86559 4.4607 2.5759 6.1607 1.7208 1.6934 3.7474 2.546 6.1333 2.546h22.31v-21.67c0-2.4132-0.84737-4.4672-2.5369-6.1711-1.7051-1.6999-3.7617-2.5421-6.1763-2.5421zm2.2115 23.877h-15.844c-0.61307 0-1.1207-0.21868-1.5385-0.66514-0.40611-0.42824-0.60787-0.9528-0.60787-1.5724 0-0.60656 0.20175-1.1207 0.60917-1.5516 0.41652-0.42173 0.92547-0.62479 1.5385-0.62479h15.844v4.4139z"/><path d="m415.73 50.718c0 4.7406 1.6258 8.7548 4.8994 12.027 3.2749 3.2749 7.2892 4.9085 12.03 4.9085h105.51c14 0 25.966 4.971 35.907 14.908 2.2167 2.2193 4.1509 4.5596 5.8704 6.9742v-55.761h-147.29c-4.7419 0-8.7561 1.6505-12.03 4.9137-3.2736 3.2801-4.8994 7.2814-4.8994 12.03z"/><path d="m385.23 169.29v-33.866h152.94c4.7393 0 8.7483-1.6453 12.032-4.9124 3.2567-3.2723 4.9137-7.2944 4.9137-12.035 0-4.7484-1.657-8.7509-4.9137-12.027-3.284-3.2697-7.2944-4.9072-12.032-4.9072h-105.51c-14.01 0-25.974-4.9671-35.908-14.917-9.9471-9.9315-14.909-21.901-14.909-35.904 0-14.002 4.9632-25.968 14.909-35.912 9.407-9.407 20.656-14.309 33.712-14.806h-197.69c-13.955 0-25.878 4.9514-35.774 14.843-9.8977 9.9029-14.846 21.834-14.846 35.773v118.67h33.754v-33.826h135.53l-0.0742 33.826zm-33.837-67.701-135.49 0.0534v-50.914c0-4.7263 1.6205-8.7223 4.8968-11.983 3.2567-3.258 7.241-4.8916 11.971-4.8916h101.57c4.7302 0 8.721 1.6336 11.988 4.8916 3.2502 3.2606 5.0647 7.2566 5.0647 11.983v50.86z"/><path d="m604.37 112.41c-4.9475 4.941-7.4232 10.909-7.4232 17.882v39.092h16.876v-17.08h50.794v-16.874h-50.794v-5.1363c0-2.3612 0.81613-4.3592 2.4393-5.9888 1.6375-1.627 3.642-2.4497 5.9928-2.4497h42.363v-16.871h-42.363c-6.9703 0-12.936 2.4731-17.885 7.4258z"/><path d="m792.56 112.42c-4.9644-4.9632-10.94-7.4389-17.94-7.4389h-16.914c-6.4249 0-12.065 2.1425-16.911 6.4236-4.8395-4.2811-10.496-6.4236-16.914-6.4236h-16.927c-7.0002 0-12.966 2.4757-17.93 7.4389-4.9658 4.9658-7.4389 10.942-7.4389 17.933v38.928h16.915v-38.928c0-2.3703 0.81352-4.3696 2.4588-6.0071 1.6218-1.6336 3.6277-2.451 5.9954-2.451h16.925c2.3664 0 4.3683 0.81743 5.9993 2.451 1.6244 1.6375 2.451 3.6368 2.451 6.0071v38.928h16.924v-38.928c0-2.3703 0.80832-4.3696 2.4458-6.0071 1.6453-1.6336 3.6368-2.451 6.0045-2.451h16.914c2.3781 0 4.3813 0.81743 6.0045 2.451 1.6375 1.6375 2.4588 3.6368 2.4588 6.0071v38.928h16.916v-38.928c1e-3 -6.9911-2.4848-12.966-7.4376-17.933z"/></g><g fill="#ed1c24" stroke-width="1.3016"><path d="m165.16 165.21c0 2.2466-1.8223 4.0663-4.0702 4.0663h-25.726c-2.2479 0-4.065-1.8197-4.065-4.0663v-22.345c0-2.2453 1.8171-4.0663 4.065-4.0663h25.726c2.2479 0 4.0702 1.821 4.0702 4.0663z"/><path d="m165.16 128.03c0 2.2466-1.8223 4.0689-4.0702 4.0689h-25.726c-2.2479 0-4.065-1.8223-4.065-4.0689v-22.345c0-2.2466 1.8171-4.0676 4.065-4.0676h25.726c2.2479 0 4.0702 1.821 4.0702 4.0676z"/><path d="m114.24 165.21c0 2.2466-1.8171 4.0663-4.065 4.0663h-25.728c-2.2453 0-4.0689-1.8197-4.0689-4.0663v-22.345c0-2.2453 1.8236-4.0663 4.0689-4.0663h25.73c2.2479 0 4.065 1.821 4.065 4.0663v22.345z"/><path d="m114.24 128.03c0 2.2466-1.8171 4.0689-4.065 4.0689h-25.728c-2.2453 0-4.0689-1.8223-4.0689-4.0689v-22.345c0-2.2466 1.8236-4.0676 4.0689-4.0676h25.73c2.2479 0 4.065 1.821 4.065 4.0676v22.345z"/><path d="m165.16 90.698c0 2.2453-1.8223 4.065-4.0702 4.065h-25.726c-2.2479 0-4.065-1.8197-4.065-4.065v-22.347c0-2.2453 1.8171-4.0663 4.065-4.0663h25.726c2.2479 0 4.0702 1.821 4.0702 4.0663z"/></g></svg>
