<?xml version="1.0" encoding="UTF-8"?>
<svg width="487.13" height="163.87" version="1.1" viewBox="0 0 487.13 163.87" xmlns="http://www.w3.org/2000/svg">
 <g transform="translate(-57.308 -218.3)" fill="none" stroke-width="2">
  <path d="m315.56 220.33-1-0.22" stroke="#8fadd0" vector-effect="non-scaling-stroke"/>
  <path d="m314.56 220.11q-29.18 0.52-58.26 2.27c-12.17 0.74-24.74 2.22-37.1 3.57-37.93 4.13-75.78 11.84-111.89 24.26-15.2 5.23-33.65 12.48-44.64 24.71q-4.97 5.53-4.28 12.51" stroke="#adc0dd" vector-effect="non-scaling-stroke"/>
  <path d="m58.39 287.43q0.3 2.7 1.53 5.16" stroke="#8fadd0" vector-effect="non-scaling-stroke"/>
  <path d="m59.92 292.59c5.06 11.9 17.84 20.12 29.33 25.22 20.61 9.16 43.91 15.09 68.3 20.08q0.25 0.05 0.3-0.19l0.05-0.25q0.02-0.05-0.04-0.06-15.29-3.34-30.17-8.19c-14.8-4.82-35.95-12.54-41.44-27.55-4.15-11.32 13.64-22.32 21.95-26.18 18.59-8.64 38.73-14.08 58.79-18.05q23.47-4.64 47.25-7.41 46.23-5.37 92.24-5.71a2.19 2.19 0 0 0 1.94-1.21l11.2-22.51q0.49-0.97-0.6-1.03-1.45-0.07-3.46 0.78" stroke="#808799" vector-effect="non-scaling-stroke"/>
  <path d="m59.92 292.59q-0.14-1.86 1.41 0.76 4.26 7.18 10.99 12.09 6.34 4.63 8.42 5.87 1.79 1.07 4.51 1.56 0.52 0.1 0.95 0.4 1.38 0.95 3.13 0.55a0.75 0.74-13.6 0 0 0.56-0.91q-0.33-1.28-1.34-2.24-0.28-0.27-0.34-0.66-0.03-0.18-0.03-0.37a2.04 1.98 31.9 0 0-0.23-0.93c-1.77-3.43-4.51-7.09-4.41-10.97 0.46-18.21 30.03-28.99 44.14-33.66 8.1-2.68 17.7-4.85 26.58-7.22q11.06-2.95 39.26-7.02 31.61-4.57 63.5-6.47 19.56-1.17 39.12-2.56 4.44-0.32 8.55-0.24a2.49 2.47-70.5 0 0 2.03-0.98q1.28-1.71 2.31-3.85 2.76-5.75 5.94-11.31c0.79-1.37 0.77-2.61 0.59-4.1" stroke="#103569" vector-effect="non-scaling-stroke"/>
  <path d="m314.56 220.11q-0.22 0.54-1.5 0.53-0.72-0.01-0.31 0.58 0.82 1.17 0.02 2.42-0.26 0.4-0.71 0.51-2.85 0.7-4.81 0.7-14-0.04-28 0.32c-3.54 0.1-6.19 0.51-9.59 0.74-5.94 0.41-12.45 1.11-22.44 0.98-2.94-0.04-5.65 1.21-8.73 1.37q-7.38 0.39-14.77 0.85-0.09 0.01-0.1 0.11 0 0.05-0.02 0.1a0.41 0.27-2.6 0 1-0.3 0.22q-7.54 1.61-9.8 1.6-1.76-0.02-2.89 0.22c-6.26 1.33-12.75 1.91-19.08 3.18-4.2 0.85-8.91 1.37-12.28 1.96q-11.58 2-34.24 7.49-19.95 4.84-39.29 11.74c-12.49 4.46-24.21 9.99-35.07 17.67q-7.01 4.95-8.8 13.33-0.12 0.59-0.64 0.76-0.4 0.13-0.57-0.27-0.33-0.82-0.55-1.61-0.13-0.43-0.37-0.62-0.31-0.23-0.66-0.23a0.59 0.59 0 0 0-0.6 0.57l-0.07 2.1" stroke="#3d6eae" vector-effect="non-scaling-stroke"/>
  <g stroke="#83a1c8">
   <path d="m423.18 220.73a0.98 0.98 0 0 0-1.04-1.42l-4.88 0.84a0.98 0.98 0 0 0-0.7 0.52l-11.65 22.65a0.98 0.98 0 0 0 0.96 1.43l4.6-0.42a0.98 0.98 0 0 0 0.79-0.53l11.92-23.07" vector-effect="non-scaling-stroke"/>
   <path d="m433.44 221.42q-6.47 3.03-10.53 10.21c-1.69 2.99-4.42 10.59 0.6 12.33 5.68 1.98 11.97 0.75 16.91-2.83 4.36-3.15 10.68-10.73 9.85-16.58-1.01-7.07-12.29-5.26-16.83-3.13" vector-effect="non-scaling-stroke"/>
   <path d="m336.43 235.73q-0.04 3.65-1.32 7.09a1.05 1.04 10.3 0 0 0.98 1.41l4.18 0.01q1.32 0 1.75-1.25 1.64-4.71 0.83-9.55a1.32 1.3 73.9 0 1 0.77-1.41c3.81-1.64 13.16-10.61 2.86-11.82q-5.9-0.69-11.85-0.24c-1.07 0.08-2.09 0.84-2.5 1.72q-5.03 10.74-10.7 20.77-1.21 2.15 1.25 2.09l1.93-0.04q2.53-0.06 3.67-2.33c1.45-2.91 3.39-9.95 7.72-7.23a0.9 0.89 16.5 0 1 0.43 0.78" vector-effect="non-scaling-stroke"/>
   <path d="m364.85 239.41-0.75 3.66q-0.25 1.19 0.97 1.19l4.8-0.02q1.37 0 1.53-1.37l2.55-22.36q0.05-0.44-0.39-0.51c-3.6-0.57-7.24-0.4-9.5 2.06q-9.1 9.91-19.06 20.73-1.66 1.81 0.79 1.73l2.01-0.06a4.93 4.89 20.5 0 0 3.4-1.53l3.44-3.64a0.76 0.73 19.5 0 1 0.53-0.24l9.21-0.21a0.47 0.47 0 0 1 0.47 0.57" vector-effect="non-scaling-stroke"/>
   <path d="m375.19 244.19c3.88 0.32 8.63 0.1 12.53-0.15 9.03-0.56 17.99-8.18 19.24-17.03q0.74-5.24-3.68-6.42-4.86-1.29-14.78-0.6-1.66 0.11-2.4 1.6-5.48 11.05-11.32 21.84a0.52 0.51-73.7 0 0 0.41 0.76" vector-effect="non-scaling-stroke"/>
  </g>
  <path d="m221.91 256.44q-6.96 0.79-14.8 1.86-8.5 1.16-16.98 2.25-30.34 3.89-59.34 13.53-14.46 4.8-26.04 13.14-8.05 5.8-8.29 14.78" stroke="#adc0dd" vector-effect="non-scaling-stroke"/>
  <path d="m96.46 302 1.42 3.23" stroke="#8fadd0" vector-effect="non-scaling-stroke"/>
  <path d="m97.88 305.23c7.14 13.84 33.41 22.27 47.13 25.97 35.75 9.63 74.44 14.16 111.99 16q50.07 2.46 99.65-0.61" stroke="#8094b8" vector-effect="non-scaling-stroke"/>
  <path d="m356.65 346.59q42.74-2.51 83.82-11.2 12.77-2.7 25.25-6.47c10.38-3.14 48.81-16.6 39.15-33.99q-2.78-5.02-8.04-8.52" stroke="#808799" vector-effect="non-scaling-stroke"/>
  <path d="m496.83 286.41q-4.6-4.03-11.11-6.87-15.72-6.85-32.37-10.85c-5.62-1.34-11.77-3.49-17.1-4.42-25.87-4.5-52.56-8.76-77.88-9.51-3.03-0.09-6.27-0.57-9.44-0.74" stroke="#8fadd0" vector-effect="non-scaling-stroke"/>
  <path d="m348.93 254.02q-42.22-2.02-84.5-0.52c-13.5 0.48-28.37 1.92-42.52 2.94" stroke="#8094b8" vector-effect="non-scaling-stroke"/>
  <path d="m348.93 254.02q1.1 0.92 1.55 1.95 0.07 0.14 0.02 0.17-0.13 0.06-0.26 0.12a0.21 0.2 42.4 0 0 0.02 0.37l2.09 0.88" stroke="#0f4289" vector-effect="non-scaling-stroke"/>
  <path d="m352.35 257.51-1.64 0.12q-0.44 0.03-0.61 0.44-0.27 0.6-0.31 1.45" stroke="#011c52" vector-effect="non-scaling-stroke"/>
  <path d="m349.79 259.52q-53.59-5.05-107.07 1.01" stroke="#8094b8" vector-effect="non-scaling-stroke"/>
  <path d="m242.72 260.53q-0.33-1.92-1.96-1.67-2.39 0.37-10.62 0.72c-1.55 0.07-2.84 0.98-4.37 1.14q-5.36 0.57-10.74 1.1" stroke="#011c52" vector-effect="non-scaling-stroke"/>
  <path d="m215.03 261.82 6.21-1.5q0.56-0.13 0.58-0.72l0.09-3.16" stroke="#2e5596" vector-effect="non-scaling-stroke"/>
  <path d="m496.83 286.41q3.58 4.38 6.42 8.33c5.02 6.98-6.55 17.01-12.85 20.32q-10.59 5.57-24.39 9.96-23.44 7.46-43.93 10.93c-4.23 0.71-10.23 0.82-15.39 2.03" stroke="#103569" vector-effect="non-scaling-stroke"/>
  <path d="m406.69 337.98 8.44-2.69q0.4-0.13 0.52-0.54 0.08-0.29 0.39-0.45 1.3-0.68 2.79-0.91 0.44-0.07 0.74-0.41 0.92-1.03 2.4-1.05 0.12 0 0.15-0.13t0.16-0.18q10.63-3.89 19.88-10.25c6.18-4.25 10.11-7.37 11.49-14.34q0.35-1.81-0.75-3-0.28-0.31-0.27-0.73 0.05-1.62-0.5-3.1" stroke="#3d6eae" vector-effect="non-scaling-stroke"/>
  <path d="m452.13 300.2q-0.81-5.02-3.85-9.18" stroke="#8fadd0" vector-effect="non-scaling-stroke"/>
  <path d="m448.28 291.02q1.01-0.13 0.73-1.51-0.11-0.6-0.75-1.29c-0.59-0.65-0.96-1.47-1.67-1.98-2.53-1.82-4.98-4.13-7.42-5.66-9.04-5.66-17.49-8.74-28.74-12.38-1.92-0.63-4.55-1.03-6.77-1.94-1.24-0.51-2.54-0.46-3.82-0.94-3.86-1.45-7.79-1.75-11.83-2.62-4.08-0.88-8.41-1.27-12.33-1.99q-6.41-1.17-12.93-1.64c-3.33-0.25-6.85-1.35-10.4-1.56" stroke="#103569" vector-effect="non-scaling-stroke"/>
  <path d="m349.79 259.52c17.8 1.96 34.88 4.51 52.2 8.84 14.96 3.74 36.35 10.23 46.29 22.66" stroke="#808799" vector-effect="non-scaling-stroke"/>
  <path d="m452.13 300.2q0.03 4.46-1.53 6.86-5.62 8.6-16.46 13.94c-17.5 8.62-36.35 13.31-55.45 16.9" stroke="#adc0dd" vector-effect="non-scaling-stroke"/>
  <path d="m378.69 337.9c-35.71 5.88-72.58 7.31-108.68 5.18-11.94-0.71-20.74-1.19-31.19-2.98" stroke="#8094b8" vector-effect="non-scaling-stroke"/>
  <path d="m238.82 340.1c-23.3-3.15-48.38-8.1-70.09-18.51q-9.76-4.68-16.76-12.82" stroke="#8fadd0" vector-effect="non-scaling-stroke"/>
  <path d="m151.97 308.77q-6.55-9.75 1.36-18.49 7.63-8.44 19.34-13.25c22.21-9.13 46.28-13.72 70.05-16.5" stroke="#808799" vector-effect="non-scaling-stroke"/>
  <path d="m151.97 308.77q-0.04 0.48-0.17 0.61a0.5 0.49 53.8 0 1-0.77-0.12q-1.42-2.54-3.24-4.76-0.79-0.97-0.88-3.01-0.44-9.49 6.15-15.4c8.11-7.28 17.33-11.29 27.08-15.8 3.46-1.61 7.16-2.51 10.83-3.55" stroke="#103569" vector-effect="non-scaling-stroke"/>
  <path d="m215.03 261.82-24.06 4.92" stroke="#2e4877" vector-effect="non-scaling-stroke"/>
  <path d="m190.97 266.74c-4.37-0.58-6.22 1.96-10.36 1.41q-2.72-0.37-8.58 0.72c-18.41 3.42-38.55 8.03-54.65 16-8.08 4-13.07 7.72-16.74 15.26q-0.48 0.99-1.66 1.07-0.51 0.04-0.75-0.42l-0.54-1.02a0.41 0.41 0 0 0-0.76 0.1l-0.47 2.14" stroke="#3d6eae" vector-effect="non-scaling-stroke"/>
  <path d="m356.65 346.59q1.75-2.85 8.08-2.8c2.03 0.02 4.12-0.95 6.03-0.75q5.8 0.61 10.38-1.46 0.42-0.19 0.89-0.21l2.87-0.13" stroke="#011c52" vector-effect="non-scaling-stroke"/>
  <path d="m384.9 341.24 21.79-3.26" stroke="#2e4877" vector-effect="non-scaling-stroke"/>
  <path d="m384.9 341.24q-1.72-0.45-3.41-0.39-0.27 0.01-0.45-0.11-0.19-0.12-0.34-0.28-0.34-0.35-0.05-0.74 0.37-0.53 0.19-1.2-0.13-0.46-0.6-0.41-0.88 0.1-1.55-0.21" stroke="#2e5596" vector-effect="non-scaling-stroke"/>
  <path d="m238.82 340.1-1.36 0.29q-0.39 0.09-0.19 0.44l0.8 1.35q0.26 0.44-0.24 0.52-5.76 0.97-11.45-0.01-3.07-0.53-5.31-0.67c-4.47-0.27-10.48-1.4-13.31-1.73q-4.78-0.54-9.54-1.17-2.03-0.26-4.01-0.81c-3.98-1.1-7.94-0.61-11.97-1.79q-0.73-0.21-1.99-0.39-17.43-2.51-40-8.49c-3.11-0.83-7.26-1.91-9.93-3.7q-0.59-0.4-1.4-0.2-0.44 0.1-0.77-0.22-0.92-0.88-2.16-0.88-0.4 0.01-0.7-0.27-0.73-0.68-1.72-0.8-0.49-0.06-0.91-0.32c-1.38-0.84-3.14-1.13-4.41-1.98q-0.52-0.34-1.09-0.61-8.73-4.02-15.55-10.77-1.34-1.32-2.54-3.18a0.72 0.72 0 0 0-1.22 0.02q-0.04 0.07 0.03 0.5" stroke="#0f4289" vector-effect="non-scaling-stroke"/>
  <path d="m456.53 266.58c15.39 4.56 30.64 8.95 44.5 17.3 7.36 4.43 14.15 10.04 15.27 19.1" stroke="#8fadd0" vector-effect="non-scaling-stroke"/>
  <path d="m516.3 302.98q-1.71 10.12-11.59 16.45-14.18 9.08-28.67 13.77c-33.97 11-68.59 16.04-105.96 20.09-5.26 0.57-11.57 0.92-17.35 1.54-18.84 2.02-38.26 2-57.12 2.62a2.87 2.86-77.8 0 0-2.47 1.6l-8.16 16.55" stroke="#adc0dd" vector-effect="non-scaling-stroke"/>
  <path d="m284.98 375.6-2.02 3.35" stroke="#8fadd0" vector-effect="non-scaling-stroke"/>
  <path d="m282.96 378.95q-1.13 0.98-1.08 1.66a0.61 0.61 0 0 0 0.61 0.56q43.48 0.01 86.75-4.24c36.56-3.6 72.94-9.74 108.25-19.98q12.89-3.73 25.39-8.59c12.72-4.95 27.62-11.88 36.68-22.08q4.84-5.44 3.65-13.09" stroke="#808799" vector-effect="non-scaling-stroke"/>
  <path d="m543.21 313.19c-2.09-9.33-7.94-16.17-15.87-21.28q-12.18-7.87-26.38-13.11-21.55-7.95-43.94-12.88" stroke="#8fadd0" vector-effect="non-scaling-stroke"/>
  <path d="m457.02 265.92-8.58-1.44q-1.37-0.23-0.03 0.14 3.89 1.06 8.12 1.96" stroke="#adc0dd" vector-effect="non-scaling-stroke"/>
  <path d="m457.02 265.92q-0.54 0.27-0.49 0.66" stroke="#3d6eae" vector-effect="non-scaling-stroke"/>
  <path d="m543.21 313.19-0.25-0.26a0.7 0.7 0 0 0-1.21 0.51q0.07 2.36-0.51 4.45c-1.19 4.36-7.47 10.11-10.82 12.53-6.98 5.05-14.83 9.04-23.42 12.56q-24.97 10.25-51.26 16.54-38.7 9.26-78.27 13.52-6.5 0.7-12.99 1.44-6.98 0.8-12.99 1.18-30.46 1.95-60.96 2.62c-2.16 0.05-4.96 0.77-7.57 0.67" stroke="#103569" vector-effect="non-scaling-stroke"/>
  <path d="m284.98 375.6q0.93 0.12 0.92 1.04-0.01 0.45 0.39 0.65 0.6 0.3 1-0.12 1.57-1.61 4.1-5.02 0.82-1.12 2.3-4.39 1.36-2.99 4-5.16 0.39-0.32 0.89-0.37c4.21-0.48 8.43-0.29 12.57-0.74q4.94-0.54 9.92-0.39c2.81 0.09 5.66-0.59 8.68-0.7q8.15-0.3 20.25-1.26 9.9-0.79 15.06-0.96c5.11-0.17 9.12-0.62 13.71-1.11q1.51-0.16 2.52-0.37c4.6-0.92 9.66-0.89 14.36-1.03q0.7-0.02 1.67-0.26 0.84-0.2 1.7-0.27 2.85-0.24 5.65-0.8 10.41-2.11 20.95-3.46c1.5-0.19 3.4-0.99 5.02-1.26q8.35-1.38 16.55-3.42c4.28-1.07 10.11-2.07 15.31-3.63 17.43-5.23 34.4-10.56 48.11-22.21q0.58-0.5 1.76-0.82 0.5-0.14 0.79-0.56c1.66-2.42 3.07-4.96 4.67-7.43q2.17-3.38 0.97-7.52-0.13-0.48-0.63-0.38-1.73 0.35-1.87-0.67" stroke="#3d6eae" vector-effect="non-scaling-stroke"/>
  <g stroke="#83a1c8">
   <path d="m428.99 239.67a9.84 5.05 130.5 0 0 10.231-4.2027 9.84 5.05 130.5 0 0 2.5505-10.762 9.84 5.05 130.5 0 0-10.231 4.2027 9.84 5.05 130.5 0 0-2.5505 10.762" vector-effect="non-scaling-stroke"/>
   <path d="m334.81 228.76a1.57 1.57 0 0 0 1.82 2.32l4.35-1.4a1.57 1.57 0 0 0 0.67-0.42l1.66-1.77a1.57 1.57 0 0 0-0.5-2.5l-3.17-1.43a1.57 1.57 0 0 0-1.97 0.61l-2.86 4.59" vector-effect="non-scaling-stroke"/>
   <path d="m359.06 233.87a0.84 0.84 0 0 0 0.7 1.4l4.97-0.48a0.84 0.84 0 0 0 0.72-0.58l2.43-7.62a0.84 0.84 0 0 0-1.42-0.82l-7.4 8.1" vector-effect="non-scaling-stroke"/>
   <path d="m385.11 240.12q10.84-0.44 14.52-10.22 1.28-3.38-2.11-4.65l-2.02-0.75q-3.41-1.27-5.08 1.96l-6.66 12.86a0.59 0.59 0 0 0 0 0.54q0.28 0.55 0.89 0.36 0.29-0.1 0.46-0.1" vector-effect="non-scaling-stroke"/>
  </g>
  <g stroke="#808080">
   <path d="m266.53 292.49a0.94 0.94 0 0 1 1.3-0.67q5.65 2.54 11.94 2.17a1.44 1.43-89.3 0 0 1.35-1.32c0.26-3.04-0.48-4.29-3.51-5.07-7.31-1.87-18.38-0.93-22.24 6.54-1.4 2.69-0.73 5 2.2 6q4.01 1.37 8.88 2.67a1.51 1.51 0 0 1 0.66 2.54q-1.27 1.23-2.86 1.53a0.96 0.95-25.2 0 1-0.88-0.31c-2.9-3.32-7.27-2.66-11.62-2.41a0.95 0.95 0 0 0-0.81 0.55c-4.45 9.8 26.38 11.68 28.07-4.17a1.03 1.02-63.2 0 0-0.26-0.8c-2.45-2.63-8.78-3.72-11.1-4.53q-1.57-0.55-1.24-2.18l0.12-0.54" vector-effect="non-scaling-stroke"/>
   <path d="m181.78 295.5q0.42-2.67 2.83-6.73 0.9-1.51-0.86-1.51h-7.71a3.11 3.1-80.1 0 0-2.92 2.06l-7.68 21.5a0.7 0.69-80.8 0 0 0.67 0.94l8.89-0.27a1.84 1.83-82.2 0 0 1.69-1.29l2.2-7q1.17-3.72 2.39-0.02 0.7 2.11 1.37 6.71a1.99 1.99 0 0 0 1.97 1.7l19.98 0.01a2.6 2.59-70.5 0 0 2.02-0.97l1.87-2.32a1.36 1.35-73.1 0 1 0.89-0.48c1.65-0.2 5.28-0.39 6.46-0.04q1.41 0.42 1.53 2.74 0.04 0.94 0.99 0.96l9.59 0.16a0.84 0.83-89.7 0 0 0.85-0.85l-0.28-22.81a0.78 0.78 0 0 0-0.78-0.77l-12.22 0.04a3.97 3.96 18.4 0 0-3.14 1.57l-15.92 21.03a0.97 0.96 54.1 0 1-1.68-0.27l-3.62-10.51a0.83 0.83 0 0 1 0.23-0.89l10.31-9.49q1.95-1.8-0.7-1.68l-7.6 0.36q-2.67 0.12-4.42 2.13l-5.81 6.64q-1.82 2.09-1.39-0.65" vector-effect="non-scaling-stroke"/>
   <path d="m381.59 305.53c-2.13-3.97 2.1-10.14 5.19-12.64a2.3 2.29-38.8 0 1 3.24 0.35c1.63 2.04 8.62 1.28 10.98 1.25q1.3-0.02 1.27-1.32-0.09-4.8-4.25-5.66c-12.22-2.53-28.18 2.35-28.23 17.45-0.04 9.55 17.71 7.24 24.24 5.93 4.03-0.81 5.59-8.54 6.8-12a0.74 0.74 0 0 0-0.72-0.99q-5.73 0.19-11.62 0.15-3.32-0.02-3.12 3.22 0.03 0.53 0.5 0.78l1.61 0.85a1.51 1.51 0 0 1-0.03 2.69q-2.48 1.24-5.16 0.5-0.47-0.13-0.7-0.56" vector-effect="non-scaling-stroke"/>
   <path d="m421.01 302.78a1.36 1.36 0 0 1 0.32 2.42q-2.57 1.71-5.58 0.97-1.28-0.31-1.29-1.63c-0.05-3.88 2.81-11.78 7.71-12.23a1.11 1.1-22.5 0 1 0.91 0.37c2.52 2.82 7.9 1.95 11.23 1.7a1.78 1.78 0 0 0 1.4-2.7l-0.62-1.03q-1.89-3.12-5.52-3.51c-8.6-0.91-18.8 0.89-23.64 8.29-2.11 3.21-4.86 11.31-0.32 14.23 6.22 4.01 14.47 2.35 21.37 1.42q3.22-0.44 3.86-2.55 1.43-4.64 3.63-9.2a0.92 0.91 13.6 0 0-0.8-1.31q-5.86-0.16-12.16 0.16c-2.07 0.11-3.17 1.36-2.76 3.4q0.1 0.47 0.55 0.62l1.71 0.58" vector-effect="non-scaling-stroke"/>
   <path d="m251.97 287.82a0.48 0.48 0 0 0-0.46-0.64l-9.85 0.12a0.48 0.48 0 0 0-0.44 0.31l-8.58 23.59a0.48 0.48 0 0 0 0.48 0.64l10.02-0.43a0.48 0.48 0 0 0 0.43-0.31l8.4-23.28" vector-effect="non-scaling-stroke"/>
   <path d="m296.72 294.68q0.47-1.81 2.34-1.74l7.76 0.29q2 0.07 2.67-1.81l0.76-2.15q0.72-2.02-1.42-2.02c-5.68 0-11.71 0.31-17.65 0.04-3.89-0.17-3.22 2.74-4.01 5.02q-3.27 9.26-6.92 18.64a0.48 0.48 0 0 0 0.45 0.65l20.37-0.13q1.55-0.01 2.06-1.48l1.11-3.18q0.46-1.31-0.93-1.32l-8.85-0.02a1.04 1.03-86.5 0 1-1.02-1.16l0.04-0.29a2.01 2.01 0 0 1 1.98-1.77l8.21-0.05q1.38-0.01 1.77-1.33l0.85-2.92q0.42-1.46-1.1-1.46l-7.41 0.02a1.19 1.19 0 0 1-1.15-1.48l0.09-0.35" vector-effect="non-scaling-stroke"/>
   <path d="m325.97 303.44-0.87 7.01a1.08 1.08 0 0 0 1.09 1.22l8.89-0.11a1.16 1.16 0 0 0 1.13-0.98l1.25-7.8a1.88 1.88 0 0 0-0.81-1.86q-1.47-0.99-0.89-2.58a1.18 1.16 3.7 0 1 0.84-0.73q4.79-1.08 5.22-6.11 0.3-3.48-3.07-3.76-10.25-0.86-21.04-0.34a1.36 1.35-81.2 0 0-1.21 0.89l-8.13 22.39a0.87 0.87 0 0 0 0.86 1.17l8.44-0.37a1.85 1.84 8.6 0 0 1.64-1.2c1.05-2.75 1.93-8.87 6.12-7.67a0.77 0.76-78.5 0 1 0.54 0.83" vector-effect="non-scaling-stroke"/>
   <path d="m353.74 305.48a0.76 0.76 0 0 1-0.75-0.91l0.36-1.77a0.76 0.76 0 0 1 0.75-0.61l9.96 0.08a0.76 0.76 0 0 0 0.73-0.55l1.25-4.28a0.76 0.76 0 0 0-0.74-0.97l-8.07 0.05a0.76 0.76 0 0 1-0.76-0.86l0.28-2.09a0.76 0.76 0 0 1 0.78-0.66l10.11 0.34a0.76 0.76 0 0 0 0.71-0.43l2.09-4.42a0.76 0.76 0 0 0-0.69-1.08l-20.69-0.05a0.76 0.76 0 0 0-0.72 0.51l-8.12 22.86a0.76 0.76 0 0 0 0.73 1.02l21.23-0.22a0.76 0.76 0 0 0 0.72-0.58l1.13-4.41a0.76 0.76 0 0 0-0.74-0.95l-9.55-0.02" vector-effect="non-scaling-stroke"/>
   <path d="m217.47 301.95a0.87 0.87 0 0 0 0.66-0.72l1.09-7.35a0.87 0.87 0 0 0-1.6-0.59l-4.88 7.6a0.87 0.87 0 0 0 0.57 1.32l1.51 0.29a0.87 0.87 0 0 0 0.37 0l2.28-0.55" vector-effect="non-scaling-stroke"/>
   <path d="m326.67 292.48a1.35 1.35 0 0 0-0.99 0.7l-1.26 2.33a1.35 1.35 0 0 0 1.5 1.96l2.81-0.67a1.35 1.35 0 0 0 1.02-1.12l0.28-1.94a1.35 1.35 0 0 0-1.53-1.53l-1.83 0.27" vector-effect="non-scaling-stroke"/>
  </g>
 </g>
 <path d="m2.6126 74.298q-0.14-1.86 1.41 0.76 4.26 7.18 10.99 12.09 6.34 4.63 8.42 5.87 1.79 1.07 4.51 1.56 0.52 0.1 0.95 0.4 1.38 0.95 3.13 0.55a0.74 0.75 76.4 0 0 0.56-0.91q-0.33-1.28-1.34-2.24-0.28-0.27-0.34-0.66-0.03-0.18-0.03-0.37a2.04 1.98 31.9 0 0-0.23-0.93c-1.77-3.43-4.51-7.09-4.41-10.97 0.46-18.21 30.03-28.99 44.14-33.66 8.1-2.68 17.7-4.85 26.58-7.22q11.06-2.95 39.26-7.02 31.61-4.57 63.5-6.47 19.56-1.17 39.12-2.56 4.44-0.32 8.55-0.24a2.47 2.49 19.5 0 0 2.03-0.98q1.28-1.71 2.31-3.85 2.76-5.75 5.94-11.31c0.79-1.37 0.77-2.61 0.59-4.1q2.01-0.85 3.46-0.78 1.09 0.06 0.6 1.03l-11.2 22.51a2.19 2.19 0 0 1-1.94 1.21q-46.01 0.34-92.24 5.71-23.78 2.77-47.25 7.41c-20.06 3.97-40.2 9.41-58.79 18.05-8.31 3.86-26.1 14.86-21.95 26.18 5.49 15.01 26.64 22.73 41.44 27.55q14.88 4.85 30.17 8.19 0.06 0.01 0.04 0.06l-0.05 0.25q-0.05 0.24-0.3 0.19c-24.39-4.99-47.69-10.92-68.3-20.08-11.49-5.1-24.27-13.32-29.33-25.22z" fill="#010f32"/>
 <g fill="#074391">
  <path d="m365.87 2.4378-11.92 23.07a0.98 0.98 0 0 1-0.79 0.53l-4.6 0.42a0.98 0.98 0 0 1-0.96-1.43l11.65-22.65a0.98 0.98 0 0 1 0.7-0.52l4.88-0.84a0.98 0.98 0 0 1 1.04 1.42z"/>
  <path d="m376.13 3.1278c4.54-2.13 15.82-3.94 16.83 3.13 0.83 5.85-5.49 13.43-9.85 16.58-4.94 3.58-11.23 4.81-16.91 2.83-5.02-1.74-2.29-9.34-0.6-12.33q4.06-7.18 10.53-10.21zm-4.4506 18.252a5.05 9.84 40.5 0 0 10.231-4.2027 5.05 9.84 40.5 0 0 2.5505-10.762 5.05 9.84 40.5 0 0-10.231 4.2027 5.05 9.84 40.5 0 0-2.5505 10.762z"/>
  <path d="m278.69 16.658c-4.33-2.72-6.27 4.32-7.72 7.23q-1.14 2.27-3.67 2.33l-1.93 0.04q-2.46 0.06-1.25-2.09 5.67-10.03 10.7-20.77c0.41-0.88 1.43-1.64 2.5-1.72q5.95-0.45 11.85 0.24c10.3 1.21 0.95 10.18-2.86 11.82a1.32 1.3 73.9 0 0-0.77 1.41q0.81 4.84-0.83 9.55-0.43 1.25-1.75 1.25l-4.18-0.01a1.05 1.04 10.3 0 1-0.98-1.41q1.28-3.44 1.32-7.09a0.9 0.89 16.5 0 0-0.43-0.78zm-1.19-6.19a1.57 1.57 0 0 0 1.82 2.32l4.35-1.4a1.57 1.57 0 0 0 0.67-0.42l1.66-1.77a1.57 1.57 0 0 0-0.5-2.5l-3.17-1.43a1.57 1.57 0 0 0-1.97 0.61z"/>
  <path d="m307.07 20.548-9.21 0.21a0.76 0.73 19.5 0 0-0.53 0.24l-3.44 3.64a4.93 4.89 20.5 0 1-3.4 1.53l-2.01 0.06q-2.45 0.08-0.79-1.73 9.96-10.82 19.06-20.73c2.26-2.46 5.9-2.63 9.5-2.06q0.44 0.07 0.39 0.51l-2.55 22.36q-0.16 1.37-1.53 1.37l-4.8 0.02q-1.22 0-0.97-1.19l0.75-3.66a0.47 0.47 0 0 0-0.47-0.57zm-5.32-4.97a0.84 0.84 0 0 0 0.7 1.4l4.97-0.48a0.84 0.84 0 0 0 0.72-0.58l2.43-7.62a0.84 0.84 0 0 0-1.42-0.82z"/>
  <path d="m330.41 25.748c-3.9 0.25-8.65 0.47-12.53 0.15a0.51 0.52 16.3 0 1-0.41-0.76q5.84-10.79 11.32-21.84 0.74-1.49 2.4-1.6 9.92-0.69 14.78 0.6 4.42 1.18 3.68 6.42c-1.25 8.85-10.21 16.47-19.24 17.03zm-2.61-3.92q10.84-0.44 14.52-10.22 1.28-3.38-2.11-4.65l-2.02-0.75q-3.41-1.27-5.08 1.96l-6.66 12.86a0.59 0.59 0 0 0 0 0.54q0.28 0.55 0.89 0.36 0.29-0.1 0.46-0.1z"/>
 </g>
 <path d="m257.25 1.8178q-0.22 0.54-1.5 0.53-0.72-0.01-0.31 0.58 0.82 1.17 0.02 2.42-0.26 0.4-0.71 0.51-2.85 0.7-4.81 0.7-14-0.04-28 0.32c-3.54 0.1-6.19 0.51-9.59 0.74-5.94 0.41-12.45 1.11-22.44 0.98-2.94-0.04-5.65 1.21-8.73 1.37q-7.38 0.39-14.77 0.85-0.09 0.01-0.1 0.11 0 0.05-0.02 0.1a0.27 0.41 87.4 0 1-0.3 0.22q-7.54 1.61-9.8 1.6-1.76-0.02-2.89 0.22c-6.26 1.33-12.75 1.91-19.08 3.18-4.2 0.85-8.91 1.37-12.28 1.96q-11.58 2-34.24 7.49-19.95 4.84-39.29 11.74c-12.49 4.46-24.21 9.99-35.07 17.67q-7.01 4.95-8.8 13.33-0.12 0.59-0.64 0.76-0.4 0.13-0.57-0.27-0.33-0.82-0.55-1.61-0.13-0.43-0.37-0.62-0.31-0.23-0.66-0.23a0.59 0.59 0 0 0-0.6 0.57l-0.07 2.1q-0.69-6.98 4.28-12.51c10.99-12.23 29.44-19.48 44.64-24.71 36.11-12.42 73.96-20.13 111.89-24.26 12.36-1.35 24.93-2.83 37.1-3.57q29.08-1.75 58.26-2.27z" fill="#5b81bb"/>
 <path d="m257.25 1.8178 1 0.22c0.18 1.49 0.2 2.73-0.59 4.1q-3.18 5.56-5.94 11.31-1.03 2.14-2.31 3.85a2.47 2.49 19.5 0 1-2.03 0.98q-4.11-0.08-8.55 0.24-19.56 1.39-39.12 2.56-31.89 1.9-63.5 6.47-28.2 4.07-39.26 7.02c-8.88 2.37-18.48 4.54-26.58 7.22-14.11 4.67-43.68 15.45-44.14 33.66-0.1 3.88 2.64 7.54 4.41 10.97a2.04 1.98 31.9 0 1 0.23 0.93q0 0.19 0.03 0.37 0.06 0.39 0.34 0.66 1.01 0.96 1.34 2.24a0.74 0.75 76.4 0 1-0.56 0.91q-1.75 0.4-3.13-0.55-0.43-0.3-0.95-0.4-2.72-0.49-4.51-1.56-2.08-1.24-8.42-5.87-6.73-4.91-10.99-12.09-1.55-2.62-1.41-0.76-1.23-2.46-1.53-5.16l0.07-2.1a0.59 0.59 0 0 1 0.6-0.57q0.35 0 0.66 0.23 0.24 0.19 0.37 0.62 0.22 0.79 0.55 1.61 0.17 0.4 0.57 0.27 0.52-0.17 0.64-0.76 1.79-8.38 8.8-13.33c10.86-7.68 22.58-13.21 35.07-17.67q19.34-6.9 39.29-11.74 22.66-5.49 34.24-7.49c3.37-0.59 8.08-1.11 12.28-1.96 6.33-1.27 12.82-1.85 19.08-3.18q1.13-0.24 2.89-0.22 2.26 0.01 9.8-1.6a0.27 0.41 87.4 0 0 0.3-0.22q0.02-0.05 0.02-0.1 0.01-0.1 0.1-0.11 7.39-0.46 14.77-0.85c3.08-0.16 5.79-1.41 8.73-1.37 9.99 0.13 16.5-0.57 22.44-0.98 3.4-0.23 6.05-0.64 9.59-0.74q14-0.36 28-0.32 1.96 0 4.81-0.7 0.45-0.11 0.71-0.51 0.8-1.25-0.02-2.42-0.41-0.59 0.31-0.58 1.28 0.01 1.5-0.53z" fill="#1e5ba0"/>
 <path d="m291.62 35.728q1.1 0.92 1.55 1.95 0.07 0.14 0.02 0.17-0.13 0.06-0.26 0.12a0.21 0.2 42.4 0 0 0.02 0.37l2.09 0.88-1.64 0.12q-0.44 0.03-0.61 0.44-0.27 0.6-0.31 1.45-53.59-5.05-107.07 1.01-0.33-1.92-1.96-1.67-2.39 0.37-10.62 0.72c-1.55 0.07-2.84 0.98-4.37 1.14q-5.36 0.57-10.74 1.1l6.21-1.5q0.56-0.13 0.58-0.72l0.09-3.16c14.15-1.02 29.02-2.46 42.52-2.94q42.28-1.5 84.5 0.52z" fill="#002971"/>
 <path d="m291.62 35.728c3.17 0.17 6.41 0.65 9.44 0.74 25.32 0.75 52.01 5.01 77.88 9.51 5.33 0.93 11.48 3.08 17.1 4.42q16.65 4 32.37 10.85 6.51 2.84 11.11 6.87 3.58 4.38 6.42 8.33c5.02 6.98-6.55 17.01-12.85 20.32q-10.59 5.57-24.39 9.96-23.44 7.46-43.93 10.93c-4.23 0.71-10.23 0.82-15.39 2.03l8.44-2.69q0.4-0.13 0.52-0.54 0.08-0.29 0.39-0.45 1.3-0.68 2.79-0.91 0.44-0.07 0.74-0.41 0.92-1.03 2.4-1.05 0.12 0 0.15-0.13t0.16-0.18q10.63-3.89 19.88-10.25c6.18-4.25 10.11-7.37 11.49-14.34q0.35-1.81-0.75-3-0.28-0.31-0.27-0.73 0.05-1.62-0.5-3.1-0.81-5.02-3.85-9.18 1.01-0.13 0.73-1.51-0.11-0.6-0.75-1.29c-0.59-0.65-0.96-1.47-1.67-1.98-2.53-1.82-4.98-4.13-7.42-5.66-9.04-5.66-17.49-8.74-28.74-12.38-1.92-0.63-4.55-1.03-6.77-1.94-1.24-0.51-2.54-0.46-3.82-0.94-3.86-1.45-7.79-1.75-11.83-2.62-4.08-0.88-8.41-1.27-12.33-1.99q-6.41-1.17-12.93-1.64c-3.33-0.25-6.85-1.35-10.4-1.56l-2.09-0.88a0.21 0.2 42.4 0 1-0.02-0.37q0.13-0.06 0.26-0.12 0.05-0.03-0.02-0.17-0.45-1.03-1.55-1.95z" fill="#1e5ba0"/>
 <path d="m164.6 38.148-0.09 3.16q-0.02 0.59-0.58 0.72l-6.21 1.5-24.06 4.92c-4.37-0.58-6.22 1.96-10.36 1.41q-2.72-0.37-8.58 0.72c-18.41 3.42-38.55 8.03-54.65 16-8.08 4-13.07 7.72-16.74 15.26q-0.48 0.99-1.66 1.07-0.51 0.04-0.75-0.42l-0.54-1.02a0.41 0.41 0 0 0-0.76 0.1l-0.47 2.14q0.24-8.98 8.29-14.78 11.58-8.34 26.04-13.14 29-9.64 59.34-13.53 8.48-1.09 16.98-2.25 7.84-1.07 14.8-1.86z" fill="#5b81bb"/>
 <path d="m295.04 39.218c3.55 0.21 7.07 1.31 10.4 1.56q6.52 0.47 12.93 1.64c3.92 0.72 8.25 1.11 12.33 1.99 4.04 0.87 7.97 1.17 11.83 2.62 1.28 0.48 2.58 0.43 3.82 0.94 2.22 0.91 4.85 1.31 6.77 1.94 11.25 3.64 19.7 6.72 28.74 12.38 2.44 1.53 4.89 3.84 7.42 5.66 0.71 0.51 1.08 1.33 1.67 1.98q0.64 0.69 0.75 1.29 0.28 1.38-0.73 1.51c-9.94-12.43-31.33-18.92-46.29-22.66-17.32-4.33-34.4-6.88-52.2-8.84q0.04-0.85 0.31-1.45 0.17-0.41 0.61-0.44z" fill="#010f32"/>
 <path d="m185.41 42.238c-23.77 2.78-47.84 7.37-70.05 16.5q-11.71 4.81-19.34 13.25-7.91 8.74-1.36 18.49-0.04 0.48-0.17 0.61a0.5 0.49 53.8 0 1-0.77-0.12q-1.42-2.54-3.24-4.76-0.79-0.97-0.88-3.01-0.44-9.49 6.15-15.4c8.11-7.28 17.33-11.29 27.08-15.8 3.46-1.61 7.16-2.51 10.83-3.55l24.06-4.92q5.38-0.53 10.74-1.1c1.53-0.16 2.82-1.07 4.37-1.14q8.23-0.35 10.62-0.72 1.63-0.25 1.96 1.67z" fill="#010f32"/>
 <path d="m399.71 47.628q-0.54 0.27-0.49 0.66-4.23-0.9-8.12-1.96-1.34-0.37 0.03-0.14z" fill="#5b81bb"/>
 <path d="m399.71 47.628q22.39 4.93 43.94 12.88 14.2 5.24 26.38 13.11c7.93 5.11 13.78 11.95 15.87 21.28l-0.25-0.26a0.7 0.7 0 0 0-1.21 0.51q0.07 2.36-0.51 4.45c-1.19 4.36-7.47 10.11-10.82 12.53-6.98 5.05-14.83 9.04-23.42 12.56q-24.97 10.25-51.26 16.54-38.7 9.26-78.27 13.52-6.5 0.7-12.99 1.44-6.98 0.8-12.99 1.18-30.46 1.95-60.96 2.62c-2.16 0.05-4.96 0.77-7.57 0.67l2.02-3.35q0.93 0.12 0.92 1.04-0.01 0.45 0.39 0.65 0.6 0.3 1-0.12 1.57-1.61 4.1-5.02 0.82-1.12 2.3-4.39 1.36-2.99 4-5.16 0.39-0.32 0.89-0.37c4.21-0.48 8.43-0.29 12.57-0.74q4.94-0.54 9.92-0.39c2.81 0.09 5.66-0.59 8.68-0.7q8.15-0.3 20.25-1.26 9.9-0.79 15.06-0.96c5.11-0.17 9.12-0.62 13.71-1.11q1.51-0.16 2.52-0.37c4.6-0.92 9.66-0.89 14.36-1.03q0.7-0.02 1.67-0.26 0.84-0.2 1.7-0.27 2.85-0.24 5.65-0.8 10.41-2.11 20.95-3.46c1.5-0.19 3.4-0.99 5.02-1.26q8.35-1.38 16.55-3.42c4.28-1.07 10.11-2.07 15.31-3.63 17.43-5.23 34.4-10.56 48.11-22.21q0.58-0.5 1.76-0.82 0.5-0.14 0.79-0.56c1.66-2.42 3.07-4.96 4.67-7.43q2.17-3.38 0.97-7.52-0.13-0.48-0.63-0.38-1.73 0.35-1.87-0.67c-1.12-9.06-7.91-14.67-15.27-19.1-13.86-8.35-29.11-12.74-44.5-17.3q-0.05-0.39 0.49-0.66z" fill="#1e5ba0"/>
 <path d="m133.66 48.448c-3.67 1.04-7.37 1.94-10.83 3.55-9.75 4.51-18.97 8.52-27.08 15.8q-6.59 5.91-6.15 15.4 0.09 2.04 0.88 3.01 1.82 2.22 3.24 4.76a0.5 0.49 53.8 0 0 0.77 0.12q0.13-0.13 0.17-0.61 7 8.14 16.76 12.82c21.71 10.41 46.79 15.36 70.09 18.51l-1.36 0.29q-0.39 0.09-0.19 0.44l0.8 1.35q0.26 0.44-0.24 0.52-5.76 0.97-11.45-0.01-3.07-0.53-5.31-0.67c-4.47-0.27-10.48-1.4-13.31-1.73q-4.78-0.54-9.54-1.17-2.03-0.26-4.01-0.81c-3.98-1.1-7.94-0.61-11.97-1.79q-0.73-0.21-1.99-0.39-17.43-2.51-40-8.49c-3.11-0.83-7.26-1.91-9.93-3.7q-0.59-0.4-1.4-0.2-0.44 0.1-0.77-0.22-0.92-0.88-2.16-0.88-0.4 0.01-0.7-0.27-0.73-0.68-1.72-0.8-0.49-0.06-0.91-0.32c-1.38-0.84-3.14-1.13-4.41-1.98q-0.52-0.34-1.09-0.61-8.73-4.02-15.55-10.77-1.34-1.32-2.54-3.18a0.72 0.72 0 0 0-1.22 0.02q-0.04 0.07 0.03 0.5l-1.42-3.23 0.47-2.14a0.41 0.41 0 0 1 0.76-0.1l0.54 1.02q0.24 0.46 0.75 0.42 1.18-0.08 1.66-1.07c3.67-7.54 8.66-11.26 16.74-15.26 16.1-7.97 36.24-12.58 54.65-16q5.86-1.09 8.58-0.72c4.14 0.55 5.99-1.99 10.36-1.41z" fill="#1e5ba0"/>
 <path d="m439.52 68.118q5.26 3.5 8.04 8.52c9.66 17.39-28.77 30.85-39.15 33.99q-12.48 3.77-25.25 6.47-41.08 8.69-83.82 11.2 1.75-2.85 8.08-2.8c2.03 0.02 4.12-0.95 6.03-0.75q5.8 0.61 10.38-1.46 0.42-0.19 0.89-0.21l2.87-0.13 21.79-3.26c5.16-1.21 11.16-1.32 15.39-2.03q20.49-3.47 43.93-10.93 13.8-4.39 24.39-9.96c6.3-3.31 17.87-13.34 12.85-20.32q-2.84-3.95-6.42-8.33z" fill="#010f32"/>
 <path d="m209.22 74.198-0.12 0.54q-0.33 1.63 1.24 2.18c2.32 0.81 8.65 1.9 11.1 4.53a1.02 1.03 26.8 0 1 0.26 0.8c-1.69 15.85-32.52 13.97-28.07 4.17a0.95 0.95 0 0 1 0.81-0.55c4.35-0.25 8.72-0.91 11.62 2.41a0.95 0.96 64.8 0 0 0.88 0.31q1.59-0.3 2.86-1.53a1.51 1.51 0 0 0-0.66-2.54q-4.87-1.3-8.88-2.67c-2.93-1-3.6-3.31-2.2-6 3.86-7.47 14.93-8.41 22.24-6.54 3.03 0.78 3.77 2.03 3.51 5.07a1.43 1.44 0.7 0 1-1.35 1.32q-6.29 0.37-11.94-2.17a0.94 0.94 0 0 0-1.3 0.67z"/>
 <path d="m124.47 77.208q-0.43 2.74 1.39 0.65l5.81-6.64q1.75-2.01 4.42-2.13l7.6-0.36q2.65-0.12 0.7 1.68l-10.31 9.49a0.83 0.83 0 0 0-0.23 0.89l3.62 10.51a0.97 0.96 54.1 0 0 1.68 0.27l15.92-21.03a3.97 3.96 18.4 0 1 3.14-1.57l12.22-0.04a0.78 0.78 0 0 1 0.78 0.77l0.28 22.81a0.83 0.84 0.3 0 1-0.85 0.85l-9.59-0.16q-0.95-0.02-0.99-0.96-0.12-2.32-1.53-2.74c-1.18-0.35-4.81-0.16-6.46 0.04a1.35 1.36 16.9 0 0-0.89 0.48l-1.87 2.32a2.59 2.6 19.5 0 1-2.02 0.97l-19.98-0.01a1.99 1.99 0 0 1-1.97-1.7q-0.67-4.6-1.37-6.71-1.22-3.7-2.39 0.02l-2.2 7a1.83 1.84 7.8 0 1-1.69 1.29l-8.89 0.27a0.69 0.7 9.2 0 1-0.67-0.94l7.68-21.5a3.1 3.11 9.9 0 1 2.92-2.06h7.71q1.76 0 0.86 1.51-2.41 4.06-2.83 6.73zm35.69 6.45a0.87 0.87 0 0 0 0.66-0.72l1.09-7.35a0.87 0.87 0 0 0-1.6-0.59l-4.88 7.6a0.87 0.87 0 0 0 0.57 1.32l1.51 0.29a0.87 0.87 0 0 0 0.37 0z"/>
 <path d="m324.98 87.798q2.68 0.74 5.16-0.5a1.51 1.51 0 0 0 0.03-2.69l-1.61-0.85q-0.47-0.25-0.5-0.78-0.2-3.24 3.12-3.22 5.89 0.04 11.62-0.15a0.74 0.74 0 0 1 0.72 0.99c-1.21 3.46-2.77 11.19-6.8 12-6.53 1.31-24.28 3.62-24.24-5.93 0.05-15.1 16.01-19.98 28.23-17.45q4.16 0.86 4.25 5.66 0.03 1.3-1.27 1.32c-2.36 0.03-9.35 0.79-10.98-1.25a2.29 2.3 51.2 0 0-3.24-0.35c-3.09 2.5-7.32 8.67-5.19 12.64q0.23 0.43 0.7 0.56z"/>
 <path d="m363.7 84.488-1.71-0.58q-0.45-0.15-0.55-0.62c-0.41-2.04 0.69-3.29 2.76-3.4q6.3-0.32 12.16-0.16a0.92 0.91 13.6 0 1 0.8 1.31q-2.2 4.56-3.63 9.2-0.64 2.11-3.86 2.55c-6.9 0.93-15.15 2.59-21.37-1.42-4.54-2.92-1.79-11.02 0.32-14.23 4.84-7.4 15.04-9.2 23.64-8.29q3.63 0.39 5.52 3.51l0.62 1.03a1.78 1.78 0 0 1-1.4 2.7c-3.33 0.25-8.71 1.12-11.23-1.7a1.1 1.11 67.5 0 0-0.91-0.37c-4.9 0.45-7.76 8.35-7.71 12.23q0.01 1.32 1.29 1.63 3.01 0.74 5.58-0.97a1.36 1.36 0 0 0-0.32-2.42z"/>
 <path d="m194.66 69.528-8.4 23.28a0.48 0.48 0 0 1-0.43 0.31l-10.02 0.43a0.48 0.48 0 0 1-0.48-0.64l8.58-23.59a0.48 0.48 0 0 1 0.44-0.31l9.85-0.12a0.48 0.48 0 0 1 0.46 0.64z"/>
 <path d="m240.47 78.218 7.41-0.02q1.52 0 1.1 1.46l-0.85 2.92q-0.39 1.32-1.77 1.33l-8.21 0.05a2.01 2.01 0 0 0-1.98 1.77l-0.04 0.29a1.03 1.04 3.5 0 0 1.02 1.16l8.85 0.02q1.39 0.01 0.93 1.32l-1.11 3.18q-0.51 1.47-2.06 1.48l-20.37 0.13a0.48 0.48 0 0 1-0.45-0.65q3.65-9.38 6.92-18.64c0.79-2.28 0.12-5.19 4.01-5.02 5.94 0.27 11.97-0.04 17.65-0.04q2.14 0 1.42 2.02l-0.76 2.15q-0.67 1.88-2.67 1.81l-7.76-0.29q-1.87-0.07-2.34 1.74l-0.09 0.35a1.19 1.19 0 0 0 1.15 1.48z"/>
 <path d="m268.12 84.318c-4.19-1.2-5.07 4.92-6.12 7.67a1.85 1.84 8.6 0 1-1.64 1.2l-8.44 0.37a0.87 0.87 0 0 1-0.86-1.17l8.13-22.39a1.35 1.36 8.8 0 1 1.21-0.89q10.79-0.52 21.04 0.34 3.37 0.28 3.07 3.76-0.43 5.03-5.22 6.11a1.18 1.16 3.7 0 0-0.84 0.73q-0.58 1.59 0.89 2.58a1.88 1.88 0 0 1 0.81 1.86l-1.25 7.8a1.16 1.16 0 0 1-1.13 0.98l-8.89 0.11a1.08 1.08 0 0 1-1.09-1.22l0.87-7.01a0.76 0.77 11.5 0 0-0.54-0.83zm1.24-10.13a1.35 1.35 0 0 0-0.99 0.7l-1.26 2.33a1.35 1.35 0 0 0 1.5 1.96l2.81-0.67a1.35 1.35 0 0 0 1.02-1.12l0.28-1.94a1.35 1.35 0 0 0-1.53-1.53z"/>
 <path d="m296.43 87.188 9.55 0.02a0.76 0.76 0 0 1 0.74 0.95l-1.13 4.41a0.76 0.76 0 0 1-0.72 0.58l-21.23 0.22a0.76 0.76 0 0 1-0.73-1.02l8.12-22.86a0.76 0.76 0 0 1 0.72-0.51l20.69 0.05a0.76 0.76 0 0 1 0.69 1.08l-2.09 4.42a0.76 0.76 0 0 1-0.71 0.43l-10.11-0.34a0.76 0.76 0 0 0-0.78 0.66l-0.28 2.09a0.76 0.76 0 0 0 0.76 0.86l8.07-0.05a0.76 0.76 0 0 1 0.74 0.97l-1.25 4.28a0.76 0.76 0 0 1-0.73 0.55l-9.96-0.08a0.76 0.76 0 0 0-0.75 0.61l-0.36 1.77a0.76 0.76 0 0 0 0.75 0.91z"/>
 <path d="m269.36 74.188 1.83-0.27a1.35 1.35 0 0 1 1.53 1.53l-0.28 1.94a1.35 1.35 0 0 1-1.02 1.12l-2.81 0.67a1.35 1.35 0 0 1-1.5-1.96l1.26-2.33a1.35 1.35 0 0 1 0.99-0.7z" fill="#fff"/>
 <path d="m160.16 83.658-2.28 0.55a0.87 0.87 0 0 1-0.37 0l-1.51-0.29a0.87 0.87 0 0 1-0.57-1.32l4.88-7.6a0.87 0.87 0 0 1 1.6 0.59l-1.09 7.35a0.87 0.87 0 0 1-0.66 0.72z" fill="#fff"/>
 <path d="m394.82 81.908q0.55 1.48 0.5 3.1-0.01 0.42 0.27 0.73 1.1 1.19 0.75 3c-1.38 6.97-5.31 10.09-11.49 14.34q-9.25 6.36-19.88 10.25-0.13 0.05-0.16 0.18t-0.15 0.13q-1.48 0.02-2.4 1.05-0.3 0.34-0.74 0.41-1.49 0.23-2.79 0.91-0.31 0.16-0.39 0.45-0.12 0.41-0.52 0.54l-8.44 2.69-21.79 3.26q-1.72-0.45-3.41-0.39-0.27 0.01-0.45-0.11-0.19-0.12-0.34-0.28-0.34-0.35-0.05-0.74 0.37-0.53 0.19-1.2-0.13-0.46-0.6-0.41-0.88 0.1-1.55-0.21c19.1-3.59 37.95-8.28 55.45-16.9q10.84-5.34 16.46-13.94 1.56-2.4 1.53-6.86z" fill="#5b81bb"/>
 <path d="m458.99 84.688q0.14 1.02 1.87 0.67 0.5-0.1 0.63 0.38 1.2 4.14-0.97 7.52c-1.6 2.47-3.01 5.01-4.67 7.43q-0.29 0.42-0.79 0.56-1.18 0.32-1.76 0.82c-13.71 11.65-30.68 16.98-48.11 22.21-5.2 1.56-11.03 2.56-15.31 3.63q-8.2 2.04-16.55 3.42c-1.62 0.27-3.52 1.07-5.02 1.26q-10.54 1.35-20.95 3.46-2.8 0.56-5.65 0.8-0.86 0.07-1.7 0.27-0.97 0.24-1.67 0.26c-4.7 0.14-9.76 0.11-14.36 1.03q-1.01 0.21-2.52 0.37c-4.59 0.49-8.6 0.94-13.71 1.11q-5.16 0.17-15.06 0.96-12.1 0.96-20.25 1.26c-3.02 0.11-5.87 0.79-8.68 0.7q-4.98-0.15-9.92 0.39c-4.14 0.45-8.36 0.26-12.57 0.74q-0.5 0.05-0.89 0.37-2.64 2.17-4 5.16-1.48 3.27-2.3 4.39-2.53 3.41-4.1 5.02-0.4 0.42-1 0.12-0.4-0.2-0.39-0.65 0.01-0.92-0.92-1.04l8.16-16.55a2.86 2.87 12.2 0 1 2.47-1.6c18.86-0.62 38.28-0.6 57.12-2.62 5.78-0.62 12.09-0.97 17.35-1.54 37.37-4.05 71.99-9.09 105.96-20.09q14.49-4.69 28.67-13.77 9.88-6.33 11.59-16.45z" fill="#5b81bb"/>
 <path d="m181.51 121.8c10.45 1.79 19.25 2.27 31.19 2.98 36.1 2.13 72.97 0.7 108.68-5.18q0.67 0.31 1.55 0.21 0.47-0.05 0.6 0.41 0.18 0.67-0.19 1.2-0.29 0.39 0.05 0.74 0.15 0.16 0.34 0.28 0.18 0.12 0.45 0.11 1.69-0.06 3.41 0.39l-2.87 0.13q-0.47 0.02-0.89 0.21-4.58 2.07-10.38 1.46c-1.91-0.2-4 0.77-6.03 0.75q-6.33-0.05-8.08 2.8-49.58 3.07-99.65 0.61c-37.55-1.84-76.24-6.37-111.99-16-13.72-3.7-39.99-12.13-47.13-25.97q-0.07-0.43-0.03-0.5a0.72 0.72 0 0 1 1.22-0.02q1.2 1.86 2.54 3.18 6.82 6.75 15.55 10.77 0.57 0.27 1.09 0.61c1.27 0.85 3.03 1.14 4.41 1.98q0.42 0.26 0.91 0.32 0.99 0.12 1.72 0.8 0.3 0.28 0.7 0.27 1.24 0 2.16 0.88 0.33 0.32 0.77 0.22 0.81-0.2 1.4 0.2c2.67 1.79 6.82 2.87 9.93 3.7q22.57 5.98 40 8.49 1.26 0.18 1.99 0.39c4.03 1.18 7.99 0.69 11.97 1.79q1.98 0.55 4.01 0.81 4.76 0.63 9.54 1.17c2.83 0.33 8.84 1.46 13.31 1.73q2.24 0.14 5.31 0.67 5.69 0.98 11.45 0.01 0.5-0.08 0.24-0.52l-0.8-1.35q-0.2-0.35 0.19-0.44z" fill="#002971"/>
 <path d="m485.9 94.898q1.19 7.65-3.65 13.09c-9.06 10.2-23.96 17.13-36.68 22.08q-12.5 4.86-25.39 8.59c-35.31 10.24-71.69 16.38-108.25 19.98q-43.27 4.25-86.75 4.24a0.61 0.61 0 0 1-0.61-0.56q-0.05-0.68 1.08-1.66c2.61 0.1 5.41-0.62 7.57-0.67q30.5-0.67 60.96-2.62 6.01-0.38 12.99-1.18 6.49-0.74 12.99-1.44 39.57-4.26 78.27-13.52 26.29-6.29 51.26-16.54c8.59-3.52 16.44-7.51 23.42-12.56 3.35-2.42 9.63-8.17 10.82-12.53q0.58-2.09 0.51-4.45a0.7 0.7 0 0 1 1.21-0.51z" fill="#010f32"/>
</svg>
