<svg version="1.1" viewBox="0 0 523.37 510.12" xmlns="http://www.w3.org/2000/svg">
 <g transform="translate(-338.26 -60.02)" fill="none" stroke-width="2">
  <path d="m675.24 71.99-0.11 2.76a0.76 0.76 0 0 0 1.17 0.67q2.3-1.47 4.87-2.34c1.55-0.52 2.52-1.5 3.98-2.17 3.88-1.79 6.45-5.45 3.31-9.44q-0.31-0.4-0.81-0.43-4.48-0.25-7.64 2.48c-1.28 1.11-4.7 4.46-4.97 6.54q-0.07 0.52-0.44 0.89l-3.31 3.29a0.5 0.5 0 0 0 0.12 0.8l0.29 0.15a0.61 0.6-57.8 0 0 0.76-0.18l2.37-3.16q0.43-0.58 0.41 0.14" stroke="#fddd80" vector-effect="non-scaling-stroke"/>
  <path d="m526.57 71.21q-0.31 0.07-0.65 0.07-0.49-0.01-0.65 0.45c-1.55 4.53-1.06 6.76 0.93 10.99 1.67 3.54 0.84 6.5 5.35 8.61q0.4 0.19 0.8-0.01c4.77-2.36 1.16-9.59 0.51-13.38q-0.32-1.88-2.53-6.66-0.19-0.42-0.61-0.63-1.5-0.76-2.63 0.26-0.28 0.25-0.52 0.3" stroke="#fddd80" vector-effect="non-scaling-stroke"/>
  <path d="m653.53 83.96 4.21-9.6q0.28-0.63-0.4-0.72-0.91-0.12-1.53-0.77-0.4-0.41-0.9-0.14c-3.64 1.97-6.31 5.2-8.61 8.57-1.25 1.85-1.7 3.86-2.44 6a1.42 1.42 0 0 0 0.99 1.84c4 1.02 5.08-2.74 8.01-4.43q0.46-0.26 0.67-0.75" stroke="#fddd80" vector-effect="non-scaling-stroke"/>
  <path d="m707.75 107.31c2.72-0.99 4.31-2.59 7.57-2.74q0.5-0.02 0.59-0.52c0.79-4-0.01-8.8-4.27-10.39-2.22-0.83-6.29-1.63-7.75 1.24q-2.82 5.57-0.02 10.95 1.26 2.42 3.88 1.46" stroke="#fddd80" vector-effect="non-scaling-stroke"/>
  <path d="m675.49 102.09 2.57 1.98q0.45 0.35 0.93 0.05l1.02-0.62a0.6 0.6 0 0 0 0.25-0.7c-0.47-1.36-2.19-3.03-3.75-2.4q-0.87 0.35-1.11 1.44a0.25 0.23 26.9 0 0 0.09 0.25" stroke="#fddd80" vector-effect="non-scaling-stroke"/>
  <path d="m574.55 105.26 2.46 18.68a0.77 0.77 0 0 0 0.86 0.66l1.26-0.16a9.47 9.14 82.5 0 0 7.83-10.59l-0.19-1.42a9.47 9.14 82.5 0 0-10.3-8.2l-1.26 0.17a0.77 0.77 0 0 0-0.66 0.86" stroke="#fddd80" vector-effect="non-scaling-stroke"/>
  <path d="m694.75 133.29a8.98 5.6 88.5 0 0 5.363-9.1235 8.98 5.6 88.5 0 0-5.8332-8.8303 8.98 5.6 88.5 0 0-5.363 9.1235 8.98 5.6 88.5 0 0 5.8332 8.8303" stroke="#fddd80" vector-effect="non-scaling-stroke"/>
  <path d="m526.08 123.56q2.17-4.97-2.62-6.67c-3.99-1.42-9.16-1.28-12.67 1.48q-0.41 0.32-0.41 0.84l-0.05 7.26q-0.01 0.43 0.43 0.47c4.23 0.37 13.27 1.32 15.32-3.38" stroke="#fddd80" vector-effect="non-scaling-stroke"/>
  <path d="m609.5 120.44q-0.11-0.29-0.28-0.55-0.31-0.46-0.85-0.56-1.1-0.19-2.05-0.77-0.42-0.26-0.78 0.07c-2.27 2.06-5.48 3.48-5.33 7.24 0.14 3.53-0.67 6.48 1.8 9.33a3.03 3.02 55.3 0 0 3.72 0.68c3.5-1.9 4.62-6.8 4.42-10.45q-0.06-1.15 0.15-2.67c0.12-0.89-0.5-1.44-0.8-2.32" stroke="#fddd80" vector-effect="non-scaling-stroke"/>
  <path d="m502.17 128.81a0.7 0.69 15.5 0 1 0.48 0.84c-0.9 3.69 2.42 9.01 4.66 11.77q0.32 0.4 0.84 0.35c3.37-0.34 2.1-5.4 1.61-7.5q-0.11-0.49-0.45-0.85-1.65-1.77-0.72-4.24a0.71 0.7-65.4 0 0-0.31-0.86l-0.56-0.32q-0.48-0.27-0.63-0.79-0.74-2.66-3.16-3.85a1.92 1.92 0 0 0-2.76 1.61q-0.07 1.24 0.14 2.8 0.05 0.39 0.27 0.63 0.29 0.32 0.59 0.41" stroke="#fddd80" vector-effect="non-scaling-stroke"/>
  <path d="m669.63 126.8-2.12 0.02a0.77 0.77 0 0 0-0.76 0.77l0.03 4.85a8.46 1.7 89.6 0 0 1.76 8.45h0.26a8.46 1.7 89.6 0 0 1.64-8.47l-0.03-4.85a0.77 0.77 0 0 0-0.78-0.77" stroke="#fddd80" vector-effect="non-scaling-stroke"/>
  <path d="m499.48 131.31q0-0.16 0-0.33-0.01-0.47-0.39-0.75-2.17-1.6-4.85-1.98a0.96 0.96 0 0 0-1.09 0.98l0.13 3.9q0.01 0.5 0.29 0.92l1.9 2.88a0.86 0.85-21.7 0 0 0.88 0.37q2.31-0.47 4.14-2.08 0.89-0.79-0.19-1.46a0.13 0.11 24.3 0 1-0.06-0.13q0.06-0.33 0.29-0.54 0.62-0.59-0.14-0.98l-0.62-0.33a0.55 0.55 0 0 1-0.29-0.47" stroke="#fddd80" vector-effect="non-scaling-stroke"/>
  <path d="m666.85 158.67q-0.87 0.27-0.54-0.58 3.02-7.63-0.29-7.24a1.44 1.42 5.9 0 0-1.18 0.95l-0.76 2.15q-0.17 0.49-0.02 0.98l0.92 2.98a0.8 0.8 0 0 1-1.04 0.98l-10.6-3.87a0.95 0.93 89.7 0 1-0.57-0.58l-0.79-2.22q-0.19-0.53-0.75-0.48-1.33 0.13-1.8 1.33-0.17 0.44-0.63 0.51-1.93 0.28-2.22-1.45c-0.47-2.81-1.76-6.07-0.79-8.82q0.18-0.49 0-0.97-0.65-1.8-0.44-3.72a1.82 1.82 0 0 0-1.71-2.01l-3.04-0.16q-0.55-0.03-0.86 0.42-0.8 1.18-2.22 1.35a1.01 0.97-76.2 0 0-0.73 0.46c-1.79 2.8-3.42 2.67-4.1 6.57q-0.09 0.56-0.67 0.54-16.42-0.74-32.37-4.65a0.52 0.52 0 0 1-0.3-0.8l1.62-2.29q0.39-0.54 0.03-1.09-0.35-0.52-0.28-1.18 0.21-2.01-1.75-1.53-3.18 0.77-3.87 3.93-0.4 1.8-1.33 0.21-1.66-2.87-5.02-2.86-0.42 0-0.76-0.23l-0.36-0.25q-0.4-0.27-0.89-0.23c-4.19 0.37-8.05-0.92-9.41 4.48q-1.24 4.93-2.86 8.72-0.21 0.48-0.72 0.56-17.55 2.63-34.21 8.73a1.11 1.1 59.3 0 1-1.21-0.31q-4.6-5.24-7.56-11.91c-2.54-5.74-5.78-11.01-12.24-12.75a0.47 0.46-86.2 0 0-0.58 0.51c1.44 11.8 0.59 23.62-5.24 34.22q-0.22 0.4-0.68 0.39l-0.97-0.01a0.53 0.53 0 0 0-0.53 0.61q0.48 2.86-1.86 4.36-10.68 6.83-19.68 14.23c-2.64 2.18-5.17 3.51-8.14 4.92a1.24 1.23-48.8 0 1-0.86 0.06q-4.43-1.36-6.62-3.75c-2.53-2.74-6.79-6.95-10.94-7.44q-0.64-0.07-0.49 0.55 3.71 15.01-0.82 29.78a1.53 1.53 0 0 1-2.35 0.8l-2.37-1.69a2.3 2.3 0 0 0-3.39 0.83l-1.51 3q-0.2 0.4 0.13 0.71 2.8 2.62 6.58 3.16 0.47 0.06 0.43 0.54-0.15 1.52-0.79 2.44-24.78 35.8-30.02 79.13-0.06 0.52-0.43 0.89-4.15 4.23-5.38 10.06-0.16 0.77 0.6 0.58 39.21-9.84 79.41-14.23 1.22-0.13 0.22-0.85c-3.87-2.8-3.28-16.11 2.5-16.13q11.93-0.03 23.87 0.01c6.94 0.02 7.22 9.02 5.43 13.76q-0.24 0.63 0.44 0.58l6.56-0.5q0.65-0.05 0.43-0.67c-1.3-3.73-1.13-9.52 2.12-12.25q1.08-0.91 1.9-0.92 12.04-0.06 24.09 0c6.14 0.03 7.07 7.06 6.1 11.74q-0.13 0.65 0.53 0.63l5.03-0.18q0.52-0.02 0.42-0.52c-0.84-4.33 0.03-11.63 5.92-11.66q11.53-0.08 23.06 0c5.72 0.04 6.59 7.57 5.67 11.61a0.48 0.48 0 0 0 0.46 0.59l5.42 0.04q0.51 0.01 0.4-0.49-0.89-4.23 0.75-8.2 1.46-3.55 6.14-3.56 11.09-0.04 22.17-0.01c6.32 0.02 6.57 9.09 5.24 13.34a0.42 0.41-79.6 0 0 0.37 0.54l8.48 0.51q0.49 0.03 0.32-0.43c-1.29-3.43-1.53-13.84 4.18-13.83q10.44 0.01 20.89 0.01c4.43-0.01 6.8-0.53 8.32 3.85q2.66 7.63-2.28 13.1-0.3 0.34 0.15 0.39 37.77 4.11 74.69 13.03 0.78 0.19 0.69-0.6l-2.18-19.09a1.63 1.63 0 0 1 1.36-1.8q2.66-0.44 5.41-0.71a1.38 1.37 71.4 0 0 1.03-2.09q-0.12-0.2-0.25-0.3-0.47-0.36-0.89 0.05-0.8 0.75-1.89 0.56-0.55-0.09-1.09 0.06l-4.11 1.16q-0.25 0.07-0.3-0.18l-0.83-4.02a0.26 0.25 87.3 0 1 0.27-0.3q2.17 0.25 4.02-0.8 0.47-0.26 1-0.15 1.45 0.32 2.77-0.28 0.48-0.21 0.99-0.16c3.87 0.38 4.88-2.6 5.3-5.82q0.09-0.63-0.5-0.88l-4.3-1.86q-0.45-0.2-0.92-0.08-2.21 0.55-4.23-0.46-0.45-0.22-0.95-0.14l-1.58 0.27q-1 0.17-0.49-0.71l1.64-2.81q0.29-0.49-0.06-0.96c-1.64-2.23-4.88-2.67-7.39-2.74q-0.46-0.01-0.6-0.44-4.96-14.72-12.37-28.38-0.25-0.46 0.28-0.41c1.61 0.16 2.66 0.21 4.17-0.57q4.41-2.27 8.79-4.63c1.16-0.63 1.59-1.43 2.2-2.52a0.87 0.86 13.8 0 1 0.74-0.44q0.67-0.01 1.27-0.35a1.5 1.5 0 0 0-0.19-2.7l-4.72-1.86q-0.38-0.15-0.71 0.08c-2.28 1.58-5.48-0.08-8.35 1.35q-1.03 0.51-1.88 0.45-0.46-0.03-0.89 0.13l-3.94 1.43q-0.5 0.18-0.83 0.59l-0.47 0.59a0.6 0.59-42.5 0 1-0.96-0.04l-13.91-21.17q-0.28-0.42-0.77-0.51c-1.08-0.19-1.68-0.36-2.44-1.22q-6.71-7.64-14.36-14.37-0.63-0.55 0.21-0.62 1.18-0.08 2.3 0.27a0.67 0.66 13.8 0 0 0.86-0.51q0.1-0.54 0.01-1.07-0.12-0.67-0.79-0.56l-4.07 0.69a0.87 0.87 0 0 1-0.68-0.18l-4.36-3.56a0.48 0.47-35.4 0 1 0.14-0.81q0.23-0.09 0.49-0.09 0.48 0.01 0.79-0.36 1.22-1.47 2.43-2.95 0.19-0.23 0-0.78-0.09-0.24-0.28-0.08l-4.49 3.51a0.71 0.71 0 0 1-0.87 0.01l-9.21-6.77a1.42 1.42 0 0 1 0.25-2.44c2.05-0.95 3.11-1.54 4.42-3.66 0.98-1.58 2.28-2.23 3.31-3.74 2.4-3.51 5.06-3.41 4.17-8.39a1.25 1.24 65.1 0 0-2.02-0.74c-2.62 2.19-2.25 5.35-4.18 8.12q-0.3 0.41-0.37 0.91c-0.35 2.43-3.24 4.75-5.02 6.27a1.27 1.27 0 0 1-2.05-0.62q-0.75-2.66-0.63-5.58c0.15-3.9 3.76-4.9 4.22-8.44a1 1 0 0 0-1.26-1.1c-3.02 0.85-4.44 4.76-5.07 7.47a1.37 1.37 0 0 0 0.11 0.92c0.83 1.72 0.31 3.05 0.37 4.44q0.09 1.88 0.43 3.73a0.4 0.4 0 0 1-0.61 0.41c-3.35-2.12-8.28-4.25-10.37-7.65-1.37-2.21-4.79-8.13-3.65-10.65a1.31 1.31 0 0 0 0.02-1.03q-0.39-0.96-0.61-2.03-0.8-3.83-1.83-0.06l-0.59 2.14q-0.2 0.77-0.97 1l-8.3 2.56" stroke="#fddd80" vector-effect="non-scaling-stroke"/>
  <path d="m544.9 144.86q1.17-0.77 1.28-2.24a1.2 1.17 33.4 0 0-0.15-0.68c-0.53-0.94-0.16-1.87-0.46-2.71q-0.84-2.33-3.52-1.63-0.52 0.14-0.76 0.63-2.3 4.59 0.96 8.3a0.85 0.85 0 0 0 1.1 0.16q0.66-0.43 0.98-1.15 0.18-0.42 0.57-0.68" stroke="#fddd80" vector-effect="non-scaling-stroke"/>
  <path d="m486.6 150.38 2.02-1.6q0.37-0.3 0.37-0.77c-0.02-5.01-4.39-7.26-8.44-8.65q-1.54-0.53-1.72 1.09-0.86 7.93 5.95 11.94a0.59 0.59 0 0 0 0.85-0.3l0.32-0.83q0.21-0.53 0.65-0.88" stroke="#fddd80" vector-effect="non-scaling-stroke"/>
  <path d="m689.22 151.7a2.22 1.37 64.7 0 0 0.2899-2.5926 2.22 1.37 64.7 0 0-2.1873-1.4216 2.22 1.37 64.7 0 0-0.2899 2.5926 2.22 1.37 64.7 0 0 2.1873 1.4216" stroke="#fddd80" vector-effect="non-scaling-stroke"/>
  <path d="m496.47 166.29q7.09-4.43 5.85-12.93-0.07-0.47-0.54-0.53-6.51-0.91-12.05 2.47-0.4 0.25-0.44 0.72-0.35 4.07 0.8 7.97a0.51 0.5-21.7 0 1-0.26 0.59q-2.5 1.22-2.93 4.17c-0.36 2.49 1.77 3.43 3.26 4.83a1.39 1.35 67.5 0 0 0.84 0.36q4.74 0.3 6.32-4.2a1 0.97 42.2 0 0-0.05-0.75l-1.01-1.95q-0.24-0.47 0.21-0.75" stroke="#fddd80" vector-effect="non-scaling-stroke"/>
  <path d="m761.91 186.27q1.6-0.56 3.33 0.02 1.11 0.38 1.6-0.68c1.19-2.56 7.62-11.72 4.23-14.18q-4.67-3.38-10.81-1.66c-4.64 1.3-4.67 3.4-4.16 7.64q0.06 0.51-0.43 0.65c-3.71 1.09-8.14 1.71-8.36 6.65q-0.08 1.78-0.11 3.57 0 0.42 0.35 0.64l1.72 1.09q0.59 0.37 0.12 0.89l-0.86 0.94q-0.43 0.48 0.06 0.88l0.9 0.74a1.06 1.05 47.6 0 1-0.07 1.69l-4.43 3.03a0.44 0.44 0 0 0 0.26 0.8h0.81q0.86-0.01 1.49-0.6c2.23-2.12 3.69-3.9 7.26-4.6q2.2-0.42 3.68-1.17 2.32-1.17 4.95-2.69a1.31 1.31 0 0 0-0.38-2.42l-1.09-0.23a0.52 0.52 0 0 1-0.06-1" stroke="#fddd80" vector-effect="non-scaling-stroke"/>
  <path d="m434.57 179.8q0.46 0.92 1.5 1.07a1.36 1.36 0 0 1 0.85 0.49q1.33 1.62 3.29 2.37 0.5 0.19 0.51-0.35c0.06-2.92-2.95-3.83-4.44-5.91q-2.79-3.9-7.57-4.97-0.6-0.13-0.86 0.43l-0.51 1.1a0.76 0.76 0 0 0 0.4 1.01q2.42 1.01 3.73 3.26a1.19 1.17-8 0 0 0.73 0.54l1.72 0.44q0.44 0.11 0.65 0.52" stroke="#fddd80" vector-effect="non-scaling-stroke"/>
  <path d="m714.82 180.42a0.18 0.18 0 0 0 0.19 0.22c4.69-0.41 4.77-3.76 6.33-7.21q0.2-0.43-0.16-0.74c-1.87-1.59-5.23 2.42-6.26 3.99a1.08 1.08 0 0 0-0.14 0.84q0.37 1.45 0.04 2.9" stroke="#fddd80" vector-effect="non-scaling-stroke"/>
  <path d="m416.5 175.93c-6.21 8.45-0.01 19.96 10.5 19.28a0.63 0.63 0 0 0 0.6-0.62c0.17-6.6-1.14-18.62-10.28-19.06q-0.51-0.02-0.82 0.4" stroke="#fddd80" vector-effect="non-scaling-stroke"/>
  <path d="m719.29 191.43a3.43 1.17 130.3 0 0 3.1108-1.8593 3.43 1.17 130.3 0 0 1.3262-3.3727 3.43 1.17 130.3 0 0-3.1108 1.8593 3.43 1.17 130.3 0 0-1.3262 3.3727" stroke="#fddd80" vector-effect="non-scaling-stroke"/>
  <path d="m459.75 199.3c2.8 0.53 3.79-2.85 2.85-4.82q-0.07-0.14-0.37-0.89-0.37-0.9-1.32-0.61-0.48 0.14-0.93-0.05-1.69-0.7-3.52-0.72a0.83 0.82 9.5 0 0-0.8 0.56l-0.9 2.67q-0.17 0.49 0.15 0.91 1.84 2.38 4.84 2.95" stroke="#fddd80" vector-effect="non-scaling-stroke"/>
  <path d="m443.67 195.77-2.44 10.49a0.31 0.31 0 0 0 0.29 0.38l9.49 0.01q0.42 0 0.51-0.41c1.15-5.53-0.34-10.74-6.72-11.29a1.07 1.07 0 0 0-1.13 0.82" stroke="#fddd80" vector-effect="non-scaling-stroke"/>
  <path d="m819.79 210.89q1.13 0.49 1.99 1.36a1.23 1.2 67.6 0 0 0.87 0.37q1.49-0.02 2.78 0.76a0.64 0.62-57.1 0 0 0.84-0.19q2.03-2.93 0.2-5.21-4.42-5.52-13.1-9.1-0.46-0.19-0.88 0.08-1.13 0.69-1.56 2.02-0.17 0.51 0.14 0.96 1.2 1.71 2.39 3.45c1.27 1.85 3.15 2.63 4.5 4.16q0.76 0.87 1.83 1.34" stroke="#fddd80" vector-effect="non-scaling-stroke"/>
  <path d="m750.3 199.84a3.53 1.49-43.8 0 0-3.5791 1.3679 3.53 1.49-43.8 0 0-1.5165 3.5187 3.53 1.49-43.8 0 0 3.5791-1.3679 3.53 1.49-43.8 0 0 1.5165-3.5187" stroke="#fddd80" vector-effect="non-scaling-stroke"/>
  <path d="m740.19 209.03a2.2 2.04 22.2 0 0-1.2661-2.72 2.2 2.04 22.2 0 0-2.8077 1.0576 2.2 2.04 22.2 0 0 1.2661 2.72 2.2 2.04 22.2 0 0 2.8077-1.0576" stroke="#fddd80" vector-effect="non-scaling-stroke"/>
  <path d="m419.83 226.48q-0.15-2.35 1.61-0.78c3.47 3.09 12.24 2.16 16.71 2.01q0.5-0.02 0.79-0.44 1.92-2.85 1.15-6.37-0.1-0.45-0.43-0.77c-4.8-4.53-9.49-4.98-15.75-3.98-2.91 0.47-5.46-0.86-8.58-0.71q-0.51 0.03-0.78 0.46l-0.89 1.42q-0.35 0.55-1 0.55l-5.95-0.01a0.67 0.67 0 0 0-0.64 0.48c-1.78 6.13-3.66 15.07-0.69 21.05q0.49 0.98 1.58 0.98l9.32 0.02q0.48 0 0.83-0.34c3.1-3.02 2.95-9.82 2.72-13.57" stroke="#fddd80" vector-effect="non-scaling-stroke"/>
  <path d="m787.56 229.51q-2.23-1.65-3.66-3.45c-1.97-2.51-3.36-3.7-6.37-2.54q-0.51 0.19-0.77 0.67-3.38 6.09-2.08 13.01a0.66 0.64 88.6 0 0 0.53 0.52q10.1 1.58 12.4-8.09a0.11 0.11 0 0 0-0.05-0.12" stroke="#fddd80" vector-effect="non-scaling-stroke"/>
  <path d="m824.95 248.94a0.75 0.74-1.2 0 0 0.57-0.59c2.87-15.08-16.07-12.12-16.38-1.6-0.15 5.12 5.36 5.34 8.83 4.15q3.24-1.11 6.98-1.96" stroke="#fddd80" vector-effect="non-scaling-stroke"/>
  <path d="m768.89 251.3c-1.1-0.66-2.01 0.04-3.16-0.15a1.15 0.99-17.1 0 0-1.1 1.75q3.94 3.23 9.17 2.85 0.81-0.06 1.13-0.81l0.1-0.24a0.76 0.75-72.5 0 0-0.53-1.03q-2.7-0.59-5.61-2.37" stroke="#fddd80" vector-effect="non-scaling-stroke"/>
  <path d="m384.32 283.73c3.83 3.27 9.59 7.67 14.88 7.24q0.45-0.04 0.46-0.49c0.23-6.77-7.43-8.57-11.71-11.76q-2.55-1.9-5.08-3.8-0.19-0.15-0.27-0.35-0.07-0.17-0.12-0.37-0.12-0.44-0.44-0.77l-4.01-4.11a2.47 2.47 0 0 0-2.95-0.43q-2.28 1.25-1.42 3.7c0.7 2 4.19 4.03 5.92 5.29 2.06 1.51 2.74 4.14 4.74 5.85" stroke="#fddd80" vector-effect="non-scaling-stroke"/>
  <path d="m405.35 280.72q0.67 0.36 1.07 0.54 1.26 0.55 1.94-0.65 2.72-4.76-2.57-4.62a1.59 1.58 1 0 0-1.54 1.48l-0.1 1.54q-0.04 0.56 0.32 0.98 0.39 0.46 0.88 0.73" stroke="#fddd80" vector-effect="non-scaling-stroke"/>
  <path d="m849.78 294.44a7.03 6.81 77.8 0 0 5.1706-8.3103 7.03 6.81 77.8 0 0-8.1418-5.4321 7.03 6.81 77.8 0 0-5.1706 8.3103 7.03 6.81 77.8 0 0 8.1418 5.4321" stroke="#fddd80" vector-effect="non-scaling-stroke"/>
  <path d="m418.3 296.17c5.24-5.3-1.14-9.96-6.16-10.18q-0.57-0.02-0.86 0.48-1.7 2.99-1.58 6.41 0.02 0.53 0.46 0.85 3.24 2.32 7.24 2.76 0.53 0.06 0.9-0.32" stroke="#fddd80" vector-effect="non-scaling-stroke"/>
  <path d="m370.97 302.05a0.83 0.83 0 0 0 1.12-0.2l1.57-2.11a0.83 0.83 0 0 0-0.39-1.28l-3.15-1.11a0.83 0.83 0 0 0-1.02 0.41l-0.83 1.65a0.83 0.83 0 0 0 0.28 1.07l2.42 1.57" stroke="#fddd80" vector-effect="non-scaling-stroke"/>
  <path d="m360.19 342.86 19.5 0.01q0.56 0 0.56 0.57v9.06q0 0.62 0.62 0.62l19.14 0.01q0.6 0 0.6-0.6c0.04-3.77 0.61-10.16-0.76-13.18-2.42-5.34-11.62-6.63-16.85-6.69q-11.38-0.14-22.75-0.12c-7.66 0.01-20.86 0.51-20.87 11.35q0 6.6-0.02 13.21c0 2.38 0.83 3.65 2.78 4.77q4.68 2.7 9.86 4.37 5.63 1.82 27.75 7.15 0.5 0.12 0.5 0.63v9.23q0 0.5-0.5 0.5h-19.5q-0.5 0-0.5-0.5v-9.08q0-0.58-0.59-0.59l-19.15-0.12q-0.6 0-0.61 0.6c-0.06 3.47-0.29 8.56 0.06 10.96 1.03 7.14 10.46 8.82 16.29 8.92q9.64 0.17 28-0.04c5.05-0.05 13.53-1.23 16.03-6.5 1.73-3.64 0.83-13.2 0.86-17.8 0.01-2.25-0.53-3.55-2.39-4.66q-5.98-3.55-12.74-5.32-12.64-3.31-25.33-6.35a0.57 0.57 0 0 1-0.43-0.55v-9.41q0-0.45 0.44-0.45" stroke="#80aacb" vector-effect="non-scaling-stroke"/>
  <path d="m451.25 383.75h-19.44a0.44 0.44 0 0 1-0.44-0.44v-50.07a0.62 0.62 0 0 0-0.62-0.62h-19.31q-0.55 0-0.55 0.55-0.01 25.04-0.18 50.08c-0.06 8.58 10.69 10.8 17.55 10.82q13.5 0.03 26.98-0.16c5.04-0.07 13.35-1.23 15.99-6.21q1-1.89 1.01-6.08 0.04-24.17 0-48.43 0-0.57-0.57-0.57h-19.35q-0.57 0-0.57 0.56v50.07q0 0.5-0.5 0.5" stroke="#80aacb" vector-effect="non-scaling-stroke"/>
  <path d="m523.02 367.82-19.69-34.42a1.56 1.56 0 0 0-1.35-0.78h-18.92q-0.56 0-0.56 0.57v60.31q0 0.5 0.5 0.5h19.5a0.5 0.5 0 0 0 0.5-0.5v-34.25q0-1.12 0.56-0.15l19.64 34.53a1.09 1.07 74.3 0 0 0.95 0.54l19.3-0.19a0.43 0.42-90 0 0 0.42-0.43v-60.55a0.38 0.37 89.3 0 0-0.38-0.38h-19.75a0.39 0.38-90 0 0-0.38 0.39l0.18 34.67q0 1.05-0.52 0.14" stroke="#80aacb" vector-effect="non-scaling-stroke"/>
  <path d="m574.5 383.25v-9.24q0-0.49-0.49-0.49l-19.33-0.07q-0.62-0.01-0.64 0.61-0.14 4.71 0.02 9.45c0.31 9.07 11.35 10.52 18.69 10.55q12.38 0.06 24.75-0.13c5.94-0.1 15.78-1.33 17.55-8.01q0.3-1.14 0.32-7.86c0-2.72 0.67-9-0.64-11.26-1.96-3.38-9.44-5.8-13.44-6.88q-13.05-3.52-26.27-6.7-0.52-0.13-0.52-0.67v-9.12q0-0.57 0.57-0.57l19.42 0.01q0.38 0 0.38 0.37v9.32a0.44 0.44 0 0 0 0.44 0.44h19.44q0.53 0 0.56-0.53c0.2-4.17 0.9-11.27-1.71-14.62-3.3-4.23-11.37-5.21-16.35-5.24q-13.38-0.05-26.75 0.2c-5.09 0.09-12.91 1.21-15.49 6.24-2 3.91-1.02 13.44-0.99 18.16 0.03 5.12 9.65 8.19 14.32 9.45q12.93 3.48 26 6.67 0.54 0.13 0.54 0.68l-0.01 9.18q0 0.56-0.56 0.56h-19.31q-0.5 0-0.5-0.5" stroke="#80aacb" vector-effect="non-scaling-stroke"/>
  <path d="m666.5 357.91a0.34 0.34 0 0 1-0.34 0.34h-19.82a0.34 0.34 0 0 1-0.34-0.34v-24.96a0.34 0.34 0 0 0-0.34-0.34l-19.82 0.02a0.34 0.34 0 0 0-0.34 0.34v60.69a0.34 0.34 0 0 0 0.34 0.34h19.82a0.34 0.34 0 0 0 0.34-0.34v-24.82a0.34 0.34 0 0 1 0.34-0.34h19.82a0.34 0.34 0 0 1 0.34 0.34v24.99a0.34 0.34 0 0 0 0.34 0.34l19.7-0.2a0.34 0.34 0 0 0 0.34-0.34l-0.03-60.7a0.34 0.34 0 0 0-0.34-0.34l-19.67 0.03a0.34 0.34 0 0 0-0.34 0.34v24.95" stroke="#80aacb" vector-effect="non-scaling-stroke"/>
  <path d="m717.5 333.02a0.41 0.41 0 0 0-0.41-0.41h-19.56a0.41 0.41 0 0 0-0.41 0.41v60.58a0.41 0.41 0 0 0 0.41 0.41h19.56a0.41 0.41 0 0 0 0.41-0.41v-60.58" stroke="#80aacb" vector-effect="non-scaling-stroke"/>
  <path d="m748.63 358.97 19.58 34.42a1.27 1.25-14.6 0 0 1.1 0.64h19.18a0.52 0.52 0 0 0 0.52-0.52l-0.04-60.46a0.44 0.43-90 0 0-0.43-0.44l-19.43 0.02a0.5 0.5 0 0 0-0.5 0.5l0.18 34.54q0 1.06-0.53 0.14l-19.78-34.6q-0.34-0.59-1.02-0.59h-19.15q-0.56 0-0.56 0.57v60.31q0 0.5 0.5 0.5h19.44a0.44 0.44 0 0 0 0.44-0.44l0.01-34.46q0-1 0.49-0.13" stroke="#80aacb" vector-effect="non-scaling-stroke"/>
  <path d="m819.75 343.17a0.3 0.3 0 0 1 0.3-0.3h40.27a0.3 0.3 0 0 0 0.3-0.3l0.01-9.65a0.3 0.3 0 0 0-0.3-0.3h-60.78a0.3 0.3 0 0 0-0.3 0.3v60.78a0.3 0.3 0 0 0 0.3 0.3h60.78a0.3 0.3 0 0 0 0.3-0.3v-9.65a0.3 0.3 0 0 0-0.3-0.3l-40.28-0.01a0.3 0.3 0 0 1-0.3-0.3v-14.64a0.3 0.3 0 0 1 0.3-0.3l30.14 0.18a0.3 0.3 0 0 0 0.3-0.3l0.02-9.71a0.3 0.3 0 0 0-0.3-0.3h-30.16a0.3 0.3 0 0 1-0.3-0.3v-14.9" stroke="#80aacb" vector-effect="non-scaling-stroke"/>
  <path d="m656.34 416.84a9.07 9.07 0 0 0-9.1488-8.9905l-1.74 0.0152a9.07 9.07 0 0 0-8.9905 9.1488l0.0253 2.8999a9.07 9.07 0 0 0 9.1488 8.9905l1.74-0.0152a9.07 9.07 0 0 0 8.9905-9.1488l-0.0253-2.8999" stroke="#80aacb" vector-effect="non-scaling-stroke"/>
  <path d="m548.25 421 0.99-0.01a1.22 1.21-18.1 0 1 1.01 0.51l4.96 7.08q0.12 0.17 0.32 0.17h4.49a0.18 0.17 72 0 0 0.14-0.28l-5.41-7.53q-0.37-0.53 0.17-0.87c2.92-1.88 5.02-3.68 3.79-7.58-1.74-5.48-10.05-4.55-14.69-4.28q-0.52 0.03-0.52 0.54v19.75a0.25 0.24 0 0 0 0.25 0.24l3.74 0.02q0.25 0 0.25-0.25l0.01-7.01q0-0.49 0.5-0.5" stroke="#80aacb" vector-effect="non-scaling-stroke"/>
  <path d="m580.37 423.64a0.35 0.35 0 0 1 0.32 0.23l1.73 4.66a0.35 0.35 0 0 0 0.34 0.23l3.72-0.03a0.35 0.35 0 0 0 0.32-0.48l-7.96-19.9a0.35 0.35 0 0 0-0.33-0.22l-3.19-0.02a0.35 0.35 0 0 0-0.33 0.22l-7.95 19.95a0.35 0.35 0 0 0 0.33 0.48l3.81-0.02a0.35 0.35 0 0 0 0.32-0.23l1.71-4.66a0.35 0.35 0 0 1 0.33-0.23l6.83 0.02" stroke="#80aacb" vector-effect="non-scaling-stroke"/>
  <path d="m595.32 408.38 0.1 19.96a0.29 0.29 0 0 0 0.29 0.28l7.02-0.03a10.33 9.47-0.3 0 0 10.28-9.53v-1.6a10.33 9.47-0.3 0 0-10.38-9.41l-7.02 0.03a0.29 0.29 0 0 0-0.29 0.3" stroke="#80aacb" vector-effect="non-scaling-stroke"/>
  <path d="m626.75 408.44a0.31 0.31 0 0 0-0.31-0.31h-3.5a0.31 0.31 0 0 0-0.31 0.31v20a0.31 0.31 0 0 0 0.31 0.31h3.5a0.31 0.31 0 0 0 0.31-0.31v-20" stroke="#80aacb" vector-effect="non-scaling-stroke"/>
  <path d="m529.19 481.55q-0.43 6.33 3.36 10.38c3.59 3.83 11.91 6.06 17.44 8.4q0.47 0.2 0.62-0.29 2.35-7.53 9.14-11.43 0.43-0.24 0.9-0.13c7.43 1.74 12.52 2.5 20.36 3.52 8.42 1.1 13.77 2.93 19.65 8.2q0.35 0.31 0.66-0.05c7.89-9.25 23.45-7.36 34.17-6.93 6.95 0.28 15.57-0.7 18.4-8.24q0.17-0.47 0.65-0.63l5.2-1.7a1.03 1.02 54.1 0 1 0.96 0.16q3.05 2.35 6.85 1.48 0.52-0.12 0.76-0.6l2.54-5.21a2.16 2.16 0 0 1 1.04-1.01q11.14-5.06 21.42-11.69a1.53 1.52-45.2 0 1 1.64-0.01c2.55 1.61 7.43 3.78 10.06 1.36q0.36-0.33 0.36-0.81l-0.04-8.5q0-0.52 0.41-0.84 12.95-10.12 23.89-22.39 0.75-0.84-0.37-0.66c-53.01 8.46-107.28 10.98-161.01 9.29q-48.67-1.52-97.12-9.11-1.14-0.18-0.38 0.68 15.13 17.19 34.29 29.74a1.61 1.61 0 0 1 0.66 0.88c1.61 5.25 5.12 10.49 7.23 15.22q0.22 0.5 0.78 0.5l15.06-0.03a0.42 0.42 0 0 1 0.42 0.45" stroke="#fddd80" vector-effect="non-scaling-stroke"/>
  <path d="m728 486.88q0.13 0.02 0.25-0.07 0.56-0.41 0.61-0.81l0.3-2.12q0.07-0.56-0.19-1.05-2.22-4.06-4.37-8.17-0.57-1.09-2.9-2.41c-1.54-0.86-4.67-0.49-5.27 1.42-0.62 1.94 0.04 5.04 0.4 6.77q0.1 0.49-0.06 0.97c-1.57 4.75-1.85 13.02 1.36 17.2 2.03 2.64 5.67 3.03 8.33 1.01 4.58-3.46 2.05-7.75 1.17-12.35q-0.08-0.46 0.37-0.39" stroke="#fddd80" vector-effect="non-scaling-stroke"/>
  <path d="m462.05 484.75c-1.26 7.45 5.17 8.11 10.69 7.88q5.26-0.22 5.67-5.28a1.05 1.04 18.3 0 0-0.5-0.99c-4.24-2.57-10.34-2.6-15.13-2.27a0.81 0.81 0 0 0-0.73 0.66" stroke="#fddd80" vector-effect="non-scaling-stroke"/>
  <path d="m648.14 507.51q-0.46-0.42-1.07-0.26-0.8 0.21-1.3-0.36-0.36-0.41-0.91-0.33c-2.23 0.33-4 1.36-6.45 0.74q-0.54-0.13-0.97 0.2-0.7 0.53-1.59 0.47-0.48-0.03-0.89 0.24-2.54 1.76-5.69 1.48a1.23 1.22 29.2 0 0-0.83 0.23q-1.98 1.41-4.38 1.64a1.06 1.03-79.5 0 0-0.86 0.61q-0.75 1.64-0.3 3.51 0.11 0.45 0.49 0.73 1.49 1.05 3.34 0.82a1.8 1.74-33.9 0 1 1.05 0.19q1.12 0.57 2.22-0.02a1.2 1.2 0 0 1 0.99-0.07c1.97 0.75 4.39 0.2 6.46 0 3.2-0.32 16.44-4.62 10.69-9.82" stroke="#fddd80" vector-effect="non-scaling-stroke"/>
  <path d="m598.93 543.52c3.15-0.12 7.49-1.11 9.46-3.88 6.68-9.42 2.39-29.25-12.24-27.55q-0.53 0.06-0.59 0.6c-0.95 8.08-6.85 12.85-5.46 21.66a0.74 0.74 0 0 0 0.6 0.6c3.73 0.62 4.2 4.06 5.37 6.77a2.99 2.98-12.7 0 0 2.86 1.8" stroke="#fddd80" vector-effect="non-scaling-stroke"/>
  <path d="m448.84 528.94c1.13-2.06 2.54-2.75 4.85-2.46q0.51 0.06 0.59-0.45 1.21-7.03-2.24-13.16a1.22 1.22 0 0 0-1.07-0.63l-6.7 0.01q-0.52 0-0.52 0.51c-0.04 4.16-1.5 15.43 4.34 16.53q0.5 0.09 0.75-0.35" stroke="#fddd80" vector-effect="non-scaling-stroke"/>
  <path d="m536.77 529.62c-8.28 5.51-9.64 21.34-5.81 29.66q0.59 1.28 2.29 1.17 6.49-0.43 9.34-5.89c3.78-7.24 5.21-21.65-4.86-25.07a1.11 1.1-52.5 0 0-0.96 0.13" stroke="#fddd80" vector-effect="non-scaling-stroke"/>
  <path d="m628 546.46q-1.42-3.47-5.15-4.52-1.8-0.51-2.23 1.3c-0.53 2.18 0.88 6.79 1.23 9.14 0.24 1.59 1.79 2.76 2.42 4.25q1.76 4.19 3.94 8.21a1.19 1.16 80.6 0 0 0.82 0.6q1.74 0.33 3.26-0.51 0.42-0.23 0.47-0.71l0.29-2.69a1.48 1.47-58.1 0 0-0.22-0.96q-2.94-4.74-3.34-10.33c-0.08-1.12-1.02-2.64-1.49-3.78" stroke="#fddd80" vector-effect="non-scaling-stroke"/>
  <path d="m590.23 557.98q0.5 1.64 1.02 3.26 0.42 1.35 1.37 1.43 0.9 0.08 1.33-0.71c1.82-3.4 2.96-11.26-1.87-12.88q-0.53-0.17-0.75 0.34-1.53 3.66-1.74 7.62-0.01 0.14 0.08 0.25 0.11 0.13 0.23 0.21a0.96 0.9-81.6 0 1 0.33 0.48" stroke="#fddd80" vector-effect="non-scaling-stroke"/>
  <path d="m596.15 566.12c3.52 0.2 6.53 2.11 9.3 2.98a0.83 0.83 0 0 0 0.97-0.38c1.57-2.71 2.08-3.6 4.88-5.13a0.87 0.86-16.7 0 0 0.45-0.82q-0.83-11.55-12.56-11.01a1.44 1.39-68.2 0 0-0.96 0.43c-2.66 2.7-3.05 9.79-2.65 13.39q0.06 0.51 0.57 0.54" stroke="#fddd80" vector-effect="non-scaling-stroke"/>
  <path d="m673.24 552.39c0.07 3.57-2.22 6.22-2.84 9.79a1.15 1.14 12.5 0 0 0.84 1.31l9.35 2.41q0.44 0.11 0.51-0.34c0.84-5.28 0.11-14.94-7.43-13.68q-0.43 0.07-0.43 0.51" stroke="#fddd80" vector-effect="non-scaling-stroke"/>
  <path d="m616.86 182.63a6.32 6.32 0 0 0-6.342-6.2979l-22.44 0.0783a6.32 6.32 0 0 0-6.2979 6.342l0.0166 4.74a6.32 6.32 0 0 0 6.342 6.2979l22.44-0.0783a6.32 6.32 0 0 0 6.2979-6.342l-0.0166-4.74" stroke="#fddd80" vector-effect="non-scaling-stroke"/>
  <path d="m535.29 203.43a6.34 6.34 0 0 0-6.3511-6.3289l-22.46 0.0392a6.34 6.34 0 0 0-6.329 6.3511l8e-3 4.7a6.34 6.34 0 0 0 6.3511 6.3289l22.46-0.0392a6.34 6.34 0 0 0 6.329-6.3511l-8e-3 -4.7" stroke="#fddd80" vector-effect="non-scaling-stroke"/>
  <path d="m616.86 203.52a6.37 6.37 0 0 0-6.3589-6.3811l-22.34-0.039a6.37 6.37 0 0 0-6.3811 6.3589l-8e-3 4.64a6.37 6.37 0 0 0 6.3589 6.3811l22.34 0.039a6.37 6.37 0 0 0 6.3811-6.3589l8e-3 -4.64" stroke="#fddd80" vector-effect="non-scaling-stroke"/>
  <path d="m534.92 224.56a6.33 6.33 0 0 0-6.3411-6.319l-22.44 0.0392a6.33 6.33 0 0 0-6.319 6.341l8e-3 4.7a6.33 6.33 0 0 0 6.3411 6.319l22.44-0.0392a6.33 6.33 0 0 0 6.319-6.341l-8e-3 -4.7" stroke="#fddd80" vector-effect="non-scaling-stroke"/>
  <path d="m616.4 224.58a6.32 6.32 0 0 0-6.32-6.32h-22.4a6.32 6.32 0 0 0-6.32 6.32v4.72a6.32 6.32 0 0 0 6.32 6.32h22.4a6.32 6.32 0 0 0 6.32-6.32v-4.72" stroke="#fddd80" vector-effect="non-scaling-stroke"/>
  <path d="m700.23 224.58a6.32 6.32 0 0 0-6.32-6.32h-22.48a6.32 6.32 0 0 0-6.32 6.32v4.72a6.32 6.32 0 0 0 6.32 6.32h22.48a6.32 6.32 0 0 0 6.32-6.32v-4.72" stroke="#fddd80" vector-effect="non-scaling-stroke"/>
  <path d="m534.9 245.39a6.31 6.31 0 0 0-6.2769-6.3429l-22.44-0.1175a6.31 6.31 0 0 0-6.3429 6.2768l-0.0251 4.78a6.31 6.31 0 0 0 6.2769 6.3429l22.44 0.1175a6.31 6.31 0 0 0 6.3429-6.2768l0.0251-4.78" stroke="#fddd80" vector-effect="non-scaling-stroke"/>
  <path d="m575.85 245.31a6.3 6.3 0 0 0-6.3-6.3h-22.52a6.3 6.3 0 0 0-6.3 6.3v4.76a6.3 6.3 0 0 0 6.3 6.3h22.52a6.3 6.3 0 0 0 6.3-6.3v-4.76" stroke="#fddd80" vector-effect="non-scaling-stroke"/>
  <path d="m616.4 245.35a6.34 6.34 0 0 0-6.34-6.34h-22.36a6.34 6.34 0 0 0-6.34 6.34v4.7a6.34 6.34 0 0 0 6.34 6.34h22.36a6.34 6.34 0 0 0 6.34-6.34v-4.7" stroke="#fddd80" vector-effect="non-scaling-stroke"/>
  <path d="m657.47 245.35a6.34 6.34 0 0 0-6.34-6.34h-22.44a6.34 6.34 0 0 0-6.34 6.34v4.7a6.34 6.34 0 0 0 6.34 6.34h22.44a6.34 6.34 0 0 0 6.34-6.34v-4.7" stroke="#fddd80" vector-effect="non-scaling-stroke"/>
  <path d="m700.2 245.29a6.31 6.31 0 0 0-6.321-6.299l-22.44 0.0392a6.31 6.31 0 0 0-6.299 6.321l8e-3 4.76a6.31 6.31 0 0 0 6.321 6.299l22.44-0.0392a6.31 6.31 0 0 0 6.299-6.321l-8e-3 -4.76" stroke="#fddd80" vector-effect="non-scaling-stroke"/>
  <path d="m534.91 265.71a6.45 6.45 0 0 0-6.45-6.45h-22.22a6.45 6.45 0 0 0-6.45 6.45v4.58a6.45 6.45 0 0 0 6.45 6.45h22.22a6.45 6.45 0 0 0 6.45-6.45v-4.58" stroke="#fddd80" vector-effect="non-scaling-stroke"/>
  <path d="m575.88 265.77a6.48 6.48 0 0 0-6.4687-6.4913l-22.2-0.0388a6.48 6.48 0 0 0-6.4913 6.4687l-8e-3 4.52a6.48 6.48 0 0 0 6.4687 6.4913l22.2 0.0388a6.48 6.48 0 0 0 6.4913-6.4687l8e-3 -4.52" stroke="#fddd80" vector-effect="non-scaling-stroke"/>
  <path d="m616.41 265.69a6.43 6.43 0 0 0-6.43-6.43h-22.18a6.43 6.43 0 0 0-6.43 6.43v4.62a6.43 6.43 0 0 0 6.43 6.43h22.18a6.43 6.43 0 0 0 6.43-6.43v-4.62" stroke="#fddd80" vector-effect="non-scaling-stroke"/>
  <path d="m657.49 265.73a6.47 6.47 0 0 0-6.47-6.47h-22.2a6.47 6.47 0 0 0-6.47 6.47v4.54a6.47 6.47 0 0 0 6.47 6.47h22.2a6.47 6.47 0 0 0 6.47-6.47v-4.54" stroke="#fddd80" vector-effect="non-scaling-stroke"/>
  <path d="m700.22 265.72a6.43 6.43 0 0 0-6.4188-6.4412l-22.24-0.0388a6.43 6.43 0 0 0-6.4412 6.4188l-8e-3 4.62a6.43 6.43 0 0 0 6.4188 6.4412l22.24 0.0388a6.43 6.43 0 0 0 6.4412-6.4188l8e-3 -4.62" stroke="#fddd80" vector-effect="non-scaling-stroke"/>
  <path d="m646.26 425.57a7.2 5.89 91 0 0 6.0148-7.0961 7.2 5.89 91 0 0-5.7634-7.3017 7.2 5.89 91 0 0-6.0148 7.0961 7.2 5.89 91 0 0 5.7634 7.3017" stroke="#80aacb" vector-effect="non-scaling-stroke"/>
  <path d="m547.68 411.9 0.1 5.12a0.3 0.3 0 0 0 0.31 0.29l3.12-0.06a3.47 2.65-1.1 0 0 3.42-2.72v-0.42a3.47 2.65-1.1 0 0-3.52-2.58l-3.13 0.06a0.3 0.3 0 0 0-0.3 0.31" stroke="#80aacb" vector-effect="non-scaling-stroke"/>
  <path d="m576.71 414.71-1.77 4.77q-0.19 0.53 0.37 0.52h3.13q0.71-0.01 0.47-0.67l-1.7-4.62q-0.25-0.68-0.5 0" stroke="#80aacb" vector-effect="non-scaling-stroke"/>
  <path d="m599.29 412.01v12.64a0.4 0.4 0 0 0 0.4 0.4h2.59a6.49 6.16 0 0 0 6.49-6.16v-1.12a6.49 6.16 0 0 0-6.49-6.16h-2.59a0.4 0.4 0 0 0-0.4 0.4" stroke="#80aacb" vector-effect="non-scaling-stroke"/>
 </g>
 <path d="m336.57 11.83-2.37 3.16a0.6 0.61 32.2 0 1-0.76 0.18l-0.29-0.15a0.5 0.5 0 0 1-0.12-0.8l3.31-3.29q0.37-0.37 0.44-0.89c0.27-2.08 3.69-5.43 4.97-6.54q3.16-2.73 7.64-2.48 0.5 0.03 0.81 0.43c3.14 3.99 0.57 7.65-3.31 9.44-1.46 0.67-2.43 1.65-3.98 2.17q-2.57 0.87-4.87 2.34a0.76 0.76 0 0 1-1.17-0.67l0.11-2.76q0.02-0.72-0.41-0.14z" fill="#fbba00"/>
 <path d="m188.83 10.89q1.13-1.02 2.63-0.26 0.42 0.21 0.61 0.63 2.21 4.78 2.53 6.66c0.65 3.79 4.26 11.02-0.51 13.38q-0.4 0.2-0.8 0.01c-4.51-2.11-3.68-5.07-5.35-8.61-1.99-4.23-2.48-6.46-0.93-10.99q0.16-0.46 0.65-0.45 0.34 0 0.65-0.07 0.24-0.05 0.52-0.3z" fill="#fbba00"/>
 <path d="m319.48 14.34-4.21 9.6q-0.21 0.49-0.67 0.75c-2.93 1.69-4.01 5.45-8.01 4.43a1.42 1.42 0 0 1-0.99-1.84c0.74-2.14 1.19-4.15 2.44-6 2.3-3.37 4.97-6.6 8.61-8.57q0.5-0.27 0.9 0.14 0.62 0.65 1.53 0.77 0.68 0.09 0.4 0.72z" fill="#fbba00"/>
 <path d="m377.06 44.55c-3.26 0.15-4.85 1.75-7.57 2.74q-2.62 0.96-3.88-1.46-2.8-5.38 0.02-10.95c1.46-2.87 5.53-2.07 7.75-1.24 4.26 1.59 5.06 6.39 4.27 10.39q-0.09 0.5-0.59 0.52z" fill="#fbba00"/>
 <path d="m337.23 42.07a0.25 0.23 26.9 0 1-0.09-0.25q0.24-1.09 1.11-1.44c1.56-0.63 3.28 1.04 3.75 2.4a0.6 0.6 0 0 1-0.25 0.7l-1.02 0.62q-0.48 0.3-0.93-0.05z" fill="#fbba00"/>
 <path d="m236.29 45.24a0.77 0.77 0 0 1 0.66-0.86l1.26-0.17a9.47 9.14 82.5 0 1 10.3 8.2l0.19 1.42a9.47 9.14 82.5 0 1-7.83 10.59l-1.26 0.16a0.77 0.77 0 0 1-0.86-0.66z" fill="#fbba00"/>
 <ellipse transform="rotate(88.5)" cx="73.594" cy="-354.44" rx="8.98" ry="5.6" fill="#fbba00"/>
 <path d="m187.82 63.54c-2.05 4.7-11.09 3.75-15.32 3.38q-0.44-0.04-0.43-0.47l0.05-7.26q0-0.52 0.41-0.84c3.51-2.76 8.68-2.9 12.67-1.48q4.79 1.7 2.62 6.67z" fill="#fbba00"/>
 <path d="m271.24 60.42c0.3 0.88 0.92 1.43 0.8 2.32q-0.21 1.52-0.15 2.67c0.2 3.65-0.92 8.55-4.42 10.45a3.03 3.02 55.3 0 1-3.72-0.68c-2.47-2.85-1.66-5.8-1.8-9.33-0.15-3.76 3.06-5.18 5.33-7.24q0.36-0.33 0.78-0.07 0.95 0.58 2.05 0.77 0.54 0.1 0.85 0.56 0.17 0.26 0.28 0.55z" fill="#fbba00"/>
 <path d="m163.91 68.79q-0.3-0.09-0.59-0.41-0.22-0.24-0.27-0.63-0.21-1.56-0.14-2.8a1.92 1.92 0 0 1 2.76-1.61q2.42 1.19 3.16 3.85 0.15 0.52 0.63 0.79l0.56 0.32a0.7 0.71 24.6 0 1 0.31 0.86q-0.93 2.47 0.72 4.24 0.34 0.36 0.45 0.85c0.49 2.1 1.76 7.16-1.61 7.5q-0.52 0.05-0.84-0.35c-2.24-2.76-5.56-8.08-4.66-11.77a0.7 0.69 15.5 0 0-0.48-0.84z" fill="#fbba00"/>
 <path d="m331.37 66.78a0.77 0.77 0 0 1 0.78 0.77l0.03 4.85a8.46 1.7 89.6 0 1-1.64 8.47h-0.26a8.46 1.7 89.6 0 1-1.76-8.45l-0.03-4.85a0.77 0.77 0 0 1 0.76-0.77z" fill="#fbba00"/>
 <path d="m161.51 71.76 0.62 0.33q0.76 0.39 0.14 0.98-0.23 0.21-0.29 0.54a0.13 0.11 24.3 0 0 0.06 0.13q1.08 0.67 0.19 1.46-1.83 1.61-4.14 2.08a0.85 0.86 68.3 0 1-0.88-0.37l-1.9-2.88q-0.28-0.42-0.29-0.92l-0.13-3.9a0.96 0.96 0 0 1 1.09-0.98q2.68 0.38 4.85 1.98 0.38 0.28 0.39 0.75 0 0.17 0 0.33a0.55 0.55 0 0 0 0.29 0.47z" fill="#fbba00"/>
 <path d="m328.59 98.65 8.3-2.56q0.77-0.23 0.97-1l0.59-2.14q1.03-3.77 1.83 0.06 0.22 1.07 0.61 2.03a1.31 1.31 0 0 1-0.02 1.03c-1.14 2.52 2.28 8.44 3.65 10.65 2.09 3.4 7.02 5.53 10.37 7.65a0.4 0.4 0 0 0 0.61-0.41q-0.34-1.85-0.43-3.73c-0.06-1.39 0.46-2.72-0.37-4.44a1.37 1.37 0 0 1-0.11-0.92c0.63-2.71 2.05-6.62 5.07-7.47a1 1 0 0 1 1.26 1.1c-0.46 3.54-4.07 4.54-4.22 8.44q-0.12 2.92 0.63 5.58a1.27 1.27 0 0 0 2.05 0.62c1.78-1.52 4.67-3.84 5.02-6.27q0.07-0.5 0.37-0.91c1.93-2.77 1.56-5.93 4.18-8.12a1.25 1.24 65.1 0 1 2.02 0.74c0.89 4.98-1.77 4.88-4.17 8.39-1.03 1.51-2.33 2.16-3.31 3.74-1.31 2.12-2.37 2.71-4.42 3.66a1.42 1.42 0 0 0-0.25 2.44l9.21 6.77a0.71 0.71 0 0 0 0.87-0.01l4.49-3.51q0.19-0.16 0.28 0.08 0.19 0.55 0 0.78-1.21 1.48-2.43 2.95-0.31 0.37-0.79 0.36-0.26 0-0.49 0.09a0.47 0.48 54.6 0 0-0.14 0.81l4.36 3.56a0.87 0.87 0 0 0 0.68 0.18l4.07-0.69q0.67-0.11 0.79 0.56 0.09 0.53-0.01 1.07a0.67 0.66 13.8 0 1-0.86 0.51q-1.12-0.35-2.3-0.27-0.84 0.07-0.21 0.62 7.65 6.73 14.36 14.37c0.76 0.86 1.36 1.03 2.44 1.22q0.49 0.09 0.77 0.51l13.91 21.17a0.59 0.6 47.5 0 0 0.96 0.04l0.47-0.59q0.33-0.41 0.83-0.59l3.94-1.43q0.43-0.16 0.89-0.13 0.85 0.06 1.88-0.45c2.87-1.43 6.07 0.23 8.35-1.35q0.33-0.23 0.71-0.08l4.72 1.86a1.5 1.5 0 0 1 0.19 2.7q-0.6 0.34-1.27 0.35a0.87 0.86 13.8 0 0-0.74 0.44c-0.61 1.09-1.04 1.89-2.2 2.52q-4.38 2.36-8.79 4.63c-1.51 0.78-2.56 0.73-4.17 0.57q-0.53-0.05-0.28 0.41 7.41 13.66 12.37 28.38 0.14 0.43 0.6 0.44c2.51 0.07 5.75 0.51 7.39 2.74q0.35 0.47 0.06 0.96l-1.64 2.81q-0.51 0.88 0.49 0.71l1.58-0.27q0.5-0.08 0.95 0.14 2.02 1.01 4.23 0.46 0.47-0.12 0.92 0.08l4.3 1.86q0.59 0.25 0.5 0.88c-0.42 3.22-1.43 6.2-5.3 5.82q-0.51-0.05-0.99 0.16-1.32 0.6-2.77 0.28-0.53-0.11-1 0.15-1.85 1.05-4.02 0.8a0.26 0.25 87.3 0 0-0.27 0.3l0.83 4.02q0.05 0.25 0.3 0.18l4.11-1.16q0.54-0.15 1.09-0.06 1.09 0.19 1.89-0.56 0.42-0.41 0.89-0.05 0.13 0.1 0.25 0.3a1.38 1.37 71.4 0 1-1.03 2.09q-2.75 0.27-5.41 0.71a1.63 1.63 0 0 0-1.36 1.8l2.18 19.09q0.09 0.79-0.69 0.6-36.92-8.92-74.69-13.03-0.45-0.05-0.15-0.39 4.94-5.47 2.28-13.1c-1.52-4.38-3.89-3.86-8.32-3.85q-10.45 0-20.89-0.01c-5.71-0.01-5.47 10.4-4.18 13.83q0.17 0.46-0.32 0.43l-8.48-0.51a0.41 0.42 10.4 0 1-0.37-0.54c1.33-4.25 1.08-13.32-5.24-13.34q-11.08-0.03-22.17 0.01-4.68 0.01-6.14 3.56-1.64 3.97-0.75 8.2 0.11 0.5-0.4 0.49l-5.42-0.04a0.48 0.48 0 0 1-0.46-0.59c0.92-4.04 0.05-11.57-5.67-11.61q-11.53-0.08-23.06 0c-5.89 0.03-6.76 7.33-5.92 11.66q0.1 0.5-0.42 0.52l-5.03 0.18q-0.66 0.02-0.53-0.63c0.97-4.68 0.04-11.71-6.1-11.74q-12.05-0.06-24.09 0-0.82 0.01-1.9 0.92c-3.25 2.73-3.42 8.52-2.12 12.25q0.22 0.62-0.43 0.67l-6.56 0.5q-0.68 0.05-0.44-0.58c1.79-4.74 1.51-13.74-5.43-13.76q-11.94-0.04-23.87-0.01c-5.78 0.02-6.37 13.33-2.5 16.13q1 0.72-0.22 0.85-40.2 4.39-79.41 14.23-0.76 0.19-0.6-0.58 1.23-5.83 5.38-10.06 0.37-0.37 0.43-0.89 5.24-43.33 30.02-79.13 0.64-0.92 0.79-2.44 0.04-0.48-0.43-0.54-3.78-0.54-6.58-3.16-0.33-0.31-0.13-0.71l1.51-3a2.3 2.3 0 0 1 3.39-0.83l2.37 1.69a1.53 1.53 0 0 0 2.35-0.8q4.53-14.77 0.82-29.78-0.15-0.62 0.49-0.55c4.15 0.49 8.41 4.7 10.94 7.44q2.19 2.39 6.62 3.75a1.23 1.24 41.2 0 0 0.86-0.06c2.97-1.41 5.5-2.74 8.14-4.92q9-7.4 19.68-14.23 2.34-1.5 1.86-4.36a0.53 0.53 0 0 1 0.53-0.61l0.97 0.01q0.46 0.01 0.68-0.39c5.83-10.6 6.68-22.42 5.24-34.22a0.46 0.47 3.8 0 1 0.58-0.51c6.46 1.74 9.7 7.01 12.24 12.75q2.96 6.67 7.56 11.91a1.11 1.1 59.3 0 0 1.21 0.31q16.66-6.1 34.21-8.73 0.51-0.08 0.72-0.56 1.62-3.79 2.86-8.72c1.36-5.4 5.22-4.11 9.41-4.48q0.49-0.04 0.89 0.23l0.36 0.25q0.34 0.23 0.76 0.23 3.36-0.01 5.02 2.86 0.93 1.59 1.33-0.21 0.69-3.16 3.87-3.93 1.96-0.48 1.75 1.53-0.07 0.66 0.28 1.18 0.36 0.55-0.03 1.09l-1.62 2.29a0.52 0.52 0 0 0 0.3 0.8q15.95 3.91 32.37 4.65 0.58 0.02 0.67-0.54c0.68-3.9 2.31-3.77 4.1-6.57a0.97 1.01 13.8 0 1 0.73-0.46q1.42-0.17 2.22-1.35 0.31-0.45 0.86-0.42l3.04 0.16a1.82 1.82 0 0 1 1.71 2.01q-0.21 1.92 0.44 3.72 0.18 0.48 0 0.97c-0.97 2.75 0.32 6.01 0.79 8.82q0.29 1.73 2.22 1.45 0.46-0.07 0.63-0.51 0.47-1.2 1.8-1.33 0.56-0.05 0.75 0.48l0.79 2.22a0.95 0.93 89.7 0 0 0.57 0.58l10.6 3.87a0.8 0.8 0 0 0 1.04-0.98l-0.92-2.98q-0.15-0.49 0.02-0.98l0.76-2.15a1.44 1.42 5.9 0 1 1.18-0.95q3.31-0.39 0.29 7.24-0.33 0.85 0.54 0.58zm-49.988 23.959a6.32 6.32 0 0 0-6.342-6.2979l-22.44 0.0783a6.32 6.32 0 0 0-6.2979 6.342l0.0166 4.74a6.32 6.32 0 0 0 6.342 6.2979l22.44-0.0783a6.32 6.32 0 0 0 6.2979-6.342zm-81.576 20.8a6.34 6.34 0 0 0-6.3511-6.3289l-22.46 0.0392a6.34 6.34 0 0 0-6.329 6.3511l8e-3 4.7a6.34 6.34 0 0 0 6.3511 6.3289l22.46-0.0392a6.34 6.34 0 0 0 6.329-6.3511zm81.578 0.0913a6.37 6.37 0 0 0-6.3589-6.3811l-22.34-0.039a6.37 6.37 0 0 0-6.3811 6.3589l-8e-3 4.64a6.37 6.37 0 0 0 6.3589 6.3811l22.34 0.039a6.37 6.37 0 0 0 6.3811-6.3589zm-81.948 21.039a6.33 6.33 0 0 0-6.3411-6.319l-22.44 0.0392a6.33 6.33 0 0 0-6.319 6.341l8e-3 4.7a6.33 6.33 0 0 0 6.3411 6.319l22.44-0.0392a6.33 6.33 0 0 0 6.319-6.341zm81.484 0.0206a6.32 6.32 0 0 0-6.32-6.32h-22.4a6.32 6.32 0 0 0-6.32 6.32v4.72a6.32 6.32 0 0 0 6.32 6.32h22.4a6.32 6.32 0 0 0 6.32-6.32zm83.83 0a6.32 6.32 0 0 0-6.32-6.32h-22.48a6.32 6.32 0 0 0-6.32 6.32v4.72a6.32 6.32 0 0 0 6.32 6.32h22.48a6.32 6.32 0 0 0 6.32-6.32zm-165.33 20.812a6.31 6.31 0 0 0-6.2769-6.3429l-22.44-0.1175a6.31 6.31 0 0 0-6.3429 6.2768l-0.0251 4.78a6.31 6.31 0 0 0 6.2769 6.3429l22.44 0.1175a6.31 6.31 0 0 0 6.3429-6.2768zm40.948-0.0818a6.3 6.3 0 0 0-6.3-6.3h-22.52a6.3 6.3 0 0 0-6.3 6.3v4.76a6.3 6.3 0 0 0 6.3 6.3h22.52a6.3 6.3 0 0 0 6.3-6.3zm40.55 0.04a6.34 6.34 0 0 0-6.34-6.34h-22.36a6.34 6.34 0 0 0-6.34 6.34v4.7a6.34 6.34 0 0 0 6.34 6.34h22.36a6.34 6.34 0 0 0 6.34-6.34zm41.07 0a6.34 6.34 0 0 0-6.34-6.34h-22.44a6.34 6.34 0 0 0-6.34 6.34v4.7a6.34 6.34 0 0 0 6.34 6.34h22.44a6.34 6.34 0 0 0 6.34-6.34zm42.726-0.0606a6.31 6.31 0 0 0-6.321-6.299l-22.44 0.0392a6.31 6.31 0 0 0-6.299 6.321l8e-3 4.76a6.31 6.31 0 0 0 6.321 6.299l22.44-0.0392a6.31 6.31 0 0 0 6.299-6.321zm-165.29 20.421a6.45 6.45 0 0 0-6.45-6.45h-22.22a6.45 6.45 0 0 0-6.45 6.45v4.58a6.45 6.45 0 0 0 6.45 6.45h22.22a6.45 6.45 0 0 0 6.45-6.45zm40.974 0.0607a6.48 6.48 0 0 0-6.4687-6.4913l-22.2-0.0388a6.48 6.48 0 0 0-6.4913 6.4687l-8e-3 4.52a6.48 6.48 0 0 0 6.4687 6.4913l22.2 0.0388a6.48 6.48 0 0 0 6.4913-6.4687zm40.526-0.0807a6.43 6.43 0 0 0-6.43-6.43h-22.18a6.43 6.43 0 0 0-6.43 6.43v4.62a6.43 6.43 0 0 0 6.43 6.43h22.18a6.43 6.43 0 0 0 6.43-6.43zm41.08 0.04a6.47 6.47 0 0 0-6.47-6.47h-22.2a6.47 6.47 0 0 0-6.47 6.47v4.54a6.47 6.47 0 0 0 6.47 6.47h22.2a6.47 6.47 0 0 0 6.47-6.47zm42.734-9e-3a6.43 6.43 0 0 0-6.4188-6.4412l-22.24-0.0388a6.43 6.43 0 0 0-6.4412 6.4188l-8e-3 4.62a6.43 6.43 0 0 0 6.4188 6.4412l22.24 0.0388a6.43 6.43 0 0 0 6.4412-6.4188z" fill="#fbba00"/>
 <path d="m206.07 85.52q-0.32 0.72-0.98 1.15a0.85 0.85 0 0 1-1.1-0.16q-3.26-3.71-0.96-8.3 0.24-0.49 0.76-0.63 2.68-0.7 3.52 1.63c0.3 0.84-0.07 1.77 0.46 2.71a1.2 1.17 33.4 0 1 0.15 0.68q-0.11 1.47-1.28 2.24-0.39 0.26-0.57 0.68z" fill="#fbba00"/>
 <path d="m147.69 91.24-0.32 0.83a0.59 0.59 0 0 1-0.85 0.3q-6.81-4.01-5.95-11.94 0.18-1.62 1.72-1.09c4.05 1.39 8.42 3.64 8.44 8.65q0 0.47-0.37 0.77l-2.02 1.6q-0.44 0.35-0.65 0.88z" fill="#fbba00"/>
 <ellipse transform="rotate(64.7)" cx="230.65" cy="-278.12" rx="2.22" ry="1.37" fill="#fbba00"/>
 <path d="m158 107.02 1.01 1.95a1 0.97 42.2 0 1 0.05 0.75q-1.58 4.5-6.32 4.2a1.39 1.35 67.5 0 1-0.84-0.36c-1.49-1.4-3.62-2.34-3.26-4.83q0.43-2.95 2.93-4.17a0.5 0.51 68.3 0 0 0.26-0.59q-1.15-3.9-0.8-7.97 0.04-0.47 0.44-0.72 5.54-3.38 12.05-2.47 0.47 0.06 0.54 0.53 1.24 8.5-5.85 12.93-0.45 0.28-0.21 0.75z" fill="#fbba00"/>
 <path d="m423.71 127.25 1.09 0.23a1.31 1.31 0 0 1 0.38 2.42q-2.63 1.52-4.95 2.69-1.48 0.75-3.68 1.17c-3.57 0.7-5.03 2.48-7.26 4.6q-0.63 0.59-1.49 0.6h-0.81a0.44 0.44 0 0 1-0.26-0.8l4.43-3.03a1.06 1.05 47.6 0 0 0.07-1.69l-0.9-0.74q-0.49-0.4-0.06-0.88l0.86-0.94q0.47-0.52-0.12-0.89l-1.72-1.09q-0.35-0.22-0.35-0.64 0.03-1.79 0.11-3.57c0.22-4.94 4.65-5.56 8.36-6.65q0.49-0.14 0.43-0.65c-0.51-4.24-0.48-6.34 4.16-7.64q6.14-1.72 10.81 1.66c3.39 2.46-3.04 11.62-4.23 14.18q-0.49 1.06-1.6 0.68-1.73-0.58-3.33-0.02a0.52 0.52 0 0 0 0.06 1z" fill="#fbba00"/>
 <path d="m95.659 119.26-1.72-0.44a1.17 1.19 82 0 1-0.73-0.54q-1.31-2.25-3.73-3.26a0.76 0.76 0 0 1-0.4-1.01l0.51-1.1q0.26-0.56 0.86-0.43 4.78 1.07 7.57 4.97c1.49 2.08 4.5 2.99 4.44 5.91q-0.01 0.54-0.51 0.35-1.96-0.75-3.29-2.37a1.36 1.36 0 0 0-0.85-0.49q-1.04-0.15-1.5-1.07-0.21-0.41-0.65-0.52z" fill="#fbba00"/>
 <path d="m376.56 120.4q0.33-1.45-0.04-2.9a1.08 1.08 0 0 1 0.14-0.84c1.03-1.57 4.39-5.58 6.26-3.99q0.36 0.31 0.16 0.74c-1.56 3.45-1.64 6.8-6.33 7.21a0.18 0.18 0 0 1-0.19-0.22z" fill="#fbba00"/>
 <path d="m88.739 135.19c-10.51 0.68-16.71-10.83-10.5-19.28q0.31-0.42 0.82-0.4c9.14 0.44 10.45 12.46 10.28 19.06a0.63 0.63 0 0 1-0.6 0.62z" fill="#fbba00"/>
 <rect transform="rotate(-.2)" x="243.09" y="117.26" width="35.08" height="17.38" rx="6.32" fill="#fff"/>
 <ellipse transform="rotate(130.3)" cx="-149.66" cy="-375.59" rx="3.43" ry="1.17" fill="#fbba00"/>
 <path d="m124.34 134.46c0.94 1.97-0.05 5.35-2.85 4.82q-3-0.57-4.84-2.95-0.32-0.42-0.15-0.91l0.9-2.67a0.83 0.82 9.5 0 1 0.8-0.56q1.83 0.02 3.52 0.72 0.45 0.19 0.93 0.05 0.95-0.29 1.32 0.61 0.3 0.75 0.37 0.89z" fill="#fbba00"/>
 <path d="m102.97 146.24 2.44-10.49a1.07 1.07 0 0 1 1.13-0.82c6.38 0.55 7.87 5.76 6.72 11.29q-0.09 0.41-0.51 0.41l-9.49-0.01a0.31 0.31 0 0 1-0.29-0.38z" fill="#fbba00"/>
 <rect transform="rotate(-.1)" x="161.63" y="137.41" width="35.14" height="17.38" rx="6.34" fill="#fff"/>
 <rect transform="rotate(.1)" x="243.77" y="136.64" width="35.08" height="17.38" rx="6.37" fill="#fff"/>
 <path d="m481.53 150.87q-1.07-0.47-1.83-1.34c-1.35-1.53-3.23-2.31-4.5-4.16q-1.19-1.74-2.39-3.45-0.31-0.45-0.14-0.96 0.43-1.33 1.56-2.02 0.42-0.27 0.88-0.08 8.68 3.58 13.1 9.1 1.83 2.28-0.2 5.21a0.62 0.64 32.9 0 1-0.84 0.19q-1.29-0.78-2.78-0.76a1.23 1.2 67.6 0 1-0.87-0.37q-0.86-0.87-1.99-1.36z" fill="#fbba00"/>
 <ellipse transform="rotate(-43.8)" cx="197.09" cy="386.1" rx="3.53" ry="1.49" fill="#fbba00"/>
 <ellipse transform="rotate(22.2)" cx="426.23" cy="-13.899" rx="2.2" ry="2.04" fill="#fbba00"/>
 <path d="m81.569 166.46c0.23 3.75 0.38 10.55-2.72 13.57q-0.35 0.34-0.83 0.34l-9.32-0.02q-1.09 0-1.58-0.98c-2.97-5.98-1.09-14.92 0.69-21.05a0.67 0.67 0 0 1 0.64-0.48l5.95 0.01q0.65 0 1-0.55l0.89-1.42q0.27-0.43 0.78-0.46c3.12-0.15 5.67 1.18 8.58 0.71 6.26-1 10.95-0.55 15.75 3.98q0.33 0.32 0.43 0.77 0.77 3.52-1.15 6.37-0.29 0.42-0.79 0.44c-4.47 0.15-13.24 1.08-16.71-2.01q-1.76-1.57-1.61 0.78z" fill="#fbba00"/>
 <rect transform="rotate(-.1)" x="161.27" y="158.55" width="35.1" height="17.36" rx="6.33" fill="#fff"/>
 <rect x="243.1" y="158.24" width="35.04" height="17.36" rx="6.32" fill="#fff"/>
 <rect x="326.85" y="158.24" width="35.12" height="17.36" rx="6.32" fill="#fff"/>
 <path d="m449.3 169.49a0.11 0.11 0 0 1 0.05 0.12q-2.3 9.67-12.4 8.09a0.66 0.64 88.6 0 1-0.53-0.52q-1.3-6.92 2.08-13.01 0.26-0.48 0.77-0.67c3.01-1.16 4.4 0.03 6.37 2.54q1.43 1.8 3.66 3.45z" fill="#fbba00"/>
 <path d="m486.69 188.92q-3.74 0.85-6.98 1.96c-3.47 1.19-8.98 0.97-8.83-4.15 0.31-10.52 19.25-13.48 16.38 1.6a0.74 0.75 88.8 0 1-0.57 0.59z" fill="#fbba00"/>
 <rect transform="rotate(.3)" x="162.55" y="178.03" width="35.06" height="17.4" rx="6.31" fill="#fff"/>
 <rect x="202.47" y="178.99" width="35.12" height="17.36" rx="6.3" fill="#fff"/>
 <rect x="243.1" y="178.99" width="35.04" height="17.38" rx="6.34" fill="#fff"/>
 <rect x="284.09" y="178.99" width="35.12" height="17.38" rx="6.34" fill="#fff"/>
 <rect transform="rotate(-.1)" x="326.55" y="179.59" width="35.06" height="17.38" rx="6.31" fill="#fff"/>
 <path d="m427.47 191.13c1.15 0.19 2.06-0.51 3.16 0.15q2.91 1.78 5.61 2.37a0.75 0.76 17.5 0 1 0.53 1.03l-0.1 0.24q-0.32 0.75-1.13 0.81-5.23 0.38-9.17-2.85a0.99 1.15 72.9 0 1 1.1-1.75z" fill="#fbba00"/>
 <rect x="161.53" y="199.24" width="35.12" height="17.48" rx="6.45" fill="#fff"/>
 <rect transform="rotate(.1)" x="202.82" y="198.86" width="35.16" height="17.48" rx="6.48" fill="#fff"/>
 <rect x="243.11" y="199.24" width="35.04" height="17.48" rx="6.43" fill="#fff"/>
 <rect x="284.09" y="199.24" width="35.14" height="17.48" rx="6.47" fill="#fff"/>
 <rect transform="rotate(.1)" x="327.22" y="198.64" width="35.1" height="17.48" rx="6.43" fill="#fff"/>
 <path d="m60.939 230.95c-5.29 0.43-11.05-3.97-14.88-7.24-2-1.71-2.68-4.34-4.74-5.85-1.73-1.26-5.22-3.29-5.92-5.29q-0.86-2.45 1.42-3.7a2.47 2.47 0 0 1 2.95 0.43l4.01 4.11q0.32 0.33 0.44 0.77 0.05 0.2 0.12 0.37 0.08 0.2 0.27 0.35 2.53 1.9 5.08 3.8c4.28 3.19 11.94 4.99 11.71 11.76q-0.01 0.45-0.46 0.49z" fill="#fbba00"/>
 <path d="m67.089 220.7q-0.49-0.27-0.88-0.73-0.36-0.42-0.32-0.98l0.1-1.54a1.59 1.58 1 0 1 1.54-1.48q5.29-0.14 2.57 4.62-0.68 1.2-1.94 0.65-0.4-0.18-1.07-0.54z" fill="#fbba00"/>
 <ellipse transform="rotate(77.8)" cx="330.19" cy="-450.42" rx="7.03" ry="6.81" fill="#fbba00"/>
 <path d="m73.879 225.97c5.02 0.22 11.4 4.88 6.16 10.18q-0.37 0.38-0.9 0.32-4-0.44-7.24-2.76-0.44-0.32-0.46-0.85-0.12-3.42 1.58-6.41 0.29-0.5 0.86-0.48z" fill="#fbba00"/>
 <path d="m32.709 242.03-2.42-1.57a0.83 0.83 0 0 1-0.28-1.07l0.83-1.65a0.83 0.83 0 0 1 1.02-0.41l3.15 1.11a0.83 0.83 0 0 1 0.39 1.28l-1.57 2.11a0.83 0.83 0 0 1-1.12 0.2z" fill="#fbba00"/>
 <path d="m21.489 283.29v9.41a0.57 0.57 0 0 0 0.43 0.55q12.69 3.04 25.33 6.35 6.76 1.77 12.74 5.32c1.86 1.11 2.4 2.41 2.39 4.66-0.03 4.6 0.87 14.16-0.86 17.8-2.5 5.27-10.98 6.45-16.03 6.5q-18.36 0.21-28 0.04c-5.83-0.1-15.26-1.78-16.29-8.92-0.35-2.4-0.12-7.49-0.06-10.96q0.01-0.6 0.61-0.6l19.15 0.12q0.59 0.01 0.59 0.59v9.08q0 0.5 0.5 0.5h19.5q0.5 0 0.5-0.5v-9.23q0-0.51-0.5-0.63-22.12-5.33-27.75-7.15-5.18-1.67-9.86-4.37c-1.95-1.12-2.78-2.39-2.78-4.77q0.02-6.61 0.02-13.21c0.01-10.84 13.21-11.34 20.87-11.35q11.37-0.02 22.75 0.12c5.23 0.06 14.43 1.35 16.85 6.69 1.37 3.02 0.8 9.41 0.76 13.18q0 0.6-0.6 0.6l-19.14-0.01q-0.62 0-0.62-0.62v-9.06q0-0.57-0.56-0.57l-19.5-0.01q-0.44 0-0.44 0.45z" fill="#005497"/>
 <path d="m113.49 323.23v-50.07q0-0.56 0.57-0.56h19.35q0.57 0 0.57 0.57 0.04 24.26 0 48.43-0.01 4.19-1.01 6.08c-2.64 4.98-10.95 6.14-15.99 6.21q-13.48 0.19-26.98 0.16c-6.86-0.02-17.61-2.24-17.55-10.82q0.17-25.04 0.18-50.08 0-0.55 0.55-0.55h19.31a0.62 0.62 0 0 1 0.62 0.62v50.07a0.44 0.44 0 0 0 0.44 0.44h19.44q0.5 0 0.5-0.5z" fill="#005497"/>
 <path d="m185.28 307.66-0.18-34.67a0.38 0.39 0 0 1 0.38-0.39h19.75a0.38 0.37 89.3 0 1 0.38 0.38v60.55a0.42 0.43 0 0 1-0.42 0.43l-19.3 0.19a1.09 1.07 74.3 0 1-0.95-0.54l-19.64-34.53q-0.56-0.97-0.56 0.15v34.25a0.5 0.5 0 0 1-0.5 0.5h-19.5q-0.5 0-0.5-0.5v-60.31q0-0.57 0.56-0.57h18.92a1.56 1.56 0 0 1 1.35 0.78l19.69 34.42q0.52 0.91 0.52-0.14z" fill="#005497"/>
 <path d="m236.74 323.73h19.31q0.56 0 0.56-0.56l0.01-9.18q0-0.55-0.54-0.68-13.07-3.19-26-6.67c-4.67-1.26-14.29-4.33-14.32-9.45-0.03-4.72-1.01-14.25 0.99-18.16 2.58-5.03 10.4-6.15 15.49-6.24q13.37-0.25 26.75-0.2c4.98 0.03 13.05 1.01 16.35 5.24 2.61 3.35 1.91 10.45 1.71 14.62q-0.03 0.53-0.56 0.53h-19.44a0.44 0.44 0 0 1-0.44-0.44v-9.32q0-0.37-0.38-0.37l-19.42-0.01q-0.57 0-0.57 0.57v9.12q0 0.54 0.52 0.67 13.22 3.18 26.27 6.7c4 1.08 11.48 3.5 13.44 6.88 1.31 2.26 0.64 8.54 0.64 11.26q-0.02 6.72-0.32 7.86c-1.77 6.68-11.61 7.91-17.55 8.01q-12.37 0.19-24.75 0.13c-7.34-0.03-18.38-1.48-18.69-10.55q-0.16-4.74-0.02-9.45 0.02-0.62 0.64-0.61l19.33 0.07q0.49 0 0.49 0.49v9.24q0 0.5 0.5 0.5z" fill="#005497"/>
 <path d="m328.24 297.89v-24.95a0.34 0.34 0 0 1 0.34-0.34l19.67-0.03a0.34 0.34 0 0 1 0.34 0.34l0.03 60.7a0.34 0.34 0 0 1-0.34 0.34l-19.7 0.2a0.34 0.34 0 0 1-0.34-0.34v-24.99a0.34 0.34 0 0 0-0.34-0.34h-19.82a0.34 0.34 0 0 0-0.34 0.34v24.82a0.34 0.34 0 0 1-0.34 0.34h-19.82a0.34 0.34 0 0 1-0.34-0.34v-60.69a0.34 0.34 0 0 1 0.34-0.34l19.82-0.02a0.34 0.34 0 0 1 0.34 0.34v24.96a0.34 0.34 0 0 0 0.34 0.34h19.82a0.34 0.34 0 0 0 0.34-0.34z" fill="#005497"/>
 <rect x="358.86" y="272.59" width="20.38" height="61.4" rx=".41" fill="#005497"/>
 <path d="m409.88 299.08-0.01 34.46a0.44 0.44 0 0 1-0.44 0.44h-19.44q-0.5 0-0.5-0.5v-60.31q0-0.57 0.56-0.57h19.15q0.68 0 1.02 0.59l19.78 34.6q0.53 0.92 0.53-0.14l-0.18-34.54a0.5 0.5 0 0 1 0.5-0.5l19.43-0.02a0.43 0.44 0 0 1 0.43 0.44l0.04 60.46a0.52 0.52 0 0 1-0.52 0.52h-19.18a1.25 1.27 75.4 0 1-1.1-0.64l-19.58-34.42q-0.49-0.87-0.49 0.13z" fill="#005497"/>
 <path d="m481.49 283.15v14.9a0.3 0.3 0 0 0 0.3 0.3h30.16a0.3 0.3 0 0 1 0.3 0.3l-0.02 9.71a0.3 0.3 0 0 1-0.3 0.3l-30.14-0.18a0.3 0.3 0 0 0-0.3 0.3v14.64a0.3 0.3 0 0 0 0.3 0.3l40.28 0.01a0.3 0.3 0 0 1 0.3 0.3v9.65a0.3 0.3 0 0 1-0.3 0.3h-60.78a0.3 0.3 0 0 1-0.3-0.3v-60.78a0.3 0.3 0 0 1 0.3-0.3h60.78a0.3 0.3 0 0 1 0.3 0.3l-0.01 9.65a0.3 0.3 0 0 1-0.3 0.3h-40.27a0.3 0.3 0 0 0-0.3 0.3z" fill="#005497"/>
 <path d="m318.1 359.72a9.07 9.07 0 0 1-8.9905 9.1488l-1.74 0.0152a9.07 9.07 0 0 1-9.1488-8.9905l-0.0253-2.8999a9.07 9.07 0 0 1 8.9905-9.1488l1.74-0.0152a9.07 9.07 0 0 1 9.1488 8.9905zm-10.098 5.8257a5.89 7.2 1 0 0 6.0148-7.0961 5.89 7.2 1 0 0-5.7634-7.3017 5.89 7.2 1 0 0-6.0148 7.0961 5.89 7.2 1 0 0 5.7634 7.3017z" fill="#005497"/>
 <path d="m209.49 361.48-0.01 7.01q0 0.25-0.25 0.25l-3.74-0.02a0.25 0.24 0 0 1-0.25-0.24v-19.75q0-0.51 0.52-0.54c4.64-0.27 12.95-1.2 14.69 4.28 1.23 3.9-0.87 5.7-3.79 7.58q-0.54 0.34-0.17 0.87l5.41 7.53a0.18 0.17 72 0 1-0.14 0.28h-4.49q-0.2 0-0.32-0.17l-4.96-7.08a1.21 1.22 71.9 0 0-1.01-0.51l-0.99 0.01q-0.5 0.01-0.5 0.5zm-0.07-9.6 0.1 5.12a0.3 0.3 0 0 0 0.31 0.29l3.12-0.06a2.65 3.47 88.9 0 0 3.42-2.72v-0.42a2.65 3.47 88.9 0 0-3.52-2.58l-3.13 0.06a0.3 0.3 0 0 0-0.3 0.31z" fill="#005497"/>
 <path d="m242.11 363.62-6.83-0.02a0.35 0.35 0 0 0-0.33 0.23l-1.71 4.66a0.35 0.35 0 0 1-0.32 0.23l-3.81 0.02a0.35 0.35 0 0 1-0.33-0.48l7.95-19.95a0.35 0.35 0 0 1 0.33-0.22l3.19 0.02a0.35 0.35 0 0 1 0.33 0.22l7.96 19.9a0.35 0.35 0 0 1-0.32 0.48l-3.72 0.03a0.35 0.35 0 0 1-0.34-0.23l-1.73-4.66a0.35 0.35 0 0 0-0.32-0.23zm-3.66-8.93-1.77 4.77q-0.19 0.53 0.37 0.52h3.13q0.71-0.01 0.47-0.67l-1.7-4.62q-0.25-0.68-0.5 0z" fill="#005497"/>
 <path d="m257.06 348.36a0.29 0.29 0 0 1 0.29-0.3l7.02-0.03a9.47 10.33 89.7 0 1 10.38 9.41v1.6a9.47 10.33 89.7 0 1-10.28 9.53l-7.02 0.03a0.29 0.29 0 0 1-0.29-0.28zm3.97 3.63v12.64a0.4 0.4 0 0 0 0.4 0.4h2.59a6.49 6.16 0 0 0 6.49-6.16v-1.12a6.49 6.16 0 0 0-6.49-6.16h-2.59a0.4 0.4 0 0 0-0.4 0.4z" fill="#005497"/>
 <rect x="284.37" y="348.11" width="4.12" height="20.62" rx=".31" fill="#005497"/>
 <ellipse transform="rotate(91)" cx="352.92" cy="-314.34" rx="7.2" ry="5.89" fill="#fff"/>
 <path d="m209.42 351.88a0.3 0.3 0 0 1 0.3-0.31l3.13-0.06a2.65 3.47 88.9 0 1 3.52 2.58v0.42a2.65 3.47 88.9 0 1-3.42 2.72l-3.12 0.06a0.3 0.3 0 0 1-0.31-0.29z" fill="#fff"/>
 <path d="m261.03 351.99a0.4 0.4 0 0 1 0.4-0.4h2.59a6.49 6.16 0 0 1 6.49 6.16v1.12a6.49 6.16 0 0 1-6.49 6.16h-2.59a0.4 0.4 0 0 1-0.4-0.4z" fill="#fff"/>
 <path d="m236.68 359.46 1.77-4.77q0.25-0.68 0.5 0l1.7 4.62q0.24 0.66-0.47 0.67h-3.13q-0.56 0.01-0.37-0.52z" fill="#fff"/>
 <path d="m190.93 421.53a0.42 0.42 0 0 0-0.42-0.45l-15.06 0.03q-0.56 0-0.78-0.5c-2.11-4.73-5.62-9.97-7.23-15.22a1.61 1.61 0 0 0-0.66-0.88q-19.16-12.55-34.29-29.74-0.76-0.86 0.38-0.68 48.45 7.59 97.12 9.11c53.73 1.69 108-0.83 161.01-9.29q1.12-0.18 0.37 0.66-10.94 12.27-23.89 22.39-0.41 0.32-0.41 0.84l0.04 8.5q0 0.48-0.36 0.81c-2.63 2.42-7.51 0.25-10.06-1.36a1.52 1.53 44.8 0 0-1.64 0.01q-10.28 6.63-21.42 11.69a2.16 2.16 0 0 0-1.04 1.01l-2.54 5.21q-0.24 0.48-0.76 0.6-3.8 0.87-6.85-1.48a1.03 1.02 54.1 0 0-0.96-0.16l-5.2 1.7q-0.48 0.16-0.65 0.63c-2.83 7.54-11.45 8.52-18.4 8.24-10.72-0.43-26.28-2.32-34.17 6.93q-0.31 0.36-0.66 0.05c-5.88-5.27-11.23-7.1-19.65-8.2-7.84-1.02-12.93-1.78-20.36-3.52q-0.47-0.11-0.9 0.13-6.79 3.9-9.14 11.43-0.15 0.49-0.62 0.29c-5.53-2.34-13.85-4.57-17.44-8.4q-3.79-4.05-3.36-10.38z" fill="#fbba00"/>
 <path d="m389.37 427.25c0.88 4.6 3.41 8.89-1.17 12.35-2.66 2.02-6.3 1.63-8.33-1.01-3.21-4.18-2.93-12.45-1.36-17.2q0.16-0.48 0.06-0.97c-0.36-1.73-1.02-4.83-0.4-6.77 0.6-1.91 3.73-2.28 5.27-1.42q2.33 1.32 2.9 2.41 2.15 4.11 4.37 8.17 0.26 0.49 0.19 1.05l-0.3 2.12q-0.05 0.4-0.61 0.81-0.12 0.09-0.25 0.07-0.45-0.07-0.37 0.39z" fill="#fbba00"/>
 <path d="m134.48 432.61c-5.52 0.23-11.95-0.43-10.69-7.88a0.81 0.81 0 0 1 0.73-0.66c4.79-0.33 10.89-0.3 15.13 2.27a1.05 1.04 18.3 0 1 0.5 0.99q-0.41 5.06-5.67 5.28z" fill="#fbba00"/>
 <path d="m309.88 447.49c5.75 5.2-7.49 9.5-10.69 9.82-2.07 0.2-4.49 0.75-6.46 0a1.2 1.2 0 0 0-0.99 0.07q-1.1 0.59-2.22 0.02a1.74 1.8 56.1 0 0-1.05-0.19q-1.85 0.23-3.34-0.82-0.38-0.28-0.49-0.73-0.45-1.87 0.3-3.51a1.03 1.06 10.5 0 1 0.86-0.61q2.4-0.23 4.38-1.64a1.23 1.22 29.2 0 1 0.83-0.23q3.15 0.28 5.69-1.48 0.41-0.27 0.89-0.24 0.89 0.06 1.59-0.47 0.43-0.33 0.97-0.2c2.45 0.62 4.22-0.41 6.45-0.74q0.55-0.08 0.91 0.33 0.5 0.57 1.3 0.36 0.61-0.16 1.07 0.26z" fill="#fbba00"/>
 <path d="m270.13 479.62c-1.97 2.77-6.31 3.76-9.46 3.88a2.98 2.99 77.3 0 1-2.86-1.8c-1.17-2.71-1.64-6.15-5.37-6.77a0.74 0.74 0 0 1-0.6-0.6c-1.39-8.81 4.51-13.58 5.46-21.66q0.06-0.54 0.59-0.6c14.63-1.7 18.92 18.13 12.24 27.55z" fill="#fbba00"/>
 <path d="m115.43 466.46c-2.31-0.29-3.72 0.4-4.85 2.46q-0.25 0.44-0.75 0.35c-5.84-1.1-4.38-12.37-4.34-16.53q0-0.51 0.52-0.51l6.7-0.01a1.22 1.22 0 0 1 1.07 0.63q3.45 6.13 2.24 13.16-0.08 0.51-0.59 0.45z" fill="#fbba00"/>
 <path d="m192.7 499.26c-3.83-8.32-2.47-24.15 5.81-29.66a1.1 1.11 37.5 0 1 0.96-0.13c10.07 3.42 8.64 17.83 4.86 25.07q-2.85 5.46-9.34 5.89-1.7 0.11-2.29-1.17z" fill="#fbba00"/>
 <path d="m289.74 486.44c0.47 1.14 1.41 2.66 1.49 3.78q0.4 5.59 3.34 10.33a1.47 1.48 31.9 0 1 0.22 0.96l-0.29 2.69q-0.05 0.48-0.47 0.71-1.52 0.84-3.26 0.51a1.19 1.16 80.6 0 1-0.82-0.6q-2.18-4.02-3.94-8.21c-0.63-1.49-2.18-2.66-2.42-4.25-0.35-2.35-1.76-6.96-1.23-9.14q0.43-1.81 2.23-1.3 3.73 1.05 5.15 4.52z" fill="#fbba00"/>
 <path d="m251.64 497.48q-0.12-0.08-0.23-0.21-0.09-0.11-0.08-0.25 0.21-3.96 1.74-7.62 0.22-0.51 0.75-0.34c4.83 1.62 3.69 9.48 1.87 12.88q-0.43 0.79-1.33 0.71-0.95-0.08-1.37-1.43-0.52-1.62-1.02-3.26a0.9 0.96 8.4 0 0-0.33-0.48z" fill="#fbba00"/>
 <path d="m267.19 509.08c-2.77-0.87-5.78-2.78-9.3-2.98q-0.51-0.03-0.57-0.54c-0.4-3.6-0.01-10.69 2.65-13.39a1.39 1.44 21.8 0 1 0.96-0.43q11.73-0.54 12.56 11.01a0.86 0.87 73.3 0 1-0.45 0.82c-2.8 1.53-3.31 2.42-4.88 5.13a0.83 0.83 0 0 1-0.97 0.38z" fill="#fbba00"/>
 <path d="m332.14 502.16c0.62-3.57 2.91-6.22 2.84-9.79q0-0.44 0.43-0.51c7.54-1.26 8.27 8.4 7.43 13.68q-0.07 0.45-0.51 0.34l-9.35-2.41a1.15 1.14 12.5 0 1-0.84-1.31z" fill="#fbba00"/>
</svg>
