<!DOCTYPE svg  PUBLIC '-//W3C//DTD SVG 1.1//EN'  'http://www.w3.org/Graphics/SVG/1.1/DTD/svg11.dtd'>
<svg enable-background="new 0 0 141.057 141.058" version="1.1" viewBox="0 0 141.06 141.06" xml:space="preserve" xmlns="http://www.w3.org/2000/svg">
<rect width="141.06" height="141.06" fill="#E2001A"/>
<g fill="#fff">
	<path d="m23.922 66.707h-0.311v-15.061h-5.985v71.784h5.985v-40.974c0-13.107 6.492-25.77 19.612-26.575v-5.36c-10.092 0.541-16.426 7.131-19.301 16.186"/>
	<path d="M88.623,51.663h34.791v71.768H88.623V51.663z M123.414,41.102H88.623V17.625h34.791V41.102z"/>
	<path d="m62.566 44.047c0-9.532 1.377-16.708 12.563-16.708 0.881 0 1.809 0.042 2.701 0.129v-10.364c-1.443-0.154-2.967-0.262-4.633-0.262-19.189 0-23.61 11.183-23.61 28.301v78.287h12.979v-61.298h15.264v-10.494h-15.264v-7.591z"/>
</g>
</svg>
