<svg version="1.1" viewBox="0 0 340.96 129.71" xml:space="preserve" xmlns="http://www.w3.org/2000/svg"><defs><clipPath id="a"><path d="M 0,595.276 H 841.89 V 0 H 0 Z"/></clipPath></defs><g transform="matrix(1.3333 0 0 -1.3333 -250.29 426.51)"><g clip-path="url(#a)"><g transform="translate(194.74,296.77)"><path d="m0 0c3.867 0 7.015 3.146 7.015 7.013 0 3.87-3.148 7.017-7.015 7.017-3.87 0-7.017-3.147-7.017-7.017 0-3.867 3.147-7.013 7.017-7.013" fill="#231f20"/></g><g transform="translate(194.74,274.26)"><path d="m0 0c3.867 0 7.015 3.146 7.015 7.013 0 3.869-3.148 7.019-7.015 7.019-3.87 0-7.017-3.15-7.017-7.019 0-3.867 3.147-7.013 7.017-7.013" fill="#231f20"/></g><g transform="translate(237.51,307.41)"><path d="m0 0h-14.782v-14.398h14.782c4.561 0 7.31 3.023 7.31 7.2 0 4.176-2.749 7.198-7.31 7.198m2.308-17.091 7.145-14.617c0.109-0.219 0.218-0.495 0.218-0.77 0-0.823-0.659-1.592-1.593-1.592-0.824 0-1.209 0.329-1.538 0.934l-7.749 15.771h-13.573v-15.057c0-0.935-0.66-1.648-1.648-1.648-0.936 0-1.65 0.713-1.65 1.648v33.741c0 0.933 0.769 1.649 1.65 1.649h15.77c7.255 0 11.267-4.343 11.267-10.166 0-5.001-2.914-8.903-8.299-9.893" fill="#231f20"/></g><g transform="translate(278.67,319.23)"><path d="m0 0c0.273 0.33 0.769 0.66 1.319 0.66 0.824 0 1.374-0.66 1.374-1.264 0-0.494-0.111-0.715-0.441-1.1l-3.021-3.243c-0.494-0.55-0.825-0.767-1.319-0.767-0.769 0-1.374 0.602-1.374 1.262 0 0.386 0.165 0.714 0.44 1.045zm6.266-31.873-8.189 18.847-8.188-18.847zm8.626-11.761c0.111-0.22 0.22-0.494 0.22-0.769 0-0.825-0.603-1.483-1.592-1.483-0.825 0-1.265 0.494-1.485 1.042l-4.506 10.058h-18.905l-4.505-10.058c-0.22-0.548-0.661-1.042-1.485-1.042-0.988 0-1.594 0.658-1.594 1.483 0 0.275 0.111 0.549 0.222 0.769l15.276 34.127c0.329 0.715 0.769 1.097 1.539 1.097 0.769 0 1.209-0.382 1.538-1.097z" fill="#231f20"/></g><g transform="translate(319,307.41)"><path d="m0 0h-8.572v-30.664h8.572c9.562 0 15.167 6.705 15.167 15.332 0 8.628-5.605 15.332-15.167 15.332m0.22-33.632h-10.442c-0.989 0-1.648 0.769-1.648 1.65v33.301c0 0.933 0.715 1.649 1.648 1.649h10.442c11.1 0 18.245-8.078 18.245-18.3s-7.145-18.3-18.245-18.3" fill="#231f20"/></g><g transform="translate(352.57,273.34)"><path d="m0 0c-0.934 0-1.649 0.715-1.649 1.65v34.18c0 0.936 0.715 1.649 1.649 1.649s1.649-0.713 1.649-1.649v-34.18c0-0.935-0.715-1.65-1.649-1.65" fill="#231f20"/></g><g transform="translate(386.53,308.13)"><path d="m0 0c-9.453 0-15.167-7.639-15.167-16.049 0-8.406 5.714-16.045 15.167-16.045s15.058 7.639 15.058 16.045c0 8.41-5.605 16.049-15.058 16.049m0-35.006c-10.989 0-18.465 8.737-18.465 18.957 0 10.222 7.476 18.962 18.465 18.962 10.991 0 18.356-8.74 18.356-18.962 0-10.22-7.365-18.957-18.356-18.957" fill="#231f20"/></g><g transform="translate(450.1,304.23)"><path d="m-212.26-50.518h-11.706v-10.057h11.706c3.684 0 5.332 2.693 5.332 5.167 0 2.417-1.648 4.89-5.332 4.89m12.09-27.533c0-1.703-1.319-3.352-3.351-3.352-1.484 0-2.419 0.659-2.968 1.813l-6.43 13.245h-11.047v-11.706c0-1.867-1.482-3.352-3.352-3.352-1.866 0-3.35 1.485-3.35 3.352v30.337c0 1.867 1.484 3.351 3.35 3.351h14.125c9.121 0 13.023-4.505 13.023-10.991 0-4.287-1.867-7.967-6.045-9.781l5.662-11.487c0.22-0.439 0.383-0.933 0.383-1.429" fill="#8cc63f"/></g><g transform="translate(499.17,273.78)"><path d="m-212.26-50.518h-20.61c-1.868 0-3.407 1.485-3.407 3.354v29.894c0 1.868 1.539 3.351 3.407 3.351h19.784c1.76 0 3.188-1.319 3.188-3.078 0-1.758-1.428-3.131-3.188-3.131h-16.487v-8.739h9.069c1.705 0 3.132-1.372 3.132-3.131s-1.427-3.08-3.132-3.08h-9.069v-9.23h17.313c1.756 0 3.185-1.373 3.185-3.133 0-1.758-1.429-3.077-3.185-3.077" fill="#8cc63f"/></g><g transform="translate(543.67,279.72)"><path d="m-212.26-50.518c-3.571-4.451-9.505-6.594-15.002-6.594-11.706 0-18.793 8.573-18.793 18.959 0 11.101 8.024 18.96 18.685 18.96 4.285 0 9.121-1.43 12.253-4.673 0.659-0.659 1.045-1.373 1.045-2.252 0-1.648-1.153-3.077-3.024-3.077-0.77 0-1.484 0.275-2.198 0.769-2.088 1.594-4.341 3.021-8.076 3.021-7.202 0-11.925-5.438-11.925-12.748 0-7.474 4.396-13.079 12.033-13.079 3.738 0 7.034 1.318 9.177 3.298v5.66h-7.142c-1.648 0-3.077 1.319-3.077 3.022 0 1.757 1.429 3.021 3.077 3.021h10.329c1.923 0 3.409-1.537 3.409-3.404v-8.739c0-0.934-0.22-1.429-0.771-2.144" fill="#8cc63f"/></g><g transform="translate(560.76,273.34)"><path d="m-212.26-50.518c-1.868 0-3.407 1.539-3.407 3.407v30.664c0 1.87 1.539 3.408 3.407 3.408s3.296-1.538 3.296-3.408v-30.664c0-1.868-1.428-3.407-3.296-3.407" fill="#8cc63f"/></g><g transform="translate(606.31,273.34)"><path d="m-212.26-50.518c-1.042 0-1.812 0.385-2.418 1.154l-18.956 23.961v-21.982c0-1.758-1.432-3.133-3.189-3.133-1.703 0-3.13 1.43-3.13 3.133v31.16c0 1.704 1.26 3.186 3.296 3.186 0.877 0 1.814-0.495 2.309-1.153l18.956-23.961v21.928c0 1.704 1.265 3.186 3.132 3.186 1.871 0 3.188-1.482 3.188-3.186v-31.16c0-1.703-1.317-3.133-3.188-3.133" fill="#8cc63f"/></g><g transform="translate(638.46,301.7)"><path d="m-212.26-50.518-5.718-13.959h11.431zm8.131-19.839h-16.267l-3.132-6.704c-0.602-1.1-1.374-1.814-2.801-1.814-1.979 0-3.189 1.541-3.189 3.132 0 0.442 0.11 0.881 0.329 1.319l14.068 31.268c0.495 1.101 1.431 1.76 2.861 1.76 1.428 0 2.361-0.606 2.856-1.76l14.068-31.268c0.22-0.438 0.328-0.877 0.328-1.319 0-1.591-1.209-3.132-3.185-3.132-1.428 0-2.198 0.66-2.805 1.814z" fill="#8cc63f"/></g></g></g></svg>
