<svg width="1009.1" height="248.95" version="1.1" viewBox="-.79144 -.79144 106.93 26.37" xmlns="http://www.w3.org/2000/svg">
 <path d="m39.84 25.584h-40.631v-26.381h40.631z" fill="#ae001d"/>
 <path d="m17.833 18.118c0 0.38875 0.11625 0.525 0.505 0.525h1.7888c0.38875 0 0.50625-0.13625 0.50625-0.525v-9.6025h3.305c0.38875 0 0.505-0.13625 0.505-0.525v-1.3225c0-0.38875-0.11625-0.525-0.505-0.525h-9.41c-0.38875 0-0.505 0.13625-0.505 0.525v1.3225c0 0.38875 0.11625 0.525 0.505 0.525h3.305zm12.733-5.9289-0.195 0.81625c-0.0575 0.23375-0.0775 0.35-0.0775 0.4275 0 0.195 0.0588 0.35 0.19501 0.58375l2.3125 4.16c0.195 0.33125 0.34999 0.46625 0.8175 0.46625h2.1188c0.27249 0 0.60249-0.175 0.29124-0.66125l-2.8388-4.7038c0.95376-0.6025 2.0225-1.4588 2.0225-3.3438 0-2.43-1.3613-3.7912-4.355-3.7912h-4.335c-0.38875 0-0.50625 0.13625-0.50625 0.525v11.45c0 0.39 0.1175 0.525 0.50625 0.525h1.7888c0.38874 0 0.50624-0.135 0.50624-0.525v-9.6612h1.8462c1.1662 0 1.73 0.4275 1.73 1.5162 0 0.99125-0.4475 1.3025-0.89376 1.4962-0.56374 0.23375-0.75875-0.0188-0.93374 0.72m-22.18 0-0.195 0.81625c-0.0575 0.23375-0.0775 0.35-0.0775 0.4275 0 0.195 0.0588 0.35 0.19501 0.58375l2.3125 4.16c0.195 0.33125 0.34999 0.46625 0.8175 0.46625h2.1187c0.2725 0 0.60251-0.175 0.29125-0.66125l-2.8387-4.7038c0.95375-0.6025 2.0225-1.4588 2.0225-3.3438 0-2.43-1.3613-3.7912-4.355-3.7912h-4.335c-0.38875 0-0.50626 0.13625-0.50626 0.525v11.45c0 0.39 0.11751 0.525 0.50626 0.525h1.7888c0.38874 0 0.50624-0.135 0.50624-0.525v-9.6612h1.8462c1.1663 0 1.73 0.4275 1.73 1.5162 0 0.99125-0.44749 1.3025-0.89375 1.4962-0.56374 0.23375-0.75874-0.0188-0.93374 0.72" fill="#fff"/>
 <path d="m104.55 18.158c0.10751 0 0.21376-9e-3 0.3175-0.0275 0.10251-0.0175 0.1975-0.04 0.2825-0.065 0.085-0.0263 0.155-0.05 0.20875-0.07 0.055-0.0213 0.09-0.0362 0.105-0.0462v-1.1325c-0.01 0-0.0425-4e-3 -0.0962-0.0113-0.055-8e-3 -0.12124-0.015-0.2025-0.0225-0.08-9e-3 -0.17-0.0163-0.27125-0.0237-0.1-8e-3 -0.205-0.0113-0.31374-0.0113-0.305 0-0.52625 0.05-0.66625 0.15125-0.13875 0.1-0.20875 0.3-0.20875 0.6 0 0.14 0.02 0.25375 0.0613 0.34125s0.1 0.155 0.175 0.20125c0.075 0.0463 0.16501 0.0775 0.2675 0.0925 0.1025 0.0163 0.21626 0.0237 0.34126 0.0237m-1.1625-3.3175c0.015-5e-3 0.0625-0.0187 0.14249-0.0425 0.08-0.0225 0.1825-0.0475 0.3075-0.0738 0.12376-0.025 0.26376-0.0475 0.41751-0.065 0.155-0.0188 0.315-0.0275 0.48-0.0275 0.45 0 0.79625 0.0963 1.0388 0.28625 0.2425 0.19125 0.365 0.51 0.365 0.95375v2.7662h-0.55126l-0.0613-0.255c-0.0312 0.02-0.08 0.05-0.1475 0.0888-0.0675 0.0387-0.14999 0.0775-0.2475 0.11625-0.0987 0.0387-0.21499 0.0725-0.34875 0.10125-0.13499 0.0275-0.28749 0.0425-0.45749 0.0425-0.16625 0-0.325-0.0187-0.47751-0.055-0.15249-0.035-0.28749-0.1-0.40625-0.19375-0.11874-0.0925-0.21499-0.21625-0.28624-0.37125-0.0725-0.155-0.10875-0.35375-0.10875-0.5975 0-0.47 0.12-0.80375 0.36124-1.0025 0.23875-0.2 0.60001-0.29875 1.08-0.29875 0.10875 0 0.21875 4e-3 0.33 0.0112 0.10999 8e-3 0.2125 0.0188 0.305 0.0312 0.0937 0.0125 0.17125 0.025 0.23249 0.035 0.0625 0.01 0.0987 0.015 0.10876 0.015v-0.3025c0-0.11875-0.0125-0.22375-0.0375-0.3175-0.0262-0.0925-0.075-0.1725-0.14376-0.24-0.07-0.0675-0.16749-0.1175-0.29124-0.15125-0.12375-0.0338-0.28625-0.05-0.48875-0.05-0.13375 0-0.26625 7e-3 -0.395 0.0225-0.12875 0.0163-0.24625 0.0338-0.35125 0.055-0.1075 0.02-0.19625 0.04-0.26875 0.0575-0.0725 0.0187-0.11875 0.03-0.13875 0.035l0.0388-0.57375zm-1.86 1.1941c0-0.2375-0.0487-0.425-0.14374-0.56125-0.095-0.1375-0.2825-0.20625-0.5625-0.20625-0.14375 0-0.27876 0.0138-0.4025 0.0388-0.12375 0.0263-0.23125 0.0562-0.32126 0.09-0.0913 0.0325-0.165 0.065-0.22125 0.0962-0.0562 0.0312-0.0925 0.0488-0.10874 0.0538v3.0925h-0.69v-5.6188h0.69v1.9062c0.0162-0.01 0.0575-0.03 0.12374-0.0612 0.0675-0.0312 0.15376-0.065 0.26001-0.10125 0.10625-0.0362 0.22875-0.0662 0.36874-0.0925 0.13876-0.0263 0.29126-0.0388 0.45626-0.0388 0.39875 0 0.70499 0.0937 0.91874 0.2825 0.21501 0.18875 0.32126 0.49 0.32126 0.9025v2.8212h-0.68876v-2.6038zm-4.2162-0.76725c-0.15999 0-0.3075 0.015-0.4425 0.0462-0.13375 0.0312-0.2475 0.0975-0.34375 0.1975-0.0962 0.10125-0.17124 0.245-0.22499 0.43-0.0538 0.18625-0.0813 0.435-0.0813 0.745s0.0263 0.5575 0.0775 0.74375 0.13249 0.3275 0.24 0.42625c0.10874 0.0975 0.245 0.1625 0.40749 0.19375 0.16251 0.0312 0.35126 0.0462 0.56876 0.0462 0.0838 0 0.17-5e-3 0.26375-0.015 0.0937-0.0113 0.17749-0.0213 0.25624-0.0312 0.0763-0.01 0.14251-0.0225 0.1975-0.035 0.0538-0.0125 0.0863-0.02 0.0975-0.02l-0.0625 0.5975c-0.0362 0.01-0.12876 0.0312-0.28001 0.0612-0.15 0.0312-0.38374 0.0475-0.705 0.0475-0.29874 0-0.56-0.0362-0.78249-0.10875-0.22125-0.0725-0.40751-0.18875-0.55376-0.34875-0.14749-0.16-0.25749-0.36875-0.32874-0.62375-0.0725-0.25625-0.10876-0.5675-0.10876-0.93375 0-0.3675 0.0362-0.67875 0.10876-0.935 0.0712-0.255 0.18125-0.46375 0.32874-0.6275 0.14625-0.1625 0.33375-0.28 0.56126-0.3525 0.2275-0.0725 0.49624-0.10875 0.80625-0.10875 0.15 0 0.28625 0.01 0.41 0.0275 0.125 0.0187 0.23125 0.0387 0.3225 0.0625 0.0913 0.0225 0.1625 0.045 0.21625 0.065 0.055 0.0213 0.09 0.0338 0.10624 0.0388l-0.14874 0.56625c-0.015-5e-3 -0.0487-0.0163-0.1-0.035-0.0513-0.0175-0.1175-0.0362-0.1975-0.0538-0.08-0.0187-0.1725-0.0337-0.28-0.0462-0.105-0.0137-0.215-0.02-0.32875-0.02m-5.2775 2.7745c0.025 5e-3 0.08 0.0125 0.1625 0.0238 0.0825 0.01 0.18125 0.0212 0.29499 0.035 0.11251 0.0125 0.23375 0.0237 0.36001 0.0337 0.12625 0.0113 0.24874 0.0163 0.3675 0.0163 0.34625 0 0.59375-0.0337 0.74-0.10125 0.1475-0.0663 0.22125-0.21375 0.22125-0.44125 0-0.19625-0.0563-0.33625-0.17-0.41875-0.11375-0.0825-0.3125-0.15-0.59751-0.20125l-0.45624-0.0937c-0.285-0.0512-0.51375-0.16875-0.68626-0.3525-0.17374-0.1825-0.25999-0.4375-0.25999-0.7625 0-0.34125 0.11875-0.6175 0.3525-0.83 0.235-0.21125 0.6175-0.3175 1.1437-0.3175 0.13875 0 0.27501 6e-3 0.40625 0.02 0.13251 0.0125 0.25126 0.0275 0.35626 0.0462 0.10625 0.0175 0.195 0.0362 0.26874 0.0538 0.0713 0.0187 0.11751 0.03 0.13875 0.035l-0.10124 0.5425c-0.025-5e-3 -0.075-0.0137-0.15125-0.0275-0.0738-0.0125-0.16375-0.025-0.26626-0.0387-0.10375-0.0125-0.21499-0.0238-0.33374-0.035-0.11875-0.01-0.23-0.015-0.33375-0.015-0.11876 0-0.2275 6e-3 -0.325 0.02-0.0987 0.0125-0.185 0.0388-0.25875 0.0775-0.0763 0.0388-0.13376 0.0925-0.175 0.1625-0.0412 0.07-0.0625 0.15875-0.0625 0.2675 0 0.0875 0.0113 0.1625 0.035 0.22375 0.0238 0.0625 0.0588 0.115 0.10875 0.16 0.0487 0.0438 0.11624 0.08 0.20125 0.1075 0.085 0.0287 0.19 0.0537 0.31375 0.0737l0.48875 0.10125c0.3925 0.0725 0.66374 0.2025 0.81375 0.39125 0.15 0.18875 0.22499 0.4375 0.22499 0.7475 0 0.41875-0.14124 0.72125-0.42249 0.9075-0.28251 0.185-0.66875 0.27875-1.1588 0.27875-0.175 0-0.33875-6e-3 -0.4875-0.02-0.15125-0.0125-0.28375-0.0275-0.40001-0.0462-0.11625-0.0175-0.21375-0.035-0.29125-0.05-0.0775-0.0163-0.12624-0.0263-0.14625-0.0312l0.085-0.5425zm-2.1389-2.7591v2.2712c0 0.0875 6e-3 0.16625 0.02 0.23625 0.0112 0.07 0.0375 0.13 0.0763 0.18125 0.0387 0.0525 0.0975 0.0913 0.17499 0.11625 0.0775 0.0263 0.1825 0.0388 0.3175 0.0388 0.0937 0 0.18126-4e-3 0.26751-0.0113 0.085-8e-3 0.16249-0.0175 0.23249-0.0312 0.07-0.0125 0.1275-0.0238 0.17376-0.035 0.0462-0.01 0.0775-0.0175 0.0937-0.0225l-0.0388 0.55c-0.0112 5e-3 -0.1025 0.0288-0.275 0.07-0.17374 0.0412-0.40999 0.0612-0.70999 0.0612-0.33 0-0.58251-0.0812-0.755-0.24375-0.17375-0.1625-0.26001-0.40375-0.26001-0.725v-2.4562h-0.56625v-0.5575h0.56625v-1.0312h0.6825v1.0312h1.2163v0.5575h-1.2163zm-2.6045 0.75187c0-0.2375-0.0475-0.425-0.14249-0.56125-0.0962-0.1375-0.28375-0.20625-0.5625-0.20625-0.145 0-0.27875 0.0138-0.40251 0.0388-0.12374 0.0263-0.23125 0.0562-0.32124 0.09-0.0913 0.0325-0.16501 0.065-0.22126 0.0962-0.0575 0.0312-0.0937 0.0488-0.10875 0.0538v3.0925h-0.69v-3.9138h0.565l0.04 0.2875c0.0312-0.0162 0.085-0.0462 0.1625-0.09s0.175-0.0863 0.29126-0.1275c0.11624-0.0412 0.2475-0.0788 0.39499-0.1125 0.1475-0.0338 0.30375-0.05 0.46875-0.05 0.3875 0 0.6875 0.0937 0.89875 0.2825 0.21126 0.18875 0.3175 0.49 0.3175 0.9025v2.8212h-0.69v-2.6038zm-5.0912 2.1234c0.10875 0 0.21501-9e-3 0.3175-0.0275 0.10375-0.0175 0.1975-0.04 0.28251-0.065 0.085-0.0263 0.15625-0.05 0.20999-0.07 0.0537-0.0213 0.0888-0.0362 0.10501-0.0462v-1.1325c-0.0113 0-0.0425-4e-3 -0.0975-0.0113-0.0537-8e-3 -0.12124-0.015-0.20124-0.0225-0.08-9e-3 -0.17-0.0163-0.27125-0.0237-0.10125-8e-3 -0.20501-0.0113-0.31376-0.0113-0.305 0-0.52749 0.05-0.66625 0.15125-0.13999 0.1-0.20999 0.3-0.20999 0.6 0 0.14 0.0212 0.25375 0.0625 0.34125 0.0412 0.0875 0.0987 0.155 0.17375 0.20125 0.075 0.0463 0.165 0.0775 0.26749 0.0925 0.10376 0.0163 0.21751 0.0237 0.34125 0.0237m-1.1625-3.3175c0.0162-5e-3 0.0637-0.0187 0.14375-0.0425 0.08-0.0225 0.18125-0.0475 0.30625-0.0738 0.12374-0.025 0.26375-0.0475 0.4175-0.065 0.15625-0.0188 0.31624-0.0275 0.48-0.0275 0.45125 0 0.79625 0.0963 1.04 0.28625 0.2425 0.19125 0.36374 0.51 0.36374 0.95375v2.7662h-0.54999l-0.0625-0.255c-0.0312 0.02-0.08 0.05-0.14625 0.0888-0.0675 0.0387-0.15 0.0775-0.24875 0.11625-0.0975 0.0387-0.21375 0.0725-0.34875 0.10125-0.13375 0.0275-0.28625 0.0425-0.4575 0.0425-0.165 0-0.32375-0.0187-0.47625-0.055-0.1525-0.035-0.2875-0.1-0.40625-0.19375-0.12-0.0925-0.21625-0.21625-0.2875-0.37125-0.0725-0.155-0.10875-0.35375-0.10875-0.5975 0-0.47 0.12-0.80375 0.36125-1.0025 0.23875-0.2 0.6-0.29875 1.0812-0.29875 0.1075 0 0.2175 4e-3 0.32875 0.0112 0.11125 8e-3 0.2125 0.0188 0.30625 0.0312 0.0925 0.0125 0.17 0.025 0.2325 0.035s0.0975 0.015 0.10875 0.015v-0.3025c0-0.11875-0.0138-0.22375-0.0387-0.3175-0.0263-0.0925-0.0738-0.1725-0.14375-0.24-0.07-0.0675-0.16625-0.1175-0.29-0.15125-0.125-0.0338-0.2875-0.05-0.49-0.05-0.13375 0-0.265 7e-3 -0.39375 0.0225-0.13 0.0163-0.2475 0.0338-0.3525 0.055-0.10625 0.02-0.195 0.04-0.2675 0.0575-0.0738 0.0187-0.11875 0.03-0.14 0.035l0.0388-0.57375zm-5.8669 0.17112c0.0412-0.0312 0.0975-0.0675 0.16625-0.10875 0.07-0.0412 0.15625-0.0825 0.25625-0.12375 0.10125-0.0412 0.215-0.0762 0.345-0.105 0.12875-0.0275 0.27125-0.0425 0.42625-0.0425 0.2475 0 0.45 0.0338 0.605 0.10125 0.155 0.0675 0.28375 0.1725 0.3875 0.3175 0.13875-0.10375 0.315-0.19875 0.52625-0.28625 0.2125-0.0888 0.4675-0.1325 0.7675-0.1325 0.3975 0 0.695 0.095 0.89125 0.28375 0.19625 0.1875 0.295 0.48875 0.295 0.9025v2.8212h-0.69v-2.605c0-0.11875-9e-3 -0.225-0.0238-0.32125-0.015-0.095-0.0462-0.175-0.0925-0.24-0.0462-0.065-0.11375-0.115-0.20125-0.15125-0.0888-0.0362-0.2025-0.0538-0.34125-0.0538-0.25375 0-0.4575 0.0338-0.6125 0.1-0.155 0.0675-0.27125 0.1275-0.34875 0.17875 5e-3 0.0412 9e-3 0.085 0.0113 0.13125 2e-3 0.0462 4e-3 0.0937 4e-3 0.14v2.8212h-0.68125v-2.605c0-0.11875-7e-3 -0.225-0.0238-0.32125-0.015-0.095-0.0475-0.175-0.0962-0.24-0.05-0.065-0.11875-0.115-0.20625-0.15125-0.0875-0.0362-0.20125-0.0538-0.34-0.0538-0.26375 0-0.475 0.0362-0.6325 0.1075-0.1575 0.0725-0.25875 0.1275-0.30625 0.16375v3.1h-0.6975v-3.9138h0.57375l0.0387 0.28625zm-4.1538 2.3172c0 0.2475 0.0462 0.4375 0.14 0.57 0.0925 0.13125 0.28125 0.1975 0.565 0.1975 0.145 0 0.27875-0.0125 0.40375-0.0387 0.12375-0.0263 0.23125-0.0562 0.32125-0.0888 0.09-0.0338 0.16375-0.065 0.22-0.0937 0.0575-0.0288 0.0937-0.0475 0.10875-0.0575v-3.0925h0.69v3.9138h-0.565l-0.0475-0.2875c-0.025 0.0163-0.0763 0.045-0.15 0.0863-0.075 0.0412-0.17125 0.0838-0.2875 0.1275-0.11625 0.0438-0.2475 0.0825-0.395 0.11625-0.1475 0.0338-0.30625 0.05-0.47625 0.05-0.3875 0-0.6875-0.095-0.9-0.28625-0.21125-0.19125-0.3175-0.50125-0.3175-0.93v-2.79h0.69v2.6038zm-2.1311 1.3098-1.7662-2.34 0.11624-0.5125c0.22125-0.015 0.42125-0.035 0.60001-0.0612 0.17749-0.0263 0.32874-0.0712 0.4525-0.13625 0.12374-0.0637 0.21999-0.1525 0.28749-0.26375 0.0675-0.11 0.1-0.25875 0.1-0.445 0-0.305-0.075-0.52375-0.225-0.655-0.14875-0.13125-0.42125-0.1975-0.81374-0.1975h-0.91375v4.6112h-0.72001v-5.2162h1.8125c0.56876 0 0.97501 0.12875 1.2212 0.38375 0.245 0.25625 0.3675 0.60875 0.3675 1.0588 0 0.2525-0.0425 0.4625-0.1275 0.6275s-0.1975 0.2975-0.33749 0.39875c-0.14 0.10125-0.29625 0.17875-0.46875 0.2325-0.17251 0.0537-0.34751 0.095-0.52375 0.12l1.83 2.395h-0.89125zm-7.2772-0.48062c0.10875 0 0.21375-9e-3 0.3175-0.0275 0.10375-0.0175 0.1975-0.04 0.28251-0.065 0.0863-0.0263 0.15499-0.05 0.20999-0.07 0.0537-0.0213 0.0888-0.0362 0.10501-0.0462v-1.1325c-0.0113 0-0.0437-4e-3 -0.0975-0.0113-0.0537-8e-3 -0.12124-0.015-0.20124-0.0225-0.08-9e-3 -0.17126-0.0163-0.27125-0.0237-0.10126-8e-3 -0.20501-0.0113-0.31376-0.0113-0.305 0-0.52749 0.05-0.66624 0.15125-0.14 0.1-0.21 0.3-0.21 0.6 0 0.14 0.0212 0.25375 0.0625 0.34125 0.0412 0.0875 0.0987 0.155 0.17375 0.20125 0.075 0.0463 0.16375 0.0775 0.26749 0.0925 0.10375 0.0163 0.21751 0.0237 0.34125 0.0237m-1.1625-3.3175c0.015-5e-3 0.0638-0.0187 0.14375-0.0425 0.08-0.0225 0.18126-0.0475 0.30626-0.0738 0.12374-0.025 0.2625-0.0475 0.41749-0.065 0.15501-0.0188 0.315-0.0275 0.48125-0.0275 0.44875 0 0.795 0.0963 1.0388 0.28625 0.24249 0.19125 0.36374 0.51 0.36374 0.95375v2.7662h-0.55l-0.0625-0.255c-0.0312 0.02-0.08 0.05-0.14749 0.0888-0.0663 0.0387-0.15 0.0775-0.2475 0.11625-0.0987 0.0387-0.21501 0.0725-0.34875 0.10125-0.135 0.0275-0.28751 0.0425-0.45751 0.0425-0.16499 0-0.32374-0.0187-0.47625-0.055-0.15249-0.035-0.28875-0.1-0.40749-0.19375-0.11876-0.0925-0.21375-0.21625-0.28625-0.37125s-0.10876-0.35375-0.10876-0.5975c0-0.47 0.12-0.80375 0.36-1.0025 0.24125-0.2 0.60125-0.29875 1.0812-0.29875 0.10875 0 0.21875 4e-3 0.33 0.0112 0.11125 8e-3 0.21251 0.0188 0.30626 0.0312 0.0925 0.0125 0.16999 0.025 0.23249 0.035 0.0613 0.01 0.0975 0.015 0.10875 0.015v-0.3025c0-0.11875-0.0137-0.22375-0.0387-0.3175-0.0262-0.0925-0.0737-0.1725-0.14374-0.24-0.07-0.0675-0.16626-0.1175-0.29126-0.15125-0.12375-0.0338-0.28625-0.05-0.48749-0.05-0.135 0-0.26626 7e-3 -0.39501 0.0225-0.13 0.0163-0.2475 0.0338-0.35375 0.055-0.10499 0.02-0.195 0.04-0.26624 0.0575-0.0725 0.0187-0.12 0.03-0.14001 0.035l0.0387-0.57375zm-0.7595 0.49662c-0.0262-0.01-0.0762-0.025-0.15124-0.0425-0.075-0.0187-0.1775-0.0275-0.30626-0.0275-0.11874 0-0.22999 0.015-0.33249 0.0425-0.10375 0.0288-0.19626 0.06-0.27625 0.0937-0.08 0.0338-0.145 0.0663-0.1975 0.1-0.0512 0.0338-0.0825 0.0562-0.0925 0.0662v3.0688h-0.69v-3.9138h0.56626l0.0387 0.34875c0.0362-0.0362 0.0875-0.0788 0.15499-0.1275 0.0663-0.0488 0.14501-0.095 0.23626-0.14 0.09-0.0438 0.18874-0.0812 0.29499-0.1125 0.105-0.03 0.21501-0.0463 0.32875-0.0463 0.16001 0 0.28501 0.01 0.37626 0.0312 0.09 0.0213 0.14749 0.0363 0.17374 0.0463l-0.12375 0.6125zm-5.9598-0.61225h2.96l0.0625 0.5275-2.2938 2.8288h2.395l-0.0863 0.5575h-3.115v-0.5275l2.3012-2.8288h-2.2238v-0.5575zm-1.6125-3.7e-4h0.68999v3.9138h-0.68999zm-0.0388-1.48h0.76751v0.775h-0.76751zm-1.2935 1.4804h0.71251l-1.4525 3.9138h-0.76l-1.4688-3.9138h0.76l1.1125 3.1388zm-6.5564 3.224c0.0362 0.01 0.10875 0.0263 0.2175 0.0462 0.1075 0.0213 0.23 0.04 0.3675 0.0588 0.1375 0.0175 0.27875 0.035 0.42625 0.05s0.275 0.0237 0.38375 0.0237c0.2325 0 0.4275-0.0137 0.585-0.0387 0.1575-0.0263 0.285-0.0725 0.38375-0.14 0.0975-0.0675 0.16875-0.15625 0.2125-0.2675 0.045-0.11125 0.0662-0.24875 0.0662-0.415 0-0.14375-0.0175-0.26375-0.0537-0.36-0.0362-0.095-0.0925-0.175-0.16625-0.24-0.075-0.065-0.16875-0.1175-0.28-0.15875-0.11125-0.0412-0.24125-0.0775-0.39125-0.10875l-0.59625-0.14c-0.3875-0.0875-0.6825-0.25-0.88375-0.4875s-0.3025-0.56375-0.3025-0.97625c0-0.46 0.14125-0.82375 0.4225-1.09 0.28125-0.265 0.7325-0.39875 1.3525-0.39875 0.165 0 0.3275 0.01 0.48875 0.0275 0.16 0.0175 0.30375 0.0387 0.43375 0.0625 0.12875 0.0225 0.23875 0.0462 0.32875 0.0688 0.0913 0.0237 0.15125 0.04 0.1825 0.0512l-0.10125 0.58125c-0.025-5e-3 -0.0825-0.0175-0.17-0.035-0.0875-0.0188-0.1925-0.0362-0.31375-0.055-0.12125-0.0175-0.2575-0.035-0.4075-0.05s-0.29875-0.0237-0.44875-0.0237c-0.15 0-0.29 0.0112-0.41875 0.0312-0.12875 0.0213-0.24125 0.0612-0.3375 0.12-0.095 0.06-0.17 0.1425-0.225 0.24875-0.0537 0.105-0.0813 0.24375-0.0813 0.41375 0 0.26875 0.0688 0.4625 0.20625 0.58125 0.13625 0.12 0.33125 0.2075 0.585 0.26375l0.65875 0.1475c0.465 0.10875 0.79 0.285 0.97625 0.53125 0.18625 0.245 0.27875 0.56125 0.27875 0.94875 0 0.27875-0.0438 0.515-0.13125 0.70875-0.0888 0.195-0.2125 0.3525-0.3725 0.47375s-0.355 0.21-0.585 0.2675c-0.23 0.0562-0.48375 0.085-0.76375 0.085-0.2325 0-0.44625-0.0113-0.6425-0.0312-0.19625-0.0213-0.3675-0.0438-0.51125-0.07-0.145-0.025-0.26-0.0487-0.345-0.07-0.0863-0.02-0.13375-0.0325-0.14375-0.0388l0.11625-0.59625zm48.901-8.7892c0-0.2375-0.0475-0.425-0.14375-0.56125-0.095-0.1375-0.2825-0.20625-0.56126-0.20625-0.145 0-0.27874 0.0138-0.40374 0.0388-0.12376 0.0263-0.23126 0.0562-0.32125 0.0888-0.09 0.0337-0.16375 0.0662-0.22001 0.0975-0.0575 0.0312-0.0937 0.0488-0.10999 0.0538v3.0925h-0.68876v-3.9138h0.565l0.04 0.2875c0.03-0.0162 0.0838-0.0462 0.16249-0.09 0.0775-0.0438 0.17375-0.0863 0.29-0.1275s0.24875-0.0788 0.395-0.1125c0.14875-0.0338 0.30376-0.05 0.46875-0.05 0.38751 0 0.6875 0.0937 0.90001 0.2825 0.21125 0.18875 0.3175 0.49 0.3175 0.9025v2.8212h-0.69v-2.6038zm-5.9831 1.2942c0 0.2475 0.0475 0.4375 0.14 0.57 0.0925 0.13125 0.28125 0.1975 0.565 0.1975 0.145 0 0.28-0.0125 0.40375-0.0387 0.12375-0.0263 0.23125-0.0562 0.32125-0.0888 0.09-0.0338 0.16375-0.065 0.22125-0.0937 0.0562-0.0288 0.0925-0.0475 0.10875-0.0575v-3.0925h0.69v3.9138h-0.56625l-0.0463-0.2875c-0.0262 0.0163-0.0775 0.045-0.15125 0.0863-0.075 0.0412-0.17125 0.0838-0.2875 0.1275-0.11625 0.0438-0.2475 0.0825-0.395 0.11625-0.14625 0.0338-0.305 0.05-0.47625 0.05-0.3875 0-0.6875-0.095-0.9-0.28625-0.21125-0.19125-0.3175-0.50125-0.3175-0.93v-2.79h0.69v2.6038zm-2.4796-2.6044h0.68876v3.9138h-0.68876zm-0.0387-1.48h0.76626v0.775h-0.76626zm-3.6272 4.7974c0.0263 5e-3 0.08 0.0125 0.16251 0.0238 0.0837 0.01 0.18124 0.0212 0.295 0.0337 0.11375 0.0137 0.23375 0.025 0.36125 0.035 0.125 0.0113 0.24874 0.0163 0.3675 0.0163 0.34499 0 0.59249-0.0337 0.74-0.10125 0.1475-0.0663 0.21999-0.21375 0.21999-0.44125 0-0.19625-0.0563-0.33625-0.16874-0.41875-0.11375-0.0825-0.31376-0.15-0.59751-0.20125l-0.45749-0.0937c-0.28501-0.051201-0.5125-0.16875-0.68626-0.3525-0.17249-0.1825-0.25874-0.4375-0.25874-0.7625 0-0.34125 0.1175-0.6175 0.35125-0.83 0.23624-0.21125 0.6175-0.3175 1.1438-0.3175 0.13999 0 0.27499 6e-3 0.40749 0.02 0.13125 0.0125 0.25 0.0275 0.35625 0.0462 0.10626 0.0175 0.195 0.0362 0.26751 0.0538 0.0712 0.0187 0.11874 0.03 0.13999 0.035l-0.10124 0.5425c-0.0263-5e-3 -0.0763-0.0137-0.15125-0.0275-0.075-0.0125-0.16501-0.025-0.2675-0.0387-0.10376-0.0125-0.21501-0.0238-0.33375-0.035-0.11876-0.01-0.22875-0.015-0.3325-0.015-0.12 0-0.2275 6e-3 -0.32625 0.02-0.0975 0.0125-0.18376 0.0375-0.25876 0.0763-0.075 0.0387-0.13375 0.0937-0.175 0.16375-0.0412 0.0688-0.0612 0.15875-0.0612 0.2675 0 0.0875 0.0112 0.1625 0.0337 0.22375 0.0238 0.0625 0.06 0.115 0.11 0.16 0.0487 0.0438 0.11499 0.08 0.2 0.1075 0.0863 0.0287 0.19 0.0537 0.31374 0.0737l0.48875 0.10125c0.39375 0.0725 0.66376 0.2025 0.81375 0.39125 0.15 0.18875 0.22501 0.4375 0.22501 0.7475 0 0.41875-0.14001 0.72125-0.42251 0.9075-0.28125 0.185-0.6675 0.27875-1.1588 0.27875-0.175 0-0.33875-6e-3 -0.4875-0.02-0.14999-0.0125-0.28375-0.0275-0.39875-0.0462-0.1175-0.0175-0.21375-0.035-0.29125-0.05-0.0775-0.0163-0.1275-0.0263-0.14749-0.0312l0.085-0.5425zm-1.6115-3.3174h0.69v3.9138h-0.69zm-0.0387-1.48h0.76749v0.775h-0.76749zm-1.2941 1.4804h0.7125l-1.4525 3.9138h-0.76l-1.4688-3.9138h0.76l1.1112 3.1388zm-5.0375 0.47263c-0.17125 0-0.3175 0.0213-0.4375 0.0625-0.1225 0.0412-0.22125 0.11-0.29875 0.205s-0.1375 0.22-0.17875 0.3725c-0.0412 0.1525-0.065 0.33875-0.07 0.56125h1.9375c0-0.2275-0.0175-0.41875-0.0537-0.57375s-0.0925-0.27875-0.17125-0.37125c-0.0775-0.0937-0.175-0.15875-0.29375-0.1975-0.11875-0.0388-0.2625-0.0588-0.43375-0.0588m1.4112 3.3638c-0.0275 0.01-0.075 0.025-0.14875 0.0425-0.0725 0.0175-0.16625 0.0362-0.2825 0.0538-0.11625 0.0187-0.2475 0.035-0.395 0.0512-0.1475 0.015-0.30625 0.0225-0.4775 0.0225-0.30375 0-0.56875-0.0362-0.79375-0.10875-0.225-0.0713-0.4125-0.18875-0.5625-0.3525-0.14875-0.1625-0.26125-0.3725-0.33625-0.63125s-0.1125-0.57625-0.1125-0.95375c0-0.7125 0.1425-1.2325 0.42625-1.5612 0.28375-0.3275 0.7075-0.4925 1.2712-0.4925 0.5475 0 0.95875 0.145 1.2362 0.435 0.27625 0.28875 0.41375 0.775 0.41375 1.4562v0.42625h-2.635c0.0163 0.24375 0.0525 0.44 0.10875 0.58875 0.0575 0.15 0.13875 0.2675 0.245 0.35375 0.105 0.085 0.23625 0.1425 0.39 0.17375 0.155 0.0312 0.33375 0.0462 0.53625 0.0462 0.12375 0 0.25-6e-3 0.37875-0.0188 0.12875-0.0137 0.24875-0.0287 0.36-0.0462 0.1125-0.0187 0.2075-0.035 0.2875-0.0512 0.08-0.015 0.1275-0.025 0.1425-0.0312l-0.0525 0.5975zm-4.6584-5.5418h0.68999v5.6188h-0.68999zm-2.4799 2.178c-0.17 0-0.31625 0.0213-0.4375 0.0625-0.1225 0.0412-0.22125 0.11-0.29875 0.205s-0.1375 0.22-0.17875 0.3725c-0.0412 0.1525-0.065 0.33875-0.0688 0.56125h1.9375c0-0.2275-0.0187-0.41875-0.055-0.57375-0.0362-0.155-0.0925-0.27875-0.17-0.37125-0.0775-0.0937-0.17625-0.15875-0.295-0.1975-0.11875-0.0388-0.26375-0.0588-0.43375-0.0588m1.41 3.3638c-0.025 0.01-0.075 0.025-0.1475 0.0425-0.0713 0.0175-0.16625 0.0362-0.2825 0.0538-0.11625 0.0187-0.2475 0.035-0.395 0.0512-0.1475 0.015-0.30625 0.0225-0.47625 0.0225-0.30625 0-0.57-0.0362-0.795-0.10875-0.225-0.0713-0.41125-0.18875-0.5625-0.3525-0.14875-0.1625-0.26125-0.3725-0.33625-0.63125s-0.1125-0.57625-0.1125-0.95375c0-0.7125 0.14125-1.2325 0.42625-1.5612 0.28375-0.3275 0.7075-0.4925 1.2712-0.4925 0.5475 0 0.96 0.145 1.2362 0.435 0.27625 0.28875 0.41375 0.775 0.41375 1.4562v0.42625h-2.6338c0.015 0.24375 0.0513 0.44 0.1075 0.58875 0.0575 0.15 0.13875 0.2675 0.245 0.35375 0.105 0.085 0.23625 0.1425 0.39 0.17375 0.15625 0.0312 0.33375 0.0462 0.53625 0.0462 0.12375 0 0.25-6e-3 0.37875-0.0188 0.13-0.0137 0.25-0.0287 0.36125-0.0462 0.11125-0.0187 0.205-0.035 0.28625-0.0512 0.08-0.015 0.1275-0.025 0.14375-0.0312l-0.055 0.5975zm-4.9288-3.2785v2.2712c0 0.0875 6e-3 0.16625 0.02 0.23625 0.0125 0.0688 0.0387 0.13 0.0775 0.18125 0.0387 0.0525 0.0962 0.0913 0.17375 0.11625 0.0775 0.0263 0.18375 0.0388 0.3175 0.0388 0.0937 0 0.1825-4e-3 0.2675-0.0113 0.0863-8e-3 0.16375-0.0175 0.2325-0.0312 0.07-0.0125 0.12875-0.0238 0.17375-0.035 0.0475-0.01 0.0788-0.0175 0.0937-0.0225l-0.0387 0.55c-0.01 5e-3 -0.10125 0.0288-0.275 0.07-0.1725 0.0412-0.40875 0.0612-0.70875 0.0612-0.33125 0-0.5825-0.0812-0.75625-0.24375-0.17375-0.1625-0.26-0.40375-0.26-0.725v-2.4562h-0.565v-0.5575h0.565v-1.0312h0.6825v1.0312h1.2175v0.5575zm-4.4406 1.4028c0 0.28375 0.0188 0.52125 0.0588 0.70875 0.0375 0.18875 0.1 0.33875 0.185 0.45 0.0863 0.11125 0.19375 0.19 0.32625 0.23625 0.13125 0.0462 0.28999 0.07 0.47625 0.07 0.18125 0 0.33875-0.0238 0.47249-0.07 0.13501-0.0462 0.24376-0.125 0.33001-0.23625 0.085-0.11125 0.14875-0.26125 0.19-0.45 0.0413-0.1875 0.0613-0.425 0.0613-0.70875s-0.02-0.52-0.0613-0.70875c-0.0412-0.18875-0.105-0.34-0.19-0.45375-0.0863-0.11375-0.19501-0.1925-0.33001-0.23625-0.13375-0.0437-0.29124-0.0662-0.4725-0.0662-0.18625 0-0.34499 0.0225-0.47625 0.0662-0.1325 0.0438-0.23999 0.1225-0.32624 0.23625-0.085 0.11375-0.14751 0.265-0.185 0.45375-0.04 0.18875-0.0588 0.425-0.0588 0.70875m-0.72125 0c0-0.3875 0.04-0.71125 0.12-0.9725s0.1975-0.47125 0.34875-0.63125c0.15251-0.16 0.33875-0.275 0.55876-0.345 0.21999-0.07 0.46625-0.105 0.73999-0.105 0.27375 0 0.51875 0.035 0.73626 0.105 0.21749 0.07 0.40125 0.185 0.55374 0.345 0.15251 0.16 0.26876 0.37 0.34875 0.63125 0.0813 0.26125 0.12126 0.585 0.12126 0.9725 0 0.3825-0.04 0.70375-0.12126 0.965-0.08 0.26125-0.19624 0.47125-0.34875 0.63125-0.15249 0.16-0.33625 0.275-0.55374 0.345-0.21751 0.07-0.46251 0.105-0.73626 0.105-0.27374 0-0.52-0.035-0.73999-0.105-0.22001-0.07-0.40625-0.185-0.55876-0.345-0.15125-0.16-0.26875-0.37-0.34875-0.63125s-0.12-0.5825-0.12-0.965m-1.6032-1.961h0.69v3.9138h-0.69zm-0.0387-1.48h0.7675v0.775h-0.7675zm-1.7674 2.0848c-0.015-5e-3 -0.10625-0.0225-0.27125-0.05-0.165-0.0288-0.35875-0.0425-0.58125-0.0425-0.18625 0-0.34625 0.0225-0.48 0.0688-0.135 0.0475-0.245 0.1275-0.33 0.24125s-0.14875 0.2625-0.19 0.44875c-0.0413 0.18625-0.0613 0.42125-0.0613 0.705 0 0.28 0.02 0.51125 0.0613 0.69375 0.0412 0.18375 0.105 0.33 0.19 0.43875 0.085 0.1075 0.1925 0.18375 0.32125 0.22875 0.13 0.0437 0.285 0.065 0.465 0.065 0.11375 0 0.22125-0.01 0.3225-0.0312 0.1-0.02 0.19-0.0438 0.2675-0.0688 0.0775-0.0263 0.14-0.0512 0.18875-0.0738 0.05-0.0237 0.0825-0.04 0.0975-0.0512v-2.5725zm0.0613 3.0538c-0.02 0.015-0.06 0.0425-0.12 0.0812-0.0588 0.0388-0.135 0.0775-0.2275 0.11625-0.0937 0.0388-0.20125 0.0738-0.3225 0.105-0.12125 0.03-0.25375 0.0462-0.39875 0.0462-0.5225 0-0.92375-0.16125-1.205-0.485-0.2825-0.3225-0.4225-0.8375-0.4225-1.5462 0-0.7125 0.14625-1.2362 0.4375-1.5688 0.2925-0.33375 0.7325-0.5 1.3212-0.5 0.10375 0 0.20625 6e-3 0.30625 0.02 0.10125 0.0125 0.19125 0.0263 0.27125 0.0425 0.08 0.015 0.1475 0.0288 0.20125 0.0425 0.055 0.0125 0.0875 0.0213 0.0975 0.0263v-1.7438h0.69v5.6188h-0.56625l-0.0625-0.255zm-5.1685-0.225c0.10875 0 0.215-9e-3 0.3175-0.0275 0.10375-0.0175 0.1975-0.04 0.28375-0.065 0.085-0.0263 0.15375-0.05 0.20875-0.07 0.0537-0.0213 0.0887-0.0362 0.105-0.0462v-1.1325c-0.0112 0-0.0425-4e-3 -0.0975-0.0113-0.0538-8e-3 -0.12125-0.015-0.20125-0.0225-0.08-9e-3 -0.17-0.0163-0.27125-0.0237-0.10125-8e-3 -0.205-0.0113-0.31375-0.0113-0.305 0-0.5275 0.05-0.66625 0.15-0.14 0.10125-0.21 0.30125-0.21 0.60125 0 0.14 0.0213 0.25375 0.0625 0.34125s0.0987 0.155 0.17375 0.20125c0.075 0.0463 0.165 0.0775 0.2675 0.0925 0.10375 0.0163 0.2175 0.0237 0.34125 0.0237m-1.1625-3.3175c0.015-5e-3 0.0637-0.0187 0.14375-0.0425 0.08-0.0225 0.18125-0.0475 0.30625-0.0738 0.12375-0.025 0.2625-0.0475 0.4175-0.065 0.155-0.0188 0.31625-0.0275 0.48125-0.0275 0.44875 0 0.795 0.0963 1.0388 0.28625 0.2425 0.19125 0.36375 0.51 0.36375 0.95375v2.7662h-0.55l-0.0625-0.255c-0.0312 0.02-0.08 0.05-0.1475 0.0888-0.0662 0.0387-0.14875 0.0775-0.2475 0.11625-0.0987 0.0387-0.215 0.0725-0.34875 0.10125-0.135 0.0275-0.28625 0.0425-0.4575 0.0425-0.165 0-0.32375-0.0187-0.47625-0.055-0.1525-0.0362-0.28875-0.1-0.4075-0.19375-0.11875-0.0925-0.21375-0.21625-0.28625-0.37125s-0.10875-0.35375-0.10875-0.5975c0-0.47 0.12-0.80375 0.36125-1.0038 0.24-0.19875 0.6-0.2975 1.08-0.2975 0.10875 0 0.21875 4e-3 0.33 0.0112 0.11125 8e-3 0.2125 0.0188 0.30625 0.0312 0.0925 0.0125 0.17 0.025 0.2325 0.035 0.0612 0.01 0.0975 0.015 0.10875 0.015v-0.3025c0-0.11875-0.0138-0.22375-0.0387-0.3175-0.0263-0.0925-0.0738-0.1725-0.14375-0.24-0.07-0.0675-0.16625-0.1175-0.29125-0.15125-0.12375-0.0338-0.28625-0.05-0.4875-0.05-0.135 0-0.26625 7e-3 -0.395 0.0225-0.13 0.0163-0.2475 0.0338-0.3525 0.055-0.10625 0.02-0.19625 0.04-0.2675 0.0575-0.0725 0.0187-0.11875 0.03-0.14 0.035l0.0387-0.57375zm-1.5809 3.798-1.7675-2.34 0.11624-0.5125c0.22251-0.015 0.42251-0.035 0.60125-0.0613 0.17876-0.0262 0.32875-0.0712 0.45375-0.13625 0.12375-0.0638 0.21875-0.1525 0.28625-0.2625 0.0675-0.11125 0.10125-0.26 0.10125-0.44625 0-0.305-0.075-0.5225-0.22499-0.655-0.15001-0.13125-0.42126-0.1975-0.81376-0.1975h-0.91499v4.6112h-0.72v-5.2162h1.8125c0.56875 0 0.97624 0.12875 1.2212 0.38375 0.245 0.25625 0.3675 0.60875 0.3675 1.0588 0 0.2525-0.0425 0.4625-0.1275 0.6275s-0.1975 0.2975-0.33751 0.39875c-0.13874 0.10125-0.29499 0.17875-0.46875 0.2325-0.17249 0.0538-0.34749 0.095-0.5225 0.12l1.8288 2.395h-0.89126z" fill="#333"/>
</svg>
