<svg version="1.1" viewBox="0 0 800 210.73" xmlns="http://www.w3.org/2000/svg">
	<path d="m65.475 75.929-1.1004 1.1004c-7.1524 8.8033-12.655 18.707-15.956 29.711-1.1004-1.1004-1.6506-2.2008-2.751-3.3012-7.1527-7.1524-17.607-12.105-28.611-12.105-9.3535 0-17.056-7.7029-17.056-17.057 0-9.3532 7.703-17.056 17.056-17.056 15.406 0 29.161 4.4016 41.266 12.654 2.2008 2.2008 4.9516 4.4016 7.1524 6.0525z" fill="#ffc107" stroke-width="5.4557"/>
	<path d="m143.05 62.173c3.8517 3.3018 6.0525 7.7034 6.0525 12.655 0 9.3538-7.1529 16.506-16.506 17.057h-0.55048c-21.458 0-39.065 16.506-40.715 37.964v2.7508 57.772c0 9.3538-7.7029 17.057-17.057 17.057-1.1004 0-2.2008 0-3.3012-0.55047 1.1004 0 2.2008 0.55047 3.3012 0.55047 4.9516 0 8.8033-1.6509 12.105-4.9521 0.55048-0.54993 0.55048-0.54993 1.1004-1.1004 2.2008-2.7507 3.8517-6.6025 3.8517-11.004v-58.322c0.54993-22.009 18.707-40.165 40.715-40.165h0.55048c9.3532 0 16.506-7.7029 16.506-17.057 0-4.9516-2.2008-9.3532-6.0525-12.655z" fill="#fff" stroke-width="5.4557"/>
	<path d="m149.11 74.828c0 9.3538-7.1529 16.506-16.506 17.057h-0.55048c-21.458 0-39.065 16.506-40.715 37.964v2.7508 57.772c0 9.3538-7.7029 17.057-17.057 17.057-1.1004 0-2.2008 0-3.3012-0.54993-0.54993 0-1.1004 0-1.6503-0.55048-0.55048 0-0.55048 0-1.1004-0.54993-0.55048 0-0.55048 0-1.1004-0.55047-0.55048 0-0.55048-0.54994-1.1004-0.54994-0.55048 0-0.55048-0.55047-1.1004-0.55047-4.4016-3.3012-7.7029-8.2534-7.7029-13.755v-57.772-2.7508c0.54993-17.057 7.1524-32.462 17.056-44.567 3.3012-3.8517 6.6025-7.1529 10.454-10.454 12.654-10.454 29.161-16.506 46.768-16.506 1.1004 0 2.2008 0 3.3012 0.55048 1.1004 0 1.6503 0.54993 2.7508 1.1004 0.55048 0 1.1004 0.54993 1.6509 0.54993 0.54994 0 1.1004 0.55048 1.6504 1.1004 0.55047 0.55048 1.1004 0.55048 1.6509 1.1004 4.4016 2.7513 6.6025 7.1529 6.6025 12.105z" fill="#283593" stroke-width="5.4557"/>
	<path d="m189.82 206.88c-4.4016 0-8.8038-1.6509-12.105-4.9521l-57.772-57.221c-4.9516-4.9521-6.052-12.105-3.8512-18.707 2.7508-6.0525 8.8033-10.454 15.406-10.454 22.559 0 40.715-18.157 40.715-40.715 0-22.559-18.157-40.716-40.715-40.716-9.3538 0-17.057-7.7029-17.057-17.056 0-9.3535 7.7029-17.056 17.057-17.056 41.266 0 74.278 33.563 74.278 74.278 0 29.161-17.056 54.471-41.266 66.575l36.314 36.314c6.6025 6.6025 6.6025 17.607 0 24.209-2.2008 3.8512-6.6025 5.5021-11.004 5.5021z" fill="#283593" stroke-width="5.4557"/>
	<path d="m74.277 55.571c10.332 0 18.708-8.3755 18.708-18.707s-8.3756-18.707-18.708-18.707c-10.331 0-18.707 8.3754-18.707 18.707s8.3756 18.707 18.707 18.707z" fill="#ffc107" stroke-width="5.4557"/>
	<path d="m289.41 15.956c-6.052 0-13.205 3.8515-14.855 7.1527v-4.4016h-7.1529v53.92h7.1529v-33.013c0-7.7029 4.4016-16.506 13.205-16.506 5.502 0 7.1524 1.6506 8.2528 2.751l3.8517-6.6025c-3.8517-2.751-6.6025-3.3013-10.454-3.3013z" fill="#283593" stroke-width="5.4557"/>
	<path d="m348.83 25.31c-3.8512-5.5021-9.9037-9.3535-21.458-9.3535-5.502 0-14.305 1.6507-20.908 6.6025l3.8517 5.5021c2.7508-2.2009 9.3532-5.5021 18.157-5.5021 15.406 0 16.507 10.454 17.607 17.607-3.3012-0.5502-11.005-1.6506-19.257-1.6506-16.506 0-23.109 8.8033-23.109 17.607 0 11.554 9.3532 18.707 22.008 18.707 9.9037 0 18.707-4.9521 21.458-9.9037v7.1524h7.1524v-21.458c-0.54993-9.9038-1.1004-19.257-5.502-25.31zm-3.3012 31.362c-2.2008 4.9521-8.2528 11.555-20.358 11.555-9.9037 0-14.305-5.5021-14.305-12.105 0-6.6026 6.6025-10.454 14.305-10.454 8.8038 0 20.908 1.1005 20.908 1.1005 0.54993 6.0523 0.54993 8.2532-0.55048 9.9036z" fill="#283593" stroke-width="5.4557"/>
	<path d="m412.1 0.55043v23.109c-2.7513-3.3012-9.9037-7.7029-18.707-7.7029-17.057 0-28.611 12.655-28.611 29.711 0 17.607 13.205 30.261 28.611 30.261 9.3532 0 15.956-4.4016 18.707-8.2528v5.5021h7.153v-72.628zm0 54.471c-1.6509 7.7029-10.454 13.205-19.257 13.205-13.755 0-20.908-12.655-20.908-22.558 0-11.004 7.1529-22.559 20.908-22.559 9.9037 0 16.506 6.6025 19.257 12.655z" fill="#283593" stroke-width="5.4557"/>
	<path d="m434.11 18.707v53.92h7.1524v-53.92zm0-18.157v8.8033h7.1524v-8.8033z" fill="#283593" stroke-width="5.4557"/>
	<path d="m482.53 15.956c-16.506 0-29.712 13.205-29.712 29.711 0 16.506 13.205 29.711 29.712 29.711 16.506 0 29.711-13.205 29.711-29.711 0-16.506-12.655-29.711-29.711-29.711zm0 52.27c-12.655 0-22.559-9.9037-22.559-22.559 0-12.655 9.9037-22.559 22.559-22.559 12.654 0 22.558 9.9038 22.558 22.559 0 12.655-9.9037 22.559-22.558 22.559z" fill="#283593" stroke-width="5.4557"/>
	<path d="m321.87 170.01c8.8033-6.052 14.855-15.956 14.855-26.96 0-18.157-14.855-33.013-34.113-33.013h-34.663v97.387h23.659v-31.362h9.3532l17.057 31.362h25.86zm-22.009-13.755h-8.8033v-22.559h9.9037c8.8033 0 12.105 5.502 12.105 10.454-0.54993 6.6025-4.4016 12.105-13.205 12.105z" fill="#283593" stroke-width="5.4557"/>
	<path d="m385.15 130.4c-22.559 0-40.165 17.607-40.165 40.165 0 22.009 17.607 40.165 40.165 40.165 22.008 0 40.165-17.607 40.165-40.165 0-22.008-17.607-40.165-40.165-40.165zm0 57.222c-8.8033 0-16.506-7.7029-16.506-17.057 0-9.3532 7.7029-17.056 16.506-17.056s16.506 7.7029 16.506 17.056c0 9.3538-7.153 17.057-16.506 17.057z" fill="#283593" stroke-width="5.4557"/>
	<path d="m487.48 110.04v29.161c-2.7513-4.4016-9.9037-8.2528-18.707-8.2528-20.908 0-35.214 17.607-35.214 39.615 0 23.659 15.956 40.165 34.663 40.165 11.004 0 15.406-4.4016 18.707-9.3538v5.5021h23.659v-96.837zm-14.305 79.23c-9.9037 0-15.406-9.3532-15.406-18.157 0-9.9037 5.5021-18.156 15.406-18.156 8.8033 0 14.855 7.1524 14.855 18.156-0.54994 11.555-7.7029 18.157-14.855 18.157z" fill="#283593" stroke-width="5.4557"/>
	<path d="m591.47 134.25h-68.226v19.808h34.112l-34.112 35.764v17.056h68.226v-20.358h-34.665l34.665-35.763z" fill="#283593" stroke-width="5.4557"/>
	<path d="m603.03 134.25v73.178h23.656v-73.178z" fill="#283593" stroke-width="5.4557"/>
	<path d="m685.01 130.4c-7.7035 0-15.952 3.8517-18.708 8.2534v-4.9521h-23.656v73.178h23.656v-36.314c0-11.554 4.9538-18.157 13.759-18.157 11.004 0 12.652 8.2528 12.652 18.157v36.314h23.661v-36.864c0.55103-28.061-9.9075-39.615-31.365-39.615z" fill="#283593" stroke-width="5.4557"/>
	<path d="m793.4 143.6c-7.1524-10.454-18.156-13.205-32.461-13.205-7.1524 0-20.912 2.7513-29.712 8.2534l8.249 17.607c3.8517-2.2008 11.004-6.052 21.463-5.502 8.249 0 12.652 4.4016 13.754 9.3538-4.4027-1.1004-9.3565-1.6509-15.407-1.6509-22.008 0-31.359 13.755-31.359 25.86 0 1.6503 0.54557 10.454 6.6014 17.057 5.4993 6.052 12.652 8.8033 22.559 8.8033 6.0504 0 16.503-3.8517 19.253-11.004v7.1524h23.661v-29.161c0-13.755-0.55102-25.309-6.6014-33.562zm-32.461 47.318c-5.5048 0-8.8055-2.7513-9.3565-7.7029 0-6.6025 7.1524-7.7029 11.004-7.7029 7.7034 0 13.754 1.1004 13.754 1.1004 0 8.8033-7.698 14.305-15.401 14.305z" fill="#283593" stroke-width="5.4557"/>
	<path d="m633.84 102.89c0 10.454-8.249 18.708-18.708 18.708-10.453 0-18.702-8.2534-18.702-18.708 0-10.454 8.249-18.707 18.702-18.707 10.459 0 18.708 8.2534 18.708 18.707z" fill="#ffc107" stroke-width="5.4557"/>
</svg>
