<svg version="1.1" viewBox="0 0 741.5 267.35" xmlns="http://www.w3.org/2000/svg">
 <g transform="translate(-18.798 -255.83)" fill="none" stroke="#8e8e8d" stroke-width="2">
  <path d="m309.56 308.35a160.37 121.68-30.4 0 0-199.9-23.798 160.37 121.68-30.4 0 0-76.747 186.1 160.37 121.68-30.4 0 0 199.9 23.798 160.37 121.68-30.4 0 0 76.747-186.1" vector-effect="non-scaling-stroke"/>
  <path d="m759.23 339.28a39.57 38.39-3.5 0 0-41.84-35.903 39.57 38.39-3.5 0 0-37.152 40.734 39.57 38.39-3.5 0 0 41.84 35.903 39.57 38.39-3.5 0 0 37.152-40.734" vector-effect="non-scaling-stroke"/>
  <path d="m516.48 365.25a0.38 0.38 0 0 1 0.35 0.23l5.48 12.79a0.38 0.38 0 0 0 0.35 0.23h22.95a0.38 0.38 0 0 0 0.35-0.54l-33.35-73.24a0.38 0.38 0 0 0-0.34-0.22h-20.91a0.38 0.38 0 0 0-0.34 0.22l-33.23 73.24a0.38 0.38 0 0 0 0.35 0.54h22.42a0.38 0.38 0 0 0 0.35-0.23l5.41-12.79a0.38 0.38 0 0 1 0.35-0.23h29.81" vector-effect="non-scaling-stroke"/>
  <path d="m397.5 356.25h12.46q0.4 0 0.64 0.34l15.01 21.57q0.24 0.34 0.64 0.34h23.96a0.25 0.25 0 0 0 0.2-0.39l-17.75-24.76q-0.3-0.42 0.17-0.65c6.56-3.2 11.34-7.03 13.87-14.2 3.47-9.79 0.43-22.74-9.01-28.45-6.97-4.22-13.82-4.96-22.83-5.01q-19.4-0.12-38.88-0.01-0.48 0.01-0.48 0.49v72.48q0 0.5 0.5 0.5h20.5q0.5 0 0.5-0.5v-21.25q0-0.5 0.5-0.5" vector-effect="non-scaling-stroke"/>
  <path d="m555.24 305.27v72.78a0.3 0.3 0 0 0 0.3 0.3h37.52a39.46 35 0 0 0 39.46-35v-3.38a39.46 35 0 0 0-39.46-35h-37.52a0.3 0.3 0 0 0-0.3 0.3" vector-effect="non-scaling-stroke"/>
  <path d="m666.26 305.35a0.35 0.35 0 0 0-0.35-0.35h-19.56a0.35 0.35 0 0 0-0.35 0.35v72.8a0.35 0.35 0 0 0 0.35 0.35h19.56a0.35 0.35 0 0 0 0.35-0.35v-72.8" vector-effect="non-scaling-stroke"/>
  <path d="m513.57 446.92c-12.76-5.87-13.8-26.37-2.68-34.36 8.74-6.27 19-2.71 25.11 5.11q0.34 0.43 0.77 0.1l14.62-11.36q0.41-0.31 0.11-0.73c-13.9-19.83-44.94-19.62-60.08-2.05-13.93 16.18-12.02 42.02 4.87 55.43 17.06 13.53 43.27 10.11 55.85-8.35q0.2-0.3-0.09-0.51l-14.55-10.4a0.9 0.89-54.1 0 0-1.25 0.21c-5.08 7.03-14.44 10.7-22.68 6.91" vector-effect="non-scaling-stroke"/>
  <path d="m759.23 426.58a39.57 38.38-3.4 0 0-41.776-35.966 39.57 38.38-3.4 0 0-37.224 40.659 39.57 38.38-3.4 0 0 41.776 35.966 39.57 38.38-3.4 0 0 37.224-40.659" vector-effect="non-scaling-stroke"/>
  <path d="m414.75 410.59a0.34 0.34 0 0 1 0.34-0.34h21.07a0.34 0.34 0 0 0 0.34-0.34v-17.32a0.34 0.34 0 0 0-0.34-0.34h-63.32a0.34 0.34 0 0 0-0.34 0.34v17.32a0.34 0.34 0 0 0 0.34 0.34h21.07a0.34 0.34 0 0 1 0.34 0.34v54.82a0.34 0.34 0 0 0 0.34 0.34h19.82a0.34 0.34 0 0 0 0.34-0.34v-54.82" vector-effect="non-scaling-stroke"/>
  <path d="m469.75 392.53a0.28 0.28 0 0 0-0.28-0.28h-19.94a0.28 0.28 0 0 0-0.28 0.28v72.94a0.28 0.28 0 0 0 0.28 0.28h19.94a0.28 0.28 0 0 0 0.28-0.28v-72.94" vector-effect="non-scaling-stroke"/>
  <path d="m583.49 392.55a0.3 0.3 0 0 0-0.3-0.3h-19.64a0.3 0.3 0 0 0-0.3 0.3v72.9a0.3 0.3 0 0 0 0.3 0.3h19.64a0.3 0.3 0 0 0 0.3-0.3v-72.9" vector-effect="non-scaling-stroke"/>
  <path d="m650.25 429.64a0.27 0.27 0 0 1-0.48 0.16l-28.71-37.05q-0.39-0.5-1.03-0.5h-18.03q-0.5 0-0.5 0.5v72.5q0 0.5 0.5 0.5h19.25q0.5 0 0.5-0.5v-38.67q0-0.78 0.48-0.17l30.27 38.94q0.32 0.4 0.83 0.4h16.67q0.5 0 0.5-0.5v-72.5q0-0.5-0.5-0.5h-19.5a0.25 0.25 0 0 0-0.25 0.25v37.14" vector-effect="non-scaling-stroke"/>
  <path d="m270.39 353.2 5.41-15.13a2.11 2.11 0 0 0-1.99-2.82h-41.82a2.5 2.5 0 0 0-2.36 1.67l-5.79 16.37q-0.17 0.46-0.66 0.46h-26.14a0.23 0.23 0 0 1-0.22-0.3c4.52-14.35 13.1-29.01 28.68-33.43 16.69-4.75 37.78-2.45 53.78 3.18q5.02 1.77 0.42-0.92-20.92-12.23-45.02-17.22c-18.22-3.78-42.57-1.57-58.37 9.24-13.03 8.93-21.22 24.01-25.49 38.85a0.84 0.83 7.7 0 1-0.81 0.61c-13.36-0.03-29.78-0.98-41.19 1.05q-24.7 4.4-38.76 26.72-5.46 8.66-7.62 15.71-5.44 17.72-10.73 34.96a1.58 1.58 0 0 0 1.51 2.05h41.51q0.87 0 1.16-0.83 7.06-20.04 14.26-40.06c6.6-18.37 15.84-25.55 35.41-27.47a0.3 0.29-83.6 0 1 0.31 0.39l-23.08 67.41a0.43 0.42 9.2 0 0 0.41 0.56h44.87a0.81 0.79 9 0 0 0.76-0.54l22.91-66.53q0.15-0.43 0.6-0.43h26.15a0.23 0.23 0 0 1 0.22 0.31q-9.67 27.71-19.61 55.39c-5.18 14.45-16.26 26.48-32.09 28.74-16.07 2.31-33.01-0.55-47.9-6.41q-1.9-0.75-0.19 0.36c15.27 9.92 35.21 18.74 53.43 20.79q16.98 1.91 34.13-3.21c20.46-6.11 32.03-19.7 38.89-39.31q9.82-28.04 19.78-56.24a0.63 0.62-80 0 1 0.59-0.42h16.07q0.58 0 0.79-0.53l4.77-11.87q0.24-0.6-0.4-0.6h-16.19q-0.59 0-0.39-0.55" vector-effect="non-scaling-stroke"/>
  <path d="m720.66 361.4a19.73 18.53 87.2 0 0 17.544-20.612 19.73 18.53 87.2 0 0-19.472-18.801 19.73 18.53 87.2 0 0-17.544 20.612 19.73 18.53 87.2 0 0 19.472 18.801" vector-effect="non-scaling-stroke"/>
  <path d="m493.19 348.76a0.34 0.34 0 0 0 0.31 0.48l16.21 0.02a0.34 0.34 0 0 0 0.32-0.47l-8.07-19.03a0.34 0.34 0 0 0-0.63 0l-8.14 19" vector-effect="non-scaling-stroke"/>
  <path d="m397 323.15v16.44a0.41 0.41 0 0 0 0.41 0.41h19.28a9.81 8.38 0 0 0 9.81-8.38v-0.5a9.81 8.38 0 0 0-9.81-8.38h-19.28a0.41 0.41 0 0 0-0.41 0.41" vector-effect="non-scaling-stroke"/>
  <path d="m576.81 323.34-0.12 36.56a0.28 0.28 0 0 0 0.28 0.28l14.46 0.05a19.06 17.35 0.2 0 0 19.12-17.28v-2.42a19.06 17.35 0.2 0 0-19-17.42l-14.46-0.05a0.28 0.28 0 0 0-0.28 0.28" vector-effect="non-scaling-stroke"/>
  <path d="m720.66 448.62a19.73 18.53 87.2 0 0 17.544-20.612 19.73 18.53 87.2 0 0-19.472-18.801 19.73 18.53 87.2 0 0-17.544 20.612 19.73 18.53 87.2 0 0 19.472 18.801" vector-effect="non-scaling-stroke"/>
 </g>
 <path d="m290.76 52.521a121.68 160.37 59.6 0 1-76.747 186.1 121.68 160.37 59.6 0 1-199.9-23.798 121.68 160.37 59.6 0 1 76.747-186.1 121.68 160.37 59.6 0 1 199.9 23.798zm-39.171 44.853 5.41-15.13a2.11 2.11 0 0 0-1.99-2.82h-41.82a2.5 2.5 0 0 0-2.36 1.67l-5.79 16.37q-0.17 0.46-0.66 0.46h-26.14a0.23 0.23 0 0 1-0.22-0.3c4.52-14.35 13.1-29.01 28.68-33.43 16.69-4.75 37.78-2.45 53.78 3.18q5.02 1.77 0.42-0.92-20.92-12.23-45.02-17.22c-18.22-3.78-42.57-1.57-58.37 9.24-13.03 8.93-21.22 24.01-25.49 38.85a0.84 0.83 7.7 0 1-0.81 0.61c-13.36-0.03-29.78-0.98-41.19 1.05q-24.7 4.4-38.76 26.72-5.46 8.66-7.62 15.71-5.44 17.72-10.73 34.96a1.58 1.58 0 0 0 1.51 2.05h41.51q0.87 0 1.16-0.83 7.06-20.04 14.26-40.06c6.6-18.37 15.84-25.55 35.41-27.47a0.29 0.3 6.4 0 1 0.31 0.39l-23.08 67.41a0.43 0.42 9.2 0 0 0.41 0.56h44.87a0.81 0.79 9 0 0 0.76-0.54l22.91-66.53q0.15-0.43 0.6-0.43h26.15a0.23 0.23 0 0 1 0.22 0.31q-9.67 27.71-19.61 55.39c-5.18 14.45-16.26 26.48-32.09 28.74-16.07 2.31-33.01-0.55-47.9-6.41q-1.9-0.75-0.19 0.36c15.27 9.92 35.21 18.74 53.43 20.79q16.98 1.91 34.13-3.21c20.46-6.11 32.03-19.7 38.89-39.31q9.82-28.04 19.78-56.24a0.62 0.63 10 0 1 0.59-0.42h16.07q0.58 0 0.79-0.53l4.77-11.87q0.24-0.6-0.4-0.6h-16.19q-0.59 0-0.39-0.55z" fill="#1d1d1b"/>
 <path d="m251.98 97.923h16.19q0.64 0 0.4 0.6l-4.77 11.87q-0.21 0.53-0.79 0.53h-16.07a0.62 0.63 10 0 0-0.59 0.42q-9.96 28.2-19.78 56.24c-6.86 19.61-18.43 33.2-38.89 39.31q-17.15 5.12-34.13 3.21c-18.22-2.05-38.16-10.87-53.43-20.79q-1.71-1.11 0.19-0.36c14.89 5.86 31.83 8.72 47.9 6.41 15.83-2.26 26.91-14.29 32.09-28.74q9.94-27.68 19.61-55.39a0.23 0.23 0 0 0-0.22-0.31h-26.15q-0.45 0-0.6 0.43l-22.91 66.53a0.81 0.79 9 0 1-0.76 0.54h-44.87a0.43 0.42 9.2 0 1-0.41-0.56l23.08-67.41a0.29 0.3 6.4 0 0-0.31-0.39c-19.57 1.92-28.81 9.1-35.41 27.47q-7.2 20.02-14.26 40.06-0.29 0.83-1.16 0.83h-41.51a1.58 1.58 0 0 1-1.51-2.05q5.29-17.24 10.73-34.96 2.16-7.05 7.62-15.71 14.06-22.32 38.76-26.72c11.41-2.03 27.83-1.08 41.19-1.05a0.84 0.83 7.7 0 0 0.81-0.61c4.27-14.84 12.46-29.92 25.49-38.85 15.8-10.81 40.15-13.02 58.37-9.24q24.1 4.99 45.02 17.22 4.6 2.69-0.42 0.92c-16-5.63-37.09-7.93-53.78-3.18-15.58 4.42-24.16 19.08-28.68 33.43a0.23 0.23 0 0 0 0.22 0.3h26.14q0.49 0 0.66-0.46l5.79-16.37a2.5 2.5 0 0 1 2.36-1.67h41.82a2.11 2.11 0 0 1 1.99 2.82l-5.41 15.13q-0.2 0.55 0.39 0.55z" fill="#fff"/>
 <path d="m740.43 83.458a38.39 39.57 86.5 0 1-37.152 40.734 38.39 39.57 86.5 0 1-41.84-35.903 38.39 39.57 86.5 0 1 37.152-40.734 38.39 39.57 86.5 0 1 41.84 35.903zm-38.562 22.112a19.73 18.53 87.2 0 0 17.544-20.612 19.73 18.53 87.2 0 0-19.472-18.801 19.73 18.53 87.2 0 0-17.544 20.612 19.73 18.53 87.2 0 0 19.472 18.801z" fill="#1d1d1b"/>
 <path d="m497.68 109.42h-29.81a0.38 0.38 0 0 0-0.35 0.23l-5.41 12.79a0.38 0.38 0 0 1-0.35 0.23h-22.42a0.38 0.38 0 0 1-0.35-0.54l33.23-73.24a0.38 0.38 0 0 1 0.34-0.22h20.91a0.38 0.38 0 0 1 0.34 0.22l33.35 73.24a0.38 0.38 0 0 1-0.35 0.54h-22.95a0.38 0.38 0 0 1-0.35-0.23l-5.48-12.79a0.38 0.38 0 0 0-0.35-0.23zm-23.29-16.49a0.34 0.34 0 0 0 0.31 0.48l16.21 0.02a0.34 0.34 0 0 0 0.32-0.47l-8.07-19.03a0.34 0.34 0 0 0-0.63 0z" fill="#1d1d1b"/>
 <path d="m378.2 100.92v21.25q0 0.5-0.5 0.5h-20.5q-0.5 0-0.5-0.5v-72.48q0-0.48 0.48-0.49 19.48-0.11 38.88 0.01c9.01 0.05 15.86 0.79 22.83 5.01 9.44 5.71 12.48 18.66 9.01 28.45-2.53 7.17-7.31 11-13.87 14.2q-0.47 0.23-0.17 0.65l17.75 24.76a0.25 0.25 0 0 1-0.2 0.39h-23.96q-0.4 0-0.64-0.34l-15.01-21.57q-0.24-0.34-0.64-0.34h-12.46q-0.5 0-0.5 0.5zm0-33.6v16.44a0.41 0.41 0 0 0 0.41 0.41h19.28a9.81 8.38 0 0 0 9.81-8.38v-0.5a9.81 8.38 0 0 0-9.81-8.38h-19.28a0.41 0.41 0 0 0-0.41 0.41z" fill="#1d1d1b"/>
 <path d="m536.44 49.443a0.3 0.3 0 0 1 0.3-0.3h37.52a39.46 35 0 0 1 39.46 35v3.38a39.46 35 0 0 1-39.46 35h-37.52a0.3 0.3 0 0 1-0.3-0.3zm21.57 18.07-0.12 36.56a0.28 0.28 0 0 0 0.28 0.28l14.46 0.05a19.06 17.35 0.2 0 0 19.12-17.28v-2.42a19.06 17.35 0.2 0 0-19-17.42l-14.46-0.05a0.28 0.28 0 0 0-0.28 0.28z" fill="#1d1d1b"/>
 <rect x="627.2" y="49.173" width="20.26" height="73.5" rx=".35" fill="#1d1d1b"/>
 <ellipse transform="rotate(87.2)" cx="120" cy="-695.87" rx="19.73" ry="18.53" fill="#fff"/>
 <path d="m378.2 67.323a0.41 0.41 0 0 1 0.41-0.41h19.28a9.81 8.38 0 0 1 9.81 8.38v0.5a9.81 8.38 0 0 1-9.81 8.38h-19.28a0.41 0.41 0 0 1-0.41-0.41z" fill="#fff"/>
 <path d="m558.01 67.513a0.28 0.28 0 0 1 0.28-0.28l14.46 0.05a19.06 17.35 0.2 0 1 19 17.42v2.42a19.06 17.35 0.2 0 1-19.12 17.28l-14.46-0.05a0.28 0.28 0 0 1-0.28-0.28z" fill="#fff"/>
 <path d="m474.39 92.933 8.14-19a0.34 0.34 0 0 1 0.63 0l8.07 19.03a0.34 0.34 0 0 1-0.32 0.47l-16.21-0.02a0.34 0.34 0 0 1-0.31-0.48z" fill="#fff"/>
 <path d="m494.77 191.09c8.24 3.79 17.6 0.12 22.68-6.91a0.89 0.9 35.9 0 1 1.25-0.21l14.55 10.4q0.29 0.21 0.09 0.51c-12.58 18.46-38.79 21.88-55.85 8.35-16.89-13.41-18.8-39.25-4.87-55.43 15.14-17.57 46.18-17.78 60.08 2.05q0.3 0.42-0.11 0.73l-14.62 11.36q-0.43 0.33-0.77-0.1c-6.11-7.82-16.37-11.38-25.11-5.11-11.12 7.99-10.08 28.49 2.68 34.36z" fill="#1d1d1b"/>
 <path d="m740.43 170.76a38.38 39.57 86.6 0 1-37.224 40.659 38.38 39.57 86.6 0 1-41.776-35.966 38.38 39.57 86.6 0 1 37.224-40.659 38.38 39.57 86.6 0 1 41.776 35.966zm-38.566 22.033a19.73 18.53 87.2 0 0 17.544-20.612 19.73 18.53 87.2 0 0-19.472-18.801 19.73 18.53 87.2 0 0-17.544 20.612 19.73 18.53 87.2 0 0 19.472 18.801z" fill="#1d1d1b"/>
 <path d="m395.95 154.76v54.82a0.34 0.34 0 0 1-0.34 0.34h-19.82a0.34 0.34 0 0 1-0.34-0.34v-54.82a0.34 0.34 0 0 0-0.34-0.34h-21.07a0.34 0.34 0 0 1-0.34-0.34v-17.32a0.34 0.34 0 0 1 0.34-0.34h63.32a0.34 0.34 0 0 1 0.34 0.34v17.32a0.34 0.34 0 0 1-0.34 0.34h-21.07a0.34 0.34 0 0 0-0.34 0.34z" fill="#1d1d1b"/>
 <rect x="430.45" y="136.42" width="20.5" height="73.5" rx=".28" fill="#1d1d1b"/>
 <rect x="544.45" y="136.42" width="20.24" height="73.5" rx=".3" fill="#1d1d1b"/>
 <path d="m631.45 173.81v-37.14a0.25 0.25 0 0 1 0.25-0.25h19.5q0.5 0 0.5 0.5v72.5q0 0.5-0.5 0.5h-16.67q-0.51 0-0.83-0.4l-30.27-38.94q-0.48-0.61-0.48 0.17v38.67q0 0.5-0.5 0.5h-19.25q-0.5 0-0.5-0.5v-72.5q0-0.5 0.5-0.5h18.03q0.64 0 1.03 0.5l28.71 37.05a0.27 0.27 0 0 0 0.48-0.16z" fill="#1d1d1b"/>
 <ellipse transform="rotate(87.2)" cx="207.12" cy="-691.61" rx="19.73" ry="18.53" fill="#fff"/>
</svg>
