<svg enable-background="new 0 0 141.057 141.058" version="1.1" viewBox="0 0 411.47 141.06" xml:space="preserve" xmlns="http://www.w3.org/2000/svg"><defs><mask id="b" fill="#ffffff"><polygon points="114 102 0 102 0 1.7e-4 114 1.7e-4"/></mask><mask id="a" fill="#ffffff"><polygon points="114 102 -4.2537e-5 102 -4.2537e-5 0 114 0"/></mask></defs>
<path d="m0 0h141.06v141.06h-141.06z" fill="#e2001a"/>
<g fill="#fff">
	<path d="m23.922 66.707h-0.311v-15.061h-5.985v71.784h5.985v-40.974c0-13.107 6.492-25.77 19.612-26.575v-5.36c-10.092 0.541-16.426 7.131-19.301 16.186"/>
	<path d="m88.623 51.663h34.791v71.768h-34.791zm34.791-10.561h-34.791v-23.477h34.791z"/>
	<path d="m62.566 44.047c0-9.532 1.377-16.708 12.563-16.708 0.881 0 1.809 0.042 2.701 0.129v-10.364c-1.443-0.154-2.967-0.262-4.633-0.262-19.189 0-23.61 11.183-23.61 28.301v78.287h12.979v-61.298h15.264v-10.494h-15.264z"/>
</g>
<g transform="matrix(.98039 0 0 .98039 161.47 20.529)" fill="none" fill-rule="evenodd"><mask fill="#ffffff"><polygon points="114 1.7e-4 114 102 0 102 0 1.7e-4"/></mask><path d="m74.866 51.011c0-24.398 16.593-44.921 39.104-50.929l0.0302-0.08245h-44.148l-16.185 60.35-16.185-60.35h-37.483l37.158 102h39.685l7.5636-20.763c-6.0097-8.5565-9.5403-18.978-9.5403-30.226" fill="#3b79b7" mask="url(#b)"/><path d="m127.49 26c-14.075 0-25.494 11.419-25.494 25.506 0 14.083 11.419 25.494 25.494 25.494 14.085 0 25.506-11.412 25.506-25.494 0-14.086-11.421-25.506-25.506-25.506" fill="#3b79b7" Googl="true"/><g transform="translate(141)"><mask fill="#ffffff"><polygon points="114 0 114 102 -4.2537e-5 102 -4.2537e-5 0"/></mask><path d="m39.134 50.989c0 24.398-16.593 44.921-39.104 50.929l-0.030201 0.0825h44.148l16.185-60.35 16.185 60.35h37.483l-37.158-102h-39.684l-7.564 20.763c6.0097 8.5565 9.5403 18.978 9.5403 30.226" fill="#3b79b7" mask="url(#a)"/></g></g></svg>
