<?xml version="1.0" encoding="UTF-8" standalone="no"?>
<svg xmlns:rdf="http://www.w3.org/1999/02/22-rdf-syntax-ns#" xmlns="http://www.w3.org/2000/svg" height="600" width="600" version="1.1" xmlns:cc="http://creativecommons.org/ns#" xmlns:dc="http://purl.org/dc/elements/1.1/" viewBox="0 0 158.74998 158.75001">
 <g transform="translate(-154.97 -253.82)">
  <path d="m154.97 412.57h158.75v-158.75h-158.75z" fill="#f01f73"/>
  <g fill="#fff">
   <path d="m207.29 406.82h54.11v-18.64l-54.11-0.01zm43.67-13.37c0-0.27 0.09-0.37 0.36-0.37h3.06c2.12 0 3.08 0.96 3.08 2.68 0 1.33-0.75 1.94-1.43 2.37l2.01 3.32c0.22 0.34-0.01 0.47-0.2 0.47h-1.51c-0.33 0-0.43-0.1-0.57-0.33l-1.63-2.94c-0.1-0.17-0.14-0.28-0.14-0.41 0-0.06 0.01-0.14 0.05-0.31l0.14-0.57c0.12-0.53 0.26-0.35 0.66-0.51 0.31-0.14 0.63-0.36 0.63-1.06 0-0.77-0.4-1.08-1.22-1.07h-1.31v6.83c0 0.27-0.08 0.37-0.35 0.37h-1.27c-0.27 0-0.36-0.1-0.36-0.37zm-4.4 4.95-1.01-0.26c-1.34-0.34-2.1-1.18-2.11-2.6 0-1.57 1.1-2.56 3.37-2.56 1.11 0 2 0.07 2.39 0.13 0.18 0.03 0.28 0.11 0.25 0.32l-0.17 1.03c-0.05 0.3-0.15 0.34-0.5 0.31-0.34-0.03-1.21-0.1-2.06-0.1-0.64 0-1.29 0.14-1.29 0.86 0 0.51 0.31 0.73 1 0.91l1.02 0.26c1.81 0.46 2.33 1.36 2.33 2.55 0 2.03-1.59 2.75-3.78 2.75-0.97 0-1.97-0.07-2.38-0.12-0.18-0.03-0.27-0.12-0.24-0.32l0.16-1.06c0.06-0.3 0.15-0.34 0.51-0.32 0.34 0.03 1.35 0.12 1.93 0.12 1.26 0 1.78-0.14 1.78-0.91 0-0.52-0.36-0.77-1.2-0.99zm-7.1 0-1.01-0.26c-1.34-0.34-2.11-1.18-2.11-2.6 0-1.56 1.1-2.56 3.37-2.56 1.11 0 1.99 0.07 2.39 0.13 0.18 0.02 0.27 0.11 0.24 0.32l-0.16 1.03c-0.05 0.3-0.15 0.34-0.51 0.31-0.34-0.03-1.21-0.1-2.06-0.1-0.63 0-1.29 0.14-1.29 0.86 0 0.51 0.32 0.72 1.01 0.91l1.01 0.26c1.81 0.46 2.34 1.36 2.34 2.55 0 2.04-1.6 2.75-3.78 2.75-0.98 0-1.98-0.07-2.38-0.12-0.18-0.03-0.27-0.12-0.25-0.32l0.17-1.06c0.05-0.3 0.15-0.34 0.5-0.32 0.35 0.03 1.35 0.12 1.93 0.12 1.27 0 1.79-0.14 1.78-0.91 0-0.52-0.35-0.77-1.19-0.99zm-9.06-5.42c1.41 0 2.03 0.09 2.13 0.1 0.29 0.03 0.34 0.15 0.3 0.43l-0.16 0.99c-0.06 0.3-0.16 0.34-0.51 0.31-0.4-0.03-1.1-0.07-1.62-0.07-1.73 0-2.53 0.54-2.53 2.64 0 1.67 0.48 2.88 2.35 2.88 0.32 0 0.59-0.02 0.67-0.03v-1.93h-0.64c-0.28 0-0.36-0.09-0.36-0.37v-0.94c0-0.28 0.08-0.38 0.36-0.38h2.25c0.27 0 0.36 0.1 0.36 0.37v4.42c0 0.3-0.09 0.41-0.38 0.48-0.28 0.07-0.85 0.13-2.34 0.13-3.35 0-4.42-1.92-4.42-4.63 0-2.73 1.31-4.4 4.54-4.4zm-11.89 0.1h3.07c2.12 0 3.07 0.96 3.07 2.68 0 1.33-0.75 1.94-1.42 2.37l2 3.32c0.22 0.34-0.01 0.47-0.21 0.47h-1.49c-0.33 0-0.44-0.1-0.58-0.33l-1.64-2.94c-0.1-0.17-0.13-0.28-0.13-0.41 0-0.06 0.01-0.14 0.05-0.31l0.14-0.58c0.12-0.52 0.26-0.34 0.66-0.5 0.32-0.14 0.63-0.36 0.63-1.06 0-0.77-0.4-1.07-1.22-1.07h-1.31v6.82c0 0.28-0.08 0.38-0.35 0.38h-1.27c-0.27 0-0.36-0.1-0.36-0.38v-8.09c0-0.27 0.08-0.37 0.36-0.37zm-4.76 5.32-1.01-0.26c-1.33-0.34-2.1-1.18-2.1-2.6 0-1.56 1.1-2.56 3.37-2.56 1.11 0 1.98 0.07 2.39 0.13 0.17 0.03 0.27 0.11 0.24 0.32l-0.16 1.03c-0.06 0.3-0.16 0.34-0.51 0.31-0.34-0.03-1.21-0.1-2.07-0.1-0.63 0-1.29 0.14-1.29 0.86 0.01 0.51 0.32 0.73 1.01 0.91l1.02 0.26c1.81 0.46 2.33 1.36 2.33 2.55 0 2.04-1.59 2.75-3.78 2.75-0.97 0-1.98-0.07-2.37-0.12-0.18-0.03-0.28-0.12-0.25-0.32l0.16-1.06c0.06-0.3 0.15-0.34 0.51-0.32 0.34 0.03 1.35 0.12 1.92 0.12 1.27 0 1.79-0.14 1.79-0.91 0-0.52-0.36-0.77-1.2-0.99"/>
   <path d="m185.18 266.81c0.39-0.16 0.74-0.39 1.06-0.67 0.31-0.29 0.56-0.64 0.75-1.07s0.29-0.95 0.29-1.57c0-1.21-0.35-2.17-1.05-2.88s-1.82-1.07-3.37-1.07h-5.04v13.69h2.48v-11.61h2.1c0.88 0 1.49 0.15 1.83 0.46s0.51 0.81 0.51 1.49c0 0.4-0.07 0.74-0.21 1-0.13 0.27-0.33 0.48-0.59 0.63-0.25 0.16-0.57 0.27-0.95 0.34s-0.81 0.11-1.28 0.12l-0.41 1.75 4.09 5.82h2.94l-4.38-6.06c0.42-0.08 0.83-0.21 1.23-0.37"/>
   <path d="m194.17 259.55-4.88 13.69h2.44l1.18-3.46h4.85l1.19 3.46h2.56l-4.87-13.69zm-0.57 8.22 1.77-5.31 1.76 5.31h-3.53"/>
   <path d="m212.09 260.96c-0.56-0.52-1.23-0.88-2.01-1.09-0.79-0.21-1.66-0.32-2.61-0.32h-4.41v13.69h4.41c0.95 0 1.82-0.11 2.61-0.32 0.78-0.21 1.45-0.57 2.01-1.1 0.56-0.52 0.99-1.22 1.3-2.1s0.47-1.99 0.47-3.34c0-1.34-0.16-2.45-0.47-3.32-0.31-0.88-0.74-1.57-1.3-2.1zm-1.14 7.86c-0.18 0.63-0.43 1.11-0.76 1.46-0.33 0.34-0.73 0.57-1.19 0.69-0.46 0.11-0.98 0.17-1.55 0.17h-1.89v-9.5h1.89c0.57 0 1.09 0.06 1.55 0.18 0.46 0.11 0.86 0.34 1.19 0.68s0.58 0.82 0.76 1.44c0.18 0.63 0.27 1.44 0.27 2.44 0 1.01-0.09 1.82-0.27 2.44"/>
   <path d="m216 273.24h2.5v-13.69h-2.5z"/>
   <path d="m231.03 260.81c-0.51-0.55-1.13-0.95-1.87-1.19-0.74-0.23-1.58-0.35-2.53-0.35-0.94 0-1.77 0.12-2.5 0.35-0.74 0.24-1.36 0.64-1.88 1.19-0.51 0.56-0.9 1.29-1.18 2.2-0.27 0.91-0.4 2.03-0.4 3.37 0 1.35 0.13 2.47 0.4 3.39 0.26 0.91 0.65 1.65 1.15 2.22 0.51 0.56 1.14 0.96 1.88 1.2 0.73 0.23 1.58 0.35 2.53 0.35s1.79-0.12 2.54-0.35c0.74-0.24 1.37-0.64 1.87-1.2 0.5-0.57 0.88-1.31 1.15-2.22 0.26-0.92 0.39-2.04 0.39-3.39 0-1.34-0.13-2.46-0.39-3.37-0.27-0.91-0.65-1.64-1.16-2.2zm-1.28 8.04c-0.13 0.66-0.33 1.18-0.6 1.57s-0.62 0.66-1.03 0.82c-0.41 0.17-0.91 0.25-1.49 0.25-0.59 0-1.09-0.08-1.5-0.25-0.41-0.16-0.75-0.43-1.02-0.82-0.28-0.39-0.48-0.91-0.61-1.57-0.12-0.65-0.19-1.48-0.19-2.47s0.07-1.81 0.19-2.46c0.13-0.65 0.33-1.17 0.61-1.55 0.27-0.39 0.61-0.66 1.02-0.82 0.41-0.15 0.91-0.23 1.5-0.23 0.58 0 1.08 0.08 1.49 0.23 0.41 0.16 0.76 0.43 1.03 0.82 0.27 0.38 0.47 0.9 0.6 1.55s0.19 1.47 0.19 2.46-0.06 1.82-0.19 2.47"/>
   <path d="m244.03 265.41-1.64-0.37c-0.56-0.13-0.99-0.33-1.31-0.6-0.31-0.26-0.46-0.69-0.46-1.29 0-0.37 0.06-0.67 0.18-0.9 0.12-0.24 0.29-0.43 0.5-0.56 0.21-0.14 0.46-0.23 0.75-0.28s0.61-0.07 0.95-0.07c0.39 0 0.78 0.02 1.16 0.05 0.37 0.03 0.73 0.08 1.05 0.12 0.33 0.05 0.61 0.1 0.86 0.16 0.24 0.05 0.42 0.09 0.55 0.12l0.34-1.95c-0.08-0.03-0.25-0.08-0.5-0.15-0.25-0.06-0.55-0.13-0.91-0.19s-0.76-0.11-1.2-0.16-0.9-0.07-1.37-0.07c-1.68 0-2.91 0.36-3.66 1.07-0.76 0.72-1.14 1.7-1.14 2.93 0 1.1 0.27 1.97 0.8 2.61 0.54 0.65 1.33 1.09 2.39 1.34l1.52 0.36c0.67 0.15 1.17 0.35 1.52 0.6s0.52 0.7 0.52 1.33c0 0.37-0.05 0.68-0.15 0.93-0.11 0.25-0.27 0.45-0.49 0.59-0.23 0.14-0.52 0.24-0.88 0.31-0.36 0.06-0.79 0.09-1.31 0.09-0.32 0-0.69-0.02-1.09-0.06s-0.78-0.1-1.15-0.16c-0.36-0.06-0.69-0.12-0.97-0.17-0.29-0.05-0.48-0.1-0.57-0.12l-0.41 2.01c0.04 0.02 0.19 0.05 0.43 0.11s0.56 0.13 0.97 0.21c0.4 0.07 0.86 0.14 1.4 0.2 0.53 0.06 1.11 0.09 1.72 0.09 0.76 0 1.44-0.07 2.06-0.22s1.15-0.39 1.59-0.72c0.44-0.34 0.78-0.77 1.02-1.3 0.25-0.52 0.37-1.16 0.37-1.91 0-1.04-0.25-1.89-0.76-2.55s-1.4-1.13-2.68-1.43"/>
   <path d="m260.65 269.96-2.43-10.41h-2.46l-2.45 10.41-2.15-10.41h-2.73l3.46 13.69h2.58l2.45-10.11 2.39 10.11h2.58l3.56-13.69h-2.58l-2.22 10.41"/>
   <path d="m267.03 273.24h2.5v-13.69h-2.5z"/>
   <path d="m277.48 265.41-1.65-0.37c-0.56-0.13-0.99-0.33-1.3-0.6-0.31-0.26-0.47-0.69-0.47-1.29 0-0.37 0.06-0.67 0.18-0.9 0.13-0.24 0.29-0.43 0.5-0.56 0.21-0.14 0.46-0.23 0.75-0.28s0.61-0.07 0.95-0.07c0.39 0 0.78 0.02 1.16 0.05s0.73 0.08 1.06 0.12c0.32 0.05 0.61 0.1 0.85 0.16 0.24 0.05 0.43 0.09 0.55 0.12l0.35-1.95c-0.09-0.03-0.25-0.08-0.5-0.15-0.25-0.06-0.56-0.13-0.92-0.19s-0.76-0.11-1.2-0.16-0.9-0.07-1.37-0.07c-1.68 0-2.9 0.36-3.66 1.07-0.76 0.72-1.14 1.7-1.14 2.93 0 1.1 0.27 1.97 0.8 2.61 0.54 0.65 1.33 1.09 2.39 1.34l1.53 0.36c0.66 0.15 1.17 0.35 1.51 0.6 0.35 0.25 0.52 0.7 0.52 1.33 0 0.37-0.05 0.68-0.15 0.93s-0.27 0.45-0.49 0.59-0.52 0.24-0.87 0.31c-0.36 0.06-0.8 0.09-1.31 0.09-0.33 0-0.69-0.02-1.09-0.06s-0.79-0.1-1.15-0.16c-0.37-0.06-0.69-0.12-0.98-0.17-0.28-0.05-0.47-0.1-0.57-0.12l-0.41 2.01c0.05 0.02 0.19 0.05 0.43 0.11 0.25 0.06 0.57 0.13 0.97 0.21 0.4 0.07 0.87 0.14 1.4 0.2 0.54 0.06 1.11 0.09 1.72 0.09 0.76 0 1.45-0.07 2.06-0.22 0.62-0.15 1.15-0.39 1.59-0.72 0.44-0.34 0.78-0.77 1.03-1.3 0.24-0.52 0.36-1.16 0.36-1.91 0-1.04-0.25-1.89-0.76-2.55s-1.4-1.13-2.67-1.43"/>
   <path d="m290.84 266.84c-0.51-0.66-1.4-1.13-2.67-1.43l-1.65-0.37c-0.56-0.13-0.99-0.33-1.3-0.6-0.32-0.26-0.47-0.69-0.47-1.29 0-0.37 0.06-0.67 0.18-0.9 0.12-0.24 0.29-0.43 0.5-0.56 0.21-0.14 0.46-0.23 0.75-0.28 0.3-0.05 0.61-0.07 0.95-0.07 0.39 0 0.78 0.02 1.16 0.05s0.73 0.08 1.05 0.12c0.33 0.05 0.62 0.1 0.86 0.16 0.24 0.05 0.43 0.09 0.55 0.12l0.34-1.95c-0.08-0.03-0.24-0.08-0.49-0.15-0.26-0.06-0.56-0.13-0.92-0.19s-0.76-0.11-1.2-0.16-0.9-0.07-1.37-0.07c-1.68 0-2.9 0.36-3.66 1.07-0.76 0.72-1.14 1.7-1.14 2.93 0 1.1 0.27 1.97 0.8 2.61 0.54 0.65 1.33 1.09 2.39 1.34l1.53 0.36c0.66 0.15 1.17 0.35 1.51 0.6 0.35 0.25 0.52 0.7 0.52 1.33 0 0.37-0.05 0.68-0.15 0.93s-0.27 0.45-0.49 0.59-0.51 0.24-0.87 0.31c-0.36 0.06-0.8 0.09-1.32 0.09-0.32 0-0.68-0.02-1.08-0.06s-0.79-0.1-1.15-0.16c-0.37-0.06-0.69-0.12-0.98-0.17-0.28-0.05-0.47-0.1-0.57-0.12l-0.4 2.01c0.04 0.02 0.18 0.05 0.42 0.11 0.25 0.06 0.57 0.13 0.97 0.21 0.4 0.07 0.87 0.14 1.4 0.2 0.54 0.06 1.11 0.09 1.72 0.09 0.76 0 1.45-0.07 2.06-0.22 0.62-0.15 1.15-0.39 1.59-0.72 0.44-0.34 0.78-0.77 1.03-1.3 0.24-0.52 0.36-1.16 0.36-1.91 0-1.04-0.25-1.89-0.76-2.55"/>
   <path d="m226.35 300.16c0-9.06-7.36-16.42-16.41-16.42h-21.71v57.33h4.07v-24.5h17.63c9.06 0 16.42-7.36 16.42-16.41zm-34.05-12.35h17.64c6.8 0 12.34 5.54 12.34 12.35 0 6.8-5.54 12.34-12.35 12.34h-17.63v-24.69"/>
   <path d="m268.46 320.36h-21.7v28.76h-5.49c0.68-2.15 1.04-4.42 1.04-6.74 0-5.94-2.31-11.52-6.51-15.72s-9.78-6.51-15.72-6.51-11.52 2.31-15.71 6.51c-4.2 4.2-6.52 9.78-6.52 15.72 0 5.93 2.32 11.52 6.51 15.72 4.2 4.2 9.78 6.51 15.72 6.51s11.52-2.31 15.72-6.51c1.48-1.48 2.72-3.14 3.71-4.91h7.25v24.5h4.07l-0.01-24.5h17.64 0.01c4.38 0 8.5-1.71 11.6-4.81s4.8-7.22 4.8-11.61c0-9.05-7.36-16.41-16.41-16.41zm-35.54 34.86c-3.43 3.43-7.98 5.32-12.84 5.32-4.85 0-9.41-1.89-12.84-5.32s-5.32-7.99-5.32-12.84 1.89-9.41 5.32-12.84 7.99-5.32 12.84-5.32c4.86 0 9.41 1.89 12.84 5.32 3.44 3.43 5.32 7.99 5.32 12.84s-1.88 9.41-5.32 12.84zm44.27-9.71c-2.33 2.33-5.43 3.61-8.73 3.61h-17.64v-24.7h17.64c6.81 0 12.35 5.54 12.35 12.35 0 3.3-1.29 6.4-3.62 8.74"/>
  </g>
 </g>
</svg>
