<svg width="410" height="251" version="1.1" viewBox="0 0 108.48 66.41" xmlns="http://www.w3.org/2000/svg">
 <g transform="translate(10.583 4.2053e-5)">
  <rect x="-10.583" y="39.232" width="108.48" height="27.179" ry="13.476" fill="#a400f9"/>
 </g>
 <g transform="translate(10.583 9.7837e-5)">
  <g transform="matrix(.63403 0 0 .63403 55.783 -222.15)">
   <g transform="matrix(2.2191,0,0,-2.2191,49.311,389.91)" fill="#6d1d82">
    <path d="m0 0c0-3.001-2.432-5.433-5.434-5.433-3 0-5.433 2.432-5.433 5.433 0 3.002 2.433 5.435 5.433 5.435 3.002 0 5.434-2.433 5.434-5.435" fill="#a400f9"/>
   </g>
   <g transform="matrix(2.2191,0,0,-2.2191,49.311,362.59)" fill="#86b817">
    <path d="m0 0c0-3.002-2.432-5.434-5.434-5.434-3 0-5.433 2.432-5.433 5.434 0 3.001 2.433 5.434 5.433 5.434 3.002 0 5.434-2.433 5.434-5.434" fill="#00e34f"/>
   </g>
  </g>
  <path transform="scale(.81818 1.2222)" d="m10.094 42.679h-4.6081c-0.29104 0-0.45273 0.16169-0.45273 0.43656v1.536c0 0.29104 0.16169 0.43656 0.45273 0.43656h2.0049c-0.45273 0.97013-1.3905 1.4067-2.5547 1.4067-1.7624 0-3.0074-1.2773-3.0074-3.2338 0-1.8109 1.1965-3.0883 3.0236-3.0883 1.0348 0 1.9079 0.45273 2.3607 1.051 0.12935 0.19403 0.27487 0.29104 0.5174 0.29104h2.1666c0.32338 0 0.48507-0.19403 0.37188-0.48507-0.69526-2.0858-2.8457-3.6703-5.4328-3.6703-3.4116 0-5.9016 2.5547-5.9016 5.9016 0 3.3308 2.3768 5.8855 5.5783 5.8855 1.4714 0 2.587-0.4689 3.347-1.342v0.66292c0 0.29104 0.16169 0.45273 0.43656 0.45273h1.6977c0.27487 0 0.43656-0.16169 0.43656-0.45273v-5.3357c0-0.29104-0.16169-0.45273-0.43656-0.45273zm11.286 5.6915-2.7164-3.6703c1.148-0.64676 1.9079-1.8109 1.9079-3.1853 0-2.296-1.7947-3.929-4.0746-3.929h-3.929c-0.27487 0-0.43656 0.16169-0.43656 0.43656v10.445c0 0.27487 0.16169 0.43656 0.43656 0.43656h2.0049c0.29104 0 0.45273-0.16169 0.45273-0.43656v-3.2014h0.80844l2.4738 3.3631c0.14552 0.2102 0.30721 0.27487 0.53357 0.27487h2.2798c0.35572 0 0.48507-0.24253 0.2587-0.53357zm-6.3705-8.1006h1.4875c0.67909 0 1.1803 0.50124 1.1803 1.245 0 0.74377-0.50124 1.2288-1.1803 1.2288h-1.4875zm13.841 5.9178h-3.6057v-1.6977h3.1206c0.27487 0 0.43656-0.16169 0.43656-0.45273v-1.6816c0-0.29104-0.16169-0.45273-0.43656-0.45273h-3.1206v-1.6007h3.5248c0.27487 0 0.43656-0.14552 0.43656-0.43656v-1.8271c0-0.29104-0.16169-0.43656-0.43656-0.43656h-5.9825c-0.27487 0-0.43656 0.14552-0.43656 0.43656v10.429c0 0.29104 0.16169 0.43656 0.43656 0.43656h6.0633c0.27487 0 0.43656-0.14552 0.43656-0.43656v-1.8271c0-0.29104-0.16169-0.43656-0.43656-0.43656zm11.464 2.2313-3.3955-10.461c-0.08084-0.24253-0.2587-0.37188-0.5174-0.37188h-2.6679c-0.2587 0-0.43656 0.12935-0.5174 0.37188l-3.3955 10.461c-0.11318 0.30721 0.04851 0.48507 0.37188 0.48507h2.199c0.2587 0 0.42039-0.09701 0.50124-0.37188l0.35572-1.245h3.638l0.35572 1.245c0.06468 0.27487 0.24253 0.37188 0.50124 0.37188h2.199c0.32338 0 0.48507-0.17786 0.37188-0.48507zm-6.3544-3.638 1.0995-3.9129 1.1157 3.9129zm13.161-7.1952h-6.9526c-0.29104 0-0.45273 0.16169-0.45273 0.45273v1.9079c0 0.27487 0.16169 0.43656 0.45273 0.43656h2.0211v8.0844c0 0.29104 0.16169 0.43656 0.45273 0.43656h2.0049c0.27487 0 0.43656-0.14552 0.43656-0.43656v-8.0844h2.0373c0.27487 0 0.43656-0.16169 0.43656-0.43656v-1.9079c0-0.29104-0.16169-0.45273-0.43656-0.45273zm7.9551 8.6019h-3.6057v-1.6977h3.1206c0.27487 0 0.43656-0.16169 0.43656-0.45273v-1.6816c0-0.29104-0.16169-0.45273-0.43656-0.45273h-3.1206v-1.6007h3.5248c0.27487 0 0.43656-0.14552 0.43656-0.43656v-1.8271c0-0.29104-0.16169-0.43656-0.43656-0.43656h-5.9825c-0.27487 0-0.43656 0.14552-0.43656 0.43656v10.429c0 0.29104 0.16169 0.43656 0.43656 0.43656h6.0633c0.27487 0 0.43656-0.14552 0.43656-0.43656v-1.8271c0-0.29104-0.16169-0.43656-0.43656-0.43656zm5.4327 2.9589c2.2798 0 4.0907-1.1642 4.0907-3.4601 0-2.3607-2.0049-3.1206-3.5733-3.638-1.0025-0.32338-1.7947-0.58208-1.7947-1.2127 0-0.42039 0.33955-0.7276 1.0186-0.7276 0.61442 0 0.95396 0.2102 1.0833 0.63059 0.09701 0.2587 0.2102 0.40422 0.4689 0.40422h2.0211c0.29104 0 0.4689-0.16169 0.45273-0.4689-0.2102-2.3122-2.0211-3.3146-4.0261-3.3146-2.0858 0-3.9129 1.1642-3.9129 3.4601 0 2.3768 2.0211 3.1691 3.5895 3.6865 0.9863 0.30721 1.7786 0.54974 1.7786 1.1318 0 0.43656-0.33955 0.75994-1.1803 0.75994-0.79228 0-1.2288-0.2102-1.3744-0.69526-0.08085-0.27487-0.2102-0.40422-0.4689-0.40422h-2.0211c-0.27487 0-0.45273 0.16169-0.43656 0.45273 0.2102 2.393 2.0696 3.3955 4.2848 3.3955zm11.545-11.561h-6.9526c-0.29104 0-0.45273 0.16169-0.45273 0.45273v1.9079c0 0.27487 0.16169 0.43656 0.45273 0.43656h2.0211v8.0844c0 0.29104 0.16169 0.43656 0.45273 0.43656h2.0049c0.27487 0 0.43656-0.14552 0.43656-0.43656v-8.0844h2.0373c0.27487 0 0.43656-0.16169 0.43656-0.43656v-1.9079c0-0.29104-0.16169-0.45273-0.43656-0.45273zm13.323 0h-2.0049c-0.29104 0-0.45273 0.16169-0.45273 0.45273v3.6542h-2.8457v-3.6542c0-0.29104-0.16169-0.45273-0.45273-0.45273h-2.0049c-0.27487 0-0.43656 0.16169-0.43656 0.45273v10.429c0 0.29104 0.16169 0.43656 0.43656 0.43656h2.0049c0.29104 0 0.45273-0.14552 0.45273-0.43656v-3.9776h2.8457v3.9776c0 0.29104 0.16169 0.43656 0.45273 0.43656h2.0049c0.27487 0 0.43656-0.14552 0.43656-0.43656v-10.429c0-0.29104-0.16169-0.45273-0.43656-0.45273zm2.2313 0.45273v10.429c0 0.29104 0.16169 0.43656 0.43656 0.43656h2.0049c0.29104 0 0.43656-0.14552 0.43656-0.43656v-10.429c0-0.29104-0.14552-0.45273-0.43656-0.45273h-2.0049c-0.27487 0-0.43656 0.16169-0.43656 0.45273zm11.302-0.45273h-6.9526c-0.29104 0-0.45273 0.16169-0.45273 0.45273v1.9079c0 0.27487 0.16169 0.43656 0.45273 0.43656h2.0211v8.0844c0 0.29104 0.16169 0.43656 0.45273 0.43656h2.0049c0.27487 0 0.43656-0.14552 0.43656-0.43656v-8.0844h2.0373c0.27487 0 0.43656-0.16169 0.43656-0.43656v-1.9079c0-0.29104-0.16169-0.45273-0.43656-0.45273zm4.8668 11.561c2.2798 0 4.0907-1.1642 4.0907-3.4601 0-2.3607-2.0049-3.1206-3.5733-3.638-1.0025-0.32338-1.7948-0.58208-1.7948-1.2127 0-0.42039 0.33954-0.7276 1.0186-0.7276 0.61442 0 0.95396 0.2102 1.0833 0.63059 0.097 0.2587 0.2102 0.40422 0.4689 0.40422h2.0211c0.29104 0 0.46889-0.16169 0.45272-0.4689-0.21019-2.3122-2.0211-3.3146-4.026-3.3146-2.0858 0-3.9129 1.1642-3.9129 3.4601 0 2.3768 2.0211 3.1691 3.5895 3.6865 0.9863 0.30721 1.7786 0.54974 1.7786 1.1318 0 0.43656-0.33955 0.75994-1.1803 0.75994-0.79228 0-1.2288-0.2102-1.3744-0.69526-0.0808-0.27487-0.21019-0.40422-0.46889-0.40422h-2.0211c-0.27487 0-0.45273 0.16169-0.43656 0.45273 0.2102 2.393 2.0696 3.3955 4.2848 3.3955z" fill="#fff" stroke="#fff" stroke-width=".21865" aria-label="GREATEST HITS"/>
  <path d="m35.237 32.809h-7e-3c-7.5217 0-10.887-5.2016-10.887-10.352 0-1.0144 0.79635-1.8094 1.808-1.8094h4.4981c1.013 0 1.808 0.79494 1.808 1.8094 0 0.52621 0.49385 2.6465 2.7703 2.6465h-0.02673 0.02673c1.6616 0 3.0109-1.1199 3.0109-2.503s-1.1214-2.503-2.5044-2.503h-1.8544c-1.0158 0-1.8108-0.79494-1.8108-1.8094v-4.0887c0-1.0144 0.79494-1.8094 1.8108-1.8094h1.3479c2.3018 0 2.6465-1.4281 2.6465-2.2793 0-1.0046-0.92016-2.4003-2.6465-2.4003-1.5364 0-2.6057 1.5237-2.6057 2.8927 0 1.0158-0.79494 1.8108-1.8094 1.8108h-4.4545c-1.0172 0-1.8108-0.79494-1.8108-1.8108 0-6.1428 4.4925-10.599 10.68-10.599 6.1358 0 10.761 4.3475 10.761 10.106 0 2.9251-1.3549 4.8963-2.5902 6.0837 1.8586 1.694 2.9603 4.1632 2.9603 6.6719 0 2.7197-1.0074 5.1917-2.828 6.9603-1.9881 1.9304-4.8555 2.9617-8.2927 2.9828" stroke-width="1.407"/>
  <path d="m58.547 25.689c-1.9965 0-3.6975-1.3535-3.6145-3.101 0.08302-1.7109 1.3043-3.1024 3.6145-3.1024 2.3074 0 3.5287 1.3915 3.6131 3.1024 0.08441 1.7475-1.6194 3.101-3.6131 3.101m-0.03939-18.558h0.0788c2.1048 0 3.2276 1.7292 3.2276 2.9772 0 2.6156-2.5016 2.8168-3.267 2.8168-0.7668 0-3.2656-0.20121-3.2656-2.8168 0-1.248 1.1214-2.9772 3.2262-2.9772m8.2519 9.0595c1.2339-1.1875 2.5888-3.1572 2.5888-6.0823 0-5.7587-4.6261-10.106-10.762-10.106h-0.0788c-6.1358 0-10.763 4.3475-10.763 10.106 0 2.9251 1.3577 4.8949 2.5902 6.0823-1.8586 1.6954-2.9589 4.1646-2.9589 6.6747 0 2.7225 1.006 5.2044 2.8336 6.9758 1.9993 1.9402 4.8822 2.9659 8.3377 2.9659 3.4555 0 6.3384-1.0257 8.3377-2.9659 1.8262-1.7714 2.8336-4.2505 2.8336-6.9758 0-2.51-1.1017-4.9793-2.9589-6.6747" stroke-width="1.407"/>
  <path d="m11.537 32.809c-7.4921 0-11.537-5.3113-11.537-10.312 0-1.0186 0.81182-1.8502 1.8094-1.8502h4.4967c1.0313 0 1.8108 0.77805 1.8108 1.8094 0 1.1903 1.5772 2.6465 3.4203 2.6465 2.2019 0 3.464-1.5449 3.464-4.242 0-2.3876-1.3901-3.993-3.464-3.993-0.9272 0-2.6043 0.242-3.4344 1.8628-0.30672 0.61344-0.93142 0.99754-1.6335 0.99754h-4.4545c-1.0158 0-1.8108-0.79353-1.8108-1.8094l0.01125-0.16883 1.8333-15.669c0.06331-0.94267 0.83996-1.6687 1.8051-1.6687h15.613c1.0158 0 1.8108 0.79494 1.8108 1.8108v4.1295c0 1.006-0.81182 1.7686-1.891 1.7686h-10.027l-0.17587 1.5505c0.93986-0.33064 1.9064-0.50932 2.7633-0.50932 6.6986 0 11.375 4.8118 11.375 11.699 0 7.1474-4.7359 11.948-11.785 11.948" stroke-width="1.407"/>
 </g>
</svg>
