<svg version="1.1" viewBox="0 0 1200 554" xmlns="http://www.w3.org/2000/svg">
 <g fill="none" stroke-width="2">
  <path d="m261.68 155.15q1.76-0.62 2.67-1.38 0.42-0.37 0.03-0.76l-21.56-21.54" stroke="#bb172a" vector-effect="non-scaling-stroke"/>
  <path d="m211.63 89.4q-1.26 0.48-0.96 2.61a0.5 0.5 0 0 1-0.85 0.43q-11.09-11.09-20.89-20.89-0.05-0.04-0.05-0.11 0-0.04 0-0.07 0-0.07-0.1-0.06l-1.27 0.23" stroke="#bb172a" vector-effect="non-scaling-stroke"/>
  <path d="m527.23 413.98q-0.21-0.41-1.3-0.39-0.81 0.02-0.09-0.37c1.28-0.68 2.42-0.5 3.65-0.6a0.13 0.12-45.5 0 0 0-0.25q-0.76-0.03-0.84-0.73-0.05-0.4-0.33-0.69-20.86-20.91-41.76-41.76c-1.12-1.11-2.63-1.4-4.1-1.66a0.2 0.2 0 0 1-0.03-0.38q0.42-0.15 0.42-0.41-0.01-0.17-0.14-0.27-0.34-0.24-0.46 0.03a0.39 0.3 60.4 0 1-0.61-0.26q-0.03-0.24-0.26-0.37-0.09-0.05-0.17 0.01-0.1 0.07-0.23 0.09-0.5 0.08-0.31-0.28 0.14-0.28 1.05-0.48" stroke="#bb172a" vector-effect="non-scaling-stroke"/>
  <path d="m455.53 315.87-1.01 0.48q-0.52 0.25-0.92-0.15l-35.47-35.47" stroke="#bb172a" vector-effect="non-scaling-stroke"/>
  <path d="m222.23 340.13-0.65 1.28q-0.26 0.49-0.65 0.1l-58.17-58.15q-0.56-0.56-0.58 0.24l-0.44 27.4q0 0.07 0 0.07h-0.01q-0.18 0-0.19-0.19c-0.22-6.17-0.36-12.23-0.18-18.42q0.11-4.07-0.82-8.04" stroke="#ad1c32" vector-effect="non-scaling-stroke"/>
 </g>
 <path d="m321.88 0h4.38c25.94 5.4 16.11 41.72-8.08 35.03-10.65-2.94-15.5-15.69-10.33-25.68q4.17-8.04 14.03-9.35z" fill="#c31424"/>
 <path d="m985.39 0h4.34c13 2.74 20.23 16.15 12.43 27.64-3.57 5.27-9.88 8.14-16.29 7.81-21.03-1.1-22.92-32.02-0.48-35.45z" fill="#f30407"/>
 <path d="m261.68 155.15q1.76-0.62 2.67-1.38 0.42-0.37 0.03-0.76l-21.56-21.54 4.38-3.39a1.25 1.23 71.7 0 0 0.49-0.99v-58.6q0-0.58-0.51-0.85c-11.66-6.12-30.29-6.57-33.69 9.87q-1.64 7.9-1.86 11.89-1.26 0.48-0.96 2.61a0.5 0.5 0 0 1-0.85 0.43q-11.09-11.09-20.89-20.89-0.05-0.04-0.05-0.11 0-0.04 0-0.07 0-0.07-0.1-0.06l-1.27 0.23q3.38-9.86 8.13-15.65c12.76-15.57 34.07-18.01 51.11-7.95a0.25 0.25 0 0 0 0.38-0.22l-0.01-20.7q0-0.62-0.59-0.82l-8.67-2.93a3.32 3.31-80.4 0 1-2.24-3.15l0.03-9.31a2.23 2.23 0 0 1 1.77-2.17l33.9-7.23q3.59-0.76 3.59 2.91v131.12a0.38 0.38 0 0 0 0.25 0.36l9.01 3.08q2.25 0.78 2.24 3.16l-0.03 8.39q-0.01 2.11-2.1 2.33l-22.6 2.39z" fill="#c31424"/>
 <path d="m744.31 44.08 19.05-0.01a2.91 2.9 90 0 1 2.9 2.91v17.28q0 3.02-3.02 3.02l-18.96 0.01q-0.46 0-0.46 0.46-0.07 23.65-0.17 47.24c-0.02 4.58-0.53 13.48 4.56 15.31 4.61 1.66 12.11-0.35 16.9-1.66q2.67-0.74 3.29 1.97l4.03 17.63a1.22 1.21 56.5 0 1-0.19 0.97q-1.3 1.87-3.85 2.92-15.01 6.16-30.62 3.63c-18.01-2.91-21.44-17.63-21.45-33.73q-0.06-51.15-0.02-102.64a2.59 2.58-5.9 0 1 2.06-2.53l22.77-4.72a2.2 2.2 0 0 1 2.65 2.15l0.01 29.27a0.52 0.52 0 0 0 0.52 0.52z" fill="#e30911"/>
 <path d="m528.69 106.87c0.1 8.68 2.58 19.26 10.67 23.98 11.38 6.64 28.59 1.42 39.33-4.27q2.59-1.37 3.74 1.32 3.12 7.24 5.99 14.24c1.06 2.58-1 4.57-3.46 5.81-17.61 8.93-44.44 12.59-62.07 1.67-22.07-13.69-24.29-44.82-20.11-67.61 3.88-21.21 18.08-37.4 40.21-40q12.58-1.47 23.21 2.78c19.43 7.78 26.02 32.91 23.69 51.58-0.99 7.92-7.32 9.89-14.77 9.89q-22.93 0.02-45.87 0.04-0.57 0-0.56 0.57zm35.67-21.71c-0.52-11.67-2.99-24.51-17.74-23.38-12.91 0.99-16.09 13.23-17.03 24.02q-0.04 0.46 0.43 0.46h34.02q0.42 0 0.43-0.43 0-0.13-0.03-0.25-0.07-0.36-0.08-0.42z" fill="#d10f1c"/>
 <path d="m806.82 106.78c-0.16 33.59 29.49 30.43 50.38 19.57a2.23 2.22 64.6 0 1 3.06 1.09q3.17 7.28 6.21 14.79c1.07 2.63-1.24 4.61-3.71 5.83-15.86 7.82-36.74 11.12-53.5 5.45-27.51-9.32-32.23-40.49-29.36-65.76 2.12-18.55 11.14-35.47 28.86-42.65 10.43-4.23 23.32-4.57 33.99-0.89 20.51 7.07 27.48 32.84 25.19 52.03-0.95 8.03-7.29 10.02-14.83 10.02q-22.9 0.02-45.8 0.04-0.49 0-0.49 0.48zm35.54-21.99c-0.35-10.16-2.15-21.47-14.6-23.03-14.42-1.8-19.12 11.91-20.07 24.13q-0.02 0.37 0.35 0.37h33.98q0.45 0 0.46-0.45 0.01-0.19-0.02-0.36-0.09-0.62-0.1-0.66z" fill="#e30911"/>
 <path d="m919.66 54.84c7.94-10.78 15.65-13.73 28.6-12.77q2.36 0.17 2.4 2.69 0.13 9.61 0.07 19.24c-0.01 2.64-1.32 3.34-3.84 3.27-9.47-0.25-20.98 2.19-24.7 11.69q-1.37 3.51-1.4 13.25-0.05 21.54-0.01 43.09a0.57 0.57 0 0 0 0.39 0.54l9.4 3.22a2.53 2.52 9.6 0 1 1.7 2.38v8.56q0 2.77-2.77 2.77h-44.6q-2.87 0-2.87-2.87l0.01-8.39a2.6 2.58 80.5 0 1 1.74-2.45l9.32-3.2a0.64 0.63-9.7 0 0 0.43-0.6v-67.77q0-0.46-0.43-0.61l-9.23-3.17a2.73 2.72-80.6 0 1-1.84-2.58l0.01-9.05a2.7 2.7 0 0 1 2.13-2.64q13.14-2.85 26.56-5.76c3.23-0.71 5.3-0.52 6.01 3.08q0.63 3.13 2.33 7.99 0.21 0.6 0.59 0.09z" fill="#e30911"/>
 <path d="m1166.5 54.74q0.28 1.02 0.82 0.11c6.32-10.65 16.78-13.77 28.72-12.77a2.43 2.42 2.5 0 1 2.22 2.41v20.25a2.59 2.58 1.5 0 1-2.72 2.58c-13.97-0.7-27.14 3.37-27.29 19.92q-0.22 23.96-0.25 47.91a0.77 0.77 0 0 0 0.52 0.73l8.99 3.06a2.99 2.98 9.5 0 1 2.02 2.82v8.48a2.53 2.53 0 0 1-2.53 2.53h-44.58q-3.09 0-3.08-3.09l0.02-8.34a2.39 2.38 80.7 0 1 1.6-2.24l9.37-3.22q0.49-0.17 0.49-0.69v-67.93a0.46 0.45 8.8 0 0-0.32-0.43l-8.97-3.08a2.84 2.84 0 0 1-1.92-2.69l0.01-9.04a2.65 2.65 0 0 1 2.09-2.58l28-6.07q3.44-0.74 4.38 2.65l2.41 8.72z" fill="#f30407"/>
 <path d="m362.67 92.26c1.71-25.37 15.72-47.43 42.86-49.77 46.12-3.96 57.23 44.45 48.49 79.02-4.81 19.03-20.02 33.5-39.79 35.1-40.05 3.25-53.84-30.39-51.56-64.35zm29.46-2.88c-0.85 11.81-1.31 28.45 4.56 38.61 4.51 7.8 15.88 9 22.58 3.78 3.28-2.56 5.67-7.49 6.46-11.51q3.95-20.12-0.41-41.48c-1.54-7.53-5.32-13.53-13.58-14.52-15.74-1.89-18.77 13.31-19.61 25.12z" fill="#c31424"/>
 <path d="m1024 93.01c1.46-25.12 15.2-48.33 42.47-50.45q33.49-2.59 46.31 26.92c6.37 14.66 6.62 35.43 2.85 51.02-4.7 19.46-19.6 34.4-39.93 36.1-39.78 3.33-53.66-29.75-51.7-63.59zm64.84-3.38c-1.04-12.75-4.65-28.59-21.86-25.11-17.43 3.52-14.4 40.88-12.55 52.9 1.25 8.16 5.16 16.31 14.28 17.42 10.27 1.25 17.01-5.88 18.76-15.34q2.65-14.33 1.37-29.87z" fill="#f30407"/>
 <path d="m43.3 55.49c6.43-10.5 16.67-14 28.7-12.94q2.69 0.24 2.7 3.21 0.02 9.63-0.06 19.55a2.53 2.53 0 0 1-2.58 2.51c-8.61-0.18-18.81 0.83-24.43 8.35q-3.08 4.13-3.1 9.08-0.12 25.23-0.03 50.47a0.75 0.75 0 0 0 0.51 0.71l9 3.08a2.9 2.9 0 0 1 1.96 2.74l-0.01 8.17q0 2.87-2.88 2.87h-44.82a2.53 2.52-90 0 1-2.52-2.53l-0.01-9.49a1.55 1.54-9.6 0 1 1.04-1.46l9.98-3.41q0.48-0.16 0.48-0.67v-68.04q0-0.56-0.53-0.73l-9.3-2.93a2.74 2.74 0 0 1-1.93-2.62v-9.57a1.78 1.76-6.4 0 1 1.39-1.72l28.41-6.16q3.97-0.86 5.05 3.05l2.33 8.38q0.22 0.8 0.65 0.1z" fill="#b21a2f"/>
 <path d="m137.94 146.28q-2.46 1.58-4.89 3.21-8.42 5.65-18.01 6.38c-27.24 2.07-40.33-21.82-32.83-45.88 6.92-22.19 35.4-22.51 53.9-23.17q0.5-0.02 0.53-0.51c0.34-5.3 0.42-13.51-2.42-18.06-2.74-4.39-11.08-4.41-15.48-4.02-8.07 0.71-15.18 3.43-22.84 5.79q-2.6 0.8-3.49-1.76-2.36-6.72-4.55-13.37c-1.5-4.58 4.95-6.59 8.11-7.56 14.86-4.54 31.08-6.41 46.23-2.13 16.04 4.53 20.49 17.49 20.47 32.8q-0.03 28.76-0.06 57.53a0.38 0.37-79.9 0 0 0.24 0.35l8.94 3.07a2.99 2.99 0 0 1 2.03 2.83l-0.01 8.71a2.29 2.28 87.1 0 1-2.05 2.28l-27.85 2.87a3.13 3.13 0 0 1-3.32-2.2l-2.09-6.95q-0.14-0.48-0.56-0.21zm-21.28-10.1c7.44 1.78 14.8-2.33 19.76-7.88q0.31-0.35 0.31-0.82v-22.47q0-0.49-0.49-0.48-7.3 0.01-14.5 1.13c-6.9 1.06-12.86 3.61-14.73 10.96-2.19 8.62 0.82 17.45 9.65 19.56z" fill="#b21a2f"/>
 <path d="m310.75 135.46v-66.46q0-0.54-0.51-0.72l-9.35-3.2a2.81 2.8 9.5 0 1-1.9-2.65v-8.91q0-2.04 1.99-2.46l34.06-7.24a2.45 2.45 0 0 1 2.96 2.4v89.25q0 0.5 0.48 0.67l9.25 3.18a2.61 2.6-80.6 0 1 1.76 2.47l0.01 8.22q0 3.02-3.01 3.02h-44.48q-2.76 0-2.76-2.77v-8.37q0-1.98 1.87-2.62l9.14-3.12q0.49-0.17 0.49-0.69z" fill="#c31424"/>
 <path d="m974.54 135.46-0.01-66.46q0-0.45-0.43-0.6l-9.94-3.42a2.44 2.43-80.7 0 1-1.65-2.31l0.01-9.36a2.25 2.25 0 0 1 1.78-2.2l33.94-7.22q3.53-0.76 3.53 2.86v88.77q0 0.45 0.42 0.59l9.31 3.19a2.63 2.62 9.5 0 1 1.78 2.48l-0.01 8.97a2.28 2.28 0 0 1-2.28 2.27h-45.27a2.67 2.67 0 0 1-2.67-2.66l-0.01-8.58a2.58 2.58 0 0 1 1.74-2.45l9.26-3.18a0.74 0.73-9.5 0 0 0.5-0.69z" fill="#e30911"/>
 <path d="m650.16 79.75a0.22 0.22 0 0 0 0.37 0.01q10.58-16.19 21.77-31.98 1.25-1.78 3.95-1.79 12.56-0.04 24.89-0.01 2.59 0.01 2.59 2.6v8.54q0 1.97-1.86 2.6l-9.13 3.13q-0.51 0.18-0.83 0.61l-25.11 35.02a0.62 0.61 45.6 0 0 0 0.71l24.87 36.1a1.58 1.57 82.3 0 0 0.77 0.59l9.28 3.18a2.6 2.6 0 0 1 1.76 2.46l-0.04 8.93a2.31 2.3-89.9 0 1-2.3 2.3q-12.28 0.03-24.89 0.08-2.9 0.01-4.5-2.34-11.04-16.22-21.26-32.86a0.29 0.28-45.6 0 0-0.48 0.01q-9.89 16.21-20.69 31.69c-2.07 2.96-3.33 3.41-7.11 3.43q-11.76 0.04-23.42-0.01a2.29 2.29 0 0 1-2.28-2.29l0.01-9.01a2.5 2.49 80.5 0 1 1.68-2.36l9.34-3.22a1.57 1.57 0 0 0 0.79-0.58l26.51-36.18a0.49 0.49 0 0 0 0.01-0.56l-24.05-34.99q-0.37-0.54-1-0.76l-9.26-3.16a2.33 2.31 9.6 0 1-1.57-2.19l0.01-9.16a2.3 2.3 0 0 1 2.29-2.3q12.58-0.03 25.48-0.08 2.67-0.01 4.09 2.18 10.12 15.64 19.32 31.66z" fill="#d10f1c"/>
 <path d="m211.63 89.4q-0.63 8.97 0.02 20.34c0.63 10.87 2 23.07 15.09 24.94q8.49 1.22 16.08-3.21l21.56 21.54q0.39 0.39-0.03 0.76-0.91 0.76-2.67 1.38c-3.88 0.67-8.04 1.77-9.06-2.51q-0.45-1.91-2.18-6.79-0.18-0.51-0.62-0.2c-8.13 5.88-16.67 9.99-26.8 10.81-24.02 1.94-34.83-16.92-38.14-37.58q-3.83-23.92 2.63-47.34l1.27-0.23q0.1-0.01 0.1 0.06 0 0.03 0 0.07 0 0.07 0.05 0.11 9.8 9.8 20.89 20.89a0.5 0.5 0 0 0 0.85-0.43q-0.3-2.13 0.96-2.61z" fill="#b21a2f"/>
 <path d="m527.23 413.98q-0.21-0.41-1.3-0.39-0.81 0.02-0.09-0.37c1.28-0.68 2.42-0.5 3.65-0.6a0.13 0.12-45.5 0 0 0-0.25q-0.76-0.03-0.84-0.73-0.05-0.4-0.33-0.69-20.86-20.91-41.76-41.76c-1.12-1.11-2.63-1.4-4.1-1.66a0.2 0.2 0 0 1-0.03-0.38q0.42-0.15 0.42-0.41-0.01-0.17-0.14-0.27-0.34-0.24-0.46 0.03a0.39 0.3 60.4 0 1-0.61-0.26q-0.03-0.24-0.26-0.37-0.09-0.05-0.17 0.01-0.1 0.07-0.23 0.09-0.5 0.08-0.31-0.28 0.14-0.28 1.05-0.48 33.89-0.11 67.81 0.04c4.59 0.02 8.08-0.77 8.34-5.9 1.98-37.98-14.82-75.46-59.11-71.6-19.83 1.73-32.97 11.53-43.23 28.12l-1.01 0.48q-0.52 0.25-0.92-0.15l-35.47-35.47c27.38-31.86 69.28-43.53 109.86-36.56 67.81 11.65 95.42 78.01 88.27 140.08-2.48 21.48-16.07 29.39-36.51 29.58q-26.28 0.23-52.52 0.15z" fill="#c31424"/>
 <path d="m54.65 261.16c2.65 9.15 9.35 0.92 12.66-1.83 14.08-11.7 32.27-16.59 50.44-16.76 13.22-0.12 19.54 7.35 19.54 20.18 0 12.95 0.13 38.04-16.7 41.37-2.8 0.56-6.75 0.47-10.34 0.65-31.89 1.64-46.91 22.35-46.97 52.73q-0.09 50.37-0.11 100.75c0 13.12-6.11 20.89-19.18 23.14-11.06 1.9-28.68 1.95-37.17-6.47-4.7-4.67-5.6-10.78-5.6-17.94q-0.05-96.37 0-192.73c0-9.09 5.41-17.92 14.53-20q12.08-2.76 24.23-0.16c9.08 1.95 12.34 9.01 14.67 17.07z" fill="#a81d35"/>
 <path d="m222.23 340.13-0.65 1.28q-0.26 0.49-0.65 0.1l-58.17-58.15q-0.56-0.56-0.58 0.24l-0.44 27.4q0 0.07 0 0.07h-0.01q-0.18 0-0.19-0.19c-0.22-6.17-0.36-12.23-0.18-18.42q0.11-4.07-0.82-8.04-0.1-8.53-0.01-17.17c0.15-14.13 5.76-22.66 20.45-24.18 7.39-0.77 18.8-0.62 24.82 3.77 5.68 4.14 6.55 10.32 8.76 15.85 1.45 3.66 4.86 3.32 7.22 0.86 13.33-13.84 29.85-19.03 49.09-20.62 18.66-1.54 41.05 1.1 56.15 12.24 20.19 14.9 25.8 39.6 25.85 63.33q0.15 69.5 0.33 139 0.05 19.5-18.74 23.29c-13.37 2.7-35.93 2.91-42-13.14q-1.44-3.82-1.45-14.48-0.05-57.33 0.07-114.67c0.03-17.15-3.93-40.73-26.33-40.89-13.48-0.09-26.49 6.89-35.33 16.8-6.55 7.35-7.37 16.32-7.19 25.72z" fill="#b21a2f"/>
 <path d="m418.13 280.73 35.47 35.47q0.4 0.4 0.92 0.15l1.01-0.48q-10.04 19.44-9.98 41.19c0.01 4.89 1.78 8.09 6.96 8.09q14.58 0.01 29.21 0.06-0.91 0.2-1.05 0.48-0.19 0.36 0.31 0.28 0.13-0.02 0.23-0.09 0.08-0.06 0.17-0.01 0.23 0.13 0.26 0.37a0.39 0.3 60.4 0 0 0.61 0.26q0.12-0.27 0.46-0.03 0.13 0.1 0.14 0.27 0 0.26-0.42 0.41a0.2 0.2 0 0 0 0.03 0.38c1.47 0.26 2.98 0.55 4.1 1.66q20.9 20.85 41.76 41.76 0.28 0.29 0.33 0.69 0.08 0.7 0.84 0.73a0.13 0.12-45.5 0 1 0 0.25c-1.23 0.1-2.37-0.08-3.65 0.6q-0.72 0.39 0.09 0.37 1.09-0.02 1.3 0.39-35.95 0.05-71.87-0.01-1.41 0-3.17 0.43c-5.1 1.25-7.54 1.25-7.69 7.5-0.86 36.46 20.22 66.09 56.27 74.61q32.5 7.67 64.14-2.73 6.82-2.24 21.64-7.97c9.78-3.78 20.03-3.38 23.28 8.43 3.81 13.83-3.09 27.45-13.62 36.24-15.97 13.31-37.18 19.35-58.22 21.77-46.06 5.31-94.79-5.96-124.43-43.79-29.14-37.19-34.2-90.92-29.95-136.09 3.08-32.73 12.96-66.22 34.52-91.64z" fill="#b21a2f"/>
 <path d="m222.23 340.13q0.05 57.56 0 114.91 0 0.09 0.11 3.9c0.67 22.88-23.73 25.39-40.29 22.72-13.49-2.18-21.49-8.77-21.51-22.91q-0.1-87.11 0-174.33 0.93 3.97 0.82 8.04c-0.18 6.19-0.04 12.25 0.18 18.42q0.01 0.19 0.19 0.19h0.01t0-0.07l0.44-27.4q0.02-0.8 0.58-0.24l58.17 58.15q0.39 0.39 0.65-0.1l0.65-1.28z" fill="#a81d35"/>
</svg>
