<svg version="1.1" viewBox="0 0 1022.9 432.45" xmlns="http://www.w3.org/2000/svg">
 <g transform="translate(102.89 -140.58)">
  <path d="m590.08 411.04h-294.73c-7.1501 0-12.463 4.7886-13.546 11.152l-15.743 90.064c-1.5415 9.3147 5.0181 15.317 13.218 15.317h290.36l20.433-116.57" stroke-width="3.2798"/>
  <path d="m309.98 499.99c-1.1807 0-1.7711-0.7872-1.5743-1.8696l7.7732-44.409a2.6239 2.6239 0 0 1 1.476-1.8367c5.6741-2.6239 11.939-4.0998 18.138-4.0998 2.6239 0 5.2477 0.2624 8.134 0.8528 1.1151 0.1968 1.6399 0.9839 1.4103 1.9679l-1.7711 9.5771c-0.1312 1.0824-0.9183 1.5743-1.9679 1.4759-1.7055-0.328-3.6078-0.4919-5.7069-0.4919-2.5583 0-4.723 0.4919-6.3957 1.1807l-6.3301 36.078c-0.1968 0.984-0.7872 1.5744-1.7711 1.5744h-11.381m59.234-11.48c2.2302 0 4.9853-0.328 6.7564-0.7543l1.3776-8.5276a31.486 31.486 0 0 0-6.2973-0.656c-4.7886 0-7.3469 1.5415-7.8717 4.4606-0.6559 3.7062 1.7056 5.4773 6.035 5.4773zm-1.8696 12.267c-13.775 0-20.663-7.8716-18.695-18.498 1.6399-9.5115 9.6755-13.677 22.204-13.677 2.9518 0 5.9037 0.328 8.3636 0.7872l0.1968-1.64c0.6559-5.0509-0.492-7.4124-6.6909-7.4124-4.3294 0-8.7572 0.8856-11.709 2.2959-1.0496 0.4592-1.8368 0.2624-2.2303-0.82l-3.0503-8.0684c-0.328-0.8855-0.328-1.5415 0.328-1.9679 4.6574-2.8206 12.037-4.5918 20.007-4.5918 13.316 0 20.171 8.8556 17.514 23.484l-4.395 24.763c-0.1968 0.8855-0.5904 1.5743-1.476 1.8695a63.498 63.498 0 0 1-20.401 3.411zm58.053-13.021c2.3943 0 4.9198-0.4264 6.4941-1.0824l4.4278-25.255c-1.5744-1.0823-4.0342-1.6399-6.4941-1.6399-4.6902 0-7.7404 2.9519-8.8556 8.8556l-1.8039 10.496c-1.1807 6.1661 0.984 8.5932 6.2317 8.5932zm-1.3119 12.988c-14.267 0-22.106-9.6755-19.843-22.696l2.0663-11.25c2.0663-11.611 10.988-19.548 22.631-19.548 3.6079 0 7.0845 0.7872 9.5116 2.0663l3.0502-17.285c0.1968-0.984 1.148-1.5415 2.1319-1.5415h11.02c1.1807 0 1.7711 0.7543 1.5743 1.8367l-11.119 63.006c-0.098 0.8855-0.5903 1.4759-1.4759 1.7711-5.5757 2.2303-13.119 3.6078-19.613 3.6078zm36.308-0.5576c-1.0824 0-1.6399-0.8199-1.4759-1.9023l8.298-47.459c0.098-0.984 0.7871-1.4432 1.7711-1.4432h11.381c1.2136 0 1.8039 0.656 1.6399 1.7711l-8.3636 47.459c-0.1967 0.984-0.7871 1.6399-1.8695 1.6399h-11.414m10.168-58.709c-1.0495 0-1.6399-0.7543-1.4103-1.8367l1.5087-8.8556c0.098-0.9839 0.7872-1.4759 1.7711-1.4759h11.479c1.148 0 1.7384 0.656 1.5416 1.7383l-1.5744 8.8556c-0.2295 0.9839-0.8199 1.5743-1.9023 1.5743h-11.479m40.67 46.41c5.1494 0 8.298-2.7222 9.0852-7.314l2.1975-12.529c0.7871-4.4278-1.2464-8.0356-5.9693-8.0356-4.723 0-8.0357 2.9519-8.8556 7.3468l-2.2303 12.595c-0.8856 4.7886 1.1807 7.8716 5.7725 7.8716zm-1.6399 12.791c-13.119 0-21.057-9.7411-18.826-22.172l2.0663-12.135c2.1975-11.873 11.807-19.22 25.452-19.22 13.447 0 21.319 9.9052 19.22 21.844l-2.2959 12.299c-2.2302 12.332-11.151 19.351-25.583 19.351z" fill="#fff" stroke-width="3.2798"/>
  <path d="m678.3 337.44c-1.7055 0-3.7718 0.328-6.2316 1.0495l-65.039 17.941c-4.8541 1.3775-7.9372 5.6413-8.6259 10.496l-2.6239 13.611c-0.984 7.2156 3.2798 13.119 10.561 13.119h10.955l-27.091 154.22c-1.3776 10.102 5.6741 18.302 15.809 18.302h24.468c10.364 0 20.007-8.3636 21.45-18.695l34.438-198.1s2.4926-11.939-8.0685-11.939m181.05 115.09c-2.2959 33.225-31.355 60.251-64.613 60.251-33.356 0-58.578-27.026-56.249-60.251 2.3615-33.258 31.388-60.284 64.678-60.284 33.29 0 58.545 27.026 56.216 60.284zm-52.018-120.53c-40.08 0-76.945 19.515-101.02 49.526l-21.089 120.27c15.94 41.982 56.085 71.238 105.28 71.238 66.712 0 124.57-53.986 129.23-120.53 4.6902-66.548-45.557-120.5-112.33-120.5z" fill="#00c782" stroke-width="3.2798"/>
  <g transform="translate(4395.4 5639.4)">
   <path d="m-4498.3-5498.8h825.97l-29.424 166.87h-796.55z" fill="#ed1853"/>
   <g transform="skewX(-10)" fill="#fff" stroke-width=".26458" aria-label="Non-stop">
    <path d="m-5219.5-5471.6h16.273l38.314 58.776v-58.776h17.001v89.318h-16.334l-38.253-58.594v58.594h-17.001z" style="font-feature-settings:normal;font-variant-caps:normal;font-variant-ligatures:normal;font-variant-numeric:normal"/>
    <path d="m-5098.3-5450q9.3508 0 17.548 4.6754 8.2579 4.6754 12.873 12.69 4.6146 8.015 4.6146 17.305 0 9.3508-4.6754 17.487-4.6146 8.1364-12.63 12.751-8.015 4.5539-17.669 4.5539-14.208 0-24.288-10.079-10.019-10.14-10.019-24.591 0-15.484 11.354-25.806 9.958-8.9865 22.891-8.9865zm0.2429 15.605q-7.7113 0-12.872 5.4041-5.1004 5.3433-5.1004 13.722 0 8.6222 5.0397 13.966 5.1004 5.3433 12.872 5.3433t12.933-5.404q5.1612-5.404 5.1612-13.905 0-8.5007-5.1005-13.783-5.0397-5.3433-12.933-5.3433z" style="font-feature-settings:normal;font-variant-caps:normal;font-variant-ligatures:normal;font-variant-numeric:normal"/>
    <path d="m-5049.6-5448.3h16.516v6.7398q5.6469-4.7361 10.201-6.5577 4.6147-1.8823 9.4115-1.8823 9.8366 0 16.698 6.8613 5.7683 5.8291 5.7683 17.244v43.657h-16.394v-28.963q0-11.84-1.093-15.726-1.0322-3.886-3.7039-5.8898-2.6109-2.0644-6.4969-2.0644-5.0397 0-8.6829 3.4003-3.5825 3.3395-4.979 9.29-0.7286 3.0967-0.7286 13.419v26.534h-16.516z" style="font-feature-settings:normal;font-variant-caps:normal;font-variant-ligatures:normal;font-variant-numeric:normal"/>
    <path d="m-4972.8-5422.9h30.846v15.423h-30.846z" style="font-feature-settings:normal;font-variant-caps:normal;font-variant-ligatures:normal;font-variant-numeric:normal"/>
    <path d="m-4882.4-5439.1-10.262 10.262q-6.2541-6.1934-11.354-6.1934-2.7931 0-4.3718 1.2144-1.5787 1.1537-1.5787 2.9146 0 1.3358 0.9715 2.4895 1.0322 1.0929 4.979 3.0359l6.0719 3.036q9.5937 4.7361 13.176 9.6544 3.5824 4.9182 3.5824 11.537 0 8.8043-6.497 14.694-6.4362 5.8897-17.305 5.8897-14.451 0-23.073-11.294l10.201-11.112q2.9145 3.4003 6.8006 5.5254 3.9467 2.0645 6.9827 2.0645 3.2788 0 5.2826-1.5787 2.0037-1.5787 2.0037-3.6432 0-3.8253-7.2256-7.4685l-5.5862-2.793q-16.03-8.0757-16.03-20.22 0-7.8328 6.0112-13.358 6.072-5.5862 15.484-5.5862 6.4362 0 12.083 2.8539 5.7077 2.793 9.6544 8.0756z" style="font-feature-settings:normal;font-variant-caps:normal;font-variant-ligatures:normal;font-variant-numeric:normal"/>
    <path d="m-4866.2-5472.7h16.516v24.348h9.8365v14.269h-9.8365v51.794h-16.516v-51.794h-8.5007v-14.269h8.5007z" style="font-feature-settings:normal;font-variant-caps:normal;font-variant-ligatures:normal;font-variant-numeric:normal"/>
    <path d="m-4799.8-5450q9.3508 0 17.548 4.6754 8.2578 4.6754 12.872 12.69t4.6147 17.305q0 9.3508-4.6754 17.487-4.6147 8.1364-12.63 12.751-8.015 4.5539-17.669 4.5539-14.208 0-24.288-10.079-10.019-10.14-10.019-24.591 0-15.484 11.354-25.806 9.958-8.9865 22.891-8.9865zm0.2429 15.605q-7.7114 0-12.872 5.4041-5.1005 5.3433-5.1005 13.722 0 8.6222 5.0397 13.966 5.1005 5.3433 12.873 5.3433 7.772 0 12.933-5.404 5.1611-5.404 5.1611-13.905 0-8.5007-5.1004-13.783-5.0397-5.3433-12.933-5.3433z" style="font-feature-settings:normal;font-variant-caps:normal;font-variant-ligatures:normal;font-variant-numeric:normal"/>
    <path d="m-4734.7-5448.3v7.2863q4.4933-4.4932 9.7151-6.7398 5.2219-2.2467 11.172-2.2467 12.933 0 21.98 9.7759 9.0472 9.7758 9.0472 25.077 0 14.755-9.3508 24.713-9.3508 9.8972-22.163 9.8972-5.7076 0-10.626-2.0037-4.9182-2.0645-9.7758-6.6791v31.149h-16.455v-90.229zm17.426 13.601q-7.8328 0-12.994 5.3433-5.1611 5.3433-5.1611 13.966 0 8.8043 5.1611 14.269 5.1612 5.404 12.994 5.404 7.5899 0 12.751-5.5255 5.2218-5.5254 5.2218-14.087 0-8.5007-5.1004-13.905-5.1004-5.4648-12.872-5.4648z" style="font-feature-settings:normal;font-variant-caps:normal;font-variant-ligatures:normal;font-variant-numeric:normal"/>
   </g>
  </g>
 </g>
</svg>
