<svg version="1.1" viewBox="0 0 921.81 473.71" xmlns="http://www.w3.org/2000/svg">
 <defs>
  <linearGradient id="b" x1="714.14" x2="847.83" y1="343.03" y2="366.6" gradientTransform="translate(0 476) scale(1 -1)" gradientUnits="userSpaceOnUse">
   <stop stop-color="#3e4f1d" offset="0"/>
   <stop stop-color="#799648" offset=".31"/>
   <stop stop-color="#799648" offset=".41"/>
   <stop stop-color="#799648" offset="1"/>
  </linearGradient>
  <linearGradient id="a" x1="100.67" x2="221.11" y1="266.58" y2="238.77" gradientTransform="translate(0 476) scale(1 -1)" gradientUnits="userSpaceOnUse">
   <stop stop-color="#3c3c3b" offset="0"/>
   <stop stop-color="#80807f" offset=".09"/>
   <stop stop-color="#b6b6b6" offset=".17"/>
   <stop stop-color="#dededd" offset=".24"/>
   <stop stop-color="#f6f6f6" offset=".3"/>
   <stop stop-color="#fff" offset=".33"/>
   <stop stop-color="#fff" offset="1"/>
  </linearGradient>
 </defs>
 <rect x="384.09" width="57.62" height="287.73" fill="#fff"/>
 <rect x="863.53" width="57.62" height="287.73" fill="#fff"/>
 <path d="m604.56 244.49v-52.86c0.12-10.75-1.64-20.67-5.29-29.75-3.64-9.08-8.6-17.08-14.87-24.01s-13.59-12.63-21.95-17.11-17.23-7.44-26.61-8.87-18.93-1.22-28.67 0.63-19.2 5.65-28.4 11.38l18.81 41.39c6.81-4.66 13.74-7.38 20.79-8.15 7.05-0.78 13.53 0.06 19.44 2.51s10.81 6.39 14.69 11.83 6.06 12.16 6.54 20.16v51.61h-95.87v44.49h141.97s-0.39-43.2-0.59-43.24h0.01z" fill="#fff"/>
 <path d="m805.91 287.73h-19.21c0-26.48 21.54-45.87 48.02-45.87v19.21c-15.89 0-28.81 10.77-28.81 26.66z" fill="#fff"/>
 <path d="M779.04,245.11c30.43-37.91,49.48-91.71,49.5-151.3V0h-61.2v93.81c-.03,43.33-16.57,81.62-41.69,104.42,1.09,5.76,3.9,16.15,12.07,26.01,15.08,18.22,36.65,20.48,41.32,20.86h0Z" fill="url(#b)"/>
 <path d="M779.05,219.93v25.18c-15.22,18.95-33.27,33.92-53.22,43.66-20.24-9.72-38.55-24.85-53.95-44.03-30.43-37.9-49.47-91.67-49.51-151.23v-19.78h61.19v19.73c.04,43.55,16.73,82.02,42.09,104.77,15.24,13.7,33.61,21.7,53.39,21.7h.01Z" fill="#799648"/>
 <path d="m164.53 47.7c0 14.32-11.71 26.03-26.03 26.03s-26.03-11.71-26.03-26.03 11.71-26.03 26.03-26.03 26.03 11.45 26.03 26.03z" fill="#799648"/>
 <path d="m92.93 47.7c0 14.32-11.71 26.03-26.03 26.03s-26.03-11.71-26.03-26.03 11.71-26.03 26.03-26.03 26.03 11.45 26.03 26.03z" fill="#799648"/>
 <path d="m548.53 47.7c0 14.32-11.71 26.03-26.03 26.03s-26.03-11.71-26.03-26.03 11.71-26.03 26.03-26.03 26.03 11.45 26.03 26.03z" fill="#fff"/>
 <path d="m102.7 200.65c-21.99 19.76-37.46 50.76-41.17 87.09h81.98c-3.69-36.18-19.01-67.31-40.8-87.08h-0.01z" fill="none"/>
 <path d="m102.7 200.64c21.79 19.78 37.11 50.9 40.8 87.08h61.51c-3.24-52.73-21.44-99.66-48.95-133.93l-24.24 12.43c-19.74 0-13.86 20.74-29.11 34.41z" fill="url(#a)"/>
 <path d="m102.69 200.65c15.25-13.67 33.61-21.68 53.35-21.68v-25.16c-15.19-18.93-33.23-33.91-53.17-43.63-20.22 9.72-38.53 24.82-53.93 43.99-27.49 34.26-45.69 80.89-48.94 133.56h61.52c3.72-36.33 19.18-67.32 41.17-87.09z" fill="#fff"/>
 <path d="M361.78,243.24v44.49h-201.97v-44h60.59v-53.1c-.12-10.75,1.64-20.67,5.28-29.75,3.65-9.07,8.6-17.08,14.88-24.01,6.27-6.93,13.58-12.63,21.95-17.11,8.36-4.48,17.23-7.44,26.61-8.87,9.37-1.43,18.93-1.22,28.67.63,9.73,1.85,19.2,5.64,28.4,11.38l-18.82,41.39c-6.81-4.66-13.74-7.38-20.78-8.15-7.05-.78-13.53.06-19.44,2.5-5.92,2.45-10.82,6.4-14.7,11.83-3.88,5.44-6.06,12.16-6.54,20.16v52.61h95.87Z" fill="#fff"/>
 <path d="m530.02 325.25c-2.09-2.11-4.62-3.15-7.57-3.15s-5.44 1.04-7.45 3.15c-2.09 2.09-3.15 4.62-3.15 7.57s1.06 5.44 3.15 7.45c2.01 2.09 4.5 3.15 7.45 3.15s5.48-1.06 7.57-3.15c2.09-2.01 3.15-4.5 3.15-7.45s-1.06-5.48-3.15-7.57zm-23.28 0c-2.09-2.11-4.62-3.15-7.57-3.15s-5.36 1.04-7.45 3.15c-2.11 2.09-3.15 4.62-3.15 7.57s1.04 5.44 3.15 7.45c2.09 2.09 4.58 3.15 7.45 3.15s5.48-1.06 7.57-3.15c2.09-2.01 3.15-4.5 3.15-7.45s-1.06-5.48-3.15-7.57z" fill="#799648"/>
 <path d="m586.48 325.13c-2.09-2.01-4.62-3.03-7.57-3.03s-5.46 1.02-7.57 3.03c-2.01 2.09-3.03 4.62-3.03 7.57s1.02 5.48 3.03 7.57c2.11 2.09 4.62 3.15 7.57 3.15s5.48-1.06 7.57-3.15c2.11-2.09 3.15-4.62 3.15-7.57s-1.04-5.48-3.15-7.57z" fill="#799648"/>
 <path d="M569.49,358.67v59.03h-26.91v-59.03h-37.72c-13.34,0-23.6,4.54-30.73,13.62-6.21,7.91-9.32,18.38-9.32,31.43v22.13l.12,12.23h124.69v-79.41h-20.14.01ZM522.45,417.7h-37.6l.12-14.22c0-8.23,1.57-14.44,4.76-18.62s8.3-6.29,15.38-6.29h17.35v39.14h-.01Z" fill="#799648"/>
 <path d="m728.42 325.25c-2.09-2.11-4.62-3.15-7.57-3.15s-5.48 1.04-7.57 3.15c-2.03 2.09-3.03 4.62-3.03 7.57s1 5.44 3.03 7.45c2.09 2.09 4.62 3.15 7.57 3.15s5.48-1.06 7.57-3.15c2.09-2.01 3.15-4.5 3.15-7.45s-1.06-5.48-3.15-7.57zm-25.27 0c-2.09-2.11-4.62-3.15-7.57-3.15s-5.48 1.04-7.57 3.15c-2.09 2.09-3.15 4.62-3.15 7.57s1.06 5.44 3.15 7.45c2.09 2.09 4.62 3.15 7.57 3.15s5.48-1.06 7.57-3.15c2.03-2.01 3.03-4.5 3.03-7.45s-1-5.48-3.03-7.57z" fill="#799648"/>
 <path d="m782.56 455.54c-2.09-2.11-4.62-3.15-7.57-3.15s-5.36 1.04-7.45 3.15c-2.09 2.09-3.15 4.62-3.15 7.57s1.06 5.36 3.15 7.45 4.58 3.15 7.45 3.15 5.48-1.06 7.57-3.15c2.11-2.09 3.15-4.58 3.15-7.45s-1.04-5.48-3.15-7.57zm-25.26 0c-2.11-2.11-4.62-3.15-7.57-3.15s-5.44 1.04-7.45 3.15c-2.11 2.09-3.15 4.62-3.15 7.57s1.04 5.36 3.15 7.45c2.01 2.09 4.5 3.15 7.45 3.15s5.46-1.06 7.57-3.15c2.09-2.09 3.15-4.58 3.15-7.45s-1.06-5.48-3.15-7.57z" fill="#799648"/>
 <path d="M763.12,358.67v59.03h-44.83v-59.03h-20.02l-.12,5.24v53.79h-29v-59.15l-24.91.12c-13.34,0-23.6,4.54-30.73,13.62-6.21,7.83-9.32,18.26-9.32,31.31v34.47h41.45c-2.41,3.88-7.03,6.13-13.86,6.75-2.39.16-4.26.24-5.58.24h-2.21l-2.57-.24-5.7-.36v19.92l5,.36,2.21.1c1.17.08,2.29.12,3.39.12,1.69,0,4.06-.12,7.09-.34,9.7-.7,17.47-3.66,23.3-8.86,4.88-4.34,8.34-10.24,10.36-17.69h116.19v-79.41h-20.14ZM649.02,417.7h-24.82l.12-14.22c0-8.3,1.59-14.54,4.78-18.74,3.19-4.18,8.31-6.29,15.38-6.29h4.54v39.25Z" fill="#799648"/>
 <path d="m838.1 325.25c-2.09-2.11-4.62-3.15-7.57-3.15s-5.36 1.04-7.45 3.15c-2.09 2.09-3.15 4.58-3.15 7.45s1.06 5.48 3.15 7.57 4.58 3.15 7.45 3.15 5.48-1.06 7.57-3.15 3.15-4.62 3.15-7.57-1.06-5.36-3.15-7.45z" fill="#799648"/>
 <path d="M884.21,309.75v128.32h-45.41c-2.01,7.45-5.48,13.34-10.36,17.69-5.84,5.2-13.58,8.17-23.3,8.86-2.95.22-5.32.34-7.09.34-1.18,0-2.29-.04-3.39-.12l-2.21-.1-5-.36v-19.92l5.7.36,2.45.24h2.33c1.23,0,3.11-.08,5.6-.24,6.27-.54,10.66-2.49,13.14-5.82,2.73-3.66,4.08-9.76,4.08-18.28v-62.06h20.02v59.03h23.3v-107.95h20.14,0Z" fill="#799648"/>
 <path d="m921.81 309.75v128.31h-20.14v-128.31h20.14z" fill="#799648"/>
</svg>
