<svg width="200mm" height="216.01mm" version="1.1" viewBox="0 0 200 216.01" xmlns="http://www.w3.org/2000/svg">
 <g transform="translate(202.81 -44.608)">
  <path d="m-25.97 243.52h-160.58v-171.82h160.58z" fill="none" stroke="#fff" stroke-width="2.2336" Googl="true"/>
  <path d="m-54.489 44.608v33.004h-0.14849c-2.7058-4.321-7.4441-6.7067-12.395-6.7067-9.6763 0-15.727 7.6808-15.727 17.743 0 10.055 6.1279 18.168 15.876 18.168 4.7369 0 9.889-2.523 12.246-6.9189h0.14849v6.1761h3.1199v-61.465zm11.376 12.522c-1.6002 0-2.8653 1.4148-2.8653 3.0562 0 1.7127 1.265 3.0562 2.8653 3.0562 1.6003 0 2.8653-1.3436 2.8653-3.0562 0-1.6414-1.265-3.0562-2.8653-3.0562zm-79.993 13.774c-3.4141 0-5.7134 2.0957-6.9615 5.221h-0.14849v-4.4569h-3.1411v34.405h3.1411v-17.573c0-5.0705-0.41239-14.453 6.622-14.453 0.82821 0 1.464 0.21198 2.2286 0.65794l1.6767-2.9714c-1.1243-0.52092-2.1616-0.82771-3.4171-0.82771zm20.141 0c-9.6839 0-15.748 7.6808-15.748 17.743 0 10.059 6.1317 18.168 15.876 18.168 4.7445 0 9.889-2.523 12.246-6.9189h0.14849v6.1761h3.1411v-34.405h-3.1411v5.9426h-0.14849c-2.7058-4.321-7.4268-6.7067-12.374-6.7067zm83.219 0c-9.324 0-16.682 8.1354-16.682 18.04 0 9.7624 7.4292 17.87 16.682 17.87 9.4702 0 16.937-7.7469 16.937-17.955 0-10.205-7.4665-17.955-16.937-17.955zm-24.96 0.76406v34.405h3.1199v-34.405zm-58.407 2.3771c7.7951 0 12.883 6.2526 12.883 14.22 0 8.2671-4.4597 15.43-12.671 15.43-7.7913 0-12.671-7.1516-12.671-15.048 0-7.4465 5.0831-14.602 12.458-14.602zm35.954 0c7.7951 0 12.883 6.2526 12.883 14.22 0 8.2709-4.4597 15.43-12.671 15.43-7.8063 0-12.692-7.1516-12.692-15.048 0-7.4501 5.0931-14.602 12.48-14.602zm47.223 0c7.9338 0 13.987 6.4071 13.987 14.899 0 8.3459-6.1315 14.751-13.987 14.751-7.5964 0-13.371-6.9293-13.371-14.751 0-7.9674 5.7034-14.899 13.371-14.899z" fill="#fff" stroke-width="1.9985"/>
  <path d="m-153.8 120.83c-0.12711 0.0242-0.21224 0.11851-0.21224 0.2759 0 2.6421-42.661 41.789-42.661 41.789s0.55757 2.779 1.4008 3.0562c0.83197 0.28107 1.9423 0.28905 2.5044-0.82773 0.55463-1.113 2.8015-0.82774 2.8015-0.82774s-1.9586 0.81742-0.27592 1.3796c1.6639 0.55839 21.18-17.828 21.18-17.828 1.1168 1.96-34.297 75.804-33.745 74.687 0.55839-1.1168 2.5266 5.2781 3.0775 3.884 0.56213-1.3904 2.2224-1.6686 1.9526-0.55181-0.28107 1.1205-3.5868 8.8503-3.5868 8.8503l0.23347 1.6979 1.2098 0.70039 0.74284 0.46693 1.6767 0.55182 1.1673-0.29712h0.72161s1.9578 0.36879 1.6767-0.46694c-0.27356-0.8432 2.2442-5.7994 3.3533-5.5182 1.1205 0.28483 2.6531-0.1405 2.6531-0.97631 0-0.8357 0.0717-0.90745 1.1885-1.1885 0.48279-0.12851 2.1838-1.9961 1.804-0.0426l0.25467 1.231s1.6664 0.56495 2.2286-0.55183c1.3416-2.687 46.22-98.895 46.014-98.076 0.14149-0.52355 0.46575-1.9806 0.27591-2.8015-0.40474-1.6415-1.1258-1.373-1.6767-1.9314-0.55839-0.55839-1.6767 1.1037-1.6767 1.1037s-0.82489 1.3913-1.3796 0.55181c-0.56588-0.83946 0.27592-2.7804 0.27592-2.7804s-6.6913-3.9051-7.5345-3.9051c-0.83947 0-1.6555 0.2759-1.6555 0.2759l-1.6767-0.27587-0.29714-0.82773s-1.4652-0.93288-2.0163-0.82773zm-31.135 108.81-0.0212-0.1485-0.10612 0.67917c0.0576-0.20491 0.0973-0.37631 0.1273-0.53059z" fill="#176fc1" stroke-width="1.9985"/>
  <path d="m-114.47 134.94c-2.6758-0.0338-3.5452 2.235-4.2872 1.8677-2.4998-1.2217-5.0909-0.37005-7.9802 0.48814-14.162 4.2197-55.056 67.391-37.884 94.021 3.6501 5.6664 17.51 2.2977 20.843-0.70039 1.5927-1.4391-0.35886-2.3746 0.55181-2.1648 0.91068 0.19866 4.16-2.7166 4.16-2.7166s10.58-14.413 15.239-21.564c4.5197-6.9369 20.121-36.467 17.722-59.532-0.62584-6.0224-5.6864-9.6655-8.3623-9.6993zm-4.7117 22.539c0.99585-0.0578 2.0695 0.22662 3.1199 1.1249 7.2553 6.2322-18.093 44.649-19.42 46.396-8.6944 11.46-11.945 4.3384-12.013 0.14849-0.34478-19.656 19.247-41.084 20.503-42.257 1.1843 0.17607-0.2939 1.6393 0.59427 1.4857 1.6152-0.26608 1.8698-3.3853 2.653-4.3296 0.53591-0.64155 2.3723-2.4408 4.563-2.5681z" fill="#f68712" stroke-width="1.9985"/>
  <path d="m-79.431 139.34c-0.90639 0.0364-1.8811 0.19366-2.95 0.50937-9.0242 2.6758-16.103 3.7618-34.617 41.366-12.993 26.379-11.424 47.823-3.7566 52.719 4.8606 3.0881 12.775 1.8079 15.769-0.53059 12.36-9.6501 28.365-38.506 31.029-44.443 1.5253-3.3615-1.1673-1.422-1.1673-1.422s0.014-1.4611 1.7191-2.9077c1.1318-0.96689 9.772-21.083 9.296-31.985-0.31855-7.2179-2.9239-11.132-4.9664-12.14-1.6714-0.82074-3.4986 0.28737-4.7541-0.10613-0.93314-0.2867-2.8839-1.1703-5.6031-1.0612zm-2.6317 21.097c0.86371-0.0372 1.6682 0.0738 2.3559 0.31835 3.1405 1.113 3.1411 4.2661 3.1411 4.2661l-1.4644 6.537c0.97437 0-0.17427-0.0498 0.97631-0.23345 1.1617-0.19486-0.50437 2.4232-4.7541 13.01-4.9018 12.217-18.826 34.637-24.81 30.606-4.1036-2.762 0.87668-19.508 4.6692-29.544 5.1342-13.57 11.97-20.121 11.97-20.121 2.198-3.2716 5.3253-4.7277 7.9166-4.839z" fill="#ed1c24" stroke-width="1.9985"/>
  <path d="m-71.976 220.54c-4.0786 0.11851-11.758 2.462-11.758 2.462-1.1205 1.113-2.7804 5.0259-2.7804 5.8577 0 0.83571-2.795 1.1183-3.3533 1.6767-0.55839 0.55464-3.6082 5.7304-3.6082 5.7304s0.0352-0.28889 0.0212-0.38202c-0.0626 0.0576-0.27887 0.75443-0.87018 3.5656-1.1205 5.2991-14.224 19.515-13.392 20.905 0.3852 0.63969 1.4169 0.0216 2.4194-0.80651 0.15809 0.12151 0.44156 0.19906 0.93386 0.23347 0.64459 0.0488 1.1576-0.69657 2.7804-0.82773 6.6819-0.55839 33.463-31.473 32.068-37.608-0.14149-0.62492-1.1025-0.84604-2.462-0.80651z" fill="#8d198f" stroke-width="1.9985"/>
  <path d="m-25.85 117.63c-10.971-0.0394-23.815 0.49366-27.676 1.613-0.88819 0.26608-2.2568 1.0452-3.0138 2.8439-0.68956 1.6264-2.2374 0.12271-4.0326 1.6554-1.7988 1.544-4.045 8.9081-3.884 10.591 0.1499 1.6902 2.3227 2.4168 3.4171 2.7804 1.0906 0.36727 29.386-0.46764 30.689 0.74284 1.3079 1.218-1.2122 2.746-1.2946 3.8628-0.0899 1.1018-12.446 19.74-14.56 24.748-0.64834 1.5365-5.5751 0.3261-6.5794 2.0163-1.2892 2.136-2.4856 3.1663-2.6317 5.115-0.0937 1.1767-4.0414 1.6434-3.884 3.0562 0.17607 1.4091 0.19905 8.399 1.2522 9.3172 1.0568 0.91443 2.9714 1.3371 2.9714 1.3371-3.7027 11.659-10.48 27.446-7.9166 48.878 0.27358 2.3611 1.6979-4.075 1.6979-4.075s3.5656 8.3825 3.7566 5.8791c1.0418-13.66 8.6756-44.062 17.149-52.635 1.8101-1.8213 7.4793-1.6868 16.215-3.5232 10.145-2.1286 11.418-10.272 11.418-10.272s-1.2257-0.79084-1.6979-1.9526c-0.47219-1.143 1.0882-1.4843 1.9314-1.6979 0.86568-0.20986 2.2078-5.0959 1.3159-5.7518-2.1174-1.559-14.067 1.1451-15.154 0.78528-1.0831-0.35975 16.041-24.312 17.128-26.636 1.0044-2.1586 1.3059-2.4078 1.3583-3.2472 0.0674-0.82445 2.2923-4.311 2.1648-6.2822-0.1311-1.96-0.7825-0.88465-1.2734-1.7616-0.49093-0.88069 0.46076-4.9594-1.7616-6.2822-1.1674-0.7001-8.5733-1.073-17.106-1.1036z" fill="#008940" stroke-width="1.9985"/>
 </g>
</svg>
