<svg version="1.1" viewBox="0 0 289.54 139.23" xml:space="preserve" xmlns="http://www.w3.org/2000/svg"><defs><clipPath id="a"><path d="M 0,595.276 H 841.89 V 0 H 0 Z"/></clipPath></defs><g transform="matrix(1.3333 0 0 -1.3333 -339.62 428.75)"><g clip-path="url(#a)"><g transform="translate(261.74,298.45)"><path d="m0 0c3.867 0 7.015 3.147 7.015 7.013 0 3.871-3.148 7.018-7.015 7.018-3.87 0-7.017-3.147-7.017-7.018 0-3.866 3.147-7.013 7.017-7.013" fill="#231f20"/></g><g transform="translate(261.74,275.95)"><path d="m0 0c3.867 0 7.015 3.146 7.015 7.014 0 3.869-3.148 7.019-7.015 7.019-3.87 0-7.017-3.15-7.017-7.019 0-3.868 3.147-7.014 7.017-7.014" fill="#231f20"/></g><g transform="translate(304.51,309.1)"><path d="m0 0h-14.782v-14.397h14.782c4.561 0 7.31 3.021 7.31 7.199 0 4.176-2.749 7.198-7.31 7.198m2.308-17.091 7.145-14.618c0.109-0.218 0.218-0.493 0.218-0.769 0-0.824-0.659-1.592-1.593-1.592-0.824 0-1.209 0.329-1.538 0.933l-7.749 15.773h-13.573v-15.059c0-0.933-0.66-1.647-1.648-1.647-0.936 0-1.65 0.714-1.65 1.647v33.742c0 0.933 0.769 1.649 1.65 1.649h15.77c7.255 0 11.267-4.342 11.267-10.166 0-5.001-2.914-8.903-8.299-9.893" fill="#231f20"/></g><g transform="translate(345.67,320.91)"><path d="m0 0c0.273 0.33 0.769 0.66 1.319 0.66 0.824 0 1.374-0.66 1.374-1.265 0-0.494-0.111-0.714-0.441-1.099l-3.021-3.243c-0.494-0.55-0.825-0.768-1.319-0.768-0.769 0-1.374 0.603-1.374 1.263 0 0.385 0.165 0.715 0.44 1.045zm6.266-31.874-8.189 18.849-8.188-18.849zm8.626-11.759c0.111-0.221 0.22-0.494 0.22-0.77 0-0.824-0.603-1.483-1.592-1.483-0.825 0-1.265 0.493-1.485 1.042l-4.506 10.058h-18.905l-4.505-10.058c-0.22-0.549-0.661-1.042-1.485-1.042-0.988 0-1.594 0.659-1.594 1.483 0 0.276 0.111 0.549 0.222 0.77l15.276 34.125c0.329 0.715 0.769 1.099 1.539 1.099 0.769 0 1.209-0.384 1.538-1.099z" fill="#231f20"/></g><g transform="translate(386,309.1)"><path d="m0 0h-8.572v-30.664h8.572c9.562 0 15.167 6.704 15.167 15.332s-5.605 15.332-15.167 15.332m0.22-33.632h-10.442c-0.989 0-1.648 0.77-1.648 1.65v33.301c0 0.933 0.715 1.649 1.648 1.649h10.442c11.1 0 18.245-8.078 18.245-18.3s-7.145-18.3-18.245-18.3" fill="#231f20"/></g><g transform="translate(419.57,275.03)"><path d="m0 0c-0.934 0-1.649 0.715-1.649 1.649v34.18c0 0.936 0.715 1.65 1.649 1.65s1.649-0.714 1.649-1.65v-34.18c0-0.934-0.715-1.649-1.649-1.649" fill="#231f20"/></g><g transform="translate(453.53,309.81)"><path d="m0 0c-9.453 0-15.168-7.638-15.168-16.048 0-8.407 5.715-16.045 15.168-16.045 9.452 0 15.058 7.638 15.058 16.045 0 8.41-5.606 16.048-15.058 16.048m0-35.006c-10.989 0-18.465 8.739-18.465 18.958 0 10.222 7.476 18.961 18.465 18.961 10.99 0 18.355-8.739 18.355-18.961 0-10.219-7.365-18.958-18.355-18.958" fill="#231f20"/></g><path d="m286.43 220.66h24.949v-3.518h-24.949z" fill="#ed1c24"/><g transform="translate(538.42,305.74)"><path d="m-193.74-54.088h-16.762v-8.573h9.342c1.705 0 3.078-1.427 3.078-3.187 0-1.759-1.373-3.133-3.078-3.133h-9.342v-12.475c0-1.867-1.481-3.35-3.351-3.35-1.867 0-3.35 1.483-3.35 3.35v30.336c0 1.869 1.483 3.352 3.35 3.352h20.113c1.759 0 3.133-1.374 3.133-3.132 0-1.76-1.43-3.188-3.133-3.188" fill="#ed1c24"/></g><g transform="translate(585.62,275.03)"><path d="m-193.74-54.088c-1.759 0-3.132 1.43-3.132 3.133v18.3l-9.344-19.674c-0.547-1.154-1.537-1.759-2.746-1.759-1.319 0-2.142 0.55-2.748 1.759l-9.453 19.674v-18.245c0-1.704-1.429-3.188-3.186-3.188-1.705 0-3.134 1.484-3.134 3.188v31.158c0 1.703 1.32 3.133 3.134 3.133 1.482 0 2.361-0.878 2.967-1.979l12.42-25.771 12.309 25.771c0.552 1.154 1.593 1.979 2.913 1.979 1.979 0 3.188-1.319 3.188-3.187v-31.159c0-1.703-1.32-3.133-3.188-3.133" fill="#ed1c24"/></g></g></g></svg>
