<svg xmlns="http://www.w3.org/2000/svg" height="351.61" width="600" viewBox="0 0 158.75 93.03">
    <defs>
        <radialGradient id="a" gradientUnits="userSpaceOnUse" cy="0" cx="0" gradientTransform="translate(88.556 41.536) scale(47.319)" r="1">
            <stop stop-color="#fff" offset="0"/>
            <stop stop-color="#fff" offset=".053"/>
            <stop stop-color="#e0091d" offset=".491"/>
            <stop stop-color="#5a1917" offset="1"/>
        </radialGradient>
    </defs>
    <g color="#000">
        <path style="text-decoration-color:#000;font-variant-numeric:normal;solid-color:#000;text-decoration-line:none;font-variant-position:normal;mix-blend-mode:normal;block-progression:tb;font-feature-settings:normal;shape-padding:0;font-variant-alternates:normal;text-indent:0;font-variant-caps:normal;white-space:normal;text-decoration-style:solid;font-variant-ligatures:normal;isolation:auto;text-transform:none" d="M145.56 35.561l-.03-.027-.04-.038zM121.82 64.693c-.03 0 .33.309.33.378 0 .107-.26.382-.33.382-.08 0-.33-.272-.33-.382 0-.099.25-.378.33-.378z" fill="#ff0"/>
        <path style="text-decoration-color:#000;font-variant-numeric:normal;solid-color:#000;text-decoration-line:none;font-variant-position:normal;mix-blend-mode:normal;block-progression:tb;font-feature-settings:normal;shape-padding:0;font-variant-alternates:normal;text-indent:0;font-variant-caps:normal;white-space:normal;text-decoration-style:solid;font-variant-ligatures:normal;isolation:auto;text-transform:none" d="M78.401 0C57.355 0 39.612 14.027 33.885 33.236c-.294.101-.582.213-.867.334-1.009-.561-2.106-.95-3.273-.952H14.646c-3.008 0-5.92 1.129-8.168 2.954-2.308 1.87-4 4.606-4.522 7.629l-.011-.002L.183 53.303H.181l-.011.078c-.1.62-.17 1.292-.17 2 0 2.845 1.122 5.849 3.319 7.961 2.134 2.052 5.038 3.066 7.793 3.067l15.045.048h.004c.567-.001 1.118-.146 1.666-.285.465.101.93.206 1.407.208h.009c2.259 0 4.398-.812 6.337-1.962C42.607 81.195 59.091 93.03 78.401 93.03c18.096 0 33.789-10.352 41.479-25.46.56.436 1.22.744 1.94.744 1.46 0 2.82-1.119 3.15-2.621 1.23.421 2.51.687 3.76.687 1.72.001 3.22-.812 4.47-1.941 1.85 1.18 3.94 1.941 6.02 1.941h12.59a6.885 6.885 0 0 0 6.72-5.47v-.001c.19-.942.22-1.749.22-2.283 0-2.75-1.02-5.743-3.21-7.888l-.01-.008c-2-1.954-4.7-2.865-7.27-2.985l.39-2.117v-.001l.06-.336v-.004c.09-.724.11-1.353.11-1.85 0-2.825-1.11-5.777-3.24-7.861l-.02-.015c-2.11-2.05-5.02-3.085-7.77-3.085-1.74.002-3.25.83-4.5 1.976-1.85-1.194-3.94-1.976-6.06-1.976h-4.57C116.69 13.664 99.165 0 78.401 0z" fill="#fff"/>
    </g>
    <path d="M123.11 46.52c0 24.686-20.02 44.699-44.711 44.699S33.695 71.206 33.695 46.52c0-24.694 20.013-44.709 44.704-44.709S123.11 21.826 123.11 46.52"/>
    <path d="M38.779 46.519c0 21.916 17.771 39.686 39.689 39.686 21.922 0 39.692-17.77 39.692-39.686 0-21.921-17.77-39.689-39.692-39.689-21.918 0-39.689 17.768-39.689 39.689" fill="url(#a)"/>
    <path d="M23.802 44.482h-7.626c-.682 0-1.306.246-1.889.729-.567.481-.912 1.061-1.027 1.749l-.899 5.153c-.12.698.008 1.275.381 1.756.377.492.907.729 1.589.729h7.71c1.199 0 2.216.382 3.01 1.14.805.763 1.202 1.751 1.202 2.948 0 .295-.026.596-.078.912l-15.058-.047c-1.234 0-2.253-.387-3.047-1.153-.808-.776-1.21-1.779-1.21-3.018 0-.282.026-.578.078-.899L8.702 44.38c.233-1.38.928-2.537 2.093-3.481 1.163-.946 2.444-1.421 3.85-1.421H29.74c-.225 1.385-.925 2.576-2.086 3.562-1.16.982-2.446 1.468-3.852 1.442"/>
    <path stroke-linejoin="round" d="M23.802 44.482h-7.626c-.682 0-1.306.246-1.889.729-.567.481-.912 1.061-1.027 1.749l-.899 5.153c-.12.698.008 1.275.381 1.756.377.492.907.729 1.589.729h7.71c1.199 0 2.216.382 3.01 1.14.805.763 1.202 1.751 1.202 2.948 0 .295-.026.596-.078.912l-15.058-.047c-1.234 0-2.253-.387-3.047-1.153-.808-.776-1.21-1.779-1.21-3.018 0-.282.026-.578.078-.899L8.702 44.38c.233-1.38.928-2.537 2.093-3.481 1.163-.946 2.444-1.421 3.85-1.421H29.74c-.225 1.385-.925 2.576-2.086 3.562-1.16.982-2.446 1.468-3.852 1.442z" stroke="#000" stroke-linecap="round" stroke-width="10.098" fill="none"/>
    <path d="M46.798 45.702c.055-.379-.029-.698-.246-.954-.214-.262-.507-.39-.88-.39h-7.443c-.889 0-1.422.447-1.589 1.344-.06.373.026.687.232.946.217.256.518.394.878.394h7.443c.891 0 1.417-.449 1.605-1.34m5.37-1.286l-2.673 15.105c-1.228 0-2.263-.384-3.094-1.16-.829-.777-1.25-1.78-1.25-3.014 0-.282.034-.588.092-.896.112-.672-.026-1.244-.426-1.73-.405-.489-.951-.727-1.644-.727H38.02c-.698 0-1.331.23-1.898.703-.575.479-.912 1.054-1.027 1.754-.266 1.432-.943 2.632-2.043 3.612-1.106.975-2.381 1.458-3.811 1.458l2.669-15.105c.253-1.383.959-2.567 2.101-3.575 1.152-1.006 2.428-1.506 3.828-1.506h10.156c1.236 0 2.239.398 3.029 1.187.792.786 1.184 1.8 1.184 3.037 0 .394-.014.684-.04.857"/>
    <path stroke-linejoin="round" d="M46.798 45.702c.055-.379-.029-.698-.246-.954-.214-.262-.507-.39-.88-.39h-7.443c-.889 0-1.422.447-1.589 1.344-.06.373.026.687.232.946.217.256.518.394.878.394h7.443c.891 0 1.417-.449 1.605-1.34zm5.37-1.286l-2.673 15.105c-1.228 0-2.263-.384-3.094-1.16-.829-.777-1.25-1.78-1.25-3.014 0-.282.034-.588.092-.896.112-.672-.026-1.244-.426-1.73-.405-.489-.951-.727-1.644-.727H38.02c-.698 0-1.331.23-1.898.703-.575.479-.912 1.054-1.027 1.754-.266 1.432-.943 2.632-2.043 3.612-1.106.975-2.381 1.458-3.811 1.458l2.669-15.105c.253-1.383.959-2.567 2.101-3.575 1.152-1.006 2.428-1.506 3.828-1.506h10.156c1.236 0 2.239.398 3.029 1.187.792.786 1.184 1.8 1.184 3.037 0 .394-.014.684-.04.857z" stroke="#000" stroke-linecap="round" stroke-width="10.098" fill="none"/>
    <path d="M61.747 44.357c-1.199 0-2.216-.384-3.031-1.158-.818-.768-1.226-1.761-1.226-2.966 0-.282.034-.583.089-.894h15.183c1.226 0 2.24.395 3.029 1.182.797.789 1.179 1.803 1.179 3.036 0 .403-.011.685-.037.863l-.431 2.485c-.225 1.416-.938 2.59-2.127 3.515-1.192.938-2.499 1.393-3.936 1.393h-7.618c-.69 0-1.325.285-1.908.826-.593.546-.94 1.16-1.058 1.847-.682 1.777-1.375 2.953-2.067 3.536-1.14.967-2.404 1.472-3.782 1.498l1.338-7.668c.228-1.367.907-2.517 2.039-3.439 1.134-.917 2.399-1.372 3.805-1.372h8.778c.92 0 1.445-.45 1.592-1.341.143-.896-.23-1.343-1.119-1.343z"/>
    <path stroke-linejoin="round" d="M61.747 44.357c-1.199 0-2.216-.384-3.031-1.158-.818-.768-1.226-1.761-1.226-2.966 0-.282.034-.583.089-.894h15.183c1.226 0 2.24.395 3.029 1.182.797.789 1.179 1.803 1.179 3.036 0 .403-.011.685-.037.863l-.431 2.485c-.225 1.416-.938 2.59-2.127 3.515-1.192.938-2.499 1.393-3.936 1.393h-7.618c-.69 0-1.325.285-1.908.826-.593.546-.94 1.16-1.058 1.847-.682 1.777-1.375 2.953-2.067 3.536-1.14.967-2.404 1.472-3.782 1.498l1.338-7.668c.228-1.367.907-2.517 2.039-3.439 1.134-.917 2.399-1.372 3.805-1.372h8.778c.92 0 1.445-.45 1.592-1.341.143-.896-.23-1.343-1.119-1.343z" stroke="#000" stroke-linecap="round" stroke-width="10.098" fill="none"/>
    <path d="M80.815 44.424c.258-1.44.94-2.645 2.041-3.622 1.1-.972 2.378-1.466 3.815-1.466l-2.665 15.152c-.267 1.406-.954 2.598-2.068 3.573-1.118.974-2.375 1.466-3.779 1.466z"/>
    <path stroke-linejoin="round" d="M80.815 44.424c.258-1.44.94-2.645 2.041-3.622 1.1-.972 2.378-1.466 3.815-1.466l-2.665 15.152c-.267 1.406-.954 2.598-2.068 3.573-1.118.974-2.375 1.466-3.779 1.466z" stroke="#000" stroke-linecap="round" stroke-width="10.098" fill="none"/>
    <path d="M93.322 44.424c-1.236 0-2.234-.366-3.016-1.121-.771-.737-1.158-1.733-1.158-2.966 0-.285.027-.586.081-.907h20.261c-.26 1.382-.97 2.558-2.17 3.531-1.18.977-2.48 1.463-3.88 1.463-.69 0-1.32.28-1.89.821-.57.535-.93 1.157-1.03 1.845l-2.243 12.505h-5.13l2.2-12.505c.107-.688-.031-1.31-.415-1.845-.384-.539-.925-.821-1.61-.821"/>
    <path stroke-linejoin="round" d="M93.322 44.424c-1.236 0-2.234-.366-3.016-1.121-.771-.737-1.158-1.733-1.158-2.966 0-.285.027-.586.081-.907h20.261c-.26 1.382-.97 2.558-2.17 3.531-1.18.977-2.48 1.463-3.88 1.463-.69 0-1.32.28-1.89.821-.57.535-.93 1.157-1.03 1.845l-2.243 12.505h-5.13l2.2-12.505c.107-.688-.031-1.31-.415-1.845-.384-.539-.925-.821-1.61-.821z" stroke="#000" stroke-linecap="round" stroke-width="10.098" fill="none"/>
    <path d="M126.02 45.702c.06-.379-.02-.698-.23-.954-.21-.262-.52-.39-.89-.39h-7.44c-.88 0-1.42.447-1.59 1.344-.05.373.03.687.24.946.21.256.51.394.88.394h7.44c.89 0 1.42-.449 1.59-1.34m5.38-1.286l-2.67 15.105c-1.23 0-2.27-.384-3.09-1.16-.84-.777-1.25-1.78-1.25-3.014 0-.282.02-.588.09-.896.11-.672-.03-1.244-.43-1.73-.41-.489-.95-.727-1.65-.727h-5.15c-.69 0-1.32.23-1.89.703-.57.479-.92 1.054-1.04 1.754-.26 1.432-.94 2.632-2.04 3.612-1.11.975-2.37 1.458-3.8 1.458l2.66-15.105c.26-1.383.96-2.567 2.11-3.575 1.14-1.006 2.42-1.506 3.82-1.506h10.16c1.23 0 2.24.398 3.03 1.187.8.786 1.19 1.8 1.19 3.037 0 .394-.02.684-.05.857"/>
    <path stroke-linejoin="round" d="M126.02 45.702c.06-.379-.02-.698-.23-.954-.21-.262-.52-.39-.89-.39h-7.44c-.88 0-1.42.447-1.59 1.344-.05.373.03.687.24.946.21.256.51.394.88.394h7.44c.89 0 1.42-.449 1.59-1.34zm5.38-1.286l-2.67 15.105c-1.23 0-2.27-.384-3.09-1.16-.84-.777-1.25-1.78-1.25-3.014 0-.282.02-.588.09-.896.11-.672-.03-1.244-.43-1.73-.41-.489-.95-.727-1.65-.727h-5.15c-.69 0-1.32.23-1.89.703-.57.479-.92 1.054-1.04 1.754-.26 1.432-.94 2.632-2.04 3.612-1.11.975-2.37 1.458-3.8 1.458l2.66-15.105c.26-1.383.96-2.567 2.11-3.575 1.14-1.006 2.42-1.506 3.82-1.506h10.16c1.23 0 2.24.398 3.03 1.187.8.786 1.19 1.8 1.19 3.037 0 .394-.02.684-.05.857z" stroke="#000" stroke-linecap="round" stroke-width="10.098" fill="none"/>
    <path d="M151.81 59.522h-12.6c-1.21 0-2.2-.374-2.99-1.145-.79-.755-1.18-1.738-1.18-2.94 0-.316.02-.635.08-.951l2.67-15.15c1.21 0 2.2.381 2.99 1.147.78.763 1.18 1.746 1.18 2.953 0 .317-.01.635-.05.952l-1.37 7.429c-.11.701.03 1.315.41 1.861.39.549.92.828 1.61.828h5.17c1.23 0 2.23.374 3.01 1.132.77.761 1.15 1.756 1.15 2.987 0 .282-.01.58-.08.897"/>
    <path stroke-linejoin="round" d="M151.81 59.522h-12.6c-1.21 0-2.2-.374-2.99-1.145-.79-.755-1.18-1.738-1.18-2.94 0-.316.02-.635.08-.951l2.67-15.15c1.21 0 2.2.381 2.99 1.147.78.763 1.18 1.746 1.18 2.953 0 .317-.01.635-.05.952l-1.37 7.429c-.11.701.03 1.315.41 1.861.39.549.92.828 1.61.828h5.17c1.23 0 2.23.374 3.01 1.132.77.761 1.15 1.756 1.15 2.987 0 .282-.01.58-.08.897z" stroke="#000" stroke-linecap="round" stroke-width="10.098" fill="none"/>
    <path d="M23.802 44.482h-7.626c-.682 0-1.306.246-1.889.729-.567.481-.912 1.061-1.027 1.749l-.899 5.153c-.12.698.008 1.275.381 1.756.377.492.907.729 1.589.729h7.71c1.199 0 2.216.382 3.01 1.14.805.763 1.202 1.751 1.202 2.948 0 .295-.026.596-.078.912l-15.058-.047c-1.234 0-2.253-.387-3.047-1.153-.808-.776-1.21-1.779-1.21-3.018 0-.282.026-.578.078-.899L8.702 44.38c.233-1.38.928-2.537 2.093-3.481 1.163-.946 2.444-1.421 3.85-1.421H29.74c-.225 1.385-.925 2.576-2.086 3.562-1.16.982-2.446 1.468-3.852 1.442" fill="#fff"/>
    <path stroke-linejoin="round" d="M23.802 44.482h-7.626c-.682 0-1.306.246-1.889.729-.567.481-.912 1.061-1.027 1.749l-.899 5.153c-.12.698.008 1.275.381 1.756.377.492.907.729 1.589.729h7.71c1.199 0 2.216.382 3.01 1.14.805.763 1.202 1.751 1.202 2.948 0 .295-.026.596-.078.912l-15.058-.047c-1.234 0-2.253-.387-3.047-1.153-.808-.776-1.21-1.779-1.21-3.018 0-.282.026-.578.078-.899L8.702 44.38c.233-1.38.928-2.537 2.093-3.481 1.163-.946 2.444-1.421 3.85-1.421H29.74c-.225 1.385-.925 2.576-2.086 3.562-1.16.982-2.446 1.468-3.852 1.442z" stroke="#fff" stroke-linecap="round" stroke-width=".45" fill="none"/>
    <path d="M46.798 45.702c.055-.379-.029-.698-.246-.954-.214-.262-.507-.39-.88-.39h-7.443c-.889 0-1.422.447-1.589 1.344-.06.373.026.687.232.946.217.256.518.394.878.394h7.443c.891 0 1.417-.449 1.605-1.34m5.37-1.286l-2.673 15.105c-1.228 0-2.263-.384-3.094-1.16-.829-.777-1.25-1.78-1.25-3.014 0-.282.034-.588.092-.896.112-.672-.026-1.244-.426-1.73-.405-.489-.951-.727-1.644-.727H38.02c-.698 0-1.331.23-1.898.703-.575.479-.912 1.054-1.027 1.754-.266 1.432-.943 2.632-2.043 3.612-1.106.975-2.381 1.458-3.811 1.458l2.669-15.105c.253-1.383.959-2.567 2.101-3.575 1.152-1.006 2.428-1.506 3.828-1.506h10.156c1.236 0 2.239.398 3.029 1.187.792.786 1.184 1.8 1.184 3.037 0 .394-.014.684-.04.857" fill="#fff"/>
    <path stroke-linejoin="round" d="M46.798 45.702c.055-.379-.029-.698-.246-.954-.214-.262-.507-.39-.88-.39h-7.443c-.889 0-1.422.447-1.589 1.344-.06.373.026.687.232.946.217.256.518.394.878.394h7.443c.891 0 1.417-.449 1.605-1.34zm5.37-1.286l-2.673 15.105c-1.228 0-2.263-.384-3.094-1.16-.829-.777-1.25-1.78-1.25-3.014 0-.282.034-.588.092-.896.112-.672-.026-1.244-.426-1.73-.405-.489-.951-.727-1.644-.727H38.02c-.698 0-1.331.23-1.898.703-.575.479-.912 1.054-1.027 1.754-.266 1.432-.943 2.632-2.043 3.612-1.106.975-2.381 1.458-3.811 1.458l2.669-15.105c.253-1.383.959-2.567 2.101-3.575 1.152-1.006 2.428-1.506 3.828-1.506h10.156c1.236 0 2.239.398 3.029 1.187.792.786 1.184 1.8 1.184 3.037 0 .394-.014.684-.04.857z" stroke="#fff" stroke-linecap="round" stroke-width=".45" fill="none"/>
    <path d="M61.747 44.357c-1.199 0-2.216-.384-3.031-1.158-.818-.768-1.226-1.761-1.226-2.966 0-.282.034-.583.089-.894h15.183c1.226 0 2.24.395 3.029 1.182.797.789 1.179 1.803 1.179 3.036 0 .403-.011.685-.037.863l-.431 2.485c-.225 1.416-.938 2.59-2.127 3.515-1.192.938-2.499 1.393-3.936 1.393h-7.618c-.69 0-1.325.285-1.908.826-.593.546-.94 1.16-1.058 1.847-.682 1.777-1.375 2.953-2.067 3.536-1.14.967-2.404 1.472-3.782 1.498l1.338-7.668c.228-1.367.907-2.517 2.039-3.439 1.134-.917 2.399-1.372 3.805-1.372h8.778c.92 0 1.445-.45 1.592-1.341.143-.896-.23-1.343-1.119-1.343z" fill="#fff"/>
    <path stroke-linejoin="round" d="M61.747 44.357c-1.199 0-2.216-.384-3.031-1.158-.818-.768-1.226-1.761-1.226-2.966 0-.282.034-.583.089-.894h15.183c1.226 0 2.24.395 3.029 1.182.797.789 1.179 1.803 1.179 3.036 0 .403-.011.685-.037.863l-.431 2.485c-.225 1.416-.938 2.59-2.127 3.515-1.192.938-2.499 1.393-3.936 1.393h-7.618c-.69 0-1.325.285-1.908.826-.593.546-.94 1.16-1.058 1.847-.682 1.777-1.375 2.953-2.067 3.536-1.14.967-2.404 1.472-3.782 1.498l1.338-7.668c.228-1.367.907-2.517 2.039-3.439 1.134-.917 2.399-1.372 3.805-1.372h8.778c.92 0 1.445-.45 1.592-1.341.143-.896-.23-1.343-1.119-1.343z" stroke="#fff" stroke-linecap="round" stroke-width=".45" fill="none"/>
    <path d="M80.815 44.424c.258-1.44.94-2.645 2.041-3.622 1.1-.972 2.378-1.466 3.815-1.466l-2.665 15.152c-.267 1.406-.954 2.598-2.068 3.573-1.118.974-2.375 1.466-3.779 1.466z" fill="#fff"/>
    <path stroke-linejoin="round" d="M80.815 44.424c.258-1.44.94-2.645 2.041-3.622 1.1-.972 2.378-1.466 3.815-1.466l-2.665 15.152c-.267 1.406-.954 2.598-2.068 3.573-1.118.974-2.375 1.466-3.779 1.466z" stroke="#fff" stroke-linecap="round" stroke-width=".45" fill="none"/>
    <path d="M93.322 44.424c-1.236 0-2.234-.366-3.016-1.121-.771-.737-1.158-1.733-1.158-2.966 0-.285.027-.586.081-.907h20.261c-.26 1.382-.97 2.558-2.17 3.531-1.18.977-2.48 1.463-3.88 1.463-.69 0-1.32.28-1.89.821-.57.535-.93 1.157-1.03 1.845l-2.243 12.505h-5.13l2.2-12.505c.107-.688-.031-1.31-.415-1.845-.384-.539-.925-.821-1.61-.821" fill="#fff"/>
    <path stroke-linejoin="round" d="M93.322 44.424c-1.236 0-2.234-.366-3.016-1.121-.771-.737-1.158-1.733-1.158-2.966 0-.285.027-.586.081-.907h20.261c-.26 1.382-.97 2.558-2.17 3.531-1.18.977-2.48 1.463-3.88 1.463-.69 0-1.32.28-1.89.821-.57.535-.93 1.157-1.03 1.845l-2.243 12.505h-5.13l2.2-12.505c.107-.688-.031-1.31-.415-1.845-.384-.539-.925-.821-1.61-.821z" stroke="#fff" stroke-linecap="round" stroke-width=".45" fill="none"/>
    <path d="M126.02 45.702c.06-.379-.02-.698-.23-.954-.21-.262-.52-.39-.89-.39h-7.44c-.88 0-1.42.447-1.59 1.344-.05.373.03.687.24.946.21.256.51.394.88.394h7.44c.89 0 1.42-.449 1.59-1.34m5.38-1.286l-2.67 15.105c-1.23 0-2.27-.384-3.09-1.16-.84-.777-1.25-1.78-1.25-3.014 0-.282.02-.588.09-.896.11-.672-.03-1.244-.43-1.73-.41-.489-.95-.727-1.65-.727h-5.15c-.69 0-1.32.23-1.89.703-.57.479-.92 1.054-1.04 1.754-.26 1.432-.94 2.632-2.04 3.612-1.11.975-2.37 1.458-3.8 1.458l2.66-15.105c.26-1.383.96-2.567 2.11-3.575 1.14-1.006 2.42-1.506 3.82-1.506h10.16c1.23 0 2.24.398 3.03 1.187.8.786 1.19 1.8 1.19 3.037 0 .394-.02.684-.05.857" fill="#fff"/>
    <path stroke-linejoin="round" d="M126.02 45.702c.06-.379-.02-.698-.23-.954-.21-.262-.52-.39-.89-.39h-7.44c-.88 0-1.42.447-1.59 1.344-.05.373.03.687.24.946.21.256.51.394.88.394h7.44c.89 0 1.42-.449 1.59-1.34zm5.38-1.286l-2.67 15.105c-1.23 0-2.27-.384-3.09-1.16-.84-.777-1.25-1.78-1.25-3.014 0-.282.02-.588.09-.896.11-.672-.03-1.244-.43-1.73-.41-.489-.95-.727-1.65-.727h-5.15c-.69 0-1.32.23-1.89.703-.57.479-.92 1.054-1.04 1.754-.26 1.432-.94 2.632-2.04 3.612-1.11.975-2.37 1.458-3.8 1.458l2.66-15.105c.26-1.383.96-2.567 2.11-3.575 1.14-1.006 2.42-1.506 3.82-1.506h10.16c1.23 0 2.24.398 3.03 1.187.8.786 1.19 1.8 1.19 3.037 0 .394-.02.684-.05.857z" stroke="#fff" stroke-linecap="round" stroke-width=".45" fill="none"/>
    <path d="M151.81 59.522h-12.6c-1.21 0-2.2-.374-2.99-1.145-.79-.755-1.18-1.738-1.18-2.94 0-.316.02-.635.08-.951l2.67-15.15c1.21 0 2.2.381 2.99 1.147.78.763 1.18 1.746 1.18 2.953 0 .317-.01.635-.05.952l-1.37 7.429c-.11.701.03 1.315.41 1.861.39.549.92.828 1.61.828h5.17c1.23 0 2.23.374 3.01 1.132.77.761 1.15 1.756 1.15 2.987 0 .282-.01.58-.08.897" fill="#fff"/>
    <path stroke-linejoin="round" d="M151.81 59.522h-12.6c-1.21 0-2.2-.374-2.99-1.145-.79-.755-1.18-1.738-1.18-2.94 0-.316.02-.635.08-.951l2.67-15.15c1.21 0 2.2.381 2.99 1.147.78.763 1.18 1.746 1.18 2.953 0 .317-.01.635-.05.952l-1.37 7.429c-.11.701.03 1.315.41 1.861.39.549.92.828 1.61.828h5.17c1.23 0 2.23.374 3.01 1.132.77.761 1.15 1.756 1.15 2.987 0 .282-.01.58-.08.897z" stroke="#fff" stroke-linecap="round" stroke-width=".45" fill="none"/>
    <path d="M27.993 52.232H16.212v-5.104h11.781zM25.632 64.65s4.254-.016 4.774-.144c.518-.123-.345-.413-.345-.413l-2.32-.143-1.78-.058-.308.481zM49.192 64.57c.687.078 3.729.112 5.117-.013 1.393-.118-.013-.442-.013-.442l-2.491-.564-1.539.256-1.215.408s-.084.321.141.355M86.129 34.295c1.21-.065 5.807.079 6.921.089.629.003-2.987.525-2.987.525s-.946.194-1.022.194c-.092 0-2.29.35-2.29.35l-1.497-.139-1.132-.407s.798-.544 2.007-.612M121.83 64.993c.21 0 .39-.023.39-.256 0-.188-.2-.206-.36-.206h-.34v.462zm-.31.902h-.28v-1.586h.64c.4 0 .6.128.6.462 0 .277-.18.397-.42.429l.46.695h-.31l-.43-.677h-.26zm.3-2.007c-.66 0-1.16.491-1.16 1.184 0 .658.44 1.186 1.16 1.186.65 0 1.15-.483 1.15-1.186 0-.693-.5-1.184-1.15-1.184m0 2.616c-.87 0-1.48-.609-1.48-1.432 0-.857.68-1.43 1.48-1.43.79 0 1.48.573 1.48 1.43 0 .862-.69 1.432-1.48 1.432M74.325 22.828a.368.368 0 0 0-.073-.303.372.372 0 0 0-.293-.123l-2.388.013c-.293.003-.46.149-.512.429a.397.397 0 0 0 .086.311.34.34 0 0 0 .274.117l2.397-.01c.284 0 .454-.141.509-.434m1.722-.41l-.831 4.86c-.397 0-.734-.122-.995-.376a1.263 1.263 0 0 1-.413-.969c0-.092.01-.186.031-.288a.622.622 0 0 0-.146-.557c-.12-.154-.303-.232-.525-.232l-1.65.002a.95.95 0 0 0-.616.233.917.917 0 0 0-.332.57 1.95 1.95 0 0 1-.651 1.171c-.35.31-.758.473-1.218.473l.837-4.861c.078-.447.308-.826.671-1.155a1.857 1.857 0 0 1 1.234-.487l3.264-.013c.394-.005.718.123.972.372.253.253.379.58.381.98 0 .122-.002.216-.013.277"/>
    <path stroke-linejoin="round" d="M74.325 22.828a.368.368 0 0 0-.073-.303.372.372 0 0 0-.293-.123l-2.388.013c-.293.003-.46.149-.512.429a.397.397 0 0 0 .086.311.34.34 0 0 0 .274.117l2.397-.01c.284 0 .454-.141.509-.434zm1.722-.41l-.831 4.86c-.397 0-.734-.122-.995-.376a1.263 1.263 0 0 1-.413-.969c0-.092.01-.186.031-.288a.622.622 0 0 0-.146-.557c-.12-.154-.303-.232-.525-.232l-1.65.002a.95.95 0 0 0-.616.233.917.917 0 0 0-.332.57 1.95 1.95 0 0 1-.651 1.171c-.35.31-.758.473-1.218.473l.837-4.861c.078-.447.308-.826.671-1.155a1.857 1.857 0 0 1 1.234-.487l3.264-.013c.394-.005.718.123.972.372.253.253.379.58.381.98 0 .122-.002.216-.013.277z" stroke="#000" stroke-linecap="round" stroke-width="3.917" fill="none"/>
    <path d="M82.807 23.226a.798.798 0 0 0-.125-.599.6.6 0 0 0-.523-.258l-2.435.013-.424 2.401a.785.785 0 0 0 .123.591.585.585 0 0 0 .531.272l1.654-.005a.83.83 0 0 0 .601-.272 1.18 1.18 0 0 0 .334-.601zm-5.537 4.045l1.126-6.496 4.887-.021c.384-.006.721.122.975.376.245.248.379.575.379.97 0 .133 0 .219-.008.279l-.572 3.241a2.025 2.025 0 0 1-.654 1.15 1.819 1.819 0 0 1-1.231.478z"/>
    <path stroke-linejoin="round" d="M82.807 23.226a.798.798 0 0 0-.125-.599.6.6 0 0 0-.523-.258l-2.435.013-.424 2.401a.785.785 0 0 0 .123.591.585.585 0 0 0 .531.272l1.654-.005a.83.83 0 0 0 .601-.272 1.18 1.18 0 0 0 .334-.601zm-5.537 4.045l1.126-6.496 4.887-.021c.384-.006.721.122.975.376.245.248.379.575.379.97 0 .133 0 .219-.008.279l-.572 3.241a2.025 2.025 0 0 1-.654 1.15 1.819 1.819 0 0 1-1.231.478z" stroke="#000" stroke-linecap="round" stroke-width="3.917" fill="none"/>
    <path d="M86.649 22.369c.081-.468.298-.852.656-1.163.356-.308.761-.47 1.223-.478l-.841 4.869c-.076.46-.293.852-.654 1.163-.355.308-.765.47-1.217.473z"/>
    <path stroke-linejoin="round" d="M86.649 22.369c.081-.468.298-.852.656-1.163.356-.308.761-.47 1.223-.478l-.841 4.869c-.076.46-.293.852-.654 1.163-.355.308-.765.47-1.217.473z" stroke="#000" stroke-linecap="round" stroke-width="3.917" fill="none"/>
    <path d="M91.512 23.191l-.28 1.539a.819.819 0 0 0 .125.606c.118.173.293.262.534.262l1.651-.008c.23 0 .434-.087.609-.267a1.19 1.19 0 0 0 .322-.614l.269-1.529a.753.753 0 0 0-.128-.593.593.593 0 0 0-.526-.272l-1.646.008a.832.832 0 0 0-.601.267 1.1 1.1 0 0 0-.329.601m-2.02 2.396l.551-3.235c.081-.442.311-.821.674-1.148.371-.321.782-.488 1.231-.491l3.262-.013c.397 0 .729.128.982.374.248.258.374.583.374.985a1.05 1.05 0 0 1-.013.264l-.565 3.243a1.88 1.88 0 0 1-.661 1.15 1.77 1.77 0 0 1-1.226.491l-3.251.006c-.386 0-.726-.126-.982-.377-.269-.251-.397-.575-.405-.977 0-.081.013-.175.029-.272"/>
    <path stroke-linejoin="round" d="M91.512 23.191l-.28 1.539a.819.819 0 0 0 .125.606c.118.173.293.262.534.262l1.651-.008c.23 0 .434-.087.609-.267a1.19 1.19 0 0 0 .322-.614l.269-1.529a.753.753 0 0 0-.128-.593.593.593 0 0 0-.526-.272l-1.646.008a.832.832 0 0 0-.601.267 1.1 1.1 0 0 0-.329.601zm-2.02 2.396l.551-3.235c.081-.442.311-.821.674-1.148.371-.321.782-.488 1.231-.491l3.262-.013c.397 0 .729.128.982.374.248.258.374.583.374.985a1.05 1.05 0 0 1-.013.264l-.565 3.243a1.88 1.88 0 0 1-.661 1.15 1.77 1.77 0 0 1-1.226.491l-3.251.006c-.386 0-.726-.126-.982-.377-.269-.251-.397-.575-.405-.977 0-.081.013-.175.029-.272z" stroke="#000" stroke-linecap="round" stroke-width="3.917" fill="none"/>
    <path d="M67.457 21.204c-.259-.256-.588-.379-.983-.379l-4.884.019a1.781 1.781 0 0 0-.019.287c0 .384.128.695.398.951.253.243.58.364.972.364l2.791-.008c.285-.006.408.143.361.426-.042.29-.21.433-.51.441l-2.815.003a1.894 1.894 0 0 0-1.223.449 1.757 1.757 0 0 0-.658 1.108l-.411 2.467a1.862 1.862 0 0 0 1.205-.488c.228-.194.439-.565.661-1.137.045-.225.152-.429.343-.598.115-.115.245-.129.373-.168l.236.23 1.319 1.592c.369.449.892.671 1.555.671h1.336l-2.154-2.605h.395c.457 0 .881-.157 1.262-.452a1.71 1.71 0 0 0 .677-1.132l.131-.799c.015-.058.015-.147.015-.275 0-.397-.12-.721-.373-.967"/>
    <path stroke-linejoin="round" d="M67.457 21.204c-.259-.256-.588-.379-.983-.379l-4.884.019a1.781 1.781 0 0 0-.019.287c0 .384.128.695.398.951.253.243.58.364.972.364l2.791-.008c.285-.006.408.143.361.426-.042.29-.21.433-.51.441l-2.815.003a1.894 1.894 0 0 0-1.223.449 1.757 1.757 0 0 0-.658 1.108l-.411 2.467a1.862 1.862 0 0 0 1.205-.488c.228-.194.439-.565.661-1.137.045-.225.152-.429.343-.598.115-.115.245-.129.373-.168l.236.23 1.319 1.592c.369.449.892.671 1.555.671h1.336l-2.154-2.605h.395c.457 0 .881-.157 1.262-.452a1.71 1.71 0 0 0 .677-1.132l.131-.799c.015-.058.015-.147.015-.275 0-.397-.12-.721-.373-.967z" stroke="#000" stroke-linecap="round" stroke-width="3.917" fill="none"/>
    <path d="M74.325 22.828a.368.368 0 0 0-.073-.303.372.372 0 0 0-.293-.123l-2.388.013c-.293.003-.46.149-.512.429a.397.397 0 0 0 .086.311.34.34 0 0 0 .274.117l2.397-.01c.284 0 .454-.141.509-.434m1.722-.41l-.831 4.86c-.397 0-.734-.122-.995-.376a1.263 1.263 0 0 1-.413-.969c0-.092.01-.186.031-.288a.622.622 0 0 0-.146-.557c-.12-.154-.303-.232-.525-.232l-1.65.002a.95.95 0 0 0-.616.233.917.917 0 0 0-.332.57 1.95 1.95 0 0 1-.651 1.171c-.35.31-.758.473-1.218.473l.837-4.861c.078-.447.308-.826.671-1.155a1.857 1.857 0 0 1 1.234-.487l3.264-.013c.394-.005.718.123.972.372.253.253.379.58.381.98 0 .122-.002.216-.013.277" fill="#fff"/>
    <path stroke-linejoin="round" d="M74.325 22.828a.368.368 0 0 0-.073-.303.372.372 0 0 0-.293-.123l-2.388.013c-.293.003-.46.149-.512.429a.397.397 0 0 0 .086.311.34.34 0 0 0 .274.117l2.397-.01c.284 0 .454-.141.509-.434zm1.722-.41l-.831 4.86c-.397 0-.734-.122-.995-.376a1.263 1.263 0 0 1-.413-.969c0-.092.01-.186.031-.288a.622.622 0 0 0-.146-.557c-.12-.154-.303-.232-.525-.232l-1.65.002a.95.95 0 0 0-.616.233.917.917 0 0 0-.332.57 1.95 1.95 0 0 1-.651 1.171c-.35.31-.758.473-1.218.473l.837-4.861c.078-.447.308-.826.671-1.155a1.857 1.857 0 0 1 1.234-.487l3.264-.013c.394-.005.718.123.972.372.253.253.379.58.381.98 0 .122-.002.216-.013.277z" stroke="#fff" stroke-linecap="round" stroke-width=".154" fill="none"/>
    <path d="M82.807 23.226a.798.798 0 0 0-.125-.599.6.6 0 0 0-.523-.258l-2.435.013-.424 2.401a.785.785 0 0 0 .123.591.585.585 0 0 0 .531.272l1.654-.005a.83.83 0 0 0 .601-.272 1.18 1.18 0 0 0 .334-.601zm-5.537 4.045l1.126-6.496 4.887-.021c.384-.006.721.122.975.376.245.248.379.575.379.97 0 .133 0 .219-.008.279l-.572 3.241a2.025 2.025 0 0 1-.654 1.15 1.819 1.819 0 0 1-1.231.478z" fill="#fff"/>
    <path stroke-linejoin="round" d="M82.807 23.226a.798.798 0 0 0-.125-.599.6.6 0 0 0-.523-.258l-2.435.013-.424 2.401a.785.785 0 0 0 .123.591.585.585 0 0 0 .531.272l1.654-.005a.83.83 0 0 0 .601-.272 1.18 1.18 0 0 0 .334-.601zm-5.537 4.045l1.126-6.496 4.887-.021c.384-.006.721.122.975.376.245.248.379.575.379.97 0 .133 0 .219-.008.279l-.572 3.241a2.025 2.025 0 0 1-.654 1.15 1.819 1.819 0 0 1-1.231.478z" stroke="#fff" stroke-linecap="round" stroke-width=".154" fill="none"/>
    <path d="M86.649 22.369c.081-.468.298-.852.656-1.163.356-.308.761-.47 1.223-.478l-.841 4.869c-.076.46-.293.852-.654 1.163-.355.308-.765.47-1.217.473z" fill="#fff"/>
    <path stroke-linejoin="round" d="M86.649 22.369c.081-.468.298-.852.656-1.163.356-.308.761-.47 1.223-.478l-.841 4.869c-.076.46-.293.852-.654 1.163-.355.308-.765.47-1.217.473z" stroke="#fff" stroke-linecap="round" stroke-width=".154" fill="none"/>
    <path d="M91.512 23.191l-.28 1.539a.819.819 0 0 0 .125.606c.118.173.293.262.534.262l1.651-.008c.23 0 .434-.087.609-.267a1.19 1.19 0 0 0 .322-.614l.269-1.529a.753.753 0 0 0-.128-.593.593.593 0 0 0-.526-.272l-1.646.008a.832.832 0 0 0-.601.267 1.1 1.1 0 0 0-.329.601m-2.02 2.396l.551-3.235c.081-.442.311-.821.674-1.148.371-.321.782-.488 1.231-.491l3.262-.013c.397 0 .729.128.982.374.248.258.374.583.374.985a1.05 1.05 0 0 1-.013.264l-.565 3.243a1.88 1.88 0 0 1-.661 1.15 1.77 1.77 0 0 1-1.226.491l-3.251.006c-.386 0-.726-.126-.982-.377-.269-.251-.397-.575-.405-.977 0-.081.013-.175.029-.272" fill="#fff"/>
    <path stroke-linejoin="round" d="M91.512 23.191l-.28 1.539a.819.819 0 0 0 .125.606c.118.173.293.262.534.262l1.651-.008c.23 0 .434-.087.609-.267a1.19 1.19 0 0 0 .322-.614l.269-1.529a.753.753 0 0 0-.128-.593.593.593 0 0 0-.526-.272l-1.646.008a.832.832 0 0 0-.601.267 1.1 1.1 0 0 0-.329.601zm-2.02 2.396l.551-3.235c.081-.442.311-.821.674-1.148.371-.321.782-.488 1.231-.491l3.262-.013c.397 0 .729.128.982.374.248.258.374.583.374.985a1.05 1.05 0 0 1-.013.264l-.565 3.243a1.88 1.88 0 0 1-.661 1.15 1.77 1.77 0 0 1-1.226.491l-3.251.006c-.386 0-.726-.126-.982-.377-.269-.251-.397-.575-.405-.977 0-.081.013-.175.029-.272z" stroke="#fff" stroke-linecap="round" stroke-width=".154" fill="none"/>
    <path d="M67.457 21.204c-.259-.256-.588-.379-.983-.379l-4.884.019a1.781 1.781 0 0 0-.019.287c0 .384.128.695.398.951.253.243.58.364.972.364l2.791-.008c.285-.006.408.143.361.426-.042.29-.21.433-.51.441l-2.815.003a1.894 1.894 0 0 0-1.223.449 1.757 1.757 0 0 0-.658 1.108l-.411 2.467a1.862 1.862 0 0 0 1.205-.488c.228-.194.439-.565.661-1.137.045-.225.152-.429.343-.598.115-.115.245-.129.373-.168l.236.23 1.319 1.592c.369.449.892.671 1.555.671h1.336l-2.154-2.605h.395c.457 0 .881-.157 1.262-.452a1.71 1.71 0 0 0 .677-1.132l.131-.799c.015-.058.015-.147.015-.275 0-.397-.12-.721-.373-.967" fill="#fff"/>
    <path stroke-linejoin="round" d="M67.457 21.204c-.259-.256-.588-.379-.983-.379l-4.884.019a1.781 1.781 0 0 0-.019.287c0 .384.128.695.398.951.253.243.58.364.972.364l2.791-.008c.285-.006.408.143.361.426-.042.29-.21.433-.51.441l-2.815.003a1.894 1.894 0 0 0-1.223.449 1.757 1.757 0 0 0-.658 1.108l-.411 2.467a1.862 1.862 0 0 0 1.205-.488c.228-.194.439-.565.661-1.137.045-.225.152-.429.343-.598.115-.115.245-.129.373-.168l.236.23 1.319 1.592c.369.449.892.671 1.555.671h1.336l-2.154-2.605h.395c.457 0 .881-.157 1.262-.452a1.71 1.71 0 0 0 .677-1.132l.131-.799c.015-.058.015-.147.015-.275 0-.397-.12-.721-.373-.967z" stroke="#fff" stroke-linecap="round" stroke-width=".154" fill="none"/>
</svg>
