<svg version="1.1" viewBox="0 0 800 417.95" xmlns="http://www.w3.org/2000/svg">
 <path d="m784.29 366.88c-2.1293 5.0147-4.4064 9.3616-6.6392 14.257-5.5876 12.25-11.297 24.675-16.616 35.68h9.5219c1.5211-4.2856 4.7446-10.993 6.446-15.372h11.112c0.19275 1.4613 0.37792 5.2001 0.5516 7.3921 0.19274 2.1692 0.38288 4.8289 0.57575 7.9799h10.239l0.51535-5.0166s-2.4362-0.0164-3.0398-1.4857c-0.24747-1.2482-0.37953-2.1336-0.54757-3.1807-0.82991-4.468-0.72183-9.772-1.381-14.088-0.57271-3.76-0.93432-7.8647-1.4172-11.773-6e-3 -0.0454-0.014-0.0915-0.0201-0.1369-0.5866-4.7294-1.2674-9.3054-1.7192-14.257-1.4658 0.114-2.5557 0.19583-3.2693 0.24158-0.71358 0.0218-1.3838 0.0322-2.001 0.0322-1.9791-0.16525-0.29753-0.1622-2.311-0.27378zm-0.0845 14.394h2.5486c0.3665 4.2893 0.89408 8.3968 1.6829 14.208h-9.9648c2.0051-4.8142 3.8342-9.0399 5.7333-14.208z" fill="#0c3ea7"/>
 <rect x="2.5768" y="70.481" width="791.7" height="288.47" ry="55.792" fill="#ce142c" stroke="#0c3ea7" stroke-width="5.1535"/>
 <g fill="#fff">
  <rect x="444.25" y="2.5623" width="275.88" height="113.74" ry="25.756" stroke="#0c3ea7" stroke-width="5.1247"/>
  <path d="m99.575 147.29q0.4049 19.944 3.3738 46.087 2.9689 26.008 8.232 56.733 10.796-21.426 21.322-46.222 10.661-24.795 20.648-52.286l27.395-3.3689q2.9689 29.108 7.0175 54.981 4.0485 25.739 9.0417 48.243 12.281-25.334 21.052-49.86 8.9067-24.661 14.305-48.647l39.541-5.7946q-10.391 30.32-27.26 66.301-16.869 35.98-40.485 78.294h-32.928q-1.3495-21.965-4.3184-44.335-2.8339-22.504-7.2874-45.278-7.0174 14.284-16.734 37.058-9.5815 22.639-21.322 52.555h-35.492q-4.1835-35.441-10.931-70.209-6.7475-34.902-15.789-68.591z"/>
  <path d="m391.91 271.4-2.7563 16.306q-7.0287 2.1561-13.23 3.2342-6.064 1.0781-11.301 1.0781-8.9581 0-14.746-4.447-5.6505-4.5818-8.1312-13.745-14.333 9.5678-26.736 14.284-12.403 4.5818-23.842 4.5818-15.987 0-25.358-8.6245-9.3716-8.7592-9.3716-23.717 0-26.682 23.429-41.236 23.567-14.554 69.184-16.171l0.2759-2.1561q0.13771-0.94328 0.4135-2.8299 0.4135-3.6384 0.4135-5.7946 0-9.2982-6.8908-14.15-6.753-4.8513-19.846-4.8513-9.785 0-20.259 2.4256-10.474 2.2909-21.224 6.8726l5.6505-28.164q12.404-4.3122 24.118-6.3336 11.852-2.1561 23.567-2.1561 24.256 0 37.073 9.972 12.817 9.972 12.817 28.703 0 11.724-4.4101 35.711-4.2724 23.987-4.2724 35.711 0 7.9507 3.1698 11.724 3.3076 3.7732 10.061 3.7732zm-45.342-49.725q-24.394 0-38.589 8.355-14.195 8.2202-14.195 21.965 0 7.6812 4.6858 12.128 4.8236 4.447 13.093 4.447 6.753 0 14.333-2.6952 7.7177-2.8299 15.573-8.0854 0.82692-9.7026 2.0673-18.597 1.2403-9.0288 3.032-17.518z"/>
  <path d="m436.1 147.29q0.4049 19.944 3.3738 46.087 2.969 26.008 8.232 56.733 10.796-21.426 21.322-46.222 10.661-24.795 20.648-52.286l27.395-3.3689q2.9689 29.108 7.0175 54.981 4.0485 25.739 9.0417 48.243 12.281-25.334 21.052-49.86 8.9067-24.661 14.305-48.647l39.541-5.7946q-10.391 30.32-27.26 66.301-16.869 35.98-40.485 78.294h-32.928q-1.3495-21.965-4.3184-44.335-2.8339-22.504-7.2874-45.278-7.0174 14.284-16.734 37.058-9.5815 22.639-21.322 52.555h-35.492q-4.1835-35.441-10.931-70.209-6.7475-34.902-15.789-68.591z"/>
  <path d="m728.44 271.4-2.7563 16.306q-7.0287 2.1561-13.23 3.2342-6.064 1.0781-11.301 1.0781-8.9581 0-14.746-4.447-5.6505-4.5818-8.1312-13.745-14.333 9.5678-26.736 14.284-12.403 4.5818-23.842 4.5818-15.987 0-25.358-8.6245-9.3716-8.7592-9.3716-23.717 0-26.682 23.429-41.236 23.567-14.554 69.184-16.171l0.27589-2.1561q0.13771-0.94328 0.4135-2.8299 0.4135-3.6384 0.4135-5.7946 0-9.2982-6.8908-14.15-6.753-4.8513-19.846-4.8513-9.785 0-20.259 2.4256-10.474 2.2909-21.224 6.8726l5.6505-28.164q12.404-4.3122 24.118-6.3336 11.852-2.1561 23.567-2.1561 24.256 0 37.073 9.972 12.817 9.972 12.817 28.703 0 11.724-4.4101 35.711-4.2724 23.987-4.2724 35.711 0 7.9507 3.1698 11.724 3.3076 3.7732 10.061 3.7732zm-45.342-49.725q-24.394 0-38.589 8.355-14.195 8.2202-14.195 21.965 0 7.6812 4.6858 12.128 4.8236 4.447 13.093 4.447 6.753 0 14.333-2.6952 7.7177-2.8299 15.573-8.0854 0.82691-9.7026 2.0673-18.597 1.2403-9.0288 3.032-17.518z"/>
 </g>
 <g fill="#0c3ea7">
  <path d="m490.25 42.547 1.52 11.967q4.2053-6.0334 8.2079-8.8258 4.0026-2.8422 8.3093-2.8422 1.3173 0 2.6853 0.34904 1.4187 0.29918 2.7867 0.89753l-4.0026 12.865q-1.368-0.9474-2.736-1.3962-1.3173-0.44877-2.7866-0.44877-7.8026 0-11.299 8.1277-3.496 8.1277-4.7626 32.311h-15.808q3.6986-15.956 5.4213-27.724 1.7733-11.818 1.7733-20.494 0-1.6455-0.0509-2.3934 0-0.79781-0.0509-1.446h1.3173q2.432-0.04986 4.7626-0.24933 2.3813-0.24932 4.712-0.69808z"/>
  <path d="m558.62 89.474-1.0256 6.1183q-2.6153 0.80904-4.9229 1.2136-2.2563 0.40452-4.205 0.40452-3.3332 0-5.487-1.6686-2.1025-1.7192-3.0255-5.1576-5.3331 3.5901-9.9484 5.3599-4.6152 1.7192-8.8714 1.7192-5.9485 0-9.4356-3.2361-3.487-3.2867-3.487-8.8994 0-10.012 8.7176-15.473 8.7689-5.461 25.743-6.0678l0.10245-0.80904q0.0515-0.35395 0.15399-1.0619 0.15399-1.3652 0.15399-2.1743 0-3.489-2.564-5.3093-2.5127-1.8203-7.3843-1.8203-3.6409 0-7.5382 0.91017-3.8973 0.8596-7.8971 2.5788l2.1025-10.568q4.6152-1.6181 8.974-2.3765 4.4101-0.80903 8.7689-0.80903 9.0253 0 13.794 3.7418 4.769 3.7418 4.769 10.77 0 4.3991-1.6409 13.4-1.5897 9.0005-1.5897 13.4 0 2.9833 1.1795 4.3991 1.2307 1.4158 3.7434 1.4158zm-16.871-18.658q-9.0766 0-14.358 3.135-5.2818 3.0844-5.2818 8.242 0 2.8822 1.7435 4.5508 1.7948 1.6686 4.8716 1.6686 2.5127 0 5.3331-1.0113 2.8717-1.0619 5.7946-3.0339 0.3077-3.6407 0.76921-6.9779 0.46151-3.3878 1.1282-6.5734z"/>
  <path d="m599.86 56.703q-2.5999-1.7959-5.3037-2.6683-2.7039-0.87231-5.5637-0.87231-6.9676 0-11.283 5.6957-4.2637 5.6957-4.2637 15.086 0 6.4141 2.8598 10.314 2.8599 3.8998 7.4876 3.8998 7.4356 0 11.179-7.2351 3.7958-7.2864 4.8878-24.22zm19.915-38.638q-4.8357 26.426-7.2796 45.104-2.3919 18.678-2.3919 29.505 0 1.0776 0.0517 2.2064 0.0522 1.1289 0.15605 2.9248l-11.699 0.10264-1.7159-7.5429q-4.1598 4.3103-9.0475 6.6193-4.8877 2.3091-10.035 2.3091-8.5795 0-13.571-6.3114-4.9397-6.3114-4.9397-17.241 0-14.368 7.7996-23.552 7.7996-9.2363 19.759-9.2363 3.6918 0 7.2276 1.1289 3.5878 1.1289 7.1756 3.4892 0.77998-7.0298 1.3519-13.752 0.57198-6.7733 0.88398-13.136 4.2118-0.35919 8.3195-0.97494 4.1078-0.66706 7.9556-1.642z"/>
  <path d="m640.59 42.647q-2.8233 13.064-4.6877 26.328-1.8111 13.214-2.6102 26.577h-16.46q3.7288-16.754 5.4867-28.621 1.8111-11.917 1.8111-19.995 0-0.54849-0.0532-1.5956-0.0534-1.0471-0.0534-1.5458 3.8886 0 8.0436-0.29918 4.155-0.29918 8.523-0.84767zm-4.155-23.585q3.569 0 5.5932 1.8449 2.0775 1.8449 2.0775 5.086 0 3.7896-2.8765 6.5819-2.8765 2.7425-6.8717 2.7425-3.3027 0-5.3269-2.0444-1.971-2.0444-1.971-5.4351 0-3.8395 2.6102-6.2827 2.6634-2.4932 6.7651-2.4932z"/>
  <path d="m681.12 65.967q0-6.4499-2.854-9.8526-2.854-3.4535-8.2052-3.4535-6.4215 0-10.295 5.8405-3.8223 5.8405-3.8223 15.693 0 6.5007 2.803 9.9034 2.803 3.4027 8.1543 3.4027 6.4725 0 10.346-5.8405 3.8733-5.8405 3.8733-15.693zm-10.244-23.819q11.263 0 17.685 6.3991 6.4215 6.3991 6.4215 17.623 0 14.423-8.0524 23.26-8.0014 8.7861-21.15 8.7861-11.059 0-17.379-6.3483-6.3196-6.3991-6.3196-17.572 0-14.474 7.9504-23.311 7.9504-8.8369 20.844-8.8369z"/>
  <path d="m9.6473 367.43h28.745q0.0664 2.2605 0.23235 3.836 0.16596 1.5413 0.4647 2.9112-5.8751 7.3295-12.182 15.823-6.2734 8.4597-13.974 19.454 0.76343 0.0344 1.5932 0.0686 0.82982 0 2.2571 0 5.2444 0 9.7586-0.37675 4.5474-0.37674 8.3313-1.096l-2.5226 8.768h-30.77q-0.13277-1.5755-0.36511-3.151-0.26555-1.5755-0.69705-3.151 6.3398-7.7405 13.045-16.645 6.7381-8.9392 14.04-19.283h-2.3899q-6.041 0-10.456 0.3425-4.3814 0.30824-7.6343 0.99325z"/>
  <path d="m85.36 367.43h9.9451q0 0.4795-0.0297 1.1302 0 0.61648 0 1.9522 0 5.343 0.50468 13.871 0.53436 8.5282 1.5437 19.865 3.0874-8.4598 6.1155-17.673 3.028-9.2475 5.9373-19.146h6.3826q0.83122 11.131 1.7515 20.447 0.94998 9.2817 1.9593 16.954 3.889-11.748 6.5904-21.098 2.7015-9.3844 4.1561-16.303h9.1138q-4.5421 12.056-8.7873 24.454-4.2452 12.364-8.1045 24.934h-9.0544q-0.50468-6.5075-1.3656-14.693-0.86092-8.22-2.0484-17.639-2.7609 8.2542-5.3436 16.303-2.5827 8.0145-5.0467 16.029h-9.1732q-0.62342-11.987-1.9-24.352-1.2468-12.364-3.1468-25.037z"/>
  <path d="m171.59 367.95c-1.6062-0.46127-3.1717-0.84661-4.6543-1.071-1.6596-0.274-3.2522-0.41067-4.7791-0.41067-5.0895 0-9.2605 1.4163-12.513 4.2476-3.2307 2.8085-4.8475 6.3928-4.8475 10.754 0 2.3062 0.55238 4.4286 1.6588 6.3694 1.1064 1.9408 2.8905 3.9038 5.3468 5.8903 0.64172 0.52516 1.559 1.2353 2.7539 2.1258 3.6512 2.7171 5.4756 5.1947 5.4756 7.4323 0 2.1692-0.75396 3.8454-2.2587 5.0328-1.4826 1.1645-3.6034 1.7474-6.3694 1.7474-1.7481 0-3.4637-0.21441-5.1455-0.64823-1.6818-0.45669-3.2986-1.1213-4.8475-1.9889l0.0684 8.5275c1.7039 0.61651 3.4154 1.0761 5.1414 1.3729 1.7481 0.31969 3.5222 0.47914 5.3146 0.47914 5.5542 0 10.012-1.4619 13.375-4.3845 3.3856-2.9455 5.077-6.7938 5.077-11.543 0-2.5573-0.56246-4.7709-1.691-6.6432-1.1064-1.8723-3.5619-4.2038-7.3679-6.9895-2.8324-2.055-4.6609-3.6174-5.4796-4.6905-0.79663-1.0732-1.1918-2.2161-1.1918-3.4263 0-1.8495 0.72978-3.3208 2.1902-4.4167 1.4605-1.1188 3.4079-1.6789 5.842-1.6789 1.4162 0 2.8758 0.21841 4.3805 0.65225 0.82652 0.22574 1.6307 0.66485 2.4439 1.0146z"/>
  <path d="m223.36 367.43h26.123l0.33195 8.22q-2.8546-0.51374-5.9415-0.75346-3.0869-0.23977-6.373-0.23977h-4.2818l-1.7592 12.433h16.032l-2.5226 7.8433q-2.6886-0.34253-5.6427-0.51375-2.9541-0.17151-6.2402-0.17151h-2.589l-2.0247 15.344h4.1491q3.618 0 6.9704-0.23974 3.3857-0.27401 6.539-0.82199l-2.589 8.2885h-26.986q2.6886-11.268 4.3814-23.632 1.726-12.364 2.4231-25.756z"/>
  <path d="m289.96 391.44q0.13275 0 0.36511 0 1.6596 0.13709 2.4231 0.13709 5.51 0 8.2649-2.5345 2.755-2.5688 2.755-7.6378 0-3.425-2.1575-5.0347-2.1243-1.644-6.6053-1.644-0.86303 0-1.4605 0.0344-0.56427 0-1.0954 0.0342-0.99579 5.754-1.56 9.59-0.56429 3.8017-0.9294 7.0555zm-7.3355-24.009h6.1074q8.5305 0 11.85 0.3425 3.3192 0.3425 5.5764 1.1302 3.5848 1.3358 5.4436 4.2812 1.892 2.9112 1.892 7.2267 0 8.8022-5.51 13.529-5.51 4.7265-15.833 4.7265-0.49787 0-2.0579-0.10286-0.63065-0.0342-0.99578-0.0686-0.39831 2.74-0.8298 7.1924-0.39831 4.4182-0.89622 11.131h-11.551q2.6886-11.268 4.3814-23.632 1.726-12.364 2.4231-25.756z"/>
  <path d="m347.92 387.36q0-6.1992-2.4052-9.4872-2.4052-3.288-6.9344-3.288-5.8099 0-9.4021 6.165-3.5609 6.1307-3.5609 16.2 0 6.1992 2.3739 9.4872 2.374 3.288 6.8407 3.288 5.8724 0 9.4645-6.0965 3.6234-6.1307 3.6234-16.269zm-8.6836-20.995q8.465 0 13.275 5.5485 4.8416 5.5484 4.8416 15.31 0 5.9252-1.4056 11.234-1.3744 5.2745-4.0607 9.453-3.0299 4.8292-7.6216 7.398-4.5917 2.5687-10.152 2.5687-8.3712 0-13.15-5.5142-4.7478-5.5485-4.7478-15.241 0-5.8225 1.4056-11.131 1.4056-5.343 4.0919-9.6585 2.9987-4.7608 7.5279-7.3637 4.5605-2.603 9.9956-2.603z"/>
  <path d="m370.92 367.43h11.883q-2.0912 10.343-3.618 19.591-1.5269 9.2474-2.4895 17.604l-0.53106 4.6922h4.8129q3.5516 0 7.07-0.23974 3.5516-0.274 7.2028-0.82199l-2.6554 8.5625h-28.479q2.6886-11.268 4.3814-23.632 1.726-12.364 2.423-25.756z"/>
  <path d="m427.96 367.95c-1.6062-0.46127-3.1717-0.84661-4.6543-1.071-1.6596-0.274-3.2522-0.41067-4.7791-0.41067-5.0895 0-9.2605 1.4163-12.513 4.2476-3.2308 2.8085-4.8476 6.3928-4.8476 10.754 0 2.3062 0.55237 4.4286 1.6588 6.3694 1.1064 1.9408 2.8905 3.9038 5.3468 5.8903 0.64172 0.52516 1.559 1.2353 2.7539 2.1258 3.6512 2.7171 5.4756 5.1947 5.4756 7.4323 0 2.1692-0.75396 3.8454-2.2587 5.0328-1.4826 1.1645-3.6034 1.7474-6.3694 1.7474-1.7481 0-3.4637-0.21441-5.1455-0.64823-1.6818-0.45669-3.2986-1.1213-4.8475-1.9889l0.0684 8.5275c1.7039 0.61651 3.4154 1.0761 5.1414 1.3729 1.7481 0.31969 3.5222 0.47914 5.3146 0.47914 5.5542 0 10.011-1.4619 13.375-4.3845 3.3856-2.9455 5.077-6.7938 5.077-11.543 0-2.5573-0.56246-4.7709-1.691-6.6432-1.1064-1.8723-3.5618-4.2038-7.3679-6.9895-2.8324-2.055-4.6609-3.6174-5.4797-4.6905-0.79661-1.0732-1.1917-2.2161-1.1917-3.4263 0-1.8495 0.72976-3.3208 2.1902-4.4167 1.4605-1.1188 3.4079-1.6789 5.842-1.6789 1.4162 0 2.8758 0.21841 4.3805 0.65225 0.82653 0.22574 1.6307 0.66485 2.4439 1.0146z"/>
  <path d="m450.6 400.04c-0.2853-0.48414-0.25737-0.52457-0.65223-1.1032-0.0559-0.0818-0.15172-0.11894-0.20936-0.20119 0.28567 0.44557 0.58546 0.84852 0.86159 1.3045z" opacity=".5"/>
  <path d="m550.54 367.43h10.96q0.69441 6.2677 1.9927 14.419 1.3285 8.1172 3.3816 18.769 4.0458-9.453 7.2765-17.81 3.2306-8.3912 5.5253-15.378h10.507q-0.42271 5.5827-0.63407 11.063-0.18099 5.4457-0.18099 10.754 0 7.4322 0.27174 14.316 0.30193 6.8842 0.84538 13.255h-10.205q0.54345-5.343 0.87559-12.741 0.36233-7.398 0.78504-25.002-4.0157 9.864-7.669 19.248-3.6232 9.3844-6.9142 18.495h-5.797q-1.1473-9.7612-2.657-19.18-1.5096-9.4187-3.4118-18.632-2.4154 10.686-4.1968 20.036-1.7814 9.3502-2.9891 17.776h-9.6919q3.9552-13.529 6.9444-25.893 3.0193-12.364 4.9818-23.495z"/>
  <path d="m605.6 367.43h11.11q-2.2596 11.405-3.4836 20.173-1.224 8.7337-1.224 13.494 0 4.1785 1.9772 6.4732 2.0086 2.2947 5.6177 2.2947 4.0485 0 6.214-2.74 2.1968-2.74 3.4208-9.7955 0.9729-5.754 1.7261-13.015 0.78459-7.2952 1.4123-16.885h10.482q-2.2596 10.138-3.8916 21.714-1.6005 11.576-1.883 12.809-2.0086 8.4597-6.5278 12.227-4.5192 3.7675-12.616 3.7675-7.4379 0-11.392-4.0415-3.923-4.0415-3.923-11.679 0-2.7058 1.3809-14.282 1.3809-11.576 1.6005-20.516z"/>
  <path d="m694.16 416.82q1.1632-4.7265 2.1062-10.035 0.97451-5.343 1.6976-11.234-3.5523-9.8982-6.1615-16.371-2.5778-6.4732-5.1241-11.748h11.349q1.1317 5.4115 2.6406 10.446 1.5089 5.0348 3.3951 9.7612 3.9924-6.1992 6.7903-11.097 2.7978-4.8977 4.7469-9.1105h10.217q-4.4954 6.0622-9.148 12.981-4.6211 6.8842-9.7138 15.138-0.81735 6.2677-1.2575 11.542-0.44009 5.2402-0.56586 9.727z"/>
  <path d="m183.58 367.43h28.745q0.0664 2.2605 0.23235 3.836 0.16594 1.5413 0.4647 2.9112-5.8751 7.3295-12.182 15.823-6.2734 8.4597-13.974 19.454 0.76342 0.0344 1.5932 0.0686 0.82981 0 2.2571 0 5.2444 0 9.7586-0.37675 4.5474-0.37674 8.3313-1.096l-2.5226 8.768h-30.77q-0.13278-1.5755-0.36512-3.151-0.26554-1.5755-0.69704-3.151 6.3398-7.7405 13.045-16.645 6.7381-8.9392 14.04-19.283h-2.3898q-6.041 0-10.456 0.3425-4.3814 0.30824-7.6343 0.99325z"/>
  <path d="m652.63 368.49h28.745q0.0664 2.2605 0.23234 3.836 0.16594 1.5412 0.4647 2.9112-5.8751 7.3295-12.182 15.823-6.2734 8.4597-13.974 19.454 0.76342 0.0344 1.5932 0.0686 0.82982 0 2.2571 0 5.2444 0 9.7586-0.37674 4.5474-0.37674 8.3313-1.096l-2.5226 8.768h-30.77q-0.13276-1.5755-0.36512-3.151-0.26553-1.5755-0.69705-3.151 6.3398-7.7405 13.045-16.645 6.7381-8.9392 14.04-19.283h-2.3899q-6.041 0-10.456 0.3425-4.3814 0.30825-7.6343 0.99325z"/>
  <path d="m731.42 367.43c-0.25349 5.8435-0.82568 11.308-1.3246 16.858-0.26335 2.9293-0.36522 6.0502-0.69653 8.8979-0.10843 0.95053-0.30295 1.7848-0.41872 2.7257-0.8882 7.2179-1.9074 14.262-3.229 20.908h9.7112c0.38728-5.9138 0.73733-10.846 1.0508-14.796 0.19769-2.5056 0.36761-4.2989 0.53951-6.1118 6.2158 6.2158 10.909 14.622 14.539 20.908h8.8778c-3.538-5.2252-4.8902-7.6899-8.5448-12.953-2.7709-3.9904-7.9335-10.904-10.229-14.284 1.936-1.7382 3.5816-3.5277 5.4474-5.2944 5.9424-5.6268 11.816-11.321 17.353-16.858h-9.9407c-5.0875 5.828-11.217 11.955-16.069 16.858 0.10719-0.81153 0.19398-1.5114 0.35027-2.5727 0.55327-3.6533 1.3077-8.4168 2.2668-14.285z"/>
  <path d="m492.49 366.88c-2.1293 5.0147-4.4064 9.3616-6.6392 14.257-5.5876 12.25-11.297 24.675-16.616 35.68h9.5219c1.5211-4.2856 4.7446-10.993 6.4459-15.372h11.112c0.19275 1.4613 0.37792 5.2001 0.5516 7.3921 0.19274 2.1692 0.38288 4.8289 0.57575 7.9799h9.2643c-0.44331-2.1063-0.97458-4.5878-1.5502-6.5024-0.24746-1.2482-0.37924-2.1341-0.54729-3.1812-0.8299-4.468-0.72211-9.7715-1.3813-14.087-0.5727-3.76-0.93431-7.8647-1.4172-11.773-6e-3 -0.0453-0.0103-0.0915-0.0165-0.13688-0.58659-4.7294-1.2674-9.3054-1.7192-14.257-1.4658 0.11399-2.5557 0.19583-3.2693 0.24157-0.71357 0.0219-1.3838 0.0322-2.001 0.0322-1.9825-0.16553-0.2855-0.16161-2.3151-0.27377zm-0.0845 14.394h2.5486c0.3665 4.2893 0.89408 8.3968 1.6829 14.208h-9.9648c2.0051-4.8142 3.8342-9.0399 5.7333-14.208z"/>
  <path d="m439.62 367.43c-0.25349 5.8435-0.82568 11.308-1.3246 16.858-0.26335 2.9293-0.36522 6.0502-0.69653 8.8979-0.10843 0.95053-0.30295 1.7848-0.41872 2.7257-0.8882 7.2179-1.9074 14.262-3.229 20.908h9.7112c0.38728-5.9138 0.73733-10.846 1.0508-14.796 0.19769-2.5056 0.36761-4.2989 0.53951-6.1118 6.2158 6.2158 10.909 14.622 14.539 20.908h8.8778c-3.538-5.2252-4.8902-7.6899-8.5448-12.953-2.7709-3.9904-7.9335-10.904-10.229-14.284 1.936-1.7382 3.5816-3.5277 5.4474-5.2944 5.9424-5.6268 11.816-11.321 17.353-16.858h-9.9407c-5.0875 5.828-11.217 11.955-16.069 16.858 0.10719-0.81153 0.19398-1.5114 0.35027-2.5727 0.55327-3.6533 1.3077-8.4168 2.2668-14.285z"/>
  <path d="m61.139 366.88c-2.1293 5.0147-4.4064 9.3616-6.6392 14.257-5.5876 12.25-11.297 24.675-16.616 35.68h9.5219c1.5211-4.2856 4.7446-10.993 6.4459-15.372h11.112c0.19274 1.4613 0.37792 5.2001 0.55159 7.3921 0.19275 2.1692 0.38289 4.8289 0.57576 7.9799h9.2643c-0.4433-2.1063-0.97457-4.5878-1.5502-6.5024-0.24745-1.2482-0.37923-2.1341-0.54728-3.1812-0.8299-4.468-0.72211-9.7715-1.3813-14.087-0.5727-3.76-0.93431-7.8647-1.4172-11.773-6e-3 -0.0453-0.0103-0.0915-0.0165-0.13688-0.58659-4.7294-1.2674-9.3054-1.7192-14.257-1.4658 0.11399-2.5556 0.19583-3.2692 0.24157-0.71358 0.0219-1.3838 0.0322-2.001 0.0322-1.9825-0.16553-0.28551-0.16161-2.3151-0.27377zm-0.0845 14.394h2.5486c0.3665 4.2893 0.89408 8.3968 1.6829 14.208h-9.9648c2.0051-4.8142 3.8342-9.0399 5.7333-14.208z"/>
 </g>
</svg>
