<svg fill="none" version="1.1" viewBox="0 0 800 283.55" xmlns="http://www.w3.org/2000/svg">
 <g transform="scale(2.1098)" fill="#0050ff">
  <path d="m241.56 33.605-3.709-5.0227c-0.253-0.3424-0.661-0.5314-1.086-0.501l-1.778 0.1231c-0.383 0.027-0.68 0.3442-0.68 0.7289v4.5958c0 0.6529-0.505 1.1945-1.156 1.2401l-1.746 0.1214c-0.719 0.0507-1.33-0.5196-1.33-1.24v-17.334c0-0.6529 0.505-1.1945 1.156-1.2401l7.739-0.5399c4.289-0.2986 7.456 2.2507 7.456 6.175 0 2.6556-1.453 4.8962-3.726 6.1464-0.389 0.2142-0.513 0.7136-0.248 1.0696l3.003 4.0661c0.583 0.7879 0.065 1.9099-0.912 1.9773l-1.898 0.1316c-0.424 0.0304-0.834-0.1602-1.087-0.501zm-7.252-10.114c0 0.4673 0.397 0.8385 0.864 0.8048l3.339-0.2329c2.102-0.1467 3.541-1.3429 3.541-3.0453 0-1.7023-1.439-2.6994-3.541-2.5527l-3.452 0.2413c-0.423 0.0287-0.751 0.3813-0.751 0.8048z"/>
  <path d="m263.74 29.529-7.818 0.5449c-0.284 0.0203-0.53 0.2008-0.634 0.464l-0.809 2.0448c-0.175 0.4454-0.592 0.7491-1.069 0.7829l-2.003 0.14c-0.911 0.0641-1.577-0.847-1.242-1.6956l7.048-17.825c0.175-0.4454 0.592-0.7491 1.069-0.7828l3.079-0.2143c0.532-0.0371 1.028 0.2683 1.234 0.7593l7.047 16.843c0.329 0.7845-0.211 1.6602-1.06 1.7192l-2.161 0.1502c-0.531 0.0371-1.027-0.2683-1.233-0.761l-0.719-1.7192c-0.121-0.2918-0.415-0.4724-0.73-0.4504zm-1.312-4.9063-1.907-4.5722c-0.239-0.5736-1.056-0.5669-1.284 0.0118l-1.906 4.8371c-0.188 0.4741 0.184 0.9802 0.693 0.9448l3.815-0.2666c0.472-0.0337 0.774-0.5196 0.59-0.9583z"/>
  <path d="m274.25 13.242c0-0.6529 0.504-1.1945 1.155-1.2401l5.926-0.4133c6.649-0.464 11.37 3.3051 11.37 9.1056s-4.721 10.256-11.37 10.72l-5.753 0.4016c-0.719 0.0506-1.33-0.5197-1.33-1.2401v-17.334zm7.627 14.268c3.771-0.2632 6.449-2.9593 6.449-6.509 0-3.5498-2.678-5.8444-6.449-5.5812l-2.547 0.1772c-0.479 0.0337-0.849 0.4319-0.849 0.911v10.261c0 0.5297 0.449 0.9481 0.977 0.911l2.421-0.1687z"/>
  <path d="m298.63 10.379 1.775-0.1231c0.719-0.0506 1.33 0.5196 1.33 1.24v17.334c0 0.653-0.505 1.1945-1.156 1.2401l-1.775 0.1232c-0.719 0.0506-1.329-0.5197-1.329-1.2401v-17.334c0-0.6529 0.504-1.1945 1.155-1.2401z"/>
  <path d="m306.33 19.74c0-5.5693 4.836-10.582 10.508-10.977 5.728-0.39986 10.507 3.9429 10.507 9.5122s-4.778 10.607-10.507 11.005c-5.671 0.3948-10.508-3.9715-10.508-9.5409zm16.668-1.1607c0-3.4334-2.821-6.1818-6.16-5.9489-3.31 0.2311-6.131 3.3709-6.131 6.8043 0 3.4333 2.821 6.2104 6.131 5.9793 3.339-0.2329 6.16-3.3727 6.16-6.8364z"/>
  <path d="m169.07 54.218c-3.94-3.6274-8.995-5.2521-15.026-4.8303-6.973 0.4892-12.276 3.0402-15.763 7.5838l-0.628 0.8149v-5.76l-14.393 1.0089v53.411l14.393-1.009v-28.834c0-4.3647 1.108-7.761 3.297-10.093 2.188-2.3334 5.147-3.646 8.795-3.9007 3.278-0.2278 5.939 0.5264 7.906 2.2489 1.964 1.7209 2.961 4.3765 2.961 7.8892v31.081l14.395-1.009v-32.773c0-6.8752-1.996-12.203-5.936-15.832z"/>
  <path d="m204.05 47.37v-12.153l-14.394 2.4666v10.693l-9.613 0.6766v12.2l9.613-0.6731v23.236c0 7.3088 2.037 12.313 6.054 14.874 2.375 1.5132 5.836 2.2812 10.287 2.2812 3.026 0 6.552-0.356 10.482-1.0597l0.057-0.0101v-12.6l-0.077 0.0101c-2.7 0.3307-5.003 0.5096-6.845 0.5332-1.816 0.0219-3.216-0.3594-4.154-1.1287-0.702-0.5754-1.146-1.4561-1.323-2.6286-0.059-0.3915-0.089-0.8132-0.089-1.2688v-23.246l12.487-0.8739v-12.202l-12.487 0.874z"/>
  <path d="m324.75 78.524c-2.227 1.3886-4.8 2.1933-7.648 2.3924-4.236 0.297-7.786-0.8267-10.556-3.3405-2.079-1.8829-3.39-4.2551-3.915-7.0777-0.175-0.9397-0.263-1.9301-0.263-2.9677 0-4.2247 1.407-7.8386 4.181-10.74 2.775-2.9036 6.328-4.5266 10.563-4.8236 2.776-0.194 5.306 0.27 7.533 1.3801 1.246 0.6209 2.332 1.4156 3.235 2.3637l9.716-10.909c-1.642-1.4864-3.541-2.7653-5.649-3.8029-3.76-1.8508-7.934-2.7906-12.407-2.7906-0.759 0-1.542 0.027-2.327 0.0827-8.304 0.5821-15.327 3.8045-20.875 9.578-5.549 5.7735-8.361 12.726-8.361 20.664 0 1.488 0.099 2.9289 0.295 4.3191 0.855 6.0265 3.56 11.118 8.07 15.178 5.547 4.9974 12.572 7.2362 20.882 6.6575 5.363-0.3762 10.318-1.9976 14.73-4.8219 3.25-2.0802 6.008-4.6312 8.205-7.5821l-11.159-7.906c-1.063 1.6618-2.492 3.0588-4.247 4.1521z"/>
  <path d="m366.7 36.1v-12.153l-14.393 2.4667v10.697l-9.614 0.6731v12.202l9.614-0.6732v23.237c0 1.8272 0.126 3.5093 0.381 5.0463 0.761 4.611 2.661 7.9043 5.674 9.8243 2.376 1.5134 5.838 2.2811 10.288 2.2811 3.024 0 6.55-0.356 10.481-1.0596l0.057-0.0101v-12.6l-0.077 0.0101c-2.701 0.3307-5.004 0.5112-6.843 0.5332-1.799 0.027-3.216-0.3594-4.154-1.1288-0.702-0.5753-1.144-1.456-1.323-2.6286-0.059-0.3914-0.089-0.8132-0.089-1.2687v-23.246l12.486-0.8739v-12.202l-12.486 0.8739z"/>
  <path d="m66.672 103.81c5.6216 5.027 12.615 7.287 20.771 6.718 8.1558-0.57 15.16-3.81 20.82-9.627 3.374-3.4688 5.779-7.3864 7.149-11.643 0.76-2.7551 1.149-5.6857 1.149-8.7041 0-12.434-6.312-17.94-8.303-19.706-2.775-2.4649-5.917-4.2837-9.335-5.4073-0.7188-0.2194-1.4527-0.4117-2.1799-0.572-4.8117-1.0663-9.9761-0.0354-14.165 2.826-11.746 8.0225-15.552 21.122-15.642 21.392l-0.0203 0.0608c-0.3357 1.0258-0.7963 2.4345-2.2928 2.4767h-0.0405c-1.3076 0-1.893-1.7209-2.3215-2.9812l-0.0692-0.2042c-0.4387-1.2805-0.8605-2.6792-1.2519-4.1571l-0.0101-0.0405-0.0118-0.0473c-0.0101-0.0303-0.027-0.0573-0.0422-0.086-0.0844-0.1518-0.243-0.2564-0.4269-0.2564-0.1957 0-0.3576 0.0911-0.4217 0.2378l-0.076 0.1991c-1.1624 3.1702-1.7529 6.5631-1.7529 10.084 0 7.8689 2.853 14.407 8.4763 19.436zm5.9169-20.435c0-4.2247 1.4256-7.8571 4.2347-10.798 2.1275-2.2288 4.7156-3.7202 7.6935-4.4356 0.9431-0.2261 1.9267-0.3762 2.9255-0.4454 4.2331-0.2936 7.8234 0.8436 10.668 3.3878 2.8446 2.5426 4.2856 5.9726 4.2856 10.194 0 4.2264-1.443 7.8605-4.2906 10.805-1.0815 1.1169-2.2912 2.0617-3.592 2.8058-2.1005 1.1979-4.4828 1.898-7.0827 2.0802-0.437 0.0304-0.8689 0.0456-1.289 0.0456-3.6729 0-6.8094-1.1557-9.3232-3.4368-2.8075-2.5459-4.2314-5.9759-4.2314-10.199z"/>
  <path d="m265.69 48.066c0.012-0.0776-1.746-1.5471-2.446-1.9908-0.134-0.0911-1.008-0.8976-3.724-1.9554-0.091-0.0355-0.187-0.0675-0.28-0.1013-2.995-1.1118-7.211-1.3564-7.403-1.3615-16.195-0.9161-30.388 13.973-29.991 30.141-0.41 14.992 12.041 27.648 26.927 26.316 7.649-0.5281 13.625-3.5329 17.938-8.8779v6.1312l14.395-1.0089v-53.414l-14.395 1.0089v6.1379s-0.878-0.8857-1.023-1.0258zm1.022 21.591c0.211 9.1883-7.615 16.278-16.654 16.077-7.981 0.0911-13.971-5.8072-13.816-13.938-0.15-8.6602 6.587-15.562 15.185-16.021 4.38-0.3071 8.059 0.8436 10.944 3.4215 2.882 2.578 4.343 6.0974 4.343 10.46z"/>
  <path d="m119.3 27.523c-3.835-1.4864-5.487-3.2849-6.797-7.3999-4.043-12.691-16.187-19.254-37.128-20.062-1.0545-0.040492-2.109-0.060738-3.1381-0.060738-13.44 0-25.095 3.4452-34.641 10.238-0.0996 0.0709-0.2058 0.1485-0.3172 0.2294l-0.0439 0.0321c-1.4222 1.0342-3.8011 2.7636-7.1265 2.8952-7.5686 0.302-20.238 0.8098-29.045 7.8233-0.55338 0.4404-1.1962 1.1085-1.1169 1.7884 0.059051 0.4961 0.50952 0.9432 1.3396 1.3295 11.589 5.3922 12.404 11.113 9.8952 19.171-0.766 2.4599-1.2974 4.4929-1.672 6.3977-4.3579 22.12 2.4177 43.92 18.125 58.316 18.537 16.988 39.925 16.255 51.021 14.305l0.0506-8e-3c0.8369-0.122 1.2975-0.557 1.365-1.291 0.1383-1.485-1.2738-1.584-1.3801-1.594-12.672-1.198-23.862-7.662-31.282-18.362-10.298-14.85-11.376-33.333-7.1316-47.836 0.1738-0.5956 0.7035-0.9769 1.2974-0.9769 0.6259 0 1.1776 0.4319 1.316 1.0376 0.7137 3.7573 2.8833 16.138 5.0075 16.138 1.068 0 1.3767-1.3345 1.7394-2.3873 5.9321-17.19 20.094-28.044 37.877-29.095 5.1509-0.3661 10.418-0.2784 15.511-0.1957 2.276 0.0371 4.627 0.0776 6.93 0.0742 2.918-0.0017 5.878-0.5972 9.043-1.8171 3-1.1557 4.57-2.9036 4.668-5.1947 0.085-1.9858-1.594-2.5476-3.372-3.1449 0 0-0.535-0.1721-0.996-0.3509z"/>
  <path d="m213.24 117.15v4.554l10.519-0.732v4.066l-10.519 0.732v8.314l-4.513 0.314v-20.998l16.131-1.124v4.064z"/>
  <path d="m239.8 127.24 2.836 2.706c-1.402 1.566-4.116 2.732-6.433 2.894-4.695 0.327-8.354-2.872-8.354-7.733 0-4.86 3.505-8.466 8.11-8.786 4.94-0.344 7.837 3.214 7.837 9.173l-11.374 0.793c0.518 1.675 1.892 2.741 3.751 2.612 1.25-0.088 2.775-0.775 3.629-1.659zm-7.319-4.167 7.044-0.491c-0.427-1.529-1.586-2.457-3.384-2.332-1.677 0.117-3.079 1.193-3.66 2.823z"/>
  <path d="m258.63 125.94 2.836 2.707c-1.402 1.565-4.117 2.731-6.433 2.893-4.696 0.327-8.355-2.871-8.355-7.732s3.506-8.466 8.11-8.787c4.94-0.344 7.837 3.214 7.837 9.173l-11.373 0.793c0.518 1.675 1.891 2.742 3.75 2.612 1.25-0.088 2.776-0.775 3.629-1.659zm-7.319-4.167 7.044-0.491c-0.427-1.528-1.586-2.456-3.385-2.332-1.677 0.117-3.079 1.193-3.659 2.823z"/>
  <path d="m266.4 109.01 4.453-0.31v21.366l-4.453 0.31z"/>
  <path d="m294.48 116.62 9.269-0.646v8.65c-2.104 2.347-5.336 3.887-8.476 4.105-6.069 0.423-11.221-4.201-11.221-10.1 0-5.898 5.152-11.209 11.221-11.633 3.14-0.219 6.372 0.871 8.476 2.924l-3.263 3.162c-1.25-1.35-3.293-2.124-5.213-1.991-3.568 0.248-6.587 3.577-6.587 7.214 0 3.638 3.019 6.575 6.587 6.327 1.432-0.099 2.897-0.69 4.086-1.63v-3.209l-4.879 0.34v-3.515z"/>
  <path d="m307.28 119.6c0-4.493 3.933-8.527 8.63-8.854 4.665-0.326 8.569 3.163 8.569 7.656s-3.902 8.555-8.569 8.881c-4.695 0.327-8.63-3.189-8.63-7.682zm12.959-0.903c0-2.445-1.982-4.354-4.329-4.191-2.379 0.166-4.359 2.352-4.359 4.797s1.982 4.386 4.359 4.219c2.349-0.163 4.329-2.38 4.329-4.825z"/>
  <path d="m327.4 118.21c0-4.493 3.932-8.527 8.629-8.854 4.665-0.326 8.569 3.163 8.569 7.656s-3.902 8.556-8.569 8.881c-4.695 0.327-8.629-3.189-8.629-7.681zm12.959-0.903c0-2.445-1.983-4.354-4.33-4.191-2.379 0.166-4.359 2.352-4.359 4.797s1.982 4.387 4.359 4.219c2.349-0.163 4.33-2.38 4.33-4.825z"/>
  <path d="m364.57 102.17v21.366l-4.453 0.31v-2.262c-1.25 1.738-3.079 2.843-5.306 2.998-4.208 0.294-7.256-2.917-7.256-7.778 0-4.86 3.048-8.464 7.256-8.758 2.225-0.155 4.056 0.695 5.306 2.259v-7.825zm-4.453 13.759c0-2.629-1.677-4.377-4.025-4.213-2.47 0.172-4.208 2.158-4.208 4.786 0 2.629 1.738 4.404 4.208 4.232 2.348-0.164 4.025-2.145 4.025-4.805z"/>
  <path d="m241.56 33.605-3.709-5.0227c-0.253-0.3424-0.661-0.5314-1.086-0.501l-1.778 0.1231c-0.383 0.027-0.68 0.3442-0.68 0.7289v4.5958c0 0.6529-0.505 1.1945-1.156 1.2401l-1.746 0.1214c-0.719 0.0507-1.33-0.5196-1.33-1.24v-17.334c0-0.6529 0.505-1.1945 1.156-1.2401l7.739-0.5399c4.289-0.2986 7.456 2.2507 7.456 6.175 0 2.6556-1.453 4.8962-3.726 6.1464-0.389 0.2142-0.513 0.7136-0.248 1.0696l3.003 4.0661c0.583 0.7879 0.065 1.9099-0.912 1.9773l-1.898 0.1316c-0.424 0.0304-0.834-0.1602-1.087-0.501zm-7.252-10.114c0 0.4673 0.397 0.8385 0.864 0.8048l3.339-0.2329c2.102-0.1467 3.541-1.3429 3.541-3.0453 0-1.7023-1.439-2.6994-3.541-2.5527l-3.452 0.2413c-0.423 0.0287-0.751 0.3813-0.751 0.8048z"/>
  <path d="m263.74 29.526-7.818 0.545c-0.284 0.0202-0.53 0.2007-0.634 0.4639l-0.809 2.0449c-0.175 0.4454-0.592 0.7491-1.069 0.7828l-2.003 0.1401c-0.911 0.0641-1.577-0.847-1.242-1.6956l7.048-17.825c0.175-0.4454 0.592-0.7491 1.069-0.7828l3.079-0.2143c0.532-0.0371 1.028 0.2682 1.234 0.7592l7.047 16.843c0.329 0.7846-0.211 1.6602-1.06 1.7193l-2.161 0.1501c-0.531 0.0371-1.027-0.2682-1.233-0.7609l-0.719-1.7192c-0.121-0.2919-0.415-0.4724-0.73-0.4505zm-1.312-4.9063-1.907-4.5722c-0.239-0.5736-1.056-0.5668-1.284 0.0119l-1.906 4.837c-0.188 0.4741 0.184 0.9803 0.693 0.9449l3.815-0.2666c0.472-0.0338 0.774-0.5197 0.59-0.9583z"/>
  <path d="m274.25 13.242c0-0.6529 0.504-1.1945 1.155-1.2401l5.926-0.4133c6.649-0.464 11.37 3.3051 11.37 9.1056s-4.721 10.256-11.37 10.72l-5.753 0.4016c-0.719 0.0506-1.33-0.5197-1.33-1.2401v-17.334zm7.627 14.268c3.771-0.2632 6.449-2.9593 6.449-6.509 0-3.5498-2.678-5.8444-6.449-5.5812l-2.547 0.1772c-0.479 0.0337-0.849 0.4319-0.849 0.911v10.261c0 0.5297 0.449 0.9481 0.977 0.911l2.421-0.1687z"/>
  <path d="m298.6 10.379 1.775-0.1231c0.719-0.0506 1.329 0.5196 1.329 1.24v17.334c0 0.653-0.504 1.1945-1.155 1.2401l-1.775 0.1232c-0.719 0.0506-1.33-0.5197-1.33-1.2401v-17.334c0-0.6529 0.505-1.1945 1.156-1.2401z"/>
  <path d="m306.33 19.74c0-5.5693 4.836-10.582 10.508-10.977 5.728-0.39986 10.507 3.9429 10.507 9.5122s-4.778 10.607-10.507 11.005c-5.671 0.3948-10.508-3.9715-10.508-9.5409zm16.668-1.1607c0-3.4334-2.821-6.1818-6.16-5.9489-3.31 0.2311-6.131 3.3709-6.131 6.8043 0 3.4333 2.821 6.2104 6.131 5.9793 3.339-0.2329 6.16-3.3727 6.16-6.8364z"/>
  <path d="m169.08 54.204c-3.939-3.6274-8.994-5.2521-15.026-4.8303-6.973 0.4893-12.275 3.0402-15.763 7.5838l-0.627 0.8149v-5.76l-14.393 1.0089v53.411l14.393-1.009v-28.834c0-4.3647 1.108-7.761 3.296-10.093 2.189-2.3334 5.148-3.646 8.796-3.9007 3.278-0.2278 5.938 0.5264 7.906 2.2489 1.963 1.721 2.961 4.3765 2.961 7.8892v31.081l14.394-1.009v-32.773c0-6.8752-1.995-12.203-5.935-15.832z"/>
  <path d="m204.06 47.374v-12.153l-14.393 2.4666v10.693l-9.613 0.6766v12.2l9.613-0.6731v23.236c0 7.3088 2.036 12.313 6.054 14.874 2.375 1.5135 5.835 2.2815 10.286 2.2815 3.027 0 6.553-0.356 10.483-1.06l0.057-0.0101v-12.6l-0.078 0.0101c-2.699 0.3307-5.002 0.5096-6.845 0.5332-1.815 0.0219-3.215-0.3594-4.153-1.1287-0.702-0.5754-1.146-1.4561-1.323-2.6286-0.059-0.3915-0.089-0.8132-0.089-1.2688v-23.246l12.486-0.8739v-12.202l-12.486 0.874z"/>
  <path d="m324.74 78.524c-2.227 1.3886-4.8 2.1933-7.648 2.3924-4.236 0.297-7.786-0.8267-10.556-3.3405-2.079-1.8829-3.39-4.2551-3.914-7.0777-0.176-0.9397-0.264-1.9301-0.264-2.9677 0-4.2247 1.407-7.8386 4.181-10.74 2.776-2.9036 6.329-4.5266 10.563-4.8236 2.776-0.194 5.307 0.27 7.534 1.3801 1.245 0.6209 2.331 1.4156 3.234 2.3637l9.716-10.909c-1.641-1.4864-3.541-2.7653-5.648-3.8029-3.761-1.8508-7.935-2.7906-12.408-2.7906-0.759 0-1.542 0.027-2.326 0.0827-8.305 0.5821-15.328 3.8045-20.876 9.578-5.549 5.7735-8.361 12.726-8.361 20.664 0 1.488 0.099 2.9289 0.295 4.3191 0.855 6.0265 3.56 11.118 8.07 15.178 5.547 4.9974 12.573 7.2362 20.882 6.6575 5.363-0.3762 10.318-1.9976 14.73-4.8219 3.25-2.0802 6.008-4.6312 8.205-7.5821l-11.159-7.906c-1.063 1.6618-2.492 3.0588-4.246 4.1521z"/>
  <path d="m366.7 36.104v-12.153l-14.393 2.4666v10.697l-9.614 0.6732v12.202l9.614-0.6732v23.237c0 1.8271 0.126 3.5092 0.381 5.0462 0.761 4.6111 2.661 7.9044 5.674 9.8244 2.376 1.5134 5.838 2.281 10.288 2.281 3.024 0 6.55-0.356 10.481-1.0595l0.057-0.0101v-12.6l-0.077 0.0101c-2.701 0.3307-5.004 0.5112-6.843 0.5331-1.799 0.027-3.216-0.3594-4.154-1.1287-0.702-0.5753-1.144-1.456-1.323-2.6286-0.059-0.3914-0.089-0.8132-0.089-1.2687v-23.246l12.486-0.874v-12.202l-12.486 0.8739z"/>
  <path d="m66.672 103.81c5.6216 5.027 12.615 7.287 20.771 6.718 8.1558-0.57 15.16-3.81 20.82-9.627 3.374-3.4688 5.779-7.3864 7.149-11.643 0.76-2.7551 1.149-5.6857 1.149-8.7041 0-12.434-6.312-17.94-8.303-19.706-2.775-2.4649-5.917-4.2837-9.335-5.4073-0.7188-0.2194-1.4527-0.4117-2.1799-0.572-4.8117-1.0663-9.9761-0.0354-14.165 2.826-11.746 8.0225-15.552 21.122-15.642 21.392l-0.0203 0.0608c-0.3357 1.0258-0.7963 2.4345-2.2928 2.4767h-0.0405c-1.3076 0-1.893-1.7209-2.3215-2.9812l-0.0692-0.2042c-0.4387-1.2805-0.8605-2.6792-1.2519-4.1571l-0.0101-0.0405-0.0118-0.0473c-0.0101-0.0303-0.027-0.0573-0.0422-0.086-0.0844-0.1518-0.243-0.2564-0.4269-0.2564-0.1957 0-0.3576 0.0911-0.4217 0.2378l-0.076 0.1991c-1.1624 3.1702-1.7529 6.5631-1.7529 10.084 0 7.8689 2.853 14.407 8.4763 19.436zm5.9169-20.435c0-4.2247 1.4256-7.8571 4.2347-10.798 2.1275-2.2288 4.7156-3.7202 7.6935-4.4356 0.9431-0.2261 1.9267-0.3762 2.9255-0.4454 4.2331-0.2936 7.8234 0.8436 10.668 3.3878 2.8446 2.5426 4.2856 5.9726 4.2856 10.194 0 4.2264-1.443 7.8605-4.2906 10.805-1.0815 1.1169-2.2912 2.0617-3.592 2.8058-2.1005 1.1979-4.4828 1.898-7.0827 2.0802-0.437 0.0304-0.8689 0.0456-1.289 0.0456-3.6729 0-6.8094-1.1557-9.3232-3.4368-2.8075-2.5459-4.2314-5.9759-4.2314-10.199z"/>
  <path d="m265.68 48.066c0.012-0.0776-1.746-1.5471-2.446-1.9908-0.133-0.0911-1.007-0.8976-3.724-1.9554-0.091-0.0355-0.187-0.0675-0.28-0.1013-2.994-1.1118-7.211-1.3564-7.403-1.3615-16.195-0.9161-30.387 13.973-29.991 30.141-0.41 14.992 12.041 27.648 26.927 26.316 7.65-0.5281 13.626-3.5329 17.938-8.8779v6.1312l14.395-1.0089v-53.414l-14.395 1.0089v6.1379s-0.877-0.8857-1.022-1.0258zm1.023 21.591c0.211 9.1883-7.616 16.278-16.654 16.077-7.982 0.0911-13.972-5.8072-13.816-13.938-0.15-8.6602 6.586-15.562 15.184-16.021 4.38-0.3071 8.06 0.8436 10.945 3.4215 2.881 2.578 4.342 6.0974 4.342 10.46z"/>
  <path d="m119.3 27.523c-3.835-1.4864-5.487-3.2849-6.797-7.3999-4.043-12.691-16.187-19.254-37.128-20.062-1.0545-0.040492-2.109-0.060738-3.1381-0.060738-13.44 0-25.095 3.4452-34.641 10.238-0.0996 0.0709-0.2058 0.1485-0.3172 0.2294l-0.0439 0.0321c-1.4222 1.0342-3.8011 2.7636-7.1265 2.8952-7.5686 0.302-20.238 0.8098-29.045 7.8233-0.55338 0.4404-1.1962 1.1085-1.1169 1.7884 0.059051 0.4961 0.50952 0.9432 1.3396 1.3295 11.589 5.3922 12.404 11.113 9.8952 19.171-0.766 2.4599-1.2974 4.4929-1.672 6.3977-4.3579 22.12 2.4177 43.92 18.125 58.316 18.537 16.988 39.925 16.255 51.021 14.305l0.0506-8e-3c0.8369-0.122 1.2975-0.557 1.365-1.291 0.1383-1.485-1.2738-1.584-1.3801-1.594-12.672-1.198-23.862-7.662-31.282-18.362-10.298-14.85-11.376-33.333-7.1316-47.836 0.1738-0.5956 0.7035-0.9769 1.2974-0.9769 0.6259 0 1.1776 0.4319 1.316 1.0376 0.7137 3.7573 2.8833 16.138 5.0075 16.138 1.068 0 1.3767-1.3345 1.7394-2.3873 5.9321-17.19 20.094-28.044 37.877-29.095 5.1509-0.3661 10.418-0.2784 15.511-0.1957 2.276 0.0371 4.627 0.0776 6.93 0.0742 2.918-0.0017 5.878-0.5972 9.043-1.8171 3-1.1557 4.57-2.9036 4.668-5.1947 0.085-1.9858-1.594-2.5476-3.372-3.1449 0 0-0.535-0.1721-0.996-0.3509z"/>
  <path d="m213.24 117.15v4.554l10.519-0.732v4.066l-10.519 0.732v8.314l-4.513 0.314v-20.998l16.131-1.124v4.064z"/>
  <path d="m239.8 127.24 2.836 2.706c-1.402 1.566-4.116 2.732-6.433 2.894-4.695 0.327-8.354-2.872-8.354-7.733 0-4.86 3.505-8.466 8.11-8.786 4.94-0.344 7.837 3.214 7.837 9.173l-11.374 0.793c0.518 1.675 1.892 2.741 3.751 2.612 1.25-0.088 2.775-0.775 3.629-1.659zm-7.319-4.167 7.044-0.491c-0.427-1.529-1.586-2.457-3.384-2.332-1.677 0.117-3.079 1.193-3.66 2.823z"/>
  <path d="m258.63 125.94 2.836 2.707c-1.402 1.565-4.117 2.731-6.433 2.893-4.696 0.327-8.355-2.871-8.355-7.732s3.506-8.466 8.11-8.787c4.94-0.344 7.837 3.214 7.837 9.173l-11.373 0.793c0.518 1.675 1.891 2.742 3.75 2.612 1.25-0.088 2.776-0.775 3.629-1.659zm-7.319-4.167 7.044-0.491c-0.427-1.528-1.586-2.456-3.385-2.332-1.677 0.117-3.079 1.193-3.659 2.823z"/>
  <path d="m266.4 109.01 4.453-0.31v21.366l-4.453 0.31z"/>
  <path d="m294.48 116.62 9.269-0.646v8.65c-2.104 2.347-5.336 3.887-8.476 4.105-6.069 0.423-11.221-4.201-11.221-10.1 0-5.898 5.152-11.209 11.221-11.633 3.14-0.219 6.372 0.871 8.476 2.924l-3.263 3.162c-1.25-1.35-3.293-2.124-5.213-1.991-3.568 0.248-6.587 3.577-6.587 7.214 0 3.638 3.019 6.575 6.587 6.327 1.432-0.099 2.897-0.69 4.086-1.63v-3.209l-4.879 0.34v-3.515z"/>
  <path d="m307.28 119.6c0-4.493 3.933-8.527 8.63-8.854 4.665-0.326 8.569 3.163 8.569 7.656s-3.902 8.555-8.569 8.881c-4.695 0.327-8.63-3.189-8.63-7.682zm12.959-0.903c0-2.445-1.982-4.354-4.329-4.191-2.379 0.166-4.359 2.352-4.359 4.797s1.982 4.386 4.359 4.219c2.349-0.163 4.329-2.38 4.329-4.825z"/>
  <path d="m327.4 118.21c0-4.493 3.932-8.527 8.629-8.854 4.665-0.326 8.569 3.163 8.569 7.656s-3.902 8.556-8.569 8.881c-4.695 0.327-8.629-3.189-8.629-7.681zm12.959-0.903c0-2.445-1.983-4.354-4.33-4.191-2.379 0.166-4.359 2.352-4.359 4.797s1.982 4.387 4.359 4.219c2.349-0.163 4.33-2.38 4.33-4.825z"/>
  <path d="m364.57 102.17v21.366l-4.453 0.31v-2.262c-1.25 1.738-3.079 2.843-5.306 2.998-4.208 0.294-7.256-2.917-7.256-7.778 0-4.86 3.048-8.464 7.256-8.758 2.225-0.155 4.056 0.695 5.306 2.259v-7.825zm-4.453 13.759c0-2.629-1.677-4.377-4.025-4.213-2.47 0.172-4.208 2.158-4.208 4.786 0 2.629 1.738 4.404 4.208 4.232 2.348-0.164 4.025-2.145 4.025-4.805z"/>
 </g>
</svg>
