<svg width="211.67mm" height="41.075mm" version="1.1" viewBox="0 0 211.67 41.075" xmlns="http://www.w3.org/2000/svg">
 <g transform="translate(128.89 -128.3)">
  <g transform="matrix(2.0669 0 0 2.0669 74.291 -113.26)" stroke-width=".26458" style="font-feature-settings:normal;font-variant-caps:normal;font-variant-ligatures:normal;font-variant-numeric:normal" aria-label="RADIO">
   <g>
    <path d="m-98.301 124.04h3.7155v-5.3976h6.8948q0.29576 0 0.40667 0.22181 0.11091 0.20334 0.11091 0.51758 0 0.11091-0.07394 0.33273-0.07394 0.20333-0.22182 0.20333h-5.1203v1.5712l4.5288 2.5509h4.843l0.11091-0.38818-3.697-2.0518h1.2939q0.12939 0 0.44364-0.11091t0.62848-0.29575q0.33273-0.20334 0.57303-0.42516 0.25879-0.2403 0.25879-0.49909v-2.0518q0-0.27727-0.2403-0.51757-0.2403-0.25879-0.59152-0.42515-0.33273-0.18485-0.70242-0.29576t-0.62848-0.11091h-12.533z"/>
    <path d="m-64.68 124.04h-4.0482l-4.0482-5.0279q-0.14788-0.20333-0.2403-0.27727-0.07394-0.0924-0.22182-0.0924h-0.11091l-2.3291 2.5694h4.0667l1.4788 1.83h-7.0797l-0.99818 0.99818h-4.0667l6.5067-7.1721h3.3827q0.57303 0 1.2015 0.11091t1.1645 0.62848z"/>
    <path d="m-63.533 124.04h3.7155v-5.3976h6.5252q0.03697 0 0.16636 0.0185 0.14788 0.0185 0.29576 0.0739 0.14788 0.037 0.25879 0.11091 0.12939 0.0554 0.12939 0.14788v2.8836q-0.07394 0.0924-0.2403 0.20334-0.14788 0.0924-0.33273 0.18485-0.09242 0.0924-0.20333 0.11091h-5.6564v1.6636h8.1333q0.27727 0 0.59152-0.16636 0.33273-0.18485 0.61-0.46212 0.29576-0.27728 0.48061-0.61 0.20333-0.35121 0.20333-0.68394v-3.3273q0-0.46212-0.2403-0.81333t-0.59152-0.59151q-0.35121-0.25879-0.75788-0.38819-0.40667-0.12939-0.73939-0.12939h-12.348z"/>
   </g>
   <path d="m-33.66 116.87v1.8855h-13.771v-1.8855zm-13.771 7.1721v-1.8485h4.917v-3.013h3.6785v3.013h5.1758v1.8485z" fill="#c0c0c0"/>
   <path d="m-17.499 122.71q0 0.31425-0.16636 0.55455-0.16636 0.2403-0.42515 0.42515-0.2403 0.16636-0.55455 0.25879-0.29576 0.0924-0.55454 0.0924h-11.59q-0.14788 0-0.38818-0.12939-0.2403-0.14788-0.48061-0.35121-0.2403-0.22182-0.40667-0.44364-0.16636-0.2403-0.16636-0.40667v-4.4918q0-0.14787 0.14788-0.36969 0.14788-0.24031 0.38818-0.44364 0.2403-0.22182 0.53606-0.3697 0.29576-0.16636 0.57303-0.16636h8.6139v1.6821h-6.4142q-0.05545 0-0.12939 0.0924-0.05545 0.0924-0.12939 0.20333-0.05545 0.11091-0.11091 0.22182-0.03697 0.0924-0.03697 0.11091v2.5694q0 0.16636 0.14788 0.35121 0.16636 0.18485 0.25879 0.18485h6.8209q0.05545 0 0.14788-0.0554 0.11091-0.0739 0.20333-0.16637 0.09242-0.0924 0.14788-0.18485 0.07394-0.0924 0.07394-0.12939v-4.88h1.8115q0.12939 0 0.40667 0.0924 0.29576 0.0924 0.57303 0.27728 0.27727 0.16636 0.48061 0.42515 0.22182 0.25879 0.22182 0.59151z"/>
  </g>
  <g transform="matrix(2.0669 0 0 2.0669 74.293 -113.26)" fill="#1103c1" stroke-width=".41918" style="font-feature-settings:normal;font-variant-caps:normal;font-variant-ligatures:normal;font-variant-numeric:normal" aria-label="AM5">
   <path d="m-70.42 136.74h-6.4136l-6.4136-7.9657q-0.23429-0.32215-0.38072-0.43929-0.11714-0.14643-0.35143-0.14643h-0.17572l-3.69 4.0707h6.4429l2.3429 2.8993h-11.216l-1.5814 1.5814h-6.4429l10.309-11.363h5.3593q0.90786 0 1.9036 0.17572 0.99572 0.17571 1.845 0.99571z"/>
   <path d="m-59.115 136.74h5.5936q0.90786 0 1.845-0.23428 0.93715-0.23429 1.7572-1.025l2.3136-2.4014v3.6607h6.0036v-11.363h-5.74l-7.7315 8.405-7.7607-8.405h-5.7693v11.363h6.0036v-3.8072z"/>
   <path d="m-39.318 130.03q0.205 1.0543 0.99572 1.6986 0.79072 0.64429 1.6107 0.64429h13.149q0.05857 0.0586 0.08786 0.11714 0.05857 0.0586 0.11714 0.17571v0.64429q-0.08786 0.35143-0.17572 0.49786h-15.785v2.9286h19.212q0.43929 0 0.90786-0.23428 0.46857-0.23429 0.84929-0.58572 0.38072-0.35143 0.615-0.76143 0.23429-0.43929 0.23429-0.82v-2.6357q-0.05857-0.35143-0.32214-0.73214-0.23429-0.41001-0.58572-0.73215-0.32214-0.32215-0.73215-0.52715-0.38072-0.23428-0.76143-0.26357h-13.442q-0.05857-0.0293-0.11714-0.29286v-0.79071h14.936v-2.9872h-20.793z"/>
  </g>
  <g transform="matrix(1.569 0 0 1.569 236.74 -195.39)" style="font-feature-settings:normal;font-variant-caps:normal;font-variant-ligatures:normal;font-variant-numeric:normal" aria-label=".NL">
   <path d="m-125.72 232.48v-1.2939h3.3273v1.2939z" fill="#c0c0c0" stroke-width=".26458"/>
   <path d="m-118.36 226.45 5.7449 3.8383v-3.8383h2.8571v6.0294h-3.748l-5.3609-3.5586v3.5586h-3.1336v-6.0294z" stroke-width=".22114"/>
   <path d="m-98.127 232.48h-9.8174q-0.16462 0-0.38911-0.12432-0.22449-0.13985-0.434-0.32633-0.20951-0.20201-0.35917-0.41956-0.14965-0.2331-0.14965-0.40403v-4.7551h2.9931v4.2112q0.03 0.17093 0.0898 0.26417h8.0664z" stroke-width=".21828"/>
  </g>
 </g>
</svg>
