<svg width="3023.6" height="1256.2" version="1.1" viewBox="0 0 800 332.37" xmlns="http://www.w3.org/2000/svg" xmlns:xlink="http://www.w3.org/1999/xlink">
 <defs>
  <linearGradient id="a" x1="22.244" x2="108.28" y1="45.869" y2="45.869" gradientTransform="matrix(9.2981 0 0 9.2981 -181.75 -529.56)" gradientUnits="userSpaceOnUse">
   <stop stop-color="#fa0804" offset="0"/>
   <stop stop-color="#1a38f6" offset="1"/>
  </linearGradient>
 </defs>
 <g transform="translate(-25.082 268.73)">
  <path d="m182.66-83.202c-10.4-4.1146-19.132-14.269-23.607-22.837-1.9533-3.7399-4.9893-13.389-6.6675-21.681l-3.0512-15.075-6.8871 10.407c-22.205 34.182-66.993 22.395-79.18-18.151-7.5184-25.014-3.4582-61.358 7.404-61.358 2.5916 0 15.373 5.7573 27.396 11.674 36.384 17.906 75.701 28.709 122.72 33.723 32.824 3.4994 66.077 1.8154 125.47-6.3536 24.355-3.3502 48.489-6.7513 52.839-6.7663 11.803-0.0372 12.739 5.8882 7.8578 29.022-3.8244 18.126-3.1575 21.01-10.272 21.773-7.4527-0.0279-7.2644-2.1924-7.6636-14.989-0.54329-9.436-0.9484-13.045-3.612-13.045-2.8611 0-81.003 16.815-108.63 23.375-3.4991 0.83125-5.3884-0.3775-11.685 13.486-6.4482 14.197-19.817 27.572-31.426 33.624-14.39 7.5275-39.691 8.1252-51.008 3.1695z"/>
  <path d="m733.49-131.94c-5.1834-4.8529-5.7591-11.1-1.5295-16.16 5.0938-6.2437 49.93-47.677 70.587-68.652 5.6803-5.7308 14.487-3.947 18.563-0.32255 4.524 4.0228 4.9548 9.9836 1.9129 15.014-33.375 34.246-35.501 37.835-72.88 70.734-4.9851 3.1825-12.647 3.1655-16.654-0.61274zm71.732 124.61c-129.33-125.02-227.45-181.84-328.04-215.47-120.12-40.16-253.87-33.453-319.67 26.598-6.1687 5.6295-14.431 2.7159-18.396-1.5374-3.5164-2.9735-4.4415-11.789 2.0173-16.855 41.623-32.641 81.547-42.153 109.89-47.368 69.791-12.841 127.66-4.4775 160.51 1.1613 130.87 24.878 265.05 97.655 409.71 236.3 3.4305 2.9844 6.4048 10.249 0.3431 17.193-5.0984 4.5995-12.545 4.0739-16.366-0.018596zm-534 66.841c-59.904-10.115-118.89-36.023-169.89-72.676-20.996-15.088-62.813-53.187-71.004-64.69l-5.249-6.2332 15.694-25.766c1.753-3.7984 10.185-8.2132 18.65-2.8419 6.6109 4.7013 5.8272 11.689 4.1046 14.617l-8.9944 13.012 17.935 17.208c73.273 70.303 166.37 110.2 257.28 110.26 107.83 0.06509 216.26-39.147 336.36-134.35 3.5486-2.4359 12.16-4.4359 18.489 2.219 3.728 4.7459 2.7678 11.627-0.0772 14.596-2.3648 3.1286-11.928 8.7486-26.42 19.503-87.804 65.155-173.74 103.37-262.83 115.05-33.832 4.4349-73.568 6.684-124.05 0.09763z" fill="url(#a)"/>
 </g>
</svg>
