<svg width="211.67mm" height="23.895mm" version="1.1" viewBox="0 0 211.67 23.895" xmlns="http://www.w3.org/2000/svg">
 <g transform="translate(297.55 -86.525)">
  <g fill="#fffe02" stroke-width=".29422" aria-label="Radio Goldenwave">
   <path d="m-291.17 109.15c3.1634 0 6.8917-2.2313 7.6826-6.5245 0.19772-0.93208 0.33894-1.9489 0.53665-2.9657 0.5649 0 1.1016-0.05649 1.6664-0.11298l3.0504 6.6093c1.271 2.768 3.0504 4.265 6.1291 4.265 2.6832 0 3.8978-1.1863 4.4344-2.9375h-0.70612c-0.36718 1.271-1.384 2.0336-2.542 2.0336-1.9489 0-2.3161-0.50841-7.2307-10.705 3.1634-1.1015 5.5925-3.2482 5.5925-6.2421 0-2.881-2.0336-4.9428-8.8406-4.9428-10.281 0-16.156 3.0504-16.156 8.4452 0 1.1863 0.39543 2.1748 1.1863 2.9092 1.2428 1.2145 3.1069 1.5817 4.9428 1.5817v-0.59314c-0.0282 0.02824-2.9657 0.14122-4.5756-1.4122-0.62139-0.62138-1.0168-1.4687-1.0168-2.4855 0-4.3497 4.378-7.1177 12.089-7.7673l-2.7115 15.619c-0.70612 3.9543-1.1863 4.5756-3.5306 4.6886zm17.879-16.58c0 3.3611-4.1237 6.3268-9.5468 6.4681l1.6947-10.874c5.3383 0.05649 7.8521 1.6382 7.8521 4.4062z"/>
   <path d="m-259.14 93.84s-1.2993 0.2542-3.4741 0.2542c-0.14123 0.67788-0.22596 1.158-0.3107 1.6947-0.39542-1.1298-1.2145-1.9489-2.7397-1.9489-3.2764 0-5.6772 2.4855-5.6772 6.8917 0 2.8245 1.6664 4.3497 4.0955 4.3497 1.5535 0 2.5703-1.1298 3.1634-2.1748 0.14122 1.384 1.0733 2.1748 2.7115 2.1748 0.84734 0 1.5817-0.36718 2.1184-1.0168l-0.42367-0.33894c-0.36719 0.45192-0.84735 0.73437-1.4122 0.79086zm-7.7391 10.592c-0.76261 0-1.271-0.45191-1.271-2.2596 0-3.1352 1.0733-7.6261 3.0787-7.6261 1.0733 0 1.7512 1.2993 1.8642 2.655-0.42368 2.3443-0.62139 3.5306-0.73437 4.0673-0.22596 0.62138-1.3275 3.1634-2.9375 3.1634z"/>
   <path d="m-247.59 104.52c1.2993-7.0047 2.6832-14.772 2.6832-14.772 0.0283-0.2542 0.0565-0.50841 0.0565-0.73436 0-1.5817-0.96032-2.4855-2.7115-2.4855-0.84734 0-1.5817 0.36718-2.1184 1.0168l0.42368 0.33894c0.36718-0.45192 0.84734-0.73436 1.4122-0.79086l-1.5252 8.304c-0.0847-0.22596-0.25421-0.45192-0.42368-0.67788-0.53665-0.59314-1.271-0.87559-2.2313-0.87559-3.2764 0-5.6772 2.6268-5.6772 7.1742 0 2.4573 1.3558 4.0672 3.9543 4.0672 1.5817 0 2.5703-1.1015 3.1634-2.1184 0.14122 1.3558 1.1016 2.1184 2.7115 2.1184 0.84734 0 1.5817-0.36718 2.1184-1.0168l-0.42367-0.33894c-0.36718 0.45192-0.84735 0.73437-1.4122 0.79086zm-5.7902-0.0847c-0.76261 0-1.1298-0.45191-1.1298-2.2596 0-3.1352 1.2428-7.7956 2.4855-7.7956 1.9771 0 2.3726 1.5535 2.4291 2.4008l-0.8191 4.4627c-0.22596 0.59314-1.3275 3.1917-2.9657 3.1917z"/>
   <path d="m-238.86 93.84s-1.2993 0.2542-3.4741 0.2542h-1.2145l-0.0565 0.50841h1.1863l-0.93208 5.0558c-0.19771 1.1863-0.45191 2.2031-0.45191 3.0787 0 1.3558 0.96032 2.3443 2.7115 2.3443 0.84734 0 1.5817-0.36718 2.1184-1.0168l-0.42367-0.33894c-0.36719 0.45192-0.84735 0.73437-1.4122 0.79086zm-3.1917-4.152c0 1.1298 0.90384 2.0336 2.0336 2.0336s2.0619-0.90383 2.0619-2.0336-0.93208-2.0619-2.0619-2.0619-2.0336 0.93208-2.0336 2.0619z"/>
   <path d="m-237.36 101.01c0 2.4573 1.4687 4.0672 4.4344 4.0672 4.4344 0 6.6375-3.0504 6.6375-7.1742 0-2.4573-1.497-4.0673-4.4344-4.0673-5.423 0-6.6375 3.7566-6.6375 7.1742zm4.4909 3.4176c-0.67787 0-1.2993-0.48016-1.2993-2.2596 0-4.9146 1.8359-7.7956 3.4176-7.7956 0.96032 0 1.271 0.84734 1.271 2.3726 0 4.2367-1.6382 7.6826-3.3894 7.6826z"/>
   <path d="m-214.63 100.99c0-8.8689 3.9825-11.75 6.9482-12.654 0.53666-0.05649 1.1016-0.11298 1.6947-0.11298 3.7001 0 4.039 1.8077 4.039 3.1352 0 1.0451-0.50841 1.8359-1.1016 2.7397-0.59314 0.96032-1.2428 1.9206-1.2428 3.1634h0.62139c0-1.0451 0.56489-1.9206 1.1298-2.8245 0.62138-0.93208 1.2428-1.9206 1.2428-3.1352 0-2.4855-1.3275-3.6718-4.6886-3.6718-7.2307 0-11.976 4.9993-11.976 11.722 0 5.0276 2.7397 7.9368 7.4849 7.9368 3.2764 0 5.197-1.2993 6.0444-2.0619-0.67788 2.429-1.5535 4.039-3.5871 4.4627l0.11298 0.59314c3.7566-1.0168 3.813-4.0108 5.2535-9.9987l-0.59314-0.14123c-0.36718 1.497-0.62139 2.881-0.93208 4.0672-0.22596 0.28245-2.0619 2.4573-6.2986 2.4573-0.50841 0-0.96032-0.0282-1.4122-0.0847-1.2428-0.62139-2.7398-2.0619-2.7398-5.5925z"/>
   <path d="m-200.42 101.01c0 2.4573 1.4687 4.0672 4.4344 4.0672 4.4344 0 6.6375-3.0504 6.6375-7.1742 0-2.4573-1.497-4.0673-4.4344-4.0673-5.423 0-6.6375 3.7566-6.6375 7.1742zm4.4909 3.4176c-0.67788 0-1.2993-0.48016-1.2993-2.2596 0-4.9146 1.8359-7.7956 3.4176-7.7956 0.96032 0 1.271 0.84734 1.271 2.3726 0 4.2367-1.6382 7.6826-3.3894 7.6826z"/>
   <path d="m-184.88 104.52c1.2993-7.0047 2.8245-16.551 2.8527-17.484 0.90383 0 1.61 1.1298 1.61 2.4855 0 3.2764-2.3726 5.6772-2.3726 8.7276h0.50841c0-2.7397 2.4008-5.5642 2.4008-8.7276 0-2.0619-1.0733-2.9939-2.3443-2.9939-1.8924 0-3.0787 1.3275-3.7566 5.1688l-1.8359 10.168c-0.0282 0.2542-0.0565 0.5084-0.0565 0.73436 0 1.5817 0.96033 2.4855 2.7115 2.4855 2.6268 0 3.5306-3.6436 3.5306-3.6436l-0.50841-0.22595s-0.98857 3.3046-2.7398 3.3046z"/>
   <path d="m-170.03 104.52c1.2993-7.0047 2.6833-14.772 2.6833-14.772 0.0282-0.2542 0.0565-0.50841 0.0565-0.73436 0-1.5817-0.96032-2.4855-2.7115-2.4855-0.84735 0-1.5817 0.36718-2.1184 1.0168l0.42367 0.33894c0.36718-0.45192 0.84734-0.73436 1.4122-0.79086l-1.5252 8.304c-0.0847-0.22596-0.2542-0.45192-0.42367-0.67788-0.53665-0.59314-1.271-0.87559-2.2313-0.87559-3.2764 0-5.6772 2.6268-5.6772 7.1742 0 2.4573 1.3558 4.0672 3.9543 4.0672 1.5817 0 2.5703-1.1015 3.1634-2.1184 0.14123 1.3558 1.1016 2.1184 2.7115 2.1184 0.84735 0 1.5817-0.36718 2.1184-1.0168l-0.42367-0.33894c-0.36718 0.45192-0.84734 0.73437-1.4122 0.79086zm-5.7902-0.0847c-0.76261 0-1.1298-0.45191-1.1298-2.2596 0-3.1352 1.2428-7.7956 2.4855-7.7956 1.9771 0 2.3726 1.5535 2.429 2.4008l-0.8191 4.4627c-0.22596 0.59314-1.3275 3.1917-2.9657 3.1917z"/>
   <path d="m-160.42 93.84c-3.6718 0-6.1291 2.6268-6.1291 7.1742 0 2.4573 1.5252 4.0672 4.6322 4.0672 4.378 0 5.1406-3.7283 5.1406-3.7283l-0.5084-0.22596c0 0.0282-1.0168 3.3046-4.0108 3.3046-1.1016 0-2.0619-0.67787-2.0619-2.4855 0-0.5649 0.0282-1.1016 0.0565-1.61 4.0672-0.0282 6.4681-1.2428 6.4681-3.6436 0-1.7229-1.0168-2.8527-3.5871-2.8527zm0.81909 0.70612c1.3275 0 2.0619 0.93208 2.0619 2.1466 0 1.7794-1.4687 2.9657-5.6772 2.9939 0.48016-3.6153 2.1466-5.1406 3.6153-5.1406z"/>
   <path d="m-143.25 97.399c0-2.2313-1.3275-3.5588-3.5306-3.5588-1.9489 0-2.9657 1.158-3.6153 2.655v-0.16947c0-1.5817-0.96032-2.4855-2.7115-2.4855-0.84735 0-1.5817 0.36718-2.1184 1.0168l0.42367 0.33894c0.36718-0.45192 0.84734-0.73436 1.4122-0.79085l-0.93208 5.2253c-0.19771 1.1863-0.45191 2.2313-0.45191 3.1069 0 1.3558 0.96032 2.3443 2.7115 2.3443 0.84734 0 1.5817-0.36718 2.1184-1.0168l-0.42368-0.33894c-0.36718 0.45192-0.87558 0.73437-1.4405 0.79086l0.96032-5.2818c0.76261-2.7962 1.9771-4.5474 3.2199-4.5474 0.76261 0 1.158 0.31069 1.158 1.2145 0 1.6664-1.0168 4.9428-1.0168 6.8635 0 1.497 0.87559 2.3161 2.5703 2.3161 1.8359 0 2.3726-1.0168 2.3726-1.0168l-0.42367-0.33894s-0.67787 0.79086-1.4122 0.79086c0.11298-2.4291 1.1298-5.3383 1.1298-7.1177z"/>
   <path d="m-127.43 95.902c0 1.1298 0.90384 2.0336 2.0336 2.0336 0.62138 0 1.2145-0.28245 1.5817-0.73436 0.0282 0.19771 0.0565 0.39543 0.0565 0.59314 0 3.4176-2.3726 6.6658-4.8864 6.6658-1.0451 0-1.5817-0.8191-1.5817-1.7512 0-2.0619 1.1298-4.4344 1.1298-6.3551 0-1.497-0.8191-2.5138-2.5138-2.5138-1.9206 0-2.655 1.4122-2.655 1.4122l0.42367 0.33894s0.70612-1.1298 1.6947-1.1863c-0.11298 2.4291-1.1016 4.3497-1.1016 6.7223 0 0.59314 0.11298 1.1298 0.3107 1.6382-0.70612 1.0451-1.6664 1.6947-2.7962 1.6947-1.0451 0-1.5817-0.8191-1.5817-1.7512 0-2.0619 1.1298-4.4344 1.1298-6.3551 0-1.497-0.8191-2.5138-2.5138-2.5138-1.9206 0-2.655 1.4122-2.655 1.4122l0.42367 0.33894s0.70612-1.1298 1.6947-1.1863c-0.11298 2.4291-1.1016 4.3497-1.1016 6.7223 0 2.2313 1.6382 3.9543 4.0955 3.9543 1.7229 0 2.9092-0.67787 3.7001-1.6382 0.70612 1.0168 1.8924 1.6382 3.3894 1.6382 4.6604 0 6.0444-4.8581 6.0444-7.2872 0-1.4687-0.19772-2.2031-0.33894-2.5138v-0.02824c0-0.02824-0.0282-0.05649-0.0282-0.05649-0.28245-0.79085-1.0451-1.3558-1.9206-1.3558-1.1298 0-2.0336 0.93208-2.0336 2.0619z"/>
   <path d="m-109.56 93.84s-1.2993 0.2542-3.4741 0.2542c-0.14122 0.67788-0.22596 1.158-0.31069 1.6947-0.39543-1.1298-1.2145-1.9489-2.7398-1.9489-3.2764 0-5.6772 2.4855-5.6772 6.8917 0 2.8245 1.6664 4.3497 4.0955 4.3497 1.5535 0 2.5703-1.1298 3.1634-2.1748 0.14123 1.384 1.0733 2.1748 2.7115 2.1748 0.84735 0 1.5817-0.36718 2.1184-1.0168l-0.42367-0.33894c-0.36718 0.45192-0.84734 0.73437-1.4122 0.79086zm-7.7391 10.592c-0.76261 0-1.271-0.45191-1.271-2.2596 0-3.1352 1.0733-7.6261 3.0787-7.6261 1.0733 0 1.7512 1.2993 1.8642 2.655-0.42367 2.3443-0.62138 3.5306-0.73436 4.0673-0.22596 0.62138-1.3275 3.1634-2.9375 3.1634z"/>
   <path d="m-101.28 95.902c0 1.1298 0.90384 2.0336 2.0336 2.0336 0.62139 0 1.2145-0.28245 1.5817-0.73436 0.02825 0.19771 0.05649 0.39543 0.05649 0.59314 0 3.4176-2.4855 6.6658-4.9993 6.6658-1.0451 0-1.5817-0.8191-1.5817-1.7512 0-2.0619 1.1298-4.4344 1.1298-6.3551 0-1.497-0.8191-2.5138-2.5138-2.5138-1.9206 0-2.655 1.4122-2.655 1.4122l0.42367 0.33894s0.70612-1.1298 1.6947-1.1863c-0.11298 2.4291-1.1016 4.3497-1.1016 6.7223 0 2.2313 1.6382 3.9543 4.0955 3.9543 4.6604 0 6.1574-4.8581 6.1574-7.2872 0-1.4687-0.19771-2.2031-0.33894-2.5138v-0.02824c0-0.02824-0.02824-0.05649-0.02824-0.05649-0.28245-0.79085-1.0451-1.3558-1.9206-1.3558-1.1298 0-2.0336 0.93208-2.0336 2.0619z"/>
   <path d="m-89.53 93.84c-3.6718 0-6.1291 2.6268-6.1291 7.1742 0 2.4573 1.5252 4.0672 4.6321 4.0672 4.3779 0 5.1406-3.7283 5.1406-3.7283l-0.50841-0.22596c0 0.0282-1.0168 3.3046-4.0108 3.3046-1.1015 0-2.0619-0.67787-2.0619-2.4855 0-0.5649 0.02824-1.1016 0.05649-1.61 4.0673-0.0282 6.4681-1.2428 6.4681-3.6436 0-1.7229-1.0168-2.8527-3.5871-2.8527zm0.8191 0.70612c1.3275 0 2.0619 0.93208 2.0619 2.1466 0 1.7794-1.4687 2.9657-5.6772 2.9939 0.48016-3.6153 2.1466-5.1406 3.6153-5.1406z"/>
  </g>
 </g>
</svg>
