<svg xmlns="http://www.w3.org/2000/svg" height="195.56" width="600" viewBox="0 0 158.75 51.741">
    <g fill="#fff">
        <path d="M77.033 51.74h-.011c-11.863 0-17.171-8.204-17.171-16.328 0-1.6 1.256-2.854 2.851-2.854h7.095a2.823 2.823 0 0 1 2.851 2.854c0 .83.779 4.174 4.37 4.174h-.043.042c2.621 0 4.75-1.766 4.75-3.948s-1.77-3.948-3.95-3.948h-2.925a2.824 2.824 0 0 1-2.856-2.853v-6.449c0-1.6 1.253-2.854 2.856-2.854h2.125c3.63 0 4.175-2.252 4.175-3.595 0-1.584-1.452-3.786-4.175-3.786-2.423 0-4.11 2.404-4.11 4.563a2.824 2.824 0 0 1-2.853 2.856h-7.026a2.823 2.823 0 0 1-2.856-2.856c0-9.689 7.086-16.717 16.845-16.717C86.695 0 93.99 6.856 93.99 15.94c0 4.614-2.137 7.723-4.085 9.596 2.931 2.671 4.669 6.566 4.669 10.523 0 4.29-1.59 8.188-4.46 10.978-3.136 3.044-7.659 4.67-13.08 4.704M113.798 40.51c-3.149 0-5.832-2.135-5.7-4.89.13-2.7 2.056-4.894 5.7-4.894 3.64 0 5.566 2.195 5.699 4.893.133 2.756-2.554 4.891-5.699 4.891m-.062-29.27h.124c3.32 0 5.09 2.727 5.09 4.696 0 4.125-3.945 4.442-5.152 4.442-1.21 0-5.15-.317-5.15-4.442 0-1.969 1.768-4.696 5.088-4.696m13.015 14.289c1.946-1.873 4.083-4.98 4.083-9.593 0-9.083-7.296-15.94-16.974-15.94h-.124c-9.678 0-16.976 6.857-16.976 15.94 0 4.613 2.141 7.72 4.085 9.593-2.931 2.674-4.667 6.568-4.667 10.527 0 4.294 1.587 8.209 4.47 11.003 3.153 3.06 7.7 4.677 13.15 4.677s9.997-1.617 13.15-4.677c2.88-2.794 4.47-6.704 4.47-11.003 0-3.959-1.738-7.853-4.667-10.527M39.654 51.74c-11.817 0-18.197-8.377-18.197-16.264 0-1.606 1.28-2.918 2.854-2.918h7.092c1.627 0 2.856 1.227 2.856 2.854 0 1.877 2.488 4.174 5.395 4.174 3.473 0 5.463-2.437 5.463-6.69 0-3.766-2.192-6.298-5.463-6.298-1.462 0-4.108.381-5.417 2.938a2.855 2.855 0 0 1-2.576 1.573h-7.026a2.823 2.823 0 0 1-2.856-2.854l.018-.266 2.891-24.714c.1-1.487 1.325-2.632 2.847-2.632h24.626a2.825 2.825 0 0 1 2.856 2.856v6.513c0 1.587-1.28 2.79-2.983 2.79H36.22l-.278 2.445c1.483-.522 3.007-.803 4.359-.803 10.565 0 17.941 7.589 17.941 18.451 0 11.273-7.47 18.845-18.587 18.845"/>
    </g>
    <path d="M158.751 39.53c0 6.66-5.397 12.056-12.059 12.056-6.657 0-12.056-5.396-12.056-12.056 0-6.662 5.4-12.06 12.056-12.06 6.662 0 12.059 5.398 12.059 12.06" fill="#6d1d82"/>
    <path d="M158.751 12.21c0 6.662-5.397 12.059-12.059 12.059-6.657 0-12.056-5.397-12.056-12.059 0-6.66 5.4-12.059 12.056-12.059 6.662 0 12.059 5.4 12.059 12.059" fill="#86b817"/>
    <g fill="#fff">
        <path d="M10.623 48.52h7.228c.077 0 .126.053.126.13v2.832c0 .054-.049.105-.126.105H5.184c-.075 0-.127-.051-.127-.105v-2.45c0-.15.052-.204.154-.255l.765-.257c.102-.047.127-.149.051-.226-.765-.768-1.222-1.634-1.222-2.836v-1.403c0-.077.05-.126.124-.126h2.68c.076 0 .127.049.127.126v1.658c0 1.993 1.356 2.807 2.887 2.807M12.745 34.94c-.18 0-.206 0-.206.204v2.836c.102 2.27.918 2.654 1.586 2.654.533 0 1.298-.46 1.298-1.993 0-2.63-1.48-3.652-2.678-3.701m5.488 3.701c0 3.473-1.789 5.056-4.112 5.056-2.195 0-4.137-1.86-4.137-5.593v-2.398c0-.51-.304-.766-.561-.766-.535 0-1.809.18-1.81 2.683 0 1.94.818 2.499 1.684 2.578.075 0 .126.05.128.125l-.002 2.785c.002.075-.049.124-.126.124-3.012 0-4.494-2.6-4.494-5.612 0-3.526 1.658-5.748 4.853-5.748h8.195c.102 0 .127.08.127.13v2.5a.19.19 0 0 1-.127.18l-.816.255c-.103.049-.103.18 0 .284.505.508 1.198 1.935 1.198 3.417M15.422 24.52c0-2.042-1.609-3.034-3.903-3.034-2.557 0-3.908.992-3.908 3.034 0 2.172 1.609 3.295 3.908 3.295 2.294 0 3.903-1.123 3.903-3.295m2.81.513c0 3.597-2.732 5.847-6.713 5.85-3.986-.003-6.718-2.48-6.718-5.85 0-1.634.715-2.812 1.225-3.32.105-.1.054-.227-.075-.227H.13a.127.127 0 0 1-.13-.13v-2.808c0-.077.056-.126.13-.126H17.85c.08 0 .126.049.126.1v2.452c0 .153-.024.204-.126.255l-.817.257c-.1.05-.1.178 0 .28.613.61 1.198 1.966 1.198 3.267M17.978 16.83c0 .071-.049.126-.124.126H5.184a.122.122 0 0 1-.126-.126v-2.812a.12.12 0 0 1 .127-.126h12.667c.077 0 .126.051.126.126zm-14.35.126c0 .076-.05.123-.127.127L.13 17.079c-.073 0-.129-.047-.129-.123v-3.064c0-.078.056-.127.129-.127H3.5c.078-.002.127.05.127.127zM7.61 6.36c0 2.144 1.507 3.267 3.908 3.269 2.4 0 3.903-1.125 3.903-3.269 0-2.172-1.502-3.295-3.903-3.295S7.61 4.188 7.61 6.36m10.62 0c0 3.983-2.731 6.331-6.712 6.331-4.01 0-6.717-2.348-6.717-6.331C4.8 2.374 7.535-.002 11.518 0c3.98-.002 6.713 2.374 6.713 6.36"/>
    </g>
</svg>
