<?xml version="1.0" encoding="UTF-8" standalone="no"?>
<!-- Created with Inkscape (http://www.inkscape.org/) -->

<svg
   xmlns:dc="http://purl.org/dc/elements/1.1/"
   xmlns:cc="http://creativecommons.org/ns#"
   xmlns:rdf="http://www.w3.org/1999/02/22-rdf-syntax-ns#"
   xmlns:svg="http://www.w3.org/2000/svg"
   xmlns="http://www.w3.org/2000/svg"
   xmlns:sodipodi="http://sodipodi.sourceforge.net/DTD/sodipodi-0.dtd"
   xmlns:inkscape="http://www.inkscape.org/namespaces/inkscape"
   width="97.40728mm"
   height="25.975677mm"
   viewBox="0 0 345.14391 92.039802"
   id="svg4220"
   version="1.1"
   inkscape:version="0.91 r13725"
   sodipodi:docname="radiocomercial.default.svg">
  <defs
     id="defs4222" />
  <sodipodi:namedview
     id="base"
     pagecolor="#ffffff"
     bordercolor="#666666"
     borderopacity="1.0"
     inkscape:pageopacity="0.0"
     inkscape:pageshadow="2"
     inkscape:zoom="1.2288272"
     inkscape:cx="-5.5961743"
     inkscape:cy="60.624289"
     inkscape:document-units="px"
     inkscape:current-layer="layer1"
     showgrid="false"
     fit-margin-top="0"
     fit-margin-left="0"
     fit-margin-right="0"
     fit-margin-bottom="0"
     inkscape:window-width="1920"
     inkscape:window-height="983"
     inkscape:window-x="0"
     inkscape:window-y="27"
     inkscape:window-maximized="1" />
  <metadata
     id="metadata4225">
    <rdf:RDF>
      <cc:Work
         rdf:about="">
        <dc:format>image/svg+xml</dc:format>
        <dc:type
           rdf:resource="http://purl.org/dc/dcmitype/StillImage" />
        <dc:title />
      </cc:Work>
    </rdf:RDF>
  </metadata>
  <g
     inkscape:label="Layer 1"
     inkscape:groupmode="layer"
     id="layer1"
     transform="translate(-222.38149,-290.20805)">
    <g
       transform="matrix(0.03543397,0,0,0.03543397,185.38966,168.56864)"
       id="Layer_x0020_1_0">
      <metadata
         id="CorelCorpID_1Corel-Layer" />
      <g
         id="_870272816">
        <path
           style="fill:#ed1b22"
           inkscape:connector-curvature="0"
           d="m 2846,4187 c -85,12 -107,8 -195,35 -61,17 -114,40 -165,67 -195,105 -354,284 -430,492 -46,121 -64,258 -54,403 16,244 134,467 306,616 199,170 418,248 691,227 264,-20 452,-136 614,-308 69,-72 134,-176 176,-285 47,-122 62,-260 52,-403 -26,-427 -383,-789 -777,-837 -64,-8 -151,-16 -218,-7 z"
           id="path11" />
        <path
           style="fill:#0a0c08"
           inkscape:connector-curvature="0"
           d="m 4248,4952 104,-2 c 2,30 1,493 1,535 0,63 -8,206 9,255 21,64 78,108 161,109 85,0 140,-42 163,-104 18,-51 11,-193 11,-257 l 0,-403 c 0,-43 -2,-93 1,-133 15,-2 36,-2 52,-2 16,2 10,-2 21,33 6,27 14,53 21,81 l 138,488 c 16,55 30,109 46,164 17,58 41,99 86,123 90,44 245,-7 256,-128 6,-54 -21,-126 -35,-174 l -182,-652 c -14,-53 -28,-113 -46,-163 -48,-140 -174,-119 -298,-119 l -628,0 c -139,0 -227,13 -227,188 l 0,836 c 0,71 2,125 40,167 79,84 232,72 283,-28 30,-53 21,-119 21,-187 l 0,-418 c 0,-67 -2,-144 2,-209 l 0,0 0,0 z"
           id="path13" />
        <path
           style="fill:#0a0c08"
           inkscape:connector-curvature="0"
           d="m 5725,5504 -2,-103 c 34,-2 388,0 431,0 73,0 135,7 186,-27 41,-27 73,-75 74,-145 0,-72 -30,-116 -70,-145 -51,-37 -116,-29 -188,-29 -72,0 -144,0 -216,0 -70,0 -145,2 -215,-2 l -2,-101 c 50,-5 268,-2 336,-2 55,0 110,0 167,0 58,2 94,-9 129,-38 72,-60 75,-178 23,-246 -61,-78 -156,-63 -274,-63 l -502,0 c -54,0 -106,-1 -148,21 -84,47 -72,148 -72,262 l 0,674 c 0,109 -14,219 68,267 41,25 87,23 141,23 l 508,0 c 115,0 213,18 276,-58 54,-65 55,-182 -18,-247 -32,-29 -71,-40 -126,-40 l -338,0 c -53,0 -117,2 -168,-1 l 0,0 0,0 z"
           id="path15" />
        <path
           style="fill:#0a0c08"
           d="M 257.20898 0.001953125 C 257.04178 0.0080433382 256.86715 0.031879415 256.68555 0.076171875 C 254.3469 0.67854933 252.04372 1.3510253 249.70508 1.9179688 C 248.42946 2.2723084 247.40207 2.5207058 247.4375 4.1152344 C 247.50837 5.4262912 248.53437 6.2427338 249.88086 5.9238281 C 252.2195 5.3923186 254.5584 4.6824556 256.82617 4.0800781 C 258.13723 3.7257384 259.20117 3.549329 259.20117 1.9902344 C 259.17017 0.81205494 258.37941 -0.040678368 257.20898 0.001953125 z M 320.21094 6.5859375 C 319.83798 6.5876677 319.46268 6.6020693 319.08398 6.6308594 C 313.02478 7.091501 308.20501 11.237621 306.46875 16.056641 C 302.85449 25.907284 310.15499 36.821674 321.5293 35.900391 C 325.35617 35.652353 329.0757 33.702747 331.37891 31.009766 C 333.93015 27.820709 335.3136 24.560939 334.92383 20.025391 C 334.74666 17.757617 334.1791 16.056299 333.25781 14.355469 C 330.69992 9.5386637 325.80528 6.5599849 320.21094 6.5859375 z M 254.70312 6.9179688 C 254.43536 6.9255123 254.1508 6.9594749 253.84961 7.0214844 C 251.6527 7.446692 251.15678 8.6510098 250.3418 10.316406 C 248.25119 14.320445 245.3808 20.024981 243.64453 24.064453 C 242.93585 25.623548 242.22793 27.218805 241.55469 28.707031 C 240.77514 30.30156 239.7838 32.108606 240.95312 33.951172 C 242.12245 35.72287 245.8427 37.033658 247.7207 34.234375 C 248.00417 33.738299 248.67662 32.428272 248.81836 31.861328 L 258.95312 31.861328 C 260.58309 37.778801 265.43699 35.970908 266.74805 33.951172 C 267.9528 32.037738 266.9252 30.372428 266.25195 28.707031 L 258.24414 9.4667969 C 257.65505 8.0715844 256.57746 6.8651638 254.70312 6.9179688 z M 225.19727 6.9902344 C 222.61502 6.9858051 219.99258 7.0037674 219.19531 7.0214844 C 217.31731 7.0923523 216.25473 7.8717129 215.90039 9.5371094 C 215.61692 11.096204 215.79325 13.576513 215.75781 15.277344 C 215.68694 17.11991 215.54576 31.470193 215.6875 32.78125 C 216.25444 36.466383 221.14487 36.891654 222.8457 34.517578 C 224.12133 32.816748 223.37696 31.50662 223.625 29.416016 C 224.12108 29.628619 231.98832 34.978534 232.98047 35.474609 C 237.44515 37.636081 239.85291 31.790101 238.43555 29.664062 C 238.08121 29.203421 237.65594 28.848203 236.94727 28.529297 C 236.27402 28.281259 230.03793 25.731015 229.68359 25.412109 C 232.90808 25.23494 235.77825 25.022477 237.65625 21.65625 C 239.00274 19.06957 239.07502 14.569092 237.97656 11.734375 C 236.94898 8.8996576 234.60868 7.3752686 230.95898 7.0917969 C 230.32117 7.0209289 227.77952 6.9946636 225.19727 6.9902344 z M 275.53516 7.0039062 C 274.08236 7.0039063 272.6826 7.0209289 272.31055 7.0917969 C 270.68058 7.3752686 269.12304 8.7921902 268.875 10.386719 C 268.6624 11.308002 268.76758 30.231329 268.76758 30.869141 C 268.76758 33.314084 269.19231 34.518448 271.07031 35.404297 C 272.34594 36.006674 275.74811 35.757812 277.48438 35.757812 C 282.7286 35.757812 284.7839 35.510795 288.43359 33.136719 C 290.7368 31.54219 293.11164 28.672303 294.06836 25.128906 C 295.20225 21.018566 294.42292 16.978962 292.54492 13.931641 C 289.7102 9.2897908 284.74951 7.0214844 279.08008 7.0214844 C 278.49542 7.0214844 276.98795 7.0039062 275.53516 7.0039062 z M 299.89453 7.0703125 C 299.71577 7.0780637 299.53368 7.0959484 299.34766 7.1269531 C 295.83969 7.6584626 296.01758 10.458233 296.01758 12.796875 L 296.01758 31.117188 C 296.01758 32.782584 296.19395 33.703717 297.11523 34.625 C 298.78063 36.254963 302.00479 36.147522 303.38672 34.021484 C 304.13083 32.816729 303.98828 31.576673 303.98828 30.017578 L 303.98828 11.664062 C 303.98828 10.0341 303.74132 9.0401461 302.85547 8.1542969 C 302.20437 7.5031977 301.14586 7.0160542 299.89453 7.0703125 z M 320.04883 14.708984 C 323.58734 14.543796 326.44899 17.28757 326.91406 20.34375 C 327.51644 24.27692 324.64804 27.466815 321.45898 27.962891 C 317.34864 28.529834 314.19502 25.83581 313.73438 22.363281 C 313.20287 18.359243 316.00124 15.31276 319.33203 14.78125 C 319.57343 14.743601 319.81293 14.719997 320.04883 14.708984 z M 229.45312 14.998047 C 230.62577 14.973132 231.82854 15.073635 231.77539 16.269531 C 231.70452 17.757758 229.47233 17.439453 228.26758 17.439453 C 226.77935 17.439453 225.14811 17.475165 223.69531 17.404297 L 223.69531 15.029297 C 225.25441 14.958429 226.84966 15.029297 228.33789 15.029297 C 228.67451 15.029297 229.06224 15.006352 229.45312 14.998047 z M 278.79297 15.056641 C 280.64661 15.026743 282.00188 15.047893 283.75586 16.164062 C 287.44099 18.538138 287.44155 24.065664 283.68555 26.652344 C 281.73668 28.034268 279.39778 27.856024 276.74023 27.785156 L 276.74023 15.064453 C 277.50206 15.08217 278.17509 15.066606 278.79297 15.056641 z M 254.13281 20.556641 C 254.48715 20.91098 254.84208 22.115253 255.05469 22.611328 C 255.33816 23.24914 255.76424 24.136182 255.94141 24.703125 L 252.11328 24.703125 C 252.18415 24.313351 253.88477 20.875546 254.13281 20.556641 z M 299.85742 41.394531 C 298.05458 41.377576 296.17117 42.073635 294.95312 43.269531 C 294.03184 44.190814 293.57141 45.147928 292.93359 46.458984 L 286.02344 60.5625 C 285.73997 61.200311 285.49273 61.659619 285.17383 62.226562 C 284.89036 62.793506 284.64312 63.467935 284.32422 64.070312 L 279.43359 74.912109 C 278.40601 77.357053 276.67027 80.014614 278.61914 82.884766 C 280.53257 85.754917 286.16556 87.492311 288.96484 83.240234 C 289.70896 82.141781 290.09907 80.795441 290.66602 79.732422 L 306.18555 79.697266 C 307.46117 82.496549 307.70994 84.621686 310.82812 85.542969 C 314.01718 86.464252 317.02822 84.656742 318.16211 82.849609 C 320.00468 79.90859 318.55186 77.534223 317.41797 74.912109 L 308.16992 52.695312 C 307.14234 50.214935 306.18607 47.769718 305.12305 45.253906 C 304.52067 43.907415 303.88305 42.950867 302.85547 42.242188 C 301.99177 41.670815 300.93913 41.404705 299.85742 41.394531 z M 212.34375 41.412109 C 210.47848 41.392731 208.5655 41.462891 206.6875 41.462891 C 205.23471 41.462891 198.96202 41.427457 198.07617 41.462891 C 195.31232 41.781796 193.71817 42.560916 193.04492 45.005859 C 192.58428 46.777558 192.86914 51.348849 192.86914 53.439453 C 192.86914 54.39617 192.72713 77.817572 192.9043 79.164062 C 193.18777 81.538138 194.74673 83.204541 196.9082 83.771484 C 199.81379 84.515598 202.11723 83.416239 203.35742 81.892578 C 204.88108 79.979144 204.49023 77.109275 204.49023 74.380859 C 204.91544 74.451727 208.38925 76.861902 209.0625 77.287109 C 210.05465 77.889487 217.60047 82.921329 218.23828 83.240234 C 220.57692 84.338687 222.27881 84.160944 224.08594 82.814453 C 225.14896 81.928604 226.6024 80.156446 226.74414 77.888672 C 226.77957 75.656332 226.63634 74.168766 223.94336 73.070312 C 222.17166 72.361633 220.43604 71.617716 218.62891 70.802734 C 218.27457 70.660999 213.63308 68.81723 213.34961 68.462891 C 216.04259 68.392023 218.48752 68.252194 220.57812 67.224609 C 222.6333 66.197024 223.97995 64.884415 225.04297 62.935547 C 226.9564 59.21498 227.23962 52.483387 225.57422 48.373047 C 223.1027 42.340414 217.93955 41.470243 212.34375 41.412109 z M 252.07422 41.423828 C 250.9359 41.428257 249.79252 41.462613 249.10156 41.498047 C 245.06209 41.816953 242.33331 42.278241 239.17969 43.908203 C 237.72689 44.616882 236.55799 45.359967 235.38867 46.28125 C 233.93588 47.379703 233.37022 48.054733 232.23633 49.294922 C 228.33859 53.6533 225.89375 60.527348 227.48828 68.251953 C 229.47258 77.748257 237.97633 84.586252 246.97656 85.542969 C 248.92543 85.755573 251.05113 85.648437 253 85.648438 C 255.12604 85.648438 256.64988 85.54321 257.96094 84.515625 C 260.83109 82.247851 260.866 78.171784 259.02344 75.691406 C 256.6848 72.608651 253.42562 73.601276 248.96094 73.388672 C 245.13407 73.211502 242.47623 71.227601 241.02344 69.101562 C 237.30287 63.644731 240.13754 55.10459 247.25977 53.970703 C 249.98818 53.510062 255.51516 54.857895 258.06641 52.554688 C 261.96414 49.223895 260.54723 42.241882 255.01953 41.533203 C 254.34629 41.444618 253.21253 41.419399 252.07422 41.423828 z M 270.33203 41.5625 C 270.05811 41.560701 269.77332 41.574464 269.47656 41.605469 C 267.20879 41.818073 265.933 42.810037 265.01172 44.121094 C 263.8424 45.751056 264.05469 47.841046 264.05469 50.179688 L 264.05469 78.349609 C 264.05469 80.971723 264.1962 82.318136 265.57812 83.841797 C 267.7396 86.215873 273.0902 86.535029 275.28711 83.0625 C 276.45643 81.1845 276.24414 79.342826 276.24414 76.96875 L 276.24414 48.761719 C 276.24414 46.210473 275.99548 44.758878 274.57812 43.376953 C 273.61698 42.353797 272.24948 41.575096 270.33203 41.5625 z M 327.21875 41.583984 C 325.71004 41.506127 324.16005 41.892851 323.05273 42.667969 C 321.10387 44.049893 320.71484 45.715795 320.71484 48.833984 L 320.71484 74.558594 C 320.71484 76.968104 320.46655 80.687851 321.24609 82.636719 C 322.06108 84.656455 323.93928 85.613004 326.70312 85.648438 C 329.57328 85.719305 332.44263 85.648438 335.27734 85.648438 C 337.86402 85.648438 340.94622 86.038175 342.82422 84.65625 C 346.33218 82.06957 345.90775 75.018643 341.23047 73.636719 C 338.92726 72.998907 335.27725 73.707578 332.79688 73.388672 C 332.72601 72.006747 332.79688 58.081968 332.79688 56.345703 L 332.79688 47.806641 C 332.79688 44.971923 331.55685 43.198905 329.78516 42.242188 C 329.01447 41.843555 328.12398 41.630699 327.21875 41.583984 z M 213.19727 53.185547 C 214.84328 53.152328 216.48479 53.297216 216.43164 54.998047 C 216.39621 57.194953 213.38554 56.699219 211.54297 56.699219 C 210.44452 56.699219 205.69445 56.805798 205.05664 56.664062 L 205.05664 53.261719 C 205.69445 53.155417 210.51483 53.226562 211.61328 53.226562 C 212.1005 53.226562 212.64859 53.19662 213.19727 53.185547 z M 298.92188 62.226562 L 301.54492 68.640625 L 295.70898 68.640625 C 295.70596 68.652601 295.7001 68.66375 295.69727 68.675781 L 295.69727 68.640625 L 295.70898 68.640625 C 295.85746 68.053012 296.23391 67.532182 296.51172 66.976562 C 296.75976 66.409619 296.97239 65.947803 297.25586 65.380859 C 297.46846 65.02652 298.60297 62.439166 298.92188 62.226562 z "
           transform="matrix(28.221508,0,0,28.221508,1043.9652,3432.8472)"
           id="path17" />
        <path
           style="fill:#0a0c08"
           inkscape:connector-curvature="0"
           d="m 1656,4610 c -113,8 -190,26 -277,70 -150,76 -268,215 -312,380 -79,286 52,568 289,706 159,94 252,89 430,89 64,0 97,-6 136,-37 68,-53 84,-170 22,-247 -69,-87 -157,-55 -284,-64 -108,-5 -181,-62 -222,-122 -78,-115 -52,-286 59,-373 76,-59 124,-53 207,-53 30,0 58,0 88,0 61,0 97,-10 132,-41 28,-25 54,-62 57,-117 4,-54 -12,-103 -39,-135 -27,-30 -63,-54 -116,-57 -48,-4 -123,-3 -170,1 l 0,0 0,0 z"
           id="path23" />
        <path
           style="fill:#ffffff"
           inkscape:connector-curvature="0"
           d="m 3576,5478 c -35,-3 -124,40 -158,53 -183,63 -369,51 -543,-14 -206,-75 -298,-173 -338,-191 -133,-55 -77,128 -55,187 18,49 39,102 62,149 84,180 310,145 469,103 144,-38 384,-143 510,-233 13,-11 53,-34 53,-54 z"
           id="path37" />
      </g>
    </g>
  </g>
</svg>
