<svg width="1000" height="550.18" xmlns="http://www.w3.org/2000/svg">
    <g fill="#fff" paint-order="stroke markers fill">
        <path d="M53.484 549.69c-12.731-1.833-27.899-9.925-37.438-19.974-5.514-5.808-10.689-15.162-13.516-24.429l-2.125-6.966-.203-224.44L0 49.44l2.408-6.85c1.324-3.767 3.416-8.342 4.647-10.166 1.232-1.824 2.24-3.855 2.24-4.513 0-1.912 11.83-13.507 18.174-17.816 5.363-3.642 15.115-8.047 20.965-9.47 4.346-1.057 896.64-.665 902.24.396 5.818 1.104 14.86 5.151 22.678 10.153 9.74 6.231 19.548 19.003 24.124 31.416l2.525 6.85v449.12l-2.775 7.827c-7.057 19.903-22.715 35.09-42.367 41.09l-7.696 2.349-444.32.296c-244.38.163-446.59-.03-449.36-.428zm524.09-19.089c1.196-2.912.857-509.78-.341-510.98-.735-.735-78.531-1.048-262.46-1.056-260.74-.011-261.43-.006-265.31 1.974-2.14 1.092-4.524 1.985-5.298 1.985-2.423 0-14.785 10.37-16.781 14.076-1.048 1.945-2.206 3.537-2.575 3.537-.369 0-2.03 3.56-3.691 7.911l-3.021 7.912v438.93l2.385 6.337c5.646 15.001 16.017 24.795 31.861 30.092 1.345.45 119.91.856 263.48.902 247.73.08 261.07-.003 261.74-1.628zm130.07-12.485l2.109-1.477-.2-44.088c-.168-36.974.024-44.273 1.183-45.235 1.624-1.348 39.393-1.827 42.935-.545l2.202.797v44.223c0 39.777.163 44.403 1.62 46.012 1.368 1.513 3.175 1.79 11.677 1.79 5.532 0 11.188-.43 12.57-.955l2.509-.954v-99.771c0-78.75-.258-99.934-1.223-100.55-.673-.427-6.199-.942-12.28-1.143-9.522-.316-11.322-.127-12.965 1.36-1.828 1.654-1.908 3.29-1.908 39.176 0 32.74-.193 37.643-1.538 38.987-1.296 1.296-4.643 1.537-21.356 1.537-19.334 0-19.865-.053-21.73-2.201-1.83-2.108-1.904-3.776-1.752-39.163.19-43.904 1.65-39.85-14.356-39.85-8.767 0-10.643.276-11.988 1.762-1.45 1.603-1.601 10.683-1.672 100.39-.075 93.968.003 98.693 1.687 99.968 2.604 1.975 21.633 1.916 24.476-.076zm157.17.47c3.681-.531 9.95-2.323 13.932-3.98 5.996-2.496 8.312-4.173 13.491-9.767 6.923-7.477 9.88-12.973 13.651-25.363 7.628-25.068 7.957-95.93.566-121.82-3.099-10.853-7.788-20.087-13.108-25.814-6.01-6.47-10.5-9.382-19.483-12.64-6.747-2.449-7.722-2.528-35.845-2.9-26.87-.354-29.063-.255-31.1 1.406l-2.191 1.787-.043 98.826-.042 98.826 2.277 1.21c2.832 1.502 47.856 1.682 57.894.23zm-131.29-256.1c4.944-2.906 10.609-9.172 13.608-15.05 2.69-5.274 2.495-14.46-.511-24.03-4.03-12.83-4.403-17.791-3.453-46.013 1.086-32.247 1.791-44.053 3.083-51.64.55-3.228 1.549-13.023 2.219-21.767 1.342-17.521 2.224-19.818 7.606-19.818 1.561 0 4.685-.404 6.942-.897 12.643-2.765 21.226-4.275 33.946-5.974 31.167-4.163 31.777-4.335 34.49-9.764 2.74-5.484 2.269-10.437-1.312-13.782-2.937-2.744-4.165-3.21-15.565-5.915-8.055-1.91-54.804-1.552-69.472.534-13.138 1.868-33.252 6.412-50.391 11.384-3.767 1.093-9.405 2.644-12.53 3.447-19.008 4.89-30.49 9.772-35.178 14.962-4.33 4.793-4.641 7.811-1.63 15.79 6.519 17.268 25.234 20.458 45.797 7.806 2.756-1.696 7.103-3.886 9.658-4.865 2.555-.98 6.012-2.335 7.682-3.01 4.646-1.883 6.566-.678 5.971 3.746-2.702 20.1-3.613 28.237-4.571 40.843-2.266 29.807-2.97 46.704-3.184 76.321l-.217 30.333 3.109 6.003c1.836 3.546 5.028 7.648 7.8 10.023 5.748 4.927 9.467 5.235 16.102 1.334zm102.36-3.583c2.168-.765 5.639-2.514 7.713-3.887 4.936-3.266 14.724-15.082 19.135-23.099 3.063-5.567 5.648-11.25 16.968-37.304 1.315-3.027 2.394-5.89 2.397-6.36.003-.47.614-2.02 1.356-3.443 1.74-3.334 7.444-21.03 7.444-23.094 0-.868.849-4.47 1.886-8.007 2.617-8.925 5.656-20.813 7.394-28.934 1.432-6.689 2.488-10.961 6.406-25.93 1.056-4.036 2.599-9.98 3.427-13.21s1.92-7.411 2.426-9.295c1.429-5.32 1.138-14.509-.573-18.115-.847-1.784-3.238-4.421-5.313-5.86-3.155-2.185-4.798-2.606-10.015-2.566-6.714.051-8.13.452-13.585 3.839-3.164 1.964-10.644 12.243-10.644 14.626 0 .508-.87 3.524-1.931 6.702-1.062 3.178-2.397 9.52-2.967 14.095-1.33 10.67-5.598 34.277-7.342 40.607-2.836 10.288-5.67 21.783-6.958 28.215-.736 3.678-1.616 7.137-1.954 7.684-.339.548-1.403 3.923-2.366 7.5-5.638 20.948-12.797 35.271-16.49 32.99-.447-.277-2.465-3.89-4.484-8.031-3.453-7.082-4.51-9.715-9.763-24.327-1.16-3.23-2.622-6.805-3.249-7.946-.626-1.141-1.561-3.783-2.078-5.87-.518-2.088-1.798-6.218-2.845-9.178-1.048-2.96-2.83-8.464-3.96-12.231a789.248 789.248 0 0 0-4.527-14.441c-1.36-4.176-2.472-8.178-2.472-8.895 0-.716-1.34-3.985-2.979-7.263-2.42-4.843-3.768-6.343-7.187-7.999-7.54-3.65-19.545-2.433-24.128 2.445-1.954 2.08-2.429 3.748-2.72 9.551-.193 3.868.107 9.234.669 11.924 2.052 9.845 4.937 21.636 6.345 25.93.793 2.422 2.386 7.266 3.539 10.763s2.475 7.902 2.94 9.785c.759 3.08 3.845 11.101 7.34 19.08.707 1.615 1.6 4.036 1.986 5.382.384 1.345 2.376 5.968 4.426 10.274 2.05 4.305 4.417 9.369 5.26 11.252.844 1.883 1.943 4.085 2.443 4.892.5.807 2.799 4.77 5.11 8.806 5.508 9.622 7.791 12.591 16.27 21.158 4.246 4.291 8.36 7.526 10.274 8.078 1.755.506 3.246.96 3.313 1.01.066.048 1.895-.538 4.063-1.303z"/>
        <path d="M53.617 261.31c-1.186-.5-3.309-2.653-4.718-4.783-2.476-3.74-2.56-4.349-2.494-17.906.038-7.718.705-18.877 1.481-24.797.777-5.92 1.866-15.457 2.42-21.195.554-5.737 1.641-13.003 2.417-16.145.775-3.142 2.596-10.997 4.046-17.455s3.262-14.163 4.027-17.123c.766-2.96 2.062-8.464 2.88-12.23s2.125-8.831 2.903-11.253c.777-2.421 1.526-8.747 1.664-14.056l.25-9.653 3.827-3.307c2.105-1.82 6.288-4.685 9.296-6.368 3.007-1.683 9.21-6.214 13.785-10.07 15.485-13.052 24.429-18.444 37.415-22.555 7.653-2.423 9.603-2.66 18.59-2.255 16.116.724 24.069 5.328 29.78 17.239 2.246 4.683 2.46 6.08 2.017 13.209-1.175 18.92-11.467 34.45-49.765 75.096-10.591 11.24-12.736 14.068-15.028 19.814-3.581 8.976-4.14 13.61-2.029 16.833 2.15 3.28 12.985 8.254 29.9 13.724 2.422.783 5.945 2.154 7.828 3.046 4.426 2.096 10.735 2.258 11.777.302.43-.807 1.287-4.77 1.903-8.806 3.329-21.79 3.818-23.081 19.588-51.724 9.306-16.903 24.02-26.597 42.868-28.244 6.143-.537 10.178.84 14.726 5.025 4.17 3.837 6.528 9.265 9.02 20.765 1.695 7.826 1.943 12.1 1.733 29.94-.227 19.34-.1 21.135 1.81 25.362 1.966 4.356 9.124 12.574 10.952 12.574 1.507 0 2.22-3.149 2.636-11.623.651-13.28 5.472-28.16 13.41-41.391 2.994-4.99 14.501-18.273 19.523-22.537 11.313-9.603 22.038-14.793 34.007-16.457 9.587-1.333 10.763-2.29 10.763-8.757 0-2.475.625-6.904 1.39-9.842.763-2.938 1.87-9.746 2.458-15.127 1.552-14.204 4.793-31.232 7.497-39.392 1.295-3.906 2.354-7.727 2.354-8.49 0-2.68 4.912-5.445 9.672-5.443 13.132.004 16.663 7.797 13.782 30.411-.92 7.221-2.358 16.652-3.195 20.957-.837 4.305-1.792 10.25-2.123 13.209-.331 2.96-1.465 9.917-2.52 15.461-2.568 13.502-2.473 16.412.692 20.978 3.037 4.382 3.574 11.365 1.09 14.185-.835.949-2.706 4.092-4.156 6.985-2.473 4.935-2.573 5.631-1.605 11.252.567 3.296 1.457 9.789 1.977 14.428 1.229 10.95 5.376 28.158 8.578 35.595 1.39 3.23 4.086 8.068 5.99 10.752 2.45 3.455 3.594 6.256 3.913 9.585.436 4.536.293 4.856-4.043 9.01-8.153 7.812-13.585 6.913-21.942-3.63-6.46-8.15-9.515-14.918-12.99-28.773-2.87-11.441-4.327-14.76-5.285-12.03-.267.763-1.193 3.369-2.057 5.79a401.02 401.02 0 0 0-3.301 9.785c-3.277 10.188-10.422 21.317-19.099 29.745-9.356 9.089-15.653 10.944-28.155 8.296-5.188-1.1-13.502-5.24-13.502-6.726 0-1.538-6.74-4.734-12.38-5.871-11.05-2.227-19.121-6.975-29.477-17.339-7.446-7.452-9.792-7.886-12.525-2.318-5.294 10.787-14.026 20.716-24.213 27.53-7.004 4.686-10.864 5.809-19.983 5.816-6.757.005-7.273-.159-10.95-3.48-2.497-2.256-4.429-5.204-5.475-8.354-.89-2.678-2.567-5.477-3.728-6.22-1.16-.742-7.835-2.52-14.831-3.949-15.552-3.177-31.281-7.093-35.225-8.77-10.247-4.355-20.008-9.634-22.702-12.276-2.3-2.257-3.86-2.99-5.87-2.759-2.64.303-2.761.562-3.352 7.164-.336 3.767-.678 13.234-.76 21.037-.147 14.121-.161 14.204-2.984 17.613l-2.837 3.425-10.591.225c-5.825.124-11.561-.185-12.746-.685zm256.81-33.546c2.401-1.921 9.867-15.011 12.415-21.767 5.626-14.916 8.5-23.177 11.742-33.757.742-2.422 2.268-6.924 3.39-10.005 2.355-6.46 2.608-10.812.72-12.378-1.464-1.215-10.663 1.476-15.26 4.465-3.594 2.337-14.73 13.157-14.73 14.311 0 .537-1.014 2.338-2.254 4.003-6.124 8.224-9.006 21.553-8.278 38.278.486 11.154 1.937 15.993 5.396 17.991 1.79 1.035 4.759.541 6.86-1.14zm-109.84-8.02c5.419-5.818 12.771-17.89 15.753-25.861 7.501-20.057 10.87-37.74 7.831-41.098-1.074-1.187-2.473-1.629-4.146-1.31-3.37.645-10.904 10.967-15.076 20.656-1.763 4.095-3.97 9.208-4.905 11.36-4.387 10.108-6.931 20.613-7.11 29.354-.259 12.747 1.081 13.956 7.653 6.898zm-105.31-71.721c.512-.942 6.504-7.217 13.317-13.943 13.386-13.217 24.503-26.384 32.088-38.002 5.75-8.808 6.662-11.003 5.464-13.144-1.152-2.06-5.1-1.445-12.591 1.957-23.01 10.451-35.167 27.274-42.443 58.73l-1.415 6.115h2.325c1.279 0 2.744-.77 3.255-1.713zM420.85 257.3c-3.26-.948-7.765-4.98-10.318-9.234-.969-1.614-2.533-7.003-3.475-11.975-1.569-8.273-1.618-11.674-.582-40.117.623-17.093 1.406-40.63 1.74-52.305.334-11.675.87-21.589 1.189-22.03.319-.443 2.045-2.009 3.835-3.48 2.885-2.371 4.065-2.675 10.372-2.675 6.265 0 7.574.332 10.933 2.772 7.99 5.805 8.926 9.178 6.766 24.411-.894 6.307-2.22 13.888-2.946 16.848-2.04 8.32-3.744 36.237-3.014 49.413.358 6.458 1.334 15.704 2.169 20.548 2.577 14.952.362 24.9-5.97 26.812-5.344 1.615-7.821 1.85-10.699 1.013zM428.25 90.017c-7.531-2.653-10.707-4.756-15.204-10.068-3.686-4.355-4.02-5.232-4.374-11.504-.344-6.074-.124-7.131 2.084-10.026 7.657-10.039 27.803-5.679 37.338 8.08 2.331 3.363 2.672 4.667 2.283 8.717-.308 3.207-1.355 5.939-3.204 8.363-5.729 7.511-10.893 9.268-18.924 6.439zM480.63 253.37c-3.66-1.044-7.843-2.631-9.296-3.527-5.441-3.358-12.176-10.716-14.449-15.787-3.36-7.496-6.516-27.861-5.36-34.581.494-2.873 1.408-10.727 2.03-17.454 2.413-26.062 7.664-44.544 14.724-51.818 7.673-7.907 12.328-9.405 18.517-5.959 9.363 5.213 11.057 5.686 20.565 5.737 21.76.116 37.835 7.989 45.323 22.197l3.094 5.87-.073 19.08c-.068 17.933-.238 19.64-2.818 28.377-3.316 11.227-5.987 16.738-12.852 26.515-5.432 7.737-10.859 12.817-17.525 16.407-2.152 1.159-4.574 2.499-5.381 2.977-2.918 1.73-16.296 4.025-22.994 3.945-3.768-.045-9.844-.936-13.504-1.98zm26.497-32.117c11.15-5.662 19.233-18.919 21.785-35.729.565-3.724 1.234-7.104 1.485-7.511.251-.407-.458-3.084-1.576-5.949-2.663-6.821-6.84-10.195-15.165-12.25-5.654-1.395-7.582-1.457-13.544-.434-5.879 1.008-7.522 1.748-10.64 4.793-5.762 5.626-7.362 9.982-8.649 23.535-.87 9.175-.871 13.692-.003 18.949 1.459 8.832 2.652 11.006 7.984 14.543 5.78 3.835 10.849 3.85 18.324.053zM62.965 507.12c-1.358-1.48-3.752-4.892-5.32-7.583l-2.851-4.893.111-43.542c.062-23.948.593-48.826 1.182-55.284.588-6.457 1.744-20.768 2.568-31.8.824-11.032 2.18-24.755 3.014-30.496s1.894-17.629 2.357-26.419c.686-13.002 1.233-16.844 2.935-20.607 4.137-9.143 11.542-11.775 20.608-7.32 7.44 3.655 7.552 4.365 4.967 31.515-.615 6.458-1.813 17.025-2.662 23.483-.85 6.458-1.92 18.126-2.377 25.93-.457 7.803-1.265 17.589-1.795 21.745-1.735 13.609-3.289 48.798-2.775 62.839.465 12.695.79 14.58 4.22 24.516 4.866 14.094 4.886 18.612.119 27.138-4.794 8.57-11.078 13.469-17.282 13.469-3.712 0-5.004-.496-7.018-2.691zM132.34 502.22c-5.011-3.107-5.928-6.851-6.29-25.68-.181-9.418-.792-23.067-1.359-30.333-.566-7.265-.95-24.658-.855-38.65.097-13.992-.145-26.209-.536-27.149-.593-1.421-1.56-1.617-5.746-1.166-6.13.661-9.508-1.144-13.84-7.398-2.5-3.609-2.935-5.148-2.935-10.382 0-5.663.26-6.414 3.328-9.578 1.83-1.889 4.552-3.703 6.048-4.031 1.495-.329 3.198-1.175 3.784-1.88.586-.706 2.967-1.816 5.293-2.467 7.826-2.191 9.242-4.173 10.513-14.716.665-5.514.89-15.102.555-23.568-.556-14.028-.524-14.333 1.863-17.847 4.592-6.759 12.923-8.676 20.625-4.747 5.479 2.795 11.816 9.999 12.635 14.363.85 4.531-.105 12.955-1.684 14.858-1.576 1.898-3.67 15.393-2.667 17.185.657 1.173 4.783 1.323 25.71.933 26.672-.496 32.458.13 36.55 3.955 3.195 2.985 3.195 11.812 0 13.815-1.946 1.22-11.51 3.196-26.663 5.51-13.036 1.992-38.845 9.134-40.586 11.232-.636.767-1.263 3.728-1.393 6.58-.13 2.852-.825 12.671-1.546 21.82-1.715 21.782-.137 67.845 2.867 83.66 2.394 12.607 2.661 16.55 1.293 19.09-3.67 6.817-18.347 10.691-24.963 6.59z"/>
        <path d="M318.94 507.01c-3.426-2.09-5.46-4.918-7.39-10.278-1.486-4.13-4.592-5.973-8.71-5.17-3.119.608-17.47-.986-18.946-2.104-.614-.465-2.657-1.448-4.54-2.185-5.796-2.266-15.845-9.637-22.213-16.293-6.828-7.135-8.378-7.434-11.738-2.258-6.775 10.44-13.732 19.831-16.833 22.727-10.188 9.515-19.872 13.717-31.409 13.631l-7.338-.054-5.046-5.493c-4.753-5.175-5.137-5.988-6.607-13.997-1.947-10.611-1.969-20.532-.083-38.405 2.17-20.565 3.722-25.682 13.78-45.45 8.759-17.217 10.582-20.141 16.791-26.932 9.98-10.913 20.855-16.286 34.985-17.283 7.18-.507 8.547-.317 12.728 1.77 5.415 2.701 8.41 6.746 12.035 16.251 2.46 6.453 2.544 7.432 3.07 35.988l.539 29.354 2.603 4.893c2.927 5.5 7.427 10.125 12.673 13.027 1.945 1.075 4.366 2.421 5.382 2.991 3.154 1.77 10.981 5.019 12.091 5.019 1.957 0 2.965-4.964 2.965-14.6 0-5.268.44-15.036.979-21.706.538-6.67 1.853-24.237 2.922-39.036 1.069-14.8 2.375-31.091 2.902-36.204.528-5.113 1.65-18.322 2.494-29.354 3.142-41.063 3.534-43.186 8.843-47.848 6.804-5.974 18.707-4.76 22.507 2.297 1.594 2.96 1.638 4.129.517 13.873-.673 5.853-1.647 12.603-2.164 15.002-.516 2.4-1.578 11.205-2.358 19.57-.78 8.364-1.836 17.189-2.345 19.61-.51 2.422-1.187 7.926-1.507 12.231-.32 4.306-1.496 17.295-2.614 28.865-2.185 22.612-2.03 36.202.576 50.514.771 4.238 1.697 10.127 2.057 13.087.36 2.96 1.264 8.024 2.01 11.252.745 3.23 1.362 10.666 1.37 16.527.017 12.29-1.486 16.557-8.38 23.801-3.646 3.832-4.405 4.193-8.806 4.19-2.963-.002-5.96-.702-7.792-1.82zm-105.11-43.921c5.885-6.642 15.609-22.754 15.624-25.888.003-.696.633-2.467 1.4-3.936 2.337-4.48 7.239-21.438 7.995-27.662 1.437-11.816.463-15.166-4.41-15.166-2.807 0-6.91 3.953-9.578 9.227-.836 1.652-2.045 3.665-2.687 4.472-.642.807-2.61 4.77-4.372 8.806-1.763 4.037-3.786 8.66-4.495 10.274-7.265 16.53-10.805 38.961-6.783 42.983 2.238 2.239 2.767 2.014 7.306-3.11zM381.32 323.28c-7.347-3.554-14.527-11.152-16.355-17.308-2.697-9.083-1.232-14.183 5.396-18.776 3.653-2.531 5.094-2.925 10.667-2.914 8.17.017 15.445 3.517 22.815 10.979l5.156 5.22v6.597c0 6.247-.207 6.85-3.91 11.37-6.481 7.908-14.176 9.472-23.769 4.831zM374.66 502.18c-2.203-1.605-4.924-4.087-6.048-5.516-2.564-3.26-5.826-13.877-6.632-21.585-.545-5.205.413-45.364 2.34-98.172l.656-17.937 3.65-3.346c2.842-2.604 4.574-3.383 7.823-3.516 13.283-.545 18.979 2.115 22.817 10.658 2.28 5.075 1.726 12.794-2.51 35.012-4.178 21.907-5.07 48.184-2.326 68.534 1.966 14.58 2.217 27.595.588 30.497-2.022 3.604-7.476 7.095-12.039 7.708-3.74.503-4.846.192-8.319-2.338zM426.35 503.62c-3.928-2.181-8.013-8.155-10.263-15.011-1.913-5.829-2.181-8.617-2.1-21.847.1-16.162 3.319-40.539 5.907-44.731.736-1.192 1.338-2.706 1.338-3.364s2.752-6.642 6.116-13.297c3.363-6.655 6.688-13.287 7.39-14.738 1.42-2.942 1.526-3.116 5.396-8.935 7.303-10.982 22.704-21.226 35.298-23.478 7.473-1.337 15.896-.389 19.96 2.247 4.232 2.744 8.342 10.026 11.12 19.7 2.085 7.262 2.25 9.7 2.286 33.757.038 25.493.079 26.008 2.42 30.62 4.136 8.149 9.306 12.683 20.582 18.051 5.65 2.69 11.375 5.216 12.72 5.614 1.345.397 4.097 2.305 6.115 4.24 4.943 4.737 5.101 9.416.49 14.44-2.686 2.925-4.093 3.589-9.052 4.269-10.404 1.426-24.535-2.001-33.268-8.07-6.921-4.809-15.9-12.714-17.482-15.39-2.354-3.986-7.039-4.094-8.74-.203-3.232 7.399-20.314 28.62-23.037 28.62-.478 0-2.122.986-3.654 2.19-5.183 4.078-13.065 6.61-20.473 6.577-3.767-.017-7.848-.585-9.07-1.263zm25.105-40.757c8.837-10.189 16.204-24.868 20.682-41.209a700.698 700.698 0 0 1 3.319-11.675c1.596-5.374 2.072-16.227.8-18.215-.65-1.014-3.908-1.713-6.677-1.432-3.619.368-14.49 19.985-21.75 39.247-5.112 13.562-8.027 36.221-4.827 37.512 2.884 1.164 4.46.375 8.453-4.229zM834.77 492.13l-2.578-2.028v-144.53l2.578-2.028c2.108-1.658 3.938-2.021 10.029-1.992 9.082.044 19.593 1.975 23.039 4.233 10.909 7.147 16.199 30.205 16.194 70.585-.003 30.148-2.845 51.478-8.374 62.852-5.628 11.577-12.107 14.936-28.813 14.936-8.127 0-9.87-.293-12.075-2.028z"/>
    </g>
</svg>
