<svg version="1.1" viewBox="0 0 800 295.22" xml:space="preserve" xmlns="http://www.w3.org/2000/svg"><g transform="matrix(1.3333 0 0 -1.3333 0 149.94)"><g transform="matrix(.19689 0 0 .19689 0 -108.96)" stroke-width=".50789"><path d="m0 271.94c0 83.551 203.7 158.27 523.95 208.15-111.94-38.867-176-83.633-176-131.33 0-148.89 621.83-269.59 1388.9-269.59 472.67 0 889.94 45.871 1140.8 115.89-179.21-112.74-741.96-195.06-1408.9-195.06-811.19 0-1468.8 121.75-1468.8 271.94" fill="#ed098b"/><path d="m3047.3 335.32c0 28.946-23.86 52.813-53.32 52.813-28.94 0-52.81-23.867-52.81-52.813 0-29.453 23.87-53.32 52.81-53.32 29.46 0 53.32 23.867 53.32 53.32" fill="#ed098b"/><path d="m722.26 461.29c21.402 75.699 44.344 150.63 65.75 216.4h3.066c21.406-65.766 44.336-140.7 64.992-216.4zm131.52 304.34h-126.94c-53.523-146.82-107.82-327.3-150.64-492.47h97.122l26.757 105.53h178.93l26.777-105.53h98.639c-42.818 165.17-97.123 345.65-150.64 492.47" fill="#1e458e"/><path d="m1464.5 358.8c-13.74-9.93-37.45-20.633-61.93-20.633-29.05 0-48.16 15.281-48.16 42.816 0 29.821 22.16 44.36 60.4 44.36 12.24 0 33.65-1.543 49.69-3.059zm-55.81 275.3c-43.58 0-86.41-8.414-119.29-15.286l14.48-76.921c27.51 6.121 68.87 12.675 97.17 12.675 47.41 0 63.45-16.832 63.45-56.59v-12.218c-18.34 2.289-33.64 3.808-52.75 3.808-96.36 0-149.11-40.527-149.11-112.39 0-72.664 55.05-111.65 120.82-111.65 44.35 0 78 18.348 97.88 34.403l9.17-26.762h64.24v235.52c0 84.887-52.01 125.41-146.06 125.41" fill="#1e458e"/><path d="m1116.4 580.85-9.95 44.089h-64.24v-351.77h90.23v242.68c19.88 19.121 43.6 29.078 81.84 29.078 10.69 0 22.94-0.77 38.22-3.063l6.12 82.586c-12.23 2.289-29.06 3.82-41.3 3.82-38.99 0-71.88-15.285-100.92-47.421" fill="#1e458e"/><path d="m2293.5 273.17h90.23v492.47h-90.23v-492.47" fill="#1e458e"/><path d="m2784.5 358.8c-13.77-9.93-37.48-20.633-61.94-20.633-29.07 0-48.19 15.281-48.19 42.816 0 29.821 22.18 44.36 60.41 44.36 12.24 0 33.65-1.543 49.72-3.059zm-55.82 275.3c-43.59 0-86.42-8.414-119.31-15.286l14.54-76.472c27.52 6.125 68.81 12.226 97.12 12.226 47.4 0 63.47-16.832 63.47-56.59v-12.218c-18.36 2.289-33.66 3.808-52.77 3.808-96.36 0-149.12-40.527-149.12-112.39 0-72.664 55.07-111.65 120.83-111.65 44.34 0 78 18.348 97.88 34.403l9.17-26.762h64.24v235.52c0 84.887-52.01 125.41-146.05 125.41" fill="#1e458e"/><path d="m2448 273.17h90.23v492.47h-90.23v-492.47" fill="#1e458e"/><path d="m1759.2 342.75c-17.58 0-37.47 3.063-52.75 6.125v195.76c16.8 6.121 35.17 9.93 54.28 9.93 51.23 0 67.3-29.047 67.3-104.75 0-79.536-17.59-107.07-68.83-107.07zm19.36 291.36c-29.06 0-55.82-6.125-77.22-16.055v113.8c-12.53-3.68-25.78-5.578-40.16-5.578-18.42 0-35.1 3.132-50.09 8.851v-443.6c38.24-12.996 87.94-25.989 141.47-25.989 110.12 0 162.12 52.746 162.12 182.74 0 119.29-44.36 185.83-136.12 185.83" fill="#1e458e"/><path d="m2100.5 554.57c36.7 0 53.53-22.929 55.06-67.293h-113.95c3.83 41.301 19.88 67.293 58.89 67.293zm17.58-209.53c-46.63 0-71.11 22.176-76.47 71.895h198.06c3.83 17.57 5.35 42.812 5.35 60.414 0 100.94-51.22 156.75-142.23 156.75-99.4 0-153.7-66.539-153.7-185.83 0-123.09 58.12-182.74 165.93-182.74 45.89 0 88.7 10.703 125.41 25.989l-25.22 73.41c-26.78-9.184-64.25-19.887-97.13-19.887" fill="#1e458e"/><path d="m1153.6 955.74c43.84 0 68.51 11.496 68.51 54.798 0 42.75-24.67 54.26-67.41 54.26-13.16 0-30.15-1.1-42.21-2.19v-104.68c13.16-1.641 31.8-2.188 41.11-2.188zm-110.16 158.93c27.41 4.38 76.19 9.86 112.35 9.86 78.92 0 136.48-26.3 136.48-109.6 0-57-26.87-87.696-65.23-101.95 20.82-43.285 51.52-96.996 80.01-145.22l-0.55-1.098h-81.1c-24.67 44.399-49.87 93.711-69.61 135.37-16.43 0-31.24 1.098-43.3 2.739v-138.11h-69.05v348.01" fill="#1e458e"/><path d="m1418.8 813.25c17.54 0 34.53 7.668 44.38 14.797v45.48c-11.5 1.094-26.84 2.188-35.62 2.188-27.39 0-43.29-10.402-43.29-31.785 0-19.727 13.71-30.68 34.53-30.68zm6.57 108.51c13.7 0 24.67-1.098 37.81-2.739v8.758c0 28.508-11.5 40.551-45.47 40.551-20.3 0-49.88-4.379-69.6-8.758l-10.42 54.806c23.55 4.92 54.25 10.96 85.49 10.96 67.42 0 104.68-29.047 104.68-89.879v-168.8h-46.04l-6.58 19.18c-14.24-11.516-38.35-24.656-70.14-24.656-47.14 0-86.59 27.941-86.59 80.007 0 51.516 37.81 80.571 106.86 80.571" fill="#1e458e"/><path d="m1714.3 828.6v137.55c-10.97 2.187-24.13 3.835-35.07 3.835-38.92 0-51.53-21.921-51.53-77.82 0-54.258 11.51-75.078 44.39-75.078 15.9 0 31.24 4.93 42.21 11.516zm-152.37 62.468c0 89.329 38.92 134.27 109.07 134.27 15.35 0 30.69-2.2 43.3-4.39v98.65h64.66v-352.94h-46.58l-6.58 16.992c-16.45-13.16-35.63-22.468-64.66-22.468-61.38 0-99.21 41.648-99.21 129.88" fill="#1e458e"/><path d="m1827.4 1019.8h64.68v-253.19h-64.68zm0 99.75h64.68v-61.39h-64.68v61.39" fill="#1e458e"/><path d="m2043.3 818.18c44.39 0 49.86 33.433 49.86 75.078 0 41.66-5.47 75.078-49.86 75.078-44.4 0-49.88-33.418-49.88-75.078 0-41.645 5.48-75.078 49.88-75.078zm0 207.16c84.93 0 115.63-50.965 115.63-132.09 0-81.102-30.7-132.07-115.63-132.07-84.95 0-115.64 50.968-115.64 132.07 0 81.121 30.69 132.09 115.64 132.09" fill="#1e458e"/></g></g></svg>
