<svg version="1.1" viewBox="0 0 1067.2 451.91" xmlns="http://www.w3.org/2000/svg">
 <path d="m1017.7 296.11h49.02c0.1884 0 0.34 0.15164 0.34 0.34v49.06c0 0.18836-0.1516 0.34-0.34 0.34h-49.02c-0.1883 0-0.34-0.15164-0.34-0.34v-49.06c0-0.18836 0.1517-0.34 0.34-0.34zm-458.49-221.54v270.92a0.37 0.37 0 0 1-0.37 0.37h-48.99a0.37 0.37 0 0 1-0.37-0.37v-270.92a0.37 0.37 0 0 1 0.37-0.37h48.99a0.37 0.37 0 0 1 0.37 0.37zm84.5 270.25c-36.82-5.41-60.09-37.91-60.11-73.75q-0.05-98.43-0.01-196.85c0.01-36.55 23.45-68.12 60.61-73.25 25.7-3.55 51.52 2.34 68.89 22.7q18.57 21.77 18.59 50.65 0.07 98.38-0.04 196.75-0.04 37.39-27.78 60.17c-16.13 13.26-39.58 16.59-60.15 13.58zm6.73-294.83c-11.35 2.08-17.61 11.96-17.61 22.83q-0.03 99 0 198c0 12.78 4.73 22.77 18.48 24.81 16.71 2.49 30.76-4.43 30.75-22.81q-0.05-99.88 0.06-199.75c0.03-18.69-15.03-26.12-31.68-23.08zm-165 221.58c-0.02 35.72-23 66.86-59.05 73.14q-6.04 1.06-19.94 1.1-34.27 0.1-68.77 0.02a0.41 0.41 0 0 1-0.4-0.41q-0.07-135.72-0.03-271.6c0.01-36.05 23.57-67.51 60.2-72.78q18.04-2.6 35.73 1.63c27.6 6.6 47.34 32.29 51.41 59.68q0.87 5.86 0.88 19.97 0.01 94.62-0.03 189.25zm-70.64 24.4c8.3-0.56 16.02-4.83 19.02-12.96q1.91-5.19 1.91-8.44 0.03-97.81 0.01-195.62 0-10.62-1.52-15.1-4.45-13.14-20.51-14.49c-13.72-1.15-24.33 4.99-26.78 19.17q-0.41 2.42-0.42 13.09-0.02 106.91 0 213.83 0 0.49 0.49 0.5 21.87 0.42 27.8 0.02zm-151.27-222.47q-0.11-17.74-14.43-22.55-4.68-1.57-16.03-1.61-21.48-0.09-43.11-0.04-0.5 0-0.5-0.5v-48.21q0-0.49 0.49-0.49 24.05-0.1 48.01 0 24.6 0.1 43.58 12.42c16.51 10.72 27.38 27.13 30.62 46.62q1.01 6.06 1.03 19.94 0.1 91.36 0.06 182.74-0.01 14.63-0.65 19.98c-3.48 28.85-23.26 53.98-51.89 61.51q-16.48 4.34-35.25 1.65c-33.48-4.81-56.65-32.73-59.97-65.4q-0.41-4.06-0.43-19.99-0.06-55.12-0.06-110.25c0-34.45 20.43-66.18 55.21-73.23 13.97-2.83 28.56-1.93 42.74-2q0.59 0 0.58-0.59zm-49.4 197.57c-0.04 18.12 11.2 26.87 28.84 24.95 14.49-1.57 20.55-10.89 20.55-24.95q0.02-73.62 0.02-147.25a0.42 0.43 0 0 0-0.42-0.43q-11.16-0.03-22.41-0.06c-8.45-0.03-16.91 1.5-21.95 9.03-4.5 6.71-4.44 13.05-4.44 22.47q-0.04 58.12-0.19 116.24zm-153.65-269.99c25.42-3.41 51.21 1.86 68.56 21.93q19.09 22.08 19.14 51.56 0.04 24.28 0.02 48.57a0.25 0.24 0 0 1-0.25 0.24h-48.98q-0.5 0-0.5-0.5-0.02-20.64-0.01-41.2 0-13.44-1.58-18.02c-4.38-12.71-17.73-15.98-30.43-13.69q-7.56 1.37-12.19 7.41c-5.11 6.67-5.04 13.99-5.04 23.82q0.02 132.06 0 264.12 0 0.53-0.53 0.53h-48.21q-0.52 0-0.52-0.53-0.01-136.01 0.23-272c0.06-36.22 23.67-67.31 60.29-72.24zm449.35-1.01h49.02c0.19944 0 0.36 0.16056 0.36 0.36v48.54c0 0.19944-0.16056 0.36-0.36 0.36h-49.02c-0.19944 0-0.36-0.16056-0.36-0.36v-48.54c0-0.19944 0.16056-0.36 0.36-0.36z"/>
 <path d="m664.32 393.31h5.88c0.17728 0 0.32 0.14272 0.32 0.32v57.86c0 0.17728-0.14272 0.32-0.32 0.32h-5.88c-0.17728 0-0.32-0.14272-0.32-0.32v-57.86c0-0.17728 0.14272-0.32 0.32-0.32zm306.67-316.46c26.22-6.14 56.23-2.07 75.34 18.64q15.75 17.1 19.59 39.38 1.1 6.41 1.13 19.95 0.05 21.14-0.01 42.27-0.01 0.53-0.54 0.53h-48.64q-0.42 0-0.42-0.42 0.01-24.4 0-48.88c-0.01-13.4-6.76-23.04-20.69-24.63-16.73-1.91-28.58 6.85-28.59 24.13q-0.04 98.85-0.04 197.66a0.35 0.36 0 0 1-0.35 0.36h-48.26q-0.55 0-0.55-0.55-0.05-98.87-0.01-197.71c0.01-31.93 20.33-63.31 52.04-70.73zm-165.43 145.57h73.19a0.41 0.4 0 0 1 0.41 0.4v48.5a0.41 0.41 0 0 1-0.41 0.41l-73.11-0.01q-0.6 0-0.6 0.61v72.98q0 0.53-0.53 0.53h-48.07q-0.58 0-0.58-0.58-0.03-135.25-0.07-270.43c-0.01-33.2 19.51-64.39 52.73-72.22q17.2-4.05 34.73-1.68c36.51 4.94 60.42 37.17 60.75 72.89q0.09 10.13-0.02 49.04 0 0.49-0.5 0.49h-48.69q-0.46 0-0.46-0.45-0.01-24.11 0.05-48.06c0.03-12.4-4.98-22.23-17.91-24.81-17.7-3.51-31.48 5.09-31.48 24.04q0.01 73.93 0.07 147.86 0.01 0.49 0.5 0.49z" fill="#0090d4"/>
 <path d="m515.55 437.83c-6.07 4.68-16.47 5.23-20.17-2.2q-1.4-2.8-1.39-8.79 0.01-9.06-0.01-17.8 0-0.45 0.46-0.45h5.77a0.34 0.35 0 0 1 0.34 0.35q-0.02 10.35 0.02 21.13 0.03 5.58 5.43 5.65 9.71 0.1 10-9.66 0.11-3.92 0.02-16.97 0-0.5 0.49-0.5h5.7q0.45 0 0.45 0.44v30.75q0 0.87-0.87 0.87h-4.99q-0.78 0-0.77-0.78l0.02-1.79q0.01-0.64-0.5-0.25zm-150.58-23.18-9.45 0.01a0.44 0.44 0 0 1-0.44-0.44l-0.01-5.14a0.44 0.44 0 0 1 0.44-0.44l16.05-0.01a0.44 0.44 0 0 1 0.44 0.44v31.24a0.44 0.44 0 0 1-0.44 0.44h-5.71a0.44 0.44 0 0 1-0.44-0.44v-25.22a0.44 0.44 0 0 0-0.44-0.44zm-215 0-9.45 0.01a0.44 0.44 0 0 1-0.44-0.44l-0.01-5.14a0.44 0.44 0 0 1 0.44-0.44l16.05-0.01a0.44 0.44 0 0 1 0.44 0.44v31.24a0.44 0.44 0 0 1-0.44 0.44h-5.71a0.44 0.44 0 0 1-0.44-0.44v-25.22a0.44 0.44 0 0 0-0.44-0.44zm458.43 21.23c-8.63 6.69-19.19 1.72-20.97-8.56-1.97-11.36 3.77-21.73 17.1-18.52q2.45 0.59 3.64 1.88 0.91 0.98 0.88-0.35l-0.02-1.14q-0.01-0.6 0.6-0.6h5.57q0.46 0 0.46 0.46 0.08 15.4-0.02 30.76c-0.05 7.17-3.5 10.48-10.46 11.69-5.45 0.95-16.68 0.86-16.79-6.99q-0.02-0.85 0.83-0.85l5.02-0.01q0.82 0 0.86 0.81 0.08 1.46 1.45 1.82c3.49 0.93 10.46 1.3 12.13-2.57q0.9-2.09 0.21-7.63-0.07-0.53-0.49-0.2zm-6.65-2.04c10.84-0.5 9.62-23.87-2.32-20.63-8.53 2.31-8.05 21.1 2.32 20.63zm-50-22.11c6.88-6.91 18.46-3.45 17.73 7.1q-0.02 0.24-0.26 0.24l-6.14-0.02q-0.28 0-0.25-0.27c0.76-6.91-6.82-7.34-9.65-2.73q-1.81 2.94-1.83 7.26-0.04 8.66 0 16.77a0.55 0.56 89 0 1-0.55 0.56l-5.49 0.04q-0.55 0.01-0.55-0.55v-30.8q0-0.74 0.73-0.74h5.08q0.81 0 0.79 0.8l-0.06 2.14q-0.01 0.66 0.45 0.2zm-76.69 15.36a13.98 13.98 0 0 1-13.98 13.98h-2.62a13.98 13.98 0 0 1-13.98-13.98v-4.84a13.98 13.98 0 0 1 13.98-13.98h2.62a13.98 13.98 0 0 1 13.98 13.98zm-17.33 9.04c13.74 2.88 14.89-21.72 3.02-22.99-12.58-1.34-13.13 20.88-3.02 22.99zm-140.73-24.51c6.84-6.94 17.86-3.29 17.59 7.16a0.31 0.3 1 0 1-0.31 0.29l-6-0.01a0.27 0.26 88.9 0 1-0.26-0.26q-0.19-6.83-5.76-5.56c-4.03 0.93-5.47 4.91-5.58 8.59q-0.29 9.4-0.22 18.32 0 0.48-0.48 0.49l-5.65 0.04q-0.53 0-0.53-0.53l0.01-30.85q0-0.71 0.71-0.71h5.23q0.74-0.01 0.72 0.73l-0.08 2.04q-0.03 0.9 0.61 0.26zm-105.78 15.44a13.97 13.97 0 0 1-13.946 13.994l-2.66 5e-3a13.97 13.97 0 0 1-13.994-13.946l-8e-3 -4.84a13.97 13.97 0 0 1 13.946-13.994l2.66-5e-3a13.97 13.97 0 0 1 13.994 13.946zm-9.6442-11.933c-3.56-3.4-10.69-2.63-13 2.05-3.1 6.28-2.6 18.78 7.16 19.09 10.51 0.33 11.48-15.75 5.84-21.14zm-138.59 22.963q-2.59 1.76-3.54 2.12c-7.56 2.86-17.83-0.46-16.72-10.12 1.04-9.11 12.16-10.1 18.85-9.48q2.13 0.2 1.86-1.92l-0.29-2.36q-0.31-2.5-2.81-2.92c-3.33-0.56-8.95-0.68-9.59 2.47q-0.17 0.8-0.98 0.79l-5-0.02q-0.84-0.01-0.67-0.83c1.68-8.19 10.83-8.11 17.65-7.31 6.48 0.75 8.28 6.11 8.28 11.81q0 10.08 0 19.61 0.01 0.73-0.72 0.73l-5.3-0.01q-0.56 0-0.55-0.57l0.03-1.72q0.01-0.62-0.5-0.27zm-4.69-2.44q5.67-2.74 5-9.61-0.04-0.45-0.5-0.47-4.05-0.15-8.09 0.22c-9.65 0.88-5.34 14.17 3.59 9.86zm-51.069-23.9c6.68-7.15 17.92-3.48 17.65 7.01q-0.01 0.32-0.32 0.32l-6.06-0.03q-0.34 0-0.3-0.33c0.78-7.18-7.18-7.12-9.86-2.31q-1.2 2.16-1.32 5.42-0.33 9.32-0.27 18.34 0 0.5-0.5 0.5l-5.71-0.02a0.41 0.4 0.7 0 1-0.4-0.4v-30.87q0-0.79 0.8-0.79l5.07-0.01q0.74 0 0.74 0.75l-0.01 2.23q0 0.71 0.49 0.19zm396.48-0.01c4.09-3.93 10.77-4.79 15.6-2.19 11.69 6.31 10.09 30.56-5.56 31.65q-5.66 0.39-9.94-3.13-0.55-0.45-0.54 0.26l0.01 1.51q0.01 0.81-0.8 0.81l-4.95 0.01q-0.8 0-0.8-0.81v-45.52a0.26 0.26 0 0 1 0.26-0.26l6.03 0.01q0.26 0 0.26 0.26l-0.01 17.21q0 0.62 0.44 0.19zm8.0117 24.21a8.63 11.27 0.5 0 0 8.728-11.194 8.63 11.27 0.5 0 0-8.5314-11.345 8.63 11.27 0.5 0 0-8.728 11.194 8.63 11.27 0.5 0 0 8.5314 11.345zm-48.452-41.85h8.36c0.19944 0 0.36 0.16056 0.36 0.36v7.46c0 0.19944-0.16056 0.36-0.36 0.36h-8.36c-0.19944 0-0.36-0.16056-0.36-0.36v-7.46c0-0.19944 0.16056-0.36 0.36-0.36zm-84.28 20.5v25.52a0.54 0.54 0 0 1-0.54 0.54l-5.64-0.01q-0.41 0-0.41-0.41l0.01-25.57a0.56 0.56 0 0 0-0.56-0.56l-8.08 0.01q-0.52 0-0.52-0.53v-4.51q0-0.49 0.49-0.49h8.02q0.57-0.01 0.61-0.57 0.12-2.12 0.31-4.14c0.83-8.81 7.78-10.04 15.07-9.8a0.27 0.26 1.1 0 1 0.26 0.26l-0.01 4.95a0.24 0.24 0 0 1-0.22 0.24l-5.32 0.36q-2.77 0.19-3.11 2.95l-0.43 3.57q-0.27 2.18 1.93 2.18h6.91q0.23 0 0.24 0.24v5.01a0.27 0.28 0 0 1-0.27 0.28l-8.26-0.01q-0.48 0-0.48 0.49zm-130.72-20.5h8.36c0.20498 0 0.37 0.16502 0.37 0.37v7.44c0 0.20498-0.16502 0.37-0.37 0.37h-8.36c-0.20498 0-0.37-0.16502-0.37-0.37v-7.44c0-0.20498 0.16502-0.37 0.37-0.37zm-35.14 17-0.01-16.68q0-0.35 0.34-0.35h6.03a0.24 0.24 0 0 1 0.24 0.24v45.44q0 0.91-0.91 0.91l-4.97-0.01q-0.73 0-0.73-0.73v-1.84q0-0.7-0.54-0.25-3.34 2.77-6.07 3.19c-20.38 3.12-22.36-29.37-5.83-32.63q6.44-1.28 11.95 2.96 0.5 0.39 0.5-0.25zm-8.381 24.78a11.27 8.55 89.7 0 0 8.4909-11.315 11.27 8.55 89.7 0 0-8.6089-11.225 11.27 8.55 89.7 0 0-8.4909 11.315 11.27 8.55 89.7 0 0 8.6089 11.225z"/>
 <path d="m967.06 437.78c-5.63 4.6-16.2 5.28-20.01-1.73q-1.5-2.75-1.53-9.87-0.05-8.71 0-17.16 0-0.43 0.44-0.43h5.76a0.37 0.37 0 0 1 0.37 0.37q-0.02 10.21 0.02 20.86 0.02 6.13 5.89 6.02c8.45-0.15 9.46-5.68 9.54-13.08q0.07-6.99 0-13.67-0.01-0.51 0.5-0.5h5.7q0.46 0.01 0.46 0.47v30.7q0 0.89-0.89 0.89h-5q-0.77 0-0.77-0.77l0.03-1.85q0.01-0.67-0.51-0.25zm-102.14-23.13-9.44 0.01a0.44 0.44 0 0 1-0.44-0.44l-0.02-5.14a0.44 0.44 0 0 1 0.44-0.44l16.07-0.01a0.44 0.44 0 0 1 0.44 0.44v31.24a0.44 0.44 0 0 1-0.44 0.44h-5.73a0.44 0.44 0 0 1-0.44-0.44v-25.22a0.44 0.44 0 0 0-0.44-0.44zm193.98 21.85c-5.96 5.05-16.16 1.89-18.95-5.67-3.35-9.05-0.85-22.23 10.75-22.68q5.61-0.21 9.37 2.68 0.55 0.42 0.52-0.28l-0.06-1.23a0.7 0.69 88.8 0 1 0.69-0.73l5.24-0.01q0.71 0 0.71 0.71 0.05 14.76-0.05 30.02c-0.05 8.04-3.71 11.37-11.53 12.34-5.57 0.69-15.71 0.5-15.66-7.45q0.01-0.54 0.55-0.54l5.28-0.01q0.52 0 0.68 0.5c1.32 4.04 8.78 2.81 11.57 1.81a3.71 3.71 0 0 0 2.45-3.39l0.13-5.26q0.06-2.28-1.69-0.81zm-7.44-2.76c11.26 1.9 12.55-19.37 2.26-20.61-11.18-1.35-11.39 19.06-2.26 20.61zm-47.96-22.15c0.6-0.46 1.14-1.21 1.73-1.59 7.24-4.71 16.39-0.32 15.73 8.83q-0.01 0.24-0.26 0.24l-6.12-0.02q-0.25 0-0.23-0.25c0.33-3.16-1.08-5.89-4.6-5.76-5.06 0.2-6.89 5.88-6.89 10.28q0 8.71 0 16.94 0 0.39-0.39 0.39h-5.82q-0.4 0-0.4-0.41v-30.67q0-0.98 0.98-0.98l4.78-0.01q0.84 0 0.84 0.85v1.84q0 0.82 0.65 0.32zm-190.34 15.03q0.15 8.11 8.6 9.14 3.57 0.44 5.79-1.83 0.38-0.39 0.93-0.38l5.02 0.01q0.55 0 0.47 0.54c-1.2 7.91-12.74 8.13-18.23 6.18-10.62-3.79-11.95-20.75-4.91-28.11 4.8-5.03 14.74-5.61 19.96-0.94 3.79 3.39 4.7 9.28 4.45 14.11a0.72 0.72 0 0 1-0.72 0.69l-20.77-0.01q-0.6 0-0.59 0.6zm0.36-6.08 14.96-0.1a0.19 0.19 0 0 0 0.19-0.19v-0.11a6.58 7.5 89.6 0 0-7.54-6.53h-0.34a6.58 7.5 89.6 0 0-7.46 6.63v0.11a0.19 0.19 0 0 0 0.19 0.19zm-43.16-8.8c6.54-7.37 18.04-3.21 17.6 7.1q-0.01 0.23-0.24 0.23l-6.13-0.01q-0.27 0-0.25-0.27c0.63-7.43-7.5-7.17-10.03-2.16q-1.7 3.36-1.63 8.19 0.12 7.96 0.14 15.51a0.33 0.33 0 0 1-0.33 0.33l-5.95-0.01q-0.29 0-0.29-0.29v-31.03q0-0.74 0.74-0.74l5.04-0.01q0.77 0 0.78 0.77l0.03 2.19a0.3 0.3 0 0 0 0.52 0.2zm133.38 0.02q2.53-2.73 6.51-3.39c21.25-3.5 22.36 33.1 2.24 32.92q-4.75-0.04-8.72-3.2-0.53-0.43-0.53 0.25l0.02 1.52q0 0.79-0.8 0.79h-4.96q-0.82 0-0.82-0.83l-0.01-45.46q0-0.29 0.29-0.29h5.79q0.5 0 0.5 0.5l-0.01 17a0.29 0.29 0 0 0 0.5 0.19zm7.9417 24.19a8.64 11.27 0.5 0 0 8.738-11.194 8.64 11.27 0.5 0 0-8.5414-11.345 8.64 11.27 0.5 0 0-8.738 11.194 8.64 11.27 0.5 0 0 8.5414 11.345zm-48.493-41.846 8.4-0.0147c0.20498-3.6e-4 0.37029 0.16437 0.37065 0.36935l0.013 7.44c3.6e-4 0.20498-0.16437 0.37029-0.36935 0.37065l-8.4 0.0147c-0.20498 3.6e-4 -0.37028-0.16437-0.37064-0.36935l-0.013-7.44c-3.6e-4 -0.20498 0.16438-0.37029 0.36936-0.37065zm-137.42 13.956c0.18-10.58 4.43-14.75 15.26-13.96q0.43 0.04 0.43 0.47l-0.03 4.68a0.39 0.39 0 0 1-0.41 0.39c-7.31-0.37-9.4 2.03-8.46 8.56q0.06 0.39 0.46 0.39h7.95a0.46 0.45 0 0 1 0.46 0.45l0.02 4.58q0 0.5-0.5 0.5h-8.02q-0.53 0-0.53 0.52v25.39q0 0.6-0.61 0.61l-5.47 0.04q-0.54 0-0.54-0.54v-25.53a0.49 0.5 0 0 0-0.49-0.5l-8.3 0.01q-0.32 0-0.32-0.31l0.01-4.95q0-0.27 0.28-0.27h8.28q0.53 0 0.53-0.53z"/>
</svg>
