<?xml version="1.0" encoding="UTF-8"?>
<svg width="183.76" height="118.48" version="1.1" viewBox="0 0 183.76 118.48" xmlns="http://www.w3.org/2000/svg">
 <g transform="translate(-30.76 -48.385)" fill="none" stroke-width="2">
  <path d="m130.4 83.13c3.62-3.83 4.58-9.26 3.65-14.24q-0.72-3.86-4.3-8.73c-1.75-2.37-7.14-10.4-10.28-10.77q-0.51-0.06-0.62 0.46-0.8 4.04 1.66 7.12 0.34 0.43 0.34 0.98c-0.06 5.14-1.4 8.89-2.99 13.71-1.38 4.17-3.52 5.81-6.19 8.58a1.3 1.28-21.9 0 0-0.35 0.8q-0.17 2.28 1.51 3.79a0.79 0.78-28 0 0 0.63 0.19l4.63-0.65q0.49-0.07 0.93-0.3c2.86-1.49 4.43 0.8 7.09 0.02q0.49-0.14 0.99-0.03 2 0.45 3.3-0.93" stroke="#f18389" vector-effect="non-scaling-stroke"/>
  <path d="m124.39 98.29 0.63 0.02q1.86 0.06 0.42-1.12-3.22-2.64-7.01-4.74c-1.95-1.08-4.01-0.64-6.16-1.08a1.72 1.71 9.2 0 0-2.04 1.46c-0.16 1.32 0.01 2.13 1.02 3.09 3.31 3.17 4.36 6.03 2.75 10.03-0.95 2.36-0.11 4.48-1.09 7-1.17 2.99-2.13 5.53-2.56 8.83-1.81 13.76-5.81 30.08 0.66 43.34a1.37 1.37 0 0 0 2.12 0.43c1.6-1.4 2.11-3.9 3.34-5.58 1.42-1.92 2.71-3.2 2.79-6.04q0.06-2.02 0.44-3.34c2.61-9.1 7.32-17.86 9.17-26.5a0.84 0.84 0 0 0-0.83-1.02l-3.82 0.06a0.66 0.65 89.6 0 1-0.66-0.66l0.04-6.53a0.65 0.65 0 0 0-0.66-0.66l-5.44 0.04q-1.57 0.01-1.6-1.57l-0.1-6.03q-0.03-1.51 1.48-1.5l5.8 0.04a0.59 0.58-0.9 0 0 0.59-0.6l-0.12-6.55a0.81 0.8-89 0 1 0.84-0.82" stroke="#f18389" vector-effect="non-scaling-stroke"/>
  <path d="m154.38 127.23q-0.09 0.51-0.39 0.45-0.24-0.06-0.39-0.38" stroke="#8e8f8c" vector-effect="non-scaling-stroke"/>
  <path d="m153.6 127.3-7.23-29.01a0.36 0.36 0 0 0-0.35-0.27l-11.84 0.03q-1.08 0-0.81 1.04l1.43 5.68q0.26 1.06 1.35 1.05l4.01-0.04q0.65-0.01 0.64 0.63l-0.02 8.59q0 0.77-0.78 0.75l-1.8-0.04a0.48 0.47-6.5 0 0-0.47 0.59l9.57 37.91a0.45 0.45 0 0 0 0.43 0.33h10.9q0.44 0 0.55-0.43l14.07-55.52a0.45 0.45 0 0 0-0.43-0.56l-10.76-0.04a0.4 0.4 0 0 0-0.39 0.3l-7.29 28.94" stroke="#828281" vector-effect="non-scaling-stroke"/>
  <path d="m153.6 127.3q-0.28 0.34-0.53 0.44a0.75 0.68-18.6 0 1-0.99-0.43l-6.72-26.68q-0.23-0.92-1.19-0.94l-7.79-0.18a0.94 0.94 0 0 0-0.96 0.92q-0.12 3.98 3.74 3.43a0.93 0.91 72.4 0 1 0.96 0.51q0.49 1 1.44 1.52 0.56 0.31 0.63 0.96c0.21 2.14 0.71 9.08-1.81 10.16a1.23 1.22 66.3 0 0-0.63 1.62c2.69 6.08 2.51 12.67 4.92 18.56q0.6 1.46 0.98 2.99c0.94 3.86 2.27 7.21 2.47 11.14a1.64 1.64 0 0 0 1.64 1.56l6.96-0.03a1.7 1.69-82.7 0 0 1.64-1.27q0.8-2.99 1.43-6.02c0.42-2.05 1.38-4.16 1.79-6.38q0.55-2.99 1.1-4.77c1.02-3.3 1.21-6.6 2.31-9.89 0.61-1.86 0.47-3.77 1.11-5.56 2.02-5.67 3.31-11.81 5-17.76a1.19 1.17-69.1 0 0-0.6-1.37c-1.61-0.81-3.65 0.1-5.53-0.4a1.93 1.92-75.5 0 0-2.35 1.39l-6.68 26.2q-0.14 0.54-0.79 0.61-0.61 0.06-0.77-0.4" stroke="#11120e" vector-effect="non-scaling-stroke"/>
  <path d="m84.29 127.23q0.04 0.43-0.74 0.26" stroke="#8e8f8c" vector-effect="non-scaling-stroke"/>
  <path d="m83.55 127.49-7.38-28.96q-0.13-0.51-0.65-0.51l-11.98-0.01a0.57 0.56-7.1 0 0-0.55 0.7l14.04 55.44q0.1 0.4 0.51 0.4l10.72-0.03q0.56 0 0.7-0.55l14.04-55.53a0.34 0.33-82.6 0 0-0.32-0.42l-10.69-0.02a0.87 0.87 0 0 0-0.85 0.67l-6.85 28.56" stroke="#828281" vector-effect="non-scaling-stroke"/>
  <path d="m83.55 127.49q-0.05 0.42-0.69 0.42-0.43-0.01-0.57-0.42-4.98-15.33-6.6-24.24-0.37-1.99-0.5-3.11a0.99 0.98-2.3 0 0-0.96-0.88l-8.14-0.19q-0.62-0.01-0.86 0.56-0.32 0.76-0.15 1.45c0.35 1.41 0.53 3.02 1.09 4.34q0.75 1.74 0.96 2.81c0.63 3.22 1.85 6.47 2.48 9.41q1.58 7.37 2.65 11.1c1.03 3.56 1.59 6.65 2.67 10.28q0.51 1.71 0.82 3.47c0.56 3.16 1.75 6.05 2.2 9.2a1.51 1.51 0 0 0 1.53 1.3l7.63-0.17a0.94 0.92 6.1 0 0 0.88-0.7l12.52-50.69q0.56-2.3-1.8-2.3h-3.97q-2.33 0-2.83 2.27c-0.71 3.3-0.75 6.47-1.76 9.71q-2.44 7.87-4.45 15.85-0.13 0.53-0.67 0.42l-0.74-0.15" stroke="#11120e" vector-effect="non-scaling-stroke"/>
  <path d="m50.8 98.29h-16.53" stroke="#8e8f8c" vector-effect="non-scaling-stroke"/>
  <path d="m34.27 98.29-1.97-0.08q-0.54-0.03-0.54 0.51l0.08 55.59a0.42 0.41 89.3 0 0 0.41 0.41l26.25-0.02q0.7 0 0.7-0.7l-0.01-11.15q0-0.59-0.59-0.59l-12.58 0.03q-0.52 0-0.52-0.52l-0.03-9.5a0.51 0.5 0 0 1 0.51-0.5l11 0.01q0.52 0.01 0.52-0.51v-11.81q0-0.54-0.54-0.54h-11.01q-0.46 0-0.46-0.47l-0.01-7.52a0.59 0.58 0 0 1 0.59-0.58l11.42 0.01a0.37 0.36 0 0 0 0.37-0.36l-0.03-11.27a0.53 0.52 88.9 0 0-0.53-0.52l-6.5 0.08" stroke="#828281" vector-effect="non-scaling-stroke"/>
  <path d="m34.27 98.29 0.55 0.42q0.44 0.34 0.01 0.7-0.34 0.28-0.78 0.22a0.59 0.59 0 0 0-0.67 0.59l-0.01 51.55a1.39 1.39 0 0 0 1.4 1.39l22.28-0.12q0.83 0 0.82-0.84l-0.07-7.96a0.73 0.73 0 0 0-0.89-0.71c-2.63 0.56-12.66 1.9-13.04-2.28q-0.41-4.53-0.04-8.52a2.22 2.22 0 0 1 2.11-2.02l9.53-0.41q0.24-0.01 0.24-0.26l-0.03-9.45a0.32 0.31 87.5 0 0-0.34-0.32c-7.77 0.61-13.09 1.85-11.51-7.73 0.84-5.1 7.49-3.71 10.79-3.66q1.87 0.03 1.87-1.83l0.01-5.95q0-1.98-1.96-1.73-3.62 0.46-3.74-1.08" stroke="#11120e" vector-effect="non-scaling-stroke"/>
  <path d="m185.07 145.89a0.37 0.37 0 0 1 0.36-0.28l12.38 0.08a0.37 0.37 0 0 1 0.36 0.28l1.95 8.45a0.37 0.37 0 0 0 0.37 0.29l12.66-0.14a0.37 0.37 0 0 0 0.36-0.47l-14.82-55.62a0.37 0.37 0 0 0-0.36-0.28l-13.49 0.04a0.37 0.37 0 0 0-0.35 0.27l-14.79 55.59a0.37 0.37 0 0 0 0.36 0.46l12.58 0.14a0.37 0.37 0 0 0 0.36-0.29l2.07-8.52" stroke="#828281" vector-effect="non-scaling-stroke"/>
  <path d="m197.95 144.42c2.08 0.93 2.78 5.15 3.14 6.79q0.36 1.7 2.1 1.73l6.83 0.11q1.61 0.03 1.19-1.53l-13.63-50.69a1.59 1.58 77.3 0 0-1.81-1.15q-4.23 0.77-8.51 0.09a1.89 1.89 0 0 0-2.16 1.56c-1.12 6.66-3.25 12.97-4.88 19.48-2.55 10.21-5.48 20.05-8.06 30.16q-0.51 1.99 1.55 2.01l6.27 0.04q1.98 0.02 2.4-1.92c0.58-2.64 0.23-6.43 3.88-6.81 3.22-0.33 8.73-1.19 11.69 0.13" stroke="#11120e" vector-effect="non-scaling-stroke"/>
  <path d="m195.16 134.23q0.59-0.02 0.97-0.52 0.28-0.36 0.23-0.99-0.58-8.12-2.34-13.23-0.57-1.65-2.85-1.27-0.46 0.08-0.7 0.47c-2.01 3.28-2.92 8.46-3.34 11.65-0.18 1.43-1.06 3.04 0.31 4.42 1.47 1.46 4.98 0.92 6.96 0.66q0.51-0.07 0.62-0.57l0.14-0.62" stroke="#11120e" vector-effect="non-scaling-stroke"/>
  <path d="m195.16 134.23-3.1-15.15q-0.05-0.26-0.31-0.23-0.35 0.02-0.45 0.41-1.62 6.86-3.25 14.29-0.15 0.69 0.55 0.69l6.56-0.01" stroke="#828281" vector-effect="non-scaling-stroke"/>
 </g>
 <path d="m99.64 34.745q-1.3 1.38-3.3 0.93-0.5-0.11-0.99 0.03c-2.66 0.78-4.23-1.51-7.09-0.02q-0.44 0.23-0.93 0.3l-4.63 0.65a0.78 0.79 62 0 1-0.63-0.19q-1.68-1.51-1.51-3.79a1.28 1.3 68.1 0 1 0.35-0.8c2.67-2.77 4.81-4.41 6.19-8.58 1.59-4.82 2.93-8.57 2.99-13.71q0-0.55-0.34-0.98-2.46-3.08-1.66-7.12 0.11-0.52 0.62-0.46c3.14 0.37 8.53 8.4 10.28 10.77q3.58 4.87 4.3 8.73c0.93 4.98-0.03 10.41-3.65 14.24z" fill="#e30713"/>
 <path d="m93.63 49.905a0.8 0.81 1 0 0-0.84 0.82l0.12 6.55a0.58 0.59 89.1 0 1-0.59 0.6l-5.8-0.04q-1.51-0.01-1.48 1.5l0.1 6.03q0.03 1.58 1.6 1.57l5.44-0.04a0.65 0.65 0 0 1 0.66 0.66l-0.04 6.53a0.66 0.65 89.6 0 0 0.66 0.66l3.82-0.06a0.84 0.84 0 0 1 0.83 1.02c-1.85 8.64-6.56 17.4-9.17 26.5q-0.38 1.32-0.44 3.34c-0.08 2.84-1.37 4.12-2.79 6.04-1.23 1.68-1.74 4.18-3.34 5.58a1.37 1.37 0 0 1-2.12-0.43c-6.47-13.26-2.47-29.58-0.66-43.34 0.43-3.3 1.39-5.84 2.56-8.83 0.98-2.52 0.14-4.64 1.09-7 1.61-4 0.56-6.86-2.75-10.03-1.01-0.96-1.18-1.77-1.02-3.09a1.72 1.71 9.2 0 1 2.04-1.46c2.15 0.44 4.21 0 6.16 1.08q3.79 2.1 7.01 4.74 1.44 1.18-0.42 1.12z" fill="#e30713"/>
 <g fill="#040503">
  <path d="m122.84 78.915q-0.28 0.34-0.53 0.44a0.68 0.75 71.4 0 1-0.99-0.43l-6.72-26.68q-0.23-0.92-1.19-0.94l-7.79-0.18a0.94 0.94 0 0 0-0.96 0.92q-0.12 3.98 3.74 3.43a0.93 0.91 72.4 0 1 0.96 0.51q0.49 1 1.44 1.52 0.56 0.31 0.63 0.96c0.21 2.14 0.71 9.08-1.81 10.16a1.23 1.22 66.3 0 0-0.63 1.62c2.69 6.08 2.51 12.67 4.92 18.56q0.6 1.46 0.98 2.99c0.94 3.86 2.27 7.21 2.47 11.14a1.64 1.64 0 0 0 1.64 1.56l6.96-0.03a1.69 1.7 7.3 0 0 1.64-1.27q0.8-2.99 1.43-6.02c0.42-2.05 1.38-4.16 1.79-6.38q0.55-2.99 1.1-4.77c1.02-3.3 1.21-6.6 2.31-9.89 0.61-1.86 0.47-3.77 1.11-5.56 2.02-5.67 3.31-11.81 5-17.76a1.17 1.19 20.9 0 0-0.6-1.37c-1.61-0.81-3.65 0.1-5.53-0.4a1.92 1.93 14.5 0 0-2.35 1.39l-6.68 26.2q-0.14 0.54-0.79 0.61-0.61 0.06-0.77-0.4l7.29-28.94a0.4 0.4 0 0 1 0.39-0.3l10.76 0.04a0.45 0.45 0 0 1 0.43 0.56l-14.07 55.52q-0.11 0.43-0.55 0.43h-10.9a0.45 0.45 0 0 1-0.43-0.33l-9.57-37.91a0.47 0.48 83.5 0 1 0.47-0.59l1.8 0.04q0.78 0.02 0.78-0.75l0.02-8.59q0.01-0.64-0.64-0.63l-4.01 0.04q-1.09 0.01-1.35-1.05l-1.43-5.68q-0.27-1.04 0.81-1.04l11.84-0.03a0.36 0.36 0 0 1 0.35 0.27z"/>
  <path d="m52.79 79.105q-0.05 0.42-0.69 0.42-0.43-0.01-0.57-0.42-4.98-15.33-6.6-24.24-0.37-1.99-0.5-3.11a0.98 0.99 87.7 0 0-0.96-0.88l-8.14-0.19q-0.62-0.01-0.86 0.56-0.32 0.76-0.15 1.45c0.35 1.41 0.53 3.02 1.09 4.34q0.75 1.74 0.96 2.81c0.63 3.22 1.85 6.47 2.48 9.41q1.58 7.37 2.65 11.1c1.03 3.56 1.59 6.65 2.67 10.28q0.51 1.71 0.82 3.47c0.56 3.16 1.75 6.05 2.2 9.2a1.51 1.51 0 0 0 1.53 1.3l7.63-0.17a0.94 0.92 6.1 0 0 0.88-0.7l12.52-50.69q0.56-2.3-1.8-2.3h-3.97q-2.33 0-2.83 2.27c-0.71 3.3-0.75 6.47-1.76 9.71q-2.44 7.87-4.45 15.85-0.13 0.53-0.67 0.42l-0.74-0.15 6.85-28.56a0.87 0.87 0 0 1 0.85-0.67l10.69 0.02a0.33 0.34 7.4 0 1 0.32 0.42l-14.04 55.53q-0.14 0.55-0.7 0.55l-10.72 0.03q-0.41 0-0.51-0.4l-14.04-55.44a0.56 0.57 82.9 0 1 0.55-0.7l11.98 0.01q0.52 0 0.65 0.51z"/>
  <path d="m3.51 49.905 0.55 0.42q0.44 0.34 0.01 0.7-0.34 0.28-0.78 0.22a0.59 0.59 0 0 0-0.67 0.59l-0.01 51.55a1.39 1.39 0 0 0 1.4 1.39l22.28-0.12q0.83 0 0.82-0.84l-0.07-7.96a0.73 0.73 0 0 0-0.89-0.71c-2.63 0.56-12.66 1.9-13.04-2.28q-0.41-4.53-0.04-8.52a2.22 2.22 0 0 1 2.11-2.02l9.53-0.41q0.24-0.01 0.24-0.26l-0.03-9.45a0.32 0.31 87.5 0 0-0.34-0.32c-7.77 0.61-13.09 1.85-11.51-7.73 0.84-5.1 7.49-3.71 10.79-3.66q1.87 0.03 1.87-1.83l0.01-5.95q0-1.98-1.96-1.73-3.62 0.46-3.74-1.08l6.5-0.08a0.53 0.52 88.9 0 1 0.53 0.52l0.03 11.27a0.37 0.36 0 0 1-0.37 0.36l-11.42-0.01a0.59 0.58 0 0 0-0.59 0.58l0.01 7.52q0 0.47 0.46 0.47h11.01q0.54 0 0.54 0.54v11.81q0 0.52-0.52 0.51l-11-0.01a0.51 0.5 0 0 0-0.51 0.5l0.03 9.5q0 0.52 0.52 0.52l12.58-0.03q0.59 0 0.59 0.59l0.01 11.15q0 0.7-0.7 0.7l-26.25 0.02a0.42 0.41 89.3 0 1-0.41-0.41l-0.08-55.59q0-0.54 0.54-0.51z"/>
 </g>
 <path d="m3.51 49.905h16.53q0.12 1.54 3.74 1.08 1.96-0.25 1.96 1.73l-0.01 5.95q0 1.86-1.87 1.83c-3.3-0.05-9.95-1.44-10.79 3.66-1.58 9.58 3.74 8.34 11.51 7.73a0.32 0.31 87.5 0 1 0.34 0.32l0.03 9.45q0 0.25-0.24 0.26l-9.53 0.41a2.22 2.22 0 0 0-2.11 2.02q-0.37 3.99 0.04 8.52c0.38 4.18 10.41 2.84 13.04 2.28a0.73 0.73 0 0 1 0.89 0.71l0.07 7.96q0.01 0.84-0.82 0.84l-22.28 0.12a1.39 1.39 0 0 1-1.4-1.39l0.01-51.55a0.59 0.59 0 0 1 0.67-0.59q0.44 0.06 0.78-0.22 0.43-0.36-0.01-0.7z" fill="#1d1e19"/>
 <path d="m154.31 97.505-2.07 8.52a0.37 0.37 0 0 1-0.36 0.29l-12.58-0.14a0.37 0.37 0 0 1-0.36-0.46l14.79-55.59a0.37 0.37 0 0 1 0.35-0.27l13.49-0.04a0.37 0.37 0 0 1 0.36 0.28l14.82 55.62a0.37 0.37 0 0 1-0.36 0.47l-12.66 0.14a0.37 0.37 0 0 1-0.37-0.29l-1.95-8.45a0.37 0.37 0 0 0-0.36-0.28l-12.38-0.08a0.37 0.37 0 0 0-0.36 0.28zm12.88-1.47c2.08 0.93 2.78 5.15 3.14 6.79q0.36 1.7 2.1 1.73l6.83 0.11q1.61 0.03 1.19-1.53l-13.63-50.69a1.59 1.58 77.3 0 0-1.81-1.15q-4.23 0.77-8.51 0.09a1.89 1.89 0 0 0-2.16 1.56c-1.12 6.66-3.25 12.97-4.88 19.48-2.55 10.21-5.48 20.05-8.06 30.16q-0.51 1.99 1.55 2.01l6.27 0.04q1.98 0.02 2.4-1.92c0.58-2.64 0.23-6.43 3.88-6.81 3.22-0.33 8.73-1.19 11.69 0.13z" fill="#040503"/>
 <g fill="#1d1e19">
  <path d="m52.79 79.105q0.78 0.17 0.74-0.26l0.74 0.15q0.54 0.11 0.67-0.42 2.01-7.98 4.45-15.85c1.01-3.24 1.05-6.41 1.76-9.71q0.5-2.27 2.83-2.27h3.97q2.36 0 1.8 2.3l-12.52 50.69a0.94 0.92 6.1 0 1-0.88 0.7l-7.63 0.17a1.51 1.51 0 0 1-1.53-1.3c-0.45-3.15-1.64-6.04-2.2-9.2q-0.31-1.76-0.82-3.47c-1.08-3.63-1.64-6.72-2.67-10.28q-1.07-3.73-2.65-11.1c-0.63-2.94-1.85-6.19-2.48-9.41q-0.21-1.07-0.96-2.81c-0.56-1.32-0.74-2.93-1.09-4.34q-0.17-0.69 0.15-1.45 0.24-0.57 0.86-0.56l8.14 0.19a0.98 0.99 87.7 0 1 0.96 0.88q0.13 1.12 0.5 3.11 1.62 8.91 6.6 24.24 0.14 0.41 0.57 0.42 0.64 0 0.69-0.42z"/>
  <path d="m122.84 78.915q0.15 0.32 0.39 0.38 0.3 0.06 0.39-0.45 0.16 0.46 0.77 0.4 0.65-0.07 0.79-0.61l6.68-26.2a1.92 1.93 14.5 0 1 2.35-1.39c1.88 0.5 3.92-0.41 5.53 0.4a1.17 1.19 20.9 0 1 0.6 1.37c-1.69 5.95-2.98 12.09-5 17.76-0.64 1.79-0.5 3.7-1.11 5.56-1.1 3.29-1.29 6.59-2.31 9.89q-0.55 1.78-1.1 4.77c-0.41 2.22-1.37 4.33-1.79 6.38q-0.63 3.03-1.43 6.02a1.69 1.7 7.3 0 1-1.64 1.27l-6.96 0.03a1.64 1.64 0 0 1-1.64-1.56c-0.2-3.93-1.53-7.28-2.47-11.14q-0.38-1.53-0.98-2.99c-2.41-5.89-2.23-12.48-4.92-18.56a1.23 1.22 66.3 0 1 0.63-1.62c2.52-1.08 2.02-8.02 1.81-10.16q-0.07-0.65-0.63-0.96-0.95-0.52-1.44-1.52a0.93 0.91 72.4 0 0-0.96-0.51q-3.86 0.55-3.74-3.43a0.94 0.94 0 0 1 0.96-0.92l7.79 0.18q0.96 0.02 1.19 0.94l6.72 26.68a0.68 0.75 71.4 0 0 0.99 0.43q0.25-0.1 0.53-0.44z"/>
  <path d="m167.19 96.035c-2.96-1.32-8.47-0.46-11.69-0.13-3.65 0.38-3.3 4.17-3.88 6.81q-0.42 1.94-2.4 1.92l-6.27-0.04q-2.06-0.02-1.55-2.01c2.58-10.11 5.51-19.95 8.06-30.16 1.63-6.51 3.76-12.82 4.88-19.48a1.89 1.89 0 0 1 2.16-1.56q4.28 0.68 8.51-0.09a1.59 1.58 77.3 0 1 1.81 1.15l13.63 50.69q0.42 1.56-1.19 1.53l-6.83-0.11q-1.74-0.03-2.1-1.73c-0.36-1.64-1.06-5.86-3.14-6.79zm-2.79-10.19q0.59-0.02 0.97-0.52 0.28-0.36 0.23-0.99-0.58-8.12-2.34-13.23-0.57-1.65-2.85-1.27-0.46 0.08-0.7 0.47c-2.01 3.28-2.92 8.46-3.34 11.65-0.18 1.43-1.06 3.04 0.31 4.42 1.47 1.46 4.98 0.92 6.96 0.66q0.51-0.07 0.62-0.57z"/>
 </g>
 <path d="m164.4 85.845-3.1-15.15q-0.05-0.26-0.31-0.23-0.35 0.02-0.45 0.41-1.62 6.86-3.25 14.29-0.15 0.69 0.55 0.69l6.56-0.01-0.14 0.62q-0.11 0.5-0.62 0.57c-1.98 0.26-5.49 0.8-6.96-0.66-1.37-1.38-0.49-2.99-0.31-4.42 0.42-3.19 1.33-8.37 3.34-11.65q0.24-0.39 0.7-0.47 2.28-0.38 2.85 1.27 1.76 5.11 2.34 13.23 0.05 0.63-0.23 0.99-0.38 0.5-0.97 0.52z" fill="#040503"/>
</svg>
