<svg version="1.1" viewBox="0 0 800 278.86" xmlns="http://www.w3.org/2000/svg">
	<defs>
		<style>.cls-1{fill:#ebbb2c;}.cls-2{fill:#1b63a4;}</style>
	</defs>
	<g transform="matrix(3.8143 0 0 3.8143 -.41957 -.040965)" data-name="Layer 2">
		<g data-name="Layer 1">
			<path class="cls-1" d="m138.42 46.86q9.14 0 9.13 9.29v13.94q0 3-3 3t-3-3.07v-14.02c0-2.07-1-3.11-3.11-3.11h-5v17.17q0 3-3.05 3t-3-3.07v-13.99c0-2.07-1-3.11-3.08-3.11h-5v17.11q0 3.08-3.09 3.07t-3.22-3.07v-20.13c0-2 1-3 3.11-3z"/>
			<path class="cls-1" d="m169.85 73.12q-3.1 0-3.11-3.07v-5.05h-10.09v5q0 3.08-3 3.07t-3-3v-13.92q0-9.28 9.14-9.29h10.11q3 0 3.05 3v20.19q-0.11 3.08-3.1 3.07zm-3.11-14.2v-6h-7q-3.11 0-3.11 3.11v2.89z"/>
			<path class="cls-1" d="m182.44 73.08q-3.09 0-3.09-3.07v-17.09c-2.06 0-3.08-1-3-2.93a2.77 2.77 0 0 1 3-3.13h3c2 0 3.05 1.06 3.05 3v20.14q0.04 3.09-2.96 3.08zm-1.7-33.93a2.69 2.69 0 0 0-1.13 1.11 3 3 0 0 0-0.4 1.51 3 3 0 0 0 0.4 1.49 2.85 2.85 0 0 0 1.12 1.11 3.06 3.06 0 0 0 3 0 2.66 2.66 0 0 0 1.12-1.11 3 3 0 0 0 0.4-1.49 3.06 3.06 0 0 0-0.41-1.51 2.63 2.63 0 0 0-1.13-1.11 3.05 3.05 0 0 0-1.47-0.39 3.1 3.1 0 0 0-1.5 0.39z"/>
			<path class="cls-1" d="m206.15 52.92h-8.15c-2.07 0-3.1 0.69-3.1 2.06s1 1.94 3.13 1.94h2q9.09 0.15 9.07 8.08t-9.1 8.08h-8.23q-2.94 0-3-2.79 0-3.15 2.95-3.17h8.28c2 0 3-0.69 3.07-2.06s-1-2-3-2h-2q-9.21 0-9.18-8.14-0.08-8 9.07-8h8.13q3 0 3 3c-0.02 1.94-1 2.96-2.94 3z"/>
			<path class="cls-2" d="m17.32 58q-3.11 0-3.1-3.07v-2h-5q-3.1 0-3.11 3.11v14q0 3.08-3 3.07t-3-3v-13.96q0-9.28 9.14-9.29h8.12q3 0 3 3v5q-0.06 3.14-3.05 3.14z"/>
			<path class="cls-2" d="m42.63 73.12q-3.1 0-3.11-3.07v-5.05h-10.09v5q0 3.08-3.05 3.07t-3.05-3v-13.92q0-9.28 9.14-9.29h10.12q3 0 3 3v20.19q0.02 3.08-2.96 3.07zm-4.29-36.22-7.65 2.81q-3.69 1.29-2.69 4.2t4.82 1.42l7.63-2.81q3.87-1.4 2.77-4.18t-4.88-1.44zm1.18 22v-6h-7q-3.1 0-3.1 3.11v2.89z"/>
			<path class="cls-2" d="m68.43 73.12h-10.19q-9.24 0-9.24-9.12v-7.85q0-9.28 9.14-9.29h7.15v-5q0-3.09 3-3.09c2 0 3 1 3 3v28.28q0.13 3.08-2.86 3.07zm-3.1-6.12v-14.08h-7.09q-3.1 0-3.11 3.11v8.08q0 2.92 3.09 2.93z"/>
			<path class="cls-2" d="m80.58 73.08q-3.09 0-3.09-3.07v-17.09c-2.06 0-3.08-1-3-2.93a2.77 2.77 0 0 1 3-3.13h3c2 0 3 1.06 3 3v20.14q0.09 3.09-2.91 3.08zm-1.7-33.93a2.69 2.69 0 0 0-1.13 1.11 3 3 0 0 0-0.4 1.51 3 3 0 0 0 0.4 1.49 2.85 2.85 0 0 0 1.12 1.11 3.05 3.05 0 0 0 1.5 0.39 3.14 3.14 0 0 0 1.5-0.39 2.7 2.7 0 0 0 1.13-1.11 3 3 0 0 0 0.4-1.49 3.06 3.06 0 0 0-0.4-1.51 2.63 2.63 0 0 0-1.13-1.11 3.05 3.05 0 0 0-1.47-0.39 3.1 3.1 0 0 0-1.52 0.39z"/>
			<path class="cls-2" d="m96.46 46.82h4.05q9.18 0 9.18 9.11v7.86q0 9.29-9.14 9.29h-4.17q-9.07 0-9.08-9.09v-7.99q0-9.17 9.16-9.18zm-0.06 6.1c-2 0-3 1-3 3v8q0 3.11 3 3.11h4.11q3.08 0 3.08-3.11v-8.07q0-2.93-3.08-2.93z"/>
			<path class="cls-2" d="m164.63 34.69a1.74 1.74 0 0 1-1-0.31 1.79 1.79 0 0 1-0.5-2.49 25.41 25.41 0 0 1 7.74-7c4.61-2.67 12.07-4.82 21.45 0.08a1.8 1.8 0 0 1-1.66 3.19c-6.37-3.33-12.42-3.38-18-0.16a21.69 21.69 0 0 0-6.56 5.89 1.79 1.79 0 0 1-1.49 0.8z"/>
			<path class="cls-2" d="m152.66 31.81a1.85 1.85 0 0 1-1-0.3 1.81 1.81 0 0 1-0.49-2.5 37.88 37.88 0 0 1 23.23-16.15 37.46 37.46 0 0 1 26.52 3.92 1.8023 1.8023 0 0 1-1.77 3.14c-15.57-8.74-34.91-4-45 11.09a1.8 1.8 0 0 1-1.5 0.8z"/>
			<path class="cls-2" d="m141.27 26.14a1.79 1.79 0 0 1-1.5-2.79c14.95-22.68 43.92-29.84 68.88-17a1.8 1.8 0 1 1-1.65 3.16c-23.3-11.95-50.32-5.3-64.24 15.82a1.78 1.78 0 0 1-1.5 0.81z"/>
			<path class="cls-2" d="m172.09 39.93a1.79 1.79 0 0 1-1.59-2.64 11.32 11.32 0 0 1 6.8-5.47 13.93 13.93 0 0 1 10.57 1.07 1.8 1.8 0 1 1-1.69 3.17 10.49 10.49 0 0 0-7.83-0.8 7.76 7.76 0 0 0-4.67 3.74 1.78 1.78 0 0 1-1.59 1z"/>
		</g>
	</g>
</svg>
