<?xml version="1.0" encoding="UTF-8"?>
<svg width="1290" height="918.7" version="1.1" viewBox="0 0 1290 918.7" xmlns="http://www.w3.org/2000/svg">
 <g transform="translate(-173.54 -190.24)" fill="none" stroke-width="2">
  <path d="m419.02 420.96-86.06 0.21" stroke="#a2b9d8" vector-effect="non-scaling-stroke"/>
  <path d="m332.96 421.17-157.02-0.1a1.24 1.23-82.3 0 0-1.19 0.91q-0.21 0.78-0.21 1.7 0.24 283.5 0.18 565.88a1.15 1.14 0 0 0 1.15 1.14l156.76-0.16" stroke="#8a8a8b" vector-effect="non-scaling-stroke"/>
  <path d="m332.63 990.54 266.58-0.83" stroke="#a2b9d8" vector-effect="non-scaling-stroke"/>
  <path d="m599.21 989.71 364.61 0.98a1 0.99 0.3 0 1 0.99 0.99l-0.04 114.05a2.21 2.21 0 0 0 2.21 2.21h267.16a1.25 1.25 0 0 0 1.25-1.25l-0.14-120.24" stroke="#8a8a8b" vector-effect="non-scaling-stroke"/>
  <path d="m1235.2 986.45-0.03-228.14" stroke="#a2b9d8" vector-effect="non-scaling-stroke"/>
  <path d="m1235.2 758.31 147.69 0.2a0.58 0.57 0 0 0 0.58-0.57l-0.02-105.44q0-1.77-1.77-1.77-72-0.01-144.08 0-0.36 0-0.7-0.12-0.41-0.15-0.59-0.23a1.11 1.1 26.4 0 1-0.53-1.56q77.3-134.87 141.52-246.63 1.59-2.76 1.59-6.03 0.08-59.39 0-122.86 0-1.54-0.18-3.1a1.88 1.88 0 0 0-1.87-1.65l-230.62-0.02a1.99 1.98 0 0 0-1.99 1.98l0.05 105.2a2.04 2.03-90 0 0 2.03 2.04h127.49a0.73 0.73 0 0 1 0.63 1.09l-90.42 161.17a2.35 2.34 14.5 0 1-2.05 1.2h-195.24a2 2 0 0 1-2-2l-0.03-268.8q0-2.31-2.3-2.31l-47.38 0.01a2.21 2.19 4.2 0 0-2.18 1.87l-90.98 612.27q-0.17 1.17-1.35 1.17h-77.47a2.29 2.28-4.2 0 1-2.26-1.94l-90.62-610.7q-0.39-2.65-3.07-2.65-30.71-0.03-60.85-0.11-3.19-0.01-5.85 0.23a1.34 1.34 0 0 0-1.22 1.35l0.89 151.44" stroke="#8a8a8b" vector-effect="non-scaling-stroke"/>
  <path d="m600.07 421.04-53.84 0.7" stroke="#a2b9d8" vector-effect="non-scaling-stroke"/>
  <path d="m546.23 421.74 0.6-227.93q0.01-2.58-2.57-2.57l-124.44 0.23a0.84 0.83-90 0 0-0.83 0.84l0.03 228.65" stroke="#8a8a8b" vector-effect="non-scaling-stroke"/>
  <g stroke="#2c4464">
   <path d="m546.23 421.74q-0.06 6.44-0.16 12.76-1.12 72.75-1.42 145.49-0.19 47.37-16.78 90.01-10.7 27.5-33.7 46.38-7.03 5.77-17.2 11.23c-19.65 10.56-41.33 16.08-63.58 18.76q-25.46 3.06-50.88 2.39-7.78-0.2-15.55-0.23-5.79-0.03-12.17-0.46a1.8 1.8 0 0 0-1.92 1.79l-0.24 240.68" vector-effect="non-scaling-stroke"/>
   <path d="m332.96 421.17q-0.03 0.47-0.22 0.74a0.58 0.56 64 0 0-0.11 0.34l-0.18 250.47a1.73 1.71-80.1 0 0 1.13 1.62q1.25 0.46 2.58 0.57 13.74 1.18 28.34-1.44c19.55-3.51 35.95-14.28 43.61-32.35q2.8-6.61 4.85-19.27 5.02-31.11 5.48-51.61 1.17-52.61 0.58-149.28" vector-effect="non-scaling-stroke"/>
   <path d="m1235.2 758.31-53.7-0.84a3.97 3.97 0 0 0-3.64 2.25q-53.94 112.23-107.78 224.17a1.92 1.92 0 0 0 0.84 2.53q0.64 0.33 1.81 0.32 81.15-0.3 162.5-0.29" vector-effect="non-scaling-stroke"/>
   <path d="m599.21 989.71q-0.48-0.4-0.37-0.72 1.54-4.29 1.54-8.24 0.25-242.6-0.31-559.71" vector-effect="non-scaling-stroke"/>
  </g>
  <g stroke="#8a8a8b">
   <path d="m758.8 368.9a1.85 1.85 0 0 0 1.84 1.63l83.44-0.01a1.85 1.85 0 0 0 1.84-1.63l11.86-98.71a1.85 1.85 0 0 0-1.84-2.07l-107.19-0.01a1.85 1.85 0 0 0-1.84 2.07l11.89 98.73" vector-effect="non-scaling-stroke"/>
   <path d="m788.87 619.06q0.34 4.63 0.88 9.03 5.29 42.91 11.56 94.72 0.06 0.51 0.41 0.87a0.96 0.96 0 0 0 1.64-0.56l26.32-219.12a1.44 1.44 0 0 0-1.43-1.62h-52.22a1.34 1.33-87.7 0 0-1.33 1.23q-0.04 0.42 0.08 1.39 7.03 59.87 13.98 112.98 0.07 0.57 0.11 1.08" vector-effect="non-scaling-stroke"/>
   <path d="m1400.5 879.51q0.84 0.57 0.84 1.57 0.12 70.03 0.18 138.69 0 1.78 1.77 1.8l18.18 0.22a1.8 1.79 2.9 0 0 1.81-1.63q0.17-1.79 0.17-3.76 0.19-65.12 0.33-135.02a1.92 1.92 0 0 1 1.95-1.91l15.96 0.2a1.8 1.79 0.5 0 0 1.82-1.78l0.07-15.57a1.77 1.76-90 0 0-1.77-1.78l-58.1 0.32a1.93 1.93 0 0 0-1.92 1.92l-0.07 14.54a2.08 2.07 89.9 0 0 2.09 2.09l15.92-0.14a1.37 1.35 61.8 0 1 0.77 0.24" vector-effect="non-scaling-stroke"/>
   <path d="m1277.1 862.24a1.34 1.34 0 0 0-1.34-1.34h-19.5a1.34 1.34 0 0 0-1.34 1.34v157.98a1.34 1.34 0 0 0 1.34 1.34h19.5a1.34 1.34 0 0 0 1.34-1.34v-157.98" vector-effect="non-scaling-stroke"/>
   <path d="m1351.9 995.52q0.06 3.6-0.58 0.05-9.8-54.46-17.9-107.57-1.88-12.39-3.9-25.14a2.03 2.02 85.5 0 0-2-1.71l-25.47-0.01q-1.84 0-1.84 1.84l0.07 157.79a0.78 0.77-90 0 0 0.77 0.78h17a0.69 0.69 0 0 0 0.69-0.69q-0.14-63.91-1.97-135.76-0.01-0.23 0.43-0.27a0.36 0.35 81.4 0 1 0.39 0.29q5.66 29.92 9.93 57.12 6.15 39.22 12.25 78.48 0.13 0.83 0.97 0.83h27.54q0.55 0 0.55-0.55l-0.01-158.51a1.34 1.34 0 0 0-1.3-1.34l-16.31-0.44q-1.4-0.04-1.37 1.36l2.06 133.45" vector-effect="non-scaling-stroke"/>
   <path d="m1462.5 999.57a1.47 1.47 0 0 0-1.47-1.47h-17.38a1.47 1.47 0 0 0-1.47 1.47v20.7a1.47 1.47 0 0 0 1.47 1.47h17.38a1.47 1.47 0 0 0 1.47-1.47v-20.7" vector-effect="non-scaling-stroke"/>
   <path d="m319.49 477.6a26.08 26.08 0 0 0-26.08-26.08h-82.4a26.08 26.08 0 0 0-26.08 26.08v13.34a26.08 26.08 0 0 0 26.08 26.08h82.4a26.08 26.08 0 0 0 26.08-26.08v-13.34" vector-effect="non-scaling-stroke"/>
   <path d="m317.51 580.97a2.06 2.06 0 0 0-2.06-2.06h-127.06a2.06 2.06 0 0 0-2.06 2.06v18.36a2.06 2.06 0 0 0 2.06 2.06h127.06a2.06 2.06 0 0 0 2.06-2.06v-18.36" vector-effect="non-scaling-stroke"/>
   <path d="m186.94 686.59q-0.55 2.38-0.57 5.04-0.13 17.32-0.01 33.74 0.02 2.15 2.16 2.15h126.91a1.95 1.95 0 0 0 1.95-1.92q0.21-17.18-0.04-32.8c-0.27-16.68-12.38-29.34-29.21-29.33q-37.19 0.04-72.07 0.01-3.58 0-7.29 0.63-3.85 0.66-7.56 2.84-11.26 6.62-14.27 19.64" vector-effect="non-scaling-stroke"/>
   <path d="m291.69 854.58c0.58 0.06 1.08 0.45 1.67 0.56q10.44 2.07 22.29 4.46 0.95 0.19 1.61-0.61a1.27 1.22-27.1 0 0 0.28-0.81l-0.08-17.6a1.9 1.9 0 0 0-1.36-1.81q-2.95-0.88-6.01-1.26-4.5-0.55-8.45-1.71c-1.05-0.3-2.03-0.13-3.13-0.34q-6.85-1.35-13.4-2.48a1.07 1.07 0 0 1-0.88-1.05l0.01-23.39a1.72 1.71 85.9 0 1 1.47-1.7l30.08-4.4a2.01 2 86 0 0 1.71-1.98l0.04-18.42a2 2 0 0 0-2.37-1.97l-127.31 23.87a1.94 1.94 0 0 0-1.58 1.91l0.03 26.15q0 1.54 1.52 1.86 50.92 10.46 101.08 20.28 1.34 0.27 2.78 0.44" vector-effect="non-scaling-stroke"/>
   <path d="m243.32 916.14q-2.07-2.48-3.84-2.98c-2.12-0.6-4.03-1.56-6.22-1.58q-8.24-0.05-18.01-0.25-9.17-0.18-11.52 0.41-5.11 1.28-6.87 2.38-6.62 4.13-7.98 11.57-4.29 23.4-2.04 47.23a1.7 1.7 0 0 0 1.69 1.53h127.25a1.74 1.74 0 0 0 1.74-1.73l0.12-17.69q0.01-1.79-1.78-1.78-25.84 0.08-52.75 0.25c-2.71 0.02-6.01-0.44-5.95-3.94q0.06-3.46 0.46-7.71c0.47-5.03 2.66-8.28 8.09-8.29q24.05-0.06 49.09-0.14 2.71-0.01 2.71-2.72l0.01-17.92a1.77 1.76-87.2 0 0-1.6-1.77q-3.29-0.33-7.41-0.33-21.77-0.04-38.73 0.45-2.24 0.06-4.73 0.25-2.48 0.18-4.51 1.04-8.08 3.42-9.58 12.56-0.19 1.12-1.35 1.04a0.87 0.85-5.6 0 1-0.78-0.63q-1.25-4.45-4.36-8.19-0.19-0.23-0.43-0.4-0.41-0.28-0.72-0.66" vector-effect="non-scaling-stroke"/>
  </g>
  <path d="m1123.4 663.2a1.06 1.06 0 0 0-0.96-1.52l-136.88 0.24a1.06 1.06 0 0 0-1.06 1.06l0.02 285.01a1.06 1.06 0 0 0 2.02 0.46l136.86-285.25" stroke="#2c4464" vector-effect="non-scaling-stroke"/>
  <g stroke="#8a8a8b">
   <path d="m204.9 495.11q2.47 1.13 5.08 1.08 30.34-0.49 80.59-0.06 6.44 0.05 9.32-1.28 6.62-3.06 6.63-10.81c0.01-6.82-4.63-11.82-11.54-11.81q-43.38 0.05-85.94 0c-3.54-0.01-7.4 1.44-9.3 4.51q-3.42 5.56-1.42 12.23 0.9 3 3.5 4.54 1.49 0.89 3.08 1.6" vector-effect="non-scaling-stroke"/>
   <path d="m199.67 698c-0.41 2.05-1.1 5.48 0.46 7.2q1.24 1.37 2.98 1.37 49.27 0 95.97 0 5.88 0 5.26-5.82c-0.82-7.66-0.33-16.34-10.91-16.4q-32.02-0.16-63.54-0.22-10.3-0.02-19.38 0.48-9.41 0.52-10.21 9.04-0.21 2.23-0.63 4.35" vector-effect="non-scaling-stroke"/>
   <path d="m257.43 829.9q0.06 0.12 0.2 0.14 6.48 1.09 12.34 2.02a1.4 1.39-85.4 0 0 1.61-1.38l-0.08-20.48q-0.01-2.07-2.06-1.78l-66.72 9.45a1.48 1.47 88.5 0 0-1.27 1.34q-0.12 1.54 1.54 1.82 19.76 3.24 39.51 6.48c1.23 0.21 2.1 0.04 3.26 0.33q5.77 1.45 11.44 1.9 0.16 0.02 0.23 0.16" vector-effect="non-scaling-stroke"/>
   <path d="m201.04 954.68 41.84 0.08a1.83 1.83 0 0 0 1.83-1.83l0.02-7.24a13.13 12.94-89.9 0 0-12.92-13.15l-19.62-0.04a13.13 12.94-89.9 0 0-12.96 13.11l-0.02 7.24a1.83 1.83 0 0 0 1.83 1.83" vector-effect="non-scaling-stroke"/>
  </g>
 </g>
 <g fill="#141517">
  <path d="m372.69 231.5q-0.06 6.44-0.16 12.76-1.12 72.75-1.42 145.49-0.19 47.37-16.78 90.01-10.7 27.5-33.7 46.38-7.03 5.77-17.2 11.23c-19.65 10.56-41.33 16.08-63.58 18.76q-25.46 3.06-50.88 2.39-7.78-0.2-15.55-0.23-5.79-0.03-12.17-0.46a1.8 1.8 0 0 0-1.92 1.79l-0.24 240.68-156.76 0.16a1.15 1.14 0 0 1-1.15-1.14q0.06-282.38-0.18-565.88 0-0.92 0.21-1.7a1.23 1.24 7.7 0 1 1.19-0.91l157.02 0.1q-0.03 0.47-0.22 0.74a0.58 0.56 64 0 0-0.11 0.34l-0.18 250.47a1.71 1.73 9.9 0 0 1.13 1.62q1.25 0.46 2.58 0.57 13.74 1.18 28.34-1.44c19.55-3.51 35.95-14.28 43.61-32.35q2.8-6.61 4.85-19.27 5.02-31.11 5.48-51.61 1.17-52.61 0.58-149.28l-0.03-228.65a0.83 0.84 0 0 1 0.83-0.84l124.44-0.23q2.58-0.01 2.57 2.57zm-226.74 55.86a26.08 26.08 0 0 0-26.08-26.08h-82.4a26.08 26.08 0 0 0-26.08 26.08v13.34a26.08 26.08 0 0 0 26.08 26.08h82.4a26.08 26.08 0 0 0 26.08-26.08zm-1.98 103.37a2.06 2.06 0 0 0-2.06-2.06h-127.06a2.06 2.06 0 0 0-2.06 2.06v18.36a2.06 2.06 0 0 0 2.06 2.06h127.06a2.06 2.06 0 0 0 2.06-2.06zm-130.57 105.62q-0.55 2.38-0.57 5.04-0.13 17.32-0.01 33.74 0.02 2.15 2.16 2.15h126.91a1.95 1.95 0 0 0 1.95-1.92q0.21-17.18-0.04-32.8c-0.27-16.68-12.38-29.34-29.21-29.33q-37.19 0.04-72.07 0.01-3.58 0-7.29 0.63-3.85 0.66-7.56 2.84-11.26 6.62-14.27 19.64zm104.75 167.99c0.58 0.06 1.08 0.45 1.67 0.56q10.44 2.07 22.29 4.46 0.95 0.19 1.61-0.61a1.22 1.27 62.9 0 0 0.28-0.81l-0.08-17.6a1.9 1.9 0 0 0-1.36-1.81q-2.95-0.88-6.01-1.26-4.5-0.55-8.45-1.71c-1.05-0.3-2.03-0.13-3.13-0.34q-6.85-1.35-13.4-2.48a1.07 1.07 0 0 1-0.88-1.05l0.01-23.39a1.72 1.71 85.9 0 1 1.47-1.7l30.08-4.4a2.01 2 86 0 0 1.71-1.98l0.04-18.42a2 2 0 0 0-2.37-1.97l-127.31 23.87a1.94 1.94 0 0 0-1.58 1.91l0.03 26.15q0 1.54 1.52 1.86 50.92 10.46 101.08 20.28 1.34 0.27 2.78 0.44zm-48.37 61.56q-2.07-2.48-3.84-2.98c-2.12-0.6-4.03-1.56-6.22-1.58q-8.24-0.05-18.01-0.25-9.17-0.18-11.52 0.41-5.11 1.28-6.87 2.38-6.62 4.13-7.98 11.57-4.29 23.4-2.04 47.23a1.7 1.7 0 0 0 1.69 1.53h127.25a1.74 1.74 0 0 0 1.74-1.73l0.12-17.69q0.01-1.79-1.78-1.78-25.84 0.08-52.75 0.25c-2.71 0.02-6.01-0.44-5.95-3.94q0.06-3.46 0.46-7.71c0.47-5.03 2.66-8.28 8.09-8.29q24.05-0.06 49.09-0.14 2.71-0.01 2.71-2.72l0.01-17.92a1.76 1.77 2.8 0 0-1.6-1.77q-3.29-0.33-7.41-0.33-21.77-0.04-38.73 0.45-2.24 0.06-4.73 0.25-2.48 0.18-4.51 1.04-8.08 3.42-9.58 12.56-0.19 1.12-1.35 1.04a0.85 0.87 84.4 0 1-0.78-0.63q-1.25-4.45-4.36-8.19-0.19-0.23-0.43-0.4-0.41-0.28-0.72-0.66z"/>
  <path d="m1061.7 568.07-53.7-0.84a3.97 3.97 0 0 0-3.64 2.25q-53.94 112.23-107.78 224.17a1.92 1.92 0 0 0 0.84 2.53q0.64 0.33 1.81 0.32 81.15-0.3 162.5-0.29l0.14 120.24a1.25 1.25 0 0 1-1.25 1.25h-267.16a2.21 2.21 0 0 1-2.21-2.21l0.04-114.05a1 0.99 0.3 0 0-0.99-0.99l-364.61-0.98q-0.48-0.4-0.37-0.72 1.54-4.29 1.54-8.24 0.25-242.6-0.31-559.71l-0.89-151.44a1.34 1.34 0 0 1 1.22-1.35q2.66-0.24 5.85-0.23 30.14 0.08 60.85 0.11 2.68 0 3.07 2.65l90.62 610.7a2.28 2.29 85.8 0 0 2.26 1.94h77.47q1.18 0 1.35-1.17l90.98-612.27a2.21 2.19 4.2 0 1 2.18-1.87l47.38-0.01q2.3 0 2.3 2.31l0.03 268.8a2 2 0 0 0 2 2h195.24a2.35 2.34 14.5 0 0 2.05-1.2l90.42-161.17a0.73 0.73 0 0 0-0.63-1.09h-127.49a2.03 2.04 0 0 1-2.03-2.04l-0.05-105.2a1.99 1.98 0 0 1 1.99-1.98l230.62 0.02a1.88 1.88 0 0 1 1.87 1.65q0.18 1.56 0.18 3.1 0.08 63.47 0 122.86 0 3.27-1.59 6.03-64.22 111.76-141.52 246.63a1.11 1.1 26.4 0 0 0.53 1.56q0.18 0.08 0.59 0.23 0.34 0.12 0.7 0.12 72.08-0.01 144.08 0 1.77 0 1.77 1.77l0.02 105.44a0.58 0.57 0 0 1-0.58 0.57zm-111.83-95.11a1.06 1.06 0 0 0-0.96-1.52l-136.88 0.24a1.06 1.06 0 0 0-1.06 1.06l0.02 285.01a1.06 1.06 0 0 0 2.02 0.46z"/>
  <path d="m585.26 178.66-11.89-98.73a1.85 1.85 0 0 1 1.84-2.07l107.19 0.01a1.85 1.85 0 0 1 1.84 2.07l-11.86 98.71a1.85 1.85 0 0 1-1.84 1.63l-83.44 0.01a1.85 1.85 0 0 1-1.84-1.63z"/>
 </g>
 <path d="m245.48 230.72q0.59 96.67-0.58 149.28-0.46 20.5-5.48 51.61-2.05 12.66-4.85 19.27c-7.66 18.07-24.06 28.84-43.61 32.35q-14.6 2.62-28.34 1.44-1.33-0.11-2.58-0.57a1.71 1.73 9.9 0 1-1.13-1.62l0.18-250.47a0.58 0.56 64 0 1 0.11-0.34q0.19-0.27 0.22-0.74z" fill="#4472b0"/>
 <path d="m426.53 230.8q0.56 317.11 0.31 559.71 0 3.95-1.54 8.24-0.11 0.32 0.37 0.72l-266.58 0.83 0.24-240.68a1.8 1.8 0 0 1 1.92-1.79q6.38 0.43 12.17 0.46 7.77 0.03 15.55 0.23 25.42 0.67 50.88-2.39c22.25-2.68 43.93-8.2 63.58-18.76q10.17-5.46 17.2-11.23 23-18.88 33.7-46.38 16.59-42.64 16.78-90.01 0.3-72.74 1.42-145.49 0.1-6.32 0.16-12.76z" fill="#4472b0"/>
 <path d="m145.95 300.7a26.08 26.08 0 0 1-26.08 26.08h-82.4a26.08 26.08 0 0 1-26.08-26.08v-13.34a26.08 26.08 0 0 1 26.08-26.08h82.4a26.08 26.08 0 0 1 26.08 26.08zm-114.59 4.17q2.47 1.13 5.08 1.08 30.34-0.49 80.59-0.06 6.44 0.05 9.32-1.28 6.62-3.06 6.63-10.81c0.01-6.82-4.63-11.82-11.54-11.81q-43.38 0.05-85.94 0c-3.54-0.01-7.4 1.44-9.3 4.51q-3.42 5.56-1.42 12.23 0.9 3 3.5 4.54 1.49 0.89 3.08 1.6z" fill="#fff"/>
 <path d="m28.28 303.27q-2.6-1.54-3.5-4.54-2-6.67 1.42-12.23c1.9-3.07 5.76-4.52 9.3-4.51q42.56 0.05 85.94 0c6.91-0.01 11.55 4.99 11.54 11.81q-0.01 7.75-6.63 10.81-2.88 1.33-9.32 1.28-50.25-0.43-80.59 0.06-2.61 0.05-5.08-1.08-1.59-0.71-3.08-1.6z" fill="#141517"/>
 <path d="m615.33 428.82q-0.04-0.51-0.11-1.08-6.95-53.11-13.98-112.98-0.12-0.97-0.08-1.39a1.33 1.34 2.3 0 1 1.33-1.23h52.22a1.44 1.44 0 0 1 1.43 1.62l-26.32 219.12a0.96 0.96 0 0 1-1.64 0.56q-0.35-0.36-0.41-0.87-6.27-51.81-11.56-94.72-0.54-4.4-0.88-9.03z" fill="#141517"/>
 <rect x="12.79" y="388.67" width="131.18" height="22.48" rx="2.06" fill="#fff"/>
 <path d="m949.85 472.96-136.86 285.25a1.06 1.06 0 0 1-2.02-0.46l-0.02-285.01a1.06 1.06 0 0 1 1.06-1.06l136.88-0.24a1.06 1.06 0 0 1 0.96 1.52z" fill="#4472b0"/>
 <path d="m13.4 496.35q3.01-13.02 14.27-19.64 3.71-2.18 7.56-2.84 3.71-0.63 7.29-0.63 34.88 0.03 72.07-0.01c16.83-0.01 28.94 12.65 29.21 29.33q0.25 15.62 0.04 32.8a1.95 1.95 0 0 1-1.95 1.92h-126.91q-2.14 0-2.16-2.15-0.12-16.42 0.01-33.74 0.02-2.66 0.57-5.04zm12.73 11.41c-0.41 2.05-1.1 5.48 0.46 7.2q1.24 1.37 2.98 1.37 49.27 0 95.97 0 5.88 0 5.26-5.82c-0.82-7.66-0.33-16.34-10.91-16.4q-32.02-0.16-63.54-0.22-10.3-0.02-19.38 0.48-9.41 0.52-10.21 9.04-0.21 2.23-0.63 4.35z" fill="#fff"/>
 <path d="m26.76 503.41q0.8-8.52 10.21-9.04 9.08-0.5 19.38-0.48 31.52 0.06 63.54 0.22c10.58 0.06 10.09 8.74 10.91 16.4q0.62 5.82-5.26 5.82-46.7 0-95.97 0-1.74 0-2.98-1.37c-1.56-1.72-0.87-5.15-0.46-7.2q0.42-2.12 0.63-4.35z" fill="#141517"/>
 <path d="m1061.7 568.07 0.03 228.14q-81.35-0.01-162.5 0.29-1.17 0.01-1.81-0.32a1.92 1.92 0 0 1-0.84-2.53q53.84-111.94 107.78-224.17a3.97 3.97 0 0 1 3.64-2.25z" fill="#4472b0"/>
 <path d="m118.15 664.34q-1.44-0.17-2.78-0.44-50.16-9.82-101.08-20.28-1.52-0.32-1.52-1.86l-0.03-26.15a1.94 1.94 0 0 1 1.58-1.91l127.31-23.87a2 2 0 0 1 2.37 1.97l-0.04 18.42a2.01 2 86 0 1-1.71 1.98l-30.08 4.4a1.72 1.71 85.9 0 0-1.47 1.7l-0.01 23.39a1.07 1.07 0 0 0 0.88 1.05q6.55 1.13 13.4 2.48c1.1 0.21 2.08 0.04 3.13 0.34q3.95 1.16 8.45 1.71 3.06 0.38 6.01 1.26a1.9 1.9 0 0 1 1.36 1.81l0.08 17.6a1.22 1.27 62.9 0 1-0.28 0.81q-0.66 0.8-1.61 0.61-11.85-2.39-22.29-4.46c-0.59-0.11-1.09-0.5-1.67-0.56zm-34.26-24.68q0.06 0.12 0.2 0.14 6.48 1.09 12.34 2.02a1.39 1.4 4.6 0 0 1.61-1.38l-0.08-20.48q-0.01-2.07-2.06-1.78l-66.72 9.45a1.48 1.47 88.5 0 0-1.27 1.34q-0.12 1.54 1.54 1.82 19.76 3.24 39.51 6.48c1.23 0.21 2.1 0.04 3.26 0.33q5.77 1.45 11.44 1.9 0.16 0.02 0.23 0.16z" fill="#fff"/>
 <g fill="#141517">
  <path d="m83.66 639.5q-5.67-0.45-11.44-1.9c-1.16-0.29-2.03-0.12-3.26-0.33q-19.75-3.24-39.51-6.48-1.66-0.28-1.54-1.82a1.48 1.47 88.5 0 1 1.27-1.34l66.72-9.45q2.05-0.29 2.06 1.78l0.08 20.48a1.39 1.4 4.6 0 1-1.61 1.38q-5.86-0.93-12.34-2.02-0.14-0.02-0.2-0.14-0.07-0.14-0.23-0.16z"/>
  <path d="m1227 689.27a1.37 1.35 61.8 0 0-0.77-0.24l-15.92 0.14a2.08 2.07 89.9 0 1-2.09-2.09l0.07-14.54a1.93 1.93 0 0 1 1.92-1.92l58.1-0.32a1.76 1.77 0 0 1 1.77 1.78l-0.07 15.57a1.8 1.79 0.5 0 1-1.82 1.78l-15.96-0.2a1.92 1.92 0 0 0-1.95 1.91q-0.14 69.9-0.33 135.02 0 1.97-0.17 3.76a1.8 1.79 2.9 0 1-1.81 1.63l-18.18-0.22q-1.77-0.02-1.77-1.8-0.06-68.66-0.18-138.69 0-1-0.84-1.57z"/>
  <rect x="1081.4" y="670.66" width="22.18" height="160.66" rx="1.34"/>
  <path d="m1178.3 805.28-2.06-133.45q-0.03-1.4 1.37-1.36l16.31 0.44a1.34 1.34 0 0 1 1.3 1.34l0.01 158.51q0 0.55-0.55 0.55h-27.54q-0.84 0-0.97-0.83-6.1-39.26-12.25-78.48-4.27-27.2-9.93-57.12a0.36 0.35 81.4 0 0-0.39-0.29q-0.44 0.04-0.43 0.27 1.83 71.85 1.97 135.76a0.69 0.69 0 0 1-0.69 0.69h-17a0.77 0.78 0 0 1-0.77-0.78l-0.07-157.79q0-1.84 1.84-1.84l25.47 0.01a2.03 2.02 85.5 0 1 2 1.71q2.02 12.75 3.9 25.14 8.1 53.11 17.9 107.57 0.64 3.55 0.58-0.05z"/>
 </g>
 <path d="m70.5 726.56q0.24 0.17 0.43 0.4 3.11 3.74 4.36 8.19a0.85 0.87 84.4 0 0 0.78 0.63q1.16 0.08 1.35-1.04 1.5-9.14 9.58-12.56 2.03-0.86 4.51-1.04 2.49-0.19 4.73-0.25 16.96-0.49 38.73-0.45 4.12 0 7.41 0.33a1.76 1.77 2.8 0 1 1.6 1.77l-0.01 17.92q0 2.71-2.71 2.72-25.04 0.08-49.09 0.14c-5.43 0.01-7.62 3.26-8.09 8.29q-0.4 4.25-0.46 7.71c-0.06 3.5 3.24 3.96 5.95 3.94q26.91-0.17 52.75-0.25 1.79-0.01 1.78 1.78l-0.12 17.69a1.74 1.74 0 0 1-1.74 1.73h-127.25a1.7 1.7 0 0 1-1.69-1.53q-2.25-23.83 2.04-47.23 1.36-7.44 7.98-11.57 1.76-1.1 6.87-2.38 2.35-0.59 11.52-0.41 9.77 0.2 18.01 0.25c2.19 0.02 4.1 0.98 6.22 1.58q1.77 0.5 3.84 2.98 0.31 0.38 0.72 0.66zm-43 37.88 41.84 0.08a1.83 1.83 0 0 0 1.83-1.83l0.02-7.24a12.94 13.13 0.1 0 0-12.92-13.15l-19.62-0.04a12.94 13.13 0.1 0 0-12.96 13.11l-0.02 7.24a1.83 1.83 0 0 0 1.83 1.83z" fill="#fff"/>
 <path d="m27.5 764.44a1.83 1.83 0 0 1-1.83-1.83l0.02-7.24a12.94 13.13 0.1 0 1 12.96-13.11l19.62 0.04a12.94 13.13 0.1 0 1 12.92 13.15l-0.02 7.24a1.83 1.83 0 0 1-1.83 1.83z" fill="#141517"/>
 <rect x="1268.6" y="807.86" width="20.32" height="23.64" rx="1.47" fill="#141517"/>
</svg>
