<svg version="1.1" viewBox="0 0 1022.9 546.3" xmlns="http://www.w3.org/2000/svg">
 <g transform="translate(112.68 -211.02)">
  <path d="m580.29 595.33h-294.73c-7.15 0-12.463 4.7886-13.546 11.152l-15.743 90.064c-1.5416 9.3148 5.0181 15.317 13.218 15.317h290.36l20.433-116.57" stroke-width="3.2798"/>
  <path d="m300.19 684.28c-1.1807 0-1.7711-0.7872-1.5743-1.8695l7.7732-44.409a2.6239 2.6239 0 0 1 1.476-1.8367c5.6741-2.6239 11.939-4.0998 18.138-4.0998 2.6238 0 5.2477 0.2624 8.134 0.8528 1.1151 0.1968 1.6399 0.9839 1.4103 1.9679l-1.7711 9.5771c-0.1312 1.0824-0.9184 1.5743-1.9679 1.4759-1.7055-0.328-3.6078-0.4919-5.7069-0.4919-2.5583 0-4.723 0.4919-6.3957 1.1807l-6.3301 36.078c-0.1968 0.9839-0.7872 1.5743-1.7711 1.5743h-11.381m59.234-11.479c2.2303 0 4.9854-0.32798 6.7565-0.75436l1.3775-8.5275a31.486 31.486 0 0 0-6.2973-0.656c-4.7885 0-7.3468 1.5415-7.8716 4.4606-0.6559 3.7062 1.7055 5.4773 6.0349 5.4773zm-1.8695 12.267c-13.775 0-20.663-7.8716-18.695-18.498 1.64-9.5115 9.6756-13.677 22.205-13.677 2.9518 0 5.9037 0.328 8.3635 0.7872l0.1968-1.64c0.656-5.0509-0.4919-7.4124-6.6908-7.4124-4.3294 0-8.7572 0.8856-11.709 2.2959-1.0495 0.4592-1.8367 0.2624-2.2303-0.82l-3.0502-8.0684c-0.328-0.8855-0.328-1.5415 0.328-1.9679 4.6573-2.8206 12.037-4.5918 20.007-4.5918 13.316 0 20.171 8.8556 17.514 23.484l-4.3949 24.763c-0.1968 0.8856-0.5904 1.5744-1.476 1.8695a63.498 63.498 0 0 1-20.401 3.4111zm58.053-13.021c2.3943 0 4.9197-0.42638 6.4941-1.0824l4.4278-25.255c-1.5744-1.0823-4.0343-1.6399-6.4941-1.6399-4.6902 0-7.7405 2.9519-8.8556 8.8556l-1.8039 10.496c-1.1808 6.166 0.9839 8.5931 6.2317 8.5931zm-1.312 12.988c-14.267 0-22.106-9.6756-19.843-22.697l2.0663-11.25c2.0663-11.611 10.988-19.548 22.631-19.548 3.6078 0 7.0845 0.7872 9.5115 2.0663l3.0503-17.285c0.1968-0.984 1.1479-1.5415 2.1319-1.5415h11.02c1.1807 0 1.7711 0.7543 1.5743 1.8367l-11.119 63.006c-0.098 0.8856-0.5903 1.476-1.4759 1.7711-5.5757 2.2303-13.119 3.6079-19.613 3.6079zm36.308-0.5576c-1.0824 0-1.6399-0.82-1.476-1.9023l8.298-47.459c0.098-0.984 0.7872-1.4432 1.7712-1.4432h11.381c1.2135 0 1.8039 0.656 1.6399 1.7711l-8.3636 47.459c-0.1968 0.9839-0.7871 1.6399-1.8695 1.6399h-11.414m10.168-58.709c-1.0496 0-1.6399-0.7543-1.4104-1.8367l1.5088-8.8556c0.098-0.9839 0.7871-1.4759 1.7711-1.4759h11.479c1.148 0 1.7383 0.656 1.5415 1.7383l-1.5743 8.8556c-0.2296 0.9839-0.8199 1.5743-1.9023 1.5743h-11.479m40.67 46.41c5.1493 0 8.298-2.7223 9.0851-7.314l2.1975-12.529c0.7872-4.4278-1.2463-8.0356-5.9693-8.0356-4.7229 0-8.0356 2.9519-8.8555 7.3468l-2.2303 12.595c-0.8856 4.7886 1.1807 7.8716 5.7725 7.8716zm-1.6399 12.791c-13.119 0-21.057-9.7412-18.826-22.172l2.0663-12.135c2.1975-11.873 11.807-19.22 25.452-19.22 13.447 0 21.319 9.9052 19.22 21.844l-2.2959 12.299c-2.2303 12.332-11.151 19.351-25.583 19.351z" fill="#fff" stroke-width="3.2798"/>
  <path d="m668.52 521.73c-1.7055 0-3.7718 0.328-6.2317 1.0496l-65.039 17.941c-4.8542 1.3775-7.9372 5.6413-8.626 10.496l-2.6239 13.611c-0.9839 7.2156 3.2799 13.119 10.561 13.119h10.955l-27.092 154.22c-1.3775 10.102 5.6741 18.302 15.809 18.302h24.468c10.364 0 20.007-8.3636 21.45-18.695l34.438-198.1s2.4927-11.939-8.0684-11.939m181.05 115.09c-2.2959 33.225-31.355 60.251-64.613 60.251-33.356 0-58.578-27.026-56.249-60.251 2.3615-33.258 31.388-60.284 64.678-60.284s58.545 27.026 56.216 60.284zm-52.018-120.53c-40.08 0-76.945 19.515-101.02 49.526l-21.089 120.27c15.94 41.982 56.085 71.238 105.28 71.238 66.712 0 124.57-53.986 129.23-120.53 4.6902-66.548-45.557-120.5-112.33-120.5z" fill="#00c782" stroke-width="3.2798"/>
  <g transform="translate(4385.6 1665.2)">
   <path d="m-4498.3-1454.2h846.04l-49.498 280.71h-796.55z" fill="#ed1853"/>
   <g fill="#fff" stroke-width=".26458">
    <g transform="skewX(-10)" aria-label="70's Hits">
     <path d="m-4400.1-1300.2h58.594v8.9258l-40.318 82.639-14.39-6.9828 33.517-68.613h-37.403z" style="font-feature-settings:normal;font-variant-caps:normal;font-variant-ligatures:normal;font-variant-numeric:normal"/>
     <path d="m-4303.3-1302.5q9.7759 0 16.819 4.7968 7.1042 4.7969 10.93 14.694 3.886 9.8366 3.886 27.445 0 17.791-3.9467 27.688-3.8861 9.8973-10.504 14.573-6.6184 4.6147-16.698 4.6147t-16.941-4.6754-10.747-14.208q-3.886-9.5329-3.886-27.142 0-24.591 7.5899-35.642 8.44-12.144 23.498-12.144zm0.4251 16.151q-4.3111 0-7.6507 2.7931-3.3395 2.7323-5.1004 9.4722-1.7609 6.7398-1.7609 19.734 0 16.941 4.0075 23.438 4.0682 6.4362 10.504 6.4362 6.1934 0 9.8365-6.1326 4.4325-7.4078 4.4325-24.774 0-17.609-4.0074-24.288-3.9468-6.6791-10.262-6.6791z" style="font-feature-settings:normal;font-variant-caps:normal;font-variant-ligatures:normal;font-variant-numeric:normal"/>
     <path d="m-4249.8-1271.9h-9.4723l-3.3395-30.603h16.151z" style="font-feature-settings:normal;font-variant-caps:normal;font-variant-ligatures:normal;font-variant-numeric:normal"/>
     <path d="m-4191.9-1267.7-10.262 10.262q-6.2541-6.1934-11.355-6.1934-2.7931 0-4.3718 1.2144-1.5787 1.1537-1.5787 2.9145 0 1.3358 0.9715 2.4895 1.0323 1.093 4.979 3.036l6.072 3.036q9.5936 4.7361 13.176 9.6543 3.5824 4.9183 3.5824 11.537 0 8.8043-6.4969 14.694-6.4363 5.8898-17.305 5.8898-14.451 0-23.073-11.294l10.201-11.112q2.9145 3.4003 6.8006 5.5255 3.9467 2.0645 6.9827 2.0645 3.2789 0 5.2826-1.5787t2.0037-3.6432q0-3.8253-7.2256-7.4685l-5.5861-2.7931q-16.03-8.0757-16.03-20.22 0-7.8328 6.0113-13.358 6.0719-5.5862 15.483-5.5862 6.4363 0 12.083 2.8538 5.7076 2.7931 9.6543 8.0757z" style="font-feature-settings:normal;font-variant-caps:normal;font-variant-ligatures:normal;font-variant-numeric:normal"/>
     <path d="m-4141.2-1300.2h17.244v33.699h29.874v-33.699h17.184v89.318h-17.184v-39.164h-29.874v39.164h-17.244z" style="font-feature-settings:normal;font-variant-caps:normal;font-variant-ligatures:normal;font-variant-numeric:normal"/>
     <path d="m-4051.9-1304.2q4.3718 0 7.4685 3.1574 3.1574 3.1574 3.1574 7.6506 0 4.4325-3.0967 7.5899-3.0967 3.0967-7.4078 3.0967-4.4325 0-7.5899-3.1574-3.0967-3.2181-3.0967-7.7721 0-4.3718 3.0967-7.4685 3.0967-3.0966 7.4685-3.0966zm-8.3186 27.202h16.637v66.063h-16.637z" style="font-feature-settings:normal;font-variant-caps:normal;font-variant-ligatures:normal;font-variant-numeric:normal"/>
     <path d="m-4026.6-1301.3h16.516v24.348h9.8366v14.269h-9.8366v51.794h-16.516v-51.794h-8.5007v-14.269h8.5007z" style="font-feature-settings:normal;font-variant-caps:normal;font-variant-ligatures:normal;font-variant-numeric:normal"/>
     <path d="m-3950.7-1267.7-10.262 10.262q-6.2541-6.1934-11.354-6.1934-2.7931 0-4.3718 1.2144-1.5787 1.1537-1.5787 2.9145 0 1.3358 0.9715 2.4895 1.0322 1.093 4.979 3.036l6.0719 3.036q9.5937 4.7361 13.176 9.6543 3.5825 4.9183 3.5825 11.537 0 8.8043-6.497 14.694-6.4363 5.8898-17.305 5.8898-14.451 0-23.073-11.294l10.201-11.112q2.9145 3.4003 6.8005 5.5255 3.9468 2.0645 6.9828 2.0645 3.2788 0 5.2826-1.5787 2.0037-1.5787 2.0037-3.6432 0-3.8253-7.2256-7.4685l-5.5862-2.7931q-16.03-8.0757-16.03-20.22 0-7.8328 6.0112-13.358 6.0719-5.5862 15.483-5.5862 6.4363 0 12.083 2.8538 5.7076 2.7931 9.6544 8.0757z" style="font-feature-settings:normal;font-variant-caps:normal;font-variant-ligatures:normal;font-variant-numeric:normal"/>
    </g>
    <g transform="skewX(-10)" aria-label="60's &amp;">
     <path d="m-4251.2-1419 14.451 7.2256-15.605 30.36q11.355 0 19.309 8.1364t7.9542 20.22q0 11.658-8.1971 19.795-8.1364 8.0756-19.673 8.0756-12.083 0-20.159-8.3792-8.015-8.44-8.015-19.309 0-4.1289 1.2144-8.3186 1.2751-4.1896 5.7684-12.872zm-2.1252 53.676q-4.7361 0-7.9542 3.461-3.2181 3.4003-3.2181 8.5615 0 5.1611 3.3395 8.6828 3.4003 3.5218 7.8935 3.5218 4.7362 0 8.1364-3.4611 3.4003-3.461 3.4003-8.7435 0-5.1612-3.3395-8.5615-3.2789-3.461-8.2579-3.461z" style="font-feature-settings:normal;font-variant-caps:normal;font-variant-ligatures:normal;font-variant-numeric:normal"/>
     <path d="m-4183-1419q9.7758 0 16.819 4.7968 7.1041 4.7968 10.93 14.694 3.886 9.8365 3.886 27.445 0 17.791-3.9468 27.688-3.886 9.8973-10.504 14.573-6.6184 4.6146-16.698 4.6146-10.079 0-16.941-4.6754t-10.747-14.208-3.886-27.142q0-24.591 7.5899-35.642 8.44-12.144 23.498-12.144zm0.425 16.151q-4.3111 0-7.6506 2.7931-3.3396 2.7324-5.1004 9.4722-1.7609 6.7399-1.7609 19.734 0 16.941 4.0075 23.438 4.0682 6.4363 10.504 6.4363 6.1934 0 9.8366-6.1327 4.4325-7.4077 4.4325-24.774 0-17.609-4.0075-24.288-3.9468-6.6792-10.262-6.6792z" style="font-feature-settings:normal;font-variant-caps:normal;font-variant-ligatures:normal;font-variant-numeric:normal"/>
     <path d="m-4129.4-1388.4h-9.4722l-3.3396-30.602h16.151z" style="font-feature-settings:normal;font-variant-caps:normal;font-variant-ligatures:normal;font-variant-numeric:normal"/>
     <path d="m-4071.5-1384.3-10.262 10.262q-6.2541-6.1933-11.354-6.1933-2.7931 0-4.3718 1.2143-1.5787 1.1537-1.5787 2.9146 0 1.3358 0.9715 2.4895 1.0322 1.0929 4.979 3.0359l6.0719 3.036q9.5937 4.7361 13.176 9.6544 3.5825 4.9183 3.5825 11.537 0 8.8043-6.497 14.694-6.4362 5.8898-17.305 5.8898-14.451 0-23.073-11.294l10.201-11.112q2.9145 3.4003 6.8005 5.5255 3.9468 2.0644 6.9828 2.0644 3.2788 0 5.2826-1.5787 2.0037-1.5787 2.0037-3.6431 0-3.8254-7.2256-7.4685l-5.5862-2.7931q-16.03-8.0757-16.03-20.22 0-7.8328 6.0112-13.358 6.0719-5.5862 15.483-5.5862 6.4363 0 12.083 2.8538 5.7076 2.7931 9.6544 8.0757z" style="font-feature-settings:normal;font-variant-caps:normal;font-variant-ligatures:normal;font-variant-numeric:normal"/>
     <path d="m-3964.8-1362.5 10.14 11.597-4.6146 4.1896-4.554 4.129 14.33 15.18h-20.584l-5.8898-6.0719q-14.087 8.3185-26.17 8.3185-10.262 0-16.637-6.0112-6.3148-6.0112-6.3148-15.423 0-7.1042 3.5825-13.419 3.5824-6.3148 12.265-13.055-8.5614-11.597-8.5614-20.523 0-6.6184 5.7076-13.055t16.091-6.4363q10.504 0 16.091 6.3756 5.6469 6.3755 5.6469 12.872 0 5.1004-2.611 9.7758-2.5502 4.6754-11.84 13.844 10.869 12.812 14.026 15.969 1.9431-1.4572 9.8973-8.2578zm-32.303-19.673q6.7398-5.7683 6.7398-10.201 0-2.3074-1.518-3.7646-1.5179-1.4573-4.0074-1.4573-2.3074 0-3.9468 1.6394-1.5787 1.6394-1.5787 3.8253 0 4.3718 4.3111 9.958zm10.079 36.917q-4.6754-4.6147-13.176-15.301-9.0472 7.4685-9.0472 13.055 0 2.6109 2.4288 4.7968 2.4895 2.1859 6.2541 2.1859 5.404 0 13.54-4.7361z" style="font-feature-settings:normal;font-variant-caps:normal;font-variant-ligatures:normal;font-variant-numeric:normal"/>
    </g>
   </g>
  </g>
 </g>
</svg>
