<svg xmlns="http://www.w3.org/2000/svg" height="600" width="600" version="1.1" viewBox="0 0 158.75 158.74999">
 <g stroke-width="1.1195" transform="translate(8.5658 -46.202)">
  <path d="m146.49 101.84-3.2466 2.0151c-0.11197-0.33585-0.2239-0.55975-0.2239-0.8956l3.2466-1.7913c-10.3-31.906-40.2-54.968-75.461-54.968-43.886 0-79.375 35.489-79.375 79.375 0 43.774 35.489 79.375 79.375 79.375 43.774 0 79.375-35.489 79.375-79.375-0.11193-8.2846-1.3434-16.233-3.6945-23.734" fill="#bb0c20"/>
  <g fill="#fff">
   <path d="m84.691 140.35 61.798-38.512c-0.11196-0.22378-0.11196-0.44783-0.22389-0.67172l-63.925 35.153zm-72.21 12.539c-2.2391 0-3.9184-1.9032-3.9184-4.3662 0-2.351 1.5673-4.2543 3.9184-4.2543 1.5674 0 2.5749 0.78368 3.5825 1.9032l3.3586-2.5749c-1.4554-2.0151-3.5825-3.3586-6.8292-3.3586-4.9259 0-8.5085 3.6944-8.5085 8.3965 0 4.814 3.6945 8.3965 8.3965 8.3965 3.5825 0 5.5977-1.5674 7.165-3.6945l-3.3586-2.463c-1.1195 1.2315-2.1271 2.0152-3.8064 2.0152m12.315-12.427h-4.4781v16.121h12.315v-3.9184h-7.8367zm15.562 9.74 1.7913-4.5901 1.7913 4.5901zm-0.22389-9.8519-6.8292 16.345h4.702l1.1195-2.9108h6.2694l1.1195 2.9108h4.814l-6.9411-16.345z"/>
   <path d="m58.942 146.51c-2.2391-0.55977-2.7988-0.78368-2.7988-1.5674 0-0.55977 0.55977-1.0076 1.5673-1.0076 1.4554 0 3.0227 0.55976 4.4781 1.5674l2.2391-3.1347c-1.7913-1.4554-3.9184-2.1271-6.7172-2.1271-3.9184 0-6.2694 2.1271-6.2694 5.1499 0 3.3586 2.6869 4.2542 6.1574 5.0379 2.2391 0.55976 2.7988 0.89562 2.7988 1.5674 0 0.67172-0.67172 1.1195-1.9032 1.1195-1.9032 0-3.5825-0.67172-5.2618-1.9032l-2.463 3.0227c2.0152 1.7913 4.702 2.6869 7.6128 2.6869 3.9184 0 6.4933-2.0152 6.4933-5.2618 0-3.1347-2.2391-4.3662-5.9335-5.1499m14.106 0c-2.2391-0.55977-2.7988-0.78368-2.7988-1.5674 0-0.55977 0.55977-1.0076 1.5673-1.0076 1.4554 0 3.0227 0.55976 4.5901 1.5674l2.2391-3.1347c-1.7913-1.4554-3.9184-2.1271-6.6053-2.1271-3.9184 0-6.2694 2.1271-6.2694 5.1499 0 3.3586 2.6869 4.2542 6.1574 5.0379 2.2391 0.55976 2.7988 0.89562 2.7988 1.5674 0 0.67172-0.67172 1.1195-1.9032 1.1195-1.9032 0-3.5825-0.67172-5.2618-1.9032l-2.463 3.0227c2.0152 1.7913 4.702 2.6869 7.6128 2.6869 3.9184 0 6.4933-2.0152 6.4933-5.2618-0.11195-3.1347-2.463-4.3662-6.1574-5.1499"/>
   <path d="m80.213 140.47h4.4781v16.233h-4.4781z"/>
   <path d="m98.798 148.64c0 0.55977-0.11195 1.1195-0.22391 1.5674l-2.2391-2.0152-2.2391 2.5749 2.2391 1.9032c-0.44781 0.2239-1.0076 0.33586-1.5673 0.33586-2.463 0-4.1423-2.0152-4.1423-4.3662s1.6793-4.3662 4.1423-4.3662c2.351-0.11196 4.0303 1.9032 4.0303 4.3662zm4.5901-0.11195c0-4.702-3.6945-8.3965-8.7324-8.3965s-8.7324 3.8064-8.7324 8.3965c0 4.702 3.6945 8.3965 8.7324 8.3965 1.9032 0 3.5825-0.55977 4.926-1.4554l1.7913 1.5674 2.2391-2.5749-1.6793-1.4554c0.89563-1.2315 1.4554-2.7988 1.4554-4.4781m11.419 1.0076c0 2.2391-1.2315 3.3586-3.0228 3.3586-1.7912 0-3.0227-1.1195-3.0227-3.4706v-8.9563h-4.4781v9.0682c0 5.0379 2.9108 7.3889 7.5009 7.3889s7.6128-2.351 7.6128-7.5009v-8.9563h-4.4781v9.0682z"/>
   <path d="m124.77 152.78v-2.5749h7.8367v-3.4705h-7.8367v-2.463h8.6204v-3.8064h-12.987v16.121h13.099v-3.8064zm-117.21-27.99h4.4781c2.2391 0 3.5825 1.0076 3.5825 2.6869s-1.4554 2.7988-3.6945 2.7988h-4.3665zm0 7.8368h3.9184l4.3662 5.9335 0.11197 0.11208h3.0227l-4.814-6.4933c2.463-0.67171 3.9184-2.351 3.9184-4.702 0-1.3434-0.44781-2.463-1.3434-3.2466-1.1195-1.1195-2.6869-1.6793-4.702-1.6793h-7.0535v16.233h2.463v-6.1574zm18.472-0.33586 3.0227-6.6053 3.0227 6.6053zm11.307 6.3813-7.277-16.009-0.11196-0.11208h-2.0152l-7.0531 15.673-0.22389 0.44782h2.5749l1.7913-4.0303h7.9487l1.7913 4.0303zm4.3662-13.882h3.2466c3.5825 0 6.0455 2.351 6.0455 5.8216 0 3.3586-2.463 5.7096-6.0455 5.7096h-3.2466zm11.867 5.8216c0-4.702-3.5825-8.0606-8.6204-8.0606h-5.71v16.233h5.7096c5.0379-0.11208 8.6204-3.4706 8.6204-8.1726m3.5825-8.1726h2.463v16.233h-2.463zm19.928 8.1726c0 3.4706-2.463 6.0455-5.7096 6.0455s-5.8216-2.6869-5.8216-6.0455c0-3.4705 2.463-6.0455 5.7096-6.0455s5.8216 2.5749 5.8216 6.0455zm-5.7096-8.3965c-4.5901 0-8.2846 3.6944-8.2846 8.3965 0 4.702 3.5825 8.2846 8.1726 8.2846s8.2846-3.6944 8.2846-8.3965c0-4.702-3.5825-8.2846-8.1726-8.2846"/>
  </g>
 </g>
</svg>
