<svg version="1.1" viewBox="0 0 638 293" xmlns="http://www.w3.org/2000/svg">
 <g transform="translate(-146,-163)" fill="none" stroke-width="2">
  <path d="m409.7 410.99 30.55-116.24a1.85 1.84-14.9 0 1 0.52-0.89c8.09-7.66 16.18-19.37 15.11-31.1-1.33-14.59-4.46-28.59-11.37-41.39q-0.25-0.46 0.17-0.78c8.61-6.56 9.35-18.22 2.05-25.81-7.45-7.76-19.39-6.68-25.94 1.47q-0.3 0.38-0.75 0.21-32.02-11.92-64.11-0.16a1.1 1.09-29.3 0 1-1.23-0.34c-9.71-12.04-28.83-6.91-30.66 8.61q-1.12 9.46 6.91 16.01 0.39 0.32 0.15 0.75-6.85 12.69-9.37 26.9a0.52 0.5-5.3 0 1-0.34 0.39q-35.56 12.36-70.66 25.88c-10.01 3.85-18.16 7.82-27.22 12.77-32.28 17.65-38.91 49.66-43.57 82.98q-3.65 26.03-7.51 52.12a0.33 0.32-85.5 0 0 0.32 0.38h251.01a0.32 0.32 0 0 0 0.27-0.48c-2.7-4.65-9.1-8.61-13.97-10.57q-0.49-0.2-0.36-0.71" stroke="#7d5800" vector-effect="non-scaling-stroke"/>
  <path d="m758.4 285.57a32.98 31.84-3.6 0 0-34.914-29.706 32.98 31.84-3.6 0 0-30.916 33.848 32.98 31.84-3.6 0 0 34.914 29.706 32.98 31.84-3.6 0 0 30.916-33.848" stroke="#7d5800" vector-effect="non-scaling-stroke"/>
  <path d="m553.95 307.48a0.37 0.37 0 0 1 0.34-0.23h22.96a0.37 0.37 0 0 1 0.34 0.23l4.3 10.54a0.37 0.37 0 0 0 0.34 0.23h17.38a0.37 0.37 0 0 0 0.34-0.51l-25.56-60.76a0.37 0.37 0 0 0-0.35-0.23l-15.82-0.01a0.37 0.37 0 0 0-0.35 0.23l-25.76 60.77a0.37 0.37 0 0 0 0.34 0.51h17.02a0.37 0.37 0 0 0 0.34-0.23l4.14-10.54" stroke="#7d5800" vector-effect="non-scaling-stroke"/>
  <path d="m492 299.75h6.54a0.59 0.57-16 0 1 0.49 0.26l11.8 17.84a0.88 0.88 0 0 0 0.74 0.4h18.68a0.19 0.19 0 0 0 0.15-0.3l-14.3-20.77a0.25 0.25 0 0 1 0.1-0.37q14.74-6.89 11.67-23.54c-2.35-12.73-13.7-16.11-24.88-16.25q-9.06-0.11-28.02 0.02-0.47 0-0.47 0.48v60.23q0 0.5 0.5 0.5h16q0.5 0 0.5-0.5v-17.5q0-0.5 0.5-0.5" stroke="#7d5800" vector-effect="non-scaling-stroke"/>
  <path d="m603.89 257.42 0.22 60.5a0.32 0.32 0 0 0 0.32 0.32l26.03-0.09a31.39 29.37-0.2 0 0 31.28-29.48v-2.4a31.39 29.37-0.2 0 0-31.5-29.26l-26.03 0.09a0.32 0.32 0 0 0-0.32 0.32" stroke="#7d5800" vector-effect="non-scaling-stroke"/>
  <path d="m685.52 257.37a0.33 0.33 0 0 0-0.33-0.33h-16.2a0.33 0.33 0 0 0-0.33 0.33v60.54a0.33 0.33 0 0 0 0.33 0.33h16.2a0.33 0.33 0 0 0 0.33-0.33v-60.54" stroke="#7d5800" vector-effect="non-scaling-stroke"/>
  <path d="m517.2 355.62c4.81-3.28 7.76-5.03 8.44-11.39 1.33-12.32-8.44-17.78-19.15-17.78q-15.82-0.01-31.76 0.09-0.48 0-0.48 0.48v60.21q0 0.49 0.49 0.5 16.03 0.09 32.05-0.01c8.05-0.04 17.1-2.59 20.39-10.51 3.96-9.52-0.26-17.72-9.91-21.05q-0.57-0.2-0.07-0.54" stroke="#7d5800" vector-effect="non-scaling-stroke"/>
  <path d="m553.85 341.05a0.3 0.3 0 0 1 0.3-0.3h31.67a0.3 0.3 0 0 0 0.3-0.3v-13.65a0.3 0.3 0 0 0-0.3-0.3h-48.21a0.3 0.3 0 0 0-0.3 0.3v60.4a0.3 0.3 0 0 0 0.3 0.3h48.79a0.3 0.3 0 0 0 0.3-0.3l0.01-13.65a0.3 0.3 0 0 0-0.3-0.3h-32.27a0.3 0.3 0 0 1-0.3-0.3v-9.15a0.3 0.3 0 0 1 0.3-0.3h28.67a0.3 0.3 0 0 0 0.3-0.3l0.01-12.9a0.3 0.3 0 0 0-0.3-0.3h-28.69a0.3 0.3 0 0 1-0.3-0.3l0.02-8.65" stroke="#7d5800" vector-effect="non-scaling-stroke"/>
  <path d="m614 369.26 6.22-0.02a1.15 1.15 0 0 1 0.96 0.52l11.64 17.64q0.24 0.35 0.66 0.35h18.52a0.31 0.31 0 0 0 0.26-0.49l-13.97-20.52a0.47 0.47 0 0 1 0.21-0.7c9.53-3.98 13.41-12.75 11.77-22.68-1.9-11.52-12.03-16.69-23.03-16.85q-7.31-0.1-30.27 0.03-0.47 0-0.47 0.48v60.23q0 0.5 0.5 0.5h16q0.5 0 0.5-0.5v-17.5q0-0.49 0.5-0.49" stroke="#7d5800" vector-effect="non-scaling-stroke"/>
  <path d="m701.26 357.83a0.31 0.31 0 0 1-0.55 0.19l-24.46-31.4a0.31 0.31 0 0 0-0.24-0.12h-15.31a0.31 0.31 0 0 0-0.31 0.31v60.63a0.31 0.31 0 0 0 0.31 0.31h16.07a0.31 0.31 0 0 0 0.31-0.31v-32.31a0.31 0.31 0 0 1 0.55-0.19l25.44 32.69a0.31 0.31 0 0 0 0.24 0.12h51.88a0.31 0.31 0 0 0 0.31-0.31v-60.63a0.31 0.31 0 0 0-0.31-0.31h-53.62a0.31 0.31 0 0 0-0.31 0.31v31.02" stroke="#7d5800" vector-effect="non-scaling-stroke"/>
  <path d="m546.99 397.66a1.48 1.48 0 0 0-1.5332-1.4248l-1.0593 0.0389a1.48 1.48 0 0 0-1.4248 1.5332l0.0293 0.7995a1.48 1.48 0 0 0 1.5332 1.4248l1.0593-0.0389a1.48 1.48 0 0 0 1.4248-1.5332l-0.0293-0.7995" stroke="#7d5800" vector-effect="non-scaling-stroke"/>
  <path d="m700.52 397.76a1.43 1.43 0 0 0-1.374-1.4839l-1.1592-0.0445a1.43 1.43 0 0 0-1.4838 1.3741l-0.0338 0.8793a1.43 1.43 0 0 0 1.374 1.4839l1.1592 0.0445a1.43 1.43 0 0 0 1.4838-1.3741l0.0338-0.8793" stroke="#7d5800" vector-effect="non-scaling-stroke"/>
  <path d="m478.01 403.74q0-2.2 0.9-0.19l5.7 12.76a1.99 1.99 0 0 0 3.63 0l5.34-12.04q1.17-2.64 1.17 0.25v18.48a0.25 0.25 0 0 0 0.25 0.25h3.25a0.25 0.25 0 0 0 0.25-0.25v-25.25q0-0.5-0.5-0.5l-4.69-0.01q-0.42 0-0.59 0.39l-5.91 13.63a0.45 0.45 0 0 1-0.82 0.01l-6.03-13.55a0.82 0.81 77.5 0 0-0.74-0.48l-4.47 0.01q-0.5 0-0.5 0.5v25.25a0.25 0.25 0 0 0 0.25 0.25h3.25a0.25 0.25 0 0 0 0.25-0.25l0.01-19.26" stroke="#7d5800" vector-effect="non-scaling-stroke"/>
  <path d="m631.48 397.24h-2.7a0.27 0.27 0 0 0-0.27 0.27l-0.01 1.68a6.11 0.92-89.9 0 0 0.91 6.11h1.4a6.11 0.92-89.9 0 0 0.93-6.11l0.01-1.68a0.27 0.27 0 0 0-0.27-0.27" stroke="#7d5800" vector-effect="non-scaling-stroke"/>
  <path d="m666.5 403.74v-6.24q0-0.24-0.25-0.24l-3.25-0.02a0.26 0.25 90 0 0-0.25 0.26v25.25q0 0.51 0.5 0.51l2.49-0.01q0.47 0 0.49-0.47 0.01-0.14 0.02-0.3 0.05-0.69 0.64-0.33c3.78 2.27 11.83 1.95 11.86-4.06q0.02-4.73-0.01-9.47c-0.06-6.47-7.53-6.85-11.77-4.6q-0.47 0.26-0.47-0.28" stroke="#7d5800" vector-effect="non-scaling-stroke"/>
  <path d="m747.47 406.74q0.09 5.81 0.02 11.62c-0.06 5.08 4.56 5.85 8.5 5.33q0.66-0.09 0.71-0.75l0.12-1.43q0.05-0.62-0.57-0.55-2.49 0.3-4.53-1.05a1.05 1.04 16.8 0 1-0.47-0.87v-12.54q0-0.49 0.5-0.49l4.52-0.01a0.51 0.51 0 0 0 0.5-0.52l-0.03-1.74q-0.01-0.5-0.5-0.5l-4.49 0.01q-0.51 0-0.51-0.5l0.02-3.25q0-0.25-0.26-0.25h-3.25q-0.25 0-0.25 0.25v3.28q0 0.53-0.53 0.5l-1.29-0.08q-0.66-0.04-0.67 0.62l-0.02 1.94q0 0.52 0.52 0.51l1.47-0.02q0.49 0 0.49 0.49" stroke="#7d5800" vector-effect="non-scaling-stroke"/>
  <path d="m527.21 407c2.14-1.8 8.71-2.45 7.74 2.04q-0.04 0.19 0.16 0.19l3.08 0.03q0.22 0 0.26-0.22c0.27-1.53 0.22-2.86-1.01-4-3.85-3.58-10.22-3.45-13.63 0.8a1.46 1.45-25.8 0 0-0.32 0.91l0.01 3.98q0 0.44 0.32 0.75c2.26 2.22 6.4 3 9.41 3.75q2.34 0.58 2.12 2.6c-0.48 4.35-9.27 3.67-8.33-0.53a0.26 0.25 6.3 0 0-0.25-0.31l-2.83 0.02q-0.33 0-0.39 0.32-0.7 3.45 2.33 5.06 6.96 3.68 12.31-1.9 0.31-0.33 0.31-0.78v-4.39q0-0.42-0.29-0.72c-2.44-2.48-6.45-3.02-9.64-4q-2.19-0.68-1.81-2.81 0.08-0.48 0.45-0.79" stroke="#7d5800" vector-effect="non-scaling-stroke"/>
  <path d="m646.98 417.08 0.04 1.34q0.01 0.6-0.47 0.95-3.64 2.69-7.35 0.23-0.46-0.3-0.46-0.85l0.01-1.24q0-0.5-0.49-0.5l-2.73-0.02a0.55 0.55 0 0 0-0.55 0.49c-0.69 6.65 8.34 7.07 12.54 5.05 3.14-1.51 2.55-4.38 2.47-7.23q-0.02-0.5-0.38-0.87c-2.29-2.31-6.11-2.77-9.14-3.59q-2.12-0.57-2.08-2.32c0.08-4.12 9.12-3.9 8.35 0.35q-0.07 0.37 0.3 0.38l2.45 0.01q0.38 0 0.46-0.37 0.74-3.5-2.45-5.09-6.9-3.45-12.08 1.91-0.41 0.44-0.41 1.04l-0.01 3.77a1.26 1.25-68.6 0 0 0.41 0.95c2.53 2.3 6.61 3.1 9.84 3.62a2.07 2.07 0 0 1 1.73 1.99" stroke="#7d5800" vector-effect="non-scaling-stroke"/>
  <path d="m625 409.69a6.94 6.94 0 0 0-6.9882-6.8914l-2.68 0.0187a6.94 6.94 0 0 0-6.8914 6.9883l0.0474 6.7798a6.94 6.94 0 0 0 6.9882 6.8914l2.68-0.0187a6.94 6.94 0 0 0 6.8914-6.9883l-0.0474-6.7798" stroke="#7d5800" vector-effect="non-scaling-stroke"/>
  <path d="m563.51 419.77-0.02 4.45q-0.01 0.43-0.31 0.73c-2.31 2.25-8.99 2.43-8.17-2.14q0.06-0.32-0.27-0.32h-2.79q-0.26 0-0.33 0.26c-2.03 8.08 10.71 8.72 14.58 4.12q1.05-1.24 1.05-3.54 0-9.88 0-19.52 0.01-0.3-0.29-0.3l-2.77-0.03a0.38 0.37-84.8 0 0-0.38 0.32l-0.05 0.43q-0.08 0.59-0.59 0.27c-3.36-2.14-8.02-2.25-10.89 0.79-1.75 1.86-1.03 8.59-1.03 11.3q0 0.52 0.32 0.95 3.27 4.3 8.89 2.75 1.3-0.36 2.61-0.83 0.44-0.16 0.44 0.31" stroke="#7d5800" vector-effect="non-scaling-stroke"/>
  <path d="m708.7 404.2 0.05-0.45q0.05-0.55-0.5-0.54l-2.51 0.05q-0.49 0.01-0.49 0.5v19.24q0 0.25 0.25 0.25h3.25q0.25 0 0.25-0.25v-13.64q0-3.64 3.64-3.61l1.25 0.01q3.61 0.02 3.61 3.63v13.61a0.25 0.25 0 0 0 0.25 0.25h3.25a0.25 0.25 0 0 0 0.25-0.25v-16.01q0-0.52-0.33-0.93-3.71-4.54-9.6-2.34-1.07 0.4-2.16 0.83-0.51 0.2-0.46-0.35" stroke="#7d5800" vector-effect="non-scaling-stroke"/>
  <path d="m737.75 419.75-0.01 4.54q0 0.53-0.42 0.86-3.79 2.87-7.62 0.06a1.16 1.15-71 0 1-0.47-0.97l0.04-1.23q0.01-0.51-0.5-0.51h-2.33q-0.58 0-0.68 0.57c-1.66 8.92 15.72 8.58 15.74 1.06q0.02-10.04-0.01-20.11 0-0.49-0.48-0.5l-2.32-0.08q-0.53-0.01-0.66 0.5l-0.07 0.27q-0.14 0.57-0.64 0.26-5.16-3.29-10.16 0.48-1.7 1.28-1.69 2.55 0.04 4.46 0.02 9.06a1.52 1.47 26.7 0 0 0.32 0.92c3.06 3.98 7.07 3.99 11.38 1.91q0.56-0.27 0.56 0.36" stroke="#7d5800" vector-effect="non-scaling-stroke"/>
  <path d="m515.78 422.5q0.03 0.13 0.08 0.28 0.13 0.5 0.65 0.49l2.24-0.02q0.5-0.01 0.5-0.5v-19.25a0.25 0.25 0 0 0-0.25-0.25h-3.25a0.25 0.25 0 0 0-0.25 0.25v13.61q0 3.61-3.61 3.64l-1 0.01q-3.64 0.03-3.64-3.62v-13.39a0.25 0.25 0 0 0-0.25-0.25l-3.25-0.01a0.26 0.25 90 0 0-0.25 0.26v15.78a1.79 1.79 0 0 0 0.32 1.02c2.94 4.16 7.29 3.79 11.49 1.73q0.38-0.18 0.47 0.22" stroke="#7d5800" vector-effect="non-scaling-stroke"/>
  <path d="m547 403.58a0.35 0.35 0 0 0-0.35-0.35h-3.06a0.35 0.35 0 0 0-0.35 0.35v19.32a0.35 0.35 0 0 0 0.35 0.35h3.06a0.35 0.35 0 0 0 0.35-0.35v-19.32" stroke="#7d5800" vector-effect="non-scaling-stroke"/>
  <path d="m592.73 409.74 3.39 13q0.13 0.51 0.66 0.51l3.68 0.01q0.49 0 0.6-0.47l4.62-18.57a0.79 0.78 7.2 0 0-0.76-0.97h-1.79q-0.89 0-1.08 0.87l-3.12 14.08q-0.52 2.33-1.08 0.01l-3.56-14.5q-0.11-0.46-0.59-0.46h-2.73q-0.56 0-0.69 0.54l-3.74 15.28a0.43 0.42-44.1 0 1-0.83-0.01l-3.16-14.88q-0.2-0.9-1.12-0.92l-1.75-0.03a0.94 0.94 0 0 0-0.94 1.17l4.64 18.35q0.12 0.49 0.63 0.5l3.69 0.01q0.48 0 0.59-0.46l3.36-13.06q0.54-2.08 1.08 0" stroke="#7d5800" vector-effect="non-scaling-stroke"/>
  <path d="m686.74 405.02 0.01-1.29q0.01-0.52-0.52-0.52l-2.73 0.04q-0.5 0.01-0.5 0.5v19q0 0.51 0.5 0.51l2.75-0.01q0.5 0 0.5-0.5v-13.77q0-0.55 0.45-0.86 2.61-1.81 5.81-1.62 0.48 0.03 0.48-0.45l0.01-2.31q0-0.44-0.44-0.46-3.33-0.11-5.74 2.01-0.59 0.51-0.58-0.27" stroke="#7d5800" vector-effect="non-scaling-stroke"/>
  <path d="m700.25 403.51a0.26 0.26 0 0 0-0.26-0.26h-3.24a0.26 0.26 0 0 0-0.26 0.26v19.48a0.26 0.26 0 0 0 0.26 0.26h3.24a0.26 0.26 0 0 0 0.26-0.26v-19.48" stroke="#7d5800" vector-effect="non-scaling-stroke"/>
  <path d="m369.99 273.23c7.78 17.2 31.73 17.35 38.75-0.27 0.69-1.74 0.5-3.43 0.21-5.21-2.17-12.92-5.49-26.27-11.27-38.11a1.52 1.5 0.8 0 0-0.67-0.68q-5.49-2.76-11.5-1.44c-1.3 0.29-3.81 0.53-4.64 1.88q-2.21 3.55-4.72 11.09-4.58 13.76-6.99 28.06c-0.36 2.11 0 2.85 0.83 4.68" stroke="#808080" vector-effect="non-scaling-stroke"/>
  <path d="m401.57 268.42q-12.06-4.37-24.15-0.02c-10.29 3.7 0.33 12.02 4.48 14.06 8.43 4.12 17.74 0.8 23.06-6.73 2.49-3.53-0.23-6.17-3.39-7.31" stroke="#808080" vector-effect="non-scaling-stroke"/>
  <path d="m725.21 304.18a16.53 15.58 90.3 0 0 15.666-16.448 16.53 15.58 90.3 0 0-15.493-16.611 16.53 15.58 90.3 0 0-15.666 16.448 16.53 15.58 90.3 0 0 15.493 16.611" stroke="#7d5800" vector-effect="non-scaling-stroke"/>
  <path d="m559.27 293.82a0.3 0.3 0 0 0 0.27 0.41l12.82 0.04a0.3 0.3 0 0 0 0.28-0.41l-6.35-16.39a0.3 0.3 0 0 0-0.56 0l-6.46 16.35" stroke="#7d5800" vector-effect="non-scaling-stroke"/>
  <path d="m491.48 272.3 0.04 13.86a0.29 0.29 0 0 0 0.3 0.28l11.85-0.04a7.94 6.6-0.2 0 0 7.91-6.63v-1.24a7.94 6.6-0.2 0 0-7.97-6.57l-11.85 0.04a0.29 0.29 0 0 0-0.28 0.3" stroke="#7d5800" vector-effect="non-scaling-stroke"/>
  <path d="m620.78 272.43-0.1 30.2a0.41 0.41 0 0 0 0.41 0.41l8.25 0.03a15.12 14.28 0.2 0 0 15.17-14.23v-2.46a15.12 14.28 0.2 0 0-15.07-14.33l-8.25-0.03a0.41 0.41 0 0 0-0.41 0.41" stroke="#7d5800" vector-effect="non-scaling-stroke"/>
  <path d="m490.98 340.35 0.02 10.06a0.38 0.38 0 0 0 0.38 0.38l11.45-0.02a6.71 4.88-0.1 0 0 6.7-4.9v-1.06a6.71 4.88-0.1 0 0-6.72-4.86l-11.45 0.02a0.38 0.38 0 0 0-0.38 0.38" stroke="#7d5800" vector-effect="non-scaling-stroke"/>
  <path d="m490.71 363.34-0.02 10.08a0.68 0.68 0 0 0 0.68 0.68l12.92 0.03a7.7 5.29 0.1 0 0 7.71-5.28v-0.86a7.7 5.29 0.1 0 0-7.69-5.3l-12.92-0.03a0.68 0.68 0 0 0-0.68 0.68" stroke="#7d5800" vector-effect="non-scaling-stroke"/>
  <path d="m613.48 341.55 0.04 14.18a0.24 0.24 0 0 0 0.25 0.23l11.43-0.04a8.57 6.63-0.2 0 0 8.54-6.66v-1.4a8.57 6.63-0.2 0 0-8.6-6.6l-11.43 0.04a0.24 0.24 0 0 0-0.23 0.25" stroke="#7d5800" vector-effect="non-scaling-stroke"/>
  <path d="m737.27 373.01v-41q0-0.48-0.48-0.49-3.87-0.06-7.76-0.02c-4.34 0.04-7.75 1.79-11.71 3.33q-0.47 0.18-0.47 0.69l-0.01 6.9q0 0.58 0.58 0.52l6.07-0.66a0.46 0.46 0 0 1 0.51 0.46v30.52q0 0.5-0.5 0.5l-5.2-0.01q-1.46-0.01-1.45 1.45v5.6q0 1.7 1.7 1.7h24.2q1.49 0 1.49-1.5l0.01-6q0-1.5-1.5-1.5h-4.99q-0.49 0-0.49-0.49" stroke="#7d5800" vector-effect="non-scaling-stroke"/>
  <path d="m674.73 408.98a2.97 2.97 0 0 0-2.9855-2.9545l-2.58 0.0136a2.97 2.97 0 0 0-2.9544 2.9855l0.0455 8.6998a2.97 2.97 0 0 0 2.9855 2.9545l2.58-0.0136a2.97 2.97 0 0 0 2.9544-2.9855l-0.0455-8.6998" stroke="#7d5800" vector-effect="non-scaling-stroke"/>
  <path d="m621 409.7a3.92 3.92 0 0 0-3.92-3.92h-1.16a3.92 3.92 0 0 0-3.92 3.92v7.32a3.92 3.92 0 0 0 3.92 3.92h1.16a3.92 3.92 0 0 0 3.92-3.92v-7.32" stroke="#7d5800" vector-effect="non-scaling-stroke"/>
  <path d="m563.75 408.92a3.11 3.11 0 0 0-3.11-3.11h-2.28a3.11 3.11 0 0 0-3.11 3.11v5.66a3.11 3.11 0 0 0 3.11 3.11h2.28a3.11 3.11 0 0 0 3.11-3.11v-5.66" stroke="#7d5800" vector-effect="non-scaling-stroke"/>
  <path d="m737.79 408.99a3.19 3.19 0 0 0-3.1956-3.1845l-2.38 4e-3a3.19 3.19 0 0 0-3.1844 3.1955l0.01 5.52a3.19 3.19 0 0 0 3.1956 3.1845l2.38-4e-3a3.19 3.19 0 0 0 3.1844-3.1955l-0.01-5.52" stroke="#7d5800" vector-effect="non-scaling-stroke"/>
 </g>
 <path d="m638 292.43a0.57 0.57 0 0 1-0.57 0.57h-636.86a0.57 0.57 0 0 1-0.57-0.57v-291.86a0.57 0.57 0 0 1 0.57-0.57h636.86a0.57 0.57 0 0 1 0.57 0.57zm-374.3-44.44 30.55-116.24a1.84 1.85 75.1 0 1 0.52-0.89c8.09-7.66 16.18-19.37 15.11-31.1-1.33-14.59-4.46-28.59-11.37-41.39q-0.25-0.46 0.17-0.78c8.61-6.56 9.35-18.22 2.05-25.81-7.45-7.76-19.39-6.68-25.94 1.47q-0.3 0.38-0.75 0.21-32.02-11.92-64.11-0.16a1.09 1.1 60.7 0 1-1.23-0.34c-9.71-12.04-28.83-6.91-30.66 8.61q-1.12 9.46 6.91 16.01 0.39 0.32 0.15 0.75-6.85 12.69-9.37 26.9a0.5 0.52 84.7 0 1-0.34 0.39q-35.56 12.36-70.66 25.88c-10.01 3.85-18.16 7.82-27.22 12.77-32.28 17.65-38.91 49.66-43.57 82.98q-3.65 26.03-7.51 52.12a0.32 0.33 4.5 0 0 0.32 0.38h251.01a0.32 0.32 0 0 0 0.27-0.48c-2.7-4.65-9.1-8.61-13.97-10.57q-0.49-0.2-0.36-0.71zm348.7-125.42a31.84 32.98 86.4 0 0-34.914-29.706 31.84 32.98 86.4 0 0-30.916 33.848 31.84 32.98 86.4 0 0 34.914 29.706 31.84 32.98 86.4 0 0 30.916-33.848zm-204.45 21.911a0.37 0.37 0 0 1 0.34-0.23h22.96a0.37 0.37 0 0 1 0.34 0.23l4.3 10.54a0.37 0.37 0 0 0 0.34 0.23h17.38a0.37 0.37 0 0 0 0.34-0.51l-25.56-60.76a0.37 0.37 0 0 0-0.35-0.23l-15.82-0.01a0.37 0.37 0 0 0-0.35 0.23l-25.76 60.77a0.37 0.37 0 0 0 0.34 0.51h17.02a0.37 0.37 0 0 0 0.34-0.23zm-61.95-7.73h6.54a0.57 0.59 74 0 1 0.49 0.26l11.8 17.84a0.88 0.88 0 0 0 0.74 0.4h18.68a0.19 0.19 0 0 0 0.15-0.3l-14.3-20.77a0.25 0.25 0 0 1 0.1-0.37q14.74-6.89 11.67-23.54c-2.35-12.73-13.7-16.11-24.88-16.25q-9.06-0.11-28.02 0.02-0.47 0-0.47 0.48v60.23q0 0.5 0.5 0.5h16q0.5 0 0.5-0.5v-17.5q0-0.5 0.5-0.5zm111.89-42.33 0.22 60.5a0.32 0.32 0 0 0 0.32 0.32l26.03-0.09a29.37 31.39 89.8 0 0 31.28-29.48v-2.4a29.37 31.39 89.8 0 0-31.5-29.26l-26.03 0.09a0.32 0.32 0 0 0-0.32 0.32zm81.63-0.05a0.33 0.33 0 0 0-0.33-0.33h-16.2a0.33 0.33 0 0 0-0.33 0.33v60.54a0.33 0.33 0 0 0 0.33 0.33h16.2a0.33 0.33 0 0 0 0.33-0.33zm-168.32 98.25c4.81-3.28 7.76-5.03 8.44-11.39 1.33-12.32-8.44-17.78-19.15-17.78q-15.82-0.01-31.76 0.09-0.48 0-0.48 0.48v60.21q0 0.49 0.49 0.5 16.03 0.09 32.05-0.01c8.05-0.04 17.1-2.59 20.39-10.51 3.96-9.52-0.26-17.72-9.91-21.05q-0.57-0.2-0.07-0.54zm36.65-14.57a0.3 0.3 0 0 1 0.3-0.3h31.67a0.3 0.3 0 0 0 0.3-0.3v-13.65a0.3 0.3 0 0 0-0.3-0.3h-48.21a0.3 0.3 0 0 0-0.3 0.3v60.4a0.3 0.3 0 0 0 0.3 0.3h48.79a0.3 0.3 0 0 0 0.3-0.3l0.01-13.65a0.3 0.3 0 0 0-0.3-0.3h-32.27a0.3 0.3 0 0 1-0.3-0.3v-9.15a0.3 0.3 0 0 1 0.3-0.3h28.67a0.3 0.3 0 0 0 0.3-0.3l0.01-12.9a0.3 0.3 0 0 0-0.3-0.3h-28.69a0.3 0.3 0 0 1-0.3-0.3zm60.15 28.21 6.22-0.02a1.15 1.15 0 0 1 0.96 0.52l11.64 17.64q0.24 0.35 0.66 0.35h18.52a0.31 0.31 0 0 0 0.26-0.49l-13.97-20.52a0.47 0.47 0 0 1 0.21-0.7c9.53-3.98 13.41-12.75 11.77-22.68-1.9-11.52-12.03-16.69-23.03-16.85q-7.31-0.1-30.27 0.03-0.47 0-0.47 0.48v60.23q0 0.5 0.5 0.5h16q0.5 0 0.5-0.5v-17.5q0-0.49 0.5-0.49zm87.26-11.43a0.31 0.31 0 0 1-0.55 0.19l-24.46-31.4a0.31 0.31 0 0 0-0.24-0.12h-15.31a0.31 0.31 0 0 0-0.31 0.31v60.63a0.31 0.31 0 0 0 0.31 0.31h16.07a0.31 0.31 0 0 0 0.31-0.31v-32.31a0.31 0.31 0 0 1 0.55-0.19l25.44 32.69a0.31 0.31 0 0 0 0.24 0.12h51.88a0.31 0.31 0 0 0 0.31-0.31v-60.63a0.31 0.31 0 0 0-0.31-0.31h-53.62a0.31 0.31 0 0 0-0.31 0.31zm-154.27 39.827a1.48 1.48 0 0 0-1.5332-1.4248l-1.0593 0.0389a1.48 1.48 0 0 0-1.4248 1.5332l0.0293 0.7995a1.48 1.48 0 0 0 1.5332 1.4248l1.0593-0.0389a1.48 1.48 0 0 0 1.4248-1.5332zm153.52 0.1009a1.43 1.43 0 0 0-1.374-1.4839l-1.1592-0.0445a1.43 1.43 0 0 0-1.4838 1.3741l-0.0338 0.8793a1.43 1.43 0 0 0 1.374 1.4839l1.1592 0.0445a1.43 1.43 0 0 0 1.4838-1.3741zm-222.51 5.9825q0-2.2 0.9-0.19l5.7 12.76a1.99 1.99 0 0 0 3.63 0l5.34-12.04q1.17-2.64 1.17 0.25v18.48a0.25 0.25 0 0 0 0.25 0.25h3.25a0.25 0.25 0 0 0 0.25-0.25v-25.25q0-0.5-0.5-0.5l-4.69-0.01q-0.42 0-0.59 0.39l-5.91 13.63a0.45 0.45 0 0 1-0.82 0.01l-6.03-13.55a0.82 0.81 77.5 0 0-0.74-0.48l-4.47 0.01q-0.5 0-0.5 0.5v25.25a0.25 0.25 0 0 0 0.25 0.25h3.25a0.25 0.25 0 0 0 0.25-0.25zm153.47-6.5h-2.7a0.27 0.27 0 0 0-0.27 0.27l-0.01 1.68a0.92 6.11 0.1 0 0 0.91 6.11h1.4a0.92 6.11 0.1 0 0 0.93-6.11l0.01-1.68a0.27 0.27 0 0 0-0.27-0.27zm35.02 6.5v-6.24q0-0.24-0.25-0.24l-3.25-0.02a0.25 0.26 0 0 0-0.25 0.26v25.25q0 0.51 0.5 0.51l2.49-0.01q0.47 0 0.49-0.47 0.01-0.14 0.02-0.3 0.05-0.69 0.64-0.33c3.78 2.27 11.83 1.95 11.86-4.06q0.02-4.73-0.01-9.47c-0.06-6.47-7.53-6.85-11.77-4.6q-0.47 0.26-0.47-0.28zm80.97 3q0.09 5.81 0.02 11.62c-0.06 5.08 4.56 5.85 8.5 5.33q0.66-0.09 0.71-0.75l0.12-1.43q0.05-0.62-0.57-0.55-2.49 0.3-4.53-1.05a1.05 1.04 16.8 0 1-0.47-0.87v-12.54q0-0.49 0.5-0.49l4.52-0.01a0.51 0.51 0 0 0 0.5-0.52l-0.03-1.74q-0.01-0.5-0.5-0.5l-4.49 0.01q-0.51 0-0.51-0.5l0.02-3.25q0-0.25-0.26-0.25h-3.25q-0.25 0-0.25 0.25v3.28q0 0.53-0.53 0.5l-1.29-0.08q-0.66-0.04-0.67 0.62l-0.02 1.94q0 0.52 0.52 0.51l1.47-0.02q0.49 0 0.49 0.49zm-220.26 0.26c2.14-1.8 8.71-2.45 7.74 2.04q-0.04 0.19 0.16 0.19l3.08 0.03q0.22 0 0.26-0.22c0.27-1.53 0.22-2.86-1.01-4-3.85-3.58-10.22-3.45-13.63 0.8a1.45 1.46 64.2 0 0-0.32 0.91l0.01 3.98q0 0.44 0.32 0.75c2.26 2.22 6.4 3 9.41 3.75q2.34 0.58 2.12 2.6c-0.48 4.35-9.27 3.67-8.33-0.53a0.26 0.25 6.3 0 0-0.25-0.31l-2.83 0.02q-0.33 0-0.39 0.32-0.7 3.45 2.33 5.06 6.96 3.68 12.31-1.9 0.31-0.33 0.31-0.78v-4.39q0-0.42-0.29-0.72c-2.44-2.48-6.45-3.02-9.64-4q-2.19-0.68-1.81-2.81 0.08-0.48 0.45-0.79zm119.77 10.08 0.04 1.34q0.01 0.6-0.47 0.95-3.64 2.69-7.35 0.23-0.46-0.3-0.46-0.85l0.01-1.24q0-0.5-0.49-0.5l-2.73-0.02a0.55 0.55 0 0 0-0.55 0.49c-0.69 6.65 8.34 7.07 12.54 5.05 3.14-1.51 2.55-4.38 2.47-7.23q-0.02-0.5-0.38-0.87c-2.29-2.31-6.11-2.77-9.14-3.59q-2.12-0.57-2.08-2.32c0.08-4.12 9.12-3.9 8.35 0.35q-0.07 0.37 0.3 0.38l2.45 0.01q0.38 0 0.46-0.37 0.74-3.5-2.45-5.09-6.9-3.45-12.08 1.91-0.41 0.44-0.41 1.04l-0.01 3.77a1.25 1.26 21.4 0 0 0.41 0.95c2.53 2.3 6.61 3.1 9.84 3.62a2.07 2.07 0 0 1 1.73 1.99zm-21.984-7.3877a6.94 6.94 0 0 0-6.9882-6.8914l-2.68 0.0187a6.94 6.94 0 0 0-6.8914 6.9883l0.0474 6.7798a6.94 6.94 0 0 0 6.9882 6.8914l2.68-0.0187a6.94 6.94 0 0 0 6.8914-6.9883zm-61.486 10.078-0.02 4.45q-0.01 0.43-0.31 0.73c-2.31 2.25-8.99 2.43-8.17-2.14q0.06-0.32-0.27-0.32h-2.79q-0.26 0-0.33 0.26c-2.03 8.08 10.71 8.72 14.58 4.12q1.05-1.24 1.05-3.54 0-9.88 0-19.52 0.01-0.3-0.29-0.3l-2.77-0.03a0.37 0.38 5.2 0 0-0.38 0.32l-0.05 0.43q-0.08 0.59-0.59 0.27c-3.36-2.14-8.02-2.25-10.89 0.79-1.75 1.86-1.03 8.59-1.03 11.3q0 0.52 0.32 0.95 3.27 4.3 8.89 2.75 1.3-0.36 2.61-0.83 0.44-0.16 0.44 0.31zm145.19-15.57 0.05-0.45q0.05-0.55-0.5-0.54l-2.51 0.05q-0.49 0.01-0.49 0.5v19.24q0 0.25 0.25 0.25h3.25q0.25 0 0.25-0.25v-13.64q0-3.64 3.64-3.61l1.25 0.01q3.61 0.02 3.61 3.63v13.61a0.25 0.25 0 0 0 0.25 0.25h3.25a0.25 0.25 0 0 0 0.25-0.25v-16.01q0-0.52-0.33-0.93-3.71-4.54-9.6-2.34-1.07 0.4-2.16 0.83-0.51 0.2-0.46-0.35zm29.05 15.55-0.01 4.54q0 0.53-0.42 0.86-3.79 2.87-7.62 0.06a1.15 1.16 19 0 1-0.47-0.97l0.04-1.23q0.01-0.51-0.5-0.51h-2.33q-0.58 0-0.68 0.57c-1.66 8.92 15.72 8.58 15.74 1.06q0.02-10.04-0.01-20.11 0-0.49-0.48-0.5l-2.32-0.08q-0.53-0.01-0.66 0.5l-0.07 0.27q-0.14 0.57-0.64 0.26-5.16-3.29-10.16 0.48-1.7 1.28-1.69 2.55 0.04 4.46 0.02 9.06a1.52 1.47 26.7 0 0 0.32 0.92c3.06 3.98 7.07 3.99 11.38 1.91q0.56-0.27 0.56 0.36zm-221.97 2.75q0.03 0.13 0.08 0.28 0.13 0.5 0.65 0.49l2.24-0.02q0.5-0.01 0.5-0.5v-19.25a0.25 0.25 0 0 0-0.25-0.25h-3.25a0.25 0.25 0 0 0-0.25 0.25v13.61q0 3.61-3.61 3.64l-1 0.01q-3.64 0.03-3.64-3.62v-13.39a0.25 0.25 0 0 0-0.25-0.25l-3.25-0.01a0.25 0.26 0 0 0-0.25 0.26v15.78a1.79 1.79 0 0 0 0.32 1.02c2.94 4.16 7.29 3.79 11.49 1.73q0.38-0.18 0.47 0.22zm31.22-18.92a0.35 0.35 0 0 0-0.35-0.35h-3.06a0.35 0.35 0 0 0-0.35 0.35v19.32a0.35 0.35 0 0 0 0.35 0.35h3.06a0.35 0.35 0 0 0 0.35-0.35zm45.73 6.16 3.39 13q0.13 0.51 0.66 0.51l3.68 0.01q0.49 0 0.6-0.47l4.62-18.57a0.79 0.78 7.2 0 0-0.76-0.97h-1.79q-0.89 0-1.08 0.87l-3.12 14.08q-0.52 2.33-1.08 0.01l-3.56-14.5q-0.11-0.46-0.59-0.46h-2.73q-0.56 0-0.69 0.54l-3.74 15.28a0.42 0.43 45.9 0 1-0.83-0.01l-3.16-14.88q-0.2-0.9-1.12-0.92l-1.75-0.03a0.94 0.94 0 0 0-0.94 1.17l4.64 18.35q0.12 0.49 0.63 0.5l3.69 0.01q0.48 0 0.59-0.46l3.36-13.06q0.54-2.08 1.08 0zm94.01-4.72 0.01-1.29q0.01-0.52-0.52-0.52l-2.73 0.04q-0.5 0.01-0.5 0.5v19q0 0.51 0.5 0.51l2.75-0.01q0.5 0 0.5-0.5v-13.77q0-0.55 0.45-0.86 2.61-1.81 5.81-1.62 0.48 0.03 0.48-0.45l0.01-2.31q0-0.44-0.44-0.46-3.33-0.11-5.74 2.01-0.59 0.51-0.58-0.27zm13.51-1.51a0.26 0.26 0 0 0-0.26-0.26h-3.24a0.26 0.26 0 0 0-0.26 0.26v19.48a0.26 0.26 0 0 0 0.26 0.26h3.24a0.26 0.26 0 0 0 0.26-0.26z" fill="#f9b000"/>
 <path d="m264.06 248.7c4.87 1.96 11.27 5.92 13.97 10.57a0.32 0.32 0 0 1-0.27 0.48h-251.01a0.32 0.33 4.5 0 1-0.32-0.38q3.86-26.09 7.51-52.12c4.66-33.32 11.29-65.33 43.57-82.98 9.06-4.95 17.21-8.92 27.22-12.77q35.1-13.52 70.66-25.88a0.5 0.52 84.7 0 0 0.34-0.39q2.52-14.21 9.37-26.9 0.24-0.43-0.15-0.75-8.03-6.55-6.91-16.01c1.83-15.52 20.95-20.65 30.66-8.61a1.09 1.1 60.7 0 0 1.23 0.34q32.09-11.76 64.11 0.16 0.45 0.17 0.75-0.21c6.55-8.15 18.49-9.23 25.94-1.47 7.3 7.59 6.56 19.25-2.05 25.81q-0.42 0.32-0.17 0.78c6.91 12.8 10.04 26.8 11.37 41.39 1.07 11.73-7.02 23.44-15.11 31.1a1.84 1.85 75.1 0 0-0.52 0.89l-30.55 116.24q-0.13 0.51 0.36 0.71zm-40.07-138.47c7.78 17.2 31.73 17.35 38.75-0.27 0.69-1.74 0.5-3.43 0.21-5.21-2.17-12.92-5.49-26.27-11.27-38.11a1.52 1.5 0.8 0 0-0.67-0.68q-5.49-2.76-11.5-1.44c-1.3 0.29-3.81 0.53-4.64 1.88q-2.21 3.55-4.72 11.09-4.58 13.76-6.99 28.06c-0.36 2.11 0 2.85 0.83 4.68z"/>
 <path d="m262.74 109.96c-7.02 17.62-30.97 17.47-38.75 0.27-0.83-1.83-1.19-2.57-0.83-4.68q2.41-14.3 6.99-28.06 2.51-7.54 4.72-11.09c0.83-1.35 3.34-1.59 4.64-1.88q6.01-1.32 11.5 1.44a1.52 1.5 0.8 0 1 0.67 0.68c5.78 11.84 9.1 25.19 11.27 38.11 0.29 1.78 0.48 3.47-0.21 5.21zm-7.17-4.54q-12.06-4.37-24.15-0.02c-10.29 3.7 0.33 12.02 4.48 14.06 8.43 4.12 17.74 0.8 23.06-6.73 2.49-3.53-0.23-6.17-3.39-7.31z" fill="#fff"/>
 <path d="m612.4 122.57a31.84 32.98 86.4 0 1-30.916 33.848 31.84 32.98 86.4 0 1-34.914-29.706 31.84 32.98 86.4 0 1 30.916-33.848 31.84 32.98 86.4 0 1 34.914 29.706zm-33.192 18.611a15.58 16.53 0.3 0 0 15.666-16.448 15.58 16.53 0.3 0 0-15.493-16.611 15.58 16.53 0.3 0 0-15.666 16.448 15.58 16.53 0.3 0 0 15.493 16.611z"/>
 <path d="m407.95 144.48-4.14 10.54a0.37 0.37 0 0 1-0.34 0.23h-17.02a0.37 0.37 0 0 1-0.34-0.51l25.76-60.77a0.37 0.37 0 0 1 0.35-0.23l15.82 0.01a0.37 0.37 0 0 1 0.35 0.23l25.56 60.76a0.37 0.37 0 0 1-0.34 0.51h-17.38a0.37 0.37 0 0 1-0.34-0.23l-4.3-10.54a0.37 0.37 0 0 0-0.34-0.23h-22.96a0.37 0.37 0 0 0-0.34 0.23zm5.32-13.66a0.3 0.3 0 0 0 0.27 0.41l12.82 0.04a0.3 0.3 0 0 0 0.28-0.41l-6.35-16.39a0.3 0.3 0 0 0-0.56 0z"/>
 <path d="m345.5 137.25v17.5q0 0.5-0.5 0.5h-16q-0.5 0-0.5-0.5v-60.23q0-0.48 0.47-0.48 18.96-0.13 28.02-0.02c11.18 0.14 22.53 3.52 24.88 16.25q3.07 16.65-11.67 23.54a0.25 0.25 0 0 0-0.1 0.37l14.3 20.77a0.19 0.19 0 0 1-0.15 0.3h-18.68a0.88 0.88 0 0 1-0.74-0.4l-11.8-17.84a0.57 0.59 74 0 0-0.49-0.26h-6.54q-0.5 0-0.5 0.5zm-0.02-27.95 0.04 13.86a0.29 0.29 0 0 0 0.3 0.28l11.85-0.04a6.6 7.94 89.8 0 0 7.91-6.63v-1.24a6.6 7.94 89.8 0 0-7.97-6.57l-11.85 0.04a0.29 0.29 0 0 0-0.28 0.3z"/>
 <path d="m457.89 94.42a0.32 0.32 0 0 1 0.32-0.32l26.03-0.09a29.37 31.39 89.8 0 1 31.5 29.26v2.4a29.37 31.39 89.8 0 1-31.28 29.48l-26.03 0.09a0.32 0.32 0 0 1-0.32-0.32zm16.89 15.01-0.1 30.2a0.41 0.41 0 0 0 0.41 0.41l8.25 0.03a15.12 14.28 0.2 0 0 15.17-14.23v-2.46a15.12 14.28 0.2 0 0-15.07-14.33l-8.25-0.03a0.41 0.41 0 0 0-0.41 0.41z"/>
 <rect x="522.66" y="94.04" width="16.86" height="61.2" rx=".33"/>
 <path d="m255.57 105.42c3.16 1.14 5.88 3.78 3.39 7.31-5.32 7.53-14.63 10.85-23.06 6.73-4.15-2.04-14.77-10.36-4.48-14.06q12.09-4.35 24.15 0.02z"/>
 <ellipse transform="rotate(90.3)" cx="121.62" cy="-579.94" rx="16.53" ry="15.58" fill="#f9b000"/>
 <path d="m345.48 109.3a0.29 0.29 0 0 1 0.28-0.3l11.85-0.04a6.6 7.94 89.8 0 1 7.97 6.57v1.24a6.6 7.94 89.8 0 1-7.91 6.63l-11.85 0.04a0.29 0.29 0 0 1-0.3-0.28z" fill="#f9b000"/>
 <path d="m474.78 109.43a0.41 0.41 0 0 1 0.41-0.41l8.25 0.03a15.12 14.28 0.2 0 1 15.07 14.33v2.46a15.12 14.28 0.2 0 1-15.17 14.23l-8.25-0.03a0.41 0.41 0 0 1-0.41-0.41z" fill="#f9b000"/>
 <path d="m413.27 130.82 6.46-16.35a0.3 0.3 0 0 1 0.56 0l6.35 16.39a0.3 0.3 0 0 1-0.28 0.41l-12.82-0.04a0.3 0.3 0 0 1-0.27-0.41z" fill="#f9b000"/>
 <path d="m371.27 193.16c9.65 3.33 13.87 11.53 9.91 21.05-3.29 7.92-12.34 10.47-20.39 10.51q-16.02 0.1-32.05 0.01-0.49-0.01-0.49-0.5v-60.21q0-0.48 0.48-0.48 15.94-0.1 31.76-0.09c10.71 0 20.48 5.46 19.15 17.78-0.68 6.36-3.63 8.11-8.44 11.39q-0.5 0.34 0.07 0.54zm-26.29-15.81 0.02 10.06a0.38 0.38 0 0 0 0.38 0.38l11.45-0.02a4.88 6.71 89.9 0 0 6.7-4.9v-1.06a4.88 6.71 89.9 0 0-6.72-4.86l-11.45 0.02a0.38 0.38 0 0 0-0.38 0.38zm-0.27 22.99-0.02 10.08a0.68 0.68 0 0 0 0.68 0.68l12.92 0.03a7.7 5.29 0.1 0 0 7.71-5.28v-0.86a7.7 5.29 0.1 0 0-7.69-5.3l-12.92-0.03a0.68 0.68 0 0 0-0.68 0.68z"/>
 <path d="m407.85 178.05-0.02 8.65a0.3 0.3 0 0 0 0.3 0.3h28.69a0.3 0.3 0 0 1 0.3 0.3l-0.01 12.9a0.3 0.3 0 0 1-0.3 0.3h-28.67a0.3 0.3 0 0 0-0.3 0.3v9.15a0.3 0.3 0 0 0 0.3 0.3h32.27a0.3 0.3 0 0 1 0.3 0.3l-0.01 13.65a0.3 0.3 0 0 1-0.3 0.3h-48.79a0.3 0.3 0 0 1-0.3-0.3v-60.4a0.3 0.3 0 0 1 0.3-0.3h48.21a0.3 0.3 0 0 1 0.3 0.3v13.65a0.3 0.3 0 0 1-0.3 0.3h-31.67a0.3 0.3 0 0 0-0.3 0.3z"/>
 <path d="m467.5 206.75v17.5q0 0.5-0.5 0.5h-16q-0.5 0-0.5-0.5v-60.23q0-0.48 0.47-0.48 22.96-0.13 30.27-0.03c11 0.16 21.13 5.33 23.03 16.85 1.64 9.93-2.24 18.7-11.77 22.68a0.47 0.47 0 0 0-0.21 0.7l13.97 20.52a0.31 0.31 0 0 1-0.26 0.49h-18.52q-0.42 0-0.66-0.35l-11.64-17.64a1.15 1.15 0 0 0-0.96-0.52l-6.22 0.02q-0.5 0-0.5 0.49zm-0.02-28.2 0.04 14.18a0.24 0.24 0 0 0 0.25 0.23l11.43-0.04a6.63 8.57 89.8 0 0 8.54-6.66v-1.4a6.63 8.57 89.8 0 0-8.6-6.6l-11.43 0.04a0.24 0.24 0 0 0-0.23 0.25z"/>
 <path d="m555.26 194.83v-31.02a0.31 0.31 0 0 1 0.31-0.31h53.62a0.31 0.31 0 0 1 0.31 0.31v60.63a0.31 0.31 0 0 1-0.31 0.31h-51.88a0.31 0.31 0 0 1-0.24-0.12l-25.44-32.69a0.31 0.31 0 0 0-0.55 0.19v32.31a0.31 0.31 0 0 1-0.31 0.31h-16.07a0.31 0.31 0 0 1-0.31-0.31v-60.63a0.31 0.31 0 0 1 0.31-0.31h15.31a0.31 0.31 0 0 1 0.24 0.12l24.46 31.4a0.31 0.31 0 0 0 0.55-0.19zm36.01 15.18v-41q0-0.48-0.48-0.49-3.87-0.06-7.76-0.02c-4.34 0.04-7.75 1.79-11.71 3.33q-0.47 0.18-0.47 0.69l-0.01 6.9q0 0.58 0.58 0.52l6.07-0.66a0.46 0.46 0 0 1 0.51 0.46v30.52q0 0.5-0.5 0.5l-5.2-0.01q-1.46-0.01-1.45 1.45v5.6q0 1.7 1.7 1.7h24.2q1.49 0 1.49-1.5l0.01-6q0-1.5-1.5-1.5h-4.99q-0.49 0-0.49-0.49z"/>
 <path d="m591.76 210.5h4.99q1.5 0 1.5 1.5l-0.01 6q0 1.5-1.49 1.5h-24.2q-1.7 0-1.7-1.7v-5.6q-0.01-1.46 1.45-1.45l5.2 0.01q0.5 0 0.5-0.5v-30.52a0.46 0.46 0 0 0-0.51-0.46l-6.07 0.66q-0.58 0.06-0.58-0.52l0.01-6.9q0-0.51 0.47-0.69c3.96-1.54 7.37-3.29 11.71-3.33q3.89-0.04 7.76 0.02 0.48 0.01 0.48 0.49v41q0 0.49 0.49 0.49z" fill="#f9b000"/>
 <path d="m344.98 177.35a0.38 0.38 0 0 1 0.38-0.38l11.45-0.02a4.88 6.71 89.9 0 1 6.72 4.86v1.06a4.88 6.71 89.9 0 1-6.7 4.9l-11.45 0.02a0.38 0.38 0 0 1-0.38-0.38z" fill="#f9b000"/>
 <path d="m467.48 178.55a0.24 0.24 0 0 1 0.23-0.25l11.43-0.04a6.63 8.57 89.8 0 1 8.6 6.6v1.4a6.63 8.57 89.8 0 1-8.54 6.66l-11.43 0.04a0.24 0.24 0 0 1-0.25-0.23z" fill="#f9b000"/>
 <path d="m344.71 200.34a0.68 0.68 0 0 1 0.68-0.68l12.92 0.03a7.7 5.29 0.1 0 1 7.69 5.3v0.86a7.7 5.29 0.1 0 1-7.71 5.28l-12.92-0.03a0.68 0.68 0 0 1-0.68-0.68z" fill="#f9b000"/>
 <rect transform="rotate(-2.1)" x="388.11" y="247.71" width="4.02" height="3.76" rx="1.48"/>
 <rect transform="rotate(2.2)" x="559.1" y="211.87" width="4.02" height="3.74" rx="1.43"/>
 <path d="m332.01 240.74-0.01 19.26a0.25 0.25 0 0 1-0.25 0.25h-3.25a0.25 0.25 0 0 1-0.25-0.25v-25.25q0-0.5 0.5-0.5l4.47-0.01a0.82 0.81 77.5 0 1 0.74 0.48l6.03 13.55a0.45 0.45 0 0 0 0.82-0.01l5.91-13.63q0.17-0.39 0.59-0.39l4.69 0.01q0.5 0 0.5 0.5v25.25a0.25 0.25 0 0 1-0.25 0.25h-3.25a0.25 0.25 0 0 1-0.25-0.25v-18.48q0-2.89-1.17-0.25l-5.34 12.04a1.99 1.99 0 0 1-3.63 0l-5.7-12.76q-0.9-2.01-0.9 0.19z"/>
 <path d="m485.48 234.24a0.27 0.27 0 0 1 0.27 0.27l-0.01 1.68a0.92 6.11 0.1 0 1-0.93 6.11h-1.4a0.92 6.11 0.1 0 1-0.91-6.11l0.01-1.68a0.27 0.27 0 0 1 0.27-0.27z"/>
 <path d="m520.97 241.02c4.24-2.25 11.71-1.87 11.77 4.6q0.03 4.74 0.01 9.47c-0.03 6.01-8.08 6.33-11.86 4.06q-0.59-0.36-0.64 0.33-0.01 0.16-0.02 0.3-0.02 0.47-0.49 0.47l-2.49 0.01q-0.5 0-0.5-0.51v-25.25a0.25 0.26 0 0 1 0.25-0.26l3.25 0.02q0.25 0 0.25 0.24v6.24q0 0.54 0.47 0.28zm7.7572 4.9578a2.97 2.97 0 0 0-2.9855-2.9545l-2.58 0.0136a2.97 2.97 0 0 0-2.9544 2.9855l0.0455 8.6998a2.97 2.97 0 0 0 2.9855 2.9545l2.58-0.0136a2.97 2.97 0 0 0 2.9544-2.9855z"/>
 <path d="m600.98 243.25-1.47 0.02q-0.52 0.01-0.52-0.51l0.02-1.94q0.01-0.66 0.67-0.62l1.29 0.08q0.53 0.03 0.53-0.5v-3.28q0-0.25 0.25-0.25h3.25q0.26 0 0.26 0.25l-0.02 3.25q0 0.5 0.51 0.5l4.49-0.01q0.49 0 0.5 0.5l0.03 1.74a0.51 0.51 0 0 1-0.5 0.52l-4.52 0.01q-0.5 0-0.5 0.49v12.54a1.05 1.04 16.8 0 0 0.47 0.87q2.04 1.35 4.53 1.05 0.62-0.07 0.57 0.55l-0.12 1.43q-0.05 0.66-0.71 0.75c-3.94 0.52-8.56-0.25-8.5-5.33q0.07-5.81-0.02-11.62 0-0.49-0.49-0.49z"/>
 <path d="m380.76 244.79q-0.38 2.13 1.81 2.81c3.19 0.98 7.2 1.52 9.64 4q0.29 0.3 0.29 0.72v4.39q0 0.45-0.31 0.78-5.35 5.58-12.31 1.9-3.03-1.61-2.33-5.06 0.06-0.32 0.39-0.32l2.83-0.02a0.26 0.25 6.3 0 1 0.25 0.31c-0.94 4.2 7.85 4.88 8.33 0.53q0.22-2.02-2.12-2.6c-3.01-0.75-7.15-1.53-9.41-3.75q-0.32-0.31-0.32-0.75l-0.01-3.98a1.45 1.46 64.2 0 1 0.32-0.91c3.41-4.25 9.78-4.38 13.63-0.8 1.23 1.14 1.28 2.47 1.01 4q-0.04 0.22-0.26 0.22l-3.08-0.03q-0.2 0-0.16-0.19c0.97-4.49-5.6-3.84-7.74-2.04q-0.37 0.31-0.45 0.79z"/>
 <path d="m500.98 254.08a2.07 2.07 0 0 0-1.73-1.99c-3.23-0.52-7.31-1.32-9.84-3.62a1.25 1.26 21.4 0 1-0.41-0.95l0.01-3.77q0-0.6 0.41-1.04 5.18-5.36 12.08-1.91 3.19 1.59 2.45 5.09-0.08 0.37-0.46 0.37l-2.45-0.01q-0.37-0.01-0.3-0.38c0.77-4.25-8.27-4.47-8.35-0.35q-0.04 1.75 2.08 2.32c3.03 0.82 6.85 1.28 9.14 3.59q0.36 0.37 0.38 0.87c0.08 2.85 0.67 5.72-2.47 7.23-4.2 2.02-13.23 1.6-12.54-5.05a0.55 0.55 0 0 1 0.55-0.49l2.73 0.02q0.49 0 0.49 0.5l-0.01 1.24q0 0.55 0.46 0.85 3.71 2.46 7.35-0.23 0.48-0.35 0.47-0.95z"/>
 <path d="m479.04 253.47a6.94 6.94 0 0 1-6.8914 6.9883l-2.68 0.0187a6.94 6.94 0 0 1-6.9882-6.8914l-0.0474-6.7798a6.94 6.94 0 0 1 6.8914-6.9883l2.68-0.0187a6.94 6.94 0 0 1 6.9882 6.8914zm-4.0435-6.7721a3.92 3.92 0 0 0-3.92-3.92h-1.16a3.92 3.92 0 0 0-3.92 3.92v7.32a3.92 3.92 0 0 0 3.92 3.92h1.16a3.92 3.92 0 0 0 3.92-3.92z"/>
 <path d="m417.07 256.46q-1.31 0.47-2.61 0.83-5.62 1.55-8.89-2.75-0.32-0.43-0.32-0.95c0-2.71-0.72-9.44 1.03-11.3 2.87-3.04 7.53-2.93 10.89-0.79q0.51 0.32 0.59-0.27l0.05-0.43a0.37 0.38 5.2 0 1 0.38-0.32l2.77 0.03q0.3 0 0.29 0.3 0 9.64 0 19.52 0 2.3-1.05 3.54c-3.87 4.6-16.61 3.96-14.58-4.12q0.07-0.26 0.33-0.26h2.79q0.33 0 0.27 0.32c-0.82 4.57 5.86 4.39 8.17 2.14q0.3-0.3 0.31-0.73l0.02-4.45q0-0.47-0.44-0.31zm0.68-10.54a3.11 3.11 0 0 0-3.11-3.11h-2.28a3.11 3.11 0 0 0-3.11 3.11v5.66a3.11 3.11 0 0 0 3.11 3.11h2.28a3.11 3.11 0 0 0 3.11-3.11z"/>
 <path d="m563.16 241.55q1.09-0.43 2.16-0.83 5.89-2.2 9.6 2.34 0.33 0.41 0.33 0.93v16.01a0.25 0.25 0 0 1-0.25 0.25h-3.25a0.25 0.25 0 0 1-0.25-0.25v-13.61q0-3.61-3.61-3.63l-1.25-0.01q-3.64-0.03-3.64 3.61v13.64q0 0.25-0.25 0.25h-3.25q-0.25 0-0.25-0.25v-19.24q0-0.49 0.49-0.5l2.51-0.05q0.55-0.01 0.5 0.54l-0.05 0.45q-0.05 0.55 0.46 0.35z"/>
 <path d="m591.19 256.39c-4.31 2.08-8.32 2.07-11.38-1.91a1.52 1.47 26.7 0 1-0.32-0.92q0.02-4.6-0.02-9.06-0.01-1.27 1.69-2.55 5-3.77 10.16-0.48 0.5 0.31 0.64-0.26l0.07-0.27q0.13-0.51 0.66-0.5l2.32 0.08q0.48 0.01 0.48 0.5 0.03 10.07 0.01 20.11c-0.02 7.52-17.4 7.86-15.74-1.06q0.1-0.57 0.68-0.57h2.33q0.51 0 0.5 0.51l-0.04 1.23a1.15 1.16 19 0 0 0.47 0.97q3.83 2.81 7.62-0.06 0.42-0.33 0.42-0.86l0.01-4.54q0-0.63-0.56-0.36zm0.5952-10.398a3.19 3.19 0 0 0-3.1956-3.1845l-2.38 4e-3a3.19 3.19 0 0 0-3.1844 3.1955l0.01 5.52a3.19 3.19 0 0 0 3.1956 3.1845l2.38-4e-3a3.19 3.19 0 0 0 3.1844-3.1955z"/>
 <path d="m369.31 259.28c-4.2 2.06-8.55 2.43-11.49-1.73a1.79 1.79 0 0 1-0.32-1.02v-15.78a0.25 0.26 0 0 1 0.25-0.26l3.25 0.01a0.25 0.25 0 0 1 0.25 0.25v13.39q0 3.65 3.64 3.62l1-0.01q3.61-0.03 3.61-3.64v-13.61a0.25 0.25 0 0 1 0.25-0.25h3.25a0.25 0.25 0 0 1 0.25 0.25v19.25q0 0.49-0.5 0.5l-2.24 0.02q-0.52 0.01-0.65-0.49-0.05-0.15-0.08-0.28-0.09-0.4-0.47-0.22z"/>
 <rect x="397.24" y="240.23" width="3.76" height="20.02" rx=".35"/>
 <path d="m446.73 246.74q-0.54-2.08-1.08 0l-3.36 13.06q-0.11 0.46-0.59 0.46l-3.69-0.01q-0.51-0.01-0.63-0.5l-4.64-18.35a0.94 0.94 0 0 1 0.94-1.17l1.75 0.03q0.92 0.02 1.12 0.92l3.16 14.88a0.42 0.43 45.9 0 0 0.83 0.01l3.74-15.28q0.13-0.54 0.69-0.54h2.73q0.48 0 0.59 0.46l3.56 14.5q0.56 2.32 1.08-0.01l3.12-14.08q0.19-0.87 1.08-0.87h1.79a0.79 0.78 7.2 0 1 0.76 0.97l-4.62 18.57q-0.11 0.47-0.6 0.47l-3.68-0.01q-0.53 0-0.66-0.51z"/>
 <path d="m541.32 242.29q2.41-2.12 5.74-2.01 0.44 0.02 0.44 0.46l-0.01 2.31q0 0.48-0.48 0.45-3.2-0.19-5.81 1.62-0.45 0.31-0.45 0.86v13.77q0 0.5-0.5 0.5l-2.75 0.01q-0.5 0-0.5-0.51v-19q0-0.49 0.5-0.5l2.73-0.04q0.53 0 0.52 0.52l-0.01 1.29q-0.01 0.78 0.58 0.27z"/>
 <rect x="550.49" y="240.25" width="3.76" height="20" rx=".26"/>
 <rect x="409.25" y="242.81" width="8.5" height="11.88" rx="3.11" fill="#f9b000"/>
 <rect x="466" y="242.78" width="9" height="15.16" rx="3.92" fill="#f9b000"/>
 <rect transform="rotate(-.1)" x="582.59" y="243.83" width="8.76" height="11.9" rx="3.19" fill="#f9b000"/>
 <rect transform="rotate(-.3)" x="518.91" y="245.77" width="8.52" height="14.64" rx="2.97" fill="#f9b000"/>
</svg>
