<?xml version="1.0" encoding="UTF-8" standalone="no"?>
<svg xmlns:rdf="http://www.w3.org/1999/02/22-rdf-syntax-ns#" xmlns="http://www.w3.org/2000/svg" height="351.61" width="600" version="1.1" xmlns:cc="http://creativecommons.org/ns#" xmlns:dc="http://purl.org/dc/elements/1.1/" viewBox="0 0 158.75 93.030005">
 <defs>
  <radialGradient id="a" gradientUnits="userSpaceOnUse" cy="0" cx="0" gradientTransform="matrix(47.319 0 0 47.319 88.556 41.536)" r="1">
   <stop stop-color="#fff" offset="0"/>
   <stop stop-color="#fff" offset=".053253"/>
   <stop stop-color="#e0091d" offset=".49112"/>
   <stop stop-color="#5a1917" offset="1"/>
  </radialGradient>
 </defs>
 <g>
  <path style="color-rendering:auto;text-decoration-color:#000000;color:#000000;font-variant-numeric:normal;shape-rendering:auto;solid-color:#000000;text-decoration-line:none;font-variant-position:normal;mix-blend-mode:normal;block-progression:tb;font-feature-settings:normal;shape-padding:0;font-variant-alternates:normal;text-indent:0;font-variant-caps:normal;image-rendering:auto;white-space:normal;text-decoration-style:solid;font-variant-ligatures:normal;isolation:auto;text-transform:none" d="m145.56 35.561-0.03-0.027-0.04-0.038z" fill="#ff0"/>
  <path style="color-rendering:auto;text-decoration-color:#000000;color:#000000;font-variant-numeric:normal;shape-rendering:auto;solid-color:#000000;text-decoration-line:none;font-variant-position:normal;mix-blend-mode:normal;block-progression:tb;font-feature-settings:normal;shape-padding:0;font-variant-alternates:normal;text-indent:0;font-variant-caps:normal;image-rendering:auto;white-space:normal;text-decoration-style:solid;font-variant-ligatures:normal;isolation:auto;text-transform:none" d="m121.82 64.693c-0.03 0 0.33 0.309 0.33 0.378 0 0.107-0.26 0.382-0.33 0.382-0.08 0-0.33-0.272-0.33-0.382 0-0.099 0.25-0.378 0.33-0.378z" fill="#ff0"/>
  <path style="color-rendering:auto;text-decoration-color:#000000;color:#000000;font-variant-numeric:normal;shape-rendering:auto;solid-color:#000000;text-decoration-line:none;font-variant-position:normal;mix-blend-mode:normal;block-progression:tb;font-feature-settings:normal;shape-padding:0;font-variant-alternates:normal;text-indent:0;font-variant-caps:normal;image-rendering:auto;white-space:normal;text-decoration-style:solid;font-variant-ligatures:normal;isolation:auto;text-transform:none" d="m78.401 0c-21.046 0-38.789 14.027-44.516 33.236-0.294 0.101-0.582 0.213-0.867 0.334-1.009-0.561-2.106-0.95-3.273-0.952h-15.099c-3.008 0-5.9206 1.129-8.1683 2.954-2.3073 1.87-4.0003 4.606-4.5214 7.629l-0.0115-0.002-1.7616 10.104h-0.00188c-0.00449 0.026-0.00725 0.052-0.01145 0.078-0.10069 0.62-0.16987 1.292-0.16987 2 0 2.845 1.1217 5.849 3.319 7.961 2.1339 2.052 5.0382 3.066 7.793 3.067l15.045 0.048h0.004c0.567-0.001 1.118-0.146 1.666-0.285 0.465 0.101 0.93 0.206 1.407 0.208h0.009c2.259 0 4.398-0.812 6.337-1.962 7.027 16.777 23.511 28.612 42.821 28.612 18.096 0 33.789-10.352 41.479-25.46 0.56 0.436 1.22 0.744 1.94 0.744 1.46 0 2.82-1.119 3.15-2.621 1.23 0.421 2.51 0.687 3.76 0.687 1.72 0.001 3.22-0.812 4.47-1.941 1.85 1.18 3.94 1.941 6.02 1.941h12.59c3.24-0.001 6.06-2.295 6.72-5.47v-0.001c0.19-0.942 0.22-1.749 0.22-2.283 0-2.75-1.02-5.743-3.21-7.888l-0.01-0.008c-2-1.954-4.7-2.865-7.27-2.985l0.39-2.117v-0.001c0.02-0.113 0.04-0.223 0.06-0.336v-0.004c0.09-0.724 0.11-1.353 0.11-1.85 0-2.825-1.11-5.777-3.24-7.861l-0.02-0.015c-2.11-2.05-5.02-3.085-7.77-3.085-1.74 0.002-3.25 0.83-4.5 1.976-1.85-1.194-3.94-1.976-6.06-1.976h-4.57c-5.97-18.812-23.495-32.476-44.259-32.476z" fill="#fff"/>
 </g>
 <path d="m123.11 46.52c0 24.686-20.02 44.699-44.711 44.699s-44.704-20.013-44.704-44.699c0-24.694 20.013-44.709 44.704-44.709 24.691-0.0003 44.711 20.015 44.711 44.709"/>
 <path d="m38.779 46.519c0 21.916 17.771 39.686 39.689 39.686 21.922 0 39.692-17.77 39.692-39.686 0-21.921-17.77-39.689-39.692-39.689v-0.0001c-21.918 0-39.689 17.768-39.689 39.689" fill="url(#a)"/>
 <path d="m23.802 44.482h-7.626c-0.682 0-1.306 0.246-1.889 0.729-0.567 0.481-0.912 1.061-1.027 1.749l-0.899 5.153c-0.12 0.698 0.008 1.275 0.381 1.756 0.377 0.492 0.907 0.729 1.589 0.729h7.71c1.199 0 2.216 0.382 3.01 1.14 0.805 0.763 1.202 1.751 1.202 2.948 0 0.295-0.026 0.596-0.078 0.912l-15.058-0.047c-1.2336 0-2.2528-0.387-3.0473-1.153-0.8075-0.776-1.21-1.779-1.21-3.018 0-0.282 0.0262-0.578 0.0784-0.899l1.7641-10.101c0.2326-1.38 0.9277-2.537 2.0928-3.481 1.163-0.946 2.444-1.421 3.85-1.421h15.095c-0.225 1.385-0.925 2.576-2.086 3.562-1.16 0.982-2.446 1.468-3.852 1.442"/>
 <path stroke-linejoin="round" d="m23.802 44.482h-7.626c-0.682 0-1.306 0.246-1.889 0.729-0.567 0.481-0.912 1.061-1.027 1.749l-0.899 5.153c-0.12 0.698 0.008 1.275 0.381 1.756 0.377 0.492 0.907 0.729 1.589 0.729h7.71c1.199 0 2.216 0.382 3.01 1.14 0.805 0.763 1.202 1.751 1.202 2.948 0 0.295-0.026 0.596-0.078 0.912l-15.058-0.047c-1.2336 0-2.2528-0.387-3.0473-1.153-0.8075-0.776-1.21-1.779-1.21-3.018 0-0.282 0.0262-0.578 0.0784-0.899l1.7641-10.101c0.2326-1.38 0.9277-2.537 2.0928-3.481 1.163-0.946 2.444-1.421 3.85-1.421h15.095c-0.225 1.385-0.925 2.576-2.086 3.562-1.16 0.982-2.446 1.468-3.852 1.442z" stroke="#000" stroke-linecap="round" stroke-width="10.098" fill="none"/>
 <path d="m46.798 45.702c0.055-0.379-0.029-0.698-0.246-0.954-0.214-0.262-0.507-0.39-0.88-0.39h-7.443c-0.889 0-1.422 0.447-1.589 1.344-0.06 0.373 0.026 0.687 0.232 0.946 0.217 0.256 0.518 0.394 0.878 0.394h7.443c0.891 0 1.417-0.449 1.605-1.34m5.37-1.286-2.673 15.105c-1.228 0-2.263-0.384-3.094-1.16-0.829-0.777-1.25-1.78-1.25-3.014 0-0.282 0.034-0.588 0.092-0.896 0.112-0.672-0.026-1.244-0.426-1.73-0.405-0.489-0.951-0.727-1.644-0.727h-5.153c-0.698 0-1.331 0.23-1.898 0.703-0.575 0.479-0.912 1.054-1.027 1.754-0.266 1.432-0.943 2.632-2.043 3.612-1.106 0.975-2.381 1.458-3.811 1.458l2.669-15.105c0.253-1.383 0.959-2.567 2.101-3.575 1.152-1.006 2.428-1.506 3.828-1.506h10.156c1.236 0 2.239 0.398 3.029 1.187 0.792 0.786 1.184 1.8 1.184 3.037 0 0.394-0.014 0.684-0.04 0.857"/>
 <path stroke-linejoin="round" d="m46.798 45.702c0.055-0.379-0.029-0.698-0.246-0.954-0.214-0.262-0.507-0.39-0.88-0.39h-7.443c-0.889 0-1.422 0.447-1.589 1.344-0.06 0.373 0.026 0.687 0.232 0.946 0.217 0.256 0.518 0.394 0.878 0.394h7.443c0.891 0 1.417-0.449 1.605-1.34zm5.37-1.286-2.673 15.105c-1.228 0-2.263-0.384-3.094-1.16-0.829-0.777-1.25-1.78-1.25-3.014 0-0.282 0.034-0.588 0.092-0.896 0.112-0.672-0.026-1.244-0.426-1.73-0.405-0.489-0.951-0.727-1.644-0.727h-5.153c-0.698 0-1.331 0.23-1.898 0.703-0.575 0.479-0.912 1.054-1.027 1.754-0.266 1.432-0.943 2.632-2.043 3.612-1.106 0.975-2.381 1.458-3.811 1.458l2.669-15.105c0.253-1.383 0.959-2.567 2.101-3.575 1.152-1.006 2.428-1.506 3.828-1.506h10.156c1.236 0 2.239 0.398 3.029 1.187 0.792 0.786 1.184 1.8 1.184 3.037 0 0.394-0.014 0.684-0.04 0.857z" stroke="#000" stroke-linecap="round" stroke-width="10.098" fill="none"/>
 <path d="m61.747 44.357c-1.199 0-2.216-0.384-3.031-1.158-0.818-0.768-1.226-1.761-1.226-2.966 0-0.282 0.034-0.583 0.089-0.894h15.183c1.226 0 2.24 0.395 3.029 1.182 0.797 0.789 1.179 1.803 1.179 3.036 0 0.403-0.011 0.685-0.037 0.863l-0.431 2.485c-0.225 1.416-0.938 2.59-2.127 3.515-1.192 0.938-2.499 1.393-3.936 1.393h-7.618c-0.69 0-1.325 0.285-1.908 0.826-0.593 0.546-0.94 1.16-1.058 1.847-0.682 1.777-1.375 2.953-2.067 3.536-1.14 0.967-2.404 1.472-3.782 1.498l1.338-7.668c0.228-1.367 0.907-2.517 2.039-3.439 1.134-0.917 2.399-1.372 3.805-1.372h8.778c0.92 0 1.445-0.45 1.592-1.341 0.143-0.896-0.23-1.343-1.119-1.343z"/>
 <path stroke-linejoin="round" d="m61.747 44.357c-1.199 0-2.216-0.384-3.031-1.158-0.818-0.768-1.226-1.761-1.226-2.966 0-0.282 0.034-0.583 0.089-0.894h15.183c1.226 0 2.24 0.395 3.029 1.182 0.797 0.789 1.179 1.803 1.179 3.036 0 0.403-0.011 0.685-0.037 0.863l-0.431 2.485c-0.225 1.416-0.938 2.59-2.127 3.515-1.192 0.938-2.499 1.393-3.936 1.393h-7.618c-0.69 0-1.325 0.285-1.908 0.826-0.593 0.546-0.94 1.16-1.058 1.847-0.682 1.777-1.375 2.953-2.067 3.536-1.14 0.967-2.404 1.472-3.782 1.498l1.338-7.668c0.228-1.367 0.907-2.517 2.039-3.439 1.134-0.917 2.399-1.372 3.805-1.372h8.778c0.92 0 1.445-0.45 1.592-1.341 0.143-0.896-0.23-1.343-1.119-1.343z" stroke="#000" stroke-linecap="round" stroke-width="10.098" fill="none"/>
 <path d="m80.815 44.424c0.258-1.44 0.94-2.645 2.041-3.622 1.1-0.972 2.378-1.466 3.815-1.466l-2.665 15.152c-0.267 1.406-0.954 2.598-2.068 3.573-1.118 0.974-2.375 1.466-3.779 1.466z"/>
 <path stroke-linejoin="round" d="m80.815 44.424c0.258-1.44 0.94-2.645 2.041-3.622 1.1-0.972 2.378-1.466 3.815-1.466l-2.665 15.152c-0.267 1.406-0.954 2.598-2.068 3.573-1.118 0.974-2.375 1.466-3.779 1.466z" stroke="#000" stroke-linecap="round" stroke-width="10.098" fill="none"/>
 <path d="m93.322 44.424c-1.236 0-2.234-0.366-3.016-1.121-0.771-0.737-1.158-1.733-1.158-2.966 0-0.285 0.027-0.586 0.081-0.907h20.261c-0.26 1.382-0.97 2.558-2.17 3.531-1.18 0.977-2.48 1.463-3.88 1.463-0.69 0-1.32 0.28-1.89 0.821-0.57 0.535-0.93 1.157-1.03 1.845l-2.243 12.505h-5.13l2.2-12.505c0.107-0.688-0.031-1.31-0.415-1.845-0.384-0.539-0.925-0.821-1.61-0.821"/>
 <path stroke-linejoin="round" d="m93.322 44.424c-1.236 0-2.234-0.366-3.016-1.121-0.771-0.737-1.158-1.733-1.158-2.966 0-0.285 0.027-0.586 0.081-0.907h20.261c-0.26 1.382-0.97 2.558-2.17 3.531-1.18 0.977-2.48 1.463-3.88 1.463-0.69 0-1.32 0.28-1.89 0.821-0.57 0.535-0.93 1.157-1.03 1.845l-2.243 12.505h-5.13l2.2-12.505c0.107-0.688-0.031-1.31-0.415-1.845-0.384-0.539-0.925-0.821-1.61-0.821z" stroke="#000" stroke-linecap="round" stroke-width="10.098" fill="none"/>
 <path d="m126.02 45.702c0.06-0.379-0.02-0.698-0.23-0.954-0.21-0.262-0.52-0.39-0.89-0.39h-7.44c-0.88 0-1.42 0.447-1.59 1.344-0.05 0.373 0.03 0.687 0.24 0.946 0.21 0.256 0.51 0.394 0.88 0.394h7.44c0.89 0 1.42-0.449 1.59-1.34m5.38-1.286-2.67 15.105c-1.23 0-2.27-0.384-3.09-1.16-0.84-0.777-1.25-1.78-1.25-3.014 0-0.282 0.02-0.588 0.09-0.896 0.11-0.672-0.03-1.244-0.43-1.73-0.41-0.489-0.95-0.727-1.65-0.727h-5.15c-0.69 0-1.32 0.23-1.89 0.703-0.57 0.479-0.92 1.054-1.04 1.754-0.26 1.432-0.94 2.632-2.04 3.612-1.11 0.975-2.37 1.458-3.8 1.458l2.66-15.105c0.26-1.383 0.96-2.567 2.11-3.575 1.14-1.006 2.42-1.506 3.82-1.506h10.16c1.23 0 2.24 0.398 3.03 1.187 0.8 0.786 1.19 1.8 1.19 3.037 0 0.394-0.02 0.684-0.05 0.857"/>
 <path stroke-linejoin="round" d="m126.02 45.702c0.06-0.379-0.02-0.698-0.23-0.954-0.21-0.262-0.52-0.39-0.89-0.39h-7.44c-0.88 0-1.42 0.447-1.59 1.344-0.05 0.373 0.03 0.687 0.24 0.946 0.21 0.256 0.51 0.394 0.88 0.394h7.44c0.89 0 1.42-0.449 1.59-1.34zm5.38-1.286-2.67 15.105c-1.23 0-2.27-0.384-3.09-1.16-0.84-0.777-1.25-1.78-1.25-3.014 0-0.282 0.02-0.588 0.09-0.896 0.11-0.672-0.03-1.244-0.43-1.73-0.41-0.489-0.95-0.727-1.65-0.727h-5.15c-0.69 0-1.32 0.23-1.89 0.703-0.57 0.479-0.92 1.054-1.04 1.754-0.26 1.432-0.94 2.632-2.04 3.612-1.11 0.975-2.37 1.458-3.8 1.458l2.66-15.105c0.26-1.383 0.96-2.567 2.11-3.575 1.14-1.006 2.42-1.506 3.82-1.506h10.16c1.23 0 2.24 0.398 3.03 1.187 0.8 0.786 1.19 1.8 1.19 3.037 0 0.394-0.02 0.684-0.05 0.857z" stroke="#000" stroke-linecap="round" stroke-width="10.098" fill="none"/>
 <path d="m151.81 59.522h-12.6c-1.21 0-2.2-0.374-2.99-1.145-0.79-0.755-1.18-1.738-1.18-2.94 0-0.316 0.02-0.635 0.08-0.951l2.67-15.15c1.21 0 2.2 0.381 2.99 1.147 0.78 0.763 1.18 1.746 1.18 2.953 0 0.317-0.01 0.635-0.05 0.952l-1.37 7.429c-0.11 0.701 0.03 1.315 0.41 1.861 0.39 0.549 0.92 0.828 1.61 0.828h5.17c1.23 0 2.23 0.374 3.01 1.132 0.77 0.761 1.15 1.756 1.15 2.987 0 0.282-0.01 0.58-0.08 0.897"/>
 <path stroke-linejoin="round" d="m151.81 59.522h-12.6c-1.21 0-2.2-0.374-2.99-1.145-0.79-0.755-1.18-1.738-1.18-2.94 0-0.316 0.02-0.635 0.08-0.951l2.67-15.15c1.21 0 2.2 0.381 2.99 1.147 0.78 0.763 1.18 1.746 1.18 2.953 0 0.317-0.01 0.635-0.05 0.952l-1.37 7.429c-0.11 0.701 0.03 1.315 0.41 1.861 0.39 0.549 0.92 0.828 1.61 0.828h5.17c1.23 0 2.23 0.374 3.01 1.132 0.77 0.761 1.15 1.756 1.15 2.987 0 0.282-0.01 0.58-0.08 0.897z" stroke="#000" stroke-linecap="round" stroke-width="10.098" fill="none"/>
 <path d="m23.802 44.482h-7.626c-0.682 0-1.306 0.246-1.889 0.729-0.567 0.481-0.912 1.061-1.027 1.749l-0.899 5.153c-0.12 0.698 0.008 1.275 0.381 1.756 0.377 0.492 0.907 0.729 1.589 0.729h7.71c1.199 0 2.216 0.382 3.01 1.14 0.805 0.763 1.202 1.751 1.202 2.948 0 0.295-0.026 0.596-0.078 0.912l-15.058-0.047c-1.2336 0-2.2528-0.387-3.0473-1.153-0.8075-0.776-1.21-1.779-1.21-3.018 0-0.282 0.0262-0.578 0.0784-0.899l1.7641-10.101c0.2326-1.38 0.9277-2.537 2.0928-3.481 1.163-0.946 2.444-1.421 3.85-1.421h15.095c-0.225 1.385-0.925 2.576-2.086 3.562-1.16 0.982-2.446 1.468-3.852 1.442" fill="#fff"/>
 <path stroke-linejoin="round" d="m23.802 44.482h-7.626c-0.682 0-1.306 0.246-1.889 0.729-0.567 0.481-0.912 1.061-1.027 1.749l-0.899 5.153c-0.12 0.698 0.008 1.275 0.381 1.756 0.377 0.492 0.907 0.729 1.589 0.729h7.71c1.199 0 2.216 0.382 3.01 1.14 0.805 0.763 1.202 1.751 1.202 2.948 0 0.295-0.026 0.596-0.078 0.912l-15.058-0.047c-1.2336 0-2.2528-0.387-3.0473-1.153-0.8075-0.776-1.21-1.779-1.21-3.018 0-0.282 0.0262-0.578 0.0784-0.899l1.7641-10.101c0.2326-1.38 0.9277-2.537 2.0928-3.481 1.163-0.946 2.444-1.421 3.85-1.421h15.095c-0.225 1.385-0.925 2.576-2.086 3.562-1.16 0.982-2.446 1.468-3.852 1.442z" stroke="#fff" stroke-linecap="round" stroke-width=".44950" fill="none"/>
 <path d="m46.798 45.702c0.055-0.379-0.029-0.698-0.246-0.954-0.214-0.262-0.507-0.39-0.88-0.39h-7.443c-0.889 0-1.422 0.447-1.589 1.344-0.06 0.373 0.026 0.687 0.232 0.946 0.217 0.256 0.518 0.394 0.878 0.394h7.443c0.891 0 1.417-0.449 1.605-1.34m5.37-1.286-2.673 15.105c-1.228 0-2.263-0.384-3.094-1.16-0.829-0.777-1.25-1.78-1.25-3.014 0-0.282 0.034-0.588 0.092-0.896 0.112-0.672-0.026-1.244-0.426-1.73-0.405-0.489-0.951-0.727-1.644-0.727h-5.153c-0.698 0-1.331 0.23-1.898 0.703-0.575 0.479-0.912 1.054-1.027 1.754-0.266 1.432-0.943 2.632-2.043 3.612-1.106 0.975-2.381 1.458-3.811 1.458l2.669-15.105c0.253-1.383 0.959-2.567 2.101-3.575 1.152-1.006 2.428-1.506 3.828-1.506h10.156c1.236 0 2.239 0.398 3.029 1.187 0.792 0.786 1.184 1.8 1.184 3.037 0 0.394-0.014 0.684-0.04 0.857" fill="#fff"/>
 <path stroke-linejoin="round" d="m46.798 45.702c0.055-0.379-0.029-0.698-0.246-0.954-0.214-0.262-0.507-0.39-0.88-0.39h-7.443c-0.889 0-1.422 0.447-1.589 1.344-0.06 0.373 0.026 0.687 0.232 0.946 0.217 0.256 0.518 0.394 0.878 0.394h7.443c0.891 0 1.417-0.449 1.605-1.34zm5.37-1.286-2.673 15.105c-1.228 0-2.263-0.384-3.094-1.16-0.829-0.777-1.25-1.78-1.25-3.014 0-0.282 0.034-0.588 0.092-0.896 0.112-0.672-0.026-1.244-0.426-1.73-0.405-0.489-0.951-0.727-1.644-0.727h-5.153c-0.698 0-1.331 0.23-1.898 0.703-0.575 0.479-0.912 1.054-1.027 1.754-0.266 1.432-0.943 2.632-2.043 3.612-1.106 0.975-2.381 1.458-3.811 1.458l2.669-15.105c0.253-1.383 0.959-2.567 2.101-3.575 1.152-1.006 2.428-1.506 3.828-1.506h10.156c1.236 0 2.239 0.398 3.029 1.187 0.792 0.786 1.184 1.8 1.184 3.037 0 0.394-0.014 0.684-0.04 0.857z" stroke="#fff" stroke-linecap="round" stroke-width=".44950" fill="none"/>
 <path d="m61.747 44.357c-1.199 0-2.216-0.384-3.031-1.158-0.818-0.768-1.226-1.761-1.226-2.966 0-0.282 0.034-0.583 0.089-0.894h15.183c1.226 0 2.24 0.395 3.029 1.182 0.797 0.789 1.179 1.803 1.179 3.036 0 0.403-0.011 0.685-0.037 0.863l-0.431 2.485c-0.225 1.416-0.938 2.59-2.127 3.515-1.192 0.938-2.499 1.393-3.936 1.393h-7.618c-0.69 0-1.325 0.285-1.908 0.826-0.593 0.546-0.94 1.16-1.058 1.847-0.682 1.777-1.375 2.953-2.067 3.536-1.14 0.967-2.404 1.472-3.782 1.498l1.338-7.668c0.228-1.367 0.907-2.517 2.039-3.439 1.134-0.917 2.399-1.372 3.805-1.372h8.778c0.92 0 1.445-0.45 1.592-1.341 0.143-0.896-0.23-1.343-1.119-1.343z" fill="#fff"/>
 <path stroke-linejoin="round" d="m61.747 44.357c-1.199 0-2.216-0.384-3.031-1.158-0.818-0.768-1.226-1.761-1.226-2.966 0-0.282 0.034-0.583 0.089-0.894h15.183c1.226 0 2.24 0.395 3.029 1.182 0.797 0.789 1.179 1.803 1.179 3.036 0 0.403-0.011 0.685-0.037 0.863l-0.431 2.485c-0.225 1.416-0.938 2.59-2.127 3.515-1.192 0.938-2.499 1.393-3.936 1.393h-7.618c-0.69 0-1.325 0.285-1.908 0.826-0.593 0.546-0.94 1.16-1.058 1.847-0.682 1.777-1.375 2.953-2.067 3.536-1.14 0.967-2.404 1.472-3.782 1.498l1.338-7.668c0.228-1.367 0.907-2.517 2.039-3.439 1.134-0.917 2.399-1.372 3.805-1.372h8.778c0.92 0 1.445-0.45 1.592-1.341 0.143-0.896-0.23-1.343-1.119-1.343z" stroke="#fff" stroke-linecap="round" stroke-width=".44950" fill="none"/>
 <path d="m80.815 44.424c0.258-1.44 0.94-2.645 2.041-3.622 1.1-0.972 2.378-1.466 3.815-1.466l-2.665 15.152c-0.267 1.406-0.954 2.598-2.068 3.573-1.118 0.974-2.375 1.466-3.779 1.466z" fill="#fff"/>
 <path stroke-linejoin="round" d="m80.815 44.424c0.258-1.44 0.94-2.645 2.041-3.622 1.1-0.972 2.378-1.466 3.815-1.466l-2.665 15.152c-0.267 1.406-0.954 2.598-2.068 3.573-1.118 0.974-2.375 1.466-3.779 1.466z" stroke="#fff" stroke-linecap="round" stroke-width=".44950" fill="none"/>
 <path d="m93.322 44.424c-1.236 0-2.234-0.366-3.016-1.121-0.771-0.737-1.158-1.733-1.158-2.966 0-0.285 0.027-0.586 0.081-0.907h20.261c-0.26 1.382-0.97 2.558-2.17 3.531-1.18 0.977-2.48 1.463-3.88 1.463-0.69 0-1.32 0.28-1.89 0.821-0.57 0.535-0.93 1.157-1.03 1.845l-2.243 12.505h-5.13l2.2-12.505c0.107-0.688-0.031-1.31-0.415-1.845-0.384-0.539-0.925-0.821-1.61-0.821" fill="#fff"/>
 <path stroke-linejoin="round" d="m93.322 44.424c-1.236 0-2.234-0.366-3.016-1.121-0.771-0.737-1.158-1.733-1.158-2.966 0-0.285 0.027-0.586 0.081-0.907h20.261c-0.26 1.382-0.97 2.558-2.17 3.531-1.18 0.977-2.48 1.463-3.88 1.463-0.69 0-1.32 0.28-1.89 0.821-0.57 0.535-0.93 1.157-1.03 1.845l-2.243 12.505h-5.13l2.2-12.505c0.107-0.688-0.031-1.31-0.415-1.845-0.384-0.539-0.925-0.821-1.61-0.821z" stroke="#fff" stroke-linecap="round" stroke-width=".44950" fill="none"/>
 <path d="m126.02 45.702c0.06-0.379-0.02-0.698-0.23-0.954-0.21-0.262-0.52-0.39-0.89-0.39h-7.44c-0.88 0-1.42 0.447-1.59 1.344-0.05 0.373 0.03 0.687 0.24 0.946 0.21 0.256 0.51 0.394 0.88 0.394h7.44c0.89 0 1.42-0.449 1.59-1.34m5.38-1.286-2.67 15.105c-1.23 0-2.27-0.384-3.09-1.16-0.84-0.777-1.25-1.78-1.25-3.014 0-0.282 0.02-0.588 0.09-0.896 0.11-0.672-0.03-1.244-0.43-1.73-0.41-0.489-0.95-0.727-1.65-0.727h-5.15c-0.69 0-1.32 0.23-1.89 0.703-0.57 0.479-0.92 1.054-1.04 1.754-0.26 1.432-0.94 2.632-2.04 3.612-1.11 0.975-2.37 1.458-3.8 1.458l2.66-15.105c0.26-1.383 0.96-2.567 2.11-3.575 1.14-1.006 2.42-1.506 3.82-1.506h10.16c1.23 0 2.24 0.398 3.03 1.187 0.8 0.786 1.19 1.8 1.19 3.037 0 0.394-0.02 0.684-0.05 0.857" fill="#fff"/>
 <path stroke-linejoin="round" d="m126.02 45.702c0.06-0.379-0.02-0.698-0.23-0.954-0.21-0.262-0.52-0.39-0.89-0.39h-7.44c-0.88 0-1.42 0.447-1.59 1.344-0.05 0.373 0.03 0.687 0.24 0.946 0.21 0.256 0.51 0.394 0.88 0.394h7.44c0.89 0 1.42-0.449 1.59-1.34zm5.38-1.286-2.67 15.105c-1.23 0-2.27-0.384-3.09-1.16-0.84-0.777-1.25-1.78-1.25-3.014 0-0.282 0.02-0.588 0.09-0.896 0.11-0.672-0.03-1.244-0.43-1.73-0.41-0.489-0.95-0.727-1.65-0.727h-5.15c-0.69 0-1.32 0.23-1.89 0.703-0.57 0.479-0.92 1.054-1.04 1.754-0.26 1.432-0.94 2.632-2.04 3.612-1.11 0.975-2.37 1.458-3.8 1.458l2.66-15.105c0.26-1.383 0.96-2.567 2.11-3.575 1.14-1.006 2.42-1.506 3.82-1.506h10.16c1.23 0 2.24 0.398 3.03 1.187 0.8 0.786 1.19 1.8 1.19 3.037 0 0.394-0.02 0.684-0.05 0.857z" stroke="#fff" stroke-linecap="round" stroke-width=".44950" fill="none"/>
 <path d="m151.81 59.522h-12.6c-1.21 0-2.2-0.374-2.99-1.145-0.79-0.755-1.18-1.738-1.18-2.94 0-0.316 0.02-0.635 0.08-0.951l2.67-15.15c1.21 0 2.2 0.381 2.99 1.147 0.78 0.763 1.18 1.746 1.18 2.953 0 0.317-0.01 0.635-0.05 0.952l-1.37 7.429c-0.11 0.701 0.03 1.315 0.41 1.861 0.39 0.549 0.92 0.828 1.61 0.828h5.17c1.23 0 2.23 0.374 3.01 1.132 0.77 0.761 1.15 1.756 1.15 2.987 0 0.282-0.01 0.58-0.08 0.897" fill="#fff"/>
 <path stroke-linejoin="round" d="m151.81 59.522h-12.6c-1.21 0-2.2-0.374-2.99-1.145-0.79-0.755-1.18-1.738-1.18-2.94 0-0.316 0.02-0.635 0.08-0.951l2.67-15.15c1.21 0 2.2 0.381 2.99 1.147 0.78 0.763 1.18 1.746 1.18 2.953 0 0.317-0.01 0.635-0.05 0.952l-1.37 7.429c-0.11 0.701 0.03 1.315 0.41 1.861 0.39 0.549 0.92 0.828 1.61 0.828h5.17c1.23 0 2.23 0.374 3.01 1.132 0.77 0.761 1.15 1.756 1.15 2.987 0 0.282-0.01 0.58-0.08 0.897z" stroke="#fff" stroke-linecap="round" stroke-width=".44950" fill="none"/>
 <g>
  <path d="m27.993 52.232h-11.781v-5.104h11.781z"/>
  <path d="m25.632 64.65s4.254-0.016 4.774-0.144c0.518-0.123-0.345-0.413-0.345-0.413l-2.32-0.143-1.78-0.058-0.308 0.481z"/>
  <path d="m49.192 64.57c0.687 0.078 3.729 0.112 5.117-0.013 1.393-0.118-0.013-0.442-0.013-0.442l-2.491-0.564-1.539 0.256-1.215 0.408s-0.084 0.321 0.141 0.355"/>
  <path d="m86.129 34.295c1.21-0.065 5.807 0.079 6.921 0.089 0.629 0.003-2.987 0.525-2.987 0.525s-0.946 0.194-1.022 0.194c-0.092 0-2.29 0.35-2.29 0.35l-1.497-0.139-1.132-0.407s0.798-0.544 2.007-0.612"/>
  <path d="m121.83 64.993c0.21 0 0.39-0.023 0.39-0.256 0-0.188-0.2-0.206-0.36-0.206h-0.34v0.462zm-0.31 0.902h-0.28v-1.586h0.64c0.4 0 0.6 0.128 0.6 0.462 0 0.277-0.18 0.397-0.42 0.429l0.46 0.695h-0.31l-0.43-0.677h-0.26zm0.3-2.007c-0.66 0-1.16 0.491-1.16 1.184 0 0.658 0.44 1.186 1.16 1.186 0.65 0 1.15-0.483 1.15-1.186 0-0.693-0.5-1.184-1.15-1.184m0 2.616c-0.87 0-1.48-0.609-1.48-1.432 0-0.857 0.68-1.43 1.48-1.43 0.79 0 1.48 0.573 1.48 1.43 0 0.862-0.69 1.432-1.48 1.432"/>
  <path d="m74.325 22.828c0.021-0.123-0.008-0.217-0.073-0.303-0.071-0.081-0.17-0.123-0.293-0.123l-2.388 0.013c-0.293 0.003-0.46 0.149-0.512 0.429-0.014 0.122 0.015 0.224 0.086 0.311 0.065 0.078 0.159 0.117 0.274 0.117l2.397-0.01c0.284 0 0.454-0.141 0.509-0.434m1.722-0.41-0.831 4.86c-0.397 0-0.734-0.122-0.995-0.376-0.269-0.251-0.413-0.567-0.413-0.969 0-0.092 0.01-0.186 0.031-0.288 0.039-0.222-0.008-0.402-0.146-0.557-0.12-0.154-0.303-0.232-0.525-0.232l-1.65 0.002c-0.227 0-0.426 0.079-0.616 0.233-0.186 0.152-0.29 0.34-0.332 0.57-0.076 0.46-0.288 0.846-0.651 1.171-0.35 0.31-0.758 0.473-1.218 0.473l0.837-4.861c0.078-0.447 0.308-0.826 0.671-1.155 0.369-0.322 0.776-0.481 1.234-0.487l3.264-0.013c0.394-0.005 0.718 0.123 0.972 0.372 0.253 0.253 0.379 0.58 0.381 0.98 0 0.122-0.002 0.216-0.013 0.277"/>
 </g>
 <path stroke-linejoin="round" d="m74.325 22.828c0.021-0.123-0.008-0.217-0.073-0.303-0.071-0.081-0.17-0.123-0.293-0.123l-2.388 0.013c-0.293 0.003-0.46 0.149-0.512 0.429-0.014 0.122 0.015 0.224 0.086 0.311 0.065 0.078 0.159 0.117 0.274 0.117l2.397-0.01c0.284 0 0.454-0.141 0.509-0.434zm1.722-0.41-0.831 4.86c-0.397 0-0.734-0.122-0.995-0.376-0.269-0.251-0.413-0.567-0.413-0.969 0-0.092 0.01-0.186 0.031-0.288 0.039-0.222-0.008-0.402-0.146-0.557-0.12-0.154-0.303-0.232-0.525-0.232l-1.65 0.002c-0.227 0-0.426 0.079-0.616 0.233-0.186 0.152-0.29 0.34-0.332 0.57-0.076 0.46-0.288 0.846-0.651 1.171-0.35 0.31-0.758 0.473-1.218 0.473l0.837-4.861c0.078-0.447 0.308-0.826 0.671-1.155 0.369-0.322 0.776-0.481 1.234-0.487l3.264-0.013c0.394-0.005 0.718 0.123 0.972 0.372 0.253 0.253 0.379 0.58 0.381 0.98 0 0.122-0.002 0.216-0.013 0.277z" stroke="#000" stroke-linecap="round" stroke-width="3.9174" fill="none"/>
 <path d="m82.807 23.226c0.04-0.225-0.007-0.413-0.125-0.599-0.118-0.169-0.293-0.258-0.523-0.258l-2.435 0.013-0.424 2.401c-0.039 0.217 0.008 0.424 0.123 0.591 0.128 0.186 0.298 0.277 0.531 0.272l1.654-0.005c0.227-0.006 0.431-0.092 0.601-0.272 0.172-0.162 0.282-0.374 0.334-0.601zm-5.537 4.045 1.126-6.496 4.887-0.021c0.384-0.006 0.721 0.122 0.975 0.376 0.245 0.248 0.379 0.575 0.379 0.97 0 0.133 0 0.219-0.008 0.279l-0.572 3.241c-0.084 0.452-0.306 0.833-0.654 1.15-0.363 0.318-0.773 0.478-1.231 0.478z"/>
 <path stroke-linejoin="round" d="m82.807 23.226c0.04-0.225-0.007-0.413-0.125-0.599-0.118-0.169-0.293-0.258-0.523-0.258l-2.435 0.013-0.424 2.401c-0.039 0.217 0.008 0.424 0.123 0.591 0.128 0.186 0.298 0.277 0.531 0.272l1.654-0.005c0.227-0.006 0.431-0.092 0.601-0.272 0.172-0.162 0.282-0.374 0.334-0.601zm-5.537 4.045 1.126-6.496 4.887-0.021c0.384-0.006 0.721 0.122 0.975 0.376 0.245 0.248 0.379 0.575 0.379 0.97 0 0.133 0 0.219-0.008 0.279l-0.572 3.241c-0.084 0.452-0.306 0.833-0.654 1.15-0.363 0.318-0.773 0.478-1.231 0.478z" stroke="#000" stroke-linecap="round" stroke-width="3.9174" fill="none"/>
 <path d="m86.649 22.369c0.081-0.468 0.298-0.852 0.656-1.163 0.356-0.308 0.761-0.47 1.223-0.478l-0.841 4.869c-0.076 0.46-0.293 0.852-0.654 1.163-0.355 0.308-0.765 0.47-1.217 0.473z"/>
 <path stroke-linejoin="round" d="m86.649 22.369c0.081-0.468 0.298-0.852 0.656-1.163 0.356-0.308 0.761-0.47 1.223-0.478l-0.841 4.869c-0.076 0.46-0.293 0.852-0.654 1.163-0.355 0.308-0.765 0.47-1.217 0.473z" stroke="#000" stroke-linecap="round" stroke-width="3.9174" fill="none"/>
 <path d="m91.512 23.191-0.28 1.539c-0.034 0.225 0.003 0.426 0.125 0.606 0.118 0.173 0.293 0.262 0.534 0.262l1.651-0.008c0.23 0 0.434-0.087 0.609-0.267 0.167-0.167 0.272-0.374 0.322-0.614l0.269-1.529c0.039-0.227-0.005-0.421-0.128-0.593-0.118-0.178-0.293-0.272-0.526-0.272l-1.646 0.008c-0.225 0-0.431 0.094-0.601 0.267-0.18 0.169-0.282 0.371-0.329 0.601m-2.02 2.396 0.551-3.235c0.081-0.442 0.311-0.821 0.674-1.148 0.371-0.321 0.782-0.488 1.231-0.491l3.262-0.013c0.397 0 0.729 0.128 0.982 0.374 0.248 0.258 0.374 0.583 0.374 0.985 0.008 0.12-0.003 0.214-0.013 0.264l-0.565 3.243c-0.075 0.457-0.3 0.842-0.661 1.15-0.353 0.324-0.766 0.491-1.226 0.491l-3.251 0.006c-0.386 0-0.726-0.126-0.982-0.377-0.269-0.251-0.397-0.575-0.405-0.977 0-0.081 0.013-0.175 0.029-0.272"/>
 <path stroke-linejoin="round" d="m91.512 23.191-0.28 1.539c-0.034 0.225 0.003 0.426 0.125 0.606 0.118 0.173 0.293 0.262 0.534 0.262l1.651-0.008c0.23 0 0.434-0.087 0.609-0.267 0.167-0.167 0.272-0.374 0.322-0.614l0.269-1.529c0.039-0.227-0.005-0.421-0.128-0.593-0.118-0.178-0.293-0.272-0.526-0.272l-1.646 0.008c-0.225 0-0.431 0.094-0.601 0.267-0.18 0.169-0.282 0.371-0.329 0.601zm-2.02 2.396 0.551-3.235c0.081-0.442 0.311-0.821 0.674-1.148 0.371-0.321 0.782-0.488 1.231-0.491l3.262-0.013c0.397 0 0.729 0.128 0.982 0.374 0.248 0.258 0.374 0.583 0.374 0.985 0.008 0.12-0.003 0.214-0.013 0.264l-0.565 3.243c-0.075 0.457-0.3 0.842-0.661 1.15-0.353 0.324-0.766 0.491-1.226 0.491l-3.251 0.006c-0.386 0-0.726-0.126-0.982-0.377-0.269-0.251-0.397-0.575-0.405-0.977 0-0.081 0.013-0.175 0.029-0.272z" stroke="#000" stroke-linecap="round" stroke-width="3.9174" fill="none"/>
 <path d="m67.457 21.204c-0.259-0.256-0.588-0.379-0.983-0.379l-4.884 0.019c-0.016 0.101-0.019 0.193-0.019 0.287 0 0.384 0.128 0.695 0.398 0.951 0.253 0.243 0.58 0.364 0.972 0.364l2.791-0.008c0.285-0.006 0.408 0.143 0.361 0.426-0.042 0.29-0.21 0.433-0.51 0.441l-2.815 0.003c-0.457 0.003-0.859 0.152-1.223 0.449-0.366 0.293-0.582 0.664-0.658 1.108l-0.411 2.467c0.437-0.013 0.839-0.167 1.205-0.488 0.228-0.194 0.439-0.565 0.661-1.137 0.045-0.225 0.152-0.429 0.343-0.598 0.115-0.115 0.245-0.129 0.373-0.168l0.236 0.23 1.319 1.592c0.369 0.449 0.892 0.671 1.555 0.671h1.336l-2.154-2.605h0.395c0.457 0 0.881-0.157 1.262-0.452 0.384-0.298 0.612-0.68 0.677-1.132l0.131-0.799c0.015-0.058 0.015-0.147 0.015-0.275 0-0.397-0.12-0.721-0.373-0.967"/>
 <path stroke-linejoin="round" d="m67.457 21.204c-0.259-0.256-0.588-0.379-0.983-0.379l-4.884 0.019c-0.016 0.101-0.019 0.193-0.019 0.287 0 0.384 0.128 0.695 0.398 0.951 0.253 0.243 0.58 0.364 0.972 0.364l2.791-0.008c0.285-0.006 0.408 0.143 0.361 0.426-0.042 0.29-0.21 0.433-0.51 0.441l-2.815 0.003c-0.457 0.003-0.859 0.152-1.223 0.449-0.366 0.293-0.582 0.664-0.658 1.108l-0.411 2.467c0.437-0.013 0.839-0.167 1.205-0.488 0.228-0.194 0.439-0.565 0.661-1.137 0.045-0.225 0.152-0.429 0.343-0.598 0.115-0.115 0.245-0.129 0.373-0.168l0.236 0.23 1.319 1.592c0.369 0.449 0.892 0.671 1.555 0.671h1.336l-2.154-2.605h0.395c0.457 0 0.881-0.157 1.262-0.452 0.384-0.298 0.612-0.68 0.677-1.132l0.131-0.799c0.015-0.058 0.015-0.147 0.015-0.275 0-0.397-0.12-0.721-0.373-0.967z" stroke="#000" stroke-linecap="round" stroke-width="3.9174" fill="none"/>
 <path d="m74.325 22.828c0.021-0.123-0.008-0.217-0.073-0.303-0.071-0.081-0.17-0.123-0.293-0.123l-2.388 0.013c-0.293 0.003-0.46 0.149-0.512 0.429-0.014 0.122 0.015 0.224 0.086 0.311 0.065 0.078 0.159 0.117 0.274 0.117l2.397-0.01c0.284 0 0.454-0.141 0.509-0.434m1.722-0.41-0.831 4.86c-0.397 0-0.734-0.122-0.995-0.376-0.269-0.251-0.413-0.567-0.413-0.969 0-0.092 0.01-0.186 0.031-0.288 0.039-0.222-0.008-0.402-0.146-0.557-0.12-0.154-0.303-0.232-0.525-0.232l-1.65 0.002c-0.227 0-0.426 0.079-0.616 0.233-0.186 0.152-0.29 0.34-0.332 0.57-0.076 0.46-0.288 0.846-0.651 1.171-0.35 0.31-0.758 0.473-1.218 0.473l0.837-4.861c0.078-0.447 0.308-0.826 0.671-1.155 0.369-0.322 0.776-0.481 1.234-0.487l3.264-0.013c0.394-0.005 0.718 0.123 0.972 0.372 0.253 0.253 0.379 0.58 0.381 0.98 0 0.122-0.002 0.216-0.013 0.277" fill="#fff"/>
 <path stroke-linejoin="round" d="m74.325 22.828c0.021-0.123-0.008-0.217-0.073-0.303-0.071-0.081-0.17-0.123-0.293-0.123l-2.388 0.013c-0.293 0.003-0.46 0.149-0.512 0.429-0.014 0.122 0.015 0.224 0.086 0.311 0.065 0.078 0.159 0.117 0.274 0.117l2.397-0.01c0.284 0 0.454-0.141 0.509-0.434zm1.722-0.41-0.831 4.86c-0.397 0-0.734-0.122-0.995-0.376-0.269-0.251-0.413-0.567-0.413-0.969 0-0.092 0.01-0.186 0.031-0.288 0.039-0.222-0.008-0.402-0.146-0.557-0.12-0.154-0.303-0.232-0.525-0.232l-1.65 0.002c-0.227 0-0.426 0.079-0.616 0.233-0.186 0.152-0.29 0.34-0.332 0.57-0.076 0.46-0.288 0.846-0.651 1.171-0.35 0.31-0.758 0.473-1.218 0.473l0.837-4.861c0.078-0.447 0.308-0.826 0.671-1.155 0.369-0.322 0.776-0.481 1.234-0.487l3.264-0.013c0.394-0.005 0.718 0.123 0.972 0.372 0.253 0.253 0.379 0.58 0.381 0.98 0 0.122-0.002 0.216-0.013 0.277z" stroke="#fff" stroke-linecap="round" stroke-width=".15419" fill="none"/>
 <path d="m82.807 23.226c0.04-0.225-0.007-0.413-0.125-0.599-0.118-0.169-0.293-0.258-0.523-0.258l-2.435 0.013-0.424 2.401c-0.039 0.217 0.008 0.424 0.123 0.591 0.128 0.186 0.298 0.277 0.531 0.272l1.654-0.005c0.227-0.006 0.431-0.092 0.601-0.272 0.172-0.162 0.282-0.374 0.334-0.601zm-5.537 4.045 1.126-6.496 4.887-0.021c0.384-0.006 0.721 0.122 0.975 0.376 0.245 0.248 0.379 0.575 0.379 0.97 0 0.133 0 0.219-0.008 0.279l-0.572 3.241c-0.084 0.452-0.306 0.833-0.654 1.15-0.363 0.318-0.773 0.478-1.231 0.478z" fill="#fff"/>
 <path stroke-linejoin="round" d="m82.807 23.226c0.04-0.225-0.007-0.413-0.125-0.599-0.118-0.169-0.293-0.258-0.523-0.258l-2.435 0.013-0.424 2.401c-0.039 0.217 0.008 0.424 0.123 0.591 0.128 0.186 0.298 0.277 0.531 0.272l1.654-0.005c0.227-0.006 0.431-0.092 0.601-0.272 0.172-0.162 0.282-0.374 0.334-0.601zm-5.537 4.045 1.126-6.496 4.887-0.021c0.384-0.006 0.721 0.122 0.975 0.376 0.245 0.248 0.379 0.575 0.379 0.97 0 0.133 0 0.219-0.008 0.279l-0.572 3.241c-0.084 0.452-0.306 0.833-0.654 1.15-0.363 0.318-0.773 0.478-1.231 0.478z" stroke="#fff" stroke-linecap="round" stroke-width=".15419" fill="none"/>
 <path d="m86.649 22.369c0.081-0.468 0.298-0.852 0.656-1.163 0.356-0.308 0.761-0.47 1.223-0.478l-0.841 4.869c-0.076 0.46-0.293 0.852-0.654 1.163-0.355 0.308-0.765 0.47-1.217 0.473z" fill="#fff"/>
 <path stroke-linejoin="round" d="m86.649 22.369c0.081-0.468 0.298-0.852 0.656-1.163 0.356-0.308 0.761-0.47 1.223-0.478l-0.841 4.869c-0.076 0.46-0.293 0.852-0.654 1.163-0.355 0.308-0.765 0.47-1.217 0.473z" stroke="#fff" stroke-linecap="round" stroke-width=".15419" fill="none"/>
 <path d="m91.512 23.191-0.28 1.539c-0.034 0.225 0.003 0.426 0.125 0.606 0.118 0.173 0.293 0.262 0.534 0.262l1.651-0.008c0.23 0 0.434-0.087 0.609-0.267 0.167-0.167 0.272-0.374 0.322-0.614l0.269-1.529c0.039-0.227-0.005-0.421-0.128-0.593-0.118-0.178-0.293-0.272-0.526-0.272l-1.646 0.008c-0.225 0-0.431 0.094-0.601 0.267-0.18 0.169-0.282 0.371-0.329 0.601m-2.02 2.396 0.551-3.235c0.081-0.442 0.311-0.821 0.674-1.148 0.371-0.321 0.782-0.488 1.231-0.491l3.262-0.013c0.397 0 0.729 0.128 0.982 0.374 0.248 0.258 0.374 0.583 0.374 0.985 0.008 0.12-0.003 0.214-0.013 0.264l-0.565 3.243c-0.075 0.457-0.3 0.842-0.661 1.15-0.353 0.324-0.766 0.491-1.226 0.491l-3.251 0.006c-0.386 0-0.726-0.126-0.982-0.377-0.269-0.251-0.397-0.575-0.405-0.977 0-0.081 0.013-0.175 0.029-0.272" fill="#fff"/>
 <path stroke-linejoin="round" d="m91.512 23.191-0.28 1.539c-0.034 0.225 0.003 0.426 0.125 0.606 0.118 0.173 0.293 0.262 0.534 0.262l1.651-0.008c0.23 0 0.434-0.087 0.609-0.267 0.167-0.167 0.272-0.374 0.322-0.614l0.269-1.529c0.039-0.227-0.005-0.421-0.128-0.593-0.118-0.178-0.293-0.272-0.526-0.272l-1.646 0.008c-0.225 0-0.431 0.094-0.601 0.267-0.18 0.169-0.282 0.371-0.329 0.601zm-2.02 2.396 0.551-3.235c0.081-0.442 0.311-0.821 0.674-1.148 0.371-0.321 0.782-0.488 1.231-0.491l3.262-0.013c0.397 0 0.729 0.128 0.982 0.374 0.248 0.258 0.374 0.583 0.374 0.985 0.008 0.12-0.003 0.214-0.013 0.264l-0.565 3.243c-0.075 0.457-0.3 0.842-0.661 1.15-0.353 0.324-0.766 0.491-1.226 0.491l-3.251 0.006c-0.386 0-0.726-0.126-0.982-0.377-0.269-0.251-0.397-0.575-0.405-0.977 0-0.081 0.013-0.175 0.029-0.272z" stroke="#fff" stroke-linecap="round" stroke-width=".15419" fill="none"/>
 <path d="m67.457 21.204c-0.259-0.256-0.588-0.379-0.983-0.379l-4.884 0.019c-0.016 0.101-0.019 0.193-0.019 0.287 0 0.384 0.128 0.695 0.398 0.951 0.253 0.243 0.58 0.364 0.972 0.364l2.791-0.008c0.285-0.006 0.408 0.143 0.361 0.426-0.042 0.29-0.21 0.433-0.51 0.441l-2.815 0.003c-0.457 0.003-0.859 0.152-1.223 0.449-0.366 0.293-0.582 0.664-0.658 1.108l-0.411 2.467c0.437-0.013 0.839-0.167 1.205-0.488 0.228-0.194 0.439-0.565 0.661-1.137 0.045-0.225 0.152-0.429 0.343-0.598 0.115-0.115 0.245-0.129 0.373-0.168l0.236 0.23 1.319 1.592c0.369 0.449 0.892 0.671 1.555 0.671h1.336l-2.154-2.605h0.395c0.457 0 0.881-0.157 1.262-0.452 0.384-0.298 0.612-0.68 0.677-1.132l0.131-0.799c0.015-0.058 0.015-0.147 0.015-0.275 0-0.397-0.12-0.721-0.373-0.967" fill="#fff"/>
 <path stroke-linejoin="round" d="m67.457 21.204c-0.259-0.256-0.588-0.379-0.983-0.379l-4.884 0.019c-0.016 0.101-0.019 0.193-0.019 0.287 0 0.384 0.128 0.695 0.398 0.951 0.253 0.243 0.58 0.364 0.972 0.364l2.791-0.008c0.285-0.006 0.408 0.143 0.361 0.426-0.042 0.29-0.21 0.433-0.51 0.441l-2.815 0.003c-0.457 0.003-0.859 0.152-1.223 0.449-0.366 0.293-0.582 0.664-0.658 1.108l-0.411 2.467c0.437-0.013 0.839-0.167 1.205-0.488 0.228-0.194 0.439-0.565 0.661-1.137 0.045-0.225 0.152-0.429 0.343-0.598 0.115-0.115 0.245-0.129 0.373-0.168l0.236 0.23 1.319 1.592c0.369 0.449 0.892 0.671 1.555 0.671h1.336l-2.154-2.605h0.395c0.457 0 0.881-0.157 1.262-0.452 0.384-0.298 0.612-0.68 0.677-1.132l0.131-0.799c0.015-0.058 0.015-0.147 0.015-0.275 0-0.397-0.12-0.721-0.373-0.967z" stroke="#fff" stroke-linecap="round" stroke-width=".15419" fill="none"/>
</svg>
