<svg width="802.67mm" height="220mm" version="1.1" viewBox="0 0 802.67 220" xml:space="preserve" xmlns="http://www.w3.org/2000/svg">
	<defs>
		<radialGradient id="a" cx="0" cy="0" r="1" gradientTransform="matrix(253.17 0 0 253.17 61.036 128.35)" gradientUnits="userSpaceOnUse">
			<stop stop-color="#80CEF3" offset=".22"/>
			<stop stop-color="#7AC8EF" offset=".34"/>
			<stop stop-color="#69B8E4" offset=".49"/>
			<stop stop-color="#4E9ED1" offset=".66"/>
			<stop stop-color="#2879B7" offset=".85"/>
			<stop stop-color="#03559E" offset="1"/>
		</radialGradient>
	</defs>
	<g transform="translate(-90.752 -143.4)">
			<path d="m104.79 188.13h187.23v132.62h-187.23z" fill="#fff" stroke-width="1.643"/>
			<path d="m224.22 209.59h-3.1185v-4.763h3.1185c0.91299 0 1.6499 0.18717 2.2 0.55088 0.55004 0.36377 0.73152 1.0996 0.73152 1.8314a2.354 2.354 0 0 1-0.73152 1.8314 3.905 3.905 0 0 1-2.2 0.55085zm-15.95-4.0315-2.387 6.2314h4.7685zm-58.668 0-2.3815 6.2314h4.763zm6.9685 38.682c-2.75-2.0122-6.4185-3.1131-11.368-3.1131h-15.582v24.2h15.582c4.95 0 8.6185-0.91882 11.368-3.1185 2.75-2.0185 4.0315-5.1316 4.0315-8.9814 0-3.85-1.2816-6.7871-4.0315-8.987zm154.18-100.83v220h-220v-220zm-54.632 66.732c0 1.0996 0.18088 2.1999 0.55003 3.1185 0.36295 0.73171 0.913 1.6505 1.6499 2.3814 0.73152 0.73797 1.463 1.2867 2.563 1.6505 0.9186 0.36794 2.0185 0.55084 3.1185 0.55084 1.1001 0 2.2-0.18716 3.1185-0.55084a7.678 7.678 0 0 0 4.213-4.0315c0.36856-0.91879 0.55005-2.0184 0.55005-3.1185 0-1.0996-0.18089-2.1999-0.55005-3.1129-0.36295-0.91881-0.91299-1.8376-1.6499-2.387a6.215 6.215 0 0 0-2.563-1.6505 8.5745 8.5745 0 0 0-3.1185-0.55088c-1.1001 0-2.2 0.18716-3.1185 0.55088a7.7 7.7 0 0 0-2.563 1.6505 6.9685 6.9685 0 0 0-1.6499 2.387c-0.36854 0.91257-0.55003 2.0122-0.55003 3.1129zm-16.5 7.3369h2.75v-10.818l7.7 10.818h2.9315v-14.85h-2.5685v10.813l-7.8815-10.813h-2.9315zm-6.237 0.18717h2.5685v-15.031h-2.5685zm-14.663-0.18717h2.563v-5.687h3.1185l3.3 5.687h2.9315l-3.4815-6.05a5.005 5.005 0 0 0 2.2-1.6505c0.55004-0.73795 0.73152-1.6505 0.73152-2.5685a4.2075 4.2075 0 0 0-0.73152-2.5685 5.203 5.203 0 0 0-1.8316-1.6505 6.985 6.985 0 0 0-2.937-0.55087h-5.863zm-17.968 0h2.75l1.4684-3.4869h6.6l1.2816 3.4869h2.75l-6.05-15.037h-2.75zm-18.15 0h2.5685v-11.187l4.213 8.6185h2.0185l4.2185-8.6185v11.187h2.563v-14.85h-3.3l-4.5815 9.5314-4.4-9.5314h-3.3zm-22.919 0h2.5685v-10.818l7.8815 10.818h2.937v-14.85h-2.5685v10.813l-7.8815-10.813h-2.937zm-17.6 0h2.75l1.4684-3.4869h6.6l1.2816 3.4869h2.75l-6.05-15.037h-2.75zm-4.4-3.6684c0 0.36794-0.18089 0.73173-0.36296 1.0997a2.6015 2.6015 0 0 0-1.1 0.36791c-0.36857 0.18716-0.91841 0.18716-1.4684 0.18716-0.36858 0-0.9186 0-1.2816-0.18716-0.36853-0.18716-0.91859-0.36791-1.2869-0.55085a5.577 5.577 0 0 1-1.2816-0.91881l-1.2815 2.0185c0.73151 0.55088 1.6499 1.0996 2.563 1.4634a7.5955 7.5955 0 0 0 5.6815 0 3.828 3.828 0 0 0 1.837-1.4634c0.36857-0.73795 0.73152-1.4676 0.73152-2.1999a3.6575 3.6575 0 0 0-0.36295-1.6505 3.289 3.289 0 0 0-0.91859-1.2868c-0.36855-0.36377-0.91838-0.55085-1.4684-0.91254-0.55003-0.18716-0.91297-0.55088-1.463-0.73796a5.478 5.478 0 0 1-1.4684-0.73173c-0.36857-0.18716-0.73152-0.55085-1.1001-0.73171-0.18089-0.36794-0.36854-0.73588-0.36854-1.0996 0-0.36794 0.18716-0.73796 0.36854-0.91882 0.18089-0.36793 0.55006-0.55084 0.91841-0.55084 0.36295-0.18717 0.73149-0.18717 1.2816-0.18717 0.55002 0 0.9186 0 1.4684 0.18717 0.55004 0.18716 1.1001 0.36794 1.463 0.7317l1.1-2.1999a10.34 10.34 0 0 0-2.2-0.73173c-0.73149-0.18716-1.463-0.18716-2.013-0.18716-0.91838 0-1.837 0.18716-2.5685 0.55086-0.73152 0.36377-1.2816 0.91257-1.8316 1.4634-0.36858 0.54878-0.55004 1.2867-0.55004 2.1999 0 0.73585 0.18089 1.2867 0.36295 1.6505 0.18717 0.55085 0.55003 0.91879 0.91838 1.0996 0.36857 0.36794 0.91838 0.55085 1.2816 0.91879 0.55003 0.18716 0.91838 0.36794 1.4684 0.73174 0.55006 0.18716 1.1001 0.36791 1.4684 0.73585 0.55004 0.18716 0.91298 0.55087 1.1001 0.73173 0.36295 0.36792 0.36295 0.73171 0.36295 1.0996zm39.419 90.75-17.782-30.432c4.763-1.6505 8.4315-4.3998 11-7.8869 2.563-3.663 3.85-8.063 3.85-13.2 0-5.1316-1.1001-9.1631-3.3-12.65-2.2-3.4815-5.5-6.2314-9.537-8.063-4.213-1.8376-9.163-2.75-15.032-2.75h-29.882v74.981h13.2v-28.231h16.313l16.5 28.231zm29.15-63.432h22.732l-4.5815-11.737h-54.819l6.787 11.737h16.682v63.432h13.2zm78.832-11.737h-13.932l-23.282 60.319-17.05-44h-13.75l23.65 58.85h14.113zm-24.75-15.4c0.55003 0.36794 1.1001 0.91879 1.6499 1.0996 0.55003 0.18716 1.2869 0.36794 2.0184 0.36794 0.73152 0 1.4684-0.18716 2.0185-0.36794 0.73151-0.18716 1.1001-0.55088 1.6499-1.0996a2.6675 2.6675 0 0 0 1.1001-1.6505c0.18089-0.73171 0.36294-1.4634 0.36294-2.1999 0-0.7317-0.18088-1.4634-0.36294-2.1999-0.36855-0.55087-0.55003-1.0996-1.1001-1.6505-0.55003-0.3638-1.1001-0.91257-1.6499-1.0996a6.6 6.6 0 0 0-2.0185-0.3638 6.6 6.6 0 0 0-2.0184 0.3638c-0.73152 0.18716-1.1001 0.55084-1.6499 1.0996a2.673 2.673 0 0 0-1.1001 1.6505c-0.18088 0.54877-0.36295 1.2867-0.36295 2.1999 0 0.73588 0.1809 1.4676 0.36295 2.1999 0.36857 0.55087 0.55006 1.0996 1.1001 1.6505z" fill="url(#a)" stroke-width="5.5"/>
		<g transform="matrix(2.7283 0 0 2.7283 -156.85 -247.85)" fill="#03559e">
			<path d="m296.2 223.91c-1.2055 0-2.2759-0.2682-3.2133-0.80641a5.8461 5.8461 0 0 1-2.2074-2.2175 6.1545 6.1545 0 0 1-0.8023-3.1569c0-1.1429 0.26591-2.2175 0.8023-3.1589a5.8461 5.8461 0 0 1 2.2074-2.2175c0.93738-0.53791 2.0078-0.80633 3.2133-0.80633 1.2035 0 2.2739 0.26819 3.2114 0.80633 0.93738 0.53791 1.6732 1.276 2.2094 2.2175 0.5341 0.94142 0.80229 1.9494 0.80229 3.1589 0 1.2095-0.26819 2.2176-0.80229 3.1569a5.8501 5.8501 0 0 1-2.2094 2.2175c-0.93745 0.53791-2.0079 0.80641-3.2114 0.80641zm0-2.6207c0.60267 0 1.2035-0.13333 1.6732-0.4701 0.46782-0.33676 0.86881-0.73981 1.2034-1.276 0.2682-0.53791 0.40153-1.143 0.40153-1.8143 0-0.67353-0.13333-1.278-0.40153-1.8143a3.1508 3.1508 0 0 0-1.2034-1.2781c-0.4701-0.33448-1.0705-0.4701-1.6732-0.4701-0.60267 0-1.2055 0.13486-1.6732 0.4701a4.3826 4.3826 0 0 0-1.2055 1.2781 4.0358 4.0358 0 0 0-0.40076 1.8143c0 0.67124 0.13485 1.2761 0.40076 1.8143 0.2682 0.53639 0.66896 0.93936 1.2055 1.276 0.5341 0.33677 1.0704 0.4701 1.6732 0.4701z" stroke-width="2.0159"/>
			<path d="m287.83 223.7h-2.8767v-6.3823c0-0.94142-0.26819-1.6813-0.736-2.2175-0.4701-0.53867-1.139-0.80641-2.0078-0.80641-0.60268 0-1.139 0.13334-1.5402 0.40305-0.46781 0.2682-0.80229 0.67125-1.0684 1.141-0.26972 0.47162-0.40305 1.0765-0.40305 1.7478v6.1142h-2.8787v-11.894h2.411l0.0686 1.8828c0.40077-0.67353 1.0039-1.2095 1.7397-1.6127a5.83 5.83 0 0 1 2.4755-0.53791c1.4716 0 2.6771 0.46934 3.548 1.3446 0.86881 0.93943 1.27 2.149 1.27 3.6952z" stroke-width="2.0159"/>
			<path d="m271.7 208.72a1.3587 1.3587 0 0 1-1.004-0.40305c-0.2682-0.26819-0.40306-0.60496-0.40306-1.0744a1.3708 1.3708 0 0 1 1.4071-1.4111c0.40306 0 0.73601 0.13334 1.0704 0.40306 0.26819 0.26819 0.40305 0.60495 0.40305 1.0079a1.653 1.653 0 0 1-0.40305 1.0744 1.516 1.516 0 0 1-1.0704 0.40305zm1.4716 14.984h-2.8767v-11.894h2.8767z" stroke-width="2.0159"/>
			<path d="m263.27 223.7h-2.8768v-11.894h2.542l0.13485 2.151c0.40077-0.73982 0.9354-1.3446 1.6732-1.7478 0.66744-0.40305 1.4716-0.60496 2.407-0.60496 0.26819 0 0.4701 0 0.73753 0.0686 0.26819 0 0.46781 0.0686 0.73601 0.13333l-0.33448 2.6206a5.074 5.074 0 0 0-1.4051-0.20115c-0.66896 0-1.272 0.13486-1.8082 0.47163a2.9372 2.9372 0 0 0-1.2034 1.3426c-0.26819 0.60496-0.4701 1.2095-0.4701 2.0159v5.6446z" stroke-width="2.0159"/>
			<path d="m257.51 223.7h-2.542l-0.13486-1.4776c-0.40076 0.53791-1.0039 0.94141-1.6046 1.276-0.66973 0.26971-1.3386 0.47162-2.143 0.47162-0.80229 0-1.6047-0.13486-2.2074-0.47162a4.3039 4.3039 0 0 1-1.5401-1.3426c-0.40077-0.53867-0.5341-1.2095-0.5341-1.9494 0-0.73981 0.20191-1.4111 0.60267-2.0159 0.40077-0.60495 0.9354-1.0079 1.6732-1.3446 0.73601-0.33448 1.5382-0.46934 2.409-0.46934 0.5341 0 1.0684 0.0686 1.6732 0.20191 0.53411 0.13486 1.0684 0.33677 1.5382 0.53791v-0.40305a2.278 2.278 0 0 0-0.40305-1.3446c-0.26591-0.40305-0.66743-0.67124-1.1369-0.87292a4.0298 4.0298 0 0 0-1.6047-0.33677c-0.53638 0-1.0704 0.0686-1.6066 0.2682-0.53639 0.2019-1.0705 0.47162-1.5382 0.80641l-0.80435-2.2841c0.73601-0.40306 1.5401-0.73982 2.3425-0.94142 0.80229-0.20115 1.5401-0.33448 2.3424-0.33448 1.137 0 2.0744 0.2019 2.8767 0.67124 0.80435 0.46934 1.4051 1.0744 1.8748 1.8809 0.46782 0.80633 0.66896 1.7478 0.66896 2.8908v6.5839zm-5.8884-2.149c0.53638 0 1.0039-0.13486 1.4051-0.33677 0.46933-0.20191 0.80229-0.53867 1.0704-0.87292 0.26819-0.40305 0.40305-0.80633 0.4701-1.3446v-0.13486a4.4229 4.4229 0 0 0-1.272-0.60496 5.074 5.074 0 0 0-1.4051-0.2019c-0.736 0-1.3385 0.13486-1.8082 0.47162a1.4575 1.4575 0 0 0-0.66896 1.276c0 0.33677 0.0686 0.60496 0.26819 0.87285 0.20191 0.27048 0.4701 0.47162 0.80435 0.60496 0.33448 0.13485 0.73601 0.26971 1.1369 0.26971z" stroke-width="2.0159"/>
			<path d="m244.2 223.7h-3.1468v-13.305l-4.8845 10.35h-2.5441l-4.8845-10.281v13.236h-3.1448v-17.74h3.9471l5.2877 11.358 5.2857-11.358h4.0156v17.74z" stroke-width="2.0159"/>
			<path d="m217.1 223.7h-2.8786v-6.3823c0-0.94142-0.2682-1.6813-0.73601-2.2175-0.46782-0.53867-1.137-0.80641-2.0079-0.80641-0.60267 0-1.1369 0.13334-1.5382 0.40305-0.46934 0.2682-0.80427 0.67125-1.0704 1.141-0.26819 0.47162-0.40305 1.0765-0.40305 1.7478v6.1142h-2.8767v-11.894h2.409l0.0686 1.8828c0.40305-0.67353 1.0039-1.2095 1.7398-1.6127a5.83 5.83 0 0 1 2.4775-0.53791c1.4716 0 2.6751 0.46934 3.5459 1.3446 0.86889 0.93943 1.27 2.149 1.27 3.6952v7.1221z" stroke-width="2.0159"/>
			<path d="m202.71 223.7h-2.544l-0.13333-1.4776c-0.40306 0.53791-1.004 0.94141-1.6067 1.276-0.66895 0.26971-1.3385 0.47162-2.1408 0.47162-0.80435 0-1.6067-0.13486-2.2095-0.47162a4.3039 4.3039 0 0 1-1.5381-1.3426c-0.40306-0.53867-0.53639-1.2095-0.53639-1.9494 0-0.73981 0.20114-1.4111 0.60267-2.0159 0.40077-0.60495 0.93738-1.0079 1.6732-1.3446 0.73601-0.33448 1.5382-0.46934 2.409-0.46934 0.5341 0 1.0684 0.0686 1.6732 0.20191 0.5341 0.13486 1.0684 0.33677 1.5381 0.53791v-0.40305a2.278 2.278 0 0 0-0.40076-1.3446c-0.2682-0.40305-0.66896-0.67124-1.137-0.87292a4.0298 4.0298 0 0 0-1.6066-0.33677c-0.53638 0-1.0705 0.0686-1.6066 0.2682-0.5341 0.2019-1.0684 0.47162-1.5382 0.80641l-0.80435-2.2841c0.73753-0.40306 1.5401-0.73982 2.3425-0.94142 0.80427-0.20115 1.5401-0.33448 2.3424-0.33448 1.139 0 2.0764 0.2019 2.8787 0.67124 0.8023 0.46934 1.405 1.0744 1.8748 1.8809 0.46782 0.80633 0.66744 1.7478 0.66744 2.8908v6.5839h-0.20191zm-5.8904-2.149c0.53638 0 1.0039-0.13486 1.405-0.33677 0.4701-0.20191 0.80435-0.53867 1.0705-0.87292 0.2682-0.40305 0.40306-0.80633 0.4701-1.3446v-0.13486a4.4209 4.4209 0 0 0-1.27-0.60496 5.072 5.072 0 0 0-1.4071-0.2019c-0.736 0-1.3385 0.13486-1.8063 0.47162a1.4575 1.4575 0 0 0-0.66896 1.276c0 0.33677 0.0686 0.60496 0.26819 0.87285 0.20191 0.27048 0.46782 0.47162 0.8023 0.60496 0.40152 0.2019 0.736 0.26971 1.137 0.26971z" stroke-width="2.0159"/>
			<path d="m177.34 221.82 1.4716-2.4191c0.53638 0.40305 1.0725 0.80633 1.5401 1.0744 0.5341 0.27048 1.0039 0.47162 1.5381 0.60496 0.53639 0.13486 1.0039 0.2019 1.5401 0.2019 0.66896 0 1.27-0.13333 1.7398-0.33448 0.46782-0.2019 0.87087-0.47162 1.1369-0.8749 0.26819-0.40305 0.40305-0.80641 0.40305-1.276 0-0.53867-0.13486-1.0079-0.4701-1.4111-0.33448-0.40305-0.80229-0.67124-1.3385-0.94142-0.5341-0.26819-1.137-0.53638-1.7398-0.8064-0.5341-0.2682-1.1369-0.46934-1.7397-0.73754-0.60267-0.27047-1.0705-0.60495-1.6067-1.0079a4.5962 4.5962 0 0 1-1.1369-1.4111c-0.26819-0.53867-0.40305-1.2095-0.40305-1.9494 0-1.008 0.27048-1.8809 0.73753-2.6207a5.2756 5.2756 0 0 1 2.0764-1.7478c0.86682-0.40305 1.8707-0.60496 3.0097-0.60496 0.80237 0 1.6067 0.13486 2.4755 0.33677 0.87087 0.2019 1.6732 0.53867 2.4755 0.94142l-1.27 2.5522a7.3903 7.3903 0 0 0-1.8082-0.8064 5.6143 5.6143 0 0 0-1.8063-0.2682c-0.5341 0-1.0704 0.0686-1.4716 0.2682-0.40305 0.2019-0.73601 0.40305-1.0039 0.73981-0.26819 0.33677-0.33448 0.73982-0.33448 1.143 0 0.53638 0.13334 0.93944 0.46782 1.276 0.33448 0.33676 0.73601 0.67124 1.27 0.94149 0.53791 0.2682 1.0724 0.53639 1.6732 0.80633l1.8082 0.80634c0.60267 0.26819 1.139 0.67124 1.6066 1.0745 0.46781 0.40305 0.86888 0.87285 1.2035 1.4111 0.26819 0.53867 0.4701 1.2095 0.4701 2.016 0 1.0079-0.2682 1.9494-0.80435 2.6872-0.53411 0.80634-1.27 1.4111-2.2074 1.8143-0.93738 0.40305-2.0764 0.67353-3.3464 0.67353a10.483 10.483 0 0 1-3.2798-0.53791 8.7671 8.7671 0 0 1-2.8767-1.6127z" stroke-width="2.0159"/>
			<path d="m346.15 222.34 0.98267-1.6154c0.35818 0.26915 0.71616 0.53844 1.0285 0.71749 0.35665 0.18062 0.67037 0.31493 1.0271 0.40397 0.35819 0.0901 0.67038 0.13483 1.0285 0.13483 0.44671 0 0.84809-0.089 1.1618-0.22336 0.3124-0.13482 0.58154-0.31493 0.75921-0.58423 0.17909-0.26915 0.26915-0.5385 0.26915-0.85212 0-0.35971-0.0901-0.67306-0.31392-0.94232-0.22336-0.26914-0.53575-0.44823-0.89384-0.62865-0.35666-0.17909-0.75926-0.35818-1.1618-0.53849-0.35665-0.1791-0.7592-0.31342-1.1617-0.49251-0.40245-0.18062-0.71485-0.40397-1.0729-0.67307a3.0692 3.0692 0 0 1-0.75922-0.94232c-0.17909-0.35971-0.26914-0.8077-0.26914-1.3017 0-0.67312 0.18062-1.256 0.4925-1.75a3.5229 3.5229 0 0 1 1.3865-1.1672c0.57884-0.26915 1.2492-0.40398 2.0098-0.40398 0.5358 0 1.0729 0.0901 1.6531 0.22489 0.58155 0.13482 1.1174 0.35971 1.6531 0.62865l-0.8481 1.7043a4.935 4.935 0 0 0-1.2075-0.53849 3.7491 3.7491 0 0 0-1.2062-0.1791c-0.35666 0-0.71479 0.0458-0.98267 0.1791-0.26914 0.13482-0.49148 0.26915-0.67037 0.49402-0.17909 0.22489-0.22336 0.49404-0.22336 0.76324 0 0.35818 0.089 0.62733 0.3124 0.85211 0.22335 0.22488 0.49148 0.44823 0.84809 0.6287 0.3592 0.1791 0.71611 0.35819 1.1173 0.53844l1.2075 0.53846c0.40245 0.17909 0.76058 0.44823 1.0729 0.71753 0.31239 0.26915 0.58022 0.58287 0.80368 0.94227 0.17909 0.35971 0.31392 0.8077 0.31392 1.3462 0 0.67307-0.1791 1.3017-0.53712 1.7944-0.35667 0.53846-0.8481 0.94228-1.4741 1.2115-0.62596 0.26915-1.3865 0.44977-2.2346 0.44977a7 7 0 0 1-2.1902-0.3592 5.8544 5.8544 0 0 1-1.921-1.077z" stroke="#03559e" stroke-width=".3"/>
			<path d="m356.73 222.34 0.98267-1.6154c0.35818 0.26915 0.71616 0.53844 1.0285 0.71749 0.35665 0.18062 0.67037 0.31493 1.0271 0.40397 0.35819 0.0901 0.67038 0.13483 1.0285 0.13483 0.44671 0 0.84809-0.089 1.1618-0.22336 0.3124-0.13482 0.58154-0.31493 0.75921-0.58423 0.17909-0.26915 0.26915-0.5385 0.26915-0.85212 0-0.35971-0.0901-0.67306-0.31392-0.94232-0.22336-0.26914-0.53575-0.44823-0.89384-0.62865-0.35666-0.17909-0.75926-0.35818-1.1618-0.53849-0.35665-0.1791-0.7592-0.31342-1.1617-0.49251-0.40245-0.18062-0.71485-0.40397-1.0729-0.67307a3.0692 3.0692 0 0 1-0.75922-0.94232c-0.17909-0.35971-0.26914-0.8077-0.26914-1.3017 0-0.67312 0.18062-1.256 0.4925-1.75a3.5229 3.5229 0 0 1 1.3865-1.1672c0.57884-0.26915 1.2492-0.40398 2.0098-0.40398 0.5358 0 1.0729 0.0901 1.6531 0.22489 0.58155 0.13482 1.1174 0.35971 1.6531 0.62865l-0.8481 1.7043a4.935 4.935 0 0 0-1.2075-0.53849 3.7491 3.7491 0 0 0-1.2062-0.1791c-0.35666 0-0.71479 0.0458-0.98267 0.1791-0.26914 0.13482-0.49148 0.26915-0.67037 0.49402-0.17909 0.22489-0.22336 0.49404-0.22336 0.76324 0 0.35818 0.089 0.62733 0.3124 0.85211 0.22335 0.22488 0.49148 0.44823 0.84809 0.6287 0.3592 0.1791 0.71611 0.35819 1.1173 0.53844l1.2075 0.53846c0.40245 0.17909 0.76058 0.44823 1.0729 0.71753 0.31239 0.26915 0.58022 0.58287 0.80368 0.94227 0.17909 0.35971 0.31392 0.8077 0.31392 1.3462 0 0.67307-0.1791 1.3017-0.53712 1.7944-0.35667 0.53846-0.8481 0.94228-1.4741 1.2115-0.62596 0.26915-1.3865 0.44977-2.2346 0.44977a7 7 0 0 1-2.1902-0.3592 5.8544 5.8544 0 0 1-1.921-1.077z" stroke="#03559e" stroke-width=".3"/>
		</g>
		<g transform="matrix(2.7283 0 0 2.7283 -156.85 -247.85)" fill="#03559e" stroke-width="2.0159">
			<path d="m265.61 202.47c-1.8748 0-3.4794-0.40305-4.953-1.2095a9.2993 9.2993 0 0 1-3.4794-3.3605c-0.86888-1.4111-1.27-3.0238-1.27-4.8382 0-1.8143 0.40077-3.427 1.27-4.8381 0.87087-1.4111 2.0078-2.5521 3.4814-3.3584 1.4716-0.80641 3.0763-1.2095 4.951-1.2095 1.8748 0 3.4794 0.40305 4.953 1.2095 1.4716 0.80633 2.6086 1.9473 3.4129 3.3584 0.80237 1.4111 1.27 3.0239 1.27 4.8381 0 1.8143-0.40077 3.427-1.27 4.8382a8.6603 8.6603 0 0 1-3.4129 3.3605c-1.4716 0.73981-3.1448 1.2095-4.953 1.2095zm-0.0686-4.0318c0.93738 0 1.8063-0.26819 2.6086-0.73982 0.73753-0.4701 1.3385-1.141 1.8082-1.9473 0.46781-0.80641 0.66896-1.7478 0.66896-2.8223 0-1.0079-0.20191-1.9494-0.66896-2.7558a5.6243 5.6243 0 0 0-1.8082-1.9494 4.7615 4.7615 0 0 0-2.6086-0.73753c-0.93738 0-1.8082 0.26819-2.6106 0.73753a5.0579 5.0579 0 0 0-1.8062 1.9494c-0.4701 0.80641-0.66896 1.7478-0.66896 2.7558 0 1.0744 0.20114 1.9474 0.66896 2.8223 0.46781 0.80633 1.0704 1.4776 1.8062 1.9473 0.80237 0.47163 1.6732 0.73982 2.6106 0.73982z"/>
			<path d="m250.02 179.02c-0.60267 0-1.137-0.20191-1.6047-0.67353-0.40306-0.4701-0.66896-1.0079-0.66896-1.6127 0-0.60496 0.2019-1.141 0.66896-1.6127 0.40076-0.46934 0.9354-0.67125 1.6047-0.67125 0.66896 0 1.2055 0.20191 1.6066 0.67125 0.46782 0.47162 0.66896 1.0079 0.66896 1.6127 0 0.60495-0.2019 1.1429-0.66896 1.6127-0.40305 0.47162-0.93738 0.67353-1.6066 0.67353zm2.2759 23.048h-4.4833v-18.21h4.4833z"/>
			<path d="m242.93 202.07h-3.9511l-0.26591-2.5542c-0.80237 0.94142-1.7398 1.6127-2.8767 2.151-1.139 0.53791-2.3425 0.80633-3.681 0.80633-1.6732 0-3.2134-0.40305-4.5519-1.2095a8.4365 8.4365 0 0 1-3.1448-3.3605c-0.736-1.4111-1.137-3.0238-1.137-4.8381 0-1.8143 0.40305-3.427 1.137-4.8381 0.73601-1.4111 1.8082-2.5521 3.1448-3.3584 1.3385-0.80641 2.8786-1.2095 4.5519-1.2095 1.27 0 2.4089 0.2019 3.4794 0.67124 1.0704 0.4701 2.0078 1.0744 2.8102 1.8809v-11.356h4.4853zm-9.7045-3.6287c0.93738 0 1.8748-0.20115 2.6771-0.67125 0.80229-0.47162 1.405-1.0765 1.9413-1.8143 0.46781-0.80633 0.736-1.6812 0.736-2.6892v-0.67132c0-1.0079-0.26819-1.8808-0.736-2.6207a5.0498 5.0498 0 0 0-1.9413-1.8143c-0.80237-0.46934-1.6732-0.67124-2.6771-0.67124-1.0039 0-1.9413 0.26819-2.7436 0.73753-0.80229 0.47162-1.405 1.143-1.8748 1.9494-0.46781 0.80641-0.66896 1.7478-0.66896 2.7558 0 1.0744 0.20191 1.9474 0.66896 2.8223 0.4701 0.80633 1.0725 1.4776 1.8748 1.9473 0.80237 0.47162 1.6732 0.73982 2.7436 0.73982z"/>
			<path d="m220.11 202.07h-3.8806l-0.26819-2.2176c-0.66896 0.80641-1.4716 1.4777-2.4754 1.9494-1.004 0.46934-2.0744 0.67125-3.2799 0.67125a7.9628 7.9628 0 0 1-3.4129-0.73982c-1.0019-0.53639-1.8063-1.2095-2.3404-2.0824-0.60496-0.87292-0.87087-1.8809-0.87087-3.0239 0-1.2095 0.33448-2.2175 0.93738-3.0904 0.60267-0.87491 1.4716-1.6127 2.542-2.0844 1.0704-0.53639 2.3424-0.73753 3.7495-0.73753 0.86683 0 1.6732 0.0686 2.5401 0.26819 0.87087 0.20191 1.6732 0.46934 2.3445 0.80633v-0.60496c0-0.8064-0.20191-1.4776-0.66896-2.0824-0.4701-0.60496-1.004-1.0079-1.7417-1.3446-0.73601-0.33676-1.5382-0.46933-2.4755-0.46933-0.80237 0-1.6732 0.13333-2.4755 0.40305-0.80229 0.26819-1.6066 0.73753-2.3424 1.276l-1.27-3.4935a14.708 14.708 0 0 1 3.5459-1.4796 13.208 13.208 0 0 1 3.548-0.4701c1.7377 0 3.2113 0.33677 4.4148 1.0079 1.27 0.67124 2.2095 1.6127 2.8787 2.8888 0.66743 1.278 1.0019 2.6892 1.0019 4.4349zm-9.0332-3.2255c0.80229 0 1.5401-0.13486 2.2094-0.46934 0.66744-0.33676 1.2035-0.80633 1.6732-1.3445 0.40076-0.60496 0.66743-1.2761 0.66743-2.016v-0.2019c-0.60038-0.40306-1.2034-0.73982-1.9393-0.94135-0.73601-0.2019-1.405-0.33448-2.1429-0.33448-1.1369 0-2.0058 0.2682-2.7416 0.73753-0.73753 0.53791-1.0725 1.143-1.0725 1.9494 0 0.46933 0.13486 0.94142 0.4701 1.3446 0.26591 0.40305 0.66896 0.73753 1.2034 0.93944 0.4701 0.20114 1.004 0.33676 1.6732 0.33676z"/>
			<path d="m201.04 202.07h-5.3543l-5.9569-10.281h-5.8864v10.281h-4.82v-27.35h10.775c2.1408 0 3.9471 0.33677 5.4187 1.0079 1.4716 0.67354 2.677 1.6813 3.4814 2.9574 0.80237 1.276 1.2035 2.8222 1.2035 4.57 0 1.8809-0.46781 3.4935-1.4051 4.8382-0.93738 1.3426-2.2759 2.284-3.9491 2.8888l6.4912 11.087zm-17.266-14.178h5.6889c1.7397 0 3.1448-0.40305 4.0822-1.143 1.0018-0.80633 1.4716-1.8808 1.4716-3.2919 0-1.4111-0.4701-2.4876-1.4716-3.294-0.93738-0.80641-2.3425-1.141-4.0822-1.141h-5.6889z"/>
		</g>
			<path d="m776.73 362.49h-6.9355l-0.36794-4.0315c-1.0934 1.4676-2.7389 2.5685-4.3778 3.4815-1.8272 0.73586-3.6522 1.2867-5.8467 1.2867-2.1889 0-4.378-0.36795-6.0225-1.2867a11.743 11.743 0 0 1-4.202-3.663c-1.0934-1.4697-1.4572-3.3-1.4572-5.3187 0-2.0184 0.55088-3.8498 1.6443-5.4999 1.0934-1.6505 2.5521-2.75 4.5649-3.6686 2.0081-0.91257 4.1966-1.2805 6.5726-1.2805 1.4572 0 2.915 0.18716 4.5649 0.55088 1.4572 0.36793 2.915 0.91881 4.1966 1.4676v-1.0996a6.215 6.215 0 0 0-1.0996-3.6684c-0.72549-1.0996-1.821-1.8314-3.1019-2.3816a10.995 10.995 0 0 0-4.3781-0.91881c-1.4634 0-2.9204 0.18716-4.3834 0.73173-1.4634 0.55085-2.9206 1.2867-4.1966 2.2001l-2.1945-6.2316c2.0081-1.0997 4.202-2.0185 6.3911-2.5685 2.1889-0.5488 4.202-0.91257 6.3909-0.91257 3.1021 0 5.6596 0.55085 7.8485 1.8314 2.1945 1.2805 3.8336 2.9314 5.1151 5.1316 1.2764 2.1999 1.8251 4.7684 1.8251 7.887v17.963zm-16.066-5.8631c1.4634 0 2.7389-0.36794 3.8336-0.91882 1.2805-0.55087 2.1889-1.4697 2.9204-2.3816 0.7317-1.0996 1.0996-2.1999 1.2826-3.6684v-0.36794a12.067 12.067 0 0 0-3.4705-1.6505 13.844 13.844 0 0 0-3.8336-0.55085c-2.008 0-3.6519 0.36794-4.9334 1.2867a3.9765 3.9765 0 0 0-1.8251 3.4815c0 0.91883 0.18716 1.6505 0.73171 2.3814 0.55087 0.73795 1.2826 1.2867 2.1945 1.6505 0.91257 0.36791 2.0081 0.73586 3.1019 0.73586z" fill="#03559e" stroke-width="5.5"/>
			<path d="m740.05 362.49h-7.8485v-49.873h7.8485z" fill="#03559e" stroke-width="6.8185"/>
		<g transform="matrix(2.7283 0 0 2.7283 -156.85 -247.85)" fill="#03559e">
			<path d="m369.6 208.72a1.3587 1.3587 0 0 1-1.004-0.40305c-0.2682-0.26819-0.40306-0.60496-0.40306-1.0744a1.3708 1.3708 0 0 1 1.4071-1.4111c0.40306 0 0.73601 0.13334 1.0704 0.40306 0.26819 0.26819 0.40305 0.60495 0.40305 1.0079a1.653 1.653 0 0 1-0.40305 1.0744 1.516 1.516 0 0 1-1.0704 0.40305zm1.4716 14.984h-2.8767v-11.894h2.8767z" stroke-width="2.0159"/>
			<path d="m380.2 223.93c2.1019 0 3.6866-0.87647 4.754-2.6179l-1.9919-1.5338c-0.60525 0.98025-1.5296 1.4646-2.7622 1.4646-1.8928 0-3.0703-1.3724-3.0703-3.7365 0-2.318 1.1445-3.725 3.0703-3.725 1.2105 0 2.1129 0.48435 2.6962 1.4416l1.9918-1.603c-1.0014-1.6953-2.5641-2.5371-4.666-2.5371-1.7718 0-3.2024 0.59969-4.2808 1.7991-1.0895 1.2109-1.6287 2.7447-1.6287 4.6245 0 1.8567 0.53923 3.3905 1.6287 4.6014 1.0785 1.2109 2.4981 1.8221 4.2588 1.8221z" stroke-width=".2884"/>
			<path d="m346.34 222.09c0.40375 0.47983 0.96713 0.90387 1.7089 1.261 0.7324 0.35709 1.5775 0.53563 2.5258 0.53563 1.277 0 2.2723-0.34592 2.9765-1.0378 0.70422-0.69184 1.061-1.6069 1.061-2.7562 0-1.0155-0.30047-1.8078-0.89201-2.3545-0.60095-0.54679-1.5399-0.97083-2.8075-1.2944-0.44132-0.11158-0.76996-0.20086-0.96714-0.26781-0.19718-0.0669-0.40375-0.1897-0.60094-0.37941-0.20657-0.17854-0.30985-0.40171-0.30985-0.68068 0-0.72534 0.57276-1.2386 1.5962-1.2386 0.9108 0.0112 1.7652 0.35709 2.5728 1.0378l1.1174-1.9528c-0.97653-0.94851-2.2535-1.4172-3.831-1.4172-1.1737 0-2.1127 0.3236-2.8075 0.95967-0.70423 0.63605-1.0516 1.5288-1.0516 2.6558 0 1.1605 0.40375 2.0421 1.1549 2.5777 0.74179 0.54678 1.493 0.82576 2.5916 1.0601 1.3427 0.32361 1.8498 0.64721 1.8498 1.3502 0 0.83692-0.55399 1.2498-1.6526 1.2498-0.58216 0-1.1737-0.1339-1.7653-0.39056-0.59156-0.25665-1.0235-0.53562-1.2958-0.85923z" stroke-width=".26205"/>
			<path d="m339.27 219.98c-0.0111 0.56253-0.28925 1.0061-0.81215 1.3414-0.53403 0.33535-1.2127 0.49762-2.036 0.49762-1.3684 0-2.3252-0.56252-2.3252-1.6876 0-1.0601 0.87892-1.5902 2.6479-1.5902 0.90116 0 1.7356 0.19472 2.5255 0.59497zm-2.1138-8.1133c-1.9025 0-3.6047 0.55171-5.1066 1.6443l1.2016 1.8174c1.0124-0.84378 2.1472-1.2657 3.3933-1.2657 0.99017 0 1.68 0.28126 2.0471 0.8546 0.36714 0.57334 0.5674 1.4712 0.60078 2.6936-0.94567-0.56253-2.0471-0.84379-3.3265-0.84379-1.2794 0-2.3809 0.29209-3.3265 0.88706-0.94566 0.59497-1.4129 1.4604-1.4129 2.5854 0 1.071 0.42276 1.958 1.2683 2.672 0.83441 0.72479 1.8913 1.0818 3.1708 1.0818 1.4797-0.0108 2.6812-0.50844 3.6269-1.4928v1.2224h2.9371v-5.4954c0-2.2176-0.36715-3.8295-1.1014-4.8464-0.73427-1.006-2.0582-1.5145-3.9718-1.5145z" stroke-width=".28085"/>
			<path transform="scale(.90371 1.1066)" d="m363.72 202.14v-16.356h-3.1481v16.356z" stroke-width=".292"/>
			<path d="m315.06 223.97c3.1901 0 5.487-1.3356 6.8907-3.9933l-2.9987-1.8164c-0.77839 1.5626-2.131 2.3506-4.0834 2.3506-1.544-0.0133-2.7818-0.57428-3.7005-1.6694-0.93153-1.0951-1.3909-2.6577-1.3909-4.7011 0-2.0167 0.47213-3.5793 1.4036-4.6878 0.93151-1.1085 2.1693-1.6561 3.7388-1.6561 1.9906 0 3.3688 0.86812 4.1344 2.6043l3.1646-1.5092c-1.3654-3.0317-3.7644-4.5409-7.1969-4.5409-2.6797 0-4.8362 0.88146-6.4696 2.6578-1.6461 1.7763-2.4628 4.1669-2.4628 7.1586 0 2.9783 0.81667 5.3556 2.4628 7.1318 1.6461 1.7763 3.8154 2.6711 6.5078 2.6711z" stroke-width=".3342"/>
			<path d="m356.93 222.09c0.40375 0.47983 0.96713 0.90387 1.7089 1.261 0.7324 0.35709 1.5775 0.53563 2.5258 0.53563 1.277 0 2.2723-0.34592 2.9765-1.0378 0.70422-0.69184 1.061-1.6069 1.061-2.7562 0-1.0155-0.30047-1.8078-0.89201-2.3545-0.60095-0.54679-1.5399-0.97083-2.8075-1.2944-0.44132-0.11158-0.76996-0.20086-0.96714-0.26781-0.19718-0.0669-0.40375-0.1897-0.60094-0.37941-0.20657-0.17854-0.30985-0.40171-0.30985-0.68068 0-0.72534 0.57276-1.2386 1.5962-1.2386 0.9108 0.0112 1.7652 0.35709 2.5728 1.0378l1.1174-1.9528c-0.97653-0.94851-2.2535-1.4172-3.831-1.4172-1.1737 0-2.1127 0.3236-2.8075 0.95967-0.70423 0.63605-1.0516 1.5288-1.0516 2.6558 0 1.1605 0.40375 2.0421 1.1549 2.5777 0.74179 0.54678 1.493 0.82576 2.5916 1.0601 1.3427 0.32361 1.8498 0.64721 1.8498 1.3502 0 0.83692-0.55399 1.2498-1.6526 1.2498-0.58216 0-1.1737-0.1339-1.7653-0.39056-0.59156-0.25665-1.0235-0.53562-1.2958-0.85923z" stroke-width=".26205"/>
		</g>
	</g>
</svg>
