<svg version="1.1" viewBox="0 0 964.27 273.53" xmlns="http://www.w3.org/2000/svg">
 <g transform="translate(-48.24 -30.214)" fill="none" stroke-width="2">
  <path d="m627.62 107.16-8.77 25.79" stroke="#819dbc" vector-effect="non-scaling-stroke"/>
  <path d="m618.85 132.95h-6.42" stroke="#80c5e5" vector-effect="non-scaling-stroke"/>
  <path d="m612.43 132.95-3.3-8.82" stroke="#819dbc" vector-effect="non-scaling-stroke"/>
  <path d="m609.13 124.13 11.93 0.06a0.71 0.7 85.8 0 0 0.7-0.82l-1.88-11.99q-0.1-0.63-0.73-0.63h-13.69a0.62 0.62 0 0 0-0.53 0.94q0.89 1.43 0.11 1.87" stroke="#80c5e5" vector-effect="non-scaling-stroke"/>
  <path d="m605.04 113.56-14.8-39.18a1.04 1.04 0 0 0-0.96-0.67l-8.4-0.07" stroke="#819dbc" vector-effect="non-scaling-stroke"/>
  <path d="m580.88 73.64-7.71-9.82q-0.26-0.33-0.68-0.33l-13.99 0.01q-0.6 0-0.37 0.56l3.98 9.65" stroke="#96d6ef" vector-effect="non-scaling-stroke"/>
  <path d="m562.11 73.71-9.53-0.05" stroke="#819dbc" vector-effect="non-scaling-stroke"/>
  <path d="m552.58 73.66-4.1-9.71q-0.2-0.46-0.7-0.46h-12.51q-0.47 0-0.4 0.47l1.96 14.3q0.07 0.48 0.55 0.48l13.81 0.29" stroke="#c7e4f5" vector-effect="non-scaling-stroke"/>
  <path d="m551.19 79.03q1.72 1.1 7.34 1.19 4.47 0.07 4.5 5.04 0.25 38.4 0.2 76.8c-0.01 9.29-2.98 10.89-11.38 11.22q-0.52 0.02-0.54 0.54l-0.16 5.15" stroke="#819dbc" vector-effect="non-scaling-stroke"/>
  <path d="m551.15 178.97-13.53 0.08q-0.41 0.01-0.46 0.42l-1.77 13.27a0.23 0.23 0 0 0 0.23 0.26h14.11q0.46 0 0.61-0.43l5.12-13.85" stroke="#c7e4f5" vector-effect="non-scaling-stroke"/>
  <path d="m555.46 178.72 9.1-0.04" stroke="#819dbc" vector-effect="non-scaling-stroke"/>
  <path d="m564.56 178.68-4.85 13.86a0.32 0.31 9.7 0 0 0.3 0.42l15.54 0.05a1.6 1.58-72.7 0 0 1.34-0.71l9.12-13.66" stroke="#96d6ef" vector-effect="non-scaling-stroke"/>
  <path d="m586.01 178.64q0.8-0.44 0.44-2.65-0.08-0.45-0.53-0.48c-4.44-0.33-9.05-1.09-11.31-5.5" stroke="#819dbc" vector-effect="non-scaling-stroke"/>
  <path d="m574.61 170.01q2.69 0.79 4.32 0.4" stroke="#c7e4f5" vector-effect="non-scaling-stroke"/>
  <path d="m578.93 170.41 10.6 0.11a0.78 0.76-80.1 0 0 0.74-0.53l4.58-13.39a0.44 0.43-80.4 0 0-0.41-0.58l-9.4 0.03" stroke="#96d6ef" vector-effect="non-scaling-stroke"/>
  <path d="m585.04 156.05-12.47 0.1" stroke="#c7e4f5" vector-effect="non-scaling-stroke"/>
  <path d="m572.57 156.15-0.04-8.78" stroke="#819dbc" vector-effect="non-scaling-stroke"/>
  <path d="m572.53 147.37 20.21 0.09" stroke="#c7e4f5" vector-effect="non-scaling-stroke"/>
  <path d="m592.74 147.46 7.29 19.79q0.16 0.44 0.1 0.9l-0.07 0.53" stroke="#819dbc" vector-effect="non-scaling-stroke"/>
  <path d="m600.06 168.68q-0.71 0.75-0.6 1.58a0.53 0.52-10.6 0 0 0.64 0.43l1.1-0.26" stroke="#96d6ef" vector-effect="non-scaling-stroke"/>
  <path d="m601.2 170.43 1.9 4.88q0.18 0.44 0.66 0.44h8.97a0.59 0.58 10 0 0 0.55-0.38l17.08-47.43" stroke="#819dbc" vector-effect="non-scaling-stroke"/>
  <path d="m421.92 180.7 11.11 0.71" stroke="#819dbc" vector-effect="non-scaling-stroke"/>
  <path d="m433.03 181.41 9.96 11.17q0.38 0.42 0.94 0.42l5.3-0.01q0.73 0 0.35-0.62l-7.3-12.05" stroke="#80c5e5" vector-effect="non-scaling-stroke"/>
  <path d="m442.28 180.32c7.95-2.42 14.19-4.81 20.63-10.09" stroke="#819dbc" vector-effect="non-scaling-stroke"/>
  <path d="m462.91 170.23 7.02 0.23q0.53 0.01 0.4-0.51l-1.4-5.92" stroke="#c7e4f5" vector-effect="non-scaling-stroke"/>
  <path d="m468.93 164.03q5.9-7.55 8.75-16.51" stroke="#819dbc" vector-effect="non-scaling-stroke"/>
  <path d="m477.68 147.52 18.36-0.16a1.59 1.59 0 0 0 1.57-1.77l-1.21-10.97q-0.05-0.45-0.47-0.58c-4.81-1.52-10.44-0.93-15.55-1.41" stroke="#e1f0fa" vector-effect="non-scaling-stroke"/>
  <path d="m480.38 132.63 0.04-8.45" stroke="#819dbc" vector-effect="non-scaling-stroke"/>
  <path d="m480.42 124.18c4.51-0.05 9.87 0.55 14.06-0.82 1.81-0.6 1.42-1.65 1.81-3q1.27-4.43 1.03-8.91a0.54 0.54 0 0 0-0.54-0.52l-18.4 0.04" stroke="#e1f0fa" vector-effect="non-scaling-stroke"/>
  <path d="m478.38 110.97q-2.57-9.71-8.92-18.19" stroke="#819dbc" vector-effect="non-scaling-stroke"/>
  <path d="m469.46 92.78q1.19-2.41 1.43-5 0.05-0.52-0.47-0.5l-5.61 0.22" stroke="#c7e4f5" vector-effect="non-scaling-stroke"/>
  <path d="m464.81 87.5q-1.83-1.29-3.88-2.89-7.3-5.7-16.6-8.2" stroke="#819dbc" vector-effect="non-scaling-stroke"/>
  <path d="m444.33 76.41 8.18-12.38a0.34 0.33 16.9 0 0-0.28-0.52l-3.96-0.01a1.22 1.19-64.7 0 0-0.78 0.29q-5.56 4.8-10.44 10.24-0.19 0.21-0.09 0.42" stroke="#80c5e5" vector-effect="non-scaling-stroke"/>
  <path d="m436.96 74.45-11.68 0.5" stroke="#819dbc" vector-effect="non-scaling-stroke"/>
  <path d="m552.58 73.66q-1.8-0.79-1.39 5.37" stroke="#4881b1" vector-effect="non-scaling-stroke"/>
  <path d="m464.81 87.5 4.65 5.28" stroke="#4881b1" vector-effect="non-scaling-stroke"/>
  <path d="m478.38 110.97 2.04 13.21" stroke="#638db6" vector-effect="non-scaling-stroke"/>
  <path d="m480.38 132.63q-0.45 7.37-2.7 14.89" stroke="#638db6" vector-effect="non-scaling-stroke"/>
  <path d="m468.93 164.03-6.02 6.2" stroke="#4881b1" vector-effect="non-scaling-stroke"/>
  <path d="m442.28 180.32-9.25 1.09" stroke="#0163a2" vector-effect="non-scaling-stroke"/>
  <path d="m585.04 156.05c-0.44 1.84-0.48 3.37-1.55 5.04-1.11 1.71-1.61 3.45-2.78 5.2q-1.31 1.97-1.78 4.12" stroke="#5dbbe4" vector-effect="non-scaling-stroke"/>
  <path d="m444.33 76.41q-2.96-0.81-6.35-1.32-0.63-0.09-1.02-0.64" stroke="#0163a2" vector-effect="non-scaling-stroke"/>
  <path d="m605.04 113.56 4.09 10.57" stroke="#0163a2" vector-effect="non-scaling-stroke"/>
  <path d="m612.43 132.95 3.04 8.33q0.28 0.75 0.53 0l2.85-8.33" stroke="#0163a2" vector-effect="non-scaling-stroke"/>
  <path d="m601.2 170.43q-0.45-1.34-1.14-1.75" stroke="#1774ab" vector-effect="non-scaling-stroke"/>
  <path d="m592.74 147.46-5.38-14.67" stroke="#4881b1" vector-effect="non-scaling-stroke"/>
  <path d="m587.36 132.79-3.25-8.74" stroke="#819dbc" vector-effect="non-scaling-stroke"/>
  <path d="m584.11 124.05-4.77-13.03" stroke="#4881b1" vector-effect="non-scaling-stroke"/>
  <path d="m579.34 111.02-3.34-9.04" stroke="#819dbc" vector-effect="non-scaling-stroke"/>
  <path d="m576 101.98-3-8.18q-0.46-1.26-0.46 0.08l-0.02 8.14" stroke="#4881b1" vector-effect="non-scaling-stroke"/>
  <path d="m572.52 102.02v9.09" stroke="#819dbc" vector-effect="non-scaling-stroke"/>
  <path d="m572.52 111.11 0.01 12.78" stroke="#4881b1" vector-effect="non-scaling-stroke"/>
  <path d="m572.53 123.89-0.01 9.01" stroke="#819dbc" vector-effect="non-scaling-stroke"/>
  <path d="m572.52 132.9 0.01 14.47" stroke="#4881b1" vector-effect="non-scaling-stroke"/>
  <path d="m572.57 156.15q-0.54 7.54 2.04 13.86" stroke="#4881b1" vector-effect="non-scaling-stroke"/>
  <path d="m586.01 178.64-21.45 0.04" stroke="#1774ab" vector-effect="non-scaling-stroke"/>
  <path d="m555.46 178.72q-2.19-0.34-4.31 0.25" stroke="#4881b1" vector-effect="non-scaling-stroke"/>
  <path d="m580.88 73.64-18.77 0.07" stroke="#1774ab" vector-effect="non-scaling-stroke"/>
  <path d="m587.36 132.79-14.84 0.11" stroke="#c7e4f5" vector-effect="non-scaling-stroke"/>
  <path d="m584.11 124.05-11.58-0.16" stroke="#c7e4f5" vector-effect="non-scaling-stroke"/>
  <path d="m579.34 111.02q-3.64-0.69-6.82 0.09" stroke="#c7e4f5" vector-effect="non-scaling-stroke"/>
  <path d="m576 101.98q-1.63 0.57-3.48 0.04" stroke="#c7e4f5" vector-effect="non-scaling-stroke"/>
  <path d="m518.16 39.52c-2.77 4.05-4.29 10.15-5.37 14.88q-0.12 0.56 0.45 0.56l10.53 0.02q0.54 0.01 0.44-0.52-1.42-7.87-5.19-14.89a0.5 0.5 0 0 0-0.86-0.05" stroke="#96d6ef" vector-effect="non-scaling-stroke"/>
  <path d="m506.65 42.28q-7.42 4.9-12.36 12.28a0.27 0.27 0 0 0 0.22 0.42l8.86 0.01q0.4 0.01 0.51-0.38l3.26-11.97q0.22-0.83-0.49-0.36" stroke="#96d6ef" vector-effect="non-scaling-stroke"/>
  <path d="m529.69 42.46q2.11 5.84 3.3 11.94 0.12 0.59 0.72 0.59h8.98a0.23 0.23 0 0 0 0.19-0.35q-5.03-7.43-12.47-12.27-0.32-0.21-0.62-0.11a0.16 0.16 0 0 0-0.1 0.2" stroke="#96d6ef" vector-effect="non-scaling-stroke"/>
  <path d="m490.16 44.8c-5.59 2.21-11.39 5.95-16.09 9.6q-0.76 0.6 0.2 0.6h8.88a0.71 0.7 17.8 0 0 0.57-0.29l6.74-9.53q0.5-0.7-0.3-0.38" stroke="#96d6ef" vector-effect="non-scaling-stroke"/>
  <path d="m546.89 44.74q-0.9-0.4-0.33 0.39l6.76 9.51q0.26 0.36 0.7 0.36h8.76q1.01 0 0.21-0.61-7.47-5.78-16.1-9.65" stroke="#96d6ef" vector-effect="non-scaling-stroke"/>
  <path d="m479 63.66a0.11 0.11 0 0 0-0.1-0.15l-14.16-0.02q-0.52 0-0.87 0.38-6.01 6.52-10.56 14.15-0.48 0.79 0.44 0.78l19.04-0.11q0.44 0 0.6-0.42l5.61-14.61" stroke="#96d6ef" vector-effect="non-scaling-stroke"/>
  <path d="m482.42 78.12a0.47 0.47 0 0 0 0.44 0.65l16.92-0.05a0.47 0.47 0 0 0 0.47-0.41l1.94-14.28a0.47 0.47 0 0 0-0.47-0.53l-12.87-0.01a0.47 0.47 0 0 0-0.43 0.29l-6 14.34" stroke="#c7e4f5" vector-effect="non-scaling-stroke"/>
  <path d="m527.83 78.7a0.37 0.37 0 0 0 0.36-0.42l-1.94-14.47a0.37 0.37 0 0 0-0.36-0.32l-14.69 0.01a0.37 0.37 0 0 0-0.36 0.32l-1.95 14.46a0.37 0.37 0 0 0 0.36 0.42h18.58" stroke="#c7e4f5" vector-effect="non-scaling-stroke"/>
  <path d="m584.59 63.65 9.53 14.63q0.3 0.46 0.84 0.46l8.48 0.02q0.52 0 0.2-0.4-5.63-7.23-12.58-13.29c-2.1-1.83-3.84-1.95-6.45-1.47a0.03 0.03 0 0 0-0.02 0.05" stroke="#80c5e5" vector-effect="non-scaling-stroke"/>
  <path d="m480.41 87.23a0.81 0.81 0 0 0-0.79 0.64l-2.83 13.52a0.81 0.81 0 0 0 0.8 0.97l19.93-0.33a0.81 0.81 0 0 0 0.79-0.74l1.1-13.17a0.81 0.81 0 0 0-0.81-0.88l-18.19-0.01" stroke="#e1f0fa" vector-effect="non-scaling-stroke"/>
  <path d="m529.09 101.94a0.88 0.88 0 0 0 0.88-0.93l-0.76-12.92a0.88 0.88 0 0 0-0.88-0.83h-19.57a0.88 0.88 0 0 0-0.88 0.83l-0.76 12.72a0.88 0.88 0 0 0 0.87 0.93l21.1 0.2" stroke="#e1f0fa" vector-effect="non-scaling-stroke"/>
  <path d="m560.24 101.45-2.81-13.68q-0.11-0.53-0.65-0.53h-18.58q-0.57 0-0.52 0.56l0.99 12.79q0.12 1.54 1.67 1.55l19.21 0.15q0.87 0.01 0.69-0.84" stroke="#e1f0fa" vector-effect="non-scaling-stroke"/>
  <path d="m603.29 102.03a0.32 0.32 0 0 0 0.3 0.22h13.26a0.32 0.32 0 0 0 0.29-0.46l-6.9-14.36a0.32 0.32 0 0 0-0.29-0.18h-11.16a0.32 0.32 0 0 0-0.3 0.42l4.8 14.36" stroke="#80c5e5" vector-effect="non-scaling-stroke"/>
  <path d="m543.5 123.38q9.09 1.29 18.27 0.72a0.44 0.44 0 0 0 0.41-0.46l-0.59-12.37q-0.03-0.55-0.57-0.54l-21.26 0.17q-0.51 0-0.46 0.51c0.24 2.68 0.67 11.47 4.2 11.97" stroke="#e1f0fa" vector-effect="non-scaling-stroke"/>
  <path d="m544.77 132.87c-3.89-0.01-4.41 4.24-4.95 6.98-0.36 1.81 0.07 3.69-0.2 5.58a1.68 1.68 0 0 0 1.64 1.92l19.62 0.17a0.92 0.92 0 0 0 0.92-0.89l0.4-13.35a0.54 0.54 0 0 0-0.55-0.55q-8.47 0.17-16.88 0.14" stroke="#e1f0fa" vector-effect="non-scaling-stroke"/>
  <path d="m476.46 156.54 2.57 13.41a0.69 0.69 0 0 0 0.68 0.56h18.96q0.55 0 0.51-0.54l-0.89-12.25a1.59 1.58-1.6 0 0-1.56-1.47l-19.76-0.32q-0.63-0.01-0.51 0.61" stroke="#e1f0fa" vector-effect="non-scaling-stroke"/>
  <path d="m528.51 170.49a0.95 0.95 0 0 0 0.95-0.91l0.53-12.44a0.95 0.95 0 0 0-0.96-0.99l-21.04 0.27a0.95 0.95 0 0 0-0.94 1l0.64 12.17a0.95 0.95 0 0 0 0.95 0.9h19.87" stroke="#e1f0fa" vector-effect="non-scaling-stroke"/>
  <path d="m557.33 170.5a0.79 0.79 0 0 0 0.77-0.64l2.51-13.06a0.79 0.79 0 0 0-0.8-0.94l-20.21 0.42a0.79 0.79 0 0 0-0.77 0.73l-0.87 12.66a0.79 0.79 0 0 0 0.79 0.85l18.58-0.02" stroke="#e1f0fa" vector-effect="non-scaling-stroke"/>
  <path d="m472.54 179.28a0.32 0.32 0 0 0-0.3-0.21l-20.68-0.09a0.32 0.32 0 0 0-0.27 0.5l9.06 13.39a0.32 0.32 0 0 0 0.27 0.14l16.27-0.03a0.32 0.32 0 0 0 0.3-0.42l-4.65-13.28" stroke="#96d6ef" vector-effect="non-scaling-stroke"/>
  <path d="m499.95 179.47a0.48 0.48 0 0 0-0.47-0.42l-17.35-0.05a0.48 0.48 0 0 0-0.45 0.65l4.89 13.04a0.48 0.48 0 0 0 0.45 0.31h14.11a0.48 0.48 0 0 0 0.47-0.54l-1.65-12.99" stroke="#c7e4f5" vector-effect="non-scaling-stroke"/>
  <path d="m526.41 193a0.43 0.43 0 0 0 0.43-0.38l1.61-13.06a0.43 0.43 0 0 0-0.43-0.48h-18.97a0.43 0.43 0 0 0-0.43 0.48l1.61 13.06a0.43 0.43 0 0 0 0.43 0.38h15.75" stroke="#c7e4f5" vector-effect="non-scaling-stroke"/>
  <path d="m605.93 179.53a0.32 0.32 0 0 0-0.24-0.53h-9.83a0.32 0.32 0 0 0-0.27 0.16l-7.89 13.36a0.32 0.32 0 0 0 0.27 0.48l5.98-0.02a0.32 0.32 0 0 0 0.24-0.11l11.74-13.34" stroke="#80c5e5" vector-effect="non-scaling-stroke"/>
  <path d="m460.47 205.82a0.17 0.16-5.4 0 0 0.21-0.25l-3.63-3.74q-0.37-0.37-0.88-0.35l-1.46 0.05a0.27 0.26 60.2 0 0-0.13 0.49l5.89 3.8" stroke="#80c5e5" vector-effect="non-scaling-stroke"/>
  <path d="m489.82 215.48q1.68 0.78 0.51-0.66-4.89-5.99-8.48-12.84-0.25-0.48-0.79-0.48l-11.34-0.02q-0.92 0-0.24 0.62 9.15 8.24 20.34 13.38" stroke="#96d6ef" vector-effect="non-scaling-stroke"/>
  <path d="m507.12 217.81-4.13-15.95q-0.09-0.33-0.44-0.33h-10.3q-0.72 0-0.36 0.62 5.58 9.66 14.75 16 0.69 0.47 0.48-0.34" stroke="#96d6ef" vector-effect="non-scaling-stroke"/>
  <path d="m512.11 202.02c0.81 5.66 2.69 14.1 6.06 18.76a0.5 0.49 42.6 0 0 0.82-0.03c3.33-5.55 4.84-12.31 6.02-18.62q0.11-0.59-0.49-0.59l-12 0.01q-0.48 0-0.41 0.47" stroke="#96d6ef" vector-effect="non-scaling-stroke"/>
  <path d="m533.89 201.72c-0.98 5.22-2.22 10.8-4.12 15.95a0.41 0.4-7.1 0 0 0.61 0.47q9.29-6.29 15.1-16.5 0.07-0.12-0.07-0.12l-11.3 0.02q-0.19 0-0.22 0.18" stroke="#96d6ef" vector-effect="non-scaling-stroke"/>
  <path d="m546.61 215.74c7.73-3.54 14.69-7.91 20.9-13.64q0.65-0.6-0.24-0.6h-11.25q-0.53 0-0.78 0.47-3.75 7.16-8.96 13.35a0.28 0.27 7.2 0 0 0.33 0.42" stroke="#96d6ef" vector-effect="non-scaling-stroke"/>
  <path d="m576.33 205.98 6.14-3.96q1.1-0.71-0.2-0.61l-1.49 0.12a1.13 1.12-69.9 0 0-0.73 0.34q-1.97 1.97-4.03 3.82-0.01 0.01 0 0.03l0.2 0.24q0.05 0.07 0.11 0.02" stroke="#80c5e5" vector-effect="non-scaling-stroke"/>
  <path d="m416.05 171.12q15.61 9.19 30.84-0.49 0.47-0.29 0.37-0.58" stroke="#819dbc" vector-effect="non-scaling-stroke"/>
  <path d="m447.26 170.05c3.53-0.3 9.62-10.82 10.8-13.78" stroke="#1774ab" vector-effect="non-scaling-stroke"/>
  <path d="m458.06 156.27 2.99-9.04" stroke="#819dbc" vector-effect="non-scaling-stroke"/>
  <path d="m461.05 147.23q1.66-6.95 1.91-14.21" stroke="#4881b1" vector-effect="non-scaling-stroke"/>
  <path d="m462.96 133.02v-9.13" stroke="#819dbc" vector-effect="non-scaling-stroke"/>
  <path d="m462.96 123.89-1.48-12.94" stroke="#4881b1" vector-effect="non-scaling-stroke"/>
  <path d="m461.48 110.95-2.61-8.99" stroke="#819dbc" vector-effect="non-scaling-stroke"/>
  <path d="m458.87 101.96q-3.19-9.07-10.21-15.08" stroke="#1774ab" vector-effect="non-scaling-stroke"/>
  <path d="m448.66 86.88q-13.61-10.63-29.3-3.62" stroke="#819dbc" vector-effect="non-scaling-stroke"/>
  <path d="m448.66 86.88q-3.71 7.25-5.62 14.82-0.13 0.51 0.4 0.5l15.43-0.24" stroke="#96d6ef" vector-effect="non-scaling-stroke"/>
  <path d="m461.48 110.95-16.6-0.13" stroke="#c7e4f5" vector-effect="non-scaling-stroke"/>
  <path d="m444.88 110.82-3.66-0.05q-0.54-0.01-0.61 0.53l-1.53 12.36q-0.07 0.57 0.51 0.56l3.32-0.06" stroke="#96d6ef" vector-effect="non-scaling-stroke"/>
  <path d="m442.91 124.16 20.05-0.27" stroke="#c7e4f5" vector-effect="non-scaling-stroke"/>
  <path d="m462.96 133.02-17.46-0.19" stroke="#c7e4f5" vector-effect="non-scaling-stroke"/>
  <path d="m445.5 132.83-6.1-0.05q-0.58-0.01-0.52 0.56l1.32 13.4q0.07 0.71 0.79 0.71l6.22-0.04" stroke="#96d6ef" vector-effect="non-scaling-stroke"/>
  <path d="m447.21 147.41 13.84-0.18" stroke="#c7e4f5" vector-effect="non-scaling-stroke"/>
  <path d="m458.06 156.27-15.18-0.23a0.51 0.5-7.5 0 0-0.49 0.63q1.7 6.36 4.3 12.63 0.16 0.4 0.57 0.75" stroke="#96d6ef" vector-effect="non-scaling-stroke"/>
  <path d="m445.5 132.83 1.71 14.58" stroke="#5dbbe4" vector-effect="non-scaling-stroke"/>
  <path d="m444.88 110.82q-1.72 6.68-1.97 13.34" stroke="#5dbbe4" vector-effect="non-scaling-stroke"/>
  <path d="m419.94 101.76a0.34 0.34 0 0 0 0.3 0.49h13.23a0.34 0.34 0 0 0 0.33-0.23l4.76-14.32a0.34 0.34 0 0 0-0.32-0.45h-11.07a0.34 0.34 0 0 0-0.3 0.19l-6.93 14.32" stroke="#80c5e5" vector-effect="non-scaling-stroke"/>
  <path d="m415.22 123.87a0.33 0.33 0 0 0 0.33 0.38h14.64a0.33 0.33 0 0 0 0.33-0.29l1.42-12.84a0.33 0.33 0 0 0-0.33-0.37h-14.07a0.33 0.33 0 0 0-0.32 0.28l-2 12.84" stroke="#80c5e5" vector-effect="non-scaling-stroke"/>
  <path d="m430.31 133.02a0.3 0.3 0 0 0-0.3-0.27h-14.82a0.3 0.3 0 0 0-0.3 0.34l1.86 14.15a0.3 0.3 0 0 0 0.29 0.26h14.28a0.3 0.3 0 0 0 0.3-0.33l-1.31-14.15" stroke="#80c5e5" vector-effect="non-scaling-stroke"/>
  <path d="m433.32 156.22a0.31 0.31 0 0 0-0.3-0.22h-13.49a0.31 0.31 0 0 0-0.28 0.43l6.07 13.88a0.31 0.31 0 0 0 0.28 0.19h11.63a0.31 0.31 0 0 0 0.3-0.4l-4.21-13.88" stroke="#80c5e5" vector-effect="non-scaling-stroke"/>
 </g>
 <path d="m579.38 76.946-8.77 25.79h-6.42l-3.3-8.82 11.93 0.06a0.71 0.7 85.8 0 0 0.7-0.82l-1.88-11.99q-0.1-0.63-0.73-0.63h-13.69a0.62 0.62 0 0 0-0.53 0.94q0.89 1.43 0.11 1.87l-14.8-39.18a1.04 1.04 0 0 0-0.96-0.67l-8.4-0.07-7.71-9.82q-0.26-0.33-0.68-0.33l-13.99 0.01q-0.6 0-0.37 0.56l3.98 9.65-9.53-0.05-4.1-9.71q-0.2-0.46-0.7-0.46h-12.51q-0.47 0-0.4 0.47l1.96 14.3q0.07 0.48 0.55 0.48l13.81 0.29q1.72 1.1 7.34 1.19 4.47 0.07 4.5 5.04 0.25 38.4 0.2 76.8c-0.01 9.29-2.98 10.89-11.38 11.22q-0.52 0.02-0.54 0.54l-0.16 5.15-13.53 0.08q-0.41 0.01-0.46 0.42l-1.77 13.27a0.23 0.23 0 0 0 0.23 0.26h14.11q0.46 0 0.61-0.43l5.12-13.85 9.1-0.04-4.85 13.86a0.32 0.31 9.7 0 0 0.3 0.42l15.54 0.05a1.58 1.6 17.3 0 0 1.34-0.71l9.12-13.66q0.8-0.44 0.44-2.65-0.08-0.45-0.53-0.48c-4.44-0.33-9.05-1.09-11.31-5.5q2.69 0.79 4.32 0.4l10.6 0.11a0.76 0.78 9.9 0 0 0.74-0.53l4.58-13.39a0.43 0.44 9.6 0 0-0.41-0.58l-9.4 0.03-12.47 0.1-0.04-8.78 20.21 0.09 7.29 19.79q0.16 0.44 0.1 0.9l-0.07 0.53q-0.71 0.75-0.6 1.58a0.52 0.53 79.4 0 0 0.64 0.43l1.1-0.26 1.9 4.88q0.18 0.44 0.66 0.44h8.97a0.59 0.58 10 0 0 0.55-0.38l17.08-47.43c0.68 24.02-8.18 46.17-24.12 64.4-0.19 0.21-0.29 0.51-0.33 0.77q-0.05 0.28-0.26 0.47-9.63 9.12-13.99 12.35c-44.83 33.33-106.61 32.21-149.91-2.97-3.24-2.63-6.95-6.39-10.52-9.45q-0.22-0.19-0.21-0.49 0.01-0.13 0.01-0.26a0.62 0.63 27 0 0-0.13-0.41l-8.98-11.65 11.11 0.71 9.96 11.17q0.38 0.42 0.94 0.42l5.3-0.01q0.73 0 0.35-0.62l-7.3-12.05c7.95-2.42 14.19-4.81 20.63-10.09l7.02 0.23q0.53 0.01 0.4-0.51l-1.4-5.92q5.9-7.55 8.75-16.51l18.36-0.16a1.59 1.59 0 0 0 1.57-1.77l-1.21-10.97q-0.05-0.45-0.47-0.58c-4.81-1.52-10.44-0.93-15.55-1.41l0.04-8.45c4.51-0.05 9.87 0.55 14.06-0.82 1.81-0.6 1.42-1.65 1.81-3q1.27-4.43 1.03-8.91a0.54 0.54 0 0 0-0.54-0.52l-18.4 0.04q-2.57-9.71-8.92-18.19 1.19-2.41 1.43-5 0.05-0.52-0.47-0.5l-5.61 0.22q-1.83-1.29-3.88-2.89-7.3-5.7-16.6-8.2l8.18-12.38a0.34 0.33 16.9 0 0-0.28-0.52l-3.96-0.01a1.19 1.22 25.3 0 0-0.78 0.29q-5.56 4.8-10.44 10.24-0.19 0.21-0.09 0.42l-11.68 0.5q4.01-5.44 8.54-10.37c0.8-0.88 1.23-1.83 2.14-2.54 4.82-3.75 9.83-8.14 14.54-11.26 43.37-28.72 100.69-27.52 142.25 4.61q5.69 4.4 9.07 7.29 0.3 0.25 0.46 0.86 0.14 0.49 0.49 0.85c12.19 12.58 19.81 25.88 24.85 42.77zm-109.46-67.64c-2.77 4.05-4.29 10.15-5.37 14.88q-0.12 0.56 0.45 0.56l10.53 0.02q0.54 0.01 0.44-0.52-1.42-7.87-5.19-14.89a0.5 0.5 0 0 0-0.86-0.05zm-11.51 2.76q-7.42 4.9-12.36 12.28a0.27 0.27 0 0 0 0.22 0.42l8.86 0.01q0.4 0.01 0.51-0.38l3.26-11.97q0.22-0.83-0.49-0.36zm23.04 0.18q2.11 5.84 3.3 11.94 0.12 0.59 0.72 0.59h8.98a0.23 0.23 0 0 0 0.19-0.35q-5.03-7.43-12.47-12.27-0.32-0.21-0.62-0.11a0.16 0.16 0 0 0-0.1 0.2zm-39.53 2.34c-5.59 2.21-11.39 5.95-16.09 9.6q-0.76 0.6 0.2 0.6h8.88a0.71 0.7 17.8 0 0 0.57-0.29l6.74-9.53q0.5-0.7-0.3-0.38zm56.73-0.06q-0.9-0.4-0.33 0.39l6.76 9.51q0.26 0.36 0.7 0.36h8.76q1.01 0 0.21-0.61-7.47-5.78-16.1-9.65zm-67.89 18.92a0.11 0.11 0 0 0-0.1-0.15l-14.16-0.02q-0.52 0-0.87 0.38-6.01 6.52-10.56 14.15-0.48 0.79 0.44 0.78l19.04-0.11q0.44 0 0.6-0.42zm3.42 14.46a0.47 0.47 0 0 0 0.44 0.65l16.92-0.05a0.47 0.47 0 0 0 0.47-0.41l1.94-14.28a0.47 0.47 0 0 0-0.47-0.53l-12.87-0.01a0.47 0.47 0 0 0-0.43 0.29zm45.41 0.58a0.37 0.37 0 0 0 0.36-0.42l-1.94-14.47a0.37 0.37 0 0 0-0.36-0.32l-14.69 0.01a0.37 0.37 0 0 0-0.36 0.32l-1.95 14.46a0.37 0.37 0 0 0 0.36 0.42zm56.76-15.05 9.53 14.63q0.3 0.46 0.84 0.46l8.48 0.02q0.52 0 0.2-0.4-5.63-7.23-12.58-13.29c-2.1-1.83-3.84-1.95-6.45-1.47a0.03 0.03 0 0 0-0.02 0.05zm-104.18 23.58a0.81 0.81 0 0 0-0.79 0.64l-2.83 13.52a0.81 0.81 0 0 0 0.8 0.97l19.93-0.33a0.81 0.81 0 0 0 0.79-0.74l1.1-13.17a0.81 0.81 0 0 0-0.81-0.88zm48.68 14.71a0.88 0.88 0 0 0 0.88-0.93l-0.76-12.92a0.88 0.88 0 0 0-0.88-0.83h-19.57a0.88 0.88 0 0 0-0.88 0.83l-0.76 12.72a0.88 0.88 0 0 0 0.87 0.93zm31.15-0.49-2.81-13.68q-0.11-0.53-0.65-0.53h-18.58q-0.57 0-0.52 0.56l0.99 12.79q0.12 1.54 1.67 1.55l19.21 0.15q0.87 0.01 0.69-0.84zm43.05 0.58a0.32 0.32 0 0 0 0.3 0.22h13.26a0.32 0.32 0 0 0 0.29-0.46l-6.9-14.36a0.32 0.32 0 0 0-0.29-0.18h-11.16a0.32 0.32 0 0 0-0.3 0.42zm-59.79 21.35q9.09 1.29 18.27 0.72a0.44 0.44 0 0 0 0.41-0.46l-0.59-12.37q-0.03-0.55-0.57-0.54l-21.26 0.17q-0.51 0-0.46 0.51c0.24 2.68 0.67 11.47 4.2 11.97zm1.27 9.49c-3.89-0.01-4.41 4.24-4.95 6.98-0.36 1.81 0.07 3.69-0.2 5.58a1.68 1.68 0 0 0 1.64 1.92l19.62 0.17a0.92 0.92 0 0 0 0.92-0.89l0.4-13.35a0.54 0.54 0 0 0-0.55-0.55q-8.47 0.17-16.88 0.14zm-68.31 23.67 2.57 13.41a0.69 0.69 0 0 0 0.68 0.56h18.96q0.55 0 0.51-0.54l-0.89-12.25a1.58 1.59 88.4 0 0-1.56-1.47l-19.76-0.32q-0.63-0.01-0.51 0.61zm52.05 13.95a0.95 0.95 0 0 0 0.95-0.91l0.53-12.44a0.95 0.95 0 0 0-0.96-0.99l-21.04 0.27a0.95 0.95 0 0 0-0.94 1l0.64 12.17a0.95 0.95 0 0 0 0.95 0.9zm28.82 0.01a0.79 0.79 0 0 0 0.77-0.64l2.51-13.06a0.79 0.79 0 0 0-0.8-0.94l-20.21 0.42a0.79 0.79 0 0 0-0.77 0.73l-0.87 12.66a0.79 0.79 0 0 0 0.79 0.85zm-84.79 8.78a0.32 0.32 0 0 0-0.3-0.21l-20.68-0.09a0.32 0.32 0 0 0-0.27 0.5l9.06 13.39a0.32 0.32 0 0 0 0.27 0.14l16.27-0.03a0.32 0.32 0 0 0 0.3-0.42zm27.41 0.19a0.48 0.48 0 0 0-0.47-0.42l-17.35-0.05a0.48 0.48 0 0 0-0.45 0.65l4.89 13.04a0.48 0.48 0 0 0 0.45 0.31h14.11a0.48 0.48 0 0 0 0.47-0.54zm26.46 13.53a0.43 0.43 0 0 0 0.43-0.38l1.61-13.06a0.43 0.43 0 0 0-0.43-0.48h-18.97a0.43 0.43 0 0 0-0.43 0.48l1.61 13.06a0.43 0.43 0 0 0 0.43 0.38zm79.52-13.47a0.32 0.32 0 0 0-0.24-0.53h-9.83a0.32 0.32 0 0 0-0.27 0.16l-7.89 13.36a0.32 0.32 0 0 0 0.27 0.48l5.98-0.02a0.32 0.32 0 0 0 0.24-0.11zm-145.46 26.29a0.16 0.17 84.6 0 0 0.21-0.25l-3.63-3.74q-0.37-0.37-0.88-0.35l-1.46 0.05a0.27 0.26 60.2 0 0-0.13 0.49zm29.35 9.66q1.68 0.78 0.51-0.66-4.89-5.99-8.48-12.84-0.25-0.48-0.79-0.48l-11.34-0.02q-0.92 0-0.24 0.62 9.15 8.24 20.34 13.38zm17.3 2.33-4.13-15.95q-0.09-0.33-0.44-0.33h-10.3q-0.72 0-0.36 0.62 5.58 9.66 14.75 16 0.69 0.47 0.48-0.34zm4.99-15.79c0.81 5.66 2.69 14.1 6.06 18.76a0.5 0.49 42.6 0 0 0.82-0.03c3.33-5.55 4.84-12.31 6.02-18.62q0.11-0.59-0.49-0.59l-12 0.01q-0.48 0-0.41 0.47zm21.78-0.3c-0.98 5.22-2.22 10.8-4.12 15.95a0.4 0.41 82.9 0 0 0.61 0.47q9.29-6.29 15.1-16.5 0.07-0.12-0.07-0.12l-11.3 0.02q-0.19 0-0.22 0.18zm12.72 14.02c7.73-3.54 14.69-7.91 20.9-13.64q0.65-0.6-0.24-0.6h-11.25q-0.53 0-0.78 0.47-3.75 7.16-8.96 13.35a0.28 0.27 7.2 0 0 0.33 0.42zm29.72-9.76 6.14-3.96q1.1-0.71-0.2-0.61l-1.49 0.12a1.12 1.13 20.1 0 0-0.73 0.34q-1.97 1.97-4.03 3.82-0.01 0.01 0 0.03l0.2 0.24q0.05 0.07 0.11 0.02z" fill="#fff"/>
 <path d="m464.55 24.186c1.08-4.73 2.6-10.83 5.37-14.88a0.5 0.5 0 0 1 0.86 0.05q3.77 7.02 5.19 14.89 0.1 0.53-0.44 0.52l-10.53-0.02q-0.57 0-0.45-0.56z" fill="#2cadde"/>
 <path d="m458.41 12.066q0.71-0.47 0.49 0.36l-3.26 11.97q-0.11 0.39-0.51 0.38l-8.86-0.01a0.27 0.27 0 0 1-0.22-0.42q4.94-7.38 12.36-12.28z" fill="#2cadde"/>
 <path d="m481.45 12.246a0.16 0.16 0 0 1 0.1-0.2q0.3-0.1 0.62 0.11 7.44 4.84 12.47 12.27a0.23 0.23 0 0 1-0.19 0.35h-8.98q-0.6 0-0.72-0.59-1.19-6.1-3.3-11.94z" fill="#2cadde"/>
 <path d="m425.83 24.186c4.7-3.65 10.5-7.39 16.09-9.6q0.8-0.32 0.3 0.38l-6.74 9.53a0.71 0.7 17.8 0 1-0.57 0.29h-8.88q-0.96 0-0.2-0.6z" fill="#2cadde"/>
 <path d="m498.65 14.526q8.63 3.87 16.1 9.65 0.8 0.61-0.21 0.61h-8.76q-0.44 0-0.7-0.36l-6.76-9.51q-0.57-0.79 0.33-0.39z" fill="#2cadde"/>
 <path d="m396.09 46.196q-2.96-0.81-6.35-1.32-0.63-0.09-1.02-0.64-0.1-0.21 0.09-0.42 4.88-5.44 10.44-10.24a1.19 1.22 25.3 0 1 0.78-0.29l3.96 0.01a0.34 0.33 16.9 0 1 0.28 0.52z" fill="#008bcb"/>
 <path d="m430.76 33.446-5.61 14.61q-0.16 0.42-0.6 0.42l-19.04 0.11q-0.92 0.01-0.44-0.78 4.55-7.63 10.56-14.15 0.35-0.38 0.87-0.38l14.16 0.02a0.11 0.11 0 0 1 0.1 0.15z" fill="#2cadde"/>
 <path d="m434.18 47.906 6-14.34a0.47 0.47 0 0 1 0.43-0.29l12.87 0.01a0.47 0.47 0 0 1 0.47 0.53l-1.94 14.28a0.47 0.47 0 0 1-0.47 0.41l-16.92 0.05a0.47 0.47 0 0 1-0.44-0.65z" fill="#8ec8ea"/>
 <path d="m479.59 48.486h-18.58a0.37 0.37 0 0 1-0.36-0.42l1.95-14.46a0.37 0.37 0 0 1 0.36-0.32l14.69-0.01a0.37 0.37 0 0 1 0.36 0.32l1.94 14.47a0.37 0.37 0 0 1-0.36 0.42z" fill="#8ec8ea"/>
 <path d="m504.34 43.446q-1.8-0.79-1.39 5.37l-13.81-0.29q-0.48 0-0.55-0.48l-1.96-14.3q-0.07-0.47 0.4-0.47h12.51q0.5 0 0.7 0.46z" fill="#8ec8ea"/>
 <path d="m532.64 43.426-18.77 0.07-3.98-9.65q-0.23-0.56 0.37-0.56l13.99-0.01q0.42 0 0.68 0.33z" fill="#2cadde"/>
 <path d="m545.88 48.066-9.53-14.63a0.03 0.03 0 0 1 0.02-0.05c2.61-0.48 4.35-0.36 6.45 1.47q6.95 6.06 12.58 13.29 0.32 0.4-0.2 0.4l-8.48-0.02q-0.54 0-0.84-0.46z" fill="#008bcb"/>
 <path d="m532.64 43.426 8.4 0.07a1.04 1.04 0 0 1 0.96 0.67l14.8 39.18 4.09 10.57 3.3 8.82 3.04 8.33q0.28 0.75 0.53 0l2.85-8.33 8.77-25.79 11.18-32.73q0.23-0.68 0.95-0.68h39.25q0.25 0 0.25 0.25l-0.02 5.73q0 0.28-0.28 0.27c-8.16-0.19-12.93-0.04-12.94 9.97q-0.02 36.14-0.01 72.28c0 9.11 0.95 11.13 10.16 11.29a1.59 1.58 59.3 0 1 0.77 0.2c3.47 1.92 6.15-3.37 7.66-6.57 3.41-7.22 6.28-14.06 8.81-22.03q11.09-34.93 22.12-69.79 0.11-0.35 0.48-0.35h18.73q0.5 0 0.65 0.48 14.97 47.14 29.93 94.27 1.13 3.57 4.57 4.02 5.96 0.78 11.88-0.41c4.07-0.82 4.72-3.51 4.73-7.44q0.04-39.58 0.03-79.17c0-6.45-5.92-6.77-10.72-6.8q-0.76-0.01-0.77-0.77l-0.04-3.19q-0.01-0.61 0.6-0.61 21.75 0.22 43.91 0.09c20.01-0.11 45.47 4.77 39.69 31.51-2.38 11-11.84 17.26-22.21 19.59q-0.96 0.21-0.31 0.95 0.06 0.06 0.6 0.19c12.84 3.22 18.23 14.21 19.12 26.45q0.52 7.11 1 8.57 2.04 6.11 8.15 9.45c5.63 3.07 15.67 3.87 15.69-5.18q0.06-36.03 0.01-72.07c-0.01-3.01 0.79-8.83-0.03-11.71-1.07-3.8-8.22-3.63-11.42-3.45a0.27 0.27 0 0 1-0.29-0.27v-3.75a0.25 0.25 0 0 1 0.25-0.25h44.95q0.21 0 0.22 0.2l0.35 4.29a0.26 0.26 0 0 1-0.27 0.29q-4.13-0.2-7.5 0.24c-3.09 0.4-3.74 2.57-3.74 5.48q-0.02 39-0.01 78c0.01 9.86 4.29 10.33 12.77 10.15q0.48-0.01 0.87-0.31 2.16-1.62 2.66-2.55 6.31-11.67 10.34-24.32 11.38-35.75 22.74-71.5 0.15-0.47 0.64-0.47h18.67q0.41 0 0.54 0.39 15.08 47.5 30.24 94.95c1.39 4.34 5.48 3.43 8.86 3.94q0.43 0.07 0.43 0.5l-0.01 3.47q-0.01 0.5-0.5 0.5h-44.49q-0.5 0-0.5-0.5l-0.01-3.77q-0.01-0.55 0.54-0.52c3.69 0.19 10.84 0.81 10.76-4.19q-0.03-1.59-1.54-6.25-3.28-10.13-6.54-20.26-0.17-0.51-0.71-0.51h-27.46q-0.42 0-0.53 0.4-3.14 10.56-6.28 21.02c-2.82 9.41 3.91 10.57 11.02 10.32q0.49-0.01 0.49 0.47v3.33q0 0.46-0.47 0.46-45.76-0.01-91.79 0.01-6.44 0-9.35-1.07c-8.96-3.27-13.87-13.26-14.75-22.22-0.83-8.36-1.99-17.98-9.18-22.74q-0.35-0.24-0.77-0.24l-10.91 0.01q-0.52 0.01-0.52 0.52-0.03 12.13-0.02 24.21c0.01 3.3-0.87 9.97 0.25 14.03 0.88 3.19 7.43 3.36 10.02 3.23q0.49-0.03 0.49 0.47v3.29q0 0.5-0.5 0.5h-89.45q-0.21 0-0.22-0.21l-0.36-4.26a0.26 0.26 0 0 1 0.27-0.28c8.49 0.23 13.19 0.53 9.78-10q-3.36-10.35-6.66-20.82a0.62 0.62 0 0 0-0.59-0.43h-27.54a0.62 0.61 8.2 0 0-0.59 0.44q-2.93 9.66-5.73 19.29c-1.63 5.63-2.55 10.79 4.83 11.72q3.09 0.38 5.68 0.29 0.33-0.01 0.33 0.32v3.44q-0.01 0.5-0.5 0.5h-76a0.24 0.25 0 0 1-0.24-0.25l-0.01-4.48a0.26 0.27 2 0 1 0.28-0.27c4.18 0.17 9.98-0.27 10.03-6q0.18-24.26 0.18-48.53c0-6.34-0.44-15.97-0.17-23.91q0.05-1.55-0.47-0.09l-11.74 32.72-17.08 47.43a0.59 0.58 10 0 1-0.55 0.38h-8.97q-0.48 0-0.66-0.44l-1.9-4.88q-0.45-1.34-1.14-1.75l0.07-0.53q0.06-0.46-0.1-0.9l-7.29-19.79-5.38-14.67-3.25-8.74-4.77-13.03-3.34-9.04-3-8.18q-0.46-1.26-0.46 0.08l-0.02 8.14v9.09l0.01 12.78-0.01 9.01 0.01 14.47 0.04 8.78q-0.54 7.54 2.04 13.86c2.26 4.41 6.87 5.17 11.31 5.5q0.45 0.03 0.53 0.48 0.36 2.21-0.44 2.65l-21.45 0.04-9.1 0.04q-2.19-0.34-4.31 0.25l0.16-5.15q0.02-0.52 0.54-0.54c8.4-0.33 11.37-1.93 11.38-11.22q0.05-38.4-0.2-76.8-0.03-4.97-4.5-5.04-5.62-0.09-7.34-1.19-0.41-6.16 1.39-5.37l9.53 0.05zm244.17 9.28q-6.34-2.53-13.93-0.75c-3.7 0.86-2.34 2.53-2.35 5.12q-0.05 18.07-0.01 36.14 0 0.52 0.52 0.55c9.94 0.47 21.27 0.12 24.6-11.6 2.58-9.05 1.66-25.27-8.83-29.46zm118.24 52.05a0.3 0.3 0 0 0 0.29 0.39l23.95-0.47a0.3 0.3 0 0 0 0.28-0.39l-11.58-36.62a0.3 0.3 0 0 0-0.57 0zm-237.57-0.06a0.34 0.34 0 0 0 0.33 0.45l23.8-0.47a0.34 0.34 0 0 0 0.31-0.44l-11.48-36.44a0.34 0.34 0 0 0-0.65-0.01z" fill="#023a78"/>
 <path d="m388.72 44.236q0.39 0.55 1.02 0.64 3.39 0.51 6.35 1.32 9.3 2.5 16.6 8.2 2.05 1.6 3.88 2.89l4.65 5.28q6.35 8.48 8.92 18.19l2.04 13.21-0.04 8.45q-0.45 7.37-2.7 14.89-2.85 8.96-8.75 16.51l-6.02 6.2c-6.44 5.28-12.68 7.67-20.63 10.09l-9.25 1.09-11.11-0.71q-31.36-7-38.48-38.2-3.15-13.83-0.18-27.93c4.57-21.69 19.48-36.28 42.02-39.62zm-17.6 8.81c-12.39 6.5-17.98 19.92-19.31 33.25-1.91 19.07-0.65 42.26 16 54.61q15.61 9.19 30.84-0.49 0.47-0.29 0.37-0.58c3.53-0.3 9.62-10.82 10.8-13.78l2.99-9.04q1.66-6.95 1.91-14.21v-9.13l-1.48-12.94-2.61-8.99q-3.19-9.07-10.21-15.08-13.61-10.63-29.3-3.62z" fill="#023a78"/>
 <path d="m115.13 111.02q-4.78 13.55-8.93 27.31c-2.44 8.06 3.48 8 9.11 7.96a0.25 0.25 0 0 1 0.25 0.27l-0.36 4.02q-0.02 0.21-0.23 0.21h-26.94a0.67 0.67 0 0 1-0.67-0.73l0.26-3.3a0.59 0.59 0 0 1 0.69-0.53c4.59 0.78 6.99-2.27 8.74-5.92 3.64-7.57 6.58-14.78 9.28-23.25q11.01-34.62 21.97-69.25 0.17-0.52 0.71-0.52h10.73q0.48 0 0.64 0.45c11.4 31.91 23.19 63.74 34.09 95.81 1.31 3.87 12.67 2.88 15.81 2.39q6.45-1.01 6.5-7.66 0.3-39.12-0.02-78.24c-0.07-7.94-6.37-8.9-12.75-9.01a0.26 0.25 1.2 0 1-0.25-0.25v-2.75q0-0.24 0.24-0.24 23.44 0 47.01 0.08c25.53 0.08 47.9 7.11 52.76 35.67 4.55 26.76-0.95 54.53-29.99 63.76q-10.2 3.24-23.02 3.3-41.33 0.19-82.42 0.19-0.25 0-0.24-0.24l0.23-4q0.01-0.28 0.3-0.28c2.94 0.05 7.82 1.04 9.13-2.73q0.73-2.11-1.17-7.32-4.68-12.81-9.66-25.51-0.2-0.51-0.74-0.5l-30.36 0.31q-0.52 0.01-0.7 0.5zm117.38 33.18c16.17-1.92 29.28-11.47 33.73-27.66q4.94-17.95-0.68-38.26c-3.63-13.12-14.37-22.8-28.06-24.41q-12.17-1.44-26.07-0.6-0.52 0.03-0.6 0.55-0.26 1.85-0.27 3.72c-0.05 26.2 0.15 52.39 0.21 78.6q0.01 3.14 0.8 4.67c2.93 5.68 15.56 4.03 20.94 3.39zm-115.68-39.97a0.34 0.34 0 0 0 0.32 0.45l27.83 0.46a0.34 0.34 0 0 0 0.32-0.45l-14.33-40.06a0.34 0.34 0 0 0-0.64 0z" fill="#023a78"/>
 <path d="m57.73 98.286a0.81 0.81 0 0 0 0 1.57c11.55 3.21 15.57 14.97 16.4 25.86q0.59 7.81 0.95 9.02 2.47 8.34 11.48 11.24 0.57 0.18 0.53 0.77l-0.2 3.25q-0.03 0.53-0.56 0.53-7.34 0.04-14.62 0.01-2.88-0.01-4.69-1.03c-9.01-5.06-8.93-22.03-9.56-30.69-0.5-6.81-5.33-16.55-13.19-16.54q-7.92 0.01-15.63 0.01a0.64 0.64 0 0 0-0.64 0.63q-0.07 17.75 0.29 35.6c0.15 7.59 6.63 8.63 12.72 8.81q0.24 0.01 0.24 0.25v2.71a0.24 0.25 0 0 1-0.24 0.25h-40.74q-0.25 0-0.25-0.24l-0.02-2.73q0-0.23 0.23-0.24c12.13-0.43 12.53-5.8 12.53-16.2q0-32.8 0-65.59c0-10.15-1.31-14.19-12.3-14.83q-0.44-0.02-0.44-0.46l-0.01-2.23a0.46 0.47 0 0 1 0.46-0.47q22.36-0.03 45.04-0.04c14.38-0.01 30.87 4.57 32.58 21.74 1.47 14.7-6.65 25.34-20.36 29.04zm4.32-21.73c1.25-18.61-13.71-25-29.8-22.77-2.96 0.41-4.21 1.17-4.22 4.44q-0.05 19.12-0.01 38.29 0 0.52 0.53 0.51c14.42-0.14 32.27-2.19 33.5-20.47z" fill="#023a78"/>
 <path d="m328.99 51.026c-9.64-0.02-13.71 2.41-13.72 12.62q-0.02 36.32-0.01 72.64c0.01 10.13 5.99 9.84 13.76 10.29a0.24 0.24 0 0 1 0.23 0.24l0.01 3.97a0.25 0.25 0 0 1-0.25 0.25h-42a0.24 0.25 0 0 1-0.24-0.25l-0.01-3.74q0-0.24 0.24-0.25c6.79-0.17 13.41-0.19 13.44-9.01q0.12-38.87-0.15-77.74c-0.05-8-6.79-8.95-13.28-9.03a0.26 0.25 1.2 0 1-0.25-0.25v-2.73a0.25 0.25 0 0 1 0.25-0.25h42a0.25 0.24 1.1 0 1 0.25 0.25l-0.01 2.72a0.26 0.27 0 0 1-0.26 0.27z" fill="#023a78"/>
 <path d="m400.42 56.666q-3.71 7.25-5.62 14.82-0.13 0.51 0.4 0.5l15.43-0.24 2.61 8.99-16.6-0.13-3.66-0.05q-0.54-0.01-0.61 0.53l-1.53 12.36q-0.07 0.57 0.51 0.56l3.32-0.06 20.05-0.27v9.13l-17.46-0.19-6.1-0.05q-0.58-0.01-0.52 0.56l1.32 13.4q0.07 0.71 0.79 0.71l6.22-0.04 13.84-0.18-2.99 9.04-15.18-0.23a0.5 0.51 82.5 0 0-0.49 0.63q1.7 6.36 4.3 12.63 0.16 0.4 0.57 0.75 0.1 0.29-0.37 0.58-15.23 9.68-30.84 0.49-1.16-3.23-2.43-6.29c-8.66-20.95-9.25-43.55-1.83-64.82q2.48-7.1 7.57-16.75 15.69-7.01 29.3 3.62zm-28.72 14.88a0.34 0.34 0 0 0 0.3 0.49h13.23a0.34 0.34 0 0 0 0.33-0.23l4.76-14.32a0.34 0.34 0 0 0-0.32-0.45h-11.07a0.34 0.34 0 0 0-0.3 0.19zm-4.72 22.11a0.33 0.33 0 0 0 0.33 0.38h14.64a0.33 0.33 0 0 0 0.33-0.29l1.42-12.84a0.33 0.33 0 0 0-0.33-0.37h-14.07a0.33 0.33 0 0 0-0.32 0.28zm15.09 9.15a0.3 0.3 0 0 0-0.3-0.27h-14.82a0.3 0.3 0 0 0-0.3 0.34l1.86 14.15a0.3 0.3 0 0 0 0.29 0.26h14.28a0.3 0.3 0 0 0 0.3-0.33zm3.01 23.2a0.31 0.31 0 0 0-0.3-0.22h-13.49a0.31 0.31 0 0 0-0.28 0.43l6.07 13.88a0.31 0.31 0 0 0 0.28 0.19h11.63a0.31 0.31 0 0 0 0.3-0.4z" fill="#fff"/>
 <path d="m400.42 56.666q7.02 6.01 10.21 15.08l-15.43 0.24q-0.53 0.01-0.4-0.5 1.91-7.57 5.62-14.82z" fill="#2cadde"/>
 <path d="m371.7 71.546 6.93-14.32a0.34 0.34 0 0 1 0.3-0.19h11.07a0.34 0.34 0 0 1 0.32 0.45l-4.76 14.32a0.34 0.34 0 0 1-0.33 0.23h-13.23a0.34 0.34 0 0 1-0.3-0.49z" fill="#008bcb"/>
 <path d="m421.22 62.566-4.65-5.28 5.61-0.22q0.52-0.02 0.47 0.5-0.24 2.59-1.43 5z" fill="#8ec8ea"/>
 <path d="m432.17 57.016 18.19 0.01a0.81 0.81 0 0 1 0.81 0.88l-1.1 13.17a0.81 0.81 0 0 1-0.79 0.74l-19.93 0.33a0.81 0.81 0 0 1-0.8-0.97l2.83-13.52a0.81 0.81 0 0 1 0.79-0.64z" fill="#c3e0f4"/>
 <path d="m480.85 71.726-21.1-0.2a0.88 0.88 0 0 1-0.87-0.93l0.76-12.72a0.88 0.88 0 0 1 0.88-0.83h19.57a0.88 0.88 0 0 1 0.88 0.83l0.76 12.92a0.88 0.88 0 0 1-0.88 0.93z" fill="#c3e0f4"/>
 <path d="m512 71.236q0.18 0.85-0.69 0.84l-19.21-0.15q-1.55-0.01-1.67-1.55l-0.99-12.79q-0.05-0.56 0.52-0.56h18.58q0.54 0 0.65 0.53z" fill="#c3e0f4"/>
 <path d="m555.05 71.816-4.8-14.36a0.32 0.32 0 0 1 0.3-0.42h11.16a0.32 0.32 0 0 1 0.29 0.18l6.9 14.36a0.32 0.32 0 0 1-0.29 0.46h-13.26a0.32 0.32 0 0 1-0.3-0.22z" fill="#008bcb"/>
 <path d="m527.76 71.766q-1.63 0.57-3.48 0.04l0.02-8.14q0-1.34 0.46-0.08z" fill="#8ec8ea"/>
 <path d="m524.28 71.806q1.85 0.53 3.48-0.04l3.34 9.04q-3.64-0.69-6.82 0.09z" fill="#fff"/>
 <path d="m366.98 93.656 2-12.84a0.33 0.33 0 0 1 0.32-0.28h14.07a0.33 0.33 0 0 1 0.33 0.37l-1.42 12.84a0.33 0.33 0 0 1-0.33 0.29h-14.64a0.33 0.33 0 0 1-0.33-0.38z" fill="#008bcb"/>
 <path d="m396.64 80.606q-1.72 6.68-1.97 13.34l-3.32 0.06q-0.58 0.01-0.51-0.56l1.53-12.36q0.07-0.54 0.61-0.53z" fill="#2cadde"/>
 <path d="m396.64 80.606 16.6 0.13 1.48 12.94-20.05 0.27q0.25-6.66 1.97-13.34z" fill="#8ec8ea"/>
 <path d="m432.18 93.966-2.04-13.21 18.4-0.04a0.54 0.54 0 0 1 0.54 0.52q0.24 4.48-1.03 8.91c-0.39 1.35 0 2.4-1.81 3-4.19 1.37-9.55 0.77-14.06 0.82z" fill="#c3e0f4"/>
 <path d="m495.26 93.166c-3.53-0.5-3.96-9.29-4.2-11.97q-0.05-0.51 0.46-0.51l21.26-0.17q0.54-0.01 0.57 0.54l0.59 12.37a0.44 0.44 0 0 1-0.41 0.46q-9.18 0.57-18.27-0.72z" fill="#c3e0f4"/>
 <path d="m531.1 80.806 4.77 13.03-11.58-0.16-0.01-12.78q3.18-0.78 6.82-0.09z" fill="#8ec8ea"/>
 <path d="m560.89 93.916-4.09-10.57q0.78-0.44-0.11-1.87a0.62 0.62 0 0 1 0.53-0.94h13.69q0.63 0 0.73 0.63l1.88 11.99a0.71 0.7 85.8 0 1-0.7 0.82z" fill="#008bcb"/>
 <path d="m524.29 93.676 11.58 0.16 3.25 8.74-14.84 0.11z" fill="#fff"/>
 <path d="m432.14 102.42c5.11 0.48 10.74-0.11 15.55 1.41q0.42 0.13 0.47 0.58l1.21 10.97a1.59 1.59 0 0 1-1.57 1.77l-18.36 0.16q2.25-7.52 2.7-14.89z" fill="#c3e0f4"/>
 <path d="m382.07 102.81 1.31 14.15a0.3 0.3 0 0 1-0.3 0.33h-14.28a0.3 0.3 0 0 1-0.29-0.26l-1.86-14.15a0.3 0.3 0 0 1 0.3-0.34h14.82a0.3 0.3 0 0 1 0.3 0.27z" fill="#008bcb"/>
 <path d="m397.26 102.62 1.71 14.58-6.22 0.04q-0.72 0-0.79-0.71l-1.32-13.4q-0.06-0.57 0.52-0.56z" fill="#2cadde"/>
 <path d="m397.26 102.62 17.46 0.19q-0.25 7.26-1.91 14.21l-13.84 0.18z" fill="#8ec8ea"/>
 <path d="m491.58 109.64c0.54-2.74 1.06-6.99 4.95-6.98q8.41 0.03 16.88-0.14a0.54 0.54 0 0 1 0.55 0.55l-0.4 13.35a0.92 0.92 0 0 1-0.92 0.89l-19.62-0.17a1.68 1.68 0 0 1-1.64-1.92c0.27-1.89-0.16-3.77 0.2-5.58z" fill="#c3e0f4"/>
 <path d="m539.12 102.58 5.38 14.67-20.21-0.09-0.01-14.47z" fill="#8ec8ea"/>
 <path d="m570.61 102.74-2.85 8.33q-0.25 0.75-0.53 0l-3.04-8.33z" fill="#008bcb"/>
 <path d="m385.08 126.01 4.21 13.88a0.31 0.31 0 0 1-0.3 0.4h-11.63a0.31 0.31 0 0 1-0.28-0.19l-6.07-13.88a0.31 0.31 0 0 1 0.28-0.43h13.49a0.31 0.31 0 0 1 0.3 0.22z" fill="#008bcb"/>
 <path d="m409.82 126.06c-1.18 2.96-7.27 13.48-10.8 13.78q-0.41-0.35-0.57-0.75-2.6-6.27-4.3-12.63a0.5 0.51 82.5 0 1 0.49-0.63z" fill="#2cadde"/>
 <path d="m430.79 139.74-2.57-13.41q-0.12-0.62 0.51-0.61l19.76 0.32a1.58 1.59 88.4 0 1 1.56 1.47l0.89 12.25q0.04 0.54-0.51 0.54h-18.96a0.69 0.69 0 0 1-0.68-0.56z" fill="#c3e0f4"/>
 <path d="m480.27 140.28h-19.87a0.95 0.95 0 0 1-0.95-0.9l-0.64-12.17a0.95 0.95 0 0 1 0.94-1l21.04-0.27a0.95 0.95 0 0 1 0.96 0.99l-0.53 12.44a0.95 0.95 0 0 1-0.95 0.91z" fill="#c3e0f4"/>
 <path d="m509.09 140.29-18.58 0.02a0.79 0.79 0 0 1-0.79-0.85l0.87-12.66a0.79 0.79 0 0 1 0.77-0.73l20.21-0.42a0.79 0.79 0 0 1 0.8 0.94l-2.51 13.06a0.79 0.79 0 0 1-0.77 0.64z" fill="#c3e0f4"/>
 <path d="m536.8 125.84c-0.44 1.84-0.48 3.37-1.55 5.04-1.11 1.71-1.61 3.45-2.78 5.2q-1.31 1.97-1.78 4.12-1.63 0.39-4.32-0.4-2.58-6.32-2.04-13.86z" fill="#8ec8ea"/>
 <path d="m536.8 125.84 9.4-0.03a0.43 0.44 9.6 0 1 0.41 0.58l-4.58 13.39a0.76 0.78 9.9 0 1-0.74 0.53l-10.6-0.11q0.47-2.15 1.78-4.12c1.17-1.75 1.67-3.49 2.78-5.2 1.07-1.67 1.11-3.2 1.55-5.04z" fill="#2cadde"/>
 <path d="m420.69 133.82 1.4 5.92q0.13 0.52-0.4 0.51l-7.02-0.23z" fill="#8ec8ea"/>
 <path d="m551.82 138.47q0.69 0.41 1.14 1.75l-1.1 0.26a0.52 0.53 79.4 0 1-0.64-0.43q-0.11-0.83 0.6-1.58z" fill="#2cadde"/>
 <path d="m507.22 148.51-5.12 13.85q-0.15 0.43-0.61 0.43h-14.11a0.23 0.23 0 0 1-0.23-0.26l1.77-13.27q0.05-0.41 0.46-0.42l13.53-0.08q2.12-0.59 4.31-0.25z" fill="#8ec8ea"/>
 <path d="m537.77 148.43-9.12 13.66a1.58 1.6 17.3 0 1-1.34 0.71l-15.54-0.05a0.32 0.31 9.7 0 1-0.3-0.42l4.85-13.86z" fill="#2cadde"/>
 <path d="m424.3 149.07 4.65 13.28a0.32 0.32 0 0 1-0.3 0.42l-16.27 0.03a0.32 0.32 0 0 1-0.27-0.14l-9.06-13.39a0.32 0.32 0 0 1 0.27-0.5l20.68 0.09a0.32 0.32 0 0 1 0.3 0.21z" fill="#2cadde"/>
 <path d="m451.71 149.26 1.65 12.99a0.48 0.48 0 0 1-0.47 0.54h-14.11a0.48 0.48 0 0 1-0.45-0.31l-4.89-13.04a0.48 0.48 0 0 1 0.45-0.65l17.35 0.05a0.48 0.48 0 0 1 0.47 0.42z" fill="#8ec8ea"/>
 <path d="m478.17 162.79h-15.75a0.43 0.43 0 0 1-0.43-0.38l-1.61-13.06a0.43 0.43 0 0 1 0.43-0.48h18.97a0.43 0.43 0 0 1 0.43 0.48l-1.61 13.06a0.43 0.43 0 0 1-0.43 0.38z" fill="#8ec8ea"/>
 <path d="m557.69 149.32-11.74 13.34a0.32 0.32 0 0 1-0.24 0.11l-5.98 0.02a0.32 0.32 0 0 1-0.27-0.48l7.89-13.36a0.32 0.32 0 0 1 0.27-0.16h9.83a0.32 0.32 0 0 1 0.24 0.53z" fill="#008bcb"/>
 <path d="m394.04 150.11 7.3 12.05q0.38 0.62-0.35 0.62l-5.3 0.01q-0.56 0-0.94-0.42l-9.96-11.17z" fill="#008bcb"/>
 <path d="m412.23 175.61-5.89-3.8a0.27 0.26 60.2 0 1 0.13-0.49l1.46-0.05q0.51-0.02 0.88 0.35l3.63 3.74a0.16 0.17 84.6 0 1-0.21 0.25z" fill="#008bcb"/>
 <path d="m441.58 185.27q-11.19-5.14-20.34-13.38-0.68-0.62 0.24-0.62l11.34 0.02q0.54 0 0.79 0.48 3.59 6.85 8.48 12.84 1.17 1.44-0.51 0.66z" fill="#2cadde"/>
 <path d="m454.75 171.65 4.13 15.95q0.21 0.81-0.48 0.34-9.17-6.34-14.75-16-0.36-0.62 0.36-0.62h10.3q0.35 0 0.44 0.33z" fill="#2cadde"/>
 <path d="m469.93 190.57c-3.37-4.66-5.25-13.1-6.06-18.76q-0.07-0.47 0.41-0.47l12-0.01q0.6 0 0.49 0.59c-1.18 6.31-2.69 13.07-6.02 18.62a0.5 0.49 42.6 0 1-0.82 0.03z" fill="#2cadde"/>
 <path d="m481.53 187.46c1.9-5.15 3.14-10.73 4.12-15.95q0.03-0.18 0.22-0.18l11.3-0.02q0.14 0 0.07 0.12-5.81 10.21-15.1 16.5a0.4 0.41 82.9 0 1-0.61-0.47z" fill="#2cadde"/>
 <path d="m519.27 171.89c-6.21 5.73-13.17 10.1-20.9 13.64a0.28 0.27 7.2 0 1-0.33-0.42q5.21-6.19 8.96-13.35 0.25-0.47 0.78-0.47h11.25q0.89 0 0.24 0.6z" fill="#2cadde"/>
 <path d="m528.09 175.77q-0.06 0.05-0.11-0.02l-0.2-0.24q-0.01-0.02 0-0.03 2.06-1.85 4.03-3.82a1.12 1.13 20.1 0 1 0.73-0.34l1.49-0.12q1.3-0.1 0.2 0.61z" fill="#008bcb"/>
 <path d="m359.79 252.59c-1.49 16.16-16.35 24.26-30.95 19.67q-12.08-3.8-15.14-18.23c-3.18-14.98 1.37-32.88 18.46-36.52 12.38-2.63 24.56 3.08 27.21 16.54a0.62 0.62 0 0 1-0.61 0.74h-6.02a0.9 0.9 0 0 1-0.88-0.7c-1.72-7.08-7-10.46-14.19-10.49-14.02-0.08-18.58 14.2-17.02 25.97 1.44 10.81 6.83 18.12 18.6 17.18 7.75-0.63 12.07-7.13 13.23-14.19q0.04-0.26 0.31-0.26l6.73-0.01q0.3 0 0.27 0.3z" fill="#008bcb"/>
 <path d="m251.38 231.9c1.1-8.26 6.11-13.31 14.41-14.38 11.52-1.47 24.31 2.84 23.71 16.75q-0.01 0.26-0.27 0.26l-6.43 0.01q-0.26 0-0.28-0.25-0.71-9.6-10.27-10.49c-5.71-0.53-12.09 0.48-13.67 6.73-1.45 5.71 2.48 7.79 7.43 9.15q6.89 1.9 13.87 3.44 9.44 2.08 11.13 11.12 1.13 6.03-1.65 10.85c-4.53 7.82-15.17 9.05-23.59 8.2-9.81-0.98-16.77-8.55-16.21-18.52q0.01-0.23 0.24-0.23l6.47 0.01q0.3 0 0.31 0.29 0.08 5.99 3.88 9.29c7.09 6.16 27.33 3.95 22.72-9.8-0.86-2.57-5.61-4.15-8.51-4.87-9.84-2.44-25.18-3.52-23.29-17.56z" fill="#008bcb"/>
 <path d="m417.69 247.04h-26.61a0.32 0.32 0 0 0-0.32 0.32v24.36a0.32 0.32 0 0 1-0.32 0.32h-6.86a0.32 0.32 0 0 1-0.32-0.32v-52.86a0.32 0.32 0 0 1 0.32-0.32h6.86a0.32 0.32 0 0 1 0.32 0.32v21.36a0.32 0.32 0 0 0 0.32 0.32h26.61a0.32 0.32 0 0 0 0.32-0.32v-21.36a0.32 0.32 0 0 1 0.32-0.32l6.86 0.01a0.32 0.32 0 0 1 0.32 0.32v52.85a0.32 0.32 0 0 1-0.32 0.32h-6.86a0.32 0.32 0 0 1-0.32-0.32v-24.36a0.32 0.32 0 0 0-0.32-0.32z" fill="#008bcb"/>
 <path d="m464.21 260.03q0.33 1.4 0.72 0.01l11.36-40.86q0.18-0.64 0.84-0.64h6.87q0.49 0 0.62 0.48l11.41 41.03q0.41 1.47 0.76-0.02l9.54-41.19q0.07-0.3 0.39-0.3l7.56 0.01a0.23 0.23 0 0 1 0.23 0.28l-13.85 52.7q-0.13 0.51-0.65 0.51h-6.97a0.42 0.42 0 0 1-0.41-0.32l-11.77-42.29q-0.33-1.2-0.67 0l-11.77 42.09q-0.14 0.52-0.68 0.52h-6.95a0.45 0.43 82.1 0 1-0.42-0.33l-13.82-52.9a0.21 0.2 82.2 0 1 0.19-0.26l7.55-0.01q0.29 0 0.36 0.28z" fill="#008bcb"/>
 <path d="m543.01 247.85-0.01 17.38a0.31 0.31 0 0 0 0.31 0.31h31.63a0.31 0.31 0 0 1 0.31 0.31l0.01 5.88a0.31 0.31 0 0 1-0.31 0.31h-38.88a0.31 0.31 0 0 1-0.31-0.31v-52.88a0.31 0.31 0 0 1 0.31-0.31h38.38a0.31 0.31 0 0 1 0.31 0.31l-0.01 6.13a0.31 0.31 0 0 1-0.31 0.31h-31.12a0.31 0.31 0 0 0-0.31 0.31v15.38a0.31 0.31 0 0 0 0.31 0.31h28.62a0.31 0.31 0 0 1 0.31 0.31l0.01 5.63a0.31 0.31 0 0 1-0.31 0.31h-28.63a0.31 0.31 0 0 0-0.31 0.31z" fill="#008bcb"/>
 <rect x="600.51" y="218.54" width="7.5" height="53.5" rx=".3" fill="#008bcb"/>
 <path d="m672.01 265.84v5.9a0.3 0.3 0 0 1-0.3 0.3h-41.9a0.3 0.3 0 0 1-0.3-0.3v-5.68a0.3 0.3 0 0 1 0.07-0.19l32.26-40.34a0.3 0.3 0 0 0-0.23-0.49h-29.3a0.3 0.3 0 0 1-0.3-0.3v-5.9a0.3 0.3 0 0 1 0.3-0.3h39.4a0.3 0.3 0 0 1 0.3 0.3v5.89a0.3 0.3 0 0 1-0.07 0.19l-32.48 40.13a0.3 0.3 0 0 0 0.23 0.49h32.02a0.3 0.3 0 0 1 0.3 0.3z" fill="#008bcb"/>
</svg>
