<svg version="1.1" viewBox="0 0 1019.1 400" xmlns="http://www.w3.org/2000/svg">
 <g stroke-width="2.1277" fill="#fff">
  <path d="m790.03 400h13.16v-24.734h25.485v-10.332h-25.485v-16.909h27.991v-10.853h-41.151z"/>
  <path d="m872.33 381.74h-0.41915l-17.86-44.564h-15.249v62.828h11.802v-42.372h0.31277l17.026 41.747h8.3553l17.026-41.747h0.31277v42.372h11.802v-62.828h-15.249z"/>
  <path d="m589.81 124.47h-50.238v149.56h50.238z"/>
  <path d="m155.94 106.73c-10.653-26.511-36.974-43.313-65.487-43.626h-90.451v211.03h48.985v-63.664h30.917l37.809 63.664h59.534l-46.687-77.021c26.426-18.577 40.213-53.853 25.485-90.381m-106.95 5.4255h41.047c7.417 0 14.623 3.5489 18.487 9.9149 11.802 19.517-2.4021 39.764-21.098 39.138h-38.436z"/>
  <path d="m688.2 119.26c-43.972 0-79.694 35.694-79.694 79.632 0 43.938 35.721 79.63 79.694 79.63 43.97 0 79.691-35.691 79.691-79.63 0-43.938-35.721-79.632-79.691-79.632zm0 115.32c-19.74 0-35.721-15.966-35.721-35.691 0-19.726 15.981-35.694 35.721-35.694 19.74 0 35.719 15.968 35.719 35.694 0 19.726-15.979 35.691-35.719 35.691z"/>
  <path d="m333.5 125.83h-48.149c-9.7128-4.1745-20.368-6.5745-31.543-6.5745-43.972 0-79.694 35.694-79.694 79.632 0 43.938 35.721 79.63 79.694 79.63 10.862 0 21.306-2.1915 30.706-6.1574v1.6702h51.911l-2.9255-24.213zm-74.783 108.75c-19.74 0-35.721-15.966-35.721-35.691 0-19.726 15.981-35.694 35.721-35.694 10.132 0 19.219 4.2787 25.798 10.957 6.1638 6.3681 9.9234 15.134 9.9234 24.632 0 9.6-3.7596 18.264-9.9234 24.63-6.4745 6.783-15.666 10.957-25.694 10.957"/>
  <path d="m510.53 198.89v-135.89h-48.985v62.306c-9.5043-3.966-19.845-6.1574-30.706-6.1574-43.972 0-79.694 35.694-79.694 79.632s35.721 79.63 79.694 79.63c10.862 0 21.306-2.1915 30.706-6.1574v1.6702h51.491l-2.5064-20.768v-54.374zm-79.691 35.691c-19.74 0-35.721-15.966-35.721-35.691 0-19.726 15.981-35.694 35.721-35.694 13.055 0 24.545 7.0957 30.706 17.534 3.134 5.3213 5.0128 11.479 5.0128 18.055 0 6.5745-1.8787 12.836-5.0128 18.055-6.1617 10.54-17.651 17.532-30.706 17.532"/>
  <path d="m564.74 53.191c-14.311 0-25.902 11.585-25.902 25.883s11.591 25.883 25.902 25.883c14.309 0 25.902-11.585 25.902-25.883s-11.594-25.883-25.902-25.883z"/>
  <path d="m827.63 252.11c0-14.298-11.594-25.883-25.902-25.883s-25.902 11.585-25.902 25.883c0 14.298 11.594 25.883 25.902 25.883s25.902-11.585 25.902-25.883z"/>
  <path d="m865.86 62.898-64.13 51.034 25.381 32.668 28.619-20.143-1.0447 147.57h51.7v-211.13z"/>
 </g>
 <path d="m987.23 0c-17.649 0-31.915 14.267-31.915 31.915 0 17.649 14.266 31.915 31.915 31.915 17.649 0 31.915-14.266 31.915-31.915 0-17.648-14.266-31.915-31.915-31.915z" fill="#d02d2e" stroke-width="2.1277"/>
</svg>
