<svg data-name="Layer 1" version="1.1" viewBox="0 0 1066.7 251.17" xmlns="http://www.w3.org/2000/svg">
 <defs>
  <style>.cls-1,.cls-5{fill:none;}.cls-2{clip-path:url(#b);}.cls-3{fill:url(#c);}.cls-4{clip-path:url(#a);}.cls-5{stroke:#fff;stroke-width:0.87px;}.cls-6{fill:#fff;}.cls-7{fill:#0081c8;}</style>
  <clipPath id="b" transform="translate(.01 -.66)">
   <path class="cls-1" d="m76.28 21.33c0 11.13 10.15 20.15 22.68 20.15s22.68-9 22.68-20.15-10.16-20.16-22.64-20.16-22.68 9-22.68 20.16" fill="none"/>
  </clipPath>
  <radialGradient id="c" cx="189.13" cy="834.83" r=".95" gradientTransform="matrix(22.7,0,0,-22.7,-4194.1,18970)" gradientUnits="userSpaceOnUse">
   <stop stop-color="#fff" offset="0"/>
   <stop stop-color="#fff" offset=".16"/>
   <stop stop-color="#f2f9fc" offset=".23"/>
   <stop stop-color="#d1eaf5" offset=".37"/>
   <stop stop-color="#9bd1ea" offset=".56"/>
   <stop stop-color="#51aedb" offset=".78"/>
   <stop stop-color="#0089ca" offset="1"/>
  </radialGradient>
  <clipPath id="a" transform="translate(.01 -.66)">
   <rect class="cls-1" x="-.01" y=".46" width="203.02" height="41.58" fill="none"/>
  </clipPath>
 </defs>
 <g transform="matrix(5.2545 0 0 5.2545 .4841 -3.7469)">
  <path d="m176.42 25.285c-0.075 0.77269-0.25711 1.5239-0.44872 2.2741-0.26645 1.0912-0.55032 2.178-0.8455 3.2618-0.21865 0.73531-0.43926 1.4697-0.64132 2.2098-0.13313 0.51105-0.25613 1.0245-0.38309 1.537-0.10176 0.34571-0.16681 0.69792-0.28302 1.0395-0.14537 0.36487-0.26618 0.73872-0.39507 1.1096-0.0986 0.34772-0.22189 0.67179-0.41553 0.97691-0.24527 0.42858-0.33123 0.9208-0.42361 1.3995-0.11188 0.50002-0.21321 1.002-0.27022 1.5115-0.0486 0.3907-0.15095 0.77034-0.25647 1.1486-0.0726 0.32006-0.20958 0.62535-0.26442 0.94901 4e-3 0.20719 0.15224 0.09713 0.29801 0.08178 0.0304 0.08117 0.49511-0.19885 0.45098-0.17362-1.8004 1.0292-2.2353 1.4456-1.6373 0.89353 0.22316-0.25719 0.37185-0.56613 0.48979-0.88283 0.17763-0.46821 0.31313-0.9503 0.50025-1.4149 0.217-0.47514 0.4046-0.96142 0.5385-1.4665 0.15627-0.57737 0.35405-1.1419 0.51652-1.7177 0.14981-0.7364 0.36842-1.4532 0.5891-2.1704 0.23066-0.6624 0.38615-1.3451 0.52546-2.0312 0.0897-0.55721 0.16813-1.1166 0.31966-1.661 0.137-0.4279 0.2886-0.85076 0.43017-1.2773 0.12895-0.40862 0.21294-0.82628 0.35181-1.2318 0.11987-0.35385 0.26507-0.69567 0.43315-1.0289 0.15577-0.3139 0.20806-0.66414 0.29382-1.0008 0.0885-0.3559 0.22744-0.69573 0.37858-1.0289 0.33564-0.82895 1.974-2.087 2.1876-0.96188 0.0304 0.48005-6e-3 0.96096-0.0461 1.4393-0.0296 0.61096-0.1018 1.2174-0.16859 1.825-0.077 0.70526-0.19451 1.404-0.32917 2.1002-0.11441 0.5316-0.27965 1.0491-0.40814 1.5772-0.14959 0.72488-0.29592 1.4508-0.47761 2.1685-0.24069 0.87863-0.55661 1.7334-0.83263 2.6009-0.21513 0.68441-0.46879 1.3567-0.66234 2.0478-0.196 0.61036-0.30536 1.2404-0.4139 1.8704-0.074 0.57603-0.18496 1.1465-0.26593 1.7214 5e-5 0.2073-0.16287 0.7706 0.0227 0.9156 0.23822-0.83958-0.41985 0.1846-1.7488 0.87554-0.0548 0.02849 0.0685-0.10293 0.0986-0.15683 0.11918-0.21321 0.13119-0.2634 0.22672-0.49592 0.21259-0.56781 0.43197-1.132 0.6257-1.7065 0.24258-0.65645 0.43546-1.3299 0.61606-2.0056 0.15757-0.71007 0.30967-1.4204 0.49608-2.1236 0.17233-0.70372 0.3283-1.4113 0.51388-2.1118 0.1883-0.59531 0.38656-1.1878 0.58991-1.7782 0.15967-0.39386 0.29234-0.79721 0.48689-1.1757 0.22507-0.40399 0.44382-0.8123 0.6253-1.238 0.16894-0.3348 0.25322-0.6913 0.32161-1.0568 0.0793-0.34058 0.0976-0.69112 0.17618-1.0314 0.0351-0.3024 0.18333-0.5641 0.29737-0.83969 0.0705-0.24821 0.133-0.49769 0.212-0.7438 0.16277-0.84532 1.8712-2.2205 2.1164-1.1517 0.016 0.33369 9e-3 0.66813 5e-3 1.002-5e-3 0.47148-5e-3 0.94306-0.0123 1.4145-8e-3 0.61224-0.0616 1.2235-0.14355 1.8301-0.0881 0.57254-0.20212 1.1407-0.29585 1.7125-0.10998 0.60471-0.21192 1.2106-0.34341 1.8111-0.17798 0.69237-0.36525 1.3821-0.53661 2.0761-0.18115 0.68731-0.38072 1.3694-0.54318 2.0615-0.17813 0.73934-0.29904 1.4903-0.43021 2.2387-0.10562 0.52219-0.15112 1.0525-0.20988 1.581-0.0619 0.42222-0.10051 0.84708-0.1214 1.2731-0.0118 0.28799-0.0494 0.57098 0.0894 0.83244 0.0622 0.06036 0.14238 0.08872 0.22723 0.04995 0.0258-0.01176 0.0915-0.06614 0.0667-0.05252-1.7295 0.94949-2.3742 1.4059-1.7176 0.94561 0.18513-0.19928 0.27731-0.4696 0.35067-0.72717 0.0753-0.30835 0.073-0.6273 0.10602-0.9413 0.053-0.3679 0.077-0.73879 0.14683-1.1041 0.0723-0.38433 0.11873-0.7722 0.18688-1.1575 0.1031-0.53676 0.31254-1.0456 0.49598-1.5585 0.2196-0.55768 0.4307-1.1186 0.64814-1.6772 0.18259-0.50298 0.37349-1.0025 0.5499-1.5077 0.13763-0.41142 0.30828-0.80962 0.39763-1.2353 0.10043-0.52192 0.26505-1.0268 0.4161-1.5352 0.17759-0.52233 0.26895-1.0663 0.3905-1.6027 0.0787-0.39143 0.16807-0.78025 0.25044-1.1709 0.0819-0.33818 0.17436-0.67346 0.27272-1.0072 0.1288-0.43314 0.17088-0.88376 0.1967-1.3328 0.0243-0.29087 0.0928-0.57489 0.12686-0.86467 7e-3 -0.21499 0.0577-0.42269 0.11448-0.62883l1.9674-0.91194c-0.0932 0.173-0.13165 0.38624-0.14848 0.58021-0.0255 0.29428-0.0791 0.58265-0.15248 0.86887-0.0337 0.45936-0.0836 0.91867-0.17686 1.3701-0.0818 0.33607-0.18764 0.66422-0.26311 1.0017-0.0581 0.17988-0.0794 0.36045-0.12438 0.54366-5e-3 0.02003-0.10965 0.38345-0.112 0.39391-0.0176 0.07846-0.0273 0.15849-0.041 0.23774-0.12385 0.54423-0.25091 1.0889-0.40963 1.6242-0.13458 0.49834-0.30273 0.98942-0.38525 1.5003-0.0798 0.44815-0.24922 0.85842-0.41626 1.2803-0.18581 0.50215-0.34435 1.0142-0.54141 1.5125-0.23052 0.55457-0.44167 1.1157-0.66149 1.6746-0.17865 0.49495-0.37074 0.9905-0.47757 1.5067-0.0577 0.38716-0.13634 0.76974-0.17159 1.1602-0.0803 0.35974-0.11944 0.72334-0.1643 1.0893-0.0345 0.31943-0.0129 0.64397-0.0784 0.96078-0.0619 0.28601-0.16268 0.5595-0.29041 0.82244-0.47037 0.71892-0.10239 0.18903-2.017 1.209-0.0363 0.01937-0.20048-0.03819-0.22543-0.05119-0.101-0.05266-0.1327-0.10629-0.20824-0.19193-0.16443-0.30089-0.1652-0.60747-0.13262-0.94379 0.0276-0.43497 0.0795-0.86736 0.14044-1.2989 0.075-0.53714 0.0955-1.0828 0.24031-1.6097 0.14712-0.74854 0.27339-1.5012 0.4322-2.2475 0.14542-0.70011 0.34787-1.3849 0.54978-2.0705 0.17029-0.68481 0.32832-1.3726 0.50481-2.056 0.1388-0.59794 0.24227-1.2031 0.36275-1.8049 0.0839-0.5691 0.16713-1.1375 0.27471-1.7025 0.10623-0.59316 0.17184-1.1958 0.1551-1.7993-6e-3 -0.46769-5e-3 -0.93552-9e-3 -1.4033-5e-3 -0.31445-1e-3 -0.63019-0.0331-0.94336-7e-3 -0.11953-2e-3 0.08612 0.0601 0.0533 0.63445-0.33715 1.2313-0.74078 1.8496-1.1066 0.0179-0.01057-0.0355 0.02336-0.0474 0.04037-0.0419 0.05982-0.0687 0.15805-0.0908 0.22338-0.0975 0.24027-0.16137 0.49293-0.21375 0.74608-0.092 0.2821-0.27907 0.51908-0.31603 0.8179-0.0768 0.34274-0.13283 0.6868-0.19591 1.0333-0.0755 0.37521-0.10247 0.75739-0.30378 1.0962-0.17602 0.432-0.40488 0.83999-0.61754 1.2547-0.2009 0.37871-0.34616 0.77606-0.52875 1.1633-0.21908 0.5841-0.40634 1.1772-0.60573 1.7681-0.20208 0.70256-0.3873 1.4098-0.54834 2.123-0.16812 0.70567-0.32394 1.4139-0.48538 2.1211-0.17513 0.67156-0.35381 1.3434-0.57353 2.0018-0.19864 0.57586-0.42994 1.1376-0.62796 1.7135-0.0206 0.06239-0.19109 0.62771-0.24189 0.66333-0.33616 0.23575-1.4328 1.663-2.1166 1.109-0.18372-0.33436-0.0842-0.72967-0.0461-1.0904 0.0921-0.5845 0.23154-1.1597 0.30993-1.7467 0.10013-0.63008 0.17618-1.2687 0.37294-1.8781 0.2123-0.70651 0.49158-1.3899 0.73032-2.0877 0.2872-0.85119 0.56011-1.7066 0.80066-2.5723 0.19297-0.70589 0.33962-1.4246 0.4523-2.1475 2.5e-4 -0.0013 0.10654-0.52803 0.11102-0.54582 0.0875-0.3478 0.24028-0.67812 0.30559-1.0327 0.15608-0.68735 0.28549-1.3804 0.34811-2.0833 0.0483-0.60657 0.11635-1.2109 0.162-1.8177 0.0315-0.45069 0.0507-0.90174-7e-3 -1.3516-0.0309-0.19983-6e-3 -0.01529 0.0181-0.02836 3.757-2.0617 2.0913-1.5052 1.6683-0.91791-0.16408 0.31927-0.30468 0.65341-0.40455 0.99836-0.102 0.34157-0.12573 0.70154-0.26296 1.0318-0.16319 0.33277-0.35318 0.65203-0.45795 1.0107-0.14496 0.40788-0.25483 0.81899-0.36951 1.2361-0.1393 0.42534-0.26816 0.85339-0.42423 1.2718-0.19091 0.53449-0.28932 1.0944-0.36559 1.6557-0.12759 0.70444-0.31061 1.3953-0.55385 2.0692-0.21405 0.70808-0.41427 1.4185-0.55143 2.1464-0.15437 0.57223-0.33874 1.1354-0.49873 1.7059-0.13156 0.51304-0.29547 1.0164-0.52157 1.4965-0.21621 0.44365-0.32236 0.9212-0.48174 1.3861-0.10742 0.33701-0.24786 0.6589-0.4418 0.95588-0.54532 0.72428-0.0732 0.12901-2.0392 1.2897-0.15368 0.09073-0.33767 0.09912-0.51048 0.11077-0.27299 2e-3 -0.45832-0.12079-0.48467-0.41256 0.0355-0.34237 0.19109-0.65457 0.26847-0.9885 0.11588-0.36569 0.2146-0.7379 0.2739-1.117 0.0679-0.5227 0.19187-1.0341 0.31059-1.5471 0.0908-0.48429 0.12409-0.9891 0.33777-1.4392 0.0777-0.144 0.1896-0.26532 0.26044-0.41194 0.0823-0.17026 0.1066-0.36097 0.18172-0.53392 0.1368-0.36588 0.24088-0.74318 0.38959-1.1051 0.12299-0.33982 0.20138-0.68127 0.28552-1.0321 0.19044-0.50623 0.29164-1.0487 0.45767-1.5635 0.19873-0.74944 0.41264-1.4951 0.66846-2.2274 0.33496-1.0785 0.65723-2.1624 0.88702-3.2691 0.1465-0.71003 0.31479-1.4216 0.3076-2.1514l1.9347-0.98577z" fill="#104ccf"/>
  <path d="m184.98 28.811c-0.19803 0.51683-0.24182 1.0719-0.28453 1.6186-0.10332 0.60194-0.19321 1.2065-0.31083 1.8059-0.0936 0.42234-0.29545 0.80837-0.45301 1.2087-0.17123 0.43582-0.30076 0.882-0.37793 1.3436-0.0426 0.33004-0.0907 0.66243-0.19058 0.98063-0.0926 0.26187-0.18481 0.52205-0.26225 0.78889-0.11415 0.31632-0.20511 0.63819-0.28988 0.96327-0.0808 0.26741-0.16472 0.53399-0.28962 0.78445-0.15001 0.2935-0.21106 0.6206-0.29136 0.93746-0.0604 0.27712-0.21722 0.51236-0.34375 0.76097-0.0906 0.23243-0.19361 0.45853-0.25111 0.70193-0.0696 0.34095-0.11936 0.68489-0.17638 1.028-0.0748 0.27378-0.10563 0.55755-0.18227 0.83046-0.0956 0.27785-0.11643 0.57062-0.13169 0.86168-0.0198 0.25968-4e-3 0.52018 0.0845 0.76646 0.10664 0.16642 0.2663 0.28302 0.40134 0.42373 0.17212 0.17292 0.3715 0.25545 0.60659 0.30282 0.58991-0.09636 2.8758-1.5281-1.6032 0.93686-0.0288 0.01585 0.0583-0.03375 0.0786-0.05963 0.0516-0.06582 0.068-0.16536 0.0879-0.24198 0.0514-0.30116 0.0459-0.60819 0.0452-0.91264 1e-3 -0.31825 0.11535-0.61603 0.19376-0.91984 0.056-0.38002 0.15982-0.74804 0.25959-1.1183 0.13678-0.58384 0.2103-1.1782 0.34612-1.7624 0.0799-0.44664 0.24914-0.86363 0.43837-1.273 0.19613-0.43052 0.36679-0.86836 0.466-1.3313 0.0826-0.4926 0.19442-0.97962 0.27742-1.4721 0.0824-0.51132 0.0979-1.0295 0.11277-1.5462 0.0401-0.73916 0.14269-1.474 0.26118-2.2042 0.0981-0.49044 0.22625-0.97856 0.39575-1.4496 0.13843-0.32538 0.30336-0.63699 0.43151-0.96687 0.12845-0.38739 0.22611-0.78256 0.41147-1.1478 0.59853-0.90732 2.0196-1.9627 2.27-0.76541 0.0477 0.51777-3e-3 1.0397-0.0701 1.5534-0.0531 0.46845-0.14805 0.92894-0.26981 1.3839-0.11758 0.40669-0.21052 0.82012-0.31006 1.2315-0.15617 0.59308-0.25664 1.1974-0.3592 1.8014-0.11845 0.64185-0.25591 1.2797-0.38001 1.9204-0.13222 0.7035-0.25502 1.4087-0.40337 2.1091-0.10725 0.59503-0.27292 1.177-0.40648 1.7661-0.10448 0.51873-0.12696 1.0482-0.18907 1.5727-0.084 0.61338-0.20962 1.2198-0.30077 1.832-0.0362 0.34638-0.0984 0.69856-0.0665 1.0475 0.0563 0.15781 0.21256 0.2919 0.3852 0.27861 0.62352-0.53795 0.39633-0.26226-1.6324 0.89227-0.0334 0.01902 0.0672-0.03938 0.0939-0.06708 0.10875-0.11286 0.12752-0.19342 0.19372-0.33978 0.17889-0.62548 0.28548-1.2704 0.39032-1.9119 0.0713-0.56757 0.16162-1.1321 0.25696-1.696 0.1143-0.56279 0.24307-1.1211 0.4054-1.672 0.23494-0.81915 0.54297-1.6125 0.85367-2.4049 0.41156-0.97496 0.72127-1.9872 0.9988-3.007 0.15159-0.5587 0.23334-1.1301 0.25879-1.7074-4e-3 -0.45136 0.0521-0.89901 0.0921-1.3478 0.0583-0.36411 0.12079-0.72784 0.18529-1.091 0.074-0.38532 0.12959-0.77595 0.13788-1.1687-0.08-0.5174-1.6747 0.70875 1.9072-0.97442 0.0301-0.01415-0.0546 0.0408-0.072 0.06918-0.0521 0.085-0.14834 0.37331-0.17191 0.43901-0.26319 0.79876-0.43925 1.6222-0.68754 2.4252-0.24148 0.78877-0.46528 1.5829-0.67839 2.3798-0.15749 0.51768-0.31206 1.0343-0.39135 1.5702-0.0618 0.51756-0.0576 1.0395-0.0596 1.5598-4e-3 0.60908-0.0659 1.2166-0.10518 1.8244-0.0627 0.6522-0.13263 1.3032-0.21963 1.9526-0.0563 0.50716-0.15851 1.007-0.21107 1.5145-0.0258 0.41196-0.06 0.82607 6e-3 1.2353 0.0879 0.28854 0.24108 0.25048 0.42964 0.07112-2.9988 1.7236-1.7772 1.3454-1.4611 0.56082 0.13153-0.32647 0.19348-0.68208 0.26326-1.0249 0.16334-0.81748 0.26644-1.646 0.3653-2.4733 0.0786-0.80088 0.25248-1.5844 0.42646-2.3683 0.21457-0.93547 0.4223-1.8726 0.62927-2.8098 0.22283-0.95966 0.36703-1.9345 0.51891-2.9072 0.0779-0.62126 0.17167-1.2405 0.23203-1.8638 0.0495-0.45485 0.26719-0.86742 0.46068-1.275 0.56645-1.1732 0.95055-1.0532 2.44-1.9302 0.39142 0.0705 0.34108 0.58433 0.35797 0.88875 7e-3 0.47416 9e-3 0.96495-0.16597 1.4113-0.29894 0.41851-0.45547 0.89119-0.60761 1.3768-0.21324 0.73875-0.36598 1.4943-0.46332 2.2567-0.0753 0.58267-0.18843 1.1592-0.27763 1.7396-0.11253 0.60001-0.16574 1.2077-0.23735 1.8131-0.0774 0.61848-0.20491 1.2301-0.3377 1.8388-0.1421 0.63023-0.27645 1.2627-0.43187 1.8898-0.11319 0.45701-0.24185 0.91142-0.40045 1.3549-0.17897 0.50426-0.33907 1.0152-0.45936 1.5367-0.0476 0.3892-0.16513 0.77097-0.19873 1.1615 0.0128 0.22128 0.20509 0.18039 0.36323 0.14128 0.62909-0.46091 0.0192-0.0094-1.6939 0.94381-0.0361 0.02009 0.0722-0.04206 0.10131-0.07141 0.039-0.03939 0.0708-0.08572 0.10064-0.13243 0.0551-0.08618 0.12588-0.24452 0.16843-0.33479 0.15493-0.347 0.29916-0.69843 0.44533-1.0491 0.14624-0.27104 0.22034-0.56058 0.26599-0.86237 0.10393-0.60312 0.21059-1.206 0.31694-1.8088 0.10061-0.66161 0.16207-1.3285 0.26149-1.9903 0.11627-0.63074 0.28874-1.2476 0.50967-1.8491 0.22128-0.58071 0.47416-1.1488 0.71406-1.722 0.27723-0.62699 0.54497-1.2569 0.79419-1.8955 0.19568-0.53963 0.36045-1.089 0.46048-1.6545 0.0691-0.44811 0.0783-0.90246 0.0868-1.3549 0.028-0.44945 0.0511-0.90094 0.10617-1.3481 0.21755-1.1623 0.65723-0.86999 2.1606-1.726 0.30344 0.12038 0.31893 0.45645 0.33961 0.73896 0.0302 0.43392 5e-3 0.86501-0.0435 1.2962-0.028 0.47108-0.14803 0.92595-0.26255 1.3815-0.13065 0.53909-0.27525 1.075-0.43429 1.6065-0.23589 0.66008-0.42301 1.336-0.61153 2.0108-0.1592 0.58676-0.3666 1.1588-0.53502 1.7428-0.0971 0.39144-0.15354 0.79069-0.24199 1.1843-0.0877 0.42518-0.19928 0.84478-0.28097 1.2712-0.0574 0.41486-0.13992 0.82554-0.18595 1.2419-0.0634 0.42221-0.13522 0.84353-0.24298 1.2569-0.10672 0.35386-0.17701 0.71545-0.21385 1.0828-0.0161 0.33435-0.0886 0.66271-0.16721 0.98704-0.0634 0.34672-0.20248 0.67108-0.30733 1.0055-0.0391 0.1771-0.0909 0.34946-0.15006 0.52068l-1.9439 0.90138c0.0712-0.16309 0.13485-0.32678 0.15982-0.50467 0.091-0.33692 0.23631-0.65444 0.30893-0.99639 0.0789-0.31421 0.1522-0.63273 0.17583-0.95619 0.0346-0.38204 0.10315-0.75872 0.21862-1.1253 0.11313-0.40275 0.18003-0.81125 0.25043-1.2229 0.0429-0.42254 0.13256-0.83561 0.18362-1.2566 0.0679-0.43317 0.19693-0.8527 0.28185-1.2827 0.0879-0.39937 0.13244-0.80731 0.24317-1.2016 0.18193-0.58969 0.40873-1.1648 0.57707-1.7589 0.18816-0.66742 0.37366-1.3353 0.57124-1.9999 0.17797-0.52489 0.31564-1.0626 0.45276-1.5993 0.10585-0.4436 0.20538-0.88856 0.24124-1.344 0.0582-0.41619 0.10589-0.83025 0.0539-1.2508-6e-3 -0.06068-6e-3 -0.52253-0.15228-0.38616 0.59407-0.34886 1.1904-0.69389 1.7822-1.0466 0.0295-0.01757-0.0657 0.02229-0.0945 0.04085-0.15277 0.09819-0.14997 0.29501-0.2012 0.44984-0.11402 0.43158-0.10529 0.89248-0.16447 1.3334 5e-3 0.45929 0.0289 0.92331-0.0484 1.3783-0.11378 0.58336-0.30128 1.1461-0.48834 1.7095-0.23918 0.64474-0.51226 1.2737-0.79261 1.9015-0.23433 0.57151-0.46008 1.1465-0.70588 1.7132-0.24034 0.58338-0.39444 1.1907-0.52429 1.8074-0.11555 0.66232-0.19141 1.3303-0.27385 1.9972-0.0918 0.58811-0.20612 1.1738-0.26573 1.7663-0.0114 0.32616-0.075 0.64116-0.23472 0.93-0.17709 0.33644-0.28647 0.70692-0.4507 1.0502-0.45506 1.002-0.6507 1.6566-2.367 1.7723-0.28407-0.01424-0.51117-0.16896-0.54378-0.46792 0.0258-0.41115 0.18064-0.80372 0.22912-1.2129 0.12072-0.52346 0.26695-1.0399 0.43122-1.5513 0.16184-0.4446 0.30374-0.89767 0.43782-1.351 0.16935-0.62376 0.29994-1.2565 0.44208-1.8867 0.13695-0.59997 0.24825-1.2059 0.33467-1.8153 0.0803-0.60634 0.12434-1.2174 0.24471-1.8185 0.0658-0.58672 0.18222-1.1652 0.28686-1.746 0.1186-0.7681 0.26746-1.5311 0.45413-2.2857 0.13083-0.47918 0.19885-0.99224 0.53583-1.3815 0.0726-0.12301 0.13272-0.20431 0.16609-0.34725 0.073-0.31268 0.0606-0.65345 0.0576-0.97116-3e-3 -0.05107-0.0384-0.5481-0.0853-0.56023-0.0302-0.0078-0.0405 0.09031-0.0741 0.05711 0.58132-0.34476 1.1604-0.69325 1.7439-1.0343 0.0416-0.02433-0.0818 0.05185-0.11781 0.08388-0.19387 0.17236-0.31791 0.4252-0.44945 0.64286-0.19011 0.391-0.39044 0.77963-0.48392 1.2082-0.0867 0.63675-0.22902 1.2646-0.29579 1.9041-0.15431 0.9898-0.38003 1.9658-0.58013 2.947-0.17018 0.93059-0.34013 1.8621-0.5617 2.7821-0.17715 0.77684-0.34104 1.5546-0.43139 2.3473-0.0988 0.8301-0.22423 1.6577-0.35599 2.4831-0.0567 0.34824-0.11074 0.70251-0.20245 1.0439-8e-3 0.03158-0.1276 0.42642-0.18379 0.46501-0.63009 0.43284-1.3009 0.80326-1.9513 1.2049-0.36369 0.08213-0.5433-0.06674-0.64933-0.41316-0.0618-0.43304-0.0146-0.86649 0.0126-1.3013 0.0361-0.51596 0.13213-1.0173 0.21096-1.5275 0.0975-0.64502 0.2026-1.2872 0.23448-1.9403 0.0307-0.60311 0.10818-1.2044 0.10108-1.8089-1e-3 -0.52503-0.01-1.0513 0.0275-1.5753 0.0689-0.56457 0.2485-1.0975 0.44611-1.6293 0.23349-0.79064 0.42422-1.5916 0.66046-2.3813 0.27459-0.78434 0.48746-1.5884 0.65403-2.4026 0.034-0.14542 0.075-0.28933 0.10343-0.43596 9e-3 -0.04522-0.022-0.11416 0.018-0.13701 0.62139-0.35496 1.9653-1.7767 2.047-0.82651-0.0509 0.3987-0.0764 0.80082-0.14816 1.197-0.062 0.36043-0.1 0.72482-0.1971 1.0791-0.0487 0.44656-0.10848 0.89239-0.10234 1.3427-0.041 0.6071-0.12246 1.2077-0.31728 1.7875-0.30515 1.0169-0.63777 2.0263-0.9951 3.026-0.30084 0.77833-0.60525 1.5555-0.81436 2.365-0.14902 0.54624-0.26261 1.0994-0.40313 1.6476-0.10522 0.56325-0.17033 1.131-0.25761 1.6968-0.12565 0.64172-0.25137 1.2829-0.35046 1.9295-0.26102 1.03-1.1516 1.7546-2.3652 1.656-0.23677-0.10221-0.43536-0.26487-0.51135-0.52055-0.041-0.37359 0.0302-0.75047 0.0837-1.1197 0.11119-0.60827 0.24831-1.2117 0.31905-1.8268 0.0478-0.53105 0.0699-1.0664 0.17181-1.5906 0.12767-0.59725 0.32073-1.1784 0.43673-1.7787 0.14701-0.69718 0.28637-1.396 0.3935-2.1006 0.12495-0.63989 0.25563-1.2776 0.38432-1.9169 0.1011-0.59961 0.18928-1.2013 0.31638-1.7962 0.0966-0.41238 0.18767-0.82558 0.29124-1.2361 0.14941-0.44711 0.25525-0.90994 0.32792-1.3754 0.0689-0.48282 0.10772-0.9702 0.0336-1.4553-6e-3 -0.03357-0.0106-0.06753-0.0186-0.1007-5e-3 -0.02233-0.0115-0.04485-0.0217-0.06542-0.0182-0.03656-0.0326 0.02962-0.0298 0.02802 1.3253-0.76512 2.3921-1.4473 1.6672-0.98486-0.2351 0.33318-0.32086 0.72724-0.43439 1.1138-0.11535 0.3346-0.24557 0.65972-0.42171 0.96748-0.19626 0.46467-0.35506 0.94417-0.46874 1.4365-0.12808 0.72016-0.26227 1.4439-0.28089 2.1771 5e-3 0.51757 0.0353 1.0414-0.0504 1.5541-0.0916 0.49314-0.22001 0.97881-0.28823 1.4763-0.065 0.48803-0.25226 0.92794-0.44102 1.38-0.18212 0.40188-0.36697 0.80909-0.46629 1.2404-0.14236 0.5846-0.26078 1.1731-0.36001 1.7668-0.0673 0.3657-0.14531 0.72769-0.20397 1.0943-0.0656 0.29434-0.18341 0.57324-0.21687 0.87414 8e-4 0.31591 4e-3 0.63257-0.0249 0.9475-6e-3 0.04756-0.0519 0.42407-0.0822 0.44329-0.94092 0.59625-1.3353 1.2672-2.1973 1.0895-0.25796-0.07852-0.48924-0.20011-0.68076-0.39396-0.16185-0.1572-0.33615-0.30479-0.44443-0.50717-0.0997-0.27224-0.13186-0.56037-0.10986-0.84938 0.0118-0.30214 0.0202-0.61014 0.0957-0.9041 0.0891-0.27082 0.1299-0.54816 0.20726-0.82332 0.0912-0.33007 0.10444-0.67877 0.16354-1.0156 0.0404-0.26531 0.13379-0.50164 0.232-0.74832 0.10254-0.25936 0.27961-0.47755 0.36723-0.74226 0.1138-0.31368 0.14178-0.65272 0.26103-0.96446 0.12649-0.2448 0.2439-0.48805 0.31349-0.75756 0.11997-0.31085 0.16316-0.64954 0.28732-0.96077 0.0896-0.26253 0.14473-0.53644 0.25586-0.79199 0.1158-0.31044 0.19604-0.63112 0.23278-0.96198 0.0803-0.47262 0.20034-0.93532 0.36868-1.3847 0.14441-0.4009 0.32299-0.78485 0.47112-1.1834 0.14332-0.59153 0.24403-1.1908 0.34628-1.7908 0.0409-0.53788 0.0848-1.0786 0.18366-1.6092l1.97-0.94374z" fill="#f7ce26"/>
  <path d="m195.16 30.282c-0.0787 0.57474-0.28479 1.1246-0.49573 1.6619-0.27213 0.70578-0.51533 1.4223-0.83165 2.11-0.16489 0.36426-0.37491 0.7033-0.53246 1.0708-0.19145 0.43694-0.31507 0.8953-0.42962 1.3568-0.10648 0.48541-0.25327 0.96023-0.38482 1.439-0.0983 0.36881-0.19022 0.73725-0.26563 1.1114-0.0719 0.41146-0.14535 0.82226-0.22078 1.2332-0.0681 0.33878-0.17107 0.66824-0.26897 0.99904-0.13195 0.39874-0.21597 0.81151-0.30565 1.2214-0.0588 0.32975-0.15421 0.65069-0.20918 0.98118-0.0541 0.35896-0.0559 0.72291-0.0568 1.0851 1e-3 0.32135 4e-3 0.64269 6e-3 0.96404 0.0236 0.2204-0.0772 0.51927 0.099 0.69138 0.20958 0.09472 0.44555 0.06167 0.66563 0.11239 0.2974 0.10357 0.48577 0.36196 0.73256 0.54035 0.23033 0.13759 0.49818 0.1508 0.7592 0.16278 0.17724 0.0079 0.36112 0.01413 0.52845-0.05766 0.0344-0.01475 0.12688-0.07925 0.0943-0.06088-0.59319 0.33429-1.1842 0.67249-1.7763 1.0087 0.24138-0.17866 0.28886-0.47958 0.35014-0.75446 0.0587-0.26566 0.18217-0.50621 0.30588-0.74562 0.1544-0.31575 0.27945-0.64344 0.36469-0.98426 0.089-0.401 0.22695-0.78861 0.34262-1.1823 0.0969-0.371 0.21332-0.7354 0.28498-1.1125 0.092-0.69599 0.24016-1.383 0.37269-2.0722 0.13887-0.66972 0.22057-1.3491 0.34737-2.021 0.0968-0.39939 0.13583-0.81002 0.2357-1.2083 0.12054-0.47773 0.17643-0.9665 0.25308-1.4519 0.0805-0.55139 0.24185-1.0847 0.37984-1.6231 0.15158-0.57068 0.30369-1.1414 0.45935-1.711 0.0984-0.27416 0.16636-0.55388 0.19783-0.8431 0.0186-0.22234-0.0393-0.02062-0.0287-0.02597 0.62951-0.31626 1.2346-0.67944 1.8621-0.99962 0.0354-0.01806-0.0568 0.05641-0.0786 0.08964-0.0335 0.05102-0.0574 0.10767-0.0862 0.16151-0.19798 0.421-0.41185 0.83358-0.62912 1.2449-0.28888 0.48051-0.4839 0.99752-0.64919 1.5301-0.18347 0.75972-0.44133 1.4949-0.71569 2.2256-0.31534 0.89651-0.58983 1.8063-0.86185 2.7165-0.2327 0.75-0.46309 1.5008-0.72679 2.2406-0.15256 0.53066-0.41233 1.0208-0.58937 1.5418-0.0948 0.35573-0.29675 0.66552-0.43664 1.0026-0.0866 0.28487-0.16024 0.5754-0.21862 0.86762-7e-3 0.04761-0.0163 0.095-0.0222 0.14282-1e-3 0.01165-0.0137 0.13844-9e-3 0.16974 2e-3 0.0137 0.0282 0.03233 0.0158 0.0385-2.006 0.99647-1.9734 1.6681-1.9837 0.85935 0.0102-0.46115 0.063-0.91926 0.10094-1.3786 8e-3 -0.58389 0.16905-1.1412 0.31845-1.7003 0.18212-0.70386 0.28091-1.4252 0.32763-2.1498 1e-3 -0.45898 0.0328-0.9142 0.11275-1.3662 0.1084-0.54952 0.27941-1.0843 0.45632-1.615 0.16926-0.52991 0.40677-1.0338 0.61095-1.5504 0.15299-0.44595 0.28301-0.90005 0.41626-1.3524 0.0825-0.32621 0.18967-0.64504 0.28405-0.9679 0.12502-0.30996 0.2174-0.6278 0.29751-0.95158 0.29743-1.0303 1.1031-1.0444 2.2099-1.6945-4.286 2.4685-0.28395 0.16146 0.19136-0.10332 0.0339-0.01888 0.0764-0.01639 0.11182-0.03228 0.033-0.0148 0.0594-0.04143 0.0911-0.0588 0.0323-0.01768 0.13219-0.06452 0.10034-0.04607-0.58854 0.34083-1.1806 0.67564-1.7708 1.0135 0.64786-0.52577 1.8181-1.9946 2.2947-1.0566 0.0865 0.31894 0.0522 0.65646 0.0422 0.98272 8e-3 0.73625-0.1417 1.4579-0.2966 2.1737-0.21475 0.97508-0.4109 1.9527-0.56653 2.939-0.17399 1.2581-0.39475 2.509-0.61762 3.7592-0.2162 1.0836-0.48479 2.1589-0.78054 3.2237-0.15699 0.49276-0.22306 1.0242-0.47415 1.4823-0.72704 0.95641-2.1018 1.8949-2.2368 0.65497 0.0192-0.62312 0.20121-1.2319 0.37919-1.8258 0.15432-0.55345 0.51736-1.0083 0.79909-1.5011 0.54668-0.92061 1.0289-1.8748 1.4843-2.843 0.32142-0.70748 0.58001-1.4385 0.74391-2.198 0.0854-0.41205 0.10463-0.83244 0.11865-1.2517 0.0328-0.37066 0.0653-0.74289 0.12067-1.111 0.11902-0.42608 0.25069-0.84926 0.39169-1.2687 0.0992-0.36318 0.22577-0.71667 0.34796-1.0724 0.0943-0.30288 0.13249-0.61783 0.22025-0.92258 0.095-0.25239 0.18989-0.50542 0.3179-0.74318 0.43129-0.75045 1.8177-1.9942 2.3318-1.1023 0.0943 0.26457 0.10003 0.55268 0.0836 0.83031-0.0612 0.3848-0.10235 0.77179-0.16518 1.1563-0.13702 0.56199-0.22458 1.134-0.33533 1.7013-0.0861 0.46193-0.19787 0.91821-0.31489 1.3731-0.099 0.45086-0.21261 0.89772-0.32909 1.3444-0.10377 0.50484-0.19007 1.0133-0.28488 1.5201-0.11687 0.66543-0.2656 1.3257-0.44508 1.977-0.15937 0.57344-0.34031 1.1406-0.50717 1.7119-0.1426 0.54375-0.28991 1.0864-0.42402 1.6324-0.11781 0.4693-0.21112 0.94063-0.25648 1.4225-0.0313 0.41897-0.0307 0.83935-0.0387 1.2592 0.0285 0.29522-0.0889 0.67301 0.11164 0.92355 0.10996 0.0799 0.23108 0.01331 0.33182-0.05535 0.0301-0.0205 0.11166-0.09221 0.0799-0.07444-0.5935 0.33219-1.1785 0.67941-1.7677 1.0191 0.18887-0.15255 0.27982-0.3391 0.33034-0.5715 0.066-0.33827 0.14397-0.6732 0.22602-1.0078 0.0696-0.31318 0.19544-0.60913 0.31017-0.90755 0.13656-0.25382 0.19122-0.5348 0.25819-0.8119 0.0984-0.39551 0.12285-0.80284 0.14529-1.2081 0.0509-0.72372 0.20105-1.4372 0.36464-2.1428 0.16654-0.63629 0.37689-1.26 0.56944-1.8888 0.0874-0.36212 0.20324-0.71644 0.29891-1.0762 0.12315-0.369 0.17522-0.75205 0.21047-1.1376 0.0321-0.53655 0.10124-1.0709 0.21873-1.5954 0.10199-0.46345 0.21567-0.92398 0.33201-1.3841 0.10077-0.45763 0.17782-0.92019 0.28975-1.3755 0.0817-0.33222 0.21428-0.64835 0.36071-0.95649 0.42684-0.67985 1.5981-1.89 2.1923-1.1994 3e-3 0.0038 0.10282 0.16519 0.1176 0.18911 0.11728 0.21272 0.14409 0.45628 0.21473 0.68574 0.0827 0.26144 0.10516 0.53479 0.11986 0.80691 0.0116 0.294 0.0105 0.5883 0.0103 0.88247-4.6e-4 0.29546-9.2e-4 0.59092-1e-3 0.88638 2e-3 0.31817-4e-3 0.63625-5e-3 0.95441-0.0324 0.36547-0.0864 0.72849-0.12007 1.0942-0.0572 0.46039-0.13497 0.91746-0.21484 1.3743-0.0698 0.38032-0.21709 0.73808-0.30855 1.1127-0.0702 0.39845-0.19221 0.7756-0.35047 1.1463-0.10108 0.26403-0.25652 0.50189-0.36732 0.76083-0.0971 0.30902-0.16056 0.62694-0.24938 0.93833-0.10068 0.30611-0.21881 0.60618-0.32177 0.91147-0.0982 0.33292-0.18423 0.66944-0.28835 1.0005-0.11428 0.34763-0.22916 0.69503-0.34754 1.0413-0.10055 0.23452-0.16624 0.4803-0.26802 0.7142-0.10905 0.1828-0.23142 0.35719-0.35393 0.53129-0.11194 0.17227-0.2222 0.34503-0.33741 0.51513l-1.9932 0.84963c0.1418-0.14403 0.23518-0.32121 0.34337-0.49026 0.10687-0.18535 0.23312-0.35364 0.35844-0.52462 0.16055-0.20307 0.18591-0.46383 0.29601-0.69358 0.16044-0.32927 0.24176-0.69529 0.37313-1.0369 0.11386-0.32305 0.16998-0.66208 0.27139-0.98897 0.0913-0.30854 0.21346-0.60741 0.32721-0.90814 0.0911-0.31131 0.17825-0.62478 0.23083-0.94513 0.0852-0.28064 0.25418-0.51199 0.3745-0.77758 0.15549-0.36528 0.34364-0.70942 0.38112-1.1147 0.0689-0.38245 0.21145-0.73812 0.3169-1.1109 0.0877-0.44769 0.17313-0.8934 0.2151-1.3484 0.0202-0.36113 0.0705-0.71929 0.12153-1.0772-1.3e-4 -0.31674-7e-3 -0.63339-4e-3 -0.95014 2.2e-4 -0.29546 6.3e-4 -0.59091 1e-3 -0.88637 3e-4 -0.29056 2e-3 -0.58121-8e-3 -0.87166-0.0114-0.25407-0.0268-0.51019-0.10207-0.75492-0.0654-0.20955-0.0917-0.43212-0.19561-0.6267-0.0199-0.02856-0.0351-0.10346-0.0633-0.08304-9e-3 0.0066-0.0223 0.03697-0.0125 0.03142 3.6808-2.0832 2.1503-1.3618 1.6129-0.91662-0.18315 0.27808-0.29379 0.60349-0.39862 0.91764-0.14123 0.44858-0.22786 0.91343-0.31088 1.3757-0.10087 0.46615-0.2364 0.92167-0.33758 1.3878-0.13051 0.51001-0.21751 1.0291-0.21838 1.5572-0.0223 0.38923-0.0576 0.78114-0.1676 1.1569-0.0878 0.3805-0.25731 0.73496-0.34737 1.1155-0.21039 0.62202-0.41457 1.2468-0.5861 1.8808-0.18084 0.68643-0.35578 1.38-0.36982 2.0945 3e-3 0.41047 0.0126 0.82493-0.0845 1.2271-0.0654 0.28572-0.0945 0.58335-0.23057 0.84689-0.14999 0.27272-0.23307 0.58243-0.34557 0.8721-0.0628 0.33168-0.16709 0.65359-0.2124 0.98933-0.03 0.25201-0.0698 0.51237-0.26645 0.69262-0.64166 0.39113-1.2786 0.79015-1.925 1.1734-0.20312 0.12044-0.44736 0.01999-0.59188-0.13608-0.20258-0.32175-0.14146-0.69-0.14333-1.0554-3e-3 -0.4291 0.0102-0.85783 0.05-1.2853 0.0439-0.48875 0.0985-0.97435 0.23203-1.4485 0.14848-0.5492 0.31558-1.093 0.44272-1.6479 0.16471-0.57666 0.34186-1.1484 0.52509-1.7196 0.18787-0.63742 0.33617-1.2884 0.42881-1.9467 0.0911-0.50924 0.17803-1.0179 0.26995-1.5269 0.10343-0.44808 0.23153-0.88983 0.31687-1.342 0.12197-0.45872 0.23958-0.91813 0.35115-1.3794 0.12662-0.55508 0.17944-1.1218 0.30498-1.6766 0.0647-0.37642 0.0979-0.75478 0.14796-1.1332 0.0367-0.2285 0.0209-0.47056-0.0399-0.69428-0.0397-0.05538-0.0849 0.03523-0.073 0.02827 3.7254-2.1726 2.0676-1.4029 1.6009-0.90561-0.12613 0.23389-0.24958 0.46484-0.33469 0.7188-0.13924 0.29064-0.14473 0.61674-0.23804 0.92254-0.11862 0.361-0.26458 0.71148-0.35819 1.0807-0.14918 0.40494-0.27018 0.81595-0.38855 1.2309-0.0814 0.35525-0.0923 0.72508-0.14969 1.0849 6.3e-4 0.44149-0.0316 0.88102-0.13871 1.3113-0.19128 0.77916-0.44297 1.5427-0.78762 2.2687-0.4694 0.95315-0.95221 1.8987-1.4503 2.8371-0.0407 0.08191-0.26255 0.53263-0.32151 0.63756-0.15322 0.27266-0.3784 0.50132-0.45401 0.81524-0.20654 0.54582-0.36695 1.1261-0.36988 1.7134 0.0187 0.1213 0.0352 0.23295 0.055 0.22452 0.01-0.0042 0.0176-0.03633 8e-3 -0.03106-2.023 1.1429-2.4457 1.3137-1.7101 1.0075 0.36968-0.37446 0.42566-0.99965 0.61938-1.4684 0.33638-1.0592 0.61801-2.1364 0.83586-3.2264 0.23567-1.2463 0.4803-2.492 0.62476-3.7532 0.11845-0.97875 0.28478-1.9495 0.48337-2.9152 0.15021-0.69285 0.31625-1.3946 0.26785-2.1088-0.0116-0.28701-0.0138-0.57772-0.0605-0.86152 0.4047 2.2887 2.4776-2.0572 1.6278-0.8164-0.64898 0.37719-1.297 0.75598-1.9469 1.1316-0.12283 0.07099-0.0714 0.03239-0.20083 0.09085-0.0339 0.0153-0.13142 0.06937-0.0993 0.05066 0.1645-0.09586 4.8351-2.7967-0.18754 0.10793 0.58472-0.34572 1.1701-0.6903 1.7542-1.0372 0.0293-0.0174-0.0627 0.0282-0.0899 0.04872-0.1209 0.09119-0.18289 0.26611-0.23539 0.40025-0.11844 0.30973-0.14703 0.65264-0.3063 0.95031-0.0928 0.33035-0.20039 0.65287-0.30429 0.97908-0.13599 0.46375-0.27863 0.92527-0.43467 1.3822-0.20347 0.51388-0.41787 1.0235-0.60995 1.5418-0.19252 0.50959-0.35432 1.0344-0.43817 1.5737-0.10503 0.44645-0.14398 0.90598-0.1684 1.3632-0.0604 0.73813-0.16328 1.4694-0.33515 2.1909-0.116 0.54877-0.25228 1.0976-0.30175 1.6571-0.0378 0.43738-0.0796 0.87616-0.0309 1.3145 0.0531 0.79023 0.0179 0.02-1.971 1.0529-9e-3 0.0048 0.022 0.01876 0.029 0.01113 0.0684-0.07478 0.0207-0.2491 0.0592-0.33159 0.0507-0.30639 0.13833-0.6034 0.20628-0.90587 0.12365-0.35008 0.33845-0.65094 0.4588-1.002 0.17482-0.54456 0.48102-1.0305 0.65122-1.5783 0.27539-0.73048 0.4954-1.4771 0.71842-2.2249 0.29486-0.92406 0.65295-1.8266 0.92819-2.7573 0.2406-0.71308 0.4573-1.4305 0.61198-2.1676 0.16839-0.54043 0.35426-1.0731 0.6385-1.566 0.20477-0.405 0.41515-0.80714 0.60141-1.221 0.0207-0.05429 0.0437-0.10778 0.0622-0.16288 0.0144-0.04301-2e-3 -0.10724 0.0365-0.13113 3e-3 -0.0021 2.0043-1.8963 2.1136-0.7843-0.022 0.30939-0.0713 0.61337-0.19962 0.89894-0.21727 0.55659-0.35697 1.1478-0.52287 1.7208-0.11471 0.53064-0.24692 1.0571-0.33992 1.5922-0.10138 0.47841-0.14577 0.96765-0.22925 1.4495-0.0814 0.41028-0.18623 0.81738-0.27892 1.2263-0.15868 0.67472-0.23128 1.366-0.39161 2.0407-0.1438 0.66554-0.25606 1.3421-0.29222 2.0228-0.051 0.39408-0.18699 0.76259-0.29075 1.1444-0.11018 0.38917-0.22026 0.77777-0.33972 1.1642-0.0628 0.35262-0.17784 0.68534-0.31663 1.0149-0.10124 0.24349-0.26771 0.4545-0.3266 0.7166-0.0985 0.2901-0.10481 0.61192-0.28136 0.87564-1.1968 0.70088-1.5194 1.2603-2.6169 1.1702-0.29595-0.02915-0.58683-0.0825-0.82953-0.26788-0.21211-0.17463-0.39514-0.39988-0.68047-0.45011-0.26792-0.03243-0.54843-0.03597-0.75558-0.23474-0.1867-0.25086-0.16418-0.53019-0.1554-0.83114 3.7e-4 -0.32383 1e-3 -0.64766 5e-3 -0.97147 4e-3 -0.36933 3e-3 -0.73928 0.0325-1.1077 0.0481-0.3409 0.14721-0.66714 0.22008-1.0025 0.093-0.4091 0.18718-0.81824 0.28483-1.2252 0.0908-0.33118 0.20954-0.65356 0.29123-0.98766 0.0783-0.41266 0.1614-0.82385 0.229-1.2385 0.0697-0.38038 0.12843-0.75836 0.25426-1.1259 0.13888-0.48144 0.3085-0.95429 0.4108-1.4458 0.12068-0.45693 0.21092-0.92157 0.37046-1.3679 0.17451-0.3837 0.37602-0.74406 0.5912-1.107 0.35163-0.67377 0.6008-1.3892 0.85861-2.1028 0.19038-0.49556 0.37774-1.0082 0.42572-1.5404l1.9409-0.98894z" fill="#ce1127"/>
 </g>
 <g transform="matrix(5.2545 0 0 5.2545 .4841 -3.7469)">
  <g class="cls-2" transform="translate(-.10213 .25309)" clip-path="url(#b)">
   <path d="m76.29 0.51h45.36v40.31h-45.36z" fill="url(#c)"/>
  </g>
  <g class="cls-4" transform="translate(-.10213 .25309)" clip-path="url(#a)">
   <g fill="none" stroke="#fff" stroke-width=".87px">
    <path class="cls-5" transform="translate(.01 -.66)" d="m81.35 21.25v-0.36h-5v0.36a18.08 18.08 0 0 0 0.58 4.52h4.9a23.13 23.13 0 0 1-0.48-4.52z"/>
    <path class="cls-5" transform="translate(.01 -.66)" d="m81.9 16.27h-4.9a18 18 0 0 0-0.69 4.62h5a22.3 22.3 0 0 1 0.59-4.62z"/>
    <path class="cls-5" transform="translate(.01 -.66)" d="m81.81 25.77h-4.91a18.83 18.83 0 0 0 2 4.88h4.45a21.38 21.38 0 0 1-1.54-4.88z"/>
    <path class="cls-5" transform="translate(.01 -.66)" d="m83.39 30.65h-4.45a20.45 20.45 0 0 0 3.87 4.71h3.59a20.3 20.3 0 0 1-3.01-4.71z"/>
    <path class="cls-5" transform="translate(.01 -.66)" d="m99 1.1a24.25 24.25 0 0 0-15.18 5.18h3.37a16.44 16.44 0 0 1 11.81-5.18z"/>
    <path class="cls-5" transform="translate(.01 -.66)" d="m114.19 6.28a24.22 24.22 0 0 0-15.19-5.18 16.44 16.44 0 0 1 11.82 5.19z"/>
    <path class="cls-5" transform="translate(.01 -.66)" d="m86.41 35.36h-3.59a24.08 24.08 0 0 0 16.18 6.05 16.6 16.6 0 0 1-12.59-6.05z"/>
    <path class="cls-5" transform="translate(.01 -.66)" d="m83.64 11.33h-4.38a18.5 18.5 0 0 0-2.26 4.94h4.9a21.17 21.17 0 0 1 1.74-4.94z"/>
    <path class="cls-5" transform="translate(.01 -.66)" d="m87.19 6.28h-3.37a20.8 20.8 0 0 0-4.56 5.05h4.38a20 20 0 0 1 3.55-5.05z"/>
    <path class="cls-5" transform="translate(.01 -.66)" d="m114.37 11.33h4.38a20.77 20.77 0 0 0-4.56-5.05h-3.36a20 20 0 0 1 3.54 5.05z"/>
    <path class="cls-5" transform="translate(.01 -.66)" d="m114.62 30.65h4.45a18.6 18.6 0 0 0 2-4.88h-4.9a21.64 21.64 0 0 1-1.55 4.88z"/>
    <path class="cls-5" transform="translate(.01 -.66)" d="m99 41.41a24.09 24.09 0 0 0 16.19-6.05h-3.59a16.59 16.59 0 0 1-12.6 6.05z"/>
    <path class="cls-5" transform="translate(.01 -.66)" d="m116.65 21.25a22.56 22.56 0 0 1-0.45 4.52h4.9a17.89 17.89 0 0 0 0.58-4.52v-0.36h-5c-0.03 0.11-0.03 0.24-0.03 0.36z"/>
    <path class="cls-5" transform="translate(.01 -.66)" d="m116.65 20.89h5a18.13 18.13 0 0 0-0.69-4.63h-4.87a23 23 0 0 1 0.56 4.63z"/>
    <path class="cls-5" transform="translate(.01 -.66)" d="m111.6 35.36h3.59a20.45 20.45 0 0 0 3.87-4.71h-4.45a20.06 20.06 0 0 1-3.01 4.71z"/>
    <path class="cls-5" transform="translate(.01 -.66)" d="m114.37 11.33a21.79 21.79 0 0 1 1.74 4.94h4.89a18.61 18.61 0 0 0-2.24-4.94z"/>
    <path class="cls-5" transform="translate(.01 -.66)" d="m83.39 30.65a20.3 20.3 0 0 0 3 4.71h5.36a25.42 25.42 0 0 1-1.75-4.71z"/>
    <path class="cls-5" transform="translate(.01 -.66)" d="m110.82 6.28h-5a23.79 23.79 0 0 1 2 5.05h6.54a20 20 0 0 0-3.54-5.05z"/>
    <path class="cls-5" transform="translate(.01 -.66)" d="m109.14 20.89h7.51a23 23 0 0 0-0.54-4.63h-7.28a37.45 37.45 0 0 1 0.31 4.63z"/>
    <path class="cls-5" transform="translate(.01 -.66)" d="m108.83 16.27h7.29a21.75 21.75 0 0 0-1.74-4.94h-6.54a33.16 33.16 0 0 1 0.99 4.94z"/>
    <path class="cls-5" transform="translate(.01 -.66)" d="m92.22 6.28h-5a20 20 0 0 0-3.55 5.05h6.54a23.7 23.7 0 0 1 2.01-5.05z"/>
    <path class="cls-5" transform="translate(.01 -.66)" d="m108 30.65h6.64a21.64 21.64 0 0 0 1.58-4.88h-7.32a34.3 34.3 0 0 1-0.9 4.88z"/>
    <path class="cls-5" transform="translate(.01 -.66)" d="m106.24 35.36h5.36a20.07 20.07 0 0 0 3-4.71h-6.6a24.9 24.9 0 0 1-1.76 4.71z"/>
    <path class="cls-5" transform="translate(.01 -.66)" d="m109.14 21.25a40.45 40.45 0 0 1-0.26 4.52h7.32a22.68 22.68 0 0 0 0.45-4.52v-0.36h-7.51z"/>
    <path class="cls-5" transform="translate(.01 -.66)" d="m89.18 16.27h-7.28a22.24 22.24 0 0 0-0.54 4.62h7.51a38.63 38.63 0 0 1 0.31-4.62z"/>
    <path class="cls-5" transform="translate(.01 -.66)" d="m92.22 6.28c1.78-3.22 4.18-5.18 6.78-5.18a16.44 16.44 0 0 0-11.81 5.18z"/>
    <path class="cls-5" transform="translate(.01 -.66)" d="m111.6 35.36h-5.36c-1.84 3.73-4.4 6.05-7.24 6.05a16.59 16.59 0 0 0 12.6-6.05z"/>
    <path class="cls-5" transform="translate(.01 -.66)" d="m90.18 11.33h-6.54a21.36 21.36 0 0 0-1.74 4.94h7.28a33.15 33.15 0 0 1 1-4.94z"/>
    <path class="cls-5" transform="translate(.01 -.66)" d="m105.79 6.28h5a16.44 16.44 0 0 0-11.79-5.18c2.62 0 5 1.96 6.79 5.18z"/>
    <path class="cls-5" transform="translate(.01 -.66)" d="m89.12 25.77h-7.31a21.5 21.5 0 0 0 1.59 4.88h6.6a34.89 34.89 0 0 1-0.88-4.88z"/>
    <path class="cls-5" transform="translate(.01 -.66)" d="m91.77 35.36h-5.36a16.6 16.6 0 0 0 12.59 6.05c-2.83 0-5.39-2.32-7.23-6.05z"/>
    <path class="cls-5" transform="translate(.01 -.66)" d="m88.87 21.25v-0.36h-7.51v0.36a23.2 23.2 0 0 0 0.46 4.52h7.32a38.91 38.91 0 0 1-0.27-4.52z"/>
    <path class="cls-5" transform="translate(.01 -.66)" d="m96 11.33c0.19-1.9 0.43-3.6 0.7-5.05h-4.48a23.69 23.69 0 0 0-2 5.05z"/>
    <path class="cls-5" transform="translate(.01 -.66)" d="m107.83 11.33a23.88 23.88 0 0 0-2-5.05h-4.45c0.28 1.45 0.52 3.15 0.7 5.05z"/>
    <path class="cls-5" transform="translate(.01 -.66)" d="m95.62 16.27h-6.44a38.3 38.3 0 0 0-0.31 4.62h6.64c0.01-1.59 0.05-3.14 0.11-4.62z"/>
    <path class="cls-5" transform="translate(.01 -.66)" d="m89.12 25.77a34.89 34.89 0 0 0 0.88 4.88h5.88c-0.14-1.52-0.24-3.16-0.31-4.88z"/>
    <path class="cls-5" transform="translate(.01 -.66)" d="m102.1 30.65h5.9a34.3 34.3 0 0 0 0.91-4.88h-6.48c-0.09 1.73-0.2 3.36-0.33 4.88z"/>
    <path class="cls-5" transform="translate(.01 -.66)" d="m102.39 16.27h6.44a33.4 33.4 0 0 0-1-4.94h-5.83c0.19 1.53 0.32 3.19 0.39 4.94z"/>
    <path class="cls-5" transform="translate(.01 -.66)" d="m96 11.33h-5.82a33.15 33.15 0 0 0-1 4.94h6.44c0.08-1.75 0.2-3.41 0.38-4.94z"/>
    <path class="cls-5" transform="translate(.01 -.66)" d="m102.49 21.25c0 1.56 0 3.07-0.09 4.52h6.48a40.26 40.26 0 0 0 0.26-4.52v-0.36h-6.65z"/>
    <path class="cls-5" transform="translate(.01 -.66)" d="m102.49 20.89h6.65a37.61 37.61 0 0 0-0.31-4.63h-6.44c0.06 1.49 0.1 3.04 0.1 4.63z"/>
    <path class="cls-5" transform="translate(.01 -.66)" d="m92.22 6.28h4.45c0.62-3.22 1.44-5.18 2.33-5.18-2.6 0-5 1.96-6.78 5.18z"/>
    <path class="cls-5" transform="translate(.01 -.66)" d="m101.34 6.28h4.45c-1.79-3.22-4.17-5.18-6.79-5.18 0.9 0 1.73 1.96 2.34 5.18z"/>
    <path class="cls-5" transform="translate(.01 -.66)" d="m106.24 35.36h-4.74c-0.63 3.73-1.52 6.05-2.49 6.05 2.83 0 5.39-2.32 7.23-6.05z"/>
    <path class="cls-5" transform="translate(.01 -.66)" d="m96.51 35.36h-4.74c1.84 3.73 4.4 6.05 7.24 6.05-1.01 0-1.86-2.32-2.5-6.05z"/>
    <path class="cls-5" transform="translate(.01 -.66)" d="m90 30.65a25.42 25.42 0 0 0 1.73 4.71h4.75c-0.23-1.39-0.44-3-0.6-4.71z"/>
    <path class="cls-5" transform="translate(.01 -.66)" d="m102.1 30.65c-0.16 1.73-0.36 3.32-0.6 4.71h4.75a25 25 0 0 0 1.75-4.71z"/>
    <path class="cls-5" transform="translate(.01 -.66)" d="m95.51 21.25v-0.36h-6.64v0.36a39.1 39.1 0 0 0 0.26 4.52h6.47c-0.05-1.45-0.09-2.96-0.09-4.52z"/>
    <path class="cls-5" transform="translate(.01 -.66)" d="m102.39 16.27c-0.07-1.75-0.2-3.41-0.35-4.94h-6.04c-0.15 1.53-0.27 3.18-0.34 4.94z"/>
    <path class="cls-5" transform="translate(.01 -.66)" d="m95.51 20.89h7c0-1.6 0-3.15-0.11-4.63h-6.78c-0.07 1.49-0.1 3.04-0.11 4.63z"/>
    <path class="cls-5" transform="translate(.01 -.66)" d="m95.51 21.25c0 1.56 0 3.07 0.09 4.52h6.8c0.06-1.45 0.09-3 0.09-4.52v-0.36h-7z"/>
    <path class="cls-5" transform="translate(.01 -.66)" d="m101.5 35.36h-5c0.63 3.73 1.52 6.05 2.49 6.05s1.87-2.32 2.51-6.05z"/>
    <path class="cls-5" transform="translate(.01 -.66)" d="m96.67 6.28h4.67c-0.61-3.22-1.44-5.18-2.34-5.18s-1.71 1.96-2.33 5.18z"/>
    <path class="cls-5" transform="translate(.01 -.66)" d="m95.61 25.77c0.07 1.72 0.17 3.36 0.31 4.88h6.18c0.14-1.52 0.24-3.16 0.31-4.88z"/>
    <path class="cls-5" transform="translate(.01 -.66)" d="m102 11.33c-0.18-1.9-0.42-3.6-0.7-5.05h-4.63c-0.27 1.45-0.51 3.15-0.7 5.05z"/>
    <path class="cls-5" transform="translate(.01 -.66)" d="m95.92 30.65c0.16 1.73 0.36 3.32 0.6 4.71h5c0.23-1.39 0.44-3 0.6-4.71z"/>
   </g>
   <g fill="#fff">
    <path class="cls-6" transform="translate(.01 -.66)" d="m5.79 20.65c2.6 0 7.26-0.1 7.26-4.78 0-4.35-4.06-4.45-5.34-4.45-1.64 0-1.92 0.23-1.92 1.18zm6.05 0.54c3.9 0.83 3.69 6.2 3.69 6.2 0.16 3.24 2.73 3.56 2.73 3.56v0.93h-3.58c-1.34-0.22-2.57-2.36-2.57-6s-2.51-4.19-2.51-4.19l-3.81 0.05v6.56c0 2.19 0.31 2.82 2.79 2.95v0.62h-8.58v-0.62c2.51-0.16 2.64-0.85 2.64-3.31v-14.16c0-2.42-0.47-2.71-2.64-2.94v-0.62h8.55c2.76 0 8 0.3 7.83 5.33 0.05 3.4-2.64 4.91-4.49 5.38z"/>
    <path class="cls-6" transform="translate(.01 -.66)" d="m160.14 20c3 0 5.56 0.13 5.56-4.55 0-4.36-3-4.65-4.44-4.45-1.61 0.22-1.12 0.48-1.12 1.43zm5.82 0.77c4.44 0.83 4.2 6.2 4.2 6.2a3.63 3.63 0 0 0 3.1 3.56v0.94h-4.08c-2.09 0.11-4.28-1.81-4.55-5.54s-2-4.22-2-4.22l-2.46 0.05v6.25c0 2.2-0.27 2.58 2.3 2.64v0.83h-9.47v-0.92c2.86-0.16 2.52-0.57 2.52-3v-14.22c0-2.42 0.08-2.51-2.4-2.73v-0.88h9.14c3.14 0 8.85 0.29 8.67 5.33 0.06 3.4-2.76 4.9-4.87 5.37z"/>
    <path class="cls-6" transform="translate(.01 -.66)" d="m30.61 22.35-3.15-8.83-3 8.78zm8 9.59h-7.45v-0.93c1.09 0 2 0.28 2-0.92a8.06 8.06 0 0 0-0.5-2.09l-1.77-4.65-6.69 0.06-1.78 5.28a4 4 0 0 0-0.24 1.31c0 1.36 1.45 1.06 2.07 1.06l-0.07 0.93h-5.81v-0.93c0.47 0 0.92 0.21 1.45-0.41a23.1 23.1 0 0 0 2.18-4.65l5-15.84h2.41l6.59 18.34c0.94 2.37 0.22 2.46 2.74 2.57z"/>
    <path class="cls-6" transform="translate(.01 -.66)" d="m143.66 22.29-2.57-8.12-2.73 8.18zm7.39 7.59c0.29 0.54 0.72 0.65 1.9 0.65v0.92h-9.5v-0.93c1.08 0 2.36 0.13 2.36-0.88a8.34 8.34 0 0 0-0.54-2.09l-1.18-3.68h-6l-1.34 4.5a2.82 2.82 0 0 0-0.13 1.07c0 1.31 1.93 1.14 2.54 1.14v0.87h-6.78v-0.93c0.47 0 0.52 0.21 1-0.4a23.39 23.39 0 0 0 2.14-4.61l5-15.84h4.09l5.47 17.25z"/>
    <path class="cls-6" transform="translate(.01 -.66)" d="m193.72 22.29-2.57-8.12-2.72 8.18zm7.39 7.59c0.29 0.54 0.72 0.65 1.9 0.65v0.92h-9.51v-0.93c1.08 0 2.36 0.13 2.36-0.88a8.45 8.45 0 0 0-0.54-2.09l-1.18-3.68h-6l-1.34 4.5a2.81 2.81 0 0 0-0.13 1.07c0 1.31 1.92 1.14 2.54 1.14v0.87h-6.78v-0.93c0.47 0 0.52 0.21 1.05-0.4a23.58 23.58 0 0 0 2.14-4.61l5-15.84h4.09l5.48 17.25z"/>
    <path class="cls-6" transform="translate(.01 -.66)" d="m44.3 11.38-0.06 1.37 0.06 16.35c0 1.12 0.79 1.64 2.32 1.64 2 0 9.86 0 9.86-9.52 0-2.75-0.47-5.77-2.4-7.69-1.53-1.41-2.35-2.19-8-2.19zm-5.56 19.69c2.42-0.13 2.73-0.41 2.73-2.7v-14.53c0-2.42-0.35-2.75-2.8-2.95v-0.62h8.59c9.45-0.11 12.66 3.07 12.7 10.9 0 5.23-2.07 10.77-12.25 10.77h-9z"/>
    <path class="cls-6" transform="translate(.01 -.66)" d="m60.38 31.13c2.54-0.06 2.9-0.38 2.9-2.71v-14.56c0-2.43-0.42-2.82-2.9-3v-0.62h8.87v0.62c-2.18 0.1-2.93 0.33-2.93 3v14.56c0 2.56 0.72 2.59 2.93 2.66v0.92h-8.87z"/>
    <path class="cls-6" transform="translate(.01 -.66)" d="m173.24 30.58c2 0 2.22-0.38 2.22-2.7v-14.57c0-2.43 0.35-2.7-2.49-2.7v-0.87h9.52l0.05 1c-2.62 0-2.42 0-2.42 2.6v14.54c0 2.56 0.62 2.66 2.18 2.66v0.92h-9"/>
    <path class="cls-6" transform="translate(.01 -.66)" d="m87.36 20.8c0-7.4-3.51-10-6.74-10s-6.74 2.63-6.74 10c0 7.15 3.23 10 6.74 10s6.74-2.89 6.74-10m-17.09 0c0-7.47 5.16-11.24 10.35-11.24s10.38 3.8 10.38 11.27c0 6.92-4.66 11.17-10.39 11.17s-10.35-4.25-10.35-11.17"/>
    <path class="cls-6" transform="translate(.01 -.66)" d="m132.81 10.62c-2 0.16-2.75-0.22-2.75 2.41v14.79c0 2.56 0.24 2.47 2.27 2.6v1h-9.33v-1c2.47-0.13 2.25-0.5 2.25-3.24l-0.06-12.56v-1.2l-6.25 17.39h-2l-6.54-17.54h-0.07v13.29c0 3.43 0.67 4.16 3 4.26v0.64h-7.44v-1.08c2.4-0.17 2.57-0.3 2.57-3.9v-13.48c0-2.6-0.22-2.28-2.57-2.41v-1.22h8.11l5.45 14.44 4.92-14.44h8.4z"/>
   </g>
  </g>
  <g transform="scale(1.0683 .93606)" fill="#fff" stroke-width=".8309" style="font-feature-settings:normal;font-variant-caps:normal;font-variant-ligatures:normal;font-variant-numeric:normal" aria-label="România">
   <path d="m121.69 46.509q0 0.04761-0.0179 0.08331-0.0178 0.03571-0.0774 0.05951-0.0595 0.0238-0.16663 0.03571-0.10712 0.0119-0.28564 0.0119-0.15473 0-0.2559-0.0119-0.0952-0.0119-0.15472-0.03571-0.0595-0.02976-0.0952-0.07736-0.0297-0.04761-0.0535-0.11902l-0.70817-1.815q-0.12497-0.30945-0.26184-0.56534-0.13092-0.26184-0.3154-0.44632-0.18448-0.19043-0.43442-0.2916-0.24994-0.10712-0.60105-0.10712h-0.68436v3.279q0 0.04761-0.0298 0.08331-0.0238 0.03571-0.0833 0.05951-0.0536 0.01785-0.15472 0.02975-0.0952 0.01785-0.24399 0.01785-0.14878 0-0.24994-0.01785-0.0952-0.0119-0.15473-0.02975-0.0595-0.0238-0.0833-0.05951t-0.0238-0.08331v-7.1293q0-0.23209 0.11902-0.32135 0.12497-0.09522 0.26185-0.09522h1.6365q0.2916 0 0.48203 0.01785 0.19638 0.0119 0.3511 0.02975 0.44633 0.07736 0.78553 0.24399 0.34516 0.16663 0.57725 0.42252 0.23208 0.25589 0.34515 0.58914 0.11902 0.3273 0.11902 0.72602 0 0.38681-0.10712 0.69626-0.10116 0.3035-0.29755 0.54154-0.19638 0.23209-0.47012 0.40467-0.27375 0.17258-0.61295 0.2916 0.19043 0.08331 0.34516 0.21423 0.15472 0.12497 0.28564 0.3035 0.13687 0.17853 0.25589 0.41062t0.23804 0.52368l0.69031 1.696q0.0833 0.21424 0.10712 0.3035 0.0238 0.08331 0.0238 0.13092zm-1.5413-5.4094q0-0.45227-0.20234-0.76172-0.20233-0.3154-0.67841-0.45227-0.14877-0.04166-0.3392-0.05951-0.18448-0.01785-0.48798-0.01785h-0.86289v2.5946h0.99976q0.40467 0 0.69626-0.09521 0.29755-0.10117 0.49393-0.27374 0.19639-0.17853 0.28565-0.41657 0.0952-0.23804 0.0952-0.51773z"/>
   <path d="m127.8 43.777q0 0.65461-0.17258 1.208-0.17257 0.54749-0.51773 0.9462-0.33921 0.39872-0.85694 0.62485-0.51178 0.22019-1.1902 0.22019-0.66056 0-1.1545-0.19638-0.48798-0.19638-0.81528-0.57129t-0.48798-0.9105q-0.16067-0.53559-0.16067-1.214 0-0.65461 0.16662-1.2021 0.17258-0.55344 0.51179-0.95215 0.34515-0.39872 0.85693-0.6189 0.51179-0.22019 1.1962-0.22019 0.66055 0 1.1485 0.19638 0.49393 0.19638 0.82124 0.57129 0.3273 0.37491 0.48797 0.9105 0.16663 0.53559 0.16663 1.208zm-1.0355 0.06546q0-0.43442-0.0833-0.82123-0.0774-0.38681-0.26184-0.67841-0.18448-0.2916-0.49988-0.45822-0.3154-0.17258-0.78553-0.17258-0.43442 0-0.74982 0.15472-0.30945 0.15472-0.51178 0.44037-0.20234 0.2797-0.3035 0.66651-0.0952 0.38681-0.0952 0.84504 0 0.44037 0.0774 0.82718 0.0833 0.38681 0.2678 0.67841 0.19043 0.28565 0.50583 0.45822 0.3154 0.16663 0.78553 0.16663 0.42847 0 0.74387-0.15472t0.51773-0.43442 0.29755-0.66651q0.0952-0.38681 0.0952-0.85099z"/>
   <path d="m137.19 46.514q0 0.04761-0.0238 0.08331-0.0238 0.02976-0.0774 0.05356t-0.14877 0.03571q-0.0952 0.0119-0.23804 0.0119-0.14877 0-0.24399-0.0119-0.0952-0.0119-0.15472-0.03571-0.0536-0.0238-0.0774-0.05356-0.0238-0.03571-0.0238-0.08331v-3.2552q0-0.3392-0.0595-0.6189t-0.19043-0.48203q-0.13092-0.20233-0.33326-0.30945-0.20233-0.10712-0.47607-0.10712-0.33921 0-0.68436 0.26184-0.33921 0.26184-0.74982 0.76767v3.7432q0 0.04761-0.0238 0.08331-0.0238 0.02976-0.0833 0.05356-0.0536 0.0238-0.14878 0.03571-0.0952 0.0119-0.23803 0.0119-0.13688 0-0.23804-0.0119-0.0952-0.0119-0.15473-0.03571-0.0536-0.0238-0.0774-0.05356-0.0179-0.03571-0.0179-0.08331v-3.2552q0-0.3392-0.0655-0.6189t-0.19638-0.48203q-0.13093-0.20233-0.33326-0.30945-0.19638-0.10712-0.47012-0.10712-0.33921 0-0.68437 0.26184-0.34515 0.26184-0.74982 0.76767v3.7432q0 0.04761-0.0238 0.08331-0.0238 0.02976-0.0774 0.05356t-0.14878 0.03571q-0.0952 0.0119-0.24399 0.0119-0.14282 0-0.23803-0.0119-0.0952-0.0119-0.15473-0.03571-0.0536-0.0238-0.0774-0.05356-0.0178-0.03571-0.0178-0.08331v-5.3559q0-0.04761 0.0178-0.07736 0.0179-0.03571 0.0714-0.05951 0.0536-0.02976 0.13687-0.03571 0.0833-0.0119 0.22019-0.0119 0.13092 0 0.21423 0.0119 0.0893 6e-3 0.13687 0.03571 0.0476 0.0238 0.0655 0.05951 0.0238 0.02976 0.0238 0.07736v0.70816q0.45227-0.50583 0.87479-0.73792 0.42847-0.23804 0.86289-0.23804 0.33325 0 0.5951 0.07736 0.26779 0.07736 0.47012 0.22018 0.20233 0.13687 0.34516 0.33325 0.14282 0.19043 0.23804 0.42847 0.26779-0.2916 0.50583-0.49393 0.24399-0.20233 0.46417-0.3273 0.22614-0.12497 0.43442-0.17853 0.21424-0.05951 0.42847-0.05951 0.51774 0 0.86884 0.18448 0.35111 0.17853 0.56534 0.48203 0.22019 0.3035 0.30945 0.71412 0.0952 0.40466 0.0952 0.85694z"/>
   <path d="m143.02 46.52q0 0.07141-0.0476 0.10712t-0.13092 0.05356q-0.0833 0.01785-0.24399 0.01785-0.15472 0-0.24994-0.01785-0.0893-0.01785-0.13092-0.05356-0.0417-0.03571-0.0417-0.10712v-0.53559q-0.3511 0.37491-0.78552 0.58319-0.42847 0.20828-0.9105 0.20828-0.42252 0-0.76767-0.11307-0.33921-0.10712-0.5832-0.3154-0.23804-0.20828-0.37491-0.51178-0.13092-0.3035-0.13092-0.69031 0-0.45227 0.18448-0.78553 0.18448-0.33325 0.52964-0.55344 0.34515-0.22018 0.84503-0.3273 0.49988-0.11307 1.1247-0.11307h0.73792v-0.41657q0-0.30945-0.0655-0.54749t-0.21423-0.39276q-0.14283-0.16068-0.37491-0.23804-0.23209-0.08331-0.5713-0.08331-0.363 0-0.6546 0.08926-0.28565 0.08331-0.50583 0.19043-0.21424 0.10117-0.36301 0.19043-0.14282 0.08331-0.21424 0.08331-0.0476 0-0.0833-0.0238t-0.0655-0.07141q-0.0238-0.04761-0.0357-0.11902-0.0119-0.07736-0.0119-0.16663 0-0.14877 0.0179-0.23209 0.0238-0.08926 0.10117-0.16663 0.0833-0.07736 0.2797-0.17853 0.19638-0.10712 0.45227-0.19043 0.25589-0.08926 0.55939-0.14282 0.3035-0.05951 0.61295-0.05951 0.57724 0 0.98191 0.13092 0.40466 0.13092 0.6546 0.38681 0.24994 0.24994 0.36301 0.62485t0.11307 0.87479zm-0.97596-2.4458h-0.83908q-0.40467 0-0.70222 0.07141-0.29754 0.06546-0.49393 0.20233-0.19638 0.13092-0.29159 0.32135-0.0893 0.18448-0.0893 0.42847 0 0.41657 0.26184 0.66651 0.2678 0.24399 0.74387 0.24399 0.38682 0 0.71412-0.19638 0.33325-0.19638 0.69626-0.60105zm-1.7853-4.0824q-0.0357 0.05951-0.0714 0.09522-0.0357 0.02976-0.0893 0.04761-0.0476 0.01785-0.12497 0.02976-0.0714 6e-3 -0.18448 6e-3 -0.16068 0-0.24994-0.01785-0.0833-0.0238-0.11307-0.05951-0.0298-0.04166-6e-3 -0.10117 0.0238-0.06546 0.0952-0.15472l0.98191-1.3628q0.0298-0.04761 0.0714-0.07141 0.0417-0.02976 0.10117-0.04761 0.0655-0.01785 0.15473-0.0238 0.0952-0.0119 0.22613-0.0119 0.12497 0 0.20829 0.0119 0.0833 6e-3 0.14282 0.02976 0.0595 0.01785 0.0952 0.04761 0.0417 0.0238 0.0714 0.06546l0.9819 1.3628q0.0655 0.08926 0.0893 0.15472 0.0238 0.05951-6e-3 0.10117-0.0238 0.03571-0.11307 0.05951-0.0893 0.01785-0.24399 0.01785-0.12497 0-0.20233-6e-3 -0.0714-0.0119-0.11902-0.02976-0.0476-0.01785-0.0774-0.05356t-0.0714-0.08926l-0.77362-1.0712z"/>
   <path d="m149.43 46.514q0 0.04761-0.0238 0.08331-0.0238 0.02976-0.0774 0.05356t-0.14878 0.03571q-0.0952 0.0119-0.23803 0.0119-0.14878 0-0.24399-0.0119-0.0952-0.0119-0.14878-0.03571-0.0536-0.0238-0.0774-0.05356-0.0238-0.03571-0.0238-0.08331v-3.1362q0-0.45822-0.0714-0.73792t-0.20828-0.48203q-0.13687-0.20233-0.35706-0.30945-0.21423-0.10712-0.49988-0.10712-0.36896 0-0.73792 0.26184t-0.77362 0.76767v3.7432q0 0.04761-0.0238 0.08331-0.0238 0.02976-0.0774 0.05356t-0.14877 0.03571q-0.0952 0.0119-0.24399 0.0119-0.14282 0-0.23804-0.0119-0.0952-0.0119-0.15472-0.03571-0.0536-0.0238-0.0774-0.05356-0.0179-0.03571-0.0179-0.08331v-5.3559q0-0.04761 0.0179-0.07736 0.0179-0.03571 0.0714-0.05951 0.0536-0.02976 0.13688-0.03571 0.0833-0.0119 0.22018-0.0119 0.13092 0 0.21424 0.0119 0.0893 6e-3 0.13687 0.03571 0.0476 0.0238 0.0655 0.05951 0.0238 0.02976 0.0238 0.07736v0.70816q0.45228-0.50583 0.8986-0.73792 0.45227-0.23804 0.9105-0.23804 0.53558 0 0.89859 0.18448 0.36896 0.17853 0.5951 0.48203 0.22613 0.3035 0.32135 0.71412 0.10116 0.40466 0.10116 0.97596z"/>
   <path d="m152.2 46.514q0 0.04761-0.0238 0.08331-0.0238 0.02976-0.0774 0.05356t-0.14878 0.03571q-0.0952 0.0119-0.24398 0.0119-0.14283 0-0.23804-0.0119-0.0952-0.0119-0.15473-0.03571-0.0536-0.0238-0.0774-0.05356-0.0179-0.03571-0.0179-0.08331v-5.3559q0-0.04166 0.0179-0.07736 0.0238-0.03571 0.0774-0.05951 0.0595-0.0238 0.15473-0.03571 0.0952-0.0119 0.23804-0.0119 0.14877 0 0.24398 0.0119 0.0952 0.0119 0.14878 0.03571 0.0536 0.0238 0.0774 0.05951t0.0238 0.07736zm0.11307-7.165q0 0.34516-0.13092 0.47013t-0.48203 0.12497q-0.34515 0-0.47607-0.11902-0.12497-0.12497-0.12497-0.46418 0-0.34516 0.13092-0.47013t0.48203-0.12497q0.34515 0 0.47012 0.12497 0.13092 0.11902 0.13092 0.45822z"/>
   <path d="m158.06 46.52q0 0.07141-0.0476 0.10712t-0.13092 0.05356q-0.0833 0.01785-0.24399 0.01785-0.15472 0-0.24994-0.01785-0.0893-0.01785-0.13092-0.05356-0.0417-0.03571-0.0417-0.10712v-0.53559q-0.3511 0.37491-0.78552 0.58319-0.42847 0.20828-0.9105 0.20828-0.42252 0-0.76767-0.11307-0.33921-0.10712-0.5832-0.3154-0.23804-0.20828-0.37491-0.51178-0.13092-0.3035-0.13092-0.69031 0-0.45227 0.18448-0.78553 0.18448-0.33325 0.52964-0.55344 0.34515-0.22018 0.84503-0.3273 0.49988-0.11307 1.1247-0.11307h0.73792v-0.41657q0-0.30945-0.0655-0.54749t-0.21423-0.39276q-0.14282-0.16068-0.37491-0.23804-0.23209-0.08331-0.57129-0.08331-0.36301 0-0.65461 0.08926-0.28565 0.08331-0.50583 0.19043-0.21424 0.10117-0.36301 0.19043-0.14282 0.08331-0.21424 0.08331-0.0476 0-0.0833-0.0238t-0.0655-0.07141q-0.0238-0.04761-0.0357-0.11902-0.0119-0.07736-0.0119-0.16663 0-0.14877 0.0179-0.23209 0.0238-0.08926 0.10116-0.16663 0.0833-0.07736 0.2797-0.17853 0.19638-0.10712 0.45227-0.19043 0.25589-0.08926 0.55939-0.14282 0.3035-0.05951 0.61295-0.05951 0.57724 0 0.98191 0.13092 0.40466 0.13092 0.6546 0.38681 0.24994 0.24994 0.36301 0.62485t0.11307 0.87479zm-0.97596-2.4458h-0.83908q-0.40467 0-0.70222 0.07141-0.29754 0.06546-0.49393 0.20233-0.19638 0.13092-0.29159 0.32135-0.0893 0.18448-0.0893 0.42847 0 0.41657 0.26185 0.66651 0.26779 0.24399 0.74387 0.24399 0.38681 0 0.71411-0.19638 0.33325-0.19638 0.69626-0.60105z"/>
  </g>
 </g>
</svg>
