<?xml version="1.0" encoding="UTF-8"?>
<svg width="1554.7" height="499.09" version="1.1" viewBox="0 0 1554.7 499.09" xmlns="http://www.w3.org/2000/svg">
 <g fill="#235c9c">
  <path d="m1161.7 55.717c1.91-9.21 6.08-17.72 11.38-24.99q17.84-24.43 46.18-29.76c9.36-1.75 23.15-1.54 30.94 4.15 8.38 6.12 6.87 17.98 3.32 26.91-6.73 16.89-18.44 31.28-34.5 39.69q-13.82 7.23-31.61 7.71c-7.17 0.19-19.69-1.75-23.79-8.8q-3.7-6.35-1.92-14.91zm45.3 6.27q19.28-10.91 25.37-33.16 0.79-2.88 0.26-6.27-0.41-2.63-2.21-4.12-5.14-4.27-10.94-3.17-11.6 2.21-20.2 11.24-10.62 11.14-14.36 25.29c-1.01 3.85 1.12 7.2 3.59 9.98q1.72 1.93 4.33 2.27 8.54 1.12 14.16-2.06z"/>
  <path d="m83.411 123.51q30.76-14.88 65.11-26.84c51.92-18.06 104.98-32.21 159.06-43.91q65.39-14.14 126.97-23.16 26.96-3.95 61.83-8.52 10.18-1.33 19.86-2.38 31.82-3.46 62.56-6.42 12.88-1.23 26.48-2.17 6.67-0.46 14.03-0.98 31.76-2.22 61.25-3.65 10.09-0.48 19.99-0.74 65.76-1.68 132.5-3.56 2.64-0.08 4.66 1.13a1.92 1.91 29.2 0 1 0.72 2.54l-37.25 70.93a3.38 3.38 0 0 1-2.95 1.82q-11.31 0.19-21.67 0.52-35.73 1.12-71.01 2.17-20.47 0.62-40.89 2.08-11.81 0.85-19.95 1.3-100.88 5.55-200.51 19.37-63.18 8.77-125.02 22.01c-43.8 9.38-89.32 21.52-129.32 36.63q-26.8 10.13-48.87 22.51-17.88 10.02-31.18 21.78c-7.65 6.78-13.97 14.99-17.9 24.48q-2.95 7.13-2.48 15.78 0.66 12.14 8.04 22.52 6.98 9.81 16.44 17.67 16.63 13.84 35.27 22.64 10.09 4.77 20.02 9.52 9.35 4.47 18.32 7.87c34.35 13.01 71.9 23.05 107.26 31.41q9.6 2.28 20.79 4.1c3.29 0.54 6.38 2.11 9.77 2.78a1.17 1.18 87.6 0 1 0.9 0.82q0.38 1.24-0.67 1.43-2.78 0.48-5.76 0.02c-8.59-1.35-17.24-3.65-25.67-5.31-41.33-8.12-81.1-18.59-121.28-30.27q-38.59-11.21-74.28-27.04-13.26-5.88-26.93-13.45c-26.42-14.63-50.36-31.94-63.59-57.61q-4.36-8.46-6.96-20.81-2.47-11.73 0.6-20.74 4.45-13.05 14.33-23.36c18.65-19.44 42.49-32.87 67.38-44.91z"/>
  <path d="m1113.6 70.127c11.63-22.16 23.18-44.19 34.8-66.23a4.37 4.35 13.8 0 1 3.84-2.32l16.61-0.11a1.52 1.55 63.4 0 1 0.9 0.29q0.93 0.67 0.38 1.69-20.05 37.88-38.86 73.38a1.86 1.88 14.1 0 1-1.65 1q-9.42 0.01-18.49-0.09-1.35-0.02-1.76-1.46a1.6 1.62 58.2 0 1 0.37-1.54c1.41-1.5 2.86-2.72 3.86-4.61z"/>
  <path d="m912.1 39.257a1.23 1.23 0 0 0-0.59 1.78c2.17 3.55 2.79 6.75 2.15 10.8q-1.95 12.33-3.01 22.89a3.61 3.59 3 0 1-3.62 3.24l-18.19-0.18a2.08 2.08 0 0 1-1.8-3.08c0.52-0.95 1.1-1.64 1.38-2.72q1.94-7.64 3.36-16.96 0.4-2.62-1.51-4.14c-3.39-2.7-11.19-5.23-13.86 0.01q-6.68 13.12-12.98 24.97a3.64 3.62 13.9 0 1-3.21 1.93l-18.11-0.01a1.09 1.06 65.5 0 1-0.72-0.28q-1.1-1.03-0.27-2.44c0.97-1.65 2.32-2.68 3.21-4.35q18.23-34.27 35.8-67.26a3.7 3.69 13.9 0 1 3.27-1.97c15.03-0.07 30.43-0.76 45.39 1.41q5.24 0.76 9.07 6.49c1.09 1.63 1.62 3.25 0.86 5.22-3.67 9.54-8.87 16.92-18.15 21.57-2.66 1.34-5.71 1.97-8.47 3.08zm0.27-13.65q2.63-3.72 0.77-7.27-0.22-0.42-0.66-0.6-6.35-2.62-14.36-2.68-2.39-0.02-3.65 2.13-4.56 7.78-8.67 15.54a0.78 0.78 0 0 0 0.54 1.13q6.57 1.26 13.45 0.17 7.46-1.18 12.58-8.42z"/>
  <path d="m981.82 61.927q-13.86 0.55-29.31-0.11c-1.61-0.07-3.06 0.85-4.09 2.02q-6.02 6.87-11.85 12.79a4.07 4.12 22.5 0 1-2.92 1.23l-17.59 0.09a1.1 1.1 0 0 1-0.85-0.4q-0.79-0.96-0.06-1.87c2-2.49 4.7-3.83 6.87-6.14q31.08-32.97 62.44-66.16 1.72-1.82 4.06-1.8 7.85 0.08 15.39 0.12c2.62 0.02 5.13 0.69 7.59 1.48a1.54 1.54 0 0 1 1.01 1.9c-0.64 2.15-1.26 4.37-1.43 6.61q-0.62 8.28-1.74 15.88-0.81 5.61-1.37 11.83-0.55 6.25-1.28 11.86-1.51 11.59-2.39 24.97a1.73 1.73 0 0 1-1.7 1.61q-10.99 0.13-21.14 0.1-1.61 0-1.77-1.51-0.1-0.92 0.33-1.8 2.75-5.68 2.65-11.89a0.82 0.82 0 0 0-0.85-0.81zm7.6-41.08q0.11-0.72-0.6-0.52c-0.78 0.21-1.26 0.07-1.86 0.73q-10.88 12.18-21.74 24.35a0.81 0.81 0 0 0 0.58 1.35l18 0.51a2.04 2.05 5 0 0 2.09-1.76z"/>
  <path d="m1016.9 71.057c11.89-22.68 23.67-45.12 35.47-67.52a3.28 3.29 13.5 0 1 2.88-1.77q16.76-0.16 31.42-0.04 8.12 0.07 17.33 1.54c8.7 1.38 14.45 10.33 14.38 18.21q-0.06 6.5-4.33 15.36-9.3 19.27-26.43 29.97c-12.46 7.78-26.86 10.93-41.8 10.93q-15.29-0.01-30.46 0.15a1.68 1.69 84.2 0 1-1.67-1.35c-0.44-2.25 2.27-3.69 3.21-5.48zm73.97-31.51c3.78-6.64 6.52-14.46-0.53-19.72-1.82-1.36-5.14-2.56-7.19-2.94q-6.2-1.14-13.08-0.73-2.47 0.15-3.59 2.33-10.87 21.07-22.63 42.8a0.62 0.62 0 0 0 0.45 0.91q18.19 2.95 32.54-6.53c5.91-3.91 10.54-9.98 14.03-16.12z"/>
  <path d="m1376.9 188.24q16.39 7.76 33.15 19.69c14.19 10.1 25.46 23.76 27.41 41.32 0.51 4.54-1.38 8.97-2.68 13.2-3.64 11.93-14.33 22.22-24.5 29.8-22.37 16.68-49.08 28.29-75.2 37.62q-35.18 12.57-75.85 22.27-56.54 13.49-112.47 21.8-23.82 3.53-56.09 7.8-10.36 1.37-19.85 2.38-58.68 6.19-88.32 8.27-21.48 1.52-46.17 3.08-9.11 0.58-19.15 0.87-8.61 0.26-19.18 0.76-16.51 0.78-33.98 1.5-4.03 0.17-7.52 0.2-71.11 0.81-143.52 0.19c-11.61-0.1-22.93-1.01-34.47-1.27q-10.46-0.24-19.99-0.63-53.73-2.22-91.26-5.39-59.51-5.03-76.75-7.22-26.14-3.31-54-7-23.95-3.16-67.5-10.92-51.91-9.24-101.56-22.93-37.7-10.39-73.43-26.07c-20.11-8.82-42.13-20.73-56.51-35.83-5.89-6.17-8.52-10.98-11.71-17.82q-1.75-3.74-2.27-6.73c-6.99-40.07 55.65-68.31 84.67-79.75q33.9-13.36 69.36-22.78 49.03-13.02 101.83-22.13 82.97-14.32 158.66-20.75 2.89-0.25 5.85-0.01c3.48 0.27 6.43-0.97 9.79-1.18q9.16-0.58 19.09-1.65c2.5-0.27 5.03-0.1 7.56-0.32q27-2.37 37.19-2.82 22.96-1.03 44.86-1.63 1.97-0.05 4.23-0.05 3.08 0.02 6.59-0.26 3.99-0.3 13.53-0.36 6.18-0.04 13.49-0.5 8.55-0.54 16.87-0.67 1.89-0.02 3.8-0.33c1.75-0.28 3.25 0.38 5.03 0.14 3.83-0.5 7.63-0.03 11.46-0.06 19.09-0.16 37.12-0.66 55.62-0.42q49.74 0.65 98.51 1.88c13.93 0.35 28.71 1.33 42.74 1.88 17.57 0.69 35.23 2.2 52.45 3.2q3.78 0.21 7.5 0.67c5.52 0.68 11.01 0.77 16.51 1.65 3.99 0.64 7.96 0.44 12.04 0.84q40.07 3.86 80.01 8.9c27.28 3.43 54.63 8.02 82.05 12.67q43.26 7.34 88.86 18.85 40.46 10.21 78.88 25.46 12.24 4.86 24.34 10.59zm-119.26 79.18q5.62-12.26 2.81-24.99-2.65-12.01-10.51-20.73-4.38-4.85-10.06-10.21-5.74-5.39-11.57-9.22-22.99-15.09-48.13-25.21-28-11.29-57.72-19.38-44.85-12.21-88.36-19.44-52.44-8.72-108.97-13.98-37.26-3.47-63.69-4.22c-13.26-0.38-26.23-1.56-39.55-1.59-14.67-0.03-29.54-0.8-44.62-0.68q-35.83 0.29-55.98 0.97-24.71 0.83-66.31 3.38-9.67 0.6-19.91 1.61c-17.49 1.73-34.97 3.25-52.47 5.38q-46.72 5.69-92.71 14.67-42.55 8.31-84.88 21.81-26.12 8.33-47.38 18.49c-19.56 9.35-38.45 20.74-52.77 36.46-11.45 12.57-16.02 28.93-9.22 44.9q3.19 7.49 7.23 12.45c8.45 10.36 20.7 19.49 32.31 26.89q8.06 5.13 17.74 9.79 25.4 12.23 55.92 21.82 35.31 11.09 70.69 18.49 41.38 8.64 75.68 13.24 15.68 2.1 30.54 4.08c5.65 0.75 11.35 0.8 16.97 1.72q6.14 1.01 12.64 1.6 54.75 5.03 109.41 7.29 9.88 0.41 19.99 0.54 34.38 0.47 65.75-0.29 1.76-0.05 3.76-0.11 21.44-0.65 46.39-1.8c12.42-0.58 24.94-1.59 37.35-2.43 74.01-5.03 147.87-15.56 219.08-33.94q9.76-2.52 19.31-5.42c26.97-8.19 52.17-17.6 76.5-30.89q17.39-9.51 29.21-20.76 11.03-10.49 15.53-20.29z"/>
  <path d="m723.96 485.2q15.18-27.81 30.36-57.12c1.12-2.16 3.04-3.32 5.49-3.46 13.82-0.77 27.17 0.07 40.98-0.42 17.88-0.64 35.91-1 54.25-2.06q15.42-0.9 31.25-1.75 45.41-2.43 102.3-7.04 10.21-0.83 19.97-1.8 85.06-8.42 148.47-18.65 47.61-7.67 97.38-19.03 47.92-10.93 91.87-25.66c26.9-9.01 54.37-20.31 78.48-35.14 14.06-8.64 27.62-20.12 36.14-34.1 8.66-14.21 7.55-30.94-1.99-44.73-10.17-14.72-24.64-25.67-40.17-34.67q-23.06-13.37-50.3-23.69-48.43-18.34-100.47-30.01-1.62-0.36-8.51-2.23-3.57-0.96-8.73-1.62-1.11-0.14-1.75-0.94a1.36 1.37 74.2 0 1 1.23-2.2c4.27 0.5 8.5 0.19 12.74 1.45 5.15 1.52 10.43 2.16 15.79 3.35q44.93 10 87.99 22.71 13.02 3.84 26.72 7.83c20.93 6.1 41.49 14.16 61.58 22.84q20.49 8.86 38.49 19.25 5.85 3.38 12.09 7.83c5.19 3.7 10.63 7.13 15.32 11.29q6.45 5.73 12.7 12.63c10.29 11.35 18.08 24.23 20.08 39.09 1.23 9.13 1.81 20.62-1.49 29.38q-3.6 9.55-12.58 18.7-13.32 13.58-32.41 25.32-28.59 17.58-67.14 33-38.38 15.36-78.77 27.47-75.78 22.73-152.12 36.95-71.29 13.3-131.25 21-63.36 8.14-127.14 13.57-15.79 1.35-30.65 1.9-10.14 0.37-19.97 1.11-24.13 1.82-37.14 2.05-27.15 0.48-55.75 0.72c-3.82 0.03-7.72 0.45-11.43 0.48q-39.08 0.24-77.08 0.29a1.38 1.38 0 0 1-1.26-1.94c1.84-4.18 4.27-8 6.43-11.95z"/>
 </g>
 <g>
  <path d="m668.7 231.92c2.58 2.12 6.53 3.61 9.77 4.29q10.41 2.19 20.42 6.18 7.52 3.01 10.06 11.01 0.16 0.52-0.01 1.05-1.66 5.17-3.45 9.51c-2.45 5.92-8.85 11.37-14.03 14.58q-4.7 2.91-11.57 5.02-21.1 6.49-43.78 2.66c-11.59-1.96-24.27-8.11-17.62-22.43q0.94-2.02 3.27-2.03 14.99-0.05 31.28 0a1.51 1.51 0 0 1 1.51 1.59q-0.06 1.26-0.11 2.46c-0.1 2.49 2.28 4.01 4.47 4.11q7.62 0.35 11.01-6.15c1.81-3.48-3.7-5.59-6.19-6.12q-9.07-1.92-17.43-4.08-6.64-1.71-11.52-5.25c-3.72-2.7-6.57-7.77-4.93-12.56q4.27-12.46 12.81-17.74 9.48-5.87 21.98-8.32 14.28-2.79 29.64-1.13c6.34 0.69 17.38 2.95 20.26 8.89q2.85 5.86 0.49 11.28-1.05 2.44-3.93 2.32-12.67-0.56-26.13 0.11a2.47 2.47 0 0 1-2.47-1.71c-0.81-2.52-2.54-5.21-5.57-5.01q-6.03 0.37-8.67 5.22a1.81 1.79 34.1 0 0 0.44 2.25z"/>
  <path d="m1058 257.6q-3.89-0.39-8.05 0.32c-1.84 0.31-2.79-1.48-2.27-3.01q1.67-4.89 3.88-9.99a3.59 3.6 12.3 0 1 3.37-2.17q21.4 0.4 42.67-0.17a2.22 2.22 0 0 1 2.13 3.01l-13.2 34.77a3.86 3.86 0 0 1-3.1 2.45q-6.56 0.86-13.51 1.9c-9.47 1.42-18.61 2.34-28.04 2.93q-12.29 0.78-24.03-2.23c-13.37-3.43-21.98-14.33-19.28-28.31q4.84-25.02 25.32-37.56c15.52-9.5 36.81-12.92 54.75-11.19 6.94 0.67 15.09 2.24 20.34 6.92q8.08 7.2 3.66 16.71c-0.89 1.9-2.89 2.26-4.74 2.23q-14.12-0.23-26.88 0.04a3.15 3.15 0 0 1-2.64-1.32c-1.62-2.25-3.04-4.61-6.12-4.82q-11.69-0.79-18.14 9.52-5.84 9.34-8.28 20.88-0.61 2.85-0.08 5.29c0.87 4.09 6.02 5.43 9.67 5.08 7.97-0.78 11.41-2.35 13.1-10.57a0.6 0.59 8.7 0 0-0.53-0.71z"/>
  <path d="m1165.6 258.13a0.83 0.83 0 0 0-0.89-0.87q-3.91 0.31-7.51 0.32-3.17 0.01-2.22-3.02c1.31-4.22 2.72-8.79 6.2-11.65a1.74 1.72 26 0 1 1.15-0.39q20.04 0.81 42.17 0.08c1.62-0.05 2.9 1.35 2.3 2.92q-6.43 17.02-12.88 33.9-1.09 2.87-3.99 3.37-19.14 3.31-39.52 4.78-14.06 1.01-27.41-2.79c-11.48-3.26-18.49-12.86-17.54-24.93 1.49-18.89 14.31-35.3 30.64-43.09q13.39-6.39 27.17-7.91c11.53-1.28 23.75-1.38 34.51 1.93 5.92 1.82 12.01 5.93 12.95 12.24 0.38 2.5 0.73 11.11-3.57 11.12q-14.99 0.04-29.23 0.01-1.95 0-2.78-1.69-2.22-4.54-7.02-4.45c-8.02 0.15-13.7 4.48-17.7 11.17q-6.03 10.06-7.76 20.38-0.92 5.46 3.45 8.1c3.62 2.19 7.16 1.13 10.97 0.55 5.36-0.81 8.27-4.71 8.51-10.08z"/>
  <path d="m395.92 240.24q1.05 0.02 1.83-0.79 14.47-14.85 28.6-28.67 1.57-1.53 4-1.52 12.94 0.08 24.84-0.09 2.93-0.05 6.37-0.66 2.29-0.41 2.01 1.89-0.24 2.01-1.89 3.46-13.63 11.92-27.66 25.21-2.68 2.54-5.93 4.99a2.22 2.21 61.5 0 0-0.74 2.51q6.44 17.68 11.62 34.36a1.74 1.8 11.1 0 0 0.53 0.82q1.19 1.04 1.94 0.09 29.26-37.29 55.34-70.61 1.69-2.16 4.61-2.07 21.01 0.64 43.1-0.11a2.39 2.39 0 0 1 2.47 2.3q0.61 16.23 0.62 31.31c0.01 4.17 0.9 8.1 0.92 12.26 0.04 6.92-0.58 14.34-0.08 21.44q0.23 3.37 0.35 6.76 0.1 3.14-3.03 3.13-16.92-0.03-33.81-0.15c-2.47-0.01-3.67-2.18-2.79-4.42q1.2-3.03 1.01-6.32-0.07-1.31-1.38-1.31l-23.89-0.08a3.8 3.79 17.8 0 0-3.11 1.59l-6.82 9.51a3.28 3.26 19.1 0 1-2.8 1.35q-6.72-0.31-13.61-0.26c-17.71 0.11-35.83-0.26-53.75 0.23q-3.7 0.09-4.78-3.92-3.91-14.43-7.63-28.52a0.6 0.61 64.8 0 0-0.94-0.33c-2.38 1.7-4.21 9.37-5.27 12.18q-3.26 8.57-6.21 16.52c-0.87 2.33-2.39 4.28-5.12 4.17q-14.74-0.63-29.52 0.12c-1.49 0.07-2.76-1.19-2.16-2.75q13.92-36.35 26.7-71.57c0.78-2.16 2.79-3.52 5.11-3.37q14.47 0.92 28.32 0.01c1.99-0.13 4.04 1.11 3.16 3.39q-5.18 13.28-10.95 27.28-0.26 0.63 0.42 0.64zm116.76 11.25q0.47-12.42 2.86-24.84a0.37 0.37 0 0 0-0.59-0.37c-1.17 0.87-2.26 1.68-3.05 2.95q-7.17 11.59-16.01 24.29-1.3 1.87 0.98 1.84l14.64-0.15q0.59-0.01 0.73-0.58 0.37-1.48 0.44-3.14z"/>
  <path d="m946.11 264.44q-0.88 1.96 1.27 1.99 16.04 0.2 31.41-0.19 4.05-0.1 2.6 3.68-2.81 7.36-5.44 13.37-1.44 3.3-4.88 3.2-26.15-0.78-66.11-0.1-3.07 0.05-2.05-2.83 0.75-2.13 1.64-4.44 13.8-35.89 25.74-68.16 0.72-1.94 3.13-1.9 32.13 0.51 65.52-0.14c2.44-0.05 3.27 2.02 2.48 4.14q-2.6 6.94-5.62 13.98a3.92 3.92 0 0 1-3.63 2.37l-29.23-0.32q-3.11-0.04-4.41 2.79-0.64 1.39-1.27 2.78-1.36 2.94 1.89 2.9l27.38-0.38a2.28 2.28 0 0 1 2.16 3.09l-5.51 14.45a4.45 4.45 0 0 1-4.19 2.87l-27.66-0.13q-2.05-0.01-2.9 1.86z"/>
  <path d="m756.78 266.52q14.37-0.02 30.74-0.3 1-0.02 1.87 0.24a1.6 1.6 0 0 1 1.03 2.11q-2.91 7.63-5.84 14.94-1.14 2.85-4.53 2.81-29.49-0.37-61.11-0.12c-1.86 0.02-3.92 0.57-5.67 0.32q-2.46-0.35-1.54-2.76 13.55-35.47 26.8-71.41c1.77-4.78 7.85-3.03 11.66-3.03q29.39-0.02 58.03-0.1 2.88-0.01 1.89 2.7-2.41 6.54-5.39 14.59c-0.81 2.2-2.47 2.99-4.75 2.93q-15.43-0.41-28.77-0.33-2.24 0.01-3.41 1.94-1.1 1.82-1.89 3.71-1.19 2.85 1.9 2.8l27.53-0.39a2.1 2.1 0 0 1 1.99 2.86l-5.84 15.04a3.96 3.96 0 0 1-3.71 2.54l-27.33-0.15a3.95 3.94 9.9 0 0-3.73 2.61l-1.51 4.2q-0.82 2.25 1.58 2.25z"/>
  <path d="m887.41 246.96q3.04 0.87 5.22 2.21c4.36 2.68 3.54 10.54 2.64 14.69q-2.26 10.39-3.51 20.28a2.7 2.7 0 0 1-2.78 2.36q-15.53-0.58-31.83-0.05a2.22 2.23 87.9 0 1-2.3-2.13q-0.16-3.64 0.65-7.29 1.53-6.86 3.03-13.5 0.12-0.52-0.15-0.98-1.18-2.04-3.17-3.21-5.23-3.08-8.34 0.14-1.65 1.71-2.89 5.91-2.93 9.86-6.85 18.38-1.25 2.72-4.5 2.63-15.91-0.47-30.09 0.1a1.8 1.8 0 0 1-1.75-2.45q13.58-34.4 26.58-70.63c0.81-2.27 2.59-4.21 5.11-4.21q21.45 0 44.54 0.11 9.61 0.05 19.84 1.54c6.47 0.94 13.95 3.7 14.12 11.3q0.1 4.47-2.84 9.5c-5.07 8.64-11.57 11.31-20.74 14q-2.23 0.66 0.01 1.3zm-30.15-17.44-3.49 9.31a1.49 1.49 0 0 0 1.19 2q9.22 1.31 16.23-6.11c2.09-2.23 1.69-5.23-1.53-6.26q-5.41-1.72-10.16-0.83a2.97 2.96 4.7 0 0-2.24 1.89z"/>
  <path d="m622.5 211.39-27.56 73.74a1.58 1.58 0 0 1-1.48 1.03l-32.83-0.03a1.58 1.58 0 0 1-1.47-2.13l27.51-73.7a1.58 1.58 0 0 1 1.48-1.03l32.87-0.01a1.58 1.58 0 0 1 1.48 2.13z"/>
 </g>
</svg>
