<svg width="800" height="826.31" version="1.1" viewBox="-95 96 800 826.31" xml:space="preserve" xmlns="http://www.w3.org/2000/svg">
<style type="text/css">
	.st0{fill:#0088BE;}
	.st1{fill:#4AAD82;}
</style>
<g transform="matrix(16.019 0 0 16.019 1306.8 -1549.5)">
	<path class="st0" d="m-49.6 139.1c-3.3 1.9-6 3.9-11.4 3.4-15.8-1.6-18.1-20-8.9-26.4 7.9-5.3 16.6-2.1 19.8 5.4 3 7.2-0.6 13.9-6.9 15.5-1.7 0.4-3.3 0.3-5.3-0.1 1.5-0.5 4.4-1.2 4.8-4.4 0.7-6.1-4.4-6.3-4.2-11 0.2-2.9 2.2-4 3.9-4.4-4.4-2.3-12.7-0.5-14.5 7.5-2.7 15.7 17.8 21.7 24.6 7.8 2.9-6 0.5-13-4-17.6-8.1-8.1-27.6-3.3-25.9 14.1 1.7 15.9 20.1 19.3 28 10.2z" fill="#0088be" Googl="true"/><g fill="#4aad82">
	<path class="st1" d="m-87.5 129.7c-0.4 12.7 11 24.7 25.3 24.6 13.5-0.1 25.3-11.8 24.6-25.3-1.1 6.8-3.7 11.8-7.7 15.3-10 9-24.2 9.1-33.7 0.6-1.8-1.6-3.7-3.7-5.2-6.4-2.5-4.2-2.3-6.8-3.3-8.8z"/>
	<path class="st1" d="m-74.9 144.6c-0.8-1.2-2.3-2.2-4.3-5.8-4.5-7.9-3.5-17.4 1.2-24.3 4.5-6.6 12.5-10.6 21.2-9.8 3.5 0.4 5.2 1.3 8.1 2.2-7.1-6.6-24.2-5.9-32 5.8-3.3 4.8-5.2 11.2-3.5 18.4 1.2 5.7 5.4 11.5 9.3 13.5z"/>
	<path class="st1" d="m-66.3 108.8c5.8-0.4 8.7-1.1 13.5 1.7 7.7 4.3 11.8 13.2 8.9 22-1 3-2.6 5.6-4.6 7.5l-2 1.9c0 0.1-0.1 0.1-0.2 0.2 7.1-2 13.7-14 8.8-24.4-1.9-4-5.2-7.3-9.2-9-4.4-1.9-11.5-2.4-15.2 0.1z"/>
</g></g>
</svg>
