<svg version="1.1" viewBox="0 0 800 149.92" xmlns="http://www.w3.org/2000/svg">
 <desc>Created with Sketch.</desc>
 <g transform="matrix(2.7905 0 0 2.7905 -2.4253 -1.3462)" fill="none" fill-rule="evenodd" font-family="Arial-BoldItalicMT, Arial" font-size="58px" font-style="italic" font-weight="bold">
  <g transform="translate(-155,-53)">
   <g aria-label="radyospor">
    <path d="m162.16 64.924h7.5898l-1.2178 5.834q4.248-6.542 9.2041-6.542 1.7559 0 3.7666 0.87793l-3.1152 6.6553q-1.1045-0.39648-2.3506-0.39648-2.0957 0-4.2764 1.5859-2.1524 1.5859-3.3701 4.248-1.2178 2.6338-2.4072 8.3828l-1.9824 9.4307h-8.1279z" fill="#6acaf2"/>
    <path d="m190.36 73.448-7.9297-0.67969q1.3594-4.0215 4.7295-6.2871 3.3984-2.2656 8.9775-2.2656 5.8057 0 8.5811 2.3506 2.7754 2.3223 2.7754 5.6924 0 1.3594-0.25488 2.8887-0.22657 1.5293-1.6709 8.043-1.1894 5.3809-1.1894 7.5332 0 1.9258 0.67968 4.2764h-7.9014q-0.48145-1.6426-0.59473-3.3984-1.7842 1.9824-4.1064 3.0586-2.3223 1.0479-4.6728 1.0479-3.7383 0-6.1738-2.4355-2.4355-2.4639-2.4355-6.3154 0-4.3047 2.6621-6.8818 2.6904-2.5771 9.5723-3.1152 5.8057-0.48144 7.7598-1.1611 0.50976-1.6992 0.50976-2.7188 0-1.3027-1.0478-2.1807t-3.1152-0.87793q-2.1807 0-3.4551 0.90625-1.2461 0.87793-1.6992 2.5205zm7.7314 7.5332q-0.73633 0.19824-1.9541 0.36816-6.1172 0.73633-7.9863 2.1523-1.3311 1.0195-1.3311 2.7471 0 1.416 1.0195 2.4072 1.0195 0.96289 2.6904 0.96289 1.8408 0 3.4551-0.87793 1.6426-0.90625 2.4356-2.2939 0.82129-1.416 1.4443-4.3896z" fill="#6acaf2"/>
    <path d="m238.93 95h-7.7031l0.67969-3.2568q-2.209 2.124-4.3613 3.0586-2.124 0.90625-4.8144 0.90625-4.6728 0-7.5898-3.1719-2.8887-3.2002-2.8887-9.4307 0-7.2217 4.0781-13.056 4.0781-5.834 10.79-5.834 6.0605 0 9.0908 4.8145l3.2568-15.548h8.1279zm-18.776-12.234q0 3.2285 1.6143 5.041 1.6426 1.8125 4.0215 1.8125 2.209 0 4.1064-1.501 1.9258-1.5293 3.0586-4.6445 1.1611-3.1152 1.1611-5.9756 0-3.2568-1.7559-5.2676-1.7558-2.0107-4.0498-2.0107-3.5684 0-5.8623 3.9648-2.294 3.9648-2.294 8.5811z" fill="#6acaf2"/>
    <path d="m249.1 64.924h8.0996l2.0391 14.981q0.76465 5.7773 0.84961 8.0996 1.5859-4.6162 4.3613-9.7422l7.1934-13.339h8.6094l-18.578 33.021q-2.294 4.1064-3.625 5.749-1.3027 1.6426-3.1719 2.5771-1.8408 0.93457-4.4463 0.93457-2.5771 0-5.8057-0.90625l0.70801-6.0605q1.4726 0.4248 2.8604 0.4248 3.7383 0 6.1455-5.6641z" fill="#6acaf2"/>
    <path d="m280.03 82.511q0-8.3545 4.7012-13.311 4.7295-4.9844 12.404-4.9844 6.6553 0 10.394 3.6816 3.7383 3.6533 3.7383 9.8555 0 7.3066-4.6729 12.631-4.6728 5.3242-12.518 5.3242-4.248 0-7.5332-1.6992-3.2852-1.6992-4.8994-4.8145t-1.6143-6.6836zm23.166-5.8057q0-2.8887-1.6992-4.6162-1.6709-1.7559-4.333-1.7559-2.6338 0-4.6728 1.6426-2.0391 1.6143-3.1719 4.7295-1.1328 3.0869-1.1328 5.6924 0 3.2285 1.7559 5.126 1.7559 1.8975 4.418 1.8975 3.3418 0 5.6074-2.8604 3.2285-4.0498 3.2285-9.8555z" fill="#6acaf2"/>
    <path d="m313.22 86.589 7.873-1.2461q1.0479 2.4922 2.6055 3.54 1.5576 1.0195 4.248 1.0195 2.7754 0 4.4463-1.2461 1.1611-0.84961 1.1611-2.0674 0-0.82129-0.59473-1.4727-0.62304-0.62305-3.3701-1.5293-7.3633-2.4355-9.1191-3.8516-2.7471-2.209-2.7471-5.7773 0-3.5684 2.6621-6.1455 3.71-3.5967 11.017-3.5967 5.8057 0 8.7793 2.124 2.9736 2.124 3.7666 5.749l-7.5049 1.3027q-0.59472-1.6426-1.9258-2.4639-1.8125-1.1045-4.3613-1.1045-2.5488 0-3.6816 0.84961-1.1045 0.84961-1.1045 1.9541 0 1.1328 1.1328 1.8691 0.70801 0.45312 4.5596 1.5859 5.9473 1.7275 7.958 3.3984 2.832 2.3506 2.832 5.6641 0 4.2764-3.5967 7.4199t-10.139 3.1436q-6.5137 0-10.082-2.3789-3.54-2.4072-4.8144-6.7402z" fill="#23439c"/>
    <path d="m352.55 64.924h7.7031l-0.65137 3.0869q2.4639-2.0391 4.6162-2.917t4.6162-0.87793q4.7295 0 7.5898 3.2568 2.8887 3.2568 2.8887 9.7139 0 8.1279-4.9561 13.735-4.248 4.7861-10.054 4.7861-5.9756 0-9.0342-4.8428l-3.2568 15.604h-8.1279zm4.8994 17.247q0 3.5117 1.6992 5.4658 1.7275 1.9258 4.0498 1.9258 2.0107 0 3.8799-1.4443 1.8691-1.4727 3.0869-4.8428 1.2461-3.3984 1.2461-6.2871 0-3.3701-1.6143-5.1543-1.6143-1.8125-4.1064-1.8125-2.3223 0-4.248 1.6709-1.8975 1.6426-2.9453 4.8711-1.0479 3.2002-1.0479 5.6074z" fill="#23439c"/>
    <path d="m383.14 82.511q0-8.3545 4.7012-13.311 4.7295-4.9844 12.404-4.9844 6.6553 0 10.394 3.6816 3.7383 3.6533 3.7383 9.8555 0 7.3066-4.6728 12.631t-12.518 5.3242q-4.248 0-7.5332-1.6992t-4.8994-4.8145q-1.6143-3.1152-1.6143-6.6836zm23.166-5.8057q0-2.8887-1.6992-4.6162-1.6709-1.7559-4.333-1.7559-2.6338 0-4.6728 1.6426-2.0391 1.6143-3.1719 4.7295-1.1328 3.0869-1.1328 5.6924 0 3.2285 1.7559 5.126 1.7559 1.8975 4.418 1.8975 3.3418 0 5.6074-2.8604 3.2285-4.0498 3.2285-9.8555z" fill="#23439c"/>
    <path d="m423.21 64.924h7.5898l-1.2178 5.834q4.248-6.542 9.2041-6.542 1.7559 0 3.7666 0.87793l-3.1152 6.6553q-1.1045-0.39648-2.3506-0.39648-2.0957 0-4.2764 1.5859-2.1524 1.5859-3.3701 4.248-1.2178 2.6338-2.4072 8.3828l-1.9824 9.4307h-8.1279z" fill="#23439c"/>
   </g>
  </g>
 </g>
</svg>
