<svg width="634.431" height="481.814" viewBox="0 0 594.77 451.71" xmlns="http://www.w3.org/2000/svg">
    <g fill="#4144c5">
        <path d="M594.792 280.498v36.048h-78.855v-36.048h20.277v-109.27h-31.542v-33.795h73.223v143.065h16.897zM102.511 173.481h-4.505v43.934h4.505c14.645 0 31.543-2.253 31.543-22.53s-16.898-21.404-31.543-21.404z"/>
        <path d="M0 0v451.727h451.727V0H0zm141.939 314.293l-43.934-67.59v67.59H51.82v-176.86h68.716c34.922 0 61.958 16.898 61.958 54.072 0 24.783-13.518 45.06-38.301 49.566l55.199 72.096h-57.452zm189.252 0h-42.807v-13.518c-7.885 12.392-22.53 16.898-36.048 16.898-36.048 0-60.831-29.289-60.831-64.21s24.783-64.211 59.705-64.211c13.517 0 28.162 5.632 37.174 15.771v-11.265h42.807v120.535zm67.59 0h-42.807V194.885h42.807v119.41zm-21.403-141.939c-13.518 0-23.657-11.265-23.657-23.656s11.265-23.657 23.657-23.657c13.518 0 23.656 11.266 23.656 23.657s-10.138 23.657-23.656 23.657z"/>
        <path d="M262.475 227.553c-16.898 0-27.036 12.392-27.036 27.036 0 15.771 10.138 27.036 27.036 27.036s27.036-11.265 27.036-27.036c1.126-14.645-9.012-27.036-27.036-27.036z"/>
    </g>
</svg>
