<svg viewBox="0 0 2114.3 1078" xmlns="http://www.w3.org/2000/svg">
    <style>
        .st0{fill:#00b46e}
    </style>
    <path class="st0" d="M626.2 542.5c-41.7 0-65.9 29.9-65.9 65.4 0 36.6 24.2 64.8 65.9 64.8s65.9-28.2 65.9-64.8c0-35.6-24.2-65.4-65.9-65.4zM244.4 412H234v105h10.4c35.7 0 75.9-6.7 75.9-52.5S280.1 412 244.4 412z"/>
    <path class="st0" d="M0 0v1078h1078V0H0zm338.1 749L234.9 587h-.9v162H124V328h163.9c83.1 0 146.2 39.8 146.2 129.7 0 58-32.4 108.3-92.1 118.9L474.3 749H338.1zm452.9 3H689v-32h-1.4c-18 29-53.5 41.7-87.3 41.7-85.6 0-145.9-71.6-145.9-154.4s59.3-153.8 145-153.8c33.2 0 67.7 12.4 89.7 37.7V463h102l-.1 289zm161-1H850V465h102v286zm-51.1-339.1c-31.2 0-56.9-25.7-56.9-56.9s25.7-56.9 56.9-56.9 56.9 25.7 56.9 56.9-25.6 56.9-56.9 56.9zM1163.2 623.7h106.2v4.2c0 13.4 4 23.7 12 30.9s19.7 10.8 35.1 10.8c14 0 25.2-4 33.6-12.1s12.6-18.9 12.6-32.5c0-16-6-28-18.1-36-12-8-30.3-12-54.7-12h-21v-80.5l5 .6h5c22.5 0 39.4-4.3 50.6-13s16.9-21.7 16.9-39.1c0-13.4-3.2-24-9.5-31.7-5.9-7.7-14.3-11.5-25.2-11.5-9.9 0-18 3.3-24.3 9.8-5.7 6.3-8.6 15.2-8.6 26.6v6.8h-103v-1.5c0-38.9 12.5-70.1 37.4-93.7 25-23.6 58.3-35.4 100.2-35.4 38.5 0 69.7 11 93.7 33s36 50.6 36 86c0 20.7-5.2 38.6-15.7 53.6s-25.6 26.2-45.6 33.7c27 7.7 47.8 20.1 62.4 37.3s21.9 38 21.9 62.4c0 41.8-14 75.9-41.9 102.4-27.9 26.4-64.1 39.7-108.4 39.7-24.1 0-45.4-3-63.9-8.9s-34.6-15-48.1-27.2-23.7-26.8-30.5-44c-6.7-17.2-10.1-36.7-10.1-58.7zM1552 455.8h74.3v113.8h105.4V455.8h74.4V756h-74.4V630.9h-105.4V756H1552zM1965.2 693.4c48.7 0 73.9-30.7 73.9-85.6 0-54.6-26.4-89.8-73.1-89.8h-44.5v175.5l43.7-.1zm-117.9-237.6h128c83.2 0 139 60.1 139 152 0 52.9-18.5 95.3-52.1 120.9-23.5 17.7-53.7 27.3-91.5 27.3h-123.5l.1-300.2z"/>
</svg>
