<svg width="173.82mm" height="127.89mm" version="1.1" viewBox="0 0 615.89 453.17" xmlns="http://www.w3.org/2000/svg">
 <g transform="translate(-78.617 -287.15)" fill="#00b46e">
  <g transform="matrix(11.301,0,0,11.301,78.609,287.15)">
   <path d="m47.3 23.3v0.2c0 1 0.6 1.5 1.7 1.5s1.7-0.7 1.7-1.7c0-1.2-0.9-1.8-2.7-1.8h-0.8v-3h0.4c1.7 0 2.5-0.6 2.5-1.9 0-1-0.5-1.6-1.3-1.6s-1.2 0.5-1.2 1.3v0.2h-3.8c0-2.9 2-4.8 5.1-4.8 2.9 0 4.8 1.8 4.8 4.4 0 1.5-0.7 2.7-2.3 3.2 2 0.6 3.1 1.9 3.1 3.7 0 3.1-2.2 5.2-5.5 5.2-3.6 0-5.6-1.9-5.6-5.1h3.9z" fill="#00b46e"/>
   <path d="m9.1 15.4h-0.4v3.9h0.4c1.3 0 2.8-0.2 2.8-2 0-1.7-1.5-1.9-2.8-1.9z"/>
   <path d="m0 0v40.1h40.1v-40.1zm12.6 27.9-3.9-6v6h-4.1v-15.7h6.1c3.1 0 5.5 1.5 5.5 4.8 0 2.2-1.2 4-3.4 4.4l4.9 6.4h-5.1zm16.8 0h-3.8v-1.2c-0.7 1.1-2 1.5-3.2 1.5-3.2 0-5.4-2.6-5.4-5.7s2.2-5.7 5.4-5.7c1.2 0 2.5 0.5 3.3 1.4v-1h3.8v10.7zm6 0h-3.8v-10.6h3.8zm-1.9-12.6c-1.2 0-2.1-1-2.1-2.1 0-1.2 1-2.1 2.1-2.1s2.1 1 2.1 2.1-0.9 2.1-2.1 2.1z"/>
   <path d="m23.3 20.2c-1.5 0-2.4 1.1-2.4 2.4 0 1.4 0.9 2.4 2.4 2.4s2.4-1 2.4-2.4c0.1-1.3-0.8-2.4-2.4-2.4z"/>
   <path d="m11.907 33.712c-0.0055-0.8305-0.561-1.287-1.573-1.287-0.9625 0-1.518 0.451-1.518 1.232 0 0.6215 0.3135 0.924 1.1275 1.078l0.561 0.11c0.55 0.1045 0.7535 0.2585 0.7535 0.583 0 0.3355-0.308 0.539-0.8085 0.539-0.561 0-0.8745-0.2365-0.902-0.6655h-0.803c0.0495 0.858 0.638 1.3255 1.661 1.3255 1.034 0 1.6445-0.4785 1.6445-1.298 0-0.6325-0.319-0.9625-1.0615-1.1055l-0.627-0.121c-0.5885-0.1155-0.759-0.231-0.759-0.5225 0-0.3025 0.264-0.495 0.693-0.495 0.5225 0 0.814 0.22 0.8415 0.627zm3.6055 2.7885v-2.97h-0.77v1.859c0 0.352-0.242 0.583-0.6215 0.583-0.33 0-0.495-0.176-0.495-0.5335v-1.9085h-0.77v2.068c0 0.66 0.3575 1.0285 0.9955 1.0285 0.4015 0 0.671-0.143 0.891-0.4785v0.352zm-1.54-4.0865h-0.605v0.671h0.605zm1.023 0h-0.605v0.671h0.605zm3.4295 4.0865h0.77v-4.0095h-0.77v1.4245c-0.1925-0.297-0.4455-0.4345-0.8195-0.4345-0.7095 0-1.2485 0.682-1.2485 1.5785 0 0.4015 0.121 0.8085 0.319 1.0945 0.2035 0.2915 0.5665 0.473 0.9295 0.473 0.374 0 0.627-0.132 0.8195-0.429zm-0.649-2.376c0.3905 0 0.649 0.374 0.649 0.946 0 0.539-0.264 0.913-0.649 0.913s-0.649-0.3795-0.649-0.924c0-0.5555 0.264-0.935 0.649-0.935zm3.7375-0.5335h-0.429v-0.7975h-0.77v0.7975h-0.3795v0.5115h0.3795v1.826c0 0.4675 0.2475 0.6985 0.7535 0.6985 0.176 0 0.3025-0.0165 0.4455-0.0605v-0.539c-0.077 0.011-0.1155 0.0165-0.176 0.0165-0.2035 0-0.253-0.0605-0.253-0.3245v-1.617h0.429zm1.6035-0.0605h-0.77v2.97h0.77zm0-1.0395h-0.77v0.6875h0.77zm1.037 1.0395v2.97h0.77v-1.5785c0-0.451 0.2255-0.6765 0.6765-0.6765 0.0825 0 0.1375 0.0055 0.242 0.022v-0.781c-0.044-0.0055-0.0605-0.0055-0.0935-0.0055-0.352 0-0.6545 0.231-0.825 0.6325v-0.583zm3.743-0.0495c-0.9075 0-1.463 0.5995-1.463 1.573 0 0.979 0.5555 1.573 1.4685 1.573 0.9075 0 1.4685-0.594 1.4685-1.551 0-1.0065-0.5445-1.595-1.474-1.595zm0.0055 0.6215c0.4235 0 0.6985 0.3795 0.6985 0.9625 0 0.5555-0.286 0.9405-0.6985 0.9405-0.418 0-0.6985-0.3795-0.6985-0.9515s0.2805-0.9515 0.6985-0.9515zm3.138-1.6115h-0.77v4.0095h0.77z" fill="#001a0d" aria-label="Südtirol"/>
  </g>
 </g>
</svg>
