<svg width="600" height="216.75" version="1.1" viewBox="0 0 158.75 57.347402" xmlns="http://www.w3.org/2000/svg">
 <g transform="translate(-44.262 -115.7)" fill="#7f0842" stroke-width="1.2206">
  <path d="m44.262 115.7v57.347h57.346v-57.347zm47.928 15.856c1.6624 0 3.0278 1.3654 3.0278 3.0278 0 1.6622-1.3654 3.0278-3.0278 3.0278-1.6622 0-3.0278-1.3654-3.0278-3.0278 0-1.6624 1.3654-3.0278 3.0278-3.0278zm-41.33 1.5927h8.7192c4.4229 0 7.7775 2.119 7.7775 6.8981 0 3.0872-1.7218 5.7595-4.898 6.3236l7.0351 9.174h-7.2426l-5.4916-8.6176h-0.04793v8.6176h-5.8517zm5.8517 4.4684v5.5856h0.55256c1.8998 0 4.037-0.35897 4.037-2.793 0-2.4342-2.1372-2.7924-4.037-2.7924zm19.431 2.204c1.7686 0 3.6034 0.65882 4.7737 2.0078v-1.4987h5.4259v15.374h-5.4259v-1.7024h-0.07506c-0.9592 1.5427-2.8477 2.2171-4.6463 2.2171-4.5563 0-7.7635-3.8075-7.7635-8.214 0-4.4064 3.1548-8.1837 7.7112-8.1837zm13.338 0.61564h5.4259v15.214h-5.4259zm-11.907 4.1202c-2.2182 0-3.5071 1.5883-3.5071 3.4768 0 1.9484 1.2889 3.4472 3.5071 3.4472s3.5071-1.4988 3.5071-3.4472c0-1.8886-1.2889-3.4768-3.5071-3.4768z"/>
  <path d="m114.77 139.04v12.215h1.9362v4.738h-9.2242v-4.738h2.2195v-13.474h-2.2195v-4.7066h10.153l4.1556 14.954 4.2186-14.954h9.9956v4.7066h-2.2195v13.474h2.2195v4.738h-9.2557v-4.738h1.9676v-11.995l-5.1789 16.732h-3.526z"/>
  <path d="m145.96 137.8c-1.2804 0-2.5054 0.23599-3.6756 0.70774-1.1702 0.47176-2.194 1.1402-3.07 2.0052-0.87637 0.86499-1.5448 1.8562-2.0065 2.9728-0.46191 1.1167-0.6926 2.325-0.6926 3.625 0 1.2791 0.23314 2.4873 0.70016 3.625 0.46687 1.1377 1.1435 2.1363 2.0305 2.9961 0.88664 0.85994 1.8997 1.5177 3.0385 1.9737 1.1386 0.45569 2.3636 0.6844 3.6755 0.6844 0.66114 0 1.2904-0.0577 1.8886-0.17284 0.59821-0.1156 1.1857-0.28359 1.7631-0.50399 1.1542-0.4717 2.1772-1.1396 3.0694-2.0046 0.89185-0.86503 1.564-1.8562 2.0154-2.9728 0.45112-1.1166 0.67683-2.325 0.67683-3.625 0-1.3002-0.23403-2.5136-0.70079-3.6409-0.46707-1.1272-1.1386-2.1236-2.0148-2.9886-0.87638-0.86504-1.8866-1.5281-3.0302-1.9895-1.144-0.46137-2.3662-0.69196-3.6674-0.69196zm0 4.8954c1.1437 0 2.114 0.42979 2.9117 1.2887 0.79739 0.85887 1.1966 1.9011 1.1966 3.1268 0 1.2047-0.40438 2.234-1.2124 3.0877-0.80818 0.85372-1.7732 1.2804-2.8959 1.2804-1.1333 0-2.1044-0.42975-2.9123-1.2887-0.80818-0.85888-1.2124-1.8851-1.2124-3.0794 0-1.2256 0.40659-2.2679 1.2199-3.1268 0.81308-0.85888 1.7818-1.2887 2.9047-1.2887z"/>
  <path d="m166.94 142.94h-1.3852v-4.6436h8.0594v4.6436h-1.5111l-4.9584 13.05h-5.1316l-4.8954-13.05h-1.5899v-4.6436h8.2325v4.6436h-1.3852l2.251 6.9261z"/>
  <path d="m176.83 151.32v-8.3742h-2.1565v-4.6436h7.1464v13.018h2.2352v4.6751h-9.4446v-4.6751z"/>
  <path d="m176.83 137.32v-4.2501h4.9899v4.2501z"/>
  <path d="m193.6 137.8c-1.2804 0-2.5055 0.23597-3.6755 0.70774-1.1702 0.47176-2.1933 1.1402-3.0694 2.0052-0.87638 0.86499-1.5454 1.8562-2.0071 2.9728-0.46191 1.1167-0.69259 2.3249-0.69259 3.625 0 0.67091 0.0573 1.3025 0.17283 1.8949 0.11535 0.59252 0.2836 1.1664 0.50399 1.7221 0.47224 1.1117 1.149 2.1081 2.0305 2.9886 0.47224 0.47197 0.95203 0.86734 1.4401 1.1871 0.48793 0.31976 1.0153 0.59503 1.5819 0.82569 1.1227 0.44025 2.3615 0.66105 3.7152 0.66105 1.9728 0 3.7307-0.497 5.2734-1.4911 1.5426-0.99409 2.6968-2.3862 3.4629-4.1758h-6.092c-0.39894 0.35121-0.81608 0.60448-1.2515 0.75945-0.43558 0.15491-0.89962 0.23213-1.3927 0.23213-0.93409 0-1.7472-0.23684-2.4398-0.71152s-1.1439-1.103-1.3537-1.8854h13.048c0.0419-0.23071 0.0713-0.43296 0.087-0.60617 0.0162-0.17311 0.0233-0.32256 0.0233-0.44848l0.0474-0.9449c0-1.0075-0.12599-1.9413-0.37783-2.802-0.25189-0.86035-0.62977-1.6578-1.1335-2.3925-0.87116-1.3011-2.0072-2.3137-3.4081-3.0378s-2.8987-1.0862-4.4936-1.0862zm0 4.5491c1.0178 0 1.8704 0.25742 2.5578 0.77146 0.68721 0.51431 1.1567 1.2537 1.4085 2.2191h-7.886c0.28333-0.94447 0.76836-1.6785 1.4558-2.2034 0.68715-0.52463 1.5087-0.78722 2.4638-0.78722z"/>
 </g>
</svg>
