<svg width="600" height="177.57" viewBox="0 0 158.75 46.982" xmlns="http://www.w3.org/2000/svg">
    <g fill="#7f0842">
        <path d="M0 0v46.982h46.981V0zm39.265 12.99a2.49 2.49 0 0 1 2.48 2.48 2.49 2.49 0 0 1-2.48 2.481 2.49 2.49 0 0 1-2.48-2.48 2.49 2.49 0 0 1 2.48-2.481zm-33.86 1.305h7.143c3.624 0 6.372 1.736 6.372 5.651 0 2.53-1.41 4.719-4.013 5.18l5.764 7.516h-5.934l-4.499-7.06h-.04v7.06H5.406zm4.794 3.66v4.577h.453c1.556 0 3.307-.294 3.307-2.289 0-1.994-1.75-2.287-3.307-2.287zm15.919 1.806c1.449 0 2.952.54 3.91 1.645v-1.228h4.446v12.595H30.03V31.38h-.062c-.785 1.264-2.333 1.816-3.806 1.816-3.733 0-6.36-3.12-6.36-6.73s2.584-6.704 6.317-6.704zm10.927.505h4.445V32.73h-4.445zM27.29 23.64c-1.817 0-2.873 1.301-2.873 2.848 0 1.597 1.056 2.825 2.873 2.825s2.873-1.228 2.873-2.825c0-1.547-1.056-2.848-2.873-2.848zM57.772 19.12v10.007h1.586v3.882h-7.557v-3.882h1.818V18.088h-1.818v-3.856h8.318l3.404 12.251 3.457-12.25h8.188v3.855H73.35v11.039h1.819v3.882h-7.583v-3.882h1.612V19.3l-4.243 13.708h-2.889zM83.322 18.11a7.978 7.978 0 0 0-3.011.58 7.566 7.566 0 0 0-2.515 1.643 7.324 7.324 0 0 0-1.644 2.435 7.693 7.693 0 0 0-.568 2.97c0 1.048.191 2.038.574 2.97a7.18 7.18 0 0 0 1.664 2.454 7.603 7.603 0 0 0 2.489 1.617c.933.374 1.936.561 3.011.561a8.174 8.174 0 0 0 2.992-.554 7.838 7.838 0 0 0 2.514-1.643 7.042 7.042 0 0 0 1.651-2.435c.37-.915.555-1.905.555-2.97 0-1.065-.192-2.06-.574-2.983a7.378 7.378 0 0 0-1.65-2.448 7.487 7.487 0 0 0-2.483-1.63 7.955 7.955 0 0 0-3.005-.567zm0 4.01c.937 0 1.732.353 2.385 1.056.654.704.98 1.558.98 2.562 0 .987-.33 1.83-.993 2.53-.662.699-1.452 1.049-2.372 1.049-.928 0-1.724-.352-2.386-1.056-.662-.704-.993-1.545-.993-2.523 0-1.004.333-1.858 1-2.562.665-.703 1.459-1.055 2.379-1.055zM100.502 22.32h-1.135v-3.804h6.603v3.804h-1.238l-4.062 10.691h-4.204L92.455 22.32h-1.302v-3.804h6.744v3.804h-1.135l1.844 5.674zM108.602 29.18v-6.86h-1.767v-3.805h5.855V29.18h1.831v3.83h-7.737v-3.83zM108.602 17.71v-3.482h4.088v3.482zM122.342 18.11a7.977 7.977 0 0 0-3.011.58 7.564 7.564 0 0 0-2.515 1.643 7.326 7.326 0 0 0-1.644 2.435 7.692 7.692 0 0 0-.568 2.97c0 .55.047 1.067.142 1.552.095.486.232.956.413 1.411a7.68 7.68 0 0 0 1.663 2.449c.387.386.78.71 1.18.972.4.262.832.488 1.296.677.92.36 1.935.541 3.044.541 1.616 0 3.056-.407 4.32-1.222 1.264-.814 2.21-1.954 2.837-3.42h-4.99a3.16 3.16 0 0 1-1.026.622 3.38 3.38 0 0 1-1.141.19c-.765 0-1.431-.194-1.999-.583a2.661 2.661 0 0 1-1.109-1.545h10.69c.034-.189.059-.354.071-.496.014-.142.02-.265.02-.368l.038-.774c0-.825-.103-1.59-.31-2.295a6.845 6.845 0 0 0-.928-1.96 7.388 7.388 0 0 0-2.792-2.49 7.904 7.904 0 0 0-3.681-.889zm0 3.727c.834 0 1.532.21 2.095.632.563.421.948 1.027 1.154 1.818h-6.46c.232-.774.63-1.375 1.192-1.805.563-.43 1.236-.645 2.019-.645zM138.124 27.648h4.49v5.36h3.355V20.022h-3.356v4.75h-4.489v-4.75h-3.399V33.01h3.4zM146.752 20.02v12.988h5.615c3.955 0 6.38-2.283 6.38-6.548 0-4.029-2.388-6.44-6.38-6.44zm3.4 2.92h1.613c2.315 0 3.591 1.131 3.591 3.5 0 2.608-1.02 3.604-3.59 3.648h-1.615z"/>
    </g>
</svg>
