<svg width="600" height="182.83" version="1.1" viewBox="0 0 158.75 48.372538" xmlns="http://www.w3.org/2000/svg">
 <g transform="translate(-42.281 -261.36)" fill="#595959">
  <path d="m159.94 281.55c1.8719-0.22224 3.7967 0.0559 5.5397 0.76993-0.52254 0.99946-1.055 1.9936-1.5742 2.9934-0.91614-0.45972-1.9546-0.76498-2.9864-0.62706-0.3208 0.0473-0.67467 0.18354-0.83012 0.4898-0.12571 0.25863-0.14883 0.60456 0.0529 0.83475 0.16204 0.19016 0.39688 0.31221 0.63499 0.38464 0.76396 0.22456 1.5643 0.31518 2.3184 0.57678 0.68459 0.22852 1.3526 0.5695 1.8422 1.1122 0.51593 0.55264 0.82352 1.2816 0.89962 2.0297 0.0959 0.969-0.0661 1.982-0.56887 2.8284-0.59198 1.0054-1.5875 1.7363-2.6789 2.1266-0.89627 0.3208-1.852 0.4498-2.798 0.46303-1.9248 0.0496-3.8265-0.53248-5.4668-1.5074 0.56223-1.0924 1.1277-2.1845 1.69-3.2762 0.90949 0.59365 1.9149 1.0861 2.9997 1.2574 0.44647 0.0652 0.90284 0.0863 1.3493-4e-3 0.30428-0.0632 0.61846-0.22158 0.75076-0.5166 0.13228-0.30459 0.12234-0.68956-0.0893-0.95613-0.17528-0.2239-0.44647-0.34297-0.71105-0.42697-0.75405-0.23879-1.5379-0.36115-2.3019-0.57315-0.76729-0.19149-1.5048-0.5824-2.0075-1.2009-0.46302-0.56322-0.65152-1.302-0.66806-2.0191-0.0331-0.8589 0.17198-1.733 0.63168-2.4656 0.38364-0.62442 0.91939-1.1615 1.5577-1.5316 0.73422-0.43194 1.571-0.66212 2.4143-0.76265z"/>
  <path d="m42.281 261.36v48.373h47.975v-48.372c-15.993-8.9e-4 -31.984-6.6e-4 -47.975-6.6e-4zm41.228 13.474c0.48756 0.0104 0.97132 0.16108 1.3756 0.43667 0.62176 0.4134 1.0486 1.1019 1.1412 1.8418 0.0959 0.71007-0.12297 1.4538-0.58267 2.0025-0.46302 0.5639-1.1739 0.92345-1.9047 0.94233-0.65153 0.0258-1.306-0.21775-1.7889-0.65233-0.55231-0.48452-0.88272-1.2084-0.88272-1.9422-0.0066-0.70311 0.28692-1.3995 0.78962-1.8893 0.37041-0.36513 0.85364-0.61625 1.3663-0.70322 0.1604-0.0277 0.32371-0.0398 0.48623-0.0362zm-36.565 1.4841h6.7711c0.56025 9e-4 1.1198-4e-3 1.6784 0.0495 1.4605 0.13032 2.9534 0.59963 4.0345 1.6288 0.90787 0.84995 1.4206 2.0604 1.5625 3.2831 0.13692 1.1185 0.04974 2.2766-0.36367 3.3313-0.36313 0.93925-1.0034 1.7865-1.8438 2.3481-0.57546 0.39193-1.2368 0.6379-1.9181 0.76887 1.9986 2.6438 4.0086 5.2707 6.0109 7.9103-2.0667 4e-3 -4.1347 0-6.2011 0-1.5455-2.4434-3.0934-4.8856-4.6373-7.3316-0.02877-0.0456-0.06416-0.0851-0.10783-0.11586-0.01063 2.4825 0.0034 4.9671 0 7.4482-1.6599 4e-3 -3.3259 4e-3 -4.9855 0zm4.9855 3.845v4.8201c0.67997 4e-3 1.3663 0.0104 2.0333-0.14064 0.46798-0.10614 0.938-0.29189 1.2899-0.62887 0.35817-0.33307 0.54876-0.80906 0.5954-1.2892 0.05688-0.57679-0.01455-1.205-0.34692-1.6951-0.28939-0.43126-0.75994-0.698-1.2491-0.84319-0.75273-0.22588-1.5445-0.22666-2.3227-0.22302zm17.798 1.8974c0.36138 9e-3 0.72171 0.0491 1.0769 0.11781 1.0868 0.2173 2.1398 0.7378 2.8605 1.596v-1.2819c1.5409-1e-3 3.0813 9.1e-4 4.6225 0v13.146h-4.6225c-4e-3 -0.4928 2.56e-4 -0.98898-8e-3 -1.4801-0.1098 0.0725-0.15807 0.19947-0.23976 0.29604-0.57414 0.74743-1.4365 1.2237-2.3401 1.4486-1.7304 0.42002-3.6364 0.0526-5.0847-0.98585-1.2244-0.86384-2.1138-2.1671-2.5544-3.5945-0.62176-1.9992-0.4006-4.2571 0.66103-6.0685 0.67237-1.1543 1.7004-2.1148 2.9268-2.6542 0.73454-0.32873 1.5354-0.50804 2.3401-0.53713 0.12063-4e-3 0.24119-5e-3 0.36166-1e-3zm11.411 0.43533c1.5411-6.8e-4 3.082-6.8e-4 4.6199 0v13.142c-1.5379 4e-3 -3.0786 4e-3 -4.6199 0zm-10.408 3.6186c-0.10054 3e-3 -0.19782 5e-3 -0.29736 0.0161-0.8417 0.082-1.6545 0.54487-2.1003 1.2732-0.47525 0.7537-0.56818 1.7085-0.34692 2.5631 0.16669 0.6459 0.56695 1.2281 1.1325 1.5873 0.68592 0.44218 1.5446 0.54595 2.3401 0.42193 0.66575-0.10653 1.3053-0.43429 1.7279-0.96777 0.54371-0.672 0.71545-1.5874 0.59473-2.4305-0.10187-0.72794-0.46915-1.4288-1.0575-1.8773-0.56124-0.43523-1.288-0.60751-1.9925-0.58602z"/>
  <path d="m174.33 275.34c1.1179-0.26459 2.2853-0.31617 3.4263-0.16967 1.0186 0.13526 2.0141 0.47725 2.8839 1.0316 1.2567 0.804 2.2853 1.9972 2.788 3.4091 0.39356 1.0983 0.48285 2.2919 0.34725 3.4465-0.11249 0.91516-0.40679 1.8084-0.87312 2.6034-0.46632 0.81456-1.0946 1.524-1.766 2.1735-1.141 1.0574-2.282 2.117-3.4197 3.1753 2.1067-1e-3 4.2101-6.7e-4 6.3168-6.7e-4v4.2756c-5.1229 0-10.245 0-15.369-4e-3 6e-3 -0.0761-0.0198-0.17198 0.0496-0.22488 1.5677-1.6328 3.132-3.2636 4.6995-4.8951 0.65815-0.70806 1.3428-1.394 1.9579-2.1404 1.0517-1.2746 2.0836-2.5962 2.7616-4.1152 0.35718-0.81195 0.62176-1.7195 0.43655-2.6095-0.12234-0.58308-0.46632-1.1106-0.92934-1.4797-0.85328-0.68626-2.282-0.52453-2.9038 0.39356-0.4663 0.67831-0.506 1.5677-0.34395 2.3511-1.8487 6.8e-4 -3.6975 0-5.5495 0-6e-3 -1.4542 0.30426-2.9441 1.098-4.1797 0.98885-1.5399 2.616-2.6253 4.3887-3.0417z"/>
  <path d="m192.3 275.07v6.8e-4c-2.3911 4.1608-4.7656 8.3332-7.1535 12.497v6.7e-4c-0.0463 0.0863-0.1191 0.1691-0.10588 0.27593v3.2797c3.0493 9e-4 6.0984-3.9e-4 9.148 6.7e-4v4.1457c1.5147 4e-3 3.0322-1.2e-4 4.5469 3e-3v-4.149c0.76398-5.2e-4 1.5319 6.7e-4 2.2959 0v-4.0271c-0.76399-6.6e-4 -1.5319 1.5e-4 -2.2959-1e-3v-12.021c-2.1464-3e-3 -4.2892 5e-3 -6.4355-4e-3zm1.888 4.2676v7.7582c-1.4773 9e-4 -2.9544 1.6e-4 -4.435 6.8e-4 1.4783-2.5869 2.9566-5.1734 4.435-7.7589z"/>
  <path d="m93.11 275.78c1.7429 6.5e-4 3.4859-1e-3 5.2287 9e-4 3.2014 4.059 6.4062 8.1159 9.6109 12.174v-12.174c1.7429-6.7e-4 3.4826-6.7e-4 5.2255 0v19.905c-1.7429 0-3.4826-4e-3 -5.2255 0-3.2047-4.064-6.4094-8.1275-9.6145-12.191v12.191c-1.7429 0-3.4825-4e-3 -5.2255 0z"/>
  <path d="m121.86 281.25c-0.39071-6e-3 -0.78193 9e-3 -1.1714 0.0395-1.1543 0.10148-2.3116 0.41027-3.3072 1.0314-1.4221 0.88602-2.4374 2.376-2.831 4.0124-0.29435 1.2276-0.3272 2.5228-0.0924 3.7639 0.30096 1.5716 1.1872 3.0189 2.4506 3.9843 0.64162 0.49244 1.3759 0.85281 2.1432 1.0843 1.0682 0.32741 2.1926 0.42621 3.3038 0.39313 1.1178-0.0396 2.2422-0.25137 3.2509-0.75077 0.64824-0.32079 1.2472-0.75343 1.7433-1.2866 0.66144-0.72496 1.0845-1.6416 1.3656-2.5798-1.5081 0-3.02-1e-3 -4.5281 0-0.26458 0.42828-0.63129 0.80372-1.0876 1.0214-0.53909 0.26491-1.1573 0.28776-1.7427 0.21699-0.45308-0.0542-0.91015-0.19122-1.2872-0.45944-0.32742-0.22886-0.57801-0.55844-0.74007-0.92692-0.21827-0.5007-0.28133-1.0553-0.28464-1.5987 3.2841-5.3e-4 6.5713 0 9.8552-6.7e-4 0.0104-0.78944-6e-3 -1.5843-0.15872-2.3608-0.29104-1.5679-1.0682-3.0746-2.2985-4.0934-0.76397-0.63368-1.687-1.0508-2.6461-1.2678-0.63664-0.1455-1.2856-0.21253-1.9369-0.22234zm0.13796 3.0038c0.62348 0.0188 1.2394 0.20364 1.7038 0.63424 0.44649 0.41472 0.69422 1.0012 0.82981 1.59-1.7859 6.5e-4 -3.5713 6.5e-4 -5.3572 0 0.0695-0.40977 0.20123-0.81438 0.43935-1.158 0.33073-0.48881 0.85698-0.82951 1.4225-0.97045h-3e-3c0.22551-0.0509 0.46019-0.0833 0.6972-0.0937 0.0888-4e-3 0.17839-5e-3 0.26723-3e-3z"/>
  <path d="m128.73 281.44c1.7495-6.6e-4 3.4991-6.6e-4 5.2486 0 1.0649 2.4748 2.1166 4.9569 3.1915 7.4278 1.1112-2.4762 2.2258-4.9522 3.337-7.4278 0.98886 1e-3 1.9744-4e-3 2.96 3e-3 1.1046 2.5502 2.2158 5.0978 3.3238 7.6466 1.1145-2.5489 2.2324-5.0958 3.3404-7.6456 1.7463-9e-3 3.4924-1e-3 5.2419-4e-3 -2.3216 4.7032-4.6533 9.3987-6.9651 14.104-1.0484 0.0166-2.1001 4e-3 -3.1518 0.0104-1.108-2.5806-2.2158-5.161-3.3271-7.7409-1.0649 2.5794-2.1233 5.1613-3.1882 7.7409-1.055-4e-3 -2.1134 0-3.1683-4e-3 -2.282-4.7036-4.564-9.4069-6.8427-14.112z"/>
 </g>
</svg>
