<svg width="600" height="168.25" version="1.1" viewBox="0 0 158.75 44.516192" xmlns="http://www.w3.org/2000/svg">
 <g transform="translate(-26.458 -217.29)" fill="#135f7e">
  <path d="m76.415 230.83v3.6643h1.6652v10.325h-1.6652v3.6622h7.6604v-3.6622h-1.6652v-1.9991h1.2207c2.3313 0 3.885-0.22112 5.1062-1.3313 1.3322-1.2212 1.9991-2.7767 1.9991-4.6639 0-2.2202-0.77664-3.8855-2.3309-4.9956-1.1101-0.88813-2.5533-0.99957-4.4405-0.99957zm6.1058 3.9982h1.1102c1.8872 0 2.7753 0.55376 2.7753 1.997 0 1.5542-1.1105 2.2205-3.2198 2.2205h-0.66566z"/>
  <path d="m93.4 238.49h-1.5542v-3.5525h5.2177v1.9982c0.7771-1.5542 1.9983-2.1092 3.6635-2.2202v3.7745c-2.5533 0.11119-3.5525 1.2212-3.5525 3.6635v2.7753h1.5542v3.5525h-7.1049v-3.5525h1.7762z"/>
  <path d="m108.05 234.39c-1.9983 0-3.8846 0.77752-5.2168 2.1097-1.4431 1.3322-2.1097 3.108-2.1097 5.1062s0.66655 3.774 2.1097 5.1062c1.4432 1.4432 3.1075 2.1097 5.2168 2.1097 2.9974 0 5.5507-1.5542 6.6608-4.4406h-4.6617c-0.55511 0.55507-1.222 0.77623-1.9991 0.77623-1.4432 0-2.5529-0.77581-2.8859-1.997h10.102c0.11119-0.55507 0.11077-1.1106 0.11077-1.5546 0-1.5542-0.44362-2.7749-1.2207-3.9961-1.3322-1.9982-3.5524-3.2198-6.1058-3.2198zm0 3.5516c1.6652 0 2.6652 0.88766 3.1092 2.3308h-6.1058c0.44404-1.4432 1.5533-2.3308 2.9965-2.3308z"/>
  <path d="m117.6 238.49h-1.6652v-3.5525h5.2176v1.9982c0.99915-1.5542 2.2203-2.3313 3.9965-2.3313 1.6652 0 2.8864 0.88812 3.5525 2.5533 1.1101-1.6652 2.3313-2.4423 3.9965-2.4423 2.7754 0 4.3295 1.7762 4.3295 5.2176v4.9956h0.7771v3.5525h-4.6626v-7.549c0-1.8872-0.44404-2.7753-1.8872-2.7753-1.2211 0-2.1093 0.9991-2.1093 2.7753v3.8855h1.6652v3.5524h-5.4397v-7.5489c0-1.8873-0.44404-2.7754-1.8872-2.7754-1.2212 0-2.1093 0.9991-2.1093 2.7754v3.8855h1.5542v3.5524h-7.1049v-3.5524h1.7762z"/>
  <path d="m140.8 238.49h-1.6652v-3.5525h5.5507v9.9913h1.6652v3.5525h-7.3269v-3.5525h1.6652v-6.4388z"/>
  <path d="m140.8 230.83h3.8855v3.3304h-3.8855z"/>
  <path d="m160.12 244.93h0.66609v3.5525h-4.3296v-1.7762c-0.88808 1.3322-2.2202 1.9982-3.9965 1.9982-2.9974 0-4.7736-1.7762-4.7736-5.2176v-5.1067h-1.6652v-3.5524h5.6617v7.5489c0 1.8872 0.55511 2.7754 2.1093 2.7754 1.4432 0 2.3313-0.99911 2.3313-2.7754v-3.8855h-1.5542v-3.5525h5.4397v9.9913z"/>
  <path d="m164 238.49h-1.6652v-3.5525h5.2177v1.9982c0.9991-1.5542 2.2202-2.3313 3.9965-2.3313 1.6652 0 2.8863 0.88812 3.5524 2.5533 1.1102-1.6652 2.3313-2.4423 3.9965-2.4423 2.7754 0 4.3296 1.7762 4.3296 5.2176v4.9956h1.7762v3.5525h-5.5507v-7.549c0-1.8872-0.44404-2.7753-1.8872-2.7753-1.2212 0-2.1093 0.9991-2.1093 2.7753v3.8855h1.7762v3.5524h-5.4397v-7.5489c0-1.8873-0.44404-2.7754-1.8872-2.7754-1.2211 0-2.1093 0.9991-2.1093 2.7754v3.8855h1.5542v3.5524h-7.1049v-3.5524h1.7762v-6.2168z"/>
  <path d="m26.458 217.29v44.516h44.516v-44.516zm37.19 12.322c1.3322 0 2.3309 1.1097 2.3309 2.3308 0 1.2212-0.99869 2.333-2.3309 2.333s-2.3309-1.1118-2.3309-2.333c0-1.3322 1.1097-2.3308 2.3309-2.3308zm-32.083 1.2207h6.7714c3.4414 0 6.1058 1.6661 6.1058 5.3296 0 2.4423-1.3304 4.441-3.7727 4.885l5.438 7.1053h-5.6613v0.11076l-4.33-6.6608v6.6608h-4.5511zm4.5511 3.5538v4.3299h0.44449c1.4432 0 3.1093-0.22196 3.1093-2.2202 0-1.8872-1.6661-2.1097-3.1093-2.1097zm15.21 1.5546c1.3322 0 2.774 0.55335 3.6622 1.5524v-1.1101h4.2194v11.88h-4.33v-1.3335c-0.7771 1.2212-2.2194 1.6652-3.5516 1.6652-3.5524 0-5.9952-2.8855-5.9952-6.3269s2.4427-6.3269 5.9952-6.3269zm10.212 0.55507h4.2194v11.767h-4.2194zm-9.2129 3.2177c-1.6652 0-2.6648 1.2216-2.6648 2.6648 0 1.5542 0.99956 2.6648 2.6648 2.6648s2.6626-1.1106 2.6626-2.6648c0.11102-1.4432-0.88638-2.6648-2.6626-2.6648z"/>
 </g>
</svg>
