<svg width="600" height="143.87" version="1.1" viewBox="0 0 158.75 38.065273" xmlns="http://www.w3.org/2000/svg">
 <g transform="translate(-274.03 -129.8)" fill="#800000">
  <path d="m274.03 129.8v38.065h38.062v-38.065zm32.411 10.24c1.131 0 2.0595 0.92863 2.0595 2.0595 0 1.1303-0.9285 2.0595-2.0595 2.0595-1.1303 0-2.0589-0.92915-2.0589-2.0595 0-1.1309 0.92854-2.0595 2.0589-2.0595zm-28.603 1.1727h5.9148c3.0087 0 5.2899 1.4328 5.2899 4.6837 0 2.0994-1.1713 3.9164-3.3315 4.3002l4.7842 6.2368h-4.9257l-3.7343-5.8534h-0.0409v5.8552h-3.9564zm3.9552 3.0263v3.7957h0.38408c1.2923 0 2.7458-0.24264 2.7458-1.8981 0-1.6555-1.4535-1.8975-2.7458-1.8975zm13.809 1.4972c1.1906 0 2.4421 0.44404 3.2093 1.3521v-1.0108h3.6747v10.359h-3.6753v-1.1511h-0.0397c-0.64647 1.0294-1.9183 1.4942-3.1293 1.4942-3.069 0-5.2297-2.5645-5.2297-5.5319 0-2.9681 2.1208-5.5114 5.19-5.5114zm9.0025 0.34134h3.6741v10.356h-3.6741zm-8.0345 2.8487c-1.4936 0-2.3617 1.0699-2.3617 2.3418 0 1.3119 0.86814 2.3214 2.3617 2.3214 1.4942 0 2.3623-1.0094 2.3623-2.3214 0-1.2719-0.86811-2.3418-2.3623-2.3418z"/>
  <path d="m315.42 141.21-6.1e-4 15.223h3.957v-5.0479h2.2413c3.4521 0 5.3898-1.5753 5.3898-5.1689 0-3.4919-2.2601-5.0063-5.5313-5.0063zm3.9564 3.1901h0.66643c1.5342 0 2.8469 0.0202 2.8469 1.9379 0 1.8574-1.4137 1.8572-2.8469 1.8572h-0.66643z"/>
  <path d="m332.76 145.74c-3.0686 0-5.1888 2.5433-5.1888 5.5114 0 2.9674 2.1606 5.5319 5.2297 5.5319 1.211 0 2.4828-0.46482 3.1286-1.4942h0.0403v1.1511h3.6747v-10.359h-3.6741v1.0108c-0.76718-0.90808-2.0192-1.3521-3.2105-1.3521zm0.96924 3.1901c1.4942 0 2.3623 1.0699 2.3623 2.3418 0 1.3119-0.86807 2.3214-2.3623 2.3214-1.4936 0-2.3623-1.0094-2.3623-2.3214 0-1.2719 0.86875-2.3418 2.3623-2.3418z"/>
  <path d="m345.4 147.77h0.0394c0.70742-1.2718 1.9184-1.8371 3.3522-1.8371h0.70613v3.5331c-0.50483-0.28258-0.98871-0.34354-1.5545-0.34354-2.039 0-2.5432 1.3532-2.5432 3.1294v4.1798h-3.6771v-10.356h3.6749"/>
  <path d="m350.51 156.43h3.6743v-16.757h-3.6743z"/>
  <path d="m360.68 145.74c-3.0685 0-5.1888 2.5433-5.1888 5.5114 0 2.9674 2.16 5.5319 5.2291 5.5319 1.2116 0 2.4828-0.46482 3.1287-1.4942h0.0409v1.1511h3.6741l6.2e-4 -10.359h-3.6747v1.0108c-0.7672-0.90808-2.0186-1.3521-3.2099-1.3521zm0.96864 3.1901c1.4942 0 2.3629 1.0699 2.3629 2.3418 0 1.3119-0.86871 2.3214-2.3629 2.3214-1.4936 0-2.3623-1.0094-2.3623-2.3214 0-1.2719 0.86875-2.3418 2.3623-2.3418z"/>
  <path d="m373.32 147.37h0.04c0.86808-1.1513 1.9387-1.6352 3.2702-1.6352 1.4942 0 2.7865 0.60516 3.5325 1.9781 0.70744-1.2923 2.1007-1.9781 3.5137-1.9781 2.6245 0 3.5332 1.716 3.5332 4.0978v6.6024h-3.6749v-4.947c0-1.07 0.0414-2.8265-1.5139-2.8265-1.6955 0-1.7565 1.5952-1.7565 2.8265v4.947h-3.6743v-4.947c0-1.1507 0-2.907-1.6352-2.907-1.6352 0-1.6352 1.7563-1.6352 2.907v4.947h-3.6771v-10.356h3.6749"/>
  <path d="m394.21 145.74c-3.3713 0-5.733 2.0792-5.733 5.5319 0 3.5726 2.5637 5.5108 5.996 5.5108 2.3616 0 4.6833-1.1095 5.2694-3.5531h-3.5332c-0.40389 0.68646-0.96918 0.94937-1.7573 0.94937-1.5132 0-2.3003-0.80795-2.3003-2.3015h7.7316l6.2e-4 -0.38409c0-3.5326-2.0804-5.7534-5.674-5.7534zm0.18241 2.3822c0.98871 0 1.8977 0.64575 2.0794 1.6345h-4.2604c0.2229-1.0694 1.1104-1.6345 2.1811-1.6345z"/>
  <path d="m404.87 147.41h0.0407c0.84774-1.2517 1.8771-1.6753 3.3109-1.6753 2.7852 0 3.8959 1.7558 3.8959 4.2997v6.4005h-3.6743v-5.0477c0-0.98872 0.16129-2.7255-1.6555-2.7255-1.4936 0-1.9178 1.1106-1.9178 2.4023v5.3711h-3.6771v-10.356h3.6743"/>
  <path d="m418.19 156.43h-3.6749v-7.3289h-1.1913v-3.0267h1.1913v-3.1093h3.6749v3.11h2.0784v3.0283h-2.0784"/>
  <path d="m426.54 145.74c-3.3313 0-6.2375 1.9987-6.2375 5.5319 0 3.5332 2.9272 5.5114 6.2375 5.5114 3.3306 0 6.2386-1.9989 6.2386-5.5114 0-3.5332-2.908-5.5319-6.2386-5.5319zm0 3.1901c1.4942 0 2.3623 1.0699 2.3623 2.3418 0 1.3119-0.86808 2.3214-2.3623 2.3214-1.4936 0-2.3617-1.0094-2.3617-2.3214 0-1.2719 0.86815-2.3418 2.3617-2.3418z"/>
 </g>
</svg>
