<svg enable-background="new 0 0 2849.393 1078" version="1.1" viewBox="0 0 2849.4 1078" xml:space="preserve" xmlns="http://www.w3.org/2000/svg">
<path d="m0 0v1078h1078v-1078h-1078zm338.13 749-103.23-162h-0.903v162h-110v-421h163.91c83.142 0 146.2 39.833 146.2 129.67 0 58.032-32.364 108.28-92.07 118.88l132.25 172.45h-136.15zm452.87 3h-102v-32h-1.409c-18.031 29-53.531 41.673-87.34 41.673-85.649 0-145.94-71.573-145.94-154.4 0-82.833 59.306-153.84 144.96-153.84 33.245 0 67.734 12.39 89.734 37.747v-28.177h102v289zm161-1h-102v-286h102v286zm-51.064-339.1c-31.248 0-56.916-25.668-56.916-56.916s25.668-56.915 56.916-56.915 56.916 25.668 56.916 56.915c0 31.248-25.667 56.916-56.916 56.916zm-208.84 195.92c0 36.626-24.23 64.801-65.928 64.801s-65.927-28.175-65.927-64.801c0-35.5 24.229-65.363 65.927-65.363s65.928 29.863 65.928 65.363zm-371.82-143.32c0 45.756-40.176 52.5-75.888 52.5h-10.389v-105h10.389c35.712 0 75.888 6.744 75.888 52.5z" fill="#076855"/>
<g fill="#076855">
	<path d="m1279.3 738.85v13.601h-81.893v-138.03h96.072c2.12 20.256 6.511 34.969 13.166 44.129 6.657 9.165 16.251 13.746 28.793 13.746 11.765 0 21.653-3.712 29.66-11.14 8.003-7.424 12.01-16.734 12.01-27.925 0-6.75-1.637-13.022-4.906-18.809s-8.075-10.608-14.419-14.469c-6.348-3.856-18.171-9.161-35.479-15.916-15.577-5.593-26.921-9.933-34.038-13.022-30.384-12.733-53.123-28.983-68.215-48.76-15.097-19.773-22.644-42.778-22.644-69.016 0-36.461 12.402-67.135 37.217-92.021 24.814-24.886 55.781-37.329 92.907-37.329 12.117 0 23.656 1.836 34.621 5.498 10.96 3.667 21.25 9.359 30.872 17.073v-11.864h77.552v120.38h-87.373c-2.306-14.274-7.018-25.271-14.13-32.989-7.112-7.714-15.957-11.575-26.528-11.575-9.996 0-18.502 3.233-25.518 9.694-7.018 6.466-10.526 14.518-10.526 24.163 0 7.718 1.583 14.423 4.757 20.112 3.174 5.692 7.98 10.178 14.423 13.456 6.439 3.282 19.755 8.586 39.947 15.916 19.036 6.366 32.98 11.964 41.824 16.784 25.384 13.506 44.514 29.661 57.4 48.47 12.881 18.81 19.325 40.368 19.325 64.676 0 37.619-13.071 70.078-39.211 97.374-26.143 27.301-57.54 40.947-94.191 40.947-12.542 0-24.552-1.931-36.027-5.787-11.48-3.859-23.294-9.646-35.448-17.365z"/>
	<path d="m1533.3 753.61v-239.89h-40.802v-85.365h40.802v-96.072h93.757v96.072h60.802v85.365h-60.802v153.95h51.252v85.944h-145.01z"/>
	<path d="m1687.9 590.55c0-23.901 4.241-46.115 12.732-66.642 8.486-20.527 20.785-38.745 36.896-54.646 16.105-15.902 34.914-28.192 56.427-36.864 21.509-8.672 44.031-13.013 67.569-13.013 23.919 0 46.394 4.241 67.424 12.723 21.025 8.482 39.595 20.672 55.705 36.574 16.105 15.902 28.453 34.214 37.04 54.936 8.581 20.722 12.877 43.031 12.877 66.932 0 23.9-4.151 46.118-12.443 66.646-8.297 20.527-20.645 38.745-37.04 54.647-16.4 15.902-35.209 28.187-56.428 36.859-10.612 4.051-21.414 7.131-32.41 9.256-10.996 2.115-22.571 3.178-34.725 3.178-24.117 0-46.639-4.196-67.569-12.574-20.934-8.383-39.549-20.478-55.848-36.285-16.305-15.807-28.748-34.164-37.33-55.08-8.586-20.917-12.877-43.131-12.877-66.647zm97.808 0c0 21.956 7.424 40.828 22.282 56.617 14.853 15.79 32.699 23.684 53.534 23.684 20.64 0 38.387-7.845 53.245-23.539 14.853-15.694 22.282-34.617 22.282-56.762 0-22.531-7.334-41.693-21.992-57.482-14.663-15.789-32.509-23.688-53.534-23.688-20.645 0-38.442 7.899-53.389 23.688-14.953 15.79-22.428 34.951-22.428 57.482z"/>
	<path d="m2086.5 667.66v-153.95h-37.329v-85.365h124.43v47.168c8.681-17.168 20.157-30.095 34.435-38.776 7.135-4.241 15.193-7.569 24.162-9.983 8.972-2.41 18.665-3.617 29.083-3.617v90.574c-14.469 0-27.011 1.976-37.619 5.923-10.612 3.947-19.487 9.581-26.622 16.897-12.927 13.863-19.388 35.72-19.388 65.561v65.566h37.329v85.944h-169.86v-85.944h41.381z"/>
	<path d="m2328.1 667.66v-153.95h-39.644v-85.365h131.38v239.31h41.091v85.944h-173.62v-85.944h40.801zm0-257.25v-78.131h91.731v78.131h-91.731z"/>
	<path d="m2720.9 717.44c-10.634 13.7-23.927 23.924-39.879 30.674s-34.373 10.128-55.252 10.128c-45.825 0-83.915-15.816-114.27-47.457-30.357-31.636-45.536-71.665-45.536-120.09 0-48.421 15.047-88.499 45.142-120.24 30.095-31.732 68.193-47.602 114.3-47.602 22.182 0 41.381 3.716 57.585 11.141 16.205 7.429 30.189 18.954 41.959 34.58v-40.223h124.43v85.365h-35.304v153.95h35.304v85.944h-128.48v-36.172zm-156.55-126.74c0 23.539 7.379 42.927 22.137 58.164 14.759 15.242 33.518 22.861 56.284 22.861 22.571 0 41.236-7.618 55.993-22.861 14.759-15.237 22.137-34.626 22.137-58.164 0-23.729-7.334-43.212-21.992-58.454-14.663-15.238-33.377-22.861-56.138-22.861-22.766 0-41.525 7.668-56.284 23.005-14.758 15.338-22.137 34.776-22.137 58.31z"/>
</g>
</svg>
