<svg enable-background="new 0 0 3835.974 1078" version="1.1" viewBox="0 0 3836 1078" xml:space="preserve" xmlns="http://www.w3.org/2000/svg">
<path d="m901.01 410.89c-31.382 0-57.199-25.817-57.199-57.199s25.817-57.199 57.199-57.199 57.198 25.817 57.198 57.199-25.816 57.199-57.198 57.199m50.773 340.09h-102.12v-286.85h102.12v286.85zm-160.06 0.575h-102.12v-32.128h-1.033c-17.957 28.398-53.183 41.364-86.802 41.364-85.024 0-144.92-71.082-144.92-153.41 0-82.327 58.805-152.72 143.83-152.72 32.988 0 88.925 37.463 88.925 37.463v-27.997h102.12v287.43zm-454.3-0.575-103.58-162.36h-0.918v162.36h-109.58v-422.25h163.79c83.33 0 146.54 39.712 146.54 129.92 0 58.304-32.495 108.58-92.328 119.36l132.45 172.96h-136.38zm-337.42 327.02h1078v-1078h-1078v1078zm243.83-664.93h-10.327v104.99h10.533c35.836 0 75.851-6.698 75.851-52.609 0.229-45.625-40.072-52.38-75.851-52.38m383.55 129.94c-41.479 0-65.518 29.604-65.518 64.829 0 36.317 23.981 64.37 65.518 64.37s65.518-28.053 65.518-64.37c0-35.225-24.268-64.829-65.518-64.829" fill="#F2811B"/>
<g fill="#F2811B">
	<path d="m1283.2 740.21v13.907h-83.739v-141.14h98.238c2.168 20.713 6.658 35.758 13.463 45.124 6.807 9.372 16.617 14.056 29.442 14.056 12.03 0 22.142-3.796 30.329-11.392 8.184-7.592 12.28-17.111 12.28-28.555 0-6.902-1.674-13.315-5.017-19.233s-8.257-10.847-14.744-14.795c-6.491-3.943-18.581-9.367-36.279-16.274-15.928-5.719-27.528-10.157-34.806-13.315-31.069-13.02-54.32-29.636-69.753-49.859-15.438-20.218-23.154-43.742-23.154-70.572 0-37.283 12.682-68.648 38.056-94.096 25.373-25.447 57.039-38.171 95.002-38.171 12.391 0 24.189 1.877 35.401 5.622 11.207 3.75 21.729 9.57 31.568 17.458v-12.132h79.301v123.09h-89.343c-2.358-14.596-7.176-25.84-14.448-33.732-7.272-7.888-16.316-11.836-27.126-11.836-10.222 0-18.919 3.306-26.094 9.913-7.176 6.611-10.764 14.846-10.764 24.708 0 7.892 1.618 14.749 4.864 20.565 3.245 5.821 8.16 10.407 14.748 13.759 6.584 3.356 20.2 8.78 40.848 16.274 19.465 6.51 33.724 12.233 42.767 17.162 25.956 13.81 45.518 30.33 58.694 49.562 13.172 19.234 19.761 41.278 19.761 66.134 0 38.467-13.366 71.658-40.095 99.569-26.732 27.917-58.837 41.87-96.314 41.87-12.825 0-25.105-1.975-36.84-5.918-11.738-3.943-23.819-9.861-36.246-17.754z"/>
	<path d="m1853.8 633.98c-10.652 40.349-31.12 71.936-61.398 94.766-30.284 22.831-66.827 34.246-109.63 34.246-25.253 0-48.527-4.188-69.832-12.561-21.305-8.378-40.242-20.893-56.812-37.547-16.57-16.653-29.294-35.43-38.171-56.322-4.143-10.449-7.301-21.24-9.469-32.373-2.173-11.134-3.255-23.011-3.255-35.628 0-24.241 4.143-46.66 12.428-67.257s21.105-39.567 38.467-56.914c15.779-16.358 33.533-28.776 53.262-37.251 9.861-4.337 19.973-7.587 30.33-9.755 10.355-2.168 21.156-3.255 32.4-3.255 18.146 0 34.865 3.158 50.154 9.469 15.285 6.315 29.045 15.881 41.278 28.702v-29.59h75.158v122.21h-89.657c-6.51-12.428-15.29-21.994-26.335-28.702-5.326-3.153-11.147-5.622-17.458-7.397-6.315-1.775-13.121-2.663-20.417-2.663-22.488 0-41.38 7.929-56.665 23.778-15.289 15.849-22.932 35.393-22.932 58.63 0 23.236 7.443 42.729 22.34 58.481 14.893 15.756 33.289 23.63 55.186 23.63 13.806 0 26.085-3.13 36.84-9.391 10.749-6.26 19.279-15.363 25.595-27.301h108.59z"/>
	<path d="m2188.4 422.71v245.3h40.538v87.29h-129.6v-43.497c-10.652 16.178-23.968 28.36-39.946 36.544-15.979 8.183-34.819 12.279-56.517 12.279-36.891 0-65.297-10.948-85.219-32.845-19.927-21.897-29.886-53.16-29.886-93.8v-123.39h-23.722v-87.882h120.18v182.86c0 24.855 4.092 42.513 12.28 52.966 8.183 10.458 21.646 15.683 40.39 15.683 17.555 0 31.56-6.214 42.018-18.642 10.453-12.428 15.683-29.095 15.683-50.007v-94.983h-38.171v-87.882h131.97z"/>
	<path d="m2225.5 588.56c0-24.44 4.337-47.154 13.02-68.145 8.678-20.99 21.254-39.618 37.728-55.878 16.468-16.261 35.701-28.827 57.699-37.695 21.994-8.868 45.023-13.306 69.093-13.306 24.458 0 47.44 4.337 68.944 13.01 21.499 8.673 40.487 21.138 56.961 37.399 16.468 16.26 29.095 34.985 37.875 56.174 8.774 21.189 13.167 44.001 13.167 68.441 0 24.438-4.244 47.158-12.724 68.148-8.484 20.99-21.11 39.618-37.875 55.879-16.77 16.261-36.003 28.822-57.7 37.69-10.852 4.143-21.896 7.292-33.141 9.465-11.244 2.163-23.08 3.25-35.508 3.25-24.661 0-47.69-4.291-69.093-12.857-21.406-8.572-40.44-20.939-57.107-37.104-16.673-16.163-29.396-34.935-38.172-56.322-8.779-21.389-13.167-44.104-13.167-68.149zm100.01 0c0 22.451 7.592 41.749 22.784 57.893 15.188 16.146 33.437 24.218 54.741 24.218 21.105 0 39.253-8.022 54.445-24.069 15.188-16.048 22.784-35.397 22.784-58.042 0-23.039-7.499-42.633-22.488-58.778-14.994-16.145-33.242-24.222-54.741-24.222-21.11 0-39.309 8.077-54.593 24.222-15.289 16.145-22.932 35.738-22.932 58.778z"/>
	<path d="m2628.2 667.42v-255.66h-40.538v-87.29h134.34v342.95h42.018v87.882h-177.54v-87.882h41.721z"/>
	<path d="m3026.8 718.31c-10.874 14.009-24.467 24.463-40.778 31.365s-35.147 10.357-56.498 10.357c-46.858 0-85.807-16.173-116.85-48.527-31.042-32.35-46.562-73.281-46.562-122.8 0-49.512 15.387-90.494 46.16-122.95 30.773-32.447 69.73-48.675 116.88-48.675 22.683 0 42.313 3.8 58.884 11.392 16.57 7.596 30.87 19.381 42.905 35.36v-41.13h127.24v87.29h-36.1v157.42h36.1v87.882h-131.38v-36.988zm-160.08-129.6c0 24.069 7.546 43.894 22.636 59.475 15.092 15.586 34.273 23.376 57.553 23.376 23.08 0 42.166-7.79 57.256-23.376 15.092-15.581 22.637-35.406 22.637-59.475 0-24.264-7.499-44.187-22.488-59.772-14.994-15.581-34.13-23.376-57.404-23.376-23.279 0-42.461 7.841-57.553 23.524-15.091 15.684-22.637 35.56-22.637 59.624z"/>
</g>
<g fill="#F2811B">
	<path d="m3687.9 694.2c48.301 0 73.4-30.5 73.4-85 0-54.2-26.2-89.1-72.599-89.1h-44.201v174.2l43.4-0.1zm-117-235.9h127.1c82.6 0 138 59.7 138 150.9 0 52.5-18.4 94.6-51.701 120-23.299 17.6-53.299 27.1-90.799 27.1h-122.6v-298z"/>
	<polygon points="3277.8 458.3 3351.5 458.3 3351.5 571.3 3456.2 571.3 3456.2 458.3 3530 458.3 3530 756.3 3456.2 756.3 3456.2 632.1 3351.5 632.1 3351.5 756.3 3277.8 756.3"/>
</g>
</svg>
