<svg viewBox="0 0 2527.9 1077.8" xmlns="http://www.w3.org/2000/svg">
    <path d="M244.33 411.9c35.704 0 75.871 6.742 75.871 52.488s-40.167 52.488-75.871 52.488h-10.387v-104.98h10.387m381.7 130.42c-41.688 0-65.912 29.856-65.912 65.348 0 36.618 24.223 64.786 65.912 64.786 41.688 0 65.913-28.169 65.913-64.786 0-35.492-24.224-65.348-65.913-65.348M0-.014h1077.8v1077.8H0V-.014zm474.18 748.83l-132.22-172.41c59.691-10.599 92.048-60.833 92.048-118.85 0-89.817-63.039-129.64-146.16-129.64h-163.88v420.9h109.98v-161.96h.904l103.2 161.96h136.12zm316.64-285.94H688.84v28.17c-21.995-25.351-56.476-37.738-89.713-37.738-85.63 0-144.92 70.989-144.92 153.8 0 82.813 60.279 154.37 145.91 154.37 33.801 0 69.293-12.669 87.32-41.662h1.408v31.993h101.98v-288.94zm160.96 2H849.8v285.93h101.98v-285.93zm-51.051-53.089c31.241 0 56.903-25.662 56.903-56.903s-25.662-56.903-56.903-56.903-56.903 25.662-56.903 56.903 25.662 56.903 56.903 56.903" fill="#093"/>
    <path fill="#E20018" d="M1413.6 668.08h38.8v89.04h-186.7v-89.04h41.7v-70.41l-96.7-182.82H1179v-88.46h164.8v88.46h-26.6l46.7 90.82 42.9-90.82h-26.6v-88.46H1545v88.46h-30.8l-100.6 182.82z"/>
    <path d="M1486.9 590.42c0-24.433 4.336-47.143 13.017-68.129 8.676-20.985 21.249-39.609 37.718-55.865 16.464-16.257 35.694-28.821 57.687-37.686 21.989-8.866 45.013-13.303 69.076-13.303 24.452 0 47.43 4.336 68.929 13.007 21.494 8.671 40.478 21.133 56.948 37.39 16.463 16.256 29.087 34.977 37.866 56.161 8.772 21.184 13.164 43.992 13.164 68.425 0 24.432-4.243 47.147-12.721 68.132-8.482 20.986-21.105 39.61-37.866 55.866-16.766 16.257-35.995 28.816-57.687 37.681a198.265 198.265 0 0 1-33.133 9.463c-11.241 2.162-23.075 3.249-35.5 3.249-24.655 0-47.679-4.29-69.076-12.855-21.402-8.57-40.432-20.934-57.095-37.094-16.669-16.159-29.389-34.927-38.163-56.31-8.777-21.382-13.164-44.091-13.164-68.132m99.991 0c0 22.446 7.59 41.739 22.779 57.881 15.184 16.141 33.429 24.211 54.728 24.211 21.101 0 39.244-8.019 54.433-24.063 15.184-16.044 22.779-35.389 22.779-58.029 0-23.034-7.497-42.623-22.483-58.764-14.992-16.141-33.235-24.216-54.729-24.216-21.105 0-39.299 8.075-54.579 24.216-15.286 16.141-22.928 35.731-22.928 58.764" fill="#F5B700"/>
    <path d="M2020.1 511.53v-85.522h149.09v85.522h-28.541l-98.594 257.86h28.541v86.12h-152.08v-86.12h30.936l5.987-15.468-90.91-242.39h-28.541V426.01h150.88v85.522h-25.547l41.613 127.73 42.811-127.73h-25.646z" fill="#093"/>
    <path d="M2173.5 590.42c0-24.433 4.336-47.143 13.017-68.129 8.676-20.985 21.249-39.609 37.718-55.865 16.464-16.257 35.694-28.821 57.687-37.686 21.989-8.866 45.012-13.303 69.076-13.303 24.452 0 47.43 4.336 68.929 13.007 21.494 8.671 40.477 21.133 56.948 37.39 16.463 16.256 29.087 34.977 37.866 56.161 8.772 21.184 13.164 43.992 13.164 68.425 0 24.432-4.243 47.147-12.721 68.132-8.482 20.986-21.105 39.61-37.866 55.866-16.766 16.257-35.995 28.816-57.687 37.681a198.292 198.292 0 0 1-33.133 9.463c-11.241 2.162-23.075 3.249-35.5 3.249-24.656 0-47.679-4.29-69.076-12.855-21.402-8.57-40.432-20.934-57.095-37.094-16.669-16.159-29.389-34.927-38.163-56.31-8.777-21.382-13.164-44.091-13.164-68.132m99.991 0c0 22.446 7.59 41.739 22.779 57.881 15.185 16.141 33.429 24.211 54.729 24.211 21.101 0 39.244-8.019 54.433-24.063 15.184-16.044 22.779-35.389 22.779-58.029 0-23.034-7.497-42.623-22.483-58.764-14.991-16.141-33.235-24.216-54.729-24.216-21.105 0-39.299 8.075-54.58 24.216-15.287 16.141-22.928 35.731-22.928 58.764" fill="#00CFFF"/>
</svg>
