<svg width="600" height="136.61" viewBox="0 0 158.75 36.146" xmlns="http://www.w3.org/2000/svg">
    <g fill="#fff">
        <path d="M68.737 23.72c0-7.472-1.337-9.143-1.337-9.143s-6.257-3.462-19.075-3.462c-2.733.03-5.953.212-9.234.668V-.002h-5.558V35.05s8.9 1.093 16.463 1.093c13.88 0 17.435-2.885 17.435-2.885s1.306-1.853 1.306-9.538m-5.59.243c0 2.065-.151 4.07-.303 5.285-1.762.486-5.74 1.306-12.758 1.306-3.068.03-6.713-.212-10.996-.577V17.402c11.846-1.762 20.382.243 23.662 1.276.152 1.215.395 3.22.395 5.285M107.312 23.72c0-7.472-1.336-9.143-1.336-9.143s-6.288-3.462-19.075-3.462c-2.765.03-5.984.212-9.234.668V-.002h-5.59V35.05s8.9 1.093 16.494 1.093c13.85 0 17.435-2.885 17.435-2.885s1.306-1.853 1.306-9.538m-5.589.243c0 2.065-.182 4.07-.304 5.285-1.792.486-5.77 1.306-12.758 1.306-3.098.03-6.743-.212-10.996-.577V17.402c11.846-1.762 20.351.243 23.662 1.276.152 1.215.395 3.22.395 5.285M29.888 11.24C8.504 11.362 0 16.404 0 16.404v19.379h5.68V20.049c2.673-.881 10.206-3.068 24.21-3.25v-5.56z"/>
        <path d="M116.892 12.73v23.42h3.447V24.892h10.956V36.15h3.243v-.21h.21V12.73h-3.453v9.023h-10.956V12.73h-3.237zM141.082 12.73v23.413h5.363c1.886 0 3.406-.138 4.575-.432a9.644 9.644 0 0 0 3.193-1.435v-.007c1.377-.96 2.478-2.304 3.296-4.03.829-1.73 1.24-3.662 1.24-5.78 0-2.26-.389-4.223-1.183-5.884-.791-1.657-1.902-2.986-3.321-3.984v-.007c-.837-.583-1.856-1.033-3.054-1.357-1.199-.337-2.798-.498-4.803-.498h-5.306zm3.124 3.047h2.347c1.252 0 2.327.1 3.213.301.882.191 1.715.54 2.5 1.042 1.075.69 1.876 1.623 2.418 2.825.542 1.2.82 2.689.82 4.468 0 1.771-.253 3.238-.75 4.397-.49 1.162-1.222 2.089-2.208 2.798a7.007 7.007 0 0 1-2.614 1.173c-.951.212-2.082.321-3.379.321h-2.347V15.777z" color="#000" style="text-indent:0;text-transform:none"/>
    </g>
</svg>
