<svg space="preserve" version="1.1" viewBox="0 0 800 134.27" xmlns="http://www.w3.org/2000/svg">
 <link href="" rel="stylesheet" type="text/css"/>
 <path d="m0 0v133.3h275.27l28.366-133.3z" fill="#fff" stroke-width=".69354"/>
 <g transform="scale(.69354)" fill="#e31818">
  <path d="m280.9 94.2v37.4c12.3 1.1 22.7 1.8 31.6 1.8 20.1-0.1 31.5-2.5 36.6-3.9 0.6-5.2 0.9-10.5 0.9-15.7-0.1-5.3-0.5-10.6-1.1-15.8-9.4-3.2-33.9-9.1-68-3.8z"/>
  <path d="m162.9 94.2v37.4c12.3 1.1 22.8 1.8 31.6 1.8 20.1-0.1 31.5-2.5 36.6-3.9 0.6-5.2 0.9-10.5 0.9-15.7-0.1-5.3-0.5-10.6-1.1-15.8-9.5-3.2-34-9.1-68-3.8z"/>
  <path d="m0 0v192.2h396.9l40.9-192.2zm129.2 92.3c-40.2 0.6-61.8 7-69.6 9.7v46.8h-16.3v-57.7s24.4-15 85.9-15.3zm115.1 49s-10.3 8.6-50.1 8.6c-21.8 0-47.3-3.3-47.3-3.3v-104.3h16v35.1c8.8-1.3 17.7-1.9 26.5-2 36.8 0 54.8 10.3 54.8 10.3s3.9 5 3.9 27.2c0 23-3.8 28.4-3.8 28.4zm118.1 0s-10.3 8.6-50.1 8.6c-21.8 0-47.3-3.3-47.3-3.3v-104.3h16v35.1c8.8-1.3 17.7-1.9 26.5-2 36.8 0 54.8 10.3 54.8 10.3s3.9 5 3.9 27.2c-0.1 23-3.8 28.4-3.8 28.4z"/>
 </g>
 <g transform="scale(.69354)" fill="#e31818">
  <rect x="1067.5" y="96.9" width="33.1" height="95.3"/>
  <rect x="908.9" y="130.2" width="33.1" height="62"/>
  <rect x="1014.6" y="33.4" width="33.1" height="158.9"/>
  <rect x="1120.4" y="144.6" width="33.1" height="47.7"/>
  <rect x="961.7" y="96.9" width="33.1" height="95.3"/>
 </g>
 <g transform="scale(.69354)" fill="#585856">
  <path d="m821 193.1c-35.5 0-57.9-19.5-57.9-54 0-22.2 10.8-33.5 21-39.8-8.9-6.3-16.4-16.9-16.4-33 0-28.2 21.5-47.3 53.8-47.3 33.3-0.1 53.5 19.5 53.5 47.2 0 16.2-7.2 25.8-16.7 32.6 10.4 6.3 21 18.1 21 40.3 0 34.9-22.4 53.9-58.3 54m0-78c-13 0-19.5 7.2-19.5 22.9 0 16.4 7 23.2 20 23.2s19.8-6.5 19.8-22.9c-0.1-15.9-7.3-23.2-20.3-23.2m0.2-65.8c-11.3 0-15.9 6-15.9 17.6 0 10.4 4.8 17.8 16.2 17.8s15.9-7.2 15.9-17.4c-0.1-11.7-5.1-18-16.2-18"/>
  <path d="m529.5 193.1c-35.5 0-57.9-19.5-57.9-54 0-22.2 10.9-33.5 21-39.8-8.9-6.3-16.4-16.9-16.4-33 0.1-28.3 21.5-47.3 53.8-47.3 33.3 0 53.5 19.5 53.5 47.3 0 16.2-7.2 25.8-16.6 32.6 10.4 6.3 21 18.1 21 40.3 0 34.9-22.4 53.9-58.4 53.9m0.1-77.9c-13 0-19.5 7.2-19.5 22.9 0 16.4 7 23.2 20 23.2s19.8-6.5 19.8-22.9c-0.1-16-7.3-23.2-20.3-23.2m0.2-65.8c-11.3 0-15.9 6-15.9 17.6 0 10.4 4.8 17.8 16.2 17.8s16-7.3 16-17.4c-0.1-11.8-5.2-18.1-16.3-18"/>
  <path d="m755.9 175.3c0 10.1-8.2 18.3-18.3 18.3s-18.3-8.2-18.3-18.3 8.2-18.3 18.3-18.3c10.1 0.1 18.3 8.2 18.3 18.3"/>
  <path d="m656.6 193.1c-35.5 0-57.9-19.5-57.9-54 0-22.2 10.8-33.5 21-39.8-8.9-6.3-16.4-16.9-16.4-33 0-28.2 21.5-47.3 53.8-47.3 33.3 0 53.5 19.5 53.5 47.3 0 16.2-7.2 25.8-16.7 32.6 10.4 6.3 21 18.1 21 40.3 0.1 34.9-22.3 53.9-58.3 53.9m0-77.9c-13 0-19.5 7.2-19.5 22.9 0 16.4 7 23.2 20 23.2s19.8-6.5 19.8-22.9c0-16-7.3-23.2-20.3-23.2m0.2-65.8c-11.3 0-15.9 6-15.9 17.6 0 10.4 4.8 17.8 16.2 17.8s15.9-7.3 15.9-17.4c0-11.8-5.1-18.1-16.2-18"/>
 </g>
</svg>
