<svg width="600" height="274.71" version="1.1" viewBox="0 0 158.75 72.683" xmlns="http://www.w3.org/2000/svg">
 <g transform="translate(-119.38 -185.83)" fill="#ef7f17">
  <path d="m176.97 234.69 2.8088-4.2834h4.7371l-3.2628 4.2834zm-0.31467 14.496h5.2627l-2.6306-7.1614zm4.9114-12.566 8.2493 21.549h-4.5632l-1.9297-5.1946h-8.0729l-1.8951 5.1946h-4.4908l8.2461-21.549z"/>
  <path d="m192.41 258.17v-21.549h14.353v3.9303h-9.8954v5.4744h9.1581v3.8954h-9.1581v8.2486z"/>
  <path d="m214.46 246.45h4.1423c2.2451 0 3.4036-1.1949 3.4036-2.9852 0-1.8242-1.1585-3.0194-3.4036-3.0194h-4.1423zm0 3.6826v8.0373h-4.4584v-21.549h8.8818c4.5244 0 7.5452 2.4204 7.5452 6.8435 0 3.4392-1.8955 5.6158-4.9145 6.3496l5.6871 8.3555h-5.0574l-5.3319-8.0373z"/>
  <path d="m234.25 258.17h-4.4933v-21.549h4.4933z"/>
  <path d="m247.35 236.27c5.0898 0 8.2119 2.9838 9.0212 7.3011h-4.4573c-0.73801-1.9653-2.0722-3.2985-4.5639-3.2985-3.4403 0-5.4751 3.0176-5.4751 7.1243 0 4.0728 2.0348 7.1229 5.4751 7.1229 2.4917 0 3.8258-1.3317 4.5639-3.3337h4.4573c-0.80927 4.3526-3.9313 7.3342-9.0212 7.3342-5.7573 0-10.038-4.525-10.038-11.123 0-6.6001 4.2809-11.127 10.038-11.127"/>
  <path d="m264.97 249.19h5.2659l-2.6328-7.1614zm4.9145-12.566 8.2483 21.549h-4.5625l-1.9304-5.1946h-8.0719l-1.8962 5.1946h-4.4933l8.25-21.549z"/>
  <path d="m173.77 220.41v5.4656h-5.4317v-21.954h20.255c4.669 0 8.4522 3.6819 8.4522 8.225 0 2.9302-1.5776 5.51-3.9504 6.9402l3.9504 6.7885h-5.9545l-3.2237-5.4656h-14.098m0-11.56v6.5916h14.44c1.8778 0 3.374-1.4898 3.374-3.2946 0-1.8182-1.4961-3.297-3.374-3.297z"/>
  <path d="m239.25 220.37v5.5047h-5.4328v-21.954h19.716c4.6757 0 8.4564 3.6823 8.4564 8.2281 0 4.5416-3.7807 8.2208-8.4564 8.2208h-14.284m0-11.521v6.5902h13.906c1.8704 0 3.368-1.4877 3.368-3.2904 0-1.8192-1.4975-3.2999-3.368-3.2999z"/>
  <path d="m206.5 220.95h12.334c3.2731 0 5.934-2.7178 5.934-6.0558 0-3.3348-2.661-6.0526-5.934-6.0526h-12.334zm12.416 4.9237h-17.85v-21.954h17.848c5.988 0 10.86 4.924 10.86 10.975 0 6.0558-4.8694 10.979-10.858 10.979"/>
  <path d="m152.15 206.38v17.124c0 1.5476 1.2287 2.8014 2.7414 2.8014 1.5081 0 2.7252-1.2538 2.7252-2.8014v-17.124c0-1.5568-1.2171-2.8007-2.7252-2.8007-1.5127 0-2.7414 1.2439-2.7414 2.8007"/>
  <path d="m133.05 227.2v-38.558c0-1.5508-1.2333-2.8116-2.7414-2.8116-1.4993 0-2.7248 1.2608-2.7248 2.8116v38.558c0 1.5519 1.2256 2.8028 2.7248 2.8028 1.5081 0 2.7414-1.251 2.7414-2.8028"/>
  <path d="m119.38 198.65v32.586c0 1.5526 1.2217 2.8046 2.7425 2.8046 1.4972 0 2.7287-1.252 2.7287-2.8046v-32.586c0-1.5519-1.2315-2.8127-2.7287-2.8127-1.5208 0-2.7425 1.2608-2.7425 2.8127"/>
  <path d="m141.25 241.16v-40.206c0-1.5505-1.2308-2.8102-2.7414-2.8102-1.4982 0-2.7245 1.2598-2.7245 2.8102v40.206c0 1.555 1.2262 2.8032 2.7245 2.8032 1.5106 0 2.7414-1.2481 2.7414-2.8032"/>
  <path d="m149.45 231.3v-36.001c0-1.5519-1.2312-2.8113-2.74-2.8113-1.5 0-2.7259 1.2594-2.7259 2.8113v36.001c0 1.5504 1.2259 2.8014 2.7259 2.8014 1.5088 0 2.74-1.2509 2.74-2.8014"/>
 </g>
</svg>
