<svg width="600" height="255.32" viewBox="0 0 158.75 67.553" xmlns="http://www.w3.org/2000/svg">
    <g fill="#223986">
        <path d="M38.665 67.382h-2.262V56.524h2.262zM49.827 67.382h-1.786l-5.127-7.233v7.233h-2.177V56.524h2.121l4.795 6.864v-6.864h2.174zM51.326 56.52h9.268v1.986h-3.499v8.872H54.82v-8.872h-3.493zM69.455 56.52v1.986h-5.144v2.367h4.673v1.93h-4.673v2.583h5.144v1.992h-7.373V56.52zM73.456 61.477h2.08c1.133 0 1.72-.604 1.72-1.51 0-.908-.587-1.525-1.72-1.525h-2.08zm0 1.852v4.05h-2.25V56.52h4.473c2.283 0 3.806 1.223 3.806 3.446 0 1.738-.957 2.837-2.476 3.195l2.863 4.217H77.33l-2.69-4.05zM90.251 67.382h-1.79l-5.12-7.233v7.233h-2.179V56.524h2.126l4.789 6.864v-6.864h2.174zM95.49 62.852h2.653l-1.326-3.602zm2.473-6.33l4.155 10.857h-2.296l-.97-2.617H94.78l-.954 2.617h-2.262l4.157-10.858zM107.442 56.34c2.564 0 4.14 1.508 4.542 3.69h-2.236c-.374-.997-1.05-1.669-2.306-1.669-1.731 0-2.756 1.52-2.756 3.593 0 2.046 1.025 3.59 2.756 3.59 1.256 0 1.932-.672 2.306-1.677h2.236c-.401 2.19-1.978 3.686-4.542 3.686-2.898 0-5.055-2.279-5.055-5.6 0-3.327 2.157-5.613 5.055-5.613M115.778 67.382h-2.27V56.524h2.27zM122.439 58.362c-1.712 0-2.827 1.474-2.827 3.593 0 2.116 1.115 3.589 2.827 3.589 1.734 0 2.866-1.473 2.866-3.59 0-2.118-1.132-3.592-2.866-3.592m0 9.192c-3.022 0-5.132-2.354-5.132-5.6 0-3.25 2.11-5.613 5.132-5.613 3.028 0 5.148 2.362 5.148 5.614 0 3.245-2.12 5.599-5.148 5.599M138.25 67.382h-1.785l-5.127-7.233v7.233h-2.181V56.524h2.125l4.796 6.864v-6.864h2.172zM143.489 62.852h2.649l-1.323-3.602zm2.475-6.33l4.16 10.857h-2.306l-.97-2.617h-4.073l-.948 2.617h-2.266l4.16-10.858zM151.423 56.52h2.266v8.866h5.062v1.992h-7.328zM60.42 38.412v6.072h-6.035V20.095h22.501c5.187 0 9.39 4.09 9.39 9.136 0 3.258-1.75 6.125-4.388 7.712l4.388 7.541h-6.613l-3.582-6.072H60.42m0-12.84v7.323h16.04c2.086 0 3.75-1.656 3.75-3.664 0-2.016-1.664-3.659-3.75-3.659zM133.163 38.37v6.115h-6.034V20.096h21.903c5.193 0 9.394 4.09 9.394 9.14 0 5.047-4.2 9.134-9.394 9.134h-15.869m0-12.796v7.319h15.448c2.078 0 3.742-1.65 3.742-3.656 0-2.018-1.664-3.663-3.742-3.663zM96.781 39.015h13.701c3.637 0 6.597-3.016 6.597-6.724 0-3.706-2.96-6.723-6.597-6.723H96.781zm13.793 5.47H90.745V20.096h19.827c6.654 0 12.064 5.473 12.064 12.194 0 6.725-5.41 12.195-12.063 12.195M36.403 22.83v19.022c0 1.718 1.364 3.11 3.043 3.11 1.678 0 3.028-1.392 3.028-3.11V22.83c0-1.733-1.35-3.111-3.028-3.111-1.68 0-3.043 1.378-3.043 3.111M15.187 45.958V3.124C15.187 1.401 13.818 0 12.141 0c-1.666 0-3.027 1.4-3.027 3.124v42.834c0 1.725 1.361 3.113 3.027 3.113 1.677 0 3.046-1.388 3.046-3.113M0 14.236v36.202c0 1.725 1.355 3.115 3.046 3.115 1.663 0 3.032-1.39 3.032-3.115V14.236c0-1.724-1.369-3.122-3.032-3.122C1.355 11.114 0 12.512 0 14.236M24.303 61.466V16.797c0-1.724-1.369-3.124-3.046-3.124-1.665 0-3.027 1.4-3.027 3.124v44.669c0 1.726 1.362 3.114 3.027 3.114 1.677 0 3.046-1.388 3.046-3.114M33.401 50.502V10.508c0-1.725-1.367-3.123-3.045-3.123-1.665 0-3.027 1.398-3.027 3.123v39.994c0 1.725 1.362 3.115 3.027 3.115 1.678 0 3.045-1.39 3.045-3.115"/>
    </g>
</svg>
