<svg version="0.0" viewBox="0 0 562.41 280.22" xmlns="http://www.w3.org/2000/svg">
 <path d="m530 47.705v63.916c0 11.1-6.5908 18.088-18.516 18.088-11.222 0-18.709-6.9879-18.709-18.976v-63.027h-33.122v63.916c0 30.43 20.125 48.687 51.47 48.687a69.339 69.395 0 0 0 20.003-2.7459l-0.0103 1.0612c0 12.008-10.085 17.366-21.021 17.366-7.7546 0-12.143-1.4326-16.509-8.9511h-35.173c3.3657 24.699 25.583 38.326 51.003 38.326 28.937 0 52.996-17.733 52.996-51.753v-105.9z" fill="#f4aa00"/>
 <path d="m259.68 222.97c0 35.357 20.901 57.253 51.448 57.253 20.901 0 32.87-13.461 32.87-13.461v10.769h33.406v-110.2h-32.87v11.307c-9.8252-8.9739-18.221-13.461-31.619-13.461-30.548 0-53.235 27.101-53.235 57.792zm59.845-26.922c14.649 0 26.082 11.128 26.082 27.281 0 15.974-12.326 26.922-27.153 26.922-15.363 0-25.01-12.563-25.01-27.819 0-14.538 10.183-26.383 26.081-26.383z" fill="#0a9b90"/>
 <path d="m263.18 197.48c7.5394 0 11.668 2.1537 11.668 2.1537v-34.46h-7.5394c-13.284 0-23.516 11.307-26.208 19.563v-17.409h-32.491v110.2h33.748v-50.792c0-21.358 7.8984-29.255 20.823-29.255z" fill="#0a9b90"/>
 <path d="m46.068 167.42 34.866 51.565-38.823 58.541h45.968l12.079-21.924c1.0829-1.9889 2.6165-4.9584 3.2919-8.0936h1.2114c0.45013 3.0182 1.9304 6.0072 3.0645 8.0936l11.887 21.924h45.9l-39.527-58.556 34.77-51.55h-45.527l-8.3577 17.02c-0.84403 1.6297-2.405 5.2524-2.7808 7.6956h-0.98233c-0.25374-1.6495-2.255-7.1284-2.5632-7.7235l-8.9486-16.993z" fill="#0a9b90"/>
 <path d="m435.84 158.1v-79.525h17.613v-30.449h-17.613v-27.267h-33.317v27.267h-10.868v30.27h10.868v79.704z" fill="#f4aa00"/>
 <path d="m369.17 0c-11.059 0-19.979 9.1446-19.979 20.262 0 11.297 8.741 20.084 19.622 20.084 11.416 0 20.512-9.144 20.512-20.441 0-11.118-9.0959-19.905-20.155-19.905zm-16.725 48.118v109.97h33.139v-109.97z" fill="#f4aa00"/>
 <path d="m340.91 158.1v-137.24h-33.216v137.24z" fill="#f4aa00"/>
 <path d="m65.813 103.28c0 36.897 23.16 57.494 56.832 57.494 22.982 0 41.51-11.463 51.131-28.658-6.0573-3.7613-25.833-15.224-25.833-15.224-5.701 7.5226-12.827 15.224-23.695 15.224-12.471 0-22.804-6.2688-25.654-19.344h76.963c0.17815-2.5075 0-3.9404 0-6.627 0-39.225-22.269-60.181-53.803-60.181-32.246 0-55.941 24.001-55.941 57.315zm55.585-29.374c10.333 0 16.034 5.0151 19.953 15.583h-41.51c4.0976-10.209 10.333-15.583 21.557-15.583z" fill="#f4aa00"/>
 <path d="m54.394 78.195c7.515 0 11.63 2.1497 11.63 2.1497v-34.395h-7.515c-13.241 0-23.44 11.286-26.124 19.526v-17.377h-32.386v109.99h33.639v-50.697c0-21.318 7.8729-29.2 20.756-29.2z" fill="#f4aa00"/>
 <path d="m180.54 103.64c0 35.285 20.845 57.136 51.311 57.136 20.845 0 32.782-13.433 32.782-13.433v10.747h33.317v-109.97h-32.782v11.284c-9.7991-8.9555-18.173-13.433-31.535-13.433-30.466 0-53.093 27.046-53.093 57.673zm59.685-26.866c14.61 0 26.012 11.105 26.012 27.225 0 15.941-12.293 26.866-27.081 26.866-15.322 0-24.943-12.538-24.943-27.762 0-14.508 10.155-26.329 26.012-26.329z" fill="#f4aa00"/>
 <path d="m195.16 277.53v-79.688h17.69v-30.511h-17.69v-22.424l-33.415-19.954v42.378h-10.9v30.332h10.9v79.868z" fill="#0a9b90"/>
 <path d="m459.68 254.09h34.838v23.438h-85.473l43.442-47.3q12.13-13.272 12.13-26.121 0-5.3653-3.5261-9.6011-3.3851-4.2358-8.6038-4.2358-5.3597 0-8.4627 3.671-3.103 3.671-3.103 9.3187 0 2.2591 0.42314 4.5182h-30.466q0.70522-18.496 11.707-29.65 11.143-11.295 29.761-11.295 17.208 0 29.055 10.448 11.989 10.448 11.989 27.391 0 10.731-4.2314 18.355-4.0903 7.6244-12.976 15.672z" fill="#0a9b90"/>
</svg>
