<svg xmlns="http://www.w3.org/2000/svg" height="175.35" width="600">
    <path fill="#05a9a0" d="M13.746 3.087C19.99-.303 27.306-.035 34.191.035c88.479.035 176.94-.012 265.41.023-.06 19.501.78 38.98.44 58.48.35 10.09-.75 20.166-.16 30.242.64 20.62-.35 41.25.2 61.87-.62 8.2-.27 16.43.13 24.64-88.66.06-177.31-.01-265.96.03-6.21 0-12.64.4-18.57-1.85C6.932 170 .257 161.29.001 151.76c.012-42.69.012-85.382 0-128.06.221-8.754 5.941-16.862 13.746-20.613z"/>
    <path fill="#b91537" d="M299.6.058c88.23.07 176.47.012 264.7.023 5.78.07 11.67-.419 17.34.979 10.77 2.912 18.81 13.618 18.34 24.813.02 41.146.02 82.307 0 123.45.37 9.59-5.25 18.96-13.82 23.22-6.36 3.35-13.78 2.7-20.71 2.74-88.42-.01-176.82-.04-265.24.01-.4-8.21-.75-16.44-.13-24.64-.55-20.62.44-41.25-.2-61.87-.59-10.076.51-20.153.16-30.242.34-19.501-.5-38.979-.44-58.48z"/>
    <g fill="#fdfdfc">
        <path d="M246.69 99.323c.13-19.14-.2-38.303.16-57.443 4.75-.094 9.52-.047 14.27-.035 1.06 20.724.04 41.507.56 62.255.18 2.25.75 4.79 2.73 6.16 2.91 2.18 6.75 1.61 10.17 1.8-.04 4.22-.01 8.45.02 12.68-7.26 1.28-15.49.57-21.14-4.63-5.71-5.23-6.83-13.44-6.77-20.787zM65.412 49.976c-5.112.01-10.205.052-15.319.087-.21 25.047-.198 50.077-.059 75.107 4.683-.02 9.384-.01 14.067.03.396-8.87.117-17.77.175-26.646 4.636-.035 9.255-.017 13.892-.029 5.16 8.865 10.21 17.775 15.406 26.615 5.405-.03 10.836.39 16.196-.61-5.05-9.67-10.913-18.89-16.109-28.48 5.79-3.064 10.509-8.306 11.939-14.795 1.56-7.864.82-16.816-4.45-23.212-4.908-5.929-12.97-8.02-20.39-8.009-5.114-.04-10.237-.068-15.348-.058zm9.028 13.455c3.383-.041 6.757.012 10.106.437 10.007 1.864 10.018 19.664-.233 20.969-6.664.408-13.362.122-20.037.146 0-7.13.041-14.259.029-21.377 3.367.006 6.752-.134 10.135-.175zM423.86 73.485c6.75-8.073 20.11-6.85 26.64.862 7.7-8.213 22.11-8.668 30-.571 4.69 4.893 5.74 12.034 5.42 18.546-.12 10.938.13 21.888-.17 32.828-4.73-.01-9.46-.02-14.18-.01-.34-11.74 0-23.5-.16-35.253-.03-2.481-.76-5.207-2.89-6.698-4.63-3.705-12.77-.525-13.24 5.463-.26 12.158.08 24.338-.15 36.508-4.86-.02-9.7-.02-14.54-.05-.22-12.1.08-24.21-.12-36.318 0-3.157-2.29-6.151-5.4-6.815-5.08-1.852-10.82 2.656-10.73 7.957-.25 11.746.13 23.486-.17 35.216-4.77-.04-9.54-.01-14.31-.01-.21-18.54-.16-37.07-.02-55.593 4.5-.058 8.99-.058 13.49-.047.17 1.328.36 2.657.53 3.985zM523.82 68.033c-.5-.009-.97.011-1.46.029-10.52.058-20.44 6.786-24.99 16.163-3.06 6.081-3.32 13.188-2.27 19.805 1.93 9.12 8.69 17.03 17.33 20.47 7.02 2.76 15.01 2.6 22.05.03 7.17-2.81 13.76-8.86 15.05-16.71-.15-.05-9.63-.33-14.41-.47-3.07 3.89-7.55 7.01-12.73 6.41-6.5.17-11.46-5-13.48-10.75 13.99-.02 27.99-.06 41.99.03 1.33-9.25-.85-19.269-7.19-26.328-5.06-5.461-12.48-8.554-19.89-8.679zm-.18 12.727c6.17.005 11.41 4.841 13.34 10.542-9.27.012-18.52.065-27.78-.029 2.12-5.44 6.91-10.688 13.19-10.455.42-.044.84-.059 1.25-.058zM142.36 68.12c-4.2-.109-8.41.68-12.24 2.388-12.55 5.324-20.02 20.299-16.6 33.522 1.94 9.24 8.79 17.21 17.57 20.65 6.87 2.76 14.7 2.4 21.63.03 7.39-2.85 14.2-9.22 15.24-17.36-4.87-.11-9.77-.06-14.65 0-4.08 7.11-14.76 8.77-20.89 3.41-2.44-1.88-3.71-4.79-5.06-7.46 13.77-.31 27.57.2 41.32-.23 1.59-1.15.92-3.258 1.08-4.924.04-8.096-2.68-16.402-8.47-22.192-4.99-4.98-11.95-7.652-18.93-7.834zm-2.13 12.727c.4-.016.79-.025 1.19 0 6.43-.245 11.99 4.526 13.81 10.514-9.2-.035-18.4.04-27.61-.029 1.93-5.417 6.68-10.24 12.61-10.485zM203.57 68.207c-9.24.041-18 5.672-22.48 13.689-5.68 10.216-5.15 23.714 1.6 33.314 5.16 7.74 14.79 12.16 24 11.07 5.29-.35 9.83-3.3 14.12-6.12.1 1.67.21 3.36.33 5.01 4.39 0 8.78-.03 13.19.03.08-18.56.11-37.124-.03-55.682-4.43-.047-8.85-.017-13.28-.029-.07 1.771-.11 3.547-.15 5.329-4.46-3.459-9.64-6.401-15.43-6.552-.62-.048-1.25-.061-1.87-.059zm1.52 13.339c10.61-.478 17.87 11.917 14.15 21.374-2.19 7.78-11.77 12.71-19.13 8.74-9.2-4.47-10.84-18.057-4.11-25.338 2.31-2.667 5.57-4.403 9.09-4.776z"/>
    </g>
    <g fill="#fff">
        <path d="M383.16 49.9v13.834h15V49.9h-15zm.29 19.28v55.98h14.65V69.18h-14.65zM324.65 49.9v13.834h20.21v61.426h14.86V63.734h20.21V49.9h-55.28zM520.12 54.62h-6.02V41.276h-13.49V54.62h-6.07V22.991h6.07v12.666h13.49V22.991h6.02V54.62zM537.71 28.596h-5.69v20.411h5.69c7.14 0 8.23-6.419 8.23-10.257 0-4.637-1.44-10.154-8.23-10.154m0 26.03H526V22.998h11.71c8.79 0 14.26 6.064 14.26 15.813 0 9.669-5.6 15.814-14.26 15.814"/>
    </g>
</svg>
