<svg xmlns="http://www.w3.org/2000/svg" width="600" height="300">
    <path fill="#8f9496" d="M300 0h300v300H300z"/>
    <path fill="#011d88" d="M0 0h300v300H0z"/>
    <path fill="#c4c5c6" d="M581.293 179.834l-8.642 26.896h-.104l-8.518-26.896h-37.6v7.054h11.488v31.186h8.374v-31.186h11.406l10.086 31.186h9.488l12.705-38.24h-8.683"/>
    <path d="M261.43 145.224a9.707 9.707 0 0 0-10.498 2.125c-3.775 3.795-3.775 9.9.02 13.675.95.948 2.001 1.691 3.177 2.145 3.506 1.423 7.672.722 10.498-2.125 3.795-3.774 3.775-9.9-.02-13.695-.929-.928-2.001-1.65-3.177-2.125m-14.54-34.382a9.654 9.654 0 0 0-13.676-.021c-3.795 3.795-3.815 9.92-.02 13.716a9.679 9.679 0 0 0 13.695-.02 9.654 9.654 0 0 0 0-13.675zm28.772-20.461c-1.176-1.176-2.393-2.228-3.63-3.238 1.093-12.087-1.918-24.339-9.282-34.837l.825-.825c3.795-3.795 3.775-9.921 0-13.696a9.698 9.698 0 0 0-13.695 0l-.825.826c-10.52-7.384-22.75-10.375-34.816-9.282a45.16 45.16 0 0 0-3.28-3.65c-18.047-18.048-45.52-16.543-63.774 1.216a16.62 16.62 0 0 1 11.777 4.888 16.222 16.222 0 0 1 2.888 3.878c10.89-8.58 24.544-10.189 35.331-2.021-5.63 2.413-11.034 5.775-15.985 10.024a16.689 16.689 0 0 1 13.263 4.826c2 1.98 3.341 4.352 4.125 6.848 11.612-8.065 25.39-9.88 37.105-3.341l-16.871 16.892c3.3.536 6.476 2.083 9.034 4.64a16.72 16.72 0 0 1 4.661 9.035l16.872-16.893c6.456 11.55 4.785 25.081-2.97 36.57 1.98.825 3.815 2.042 5.445 3.63 4.331 4.352 5.754 10.498 4.31 16.026 5.013-5.404 8.87-11.406 11.592-17.738 8.168 10.787 6.539 24.482-2.062 35.352a16.327 16.327 0 0 1 3.898 2.888 16.716 16.716 0 0 1 4.847 11.777c17.759-18.233 19.285-45.727 1.217-63.795zm-121.67-39.952a9.599 9.599 0 0 0 0-13.675c-3.775-3.795-9.88-3.795-13.676-.02-3.774 3.795-3.774 9.9 0 13.674 3.796 3.775 9.9 3.796 13.675.021zm68.889 41.726c3.795-3.754 3.795-9.9 0-13.675-3.775-3.775-9.88-3.775-13.675 0-3.795 3.774-3.816 9.92-.02 13.695 3.774 3.775 9.92 3.775 13.695-.02zm41.457-58.783l3.92 3.94 4.681-4.662 4.682 4.661 3.94-3.94-4.682-4.66 4.682-4.683-3.94-3.94-4.682 4.683-4.682-4.682-3.919 3.94L269 28.71l-4.662 4.662zM114.7 186.64v-20.626c4.146 2.434 8.106 5.383 11.654 8.952a60.038 60.038 0 0 1 9.034 11.674h-20.688zm83.534 0h-39.477a79.278 79.278 0 0 0-17.511-26.566c-7.838-7.817-16.872-13.634-26.525-17.47l-.02-39.498h-.042c-38.529-9.942-81.203.186-111.358 30.36a128.687 128.687 0 0 0-3.3 3.445v32.774c4.393-8.147 9.962-15.82 16.83-22.688 21.534-21.533 50.657-30.835 78.77-27.947l-.02 18.686c-23.37-3.011-47.749 4.414-65.693 22.338C4.084 185.878 0 225.087 17.47 255.22l-15.119 15.14 14.232 14.252 13.242-13.242.062.062c18.027 18.047 42.612 25.472 66.105 22.358l-.02-21.286c-18.007 3.3-37.292-2.021-51.214-15.943 0-.02-.041-.041-.041-.062l10.189-10.19 16.48 16.48 11.777-11.777-16.5-16.459 7.858-7.858L91 243.176l10.952-10.932-30.732-30.753-38.137 38.137c-9.694-21.265-5.817-47.17 11.653-64.661 13.84-13.84 32.919-19.162 50.822-15.985v46.758h46.82a58.395 58.395 0 0 1-.083 20.481h21.266a79.16 79.16 0 0 0 .04-20.48h18.626c2.908 28.112-6.394 57.235-27.927 78.768A98.48 98.48 0 0 1 134.067 300h31.619c.701-.66 1.444-1.278 2.124-1.96 30.238-30.174 40.344-72.849 30.423-111.398zm30.01-57.175c-5.61-5.61-6.393-14.231-2.33-20.666a153.587 153.587 0 0 0-5.878-7.281c-5.487 1.32-11.53-.103-15.8-4.394-4.29-4.29-5.734-10.333-4.372-15.82a237.18 237.18 0 0 0-8.54-6.806c-6.455 3.94-14.932 3.135-20.48-2.434a16.534 16.534 0 0 1-4.806-13.386c-2.31-1.175-4.682-2.269-7.013-3.362l-.062.062c-5.507 5.507-13.86 6.332-20.254 2.558v10.21c21.079 7.57 40.88 19.8 57.813 36.713 16.872 16.893 29.144 36.714 36.693 57.793h10.21c-3.774-6.394-2.929-14.768 2.558-20.254l.061-.062a183.397 183.397 0 0 0-3.918-8.127c-4.95.62-10.107-.948-13.881-4.744zM0 107.46v23.926c.206-.207.392-.413.598-.62 46.903-46.922 123.032-46.922 169.935.021 46.717 46.697 46.923 122.228.722 169.213h23.637c41.808-54.121 37.951-132.19-11.715-181.856C133.118 68.085 54.184 64.537 0 107.459zm189.488-40.344a9.654 9.654 0 0 0-.02-13.675 9.673 9.673 0 0 0-13.675-.02c-3.816 3.795-3.796 9.92 0 13.716 3.774 3.774 9.92 3.774 13.695-.02z" fill="#fff"/>
    <path d="M316.748 126.476h13.572c2.722 0 7.26.536 7.26 6.889 0 6.084-4.208 7.116-8.188 7.116h-12.623v-14.005m-.02 18.748h13.2c6.559 0 7.24 3.96 7.24 7.364 0 1.547.164 7.796.948 10.333h6.683v-.928c-1.692-.97-1.96-1.836-2.022-4.125l-.37-7.467c-.207-5.733-2.497-6.765-4.807-7.775 2.537-1.527 5.59-3.775 5.59-9.839 0-8.704-6.62-11.035-13.262-11.035h-18.646v41.17h5.466v-17.698zm36.032.351c0-4.661 3.61-8.993 8.168-8.993 6.002 0 7.92 4.332 8.209 8.993h-16.377zm16.15 7.962c-.186 2.248-2.929 5.899-7.59 5.899-5.652 0-8.54-3.61-8.54-9.86h21.472c0-10.642-4.146-17.531-12.623-17.531-9.735 0-14.128 7.425-14.128 16.748 0 8.642 4.867 14.995 13.159 14.995 4.723 0 6.6-1.155 7.982-2.042 3.692-2.537 5.033-6.786 5.198-8.21h-4.93zm27.453-.99c0 4.022-4.497 7.074-9.075 7.074-3.754 0-5.363-1.96-5.363-5.239 0-3.795 3.877-4.537 6.311-4.867 6.126-.825 7.343-1.28 8.147-1.919v4.95zm-13.572-10.499c.371-2.31 1.155-5.816 6.765-5.816 4.682 0 6.93 1.732 6.93 4.888 0 2.99-1.402 3.444-2.598 3.568l-8.168 1.031c-8.188 1.032-8.91 6.89-8.91 9.406 0 5.156 3.815 8.663 9.199 8.663 5.734 0 8.704-2.744 10.622-4.847.186 2.268.846 4.558 5.218 4.558 1.135 0 1.857-.33 2.702-.578v-3.65l-1.63.226c-1.01 0-1.629-.515-1.629-1.773v-17.285c0-7.693-8.539-8.394-10.89-8.394-7.26 0-11.922 2.825-12.128 10.003h4.517zm30.258 20.873h-4.93v-41.169h4.93v41.17zm47.975 0h-7.879V144.4c0-4.537-1.96-6.022-4.249-6.022-3.898 0-5.321 2.64-5.321 6.25v18.294h-7.9v-18.336c0-2.599 0-6.208-4.702-6.208-3.713 0-4.868 2.64-4.868 5.96v18.584h-7.879v-30.505h7.528v4.455c1.135-2 3.3-5.26 8.58-5.26 4.311 0 6.312 1.61 8.313 4.868 1.01-1.485 3.197-4.867 7.961-4.867 5.837 0 10.396 3.506 10.396 10.21v21.1zm21.43-10.952c0 3.733-3.527 6.023-7.012 6.023-1.527 0-3.672-.846-3.672-3.672 0-3.32 2.434-4.063 5.342-4.579 3.26-.536 4.58-1.051 5.342-1.67v3.898zm7.714-11.53c0-7.528-7.714-8.827-11.9-8.827-6.147 0-12.5 1.299-13.387 10.663h7.59c.227-1.794.908-4.249 4.827-4.249 2.021 0 5.156.186 5.156 3.568 0 1.712-1.485 2.228-2.743 2.393l-7.075 1.093c-5.012.743-8.745 3.795-8.745 9.756 0 6.311 4.62 8.91 9.096 8.91 5.383 0 7.9-2.537 9.694-4.434.165 1.712.289 2.165.743 3.61h8.456v-1.218c-.949-.35-1.732-1.134-1.732-4.744v-16.52zm11.014 7.467c0-4.806 1.692-9.344 6.704-9.344 5.404 0 6.744 4.93 6.744 9.798 0 4.537-1.96 8.786-6.971 8.786-5.074 0-6.477-5.63-6.477-9.24zm20.997-26.154h-7.879v14.624c-1.361-1.96-3.733-4.764-8.807-4.764-6.538 0-12.396 5.156-12.396 15.716 0 8.354 3.713 16.418 12.54 16.418 3.28 0 6.766-1.217 8.704-4.682l.104 3.857h7.714v-41.169zm4.662 10.664h7.528v5.28c1.753-3.114 3.548-6.084 8.312-6.084l1.506.103v8.167l-2.228-.123c-6.126 0-7.28 3.898-7.28 7.28v15.862h-7.859v-30.485zm19.82 0h7.88v30.505h-7.88v-30.505zm7.88-3.61h-7.88v-7.487h7.88v7.487zm11.53 19.1c0-4.806 1.69-9.344 6.703-9.344 5.404 0 6.724 4.93 6.724 9.798 0 4.537-1.96 8.786-6.972 8.786-5.053 0-6.455-5.63-6.455-9.24zm20.997-26.154h-7.88v14.624c-1.36-1.96-3.712-4.764-8.786-4.764-6.559 0-12.417 5.156-12.417 15.716 0 8.354 3.734 16.418 12.561 16.418 3.26 0 6.766-1.217 8.684-4.682l.103 3.857h7.714v-41.169z" fill="#fff" fill-rule="evenodd"/>
</svg>
