<svg width="654.28" height="481.36" viewBox="0 0 654.28 481.364" xmlns="http://www.w3.org/2000/svg">
    <path d="M194.85 480.74c-.359-.359-2.081-.612-3.827-.562-1.997.056-4.775-1.011-7.488-2.878-4.747-3.266-16.178-8.905-18.054-8.907-.654 0-2.679 1.368-4.5 3.041-2.281 2.095-3.935 2.858-5.312 2.453-1.1-.323-4.562-.852-7.694-1.175-4.663-.48-6.271-.221-8.883 1.432l-3.189 2.02-12.774-5.979-3.503 2.673c-1.927 1.47-4.195 2.529-5.04 2.353-1.409-.292-3.385-3.358-6.33-9.818-1.029-2.258-1.097-2.282-.707-.25.574 2.985-.248 2.833-4.076-.755-2.114-1.982-4.233-2.995-6.263-2.995-1.687 0-4.074-.52-5.304-1.156a173.043 173.043 0 0 0-3.737-1.874c-1.556-.745-1.894-5.214-.611-8.084.551-1.234.02-1.755-2.254-2.21-3.775-.754-4.445-2.926-3.006-9.742 1.374-6.51 1.37-6.767-.32-19.391l-1.334-9.957-4.237-2.042c-4.737-2.283-5.153-3.407-2.238-6.045 2.764-2.501 2.501-6.131-.657-9.058-1.46-1.354-2.473-2.591-2.25-2.75.224-.158 1.592-.794 3.04-1.414 2.03-.87 2.88-2.23 3.716-5.953 1.921-8.546 2.467-16.24 1.255-17.7-.853-1.028-.772-1.655.333-2.572.803-.667 1.974-2.77 2.602-4.671.942-2.854.86-3.888-.472-5.92-.887-1.354-2.278-2.462-3.09-2.462-1.725 0-1.807-.41-.548-2.764 2.669-4.992 5.071-11.102 5.071-12.897 0-2.333-2.93-5.339-5.204-5.339-.889 0-1.781-1.176-2.099-2.766-.41-2.054-1.729-3.337-5.125-4.987-4.033-1.959-6.058-4.247-3.76-4.247 1.103 0 .915-7.146-.235-8.933-.761-1.184-1.04-1.098-1.598.493-.603 1.72-.846 1.598-2.252-1.122-1.49-2.88-5.292-5.438-8.084-5.438-.695 0-2.699 1.404-4.453 3.119s-3.197 2.728-3.205 2.25c-.009-.478-.346-.367-.75.245-.87 1.318-9.02.322-13.951-1.705-2.946-1.21-3.42-1.13-5.644.96l-2.428 2.28-4.174-2.13c-2.37-1.208-5.53-1.997-7.312-1.824-3.032.295-3.23.069-5.832-6.654-1.481-3.828-3.638-7.725-4.794-8.66-2.674-2.166-3.136-11.88-.565-11.88 1.16 0 1.303-.433.585-1.776-.612-1.142-.587-2.426.068-3.596.706-1.262.68-2.16-.085-2.925-.654-.654-1.103-5.09-1.103-10.904 0-8.455.273-10.073 1.993-11.793 2.546-2.546 2.484-9.271-.125-13.625-1.481-2.472-1.86-5.062-1.825-12.5.024-5.16.41-11.269.856-13.576.446-2.307.46-4.557.032-5-.43-.443-.419-2.752.024-5.132.442-2.38.434-9.325-.018-15.434l-.822-11.107 3.048-3.471c2.49-2.836 2.95-4.08 2.508-6.798-.297-1.83-.12-3.586.395-3.904.513-.318.934-1.419.934-2.447 0-3.977 2.494-4.924 12.775-4.847 5.348.04 11.116.533 12.816 1.097 2.419.802 4.158.63 8-.791 2.7-.999 5.451-2.227 6.115-2.73.663-.502 1.585-.68 2.05-.393s6.895.61 14.293.718c7.398.108 14.26.615 15.25 1.126.988.511 4.363 1.058 7.5 1.215 3.628.182 7.519 1.201 10.701 2.803 2.75 1.384 6.716 3.072 8.813 3.751 3.313 1.073 4.061 1.01 5.71-.482 1.425-1.29 2.798-1.548 5.52-1.037 2.534.475 4.331.215 5.981-.866 4.362-2.858 10.651-4.553 12.742-3.434 2.768 1.481 6.436.242 8.472-2.863 1.596-2.435 1.81-6.887 2.262-47.234l.5-44.545 25.434-.268c30.416-.32 33.47.243 41.015 7.56 5.048 4.894 8.052 11.873 8.052 18.708 0 9.71-6.736 20.341-15.228 24.035-2.35 1.022-4.434 1.97-4.632 2.105-.197.136 3.403 5.102 8 11.037 8.166 10.54 8.372 10.941 8.86 17.284l.5 6.493 4.391.745c2.415.41 4.778.507 5.25.215.473-.292.86-20.311.86-44.486V53.366l62.5.528v14l-44 1-.287 9.73-.286 9.73 41.572.54v15l-41 1v22l44 1 .592 13.5h8.908v-88h24.322c28.59 0 31.366.567 37.62 7.672 8.012 9.102 7.357 24.231-1.366 31.526-1.142.955-2.612 1.751-3.267 1.77-2.54.07-2.291 2.089.38 3.098 11.152 4.213 15.879 20.533 9.56 33.004-1.597 3.154-4.173 6.371-6.147 7.68l-3.398 2.25h21.296V53.365l62.5.529v14l-44 1-.286 9.73-.286 9.73 41.572.54v15l-41 1v22l44 1 .298 6.25.298 6.25h7.883l.26-43.25.261-43.25h18l.232 35.5c.127 19.525.24 36.063.25 36.75.027 1.855 6.578 1.547 8.527-.402.908-.908 7.096-8.795 13.75-17.526 7.294-9.57 12.965-16.092 14.28-16.422 1.202-.301 3.709-.402 5.572-.224l3.389.324.295 6.749.296 6.75-13.434 17.936c-9.92 13.245-13.047 18.085-11.955 18.504.813.312 1.888.315 2.388.005.5-.309 1.472-.212 2.16.216s2.825.885 4.75 1.015c1.925.131 5.662.53 8.305.887 3.768.508 5.21.281 6.685-1.053 1.572-1.423 3.65-1.655 12.695-1.418 5.948.156 11.884-.074 13.19-.51 1.492-.5 2.632-.38 3.066.324.509.823 1.57.813 4.01-.038 2.286-.797 6.931-.927 14.934-.419 6.388.406 12.065.718 12.615.693 22.573-1.002 36.01-.853 37.956.422 2.451 1.606 9.096 1.943 18.092.916 5.572-.636 6.291-.485 9.144 1.916 1.703 1.433 3.618 2.605 4.254 2.605.637 0 1.632 1.36 2.211 3.021s1.964 3.509 3.076 4.104c1.982 1.06 1.97 1.132-.605 3.52-1.445 1.34-2.628 3.023-2.628 3.74 0 1.569 3.188 4.615 4.829 4.615 2.203 0 1.387 8.14-1.079 10.768-1.994 2.124-2.262 3.498-2.356 12.064-.138 12.583.067 11.811-3.463 13.041-2.57.896-3.017 1.522-2.75 3.848.198 1.727 1.17 3.151 2.569 3.765 1.304.572 2.25 1.869 2.25 3.083 0 1.153.315 2.411.7 2.796.384.385.564 3.047.398 5.917s-.274 6.23-.241 7.467c.033 1.237.038 2.925.012 3.75-.1 3.095.006 11.565.164 13.25.09.962-.584 3.751-1.497 6.197-1.548 4.143-1.549 4.699-.003 8.126 1.644 3.647 1.633 3.715-1.304 7.77-1.63 2.249-3.238 5.792-3.574 7.873-.337 2.081-2.473 7.384-4.747 11.784s-4.872 10.121-5.772 12.714c-1.228 3.539-3.122 5.97-7.593 9.75-6.357 5.374-7.544 5.925-7.544 3.504 0-.842-.787-1.822-1.75-2.177s-1.975-.903-2.25-1.218c-.542-.623-7.772-4.073-8.533-4.073-.256 0-.47.562-.474 1.25-.01 1.526-4.528 3.762-5.67 2.806-.452-.379-2.744-1.519-5.094-2.534-4.175-1.804-4.304-1.802-5.718.066-1.389 1.835-1.452 1.812-1.58-.588-.122-2.263-.234-2.189-1.187.786-.677 2.113-1.623 3.2-2.648 3.045-.877-.133-2.634.331-3.904 1.03-1.4.772-3.524 1.005-5.4.593-2.755-.605-3.001-.477-2.26 1.183 1.51 3.385.855 7.694-1.398 9.19-1.173.78-2.133 2.037-2.133 2.795 0 2.234-3.8 5.378-6.5 5.378-1.375 0-2.5.45-2.5 1s1.375 1 3.056 1h3.057l-1.734 2.934c-1.406 2.382-1.497 3.219-.48 4.444 1.657 1.997 2.514 22.419 1.016 24.223-.596.719-1.877 2.862-2.846 4.762-1.732 3.397-1.722 3.506.593 6.464 3.39 4.33 3.93 8.218 1.554 11.153-1.622 2.004-1.787 3.001-.983 5.963.531 1.956 1.66 4.338 2.51 5.294.85.956 1.592 3.244 1.65 5.084.077 2.4.956 4.077 3.107 5.924l3 2.578.25 23.838c.227 21.631.108 23.654-1.29 21.843-1.23-1.594-1.708-1.722-2.378-.638-.918 1.485-6.092 2.775-15.975 3.984-4.879.597-6.834 1.328-8.257 3.086l-1.866 2.303-5.09-2.19c-2.799-1.204-5.695-1.957-6.435-1.673-.74.284-2.688.131-4.33-.34-2.41-.69-3.334-.469-4.803 1.155-1.548 1.71-2.767 1.95-8.181 1.605l-6.362-.405-4.182 8.608-9.051.158c-4.978.086-9.726.05-10.551-.08s-3.75-.575-6.5-.99c-16.846-2.543-21.544-3.385-26.231-4.705-4.066-1.145-5.713-1.215-7.394-.316-1.664.89-3.078.856-6.127-.15-3.78-1.248-4.254-1.151-10.228 2.072l-6.264 3.38-4.604-1.758c-2.533-.967-5.096-1.455-5.696-1.084-.616.38-1.329-.235-1.637-1.415-.659-2.519-2.32-1.798-2.32 1.006 0 1.1.45 1.722 1 1.382s1-.25 1 .2-.847 1.349-1.884 1.996c-1.47.918-2.938.86-6.66-.26-6.643-1.999-13.46-1.793-20.634.625l-6.117 2.06-4.183-2.22c-2.3-1.22-4.597-3.155-5.102-4.3-.505-1.146-2.391-2.987-4.191-4.092-2.776-1.704-3.224-2.502-2.951-5.259.36-3.63-.955-4.532-1.457-1-.263 1.852-.861 2.199-3.38 1.962-2.61-.247-3.925.616-8.925 5.858-5.756 6.035-5.937 6.134-9.939 5.444-2.242-.386-6.776-1.017-10.076-1.401-3.3-.384-7.44-1.467-9.2-2.406-4.403-2.348-6.542-2.145-9.376.89-2.85 3.054-8.132 5.869-12.615 6.722-2.815.536-3.427.225-5.2-2.644-1.928-3.12-8.815-7.824-12.251-8.369-.904-.143-3.379 1.529-5.5 3.716-2.558 2.637-4.738 3.977-6.473 3.977-1.438 0-3.845.969-5.348 2.151-2.255 1.774-2.888 1.905-3.62.75-.487-.77-.893-1.73-.901-2.135-.008-.405-2.725-2.104-6.037-3.776-5.056-2.552-6.116-2.795-6.607-1.514-.322.839-1.115 1.525-1.763 1.525-1.681 0-4.609 5.338-4.609 8.405 0 2.267-.415 2.595-3.284 2.595-1.807 0-5.846-.9-8.975-2-7.355-2.585-9.422-2.521-15.891.49-5.29 2.463-8.903 3.123-10.17 1.858zm12.393-10.347c.51 0 .927-.675.927-1.5s-.675-1.5-1.5-1.5c-1.05 0-1.466.976-1.384 3.25.063 1.788.321 2.463.573 1.5.252-.962.874-1.75 1.384-1.75zm-86.616-15.931c.316-.512.118-1.214-.441-1.559s-1.016.073-1.016.93c0 1.757.6 2.016 1.457.629zm236.23-1.257c-.32-.797-.556-.56-.604.605-.044 1.054.193 1.644.525 1.312s.368-1.195.079-1.917zm-137.65-10.1c.528-1.216 1.845-6.001 2.928-10.633 1.083-4.63 2.546-8.792 3.252-9.248.706-.455 8.66-.716 17.674-.58l16.39.249 1.396 5c.768 2.75 1.855 6.8 2.416 9 1.709 6.705 3.379 8.485 7.717 8.226l3.794-.226-.398-28.5-.398-28.5-6.404-21.393c-3.522-11.766-6.403-21.78-6.403-22.25 0-.471 3.117-.857 6.926-.857 5.323 0 7.036.352 7.398 1.52.33 1.06.422.984.307-.25-.146-1.553-1.143-1.741-8.149-1.536-22.963.673-22.728.645-23.559 2.766-.608 1.552-.799 1.63-.853.347-.083-1.939-5.16-2.535-17.218-2.022-6.901.294-7.697.538-8.148 2.5-.274 1.196-1.508 5.775-2.741 10.175s-2.6 9.8-3.038 12-1.715 7.375-2.838 11.5c-8.024 29.491-8.495 32.016-8.849 47.394-.188 8.192-.14 15.42.107 16.063.288.75 3.545 1.223 9.09 1.319 8.034.139 8.709-.006 9.601-2.063zm8.963-35.657c0-1.069 2.475-12.714 5.5-25.878s5.5-24.214 5.5-24.556c0-.342.675-.622 1.5-.622s1.5.682 1.5 1.516c0 1.744 4.42 18.402 9.62 36.26 1.966 6.75 3.32 12.938 3.01 13.75-.46 1.195-3.037 1.474-13.598 1.474-12.239 0-13.03-.118-13.03-1.944zm2.625-55.18c-.891-4.46-.804-4.882.875-4.237.926.355 1.5 1.875 1.5 3.968 0 4.258-1.542 4.432-2.375.268zm52.141 79.124c.249-12.579.068-14.114-2.648-22.5l-2.915-9-.203 45.202 5.5-.201zm39.554 13.431c1.21-.463 1.412-2.363 1.096-10.25-.83-20.678-1.21-64.18-.56-64.18.637 0 2.114 2.43 11.144 18.348 1.925 3.394 4.257 7.29 5.183 8.66s2.777 4.43 4.113 6.8l2.43 4.309.7-3.309c.384-1.82.925-5.755 1.201-8.745s.923-6.223 1.438-7.185c.514-.96.935-4.166.935-7.122 0-5.14-.575-6.313-13.144-26.816-7.229-11.793-14.057-23.016-15.172-24.941-3.428-5.918-4.76-7-8.62-7-3.071 0-4.504.87-9.345 5.673-4.634 4.597-5.719 6.293-5.719 8.941 0 1.798-.457 3.55-1.016 3.896s-.799.98-.533 1.41c.265.43.777 23.001 1.136 50.159.582 43.977.832 49.512 2.283 50.617 1.667 1.269 19.534 1.854 22.45.735zm64.618-40.93c-.107-22.55-.474-49.776-.816-60.5l-.622-19.5h-24l.111 15c.098 13.248.302 14.983 1.75 14.86.902-.076 1.64.262 1.64.75s-.676.89-1.5.89c-2.157 0-2.24 4.503-.452 24.5.59 6.6 1.159 13.078 1.263 14.398.37 4.702-1.901 2.988-6.82-5.146l-4.992-8.253-.24 4c-.442 7.365-2.388 18.45-3.728 21.238-.73 1.52-1.594 3.887-1.92 5.262s-.328 1.919-.005 1.208c.74-1.628 4.867 4.758 16.152 25.004 2.058 3.692 4.416 6.91 5.241 7.151.825.242 5.468.371 10.317.288l8.817-.151-.195-41zm32.947 38.25c.572-1.788 1.77-6.517 2.66-10.51 1.111-4.977 2.217-7.578 3.52-8.275 1.123-.601 8.295-.904 17.55-.741l15.652.275 2.233 7c1.228 3.85 2.554 8.348 2.947 9.995 1.03 4.318 2.362 5.505 6.176 5.505h3.378l.086-22.75c.047-12.512.429-21.623.848-20.246s.682 9.702.585 18.5c-.097 8.798.019 17.91.258 20.246l.433 4.25h8.79v-10.759c0-9.926-.354-11.92-4.573-25.75-2.516-8.245-4.991-15.418-5.5-15.94-.51-.523-.927-1.96-.927-3.193 0-2.065-2.175-9.735-10.1-35.608l-2.986-9.75h-7.957c-6.406 0-7.957.293-7.957 1.5 0 .825-.45 1.5-1 1.5s-1-.675-1-1.5c0-1.25-1.99-1.5-11.917-1.5-6.564 0-12.066-.423-12.25-.943-.184-.519-4.271-1.19-9.083-1.492-7.315-.458-8.75-.305-8.75.935 0 1.213 1.599 1.45 8.75 1.301 9.997-.208 9.705-.604 6.798 9.2-1.95 6.573-1.994 6.74-3.928 15-.837 3.574-2.466 10.1-3.62 14.5s-2.324 9.124-2.6 10.5-1.59 6.55-2.917 11.5c-1.845 6.88-2.532 12.507-2.918 23.895-.277 8.193-.266 15.28.025 15.75.29.47 4.516.854 9.39.854h8.864l1.04-3.25zm8.137-33.5c.011-.413 1.595-7.726 3.52-16.25s4.43-19.776 5.567-25c1.91-8.768 3.192-12.034 4.295-10.93.24.24 2.246 7.41 4.457 15.932s5.172 19.441 6.58 24.262c4.007 13.721 4.855 12.735-10.94 12.735-7.425 0-13.49-.337-13.48-.75zm46.058-10.834c.048-1.165.285-1.401.604-.604.289.722.253 1.585-.079 1.917-.332.332-.568-.258-.525-1.313zm-42.846-45.399c-.827-3.256-.756-4.017.374-4.017.902 0 1.399 1.145 1.409 3.25.011 2.466.249 2.888.984 1.75.534-.825.977-.993.985-.373.008.62-.603 1.64-1.358 2.268-1.11.92-1.57.367-2.394-2.878zm133.57 86.232l.298-6.25h-17.976c-15.01 0-18.236-.259-19.548-1.571-1.36-1.36-1.59-6.037-1.702-34.75-.072-18.248-.41-41.729-.75-52.179l-.62-19-26.668-.56.785 54.78c.432 30.13.676 56.992.542 59.695-.157 3.158.218 5.21 1.049 5.742.71.456 15.468.72 32.793.586l31.5-.243zm-431.03-22c.147-13.888.633-25.25 1.08-25.25.819 0 5.935 6.679 9.653 12.597 1.1 1.752 5.189 7.847 9.086 13.544s8.466 12.384 10.153 14.86c6.519 9.566 7.222 10 16.213 10h8.048l-.062-16.5-15.531-21.958c-8.64-12.216-15.346-22.642-15.114-23.5.23-.848 7.007-11.566 15.062-23.817l14.645-22.274v-12.953h-19.96l-7.02 10.538c-3.861 5.797-7.02 10.724-7.02 10.95 0 .227-2.813 4.674-6.25 9.883s-7.477 11.531-8.976 14.05c-1.499 2.519-3.187 4.579-3.75 4.579-.655 0-1.072-6.225-1.155-17.25-.072-9.487-.41-20.625-.75-24.75l-.62-7.5h-26l.062 11.5c.034 6.325.17 28.15.302 48.5.318 49.054.425 45.548-1.364 44.862-1.246-.478-1.5.625-1.5 6.531 0 5.651.308 7.107 1.5 7.107.937 0 1.552-1.032 1.637-2.75.132-2.674.147-2.68.549-.25.859 5.202.494 5.078 14.045 4.78l12.77-.28zm-27.535 14.75c0-1.925.206-2.712.457-1.75.252.963.252 2.538 0 3.5-.251.963-.457.175-.457-1.75zm91.267 10.002c.34-.549-.028-1.919-.817-3.045-1.255-1.792-1.511-1.844-2.058-.42-1.033 2.693-.709 4.464.817 4.464.793 0 1.719-.45 2.058-.999zm78.693-55.663c-.954-2.619-1.035-2.451-1.046 2.161-.008 4.185.16 4.648 1.035 2.84.722-1.494.726-3.038.01-5zm77.677-15.589c1.258-9.645 1.118-25.914-.194-22.462-.462 1.217-.636 4.102-.386 6.412.25 2.31-.148 8.16-.883 13-1.618 10.659-1.647 11.3-.51 11.3.493 0 1.381-3.713 1.973-8.25zm-78.153-17.5c-.23-1.512-.417-.275-.417 2.75s.188 4.263.417 2.75c.229-1.512.229-3.987 0-5.5zm209.74-9.18c.458-.741-3.27-1.026-12.148-.928-13.222.147-11.321 1.102 3.338 1.679 5.05.198 8.4-.087 8.81-.75zm-267.74-.69c-1.148-1.148-16.713-1.55-16.713-.43 0 .653 3.275 1.05 8.667 1.05 4.766 0 8.387-.279 8.046-.62zm63.018-.073c-.973-.253-2.323-.236-3 .037-.677.274.119.482 1.769.461 1.65-.02 2.204-.244 1.23-.498zm179.02-1.72c.509-.508-2.975-11.177-4.355-13.337-1.361-2.13-2.083-2.25-13.522-2.25-10.213 0-11.997.228-11.521 1.468.31.808.133 1.734-.393 2.06-.526.324-.956-.366-.956-1.535 0-1.72-.515-2.065-2.697-1.809-2.35.276-2.925 1.084-4.486 6.316-2.759 9.246-2.715 9.354 3.933 9.7 5.996.313 33.567-.185 33.997-.614zm-202.06-6.837c-1.146-3.987-2.557-7.58-3.135-7.984-.578-.404-6.339-.742-12.801-.75-9.785-.013-11.75.235-11.75 1.484 0 .825-.436 1.5-.969 1.5-.532 0-.725-.634-.427-1.41.685-1.785-3.39-3.205-4.89-1.703-.914.913-4.605 13.012-4.688 15.364-.014.412 9.147.75 20.36.75h20.384zm19.232-8.164c.107-9.803-.212-15.649-.875-16.059-.708-.437-1.043 4.52-1.043 15.414 0 8.833.393 16.06.875 16.06s.95-6.937 1.043-15.415zm30.082-2.179c0-.284-2.128-.38-4.729-.211-4.618.297-4.736.387-5.01 3.804-.5 6.237.422 6.51 5.242 1.551 2.473-2.545 4.497-4.86 4.497-5.144zm157.81 2.067c-.308-.308-.867.247-1.243 1.233-.542 1.425-.428 1.54.56.56.684-.678.99-1.485.683-1.793zm-14.238-2.239c1.092-.751 13.43-20.735 13.43-21.753 0-.31-3.696-.432-8.215-.272l-8.216.29-2.623 8.5c-4.623 14.98-4.643 14.003.286 13.986 2.348-.008 4.75-.346 5.338-.75zm-220.89-2.422c-.32-.798-.556-.56-.604.604-.044 1.054.193 1.645.525 1.313.332-.333.368-1.195.079-1.917zm179.01-6.544c-.254-.973-.478-.419-.498 1.231-.02 1.65.187 2.446.46 1.77.275-.678.291-2.028.038-3zm-200.1-1.014c-1.076-1.075-1.647.431-.892 2.352.709 1.802.762 1.805 1.112.065.203-1.006.103-2.093-.22-2.417zm25.326-1.255c-.036-.989-.348-.818-.915.5-1.18 2.75-1.18 4.328 0 2.5.534-.825.945-2.175.915-3zm200.29 1.053c.238-1.62.064-2.72-.387-2.44-.801.495-1.194 5.387-.432 5.387.212 0 .581-1.326.819-2.947zm-266.33-5.025c2.653-1.446-.462-1.842-7.888-1.003-4.12.465-10.078.586-13.24.268-3.83-.385-5.75-.214-5.75.51 0 .598 2.137 1.274 4.75 1.502 6.06.53 20.324-.294 22.128-1.277zm261.82-2.224c1.814-1.758 3.297-3.558 3.297-4 0-1.627-2.963-.741-4 1.196-1.775 3.318-2.51 2.285-2.31-3.25l.188-5.25-1.076 5c-.592 2.75-1.715 5.374-2.494 5.831-1.104.647-1.157 1.145-.24 2.25 1.74 2.098 2.98 1.766 6.635-1.777zm5.297.196c0-1.1-.632-2-1.406-2-.914 0-1.223.7-.883 2 .287 1.1.92 2 1.406 2s.883-.9.883-2zm-256.31-4.761c-.25-.957-.446.061-.434 2.261s.215 2.982.455 1.739.23-3.044-.02-4zm432.28 3.011c-.026-2.359-.175-2.5-1.054-.992-.563.967-.747 2.205-.41 2.75 1.034 1.673 1.496 1.118 1.465-1.758zm-263.97-12.809c0-6.118-.36-9.336-1-8.94-.55.34-1 4.64-1 9.558 0 5.294.408 8.941 1 8.941.597 0 1-3.853 1-9.559zm131.62 1.465c-.26-3.352-.73-6.352-1.045-6.667-.758-.758-.712 7.64.058 10.511 1.068 3.984 1.472 2.409.987-3.844zm-138.68-.271c-.95-.876-1.084-.717-.584.697.356 1.008.708 2.583.783 3.5.075.918.338.604.585-.697.247-1.301-.106-2.876-.784-3.5zm-325.27 1.91c0-.802-.375-1.225-.833-.942-.458.284-.833.939-.833 1.456s.375.941.833.941.833-.655.833-1.456zm66.016-.732c-.319-.798-.556-.561-.604.604-.043 1.054.193 1.645.526 1.312.332-.332.367-1.194.078-1.916zm263.32 1.187c0-.55-.45-1-1-1s-1 .45-1 1 .45 1 1 1 1-.45 1-1zm-161.95-22.234c3.264 5.714 7.74 9.176 16.068 12.428 4.253 1.66 8.316 2.198 19.381 2.562 16.544.543 23.571-.538 32.5-5.005 5.931-2.966 6.785-3.806 9.75-9.588l3.25-6.338v-49.484c0-42.045-.219-49.704-1.46-50.944-1.154-1.154-4.028-1.4-13.75-1.178l-12.29.28v102.66l-3.374 3.02c-3.272 2.927-3.63 3.008-11.728 2.671-7.45-.31-8.638-.632-10.99-2.984-1.53-1.53-2.988-4.466-3.478-7-.464-2.4-.917-17.639-1.008-33.864-.091-16.225-.448-37.375-.794-47l-.628-17.5h-25l.22 3c.12 1.65.474 24.375.786 50.5.387 32.461.243 47.025-.454 46-.712-1.046-.96 3.038-.82 13.5l.203 15 .314-12.983.314-12.983zm-111.27 13.724c8.215-1.936 13.185-4.548 17.063-8.965l3.156-3.594v-32.63l-2.848-3.93c-4.772-6.589-11.637-11.877-29.728-22.902-18.103-11.032-21.936-14.343-22.967-19.839-1.474-7.86 4.059-16.42 10.868-16.813 14.862-.857 17.918 2.719 18.1 21.183l.073 7.5 26.5.558-.008-3.279c-.02-7.69-2.173-21.212-3.92-24.607-1.91-3.711-5.52-7.493-10.044-10.518-3.122-2.088-3.77-2.073-4.338.097-.357 1.366-.483 1.274-.573-.417-.161-3.002-6.928-4.333-22.03-4.333-11.846 0-20.186 1.03-25.354 3.132l-2.768 1.126.535 47.242 7 4.615c3.85 2.539 11.275 6.99 16.5 9.891 9.696 5.385 18.995 13.191 19.006 15.955.004.846.715 2.888 1.582 4.538 1.825 3.477 1.16 14.145-1.162 18.642-1.454 2.815-5.902 4.858-10.574 4.858-1.568 0-2.851.44-2.851.977 0 .586 6.899 1.096 17.25 1.275 9.487.164 1.993.4-16.655.524l-33.905.224 1.905 2.146c6.391 7.197 33.798 11.208 50.186 7.344zm260.73.424c3.235-.598 7.593-1.772 9.684-2.61 3.154-1.26 3.802-2.005 3.802-4.361v-2.84l-63.352-.148 1.926 2.13c1.06 1.17 3.5 2.928 5.426 3.904 3.029 1.536 5.888 2.296 16.5 4.386 4.332.853 20.45.567 26.014-.461zm267.73.2c6.503-.926 15.113-4.241 19.245-7.41 1.795-1.376-1.125-1.531-30-1.59l-31.988-.064 2.785 2.29c7.158 5.889 24.968 8.908 39.959 6.773zm-432.99-1.776c-.802-.323-1.25-2.623-1.25-6.42v-5.917h-14.808c-10.341 0-15.284-.377-16.383-1.25-1.381-1.097-1.652-7.619-2.202-53.113-.346-28.525-.875-52.262-1.177-52.75-.908-1.47-26.408-1.12-26.549.363-.182 1.908.148 30.09.589 50.25.216 9.9.463 29.025.548 42.5.096 15.195.549 24.975 1.191 25.75.79.952 8.201 1.231 31.163 1.17 16.57-.043 29.565-.305 28.878-.583zm227.12-37.088c-.072-20.488.176-37.25.551-37.25.376 0 1.672 1.913 2.88 4.25s4.874 8.75 8.144 14.25 7.2 12.198 8.734 14.885l2.789 4.886.773-3.386c.426-1.861.939-5.635 1.14-8.385s.872-6.267 1.493-7.815c.62-1.548 1.129-4.87 1.129-7.383 0-4.035-1.187-6.508-10.166-21.185a7762.555 7762.555 0 0 1-15.61-25.617c-6.244-10.323-7.443-11.5-11.712-11.5-2.49 0-4.398 1.292-9.617 6.511l-6.511 6.512.296 20.738c.163 11.406.477 34.952.697 52.324.308 24.35.711 32.087 1.76 33.777 1.287 2.07 1.97 2.177 12.363 1.915l11-.277zm64.176-22.5c-.399-33.138-1.06-60.603-1.468-61.034-.409-.43-5.88-.656-12.16-.5l-11.415.285.028 15c.025 13.57.191 14.987 1.75 14.86 2.152-.173 2.196.573.122 2.09-1.96 1.432-2.063 7.802-.416 25.515.638 6.856 1.18 12.706 1.206 13 .454 5.201-1.65 3.632-6.717-5.01-2.594-4.425-4.868-7.894-5.053-7.709-.185.185-.547 3.468-.805 7.295-.615 9.133-1.688 15.46-2.621 15.46-.413 0-1.217 1.836-1.787 4.08s-.789 3.834-.487 3.532c.5-.5 4.376 5.408 9.44 14.387 1.085 1.925 3.065 5.3 4.399 7.5s3.096 5.428 3.915 7.173c1.794 3.824 2.583 4.063 13.909 4.211l8.883.116zm81.458 55.8c0-2.148.614-3.794 1.628-4.361 1.113-.623 1.271-1.132.5-1.609-.62-.383-1.128-1.56-1.128-2.616 0-1.81-1.02-1.933-18.25-2.19l-18.25-.273v-41l35-1 .32-3.905c.175-2.147.054-4.96-.27-6.25-.588-2.344-.599-2.345-17.37-2.345-11.719 0-17.143-.362-17.981-1.2-.802-.803-1.2-5.248-1.2-13.417 0-8.836-.346-12.357-1.25-12.724-.962-.39-.928-.732.147-1.483.948-.662 1.218-2.082.84-4.412-.307-1.89-.24-3.95.147-4.577.477-.771 6.688-1.23 19.16-1.414l18.455-.274.305-5.33c.469-8.191.52-8.17-18.928-8.17-14.336 0-16.878.226-16.878 1.5 0 .825-.45 1.5-1 1.5s-1-.675-1-1.5c0-1.262-2.222-1.5-14-1.5h-14v2.417c0 1.33.563 2.645 1.25 2.924.997.404.994.688-.012 1.4-.958.677-1.099 3.527-.584 11.826.374 6.013.701 23.628.729 39.143.027 15.515.395 27.665.818 27 .423-.665.775 1.153.784 4.04.01 3.517.428 5.255 1.265 5.266.938.011.918.225-.08.859-1.049.664-1.192 3.37-.675 12.735.36 6.54.833 12.453 1.05 13.14.302.964 7.275 1.25 30.423 1.25h30.031zm-62-43.55c0-.55.45-1 1-1s1 .45 1 1-.45 1-1 1-1-.45-1-1zm3.103-46.596c-2.539-2.919-2.136-5.377 1.527-9.327l2.383-2.57-.187 6.8c-.103 3.74-.488 6.985-.856 7.212-.368.228-1.658-.724-2.867-2.115zm-1.088-15.154c.012-2.142.23-2.418.984-1.25 1.265 1.957 1.265 4 0 4-.55 0-.993-1.237-.984-2.75zm23.143-7.25c0-1.375.227-1.937.504-1.25s.278 1.813 0 2.5-.504.125-.504-1.25zm33.842-1.03c0-1.084.6-1.97 1.333-1.97s1.333.656 1.333 1.457-.6 1.688-1.333 1.97c-.833.319-1.333-.228-1.333-1.458zm-59 113.83c0-1.616-.296-1.905-1.113-1.088-.612.612-.81 1.602-.441 2.2 1.034 1.674 1.554 1.302 1.554-1.113zm-123.91-18.3c.057-6.05.223-13.026.368-15.5.27-4.602-1.538-9.989-4.054-12.077-1.204-.999-1.403 2.149-1.372 21.704l.036 22.872 2.459-3c2.263-2.761 2.467-3.876 2.563-14zm272.16 13.776c-1.788-.222-3.25-.601-3.25-.844 0-.242.9-2.119 2-4.171 1.925-3.593 2-5.642 2-54.88v-51.148l-2.25-.603c-1.238-.332-4.388-.61-7-.617-4.404-.013-4.75.169-4.75 2.486 0 1.375-.373 2.5-.83 2.5s-.793-1.012-.75-2.25c.07-1.997-.47-2.284-4.81-2.56-2.689-.17-5.334.134-5.878.678-1.038 1.039-1.137 29.341-.254 73.132.32 15.872.12 25.64-.565 27.734-1.263 3.86-5.27 7.266-8.548 7.266-1.419 0-2.365.59-2.365 1.476 0 1.233 2.84 1.526 17.25 1.775 9.487.165 18.6.328 20.25.364 2.822.06 2.807.04-.25-.339zm-67.25-1.477c0-.933.266-.933 1.2 0 .813.814 5.489 1.2 14.5 1.2 11.582 0 13.3-.208 13.3-1.616 0-1.124-.61-1.458-2-1.094-1.1.288-2 .146-2-.316 0-.461-.905-1.126-2.011-1.477-3.627-1.151-4.99-5.618-4.99-16.365 0-5.482-.272-10.68-.606-11.55-.5-1.302-2.446-1.582-11-1.582H554.19l-.116 4.25c-.11 4.07-.302 5.658-.814 6.75-.888 1.893-.994 6.387-.174 7.375.617.744.64 1.744.062 2.659-1.458 2.305-1.115 7.798.657 10.502 1.682 2.567 4.385 3.346 4.385 1.265zm.252-11.3c-.011-2.2.185-3.217.435-2.261s.26 2.756.02 4c-.24 1.244-.444.461-.455-1.739zm-.094-13.5c0-1.375.227-1.937.504-1.25s.277 1.813 0 2.5-.504.125-.504-1.25zm-537.4 6.23l-.256-18.771-4.224.078c-2.324.043-4.563.417-4.976.83-1.099 1.099-.473 18.228.9 24.633 1.398 6.52 4.605 11.97 7.056 11.988 1.621.011 1.736-1.424 1.5-18.758zm29.244 17.85c0-.506-1.294-1.205-2.875-1.552-3.642-.8-6.893-4.235-8.155-8.617-.54-1.876-1.271-8.44-1.625-14.586l-.642-11.176-14.708-.648.003 18.75.002 18.75h14c7.861 0 14-.404 14-.92zm233.18-2.995c-.206-2.154.106-4.741.693-5.75.846-1.455 1.073-.646 1.097 3.915l.03 5.75h14c13.178 0 17.795-.99 10.974-2.355-7.076-1.415-9.974-8.572-9.974-24.635 0-4.89-.351-9.108-.78-9.374-.43-.265-3.917-.594-7.75-.732l-6.97-.25.15 12.923c.09 7.646-.188 12.107-.68 10.923-.456-1.1-.861-6.972-.9-13.049l-.07-11.049-7.2.84.564 5.13c1.616 14.666 1.835 22.683.661 24.098-.972 1.171-.784 2.06.95 4.495 1.188 1.67 2.93 3.035 3.87 3.035 1.383 0 1.637-.744 1.334-3.915zm61.82-18.388v-22.304l-3.25-3.105c-1.787-1.708-11.438-8.117-21.446-14.243-20.177-12.35-22.303-14.49-22.303-22.462 0-9.427 5.008-13.938 15.373-13.843 10.445.095 13.387 4.658 13.547 21.011l.08 8.25h18l.044-14.25c.028-9.073.518-15.576 1.348-17.9 1.654-4.63 2.211-31.36.674-32.31-.737-.455-1.066 4.139-1.066 14.879v15.537l-4.742-3.007c-4.393-2.787-4.834-2.881-6-1.287-1.155 1.579-1.258 1.544-1.258-.42 0-1.82-.903-2.319-6-3.322-3.3-.649-6-1.342-6-1.54 0-.197 2.475-4.79 5.5-10.206 3.025-5.415 5.5-10.145 5.5-10.51s-2.137-.654-4.75-.64l-4.75.023-4.628 9.726-4.63 9.727-9.257-19.5h-4.993c-2.745 0-4.992.152-4.992.337 0 .186 2.677 5.019 5.949 10.74l5.949 10.4-8.2 1.187c-4.509.653-9.435 1.66-10.948 2.236l-2.75 1.05v17.69c0 9.73-.296 17.396-.657 17.035-.36-.36-.623-5.273-.582-10.917.04-5.643-.227-13.05-.594-16.46l-.667-6.2-2.272 1.72c-1.977 1.498-2.395 3.083-3.217 12.2-1.558 17.293-1.322 23.314 1.03 26.304 2.817 3.582 15.237 12.044 28.959 19.732 12.752 7.145 20.345 13.912 21.466 19.134.39 1.82.936 6.157 1.21 9.638.83 10.484-2.066 14.838-10.54 15.842-10.013 1.186-4.925 2.33 10.364 2.33h15.5zm-61.614-44.135c-.304-.792-.079-2.254.5-3.25.896-1.539 1.058-1.323 1.084 1.44.032 3.428-.66 4.219-1.584 1.81zm-236.1 60.439c-.288-1.1-.92-2-1.407-2-.486 0-.883.9-.883 2s.633 2 1.406 2c.914 0 1.224-.7.884-2zm262.71.559c0-.793-.45-1.72-1-2.059s-1 .309-1 1.441.45 2.059 1 2.059 1-.648 1-1.441zm276-.559c0-1.1-.45-2-1-2s-1 .9-1 2 .45 2 1 2 1-.9 1-2zm-539.5-4c.34-.55.141-1-.441-1s-1.06.45-1.06 1 .2 1 .442 1 .719-.45 1.059-1zm429.18-12.188c-.32-.798-.556-.56-.604.604-.044 1.054.192 1.645.525 1.313s.368-1.195.079-1.917zm-128.58-34.032c-.121-6.177-.419-11.429-.662-11.672-1.301-1.302-1.527 1.851-.882 12.332.394 6.39.952 11.382 1.24 11.094.288-.288.424-5.577.304-11.754zm77.413-6.28c1.001-5.187 1.293-29.217.322-26.593-.407 1.101-.965 7.084-1.24 13.296-.275 6.213-.776 13.321-1.112 15.796-.743 5.473.875 3.48 2.03-2.5zM20.97 180.696l-.283-11.806-4.317 4.364c-2.375 2.4-4.803 5.55-5.395 7-1.661 4.065-2.575 12.292-1.737 15.631a292.968 292.968 0 0 1 1.393 5.842c.35 1.56 2.757 5.104 5.347 7.875l4.71 5.038.282-11.068c.155-6.087.155-16.38 0-22.875zm331.99 15.906c-.375-7.912-1.057-11.977-2.558-15.25l-2.046-4.462-.168 30.5h5.283zm-175.11 6.538c-.278-.687-.505-.125-.505 1.25s.227 1.938.505 1.25.277-1.812 0-2.5zm.07-13.974c-.21-2.352-.386-.676-.39 3.724-.004 4.4.17 6.324.384 4.276.215-2.048.218-5.648.007-8zm-.046-10.538c-.25-.956-.446.062-.434 2.262s.215 2.982.455 1.738.23-3.043-.02-4zm195.38-8.305c2.715-2.786 4.936-5.23 4.936-5.429s-2.363-.282-5.25-.183l-5.25.18-.303 5.25c-.166 2.887-.024 5.25.315 5.25.34 0 2.838-2.28 5.553-5.068zm-300.38-8.12c-.319-.798-.556-.561-.604.604-.043 1.054.193 1.645.526 1.312s.367-1.194.078-1.916zm408.32-3.754c0-1.067-.45-2.219-1-2.559-.567-.35-1 .49-1 1.941 0 1.408.45 2.56 1 2.56s1-.874 1-1.942zm23.493.953c.35-.567-.05-.735-.94-.393-1.733.664-2.05 1.381-.611 1.381.517 0 1.215-.445 1.551-.988zm-429.49-9.075c0-1-.45-2.097-1-2.437s-1 .084-1 .941c0 .858-.407 1.56-.906 1.56s-.668.909-.378 2.02c.416 1.588.824 1.776 1.907.878.757-.63 1.378-1.962 1.378-2.962zm261.92-.246c-.043-1.755-.335-2.516-.65-1.69s-.968 1.76-1.454 2.08c-1.156.758.118 4.077 1.288 3.354.493-.304.86-1.989.817-3.744zm277.06 1.452c-.008-.904-.451-2.318-.984-3.143-.829-1.282-.972-1.245-.985.25-.008.963-.423 1.75-.922 1.75s-.679.869-.401 1.93c.6 2.296 3.315 1.646 3.292-.787zm27.015.416c0-.792-.45-1.719-1-2.059s-1 .309-1 1.441.45 2.06 1 2.06 1-.65 1-1.442zm-186.4-4.838c.115-.671.525-2.008.912-2.971.387-.962.258-1.75-.287-1.75-.985 0-2.184 3.21-2.21 5.917-.015 1.62 1.272.649 1.585-1.196zm4.831-3.835c-.813-1.316-2.143-1.074-2.748.5-.372.972.042 1.238 1.382.887 1.053-.275 1.668-.9 1.366-1.387zm-253.77-.494c1.958-.525.911-2.209-11.029-17.736l-13.192-17.156h-15.942v34l14.5.542c7.975.298 16.525.63 19 .737 2.475.107 5.474-.067 6.664-.386zm142.22-16.5c5.336-1.86 7.834-10.035 4.98-16.297-2.003-4.397-6.34-5.595-20.262-5.595h-12.6v23h12.352c6.792 0 13.782-.499 15.53-1.108zm-147.29-38.198c3.447-4.01 3.459-12.738.023-16.173-3.156-3.156-6.607-3.673-22.112-3.318l-13 .297-.288 9.93c-.159 5.46-.049 10.553.245 11.318.432 1.126 3.593 1.33 16.627 1.071l16.094-.318zm147.96-2.148c3.175-3.176 3.468-11.072.545-14.685-1.835-2.268-2.437-2.361-15.25-2.361h-13.34l-.573 19.5h13.082c12.556 0 13.18-.099 15.536-2.455zm-347.23 151.7c-.342-.963-.812-2.2-1.043-2.75-.23-.55.289-.127 1.155.94 1.572 1.94 2.046 3.56 1.042 3.56-.292 0-.811-.788-1.154-1.75zm480.37-157.9c-.375-.376-.682-3.7-.682-7.389 0-7.728-1.058-6.451 19.767-23.86 13.616-11.384 17.233-16.328 17.233-23.55 0-6.105-1.88-9.199-6.295-10.36-3.795-.998-9.38.055-11.492 2.168-.828.828-1.785 3.223-2.126 5.323l-.62 3.818h-15.967l.149-4.59c.275-8.528 6.795-17.212 15.016-19.998 5.04-1.708 17.83-1.73 22.672-.04 4.996 1.745 10.235 6.409 12.956 11.533 1.691 3.186 2.164 5.76 2.132 11.595-.068 12.027-3.76 17.465-22.437 33.058l-10.113 8.442 34.626 1v13l-27.068.266c-14.887.146-27.375-.041-27.75-.417z"/>
    <g fill="#fff">
        <g stroke-width="1.011">
            <path d="M37.716 286.746c-7.96-1.668-11.48-2.98-15.3-5.7-3.156-2.247-3.767-3.951-1.417-3.951.94 0 1.259-.589.87-1.602-.458-1.193-.81-1.284-1.383-.358-1.35 2.185-4.046.104-6.215-4.798-1.408-3.183-2.45-8.699-3.146-16.65-1.205-13.774-.75-15.02 5.478-15.02h3.922l.303 9.607 1.214-9.102h6.863c4.588 0 7.136.442 7.686 1.333.453.733 1.11 6.333 1.46 12.445.774 13.528 2.425 17.69 7.934 20.002 2.115.888 3.85 1.934 3.856 2.326.006.392-3.061.872-6.816 1.066-3.754.195-1.137.361 5.815.37 6.952.009 10.468-.155 7.812-.364-4.867-.383-5.823-2.29-1.147-2.29 7.8 0 11.404-4.517 11.791-14.78.5-13.284-3.674-18.125-28.568-33.129l-15.675-9.447-1.077-39.218-.34 15.675c-.186 8.621-.628 17.021-.98 18.667l-.642 2.993-4.663-5.878C9.549 201.629 7.76 195 9.317 186.58c1.223-6.617 1.2-6.57 6.576-13.077l4.126-4.994 1.278 5.942.12-2.833c.16-3.808 4.313-5.471 17.039-6.824 14.417-1.532 33.644.257 33.644 3.13 0 .496.695.635 1.544.31 2.093-.804 8.836 4.021 11.982 8.574 2.704 3.913 5.688 17.613 5.688 26.12v4.448l-26.798-.564-.55-10.73c-.64-12.475-1.983-15.413-7.784-17.024-8.713-2.42-15.228-.333-18.405 5.895-3.786 7.42-2.246 13.643 4.714 19.047 2.102 1.632 10.649 7.237 18.992 12.455 10.33 6.461 17.507 11.802 22.5 16.747l7.332 7.26v34.424l-4.96 4.46c-7.15 6.428-12.977 8.139-28.917 8.489-8.311.183-15.564-.218-19.72-1.088zM106.6 284.816c-1.526-1.838-3.504-116.98-2.036-118.46 1.146-1.152 24.611-1.403 25.742-.276.407.405 1.122 22.93 1.589 50.057.467 27.126 1.096 50.756 1.397 52.51s1.256 3.46 2.121 3.792 7.906.603 15.647.603h14.075l.014 4.298c.008 2.364.288 5.322.623 6.573l.61 2.276h-29.32c-23.495 0-29.549-.274-30.464-1.376zM205.08 287.576c-11.47-2.85-18.244-7.075-22.762-14.2l-2.944-4.641-.294 8.981c-.162 4.94-.294-18.209-.294-51.44v-60.423l24.546-.002.587 4.298c.323 2.364.846 22.728 1.16 45.254.695 49.601.788 50.727 4.54 54.925 2.68 3 3.355 3.221 10.891 3.564 7.823.355 8.131.28 11.723-2.874l3.689-3.24v-101.73l9.354-.36c13.382-.517 15.88-.095 17.01 2.872.532 1.402.94 23.451.94 50.842v48.367l-3.286 5.923c-3.008 5.42-3.97 6.266-11.325 9.968l-8.04 4.045-16.736.184c-9.206.102-17.647-.04-18.76-.317zM298.62 286.636c-6.618-1.496-15.156-5.933-15.932-8.28-.23-.694.26-1.263 1.087-1.263 1.182 0 1.387-.921.956-4.298-.73-5.717-1.281-6.116-1.281-.927 0 4.782-1.566 5.489-4.64 2.093-1.648-1.822-1.883-3.496-1.668-11.882.138-5.369-.12-12.576-.572-16.015-.765-5.813-.677-6.292 1.259-6.812 5.47-1.47 5.53-1.366 5.877 10.284l.326 10.87.43-22.031 7.271.676c4 .372 7.508.911 7.796 1.198.287.288.814 5.624 1.17 11.857.374 6.544 1.309 12.882 2.21 14.995 1.685 3.944 5.18 6.959 8.07 6.959.989 0 1.797.434 1.797.965s-3.071 1.124-6.826 1.319c-3.754.194.228.35 8.849.348 8.62-.003 12.148-.16 7.837-.35-4.31-.19-7.837-.78-7.837-1.314 0-.532 1.152-.968 2.56-.968 4.967 0 9.558-2.747 11.213-6.709 1.857-4.442 1.12-16.043-1.355-21.363-2.008-4.315-9.049-9.827-23.453-18.359-14.128-8.369-23.66-15.271-25.981-18.813-1.489-2.272-1.64-4.53-1.133-16.976.57-14.013 1.648-19.598 4.082-21.145 2.313-1.47 2.718-.749 2.818 5.02.18 10.387 1.711 11.728 1.821 1.596l.101-9.276 3.287-1.056c1.807-.581 6.459-1.552 10.336-2.156s7.142-1.193 7.256-1.307c.113-.113-2.26-4.525-5.273-9.804-3.013-5.28-5.482-9.94-5.486-10.357-.004-.417 2.207-.759 4.914-.759h4.922l9.143 18.708 8.636-18.708h4.897c2.693 0 4.897.304 4.897.675s-2.306 4.99-5.124 10.264c-5.607 10.493-5.583 10.69 1.434 11.875 2.68.452 4.098 1.282 4.442 2.599.393 1.5.814 1.678 1.88.794 1.052-.874 2.443-.514 5.944 1.538l4.57 2.678v-14.706c0-9.13.384-14.706 1.012-14.706 1.302 0 1.268 23.152-.044 29.327-.532 2.503-1.264 11.263-1.626 19.467l-.66 14.916h-17.896l-.025-7.331c-.029-8.644-1.477-15.698-3.734-18.192-4.146-4.582-15.594-4.447-20.846.246-2.63 2.35-3.117 3.594-3.505 8.958l-.45 6.228 4.42 4.35c2.431 2.392 11.701 8.986 20.6 14.652 8.9 5.668 17.44 11.351 18.98 12.631l2.798 2.327-.27 26.24-.271 26.242-5.562 1.934c-7.463 2.594-30.898 3.195-40.45 1.036zm-14.479-78.498c-.323-.807-.562-.567-.61.61-.045 1.067.194 1.664.53 1.328.336-.336.372-1.208.08-1.938zM370.37 284.616c-1.007-1.212-1.529-13.762-2.256-54.214l-.945-52.637 5.417-5.529c6.107-6.232 10.236-8.779 12.874-7.941 3.197 1.015 6.686 5.768 18.586 25.322 17.306 28.437 17.195 28.199 16.573 35.394-.585 6.762-3.275 23.695-3.857 24.277-.206.206-5.099-7.789-10.873-17.766s-10.884-18.14-11.355-18.14-.856 16.382-.856 36.405v36.405h-11c-8.73 0-11.27-.325-12.31-1.577zM367.39 169.896v-5.057h11.552l-4.98 5.057c-2.74 2.78-5.339 5.056-5.777 5.056-.438 0-.796-2.275-.796-5.056zM438.02 284.926c-.854-.695-5.306-7.748-9.893-15.672s-8.754-14.663-9.26-14.976c-1.412-.873-1.083-4.667.697-8.034.882-1.668 2.082-7.685 2.666-13.37.585-5.684 1.395-10.13 1.802-9.879.407.252 2.67 3.651 5.028 7.555s4.755 7.098 5.325 7.098c.664 0 .802-2.093.385-5.815-1.471-13.125-1.937-32.216-.836-34.273.821-1.534.799-2.386-.086-3.27-.765-.766-1.336-6.285-1.584-15.325l-.388-14.127h24.239l.606 5.815c.334 3.198.916 30.502 1.294 60.676l.688 54.86h-9.566c-6.15 0-10.12-.45-11.117-1.263zM478.99 283.936c-.424-.684-1.09-8.762-1.484-17.95-.393-9.189-.952-17.39-1.242-18.223-.291-.835-.818-19.037-1.17-40.45-.354-21.413-.727-40.071-.83-41.462l-.188-2.528h13.244c9.337 0 13.708.385 14.818 1.306 1.287 1.067 1.654 1.067 2.01 0 .331-.995 4.294-1.306 16.629-1.306 19.147 0 19.538.164 19.538 8.213v5.439l-11.377.132c-6.258.072-14.79.414-18.961.758l-7.585.626-.519 4.551c-.285 2.503-.058 10.691.506 18.195l1.024 13.644 3.034.647c1.669.355 9.235.7 16.815.766 15.847.138 16.335.38 15.857 7.878l-.311 4.883-34.383 1.01-.274 20.479-.274 20.478 16.96.015c9.328.008 17.415.35 17.971.759s1.56 1.728 2.23 2.932c.986 1.77.938 2.422-.252 3.41-.81.672-1.472 2.531-1.472 4.132v2.91h-29.772c-22.463 0-29.961-.306-30.541-1.244zm4.693-96.91c0-6.573-.916-7.035-3.612-1.82-1.43 2.764-1.427 3.272.03 5.497 2.57 3.922 3.582 2.884 3.582-3.676zm-3.354-10.242c-.323-.807-.562-.567-.61.61-.045 1.067.194 1.664.53 1.328.336-.336.372-1.208.08-1.938zm57.962-8.406c0-.835-.455-1.517-1.011-1.517s-1.012.682-1.012 1.517.456 1.517 1.012 1.517 1.011-.683 1.011-1.517zM577.73 287.576c-9.67-1.84-20.198-6.38-20.219-8.716-.004-.417 8.715-.758 19.376-.758s19.124-.258 18.81-.574c-.316-.315-9.442-.564-20.28-.553-25.049.026-23.354 1.392-22.519-18.145.338-7.909.897-14.836 1.242-15.394.787-1.273 19.505-.16 20.909 1.243.544.544 1.274 6.211 1.623 12.595.708 12.969 1.669 15.008 7.874 16.722 4.592 1.268 10.023-.56 12.806-4.311 2.096-2.824 2.115-3.41 1.774-52.828l-.345-49.972 2.368-.891c3.72-1.401 8.969-.21 9.967 2.261l.868 2.15.064-2.168c.085-2.89 2.412-3.626 8.9-2.815l5.39.673-.287 52.212c-.26 47.375-.45 52.51-2.047 55.43-1.734 3.17-1.727 3.223.506 3.654 1.246.24-.465.544-3.802.675-4.16.164-5.3.454-3.624.922l2.445.684-2.445 1.587c-6.47 4.203-14.458 6.228-25.703 6.515-6.118.157-12.262.068-13.652-.197zM403.92 445.256l-3.415-.438.548-16.865.548-16.865 8.175-31.851c4.497-17.518 8.175-32.421 8.175-33.12 0-.879-1.935-1.271-6.32-1.281-7.132-.016-10.871-.774-10.871-2.204 0-.58 3.145-.761 7.837-.45 31.72 2.11 33.806 2.334 34.715 3.748.805 1.25 1.063 1.244 1.893-.047.663-1.031 3.27-1.611 8.412-1.87l7.452-.377 5.197 17.04c2.858 9.372 5.928 19.897 6.822 23.389.894 3.492 3.637 12.46 6.095 19.93 5.11 15.533 6.752 24.484 6.32 34.47l-.303 7.005h-9.101l-1.076-40.45-.22 20.004c-.241 21.804-.328 22.096-5.991 20.208-3.011-1.004-3.732-2.487-7.379-15.184l-2.106-7.332H443.89c-11.499 0-15.923.355-17.339 1.39-1.203.88-2.866 5.052-4.533 11.377l-2.633 9.987-6.025.112c-3.314.061-7.562-.086-9.44-.327zm48.161-36.323c1.542-.413 2.275-1.377 2.275-2.989 0-2.968-12.006-47.127-13.132-48.303-1.14-1.19-1.679.735-7.587 27.153l-5.202 23.259 4.112.607c5.747.847 16.813 1.002 19.534.272zm-17.348-55.138c.447-.724.278-.893-.446-.446-.766.473-1.167-.168-1.167-1.866 0-1.424-.455-2.588-1.012-2.588-1.16 0-1.222.624-.373 3.792.666 2.487 1.87 2.932 2.998 1.108zM421.13 340.916c-1.531-.97-.968-5 1.604-11.488 1.134-2.86 2.08-3.792 3.848-3.792 1.382 0 2.534.726 2.807 1.77.44 1.685.468 1.685.58 0 .104-1.58 1.408-1.77 12.128-1.77 8.889 0 12.308.357 13.152 1.374.628.756 2.053 4.025 3.168 7.266 1.589 4.618 1.752 6.066.753 6.7-1.72 1.092-36.309 1.036-38.04-.06zM441.8 323.746c-.567-.916 3.95-17.5 5.61-20.602.787-1.47 2.36-1.778 9.103-1.778h8.15l-3.273 5.815c-1.8 3.198-5.046 8.431-7.213 11.629-3.667 5.413-4.212 5.815-7.887 5.815-2.171 0-4.192-.396-4.49-.88zM499.44 442.686c-.254-1.252-.717-28.328-1.03-60.17l-.568-57.895h27.3l.096 6.826c1.074 76.97 1.562 98.318 2.26 99.019.463.463 9.104 1.07 19.203 1.348 20.67.57 19.71.115 18.42 8.714l-.664 4.432H499.9zM365 441.166c-1.328-2.086-5.671-9.367-9.653-16.18-3.981-6.814-7.65-12.388-8.153-12.388s-.01-2.68 1.095-5.953c1.106-3.275 2.57-10.41 3.255-15.858l1.244-9.905 4.84 7.768c2.664 4.272 5.318 7.767 5.9 7.767.693 0 .827-2.171.388-6.32-1.964-18.585-2.353-30.639-1.074-33.321.958-2.01.995-2.833.14-3.117-.782-.26-1.275-5.228-1.509-15.22l-.347-14.832h24.199l.61 5.814c.335 3.199.918 30.502 1.296 60.676l.686 54.861h-20.506zM305.53 445.236c-2.598-.207-5.247-1.006-5.886-1.776-1.665-2.006-3.488-97.147-2-104.33.902-4.348 1.984-6.064 6.531-10.365 4.46-4.218 6.106-5.154 9.06-5.154 2.372 0 4.214.702 5.37 2.048 2.465 2.869 24.974 39.655 28.733 46.957 3.452 6.706 3.486 9.18.37 26.839-.833 4.727-1.527 8.823-1.54 9.101-.03.652-2.425-3.29-12.9-21.236-4.707-8.065-9.025-15.118-9.596-15.675-.709-.69-.842 10.603-.419 35.678l.618 36.69-2.577.98c-2.51.954-6.092 1.008-15.765.24zM297.81 328.416c.309-4.277.331-4.3 4.608-4.609 2.364-.171 4.298.078 4.298.553 0 1.062-7.37 8.354-8.444 8.354-.426 0-.634-1.934-.463-4.298zM200.9 443.456c-.335-.87-.37-8.966-.077-17.99l.53-16.406 8.12-31.235c4.466-17.18 8.625-31.741 9.243-32.36 1.492-1.495 20.47-2.12 23.015-.759 1.331.713 2.305.723 2.996.031 1.322-1.321 30.14-2.524 30.902-1.29.332.537-2.61.762-7.032.539-7.04-.356-7.56-.244-7.024 1.502.317 1.037 3.277 10.987 6.576 22.11l5.999 20.226.394 28.568.394 28.568h-3.675c-4.685 0-6.394-1.927-8.525-9.607-.926-3.338-2.14-7.547-2.697-9.355l-1.014-3.286-15.849.015c-8.717.01-16.473.41-17.235.894-.762.483-2.59 5.368-4.062 10.856l-2.676 9.977-8.848.293c-7.277.24-8.956.011-9.456-1.29zm49.433-34.54c3.19-.528 3.792-1.024 3.792-3.128 0-1.375-2.73-12.302-6.067-24.282s-6.068-22.399-6.068-23.154-.594-1.373-1.32-1.373c-.901 0-3.002 7.633-6.611 24.017-2.91 13.21-5.274 24.782-5.253 25.717.02.942 1.053 1.895 2.313 2.138 3.666.706 15.101.744 19.214.064zm-18.376-60.352c-.78-.78-1.09-.216-1.09 1.977 0 3.992 1.419 5.42 1.849 1.861.182-1.511-.16-3.239-.759-3.838zM221.64 340.936l-2.654-.639 1.31-5.056c2.203-8.494 3.29-10.618 5.438-10.618 1.099 0 2.412.74 2.92 1.646.63 1.126 1.144 1.286 1.626.506.46-.743 4.886-1.141 12.708-1.141h12.003l1.953 5.31c1.074 2.92 2.253 6.56 2.62 8.09l.667 2.78-17.969-.12c-9.883-.065-19.163-.407-20.623-.758zM111.03 442.266c-1.113-.28-2.549-1.18-3.19-2.002-.78-.996-1.39-1.13-1.84-.403-.37.598-1.096.826-1.614.506-1.333-.824-1.192-13.357.156-13.806.771-.257 1.062-15.88.981-52.67l-.115-52.304h26.087l.627 3.792c.345 2.086.68 9.253.745 15.927.065 6.675.416 16.231.78 21.236l.662 9.102 8.08-12.39a4202.175 4202.175 0 0 0 16.168-25.028l8.088-12.64h20.735v12.658l-14.167 21.734c-7.792 11.953-14.417 22.517-14.722 23.475-.732 2.293 2.246 7.228 17.326 28.71l12.575 17.915v17.12l-8.1-.47c-6.737-.39-8.528-.87-10.64-2.854-1.397-1.312-8.9-11.74-16.672-23.173-16.086-23.66-16.968-24.868-17.647-24.19-.273.273-.805 11.503-1.183 24.956l-.687 24.459h-7.297c-4.014 0-8.606.19-10.205.424-1.6.233-3.818.194-4.93-.086z"/>
        </g>
        <g stroke-width=".253">
            <path d="M348.19 277.206c-.235-4.363.05-37.413.338-39.246.291-1.852.614-2.104 1.548-1.21 1.11 1.064 2.466 3.837 3.05 6.237.492 2.022.509 2.626.365 12.992-.157 11.35-.424 17.055-.873 18.626-.296 1.04-1.764 3.295-3.254 5.003l-.985 1.128zM346.72 231.456c-.27-.858-.89-8.06-1.2-13.952-.306-5.793-.184-8.698.384-9.168.655-.545.913.419 1.153 4.32.285 4.64.299 18.082.019 18.8l-.198.505zM348.16 198.786c.09-4.693.172-11.547.179-15.232l.012-6.7 1.144 2.402c2.682 5.634 3.165 8.652 3.835 23.954l.18 4.108h-5.518zM345.81 300.876c-.537-1.002-.846-8.016-.544-12.344.29-4.156.505-5.403.959-5.554.438-.146.609.628.878 3.976.255 3.162.1 10.304-.275 12.675-.245 1.553-.614 2.004-1.019 1.247zM308.79 272.206c-.668-.488-.851-2.715-.264-3.202.387-.322.502-.284 1.038.34.733.851.801 2.185.143 2.78-.389.352-.531.364-.918.082zM45.84 272.056c-.482-.39-.598-.725-.598-1.731 0-2.19.987-2.603 1.907-.799.644 1.262.646 2.409.006 2.751-.635.34-.62.343-1.316-.221zM45.22 266.846c-.199-.788.262-1.387 1.065-1.387.742 0 .77.476.077 1.356-.655.833-.94.84-1.143.03z"/>
        </g>
        <g stroke-width=".126">
            <path d="M25.267 218.076c-1.892-1.139-2.24-1.395-2.244-1.65-.002-.166-.084-.366-.183-.443-.152-.118-.202-1.964-.32-11.643-.125-10.303-.436-24.047-.547-24.158-.023-.023-.113 3.44-.2 7.697-.22 10.927-.447 16.76-.846 21.77-.1 1.252-.181 2.897-.182 3.656v1.381l-.633-.593v.338c0 .186-.042.334-.095.33-.153-.011-6.838-8.478-7.653-9.691-.964-1.437-1.541-2.587-1.838-3.66-.131-.474-.449-1.545-.706-2.379-.765-2.483-.992-4.045-1.002-6.89-.01-2.656.125-3.877.812-7.364.933-4.734 1.191-5.18 7.194-12.438 2.357-2.85 3.233-3.828 3.263-3.644.091.568.142.615.407.375.248-.225.25-.213.254 1.278.005 1.704.397 3.94.542 3.085.041-.243.098-.957.126-1.586.04-.859.126-1.299.349-1.77.163-.344.327-.812.365-1.039.063-.382.162-.456 1.332-1 3.098-1.436 6.554-2.285 12.01-2.947 8.09-.983 15.507-1.135 24.396-.502 5.625.4 8.79 1.004 10.934 2.082.891.449 1.182.712 1.33 1.2.196.652.743.68 1.235.064.63-.79 1.34-.577 3.987 1.195 4.619 3.092 7.632 6.187 9.62 9.88.955 1.776 1.615 4.17 2.662 9.655 1.306 6.848 1.644 9.975 1.644 15.193v3.58l-1.106-.003c-.608 0-6.169-.113-12.356-.25s-11.648-.251-12.135-.253c-.487-.002-.953-.048-1.037-.101-.109-.07-.246-1.895-.474-6.287-.176-3.405-.38-6.93-.451-7.833-.732-9.22-2.123-11.904-6.965-13.444-2.647-.842-5.334-1.221-7.885-1.113-5.33.225-8.99 2.57-11.252 7.208-3.141 6.442-2.204 11.937 2.872 16.843.655.634 1.728 1.55 2.384 2.035 2.327 1.723 9.424 6.378 17.69 11.602a522.215 522.215 0 0 1 4.99 3.18l.631.424-38.677-.022zM72.314 163.686c-.14-.522-.071-1.551.126-1.87.175-.284.549.442.61 1.185.096 1.153-.468 1.678-.736.685zM13.47 296.126c-.376-.377-.393-.802-.057-1.46.391-.767 1.002-.995 1.279-.477.33.617.04 1.975-.463 2.169-.33.126-.431.095-.759-.232zM80.341 295.896c-.123-.49-.009-2.027.155-2.081.404-.134.729 1.534.414 2.123-.178.332-.48.309-.569-.042zM119.36 455.136c-.118-.22-.202-1.057-.166-1.651.023-.393.445-.787.755-.706.427.112.802.618.816 1.103.024.845-1.094 1.842-1.406 1.254zM145.94 309.726c-1.546-.15-3.345-.555-4.073-.918-.732-.364-.843-.726-.329-1.063.3-.196.625-.229 2.252-.226 1.046.002 2.737.073 3.758.158 3.476.29 8.113.16 13.312-.373 3.3-.337 7.146-.39 7.702-.104.203.104.391.255.417.336.07.217-.588.777-1.166.991-1.005.373-4.048.766-8.343 1.08-2.45.178-12.047.263-13.531.119zM178.54 305.986c-.13-.325-.13-3.939-.001-4.4.313-1.126.688 1.382.475 3.183-.148 1.257-.302 1.653-.475 1.217zM178.58 291.526c-.054-.383-.108-5.986-.121-12.451-.02-9.965.004-11.891.163-12.641.16-.756.18-2.66.138-13.052l-.049-12.167h26.837v1.232c.001 1.857.235 9.482.381 12.42.284 5.69.58 8.48 1.134 10.686.565 2.25 1.353 3.55 3.404 5.624 2.198 2.22 3.805 2.57 12.588 2.735 3.215.061 3.923.041 4.647-.13 1.075-.255 1.96-.7 2.97-1.488l.79-.619v16.4l-1.043.082c-1.563.121-11.15.092-14.252-.044-1.495-.066-4.478-.18-6.629-.256l-3.91-.136-2.22-.568c-5.234-1.34-9.712-3.255-13.47-5.761-3.814-2.543-5.385-4.356-9.553-11.025l-.94-1.502-.082 1.755c-.18 3.793-.4 10.242-.54 15.786-.096 3.773-.182 5.57-.244 5.12zM177.44 205.666c-.133-.493-.09-2.378.06-2.658.142-.265.143-.265.309.04.262.481.334 1.503.154 2.192-.18.688-.405.871-.524.426zM177.69 197.886c-.279-.447-.23-9.757.05-9.757.202 0 .313 2.013.298 5.373-.015 3.314-.128 4.739-.349 4.384zM177.54 183.066c-.156-.25-.123-4.326.036-4.61.132-.237.146-.231.275.106.223.587.298 2.359.146 3.433-.145 1.026-.284 1.351-.458 1.07zM72.385 153.586c-.342-.522-.576-1.38-.574-2.1.002-.821.068-.964.53-1.14.458-.173.714-.6.81-1.349.1-.793.346-1.192.735-1.192.615 0 1.336 1.373 1.336 2.546 0 .555-.391 1.67-.797 2.272-.35.52-1.292 1.25-1.612 1.25-.132 0-.325-.13-.428-.287zM335.67 153.866c-.622-.25-1.288-1.856-1.109-2.671.043-.195.346-.628.672-.962.327-.334.766-.943.975-1.353.209-.41.446-.768.526-.795.231-.077.352.777.344 2.433-.008 1.652-.25 2.786-.693 3.228-.274.274-.315.281-.716.12z"/>
        </g>
        <g stroke-width=".253">
            <path d="M422.6 217.196c.085-1.305.268-3.624.406-5.154s.432-6.08.653-10.113c.416-7.6.996-14.103 1.302-14.597.433-.7.56 1.18.576 8.53.018 8.68-.294 15.065-.895 18.33-.478 2.592-1.357 5.1-1.843 5.26-.296.097-.33-.284-.2-2.256zM453.21 148.836c-.322-.838.562-4.635 1.367-5.875.203-.313.584-.569.846-.569.596 0 .644 1.072.11 2.46a22.12 22.12 0 0 0-.652 2.09c-.475 1.887-1.311 2.834-1.672 1.894zM456.77 144.596c-.232-.603.58-1.924 1.292-2.103.683-.171 1.629.451 1.629 1.071 0 .817-2.646 1.751-2.922 1.032zM342.39 296.056c-.394-.474-.257-1.147.305-1.5.876-.552 1.862.69 1.19 1.5a.97.97 0 0 1-1.496 0zM340.23 296.746c-.087-.526-.364-1.668-.617-2.538-.507-1.748-.368-2.117.464-1.231.741.79 1.081 2.084.89 3.386-.208 1.408-.541 1.58-.738.383zM423.69 308.446c-1.298-1.297-1.393-1.862-.448-2.649.96-.799 1.913-2.85 2.55-5.486 1.355-5.604 1.245-5.537 1.197-.726-.044 4.398.12 5.797.662 5.628.169-.053.751-.758 1.295-1.567 1.057-1.573 2.715-2.6 3.695-2.29 1.06.337.59 1.281-1.966 3.951-3.951 4.129-5.362 4.763-6.986 3.139zM433.59 307.866c-.546-.625-1.023-2.238-.836-2.828.473-1.488 2.407-.437 2.407 1.308 0 1.74-.747 2.464-1.572 1.52zM433.24 316.016c-.222-.578.045-3.647.394-4.53.215-.544.365-.662.574-.453.362.362.336 2.237-.052 3.856-.326 1.357-.667 1.777-.917 1.127z"/>
        </g>
        <path d="M408.52 317.756c-.216-.68-.192-3.08.034-3.504.19-.355.434.477.481 1.642.035.863-.035 1.46-.212 1.8-.103.2-.25.23-.304.062z" stroke-width=".063"/>
        <path d="M463.45 327.986c.185-.94.93-2.212 1.294-2.212.677 0 .39 1.078-.527 1.975-.625.61-.856.682-.768.237z" stroke-width=".089"/>
        <path d="M432.43 341.716c-7.469-.078-9.415-.193-10.88-.642-.352-.107-.433-.153-.661-.37a1.968 1.968 0 0 1-.576-1.06c-.065-.344-.023-1.755.07-2.39.255-1.738.831-3.785 1.799-6.392.449-1.21 1.09-2.782 1.318-3.235.582-1.156 1.268-1.734 2.31-1.948.913-.187 2.14-.228 2.565-.086.22.073.505.32.611.528.047.091.11.295.14.453s.1.389.154.512c.054.123.142.394.196.603.14.544.273.939.315.939.057 0 .083-.155.136-.805.062-.769.131-1.013.355-1.26.096-.105.228-.256.292-.335.382-.467 1.585-.66 4.872-.78 1.88-.067 12.104-.067 13.854.001 2.656.104 3.895.279 4.737.67.148.07.474.282.726.473.356.27.504.416.666.66.277.416.85 1.578 1.365 2.761l.417.961.023 10.342-.146.024c-.426.07-3.258.216-5.71.293-4.178.133-11.199.164-18.949.083zM414.66 359.896c.117-.343 2.617-10.667 2.989-12.348.313-1.41.326-1.52.212-1.702-.244-.39-.89-.634-2.107-.796-.966-.129-1.633-.162-4.134-.203-2.828-.048-4.077-.1-5.497-.227-2.223-.201-3.975-.587-4.645-1.024-.506-.329-.791-.729-.721-1.008.029-.116.256-.256.503-.309a.413.413 0 0 0 .19-.089c.094-.113.57-.291.988-.37.365-.069.679-.08 2.3-.077 1.032 0 2.29.027 2.793.057 2.258.134 3.162.193 3.933.256 1.724.14 3.41.339 4.894.576.368.059.871.12 1.117.134.246.014 1.915.127 3.71.25 9.271.636 14.464 1.055 17.17 1.384a52.56 52.56 0 0 0 1.497.156c1.894.164 2.693.358 3.084.75a.8.8 0 0 1 .187.273c.033.133.508.83.71 1.043.17.178.379.254.535.195.243-.092.794-.792.794-1.009 0-.267.22-.602.52-.787.347-.215 1.149-.395 2.161-.486.307-.028.94-.1 1.408-.16.925-.119 1.884-.215 2.86-.287.526-.039 4.852-.27 5.052-.27.057 0 .065 1.026.065 8.067v8.067h-15.13l-.172-.525c-.356-1.088-.608-1.674-.795-1.855-.476-.457-.839-.035-1.402 1.632l-.253.748h-12.418c-9.915 0-12.414-.011-12.4-.056zm19.17-5.147c.462-.271 1.22-1.324 1.126-1.567-.073-.191-.677.099-.975.468-.11.135-.254.276-.322.313-.116.063-.128.06-.209-.038a.853.853 0 0 1-.13-.268c-.069-.256-.18-1.38-.225-2.286-.047-.953-.168-1.53-.416-1.983-.196-.358-.369-.476-.697-.474-.751.003-.938.445-.721 1.711.104.611.433 1.94.625 2.527.377 1.154.945 1.794 1.537 1.731.12-.013.302-.073.406-.134z" stroke-width=".045"/>
        <g stroke-width=".126">
            <path d="M475.38 344.176c-3.52-.155-6.63-.366-8.446-.571-2.696-.305-2.968-.554-.909-.834 1.73-.235 17.013-.235 18.266 0 2.358.442 1.583 1.135-1.58 1.411-1.62.142-4.016.14-7.332-.007zM478.3 298.696c-.698-1.621-1.04-4.153-1.071-7.911-.027-3.22.15-4.557.549-4.158.384.384.93 4.457 1.162 8.66.15 2.724.083 3.892-.229 3.994-.077.025-.263-.238-.412-.585zM476.38 284.236c-.327-.257-.843-1.02-.924-1.363-.123-.522.162-1.278.674-1.79.263-.263.539-.477.614-.477.3 0 .443.595.43 1.795-.015 1.581-.296 2.229-.795 1.835zM475.38 255.976c-.194-.361-.164-1.812.042-2.094.165-.225.186-.214.397.194.39.753.258 2.144-.202 2.144-.06 0-.166-.11-.238-.244zM479.72 160.076c-.733-1.117-.703-3.695.048-4.193.265-.175.308-.161.662.218.705.755.978 2.49.556 3.544-.32.8-.897.996-1.267.43z"/>
        </g>
        <g stroke-width=".045">
            <path d="M502.64 160.356c-.28-.055-.408-.151-.408-.306 0-.5 2.178-1.484 2.521-1.14.287.287-.48 1.162-1.245 1.42-.234.079-.55.088-.869.026zM474.46 173.256a42.98 42.98 0 0 1-.05-1.665c-.043-2.558-.113-4.684-.161-4.938-.026-.136-.064-.8-.085-1.475a40.036 40.036 0 0 0-.07-1.558l-.033-.328 9.023.022c8.921.02 12.167.067 14.833.212 2.673.145 3.897.43 4.183.975.093.176.682.644 1.002.794.122.058.301.106.396.106.232 0 .414-.193.581-.62.087-.22.171-.355.27-.43.882-.672 3.383-.9 11.154-1.01 5.186-.075 15.772.002 16.301.118l.1.022v9.965h-57.423z"/>
            <path d="M474.86 194.136c-.016-.424-.078-3.617-.14-7.095-.142-7.87-.23-12.275-.29-14.413l-.092-3.486a61.048 61.048 0 0 0-.108-2.547c-.034-.394-.074-1.098-.09-1.565s-.039-1.047-.054-1.29l-.028-.44 9.291.023c10.037.025 12.978.074 15.437.258 1.88.14 2.927.407 3.245.826.386.51 1.06.968 1.436.977.248.006.38-.126.615-.611.214-.44.348-.546.939-.742 1.224-.405 3.654-.576 9.72-.681 4.86-.085 16.928-.001 17.121.119.024.014.04 2.819.04 6.81v6.786l-.86.026c-.473.014-1.755.037-2.849.05-5.324.066-12.776.35-17.028.651-.697.05-8.02.647-8.476.692-.235.023-.278.041-.297.125-.013.053-.129 1.037-.258 2.185l-.235 2.089.086.615c.167 1.199.104 2.497-.149 3.089-.059.137-.068.364-.06 1.415.01 1.608.08 3.793.135 4.298.024.217.064.726.09 1.132l.072 1.106.025.369h-27.212zm7.845-1.23c.363-.24.615-.908.772-2.044.307-2.226.243-6.84-.114-8.242-.17-.665-.385-.962-.677-.934-.117.012-.245.127-.755.677-.786.848-1.085 1.326-2.066 3.294-.645 1.294-.797 1.734-.823 2.377-.016.402-.004.53.079.802.128.423.403.961.828 1.624 1.263 1.972 2.206 2.808 2.756 2.445zm-2.431-14.24c.337-.384.304-1.376-.072-2.113-.233-.456-.406-.175-.473.768-.031.437.04 1.097.138 1.289.13.255.221.268.407.056z"/>
        </g>
        <path d="M483.88 195.036v-6.265h17.917v.249c0 .44.047 1.98.08 2.642.009.178.033.527.055.774.07.817.172 2.372.16 2.447-.006.03-.003.211.005.403.02.466.045 1.372.064 2.254.014.706.056 1.43.181 3.143.022.3.04.56.04.58v.038h-18.503z" stroke-width=".016"/>
        <g stroke-width=".253">
            <path d="M611.4 153.246c-.861-.86-.872-2.444-.02-3.002.425-.279.651-.731.774-1.546.095-.634.277-1.152.406-1.152.478 0 1.558 2.613 1.595 3.858.032 1.07-.061 1.325-.673 1.852-.894.77-1.305.768-2.083-.01zM639.61 153.046c-.498-.6-.615-2.226-.2-2.78.495-.661 1.128-.365 1.592.745.313.75.322 1.013.05 1.58-.382.798-.997.992-1.443.455zM584.49 271.946c-.338-.63-.338-2.437 0-3.067.582-1.09 1.76-.064 1.76 1.533s-1.178 2.623-1.76 1.534z"/>
        </g>
        <g stroke-width=".089">
            <path d="M574.41 286.856c-6.2-1.576-8.655-2.436-12.289-4.304-2.143-1.102-3.287-1.852-3.935-2.58-.27-.303-.703-.763-.962-1.022l-.47-.472 2.839-.062c1.561-.035 3.643-.1 4.627-.145.983-.045 6.555-.123 12.382-.172 5.826-.05 11.88-.133 13.452-.184 4.441-.144 6.388-.324 5.17-.477-1.97-.249-9.229-.423-10.79-.26-.722.076-3.37.132-7.884.167-6.95.054-10.445-.018-13.448-.279-.811-.07-2.038-.17-2.726-.223a81.247 81.247 0 0 1-1.766-.15c-.428-.047-.513-.033-.513.083 0 .076-.13.248-.288.38-.258.218-.34.238-.789.197-.6-.054-1.101-.295-1.847-.886-1.387-1.1-2.304-2.922-2.757-5.48-.208-1.179-.213-3.55-.009-4.55.216-1.057.384-4.972.252-5.844-.227-1.493-.087-4.056.297-5.427.07-.246.169-1.191.222-2.1.343-5.865.734-9.493 1.047-9.722.776-.567 6.478-.638 12.274-.151.86.072 2.328.17 3.262.22 3.255.168 4.468.358 5.18.81.72.456.83.908 1.077 4.418.073 1.032.211 2.701.308 3.709.096 1.008.257 3.2.358 4.871.195 3.249.201 3.336.41 5.587.347 3.726.927 6.179 1.817 7.677.428.721 1.332 1.644 2.01 2.051 1.155.696 3.126 1.384 4.796 1.674 1.048.183 3.35.132 4.377-.096 2.993-.666 5.548-2.218 7.15-4.345.992-1.316 1.32-2.202 1.567-4.233.419-3.447.524-11.274.406-30.437-.05-8.283-.092-15.876-.093-16.87v-1.81h25.922l-.051 54.567-.241.85c-.153.537-.541 1.445-1.059 2.477-.943 1.88-1.05 2.296-.665 2.598.131.104.548.254.926.334.872.184 1.089.29 1.089.535 0 .194-.01.195-2.525.251-3.74.084-6.031.295-6.12.563-.048.147.373.284 1.217.395.754.1 1.44.311 1.44.446 0 .04.11.11.244.154.234.078.185.12-1.095.958-3.284 2.146-5.721 3.378-8.759 4.427-1.466.506-5.482 1.63-7.191 2.011l-1.405.314-24.744-.012zM494.01 285.326c-3.172-.037-6.731-.11-7.911-.164-1.18-.053-2.317-.096-2.525-.096h-.38V230.72h21.229l-.024 1.63c-.13 8.931-.468 35.523-.468 36.815v1.664l1.72.062c.947.034 6.85.099 13.118.144 15.734.112 18.934.259 20.417.934.731.333.907.527 1.02 1.124.042.218.217.618.39.888.395.614.889 1.602 1.097 2.194l.16.451-.242.51c-.151.32-.398.642-.66.863-1.146.967-1.624 2.55-1.624 5.38 0 1-.038 1.768-.092 1.87-.091.17-.4.173-19.776.158-10.826-.008-22.278-.045-25.45-.082z"/>
            <path d="M586.02 288.136c-.32-.015-1.185-.07-1.923-.121-.737-.052-2.386-.153-3.664-.223-3.025-.166-4.049-.358-8.833-1.657-3.846-1.045-5.891-1.791-8.687-3.171-3.097-1.53-4.016-2.143-5.337-3.559l-.869-.931 2.12-.057c1.166-.031 3.246-.096 4.623-.145 1.376-.048 6.726-.127 11.888-.176 13.173-.123 19.614-.295 20.055-.533.547-.297-8.482-.504-12.758-.293-2.694.132-13.49.147-16.235.022-1.836-.084-3.92-.235-6.793-.493-1.115-.1-1.439-.104-1.468-.02-.02.06-.152.225-.294.366-.236.236-.3.254-.775.22-.797-.058-1.445-.424-2.335-1.32-1.16-1.166-1.727-2.29-2.192-4.34-.322-1.418-.404-3.628-.188-5.07.321-2.14.37-4.16.18-7.314-.065-1.09.072-2.711.327-3.855.113-.508.24-1.753.357-3.493.348-5.195.67-8.12.938-8.53.305-.465 1.87-.6 6.21-.539 2.267.032 4.349.12 6.435.273 1.696.124 3.75.27 4.565.325 2.38.16 3.65.505 4.034 1.094.32.49.423 1.164.652 4.227.077 1.033.198 2.5.269 3.263.07.762.21 2.632.31 4.156.52 7.947.81 10.265 1.573 12.55.455 1.363.779 1.912 1.646 2.788.84.85 1.436 1.224 2.764 1.736 2.07.8 3.956 1.095 5.99.94 1.319-.1 1.698-.173 2.867-.553 1.838-.598 3.495-1.597 4.79-2.886 1.617-1.61 2.195-2.802 2.495-5.145.392-3.053.53-10.338.462-24.29l-.052-10.66h27.052l-.035 9.721c-.04 10.613-.165 20.235-.302 23.04-.278 5.705-.724 7.92-2.195 10.904-.459.93-.772 1.683-.807 1.939-.055.402-.046.426.237.598.162.098.499.224.749.28.25.055.675.176.946.269.27.092 1.013.233 1.65.311.638.08 1.178.162 1.2.184.022.022-.922.04-2.098.04-3.73.003-7.932.218-8.82.454-.635.168-.363.313 1.006.532.707.113 1.341.324 1.341.446 0 .04.108.108.24.152.23.077.194.11-.826.784-4.335 2.86-7.15 4.146-12.217 5.578-4.845 1.37-7.905 1.873-13.073 2.151-1.523.082-5.68.1-7.196.031z"/>
            <path d="M599.19 243.976c-.019-15.416-.162-43.976-.26-51.664l-.057-4.492h27.395l-.057 32.826c-.031 18.054-.081 34.003-.111 35.441l-.055 2.615h-26.839z"/>
            <path d="M599.03 208.756c-.082-9.364-.228-33.733-.23-38.283l-.001-3.625.45-.162c.248-.089.563-.275.702-.413.327-.327.889-.48 2.647-.718 1.598-.218 2.923-.206 4.424.037.467.076 1.149.182 1.515.236.732.108 1.366.353 1.681.649.112.105.263.391.336.636.072.244.197.516.277.604.08.088.337.632.572 1.209l.428 1.048.098-.351c.054-.194.098-.648.098-1.01s.067-1.025.149-1.475c.132-.726.184-.853.47-1.136.281-.28.45-.351 1.393-.581 1.046-.255 1.126-.262 3.218-.248 1.997.013 2.38.044 5.56.452 1.88.24 3.435.455 3.456.477.022.022.017 11.212-.01 24.867l-.051 24.826H599.09zM610.14 307.046c-.493-.527-.637-.927-.59-1.632.047-.73.32-1.468.82-2.223.644-.969.798-.589.752 1.858-.026 1.412-.058 1.75-.19 1.991-.201.373-.448.375-.793.006zM531.41 438.096v-7.085l.602.054c3.047.275 9.82.594 16.29.767 5.64.15 9.007.273 10.145.37.59.05 2.376.114 3.968.14l2.895.048-.052.748c-.049.687-.033.792.188 1.264.38.811.336 2.032-.2 5.476-.234 1.5-.446 3.202-.473 3.783-.031.673-.09 1.097-.162 1.17-.09.089-2.487.125-11.451.172-6.236.033-13.681.086-16.544.119l-5.207.059zM13.8 269.226c-1.08-2.865-1.664-5.47-2.102-9.363-.327-2.902-.888-9.498-1.035-12.156-.208-3.789-.094-5.151.64-7.574.083-.278.447-.65.636-.65.05 0 .303-.1.562-.222 1.05-.497 1.262-.522 4.785-.56 3.101-.033 3.277-.027 3.345.128.04.09.1 2.085.135 4.435.035 2.35.08 4.288.1 4.309.02.02.289-1.862.597-4.183s.598-4.233.645-4.25c.046-.015.084-.091.084-.167 0-.116.096-.13.603-.085.332.03 1.89.096 3.464.149 2.93.097 5.568.214 8.804.391l1.833.1.07 1.207c.04.664.17 2.011.291 2.994.313 2.538.54 5.12.798 9.028.254 3.86.263 3.962.502 6.212.506 4.76 1.293 7.768 2.627 10.044l.243.414H13.875z"/>
            <path d="M51.376 288.276c-2.778-.141-6.091-.468-10.815-1.066-3.839-.486-9.85-2.003-12.945-3.266-3.15-1.285-6.741-3.719-7.707-5.223a10.596 10.596 0 0 0-.652-.871l-.393-.47h.444c.244 0 .561-.055.704-.123.142-.068.537-.15.876-.183.339-.032.692-.1.786-.15.191-.102.34-.431.34-.752 0-.317-.343-1.178-.578-1.452-.179-.207-.233-.225-.423-.138-.168.076-.255.235-.378.688-.304 1.123-.965 1.393-2.098.857-2.12-1.003-4.596-5.425-5.874-10.49-.7-2.777-1.101-6.066-1.835-15.071-.26-3.198-.287-7.438-.053-8.524.244-1.137.586-2.16.78-2.334.167-.152.755-.426 1.54-.718.642-.239 1.722-.312 4.585-.312 2.218 0 2.91.026 2.963.111.059.095.153 3.476.21 7.486.007.566.029.988.048.939.019-.05.277-1.87.574-4.047.297-2.176.59-4.037.65-4.134.13-.205 0-.2 2.481-.088 1.057.048 3.129.13 4.604.18 1.474.052 3.647.153 4.826.225 1.18.072 2.311.13 2.514.131l.368.001.061 1.006c.033.553.179 2.071.323 3.374.365 3.288.491 4.737.799 9.206.463 6.728.861 9.708 1.67 12.514.43 1.487 1.29 3.365 1.926 4.201.801 1.055 2.292 2.22 3.604 2.817 1.67.76 4.195 2.073 4.519 2.35.62.531.454.71-.854.913-.7.11-4.218.401-5.991.497-1.703.092-1.719.185-.045.26 2.249.1 14.132.018 14.334-.1.133-.076.005-.109-.626-.16-1.449-.116-4.501-.782-4.501-.982 0-.017.1-.208.22-.426.376-.671.953-.83 3.355-.922 3.722-.142 5.893-.925 7.787-2.81 2.279-2.267 3.414-5.746 3.75-11.493.248-4.23-.155-7.725-1.202-10.413-1.26-3.234-2.474-5.012-5.343-7.825-3.479-3.41-8.325-6.907-17.103-12.344l-2.637-1.633-.581-.361 37.029-.004.837.64c3.715 2.838 6.237 5.204 8.785 8.239.46.549 1.626 1.782 2.59 2.74l1.752 1.742v34.342l-1.41 1.262a45.885 45.885 0 0 0-2.376 2.293c-1.928 2.062-4.041 3.644-6.908 5.173-3.066 1.636-4.619 2.178-9.104 3.176-4.124.918-6.896 1.297-11.218 1.531-1.895.103-6.873.098-8.984-.009z"/>
            <path d="M65.23 268.806c1.206-2.397 1.791-5.195 2.012-9.629.148-2.974-.07-5.744-.629-7.958-.336-1.333-1.236-3.564-1.928-4.776-2.552-4.473-8.15-9.155-19.343-16.182-4.064-2.551-13.727-8.411-18.905-11.466a115.536 115.536 0 0 1-2.39-1.453c-.905-.57-1.05-.694-1.05-.896a.718.718 0 0 0-.172-.418c-.164-.177-.175-.51-.27-8.408-.056-4.522-.11-8.414-.12-8.647l-.02-.425H37.54l.339.514c1.37 2.081 3.369 4.028 6.122 5.965 2.58 1.816 8.203 5.483 16.268 10.611 7.89 5.017 15.338 10.072 18.726 12.708 2.891 2.25 5.597 4.8 7.723 7.276.602.701 1.896 2.094 2.876 3.095l1.78 1.82v28.892h-26.46zM104.35 219.086c-.104-.678-.251-17.757-.297-34.494l-.05-18.025.26-.134c1.106-.572 4.42-.883 11.31-1.06 5.385-.14 11.353.028 13.617.382.646.1 1.317.344 1.423.515.15.244.38 6.407.588 15.743.313 14.149.543 25.116.622 29.72.05 2.9.11 5.806.133 6.458l.042 1.184h-27.604zM118.96 286.256c-.861-.012-2.832-.064-4.38-.116-5.445-.183-7.827-.48-8.182-1.02-.579-.885-.936-7.01-1.116-19.183-.053-3.564-.175-9.738-.27-13.72-.095-3.982-.215-9.271-.266-11.754-.05-2.482-.101-4.886-.113-5.34l-.02-.827h27.664v.603c.001.332.04 2.232.089 4.223.527 21.893.755 28.552 1.026 29.866.26 1.261 1.103 2.84 1.735 3.251.874.568 5.938.759 20.234.76h9.81l.002 2.436c.002 2.74.112 5.093.312 6.655.134 1.046.605 3.124.787 3.467.052.099.095.28.095.403l.001.223-11.034.054c-10.556.052-33.088.063-36.375.019zM178.78 189.766c-.001-12.352-.027-22.79-.059-23.195l-.057-.738 25.009.045.064 1.386c.036.762.107 1.828.16 2.369.206 2.146.355 5.739.58 13.944.168 6.167.58 26.266.581 28.312v.335H178.78zM178.59 291.866c-.038-.762-.111-5.388-.163-10.28-.098-9.166-.032-14.053.206-15.284.087-.448.108-2.595.09-9.386-.013-4.842.002-11.91.033-15.709l.056-6.904h26.615l-.002 1.81c0 .995.04 2.996.088 4.446s.132 4.427.184 6.615c.278 11.769.779 17.076 1.88 19.932.496 1.285 1.452 2.603 2.96 4.081 1.644 1.61 2.797 2.089 5.791 2.401 1.63.17 5.414.31 8.369.311 2.12 0 2.51-.022 3.128-.177 1.523-.382 2.523-1.065 5.963-4.068l1.842-1.61.008-33.741h27.62v33.452l-1.712 3.095c-3.343 6.041-3.991 7.094-5.099 8.28-1.169 1.252-2.623 2.196-5.97 3.874-1.156.58-2.704 1.308-3.442 1.618-.737.31-2.496 1.142-3.908 1.848l-2.567 1.284h-2.582c-1.575 0-3.102.05-3.913.13-3.608.349-3.983.362-10.001.354-4.439-.006-7.227-.058-10.771-.2l-6.212-.245c-1.215-.047-1.62-.103-2.682-.366-4.178-1.038-6.795-1.955-10.013-3.51-3.5-1.692-5.883-3.278-7.986-5.321-1.71-1.66-2.97-3.365-5.783-7.824l-1.156-1.833-.064 1.386c-.136 2.98-.43 11.647-.561 16.536-.076 2.826-.148 5.42-.16 5.765-.012.389-.045.102-.087-.76z"/>
            <path d="M235.64 226.836v-35.441h27.5l.06 10.123c.032 5.567.059 21.516.059 35.44v25.319h-27.62z"/>
            <path d="M235.64 192.646c0-21.305.022-26.735.11-26.762.062-.019 2.164-.078 4.671-.131s6.477-.145 8.821-.203c6.097-.15 9.711.029 11.307.558.745.247 1.256.633 1.465 1.105.536 1.212.805 4.488.977 11.895.116 4.965.266 23.57.267 33.05l.001 7.217h-27.62zM284.99 183.286c.064-.224.106-2.761.128-7.614l.032-7.279.197-.197c.246-.246 3.287-1.243 5.292-1.735 2.19-.538 5.073-1.093 9.296-1.79 4.224-.699 6.118-1.048 6.301-1.161.195-.12-1.16-2.694-4.944-9.386-2.5-4.422-3.924-7.04-5.114-9.399-.863-1.712-.997-2.033-.87-2.082.4-.154 2.212-.224 5.86-.226 3.742-.002 4.015.008 4.177.16.096.089 2.188 4.282 4.65 9.318s4.506 9.188 4.544 9.226 1.997-4.113 4.353-9.226c3.634-7.887 4.31-9.296 4.466-9.298a.47.47 0 0 0 .28-.1c.07-.07 1.232-.087 3.93-.06 3.19.032 3.96.065 4.607.196 1.133.23 1.137.235.786 1.04-.37.847-3.02 6.005-5.165 10.049-4.008 7.557-4.495 8.987-3.452 10.14.525.582 1.586.933 4.194 1.39.737.129 1.657.314 2.043.412.772.196 2.305.84 2.84 1.195.475.314.722.838.774 1.641.038.578.068.667.25.75.303.138.695-.054 1.347-.66.62-.576.946-.685 1.555-.52.6.16 1.268.523 5.157 2.796l3.598 2.102v-7.925c.004-15.12.252-21.24.895-22.024.151-.184.178-.19.31-.06.556.546.85 4.366.85 11.022-.002 8.572-.345 14.968-1.022 19.017-.355 2.128-.591 4.195-.9 7.887-.123 1.47-.223 2.687-.223 2.704s-4.877.03-10.838.028l-10.838-.004-.443-.762c-1.26-2.165-3.921-3.622-7.684-4.204-1.371-.213-4.186-.212-5.638 0-3.843.564-6.59 1.808-8.841 4.004l-.991.967-15.847.002z"/>
            <path d="M276.37 204.016c-.159-1.354-.16-7.507-.003-9.989.255-4.028.834-11.638 1.003-13.184.396-3.615.853-6.173 1.327-7.427.255-.675 1.17-2.047 1.627-2.438.203-.174.685-.48 1.07-.68.385-.2.818-.464.962-.586.33-.276.371-.276.371.008 0 .126.104.45.231.719.378.799.472 1.64.616 5.533.18 4.875.426 7.263.826 8.036l.138.267.156-.193c.296-.366.348-1.457.41-8.665.061-7.052.062-7.08.25-7.252.19-.172 2.791-1.067 4.3-1.479 2.227-.607 5.297-1.213 10.93-2.155 3.575-.599 5.529-.966 5.62-1.056.153-.154-1.035-2.414-4.66-8.866-3.925-6.987-6.466-11.798-6.315-11.955.166-.172 2.227-.25 5.997-.226l4.063.025.182.271c.1.15 2.17 4.322 4.599 9.274 2.429 4.95 4.444 9.002 4.479 9.002.073 0 1.475-2.966 5.005-10.592 4-8.642 3.566-7.774 3.953-7.895.425-.134 6.406-.144 7.782-.013 1.108.105 1.88.326 1.922.55.032.171-2.321 4.845-4.89 9.713-3.695 7.002-4.388 8.567-4.388 9.908 0 .426.049.605.252.926.463.73 1.323 1.053 4.26 1.608 1.033.194 2.1.418 2.37.496.64.185 2.084.8 2.508 1.067.57.36.889.974.889 1.714 0 1.016.6.992 1.76-.071.901-.827 1.05-.771 6.583 2.453 1.91 1.113 3.483 2.024 3.498 2.024s.048-4.938.074-10.972.091-11.957.145-13.162c.112-2.551.307-4.603.498-5.246.386-1.3.867-.518 1.111 1.804.195 1.852.274 4.434.273 8.939 0 8.538-.309 14.397-.98 18.636-.449 2.827-.648 4.639-1.025 9.296-.519 6.408-.943 15.4-.943 20v2.882h-18.301l-.05-4.536c-.028-2.495-.093-5.019-.146-5.609-.535-6.046-1.53-10.153-2.974-12.278-1.04-1.531-2.614-2.621-4.85-3.36-1.513-.498-2.71-.683-4.793-.737-2.864-.076-4.739.178-7.07.955-2.181.728-3.865 1.765-5.502 3.39-2.006 1.992-2.308 3.046-2.8 9.75-.105 1.451-.17 2.9-.144 3.219.026.32.173.927.327 1.35l.279.77 1.984 1.963c1.939 1.916 3.24 3.06 5.003 4.398.479.364.87.676.87.693 0 .018-6.873.032-15.274.032h-15.274zM276.95 269.206c.128-.196.144-.995.16-7.62.02-8.92-.107-11.953-.691-16.544-.179-1.404-.375-4.023-.394-5.258-.003-.162.063-.195.466-.238.258-.027.898-.174 1.421-.326 2.123-.617 3.323-.763 4.01-.487.26.103.49.128.807.086l.444-.059.002.607c.002.614.101 2.014.259 3.645.11 1.14.451 10.57.56 15.45.03 1.384.068-.114.256-10.042.104-5.481.216-9.99.249-10.019.12-.106 11.787 1.063 13.958 1.398.976.15 1.094.24 1.245.946.25 1.168.594 4.932.986 10.803.487 7.3 1.116 12.01 1.977 14.795.188.61.826 1.946 1.29 2.702l.232.38h-20.004l-.105-.469c-.203-.898-.39-.9-.502-.009l-.06.478h-6.711z"/>
            <path d="M310.26 288.196c-2.193-.1-3.562-.237-4.917-.49a42.732 42.732 0 0 0-2.369-.355c-3.377-.395-5.337-.857-9.296-2.191-3.323-1.12-4.826-1.83-7.154-3.378-.887-.59-1.928-1.326-2.313-1.636-.686-.552-1.482-1.449-1.482-1.67 0-.06-.21-.342-.467-.625l-.467-.515.668-.06c.996-.088 1.809-.26 1.999-.422.327-.278.433-.714.425-1.751-.014-1.976-.778-6.75-1.08-6.75-.041 0-.1.063-.13.14-.127.331-.239 2.748-.217 4.687.023 1.996.015 2.121-.171 2.528-.224.49-.574.69-1.213.69-1.128 0-2.983-1.588-4.428-3.79-1.003-1.527-1.22-2.392-.808-3.21.187-.369.19-.478.234-6.72.062-8.803-.081-12.685-.643-17.422-.227-1.912-.402-4.124-.404-5.108l-.001-.54.737-.149c.406-.082 1.28-.293 1.944-.469 1.46-.387 2.526-.484 3.18-.288.268.08.622.117.863.09l.408-.046.054.882c.03.485.115 1.666.19 2.625.146 1.876.332 6.438.49 12.022.054 1.917.107 3.566.118 3.664s.05-1.249.086-2.994c.286-13.836.35-16.498.405-16.546.069-.061.53-.024 5.156.417 3.9.372 8.565.892 9.23 1.029.749.153.805.297 1.09 2.765.224 1.937.384 3.85.674 8.044.579 8.346 1.207 13.137 2.063 15.71.54 1.628 1.698 3.534 2.922 4.814 1.031 1.079 1.765 1.633 2.88 2.175.976.475 1.398.592 2.548.71.418.044.86.12.983.172.393.165 1.206.783 1.236.94.091.473-2.098.84-6.823 1.146-1.293.084-1.625.13-1.462.2.307.134 18.893.134 19.027 0 .072-.072-.26-.115-1.225-.16-5.815-.275-8.83-.675-8.648-1.15.045-.116.561-.43 1.362-.83.409-.203.644-.246 1.743-.315 2.82-.176 4.323-.545 6.276-1.543 1.72-.879 3.206-2.18 4.202-3.68.85-1.279 1.25-2.428 1.581-4.542.177-1.13.2-1.612.202-4.44.004-3.474-.093-4.765-.576-7.643-.574-3.419-1.423-5.955-2.561-7.652-2.584-3.85-9.02-8.744-20.937-15.918-1.309-.788-2.396-1.448-2.417-1.467s8.308-.035 18.507-.035h18.545l1.049.758c.577.418 1.73 1.326 2.565 2.018l1.516 1.258v45.216h-.223c-.214 0-.224.024-.224.537 0 .512.01.536.224.536h.223l-.002 1.765c-.002 1.822-.12 2.781-.399 3.205-.08.122-.136.41-.136.697 0 .27-.039.514-.087.543-.157.098-5.931 2.078-6.617 2.27-.594.166-2.07.49-5.551 1.22-1.938.407-4.982.711-9.375.937-2.453.126-10.716.183-12.782.088zM327.07 207.326c-.085-.054-.133-1.314-.2-5.295-.101-6.056-.129-6.725-.367-8.889-.363-3.297-1.022-6.527-1.673-8.205l-.268-.688h10.716c9.992 0 10.716.01 10.716.15 0 .083-.08 1.42-.177 2.972-.34 5.399-.459 8.486-.538 13.994a9322.23 9322.23 0 0 1-.085 5.788l-.004.246-9.005-.001c-4.953-.001-9.056-.033-9.116-.072zM367.53 175.156c-.176-.462-.231-2.256-.192-6.25l.04-4.031 1.441-.059c3.46-.14 8.311-.16 9.219-.036l.894.121-3.889 3.891c-2.138 2.14-4.326 4.265-4.862 4.721-1.076.917-2.347 1.882-2.477 1.882-.046 0-.125-.108-.175-.24zM368.85 267.486c-.033-1.07-.119-5.001-.19-8.737-.072-3.737-.171-8.584-.22-10.771-.156-6.867-.895-47.064-.895-48.647v-.783l41.966.006.84 1.406c4.937 8.248 6.515 10.988 8.017 13.919 1.795 3.5 2.385 4.987 2.677 6.74.127.764.145 1.262.103 2.771-.067 2.365-.313 4.087-.869 6.086-.144.516-.364 1.703-.49 2.637-.523 3.86-1.445 9.727-2.066 13.139-.442 2.43-.93 4.338-1.106 4.333-.025 0-.226-.33-.447-.732-.434-.787-1.318-2.262-3.258-5.433-1.583-2.587-4.054-6.76-7.067-11.933-6.284-10.788-11.02-18.333-11.32-18.034-.182.182-.373 3.324-.523 8.604-.196 6.91-.267 15.118-.267 30.949l-.001 16.424h-24.826zM427.62 268.416c-3.728-6.496-7.99-13.331-8.845-14.187-.259-.258-.492-.596-.569-.823-.087-.257-.18-.38-.277-.372-.21.017-.192-.436.075-2.012.332-1.948.64-2.923 1.532-4.843 1.016-2.186 1.918-6.725 2.717-13.671.2-1.745.462-3.837.582-4.648.119-.811.298-2.176.398-3.034.1-.857.226-1.721.28-1.92l.098-.364.532.566c.602.641 2.67 3.729 4.498 6.718 2.875 4.7 5.148 7.777 5.746 7.777.665 0 .738-2.024.25-6.886-.472-4.709-.795-9.035-1.035-13.896a306.902 306.902 0 0 0-.27-4.514c-.454-6.719-.424-10.774.097-13.296l.097-.469h24.004l.061 3.598c.192 11.358.242 14.473.324 20.223.05 3.49.19 14.49.31 24.446.12 9.955.238 19.116.263 20.357l.045 2.257-30.338-.004z"/>
            <path d="M374.57 286.216c-1.221-.057-2.152-.214-2.757-.467-.164-.068-.581-.368-.927-.666-.61-.525-.635-.562-.817-1.24-.751-2.797-1.102-8.783-1.396-23.849-.073-3.736-.16-7.829-.192-9.095l-.059-2.301h25.32v18.773c0 14.939-.023 18.78-.112 18.81-.19.065-17.738.095-19.06.034zM453.14 286.346c-3.798-.038-9.98-.204-11.085-.298-2.79-.238-4.06-.682-5.053-1.765-.418-.457-.712-.94-1.437-2.372a61.118 61.118 0 0 0-2.133-3.768c-1.575-2.539-4.265-7.045-7.472-12.517-3.303-5.636-6.26-10.31-7.173-11.338-.212-.239-.471-.611-.576-.827s-.243-.393-.307-.393c-.081 0-.116-.145-.116-.477 0-.513.364-2.636.596-3.478l.142-.514h39.752l.001.916c0 .504.04 3.631.087 6.95s.126 9.894.175 14.614c.05 4.72.116 10.059.148 11.866.054 3.002.047 3.284-.086 3.284-.08 0-.146.04-.146.09 0 .057-.575.082-1.587.069-.873-.012-2.552-.03-3.732-.042zM434.2 226.096c-.088-.68-.392-5.116-.544-7.933-.077-1.426-.219-3.86-.315-5.408-.365-5.857-.433-8.68-.265-11.039.154-2.17.372-3.112 1.072-4.641.483-1.055.45-2.086-.077-2.309-.833-.353-1.048-1.202-1.265-4.982-.05-.86-.147-2.39-.218-3.397-.174-2.467-.3-5.841-.534-14.346-.108-3.933-.194-7.156-.191-7.162.031-.068 11.723-.257 15.87-.257 5.872 0 8.255.111 8.464.394.16.217.191.491.344 2.997.077 1.274.156 2.342.174 2.371.23.374.9 28.09 1.16 48.092.027 2.139.074 4.824.103 5.967l.053 2.078h-23.777zM494.79 285.366c-7.97-.061-13.645-.353-15.279-.786-.654-.173-.803-.345-.9-1.037-.364-2.61-1.06-13.287-1.209-18.54-.127-4.517-.744-14.544-.988-16.067l-.053-.335H504.2l-.063 5.072c-.035 2.79-.098 7.766-.141 11.057-.043 3.292-.06 6.012-.04 6.046.054.087 5.082.167 16.576.264 14.598.123 17.355.264 18.739.963.643.325.79.485.924 1 .057.22.331.801.608 1.29s.632 1.205.788 1.593c.28.694.282.71.14 1.074-.08.204-.436.68-.79 1.059-.737.787-1.04 1.328-1.29 2.3-.177.69-.343 2.628-.346 4.05-.001.426-.027.839-.056.916-.05.129-1.97.14-20.983.12-11.511-.01-22.075-.029-23.476-.04zM143.14 358.076a5177.53 5177.53 0 0 0 21.646-33.608c1.723-2.699 1.889-2.928 2.119-2.928.137 0 .25-.04.25-.09 0-.058 3.383-.089 9.972-.089 8.524 0 9.991.019 10.1.128.108.108.128 1.093.128 6.476v6.349L171.4 358.809l-28.738.004zM111.55 442.386c-1.373-.26-2.52-.538-2.782-.673-.724-.373-1.136-.883-1.412-1.748-.062-.196-.19-.362-.327-.424-.421-.192-.633-.127-.986.305-.57.695-1.114.837-1.77.462-.424-.242-.64-.634-.818-1.489-.402-1.93-.397-9.668.008-11.224.154-.59.418-.94.71-.94.39 0 .501-.19.63-1.076.272-1.888.448-6.246.578-14.387.049-3.023.089-6.25.09-7.173v-1.675h14.614c11.632 0 14.614.022 14.614.111 0 .062-.039 1.037-.087 2.168-.359 8.536-.774 23.83-.86 31.716-.043 3.936-.089 5.536-.16 5.558-.055.017-3.438.096-7.518.175-4.08.08-8.083.189-8.894.243-1.915.128-5.117.168-5.631.07zM194.91 442.216c-.848-.534-.945-1.82-.288-3.806.591-1.786.887-1.875 1.876-.566.914 1.211 1.438 2.516 1.302 3.24-.168.896-2.078 1.644-2.89 1.132zM208.61 445.156c-4.421-.136-7.157-.505-7.9-1.067-.168-.126-.222-.282-.283-.82-.149-1.312-.195-7.289-.096-12.461.153-7.98.333-11.953.685-15.151.103-.94.295-4.674.307-5.967l.002-.2h68.02v35.642l-.64-.122c-1.73-.33-3.017-1.49-3.979-3.593-.513-1.12-1.29-3.584-2.892-9.18-1.413-4.931-2.694-9.207-2.785-9.298-.022-.022-3.335-.088-7.363-.147-9.647-.142-18.185.014-22.907.417-2.25.192-2.682.28-2.992.612-.52.558-1.497 2.91-2.548 6.137-.631 1.94-1.07 3.497-2.618 9.287-.743 2.783-1.38 5.09-1.415 5.128s-.281.095-.548.125c-.266.03-.632.129-.813.22-.641.32-1.77.443-4.409.477-1.376.017-3.548 0-4.826-.04zM205.42 472.226c-.073-.244-.115-.96-.118-1.95-.003-1.461.011-1.595.21-2.036.271-.6.578-.824 1.128-.824 1.114 0 1.77.944 1.441 2.074-.165.568-.41.823-.92.958-.542.144-.94.658-1.277 1.65-.083.246-.197.462-.252.48-.055.018-.15-.14-.213-.352zM205.13 394.456c.021-.062 1.068-4.074 2.326-8.916 3.682-14.173 4.976-19.031 7.07-26.547 1.821-6.535 2.59-9.355 3.033-11.112.548-2.178.679-2.437 1.424-2.82.849-.436 2.197-.611 6.748-.88 2.02-.118 3.976-.16 7.553-.16 6.282.001 6.824.06 9.207.982.783.303 1.493.279 1.947-.067.878-.669 1.982-.93 4.801-1.133 7.693-.557 14.892-.897 19.061-.899h1.05v1.167l-.603-.063c-.332-.035-1.93-.067-3.553-.07-2.778-.006-2.97.004-3.307.173-.61.305-.605.333 1.016 5.766.785 2.63 2.556 8.587 3.937 13.238l2.51 8.457v22.997l-17.809-.046-.752-2.86c-.9-3.418-1.79-6.695-3.338-12.29-3.075-11.11-5.449-20.232-5.454-20.96-.005-.731-.63-1.414-1.25-1.365-.292.022-.334.067-.638.675-1.043 2.087-2.815 8.873-5.715 21.895-.95 4.263-3.211 14.745-3.211 14.883 0 .037-5.871.068-13.047.068-10.4 0-13.039-.023-13.007-.112zm27.022-40.205c.47-.504.714-2.918.427-4.208-.173-.774-.563-1.504-.9-1.684-.551-.295-.746.259-.757 2.153-.012 2.207.417 3.895.995 3.92.035 0 .141-.08.235-.181zM207.45 343.386c-3.612-.122-5.848-.445-6.225-.9-.098-.117-.085-.165.082-.3.865-.7 9.904-.697 14.5.006 1.263.193 1.675.296 1.926.481.252.186.094.294-.585.4-1.436.224-6.997.403-9.698.312zM208.26 316.896c-.886-1.748-.959-3.58-.142-3.58.349 0 .782.38.895.787.135.484.113 1.42-.051 2.22-.239 1.159-.357 1.255-.703.573zM232.3 316.016c-.17-.533.94-3.695 1.462-4.167.177-.16.183-.158.273.077.298.784-.337 2.925-1.162 3.917-.306.367-.494.424-.574.173zM229.38 323.036c-.06-.11-.111-.522-.116-.916-.015-1.373.232-1.777.591-.965.244.55.266 1.505.043 1.845-.189.288-.377.301-.519.036zM245.24 341.736c-9.65-.075-15.465-.206-19.739-.448-2.439-.137-5.816-.432-6.073-.53-.141-.054-.228-.156-.228-.268 0-.1-.04-.18-.09-.18s-.09-.056-.09-.122c0-.067.425-1.747.942-3.732 1.57-6.017 2.13-7.775 3.094-9.713.873-1.755 1.35-2.127 2.713-2.117 1.402.01 3.084.987 3.084 1.79 0 .233.533.843.736.843.205 0 .605-.35.605-.53 0-.508.797-.883 2.292-1.079 1.92-.251 9.774-.347 14.422-.175 1.254.046 3.593.11 5.199.143l2.919.06 1.137 3.092c1.634 4.44 2.99 8.589 3.565 10.909.274 1.104.498 2.039.498 2.078 0 .077-2.624.073-14.987-.022zM275.4 336.216c-.346-6.806-.277-19.97.125-24.022.16-1.606.343-2.28.623-2.28.651 0 .977 4.28.977 12.827 0 5.48-.217 13.142-.406 14.324l-.046.291h-1.216z"/>
            <path d="M275.89 341.106c-.242-.691-.521-4.354-.639-8.352-.234-7.984-.025-19.244.402-21.676.166-.944.27-1.18.507-1.146.363.054.6 1.215.809 3.962.158 2.074.156 15.925-.002 19.44-.113 2.522-.378 5.807-.566 7.015-.162 1.044-.327 1.288-.512.756zM277.94 343.096c-.324-.096-.319-.243.012-.382.463-.196 2.691-.171 3.147.034.277.125.328.182.242.268-.124.124-3.025.191-3.402.08zM210.72 373.026c0-.202 1.847-7.04 4.156-15.38 1-3.613 2.102-7.644 2.448-8.957.347-1.314.694-2.54.771-2.725.379-.906 1.175-1.25 3.452-1.495 2.877-.309 7.341-.496 11.786-.495 5.44.002 6.883.137 8.66.817 1.256.48 1.846.502 2.48.095 1.27-.815 1.935-.928 7.72-1.314 9.235-.616 16.182-.814 20.488-.585 2.356.125 3.225.316 2.949.648-.085.103-.081.185.02.39.157.316.299 1.698.166 1.616-.05-.03-.178-.297-.286-.593-.133-.366-.29-.61-.49-.762l-.294-.225-6.185-.05c-6.32-.053-6.634-.04-6.901.282-.16.191-.115.754.133 1.685.119.445 1.862 6.36 3.875 13.144a6981.566 6981.566 0 0 1 4.11 13.876c.034.09-2.407.112-12.016.112h-12.06l-1.134-4.268c-1.459-5.488-2.358-9.065-2.532-10.076-.19-1.096-.383-1.432-.95-1.647-.428-.163-.663.006-1.01.728-.75 1.564-2.267 7.007-3.848 13.81l-.338 1.453h-12.586c-7.792 0-12.586-.032-12.586-.084zm21.468-18.871c.464-.623.628-3.283.274-4.424-.224-.72-.514-1.196-.82-1.35-.52-.258-.668.222-.669 2.16-.001 1.938.234 3.208.682 3.686.224.238.31.226.533-.072zM275.65 358.716c-.155-.249-.252-3.355-.158-5.01.05-.882.117-1.63.148-1.662.213-.212.327.59.385 2.7.065 2.36-.126 4.376-.376 3.972zM275.46 391.546c-.1-.21-.154-6.677-.06-7.122.041-.193.118-.365.17-.383.222-.074 1.125 2.427 1.29 3.576.156 1.079-.035 2.183-.559 3.231-.303.607-.494.854-.657.854-.06 0-.144-.07-.185-.156zM277.16 440.586c.03-2.478.082-12.096.113-21.376l.058-16.871h.854l.271.827c3.482 10.63 4.033 12.698 4.412 16.558.195 1.99.086 17.912-.164 23.878l-.053 1.264-.55.052c-.302.029-1.55.079-2.774.112l-2.225.06z"/>
            <path d="M277.16 435.386c.028-1.143.074-9.399.101-18.346.027-8.948.074-16.446.103-16.664.053-.391.06-.378.494.938 3.827 11.597 4.508 14.02 4.96 17.647.145 1.17.16 2.066.146 9.252-.008 4.375-.042 8.246-.075 8.603l-.06.648h-5.723zM208.71 445.186c-1.146-.038-3.883-.205-4.492-.274l-.47-.054v-28.221h70.774l.052 1.184c.029.652.113 6.333.187 12.625.075 6.293.159 12.13.187 12.97l.051 1.528-1.413.057-2.804.115c-1.13.048-1.516.031-2.056-.09-1.303-.29-2.203-.858-2.99-1.888-1.037-1.356-1.64-3.016-3.722-10.234-1.388-4.811-2.058-7.084-2.585-8.772-.346-1.107-.359-1.13-.643-1.184-.623-.117-19.913-.17-23.217-.063-4.631.15-8.202.402-9.179.648-.615.155-.954.665-1.78 2.68-1.044 2.549-1.943 5.511-4.013 13.216-.847 3.153-1.36 4.91-1.453 4.983-.08.061-.277.112-.437.112-.161 0-.506.084-.765.188-.955.38-1.638.444-5.076.473-1.795.016-3.665.015-4.157 0zM312.84 445.726c-.247-.015-1.232-.07-2.19-.122-3.965-.216-6.11-.433-8.03-.81-1.016-.2-2.054-.456-2.305-.57-.393-.177-.492-.276-.698-.697-.7-1.43-1.042-5.67-1.303-16.11a2717.36 2717.36 0 0 0-.18-6.866c-.049-1.71-.088-3.29-.088-3.508v-.397h25.385l.001.29c0 .16.101 6.022.223 13.028s.222 13.041.222 13.412l.001.675-.335.12a2.358 2.358 0 0 0-.626.373c-.306.266-.76.417-1.944.645-.393.076-.997.199-1.34.273-1.25.27-4.55.398-6.794.264zM297.3 384.356c-.091-4.91-.156-10.992-.241-22.502-.088-11.9-.205-16.31-.5-18.872-.047-.398-.03-.435.392-.901l.44-.487.061-.924c.113-1.723.78-4.352 1.44-5.676.812-1.631 2.327-3.42 5.313-6.277 3.28-3.138 4.298-3.97 5.685-4.641 1.18-.572 1.817-.68 3.754-.634 1.426.033 1.688.064 2.304.267 1.789.59 3.075 1.95 5.249 5.548.51.845 1.751 2.843 2.758 4.441 6.925 10.988 15.753 25.521 20.739 34.144l.904 1.564v18.012h-12.29l-.665-1.14c-1.588-2.724-6.33-10.59-7.387-12.252-1.331-2.093-1.6-2.446-1.725-2.258-.274.411-.379 2.675-.43 9.28l-.05 6.37h-25.696zM298.03 332.486c-.057-.123-.139-.224-.183-.224-.044 0-.168-.19-.276-.424-.183-.397-.196-.552-.192-2.347.004-2.002.131-3.513.36-4.285.252-.847.87-1.243 2.228-1.428 1.273-.173 3.815-.295 5.326-.255 1.563.041 1.87.088 1.87.283 0 .182-1.068 1.67-1.868 2.602-1.648 1.921-4.981 5.072-6.29 5.945-.62.414-.834.443-.976.133zM351.72 372.936c0-.097.24-1.803.535-3.79.91-6.145 1.184-9.002 1.198-12.525a89.227 89.227 0 0 0-.07-3.933c-.111-2.134.082-4.08.502-5.073.322-.76.536-.512.746.864.41 2.671.385 10.14-.053 16.32-.196 2.763-.743 7.477-.947 8.156-.04.136-.169.157-.98.157-.867 0-.932-.013-.932-.176zM363.61 387.306c-.001-.062-.08-.916-.177-1.9-.625-6.34-1.074-12.54-1.252-17.296l-.184-4.916c-.183-4.877.177-7.277 1.152-7.681.226-.094.287-.187.368-.565.135-.631.003-1-.439-1.226-.66-.337-.874-1.192-1.116-4.472-.315-4.257-.418-6.953-.629-16.402a1124.62 1124.62 0 0 0-.188-7.575l-.056-1.676h12.12c10.715 0 12.122.016 12.122.134 0 .074.074.134.165.134.147 0 .172.107.223.953.032.524.059 1.338.059 1.81 0 .471.059 1.5.13 2.287.375 4.135.76 20.758 1.265 54.502l.06 4H375.42c-9.389 0-11.81-.023-11.81-.111z"/>
            <path d="M351.49 378.206c-.156-.172-.174-.322-.166-1.368.009-1.218.202-2.881.842-7.227 1.112-7.552 1.195-8.563 1.209-14.773.01-4.375.036-5.396.151-5.989.263-1.35.615-1.956.865-1.489.736 1.376.713 12.961-.04 20.304-.467 4.547-1.285 8.921-1.906 10.196-.2.413-.277.49-.509.512a.485.485 0 0 1-.447-.166zM297.96 414.476c-.347-9.135-.79-33.516-.906-49.81-.056-7.906-.18-15.996-.28-18.211l-.06-1.319 34.397.006 1.782 2.925c8.014 13.15 13.056 21.76 15.06 25.717 1.46 2.884 1.97 4.406 2.158 6.449.188 2.037-.033 5.715-.46 7.673a53.582 53.582 0 0 0-.443 2.603c-.306 2.07-.783 4.92-1.785 10.671-.39 2.237-.83 4.808-.98 5.713s-.285 1.66-.303 1.678c-.108.108-.366-.205-1.033-1.251-1.105-1.732-4.054-6.665-7.382-12.352-8.41-14.369-13.674-23.045-14.058-23.174-.363-.12-.462 1.73-.556 10.347-.08 7.259-.027 14.922.179 26.279.048 2.68.088 5.485.089 6.234v1.364h-25.36zM424.72 309.186c-.362-.133-.73-.416-1.259-.967-.59-.616-.841-1.05-.842-1.456 0-.295.084-.426.711-1.101 1.378-1.484 2.054-3.352 3.413-9.423.149-.664.277-1.214.285-1.222.008-.008.001 1.607-.016 3.588-.03 3.506.06 5.748.25 6.248.22.576.548.351 1.554-1.061.35-.492.84-1.095 1.09-1.341.815-.806 2.061-1.321 2.692-1.113.428.141.568.316.568.708 0 .402-.322.919-1.259 2.022-.829.977-3.464 3.542-4.24 4.128-1.206.91-2.228 1.254-2.948.99zM445.28 324.606c-.148-.016-.732-.075-1.297-.13-1.297-.129-1.625-.21-1.956-.49-.497-.418-.464-1.44.12-3.687 2.075-7.995 3.581-13.076 4.747-16.017.263-.664.56-1.473.661-1.799l.182-.592.738-.049a15.06 15.06 0 0 0 1.48-.189c1.26-.237 3.594-.318 9.255-.32 4.783 0 5.434.016 5.389.133-.086.223-3.689 6.593-4.596 8.125-2.723 4.599-8.446 13.341-9.123 13.936-.153.135-.958.491-1.778.787-.74.268-2.687.416-3.823.291zM470.8 445.836a53.903 53.903 0 0 1-1.789-.496c-2.581-.754-3.012-1.245-4.365-4.968-1.065-2.929-2.122-6.403-4.615-15.159-.33-1.16-.627-2.151-.66-2.203-.077-.127-8.54-.292-14.716-.288-7.859.005-12.628.174-15.154.537-1.935.278-2.767.593-3.34 1.262-.693.81-1.74 3.167-2.674 6.02-.654 2-1.035 3.363-2.69 9.643-.764 2.896-1.408 5.284-1.43 5.307s-2.77.047-6.103.054c-6.512.013-7.353-.023-10.827-.466l-1.907-.242.01-4.959c.014-8.002.311-16.626.728-21.137.05-.54.149-2.531.22-4.424l.128-3.441 5.871-22.792 25.436-.046-.05.247c-.037.184-3.836 17.172-4.333 19.382l-.083.365 2.59.379a80.59 80.59 0 0 0 8.066.802c6.382.317 11.858.135 13.413-.447.628-.235 1.306-.851 1.543-1.403.343-.796.339-1.398-.02-3.17-.433-2.145-1.425-6.247-2.779-11.49a812.788 812.788 0 0 0-1.171-4.508c-.046-.15.554-.156 12.044-.134l12.092.023.478 1.608c.823 2.773 2.734 8.884 3.912 12.514 2.336 7.195 3.245 10.23 4.371 14.591l.675 2.615v26.1h-7.565l-.11-2.57c-.06-1.413-.144-3.353-.187-4.312-.042-.959-.102-3.654-.134-5.989-.048-3.527-.52-23.043-.611-25.296-.015-.369-.035.014-.045.85l-.107 9.563c-.18 16.09-.295 20.73-.585 23.508-.071.689-.13 1.905-.13 2.704v1.453h-.494c-.388 0-.572.052-.862.243-.438.29-1.25.358-2.041.17zM432.52 341.736c-8.705-.092-10.873-.278-11.649-1.003-.494-.46-.598-.822-.586-2.03.017-1.729.373-3.438 1.287-6.179.527-1.583 1.514-4.098 1.937-4.938.622-1.236 1.45-1.827 2.827-2.016 1.364-.187 2.03-.111 2.448.28.17.159.667 1.524.88 2.417.081.34.219.218.219-.194 0-1.108.473-1.94 1.246-2.193 1.21-.394 3.444-.492 11.267-.493 8.604-.002 10.352.111 11.667.754.346.168.809.485 1.028.702.583.576 1.545 2.57 2.618 5.424.659 1.75 1.625 4.709 1.84 5.636.265 1.131.499 2.937.395 3.041-.047.048-.425.127-.84.175-3.572.42-5.388.513-12.194.624-5.384.089-5.303.089-14.39-.007zM498.27 368.846c-.033-2.348-.145-13.256-.251-24.241-.145-14.996-.167-19.981-.09-20.007.057-.019.103-.091.103-.161 0-.079.092-.126.246-.125.135.001 2.9.06 6.145.133s9.229.13 13.299.132c5.84 0 7.406.025 7.432.113.019.062.1 5.18.18 11.374.081 6.195.184 13.475.23 16.178s.122 7.812.173 11.352c.05 3.54.109 7.13.13 7.978l.037 1.542h-27.577z"/>
        </g>
        <path d="M356.36 455.006c-.142-.257-.137-1.73.007-2.09.104-.26.108-.261.279-.09.235.237.482 1.237.406 1.65-.073.402-.277.733-.45.733-.072 0-.181-.092-.242-.203z" stroke-width=".09"/>
        <path d="M369.96 444.996l-2.608-.073-1.253-1.976c-1.588-2.504-6.206-10.184-10.043-16.7-4.566-7.754-7.643-12.525-8.646-13.406-.42-.37-.457-.38-.615-.164-.538.735-.202-.97.772-3.918 2.085-6.314 3.147-11.52 4.404-21.584.28-2.244.548-4.555.596-5.135.047-.581.124-1.08.17-1.108.046-.028 1.284 1.881 2.752 4.243 3.996 6.43 5.807 9.064 7.28 10.587.363.376.738.658.831.628.542-.177.635-2.954.23-6.793-.91-8.606-1.405-14.941-1.723-22.022l-.084-1.88h24.885l.002.35c.001.193.056 3.362.121 7.043.066 3.681.152 9.533.193 13.003.04 3.471.22 18.118.398 32.551.178 14.432.306 26.257.283 26.276-.091.08-15.518.146-17.946.078z" stroke-width=".127"/>
    </g>
</svg>
