<svg xmlns="http://www.w3.org/2000/svg" height="145.432" width="600" viewBox="0 0 158.75 38.479">
    <path d="M158.2 16.472h-3.299l-1.098.549-10.996 14.295-1.098.549h-2.32l-.03-.031-.521-.539V.549L138.289 0h-6.599l-.549.549V37.93l.549.55h14.965c1.054-1.057 12.096-15.96 12.096-15.96V17.02l-.551-.549zM31.88 11.545C31.88 3.848 26.383 0 18.686 0H.546l-.55.549V37.93l.55.55h6.6l.55-.55V23.638l.55-.55h5.49l1.1.55L25.834 37.93l1.098.55h3.299l.551-.55v-5.498l-7.147-9.345v-.549c4.397-1.099 8.245-4.947 8.245-10.993m-13.194 4.948H8.246l-.55-.55V7.144l.55-.549h10.44c3.3 0 5.498 1.1 5.498 4.95 0 3.847-2.198 4.947-5.498 4.947M36.091 0l-.549.55v37.38l.549.55h25.836l.549-.55v-5.498l-.549-.549h-18.14l-.549-.549v-8.796l.549-.549h17.04l.551-.55v-5.497l-.551-.549h-17.04l-.549-.552V7.145l.549-.549h18.14l.549-.549V.55L61.927 0H36.091zm64.792 0l-.549.55v37.38l.549.55h25.836l.55-.55v-5.498l-.55-.549h-18.142l-.547-.549v-8.796l.547-.549h17.042l.549-.55v-5.497l-.55-.549h-17.041l-.547-.552V7.145l.547-.549h18.142l.55-.549V.55l-.55-.549h-25.836zM89.965 18.69v-.55c3.848-1.098 5.495-4.397 5.495-8.245C95.46 2.748 89.965 0 84.467 0H66.876l-.549.55v37.38l.549.55h18.691c5.496 0 10.993-2.748 10.993-10.445 0-4.948-2.198-8.245-6.595-9.346M74.023 7.145l.549-.549h8.797c3.296 0 4.397 1.65 4.397 4.397 0 2.201-1.101 4.4-4.397 4.4h-8.797l-.549-.552V7.145zm9.346 24.738h-8.797l-.549-.549v-8.796l.549-.549h8.797c3.846 0 5.497 1.65 5.497 4.946 0 3.3-1.651 4.948-5.497 4.948" fill="#fff"/>
</svg>
