<svg xmlns="http://www.w3.org/2000/svg" height="285.26" width="600">
    <path d="M242.48 57.527h-57.5V-.002h57.5v57.529z" fill="#80cc28"/>
    <path d="M184.98 57.527h-57.5V-.002h57.5v57.529z" fill="#40b93c"/>
    <path d="M357.51 57.527h-57.5V-.002h57.5v57.529z" fill="#ed1c24"/>
    <path d="M415.04 57.527h-57.5V-.002h57.5v57.529z" fill="#9b161b"/>
    <path d="M472.54 57.527h-57.5V-.002h57.5v57.529z" fill="#7641a4"/>
    <path d="M184.98 115.057h-57.5V57.558h57.5v57.499z" fill="#f68712"/>
    <path d="M415.04 115.057h-57.5V57.558h57.5v57.499z" fill="#68bce2"/>
    <path d="M184.98 172.557h-57.5v-57.499h57.5v57.499z" fill="#fff200"/>
    <path d="M415.04 172.557h-57.5v-57.499h57.5v57.499z" fill="#2e3192"/>
    <path fill="#a7a5a6" d="M5.11 241.737h.117c1.79-2.378 3.346-4.08 6.662-4.08 1.732 0 3.112.558 4.609 1.41l-2.437 4.666c-1.027-.704-1.731-1.35-3.082-1.35-5.606 0-5.87 7.22-5.87 11.124v14.999H.002V238.48H5.11v3.258zM42.43 250.237c-.705-4.344-4.345-7.866-8.806-7.866-4.432 0-8.512 3.522-9.158 7.866H42.43zm-18.199 4.344c.059 5.547 4.021 10.038 9.833 10.038 4.344 0 7.162-2.612 9.128-6.193l4.344 2.465c-2.876 5.372-7.72 8.454-13.854 8.454-8.952 0-14.705-6.84-14.705-15.468 0-8.894 5.166-16.231 14.558-16.231 9.657 0 14.764 7.983 14.265 16.936H24.231zM57.19 253.177c0 5.87 3.463 11.447 9.832 11.447 6.575 0 10.038-5.313 10.038-11.388 0-5.988-3.757-10.86-10.097-10.86-5.93 0-9.774 5.166-9.774 10.801m24.743 13.854c0 4.814 0 8.952-3.082 12.915-2.818 3.58-7.162 5.313-11.623 5.313-8.365 0-14.588-5.313-14.764-13.795h5.107c.059 5.547 4.08 9.07 9.598 9.07 7.925 0 9.627-5.812 9.627-12.593v-3.58h-.117c-2.436 3.14-6.399 4.989-10.42 4.989-8.747 0-14.323-7.367-14.323-15.732 0-8.424 5.635-15.967 14.529-15.967 4.138 0 7.778 1.85 10.214 5.107h.117v-4.285h5.137v28.559zM97.96 268.507h-5.108v-30.026h5.107v30.026zm1.085-41.327a3.639 3.639 0 0 1-3.64 3.64c-1.966 0-3.639-1.615-3.639-3.64 0-1.996 1.673-3.64 3.64-3.64a3.658 3.658 0 0 1 3.64 3.64M111.07 253.497c0 6.134 4.343 11.124 10.683 11.124 6.31 0 10.655-4.99 10.655-11.124 0-6.076-4.344-11.124-10.655-11.124-6.34 0-10.684 5.048-10.684 11.124m-5.107.059c0-8.806 6.956-15.908 15.791-15.908 8.805 0 15.762 7.103 15.762 15.908 0 8.834-7.015 15.79-15.762 15.79-8.776 0-15.79-6.956-15.79-15.79M149.67 242.127h.117c2.113-2.876 4.872-4.461 8.57-4.461 8.307 0 10.214 5.987 10.214 13.032v17.816h-5.107v-16.936c0-4.843-.381-9.187-6.31-9.187-7.045 0-7.485 6.516-7.485 11.887v14.235h-5.107v-30.026h5.107v3.64zM180.99 253.177c0 5.87 3.463 11.447 9.832 11.447 6.575 0 10.038-5.313 10.038-11.388 0-5.988-3.757-10.86-10.097-10.86-5.93 0-9.774 5.166-9.774 10.801m24.743 15.321h-5.137v-4.139h-.117c-2.612 3.317-6.134 4.99-10.361 4.99-8.805 0-14.382-7.484-14.382-15.79 0-8.571 5.46-15.909 14.441-15.909 4.11 0 7.807 1.908 10.302 5.107h.117v-4.285h5.137v30.026zM220.17 268.507h-5.108v-52.715h5.107v52.715zM234.8 242.127h.117c2.113-2.876 4.872-4.461 8.57-4.461 8.307 0 10.214 5.987 10.214 13.032v17.816h-5.107v-16.936c0-4.843-.381-9.187-6.31-9.187-7.045 0-7.485 6.516-7.485 11.887v14.235h-5.107v-30.026h5.107v3.64zM269.51 268.507h-5.108v-30.026h5.107v30.026zm1.085-41.327c0 2.025-1.673 3.64-3.64 3.64-1.995 0-3.668-1.615-3.668-3.64 0-1.996 1.673-3.64 3.669-3.64 1.966 0 3.64 1.644 3.64 3.64M291.09 268.507h-11.096v-22.102h-3.58v-9.128h3.58v-9.363h11.095v9.363h6.281v9.128h-6.28v22.102zM322.67 248.357c-.558-2.994-3.288-4.931-6.253-4.931-3.258 0-5.929 1.702-6.604 4.931h12.856zm10.301 6.399h-23.334c0 4.49 2.378 6.926 6.956 6.926 2.378 0 4.08-.792 5.284-2.847h10.655c-1.761 7.368-8.776 10.713-15.88 10.713-10.36 0-18.08-5.84-18.08-16.613 0-10.42 7.104-16.7 17.289-16.7 10.83 0 17.112 6.72 17.112 17.346v1.174zM349.09 268.507h-11.096v-50.543h11.095v50.543zM378.19 248.357c-.558-2.994-3.288-4.931-6.282-4.931-3.229 0-5.9 1.702-6.575 4.931h12.856zm10.272 6.399h-23.305c0 4.49 2.378 6.926 6.956 6.926 2.349 0 4.051-.792 5.284-2.847h10.655c-1.761 7.368-8.776 10.713-15.88 10.713-10.36 0-18.08-5.84-18.08-16.613 0-10.42 7.104-16.7 17.289-16.7 10.83 0 17.082 6.72 17.082 17.346v1.174zM408.86 253.297l7.425-16.026h12.416l-16.319 31.259h-7.044l-16.378-31.259h12.416l7.484 16.026zM442.51 268.507h-11.066v-31.23h11.065v31.23zm.674-43.205c0 3.405-2.788 6.193-6.193 6.193-3.434 0-6.222-2.788-6.222-6.193a6.226 6.226 0 0 1 6.222-6.223c3.405 0 6.193 2.789 6.193 6.223M478.31 259.317v9.187h-31.67l14.675-22.043h-12.709v-9.187h31.171l-14.617 22.043h13.15zM505.64 248.357c-.558-2.994-3.288-4.931-6.282-4.931-3.229 0-5.9 1.702-6.575 4.931h12.856zm10.272 6.399h-23.305c0 4.49 2.378 6.926 6.956 6.926 2.349 0 4.051-.792 5.284-2.847h10.655c-1.761 7.368-8.776 10.713-15.88 10.713-10.36 0-18.08-5.84-18.08-16.613 0-10.42 7.104-16.7 17.289-16.7 10.83 0 17.082 6.72 17.082 17.346v1.174zM530.74 265.707c0 1.996-1.586 3.64-3.582 3.64s-3.58-1.644-3.58-3.64c0-1.908 1.584-3.522 3.58-3.522s3.581 1.614 3.581 3.522M564.16 247.427h-.118c-2.378-2.994-5.313-5.048-9.334-5.048-6.193 0-10.625 5.107-10.625 11.124 0 5.929 4.11 11.124 10.361 11.124 4.285 0 7.28-1.938 9.774-5.196h.147v6.84c-2.965 1.995-5.958 3.081-9.54 3.081-9.069 0-15.966-6.78-15.966-15.85 0-8.952 7.22-15.85 16.026-15.85 3.258 0 6.604 1.086 9.275 2.994v6.78zM599.12 263.787v4.726h-31.055l21.661-25.301h-17.64v-4.726H600l-21.573 25.301h20.693z"/>
</svg>
