<svg overflow="inherit" version="1.1" viewBox="0 0 449.63 117.38" xml:space="preserve" xmlns="http://www.w3.org/2000/svg"><g transform="matrix(2.3665 0 0 2.3665 -37.863 -203.99)"><g fill="#211452"><path d="m139.95 104.86v18.52h8.114v-23.148z"/><path d="m162.04 123.98c-9.973 0-11.26-5.137-11.26-11.771 0-6.678 1.287-11.814 11.26-11.814 9.972 0 11.298 5.136 11.298 11.814 0 6.635-1.326 11.771-11.298 11.771zm0-18.362c-2.955 0-3.083 1.754-3.083 6.592 0 4.794 0.128 6.549 3.083 6.549 2.954 0 3.124-1.755 3.124-6.549 0-4.837-0.17-6.592-3.124-6.592z"/><path d="m89.297 106.18s-0.531 0.038-0.903 0.038c-2.353 0-4.491 0.301-4.491 0.301v16.264 0.644h-8.092v-0.644-19.091c0-1.542 1.496-1.969 4.194-2.483 2.098-0.427 4.922-0.727 7.62-0.727h0.769c0.322 0 0.879 0.013 0.879 0.013s0.02 0.609 0.02 0.971v3.725c0 0.303 4e-3 0.989 4e-3 0.989z"/><path d="m137.08 112.21c0-6.678-1.325-11.814-11.302-11.814-9.971 0-11.255 5.136-11.255 11.814 0 6.634 1.284 11.771 11.255 11.771 1.214 0 2.295-0.078 3.264-0.221-0.012 1.475-0.611 2.487-2.051 2.994-0.9 0.344-2.185 0.515-3.854 0.515-2.568 0-5.007-0.813-5.693-0.982l-0.63-0.178-1.085 4.481s0.39 0.23 0.687 0.317c1.2 0.512 4.153 1.498 8.178 1.498 7.339 0 11.365-2.122 12.232-8.657 0 1e-3 0.143-6.343 0.223-9.984 0.022-0.507 0.031-1.028 0.031-1.554zm-11.302 6.549c-2.95 0-3.08-1.755-3.08-6.549 0-4.837 0.13-6.592 3.08-6.592 2.954 0 3.126 1.754 3.126 6.592 0 4.794-0.172 6.549-3.126 6.549z"/><path d="m111.94 116.32c-0.13 0.071-0.219 0.122-0.219 0.122s-5.225 2.524-7.794 2.524c-1.67 0-2.876-0.271-3.776-0.614-1.454-0.515-2.049-1.564-2.049-3.064 0 0 0-6.549 0.129-7.406 0.214-1.498 0.94-2.353 3.25-2.353 1.544 0 2.527 0.642 2.871 2.61 0.047 0.332 0.092 0.497 0.125 0.848l-2 1.133c-1.581 0.94-1.784 1.163-1.789 2.962 0 1e-3 -1e-3 5e-3 -1e-3 9e-3l-0.01 3.47 11.61-6.235c-0.042-1.902-0.229-2.808-0.646-4.181l4e-3 -3e-3c-0.02-0.074-0.046-0.144-0.069-0.213-0.015-0.042-0.027-0.084-0.041-0.126-0.392-1.144-0.946-2.106-1.708-2.885-1.669-1.713-4.408-2.525-8.515-2.525-8.221 0-11.174 3.081-11.174 11.986 0 8.86 4.065 11.599 12.411 11.599 3.574 0 7.728-1.859 9.407-2.695z"/><path d="m141.96 92.427c-1.096 0.014-1.984 0.89-2.015 1.983v7.542l8.045-4.588v-4.942z"/><path d="m206 93.099c0-0.333-0.266-0.603-0.597-0.609h-6e-3 -7e-3 -6e-3c-0.217 0-0.469 1e-3 -0.711 3e-3l-4.052 0.03c-0.5 4e-3 -0.998 0.406-1.107 0.894l-3.114 13.866-3.22-13.715c-0.143-0.608-0.771-1.104-1.396-1.102l-4.631 0.02h-14.622c-0.5 0-0.909 0.409-0.909 0.909v2.426c0 0.5 0.409 0.909 0.909 0.909h4.086c0.5 0 0.909 0.409 0.909 0.909v12.883c0 0.5 0.409 0.908 0.909 0.908h4.33c0.5 0 0.909-0.409 0.909-0.908v-12.882c0-0.5 0.409-0.909 0.909-0.909h3.131l4.108 13.611c0.181 0.599 0.84 1.088 1.465 1.089h1.801 0.527 0.188 0.47c0.256-1e-3 0.534-2e-3 0.778-3e-3l2.846-0.012c0.5-2e-3 1.021-0.396 1.159-0.877l4.712-16.543c0.07-0.25 0.146-0.512 0.209-0.733l-1e-3 -1e-3c0.015-0.053 0.024-0.106 0.024-0.163z"/></g><path d="m37.726 123.4v-4e-3h-5e-3z" fill="#1d191d"/><path d="m48.591 117.2v-5e-3l-5e-3 5e-3z" fill="#1d191d"/><path d="m59.456 111v-9e-3l-5e-3 5e-3z" fill="#1d191d"/><path d="m59.456 111-5e-3 -4e-3 -10.86 6.196v5e-3l10.86 6.196h5e-3z" fill="#f39200"/><path d="m37.726 86.206v-7e-3l-5e-3 5e-3z" fill="#ffce00"/><path d="m26.861 117.2v-5e-3l-5e-3 5e-3z" fill="#1d191d"/><path d="m37.726 111v-9e-3l-5e-3 5e-3z" fill="#1d191d"/><path d="m48.591 104.8v-5e-3h-5e-3z" fill="#1d191d"/><path d="m59.456 98.606v-9e-3l-5e-3 5e-3z" fill="#1d191d"/><path d="m26.856 92.4-10.856 6.197v9e-3l10.856 6.192h5e-3l10.86-6.196-10.86-6.197z" fill="#fbba00"/><path d="m37.726 86.206-5e-3 -2e-3 -10.86 6.192-5e-3 4e-3 5e-3 5e-3 10.86 6.197 5e-3 -5e-3 10.86-6.197z" fill="#ffcd00"/><path d="m26.856 92.4-10.856-6.194v12.391z" fill="#ffde14"/><path d="m37.726 123.4-5e-3 -4e-3 -10.86 6.197-5e-3 5e-3 5e-3 5e-3 10.86 6.197 5e-3 -6e-3 10.86-6.196z" fill="#ffcd00"/><path d="m48.586 117.2-10.86 6.196v4e-3l10.86 6.198 5e-3 -5e-3 10.86-6.197-10.86-6.196z" fill="#fab900"/><path d="m48.586 92.4-10.86 6.197v7e-3l10.86 6.194h5e-3l10.86-6.196-10.86-6.197z" fill="#f39200"/><path d="m48.591 92.405 10.86 6.197 5e-3 -5e-3v-12.398l-5e-3 2e-3 -10.86 6.199z" fill="#fbba00"/><path d="m26.856 117.2-10.856 6.196v4e-3l10.856 6.198 5e-3 -5e-3 10.86-6.197-10.86-6.196z" fill="#f29100"/><path d="m37.726 98.604v-7e-3l-5e-3 5e-3z" fill="#1d191d"/><path d="m37.721 111-10.86 6.196v5e-3l10.86 6.196h5e-3v-12.393z" fill="#2c2274"/><path d="m16 111v12.393l10.856-6.196z" fill="#69a4d9"/><path d="m37.726 98.604v12.391l10.86-6.197z" fill="#2e247a"/><path d="m59.451 98.602-10.86 6.196v5e-3l10.86 6.197 5e-3 -5e-3v-12.389z" fill="#6184c3"/><path d="m16 98.606v12.389l10.856-6.197z" fill="#386fb4"/><path d="m37.726 111v9e-3l10.86 6.197 5e-3 -5e-3 10.86-6.196-10.86-6.197-5e-3 -5e-3z" fill="#004899"/><path d="m37.726 111v12.393l10.86-6.196z" fill="#211452"/><path d="m16 111v9e-3l10.856 6.197 5e-3 -5e-3 10.86-6.196-10.86-6.197-5e-3 -5e-3z" fill="#3a388e"/><path d="m26.856 104.8 5e-3 5e-3 10.86 6.197 5e-3 -5e-3v-12.391l-5e-3 -2e-3 -10.86 6.196z" fill="#4054a1"/></g></svg>
