<svg version="1.0" viewBox="0 0 600 482.58" xmlns="http://www.w3.org/2000/svg" xmlns:xlink="http://www.w3.org/1999/xlink">
 <defs>
  <linearGradient id="a" x2="1" gradientTransform="matrix(356.62 0 0 356.62 543.41 258.05)" gradientUnits="userSpaceOnUse">
   <stop stop-color="#00599f" offset="0"/>
   <stop stop-color="#00599f" offset=".015873"/>
   <stop stop-color="#00599f" offset=".031746"/>
   <stop stop-color="#0059a0" offset=".047619"/>
   <stop stop-color="#0059a0" offset=".063492"/>
   <stop stop-color="#005aa0" offset=".079365"/>
   <stop stop-color="#005aa0" offset=".095238"/>
   <stop stop-color="#005ba1" offset=".11111"/>
   <stop stop-color="#005ba1" offset=".12698"/>
   <stop stop-color="#005ca1" offset=".14286"/>
   <stop stop-color="#005ca1" offset=".15873"/>
   <stop stop-color="#005da2" offset=".1746"/>
   <stop stop-color="#005ea2" offset=".19048"/>
   <stop stop-color="#005ea2" offset=".20635"/>
   <stop stop-color="#005fa3" offset=".22222"/>
   <stop stop-color="#0060a3" offset=".2381"/>
   <stop stop-color="#0061a4" offset=".25397"/>
   <stop stop-color="#0062a4" offset=".26984"/>
   <stop stop-color="#0062a5" offset=".28571"/>
   <stop stop-color="#0063a5" offset=".30159"/>
   <stop stop-color="#0064a6" offset=".31746"/>
   <stop stop-color="#0065a6" offset=".33333"/>
   <stop stop-color="#0066a7" offset=".34921"/>
   <stop stop-color="#0067a8" offset=".36508"/>
   <stop stop-color="#0068a8" offset=".38095"/>
   <stop stop-color="#0069a9" offset=".39682"/>
   <stop stop-color="#006baa" offset=".4127"/>
   <stop stop-color="#006caa" offset=".42857"/>
   <stop stop-color="#006dab" offset=".44444"/>
   <stop stop-color="#006eac" offset=".46032"/>
   <stop stop-color="#0070ad" offset=".47619"/>
   <stop stop-color="#0071ae" offset=".49206"/>
   <stop stop-color="#0072ae" offset=".50794"/>
   <stop stop-color="#0074af" offset=".52381"/>
   <stop stop-color="#0075b0" offset=".53968"/>
   <stop stop-color="#0077b1" offset=".55556"/>
   <stop stop-color="#0078b1" offset=".57143"/>
   <stop stop-color="#007ab2" offset=".5873"/>
   <stop stop-color="#007bb3" offset=".60317"/>
   <stop stop-color="#007db4" offset=".61905"/>
   <stop stop-color="#007fb5" offset=".63492"/>
   <stop stop-color="#0081b7" offset=".65079"/>
   <stop stop-color="#0083b8" offset=".66667"/>
   <stop stop-color="#0085ba" offset=".68254"/>
   <stop stop-color="#0087bb" offset=".69841"/>
   <stop stop-color="#0089bc" offset=".71429"/>
   <stop stop-color="#008bbd" offset=".73016"/>
   <stop stop-color="#008ebf" offset=".74603"/>
   <stop stop-color="#0090c0" offset=".76191"/>
   <stop stop-color="#0092c1" offset=".77778"/>
   <stop stop-color="#0094c2" offset=".79365"/>
   <stop stop-color="#0096c4" offset=".80952"/>
   <stop stop-color="#0099c5" offset=".8254"/>
   <stop stop-color="#009bc6" offset=".84127"/>
   <stop stop-color="#009dc8" offset=".85714"/>
   <stop stop-color="#00a0c9" offset=".87302"/>
   <stop stop-color="#00a2cb" offset=".88889"/>
   <stop stop-color="#00a5cc" offset=".90476"/>
   <stop stop-color="#00a7cd" offset=".92063"/>
   <stop stop-color="#00aacf" offset=".93651"/>
   <stop stop-color="#00acd0" offset=".95238"/>
   <stop stop-color="#00b0d2" offset=".96825"/>
   <stop stop-color="#00b2d3" offset=".98413"/>
   <stop stop-color="#00b5d5" offset="1"/>
  </linearGradient>
 </defs>
 <g transform="translate(-423.72 -80.13)">
  <g transform="matrix(1.6086 0 0 1.6086 -440.46 -195.62)">
   <path d="m690.39 171.44c-26.095-2e-4 -48.08 7.0238-70.136 18.49-22.158 11.405-44.183 30.666-65.035 53.558l-12.114 12.752 10.839 13.39c18.893 24.974 38.205 41.245 59.934 54.833 21.424 13.466 45.127 20.403 70.773 20.403 0.16323 2.1e-4 0.45397 0 0.6376 0 1.4894 4.1e-4 2.9942 0.0204 4.4632 0 20.73-0.61209 40.215-7.3757 58.659-16.578 18.465-9.2426 36.251-21.25 52.921-34.43 4.6521-3.7134 8.8397-7.6614 13.39-11.477l35.068-31.242c14.017-12.854 29.467-27.519 41.444-37.618l-28.054-30.605c-15.098 12.752-31.844 28.789-47.82 43.357l-0.6376 0.6376-32.518 28.054-1.2752 1.2752c-17.261 14.139-34.298 26.743-51.008 35.068-14.731 7.3453-28.753 11.15-41.444 11.477-1.122-2.1e-4 -2.127 0-3.188 0-18.812-0.061-34.185-4.4377-49.733-14.027-11.712-7.3045-23.591-14.415-36.343-29.33l-0.6376-0.63759 0.6376-1.2752c13.486-13.16 27.825-24.239 40.169-30.605 16.098-8.2227 30.426-13.349 51.645-13.39 1.3464-2.1e-4 2.4382 0 3.8256 0 9.9975 0.16343 24.173 4.6723 40.169 12.752 12.405 6.2024 26.228 13.793 39.531 22.954l32.518-28.054c-17.118-12.283-35.129-23.581-52.921-32.518-19.24-9.5281-38.149-16.644-58.021-17.215-1.6937-0.041-4.0245 0-5.7384 0zm165.14 87.351-31.88 28.054c19.036 15.303 33.221 28.014 46.545 38.256l29.967-29.33c-11.038-8.4879-27.085-22.637-44.632-36.981z" fill="url(#a)"/>
   <path d="m564.32 406.16c-1.4486-1.1222-2.53-1.5506-3.9786-1.5506-2.1015 0-4.4275 1.4486-6.427 3.8766-2.4484 2.9993-3.5298 8.1204-3.5298 11.977v22.831h-13.16v-51.457h11.385l0.55088 11.283c4.9784-8.7325 9.161-10.059 13.14-10.059 2.7952 0 8.4265 1.571 10.508 3.999z" fill="#00599f"/>
   <path d="m597.49 400.36c-5.8557 0-9.8547 3.9786-10.936 10.936h20.118c-0.32646-7.8552-2.9789-10.936-9.1814-10.936m16.914 40.704c-5.4068 2.428-10.936 3.6522-16.914 3.6522-15.262 0-24.892-10.059-24.892-25.769 0-16.261 11.059-28.544 25.79-28.544 12.711 0 21.566 9.6303 21.566 23.566v5.6517h-34.094c0.22443 4.3051 0.57129 6.0597 1.7751 8.1817 2.2239 3.7542 6.6514 6.1822 11.528 6.1822 1.9791 0 3.9786-0.22443 6.0801-0.87733 3.1013-0.87734 5.0804-1.8771 9.8343-4.856l4.8764 10.059c-2.428 1.3262-4.3255 2.2035-5.5496 2.7544" fill="#00599f"/>
   <path d="m628.41 368.12h13.18v75.165h-13.18z" fill="#00599f"/>
   <path d="m651.48 391.85h13.16v51.436h-13.16z" fill="#00599f"/>
   <path d="m732.44 391.85h13.16v51.436h-13.16z" fill="#00599f"/>
   <path d="m780.7 420.39-13.18 4.3051c-0.75492 1.9995-0.97935 2.9789-0.97935 4.3255 0 3.3257 1.9995 5.3048 5.3252 5.3048 1.6526 0 3.6522-0.55089 5.4068-1.5506 0.87734-0.42847 1.5506-0.89774 3.4277-2.326zm17.424 23.566h-4.9172c-6.6514 0-8.753-1.1018-11.059-5.6313-4.8764 4.4071-9.2018 6.2842-14.384 6.2842-8.753 0-14.956-5.7537-14.956-13.935 0-1.7751 0.34685-3.5502 0.89774-5.1824 1.7751-4.7743 4.856-7.2023 12.385-9.4058l14.609-4.2234v-4.3051c0-5.5292-1.9995-8.0796-6.3046-8.0796-3.9786 0-7.2023 2.1015-7.2023 4.6519 0 0.42847-0.30605 1.469-0.0816 0.75492l-12.854 2.8972v-3.1013c0-9.059 7.9776-14.282 21.913-14.282 12.283 0 17.812 5.1008 17.812 16.384v21.464c0 4.6519 0.55088 5.4068 4.101 5.7537z" fill="#00599f"/>
   <path d="m814.31 444.72c-4.4887 0-8.1817-3.693-8.1817-8.1817 0-4.6111 3.693-8.1817 8.1817-8.1817 4.5091 0 8.0796 3.5706 8.0796 8.1817 0 4.4887-3.5706 8.1817-8.0796 8.1817" fill="#00599f"/>
   <path d="m739.36 384.63c-4.5091 0-8.1817-3.693-8.1817-8.1817 0-4.6111 3.6726-8.1817 8.1817-8.1817s8.0796 3.5706 8.0796 8.1817c0 4.4887-3.5706 8.1817-8.0796 8.1817" fill="#00599f"/>
   <path d="m658.02 384.63c-4.5091 0-8.1817-3.693-8.1817-8.1817 0-4.6111 3.6726-8.1817 8.1817-8.1817s8.0796 3.5706 8.0796 8.1817c0 4.4887-3.5706 8.1817-8.0796 8.1817" fill="#00599f"/>
   <path d="m852.53 441.3c-3.8766 2.2035-7.8552 3.4073-11.507 3.4073-6.8555 0-10.079-3.5094-10.079-11.161v-31.972h-7.6104v-8.4061l7.6104-1.3058v-15.384h12.528v15.384h11.161v9.7119h-11.161v22.913c0 5.7537 0.55089 7.4063 2.6524 7.4063 1.5506 0 3.4073-0.77532 7.0799-3.2033l4.1826 9.6303c-1.7751 1.1018-3.4073 2.0811-4.856 2.9789" fill="#00b5d5"/>
   <path d="m890.4 443.29h-13.16l-17.261-51.436h13.833l10.385 34.053 0.34686 2.2444 0.34685-2.2444 11.487-34.053h13.833z" fill="#00b5d5"/>
   <path d="m696.25 420.31c-4.7743 0-8.5285-4.203-8.5285-9.4058 0-5.3252 3.7542-9.7527 8.4265-9.7527 4.7335 0 8.6101 4.3459 8.6101 9.6303 0 5.3252-3.7542 9.5283-8.5081 9.5283m28.768-28.442c0-0.0204-20.036 1.4078-20.036 1.4078-3.5298-1.163-7.59-1.6118-8.7326-1.6118-13.609 0-22.015 7.5288-22.015 19.811 0 4.856 1.5506 9.059 4.5295 12.589 1.2242 1.4486 2.2035 2.2239 4.5295 3.999-1.4282 1.0814-2.53 1.7751-3.2033 2.3056-4.9784 3.3257-6.7534 5.6517-6.7534 8.6305 0 3.1013 2.1015 5.1008 7.2023 6.9575 0 0 3.1829 1.5506 7.7124 1.6731h15.955c4.4275 0 6.529 1.1018 6.529 3.2033 0 1.9995-1.4486 4.3255-3.8766 6.2026-3.0809 2.5504-7.4064 3.9786-11.405 3.9786-5.4272 0-9.8139-2.0403-10.671-4.7743l-10.263 8.4061c3.3053 4.203 10.12 6.7738 18.955 6.7738 17.261 0 29.646-9.2834 29.646-22.137 0-8.2837-4.7335-12.385-14.813-12.385h-18.036c-2.5504 0-3.4277-0.32645-3.4277-1.4282 0-1.3262 1.6526-2.9993 5.0804-5.5293 1.6731 0.32645 2.4484 0.32645 3.7746 0.32645 13.486 0 22.545-7.8552 22.545-19.587 0-3.3053-1.4486-5.6925-3.2237-8.2429l9.9975-1.3874z" fill="#00599f"/>
  </g>
 </g>
</svg>
