<svg xmlns="http://www.w3.org/2000/svg" width="76.357mm" height="48.695mm" viewBox="0 0 76.357277 48.695019"><g><path d="M31.796 17.763h-1.365v2.155c0 1.136-.922 2.059-2.058 2.059-1.133 0-2.056-.923-2.056-2.059v-2.155h-4.826c-1.13 0-2.055-.918-2.055-2.05 0-.46.154-.885.409-1.223h-.004l6.872-9.127.002.001c.372-.511.979-.844 1.658-.844 1.135 0 2.057.92 2.057 2.053v7.081h1.365c1.139 0 2.052.925 2.052 2.06 0 1.133-.913 2.05-2.052 2.05m7.54-.728v-.004c-.419-.136-.723-.531-.723-.997 0-.465.305-.86.724-.996v-.002c3.041-1.038 5.229-3.92 5.229-7.309 0-4.266-3.465-7.727-7.729-7.727h-16.652c-4.27 0-7.727 3.461-7.727 7.727l.001 16.62c0 4.265 3.458 7.724 7.726 7.724 3.454 0 6.384-2.272 7.374-5.405.125-.404.506-.701.947-.701.447 0 .828.296.956.7v-.004c.985 3.136 3.91 5.411 7.374 5.411 4.263 0 7.729-3.459 7.729-7.724 0-3.395-2.19-6.273-5.231-7.311" fill="#f5520f"/><path style="font-variant-ligatures:normal;font-variant-position:normal;font-variant-caps:normal;font-variant-numeric:normal;font-variant-alternates:normal;font-feature-settings:normal;text-indent:0;text-decoration-line:none;text-decoration-style:solid;text-decoration-color:#000000;text-transform:none;white-space:normal;shape-padding:0;isolation:auto;mix-blend-mode:normal;solid-color:#000000" d="M51.395 6.945l-.043.337-1.598 12.527h24.962l1.641-12.864zm3.341 1.425h1.559l-.522 4.124h5.208l.525-4.124h1.561l-1.265 9.992h-1.561l.548-4.246h-5.224l-.536 4.246h-1.561zm10.154 0h2.934c.909 0 1.659.159 2.231.45h.005c.591.3 1.064.689 1.411 1.153.351.469.605.994.755 1.565.15.581.225 1.153.225 1.692 0 .75-.112 1.448-.323 2.076-.22.637-.52 1.176-.9 1.626-.375.455-.83.806-1.34 1.054-.506.248-1.059.375-1.654.375h-4.597zm1.392 1.312l-.042.337-.876 7.03h2.114c.567 0 1.083-.108 1.518-.337.417-.22.773-.52 1.045-.886.267-.366.464-.783.586-1.242.127-.459.192-.923.192-1.387 0-.473-.075-.933-.22-1.359-.145-.426-.361-.801-.647-1.12v-.005c-.291-.319-.651-.572-1.069-.754-.426-.187-.914-.277-1.448-.277z" color="#000" fill="#a7a5a5"/><path d="M10.153 38.916h-1.787l-2.669 6.071-1.277-6.071h-1.845l-2.575 9.651h1.693l1.787-6.707h.024l1.392 6.707h.801l2.936-6.523h.023l.243 6.523h1.625zm7.542 0h-4.943l-1.114 9.651h5.79l.185-1.612h-4.107l.29-2.534h2.866l.187-1.614h-2.867l.268-2.279h3.261zm1.799 0l-1.102 9.651h4.085c2.111 0 3.736-2.08 3.736-4.953 0-2.095-.928-4.698-4.085-4.698zm1.496 1.612h.813c1.74 0 2.669 1.36 2.669 3.058 0 1.67-.766 3.368-2.633 3.368h-1.579zm8.948-1.612h-1.684l-1.113 9.651h1.682zm5.535-.127h-1.788l-3.875 9.778h1.857l.767-2.108h2.459l.243 2.108h1.729zm-1.161 2.023h.024l.418 4.274h-1.834zm8.97-1.259c-.685-.496-1.498-.764-2.263-.764-1.601 0-2.785 1.245-2.785 2.915 0 2.532 2.912 2.717 2.912 4.316 0 .636-.453 1.061-1.138 1.061-.661 0-1.601-.425-2.239-.991l-.255 1.684c.708.567 1.543.921 2.692.921 1.775 0 2.681-1.401 2.681-2.958 0-2.703-2.913-2.887-2.913-4.274 0-.636.499-1.061 1.113-1.061.603 0 1.452.396 1.961.849zm6.683-.637h-4.943l-1.114 9.651h5.791l.185-1.612h-4.108l.29-2.534h2.867l.185-1.614h-2.866l.267-2.279h3.261zm7.949 0h-6.765l-.187 1.612h2.507l-.928 8.038h1.682l.929-8.038h2.575z" fill="#a7a5a5"/></g></svg>