<svg version="1.1" viewBox="0 0 716.3 138" xml:space="preserve" xmlns="http://www.w3.org/2000/svg"><path d="m249.43 137.95h19.535c2.5018 0 4.479-1.2101 5.1938-3.6304l21.991-66.511 21.801 66.511c0.71477 2.4202 2.5383 3.6304 5.1822 3.6304h19.55c2.5053 0 4.1159-1.2101 5.0106-3.4575l34.712-88.685c1.0737-2.9389-0.35791-5.0134-3.579-5.0134h-16.835c-2.5048 0-4.4886 1.0372-5.2043 3.4575l-23.959 69.991-22.717-69.818c-0.71569-2.4202-2.6894-3.6304-5.1942-3.6304h-17.542c-2.5048 0-4.4729 1.2101-5.1886 3.6304l-22.715 69.818-24.154-69.991c-0.89459-2.2474-2.6838-3.4575-5.1886-3.4575h-16.298c-3.2211 0-4.6528 2.0745-3.5791 5.0134l34.167 88.685c0.89477 2.2474 2.5053 3.4575 5.0107 3.4575z" fill="#de004d"/><path d="m0 23.912v109.72c0 2.766 1.6101 4.3679 4.4728 4.3679h15.464c1.8094 0 2.896-0.35344 3.6508-1.0149 0.85224-0.7468 1.2821-1.7481 1.2821-3.2149v-35.213h30.779l19.49 36.63c1.2524 1.9016 3.0414 2.789 5.3674 2.789h18.63c3.5783 0 5.0325-2.2705 2.8855-5.2094l-21.309-36.673c5.2036 0.08322 10.173-0.82278 13.774-2.5616 4.4594-2.1534 7.053-5.186 8.9252-9.017 0.97077-1.9865 1.9776-5.1145 2.4945-8.0464 1.1275-6.3945 0.96434-11.715 0.96434-21.303v-11.049l-0.0133-11.085c-0.0325-2.2355-0.10446-4.2205-0.2553-5.9991-0.22772-2.6849-0.62572-5.2492-1.321-8.039-0.92142-3.6975-2.5337-7.2461-4.755-10.078-2.688-3.4269-6.025-5.4346-9.0694-6.654-2.9213-1.1701-6.31-1.8093-8.8867-2.0284-3.6161-0.30744-4.4277-0.22221-11.639-0.22221h-46.295c-3.8324 0-7.4752 0.78155-10.683 2.1258-4.2605 1.7856-7.6172 4.489-9.954 7.9035-2.8039 4.0968-3.9986 9.0659-3.9986 13.87zm51.302-0.80417h8.0834c2.6588 0 4.9341-0.0047 6.9094 0.0054 2.4843 0.01266 4.0201-0.05203 6.1941 0.32215 1.1289 0.1943 2.1264 0.42161 3.0328 0.82212 1.7954 0.79338 2.5859 1.6768 3.0827 2.2465 1.0101 1.1584 1.7358 2.853 2.1374 4.53 0.32931 1.3751 0.48456 2.6951 0.58006 4.1215 0.13855 2.0696 0.12054 4.3635 0.12054 7.3758v13.814c0 3.0123 0.0181 5.3061-0.12041 7.3758-0.0955 1.4263-0.20467 2.7463-0.53395 4.1215-0.40154 1.677-1.1276 3.4179-2.1378 4.5762-0.25961 0.29772-1.1767 1.344-2.9721 2.1373-0.90638 0.40052-1.8994 0.64491-3.0283 0.83921-1.5359 0.26435-2.9817 0.38894-6.355 0.36798-1.9753 0.01007-4.2507-0.01304-6.9094 0.0054h-8.0834l-2e-3 -0.0022h-11.5c-1.8164 0-5.3441 0.05688-8.1113-0.73641-1.4818-0.42481-2.6787-0.8958-3.9373-2.1544-1.2237-1.2237-2.1738-3.1162-2.6217-6.6825-0.20582-1.6389-0.26913-3.5899-0.26913-6.0476v-21.414c0-2.4577 0.10959-4.4088 0.31541-6.0476 0.44787-3.5663 1.4209-5.4588 2.6446-6.6825 1.1549-1.1549 2.4092-1.753 3.891-2.1778 2.7672-0.79329 6.2719-0.71304 8.0884-0.71305h11.5z" fill="#de004d"/><path d="m613.25 11.059v40.752c-1.3844-2.2921-3.0912-4.2285-5.2051-5.8073-4.6426-3.4675-11.334-5.2106-20.715-5.2106h-17.176c-13.25 0-21.98 2.8202-27.722 8.2173-6.8938 6.4797-9.3145 16.628-9.3145 30.115v20.964c0 12.679 2.2531 22.501 8.6583 29.007 5.6989 5.7893 14.656 8.8521 28.263 8.8521h17.291c13.506 0 21.582-3.5946 25.92-11.041v6.7191c0 2.766 1.5182 4.3103 4.381 4.3103h14.832c2.8627 0 4.4271-1.5443 4.4271-4.3103v-122.57c0-2.766-1.6103-4.3219-4.473-4.3219h-14.694c-2.8627 0-4.473 1.5559-4.473 4.3219zm-13.933 105.64h-28.627c-10.914 0-13.966-2.7788-13.966-14.534v-25.413c0-11.928 3.2312-14.694 13.966-14.694h28.627c9.5307 0 13.924 2.5584 13.924 14.694v25.413c0 12.101-4.2622 14.534-13.924 14.534z" fill="#de004d"/><path d="m487.4 40.794h-13.667c-13.777 0-21.603 3.9761-25.897 11.237v-6.915c0-2.766-1.6102-4.3219-4.4729-4.3219h-14.687c-2.8637 0-4.4746 1.6018-4.4746 4.3678v88.466c0 2.766 1.6109 4.3219 4.4746 4.3219h14.698c2.8627 0 4.4729-1.5559 4.4729-4.3219v-56.876c0-12.191 4.294-14.694 13.955-14.694h25.048c10.657 0 13.955 2.766 13.955 14.694v56.876c0 2.766 1.5413 4.3219 4.4039 4.3219h14.764c2.8637 0 4.4746-1.5559 4.4746-4.3219v-54.455c0-24.721-8.4122-38.378-37.049-38.378z" fill="#de004d"/><path d="m395.32 137.93h14.859c1.2737 0 2.2909-0.30431 3.0281-0.88494 0.92266-0.7267 1.4069-1.9198 1.4069-3.8839v-87.73c0-1.4533-0.31357-2.8016-1.3316-3.6559-0.77713-0.65208-1.7884-0.98795-3.1494-0.98795h-14.698c-2.8679 0-4.4811 1.5559-4.4811 4.3219v88.466c0 2.766 1.4982 4.3547 4.366 4.3547z" fill="#de004d"/><path d="m395.43 30.594h14.698c2.8679 0 4.4811-1.648 4.4811-4.414v-15.029c0-2.766-1.6132-4.4139-4.4811-4.4139h-14.698c-2.8679 0-4.4811 1.5559-4.4811 4.3219v15.213c0 2.766 1.6132 4.3219 4.4811 4.3219z" fill="#de004d"/><path d="m150.34 137.95h49.998c1.3374 0 2.4078-0.41996 3.1692-1.2114 0.92494-0.96136 1.0763-2.242 1.0763-3.5713v-11.39c0-2.2134-0.30163-2.8704-0.87589-3.6009-0.75298-0.95778-1.9747-1.4808-3.5997-1.4808h-49.231c-6.6153 0-10.412-1.0505-12.35-4.7799-1.1757-2.2632-1.659-5.892-1.5681-9.9297v-3.4269h70.975c1.5462 0 2.6653-0.37746 3.4231-1.0541 0.89073-0.79527 1.2825-1.6893 1.2825-3.9586v-11.152c0-7.6723-0.23214-11.239-0.75491-14.753-1.3356-8.9775-4.5682-15.787-10.673-20.332-5.737-4.2715-14.011-6.5307-25.63-6.5307h-25.242c-28.823 0-37.058 13.832-37.058 37.866v20.921c0 16.584 3.6818 28.212 14.818 34.057 5.6096 2.9441 12.749 4.3274 22.239 4.3274zm-13.394-56.912v-4.9388c0.0254-3.4406 0.26064-6.015 1.0459-8.1505 0.59369-1.6147 1.4818-2.8736 2.678-3.7462 2.1697-1.5828 5.1702-2.1127 10.17-2.1127h24.149c10.273 0 13.586 2.432 13.95 12.436 0.0235 0.64584 0.0347 1.3232 0.0347 2.0336v4.4787z" fill="#de004d"/><path d="m651.52 6.7373c-0.94553 0-1.4874 0.53123-1.4874 1.4481v5.3562c0 0.91688 0.54184 1.4477 1.4874 1.4477h9.5055v24.048c0 1.6075 0.85498 1.7703 1.8151 1.7703h5.623c1.0748 0 1.5391-0.57734 1.5391-1.4942v-24.324h10.249l10.7 24.708c0.29982 0.72386 0.89961 1.1102 1.7491 1.1102h8.0639c0.8953 0.02552 1.5162-0.42568 1.8799-1.2042l13.488-31.176c0.44973-1.0134-0.0499-1.6894-1.1494-1.6894h-6.3296c-0.84955 0-1.4455 0.33812-1.7453 1.1102l-10.098 24.057-10.121-24.057c-0.29981-0.77211-0.92259-1.1102-1.7722-1.1102h-6.3464z" fill="#de004d"/></svg>
