<svg width="200mm" height="104.04mm" version="1.1" viewBox="0 0 200 104.04" xmlns="http://www.w3.org/2000/svg">
 <g transform="translate(216.18 -86.471)" fill-rule="evenodd">
  <path d="m-216.18 140.77v-19.989l0.72132-1.0598c0.39672-0.58291 1.1284-1.3616 1.6259-1.7305 0.87115-0.64584 1.3181-0.67405 12.082-0.76256 12.109-0.0996 13.773 0.0635 16.911 1.6575 8.407 4.2702 10.007 15.831 3.0864 22.304-1.1071 1.0357-2.3092 1.977-2.6713 2.092-0.3621 0.11493-0.65836 0.35283-0.65836 0.52867 0 0.33704 8.5211 15.287 9.0116 15.811 0.15694 0.1675 0.28536 0.49209 0.28536 0.72132 0 0.32601-1.217 0.41675-5.5894 0.41675h-5.5894l-8.779-15.388h-10.498v15.388h-9.9381zm25.246-4.0936c3.3628-1.6279 4.3684-6.3554 1.9402-9.1211-1.7616-2.0064-2.0251-2.0606-10.019-2.0606h-7.2291v11.862h6.9516c6.4288 0 7.0573-0.0511 8.3564-0.68z" fill="#09f"/>
  <path d="m-171.22 140.58c0.0856-19.806 0.0992-20.19 0.74814-21.059 0.36354-0.48681 1.0592-1.1826 1.546-1.5461 0.86018-0.64245 1.3066-0.66348 15.929-0.75026l15.044-0.0893v8.6741h-23.403v8.2981l8.9536 0.0987c8.4673 0.0934 9.0027 0.13478 9.858 0.76268 2.697 1.98 2.5393 5.8722-0.30084 7.4241-0.90719 0.49574-2.1462 0.58076-9.7748 0.67078l-8.736 0.10308v17.586h-9.9521z" fill="#09f"/>
  <path d="m-135.07 157.09v-3.9852l5.0967-0.10221c4.5616-0.0915 5.1709-0.16944 5.8034-0.74261 1.7603-1.5953 1.7631-1.618 1.7631-14.427v-11.862l-4.6485-0.1603c-5.0701-0.17483-5.7439-0.37693-6.7482-2.0241-1.2948-2.1236-0.52063-4.888 1.6863-6.021 1.0661-0.54735 1.94-0.61066 8.4281-0.61066 8.1011 0 8.9542 0.18874 10.472 2.317l0.74831 1.0492v15.067c0 13.583-0.0565 15.245-0.57309 16.874-1.4493 4.5689-4.7136 7.3455-9.7246 8.2719-1.0131 0.18728-4.1959 0.34051-7.0728 0.34051h-5.2308z" fill="#09f"/>
  <path d="m-48.536 146c-3.0651-0.50015-5.6932-2.5058-7.2445-5.5286-0.67818-1.3215-0.88781-2.2534-0.99925-4.4421-0.21693-4.2608 1.0599-7.4981 4.0666-10.31 1.816-1.6987 3.3924-2.5487 5.7608-3.1063 7.5175-1.7698 14.117 5.5569 12.099 13.433-1.7111 6.6789-7.5821 10.95-13.683 9.9547z" fill="#09f"/>
  <path d="m-46.474 118.41c-0.55513-0.1604-1.4568-0.80124-2.0037-1.4241-0.85495-0.97373-0.99432-1.3803-0.99432-2.9005 0-2.6994 1.2466-4.7314 3.6625-5.97 1.8301-0.93827 4.3446-0.68865 5.6487 0.56079 2.5886 2.4801 1.727 6.9562-1.7183 8.9257-1.6091 0.91981-3.2248 1.204-4.595 0.80811z" fill="#09f"/>
  <path d="m-25.228 141.05c-2.7387-0.97622-4.7345-4.3669-4.2114-7.155 0.72491-3.8641 4.3213-6.5964 7.8892-5.9936 3.4139 0.57678 5.5892 3.463 5.3571 7.1079-0.169 2.6541-1.3352 4.3982-3.7645 5.6301-1.9168 0.97198-3.3764 1.0857-5.2703 0.41063z" fill="#09f"/>
  <path d="m-50.827 162.56c-1.5156-0.6722-2.7971-2.1797-3.3536-3.9452-1.2801-4.0611 1.5425-8.4342 5.4459-8.4372 3.3281-3e-3 5.6745 2.5818 5.6745 6.2502 0 4.4798-4.1336 7.7436-7.7667 6.1322z" fill="#09f"/>
  <path d="m-70.339 173.4c-2.1198-0.65301-4.2376-2.6602-5.4892-5.2025-0.99798-2.0272-1.0537-2.3271-1.0537-5.6735 0-3.2986 0.06709-3.6747 1.0102-5.6655 2.5679-5.4201 7.6709-7.606 12.371-5.2991 3.4501 1.6935 5.4011 5.0105 5.6304 9.5726 0.42125 8.3815-5.6602 14.365-12.468 12.268z" fill="#ccc"/>
  <path d="m-65.712 190.12c-4.3358-1.958-5.2819-9.1018-1.5143-11.435 3.7918-2.3482 8.704 1.9721 8.0088 7.0438-0.49282 3.5956-3.6016 5.6975-6.4945 4.3911z" fill="#ccc"/>
  <path d="m-85.89 169.46c-2.6289-1.6468-2.706-7.5113-0.12283-9.3506 1.8532-1.3196 4.3728-0.46241 5.3227 1.8109 0.56622 1.3552 0.56745 4.0106 0.0025 5.3366-1.0066 2.3624-3.3583 3.3583-5.2023 2.2032z" fill="#ccc"/>
  <path d="m-93.071 158.15c-1.2054-0.48066-2.2137-1.545-3.1514-3.3266-0.75876-1.4416-0.84259-1.9417-0.83287-4.9691 0.01391-4.3403 0.77127-6.4465 3.1864-8.8617 2.6009-2.6009 5.2243-2.9589 7.6575-1.045 3.0077 2.3659 3.6456 9.0893 1.3048 13.754-1.8135 3.6138-5.3819 5.5582-8.1645 4.4486z" fill="#ccc"/>
  <path d="m-102.12 161.49c-0.81257-0.89787-1.2084-2.2307-1.2007-4.0428 8e-3 -1.814 0.94522-4.2806 1.7434-4.5869 0.96839-0.3716 2.014 0.17977 2.5724 1.3564 0.78076 1.6453 0.57931 5.5079-0.35264 6.7615-0.80319 1.0804-2.0403 1.3096-2.7624 0.51173z" fill="#ccc"/>
  <path d="m-96.736 137.38c-1.3583-1.5009-0.8559-5.3566 0.94711-7.2684 1.9527-2.0705 3.9994-1.1762 3.9994 1.7476 0 2.099-0.64507 3.8756-1.8418 5.0723-1.2032 1.2032-2.2809 1.3589-3.1048 0.44857z" fill="#ccc"/>
  <path d="m-89.599 127.83c-1.0276-0.63755-2.0329-2.375-2.3256-4.0195-0.29228-1.6419 0.33692-4.8475 1.3626-6.9423 1.6773-3.4254 5.3511-6.4433 7.8438-6.4433 4.6038 0 6.0884 6.3608 2.8663 12.281-2.4098 4.4277-6.9892 6.8351-9.7471 5.1241z" fill="#ccc"/>
  <path d="m-94.29 115.49c-0.51424-0.51424-0.48518-1.1297 0.13996-2.9644 0.61018-1.7908 2.8951-4.3449 3.887-4.3449 1.965 0 0.66132 4.3462-2.0061 6.6883-1.2726 1.1173-1.4652 1.1766-2.0208 0.62102z" fill="#ccc"/>
  <path d="m-77.728 108.85c-0.60685-0.49153-0.75076-0.90337-0.72622-2.0783 0.09139-4.3746 5.9421-7.9238 7.3818-4.4781 0.84791 2.0293-0.70301 5.3133-3.0826 6.5273-1.578 0.80502-2.6046 0.81339-3.5729 0.0291z" fill="#ccc"/>
  <path d="m-66.184 117.8c-2.7172-1.4358-4.1645-4.7683-3.5368-8.1436 1.3241-7.1201 8.5836-12.25 14.083-9.9522 6.7299 2.8119 4.7105 14.043-3.1978 17.784-2.4844 1.1753-5.4745 1.3022-7.3486 0.31193z" fill="#ccc"/>
  <path d="m-56.511 94.137c-1.1483-1.1483-1.2361-2.1428-0.34377-3.892 1.7544-3.4389 6.5283-4.9793 8.3306-2.6881 2.0226 2.5713-1.2064 7.0743-5.3172 7.4152-1.5497 0.12851-1.7771 0.05737-2.6696-0.83516z" fill="#ccc"/>
 </g>
</svg>
