<svg width="51.688mm" height="43.338mm" version="1.1" viewBox="0 0 51.688 43.338" xmlns="http://www.w3.org/2000/svg">
 <g transform="translate(-.002 .000943)" fill-rule="evenodd">
  <path d="m13.826 15.815-0.053 0.073c-0.215 0.37-0.089 0.844 0.281 1.057l11.596 6.747c0.412 0.237 0.806 0.457 1.187 0.654 0 0 0.297-0.331 0.682-0.625l-13.694-7.907zm13.011 8.532c-0.173 0.168-0.342 0.347-0.507 0.543z" fill="#ed1b24"/>
  <path class="fil0" d="m14.946 29.694-0.692 0.134v1.272l0.692-0.112c0.356-0.044 0.557-0.402 0.557-0.736 0-0.335-0.223-0.625-0.557-0.558zm16.22 4.529-2.7 0.089v-4.373l-2.142 2.99-2.03-2.455v3.971l-2.008 0.067 0.023-7.898s1.071-0.446 1.829-0.045c0.669 0.357 0.937 0.892 0.937 0.892 0.045 0.067 1.227 2.053 1.227 2.053l1.54-2.923c0.134-0.245 0.491-0.758 1.227-1.249 0.758-0.514 2.142-0.803 2.142-0.803zm-9.214-5.824-3.034 0.58v1.272l2.566-0.38v1.696l-2.588 0.245v2.789l-1.517 0.045v-5.132s0.022-0.737 0.312-1.205c0.469-0.714 1.227-0.915 1.227-0.915l3.034-0.714zm-6.381 6.292-0.915-2.343-0.423 0.045v2.343l-1.16 0.045v-6.047l1.919-0.446c1.182-0.268 1.874 0.647 1.874 1.763 0 0.937-0.491 1.584-0.915 1.896l1.227 2.722zm27.331-8.745c0-0.223-0.134-0.402-0.379-0.469l-9.862-2.589c-0.692-0.178-1.405 0.09-1.83 0.201-2.186 0.625-3.234 1.294-4.194 2.588l-2.388-0.446c-1.026-0.223-2.097 0.133-2.99 0.379-0.915 0.245-1.718 0.469-2.61 0.714-0.603 0.157-1.16 0.581-1.562 1.071l-1.205-0.156c-0.424-0.067-0.714 0-0.982 0.067l-2.231 0.58c-0.2 0.045-0.313 0.268-0.313 0.469v6.85c0 0.223 0.134 0.513 0.402 0.513h29.451c0.423 0 0.714-0.223 0.714-0.535zm-17.057-25.946c10.007 0 18.12 8.11 18.12 18.12 0 2.338-0.443 4.572-1.25 6.627l-0.667-0.179c0.795-1.992 1.234-4.168 1.234-6.449 0-9.484-7.577-17.203-17.01-17.434l-0.427-5e-3 -0.428 5e-3c-8.938 0.231-16.115 7.546-16.115 16.539 0 3.712 1.221 7.135 3.282 9.889l2.074-0.537c0.449-0.11 0.816-0.156 1.277-0.081l0.801 0.104c0.462-0.462 1.039-0.837 1.665-1.005 0.872-0.231 1.742-0.479 2.613-0.716 1.115-0.3 2.184-0.641 3.348-0.393l1.926 0.364c0.165-0.196 0.333-0.375 0.506-0.543-0.38-0.196-0.774-0.416-1.186-0.653l-11.578-6.736c-0.369-0.213-0.495-0.687-0.281-1.056 0.214-0.37 0.691-0.497 1.06-0.283l11.578 6.736c0.654 0.376 1.252 0.693 1.822 0.959 0.416-0.225 0.859-0.416 1.336-0.583-0.749-0.236-1.49-0.566-2.224-0.993l-2.499-1.328c-0.853-0.456-0.76-0.918-0.413-1.021l3.093-0.959-0.393-1.275-4.614 1.426c-0.361 0.116-0.518 0.259-0.808 0.093l-0.92-0.531c-0.504-0.288-0.978-0.728 0.068-1.057l5.708-1.76-0.393-1.276-7.737 2.396c-0.323 0.098-0.384 0.081-0.67-0.104-0.484-0.3-2.96-1.582-3-2.055-0.301-3.585 1.738-6.033 4.076-6.61 0.564-0.139 0.813-0.052 0.88 0.497 0.522 4.232 3.349 4.145 7.705 3.637 1.1-0.127 0.911 0.456 1.03 0.86 0.53 1.807 1.261 3.585 2.634 5.253 0.702 0.969 2.337 1.409 4.484 2.343 1.75 0.762 1.133 2.015 0.495 2.24-0.309 0.11-0.617 0.202-0.924 0.288l5.702 1.495c1.001-2.136 1.562-4.515 1.562-7.025 0-8.994-7.177-16.308-16.115-16.539l-0.427-5e-3 -0.428 5e-3c-9.432 0.231-17.009 7.949-17.009 17.434 0 3.718 1.163 7.164 3.147 9.993l-0.025 0.26v0.854c-2.384-3.066-3.805-6.922-3.805-11.107 0-10.01 8.112-18.12 18.12-18.12zm22.583 39.936v-0.289h1.124v0.289zm-1.644-1.807v5.207h1.552v-1.951l1.192 1.951h2.162l-1.231-1.905 0.061-0.023c0.646-0.219 1.062-0.843 1.094-1.513l1e-3 -0.011 2e-3 -0.075c0-0.877-0.656-1.697-1.57-1.68zm-8.94 1.501c0.609 0 1.103 0.491 1.103 1.103 0 0.606-0.494 1.102-1.103 1.102s-1.103-0.496-1.103-1.102c0-0.612 0.494-1.103 1.103-1.103zm0-1.49c-1.432 0-2.592 1.16-2.592 2.592 0 1.431 1.16 2.592 2.592 2.592s2.592-1.16 2.592-2.592-1.16-2.592-2.592-2.592zm5.776 1.49c0.61 0 1.103 0.491 1.103 1.103 0 0.606-0.494 1.102-1.103 1.102s-1.103-0.496-1.103-1.102c0-0.612 0.494-1.103 1.103-1.103zm0-1.49c-1.432 0-2.592 1.16-2.592 2.592 0 1.431 1.16 2.592 2.592 2.592s2.592-1.16 2.592-2.592-1.16-2.592-2.592-2.592zm-12.611-0.011v5.207h3.683v-1.553h-2.131v-3.654zm-4.243 0v5.207h1.552v-1.83h1.486v-1.553h-1.486v-0.277h2.131v-1.547zm-6.359 2.309h1.512c-0.147-1.304-1.255-2.297-2.576-2.297-1.431 0-2.592 1.16-2.592 2.592 0 1.431 1.161 2.592 2.592 2.592 1.321 0 2.429-0.993 2.576-2.303h-1.511c-0.131 0.479-0.566 0.814-1.064 0.814-0.609 0-1.103-0.496-1.103-1.102 0-0.612 0.494-1.103 1.103-1.103 0.499 0 0.933 0.335 1.064 0.808zm-8.78-2.309v5.207h1.553v-2.534l1.438 2.534h1.573v-5.207h-1.552v2.534l-1.438-2.534zm10.883 0v5.207h3.683v-1.553h-2.131v-0.277h1.486v-1.553h-1.486v-0.277h2.131v-1.547zm-20.958 1.582h1.184v2.038h-1.184zm-1.55-1.582v5.207h2.786c1.085 0 1.972-0.889 1.972-1.974v-1.264c0-1.085-0.887-1.969-1.972-1.969zm8.556 3.458h-0.715l0.357-0.64zm-0.359-3.406-2.867 5.156h1.538l0.24-0.433h2.177l0.24 0.433h1.538z" clip-rule="evenodd" shape-rendering="geometricPrecision" text-rendering="geometricPrecision"/>
  <path d="m26.29 14.149-7.75 2.399c-0.199 0.06-0.3 0.07-0.414 0.032l2.352 1.353c-0.227-0.244-0.226-0.519 0.488-0.743l5.717-1.763zm0.961 3.111-4.621 1.428c-0.242 0.077-0.392 0.165-0.551 0.167l2.72 1.565c-0.665-0.422-0.572-0.826-0.251-0.922l3.098-0.961z" clip-rule="evenodd" fill="#ed1b24" shape-rendering="geometricPrecision" text-rendering="geometricPrecision"/>
 </g>
</svg>
