<svg width="69.648mm" height="61.938mm" version="1.1" viewBox="0 0 69.648 61.938" xmlns="http://www.w3.org/2000/svg">
 <g transform="translate(.00082232 -.002)" fill-rule="evenodd">
  <path d="m34.857 1.853-6.615 10.841 1.511 4.656c0.421-0.487 0.964-0.877 1.615-1.088h2e-3c0.359-0.116 0.727-0.173 1.087-0.176 1.15-0.011 2.233 0.531 2.932 1.43 0.44-0.621 1.064-1.118 1.837-1.368h2e-3c0.358-0.116 0.725-0.174 1.087-0.177 0.266-2e-3 0.519 0.063 0.774 0.116l-1.229-3.786c-0.618-1.898 0.429-3.962 2.312-4.606zm10.702 10.461 5.419 16.704 1e-3 3e-3c0.164 0.501 0.232 1.012 0.23 1.523l2.313-0.514 3.649-12.324-7.119-1.795zm-24.14 3.097-8.757 2.624 8.255 15.973c-2.602 0.808 1.107 3.859 1.107 3.859 0.824-0.749 1.745-1.205 2.737-1.447l0.05-0.011c-1.279-1.005-2.383-2.046-3.146-3.125-0.457-0.647-0.809-1.316-0.924-2.086s0.109-1.674 0.676-2.303l3.215-3.57z" fill="#ed1b24"/>
  <path class="fil0" d="m19.249 42.44-0.989 0.191v1.818l0.989-0.16c0.51-0.063 0.797-0.574 0.797-1.052 0-0.479-0.319-0.893-0.797-0.797zm23.183 6.473-3.858 0.127v-6.25l-3.061 4.274-2.902-3.509v5.676l-2.871 0.096 0.032-11.288s1.531-0.638 2.615-0.064c0.957 0.51 1.339 1.275 1.339 1.275 0.064 0.096 1.754 2.934 1.754 2.934l2.201-4.178c0.191-0.351 0.701-1.084 1.753-1.785 1.085-0.734 3.062-1.148 3.062-1.148zm-13.169-8.323-4.337 0.829v1.818l3.667-0.543v2.424l-3.699 0.351v3.986l-2.169 0.064v-7.335s0.032-1.053 0.447-1.722c0.67-1.021 1.754-1.307 1.754-1.307l4.337-1.021zm-9.121 8.993-1.307-3.348-0.606 0.064v3.348l-1.658 0.064v-8.642l2.742-0.638c1.69-0.383 2.678 0.925 2.678 2.519 0 1.339-0.701 2.265-1.308 2.71l1.755 3.89zm39.063-12.499c0-0.319-0.191-0.575-0.542-0.67l-14.095-3.7c-0.989-0.255-2.009 0.128-2.615 0.287-3.124 0.893-4.624 1.85-5.994 3.699l-3.412-0.637c-1.466-0.319-2.998 0.19-4.273 0.542-1.307 0.351-2.455 0.67-3.731 1.02-0.861 0.224-1.658 0.83-2.233 1.531l-1.722-0.223c-0.606-0.096-1.021 0-1.403 0.095l-3.189 0.829c-0.287 0.064-0.446 0.383-0.446 0.67v9.79c0 0.319 0.191 0.733 0.574 0.733h42.092c0.606 0 1.021-0.319 1.021-0.765zm-18.737-28.082 0.058-0.016 0.118-0.032 0.059-6e-3 0.058-0.016 0.06-0.01 0.058-0.01 0.06-0.01 0.058-6e-3h0.118l0.059-0.01h0.058l0.059 0.01h0.116l0.057 6e-3 0.057 0.01 0.058 0.01 0.056 0.01 0.056 0.016 0.056 6e-3 0.056 0.016 0.11 0.033 0.054 0.016 0.109 0.041 0.259 0.115c0.169 0.09 0.326 0.206 0.469 0.338l0.043 0.033 0.041 0.041 0.08 0.082 0.039 0.05 0.074 0.082 0.035 0.049 0.068 0.1 0.033 0.049 0.031 0.05 0.03 0.05 0.029 0.05 0.028 0.057 0.026 0.05 0.025 0.058 0.024 0.049 0.023 0.058 0.021 0.058 0.019 0.057 6.143 18.935c0.314 0.957 0.13 2.228-0.333 3.359l-4.468-1.171c-1.172-0.306-2.07 0-3.176 0.288l-0.022 0.01c-2.567 0.734-4.49 1.576-6.155 3.556l-2.755-0.511c-1.663-0.355-3.191 0.124-4.785 0.561-0.565 0.149-1.129 0.305-1.692 0.462-3.087-2.277-5.275-4.777-3.974-6.221l4.555-5.058c0.883-0.973 2.407-1.056 3.386-0.174l0.179 0.182c0.834 0.891 0.86 2.302 0.029 3.225l-1.905 2.112-0.42 0.463 3.611 2.665c0.319 0.248 0.658-0.281 0.423-0.47l-3.087-2.211 1.893-2.095c0.303-0.339 0.519-0.726 0.646-1.139 0.559 1.551 2.266 2.4 3.846 1.89l0.067-0.025 0.013-0.01 0.062-0.016 0.015-0.01 0.06-0.025 0.014-0.01 0.061-0.025h5e-3l0.06-0.025 0.014-0.01 0.058-0.033h0.012l0.061-0.033 6e-3 -0.01 0.055-0.025 0.011-0.01 0.056-0.033 0.01-0.01 0.056-0.033 0.01-0.01 0.056-0.033 9e-3 -0.01 0.046-0.033 0.013-0.01 0.047-0.033 0.017-0.016 0.047-0.034 0.013-0.01 0.048-0.041 8e-3 -0.01 0.043-0.034 0.012-0.016 0.046-0.034 0.013-0.016 0.043-0.041 0.013-6e-3 0.036-0.041 0.018-0.016 0.033-0.033 0.015-0.016 0.037-0.041 0.016-0.016 0.036-0.041 0.015-0.016 0.026-0.033 0.022-0.025 0.026-0.034 0.015-0.016 0.032-0.041 0.016-0.025 0.027-0.041 0.018-0.025 0.021-0.025 0.02-0.033 0.024-0.033 0.013-0.025 0.027-0.041 0.014-0.025 0.02-0.033 0.019-0.041 0.015-0.025 0.019-0.033 0.017-0.033 0.016-0.033h1e-3l0.018-0.033 1e-3 -0.01 0.013-0.025 0.016-0.033 0.017-0.034 0.013-0.033 0.017-0.041 0.013-0.033 0.011-0.025 0.017-0.05c0.597 1.485 2.261 2.286 3.805 1.782l0.058-0.025 0.051-6e-3c1.612-0.529 2.501-2.27 1.978-3.887l-2.09-6.435c-0.042-0.132-0.091-0.256-0.147-0.372l-2.067-6.37c-0.405-1.246 0.284-2.598 1.533-3.011zm-8.831 8.548c1.248-0.404 2.602 0.289 3.006 1.535l2.089 6.436c0.405 1.254-0.284 2.607-1.533 3.011-1.248 0.405-2.6-0.289-3.005-1.535l-2.09-6.443c-0.405-1.246 0.285-2.599 1.533-3.004zm5.848-0.115c1.248-0.404 2.601 0.289 3.006 1.535l2.089 6.436c0.405 1.254-0.285 2.608-1.533 3.011-1.248 0.405-2.602-0.289-3.007-1.535l-2.088-6.443c-0.405-1.246 0.285-2.599 1.533-3.004zm-11.752 7.566-3.372-10.396c-0.405-1.246 0.285-2.599 1.533-3.011 1.248-0.405 2.602 0.289 3.006 1.535l3.476 10.709c-1.25-0.858-2.989-0.677-4.029 0.479zm9.092-24.999c14.303 0 25.897 11.592 25.897 25.891 0 3.349-0.634 6.543-1.786 9.471l-0.953-0.247c1.136-2.855 1.762-5.966 1.762-9.224 0-13.556-10.829-24.588-24.31-24.91l-0.61-6e-3 -0.61 6e-3c-12.776 0.322-23.033 10.784-23.033 23.639 0 5.297 1.745 10.189 4.691 14.134l2.964-0.776c0.641-0.157 1.166-0.214 1.826-0.115l1.145 0.149 0.228-0.215h-0.023l0.732-3.144c-1.224-1.263-2.444-2.97-1.984-4.595 0.113-0.405 0.317-0.759 0.594-1.065l0.949-1.056-9.103-9.438 8.72-1.32-0.714-2.203c-0.613-1.881 0.427-3.919 2.313-4.53 1.886-0.619 3.924 0.421 4.535 2.31l0.467 1.435 6.303-11.137 3.461 6.114c0.432-0.594 1.051-1.073 1.806-1.312l0.088-0.033 0.176-0.05 0.18-0.032 0.086-0.016 0.09-0.016 0.088-0.01 0.09-0.01 0.09-6e-3h0.089l0.088-0.01h0.09l0.086 0.01h0.09l0.087 6e-3 0.088 0.01 0.086 0.01 0.087 0.016 0.086 0.016 0.085 0.016 0.086 0.016 0.082 0.025 0.165 0.041 0.083 0.033 0.161 0.057c0.134 0.05 0.264 0.116 0.39 0.182 0.254 0.14 0.491 0.305 0.705 0.495l0.063 0.058 0.064 0.066 0.061 0.058 0.061 0.066 0.114 0.132 0.055 0.075 0.053 0.066 0.053 0.074 0.05 0.074 0.049 0.074 0.046 0.074 0.046 0.075 0.044 0.082 0.042 0.083 0.039 0.074 0.039 0.083 0.035 0.083 0.034 0.091 0.031 0.083 0.03 0.091 2.233 6.881 9.588 1.452-6.823 7.071 1.144 3.523c0.39 1.204 0.218 2.698-0.303 4.051l5.768 1.509c1.431-3.044 2.233-6.444 2.233-10.033 0-12.854-10.257-23.317-23.033-23.639l-0.61-6e-3 -0.61 6e-3c-13.481 0.322-24.31 11.353-24.31 24.91 0 5.313 1.664 10.239 4.497 14.282-0.024 0.123-0.035 0.247-0.035 0.371v1.23c-3.408-4.389-5.439-9.893-5.439-15.882 0-14.299 11.594-25.891 25.897-25.891zm15.244 56.607c0.879 0 1.592 0.71 1.592 1.593 0 0.875-0.713 1.592-1.592 1.592s-1.592-0.717-1.592-1.592c0-0.883 0.713-1.593 1.592-1.593zm0-2.153c-2.068 0-3.744 1.675-3.744 3.746 0 2.062 1.675 3.738 3.744 3.738 2.068 0 3.744-1.675 3.744-3.738 0-2.071-1.675-3.746-3.744-3.746zm-46.326 2.153c0.88 0 1.593 0.71 1.593 1.593 0 0.875-0.713 1.592-1.593 1.592-0.879 0-1.591-0.717-1.591-1.592 0-0.883 0.712-1.593 1.591-1.593zm0-2.153c-2.067 0-3.744 1.675-3.744 3.746 0 2.062 1.676 3.738 3.744 3.738s3.745-1.675 3.745-3.738c0-2.071-1.676-3.746-3.745-3.746zm4.562 0.033v7.443h2.217v-3.622l2.056 3.622h2.248v-7.443h-2.218v3.622l-2.055-3.622zm22.454 0v7.443h5.264v-2.212h-3.045v-0.396h2.123v-2.219h-2.123v-0.396h3.045v-2.22zm-13.497 0v2.22h1.523v5.223h2.218v-5.223h1.523v-2.22zm10.457 0v2.616h-2.127v-2.616h-2.217v7.443h2.217v-2.608h2.127v2.608h2.218v-7.443zm13.091 2.583v-0.413h1.606v0.413zm-2.35-2.583v7.443h2.219v-2.78l1.702 2.78h3.091l-1.759-2.723 0.085-0.025c0.925-0.313 1.518-1.204 1.565-2.17v-0.016l3e-3 -0.108c0-1.246-0.938-2.417-2.244-2.401zm24.358 0v7.443h2.217v-3.128l1.704 3.128h2.908l-2.404-3.721 2.404-3.722h-2.908l-1.704 3.128v-3.128zm-2.97 3.293h2.16c-0.208-1.865-1.793-3.284-3.681-3.284-2.046 0-3.705 1.659-3.705 3.705s1.659 3.705 3.705 3.705c1.888 0 3.472-1.428 3.681-3.292h-2.16c-0.187 0.684-0.809 1.163-1.521 1.163-0.87 0-1.576-0.71-1.576-1.576 0-0.875 0.706-1.576 1.576-1.576 0.713 0 1.334 0.47 1.521 1.155z" clip-rule="evenodd" shape-rendering="geometricPrecision" text-rendering="geometricPrecision"/>
 </g>
</svg>
