<svg xmlns="http://www.w3.org/2000/svg" height="556.93" width="600" viewBox="0 0 158.75 147.354">
    <g fill="#1c3668">
        <path d="M7.345 132.62c-1.05 0-1.896.28-2.545.84a5.398 5.398 0 0 0-1.58 2.31h-.054c.08-.5.15-1.01.188-1.52.048-.51.064-.94.064-1.31H0V147h3.622v-5.74c0-3.44 1.002-5.16 3.021-5.16.274 0 .563.03.88.1l.165-3.56c-.112-.01-.23-.02-.343-.02M14.497 126.43H10.88v20.64h3.617v-6.78c.021-1.27.343-2.33.948-3.21.616-.86 1.393-1.32 2.33-1.35.654.01 1.11.22 1.361.62.257.41.375.98.364 1.73v8.99h3.59v-9.87c.027-1.26-.273-2.32-.906-3.17-.626-.85-1.719-1.29-3.278-1.32-1.093.01-2.03.25-2.813.72s-1.382 1.1-1.795 1.91l-.058-.04c.101-.41.166-.89.203-1.41s.054-1 .054-1.44v-6.02M45.462 133.02H41.84v14.05h3.622zm-1.81-6.19c-.639.01-1.169.22-1.582.64-.423.41-.637.92-.653 1.53.016.63.23 1.15.653 1.56.413.41.943.63 1.581.65.637-.02 1.168-.24 1.596-.65.43-.41.65-.93.665-1.56-.016-.62-.236-1.13-.665-1.54-.428-.41-.959-.62-1.596-.63M57.35 132.71c-1.146.01-2.12.27-2.93.78a5.18 5.18 0 0 0-1.849 2.05l-.026-.03c.07-.39.117-.82.155-1.28.027-.47.043-.87.043-1.21h-3.418v14.05h3.616v-6.79c.021-1.26.338-2.32.948-3.2.616-.86 1.393-1.31 2.331-1.35.654 0 1.11.22 1.361.62.252.41.375.99.36 1.73v8.99h3.594v-9.87c.026-1.26-.279-2.32-.906-3.17s-1.72-1.29-3.279-1.32M29.781 138.17c.107-.87.397-1.54.884-2.05.477-.49 1.104-.75 1.86-.76.771.01 1.376.26 1.805.75.434.48.643 1.17.621 2.06h-5.17m2.856-5.46c-1.409.01-2.599.34-3.579.98-.98.64-1.73 1.52-2.24 2.64-.509 1.11-.766 2.4-.77 3.84.01 2.46.615 4.28 1.8 5.45 1.178 1.15 2.871 1.73 5.073 1.73h.085c.88 0 1.752-.08 2.61-.23.857-.15 1.66-.38 2.421-.68l-.343-2.79c-.61.29-1.275.5-1.982.64-.707.16-1.414.24-2.116.24h-.043c-2.577 0-3.852-1.31-3.83-3.91h8.711c.08-.6.112-1.15.107-1.64.005-1.17-.198-2.22-.616-3.17a5.061 5.061 0 0 0-1.934-2.25c-.874-.55-1.993-.84-3.354-.85"/>
    </g>
    <g fill="#007bc1">
        <path d="M81.837 132.7h-.016c-1.189.03-2.164.33-2.936.9-.766.56-1.312 1.2-1.639 1.93-.16-.71-.536-1.36-1.136-1.92-.595-.57-1.51-.87-2.738-.91-1.06.01-1.987.26-2.79.77a5.025 5.025 0 0 0-1.849 2.06h-.059c.075-.42.123-.87.155-1.32.027-.46.048-.86.043-1.19h-3.418v14.04h3.622v-6.72c.026-1.35.353-2.44.985-3.29.627-.86 1.372-1.29 2.235-1.32.675.01 1.125.24 1.355.69.22.46.332 1.03.311 1.74v8.9h3.563v-6.72c.032-1.4.375-2.51 1.018-3.34.642-.83 1.376-1.25 2.207-1.27.648 0 1.093.22 1.33.65.24.43.347 1.03.336 1.78v8.9h3.617v-9.67c-.006-1.59-.37-2.77-1.088-3.54s-1.752-1.15-3.108-1.15M108.387 133.02h-3.616v14.05h3.616zm-1.81-6.19c-.638.01-1.169.22-1.587.64-.417.41-.632.92-.648 1.53.016.63.231 1.15.648 1.56.418.41.95.63 1.586.65.633-.02 1.168-.24 1.597-.65.423-.41.648-.93.664-1.56a2.137 2.137 0 0 0-.664-1.54c-.429-.41-.964-.62-1.597-.63M120.271 132.71c-1.14.01-2.12.27-2.93.78-.8.52-1.42 1.2-1.85 2.05l-.02-.03c.07-.39.12-.82.15-1.28.03-.47.05-.87.05-1.21h-3.43v14.05h3.62v-6.79c.03-1.26.34-2.32.95-3.2.62-.86 1.4-1.31 2.33-1.35.66 0 1.11.22 1.36.62.26.41.38.99.37 1.73v8.99h3.59v-9.87c.02-1.26-.28-2.32-.91-3.17-.62-.85-1.72-1.29-3.28-1.32M94.2 144.58c-.53-.01-.937-.14-1.227-.41-.294-.27-.434-.63-.439-1.09l.36-1.08c.256-.34.722-.61 1.397-.82s1.65-.33 2.904-.33v.34a3.666 3.666 0 0 1-.83 2.33c-.536.67-1.259 1.03-2.165 1.06m.82-11.87c-.91 0-1.8.08-2.668.24-.857.16-1.65.38-2.363.63l.306 3.03a8.143 8.143 0 0 1 2.051-.81 8.14 8.14 0 0 1 2.111-.29c1.002 0 1.715.18 2.133.56s.616.93.605 1.67v.76c-1.602 0-3.01.2-4.227.59-1.21.39-2.159.96-2.845 1.73-.68.76-1.029 1.71-1.039 2.83.005 1.14.36 2.04 1.05 2.7.696.65 1.682.99 2.963 1 1.06-.01 1.987-.26 2.78-.75a4.212 4.212 0 0 0 1.715-1.94l.026.04c-.1.75-.15 1.53-.139 2.37h3.424c-.033-.59-.054-1.2-.065-1.82a70.04 70.04 0 0 1-.02-1.8v-5.85c.01-1.03-.156-1.9-.499-2.62-.349-.74-.943-1.29-1.784-1.68-.847-.39-2.015-.59-3.515-.59"/>
    </g>
    <path d="M136.741 129.45l-5.37.69-.72 2.87h-2.72l-.52 2.1h2.72l-1.99 7.98c-.33 1.37-.28 2.38.16 3.02s1.18.96 2.23.96h7.68l1.12-2.54c-.19.09-.55.17-1.09.23s-1.18.09-1.93.09h-2.12c-.03.01-.07.01-.09.01-.41 0-.69-.1-.83-.29-.15-.19-.16-.58-.01-1.15l2.07-8.31h4.9c-.1-.36-.19-.67-.28-.96-.21-.64-.37-1.02-.5-1.14h-3.6l.89-3.56" fill="#1c3668"/>
    <path d="M158.751 133.01h-3.2l-.06.48c-.09.36-.81 1.46-2.18 3.31-1.35 1.85-3.16 4.33-5.38 7.46-.49-2.2-.9-3.97-1.21-5.31-.32-1.35-.56-2.39-.72-3.11-.16-.74-.26-1.27-.3-1.61l.02-.8.13-.42h-6.39c.12.12.29.5.49 1.15.09.28.18.6.28.94.12.44.24.94.38 1.47.24.97.47 1.97.72 3.04.24 1.05.46 2.04.68 2.97l1.03 4.49h5.2l8.16-11.25c.63-.88 1.11-1.51 1.45-1.91l.9-.9" fill="#1c3668"/>
    <path d="M72.47 0c-1.694 0-3.43.05-5.193.15a81.778 81.778 0 0 0-19.614 3.59c-10.769 3.39-20 8.76-26.88 14.9-.55.5-2.539 1.18-1.548 1.8 3.681-1.23 7.372-1.73 11.005-1.73 8.25 0 16.18 2.59 22.91 5.08 29.953 11.06 51.491 31.45 71.671 51.37 6.68-10.61 13.86-20.74 20.55-31.33-7.26-11.91-17.18-23.07-29.79-31.09-5.67-3.6-11.915-6.73-18.896-9C89.447 1.4 81.427 0 72.47 0" fill="#007bc1"/>
    <path d="M27.862 22.33c-4.784 0-9.13 1.1-11.964 4.28-3.101 3.49-3.562 10.07-2.566 15.93 2.004-1.25 3.167-3.35 4.881-4.88 6.59-5.88 14.98-9.55 23.89-13.1-4.506-1.19-9.585-2.23-14.24-2.23" fill="#007bc1"/>
    <path d="M137.411 74.91c-6.8 8.78-17.31 13.85-28.516 18.24 4.536.98 8.926 2.31 13.846 2.31.09 0 .19 0 .28-.01 11.13-.11 17.62-7.32 14.64-20.29l-.25-.25" fill="#1c3668"/>
    <path d="M26.178 42.28c-5.915 8.91-11.594 18.08-17.724 27.24-1.001 1.48-2.603 3-2.57 4.1.02.69 1.36 2.16 2.314 3.6 11.85 17.93 28.294 32.07 51.375 37.76 6.456 1.6 12.9 2.31 19.185 2.31 22.229 0 42.394-9.01 53.514-20.29v-.26c-3.16 1.38-6.68 1.91-10.28 1.91-6.69 0-13.654-1.83-19.006-3.44-23.445-7.09-41.383-20.96-57.541-34.95-7.008-6.06-13.405-12.21-19.266-17.98" fill="#1c3668"/>
</svg>
