<svg width="200mm" height="73.821mm" version="1.1" viewBox="0 0 200 73.821" xmlns="http://www.w3.org/2000/svg">
 <g transform="translate(269.14 -75.028)" fill-rule="evenodd">
  <path d="m-269.06 117.29c0.0921-20.897-4e-3 -19.91 2.087-21.401 0.9687-0.69092 1.0036-0.69323 11.784-0.77804 8.8362-0.06952 11.13-0.0037 12.55 0.36025 4.206 1.0775 7.0452 3.3091 8.846 6.9527 1.1079 2.2417 1.1185 2.2976 1.1116 5.8495-6e-3 3.0955-0.1 3.7884-0.68645 5.0638-1.0189 2.2159-2.6464 4.181-4.594 5.5472-1.1266 0.79031-1.6868 1.3722-1.5825 1.6441 0.0888 0.23142 1.9528 3.5309 4.1423 7.3322 2.1895 3.8013 4.1388 7.2127 4.3318 7.5809l0.35099 0.66951h-10.674l-8.2425-14.576-9.9684-4e-3v14.581h-9.5391zm23.504-3.6283c1.4083-0.58841 3.1325-2.5713 3.3792-3.886 0.51916-2.7674-0.56332-5.2138-2.8495-6.4399-0.91626-0.49139-1.7738-0.55206-7.8036-0.55206h-6.7742v11.307h6.5101c5.0002 0 6.7485-0.0996 7.5381-0.42952z" fill="#fb7d19"/>
  <path d="m-227.76 132.69v-3.7196h4.1599c5.1379 0 6.2306-0.33756 7.134-2.2038 0.58014-1.1984 0.60864-1.7824 0.60864-12.471v-11.214h-4.1807c-4.6831 0-5.5528-0.24909-6.5437-1.8742-1.2109-1.9859-0.45262-4.6966 1.5841-5.6631 0.88468-0.41981 2.1183-0.49692 7.95-0.49692 7.732 0 8.3065 0.11929 9.762 2.0269l0.8015 1.0504 0.0865 12.963c0.0553 8.2834-0.0301 13.716-0.23649 15.051-0.83148 5.3742-3.9694 8.7368-9.1843 9.8422-1.2382 0.26244-3.8298 0.42016-6.9574 0.4234l-4.9842 6e-3z" fill="#fb7d19"/>
  <path d="m-197.05 135.62c-0.5371-0.26473-1.2736-0.89772-1.6366-1.4066l-0.66005-0.92534-0.0812-17.428-0.0812-17.428 0.67638-0.99389c0.37199-0.54664 1.0548-1.274 1.5174-1.6164 0.81237-0.60128 1.1672-0.62249 10.415-0.62249 8.4472 0 9.7838 0.06437 11.359 0.54702 2.6175 0.80197 4.504 1.9233 5.9596 3.5422 1.6293 1.8122 2.3405 3.8587 2.354 6.7736 0.0119 2.5605-0.7816 4.5672-2.6852 6.7912-0.59781 0.69841-1.0375 1.3087-0.97716 1.3562 0.0604 0.0475 0.72502 0.50189 1.477 1.0098 3.6442 2.4613 5.3096 6.1021 4.7151 10.308-0.69663 4.9284-4.5474 8.8837-9.8707 10.139-2.8541 0.67292-21.098 0.63538-22.481-0.0463zm20.466-7.7042c3.2308-1.8979 3.2308-6.4017 0-8.2996-0.96033-0.56415-1.5217-0.61122-7.2893-0.61122h-6.2489l-0.1638 9.7133 6.3307-0.0956c5.75-0.0869 6.4262-0.15172 7.3712-0.70686zm-2.4637-16.698c1.4826-0.70352 2.1647-1.9689 2.1661-4.0181 7.9e-4 -1.388-0.13746-1.8528-0.77824-2.6144-1.3985-1.662-1.9667-1.7975-7.5377-1.7975h-5.0734v8.9269h5.088c4.1364 0 5.2839-0.0929 6.1352-0.49692z" fill="#fb7d19"/>
  <path d="m-102.34 133.02c-4.9957-1.2165-7.9828-4.7211-8.0177-9.4067-0.0272-3.662 1.7473-6.8703 4.9419-8.9351 5.9741-3.8612 13.945-2.0597 16.812 3.7997 1.7811 3.6405 0.66983 8.5568-2.5983 11.495-1.7211 1.5474-3.8954 2.6501-6.1683 3.1282-1.9331 0.4066-3.0405 0.38849-4.9696-0.0812z" fill="#fb7d19"/>
  <path d="m-118.86 140.84c-1.8564-0.74025-2.9758-2.5162-2.9758-4.7214 0-3.6767 3.1926-6.5354 6.9008-6.1791 4.5649 0.43862 6.0104 6.1054 2.4253 9.508-1.6297 1.5468-4.4258 2.1599-6.3504 1.3925z" fill="#fb7d19"/>
  <path d="m-86.709 144.71c-1.9911-0.79465-3.5242-2.6844-4.0123-4.9458-0.32851-1.5221 0.51453-3.914 1.8331-5.201 2.6796-2.6153 6.6083-2.6504 9.1807-0.0819 3.0109 3.0064 2.179 7.8499-1.6784 9.7721-1.6755 0.83492-3.8975 1.0255-5.3231 0.45654z" fill="#fb7d19"/>
  <path d="m-84.958 114.71c-3.7991-0.73969-5.44-4.4564-3.2158-7.284 2.912-3.7021 10.085-1.8159 10.085 2.652 0 2.9678-3.4539 5.297-6.8688 4.6321z" fill="#fb7d19"/>
  <path d="m-143.41 109.25c-2.0648-0.83963-3.4114-2.6495-3.4114-4.585 0-3.1374 2.9685-7.0623 6.7579-8.9352 1.9713-0.97425 2.4973-1.1046 4.5065-1.1166 3.8897-0.02333 5.7055 1.4016 5.9413 4.6625 0.10832 1.4975-5e-3 2.0046-0.81238 3.6452-1.817 3.6909-5.9292 6.415-9.9626 6.5995-1.2245 0.056-2.4967-0.058-3.0194-0.27051z" fill="#ccc"/>
  <path d="m-136.26 136.43c-2.265-0.55141-4.4964-2.2778-5.6018-4.334-0.51007-0.94879-0.6406-1.7034-0.64344-3.7196-3e-3 -2.2369 0.10745-2.7637 0.95693-4.5572 2.3646-4.9924 8.0575-8.1008 12.948-7.0695 7.1362 1.5049 8.8221 9.9709 3.1748 15.942-2.8582 3.0221-7.3745 4.5804-10.834 3.7381z" fill="#ccc"/>
  <path d="m-148.01 148.39c-1.558-0.78275-2.3864-2.2216-2.3864-4.1446 0-2.8323 1.4299-5.2366 3.768-6.3356 5.3466-2.5132 8.9792 3.9033 4.9046 8.6636-1.8297 2.1376-4.2532 2.838-6.2861 1.8166z" fill="#ccc"/>
  <path d="m-147.98 120.82c-4.0078-2.2214 0.79083-9.4687 5.4227-8.1898 1.2441 0.34351 2.2828 1.6918 2.2736 2.9514-0.0132 1.8154-2.1067 4.6413-3.9545 5.3379-1.1327 0.42705-2.8755 0.38074-3.7418-0.0994z" fill="#ccc"/>
  <path d="m-154.04 103.95c-0.64336-0.37472-0.69582-2.052-0.0998-3.1898 0.95312-1.8193 3.5528-3.6304 5.2111-3.6304 2.999 0 1.4144 4.7918-2.1561 6.5203-1.4116 0.68335-2.1656 0.75986-2.9553 0.29989z" fill="#ccc"/>
  <path d="m-133.66 92.063c-2.8756-1.1555 0.14642-5.4946 4.0907-5.8736 1.991-0.19131 2.9788 0.42996 2.9788 1.8735 0 1.3611-1.7376 3.1401-3.7301 3.819-1.5909 0.54208-2.3399 0.58268-3.3394 0.18104z" fill="#ccc"/>
  <path d="m-118.09 78.216c-0.71113-0.71113-0.0919-1.5487 1.7778-2.4047 2.6044-1.1923 6.0858-0.98428 6.0858 0.36367 0 0.51563-1.6618 1.7395-2.9457 2.1693-1.5173 0.50802-4.3556 0.43395-4.918-0.12835z" fill="#ccc"/>
  <path d="m-119.75 92.39c-2.5946-0.78924-3.8635-2.2662-3.8653-4.4991-2e-3 -2.7408 2.7419-5.5126 6.7919-6.8604 2.6396-0.87841 6.8229-0.72586 8.4989 0.30992 3.0218 1.8676 3.0362 5.2541 0.0339 8.0215-1.4998 1.3825-3.2803 2.3468-5.3574 2.9017-1.6004 0.4275-4.8884 0.49564-6.102 0.12647z" fill="#ccc"/>
  <path d="m-101.17 86.748c-1.545-0.70172-2.1614-1.9595-1.5664-3.1966 1.6423-3.4152 8.8794-3.0783 8.8794 0.41338 0 2.5958-4.2034 4.1956-7.313 2.7833z" fill="#ccc"/>
  <path d="m-94.631 103.69c-2.833-0.60341-5.4884-2.4917-6.499-4.6215-0.65794-1.3865-0.60029-4.0749 0.11755-5.482 2.4165-4.7367 9.5376-6.7442 14.803-4.1729 8.0835 3.9476 4.5458 13.74-5.2024 14.4-1.1006 0.0745-2.5492 0.0188-3.219-0.1239z" fill="#ccc"/>
  <path d="m-75.915 92.935c-1.2059-0.34883-2.9666-1.9953-3.222-3.0131-0.45594-1.8166 1.3136-3.5255 3.8701-3.7375 3.8964-0.32312 7.1953 2.6999 5.7972 5.3123-0.77339 1.4451-3.962 2.1566-6.4453 1.4382z" fill="#ccc"/>
 </g>
</svg>
