<svg width="157.15mm" height="81.148mm" version="1.1" viewBox="0 0 157.15 81.148" xmlns="http://www.w3.org/2000/svg">
 <g transform="translate(-13.649 -83.688)">
  <g transform="matrix(.26458 0 0 .26458 13.649 83.688)" fill="#00527d">
   <g fill="#00527d">
    <g fill="#00527d">
     <path class="st0" d="m124.8 75.7c-1.2 23-20 24.6-20 24.6h-17.7l4.5-53.5h14.3c5-0.1 20.1 6 18.9 28.9m59.6-14.5c0-56-41.7-56-46.2-56s-98.8-0.1-98.8-0.1l-23.8 203.5h62.1l4.9-64s1.2-6 6.9-6 7 4.8 7 4.8l15.5 64.8h60.1l-22.1-78.5c0.1 0 34.4-12.5 34.4-68.5"/>
     <path d="m222.9 6.4h51.5l30.2 97.5 51.1-97.1h53.2l-19.2 201.4h-54.8l5.3-76.5-36.4 76.5h-18.4l-23.3-72.1-8.2 72.1h-53.9z"/>
     <path class="st0" d="m558.9 79.3h9.8l24.9-40.7s2-5.6-3.7-11.3c-5.7-5.5-22-27.3-63.7-27.3s-87.3 34.6-96.5 95.8c-7.8 51.9 9.4 102.7 58.9 114.8s85-20.1 90.3-33.4c1.6-4.8 1.6-5.6 0-8.5-1.6-2.8-16.8-31-16.8-31h-9.8s-2.9 0-5.3 2.8c-2.5 2.8-11.9 12.1-16.8 14.1-7.4 6.4-46.6 5.2-44.1-43.1 4.5-53.1 42.9-53.1 42.9-53.1s14-2.8 29.9 20.9"/>
     <path class="st0" d="m25.2 248.8h-11.2l-8.5 52.3h11.3c17.3 0 31-13.8 31-30.8 0-13.5-9.2-21.5-22.6-21.5m-8.7 56.8h-16.5l9.8-61.3h16.5c15.4 0 26.6 10 26.6 25.4 0.1 20-16.1 35.9-36.4 35.9"/>
     <path class="st0" d="m103.9 226.1-12.2 13.1h-4.1l10.4-13.1zm3.9 18.2-0.7 4.4h-27.8l-3.5 22h26.3l-0.7 4.5h-26.3l-4.2 25.9h28.5l-0.7 4.5h-33.4l9.8-61.3z"/>
     <path class="st0" d="m169.7 256c-3.3-5.6-11-8.2-17.3-8.2-17.8 0-29.8 15.8-29.8 32.4 0 12.7 7.9 21.7 21.1 21.7 7.6 0 14.9-2.9 20.3-8.1l2.7 3.2c-6.5 6.2-14.3 9.6-23.7 9.6-15.6 0-25.6-10.4-25.6-25.6 0-20 14.7-37.7 35.7-37.7 8.5 0 15.1 2.9 20.1 9.2z"/>
     <path class="st0" d="m218 247.8c-17.8 0-30.1 15.7-30.1 32.4 0 12.7 8.3 21.7 21.4 21.7 17.8 0 30.1-15.7 30.1-32.4 0-12.7-8.3-21.7-21.4-21.7m-9.5 58.9c-15.4 0-25.8-10.5-25.8-25.6 0-20.2 14.9-37.7 36-37.7 15.3 0 25.8 10.5 25.8 25.6 0.1 20.2-14.9 37.7-36 37.7"/>
     <path class="st0" d="m309 244.3-5.9 36.6c-2.3 14.5-8.3 25.8-25.4 25.8-10.6 0-18.1-5.9-18.1-16.7 0-3 0.5-6 1-9.1l5.9-36.6h4.9l-5.7 35.3c-0.4 3-1 6.1-1 9.2 0 8.4 5.3 13.3 13.8 13.3 14.2 0 18.2-10.8 20.1-22.5l5.7-35.3z"/>
     <path d="m372.3 244.3-31.7 61.4h-3.8l-11.9-61.4h5.2l10.1 53 27.1-53z"/>
     <path d="m421.2 244.3-0.7 4.5h-27.8l-3.6 22h26.3l-0.7 4.4h-26.4l-4.1 25.9h28.5l-0.7 4.5h-33.3l9.8-61.3z"/>
     <path class="st0" d="m453 248.8h-7.2l-3.9 23.9h7.1c9.8 0 17.8-3.6 17.8-14.5 0-8.2-7.2-9.4-13.8-9.4m1.4 28.2 13.6 28.6h-6.2l-13.1-28.4h-7.5l-4.6 28.4h-4.8l9.8-61.3h13.9c8.8 0 16.3 3.9 16.3 13.4 0.1 10.8-7.3 17.8-17.4 19.3"/>
     <path d="m527.4 244.3-0.7 4.5h-17.8l-9.1 56.8h-4.9l9.2-56.8h-17.8l0.8-4.5z"/>
     <path d="m576.7 244.3-0.7 4.5h-27.8l-3.5 22h26.2l-0.7 4.4h-26.4l-4.1 25.9h28.5l-0.7 4.5h-33.3l9.8-61.3z"/>
    </g>
   </g>
  </g>
 </g>
</svg>
