<svg version="1.0" viewBox="0 0 178.83 84.311" xmlns="http://www.w3.org/2000/svg" xmlns:xlink="http://www.w3.org/1999/xlink">
 <defs>
  <linearGradient id="b">
   <stop stop-color="#9a213d" offset="0"/>
   <stop stop-color="#f20408" offset="1"/>
  </linearGradient>
  <linearGradient id="c" x1="2.3315" x2="107.67" y1="44.717" y2="44.717" gradientTransform="translate(-2.3315 -1.9767)" gradientUnits="userSpaceOnUse" xlink:href="#b"/>
  <linearGradient id="a" x1="2.332" x2="181.16" y1="15.303" y2="15.303" gradientUnits="userSpaceOnUse" xlink:href="#b"/>
 </defs>
 <path d="m4.3701 31.747c-0.94516 0.0018-2.3527 0.19146-3.4688 1.2188-0.72412 0.66654-0.69474 1.4824-0.875 2.25v32.906c-0.01194 0.06295-0.37681 2.8946 2.0313 3.7812 0.59571 0.21934 2.2484 0.49535 3.375 0.46875 3.6162-0.08537 3.5764-0.88142 4-1.0938 1.0296-0.51605 1.0937-3.2812 1.0937-3.2812v-19s0.37812-1.6828 1.0312-3c0.42134-0.8497 1.1102-1.4689 1.3438-1.625 1.1375-0.93616 2.2505-1.6518 3.75-1.875 1.1303-0.31268 2.9242 0.31341 4.625-0.78125 1.3007-0.83717 1.1992-1.6415 1.5938-4.5625s-0.48625-4.957-1.7188-5.125c-2.4994-0.49386-7.4306 0.66563-9.6562 2.4375-0.62768 0.23675-2 2.083-2 1.2812-0.22623-0.60334-0.88872-2.7562-1.8438-3.2812-1.1395-0.62647-1.9482-0.603-2.25-0.625-0.07204-0.0052-0.46415-0.09485-1.0312-0.09375zm43.562 0c-1.6738 0.06714-3.3353 0.41717-4.9688 0.78125-0.93792 0.20905-1.8863 0.45751-2.7188 0.9375-0.99416 0.57323-2.5938 2.25-2.5938 2.25s-0.91469 0.07964-1.2188-0.1875c-0.57456-0.50479-0.13522-1.6589-0.65625-2.2188-0.97095-1.0433-2.4535-1.4279-3.875-1.5312-1.1109-0.08081-3.2259 0.60446-3.8438 1.5312-0.4436 0.6654-0.9375 2-0.9375 2v31.875s-0.23242 2.4982 1.3438 4.4688c0.767 0.95893 2.3042 1.0158 3.5312 1.0625 1.5434 0.05873 3.7681 0.16332 4.5-1 1.3109-2.0837 1.1562-4.5312 1.1562-4.5312v-21.344s0.51032-1.6114 1.375-2.3438c0.82726-0.70065 2.5698-1.5814 3.5938-1.9375 0.95105-0.33079 2.0014-0.50456 3-0.375 0.80877 0.10494 1.6443 0.36012 2.25 0.90625 0.48643 0.4386 1.0039 1.0941 1.2812 1.6875 0.30345 0.64924 0.46875 2.0625 0.46875 2.0625l0.0625 21.344s0.01232 3.3158 1 4.3125c1.1133 1.1235 3.076 1.2845 4.6562 1.2188 1.2686-0.05277 2.3757 0.20073 3.7812-1.5938 0.91501-1.1682 1.0598-3.9076 1-3.9375v-21.344s-0.19308-3.7949-0.59375-5.6562c-0.23337-1.0842-0.55679-2.2318-1.0625-3.2188-0.41071-0.80159-1.0013-1.5067-1.6562-2.125-0.76507-0.72218-1.6406-1.3359-2.5938-1.7812-1.4381-0.67199-3.0114-1.1551-4.5938-1.2812-0.55608-0.04434-1.1296-0.05363-1.6875-0.03125zm39.562 0-3.875 0.0625c-10.839 0.63932-18.484 12.199-18.312 24.688 3e-3 0.20776 0.03235 1.6905 0.03125 1.8125-0.12199 13.725 6.5006 26.194 22.719 26 1.1502-0.0138 5.5398-0.40825 5.3125-0.40625 5.8247-1.2932 9.5198-2.8876 10.656-7.3438 0.62167-2.4377-0.61275-4.1562-1.9375-4.1562-3.86 0-5.1335 2.8125-11.875 2.8125-7.948 0-13.129-4.7458-13.844-9.25-0.0429-0.2703-0.49999-3.6949-0.5-3.9375 0-0.54525 0.43781-0.99999 1-1 0 0 21.804 4e-3 22-0.03125 4.019-0.72605 5.4556-1.3086 6.1875-4.8125 0.37911-1.815 0.17455-3.0142 0.25-4.2188 0.52983-8.4591-6.1549-20.219-17.812-20.219zm-2.5625 7.5h1.9688c5.0382 0.8256 7.5412 3.8946 8.0625 8.8125 0.0648 1.0553 0.125 3.8438 0.125 3.8438 0 0.48848-0.67428 0.5-1.25 0.5l-17.125-0.03125c-0.52932 0-0.65625-0.83201-0.65625-1.3438 0 0-0.0225-0.52957 0-1.0625 0.25254-5.9696 4.5895-10.435 8.875-10.719z" fill="url(#c)" fill-rule="evenodd" stroke-opacity="0"/>
 <g transform="translate(-2.3315 -1.9767)" fill-rule="evenodd">
  <path d="m2.5625 28.046c-0.010224-0.03365-0.05475-0.43568-0.09892-0.8934-0.044171-0.45772-0.091847-0.89964-0.10595-0.98204l-0.025636-0.14983 0.8661-0.38727c0.47635-0.213 0.87344-0.40992 0.8824-0.43761 0.00898-0.02768 0.050071-2.2422 0.091337-4.9212 0.041266-2.679 0.085581-5.18 0.098474-5.5578l0.023441-0.68692-0.86703-0.2724c-0.68154-0.21412-0.87085-0.29197-0.88489-0.3639-0.00982-0.05033-0.00203-0.55678 0.017378-1.1255l0.035246-1.034 2.3079-0.52967c2.5907-0.59458 2.9048-0.63623 3.1406-0.41642 0.19873 0.1853 0.26553 0.35048 0.33748 0.83456 0.036141 0.24314 0.077153 0.45352 0.091137 0.4675 0.013979 0.01398 0.36224-0.1978 0.7739-0.47062 0.87606-0.58061 1.6748-0.98539 2.2238-1.1269 0.64849-0.16719 1.6144-0.12434 2.1973 0.097485l0.14121 0.05373-0.03591 1.8467c-0.01976 1.0157-0.042 1.8531-0.04944 1.861-0.0074 0.0079-0.3375 0.0692-0.73346 0.1363-2.8303 0.47965-3.5626 0.91696-3.9286 2.346-0.08108 0.31664-0.087747 0.668-0.087747 4.6239v4.2813l0.86814 0.37262c0.47748 0.20494 0.8824 0.38688 0.89984 0.40431 0.01743 0.01743-0.0076 0.49508-0.05561 1.0614l-0.0873 1.0298h-4.0083c-3.1641 0-4.0122-0.01289-4.0269-0.0612z" fill="url(#a)"/>
  <path d="m19.106 28.055c-0.78046-0.10454-1.516-0.37873-2.153-0.80255-1.1166-0.74298-1.9014-1.9083-2.159-3.2057-0.10078-0.5077-0.07422-1.8857 0.0496-2.5729 0.23938-1.3285 0.82702-2.3858 1.7298-3.1126 1.3985-1.1257 3.4148-1.6775 6.5411-1.7899l0.92444-0.033264-0.026473-0.66515c-0.04098-1.0296-0.19387-1.5866-0.57374-2.0899-0.60651-0.80368-1.8161-1.0207-3.6362-0.65239-0.51988 0.1052-1.7801 0.44086-2.5523 0.67978-0.26672 0.08253-0.49326 0.14176-0.5034 0.13161-0.0378-0.0378-1.0898-3.2322-1.0707-3.2513 0.04178-0.04178 1.4564-0.4603 2.1814-0.64538 3.1872-0.81362 5.5394-0.88933 7.283-0.2344 1.3541 0.50863 2.274 1.5163 2.6748 2.9302 0.15348 0.54137 0.21615 1.0013 0.25077 1.8402 0.02848 0.69011 0.21852 9.3013 0.21852 9.9016v0.33134l1.6399 0.53037 0.01317 1.0875c0.0093 0.76756-0.0027 1.0875-0.04078 1.0875-0.02968 0-0.96083 0.12166-2.0692 0.27036-1.1084 0.1487-2.1718 0.27149-2.3631 0.27287-0.71087 0.0051-1.0018-0.2783-1.1481-1.1184-0.034-0.1952-0.08396-0.35491-0.11104-0.35491-0.02708 0-0.20896 0.09955-0.40417 0.22122-0.46368 0.289-1.3537 0.7118-1.8959 0.90069-0.87129 0.3035-2.0337 0.44615-2.7996 0.34356zm2.2519-2.8863c0.68638-0.09658 1.701-0.52173 2.344-0.98214l0.27501-0.19693v-0.8706c0-0.47883 0.01461-1.3068 0.03246-1.84l0.03246-0.96936-0.97482 0.02756c-1.0932 0.03091-1.6953 0.11666-2.3432 0.3337-0.55458 0.1858-0.87622 0.36905-1.1705 0.66685-0.46621 0.47183-0.62725 1.0296-0.52766 1.8276 0.12508 1.0022 0.4402 1.5579 1.0512 1.8537 0.3743 0.1812 0.74714 0.22474 1.281 0.14963z" fill="url(#a)"/>
  <path d="m36.69 28.588c-2.3384-0.2419-3.8391-1.84-4.4737-4.7641-0.25534-1.1766-0.29933-1.7309-0.2991-3.7694 2.14e-4 -1.9395 0.04361-2.6957 0.22307-3.8876 0.45274-3.0069 1.591-4.8372 3.4865-5.6063 0.90068-0.36545 1.585-0.46776 2.8745-0.4298 0.98828 0.0291 1.6567 0.12569 2.7844 0.40241 0.36647 0.08992 0.67267 0.15712 0.68045 0.14935 0.0078-0.0078 0.01891-0.74722 0.02473-1.6432l0.010586-1.6291-0.42903-0.11424c-0.61612-0.16406-0.88882-0.29494-1.1064-0.53097-0.24125-0.26172-0.25794-0.37076-0.21317-1.3923l0.03522-0.80333 0.34268-0.11684c1.0289-0.35079 2.4742-0.71499 3.7331-0.94067 0.75312-0.135 2.2168-0.3118 2.2561-0.27252 0.01763 0.017606 0.05741 4.7279 0.0884 10.467 0.03099 5.7394 0.05852 10.691 0.06119 11.004l0.0048 0.56871 0.42834 0.16032c0.62669 0.23455 0.96895 0.41808 1.0859 0.58229 0.13974 0.19624 0.19061 0.53191 0.20903 1.3791l0.01551 0.71353-1.4201 0.13465c-2.5227 0.2392-3.5221 0.31938-3.6473 0.29262-0.33739-0.0721-0.47988-0.25156-0.71438-0.89975-0.07306-0.20193-0.14716-0.38371-0.16469-0.40396-0.01752-0.02024-0.30841 0.08246-0.64641 0.22823-1.992 0.85908-3.8713 1.262-5.2303 1.1214zm3.4268-4.0221c0.47238-0.13744 0.94597-0.33219 1.4808-0.60893l0.4773-0.24695 0.01102-4.3978c6e-3 -2.4188 0.01157-4.5898 0.01224-4.8244l0.0012-0.42662-0.39163-0.11046c-1.2847-0.36234-2.4764-0.49098-3.128-0.33765-0.68417 0.16099-1.2027 0.56167-1.5307 1.1828-0.25992 0.49225-0.54988 1.6746-0.73739 3.0068-0.12407 0.8815-0.12058 3.1468 0.0059 3.8429 0.30902 1.7004 0.9923 2.6759 2.0913 2.9856 0.34995 0.09864 1.2646 0.06368 1.7079-0.06528z" fill="url(#a)"/>
  <path d="m113.38 28.055c-0.78046-0.10454-1.516-0.37873-2.153-0.80255-1.1166-0.74298-1.9014-1.9083-2.159-3.2057-0.10078-0.5077-0.0742-1.8857 0.0496-2.5729 0.23938-1.3285 0.82703-2.3858 1.7298-3.1126 1.3985-1.1257 3.4148-1.6775 6.5411-1.7899l0.92444-0.03326-0.0264-0.66515c-0.041-1.0296-0.19386-1.5866-0.57373-2.0899-0.60652-0.80368-1.8161-1.0207-3.6362-0.65239-0.51988 0.1052-1.7801 0.44086-2.5522 0.67978-0.26673 0.08253-0.49326 0.14176-0.50341 0.13161-0.0378-0.0378-1.0898-3.2322-1.0707-3.2513 0.0418-0.04178 1.4564-0.4603 2.1814-0.64538 3.1872-0.81362 5.5394-0.88933 7.283-0.2344 1.3541 0.50863 2.274 1.5163 2.6748 2.9302 0.15348 0.54137 0.21615 1.0013 0.25077 1.8402 0.0285 0.69011 0.21852 9.3013 0.21852 9.9016v0.33134l1.6399 0.53037 0.0132 1.0875c9e-3 0.76756-3e-3 1.0875-0.0408 1.0875-0.0297 0-0.96084 0.12166-2.0692 0.27036-1.1084 0.1487-2.1718 0.27149-2.3631 0.27287-0.71087 0.0051-1.0018-0.2783-1.1481-1.1184-0.0339-0.1952-0.0839-0.35491-0.11104-0.35491-0.027 0-0.20896 0.09955-0.40417 0.22122-0.46368 0.289-1.3537 0.7118-1.8959 0.90069-0.87129 0.3035-2.0337 0.44615-2.7996 0.34356zm2.2519-2.8863c0.68638-0.09658 1.701-0.52173 2.344-0.98214l0.27502-0.19693v-0.8706c0-0.47883 0.0146-1.3068 0.0324-1.84l0.0325-0.96936-0.97482 0.02756c-1.0932 0.03091-1.6953 0.11666-2.3432 0.3337-0.55459 0.1858-0.87623 0.36905-1.1705 0.66685-0.4662 0.47183-0.62725 1.0296-0.52766 1.8276 0.12507 1.0022 0.4402 1.5579 1.0512 1.8537 0.3743 0.1812 0.74714 0.22474 1.281 0.14963z" fill="url(#a)"/>
  <g transform="matrix(.25369 0 0 .25369 61.194 -39.407)" fill="url(#a)">
   <path d="m-41.61 266.33c-0.09222-0.53496-1.0677-8.4186-1.0451-8.4464 0.01777-0.0221 1.7279-0.74817 3.8003-1.6139l3.7679-1.574 0.0957-6.3503c0.05263-3.4926 0.12503-13.221 0.16088-21.619l0.06518-15.269-6.5161-2.5778v-4.3874c0-4.0382 0.0225-4.3943 0.28157-4.4742 1.676-0.51651 12.111-2.716 15.647-3.298 2.8136-0.46312 7.2848-0.98103 8.4693-0.98103h0.54058l0.0043 29.483 0.0043 29.483 3.6561 1.511c2.0108 0.83106 3.7172 1.5656 3.792 1.6323 0.11587 0.10332-0.1683 4.5684-0.48347 7.5962l-0.096291 0.92513h-16.068c-8.8376 0-16.071-0.0182-16.075-0.0402z"/>
   <path d="m-28.329 189.72c-3.7711-0.82899-7.132-3.8384-8.3607-7.4861-0.60138-1.7854-0.74034-4.3458-0.3348-6.1686 1.1338-5.0961 5.7521-8.7812 11.028-8.7999 1.9659-7e-3 3.5031 0.3514 5.1399 1.1983 2.3377 1.2095 3.9241 2.8233 5.0908 5.1785 0.93811 1.8938 1.2487 3.3803 1.143 5.4703-0.15085 2.9818-1.2093 5.3593-3.3303 7.4803-2.1647 2.1647-4.5313 3.2016-7.5607 3.3129-1.1383 0.0418-2.0567-0.0187-2.8156-0.18555z"/>
  </g>
  <path d="m67.538 28.549c-1.6555-0.27981-3.0237-0.9798-4.1851-2.1413-1.1717-1.1717-1.8906-2.597-2.1418-4.2464-0.07364-0.48346-0.08084-0.74544-0.08109-2.9476-3.28e-4 -2.6043 0.01784-2.9046 0.22494-3.7265 0.62341-2.474 2.4316-4.4551 4.8565-5.3208 0.78858-0.28155 1.5413-0.40504 2.4898-0.40848 0.77718-0.00282 1.1568 0.039523 1.8368 0.2049 2.7157 0.66048 4.8645 2.7837 5.5503 5.4841 0.23904 0.94127 0.24519 1.0348 0.24545 3.7348 1.65e-4 2.2182-0.0079 2.5388-0.07414 2.9388-0.28918 1.7456-0.96876 3.0904-2.1674 4.289-1.1837 1.1837-2.5153 1.8611-4.2074 2.1404-0.63731 0.10521-1.7214 0.10475-2.347-1e-3zm1.6505-3.4325c0.11085-0.02154 0.31607-0.09554 0.45604-0.16446 1.0189-0.50159 1.7529-1.7632 1.9342-3.3243 0.03199-0.27549 0.04164-1.0718 0.03017-2.4869-0.01587-1.9554-0.02229-2.1058-0.1059-2.4794-0.41306-1.8458-1.5077-3.0138-2.8205-3.0095-0.60388 2e-3 -1.0808 0.2002-1.5614 0.64908-0.77533 0.72407-1.2293 1.7826-1.3413 3.1275-0.0696 0.83573-0.02815 4.0461 0.05856 4.5357 0.2548 1.4385 0.94832 2.5171 1.9255 2.9945 0.46494 0.22717 0.84863 0.26964 1.4247 0.15771z" fill="url(#a)"/>
  <path d="m170.32 28.055c-0.78046-0.10454-1.516-0.37873-2.153-0.80255-1.1166-0.74298-1.9014-1.9083-2.159-3.2057-0.10078-0.5077-0.0742-1.8857 0.0496-2.5729 0.23938-1.3285 0.82702-2.3858 1.7298-3.1126 1.3984-1.1257 3.4148-1.6775 6.5411-1.7899l0.92444-0.03326-0.0264-0.66515c-0.041-1.0296-0.19386-1.5866-0.57373-2.0899-0.60652-0.80368-1.8161-1.0207-3.6362-0.65239-0.51988 0.1052-1.7801 0.44086-2.5522 0.67978-0.26672 0.08253-0.49325 0.14176-0.5034 0.13161-0.0378-0.0378-1.0898-3.2322-1.0707-3.2513 0.0418-0.04178 1.4564-0.4603 2.1814-0.64538 3.1872-0.81362 5.5394-0.88933 7.283-0.2344 1.3541 0.50863 2.274 1.5163 2.6748 2.9302 0.15347 0.54137 0.21614 1.0013 0.25077 1.8402 0.0284 0.69011 0.21851 9.3013 0.21851 9.9016v0.33134l0.81998 0.26518 0.81997 0.26519 0.0132 1.0875c9e-3 0.76756-3e-3 1.0875-0.0408 1.0875-0.0297 0-0.96084 0.12166-2.0692 0.27036-1.1084 0.1487-2.1718 0.27149-2.3631 0.27287-0.71087 0.0051-1.0018-0.2783-1.1481-1.1184-0.034-0.1952-0.0839-0.35491-0.11104-0.35491-0.0271 0-0.20896 0.09955-0.40417 0.22122-0.46368 0.289-1.3537 0.7118-1.8959 0.90069-0.8713 0.3035-2.0337 0.44615-2.7996 0.34356zm2.2519-2.8863c0.68638-0.09658 1.701-0.52173 2.344-0.98214l0.27502-0.19693v-0.8706c0-0.47883 0.0146-1.3068 0.0325-1.84l0.0324-0.96936-0.97482 0.02756c-1.0932 0.03091-1.6953 0.11666-2.3432 0.3337-0.55459 0.1858-0.87623 0.36905-1.1705 0.66685-0.46621 0.47183-0.62725 1.0296-0.52766 1.8276 0.12507 1.0022 0.4402 1.5579 1.0512 1.8537 0.37431 0.1812 0.74714 0.22474 1.281 0.14963z" fill="url(#a)"/>
  <path d="m117.32 6.7c1.9034-0.90589 3.4704-1.6567 3.4823-1.6685 0.0119-0.011746-0.33607-0.71538-0.77323-1.5636-0.58047-1.1263-0.82017-1.5278-0.88881-1.4886-0.0517 0.029482-1.5741 1.0329-3.3831 2.2298-1.9763 1.3075-3.2761 2.211-3.2564 2.2635 0.0468 0.12492 1.2802 1.8709 1.323 1.8729 0.0196 0.00101 1.593-0.73954 3.4963-1.6454z" fill="url(#a)"/>
  <path d="m91.6 28.269c-3.3778-0.16616-5.7573-2.1634-6.6416-5.5747-0.28248-1.0897-0.39445-2.0826-0.39444-3.4978 8e-6 -1.4952 0.15416-2.521 0.56176-3.7383 0.67381-2.0123 1.8813-3.5963 3.4937-4.5832 1.7564-1.0751 4.0385-1.3659 6.2374-0.795 0.5612 0.14571 1.18 0.35833 1.6726 0.57464l0.36653 0.16098 0.02716 0.36909c0.01494 0.203 0.03495 1.3364 0.04446 2.5186l0.0173 2.1495-0.75058-0.0046c-0.41282-0.0026-0.92646-0.01657-1.1414-0.03115l-0.39083-0.0265-1.0914-2.5308-0.16418-0.03936c-0.0903-0.02164-0.47258-0.03926-0.84953-0.03915-0.78526 2.46e-4 -1.1215 0.06734-1.6593 0.3311-0.38794 0.19028-0.90865 0.69252-1.159 1.1178-0.52087 0.88505-0.81843 2.1511-0.917 3.9018-0.07899 1.4029 0.07031 2.6179 0.46129 3.7539 0.28774 0.83608 0.62848 1.3901 1.1706 1.9032 0.53307 0.50459 1.1338 0.78567 1.8956 0.8869 0.8825 0.11726 2.0644-0.15675 3.1463-0.72944 0.30713-0.16258 0.3465-0.17402 0.38047-0.11054 0.13253 0.24764 1.2441 2.8491 1.2283 2.8746-0.01071 0.0173-0.22048 0.11558-0.46618 0.21836-1.7152 0.71755-3.3708 1.024-5.078 0.94004z" fill="url(#a)"/>
  <path d="m103.54 28.314c-1.5993-0.22622-2.5207-1.208-2.9635-3.1577-0.23637-1.0408-0.25164-1.6587-0.25314-10.243-2e-3 -8.0785 0.0112-7.6353-0.2277-7.9963-0.21962-0.33187-0.67655-0.54855-1.2738-0.60406l-0.28584-0.026567 5.07e-4 -0.98053 5.08e-4 -0.98052 5.8284-1.3542 0.1894 0.23274 0.0136 10.135c0.0126 9.4242 0.0186 10.153 0.0849 10.396 0.18427 0.67409 0.46407 0.92328 1.0357 0.92243 0.35395-5.07e-4 0.60214-0.06802 0.97168-0.26425 0.23712-0.12591 0.27147-0.13425 0.30328-0.07364 0.0197 0.0376 0.27276 0.63298 0.56229 1.3231 0.40859 0.97387 0.51731 1.2714 0.48576 1.3292-0.11581 0.21208-0.59425 0.57834-1.0674 0.8171-0.75467 0.38082-1.4031 0.52682-2.4274 0.54656-0.39978 0.0077-0.83955-2e-3 -0.97726-0.02141z" fill="url(#a)"/>
  <path d="m131.49 28.281c-2.0944-0.14409-3.6916-0.63213-4.686-1.4651l-0.27509-0.23044 1e-3 -0.31991c5.1e-4 -0.17595 5e-3 -1.0722 0.0104-1.9918l9e-3 -1.6718 2.2274 0.02334 0.24457 0.83322c0.2399 0.81727 0.24803 0.83625 0.42465 0.99172 0.58983 0.51919 1.7734 0.8606 2.8355 0.81796 0.75822-0.03044 1.288-0.20224 1.6932-0.54907 0.81446-0.69721 0.81223-2.0303-5e-3 -2.863-0.47678-0.48593-1.1478-0.84573-2.8306-1.5177-1.4271-0.56987-2.3778-1.0658-2.911-1.5185-0.76179-0.64674-1.1862-1.3123-1.4024-2.1992-0.0955-0.39177-0.11574-0.60562-0.11436-1.2086 2e-3 -0.95392 0.17937-1.7435 0.5701-2.5405 0.54688-1.1156 1.4274-1.9744 2.6062-2.5419 1.105-0.53194 2.054-0.70289 3.474-0.62578 1.3005 0.07061 2.2577 0.25668 3.213 0.62454 0.37028 0.14259 0.98132 0.44021 1.0496 0.51126 0.0329 0.03417 0.0558 0.61876 0.0757 1.9286l0.0286 1.8795-0.86493-0.0046-1.6162-0.0094c-0.22053-0.51681-0.3739-0.94125-0.57131-1.3943-0.10239-0.05246-0.30229-0.16001-0.62495-0.27533-1.2768-0.45633-2.3727-0.32112-3.0045 0.37068-0.38323 0.41965-0.576 0.97966-0.53773 1.5622 0.0728 1.1084 0.72323 1.7497 2.3537 2.3208 0.26272 0.09202 0.86084 0.29216 1.3292 0.44475 1.85 0.60279 2.7773 1.1386 3.4137 1.9727 0.53558 0.70187 0.7792 1.4151 0.87159 2.5516 0.1089 1.3395-0.1829 2.5139-0.89777 3.6134-0.91179 1.4024-2.3584 2.2619-4.1559 2.4695-0.33779 0.03901-1.5015 0.04847-1.973 0.01603l0.0389-0.0049z" fill="url(#a)"/>
  <path d="m158.07 28.269c-3.3778-0.16616-5.7573-2.1634-6.6416-5.5747-0.28248-1.0897-0.39445-2.0826-0.39445-3.4978 1e-5 -1.4952 0.15416-2.521 0.56176-3.7383 0.67381-2.0123 1.8813-3.5963 3.4937-4.5832 1.7564-1.0751 4.0385-1.3659 6.2374-0.795 0.5612 0.14571 1.18 0.35833 1.6726 0.57464l0.36653 0.16098 0.0272 0.36909c0.0149 0.203 0.035 1.3364 0.0445 2.5186l0.0173 2.1495-0.75058-0.0046c-0.41282-0.0026-0.92646-0.01657-1.1414-0.03115l-0.39083-0.0265-0.54571-1.2654-0.5457-1.2654-0.16418-0.03936c-0.0903-0.02164-0.47258-0.03926-0.84953-0.03915-0.78526 2.46e-4 -1.1215 0.06734-1.6592 0.3311-0.38794 0.19028-0.90865 0.69252-1.159 1.1178-0.52087 0.88505-0.81843 2.1511-0.91701 3.9018-0.079 1.4029 0.0703 2.6179 0.4613 3.7539 0.28774 0.83608 0.62847 1.3901 1.1706 1.9032 0.53307 0.50459 1.1338 0.78567 1.8956 0.8869 0.8825 0.11726 2.0644-0.15675 3.1463-0.72944 0.30712-0.16258 0.3465-0.17402 0.38047-0.11054 0.13253 0.24764 1.2441 2.8491 1.2283 2.8746-0.0107 0.0173-0.22048 0.11558-0.46618 0.21836-1.7152 0.71755-3.3708 1.024-5.078 0.94004z" fill="url(#a)"/>
  <g transform="matrix(.25369 0 0 .25369 151.49 -39.407)" fill="#e40910">
   <path d="m-41.61 266.33c-0.09222-0.53496-1.0677-8.4186-1.0451-8.4464 0.01777-0.0221 1.7279-0.74817 3.8003-1.6139l3.7679-1.574 0.0957-6.3503c0.05263-3.4926 0.12503-13.221 0.16088-21.619l0.06518-15.269-6.5161-2.5778v-4.3874c0-4.0382 0.0225-4.3943 0.28157-4.4742 1.676-0.51651 12.111-2.716 15.647-3.298 2.8136-0.46312 7.2848-0.98103 8.4693-0.98103h0.54058l0.0043 29.483 0.0043 29.483 3.6561 1.511c2.0108 0.83106 3.7172 1.5656 3.792 1.6323 0.11587 0.10332-0.1683 4.5684-0.48347 7.5962l-0.096291 0.92513h-16.068c-8.8376 0-16.071-0.0182-16.075-0.0402z"/>
   <path d="m-28.329 189.72c-3.7711-0.82899-7.132-3.8384-8.3607-7.4861-0.60138-1.7854-0.74034-4.3458-0.3348-6.1686 1.1338-5.0961 5.7521-8.7812 11.028-8.7999 1.9659-7e-3 3.5031 0.3514 5.1399 1.1983 2.3377 1.2095 3.9241 2.8233 5.0908 5.1785 0.93811 1.8938 1.2487 3.3803 1.143 5.4703-0.15085 2.9818-1.2093 5.3593-3.3303 7.4803-2.1647 2.1647-4.5313 3.2016-7.5607 3.3129-1.1383 0.0418-2.0567-0.0187-2.8156-0.18555z"/>
  </g>
 </g>
</svg>
