<?xml version="1.0" encoding="UTF-8"?>
<svg id="svg21" width="357.75pt" height="262.81pt" version="1.1" viewBox="0 0 357.75 262.81" xmlns="http://www.w3.org/2000/svg" xmlns:cc="http://creativecommons.org/ns#" xmlns:dc="http://purl.org/dc/elements/1.1/" xmlns:rdf="http://www.w3.org/1999/02/22-rdf-syntax-ns#">
 <metadata id="metadata27">
  <rdf:RDF>
   <cc:Work rdf:about="">
    <dc:format>image/svg+xml</dc:format>
    <dc:type rdf:resource="http://purl.org/dc/dcmitype/StillImage"/>
    <dc:title/>
   </cc:Work>
  </rdf:RDF>
 </metadata>
 <defs id="defs25">
  <clipPath id="clipPath6632">
   <path id="path6630" d="m368.48 103.08 5.0569 0.16743 0.3366-10.166-5.0569-0.16744z"/>
  </clipPath>
  <radialGradient id="radialGradient6644" cx="0" cy="0" r="1" gradientTransform="matrix(6.5265 .2161 .2161 -6.5265 369.22 98.911)" gradientUnits="userSpaceOnUse">
   <stop id="stop6634" stop-color="#bfb8ab" offset="0"/>
   <stop id="stop6636" stop-color="#93877d" offset=".23144"/>
   <stop id="stop6638" stop-color="#d1cbc0" offset=".54082"/>
   <stop id="stop6640" stop-color="#f0ebe1" offset=".67812"/>
   <stop id="stop6642" stop-color="#fff" offset="1"/>
  </radialGradient>
  <clipPath id="clipPath6664">
   <path id="path6662" d="m365.03 103.07h9.909v-11.291h-9.909z"/>
  </clipPath>
  <radialGradient id="radialGradient6674" cx="0" cy="0" r="1" gradientTransform="matrix(5.2275,0,0,-5.8245,369.98,97.426)" gradientUnits="userSpaceOnUse">
   <stop id="stop6666" stop-color="#838689" offset="0"/>
   <stop id="stop6668" stop-color="#838689" offset=".45059"/>
   <stop id="stop6670" stop-color="#d6d5d5" offset=".86404"/>
   <stop id="stop6672" stop-color="#f4f2f1" offset="1"/>
  </radialGradient>
  <clipPath id="clipPath6694">
   <path id="path6692" d="m364.52 87.814-5.0132 11.176 11.246 5.0448 5.0132-11.176z"/>
  </clipPath>
  <linearGradient id="linearGradient6706" x2="1" gradientTransform="matrix(-4.4931,10.016,10.016,4.4931,368.84,91.172)" gradientUnits="userSpaceOnUse">
   <stop id="stop6696" stop-color="#7a6d5f" offset="0"/>
   <stop id="stop6698" stop-color="#efe8e6" offset=".28828"/>
   <stop id="stop6700" stop-color="#b6ada5" offset=".71216"/>
   <stop id="stop6702" stop-color="#93877d" offset=".86183"/>
   <stop id="stop6704" stop-color="#7a6d5f" offset="1"/>
  </linearGradient>
  <clipPath id="clipPath6726">
   <path id="path6724" d="m371.67 94.236-8.4046-4.0283-5.2016 10.852 8.4046 4.0283z"/>
  </clipPath>
  <linearGradient id="linearGradient6742" x2="1" gradientTransform="matrix(-6.6131,-3.1697,-3.1697,6.6131,367.95,98.75)" gradientUnits="userSpaceOnUse">
   <stop id="stop6728" stop-color="#c4c6c9" offset="0"/>
   <stop id="stop6730" stop-color="#e8e9e8" offset=".24606"/>
   <stop id="stop6732" stop-color="#f2f1ef" offset=".34044"/>
   <stop id="stop6734" stop-color="#e7e5e6" offset=".42346"/>
   <stop id="stop6736" stop-color="#e2e3e4" offset=".48563"/>
   <stop id="stop6738" stop-color="#f1efef" offset=".84735"/>
   <stop id="stop6740" stop-color="#d1d3d5" offset="1"/>
  </linearGradient>
 </defs>
 <g id="#a19388ff" transform="matrix(.75142 0 0 .75142 -17.594 -54.404)" fill="#a19388">
  <path id="path2" d="m274.83 359.86c8.77-1.93 17.6 1.03 25.61 4.43v8.74c-5.89-2.89-11.61-7.15-18.48-6.98-4.01 0.07-8.83 1.81-10.11 6.01-0.98 2.73 0.68 5.64 3.14 6.89 7.61 4.09 16.02 6.84 22.86 12.26 4.65 3.7 7.33 9.97 5.98 15.87-0.86 4.53-3.86 8.47-7.83 10.76-11.61 6.55-26.945 5.62-37.475-2.68v-8.02c4.34 3.46 9.285 6.24 14.665 7.67 4.92 1.07 10.7 0.48 14.51-3.09 2.65-2.44 3.16-7.2 0.15-9.57-6.83-5.6-16.1-7.26-22.61-13.36-4.31-3.49-6.48-9.29-5.52-14.74 1.09-7.45 7.98-12.92 15.11-14.19z"/>
  <path id="path4" d="m23.415 360.34c7.86 0.01 15.725-0.04 23.585 0.02 6.05 0.09 12.56 1.27 17.16 5.51 7 6.14 5.74 19.37-2.73 23.61-2.54 1.51-5.46 2.15-8.33 2.73 6.44 9.54 12.73 19.195 19.11 28.785h-16.16c-6.16-9.16-12.23-18.345-18.39-27.495v27.495h-14.245v-60.655m14.245 5.86v22.26c4.7-0.02 10.28 0.72 13.9-2.99 4.94-4.24 5.16-12.97 0.06-17.15-2.4473-1.8139-5.3709-2.1554-8.3316-2.143z"/>
  <path id="path6" d="m99.11 360.15c9.61-1.91 20.3 0.36 27.43 7.31 11.42 11 11.76 30.33 3.01 43.02-11.16 14.62-36.32 15.38-48.01 0.99-8.51-10.57-9.12-26.55-2.15-38.07 4.22-7.03 11.66-11.9 19.72-13.25m1.32 5.51c-6.65 2.57-9.66 9.93-10.72 16.49-1.27 9.86-0.41 20.94 6.02 28.98 4.07 5.36 12.73 7.31 18.03 2.64 5.8-5.13 6.94-13.42 7.21-20.74 0.04-7.88-1.14-16.35-6.13-22.73-3.27-4.28-9.24-6.45-14.41-4.64z"/>
  <path id="path8" d="m164.28 361.22c9.66-3.15 20.1-1.31 29.23 2.63l0.08 7.89c-6.12-3.88-13.42-6.66-20.77-5.57-8.2 1.42-14.49 8.61-15.99 16.62-1.36 7.26-1.04 15.23 2.56 21.83 2.74 5 8.01 8.19 13.54 9.12 7.56 1.48 15.215-0.9 21.995-4.14v8.08c-7.97 3.37-16.745 4.83-25.375 4.05-8.79-0.89-17.2-5.7-22.06-13.12-3.96-6.06-5.68-13.44-5.4-20.62 0.56-12.48 10.23-23.65 22.19-26.77z"/>
  <path id="path10" d="m241.73 360.54h9.89l-22.27 23.775 24.11 36.72h-16.25l-19.805-29.78v29.78h-13.685v-60.495h13.685v27.425z"/>
  <path id="path12" d="m387.42 361.53c9.95-3.49 20.87-1.84 30.33 2.38l0.03 7.84c-6.15-3.92-13.5-6.69-20.88-5.57-7.85 1.43-14.01 8.15-15.69 15.82-1.59 7.23-1.32 15.16 1.97 21.89 2.61 5.3 8 8.82 13.75 9.82 7.62 1.56 15.35-0.86 22.19-4.1v8.05c-8.04 3.42-16.89 4.87-25.58 4.05-8.79-0.95-17.17-5.83-21.98-13.29-3.88-6.03-5.56-13.34-5.27-20.47 0.55-12.09 9.66-22.96 21.13-26.42z"/>
  <path id="path14" d="m445.45 360.64c10.09-2.62 21.72-0.79 29.43 6.57 11.75 11.06 12.18 30.91 3 43.67-11.01 13.79-34.6 14.82-46.63 1.83-8.81-9.63-10.21-24.68-4.84-36.34 3.54-7.77 10.74-13.7 19.04-15.73m3.94 4.9c-6.27 2.18-9.46 8.83-10.74 14.92-1.53 8.46-1.09 17.53 2.43 25.46 2.22 4.91 6.34 9.51 11.92 10.33 4.14 0.79 8.51-0.91 11.11-4.2 4.32-5.3 5.25-12.44 5.49-19.05 0.05-7.81-1.14-16.18-6.01-22.56-3.2-4.27-9.02-6.51-14.2-4.9z"/>
  <path id="path16" d="m324.1 381.13c2.17-7.06 12.03-9.26 17.53-4.75 3.07 2.65 3.9 7.58 1.72 11.04-1.54 2.46-3.86 4.27-6.05 6.11l11.61 16.11 6.27-6.92 2.75 3.65-7.04 6.17 6.15 8.59-11.62-0.01-2.37-3.33c-5.69 3.13-12.6 5.48-18.99 3.12-6.18-2.4-9.08-10.27-6.33-16.21 2.05-4.24 6.3-6.71 10.12-9.15-2.43-4.31-5.57-9.28-3.75-14.42m7.48-1.39c-1.82 4.02 1.59 7.72 3.57 10.93 3.07-2.73 6.85-6.97 4.3-11.29-1.5-3.29-6.58-2.87-7.87 0.36m-4.43 32.22c2.63 5.04 9.45 4.7 14.01 2.83l-11.09-15.88c-3.91 3.02-5.65 8.66-2.92 13.05z"/>
  <path id="path18" d="m491.1 409.08c2.61-0.64 6.15-0.38 7.61 2.25 1.4 2.93 1.15 7.5-2.14 9.06-2.9 1.21-7.21 0.84-8.68-2.33-1.33-3.13-0.68-8.13 3.21-8.98z"/>
 </g>
 <g id="g4619" transform="matrix(1.4465 0 0 1.4465 25.87 -.041035)">
  <g id="g6616" transform="matrix(10.884 0 0 -10.884 -3906.4 1122.1)">
   <g id="g6618">
    <g id="g6624">
     <g id="g6626">
      <g id="g6628" clip-path="url(#clipPath6632)">
       <path id="path6646" d="m370.69 102.95-0.982-2.406s-0.116-0.307 0.145-0.433h-1e-3c1.296-0.548 2.313-1.759 2.313-3.327 0-2.436-1.826-3.518-3.253-3.699h1e-3c-8e-3 -1e-3 -0.064-7e-3 -0.097-0.011 0.066 1e-3 0.114 3e-3 0.155 4e-3 2.226 0.084 4.575 1.804 4.575 5.201 0 2.242-1.085 3.599-1.8 4.277-0.202 0.193-0.367 0.319-0.48 0.397-0.109 0.075-0.171 0.099-0.172 0.1-0.039 0.021-0.106 0.041-0.176 0.041-0.09 0-0.184-0.034-0.228-0.144m-1.779-9.865h1e-3 -1e-3" fill="url(#radialGradient6644)"/>
      </g>
     </g>
    </g>
   </g>
  </g>
  <g id="g6648" transform="matrix(10.884 0 0 -10.884 -3906.4 1122.1)">
   <g id="g6650">
    <g id="g6656">
     <g id="g6658">
      <g id="g6660" clip-path="url(#clipPath6664)">
       <path id="path6676" d="m371.04 103.07h1e-3zm6e-3 -3e-3c0.019-5e-3 0.035-0.013 0.048-0.02 1e-3 -1e-3 0.063-0.025 0.172-0.1 0.113-0.078 0.278-0.204 0.48-0.397 0.715-0.678 1.8-2.035 1.8-4.277 0-3.397-2.349-5.117-4.575-5.201-0.041-1e-3 -0.089-3e-3 -0.155-4e-3 -0.027-1e-3 -0.057-1e-3 -0.092-1e-3 -1.689 0-2.64 0.849-3.147 1.598-0.356 0.522-0.516 0.994-0.547 1.093 0.03-0.126 0.066-0.248 0.108-0.368 0.079-0.247 0.177-0.499 0.299-0.75 0.432-0.884 1.112-1.749 2.029-2.292 0.565-0.334 1.165-0.527 1.876-0.563 0.082-4e-3 0.167-7e-3 0.252-7e-3 1.062 0 1.975 0.296 2.731 0.783 1.708 1.1 2.614 3.176 2.614 5.026 0 1.972-0.876 3.846-2.886 5.082-0.101 0.062-0.317 0.172-0.435 0.222-0.146 0.063-0.373 0.131-0.486 0.158-0.032 8e-3 -0.089 0.02-0.091 0.021 0 0 2e-3 -1e-3 5e-3 -3e-3" fill="url(#radialGradient6674)"/>
      </g>
     </g>
    </g>
   </g>
  </g>
  <g id="g6678" transform="matrix(10.884 0 0 -10.884 -3906.4 1122.1)">
   <g id="g6680">
    <g id="g6686">
     <g id="g6688">
      <g id="g6690" clip-path="url(#clipPath6694)">
       <path id="path6708" d="m366.98 100.53c-0.074-3e-3 -0.32-0.025-0.436-0.042-1.053-0.154-3.599-1.095-3.599-4.279 0-1.922 0.989-3.204 2.254-3.975 0.021-0.012 1.368-0.922 3.342-0.922 1.429 0 2.719 0.474 3.778 1.248-0.756-0.487-1.669-0.783-2.731-0.783-0.085 0-0.17 3e-3 -0.252 7e-3 -0.711 0.036-1.311 0.229-1.876 0.563-0.917 0.543-1.597 1.408-2.029 2.292-0.122 0.251-0.22 0.503-0.299 0.75-0.053 0.151-0.097 0.307-0.129 0.468-0.041 0.16-0.076 0.415-0.076 0.707l2e-3 3e-3v8e-3c0 1.856 1.014 3.003 2.309 3.552 0.151 0.07 0.201 0.191 0.183 0.276-7e-3 0.032-0.019 0.049-0.019 0.049-0.024 0.029-0.05 0.08-0.323 0.08-0.03 0-0.063-1e-3 -0.099-2e-3" fill="url(#linearGradient6706)"/>
      </g>
     </g>
    </g>
   </g>
  </g>
  <g id="g6710" transform="matrix(10.884 0 0 -10.884 -3906.4 1122.1)">
   <g id="g6712">
    <g id="g6718">
     <g id="g6720">
      <g id="g6722" clip-path="url(#clipPath6726)">
       <path id="path6744" d="m365.98 103.06c-2.256-0.964-3.665-2.954-3.665-5.507 0-2.272 1.082-4.26 2.945-5.349-0.036 0.021-0.054 0.035-0.057 0.036-1.265 0.771-2.254 2.053-2.254 3.975 0 3.184 2.546 4.125 3.599 4.279 0.116 0.017 0.362 0.039 0.436 0.042 7e-3 0 0.014 0 0.022 1e-3h0.035c6e-3 1e-3 0.01 1e-3 0.017 1e-3h0.057c2e-3 0 5e-3 -1e-3 8e-3 -1e-3h0.026c4e-3 -1e-3 0.01-1e-3 0.014-1e-3h9e-3c6e-3 -1e-3 0.013-1e-3 0.019-2e-3h3e-3c2e-3 0 5e-3 0 8e-3 -1e-3h2e-3c0.01-1e-3 0.02-2e-3 0.031-3e-3 0.012-2e-3 0.023-2e-3 0.033-4e-3h1e-3c3e-3 -1e-3 5e-3 -1e-3 7e-3 -2e-3 2e-3 0 5e-3 0 7e-3 -1e-3h1e-3c1e-3 0 3e-3 -1e-3 5e-3 -1e-3h1e-3c2e-3 -1e-3 4e-3 -1e-3 6e-3 -2e-3h6e-3c4e-3 -1e-3 8e-3 -3e-3 0.011-4e-3h1e-3c0.018-5e-3 0.032-0.01 0.043-0.015 2e-3 -2e-3 4e-3 -3e-3 7e-3 -4e-3 2e-3 -2e-3 4e-3 -4e-3 7e-3 -4e-3 3e-3 -2e-3 4e-3 -3e-3 5e-3 -4e-3v-1e-3h1e-3c3e-3 -2e-3 6e-3 -5e-3 7e-3 -6e-3 9e-3 -8e-3 0.014-0.014 0.018-0.018v-1e-3c1e-3 -2e-3 3e-3 -4e-3 4e-3 -5e-3 0 0 0.012-0.017 0.019-0.049 1e-3 -4e-3 1e-3 -6e-3 2e-3 -0.01v-1e-3c1e-3 -4e-3 1e-3 -7e-3 1e-3 -0.01h1e-3c-4e-3 0.07-0.024 0.122-0.053 0.194-9e-3 0.023-0.97 2.367-0.97 2.367-0.046 0.116-0.139 0.149-0.233 0.149-0.072 0-0.144-0.02-0.193-0.038" fill="url(#linearGradient6742)"/>
      </g>
     </g>
    </g>
   </g>
  </g>
 </g>
</svg>
