<?xml version="1.0" encoding="UTF-8" standalone="no"?>
<svg xmlns:rdf="http://www.w3.org/1999/02/22-rdf-syntax-ns#" xmlns="http://www.w3.org/2000/svg" height="169.33mm" width="169.33mm" version="1.1" xmlns:cc="http://creativecommons.org/ns#" xmlns:dc="http://purl.org/dc/elements/1.1/" viewBox="0 0 599.99998 599.99998">
 <g transform="translate(-109.96 -135.2)">
  <path d="m673.65 731.03h-527.37c-17.7 0-32.14-14.42-32.14-32.17v-527.34c0-17.73 14.44-32.15 32.14-32.15h527.37c17.72 0 32.14 14.42 32.14 32.15v527.34c0 17.75-14.42 32.17-32.14 32.17"/>
  <path d="m673.65 731.03h-527.37c-17.7 0-32.14-14.42-32.14-32.17v-527.34c0-17.73 14.44-32.15 32.14-32.15h527.37c17.72 0 32.14 14.42 32.14 32.15v527.34c0 17.75-14.42 32.17-32.14 32.17z" stroke="#fff" stroke-miterlimit="10" stroke-width="8.3488" fill="none"/>
  <g fill="#fff">
   <path d="m349.1 630.75c0-3.42 2.14-3.09 2.67-3.09h77.06c1.87 0.42 2.51 0.7 3.45 3.68l11.66 32 11.77-32.81s0.51-2.87 3.26-2.9c3.34 0.06 21.18 0 21.18 0 2.67 0.06 3.98 3.29 2.42 7.07-0.28 0.87-18.79 43.31-24.24 55.77l-3.2 3.4h-21.99l-3.95-3.23-18.45-41.49h-12.94v41.52l-2.64 3.23h-21.82l-2.67-3.23 0.03-41.52h-18.93c-0.81-0.06-2.61-0.23-2.61-2.9 0-3.73-0.06-14.61-0.06-15.5"/>
   <path d="m573.64 584.14-8.43-9.93 8.43 9.93zm-52.32-378.61c74.33 39.76 124.81 118.16 124.81 208.35 0 66.9-27.8 127.29-72.49 170.26l-8.43-9.93c41.91-40.58 67.93-97.4 67.93-160.33 0-81.56-43.75-152.92-109.09-191.85l-2.73-16.5zm-39.8-3.09c-22.48-7.6-46.53-11.75-71.55-11.75-25.18 0-49.36 4.18-71.93 11.86l-2.56-12.83c23.43-7.79 48.45-12 74.49-12 25.8 0 50.65 4.12 73.97 11.78l-2.42 12.94zm-185.34 19.42c-65.48 38.88-109.4 110.34-109.4 192.02 0 51.9 17.73 99.72 47.45 137.59l-3.34 16.42c-35.59-41.35-57.1-95.18-57.1-154.01 0-90.72 51.18-169.48 126.31-209.05l-3.92 17.03z"/>
   <path d="m335.71 531.83c0.64-9.18-44.94-44.1-67.9-45.69-7.65-0.53-29.83 52.4-34.34 116.72-1.31 18.89-0.31 48.56-0.31 48.56l34.56-46.9s65.13 29.03 65.65 24.77c1.59-12.85-29.97-57.85-29.97-57.85s31.7-31.03 32.31-39.61m-38.24 11.58-19.09 15.98c-4.76-14.45 1.67-33.23 1.67-33.23s5.93 1.92 8.99 4.26c4.79 3.7 8.43 12.99 8.43 12.99"/>
   <path d="m351.5 571.17c-0.64 7.51 5.31 14.19 13.36 14.89 8.04 0.69 15.08-4.82 15.75-12.36 0.67-7.51-5.32-14.16-13.36-14.89-8.04-0.69-15.08 4.85-15.75 12.36m-25.49-0.98c1.95-22.23 23.35-38.51 47.81-36.37 15.94 1.39 29.25 10.27 36.04 22.46 7.43-17.73 28.63-29.44 52.46-27.36 6.45 0.56 12.52 2.09 18.06 4.37l-5.49 15.89c-14.36-1.25-26.66 6.91-27.63 18.18-1 11.3 9.71 21.45 23.91 22.68 9.37 0.83 17.95-2.45 22.95-8.05-0.05-6.37 0.06-12.85 0.39-19.17 2.2-43.02 12.11-82.37 15.42-82.49 7.43-0.25 16.2 75.95 16.2 75.95s55.04-54.74 55.63-38.13c0.47 13.14-25.88 56.05-25.88 56.05s52.34 63.87 52.57 69.97c0.25 7.43-85.27-36.29-85.27-36.29s-11.11 31.53-19.2 31.8c-4.07 0.17-7.49-15.83-8.99-36.67-10.22 8.21-24.63 12.71-40.16 11.35-19.2-1.67-35.18-11.88-42.89-25.66-6.7 16.48-24.87 27.39-45.19 25.6-24.43-2.14-42.69-21.9-40.74-44.11"/>
   <path d="m305.93 400.29c-7.32-26.82-11.88-58.83-11.88-96.9 0 21.43 4.28 41.72 11.88 59.75v37.15zm48.4 87.89c-15.42-16.42-30.09-39.41-41.94-71.11v-45.38c10.85 18.95 24.52 34.56 41.94 45.22v71.27zm51.84 33.76c-7.34-3.04-24.4-11.33-43.08-28.97v-71.8c13.25 6.73 27.8 10.71 43.08 11.27v89.5zm50.68-28.97c-18.7 17.64-35.73 25.93-43.08 28.97v-89.5c15.28-0.56 29.83-4.54 43.08-11.27v71.8zm50.71-75.9c-11.89 31.7-27.7 54.69-43.11 71.11v-71.27c17.42-10.66 32.25-26.27 43.11-45.22v45.38zm18.33-113.51c-0.02 38.01-4.59 69.96-11.88 96.73v-37.15c7.57-17.98 11.86-38.21 11.88-59.58"/>
   <path d="m409.65 377.72c16.89-2.51 26.77 14.24 44.56 11.38 28.38-4.59 43.91-25.33 48.42-51.65 2.39-14.11 2.34-23.8-5.18-36.29-19.28-31.95-46.19 22.51-87.63 42.88-41.44-20.37-68.07-74.83-87.36-42.88-7.54 12.49-7.57 22.18-5.17 36.29 4.5 26.32 20.01 47.06 48.42 51.65 17.75 2.86 27.05-13.89 43.94-11.38m-113.26-85.47c0-31.86 9.71-106.56 25.91-129.38 4.11 9.47 10.15 63.51 17.67 70.94 19.28-17.56 43.58-28.02 69.99-28.02s50.7 10.46 69.99 28.02c7.51-7.43 13.52-61.47 17.67-70.94 16.17 22.82 25.91 97.52 25.91 129.38 0 72.86-50.84 131.91-113.57 131.91s-113.57-59.05-113.57-131.91"/>
  </g>
 </g>
</svg>
