<svg version="1.1" viewBox="0 0 540.58 211.83" xmlns="http://www.w3.org/2000/svg">
 <path d="m478.11 207.07-93.801-93.567v93.544h-45.97v-49.269c-4.9923 9.685-11.298 18.176-18.958 25.438-9.7092 9.2058-21.231 16.276-34.554 21.21-13.327 4.9324-27.89 7.4042-43.688 7.4042-15.806 0-30.367-2.4719-43.691-7.4042-13.327-4.9338-24.844-12.004-34.549-21.21-9.7107-9.2072-17.279-20.358-22.705-33.454-4.5216-10.915-7.129-22.89-7.8835-35.909-5.7739 3.6629-12.541 6.2632-20.378 7.7195l51.72 85.475h-53.323l-42.295-80.702h-22.064v80.702h-45.967v-201.76h79.065c10.283 0 20.344 0.83443 29.578 2.8285 9.2314 1.9898 17.322 5.3132 24.272 9.9646 6.9478 4.6542 12.468 10.917 16.563 18.789 0.77879 1.502 1.4592 3.0938 2.091 4.7384 3.3862-4.6813 7.1475-9.0289 11.327-12.994 9.705-9.2043 21.223-16.273 34.549-21.21 13.324-4.9338 27.885-7.4057 43.691-7.4057 15.798 0 30.362 2.4719 43.688 7.4057 13.322 4.9366 24.844 12.006 34.554 21.21 7.6596 7.2645 13.966 15.756 18.958 25.438v-48.765h45.97v82.539l77.697-82.703h58.253l-89.951 93.674 110.27 108.31zm-371.89-153.26c-2.0982-3.0339-4.7612-5.3588-7.9948-6.9763-3.2393-1.6089-6.9507-2.7015-11.137-3.2749-4.1907-0.56912-8.2815-0.85154-12.28-0.85154h-29.125v45.838h26.269c3.9967 0 8.2315-0.13978 12.709-0.42506 4.4716-0.28385 8.5182-1.1382 12.136-2.5632 3.613-1.4249 6.6126-3.6515 8.9932-6.6896 2.382-3.0339 3.5716-7.3073 3.5716-12.813 0-5.1249-1.0512-9.2029-3.1423-12.244zm193.32 26.195c-2.954-7.9734-7.1889-14.848-12.709-20.641-5.5229-5.7882-12.136-10.295-19.845-13.525-7.7124-3.2264-16.325-4.8396-25.843-4.8396-9.521 0-18.133 1.6132-25.843 4.8396-7.7095 3.2293-14.328 7.7366-19.848 13.525-5.5243 5.7925-9.7549 12.668-12.706 20.641-2.9526 7.9705-4.426 16.611-4.426 25.91 0 9.4924 1.4734 18.176 4.426 26.053 2.9511 7.8764 7.1817 14.712 12.706 20.497 5.52 5.7925 12.138 10.3 19.848 13.526 7.7095 3.2293 16.322 4.8382 25.843 4.8382 9.5181 0 18.131-1.6089 25.843-4.8382 7.7095-3.2264 14.322-7.7337 19.845-13.526 5.52-5.7853 9.7549-12.62 12.709-20.497 2.9469-7.8764 4.4232-16.56 4.4232-26.053 0-9.2985-1.4763-17.939-4.4232-25.91z" fill="#ffbe46"/>
</svg>
