<svg xmlns="http://www.w3.org/2000/svg" xmlns:xlink="http://www.w3.org/1999/xlink" width="799.998" height="183.618">
    <defs>
        <path id="a" d="M350 352.732h45.445v44.703H350z"/>
        <clipPath id="d">
            <use height="841.89" width="595.28" overflow="visible" xlink:href="#a"/>
        </clipPath>
        <linearGradient gradientTransform="matrix(0 42.7102 42.7102 0 -35584.891 353.51)" y2="841.898" x2="1.007" y1="841.898" x1=".007" gradientUnits="userSpaceOnUse" id="e">
            <stop offset="0" stop-color="#e41e26"/>
            <stop offset="1" stop-color="#bc2025"/>
        </linearGradient>
        <path id="b" d="M199.835 352.538h146.589v44.644H199.835z"/>
        <clipPath id="f">
            <use height="841.89" width="595.28" overflow="visible" xlink:href="#b"/>
        </clipPath>
        <linearGradient gradientTransform="matrix(0 94.0467 94.0467 0 -78903.773 328.614)" y2="841.891" x2="1" y1="841.891" x1="0" gradientUnits="userSpaceOnUse" id="g">
            <stop offset="0" stop-color="#5481c1"/>
            <stop offset=".186" stop-color="#4c75b8"/>
            <stop offset=".547" stop-color="#375ca5"/>
            <stop offset="1" stop-color="#1e398d"/>
        </linearGradient>
        <path id="c" d="M0 0h595.28v841.89H0z"/>
    </defs>
    <path clip-path="url(#d)" transform="translate(-817.277 -1441.796) scale(4.08976)" fill="url(#e)" d="M350 352.732h45.445v44.703H350z"/>
    <path clip-path="url(#f)" transform="translate(-817.277 -1441.796) scale(4.08976)" fill="url(#g)" d="M199.835 352.538h146.589v44.644H199.835z"/>
    <path d="M703.61 96.043c1.766-.87 3.377-2.636 5.571-1.895 7.565.413 15.316 1.666 21.97 5.5 3.904 2.265 7.11 6.112 7.822 10.657.97 9.988-1.937 20.19.77 30.02 1.752 6.911 9.262 12.111 16.372 10.059 10.857-2.065 17.568-13.022 18.094-23.494.84-.412 2.522-1.253 3.363-1.668.712 12.639-6.511 26.202-19.037 30.122-9.23 2.736-21.029 2.862-27.981-4.86-5.331-5.57-6.298-13.564-7.326-20.858-.954-6.624-.938-13.35-2.107-19.933-1.966-7.864-9.717-12.967-17.51-13.65zm-53.93-65.085c7.267-4.005 15.83-3.934 23.853-3.206 10.6.912 20.587 5.3 31.244 5.728 6.128.825 12.269.326 18.28-.899 4.063 1.966-1.994 4.901-3.019 7.268-8.52 14.975-11.256 32.343-14.974 48.955 7.693-1.353 15.786-3.605 21.228-9.602 11.27-12.683 20.062-27.371 31.418-39.967 6.669-7.45 16.956-10.629 26.743-9.276.087.786.258 2.338.342 3.122-5.087-.287-10.6-.3-14.988 2.664-6.469 4.06-10.032 11.07-13.85 17.41-5.812 10.146-11.91 20.19-19.305 29.253-8.05 8.747-20.889 11.583-32.23 8.918-3.035 14.649-7.98 29.038-15.19 42.16-5.854 10.358-15.216 19.45-27.169 21.943-7.78 1.395-16.756 2.165-23.553-2.693-6.767-4.517-9.988-13.023-8.99-20.958.812-11.228 9.231-20.816 19.634-24.52 4.246-1.427 9.958-3.621 13.337.554-10.959 1.096-22.071 6.768-26.83 17.113-3.876 7.964-2.451 18.777 4.745 24.363 6.126 5.13 15.83 4.759 21.883-.27 5.158-4.034 8.408-9.846 11.328-15.559 5.856-12.084 9.561-25.035 13.393-37.858 4.062-14.832 7.354-30.12 14.506-43.87 3.277-6.382 8.39-11.882 14.904-15.032-11.998 3.405-24.678 3.691-36.947 1.752-8.933-1.437-18.708-2.364-27 2.04-8.548 3.63-12.552 16.012-6.398 23.408 6.327 6.796 19.564 4.83 21.929-4.787 3.718 3.263-.142 7.807-3.221 9.845-9.333 5.6-23.594 1.212-27.156-9.39-3.834-10.87 1.852-23.565 12.053-28.61z" fill="#fff" stroke-width="4.09"/>
    <path style="line-height:125%;-inkscape-font-specification:'Russia Bold'" d="M79.064 88.03h12.738c3.34 0 6.036-1.194 8.088-3.58 2.051-2.387 3.077-5.536 3.077-9.449 0-3.912-1.026-7.061-3.077-9.446-2.052-2.385-4.748-3.578-8.088-3.578H79.064zM58.02 140.847V44.084h34.497c9.447 0 17.105 3.03 22.973 9.089 5.868 6.058 8.802 13.335 8.802 21.828 0 8.494-2.91 15.698-8.73 21.615-5.82 5.916-13.502 8.874-23.045 8.874H79.064v35.357zM172.415 124.815c11.547 0 17.32-7.873 17.32-23.62v-17.46c0-15.746-5.773-23.619-17.32-23.619-11.45 0-17.176 7.873-17.176 23.62v17.46c0 15.746 5.725 23.62 17.176 23.62zm-38.218-22.042v-20.47c0-12.788 3.602-22.665 10.807-29.63 7.205-6.967 16.342-10.45 27.411-10.45 11.166 0 20.35 3.483 27.556 10.45 7.204 6.965 10.807 16.842 10.807 29.63v20.47c0 12.88-3.603 22.757-10.807 29.628-7.205 6.871-16.39 10.307-27.556 10.307-11.07 0-20.206-3.459-27.411-10.377-7.205-6.918-10.807-16.77-10.807-29.558zM287.958 120.95l4.006 17.32c-9.16 2.959-18.462 4.438-27.91 4.438-11.835 0-21.378-3.412-28.63-10.235-7.251-6.823-10.877-16.677-10.877-29.56V82.014c0-12.88 3.626-22.732 10.877-29.556 7.252-6.823 16.795-10.235 28.63-10.235 9.448 0 18.75 1.48 27.91 4.439l-4.006 17.176c-8.017-2.481-15.939-3.722-23.764-3.722-12.403 0-18.605 7.873-18.605 23.62v17.316c0 8.399 1.598 14.459 4.795 18.18 3.196 3.723 7.8 5.583 13.81 5.583 8.399 0 16.32-1.288 23.764-3.866zM367.964 120.95l4.006 17.32c-9.16 2.959-18.462 4.438-27.91 4.438-11.835 0-21.378-3.412-28.63-10.235-7.25-6.823-10.877-16.677-10.877-29.56V82.014c0-12.88 3.626-22.732 10.878-29.556 7.251-6.823 16.794-10.235 28.63-10.235 9.447 0 18.75 1.48 27.909 4.439l-4.006 17.176c-8.017-2.481-15.938-3.722-23.764-3.722-12.403 0-18.604 7.873-18.604 23.62v17.316c0 8.399 1.598 14.459 4.794 18.18 3.196 3.723 7.8 5.583 13.81 5.583 8.4 0 16.32-1.288 23.764-3.866zM460.28 44.084v96.763h-21.042V99.623c0-5.154.19-10.213.572-15.175l-35.64 56.4h-17.177V44.083h21.042v41.94c0 4.39-.144 9.304-.432 14.744l35.645-56.684zM507.218 88.03h13.027V61.977h-13.027c-3.34 0-6.107 1.217-8.302 3.65-2.194 2.433-3.291 5.558-3.291 9.376 0 3.911 1.073 7.06 3.22 9.447 2.146 2.386 4.937 3.58 8.373 3.58zm34.07-43.946v96.763h-21.043V105.49h-8.016l-15.46 35.357h-23.475l18.037-38.363c-5.344-2.385-9.496-6.058-12.454-11.02-2.96-4.963-4.439-10.45-4.439-16.46 0-8.496 2.935-15.773 8.805-21.831 5.87-6.06 13.528-9.089 22.975-9.089z" font-weight="700" font-size="35" font-family="Russia" letter-spacing="-.33" word-spacing="0" fill="#fff" stroke-width="4.09"/>
</svg>
