<svg width="625.814" height="225.369" viewBox="0 0 165.58 59.629" xmlns="http://www.w3.org/2000/svg">
    <path d="M165.587 17.424a17.42 17.42 0 0 1-17.42 17.419 17.42 17.42 0 0 1-17.419-17.42A17.42 17.42 0 0 1 148.168.005a17.42 17.42 0 0 1 17.419 17.42z" fill="#da272e"/>
    <path d="M137.495 11.85v3.415h3.042v7.677h3.763v-7.677h3.04v-1.53l3.74 9.28h3.25l4.497-11.165h-4.126l-1.967 5.486-1.969-5.486h-4.184z" color="#000" fill="#fff" style="font-feature-settings:normal;font-variant-alternates:normal;font-variant-caps:normal;font-variant-ligatures:normal;font-variant-numeric:normal;font-variant-position:normal;isolation:auto;mix-blend-mode:normal;shape-padding:0;text-decoration-color:#000;text-decoration-line:none;text-decoration-style:solid;text-indent:0;text-orientation:mixed;text-transform:none;white-space:normal"/>
    <g fill="#505959">
        <path class="st0" d="M49.585 17.521c0-3.226 1.698-6.113 4.415-7.641-.85-2.377-2.208-4.585-3.736-6.623-1.359.85-2.717 1.868-3.736 2.887 2.038 3.396 3.057 7.472 3.057 11.377zM70.471 6.144c-1.019-1.189-2.377-2.207-3.736-2.887-1.698 2.038-2.886 4.246-3.905 6.623 2.717 1.528 4.415 4.585 4.415 7.641 0-3.905 1.188-7.98 3.226-11.377zM16.641 1.05C7.471 1.05 0 8.352 0 17.52v16.642h7.641V17.52c0-4.924 3.906-8.83 8.83-8.83V1.05z"/>
        <path class="st0" d="M118.188 17.521c0 4.925-3.906 8.83-8.83 8.83-1.02 0-2.208-.17-3.227-.509l17.151-17.15c-4.755-7.642-14.943-10.02-22.754-5.265-1.19.68-2.208 1.698-3.227 2.717 1.868 3.057 2.887 6.623 3.057 10.189-.68-9-8.66-15.793-17.83-15.113-8.49.679-15.113 7.81-15.283 16.301 0 4.925-3.906 8.83-8.83 8.83s-8.83-3.905-8.83-8.83c0-9.17-7.472-16.471-16.642-16.471S16.472 8.52 16.472 17.69s7.471 16.472 16.64 16.472c4.586 0 8.831-1.868 12.057-5.264-1.698-2.887-2.717-6.283-3.056-9.68 1.189 9 9.34 15.453 18.51 14.265 7.47-1.02 13.414-6.963 14.433-14.434-.17 3.566-1.358 6.792-3.057 9.849 3.057 3.226 7.472 5.094 12.057 5.094 4.924 0 8.83 3.906 8.83 8.83s-4.075 9-9 9-8.83-3.906-8.83-8.83h-7.641c0 9.17 7.301 16.641 16.471 16.641s16.642-7.302 16.642-16.471c0-4.925-2.208-9.68-5.944-12.906a5.168 5.168 0 0 0 1.359-1.358c-1.868-3.057-2.887-6.623-3.057-10.359.17 3.566 1.698 7.132 4.076 9.85 6.113 6.792 16.471 7.47 23.263 1.358 3.566-3.057 5.434-7.472 5.604-12.227zm-85.075 8.83c-4.925 0-8.83-3.905-8.83-8.83s3.905-8.83 8.83-8.83c4.415 0 8.32 3.396 8.83 7.812v1.018c0 4.925-4.075 8.83-8.83 8.83zm50.773 0c-4.245 0-7.98-3.056-8.66-7.301 0-.17 0-.51-.17-.68v-.849c0-4.924 3.906-8.83 8.83-9 4.925 0 8.83 3.906 9 8.83s-4.075 9-9 9zm16.472-8.83v-1.189c.51-4.414 4.415-7.64 8.83-7.64 1.019 0 1.868.17 2.887.509l-11.208 11.207c-.34-.849-.51-1.868-.51-2.887z"/>
    </g>
</svg>
