<svg viewBox="0 0 209.73 63.469" xmlns="http://www.w3.org/2000/svg">
    <path d="M117.689 5c-.24 0-.485.073-.688.125L86.69 14.5c-.917.259-1.448.885-1.406 1.906v6.969c-.042.983.498 1.59 1.406 1.843l30.312 9.407c.221.047.443.093.688.093.371 0 .702-.113.937-.343.245-.226.38-.554.375-.907v-4.593c-.009-.8-.615-1.515-1.406-1.75l-4.75-1.344V14.343l4.75-1.281c.8-.23 1.397-.949 1.406-1.782v-5a1.285 1.285 0 0 0-.375-.937c-.24-.23-.57-.348-.937-.344zm24.406.062c-4.93 0-9.88.922-14.062 2.563-.89.349-2.094.925-2.094 2.469v5.187c0 1.631 1.074 2.15 2.406 1.781 3.322-.924 7.891-2.345 12.562-2.219 6.937.189 7.844 4.356 7.844 6.594 0 3.863-1.184 5.693-4.344 7.906-3.16 2.214-7.839 5.346-11.844 8.688-5.276 4.401-7.469 8.442-7.469 13.344v5.094c0 1.105.904 2 2 2h29.72c1.1 0 1.756-.92 1.968-2l1.125-5.72c.212-1.08-.873-2-1.969-2h-20.594c.051-1.708 1.653-4.264 6.906-7.843 6.064-4.132 8.146-5.616 11.22-8.562 2.473-2.373 4.5-8.135 4.5-11.688 0-4.742-1.96-8.677-4.594-11.094-2.773-2.543-7.36-4.5-13.281-4.5zm-137.09.969v52.188H77.35V6.03H5.005zm101.41 10.156v7.781L92.82 20l13.594-3.812zm6.812 20.156c-.833.005-1.5.662-1.5 1.5v12.656H86.821c-.837.005-1.53.657-1.53 1.5v4.719c0 .837.688 1.5 1.53 1.5h30.688c.833 0 1.495-.658 1.5-1.5V37.843a1.497 1.497 0 0 0-1.5-1.5h-4.281z" fill="#fc0"/>
    <path d="M48.65 18.897c-6.386 0-9.467 2.776-9.467 7.19 0 3.989 2.145 6.343 5.901 7.31l2.876.748c2.363.62 3.355 1.315 3.355 2.786 0 2.17-1.47 2.547-5.033 2.547-1.626 0-4.424-.223-5.392-.3-1.006-.077-1.285.049-1.438.899l-.48 2.966c-.075.582.214.821.72.898 1.119.156 3.93.36 6.68.36 6.155 0 10.635-2.03 10.635-7.759 0-3.367-1.45-5.873-6.56-7.19l-2.876-.748c-1.938-.5-2.816-1.116-2.816-2.547 0-2.013 1.842-2.396 3.624-2.396 2.398 0 4.846.19 5.812.27 1.007.077 1.285-.048 1.438-.9l.45-2.905c.076-.58-.19-.792-.69-.869-1.124-.156-3.604-.36-6.74-.36zm-33.185.27c-.771 0-1.018.272-1.018 1.048v22.797c0 .773.247 1.049 1.018 1.049h3.565c.774 0 .909-.28.989-1.049V23.78h3.684c2.324 0 3.445.828 3.445 2.996 0 1.974-.876 2.608-1.767 2.995-1.123.463-1.51-.032-1.858 1.438l-.389 1.618c-.116.463-.15.685-.15.839 0 .389.089.705.36 1.168l4.613 8.298c.39.658.719.929 1.648.929h4.194c.54 0 1.218-.35.599-1.318l-5.662-9.377c1.895-1.2 4.014-2.896 4.014-6.65 0-4.84-2.694-7.55-8.657-7.55zm47.857 0c-.775 0-1.019.272-1.019 1.048v22.797c0 .773.244 1.049 1.019 1.049h3.564c.773 0 .989-.276.989-1.049V20.215c0-.776-.216-1.048-.989-1.048z" fill="#fff"/>
    <path d="M167.858 18.429a.475.475 0 0 0-.482.47v24.333c0 .264.218.482.482.482h6.182c.264 0 .47-.218.47-.482v-8.087c0-.263.219-.482.482-.482h6.183c.264 0 .47.219.47.482v8.087c0 .264.219.482.482.482h6.183a.486.486 0 0 0 .482-.482v-17.63c0-.25.156-.377.506-.384l4.543-.015s3.875-.254 3.92 5.992c.045 6.245-2.682 5.978-5.622 6.042-.468.01-.566.126-.567.49l-.015 5.443c-.002.346.225.545.642.544 9.512-.01 12.501-4.513 12.53-12.849.028-8.336-3.861-12.436-11.791-12.436h-10.81a.475.475 0 0 0-.483.47v8.184c0 .263-.206.47-.47.47h-6.183a.475.475 0 0 1-.482-.47v-8.184a.465.465 0 0 0-.47-.47z" fill="#666"/>
</svg>
