<svg xmlns="http://www.w3.org/2000/svg" height="374.81" width="600" viewBox="0 0 158.75 99.168">
    <g fill-opacity=".941">
        <g fill="#06a73a">
            <path d="M157.674 51.46c0 1.02-.834 1.85-1.854 1.85l-24.695-.01v11.06h22.387c1.025 0 1.846.83 1.846 1.86v7.02c0 1.01-.821 1.84-1.846 1.84h-22.387v12.13h25.776c1.02 0 1.849.83 1.849 1.85 0 .09-.004.17-.013.25l-.864 7.07a1.841 1.841 0 0 1-1.832 1.63h-35.777c-1.02 0-1.85-.82-1.85-1.85V44.35c0-1.02.83-1.85 1.85-1.85h35.556c1.02 0 1.854.82 1.854 1.84zM47.123 56.73c-1.292-3.55-3.124-6.38-5.484-8.5-2.368-2.12-5.173-3.6-8.415-4.45-3.245-.85-6.82-1.28-10.722-1.28H1.852c-1.02 0-1.846.83-1.846 1.85v51.81c0 1.03.826 1.85 1.846 1.85h20.65c3.902 0 7.477-.44 10.722-1.32 3.242-.88 6.047-2.37 8.415-4.49 2.36-2.12 4.192-4.96 5.484-8.54 1.293-3.57 1.937-8.05 1.937-13.45 0-5.44-.644-9.93-1.937-13.48M34.46 80.07c-.821 2.84-2.2 4.8-4.127 5.9-1.919 1.1-4.56 1.65-7.918 1.65H12.7V52.89h9.715c2.036 0 4.093.3 6.189.91 2.088.6 3.795 2.16 5.117 4.66 1.318 2.5 1.98 6.42 1.98 11.75 0 3.74-.42 7.03-1.241 9.86M106.891 77.84c0 14.39-8.497 21.33-24.12 21.33-15.632 0-24.129-6.94-24.129-21.33l-.009-33.5c0-1.02.826-1.84 1.85-1.84h9.002c1.025 0 1.855.83 1.855 1.85v33.16c0 7.61 3.907 11.27 11.43 11.27 7.517 0 11.432-3.66 11.432-11.27l-.017-33.17c0-1.02.83-1.84 1.85-1.84h9.01c1.02 0 1.846.83 1.846 1.85zM46.071 33.66H0V.01h46.071z"/>
        </g>
        <g fill="#fff">
            <path d="M11.531 16.57l-.242 1.04c-.073.3-.104.45-.104.55 0 .25.078.45.251.74l2.952 5.31c.25.42.445.59 1.037.59h2.705c.351 0 .77-.22.372-.84l-3.613-6c1.21-.77 2.572-1.86 2.572-4.26 0-3.1-1.729-4.84-5.558-4.84H6.375c-.493 0-.64.17-.64.67v14.6c0 .5.147.67.64.67h2.286c.493 0 .644-.17.644-.67V11.81h2.351c1.491 0 2.209.55 2.209 1.94 0 1.26-.575 1.65-1.137 1.9-.717.3-.968-.02-1.197.92M20.981 22.25l-.299 1.92c-.051.36.126.51.45.56.713.1 2.515.23 4.287.23 3.942 0 6.82-1.29 6.82-4.96 0-2.17-.942-3.77-4.218-4.62l-1.837-.47c-1.236-.32-1.806-.71-1.806-1.63 0-1.29 1.184-1.54 2.333-1.54 1.53 0 3.099.13 3.709.17.652.05.821-.02.929-.57l.289-1.86c.052-.37-.116-.52-.445-.57-.717-.1-2.303-.22-4.313-.22-4.093 0-6.072 1.78-6.072 4.61 0 2.56 1.387 4.06 3.794 4.69l1.829.46c1.517.4 2.156.85 2.156 1.79 0 1.39-.942 1.64-3.215 1.64-1.042 0-2.853-.15-3.479-.2-.64-.05-.817.03-.912.57M36.263 24.14c0 .49.152.67.649.67h2.277c.497 0 .653-.18.653-.67V9.53c0-.5-.156-.67-.653-.67h-2.277c-.497 0-.649.17-.649.67z"/>
        </g>
        <g fill="#06a73a">
            <path d="M63.543 20.08a2 2 0 0 1-.358-1.15c0-.17.021-.33.056-.48l.67-2.88a.67.67 0 0 1 .66-.54c.952-.04 1.825-.13 2.611-.28.93-.16 1.712-.44 2.343-.82.64-.38 1.12-.9 1.456-1.55.333-.65.497-1.48.497-2.47 0-1.67-.41-2.88-1.244-3.66-.839-.77-2.334-1.15-4.504-1.15h-5.147v27.54c0 .56-.45 1.01-1.011 1.01h-4.076c-.562 0-1.016-.45-1.016-1.01V1.01c0-.56.454-1.01 1.016-1.01H66.88c3.803 0 6.556.88 8.268 2.63 1.724 1.75 2.584 4.11 2.584 7.07 0 1.54-.238 2.83-.704 3.88-.472 1.05-1.085 1.92-1.859 2.63a8.796 8.796 0 0 1-2.606 1.64c-.972.4-1.975.7-3.008.9l9.793 13.55c.113.14.182.32.182.51 0 .47-.385.84-.843.84h-4.56c-.7 0-1.313-.35-1.676-.89zM104.606 32.78a1 1 0 0 1-.995.87H84.695a1.01 1.01 0 0 1-1.012-1.01V1.01c0-.55.454-1 1.012-1h18.683c.558 0 1.007.45 1.007 1.01v3.33c0 .55-.454 1.01-1.007 1.01l-13.545-.01v8.35l12.145.01c.553 0 1.011.45 1.011 1.01v3.23c0 .56-.458 1.01-1.011 1.01l-12.145-.01v9.4h14.219c.554 0 1.003.45 1.003 1.01 0 .05 0 .09-.009.14zM157.894 32.78c-.069.49-.488.87-1.003.87h-18.912c-.562 0-1.012-.45-1.012-1.01V1.01c0-.55.45-1 1.012-1h18.679c.557 0 1.007.45 1.007 1.01v3.33c0 .55-.45 1.01-1.007 1.01l-13.54-.01v8.35l12.135.01c.562 0 1.016.45 1.016 1.01v3.23c0 .56-.454 1.01-1.016 1.01l-12.135-.01v9.4h14.21c.557 0 1.007.45 1.007 1.01 0 .05 0 .09-.009.14zM123.785 32.64c0 .56-.453 1.01-1.011 1.01h-4.183c-.558 0-1.007-.45-1.007-1.01l.004-27.28-8.994-.01c-.557 0-1.007-.45-1.007-1V1.01c0-.55.45-1 1.007-1h24.185c.553 0 1.016.45 1.016 1v3.34c0 .55-.463 1-1.016 1l-8.994.01z"/>
        </g>
    </g>
</svg>
