<svg version="1.1" viewBox="0 0 272.93 130.61" xmlns="http://www.w3.org/2000/svg">
 <g transform="translate(-272.13 -233.52)" stroke-width="0">
  <path d="m431.45 363.49c-0.47841-0.11605-2.2398-0.52726-3.9143-0.91387-3.7118-0.85705-9.0472-3.0553-12.092-4.982-3.3933-2.1472-6.3921-4.4227-6.3921-4.8503 0-0.20893 1.1371-1.586 2.5268-3.0603 5.6393-5.9824 7.3484-10.542 10.045-19.525 0.11514-0.38373 1.4888 0.26511 2.468 1.5221 1.4032 1.801 2.6399 2.8066 5.8893 4.7887 1.7784 1.0847 6.1036 2.0536 9.1428 2.0479 3.1341-7e-3 6.282-0.74184 8.9014-2.0811 2.5729-1.3155 6.1054-5.1087 7.5754-8.1344 1.1733-2.415 1.2848-3.0797 1.4955-8.9159 0.25889-7.1703 0.85544-10.44 2.8466-15.603 2.5925-6.7226 8.9092-14.679 15.802-19.903 3.626-2.7483 9.7369-5.5914 14.446-6.721 5.3731-1.2889 15.826-1.4093 20.817-0.2397 7.759 1.8183 14.959 5.8373 20.732 11.572 6.0847 6.0448 9.8961 12.629 11.906 20.568 2.6524 10.477 1.5432 20.761-3.2717 30.334-2.2662 4.5054-4.1007 6.9409-8.78 11.656-5.406 5.448-9.0106 7.7803-15.769 10.203-5.7174 2.0498-9.7876 2.6261-16.744 2.3709-6.7714-0.24842-10.949-1.1783-16.338-3.6365-2.7256-1.2434-8.4529-4.7556-8.4529-5.1837 0-0.13876 1.1094-1.5591 2.4653-3.156 4.7536-5.5986 7.1009-10.009 9.9602-18.712 0.13739-0.41811 0.62359-0.2078 1.6948 0.73264 3.5792 3.1426 8.1058 4.8553 12.832 4.8553 7.6239 0 13.679-3.811 16.765-10.551 4.3347-9.4682 0.41364-19.878-9.2356-24.519-3.193-1.5358-3.2998-1.5547-7.8945-1.3974-4.2047 0.14398-4.9372 0.29702-7.5315 1.5742-5.7319 2.8218-9.7708 8.5967-10.26 14.67 1.2501 14.337-6.0752 27.357-15.561 34.8-3.6954 3.3074-6.8281 5.2865-11.343 7.1661-5.8623 2.4405-9.2772 3.1026-16.904 3.2773-3.8273 0.0877-7.3502 0.0645-7.8286-0.0516z"/>
  <path d="m368.45 363.88c-4.808-0.55878-9.7809-1.9692-13.565-3.8474-2.5895-1.2851-5.491-2.9676-5.491-3.184 0-0.0947 0.97051-1.2404 2.1567-2.5462 5.3304-5.8679 9.0365-11.854 10.919-17.636l0.47677-1.4646 2.1642 1.103c3.0261 1.5422 5.2461 2.0697 8.7815 2.0865 3.5158 0.0159 5.273-0.36874 8.3461-1.8309 4.0883-1.9452 7.7709-6.2856 9.1797-10.819 0.62227-2.0027 0.72949-3.6579 0.538-8.3068-0.0543-1.3164-0.0858-20.735-0.0704-43.153l0.0282-40.76h12.953 12.953l0.0204 43.012c0.0234 50.745 0.0581 46.882-0.4493 50.052-1.2368 7.7256-4.082 14.286-8.6736 19.999-2.4766 3.0814-8.4113 8.7652-10.833 10.375-7.923 5.2672-19.744 8.0467-29.433 6.9207h2e-5z" fill="#d2262f"/>
  <path d="m308.69 363.83c-6.4395-1.0164-13.542-4.2307-19.244-8.7089-9.225-7.2452-14.993-16.961-16.932-28.52-0.45138-2.6909-0.5142-9.187-0.11627-12.015 0.5843-4.152 1.833-8.4767 3.6012-12.472 2.2654-5.1186 5.4704-9.3848 10.796-14.37 5.1943-4.8627 7.7575-6.5141 13.329-8.587 4.1605-1.5481 7.5467-2.3095 12.235-2.7514l1.542-0.14534v12.434 12.434l-1.542 0.14012c-1.923 0.17464-3.1202 0.53123-5.0968 1.5178-6.4278 3.2084-10.436 9.8615-10.441 17.329-5e-3 5.2398 1.6221 9.0619 5.4736 12.87 1.8006 1.7804 4.6758 3.828 6.2007 4.4157 1.7046 0.65702 4.2008 1.032 6.8946 1.0357 4.2752 7e-3 6.9342-0.59286 9.5707-2.1552 3.8298-2.2694 7.4287-6.6913 8.328-10.233 0.19894-0.78311 0.56289-3.5632 0.80896-6.178 0.86727-9.216 2.2597-14.714 5.0552-19.961 4.0989-7.6931 11.851-15.026 20.441-19.337 5.363-2.6913 10.528-3.9698 16.995-4.2068l3.4561-0.12672v12.23 12.23l-2.818 0.37149c-6.0236 0.79405-9.7862 2.6746-13.14 6.5679-1.6214 1.8819-2.7735 3.9773-3.2935 5.9903-0.18123 0.70185-0.61356 4.0516-0.9605 7.4439-0.9748 9.5312-1.686 12.616-4.0335 17.496-6.3406 13.181-15.084 20.392-29.686 24.482-1.2773 0.35775-3.2518 0.74945-4.3877 0.87045-2.7986 0.29807-10.931 0.24152-13.035-0.0906z" fill="#0e660e"/>
 </g>
</svg>
