<svg fill="none" version="1.1" viewBox="0 0 677.38 200" xmlns="http://www.w3.org/2000/svg">
 <g transform="scale(5.6448)" clip-path="url(#a)" stroke-width=".17715">
  <path d="m8.5576 33.436c-0.78935 1.3294-1.9516 1.9942-3.4863 1.9942-1.5127 0-2.368-0.6646-2.5654-1.9942l-2.4658-19.115h5.0313l1.4473 14.685 7.9248-14.686h5.0322zm27.034-4.4345 7.9258-14.686h5.0312l-10.918 19.116c-0.7894 1.3293-1.9517 1.9942-3.4864 1.9942-1.5123-2e-4 -2.367-0.6649-2.5644-1.9942l-2.4668-19.116h5.0312zm-13.172 6.3232h-4.7676l4.6368-21.009h4.7685zm32.951-21.228c0.8111 0 1.4578 0.1693 1.9404 0.5068 0.5917 0.3587 0.9205 0.875 0.9864 1.5498l2.039 19.172h-4.999l-0.4932-4.4961h-6.3799l-2.4658 4.4961h-4.999l10.523-19.172c0.3288-0.6327 0.8771-1.149 1.6446-1.5498 0.6795-0.3375 1.4137-0.5068 2.2031-0.5068zm28.093 21.228h-4.7686l4.6377-21.009h4.7686zm19.501-16.429h-4.6359l-3.6182 16.429h-4.7685l3.6181-16.429h-4.6376l1.0195-4.5801h14.042zm16.015 0h-8.484c-0.307 0-0.587 0.1008-0.839 0.3017-0.252 0.201-0.411 0.4492-0.476 0.7452l-0.56 2.5703h9.57l-1.019 4.5801h-9.57l-0.559 2.5712c-0.066 0.2962-0.016 0.5502 0.147 0.7618 0.165 0.2117 0.401 0.3173 0.708 0.3173h8.485l-1.02 4.5811h-9.767c-1.272 0-2.259-0.432-2.96-1.2969-0.724-0.8435-0.931-1.8881-0.624-3.1328l2.696-12.182c0.263-1.2021 0.921-2.2358 1.974-3.1006 1.096-0.8645 2.279-1.2969 3.551-1.2969h9.767zm-38.878 0.0176h-8.5049c-0.2851 0-0.5592 0.1005-0.8223 0.3007-0.2624 0.2-0.4266 0.4476-0.4922 0.7422l-2.1347 9.7041c-0.066 0.2953-0.0111 0.5481 0.164 0.7588 0.1753 0.2108 0.4052 0.3154 0.6895 0.3155h8.5058l-1.0175 4.581h-9.7872c-1.2479-1e-4 -2.2222-0.432-2.9228-1.2959-0.7224-0.8634-0.9412-1.9058-0.6563-3.1279l2.6934-12.166c0.2624-1.1794 0.9299-2.2126 2.0029-3.0977 1.0945-0.8633 2.2661-1.2949 3.5137-1.2949h9.7871zm-29.269 7.5888h3.5518l-0.5596-5.4424zm67.264-14.54-5.266 1.417-0.635-1.2959 4.681-2.3545zm-117.01-10c0.32107 1e-5 0.74224 0.09998 0.93945 0.38477 0.08608 0.13159 0.17973 0.18245 0.33008 0.18652 0.03975 9.6e-4 0.12612 0.01092 0.22461 0.00488h5.7764c0.30713 1e-4 0.55815 0.10267 0.75878 0.30762 0.21405 0.21509 0.32 0.47902 0.32032 0.77637-5e-5 0.29866-0.10464 0.55627-0.31348 0.76172-0.19098 0.18778-0.42309 0.27929-0.73633 0.27929h-5.4121c-0.25457 0.00119-0.45311 0.07712-0.60742 0.22168-0.14767 0.13603-0.23242 0.35589-0.23242 0.60938v5.1074c0 0.3024-0.10077 0.5569-0.30566 0.7647-0.20168 0.2086-0.45296 0.3125-0.74219 0.3125-0.29451 0-0.55064-0.1097-0.7627-0.3262-0.21161-0.218-0.32021-0.4733-0.32031-0.7627v-6.0488c0-0.06131 0.0023698-0.11707 0.0068359-0.16992v-1.2822c2.714e-5 -0.2917 0.040242-0.53289 0.24219-0.75976 0.2143-0.2375 0.5103-0.36719 0.83399-0.36719zm22.486-1.9629c0.2916 4.3488e-5 0.543 0.10847 0.7452 0.32227 0.2027 0.21285 0.3027 0.46577 0.3027 0.75195l0.0117 7.667c1e-4 0.2444 0.0747 0.43212 0.2315 0.5791 0.1599 0.14562 0.3646 0.21973 0.6289 0.21973h5.0996c0.2532 0 0.4555-0.0741 0.6123-0.21973 0.1556-0.14698 0.2284-0.33454 0.2285-0.5791l-0.0108-3.2695c0-0.24479-0.0704-0.44028-0.2177-0.58984-0.1514-0.15244-0.343-0.22649-0.5928-0.22657h-3.8574l-0.1582-9.7e-4c-0.2914 0-0.5453-0.10884-0.7598-0.32715-0.2103-0.21831-0.3203-0.4775-0.3203-0.77539 0-0.29946 0.1047-0.5587 0.3115-0.7666 0.2228-0.21645 0.4875-0.24902 0.7393-0.24903l5.0097 0.00586c1.3298 0.01738 1.9776 0.66941 1.9776 1.9971v5.0986c-1e-4 1.3536-0.6809 2.042-2.0254 2.042l-7.0088-0.0049c-1.3459-2e-4 -2.0322-0.6918-2.0322-2.0596v-8.5107c0-0.29677 0.1094-0.5587 0.3232-0.77636 0.2124-0.2172 0.4695-0.32812 0.7617-0.32812zm21.336 2.5352c0.283 0 0.5371 0.11507 0.7578 0.33984 0.2138 0.21569 0.3202 0.47814 0.3203 0.77832 0 0.29577-0.1058 0.55429-0.3115 0.76172-0.2222 0.21941-0.4852 0.24918-0.7383 0.24902l-7.2363 9.8e-4c-0.3224 1.3e-4 -0.4862 0.18083-0.4864 0.53223l-0.0029 1.4385-0.0117 2.0645-0.0039 1.9014c0 0.2799-0.1093 0.534-0.3213 0.7578-0.2076 0.2127-0.4635 0.3202-0.7568 0.3203-0.2796 0-0.5317-0.1076-0.7373-0.3203-0.2071-0.2119-0.3125-0.4699-0.3125-0.7578v-2.8819c0-0.41165 0.0426-3.1439 0.0429-3.1885-0.0083-1.2948 0.6457-1.9667 1.9531-1.9951zm-33.032-2.5225c0.2919 0 0.5442 0.10482 0.7491 0.31836 0.198 0.21 0.3027 0.46589 0.3027 0.75292v1.4473h6.9629c0.2908 0 0.5446 0.10866 0.7598 0.32813 0.2149 0.21606 0.3203 0.47875 0.3203 0.77441 0 0.30158-0.103 0.55734-0.3125 0.76367-0.2335 0.23114-0.5036 0.26172-0.7373 0.26172h-6.9932v4.082c0 0.24413 0.0766 0.43423 0.2305 0.58203 0.1526 0.14448 0.3533 0.2168 0.6152 0.2168h6.1592c0.3094 1e-5 0.5565 0.10217 0.7588 0.31152 0.2197 0.22204 0.3195 0.46224 0.3193 0.75004 0 0.2987-0.1011 0.5543-0.3135 0.7627-0.2069 0.2064-0.4555 0.3076-0.7343 0.3076l-7.1983 0.0068c-1.3239 0-1.9697-0.6641-1.9697-2.0303v-8.5342c0-0.29599 0.1084-0.55805 0.3223-0.77637 0.2095-0.21756 0.4682-0.32508 0.7587-0.3252zm30.316 6.4365c0.3274 3e-5 0.6136 0.10956 0.8447 0.32031 0.2426 0.21828 0.3642 0.49695 0.3643 0.82324v0.00196c0 0.32523-0.1217 0.60349-0.3643 0.82324-0.2311 0.21205-0.5173 0.3193-0.8447 0.31933h-2.0469c-0.3297 0-0.6138-0.10726-0.8477-0.31933-0.2429-0.21976-0.3632-0.49801-0.3632-0.82324v-0.00196c0-0.32629 0.1204-0.60496 0.3632-0.82324 0.2339-0.21077 0.518-0.32031 0.8477-0.32031z" fill="#e64210" stroke-width=".17715"/>
 </g>
 <defs>
  <clipPath id="a">
   <rect width="120" height="35.431" fill="#fff"/>
  </clipPath>
 </defs>
</svg>
