<svg version="1.1" viewBox="0 0 800 519.92" xmlns="http://www.w3.org/2000/svg">
 <defs>
  <style>.cls-1{fill:#005bbb;}</style>
 </defs>
 <g transform="matrix(.8 0 0 .8 7.6894e-7 -139.84)">
  <path class="cls-1" d="m152.92 249.5c-2.01-2.01-4.02-2.01-6.04-2.01h-46.28c-2.01 0-4.02 0-4.02-2.01v-36.22h52.31c2.01 0 4.02 0 6.04-2.01 2.01-2.01 2.01-4.02 2.01-6.04s0-4.02-2.01-6.04c-2.01-2.01-4.02-2.01-6.04-2.01h-52.31v-10.06c0-2.01 0-4.02-2.01-6.04-2.01-2.01-4.02-2.01-6.04-2.01s-4.02 0-6.04 2.01-2.01 4.02-2.01 6.04v66.4c0 10.06 4.02 16.1 14.08 16.1h52.31c2.01 0 4.02 0 6.04-2.01s2.01-4.02 2.01-6.04c0-6.04 0-8.05-2.01-8.05z"/>
  <path class="cls-1" d="m197.18 193.16c-2.01 0-4.02 0-6.04 2.01-2.01 2.01-2.01 4.02-2.01 6.04s0 4.02 2.01 6.04c2.01 2.01 4.02 2.01 6.04 2.01h28.17c2.01 0 4.02 0 4.02 2.01q2.01 2.01 2.01 4.02v26.16c0 2.01 0 4.02-2.01 4.02 0 2.01-2.01 2.01-4.02 2.01h-38.23c-2.01 0-4.02 0-4.02-2.01q-2.01-2.01-2.01-4.02v-58.35c0-2.01 0-4.02-2.01-6.04-2.01-2.01-4.02-2.01-6.04-2.01s-4.02 0-6.04 2.01c-2.01 2.01-2.01 4.02-2.01 6.04v66.4c0 10.06 4.02 16.1 16.1 16.1h52.31c10.06 0 14.08-6.04 14.08-16.1v-38.23c0-10.06-4.02-16.1-14.08-16.1z"/>
  <path class="cls-1" d="m338.03 207.24c2.01-2.01 2.01-4.02 2.01-6.04s0-4.02-2.01-6.04c-2.01-2.01-4.02-2.01-6.04-2.01h-58.35c-10.06 0-14.08 6.04-14.08 16.1v48.29c0 2.01 0 4.02 2.01 6.04 2.01 2.01 4.02 2.01 6.04 2.01s4.02 0 6.04-2.01c2.01-2.01 2.01-4.02 2.01-6.04v-42.25c0-2.01 2.01-4.02 4.02-4.02h54.33c2.01-2.01 4.02-2.01 4.02-4.02z"/>
  <path class="cls-1" d="m66.4 195.17c-2.01-2.01-4.02-2.01-6.04-2.01h-44.26q-2.01 0-2.01-2.01c-2.01-2.01-4.02-2.01-6.04-2.01s-4.02 0-6.04 2.01-2.01 4.02-2.01 6.04v58.35c0 2.01 0 4.02 2.01 6.04 2.01 2.01 4.02 2.01 6.04 2.01s4.02 0 6.04-2.01 2.01-4.02 2.01-6.04v-38.23c0-2.01 0-4.02 2.01-4.02q0-2.01 2.01-2.01h40.24c2.01 0 4.02 0 6.04-2.01s2.01-4.02 2.01-6.04c2.01-4.02 0-6.04-2.01-8.05z"/>
  <path class="cls-1" d="m321.93 231.39c0-2.01 0-4.02-2.01-6.04-2.01-2.01-4.02-2.01-6.04-2.01h-16.1c-2.01 0-4.02 0-6.04 2.01-2.01 2.01-2.01 4.02-2.01 6.04 0 2.01 0 4.02 2.01 6.04 2.01 2.01 4.02 2.01 6.04 2.01h16.1c2.01 0 4.02 0 6.04-2.01 2.01-2.01 2.01-4.02 2.01-6.04z"/>
  <path class="cls-1" d="m22.13 507.04c-14.08-14.08-20.12-32.19-20.12-58.35v-94.57h48.29v92.56c0 28.17 10.06 40.24 32.19 40.24 20.12 0 32.19-14.08 32.19-40.24v-92.56h46.28v94.57c0 26.16-6.04 44.27-20.12 58.35s-34.21 20.12-58.35 20.12-46.28-6.04-60.36-20.12z"/>
  <path class="cls-1" d="m251.51 478.87-14.08 14.08v32.19h-46.28v-179.07h46.28v94.57l46.28-46.28h54.33l-54.33 56.34 58.35 74.45h-54.33z"/>
  <path class="cls-1" d="m420.52 396.38c8.05-2.01 16.1-4.02 26.16-4.02v40.24h-10.06c-10.06 0-18.11 2.01-22.13 8.05s-8.05 14.08-8.05 24.14v60.36h-48.29v-130.78h44.27v16.1c4.02-6.04 10.06-12.07 18.11-14.08z"/>
  <path class="cls-1" d="m569.42 406.44c12.07 10.06 18.11 26.16 18.11 46.28v72.43h-42.25v-16.1c-6.04 12.07-20.12 18.11-38.23 18.11-10.06 0-18.11-2.01-26.16-6.04-8.05-4.02-14.08-8.05-16.1-14.08-4.02-6.04-6.04-12.07-6.04-20.12 0-12.07 4.02-22.13 14.08-28.17s24.14-10.06 44.27-10.06h26.16c0-14.08-10.06-20.12-28.17-20.12-6.04 0-12.07 0-18.11 2.01s-12.07 4.02-16.1 8.05l-16.1-30.18c6.04-4.02 16.1-8.05 26.16-12.07 10.06-2.01 20.12-4.02 32.19-4.02 18.11 0 34.21 4.02 46.28 14.08zm-36.22 86.52c4.02-2.01 6.04-6.04 8.05-12.07v-12.07h-20.12c-14.08 0-20.12 4.02-20.12 14.08 0 4.02 2.01 6.04 4.02 10.06 2.01 2.01 6.04 4.02 12.07 4.02s10.06 0 16.1-4.02z"/>
  <path class="cls-1" d="m619.72 372.23c-4.02-4.02-8.05-10.06-8.05-18.11 0-6.04 2.01-12.07 8.05-18.11s12.07-6.04 20.12-6.04 16.1 2.01 20.12 6.04c4.02 4.02 8.05 10.06 8.05 16.1s-2.01 14.08-8.05 18.11-12.07 6.04-20.12 6.04c-8.05 2.01-16.1 0-20.12-4.02zm-2.01 22.13h46.28v130.78h-46.28z"/>
  <path class="cls-1" d="m816.9 406.44c10.06 10.06 14.08 24.14 14.08 44.27v74.45h-46.28v-66.4c0-18.11-6.04-26.16-22.13-26.16-8.05 0-14.08 2.01-18.11 8.05s-6.04 12.07-6.04 22.13v62.37h-46.28v-130.78h44.27v14.08c4.02-6.04 12.07-10.06 18.11-12.07 6.04-4.02 14.08-4.02 22.13-4.02 18.11 0 30.18 4.02 40.24 14.08z"/>
  <path class="cls-1" d="m997.99 470.82h-96.58c2.01 6.04 6.04 12.07 12.07 16.1 6.04 4.02 12.07 6.04 20.12 6.04 6.04 0 12.07 0 16.1-2.01 4.02-2.01 10.06-4.02 14.08-8.05l24.14 26.16c-12.07 14.08-32.19 20.12-56.34 20.12-16.1 0-28.17-2.01-40.24-8.05s-20.12-14.08-26.16-24.14-10.06-22.13-10.06-34.21 2.01-24.14 10.06-34.21c6.04-10.06 14.08-18.11 26.16-24.14 12.07-6.04 22.13-8.05 36.22-8.05s26.16 2.01 36.22 8.05 18.11 14.08 26.16 22.13c6.04 10.06 10.06 22.13 10.06 36.22-2.01-4.02-2.01 0-2.01 8.05zm-86.52-40.24c-4.02 4.02-8.05 10.06-10.06 16.1h54.33c-2.01-6.04-4.02-12.07-10.06-16.1-4.02-4.02-10.06-6.04-18.11-6.04-6.04 0-12.07 2.01-16.1 6.04z"/>
 </g>
 <g transform="matrix(.8 0 0 .8 7.6894e-7 -139.84)" fill="#ffd500">
  <path d="m177.06 607.65-76.46 140.85c-6.04 12.07-14.08 20.12-22.13 26.16s-16.1 8.05-26.16 8.05c-8.05 0-16.1-2.01-22.13-4.02l6.04-20.12c6.04 2.01 12.07 4.02 16.1 4.02 10.06 0 20.12-6.04 26.16-18.11l4.02-6.04-68.42-130.79h26.16l56.34 108.65 56.34-108.65z"/>
  <path d="m245.47 724.35h-28.17v54.33h-24.14v-130.78h24.14v54.33h28.17l42.25-54.33h26.16l-50.3 62.37 52.31 68.41h-28.17z"/>
  <path d="m444.67 657.95c10.06 6.04 18.11 14.08 24.14 22.13 6.04 10.06 8.05 22.13 8.05 34.21 0 14.08-2.01 24.14-8.05 34.21-6.04 10.06-14.08 18.11-24.14 24.14s-20.12 8.05-34.21 8.05c-10.06 0-18.11-2.01-26.16-6.04-8.05-4.02-14.08-10.06-20.12-16.1v66.4h-24.14v-177.06h22.13v20.12c4.02-6.04 12.07-12.07 20.12-16.1 8.05-4.02 16.1-6.04 26.16-6.04 16.1 4.02 28.17 6.04 36.22 12.07zm-12.07 96.58c6.04-4.02 12.07-10.06 16.1-16.1 4.02-6.04 6.04-14.08 6.04-24.14s-2.01-16.1-6.04-24.14c-4.02-6.04-10.06-12.07-16.1-16.1s-14.08-6.04-22.13-6.04-16.1 2.01-22.13 6.04c-6.04 4.02-12.07 10.06-16.1 16.1-4.02 6.04-6.04 14.08-6.04 24.14s2.01 16.1 6.04 24.14c4.02 6.04 10.06 12.07 16.1 16.1 6.04 4.02 14.08 6.04 22.13 6.04s16.1-2.01 22.13-6.04z"/>
  <path d="m599.6 661.97c10.06 10.06 14.08 22.13 14.08 40.24v78.47h-22.13v-18.11c-4.02 6.04-10.06 10.06-16.1 14.08s-16.1 4.02-26.16 4.02c-14.08 0-26.16-4.02-34.21-10.06-10.06-6.04-14.08-16.1-14.08-28.17s4.02-20.12 12.07-28.17c8.05-6.04 22.13-10.06 40.24-10.06h36.22v-4.02c0-10.06-2.01-18.11-10.06-22.13-6.04-6.04-14.08-8.05-26.16-8.05-8.05 0-16.1 2.01-22.13 4.02-8.05 2.01-14.08 6.04-18.11 10.06l-10.06-18.11c6.04-6.04 14.08-10.06 24.14-12.07s20.12-4.02 30.18-4.02c18.11 0 32.19 4.02 42.25 12.07zm-24.14 94.57c6.04-4.02 12.07-10.06 14.08-16.1v-18.11h-36.22c-20.12 0-30.18 6.04-30.18 20.12 0 6.04 2.01 12.07 8.05 16.1 4.02 4.02 12.07 6.04 20.12 6.04 10.06 0 18.11-4.02 24.14-8.05z"/>
  <path d="m641.85 623.74c-2.01-2.01-4.02-6.04-4.02-8.05 0-4.02 2.01-6.04 4.02-10.06 2.01-2.01 4.02-4.02 10.06-4.02 4.02 0 6.04 2.01 8.05 4.02s4.02 6.04 4.02 10.06-2.01 6.04-4.02 10.06c-2.01 2.01-4.02 4.02-8.05 4.02-4.02-4.02-8.05-4.02-10.06-6.04zm14.08 26.16h24.14v130.78h-24.14zm20.12-26.16c-2.01-2.01-4.02-6.04-4.02-8.05 0-4.02 2.01-6.04 4.02-10.06 2.01-2.01 4.02-4.02 8.05-4.02s6.04 2.01 10.06 4.02c2.01 2.01 4.02 6.04 4.02 10.06s-2.01 6.04-4.02 10.06c-2.01 2.01-4.02 4.02-10.06 4.02-2.01-4.02-4.02-4.02-8.05-6.04z"/>
  <path d="m726.36 649.9h24.14v54.33h74.45v-54.33h24.14v130.78h-24.14v-54.33h-74.45v54.33h-24.14z"/>
  <path d="m981.89 661.97c10.06 10.06 14.08 22.13 14.08 40.24v78.47h-22.13v-18.11c-4.02 6.04-10.06 10.06-16.1 14.08s-16.1 4.02-26.16 4.02c-14.08 0-26.16-4.02-34.21-10.06-10.06-6.04-14.08-16.1-14.08-28.17s4.02-20.12 12.07-28.17c8.05-6.04 22.13-10.06 40.24-10.06h36.22v-4.02c0-10.06-2.01-18.11-10.06-22.13-6.04-6.04-14.08-8.05-26.16-8.05-8.05 0-16.1 2.01-22.13 4.02-8.05 2.01-14.08 6.04-18.11 10.06l-10.06-18.11c6.04-6.04 14.08-10.06 24.14-12.07s20.12-4.02 30.18-4.02c20.12 0 32.19 4.02 42.25 12.07zm-22.13 94.57c6.04-4.02 12.07-10.06 14.08-16.1v-18.11h-36.22c-20.12 0-30.18 6.04-30.18 20.12 0 6.04 2.01 12.07 8.05 16.1 4.02 4.02 12.07 6.04 20.12 6.04 10.06 0 16.1-4.02 24.14-8.05z"/>
 </g>
 <path d="m7.6894e-7 294.77h795.17v9.656h-795.17z" fill="#ffd500" stroke-width=".8"/>
</svg>
