<svg fill="none" version="1.1" viewBox="0 0 600 250" xmlns="http://www.w3.org/2000/svg">
 <path d="m112.23 187.07c4.8656 0 9.3108 0.77625 13.317 2.3312 4.0625 1.5562 7.5838 3.7725 10.56 6.6538 2.9762 2.8238 5.285 6.145 6.945 9.9488 1.7162 3.8012 2.5875 7.9738 2.5888 12.524 0 4.5525-0.87125 8.7612-2.5888 12.622-1.66 3.8038-3.9688 7.125-6.945 9.9488-2.9762 2.8225-6.4975 5.0112-10.56 6.5675-4.0065 1.5562-8.4516 2.3312-13.317 2.3312-4.8072 0-9.2424-0.77625-13.306-2.3312-4.063-1.5562-7.6112-3.745-10.644-6.5675-2.9766-2.8812-5.298-6.23-6.958-10.034-1.6591-3.8038-2.4902-7.985-2.4902-12.538 6.25e-4 -4.5488 0.83212-8.7225 2.4902-12.524 1.66-3.8038 3.9814-7.125 6.958-9.9488 3.0332-2.8812 6.5815-5.0975 10.644-6.6538 4.0634-1.555 8.4985-2.3312 13.306-2.3312zm134.94 0c3.9475 1e-3 7.8088 0.45875 11.585 1.38 3.835 0.86375 7.24 2.165 10.218 3.8938l-5.2375 12.708c-2.8612-1.5562-5.6912-2.7175-8.4962-3.4662-2.8025-0.8075-5.5225-1.2088-8.1538-1.2088-2.3475 0-4.245 0.2625-5.6762 0.78125-1.4288 0.46-2.4588 1.0975-3.0888 1.9038-0.6275 0.805-0.93875 1.725-0.94 2.7588 0 1.3238 0.59625 2.3925 1.795 3.1988 1.2588 0.74875 2.8938 1.385 4.895 1.9038 2.0612 0.46125 4.2975 0.95875 6.7012 1.4775 2.4612 0.51875 4.8962 1.1712 7.3 1.9775 2.4612 0.74875 4.6988 1.7875 6.7012 3.1125 2.0025 1.2675 3.5962 2.9725 4.7975 5.1025 1.26 2.075 1.8925 4.7038 1.8925 7.8738-1e-3 3.5138-1 6.77-3.0025 9.7662-1.9462 2.9375-4.89 5.305-8.8388 7.0912-3.8912 1.7862-8.8188 2.6738-14.77 2.6738-4.9225 0-9.6788-0.60875-14.258-1.8188-4.52-1.2675-8.2112-2.8762-11.072-4.8338l5.5788-12.622c2.69 1.7288 5.7862 3.1688 9.2775 4.3212 3.5475 1.0938 7.0688 1.6475 10.559 1.6475 2.3462 0 4.2338-0.20625 5.665-0.61 1.43-0.46125 2.4588-1.0412 3.0875-1.7338 0.68625-0.7475 1.0375-1.6088 1.0375-2.5875 0-1.3825-0.63375-2.4762-1.8912-3.2838-1.26-0.80625-2.8925-1.4712-4.895-1.99-2.0038-0.51875-4.2412-1.0438-6.7025-1.5625-2.4025-0.5175-4.84-1.1712-7.3-1.9775-2.4012-0.80625-4.6012-1.8462-6.6038-3.1125-2.0025-1.325-3.6362-3.0288-4.895-5.1025-1.2588-2.1325-1.8912-4.8162-1.8912-8.0438 0-3.63 0.9725-6.9138 2.9175-9.8512 2.0025-2.94 4.985-5.3062 8.935-7.0925 3.9488-1.7862 8.8762-2.6738 14.77-2.6738zm-212.02 36.17 20.581-34.961h14.001l0.171 60.51h-15.625l-0.171-32.092-15.466 26.136h-7.5561l-15.369-25.258v31.214h-15.71v-60.51h14.002zm159.92-2.7225v-32.239h16.662v60.51h-14.001l-26.526-32.251v32.251h-16.662v-60.51h13.989zm-82.837-19.275c-2.2871 0-4.4318 0.40375-6.4331 1.2088-1.9462 0.80625-3.6631 1.9962-5.1514 3.5525-1.4309 1.4975-2.5839 3.3112-3.4424 5.4438-0.79988 2.0725-1.1958 4.4325-1.1964 7.08 0 2.5925 0.39562 4.9612 1.1964 7.0925 0.8585 2.1325 2.0115 3.9738 3.4424 5.53 1.4882 1.4988 3.2051 2.66 5.1514 3.4662 2.0012 0.80625 4.1463 1.2088 6.4331 1.2088 2.2896 0 4.4135-0.40125 6.3598-1.2088 2.0031-0.80625 3.7206-1.9688 5.1514-3.4662 1.4861-1.555 2.6299-3.3988 3.4299-5.53 0.85875-2.1325 1.2938-4.4988 1.2938-7.0925 0-2.6475-0.43625-5.0075-1.2938-7.08-0.8-2.13-1.9438-3.9462-3.4299-5.4438-1.4306-1.5562-3.1485-2.7462-5.1514-3.5525-1.9462-0.8075-4.0701-1.2088-6.3598-1.2088zm-79.639-55.225 39.624-73.925h25.159l-54.59 96.228c-3.947 6.6925-9.758 10.035-17.432 10.035-7.5608-1e-3 -11.83-3.3438-12.817-10.035l-12.341-96.228h25.159zm145.36-0.0238 39.636-73.926h25.159l-54.59 96.228c-3.9462 6.6913-9.7588 10.033-17.431 10.034-7.5638 0-11.842-3.3412-12.83-10.034l-12.329-96.228h25.159zm-65.857 31.836h-23.84l23.181-105.76h23.852zm305.22 0h-23.84l23.181-105.76h23.852zm177.59-82.703h-42.432c-1.5312 0.0011-2.9288 0.50362-4.1862 1.5138-1.26 1.0114-2.0538 2.2692-2.38 3.7598l-2.7962 12.927h47.84l-5.0912 23.059h-47.851l-2.795 12.952c-0.33 1.4888-0.0862 2.7688 0.7325 3.8325 0.82125 1.0662 2.0038 1.5988 3.54 1.5988h42.419l-5.09 23.06h-48.84c-6.3538-1e-3 -11.288-2.1812-14.795-6.5312-3.6175-4.245-4.6588-9.5088-3.125-15.771l13.489-61.316c1.3162-6.0515 4.6012-11.26 9.8638-15.613 5.4812-4.3524 11.401-6.5309 17.761-6.5309h48.828zm-318.06-24.17c4.0562 0 7.2925 0.85275 9.705 2.5512 2.9575 1.8042 4.6025 4.4042 4.9312 7.8002l10.194 96.509h-24.989l-2.465-22.632h-31.91l-12.329 22.632h-24.988l52.612-96.509c1.6438-3.1841 4.39-5.7828 8.2275-7.8002 3.3962-1.6982 7.065-2.5509 11.01-2.5512zm237.98 24.17h-23.181l-18.09 82.691h-23.841l18.091-82.691h-23.194l5.1025-23.059h70.204zm-114.32 0.0855h-42.529c-1.4238 3.75e-4 -2.7875 0.508-4.1025 1.5136-1.3112 1.007-2.1375 2.2519-2.465 3.7354l-10.681 48.852c-0.32875 1.485-0.0462 2.76 0.83 3.8212 0.87625 1.0588 2.0225 1.5862 3.4425 1.5862h42.529l-5.09 23.06h-48.926c-6.24 0-11.121-2.17-14.624-6.5188-3.6125-4.3475-4.6962-9.6075-3.2712-15.76l13.464-61.242c1.3138-5.9344 4.6475-11.135 10.01-15.588 5.4725-4.3454 11.329-6.5175 17.566-6.5186h48.938zm-146.35 38.196h17.761l-2.795-27.393zm336.33-73.182-26.331 7.1289-3.1738-6.5185 23.401-11.853zm-585.07-50.354c1.6036 8.5e-4 3.7011 0.51125 4.6875 1.9409 0.43161 0.66296 0.90746 0.9196 1.6602 0.93998 0.19964 5e-3 0.63112 0.05525 1.123 0.02437h28.882c1.5345 0.0013 2.794 0.51988 3.7964 1.5502 1.0678 1.0822 1.5991 2.4121 1.5991 3.9062-6.25e-4 1.5039-0.53062 2.7991-1.5748 3.833-0.9535 0.94462-2.1109 1.4029-3.6742 1.4039h-27.063c-1.2738 0.0057-2.2676 0.39425-3.0396 1.123-0.73596 0.6845-1.1597 1.7896-1.1597 3.064v25.708c0 1.52-0.50438 2.8009-1.5259 3.8452-1.0074 1.05-2.2659 1.5738-3.7109 1.5746-1.4727 0-2.7605-0.545-3.8208-1.6356-1.0587-1.0974-1.5991-2.3871-1.5991-3.8452v-30.444c0-0.308 0.014599-0.58888 0.036621-0.8545v-6.4575c2.9063e-4 -1.4676 0.19914-2.6788 1.2085-3.8208 1.0718-1.1972 2.556-1.8555 4.1748-1.8555zm53.955-9.8022c1.4581 9.5475e-4 2.7118 0.52539 3.7354 1.5991 0.98988 1.0557 1.5135 2.3395 1.5136 3.7842v7.2876h34.814c1.4544 0 2.732 0.54175 3.8086 1.648 1.0746 1.0878 1.5991 2.4178 1.5991 3.9062-1e-3 1.5164-0.51687 2.8069-1.5625 3.8451-1.1665 1.1612-2.5189 1.3059-3.6866 1.3062h-34.973v20.557c7.5e-4 1.226 0.37988 2.1865 1.1475 2.9296 0.76125 0.72588 1.7686 1.0855 3.0761 1.0865h30.798c1.5468 0 2.7841 0.52075 3.7964 1.5746 1.0973 1.1165 1.5978 2.3225 1.5991 3.772 0 1.503-0.50025 2.7961-1.5625 3.8452-1.0342 1.0389-2.2799 1.5381-3.6742 1.5381l-35.999 0.0365c-6.6169-0.001625-9.8389-3.3416-9.8389-10.217v-42.957c0-1.4899 0.54225-2.807 1.6114-3.9062 1.0488-1.0956 2.3429-1.6357 3.7964-1.6357zm58.472-0.073242c1.4589 0 2.712 0.54783 3.7232 1.6235 1.0131 1.0714 1.5136 2.3431 1.5136 3.7842l0.061 38.599c1e-3 1.2276 0.3775 2.1661 1.1598 2.9052 0.79825 0.73288 1.817 1.1101 3.137 1.1109h25.512c1.2638-0.0012 2.27-0.37838 3.0525-1.1109 0.77625-0.73912 1.1462-1.6774 1.1475-2.9052l-0.06125-16.467c-1e-3 -1.2295-0.35-2.2144-1.0862-2.9662-0.7575-0.766-1.7175-1.1352-2.9662-1.1352h-19.288l-0.79375-0.01225c-1.4538-1e-3 -2.725-0.53838-3.7962-1.6358-1.05-1.0985-1.5988-2.4076-1.5988-3.9062 0-1.5076 0.52875-2.8102 1.5625-3.8574 1.1138-1.0898 2.4388-1.2574 3.6988-1.2574l25.036 0.0245c6.65 0.08613 9.8875 3.3748 9.8875 10.058v25.659c0 6.8144-3.3962 10.278-10.119 10.278l-35.047-0.02437c-6.7266-0.0018-10.156-3.4794-10.156-10.364v-42.847c1e-3 -1.4922 0.54363-2.8119 1.6114-3.9062 1.0616-1.0933 2.3476-1.6476 3.8085-1.648zm106.68 12.756c1.4138 0 2.6938 0.578 3.7962 1.709 1.07 1.0859 1.6 2.4189 1.6 3.9306-2e-3 1.4862-0.53625 2.7782-1.5625 3.8208-1.1112 1.105-2.4212 1.2582-3.6875 1.2574l-36.181 0.01225c-1.6125 2.5e-4 -2.4288 0.90525-2.4288 2.6732l-0.025 7.2389-0.0487 10.4-0.0238 9.5702c-1e-3 1.4074-0.5425 2.6838-1.6 3.8086-1.0362 1.07-2.3188 1.61-3.7838 1.6112-1.3975 0-2.6588-0.54012-3.6862-1.6112-1.035-1.0668-1.5625-2.3601-1.5625-3.8086v-14.514c0-2.0896 0.2075-15.928 0.2075-16.052-0.04-6.5144 3.2312-9.8894 9.765-10.034zm-13.586 19.702c1.6375 0 3.08 0.56188 4.2362 1.6235 1.21 1.0989 1.8188 2.5091 1.8188 4.1504 0 1.6351-0.61 3.0329-1.8188 4.1382-1.1562 1.0665-2.5988 1.6112-4.2362 1.6112h-10.23c-1.6475-2.5e-4 -3.0662-0.54412-4.235-1.6112-1.2138-1.1059-1.8188-2.5016-1.8188-4.1382 0-1.6426 0.605-3.0511 1.8188-4.1504 1.1688-1.0612 2.5875-1.6231 4.235-1.6235z" fill="#e64210"/>
</svg>
