<svg fill="none" version="1.1" viewBox="0 0 705.42 200" xmlns="http://www.w3.org/2000/svg">
 <g transform="scale(5.8785)" clip-path="url(#a)" stroke-width=".17011">
  <path d="m32.969 16.787c2.1986 0 3.8589 0.503 4.9804 1.5078 1.1214 1.0049 1.6826 2.5013 1.6826 4.4883v10.978h-6.0039v-1.9003c-0.4397 0.4586-0.83 0.8239-1.1709 1.0966-0.341 0.2733-0.7033 0.4924-1.0879 0.6563-0.385 0.1638-0.8362 0.2722-1.3525 0.3271-0.517 0.0539-1.1713 0.0821-1.9629 0.0821h-4.3203c-0.968 0-1.8426-0.0611-2.623-0.1807-0.7806-0.1196-1.4458-0.3542-1.9952-0.7041-0.55-0.3494-0.9737-0.8354-1.2705-1.458s-0.4452-1.425-0.4453-2.4082v-1.377c1e-4 -1.1352 0.198-2.0257 0.5938-2.6699s0.984-1.1253 1.7646-1.4424c0.7805-0.3165 1.749-0.5126 2.9033-0.5898 1.1547-0.0761 2.5015-0.1143 4.041-0.1143 0.8573 0 1.6269 0.0116 2.3086 0.0332 0.6812 0.0221 1.291 0.0768 1.8301 0.1641 0.5386 0.0873 1.0064 0.2237 1.4024 0.4092 0.3958 0.1859 0.7473 0.4316 1.0556 0.7373v-1.4746c0-0.4147-0.039-0.7648-0.1162-1.0489-0.077-0.2834-0.2256-0.5122-0.4453-0.6875-0.22-0.1745-0.5219-0.2999-0.9062-0.3769-0.385-0.0761-0.8857-0.1152-1.501-0.1152h-3.7276c-0.9234 0-1.5559 0.0771-1.8964 0.2294-0.3414 0.1527-0.5232 0.5245-0.545 1.1143h-6.1347c0-1.1352 0.1428-2.0475 0.4287-2.7354 0.2855-0.6884 0.7367-1.2177 1.3525-1.5898 0.6154-0.3709 1.402-0.6224 2.3584-0.7539 0.9565-0.131 2.1057-0.1963 3.4473-0.1963zm22.236 9.8623c0 1.6384 1.3639 2.458 4.0908 2.458h1.4512c1.3632 0 2.4239-0.3062 3.1826-0.9179 0.7587-0.6108 1.1387-1.5181 1.1387-2.7198v-8.4209h6.333v16.712h-6.333v-2.6875h-0.0664c-0.5723 1.158-1.4134 1.9391-2.5235 2.3428-1.1106 0.4037-2.5123 0.6064-4.2051 0.6065-0.6595 0-1.3475-0.017-2.0615-0.0498-0.7146-0.0324-1.4186-0.12-2.1113-0.2618-0.6925-0.1418-1.3584-0.3661-1.9961-0.6718-0.6378-0.3057-1.1928-0.7317-1.665-1.2784-0.4733-0.5454-0.8532-1.2328-1.1387-2.0634-0.286-0.8298-0.4287-1.8462-0.4287-3.0479v-9.6006h6.333zm55.295-9.8623c1.671 0 3.112 0.104 4.321 0.3115 1.209 0.2076 2.194 0.5785 2.952 1.1133 0.759 0.5353 1.32 1.2728 1.683 2.2119 0.363 0.9398 0.544 2.1307 0.544 3.5723v2.8174h-15.371v1.0156c0 0.896 0.318 1.497 0.956 1.8027 0.638 0.3064 1.617 0.459 2.936 0.459h1.947c0.857 0 1.528-0.0546 2.011-0.164 0.484-0.1094 0.842-0.2512 1.073-0.4258 0.231-0.1747 0.373-0.3773 0.428-0.6065 0.055-0.2296 0.082-0.464 0.082-0.705h5.938v0.7216c0 1.0478-0.22 1.9056-0.659 2.5713-0.44 0.667-1.039 1.186-1.798 1.5576-0.758 0.3714-1.644 0.6278-2.655 0.7696-1.012 0.1418-2.09 0.2128-3.233 0.2129h-4.75c-1.055 0-2.094-0.0769-3.117-0.2295-1.022-0.1531-1.941-0.5019-2.754-1.0479-0.814-0.5461-1.4737-1.344-1.9793-2.3926-0.506-1.0485-0.7588-2.4682-0.7588-4.2597v-1.6055c0-1.5731 0.1865-2.8612 0.5605-3.8662 0.3737-1.0044 0.9072-1.7912 1.5996-2.3594 0.693-0.5676 1.512-0.9555 2.457-1.1631 0.945-0.2075 2.001-0.3115 3.167-0.3115zm-104.29 11.873h9.3486v5.1699h-15.56v-20.123h6.2119zm80.895-11.873c0.6595 0 1.347 0.0164 2.0615 0.0488 0.7145 0.0329 1.4187 0.1209 2.1114 0.2627 0.6928 0.1423 1.3581 0.3662 1.9961 0.6719 0.6372 0.3062 1.1927 0.7318 1.666 1.2774 0.4723 0.5467 0.8517 1.2349 1.1377 2.0644 0.2856 0.8308 0.4287 1.8468 0.4287 3.0479v9.6005h-6.333v-9.6005c0-1.6384-1.3645-2.4581-4.0908-2.4581h-1.4512c-1.3634 1e-4 -2.424 0.306-3.1826 0.917-0.7587 0.6119-1.1387 1.5196-1.1387 2.7207v8.4209h-6.333v-16.712h6.333v2.6875h0.0664c0.5492-1.1574 1.3854-1.9384 2.5068-2.3427 1.1215-0.4043 2.5284-0.6065 4.2217-0.6065zm-60.34 9.8301c-0.6596 0-1.2041 0.0382-1.6328 0.1142-0.4288 0.0772-0.7592 0.1965-0.9903 0.3604-0.2307 0.1638-0.3898 0.3662-0.4775 0.6064-0.0883 0.2404-0.1318 0.5355-0.1318 0.8848 0 0.5461 0.2414 0.9335 0.7255 1.1631 0.4832 0.2291 1.3522 0.3447 2.6055 0.3447h1.8145c1.077 0 1.9344-0.0381 2.5722-0.1152 0.6377-0.0761 1.1166-0.1905 1.4356-0.3438 0.3184-0.1526 0.5221-0.3387 0.6103-0.5576 0.0876-0.2176 0.1318-0.4688 0.1319-0.7529 0-0.3057-0.0384-0.5688-0.1153-0.7871-0.0773-0.2183-0.248-0.393-0.5117-0.5244-0.264-0.131-0.649-0.2292-1.1543-0.295-0.506-0.0652-1.199-0.0976-2.0781-0.0976zm82.478-5.8984c-1.034 0-1.852 0.0277-2.457 0.082-0.605 0.0545-1.067 0.169-1.386 0.3437-0.319 0.1753-0.528 0.4161-0.627 0.7217-0.099 0.3062-0.147 0.7098-0.147 1.2119h9.235c0-0.5023-0.066-0.9058-0.198-1.2119-0.132-0.3057-0.374-0.5464-0.726-0.7217-0.352-0.1745-0.824-0.2893-1.418-0.3437-0.593-0.0545-1.352-0.082-2.276-0.082zm-108.18-18.84c0.30747 0 0.7104 0.09653 0.89941 0.36914 0.08249 0.12616 0.17322 0.17495 0.31738 0.17871 0.03819 9.8e-4 0.12074 0.01065 0.21485 0.00488h5.5322c0.2944 2e-5 0.53534 0.09752 0.72754 0.29395 0.20517 0.20613 0.30649 0.45928 0.30664 0.74414-4e-5 0.28612-0.10074 0.53281-0.30078 0.72949-0.18297 0.17984-0.40504 0.26757-0.70508 0.26758h-5.1836c-0.24386 0.00109-0.43412 0.0734-0.58203 0.21191-0.1415 0.13039-0.22266 0.34106-0.22266 0.58399v4.8926c0 0.2897-0.09668 0.5335-0.29297 0.7324-0.19312 0.1998-0.4338 0.2988-0.71093 0.2988-0.28192 0-0.52738-0.1041-0.73047-0.3115-0.20286-0.209-0.30664-0.4539-0.30664-0.7314v-5.794c9.2e-6 -0.0586 0.002478-0.11158 0.0068359-0.16211v-1.2285c3.81e-5 -0.27936 0.037918-0.51023 0.23145-0.72753 0.20518-0.22769 0.48866-0.35252 0.79883-0.35254zm10.336-1.8672c0.2798 0 0.5215 0.10093 0.7178 0.30566 0.1895 0.20091 0.2891 0.44601 0.2891 0.72071v1.3857h6.6699c0.2788 0 0.5224 0.1049 0.7285 0.31543 0.2058 0.20702 0.3057 0.4582 0.3057 0.74121-1e-4 0.28873-0.0982 0.53378-0.2988 0.73144-0.2238 0.2213-0.4822 0.25098-0.7061 0.25098h-6.6992v3.9092c0 0.23399 0.0733 0.41694 0.2207 0.55859 0.1462 0.13822 0.3389 0.20704 0.5898 0.20704h5.8994c0.2961 0 0.5329 0.09729 0.7266 0.29785 0.2104 0.21263 0.3056 0.44293 0.3057 0.71875 0 0.2861-0.0964 0.5319-0.2998 0.7314-0.1981 0.1974-0.4362 0.294-0.7032 0.294l-6.8955 0.0068c-1.2679 0-1.8866-0.6359-1.8867-1.9443v-8.1758c1e-4 -0.28345 0.1048-0.53416 0.3096-0.74317 0.2007-0.20811 0.4483-0.31144 0.7265-0.31152zm11.203-0.011719c0.2794 6.0632e-5 0.5203 0.10392 0.7138 0.30859 0.1941 0.2037 0.289 0.44568 0.2891 0.71973l0.0117 7.3438c0 0.23421 0.0716 0.41384 0.2217 0.55469 0.153 0.13954 0.3485 0.21086 0.6016 0.21094h4.8857c0.2426 0 0.4358-0.07139 0.5859-0.21094 0.1492-0.14088 0.2198-0.32037 0.2198-0.55469l-0.0108-3.1309c0-0.23448-0.0678-0.42107-0.209-0.56445-0.1451-0.1461-0.3279-0.2177-0.5673-0.21778h-3.6944l-0.1523-9.7e-4c-0.2789-4e-5 -0.5221-0.10439-0.7276-0.31348-0.2012-0.20915-0.3065-0.45707-0.3066-0.74219 0-0.28707 0.1007-0.53511 0.2988-0.73437 0.2135-0.20746 0.4667-0.23926 0.708-0.23926l4.7979 0.00586c1.2739 0.01661 1.8945 0.64133 1.8945 1.9131v4.8838c-1e-4 1.2964-0.6518 1.955-1.9394 1.955l-6.7139-0.0039c-1.289-1e-4 -1.9463-0.6625-1.9463-1.9726v-8.1523c1e-4 -0.28418 0.1049-0.53472 0.3096-0.74317 0.2036-0.20802 0.4496-0.31445 0.7295-0.31445zm20.436 2.4277c0.2711 0 0.5141 0.11081 0.7256 0.32618 0.2048 0.20658 0.3076 0.45748 0.3076 0.74511 0 0.28342-0.1017 0.53073-0.2988 0.7295-0.2126 0.20992-0.4644 0.2384-0.7071 0.23828l-6.9316 9.7e-4c-0.3089 6e-5 -0.4657 0.1733-0.4658 0.50977l-3e-3 1.3779-0.0117 1.9775-0.0029 1.8213c0 0.2683-0.1054 0.5113-0.3086 0.7256-0.1987 0.2036-0.4437 0.3066-0.7246 0.3066-0.2678 0-0.5092-0.1029-0.7061-0.3066-0.1983-0.203-0.2988-0.4499-0.2988-0.7256v-2.7608c0-0.39489 0.0407-3.0081 0.041-3.0537-0.0078-1.2402 0.6186-1.8839 1.8711-1.9111zm-2.6025 3.749c0.3136 0 0.5882 0.1057 0.8095 0.30762 0.2323 0.20906 0.3486 0.47565 0.3487 0.78808v0.00195c0 0.31154-0.1165 0.5776-0.3487 0.78809-0.2213 0.20317-0.4959 0.30664-0.8095 0.30664h-1.96c-0.3159 0-0.5885-0.10362-0.8125-0.30664-0.2325-0.21048-0.3477-0.47659-0.3477-0.78809v-0.00195c1e-4 -0.31239 0.1152-0.57903 0.3477-0.78808 0.2241-0.20192 0.4966-0.30762 0.8125-0.30762z" fill="#c30" stroke-width=".17011"/>
 </g>
 <defs>
  <clipPath id="a">
   <rect width="120" height="34.022" fill="#fff"/>
  </clipPath>
 </defs>
</svg>
