<svg fill="none" version="1.1" viewBox="0 0 664.11 250" xmlns="http://www.w3.org/2000/svg">
 <path d="m25.55 188.98c4.6495 0 8.7137 0.73606 12.187 2.1888 3.5296 1.396 6.2805 3.3496 8.2419 5.8635 2.0164 2.5139 3.026 5.5342 3.0265 9.0526-6.92e-4 3.4063-1.0108 6.3381-3.0265 8.7953-0.94082 1.1525-2.076 2.1584-3.3778 3.0535 2.0962 1.1594 3.8553 2.5499 5.2289 4.2434 2.184 2.5693 3.2826 5.7044 3.2833 9.3902-0.0012 3.7398-1.0756 7.0036-3.2023 9.7956-2.1286 2.7367-5.1208 4.8688-8.985 6.3768-3.8107 1.5095-8.2766 2.2566-13.376 2.2566-5.0979 0-9.5531-0.74851-13.363-2.2566-3.8101-1.5081-6.8132-3.6388-8.9985-6.3768-2.1245-2.7906-3.1875-6.0586-3.1887-9.7956 6.4854e-4 -3.6844 1.0624-6.8223 3.1887-9.3902 1.4187-1.7045 3.2068-3.1075 5.31-4.2697-1.2823-0.88687-2.4088-1.8886-3.3643-3.0272-2.0156-2.4572-3.0258-5.389-3.0265-8.7953 6.226e-4 -3.517 0.97317-6.5401 2.932-9.0526 2.0164-2.5126 4.7956-4.4675 8.323-5.8635 3.5292-1.4527 7.5942-2.1888 12.187-2.1888zm56.991 0c4.9866 0 9.4154 1.2051 13.282 3.607 3.9221 2.4019 7.0138 5.8663 9.2553 10.391 2.2404 4.5242 3.3502 10.032 3.3507 16.51 0 6.4792-1.1116 11.987-3.3507 16.511-2.2412 4.5256-5.3336 7.9873-9.2553 10.391-3.8668 2.4019-8.294 3.607-13.282 3.607-5.0427 0-9.5215-1.2051-13.444-3.607-3.8659-2.4032-6.9193-5.8649-9.1607-10.391-2.2407-4.5256-3.3643-10.031-3.3643-16.511 5.53e-4 -6.4792 1.1233-11.986 3.3643-16.51 2.2414-4.5229 5.2956-7.9887 9.1607-10.391 3.9214-2.4005 8.4025-3.607 13.444-3.607zm73.867 13.66c3.1919 0 6.4128 0.34312 9.66 1.0128 3.3053 0.6143 6.0821 1.5676 8.3235 2.8515l-4.783 10.808c-2.2414-1.2839-4.4883-2.1473-6.7283-2.5942-2.2414-0.50224-4.3748-0.75681-6.392-0.75681-2.6869 0-4.5934 0.30577-5.7141 0.91868-1.0598 0.61292-1.5911 1.367-1.5952 2.2566 0 0.89378 0.48148 1.6049 1.432 2.1086 0.95189 0.44551 2.2178 0.80108 3.784 1.0806 1.6243 0.22275 3.3925 0.47733 5.2963 0.75681 1.9038 0.22275 3.8117 0.59216 5.7155 1.0944 1.9591 0.50224 3.7287 1.2521 5.2963 2.2566 1.6229 0.94913 2.9124 2.2704 3.8643 3.9445 0.9505 1.6188 1.432 3.7162 1.432 6.2828 0 2.792-0.87302 5.306-2.608 7.539-1.6796 2.2344-4.206 4.0234-7.5653 5.3641-3.3067 1.342-7.4325 2.0131-12.364 2.0131-3.8657 0-7.6525-0.44274-11.349-1.3365-3.6402-0.89378-6.5826-2.0103-8.8231-3.351l4.7965-10.904c2.1283 1.2839 4.616 2.3258 7.4716 3.1075 2.8584 0.72636 5.6712 1.0806 8.4176 1.0806 2.6869 0 4.5312-0.27948 5.5398-0.83706 1.064-0.55896 1.5939-1.3075 1.5939-2.2566-1e-3 -0.89239-0.505-1.5413-1.5122-1.9328-0.95189-0.44412-2.2441-0.77618-3.8643-0.99893-1.5676-0.22275-3.3012-0.47871-5.2022-0.75681-1.9052-0.27948-3.8491-0.64751-5.8096-1.0944-1.9038-0.50361-3.6734-1.2258-5.2976-2.175-1.5663-1.0058-2.8308-2.3521-3.7825-4.0262-0.94954-1.6755-1.4184-3.7993-1.4187-6.3644 7e-4 -2.9041 0.83263-5.4803 2.5131-7.7147 1.7376-2.2898 4.2612-4.0801 7.5666-5.3641 3.3053-1.3407 7.3426-2.0131 12.106-2.0131zm-130.86 21.131c-2.6869 1e-3 -4.8479 0.67379-6.4719 2.0131-1.5637 1.2839-2.3493 3.0411-2.3511 5.27 0 2.2884 0.78586 4.0787 2.3511 5.3641 1.6242 1.2839 3.784 1.9314 6.4719 1.9314 2.6899 0 4.8217-0.64612 6.3908-1.9314 1.6236-1.2853 2.4456-3.0743 2.4456-5.3641-0.0018-2.2303-0.8235-3.986-2.4456-5.27-1.569-1.3393-3.7019-2.0131-6.3908-2.0131zm56.991-21.213c-1.7898 0-3.3841 0.56173-4.783 1.6755-1.344 1.1165-2.443 2.9082-3.2833 5.3641-0.7842 2.4572-1.1751 5.7584-1.1755 9.8897 0 4.0774 0.39182 7.3772 1.1755 9.8911 0.84024 2.4572 1.9391 4.2462 3.2833 5.3641 1.3997 1.1152 2.9918 1.6741 4.783 1.6755 1.7932 0 3.3705-0.55758 4.7155-1.6755 1.398-1.1179 2.4864-2.9096 3.2698-5.3641 0.78379-2.5139 1.1755-5.8137 1.1755-9.8911-2.77e-4 -4.1313-0.39127-7.4325-1.1755-9.8897-0.78393-2.4544-1.8711-4.2475-3.2698-5.3641-1.3445-1.1165-2.9229-1.6755-4.7155-1.6755zm44.682 12.066h-11.349l-1.0133-24.47h13.457zm-101.67-13.985c-2.0694 1e-3 -3.7522 0.52299-5.0398 1.5814-1.2882 1.0612-1.9313 2.6108-1.9321 4.6211 0.0014 1.8955 0.64571 3.4105 1.9321 4.5256 1.2877 1.0598 2.9698 1.58 5.0398 1.5814 2.1285 0 3.8456-0.52022 5.1343-1.5814 1.2864-1.1152 1.9308-2.6302 1.9321-4.5256-6.92e-4 -2.0103-0.66937-3.5599-2.0132-4.6211-1.2886-1.0612-2.9806-1.5814-5.0532-1.5814zm40.845-112.33-16.092 0.013421c-15.16 0.0303-27.04 15.96-27.009 30.157 0.03182 14.177 11.984 30.061 27.185 30.022l16.079-0.0401 0.02698 20.037-17.24 0.054c-25.009 0.05943-49.191-19.658-49.276-50.019-0.092573-30.375 23.99-50.199 49.019-50.249l17.281-0.05396zm441.32-0.01356-16.065 0.02698c-15.207 0.03404-27.061 15.98-27.05 30.157 0.054 14.177 11.991 30.053 27.17 30.022l16.092-0.0401 0.0415 20.037-17.268 0.054c-25.019 0.04975-49.179-19.665-49.262-50.019-0.07333-30.385 24.014-50.189 49.032-50.249l17.241-0.05396zm-84.973 80.19-22.037 0.0539-0.22967-100.27 22.01-0.06766zm156.29-102.17c18.922-0.03957 34.023 13.123 34.076 30.9 0.0304 13.768-5.8995 20.668-16.024 29.725l-24.118 21.712 43.56-0.0941 0.0415 19.795-57.1 0.13421c-8.6514 0.0291-15.966-2.8211-15.997-11.998-0.0208-6.8791 1.9273-9.3252 14.551-21.401l21.578-20.74c6.8306-6.6111 12.048-12.202 12.038-18.227-0.01-4.3047-4.5035-10.032-12.566-10.012-8.0468 0.0119-12.494 5.495-12.484 10.633 0.01 6.4632 3.7619 11.899 8.8354 12.903l-15.186 14.66c-10.003-5.2993-15.102-16.191-15.133-26.928-0.0291-17.794 14.998-31.021 33.928-31.063zm85.081 102.1-21.456 0.0415-0.202-81.177-16.106 0.04054-0.054-19.227 37.575-0.08108zm-479.13-102.36c27.078-0.08703 37.561 19.109 37.616 36.575l0.14804 65.638-23.348 0.17571 0.054-36.535-22.645 0.0541-0.054-19.483 22.631-0.0541-0.0125-13.444c-0.0318-7.466-3.6263-13.458-14.35-13.43-10.705 0.01978-14.136 6.0485-14.105 13.484l0.054 69.3-23.104-0.0678-0.17571-65.462c-0.0401-17.459 10.186-36.672 37.291-36.751zm113.4 20.672-29.806 0.067518c-5.353 0.01038-7.7382 3.4506-7.7286 7.607 0.0553 9.0183 41.458 22.682 41.521 43.587 0.0304 14.038-6.4737 30.393-29.401 30.455l-34.657-0.18955-0.0678-19.619 34.076-0.25596c3.8629-3e-3 6.8265-2.8944 6.8376-7.1876-0.0567-10.597-41.468-21.108-41.521-46.317-0.0526-18.62 14.068-26.666 25.846-26.698l34.833-0.09464zm-193.31 48.735c0.0208 9.1772 3.9191 11.758 11.349 11.728l16.538-0.054 0.027 21.225-21.875 0.054c-16.677 0.0498-28.007-7.9735-28.049-30.022l-0.20271-70.205 22.051-0.040539zm272.5-48.843-29.792 0.06752c-5.3585 0.03196-7.7383 3.4665-7.7286 7.6204 0.0208 9.0273 41.456 22.689 41.521 43.588 0.0526 14.028-6.4861 30.382-29.428 30.441l-34.845-0.0816-0.054-19.889 34.278-0.0941c3.8518 7e-3 6.8362-2.8584 6.8376-7.1613-0.0415-10.608-41.454-21.099-41.521-46.33-0.0623-18.599 14.057-26.661 25.848-26.685l34.805-0.10806zm-372.41-77.271c1.5287 0 3.5311 0.48336 4.4723 1.8376 0.4109 0.62717 0.86387 0.87289 1.5808 0.8917 0.18992 0.0048 0.59955 0.05603 1.0674 0.02698h27.523c1.4637 0 2.6643 0.48328 3.6211 1.4592 1.0211 1.0248 1.5258 2.2836 1.5268 3.7021 0 1.4235-0.5032 2.6551-1.4998 3.6346-0.90817 0.89143-2.0109 1.3232-3.4993 1.3241h-25.793c-1.2113 0.0047-2.1563 0.3672-2.8915 1.0539-0.70408 0.64751-1.1072 1.6972-1.1079 2.9049v24.347c-1.24e-4 1.439-0.48552 2.6455-1.4592 3.6345-0.96162 0.99478-2.1608 1.4998-3.54 1.4998-1.4018 0-2.6242-0.52271-3.6345-1.5537-1.0098-1.0391-1.5268-2.2681-1.5268-3.648v-28.82c3.0472e-5 -0.29152 0.0053257-0.55882 0.027023-0.81077v-6.107c5.368e-5 -1.3902 0.19954-2.5397 1.162-3.6211 1.021-1.1314 2.4297-1.7565 3.9723-1.7565zm208.85 2.7293c1.3462 0.0012 2.5568 0.55135 3.6069 1.6214 1.0197 1.0277 1.5274 2.2845 1.5274 3.7156-1e-3 1.4078-0.50776 2.6332-1.4873 3.6211-1.057 1.0442-2.3078 1.1876-3.5129 1.189l-34.494 0.01356c-1.5344 0.0021-2.3105 0.86639-2.3105 2.5401l-0.0138 6.8503-0.0678 9.8363-0.0138 9.0661c-1e-3 1.3326-0.51607 2.5424-1.5261 3.6075-0.98924 1.0137-2.2109 1.5265-3.6069 1.5268-1.3324 0-2.5347-0.51427-3.5142-1.5268-0.9851-1.0085-1.4846-2.2372-1.486-3.6075v-13.741c0-1.9706 0.20338-15.082 0.20338-15.2-0.0387-6.1685 3.0784-9.3634 9.3086-9.4984zm-157.42-12.012c1.3923 0 2.5913 0.4952 3.5671 1.5133 0.94276 0.9994 1.4447 2.2143 1.4457 3.5805v6.9044h33.184c1.387 2.76e-4 2.5954 0.52008 3.6209 1.5673 1.0225 1.0291 1.5269 2.2812 1.5269 3.6886-9.69e-4 1.4345-0.49103 2.6526-1.4864 3.6345-1.1116 1.1003-2.3998 1.2426-3.5129 1.2431h-33.332v19.456c0 1.1637 0.36042 2.0787 1.0944 2.7833 0.72706 0.68611 1.6846 1.0267 2.9319 1.0269h29.36c1.4706 0.0014 2.6445 0.48923 3.6076 1.4862 1.0451 1.0572 1.5247 2.1983 1.5268 3.567 0 1.4235-0.48715 2.6408-1.4998 3.6346-0.98606 0.98413-2.1705 1.4727-3.4994 1.4727l-34.305 0.02712c-6.3072-0.0015-9.3769-3.1643-9.3769-9.6741v-40.669c0-1.4109 0.50818-2.6613 1.5268-3.7021 0.99921-1.0369 2.2368-1.54 3.6211-1.5403zm55.734-0.067559c1.3905 0 2.59 0.52199 3.5535 1.5403 0.96448 1.013 1.4457 2.2178 1.4457 3.5805l0.0541 36.535c1.4e-4 1.1654 0.36084 2.0554 1.108 2.7563 0.7604 0.69358 1.7282 1.0533 2.986 1.0539h24.306c1.2078 0 2.1722-0.35862 2.9193-1.0539 0.74159-0.70077 1.0944-1.5914 1.0944-2.7563l-0.054-15.579c0-1.1666-0.33759-2.0972-1.0404-2.8103-0.72221-0.72665-1.634-1.0806-2.8238-1.081h-18.376l-0.75653-0.01356c-1.3884 0-2.5992-0.51302-3.621-1.5537-1.0016-1.0393-1.5261-2.2701-1.5268-3.6886 0-1.4274 0.50001-2.6707 1.4862-3.6616 1.0591-1.0252 2.3159-1.1886 3.5129-1.189l23.875 0.02698c6.3381 0.08218 9.4304 3.1985 9.4304 9.5255v24.293c0 6.4518-3.2528 9.7282-9.66 9.7282l-33.387-0.01356c-6.4149 0-9.6876-3.3039-9.6876-9.8227v-40.548c0-1.4141 0.52202-2.6649 1.5403-3.7021 1.0117-1.0335 2.2295-1.5667 3.621-1.5673zm88.728 30.738c1.562 0 2.9262 0.52202 4.0275 1.5269 1.1553 1.0409 1.7419 2.376 1.7419 3.9318 0 1.5503-0.58663 2.871-1.7419 3.9182-1.1013 1.0096-2.4669 1.5268-4.0275 1.5268h-9.7541c-1.569-8.3e-4 -2.9262-0.5169-4.04-1.5268-1.1539-1.0467-1.7294-2.3707-1.7294-3.9182 0-1.5539 0.57418-2.8915 1.7294-3.9318 1.1138-1.0042 2.471-1.5259 4.04-1.5269z" fill="#812c81"/>
</svg>
