<svg fill="none" version="1.1" viewBox="0 0 665.15 250" xmlns="http://www.w3.org/2000/svg">
 <path d="m128.41 222.65c0 5.5886 1.1416 9.6239 3.4373 12.084 2.2962 2.4597 5.5187 3.6805 9.662 3.6819 4.1433 0 7.3652-1.225 9.6627-3.6819 2.2962-2.4597 3.4505-6.4949 3.4505-12.084v-32.357h13.451v32.871c-1e-3 8.604-2.3613 15.226-7.0645 19.866-4.7059 4.6394-11.234 6.9688-19.58 6.9688-8.3474 0-14.877-2.3294-19.582-6.9688-4.7016-4.6394-7.0496-11.262-7.0505-19.866v-32.871h13.614zm130.83-33.371c3.6957 0 7.3374 0.44482 10.921 1.3386 3.5835 0.83837 6.7554 2.1257 9.4992 3.8579l-4.2085 10.325c-2.7437-1.5645-5.4833-2.7244-8.2271-3.4505-2.7438-0.78294-5.4334-1.164-8.0663-1.164-2.6301 0-4.7877 0.30625-6.4672 0.92013-1.6795 0.61388-2.8851 1.4301-3.614 2.4361-0.72613 0.94784-1.0947 2.0606-1.0961 3.3424 0 1.5063 0.6125 2.7437 1.8402 3.6944 1.2319 0.89379 2.8685 1.6199 4.8861 2.1784 2.0135 0.55845 4.2251 1.1197 6.6307 1.6781 2.4624 0.55845 4.9 1.2084 7.307 1.9345 2.4652 0.7275 4.7101 1.7072 6.7263 2.9377 2.0148 1.2278 3.6389 2.8477 4.8708 4.857 1.2887 2.0121 1.9345 4.5591 1.9359 7.6326 0 3.2966-0.92705 6.3148-2.7742 9.053-1.8486 2.7382-4.6145 4.9554-8.3088 6.6321-3.6417 1.6767-8.2686 2.5165-13.871 2.5165-4.7059 0-9.2193-0.62358-13.533-1.8541-4.311-1.286-7.7878-2.928-10.419-4.9387l4.6283-10.231c2.5193 1.7876 5.4889 3.2648 8.9033 4.4385 3.4726 1.1183 6.973 1.6781 10.502 1.6781 2.6869 0 4.8431-0.25497 6.4686-0.75799 1.6795-0.55845 2.9225-1.3095 3.7068-2.2601 0.78294-0.94922 1.164-2.0467 1.164-3.2745-1e-3 -1.5603-0.61249-2.7881-1.8402-3.6805-1.2319-0.94923-2.8574-1.7155-4.8722-2.274-2.0162-0.61527-4.2611-1.1751-6.725-1.6781-2.407-0.55844-4.8445-1.2208-7.3083-2.0024-2.407-0.78293-4.6284-1.789-6.6432-3.0181-2.0162-1.2291-3.6653-2.8602-4.954-4.8722-1.2305-2.0121-1.8541-4.584-1.8541-7.713 1e-3 -3.3521 0.90349-6.3965 2.6939-9.1347 1.8472-2.7922 4.5895-5.0108 8.2271-6.6307 3.6971-1.6767 8.3255-2.5165 13.871-2.5165zm-230.5 1.0144c7.3889 0 12.935 1.3899 16.631 4.1821 3.7513 2.7936 5.6275 6.488 5.6295 11.069 0 3.0722-0.75024 5.7605-2.2598 8.0511-1.3796 2.0398-3.2502 3.6292-5.5619 4.832 0.57702 0.18984 1.1453 0.38661 1.6916 0.62219 2.8557 1.1737 5.0761 2.9308 6.6444 5.2782 1.6241 2.346 2.4354 5.2381 2.4358 8.647-0.0011 5.026-1.9957 8.9643-5.9678 11.813-3.9773 2.795-9.8348 4.1946-17.565 4.196h-30.421v-58.691zm49.488 47.621h29.501v11.071h-43.115v-58.691h13.614zm147.75-36.727h-30.935v12.749h27.322v10.569h-27.322v13.586h32.017v10.895h-45.537v-58.691h44.454zm-212.45 37.567h15.874c3.5286 0 6.1914-0.56122 7.9842-1.6781 1.8477-1.1737 2.7742-3.0195 2.7742-5.5346-0.0019-2.4569-0.92747-4.268-2.7742-5.4404-1.7927-1.2292-4.4558-1.8541-7.9842-1.8541h-15.874zm0-24.4h13.532c3.3 0 5.8158-0.56122 7.5513-1.6781 1.7905-1.1723 2.6918-2.9322 2.6929-5.2769-8.32e-4 -2.2906-0.90114-3.9978-2.6929-5.1161-1.7355-1.1709-4.251-1.7585-7.5513-1.7585h-13.532zm52.966-125.91-16.117 0.01358c-15.184 0.03021-27.083 15.985-27.052 30.205 0.03187 14.2 12.003 30.108 27.228 30.07l16.104-0.0416 0.02702 20.07-17.267 0.054c-25.049 0.05966-49.268-19.688-49.353-50.097-0.092718-30.423 24.027-50.277 49.096-50.327l17.308-0.05418zm442.01-0.01358-16.09 0.02716c-15.231 0.03395-27.104 16.005-27.092 30.205 0.0541 14.2 12.01 30.1 27.213 30.07l16.117-0.0416 0.0416 20.07-17.295 0.054c-25.058 0.0499-49.256-19.695-49.339-50.097-0.0735-30.432 24.052-50.268 49.109-50.327l17.268-0.05418zm-85.106 80.315-22.072 0.054-0.23003-100.42 22.044-0.06762zm156.53-102.33c18.951-0.03977 34.076 13.143 34.129 30.949 0.0305 13.79-5.9088 20.701-16.05 29.771l-24.156 21.747 43.628-0.0942 0.0416 19.824-57.189 0.1358c-8.665 0.0291-15.991-2.8255-16.022-12.017-0.0208-6.8898 1.9303-9.3398 14.574-21.434l21.612-20.773c6.8414-6.6216 12.067-12.221 12.057-18.255-0.01-4.3113-4.5106-10.047-12.585-10.028-8.0594 0.01206-12.513 5.5037-12.503 10.65 0.01 6.4732 3.7678 11.918 8.8493 12.923l-15.21 14.683c-10.019-5.3077-15.125-16.216-15.157-26.97-0.0291-17.822 15.021-31.069 33.981-31.111zm85.214 102.26-21.49 0.0416-0.20232-81.304-16.131 0.0406-0.054-19.257 37.634-0.0812zm-479.88-102.52c27.12-0.08716 37.62 19.139 37.675 36.633l0.14827 65.741-23.384 0.17599 0.054-36.592-22.68 0.0541-0.054-19.514 22.666-0.054-0.0125-13.465c-0.0319-7.4777-3.632-13.48-14.373-13.451-10.721 0.01995-14.158 6.058-14.128 13.505l0.054 69.409-23.14-0.0679-0.17599-65.565c-0.0402-17.487 10.202-36.729 37.35-36.808zm113.58 20.705-29.853 0.06776c-5.3614 0.01039-7.7504 3.4559-7.7407 7.6187 0.0554 9.0325 41.523 22.718 41.586 43.656 0.0305 14.06-6.4838 30.44-29.447 30.503l-34.711-0.18985-0.0679-19.65 34.129-0.25636c3.869-3e-3 6.8372-2.9003 6.8483-7.1989-0.0568-10.614-41.533-21.141-41.586-46.39-0.0527-18.649 14.09-26.708 25.887-26.74l34.887-0.09464zm-193.61 48.812c0.0208 9.1916 3.9252 11.776 11.367 11.747l16.564-0.0554 0.027 21.26-21.909 0.054c-16.703 0.0499-28.051-7.986-28.093-30.069l-0.20301-70.315 22.085-0.0406zm272.92-48.92-29.839 0.06762c-5.3669 0.03201-7.7504 3.4719-7.7407 7.6323 0.0208 9.0416 41.521 22.725 41.586 43.656 0.0527 14.05-6.4963 30.429-29.474 30.489l-34.9-0.0818-0.054-19.92 34.331-0.0942c3.8579 7e-3 6.8469-2.8643 6.8483-7.1725-0.0416-10.625-41.519-21.132-41.586-46.403-0.0624-18.628 14.079-26.703 25.888-26.727l34.859-0.10822zm-373-77.393c1.5311 0 3.5367 0.48412 4.4793 1.8404 0.41155 0.62829 0.86522 0.87426 1.5833 0.89324 0.19022 0.0047 0.60049 0.05598 1.0691 0.02702h27.566c1.466 0 2.6685 0.48404 3.6267 1.4615 1.0227 1.0264 1.5282 2.287 1.5292 3.7079 0 1.4258-0.50399 2.6591-1.5021 3.6402-0.90959 0.89283-2.014 1.3255-3.5048 1.3261h-25.834c-1.2132 0.0047-2.1597 0.36777-2.896 1.0556-0.70518 0.64838-1.109 1.6997-1.1097 2.9095v24.386c-1.24e-4 1.4414-0.48628 2.6497-1.4615 3.6403-0.96312 0.9962-2.1642 1.5021-3.5455 1.5021-1.404-1.38e-4 -2.6283-0.52367-3.6402-1.5563-1.0114-1.0407-1.5292-2.2715-1.5292-3.6538v-28.865c3.052e-5 -0.29184 0.005334-0.5597 0.027065-0.8119v-6.1168c5.376e-5 -1.3924 0.19986-2.5435 1.1638-3.6267 1.0226-1.1332 2.4335-1.7592 3.9786-1.7592zm209.17 2.7336c1.3483 0.0011 2.5608 0.55208 3.6126 1.6238 1.0213 1.0295 1.5298 2.2881 1.5298 3.7215-1e-3 1.41-0.50856 2.6373-1.4897 3.6267-1.0587 1.0458-2.3114 1.1895-3.5184 1.1908l-34.548 0.01358c-1.5368 0.0022-2.3142 0.86788-2.3142 2.5441l-0.0138 6.861-0.0679 9.8517-0.0138 9.0803c-1e-3 1.3347-0.51688 2.5466-1.5285 3.6132-0.9908 1.0155-2.2144 1.5289-3.6126 1.5293-1.3345 0-2.5387-0.51522-3.5198-1.5293-0.98664-1.0101-1.4869-2.2406-1.4883-3.6132v-13.763c0-1.9737 0.20371-15.106 0.20371-15.224-0.0388-6.1783 3.0832-9.3782 9.3232-9.5135zm-157.67-12.03c1.3945 0 2.5953 0.49598 3.5727 1.5156 0.94424 1.001 1.447 2.2177 1.448 3.5861v6.9151h33.236c1.3892 2.77e-4 2.5995 0.5209 3.6266 1.5698 1.0241 1.0308 1.5293 2.2848 1.5293 3.6944-9.7e-4 1.4367-0.49179 2.6569-1.4887 3.6403-1.1133 1.1019-2.4036 1.2444-3.5184 1.2449h-33.385v19.487c0 1.1657 0.36098 2.0819 1.0961 2.7877 0.7282 0.68732 1.6873 1.0285 2.9365 1.0285h29.406c1.4729 0.0015 2.6487 0.49013 3.6133 1.4886 1.0468 1.0588 1.5271 2.2019 1.5292 3.5727 0 1.4258-0.48792 2.6449-1.5021 3.6402-0.98761 0.98567-2.1739 1.4751-3.5049 1.4751l-34.359 0.02702c-6.3171-0.0014-9.3917-3.1693-9.3917-9.6893v-40.733c0-1.4131 0.50898-2.6655 1.5292-3.7079 1.0008-1.0385 2.2403-1.5424 3.6267-1.5427zm55.822-0.067651c1.3927 0 2.5941 0.52281 3.5591 1.5427 0.966 1.0146 1.448 2.2212 1.448 3.5861l0.0542 36.592c1.3e-4 1.1672 0.36139 2.0588 1.1097 2.7607 0.7616 0.69467 1.7309 1.055 2.9907 1.0555h24.345c1.2098 0 2.1756-0.35918 2.9239-1.0555 0.74275-0.70173 1.0961-1.5939 1.0961-2.7607l-0.054-15.603c0-1.1683-0.33812-2.1004-1.0421-2.8147-0.72336-0.72779-1.6366-1.0823-2.8283-1.0827h-18.405l-0.75772-0.01344c-1.3906 0-2.6032-0.51397-3.6267-1.5563-1.0031-1.0408-1.5285-2.2736-1.5292-3.6944 0-1.4295 0.5008-2.6749 1.4886-3.6673 1.0608-1.0267 2.3196-1.1903 3.5184-1.1908l23.912 0.02702c6.348 0.08231 9.4451 3.2034 9.4451 9.5405v24.331c0 6.4619-3.2579 9.7435-9.6752 9.7435l-33.439-0.01358c-6.4249 0-9.7028-3.3091-9.7028-9.8381v-40.611c0-1.4163 0.52284-2.6691 1.5427-3.7079 1.0132-1.0351 2.2329-1.5692 3.6265-1.5698zm88.867 30.787c1.5645 0 2.9308 0.5227 4.0339 1.5292 1.1571 1.0426 1.7446 2.3797 1.7446 3.938 0 1.5528-0.58755 2.8755-1.7446 3.9244-1.103 1.0112-2.4708 1.5292-4.0339 1.5292h-9.7694c-1.5714-8.31e-4 -2.9308-0.51771-4.0463-1.5292-1.1557-1.0482-1.7322-2.3744-1.7322-3.9244 0-1.5563 0.57508-2.8959 1.7322-3.938 1.1155-1.0058 2.4749-1.5283 4.0463-1.5292z" fill="#812c81"/>
</svg>
