<svg version="1.0" viewBox="0 0 576 292" xmlns="http://www.w3.org/2000/svg">
 <g transform="translate(-69.46 -253.51)">
  <path d="m71.149 543.82h572.62v-288.62h-572.62v288.62z" fill="#fff"/>
  <path d="m71.149 543.82h572.62v-288.62h-572.62v288.62z" fill="none" stroke="#000" stroke-width="3.3782"/>
  <path d="m103.36 427.3h506.68" fill="none" stroke="#005596" stroke-linecap="round" stroke-width="3.3782"/>
  <g fill="#005596">
   <path d="m337.63 376.07c-1.6988-1.7182-3.7762-2.5434-6.3584-2.5434h-51.566-0.06795l-0.06795 0.01942 0.1359-0.01942c-2.1745 0-3.8538-0.59215-5.1255-1.7764-1.3105-1.2134-1.9415-2.7666-1.9415-4.7664v-33.267h58.536c1.9609 0 4.2227-0.25239 6.1739-2.1356 1.757-1.6891 2.6113-3.7956 2.6113-6.2613 0-2.4268-0.88337-4.5722-2.6792-6.3487-1.7862-1.7959-3.9121-2.6792-6.3486-2.6792h-58.293v-9.0667-2.9705c0-2.3492-0.86397-4.446-2.5336-6.1739-1.6988-1.7473-3.8247-2.6016-6.2613-2.6016-2.4366 0-4.6013 0.88337-6.3584 2.6598-1.7862 1.7959-2.6987 3.9315-2.6987 6.3681v69.913c0 11.183 5.3973 16.629 16.483 16.629l60.254-0.05824c2.3492 0 4.4266-0.83484 6.1642-2.5142 1.7668-1.7085 2.621-3.8053 2.621-6.2516 0-2.3589-0.83484-4.3295-2.6792-6.1545"/>
   <path d="m386.8 316.36c-2.1065 0-4.3198 0.27181-6.1739 2.0386-1.7376 1.7085-2.621 3.8344-2.621 6.2807s0.9125 4.5722 2.6792 6.3584c1.7959 1.7862 3.9218 2.6695 6.3584 2.6695l1.3299 0.00971h0.40772 31.869c2.0968 0 3.6985 0.62127 4.9702 1.8638 1.2328 1.2231 1.825 2.8249 1.825 4.8246l0.09707 26.618c0 1.9997-0.62128 3.5335-1.9221 4.7372-1.3202 1.194-2.9996 1.8056-5.1158 1.8056h-42.703c-2.2133 0-3.9121-0.61157-5.2517-1.8056-1.3105-1.2037-1.9318-2.7375-1.9318-4.7372l-0.11649-62.807c0-2.3492-0.83484-4.4266-2.5239-6.1642-1.6891-1.7473-3.7956-2.6404-6.2322-2.6404-2.4463 0-4.6013 0.9125-6.3875 2.689-1.7862 1.7862-2.6987 3.9218-2.6987 6.3584v69.728c0 11.193 5.7468 16.872 17.007 16.872l58.662 0.02912c11.27 0 16.959-5.64 16.959-16.736v-41.577c0-10.882-5.4264-16.221-16.561-16.376l-41.926-0.03883z"/>
   <path d="m546.77 331.73c1.7376-1.7085 2.6307-3.815 2.6307-6.2419 0-2.4657-0.9125-4.611-2.689-6.3778-1.8444-1.8444-3.98-2.7957-6.3584-2.7957l-65.651 0.00971c-10.94 0.24268-16.425 5.7468-16.347 16.347 0 0.20385-0.35917 23.094-0.35917 26.472v23.618c0 2.3589 0.88337 4.4654 2.621 6.203 1.7182 1.7473 3.8247 2.621 6.1642 2.621 2.456 0 4.5916-0.87367 6.3292-2.621 1.7862-1.825 2.6987-3.9024 2.6987-6.203l0.02912-15.571 0.08737-16.93 0.02912-12.134c0-2.8734 1.3784-4.3489 4.0771-4.3489l60.574-0.0097c2.1162 0 4.3004-0.2524 6.1642-2.0386"/>
   <path d="m240.73 318.88c-1.6794-1.6794-3.7762-2.5239-6.3584-2.5239h-48.343c-0.81542 0.03883-1.5435-0.02912-1.8735-0.03883-1.2717-0.02912-2.0483-0.45625-2.786-1.5144-1.6406-2.3395-5.1546-3.1646-7.863-3.1646-2.6987 0-5.1741 1.0581-6.9699 3.019-1.6794 1.8541-2.0192 3.8247-2.0192 6.2225v10.484c-0.02912 0.43683-0.06795 0.89308-0.06795 1.4076v49.547c0 2.3686 0.9222 4.4557 2.689 6.2419 1.7765 1.7862 3.9218 2.6792 6.3681 2.6792 2.4366 0 4.5334-0.85426 6.2225-2.5628 1.7085-1.6988 2.5725-3.7859 2.5725-6.2516v-41.858c0-2.0774 0.70864-3.8733 1.9415-4.9799 1.2911-1.2037 2.951-1.8153 5.0964-1.825h45.275c2.6307 0 4.5722-0.74747 6.1642-2.2812 1.7473-1.6891 2.6307-3.8053 2.6307-6.2419 0-2.4463-0.89309-4.6013-2.6793-6.3584"/>
  </g>
  <g>
   <path d="m527.74 358.16c0-2.6695-1.0193-4.9508-3.0578-6.737-1.9318-1.7279-4.3101-2.6307-7.067-2.6307h-17.124c-2.7666 0-5.1449 0.90279-7.1058 2.6307-2.0191 1.7862-3.0481 4.0577-3.0481 6.737v0.00971c0 2.6792 1.029 4.9508 3.0481 6.7467 1.9609 1.7376 4.3392 2.621 7.1058 2.621h17.124c2.7569 0 5.1352-0.88338 7.067-2.621 2.0386-1.7959 3.0578-4.0674 3.0578-6.7467v-0.00971z"/>
   <path d="m286.66 464.72h-24.395c-5.3391 0-8.1542 2.7957-8.1542 8.0766v26.259c0 1.9609 1.2523 3.9412 3.6597 3.9412 2.1453 0 3.4753-1.5046 3.4753-3.9412v-24.938c0-0.71835 0.22327-1.2814 0.68923-1.7182 0.46595-0.42712 1.0872-0.62127 1.9706-0.62127h22.715c0.99986 0 2.9705 0 4.1645-1.194 0.57274-0.58244 0.88338-1.3687 0.88338-2.2715 0-0.99987-0.31064-1.825-0.92221-2.4366-1.1552-1.1552-2.9899-1.1552-4.0868-1.1552"/>
   <path d="m115.91 468.64c0 3.7568-0.01942 30.355-0.01942 30.355 0 3.9995 2.4366 4.4363 3.4947 4.4363 2.1745 0 3.5238-1.6794 3.5238-4.3684l0.01942-30.355c0-3.7568-1.9221-4.5528-3.5238-4.5528-1.427 0-3.4947 0.72806-3.4947 4.4848"/>
   <path d="m423.45 470.55c0 3.7568-0.01942 28.132-0.01942 28.132 0 3.9995 2.4463 4.4266 3.4947 4.4266 2.1745 0 3.5238-1.6697 3.5238-4.3683l0.01942-28.122c0-3.7665-1.9221-4.5528-3.5238-4.5528-1.4173 0-3.4947 0.72806-3.4947 4.4848"/>
   <path d="m171.62 461.82v32.268c0 5.8342 3.1064 8.9017 8.9697 8.9017h19.036l0.67952 0.00971c2.0288 0.0097 3.9509 0.02912 5.1158-1.1358 0.59215-0.58245 0.88337-1.3688 0.88337-2.3492 0-0.99987-0.31064-1.8153-0.94162-2.4269-1.262-1.2231-3.3782-1.1649-4.9217-1.1261l-0.69894 0.01942h-17.978c-0.94162 0-1.6891-0.2621-2.291-0.80572-0.54362-0.48537-0.84455-1.194-0.84455-2.0288 0 0-0.00971-17.066-0.00971-21.541h22.143c1.3299 0.00971 3.1549 0.01942 4.3101-1.1261 0.59215-0.59215 0.89308-1.3882 0.89308-2.3589 0-0.95132-0.29122-1.7279-0.88337-2.3104-1.1552-1.1552-3.0287-1.1455-4.5334-1.1358 0 0-19.988-0.03883-21.919-0.03883-0.00971-1.1455-0.01941-2.9608-0.01941-2.9802 0-1.1552-0.00971-2.8249-1.0775-3.8733-0.57274-0.58244-1.359-0.88337-2.3201-0.88337-3.5918 0-3.5918 3.4461-3.5918 4.9217"/>
   <path d="m219.81 464.8c-2.8928 0-4.9993 0.69893-6.4263 2.1356-1.3493 1.359-2.0288 3.3685-2.0094 5.9701v21.842c0 5.3197 2.9899 8.2513 8.4358 8.2513h23.055l0.76689 0.00971c1.9706 0.00971 3.3782 0.01941 4.3392-0.93192 0.60186-0.59215 0.87367-1.4367 0.87367-2.6598 0-0.93191-0.30093-1.7085-0.88338-2.291-1.2134-1.2037-3.2229-1.1843-4.6887-1.1649h-22.123c-0.83484 0-1.4949-0.23297-2.0191-0.69893-0.48537-0.46596-0.71835-1.029-0.71835-1.757 0-0.0097-0.01942-19.774-0.01942-19.774 0.21357-1.2814 0.97075-1.9026 2.5045-1.9026h19.502c0.38829 0 0.72805 0.1359 1.0678 0.43683 0.29123 0.2621 0.41742 0.54362 0.41742 0.9125l0.01942 5.0382c0 0.31064-0.21357 0.49508-0.33006 0.58245-0.20385 0.1359-0.67952 0.23298-1.1746 0.23298h-14.678c-0.23298 0-2.4851 0-3.7956 1.2911-0.59216 0.59215-0.9125 1.359-0.9125 2.223 0 1.029 0.32034 1.8735 0.95133 2.5045 1.1552 1.1552 2.9025 1.1552 3.7374 1.1552h14.639c5.4847 0 8.5328-2.9219 8.5911-8.2222v-5.1352c0-5.3391-2.8928-8.0475-8.5911-8.0475h-20.531z"/>
   <path d="m346.1 464.76h-0.02912c-3.1161 0.07766-6.3292 0.15532-6.3292 3.5529 0 3.3394 3.2034 3.4267 6.3098 3.4947l21.308 0.00971c0.94162 0 1.6988 0.25239 2.2424 0.74747 0.53391 0.51449 0.7863 1.1455 0.7863 1.9803 0 0.0097 0.05824 19.26 0.05824 19.26-0.23297 1.4367-1.0775 2.1162-2.8152 2.1162h-19.201c-0.55333 0.00971-0.70865 0-0.96104-0.17473-0.49508-0.35917-0.48537-1.9318-0.47566-3.9121v-0.85426l-0.00971-0.51449c-0.05825-1.9124 0.02912-3.0578 0.27181-3.4073 0.1359-0.19415 0.69893-0.18444 1.1066-0.18444l13.328-0.00971 0.5242 0.00971c3.0481 0 4.8731-1.3008 4.8731-3.4656 0-1.0387-0.44654-3.4656-4.6693-3.4656h-13.532c-5.8536 0-8.9697 3.0093-9.0085 8.7173l-0.06795 5.4264c-0.01942 2.8734 0.73776 5.0867 2.2327 6.601 1.5338 1.5338 3.815 2.3104 6.7952 2.3104h19.9c5.8244 0 8.9017-3.0772 8.9017-8.9017l-0.09708-20.463c-0.10678-5.8924-3.0675-8.8726-8.8046-8.8726h-22.638z"/>
   <path d="m382.81 461.82v32.268c0 5.8342 3.1161 8.9017 9.0182 8.9017h19.017l0.68923 0.00971c2.0191 0.0097 3.9218 0.02912 5.0867-1.1261 0.59215-0.58245 0.89308-1.3785 0.89308-2.3589 0-1.0096-0.32034-1.825-0.95132-2.4366-1.2523-1.2134-3.3491-1.1552-4.8828-1.1164l-0.70864 0.01942h-17.988c-0.9222 0-1.6891-0.27181-2.2715-0.79601-0.56303-0.50479-0.86396-1.2231-0.86396-2.0386v-21.541h22.123c1.3396 0.00971 3.1743 0.01942 4.3198-1.1261 0.60186-0.59215 0.90279-1.3882 0.90279-2.3589 0-0.95132-0.30093-1.7279-0.88338-2.3104-1.1649-1.1552-3.1064-1.1455-4.5237-1.1358 0 0-20.007-0.03883-21.939-0.03883-0.00971-1.1455-0.02912-2.9899-0.02912-3.019 0-1.1649-0.01942-2.7957-1.0581-3.8344-0.58245-0.58244-1.3688-0.88337-2.3395-0.88337-3.6112 0-3.6112 3.4461-3.6112 4.9217"/>
   <path d="m442.01 493.57v-19.26c0-0.72806 0.23298-1.3299 0.68923-1.7668 0.45625-0.39801 1.1066-0.60186 1.9415-0.60186h18.464c0.85426 0 1.495 0.20385 1.9415 0.61157 0.42713 0.398 0.64069 0.98045 0.64069 1.757v19.26c0 0.76689-0.21356 1.3299-0.64069 1.7279-0.47566 0.42713-1.1261 0.6504-1.9415 0.6504h-18.464c-0.7863 0-1.4464-0.23298-1.9609-0.66981-0.43683-0.42713-0.66981-0.99987-0.66981-1.7085m1.0969-28.724c-5.3197 0-8.1348 2.7666-8.1348 7.9989v22.133c0 5.2517 2.8152 8.0183 8.1348 8.0183h21.502c5.3391 0 8.1542-2.7666 8.1542-8.0183v-22.133c0-5.2323-2.8152-7.9989-8.1542-7.9989h-21.502z"/>
   <path d="m527.55 464.76h-0.02912c-3.1161 0.07766-6.339 0.15532-6.339 3.5529 0 3.3394 3.2229 3.4267 6.339 3.4947l21.308 0.00971c0.94162 0 1.6697 0.24268 2.223 0.74747 0.54362 0.49508 0.79601 1.1358 0.79601 1.9803 0 0.0097 0.06795 19.26 0.06795 19.26-0.24269 1.427-1.0969 2.1162-2.8346 2.1162h-19.192c-0.5339 0.00971-0.73776 0-0.99986-0.18444-0.47567-0.33976-0.47567-1.8832-0.46596-3.8247v-0.93192-0.43683c-0.04853-2.4269 0.13591-3.2423 0.30093-3.485 0.13591-0.19415 0.67952-0.18444 1.1261-0.18444l13.26-0.00971 0.59216 0.00971c3.0384 0 4.8343-1.3008 4.8343-3.4656 0-1.0387-0.44654-3.4656-4.6693-3.4656h-13.552c-5.8342 0-8.9405 3.019-8.96 8.7173l-0.06795 5.4264c-0.03883 2.854 0.68923 5.0673 2.1842 6.5816 1.5241 1.5435 3.815 2.3298 6.8049 2.3298h19.92c5.8827 0 8.8726-2.9899 8.8726-8.9017l-0.10679-20.463c-0.04853-5.805-3.0772-8.8726-8.7658-8.8726h-22.647z"/>
   <path d="m564.46 469.23v25.686c0 5.2808 2.7763 8.0863 8.028 8.0863h23.939c1.8347 0 3.5529 0 4.611-1.0581 0.56303-0.55332 0.84455-1.3299 0.84455-2.291 0-3.6694-3.4461-3.6694-5.7274-3.6694l-21.948-0.02912c-0.79601 0-1.4464-0.23298-1.9318-0.68923-0.46596-0.40771-0.66981-0.94162-0.66981-1.6891v-24.414c0.0097-0.92221 0.0097-2.5531-1.0387-3.6209-0.59215-0.60186-1.3979-0.9028-2.388-0.9028-1.6988 0-3.7179 0.79601-3.7179 4.5916"/>
   <path d="m136.57 464.51c-5.3391 0-8.1542 2.7763-8.1542 8.0086v26.249s-0.0097 1.4755 0.36889 2.4948c0.49507 1.3688 1.6794 2.0871 3.1646 2.0871 2.155 0 3.5529-1.7959 3.5529-4.5722v-24.773c0-0.77659 0.20385-1.3299 0.66981-1.757 0.46596-0.43684 1.0872-0.64069 1.9318-0.64069h18.473c0.84455 0 1.4658 0.20385 1.9027 0.63098 0.47566 0.44654 0.68923 1.0096 0.68923 1.7668v24.764s-0.00971 0.10678-0.00971 0.35918c0 0.62127 0.08737 1.5532 0.51449 2.3977 0.59216 1.1746 1.6794 1.825 3.0481 1.825 2.1648 0 3.5529-1.7959 3.5529-4.5722v-26.259c0-5.1644-2.9122-8.0086-8.2125-8.0086h-21.492z"/>
   <path d="m486.31 464.85c-5.3585 0-8.1931 2.7666-8.1931 8.0086v25.278l0.31064-0.76688c-0.67952 0.68922-0.14562 2.7763 0.05824 3.252 0.56303 1.359 1.6891 2.0968 3.184 2.0968 2.1453 0 3.5238-1.7959 3.5238-4.5722v-23.812c0-0.75718 0.22328-1.3202 0.67952-1.757 0.46596-0.41742 1.1066-0.63098 1.9609-0.63098h18.444c0.85425 0 1.4658 0.20386 1.9415 0.64069 0.43683 0.42713 0.65039 0.99016 0.65039 1.7473v23.803l0.15532-0.15532c-0.05824 0.17474-0.17473 0.24269-0.17473 0.49508 0 0.5145 0.06795 1.5144 0.5242 2.4074 0.59215 1.1843 1.6794 1.8347 3.0578 1.8347 2.155 0 3.5432-1.7959 3.5432-4.5722v-25.288c0-5.1644-2.9025-8.0086-8.1931-8.0086h-21.473z"/>
   <path d="m430.9 460.27c0 2.1939-1.7764 3.9703-3.9703 3.9703s-3.9703-1.7765-3.9703-3.9703c0-2.1939 1.7765-3.9703 3.9703-3.9703s3.9703 1.7765 3.9703 3.9703"/>
   <path d="m305.27 464.51c-5.3391 0-8.1542 2.7763-8.1542 8.0086v26.249s-0.01941 1.4755 0.35918 2.4948c0.50478 1.3688 1.6891 2.0871 3.1743 2.0871 2.1453 0 3.5432-1.7959 3.5432-4.5722v-24.773c0-0.77659 0.21356-1.3299 0.66981-1.757 0.48537-0.43684 1.0969-0.64069 1.9415-0.64069h18.473c0.83484 0 1.4561 0.20385 1.9027 0.63098 0.46595 0.44654 0.68923 1.0096 0.68923 1.7668v24.764s-0.01942 0.10678-0.01942 0.35918c0 0.62127 0.09708 1.5532 0.5242 2.3977 0.59216 1.1746 1.6794 1.825 3.0481 1.825 2.1648 0 3.5529-1.7959 3.5529-4.5722v-26.259c0-5.1644-2.9122-8.0086-8.2125-8.0086h-21.492z"/>
  </g>
 </g>
</svg>
