<svg xmlns="http://www.w3.org/2000/svg" height="297.71" width="600" viewBox="0 0 158.75 78.768">
    <path d="M151.661 38.392c-2.601-2.6-5.906-3.979-9.559-3.979h-2.398c-2.208 0-4.351.385-6.36 1.142a14.403 14.403 0 0 0-1.603-1.93c-2.6-2.6-5.906-3.976-9.555-3.976-1.111 0-2.23.141-3.32.419-.595-4.544-2.555-8.551-5.868-11.925l-.027-.021a20.724 20.724 0 0 0-1.975-1.768 12.529 12.529 0 0 0-.337-2.081c-.664-2.494-1.874-4.65-3.598-6.415-2.769-2.827-6.322-4.3-10.281-4.248-3.859.027-7.227 1.458-9.999 4.265h.017a2.507 2.507 0 0 0-.241.213l-.612.599-1.858 1.816-2.717 2.652-.021.024-.093.1a11.251 11.251 0 0 0-1.647 2.308c-3.395-3.199-7.482-4.829-12.16-4.829h-.67c-1.184-1.662-2.611-3.117-4.29-4.297-3.089-2.215-6.545-3.343-10.26-3.343-4.912 0-9.167 1.765-12.638 5.249a16.962 16.962 0 0 0-2.446 3.058 17.733 17.733 0 0 0-4.767-.667h-3.856c-6.948 0-12.982 2.511-17.942 7.478-4.95 4.946-7.47 11.003-7.47 17.996v7.581c0 4.957 1.75 9.209 5.18 12.648 3.44 3.44 7.7 5.184 12.654 5.184 4.916 0 9.143-1.744 12.59-5.184 2.098-2.101 3.567-4.523 4.406-7.22a25.667 25.667 0 0 0 3.963 5.022c4.994 4.898 11.02 7.382 17.907 7.382h3.845c4.874 0 9.119-1.761 12.593-5.242.478-.482.925-1.005 1.359-1.548 4.712 4.53 10.415 6.828 16.958 6.807l7.254-.01c.712 0 1.445-.066 2.177-.162a8.7 8.7 0 0 0-.027.705c0 3.626 1.362 6.904 3.935 9.484 2.604 2.597 5.896 3.969 9.514 3.969 5.005 0 9.35-1.792 12.903-5.328l.017-.024.007-.007s.068-.079.11-.114c1.444.516 2.961.788 4.523.788 3.674 0 6.976-1.362 9.56-3.942a13.447 13.447 0 0 0 3.704-7.024 13.468 13.468 0 0 0 3.42-2.463c2.592-2.603 3.975-5.919 3.975-9.589 0-3.653-1.383-6.959-3.976-9.553" fill="#88b94c"/>
    <path d="M149.213 40.831c-1.964-1.968-4.355-2.969-7.11-2.969h-2.398c-2.906 0-5.558.785-7.904 2.305-.465-1.527-1.307-2.903-2.504-4.104-1.971-1.96-4.359-2.961-7.114-2.961-2.597 0-4.867.884-6.766 2.614.145-.891.214-1.789.214-2.68v-.037c-.01-4.833-1.744-9.023-5.122-12.456h-.004a17.366 17.366 0 0 0-2.896-2.421c.004-.048.028-.451.028-.451 0-.87-.11-1.723-.317-2.538-.505-1.889-1.427-3.529-2.731-4.864-2.112-2.167-4.733-3.237-7.756-3.209h-.035c-2.927.027-5.479 1.124-7.595 3.267l-5.366 5.246-.055.052c-1.052 1.138-1.702 2.459-1.943 3.938a23.165 23.165 0 0 0-2.006 1.754 14.995 14.995 0 0 0-2.239-2.872c-2.807-2.814-6.215-4.231-10.147-4.231h-2.552c-1.049-1.957-2.522-3.615-4.403-4.932-2.497-1.799-5.284-2.711-8.262-2.711-3.966 0-7.396 1.421-10.206 4.235-1.434 1.437-2.518 3.092-3.22 4.922-1.957-1.008-4.113-1.514-6.425-1.514H28.52c-5.992 0-11.2 2.171-15.5 6.46-4.29 4.283-6.46 9.518-6.46 15.558v7.581c0 4.004 1.41 7.44 4.18 10.209 2.76 2.769 6.2 4.169 10.202 4.169 3.966 0 7.382-1.4 10.144-4.169 2.807-2.807 4.237-6.246 4.237-10.209v-1.142a13.602 13.602 0 0 0 3.182-1.039c.925 3.842 2.872 7.268 5.817 10.178 4.33 4.231 9.538 6.381 15.492 6.381h3.842c3.929 0 7.348-1.42 10.154-4.231 1.476-1.472 2.57-3.144 3.282-4.97a23.37 23.37 0 0 0 2.452 2.944c4.138 4.186 9.191 6.298 15.008 6.285l7.258-.021c2.996-.007 5.655-.853 7.946-2.49-.162.192-.32.381-.468.581-1.235 1.723-1.865 3.708-1.865 5.903 0 2.731.988 5.101 2.924 7.041 1.964 1.964 4.341 2.961 7.072 2.961 4.066 0 7.595-1.458 10.481-4.341a14.87 14.87 0 0 0 1.631-1.909c1.596 1.032 3.425 1.562 5.448 1.562 2.779 0 5.17-.984 7.11-2.924 1.93-1.93 2.924-4.279 2.955-6.989a9.831 9.831 0 0 0 4.169-2.498c1.971-1.974 2.972-4.375 2.972-7.151 0-2.755-1.001-5.142-2.972-7.113" fill="#cfcb3a"/>
    <g fill="#fff">
        <path d="M90.734 21.215c.038.038.076.082.076.082s6.033-.289 6.074-.295c1.301.031 2.312-.568 2.938-1.741l.01-.024.007-.01c.654-1.387.451-2.676-.591-3.739-.589-.613-1.325-.939-2.185-.991a3.035 3.035 0 0 0-2.27.808l-.017.018-4.516 4.351-.035.045a1.002 1.002 0 0 0-.196.577c0 .241.1.472.292.668a.822.822 0 0 0 .413.251M32.378 24.125h-3.859c-3.292 0-6.167 1.2-8.534 3.567-2.365 2.37-3.565 5.242-3.565 8.541v7.581c0 1.224.45 2.291 1.34 3.182.89.89 1.96 1.341 3.185 1.341 1.221 0 2.291-.451 3.157-1.348.86-.884 1.307-1.954 1.307-3.175v-7.581c0-.905.3-1.648.912-2.26.619-.613 1.345-.919 2.198-.919h3.859c1.225 0 2.284-.437 3.151-1.307.87-.873 1.311-1.929 1.311-3.157 0-1.218-.441-2.284-1.311-3.155-.867-.866-1.926-1.31-3.151-1.31M67.451 24.125h-10.76V20.95c0-1.225-.433-2.284-1.314-3.154-.866-.874-1.926-1.311-3.147-1.311s-2.287.437-3.185 1.304c-.884.87-1.342 1.936-1.342 3.161v14.725h-.013l.013.685v.038c.097 3.285 1.311 6.119 3.626 8.437 2.332 2.322 5.177 3.502 8.482 3.502h3.842c1.235 0 2.302-.451 3.172-1.348.856-.884 1.3-1.954 1.3-3.175 0-1.225-.444-2.284-1.314-3.154-.863-.874-1.93-1.311-3.158-1.311h-3.842c-1.978-.117-2.941-1.022-3.12-3.041v-3.254h10.76c1.221 0 2.291-.437 3.154-1.307.87-.873 1.307-1.929 1.307-3.157a4.326 4.326 0 0 0-1.307-3.155 4.325 4.325 0 0 0-3.154-1.31M106.139 44.524v-.615s-.052-.083-.058-.11l-.007-.592s-.035-.031-.059-.058v-.413s-.082-.017-.117-.031v-.141s-.065-.059-.113-.117v-.117l-.196-.2c-.399-.767-1.018-1.393-1.83-1.854-.011 0-.214-.209-.214-.209s-.065.006-.123.006c-.048-.061-.11-.12-.11-.12h-.289a.53.53 0 0 0-.19-.034c-.068-.042-.147-.052-.23-.066 1.751-1.087 2.862-2.803 3.309-5.139l.086-.082-.007-.471a.9.9 0 0 0 .055-.324v-.179l.017-.189.045-.454c-.007-2.205-.798-4.107-2.339-5.672-1.555-1.565-3.453-2.353-5.665-2.353l-3.629.011c-3.165.006-5.916 1.183-8.18 3.498-2.263 2.304-3.408 5.104-3.395 8.314 0 3.212 1.159 6.009 3.433 8.306 2.274 2.295 5.039 3.464 8.194 3.451l7.257-.011c1.462-.007 2.597-.609 3.413-1.771h.368v-.114h.058v-.175h.11v-.293h.121v-.454c0-.006 0-.006.003-.013h.162v-.637c.024-.024.062-.055.062-.055v-.464l.058-.059"/>
    </g>
    <path d="M147.133 42.91c-1.4-1.4-3.075-2.095-5.029-2.095h-2.398c-3.243 0-6.04 1.159-8.365 3.488-1.091 1.09-1.923 2.287-2.497 3.591a8.05 8.05 0 0 0-.503-1.08 7.273 7.273 0 0 0 .967-3.639c0-1.951-.698-3.626-2.102-5.019-1.393-1.407-3.071-2.105-5.022-2.105-1.977 0-3.663.698-5.063 2.105-1.376 1.373-2.064 3.044-2.064 5.019 0 1.355.34 2.562 1.012 3.639a6.886 6.886 0 0 0-1.012 3.643v5.025c-1.372.478-2.5 1.321-3.374 2.532-.877 1.217-1.31 2.603-1.31 4.182 0 1.927.684 3.578 2.056 4.954 1.4 1.399 3.065 2.101 4.988 2.101 3.278 0 6.081-1.159 8.403-3.491 1.428-1.386 2.408-2.965 2.962-4.719.299.512.677 1.004 1.131 1.458 1.376 1.379 3.069 2.06 5.064 2.06 1.977 0 3.663-.681 5.029-2.06 1.399-1.403 2.098-3.092 2.098-5.067v-2.363c1.981 0 3.653-.691 5.029-2.067 1.403-1.393 2.101-3.085 2.101-5.056 0-1.958-.698-3.629-2.101-5.036" fill="#354b7e"/>
    <path d="M119.822 57.431c0 1.232-.574 1.992-1.723 2.291-.144.052-.378.09-.681.114-.599 0-1.145.223-1.627.674-.495.454-.733 1.011-.733 1.682 0 .653.23 1.214.688 1.672a2.271 2.271 0 0 0 1.672.698c1.906 0 3.557-.678 4.957-2.026 1.42-1.376 2.15-3.013 2.167-4.919v-7.165c0-.674-.224-1.245-.688-1.699a2.26 2.26 0 0 0-1.669-.698c-.626 0-1.173.223-1.647.674a2.173 2.173 0 0 0-.716 1.647z" fill="#d7557f"/>
    <path d="M137.341 52.707c0-.678.234-1.245.695-1.703a2.248 2.248 0 0 1 1.671-.698h2.398a2.27 2.27 0 0 0 1.671-.698 2.24 2.24 0 0 0 .695-1.665c0-.65-.23-1.204-.695-1.672a2.267 2.267 0 0 0-1.671-.695h-2.398c-1.947 0-3.625.702-5.025 2.105-1.4 1.4-2.105 3.079-2.105 5.026v4.726c0 .65.234 1.211.715 1.689.478.478 1.042.715 1.689.715s1.204-.237 1.668-.715a2.334 2.334 0 0 0 .692-1.689z" fill="#dde0eb"/>
    <path d="M125.152 47.027l-2.804-1.51-2.824 1.459.575-3.131-2.257-2.246 3.151-.423 1.424-2.841 1.386 2.865 3.148.489-2.308 2.198z" fill="#fff"/>
    <path d="M111.488 38.968a15.169 15.169 0 0 0 1.193-5.965c-.006-4.055-1.437-7.523-4.279-10.409-1.204-1.245-2.524-2.218-3.962-2.934.309-1.259.34-2.576.027-3.776-.371-1.394-1.032-2.577-1.988-3.557-1.537-1.572-3.422-2.346-5.634-2.315-2.157.01-4.018.819-5.576 2.422l-5.29 5.173-.035.027c-.777.836-1.2 1.82-1.255 2.945a3.658 3.658 0 0 0 0 .554c-1.097.718-2.126 1.585-3.106 2.583a19.265 19.265 0 0 0-2.769 3.55c-.275-2.57-1.376-4.813-3.302-6.735-2.239-2.246-4.933-3.368-8.06-3.368h-4.454c-.801-2.256-2.205-4.072-4.21-5.479-2.006-1.445-4.193-2.164-6.556-2.164-3.172 0-5.879 1.121-8.121 3.371-2.195 2.195-3.299 4.871-3.313 8.021-.117-.13-.234-.261-.358-.381-2.249-2.246-4.939-3.368-8.062-3.368h-3.86c-5.204 0-9.678 1.864-13.408 5.593-3.74 3.732-5.6 8.221-5.6 13.477v7.581c0 3.209 1.1 5.916 3.31 8.125 2.21 2.201 4.92 3.312 8.124 3.312 3.165 0 5.854-1.111 8.059-3.312 2.243-2.246 3.375-4.957 3.375-8.125v-3.787c3.168 0 5.851-1.104 8.062-3.312.124-.121.241-.252.358-.375v.013c.038 5.26 1.902 9.707 5.593 13.36 3.777 3.691 8.249 5.538 13.422 5.538h3.842c3.134 0 5.823-1.131 8.07-3.374 2.242-2.25 3.364-4.933 3.364-8.063 0-2.005-.499-3.87-1.503-5.596a11.911 11.911 0 0 0 2.696-2.394c-.017.33-.027.67-.027 1.007.014 5.067 1.809 9.412 5.386 13.03 3.581 3.622 7.888 5.421 12.906 5.407l7.255-.017c3.064-.007 5.658-1.083 7.756-3.233 2.112-2.157 3.158-4.792 3.154-7.908a11.559 11.559 0 0 0-1.224-5.142M35.05 31.266c-.74.746-1.637 1.118-2.672 1.118h-3.86c-1.042 0-1.93.368-2.672 1.111-.74.743-1.111 1.654-1.111 2.738v7.581c0 1.046-.372 1.95-1.118 2.711-.74.76-1.627 1.142-2.673 1.142-1.042 0-1.944-.382-2.704-1.142-.77-.761-1.15-1.665-1.15-2.711v-7.581c0-3.134 1.13-5.817 3.369-8.063 2.25-2.242 4.939-3.367 8.059-3.367h3.86c1.035 0 1.933.368 2.672 1.107a3.653 3.653 0 0 1 1.115 2.68c0 1.049-.368 1.936-1.115 2.676m35.079 0c-.743.746-1.627 1.118-2.677 1.118H56.019v3.969c.203 2.37 1.472 3.55 3.794 3.55l3.842.124c1.053 0 1.94.368 2.686 1.108.74.743 1.11 1.633 1.11 2.679s-.37 1.95-1.11 2.711c-.746.76-1.633 1.142-2.686 1.142h-3.842c-3.134 0-5.8-1.105-8.008-3.313-2.205-2.205-3.347-4.877-3.433-8.001V20.95c0-1.039.389-1.933 1.149-2.679.764-.743 1.665-1.108 2.71-1.108 1.043 0 1.93.365 2.677 1.108.743.746 1.11 1.64 1.11 2.679v3.853h11.434c1.05 0 1.934.368 2.677 1.107a3.653 3.653 0 0 1 1.11 2.68c0 1.049-.364 1.936-1.11 2.676m20.645-11.148c.743-.722 1.486-1.448 2.236-2.157.746-.715 1.492-1.431 2.242-2.16a2.369 2.369 0 0 1 1.779-.629 2.555 2.555 0 0 1 1.74.791c.836.856.984 1.85.454 2.972-.51.963-1.297 1.427-2.353 1.396l-5.79.286c-.02-.021-.057-.038-.11-.038-.057 0-.116-.028-.171-.09-.12-.113-.127-.244-.027-.371m11.203 20.339c1.895 0 3.429 1.658 3.429 3.711 0 2.047-1.534 3.712-3.43 3.712l-7.446.017c-2.99.01-5.562-1.077-7.722-3.257-2.15-2.174-3.234-4.782-3.237-7.829-.01-3.037 1.063-5.652 3.209-7.839 2.136-2.195 4.702-3.289 7.698-3.299l3.633-.007c2.029-.007 3.752.712 5.173 2.15 1.434 1.441 2.146 3.175 2.146 5.201 0 .781-.165 1.517-.165 1.517-.608 3.24-2.56 5.177-5.861 5.809 0 0-.254.045-.347.055l-.396.066 3.316-.007" fill="#354b7e"/>
    <path d="M94.498 33.044c.994 0 1.851.361 2.563 1.08.708.712 1.069 1.603 1.069 2.656a3.586 3.586 0 0 1-1.059 2.603c-.709.719-1.562 1.091-2.556 1.091-1.039 0-1.909-.358-2.617-1.08a3.553 3.553 0 0 1-1.077-2.594c0-1.052.347-1.943 1.056-2.669.719-.719 1.582-1.087 2.621-1.087" fill="#354b7e"/>
    <path d="M153.868 36.186c-3.202-3.195-7.271-4.888-11.764-4.888h-2.397a21.26 21.26 0 0 0-5.253.661c-.178-.186-.347-.375-.512-.533-3.202-3.203-7.265-4.895-11.757-4.895-.272 0-.554.007-.836.021-1.052-3.949-3.102-7.506-6.126-10.584l-.017-.021h-.007a21.982 21.982 0 0 0-1.259-1.187 17.395 17.395 0 0 0-.261-1.273c0-.003-.01-.024-.01-.024-.795-3.006-2.278-5.627-4.383-7.78-3.367-3.45-7.698-5.236-12.514-5.184h-.031c-4.612.034-8.805 1.806-12.121 5.136l-.007-.007-5.476 5.355s-.103.107-.141.141c-3.144-2.132-6.718-3.288-10.639-3.443a20.795 20.795 0 0 0-4.052-3.742v-.007l-.017-.014C60.655 1.318 56.596 0 52.228 0c-5.765 0-10.766 2.074-14.853 6.157-.55.561-1.08 1.163-1.572 1.775a21.863 21.863 0 0 0-3.422-.289h-3.86c-7.804 0-14.581 2.821-20.141 8.383S0 28.385 0 36.231v7.581c0 5.81 2.05 10.811 6.09 14.853 4.05 4.045 9.04 6.098 14.854 6.098 5.765 0 10.742-2.053 14.794-6.098a22.096 22.096 0 0 0 2.793-3.423c.378.42.77.833 1.169 1.232 5.621 5.5 12.38 8.289 20.113 8.289h3.842c5.462 0 10.229-1.878 14.195-5.582 4.819 3.728 10.44 5.62 16.731 5.606 0 0 4.623-.013 6.481-.02.526 3.44 2.129 6.563 4.643 9.112.516.516 1.325 1.544 2.277 2.211 7.957 5.49 20.284 1.514 23.459-2.765 5.727 1.52 12.885-1.493 15.297-4.097 2.181-2.356 3.457-4.485 4.22-7.196a16.366 16.366 0 0 0 2.91-2.297c3.189-3.199 4.878-7.272 4.878-11.788 0-4.5-1.689-8.565-4.878-11.761" fill="#fff"/>
    <path d="M151.661 38.392c-2.601-2.6-5.906-3.979-9.559-3.979h-2.398c-2.208 0-4.351.385-6.36 1.142a14.403 14.403 0 0 0-1.603-1.93c-2.6-2.6-5.906-3.976-9.555-3.976-1.111 0-2.23.141-3.32.419-.595-4.544-2.555-8.551-5.868-11.925l-.027-.021a20.724 20.724 0 0 0-1.975-1.768 12.529 12.529 0 0 0-.337-2.081c-.664-2.494-1.874-4.65-3.598-6.415-2.769-2.827-6.322-4.3-10.281-4.248-3.859.027-7.227 1.458-9.999 4.265h.017a2.507 2.507 0 0 0-.241.213l-.612.599-1.858 1.816-2.717 2.652-.021.024-.093.1a11.251 11.251 0 0 0-1.647 2.308c-3.395-3.199-7.482-4.829-12.16-4.829h-.67c-1.184-1.662-2.611-3.117-4.29-4.297-3.089-2.215-6.545-3.343-10.26-3.343-4.912 0-9.167 1.765-12.638 5.249a16.962 16.962 0 0 0-2.446 3.058 17.733 17.733 0 0 0-4.767-.667h-3.856c-6.948 0-12.982 2.511-17.942 7.478-4.95 4.946-7.47 11.003-7.47 17.996v7.581c0 4.957 1.75 9.209 5.18 12.648 3.44 3.44 7.7 5.184 12.654 5.184 4.916 0 9.143-1.744 12.59-5.184 2.098-2.101 3.567-4.523 4.406-7.22a25.667 25.667 0 0 0 3.963 5.022c4.994 4.898 11.02 7.382 17.907 7.382h3.845c4.874 0 9.119-1.761 12.593-5.242.478-.482.925-1.005 1.359-1.548 4.712 4.53 10.415 6.828 16.958 6.807l7.254-.01c.712 0 1.445-.066 2.177-.162a8.7 8.7 0 0 0-.027.705c0 3.626 1.362 6.904 3.935 9.484 2.604 2.597 5.896 3.969 9.514 3.969 5.005 0 9.35-1.792 12.903-5.328l.017-.024.007-.007s.068-.079.11-.114c1.444.516 2.961.788 4.523.788 3.674 0 6.976-1.362 9.56-3.942a13.447 13.447 0 0 0 3.704-7.024 13.468 13.468 0 0 0 3.42-2.463c2.592-2.603 3.975-5.919 3.975-9.589 0-3.653-1.383-6.959-3.976-9.553" fill="#7ac041"/>
    <path d="M149.213 40.831c-1.964-1.968-4.355-2.969-7.11-2.969h-2.398c-2.906 0-5.558.785-7.904 2.305-.465-1.527-1.307-2.903-2.504-4.104-1.971-1.96-4.359-2.961-7.114-2.961-2.597 0-4.867.884-6.766 2.614.145-.891.214-1.789.214-2.68v-.037c-.01-4.833-1.744-9.023-5.122-12.456h-.004a17.366 17.366 0 0 0-2.896-2.421c.004-.048.028-.451.028-.451 0-.87-.11-1.723-.317-2.538-.505-1.889-1.427-3.529-2.731-4.864-2.112-2.167-4.733-3.237-7.756-3.209h-.035c-2.927.027-5.479 1.124-7.595 3.267l-5.366 5.246-.055.052c-1.052 1.138-1.702 2.459-1.943 3.938a23.165 23.165 0 0 0-2.006 1.754 14.995 14.995 0 0 0-2.239-2.872c-2.807-2.814-6.215-4.231-10.147-4.231h-2.552c-1.049-1.957-2.522-3.615-4.403-4.932-2.497-1.799-5.284-2.711-8.262-2.711-3.966 0-7.396 1.421-10.206 4.235-1.434 1.437-2.518 3.092-3.22 4.922-1.957-1.008-4.113-1.514-6.425-1.514H28.52c-5.992 0-11.2 2.171-15.5 6.46-4.29 4.283-6.46 9.518-6.46 15.558v7.581c0 4.004 1.41 7.44 4.18 10.209 2.76 2.769 6.2 4.169 10.202 4.169 3.966 0 7.382-1.4 10.144-4.169 2.807-2.807 4.237-6.246 4.237-10.209v-1.142a13.602 13.602 0 0 0 3.182-1.039c.925 3.842 2.872 7.268 5.817 10.178 4.33 4.231 9.538 6.381 15.492 6.381h3.842c3.929 0 7.348-1.42 10.154-4.231 1.476-1.472 2.57-3.144 3.282-4.97a23.37 23.37 0 0 0 2.452 2.944c4.138 4.186 9.191 6.298 15.008 6.285l7.258-.021c2.996-.007 5.655-.853 7.946-2.49-.162.192-.32.381-.468.581-1.235 1.723-1.865 3.708-1.865 5.903 0 2.731.988 5.101 2.924 7.041 1.964 1.964 4.341 2.961 7.072 2.961 4.066 0 7.595-1.458 10.481-4.341a14.87 14.87 0 0 0 1.631-1.909c1.596 1.032 3.425 1.562 5.448 1.562 2.779 0 5.17-.984 7.11-2.924 1.93-1.93 2.924-4.279 2.955-6.989a9.831 9.831 0 0 0 4.169-2.498c1.971-1.974 2.972-4.375 2.972-7.151 0-2.755-1.001-5.142-2.972-7.113" fill="#c1d72d"/>
    <g fill="#fff">
        <path d="M90.734 21.215c.038.038.076.082.076.082s6.033-.289 6.074-.295c1.301.031 2.312-.568 2.938-1.741l.01-.024.007-.01c.654-1.387.451-2.676-.591-3.739-.589-.613-1.325-.939-2.185-.991a3.035 3.035 0 0 0-2.27.808l-.017.018-4.516 4.351-.035.045a1.002 1.002 0 0 0-.196.577c0 .241.1.472.292.668a.822.822 0 0 0 .413.251M32.378 24.125h-3.859c-3.292 0-6.167 1.2-8.534 3.567-2.365 2.37-3.565 5.242-3.565 8.541v7.581c0 1.224.45 2.291 1.34 3.182.89.89 1.96 1.341 3.185 1.341 1.221 0 2.291-.451 3.157-1.348.86-.884 1.307-1.954 1.307-3.175v-7.581c0-.905.3-1.648.912-2.26.619-.613 1.345-.919 2.198-.919h3.859c1.225 0 2.284-.437 3.151-1.307.87-.873 1.311-1.929 1.311-3.157 0-1.218-.441-2.284-1.311-3.155-.867-.866-1.926-1.31-3.151-1.31M67.451 24.125h-10.76V20.95c0-1.225-.433-2.284-1.314-3.154-.866-.874-1.926-1.311-3.147-1.311s-2.287.437-3.185 1.304c-.884.87-1.342 1.936-1.342 3.161v14.725h-.013l.013.685v.038c.097 3.285 1.311 6.119 3.626 8.437 2.332 2.322 5.177 3.502 8.482 3.502h3.842c1.235 0 2.302-.451 3.172-1.348.856-.884 1.3-1.954 1.3-3.175 0-1.225-.444-2.284-1.314-3.154-.863-.874-1.93-1.311-3.158-1.311h-3.842c-1.978-.117-2.941-1.022-3.12-3.041v-3.254h10.76c1.221 0 2.291-.437 3.154-1.307.87-.873 1.307-1.929 1.307-3.157a4.326 4.326 0 0 0-1.307-3.155 4.325 4.325 0 0 0-3.154-1.31M106.139 44.524v-.615s-.052-.083-.058-.11l-.007-.592s-.035-.031-.059-.058v-.413s-.082-.017-.117-.031v-.141s-.065-.059-.113-.117v-.117l-.196-.2c-.399-.767-1.018-1.393-1.83-1.854-.011 0-.214-.209-.214-.209s-.065.006-.123.006c-.048-.061-.11-.12-.11-.12h-.289a.53.53 0 0 0-.19-.034c-.068-.042-.147-.052-.23-.066 1.751-1.087 2.862-2.803 3.309-5.139l.086-.082-.007-.471a.9.9 0 0 0 .055-.324v-.179l.017-.189.045-.454c-.007-2.205-.798-4.107-2.339-5.672-1.555-1.565-3.453-2.353-5.665-2.353l-3.629.011c-3.165.006-5.916 1.183-8.18 3.498-2.263 2.304-3.408 5.104-3.395 8.314 0 3.212 1.159 6.009 3.433 8.306 2.274 2.295 5.039 3.464 8.194 3.451l7.257-.011c1.462-.007 2.597-.609 3.413-1.771h.368v-.114h.058v-.175h.11v-.293h.121v-.454c0-.006 0-.006.003-.013h.162v-.637c.024-.024.062-.055.062-.055v-.464l.058-.059"/>
    </g>
    <path d="M147.133 42.91c-1.4-1.4-3.075-2.095-5.029-2.095h-2.398c-3.243 0-6.04 1.159-8.365 3.488-1.091 1.09-1.923 2.287-2.497 3.591a8.05 8.05 0 0 0-.503-1.08 7.273 7.273 0 0 0 .967-3.639c0-1.951-.698-3.626-2.102-5.019-1.393-1.407-3.071-2.105-5.022-2.105-1.977 0-3.663.698-5.063 2.105-1.376 1.373-2.064 3.044-2.064 5.019 0 1.355.34 2.562 1.012 3.639a6.886 6.886 0 0 0-1.012 3.643v5.025c-1.372.478-2.5 1.321-3.374 2.532-.877 1.217-1.31 2.603-1.31 4.182 0 1.927.684 3.578 2.056 4.954 1.4 1.399 3.065 2.101 4.988 2.101 3.278 0 6.081-1.159 8.403-3.491 1.428-1.386 2.408-2.965 2.962-4.719.299.512.677 1.004 1.131 1.458 1.376 1.379 3.069 2.06 5.064 2.06 1.977 0 3.663-.681 5.029-2.06 1.399-1.403 2.098-3.092 2.098-5.067v-2.363c1.981 0 3.653-.691 5.029-2.067 1.403-1.393 2.101-3.085 2.101-5.056 0-1.958-.698-3.629-2.101-5.036" fill="#19388a"/>
    <path d="M119.822 57.431c0 1.232-.574 1.992-1.723 2.291-.144.052-.378.09-.681.114-.599 0-1.145.223-1.627.674-.495.454-.733 1.011-.733 1.682 0 .653.23 1.214.688 1.672a2.271 2.271 0 0 0 1.672.698c1.906 0 3.557-.678 4.957-2.026 1.42-1.376 2.15-3.013 2.167-4.919v-7.165c0-.674-.224-1.245-.688-1.699a2.26 2.26 0 0 0-1.669-.698c-.626 0-1.173.223-1.647.674a2.173 2.173 0 0 0-.716 1.647z" fill="#ec4f8f"/>
    <path d="M137.341 52.707c0-.678.234-1.245.695-1.703a2.248 2.248 0 0 1 1.671-.698h2.398a2.27 2.27 0 0 0 1.671-.698 2.24 2.24 0 0 0 .695-1.665c0-.65-.23-1.204-.695-1.672a2.267 2.267 0 0 0-1.671-.695h-2.398c-1.947 0-3.625.702-5.025 2.105-1.4 1.4-2.105 3.079-2.105 5.026v4.726c0 .65.234 1.211.715 1.689.478.478 1.042.715 1.689.715s1.204-.237 1.668-.715a2.334 2.334 0 0 0 .692-1.689z" fill="#78bde6"/>
    <path d="M125.152 47.027l-2.804-1.51-2.824 1.459.575-3.131-2.257-2.246 3.151-.423 1.424-2.841 1.386 2.865 3.148.489-2.308 2.198z" fill="#ffcf3b"/>
    <path d="M111.488 38.968a15.169 15.169 0 0 0 1.193-5.965c-.006-4.055-1.437-7.523-4.279-10.409-1.204-1.245-2.524-2.218-3.962-2.934.309-1.259.34-2.576.027-3.776-.371-1.394-1.032-2.577-1.988-3.557-1.537-1.572-3.422-2.346-5.634-2.315-2.157.01-4.018.819-5.576 2.422l-5.29 5.173-.035.027c-.777.836-1.2 1.82-1.255 2.945a3.658 3.658 0 0 0 0 .554c-1.097.718-2.126 1.585-3.106 2.583a19.265 19.265 0 0 0-2.769 3.55c-.275-2.57-1.376-4.813-3.302-6.735-2.239-2.246-4.933-3.368-8.06-3.368h-4.454c-.801-2.256-2.205-4.072-4.21-5.479-2.006-1.445-4.193-2.164-6.556-2.164-3.172 0-5.879 1.121-8.121 3.371-2.195 2.195-3.299 4.871-3.313 8.021-.117-.13-.234-.261-.358-.381-2.249-2.246-4.939-3.368-8.062-3.368h-3.86c-5.204 0-9.678 1.864-13.408 5.593-3.74 3.732-5.6 8.221-5.6 13.477v7.581c0 3.209 1.1 5.916 3.31 8.125 2.21 2.201 4.92 3.312 8.124 3.312 3.165 0 5.854-1.111 8.059-3.312 2.243-2.246 3.375-4.957 3.375-8.125v-3.787c3.168 0 5.851-1.104 8.062-3.312.124-.121.241-.252.358-.375v.013c.038 5.26 1.902 9.707 5.593 13.36 3.777 3.691 8.249 5.538 13.422 5.538h3.842c3.134 0 5.823-1.131 8.07-3.374 2.242-2.25 3.364-4.933 3.364-8.063 0-2.005-.499-3.87-1.503-5.596a11.911 11.911 0 0 0 2.696-2.394c-.017.33-.027.67-.027 1.007.014 5.067 1.809 9.412 5.386 13.03 3.581 3.622 7.888 5.421 12.906 5.407l7.255-.017c3.064-.007 5.658-1.083 7.756-3.233 2.112-2.157 3.158-4.792 3.154-7.908a11.559 11.559 0 0 0-1.224-5.142M35.05 31.266c-.74.746-1.637 1.118-2.672 1.118h-3.86c-1.042 0-1.93.368-2.672 1.111-.74.743-1.111 1.654-1.111 2.738v7.581c0 1.046-.372 1.95-1.118 2.711-.74.76-1.627 1.142-2.673 1.142-1.042 0-1.944-.382-2.704-1.142-.77-.761-1.15-1.665-1.15-2.711v-7.581c0-3.134 1.13-5.817 3.369-8.063 2.25-2.242 4.939-3.367 8.059-3.367h3.86c1.035 0 1.933.368 2.672 1.107a3.653 3.653 0 0 1 1.115 2.68c0 1.049-.368 1.936-1.115 2.676m35.079 0c-.743.746-1.627 1.118-2.677 1.118H56.019v3.969c.203 2.37 1.472 3.55 3.794 3.55l3.842.124c1.053 0 1.94.368 2.686 1.108.74.743 1.11 1.633 1.11 2.679s-.37 1.95-1.11 2.711c-.746.76-1.633 1.142-2.686 1.142h-3.842c-3.134 0-5.8-1.105-8.008-3.313-2.205-2.205-3.347-4.877-3.433-8.001V20.95c0-1.039.389-1.933 1.149-2.679.764-.743 1.665-1.108 2.71-1.108 1.043 0 1.93.365 2.677 1.108.743.746 1.11 1.64 1.11 2.679v3.853h11.434c1.05 0 1.934.368 2.677 1.107a3.653 3.653 0 0 1 1.11 2.68c0 1.049-.364 1.936-1.11 2.676m20.645-11.148c.743-.722 1.486-1.448 2.236-2.157.746-.715 1.492-1.431 2.242-2.16a2.369 2.369 0 0 1 1.779-.629 2.555 2.555 0 0 1 1.74.791c.836.856.984 1.85.454 2.972-.51.963-1.297 1.427-2.353 1.396l-5.79.286c-.02-.021-.057-.038-.11-.038-.057 0-.116-.028-.171-.09-.12-.113-.127-.244-.027-.371m11.203 20.339c1.895 0 3.429 1.658 3.429 3.711 0 2.047-1.534 3.712-3.43 3.712l-7.446.017c-2.99.01-5.562-1.077-7.722-3.257-2.15-2.174-3.234-4.782-3.237-7.829-.01-3.037 1.063-5.652 3.209-7.839 2.136-2.195 4.702-3.289 7.698-3.299l3.633-.007c2.029-.007 3.752.712 5.173 2.15 1.434 1.441 2.146 3.175 2.146 5.201 0 .781-.165 1.517-.165 1.517-.608 3.24-2.56 5.177-5.861 5.809 0 0-.254.045-.347.055l-.396.066 3.316-.007" fill="#19388a"/>
    <path d="M94.498 33.044c.994 0 1.851.361 2.563 1.08.708.712 1.069 1.603 1.069 2.656a3.586 3.586 0 0 1-1.059 2.603c-.709.719-1.562 1.091-2.556 1.091-1.039 0-1.909-.358-2.617-1.08a3.553 3.553 0 0 1-1.077-2.594c0-1.052.347-1.943 1.056-2.669.719-.719 1.582-1.087 2.621-1.087" fill="#19388a"/>
</svg>
