<svg version="1.1" viewBox="0 0 600 128.47" xmlns="http://www.w3.org/2000/svg">
 <g fill="#188fd7" stroke-width="3.7795">
  <path d="m217.02 110.7c-18.38 0-33.86-13.15-36.63-31.821h34.81c3.85 0 12.23 0.793 12.23 0.793v-15.458s-8.23 0.605-12.82 0.605h-34.22c3.43-18.293 18.45-30.917 36.63-30.917 9.61 0 21.42 4.422 21.42 4.422l0.22-16.289s-8.4-3.175-21.64-3.175c-30.6 0-57.4 23.471-57.4 53.367 0 32.353 26.8 54.203 57.4 54.203 14.41 0 23-3.86 23-3.86l-0.41-16.82s-10.6 4.95-22.59 4.95"/>
  <path d="m112.83 126.01s1.16-7.82 1.16-14.63v-74.227h-5.01c-6.82 0-17.368 0-25.154 0.793l-0.657-17.272h81.241l-0.37 17.272c-8.05-0.793-18.41-0.793-25.42-0.793h-6.18v74.227c0 6.81 1.37 14.63 1.37 14.63z"/>
  <path d="m238.81 12.094c-5.98-1.7-13.81-2.8719-20.36-2.8719-17.83 0-33.2 5.4429-46.04 16.895l0.19-12.662c13.59-9.2975 29-13.455 45.85-13.455 7.38 0 13.78 1.0205 20.56 2.759z"/>
  <path d="m35.773 18.444c-20.976 0-35.357 1.021-35.357 1.021-2.5e-4 0 0.9484 10.393 0.9484 15.609v76.496c0 7.03-1.3644 14.44-1.3644 14.44h21.173s-1.364-7.41-1.364-15.84v-31.102l19.899 20.863 10.072 10.469c6.199 6.8 17.016 15.61 17.016 15.61h27.991s-12.51-8.81-18.338-14.44l-28.234-27.286c17.371-1.663 31.994-14.476 31.994-31.106 0-17.688-10.178-33.373-40.501-34.62-1.251-0.038-2.57-0.114-3.935-0.114zm0.197 14.854c1.319 0 2.596 0.113 3.738 0.151 14.116 1.209 19.922 8.882 19.922 18.142 0 10.393-8.179 18.255-19.922 19.956-1.516 0.188-3.122 0.264-4.751 0.264h-15.148v-38.287s7.366-0.226 16.161-0.226z"/>
  <path d="m408.06 24.189c0 2.759-0.04 8.013-0.04 12.775 0 1.625 0.04 75.626 0.04 85.866 0 2.12 2 3.29 3.29 3.29 1.28 0 6.65 0.04 9.18 0.04 1.59 0 3.36-1.44 3.36-3.29l0.04-38.927-0.04-28.762c0-0.113 0.04-1.814 0.04-2.872 0-0.567 0.53-0.907 0.91-0.907 0.26 0 0.41 0.075 0.68 0.264 2.19 1.852 54.95 67.764 59.19 73.024 0.94 1.17 1.92 1.47 2.79 1.47h9.11c1.06 0 1.55-0.34 2.23-0.83 0.45-0.34 1.17-1.47 1.17-2.27-0.07-2.83 0.04-13.3 0-33.258-0.11-32.618 0-63.799-0.03-65.689 0-0.491-0.19-1.436-0.87-2.154-0.68-0.794-1.63-1.134-2.42-1.134-1.25 0-7.26-0.038-9.19 0-0.79 0.038-1.47 0.189-2.19 0.832-0.76 0.68-1.17 1.512-1.17 2.494v70.602c0 0.189-0.23 0.605-0.53 0.718-0.49 0.151-0.91 0.113-1.25-0.416-1.55-2.419-56.35-69.732-59.22-73.02-0.76-0.945-1.7-1.285-2.65-1.285-1.09 0-8.01-0.038-8.99 0-0.8 0-1.74 0.302-2.42 0.982-0.61 0.567-1.02 1.399-1.02 2.457"/>
  <path d="m598.32 20.787h-8.69c-11.8-0.075-32.43 0-38.52 0.038-13.04 0.076-13.42 0.038-18.37 0.038-5.14 0-6.95 2.343-8.31 4.12-1.4 1.776-1.85 3.439-1.85 6.576 0 7.899-0.08 78.351-0.08 85.081 0 4.3 3.59 9.48 9.6 9.48 4.91 0 24.49-0.07 37.8-0.03 10.58 0 22.11-0.04 26.64-0.04 1.36 0 2.19-0.8 2.61-1.29 0.45-0.53 0.76-1.36 0.76-2.27 0-1.05 0.03-2.07 0.03-3.55v-3.78c0-0.9-0.19-1.89-1.13-2.76-0.91-0.83-1.66-0.87-2.23-0.87-5.44 0-11.3-0.07-15.72-0.11-4.65-0.04-22.38 0.08-31.18 0.04-7.03 0-8.24 0.3-9.91-0.87-1.7-1.25-1.13-4.42-1.13-10.55 0-7.819 0-15.492-0.04-21.577h41.2c0.6 0 4.84 0.038 7.75 0 1.06 0 2.04-0.605 2.42-0.983 0.6-0.68 0.83-1.36 0.94-1.965 0.3-1.814 0.68-3.704 0.95-5.594 0.3-1.927 0.52-3.061 0.68-4.119 0.15-0.87-0.76-1.777-1.67-1.739-1.06 0-1.4-0.038-3.13-0.038-1.48 0-35.19-0.038-49.14-0.038 0-8.617-0.04-19.275 0.04-25.322 0-1.437 0.57-2.117 1.13-2.646 0.57-0.454 1.33-0.832 2.16-0.832 0.94-0.037 1.85 0 2.95 0 4.34 0 11.56-0.037 16.51 0h33.75c0.65 0 1.63-0.189 2.38-1.02 0.8-0.832 0.8-1.587 1.18-3.969 0.45-2.57 0.98-5.253 1.28-7.407 0.15-1.059-0.64-2.041-1.66-2.004"/>
  <path d="m336.89 19.465c-29.52 0-53.35 24.68-53.35 54.689 0 30.006 23.87 54.316 53.39 54.316 29.55 0 53.59-24.31 53.59-54.316 0-30.009-24.08-54.689-53.63-54.689zm0.07 15.382c20.49 0 36.85 16.366 36.85 38.665 0 21.959-16.21 39.458-36.81 39.458-20.86 0-36.7-17.159-36.7-39.458 0-22.488 15.91-38.665 36.66-38.665z"/>
 </g>
</svg>
