<svg enable-background="new 0 0 1000 632.2" version="1.1" viewBox="0 0 800 505.76" xml:space="preserve" xmlns="http://www.w3.org/2000/svg">
<g transform="scale(.8)" fill="#69923a">
	<path d="m63.391 550.53c1.435 2.527 2.883 6.281 2.883 14.796v41.946c-0.037-0.037-26.132-34.83-26.132-34.83l-8.085-11.839-7.103-10.355c-2.135-2.675-4.172-2.675-6.76-2.675h-18.194l3.631 3.435c3.263 3.055 3.521 8.821 3.521 14.955v26.267c0 10.76 0 25.469-4.38 35.198l-1.263 2.797h21.199l-1.276-2.797c-3.546-7.778-3.754-18.292-3.754-27.15v-32.818c2.699 3.619 47.086 63.281 47.086 63.281h12.33l-0.197-5.042-0.208-8.404v-49.405c0-7.263 1.178-12.771 3.717-17.372l1.644-2.945h-20.303zm55.625 36.217c1.914-4.429 10.195-23.543 10.195-23.543 0.025-0.061 0.233-0.479 0.417-0.859 0.159 0.319 0.331 0.675 0.331 0.675s6.76 19.458 8.244 23.727zm24.782-29.629-3.251-9.557-18.759 0.012-0.135 5.263c0 9.741-26.586 61.931-33.934 70.679l-5.606 6.711h22.782l-0.638-6.649c0-6.11 5.103-16.955 10.76-27.911h26.892c0.932 2.27 14.269 34.56 14.269 34.56h18.856l-4.38-7.52c-11.521-20.158-19.323-43.247-26.856-65.588m428.93 0.565c9.508 0 15.372-2.478 17.433-7.361l1.166-2.748h-70.213l-4.674 15.9 4.711-3.411c2.699-1.975 5.202-2.38 8.134-2.38h15.397v54.386c0 5.325 0 11.373-2.552 15.041l-2.147 3.116h25.052l-2.147-3.092c-2.527-3.693-2.527-9.741-2.527-15.066v-54.386h12.367zm259.55-7.104 1.791-3.006h-24.721l1.73 2.981c2.503 4.294 2.711 9.189 2.711 15.152v15.679h-34.72v-15.679c0-5.729 0.221-10.821 2.748-15.152l1.73-2.981h-24.733l1.754 2.994c2.589 4.38 2.81 9.447 2.81 15.139v46.362c0 5.693-0.221 10.796-2.81 15.176l-1.766 2.981h24.745l-1.742-2.969c-2.527-4.343-2.736-9.238-2.736-15.188v-21.813h34.72v21.813c0 4.944 0 10.551-2.699 15.188l-1.742 2.969h24.721l-1.791-2.993c-2.589-4.319-2.798-9.214-2.798-15.164v-46.362c0-5.729 0.221-10.82 2.798-15.127m65.918 7.104c9.508 0 15.336-2.478 17.323-7.386l1.128-2.724h-70.126l-4.625 15.839 4.649-3.349c2.761-1.975 5.239-2.38 8.098-2.38h15.446v54.386c0 5.325 0 11.385-2.503 15.066l-2.085 3.092h25.064l-2.208-3.116c-2.564-3.68-2.564-9.729-2.564-15.041v-54.386h12.403zm-177 61.219c-9.655 0-17.237-3.104-22.488-9.238-4.858-5.68-7.435-13.692-7.435-23.2 0-7.386 1.927-31.518 26.66-31.518 12.244 0 16.268 5.054 19.335 10.207l3.484 5.84 0.589-6.797 0.54-17.556-13.593-0.564-10.244-0.429c-26.892 0-44.289 17.372-44.289 44.277-0.086 12.317 4.085 23.359 11.765 31.088 7.263 7.324 17.115 11.189 28.488 11.189 21.163 0 31.775-12.256 31.775-19.114v-5.619l-3.4 3.533c-2.294 2.38-8.955 7.901-21.187 7.901m221.26-32.155c1.927-4.429 10.195-23.543 10.195-23.543 0.037-0.098 0.246-0.503 0.442-0.883 0.172 0.356 0.344 0.724 0.344 0.724s6.736 19.433 8.208 23.703h-19.189zm24.917-29.273-3.373-9.913-18.673 0.012-0.294 5.202c0 9.79-26.512 61.98-33.848 70.74l-5.644 6.711h22.758l-0.577-6.649c0-6.846 6.711-20.096 10.735-27.911h26.856c0.932 2.27 14.256 34.56 14.256 34.56h18.906l-4.356-7.52c-11.447-20.035-19.225-43.014-26.746-65.232m-539.09 63.857h-13.066v-29.211h1.264c8.968 0 23.96 0 29.125-7.938l2.221-3.411-4.061 0.368c-9.3 0.822-19.053 0.859-28.549 0.859v-25.531h10.158c6.061 0 13.581 0.466 18.108 4.159l3.496 2.834-0.908-15.888h-51.197l2.098 3.104c2.503 3.705 2.503 9.729 2.503 15.029v46.362c0 5.018-0.331 11.238-2.895 15.078l-2.061 3.079h41.467l10.637-0.417 3.546-0.233 3.803-18.354-4.355 3.607c-6.465 5.388-15.175 6.504-21.334 6.504m-95.363-34.584c1.926-4.429 10.195-23.555 10.195-23.555 0.025-0.061 0.221-0.503 0.417-0.932 0.148 0.38 0.307 0.724 0.307 0.724s6.723 19.494 8.183 23.764h-19.102zm24.906-29.199-3.386-9.986-18.796 0.012-0.135 5.263c0 9.754-26.598 61.931-33.946 70.679l-5.594 6.711h22.77l-0.589-6.649c0-6.22 5.337-17.483 10.735-27.911h26.831c0.957 2.27 14.304 34.56 14.304 34.56h18.906l-4.392-7.52c-11.484-20.024-19.225-42.953-26.708-65.159m136.63 63.783h-7.901v-55.625c0-5.3 0-11.324 2.539-15.029l2.11-3.104h-25.027l2.123 3.104c2.527 3.705 2.527 9.729 2.527 15.029v34.572c0 10.526-1.252 23.396-3.987 26.696l-2.687 3.251h40.474l9.618-0.417 0.221-1.472 3.889-17.654-4.613 4.208c-5.901 5.374-11.753 6.441-19.286 6.441m-221.85-31.235c2.565 3.767 2.565 9.778 2.565 15.078v6.048c0 3.632-0.136 7.373-1.043 10.943-2.012 0.159-8.012 0.638-8.012 0.638-28.72 0-34.757-19.36-34.757-35.603 0-16.035 10.343-32.254 30.095-32.254 9.705 0 16.771 2.503 25.175 8.87l3.178 2.392v-19.139l-7.435-0.601-14.269-0.822c-33.971 0-54.251 16.967-54.251 45.357 0 26.941 16.636 41.197 48.117 41.197 9.852 0 20.636-0.761 28.132-2l1.803-0.294-1.042-12.354v-12.379c0-5.3 0-11.324 2.552-15.103l2.073-3.067h-24.979zm344.46-3.349c1.926-4.429 10.183-23.555 10.183-23.555 0.037-0.061 0.221-0.466 0.392-0.846 0.159 0.307 0.319 0.662 0.319 0.662s6.772 19.47 8.281 23.739zm25.113-28.598-3.595-10.588-18.758 0.012-0.208 5.251c0 9.52-26.77 62.275-33.886 70.678l-5.496 6.723h22.611l-0.552-6.649c0-6.367 5.618-18.072 10.747-27.911h26.905c0.932 2.294 14.17 34.56 14.17 34.56h18.881l-4.331-7.52c-11.361-19.838-19.041-42.571-26.488-64.556m306.27-133.37c-0.319 0.528-0.687 1.104-1.043 1.632-0.061 0.528-0.085 1.116-0.147 1.705 1.522 0.135 1.19-2.172 1.19-3.337m12.367-55.797c0.123-1.448-0.809-2.662-1.361-3.644 0.183 0.932 0.343 1.803 0.613 2.711-0.061 0.27-0.061 0.528-0.172 0.834 0.331 0.074 0.614 0.099 0.92 0.099m35.064 50.35c-0.393 1.166-0.81 2.233-1.215 3.374 1.742-0.098 3.496-0.172 5.251-0.356 0.025-0.27 0.061-0.528 0.073-0.81-1.607-0.196-2.81-1.546-4.109-2.208m-72.924-46.302c-0.073 0.331-0.073 0.564-0.123 0.859-1.435-0.135-0.908 0.405-0.994 1.644 1.558 0.123 1.313-1.411 1.117-2.503m-118.69 56.46c1.129 3.055 0.123 4.282 0.27 6.257-0.491-2.969-0.785-5.938-1.018-8.907 0.319 1.239 0.602 2.233 0.748 2.65m-9.618 7.582c0.258 3.251 1.178 5.275 0 8.441 0.196 0.037 9.263 14.317 11.226 16.047-0.221 1.767-1.718-3.313-3.018-2.172-0.049 0.294-0.049 0.552-0.073 0.859-0.294-0.049-0.565-0.11-0.859-0.11-0.025 0.307-0.025 0.54-0.086 0.834 3.497 0.393 12.858 18.623 16.919 21.752 9.508 7.214 21.175 21.58 33.296 24.61 5.607 1.435 7.042 11.25 13.127 12.109 0 0.282-0.012 0.528-0.049 0.834-0.908-0.098-1.754-0.184-2.625-0.258 0 0.27-0.049 0.564-0.073 0.871 6.601 0.613 14.268 1.129 20.108-0.638 0.613 0.037 1.178 0.123 1.706 0.184 0.073-0.601 0.172-1.19 0.172-1.73-0.221-0.049-0.552-0.049-0.81-0.123 0.11-1.485-2.282-0.417-3.447-0.258 0-0.319 0.012-0.601 0.049-0.92 0.307 0.037 0.577 0.086 0.859 0.086 0.098-0.883 8.098-0.393 9.693-0.307 8.244 0.258 2.22 2.54 9.361 3.03 12.305 0.908 23.027-0.945 31.91-5.226 5.484-2.65 6.294-8.784 11.827-11.152-0.209 1.791 1.509-0.663 3.091-0.123 3.484 1.19 6.061-2.969 8.748-5.901 1.03-1.693 5.373-2.576 6.428-4.282 1.718-2.171 4.601-2.024 6.11-3.901h0.012v-0.012c0.135-0.172 0.233-0.368 0.344-0.577-0.098 0-0.159 0.012-0.258 0.012 1.018-8.441 5.631-9.361 8.784-16.82 1.104 0.123 0.908-0.184 0.821 0.957 2.025-0.086 3.999-0.172 6.11-0.233 0.318-3.411-1.006-6.466-2.565-9.152 0.148-1.399 1.742-1.472 2.846-2.343 1.129 0.135 0.81 0.405 0.982-0.785 0.27 0.049 0.515 0.098 0.797 0.11 0-0.258-0.11-0.503-0.209-0.81-0.589-2.098 0.209-4.441 0.209-6.932-0.454-3.263 1.447-2.196 1.043-5.386-0.111-3.496-0.221-6.895-0.234-10.379 0.013-0.491 0.332-0.883 0.356-1.472 0.282 0.061-2.674 0.454-2.38 0.503 0-0.405 8.588-2.589 9.63-3.226-0.858 0.184-1.766 0.368-2.687 0.577 0 0-2.172-9.864-2.355-11.459-2.884-0.282-3.386-1.472-3.043-3.178 0.123 0.037 0.197 0.061 0.258 0.086-0.085-0.294-0.024-0.626-0.037-0.932 0.209-0.687 0.503-1.435 0.81-2.221-0.172-0.025-0.368-0.025-0.553-0.049 0.43-1.619 1.018-3.288 0.601-4.76-2.454-8.784-9.177-16.648-11.471-25.273-0.687-4.245-1.46-8.477-2.159-12.759-1.227-1.337-2.479-2.613-3.755-3.914-4.76-5.484-3.423-7.729-12.011-8.269-0.123 0.847 4.625 7.226 5.177 9.14 1.693 0.196-0.466 1.693-1.104 2.466 1.938 0.209 1.754 3.043 2.172 4.576 0 0.282-0.049 0.54-0.074 0.859-0.577-0.098-1.153-0.147-1.742-0.209 0.404-4.184-9.238-14.857-11.766-18.697-1.509-2.711-3.054-5.361-4.601-8.085-0.356 0.037-0.773 0.037-1.079 0.049 0.147-1.791-2.38-1.313-3.128-2.675-0.712-2.172-1.424-4.294-2.098-6.429 0.025-0.613 0.123-1.19 0.171-1.754-0.27-0.025-0.589-0.025-0.871-0.037-0.037 0.258-0.061 0.515-0.11 0.785-1.227-0.074-1.399 0.589-1.902 1.546-3.373-0.294-11.937-5.68-14.942-7.496 0.233 0.294 0.515 0.663 0.797 0.969-0.037 0.282-0.073 0.54-0.073 0.847-4.171-0.405-9.336-1.644-13.066-0.405-11.004-1.116-18.672-0.528-26.561 6.294-1.841 1.534-3.595 3.202-3.165 6.011 1.202 9.14 25.788 6.024 32.303 6.024-0.037 0.65-0.111 1.202-0.159 1.754-0.479 0-0.38 11.078-0.467 13.802 3.239 0.282 3.497 0.724 5.815 3.153 0.025-0.307 0.074-0.613 0.074-0.883 0.294 0.025 0.589 0.074 0.871 0.074 0.061-0.245 0.061-0.54 0.098-0.834 0.687 0.061 0.65-1.031 0.711-2.159 0.651 0.515 1.313 1.031 1.951 1.534 0.111-1.08 0.344-0.81-0.785-0.957 0.098-1.031-0.295-0.982-1.129-0.969 0.061-0.638 0.172-1.251 0.528-1.644 0.11-1.374 0.479-0.896 1.668-0.859 7.361 0.135 5.84 10.195 1.841 9.827-1.166-0.11 0.797 6.22 0.932 7.864 1.178 0.135 2.318 0.245 3.459 0.368 0.025-0.294 0.098-0.601 0.098-0.896 1.485 0.196 0.957-1.288 1.129-2.454 1.165-7.68 6.183-8.441 13.041-9.091-0.258 2.564 2.92 4.699 3.926 6.821 0.65 2.27 1.337 4.355 2.024 6.564 1.19 2.466 2.294 4.907 3.386 7.398 1.03 0.086 0.834 2.785 2.27 3.656 0 0.294-0.037 0.564-0.086 0.834 1.423 0.196 2.282 16.489-1.128 19.065-0.025 0.613-0.049 1.178-0.123 1.742 1.337 0.135 1.018 1.509 1.055 2.687 0.049 5.791 0.957 14.452-2.675 18.182-0.037-0.663-0.969-2.012-2.11-3.521-3.312 1.865-4.601 5.41-6.698 8.392-3.816 5.275-7.643 10.404-11.459 15.593-1.742 3.043-6.563 4.785-8.318 7.778-0.037 0.294-0.098 0.528-0.098 0.822 5.373 0.552 22.635-19.127 24.61-23.421 0.307 0 0.626 0.123 0.908 0.123-0.601 5.864-12.06 17.74-11.716 22.132-0.172 1.411-0.687 0.834-1.829 0.712-0.085 0.847-1.84 0.712-3.067 0.834 0.528 0.245 0.933 0.687 0.344 0.65-0.025 0.135-0.723-0.012-1.459-0.172-0.037 0.282-0.049 0.54-0.049 0.761-0.331-0.037-0.626-0.037-0.896-0.037 0.049-0.27 0.049-0.552 0.086-0.871 0.061 0.012 0.122 0.012 0.183 0.012-0.552-0.123-1.042-0.209-1.042-0.11-1.19-0.123-2.663 0.969-3.62 1.386-0.122 1.018 0.786 2.159 1.485 2.748-0.331 3.178-9.079 5.239-11.41 7.447-2.123 1.963-5.999 2.086-8.882 3.411-3.3 1.423-7.312 2.307-11.165 2.037-0.049 0.319-0.098 0.589-0.122 0.847-2.086-0.159-2.061 4.036-3.693 4.932-0.27-0.012-0.577-0.049-0.859-0.049 0.123-1.399-2.16-0.748-3.349-1.227-6.993-0.663-13.728 2.343-21.101 1.374 0 0.307-0.049 0.552-0.049 0.834-2.76-0.221-7.753-2.417-9.753-0.981-5.508-0.515-5.423-14.526-10.158-16.489-0.184 2.257 0.282 4.981 1.128 7.03-0.613-0.123-1.165-0.184-1.791-0.221 0.123-1.141 0.393-0.822-0.773-0.945-0.073 0.589-0.123 1.166-0.159 1.742 2.085 0.159 3.386 1.779 4.956 3.079-0.037 0.27-0.061 0.577-0.061 0.797-3.767-0.344-14.096-3.607-16.967-6.061-6.294-5.398-9.005-14.293-15.286-19.703-7.496-7.913-10.477-16.207-11.913-24.549 0.11 0.589 0.306 1.239 0.711 2.037 2.073 4.134 2.196 5.14 4.478 8.269 1.313 2.576 2.073 6.748 2.859 8.404 2.908 5.128 13.164 14.796 17.911 18.562-0.012 0.307 0.553 1.926 0.553 2.294 0.208 0 0.809-0.994 1.288-1.632-1.987-2.233-4.368-6.11-5.202-7.091-8.122-9.802-14.489-19.114-19.458-30.463-3.177-7.3-1.386-13.863-3.361-17.593-2.417-5.545 0.368-19.053-2.037-24.635-2.122-4.404-0.085-5.876-0.417-10.907-2.613-0.258-1.128 13.961-0.932 16.612-0.601-0.086-1.19-0.123-1.73-0.184 0.098-1.288-0.687-1.816-1.534-2.736 0.025-0.233 0.025-0.564 0.135-0.822-0.577-0.061-1.153-0.159-1.754-0.196-0.196 1.791 0.135 3.754-1.497 4.22-1.153 11.839-3.227 18.611-1.668 29.248-0.208 2.273 1.864 5.107 1.668 7.279m152.25 71.831c0 0.319-0.049 0.564-0.098 0.847-1.558-0.135-0.614 0.847-0.123 1.754 0.037-0.908 0.123-1.754 0.221-2.601m-5.73 9.876c0.246-2.441 2.786-4.735 4.92-5.582 0.025-0.503 0.098-1.129 0.159-1.693-0.883-0.061-1.717-0.184-2.601-0.27-0.994 1.35-2 2.736-3.03 4.024-0.319 0.797-0.711 1.693-1.08 2.49 0.319 0.037 0.601 0.098 0.908 0.098-0.086 0.27-0.086 0.552-0.123 0.859 0.283 1e-3 0.565 0.05 0.847 0.074m-674.72-152.34c0.589-1.423 2.404-6.883 5.116-6.883 2.773 0 4.576 4.883 5.19 6.883l21.286 61.416h-58.006zm-31.591 72.85h68.274l33.174 80.309h32.794l-6.086-10.6c-30.364-53.049-49.81-115.27-69.268-172.36h-35.824l-0.306 7.766c0 23.506-62.558 146.57-79.904 167.22l-6.662 7.974h37.995c-0.638-3.705-0.944-7.128-0.944-10.907 0-16.329 13.704-44.386 26.757-69.402m-196.82-80.26c0-4.564 0.294-9.508 0.601-13.777h14.256c27.039 0.552 44.362 3.987 44.362 32.72 0 27.211-16.084 42.118-45.565 42.118-4.576 0-9.115-0.27-13.654-0.871zm6.686 160.57c-6.686-9.729-6.686-24.672-6.686-37.554v-51.613c17.605 1.46 19.74 6.281 32.487 23.518l37.063 49.933c6.637 9.14 12.44 15.716 25.518 15.716h24.881c-12.403-10.907-16.673-15.507-25.531-26.684l-52.828-68.789c21.863-8.318 44.976-25.518 44.976-51.883 0-22.439-16.145-38.474-47.062-38.474-23.727 0-47.994 2.871-73.513 2.871 6.687 9.766 6.687 24.66 6.687 37.566v106.11c0 12.354 0.589 26.107-8.232 39.284h42.24zm710.91-182.96h-40.657c6.661 9.766 6.661 24.66 6.661 37.566v107.84c0 12.882 0 27.825-6.661 37.554h40.657c-6.65-9.729-6.65-24.672-6.65-37.554v-107.84c0-12.906 0-27.8 6.65-37.566m-352.47 182.96h40.695c-6.637-9.729-6.637-24.672-6.637-37.554v-107.84c0-12.906 0-27.8 6.637-37.566h-40.695c6.674 9.766 6.674 24.66 6.674 37.566v107.84c1e-3 12.883 1e-3 27.826-6.674 37.554m526.75-50.509c-0.258 0-0.466 0-0.687-0.012 0.234 0.037 0.43 0.074 0.675 0.135 0-0.049 0-0.074 0.012-0.123m-397.1-108.08c0-4.539 0.245-9.164 0.245-13.458 6.724-1.141 17.655-2.294 28.929-2.294 54.3 0 82.861 31.272 82.861 80.886 0 47.037-19.126 83.155-73.181 83.155-32.843 0-38.854-1.165-38.854-21.789zm-34.082 158.59c21.31 0 42.522 1.153 73.255 1.153 57.711 0 104.46-35.566 104.46-99.522 0-51.343-34.634-87.462-85.351-87.462-30.99 0-61.649 2.871-92.369 2.871 6.686 9.766 6.686 24.66 6.686 37.566v107.84c0 12.883 0 27.826-6.686 37.554m431.19-50.509c0.171-0.221 0.601-0.307 1.104-0.356-0.479-0.22-1.055-0.282-1.104 0.356m-41.099-201.56v1.264c0.76 0 0.613-1.092 0-1.264m-25.126 29.567v0.368h0.442c-0.184-0.368-0.319-0.797-0.442-1.276 0.822 0 1.558-0.81 2.123-1.276 0 1.521 2.392 1.914 3.385 2.184-0.085-0.736-0.245-1.448-0.404-2.184 0.552 0 0.404-0.123 0.404 0.454 0.761 0.209 1.497 0.442 2.209 0.65 2.233 0.344 3.423 0.344 5.066 1.926v0.405c0.577 0 0.896-0.442 1.264-0.883h0.454v0.478c0.786 0 0.454 2.257 0.454 3.018h0.834v-0.466c0.613 0 0.037-6.367 0.405-7.705 0.908 0 1.816-0.025 2.589 0.429h0.417c0-2.564 3.778-2.122 5.496-2.294 0.786-0.123 1.534-0.27 2.245-0.454 0.847 0.356 1.693 0.687 2.491 1.055 0 0.932 0.749-1.288 0.847-1.693 1.742 0 6.637 4.49 8.085 5.975 0-0.613 0.405-0.65 0.859-0.896 0-0.564-0.135-0.405 0.454-0.405v0.405c0.515 0 0.797 0.466 1.288 0.491 1.411 0.282 2.344-0.81 3.411-1.276 0-0.65-0.184-0.503 0.392-0.503 0 0.773 1.534 1.055 2.147 1.165 2.282 0.307 4.564 0.601 6.81 0.932 5.005 1.73 9.802 3.803 15.384 4.552 3.901 0.515 7.189-0.748 10.649-1.055 0-0.613-0.675-1.215-0.846-1.754 1.325 0 1.705-1.435 1.681-2.552h0.404c0-0.687 0.38-0.368 0.81-0.27 2.858 0.699 5.987 3.901 7.753 6.318 0.712-0.172 1.411-0.294 2.123-0.466 0 0.896 1.055 1.607 1.607 2.221 4.232 4.355 9.005 6.588 15.422 6.784v-0.834c-0.54 0-0.38 0-0.601-0.294-1.374-1.902-2.723-4.098-4.711-5.435-1.239-0.638-2.503-1.264-3.778-1.963-1.509-1.399-1.288-2.969-2.294-4.539-1.557-2.417-5.349-3.668-7.766-4.908 0-2.871-7.055-3.546-8.968-4.282h-0.417c0 0.54 0.098 0.417-0.418 0.417v0.859h-0.49c-0.086-0.859-0.221-1.681-0.356-2.564-0.613 0-0.454-0.159-0.454 0.417-0.97-0.159-1.987-0.282-2.957-0.417h-1.251c0.111-0.871 0.233-1.718 0.392-2.589-0.76-0.147-1.459-0.319-2.172-0.405v-0.442h-0.417c0 1.534-1.509 1.951-2.539 2.564v0.429c-0.651 0-1.19-2.368-1.693-2.993-0.982 0-0.859 1.718-0.884 2.564h-0.836c0-3.435-0.932-6.417 2.098-8.576v-0.393c-1.595 0-1.877-2.122-1.656-3.472-1.03 0-2.073-0.405-3.018 0-1.435 0-3.128 0.258-4.257 0.896-0.785 0-0.159 1.092 0 1.705h-1.301c-0.122-0.564-0.258-1.153-0.417-1.705h-0.417c-0.441 1.423-0.846 2.81-1.276 4.282-1.349 0-3.287-2.356-3.84-3.435-0.699 0-0.429 1.08-0.429 1.73-0.552 0-0.417 0.135-0.417-0.454-0.565 0.147-1.153 0.282-1.706 0.454v0.393h-1.313c0-0.699 0.515-1.215 0.872-1.73-0.699 0-1.46-1.3-2.135-1.693 0-0.724 0.748-1.3 1.263-1.681v-0.454c-1.178 0-1.693-0.589-2.514-1.276-1.154 0.528-2.319 1.104-3.448 1.73-1.227 0.123-2.515 0.245-3.828 0.38v0.429c-0.711 0-0.417-0.663-0.417-1.264h-0.392v0.454c-0.467 0.123-0.908 0.245-1.325 0.38-2.723 0-3.926 1.607-5.508 3.46v0.417h-0.847c-0.159-0.699-0.27-1.411-0.442-2.122h-0.846v0.405c-0.43 0.147-0.859 0.307-1.289 0.442h-2.981v-0.442h-0.429c-0.601 2-1.951 3.644-3.926 4.319-2.577 0.797-5.41 0.687-7.925 1.497-5.767 1.791-14.195 6.809-16.98 12.686-0.748 1.546-0.859 3.693-1.006 5.496h0.834c0-3.029 3.938-1.507 5.116-0.845m74.788 41.197c-0.859-0.098-1.73-0.16-2.564-0.282 0.712 0.381 1.767 0.577 2.564 0.282m20.685-46.767v0.834c0.601 0 0.54-0.086 0.908-0.393-0.565 0-0.405 0.049-0.405-0.442h-0.503zm-9.091 62.569c1.227 0.11 1.276-0.503 1.828-1.558-0.552-0.012-1.165-0.074-1.73-0.147-0.061 0.552-0.061 1.19-0.098 1.705m7.422-65.575h0.871c0 0.822 1.829 1.08 2.565 1.313v-0.429c-1.877 0-3.497-2.65-4.92-3.631-1.276-0.932-2.417-1.3-4.049-1.534 1.754 2.135 3.129 4.134 5.141 5.999 0.687 0 0.392-1.117 0.392-1.718m23.482 24.378c0-0.712-0.724-0.393-1.301-0.393 0.123 0.27 0.295 0.577 0.38 0.859 0.492 0 0.615-0.147 0.921-0.466m-97.853 146.56c4.404-0.368 20.341-4.368 23.678-6.637 7.018-4.858 13.434-21.065 13.986-29.898-0.306-2.932-0.638-5.828-0.92-8.747-0.159-2.576-0.282-5.153-0.454-7.742-4.772-10.882-20.353-28.156-33.002-17.102-2.38 2.098-4.588 3.938-4.956 7.3-0.417 3.411 1.963 6.404 2.491 9.766-0.822-0.147-1.766-0.172-2.613-0.258-0.085 1.08 0.234 0.847-0.908 0.773-0.159 1.632-2.404 0.797-3.632 1.35 0.184 1.202 0.344 2.368 0.515 3.484-1.816-0.147-4.196 5.03-4.956 6.453 2.356 0.233 2.711 5.472 2.81 7.189 0.294 0 0.565 0.049 0.822 0.061 0.184-1.399 0.773-1.19 1.939-1.521-0.074 0.307-0.074 0.54-0.123 0.859 0.625 0.086 1.178 0.11 1.754 0.172-0.724 7.03-6.637 3.374-10.882 4.134-1.165 0.196-2.319 0.307-3.496 0.503 0.012-0.294 0.012-0.564 0.073-0.859-0.613-0.025-1.19-0.123-1.779-0.159 0.282-2.356-7.974-2.638-11.041-2.785 0.196-2.061-1.583-4.466-2.233-6.22-1.829-4.711-4.061-10.17-4.491-15.336-0.859-9.483 5.288-16.108 8.048-23.359 1.374-3.742 2.699-7.459 4.012-11.213 2.956-3.288 5.925-6.588 8.894-9.876 1.447 0.172 0.54-0.908 0.172-1.718 0.147-1.718-2.699-1.865-4.171-2.135-11.705 5.668-15.078 13.324-20.955 23.715-3.3 5.803-6.834 11.262-8.085 18.391-0.331 5.128-0.663 10.293-0.969 15.458-0.589 6.551-1.117 12.636 0.969 18.194 6.085 16.267 31.628 28.928 49.503 27.763m102.11-145.68h-1.313c-0.258 0.159-0.589 0.282-0.809 0.417v0.442h-0.478v0.429h2.601v-1.288zm-20.905-25.261v0.417h0.466v-0.417h0.392v-0.859c-0.81 0-1.46-0.626-2.135-0.822 0.258 0.405 0.577 0.822 0.847 1.251 1e-3 0.565-0.171 0.43 0.43 0.43m11.949 22.292c-0.135 0.258-0.307 0.552-0.442 0.847-0.699 0-0.429 0.258-0.429 0.847 0.737-1e-3 1.104-1.08 0.871-1.694m17.79 109.24c1.534 0.147 0.552-1.57 0.233-2.527-0.331 0.503-0.711 1.067-1.067 1.546 1.165 0.147 0.932-0.16 0.834 0.981m-159.55 55.92c-0.025 0-0.049-0.037-0.073-0.037 0.023 0.258 0.048 0.344 0.073 0.037m110.21-45.835c0.54 1.276 2.405 3.57 3.963 5.631 0.319-0.172 0.553-0.429 0.92-0.564 0.724-0.356-3.804-3.509-4.883-5.067m25.04 58.459c-0.282-0.074-0.625-0.074-0.871-0.135-0.073 0.221-0.196 0.393-0.294 0.577 0.551 0.049 1.116 0.098 1.165-0.442m-136.35-14.918c-0.037 0.307-0.441-0.123-0.454 0.123-0.098 0-0.294 0.245-0.515 0.54 0.761 0.859 1.46 1.484 2 1.595-0.086-0.602-0.257-2.185-1.031-2.258m129.9-103.61c-0.552 0-1.178-0.11-1.705-0.184 0.674 1.104 0.797 0.306 1.705 0.184m-42.069 104.98c-0.858-0.368-1.656-0.724-2.539-1.153 0.797 0.932 1.595 1.902 2.356 2.834 0.085-0.54 0.146-1.141 0.183-1.681m-116.39-122.38c2-3.717 6.392-10.023 5.484-14.759-3.19 6.061-6.674 11.127-8.686 18.12 0.282 0.061 0.577 0.074 0.822 0.123 0.135-1.533 1.693-2.355 2.38-3.484m110.98 21.409c-0.049 0.601-0.073 1.129-0.148 1.705-0.037 0.307-0.085 0.564-0.11 0.834-0.233 0-0.515 0-0.846-0.074 0 0.294-0.037 0.589-0.086 0.896 0.577 0.061 1.141 0.086 1.718 0.147 0.049-0.282 0.049-0.577 0.11-0.871 0.27 0 0.577 0.074 0.884 0.074 0.061-1.018-0.159-1.104-0.712-1.767 0.073-1.141 0.331-0.871-0.81-0.944m-48.509 50.558c-0.528-0.049-1.153-0.159-1.656-0.172-0.196 1.681 2.687 0 3.509-0.54-0.528-0.061-1.129-0.098-1.754-0.135-1e-3 0.295-0.038 0.528-0.099 0.847m14.955 59.649c-0.098 0.209-0.196 0.491-0.282 0.797-0.172-0.344-4.257 0.172-4.491-0.196-1.263-0.393-0.956 0.294-1.337 1.423 1.116 0.307 6.109-0.184 7.189 0.184 0.135-0.368 0.208-0.577 0.294-0.908-1.104-0.331-0.932-0.404-1.373-1.3m-23.973-14.747c0.27 0.012 0.564 0.049 0.821 0.049 0.234-2.184-4.086-2.711-5.754-3.129 1.621 0.982 3.24 2.086 4.933 3.08"/>
	<path d="m699.89 228.09c-37.898 0-69.771-27.162-75.488-65.587h71.721c7.913 0 25.212 1.669 25.212 1.669v-31.862s-16.955 1.264-26.426 1.264h-70.507c7.078-37.701 38.007-63.71 75.488-63.71 19.789 0 44.141 9.091 44.141 9.091l0.43-33.517s-17.299-6.601-44.571-6.601c-63.073 0-118.29 48.375-118.29 109.99 0 66.642 55.22 111.66 118.29 111.66 29.653 0 47.381-7.95 47.381-7.95l-0.847-34.683s-21.838 10.244-46.534 10.244"/>
	<path d="m485.2 259.63s2.392-16.096 2.392-30.168v-152.9h-10.305c-14.048 0-35.8 0-51.822 1.57l-1.387-35.517h167.43l-0.822 35.517c-16.575-1.57-37.897-1.57-52.362-1.57h-12.71v152.9c0 14.072 2.81 30.168 2.81 30.168h-43.222z"/>
	<path d="m744.76 24.868c-12.306-3.46-28.426-5.852-41.946-5.852-36.757 0-68.409 11.176-94.848 34.756l0.392-26.083c28.01-19.113 59.761-27.689 94.456-27.689 15.2 0 28.413 2.098 42.363 5.717z"/>
	<path d="m324.78 147.96h-31.236v-78.923s15.188-0.429 33.296-0.429c2.711 0 5.337 0.221 7.717 0.319 29.039 2.417 41.026 18.28 41.026 37.382 0 21.433-16.857 37.603-41.026 41.062-3.127 0.417-6.452 0.589-9.777 0.589m85.462 81.916-58.177-56.202c35.811-3.46 65.905-29.861 65.905-64.127 0-36.437-20.942-68.716-83.413-71.316-2.601-0.123-5.3-0.209-8.11-0.209-43.222 0-72.887 2.073-72.887 2.073s1.975 21.421 1.975 32.18v157.6c0 14.514-2.797 29.751-2.797 29.751h43.614s-2.81-15.237-2.81-32.597v-64.114l41.014 43.025 20.746 21.519c12.772 13.998 35.051 32.168 35.051 32.168h57.687c1e-3 0-25.811-18.17-37.798-29.751"/>
</g>
</svg>
