<svg version="1.1" viewBox="0 0 770.53 300" xml:space="preserve" xmlns="http://www.w3.org/2000/svg">
<style type="text/css">
	.st0{fill:#79AA0B;}
	.st1{fill:#1B702E;}
	.st2{fill:#FFFFFF;}
</style>
<path class="st0" d="m21.922 5.7649c6.9678-3.9547 15.003-5.9635 23.006-5.7438l221.18 0.0314c10.42 0.65912 20.59 5.0219 28.06 12.335 8.035 7.7211 12.931 18.675 12.931 29.849l-0.063 25.141h-85.152c-0.094 2.9504 0.031 5.8693-0.063 8.8197-1.9145-1.0044-3.7664-2.1343-5.7751-2.9817-5.7124-2.4482-11.801-3.8292-17.922-4.6766-6.8737-0.94161-13.81-1.1927-20.747-1.1927h-135.03l-0.0314 155.3c0.0628 3.9233-0.0942 7.8781 0.0942 11.833h51.443l0.0314-57.626 30.477-0.0314c0.69051 0.0314 1.5066-0.0628 1.9774 0.56496l56.527 56.747c0.3453 0.40803 0.9102 0.31387 1.4124 0.37664l56.904-0.0314c-1.946-2.2285-4.1431-4.1744-6.1832-6.3087l-51.098-51.255c6.8423-0.0628 13.747 0.25109 20.464-1.2241 10.609-2.0401 20.59-7.9722 26.647-16.98 5.9321-8.6941 7.8466-19.46 7.8466-29.817-0.094-7.8153 0.3453-15.662-0.5963-23.415h55.272c0.2511 3.1073 0.031 6.2146 0.094 9.3219v119.77h13.402c0.1256 7.3445 0.031 14.72 0.063 22.096 0.063 4.8963-0.7219 9.7927-2.354 14.407-3.3898 9.6671-10.42 17.985-19.334 23.038-5.8066 3.327-12.366 5.2416-19.02 5.7752-6.5598 0.21971-13.12 0.0314-19.68 0.0942h-197.42c-4.0803-0.0314-8.2233 0.15693-12.272-0.53357-9.5416-1.4124-18.581-6.089-25.235-13.12-5.5868-5.7752-9.416-13.182-10.985-21.029-0.72189-3.6722-0.84744-7.4073-0.78467-11.111v-209.98c-0.0942-5.3044 0.69051-10.671 2.5109-15.662 3.5153-9.6357 10.546-17.796 19.397-22.787zm599.58 1.946c12.931-5.1788 26.93-7.47 40.803-7.6584 22.881-0.53357 46.17 5.4613 65.096 18.518 8.035 5.5241 15.16 12.366 20.841 20.276 6.2774 8.7255 11.048 18.612 13.622 29.064 1.8518 7.5014 2.762 15.254 2.762 22.975 0 13.057-1.8204 26.333-7.1875 38.323-0.973 2.0088-1.8205 4.1117-3.0446 5.9949 0.5336-2.2285 1.6321-4.2686 2.2599-6.4657 4.0489-12.398 4.4883-25.925 1.4752-38.606-2.5424-10.358-7.4387-20.15-14.281-28.374-7.1876-8.6627-16.415-15.599-26.773-19.993-11.142-4.7708-23.54-6.5284-35.593-5.1788-15.819 1.6949-30.947 9.008-42.152 20.307-2.8876 2.919-5.681 6.0262-7.8153 9.5416-6.4029 8.7569-10.42 19.083-12.21 29.755-0.7219 4.1744-1.2868 8.3803-1.5379 12.586-0.5022 5.4299-5.5241 9.8868-10.985 9.7927l-47.363-0.0942c-0.5963-14.061 0.6905-28.217 4.2686-41.87 2.919-11.393 7.5642-22.347 13.842-32.297 4.7707-7.5328 10.546-14.501 17.294-20.37 7.8466-6.8423 16.949-12.304 26.679-16.227zm-527.58 97.738h51.443c7.9722 0.0628 16.007-0.31387 23.885 1.0985 4.2058 0.81605 8.6627 2.0088 11.801 5.1474 2.1343 2.3226 4.2372 4.8022 5.4299 7.7525 0.7219 1.6949 0.7219 3.6409 0.031 5.3671-1.2241 3.0131-3.3584 5.5868-5.5869 7.9095-3.1073 3.0131-7.4386 4.2058-11.582 5.0219-7.3759 1.3496-14.94 1.0672-22.41 1.0985h-53.044l-0.0628-25.988c0.0628-2.4482-0.0628-4.9277 0.0942-7.4073zm571.84 45.417c3.5467-2.2598 6.8737-4.8649 10.295-7.2817-0.7846 1.2869-1.9773 2.2285-3.0131 3.2642-9.6671 9.573-18.55 19.993-26.145 31.293-6.246 9.3532-11.644 19.428-15.034 30.194-3.6095 11.236-4.708 23.477-1.789 35.028l0.4394 0.0942c1.2554 0.2511 2.5737 0.12555 3.8605 0.12555h136.16l-14.03 36.66c-3.6722 9.3532-12.147 16.572-21.939 18.863-4.4255 1.1299-9.0394 0.81606-13.559 0.84744h-168.23c-0.3452-14.752 0.8789-29.723 5.3672-43.879 3.2014-9.7927 7.7839-19.115 13.402-27.714 6.2146-9.4474 13.904-17.828 22.159-25.517 8.4117-7.8467 17.796-14.501 27.087-21.249 14.783-10.577 29.629-21.06 44.977-30.728zm78.216 0.37664c1.13-1.381 2.0402-2.9817 3.4526-4.143-1.2241 2.1657-2.919 4.0489-4.4569 5.9635-0.6592 0.81605-1.3811 1.6007-2.1971 2.2598 0.8474-1.5066 2.1029-2.7306 3.2014-4.0803z" stroke-width=".31387"/>
<path class="st1" d="m266.11 0.083899 47.802-0.0628h153.48c3.9861 0.0628 8.0036-0.2511 11.99 0.40802 10.954 1.381 21.343 7.062 28.311 15.662 6.0576 7.3131 9.5102 16.698 9.6043 26.177v214.06c0.094 6.1518-1.1299 12.366-3.6722 17.985-3.9548 8.8824-11.08 16.29-19.742 20.715-4.8963 2.5423-10.295 4.143-15.788 4.6766-2.919 0.31387-5.838 0.25109-8.7883 0.25109h-192.09c-3.578-0.0314-7.1875 0.0314-10.766-0.0942 6.654-0.50218 13.214-2.4482 19.02-5.7752 8.9138-5.0533 15.944-13.371 19.334-23.038 1.6321-4.6138 2.4168-9.5102 2.354-14.407l-0.063-22.096h36.848v-114.44l0.063-14.658h63.778c3.735-0.0314 7.47 0.0942 11.174-0.0628v-37.978l-111.89-0.0314 0.063-25.141c-0.031-11.174-4.8963-22.128-12.931-29.849-7.5329-7.2817-17.702-11.644-28.091-12.304zm161.64 67.325-0.031 156.9c0.063 3.4212-0.1256 6.8423 0.094 10.263l50.407-0.0314 0.2197-59.195 0.031-53.671-0.031-54.268zm253.7-30.79c12.052-1.3496 24.45 0.40803 35.592 5.1788 10.358 4.3941 19.585 11.331 26.773 19.993 6.8423 8.1919 11.739 17.985 14.281 28.374 3.0445 12.68 2.5737 26.208-1.4752 38.606-0.6277 2.1971-1.7263 4.2372-2.2598 6.4657-0.5022 1.6321-1.6322 2.9817-2.3854 4.5511-1.3811 2.5109-2.6679 5.1474-4.5825 7.2817-1.381 1.1613-2.3226 2.762-3.4525 4.143-1.0672 1.3496-2.3541 2.5737-3.2329 4.0803-1.8832 2.5737-4.5197 4.4255-6.7795 6.654-7.2817 7.062-15.348 13.277-23.791 18.895l-29.849 19.774c-9.6043 6.4029-18.926 13.182-27.871 20.464-4.8649 4.0175-9.3846 8.3803-13.622 13.057-2.7621 3.1073-5.7124 6.0576-8.3175 9.2905l-0.4394-0.0942c-2.919-11.519-1.8205-23.76 1.789-35.028 3.3898-10.766 8.7883-20.809 15.034-30.194 7.5956-11.299 16.478-21.72 26.145-31.293 1.0358-1.0671 2.2285-2.0088 3.0132-3.2642 0.7218-0.97299 1.789-1.538 2.6678-2.354l5.3672-4.708c4.4569-4.1744 8.4116-8.8511 11.77-13.967 2.2912-3.4212 4.3314-7.0306 5.681-10.923 2.2284-6.2146 2.8562-12.9 2.5109-19.46-0.2825-5.9635-1.4438-11.927-3.9233-17.388-3.8606-8.6-11.236-15.411-19.868-19.083-5.7438-2.4168-12.021-3.4212-18.236-3.3898-6.1204-0.0314-12.335 1.0358-17.796 3.8606-3.1387 1.6321-5.9949 3.7664-8.6 6.1832-1.5065 1.2555-2.6051 2.919-4.143 4.1117 2.1657-3.5153 4.9277-6.6226 7.8153-9.5416 11.236-11.236 26.365-18.581 42.184-20.276z" stroke-width=".31387" Googl="true"/>
<path class="st2" d="m42.324 67.408h135.03c6.9365 0 13.873 0.2511 20.747 1.1927 6.1204 0.84744 12.241 2.2285 17.922 4.6766 2.0088 0.81606 3.8606 1.9774 5.7752 2.9817 0.063-2.9504-0.031-5.9007 0.063-8.8197h197.05v37.978c-3.735 0.15693-7.4701 0.0314-11.174 0.0628h-63.778c-0.157 4.8649-0.031 9.7613-0.063 14.658v114.44h-36.848c-4.4569-0.0314-8.9452 0-13.402 0v-119.77c-0.063-3.1073 0.1256-6.2146-0.094-9.3219h-55.272c0.9416 7.7839 0.5022 15.631 0.5963 23.415 0 10.358-1.9459 21.123-7.8466 29.817-6.0891 9.008-16.07 14.971-26.647 16.98-6.7167 1.4752-13.622 1.1927-20.464 1.2241l51.066 51.286c2.0401 2.1343 4.2372 4.0803 6.1832 6.3087-18.958 0.0628-37.947 0-56.904 0.0314-0.5022-0.0314-1.0671 0.0314-1.4124-0.37664l-56.528-56.716c-0.4708-0.62773-1.2869-0.53357-1.9774-0.56496-10.169 0.0314-20.307-0.0314-30.477 0.0314l-0.0314 57.657h-51.443c-0.18832-3.9234-0.0314-7.8781-0.0942-11.833zm51.6 38.041c-0.15693 2.4796-0.0314 4.9591-0.0628 7.4387l0.0628 25.988h53.044c7.47-0.0314 15.003 0.25109 22.41-1.0985 4.1431-0.81605 8.4744-1.9774 11.582-5.0219 2.2285-2.354 4.3628-4.8963 5.5869-7.9095 0.6905-1.6949 0.6905-3.6722-0.031-5.3671-1.1927-2.9504-3.2956-5.4299-5.4299-7.7525-3.1073-3.1387-7.5642-4.3314-11.802-5.1474-7.878-1.4438-15.913-1.0358-23.885-1.0985-17.169-0.0314-34.337 0-51.474-0.0314zm333.83-38.041h50.721l0.031 54.268-0.031 53.671-0.2197 59.195c-16.792 0.0314-33.615-0.0314-50.407 0.0314-0.2511-3.4212-0.031-6.8423-0.094-10.263z" stroke-width=".31387"/>
</svg>
