<svg width="526.602" height="192.752" viewBox="0 0 139.33 50.999" xmlns="http://www.w3.org/2000/svg">
    <g fill="#232e75">
        <path d="M17.498 21.305c0 1.214-.414 2.193-1.248 2.924-.83.731-2.025 1.104-3.576 1.104H6.296v-8.18h6.251c1.56 0 2.77.33 3.645 1.02.872.676 1.306 1.683 1.306 3.05zm4.683 5.31c1.132-1.461 1.7-3.338 1.7-5.669v-.069c0-2.731-.822-4.91-2.456-6.552-1.936-1.931-4.721-2.897-8.343-2.897H-.004v28.624h6.3v-9.16h4.943l6.137 9.16h7.362L17.745 29.83c1.82-.676 3.306-1.752 4.435-3.214M52.055 11.428h-23.72v5.807h8.71v22.817h6.292V17.235h8.718v-5.807M79.345 40.052L70.471 27.87l-3.31 3.435v8.746h-6.3V11.427h6.3V23.94l11.61-12.512h7.604l-11.65 12.14 12.183 16.485z"/>
        <path d="M101.603 0L84.431 51h54.892V0h-37.72" stroke-width="1.13"/>
    </g>
    <path d="M133.053 5.953l-.037 7.7-9.966 8.496c2.51.29 4.645 1.071 6.406 2.342 1.76 1.235 2.96 3.068 3.597 5.5.599 3.015.731 5.737-.168 7.806-.861 2.07-2.121 3.824-3.92 5.022a15.86 15.86 0 0 1-6.252 2.517c-2.36.4-5.125.357-7.447-.006-2.323-.327-4.477-1.119-6.463-2.075-1.986-1.017-4.36-2.965-5.408-4.562l5.999-5.706c.524.618 1.255 1.253 2.191 1.907.974.617 2.042 1.18 3.203 1.688 1.162.472 2.342.817 3.54 1.035 1.2.181 2.286.127 3.26-.164a4.288 4.288 0 0 0 2.417-1.742c.637-.908.673-2.095.673-3.802-.337-.907-.598-1.717-1.348-2.19-.711-.508-1.573-.87-2.585-1.089-1.011-.254-2.135-.4-3.371-.436-1.2-.036-3.305-.132-4.541-.132l-1.197-5.382 9.56-9.028H105.05v-7.7z" fill="#fff" aria-label="3"/>
</svg>
