<svg width="600" height="567.8" viewBox="0 0 158.75 150.229" xmlns="http://www.w3.org/2000/svg">
    <g fill="#fff">
        <path d="M0 125.7v24.531h18.047v-8.997h5.002l8.52 8.997h15.534l-10.506-7.992s8.522 0 8.522-8.52c0 0 0-8.019-7.013-8.019h-2.99zm18.021 5.002h8.018s2.514 0 2.514 2.514c0 2.487-3.016 2.99-3.016 2.99H18.02zM118.69 125.7v24.531h40.065v-4.499h-22.017v-19.556h-18.021zM57.58 125.7v4.499h12.517v19.556h18.021v-19.556h13.02V125.7zM79.12 0C48.079 0 23.019 25.034 23.019 56.101c0 31.041 25.034 56.101 56.101 56.101 31.041 0 56.101-25.034 56.101-56.101S110.161 0 79.12 0zM56.097 32.523h18.047v46.574H56.097zm28.527 0h18.048v46.574H84.624z"/>
    </g>
</svg>
