<svg version="1.0" viewBox="0 0 800 171.89" xmlns="http://www.w3.org/2000/svg">
    <g fill="#1666b1">
        <path d="M0 55.91h88.565V-.005H0zM92.765 55.91h88.567V-.005H92.765zM185.527 55.91h88.567V-.005h-88.567z"/>
    </g>
    <g fill="#fff">
        <path d="M60.429 12.96c4.87 0 10.218 2.937 10.243 10.118 0 5.322-4.519 9.465-9.214 9.364l-.627.05 14.586 10.345H52.219l-11.473-9.792h-4.52v9.792H14.06l.025-29.876zm-14.034 6.854c2.034 0 3.188 1.707 3.188 3.264 0 1.832-1.205 3.238-2.937 3.414H36.227v-6.653l10.168-.025" fill-rule="evenodd"/>
        <path d="M165.017 12.96l.025 7.03h-16.595v22.846h-23.675V19.99h-16.77v-7.005l57.014-.025M226.247 12.96v22.972h32.587v6.904H200.89V12.96h25.357"/>
    </g>
    <path d="M319.027 124.37l14.109-64.647c6.804-31.432 28.344-34.344 42.428-34.344 19.607 0 37.106 12 32.738 31.909l-1.958 8.762h-27.04l1.457-7.632c1.782-9.24-2.285-11.975-7.783-11.975-4.042 0-10.193 1.28-12.954 13.758l-10.846 49.408c-1.782 8.285-.176 14.436 7.934 15.239 8.736.803 11.347-8.26 12.476-13.783l1.934-9.691h27.064l-2.762 13.28c-4.544 21.692-20.737 30.278-40.345 30.278-5.498 0-15.716-1.28-24.302-9.39-5.649-5.347-14.888-4.217-14.888-4.217s1.933-2.762 2.737-6.954zm147.47-97.033c24.453 0 38.236 17.473 33.842 39.416-3.716 18.252-13.934 27.315-21.214 30.553l5.021 45.516h-28.018l-2.285-40.495-10.193.176-8.586 40.32h-27.39l24.955-115.49zm87.242 0l-25.131 115.49h-27.039l25.106-115.49zm62.538 0l1.305 69.542 24.955-69.542h40.495l-24.955 115.49h-25.583l15.716-67.609c.478-2.435-2.108-3.239-3.238-.326l-26.411 67.936h-21.39l-1.13-67.46c-.176-4.041-2.912-2.912-3.414-.326l-14.737 67.785h-25.91l25.584-115.49zm150.58 0l-4.193 20.561h-32.462l-5.824 25.281h28.796l-4.87 20.888h-28.295l-6 28.194H741.7l-4.042 20.561H682.25l24.63-115.49h59.976zm-481 144.56h514.14V.047h-514.14z" fill="#002159"/>
    <g transform="matrix(25.106 0 0 -25.106 -6233.783 3650.12)" clip-path="url(#id487)">
        <path d="M248.31 138.55h10.915v4.241H248.31z" fill="#002159"/>
        <path d="M257.68 138.7c-.02-.051-.041-.1-.063-.15h.17a.546.546 0 0 0-.015.15c.009.129-.052.119-.092 0zm-8.504-.15h.116a6.475 6.475 0 0 1-.21.126c-.164.084-.063-.004.094-.126zm-.423 0a2.167 2.167 0 0 0-.451.283v-.283zm1.815.104c-.138.093-.19.214-.365.273-.164.043.125-.217.228-.364a.093.093 0 0 1 .015-.013h.105a.192.192 0 0 1 .017.013c.031.024.041.062 0 .091zm-1.836.33c-.036.035-.117.034-.171-.011-.037-.028-.05-.07 0-.137l.046-.045a.183.183 0 0 1 .228 0c.041.06-.029.136-.103.193zm.422.171c-.124.03-.121-.109-.046-.182l.424-.423h.152c-.086.144-.451.574-.53.605zm5.289.091c-.007.116-.244-.091-.365-.136-.192-.073-.536-.016-.693-.045-.052-.013-.123-.074-.036-.092.117-.005.138.014.225.029.103.019.19.017.231.017.116.004.053-.058-.013-.095-.498-.265-1.982-.246-2.313.095-.031.038-.093.039-.086-.028.021-.114.063-.261.289-.313.711-.159 2.619-.1 2.761.568zm-5.608.091c-.176.086-.253-.054-.533-.056v-.163c.228-.031.365.082.551-.066.052-.044.109-.029.119.012a.265.265 0 0 1-.137.273zm1.271.068c-.006.066-.084.077-.091 0 .005-.176-.019-.188.062-.275a.166.166 0 0 0 .029-.089c-.016-.044.057-.08.046 0l-.046.364zm.142.342v.091c-.004.108-.093.076-.091 0 .04-.436.292-.855.547-1.093.033-.03.153-.11.137-.045-.062.29-.324.414-.456.637a.758.758 0 0 0-.137.41zm-.597-.403a.367.367 0 0 1 .071-.11c.031-.049.075-.078.07-.033-.069.291-.135.436-.091.773 0 .125-.131.115-.137 0 .008-.339-.057-.313.087-.63zm-.506-.013c.093.18.313.784.169.623-.109-.182-.16-.307-.297-.48-.076-.078-.057-.146 0-.182.023-.024.091-.034.128.039zm.055.826c.023.031.023.096.007.096-.127.045-.509-.496-.6-.552-.075-.046-.211-.041-.305-.067v-.15c.47.059.725.308.898.673zm2.371.136c-.024-.114-.014-.136-.001-.204.03-.094.133-.082.137.022 0 .161-.111.285-.136.182zm-1.14.046c-.157-.73.414-1.136.775-1.594.057-.076.11-.095.091 0-.065.288-.269.266-.41.456-.193.258-.367.752-.319 1.092.012.132-.099.161-.137.046zm.638.136c-.095.053.044-.295.091-.455.212-.711.273-.814.958-1.047.161-.055.547-.167.729-.046.081.075.226-.018.365 0 .063.014.101.064 0 .092-.715.123-1.429-.028-1.824.546-.158.23-.101.739-.319.91zm-.958.182c.057.076-.094.133-.136.046-.084-.133-.171-.326-.274-.455-.011-.024-.021-.042-.008-.073.015-.04.078-.018.099.027.093.167.186.33.319.455zm3.086-.775c-.298-.004-.457.007-.623.138-.335.221-.361.936-.456.774-.062-.18-.029-.583.091-.728.378-.532 2.016-.212 2.586.048.189.083.373.206.469.361.057.126-.035.218-.256.199-.673-.091-.969-.412-1.701-.259-.099.019-.141.042-.186-.031 0-.03-.039-.076.186-.118.707-.137 1.034.042 1.61.275.145.068.229.007.133-.088-.221-.206-.982-.493-1.438-.461-.195.014-.465.13-.621.248-.145.091-.374.118-.279-.065.13-.176.29-.175.58-.221.118-.023.187-.08-.095-.072zm-2.538.912a.345.345 0 0 1-.183-.091c-.048-.045-.102-.131 0-.182.048-.015.076-.009.123.003a.358.358 0 0 1 .099.054c.083.081.066.244-.039.216zm-1.049.046c.159.096.122.208 0 .136-.278-.148-.434-.437-.684-.592a2.207 2.207 0 0 0-.624-.286v-.152c.355.104.67.28.989.529.125.098.175.268.319.365zm-.273.227c-.308-.063-.66-.344-.912-.501-.108-.073-.048-.148 0-.136.409.068.61.366.912.546.048.03.079.091 0 .091zm1.55.046c-.025.016-.062.025-.13-.005a.185.185 0 0 1-.058-.043c-.043-.052-.079-.152.005-.18.047-.014.113.036.193.079.05.029.058.104-.01.149zm-.314-.083c.026.057.068.099.054.153-.018.037-.039.042-.099.027-.439-.117-.263-.697-.508-1.008-.043-.055-.189.004-.182-.136l.046-.547c.013-.071.143-.084.136 0a1.965 1.965 0 0 0 0 .547c.012.067.065.059.091-.046.013-.067.216-.064.183.046-.053.169-.173.078-.137.182.094.287.306.525.416.782zm.268-.737c-.039.373.491.658.373.947-.036.081-.486-.584-.469-.862.023-.618.262-.887.499-1.282.065-.117.137-.092.124.011-.084.435-.473.668-.527 1.186zm.145.913c.094.089.037.146-.054.134-.095-.019-.101-.128-.045-.182.035-.023.083.033.099.048zm.265-.64c.095.253.173.572.365.729.051.047.107.197.007.149-.049-.028-.089-.049-.135-.1-.127-.115-.333-.554-.351-.711-.017-.132.085-.161.114-.067zm0 .956c.081.041.125.162.023.183-.021.004-.086.025-.117-.027-.04-.074-.107.013-.141-.1-.01-.021-.012-.04-.027-.068-.017-.037.018-.074.035-.079.104-.028.132.04.227.091zm-.136.41c-.112-.161-.579-.477-.502-.637.02-.02.025-.032.069-.02.274.098.267.409.478.566.146.124.01.184-.045.091zm-.399-.027c-.132-.172-.298-.209-.422-.383-.287-.4-.459-.792-.857-1.073-.169-.102-.077-.264-.009-.338.015-.015.095-.037.166.114.199.517.186.368.517.706.11.111.083.28.183.409.154.2.408.224.524.461.029.068.078.071.12.099.194.102-.13.19-.222.005zm3.191.223c.047-.037.065-.042.131-.031.071.031.122.09.02.144-.067.026-.067-.019-.162-.036-.042-.027-.013-.046.011-.077zm-2.615-.07c-.047-.149.038-.131-.05-.226-.033-.037-.02-.069.009-.082.122-.038.285.064.274.182.005.115.006.169.046.228.052.072-.066.108-.138.087-.066-.029-.113-.08-.141-.189zm-.191.225c-.036-.112-.051-.1-.123-.169-.028-.029-.046-.067 0-.091.058-.031.213.015.273.137.027.056.041.082.046.136.012.104-.17.087-.196-.013zm.47.195c.02.061-.019.086-.092.091-.065.003-.142-.07-.091-.136.056-.045.153-.031.183.045zm-.53.053c-.256-.415-1.196-1.059-1.659-1.282-.112-.037-.133-.164 0-.136.14.04.295.121.456.225v.002l.002-.001c.493.318 1.041.853 1.366 1.139.114.095-.091.148-.165.053zm-1.693.143c-.267-.285-.644-.447-1.046-.586v-.185c.438.173.838.504 1.171.712.17.122-.033.14-.125.059zm-.65-1.425c.274.148.672.629.958.82.125.083.301.082.41.182.123.112.182.309.319.409.05.037.126.081.213.131h-.305c-.039-.062-.004-.106-.09-.176-.273-.228-.578-.379-.866-.592-.25-.164-.31-.37-.457-.455-.083-.071-.323-.158-.578-.271v-.176l.075.042c.107.062.22.021.321.086zm.228 1.411c.124.082.394.062.535.131h-.51c-.221-.075-.441-.129-.649-.211v-.215c.167.047.294.008.48.119.055.031.076.13.144.176zm.414-.34c-.321-.235-.568-.349-.961-.525-.114-.051-.064-.197.046-.182.257.056.364.244.547.365.178.118.378.143.547.273.145.111.231.329.365.455.024.023.059.052.102.085h-.21a2.139 2.139 0 0 1-.212-.222c-.075-.082-.067-.142-.224-.249zm2.231.022c-.018-.018-.034-.045 0-.046.232.051.508.266.777.495h-.307c-.17-.15-.33-.303-.47-.449zm-.269.269c.196.032.358.097.502.18h-.348a1.938 1.938 0 0 1-.173-.093c-.076-.053-.052-.106.019-.087zm-.005-1.18c-.03-.043.005-.08.064-.046.224.173.529.725.802.957.144.121.369.281.641.449h-.27a9.436 9.436 0 0 1-.507-.358c-.333-.251-.45-.697-.73-1.002zm7.909 1.36h-.154c.054-.042.108-.082.164-.12v.111l-.01.009zm-2.999-.359c-.091.02-.088.045-.122.092-.035.045-.015.091.117.047.055-.015.072-.061.077-.092.002-.021-.014-.061-.072-.047zm-.207-.061c-.041-.081-.177-.064-.235.016-.046.07-.036.132-.011.147a.169.169 0 0 0 .081.029c.037.001.064-.005.113-.039.055-.051.068-.094.052-.153zm-.326.062c-.128-.18-.238-.133-.228.045.012.105.113.116.197.049.015-.015.059-.064.031-.094zm-.097-.709c-.121-.042-.079-.072-.129-.104-.056-.026-.13-.038-.169-.025-.106.016-.134.107-.099.168.022.037.054.05.082.061.142.051.164-.011.3-.026.061-.008.076-.055.015-.074zm-.592-.163c-.565-.001-.863-.227-1.18-.494-.042-.037-.089-.059-.107-.024-.047.047.002.162.018.177.302.41.75.539 1.231.56.233.013.241-.207.038-.219zm-1.454-.312c-.055-.079-.084-.355-.182-.455-.081-.083-.163-.041-.319-.182-.099-.07-.292-.039-.274.045.011.367.352 1.031.547 1.23.13.131.268.135.387.281.057.066.119.002.206.037.104.06-.024.153.109.171.47.057.426.162.851.179.186.011.164-.093.016-.142-.214-.08-.376-.059-.611-.162-.11-.059-.035-.185-.228-.228-.175-.039-.261.012-.41-.091-.347-.223-.356-.842-.698-1.082-.031-.029-.076-.051-.065-.093.018-.022.045-.02.079-.009.273.103.273.302.41.547.149.266.633.593.957.683.133.053.045-.093.228-.046.056.014.085.081.228.091.116.01.143-.112 0-.136-.481-.119-.987-.288-1.231-.638zm-.912-.182c-.048-.145.02-.286-.042-.385-.02-.024-.032-.053-.014-.106.051-.151-.066-.056-.08.036-.051.286.1.481.049.705-.031.133.081.069.231.326.082.106.188.115.176.061-.037-.275-.245-.416-.32-.637zm2.69.956a.2.2 0 0 0-.129-.046c-.21.004-.18.024-.266.044-.133.056-.144.078-.167.105-.06.102.026.15.153.134.107 0 .182-.002.315-.022a.169.169 0 0 0 .118-.106c.015-.015-.007-.086-.024-.109zm.229 0c.026-.02.012-.033 0-.045-.036-.032-.092-.03-.137 0-.054.039-.054.094 0 .091a.178.178 0 0 0 .137-.046zm-.365.546c.093.037.135.024.182 0 .086-.076.073-.184 0-.198a.228.228 0 0 0-.202.053c-.073.047-.033.133.02.145zm3.328-2.367c-.064.077.09.126.046.273-.05.187-.168.527-.274.729-.869 1.656-3.786 2.144-5.243.683-.03-.032-.069-.075-.141-.018-.148.155-.465-.401-.512-.773-.005-.353-.05-.525.106-.712a.27.27 0 0 1 .049-.041c.155-.095.04.193.179.178.072-.022.231-.085.364-.046.064.019.165.172.274.137.275-.065.75-.024 1.255.142.313.084.515.084.698.023.095-.025.107-.126.095-.214-.098-.659-.619-.445-.934-.853-.13-.144-.168.111-.332.092-.069-.015-.065-.072-.202-.126-.447-.142-1.131-.203-1.583-.02-.18.065-.315.143-.365.364-.056.241-.112.549-.091.728.017.148.261.29.319.41.412.854 1.131 1.313 2.014 1.633h-.445c-.621-.3-1.145-.698-1.432-1.087-.485-.655-.869-1.447-.315-2.036.313-.25 1.453-.455 1.956-.058.121.1.228.094.236.017.003-.045-.004-.107-.107-.141-.305-.137-.638-.215-1.278-.198-.133-.012-.141-.076.05-.088 1.365-.093 2.277.628 2.589 1.234.088.164.142.385-.053.468-.443.178-.961.107-1.564-.159a.548.548 0 0 0-.374-.04c-.095.02-.041.108.045.137.289.106.384.146.672.253.306.061.542-.042.787.02.4.052.873-.112.77-.279-.144-.201-.019-.467-.177-.723-.072-.117-.284-.126-.365-.227-.069-.09-.011-.154-.072-.242-.076-.111-.361-.189-.475-.259-.12-.057-.056-.103.046-.091.507.02 1.308.773 1.106 1.341-.051.173.013.199.07.212.098.022.108-.07.1-.233-.022-1.265-1.33-1.753-2.452-2.062h.786c.1.075.182.162.253.195.568.267 1.054.543 1.368 1.047.095.153.161.44.169.613.026.569-.255.789-.475.797-.148.012-.169.077-.241.093-.244.051-.338-.118-.662-.11-.099.009-.134.026-.159.064-.031.053-.009.104.064.139.389.164.337-.069.757.043.306.095.801-.367.866-.728.032-.182-.099-.655-.182-.819-.421-.827-.705-.948-1.447-1.334h.493a.66.66 0 0 1 .224.059c.09.051.11.201.183.273.441.438.824.737.82 1.639.006.115.025.219.09.111a.335.335 0 0 0 .047-.157c.02-.144.066-.327-.007-.685-.054-.313-.419-.78-.907-1.24h.234c.211.221.394.443.543.651.68.948.024 1.995-.618 2.439-.119.076-.092.148.007.147a.4.4 0 0 0 .246-.083c.144-.103.013-.235.183-.364 1.037-.789.594-1.947-.092-2.79h.276c.541.908.958 2.231-.093 2.972-.102.07-.111.11 0 .091.713-.129.665-.827.821-1.547.01-.05.09-.245.045-.365a7.386 7.386 0 0 0-.543-1.151h.174c.229.418.278.734.293.811.012.098.063.134.122.022.113-.199-.204-.531-.274-.683a1.472 1.472 0 0 1-.057-.15h.217c.017.063.038.127.068.195.162.372.267 1.538.015 1.963-.051.101-.076.181-.032.232.026.023.072.045.116-.021.274-.597.371-1.523.129-2.219-.017-.05-.04-.1-.065-.15h.155c.09.279.143.581.138.787-.006.13.097.132.137 0 .033-.126-.036-.324.046-.455.027-.035.077-.033.11.078.236.584.149 1.445-.185 1.866-.036.053-.036.093-.062.15-.029.046-.092.039-.071-.125.082-.533.211-.608.244-1.285.012-.177-.186-.08-.173.029-.002.531-.001 1.029-.245 1.347-.04.057-.067.113-.097.143-.107.082-.166-.063-.21.032-.227.438-.539.399-.952.762-.024.018-.042.037-.057.052-.028.024-.054.059.056.047.539-.051.997-.486 1.233-.851.052-.07.133-.138.189-.069.048.073.008.132-.04.164-.553.328-.712.809-1.519.892-.141.014.044-.186-.106-.161-.247.023-.193.106-.304.252-.022.04.004.047.046.046 1.47-.086 2.137-.833 2.462-2.049.15-.56-.06-1.115-.121-1.652h.187c.493 1.753-.36 3.288-1.653 3.732-.227.066-.2.195-.06.176 1.352-.333 2.229-1.823 1.875-3.485-.042-.15.057-.199 0-.41l-.004-.013h.158c.015.112.024.223.028.332v1.047c0 .083.02.077.046 0 .134-.383.136-.87.048-1.379h.075c.103.487.184 1.134.014 1.516-.031.09-.132.074-.183.136zm.193 2.589c.151-.077.338-.267.522-.495v.279a1.115 1.115 0 0 0-.333.216zm-.044 0h-.282a2.49 2.49 0 0 0 .544-.54c.115-.163.186-.347.304-.494v.303c-.174.243-.357.475-.532.691-.017.018-.027.031-.034.04zm.398-1.496c-.048-.104-.108-.057-.136 0-.04.084.018.16-.092.227-.079.054-.128.099-.045.091.015 0 .029-.009.045 0 .012.013 0 .031 0 .046-.024.139.167-.052.228-.137.043-.039.068-.147 0-.227zm-.345.448c-.011-.145-.076.054-.156.098-.052.047-.088.07-.019.121.033.037.019.076.019.107.017.094.105.094.137 0 .019-.059.051-.076.092-.118.069-.051.036-.051-.035-.098-.016-.013-.038-.056-.038-.11zm.353-1.8c.027-.098.024-.181-.008-.196-.029-.012-.056.016-.07.063-.053.191-.055.245-.094.388-.043.154.123-.103.172-.255zm.16.953a.048.048 0 0 0-.031-.011c-.045 0-.07-.016-.109-.002a.148.148 0 0 0-.073.048c-.044.058-.06.11-.001.161.029.024.064.025.115.015a.183.183 0 0 0 .068-.04.123.123 0 0 0 .031-.04v.468c-.229.197-.488.756-.669.938a3.651 3.651 0 0 1-.419.358h-.311c.204-.193.4-.397.639-.495.101-.042.081-.188-.094-.144-.368.171-.471.416-.727.599l-.058.04h-.343c.585-.269 1.281-1.02 1.495-1.405.151-.271.106-.622.319-.82.054-.045.061-.115 0-.136-.076-.015-.227-.054-.235.115-.011 1.213-1.027 1.754-1.824 2.214a.66.66 0 0 0-.065.032h-.549c1.019-.242 1.759-.867 2.126-1.724.299-.697.39-1.628.301-2.517h.084c.06.228.2.499.071.696-.106.134 0 .273 0 .41-.006.095.049.105.091 0 .107-.316.084-.732.021-1.106h.147v1.195a.593.593 0 0 1-.122.275c-.115.168-.084.244 0 .182.044-.028.086-.099.122-.191zm-9.834-1.422c-.054.073-.054.023-.045-.046.06-.434.431-.575.638-.865l.009-.013h.128c-.264.305-.506.64-.684.878l-.046.046zm2.412 2.231c-.096.002-.144-.031-.107-.071.032-.049.113.04.112-.021-.049-.424-.659-1.099-.371-1.726.359-.602.487-.385.856-.648.148-.089.306-.06.335-.038.057.029.046.071 0 .091-.477.181-.937.234-1.094.728-.086.299-.011.639.046.774.192.46.52.952.866 1.275.325.302.661.531 1.037.722h-.44a5.904 5.904 0 0 1-.278-.176c-.309-.21-.539-.881-.962-.91zm-.862-3.005c-.041-.056-.048-.117.046-.137.014-.003.027-.008.041-.013h.306a.669.669 0 0 0-.256.15c-.039.045-.115.045-.137 0zm-2.375 2.16c.084.047.199.027.278.071.281.149.47.506.729.682.093.071.219-.007.291.076.087.073.021.159.12.243.24.183.495.278.729.455.12.091.243.265.362.404h-.164c-.235-.223-.466-.445-.699-.631-.195-.156-.441-.212-.639-.365-.233-.18-.44-.473-.684-.637-.137-.097-.273-.058-.364-.137-.063-.038-.14-.13-.214-.198v-.191c.091.08.166.181.255.228" fill="#2492d0"/>
    </g>
    <g fill="#fff" fill-opacity=".941">
        <path d="M466.497 27.33c24.453 0 38.236 17.473 33.842 39.416-3.716 18.252-13.934 27.315-21.214 30.553l5.021 45.516h-28.018l-2.284-40.495-10.193.176-8.587 40.32h-27.39l24.955-115.49zM319.027 124.37l14.109-64.647c6.804-31.432 28.344-34.344 42.428-34.344 19.607 0 37.106 12 32.738 31.909l-1.958 8.762h-27.04l1.457-7.632c1.782-9.24-2.285-11.975-7.783-11.975-4.042 0-10.193 1.28-12.954 13.758l-10.846 49.408c-1.782 8.285-.176 14.436 7.934 15.239 8.736.803 11.347-8.26 12.476-13.783l1.934-9.691h27.064l-2.762 13.28c-4.544 21.692-20.737 30.278-40.345 30.278-5.498 0-15.716-1.28-24.302-9.39-5.649-5.347-14.888-4.217-14.888-4.217s1.933-2.762 2.737-6.954zM553.737 27.33l-25.131 115.49h-27.039l25.106-115.49zM616.277 27.33l1.306 69.542 24.955-69.542h40.495l-24.955 115.49h-25.583l15.716-67.609c.477-2.435-2.11-3.239-3.24-.326l-26.41 67.936h-21.39l-1.13-67.46c-.176-4.041-2.912-2.912-3.414-.326L577.89 142.82h-25.91l25.584-115.49zM766.867 27.33l-4.193 20.561h-32.462l-5.824 25.281h28.796l-4.87 20.888h-28.295l-6 28.194h27.691l-4.042 20.561H682.26l24.63-115.49z"/>
    </g>
    <path d="M474.757 67.4c3.39-13.708-3.891-19.356-9.415-19.356h-10.519l-7.28 33.717h12.954c10.042-1.305 14.26-14.36 14.26-14.36" fill="#002159"/>
</svg>
