<svg version="1.0" viewBox="0 0 800 171.89" xmlns="http://www.w3.org/2000/svg">
 <g transform="translate(23.817 -403.58)">
  <g fill="#1666b1">
   <path d="m-23.817 459.49h88.565v-55.915h-88.565z"/>
   <path d="m68.948 459.49h88.567v-55.915h-88.567z"/>
   <path d="m161.71 459.49h88.567v-55.915h-88.567z"/>
  </g>
  <g fill="#fff">
   <path d="m36.612 416.54c4.8705 0 10.218 2.9374 10.243 10.118 0 5.3224-4.519 9.4648-9.2137 9.3644l-0.62763 0.0502 14.586 10.344h-23.198l-11.473-9.7912h-4.519v9.7912h-22.168l0.025103-29.876zm-14.034 6.8538c2.0336 0 3.1884 1.7072 3.1884 3.2637 0 1.8327-1.2051 3.2386-2.9374 3.4144h-10.419v-6.653l10.168-0.0251" fill-rule="evenodd"/>
   <path d="m141.2 416.54 0.0251 7.0296h-16.595v22.846h-23.675v-22.846h-16.771v-7.0045l57.015-0.0251"/>
   <path d="m202.43 416.54v22.972h32.587v6.9041h-57.944v-29.876h25.357"/>
  </g>
  <path d="m295.21 527.95 14.109-64.647c6.8036-31.432 28.344-34.344 42.428-34.344 19.607 0 37.106 12 32.738 31.909l-1.9582 8.7618h-27.039l1.4561-7.6321c1.7825-9.2388-2.2846-11.975-7.7827-11.975-4.042 0-10.193 1.2804-12.954 13.758l-10.846 49.408c-1.7825 8.2848-0.17572 14.436 7.9333 15.239 8.7368 0.80338 11.348-8.2597 12.477-13.783l1.9331-9.6908h27.064l-2.7616 13.281c-4.5441 21.691-20.737 30.277-40.345 30.277-5.4981 0-15.716-1.2804-24.302-9.3895-5.6488-5.3475-14.888-4.2177-14.888-4.2177s1.9331-2.7616 2.7365-6.9542zm147.47-97.033c24.453 0 38.236 17.473 33.842 39.416-3.7156 18.252-13.934 27.315-21.214 30.553l5.0211 45.516h-28.018l-2.2846-40.495-10.193 0.17572-8.5861 40.32h-27.39l24.955-115.49zm87.242 0-25.131 115.49h-27.039l25.106-115.49zm62.538 0 1.3055 69.542 24.955-69.542h40.495l-24.955 115.49h-25.583l15.716-67.609c0.47702-2.4352-2.1089-3.2386-3.2386-0.32633l-26.411 67.936h-21.39l-1.1298-67.459c-0.17572-4.042-2.9122-2.9122-3.4144-0.32634l-14.737 67.785h-25.909l25.583-115.49zm150.58 0-4.1926 20.561h-32.462l-5.8245 25.281h28.796l-4.8705 20.888h-28.294l-6.0002 28.194h27.691l-4.042 20.561h-55.408l24.629-115.49h59.977zm-481 144.56h514.14v-171.85h-514.14z" fill="#002159" Googl="true"/>
  <g transform="matrix(25.106 0 0 -25.106 -6257.6 4053.7)" clip-path="url(#id487)">
   <path d="m248.31 138.55h10.915v4.241h-10.915z" fill="#002159"/>
   <path d="m257.68 138.7c-0.02-0.051-0.041-0.1-0.063-0.15h0.17c-0.01 0.041-0.017 0.09-0.015 0.15 9e-3 0.129-0.052 0.119-0.092 0zm-8.504-0.15h0.116c-0.067 0.042-0.137 0.084-0.21 0.126-0.164 0.084-0.063-4e-3 0.094-0.126zm-0.423 0c-0.176 0.084-0.319 0.175-0.451 0.283v-0.283zm1.815 0.104c-0.138 0.093-0.19 0.214-0.365 0.273-0.164 0.043 0.125-0.217 0.228-0.364 5e-3 -5e-3 9e-3 -9e-3 0.015-0.013h0.105c6e-3 4e-3 0.011 8e-3 0.017 0.013 0.031 0.024 0.041 0.062 0 0.091zm-1.836 0.33c-0.036 0.035-0.117 0.034-0.171-0.011-0.037-0.028-0.05-0.07 0-0.137 0.016-0.015 0.031-0.03 0.046-0.045 0.052-0.044 0.152-0.062 0.228 0 0.041 0.06-0.029 0.136-0.103 0.193zm0.422 0.171c-0.124 0.03-0.121-0.109-0.046-0.182 0.141-0.141 0.283-0.282 0.424-0.423h0.152c-0.086 0.144-0.451 0.574-0.53 0.605zm5.289 0.091c-7e-3 0.116-0.244-0.091-0.365-0.136-0.192-0.073-0.536-0.016-0.693-0.045-0.052-0.013-0.123-0.074-0.036-0.092 0.117-5e-3 0.138 0.014 0.225 0.029 0.103 0.019 0.19 0.017 0.231 0.017 0.116 4e-3 0.053-0.058-0.013-0.095-0.498-0.265-1.982-0.246-2.313 0.095-0.031 0.038-0.093 0.039-0.086-0.028 0.021-0.114 0.063-0.261 0.289-0.313 0.711-0.159 2.619-0.1 2.761 0.568zm-5.608 0.091c-0.176 0.086-0.253-0.054-0.533-0.056v-0.163c0.228-0.031 0.365 0.082 0.551-0.066 0.052-0.044 0.109-0.029 0.119 0.012 0.019 0.126-0.057 0.236-0.137 0.273zm1.271 0.068c-6e-3 0.066-0.084 0.077-0.091 0 5e-3 -0.176-0.019-0.188 0.062-0.275 0.023-0.029 0.029-0.074 0.029-0.089-0.016-0.044 0.057-0.08 0.046 0-0.015 0.121-0.03 0.242-0.046 0.364zm0.142 0.342v0.091c-4e-3 0.108-0.093 0.076-0.091 0 0.04-0.436 0.292-0.855 0.547-1.093 0.033-0.03 0.153-0.11 0.137-0.045-0.062 0.29-0.324 0.414-0.456 0.637-0.065 0.103-0.139 0.244-0.137 0.41zm-0.597-0.403c0.024-0.055 0.055-0.095 0.071-0.11 0.031-0.049 0.075-0.078 0.07-0.033-0.069 0.291-0.135 0.436-0.091 0.773 0 0.125-0.131 0.115-0.137 0 8e-3 -0.339-0.057-0.313 0.087-0.63zm-0.506-0.013c0.093 0.18 0.313 0.784 0.169 0.623-0.109-0.182-0.16-0.307-0.297-0.48-0.076-0.078-0.057-0.146 0-0.182 0.023-0.024 0.091-0.034 0.128 0.039zm0.055 0.826c0.023 0.031 0.023 0.096 7e-3 0.096-0.127 0.045-0.509-0.496-0.6-0.552-0.075-0.046-0.211-0.041-0.305-0.067v-0.15c0.47 0.059 0.725 0.308 0.898 0.673zm2.371 0.136c-0.024-0.114-0.014-0.136-1e-3 -0.204 0.03-0.094 0.133-0.082 0.137 0.022 0 0.161-0.111 0.285-0.136 0.182zm-1.14 0.046c-0.157-0.73 0.414-1.136 0.775-1.594 0.057-0.076 0.11-0.095 0.091 0-0.065 0.288-0.269 0.266-0.41 0.456-0.193 0.258-0.367 0.752-0.319 1.092 0.012 0.132-0.099 0.161-0.137 0.046zm0.638 0.136c-0.095 0.053 0.044-0.295 0.091-0.455 0.212-0.711 0.273-0.814 0.958-1.047 0.161-0.055 0.547-0.167 0.729-0.046 0.081 0.075 0.226-0.018 0.365 0 0.063 0.014 0.101 0.064 0 0.092-0.715 0.123-1.429-0.028-1.824 0.546-0.158 0.23-0.101 0.739-0.319 0.91zm-0.958 0.182c0.057 0.076-0.094 0.133-0.136 0.046-0.084-0.133-0.171-0.326-0.274-0.455-0.011-0.024-0.021-0.042-8e-3 -0.073 0.015-0.04 0.078-0.018 0.099 0.027 0.093 0.167 0.186 0.33 0.319 0.455zm3.086-0.775c-0.298-4e-3 -0.457 7e-3 -0.623 0.138-0.335 0.221-0.361 0.936-0.456 0.774-0.062-0.18-0.029-0.583 0.091-0.728 0.378-0.532 2.016-0.212 2.586 0.048 0.189 0.083 0.373 0.206 0.469 0.361 0.057 0.126-0.035 0.218-0.256 0.199-0.673-0.091-0.969-0.412-1.701-0.259-0.099 0.019-0.141 0.042-0.186-0.031 0-0.03-0.039-0.076 0.186-0.118 0.707-0.137 1.034 0.042 1.61 0.275 0.145 0.068 0.229 7e-3 0.133-0.088-0.221-0.206-0.982-0.493-1.438-0.461-0.195 0.014-0.465 0.13-0.621 0.248-0.145 0.091-0.374 0.118-0.279-0.065 0.13-0.176 0.29-0.175 0.58-0.221 0.118-0.023 0.187-0.08-0.095-0.072zm-2.538 0.912c-0.08-0.013-0.137-0.049-0.183-0.091-0.048-0.045-0.102-0.131 0-0.182 0.048-0.015 0.076-9e-3 0.123 3e-3 0.028 8e-3 0.083 0.039 0.099 0.054 0.083 0.081 0.066 0.244-0.039 0.216zm-1.049 0.046c0.159 0.096 0.122 0.208 0 0.136-0.278-0.148-0.434-0.437-0.684-0.592-0.221-0.137-0.406-0.229-0.624-0.286v-0.152c0.355 0.104 0.67 0.28 0.989 0.529 0.125 0.098 0.175 0.268 0.319 0.365zm-0.273 0.227c-0.308-0.063-0.66-0.344-0.912-0.501-0.108-0.073-0.048-0.148 0-0.136 0.409 0.068 0.61 0.366 0.912 0.546 0.048 0.03 0.079 0.091 0 0.091zm1.55 0.046c-0.025 0.016-0.062 0.025-0.13-5e-3 -0.016-6e-3 -0.043-0.026-0.058-0.043-0.043-0.052-0.079-0.152 5e-3 -0.18 0.047-0.014 0.113 0.036 0.193 0.079 0.05 0.029 0.058 0.104-0.01 0.149zm-0.314-0.083c0.026 0.057 0.068 0.099 0.054 0.153-0.018 0.037-0.039 0.042-0.099 0.027-0.439-0.117-0.263-0.697-0.508-1.008-0.043-0.055-0.189 4e-3 -0.182-0.136 0.015-0.182 0.03-0.365 0.046-0.547 0.013-0.071 0.143-0.084 0.136 0-0.025 0.211-0.026 0.336 0 0.547 0.012 0.067 0.065 0.059 0.091-0.046 0.013-0.067 0.216-0.064 0.183 0.046-0.053 0.169-0.173 0.078-0.137 0.182 0.094 0.287 0.306 0.525 0.416 0.782zm0.268-0.737c-0.039 0.373 0.491 0.658 0.373 0.947-0.036 0.081-0.486-0.584-0.469-0.862 0.023-0.618 0.262-0.887 0.499-1.282 0.065-0.117 0.137-0.092 0.124 0.011-0.084 0.435-0.473 0.668-0.527 1.186zm0.145 0.913c0.094 0.089 0.037 0.146-0.054 0.134-0.095-0.019-0.101-0.128-0.045-0.182 0.035-0.023 0.083 0.033 0.099 0.048zm0.265-0.64c0.095 0.253 0.173 0.572 0.365 0.729 0.051 0.047 0.107 0.197 7e-3 0.149-0.049-0.028-0.089-0.049-0.135-0.1-0.127-0.115-0.333-0.554-0.351-0.711-0.017-0.132 0.085-0.161 0.114-0.067zm0 0.956c0.081 0.041 0.125 0.162 0.023 0.183-0.021 4e-3 -0.086 0.025-0.117-0.027-0.04-0.074-0.107 0.013-0.141-0.1-0.01-0.021-0.012-0.04-0.027-0.068-0.017-0.037 0.018-0.074 0.035-0.079 0.104-0.028 0.132 0.04 0.227 0.091zm-0.136 0.41c-0.112-0.161-0.579-0.477-0.502-0.637 0.02-0.02 0.025-0.032 0.069-0.02 0.274 0.098 0.267 0.409 0.478 0.566 0.146 0.124 0.01 0.184-0.045 0.091zm-0.399-0.027c-0.132-0.172-0.298-0.209-0.422-0.383-0.287-0.4-0.459-0.792-0.857-1.073-0.169-0.102-0.077-0.264-9e-3 -0.338 0.015-0.015 0.095-0.037 0.166 0.114 0.199 0.517 0.186 0.368 0.517 0.706 0.11 0.111 0.083 0.28 0.183 0.409 0.154 0.2 0.408 0.224 0.524 0.461 0.029 0.068 0.078 0.071 0.12 0.099 0.194 0.102-0.13 0.19-0.222 5e-3zm3.191 0.223c0.047-0.037 0.065-0.042 0.131-0.031 0.071 0.031 0.122 0.09 0.02 0.144-0.067 0.026-0.067-0.019-0.162-0.036-0.042-0.027-0.013-0.046 0.011-0.077zm-2.615-0.07c-0.047-0.149 0.038-0.131-0.05-0.226-0.033-0.037-0.02-0.069 9e-3 -0.082 0.122-0.038 0.285 0.064 0.274 0.182 5e-3 0.115 6e-3 0.169 0.046 0.228 0.052 0.072-0.066 0.108-0.138 0.087-0.066-0.029-0.113-0.08-0.141-0.189zm-0.191 0.225c-0.036-0.112-0.051-0.1-0.123-0.169-0.028-0.029-0.046-0.067 0-0.091 0.058-0.031 0.213 0.015 0.273 0.137 0.027 0.056 0.041 0.082 0.046 0.136 0.012 0.104-0.17 0.087-0.196-0.013zm0.47 0.195c0.02 0.061-0.019 0.086-0.092 0.091-0.065 3e-3 -0.142-0.07-0.091-0.136 0.056-0.045 0.153-0.031 0.183 0.045zm-0.53 0.053c-0.256-0.415-1.196-1.059-1.659-1.282-0.112-0.037-0.133-0.164 0-0.136 0.14 0.04 0.295 0.121 0.456 0.225v2e-3c1e-3 0 1e-3 0 2e-3 -1e-3 0.493 0.318 1.041 0.853 1.366 1.139 0.114 0.095-0.091 0.148-0.165 0.053zm-1.693 0.143c-0.267-0.285-0.644-0.447-1.046-0.586v-0.185c0.438 0.173 0.838 0.504 1.171 0.712 0.17 0.122-0.033 0.14-0.125 0.059zm-0.65-1.425c0.274 0.148 0.672 0.629 0.958 0.82 0.125 0.083 0.301 0.082 0.41 0.182 0.123 0.112 0.182 0.309 0.319 0.409 0.05 0.037 0.126 0.081 0.213 0.131h-0.305c-0.039-0.062-4e-3 -0.106-0.09-0.176-0.273-0.228-0.578-0.379-0.866-0.592-0.25-0.164-0.31-0.37-0.457-0.455-0.083-0.071-0.323-0.158-0.578-0.271v-0.176c0.023 0.014 0.048 0.028 0.075 0.042 0.107 0.062 0.22 0.021 0.321 0.086zm0.228 1.411c0.124 0.082 0.394 0.062 0.535 0.131h-0.51c-0.221-0.075-0.441-0.129-0.649-0.211v-0.215c0.167 0.047 0.294 8e-3 0.48 0.119 0.055 0.031 0.076 0.13 0.144 0.176zm0.414-0.34c-0.321-0.235-0.568-0.349-0.961-0.525-0.114-0.051-0.064-0.197 0.046-0.182 0.257 0.056 0.364 0.244 0.547 0.365 0.178 0.118 0.378 0.143 0.547 0.273 0.145 0.111 0.231 0.329 0.365 0.455 0.024 0.023 0.059 0.052 0.102 0.085h-0.21c-0.082-0.076-0.156-0.152-0.212-0.222-0.075-0.082-0.067-0.142-0.224-0.249zm2.231 0.022c-0.018-0.018-0.034-0.045 0-0.046 0.232 0.051 0.508 0.266 0.777 0.495h-0.307c-0.17-0.15-0.33-0.303-0.47-0.449zm-0.269 0.269c0.196 0.032 0.358 0.097 0.502 0.18h-0.348c-0.058-0.028-0.116-0.058-0.173-0.093-0.076-0.053-0.052-0.106 0.019-0.087zm-5e-3 -1.18c-0.03-0.043 5e-3 -0.08 0.064-0.046 0.224 0.173 0.529 0.725 0.802 0.957 0.144 0.121 0.369 0.281 0.641 0.449h-0.27c-0.181-0.119-0.351-0.24-0.507-0.358-0.333-0.251-0.45-0.697-0.73-1.002zm7.909 1.36h-0.154c0.054-0.042 0.108-0.082 0.164-0.12v0.111c-3e-3 3e-3 -6e-3 6e-3 -0.01 9e-3zm-2.999-0.359c-0.091 0.02-0.088 0.045-0.122 0.092-0.035 0.045-0.015 0.091 0.117 0.047 0.055-0.015 0.072-0.061 0.077-0.092 2e-3 -0.021-0.014-0.061-0.072-0.047zm-0.207-0.061c-0.041-0.081-0.177-0.064-0.235 0.016-0.046 0.07-0.036 0.132-0.011 0.147 0.015 0.015 0.061 0.028 0.081 0.029 0.037 1e-3 0.064-5e-3 0.113-0.039 0.055-0.051 0.068-0.094 0.052-0.153zm-0.326 0.062c-0.128-0.18-0.238-0.133-0.228 0.045 0.012 0.105 0.113 0.116 0.197 0.049 0.015-0.015 0.059-0.064 0.031-0.094zm-0.097-0.709c-0.121-0.042-0.079-0.072-0.129-0.104-0.056-0.026-0.13-0.038-0.169-0.025-0.106 0.016-0.134 0.107-0.099 0.168 0.022 0.037 0.054 0.05 0.082 0.061 0.142 0.051 0.164-0.011 0.3-0.026 0.061-8e-3 0.076-0.055 0.015-0.074zm-0.592-0.163c-0.565-1e-3 -0.863-0.227-1.18-0.494-0.042-0.037-0.089-0.059-0.107-0.024-0.047 0.047 2e-3 0.162 0.018 0.177 0.302 0.41 0.75 0.539 1.231 0.56 0.233 0.013 0.241-0.207 0.038-0.219zm-1.454-0.312c-0.055-0.079-0.084-0.355-0.182-0.455-0.081-0.083-0.163-0.041-0.319-0.182-0.099-0.07-0.292-0.039-0.274 0.045 0.011 0.367 0.352 1.031 0.547 1.23 0.13 0.131 0.268 0.135 0.387 0.281 0.057 0.066 0.119 2e-3 0.206 0.037 0.104 0.06-0.024 0.153 0.109 0.171 0.47 0.057 0.426 0.162 0.851 0.179 0.186 0.011 0.164-0.093 0.016-0.142-0.214-0.08-0.376-0.059-0.611-0.162-0.11-0.059-0.035-0.185-0.228-0.228-0.175-0.039-0.261 0.012-0.41-0.091-0.347-0.223-0.356-0.842-0.698-1.082-0.031-0.029-0.076-0.051-0.065-0.093 0.018-0.022 0.045-0.02 0.079-9e-3 0.273 0.103 0.273 0.302 0.41 0.547 0.149 0.266 0.633 0.593 0.957 0.683 0.133 0.053 0.045-0.093 0.228-0.046 0.056 0.014 0.085 0.081 0.228 0.091 0.116 0.01 0.143-0.112 0-0.136-0.481-0.119-0.987-0.288-1.231-0.638zm-0.912-0.182c-0.048-0.145 0.02-0.286-0.042-0.385-0.02-0.024-0.032-0.053-0.014-0.106 0.051-0.151-0.066-0.056-0.08 0.036-0.051 0.286 0.1 0.481 0.049 0.705-0.031 0.133 0.081 0.069 0.231 0.326 0.082 0.106 0.188 0.115 0.176 0.061-0.037-0.275-0.245-0.416-0.32-0.637zm2.69 0.956c-0.015-0.015-0.074-0.05-0.129-0.046-0.21 4e-3 -0.18 0.024-0.266 0.044-0.133 0.056-0.144 0.078-0.167 0.105-0.06 0.102 0.026 0.15 0.153 0.134 0.107 0 0.182-2e-3 0.315-0.022 0.055-0.011 0.103-0.06 0.118-0.106 0.015-0.015-7e-3 -0.086-0.024-0.109zm0.229 0c0.026-0.02 0.012-0.033 0-0.045-0.036-0.032-0.092-0.03-0.137 0-0.054 0.039-0.054 0.094 0 0.091 0.067 3e-3 0.107-0.019 0.137-0.046zm-0.365 0.546c0.093 0.037 0.135 0.024 0.182 0 0.086-0.076 0.073-0.184 0-0.198-0.08-0.015-0.155 7e-3 -0.202 0.053-0.073 0.047-0.033 0.133 0.02 0.145zm3.328-2.367c-0.064 0.077 0.09 0.126 0.046 0.273-0.05 0.187-0.168 0.527-0.274 0.729-0.869 1.656-3.786 2.144-5.243 0.683-0.03-0.032-0.069-0.075-0.141-0.018-0.148 0.155-0.465-0.401-0.512-0.773-5e-3 -0.353-0.05-0.525 0.106-0.712 0.015-0.015 0.025-0.025 0.049-0.041 0.155-0.095 0.04 0.193 0.179 0.178 0.072-0.022 0.231-0.085 0.364-0.046 0.064 0.019 0.165 0.172 0.274 0.137 0.275-0.065 0.75-0.024 1.255 0.142 0.313 0.084 0.515 0.084 0.698 0.023 0.095-0.025 0.107-0.126 0.095-0.214-0.098-0.659-0.619-0.445-0.934-0.853-0.13-0.144-0.168 0.111-0.332 0.092-0.069-0.015-0.065-0.072-0.202-0.126-0.447-0.142-1.131-0.203-1.583-0.02-0.18 0.065-0.315 0.143-0.365 0.364-0.056 0.241-0.112 0.549-0.091 0.728 0.017 0.148 0.261 0.29 0.319 0.41 0.412 0.854 1.131 1.313 2.014 1.633h-0.445c-0.621-0.3-1.145-0.698-1.432-1.087-0.485-0.655-0.869-1.447-0.315-2.036 0.313-0.25 1.453-0.455 1.956-0.058 0.121 0.1 0.228 0.094 0.236 0.017 3e-3 -0.045-4e-3 -0.107-0.107-0.141-0.305-0.137-0.638-0.215-1.278-0.198-0.133-0.012-0.141-0.076 0.05-0.088 1.365-0.093 2.277 0.628 2.589 1.234 0.088 0.164 0.142 0.385-0.053 0.468-0.443 0.178-0.961 0.107-1.564-0.159-0.141-0.065-0.293-0.069-0.374-0.04-0.095 0.02-0.041 0.108 0.045 0.137 0.289 0.106 0.384 0.146 0.672 0.253 0.306 0.061 0.542-0.042 0.787 0.02 0.4 0.052 0.873-0.112 0.77-0.279-0.144-0.201-0.019-0.467-0.177-0.723-0.072-0.117-0.284-0.126-0.365-0.227-0.069-0.09-0.011-0.154-0.072-0.242-0.076-0.111-0.361-0.189-0.475-0.259-0.12-0.057-0.056-0.103 0.046-0.091 0.507 0.02 1.308 0.773 1.106 1.341-0.051 0.173 0.013 0.199 0.07 0.212 0.098 0.022 0.108-0.07 0.1-0.233-0.022-1.265-1.33-1.753-2.452-2.062h0.786c0.1 0.075 0.182 0.162 0.253 0.195 0.568 0.267 1.054 0.543 1.368 1.047 0.095 0.153 0.161 0.44 0.169 0.613 0.026 0.569-0.255 0.789-0.475 0.797-0.148 0.012-0.169 0.077-0.241 0.093-0.244 0.051-0.338-0.118-0.662-0.11-0.099 9e-3 -0.134 0.026-0.159 0.064-0.031 0.053-9e-3 0.104 0.064 0.139 0.389 0.164 0.337-0.069 0.757 0.043 0.306 0.095 0.801-0.367 0.866-0.728 0.032-0.182-0.099-0.655-0.182-0.819-0.421-0.827-0.705-0.948-1.447-1.334h0.493c0.075 9e-3 0.15 0.022 0.224 0.059 0.09 0.051 0.11 0.201 0.183 0.273 0.441 0.438 0.824 0.737 0.82 1.639 6e-3 0.115 0.025 0.219 0.09 0.111 0.029-0.05 0.038-0.08 0.047-0.157 0.02-0.144 0.066-0.327-7e-3 -0.685-0.054-0.313-0.419-0.78-0.907-1.24h0.234c0.211 0.221 0.394 0.443 0.543 0.651 0.68 0.948 0.024 1.995-0.618 2.439-0.119 0.076-0.092 0.148 7e-3 0.147 0.076-6e-3 0.16-0.013 0.246-0.083 0.144-0.103 0.013-0.235 0.183-0.364 1.037-0.789 0.594-1.947-0.092-2.79h0.276c0.541 0.908 0.958 2.231-0.093 2.972-0.102 0.07-0.111 0.11 0 0.091 0.713-0.129 0.665-0.827 0.821-1.547 0.01-0.05 0.09-0.245 0.045-0.365-0.146-0.386-0.325-0.784-0.543-1.151h0.174c0.229 0.418 0.278 0.734 0.293 0.811 0.012 0.098 0.063 0.134 0.122 0.022 0.113-0.199-0.204-0.531-0.274-0.683-0.023-0.051-0.041-0.101-0.057-0.15h0.217c0.017 0.063 0.038 0.127 0.068 0.195 0.162 0.372 0.267 1.538 0.015 1.963-0.051 0.101-0.076 0.181-0.032 0.232 0.026 0.023 0.072 0.045 0.116-0.021 0.274-0.597 0.371-1.523 0.129-2.219-0.017-0.05-0.04-0.1-0.065-0.15h0.155c0.09 0.279 0.143 0.581 0.138 0.787-6e-3 0.13 0.097 0.132 0.137 0 0.033-0.126-0.036-0.324 0.046-0.455 0.027-0.035 0.077-0.033 0.11 0.078 0.236 0.584 0.149 1.445-0.185 1.866-0.036 0.053-0.036 0.093-0.062 0.15-0.029 0.046-0.092 0.039-0.071-0.125 0.082-0.533 0.211-0.608 0.244-1.285 0.012-0.177-0.186-0.08-0.173 0.029-2e-3 0.531-1e-3 1.029-0.245 1.347-0.04 0.057-0.067 0.113-0.097 0.143-0.107 0.082-0.166-0.063-0.21 0.032-0.227 0.438-0.539 0.399-0.952 0.762-0.024 0.018-0.042 0.037-0.057 0.052-0.028 0.024-0.054 0.059 0.056 0.047 0.539-0.051 0.997-0.486 1.233-0.851 0.052-0.07 0.133-0.138 0.189-0.069 0.048 0.073 8e-3 0.132-0.04 0.164-0.553 0.328-0.712 0.809-1.519 0.892-0.141 0.014 0.044-0.186-0.106-0.161-0.247 0.023-0.193 0.106-0.304 0.252-0.022 0.04 4e-3 0.047 0.046 0.046 1.47-0.086 2.137-0.833 2.462-2.049 0.15-0.56-0.06-1.115-0.121-1.652h0.187c0.493 1.753-0.36 3.288-1.653 3.732-0.227 0.066-0.2 0.195-0.06 0.176 1.352-0.333 2.229-1.823 1.875-3.485-0.042-0.15 0.057-0.199 0-0.41-1e-3 -4e-3 -3e-3 -8e-3 -4e-3 -0.013h0.158c0.015 0.112 0.024 0.223 0.028 0.332v1.047c0 0.083 0.02 0.077 0.046 0 0.134-0.383 0.136-0.87 0.048-1.379h0.075c0.103 0.487 0.184 1.134 0.014 1.516-0.031 0.09-0.132 0.074-0.183 0.136zm0.193 2.589c0.151-0.077 0.338-0.267 0.522-0.495v0.279c-0.124 0.049-0.233 0.126-0.333 0.216zm-0.044 0h-0.282c0.214-0.159 0.403-0.342 0.544-0.54 0.115-0.163 0.186-0.347 0.304-0.494v0.303c-0.174 0.243-0.357 0.475-0.532 0.691-0.017 0.018-0.027 0.031-0.034 0.04zm0.398-1.496c-0.048-0.104-0.108-0.057-0.136 0-0.04 0.084 0.018 0.16-0.092 0.227-0.079 0.054-0.128 0.099-0.045 0.091 0.015 0 0.029-9e-3 0.045 0 0.012 0.013 0 0.031 0 0.046-0.024 0.139 0.167-0.052 0.228-0.137 0.043-0.039 0.068-0.147 0-0.227zm-0.345 0.448c-0.011-0.145-0.076 0.054-0.156 0.098-0.052 0.047-0.088 0.07-0.019 0.121 0.033 0.037 0.019 0.076 0.019 0.107 0.017 0.094 0.105 0.094 0.137 0 0.019-0.059 0.051-0.076 0.092-0.118 0.069-0.051 0.036-0.051-0.035-0.098-0.016-0.013-0.038-0.056-0.038-0.11zm0.353-1.8c0.027-0.098 0.024-0.181-8e-3 -0.196-0.029-0.012-0.056 0.016-0.07 0.063-0.053 0.191-0.055 0.245-0.094 0.388-0.043 0.154 0.123-0.103 0.172-0.255zm0.16 0.953c-8e-3 -6e-3 -0.017-0.011-0.031-0.011-0.045 0-0.07-0.016-0.109-2e-3 -0.036 9e-3 -0.058 0.032-0.073 0.048-0.044 0.058-0.06 0.11-1e-3 0.161 0.029 0.024 0.064 0.025 0.115 0.015 0.024-7e-3 0.053-0.025 0.068-0.04 0.013-0.01 0.023-0.025 0.031-0.04v0.468c-0.229 0.197-0.488 0.756-0.669 0.938-0.131 0.131-0.271 0.249-0.419 0.358h-0.311c0.204-0.193 0.4-0.397 0.639-0.495 0.101-0.042 0.081-0.188-0.094-0.144-0.368 0.171-0.471 0.416-0.727 0.599-0.019 0.014-0.039 0.027-0.058 0.04h-0.343c0.585-0.269 1.281-1.02 1.495-1.405 0.151-0.271 0.106-0.622 0.319-0.82 0.054-0.045 0.061-0.115 0-0.136-0.076-0.015-0.227-0.054-0.235 0.115-0.011 1.213-1.027 1.754-1.824 2.214-0.026 0.011-0.047 0.022-0.065 0.032h-0.549c1.019-0.242 1.759-0.867 2.126-1.724 0.299-0.697 0.39-1.628 0.301-2.517h0.084c0.06 0.228 0.2 0.499 0.071 0.696-0.106 0.134 0 0.273 0 0.41-6e-3 0.095 0.049 0.105 0.091 0 0.107-0.316 0.084-0.732 0.021-1.106h0.147v1.195c-0.013 0.092-0.048 0.172-0.122 0.275-0.115 0.168-0.084 0.244 0 0.182 0.044-0.028 0.086-0.099 0.122-0.191zm-9.834-1.422c-0.054 0.073-0.054 0.023-0.045-0.046 0.06-0.434 0.431-0.575 0.638-0.865 3e-3 -4e-3 6e-3 -8e-3 9e-3 -0.013h0.128c-0.264 0.305-0.506 0.64-0.684 0.878-0.016 0.015-0.031 0.031-0.046 0.046zm2.412 2.231c-0.096 2e-3 -0.144-0.031-0.107-0.071 0.032-0.049 0.113 0.04 0.112-0.021-0.049-0.424-0.659-1.099-0.371-1.726 0.359-0.602 0.487-0.385 0.856-0.648 0.148-0.089 0.306-0.06 0.335-0.038 0.057 0.029 0.046 0.071 0 0.091-0.477 0.181-0.937 0.234-1.094 0.728-0.086 0.299-0.011 0.639 0.046 0.774 0.192 0.46 0.52 0.952 0.866 1.275 0.325 0.302 0.661 0.531 1.037 0.722h-0.44c-0.099-0.059-0.192-0.118-0.278-0.176-0.309-0.21-0.539-0.881-0.962-0.91zm-0.862-3.005c-0.041-0.056-0.048-0.117 0.046-0.137 0.014-3e-3 0.027-8e-3 0.041-0.013h0.306c-0.116 0.044-0.206 0.094-0.256 0.15-0.039 0.045-0.115 0.045-0.137 0zm-2.375 2.16c0.084 0.047 0.199 0.027 0.278 0.071 0.281 0.149 0.47 0.506 0.729 0.682 0.093 0.071 0.219-7e-3 0.291 0.076 0.087 0.073 0.021 0.159 0.12 0.243 0.24 0.183 0.495 0.278 0.729 0.455 0.12 0.091 0.243 0.265 0.362 0.404h-0.164c-0.235-0.223-0.466-0.445-0.699-0.631-0.195-0.156-0.441-0.212-0.639-0.365-0.233-0.18-0.44-0.473-0.684-0.637-0.137-0.097-0.273-0.058-0.364-0.137-0.063-0.038-0.14-0.13-0.214-0.198v-0.191c0.091 0.08 0.166 0.181 0.255 0.228" fill="#2492d0"/>
  </g>
  <g fill="#fff" fill-opacity=".94118">
   <path d="m442.68 430.91c24.453 0 38.236 17.473 33.842 39.416-3.7156 18.252-13.934 27.315-21.214 30.553l5.0211 45.516h-28.018l-2.2846-40.495-10.193 0.17572-8.5861 40.32h-27.39l24.955-115.49z"/>
   <path d="m295.21 527.95 14.109-64.647c6.8036-31.432 28.344-34.344 42.428-34.344 19.607 0 37.106 12 32.738 31.909l-1.9582 8.7618h-27.039l1.4561-7.6321c1.7825-9.2388-2.2846-11.975-7.7827-11.975-4.042 0-10.193 1.2804-12.954 13.758l-10.846 49.408c-1.7825 8.2848-0.17572 14.436 7.9333 15.239 8.7368 0.80338 11.348-8.2597 12.477-13.783l1.9331-9.6908h27.064l-2.7616 13.281c-4.5441 21.691-20.737 30.277-40.345 30.277-5.4981 0-15.716-1.2804-24.302-9.3895-5.6488-5.3475-14.888-4.2177-14.888-4.2177s1.9331-2.7616 2.7365-6.9542z"/>
   <path d="m529.92 430.91-25.131 115.49h-27.039l25.106-115.49z"/>
   <path d="m592.46 430.91 1.3055 69.542 24.955-69.542h40.495l-24.955 115.49h-25.583l15.716-67.609c0.47702-2.4352-2.1089-3.2386-3.2386-0.32633l-26.411 67.936h-21.39l-1.1298-67.459c-0.17572-4.042-2.9122-2.9122-3.4144-0.32634l-14.737 67.785h-25.909l25.583-115.49z"/>
   <path d="m743.05 430.91-4.1926 20.561h-32.462l-5.8245 25.281h28.796l-4.8705 20.888h-28.294l-6.0002 28.194h27.691l-4.042 20.561h-55.408l24.629-115.49z"/>
  </g>
  <path d="m450.94 470.98c3.3893-13.708-3.8914-19.356-9.4146-19.356h-10.519l-7.2806 33.717h12.954c10.042-1.3055 14.26-14.36 14.26-14.36" fill="#002159"/>
 </g>
</svg>
