<svg xmlns="http://www.w3.org/2000/svg" width="96.199mm" height="12.74mm" viewBox="0 0 96.199486 12.740477"><defs><linearGradient id="a" x1="1574.7" x2="2362" y1="-326.5" y2="-326.5" gradientTransform="matrix(.5 0 0 .5 153.05 -177.43)" gradientUnits="userSpaceOnUse"><stop stop-color="#025984" offset="0"/><stop stop-color="#007ba3" offset="1"/></linearGradient><linearGradient id="b" x1="972.65" x2="1074.9" y1="-189.14" y2="-189.14" gradientTransform="translate(153.05 -117.43)" gradientUnits="userSpaceOnUse"><stop stop-color="#001932" stop-opacity=".196" offset="0"/><stop stop-color="#00324b" stop-opacity="0" offset="1"/></linearGradient><linearGradient id="c" x1="787.33" x2="1574.7" y1="-326.5" y2="-326.5" gradientTransform="matrix(.5 0 0 .5 153.05 -177.43)" gradientUnits="userSpaceOnUse"><stop stop-color="#fdba0d" offset="0"/><stop stop-color="#ffd502" offset="1"/></linearGradient><linearGradient id="d" x1="1831.1" x2="2235.4" y1="-193" y2="-193" gradientTransform="matrix(.5 0 0 .5 153.05 -177.43)" gradientUnits="userSpaceOnUse"><stop stop-color="#001932" stop-opacity=".392" offset="0"/><stop stop-color="#00324b" stop-opacity=".196" offset="1"/></linearGradient><linearGradient id="e" x1="1433.9" x2="1433.9" y1="-120" y2="-464" gradientTransform="matrix(.5 0 0 .5 153.05 -177.43)" gradientUnits="userSpaceOnUse"><stop stop-color="#c80000" stop-opacity=".196" offset="0"/><stop stop-color="#c80000" stop-opacity=".098" offset="1"/></linearGradient><linearGradient id="f" x1="127.25" x2="787.33" y1="-273.25" y2="-273.25" gradientTransform="matrix(.5 0 0 .5 153.05 -177.43)" gradientUnits="userSpaceOnUse"><stop stop-opacity=".196" offset="0"/><stop stop-color="#640032" stop-opacity=".196" offset="1"/></linearGradient><filter id="g" x="-.007" y="-.053" width="1.014" height="1.105" color-interpolation-filters="sRGB"><feGaussianBlur stdDeviation="2.974"/></filter></defs><g><g><path fill="url(#a)" d="M48.861-.135h24.408v12.803h-24.408z"/><path d="M64.579 9.325l-7.358-.59 3.132-6.73z" fill="url(#b)" fill-rule="evenodd"/><path fill="#e60d38" d="M.046-.135h24.408v12.803h-24.408z"/><path fill="url(#c)" d="M24.454-.135h24.408v12.803h-24.408z"/><path d="M60.35 2.004l-7.077 8.401.735 2.263h18.449l-3.114-4.286-4.766.943-7.358-.59z" fill="url(#d)" fill-rule="evenodd"/><path d="M44.497 2.004l-15.869 2.023 1.369 8.641h18.864v-4.658z" fill="url(#e)"/><path d="M19.327 3.167l-11.756.21-3.58 7.028.481 2.263h19.981v-2.459z" fill="url(#f)"/></g><path d="M17.244 2.004l-.066.001h-13.187v8.4h6.222v-2.76h1.217l3.179 2.76h6.649l-4.08-2.912c1.442.039 2.66-1.26 2.636-2.764-.022-1.47-1.179-2.721-2.57-2.725zm11.384 0v2.023h4.711v6.378h6.537v-6.378h4.621v-2.023zm24.645 0v8.401h16.07v-2.023h-8.993v-6.377zm-43.06 1.989h2.912c.403 0 .77.393.77.877s-.366.877-.77.877l-2.913.004v-1.759z" fill-opacity=".196" fill-rule="evenodd" filter="url(#g)"/><path d="M17.244 2.004l-.066.001h-13.187v8.4h6.222v-2.76h1.217l3.179 2.76h6.649l-4.08-2.912c1.442.039 2.66-1.26 2.636-2.764-.022-1.47-1.179-2.721-2.57-2.725zm11.384 0v2.023h4.711v6.378h6.537v-6.378h4.621v-2.023zm24.645 0v8.401h16.07v-2.023h-8.993v-6.377zm-43.06 1.989h2.912c.403 0 .77.393.77.877s-.366.877-.77.877l-2.913.004v-1.759z" fill="#fff" fill-rule="evenodd"/><g style="font-variant-ligatures:normal;font-variant-caps:normal;font-variant-numeric:normal;font-feature-settings:normal"><path d="M78.567 11.404v-10.47h1.258v4.3h4.94v-4.3h1.258v10.47h-1.258v-4.935h-4.94v4.935z"/><path d="M88.125 11.404v-10.47h3.274q1.109 0 1.692.15.817.207 1.394.75.752.7 1.122 1.793.376 1.086.376 2.485 0 1.193-.253 2.114-.253.921-.648 1.528-.395.6-.869.95-.467.343-1.135.521-.661.179-1.523.179zm1.258-1.236h2.029q.94 0 1.472-.193.538-.193.856-.543.447-.493.694-1.321.253-.836.253-2.021 0-1.643-.493-2.521-.486-.886-1.186-1.186-.506-.214-1.627-.214h-1.997z"/></g></g></svg>