<svg xmlns="http://www.w3.org/2000/svg" height="343.96" width="600" viewBox="0 0 158.75 91.005">
    <g fill="#41e5ae">
        <path d="M90.426 61.188c-.96 2.48-2.69 3.65-3.49 3.21-1.67-.91.81-20.675 1.58-28.025.26-2.478-6.09.355-6.61 4.998-.48 3.646-.94 9.17-1.02 13.419-.88 5.968-2.43 8.938-4.29 8.978-2 .04-1.61-8.961 1.8-26.945-.66-1.685-6.27 1.315-7.39 7.207-1.67 8.76-3.99 28.128 4.54 28.128 2.7 0 4.46-3.68 5.77-7.72.79 2.78 1.54 4.35 2.46 5.27 2.77 2.77 9.57-7.61 6.65-8.52M28.689 60.478c17.857-3.94 6.406-51.919 3.672-51.616-3.503.388-4.782 19.108-3.863 38.597.116 3.444.162 9.569.191 13.019m-8.016 17.66c-5.906-3.69-10.74-6.52-13.279-6.24-4.028.44 2.836 11.21 7.916 10.65 2.89-.32 4.514-1.66 5.363-4.41m-5.309-20.54c1.446 1.44 4.281 2.56 6.21 2.74l-.452-11.441c-.567-23.518 3.109-44.849 10.989-45.723 10.855-1.203 23.455 57.714-3.385 60.144-.147 4.28-.929 9.01-1.824 12.12 14.634 7.05 22.444 8.96 33.764 4.69 4.55-1.72 1.89 9.57-6.68 10.68-10.05 1.3-19.326-4.03-29.12-10.03-2.221 3.97-5.325 6.35-9.003 6.76-13.048 1.44-21.789-19.04-11.016-20.23 3.589-.4 9.719 2.6 16.743 5.99.098-2.32.091-6.75-.016-10.11-1.552-.41-3.052-1.16-4.095-1.76-2.245-1.27-2.788-3.01-2.115-3.83"/>
        <path d="M61.316 60.528c-3.93-1.79-3.64-9.497-.14-9.932 2.56-.261 4.21 1.386 4.73 4.802.94-.33 3.41-.947 5.38-3.979.89-1.14.71 1.037.45 2.023-1.58 2.186-3.15 4.096-5.48 5.626-.57 7.85-3.9 17.86-10.61 17.75-14.77-.23-13.03-34.606 1.49-35.953 9.09-.842 8.72 10.054 3.59 7.935 0-1.024-.9-3.897-2.69-3.892-6.52.016-7.81 25.92-1.8 25.9 2.05 0 3.99-3.46 5.08-10.28M107.026 31.471c3.19-.178 5.41.889 4.81 7.754-.88 9.012-2.31 17.933-.69 19.623 1.75 1.66 5.11-3.89 5.35-4.509 2.11-.56-2.02 10.929-7.41 9.879-6.3-1.22-4.17-14.506-2.97-23.512.27-1.902-.14-2.182-.53-2.188-1.03-.016-4.11 5.081-6.14 12.133-.37 1.281-1.01 4.227-1.49 8.187-.12.83-.05 2.61-.41 4.68-.41 2.26-1.21 3.71-2.08 3.7-3.2-.05-3.28-5.9-3.25-12.29.03-7.743.42-12.778 1.35-18.625.6-3.741 6.89-6.462 6.69-5.019-.83 6.28-2.05 10.764-2.25 15.57 1.88-6.766 3.32-14.083 9.02-15.383"/>
        <path d="M127.856 66.198c-13.96 1.35-6.7 20.11-3.08 20.16 2.2.02 3.11-8.6 3.08-20.16m5.51-7.23c.01 14.08-1.47 29.86-7.99 30.05-11 .32-20.63-25.21 2.46-26.43l-.24-8.154c-1.07 3.724-3.53 6.694-6.12 6.764-9.83.29-6.88-36.004 5.3-36.358 9.12-.266 8 13.76 1.96 11.577.77-3.405-.71-6.908-2.2-6.863-4.09.117-7.26 25.354-3.96 25.264 2.2-.065 4.34-8.811 5.14-16.382 1.86-.919 5.27-.075 5.51 2.906.19 3.691-.09 8.922.04 13.4 1.07-.29 2.53-.739 4.32-4.333.86-.045.84 1.742.23 3.256-.96 2.193-2.01 3.623-4.45 5.303M144.156 38.807c5.12-3.307 6.25-14.533 3.81-14.42-1.73.081-3.59 7.406-3.81 14.42m-.03 2.755c.24 5.105 1.59 8.898 4.81 8.748 3.69-.17 6.47-4.786 8.43-11.566 1.1-.279 1.75 1.42 1.16 4.269-1.52 7.297-6.26 12.045-11.29 12.275-6.36.3-9.09-6.837-9-15.025.05-9.289 3.64-20.357 10.08-20.656 9.1-.424 5.6 21.028-4.19 21.955M54.666 3.039V9.57h1.31c1.24 0 2-.546 2-2.248V5.226c0-1.519-.52-2.187-1.7-2.187zm3.65 18.227c-.19-.546-.31-.88-.31-2.611v-3.343c0-1.974-.67-2.703-2.19-2.703h-1.15v8.657h-3.34V0h5.04c3.46 0 4.95 1.61 4.95 4.892v1.67c0 2.188-.7 3.617-2.18 4.316 1.67.697 2.21 2.307 2.21 4.525v3.282c0 1.034.04 1.793.37 2.581zM63.146 0h10.33v3.039h-3.5v18.227h-3.34V3.039h-3.49zM75.446 0h3.34v18.23h5.5v3.036h-8.84z"/>
    </g>
</svg>
