<svg width="1744.001" height="200" version="1.1" viewBox="0 0 1744.0009 200" xml:space="preserve" xmlns="http://www.w3.org/2000/svg">
<g transform="scale(.99704876)" clip-rule="evenodd" fill-rule="evenodd">
	<path d="m1291.0102 154.007h-78.247v-108.055h20.156v90.764h58.091v17.291m17.323 0h20.147v-108.055h-20.147zm101.7 0h-22.667l-42.67-106.514v-1.541h21.889l31.798 84.899h0.642l31.316-84.899h22.362v1.541l-42.67 106.514m59.199 0h20.155v-108.055h-20.155zm72.261 0h-20.155v-108.055h23.301l53.534 78.263h0.642v-78.263h19.979v108.055h-23.132l-53.534-77.798h-0.642v77.798m126.116-5.088c-8.235-4.368-14.959-11.122-19.289-19.377-4.461-8.393-6.684-18.19-6.684-29.407 0-11.321 2.223-21.174 6.684-29.559 4.328-8.253 11.018-15.028 19.217-19.457 8.337-4.573 18.23-6.868 29.672-6.868 9.444 0 17.853 1.573 25.194 4.71 7.35 3.137 13.231 7.566 17.628 13.271 4.413 5.713 7.029 12.332 7.879 19.843h-20.308c-1.016-6.057-4.496-11.422-9.612-14.82-5.248-3.611-12.172-5.408-20.781-5.408-11.337 0-20.019 3.37-26.053 10.11s-9.059 16.136-9.059 28.179c0 12.036 3.025 21.375 9.067 28.011 6.026 6.644 14.764 9.957 26.213 9.957 9.227 0 16.577-2.239 22.041-6.708 5.456-4.477 8.601-10.527 9.444-18.142h-27.561v-17.138h47.869v10.655c0 9.781-2.086 18.342-6.226 25.7-4.148 7.358-10.126 13.071-17.941 17.139-7.823 4.06-17.034 6.098-27.625 6.098-11.45 0-21.367-2.271-29.768-6.796"/>
	
		
			<rect width="356.64301" height="200.592" fill="#edc00c"/>
			<path d="m193.766 96.247c15.314 0 22.764-4.932 22.764-15.003s-7.45-14.873-22.764-14.873h-67.098v29.876zm-91.912-50.148h95.157c28.967 0 45.087 13.004 45.087 34.834 0 18.741-12.096 31.278-32.705 34.237l46.644 39.324h-35.794l-43.867-37.948h-49.707v37.948h-24.814c-2e-3 -1e-3 -2e-3 -108.395-1e-3 -108.395z" fill="#fff"/>
		
		
			<rect x="784.61499" width="356.64301" height="200.592" fill="#ff5c01"/>
			<polygon points="1030.683 154.493 895.812 154.493 895.812 46.099 920.575 46.099 920.575 133.131 1030.683 133.131" fill="#fff"/>
		
		
			<rect x="392.46301" width="356.33099" height="200.592" fill="#ec33ec"/>
			<polygon points="645.695 46.099 645.695 67.461 583.01 67.461 583.01 154.493 558.247 154.493 558.247 67.461 495.562 67.461 495.562 46.099" fill="#fff"/>
		
	
</g>
</svg>
