<svg width="1917.968" height="200" version="1.1" viewBox="0 0 1917.9681 200" xml:space="preserve" xmlns="http://www.w3.org/2000/svg">
<g transform="scale(.99704876)" clip-rule="evenodd" fill-rule="evenodd">
	
		
			<rect width="356.64301" height="200.592" fill="#9629bc"/>
			<path d="m193.766 96.247c15.314 0 22.764-4.932 22.764-15.003s-7.45-14.873-22.764-14.873h-67.098v29.876zm-91.912-50.148h95.157c28.967 0 45.087 13.004 45.087 34.834 0 18.741-12.096 31.278-32.705 34.237l46.644 39.324h-35.794l-43.867-37.948h-49.707v37.948h-24.814c-2e-3 -1e-3 -2e-3 -108.395-1e-3 -108.395z" fill="#fff"/>
		
		
			<rect x="784.61499" width="356.64301" height="200.592" fill="#6e0ced"/>
			<polygon points="920.575 46.099 920.575 133.131 1030.683 133.131 1030.683 154.493 895.812 154.493 895.812 46.099" fill="#fff"/>
		
		
			<rect x="392.46301" width="356.33099" height="200.592" fill="#ec33ec"/>
			<polygon points="558.247 154.493 558.247 67.461 495.562 67.461 495.562 46.099 645.695 46.099 645.695 67.461 583.01 67.461 583.01 154.493" fill="#fff"/>
		
	
	<path d="m1262.0132 99.363c6.515 0 11.495-1.57 14.914-4.71 3.428-3.14 5.137-7.692 5.137-13.658 0-5.669-1.744-10.038-5.215-13.126-3.48-3.087-8.425-4.622-14.835-4.622h-28.72v36.107h28.72v9e-3zm-49.25 54.639v-108.058h51.979c7.588 0 14.268 1.474 20.051 4.404 5.56 2.739 10.209 7.028 13.387 12.349 3.157 5.303 4.736 11.399 4.736 18.297 0 6.995-1.579 13.195-4.736 18.594-3.148 5.407-7.614 9.594-13.387 12.585-5.782 2.983-12.472 4.474-20.059 4.474h-31.441v37.354h-20.53zm142.124-88.138-17.8 47.078h36.255l-17.809-47.078zm-11.861-19.911h24.856l43.319 106.506v1.544h-22.458l-8.983-23.766h-49.25l-8.983 23.766h-21.498v-1.544zm88.217 100.104c-8.547-6.428-13.143-15.463-13.788-27.089h20.53c1.177 12.759 11.181 19.135 30.002 19.135 8.12 0 14.251-1.256 18.367-3.776 4.117-2.529 6.175-6.105 6.175-10.727 0-4.012-1.308-7.082-3.925-9.184-2.616-2.111-7.352-3.785-14.19-5.023l-19.257-3.55c-11.774-2.268-20.382-5.861-25.833-10.806-5.46-4.936-8.181-11.626-8.181-20.059 0-9.471 3.925-16.963 11.8-22.466 7.849-5.503 18.681-8.259 32.478-8.259 8.983 0 16.893 1.465 23.748 4.404 6.838 2.93 12.184 6.995 16.039 12.193 3.837 5.198 5.878 11.137 6.088 17.827h-20.53c-0.541-5.451-3.044-9.62-7.535-12.506-4.492-2.878-10.972-4.317-19.423-4.317-14.643 0-21.978 4.369-21.978 13.117 0 3.297 1.369 6 4.099 8.111 2.73 2.102 7.082 3.68 13.082 4.71l18.28 3.227c12.838 2.381 22.039 6.079 27.594 11.12 5.556 5.05 8.338 12.044 8.338 21.001 0 10.291-3.925 18.289-11.791 24.001-7.849 5.712-19.274 8.564-34.24 8.564-15.41-2e-3 -27.385-3.22-35.949-9.648m109.488 0c-8.573-6.428-13.169-15.463-13.797-27.089h20.521c1.169 12.759 11.181 19.135 30.002 19.135 8.128 0 14.251-1.256 18.367-3.776 4.125-2.529 6.175-6.105 6.175-10.727 0-4.012-1.308-7.082-3.925-9.184-2.616-2.111-7.352-3.785-14.198-5.023l-19.248-3.55c-11.774-2.268-20.382-5.861-25.833-10.806-5.442-4.936-8.172-11.626-8.172-20.059 0-9.471 3.925-16.963 11.782-22.466 7.858-5.503 18.69-8.259 32.487-8.259 8.983 0 16.902 1.465 23.74 4.404 6.846 2.93 12.201 6.995 16.047 12.193 3.837 5.198 5.878 11.137 6.088 17.827h-20.539c-0.523-5.451-3.035-9.62-7.527-12.506-4.5-2.878-10.971-4.317-19.414-4.317-14.652 0-21.978 4.369-21.978 13.117 0 3.297 1.361 6 4.09 8.111 2.73 2.102 7.082 3.68 13.073 4.71l18.289 3.227c12.829 2.381 22.03 6.079 27.586 11.12 5.573 5.05 8.338 12.044 8.338 21.001 0 10.291-3.925 18.289-11.783 24.001s-19.274 8.564-34.249 8.564c-15.402 0-27.376-3.218-35.932-9.646m106.847 7.943h20.521v-108.058h-20.521zm125.919-26.164c6.41-6.838 9.62-16.135 9.62-27.856 0-11.739-3.209-21.019-9.62-27.865-6.419-6.846-15.568-10.265-27.438-10.265-11.861 0-21.001 3.401-27.42 10.187-6.419 6.794-9.629 16.108-9.629 27.943 0 11.73 3.209 21.019 9.629 27.856 6.419 6.846 15.559 10.265 27.42 10.265 11.871 0 21.02-3.418 27.438-10.265zm-58.232 20.844c-8.507-4.428-15.512-11.278-20.129-19.684-4.649-8.434-6.977-18.114-6.977-29.016 0-10.91 2.329-20.582 6.977-29.025 4.619-8.405 11.623-15.254 20.129-19.684 8.774-4.675 19.039-7.021 30.795-7.021 11.661 0 21.856 2.346 30.569 7.021 8.483 4.462 15.478 11.303 20.129 19.684 4.709 8.442 7.056 18.114 7.056 29.025 0 10.902-2.355 20.582-7.056 29.016-4.648 8.382-11.645 15.224-20.129 19.684-8.721 4.683-18.908 7.021-30.569 7.021-11.757 0-22.022-2.337-30.795-7.021zm129.617 5.32h-20.53v-108.058h23.74l54.544 78.266h0.637v-78.257h20.382v108.058h-23.591l-54.544-77.804h-0.637v77.795"/>
</g>
</svg>
