<?xml version="1.0" encoding="UTF-8" standalone="no"?>
<svg xmlns:rdf="http://www.w3.org/1999/02/22-rdf-syntax-ns#" xmlns="http://www.w3.org/2000/svg" height="109.27" width="600" version="1.1" xmlns:cc="http://creativecommons.org/ns#" xmlns:dc="http://purl.org/dc/elements/1.1/" viewBox="0 0 158.75 28.911809">
 <g transform="translate(144.73 -133.32)">
  <path d="m-144.73 133.32v28.91h158.75l0.004-28.91z" fill="#cb2367"/>
  <g fill="#63103c">
   <path d="m-129.86 148.98c2.6 0 4.54-1.31 4.54-3.56v-0.04c0-2.09-1.65-3.41-4.48-3.41h-5.31v7.01zm-6.41-8.07h6.54c1.92 0 3.45 0.59 4.39 1.53 0.73 0.74 1.17 1.78 1.17 2.89v0.05c0 2.6-1.93 4.09-4.56 4.45l5.15 6.65h-1.47l-4.97-6.45h-5.09v6.45h-1.16z"/>
   <path d="m-116.38 141.97h-5.43v-1.07h12.02v1.07h-5.43v14.51h-1.16z"/>
   <path d="m-106.28 140.9h1.16v14.51h9.146v1.07h-10.306z"/>
  </g>
  <g fill="#fff">
   <path d="m-86.315 148.97c3.003 0 5.036-1.57 5.036-3.97v-0.05c0-2.56-1.986-3.9-4.898-3.9h-4.571v7.92zm-5.635-9.03h5.868c3.554 0 6.005 1.82 6.005 4.94v0.05c0 3.4-2.934 5.15-6.307 5.15h-4.364v6.03h-1.202z"/>
   <path d="m-68.062 150.5-4.252-9.36-4.274 9.36zm-4.803-10.68h1.154l7.531 16.29h-1.318l-2.055-4.53h-9.543l-2.055 4.53h-1.245z"/>
   <path d="m-62.496 153.75 0.784-0.9c1.78 1.64 3.421 2.41 5.799 2.41 2.426 0 4.089-1.37 4.089-3.22v-0.04c0-1.71-0.901-2.71-4.571-3.44-3.882-0.79-5.454-2.1-5.454-4.56v-0.04c0-2.4 2.192-4.25 5.199-4.25 2.353 0 3.904 0.65 5.541 1.96l-0.759 0.95c-1.525-1.32-3.05-1.83-4.829-1.83-2.378 0-3.951 1.37-3.951 3.05v0.05c0 1.71 0.879 2.75 4.714 3.53 3.739 0.77 5.311 2.11 5.311 4.46v0.05c0 2.61-2.24 4.41-5.359 4.41-2.585 0-4.575-0.85-6.514-2.59"/>
   <path d="m-48.289 153.75 0.784-0.9c1.779 1.64 3.42 2.41 5.799 2.41 2.425 0 4.088-1.37 4.088-3.22v-0.04c0-1.71-0.9-2.71-4.571-3.44-3.882-0.79-5.454-2.1-5.454-4.56v-0.04c0-2.4 2.197-4.25 5.2-4.25 2.352 0 3.903 0.65 5.54 1.96l-0.758 0.95c-1.525-1.32-3.05-1.83-4.83-1.83-2.378 0-3.95 1.37-3.95 3.05v0.05c0 1.71 0.879 2.75 4.713 3.53 3.739 0.77 5.312 2.11 5.312 4.46v0.05c0 2.61-2.24 4.41-5.359 4.41-2.59 0-4.576-0.85-6.514-2.59"/>
   <path d="m-32.652 139.94h1.202v16.17h-1.202z"/>
   <path d="m-12.415 148.07v-0.05c0-3.99-2.912-7.27-6.906-7.27-3.998 0-6.863 3.23-6.863 7.23v0.04c0 4 2.912 7.28 6.906 7.28 3.998 0 6.863-3.23 6.863-7.23m-15.014 0v-0.05c0-4.41 3.257-8.36 8.151-8.36 4.898 0 8.112 3.9 8.112 8.32v0.04c0 4.41-3.261 8.37-8.155 8.37-4.898 0-8.108-3.91-8.108-8.32"/>
   <path d="m-7.8885 139.94h1.133l11.158 14.07v-14.07h1.1546v16.17h-0.9004l-11.391-14.37v14.37h-1.1542z"/>
  </g>
 </g>
</svg>
