<svg xmlns="http://www.w3.org/2000/svg" viewBox="0 0 502.39 167.98"><path fill="#9527ba" d="M0 0h156.78v88.28H0V0Z"/><path fill="#ec32eb" d="M172.83 0h156.78v88.28H172.83V0Z"/><path fill="#6f0ced" d="M345.61 0h156.78v88.28H345.61V0Z"/><path fill="#fff" d="M88.34 20.36c9.76 0 18.41 5.19 18.41 15.22 0 8.66-5.47 14.15-14.41 15l20.83 17.53H96.86L77.74 51.43H55.9v16.68H44.84V20.36h43.51-.01Zm-32.45 9.17v12.75h30.7c5.5 0 8.82-2.13 8.82-6.46 0-3.59-2.82-6.3-8.82-6.3h-30.7Zm162.34-9.17v9.45h27.64v38.3h10.88v-38.3h27.65v-9.45h-66.17Zm176.24 0v47.75h59.52v-9.5h-48.64V20.36h-10.88ZM37.41 119.74h20.85c14.61 0 17.4 9.21 17.4 15.41s-2.79 15.27-17.4 15.27h-11.9v16.44h-8.95v-47.12Zm8.95 23.57h11.4c4.01 0 8.95-1.95 8.95-8.23s-4.08-8.23-8.81-8.23H46.36v16.46Zm47-23.57h9.04l18.69 47.12h-9.11l-3.93-10.43H87.19l-3.68 10.43h-8.77l18.63-47.12h-.01Zm-3.49 29.75h15.81l-7.77-21.64h-.2l-7.84 21.64Zm43.42 1.66c0 7.26 5.51 10.1 12.3 10.1 7.48 0 10.27-3.56 10.27-7.13s-2.04-5.08-4.01-5.81c-3.4-1.25-7.82-2.11-14.48-3.89-8.29-2.18-10.74-7.06-10.74-11.95 0-9.44 8.97-13.86 17.74-13.86 10.13 0 18.63 5.21 18.63 15.05h-8.5c-.41-6.07-4.62-8.32-10.47-8.32-3.94 0-8.9 1.39-8.9 6.14 0 3.3 2.31 5.15 5.78 6.07l14 3.63c6.39 1.85 9.45 7.13 9.45 12.01 0 10.56-9.65 14.78-19.31 14.78-11.08 0-20.05-5.15-20.26-16.83h8.5Zm46.91 0c0 7.26 5.51 10.1 12.3 10.1 7.48 0 10.27-3.56 10.27-7.13s-2.04-5.08-4.01-5.81c-3.4-1.25-7.82-2.11-14.48-3.89-8.29-2.18-10.74-7.06-10.74-11.95 0-9.44 8.97-13.86 17.74-13.86 10.13 0 18.63 5.21 18.63 15.05h-8.5c-.41-6.07-4.62-8.32-10.47-8.32-3.94 0-8.9 1.39-8.9 6.14 0 3.3 2.31 5.15 5.78 6.07l14 3.63c6.39 1.85 9.45 7.13 9.45 12.01 0 10.56-9.65 14.78-19.31 14.78-11.08 0-20.05-5.15-20.26-16.83h8.5Zm40.63-31.41h8.5v47.12h-8.5v-47.12ZM287 143.3c0 13.46-9.12 24.68-24.36 24.68s-24.36-11.22-24.36-24.68 9.12-24.68 24.36-24.68S287 129.84 287 143.3Zm-39.82 0c0 9.04 4.56 17.95 15.46 17.95s15.46-8.91 15.46-17.95-4.56-17.95-15.46-17.95-15.46 8.91-15.46 17.95Zm48.95-23.56h9.5l23.45 34.72h.14v-34.72h8.56v47.12h-9.5l-23.38-34.65h-.22v34.65h-8.56v-47.12Zm105.02 19.03v-19.06h8.56v47.12h-8.56V146.3h-23.77v20.53h-8.62v-47.12h8.62v19.04h23.77Zm21.02 28.07v-47.12h19.99c4.54 0 8.53.97 11.98 2.92 3.46 1.95 6.12 4.71 8.01 8.28 1.88 3.57 2.83 7.69 2.83 12.35s-.95 8.72-2.86 12.29c-1.91 3.57-4.59 6.34-8.05 8.31s-7.43 2.96-11.92 2.96h-19.98Zm19.32-7.54c4.71 0 8.36-1.4 10.94-4.21s3.87-6.75 3.87-11.82-1.29-9.01-3.87-11.82c-2.59-2.8-6.23-4.21-10.94-4.21h-10.7v32.04h10.7Z"/></svg>