<svg version="1.0" viewBox="0 0 799.89 493.93" xml:space="preserve" xmlns="http://www.w3.org/2000/svg"><rect width="799.89" height="493.93" ry="61.32" fill="#ed1a23"/><path d="m540.44 358.84v100.83h34.734v-100.83zm-158.16 0.0231v100.79h30.311c15.551 0 39.871-2.2954 51.592-22.143 4.2205-7.0747 6.7816-16.396 6.7816-28.662 0-30.48-21.308-49.981-60.772-49.981zm34.732 25.103c15.824 0 18.546 15.248 18.546 26.227 0 9.4973-2.7224 25.022-18.546 25.14zm147.25-346.65h99.625v221.24h74.56v70.663h-174.19zm-240.88 0h211.24v69.352h-56.463v222.56h-98.314v-222.56h-56.463zm370.14 319.78c-35.245 0-49.007 27.54-49.007 52.154 0 9.574 2.0963 19.573 6.7066 28.25 7.268 13.595 20.772 23.867 42.3 23.867 21.529 0 35.07-10.272 42.338-23.867 4.6504-8.6776 6.7066-18.676 6.7066-28.25 0-24.615-13.799-52.154-49.045-52.154zm0 25.403c13.128 0 13.638 20.462 13.638 26.752 0 6.2932-0.51009 26.714-13.638 26.714-13.09 0-13.601-20.421-13.601-26.714 0-6.2899 0.5109-26.752 13.601-26.752zm-622.71-23.642v100.79h34.732v-26.864c0-4.962-0.33045-9.8751-0.48707-14.837l9.1795 19.558 10.378 22.143h37.617l-13.638-22.143-12.214-19.858c13.793-4.2605 19.933-14.114 19.933-25.253 0-26.608-21.805-33.533-51.93-33.533zm36.493 21.619c8.6028 0.11893 14.575 3.8979 14.575 12.177 0 6.5632-4.9052 12.851-14.088 12.851l-2.248-0.14987v-24.841c0.59588-0.0243 1.1874-0.0454 1.761-0.0374zm141.1-21.619-30.836 100.79h35.744l2.9224-12.964h23.305l2.5852 12.964h35.894l-5.9573-22.143-21.281-78.644zm20.42 24.054c1.173 6.2532 1.9061 12.703 2.9224 18.996l3.7467 23.38h-14.65l4.7583-23.38c1.3663-6.2932 2.2075-12.743 3.2222-18.996zm-198.24-342.75v289.06h98.314v-116.94l54.552 116.94h105.25l-70.925-124.2c41.105-7.2696 54.74-36.013 54.74-75.909 0-61.698-54.897-88.947-112.14-88.947zm98.314 60.36h7.2686c24.615 0 39.528 11.717 39.528 36.568 0 22.04-14.913 35.519-39.528 35.519h-7.2686z" fill="#fff"/></svg>
