<?xml version="1.0" encoding="UTF-8"?>
<!-- Generator: Adobe Illustrator 27.2.0, SVG Export Plug-In . SVG Version: 6.00 Build 0)  -->
<svg version="1.1" id="Шар_1" xmlns="http://www.w3.org/2000/svg" xmlns:xlink="http://www.w3.org/1999/xlink" x="0px" y="0px" viewBox="0 0 251.8 133.3" style="cursor: wait;" xml:space="preserve">
<style type="text/css">
	.st0{fill:#1E287C;}
	.st1{fill-rule:evenodd;clip-rule:evenodd;fill:#EB413D;}
</style>
<g>
	<path class="st0" d="M104.5,2.3H59.9v15.5H78v55h16.1v-55h18.1v-7.8C112.3,5.8,108.8,2.3,104.5,2.3" Googl="true"/>
	<path class="st0" d="M152.8,57.3h-17.4V10.4c0-4.4-3.6-8.1-8.1-8.1h-8.1v57.9c0,6.9,5.6,12.5,12.5,12.5h28.7V65   C160.5,60.8,157,57.3,152.8,57.3"/>
	<path class="st0" d="M43.8,46.9c7.8-3.9,13-11.8,13-20.4C56.8,13.1,46,2.3,32.6,2.3H19.9c-8.6,0-15.5,6.9-15.5,15.5v55h16.1V49.6   h7.7l13.3,23.2h17.3L43.8,46.9z M32.6,35.5H20.5V22c0-2.6,1.8-4.5,4-4.5h8.1c4.4,0,8.1,3.9,8.1,9.1C40.7,31.6,37,35.5,32.6,35.5"/>
</g>
<g>
	<path class="st0" d="M18.1,104.9v14c0,3.4,2.9,3.7,8.1,3.4V133c-15.5,1.6-20-3.1-20-14.1v-14H0V93.6h6.3v-5.8l11.8-3.5v9.3h8.1   v11.4H18.1z"/>
	<polygon class="st0" points="107.5,93.6 92.9,133 79.5,133 64.9,93.6 78,93.6 86.2,118.6 94.4,93.6  "/>
	<rect x="147.3" y="93.6" class="st0" width="11.8" height="39.4"/>
</g>
<path class="st1" d="M208.4,0c25.3,0,43.4,14.4,43.4,34.8c0,15.1-10.5,25.4-21.2,34.5c-10.7,9.1-16.6,18.4-20.5,31H207  c-3.9-12.6-9.8-22-20.5-31c-10.7-9.1-21.2-19.4-21.2-34.5c0-20.4,18-34.8,43.4-34.8 M208.5,133.3c7.5,0,13.6-6.1,13.6-13.6  c0-7.5-6.1-13.6-13.6-13.6c-7.5,0-13.6,6.1-13.6,13.6C195,127.3,201,133.3,208.5,133.3L208.5,133.3"/>
</svg>