<svg xmlns="http://www.w3.org/2000/svg" height="137.98" width="600" version="1.0">
 <g transform="translate(151.12 310.76)">
  <g transform="matrix(1.0171 0 0 1.0171 -161.36 -310.96)" stroke-width="13.482" fill="#808080">
   <path d="m509.01 106.37v-31.736h-25.67v31.736h-14.8v-75.821h14.803v30.994h25.669v-30.994h14.803v75.821"/>
   <path d="m570.73 54.992c-0.40445-2.7368-1.2673-4.9208-2.6154-6.5521-2.5615-3.1143-6.242-4.6916-11.082-4.6916h-11.176v49.424h11.176c4.8399 0 8.5204-1.5639 11.082-4.6916 1.3482-1.6313 2.211-3.8827 2.6154-6.7543 0.37749-2.8851 0.57971-7.4014 0.57971-13.589 0-6.0263-0.20222-10.408-0.57971-13.145m14.048 32.531c-0.88979 4.4085-3.0064 8.2777-6.3364 11.608-2.4132 2.4132-5.3387 4.2332-8.79 5.4331-3.4378 1.2133-7.1857 1.8065-11.23 1.8065h-27.37v-75.821h27.368c4.0445 0 7.7924 0.60667 11.23 1.8065 3.4513 1.2133 6.3768 3.0199 8.79 5.4331 1.7796 1.7122 3.1817 3.5592 4.2063 5.541 1.0246 1.9953 1.7931 4.1658 2.2919 6.5521 0.49882 2.3728 0.8089 4.9343 0.95719 7.671 0.1483 2.7368 0.21571 6.2555 0.21571 10.583 0 8.5204-0.44489 14.992-1.3347 19.387"/>
   <path d="m461.58 128.4 131.15 0.20222v-121.13h-131.15v121.13zm134.78 3.8423v-3.64zm3.64 3.6266h-145.68v-135.67h145.68z"/>
  </g>
  <g transform="matrix(.84808 0 0 .84808 246.12 134.34)">
   <g fill="#2c3179">
    <path d="m-440.7-374.29h-27.7v-137.6h40.4c22.6 0 31.3 6.8 31.3 34.1 0 14.7-3.8 22.9-12.9 31.9 7.7 2 13.2 8.7 13.7 18.2 0.8 11-1.4 37.3 3.4 46.9 0.9 1.7 1.4 3.5 2.7 4.8v1.8h-27.1c-0.8-2.6-4.5-13.8-4.6-16.5-0.5-12.1 0.2-19.6-0.6-28s-3-15.9-9.4-16.5h-9.1v60.9zm0-79.1h9.4c8 0 9.9-8.6 9.9-17.1 0-16.3-5.8-17.1-19.3-16.7z"/>
    <path d="m-404.3-511.89h71.7v25.9h-20.6v111.7h-27.6v-111.7h-23.5zm253.6 0h71.7v25.9h-20.6v111.7h-27.7v-111.7h-23.4zm164.7 0h27.6v137.6h-27.6z"/>
    <path d="m-16.397-511.89-16.5 80.9-16.6-80.9h-30.4l28 137.6h38l27.9-137.6zm-311.5 137.6v-137.6h27.7v115.6h33.2v22z"/>
   </g>
   <path fill="#bd2025" d="m-173.4-501.19c-7.6-8-23.5-15-39.9-15.1h-0.4c-16.4 0.1-32.3 7.1-39.9 15.1-16.3 17.3-9.7 39.6 8.1 52 7 4.9 16.1 7.2 22.3 12.9 5.5 5 6.5 11.9 9.6 18.2v0.2s0-0.1 0.1-0.1c0 0 0 0.1 0.1 0.1v-0.2c3.1-6.4 4.2-13.2 9.6-18.2 6.1-5.7 15.3-8 22.3-12.9 17.8-12.4 24.4-34.7 8.1-52zm-23.4 91.5-0.1 34.7-33.7 0.1v-34.6z"/>
  </g>
 </g>
</svg>
