<svg xmlns="http://www.w3.org/2000/svg" viewBox="0 0 502.39 167.98"><path fill="#EC33EC" d="M0 0h156.78v88.28H0V0Z"/><path fill="#6E0CED" d="M172.83 0h156.78v88.28H172.83V0Z"/><path fill="#00AF2C" d="M345.61 0h156.78v88.28H345.61V0Z"/><path fill="#fff" d="M88.34 20.36c9.76 0 18.41 5.19 18.41 15.22 0 8.66-5.47 14.15-14.41 15l20.83 17.53H96.86L77.74 51.43H55.9v16.68H44.84V20.36h43.51Zm-32.45 9.17v12.75h30.7c5.5 0 8.82-2.13 8.82-6.46 0-3.59-2.82-6.3-8.82-6.3h-30.7Zm162.34-9.17v9.45h27.64v38.3h10.88v-38.3h27.65v-9.45h-66.17Zm176.24 0v47.75h59.52v-9.5h-48.64V20.36h-10.88Z"/><path d="M141.97 119.74h8.95v27.46c0 6.34.43 13.66 12.03 13.66s12.03-7.33 12.03-13.66v-27.46h8.95v30.16c0 12.08-8.38 18.08-20.98 18.08s-20.98-6.01-20.98-18.08v-30.16Zm53.12 0h20.85c14.61 0 17.4 9.21 17.4 15.41s-2.79 15.27-17.4 15.27h-11.9v16.44h-8.95v-47.12Zm8.95 23.57h11.4c4.01 0 8.95-1.95 8.95-8.23s-4.08-8.23-8.81-8.23h-11.54v16.46ZM296.59 138.78v-19.06h8.56v47.12h-8.56v-20.53h-23.77v20.53h-8.62v-47.12h8.62v19.04h23.77ZM317.61 166.85v-47.12h19.99c4.54 0 8.53.97 11.98 2.92 3.46 1.95 6.12 4.71 8.01 8.28 1.88 3.57 2.83 7.69 2.83 12.35s-.95 8.72-2.86 12.29c-1.91 3.57-4.59 6.34-8.05 8.31-3.46 1.97-7.43 2.96-11.92 2.96h-19.98Zm19.32-7.55c4.71 0 8.36-1.4 10.94-4.21 2.59-2.8 3.87-6.75 3.87-11.82s-1.29-9.01-3.87-11.82c-2.59-2.8-6.23-4.21-10.94-4.21h-10.7v32.04h10.7Z"/></svg>