<?xml version="1.0" encoding="UTF-8"?>
<svg width="1415.8125" height="200" version="1.1" viewBox="0 0 1415.8126 200" xml:space="preserve" xmlns="http://www.w3.org/2000/svg">
<g transform="scale(.99704876)" clip-rule="evenodd" fill-rule="evenodd">
	<path d="m1232.9063 150.061c-7.097-3.488-12.565-8.491-16.403-15.009-3.831-6.518-5.746-14.187-5.746-23.014v-66.196h19.898v65.582c0 8.619 2.33 15.159 6.997 19.626 4.66 4.46 11.45 6.697 20.369 6.697 8.905 0 15.724-2.237 20.441-6.697 4.717-4.467 7.068-11.007 7.068-19.626v-65.582h19.74v66.197c0 8.927-1.887 16.653-5.668 23.164-3.788 6.518-9.227 11.493-16.324 14.937-7.104 3.431-15.523 5.153-25.265 5.153-9.633 0-18.01-1.744-25.107-5.232m147.46-50.952c6.311 0 11.135-1.572 14.451-4.703 3.316-3.123 4.974-7.669 4.974-13.622 0-5.646-1.687-10.006-5.053-13.079-3.373-3.08-8.169-4.624-14.373-4.624h-27.831v36.022h27.831v6e-3zm-47.736 54.49v-107.757h50.38c7.362 0 13.823 1.465 19.426 4.388 5.423 2.768 9.93 7.045 12.979 12.314 3.052 5.289 4.588 11.364 4.588 18.239 0 6.983-1.537 13.165-4.588 18.554-3.02 5.35-7.529 9.707-12.979 12.543-5.603 2.98-12.072 4.467-19.426 4.467h-30.475v37.251h-19.905z" fill="#fff"/>
	
		
			<rect width="356.64301" height="200.592" fill="#0c39ed"/>
			<path d="m193.766 96.247c15.314 0 22.764-4.932 22.764-15.003s-7.45-14.873-22.764-14.873h-67.098v29.876zm-91.912-50.148h95.157c28.967 0 45.087 13.004 45.087 34.834 0 18.741-12.096 31.278-32.705 34.237l46.644 39.324h-35.794l-43.867-37.948h-49.707v37.948h-24.814c-2e-3 -1e-3 -2e-3 -108.395-1e-3 -108.395z" fill="#fff"/>
		
		
			<rect x="784.61499" width="356.64301" height="200.592" fill="#ed0c93"/>
			<polygon points="1030.683 133.131 1030.683 154.493 895.812 154.493 895.812 46.099 920.575 46.099 920.575 133.131" fill="#fff"/>
		
		
			<rect x="392.46301" width="356.33099" height="200.592" fill="#9629bc"/>
			<polygon points="558.247 67.461 495.562 67.461 495.562 46.099 645.695 46.099 645.695 67.461 583.01 67.461 583.01 154.493 558.247 154.493" fill="#fff"/>
		
	
</g>
</svg>
