<svg version="1.1" viewBox="0 0 502.39 167.98" xmlns="http://www.w3.org/2000/svg">
 <path d="m0 88.28h156.78v-88.28h-156.78zm44.83-67.92h43.51c9.76 0 18.41 5.19 18.41 15.22 0 8.66-5.47 14.15-14.41 15l20.83 17.53h-16.31l-19.12-16.68h-21.84v16.68h-11.06v-47.75z" fill="#fff"/>
 <path d="m95.41 35.83c0-3.59-2.82-6.3-8.82-6.3h-30.7v12.75h30.7c5.5 0 8.82-2.13 8.82-6.46zm77.42 52.45h156.78v-88.28h-156.78zm45.4-67.92h66.17v9.45h-27.65v38.3h-10.88v-38.3h-27.64zm127.38-20.36v88.28h156.78v-88.28zm108.38 68.11h-59.52v-47.75h10.88v38.25h48.64zm-248.75 51.63h8.95v27.46c0 6.34 0.43 13.66 12.03 13.66s12.03-7.33 12.03-13.66v-27.46h8.95v30.16c0 12.08-8.38 18.08-20.98 18.08s-20.98-6.01-20.98-18.08zm53.12 0h20.85c14.61 0 17.4 9.21 17.4 15.41s-2.79 15.27-17.4 15.27h-11.9v16.44h-8.95zm8.95 23.57h11.4c4.01 0 8.95-1.95 8.95-8.23s-4.08-8.23-8.81-8.23h-11.54z" fill="#fff"/>
</svg>
