<svg xmlns="http://www.w3.org/2000/svg" width="112.485mm" height="13.544mm" viewBox="0 0 112.48466 13.543835"><defs><linearGradient id="a" x1="1574.7" x2="2362" y1="-326.5" y2="-326.5" gradientTransform="matrix(.5 0 0 .5 153.05 -177.43)" gradientUnits="userSpaceOnUse"><stop stop-color="#025984" offset="0"/><stop stop-color="#007ba3" offset="1"/></linearGradient><linearGradient id="b" x1="972.65" x2="1074.9" y1="-189.14" y2="-189.14" gradientTransform="translate(153.05 -117.43)" gradientUnits="userSpaceOnUse"><stop stop-color="#001932" stop-opacity=".196" offset="0"/><stop stop-color="#00324b" stop-opacity="0" offset="1"/></linearGradient><linearGradient id="c" x1="787.33" x2="1574.7" y1="-326.5" y2="-326.5" gradientTransform="matrix(.5 0 0 .5 153.05 -177.43)" gradientUnits="userSpaceOnUse"><stop stop-color="#fdba0d" offset="0"/><stop stop-color="#ffd502" offset="1"/></linearGradient><linearGradient id="d" x1="1831.1" x2="2235.4" y1="-193" y2="-193" gradientTransform="matrix(.5 0 0 .5 153.05 -177.43)" gradientUnits="userSpaceOnUse"><stop stop-color="#001932" stop-opacity=".392" offset="0"/><stop stop-color="#00324b" stop-opacity=".196" offset="1"/></linearGradient><linearGradient id="e" x1="1433.9" x2="1433.9" y1="-120" y2="-464" gradientTransform="matrix(.5 0 0 .5 153.05 -177.43)" gradientUnits="userSpaceOnUse"><stop stop-color="#c80000" stop-opacity=".196" offset="0"/><stop stop-color="#c80000" stop-opacity=".098" offset="1"/></linearGradient><linearGradient id="f" x1="127.25" x2="787.33" y1="-273.25" y2="-273.25" gradientTransform="matrix(.5 0 0 .5 153.05 -177.43)" gradientUnits="userSpaceOnUse"><stop stop-opacity=".196" offset="0"/><stop stop-color="#640032" stop-opacity=".196" offset="1"/></linearGradient><filter id="g" x="-.007" y="-.053" width="1.014" height="1.105" color-interpolation-filters="sRGB"><feGaussianBlur stdDeviation="2.974"/></filter></defs><g><g><path fill="url(#a)" d="M52.027-.183h25.982v13.629h-25.982z"/><path d="M68.759 9.886l-7.833-.628 3.334-7.164z" fill="url(#b)" fill-rule="evenodd"/><path fill="#e60d38" d="M.063-.183h25.982v13.629h-25.982z"/><path fill="url(#c)" d="M26.046-.183h25.982v13.629h-25.982z"/><path d="M64.258 2.094l-7.534 8.943.783 2.409h19.64l-3.315-4.563-5.074 1.003-7.833-.628z" fill="url(#d)" fill-rule="evenodd"/><path d="M47.382 2.094l-16.893 2.154 1.457 9.198h20.081v-4.959z" fill="url(#e)"/><path d="M20.589 3.331l-12.515.223-3.811 7.482.512 2.409h21.27v-2.617z" fill="url(#f)"/></g><path d="M18.371 2.094l-.071.001h-14.038v8.942h6.623v-2.938h1.296l3.384 2.938h7.079l-4.343-3.1c1.535.041 2.832-1.342 2.807-2.942-.023-1.565-1.255-2.896-2.736-2.901zm12.118 0v2.154h5.015v6.789h6.958v-6.789h4.919v-2.154zm26.235 0v8.943h17.107v-2.154h-9.573v-6.789zm-45.838 2.117h3.1c.429 0 .82.418.82.934s-.39.933-.819.934l-3.1.004v-1.872z" fill-opacity=".196" fill-rule="evenodd" filter="url(#g)"/><path d="M18.371 2.094l-.071.001h-14.038v8.942h6.623v-2.938h1.296l3.384 2.938h7.079l-4.343-3.1c1.535.041 2.832-1.342 2.807-2.942-.023-1.565-1.255-2.896-2.736-2.901zm12.118 0v2.154h5.015v6.789h6.958v-6.789h4.919v-2.154zm26.235 0v8.943h17.107v-2.154h-9.573v-6.789zm-45.838 2.117h3.1c.429 0 .82.418.82.934s-.39.933-.819.934l-3.1.004v-1.872z" fill="#fff" fill-rule="evenodd"/><g style="font-variant-ligatures:normal;font-variant-caps:normal;font-variant-numeric:normal;font-feature-settings:normal" fill="#fff"><path d="M90.56 1.187h1.343v6.422q0 1.676-.346 2.661-.346.986-1.253 1.607-.9.614-2.367.614-1.426 0-2.333-.538-.907-.538-1.294-1.554-.388-1.024-.388-2.79v-6.422h1.343v6.414q0 1.448.242 2.138.249.682.845 1.054.602.371 1.468.371 1.481 0 2.111-.735.63-.735.63-2.828z"/><path d="M94.189 12.301v-11.115h1.343v4.564h5.275v-4.564h1.343v11.115h-1.343v-5.239h-5.275v5.239z"/><path d="M104.389 12.301v-11.115h3.496q1.184 0 1.807.159.872.22 1.488.796.803.743 1.198 1.903.401 1.152.401 2.638 0 1.266-.27 2.244-.27.978-.692 1.622-.422.637-.928 1.008-.498.364-1.211.553-.706.19-1.627.19zm1.343-1.312h2.167q1.004 0 1.571-.205.575-.205.914-.576.478-.523.741-1.403.27-.887.27-2.146 0-1.744-.526-2.676-.519-.94-1.267-1.259-.54-.227-1.738-.227h-2.132z"/></g></g></svg>