<svg enable-background="new 0 0 299.00717 36.35207" version="1.1" viewBox="0 0 299.01 36.352" xml:space="preserve" xmlns="http://www.w3.org/2000/svg">

	
		<path d="m240.35 2.6475h3.5706v16.859c0 2.9325-0.30672 5.2618-0.92017 6.9861-0.61441 1.7252-1.7215 3.1288-3.3223 4.2096-1.6008 1.0818-3.7021 1.6228-6.3029 1.6228-2.5278 0-4.595-0.47104-6.2016-1.4131-1.6076-0.94207-2.7547-2.3054-3.4421-4.0909-0.68648-1.7846-1.0302-4.2221-1.0302-7.3144v-16.859h3.5706v16.839c0 2.5352 0.21713 4.4021 0.65239 5.6036 0.43623 1.2006 1.184 2.1264 2.2454 2.7764s2.3584 0.97462 3.8929 0.97462c2.6252 0 4.4957-0.64337 5.6126-1.9301 1.1168-1.2867 1.6748-3.7616 1.6748-7.4246v-16.839z"/>
		<path d="m249.78 32.325v-29.678h3.5697v12.187h14.024v-12.187h3.5706v29.678h-3.5706v-13.989h-14.024v13.989h-3.5697z"/>
		<path d="m276.7 32.325v-29.678h9.2942c2.0974 0 3.6992 0.14168 4.8034 0.42503 1.5453 0.39144 2.8647 1.1003 3.9562 2.1256 1.4236 1.3228 2.4878 3.0132 3.1928 5.0712 0.70593 2.058 1.0584 4.41 1.0584 7.0546 0 2.2542-0.23953 4.2522-0.71765 5.9923-0.47906 1.741-1.0925 3.1821-1.8403 4.3224-0.74878 1.1412-1.5677 2.038-2.4567 2.6923-0.88998 0.65532-1.963 1.1509-3.2211 1.4878-1.2571 0.33788-2.7021 0.50634-4.334 0.50634h-9.7353zm3.5706-3.5025h5.7596c1.779 0 3.1753-0.18209 4.187-0.54626 1.0127-0.36417 1.8189-0.87733 2.4207-1.5385 0.84616-0.93088 1.5054-2.1831 1.9776-3.7556 0.47226-1.5716 0.70886-3.4781 0.70886-5.7192 0-3.1037-0.46347-5.4889-1.3895-7.1559-0.92599-1.6665-2.0516-2.7834-3.3769-3.3506-0.95718-0.40458-2.4966-0.60712-4.6194-0.60712h-5.668v22.673z"/>
	
	<g display="none" fill="#AEB6BD">
		<path d="m222.71 32.325v-29.678h3.5659v12.189h14.003v-12.189h3.5659v29.678h-3.5659v-13.988h-14.003v13.988h-3.5659z" display="inline"/>
		<path d="m249.8 32.325v-29.678h9.2803c2.0957 0 3.6943 0.14173 4.796 0.42518 1.5439 0.39117 2.861 1.0998 3.9514 2.1259 1.421 1.3228 2.4811 3.0169 3.1804 5.0823 0.71051 2.0522 1.0658 4.4002 1.0658 7.0438 0 2.2544-0.23901 4.2518-0.71713 5.9922-0.47809 1.7404-1.0903 3.1841-1.8368 4.3312-0.74643 1.1338-1.5675 2.0314-2.4632 2.6928-0.88248 0.64817-1.9549 1.1404-3.2172 1.4768-1.2491 0.33825-2.6881 0.50738-4.317 0.50738l-9.7224 1e-5zm3.5658-3.5035h5.7513c1.7763 0 3.1671-0.18236 4.1724-0.54707 1.0167-0.36471 1.8255-0.87776 2.4264-1.5392 0.84467-0.93162 1.5004-2.1798 1.9672-3.7444 0.47809-1.5798 0.71713-3.4893 0.71713-5.7286 0-3.1048-0.46579-5.4867-1.3974-7.1459-0.91843-1.6743-2.039-2.7949-3.3618-3.3618-0.95621-0.40439-2.4934-0.60659-4.6118-0.60659h-5.6606l-0.00283 22.673z" display="inline"/>
	</g>
	<g display="none">
		<path d="m222.67 32.325v-29.678h3.5691v12.187h14.021v-12.187h3.57v29.678h-3.57v-13.989h-14.021v13.989h-3.5691z" display="inline"/>
		<path d="m249.77 32.325v-29.678h9.2926c2.097 0 3.6986 0.14168 4.8026 0.42503 1.545 0.39144 2.8642 1.1003 3.9556 2.1256 1.4233 1.3228 2.4875 3.0132 3.1923 5.0712 0.70581 2.058 1.0583 4.41 1.0583 7.0546 0 2.2542-0.2395 4.2522-0.71753 5.9923-0.479 1.741-1.0924 3.1821-1.84 4.3224-0.74866 1.1412-1.5674 2.038-2.4563 2.6923-0.88983 0.65532-1.9627 1.1509-3.2206 1.4878-1.2569 0.33788-2.7016 0.50634-4.3333 0.50634h-9.7337zm3.5701-3.5025h5.7586c1.7787 0 3.1748-0.18209 4.1863-0.54626 1.0125-0.36417 1.8186-0.87733 2.4203-1.5385 0.84604-0.93088 1.5052-2.1831 1.9773-3.7556 0.47217-1.5716 0.70874-3.4781 0.70874-5.7192 0-3.1037-0.46341-5.4889-1.3892-7.1559-0.92587-1.6665-2.0513-2.7834-3.3763-3.3506-0.957-0.40458-2.4962-0.60712-4.6186-0.60712h-5.6671v22.673z" display="inline"/>
	</g>

<g transform="translate(0,326.5)">
	
		
			<linearGradient id="f" x1="1100.2" x2="1238.8" y1="-312.85" y2="-312.85" gradientTransform="matrix(.5 0 0 -.5 -411.5 -464.75)" gradientUnits="userSpaceOnUse">
			<stop stop-color="#025984" offset="0"/>
			<stop stop-color="#007BA3" offset="1"/>
		</linearGradient>
		<rect x="138.6" y="-326.5" width="69.3" height="36.351" fill="url(#f)"/>
		
			<linearGradient id="e" x1="171.22" x2="189.22" y1="21.534" y2="21.534" gradientTransform="matrix(1 0 0 -1 0 -288.5)" gradientUnits="userSpaceOnUse">
			<stop stop-color="#001932" stop-opacity=".19608" offset="0"/>
			<stop stop-color="#00324B" stop-opacity="0" offset="1"/>
		</linearGradient>
		<path d="m183.22-299.64-20.892-1.6754 8.8913-19.109 12 20.784z" clip-rule="evenodd" fill="url(#e)" fill-rule="evenodd"/>
		<rect y="-326.5" width="69.3" height="36.351" fill="#E60D38"/>
		
			<linearGradient id="d" x1="961.6" x2="1100.2" y1="-312.85" y2="-312.85" gradientTransform="matrix(.5 0 0 -.5 -411.5 -464.75)" gradientUnits="userSpaceOnUse">
			<stop stop-color="#FDBA0D" offset="0"/>
			<stop stop-color="#FFD502" offset="1"/>
		</linearGradient>
		<rect x="69.3" y="-326.5" width="69.3" height="36.351" fill="url(#d)"/>
		
			<linearGradient id="c" x1="1145.3" x2="1216.5" y1="-318.92" y2="-318.92" gradientTransform="matrix(.5 0 0 -.5 -411.5 -464.75)" gradientUnits="userSpaceOnUse">
			<stop stop-color="#001932" stop-opacity=".39216" offset="0"/>
			<stop stop-color="#00324B" stop-opacity=".19608" offset="1"/>
		</linearGradient>
		<path d="m171.22-320.43-20.094 23.853 2.0876 6.4253h52.383l-8.8422-12.17-13.533 2.6763-20.892-1.6754 8.8915-19.108z" clip-rule="evenodd" fill="url(#c)" fill-rule="evenodd"/>
		
			<linearGradient id="b" x1="1042.8" x2="1042.8" y1="-349.2" y2="-288.65" gradientTransform="matrix(.5 0 0 -.5 -411.5 -464.75)" gradientUnits="userSpaceOnUse">
			<stop stop-color="#C80000" stop-opacity=".19608" offset="0"/>
			<stop stop-color="#C80000" stop-opacity=".09804" offset="1"/>
		</linearGradient>
		<path d="m126.21-320.43-45.056 5.7449 3.8856 24.534h53.56v-13.226l-12.39-17.053z" fill="url(#b)"/>
		
			<linearGradient id="a" x1="845.4" x2="961.6" y1="-322.22" y2="-322.22" gradientTransform="matrix(.5 0 0 -.5 -411.5 -464.75)" gradientUnits="userSpaceOnUse">
			<stop stop-opacity=".19608" offset="0"/>
			<stop stop-color="#640032" stop-opacity=".19608" offset="1"/>
		</linearGradient>
		<path d="m54.745-317.13-33.38 0.59515-10.166 19.955 1.3658 6.4262h56.733v-6.9808l-14.553-19.996z" fill="url(#a)"/>
	
	<path d="m48.83-320.43c-0.06268-1.8e-4 -0.12558 5.2e-4 -0.18859 0.00223h-37.443v23.849h17.665v-7.8358h3.4559l9.0257 7.8367h18.88l-11.584-8.2676c4.0933 0.10995 7.5524-3.5781 7.4857-7.8482-0.06123-4.175-3.3484-7.7255-7.2972-7.7369l-1.2e-4 4.4e-4zm32.322 0v5.7449h13.377v18.109h18.559v-18.109h13.12v-5.7449h-45.056zm69.974 0v23.853h45.628v-5.7451h-25.534v-18.107l-20.094-7e-4zm-122.26 5.6463h8.2678c1.1455 0 2.1869 1.1154 2.1869 2.4911 1e-5 1.3751-1.0404 2.4896-2.1853 2.4911l-8.2694 0.01068v-4.9929 6e-5z" clip-rule="evenodd" fill-opacity=".19608" fill-rule="evenodd"/>
	<path d="m48.83-320.43c-0.06268-1.8e-4 -0.12558 5.2e-4 -0.18859 0.00223h-37.443v23.849h17.665v-7.8358h3.4559l9.0257 7.8367h18.88l-11.584-8.2676c4.0933 0.10995 7.5524-3.5781 7.4857-7.8482-0.06123-4.175-3.3484-7.7255-7.2972-7.7369l-1.2e-4 4.4e-4zm32.322 0v5.7449h13.377v18.109h18.559v-18.109h13.12v-5.7449h-45.056zm69.974 0v23.853h45.628v-5.7451h-25.534v-18.107l-20.094-7e-4zm-122.26 5.6463h8.2678c1.1455 0 2.1869 1.1154 2.1869 2.4911 1e-5 1.3751-1.0404 2.4896-2.1853 2.4911l-8.2694 0.01068v-4.9929 6e-5z" clip-rule="evenodd" fill="#fff" fill-rule="evenodd"/>
</g>
</svg>
