<svg Googl="true" version="1.1" viewBox="0 0 1066.7 398.63" xml:space="preserve" xmlns="http://www.w3.org/2000/svg"><style>.st0{fill:#fff}</style><path d="m33.725 0h999.22c18.684 0 33.725 14.24 33.725 31.927v334.78c0 17.688-15.041 31.927-33.725 31.927h-999.22c-18.684 0-33.725-14.24-33.725-31.927v-334.78c0-17.688 15.041-31.927 33.725-31.927z" fill="#f00" fill-rule="evenodd" opacity=".993"/><path class="st0" d="m141.05 177.72h8.2865c11.989 0 14.81-12.694 14.81-25.036 0-23.978-8.6391-25.212-22.92-24.683v49.719zm77.399 124.3h-47.427c-3.5262-3.1736-7.0523-10.579-7.2286-14.634-0.70523-18.16 0.17631-43.901-1.0578-56.595-1.2342-12.694-3.8788-20.804-13.752-21.686h-7.9339v92.915h-47.956v-205.93h65.587c34.38 0 52.716 11.989 52.716 49.895 0 29.796-9.8733 35.262-27.504 44.606 11.813 2.9972 25.917 13.047 26.623 27.152 1.2342 16.397-0.88154 54.656 1.5868 67.702-0.17631 0 3.5262 13.047 6.3471 16.573" stroke-width="1.7631"/><path class="st0" d="m203.28 96.088h111.78v34.204h-32.793v171.72h-47.251v-171.72h-31.736zm117.42 205.93v-205.93h47.427v172.96h50.072v32.97zm166.79-231.85h8.9917v257.76h-8.9917zm148.1 67.702c2.4683 0 3.5262 0.88154 3.5262 3.3499v7.7576c0 1.2342-0.35261 2.292-0.70523 2.9972l-51.658 93.267h51.835c2.292 0 3.3499 0.70524 3.3499 3.1736v8.2865c0 2.4683-1.0578 3.3499-3.3499 3.3499h-69.642c-2.4683 0-3.3499-0.88154-3.3499-3.3499v-8.1102c0-1.2342 0.35262-1.9394 0.88155-2.9972l51.129-92.738h-45.664c-2.292 0-3.3499-0.88154-3.3499-3.3499v-8.1102c0-2.4683 1.0578-3.3499 3.3499-3.3499h63.647zm114.78 78.281c1.7631 7.405 2.6446 14.81 2.8209 15.691 0.17631-0.88155 1.5868-10.402 2.9972-15.691l19.041-74.931c0.52892-2.1157 1.5868-3.3499 3.8788-3.3499h9.697c2.292 0 2.9972 1.0578 2.4683 3.3499l-29.267 115.66c-0.52893 2.292-1.9394 3.3499-4.4077 3.3499h-10.755c-2.1157 0-3.3499-1.2342-3.8788-3.3499l-19.218-76.342c-1.4105-5.2892-2.1157-12.871-2.292-14.105-0.17631 1.2342-1.4105 9.697-2.4683 14.281l-19.394 76.165c-0.52892 2.292-1.7631 3.3499-4.2314 3.3499h-10.755c-2.1157 0-3.3499-1.2342-3.8788-3.3499l-29.444-115.66c-0.52892-2.292 0.17631-3.3499 2.6446-3.3499h11.107c2.292 0 3.5262 1.2342 4.2314 3.3499l18.689 74.931c1.2342 5.2892 2.8209 14.105 2.8209 14.105s0.88154-5.8182 2.9972-14.105l19.041-74.931c0.52893-2.1157 1.5868-3.3499 3.8788-3.3499h10.226c2.4683 0 3.5262 1.2342 4.2314 3.3499zm62.942 44.253c-2.292 0-3.1736-1.0578-3.1736-3.5262v-115.48c0-2.4683 0.88154-3.5262 3.1736-3.5262h61.708c2.292 0 3.3499 0.88154 3.3499 3.3499v8.1102c0 2.4683-1.0578 3.3499-3.3499 3.3499h-47.427v36.32h44.077c2.4683 0 3.5262 0.88154 3.5262 3.3499v7.7576c0 2.292-1.0578 3.3499-3.5262 3.3499h-44.077v41.609h49.366c2.292 0 3.3499 0.70523 3.3499 3.1736v8.2865c0 2.4683-1.0578 3.3499-3.3499 3.3499h-63.647zm93.62 0c-2.292 0-3.1736-1.0578-3.1736-3.5262v-115.48c0-2.4683 0.88155-3.5262 3.1736-3.5262h61.708c2.292 0 3.3499 0.88154 3.3499 3.3499v8.1102c0 2.4683-1.0578 3.3499-3.3499 3.3499h-47.427v36.32h44.077c2.4683 0 3.5262 0.88154 3.5262 3.3499v7.7576c0 2.292-1.0578 3.3499-3.5262 3.3499h-44.077v41.609h49.366c2.292 0 3.3499 0.70523 3.3499 3.1736v8.2865c0 2.4683-1.0578 3.3499-3.3499 3.3499h-63.647z" stroke-width="1.7631"/></svg>
