<svg fill="none" version="1.1" viewBox="0 0 459.99 302.4" xmlns="http://www.w3.org/2000/svg">
 <g transform="translate(-370,-167)" clip-path="url(#a)">
  <path d="m397.2 426.5c-2.787-3.322-6.623-4.98-11.517-4.98-4.488 0-8.23 1.65-11.213 4.951-2.982 3.301-4.481 7.399-4.481 12.292 0 4.894 1.506 8.926 4.51 12.219 3.004 3.301 6.732 4.952 11.177 4.952 4.85 0 8.687-1.636 11.517-4.915v0.166c0 2.324 1.882 4.206 4.206 4.206s4.206-1.882 4.206-4.206v-29.122h-8.419v4.444zm-2.729 19.256c-1.817 1.882-4.053 2.83-6.703 2.83-2.649 0-4.886-0.941-6.703-2.83-1.817-1.882-2.729-4.22-2.729-7s0.912-5.183 2.729-7.073c1.817-1.882 4.054-2.83 6.703-2.83 2.65 0 4.879 0.941 6.703 2.83 1.817 1.89 2.729 4.242 2.729 7.073 0 2.83-0.912 5.118-2.729 7zm40.437-1.614 6.732 4.98c-3.141 4.307-7.456 6.667-12.928 7.072l-0.341 1.419c1.796-0.094 3.287 0.362 4.481 1.347 1.036 0.854 1.615 1.998 1.752 3.431 0.181 1.904-0.528 3.866-1.911 5.183-1.332 1.26-3.062 1.868-5.19 1.824-1.484 0-2.809-0.347-3.974-1.042-1.166-0.695-2.02-1.578-2.563-2.657l2.628-1.817c0.897 1.39 2.157 2.092 3.771 2.092 0.985-0.043 1.774-0.34 2.36-0.876 0.586-0.535 0.876-1.208 0.876-2.019 0-1.122-0.63-1.933-1.882-2.425-1.26-0.493-2.736-0.493-4.445 0l0.941-4.51c-4.444-0.492-8.18-2.389-11.213-5.69s-4.546-7.217-4.546-11.749c0-4.893 1.737-9.078 5.219-12.559 3.475-3.475 7.666-5.22 12.56-5.22 2.917 0 5.646 0.666 8.18 1.984 0.992 0.514 1.911 1.1 2.765 1.759 2.063 1.578 1.969 4.727-0.13 6.247l-0.398 0.29c-1.47 1.064-3.417 0.868-4.829-0.283-1.513-1.238-3.38-1.853-5.595-1.853-2.737-0.043-5.017 0.869-6.834 2.729-1.817 1.861-2.729 4.184-2.729 6.971s0.912 5.082 2.729 6.906c1.817 1.817 4.097 2.729 6.834 2.729 1.614 0.044 3.105-0.311 4.481-1.078 1.368-0.76 2.432-1.817 3.199-3.164zm26.126-23.23c-4.937 0-9.158 1.744-12.661 5.219-3.504 3.482-5.256 7.666-5.256 12.56 0 4.893 1.752 8.99 5.256 12.422 3.503 3.438 7.724 5.154 12.661 5.154s9.142-1.709 12.624-5.118c3.482-3.41 5.22-7.565 5.22-12.458 0-4.894-1.752-9.078-5.256-12.56-3.503-3.475-7.702-5.219-12.596-5.219zm6.5 24.75c-1.773 1.86-3.938 2.772-6.5 2.729-2.606 0.043-4.793-0.862-6.566-2.729-1.774-1.861-2.657-4.163-2.657-6.906 0-2.744 0.883-5.104 2.657-6.971 1.773-1.861 3.96-2.773 6.566-2.729 2.555-0.044 4.727 0.868 6.5 2.729 1.774 1.86 2.657 4.184 2.657 6.971s-0.89 5.038-2.657 6.906zm37.006-24.142v8.889c-1.39-0.673-2.917-1.013-4.582-1.013-2.245 0-4.177 0.897-5.792 2.693-1.614 1.795-2.425 4.242-2.425 7.34v11.749c0 2.324-1.882 4.206-4.206 4.206-2.323 0-4.205-1.882-4.205-4.206v-29.122h8.419v4.379c2.606-3.409 6.869-5.053 12.791-4.915zm18.517-0.471c-4.98 0-9.15 1.694-12.494 5.082-3.345 3.388-5.017 7.601-5.017 12.625s1.687 9.034 5.053 12.422 7.543 5.082 12.523 5.082c2.78 0 5.451-0.594 8.014-1.781 1.172-0.55 2.244-1.187 3.214-1.933 1.759-1.346 1.86-3.952 0.159-5.364-1.216-1.006-2.968-1.057-4.213-0.087-1.911 1.491-4.322 2.237-7.239 2.237-2.468 0-4.604-0.731-6.399-2.186-1.795-1.462-2.896-3.511-3.301-6.161h26.531c0.043-0.629 0.065-1.484 0.065-2.562-0.094-5.343-1.694-9.57-4.814-12.697-3.12-3.12-7.152-4.684-12.089-4.684zm-9.563 14.478c0.587-2.468 1.731-4.408 3.432-5.827 1.708-1.412 3.771-2.121 6.196-2.121s4.365 0.688 5.958 2.056c1.592 1.368 2.707 3.33 3.33 5.892h-18.923zm57.977 9.766c0 3.409-1.382 6.153-4.14 8.216s-6.32 3.098-10.671 3.098c-3.503 0-6.645-0.832-9.425-2.49-2.787-1.658-4.691-3.953-5.726-6.87l7.275-2.287c1.39 3.279 4.061 4.915 8.014 4.915 2.02 0 3.612-0.413 4.778-1.245 1.165-0.833 1.751-1.962 1.751-3.403 0-1.346-0.738-2.244-2.222-2.692-1.484-0.449-3.561-0.789-6.225-1.014-2.672-0.224-4.793-0.651-6.363-1.281-3.815-1.614-5.726-4.38-5.726-8.282 0-3.004 1.303-5.552 3.909-7.644 2.606-2.085 5.791-3.134 9.562-3.134 3.547 0 6.508 0.832 8.89 2.49 0.847 0.593 1.592 1.252 2.237 1.983 1.737 1.969 0.789 5.082-1.738 5.777l-0.087 0.022c-1.498 0.412-3.004-0.261-3.923-1.506-0.326-0.442-0.702-0.832-1.13-1.187-1.078-0.876-2.468-1.31-4.176-1.31-1.709 0-3.041 0.427-4.141 1.281s-1.651 1.86-1.651 3.033c0 1.484 0.818 2.49 2.454 3.033 1.636 0.536 3.837 0.934 6.602 1.18 2.758 0.246 4.836 0.688 6.226 1.31 3.771 1.571 5.654 4.242 5.654 8.014zm-173.97-52.273c8.499 0 15.231-2.874 20.19-8.622v0.297c0 4.076 3.301 7.377 7.376 7.377 4.076 0 7.377-3.301 7.377-7.377v-51.056h-14.76v7.789c-4.879-5.82-11.612-8.737-20.19-8.737-7.869 0-14.42 2.888-19.654 8.679-5.233 5.784-7.854 12.965-7.854 21.543s2.635 15.644 7.912 21.428c5.27 5.783 11.807 8.679 19.596 8.679zm-8.085-42.5c3.185-3.308 7.101-4.959 11.748-4.959 4.648 0 8.557 1.651 11.749 4.959 3.185 3.308 4.785 7.435 4.785 12.393 0 4.959-1.592 8.969-4.785 12.277-3.185 3.309-7.101 4.959-11.749 4.959-4.647 0-8.563-1.65-11.748-4.959-3.186-3.308-4.785-7.398-4.785-12.277s1.592-9.092 4.785-12.393zm96.748 12.516c0-5.827-1.281-10.228-3.836-13.225-2.556-2.99-5.922-4.488-10.091-4.488-4.409 0-7.927 1.614-10.569 4.842-2.635 3.229-3.953 7.674-3.953 13.342v21.188c0 4.076-3.301 7.377-7.376 7.377-4.076 0-7.377-3.301-7.377-7.377v-51.056h14.76v7.203c4.641-5.43 10.548-8.144 17.707-8.144 7.717 0 13.892 2.533 18.539 7.615 4.64 5.075 6.964 12.256 6.964 21.543v30.223h-14.76v-29.043zm30.809-16.526h-12.747v-12.871h12.747v-16.997h14.522v16.997h9.975c3.554 0 6.435 2.881 6.435 6.435 0 3.555-2.881 6.436-6.435 6.436h-9.975v22.549c0 6.53 3.38 9.802 10.149 9.802 2.128 0 4.206-0.355 6.254-1.064l1.535 12.747c-3.858 1.18-7.558 1.774-11.097 1.774-6.378 0-11.532-1.81-15.463-5.429-3.938-3.62-5.9-8.499-5.9-14.638v-25.734zm66.7-14.637c-8.737 0-16.034 2.967-21.898 8.911-5.863 5.943-8.795 13.319-8.795 22.136s2.953 15.839 8.853 21.782c5.9 5.944 13.219 8.912 21.956 8.912 4.879 0 9.563-1.043 14.051-3.128 2.063-0.955 3.938-2.084 5.632-3.387 3.076-2.36 3.257-6.928 0.275-9.404-2.128-1.766-5.205-1.853-7.384-0.152-3.352 2.613-7.586 3.916-12.69 3.916-4.329 0-8.071-1.281-11.213-3.836-3.149-2.556-5.074-6.161-5.784-10.801h46.518c0.079-1.1 0.116-2.599 0.116-4.488-0.16-9.367-2.976-16.78-8.441-22.252-5.473-5.473-12.531-8.202-21.189-8.202zm-16.765 25.379c1.02-4.329 3.026-7.731 6.023-10.214 2.989-2.476 6.609-3.721 10.858-3.721s7.652 1.202 10.446 3.605c2.794 2.404 4.741 5.842 5.842 10.33h-33.176zm104.01-16.939c4.64 5.075 6.964 12.256 6.964 21.543v30.223h-14.76v-29.043c0-5.827-1.281-10.228-3.837-13.225-2.555-2.99-5.921-4.488-10.091-4.488-4.408 0-7.927 1.614-10.569 4.842-2.635 3.229-3.952 7.674-3.952 13.342v21.188c0 4.076-3.301 7.377-7.377 7.377-4.075 0-7.376-3.301-7.376-7.377v-51.056h14.76v7.203c4.64-5.43 10.547-8.144 17.706-8.144 7.717 0 13.892 2.533 18.539 7.615zm68.293-6.667c-4.076 0-7.377 3.301-7.377 7.377v0.412c-4.879-5.82-11.611-8.737-20.189-8.737-7.869 0-14.42 2.888-19.654 8.679-5.234 5.784-7.847 12.965-7.847 21.543 0 8.579 2.635 15.644 7.912 21.428 5.27 5.784 11.807 8.679 19.596 8.679 8.498 0 15.231-2.874 20.189-8.621v7.673h14.761v-51.056c0-4.076-3.301-7.377-7.377-7.377zm-12.162 41.559c-3.185 3.308-7.101 4.959-11.749 4.959-4.647 0-8.563-1.651-11.749-4.959-3.185-3.308-4.785-7.398-4.785-12.277s1.593-9.092 4.785-12.393c3.186-3.309 7.102-4.959 11.749-4.959 4.648 0 8.557 1.65 11.749 4.959 3.185 3.308 4.785 7.434 4.785 12.393 0 4.958-1.593 8.969-4.785 12.277zm67.011-45.844-17.576 11.263v-14.47l18.387-12.48h13.327v56.623h-14.131v-40.936zm35.927 55.783c0 3.829-3.113 6.942-6.942 6.942h-52.07v-13.891h52.07c3.829 0 6.942 3.112 6.942 6.942z" fill="#4eae06"/>
  <path d="m690.11 167h-65.571c-6.022 0-10.909 4.887-10.909 10.91v93.824h26.929v-29.781c0-1.006 0.818-1.824 1.824-1.824h47.734c20.197 0 36.564-16.375 36.564-36.565 0-20.189-16.382-36.564-36.571-36.564zm9.621 46.525c0 1.007-0.818 1.825-1.825 1.825h-55.812c-1.006 0-1.824-0.818-1.824-1.825v-20.001c0-1.006 0.818-1.824 1.824-1.824h55.812c1.007 0 1.825 0.818 1.825 1.824zm-233.02 20.248c-0.218-0.398-0.109-0.891 0.253-1.166 8.716-6.681 14.34-17.2 14.34-29.035 0-20.197-16.374-36.572-36.564-36.572h-74.742v93.912c0 7.434 6.03 13.464 13.464 13.464 7.435 0 13.465-6.03 13.465-13.464v-18.952c0-1.006 0.818-1.824 1.824-1.824h39.243c0.666 0 1.274 0.362 1.592 0.948l16.824 30.657h31.113l-20.812-37.961zm-12.35-30.252c0 6.53-5.292 11.829-11.829 11.829h-44.07c-0.999 0-1.817-0.811-1.817-1.817v-20.016c0-1.006 0.818-1.824 1.824-1.824h44.063c6.53 0 11.829 5.291 11.829 11.821m137.5-11.821h-30.078c-0.999 0-1.81 0.818-1.81 1.817v78.224h-27.262v-78.21c0-1.006-0.818-1.824-1.824-1.824h-42.123v-24.7h103.1c6.819 0 12.35 5.531 12.35 12.35s-5.531 12.35-12.35 12.35z" fill="#00f"/>
 </g>
 <mask fill="#ffffff">
  <path d="m0 499h600v176h-600z"/>
 </mask>
 <mask fill="#ffffff">
  <path d="m600 499h600v176h-600z"/>
 </mask>
 <defs>
  <clipPath id="a">
   <rect transform="translate(370,167)" width="460" height="302.97" fill="#fff"/>
  </clipPath>
 </defs>
</svg>
