<svg fill="none" version="1.1" viewBox="0 0 446.15 219.75" xmlns="http://www.w3.org/2000/svg">
 <g transform="translate(-377 -208.12)" clip-path="url(#a)">
  <path d="m423.25 377.26c-4.731-5.644-11.26-8.473-19.578-8.473-7.63 0-13.983 2.801-19.059 8.417-5.075 5.608-7.616 12.572-7.616 20.89 0 8.319 2.555 15.17 7.673 20.779 5.11 5.608 11.449 8.416 19.002 8.416 8.241 0 14.77-2.786 19.578-8.36v0.288c0 3.952 3.201 7.153 7.153 7.153s7.153-3.201 7.153-7.153v-49.511h-14.313v7.554zm-4.64 32.74c-3.089 3.208-6.886 4.808-11.393 4.808s-8.304-1.6-11.393-4.808-4.64-7.174-4.64-11.906c0-4.731 1.544-8.817 4.64-12.018 3.089-3.208 6.886-4.808 11.393-4.808s8.297 1.6 11.393 4.808c3.089 3.209 4.64 7.21 4.64 12.018 0 4.809-1.544 8.698-4.64 11.906zm78.593-33.828c4.5 4.92 6.753 11.884 6.753 20.89v29.308h-14.313v-28.163c0-5.651-1.243-9.919-3.721-12.825-2.478-2.9-5.742-4.353-9.785-4.353-4.275 0-7.687 1.566-10.249 4.696-2.555 3.131-3.833 7.441-3.833 12.938v20.547c0 3.952-3.201 7.153-7.153 7.153s-7.153-3.201-7.153-7.153v-49.511h14.313v6.985c4.5-5.265 10.228-7.897 17.171-7.897 7.483 0 13.47 2.457 17.977 7.385zm52.318 36.348 1.488 12.362c-3.741 1.144-7.328 1.719-10.761 1.719-6.184 0-11.182-1.754-14.994-5.264-3.819-3.51-5.721-8.242-5.721-14.194v-24.955h-12.362v-12.482h12.362v-16.482h14.081v16.482h9.674c3.446 0 6.24 2.794 6.24 6.241s-2.794 6.241-6.24 6.241h-9.674v21.866c0 6.332 3.279 9.505 9.842 9.505 2.064 0 4.079-0.344 6.065-1.032zm34.685-44.533c-8.473 0-15.549 2.878-21.235 8.641s-8.529 12.916-8.529 21.466 2.864 15.359 8.585 21.123c5.721 5.763 12.818 8.641 21.291 8.641 4.731 0 9.273-1.011 13.625-3.033 2.001-0.926 3.819-2.021 5.462-3.285 2.983-2.288 3.159-6.718 0.267-9.118-2.064-1.713-5.048-1.797-7.161-0.148-3.25 2.534-7.356 3.798-12.305 3.798-4.198 0-7.827-1.243-10.874-3.721-3.053-2.478-4.921-5.973-5.609-10.473h45.109c0.077-1.067 0.113-2.52 0.113-4.352-0.155-9.084-2.886-16.272-8.185-21.579-5.307-5.307-12.152-7.953-20.547-7.953zm-16.258 24.611c0.99-4.198 2.934-7.497 5.84-9.905 2.9-2.401 6.409-3.608 10.53-3.608s7.42 1.165 10.13 3.496c2.709 2.33 4.597 5.665 5.664 10.017h-32.171zm100.86-16.426c4.499 4.92 6.753 11.884 6.753 20.89v29.308h-14.314v-28.163c0-5.651-1.242-9.919-3.72-12.825-2.478-2.9-5.742-4.353-9.786-4.353-4.275 0-7.686 1.566-10.248 4.696-2.556 3.131-3.833 7.441-3.833 12.938v20.547c0 3.952-3.201 7.153-7.153 7.153s-7.153-3.201-7.153-7.153v-49.511h14.313v6.985c4.5-5.265 10.228-7.897 17.17-7.897 7.483 0 13.471 2.457 17.978 7.385zm66.224-6.466c-3.952 0-7.153 3.201-7.153 7.154v0.4c-4.731-5.644-11.26-8.473-19.578-8.473-7.631 0-13.984 2.801-19.059 8.417-5.075 5.608-7.609 12.572-7.609 20.89 0 8.319 2.555 15.17 7.672 20.779 5.111 5.608 11.45 8.416 19.003 8.416 8.241 0 14.769-2.786 19.578-8.36v7.441h14.313v-49.51c0-3.953-3.201-7.154-7.153-7.154zm-11.793 40.301c-3.089 3.208-6.887 4.808-11.393 4.808-4.507 0-8.305-1.6-11.393-4.808-3.089-3.208-4.64-7.174-4.64-11.906 0-4.731 1.544-8.817 4.64-12.018 3.088-3.208 6.886-4.808 11.393-4.808 4.506 0 8.297 1.6 11.393 4.808 3.088 3.209 4.64 7.21 4.64 12.018 0 4.809-1.545 8.698-4.64 11.906zm56.151-35.288h-13.471v-0.976c0-14.994 12.193-27.188 27.187-27.188s27.188 12.194 27.188 27.188c0 8.459-3.819 16.229-10.509 21.431l-0.526 0.414-12.432 9.659h-22.098l26.492-20.469c3.566-2.633 5.595-6.655 5.595-11.035 0-7.567-6.156-13.717-13.717-13.717-7.56 0-13.716 6.157-13.716 13.717v0.976zm43.761 44.926c0 3.713-3.019 6.732-6.732 6.732h-50.493v-13.471h50.493c3.713 0 6.732 3.018 6.732 6.732z" fill="#763ac7"/>
  <path d="m687.41 208.12h-63.585c-5.84 0-10.579 4.739-10.579 10.579v90.983h26.114v-28.879c0-0.976 0.793-1.769 1.769-1.769h46.288c19.585 0 35.457-15.879 35.457-35.457s-15.886-35.457-35.464-35.457zm9.329 45.116c0 0.976-0.793 1.769-1.769 1.769h-54.122c-0.976 0-1.769-0.793-1.769-1.769v-19.395c0-0.976 0.793-1.769 1.769-1.769h54.122c0.976 0 1.769 0.793 1.769 1.769zm-225.96 19.635c-0.211-0.387-0.106-0.864 0.245-1.131 8.452-6.479 13.907-16.679 13.907-28.156 0-19.585-15.879-35.464-35.457-35.464h-72.479v91.068c0 7.209 5.847 13.056 13.057 13.056 7.209 0 13.056-5.847 13.056-13.056v-18.378c0-0.976 0.794-1.769 1.769-1.769h38.054c0.646 0 1.236 0.351 1.545 0.919l16.314 29.729h30.171l-20.182-36.811zm-11.976-29.336c0 6.332-5.131 11.47-11.47 11.47h-42.736c-0.969 0-1.762-0.786-1.762-1.762v-19.409c0-0.976 0.793-1.769 1.769-1.769h42.729c6.332 0 11.47 5.131 11.47 11.463m133.34-11.463h-29.167c-0.969 0-1.755 0.793-1.755 1.762v75.855h-26.436v-75.841c0-0.976-0.793-1.769-1.769-1.769h-40.848v-23.952h99.975c6.613 0 11.976 5.364 11.976 11.976 0 6.613-5.363 11.976-11.976 11.976z" fill="#00f"/>
 </g>
 <mask fill="#ffffff">
  <path d="m0 499h600v176h-600z"/>
 </mask>
 <mask fill="#ffffff">
  <path d="m600 499h600v176h-600z"/>
 </mask>
 <defs>
  <clipPath id="a">
   <rect transform="translate(377 208.12)" width="446.15" height="220.31" fill="#fff"/>
  </clipPath>
 </defs>
</svg>
