<svg width="351.14mm" height="37.995mm" version="1.1" viewBox="0 0 351.14 37.995" xmlns="http://www.w3.org/2000/svg">
 <g transform="translate(65.199 -116.98)" stroke-width=".46819">
  <path d="m90.926 130.11c-2.3072-2.753-5.4905-4.1304-9.5483-4.1304-3.7226 0-6.8229 1.3676-9.2982 4.1056-2.4749 2.7352-3.7127 6.1328-3.7127 10.191s1.2477 7.3983 3.7427 10.136c2.4931 2.7352 5.5832 4.1056 9.2683 4.1056 4.0203 0 7.2031-1.3578 9.5483-4.0779v0.13999c0 1.9275 1.5628 3.4904 3.4904 3.4904 1.928 0 3.4904-1.5628 3.4904-3.4904v-24.154h-6.9807zm-2.2623 15.971c-1.5076 1.5628-3.3607 2.3452-5.5555 2.3452-2.1953 0-4.048-0.78234-5.5555-2.3452-1.5076-1.5652-2.2628-3.4978-2.2628-5.8079 0-2.3105 0.75519-4.3003 2.2628-5.8631s3.3579-2.3452 5.5555-2.3452c2.1977 0 4.048 0.78234 5.5555 2.3452s2.2623 3.518 2.2623 5.8631-0.75238 4.2427-2.2623 5.8079zm38.333-16.501c2.1953 2.3999 3.2951 5.7981 3.2951 10.191v14.294h-6.9802v-13.736c0-2.7553-0.60537-4.8378-1.8152-6.2527-1.2103-1.4153-2.8002-2.1228-4.7732-2.1228-2.0848 0-3.7502 0.76221-4.9979 2.2899-1.2472 1.5277-1.87 3.628-1.87 6.3107v10.023c0 1.9275-1.5628 3.4904-3.4904 3.4904s-3.4904-1.5628-3.4904-3.4904v-24.152h6.9807v3.4052c2.1954-2.5676 4.9881-3.8527 8.3754-3.8527 3.6481 0 6.5706 1.2 8.7683 3.6027zm25.517 17.729 0.72522 6.0308c-1.8255 0.55714-3.5732 0.83712-5.2479 0.83712-3.0156 0-5.453-0.85491-7.3159-2.5699-1.8625-1.7103-2.7928-4.0204-2.7928-6.9231v-12.171h-6.0303v-6.0855h6.0303v-8.043h6.8683v8.0407h4.718c1.6799 0 3.0428 1.3624 3.0428 3.0428 0 1.6799-1.3629 3.0428-3.0428 3.0428h-4.718v10.666c0 3.0901 1.5998 4.6351 4.8027 4.6351 1.0052 0 1.9903-0.16714 2.9604-0.50236zm16.919-21.722c-4.1327 0-7.5856 1.405-10.358 4.2151-2.7731 2.8106-4.1608 6.3004-4.1608 10.471 0 4.1702 1.398 7.4906 4.188 10.303 2.7904 2.8101 6.2532 4.2151 10.386 4.2151 2.3077 0 4.5232-0.49253 6.6455-1.48 0.97524-0.45273 1.8629-0.98788 2.6654-1.6003 1.4575-1.1152 1.5403-3.2778 0.13015-4.4501-1.0075-0.83525-2.4603-0.87786-3.4927-0.0726-1.5853 1.2351-3.5882 1.8526-6.0008 1.8526-2.0474 0-3.8153-0.60537-5.3055-1.8152-1.4898-1.2075-2.3999-2.9126-2.7352-5.108h22.002c0.0374-0.52015 0.0548-1.2276 0.0548-2.1228-0.0749-4.4305-1.405-7.9382-3.9927-10.526-2.5877-2.5877-5.9282-3.8804-10.023-3.8804zm-7.9307 12.003c0.48224-2.045 1.4327-3.658 2.8475-4.8303 1.4153-1.1728 3.128-1.7604 5.1379-1.7604 2.0104 0 3.6205 0.56745 4.9403 1.7028 1.3203 1.1349 2.2431 2.7651 2.7656 4.8851h-15.691zm49.194-8.0131c2.1953 2.3999 3.2951 5.7976 3.2951 10.191v14.294h-6.9802v-13.736c0-2.7553-0.60536-4.8378-1.8152-6.2532-1.2103-1.4149-2.8002-2.1228-4.7732-2.1228-2.0848 0-3.7502 0.76268-4.9979 2.2904-1.2473 1.5277-1.87 3.628-1.87 6.3107v10.023c0 1.928-1.5628 3.4904-3.4904 3.4904s-3.4904-1.5624-3.4904-3.4904v-24.149h6.9807v3.4052c2.1949-2.5676 4.9876-3.8527 8.3754-3.8527 3.6481 0 6.5706 1.2 8.7683 3.6027zm32.303-3.1556c-1.9275 0-3.4904 1.5628-3.4904 3.4904v0.19523c-2.3077-2.753-5.4905-4.1304-9.5483-4.1304-3.723 0-6.8229 1.3676-9.2982 4.1051-2.4753 2.7352-3.7127 6.1333-3.7127 10.191s1.2473 7.3979 3.7427 10.136c2.4926 2.7352 5.5832 4.1051 9.2683 4.1051 4.0204 0 7.2031-1.3573 9.5483-4.0775v3.6303h6.9807v-24.152c0-1.9275-1.5628-3.4899-3.4904-3.4899zm-5.7531 19.657c-1.5076 1.5624-3.3602 2.3452-5.5555 2.3452-2.1949 0-4.0475-0.78281-5.5551-2.3452-1.508-1.5652-2.2628-3.4978-2.2628-5.8084 0-2.31 0.75472-4.3003 2.2628-5.8627 1.5076-1.5628 3.3574-2.3452 5.5551-2.3452 2.1977 0 4.048 0.78235 5.5555 2.3452 1.5076 1.5624 2.2628 3.5175 2.2628 5.8627 0 2.3456-0.75238 4.2432-2.2628 5.8084zm31.698-21.68-8.3132 5.328v-6.8431l8.7008-5.9029h6.3028v26.782h-6.6853v-19.362zm16.994 26.385c0 1.81-1.4725 3.2853-3.2853 3.2853h-24.63v-6.5682h24.63c1.81 0 3.2853 1.4729 3.2853 3.2853z" fill="#ed1c24"/>
  <path d="m45.36 117.89h-22.647c-2.0802 0-3.768 1.6874-3.768 3.7675v32.408h9.3011v-10.286c0-0.3474 0.28232-0.63019 0.62972-0.63019h16.486c6.976 0 12.629-5.6553 12.629-12.628s-5.6581-12.631-12.631-12.631zm3.3227 16.069c0 0.34739-0.28232 0.63018-0.62972 0.63018h-19.277c-0.3474 0-0.63018-0.28279-0.63018-0.63018v-6.9081c0-0.3474 0.28279-0.63019 0.63018-0.63019h19.277c0.3474 0 0.62972 0.28279 0.62972 0.63019zm-80.479 6.9929c-0.07538-0.13718-0.03792-0.3076 0.08708-0.40218 3.0105-2.3077 4.953-5.9409 4.953-10.029 0-6.9756-5.6553-12.628-12.628-12.628h-25.815v32.433c0 2.5676 2.0825 4.6501 4.6505 4.6501 2.5676 0 4.6501-2.0825 4.6501-4.6501v-6.5458c0-0.3474 0.28279-0.63019 0.63018-0.63019h13.554c0.22988 0 0.4401 0.12501 0.55012 0.32774l5.8102 10.589h10.746l-7.1881-13.111zm-4.2657-10.448c0 2.2553-1.8273 4.0854-4.0854 4.0854h-15.221c-0.34506 0-0.62737-0.28044-0.62737-0.62784v-6.9128c0-0.34787 0.28232-0.63019 0.63018-0.63019h15.219c2.2553 0 4.0854 1.8278 4.0854 4.0826m47.492-4.0826h-10.389c-0.34506 0-0.62503 0.28232-0.62503 0.62738v27.017h-9.4158v-27.012c0-0.3474-0.28232-0.63019-0.63018-0.63019h-14.549v-8.5304h35.608c2.355 0 4.2652 1.9097 4.2652 4.2652 0 2.355-1.9102 4.2652-4.2652 4.2652z" fill="#00f"/>
 </g>
</svg>
