<svg xmlns="http://www.w3.org/2000/svg" width="316.59mm" height="63.581mm" viewBox="0 0 1121.7772 225.288"><g fill="#fff"><g><path d="M933.249 192.833c-5.832-1.058-9.407-2.323-15.54-5.498-15.396-7.971-25.478-22.102-29.644-41.544-1.506-7.029-1.793-22.437-.547-29.412 5.044-28.247 24.134-47.097 50.654-50.015 10.386-1.143 22.923.927 31.425 5.188 11.859 5.943 19.236 14.714 24.043 28.587 1.059 3.055 1.219 6.033 1.219 6.033s-4.427-.023-11.668-.023h-11.813l-1.566-3.298c-3.041-6.403-7.846-11.033-14.165-13.649-5.077-2.102-15.11-2.465-20.756-.75-15.686 4.764-24.913 22.075-23.823 44.694.995 20.647 10.547 35.112 25.52 38.642 14.125 3.33 27.22-2.46 33.013-14.597l1.816-3.804 11.793-.032c7.948-.022 11.597-.024 11.597-.024s-.26 3.517-1.226 6.476c-2.782 8.522-6.549 14.529-12.881 20.543-7.154 6.793-15.047 10.687-25.288 12.473-5.87 1.024-16.557 1.029-22.165.012z"/><path d="M533.991 68.355l-23.225 60.678c-12.773 33.374-23.582 61.809-23.582 61.809l-.42 1.16s.35-.033 11.732-.033c10.535 0 12.098.008 12.098.008s2.856-8.135 5.588-15.637c2.731-7.502 5.22-13.959 5.531-14.35.84-1.055 47.765-1.03 48.641.025.336.405 3.005 7.253 5.973 15.203l5.51 14.76 11.945.008 12.123-.053-.438-1.23c-.192-.71-10.791-28.529-23.551-61.82l-23.201-60.527h-24.724zm12.156 29.949c.925.141 2.291 3.34 7.602 17.791 8.896 24.206 8.746 23.747 8.057 24.58-.444.536-4.317.711-15.77.711-8.35 0-15.35-.171-15.559-.379-.208-.208-.379-.834-.379-1.391 0-.752 11.392-32.502 14.518-40.459.24-.611.859-.956 1.531-.854z"/><path d="M623.875 130.019v-61.95h81.842v20.46h-28.304c-21.256 0-29.341-.03-29.341-.03l.071 34.8s7.509-.101 26.997-.101h26.03v20.45l-26.57.148-26.57.148-.148 24.013-.266 24.013h-23.741z"/><path d="M726.745 67.997v123.972h23.86l.148-23.445.146-23.443h15.346l14.836 22.357c8.16 12.297 15.926 24.504 15.926 24.504s1.67.027 13.564.027c8.691 0 12.635-.023 12.635-.023s-6.579-11.084-14.814-23.176c-8.236-12.092-14.9-22.272-15.598-23.336-.568-.782-1.254-1.918-1.254-1.918s2.293-.811 3.506-1.219c1.123-.377 4.008-1.407 6.645-2.684 8.68-4.201 14.848-11.792 17.533-21.572 1.379-5.021 1.371-17.516-.016-22.65-1.78-6.592-4.204-10.736-9.17-15.682-5.235-5.212-10.223-7.988-18.041-10.039-4.509-1.183-6.091-1.25-34.986-1.457l-30.266-.217zm38.432 19.934c6.931.037 14.364.339 16.904.877 9.701 2.055 14.824 8.487 14.789 18.572-.013 3.74-.275 4.886-1.842 8.068-2.063 4.19-4.766 6.654-9.334 8.51-2.726 1.107-4.237 1.221-18.604 1.398-8.601.106-15.827.005-16.057-.225-.754-.754-.502-35.723.264-36.488.522-.522 6.948-.75 13.879-.713z"/><path d="M842.097 191.864s.022-28.36.022-62.224v-61.571h24.444l-.145 61.808.155 61.995-11.987-.034c-6.428.084-12.49.026-12.49.026z"/><path d="M1075.001 68.069l-12.291.012-12.291.012-23.176 60.66c-12.747 33.363-23.328 61.239-23.514 61.949l-.338 1.291 11.787-.154 11.787-.152 5.408-14.777c2.975-8.127 5.694-14.966 6.043-15.195.349-.23 11.318-.426 24.375-.426l23.742-.01.697 1.521c.384.837 3.001 7.679 5.814 15.203l5.115 13.682 11.609.154c6.386.085 11.787-.044 12.002-.285.215-.241-6.23-17.701-14.32-38.801-8.091-21.1-18.701-48.785-23.58-61.523l-8.871-23.16zm-12.695 30.213c.39.013.843.218 1.139.543 1.051 1.154 15.213 40.173 14.994 41.311-.169.877-1.64.98-15.965 1.117-13.315.128-15.826.023-16.092-.668-.429-1.118 14.583-41.872 15.563-42.248.108-.041.231-.059.361-.055z"/><path d="M541.082 44.625c3.529-5.392 6.879-10.507 7.444-11.367l1.027-1.563h12.201c6.828 0 12.137.003 12.137.003s-4.023 5.884-8.555 11.852l-8.241 10.85-11.215.014-11.215.014 6.417-9.804z"/></g><g fill-rule="evenodd"><path d="M61.117-.002h306.417c8.442 0 15.239 7.107 15.239 15.934 0 8.827-6.797 15.934-15.239 15.934h-306.417c-8.442 0-15.239-7.107-15.239-15.934 0-8.827 6.797-15.934 15.239-15.934z"/><path d="M15.237 48.656h398.178c8.442 0 15.239 7.107 15.239 15.934 0 8.827-6.797 15.934-15.239 15.934h-398.178c-8.442 0-15.239-7.107-15.239-15.934 0-8.827 6.797-15.934 15.239-15.934z"/><path d="M61.117 225.13h306.417c8.442 0 15.239-7.107 15.239-15.934 0-8.827-6.797-15.934-15.239-15.934h-306.417c-8.442 0-15.239 7.107-15.239 15.934 0 8.827 6.797 15.934 15.239 15.934z"/><path d="M15.237 176.471h398.178c8.442 0 15.239-7.107 15.239-15.934 0-8.827-6.797-15.934-15.239-15.934h-398.178c-8.442 0-15.239 7.107-15.239 15.934 0 8.827 6.797 15.934 15.239 15.934z"/><path d="M15.237 96.63h398.178c8.442 0 15.239 7.107 15.239 15.934 0 8.827-6.797 15.934-15.239 15.934h-398.178c-8.442 0-15.239-7.107-15.239-15.934 0-8.827 6.797-15.934 15.239-15.934z"/></g></g></svg>