<svg width="485.77mm" height="55.714mm" version="1.1" viewBox="0 0 485.77 55.714" xmlns="http://www.w3.org/2000/svg">
 <g transform="translate(127.22 -103.59)">
  <path d="m322.08 149.45v8.6637h32.138c2.3886 0 4.3306-1.9448 4.3306-4.3336 0-2.3888-1.942-4.3301-4.3306-4.3301z" fill="#c822bc" stroke-width=".19856"/>
  <path d="m-27.464 122.13h-13.523c-0.45016 9.2e-4 -0.81438 0.36683-0.81438 0.8157v35.172h-12.259v-35.168c0-0.45243-0.36813-0.82056-0.82058-0.81926h-18.939v-11.106h46.357c3.0668 0 5.5529 2.4861 5.5529 5.553 0 3.0668-2.4861 5.553-5.5529 5.553m-61.827 5.317c0 2.9363-2.3807 5.317-5.317 5.317h-19.818c-0.45016 0-0.81569-0.36554-0.81569-0.81569v-8.999c0-0.45243 0.36651-0.81926 0.81927-0.81926h19.814c2.9363 0 5.317 2.3807 5.317 5.317m5.552 13.602c-0.0983-0.17903-0.04752-0.40167 0.11489-0.52503 3.9203-3.0053 6.4484-7.7354 6.4484-13.057 0-9.081-7.3611-16.442-16.442-16.442h-33.606v42.226c0 3.3428 2.7114 6.0542 6.0542 6.0542 3.3441 0 6.0539-2.7114 6.0539-6.0542v-8.5221c0-0.45244 0.36684-0.81929 0.8196-0.81929h17.645c0.2988 0 0.57351 0.1634 0.71641 0.42478l7.5645 13.784h13.989zm104.77-9.1044c0 0.45277-0.36683 0.81959-0.81926 0.81959h-25.096c-0.45244 0-0.81928-0.36682-0.81928-0.81959v-8.9938c0-0.45276 0.36684-0.82056 0.81928-0.82056h25.096c0.45243 0 0.81926 0.3678 0.81926 0.82056zm-4.3268-20.92h-29.485c-2.7085 0-4.9042 2.1968-4.9042 4.9052v42.189h12.107v-13.39c0-0.45243 0.36651-0.81927 0.81928-0.81927h21.463c9.081 0 16.442-7.3611 16.442-16.442 0-9.0797-7.3611-16.442-16.442-16.442" fill="#00f"/>
  <path d="m294.91 121.55c-4.8712 0-8.8697 1.7449-12.069 5.3074-3.2717 3.5625-4.8714 7.9976-4.8714 13.305 0 5.2346 1.5997 9.5967 4.8714 13.159 3.2716 3.5624 7.2702 5.38 12.069 5.38 5.2346 0 9.3788-1.7449 12.432-5.3073v0.18193a4.5439 4.5439 0 0 0 4.5436 4.5441 4.5439 4.5439 0 0 0 4.544-4.5441v-31.444h-9.0876v4.7982c-2.9808-3.5625-7.1251-5.38-12.432-5.38zm2.2537 7.9249c2.8354 0 5.3074 1.0179 7.2704 3.0536 1.963 2.0357 2.9083 4.5802 2.9083 7.6338 0 2.9808-0.94528 5.5254-2.9083 7.5611-1.963 2.0357-4.4349 3.0536-7.2704 3.0536-2.8354 0-5.2348-1.0179-7.1978-3.0536-1.963-2.0357-2.9809-4.5803-2.9809-7.5611 0-3.0535 1.0179-5.5981 2.9809-7.6338 1.963-2.0357 4.3623-3.0536 7.1978-3.0536z" fill="#c822bc"/>
  <path d="m275.73 121.54c-5.7853 0.0854-9.9772 1.8362-12.635 5.3124v-4.7255h-9.0877v31.444a4.5439 4.5439 0 0 0 4.5436 4.5441 4.5439 4.5439 0 0 0 4.5441-4.5441v-12.687c0-3.3443 0.87217-5.962 2.6171-7.9249 1.7448-1.963 3.8533-2.9083 6.2525-2.9083 1.8176 0 3.4173 0.3635 4.944 1.0905v-9.5968c-0.39985-9e-3 -0.79258-0.0107-1.1782-5e-3z" fill="#c822bc"/>
  <path d="m216.61 121.04c-5.38 0-9.8873 1.8175-13.45 5.4526-3.6351 3.7078-5.4527 8.2155-5.4527 13.668 0 5.3073 1.8176 9.7419 5.4527 13.377 3.6351 3.7078 8.1424 5.5258 13.522 5.5258 2.9808 0 5.8888-0.65439 8.6516-1.963 1.3157-0.5886 2.5103-1.2907 3.5873-2.1274 0.89129-0.69415 1.4127-1.7615 1.4133-2.8912-8e-5 -2.0244-1.6411-3.6654-3.6655-3.6655-0.80179 9.7e-4 -1.5812 0.26491-2.2186 0.75123-2.0559 1.6097-4.6774 2.4076-7.8397 2.4076-2.69 0-4.9435-0.80011-6.9065-2.3996-1.963-1.5268-3.1266-3.7804-3.5628-6.6159h28.645c0.0727-0.65434 0.0726-1.5992 0.0726-2.7624-0.0727-5.7435-1.8172-10.324-5.1615-13.741-3.417-3.3443-7.7796-5.0166-13.087-5.0166zm0.0726 7.0524c2.5446 0 4.7256 0.72701 6.4705 2.1811 1.6722 1.5268 2.9085 3.6352 3.5628 6.3979h-20.429c0.65433-2.69 1.89-4.7984 3.7076-6.3252 1.8176-1.5267 4.0712-2.2537 6.6885-2.2537z" fill="#c822bc"/>
  <path d="m67.082 121.55c-4.5803 0-8.2879 1.6723-11.269 5.0167v-4.4348h-9.0881v31.444c-7.8e-5 2.5096 2.0344 4.5441 4.5441 4.5441 2.5096 4e-5 4.5441-2.0344 4.5441-4.5441v-12.978c0-3.5624 0.79963-6.3253 2.3991-8.361 1.5995-1.963 3.7079-2.9804 6.3252-2.9804 2.3992 0 4.4346 0.94485 5.9614 2.7624 1.5268 1.8903 2.3264 4.6532 2.3264 8.2156v17.885h9.0881v-17.885c0-3.417 0.79965-6.1073 2.3264-8.0703 1.5267-1.963 3.5625-2.9078 6.2525-2.9078 2.5446 0 4.5078 0.94485 6.0345 2.7624 1.5268 1.8176 2.2537 4.5805 2.2537 8.2156v13.342a4.5438 4.5438 0 0 0 4.5441 4.5436 4.5438 4.5438 0 0 0 4.5436-4.5436v-14.069c0-5.7436-1.3814-10.178-4.1442-13.304-2.8354-3.1262-6.543-4.6533-11.196-4.6533-5.5981 0-10.106 2.1084-13.378 6.3979-2.9808-4.2895-6.9794-6.3979-12.069-6.3979z" fill="#c822bc"/>
  <path d="m128.82 121.55c-4.8711 0-8.8696 1.7449-12.069 5.3074-3.2716 3.5625-4.8713 7.9976-4.8713 13.305 0 5.2346 1.5997 9.5967 4.8713 13.159 3.2716 3.5624 7.2702 5.38 12.069 5.38 5.2346 0 9.3789-1.7449 12.432-5.3073v4.726h9.0876v-31.444a4.5439 4.5439 0 0 0-4.5436-4.5441 4.5439 4.5439 0 0 0-4.5441 4.5441v0.2541c-2.9808-3.5625-7.1251-5.38-12.432-5.38zm2.2537 7.9249c2.8354 0 5.3074 1.0179 7.2704 3.0536 1.963 2.0357 2.9083 4.5802 2.9083 7.6338 0 2.9808-0.94528 5.5254-2.9083 7.5611-1.963 2.0357-4.435 3.0536-7.2704 3.0536-2.8354 0-5.2342-1.0179-7.1972-3.0536-1.963-2.0357-2.9809-4.5803-2.9809-7.5611 0-3.0535 1.018-5.5981 2.9809-7.6338 1.963-2.0357 4.3618-3.0536 7.1972-3.0536z" fill="#c822bc"/>
  <path d="m184.23 103.59v23.337c-2.9808-3.5625-7.1246-5.38-12.432-5.38-4.8711 0-8.8701 1.7449-12.069 5.3074-3.2716 3.5625-4.8708 7.9976-4.8708 13.305 0 5.2346 1.5992 9.5967 4.8708 13.159 3.2716 3.5624 7.2707 5.38 12.069 5.38 5.3073 0 9.4511-1.8176 12.432-5.38v0.2546a4.5439 4.5439 0 0 0 4.5441 4.5441 4.5439 4.5439 0 0 0 4.5441-4.5441v-49.983zm-10.178 25.882c2.8354 0 5.3074 1.0179 7.2704 3.0536 1.963 2.0357 2.9078 4.5802 2.9078 7.6338 0 2.9808-0.94478 5.5254-2.9078 7.5611-1.963 2.0357-4.435 3.0536-7.2704 3.0536s-5.2348-1.0179-7.1978-3.0536c-1.963-2.0357-2.9083-4.5803-2.9083-7.5611 0-3.0535 0.94528-5.5981 2.9083-7.6338 1.963-2.0357 4.3623-3.0536 7.1978-3.0536z" fill="#c822bc"/>
  <path d="m243.4 105.99c-1.3814 0-2.6172 0.50874-3.635 1.4539-1.0178 1.0178-1.5271 2.181-1.5271 3.4896 0 1.4541 0.50922 2.6903 1.5271 3.7081 1.0178 1.0178 2.2536 1.5266 3.635 1.5266 1.3814 0 2.6176-0.50871 3.6354-1.5266 1.0178-1.0178 1.5266-2.2541 1.5266-3.7081 0-1.3086-0.50872-2.4718-1.5266-3.4896-1.0905-0.94515-2.2541-1.4539-3.6354-1.4539z" fill="#c822bc"/>
  <path d="m238.96 122.13v31.553a4.4349 4.4349 0 0 0 4.4348 4.4348 4.4349 4.4349 0 0 0 4.4348-4.4348v-31.553z" fill="#c822bc"/>
 </g>
</svg>
