<svg width="1e3" height="264.93" version="1.1" viewBox="0 0 264.58 70.096" xmlns="http://www.w3.org/2000/svg">
 <defs>
  <clipPath id="a">
   <path d="m0 841.89 3.593-823.68h580.46l-12.951 823.68z"/>
  </clipPath>
 </defs>
 <g transform="translate(-45.062 -170.58)">
  <g transform="matrix(6.5744 0 0 -6.5744 -2074.4 5312.9)">
   <g clip-path="url(#a)">
    <g transform="translate(326.65 774.67)">
     <path d="m0 0c0.185-0.017 0.335-0.029 0.587-0.033 1.674-0.035 2.824 0.281 3.846 0.9 1.185 0.707 2.056 2.258 1.963 3.632h2.045l-2.004-7.229h3.466l2.022 7.229h1.918c-2.19-2.953-1.295-7.375 3.952-7.381 0.855 0 1.57 0.056 2.363 0.237l0.836 2.783c-0.801-0.267-1.487-0.436-2.366-0.436-3.283 0-2.836 3.17-1.009 4.315 0.554 0.336 1.109 0.52 1.926 0.52 0.791 0 1.496-0.242 2.287-0.776l1.044 3.03c-0.8 0.271-1.738 0.521-2.533 0.48-0.04 1e-3 -0.08 3e-3 -0.118 3e-3 -1.578 7e-3 -2.886-0.282-4.126-0.902-0.431-0.213-0.822-0.466-1.175-0.749l0.419 1.5h-8.936l-0.404-1.412c-0.222 0.338-0.541 0.632-0.976 0.86-0.945 0.512-2.202 0.574-3.185 0.574-1.128 0-3.315 5e-3 -3.315 5e-3l-2.097-7.533-0.018-0.059v2e-3l-0.681-2.29h3.523zm1.309 4.758s0.335 1e-3 0.582 1e-3c0.736 0 1.118-0.453 0.971-1.092-0.127-0.553-0.617-1.179-1.717-1.179-0.172 0-0.337 5e-3 -0.453 0.013z" fill="#fff"/>
    </g>
    <g transform="translate(358.79 773.3)">
     <path d="m0 0 0.417 0.461 1.115 1.174c0.877 0.912 1.487 1.711 1.814 2.372 0.323 0.657 0.487 1.276 0.487 1.84 0 0.466-0.133 0.934-0.395 1.388-0.262 0.453-0.584 0.729-1.02 0.97-0.438 0.241-1.21 0.369-1.786 0.369-0.933 0-1.879-0.23-2.472-0.813-0.549-0.543-0.868-1.289-0.948-2.215l1.693-0.03c0.042 0.473 0.194 0.86 0.456 1.154 0.297 0.331 0.79 0.495 1.235 0.495 0.437 0 0.826-0.133 1.107-0.409 0.279-0.276 0.423-0.629 0.423-1.049 0-0.391-0.13-0.831-0.385-1.305-0.254-0.472-0.746-1.076-1.506-1.844l-3.026-3.086-0.135-0.672h6.759v1.207l-3.502-7e-3z" fill="#fff"/>
    </g>
    <path d="m352.36 771.52h0.401v10.662h-0.401z" fill="#fff"/>
   </g>
  </g>
 </g>
</svg>
