<svg width="831.46" height="180" version="1.1" viewBox="0 0 219.97 47.624" xmlns="http://www.w3.org/2000/svg">
 <g transform="matrix(1.8 0 0 1.8 -.0028403 0)">
  <g fill="#d8d8d8">
   <path d="m10.593 18.641c0.45909 0.04219 0.83132 0.07196 1.4567 0.08189 4.1541 0.08685 7.0079-0.69732 9.544-2.2334 2.9406-1.7545 5.1021-5.6033 4.8713-9.013h5.0748l-4.973 17.939h8.6011l5.0177-17.939h4.7596c-5.4346 7.328-3.2136 18.301 9.8071 18.316 2.1217 0 3.896-0.13897 5.8639-0.58813l2.0746-6.9062c-1.9877 0.66258-3.6901 1.082-5.8714 1.082-8.1469 0-7.0377-7.8665-2.5039-10.708 1.3748-0.8338 2.752-1.2904 4.7795-1.2904 1.9629 0 3.7124 0.60054 5.6753 1.9257l2.5907-7.5191c-1.9852-0.6725-4.3129-1.2929-6.2858-1.1911-0.09926-0.0025-0.19852-0.0074-0.29282-0.0074-3.9159-0.01737-7.1618 0.6998-10.239 2.2384-1.0696 0.52857-2.0398 1.1564-2.9158 1.8587l1.0398-3.7224h-22.175l-1.0025 3.504c-0.5509-0.83876-1.3425-1.5683-2.422-2.1341-2.3451-1.2706-5.4644-1.4244-7.9037-1.4244-2.7992 0-8.2263-0.01241-8.2263-0.01241l-5.2038 18.694-0.044668 0.14641v-5e-3l-1.6899 5.6828h8.7425zm3.2484-11.807s0.83132-0.0025 1.4443-0.0025c1.8264 0 2.7744 1.1241 2.4096 2.7099-0.31516 1.3723-1.5311 2.9258-4.2608 2.9258-0.42683 0-0.83628-0.01241-1.1241-0.03226z"/>
   <path d="m87.733 22.034 0.96353-0.9987 2.5763-2.5433c2.0264-1.9757 3.4359-3.7066 4.1915-5.1386 0.74633-1.4233 1.1253-2.7643 1.1253-3.9861 0-1.0095-0.30732-2.0234-0.9127-3.0069-0.60539-0.98132-1.3494-1.5793-2.3569-2.1014-1.012-0.52209-2.7959-0.79939-4.1268-0.79939-2.1558 0-4.3416 0.49827-5.7119 1.7613-1.2686 1.1763-2.0056 2.7924-2.1905 4.7985l3.9119 0.06499c0.09705-1.0247 0.44826-1.863 1.0537-2.5 0.68626-0.71706 1.8254-1.0724 2.8536-1.0724 1.0097 0 1.9086 0.28813 2.5579 0.88608 0.64466 0.59792 0.9774 1.3626 0.9774 2.2725 0 0.84705-0.30038 1.8003-0.8896 2.8271-0.58691 1.0225-1.7237 2.331-3.4798 3.9948l-6.992 6.6854-0.31194 1.4558h15.618v-2.6148l-8.0918 0.01516z" stroke-width=".90159"/>
   <path d="m71.748 26.458h0.9951v-26.458h-0.9951z"/>
   <path d="m102.09 20.554v-6.4604h7.3917v6.4604h1.232v-14.168h-1.232v6.599h-7.3917v-6.599h-1.232v14.168z" stroke-width=".92756"/>
   <path d="m112.63 6.4125v14.141h4.0798c3.287 0 5.5045-2.4508 5.5045-6.2108v-1.83c0-3.4163-1.9752-6.0999-5.7928-6.0999zm1.2227 1.1091h2.6162c2.5923 0 4.4872 1.7924 4.4872 4.769v2.2736c0 2.7556-1.6564 4.8799-4.5035 4.8799h-2.5426z" stroke-width=".92756"/>
  </g>
 </g>
</svg>
