<svg viewBox="0 0 800 195.67" xmlns="http://www.w3.org/2000/svg">
    <path d="M260.89 130.453h-65.222V65.231h65.223z" fill="#e32225"/>
    <path d="M260.89 195.676h65.223v-65.223h-65.222z" fill="#fff"/>
    <path d="M130.446.007V65.23H.002v130.444h65.222v-65.222h65.222v65.222h65.222V.007zM456.563.007V65.23H326.12v130.444h65.222v-65.222h65.222v65.222h65.222v-65.222h65.222v65.222h65.222V65.23H521.785V.007zM669.531 195.676h130.445V65.23H669.53zm82.533-117.88h37.508v107.788h-15.045V92.84h-22.463zm-32.109 0h29.88V92.84h-7.415v92.743h-15.045V92.84h-7.419zm-40.016 0h37.3V92.84h-22.255v92.743h-15.045z" fill="#6d6f71"/>
</svg>
