<svg viewBox="0 0 800 195.67" xmlns="http://www.w3.org/2000/svg">
    <path d="M260.89 130.453h-65.222V65.231h65.223z" fill="#e32225"/>
    <path d="M260.89 195.676h65.223v-65.223h-65.222z" fill="#fff"/>
    <path d="M130.446.007V65.23H.002v130.444h65.222v-65.222h65.222v65.222h65.222V.007zM456.563.007V65.23H326.12v130.444h65.222v-65.222h65.222v65.222h65.222v-65.222h65.222v65.222h65.222V65.23H521.785V.007zM722.703 87.796v-7.523h-7.418v-7.52h-7.419v-7.522h-16.074v7.522h-7.418v7.52h-7.419v7.523h29.675v7.522h-7.42v7.52h-7.418v7.523h-7.418v7.522h-7.419v7.52h-7.419v7.522h23.493v-7.522h7.418v-7.52h7.419v-7.522h7.419v-7.523h7.418v-7.52h7.419v-7.522zM761.649 65.23v7.52h-7.419v7.523h-7.416v7.523h-7.42v7.52h7.42v7.522h7.416v7.523h7.419v7.52h7.421v7.522h7.416v7.523h23.492v-7.523h-7.418v-7.522h-7.419v-7.52h-7.418v-7.523h-7.419v-7.522h-7.419v-7.52h29.675v-7.523h-7.419v-7.522h-7.418v-7.52zM688.17 171.341h-18.632v6.212h18.633zM781.342 165.13h12.421v-6.212h-12.421zM737.863 158.92v18.633h9.644v-2.826h2.777V158.92z" fill="#6d6f71"/>
    <path d="M669.531 140.799v11.909h24.848v6.212h-18.636v6.212h18.636v18.633H669.53v11.909h130.444v-24.33h-18.633v12.42h-6.214v-31.056h24.847v-11.91zm93.176 11.909h6.209v31.057h-6.21zm-31.06 0h24.85v26.576h-4.483v4.48h-20.367zm-12.421 12.424v-12.424h6.212v31.057h-6.212v-12.422H706.8v12.422h-6.21v-31.057h6.21v12.424z" fill="#6d6f71"/>
</svg>
