<svg version="1.1" viewBox="0 0 800 193.78" xml:space="preserve" xmlns="http://www.w3.org/2000/svg"><g transform="matrix(1.3333 0 0 -1.3333 181.52 149.47)"><g transform="matrix(1.0257 0 0 1.0257 546.53 -59.337)" fill="#cd2028"><path d="m-156.02 25.707c-0.8128 0.31245-1.7094 1.1517-2.1393 2.0026-0.17396 0.34429-2.9191 8.3705-6.1003 17.836l-5.784 17.21v1.1696c0 1.0506 0.0349 1.2224 0.34301 1.688 0.45941 0.69421 1.1065 0.98931 2.2997 1.0487 1.2659 0.06301 2.2274-0.27755 2.9068-1.0296 0.46699-0.5169 0.47581-0.54575 0.40231-1.3159l-0.0752-0.78736 4.8232-11.826 1.9191 1.9813c4.7218 4.8748 7.0968 8.3687 8.4449 12.423 0.71522 2.1512 0.93208 3.4829 1.0077 6.1879 0.0576 2.0617 0.0342 2.4498-0.21 3.4807-0.86824 3.6652-2.5473 5.7498-5.2001 6.456-1.0098 0.26881-3.0477 0.23072-4.3501-0.08131-5.7527-1.3783-12.207-8.3007-17.383-18.644-2.8867-5.7683-4.7877-11.752-4.7895-15.076l-5.1e-4 -0.91735 0.76023-0.27719c1.7876-0.65178 2.1801-2.059 0.96899-3.4739-0.98142-1.1466-2.5054-1.4751-3.4612-0.74613-2.3063 1.7591-1.9938 6.8154 0.92103 14.905 4.3357 12.032 11.757 22.824 18.836 27.39 3.357 2.1654 6.8524 3.0561 9.4342 2.4043 4.2617-1.076 7.4792-4.5344 8.7016-9.3532 0.40546-1.5984 0.4957-3.1069 0.3344-5.5907-0.35092-5.4043-1.6581-9.366-4.3184-13.088-1.7132-2.3968-3.2752-3.991-7.8771-8.0391-1.1344-0.99795-2.2188-1.9809-2.4097-2.1844l-0.34707-0.36994 1.0729-4.3831c0.59011-2.4107 1.5482-6.332 2.1291-8.7141l1.0562-4.331 0.73178-0.29921c1.8754-0.76679 2.7483-1.6348 2.8306-2.8147 0.0443-0.63428 4e-3 -0.79875-0.31536-1.2699-1.0404-1.5377-3.3906-2.2531-5.1633-1.5716z" style="paint-order:markers stroke fill"/><path transform="matrix(.75 0 0 -.75 0 79.125)" d="m-170.85 31.664c-1.8332-0.52492-4.2121-1.9282-6.9155-4.0794-6.7006-5.3319-10.576-13.981-12.925-28.842-1.1231-7.107-2.1246-18.731-2.2138-25.697-0.0307-2.3962-4e-3 -2.6363 0.37129-3.3994 1.3942-2.8314 5.0928-2.3187 7.6309 1.0577 1.7342 2.3069 4.6322 8.6839 6.4932 14.288 2.2986 6.9216 3.8013 13.901 5.2362 24.318 0.81513 5.9182 0.78775 7.1706-0.18199 8.323-0.60377 0.71753-1.4382 0.96299-2.4272 0.71396-0.43023-0.10833-0.81165-0.16755-0.84761-0.1316-0.12866 0.12867 2.9824 4.7008 4.0132 5.8978 0.5782 0.67149 1.4188 1.4643 1.8679 1.7618 4.0326 2.671 5.6076-3.8579 6.258-25.941 0.10144-3.4441 0.25789-6.8673 0.34766-7.6069 0.34985-2.8827 1.6784-4.5736 3.82-4.8619 1.1652-0.15684 2.5908 0.46835 3.7391 1.6397 1.7697 1.8053 2.6286 4.249 2.9298 8.3356 0.35224 4.7792 1.0849 7.9918 2.0814 9.1268 0.44089 0.50214 0.63862 0.59753 1.2374 0.59699 1.8948-0.00172 2.771-1.7459 3.1943-6.3591 0.10421-1.1355 0.18166-6.5535 0.182-12.732 5.2e-4 -9.5716 0.032-10.848 0.28632-11.602 0.52528-1.5573 1.2548-2.4544 2.5504-3.1362 0.7031-0.37005 1.0939-0.45311 2.1486-0.45663 1.113-0.0037 1.4152 0.06554 2.2122 0.50692 0.50769 0.28117 1.1144 0.76204 1.3482 1.0686 0.23383 0.30656 0.9526 1.9893 1.5973 3.7393 2.3806 6.4625 4.1292 9.3307 5.3048 8.7015 0.73916-0.39559 1.3402-2.736 1.7468-6.8015 0.2325-2.3249 0.42934-19.164 0.25862-22.124l-0.12418-2.1529-0.76802-0.92461c-1.5219-1.8322-1.5569-2.3886-0.19514-3.1014 1.0661-0.55802 2.3908-0.50829 4.4329 0.1664 5.5034 1.8183 11.573 6.7373 13.933 11.292 0.79839 1.5407 1.3904 1.1443 1.9552-1.3091 0.49747-2.1612 0.65988-4.8641 0.55481-9.2329-0.0561-2.3321-0.16518-4.5883-0.24242-5.0137-0.16343-0.90019-0.0479-1.7464 0.25208-1.8462 0.29791-0.0991 0.85633 0.884 1.244 2.19 1.4124 4.7586 1.3152 16.057-0.16801 19.517-0.20465 0.47742-0.53432 0.89103-0.85456 1.0721-0.49735 0.28126-0.51543 0.33048-0.39258 1.0683 0.0708 0.42542 0.11914 1.779 0.10735 3.008-0.018 1.8813-0.094 2.4781-0.48031 3.7753-0.67972 2.2823-2.0684 4.3133-3.5564 5.2012-0.26176 0.1562-0.53243 0.5351-0.64092 0.89722-0.28937 0.96581-1.2817 1.9934-2.508 2.5971-1.4137 0.69596-2.9742 0.75627-4.3414 0.16778-1.0525-0.45306-2.3256-1.7344-2.7787-2.7966-0.44287-1.0383-0.77704-2.5402-0.59973-2.6955 0.0822-0.07195 0.68936-0.27249 1.3493-0.44565 1.6219-0.42555 3.654-1.4689 4.7097-2.418 0.55236-0.49662 1.0724-1.1942 1.4264-1.9131 0.4764-0.96771 0.567-1.3592 0.62581-2.7037 0.0828-1.8928-0.20673-3.1942-1.1492-5.1663-1.539-3.2202-4.8127-6.531-7.613-7.6995-0.60572-0.25274-0.63219-0.24878-0.72817 0.10901-0.0548 0.20421-0.10219 3.0011-0.10537 6.2154-7e-3 6.8357-0.25958 16.47-0.52019 19.821-0.24751 3.1834-0.61906 5.7015-1.0697 7.25-0.31224 1.0728-0.51991 1.4374-1.2398 2.1761-1.0547 1.0824-1.899 1.3744-3.0993 1.0722-2.325-0.58544-4.9238-3.2704-9.3826-9.6936-1.396-2.011-1.8019-2.493-1.8448-2.1907-0.0303 0.21319 0.0664 2.9977 0.21491 6.1879 0.42189 9.0646 0.31976 13.184-0.41016 16.543-0.83814 3.8573-2.8148 5.9076-5.9153 6.1358-3.7027 0.2725-7.1879-2.8021-8.9266-7.8751l-0.54937-1.6028-0.11302 4.0031c-0.26614 9.4264-1.3751 15.481-3.6412 19.879-0.94613 1.8364-2.5897 3.5041-3.9579 4.016-1.1295 0.4226-2.9835 0.47288-4.234 0.11482zm-9.1468-22.954c0.38635-0.72054 0.0123-5.8743-0.92306-12.718-1.1668-8.5372-3.6647-20.128-4.9787-20.128-1.9874 0.37812 0.7221 19.335 2.324 26.331 1.1718 5.0564 1.3538 5.6147 2.0789 6.3768 0.72674 0.76396 1.1427 0.80221 1.4989 0.13785z" style="paint-order:markers stroke fill"/></g><path d="m57.012 15.526h-48.287v48.287h48.287z" fill="#e32225"/><path d="m57.012-32.761h48.287v48.287h-48.287z"/><g transform="matrix(1.8308 0 0 1.8308 -39.562 112.1)"><path d="m0 0v-26.375h-52.75v-52.75h26.375v26.375h26.375v-26.375h26.375v79.125z" fill="#6d6f71"/></g><g transform="matrix(1.8308 0 0 1.8308 201.87 112.1)"><path d="m0 0v-26.375h-52.75v-52.75h26.375v26.375h26.375v-26.375h26.375v26.375h26.375v-26.375h26.375v52.75h-52.75v26.375z" fill="#6d6f71" Googl="true"/></g></g></svg>
