<svg viewBox="0 0 800 181.65" xmlns="http://www.w3.org/2000/svg">
    <defs>
        <clipPath id="a">
            <path d="M0 79.125h348.47V0H0z"/>
        </clipPath>
    </defs>
    <path d="M242.203 121.106h-60.55v-60.55h60.55z" fill="#e32225"/>
    <path d="M242.203 181.655h60.549v-60.55h-60.55z" fill="#fff"/>
    <path d="M121.104.01V60.56H.008v121.097h60.548v-60.549h60.548v60.549h60.549V.01zM423.844.01V60.56H302.747v121.097h60.548v-60.549h60.549v60.549h60.548v-60.549h60.549v60.549h60.548V60.559H484.392V.01zM765.488 154.653v10.952h-11.203v-10.952H748.9v27.001h5.385v-11.237h11.203v11.237h5.386v-27.001z" fill="#6d6f71"/>
    <g clip-path="url(#a)" transform="matrix(2.2957 0 0 -2.2957 0 181.655)">
        <path d="M342.71 2.002c2.408 0 3.315 2.064 3.315 3.895 0 1.97-.844 3.863-3.503 3.863h-1.798V2.002zm-4.333 9.76h4.427c3.565 0 5.661-2.096 5.661-5.881 0-3.754-2.596-5.881-5.599-5.881h-4.489zM284.07 31.969v8.614s16.458 2.667 20.791 12.167h-33.854V0h29.813v32zM316.49 0h7.271v52.75h-7.271z" fill="#6d6f71"/>
    </g>
</svg>
