<?xml version="1.0" encoding="UTF-8" standalone="no"?>
<svg xmlns="http://www.w3.org/2000/svg" height="160.93" viewBox="0 0 600 160.93165" width="600" version="1.1" xmlns:xlink="http://www.w3.org/1999/xlink">
 <rect height="160.93" width="600" y="0" x="0" stroke-width="1.4291" fill="#af1917"/>
 <g stroke-width="1.4291" fill="#fff">
  <path d="m244.14 137.19v-113.68h24.06v113.68h-24.06z"/>
  <path d="m291.01 137.19v-113.68h22.19l39.52 72.292v-72.294h21.71v113.68h-21.86l-39.84-71.283v71.283h-21.72z"/>
  <path d="m397.25 137.19v-113.68h67.95v22.126h-43.89v23.141h39.52v22.127h-39.52v46.286h-24.06z"/>
  <path d="m524.89 139.55c-7.4 0-13.99-0.98-19.77-2.95s-10.7-5.27-14.76-9.88c-4.06-4.62-7.16-10.7-9.3-18.25-2.13-7.54-3.2-16.941-3.2-28.202 0-16.216 2.4-28.824 7.19-37.838 4.79-9.008 10.86-14.805 18.2-17.398 7.35-2.589 14.55-3.886 21.64-3.886 11.45 0 20.78 2.339 27.96 7.009 7.19 4.675 12.16 11.74 14.92 21.198 2.76 9.46 4.14 19.764 4.14 30.911 0 11.262-1.04 20.666-3.13 28.206-2.08 7.55-5.13 13.63-9.14 18.24-4.01 4.62-8.93 7.92-14.76 9.88-5.83 1.98-12.49 2.96-19.99 2.96zm0-21.28c6.03 0 10.64-1.46 13.82-4.39s5.28-7.4 6.33-13.43c1.04-6.023 1.56-12.754 1.56-20.188 0-10.921-0.91-19.141-2.73-24.66-1.82-5.516-4.48-9.093-7.97-10.728-3.49-1.63-7.16-2.448-11.01-2.448-6.15 0-10.81 1.494-13.99 4.477-3.17 2.986-5.26 7.433-6.24 13.345-0.99 5.912-1.49 12.583-1.49 20.014 0 7.434 0.42 13.572 1.25 18.412 0.84 4.846 2.12 8.726 3.83 11.656 1.72 2.93 3.96 4.98 6.72 6.16 2.76 1.19 6.06 1.78 9.92 1.78z"/>
  <rect height="140.25" width="213.13" y="10.637" x="9.8491"/>
 </g>
 <g stroke-width="1.4291" fill="#af1917">
  <path d="m56.122 80.89-0.617 4.575v2.616c0 0.653 0 1.952 0.617 3.266l12.262 23.523c0.611 1.97 1.838 2.62 4.293 2.62h11.642c1.228 0 3.067-0.65 1.228-3.27l-15.328-26.139c4.904-3.269 11.034-7.849 11.034-18.954 0-13.725-6.74-20.917-23.296-20.917h-23.291c-1.839 0-2.455 0.656-2.455 3.266v64.044c0 2.62 0.616 3.26 3.064 3.26h9.198c2.452 0 3.065-0.64 3.065-3.26v-54.239h9.195c6.132 0 9.194 2.613 9.194 8.499 0 5.882-2.446 7.182-4.903 8.499-3.065-0.658-4.291-1.968-4.902 2.611"/>
  <path d="m105.78 114.22c0 2.62 0.61 3.27 3.06 3.27h9.2c1.84 0 3.06-0.65 3.06-3.27v-53.593h17.78c1.84 0 2.45-0.65 2.45-2.611v-7.191c0-2.61-0.61-3.269-2.45-3.269h-50.266c-2.455 0-3.066 0.658-3.066 3.269v6.533c0 2.616 0.612 2.616 3.066 2.616h17.166z"/>
  <path d="m146.85 105.72-1.22 7.85c0 1.3 0.61 2.6 1.83 2.6 3.07 0 10.43 0.67 17.79 0.67 15.93 0 28.19-5.89 28.19-22.227 0-9.15-4.28-16.995-17.16-20.266l-7.36-1.953c-5.51-1.312-7.35-3.269-7.35-7.19 0-5.23 4.91-6.535 9.81-6.535 6.13 0 12.87 0.653 15.32 0.653 2.46 0.649 3.07 0 3.68-2.619l1.23-7.836c0-1.315-0.62-2.618-1.84-2.618-3.07 0-9.2-0.65-17.78-0.65-17.17 0-25.14 7.834-25.14 20.255 0 11.762 6.13 18.297 15.33 20.257l7.36 1.964c6.13 1.3 9.19 3.267 9.19 7.835 0 5.89-4.29 7.19-13.49 7.19-4.29 0-12.26-0.65-14.71-0.65-3.07 0.65-3.07 0.65-3.68 3.27"/>
 </g>
</svg>
