<svg width="730.885" height="99.999" viewBox="0 0 193.38 26.458" xmlns="http://www.w3.org/2000/svg">
    <path d="M12.358 18.929c.5.045.065.072.744.086 4.52.09 8.842-.114 11.599-1.706 3.201-1.82 4.632-4.67 4.38-8.202h5.221l-4.426 16.848H40l4.692-16.848h4.187c-2.826 10.25.806 17.376 11.889 17.351 2.306 0 5.16-.151 7.245-.875l1.975-8.962c-3.269 1.152-7 1.354-7.922 1.218-3.646-.67-5.068-5.1.164-8.343 2.638-1.225 6.874-.33 9.091 1.095l2.11-8.958C71.273.933 68.568.122 66.42.225c-.108-.002-.216-.009-.318-.009-4.233-.002-10.35 1.167-14.276 6.156L52.982.604H28.87L27.718 4.52C26.169 1.233 21.488.58 18.32.548 15.27.548 6.934.534 6.934.534L1.88 19.916l-.044.15v-.002L0 25.956h10.648zm3.474-12.261l2.886-.002c3.316.079 1.685 6.317-1.03 6.246-.465 0-3.11-.05-3.423-.072zM103.86 5.736C101.496 2.004 97.022-.024 92.635 0 86.519.033 79.299 4.31 79.297 13.27c-.002 8.002 5.893 13.128 13.538 13.092 5.418-.025 8.609-2.352 11.024-5.313l-2.572-1.933c-1.9 2.235-4.238 4.073-8.253 4.144-4.895.087-10.378-4.423-10.413-9.99-.032-5.282 4.123-9.767 10.014-9.92 3.506-.09 6.392 1.52 8.673 4.304zM115.52 25.57c4.839 0 7.694-3.686 7.632-7.23-.062-3.513-2.12-5.088-4.556-6.295 1.64-1.256 2.514-2.666 2.514-4.69 0-4.002-2.504-6.59-7.073-6.59h-6.18V25.57zm-1.371-11.504c2.218 0 5.652 1.638 5.652 4.108 0 2.425-1.92 4.369-5.464 4.369h-3.4v-8.477zm-.344-10.129c2.575 0 4.147 1.194 4.097 3.364-.003 2.157-1.92 3.725-6.964 3.582V3.937zM127.19.715v24.931h14.714v-3.082h-11.49v-8.671h11.49v-3.207h-11.49v-6.74h11.49V.715zM159.62 3.964V.748h-14.71v3.216h5.675v21.71h3.37V3.964zM169.98 20.557v-6.46h8.591v6.46h1.432V6.388h-1.432v6.599h-8.591V6.388h-1.432v14.169zM182.24 6.414v14.141h4.742c3.82 0 6.398-2.45 6.398-6.21v-1.83c0-3.417-2.296-6.1-6.733-6.1zm1.421 1.11h3.04c3.014 0 5.216 1.792 5.216 4.768v2.274c0 2.756-1.925 4.88-5.234 4.88h-2.955z"/>
</svg>
