<svg width="200mm" height="25.922mm" version="1.1" viewBox="0 0 200 25.922" xmlns="http://www.w3.org/2000/svg">
 <g transform="translate(393.57 -543.48)" fill="#d8d8d8">
  <path d="m-286.23 569h-5.6706l-5.9055-9.63q-1.3086 0.30198-2.5501 0.30198v9.328h-4.966v-9.328q-1.2415 0-2.5501-0.30198l-5.9055 9.63h-5.6706v-0.73819l7.2141-10.872q-1.6441-1.577-2.8185-6.3417-0.70464-2.5166-3.5567-2.0804v-3.389q6.8115-1.4428 8.0194 4.1271 0.83885 4.0265 2.483 4.9324 0.8724 0.53687 2.785 0.53687v-9.6636h4.966v9.6636q1.9461 0 2.8185-0.53687 0.70464-0.40265 1.2415-1.3757 0.57042-0.97307 0.77174-1.6777 0.20133-0.73819 0.46976-1.879 1.1744-5.57 7.9859-4.1271v3.389q-2.8185-0.4362-3.5567 2.0804-0.63753 2.4159-1.2415 3.8923-0.57042 1.4764-1.5435 2.4494l7.1806 10.872z"/>
  <path d="m-268.1 555.58-13.287 13.489h-1.5099v-23.555h5.0331v13.321l13.187-13.422h1.577v23.588h-4.9996z"/>
  <path d="m-240.28 552.49q0 1.3086-0.63752 2.483-0.60398 1.1744-1.7113 1.8455 3.3554 1.4093 3.3554 5.2344 0 3.1541-1.9797 5.0667-1.9797 1.879-5.4693 1.879h-10.905v-23.454h9.9655q3.2883 0 5.3351 1.879 2.0468 1.8455 2.0468 5.0667zm-7.751-2.6508h-4.5969v5.3351h4.5969q1.275 0 2.0132-0.67108 0.77174-0.67108 0.80529-1.8455 0.0336-1.2751-0.73819-2.0468-0.77174-0.77174-2.0803-0.77174zm0.73818 9.4287h-5.3351v5.3686h5.57q1.275 0 2.0132-0.67108 0.73819-0.70464 0.8053-1.9126 0.0671-1.5435-1.0402-2.3152-0.67108-0.46975-2.0132-0.46975z"/>
  <path d="m-212.44 557.25q0 5.3686-3.3554 8.7576t-8.6905 3.389q-4.9996 0-8.4892-3.2212-3.4561-3.2547-3.4561-8.9254 0-3.7916 1.7113-6.6102 1.7448-2.8185 4.4291-4.1607 2.7179-1.3422 5.9055-1.3422 2.3488 0 4.4627 0.80529 2.1139 0.8053 3.7916 2.2817 1.7113 1.4764 2.6843 3.8252 1.0066 2.3488 1.0066 5.2009zm-18.924 0q0 3.6574 1.9797 5.6035t4.966 1.9461q2.9528 0 4.966-1.9461t2.0132-5.6035q0-3.5567-2.0132-5.5029-2.0132-1.9797-4.9324-1.9797-2.9528 0-4.966 1.9797-2.0132 1.9461-2.0132 5.5029z"/>
  <path d="m-204.68 549.87h-6.2746v-4.362h17.381v4.362h-6.241v19.126h-4.8653z"/>
  <path d="m-381.67 561.51c0.48168 0.0431 0.063 0.0698 0.71655 0.0832 4.3545 0.0857 8.5181-0.11068 11.174-1.6437 3.0842-1.7533 4.4623-4.4993 4.22-7.9012l5.0294 1e-4 -4.264 16.23h9.752l4.52-16.23h4.033c-2.7222 9.8733 0.77655 16.739 11.453 16.715 2.2224 0 4.9705-0.14597 6.9798-0.84354l1.903-8.634c-3.1492 1.11-6.7434 1.3046-7.6323 1.1738-3.5119-0.64484-4.8823-4.9134 0.15792-8.0373 2.5413-1.1805 6.6227-0.31774 8.7586 1.0544l2.0322-8.6293c-2.0787-0.67395-4.6848-1.4558-6.7523-1.3564-0.10422-2e-3 -0.20843-9e-3 -0.30701-9e-3 -4.0775-2e-3 -9.9692 1.1239-13.752 5.9296l1.1132-5.5564h-23.229l-1.1091 3.774c-1.492-3.168-6.0023-3.7978-9.0534-3.8277-2.9378 0-10.969-0.0138-10.969-0.0138l-4.8684 18.671-0.0423 0.14497v-2e-3l-1.7688 5.6761h10.258zm3.3469-11.811s2.1431-2e-3 2.7796-2e-3c3.1944 0.0761 1.6239 6.0861-0.99198 6.0172-0.44785 0-2.9962-0.0477-3.2976-0.0693z" stroke-width="2.75" Googl="true"/>
 </g>
</svg>
