<svg enable-background="new 0 0 96 148" version="1.1" viewBox="0 0 96 148" xml:space="preserve" xmlns="http://www.w3.org/2000/svg"><g fill="#fff"><path d="m27.8 0.2c0.8-0.4 1.7-0.1 2.5 0.1 20.9 4.8 41.8 9.6 62.7 14.4 1.4 0.3 2.5 1.6 2.5 3.1v39.9c0.1 1.5-1.2 2.8-2.6 2.9-2.7 0.3-5.4 0.6-8.2 0.9-1.3 0.2-2.5-1-2.3-2.3 0-11.3 0.1-22.6 0.1-34 0.1-1.5-1.1-3-2.7-3.2-16.6-3.4-33.4-7-50.2-10.6-1.5-0.3-2.6-1.8-2.6-3.3 0-2.1-0.1-4.1-0.1-6.2 0-0.6 0.3-1.4 0.9-1.7z"/><path d="m2.4 6.4c0.7-0.3 1.4-0.2 2.1 0 6.7 1.3 13.4 2.6 20.1 3.9 1.2 0.2 2.2 1.1 2.5 2.3 0.3 1.6-0.1 3.4 0.5 5 0.4 1 1.3 1.8 2.4 2 14.4 2.9 28.8 5.8 43.1 8.7 1.5 0.2 2.6 1.7 2.5 3.2-0.1 9.4-0.2 18.7-0.3 28.1 0 1.4-1.2 2.6-2.6 2.6l-43.2 2.7c-1.3 0.1-2.5-1-2.4-2.2 0.1-13.8 0.2-27.6 0.2-41.4 0-1.4-1.1-2.7-2.5-2.9-3-0.6-6-1.2-9-1.7-0.9-0.2-2 0.4-2.2 1.3-0.2 0.7-0.1 1.4-0.1 2-0.1 17.2-0.2 34.5-0.3 51.7-0.1 1.3 1.1 2.5 2.4 2.4 19-1.6 38.1-3.2 57.1-4.7 0.8-0.1 1.7-0.1 2.2-0.8 1-1.8-0.4-4.1 0.9-5.7 0.9-1.1 2.5-0.8 3.8-0.9 1.4-0.2 2.8 0.9 2.8 2.3 0.1 3.5 0.2 7 0.3 10.6 0.1 1.3-0.8 2.5-2 2.9-0.6 0.2-1.2 0.2-1.8 0.3-24.3 2.5-48.7 5.2-73 7.9-1.5 0.2-3-0.2-4.1-1.3-0.9-0.9-1.4-2.3-1.4-3.6 0.3-24.2 0.6-48.5 0.9-72.8 0-0.7 0.4-1.6 1.1-1.9z"/><path d="m33.8 95.8c-0.1-1 0.9-1.8 1.9-1.8h6.7c0.9 0 1.8 0.8 1.7 1.8v9.4h4.9c0.9 0 1.5 0.9 1.7 1.7 0.6 1.7 1.2 3.5 1.8 5.2 0.4 1-0.5 2.3-1.6 2.2h-6.8v20.8c-0.1 1.3 0.5 2.6 1.7 3.2 2.1 0.9 4.4 0.2 6.6 0.5 0.4 0.1 0.9 0.4 1 0.9 0.8 2.2 1.7 4.3 2.5 6.4 0.4 1-0.9 1.7-1.7 1.7h-9.3c-3.1-0.2-6.6-0.7-8.9-3-2.2-2.2-2.6-5.5-2.7-8.5v-22.1h-4.8c-0.9 0-1.6-0.9-1.6-1.8v-5.4c-0.1-0.9 0.7-1.9 1.7-1.9h5.3c-0.1-3-0.1-6.2-0.1-9.3z"/><path d="m0 107.1c-0.1-1 0.8-1.9 1.8-1.9h7.9c0.8 0 1.7 0.4 2 1.2 0.2 0.8 0.1 1.7 0 2.6 0.2 0.2 0.4 0 0.4-0.3 0.8-1.1 2-1.7 3.2-2.2 2.3-0.9 4.8-1.1 7.2-1.3 0.8-0.1 1.9 0.5 1.9 1.4v5.9c0.1 0.9-0.8 1.8-1.7 1.8-2.1 0.1-4.3-0.2-6.3 0.7-2.9 1.1-4.9 4.2-4.9 7.3v23.9c0 1-1 1.7-2 1.6h-8c-1 0-1.9-0.8-1.8-1.8 0.3-13 0.3-25.9 0.3-38.9z"/><path d="m52.9 106.8c-0.4-0.7 0.3-1.6 1.1-1.6 2.7-0.1 5.5 0 8.2 0 1.2-0.1 2.4 0.6 2.7 1.8 2.1 5.5 4 11.1 6.1 16.6 1.3 3.4 2.5 6.8 3.8 10.1 3.2-8.9 6.3-17.7 9.5-26.6 0.4-1.2 1.6-1.9 2.8-1.9h7.4c0.8 0 1.5 0.9 1.1 1.7-4.7 12.9-9.5 25.8-14.2 38.7-0.3 1.2-1.4 2-2.6 2h-7.7c-1.2 0-2.6-0.5-3.1-1.7-4.9-13-10-26-15.1-39.1z"/></g></svg>
