<svg width="800.013" height="470.589" viewBox="0 0 211.67 124.51" xmlns="http://www.w3.org/2000/svg">
    <defs>
        <linearGradient id="a" x2=".786" gradientTransform="matrix(3.9063 -4.6554 -7.4794 -6.276 339.16 779.63)" gradientUnits="userSpaceOnUse">
            <stop stop-color="#064861" offset="0"/>
            <stop stop-color="#13becf" offset="1"/>
        </linearGradient>
        <linearGradient id="b" x2=".786" gradientTransform="matrix(8.2535 -1.4553 -1.5306 -8.6802 334.5 781.23)" gradientUnits="userSpaceOnUse">
            <stop stop-color="#064861" offset="0"/>
            <stop stop-color="#13becf" offset="1"/>
        </linearGradient>
        <linearGradient id="c" x1=".104" x2=".885" gradientTransform="matrix(0 4.8164 5.8711 0 333.76 773.53)" gradientUnits="userSpaceOnUse">
            <stop stop-color="#ffffef" offset="0"/>
            <stop stop-color="#dae0de" offset="1"/>
        </linearGradient>
        <linearGradient id="d" x1=".104" x2=".885" gradientTransform="matrix(0 4.6386 10.043 0 318.36 773.16)" gradientUnits="userSpaceOnUse">
            <stop stop-color="#ffffef" offset="0"/>
            <stop stop-color="#dae0de" offset="1"/>
        </linearGradient>
        <linearGradient id="e" x1=".104" x2=".885" gradientTransform="matrix(0 4.6386 9.9759 0 322.18 773.16)" gradientUnits="userSpaceOnUse">
            <stop stop-color="#ffffef" offset="0"/>
            <stop stop-color="#dae0de" offset="1"/>
        </linearGradient>
        <linearGradient id="f" x1=".104" x2=".885" gradientTransform="matrix(0 4.6386 10.165 0 326.07 773.16)" gradientUnits="userSpaceOnUse">
            <stop stop-color="#ffffef" offset="0"/>
            <stop stop-color="#dae0de" offset="1"/>
        </linearGradient>
        <linearGradient id="g" x2=".786" gradientTransform="matrix(-22.915 -62.958 120.5 -43.857 -27.975 181.66)" gradientUnits="userSpaceOnUse">
            <stop stop-color="#064861" offset="0"/>
            <stop stop-color="#13becf" offset="1"/>
        </linearGradient>
    </defs>
    <path d="M333.32 774.52s3.778-4.236 5.096-3.443c1.565.941-.781 7.266-.781 7.266z" fill="url(#a)" transform="matrix(10.29842 0 0 -10.29842 -3312.274 8064.092)"/>
    <path d="M333.32 774.52s8.724-.182 8.874 2.093c.079 1.216-4.559 1.73-4.559 1.73z" fill="url(#b)" transform="matrix(10.29842 0 0 -10.29842 -3312.274 8064.092)"/>
    <path d="M336.82 778.34l-1.059-.923.228-.545h.754v-3.348h.89v4.816z" fill="url(#c)" transform="matrix(10.29842 0 0 -10.29842 -3312.274 8064.092)"/>
    <path d="M321.64 777.8v-4.64h1.07v1.691h.925c.239 0 .452.041.636.125a1.415 1.415 0 0 1 .76.803c.062.177.097.357.097.548 0 .188-.026.37-.082.544a1.313 1.313 0 0 1-.254.47c-.118.14-.269.253-.454.333a1.579 1.579 0 0 1-.667.126zm1.07-.95h.787c.207 0 .352-.05.436-.153a.578.578 0 0 0 .125-.37.57.57 0 0 0-.128-.373c-.087-.103-.23-.155-.433-.155h-.787z" fill="url(#d)" transform="matrix(10.29842 0 0 -10.29842 -3312.274 8064.092)"/>
    <path d="M325.46 777.8v-.962h1.179v-3.678h1.07v3.678h1.172v.962z" fill="url(#e)" transform="matrix(10.29842 0 0 -10.29842 -3312.274 8064.092)"/>
    <path d="M329.35 777.8v-4.64h2.255c.22 0 .415.036.582.105.169.07.31.169.425.292.114.127.201.275.259.442.059.169.087.35.087.55a1.242 1.242 0 0 1-.365.846 1.12 1.12 0 0 1-.294.204.885.885 0 0 1 .249.174c.072.072.131.15.178.236.048.085.082.172.109.262a.97.97 0 0 1 .036.255c0 .171-.025.333-.074.486-.05.152-.13.288-.24.405-.11.116-.25.21-.419.278a1.667 1.667 0 0 1-.62.105zm1.069-.95h.808c.205 0 .342-.042.418-.124a.453.453 0 0 0 .114-.32.364.364 0 0 0-.123-.284c-.085-.074-.22-.113-.41-.113h-.807zm0-1.75h.855c.19 0 .326-.049.41-.149a.546.546 0 0 0 .123-.364.46.46 0 0 0-.135-.345c-.09-.089-.222-.132-.398-.132h-.855z" fill="url(#f)" transform="matrix(10.29842 0 0 -10.29842 -3312.274 8064.092)"/>
    <path d="M-8.619 174.62l44.436-39.37s17.733-44.272 6.23-48.175a8.828 8.828 0 0 0-2.935-.494C15.962 86.59-8.62 174.62-8.62 174.62" fill="url(#g)" transform="translate(128.89 -86.576)"/>
</svg>
