<svg width="264.58mm" height="241.57mm" version="1.1" viewBox="0 0 264.58 241.57" xmlns="http://www.w3.org/2000/svg">
 <defs>
  <linearGradient id="g" x2=".78571" gradientTransform="matrix(3.9063 -4.6554 -7.4794 -6.276 339.16 779.63)" gradientUnits="userSpaceOnUse">
   <stop stop-color="#064861" offset="0"/>
   <stop stop-color="#13becf" offset="1"/>
  </linearGradient>
  <linearGradient id="f" x2=".78571" gradientTransform="matrix(8.2535 -1.4553 -1.5306 -8.6802 334.5 781.23)" gradientUnits="userSpaceOnUse">
   <stop stop-color="#064861" offset="0"/>
   <stop stop-color="#13becf" offset="1"/>
  </linearGradient>
  <linearGradient id="e" x2=".78571" gradientTransform="matrix(-2.2251 6.1135 11.701 4.2587 331.44 773.84)" gradientUnits="userSpaceOnUse">
   <stop stop-color="#064861" offset="0"/>
   <stop stop-color="#13becf" offset="1"/>
  </linearGradient>
  <linearGradient id="d" x1=".1044" x2=".88462" gradientTransform="matrix(0 4.8164 5.8711 0 338.06 768.9)" gradientUnits="userSpaceOnUse">
   <stop stop-color="#221f1f" offset="0"/>
   <stop stop-color="#59595c" offset="1"/>
  </linearGradient>
  <linearGradient id="c" x1=".1044" x2=".88462" gradientTransform="matrix(0 2.8301 6.1274 0 324.67 778.24)" gradientUnits="userSpaceOnUse">
   <stop stop-color="#221f1f" offset="0"/>
   <stop stop-color="#59595c" offset="1"/>
  </linearGradient>
  <linearGradient id="b" x1=".1044" x2=".88462" gradientTransform="matrix(0 2.8301 6.0864 0 327 778.24)" gradientUnits="userSpaceOnUse">
   <stop stop-color="#221f1f" offset="0"/>
   <stop stop-color="#59595c" offset="1"/>
  </linearGradient>
  <linearGradient id="a" x1=".1044" x2=".88462" gradientTransform="matrix(0 2.8301 6.2017 0 329.37 778.24)" gradientUnits="userSpaceOnUse">
   <stop stop-color="#221f1f" offset="0"/>
   <stop stop-color="#59595c" offset="1"/>
  </linearGradient>
 </defs>
 <g transform="translate(-87.22 84.948)">
  <g transform="matrix(17.045 0 0 -17.045 -5480.7 13262)">
   <path d="m333.32 774.52s3.778-4.236 5.096-3.443c1.565 0.941-0.781 7.266-0.781 7.266z" fill="url(#g)"/>
   <path d="m333.32 774.52s8.724-0.182 8.874 2.093c0.079 1.216-4.559 1.73-4.559 1.73z" fill="url(#f)"/>
   <path d="m333.32 774.52 4.315 3.823s1.722 4.299 0.605 4.678c-0.094 0.033-0.19 0.048-0.285 0.048-2.248-1e-3 -4.635-8.549-4.635-8.549" fill="url(#e)"/>
   <path d="m341.12 773.71-1.059-0.923 0.498-0.635 0.484 0.405v-3.663h0.89v4.816z" fill="url(#d)"/>
   <path d="m326.67 781.07v-2.831h0.653v1.032h0.564c0.146 0 0.276 0.025 0.388 0.076 0.113 0.051 0.208 0.118 0.286 0.203s0.137 0.181 0.178 0.287c0.038 0.108 0.059 0.218 0.059 0.334 0 0.115-0.016 0.226-0.05 0.332-0.032 0.107-0.084 0.202-0.155 0.287-0.072 0.085-0.164 0.154-0.277 0.203-0.112 0.052-0.248 0.077-0.407 0.077zm0.653-0.58h0.48c0.126 0 0.215-0.03 0.266-0.093 0.05-0.063 0.076-0.138 0.076-0.226 0-0.089-0.027-0.165-0.078-0.227-0.053-0.063-0.14-0.095-0.264-0.095h-0.48z" fill="url(#c)"/>
   <path d="m329 781.07v-0.587h0.719v-2.244h0.653v2.244h0.715v0.587z" fill="url(#b)"/>
   <path d="m331.37 781.07v-2.831h1.376c0.134 0 0.253 0.022 0.355 0.064 0.103 0.043 0.189 0.103 0.259 0.178 0.07 0.078 0.123 0.168 0.158 0.27 0.036 0.103 0.053 0.214 0.053 0.335 0 0.052-8e-3 0.108-0.024 0.17s-0.041 0.122-0.074 0.181c-0.033 0.06-0.075 0.114-0.125 0.165-0.05 0.049-0.111 0.092-0.179 0.125 0.057 0.027 0.108 0.062 0.152 0.106s0.08 0.092 0.109 0.144 0.05 0.105 0.066 0.16c0.015 0.054 0.022 0.108 0.022 0.156 0 0.104-0.015 0.203-0.045 0.296s-0.079 0.176-0.146 0.247-0.153 0.128-0.256 0.17c-0.105 0.042-0.231 0.064-0.378 0.064zm0.652-0.58h0.493c0.125 0 0.209-0.025 0.255-0.075 0.047-0.051 0.07-0.116 0.07-0.195 0-0.071-0.025-0.13-0.075-0.174-0.052-0.045-0.134-0.069-0.25-0.069h-0.493zm0-1.067h0.522c0.116 0 0.199-0.03 0.25-0.091 0.05-0.06 0.075-0.133 0.075-0.222 0-0.087-0.027-0.158-0.082-0.211-0.055-0.054-0.136-0.08-0.243-0.08h-0.522z" fill="url(#a)"/>
  </g>
 </g>
</svg>
