<svg width="198.7mm" height="317.189" viewBox="0 0 198.7 83.923" xmlns="http://www.w3.org/2000/svg">
    <path d="M171.65 52.344c.88-2.067 1.666-4.88 1.504-5.39-.381-1.201-7.896-7.034-8.712-6.762-.146.049-.402 1.27-.569 2.714-.166 1.444-.389 3.114-.495 3.711l-.191 1.087 2.21 1.603c1.216.882 2.866 2.203 3.666 2.936.8.734 1.59 1.34 1.753 1.346.164.007.54-.554.834-1.245zm4.206 31.48c-.061-.106-.195-1.205-.297-2.442-.34-4.093-1.471-9.002-2.072-8.988-.177.004-1.87 1.311-3.762 2.905-1.892 1.594-3.71 2.974-4.04 3.065-.44.123-.733 0-1.1-.458a677.681 677.681 0 0 0-3.692-4.462c-1.756-2.11-3.196-4.031-3.2-4.27-.004-.239 1.154-1.365 2.573-2.503 3.014-2.416 5.198-4.43 5.948-5.484l.534-.75-1.025-1.07c-1.178-1.23-4.789-4.179-5.117-4.179-.12 0-.994 1.164-1.941 2.586-2.011 3.021-4.424 5.705-7.087 7.884l-1.9 1.554-1.413-1.58c-.778-.87-1.417-1.778-1.42-2.02-.004-.243.941-1.232 2.1-2.198 3.128-2.609 7.192-7.964 6.807-8.969-.197-.513-4.7-2.15-7.856-2.853-2.318-.518-3.522-.62-7.276-.62-5.205.002-7.311.356-12.039 2.027-4.434 1.566-4.091 1.677-5.442-1.764-.629-1.6-1.15-3.103-1.158-3.338-.018-.55 4.023-2.128 8.056-3.148 8.578-2.17 18.298-1.563 26.222 1.637 1.465.591 2.08.73 2.295.515.167-.167.34-1.634.404-3.412.088-2.474.034-3.183-.265-3.43-.603-.502-4.828-1.127-7.61-1.127-2.859 0-6.727.584-8.96 1.352-.81.278-1.547.415-1.64.305-.304-.365-6.346-16.067-6.346-16.495 0-.77 7.107-2.671 11.407-3.051 2.825-.25 2.937-.383 1.332-1.58-.748-.56-1.361-1.18-1.361-1.381 0-.618 2.167-3.491 2.633-3.491.642 0 3.886 2.359 6.147 4.47l1.962 1.833 2.5.428c1.375.235 3.632.736 5.014 1.112 4.435 1.208 4.368 1.241 2.315-1.156-1.938-2.263-3.565-3.654-7.363-6.294-1.807-1.257-3.365-2.425-3.462-2.597-.168-.3 6.418-10.014 6.901-10.178.298-.102 5.71 3.563 8.004 5.421 7.42 6.01 13.237 15.098 15.313 23.928.32 1.364.69 2.919.82 3.455.134.553.997 1.927 1.993 3.175 3.77 4.724 6.483 9.633 8.256 14.943 1.065 3.188 2.148 8.109 2.148 9.76 0 .816-.077.914-.728.925-.4.007-4.471.347-9.047.755l-8.32.742-.742.89c-.877 1.05-.9 1.28-.245 2.572 1.612 3.182 3.2 10.005 3.287 14.115l.052 2.475-1.984.184c-1.092.101-2.664.249-3.494.327-.83.079-1.559.056-1.62-.05z" fill="#9a9998"/>
    <g fill="#026bab" stroke-width=".265">
        <path d="M11.38 62.724c1.382-.715 1.382-2.715 0-3.43-1.068-.552-3.817-.434-3.817-.434v4.19s3.042.075 3.817-.326zm.684 8.512c1.073-1.247.71-2.764-.798-3.337-1.166-.444-3.703-.3-3.703-.3v4.505s1.054.021 2.054-.034c1.593-.09 1.895-.192 2.447-.834zM-.006 54.923h7.758c8.625.001 9.494.132 11.142 1.687.868.818 1.47 2.296 1.47 3.606 0 1.942-1.319 4.104-2.906 4.762-1.003.415-1 .51.01 1.063 1.233.51 2.07 1.267 2.643 2.391 1.002 1.964.476 5.072-1.105 6.525-1.47 1.352-2.43 1.494-10.81 1.602-4.295.056-8.201 0-8.201 0s.06-14.958 0-21.636zM61.31 66.564l-1.951-6.277-1.951 6.277zm-25.067 0l-1.951-6.277-1.951 6.277zM21.714 76.625l6.991-21.703h11.174l7.048 19.507c2.453-6.442 6.841-19.507 6.841-19.507h11.183l6.983 21.636h-7.893l-1.537-4.379h-6.29l-1.54 4.379h-15.7l-1.537-4.379h-6.29l-1.54 4.446zM84.46 64.174c.541-.15 1.167-.533 1.39-.851.553-.79.507-2.126-.1-2.875-.438-.541-.78-.634-2.645-.719l-2.143-.097v4.643c.576.232 2.478.182 3.498-.101zm-11.171-9.25l7.928.001c8.58.001 9.48.12 11.287 1.499 1.69 1.289 2.23 4.621 1.12 6.915-.524 1.081-.954 1.453-3.294 2.851-.424.253-.35.356.66.923 1.61.905 2.288 2.24 3.03 5.953.347 1.737.58 3.386.517 3.495h-7.952c-.145-.182-.345-1.375-.446-2.32-.441-4.127-1.12-5.11-3.443-4.974l-1.735.078v7.216h-7.489zM96.84 54.924h11.891l.395 1.39c.217.764 1.01 3.86 1.76 6.879.75 3.02 1.702 5.49 1.829 5.49V54.924h6.885l-.139 21.636h-11.576c-.946-2.679-1.462-5.245-2.038-7.479-.895-3.475-1.829-6.49-1.946-6.698V76.56h-6.885c-.057-7.212-.117-14.424-.176-21.636zM22.7 28.384c1.265-.68 1.904-1.885 1.906-3.587 0-1.853-.693-3.003-2.17-3.594-1.194-.478-5.932-.687-7.09-.396v8.039c.11.11 1.151.157 3.043.104 2.65-.075 3.64-.204 4.31-.566zM0 12.13s3.286-.075 15.238 0c13.137.082 14.97.144 16.38.556 3.838 1.12 5.97 2.645 7.192 5.143.931 1.904 1.172 5.525.517 7.779-.813 2.797-3.648 5.439-6.954 6.481-.78.246-1.416.516-1.416.6 0 .086.59.364 1.31.62 1.52.54 3.207 1.766 4.299 3.122 1.002 1.245 1.944 4.088 2.615 7.888.298 1.688.717 3.758.931 4.6.214.842.318 1.897.231 2.037h-15.31c-.075-.12-.33-1.972-.566-3.852-1.063-8.444-1.715-9.373-6.58-9.373h-2.54v13.225H0zM55.03 23.444H41.933V12.122h38.688l1.885 5.39a790.734 790.734 0 0 0 2.088 5.885l-14.278.047v27.504H55.03zM83.51 12.124h15.888l7.388 22.516 7.388-22.516h15.888L116.236 50.95h-18.9z"/>
    </g>
    <g fill="#db1727" stroke="#db1727" stroke-width=".765">
        <path d="M161.57 73.844c-1.987-2.403-3.613-4.516-3.612-4.696 0-.18.982-1.101 2.182-2.045 1.2-.945 3.21-2.704 4.465-3.91l2.282-2.19.878.998c1.431 1.627 3.889 5.599 4.761 7.695.79 1.899.8 1.968.332 2.499-.815.925-7.055 6.018-7.374 6.018-.166 0-1.927-1.966-3.914-4.369zM148.21 65.204c-.608-.747-1.105-1.497-1.105-1.665s.587-.755 1.304-1.302c4.889-3.728 8.44-9.49 10.243-16.619.633-2.499.68-3.044.544-6.307-.24-5.738-1.564-9.943-4.547-14.425-1.489-2.238-4.778-5.59-7.348-7.488-.836-.618-1.52-1.21-1.52-1.316 0-.368 1.888-2.995 2.252-3.135.424-.163 2.231 1.005 4.495 2.904 7.235 6.07 11.242 14.328 11.274 23.238.01 2.971-.088 3.987-.74 7.627-.92 5.125-3.382 9.907-7.737 15.023-1.428 1.679-5.1 4.825-5.63 4.825-.21 0-.878-.612-1.486-1.359z"/>
        <path d="M177.74 62.704c-1.377-2.383-3.128-4.834-5.052-7.07-1.486-1.727-1.478-1.169-.076-5.161 1.118-3.184 1.556-6.735 1.41-11.426-.202-6.461-1.642-10.988-5.277-16.591-2.355-3.63-5.385-6.621-9.746-9.622-2.08-1.43-3.297-2.437-3.297-2.726 0-.554 6.55-9.998 6.744-9.724.074.106 1.505 1.126 3.178 2.266 6.667 4.546 10.677 8.597 14.337 14.486 2.792 4.493 4.696 9.407 5.927 15.296.582 2.784.692 3.999.696 7.673.006 5.103-.465 8.459-1.82 12.965-1 3.327-3.828 9.393-5.046 10.825l-.769.903z"/>
    </g>
</svg>
