<svg xmlns="http://www.w3.org/2000/svg" height="2500" width="2500">
    <rect stroke-linejoin="bevel" ry="21.63" height="2086.9" width="2319.9" stroke="#fff" stroke-linecap="round" y="222.46" x="74.152" stroke-width="6.733" fill="#fff"/>
    <path fill="#c00" d="M0 1250V0h2500v2500H0V1250zm354.18 795.62c22.377-2.356 47.566-14.396 65.969-31.531 3.341-3.111 6.529-5.092 7.558-4.697 1.186.455 2.597 5.578 4.222 15.334l2.442 14.65 51.562.327 51.562.326v-21.889c0-12.039-.422-21.895-.938-21.903-4.312-.065-32.098-5.02-32.954-5.877-.62-.62-1.237-80.42-1.416-182.91l-.317-181.81-54.802-.013c-30.14 0-55.085.447-55.43 1.006-1.172 1.895-6.398 42.742-5.58 43.61.447.473 7.806 3.317 16.354 6.318 11.01 3.866 16.208 6.35 17.829 8.521 2.129 2.852 2.265 6.032 1.959 45.704l-.33 42.64-11.2-6.688c-13.254-7.912-27.57-13.332-42.767-16.193-14.787-2.783-39.457-1.904-53.418 1.903-41.733 11.38-70.08 45.334-80.74 96.704-5.514 26.578-6.283 65.347-1.883 94.978 5.333 35.919 15.118 58.159 33.718 76.638 21.439 21.3 48.98 29.026 88.6 24.855zm-3.928-66.736c-21.16-7.309-32.024-30.16-33.65-70.781-1.56-38.942 6.403-67.926 22.77-82.885 9.552-8.73 18.13-11.899 32.499-12.007 13.02-.097 27.898 4.052 39.498 11.017l6.752 4.054.324 65.214.323 65.214-5.948 4.373c-8.776 6.45-23.938 14.089-32.28 16.262-9.757 2.541-22.14 2.353-30.288-.461zm616.99 62.326c31.326-3.928 58.704-16.115 78.248-34.83 9.75-9.338 20.098-22.608 18.617-23.877-.542-.464-14.557-6.057-31.144-12.428l-30.16-11.584-7.973 7.943c-13.234 13.182-26.704 18.026-47.587 17.113-10.303-.45-12.981-1.064-20.223-4.629-11.052-5.44-19.621-14.186-24.992-25.503-5.19-10.9-7.07-19.3-7.07-31.4v-9.045l47.188-2.2c70.534-3.287 117.62-5.763 125.19-6.583l6.75-.731-.757-19.574c-1.22-31.519-5.63-51.848-15.908-73.324-14.617-30.544-37.153-49.253-69.196-57.446-22.06-5.64-51.134-5.703-72.64-.155-69.63 17.96-113.59 92.759-102.55 174.48 8.624 63.834 49.131 105.68 110.05 113.7 11.172 1.47 32.446 1.475 44.12.013zm-72.24-174.8c0-6.231 4.807-22.614 8.875-30.246 4.936-9.26 15.247-19.118 24.364-23.292 9.232-4.227 24.567-5.342 34.325-2.498 19.044 5.552 30.568 21.388 32.134 44.157l.616 8.946-7.97.76c-11.66 1.2-82.41 5.8-87.77 5.8-4.2 0-4.58-.3-4.58-3.6zm1281.6 172.34c33.035-7.31 59.01-23.256 77.355-47.484 7.312-9.658 10.833-6.918-28.202-21.941l-28.584-11-5.792 6.383c-7.26 8.002-15.862 13.361-26.788 16.688-12.443 3.79-31.026 2.967-41.416-1.834-14.893-6.881-24.307-17.81-29.929-34.743-3.778-11.379-5.693-30.806-3.117-31.62.94-.298 10.428-.87 21.084-1.27 31.917-1.203 143.86-6.914 151.12-7.71l6.75-.741-.829-18.364c-2.172-48.136-13.756-81.486-36.223-104.29-20.025-20.323-44.584-30.172-79.236-31.776-47.525-2.2-86.827 16.048-114.78 53.292-34.828 46.406-42.106 117.6-17.37 169.93 18.276 38.667 50.48 61.725 96.188 68.874 12.855 2.01 45.83.69 59.763-2.394zm-86.397-175.98c1.7-10.992 3.375-16.36 7.918-25.381 5.553-11.026 13.68-19.157 24.06-24.075 7.789-3.69 9.37-3.982 21.531-3.982 11.564 0 13.943.388 20 3.266 8.254 3.92 15.42 10.862 19.508 18.898 3.562 6.998 6.697 19.498 6.723 26.8l.02 5.213-7.813.742c-12.094 1.149-82.417 5.707-88.046 5.707h-5.013l1.112-7.188zm-470.41 175.27c.742-.742 4.935-42.742 5.083-50.907l.085-4.697-16.562.068c-19.102.079-26.666-1.643-34.932-7.947-6.245-4.763-11.683-14.61-13.508-24.46-.729-3.932-1.248-33.965-1.248-72.188v-65.454h70v-58.75h-70v-28.125c0-24.277-.259-28.125-1.892-28.125-2.204 0-61.49 7.129-68.42 8.227l-4.688.743v47.212l-17.812.347-17.812.347-3.177 28.75-3.177 28.75 19.114.344 19.114.344v74.253c0 44.454.524 78.177 1.304 84.031 3.923 29.425 16.968 49.566 39.087 60.348 16.715 8.148 22.42 8.888 63.233 8.199 19.524-.33 35.818-.92 36.208-1.31zm-934.81-88.397c.02-92.547.184-95.334 6.342-107.4 3.997-7.835 12.769-16.447 20.792-20.415 9.168-4.534 22.846-5.428 45.972-3.007 8.937.936 16.812 1.716 17.499 1.733 1.405.035 10.767-67.002 9.537-68.297-2.782-2.932-40.422-4.51-51.662-2.166-19.27 4.019-36.576 18.435-47.873 39.88l-6.249 11.863-.757-10.156c-1.466-19.677-8.954-31.82-23.869-38.707l-7.875-3.636-25 .156c-13.75.085-28.375.65-32.5 1.254l-7.5 1.099-.337 27.808-.336 27.808 5.336.07c8.043.106 13.651 2.536 16.856 7.302l2.856 4.247v217.14h78.75l.02-86.562zm526.26 3.75c.014-45.547.549-86.439 1.19-90.872 3.282-22.71 15.988-39.001 34.87-44.71 10.185-3.08 26.314-2.736 35.349.753 8.816 3.403 17.01 10.513 21.388 18.556 7.054 12.96 7.14 14.288 7.16 110.65l.019 88.438h78.843l-.385-106.56c-.381-105.72-.406-106.64-3.164-116.56-7.282-26.2-21.713-45.076-42.06-55.02-15.523-7.585-27.887-9.918-47.576-8.977-35.115 1.68-59.7 16.128-81.77 48.058-1.544 2.235-3.244 4.063-3.776 4.063-.761 0-8.871-41.462-8.863-45.312 0-.516-15.748-.938-34.998-.938h-35v281.24h78.75l.025-82.812zm556.32 80.625c.05-1.203.232-41.281.402-89.062.225-62.938.728-88.557 1.826-92.981 5.553-22.374 20.684-36.454 42.863-39.887 21.226-3.285 40.459 5.636 49.158 22.801 6.805 13.429 6.87 14.49 6.89 111.63l.02 89.688h78.749l-.025-102.81c-.015-61.683-.524-106.27-1.273-111.45-1.7-11.758-7.862-29.641-13.37-38.799-16.665-27.704-50.82-42.032-88.289-37.038-27.599 3.679-50.62 17.712-68.9 42.001-3.868 5.14-7.423 9.345-7.9 9.345s-.868-36.701-.868-81.557v-81.558l-38.438-.015c-21.14-.013-38.485.411-38.542.932-.058.522-.105 90.104-.105 199.07s.047 198.97.105 200c.09 1.625 5.29 1.875 38.855 1.875 36.036 0 38.756-.153 38.843-2.187zm-481.3-612.2c60.229-2.955 67.565-3.43 68.172-4.412.87-1.407 14.758-154.91 14.078-155.59-.323-.323-7.852.013-16.731.734-21.73 1.779-62.848 1.79-73.644.02-28.568-4.681-47.71-13.311-63.544-28.648-12.178-11.796-20.242-25.555-26.31-44.891-7.005-22.327-7.021-22.846-7.021-222.87V782.47l163.99.317 163.99.317 54.112 133.75c29.762 73.562 66.973 165.53 82.692 204.38 15.719 38.844 48.758 120.55 73.418 181.56l44.838 110.94h198.032l2.578-6.892c1.418-3.79 8.724-22.775 16.235-42.188a53059.518 53059.518 0 0 0 24.248-62.796c5.825-15.125 41.086-106.53 78.358-203.12 37.272-96.594 72.43-187.72 78.126-202.5 16.512-42.838 105.83-274.21 106.52-275.94.499-1.243-22.758-1.562-113.8-1.562-107.89 0-114.46.125-115.08 2.187-.362 1.204-9.637 32.281-20.612 69.062s-32.889 110.19-48.699 163.12c-15.81 52.938-41.496 139-57.08 191.25-15.585 52.25-29.999 100.48-32.032 107.19-3.323 10.96-3.994 12.188-6.664 12.188-2.54 0-3.334-1.129-5.491-7.812-1.387-4.297-7.058-22.016-12.602-39.375s-14.537-45.484-19.984-62.5c-5.447-17.016-16.46-51.469-24.471-76.562a103049.1 103049.1 0 0 0-24.378-76.25c-5.396-16.844-20.861-65.219-34.367-107.5s-28.975-90.656-34.376-107.5c-5.4-16.844-12.458-38.922-15.683-49.062l-5.864-18.438h-515.96V457.533l-5.312.723c-2.922.398-50.312 6.17-105.31 12.827l-100 12.104-.323 67.76-.324 67.76-50.288.327-50.288.327-8.373 77.5c-4.605 42.625-8.408 79.328-8.451 81.562l-.08 4.063H959.906l.457 215.31c.414 194.97.66 216.73 2.596 230.31 8.361 58.636 26.921 101.2 58.25 133.58 24.353 25.17 52.371 41.667 88.224 51.945 15.844 4.542 39.66 8.627 58.292 10 18.018 1.327 71.075.515 118.54-1.813zm-767.48-239.02c.01-127.02.322-235.72.695-241.56 3.319-52.009 21.36-92.241 52.719-117.56 17.119-13.821 38.545-23.243 61.117-26.876 22.013-3.542 62.708-1.615 117.82 5.58 14.854 1.94 27.244 3.317 27.534 3.06.29-.258 4.64-31.544 9.666-69.525s10.764-81.15 12.75-95.93c1.986-14.782 3.4-27.112 3.144-27.399-2.027-2.269-56.057-8.246-86.087-9.524-69.846-2.971-120.75 17.744-162.38 66.088-14.782 17.162-33.3 47.741-44.873 74.1-2.964 6.75-3.705 7.574-6.357 7.067l-3.001-.574-.616-23.942c-.68-26.46-2.183-35.365-8.826-52.285-16.132-41.09-51.586-64.917-103.94-69.853-20.848-1.966-79.659-.057-118.75 3.853-18.524 1.853-34.629 3.733-37.812 4.414l-2.812.602v156.202l11.562.025c29.973.064 44.54 6.367 53.017 22.936 6.947 13.58 6.625-1.989 6.649 321.52.012 164.37.397 299.23.855 299.69.458.458 49.677.833 109.38.833h108.54l.017-230.94z"/>
</svg>
