<svg viewBox="0 0 800 385.2" xmlns="http://www.w3.org/2000/svg">
    <defs>
        <clipPath id="a">
            <path d="M0 0h97.05v46.73H0z"/>
        </clipPath>
    </defs>
    <path d="M.33-.005L0 307.055 435.126 385.2h364.877V230.467L723.34-.005z" fill="#a03761"/>
    <path d="M406.31 77.646H249.608v36.682h57.208v115.57h42.205v-115.57h57.29z" fill="#fff"/>
    <g clip-path="url(#a)" transform="matrix(8.2432 0 0 -8.2432 .003 385.2)">
        <path d="M24.12 30.41a2.65 2.65 0 0 0-2.89-2.51h-7.16v2.55l-2.36 2.36h9.52a2.6 2.6 0 0 0 2.84-2.43m.62-5.97a6.77 6.77 0 0 1-3.28 12.9h-12V18.829h4.73v4.721h4.89l3.4-4.721h6.23zM61.08 25.03l.93 2.32 4.28 9.96h5.04l-8.29-18.469h-4.06L51.17 37.31h5.05l3.82-10.02.91-2.26zM73.52 37.31v-4.49h3.301l-3.301-2.36V18.84h4.86v18.47z" fill="#fff"/>
    </g>
</svg>
