<svg width="600" height="278.05" version="1.1" viewBox="0 0 158.75 73.567871" xmlns="http://www.w3.org/2000/svg">
 <g transform="translate(-67.28 -120.36)" fill-rule="evenodd">
  <path d="m176.95 123.44-0.95539 0.81063c-4.8226 3.5373-7.6875 6.2855-13.675 7.122v-0.029c-1.6798-0.0119-8.4105 1.2199-6.3692-3.1074 0.1493-0.31622-6.7166 2.1629-8.1739 0.27986-1.4573-1.8805 5.0093-1.5277 4.2365-2.2871-0.77246-0.77672-5.7046-1.0104-6.6684-0.72378-0.96468 0.2851-0.13308 0.45295-0.1351 0.68518-1e-3 0.23322 0.10519 0.37907 0.12545 0.67553 0.0198 0.29646 0.0641 0.80391-0.01 1.0905-0.0738 0.28707-0.11001 0.35761-0.41496 0.54042-1.0561 0.63739-6.3392 0.25145-6.2631-0.18336 0.12999-0.73768 2.0826-1.8728 1.4572-2.2582-1.9625-1.2155-4.3203-1.9194-3.8891 1.0229 0.20724 1.4146-1.8785 2.152-3.0109 2.152-4.8861-0.0341-9.1698-5.7952-10.307-5.3752-0.52256 0.19369 0.47403 0.86961 0.67552 1.2352 3.14 5.6752-8.1322 8.2234-12.169 5.7613-1.8248-1.1122-3.5082-2.8335-5.5586-3.4452-9e-3 1.3889 1.5597 3.1255 2.4319 4.2462 0.21329 0.27423 1.3344 1.0659 0.53076 1.4958-2.1614 1.1641-5.4344-1.7275-8.1642-1.1484 1.5533 0.60378 5.708 1.5984 5.6937 3.725-1.1258 1.1102-2.5912 0.32192-3.8119-0.29916-4.7255-0.97832-8.8729-1.8701-13.732-2.4126 4.032 1.0855 10.124 2.4168 12.227 3.3487 3.4017 1.507 0.30153 3.0856-1.38 3.3969-2.5004 0.46446-5.0953 0.22196-7.6334 0.22196 2.8967 1.089 6.4906 1.482 7.8747 3.1846 1.3844 1.6997-1.7772 1.2542-2.8662 1.4765-1.0886 0.24211-2.238-0.15811-2.8565 0-0.45626 0.1171 4.8864 1.9232 2.0266 3.8215-2.946-0.40022-5.8973-0.31623-8.8494 0 2.2661 0.45408 5.7333 0.64341 7.6045 1.9108-4.6301-0.0321-9.1894 0.69211-13.231 3.175 3.4005-0.7525 7.4128-2.2868 10.77-1.1484 1.1783 0.26236 2.8643 1.2546 3.9373 1.2546-0.71711 1.0752-15.977 2.9848-11.33 4.14 2.9477 0.0198 5.9087-0.85833 8.859-1.2932 1.5645-0.21987 4.6318-0.43627 5.8481 0.30882l0.13511 0.81063c-3.987 1.3321-8.591 1.7832-12.69 2.7793-1.2936 0.11906-13.746 1.589-12.275 3.8505 9.0069 1.6992 18.289-4.3604 27.938-2.9241-11.583 4.9029-24.083 6.9574-35.619 11.735 6.5664-1.8341 30.053-7.6208 41.033-7.7492-3.7144 0.61368-3.8704 3.6495-2.7697 6.3789 0.0404-4.6959 5.3864-4.1224 8.2125-5.7999 6.0632 2.1355-1.1112 1.662 0.37637 4.2269 1.3129-0.80687 2.2043-1.6823 3.8215-1.3414 1.189 0.95806 1.5096 1.1394 1.0712 2.596 1.3385-1.7412 3.8865-2.8309 5.4524-0.91678 0.79148 0.8024-10.548 19.102-11.735 23.479 5.0146-7.4095 8.4565-15.744 15.942-21.269 4.6757-4.6094 5.0394-0.59833 5.0182 2.4898 2.2629-1.9255 3.9192-2.7466 6.5622-3.5031 4.0531 0.0282 3.5954 2.3455 5.134 4.941 0.015-2.1286 0.68612-5.0924 2.8951-5.8385 2.2465-1.4561 5.188-2.0985 7.4887-0.34742 2.5451 0.52374 5.732 4.5776 7.8747 3.7154-4.9414-3.9839-1.7115-5.0746 3.1846-6.7842 2.9157 0.0198 6.2284 4.7827 9.4863 6.0604-1.0252-0.88145-6.8983-6.1044-6.8904-7.1316 2.5064-0.50643 4.4658 1.0133 6.929 1.0133-1.4466-0.97931-2.9578-1.6608-3.6478-3.2908 5.9067-4.4187 18.349 6.8222 23.209 9.5442-5.7528-4.058-10.75-8.2416-15.827-13.173 2.6387-1.8593 6.2178 0.0269 8.4441-1.7178-2.5995-0.24061-6.2665 0.13058-6.2438-3.175 1.3564-1.7303 1.8886-1.064 4.0532-1.3704 2.6298 0.58749 4.9084 1.3702 7.5273 1.5827 6.6022-0.65765-0.93229-3.6531-5.9832-2.6056-1.9502-0.27471-3.6688-0.68334-4.3427-1.544-1.0662-1.3622 15.838-0.0494 20.015 0-7.5879-0.7456-15.571-1.567-22.427-5.0568 1.0685-2.4863 5.7517-2.3967 8.1835-2.6635-4.4301-1.6182-8.9818-1.219-13.607-1.7274-1.0221-2.0821 2.7359-2.8264 3.8505-3.9277-1.4927-0.0104-10.204 0.55529-7.7493-2.3643 0.65025-0.84491 2.5505-1.4084 3.561-2.152-2.5699-0.6695-8.0208 2.8345-9.6793 1.158 3.1665-4.6233 8.4976-6.7214 11.243-11.358z" fill="#f78ccb"/>
  <g fill="#fff">
   <path d="m154.55 144.23-0.58867 0.78168c-0.21761 0.29152-0.38233 0.60606-0.49217 0.95538-0.11037 0.35081-0.16405 0.74053-0.16405 1.158 0 0.46939 0.0923 1.0438 0.27985 1.7371 0.19398 0.71644 0.48173 1.5443 0.86853 2.4801 0.40413 0.97684 0.70538 1.8407 0.90714 2.5863 0.20782 0.7688 0.31846 1.4262 0.31846 1.9687v0.36671l-0.40531 0.0482-1.187 0.0869h-0.029c-1.8421 0-3.6221-0.50988-5.3463-1.5248h-0.01c-0.71942-0.42492-1.4328-0.94795-2.1424-1.5537-0.54418-0.46445-1.086-0.97732-1.6213-1.544-0.0813 0.27175-0.15666 0.60438-0.23161 0.98432-0.15016 0.75994-0.28743 1.7073-0.40531 2.8565v0.01c-0.0914 0.83404-0.29438 1.471-0.62727 1.9108-0.37181 0.49411-0.87568 0.73343-1.5055 0.73343-0.19512 0-0.38102-0.052-0.55972-0.0965-0.1767-0.0593-0.34443-0.15163-0.50182-0.27022l-0.14476-0.20265c-0.0435-0.12848-0.0811-0.25778-0.10616-0.37636-0.0252-0.11859-0.0462-0.23826-0.0579-0.36672-8e-3 -0.089-0.0134-0.20883-0.0193-0.35708-4e-3 -0.11856-0.01-0.24741-0.01-0.39566 0-0.48916 0.0877-1.0723 0.27022-1.7467 0.17753-0.65516 0.44873-1.3989 0.80098-2.2389 0.33925-0.81031 0.58613-1.5161 0.75273-2.1134 0.16112-0.5781 0.24126-1.0508 0.24126-1.4283 0-0.17294-4e-3 -0.33923-0.0193-0.48252-0.0163-0.14823-0.0456-0.2865-0.0772-0.41497l-0.15441-0.63693 0.65622 0.11581c0.42053 0.0741 0.85905 0.27667 1.3318 0.59833 0.45135 0.31128 0.93206 0.73007 1.4379 1.2642 0.7471 0.80241 1.3474 1.4354 1.795 1.8915 0.43872 0.44963 0.73451 0.73014 0.88784 0.84923h0.01c0.5632 0.45951 1.1358 0.80579 1.7178 1.0326 0.56897 0.22233 1.1504 0.33282 1.7467 0.33777h0.23161c-0.26628-0.94025-0.53462-1.8838-0.80095-2.8275-0.31271-1.1078-0.62335-2.2167-0.93608-3.3294l-0.0193-0.12545c0-0.41505 0.0845-0.77925 0.24125-1.1098 0.1591-0.33598 0.38944-0.62271 0.70448-0.85888h0.01c0.25017-0.18282 0.54039-0.33028 0.87819-0.44392 0.32166-0.10376 0.68855-0.18243 1.1001-0.22196z"/>
   <path d="m162.1 144.53 0.55971 0.33777c0.042 0.0494 0.0993 0.0433 0.17371 0.0483 0.0995 0 0.22575 2e-3 0.36672 0l0.41496-0.0483 0.0579 0.42461c0.0119 0.0988 0.0206 0.20482 0.029 0.31846 8e-3 0.10871 0.0186 0.26086 0.029 0.45356 9e-3 0.16799 0.0144 0.36659 0.0193 0.59833 5e-3 0.2174 0 0.46191 0 0.72378v1.573c0 0.16305 7e-3 0.32767 0.01 0.51147 2e-3 0.17293 6e-3 0.3611 0.01 0.55972v0.01c5e-3 0.18282 0.0221 0.38664 0.0579 0.62727 0.0109 0.0692 0.0257 0.14784 0.0386 0.22195 0.36143-0.25198 0.71265-0.52203 1.0519-0.79131 0.50643-0.40516 0.98049-0.82495 1.4379-1.2642 0.45917-0.43975 0.89596-0.89826 1.2932-1.38 0.39602-0.47928 0.75859-0.98445 1.1001-1.5151 0.12481-0.19763 0.26233-0.37166 0.40532-0.53076 0.14527-0.16305 0.30077-0.3058 0.47287-0.43427 0.18588-0.13835 0.39236-0.24435 0.60797-0.31846 0.21533-0.0692 0.43946-0.10616 0.67553-0.10616h1.0615l-0.1158 0.52113c-0.13978 0.64331-0.44929 1.3389-0.91678 2.0845-0.45368 0.72386-1.0594 1.5076-1.8336 2.345h-0.01c-0.66236 0.71398-1.3253 1.3579-1.988 1.93-0.43377 0.37552-0.86195 0.72131-1.2931 1.0326 0.43752 0.16801 0.91477 0.34949 1.4379 0.55007 0.86643 0.33107 1.607 0.6133 2.21 0.8396h0.0386c0.98142 0.48421 1.7169 1.015 2.2196 1.602 0.53381 0.62453 0.80099 1.3055 0.80099 2.0362l0.01 0.7624-0.64657-0.35706c-0.55426-0.30636-1.1322-0.6082-1.7274-0.88786-0.59116-0.27668-1.2106-0.54353-1.8625-0.80097-0.84192-0.336-1.575-0.5877-2.1906-0.75272-0.59664-0.15811-1.0796-0.24127-1.4572-0.24127-0.19774 0-0.35439 0.0601-0.47287 0.1737-0.13978 0.1334-0.24583 0.35089-0.31846 0.65624-0.10925 0.45951-0.19539 0.83336-0.26056 1.1194-0.0712 0.31128-0.15741 0.66403-0.24126 1.0519l-0.10625 0.49214-0.47287-0.18336c-0.40926-0.16306-0.75559-0.40285-1.0519-0.71413-0.29256-0.30634-0.52779-0.68342-0.70448-1.1291v-0.01c-0.12911-0.336-0.23429-0.71308-0.29916-1.1291-0.0643-0.41011-0.0965-0.847-0.0965-1.3124 0-0.62061 0.045-1.3147 0.1351-2.0845 0.0885-0.76189 0.22893-1.5987 0.40532-2.4994 0.27902-1.4225 0.47972-2.4634 0.60797-3.1364 0.14443-0.75843 0.22397-1.2023 0.24126-1.3317z"/>
   <path d="m112.37 144.57c0.7785 0 1.5534 3e-3 2.3354 0.0675 0.76553 0.0494 1.564 0.0994 2.3933 0.18335 1.2538 0.12847 2.3986 0.30297 3.4259 0.51148 1.0339 0.21246 1.9502 0.4617 2.7504 0.75272 1.0679 0.39033 1.874 0.84189 2.4222 1.3607 0.59664 0.56426 0.89747 1.2084 0.89748 1.9204v0.01c0 0.59342-0.30632 1.1192-0.91678 1.5826-0.53698 0.40515-1.33 0.77181-2.374 1.0905h-0.0193c-0.92723 0.22728-1.8567 0.46557-2.7793 0.69483-0.69665 0.17293-1.6068 0.39465-2.76 0.68516-0.95317 0.27176-1.6608 0.56319-2.1231 0.86855-0.37181 0.24704-0.55972 0.48165-0.55972 0.70447 0 0.34586 0.0698 0.71504 0.20266 1.1291l0.0193 0.13512c0 0.0494 0.0277 0 0.0868 0.1737 0.0888 0.23718 0.20418 0.54573 0.34742 0.91678l0.18335 0.46324-0.49216 0.10615c-0.17956 0.0494-0.34013 0.0767-0.48253 0.0965-0.15826 0-0.28945 0.0483-0.40531 0.0483-0.50124 0-0.92509-0.15216-1.2738-0.45358-0.3309-0.28657-0.58138-0.69371-0.74307-1.2353v-0.01c-0.0807-0.27175-0.14388-0.62449-0.18336-1.0519-0.039-0.41997-0.0579-0.90156-0.0579-1.4476 0-1.1157 0.0475-1.92 0.14476-2.4126 0.10203-0.5198 0.26676-0.96415 0.49216-1.3318 0.23721-0.38539 0.54224-0.67833 0.90713-0.88783l0.51147-0.29916 0.12546 0.58867c0.0775 0.37552 0.15165 0.6893 0.22196 0.94573 0.0611 0.22234 0.10755 0.37003 0.14475 0.43425h0.01c0.0799 0.15319 0.18644 0.27331 0.31847 0.34742 0.14037 0.0791 0.32108 0.11581 0.54042 0.11581 1.0457 0 2.447-0.26289 4.2076-0.78168 0.88832-0.26186 1.6706-0.53195 2.345-0.81062 0.40729-0.16799 0.77862-0.33656 1.1098-0.51147-0.5632-0.37057-1.1288-0.6918-1.6888-0.96504-0.73671-0.36069-1.4655-0.6345-2.1906-0.82028-0.56321-0.14329-1.2137-0.24929-1.9397-0.31846-0.73065-0.0692-1.5549-0.11581-2.4801-0.11581h-3.0109c-0.39172 0-0.73714 1e-3 -1.0519-0.0483-0.32428 0-0.62669-0.057-0.90713-0.0965-0.27443-0.0494-0.56936-0.10901-0.86854-0.193-0.28678-0.084-0.5862-0.19-0.89747-0.31847l-0.67553-0.28951 0.57902-0.44391c0.28247-0.22234 0.58446-0.411 0.89748-0.55972 0.31331-0.14823 0.63256-0.25399 0.97469-0.32811 0.33984-0.0692 0.69404-0.12476 1.0615-0.15441 0.3652-0.0494 0.77827-0.0482 1.2256-0.0482z"/>
   <path d="m134.46 146.79 0.0965 0.45357c0.25248 1.1127 0.4437 2.2278 0.56937 3.3583 0.12624 1.1379 0.193 2.2848 0.193 3.4355 0 0.40516-0.0151 0.78743-0.029 1.1387-0.0148 0.37552-0.0312 0.71485-0.0579 1.0133-0.0267 0.29644-0.0746 0.62413-0.1351 0.98433-0.0579 0.34586-0.12905 0.70059-0.21231 1.0519l-0.0868 0.36672-0.37637-0.0483c-0.47008-0.0543-0.87785-0.19733-1.216-0.42463-0.34473-0.23223-0.60844-0.55367-0.80098-0.95539-0.13894-0.29152-0.24191-0.63434-0.30881-1.0326-0.0651-0.38539-0.0965-0.82253-0.0965-1.3028 0-0.13343 2e-3 -0.28064 0.01-0.45357 7e-3 -0.18474 0.0164-0.38341 0.029-0.58868v-0.01c0.0144-0.22656 0.0226-0.41555 0.0289-0.55006 6e-3 -0.1433 9e-3 -0.24435 0.01-0.31848l-0.0868-2.567c0-0.42987 0.0343-0.81541 0.0965-1.1677 0.0637-0.36069 0.15808-0.68192 0.28951-0.96504 0.14467-0.31128 0.36237-0.58259 0.64658-0.80098 0.26978-0.20752 0.60344-0.36888 0.99399-0.48252z"/>
  </g>
  <g fill="#f78ccb">
   <path d="m140.59 123.7c0.28104-1.5776-2.6347-1.6824-3.5288-1.2466-2.2542 1.0959 3.0454 3.9528 3.5288 1.2466"/>
   <path d="m90.271 136.29c-1.0762-0.55043-4.5534-0.11859-2.5967 1.4858 1.632 1.3375 5.5121 0 2.5967-1.4858"/>
   <path d="m72.556 138.62c0.35942-2.1414 6.1482-2.3129 8.039-1.7185 7.2444 2.2768-8.9985 7.4392-8.039 1.7185"/>
   <path d="m153.95 121.47c-6.3664-4.0323-8.8674 4.312-1.3852 3.2665 1.7951-0.25199 3.3302-2.0362 1.3852-3.2665"/>
   <path d="m183.63 141.02c0.27067-1.8904-3.8712-2.1306-4.075-0.70903-0.21963 1.5233 3.8709 2.1271 4.075 0.70903"/>
   <path d="m200.27 156.52c0.58597-0.18777 1.093-0.12848 1.0993-0.94522 3e-3 -0.52967-1.3942-1.09-1.896-1.2451-0.75574-0.23223-2.0265-0.0692-2.3202 0.80586-0.38679 1.1493 2.4168 1.5475 3.1169 1.3845"/>
   <path d="m164.47 175.6c1.0884 1.2081 10.009 9.0702 10.022 7.285 8e-3 -1.259-8.2716-6.2479-10.022-7.285"/>
   <path d="m203.13 176.28c0.36286-1.4082-2.5972-1.7881-3.3959-1.5268-0.42023 0.13835-1.1362 0.74015-0.82146 1.2175 0.7788 1.1829 3.8828 1.6068 4.2174 0.31128"/>
   <path d="m216.61 175.69c-1.02-2.6252-6.8374-0.36563-2.1842 1.2071 0.74017 0.25199 2.6641 0.0494 2.1842-1.2071"/>
   <path d="m102.45 166.46c-0.38362 0.0939-20.262 8.5257-16.39 8.0637 3.0708-0.37058 6.744-2.6222 9.2891-4.2957 1.7127-1.1261 3.3974-1.7906 5.0509-2.8307 0.57041-0.36071 1.4158-0.62159 2.0505-0.93732"/>
   <path d="m155.74 177.45c-1.2881 0-4.4915 0.15317-4.4776-1.8054 0.0128-1.966 4.0294-1.0267 5.0449-0.63691 1.813 0.6957-3.8902-0.58994-2.7356 1.4749 0.29947 0.53461 1.6616 0.79549 2.1684 0.96743"/>
   <path d="m194.21 147.63c-1.4642 0.57019-4.4909 0.0791-4.4785-1.804 9e-3 -1.2975 2.7849-1.8756 3.8015-1.301 2.6978 1.5268-0.75574 0.25693-1.487 0.87999-1.7553 1.4907 1.6824 2.0367 2.164 2.2249"/>
   <path d="m196.73 134.14c0 0.5193-0.18302 0.98079-0.54821 1.385-0.32023 0.35576-0.79091 0.66901-1.4123 0.94522l-0.0138 4e-3c-1.0347 0.37551-2.1291 0.76979-3.2847 1.1903-0.56926 0.23717-0.99122 0.48422-1.2645 0.74856-0.21731 0.20752-0.32626 0.40516-0.32626 0.59342 0 0.29646 0.0395 0.62207 0.1176 0.97831l0.0133 0.11859c0 0.0494 0.0178 0 0.0522 0.14329 0.0536 0.20752 0.12249 0.46939 0.20782 0.78957l0.11181 0.41997-0.30352 0.0988c-0.10752 0.0494-0.20377 0.0593-0.28821 0.0791h7.9e-4c-0.0945 0-0.17639 0.0494-0.24556 0.0494-0.30061 0-0.5557-0.13341-0.76495-0.39527-0.19829-0.24705-0.34558-0.60922-0.44213-1.0811v-1e-3c-0.0479-0.23716-0.0841-0.54153-0.10781-0.91211-0.0232-0.36563-0.0351-0.78512-0.0351-1.2575 0-0.96646 0.0292-1.6597 0.0874-2.0871 0.0605-0.44963 0.15851-0.837 0.29315-1.1567 0.1418-0.33599 0.32195-0.59786 0.54043-0.78118l0.32052-0.26681 0.0755 0.52968c0.046 0.3261 0.0902 0.59885 0.13202 0.82168 0.0366 0.1927 0.0649 0.31623 0.0868 0.37552h3e-3c0.0465 0.13341 0.10811 0.22729 0.18445 0.29152 0.0819 0.0692 0.18677 0.0988 0.31504 0.0988 0.30926 0 0.66869-0.0543 1.0786-0.16799 0.4182-0.11365 0.89149-0.28164 1.4187-0.50992 0.52717-0.22728 0.99093-0.45951 1.3913-0.70162 0.2346-0.14329 0.44791-0.28657 0.63987-0.42986-0.32887-0.31623-0.65659-0.58749-0.98314-0.81971-0.43723-0.31129-0.87074-0.54599-1.3005-0.70607-0.33466-0.12353-0.71683-0.2174-1.1474-0.27669-0.43347-0.0593-0.92493-0.0939-1.4743-0.0939h-1.7861c-0.23262 0-0.44242 0-0.62949-0.0494h-1e-3c-0.19309 0-0.37354-0.0494-0.54014-0.084-0.16286-0.0494-0.33436-0.0939-0.51334-0.16799-0.17061-0.0741-0.34879-0.168-0.53351-0.28164l-0.4188-0.25693 0.35713-0.41011c0.16834-0.1927 0.34587-0.35575 0.53265-0.47927 0.18706-0.12847 0.38218-0.22235 0.58597-0.28658 0.20263-0.0593 0.41302-0.1087 0.6318-0.13341 0.21706-0.0494 0.45887-0.0494 0.72548-0.0494 0.46233 0 0.92579 0 1.3901 0.0544 0.45452 0.0494 0.92897 0.0889 1.4227 0.16306 0.74508 0.11364 1.4233 0.26187 2.0335 0.43975 0.61479 0.18281 1.1598 0.40022 1.6357 0.65369 1.3195 0.69866 1.9796 1.6478 1.9796 2.847"/>
   <path d="m204.57 139.71-0.17466 0.68482c-0.60182 0-1.3025 0.13834-2.1012 0.41998-0.96126 0.33599-1.7378 0.5855-2.3292 0.75498-0.6024 0.17293-1.0157 0.25693-1.2394 0.25693-0.27698 0-0.526-0.084-0.74736-0.24705-0.22309-0.16305-0.41278-0.41009-0.56954-0.73175h-1e-3c-0.35971-0.75054-0.53957-1.8593-0.53957-3.3258 0-0.89332 0.0588-1.8529 0.1761-2.8791 0.0585-0.51238 0.1294-0.99561 0.21187-1.4487 0.0841-0.45951 0.17955-0.8869 0.28623-1.2787l0.2179-0.80143 0.27037 0.76734c0.11992 0.34093 0.22076 0.69617 0.30263 1.0663 0.0816 0.37057 0.14241 0.74559 0.18218 1.1285 0.0405 0.3854 0.0703 0.78068 0.0893 1.1893 0.0188 0.40516 0.0287 0.83947 0.0287 1.3024v1.5979c0 0.29646 0.0153 0.53363 0.0469 0.71398 0.0232 0.13835 0.0528 0.22728 0.0882 0.27669 0.096 0.12847 0.33836 0.1927 0.7272 0.1927 0.17323 0 0.3522 0 0.53583-0.0494 0.19106-0.0494 0.38826-0.0741 0.59058-0.13835 0.54187-0.16305 0.97825-0.28163 1.3086-0.36069 0.3476-0.084 0.5903-0.12352 0.72778-0.12352 0.36405 0 0.70644 0.084 1.0261 0.25693 0.31909 0.17293 0.61479 0.42986 0.88544 0.76981"/>
   <path d="m217.76 139.24-0.11182 0.57563c-0.0741 0.3854-0.18099 0.71447-0.32081 0.99018-0.14324 0.28657-0.31964 0.50941-0.52891 0.67394-7.9e-4 5.3e-4 -1e-3 1e-3 -2e-3 2e-3l2e-3 -2e-3c-7.9e-4 5.3e-4 -1e-3 1e-3 -2e-3 2e-3 -0.16602 0.1334-0.36548 0.23222-0.5975 0.29151-0.22338 0.0593-0.47616 0.0939-0.75804 0.0939h-1.1469c-0.25708 0-0.48654-5e-3 -0.68858 0-0.2176 0-0.40037-0.0494-0.54735-0.0494-0.16345 0-0.31563-0.0593-0.45655-0.1087-0.1424-0.0543-0.27007-0.12352-0.38248-0.20752h-7e-3c-0.0536-0.0494-0.11557-0.1087-0.18533-0.19763-0.062-0.0741-0.13429-0.17293-0.21617-0.29646v2e-3c-0.0686-0.0988-0.13172-0.18282-0.19022-0.24211v2e-3l-2e-3 -2e-3 -0.24843 0.3607-0.12046 0.0988c-0.39227 0.15316-0.79869 0.30633-1.2186 0.45456l-1e-3 2e-3c-0.12248 0.0494-0.25105 0.0741-0.3848 0.0988-0.13257 0-0.26548 0.0494-0.39805 0.0494h-0.22946c-0.55224 0-1.076-0.0988-1.5706-0.3014-0.49864-0.20257-0.96298-0.50397-1.3924-0.90469v-2e-3c-0.51075-0.47927-0.89582-1.0391-1.1552-1.6824-0.26256-0.65023-0.39399-1.3761-0.39399-2.177 0-0.32117 0.0227-0.63343 0.0674-0.9378 0.045-0.3014 0.11301-0.59786 0.20323-0.88345 0.0911-0.28658 0.20376-0.55142 0.33781-0.79353 0.13578-0.24704 0.29024-0.46445 0.46406-0.65468l0.43896-0.48421-8e-3 0.80044-0.0163 1.5228v4e-3 -4e-3 4e-3c7.9e-4 1.2348 0.29947 2.2506 0.89611 3.0466 0.30353 0.40516 0.63785 0.70854 1.0027 0.90815 0.36722 0.20258 0.77044 0.30141 1.2086 0.30141 0.63699 0 1.1137-0.18282 1.429-0.54994 0.30091-0.35081 0.46466-0.88938 0.49-1.6202 0.0321-0.89332 0.12857-1.5979 0.28969-2.1132 0.18272-0.58403 0.4479-0.93435 0.7958-1.05l0.29171-0.0988 0.0341 0.43481c0.0764 0.96992 0.15308 1.9403 0.22917 2.9102h-3e-3c0.10376 0.84343 0.30783 1.4685 0.61047 1.8751 0.29543 0.39528 0.69781 0.5944 1.2074 0.5944 0.20406 0 0.45309-0.0494 0.74738-0.0791 0.3058-0.0543 0.65255-0.13341 1.0399-0.23717 0.3254-0.084 0.55685-0.14823 0.69952-0.18281 0.18074-0.0494 0.31128-0.0791 0.39226-0.0939z"/>
   <path d="m226.03 138.45c0 0.64974-0.12481 1.2199-0.37497 1.7116-0.24324 0.47928-0.60124 0.86912-1.0742 1.175-0.34933 0.22728-0.72779 0.39527-1.1353 0.50891h7.9e-4c-0.40437 0.11365-0.83443 0.168-1.2895 0.168-0.47617 0-0.93214-0.0593-1.3671-0.17294-0.4358-0.11858-0.84682-0.29152-1.2319-0.52373h1e-3c-0.54389-0.32611-0.95433-0.73473-1.2316-1.2194-0.29166-0.50942-0.43693-1.0979-0.43693-1.7649v-1.4541l0.44415 0.56278c0.3303 0.41998 0.64477 0.77129 0.94366 1.0564 0.29459 0.28164 0.57416 0.49954 0.83875 0.65271 0.26548 0.15317 0.56637 0.26681 0.90274 0.34587 0.34126 0.0791 0.72575 0.11858 1.1535 0.11858 0.32398 0 0.61567 0 0.87536-0.0494 0.25278-0.0494 0.45887-0.0741 0.61854-0.12846l8e-4 -2e-3c0.29917-0.10377 0.51765-0.24706 0.65485-0.42987 0.11414-0.15317 0.17121-0.34587 0.17121-0.57217 0-0.73374-0.56811-1.2417-1.7043-1.5228-0.62892-0.0988-1.2256-0.19764-1.7899-0.29152-0.61335-0.10375-1.2106-0.20258-1.7914-0.30634l-0.0123-3e-3c-0.68743-0.16799-1.2103-0.42986-1.5671-0.77672-0.40466-0.39528-0.6073-0.90173-0.6073-1.5164 0-0.6369 0.21444-1.1938 0.64275-1.6696 0.38595-0.42987 0.95347-0.79353 1.702-1.093l-1e-3 2e-3c0.54302-0.22235 1.0702-0.3854 1.5812-0.4941 0.51651-0.1087 1.0183-0.16799 1.5051-0.16799 0.25941 0 0.48971 0 0.69003 0.0494 0.20692 0.0494 0.38332 0.0889 0.5289 0.16305h2e-3c0.26226 0.13835 0.46316 0.33599 0.60182 0.60231 0.14383 0.27175 0.21533 0.60082 0.21533 0.98226 0 0.31622-0.0648 0.60329-0.19458 0.8622-0.11819 0.23717-0.29142 0.44469-0.51939 0.62454-0.13518 0.1087-0.29399 0.20752-0.47616 0.29646-0.17669 0.0889-0.37962 0.168-0.60903 0.24211l-0.247-0.65616c0.0853-0.12353 0.17294-0.25199 0.26316-0.39034 0.0856-0.12847 0.1761-0.26681 0.27091-0.4101 0.0787-0.11859 0.14813-0.24211 0.20896-0.36564-0.0997-0.0494-0.21039-0.0543-0.33293-0.0741-0.12105 0-0.24472-0.0494-0.37151-0.0494h-0.34182c-0.37097 0-0.72172 0.0494-1.052 0.0889l-1e-3 2e-3c-0.33608 0.0642-0.65543 0.15317-0.95634 0.2767-0.40496 0.16305-0.73671 0.37057-0.99526 0.61318-0.12827 0.12352-0.23835 0.25199-0.32946 0.39528 0.1548 0.0543 0.34705 0.10376 0.57646 0.15811 0.45541 0.10376 1.0474 0.21246 1.7755 0.31128 0.74478 0.10376 1.3803 0.22729 1.9061 0.37551 0.53755 0.14824 0.96845 0.32117 1.2918 0.51239 0.54821 0.33104 0.96269 0.76486 1.2425 1.3059 0.28767 0.55536 0.4315 1.21 0.4315 1.964"/>
  </g>
 </g>
</svg>
