<svg width="600" height="320.71" viewBox="0 0 158.75 84.854" xmlns="http://www.w3.org/2000/svg">
    <g color="#000">
        <path d="M65.702 39.45a2.864 2.864 0 0 0-1.644.511c-1.334.92-1.644 2.781-.706 4.14.94 1.359 2.79 1.728 4.126.806a.355.355 0 0 0 0-.001c1.332-.923 1.645-2.784.705-4.144a3.03 3.03 0 0 0-2.481-1.313zm.005.706c.72.001 1.438.354 1.892 1.01.727 1.052.483 2.459-.524 3.157-1.014.698-2.412.427-3.14-.625-.725-1.053-.484-2.457.526-3.153a.355.355 0 0 0 0-.001 2.17 2.17 0 0 1 1.246-.388z" fill="#9fc87f" fill-opacity=".757" style="font-feature-settings:normal;font-variant-alternates:normal;font-variant-caps:normal;font-variant-east-asian:normal;font-variant-ligatures:normal;font-variant-numeric:normal;font-variant-position:normal;isolation:auto;mix-blend-mode:normal;shape-padding:0;text-decoration-color:#000;text-decoration-line:none;text-decoration-style:solid;text-indent:0;text-orientation:mixed;text-transform:none;white-space:normal"/>
        <path d="M65.511 31.558a10.417 10.417 0 0 0-5.978 1.857c-4.85 3.346-5.988 10.105-2.554 15.084 3.443 4.976 10.164 6.303 15.026 2.95a.355.355 0 0 0 0-.001c4.843-3.355 5.987-10.116 2.545-15.091-2.146-3.107-5.58-4.793-9.04-4.799zm.005.706c3.228.006 6.437 1.581 8.45 4.496 3.23 4.668 2.154 10.974-2.364 14.104v.001c-4.54 3.13-10.809 1.9-14.039-2.769C54.34 43.424 55.41 37.121 59.936 34a9.723 9.723 0 0 1 5.58-1.736z" fill="#9ec77f" style="font-feature-settings:normal;font-variant-alternates:normal;font-variant-caps:normal;font-variant-east-asian:normal;font-variant-ligatures:normal;font-variant-numeric:normal;font-variant-position:normal;isolation:auto;mix-blend-mode:normal;shape-padding:0;text-decoration-color:#000;text-decoration-line:none;text-decoration-style:solid;text-indent:0;text-orientation:mixed;text-transform:none;white-space:normal"/>
        <path d="M65.258 21.038a20.481 20.481 0 0 0-11.756 3.654c-9.54 6.58-11.78 19.87-5.017 29.675 6.777 9.796 19.994 12.403 29.557 5.807 9.525-6.596 11.78-19.892 5.002-29.69-4.226-6.118-10.983-9.433-17.785-9.445zm.005.706c6.572.012 13.103 3.217 17.196 9.144 6.565 9.489 4.378 22.33-4.822 28.702-9.24 6.372-22.004 3.863-28.57-5.627-6.55-9.497-4.378-22.33 4.837-28.687a19.789 19.789 0 0 1 11.358-3.532z" fill="#9ec77f" style="font-feature-settings:normal;font-variant-alternates:normal;font-variant-caps:normal;font-variant-east-asian:normal;font-variant-ligatures:normal;font-variant-numeric:normal;font-variant-position:normal;isolation:auto;mix-blend-mode:normal;shape-padding:0;text-decoration-color:#000;text-decoration-line:none;text-decoration-style:solid;text-indent:0;text-orientation:mixed;text-transform:none;white-space:normal"/>
        <path d="M64.751 0c-8.094-.014-16.22 2.33-23.314 7.247-18.917 13.05-23.362 39.4-9.945 58.855 13.45 19.44 39.657 24.604 58.62 11.525a.355.355 0 0 0 .001 0c18.886-13.08 23.363-39.445 9.914-58.886C91.64 6.6 78.24.025 64.75 0zm.005.706c13.26.023 26.434 6.49 34.687 18.437 13.237 19.134 8.828 45.045-9.734 57.9-18.64 12.854-44.396 7.789-57.633-11.345-13.207-19.15-8.829-45.043 9.764-57.868C48.814 2.997 56.8.692 64.757.706z" fill="#9fc87f" fill-opacity=".757" style="font-feature-settings:normal;font-variant-alternates:normal;font-variant-caps:normal;font-variant-east-asian:normal;font-variant-ligatures:normal;font-variant-numeric:normal;font-variant-position:normal;isolation:auto;mix-blend-mode:normal;shape-padding:0;text-decoration-color:#000;text-decoration-line:none;text-decoration-style:solid;text-indent:0;text-orientation:mixed;text-transform:none;white-space:normal"/>
        <path d="M65.638 36.82a5.38 5.38 0 0 0-3.088.959c-2.507 1.73-3.092 5.223-1.323 7.789 1.774 2.565 5.248 3.253 7.76 1.52 2.503-1.734 3.092-5.229 1.318-7.793a5.697 5.697 0 0 0-4.667-2.475zm.005.706a4.977 4.977 0 0 1 4.078 2.172c1.562 2.257 1.04 5.297-1.138 6.806-2.188 1.509-5.21.918-6.772-1.339-1.557-2.26-1.04-5.296 1.142-6.801a.355.355 0 0 0 .001-.001 4.687 4.687 0 0 1 2.69-.837z" fill="#9fc87f" fill-opacity=".757" style="font-feature-settings:normal;font-variant-alternates:normal;font-variant-caps:normal;font-variant-east-asian:normal;font-variant-ligatures:normal;font-variant-numeric:normal;font-variant-position:normal;isolation:auto;mix-blend-mode:normal;shape-padding:0;text-decoration-color:#000;text-decoration-line:none;text-decoration-style:solid;text-indent:0;text-orientation:mixed;text-transform:none;white-space:normal"/>
    </g>
    <g fill="#53a028">
        <path d="M3.633 49.26h1.41q.542 0 1.003-.136.461-.135.787-.46.325-.326.515-.841.19-.543.19-1.329 0-1.464-.515-2.115-.516-.65-1.817-.65H3.633zm-3.634-6.318q0-1.03.461-1.492.488-.46 1.492-.46h4.99q1.22 0 2.06.406.84.38 1.356 1.058.515.678.732 1.6.244.922.244 1.952 0 1.925-.57 2.929-.541.976-1.789 1.491.732.244 1.166.624.434.352.678.867.244.489.325 1.166.082.651.082 1.492v2.088q0 .813.108 1.573.136.732.136 1.464 0 .434-.407.813-.407.353-1.329.353-1.03 0-1.6-.434-.569-.46-.623-1.41l-.163-4.99Q7.267 52 5.206 52H3.633v6.996q0 .868-.542 1.383-.543.488-1.275.488-.732 0-1.274-.488-.543-.515-.543-1.383zM23.861 40.99q1.03 0 1.464.461.434.461.434 1.166 0 .705-.434 1.166-.434.461-1.464.461h-2.874v14.752q0 .868-.543 1.383-.542.488-1.274.488t-1.275-.488q-.542-.515-.542-1.383V44.244h-2.874q-1.031 0-1.465-.461t-.434-1.166q0-.705.434-1.166.434-.461 1.465-.461zM26.993 43.79q-.054-.298-.163-.76-.081-.46-.081-.623 0-.705.488-1.22.515-.543 1.383-.543.84 0 1.247.38.434.353.597 1.22L33.23 56.67h.054l2.386-14.1q.136-.868.516-1.384.38-.542 1.301-.542.868 0 1.329.434.461.434.461 1.22 0 .326-.054.678-.054.353-.136.786L35.86 58.92q-.135.624-.352 1.004t-.543.596q-.325.217-.813.272-.461.08-1.112.08-.705 0-1.193-.162-.461-.135-.76-.38-.298-.27-.46-.65-.163-.407-.272-.895z"/>
    </g>
    <g fill="#fff">
        <path d="M42.081 54.39q-.868 0-1.274-.461-.407-.461-.407-1.085t.407-1.084q.406-.461 1.274-.461h3.552q.868 0 1.275.46.407.462.407 1.085t-.407 1.085q-.407.461-1.275.461zM53.578 49.26h1.41q.542 0 1.003-.136.461-.135.787-.46t.515-.841q.19-.543.19-1.329 0-1.464-.515-2.115-.516-.65-1.817-.65h-1.573zm-3.634-6.318q0-1.03.461-1.492.488-.46 1.492-.46h4.99q1.22 0 2.06.406.84.38 1.356 1.058.515.678.732 1.6.244.922.244 1.952 0 1.925-.57 2.929-.541.976-1.789 1.491.732.244 1.166.624.434.352.678.867.244.489.325 1.166.082.651.082 1.492v2.088q0 .813.108 1.573.136.732.136 1.464 0 .434-.407.813-.407.353-1.329.353-1.03 0-1.6-.434-.569-.46-.623-1.41l-.163-4.99Q57.212 52 55.151 52h-1.573v6.996q0 .868-.542 1.383-.543.488-1.275.488t-1.274-.488q-.543-.515-.543-1.383zM64.114 47.47q0-1.03.434-1.491.46-.488 1.22-.488t1.193.488q.461.46.461 1.491v11.416q0 1.03-.46 1.519-.435.46-1.194.46-.76 0-1.22-.46-.434-.489-.434-1.519zM73.638 54.28q0 1.844.217 2.847.244 1.004 1.166 1.004.976 0 1.302-1.004.352-1.003.352-2.576v-2.766q0-1.111-.163-1.79-.135-.704-.38-1.084-.216-.407-.514-.542-.272-.136-.57-.136-.407 0-.678.19-.271.19-.434.678-.162.46-.244 1.247-.054.787-.054 2.007zm-3.471-3.064q0-1.14.136-2.17t.515-1.816q.38-.787 1.057-1.248.705-.488 1.817-.488.922 0 1.682.434.786.434 1.247 1.274h.054V42.62q0-1.03.434-1.492.461-.488 1.22-.488.76 0 1.193.488.461.461.461 1.492v16.27q0 1.03-.46 1.518-.434.461-1.194.461-.732 0-1.193-.488-.46-.488-.46-1.22h-.055q-.461.868-1.22 1.301-.76.407-1.709.407-1.112 0-1.817-.46-.678-.489-1.057-1.275-.38-.787-.515-1.817t-.136-2.17zM86.191 54.28q0 1.844.217 2.847.244 1.004 1.166 1.004.976 0 1.302-1.004.352-1.003.352-2.576v-2.766q0-1.111-.163-1.79-.135-.704-.38-1.084-.216-.407-.515-.542-.27-.136-.569-.136-.407 0-.678.19-.271.19-.434.678-.162.46-.244 1.247-.054.787-.054 2.007zm-3.471-3.064q0-1.14.136-2.17t.515-1.816q.38-.787 1.057-1.248.705-.488 1.817-.488.922 0 1.682.434.786.434 1.247 1.274h.054V42.62q0-1.03.434-1.492.461-.488 1.22-.488t1.193.488q.461.461.461 1.492v16.27q0 1.03-.46 1.518-.434.461-1.194.461-.732 0-1.193-.488-.46-.488-.46-1.22h-.055q-.461.868-1.22 1.301-.76.407-1.709.407-1.112 0-1.817-.46-.678-.489-1.057-1.275-.38-.787-.515-1.817t-.136-2.17zM101.511 51.3v-1.22q0-.84-.325-1.41-.299-.57-1.112-.57-.814 0-1.14.57-.297.57-.297 1.41v1.22zm-6.345.353q0-1.41.135-2.55.163-1.138.678-1.925.542-.813 1.546-1.247 1.003-.434 2.684-.434 2.577 0 3.58 1.464 1.03 1.437 1.03 4.312 0 .488-.054.922t-.244.76q-.19.325-.57.514-.352.163-.976.163h-4.338v1.491q0 .651.027 1.248.054.57.19 1.003.162.407.46.651t.814.244q.542 0 .895-.461.352-.461.38-1.058.054-1.084.488-1.41.434-.352 1.139-.352.732 0 1.193.325.488.326.488 1.302 0 2.007-1.247 3.145-1.22 1.112-3.254 1.112-1.682 0-2.685-.434-1.003-.434-1.546-1.22-.515-.813-.678-1.952-.135-1.14-.135-2.55zM107.141 47.28q0-.814.353-1.302.38-.488 1.193-.488.813 0 1.166.488.38.489.38 1.302v1.383h.054q.38-1.383.976-2.278.623-.895 1.491-.895.678 0 1.14.516.487.488.487 1.627 0 .759-.46 1.383-.435.596-1.6.596-.787 0-1.33.515-.542.516-.542 1.492v7.267q0 1.03-.46 1.519-.435.46-1.194.46t-1.22-.46q-.434-.488-.434-1.519zM116.201 42.62q0-1.03.434-1.491.46-.489 1.22-.489t1.193.489q.461.46.461 1.491v8.759h.055l2.874-4.502q.352-.542.786-.949.461-.434 1.004-.434.27 0 .542.082.298.081.542.271.244.163.38.434.163.271.163.624 0 .298-.109.542-.081.244-.325.596l-2.495 3.58 3.01 6.942q.19.407.19.95 0 .623-.488 1.002-.461.353-1.14.353-.677 0-1.111-.298-.407-.272-.705-.977l-2.115-4.99-1.058 1.357v2.928q0 1.03-.46 1.519-.435.46-1.194.46t-1.22-.46q-.434-.488-.434-1.519zM134.131 51.3v-1.22q0-.84-.325-1.41-.299-.57-1.112-.57t-1.14.57q-.297.57-.297 1.41v1.22zm-6.345.353q0-1.41.135-2.55.163-1.138.678-1.925.542-.813 1.546-1.247 1.003-.434 2.684-.434 2.577 0 3.58 1.464 1.03 1.437 1.03 4.312 0 .488-.054.922t-.244.76q-.19.325-.57.514-.352.163-.976.163h-4.338v1.491q0 .651.027 1.248.054.57.19 1.003.162.407.46.651.299.244.814.244.542 0 .895-.461t.38-1.058q.054-1.084.488-1.41.434-.352 1.139-.352.732 0 1.193.325.488.326.488 1.302 0 2.007-1.247 3.145-1.22 1.112-3.255 1.112-1.68 0-2.684-.434-1.003-.434-1.546-1.22-.515-.813-.678-1.952-.135-1.14-.135-2.55zM139.771 47.28q0-.814.353-1.302.38-.488 1.193-.488.813 0 1.166.488.38.489.38 1.302v1.383h.054q.38-1.383.976-2.278.623-.895 1.491-.895.678 0 1.14.516.487.488.487 1.627 0 .759-.46 1.383-.435.596-1.6.596-.787 0-1.33.515-.542.516-.542 1.492v7.267q0 1.03-.46 1.519-.435.46-1.194.46-.76 0-1.22-.46-.434-.488-.434-1.519zM148.821 42.62q0-1.03.434-1.491.46-.489 1.22-.489t1.193.489q.461.46.461 1.491v8.759h.055l2.874-4.502q.353-.542.786-.949.461-.434 1.004-.434.27 0 .542.082.298.081.542.271.244.163.38.434.163.271.163.624 0 .298-.109.542-.081.244-.325.596l-2.495 3.58 3.01 6.942q.19.407.19.95 0 .623-.488 1.002-.461.353-1.14.353t-1.111-.298q-.407-.272-.705-.977l-2.115-4.99-1.058 1.357v2.928q0 1.03-.46 1.519-.435.46-1.194.46t-1.22-.46q-.434-.488-.434-1.519z"/>
    </g>
    <path d="M63.869 42.43q0-.786.542-1.329.57-.57 1.356-.57t1.329.57q.57.543.57 1.329t-.57 1.356q-.542.542-1.329.542t-1.356-.542q-.542-.57-.542-1.356z" fill="#53a028"/>
</svg>
