<svg xmlns="http://www.w3.org/2000/svg" height="257.76" width="600" viewBox="0 0 158.75 68.198">
    <defs>
        <linearGradient id="a" gradientUnits="userSpaceOnUse" gradientTransform="translate(26.442 44.696) scale(120.39)" x1="0" x2="1" y1="0" y2="0">
            <stop stop-color="#558a2f" offset="0"/>
            <stop stop-color="#b8d917" offset="1"/>
        </linearGradient>
    </defs>
    <path d="M77.921 5.014c-8.809 1.83-18.374 4.76-28.09 8.784C17.261 27.287-4.397 47.826.758 59.876c1.502 3.513 5.137 5.946 10.338 7.309-3.241-1.415-5.522-3.443-6.611-6.087-4.925-11.95 15.951-32.787 48.121-47.121 8.651-3.855 17.237-6.852 25.315-8.963z" fill="#c3c2c0"/>
    <path fill="url(#a)" d="M124.09 14.75c-12.99 0-30.164 3.73-47.816 11.041a170.647 170.647 0 0 0-3.973 1.709 193.98 193.98 0 0 1 4.338 1.583c.563-.244 1.124-.49 1.694-.727C103.98 17.643 128.2 17.17 132.43 27.3c.57 1.364.74 2.852.56 4.431 4.35.3 8.34 1.421 11.65 3.135 2.19-4.099 2.81-7.92 1.54-11.181-2.32-5.991-10.56-8.935-22.09-8.935z" transform="translate(-17.765 -12.282)"/>
    <path d="M54.537 15.219C24.202 28.684 4.494 48.036 9.436 59.587c4.07 9.514 23.763 11.12 47.931 4.939-3.625-.949-6.868-2.303-9.56-3.966-13.326 1.669-23.421-.548-26.012-6.754-4.137-9.902 12.372-26.27 37.079-37.005a184.457 184.457 0 0 0-4.337-1.582z" fill="#666769"/>
    <g fill="#fff">
        <path d="M76.762 28.651c2.003 0 3.184-1.138 3.184-3.108 0-1.943-1.181-3.053-3.123-3.053h-3.216v6.161zm-7.129-6.161H67.66v-3.08h9.648c3.943 0 6.707 2.22 6.707 5.939 0 3.552-2.672 5.023-3.583 5.189v.056s.668.277 1.062.999l2.091 3.802c.34.582.85.638 1.52.638h.39v3.081h-2.09c-1.607 0-2.305-.223-3.003-1.473l-2.76-4.966c-.456-.777-.91-.916-2.034-.916h-2.001v7.355h-3.974zM95.235 36.449c2.52 0 4.61-1.776 4.61-4.412 0-2.609-2.09-4.412-4.61-4.412-2.49 0-4.58 1.803-4.58 4.412 0 2.636 2.09 4.412 4.58 4.412m0-11.821c4.73 0 8.49 3.079 8.49 7.409 0 4.356-3.76 7.409-8.49 7.409-4.7 0-8.46-3.053-8.46-7.409 0-4.33 3.76-7.409 8.46-7.409M107.215 28.568c0-.416-.24-.611-.67-.611h-1.21V24.96h3.55c1.36 0 2.03.583 2.03 1.582v.417c0 .304-.06.61-.06.61h.06c.67-1.193 2.34-2.942 5.46-2.942 3.43 0 5.4 1.637 5.4 5.384v5.522c0 .388.24.611.67.611h1.21v2.97h-3.67c-1.46 0-2.06-.556-2.06-1.888v-6.493c0-1.721-.49-2.887-2.43-2.887-2.06 0-3.61 1.193-4.16 2.887-.21.583-.3 1.221-.3 1.886v6.495h-3.82zM136.785 32.009c0-2.192-1.24-4.357-3.82-4.357-2.12 0-3.88 1.582-3.88 4.385 0 2.692 1.54 4.44 3.82 4.44 2 0 3.88-1.332 3.88-4.468m-4.58-7.381c3.37 0 4.46 1.719 4.46 1.719h.06s-.03-.36-.03-.832v-2.497c0-.416-.24-.61-.66-.61h-1.22V19.41h3.67c1.43 0 2.07.583 2.07 1.888v14.235c0 .388.24.61.66.61h1.19v2.971h-3.55c-1.4 0-1.91-.611-1.91-1.444v-.528h-.07s-1.27 2.304-4.82 2.304c-4.18 0-6.89-3.024-6.89-7.409 0-4.496 2.95-7.409 7.04-7.409M154.805 30.205c-.06-1.693-1.33-2.858-2.91-2.858-1.97 0-3.37 1.082-3.79 2.858zm-2.91-5.578c4.43 0 6.85 2.97 6.85 6.716 0 .416-.09 1.304-.09 1.304h-10.67c.3 2.498 2.3 3.801 4.64 3.801 2.48 0 4.33-1.581 4.33-1.581l1.61 2.442s-2.36 2.136-6.22 2.136c-5.12 0-8.31-3.385-8.31-7.408 0-4.358 3.22-7.41 7.86-7.41M47.874 42.727c-.181-.471-.424-.61-.94-.61h-.546v-3.08h2.518c1.517 0 2.062.361 2.548 1.609l4.125 10.989c.425 1.111.819 2.887.819 2.887h.061s.395-1.776.82-2.887l4.125-10.989c.486-1.248 1.002-1.609 2.518-1.609h2.549v3.08h-.577c-.516 0-.759.139-.941.61l-6.43 16.012h-4.187zM78.541 49.831c-.06-1.692-1.335-2.857-2.912-2.857-1.972 0-3.368 1.082-3.792 2.857zm-2.912-5.577c4.429 0 6.856 2.969 6.856 6.715 0 .417-.09 1.305-.09 1.305h-10.68c.304 2.497 2.306 3.801 4.642 3.801 2.488 0 4.338-1.581 4.338-1.581l1.61 2.442s-2.369 2.137-6.222 2.137c-5.125 0-8.311-3.386-8.311-7.41 0-4.357 3.215-7.409 7.857-7.409M86.215 48.194c0-.416-.24-.61-.67-.61h-1.21v-2.997h3.55c1.36 0 2.03.583 2.03 1.582v.416c0 .306-.06.611-.06.611h.06c.67-1.193 2.34-2.942 5.46-2.942 3.43 0 5.4 1.638 5.4 5.384v5.521c0 .39.24.611.67.611h1.21v2.969h-3.67c-1.46 0-2.06-.554-2.06-1.886v-6.494c0-1.721-.49-2.886-2.43-2.886-2.06 0-3.61 1.193-4.15 2.886-.22.583-.31 1.221-.31 1.887v6.493h-3.82zM114.935 49.831c-.06-1.692-1.33-2.857-2.91-2.857-1.97 0-3.37 1.082-3.79 2.857zm-2.91-5.577c4.43 0 6.86 2.969 6.86 6.715 0 .417-.09 1.305-.09 1.305h-10.68c.3 2.497 2.3 3.801 4.64 3.801 2.49 0 4.34-1.581 4.34-1.581l1.61 2.442s-2.37 2.137-6.22 2.137c-5.13 0-8.31-3.386-8.31-7.41 0-4.357 3.21-7.409 7.85-7.409M122.615 48.194c0-.416-.25-.61-.67-.61h-1.21v-2.997h3.55c1.36 0 2.03.583 2.03 1.582v.416c0 .306-.06.611-.06.611h.06c.67-1.193 2.33-2.942 5.46-2.942 3.43 0 5.4 1.638 5.4 5.384v5.521c0 .39.24.611.67.611h1.21v2.969h-3.67c-1.46 0-2.06-.554-2.06-1.886v-6.494c0-1.721-.49-2.886-2.43-2.886-2.06 0-3.61 1.193-4.16 2.886-.21.583-.3 1.221-.3 1.887v6.493h-3.82z"/>
    </g>
    <g fill="#9dc620">
        <path d="M14.131 6.291c0-.35-.188-.514-.515-.514h-.936V3.251h2.713c1.052 0 1.59.445 1.59 1.449v.703c0 .444-.047.748-.047.748h.047c.538-1.707 1.965-3.064 3.79-3.064.256 0 .537.047.537.047v2.923s-.304-.046-.725-.046c-1.263 0-2.712.725-3.251 2.502a7.245 7.245 0 0 0-.257 1.941v4.725h-2.946zM23.813 5.613H22.27V3.25h1.613V0h2.899v3.25h2.714v2.363h-2.714v4.818c0 1.965 1.545 2.245 2.363 2.245.327 0 .538-.047.538-.047v2.596s-.374.07-.912.07c-1.661 0-4.958-.491-4.958-4.49zM31.671 6.198c-.117-.304-.327-.421-.655-.421h-.257V3.251h1.707c.982 0 1.45.304 1.754 1.122l2.245 6.268c.257.702.445 1.708.445 1.708h.046s.187-1.006.421-1.708l2.246-6.268c.303-.818.795-1.122 1.754-1.122h1.59v2.526h-.281c-.328 0-.538.117-.654.421l-3.415 8.98h-3.532z"/>
    </g>
</svg>
