<svg version="1.1" viewBox="0 0 800 202.32" xmlns="http://www.w3.org/2000/svg">
 <g transform="matrix(.95673 0 0 .95673 -112.71 -.00038877)" fill="#f00" fill-opacity=".98824">
  <g transform="matrix(6.524,0,0,6.524,23.274,-97.859)" opacity=".996">
   <path d="m19.33 31.8a4.77 4.77 0 1 0-4.73-4.8 4.75 4.75 0 0 0 4.73 4.8zm0 4.89a4.78 4.78 0 1 0 4.72 4.78 4.76 4.76 0 0 0-4.72-4.78z"/>
   <path d="m86 21.73a12.5 12.5 0 0 0-12.72 12.64v0.08a12.65 12.65 0 1 0 25.29-0.08v-0.07a12.38 12.38 0 0 0-12.57-12.57zm6.8 12.72c0 4.2-2.94 7.38-6.84 7.38a6.58 6.58 0 0 1-5-2.26 7.86 7.86 0 0 1-1.89-5.2v-0.07c0-4.21 2.93-7.38 6.81-7.38a6.57 6.57 0 0 1 5 2.26 7.79 7.79 0 0 1 1.9 5.19z" Googl="true"/>
   <path d="m121.11 30.34a7.66 7.66 0 0 0-2-5.52c-1.58-1.71-4.07-2.58-7.4-2.58h-9.81v24.27h3.93a1.56 1.56 0 0 0 1.56-1.51v-6a0.21 0.21 0 0 1 0.21-0.22h2.57a0.21 0.21 0 0 1 0.19 0.11l0.11 0.17 4.66 7.43h4.77a0.82 0.82 0 0 0 0.69-1.27l-4.32-6.7-0.23-0.36a0.19 0.19 0 0 1 0-0.18 0.2 0.2 0 0 1 0.12-0.13l0.39-0.18a7.47 7.47 0 0 0 4.59-7.28zm-5.52 0.51c0 2.22-1.59 3.6-4.14 3.6h-3.85a0.21 0.21 0 0 1-0.21-0.22v-6.84a0.21 0.21 0 0 1 0.21-0.21h3.81c2.66 0 4.18 1.31 4.18 3.6z"/>
   <path d="m133.89 46.51a1.56 1.56 0 0 0 1.56-1.51v-17.53a0.21 0.21 0 0 1 0.21-0.22h7v-3.45a1.56 1.56 0 0 0-1.56-1.56h-18.33v3.45a1.55 1.55 0 0 0 1.55 1.56h5.43a0.21 0.21 0 0 1 0.21 0.22v19z"/>
   <path d="m46.38 15h-4.5a0.59 0.59 0 0 0-0.47 0.22l-0.49 0.58a1.25 1.25 0 0 1-1 0.46h-0.1a1.27 1.27 0 0 1-1-0.46l-0.48-0.59a0.64 0.64 0 0 0-0.47-0.21h-4.5a0.1 0.1 0 0 0-0.09 0.05 0.11 0.11 0 0 0 0 0.11l2 2.59a5.17 5.17 0 0 0 4.1 2h0.87a5.16 5.16 0 0 0 4.1-2l2-2.59a0.09 0.09 0 0 0 0-0.11 0.08 0.08 0 0 0 0.03-0.05z"/>
   <path d="m61.57 39.24a10.79 10.79 0 0 0 7-2.19 8 8 0 0 0 2.71-6.38v-0.08a7.92 7.92 0 0 0-2.51-6.14 10.2 10.2 0 0 0-6.88-2.21h-9.7v24.27h3.93a1.56 1.56 0 0 0 1.57-1.51v-5.54a0.22 0.22 0 0 1 0.22-0.22zm-3.88-4.57v-7.46a0.22 0.22 0 0 1 0.22-0.22h3.49a4.81 4.81 0 0 1 3.2 1 3.71 3.71 0 0 1 1.22 2.93v0.08c0 2.37-1.72 3.9-4.39 3.9h-3.52a0.22 0.22 0 0 1-0.22-0.23z"/>
   <path d="m49.25 39.17a5.68 5.68 0 0 0-2.19-4.81c-1.33-1.06-3.28-1.84-6.31-2.54s-4.6-1.3-4.6-3v-0.12c0-1.34 1.17-2.21 3-2.21a11.31 11.31 0 0 1 5.33 1.51 1.56 1.56 0 0 0 2.06-0.49l1.86-2.79a14.15 14.15 0 0 0-9.09-2.91 9.42 9.42 0 0 0-6.42 2.19 7 7 0 0 0-2.29 5.41v0.07c0 4.94 3.9 6.29 8.6 7.43 3.45 0.84 4.5 1.54 4.5 3v0.07c0 1.46-1.25 2.33-3.33 2.33a12 12 0 0 1-6.55-2 1.55 1.55 0 0 0-0.82-0.31 1.58 1.58 0 0 0-1.23 0.59l-2.08 2.64a15.76 15.76 0 0 0 10.45 3.69c5.62 0 9.12-2.95 9.12-7.7z"/>
  </g>
 </g>
</svg>
