<svg version="1.1" viewBox="0 0 412.44 79.383" xml:space="preserve" xmlns="http://www.w3.org/2000/svg">
  
  
  <g transform="matrix(1.3333 0 0 -1.3333 -115.96 1209.2)">
    <g transform="translate(191.62 858.76)">
      <path d="m0 0h-5.068v-6.326h-87.787v6.326h-5.068v-6.813c0-2.53 2.05-4.581 4.58-4.581h88.762c2.53 0 4.581 2.051 4.581 4.581z" fill="#52c4b9"/>
    </g>
    <g transform="translate(191.62 895.51)">
      <path d="m0 0h-5.068v6.326h-87.787v-6.326h-5.068v6.813c0 2.53 2.05 4.581 4.58 4.581h88.762c2.53 0 4.581-2.051 4.581-4.581z" fill="#52c4b9"/>
    </g>
    <g transform="translate(162.86 883.72)">
      <path d="m0 0v-19.889h6.724v19.889h5.802v6.724h-18.328v-6.724z" fill="#52c4b9"/>
    </g>
    <g transform="translate(191.62 890.44)">
      <path d="m0 0v-20.414h-5.068v20.414h-6.724v-21.408c0-3.47 2.128-5.205 6.384-5.205h5.748c4.256 0 6.384 1.735 6.384 5.205v21.408z" fill="#52c4b9"/>
    </g>
    <g transform="translate(146.24 890.44)">
      <path d="m0 0v-20.414h-5.068v20.414h-6.724v-21.408c0-3.47 2.128-5.205 6.384-5.205h5.748c4.256 0 6.384 1.735 6.384 5.205v21.408z" fill="#52c4b9"/>
    </g>
    <g transform="translate(122.43 890.44)">
      <path d="m0 0v-20.414h-5.068v20.414h-6.724v-21.408c0-3.47 2.128-5.205 6.384-5.205h5.748c4.256 0 6.384 1.735 6.384 5.205v21.408z" fill="#52c4b9"/>
    </g>
    <g transform="translate(105.58 878.13)">
      <path d="m0 0v6.756c0 3.683-2.081 5.536-6.242 5.559h-12.366v-26.614h6.724v8.643h0.423l4.893-8.637h7.269l-4.894 8.991c2.864 0.433 4.193 2.2 4.193 5.302m-6.436 1.693c0.025-1.311-0.45-1.967-1.426-1.967h-4.022v6.585h4.022c0.976 0 1.451-0.422 1.426-1.266z" fill="#52c4b9"/>
    </g>
    <g transform="translate(214.81 900.58)">
      <path d="m0 0h-6.33v6.33h-5.068v-6.33h-6.331v-5.068h6.331v-6.33h5.068v6.33h6.33z" fill="#52c4b9"/>
    </g>
    <g transform="translate(214.4 872.54)">
      <path d="m0 0v17.896h5.205v-17.478c0-2.583 1.368-4.522 4.94-4.522 3.571 0 4.939 1.939 4.939 4.522v17.478h5.243v-17.896c0-5.737-4.332-9.232-10.182-9.232-5.814 0-10.145 3.495-10.145 9.232" fill="#231f20"/>
    </g>
    <g transform="translate(245.79 877.67)">
      <path d="m0 0h5.396c1.975 0 3.609 1.747 3.609 3.951 0 2.203-1.634 3.913-3.609 3.913h-5.396zm3.989-4.598h-3.989v-9.232h-5.243v26.596h10.639c4.901 0 8.852-3.952 8.852-8.815 0-3.344-2.09-6.345-5.129-7.751l5.889-10.03h-5.661z" fill="#231f20"/>
    </g>
    <g transform="translate(285.16 890.44)">
      <path d="m0 0v-26.596h-5.206v11.019h-9.878v-11.019h-5.243v26.596h5.243v-10.563h9.878v10.563z" fill="#231f20"/>
    </g>
    <g transform="translate(307.6 868.86)">
      <path d="m0 0v-5.015h-16.451v26.596h16.262v-5.016h-11.019v-5.661h10.068v-4.938h-10.068v-5.966z" fill="#231f20"/>
    </g>
    <path d="m317.89 863.84h-5.243v26.596h5.243z" fill="#231f20"/>
    <g transform="translate(339.19 868.86)">
      <path d="m0 0v-5.015h-15.388v26.596h5.243v-21.581z" fill="#231f20"/>
    </g>
    <g transform="translate(342.19 872.54)">
      <path d="m0 0v17.896h5.205v-17.478c0-2.583 1.368-4.522 4.94-4.522 3.571 0 4.939 1.939 4.939 4.522v17.478h5.243v-17.896c0-5.737-4.332-9.232-10.182-9.232-5.814 0-10.145 3.495-10.145 9.232" fill="#231f20"/>
    </g>
    <g transform="translate(391.09 872.58)">
      <path d="m0 0c0 2.66-1.976 4.294-4.445 4.294-2.47 0-4.409-1.596-4.409-4.294 0-2.697 1.939-4.331 4.409-4.331 2.469 0 4.445 1.634 4.445 4.331m5.205 0c0-5.433-3.951-9.271-9.65-9.271-5.701 0-9.614 3.838-9.614 9.271 0 2.052 0.571 3.876 1.558 5.357l8.283 12.5h6.003l-5.889-8.625c5.509-0.151 9.309-3.913 9.309-9.232" fill="#231f20"/>
    </g>
  </g>
</svg>
