<svg xmlns="http://www.w3.org/2000/svg" height="79.383" width="410.665">
    <path d="M139.53 64.191h-6.757v8.435H15.723v-8.435H8.966v9.084a6.107 6.107 0 0 0 6.107 6.108h118.349a6.108 6.108 0 0 0 6.108-6.108zM139.53 15.192h-6.757V6.757H15.723v8.435H8.966V6.108A6.107 6.107 0 0 1 15.073 0h118.349a6.108 6.108 0 0 1 6.108 6.108zM101.19 30.915v26.518h8.965V30.915h7.736v-8.966H93.454v8.966zM139.53 21.95v27.218h-6.757V21.95h-8.966v28.544c0 4.626 2.838 6.94 8.512 6.94h7.664c5.675 0 8.512-2.314 8.512-6.94V21.95zM79.032 21.95v27.218h-6.757V21.95H63.31v28.544c0 4.626 2.837 6.94 8.512 6.94h7.664c5.674 0 8.512-2.314 8.512-6.94V21.95zM47.275 21.95v27.218h-6.758V21.95h-8.965v28.544c0 4.626 2.837 6.94 8.512 6.94h7.664c5.675 0 8.512-2.314 8.512-6.94V21.95zM24.81 38.37V29.36c0-4.91-2.774-7.381-8.322-7.412H0v35.485h8.965V45.91h.564l6.524 11.516h9.692L19.22 45.438c3.819-.577 5.59-2.933 5.59-7.069m-8.58-2.257c.033 1.748-.6 2.622-1.902 2.622H8.965v-8.78h5.363c1.301 0 1.935.563 1.901 1.687zM170.45 8.44h-8.44V0h-6.757v8.44h-8.441v6.757h8.441v8.44h6.757v-8.44h8.44z" fill="#52c4b9"/>
    <path d="M169.907 45.816V21.955h6.94v23.304c0 3.444 1.824 6.029 6.587 6.029 4.761 0 6.585-2.585 6.585-6.03V21.956h6.991v23.861c0 7.65-5.776 12.31-13.576 12.31-7.752 0-13.527-4.66-13.527-12.31M211.761 38.976h7.195c2.633 0 4.812-2.33 4.812-5.268 0-2.937-2.179-5.217-4.812-5.217h-7.195zm5.32 6.13h-5.32v12.31h-6.99V21.955h14.185c6.535 0 11.803 5.27 11.803 11.753 0 4.459-2.787 8.46-6.839 10.335l7.852 13.373h-7.548zM264.26 21.955v35.462h-6.941V42.725h-13.17v14.692h-6.992V21.955h6.991V36.04h13.17V21.955zM294.168 50.73v6.687h-21.935V21.955h21.683v6.688h-14.692v7.548h13.424v6.584h-13.424v7.955zM307.896 57.416h-6.99v-35.46h6.99zM336.298 50.73v6.687h-20.517V21.955h6.99V50.73zM340.293 45.816V21.955h6.94v23.304c0 3.444 1.824 6.029 6.586 6.029 4.762 0 6.586-2.585 6.586-6.03V21.956h6.99v23.861c0 7.65-5.776 12.31-13.576 12.31-7.752 0-13.526-4.66-13.526-12.31M386.957 52.199l12.108-12.463c2.278-2.381 4.052-4.71 4.052-7.092 0-2.837-1.924-4.61-4.61-4.61-2.736 0-4.762 1.622-5.928 4.154l-5.876-3.445c2.28-5.066 6.89-7.498 11.703-7.498 6.079 0 11.701 4.054 11.701 11.147 0 4.305-2.48 8.003-5.825 11.347l-6.94 6.94h13.323v6.737h-23.708z" fill="#fff"/>
</svg>
