<svg width="211.67mm" height="88.786mm" version="1.1" viewBox="0 0 211.67 88.786" xmlns="http://www.w3.org/2000/svg" xmlns:xlink="http://www.w3.org/1999/xlink">
 <defs>
  <linearGradient id="b" x1="87.937" x2="208.05" y1="48.153" y2="47.268" gradientTransform="matrix(3.6218 0 0 3.6218 -468.19 -86.476)" gradientUnits="userSpaceOnUse">
   <stop stop-color="#184691" offset="0"/>
   <stop stop-color="#1dace4" offset="1"/>
  </linearGradient>
  <linearGradient id="a" x2="724.15" y1="149.77" y2="149.77" gradientUnits="userSpaceOnUse">
   <stop stop-color="#f39b20" offset="0"/>
   <stop stop-color="#fcdb00" offset="1"/>
  </linearGradient>
 </defs>
 <g transform="translate(10.032 4.2079)">
  <path d="m-1.7898-4.1226c0.15909 0.011714 0.26914 0.024562 0.28337 0.039388 0.069233 0.071901-0.19927 0.66657-0.59629 1.3217-0.39691 0.65506-1.0489 2.0336-1.4486 3.063-0.3997 1.0294-0.78869 2.0246-0.86435 2.2117-0.075585 0.18717-0.29053 0.76109-0.47758 1.2757-0.18725 0.5147-0.46941 1.2794-0.62692 1.6992-0.15765 0.41974-0.47423 1.3384-0.70406 2.0416-0.22966 0.70323-0.48656 1.4321-0.57058 1.6193-0.16204 0.36082-0.95055 2.9473-1.5039 4.9339-0.32609 1.1715-0.55538 2.1015-0.87091 3.5307-0.087971 0.3977-0.24119 1.0828-0.34082 1.5219-0.099192 0.43917-0.18053 1.0323-0.18053 1.3184 0 0.28608-0.07716 0.52025-0.17123 0.52025-0.034756 0-0.062217-0.44292-0.083699-1.2287v14.756c0.023731-0.96935 0.050751-1.6165 0.084247-1.6165 0.093582 0 0.17013 0.2196 0.17013 0.48797 0 0.74829 0.96965 3.5317 1.726 4.9547 1.1005 2.0704 3.2506 4.6023 4.9946 5.8814 0.3745 0.27451 0.71906 0.54358 0.76588 0.59793 0.31768 0.36898 2.5338 1.693 3.976 2.3753 4.4287 2.0952 8.268 2.9213 13.634 2.9339 3.6254 0.0084 5.2597-0.16651 9.3579-1.0033 0.74864-0.15284 1.6673-0.33528 2.0416-0.40537 1.8881-0.35349 3.6371-0.71158 4.1883-0.85724 0.33849-0.08946 0.93056-0.16248 1.3157-0.16248 0.62484 0 0.71135 0.05012 0.80526 0.46774 0.74075 3.2931 3.2726 7.5487 5.7129 9.6019 1.8871 1.5878 4.075 2.7728 6.1839 3.3491 1.7155 0.46888 2.1371 0.53136 3.587 0.53228 3.3175 0.0021 5.4863-1.3423 7.7933-4.8316 2.078-3.1426 2.9043-5.5156 2.7916-8.0138-0.05886-1.3011-0.15452-1.7102-0.63732-2.7221-2.3801-4.9887-10.804-7.8811-19.829-6.8081-1.1223 0.13344-2.0909 0.18868-2.1521 0.12254-0.06119-0.06617-0.16287-0.44005-0.22648-0.83098-0.10247-0.63176-0.06933-0.74108 0.30198-0.98415 0.69646-0.45636 2.6363-0.9844 4.7129-1.2828 1.6766-0.24103 9.6255-0.14135 11.825 0.14825 0.74863 0.09854 1.9735 0.25714 2.7221 0.35285 2.0853 0.26655 6.2022 0.91714 8.6774 1.3709 1.1284 0.20685 1.9684 0.3477 6.0406 1.0159 1.5145 0.24847 4.0928 0.679 5.1467 0.85888 0.5381 0.09191 1.4188 0.24165 1.9568 0.33316 2.1546 0.36654 6.6552 1.0643 8.8048 1.3649 0.74864 0.1047 1.8205 0.25873 2.3819 0.34191 1.9901 0.29488 4.8364 0.66768 6.551 0.85833 0.79545 0.0885 2.0968 0.24 2.8923 0.33699 3.6066 0.4398 7.5168 0.78777 12.336 1.0979 4.5333 0.29176 15.764 0.34252 18.859 0.08534 5.6009-0.46538 8.2774-0.74478 9.7255-1.0153 0.46788-0.08743 1.4631-0.24594 2.2117-0.35285 0.74866-0.1069 1.9355-0.30805 2.6374-0.4464 0.70188-0.13836 1.659-0.3213 2.127-0.40646 5.1225-0.93226 10.743-2.5241 15.313-4.3376 2.1734-0.86235 6.0196-2.7604 7.2529-3.5794 0.40943-0.27188 0.95301-0.60181 1.2084-0.7336 0.78621-0.40555 3.8923-2.8033 5.1932-4.0088 0.67845-0.62875 1.2336-1.0784 1.2336-0.99947 0 0.07899-0.1218 0.67921-0.27023 1.3343-0.6339 2.7963-0.45323 5.1207 0.46937 6.0433 0.44252 0.44251 0.62968 0.50712 1.4606 0.50712 0.52426 0 1.2266-0.09326 1.5608-0.20733 1.823-0.62212 3.9252-2.7717 5.5718-5.6976l0.65046-1.1559 0.0984 1.0208c0.26808 2.7784 1.8446 3.6741 4.2626 2.4224 1.4489-0.75007 2.7985-2.3867 4.6626-5.6538 1.616-2.8323 4.9769-9.4598 5.8683-11.571 0.31608-0.74865 0.6358-1.4341 0.71062-1.523 0.0748-0.08894 0.13622 11.339 0.13622 25.394v-27.832l-0.6335 0.72211c-0.35089 0.40006-0.85793 1.1389-1.1269 1.6423-0.26887 0.5033-0.70003 1.298-0.9579 1.7659-0.25766 0.46791-0.79357 1.4631-1.1904 2.2117-2.009 3.7895-2.53 4.5523-3.5012 5.1215-1.112 0.6517-2.3367 0.49544-2.9043-0.3709-0.64205-0.97991-0.0159-4.9517 1.2281-7.7791 0.33447-0.76042 0.65256-1.7569 0.70678-2.2145 0.0884-0.74716 0.0661-0.82567-0.21882-0.7708-0.79633 0.15336-2.8941 3.8033-4.9191 8.5587-1.6658 3.9122-2.109 4.588-3.6412 5.5597-0.59924 0.38002-0.97003 0.48797-1.6778 0.48797-1.1446 0-1.6463-0.32066-2.0159-1.2883-0.43406-1.1365-0.25428-1.8283 1.0421-4.0072 4.1846-7.0326 5.3765-9.3563 5.615-10.947 0.10318-0.68835 0.0805-0.77244-0.21115-0.77244-0.3957 0-1.1184 0.97289-2.5285 3.4032-2.2808 3.9312-3.621 5.8443-5.7999 8.2797-1.9681 2.1998-5.1917 4.6786-7.9728 6.1308-3.6172 1.8887-9.3743 4.0469-14.208 5.3256-0.79546 0.21045-1.9443 0.51848-2.5526 0.68437-1.0549 0.28768-3.1866 0.7844-5.0192 1.1701-6.2579 1.3172-16.114 2.2258-24.178 2.2287-8.5792 0.0032-21.578-0.99386-30.945-2.3737-4.2883-0.63168-15.201-2.361-19.401-3.0744-15.08-2.5614-19.678-3.1225-25.693-3.1352-4.0412-0.0084-5.4038 0.1712-7.6188 1.0049-1.9788 0.74483-2.6682 1.1984-4.3453 2.8589-1.2533 1.2409-2.5665 3.0459-3.0482 4.1888-0.54186 1.2856-1.0664 2.8403-1.0689 3.1685-0.0085 0.78834-0.20598 0.84963-6.1226 1.878-5.1849 0.90118-8.2117 1.0752-11.656 0.67014l0.0011 5.46e-4c-2.5335-0.298-4.2162-0.66818-6.6095-1.4541-7.6763-2.5206-12.197-6.809-13.888-13.174-1.2903-4.8576-1.0693-10.453 0.70297-17.781 0.47488-1.9634 2.8904-9.4374 4.0137-12.42l0.48031-1.2763zm43.064 50.994c1.0828 0.01338 2.6747 0.14316 3.464 0.32878 3.2115 0.75532 6.6268 2.3957 8.4104 4.0395 0.73063 0.6733 1.533 1.9003 1.3572 2.0761-0.20245 0.20245-1.8171 0.50208-2.5887 0.48032-0.33809-0.0081-1.2331-0.12113-1.9891-0.24836-1.7037-0.28647-3.507-0.92638-4.83-1.7145-1.3866-0.82594-4.9399-4.3126-4.9399-4.8469 0-0.08926 0.4663-0.12291 1.116-0.11488z" fill="#fff" opacity=".99383" stroke-width=".16806"/>
  <g transform="matrix(1.0586 0 0 1.0586 -146.88 -29.484)" opacity=".99383" stroke-width="3.6218">
   <path transform="matrix(.2761 0 0 .2761 129.27 23.877)" d="m723.69 62.609c-0.25599 0.30423-1.3502 2.6496-2.4316 5.2109-3.0496 7.2223-14.549 29.896-20.078 39.586-6.3773 11.178-10.996 16.778-15.953 19.344-8.273 4.2824-13.665 1.2187-14.582-8.2871l-0.33594-3.4922-2.2266 3.9551c-5.6334 10.01-12.825 17.364-19.062 19.492-1.1434 0.39029-3.5462 0.71094-5.3398 0.71094-2.8429 0-3.4841-0.22433-4.998-1.7383-3.1565-3.1564-3.7742-11.107-1.6055-20.674 0.50785-2.2412 0.92578-4.2962 0.92578-4.5664 0-0.27008-1.8995 1.2688-4.2207 3.4199-4.4508 4.1245-15.078 12.327-17.768 13.715-0.87387 0.45088-2.734 1.5816-4.1348 2.5117-4.2194 2.8018-17.379 9.2958-24.814 12.246-15.635 6.2045-34.863 11.65-52.389 14.84-1.6008 0.29138-4.876 0.91726-7.2773 1.3906-2.4013 0.47333-6.4601 1.1596-9.0215 1.5254s-5.9676 0.90989-7.5684 1.209c-4.9546 0.92563-14.109 1.8824-33.271 3.4746-10.59 0.87989-49.014 0.70521-64.523-0.29297-16.488-1.0612-29.866-2.2512-42.205-3.7559-2.7214-0.33183-7.175-0.85151-9.8965-1.1543-5.8659-0.65226-15.602-1.9286-22.41-2.9375-1.9206-0.28457-5.5891-0.80974-8.1504-1.168-7.3545-1.0286-22.754-3.4159-30.125-4.6699-1.8406-0.31307-4.8524-0.82618-6.6934-1.1406-3.6055-0.61542-12.428-2.0874-17.609-2.9375-13.932-2.286-16.806-2.7689-20.666-3.4766-8.4682-1.5525-22.553-3.7775-29.688-4.6894-2.5614-0.32745-6.7532-0.87183-9.3144-1.209-7.5236-0.99082-34.719-1.3305-40.455-0.50586-7.1046 1.0211-13.74 2.8274-16.123 4.3887-1.2704 0.83161-1.3838 1.2058-1.0332 3.3672 0.21764 1.3375 0.56605 2.6174 0.77539 2.8438 0.20934 0.22629 3.5215 0.0386 7.3613-0.41797 30.876-3.6711 59.699 6.2232 67.842 23.291 1.6518 3.4621 1.9783 4.8609 2.1797 9.3125 0.38537 8.5471-2.4435 16.666-9.5527 27.418-7.893 11.938-15.312 16.537-26.662 16.529-4.9608-3e-3 -6.4043-0.21613-12.273-1.8203-7.215-1.9717-14.7-6.0266-21.156-11.459-8.349-7.0245-17.011-21.583-19.545-32.85-0.32129-1.4288-0.61812-1.6016-2.7559-1.6016-1.3175 0-3.3419 0.25056-4.5 0.55664-1.8855 0.49832-7.8702 1.7242-14.33 2.9336-1.2807 0.2398-4.4231 0.8638-6.9844 1.3867-14.021 2.8629-19.614 3.4602-32.018 3.4316-18.359-0.0431-31.493-2.8688-46.645-10.037-4.934-2.3343-12.517-6.8646-13.604-8.127-0.16016-0.18595-1.3398-1.1058-2.6211-2.0449-5.9666-4.3762-13.323-13.039-17.088-20.123-2.5875-4.8684-5.9043-14.391-5.9043-16.951 0-0.91817-0.26186-1.6699-0.58203-1.6699-0.3833 0-0.58203 18.725-0.58203 55.012l0.0078125 55.01h724.15v-87.434c0-48.087-0.20878-87.185-0.46485-86.881zm-548.16 112.15c-2.2228-0.0275-3.8203 0.0872-3.8203 0.39258 0 1.8279 12.158 13.756 16.902 16.582 4.5262 2.6963 10.696 4.8871 16.525 5.8672l-2e-3 -2e-3c2.5863 0.43531 5.6499 0.82404 6.8066 0.85157 2.6396 0.0745 8.1628-0.9519 8.8555-1.6445 0.60122-0.60122-2.1429-4.798-4.6426-7.1016-6.1024-5.6236-17.788-11.236-28.775-13.82-2.7003-0.63506-8.145-1.0792-11.85-1.125z" fill="url(#a)" style="paint-order:stroke markers fill"/>
   <path transform="matrix(.2761 0 0 .2761 129.27 23.877)" d="m724.17 0-690.64 0.29102-1.6445 4.3672c-3.8431 10.206-12.106 35.777-13.73 42.494-6.0634 25.07-6.8209 44.213-2.4062 60.832 5.784 21.777 21.253 36.451 47.516 45.074 8.1882 2.6888 13.944 3.9551 22.611 4.9746l-2e-3 -2e-3c11.782 1.3858 22.136 0.79021 39.875-2.293 20.243-3.5185 20.918-3.7286 20.947-6.4258 9e-3 -1.1231 1.8024-6.4415 3.6562-10.84 1.6479-3.9101 6.1438-10.087 10.432-14.332 5.7377-5.6812 8.0953-7.233 14.865-9.7812 7.5783-2.8525 12.24-3.4661 26.066-3.4375 20.579 0.0435 36.31 1.9632 87.902 10.727 14.371 2.4407 51.705 8.3564 66.377 10.518 32.049 4.7207 76.521 8.132 105.87 8.1211 27.587-0.01 61.309-3.1164 82.719-7.623 6.2697-1.3198 13.563-3.0216 17.172-4.0059 2.0811-0.56754 6.011-1.6218 8.7324-2.3418 16.536-4.3748 36.232-11.757 48.607-18.219 9.5149-4.9684 20.544-13.448 27.277-20.975 7.4544-8.332 12.041-14.879 19.844-28.328 4.8243-8.3149 7.2966-11.643 8.6504-11.643 0.99803 0 1.0758 0.28756 0.72265 2.6426-0.81599 5.4425-4.8943 13.393-19.211 37.453-4.4354 7.4544-5.0515 9.8206-3.5664 13.709 1.2644 3.3106 2.9825 4.4082 6.8984 4.4082 2.4215 0 3.6901-0.36976 5.7402-1.6699 5.2422-3.3245 6.7577-5.6367 12.457-19.021 6.9282-16.27 14.104-28.757 16.828-29.281 0.97477-0.18772 1.0524 0.08048 0.75 2.6367-0.18551 1.5653-1.2736 4.9746-2.418 7.5762-4.2564 9.6735-6.3978 23.263-4.2012 26.615 1.942 2.964 6.1312 3.4992 9.9355 1.2695 3.3227-1.9474 5.1054-4.5565 11.979-17.521 1.3576-2.5613 3.1907-5.9675 4.0723-7.5684 0.88223-1.6008 2.3575-4.3191 3.2773-6.041 0.9203-1.7222 2.6569-4.2504 3.8574-5.6191l2.1816-2.4883zm-704.1 0.10938c-1.7218-0.004035-3.601 0.003832-5.5566 0.025391l-14.221 0.15625-0.15039 42.934-0.001953-0.0039c-0.09855 28.517 0.048734 42.934 0.4375 42.934 0.32183 0 0.58594-0.80054 0.58594-1.7793 0-0.97869 0.27978-3.0092 0.61914-4.5117 0.34085-1.5023 0.86309-3.8444 1.1641-5.2051 1.0795-4.8898 1.8648-8.0722 2.9805-12.08 1.893-6.7967 4.5901-15.646 5.1445-16.881 0.28746-0.64034 1.1655-3.1331 1.9512-5.5391 0.7863-2.406 1.8708-5.5483 2.4102-6.9844 0.53889-1.436 1.5039-4.0535 2.1445-5.8145 0.63994-1.7607 1.3762-3.7249 1.6348-4.3652 0.25885-0.64034 1.5895-4.0446 2.957-7.5664 1.3676-3.5219 3.5972-8.2374 4.9551-10.479 1.3583-2.2413 2.2779-4.2774 2.041-4.5234-0.17711-0.1845-3.9303-0.3043-9.0957-0.31641z" fill="url(#b)" style="paint-order:stroke markers fill"/>
  </g>
  <g transform="matrix(1.0494 0 0 1.163 -10.032 -4.2079)" fill="#209fd6" opacity=".99383" aria-label="D U B A I">
   <path d="m3.1143 64.904v8.651h2.0574q3.061 0 3.061-4.3255t-3.061-4.3255zm-2.9104-2.79h4.9678q5.9714 0 5.9714 7.1155t-5.9714 7.1155h-4.9678z" stroke-width=".51384"/>
   <path d="m49.107 62.114h3.2222v9.0224q0 2.4187 2.6111 2.4187 2.5 0 2.5-2.4187v-9.0224h3.2222v9.0224q0 5.2087-5.7221 5.2087-5.8332 0-5.8332-5.2087z" stroke-width=".54066"/>
   <path d="m99.557 62.114h6.0282q4.6653 0 4.6653 4.2553 0 2.3183-2.5371 2.8502 2.7468 0.45162 2.7468 2.8703 0 4.2553-4.6653 4.2553h-6.2379zm3.0403 2.79v2.9305h2.9879q1.625 0 1.625-1.4452 0-1.4853-1.625-1.4853zm0 5.7205v2.9305h3.1976q1.625 0 1.625-1.4452 0-1.4853-1.625-1.4853z" stroke-width=".52518"/>
   <path d="m152.45 62.114h3.4206l5.131 14.231h-3.5213l-0.96135-2.8603h-4.7062l-0.96136 2.8603h-3.5213zm1.7103 4.3857-1.4197 4.195h2.8394z" stroke-width=".5423"/>
   <path d="m198.37 62.114h2.9104v14.231h-2.9104z" stroke-width=".51384"/>
  </g>
 </g>
</svg>
