<svg width="600" height="184.91" viewBox="0 0 158.75 48.925" xmlns="http://www.w3.org/2000/svg">
    <g fill="#fff">
        <path d="M124.595 24.46l.015 18.948h10.183c2.535 0 4.993-.498 7.332-1.494a19.155 19.155 0 0 0 6.035-4.058c3.605-3.59 5.596-8.357 5.596-13.41 0-5.07-1.976-9.837-5.566-13.412-3.576-3.59-8.343-5.551-13.396-5.551h-13.05V.776h13.307c3.198 0 6.306.588 9.232 1.825.317.136.619.302.936.453.06.03.12.06.196.09.648.317 1.267.664 1.87 1.026.03.015.06.03.076.046.633.377 1.237.8 1.825 1.237.015.015.046.03.06.045.574.422 1.117.875 1.645 1.358.06.045.106.09.15.135.257.227.529.453.77.694.242.242.468.513.694.755.045.06.09.105.151.166.468.528.92 1.07 1.343 1.644.015.015.03.045.045.06.452.589.86 1.192 1.237 1.826.015.015.03.045.045.06.362.619.71 1.252 1.026 1.9.03.046.06.106.09.167.151.332.317.618.453.95a23.582 23.582 0 0 1 1.856 9.233c0 3.198-.619 6.29-1.856 9.217-.136.332-.302.634-.467.95a.56.56 0 0 1-.076.167 25.336 25.336 0 0 1-1.026 1.9c-.015.03-.03.046-.045.076a23.96 23.96 0 0 1-1.237 1.81c-.015.03-.03.045-.045.076a33.732 33.732 0 0 1-1.343 1.644.715.715 0 0 0-.15.15c-.227.257-.454.514-.695.755-.241.257-.513.468-.77.71-.045.044-.09.09-.15.135-.528.468-1.071.92-1.645 1.343-.015.03-.045.045-.06.06-.588.437-1.192.845-1.825 1.222-.015.015-.046.03-.076.045-.603.377-1.237.71-1.885 1.026l-.181.09c-.317.151-.619.317-.936.453a23.583 23.583 0 0 1-9.232 1.856H119.92V24.46M92.235.77h-4.722v47.37h29.146v-4.722H92.235M78.905 36.23c-3.606 4.842-9.338 7.996-15.84 7.996s-12.25-3.153-15.84-7.996h-5.627c4.164 7.573 12.205 12.702 21.467 12.702 9.248 0 17.304-5.13 21.452-12.702M47.175 12.77c3.59-4.873 9.353-8.04 15.886-8.04 6.517 0 12.28 3.167 15.871 8.04h5.612C80.395 5.167 72.324.007 63.061.007c-9.278 0-17.349 5.16-21.498 12.763M31.228 22.1v4.722h2.912v16.58H23.972c-2.535 0-5.009-.498-7.332-1.494a18.82 18.82 0 0 1-6.035-4.058c-3.62-3.59-5.597-8.357-5.597-13.41 0-5.07 1.962-9.837 5.552-13.412a18.803 18.803 0 0 1 13.41-5.566l12.779.015h.271V.77L23.971.755H23.7c-3.198 0-6.306.603-9.218 1.84-.331.136-.633.302-.95.453-.06.03-.136.06-.196.105-.634.302-1.267.65-1.886 1.011-.015.015-.045.03-.06.046-.619.377-1.237.8-1.826 1.237-.03.015-.045.03-.06.045-.573.422-1.116.875-1.644 1.358-.06.03-.106.09-.151.135-.257.227-.528.453-.77.694-.241.242-.452.513-.694.755-.045.06-.09.105-.135.166a20.125 20.125 0 0 0-1.358 1.644c-.015.015-.03.045-.045.06A21.54 21.54 0 0 0 3.47 12.13a.115.115 0 0 0-.03.06 23.228 23.228 0 0 0-1.041 1.9c-.03.061-.06.106-.076.182-.15.301-.332.618-.468.935A23.527 23.527 0 0 0 0 24.44c0 3.183.618 6.305 1.855 9.217.136.317.317.634.468.95.015.06.045.121.076.182a25.76 25.76 0 0 0 1.04 1.885c0 .015.016.046.03.06.378.634.8 1.253 1.238 1.826.015.03.03.045.045.06.422.574.875 1.117 1.358 1.66l.135.136c.227.256.453.528.694.769.242.256.513.468.77.694.045.06.09.09.15.15.529.468 1.072.921 1.645 1.359.015.015.03.015.06.045.589.437 1.207.845 1.826 1.222.015.015.045.03.06.045.619.377 1.252.71 1.9 1.026l.182.09c.317.151.619.317.95.453a23.47 23.47 0 0 0 9.218 1.87h.271l14.875-.014V22.102M73.045 30.12h1.358v-1.494h-1.358zM50.718 23.48c-.664-.166-1.478-.377-1.886-.845-.482-.573-.407-1.765.151-2.308.347-.317 1.041-.528 1.75-.528.649 0 1.177.166 1.463.437.136.151.212.317.197.528v.332l1.463.03.015-.331a2.06 2.06 0 0 0-.603-1.494c-.589-.573-1.54-.905-2.61-.905-1.087 0-2.082.332-2.67.89-1.147 1.071-1.238 3.228-.182 4.36.574.618 1.434.92 2.55 1.192 1.69.437 2.504 1.207 2.49 2.383a1.67 1.67 0 0 1-.62 1.283c-.663.528-1.674.663-2.775.347-.453-.121-.92-.528-.95-1.056l-.016-.317-1.418-.03v.331c-.015 1.072.679 1.962 1.81 2.354a6.034 6.034 0 0 0 1.735.256c1.026 0 1.931-.271 2.55-.784a3.17 3.17 0 0 0 1.146-2.369c.015-2.52-1.916-3.319-3.59-3.756M57.869 20.89c0-.362.272-.573.438-.679.362-.226 1.04-.362 1.78-.362.739 0 1.403.136 1.765.362.166.106.452.332.452.679v3.56H57.87v-3.56zm5.884-.272l-.015-.075h-.015c-.091-.634-.498-1.192-1.102-1.569-.603-.362-1.508-.558-2.534-.558-1.011 0-1.931.196-2.535.558-.724.438-1.131 1.116-1.131 1.916v9.338h1.448v-4.314h4.436v4.314h1.463v-9.353M65.456 19.89h2.987l-.03 10.258v.075h1.478l.03-10.334h2.987v-1.357h-7.452M75.735 18.53v1.478h1.66v10.213h1.478V18.53"/>
    </g>
</svg>
