<svg enable-background="new 0 0 1220 210" viewBox="0 0 1220 210" xmlns="http://www.w3.org/2000/svg"><g fill="#fff"><path d="m371.3 125.9h-82c1.5 6.7 4.4 12 8.7 15.8 4.3 3.9 9.4 5.8 15.4 5.8 11.1 0 19.1-4.3 23.8-12.9l31.6 6.5c-4.8 11.6-11.9 20.3-21.5 26.2s-20.9 8.8-34 8.8c-16.5 0-30.4-5.5-41.9-16.6-11.4-11.1-17.2-25.3-17.2-42.7 0-17.2 5.7-31.4 17.2-42.6 11.6-11.1 25.6-16.7 42.2-16.7 16.2 0 29.8 5.4 40.8 16.3 11 10.8 16.6 25.2 16.9 43zm-72.2-34.7c-4.5 3.1-7.5 7.4-9.1 12.9h46.1c-1.6-5.8-4.5-10.2-8.5-13.1-4-3-8.7-4.5-14-4.5-5.2 0-10 1.5-14.5 4.7zm258.2-21.1c8.2 8.4 12.3 19.3 12.3 32.6v70h-35.4v-62.4c0-6.2-1.8-11.3-5.3-15s-8-5.7-13.4-5.7c-6.7 0-12 2.4-15.9 7.2s-5.9 11.8-5.9 21.1v54.8h-35.6v-62.4c0-6.2-1.8-11.3-5.3-15s-8.1-5.7-13.6-5.7c-6.7 0-11.9 2.4-15.7 7.2s-5.7 11.8-5.7 21.1v54.8h-35.8v-111.8h35.6v10.2c8.2-9.1 19.2-13.6 33-13.6 16.5 0 28.7 6.3 36.5 18.9 9.7-12.6 22.9-18.9 39.7-18.9 12.2 0 22.3 4.2 30.5 12.6zm127.1 4.3c11.9 11 17.8 25.1 17.8 42.3 0 17.4-5.9 31.6-17.8 42.6s-26.4 16.5-43.4 16.5c-17.4 0-32-5.5-44-16.5s-17.9-25.2-17.9-42.6c0-17.2 6-31.3 17.9-42.3 12-11 26.6-16.5 44-16.5 17 .1 31.5 5.6 43.4 16.5zm-24.5 63.2c5.3-5.4 8-12.4 8-20.8 0-8.5-2.7-15.4-8.1-20.8s-11.7-8.1-18.8-8.1c-7.4 0-13.9 2.7-19.4 8.1s-8.2 12.4-8.2 20.8c0 8.5 2.7 15.4 8.1 20.8s11.9 8.1 19.5 8.1c7.2 0 13.6-2.7 18.9-8.1zm136.3 30.2c-10.2 5.5-20.4 8.2-30.5 8.2-14.1 0-25.1-3.8-32.9-11.4s-11.7-18.6-11.7-33.2v-42.3h-20.3v-28.2h20.3v-33h35.6v33h33v28.3h-33v38.8c0 10.8 5 16.3 14.9 16.3 5.6 0 11.1-1.5 16.3-4.5zm40.1-154.2c3.9 4 5.9 8.8 5.9 14.3 0 5.6-2 10.4-5.9 14.1-3.9 3.8-8.9 5.7-14.8 5.7s-10.8-1.9-14.7-5.7-5.8-8.5-5.8-14.1 1.9-10.4 5.8-14.4c3.9-3.9 8.8-5.9 14.7-5.9s10.8 2 14.8 6zm-32.7 159.1v-111.8h35.6v111.8zm151.5-98.3c11.9 11 17.8 25.1 17.8 42.3 0 17.4-5.9 31.6-17.8 42.6s-26.4 16.5-43.4 16.5c-17.4 0-32-5.5-44-16.5s-17.9-25.2-17.9-42.6c0-17.2 6-31.3 17.9-42.3 12-11 26.6-16.5 44-16.5 17.1.1 31.6 5.6 43.4 16.5zm-24.5 63.2c5.3-5.4 8-12.4 8-20.8 0-8.5-2.7-15.4-8.1-20.8s-11.7-8.1-18.8-8.1c-7.4 0-13.9 2.7-19.4 8.1s-8.2 12.4-8.2 20.8c0 8.5 2.7 15.4 8.1 20.8s11.9 8.1 19.5 8.1c7.3 0 13.6-2.7 18.9-8.1zm154.2-67.3c7.9 8.5 11.9 19.8 11.9 33.8v68.6h-35.4v-61c0-6.5-1.8-11.8-5.3-15.9-3.6-4.1-8.2-6.1-13.8-6.1-7.3 0-13 2.6-17 7.7-4.1 5.1-6.1 13-6.1 23.5v51.9h-35.6v-111.9h35.6v10.7c8.9-9.4 20.3-14 34.3-14 12.9-.1 23.5 4.2 31.4 12.7zm55.8 66.1c1.5 8.8 8.1 13.1 19.8 13.1 4.5 0 8-.9 10.6-2.6s3.9-3.8 3.9-6.3c0-4.2-3.7-6.9-11.1-8.2l-22.7-4.5c-21.7-4-32.5-14.9-32.5-32.5 0-11.4 4.5-20.6 13.4-27.5s20.5-10.4 34.8-10.4c13.7 0 25 2.9 34 8.7s14.6 13.6 16.8 23.4l-32.5 6.5c-.6-3.7-2.6-6.8-5.9-9.4-3.3-2.5-7.6-3.8-12.8-3.8-4.5 0-7.7.9-9.7 2.6s-3 3.8-3 6.1c0 4 2.8 6.6 8.5 7.8l26.3 5.3c10.2 2.2 18 6.3 23.2 12.1 5.2 5.9 7.8 13 7.8 21.5 0 12-4.7 21.3-14 27.8-9.4 6.5-21.6 9.8-36.8 9.8-14.1 0-26-2.7-35.5-8.1-9.6-5.4-15.3-13.6-17-24.4z"/><path d="m110 2h6.6c.2 0 .3 0 .5.1 3 .2 6.1.4 9.1.7 5.3.5 10.4 1.5 15.5 2.9 4 1.1 7.8 2.6 11.3 4.9.7.5 1.3 1 2 1.5-.2 0-.4 0-.5 0-1.1-.5-2.1-1-3.2-1.4-4.9-2-9.9-2.7-15.1-1.5-4.3.9-8.1 2.6-11.8 4.8-5.7 3.3-10.7 7.5-15.5 12-6.9 6.6-13 13.9-18.4 21.8-17.1 24.7-29 51.6-35.2 81.1-1.6 7.7-2.7 15.6-2.9 23.5v.5c.1-.3.2-.4.3-.6 6.7-13.6 14.3-26.7 22.9-39.2 12.6-18.3 26.3-35.7 41.5-52 7.6-8.1 15.5-16 24.1-23.1 5.8-4.8 11.9-9.2 18.5-12.9 3.2-1.8 6.7-3.1 10.4-3.4 2.3-.2 4.5.3 6.4 1.7 11.6 8.8 20.5 19.8 27.7 32.4.9 1.6 1.4 3.4 1.1 5.3-.3 2-1.2 3.8-2.3 5.4-3.6 5.2-8 9.5-12.7 13.6-8.6 7.5-17.7 14.1-27.2 20.4-18.4 12.2-37.6 23.1-57.6 32.7-8 3.9-16.1 7.8-24.3 11.2-9 3.7-18.1 7.3-27.4 10.2-.1 0-.2.1-.4.1.3 0 .5.1.7.1 4 .5 8.1.9 12.1.9 5 0 9.9-.2 14.9-.3 4.5-.1 9-.4 13.4-1.1 6.4-1.1 12.9-2.1 19.3-3.4 10.7-2.1 21.2-5 31.4-8.7 11.7-4.3 23.2-9.1 34-15.1 8-4.5 15.4-9.7 22-16.1 3.8-3.6 7.1-7.6 9.6-12.3 1.2-2.3 2.3-4.8 2.5-7.5.2-2.5-.1-5-.6-7.5-.3-1.4-.6-2.7-1-4.1h.1c.1.1.2.3.3.5 1 1.8 1.8 3.6 2.3 5.5 1.1 3.9 1.5 7.8 1.8 11.8.1.9.1 1.8.2 2.7v7.6c0 .3-.1.7-.1 1-.2 5.2-.6 10.4-1.6 15.5-1.6 8-4 15.9-7.6 23.2-3.6 7.4-8.5 13.7-15 18.6-7.4 5.5-15.5 9.6-24.3 12.3-7.9 2.5-16.1 3.7-24.3 4.2-8.6.5-17.2 0-25.7-1.1-6.4-.9-12.6-2.1-18.8-3.9-14.9-4.1-28.9-10-42-18.2-.2-.1-.4-.2-.6-.3.1.2.2.4.3.5 6.3 6.5 13.4 12.2 20.9 17.3 12.6 8.6 26.3 14.5 41.1 17.9 5 1.1 9.9 1.9 15 1.9 3.4 0 6.8-.1 10.1-.2 4.5-.2 9-1 13.3-2.3 10.5-3.2 19.5-9 27.2-16.8 1.1-1.1 2.2-2.3 3.4-3.5v.1c-.1.1-.2.3-.3.4-4.6 6.8-10.7 12.1-17.6 16.6s-14.3 8.2-22 11c-8.8 3.3-18 5-27.3 5.8-1 .1-1.9.1-2.9.2-2.4 0-4.9 0-7.4 0-.9-.1-1.9-.1-2.8-.2-4.8-.3-9.4-1.2-13.9-3-4.3-1.7-8.3-4.1-12.1-6.8-6.2-4.3-11.2-9.7-15.8-15.5-5.4-6.7-9.4-14.3-12.9-22.1-.1-.2-.2-.4-.3-.6 0 1.1.2 2.1.4 3.2 1.1 6.7 3.2 13.2 6.1 19.4 2.2 4.7 5.3 8.9 9.4 12.3 3.5 2.9 7.5 4.8 11.8 6.3 1.1.4 2.1.7 3.2 1-2.6.1-5.1-.3-7.5-1.1-4.6-1.6-9-3.9-13.3-6.2-7.1-3.9-13.4-8.8-19.4-14.1-1.6-1.4-2.8-3.1-2.3-5.4.1-.5.2-1 .3-1.4.8-2.9 2.1-5.6 3.5-8.2 1.9-3.4 3.9-6.8 5.9-10.2-.1 0-.3.1-.5.2-3.2 1.4-6.3 3-9.6 4.3-2.8 1.1-5.6 2.1-8.5 3-2.8.8-4.3 0-5.8-2.5-.7-1.3-1.5-2.5-2.2-3.8-3.5-6.3-6.7-12.7-8.8-19.6-1.2-4-2.5-8-2.9-12.2-.1-2.1 0-4.3.2-6.4.5 2.4.9 4.8 1.4 7.1.6 3 1.6 6 3.3 8.6 2.9 4.3 6.6 7.9 11 10.7 5.3 3.3 10.9 5.9 16.7 7.9.6.2 1.2.4 1.8.6 0-.1-.1-.2-.2-.3-5.1-3.4-9.8-7.3-14.3-11.4-6.4-6.1-11.9-12.6-16-20.3-3-5.6-5-11.6-5.7-17.9-.1-1-.2-2-.3-3 0-1.5 0-3 0-4.5 0-.5.1-1 .1-1.5.4-4.7 1.3-9.3 2.4-13.9 3.6-14.8 10.1-28.2 19.6-40.2 6-7.4 12.9-13.7 21.3-18.2.2-.1.4-.2.5-.3-.1.1-.2.2-.3.3-2 1.6-4 3.1-5.9 4.6-6.4 5.3-11.9 11.4-15.9 18.8-5.1 9.5-7.5 19.7-7.9 30.5-.3 6.8.1 13.6 1.2 20.3 1.3 8.3 3.6 16.4 6.7 24.2 3.4 8.5 7.4 16.7 12.6 24.3.9 1.3 1.9 2.7 2.8 4 0-.2 0-.4-.1-.6-3.5-9.1-6.5-18.3-8.4-27.9-1-5.1-1.8-10.2-2.2-15.4-.3-4.1-.4-8.1-.5-12.2-.1-8.6.4-17.1 2-25.7 2.2-12.1 6.4-23.4 12.5-34 4.6-8 10.8-14.6 18.2-20 5.4-4 11.7-6.5 18.2-8.3 6.3-1.6 12.6-2.6 19.1-3 2 .5 2.9.5 3.9.4z"/></g></svg>