<svg version="1.1" viewBox="0 0 600 145.67" xmlns="http://www.w3.org/2000/svg">
 <g transform="translate(-65.61 -107.58)" fill="#fff">
  <path d="m436.58 180.39.0449 56.416h30.319c7.546 0 14.867-1.4823 21.83-4.4468 6.6926-2.8298 12.756-6.9172 17.967-12.083 10.735-10.69 16.664-24.884 16.664-39.931 0-15.092-5.8841-29.286-16.574-39.931-10.645-10.69-24.839-16.529-39.886-16.529h-38.853v-14.014h39.617c9.5224 0 18.775 1.7518 27.489 5.435.94325.40425 1.8416.89833 2.7848 1.3475.17967.0898.35933.17967.58392.2695 1.9314.94326 3.773 1.9764 5.5697 3.0544.0898.0449.17967.0898.22459.13475 1.8865 1.1229 3.6832 2.3806 5.4349 3.6832.0449.0449.13475.0898.17967.13475 1.7068 1.2577 3.3238 2.6052 4.8959 4.0425.17967.13475.31442.2695.44917.40426.76359.67375 1.5721 1.3475 2.2908 2.0662.71868.71867 1.3924 1.5272 2.0662 2.2458.13475.17967.2695.31442.44917.49408 1.3924 1.5721 2.7399 3.1891 3.9976 4.896.0449.0449.0898.13475.13475.17966 1.3475 1.7518 2.5603 3.5484 3.6832 5.435.0449.0449.0898.13475.13475.17967 1.078 1.8416 2.1111 3.7281 3.0544 5.6595.0898.13475.17967.31442.2695.49408.44917.98817.94326 1.8416 1.3475 2.8298 3.6832 8.7139 5.5248 17.967 5.5248 27.489 0 9.5224-1.8416 18.73-5.5248 27.444-.40425.98817-.89834 1.8865-1.3924 2.8298-.0449.17966-.13475.35933-.22459.49408-.94325 1.9764-1.9763 3.8179-3.0544 5.6595-.0449.0898-.0898.13475-.13475.22459-1.1229 1.8416-2.3806 3.6383-3.6832 5.39-.0449.0898-.0898.13475-.13475.22458-1.2577 1.6619-2.6052 3.2789-3.9976 4.8959-.17967.13475-.31442.2695-.44917.44917-.67375.76359-1.3475 1.5272-2.0662 2.2458-.71867.76358-1.5272 1.3924-2.2908 2.1111-.13475.13475-.2695.2695-.44917.40425-1.5721 1.3924-3.1891 2.7399-4.8959 3.9976-.0449.0898-.13475.13475-.17967.17967-1.7518 1.3026-3.5484 2.5153-5.4349 3.6383-.0449.0449-.13475.0898-.22459.13476-1.7967 1.1229-3.6832 2.1111-5.6146 3.0543-.17967.0898-.35933.17967-.539.26951-.94326.44917-1.8416.94325-2.7848 1.3475-8.7139 3.6832-17.967 5.5248-27.489 5.5248h-45.052v-70.475"/>
  <path d="m340.23 109.87h-14.059v141.04h86.779v-14.059h-72.72"/>
  <path d="m300.53 215.43c-10.735 14.418-27.804 23.806-47.163 23.806s-36.473-9.3876-47.163-23.806h-16.754c12.397 22.548 36.338 37.82 63.917 37.82 27.534 0 51.52-15.272 63.872-37.82"/>
  <path d="m206.07 145.58c10.69-14.508 27.848-23.941 47.298-23.941 19.404 0 36.562 9.4326 47.253 23.941h16.709c-12.352-22.638-36.383-38-63.962-38-27.624 0-51.654 15.362-64.007 38"/>
  <path d="m158.59 173.38v14.059h8.669v49.364h-30.274c-7.546 0-14.912-1.4823-21.83-4.4468-6.7375-2.8298-12.801-6.9172-17.967-12.083-10.786-10.68-16.67-24.88-16.67-39.92 0-15.092 5.8392-29.286 16.529-39.931 10.645-10.69 24.839-16.574 39.931-16.574l38.045.0449h.8085v-14.014l-38.853-.0449h-.80851c-9.5224 0-18.775 1.7967-27.444 5.4799-.98818.40426-1.8865.89834-2.8298 1.3475-.17967.0898-.40425.17967-.58392.31442-1.8865.89834-3.773 1.9314-5.6146 3.0094-.04492.0449-.13475.0898-.17967.13475-1.8416 1.1229-3.6832 2.3806-5.4349 3.6832-.08983.0449-.13475.0898-.17967.13475-1.7068 1.2577-3.3239 2.6052-4.8959 4.0425-.17967.0898-.31442.2695-.44917.40425-.76359.67376-1.5721 1.3475-2.2908 2.0662-.71867.71867-1.3475 1.5272-2.0662 2.2458-.13475.17967-.2695.31442-.40425.49409-1.4373 1.5721-2.7848 3.1891-4.0425 4.8959-.04492.0449-.08983.13475-.13475.17967-1.3026 1.7518-2.5603 3.5484-3.6832 5.435-.04492.0449-.08983.13475-.08983.17966-1.1229 1.8416-2.156 3.7281-3.0993 5.6595-.08983.17967-.17967.31442-.22458.53901-.44917.89833-.98817 1.8416-1.3924 2.7848-3.6832 8.7139-5.5248 17.922-5.5248 27.489 0 9.4775 1.8416 18.775 5.5248 27.444.40425.94325.94326 1.8865 1.3924 2.8298.04492.17967.13475.35934.22458.53901.94326 1.8865 1.9763 3.773 3.0993 5.6146 0 .0449.04492.13475.08983.17967 1.1229 1.8865 2.3806 3.7281 3.6832 5.4349.04492.0898.08983.13475.13475.17967 1.2577 1.7068 2.6052 3.3238 4.0425 4.9409l.40425.40425c.67375.76359 1.3475 1.5721 2.0662 2.2908.71867.76359 1.5272 1.3924 2.2908 2.0662.13475.17967.2695.2695.44917.44917 1.5721 1.3924 3.1891 2.7399 4.8959 4.0425.04492.0449.08983.0449.17967.13475 1.7518 1.3026 3.5934 2.5154 5.4349 3.6383.04492.0449.13475.0898.17967.13475 1.8416 1.1229 3.7281 2.1111 5.6595 3.0544.17967.0898.35933.17967.539.2695.94326.44917 1.8416.94326 2.8298 1.3475 8.669 3.6832 17.922 5.5697 27.444 5.5697h.80851l44.288-.0449v-77.482"/>
  <path d="m283.1 197.24h4.0425v-4.4482h-4.0425z"/>
  <path d="m216.62 177.47c-1.9763-.49409-4.4019-1.1229-5.6146-2.5154-1.4373-1.7068-1.2128-5.2553.44917-6.8723 1.0331-.94326 3.0993-1.5721 5.2104-1.5721 1.9314 0 3.5035.49408 4.3569 1.3026.40425.44916.62883.94325.58392 1.5721v.98817l4.3569.0898.0449-.98817c0-1.7518-.62883-3.2789-1.7967-4.4468-1.7518-1.7068-4.5815-2.695-7.7706-2.695-3.234 0-6.1985.98818-7.9503 2.6501-3.4137 3.1891-3.6832 9.6122-.539 12.981 1.7068 1.8416 4.2671 2.7399 7.591 3.5484 5.0307 1.3026 7.4562 3.5934 7.4113 7.0969-.0449 1.5272-.67375 2.8747-1.8416 3.8179-1.9763 1.5721-4.9858 1.9763-8.2647 1.0331-1.3475-.35934-2.7399-1.5721-2.8298-3.1442l-.0449-.94325-4.2222-.0898v.98817c-.0449 3.1891 2.0213 5.8392 5.39 7.007 1.617.49409 3.4137.76359 5.1654.76359 3.0544 0 5.7494-.8085 7.591-2.3357 2.156-1.8416 3.3238-4.2671 3.4137-7.052.0449-7.5011-5.7044-9.8817-10.69-11.184"/>
  <path d="m237.91 169.75c0-1.078.8085-1.7068 1.3026-2.0213 1.078-.67375 3.0993-1.078 5.3002-1.078s4.1773.40426 5.2553 1.078c.49409.31442 1.3475.98817 1.3475 2.0213v10.6h-13.206v-10.6zm17.518-.8085-.0449-.22459h-.0449c-.2695-1.8865-1.4823-3.5484-3.2789-4.6714-1.7967-1.078-4.4917-1.6619-7.546-1.6619-3.0094 0-5.7494.58392-7.546 1.6619-2.156 1.3026-3.3688 3.3238-3.3688 5.7044v27.804h4.312v-12.846h13.206v12.846h4.3569v-27.848"/>
  <path d="m260.5 166.78h8.8936l-.0898 30.543v.22459h4.4019l.0898-30.768h8.8936v-4.0425h-22.189"/>
  <path d="m291.09 162.74v4.4019h4.9409v30.409h4.4019v-34.811"/>
  <path d="m646.48 145.58h-24.839v8.9385h24.749c3.5934 0 10.196 1.7068 10.196 5.7943l.0449 6.4231c.0449 9.8817.13475 33.014-.2695 35.08-1.1229 3.3688-6.9172 4.5366-10.511 4.5366h-15.182v-42.985h-9.0283v52.014h24.21c9.5224 0 19.763-4.6264 19.763-14.823v-40.246c0-9.6571-9.6122-14.733-19.135-14.733"/>
  <path d="m610.14 215.38h-8.9385v-30.319h-24.749v30.319h-8.8486v-69.801h8.8486v30.588h24.749v-30.588h8.9385"/>
 </g>
</svg>
