<svg version="1.1" viewBox="0 0 799.99 449.99" xml:space="preserve" xmlns="http://www.w3.org/2000/svg">
	<path d="m340.09 399.06h-49.714c0.77715-2.4914 1.3486-4.7086 2.1257-6.8343 9.28-25.28 19.337-50.24 30.811-74.629 1.7143-3.6343 3.7714-4.8228 7.7257-4.7086 10.926 0.34286 21.897 0.20571 32.823 0.25143h5.1886c9.3943-41.6 18.766-83.086 28.274-125.12 10.08-0.43429 20.206 0.0457 30.857-0.29714 1.8971-8.1372 3.7943-16.32 5.7829-24.846h-12.709c-0.86857 3.4057-1.7143 6.7886-2.6971 10.606h-30.72c-9.4628 41.737-18.834 83.086-28.32 124.96-18.88 0.43428-37.76-0.16-57.211 0.0229-1.5086-10.286-3.0171-20.411-4.5257-30.743-1.6-0.0914-2.9714-0.22857-4.3429-0.22857-14.034 0-28.069 0.0914-42.103-0.0914-3.1086-0.0457-4.6857 1.12-6.1714 3.6571-4.8229 8.2286-9.92 16.297-14.766 24.526-1.2571 2.1257-2.6514 2.9714-5.1429 2.9257-8.6171-0.16-17.257-0.0686-26.651-0.0686 1.76-3.1086 3.2228-5.6914 4.7086-8.2971-0.13715-0.13714-0.25143-0.29714-0.38857-0.43428-0.45715 0.38857-0.93715 0.75428-1.3714 1.1886-12.571 12.411-28 17.691-45.326 17.371-20.023-0.36572-38.011-7.0629-53.851-19.291-2.9028-2.24-5.4628-4.9371-8.5943-7.8171 4.9371-4.5029 9.8743-8.2972 14.926-12.457 1.5543 1.3714 3.0171 2.6743 4.5029 3.9772 8.2057 7.2228 17.646 11.954 28.617 12.777 18.149 1.3714 36-12.891 39.52-30.857 1.8743-9.5314 0.22857-18.72-2.3543-27.771-3.5428-12.411-7.5657-24.709-10.994-37.143-1.5543-5.6-2.8114-11.451-3.04-17.234-0.66286-15.886 5.4629-29.166 17.417-39.589 9.6-8.3657 21.074-12.549 33.691-13.669 13.943-1.2343 27.314 1.12 40.206 6.4686 7.2 2.9943 13.486 7.2686 18.629 13.531-4.3886 3.68-8.64 7.2228-13.029 10.88-1.44-0.89143-2.7429-1.6686-4-2.4686-5.6228-3.6343-11.68-6.1486-18.309-7.36-18.126-3.2914-35.954 10.766-37.051 29.166-0.59429 9.8514 1.5543 19.269 4.3428 28.594 2.9943 10.011 6.4686 19.909 9.12 30.011 2.9486 11.269 3.7486 22.766 1.4629 34.309-0.38857 1.9429-0.98286 3.84-1.1429 6.0114 1.0514-1.6457 2.1257-3.2457 3.1314-4.9143 22.217-37.12 44.48-74.217 66.583-111.38 1.7829-3.0172 3.6343-4.3886 7.2457-4.16 5.6457 0.36571 11.337 0.0914 17.326 0.0914 6.88 46.88 13.714 93.371 20.549 139.86 0.25143 0 0.50286-0.0229 0.75429-0.0457 8.5486-37.783 17.074-75.566 25.76-113.97-10.194-0.59428-19.977 0-30.331-0.36571 0.98285-8.7771 3.6114-16.869 5.3257-25.6h5.1886c26.217 0 52.434-0.0686 78.629 0.0914 3.3371 0 5.2343-1.0286 7.04-3.7943 10.377-15.84 21.006-31.52 31.451-47.314 2.2857-3.4514 4.2972-7.1086 6.3772-10.72 0.61714-1.0514 1.0514-2.2171 1.4628-3.3829 1.6914-4.7086 0.34286-6.9714-4.5714-6.88-3.9772 0.06857-8 0.57143-11.909 1.3029-31.977 5.8514-63.543 13.44-94.834 22.149-7.1086 1.9886-14.24 3.8857-21.989 6.0114-5.3943-8.9371-10.834-17.966-16.571-27.497 2.6057-1.12 4.7543-2.3314 7.0628-2.9943 13.006-3.7486 25.943-7.9086 39.131-10.88 21.029-4.7086 42.171-8.96 63.383-12.686 17.166-3.0171 34.537-4.7314 52-3.9771 7.04 0.29714 14.034 1.6686 21.029 2.6514 1.3486 0.18286 2.6743 0.73143 3.9543 1.2343 7.1314 2.6971 9.1886 6.2629 8.1143 13.897-1.0743 7.52-3.5886 14.629-6.5371 21.577-5.7371 13.646-12.937 26.537-20.343 39.337-26.583 45.966-53.143 91.954-79.68 137.94-14.651 25.394-25.92 52.366-37.303 79.291-7.1314 16.846-14.217 33.737-21.326 50.606-0.70857 1.6914-1.5086 3.36-2.3771 5.2572zm-51.314-206.95c-0.29714 0-0.57142 0.0457-0.86857 0.0686-8.96 17.12-17.92 34.263-26.949 51.543 7.4286 0.8 30.789 0.52571 34.103-0.36572-2.1029-17.074-4.1829-34.149-6.2857-51.223z" fill="#fff"/>
	<path d="m555.93 379.04h-42.994c-4.4571 7.7257-8.9828 15.543-13.623 23.611h-31.886c23.543-39.2 46.903-78.08 70.286-117.03h35.337c4.5028 32.114 9.0057 64.183 13.509 96.229h0.70858c7.4286-32.069 14.857-64.137 22.331-96.434h47.086c7.5886 0 15.109 0.59429 22.354 2.9486 2.6286 0.84571 5.2571 1.8286 7.7028 3.0857 6.6057 3.3829 11.177 8.5486 13.097 15.863 0.41143-0.22857 0.8-0.32 0.91429-0.54857 6.9257-11.886 18.034-17.783 30.811-20.96 10.697-2.6514 21.6-3.2228 32.594-2.4229 9.7143 0.68571 19.291 2.0114 28.594 4.9829 2.3086 0.73142 4.5714 1.6457 7.2457 2.6057-1.92 9.12-3.7943 17.92-5.6 26.56-2.08 0.86857-3.5428 0.52571-5.0286-0.64-12.297-9.5543-26.446-12.709-41.714-11.771-4.8 0.29714-9.4628 1.2571-13.714 3.68-2.6514 1.5086-4.5943 3.5886-5.3943 6.6057-1.0286 3.9543 0.29714 7.8171 4.0686 9.8743 3.4971 1.8971 7.2228 3.4286 11.017 4.6628 7.1543 2.3543 14.537 4.0914 21.623 6.6286 4.8914 1.76 9.6686 4.0686 14.08 6.7886 7.1543 4.4114 10.789 11.109 11.131 19.611 0.54857 13.669-4.8686 24.206-16.297 31.611-8.5714 5.5543-18.171 8.1829-28.229 9.3943-16.389 1.9428-32.594 1.1428-48.64-2.88-0.57143-0.13715-1.1657-0.22858-1.8743-0.38858-0.0914 0.68572-0.18286 1.2343-0.29715 2.0114h-33.28c-7.3143-14.24-14.629-28.434-22.034-42.811h-17.029c-3.2914 14.126-6.6057 28.297-9.9657 42.697h-54.057c-0.93714-7.7486-1.8743-15.474-2.8343-23.566zm132.69-11.863c2.0114 0.77714 3.52 1.2343 4.9143 1.9428 0.93715 0.48 1.6686 1.3486 2.5371 1.9886 14.926 10.766 31.68 13.691 49.6 11.223 4.1371-0.57143 8.0914-1.9657 11.063-5.2114 4.64-5.0743 3.8171-11.931-2.1486-15.223-3.2-1.76-6.7429-2.9943-10.24-4.16-7.5886-2.5143-15.291-4.6629-22.857-7.2686-10.446-3.6114-19.451-9.0514-23.451-20.914-6.24 12.754-16.937 19.131-29.257 23.794 5.3943 9.8286 10.629 19.337 16.274 29.646 1.2572-5.5771 2.2857-10.171 3.5429-15.817zm-60.869-28.663c9.0743-0.32 17.531 0.89143 25.829-1.3257 2.3314-0.61714 4.64-1.6914 6.6971-2.9714 5.2571-3.2686 7.6571-8.2743 7.6114-14.377-0.0229-6.24-3.04-10.263-9.0514-11.749-7.8629-1.9429-15.817-0.89143-23.84-1.0514-2.4457 10.606-4.7771 20.709-7.2686 31.474zm-74.126 18.971c-0.75429-6.9714-1.3486-13.669-2.2171-20.32-0.86857-6.56-1.0743-13.211-2.7429-20.617-8.0686 14.149-15.794 27.291-23.36 40.937z" fill="#fff"/>
	<path d="m591.57 60.138c-5.6914-22.674-19.634-38.651-40.526-48.709-13.074-6.3086-27.063-9.12-41.417-10.423-2.1029-0.18286-4.1829-0.66286-6.2629-1.0057h-23.131c-1.1657 0.27429-2.3314 0.68571-3.52 0.8-4.7543 0.41143-9.5543 0.48-14.263 1.1429-13.714 1.8971-27.474 3.6114-41.051 6.1714-27.566 5.1886-54.423 13.166-80.823 22.56-23.497 8.3657-46.949 16.823-68.891 28.914-10.377 5.7143-20.8 11.406-31.063 17.326-33.417 19.291-65.577 40.366-94.697 65.829-25.669 22.469-49.989 46.24-71.909 72.411-22.034 26.331-41.234 54.491-55.68 85.737-7.7714 16.823-13.966 34.126-16.869 52.526-0.41143 2.6743-0.96 5.3486-1.4629 8.0228v16.64c0.32 0.98286 0.82286 1.9429 0.93714 2.9486 2.88 22.903 13.874 40.823 33.303 53.371 14.034 9.0514 29.829 12.937 46.217 14.651 12.297 1.28 24.594 1.12 36.937 0.27429 19.109-1.28 37.943-4.1372 56.617-8.1372 32.434-6.9486 63.909-17.006 94.834-28.869 2.6971-1.0286 5.3943-2.1028 8.8228-3.4286-1.28-0.16-1.7143-0.27428-2.1257-0.25143-0.77714 0.0457-1.5314 0.16-2.2857 0.29715-28.297 5.6686-56.846 9.0057-85.737 9.28-24.846 0.22857-49.6-0.84572-74.034-5.8286-13.006-2.6743-25.646-6.4686-37.394-12.891-11.771-6.4457-20.274-15.726-25.737-28.046-7.84-17.691-8.64-36.046-5.7371-54.766 2.72-17.6 8.5486-34.286 15.977-50.423 12.617-27.383 29.874-51.703 49.92-74.034 32.389-36.069 68.869-67.474 109.53-93.897 12.777-8.2971 26.08-15.794 39.109-23.703 18.743-11.406 38.629-20.617 59.109-28.229 26.103-9.7143 52.869-17.531 80.206-23.154 25.486-5.2343 51.131-7.7714 77.143-5.0286 12.914 1.3714 25.554 3.9314 37.691 8.6171 18.834 7.2686 34.126 18.903 44.046 36.891 10.194 18.491 11.794 38.24 8.5028 58.674-2.7429 16.983-8.48 33.029-15.794 48.526-20 42.377-48.503 78.606-80.891 112.05h1.8743c0.64-0.61714 1.2114-1.2114 1.7829-1.8057 12.229-12.823 24.823-25.303 36.594-38.537 22.583-25.394 42.423-52.823 58.697-82.72 10.423-19.131 19.154-38.926 23.337-60.457 2.56-13.12 3.3143-26.286 0.0229-39.383z" fill="#F8140C"/>
	<path d="m477.99 288.05c-2.08-0.57143-4.1828-0.98286-6.2857-1.44-2.4457-0.52572-8.2286-0.91429-8.2286-0.91429-16.343-0.16-32.686-0.20571-49.029-0.25143-1.3257 0-2.6514 0.20572-4.0686 0.32-9.0514 39.109-18.034 77.851-27.063 116.87h30.537c1.5086-6.4686 2.9257-12.754 4.4114-19.017 1.5086-6.3543 3.04-12.731 4.64-19.429 7.4743 0 14.423 0.29714 21.326-0.0686 11.154-0.61714 21.989-2.88 31.931-8.2286 13.394-7.2229 22.354-17.737 24-33.394 1.8057-17.234-5.2114-29.691-22.171-34.446zm-19.863 50.011c-2.7886 1.5086-5.9429 2.5372-9.0514 3.2686-6.7657 1.5771-13.646 0.96-21.211 1.0286 2.7429-12 5.3257-23.291 7.9314-34.743 5.3028 0 10.377-0.0914 15.429 0.0457 0.43428 0 0.86856 0.0229 1.28 0.0457 0.22857 0 0.48 0.0914 0.70857 0.22857 1.6229 0.22857 3.9086 0.61714 5.76 1.0514 0.20572 0 0.41143 0 0.59429 0.0457 0.52571 0.16 1.0286 0.34286 1.5314 0.57143 0.20571 0.0686 0.36571 0.16 0.50285 0.22857 2.8114 1.3714 4.8229 3.6572 5.7143 6.9943 1.6229 6.1257 0.0457 16.206-9.2114 21.211z" fill="#fff"/>
</svg>
