<svg version="1.1" viewBox="0 0 800 413.96" xml:space="preserve" xmlns="http://www.w3.org/2000/svg">
	<style type="text/css">
		.st0{fill:#FFFFFF;}
		.st1{fill:#F8140C;}
	</style>
	<path class="st0" d="m312.84 367.08h-45.72c0.70865-2.286 1.2344-4.3205 1.9659-6.2864 8.5495-23.248 17.808-46.222 28.346-68.648 1.5773-3.3375 3.4747-4.4348 7.1094-4.3205 10.058 0.29717 20.139 0.18287 30.198 0.25145h4.7777c8.641-38.267 17.259-76.42 26.014-115.1 9.2811-0.38862 18.585 0.0457 28.369-0.27432 1.7373-7.498 3.4975-15.019 5.3263-22.86h-11.681c-0.80009 3.1318-1.5773 6.2407-2.4689 9.7611h-28.278c-8.7096 38.382-17.328 76.443-26.06 114.96-17.373 0.41147-34.747-0.13716-52.623 0.0229-1.3944-9.4639-2.766-18.768-4.1605-28.278-1.4859-0.0914-2.7432-0.20574-3.9776-0.20574-12.916 0-25.809 0.0914-38.724-0.0914-2.8575-0.0457-4.3205 1.0287-5.6692 3.3604-4.4348 7.5894-9.1439 14.996-13.579 22.563-1.143 1.9431-2.4231 2.7432-4.732 2.6974-7.9323-0.13716-15.865-0.0457-24.506-0.0457 1.623-2.8575 2.9718-5.2349 4.3205-7.6123-0.11429-0.13716-0.22859-0.27432-0.34289-0.41148-0.41148 0.36576-0.86867 0.70866-1.2573 1.0973-11.567 11.43-25.763 16.276-41.696 15.979-18.425-0.32004-34.953-6.4922-49.537-17.739-2.6746-2.0574-5.0291-4.5491-7.9095-7.2008 4.5262-4.1376 9.0982-7.6123 13.739-11.476 1.4402 1.2802 2.7889 2.4688 4.1376 3.6576 7.5437 6.6522 16.253 10.996 26.312 11.75 16.688 1.2573 33.101-11.841 36.347-28.392 1.7145-8.7782 0.20574-17.213-2.1717-25.557-3.2689-11.43-6.9722-22.723-10.127-34.175-1.4173-5.1663-2.5832-10.538-2.8118-15.842-0.59435-14.607 5.0292-26.837 16.025-36.416 8.8239-7.7037 19.385-11.544 30.998-12.573 12.824-1.143 25.146 1.0287 36.987 5.9664 6.6293 2.7432 12.39 6.675 17.145 12.459-4.0462 3.3832-7.9323 6.6293-11.979 10.013-1.3259-0.82295-2.5374-1.5316-3.6804-2.286-5.1663-3.3375-10.744-5.6692-16.825-6.7665-16.665-3.0175-33.078 9.8983-34.084 26.837-0.54863 9.0753 1.4402 17.739 4.0005 26.312 2.766 9.2125 5.9435 18.311 8.3895 27.592 2.7203 10.355 3.4518 20.94 1.3487 31.569-0.3429 1.7831-0.91439 3.5433-1.0516 5.5321 0.96011-1.5087 1.9659-2.9946 2.8803-4.5262 20.437-34.152 40.919-68.259 61.241-102.48 1.6459-2.766 3.3375-4.0462 6.675-3.8404 5.1892 0.32004 10.424 0.0914 15.933 0.0914 6.3322 43.136 12.619 85.907 18.905 128.68 0.2286 0 0.4572-0.0229 0.6858-0.0457 7.8638-34.747 15.705-69.517 23.706-104.83-9.3725-0.54864-18.379 0-27.889-0.3429 0.91439-8.0695 3.3375-15.522 4.892-23.546h4.7548c24.117 0 48.234-0.0686 72.328 0.0686 3.0632 0 4.8006-0.93725 6.4693-3.4975 9.5554-14.562 19.316-29.009 28.94-43.525 2.1031-3.1775 3.9547-6.5379 5.875-9.8526 0.57149-0.98297 0.96011-2.0574 1.3487-3.1089 1.5545-4.3434 0.32003-6.4007-4.2062-6.3322-3.6576 0.06858-7.3608 0.52577-10.973 1.1887-29.398 5.3949-58.452 12.367-87.256 20.368-6.5379 1.8288-13.099 3.589-20.208 5.5321-4.9606-8.2295-9.9668-16.528-15.247-25.283 2.4003-1.0287 4.3662-2.1488 6.4922-2.766 11.979-3.429 23.866-7.2694 36.004-9.9897 19.339-4.3434 38.793-8.2524 58.315-11.681 15.773-2.766 31.775-4.3434 47.845-3.6576 6.4693 0.27432 12.916 1.5316 19.362 2.4231 1.2344 0.18288 2.446 0.68579 3.6347 1.1201 6.5608 2.4689 8.4581 5.7607 7.4523 12.779-0.98296 6.9265-3.3147 13.442-6.0121 19.842-5.2806 12.55-11.887 24.414-18.699 36.187-24.46 42.291-48.874 84.581-73.311 126.89-13.487 23.363-23.843 48.188-34.312 72.945-6.5608 15.499-13.076 31.044-19.614 46.542-0.66293 1.5545-1.3944 3.0861-2.2174 4.8234zm-47.205-190.35c-0.27431 0-0.52577 0.0457-0.80009 0.0686-8.2524 15.75-16.482 31.524-24.803 47.411 6.8351 0.73151 28.323 0.48005 31.364-0.3429-1.9202-15.705-3.8404-31.409-5.7835-47.137z"/>
	<path class="st1" d="m544.15 55.321c-5.2349-20.848-18.059-35.547-37.284-44.805-12.024-5.7835-24.894-8.3895-38.084-9.5782-1.9431-0.18288-3.8404-0.61721-5.7607-0.93725h-21.282c-1.0744 0.25146-2.1488 0.64007-3.2461 0.73151-4.3662 0.38862-8.7782 0.43434-13.122 1.0515-12.619 1.7602-25.26 3.3147-37.764 5.6692-25.351 4.7777-50.063 12.093-74.34 20.757-21.602 7.7037-43.205 15.476-63.367 26.586-9.5554 5.2577-19.134 10.493-28.575 15.956-30.724 17.739-60.327 37.124-87.119 60.555-23.614 20.665-45.994 42.542-66.156 66.613-20.277 24.208-37.947 50.131-51.206 78.866-7.1551 15.476-12.847 31.409-15.499 48.326-0.38862 2.4688-0.89153 4.9148-1.3487 7.3837v15.316c0.29718 0.91439 0.75437 1.7831 0.86867 2.7203 2.6517 21.077 12.756 37.559 30.632 49.08 12.916 8.321 27.432 11.91 42.519 13.487 11.316 1.1887 22.608 1.0287 33.97 0.25146 17.556-1.1887 34.907-3.7947 52.097-7.498 29.832-6.4007 58.795-15.659 87.256-26.54 2.4917-0.9601 4.9606-1.9202 8.1152-3.1546-1.1887-0.13716-1.5773-0.25146-1.9659-0.2286-0.70865 0.0457-1.4173 0.13716-2.1031 0.27432-26.037 5.2349-52.303 8.2752-78.889 8.5267-22.86 0.20573-45.628-0.77724-68.099-5.372-11.979-2.446-23.591-5.9435-34.404-11.841-10.836-5.9207-18.654-14.47-23.66-25.809-7.2008-16.276-7.9323-33.17-5.2806-50.383 2.5146-16.185 7.8638-31.524 14.699-46.382 11.613-25.191 27.477-47.548 45.925-68.099 29.809-33.17 63.344-62.064 100.77-86.364 11.75-7.6352 24.003-14.516 35.981-21.808 17.259-10.493 35.524-18.951 54.36-25.969 24.003-8.9382 48.623-16.116 73.768-21.282 23.431-4.8234 47.023-7.1551 70.957-4.6177 11.887 1.2573 23.523 3.6347 34.678 7.9323 17.328 6.6979 31.386 17.396 40.507 33.924 9.3725 17.008 10.836 35.181 7.818 53.995-2.5146 15.636-7.818 30.381-14.539 44.645-18.402 38.976-44.622 72.305-74.409 103.07h1.7374c0.57149-0.57149 1.1201-1.1201 1.6459-1.6688 11.247-11.796 22.837-23.294 33.65-35.455 20.78-23.363 39.022-48.6 53.995-76.1 9.5782-17.579 17.625-35.798 21.465-55.618 2.3546-12.07 3.0404-24.186 0.0229-36.21z"/>
	<path class="st0" d="m775.77 390.79c-8.7553 0.2286-17.511 0.4572-26.266 0.68579-1.623 0.0457-3.3604 0.0686-4.7548-0.77723-1.4173-0.86867-2.1945-2.446-2.926-3.9319-6.9494-14.402-14.745-28.369-23.34-41.833-7.4066 3.0632-12.161 10.493-14.653 18.128-2.4917 7.6123-3.1775 15.705-5.0977 23.5-0.38861 1.5316-0.91439 3.2004-2.286 3.9776-0.89153 0.50292-1.9659 0.52578-2.9946 0.52578-17.031 0.13716-34.061 0.27432-51.092 0.41147-1.4859 0-3.0632 0-4.3434-0.73151-1.4402-0.82295-2.2402-2.4003-2.9718-3.8633-5.2577-10.676-10.515-21.351-15.773-32.004-1.143-2.3088-2.4688-4.8006-4.8234-5.8521-1.4859-0.66293-3.1775-0.61721-4.8005-0.57149-2.2403 0.0686-4.4577 0.11429-6.6979 0.18287-1.3944 0.0457-2.8803 0.1143-3.9547 1.0058-1.0058 0.84581-1.3487 2.2174-1.6459 3.4976-2.6746 11.407-5.3492 22.814-8.0466 34.198-0.27431 1.2116-0.64007 2.5146-1.6688 3.2232-0.77723 0.52578-1.7602 0.5715-2.6974 0.59436-7.4523 0.25146-14.882 0.52577-22.334 0.77723-0.73151 0.0229-1.5773 0-2.0117-0.61721-0.34289-0.50292-0.2286-1.1658-0.0914-1.7602 8.5496-37.101 17.099-74.203 25.649-111.3 0.18288-0.82295 0.41147-1.6916 1.0744-2.1945 0.64007-0.48005 1.5087-0.50291 2.3088-0.50291 9.5325 0.1143 19.065 0.22859 28.598 0.32003 10.195 0.1143 20.437 0.2286 30.449 2.1945 6.1036 1.1887 12.253 3.1546 17.053 7.1322 9.121 7.5437 11.498 21.42 7.2008 32.438-4.2976 11.018-14.219 19.202-25.237 23.523-1.3716 0.52578-2.9489 1.2344-3.2461 2.6746-0.18287 0.96011 0.29718 1.9202 0.77724 2.766 6.8808 12.527 13.739 25.031 20.619 37.559 0.82296 1.4859 2.3774 3.2232 3.8633 2.4003 0.77724-0.43434 1.0516-1.4173 1.2573-2.286 7.9095-34.518 15.316-69.174 22.197-103.9 0.3429-1.7831 0.84581-3.7719 2.4231-4.7091 1.0744-0.64008 2.4003-0.59436 3.6576-0.52578 7.658 0.38862 15.293 0.80009 22.951 1.1887 0.50292 0.0229 1.0744 0.0686 1.463 0.38861 0.73151 0.59436 0.52577 1.7602 0.27431 2.6746-4.1605 14.287-7.7952 28.735-10.858 43.296-0.3429 1.5773-0.0457 3.9319 1.5545 3.8404 0.66293-0.0229 1.1887-0.54863 1.6459-1.0287 10.698-11.064 21.397-22.128 32.095-33.192 2.606-2.6974 5.212-5.3949 7.818-8.0924 2.606-2.6974 5.212-6.7436 8.2066-8.481 4.5948-2.6746 12.664-0.0457 17.693 0.16002 6.0121 0.25146 12.001 0.48006 18.013 0.73152-18.516 16.756-37.033 33.49-55.549 50.246-0.96011 0.86867-1.9888 1.8288-2.2402 3.1089-0.27432 1.4173 0.45719 2.8118 1.1887 4.069 10.79 18.928 21.557 37.833 32.347 56.761h-0.0686zm-154.44-93.862v0.13716c-4.7091 0.34289-11.567-1.8059-12.276 4.8005-1.8516 7.7266-3.429 15.545-5.2806 23.248-1.0287 2.926-0.18288 4.5491 2.9946 4.4805 9.5325-0.48006 19.728 0.2286 28.209-4.892 11.521-5.8292 13.442-25.169-1.8059-27.043-3.909-0.4572-7.8866-0.50291-11.818-0.75437z"/>
	<path class="st0" d="m391.5 276.1c11.887 0.18288 23.751 0.57149 35.638 0.41148 11.796-0.16002 23.546-0.54864 35.364-0.48006 3.3375 0 4.0233 0.70865 3.2004 3.8862-1.3944 5.4178-3.0175 10.79-4.4805 16.185-0.4572 1.6459-1.6688 1.623-2.9489 1.623-9.784 0.0457-19.568-0.0686-29.352 0-3.3147 0.0457-3.8633 0.64007-4.6177 3.8176-0.91439 3.8176-1.9659 7.6123-2.9489 11.43-4.572 20.048-8.8467 40.142-13.647 60.144-5.6921 20.254 1.1887 17.579-16.413 17.991-4.572 0.18288-9.1439 0.54863-13.716 0.73151-2.7889 0.1143-3.1089-0.16002-2.9718-2.9718 0.0914-1.623 0.48005-3.2689 0.84581-4.8691 4.732-23.774 10.79-47.503 17.145-70.934 0.54864-2.0345 1.0973-4.0462 1.6688-6.0578 0.38862-1.3716 1.4402-3.3604 1.4402-4.7548 0.82295-3.4747-0.18288-4.572-3.8633-4.5034-9.784 0.18288-19.568 0.43433-29.329 0.73151-1.9431-0.1143-2.446-0.59435-2.0116-2.5603 1.303-5.8521 2.766-11.681 4.1376-17.533 0.36576-1.623 1.5773-1.7602 2.8575-1.8059 8.0009-0.2286 16.025-0.6858 24.026-0.59436v0.0686z"/>
	<path class="st0" d="m495.3 296.93c0.25146-0.32004 0.41148-0.73151 0.54864-1.1887 1.4402-5.2806 2.9489-10.538 4.4348-15.796 0.86867-3.1318 0.0686-4.0005-3.2004-4.0233-7.4523 0-13.19-0.0457-20.642 0-3.0861 0.0229-3.7719 0.80009-4.229 3.7947-0.86867 5.6464-3.5661 11.27-4.5262 17.191h27.592z"/>
	<path class="st0" d="m571.11 275.89c-7.6352-1.463-14.767-0.50291-22.585-0.89153-0.91439-0.0457-1.5316-0.0914-2.3774 0.25146-1.6459 0.64007-2.1488 2.6289-2.3774 4.1376-0.61721 3.9319-2.606 7.8638-3.4518 11.75-0.2286 1.7145-1.5545 4.2519-1.3487 5.7835h29.215c0.38862-0.38862 0.64007-0.93725 0.84581-1.6688 1.4173-5.2806 2.9718-10.538 4.5034-15.819 0.66294-2.2631-0.57149-3.1775-2.4003-3.5433z"/>
	<path class="st0" d="m536.86 305.38c-1.0287 2.6974-1.0058 6.6293-1.8288 8.8696-1.1201 4.9148-2.3088 9.8297-3.4747 14.745-5.212 20.185-5.4406 43.616-32.232 43.502-21.191-0.20574-16.962-20.071-13.076-34.244 2.9718-11.133 5.2349-21.694 8.2981-32.849h-28.872c-0.73151 1.4859-0.93725 3.429-1.5773 4.9148-3.7719 11.247-6.3093 22.883-9.121 34.358-4.3662 15.202-3.5661 35.135 12.641 42.656 4.0919 2.1488 8.5953 2.9718 12.847 4.5034 8.2981 2.8803 16.802 1.5545 25.329 1.8974 3.7947 0.1143 7.4523-0.2286 10.973-1.7602 5.9435-1.4859 11.956-2.8118 17.099-6.2864 18.996-11.247 22.151-34.655 26.769-54.292 0.89153-3.8404 1.6688-7.7037 2.5832-11.544 0.64008-3.589 1.6002-7.1094 2.446-10.676 0.64007-2.6746 1.3487-3.4061-1.143-3.749-3.269-0.4572-6.9265 0-10.218 0-3.2918 0-17.053-0.98297-17.442 0z"/>
</svg>
