<svg width="108.8mm" height="126.97mm" version="1.1" viewBox="0 0 108.8 126.97" xmlns="http://www.w3.org/2000/svg">
<g transform="translate(12.239 -124.31)">
<g transform="matrix(.26458 0 0 .26458 -24.094 121.67)" fill="#50b5f2">
<path class="st0" d="m353.4 106.3c-16.4-9.5-33.6-16.5-51.2-21.1l-21.6 37.3c17.9 3.3 35.5 9.7 52.1 19.4 78.6 45.5 105.5 146.1 59.9 224.7s-145.9 105.5-224.6 60-105.4-146.1-59.9-224.7l61.8-106.8c-39.6 16.8-74.2 46.1-97.4 86.2-56.9 98.3-23.3 224 74.9 280.9s224 23.3 280.9-74.9 23.4-224.1-74.9-281z"/>
<path class="st0" d="m319.1 165.6c-26.7-15.5-56.5-20.9-84.9-17.5l76.1-131.5c-19.7-4.4-39.7-6.6-59.5-6.6l-119 205.5c-37.9 65.5-15.6 149.4 50 187.3s149.4 15.6 187.3-50 15.5-149.2-50-187.2zm2.5 159.9c-22.8 39.3-73.1 52.7-112.4 30-39.3-22.8-52.7-73.1-30-112.4s73.1-52.7 112.4-30c39.3 22.8 52.8 73.1 30 112.4z"/>
</g>
</g>
<style type="text/css">.st0{fill:#50B5F2;}</style>
</svg>
