<svg xmlns="http://www.w3.org/2000/svg" width="37.743mm" height="36.088mm" viewBox="0 0 37.74292 36.087879"><g><path d="M37.723 36.093h-37.742v-36.087h37.742z" fill="#ed212f"/><path d="M26.649 26.375zm-2.692 6.756h.016zm-.191-.211l.004.004-.004-.004m-.14-.04l.04.06c-.06.048-.024.116-.012.171l.06.012-.02-.108.072-.096-.068-.076-.072.036m-.606-.132l.012.004.024-.056-.036.052m-.475 1.256h.004c.076.036.08.068.016.116l.004.148.012.036.032-.004.004-.036v-.012l.076-.048-.044-.072.004-.072-.044-.096-.064.04m.957.199l-.016.012.004.008.02-.008-.008-.012m-1.045.526l.004.028-.016.036.068-.028-.056-.032zm-.112-.044l-.06.008-.024.048.056.024.064-.004-.036-.076m.128.004v-.008l-.008-.008-.012.012.004.044v.004l.016-.044m.132.108l.008.008h.048l-.044-.016-.012.008m.395-.642l-.028-.012.052-.088-.056-.08-.012-.04-.028.048-.008.064-.028.036.02.167.088-.096m.016.231l.008.02.008-.008-.008-.012h-.008m.375-.187l.02-.008-.016-.016-.024.016.02.008m1.472-1.348l-.02.036.068.012-.048-.048m-1.176 1.404h-.008l.008.012.008-.008-.008-.004m1.184-1.228l.036-.064-.036.064m-1.503 1.468l-.032.032h.203v-.012l-.171-.02m-.164-.355l.008.076-.008-.076m-.112.331l-.016-.012h-.032l-.012.048c.08-.012.148-.012.219.012l-.028-.076c-.04.036-.08.068-.132.028m.152-.913l.008-.02-.02-.008-.008.012.02.016m.104.881h.008l-.004-.004zm1.691-1.492l.008-.004-.004-.004-.004.008m-1.791 1.069l-.016.004.008.008.016-.004-.008-.008m.128-.443h-.004l.008.016.004-.008-.008-.008m-.606 1.268l.008.008.016-.008-.008-.008-.016.008m2.293-2.317v.02l.028-.008.012-.016-.012-.008-.028.012m-2.297.913l-.016-.028-.012.004.008.028.02-.004m0 .112l.028-.072-.048-.012.02.084m.028.167l.008-.02-.004-.032-.024-.016-.016.012.036.056m.04.167l.012.02.016-.016-.02-.008-.008.004m-.06.399l.008.044.052-.136-.012-.044c-.056-.056-.056-.12-.028-.191l-.028-.048-.028.02-.004.056c-.032.048-.02.092.012.136.04.052.056.108.028.164m.04-1.025l-.02-.012-.008.024.02.004.008-.016m-.004.518l-.016-.008-.016.004v.04l.032-.036m-.016.618v-.004.004m-.068.084l.024.032.024-.02.02-.096-.044-.02-.024.104m.06-1.703l-.092.112-.004.012.064.06.02.084.028-.064.028-.227-.044.024m.008 1.619l.04.056-.04-.056m.036-1.643v-.004l-.004.004h.004m.012-.048l-.012.016v.028l.016-.028-.004-.016m.108 1.639l-.024-.036-.024.012.028.04.02-.016m.183-.459l-.032-.008-.008.008.032.008.008-.008m-.14-.036l-.008.004.004.008.008-.004-.004-.008m.08-.379l-.028.024.028.024.016-.016-.016-.032m-.004.479l-.012.024.032.028.004-.028-.024-.024m-.136-.112l.008-.016-.012-.02-.012.012.016.024m.148-.096l.02.02.016-.024-.028-.016-.008.02m.036.387l-.056-.024-.06.052.096.092.02-.12m-.164.287l-.036.088.06-.004-.004-.076-.02-.008m-.048-1.4l.008.008.016-.008-.016-.004-.008.004m.171 1.396l.012-.048-.012.048m-.136-1.639l-.008-.004-.008.004.008.016.008-.016m-.012.981l.048-.032-.04-.044.02-.076-.04-.028c-.004.056-.056.12.012.179m-.818.028l-.044.008.044-.008m.048.048l.016.008-.096-.016.096.016-.016-.008m.02.012l.052.056-.052-.056m.14.16l-.032.072.036-.072h-.004m-.016-1.125l.004.008.02-.008-.016-.008-.008.008m-.06.542h.004v-.004zm-.056-.187l.016-.088-.016.088m-.112-.303h.008l-.012-.004.004.004m.275.291l-.044-.052v.092l.024.016.024-.012-.004-.044m0-.084v-.12l-.036.096.036.024m0 .271l-.028-.04-.076.052c.036.084.072.167.02.259l.016.136.02-.092.028-.068-.012-.136.012-.044.02-.068m-.108.012l.004-.004v.004zm-.032.084h.012-.012m-.048.136v-.02l-.012.004.004.02.008-.004m-.175-.534c-.06.044-.06.064.016.116l-.016-.116m.223.399h-.004v.004l.004-.004m-.064-.108l-.02.112h.08v-.004l.036-.084-.036-.072-.06.048m.068-.455l-.092.008v.144l.016.012.052-.116.04-.008-.016-.04m-.187.06l-.02-.032-.012.032.016.028.016-.028m-.112-.032l.012.008.008-.004-.016-.012-.004.008m-.092.191l.028.028.02-.028-.028-.02-.02.02m.044-.227l-.016-.02-.012.028.012.012.016-.02m-.191.203l.028.02.012-.024-.028-.016-.012.02m.199.108l.004-.008-.008-.004v.012h.004m.666 1.192l.06.036.056.028.016-.064-.064-.084-.068.084m-.004-.833l-.012.028.028.008.016-.008-.008-.016-.024-.012m.128-.255l.012-.004-.004-.008h-.008v.012m-.096.283v.004l.004-.004h-.004m-.199.1l-.004-.008-.004.008zm.06-.124l.02.008.02-.024-.032-.012-.008.02m.068.283l-.036-.207-.028.032.02.14.044.036m-.016-.778l-.068.128.036.076c.024-.076.096-.128.032-.203m.092.526c.032.096.04.187.004.291l.056-.008v-.136l-.02-.136.004-.04-.044.028m-.116-.259l-.004.004.004.012.008-.008-.008-.008m.199-.371l-.048-.064.008.076.028.016.012-.028m-.271.945l.004.012.008-.008-.004-.012-.008.008m.235-.351v.004h-.004v.004h.004v-.008m-.012-.75l-.012-.02-.02.004.012.016h.02m.016.674l-.004.076.004-.076m-.036-.307l.004.096.06-.1-.064.004m.008.263l.02-.016-.02-.032-.02.012.02.036m.012-.116l-.008-.016-.008.008.012.016.004-.008m2.62-2.377l.008.04h.032l-.008-.072-.032.032m.032-.032 0 0v-.004zm-21.535-.542l.004.036zm2.568-11.258zm2.604-9.91l.004.008.052-.008.016-.028-.028-.004-.044.032m-4.861 21.232l-.044.008.044-.008m2.257-11.322-.008-.056l.008.056-.008-.056m12.466 16.08h-.004c.044-.044.06-.092.06-.156l-.124.171.068-.016m.024 0l.012-.004h-.008l-.032.004h.028m-10.01-2.54h-.004zm-.064.012l.06-.012-.06.012m.271-23.437l-.004.004h.004v-.008.004m-4.674 21.32l-.012.004h.032l-.02-.004m4.467 2.106h-.004.004m17.467-2.604l-.008.016.016.044-.004-.052-.004-.008m-.215-7.011l-.052.016.052-.016m.267 6.819l-.004-.008v.008l-.004.02h.004-.004l.008-.02m.51-10.855l-.016.028.02.016.016-.04-.02-.004m-.495 10.871l-.02.004.016.008.012.004-.008-.016m-.207.435l.004-.008h-.008zm.706-11.529v-.012l-.06-.008.052.024.008-.004m-1.053 12.088h-.004v.044l.004-.044m-.004.044l.032.048-.032-.048m.287-.586l.012.024.02-.008-.012-.028-.02.012m-.06-.092l.012.012v-.016l-.012.004m-.195.068l.012-.004-.016-.004.004.008m.355-.255l.004.008.012-.012-.004-.008-.012.012m.706-11.338l.016.008-.012-.02-.004.012m-.686 2.465l-.064.052-.056.012-.04.008-.052.008.008.116.088.012.088-.02.06-.112.024-.048-.02-.064-.036.036m.04-.04l-.004.004zm-.343-1.376v.004zm.343 1.376l-.004.004.004-.004m-.343-1.376v.004l.008-.016-.008.012m.463-.586v-.012l-.004.008.004.004m.55-.451l-.02.076.02-.076m-.008-.004l.008.004-.008-.004m.128.084l.008.004-.004-.012zm.036-.088l.004.008.016-.008-.004-.008-.016.008m-11.23-13.727h.004l-.004-.004v.004m-.06.167l.088-.112-.028-.056-.112.152.052.016m.491-.582h-.084.084m-1.3 2.249l-.016-.008-.012.016.028.04v-.048m.431 1.029l.004-.004zm.431-2.895l.008.028c.068-.004.076-.02.052-.072l-.044-.052-.008.024-.008.072m.012.032v-.004h-.004zm.483-1.587l-.032.032.032-.032m-.04.04l.008-.008-.008.008m-.068 1.017h-.016v.004l.016-.004m.004 0h-.004zm-.036.116h-.004v.004zm0 0l-.004.004.004-.004m9.376 6.548l-.004-.012.004.012m-1.22-4.084l.004-.06-.052.008-.02.008.068.044m1.109 4.08v.004h.004l-.004-.004m-9.164-7.677zm7.988 3.549v.004h.004l-.004-.004m-8.873.861l.004-.004h-.004v.004m10.149 3.178l.008.08-.008-.08m.012.092v.004-.004m-18.795 20.754h.004zm8.602-24.099l-.008.02.04.052-.004-.056-.028-.016m8.905-.782v-.012.012zm1.543 23.505l-.02-.104-.048-.076-.012.004.06.167.02.008m-17.021-27.007v-.004zm.036 2.473v-.016l-.016.012.016.004m-.16-2.401l.04.032.06-.052.024-.052-.088-.044-.036.116m.124-.072v-.004.004m.048 3.888l.004-.1-.06-.032c-.036.088-.036.088.056.132m10.181 27.76l-.008.084zm.359.016c-.056.024-.076.072-.092.124.08-.024.1-.056.128-.16l-.036.036m-.128.044l.004.008.02-.008-.004-.008-.02.008m.164-.08v-.004.004m0 0v-.004.004m-.495.128l.012.044.08-.068-.02-.012-.072.036m.526-.128h-.032l.024.016.016-.004-.008-.012m-.431.367l.032-.06-.032.06m-.068.179l-.004.008v.008l.012-.016h-.004m.1-.247l-.004.008.004-.004zm.04-.323l-.072.044.072-.044m-.04.323l.016-.02-.004-.012-.012.032m.004.108l.008.008.004-.008-.004-.008-.008.004m.498-.347l-.008.02.008.004.008-.012-.008-.012m.63-.307v.004h.004l-.004-.004m-.004-.004l.004.004v-.012l-.004.004m-.016.012l-.004.008.012.004.016-.012h-.024m-.167-.004l.036.008.036-.008.012-.08-.084.08m-.088-.076l.004.008h.008l-.004-.012-.008.004m.227.016l.008-.008h-.008zm.04-.128l-.064.02-.08.008.016.052.032.024v.004-.004c.052-.008.076-.044.096-.104m-.128.028l-.02-.008h-.02l.008.02.02-.012-.004.004.016-.004m0 0v-.024l-.008-.008v.008l.008.024zm-3.769.869v.008l.004-.004-.004-.004m-4.758-2.082h-.052l.048.032.016-.012-.012-.02m-1.157-.343l.08.052-.08-.052m5.755 2.397l.024.028.028-.02-.032-.032-.02.016m.187-.028l.012-.06-.024-.036-.136.072.068.032.052.056.028-.064m2.512-.072l-.064.08.064-.08m-2.6.287h.008l-.004-.008zm-6.213-2.672v.012l.008-.004v-.004l-.008-.004m-3.174-1.308l.008-.012-.016-.012v.02l.008.004m-.072.124l.112.012-.096-.052-.016.04m.116-.167l.004-.008-.008.004zm2.796 1.268l.088.032-.088-.032m-.71-.235l.036.004.004-.012-.036-.008-.004.016m-1.93-.806l-.028.016-.016.02.048.084-.004-.12m11.505 3.274l-.016.012.004-.004.036.012.004-.032-.028.012m-.012.016v-.008l-.004.004.004.004m-2.245.363h.004v-.004zm2.489-.207l-.02-.004-.008.012.02.012.008-.02m-.207-.152l.016-.008-.016.008m.128.08l.004-.008-.012.004.008.004m-.156-.076l-.012-.008v.012l.008-.004m-.267-.223l-.04.016.012.024.036-.016-.008-.024m-1.978.578l.004.048.04.052.036-.024v-.084l-.08.008m2.353-.387l-.06.02.06-.02m-.379-.028l.012.016.008-.008-.012-.012-.008.004m.179.187l.016.008.012-.012-.008-.024-.02.028m-.048.164l.024-.02.016-.04-.04.06m7.298-24.367l.004.004zm-.411 20.949l.028-.028-.028-.028-.028.016.028.04m.02-.235l-.048-.072-.008.068.024.02.032-.016m-.052.678l.004.004.008.004v-.012l-.012.004m.148-.323l.004.036.028-.028-.008-.02-.024.012m-.104-.072l-.02.004-.004.068.032.024.02-.02-.028-.076m-.052.144v-.008l-.032-.004.032.012m-.12.132l-.012-.02h-.072l.08.028.004-.008m-.024-.65l-.004.12.044-.028.056-.012-.096-.08m.008.16l.02.024.016-.008-.016-.028-.02.012m.104.347h-.004l.004.004zm-.008-.076l.004.076-.004-.076m.171-1.551l-.004.004.008.012.004-.012-.008-.004m.439.052l-.016-.012-.012.012v.044l.016.008.012-.052m-10.265-22.724c-.016-.096-.08-.116-.144-.136l-.008.06.068.024.084.052m.06.048l.016-.008-.016-.012-.008.016.008.004m-.028.084l.012-.004-.008-.016-.012.004.008.016m-.108-.594v-.004zm-.012-.032l-.008.016.016.008-.004-.016-.004-.008m.012.032l.004-.004-.004-.004v.008m.586.861l.016-.016-.008-.012-.024.016.016.012m-.375-.06l.004.016.016-.008-.012-.016-.008.008m.263-.116l-.032-.028-.012.012.016.028.028-.012m.008-3.162l.044.032-.012-.06-.032.028m-.191 3.262h.016l.004-.012-.02-.004v.016m9.93 2.847l.004.004v-.004h-.004m-10.233-3.597l.02.004.008-.016-.016-.024-.016.02.004.016m-.351-1.476l-.012.012.008.024.012-.02-.008-.016m.175 1.073l.012.004v-.008l-.008-.008-.004.012m.004-.766v-.008h-.004v.004l.004.004m-.02.977l.004-.008-.004-.004-.004.004v.004m.064.187l-.044-.02-.012.016.056.004m-.223-1.432.351.554l.008-.02-.028-.044-.012.004.012.052.02.008m-.351-.554h.004zm.307 1.499l.008.004.004-.008-.008-.004-.004.008m.048-1.292l-.024-.016-.008.008.016.024.016-.016m-.183.008h-.04l.024.044.024.004-.008-.048m.016.072l-.004-.016v.02l.004-.004m.004-.762h-.02l.02.072zm.036 1.679v.024l.06-.012-.06-.012m.606-2.245l-.016.012.012.016.02-.008-.016-.02m-6.7 7.765l.02.016.008-.016-.024-.02-.004.02m.068.239l.036-.036-.032-.056-.02.052.016.04m6.931-8.542l.02-.024-.004-.008-.024.012.008.02m-7.505 2.05l-.012-.004v.008l.008.004.004-.004m0 .443l.008-.004-.004-.004zm.889 6.429l-.068-.024.02.076.048-.052m-6.632 14.329l.056-.048.032-.008.04.08c.072-.056.076-.064.028-.16l-.175.016-.032.028-.008.068.056.024zm5.803-15.928l.036.048-.036-.048m.427 1.033l-.064-.152c-.016.1-.016.1.064.152m-.283-.949l.116-.104-.064-.02-.036.056-.068.032.004.028.048.008m-.02-5.097l-.004.024h.004v-.024m7.374-2.544h.02l-.008-.012v-.004l-.012.016m-6.277-1.204l-.004.008h.016l-.004-.008h-.008m6.333 1.188l-.016-.008-.028.008.028.012.016-.012m-7.406 3.797v-.008.008m-.028-1.212l-.06-.036.06.036m.036 1.18l.016.008v-.012l-.016.004m.032 1.448l.076.016.056.02.032-.04v-.056l-.032-.092-.175.12.044.032m-.044-1.2l.032-.068-.032-.036zm.012-.231l-.008.008h.012l.008-.012.004-.004h-.004l-.012.008m-.108-.092l-.016.056.016-.056m6.361-.822v-.004l-.004.012.004-.004m9.045.351c-.068 0-.104-.04-.116-.104-.076.004-.088.056-.088.116.128.052.148.052.203-.012m-.459-.275l-.004.008.028.008.016-.012-.02-.008-.02.004m.355.128l.012-.048-.028-.116-.052.104.02.04.048.02m-.243.183l.02.024.04-.028-.028-.024-.032.028m.156-.259l-.072-.068-.156.02-.012.088.128.064c.052-.016.092-.044.112-.104m.104 2.377h-.008l.004.008zm-8.977-3.466l-.072-.084.02.064.052.02m8.989 3.39l-.02-.012-.004.02.016.012.008-.02m.088-2.353l-.012-.02-.08.06.088-.032.004-.008m-.431.004zm.183 2.417l-.052-.084.052.084m-.048.044l.048.128-.048-.128m.024.311l-.016-.008-.016.012.02.012.012-.016m6.185 2.369h.06l.02-.104-.036.056-.044.048m-6.389-3.067l.092.124c.016-.068.008-.076-.092-.124m-.044-.837l.032.056.108.032-.052-.183c-.068.016-.092.04-.088.096m.303.905l-.004-.008v.016l.004-.008m.06.215l.012.016v-.008l-.004-.012-.008.004m.032.291v-.008l-.004.008zm-.14-.495v-.06l-.016-.012-.016.008.032.064m.048-1.168l-.06-.064-.076.024h-.04l-.048.016h-.048l.056.072.064-.028.02.012.116.016.016-.048m-.08.187l-.02-.004-.008.008.02.048.016-.004-.008-.048m.299-1.085h.02l.012-.076-.044.056.012.02m-9.44-1.049l.036.084-.036-.084m.152.343l-.012.016.012.052.024-.008-.008-.052-.016-.008m.116.06l.008.008.016-.008-.004-.008-.02.008m.028.187l.016.02.016-.02-.008-.02-.024.02m.092-.259h-.004l-.008.004.008.004.004-.008m-.052.806l.044-.012-.048-.096-.028.072.032.036m-12.247 20.626h-.016l.008.004.008-.004m12.259-20.885l.028-.008h.008-.004l-.032-.044-.012-.032-.032-.004-.008.028.052.06m.754-1.974l-.036-.012-.044-.012.072.052.008-.028m10.205 17.432l-.008.004v.008h.008v-.012m.016.491l-.012-.048-.06.072.072-.024m-.044-.215l-.052.044.052-.044m.048-.514l-.016-.04-.04-.032.012.064.044.008m-.028-.558c.052.004.084-.016.084-.068h.004l-.004-.004.088-.016-.008-.052-.104-.084-.02.008-.024.096v.004l-.016.116m-.076-.303l-.1-.052.028.048.048.044h.028l-.004-.04m-.072 1.308l.004-.004h-.008zm.036-1.049l-.02.012.028.056-.044.012.032.104.004.088v.032l-.032.068c-.008.056.012.068.088.072l-.012-.084-.004-.1.008-.084-.012-.104.036-.02-.072-.052m.008-.219v.004h.004v-.004zm.092-1.667c-.02-.056-.064-.072-.12-.076l-.06.072.024.024.112.004.044-.024m-.136 1.763l.064.024-.016-.116-.048.092m.032.734l.008-.008-.004-.008-.004.008v.008m.279-2.883h-.004zm-.012.1l.008-.028-.012-.004-.012.028.016.004m.008-.1h-.06l-.016.02.024.012.052-.032m-.044 2.098l.032.028.02-.02v-.08h-.024l-.028.072m.032.574l.024-.012.004-.06-.036.048.008.024m-.215.419l-.036-.132-.064.008.008.08v.088l.008.056.02.016.036-.028-.024-.076.032.024.02-.036m-.064-2.644l-.02.084.06-.052.004-.028-.044-.004m.251 1.416l-.024.036.016.024.04-.032-.032-.028m-.307-1.551l.012-.004-.004-.012-.008.016m.152-.016v-.04l-.04-.048-.044.028-.016.056.1.004m.215-.335l-.012.04.048.012.044-.028-.056-.048-.024.024m-.152.024l.072-.08.064-.032-.096-.044-.02.02-.02.044c-.028.072-.04.088-.116.12l-.016.016-.048.056.012.056-.06.012.052.036.048-.064.084-.08.044-.06m.231.004l.024-.06-.024.06m-.096.012h.004zm-.112 3.186l.004-.12-.004.12m-.203-.247l-.008-.004-.008.032.016-.028m.762-3.27l.004.012.008-.008-.008-.012-.004.004m-.156.056v-.016l-.004.024.004-.008m0-.02v.004-.004zm.092-.1l-.092.096.092-.096m3.597-4.016l.088-.227-.056-.048-.12.028-.152.156c-.044.036-.084.08-.072.148l-.012.04.008.02c.056.076.056.1 0 .164l-.096.128.076.052.068-.004.076-.112-.028-.028.072-.084c.08-.056.116-.144.148-.231m-.566-4.056v-.1l-.04-.08-.052.08.024.08.016.06-.004.032c-.044.092-.044.092.012.207.028-.108.052-.187.044-.279m-.215.255l.028-.108-.036-.116-.064.084-.08.068.012.004.088-.012.024.012-.052.044.028.044.036.02.016-.04m-.156.084l.02-.08-.16.02-.004.04-.012.048.104-.024.052-.004m-.183.012l.028.016-.028-.016m-.004-.171l.028.06.02.036.04-.056-.032-.124-.052-.016-.004.1m-.016-.175l.016.024.088-.032-.02-.14-.028-.028-.092.06-.08-.056-.02.116.116-.04.02.096m-.052-.004l.004-.004-.004.004m-.1.255l.1-.032-.016-.108-.052.064-.032.076m.06.16c.044-.06.044-.06-.028-.104l-.044.084.072.02m-.144-.068l.056-.072.016-.012-.064-.056c-.004-.048-.04-.1.016-.156l-.084.008-.008.116-.032.116.056.048-.032.052v.036l.056.032.048-.032-.028-.08m.403-.742l-.056.052.128.056.02-.124.06.024c-.008.104-.004.108.068.096l-.032-.12c.068-.024.044-.092.056-.136l-.024-.052-.04-.004-.068.08-.032.064h-.076l-.004.064m-.734-.179l.036-.032-.028-.084-.056-.012-.012.104.06.024m-.088-.156l.04.024v.004l.044-.04-.016-.052-.008-.048-.092.024-.044.008-.076.14c.112-.008.112-.008.128-.096l.024.036m.028-.171zm.024 0l-.008.004.008-.004m.052 0l-.004-.008.004.008m.016-.012l-.02-.012.02.012m-2.784 10.189h-.008zm.068-.148c-.04.112-.148.092-.207.164l.032.064.028.072.052-.008.048.016-.008-.064-.024-.096h.004l-.032-.032c.12 0 .12 0 .108-.116m.04.51l-.036-.064-.028-.072-.1-.048.004.116.1.291-.008.068.084.08.084-.088-.092-.012.016-.231-.024-.04m-9.89 14.6l.076-.028-.076.028m-.255-.758l.016-.008-.016.008m-.179.124l.02.008-.02-.008m-11.944-9.567l.008-.02-.02-.004c-.076.028-.16.04-.215.104l-.052.028-.191.128-.016.024.152-.04.335-.219m-.53-.084l.096-.076.064-.044h-.088l-.104-.012-.024.024-.032.096-.072.076.056-.004.104-.06m.104-.227l-.076.052.044.052c.048-.056.12-.068.191-.092l.008.048.08-.044-.028-.04c-.008-.056-.04-.068-.088-.044l-.132.068m6.086-12.977l.016-.008-.016.008m-.423-1.097v-.004zm.291-7.481l.024-.032-.024.032m-.092-.08l.06-.02-.06.02m6.449 1.591v-.004zm-.335 3.095l.028-.044-.028.044m.06.144l.016.016-.016-.016m2.225.08l.008.004-.008-.004m.175-.355l-.016-.012.016.012m1.759-2.987l-.008.012.008-.012m8.857 5.719l.024-.044c-.024-.048-.024-.112-.092-.128l-.008.183.076-.012m0 0l-.012.012.012-.012m-.128-.048c-.032-.072-.032-.072.032-.148l.028.016.064-.084-.052-.008-.036.056-.064-.036c-.052-.036-.056-.068-.012-.116l.024-.032-.004-.183-.056.036-.064.028.032.072-.024.08-.008.028.02.06-.004.235-.02.124.04.004.04-.04.064-.092m-3.821 1.38l-.02-.056-.096.004-.028.088.1.012.044-.048m-.064-.327l-.048.12.028.048c.064-.064.064-.104.02-.167m-.144.148c.044-.032.04-.068.012-.108l-.028.004-.132.084.148.02m-.243-.251l.088.048.044-.036.016-.028c-.056-.048-.056-.048-.148.016m-.1-.167l.032-.024.012-.068-.02-.024-.032.008-.052.092.06.016m.207-.024l-.056-.104-.024.052c-.004.052.012.064.08.052m-.243-.319l-.02.016.024.048.044.08.06-.02.179-.008-.02-.068-.128-.012-.14-.036m.1-.658l-.016-.024.016.024m.004-.068l-.016.024.016-.024m.167.762l-.004.012.028.012v.056l.028.012.052-.088v-.008l-.06-.064-.044.068m.175.195l-.156.056c.044.04.096.044.148.028l.088-.048.028-.04-.036-.044-.04-.008-.032.056m-.518.479zm-.032-.211l-.028.04.044.024.02-.016-.036-.048m-.367-1.751h.004-.004m.694-2.792l-.004.06.004-.06m.06.973l-.008.004.008-.004.012.028-.012-.028m5.946 4.435l-.036.004.036.008v-.012m-4.235-1.077l-.012-.004-.028.052.008.02.012-.012.02-.056m3.725-.55h.004l.02-.008-.02-.008-.016.008.012.008m.646 1.834l-.012-.008-.012.012.02.004.004-.008m-4.287 8.203l.008.02.012-.016-.016-.016-.004.012m.941-1.719l.012-.016-.008-.004-.008.012.004.004m-.558 3.374l-.008.02.008.008.008-.02-.008-.008m0 .124l.004-.008-.004-.012-.008.008.004.008m.104-.243h.004l-.004-.004v.004m-.092.06l-.028-.02-.032.028-.004.02.028.008.032-.012.004-.024m.116 3.9l.008-.004-.008.004m0 0h.004zm-23.485 2.038l-.012.012.012.008.008-.016-.008-.004m-.12.622l-.004-.004-.004.008zm-.247.048l-.012.004.012.016.004-.004-.004-.016m2.361 1.946l.012-.008v-.012l-.016.012.004.008m-2.11-2.161h-.012l.016.008-.004-.008m23.581-6.56l-.044.052.04.052.016-.012-.008-.044-.004-.048m-23.533 5.691l.112.024-.112-.024m.064.766h.02v-.012l-.02-.004v.016m22.125 2.768v-.008l-.004.008zm.945-11.234h.008v-.008l-.012-.004.004.012m.546-.69l-.076.032.076-.032m-1.763 12.183l.008.016.008-.008-.008-.016-.008.004m1.587-8.794v-.012l-.012.008.004.008.008-.004m-.036.175l.008.028.02-.008-.004-.028-.024.004m-.04-.818l-.008.028.016.008.004-.02-.012-.016m.024 1.228l-.004-.016-.008.016.004.012.008-.012m.179-3.717l-.028.012-.048.064-.056.032.032.052.036-.04.072-.08-.008-.04m-.275 2.508l-.012.036.028.02.008-.036-.024-.02m-5.507-16.965l.004-.012-.008-.004-.004.008.008.008m8.299 5.013v.036h.004l-.004-.036m.048.04l-.044-.004h-.004l-.02.076.068-.072m-.048-.076l-.004-.004v.004l.004.036-.004-.036h.004m-.148 0l.028-.016.016-.048.008-.116-.024-.056-.02-.008-.02.016-.02.195.032.032m.327-.219l-.02-.008-.016.016.02.012.016-.02m.08.092l-.076-.052-.052.02.048.076.08-.044m-.427.223l.02-.004-.008-.016-.012.012v.008m.335-.06l.008.008.016-.012-.012-.012-.012.016m-.124-.084l.012-.02-.012-.124-.004-.008-.076-.092.052.235.028.008m-.036.044h-.008l.012.004-.004-.004m-.16.199h.004l.036.036.012-.064-.02-.044-.032.072-.004-.004.004.004m-1.109-.331h.004l.004-.004h-.004m.012-.008l-.008.008.016-.008h-.004m-.02.088v-.076l-.04.044.04.032m-.14 0l-.084.044.084-.044m.973-.235l-.004.016.012-.012-.008-.004m-.833.16h.004zm.997-.124l-.032-.036-.06.008-.008.06.1-.032m1.24.506h-.032l-.008.008.024.008.016-.016m-1.412-.518l-.052-.004-.028.04c.064.032.08.024.08-.036m.243.455l.036.008-.036-.008m1.571 1.025l.004.076-.008.056c.048.032.088.04.128.004l-.06-.008v-.084l.076-.044-.064-.004-.076.004m-.247-.973v-.008h-.016v.02l.016-.012m.455 1.591l-.028.052h.068l-.04-.052m0 .104l-.008-.02-.02.008.008.016.02-.004m-.04-.865l-.016.008.004.008.016-.008-.004-.008m.004-.068l-.012.004.008.036.012-.004-.008-.036m.112-.243l.016.024.016-.02-.02-.048-.012.044m-.14-.048l.028.108-.028-.108m.167-.08l-.012-.008-.012.008.02.008.004-.008m-.12.052v-.108l.14-.008.016-.008-.036-.052c-.104.068-.104.068-.171-.02-.048.064-.036.132-.02.199l.072-.004m.036 1.348l-.08.012.08-.012m-.156.032l.036-.12-.028-.032-.024.02-.04.132h.056m.004-.522l-.008.004.004.016.02-.008-.016-.012m-.068-.534l.02.04.02.024.012-.068-.052.004m.02-.618l.036-.012-.044-.024-.024-.044-.04.08h.072m-.02 1.44l.076.024-.064-.072-.012.048m.12-.483l.004.004.004-.004h-.008m0 0l-.004.004h.008zm.084-.072l-.02-.016-.008.028.004.008.024-.02m-.179.463l.02-.012-.016-.012-.008.016.004.008m.104-.391l.068-.004-.068.004m-.072.12l-.008-.012-.024.016.016.012.016-.016m-3.115-1.412l.008-.004-.008-.004h-.008l.008.008m1.24-.327l-.004.004v.004h.004v-.008m-4.399-5.16l.004-.02-.008-.04h-.012l.004.04.012.02m.032-.171l-.004-.024-.02.012.008.02.016-.008m-.028-.108h-.008l.004.008zm-.06.614l.06.04.056-.008.052-.02.028.084.032-.14-.068.02-.028-.056-.04.02-.008-.024-.024.052-.06.032m.084-.084l-.024-.028.024.028m.183.04v-.008l-.008.004.004.008h.004m-.068-.913l-.004-.008-.008.004v.008l.012-.004m-.036.319h.016v-.02h-.016v.02m-.084-.1v.016l.004-.004v-.008m.14 1.284c.016-.076.068-.136.044-.215-.052.1-.056.136-.044.215m-.072-.993l.052-.008v.004h.004l.016.02.004-.02h.004v-.004l-.004-.072-.08.012-.028.028.032.04m-.116.235l.024.092.016-.028.068-.04c.052-.024.056-.032.028-.1l-.156.024-.024.04.044.012m2.229 5.942l.04-.064.02-.056-.104.052.044.068m-.12.1l-.016-.04-.012-.008-.016.028.004.032.04-.012m-.355-.203l-.024.008-.004.004.008-.004.02-.008m-.028.012l-.088.06.088-.06m-.076.319l-.012-.024-.024.024.008.02.028-.02m-.331.179l.052.008-.044-.056-.008.048m.849-.247l-.024-.008-.024.02.024.012.024-.024m.506-.562h-.008l-.008.02h.008l.008-.02m.16.096v-.032l-.04.008-.008.024.008.004.04-.004m.148-.195h-.008l.008.004zm-.586.367l-.004-.02-.016.008.004.024.016-.012m.104.044l.02.024.024-.024-.02-.024-.024.024m.028-.116l-.016-.008-.032.024.028.024.02-.04m-2.309-4.443l-.008.084.008-.084m-.064-.459l-.008.028.012.004.008-.02-.012-.012m.865 5.767l.008-.032-.016-.012-.024.016-.02.036.012.012.04-.02m-.782-4.965l.048-.02-.012-.064-.048.012-.016-.072-.112.036.084.14.056-.032m.044-1.236h-.008l-.004.012h.012v-.012m-.016-.439l.02-.012-.016-.02-.02.024.016.008m-.187 1.412v.024h.016l.004-.036-.02.012m.239 3.486l-.004.008h.016l-.004-.008h-.008m-.195-3.809l-.016-.004-.016.036.016.008.016-.04m.199 1.368l.004-.008h-.008zm-.016-2.72l-.008-.004-.004.012h.016l-.004-.008m.016 1.555v.012-.012m-.012.132l.012-.12-.012.12m-19.27 14.472l.016-.008-.004-.008-.016.008.004.008m11.426-16.949l-.036-.068-.056.04.092.028m-.032-.068l-.004-.004v.004h.004m.044.008l-.012-.016-.032.008.024.016.02-.008m.048.299l-.004.004h.004v-.004m-.004 0h-.004l.004.004zm.108.04l.004-.052-.108.016.064.04.04-.004m-.12-.152h-.004v.004l.004-.004m-.128.171l.116-.008-.008-.044.028-.008-.008-.112-.004.004c-.088.024-.096.1-.124.167m-.004.136l.016-.012-.012-.068-.024.06.02.02m.175-.108l.016.024.016-.012-.012-.02-.02.008m-.068.124l.02.04.016-.044-.012-.028-.024.032m.024-.339h-.012l.008.016.004-.016m3.107.658v-.008h-.012l.004.012.008-.004m-.052.586h-.06l.024.084.036-.084m-1.635 1.687l-.008-.012-.008.008.012.012.004-.008m-.02.16l-.012-.012-.004.008.008.04.008-.036m.068-.004l.008-.084-.008.084m.279-.973l-.004-.008-.008.004.008.008.004-.004m-13.631 15.33l.008-.016-.016-.02v.028l.008.008m-1.894 9.125v-.008l-.008.004zm.092-.798c-.02-.064-.012-.144-.108-.187l.064.239.044-.052m-.068.574l-.02.012.008.004.016-.004-.004-.012m-.12-.634l-.084.008.016.056.084-.012-.016-.052m-.028.203l-.008-.008v.008zm.335.431l-.004-.004-.004.008.008.004v-.004m.375.255l-.056-.008-.036.044.036.052.068-.04.016-.06-.028.012m-.199-.116l.004.012h.008l-.004-.012h-.008m-.14-.024l.004-.02-.044-.008.04.028m-.387-.451l-.04.08.008.044.056.052.044-.048-.032-.136-.036.008m.343.578v-.008l-.008.004zm.152.016l.02.024.016-.012-.012-.028-.024.016m.008-.235l.004.008.004-.008h-.008m-.985-.255l.008.02.024-.028-.016-.016-.016.024m.028-.83l-.012.088.012-.088m.495 1.276l.008.004.004-.012h-.008l-.004.008m-.566-.873l.004.004.016.008.032-.008-.024-.008-.028.004m.056.02v-.012l-.012.004.012.008m0-.012l-.004-.004zm.112.419zm.203-.622l-.008-.02-.016.012.004.008h.02m.012.319l.024-.064-.024.064m-.14.124c-.04-.036-.072-.028-.1.016l-.072-.072-.092-.024c-.016.068.012.124.048.171l.084.004.06-.024.004.064-.008.044.092-.004.024-.048-.04-.128m-.072.207l.008-.012-.012-.016v.02l.004.008m-.004-.028h-.004.004m.183-.183l-.012.032.012.044-.068.056.06.068.036.016.02-.024-.02-.231-.028.04m1.033.686l-.044.04.064.04.028-.072-.048-.008m-1.196-.993l-.02.092.02.128.016.008.016-.012-.004-.068-.028-.148m1.176.782l-.008.108.024.004-.016-.112m2.257.881l-.008.008.012-.004h.016l-.02-.004m-1.424-.347h.04l.02-.112-.044-.008-.016.12m1.444.351l.012.032c.068.056.148.096.231.116l.016-.012-.259-.136m-3.581-2.03l.048-.04-.036-.06-.008-.08-.04-.068-.187.028.036.032.108.076.08.112m6.752-25.938l.04-.036-.056-.016-.016.008.032.044m-2.181 15.493l.016-.06-.04.044.004.02.02-.004m-.73.762l-.028.14c.032-.048.06-.076.028-.14m-.822.913l.012-.024-.012-.024-.024.032.024.016m.965-1.137l-.012-.132-.02.104.032.028m-1.499 1.615v.1-.1m.008.435v-.004h.004-.004v.004m.012-.63l.028-.08h-.016l-.012.08m-.012-.263l.008.072-.008-.072m.036.578h-.008l.004.008zm2.038 11.015l.008-.012-.012.004.004.008m1.886-27.808v-.084.084m-.024-.307l.008-.004.004-.028-.02-.024-.008.028.016.028m.068-.419l.04.056c.036-.048.036-.048-.004-.187l-.084.088.048.044m-.076 1.456l.004-.108-.028.02-.016.02.04.068m.164-.53l-.032-.016-.008.02.016.02.024-.024m-.183.63h-.012v.1l.032.02.06-.032-.008-.056-.064.02-.008-.052m.072-.602l.012-.076.052-.06-.068-.004-.048-.008c-.02.06-.008.104.052.148m-.044.179l.02.036.036-.012.012-.04-.04-.012-.028.028m.068-.016h.004zm.004-.004l.04-.06-.04.06m-4.008 16.718l-.024-.056.024.056m-.818 2.684l.016-.012-.012-.012-.008.016.004.008m-1.627 5.137v.004zm0 .004v-.004zm-.271.379l.004.02.012-.02-.008-.016-.008.016m.363-.734l-.004-.008-.016.008.004.008.016-.008m-.179.112l.04-.016-.048-.02-.016.012.024.024m.211.235l.012-.052-.028-.128-.024-.016-.008.008.02.064-.088.112-.008.016.04.028.084-.032m1.476-5.021h-.012l-.008.044.02.004zm6.855-22.05h-.004.004m-.742.877v-.004zm-.02.028l.016.008.008-.02-.004-.016-.016.008-.004.02m.758-.905-1.488.423l-.008.116.008-.116m6.652.12l-.008.012.012-.004-.004-.008m-6.66-.004v.008h.004v-.004m1.803-.55l.036.04.02-.108m-.02.108v.004-.004m-1.807.893l-.008-.008.008.008m2.006-.622l.008-.008-.008.008m.028 0h-.028.028m-.028 0l.024.02-.024-.02m2.907-.367l.076.076.112.012.108.052.056-.056.02.076.024-.02.056-.116m-.574.028l.08.032-.004-.16m-.291.06c.024.048.052.1.12.112l.04-.144m-.279.06l.068.084.016-.068m-.255-.024l-.008.068h.084l.056-.048m-2.437-.036l-.016.112.02-.008.028-.012.008.08h.048l.012-.032.052-.004.024.072.032.04.048-.028.004-.028.032-.076-.012-.04m-.534-.088l-.016.088-.028.096.04.008.088-.072h.096l.076-.108m-.495.056l.032.108.088-.108m13.495 9.364l-.084-.044-.056.016-.072-.016-.084.012.06.132.06-.068.104.032.072-.064m6.481 2.504l-.088.164-.012.036-.036.096-.04.112-.052.104c-.04.056-.06.12-.052.187l-.024.179-.068.156-.088.199-.016.028-.056.128-.056.1-.116.144-.012.056-.028.132-.14.16-.243.088h-.056l-.183-.004-.247.008-.148.024-.044.032-.064.08-.08.048-.08.068-.096.12-.008.024-.271.443-.048.108c-.048.096-.088.191-.167.263l-.028.04c-.012.084-.064.148-.108.215-.04.064-.072.14-.144.183l-.04.072-.04.064-.048.06-.076.152-.024.04-.076.084-.044.167c-.02.08-.048.12-.116.175l-.152.12-.084.128-.076-.024-.116.076-.167.076-.14.056-.052.04-.02.052-.004.032-.036.004-.044.012.052.052.06.016.024.02.068.04.024.068-.072-.044-.076-.032-.112.032-.028.08-.076.048-.06-.004.04-.088.068-.012-.036-.104-.092.056-.076-.008h-.084l-.048.068-.032.028c-.072.02-.072.024-.052.1l.072-.048c.044-.068.096-.088.167-.068l.008.02-.112.108-.02-.008-.032.084-.08.056-.004-.016-.008-.052-.068-.004-.092.072-.06.032v.004l.072.04c.04-.008.08-.068.116.004l-.068.092-.072.056-.132.175.028.072.056-.076.068.028-.092.136.124.251.096.255.08.187c-.052.112-.096.235-.124.363l-.028.144-.072-.016.02.084-.024.06.004.024c.032.052.052.096.024.156v.008l-.004.1-.016.016.012.032c-.008.132-.004.267.008.395l-.004.048-.08-.06-.096-.032.032.1.036.128.052.004.04-.052.012.12-.008.072.012.152-.056-.004-.064-.084-.024.044-.028.048.068.052.072.044.012.156c0 .02.104.04.227.056l.02.056c.06.16.215.522.263.606.104.179.315.415.443.574l.012.012-.012.02c-.04.052-.064.112-.064.179l-.02.164-.032.112-.012.084-.016.092-.02.088v.1l-.02.108-.072.243v.032c.012.088-.008.167-.036.251l-.028.076c-.032.104-.048.203-.004.307l.032.1v-.004.008.04l.012.076.02.036c.056-.052.036-.112.044-.171l-.048-.044.028-.072.088.112.02.136.128.052-.068.008-.02.024-.008.052-.04.044.064.012.1.032-.016.056-.116-.036-.04.056.032.088c-.004.044.04.076.092.068l.064.008.024.036-.032.04-.112.032-.016.056h-.004c.036.044.084.092.04.156l-.096.036.036.012.132.175-.068.044.032.064-.056.036.004.084-.036.004-.08-.032.048.092.076.028-.072.02.016.056.048.036.024-.04c.048.024.076.06.064.12l.004.06.052.076.116.287.14.08-.02.024-.016.028.032.016-.148.327-.215.55h-.004l.056-.156c.144-.423-.028-.004-.1.16l-.223.04-.048.128v.032l-.016.076-.052.116-.06.092c.056.036.036.076.02.116l-.112.024c-.072.1-.132.088-.012.235l-.004.028c-.092-.008-.072-.096-.096-.144l-.096.076.028.064.024-.016.024.028-.024.036-.068.1-.056.076-.02-.048-.068.024-.072.076-.06-.024-.036-.016-.048-.028-.028.044.004.028.044.004.016.08-.044.028.016.136.008.136c-.016.06-.016.112.028.167-.052.056-.052.116-.032.179h-.08l.004-.02.02-.068-.06-.024-.088-.008-.068-.191-.096-.064-.02.068c.028.12.012.239.016.355l-.036-.048v-.243l-.108-.195c-.036.104-.032.124.048.291l-.048.112-.02.132-.044-.116v-.267l-.024-.171-.028-.032-.024.144-.032.132v.171l-.068.12-.02.048-.052-.004-.028.048.064.148-.024.064-.008.132c.024.044.012.092-.032.144l-.044-.199-.076-.084-.024.052c-.02.084-.04.164-.112.227l-.02.148.048.016c.036-.056.092-.056.144-.036.052.024.084 0 .112-.044l.016.076.096.008.032.132-.004.088-.008.036-.02.076.048.08v.096l.104-.231.052.036c-.04.064-.044.128-.04.195l-.024.08-.076-.036-.02.008c-.032.04-.052.092-.044.164l-.112-.012-.024.048.032.06.032-.008.036-.036.02.088-.112.012.028.032.012.052.032-.068h.179l.024.076-.044.076-.012-.116-.072.012-.008.02-.008.104-.016.012-.02-.008-.02-.04-.056-.004-.008.012-.06.04-.032-.052-.04-.028-.064.14-.036-.028-.024-.076-.036-.028-.048.008.032.144.263-.012.012.16-.028.032-.02-.008v-.044l.02-.028-.032-.08-.084.08-.04.104-.02-.012-.02-.136-.06.016-.012.064.008.1.02.044-.08.032c-.064-.06-.02-.112-.008-.171l-.04-.02-.048.028-.04.104-.04-.175-.048-.016c-.016.08-.072.156-.02.235l-.08.044.008-.04-.008-.044-.02-.08-.02-.056-.072.04-.032.104-.016-.084-.08-.036.008.084c-.008.048-.04.064-.084.036l-.036-.028.036-.08.036-.084-.052-.016.016-.175.016-.06-.108.012-.104.04c-.032.032-.044.088-.028.152l-.016.211-.04.004.016-.048-.028-.068-.084.004-.012.044.012.044-.032.02-.044-.068-.02-.088-.024-.008c-.068.032-.036.104-.056.16l-.056-.004-.004-.144.044-.048.108.012.056-.156-.04-.068-.064.008-.04.108-.068-.088-.056.02.02.116-.012.1-.044.116-.032-.016.02-.068-.012-.052.024-.116-.024-.124v-.004l-.084.008-.02.024h-.016l-.052-.108-.068.044h-.084l-.064.028-.04.084-.076-.004-.064.028-.032-.08-.144.108-.044-.096c-.04.04-.068.084-.056.148l-.032-.048-.028-.052-.028-.048-.084.088-.036.124-.056-.175-.088.088-.028-.064-.14.076.044.056-.008.028v-.004c-.024.036-.048.08-.108.036l.024-.152-.012-.04c-.056.064-.068.116-.072.291l-.052.024-.044-.068c-.06.072-.06.072-.024.14l.072-.032.072.171.036.052.076-.167.028.044-.004.068.024.048.072-.004.072-.052c-.02.064-.036.112.008.144l-.016.156.068.028.008-.02-.008-.036.032-.092.004-.096v-.108l.056.128-.036.024-.004.012.036.16.024.12.036.016.044-.028c.068.048.08.116.088.187l.088-.016.004.12.02.096c-.032.072-.024.148-.016.219l-.104.02.128.032.016.06.012.08.032.048c.044-.108.04-.148-.02-.227l.032-.072-.012-.08.032-.028-.04-.036.056-.179.088.072h-.028l-.048.064.036.191-.012.076v.072l-.012.108c-.016.04.016.088.056.08.076-.024.116.02.179.068l-.056.008-.399-.076-.056.004-.02.076-.048.06-.315-.068-.056-.012h-.1l-.104-.1-.044.048-.06-.036-.076.036-.024-.004c-.036-.048-.088-.06-.144-.036h-.024l-.068-.104-.048.084-.032-.024-.04-.036-.1.004-.092-.032-.116-.028-.116-.016-.056-.096-.116.12-.064.068-.088.156-.084-.076-.064-.02-.024-.024-.088-.016-.044.08-.064.012-.191.164-.048.064-.056.032-.004.044.036.056-.028.072-.108.028-.323-.012-.028.036-.068-.012-.052-.052-.215-.02h.004l-.004.004v-.004l-.028-.016-.132-.012-.124-.052-.136-.036-.132-.04-.219-.068-.012-.004c-.104.016-.195-.04-.291-.056l-.411-.092-.068-.016c-.12.012-.231-.016-.343-.052l-.235-.04-.116-.024c-.056-.032-.12-.052-.191-.024l-.1-.016c-.06-.032-.124-.04-.191-.032l-.088-.016-.203-.076-.012.088.044.068.04.036v.1l.092.08.008.064-.024.088.112.016.092.211-.036.032.008.048.096.064-.104.124-.096.02-.056-.092-.104-.088-.16-.064-.056-.036-.052-.108-.02-.072.012-.028-.152-.14.024-.048-.08-.028-.14-.215-.136-.207-.116-.012-.088-.024-.175-.064-.056.008-.1-.004-.12-.016-.124-.012-.152-.068-.036.024-.064-.048-.092-.024h-.056c-.06.048-.12.012-.179-.008l-.14-.052-.199-.02-.08-.016-.064-.048-.056.004-.012.04-.227-.092-.207-.068-.152-.024h-.032c-.052.032-.1.012-.144-.012l-.088-.028-.092-.052h-.04c-.084.032-.152 0-.223-.036l-.032-.016c-.052-.04-.108-.06-.171-.048l-.104-.024-.235-.084-.04.008-.112-.008-.036-.048-.072-.024c-.088.04-.16.004-.227-.044l-.171-.08.036.056c-.076-.012-.152-.004-.199-.068l-.02-.012-.1-.024-.08-.064-.179-.052-.164-.024-.06-.032-.048-.032-.179-.068-.052-.016-.124-.02-.275-.088-.012-.004c-.072-.052-.152-.044-.231-.024l-.02-.036-.06-.056-.116-.028-.132-.016-.04-.036-.223-.072-.112-.036-.088-.016-.02-.004c-.028-.064-.084-.048-.132-.048l-.076-.032-.028-.02-.12-.036-.056-.016-.144-.048-.076.024-.064-.024-.032-.092-.076.072c-.088.016-.156-.044-.219-.068l-.056-.132-.032.1-.092-.072-.032-.084.04-.12-.171-.08.004-.14-.124-.064-.14-.04-.104-.02-.052-.02-.502-.116-.024-.02.04-.052-.02-.048.06-.06-.036-.052.06-.084c-.132-.048-.275-.08-.379-.08-.1-.004-.199-.024-.291-.064l-.112-.032c-.124-.02-.247-.04-.367-.08l-.06-.032.052-.024-.016-.024-.008-.032h-.004l.052-.112-.076-.032-.104.06-.016-.06-.028-.032-.036.016.012.052-.052.068.052.08.092.008.008.016-.012.012-.231-.036.036-.088-.008-.084-.04-.08-.036.072-.04.052.016.108-.12-.012.068-.028.008-.02-.028-.124-.036-.056-.06.036-.068-.06-.032-.08-.06-.028-.004.068-.012.064-.036.16-.044.004.02-.088v-.21200000000000002l-.104.012v.112-.004h.012l-.012.004-.056.044-.004-.112-.02-.096-.112.028.024.088-.012.076-.024-.04-.052-.064.016-.004-.012-.164-.036-.152-.032-.032-.024.1-.012.16.004.04.012.072-.008.02-.028-.016-.032-.124-.032-.044-.02-.06.068-.016-.179-.064-.064-.048-.068-.008-.104-.124v.1l-.056-.048-.04-.04-.144.08-.028-.052v-.076l-.02-.036-.04.032-.02.088-.02.052-.052-.112-.012-.088.016-.068-.016-.092.016-.016.024.012.024.128.12.008.02-.08-.076-.028-.04-.044.052-.02.044-.016-.036-.144-.016-.144-.327-.112.04-.048-.012-.064c-.08-.012-.164 0-.235-.044l.036-.016.016-.024-.024-.032.032-.02-.012-.052.052-.068.04.048.084-.08.068-.068.06.056.016-.06.02-.064.024-.064-.036-.144.12-.008.028-.028-.004-.032v-.068l-.024-.06.008-.008.052.036.008.008-.04-.088.024-.044.008-.152c0-.052-.024-.072-.092-.08l-.016-.012.036-.004.052-.044.04-.072.052.116.036-.056.04-.048.132.064.044-.04h.044c.04.068.104.052.164.044h.048l.072.096c.004-.068-.048-.144 0-.211-.076-.052-.076-.052-.132.036l-.036-.092-.08-.052-.036.112c-.06-.036-.06-.036-.068-.148l.068-.028.128.016.175.02.048.1c-.024.064.02.096.056.136l.036-.06-.028-.132.048-.084.048-.044-.036-.036-.092-.08-.036-.04c-.048-.028-.088-.056-.096-.12l-.132-.112c-.08-.048-.144-.116-.203-.183l-.052-.088-.06-.016v-.004l-.12-.152c-.072-.12-.179-.215-.231-.347-.072-.064-.084-.152-.12-.239l-.052-.088-.044-.128-.02-.092-.052-.052-.008-.008c-.028-.08-.108-.116-.16-.171l-.024-.064-.008-.068c-.036-.064-.024-.144-.024-.211-.004-.072.044-.128.096-.167l.203-.152.211-.132c.132-.088.267-.167.415-.235l.251-.136.247-.136.056-.052.056-.04.028-.044-.044-.024.076-.08.028-.12.052-.04-.024-.048v-.084l.1-.052.02-.048h-.068l.016-.048-.016-.076.06-.116.1-.096-.072-.144.084-.06.052.004.024-.032-.004-.008-.076-.06-.012-.008.048-.128.064-.048.148-.076-.068-.072-.076.088.064-.223.048-.104.06-.064.036-.028-.028-.048.088-.195.096-.207.048-.124c.036-.06.056-.136.148-.144l-.064-.008v-.036l.06-.171.012-.032c.04-.056.04-.12.024-.179l-.016-.072.044-.064-.076-.395c.032-.072.06-.148.008-.239.044-.044.048-.108.04-.175l.052-.004-.004.064.04.056.096.012.048.148.108.112.012-.199.02-.187.024.02-.004.152-.004.06c-.016.06.028.092.064.124l.036-.012.004-.064-.048-.108c.084-.056.044-.156.084-.223l.028.028.016.092.116-.088.032-.1.012-.032.04-.08.044-.096.024-.12.004-.14.076.152.02-.008.148-.124.052-.076.064-.12.072-.068.024-.104-.008-.1.044-.128.032.164.032-.052.056-.036.052-.044.02-.032.136-.12.06-.048c.056-.032.088-.072.084-.144l.036-.092.024.048.004.08.044-.04.084-.092c.1-.072.203-.132.283-.223l.171-.12.092-.144c.064-.167.128-.335.215-.491l.072-.148.06-.128.052.008.032-.024-.012-.056.02-.112.331-.566c.068-.1.12-.219.207-.307l.024-.064.008-.056.08-.044.072-.076.064-.072-.028.096-.028.02-.02.052.052.032-.04.076-.036.048.004.052.052.02-.032.116c-.036.04-.04.092-.024.156l.036-.02c.036-.06.096-.112.096-.187l.016-.028.076-.124.084-.167.024-.136.02-.1.056-.164.08-.144.016-.076.024-.156.072.016.056-.096.056-.271.104-.299.036-.056.032-.044.068-.084.056.016.028-.016.04-.1.048-.191.024-.036.044-.096.048-.104c.028-.052.044-.104.024-.16l.036-.116.112-.156.004-.04-.04-.016-.012.004c-.076.016-.084.008-.072-.076l.108-.044-.048-.068-.02-.072-.08-.02-.028-.076-.02.004c-.044.048-.096.088-.167.072l-.044.016-.072.04-.072-.1.064-.108c.048-.06.048-.1-.008-.171l-.024-.096.04-.02c.012-.048.012-.096-.032-.132l-.048-.128-.024-.1-.004-.056c.016-.056 0-.108-.044-.16l-.096-.004-.016-.104c.004-.06 0-.108-.044-.148l.056-.14-.016-.144.044-.012.108-.02.008-.02-.04-.028v-.068c-.064-.016-.064-.016-.108.072l-.048-.092-.068.08h-.048l-.012-.016.012-.092-.06.004-.044.048-.068.024c-.044-.008-.076.036-.076.084.004.088-.032.14-.104.171l-.076.028-.06.024-.004-.068-.004-.068.068-.104.08.092.004-.144-.088-.016c.004-.052.016-.096.072-.12l.028-.08h-.028l.024-.116.092-.044.036.044.052-.124c-.128-.024-.128-.024-.179.012l.044-.14.048.032.052-.064-.016-.092-.02-.064c-.004-.064.012-.084.08-.104l.036-.016.008-.092-.004.004-.004-.004-.016-.004-.036-.036.04-.044.016.016.08-.128-.028-.048-.032-.008-.012-.02c.04-.052.084-.092.148-.104l.052-.016.016-.028-.016-.028-.108.036-.016-.064.004-.167-.012-.128.032-.048.012.028.008.132.02.068.044.004-.02-.167v-.044c.056-.056.036-.116.012-.171-.028-.064-.008-.108.02-.16l.144-.032-.044-.132c.036-.064.032-.128-.012-.199l-.08.016-.06-.044.024-.156-.044-.06-.048.024-.012-.016-.004-.072c0-.076 0-.076.08-.1l-.068-.064.06-.1.02-.12-.052.044-.068-.104.072-.092c.04-.028.072-.068.028-.12l.004-.124v-.316l-.044-.032-.04.012-.004.028.064.08-.04.028-.12-.092-.032-.148.064-.052c-.096-.044-.128-.12-.12-.211l.068.02.096-.044.064.036.056-.08-.12.004-.064-.132h-.004l.004.004.028-.04c.064-.012.056-.056.056-.104h-.004l.012-.056-.012-.064-.052-.044.1.008.012-.02c-.016-.116-.028-.239-.108-.339l-.02-.052-.032-.167-.08-.028-.048.008-.012-.008.056-.052.112-.064.024-.048-.04-.032-.048-.012v-.14l.052-.008-.016-.076v-.004l.004.004-.028-.028-.048.024-.136-.088h.108l.092-.096-.144-.136.02-.008.028-.092-.016-.1-.072.052-.028-.108.06.036.088-.112-.056-.04-.012-.068-.06.004-.012-.072.036-.008.064-.072-.028-.112.1-.016.112-.112.036.06v-.004l.06.016.016-.056-.064-.112-.068.044h-.08l-.072.068-.06-.16.06.016.004-.056.068.092.048-.076.084-.02v-.064l-.052.004-.028.016-.02-.032.024-.152.012-.08-.032-.227-.056-.044-.116-.024.048-.171c-.052-.072.012-.124.032-.187l.064.116.024-.06.032-.108-.036-.072-.036-.036.144.004.06-.06.004-.004.124.004.02-.056-.167-.04.028-.108c.028-.06.04-.124.012-.195-.02-.064-.036-.136-.008-.203l-.06-.072.104-.02.016.036c.016.076.016.076.104.06v-.156l-.02-.1.02-.032.02-.076.04.12-.004.164.004-.004.116-.076.004.044-.04.096-.084.032v.199l.124-.072.144-.016c.036.052.008.096-.008.156l-.112-.092-.016.084-.048-.028-.032.044-.096-.028.008.076.076.06.048-.068.048.056.06.064.068-.076.056-.004.044-.016.052-.02.028.016.036.044.016-.016.02-.02.104-.004.092-.036c.064.064.068.068.04.132l-.02.032.024.08.048.044.024-.064.028-.068-.052-.024.044-.028v-.036l-.012-.12-.044-.116.012-.072.052-.028-.012-.124-.048.032-.068.012.012-.148.06.056c.096-.084.028-.16-.012-.231.08-.032.08-.032.175.036l.032-.068.024-.016.02.02.036.195.06-.064-.016-.06v-.06l-.02-.044.076-.052.016.064-.036.06.06.136.096-.052-.056-.04.008-.032c.072-.064.064-.144.064-.223l-.02-.052v-.052l.052.008.088.036.012-.128.012-.167.259.148c.012-.084-.02-.164-.052-.239l.092-.068.04.048-.032.092-.008.056.012.144.14.08.02-.028.028.056.04.016.096-.008v-.02l.004-.012-.02-.084.056-.04v-.004l.004-.008v.008l-.004.004-.008.052.008.068h.008l-.004.008.004.024.156-.016v-.024h.004l.008-.032.02-.016.028.024.004.028-.004.012h.004l.116-.008.008-.012.024-.136.028.004-.012-.056-.016-.112.056-.032.088.084c.072-.048.048-.116.072-.175l.036-.136.132-.084c0-.052.259-.008.295.024l.116.191c.104.056.152-.02.227-.032.004-.096.108-.175.084-.283l.076.048.064.044c.024-.052.02-.116.128-.132l.052.084.06-.088.052-.092.02-.02.108-.096.076-.036.076.16.1.068.144.012.032-.036.044.024v-.167l.12-.008.016.048-.048.008-.06.136.04.016.084.036.06.064.02.004v-.024l.02.02.183-.171.08.048c.1.036.104.044.012.092l-.012.024.076.156-.004-.108.08-.008-.068.116.104-.008c-.008.064.008.112.072.148l.012-.004.008.016h.004l.06-.056.072-.028-.056.136v.04l-.004-.004v.004h.004l.108.112.008.012.008-.02.044.032.004.004.156.02.064.04.048-.036h.024l.124.052.096.072-.032.112.008.008.036-.044.128-.032-.008.12.068.016.072.024.068.1.064.004-.004-.004v-.004h.012l-.008.004.036.04.024.06.004.132.044.036.028-.116.036.028.04.219.016.207-.02.1-.008.06.032.128v.004l.052.02-.008-.136c.068.076.068.08.072.16l.1.012.032.06c.048.04.064.112.04.171-.02.048-.048.084-.116.08l.004-.048.044-.08-.016-.04-.04.008-.02.024-.04.112-.02.076-.044.072.028.04.028-.032.088-.08.088.04.032-.024.052-.108.032.052-.08.179.004.068-.096.06c-.056-.048-.124-.048-.199-.02l.02.08-.04.084.04.052.084-.004.024-.072.028.028c.008.06-.028.108-.084.112l-.08.004.012.04c.056.008.092.032.112.084v.004l-.064-.016-.032.044.028.028.048.056h-.06l-.08.008.028.136.02.14-.06.024-.064-.048-.12.028.004-.044v-.004l-.028-.052-.076.227-.044.02-.008.088-.116-.012-.171-.1-.02.056c-.068-.024-.1-.112-.203-.124.06.036.088.076.092.124.004.064.032.116.088.152l.028.024-.016.04-.04.032.036.056.032.004.08.06-.044.032.044.096-.052.032.004.128-.072-.148-.02-.008-.152.008c-.044-.02-.08.02-.072.072l.02.056.108.211.024.056.052.199.048.032.02.028-.008.036-.04-.004-.08-.144-.08-.108-.064.032-.04-.084-.044-.064-.064-.036v.052l.048.144-.028.016h.004l-.004.016v-.016l-.068-.036-.052.004-.112.056-.032-.06-.024.024.036.108.056-.036.052.08-.06.008-.032.068-.068.028-.008.076.112.036.092.044.004-.064.112.024.008.04-.032.028-.08.028-.084.044.084.064-.04.044.032.032-.028.124.032.064.012.02.064-.012v-.004.004l.044.016-.016.08-.076.004-.04.02-.02.06.06.012.032-.016.032-.008.048.056-.012.1-.016.048c.04.084.048.167.04.259l.008.008.076-.028.08.084-.016.1.044.044.116-.096.016.072-.044.024-.008.096.076.104h.004v.004l-.004-.004v.044l-.04.136.052-.032.04-.052c.064.032.076.088.068.16l.084-.008.052.156-.008.024c-.068.044-.064.052.008.092l.056.052.136-.179.024.004.044.064.06.032.08.06.02-.036.1.016.076.064.056.16.052-.036.076-.096.016-.02.036-.096.04-.084.04.08c.076-.016.076-.076.092-.128l.044.048.052.04.064-.279c.052-.016.088-.088.164-.036l.08.195-.024.084.028.052.064-.008.004.092.02.092.016.1.064-.04.024-.076.012-.136v-.136l.096-.084.028-.14.048-.171.064.084.04-.032-.012-.112c-.024-.052-.02-.104.016-.156l.044-.104.1.068-.048-.136.024-.056.044-.128.056-.06-.004.235.056.052-.012.084.032-.016-.008-.092c-.032-.064-.012-.12.008-.179l.024-.076-.056.012.02-.064.004-.032-.028-.068.092-.167.028.267.064-.056c-.016-.076-.032-.148.024-.215l.06.024.008-.016.028-.136.028-.16-.008-.032-.012-.056c.024-.08.044-.16.036-.247l.036-.136.064.171-.068.104.028.036.044-.024c.036-.056.04-.092.028-.195l.048-.02-.044-.108.028-.136.06.072.024-.016.012-.116.004-.112.064-.136.016-.004.008-.08.04-.064.056-.068.076-.148.036-.084c.02-.076.036-.152.112-.199l.052-.128.06-.092.076-.104.012-.028.064-.1.088-.048c-.02-.088-.02-.088.048-.203l.06.012.056-.028.012.048.004.048c.08.032.084.032.116-.04l.024-.048.076.02.06.004-.104.048.02.036.076.024.032.024-.036.012-.096.02.052.072.12-.04c.012.068-.028.12-.056.175l.048.167-.06.012-.052-.024h-.04l.008.14.024.12-.088.024-.024-.044-.052-.004-.02.036.02.088.12.02-.04.068-.08.008c-.052.024-.088.012-.128-.024l-.028-.004-.028.164.012.175-.048-.036-.044-.008v.06l-.008.048.052-.024.084.016-.092.084-.076.06-.02.096.028.016.092-.032.06.044.016-.02.016-.183.032-.088v-.112l-.028.032c-.064-.072.008-.136.016-.219l.076.084c.072.016.088-.044.132-.084l.02.04c.008.092-.016.179-.04.267l-.076.291-.104.403-.08.295-.044.12-.04.096-.056.179-.116.315-.08.183-.08.231-.211.594-.191.538c-.044.124-.092.251-.167.363l-.08.156-.307.574-.064.084-.084.096c-.068.096-.156.16-.271.191l-.179.052c-.092.028-.179.024-.267.004l-.53-.136c-.096-.024-.096-.028-.156-.116l-.12-.004-.12-.068-.124-.12-.104-.167-.02-.024c-.1-.04-.175-.12-.287-.136l.024-.06-.04-.036-.096-.132-.028-.044c-.084-.04-.116-.116-.16-.183l-.092-.1-.12-.132-.092-.12-.028-.044-.052-.064-.032-.044-.068-.084c-.052-.024-.1-.056-.108-.12l-.024-.04c-.024-.048-.056-.072-.108-.06l-.076-.16-.092-.084-.136-.195-.104-.156-.04-.124c-.036-.096-.076-.191-.084-.299l-.024-.311-.016-.104c-.024-.076-.016-.144 0-.219l.088-.355.052-.223.06-.311.012-.044.183-.65.064-.187.08-.195.008-.036.004-.148.048-.128.012-.044c.052-.084.048-.179.06-.271l-.008-.072-.084-.199-.136-.203c-.056-.06-.108-.116-.187-.148l-.275-.124-.175-.064-.148-.012-.183.012-.044-.004-.068-.008c-.116.028-.235.048-.347.108l-.171.092-.1.112-.128.068-.128.136-.08.084c-.08.048-.136.116-.195.183l-.187.211-.267.275-.072.092c-.084.128-.156.259-.219.399l-.136.243-.036.072-.084.14-.088.191-.144.343-.048.104-.056.152-.04.171v.136l-.008.088c-.064.076-.072.167-.088.263l-.012.056-.052.331-.032.207.004.128-.036.12c-.036.207-.048.419-.068.63v.024l.016.215c.012.124 0 .243-.032.359l-.02.104.024.076c.04.052.048.104 0 .16l-.04.116c0 .136-.024.267.008.399l-.012.06-.02.1-.036.841-.012.116.012.14.004.092-.028.136-.008.036c-.056.084-.028.171-.02.259l.016.128v.247l-.004.128c-.04.164-.04.331-.04.498 0 .044-.016.096.048.12l-.036.056-.036.1-.004.116c.016.124-.008.243-.02.371l-.008.195v.199l-.008.056-.008.124.048.203.004.152-.052.02-.004.02.064.211.028.16-.044.012-.008.02.008.211c-.012.128-.02.255-.068.379v.084l-.108.028v-.02h-.028l-.056.096-.06.016.024.048-.068.052.036.084-.072.072-.036.104-.032.12-.032.084-.116.132-.052.116-.064.096-.096.1-.032.072.036.056c-.068.024-.116.064-.148.124l-.048.144c0 .068-.032.116-.092.152l-.092.088-.028.116-.044.104-.08.1-.052.048-.108.084-.195.247-.104.108-.024.024-.199.255-.024.052c.004.084-.052.136-.108.187l-.108.116-.195.267-.108.156-.076.156-.028.044c-.167.199-.307.419-.451.63-.068.1-.136.199-.187.311l-.064.092-.044.068-.032.072-.203.327-.14.259-.076.144-.092.175-.076.171-.024.108-.012.068-.223.463-.076.156-.044.167-.004.14c.008.084.008.16-.024.243l-.032.203-.012.132-.016.12-.004.112-.016.14-.02.219-.024.211-.016.171-.008.175c-.028.148-.004.295.008.443l.024.219.048.403.072.275.012.064.052.136.012.076-.016.1.044.132.08.175.072.219.036.104c.02.056.04.112.1.152.06.04.076.14.036.207-.036.06-.044.12-.032.179l.048.136.04.132c.012.068.04.132.096.167.164.096.14.12.251.315l.128.211.227.367c.275.443.578.865.945 1.232l.243.271c.14.148.291.291.459.403l.407.275.112.064.04.02c.108.104.247.16.367.247.171.128.359.215.558.287l.291.104.06.203.044.068.06-.064c.052-.044.1-.08.167-.052l.036.004c.112-.024.175.056.247.112l.036.1.136.016c.215-.072.439-.064.658-.028.132.024.251.064.371.108l.455.187.187.06.646.124.359.024c.108.004.219-.012.327.024l.044.008.586.016.586.02.383-.012.211.008.395.052.207-.012.359-.056c.247-.028.495-.056.746-.072l.427-.076.152-.02.116-.016.331-.036.124-.02.012-.004.295-.016.112.016.068-.112.096-.004-.028.084.171-.06.052-.02.156-.04.084-.032c.04-.068.104-.072.171-.08l.032.012.104.008.12-.032c.104-.02.207-.036.295-.104l.032-.012c.116-.012.215-.06.319-.112l.183-.072.072-.032c.08-.06.156-.088.235 0l-.016-.124.16-.076.084-.072.048-.044.359-.247.116-.076.219-.187.315-.283.068-.056.048-.108.016-.064c.036-.092.088-.171.1-.275l.024-.032.044-.06.14-.167.008-.008.195-.116.167-.048.096-.024.076-.1.072-.152.068-.152c.016-.08.064-.148.12-.203l.06-.1c.02-.08.036-.167.092-.235l.016-.076.08-.223.012-.064c-.072-.088-.072-.088-.024-.16l.056.108.068-.088-.068-.048.04-.152.024-.064.024-.128c-.02-.064.008-.116.068-.148l.04-.064.032-.108c.04-.076.06-.152.064-.235l.004-.032c.06-.144.064-.291.096-.435l.012-.068c-.008-.076.016-.14.108-.171l-.092-.048.032-.175-.04-.171-.004-.399-.016-.116c-.032-.108-.04-.223-.044-.335l-.036-.219-.06-.275c-.02-.14-.048-.275-.092-.407-.06-.179-.084-.367-.108-.55v-.048c-.032-.104-.048-.215-.04-.323l-.008-.036c-.068-.072-.052-.164-.04-.243.024-.128.02-.259.02-.387l-.016-.299-.032-.076-.036-.144c.024-.223.016-.451.016-.678l.032-.299c.012-.072.032-.148 0-.227l.028-.148.016-.12.004-.048c.044-.195.108-.395.187-.586l.084-.179.004-.008c.068-.052.092-.124.112-.203l.056-.052c.112-.068.315-.271.399-.375l.327-.399.307-.339.052-.04c.076-.032.124-.096.171-.156l.231-.243.024-.028.12-.14.092-.12.052-.064.148-.152.132-.164.483-.538c.104-.112.211-.219.291-.355l.044-.048c.148-.128.259-.283.383-.427l.028-.052c.032-.104.108-.183.175-.271.072-.092.132-.187.156-.299.024-.124.06-.243.116-.355.056-.128.076-.259.084-.399l.004-.156.072-.068.008-.092c-.004-.207-.008-.423-.044-.63l-.08-.343-.064-.104-.028.044c-.004.068-.024.136.032.195l-.024.08-.052.004-.028-.052.056-.383.008-.136c0-.064-.008-.076-.08-.084l-.152-.012-.084-.012c-.06-.008-.104-.036-.112-.108l-.028-.088-.092-.064-.068-.012-.239-.096-.108.004-.16.024-.116.008-.124.06c-.084.06-.164.144-.271.179l-.052.012c-.092.004-.175.036-.255.084l-.415.235-.052.028-.179-.243-.199.112.012.171-.06.04.068.052.084.032-.096.068-.004.084-.024.012-.024-.08-.052.008-.068.048-.132.04-.156.052-.219.132-.08.044-.08-.084-.036.068c-.02.096-.084.156-.16.207l-.088.052-.152.132-.164.124-.283.144-.243.076-.275.044h-.072c-.116-.012-.231-.004-.347.02l-.219-.028-.259-.068-.191-.088-.032-.044-.06-.084-.152-.108c-.08-.064-.148-.132-.191-.227-.02-.056-.056-.104-.112-.132l-.06-.056-.128-.152-.056-.124-.08-.558c-.016-.076-.016-.156.004-.231l.028-.148.048-.132.068-.207c.024-.096.04-.191.1-.271l.016-.044.052-.187.06-.084.068-.084.028-.096-.136-.056.036-.171c.096-.351.219-.69.347-1.033l.076-.144.16-.375.016-.06.044-.179c.016-.1.068-.179.12-.255l.044-.132.004-.036c-.008-.092.016-.175.056-.259l.032-.1-.04-.08.06-.064.012-.096.032-.084.056-.14.128-.487.072-.211.08-.179.048-.179.036-.219c.004-.056.04-.104.092-.128l.072-.08.084-.243.008-.036c.104-.219.167-.455.235-.682l.016-.044c.04-.096.096-.179.092-.287.076 0 .132-.012.175-.06l.124.06-.016-.04-.012-.06c-.06-.008-.12-.024-.16.048l-.04-.028-.02-.064.06-.024.016-.112.016-.136.072-.156-.008.08v.044c.04.048.036.092-.004.136l-.004.104h.076l.068-.108.012.1.02.012.096.06-.032.024-.08.056.088.084c-.048.032-.068.068-.064.124l-.004.14-.012.032-.02.144-.012.068-.044.032-.052.012-.044.012.012.084.052-.02.056.02.064-.092-.04.203-.028.096.068.084-.024.12-.052-.04-.12.068-.076-.048-.02.048-.008.06.076.028.028-.036.116.036.096-.028.032.06h.004c.012-.06.06-.08.112-.108l.016.044-.032.112.024.104.008.02-.036.136-.012.072-.06-.148-.06-.02-.02.048.008.032-.088-.032-.036.048-.06.044v.004l.092.044.112-.044c.02.048.108.044.1.128l-.052.012-.096.028-.092-.056-.068.06c-.112-.036-.112-.036-.175.052l-.056-.104-.024.024-.012.14.08.096-.068.128-.008.156-.04.04-.124.016.028.108.072-.036.04.068.12-.068c.012-.072.02-.148-.06-.203l.056-.04.044-.04.008.068-.004.06-.004.124.012.136-.012.08.016.048.076-.004.036-.08c-.028-.084.012-.156.048-.231l.116.052.024.104c.04.064.02.116-.032.164l-.02-.044.008-.012c.036-.056.028-.108-.044-.152l-.064.108.056.16-.064.04-.104.004-.06-.052-.044.04-.06-.076-.032.1-.092.008-.076.052.004.044.032.004.04-.016.064-.028.036-.024c.008.064.024.116-.016.167l.012.108.028.032-.072.08-.084.084.08.072.092-.032.032.044.088-.016.004.028-.044.032c-.072-.012-.096.048-.14.092l-.044-.084-.068.04c-.032.068.004.12.032.187.06-.092.152-.1.247-.116l.004.064h-.072l-.012.032-.04.068-.12-.02c-.052.024-.084.056-.06.12l.171-.036.016.064.032-.056c.056-.044.1.004.152.02l-.032.068c-.064.024-.144.024-.164.108l-.104-.052-.008.076.12.024.056.032c-.06.084-.064.167-.024.255l.072-.12.06.072.024.052-.024.032-.036.048h-.128l-.008.08.012.132.032.128.028-.044.032-.251.036.028.032.06.012.08-.064.032.016.056-.016.068h.004v.07600000000000001h-.004l.052.088.064.048.048.04.032.06c.02.072.064.12.132.148l.032.096.044.052c.084.024.112.084.112.167l.008.056.06-.036.104.108-.116.052.04.024.032-.02.052.044.068-.012.096.128h-.052l-.044-.008-.104.032-.116.004-.044.056h-.004l.02.052.04.068.06-.016v-.048l.044-.052.068.056-.028.06-.024.056c-.064.004-.156-.036-.175.076.064.04.064.04.175.004l.072.064.028-.012.036-.044.1.004.032-.084-.024-.052-.14-.008.032-.171.084.068.036-.044c.04.036.072.068.06.128l-.02.104.048.088.076-.191.044.068-.012.016-.004.072.084-.008.032-.052.052-.068.072.088.036-.096-.004-.112.056.08.056-.012-.008-.016.048-.08.056.052.032-.04.056-.028-.036-.064-.032-.056.036.004h.07200000000000001c-.016.072.028.112.076.152l.028-.092.028-.024.04.068c.056-.028.1-.052.112-.116l-.028-.076v-.124l.012-.072.032-.024.012.032c-.044.084-.028.164.008.243l.044.044.108-.199.016.02.036.092.092-.04c.064-.036.124-.076.1-.164l.004-.024.004-.008.08.048.044-.056.004-.04.016-.1.016-.028.036.016.012.14c.084.02.088.016.104-.088l.036.024.032.028.092-.056-.04-.072-.04-.136.032-.104.072.016-.068.092.076.04-.008.048c.044.072.032.136-.004.223l.092-.04-.004-.199.032-.148.048.092.032.016.024-.028-.016-.148.024-.064h.072l-.02.179.004.056.012.084v.072l.032.024.044-.02.012-.072.008-.136c.008-.076.02-.148-.036-.219l.08-.036c-.008.1.012.175.064.247l-.048.068.072-.036.012-.068-.024-.179-.012-.032c.028-.048.068-.08.128-.08l.08-.048.04-.036.036.044-.036.068.032.084c.012.06.048.116.012.175l.012.052-.024.084-.024.024.032.048.02-.004.056-.016v-.152l-.008-.171-.028-.032.044-.064-.012-.08-.02-.004-.008-.012.008-.008.02.004c.028-.076.112-.076.167-.124l-.004-.076.056-.036.1-.02.104-.032.096-.02.14-.068.036.056-.032.144c-.056-.024-.056-.024-.064-.124l-.028.02-.036.183.084.008.06-.04c.02.08.008.164.08.215.032-.088.032-.1-.028-.203l.104-.064.1-.044.036-.008.004.06.052.024-.02.052.04.048-.036.076-.008.092-.008.008-.004.024.016.167h.06l.06-.032.076.136.084-.02-.044-.056.068-.048.02.012.02.132.024.06.052-.004-.024-.12c-.008-.068.008-.12.088-.148l-.004.064.024.008.112-.02.032.024.06-.02.064-.044.064.06.112-.072.008.028.044.044.044-.04.012-.04.064-.008.016.024.032.12.024-.052.048-.044.028.028.036-.016.104-.004.044.012c.076.024.128.132.1.203l-.04.044h-.032l-.012-.032.008-.084-.032-.04-.04.036v.04h-.004l.032.044-.008.219.056-.016.04-.112.1-.008.02-.16.052.032.008.164.028.116-.044.076h-.092l-.076.044-.064-.06.008.072-.092.02.028.1.008.108h.072v-.148l.072-.012.004.088c0 .06.02.076.076.048l.088-.004-.084.048c-.076-.02-.128 0-.175.056l-.068.072.06.02.076-.072.068.028v.024l-.024.048.012.179-.032.02c.02.04.048.088.004.136l-.084-.016-.036.092-.008.064.048.04.096-.136.028.104.04.104-.024.068.028.064-.108.048-.203-.02-.044.044.004-.004h.004l-.004.004-.032.02c.056.076.144.036.215.052l-.032.132.032.044.004.056h.183l-.064.048.08.036.092-.004-.012.132.048-.004-.016.032-.064.056-.02.056.012.076.08.032v.08l.128.024-.084.136.056.04-.02.072.016.056.028.028.068.064v.1l.012.004.076-.004v.1l-.064.092.088-.036.068-.016.008.104m-15.753-12.881l-.04.064.012.004.028-.068m.243 1.061l-.028-.012-.004.028.02.012.012-.028m.164.056l-.008-.008-.012.004.016.016zm-.75-.399l.024.012.008-.024-.024-.016-.008.028m-.016-.283l.04-.08.032-.287-.056.036-.112.132-.004.016.08.08.02.104m.072-.367l.004-.004.02-.036-.004-.02-.016.016-.004.04zm.299.969l.024-.036-.024-.024-.032.028.032.032m-.171-.634l-.024-.008-.008.008.008.008.024-.008m.012-.307l-.008-.008-.008.008.008.02.008-.02m-.774.124l-.02-.012-.008.012.008.012.02-.012m-.303.064l-.016-.008.004.008zm.335.263v-.148l-.044.12.044.028m-.407-.171l-.024-.04-.02.04.024.032.02-.032m-.112-.04l-.024-.008-.008.004.02.012.012-.008m-.088-.048l-.02-.028-.016.036.016.02.02-.028m.977.124l.016-.032-.06-.084.008.1.036.016m-.044-.231l-.012-.02-.024.004.016.02.02-.004m-2.568-.14l-.04.06.012.008.028-.068m-.391.893l-.016.004.016.044.024-.004-.024-.044m.024.179l.036-.092-.06-.016c-.02.044-.032.076.024.108m.056-.371l-.024-.012-.008.028.024.012.008-.028m-.044-.267l.036-.08.032-.287-.056.032-.112.136-.004.016.08.08c-.032.076-.032.076.024.104m.072-.367v-.008l.02-.032-.004-.024-.016.02v.036l-.004.004h.004zm.124.331l-.02-.008-.008.008.008.012.02-.012m.016-.303l-.012-.012-.008.008.008.024zm-.778.12l-.016-.008-.012.008.008.012.02-.012m-.175.447l.02-.108-.02.108m-.124-.383l-.02-.004.004.008.016-.004m.275.307v.112l.028.028.032-.024-.004-.052-.056-.064m.056-.044v-.148l-.044.124.044.024m-.136.359h.004v-.004l-.004.004.004-.004-.008.004zm-.044.104l.016.004-.016-.004m-.259-.359l-.02-.148c-.076.06-.072.084.02.148m.259.16l-.08.06-.024.144h.1l.004-.004h-.008l.048-.108-.04-.092m-.02-.451l.052-.004-.02-.056-.12.012v.175l.02.02.068-.148m-.207.016l-.024-.04-.02.044.028.032.016-.036m-.112-.04l-.02-.012-.008.008.016.016.012-.012m-.112.275l.028-.036-.036-.02-.028.024.036.032m.024-.319l-.016-.028-.02.032.016.02.02-.024m-.191.251l-.036-.02-.012.02.032.024.016-.024m.191.132l.008.004.004-.008-.008-.008-.004.012m.877.502l-.008-.024-.032-.012-.016.036.036.008.02-.008m.136-.375h-.008l-.004.012.016-.004-.004-.008m-.132.375v-.004l-.004.004zm-.175-.032l.02.012.028-.032-.04-.016-.008.036m.068-.634l-.088.16.044.1c.032-.1.124-.164.044-.259m-.032.335l-.008.008.004.012.008-.008-.004-.012m.239-.431l.012-.036-.056-.084.008.104.036.016m-.048-.231l-.012-.028-.024.008.016.02h.02m.016.849l-.004.092.004-.092m-.044-.387l.004.124.076-.128-.08.004m.036.311l-.024-.04-.028.016.024.044.028-.02m-.016-.116l.008-.008-.012-.02-.008.008.012.02m4.319.55l.056-.012-.032-.052-.052-.024-.028.02.004.044.052.024m-5.324-.092l-.004-.008-.012.004.004.004h.012m-.371-.128l-.024-.016-.008.008.016.024.016-.016m-.112-.028l-.012-.02h-.016l.004.028.024-.004m.132.247l.008-.004-.008-.044h-.012v.008l.012.04m.12-.104l-.04-.036-.012.076-.016.072.052.032.016-.144m-.275.108l.068.052.044-.16-.016-.02-.044.056-.108.004.056.068m-.231.251l.032-.112-.08.076.008.036h.04m-.032.518l.064-.004.048-.104.072.08c.068-.092.068-.092.036-.179l-.064.012-.076.016.016-.084h.04c.084.004.12-.024.12-.112l.02-.076.032-.108-.036-.02-.032.012-.04-.108c-.044.048-.08.08-.04.144.028.052.012.12-.004.187l-.128-.04-.048.028.068.1-.036.048-.024.112.012.096m.012-.207l.008-.016-.008-.012v.028m.339.12l.04-.056v-.028l-.04-.02-.024-.004.004.048.02.06m-.152-.606l.016-.012-.012-.012-.008.016.004.008m.291-.279l-.008-.016-.008.008.008.02.008-.012m-.191.614l-.008.004.008.008.008-.004-.008-.008m.638-.826l-.12.072.048.068.084.004.02.016.012-.052-.044-.108m.036.16h-.004zm-.156.211l.016.024.044-.02-.036-.036-.024.032m.207-.279l-.052.068.04-.008.012-.06m-.542.064l.004-.016h-.008l-.004.008.008.008m.12.323l.008-.02-.02-.016-.008.02.02.016m-.064-.283l.016-.1-.04.056.024.044m.323.104l-.036-.152c-.064.068-.032.104-.024.144l.06.008m-.219-.036l-.048.044.036.068.012-.112m.028.171l.004-.02-.004-.004-.008.016.008.008m-.702-.064l-.012-.012-.008.004.012.012zm-.606.59h-.008l-.004.008h.016l-.004-.008m-.14.339l.008.052.076.156.012-.14.032-.06-.092.004.004-.1v-.032c-.02-.056-.02-.112.008-.167l.016-.076-.028.016-.092.235.02.088.036.024m.642-.69v.072-.072m-.128.347l.1-.008-.1.008m-.04-.231l.032-.004.068-.124v-.024l-.008.02-.016-.008-.012-.056-.088.171.024.024m.148-.283l.036-.024-.036-.056v.004l-.048.012-.016.032.064.032m0-.092v.012-.012m-.012.223v-.004l-.032.004h-.004.036m.104-.475l-.04.104.04-.104" fill="#211d1d"/><path d="M22.065 3.849l-.016-.036-.052.04.02.08.048-.084" fill="#ed212f"/><path d="M21.514 4.18l.1.036.231-.024.04-.036-.016-.02-.12.024c-.064-.12-.064-.12-.179-.187l-.036-.016-.052.064c-.048.068-.036.124.032.16" fill="#ed212f"/><path d="M21.932 4.889l.012-.012-.012-.004z" fill="#ed212f"/><path d="M21.88 4.429l.032-.004-.004-.02-.032.012z" fill="#ed212f"/><path d="M21.007 4.324l-.016.012-.004.036.032-.008-.012-.04" fill="#ed212f"/><path d="M20.935 3.389l-.028-.024-.036.008.032.024.032-.008" fill="#ed212f"/><path d="M22.168 4.199l-.004-.032-.016.004.004.036.016-.008" fill="#ed212f"/><path d="M21.268 3.833l.164.044c-.108-.136-.108-.136-.164-.044" fill="#ed212f"/><path d="M20.678 3.716l-.012.028.02-.004-.008-.024" fill="#ed212f"/><path d="M23.332 6.47l.004.004.008-.016-.012.012" fill="#ed212f"/><path d="M19.416 5.406l-.036.036.036-.036" fill="#ed212f"/><path d="M19.208 5.364l.012.008.008-.016-.02.008" fill="#ed212f"/><path d="M23.128 5.375l-.008.012.004.02.004-.032" fill="#ed212f"/><path d="M23.042 5.255l-.016-.028-.02.024.028.02z" fill="#ed212f"/><path d="M22.433 5.165l-.032-.004v.036l.016.004.016-.036" fill="#ed212f"/><path d="M22.24 4.916l-.012.024.012-.004v-.02" fill="#ed212f"/><path d="M23.422 6.197l.008.008.012-.032-.02.024" fill="#ed212f"/><path d="M21.664 3.907l.14.004.136-.06-.008-.351-.064.06c-.012.1-.1.128-.16.179-.116-.036-.148.084-.227.116l.056.104-.008-.004.008.004.128-.052" fill="#ed212f"/><path d="M19.962 4.071z" fill="#ed212f"/><path d="M19.753 4.62c.084.044.164.02.259-.024l-.012-.068c-.012-.132-.012-.128-.136-.092l-.08.004c-.06.004-.104.04-.104.088l.072.092" fill="#ed212f"/><path d="M20.194 4.569l-.012-.004v.016z" fill="#ed212f"/><path d="M20.205 3.849l.144-.116c.092-.04.092-.04.064-.16-.116-.052-.219-.008-.319.04l-.032.152.036.12-.128-.008-.068-.028c-.032.056-.032.108-.016.171l.076.052.247-.044c.072-.068.064-.124-.004-.179" fill="#ed212f"/><path d="M19.831 4.269l.419.016-.056-.06-.056-.028-.084.004c-.072-.004-.08-.016-.092-.132-.032.056-.072.088-.136.092l-.032.064.036.044" fill="#ed212f"/><path d="M18.967 4.635l-.004.012.004.008z" fill="#ed212f"/><path d="M19.004 4.476l-.016-.008-.008.02.016.004z" fill="#ed212f"/><path d="M19.619 4.885l-.028.02.108.036.044.076-.064.036-.1-.016-.04.048-.012-.052-.048.016.016.084h-.004l.052.215c.02.036-.024.068-.076.064l-.004.104.088.012c-.016.068-.06.08-.104.088l-.016.06-.076.291-.108.407-.076.291-.048.124-.036.096-.056.179-.12.315-.076.183-.084.231-.207.594-.191.538c-.048.124-.092.247-.167.363l-.08.156-.311.574-.06.084-.084.096c-.072.092-.16.16-.275.191l-.175.052c-.092.024-.179.02-.267.004l-.534-.14c-.096-.02-.092-.024-.152-.112l-.12-.004-.12-.072c-.056-.024-.096-.06-.124-.12l-.104-.167-.024-.024c-.096-.036-.171-.116-.287-.136l.028-.056-.04-.036-.096-.132-.032-.044c-.08-.04-.116-.116-.156-.183l-.092-.1-.12-.136-.092-.116-.032-.048-.048-.06-.032-.044-.068-.088c-.056-.02-.104-.052-.112-.12l-.024-.04c-.02-.044-.052-.068-.104-.056l-.076-.16-.092-.088-.136-.195-.104-.156-.044-.12c-.032-.096-.072-.195-.08-.299l-.028-.311-.012-.108c-.024-.072-.016-.144 0-.215l.084-.355.056-.227.056-.307.012-.048.187-.65.064-.187.08-.191.008-.036.004-.148.044-.132.016-.04c.052-.088.048-.179.06-.275l-.008-.068-.084-.199-.14-.203c-.052-.06-.104-.116-.187-.148l-.271-.124-.175-.064-.148-.016-.183.016-.048-.008-.068-.008c-.112.032-.235.052-.343.112l-.175.092-.096.108-.132.072-.124.136-.08.084c-.08.044-.14.116-.199.183l-.183.207-.267.279-.076.092c-.08.124-.152.259-.215.399l-.136.239-.04.076-.08.14-.088.191-.144.343-.048.104-.056.152-.04.171v.132l-.008.092c-.068.072-.072.167-.088.259l-.012.06c-.032.108-.044.219-.052.331l-.032.207.004.128-.04.12c-.032.207-.044.419-.064.626v.024l.012.219c.016.12.004.239-.032.359l-.016.104.02.076c.044.048.052.104 0 .16l-.036.116c0 .132-.024.263.008.399l-.012.056-.02.104-.04.841-.008.116.008.14.004.092-.024.136-.008.032c-.056.088-.028.171-.02.263l.012.128.004.247-.004.128c-.044.164-.04.331-.044.498 0 .044-.012.092.052.12l-.036.056-.036.096-.004.12c.016.124-.008.243-.02.367l-.008.199v.199l-.008.056-.012.124.052.203.004.152-.052.02-.008.016.068.211.024.16-.04.016-.008.02.008.211c-.012.128-.02.251-.068.379v.084l-.108.028v-.02h-.028l-.056.092-.06.016.024.052-.072.052.04.08-.072.076-.036.104-.032.116-.032.088-.116.132-.052.112-.064.1-.096.096-.032.076.036.052c-.068.024-.116.068-.152.128l-.048.144c.004.064-.028.116-.092.152l-.088.084-.028.12-.044.104-.084.1-.048.044-.108.088-.195.243-.104.112-.024.02-.203.259-.02.052c.004.084-.056.136-.108.183l-.112.12-.191.267-.108.152-.076.156-.032.048c-.164.199-.303.415-.447.626l-.187.311-.064.096-.044.064-.032.076-.203.327-.14.255-.08.148-.088.175-.076.167-.024.112-.012.064-.223.467-.08.156-.044.167-.004.14c.012.08.012.16-.02.239l-.032.207-.012.128-.016.124-.008.112-.012.14-.02.219-.024.211-.016.171-.012.171c-.024.152 0 .299.008.447l.028.215.048.407.068.271.016.068c-.008.056.004.096.052.132l.012.08-.016.1.04.128.084.175.072.223.036.1c.02.06.04.116.1.152.06.04.076.144.036.211-.032.06-.044.116-.032.179l.044.132.04.132c.012.072.04.136.1.167.16.1.14.124.251.319l.128.207.223.371c.279.439.578.865.949 1.232l.243.271c.136.148.287.287.455.403l.407.275.112.064.044.016c.104.108.247.164.367.251.167.124.359.215.558.283l.291.108.056.199.048.072.06-.068c.048-.04.1-.076.167-.048l.036.004c.108-.024.171.052.243.112l.036.096.14.016c.215-.068.435-.06.658-.028.132.024.247.068.371.112l.455.187.187.056c.215.048.427.092.642.128l.363.02c.108.004.219-.008.323.024l.048.008.586.016c.195.016.391.024.586.024l.383-.012.207.008.399.052.207-.012.359-.056c.247-.032.495-.056.746-.072l.427-.076.148-.024.12-.016.331-.036.12-.016.012-.004.299-.016.108.016.072-.116.096-.004-.032.088.175-.064.052-.02.156-.036.084-.032c.04-.068.104-.076.171-.084l.028.016.104.008.124-.036c.1-.02.203-.032.295-.1l.032-.012c.112-.012.215-.064.315-.112l.187-.072.072-.036c.076-.056.156-.084.235 0l-.016-.12.16-.08.084-.068.048-.048.355-.243.12-.076.215-.191.319-.279.068-.06.048-.104.016-.068c.036-.088.088-.171.1-.271l.024-.036.04-.056.14-.167.008-.008.199-.12.167-.044.096-.024.076-.104.072-.152.068-.148c.012-.08.06-.148.12-.207l.056-.096c.024-.084.036-.167.096-.239l.016-.072.08-.223.012-.064c-.072-.088-.072-.088-.024-.16l.052.108.068-.092-.068-.044.044-.152.024-.064.024-.128c-.02-.064.004-.12.064-.148l.044-.064.028-.108c.04-.076.064-.152.068-.235l.004-.036c.06-.14.064-.287.096-.431l.008-.072c-.004-.072.02-.136.112-.171l-.096-.044.036-.175-.04-.171-.008-.399-.016-.116c-.028-.112-.036-.223-.04-.335l-.04-.219-.056-.275c-.02-.14-.048-.279-.092-.411-.06-.179-.084-.367-.108-.546v-.048c-.032-.108-.052-.215-.044-.323l-.008-.036c-.064-.076-.048-.164-.036-.247.024-.128.02-.255.02-.383l-.016-.299-.032-.076-.04-.144c.024-.227.016-.451.02-.678l.032-.299c.012-.076.028-.148 0-.231l.024-.144.016-.12.004-.048c.048-.199.108-.399.191-.586l.084-.179.004-.008c.068-.052.092-.128.112-.203l.056-.056c.112-.064.315-.267.399-.371l.327-.399.303-.339.056-.044c.076-.032.124-.092.171-.152l.231-.243.024-.028.116-.14.096-.124.048-.06.152-.152.128-.164.487-.538c.1-.112.211-.219.291-.355l.044-.052c.148-.124.259-.279.383-.423l.028-.052c.032-.104.108-.187.171-.271.072-.096.136-.187.156-.299.028-.128.064-.243.116-.355.06-.132.076-.263.084-.399l.008-.156.068-.072.008-.088c-.004-.211-.008-.423-.044-.63l-.076-.343-.064-.108-.028.044c-.004.072-.024.136.032.199l-.024.08-.056.004-.024-.052.056-.383.008-.136c0-.068-.008-.08-.08-.088l-.152-.008-.084-.012c-.064-.008-.104-.036-.112-.112l-.032-.084-.088-.064-.068-.016-.239-.092-.108.004-.16.024-.116.008-.124.056c-.088.064-.164.144-.271.179l-.056.016c-.092.004-.175.036-.251.084l-.419.235-.048.028-.179-.247-.203.116.012.171-.056.04.068.048.084.036-.096.068-.004.084-.024.012-.024-.08-.056.004-.068.048-.128.044-.156.052-.219.132-.084.044-.08-.084-.032.068c-.02.096-.084.156-.164.203l-.084.056-.156.128-.164.128-.279.144-.243.072-.275.048h-.072c-.12-.012-.231-.004-.347.02l-.219-.028-.259-.072-.191-.084-.036-.048-.06-.08-.148-.112c-.084-.06-.148-.132-.191-.223-.02-.056-.056-.108-.112-.132l-.06-.056-.132-.152-.052-.124-.08-.558v-.235l.028-.148.052-.128.068-.211c.02-.092.036-.191.1-.267l.012-.044.056-.191.056-.08.072-.088.028-.092-.136-.056.032-.175c.096-.351.223-.69.351-1.033l.072-.144.164-.371.016-.06.04-.179c.02-.1.072-.179.124-.255l.044-.136v-.032c-.004-.092.016-.175.06-.259l.032-.1-.04-.084.06-.06.008-.096.036-.084.056-.144.128-.487.072-.207.08-.179.044-.179.036-.219c.004-.06.04-.104.096-.128l.064-.064h-.287c.036-.092.12-.096.191-.108l.012-.088c0-.116-.012-.227.12-.287l.012-.076-.06-.092.144-.227-.076-.08-.092-.084.219-.064-.12-.092c-.072-.008-.068-.052-.064-.104l-.008-.068-.024.032c-.032.116-.076.152-.167.144l-.275-.044-.068-.064c-.044.06-.092.124-.171.06l.012-.02c.044-.012.08-.028.076-.088l-.012-.016-.108.032c-.048.04-.088.04-.124-.016h-.06l-.052-.056c.032-.072.072-.14.016-.219-.096-.048-.179.012-.271.028l-.108-.056-.104-.052-.116-.044.12-.104-.108-.132-.12-.171.096-.064-.116-.108-.096.008-.028-.06-.064.032-.04-.036-.02-.068c-.108.12-.096.279-.136.423h-.124l-.072-.084-.283.57-.267-.004-.271.024-.02-.084-.02-.092-.088.06c.036.092.012.14-.072.128l-.144-.052.04-.215c.088-.036.164-.028.243-.016l.032-.04-.028-.032-.171.004c-.048.004-.1.024-.12-.04h-.164l-.068.044.02.076" fill="#ed212f"/><path d="M19.898 3.849h-.036l-.016.004.024.012.028-.016" fill="#ed212f"/><path d="M20.371 3.977l.02.032.124.008c.084.056.156.008.271-.012l-.164-.064-.227.008-.024.028" fill="#ed212f"/><path d="M20.756 4.854c-.167.056-.323-.012-.447.064-.008.08.048.092.084.088.116-.02.259.012.363-.152" fill="#ed212f"/><path d="M20.402 4.312l.108.06c-.032-.092-.032-.092-.108-.06" fill="#ed212f"/><path d="M20.688 3.744l.004-.004h-.004z" fill="#ed212f"/><path d="M19.967 3.658l-.04-.04-.036.012.04.056.036-.028" fill="#ed212f"/><path d="M20.721 3.65h-.016l-.02.028.008.06.028-.04v-.048" fill="#ed212f"/><path d="M20.544 4.682v-.156l-.1.012v.16l.1-.016" fill="#ed212f"/><path d="M19.903 3.845l-.004.004.004-.004" fill="#ed212f"/><path d="M35.065 27.344l.004-.008.008.004-.004.004z" fill="#fff"/><path d="M8.603 20.806h-.004z" fill="#211d1d"/><path d="M8.463 19.976l.016.008-.016-.008-.004.008.004-.008" fill="#211d1d"/><path d="M8.019 21.234l.032-.084.004-.08.008-.136-.056.231.012.068" fill="#211d1d"/><path d="M7.904 21.409c-.06.08-.04.164-.056.235l.016.144.028-.195.024-.092-.004.008-.008-.1" fill="#211d1d"/><path d="M7.922 21.713l.052-.048-.02-.004-.032.052" fill="#211d1d"/><path d="M7.805 21.872h.004v-.008z" fill="#211d1d"/><path d="M7.758 22.184h.004l-.004-.008z" fill="#211d1d"/><path d="M8.005 21.304l-.008-.004-.004.008.012.004v-.008" fill="#211d1d"/><path d="M7.906 21.857v-.032l-.012.004-.008.052.016.012.004-.036" fill="#211d1d"/><path d="M8.37 19.933h-.012l.004.004.008-.004" fill="#211d1d"/><path d="M8.163 20.237v.024-.02-.004" fill="#211d1d"/><path d="M8.317 19.984c-.068.076-.12.156-.152.251l.016-.004.136-.247" fill="#211d1d"/><path d="M10.284 15.151l.004-.052-.036-.032.004.08.028.004m8.817.427l.008.008.024-.016-.016-.008-.016.016m.048-.171l-.04.016.012.024.032-.032zm4.128 3.828l.004.02.016-.008-.004-.02-.016.008m-13.005-4.251h-.008l-.004.008h.016l-.004-.008m-.295.949l-.016-.036-.024.012.016.036.024-.012m.307-1.041h-.052l.004.052.048-.052m-.247.666l-.008.156c.048-.072.048-.076.008-.156m9.284.371l.008-.016-.008-.008-.008.008zm4.239 4.032l-.036-.112c.008-.06-.004-.116-.04-.164.016-.06-.024-.084-.072-.104l.028-.04-.024-.064-.04-.144-.028-.028-.028.032c-.016.1-.016.116.02.215l.024.092.092.287.1.247.064.088-.048-.251-.012-.056m.064.311l.012.1.04.012-.02-.084-.032-.028m-13.751-4.307l-.012-.02-.032.028-.008.02.02.012.032-.04m13.822 4.546l.028.104-.028-.104m-3.111-10.871l.016-.004v-.076l-.024.06.008.02m-.315 5.085l-.084-.044.012.056.072-.012m.112.207l.028-.008-.012-.02-.028.008.012.02m.227.1l-.032.036.148.064-.116-.1m.191.191l.028-.004.004-.04h-.032l-.048.016.048.028m-.367-5.137l.048-.052-.028.02-.02.032m-10.197 5.149l.012.02.016-.012-.012-.012-.016.004m-.714 14.76l-.116-.1-.12-.096-.167-.124-.235-.175-.056-.084h.028l-.012-.024-.02-.012-.036-.028-.136-.148-.06-.04v-.004h-.004l-.048-.044-.032.08-.016-.008-.06-.096-.084-.084c-.084-.128-.156-.259-.223-.391l.004-.004-.008-.004v.004h-.04l-.004-.06-.036-.036-.104.032.02.096.056.056.044.052.187.323c.084.124.175.251.275.367.14.164.307.295.495.407l.546.287.128.048-.004-.06-.164-.132m-1.743-5.149c.016.056-.028.124.028.183l.024-.036c0-.056-.008-.112-.052-.148m.02-.275c-.044.068-.024.128-.012.179.008-.052.048-.1.012-.179m.052-.415l-.036-.016-.012.004.012.016.036-.004m-.088-.638h-.008l-.008.08h.028l-.012-.08m2.046 6.712l.036.024.008-.016-.024-.028-.02.02m13.352-11.214l.048.056.056.028c-.02-.076-.02-.156-.076-.239l-.028.156m-13.316-2.851h.012l.008-.008-.02-.008-.012.012.012.004m13.224 5.2c-.02-.148-.072-.291-.124-.427l-.12-.327-.064-.164-.088-.191-.219-.463-.124-.251-.08-.156-.028-.052c-.048-.128-.116-.251-.195-.359-.14-.195-.283-.395-.435-.582l-.443-.526c-.092-.116-.187-.223-.295-.319l-.148-.108-.199-.167-.223-.167-.243-.187-.191-.152v-.036l-.124-.08-.104-.056-.104-.052c-.112-.048-.211-.112-.307-.187-.076-.064-.16-.112-.255-.14l-.251-.096-.195-.104h-.024l-.028.024-.108-.024-.02-.016-.235-.128c-.124-.068-.263-.096-.399-.136-.14-.04-.283-.08-.431-.104-.092-.012-.183-.012-.267-.064l-.06-.004h-.116l-.55-.028h-.104l-.267-.024-.255-.02c-.136.004-.271-.008-.403-.06l-.092-.016c-.092-.004-.187 0-.279.024l-.171.024-.327.04-.506.092-.243.036-.004.004c-.124.024-.247.052-.367.096l-.171.024c-.056-.016-.108.004-.148.048l-.064.044-.036.072-.12.056-.279.104-.112.068-.104.024-.064.024-.387.239-.152.084-.056.036c-.088.064-.175.136-.275.175l-.044.036-.195.203-.056-.024c-.076.044-.124.096-.167.16l-.064.084-.207.171-.032-.012h-.044c-.036.02-.295.231-.327.295l-.136.167-.104.116-.04.056c-.128.167-.291.395-.295.367l-.024-.036-.104.076-.012.008v-.004h-.004l-.004.004h.008l.016.048-.167.124-.247.251c-.072.068-.132.152-.235.207.044.044.016.08-.008.112l-.195.235-.048.076-.056.175.008.024.012.02c.032.068.028.084-.024.144l-.092.092-.016.104-.016.088-.044-.004-.088.132-.044.191-.008.036-.084.175-.024.076.04.092-.056.14.06-.016.128-.036-.056.068c-.06.004-.072.044-.072.088l-.028.247-.06.148-.028.008-.032-.084-.06.152c-.008.048-.008.096.044.132l.016.032v-.004l.024.108-.088.215c-.06.016-.064.068-.076.116l-.052.239.008.032.016.072-.032.12-.036.207-.004.104.06.028v.08l-.032.148c-.02.084-.024.199 0 .287.012-.096.024-.128.08-.215l.012.032-.016.148.008.108-.032.092-.012.152.028.14.108-.016-.056.096-.064.036-.016.06.076.04c0 .08.044.156-.012.235l-.008.076.016.207.04.251.064.12-.036.116-.028.124-.016.144-.08-.251v.092l.02.199c.008.096.012.187.06.275l.016.064.088.231.072.16.12.327c.024.072.056.132.116.183l-.012-.064-.171-.443-.02-.052c-.028-.064-.044-.132-.012-.207l.044-.008.016.092c-.008.144.044.275.1.403l.096.136c.008-.076.02-.132-.028-.175l-.012-.044.052.028c.024.084.084.164.068.259l.008.056v.004-.004l.036.092c-.032.1-.004.183.028.275v.008l-.044-.06-.076-.12.008.108c.088.223.175.439.311.638l.191.323c.06.104.104.219.199.303l.012.016.124.239.068.108.259.327.024.028.14.14.167.104.028-.004-.116-.175.096.068.08.068c.104.056.16.156.243.231l.028.112-.124-.064c.148.156.287.315.467.431l.052.02.08.02c.044.036.084.028.128-.016.044.096.128.136.207.179l.084.028.072.084.06.028.044.012.092.064.112.036.088.076.084-.016.187.056-.012-.036-.128-.072-.243-.104.227.064c.076.012.144.056.227.032l.056.064.068.02.012.02-.02.04-.116-.02.04.076.068-.024.056.036.104.048.052.024.148.072.203.076.199.064.112.04.199.06.275.1.124.004.068.008.275.04.175.016.395.028.072-.012.136-.004.243.032.148-.02.068-.012.287.028.036-.004.112-.016.175-.016.092-.008.116-.012.191.012c.096.036.191.04.291.016.195-.04.391-.108.578-.183.219-.088.447-.171.678-.223l.108-.04c.187-.096.387-.171.558-.291l.164.032-.036-.08-.056-.008.032-.064-.004-.016-.231-.048c-.849.303-1.827.391-2.652.064-.116 0-.231-.008-.351-.036-.064-.016-.128-.036-.195-.008l-.092.008-.056-.048v-.036l-.048-.024h-.112l-.064-.02-.116-.004c-.088.004-.179.004-.259-.032l-.084-.136-.124.036.056.1-.008.036.028.028-.088.012v.068l-.199.024h-.084l-.164-.016c-.136 0-.251-.048-.331-.164l-.092-.084-.195-.096-.024.008.012-.02-.012-.024-.012.016v.02l-.048-.044-.012-.104-.004-.128-.048-.144-.076.084.004.191c.004.076-.008.084-.096.068l-.024.004c-.187-.004-.526-.136-.658-.223l-.1-.076c-.068-.072-.152-.12-.247-.156l-.096-.04-.275-.152-.088-.056-.347-.259-.052-.048c-.092-.112-.215-.191-.323-.287-.152-.124-.279-.271-.391-.431l-.239-.375-.032-.048-.052-.004c.012-.072-.024-.136-.052-.199l-.136-.271-.179-.311-.056-.064v.004l-.036-.036-.08-.167c-.04-.076-.068-.152-.076-.231l-.044-.12-.12-.255c-.08-.219-.156-.443-.215-.67-.048-.175-.088-.355-.116-.534-.02-.116-.056-.235-.024-.355l-.012-.096-.016-.104c-.016-.104-.012-.211-.072-.303l-.02-.08c-.02-.096-.032-.199-.02-.299l-.012-.199-.04.116-.024-.028.02-.08.044-.1v-.124l-.016-.084-.008-.06.032-.359c.016-.12.02-.239.064-.351l.008-.12.012-.175.108-.558.04-.267.028-.16.088-.235c.064-.16.12-.319.167-.483l.04-.068.052-.068.187-.347.167-.347.112-.203.267-.295.08-.183c.012-.036.53-.447.514-.475l.036-.072.219-.207c.028-.024.247-.279.291-.255.008.004.339-.239.343-.255.036-.096.124-.128.207-.167l.128-.044.088-.06.068-.084c.096 0 .152-.092.235-.128l.02.044.056-.036-.032-.04.136-.088.056-.04.128-.092.132-.08.036-.032c.108-.028.191-.1.287-.152l.195-.076.223-.092.231-.068.064-.004.064-.032.112-.012.052-.012.299-.1.104-.008.04-.004.167-.052.171-.028.08-.012.431-.056.255-.032c.128-.016.255-.02.383.004l.152-.008c.132-.048.263-.044.403-.036l.148.024.702.048.104.016.16.036.303.084.407.152.108.064.263.203.032-.036.08.064.239.096.199.12c.144.084.303.124.463.16l.096.044c.064.044.132.092.215.108.132.028.243.096.347.179l.359.299.355.303c.231.171.427.375.582.618l.16.219.171.219.04.068.036.04.072.072.092.148c.056.064.1.14.128.223l.084.104.044.04.016.052.044.112c.06.044.096.104.124.179.084.211.164.427.267.634l.064.199.028.144.08.136.06.152.02.028.024.052.092.263.004.012.08.387.02.008-.02-.239-.064-.283m-13.136 8.913h.008v-.008h-.008zm-.726-13.077l-.016-.016-.008.028.004.012.02-.024m.295-.427l-.016-.02-.024.036.004.016.036-.032m.227-.311l.048-.076-.052.004-.032.04.008.028.028.004m.088-.311l-.016.052.016-.052m-2.11 7.398l.004.004.008-.008-.012-.004v.008m0-.191l.004.008.008-.004-.004-.012-.008.008m-.04.514l.032.024-.024-.144-.008.12m-.343 1.085l-.016-.124-.012-.167-.084-.008-.064.044-.028.06c-.012.064-.012.124-.068.167l-.012.068c-.004.124.008.247.028.375.036.195.088.383.211.55l.108.012c.056-.04.064-.092.072-.148l-.024-.287c-.024-.183-.06-.367-.112-.542m1.755-7.545l-.012-.016-.02.004-.004.064.036-.052m13.005-9.236l-.02.064-.036.132c-.068.072-.096.164-.128.247l-.14.359-.004.088.004.056-.068.144-.016.04-.048.116-.024.068-.024.068-.088.235-.032.116-.052.183-.012.048-.028.088-.156.375c-.048.12-.072.251-.156.351l-.02.044-.1.283-.112.331c-.044.12-.048.247-.124.347l.024.112-.036.108.012.064.024-.024.036-.136c.012-.056.028-.112.096-.132.064-.02.092-.072.088-.136-.008-.116 0-.235.036-.347.016-.056.032-.108.092-.14l.036-.096-.068.072-.004-.048.076-.084c.088-.052.096-.068.076-.167-.012-.06-.004-.112.036-.164l.068-.116c.044-.02.108-.04.12-.12l-.084-.096.012-.048.167-.443.152-.435.171-.471.199-.526.024-.06.116-.367.195-.574c-.072-.02-.08-.012-.084.044l-.012.084-.024.04c-.056.024-.052.08-.06.128l-.056.148-.048.148m.279-.702l.004.104-.004-.104m-.108-1.184l-.016-.012-.02.008.02.016zm.171 1.141c.048-.156.124-.299.148-.463l-.064.036-.072.195-.076.275.064-.044m.191-.55l.08-.239-.016-.036-.032.036-.06.171-.024.1.016.012.036-.044m-.116 10.106l.008-.008-.02-.008-.008.008.02.008m-.443-.435l.008-.004-.004-.02-.008.02zm-.211-.522l.008-.02-.016-.008-.012.02.02.008m.048.323l.008-.028-.032-.02-.008.02.032.028m.116-.132l.008-.012-.02-.008-.004.008.016.012m.989 1.595l-.088-.008.088.008m.068.124h-.02l-.004.008h.02l.004-.008m.008-.203l-.016-.012-.012.024.008.008.02-.02m.044.112l-.008.012.008-.004v-.008m-.112.379l.012-.008-.016-.012-.008.008.012.012m-.056-.686l-.004.012h.004zm-1.368-1.567l.024.048.028-.044-.024-.036-.028.032m1.284 1.436l-.008-.016-.008.016.008.008.008-.008m.048.08l-.028-.02-.008.004.02.036.016-.02m-.171-.259v-.004h-.008l.004.016.004-.012m-1.858-4.307l.012-.016-.012-.016-.012.016.012.016m.63-1.292l-.028.14.092.124-.004-.096-.052-.036.008-.072-.016-.06m-.985-6.465l-.024-.012-.004.028.012.008.016-.024m-.175.53l-.008-.02-.008.008.008.02.008-.008m-.084.415l-.112.036-.024.088.124-.052.012-.072m.072-.299l.02-.008-.012-.04-.024.012.016.036m2.568 11.996zm-2.764-11.446l-.06.016.02.024.04-.04m1.599 9.93v.004zm0 .004h.004zm-1.519-10.369l.024.132-.024-.132m.706 6.843l.004-.008v-.008l-.008-.004.004.02m.132 2.465l.044.028-.044-.028m.251.347l.04.04.032-.012-.016-.028h-.056m-.156-.092l.088.008-.08-.048-.008.04m.53-9.152l.144-.371c-.084-.04-.084-.04-.052-.128-.096.088-.12.207-.148.319l.024.108.032.072m-.08.024l.008-.028-.056.048.004.076.044-.096m-3.972 7.318l.016.02.347.072.04-.088.112-.319c.044-.116.068-.243.148-.339l.016-.048.008-.183-.203-.036-.02-.02-.036-.04-.092-.028-.1.124-.004.092-.028.215-.084.227-.032.136-.008.032-.08.183m.694-.542l-.04.068-.032.088-.028.08-.036.08-.032.128-.044.1-.044.108.307.08.044-.076.144-.403.076-.195.048-.191-.108-.044-.072-.044-.028-.016-.104-.008c-.032.084-.072.16-.052.247m.431.195c-.044.048-.08.1-.072.175l-.024.064-.124.231-.016.104.044.032.144.048.132-.008.271-.81-.064-.056-.064-.008-.08-.024-.052-.04-.056.144-.004.044-.036.104m.399.156l-.072.112.016.064-.096.156c.02.092.012.112-.076.156l-.008.076.028.02.012.016-.036.044.307.14.064-.112.16-.423.052-.144.1-.291-.351-.112-.1.299m.554-.152l-.243.642-.092.255.024.124.028.008.044-.024.06.072.112.06.104.072h.044l-.064-.076.088-.02c.032-.072.112-.136.088-.235l.012-.024c.044-.088.06-.191.132-.263-.02-.084-.024-.156.048-.211l.016-.068.028-.108.048-.088-.06-.044-.04-.016-.203-.032-.171-.024m-7.35.925c-.024-.1-.008-.195.024-.295l.052-.068.179-.092.076-.032c.144-.104.315-.128.487-.156l.59-.072.279-.024c.331-.016.662-.036.997-.032l.104-.008.116-.004c.223.008.447.008.666.028l.514.016.467.048c.191.016.379.056.566.088h.04l.028-.076.231-.662.092-.124v-.136l-.016-.072.052-.008.008-.104-.072.06-.024-.152-.112.02.008-.008-.032-.012-.036.024-.044.004.032-.092.04.012.052-.068-.052.036-.068-.08-.104.136-.024-.064-.052.048-.016-.14-.056.02-.044-.008.016-.04.06-.028.004-.012-.096-.036c.032-.048.076-.084.132-.088l-.032-.028-.088.008v.008l-.076.052.004-.08.048-.048.092.016.096-.032.299.1.287.1.028-.048c.072-.191.136-.383.195-.578l.112-.343.068-.231.012-.056.1-.211.048-.116c.032-.076.032-.164.1-.219l.004-.02.028-.16.267-.77.207-.586.088-.259.1-.299.084-.231c.072-.164.108-.339.167-.51l.024-.064c.084-.167.132-.347.195-.526l.092-.279.092-.116.068.028.008.028-.096.299-.06.164-.012.02c-.016.14-.088.263-.136.399l-.032.136-.108.267-.016.032-.108.307-.104.259-.076.207-.088.231-.064.231-.016.068-.124.287-.012.1-.012.116-.052.004-.004.08c.028.052.008.088-.032.12l-.036.044-.072.167-.02.052-.096.251-.048.12-.144.395-.024.076-.016.072-.1.255-.064.215-.219.614c.068.052.156.092.359.148l.032-.056.231-.69.096-.299.072-.195.164-.487.02-.072c.092-.227.16-.463.239-.694l.191-.538.144-.447.068-.199c.104-.239.16-.495.247-.738l.108-.283.12-.367.227-.638.072-.211.044.036-.016-.104.068-.179c.02-.096.044-.187.092-.275.036-.068.068-.14.072-.219l.02-.064.052-.179.032-.04.02.108-.024.08-.008.044.04.128v.04l-.028.084.004.092-.016.08-.02.076-.064.164-.14.199-.02.04c-.028.128-.084.243-.148.359l-.028.088-.032.088-.02.088-.028.088-.016.028-.048.144-.12.375-.052.12-.16.435c-.036.108-.088.207-.1.323l-.016.044c-.072.108-.092.239-.128.363l-.008.199-.08.175-.076.203-.108.275-.016.044-.247.69-.16.415-.036.064-.076.167-.028.072-.044.108-.028.08-.052.164-.04.108-.012.124v.028l-.032.12c-.024.084-.072.156-.128.231l.048.048.271.096.028-.024.255-.714c.12-.347.259-.686.371-1.037l.187-.514.156-.427.088-.231.108-.319.14-.375c.072-.175.136-.355.187-.534l.088-.231.084-.219.06-.092.008-.016.032-.14.04-.132.191-.542.144-.371.195-.538.024-.032.076-.008.048-.06-.028.116-.064.187-.076.195-.056.14c-.036.096-.064.199-.124.283l-.02.108-.004.024-.084.211-.012.032c-.064.056-.064.128-.076.203l-.036.064-.024.04-.144.383-.02.096v.024l-.112.243-.028.084-.036.112-.02.04c.012.084-.028.152-.056.219l.012.128-.076.056.016.108c-.072.04-.096.108-.116.179l-.12.239c-.036.044-.044.112-.04.175l.004.068-.02.06-.028.092-.024.088c-.048.044-.084.088-.064.16l-.02.04-.048.044-.1.263.008.104-.036.056-.012.06-.02.064-.02.044-.112.227-.016.012-.052.064-.004.195-.004.064-.072.187-.052.132-.088.275-.136.359-.1.267.259.104.068-.16.052-.144c.052-.136.112-.271.148-.415l.124-.339.068-.203.179-.514.171-.447.175-.506.12-.327.028-.08.215-.602.076-.223.124-.323.088-.275c.052-.179.12-.355.195-.526l.004-.012.084-.247.199-.562.068-.195.048-.02h.004l-.012.008v.112l-.012.112-.032.084-.012.068-.016.1-.08.243-.012.056c.008.064-.016.12-.06.171l-.02.104-.016.064c-.04.036-.06.076-.044.136l-.012.052-.028.036-.08.267-.06.243-.092.132-.024.191-.004.02-.028.02-.024-.02-.004-.048c-.052.028-.06.06-.024.084l.024.064-.056.128-.012.032c-.008.08-.056.144-.108.195l.012.072c-.044.104-.056.227-.148.307l-.02.012-.112.215-.072.191.032.12-.088.02-.016.088c.004.076-.004.14-.072.187l.028.056.012.132-.088.191-.028.088c-.012.056-.008.116-.072.148l-.024.052-.06.112-.016.032c.008.08-.044.136-.076.203-.028.056-.036.1.004.156l-.048.02-.048.06-.04.116-.052.191-.072.179-.028.084-.112.271-.072.132-.02.052.116.06.199.084.088-.032.012-.032c.02-.136.068-.271.124-.403l.012-.04c.004-.076.044-.116.12-.132l-.032-.06.08-.124c0-.072.012-.156.072-.215l.012-.056.016-.1.187-.514.056-.128.036-.116.004-.02.112-.295.068-.171.072-.199.024-.1.06-.148.032-.12.064-.088.012-.164.056-.076-.004-.076-.048-.072.064-.08.032-.032.06-.136.036-.072-.024-.064.028-.076.084-.191.112-.251.04-.104.08-.144.052-.14c.04-.072.04-.076.02-.167l.064-.092-.016-.072.044-.052c.032-.044.08-.088.064-.156l.096-.231.032-.088.052-.12.012-.02.06-.171.068-.167.04-.056.108-.032c.004.052.004.104-.064.124l-.004.084-.012.064-.259.726-.104.283-.12.311-.028.08-.136.343-.02.052-.195.55-.08.223-.108.303-.12.307-.112.279-.032.112-.195.55-.235.638-.215.59c-.016.052-.028.104-.088.128l-.016.052-.004.096-.1.263-.02.072c.148.076.303.104.447.156l.068-.1.088-.251.056-.116.008.156-.1.275-.024.072.295.108.183.076c.068.028.112.076.108.148-.036.084-.116.036-.179.068l.036.044-.156-.036-.06.084c-.032.06-.076.084-.12.056l-.203-.06-.088.004-.395 1.121.072.06.132.076.112.024.124.096.036.032-.06.044.096.088.092.08.024.016.183.1.128.104.056-.036.02-.02.036.024v.088l.231.14-.004-.004h.004v.004l.112.108.1.1-.016.088.012.052.04.068.104-.088.004.056.008.048-.06.04.08.116.064.108v.036l.012.02.076.064.056-.012.032.08.048.108.056.04h.02l.044-.04.06.096.036.032.108.092.036-.036.068-.004c-.016.06-.08.112-.02.187l.084-.072.016.004-.012.052-.032.04.148-.008-.044.064-.036.064.072.028.052.044.088-.008-.076.14h.032l.088-.02.052-.088.028.068-.06.06.068.024-.012.148h.052l.02.056.02.056.052.084.024.04.072.076-.04.064h.004-.004l.02.044v-.004l.044.124-.108-.092h-.008l-.012.072.06.132.024-.016.012.104-.012.076.016.004.088.152.016.04.044.12.012.076.012.171-.016.048c-.056-.064-.104-.116-.048-.199l-.004-.056-.016-.036-.036.048-.02-.008-.032-.028c-.084-.06-.1-.152-.14-.235l-.044-.108-.012-.012-.076-.064-.064-.08-.084-.116-.032-.1-.04-.048-.1-.092.004-.068-.076-.04-.056-.096-.008-.024c-.096-.012-.092-.116-.156-.164l-.052-.148-.048.012-.072-.076-.008-.108-.056-.024-.016-.052-.068-.068-.1-.04-.016-.084c-.104-.044-.183-.124-.271-.191l-.12-.108-.227-.195c-.148-.112-.283-.231-.443-.315l-.036-.064-.096-.048c-.1-.084-.211-.148-.323-.215l-.088-.02-.06-.024-.036-.024c-.104-.016-.183-.064-.243-.144l-.04-.012-.032.056-.132.363-.044.088-.06.008.02-.084.008-.064.06-.199.016-.044c.044-.052.04-.112.044-.183l-.152-.072-.052-.044-.012-.016-.215-.056-.032.056-.187.502-.044.136-.032.064-.02.004-.02-.02-.004-.06.036-.12.044-.108c.036-.167.088-.331.156-.495l-.171-.088-.191-.064c-.064.104-.104.219-.195.315l.08-.323-.179-.056c-.064-.016-.12-.072-.199-.036 0 .068-.028.124-.068.183l-.024.08c-.02.052-.032.112-.1.148l.068-.227.072-.211c-.08-.068-.167-.092-.267-.08l-.084.175-.012.02c.016.076-.028.132-.064.183l-.012.024c.008.1-.072.16-.092.243l-.04-.04.032-.124.156-.443.024-.068c-.084-.06-.179-.084-.275-.104l-.052.008-.108.052.016.06.048-.004-.028.096-.016.044-.148.207-.008.04-.052.108-.052.112.008.048-.084.036v-.044l.247-.706.024-.08-.112-.052-.223-.04-.116-.02c-.068.004-.136.012-.203-.024l-.076.008-.044.016-.092-.024h-.088l-.08-.028-.048.004-.156.024-.064-.004-.148-.024-.08.008-.104-.004-.056.008-.028.012c-.064-.052-.128-.008-.187 0l-.024.004c-.164 0-.327.028-.487.052h-.092l-.351.036-.498.06c-.215.024-.435.052-.65.088-.136.02-.271.036-.407.032-.092-.004-.187 0-.275.036l.084-.072-.116-.04-.092-.171-.052-.164m9.053-8.403c.064-.148.064-.175.032-.259l-.036.044-.02.032-.004.1.028.084m-11.386 9.695v-.004.004m0 0v-.004h-.004zm13.168 6.604l.004.02.008-.004-.008-.024-.004.008m.407-2.13l-.008-.008.004.02.004-.012m.008.243h.004v-.008.004h-.004v.004m-.048-.255l.004.004zm0 0l.004.004v-.004h-.004m.028-.008v.004h-.004zm0 0l-.004.004.008.008-.004-.012m-.012-.012l-.012.02.02-.004-.008-.016m-2.776-6.54l-.004.004.004.004h.004l-.004-.008m-7.932 2.385l.004-.028h-.02l.008.036.004-.004m-.004.004h-.004zm9.818 1.045l.004.008.004-.008zm-.439-.395l-.004.016.004.004.008-.008-.008-.012m-2.114-3.254l.008.016-.008.004.008-.004zm.534-6.863v-.004.004m.359 1.878l-.004.004.004-.004m-.522 5.097l-.004-.004.004.004m-.526 1.356v-.004zm.443.367v-.004.004m1.4 1.823l.008-.008zm.008-.012v.004-.004m.064-.211l.02.02-.02-.02m.702.67l-.004.004.004-.004m.199.415l-.024-.092.024.092m.004 0l.02-.008-.02.008m-4.897-5.344l.004.016-.004-.016m3.517-6.56l.004.004v-.004zm-1.348.59l-.004-.004-.012.008.008.004.008-.004m1.348-.594h.004zm-3.625 6.6l-.084-.052.008.072.076-.02m5.196 5.392h.004l.004-.032v-.004l-.008.036m-3.972-3.709l.08.02.1.052.044-.032c-.148-.084-.167-.088-.223-.04m-5.396 1.452l-.028.008-.032.028h.064l-.004-.036m6.568-.853h.004zm1.563 1.519l-.008.012v.02l.008-.02v-.012m-1.563-1.519h.004-.004m-10.365 1.42l-.012-.008.012.008m-.02.056l-.012-.004-.004.012.016-.008m-.008-.012v.004h-.004v.004l.004-.004v-.004m-1.456 10.596l.032.012-.064-.156.032.144m1.607 2.405l-.036-.052.036.052m3.055-13.42l-.052.02.052-.02v-.004zm-3.091 13.36v.004-.004m1.946 1.089l.016-.008-.016.008m-.574-.211l.008-.004-.008.004m-.291-.283l-.008-.016.008.016m-1.464-1.025v-.028l-.108-.14-.044-.024c.032.084.068.156.152.191m-.275-.347l.056-.012-.028-.068v-.06h-.052l-.068-.175-.128-.024c.072.124.136.235.219.339m-.327-.538l.008-.008-.008-.016.008.016-.008.008m-.076-.148l.004.016-.004-.016m-.068-.084l.064.08-.064-.08m-.175-1.623l-.008-.02.008.02m-.08.905l.008.012-.008-.012m0 .024l-.004-.008.004.008m.024-7.143v.016-.004-.012m0 0v.004-.004m-.339 8.881l.148.211c-.028-.092-.084-.171-.148-.211m.387.61l-.016-.048.016.048m-.164-.315l-.008.004.004.008.008-.004-.004-.008m-.331-.347l-.004.008.016.012-.004-.016-.008-.004m1.288-10.169l.016.008.016-.032-.032.016v.008m-1.089 8.231l.004-.008-.004-.004v.016l.004-.012-.004.008m.056-.088l.024.068.048-.008-.04-.056-.032-.004m5.264-10.935l-.004.004.004-.004zm-5.252 11.182v.004l.004.004v-.008m1.535 2.333l-.004.004h.004zm11.146-13.91h.004v-.004l-.004.004m1.304-7.657v.008-.008m-1.328 7.649l.02.008h.004l-.016-.02-.008.012m1.324-7.753zm-9.699 22.197l.004-.008-.008-.004-.004.008.008.004m4.51-17.687l-.016-.008-.008.008.016.008.008-.008m-.152-.056h-.008v.008l.004.004.004-.012m.399-.016l-.028.012-.008-.016.02-.032.016.036" fill="#211d1d"/><path d="M30.516 27.995c-.064-.04-.148-.064-.251-.064-.1 0-.187.016-.251.064-.06.044-.088.191-.088.439 0 .255.032.407.096.455.068.044.156.068.251.064.104-.008.183-.032.243-.068.06-.044.1-.187.1-.451 0-.247-.04-.395-.1-.439m-.383 1.519c-.215-.004-.403-.064-.562-.175-.156-.108-.235-.395-.235-.845 0-.451.06-.754.179-.913.116-.16.359-.239.738-.239.355 0 .602.072.738.235.136.16.203.431.203.822v.59l-.012.614c-.004.419-.108.694-.307.845-.199.148-.407.223-.622.223-.219 0-.395-.028-.534-.088v-.586c.1.064.223.092.371.092.14 0 .267-.04.379-.124.112-.08.164-.291.16-.618-.1.12-.267.175-.495.167" fill="#fff"/><path d="M32.165 28.026c-.072.076-.1.399-.1.965 0 .57.036.889.104.961.076.08.167.116.279.116.112 0 .199-.036.263-.116.064-.072.1-.395.1-.961s-.028-.889-.092-.965c-.064-.08-.16-.116-.271-.116-.116 0-.211.032-.283.116m.993-.423c.16.179.235.642.235 1.372 0 .734-.076 1.196-.235 1.392-.16.195-.395.291-.698.291-.299 0-.534-.092-.71-.291-.175-.199-.263-.658-.263-1.38 0-.718.088-1.18.263-1.376.175-.187.411-.283.698-.283.311 0 .55.088.71.275" fill="#fff"/><path d="M33.439 30.09c.064-.068.148-.1.235-.1.088 0 .171.032.235.1.064.068.1.148.1.235 0 .088-.036.171-.1.235-.064.064-.148.1-.235.1-.088 0-.171-.036-.235-.1-.064-.064-.1-.148-.1-.235 0-.088.036-.167.1-.235" fill="#fff"/><path d="M34.835 28.283l-.152.355-.275.59h.403v-.562zm-.024 2.361v-.889h-.933v-.55l.905-1.858h.614v1.882h.243v.526h-.243v.889z" fill="#fff"/><path d="M30.516 31.811c-.064-.04-.148-.068-.251-.068-.1 0-.187.02-.251.068-.06.044-.088.187-.088.439 0 .255.032.407.096.455.068.044.156.068.255.064.1-.008.179-.032.239-.072.06-.04.1-.187.1-.447 0-.251-.04-.395-.1-.439m-.383 1.519c-.215-.004-.403-.064-.562-.175-.16-.112-.235-.395-.235-.845 0-.451.06-.754.179-.913.116-.164.363-.243.738-.243.355 0 .602.076.738.239.136.156.207.431.207.818v.594l-.012.614c-.008.419-.112.694-.311.845-.199.144-.407.223-.622.223-.219 0-.395-.032-.534-.092v-.582c.1.064.223.092.371.092.14 0 .267-.04.379-.124.112-.08.164-.291.16-.622-.1.124-.263.179-.495.171" fill="#fff"/><path d="M31.583 31.496l.594-.343h.594v3.298h-.594v-2.656l-.594.343z" fill="#fff"/><path d="M33.082 33.907c.064-.068.148-.1.235-.1.088 0 .167.032.235.1.064.064.1.144.1.235 0 .088-.036.171-.1.231-.068.068-.148.104-.235.104-.088 0-.171-.036-.235-.104-.068-.06-.1-.144-.1-.231 0-.092.032-.171.1-.235" fill="#fff"/><path d="M34.389 31.842c-.072.076-.1.399-.1.965 0 .57.036.889.104.961.076.08.167.116.279.116.112 0 .199-.036.263-.116.064-.072.1-.395.1-.961s-.028-.889-.092-.965c-.068-.08-.16-.12-.271-.12-.116 0-.211.036-.283.12m.993-.423c.16.179.235.638.235 1.372 0 .734-.076 1.196-.235 1.392-.16.191-.395.291-.698.291-.299 0-.534-.092-.71-.291-.175-.203-.263-.658-.263-1.38 0-.722.088-1.18.263-1.376.175-.191.411-.287.698-.287.311 0 .55.092.71.279" fill="#fff"/><path d="M28.384 30.41v-.287h.171v.463h-.977v-.175z" fill="#fff"/><path d="M28.559 30.075h-.981v-.175h.981z" fill="#fff"/><path d="M27.739 29.568l.076.072c.044.008.1-.024.171-.104l.164-.16.152-.056c.064-.008.124.012.183.064.052.048.084.116.08.207l-.036.195h-.167l.04-.211-.076-.08c-.044-.012-.1.024-.171.096l-.088.096-.072.068-.152.06c-.064.008-.124-.012-.183-.06-.06-.052-.088-.116-.088-.199l.028-.171h.175l-.036.183" fill="#fff"/><path d="M28.267 28.875c-.08 0-.12.028-.128.084v.112h.247v-.112c0-.056-.04-.084-.12-.084m-.407.032c-.072 0-.108.028-.108.08v.084h.211v-.088c0-.052-.032-.076-.104-.076m-.207-.104c.048-.036.116-.056.207-.056.08 0 .136.016.171.048.04-.052.116-.08.235-.08.1 0 .175.024.219.064.048.036.072.1.072.183v.283h-.981v-.263c0-.08.024-.144.076-.179" fill="#fff"/><path d="M27.78 28.451c.024.02.12.028.287.028.171 0 .267-.008.287-.032l.032-.104-.032-.108c-.02-.02-.12-.032-.287-.032-.167 0-.263.008-.287.028l-.036.112.036.108m-.124-.351c-.072-.399.064-.419.283-.419.219 0 .355.02.415.068.056.052.088.128.088.239 0 .104-.028.183-.088.231-.06.056-.195.084-.411.084-.215 0-.351-.028-.407-.084-.06-.048-.088-.128-.088-.227 0-.116.028-.191.084-.243" fill="#fff"/><path d="M27.996 27.722l.211.036v-.124l-.215.032-.171.028zm.562-.152l-.187.032v.187l.187.028v.183l-.981-.199v-.211l.981-.207z" fill="#fff"/><path d="M28.06 34.152c0-.056-.044-.084-.128-.084-.088 0-.128.028-.128.084v.112h.255zm.546.283h-.977v-.287c0-.08.024-.144.072-.179.048-.04.124-.06.235-.06.108 0 .179.02.227.064.048.04.068.1.068.187v.104h.375z" fill="#fff"/><path d="M27.831 33.626c.024.024.12.032.287.032.171 0 .263-.012.287-.032l.032-.104-.032-.112c-.024-.02-.12-.028-.287-.028-.167 0-.263.008-.287.028l-.036.112.036.104m-.128-.347c.056-.048.191-.068.411-.068.215 0 .355.02.415.068.056.048.088.124.088.239 0 .104-.032.183-.088.231-.06.056-.199.08-.411.08-.215 0-.351-.024-.411-.08-.056-.048-.084-.128-.084-.227 0-.116.028-.195.08-.243" fill="#fff"/><path d="M28.06 32.925v-.108c0-.056-.044-.088-.128-.088-.088 0-.128.032-.128.088v.108zm.546-.171l-.375.12v.052h.375v.175h-.977v-.287c0-.084.024-.144.072-.183.048-.036.124-.056.235-.056.108 0 .179.02.227.06l.048.064.395-.132z" fill="#fff"/><path d="M28.607 32.318h-.806v.175h-.175v-.538h.175v.175h.806z" fill="#fff"/><path d="M27.831 31.663c.024.02.12.032.287.032.171 0 .263-.012.287-.032l.032-.108-.032-.108c-.024-.02-.12-.032-.287-.032-.167 0-.263.008-.287.028l-.036.112.036.108m-.128-.347c.056-.048.191-.068.411-.068.215 0 .355.02.415.068.056.048.088.124.088.235 0 .104-.032.183-.088.235-.06.052-.199.08-.411.08-.215 0-.351-.028-.411-.08-.056-.052-.084-.128-.084-.231 0-.116.028-.191.08-.239" fill="#fff"/><path d="M27.591 26.83h1.252v-2.991h1.212v-1.248h-1.212v-1.527h1.89v-1.252h-3.143z" fill="#fff"/><path d="M34.282 19.812l-.714 3.043-.211 1.272-.227-1.3-.75-3.015h-1.376v7.019h1.125v-2.616l-.064-1.587.351 1.511.638 2.692h.562l.59-2.756.315-1.448-.064 1.511v2.692h1.125v-7.019z" fill="#fff"/><path d="M9.392 20.961c-.275.052-.451.239-.51.554-.064.311.175.71.71 1.208.538.502.913.893 1.164 1.164.251.279.387.642.427 1.093.036.475-.128.909-.475 1.312-.351.399-.841.598-1.492.586-.662-.012-1.125-.1-1.4-.247v-1.216c.686.227 1.188.315 1.499.279.315-.04.502-.215.574-.526.08-.327-.16-.726-.686-1.216-.275-.251-.498-.475-.69-.662-.199-.187-.363-.351-.475-.487-.223-.255-.375-.614-.439-1.093-.06-.463.104-.897.439-1.312.351-.423.826-.638 1.428-.638.614 0 1.013.064 1.228.199v1.252c-.602-.211-1.041-.303-1.304-.251" fill="#fff"/><path d="M14.348 24.743c0-.566-.199-.865-.598-.905h-.79v1.755h.79c.399 0 .598-.287.598-.849m-.211-2.915c0-.514-.203-.766-.602-.766h-.574v1.527h.598c.387 0 .578-.251.578-.762m.51-4.403c1.001-1.141 1.137-.642 1.137.02 0 .566-.124.969-.375 1.228.387.275.59.826.59 1.667 0 .738-.152 1.26-.439 1.587-.287.339-.738.498-1.352.498h-1.99v-7.015h1.85c.602 0 1.041.175 1.3.526" fill="#fff"/><path d="M17.526 20.961c-.275.052-.451.239-.51.554-.064.311.175.71.71 1.208.538.502.913.893 1.164 1.164.251.279.387.642.427 1.093.036.475-.128.909-.475 1.312-.351.399-.841.598-1.492.586-.662-.012-1.125-.1-1.4-.247v-1.216c.686.227 1.188.315 1.499.279.315-.04.502-.215.574-.526.08-.327-.16-.726-.686-1.216-.275-.251-.498-.475-.69-.662-.199-.187-.363-.351-.475-.487-.223-.255-.375-.614-.439-1.093-.06-.463.104-.897.439-1.312.351-.423.826-.638 1.428-.638.614 0 1.013.064 1.228.199v1.252c-.602-.211-1.041-.303-1.304-.251" fill="#fff"/><path d="M21.093 22.916h.786c.403 0 .602-.315.602-.925 0-.618-.199-.929-.602-.929h-.786zm1.224 3.912l-.849-2.672h-.375v2.672h-1.252v-7.015h2.066c.598 0 1.037.175 1.3.51.275.351.415.913.415 1.687 0 .766-.152 1.304-.439 1.643-.124.152-.275.263-.463.339l.949 2.835z" fill="#fff"/><path d="M25.572 25.456c-.187 0-.363.076-.498.211-.14.14-.215.315-.215.502s.076.363.215.502c.136.136.311.207.498.207s.363-.072.498-.207c.14-.14.215-.315.215-.502s-.076-.363-.215-.502c-.136-.136-.311-.211-.498-.211" fill="#fff"/></g></svg>