<svg aria-labelledby="title desc" data-name="sra-logo" role="img" version="1.1" viewBox="0 0 486.51 120.06" xmlns="http://www.w3.org/2000/svg">
 <title>Schwarzwaldradio Oldies Neu Entdecken</title>
 <desc>Schwarzwaldradio Oldies Neu Entdecken</desc>
 <g transform="translate(0 -4.155)" fill="#7a949e" data-name="Flaeche_Radio">
  <path d="m415.24 66.1c-1.4 0-2.61 0.38-3.64 1.12-1.03 0.75-1.88 1.71-2.56 2.87-0.68 1.17-1.19 2.46-1.52 3.87s-0.5 2.76-0.5 4.04c0 1.18 0.15 2.04 0.45 2.56s0.74 0.78 1.33 0.78c0.84 0 1.74-0.44 2.7-1.33s1.86-2 2.7-3.34 1.58-2.79 2.22-4.33c0.64-1.55 1.07-2.98 1.28-4.31l0.26-1.57c-0.38-0.1-0.79-0.19-1.23-0.26s-0.93-0.11-1.49-0.11z"/>
  <path d="m386.86 66.1c-1.39 0-2.6 0.38-3.63 1.12-1.03 0.75-1.88 1.71-2.56 2.87-0.68 1.17-1.19 2.46-1.52 3.87s-0.5 2.76-0.5 4.04c0 1.18 0.15 2.04 0.45 2.56 0.29 0.52 0.74 0.78 1.33 0.78 0.84 0 1.73-0.44 2.69-1.33s1.85-2 2.69-3.34c0.83-1.34 1.57-2.79 2.22-4.33 0.64-1.55 1.07-2.98 1.28-4.31l0.26-1.57c-0.38-0.1-0.79-0.19-1.23-0.26s-0.93-0.11-1.49-0.11z"/>
  <path d="m357.73 57.43c-0.59 0-1.13 0-1.62 0.03-0.49 0.02-0.89 0.06-1.2 0.13l-1.83 9.71c0.24 0.04 0.53 0.06 0.86 0.08s0.76 0.03 1.28 0.03c1.08 0 2.06-0.16 2.95-0.47s1.65-0.76 2.3-1.33c0.64-0.57 1.15-1.25 1.51-2.04 0.37-0.78 0.55-1.64 0.55-2.59 0-1.15-0.37-2.03-1.12-2.64s-1.97-0.91-3.68-0.91z"/>
  <path d="m481.54 30.6c-69.22-29.46-109.46-10.58-141.58-1.37l-11.91 64.96h147.38l11.08-60.94c-2.91-1.62-4.97-2.65-4.97-2.65zm-112.09 33.28c-0.5 1.3-1.21 2.47-2.12 3.5-0.9 1.03-1.98 1.91-3.24 2.64-1.25 0.73-2.63 1.29-4.12 1.67 0.63 1.22 1.27 2.51 1.93 3.86l5.22 11.38h-8.51l-5.85-14.25h-0.73l-2.72 14.25h-7.15l6.68-35.24c1.43-0.07 2.98-0.12 4.67-0.16 1.69-0.03 3.49-0.05 5.4-0.05 3.9 0 6.75 0.71 8.56 2.12s2.71 3.42 2.71 6.03c0 1.53-0.25 2.95-0.76 4.26zm26.65 5.2c-0.45 2.37-0.88 4.6-1.28 6.68s-0.76 4.05-1.07 5.87c-0.31 1.83-0.61 3.6-0.89 5.3h-6.95c0.24-1.01 0.55-2.12 0.91-3.34 0.37-1.22 0.83-2.64 1.38-4.28h-0.1c-0.52 0.94-1.14 1.9-1.85 2.87s-1.51 1.85-2.4 2.64c-0.89 0.78-1.85 1.43-2.9 1.93-1.04 0.5-2.18 0.76-3.39 0.76-2.02 0-3.56-0.65-4.62-1.96-1.06-1.3-1.59-3.37-1.59-6.19 0-2.47 0.34-4.85 1.02-7.13s1.71-4.29 3.08-6.03c1.38-1.74 3.12-3.13 5.22-4.18 2.11-1.04 4.58-1.57 7.44-1.57 1.6 0 3.2 0.07 4.8 0.21s3.17 0.35 4.7 0.63c-0.56 2.82-1.06 5.41-1.51 7.78zm26.42 10.76c-0.14 0.84-0.29 1.67-0.44 2.51-0.16 0.84-0.3 1.65-0.44 2.46-0.14 0.8-0.26 1.51-0.37 2.14h-6.94c0.17-1.01 0.45-2.12 0.84-3.34 0.38-1.22 0.85-2.64 1.41-4.28h-0.1c-0.52 0.94-1.14 1.9-1.85 2.87s-1.51 1.85-2.4 2.64c-0.89 0.78-1.85 1.43-2.9 1.93-1.04 0.5-2.18 0.76-3.39 0.76-2.02 0-3.56-0.65-4.62-1.96-1.06-1.3-1.59-3.37-1.59-6.19 0-2.47 0.34-4.85 1.02-7.13s1.71-4.29 3.09-6.03 3.12-3.13 5.23-4.18c2.11-1.04 4.6-1.57 7.46-1.57 0.38 0 0.78 0.02 1.18 0.05 0.4 0.04 0.86 0.09 1.39 0.16l2.25-11.85h7.1l-5.48 28.77c-0.14 0.66-0.28 1.41-0.42 2.24zm12.27 7.1h-7.05l4.75-24.85 0.21-1.1h7.05zm5.85-30.75c-0.45 0.42-0.96 0.74-1.51 0.96-0.56 0.23-1.15 0.34-1.78 0.34-1.22 0-2.21-0.41-2.98-1.23s-1.15-1.75-1.15-2.79c0-0.66 0.13-1.27 0.39-1.83s0.62-1.04 1.07-1.46 0.96-0.74 1.51-0.97c0.56-0.23 1.15-0.34 1.78-0.34 1.18 0 2.17 0.4 2.95 1.2s1.18 1.71 1.18 2.71c0 0.7-0.13 1.33-0.39 1.91-0.26 0.57-0.62 1.07-1.07 1.49zm26.05 20.99c-0.87 2.16-2.04 4-3.5 5.53s-3.14 2.71-5.04 3.53-3.87 1.23-5.93 1.23c-3.72 0-6.38-0.82-7.96-2.45s-2.38-3.92-2.38-6.84c0-2.75 0.43-5.22 1.3-7.42 0.87-2.19 2.03-4.04 3.47-5.56 1.44-1.51 3.12-2.68 5.04-3.5 1.91-0.82 3.92-1.23 6.01-1.23 1.88 0 3.47 0.23 4.78 0.71 1.3 0.47 2.37 1.12 3.19 1.96s1.41 1.84 1.78 3c0.37 1.17 0.55 2.43 0.55 3.79 0 2.68-0.44 5.1-1.3 7.26z" data-name="Flaeche_Radio"/>
  <path d="m456.62 66.62c-1.15 0-2.18 0.32-3.08 0.96-0.91 0.64-1.67 1.47-2.3 2.47-0.63 1.01-1.11 2.12-1.44 3.36-0.33 1.23-0.5 2.44-0.5 3.62 0 1.32 0.28 2.36 0.83 3.12 0.56 0.76 1.55 1.14 2.98 1.14 1.15 0 2.18-0.29 3.08-0.88s1.69-1.37 2.35-2.34 1.16-2.08 1.51-3.33 0.52-2.53 0.52-3.85c0-1.39-0.3-2.45-0.91-3.17-0.61-0.73-1.63-1.09-3.05-1.09z"/>
 </g>
 <g transform="translate(0 -4.155)" fill="#002c42">
  <path d="m367.5 53.59c-1.81-1.41-4.67-2.12-8.56-2.12-1.91 0-3.71 0.02-5.4 0.05-1.69 0.04-3.25 0.09-4.67 0.16l-6.68 35.24h7.15l2.72-14.25h0.73l5.85 14.25h8.51l-5.22-11.38c-0.66-1.36-1.3-2.64-1.93-3.86 1.5-0.38 2.87-0.94 4.12-1.67s2.33-1.61 3.24-2.64 1.61-2.19 2.12-3.5 0.76-2.72 0.76-4.26c0-2.61-0.91-4.62-2.71-6.03zm-5.51 9.97c-0.37 0.78-0.87 1.46-1.51 2.04-0.64 0.57-1.41 1.02-2.3 1.33s-1.87 0.47-2.95 0.47c-0.52 0-0.95 0-1.28-0.03-0.33-0.02-0.62-0.04-0.86-0.08l1.83-9.71c0.31-0.07 0.71-0.11 1.2-0.13s1.03-0.03 1.62-0.03c1.71 0 2.93 0.31 3.68 0.91 0.75 0.61 1.12 1.49 1.12 2.64 0 0.94-0.18 1.8-0.55 2.59z"/>
  <path d="m388.12 60.46c-2.86 0-5.33 0.52-7.44 1.57-2.11 1.04-3.85 2.44-5.22 4.18-1.38 1.74-2.4 3.75-3.08 6.03s-1.02 4.66-1.02 7.13c0 2.82 0.53 4.88 1.59 6.19s2.6 1.96 4.62 1.96c1.22 0 2.35-0.25 3.39-0.76 1.04-0.5 2.01-1.15 2.9-1.93s1.69-1.66 2.4-2.64c0.71-0.97 1.33-1.93 1.85-2.87h0.1c-0.56 1.64-1.02 3.06-1.38 4.28-0.37 1.22-0.67 2.33-0.91 3.34h6.95c0.28-1.7 0.57-3.47 0.89-5.3 0.31-1.83 0.67-3.79 1.07-5.87s0.83-4.32 1.28-6.68c0.45-2.37 0.96-4.96 1.51-7.78-1.53-0.28-3.1-0.49-4.7-0.63s-3.2-0.21-4.8-0.21zm1.2 7.57c-0.21 1.32-0.64 2.76-1.28 4.31s-1.38 2.99-2.22 4.33-1.73 2.45-2.69 3.34-1.85 1.33-2.69 1.33c-0.59 0-1.04-0.26-1.33-0.78-0.3-0.52-0.45-1.38-0.45-2.56 0-1.29 0.17-2.64 0.5-4.04 0.33-1.41 0.84-2.7 1.52-3.87s1.53-2.12 2.56-2.87 2.24-1.12 3.63-1.12c0.56 0 1.05 0.04 1.49 0.11s0.84 0.16 1.23 0.26l-0.26 1.57z"/>
  <path d="m421.33 48.81-2.25 11.85c-0.52-0.07-0.99-0.12-1.39-0.16s-0.79-0.05-1.18-0.05c-2.86 0-5.35 0.52-7.46 1.57-2.11 1.04-3.86 2.44-5.23 4.18-1.38 1.74-2.41 3.75-3.09 6.03s-1.02 4.66-1.02 7.13c0 2.82 0.53 4.88 1.59 6.19s2.6 1.96 4.62 1.96c1.22 0 2.35-0.25 3.39-0.76 1.04-0.5 2.01-1.15 2.9-1.93s1.69-1.66 2.4-2.64 1.33-1.93 1.85-2.87h0.1c-0.56 1.64-1.03 3.06-1.41 4.28s-0.66 2.33-0.84 3.34h6.94c0.11-0.63 0.23-1.34 0.37-2.14s0.29-1.62 0.44-2.46c0.16-0.84 0.3-1.67 0.44-2.51s0.28-1.58 0.42-2.24l5.48-28.77h-7.1zm-3.63 19.21c-0.21 1.32-0.64 2.76-1.28 4.31-0.65 1.55-1.39 2.99-2.22 4.33-0.84 1.34-1.74 2.45-2.7 3.34s-1.86 1.33-2.7 1.33c-0.59 0-1.04-0.26-1.33-0.78-0.3-0.52-0.45-1.38-0.45-2.56 0-1.29 0.17-2.64 0.5-4.04 0.33-1.41 0.84-2.7 1.52-3.87s1.54-2.12 2.56-2.87c1.03-0.75 2.24-1.12 3.64-1.12 0.56 0 1.05 0.04 1.49 0.11s0.85 0.16 1.23 0.26l-0.26 1.57z"/>
  <path d="m440.93 50.07c-0.78-0.8-1.77-1.2-2.95-1.2-0.63 0-1.22 0.11-1.78 0.34s-1.06 0.55-1.51 0.97-0.81 0.91-1.07 1.46c-0.26 0.56-0.39 1.17-0.39 1.83 0 1.04 0.38 1.98 1.15 2.79 0.77 0.82 1.76 1.23 2.98 1.23 0.63 0 1.22-0.11 1.78-0.34 0.56-0.22 1.06-0.55 1.51-0.96 0.45-0.42 0.81-0.91 1.07-1.49 0.26-0.57 0.39-1.21 0.39-1.91 0-1.01-0.39-1.91-1.18-2.71z"/>
  <path d="m434.8 86.93 4.96-25.95h-7.05l-0.21 1.1-4.75 24.85z"/>
  <path d="m465.68 63.12c-0.82-0.83-1.88-1.49-3.19-1.96-1.3-0.47-2.9-0.71-4.78-0.71-2.09 0-4.09 0.41-6.01 1.23-1.91 0.82-3.59 1.98-5.04 3.5s-2.6 3.37-3.47 5.56-1.3 4.67-1.3 7.42c0 2.92 0.79 5.2 2.38 6.84s4.24 2.45 7.96 2.45c2.05 0 4.03-0.41 5.93-1.23s3.58-1.99 5.04-3.53c1.46-1.53 2.63-3.38 3.5-5.53 0.87-2.16 1.3-4.58 1.3-7.26 0-1.36-0.18-2.62-0.55-3.79s-0.96-2.17-1.78-3zm-5.61 11.62c-0.35 1.25-0.85 2.36-1.51 3.33s-1.45 1.75-2.35 2.34c-0.91 0.59-1.93 0.88-3.08 0.88-1.43 0-2.42-0.38-2.98-1.14s-0.83-1.8-0.83-3.12c0-1.18 0.16-2.38 0.5-3.62 0.33-1.23 0.81-2.35 1.44-3.36s1.39-1.83 2.3-2.47c0.9-0.64 1.93-0.96 3.08-0.96 1.43 0 2.45 0.36 3.05 1.09 0.61 0.73 0.91 1.79 0.91 3.17s-0.17 2.6-0.52 3.85z"/>
  <path d="m261.12 66.1c-1.39 0-2.6 0.38-3.63 1.12-1.03 0.75-1.88 1.71-2.56 2.87-0.68 1.17-1.18 2.46-1.51 3.87s-0.5 2.76-0.5 4.04c0 1.18 0.15 2.04 0.44 2.56s0.74 0.78 1.33 0.78c0.84 0 1.73-0.44 2.69-1.33s1.85-2 2.69-3.34 1.58-2.79 2.22-4.33c0.64-1.55 1.07-2.98 1.28-4.31l0.26-1.57c-0.38-0.1-0.79-0.19-1.23-0.26s-0.93-0.11-1.49-0.11z"/>
  <path d="m150.95 66.1c-1.39 0-2.6 0.38-3.63 1.12-1.03 0.75-1.88 1.71-2.56 2.87-0.68 1.17-1.18 2.46-1.51 3.87s-0.5 2.76-0.5 4.04c0 1.18 0.15 2.04 0.44 2.56s0.74 0.78 1.33 0.78c0.84 0 1.73-0.44 2.69-1.33s1.85-2 2.69-3.34 1.57-2.79 2.22-4.33c0.64-1.55 1.07-2.98 1.28-4.31l0.26-1.57c-0.38-0.1-0.79-0.19-1.23-0.26s-0.93-0.11-1.49-0.11z"/>
  <path d="m303.22 66.1c-1.4 0-2.61 0.38-3.64 1.12-1.03 0.75-1.88 1.71-2.56 2.87-0.68 1.17-1.19 2.46-1.52 3.87s-0.5 2.76-0.5 4.04c0 1.18 0.15 2.04 0.45 2.56s0.74 0.78 1.33 0.78c0.84 0 1.74-0.44 2.7-1.33s1.86-2 2.7-3.34 1.58-2.79 2.22-4.33c0.65-1.55 1.07-2.98 1.28-4.31l0.26-1.57c-0.38-0.1-0.79-0.19-1.23-0.26s-0.93-0.11-1.49-0.11z"/>
  <path d="m318.45 35.47c-33.34 6.29-70.36 3.37-108.43-1.81-0.57 6.86-6.37 12.24-13.37 12.24-6.21 0-11.44-4.24-12.94-9.98-1.77 5.31-6.78 9.14-12.69 9.14-6.21 0-11.44-4.24-12.94-9.98-1.77 5.31-6.78 9.14-12.69 9.14-7.38 0-13.37-5.99-13.37-13.37 0-3.11 1.06-5.98 2.85-8.25-42.71-5.74-84.6-8.63-122.03 0.98l-12.84 70.61h328l11.91-64.96c-4.08 1.56-13.87 4.81-21.46 6.24zm-275.84 22.54c-0.73-0.28-1.52-0.48-2.38-0.6-0.85-0.12-1.64-0.18-2.38-0.18-2.16 0-3.71 0.43-4.65 1.3s-1.41 1.85-1.41 2.96c0 0.83 0.24 1.55 0.73 2.15 0.49 0.61 1.1 1.18 1.85 1.71 0.75 0.54 1.56 1.08 2.43 1.64s1.68 1.2 2.43 1.93 1.37 1.59 1.85 2.58c0.49 0.99 0.73 2.2 0.73 3.63 0 1.74-0.37 3.36-1.1 4.86s-1.76 2.81-3.08 3.94-2.89 2.02-4.7 2.66-3.81 0.97-6 0.97c-1.18 0-2.38-0.07-3.6-0.21s-2.32-0.31-3.29-0.52l1.78-6.79c0.87 0.31 1.78 0.57 2.74 0.76s1.91 0.29 2.85 0.29c2.16 0 3.79-0.41 4.88-1.23 1.1-0.82 1.65-1.97 1.65-3.47 0-0.8-0.24-1.5-0.73-2.09s-1.1-1.14-1.83-1.64-1.53-1.03-2.4-1.57-1.67-1.17-2.4-1.88-1.34-1.56-1.83-2.53-0.73-2.16-0.73-3.55c0-1.63 0.3-3.18 0.89-4.65 0.59-1.46 1.47-2.74 2.64-3.84s2.63-1.97 4.39-2.61 3.82-0.97 6.19-0.97c1.08 0 2.13 0.04 3.16 0.13s2.03 0.24 3 0.45l-1.67 6.37zm11.07 21.9c0.63 0.85 1.78 1.28 3.46 1.28 0.84 0 1.7-0.1 2.57-0.31s1.7-0.5 2.47-0.89l0.37 6.06c-1.01 0.38-2.18 0.72-3.5 1.02-1.32 0.29-2.65 0.44-3.97 0.44-1.74 0-3.23-0.22-4.46-0.65-1.24-0.44-2.25-1.04-3.03-1.83s-1.36-1.74-1.72-2.87c-0.37-1.13-0.55-2.39-0.55-3.79 0-2.47 0.36-4.79 1.07-6.97s1.73-4.07 3.05-5.69 2.93-2.9 4.83-3.84 4.03-1.41 6.4-1.41c0.94 0 1.93 0.09 2.98 0.26 1.04 0.17 2.02 0.44 2.92 0.78l-2.25 5.95c-1.33-0.63-2.67-0.94-4.04-0.94s-2.41 0.32-3.35 0.97c-0.94 0.64-1.73 1.46-2.36 2.45s-1.09 2.1-1.39 3.32-0.45 2.4-0.45 3.55c0 1.22 0.31 2.25 0.94 3.11zm38.63-10.94-3.45 17.96h-7.05l3.13-16.19c0.28-1.5 0.3-2.57 0.08-3.21-0.23-0.64-0.72-0.96-1.49-0.96s-1.65 0.43-2.56 1.28-1.78 1.94-2.61 3.26c-0.84 1.32-1.58 2.79-2.25 4.38-0.66 1.6-1.13 3.15-1.41 4.65l-1.25 6.79h-7.05l7.26-38.12h7.05l-1.98 10.65c-0.21 1.18-0.54 2.48-0.99 3.89s-1.06 3.11-1.83 5.09l0.1 0.05c0.59-1.08 1.25-2.12 1.98-3.11s1.54-1.85 2.43-2.58 1.84-1.31 2.87-1.75c1.03-0.43 2.15-0.65 3.37-0.65s2.3 0.21 3.13 0.63c0.84 0.42 1.48 1.01 1.93 1.78s0.72 1.67 0.81 2.71 0 2.19-0.23 3.45zm24.12 17.96-1.25-10.23c-0.11-0.9-0.19-1.85-0.26-2.85-0.07-0.99-0.1-2.05-0.1-3.16h-0.05c-0.17 0.38-0.47 1.02-0.89 1.9-0.42 0.89-0.89 1.89-1.41 3s-1.08 2.28-1.67 3.5-1.14 2.37-1.64 3.45-0.95 2.02-1.33 2.82-0.64 1.32-0.78 1.57h-7.15l-2.51-23.91-0.21-2.04h7.41l0.7 8.77c0.1 1.29 0.19 2.59 0.27 3.92 0.08 1.32 0.14 2.66 0.17 4.02h0.05c0.14-0.31 0.4-0.9 0.78-1.75s0.84-1.83 1.36-2.95c0.52-1.11 1.08-2.3 1.67-3.58 0.59-1.27 1.16-2.48 1.7-3.63s1.01-2.15 1.41-3 0.69-1.45 0.86-1.8h6.74l1.04 8.77c0.17 1.46 0.3 2.85 0.37 4.18 0.07 1.32 0.14 2.59 0.21 3.81h0.05c0.17-0.42 0.47-1.11 0.89-2.06 0.42-0.96 0.91-2.04 1.46-3.26 0.56-1.22 1.14-2.51 1.75-3.86 0.61-1.36 1.17-2.63 1.7-3.81 0.52-1.18 0.98-2.22 1.38-3.11s0.67-1.47 0.81-1.75l6.84 1.93-12.43 25.12h-7.94zm43.75-17.86c-0.45 2.37-0.88 4.6-1.28 6.68s-0.76 4.05-1.07 5.87c-0.31 1.83-0.61 3.6-0.89 5.3h-6.95c0.24-1.01 0.55-2.12 0.91-3.34 0.37-1.22 0.83-2.64 1.38-4.28h-0.1c-0.52 0.94-1.14 1.9-1.85 2.87s-1.51 1.85-2.4 2.64c-0.89 0.78-1.85 1.43-2.9 1.93-1.04 0.5-2.18 0.76-3.39 0.76-2.02 0-3.56-0.65-4.62-1.96-1.06-1.3-1.59-3.37-1.59-6.19 0-2.47 0.34-4.85 1.02-7.13s1.71-4.29 3.08-6.03c1.38-1.74 3.12-3.13 5.22-4.18 2.11-1.04 4.58-1.57 7.44-1.57 1.6 0 3.2 0.07 4.8 0.21s3.17 0.35 4.7 0.63c-0.56 2.82-1.06 5.41-1.51 7.78zm18.59-1.33c-1.08 0.57-2.07 1.49-2.98 2.74s-1.73 2.8-2.48 4.65-1.33 3.92-1.75 6.21l-1.04 5.59h-7.05l2.61-13.58c0.17-0.87 0.37-1.85 0.57-2.95 0.21-1.1 0.41-2.2 0.6-3.32 0.19-1.11 0.38-2.21 0.57-3.29s0.34-2.02 0.44-2.82h6.84c-0.17 0.97-0.43 2.04-0.76 3.19s-0.79 2.54-1.38 4.18h0.1c0.66-1.32 1.35-2.52 2.06-3.58s1.5-1.94 2.35-2.64 1.76-1.2 2.72-1.51 2.06-0.37 3.32-0.16l-1.51 6.89c-1.08-0.31-2.16-0.18-3.24 0.39zm24.44-1.64-11.59 14.31c0.24 0 0.57 0 0.99-0.03 0.42-0.02 0.87-0.03 1.36-0.03h6.73l-1.25 6.58h-18.22l0.99-5.12 11.8-14.52c-0.52 0.04-0.96 0.06-1.3 0.08-0.35 0.02-0.92 0.03-1.72 0.03h-5.8l1.25-6.42h17.8zm23.39 20.83-1.25-10.23c-0.1-0.9-0.19-1.85-0.26-2.85-0.07-0.99-0.1-2.05-0.1-3.16h-0.05c-0.17 0.38-0.47 1.02-0.89 1.9-0.42 0.89-0.89 1.89-1.41 3s-1.08 2.28-1.67 3.5-1.14 2.37-1.64 3.45-0.95 2.02-1.33 2.82-0.64 1.32-0.78 1.57h-7.15l-2.51-23.91-0.21-2.04h7.41l0.7 8.77c0.1 1.29 0.19 2.59 0.28 3.92 0.08 1.32 0.14 2.66 0.17 4.02h0.05c0.14-0.31 0.4-0.9 0.78-1.75s0.84-1.83 1.36-2.95c0.52-1.11 1.08-2.3 1.67-3.58 0.59-1.27 1.16-2.48 1.7-3.63s1.01-2.15 1.41-3 0.69-1.45 0.86-1.8h6.74l1.04 8.77c0.17 1.46 0.3 2.85 0.37 4.18 0.07 1.32 0.14 2.59 0.21 3.81h0.05c0.17-0.42 0.47-1.11 0.89-2.06 0.42-0.96 0.9-2.04 1.46-3.26s1.14-2.51 1.75-3.86c0.61-1.36 1.17-2.63 1.7-3.81 0.52-1.18 0.98-2.22 1.38-3.11s0.67-1.47 0.81-1.75l6.84 1.93-12.43 25.12h-7.94zm43.75-17.86c-0.45 2.37-0.88 4.6-1.28 6.68-0.4 2.09-0.76 4.05-1.07 5.87-0.31 1.83-0.61 3.6-0.89 5.3h-6.94c0.24-1.01 0.55-2.12 0.91-3.34 0.37-1.22 0.83-2.64 1.38-4.28h-0.1c-0.52 0.94-1.14 1.9-1.85 2.87s-1.51 1.85-2.4 2.64-1.85 1.43-2.9 1.93c-1.04 0.5-2.18 0.76-3.39 0.76-2.02 0-3.56-0.65-4.62-1.96-1.06-1.3-1.59-3.37-1.59-6.19 0-2.47 0.34-4.85 1.02-7.13s1.71-4.29 3.08-6.03c1.38-1.74 3.12-3.13 5.22-4.18 2.11-1.04 4.59-1.57 7.44-1.57 1.6 0 3.2 0.07 4.8 0.21s3.17 0.35 4.7 0.63c-0.56 2.82-1.06 5.41-1.51 7.78zm3.29 17.86 7.26-38.12h7.05l-7.26 38.12zm37.28-9.35c-0.14 0.66-0.28 1.41-0.42 2.24-0.14 0.84-0.29 1.67-0.45 2.51s-0.3 1.65-0.44 2.46c-0.14 0.8-0.26 1.51-0.37 2.14h-6.94c0.17-1.01 0.45-2.12 0.83-3.34s0.85-2.64 1.41-4.28h-0.1c-0.52 0.94-1.14 1.9-1.85 2.87s-1.52 1.85-2.4 2.64c-0.89 0.78-1.85 1.43-2.9 1.93-1.04 0.5-2.18 0.76-3.39 0.76-2.02 0-3.56-0.65-4.62-1.96-1.06-1.3-1.59-3.37-1.59-6.19 0-2.47 0.34-4.85 1.02-7.13s1.71-4.29 3.09-6.03 3.12-3.13 5.23-4.18c2.11-1.04 4.6-1.57 7.46-1.57 0.38 0 0.78 0.02 1.18 0.05 0.4 0.04 0.86 0.09 1.39 0.16l2.25-11.85h7.1l-5.48 28.77z"/>
 </g>
 <g transform="translate(0 -4.155)" fill="#fff">
  <path d="m38.12 51.06c-2.37 0-4.43 0.32-6.19 0.97-1.76 0.64-3.22 1.51-4.39 2.61s-2.04 2.38-2.64 3.84c-0.59 1.46-0.89 3.01-0.89 4.65 0 1.39 0.24 2.58 0.73 3.55s1.1 1.82 1.83 2.53 1.53 1.34 2.4 1.88 1.67 1.06 2.4 1.57 1.34 1.05 1.83 1.64 0.73 1.29 0.73 2.09c0 1.5-0.55 2.65-1.65 3.47s-2.72 1.23-4.88 1.23c-0.94 0-1.89-0.1-2.85-0.29s-1.87-0.45-2.74-0.76l-1.78 6.79c0.97 0.21 2.07 0.38 3.29 0.52s2.42 0.21 3.6 0.21c2.19 0 4.19-0.32 6-0.97 1.81-0.64 3.38-1.53 4.7-2.66s2.35-2.45 3.08-3.94c0.73-1.5 1.1-3.12 1.1-4.86 0-1.43-0.24-2.64-0.73-3.63s-1.11-1.85-1.85-2.58c-0.75-0.73-1.56-1.38-2.43-1.93-0.87-0.56-1.68-1.1-2.43-1.64s-1.37-1.11-1.85-1.71c-0.49-0.61-0.73-1.32-0.73-2.15 0-1.11 0.47-2.09 1.41-2.96s2.49-1.3 4.65-1.3c0.73 0 1.52 0.06 2.38 0.18 0.85 0.12 1.64 0.32 2.38 0.6l1.67-6.37c-0.97-0.21-1.98-0.36-3-0.45-1.03-0.09-2.08-0.13-3.16-0.13z"/>
  <path d="m54.57 69.94c0.63-0.99 1.42-1.81 2.36-2.45s2.06-0.97 3.35-0.97c1.36 0 2.71 0.31 4.04 0.94l2.25-5.95c-0.91-0.35-1.88-0.61-2.92-0.78s-2.04-0.26-2.98-0.26c-2.37 0-4.5 0.47-6.4 1.41s-3.51 2.22-4.83 3.84-2.34 3.52-3.05 5.69c-0.71 2.18-1.07 4.5-1.07 6.97 0 1.39 0.18 2.66 0.55 3.79s0.94 2.09 1.72 2.87 1.79 1.39 3.03 1.83c1.23 0.43 2.72 0.65 4.46 0.65 1.32 0 2.65-0.15 3.97-0.44 1.32-0.3 2.49-0.63 3.5-1.02l-0.37-6.06c-0.77 0.38-1.59 0.68-2.47 0.89s-1.73 0.31-2.57 0.31c-1.68 0-2.83-0.43-3.46-1.28s-0.94-1.89-0.94-3.11c0-1.15 0.15-2.33 0.45-3.55s0.76-2.32 1.39-3.32z"/>
  <path d="m91.74 62.81c-0.45-0.77-1.1-1.36-1.93-1.78-0.84-0.42-1.88-0.63-3.13-0.63s-2.34 0.22-3.37 0.65c-1.03 0.44-1.98 1.02-2.87 1.75s-1.7 1.59-2.43 2.58-1.39 2.03-1.98 3.11l-0.1-0.05c0.77-1.98 1.38-3.68 1.83-5.09s0.78-2.71 0.99-3.89l1.98-10.65h-7.05l-7.26 38.12h7.05l1.25-6.79c0.28-1.5 0.75-3.04 1.41-4.65 0.66-1.6 1.41-3.06 2.25-4.38s1.71-2.41 2.61-3.26 1.76-1.28 2.56-1.28 1.26 0.32 1.49 0.96 0.2 1.71-0.08 3.21l-3.13 16.19h7.05l3.45-17.96c0.24-1.25 0.32-2.4 0.23-3.45-0.09-1.04-0.36-1.95-0.81-2.71z"/>
  <path d="m129.96 59.88c-0.14 0.28-0.41 0.86-0.81 1.75s-0.86 1.92-1.38 3.11c-0.52 1.18-1.09 2.46-1.7 3.81-0.61 1.36-1.19 2.64-1.75 3.86s-1.05 2.31-1.46 3.26c-0.42 0.96-0.71 1.64-0.89 2.06h-0.05c-0.07-1.22-0.14-2.49-0.21-3.81s-0.19-2.71-0.37-4.18l-1.04-8.77h-6.74c-0.17 0.35-0.46 0.95-0.86 1.8s-0.87 1.85-1.41 3-1.11 2.36-1.7 3.63-1.15 2.46-1.67 3.58-0.98 2.1-1.36 2.95-0.64 1.44-0.78 1.75h-0.05c-0.03-1.36-0.09-2.7-0.17-4.02s-0.17-2.63-0.27-3.92l-0.7-8.77h-7.41l0.21 2.04 2.51 23.91h7.15c0.14-0.24 0.4-0.77 0.78-1.57s0.83-1.74 1.33-2.82 1.05-2.23 1.64-3.45 1.15-2.38 1.67-3.5 0.99-2.12 1.41-3c0.42-0.89 0.71-1.52 0.89-1.9h0.05c0 1.11 0.03 2.17 0.1 3.16s0.16 1.94 0.26 2.85l1.25 10.23h7.94l12.43-25.12-6.84-1.93z"/>
  <path d="m152.21 60.46c-2.85 0-5.33 0.52-7.44 1.57-2.11 1.04-3.85 2.44-5.22 4.18-1.38 1.74-2.4 3.75-3.08 6.03s-1.02 4.66-1.02 7.13c0 2.82 0.53 4.88 1.59 6.19s2.6 1.96 4.62 1.96c1.22 0 2.35-0.25 3.39-0.76 1.04-0.5 2.01-1.15 2.9-1.93s1.69-1.66 2.4-2.64 1.33-1.93 1.85-2.87h0.1c-0.56 1.64-1.02 3.06-1.38 4.28-0.37 1.22-0.67 2.33-0.91 3.34h6.95c0.28-1.7 0.57-3.47 0.89-5.3 0.31-1.83 0.67-3.79 1.07-5.87s0.83-4.32 1.28-6.68c0.45-2.37 0.96-4.96 1.51-7.78-1.53-0.28-3.1-0.49-4.7-0.63s-3.2-0.21-4.8-0.21zm1.2 7.57c-0.21 1.32-0.64 2.76-1.28 4.31s-1.38 2.99-2.22 4.33-1.73 2.45-2.69 3.34-1.85 1.33-2.69 1.33c-0.59 0-1.04-0.26-1.33-0.78-0.3-0.52-0.44-1.38-0.44-2.56 0-1.29 0.17-2.64 0.5-4.04 0.33-1.41 0.83-2.7 1.51-3.87s1.53-2.12 2.56-2.87 2.24-1.12 3.63-1.12c0.56 0 1.05 0.04 1.49 0.11 0.43 0.07 0.84 0.16 1.23 0.26l-0.26 1.57z"/>
  <path d="m183.53 60.46c-1.25-0.21-2.36-0.16-3.32 0.16-0.96 0.31-1.86 0.82-2.72 1.51-0.85 0.7-1.64 1.58-2.35 2.64s-1.4 2.26-2.06 3.58h-0.1c0.59-1.64 1.05-3.03 1.38-4.18s0.58-2.21 0.76-3.19h-6.84c-0.11 0.8-0.25 1.74-0.44 2.82s-0.38 2.18-0.57 3.29c-0.19 1.12-0.39 2.22-0.6 3.32s-0.4 2.08-0.57 2.95l-2.61 13.58h7.05l1.04-5.59c0.42-2.3 1-4.37 1.75-6.21s1.58-3.39 2.48-4.65c0.91-1.25 1.9-2.17 2.98-2.74s2.16-0.71 3.24-0.39l1.51-6.89z"/>
  <path d="m185.2 67.4h5.8c0.8 0 1.38 0 1.72-0.03 0.35-0.02 0.78-0.04 1.3-0.08l-11.8 14.52-0.99 5.12h18.22l1.25-6.58h-6.73c-0.49 0-0.94 0-1.36 0.03-0.42 0.02-0.75 0.03-0.99 0.03l11.59-14.31 1.04-5.12h-17.8z"/>
  <path d="m240.13 59.88c-0.14 0.28-0.41 0.86-0.81 1.75s-0.86 1.92-1.38 3.11c-0.52 1.18-1.09 2.46-1.7 3.81-0.61 1.36-1.19 2.64-1.75 3.86s-1.04 2.31-1.46 3.26c-0.42 0.96-0.71 1.64-0.89 2.06h-0.05c-0.07-1.22-0.14-2.49-0.21-3.81s-0.19-2.71-0.37-4.18l-1.04-8.77h-6.74c-0.17 0.35-0.46 0.95-0.86 1.8s-0.87 1.85-1.41 3-1.11 2.36-1.7 3.63-1.15 2.46-1.67 3.58-0.97 2.1-1.36 2.95c-0.38 0.85-0.64 1.44-0.78 1.75h-0.05c-0.03-1.36-0.09-2.7-0.17-4.02s-0.18-2.63-0.28-3.92l-0.7-8.77h-7.41l0.21 2.04 2.51 23.91h7.15c0.14-0.24 0.4-0.77 0.78-1.57s0.83-1.74 1.33-2.82 1.05-2.23 1.64-3.45 1.15-2.38 1.67-3.5 0.99-2.12 1.41-3c0.42-0.89 0.71-1.52 0.89-1.9h0.05c0 1.11 0.03 2.17 0.1 3.16s0.16 1.94 0.26 2.85l1.25 10.23h7.94l12.43-25.12-6.84-1.93z"/>
  <path d="m262.38 60.46c-2.85 0-5.33 0.52-7.44 1.57-2.11 1.04-3.85 2.44-5.22 4.18-1.38 1.74-2.4 3.75-3.08 6.03s-1.02 4.66-1.02 7.13c0 2.82 0.53 4.88 1.59 6.19s2.6 1.96 4.62 1.96c1.22 0 2.35-0.25 3.39-0.76 1.04-0.5 2.01-1.15 2.9-1.93s1.69-1.66 2.4-2.64c0.71-0.97 1.33-1.93 1.85-2.87h0.1c-0.56 1.64-1.02 3.06-1.38 4.28-0.37 1.22-0.67 2.33-0.91 3.34h6.94c0.28-1.7 0.57-3.47 0.89-5.3 0.31-1.83 0.67-3.79 1.07-5.87 0.4-2.09 0.83-4.32 1.28-6.68 0.45-2.37 0.96-4.96 1.51-7.78-1.53-0.28-3.1-0.49-4.7-0.63s-3.2-0.21-4.8-0.21zm1.2 7.57c-0.21 1.32-0.64 2.76-1.28 4.31s-1.38 2.99-2.22 4.33c-0.83 1.34-1.73 2.45-2.69 3.34s-1.85 1.33-2.69 1.33c-0.59 0-1.04-0.26-1.33-0.78-0.3-0.52-0.44-1.38-0.44-2.56 0-1.29 0.16-2.64 0.5-4.04 0.33-1.41 0.84-2.7 1.51-3.87 0.68-1.17 1.53-2.12 2.56-2.87s2.24-1.12 3.63-1.12c0.56 0 1.05 0.04 1.49 0.11s0.84 0.16 1.23 0.26l-0.26 1.57z"/>
  <path d="m280.7 86.93 7.26-38.12h-7.05l-7.26 38.12z"/>
  <path d="m307.06 60.67c-0.52-0.07-0.98-0.12-1.39-0.16-0.4-0.04-0.79-0.05-1.18-0.05-2.86 0-5.35 0.52-7.46 1.57-2.11 1.04-3.86 2.44-5.23 4.18-1.38 1.74-2.41 3.75-3.09 6.03s-1.02 4.66-1.02 7.13c0 2.82 0.53 4.88 1.59 6.19s2.6 1.96 4.62 1.96c1.22 0 2.35-0.25 3.39-0.76 1.05-0.5 2.01-1.15 2.9-1.93s1.69-1.66 2.4-2.64c0.71-0.97 1.33-1.93 1.85-2.87h0.1c-0.56 1.64-1.03 3.06-1.41 4.28s-0.66 2.33-0.83 3.34h6.94c0.11-0.63 0.23-1.34 0.37-2.14s0.29-1.62 0.44-2.46c0.16-0.84 0.3-1.67 0.45-2.51 0.14-0.84 0.28-1.58 0.42-2.24l5.48-28.77h-7.1l-2.25 11.85zm-1.38 7.36c-0.21 1.32-0.64 2.76-1.28 4.31-0.65 1.55-1.39 2.99-2.22 4.33-0.84 1.34-1.74 2.45-2.7 3.34s-1.86 1.33-2.7 1.33c-0.59 0-1.04-0.26-1.33-0.78-0.3-0.52-0.45-1.38-0.45-2.56 0-1.29 0.17-2.64 0.5-4.04 0.33-1.41 0.84-2.7 1.52-3.87s1.53-2.12 2.56-2.87 2.24-1.12 3.64-1.12c0.56 0 1.06 0.04 1.49 0.11 0.44 0.07 0.85 0.16 1.23 0.26l-0.26 1.57z"/>
 </g>
 <path d="m99.93 112.05c0-6.68 4.49-11.61 9.61-11.61 4.32 0 7.11 2.97 7.11 8 0 6.68-4.49 11.61-9.61 11.61-4.32 0-7.11-2.97-7.11-8zm12.65-3.35c0-3-1.14-4.82-3.23-4.82-2.69 0-5.34 3.53-5.34 7.92 0 3 1.14 4.82 3.23 4.82 2.69 0 5.34-3.53 5.34-7.92z" fill="#1d1d1b"/>
 <path d="m118.49 117.23c0-0.51 0.06-1.04 0.21-1.76l3.22-16.1h3.97l-3.27 16.25c-0.06 0.29-0.06 0.42-0.06 0.56 0 0.5 0.26 0.67 0.55 0.67 0.16 0 0.27 0 0.51-0.07l-0.12 2.94c-0.48 0.16-1.18 0.32-2.1 0.32-2.06 0-2.91-1.07-2.91-2.81z" fill="#1d1d1b"/>
 <path d="m137.33 103.97 0.89-4.59h3.97l-4.09 20.32h-3.23l0.06-1.88h-0.07c-1.31 1.37-3.01 2.23-4.5 2.23-2.53 0-4.06-1.88-4.06-5.28 0-5.48 3.71-9.81 7.69-9.81 1.3 0 2.38 0.69 2.94 1.75h0.07l0.34-2.74zm-2.17 10.71 1.03-5.1c-0.48-0.96-1.26-1.38-1.93-1.38-2 0-3.85 2.63-3.85 6.06 0 1.76 0.65 2.54 1.68 2.54 0.96 0 2.1-0.49 3.07-2.13z" fill="#1d1d1b"/>
 <path d="m144.52 105.31h3.97l-2.88 14.39h-3.97zm0.59-4.06c0-1.27 1.1-2.36 2.48-2.36 1.09 0 2.15 0.68 2.15 1.92 0 1.36-1.1 2.34-2.48 2.34-1.09 0-2.15-0.63-2.15-1.91z" fill="#1d1d1b"/>
 <path d="m157.75 104.96c3.44 0 4.69 2.41 4.69 5.4 0 1.36-0.51 2.84-0.73 3.28h-8.2c-0.1 2.39 1.34 3.41 3.24 3.41 0.89 0 1.93-0.5 2.64-1.01l1.41 2.5c-1.15 0.81-2.94 1.51-5.16 1.51-3.48 0-5.89-2.31-5.89-6.16 0-5.33 4.17-8.92 8-8.92zm1.32 6.25c0.07-0.29 0.13-0.67 0.13-1.07 0-1.16-0.49-2.13-1.93-2.13-1.37 0-2.77 1.09-3.43 3.2h5.24z" fill="#1d1d1b"/>
 <path d="m163.06 117.25 2.31-1.9c0.99 1.22 2.06 1.79 3.1 1.79s2-0.59 2-1.36c0-0.83-0.84-1.2-2.48-2.13-1.63-0.91-2.91-2.18-2.91-4 0-2.7 2.5-4.69 5.57-4.69 1.99 0 3.55 0.97 4.72 2.2l-2.16 2.06c-0.71-0.72-1.55-1.31-2.57-1.31-1.09 0-1.83 0.62-1.83 1.37 0 0.91 1.22 1.33 2.37 1.99 1.71 0.93 3.01 2.07 3.01 4.04 0 2.83-2.51 4.73-5.99 4.73-1.74 0-3.97-1-5.16-2.79z" fill="#1d1d1b"/>
 <path d="m176.28 117.88c0-1.4 1.15-2.91 2.84-2.91 1.24 0 2.04 0.93 2.04 2.17 0 1.45-1.14 2.9-2.83 2.9-1.24 0-2.05-0.88-2.05-2.16z" fill="#e00b19"/>
 <path d="m194.38 100.79h3.85l3.09 9.84 1.01 4.16h0.12c0.19-1.99 0.34-4.66 0.78-6.84l1.44-7.17h3.79l-3.78 18.91h-3.84l-3.08-9.83-0.97-4.19h-0.12c-0.19 2.1-0.4 4.61-0.84 6.78l-1.44 7.25h-3.79z" fill="#1d1d1b"/>
 <path d="m217.26 104.96c3.44 0 4.69 2.41 4.69 5.4 0 1.36-0.51 2.84-0.73 3.28h-8.2c-0.1 2.39 1.34 3.41 3.24 3.41 0.89 0 1.93-0.5 2.64-1.01l1.41 2.5c-1.15 0.81-2.94 1.51-5.16 1.51-3.48 0-5.89-2.31-5.89-6.16 0-5.33 4.17-8.92 8-8.92zm1.32 6.25c0.07-0.29 0.13-0.67 0.13-1.07 0-1.16-0.49-2.13-1.93-2.13-1.37 0-2.77 1.09-3.43 3.2h5.24z" fill="#1d1d1b"/>
 <path d="m235.31 119.7h-3.23l0.06-1.94h-0.12c-1.31 1.22-2.97 2.29-4.7 2.29-2.38 0-3.4-1.3-3.4-3.7 0-0.65 0.08-1.33 0.23-2.05l1.8-8.99h3.97l-1.7 8.49c-0.13 0.58-0.23 0.99-0.23 1.38 0 0.99 0.52 1.48 1.46 1.48 0.85 0 1.73-0.59 2.88-1.88l1.85-9.48h3.97l-2.83 14.39z" fill="#1d1d1b"/>
 <path d="m239.29 117.88c0-1.4 1.15-2.91 2.84-2.91 1.24 0 2.04 0.93 2.04 2.17 0 1.45-1.14 2.9-2.83 2.9-1.24 0-2.05-0.88-2.05-2.16z" fill="#e00b19"/>
 <path d="m257.39 100.79h11.21l-0.65 3.33h-7.28l-0.8 4.1h6.18l-0.65 3.34h-6.17l-1 4.8h7.52l-0.65 3.33h-11.49l3.78-18.91z" fill="#1d1d1b"/>
 <path d="m271.32 105.31h3.23l-0.06 1.93h0.12c1.41-1.22 3.02-2.28 4.85-2.28 2.38 0 3.4 1.3 3.4 3.7 0 0.65-0.08 1.33-0.23 2.05l-1.8 8.99h-3.97l1.7-8.49c0.13-0.58 0.23-0.99 0.23-1.38 0-0.99-0.52-1.48-1.46-1.48-0.89 0-1.77 0.59-3.02 1.88l-1.85 9.48h-3.97l2.83-14.39z" fill="#1d1d1b"/>
 <path d="m285.89 116.24c0-0.62 0.11-1.21 0.21-1.81l1.26-6.03h-1.92l0.59-2.93 2.12-0.16 1.21-3.76h3.33l-0.72 3.76h3.25l-0.6 3.1h-3.35l-1.26 6.18c-0.06 0.35-0.07 0.65-0.07 0.96 0 0.95 0.46 1.41 1.5 1.41 0.41 0 0.8-0.15 1.17-0.33l0.72 2.79c-0.76 0.29-1.9 0.64-3.38 0.64-2.9 0-4.08-1.6-4.08-3.81z" fill="#1d1d1b"/>
 <path d="m306.28 103.97 0.89-4.59h3.97l-4.09 20.32h-3.23l0.06-1.88h-0.07c-1.31 1.37-3.01 2.23-4.5 2.23-2.53 0-4.06-1.88-4.06-5.28 0-5.48 3.71-9.81 7.68-9.81 1.3 0 2.38 0.69 2.94 1.75h0.07zm-2.17 10.71 1.03-5.1c-0.48-0.96-1.26-1.38-1.93-1.38-2 0-3.85 2.63-3.85 6.06 0 1.76 0.66 2.54 1.68 2.54 0.96 0 2.1-0.49 3.07-2.13z" fill="#1d1d1b"/>
 <path d="m319.02 104.96c3.44 0 4.69 2.41 4.69 5.4 0 1.36-0.51 2.84-0.73 3.28h-8.2c-0.1 2.39 1.34 3.41 3.24 3.41 0.89 0 1.93-0.5 2.64-1.01l1.41 2.5c-1.15 0.81-2.93 1.51-5.16 1.51-3.48 0-5.89-2.31-5.89-6.16 0-5.33 4.17-8.92 8-8.92zm1.32 6.25c0.07-0.29 0.13-0.67 0.13-1.07 0-1.16-0.49-2.13-1.93-2.13-1.37 0-2.77 1.09-3.43 3.2h5.24z" fill="#1d1d1b"/>
 <path d="m325.41 114.11c0-4.98 3.72-9.16 8.47-9.16 1.81 0 3.13 0.88 3.86 1.78l-2.21 2.35c-0.58-0.61-1.1-0.93-1.91-0.93-2.29 0-4.16 2.67-4.16 5.89 0 1.76 0.81 2.82 2.44 2.82 0.97 0 1.67-0.46 2.29-0.93l1.66 2.45c-1.08 0.8-2.57 1.67-4.82 1.67-3.2 0-5.63-2.16-5.63-5.93z" fill="#1d1d1b"/>
 <path d="m341.91 99.365h3.97l-2.37 11.77h0.11l5.44-5.84h4.39l-5.87 6.29 3.41 8.1h-3.98l-2.18-5.8-2.33 2.34-0.71 3.46h-3.97l4.08-20.32z" fill="#1d1d1b"/>
 <path d="m360.72 104.96c3.44 0 4.69 2.41 4.69 5.4 0 1.36-0.51 2.84-0.73 3.28h-8.2c-0.1 2.39 1.34 3.41 3.24 3.41 0.89 0 1.93-0.5 2.64-1.01l1.41 2.5c-1.15 0.81-2.93 1.51-5.16 1.51-3.48 0-5.89-2.31-5.89-6.16 0-5.33 4.17-8.92 8-8.92zm1.32 6.25c0.07-0.29 0.13-0.67 0.13-1.07 0-1.16-0.49-2.13-1.93-2.13-1.37 0-2.77 1.09-3.43 3.2h5.24z" fill="#1d1d1b"/>
 <path d="m369.51 105.31h3.23l-0.06 1.93h0.12c1.41-1.22 3.02-2.28 4.85-2.28 2.38 0 3.4 1.3 3.4 3.7 0 0.65-0.08 1.33-0.23 2.05l-1.8 8.99h-3.97l1.7-8.49c0.13-0.58 0.23-0.99 0.23-1.38 0-0.99-0.52-1.48-1.46-1.48-0.89 0-1.77 0.59-3.02 1.88l-1.85 9.48h-3.97l2.83-14.39z" fill="#1d1d1b"/>
 <path d="m382.96 117.88c0-1.4 1.15-2.91 2.84-2.91 1.24 0 2.04 0.93 2.04 2.17 0 1.45-1.14 2.9-2.83 2.9-1.24 0-2.06-0.88-2.06-2.16z" fill="#e00b19"/>
 <path d="m196.69 15.005c-0.4 0-0.8 0.02-1.2 0.05 1.06-7.28-3.64-13.84-9.93-14.87-7.09-1.16-13.31 3.2-14.52 11.24-0.56-7.17-6.12-11.26-12.33-11.42-7.06-0.19-12.38 6-12.38 13.34-0.29-0.02-0.59-0.03-0.88-0.03-7.38 0-13.37 5.99-13.37 13.37s5.99 13.37 13.37 13.37c5.9 0 10.91-3.83 12.69-9.14s0 0 0 0c1.5 5.74 6.72 9.98 12.94 9.98s10.92-3.83 12.69-9.14 0 0 0 0c1.5 5.74 6.72 9.98 12.94 9.98 7.38 0 13.37-5.99 13.37-13.37s-5.99-13.37-13.37-13.37zm-51.25 23c-6.25 0-11.32-5.07-11.32-11.32s5.07-11.32 11.32-11.32 11.32 5.07 11.32 11.32-5.07 11.32-11.32 11.32zm8.83-21.79c-3.05-2.43-5.87-2.63-5.9-2.54-0.31-6.7 4.67-11.9 10.43-11.69 5.57 0.2 10.45 3.77 10.43 12.04 0 0-1.58 0.12-3.15 0.71-2.06 0.78-3.63 1.87-5 3.3-1.5 1.57-2.58 2.94-2.58 2.94s-2.13-3.08-4.24-4.76zm16.76 22.64c-6.25 0-11.32-5.07-11.32-11.32s5.07-11.32 11.32-11.32 11.32 5.07 11.32 11.32-5.07 11.32-11.32 11.32zm10.61-20.47c-1.23-1.32-2.61-2.31-4.32-3.21-1.79-0.94-4.38-1.53-4.38-1.53-0.2-6.66 4.35-11.66 10.34-11.66s10.95 4.98 10.22 12.57c0 0-2.61 0.42-5.19 2.24-3.22 2.27-4.23 4.79-4.23 4.79s-1.29-1.97-2.44-3.21zm15.05 21.32c-6.25 0-11.32-5.07-11.32-11.32s5.07-11.32 11.32-11.32 11.32 5.07 11.32 11.32-5.07 11.32-11.32 11.32z" fill="#fff"/>
 <g transform="translate(0 -4.155)" fill="#e30613">
  <path transform="rotate(-45 145.45 30.844)" d="m156.77 30.84a11.32 11.32 0 0 1-11.32 11.32 11.32 11.32 0 0 1-11.32-11.32 11.32 11.32 0 0 1 11.32-11.32 11.32 11.32 0 0 1 11.32 11.32z"/>
  <path transform="rotate(-45 171.05 31.69)" d="m182.36 31.69a11.32 11.32 0 0 1-11.32 11.32 11.32 11.32 0 0 1-11.32-11.32 11.32 11.32 0 0 1 11.32-11.32 11.32 11.32 0 0 1 11.32 11.32z"/>
  <path transform="rotate(-13.28 196.73 32.522)" d="m208.01 32.53a11.32 11.32 0 0 1-11.32 11.32 11.32 11.32 0 0 1-11.32-11.32 11.32 11.32 0 0 1 11.32-11.32 11.32 11.32 0 0 1 11.32 11.32z"/>
  <path d="m166.1 18.89c1.56-0.59 3.15-0.71 3.15-0.71 0.02-8.26-4.86-11.84-10.43-12.04-5.76-0.21-10.74 4.99-10.43 11.69 0.03-0.09 2.85 0.12 5.9 2.54 2.11 1.68 4.24 4.76 4.24 4.76s1.08-1.37 2.58-2.94c1.37-1.43 2.94-2.52 5-3.3z"/>
  <path d="m188.32 20.95c2.59-1.82 5.19-2.24 5.19-2.24 0.73-7.59-4.14-12.57-10.22-12.57s-10.54 5-10.34 11.66c0 0 2.59 0.58 4.38 1.53 1.71 0.9 3.1 1.89 4.32 3.21 1.15 1.24 2.44 3.21 2.44 3.21s1.01-2.52 4.23-4.79z"/>
 </g>
</svg>
