<svg version="1.1" viewBox="0 0 800 147.42" xmlns="http://www.w3.org/2000/svg">
 <g transform="matrix(.78125 0 0 .78125 -9.05e-5 -3.5155e-5)">
  <g transform="matrix(.29776 0 0 .29776 355.78 -37.283)">
   <path d="m1901.5 683.08c0 41.67-34 75.875-75.66 75.875h-2944.9c-41.67 0-75.75-34.205-75.75-75.875v-482.2c0-41.669 34.08-75.666 75.73-75.666h2944.9c41.67 0 75.67 33.999 75.67 75.666z" fill="#fff" stroke-width="20.731"/>
   <path d="m2172.5 236.86h-317.35c-39.44 0-71.64 32.209-71.64 71.645v259.75c0 39.229 32.2 71.44 71.64 71.44h317.35c39.44 0 71.64-32.21 71.64-71.44v-259.75c0-39.436-32.2-71.645-71.64-71.645" fill="#f10a0a" stroke-width="20.647"/>
   <path d="m1835.1 289.69c65.2-0.08 130.4 0 195.6-0.04 20.02 72.386 39.8 144.85 59.92 217.2 0.67 0.04 1.99 0.09 2.66 0.133 20.78-71.986 40.02-144.43 60.7-216.44 13.05 0.12 26.13 0.03 39.21 0.05-27.94 98.4-55.67 196.88-83.65 295.27-11.53-0.05-23.04 0.04-34.54-0.04-24.58-86.253-49.12-172.49-73.91-258.68-19.04 0.09-38.07 0.01-57.09 0.04 0.13 86.226-0.36 172.45 0.3 258.67h-39.84v-258.65c-23.1-0.04-46.21 0-69.32-0.01v-37.493z" fill="#fff" stroke-width="1.3333"/>
   <path d="m830.26 237.14c20.853-6.293 44.08-6.547 64.24 2.28 20.733 8.76 36.96 27.68 41.84 49.72 6.226 27.933-3.04 57.973-21.387 79.506-18.813 22.374-44.866 36.92-70.96 49.2l72.72 83.64 71.987-112.23h72.025l-6.13 34.686h-48.31l-68.132 104.09 78.852 92.106-30.345 25.973-74.894-88.173c-14.346 21.36-30.373 41.987-50.439 58.293-16.734 13.72-36.587 23.827-57.84 28.254-25.6 5.28-53.307 4.413-77.147-7.147-21.973-10.28-39.466-29.667-47.373-52.6-8.827-25.533-6.707-54.28 4.067-78.893 9.346-21.44 25.12-39.493 43.2-54.066 19.146-15.387 40.773-27.387 63.053-37.614-15.814-17.12-33-35.28-37.84-58.893-4.134-22.747 1.453-46.693 12.92-66.533 14.466-24.653 38.533-43.413 65.893-51.6m-16.76 44.547c-17.12 13.32-27.48 35.293-25.587 57.039 1.067 11.587 6.84 22.107 14.094 30.974 7.213 8.813 14.906 17.213 22.826 25.413 9.48-4.413 18.974-8.84 28.12-13.973 16.4-9.334 32.453-20.96 42.133-37.547 10.734-18.347 11.24-43.626-2.413-60.64-8.507-10.746-22.226-16.4-35.733-16.64-15.707-0.186-31.2 5.64-43.44 15.374m-45.28 178.61c-18.573 11.654-35.533 27.107-45.133 47.12-10.387 21.747-12.787 48.48-1.453 70.36 10.76 21.947 35.146 35.507 59.359 34.773 21.96 0.707 43.827-7.16 60.76-21.053 19.867-16.213 34.32-37.84 47.96-59.266l-80.24-92.68c-14.186 5.987-28.2 12.533-41.253 20.746z" fill="#f10a0a" stroke-width="1.3333"/>
   <g transform="matrix(1.3333 0 0 1.3333 -1274.9 791.11)" fill="#f10a0a" stroke-width="15.396">
    <path d="m1821.9-114.17-85.6-300.23h40.8l61.89 224.02 62.36-224.02h40.33l-84.98 300.23z"/>
    <path d="m2004.7-114.17h-40.8v-300.23h40.8z"/>
    <path d="m2083-153.43v-95.15h105.62v-38.953h-104.08v-89.145h126.1v-38.491h-128.1l-40.8-0.154v301.15h169.21v-39.261z"/>
    <path d="m602.99-114.17h-40.85v-300.23h40.85z"/>
    <path d="m677.99-153.43v-95.15h105.71v-38.953h-104.14v-89.145h126.05v-38.491h-128.05l-40.83-0.154v301.15h169.31v-39.261z"/>
    <path d="m1300.5-153.43v-95.15h105.77v-38.953h-104.23v-89.145h126.1v-38.491h-128.1l-40.8-0.154v301.15h169.36v-39.261z"/>
    <path d="m499.19-176.37c-0.1 0.154-0.12 0.308-0.2 0.616-1.39 3.387-5.84 11.085-10.81 15.242-11.56 10.316-21.83 13.241-34.18 13.241-12.33 0-22.65-2.926-34.18-13.241-4.94-4.157-9.42-11.855-10.79-15.242-1.23-3.079-2.76-8.468-2.76-14.011v-149.04c0-5.543 1.53-10.931 2.76-14.011 1.39-3.387 5.82-11.085 10.81-15.396 11.55-10.162 21.85-13.087 34.16-13.087 12.35 0 22.65 2.925 34.17 13.087 3.39 2.925 6.5 7.39 8.62 11.085l41.37-14.011c-3.77-7.39-10.92-18.63-18.77-25.25-22.06-19.553-41.78-25.25-65.34-25.25-23.6 0-43.31 5.697-65.39 25.25-9.53 8.006-18.01 22.941-20.69 29.407-2.36 5.697-5.27 16.166-5.27 26.636 0 14.165-0.1 137.95-0.1 151.96 0 10.624 2.94 21.093 5.28 26.79 2.64 6.466 11.19 21.247 20.69 29.407 22.05 19.399 41.79 25.25 65.36 25.25 23.59 0 43.29-5.851 65.37-25.25 9.53-8.16 18.01-22.941 20.69-29.407 0.11-0.308 0.22-0.616 0.36-0.924zm-51.82 69.438h0.12zm0 0h-0.1z"/>
    <path d="m1194.6-176.37c0 0.154-0.15 0.308-0.15 0.616-1.54 3.387-5.85 11.085-10.93 15.242-11.55 10.316-21.87 13.241-34.18 13.241-12.32 0-22.58-2.926-34.12-13.241-4.99-4.157-9.42-11.855-10.81-15.242-1.23-3.079-2.76-8.468-2.76-14.011v-149.04c0-5.543 1.56-10.931 2.78-14.011 1.37-3.387 5.83-11.085 10.8-15.396 11.55-10.162 21.77-13.087 34.25-13.087 12.31 0 22.63 2.925 34.18 13.087 3.23 2.925 6.46 7.39 8.46 11.085l41.42-14.011c-3.7-7.39-10.93-18.63-18.79-25.25-22.01-19.553-41.72-25.25-65.28-25.25-23.63 0-43.34 5.697-65.41 25.25-9.52 8.006-18.03 22.941-20.7 29.407-2.32 5.697-5.28 16.166-5.28 26.636 0 14.165-0.1 137.95-0.1 151.96 0 10.624 2.91 21.093 5.28 26.79 2.65 6.466 11.18 21.247 20.68 29.407 22.08 19.399 41.82 25.25 65.34 25.25 23.56 0 43.27-5.851 65.44-25.25 9.39-8.16 18.01-22.941 20.63-29.407l0.46-0.924zm-51.89 69.438h0.16zm0.16 0h-0.16z"/>
    <path d="m183.35-183.76-41.247 13.857c2.202 7.082 5.404 13.395 5.527 13.703 5.605 10.47 11.547 16.936 20.878 25.25 22.941 20.323 52.222 23.864 75.832 23.864 23.64 0 43.86-5.851 65.95-25.404 9.56-8.006 18.45-24.48 21.13-30.947 2.37-5.851 6.13-18.63 6.19-29.099 0.21-33.718-12.24-51.116-31.3-69.438-19.08-18.168-63.84-37.259-82.38-48.807-15.18-9.546-17.39-22.941-18.19-30.177 0-5.543 1.52-11.085 2.75-14.011 1.4-3.387 5.87-11.239 10.84-15.396 11.55-10.162 21.85-13.241 34.23-13.241 12.34 0 22.64 3.079 34.21 13.241 3.4 2.925 6.53 7.39 8.62 11.085l41.43-14.011c-3.77-7.544-10.95-18.63-18.77-25.404-22.11-19.553-41.87-25.25-65.48-25.25-23.6 0-43.35 5.697-65.463 25.25-9.531 8.16-18.06 22.941-20.724 29.561-2.356 5.697-5.297 16.166-5.297 26.636 0 14.011 2.448 41.878 29.238 60.354 26.826 18.63 67.156 38.953 80.396 48.961 13.29 10.008 21.61 19.399 21.33 41.416-0.1 5.543-1.53 11.085-2.77 14.011-1.37 3.387-5.76 11.239-10.83 15.396-9.19 7.544-21.95 14.473-40.78 14.473-14.37 0-30.15-6.005-37.431-12.471-5.866-4.465-14.365-15.396-17.891-23.403m60.772-238.95h0.11zm-19.85 314.7h-0.1z"/>
    <path d="m986.09-414.4v214.78l-110.38-214.32v-0.462h-40.83v300.23h40.83v-213.86l110.38 212.47v1.386h40.86v-300.23z"/>
   </g>
  </g>
 </g>
</svg>
