<svg version="1.1" viewBox="0 0 1000 466.17" xmlns="http://www.w3.org/2000/svg">
 <g transform="translate(-1920 -3146.2)">
  <g fill="#529ee9">
   <path d="m2752 3270.1 36.152 1e-4v-19.453c0-13.21-4.036-28.091-15.318-40.303-10.6-11.236-26.282-16.93-41.989-16.93-20.69 0-34.065 8.2203-42.472 16.415-10.807 11.203-17.049 23.973-17.049 43.708v140.39c0 18.594 5.6586 31.074 16.192 42.39 12.066 11.566 25.617 16.063 44.247 16.063 19.729 0 32.175-9.361 40.363-17.111 9.6877-9.8525 16.027-22.808 16.027-41.343v-15.277h-36.152v15.675c0 12.232-7.5841 21.75-21.864 21.75-6.457 0-12.141-1.5105-16.561-6.3368-4.2258-4.6138-6.1685-13.25-6.1685-17.462v-135.84c0-9.1431 4.0102-18.665 7.2067-21.496 3.9424-3.5159 8.3541-5.0895 15.684-5.0895 13.802 0 21.703 11.56 21.703 25.347z"/>
   <g fill-rule="evenodd">
    <path d="m2386.2 3450.7h107.77v-36.321h-68.505v-73.517h54.302v-36.759h-54.302v-70.175h68.505v-37.759h-107.77l-15.873 16.873v223.89z" Googl="true"/>
    <path d="m2519 3450.7v-254.53h49.29l41.402 154.98v-154.98h35.457v254.97h-40.936l-49.655-185.57v184.19z"/>
    <path d="m2812.2 3450.7h107.77v-36.321h-68.505v-73.517h54.302v-36.758h-54.302v-70.176h68.505v-37.758h-107.77z"/>
   </g>
   <path d="m1920 3612.4v-357.57l108.59-108.59h357.57v359.64l-106.53 106.53z"/>
  </g>
  <g fill="#fff">
   <path d="m2038.9 3378.7h35.922v6.9244c0 4.0004-1.5592 30.49 26.376 30.49 9.3277 0 14.815-2.0955 19.457-6.4469 3.8864-3.7137 7.0123-8.7349 7.0123-32.226 0-15.543-0.7418-23.762-6.5994-29.864-2.8732-2.9636-10.065-6.5098-21.471-10.993l-23.742-9.8779c-7.8263-3.6848-14.557-8.114-20.552-14.278-9.0012-9.564-14.522-25.374-14.522-48.718 0-20.367 5.623-41.061 19.531-54.245 10.376-9.5337 23.055-16.004 43.093-16.004 20.667 0 34.487 8.6686 44.025 17.996 11.04 12.63 15.138 24.512 15.138 38.527v20.123h-36.132v-10.735c0-11.601-3.5114-29.484-24.725-29.484-15.896 0-24.582 10.004-24.582 33.496 0 10.854 0.5596 17.012 3.9896 22.295 3.4299 5.2835 10.086 7.9179 15.346 10.661l29.607 11.612c9.9798 4.0921 17.142 8.1838 23.073 14.181 10.325 10.557 14.93 25.149 14.93 54.922 0 25.564-4.8797 46.376-19.059 60.278-10.099 9.2758-22.992 15.088-43.34 15.088-20.721 0-34.75-7.4168-45.847-18.391s-16.929-25.843-16.929-40.877z"/>
   <rect x="2319.3" y="3196.2" width="35.922" height="254.53"/>
   <path d="m2262.3 3270.1 36.152 1e-4v-19.453c0-13.21-4.036-28.091-15.318-40.303-10.6-11.236-26.282-16.93-41.989-16.93-20.69 0-34.065 8.2203-42.472 16.415-10.807 11.203-17.05 23.973-17.05 43.708v140.39c0 18.594 5.6587 31.074 16.192 42.39 12.066 11.566 25.617 16.063 44.247 16.063 19.729 0 32.175-9.361 40.363-17.111 9.6877-9.8525 16.027-22.808 16.027-41.343v-15.277h-36.152v15.675c0 12.232-7.5841 21.75-21.864 21.75-6.457 0-12.141-1.5105-16.561-6.3368-4.2258-4.6138-6.1686-13.25-6.1686-17.462v-135.84c0-9.1431 4.0103-18.665 7.2068-21.496 3.9424-3.5159 8.3541-5.0895 15.684-5.0895 13.802 0 21.703 11.56 21.703 25.347z"/>
  </g>
 </g>
</svg>
