<svg width="61.981mm" height="53.303mm" version="1.1" viewBox="0 0 61.981 53.303" xmlns="http://www.w3.org/2000/svg">
 <defs>
  <mask id="a" x="0" y="-307.295" width="368.545" height="203.974" maskUnits="userSpaceOnUse">
   <g filter="url(#b)">
    <polygon points="0 -103.32 0 -307.29 368.55 -307.29 368.55 -103.32" fill="#fff"/>
   </g>
  </mask>
  <filter id="b" x="0" y="-307.3" width="368.55" height="203.97" filterUnits="userSpaceOnUse">
   <feColorMatrix values="1 0 0 0 0  0 1 0 0 0  0 0 1 0 0  0 0 0 1 0"/>
  </filter>
 </defs>
 <g transform="translate(-85.841 -120.55)">
  <g fill="#e1ff00">
   <path transform="matrix(.061981 0 0 .061981 85.841 139.59)" d="m359.2-307.3h-277.35l-81.847 81.874v112.77c3.654 3.655 5.702 5.699 9.354 9.328h174.92v-40.229h174.92c3.654-3.658 5.699-5.705 9.352-9.362v-145.03c-3.649-3.647-5.693-5.693-9.351-9.352" mask="url(#a)"/>
   <g stroke-width=".061981">
    <path d="m133.5 135.68v-1e-3h-10.841l-6.2e-4 -4.9864h10.842c0.22654-0.22666 0.35317-0.3536 0.57971-0.58008v-8.989c-0.22617-0.22616-0.3528-0.35304-0.57971-0.57976h-17.19l-5.0731 5.0747 1.9e-4 15.253 5.0734 5.0746h17.189c0.2271-0.22598 0.35323-0.3531 0.57996-0.57908v-9.1064c-0.22561-0.22697-0.3528-0.35441-0.57989-0.58014z"/>
    <path d="m86.421 135.68c-0.22648 0.22636-0.35354 0.35354-0.5797 0.57995v9.1065c0.22642 0.22623 0.35323 0.35323 0.5797 0.57958h17.19l5.073-5.0744v-7.1053c-0.2263-0.22666-0.35336-0.35385-0.57977-0.58007h-10.842v2.4934h-10.842z"/>
    <path d="m133.5 148.45h-17.19l-5.0729 5.0748v19.748c0.22666 0.22635 0.3536 0.3531 0.57958 0.5797h10.03c0.22654-0.22641 0.35317-0.35329 0.5797-0.5797v-3.1608h11.074c0.22654-0.22654 0.35323-0.35354 0.5797-0.58002v-7.8592c-0.22623-0.22648-0.35298-0.35335-0.5797-0.57995h-11.074v-2.4937h11.074c0.22654-0.22636 0.35317-0.35354 0.57971-0.57996v-8.9888c-0.2266-0.2266-0.35317-0.35372-0.57983-0.58026"/>
    <path d="m147.82 121.13v24.243c-0.22667 0.22567-0.35304 0.35311-0.57983 0.57989h-10.03c-0.22685-0.22666-0.35323-0.35422-0.57996-0.57989v-24.243c0.22673-0.22698 0.35311-0.35323 0.57996-0.58008h10.03c0.22666 0.22691 0.35316 0.35316 0.57989 0.58008z"/>
    <path d="m147.82 149.03v24.243c-0.22672 0.22573-0.3531 0.3531-0.57982 0.58007h-10.03c-0.22666-0.22684-0.3531-0.3544-0.57983-0.58007v-24.243c0.2266-0.22678 0.3531-0.3531 0.57983-0.58001h10.03c0.22672 0.22685 0.3531 0.3531 0.57982 0.58001z"/>
   </g>
  </g>
 </g>
</svg>
