<svg xmlns="http://www.w3.org/2000/svg" width="234.259" height="201.46" viewBox="0 0 61.981 53.303">
    <defs>
        <mask maskUnits="userSpaceOnUse" x="0" y="-307.295" width="368.545" height="203.974" id="b">
            <path fill="#fff" d="M0-103.318v-203.976h368.549v203.976z" filter="url(#a)"/>
        </mask>
        <filter id="a" filterUnits="userSpaceOnUse" x="0" y="-307.295" width="368.545" height="203.974">
            <feColorMatrix values="1 0 0 0 0 0 1 0 0 0 0 0 1 0 0 0 0 0 1 0"/>
        </filter>
    </defs>
    <path d="M47.673 15.135H36.83v-4.989h10.845l.58-.58V.574l-.58-.58H30.478L25.404 5.07v15.258l5.075 5.076h17.194c.228-.226.354-.353.58-.58v-9.108c-.225-.227-.352-.355-.58-.58z"/>
    <path mask="url(#b)" d="M359.195-307.295H81.847L0-225.421v112.771c3.654 3.655 5.702 5.699 9.354 9.328h174.92v-40.229h174.92l9.352-9.362v-145.03c-3.649-3.647-5.693-5.693-9.351-9.352" transform="matrix(.062 0 0 .062 0 19.046)"/>
    <path d="M.58 15.135l-.58.58v9.11l.58.579h17.195l5.075-5.076v-7.107l-.58-.58H11.425v2.493H.58zM47.673 27.902H30.478l-5.075 5.076v19.754l.58.58h10.034l.58-.58V49.57h11.076l.58-.58v-7.862l-.58-.58H36.596v-2.494h11.077l.58-.58v-8.992l-.58-.58M62 .574v24.25l-.58.58H51.387l-.58-.58V.574l.58-.58H61.42l.58.58zM62 28.482v24.25l-.58.58H51.387l-.58-.58v-24.25l.58-.58H61.42l.58.58z"/>
</svg>
