<?xml version="1.0" encoding="UTF-8" standalone="no"?>
<!-- Created with Inkscape (http://www.inkscape.org/) -->

<svg
   xmlns:dc="http://purl.org/dc/elements/1.1/"
   xmlns:cc="http://creativecommons.org/ns#"
   xmlns:rdf="http://www.w3.org/1999/02/22-rdf-syntax-ns#"
   xmlns:svg="http://www.w3.org/2000/svg"
   xmlns="http://www.w3.org/2000/svg"
   xmlns:sodipodi="http://sodipodi.sourceforge.net/DTD/sodipodi-0.dtd"
   xmlns:inkscape="http://www.inkscape.org/namespaces/inkscape"
   width="61.980629mm"
   height="53.302536mm"
   viewBox="0 0 61.980629 53.302536"
   version="1.1"
   id="svg846"
   inkscape:version="0.92.3 (2405546, 2018-03-11)"
   sodipodi:docname="scifi.light.svg">
  <defs
     id="defs840">
    <mask
       maskUnits="userSpaceOnUse"
       x="0"
       y="-307.295"
       width="368.545"
       height="203.974"
       id="mask-6">
      <g
         id="g13"
         style="filter:url(#Adobe_OpacityMaskFilter)">
        <polygon
           id="path-5"
           points="0,-103.318 0,-307.294 368.549,-307.294 368.549,-103.318 "
           style="fill:#ffffff" />
      </g>
    </mask>
    <filter
       id="Adobe_OpacityMaskFilter"
       filterUnits="userSpaceOnUse"
       x="0"
       y="-307.29501"
       width="368.54501"
       height="203.974">
      <feColorMatrix
         type="matrix"
         values="1 0 0 0 0  0 1 0 0 0  0 0 1 0 0  0 0 0 1 0"
         id="feColorMatrix7" />
    </filter>
    <filter
       id="filter1410"
       filterUnits="userSpaceOnUse"
       x="0"
       y="-307.29501"
       width="368.54501"
       height="203.974">
      <feColorMatrix
         type="matrix"
         values="1 0 0 0 0  0 1 0 0 0  0 0 1 0 0  0 0 0 1 0"
         id="feColorMatrix1408" />
    </filter>
    <defs
       id="defs10">
      <filter
         height="203.974"
         width="368.54501"
         y="-307.29501"
         x="0"
         filterUnits="userSpaceOnUse"
         id="filter1457">
        <feColorMatrix
           id="feColorMatrix1455"
           values="1 0 0 0 0  0 1 0 0 0  0 0 1 0 0  0 0 0 1 0"
           type="matrix" />
      </filter>
    </defs>
    <mask
       id="mask1417"
       height="203.974"
       width="368.545"
       y="-307.295"
       x="0"
       maskUnits="userSpaceOnUse">
      <g
         style="filter:url(#Adobe_OpacityMaskFilter)"
         id="g1415">
        <polygon
           style="fill:#ffffff"
           points="0,-307.294 368.549,-307.294 368.549,-103.318 0,-103.318 "
           id="polygon1413" />
      </g>
    </mask>
  </defs>
  <sodipodi:namedview
     id="base"
     pagecolor="#ffffff"
     bordercolor="#666666"
     borderopacity="1.0"
     inkscape:pageopacity="0.0"
     inkscape:pageshadow="2"
     inkscape:zoom="2.2148437"
     inkscape:cx="61.371327"
     inkscape:cy="69.008661"
     inkscape:document-units="mm"
     inkscape:current-layer="layer1"
     showgrid="false"
     fit-margin-top="0"
     fit-margin-left="0"
     fit-margin-right="0"
     fit-margin-bottom="0"
     inkscape:window-width="1920"
     inkscape:window-height="983"
     inkscape:window-x="0"
     inkscape:window-y="27"
     inkscape:window-maximized="1" />
  <metadata
     id="metadata843">
    <rdf:RDF>
      <cc:Work
         rdf:about="">
        <dc:format>image/svg+xml</dc:format>
        <dc:type
           rdf:resource="http://purl.org/dc/dcmitype/StillImage" />
        <dc:title></dc:title>
      </cc:Work>
    </rdf:RDF>
  </metadata>
  <g
     inkscape:label="Layer 1"
     inkscape:groupmode="layer"
     id="layer1"
     transform="translate(-85.840728,-120.54697)">
    <g
       id="g1555">
      <g
         id="g1545">
        <g
           id="g1536">
          <path
             transform="matrix(0.06198063,0,0,0.06198063,85.840728,139.59343)"
             style="fill:#e1ff00;fill-opacity:1"
             id="Fill-7"
             mask="url(#mask-6)"
             d="M 359.195,-307.295 H 81.847 L 0,-225.421 v 112.771 c 3.654,3.655 5.702,5.699 9.354,9.328 h 174.92 v -40.229 h 174.92 c 3.654,-3.658 5.699,-5.705 9.352,-9.362 v -145.03 c -3.649,-3.647 -5.693,-5.693 -9.351,-9.352"
             inkscape:connector-curvature="0" />
          <path
             style="fill:#e1ff00;fill-opacity:1;stroke-width:0.06198063"
             d="m 133.49925,135.68394 v -0.001 h -10.84079 l -6.2e-4,-4.9864 h 10.84165 c 0.22654,-0.22666 0.35317,-0.3536 0.57971,-0.58008 v -8.98905 c -0.22617,-0.22616 -0.3528,-0.35304 -0.57971,-0.57976 h -17.19001 l -5.07312,5.07466 1.9e-4,15.25275 5.07336,5.0746 h 17.18927 c 0.2271,-0.22598 0.35323,-0.3531 0.57996,-0.57908 v -9.10638 c -0.22561,-0.22697 -0.3528,-0.35441 -0.57989,-0.58014 z"
             id="path5"
             inkscape:connector-curvature="0" />
          <path
             style="fill:#e1ff00;fill-opacity:1;stroke-width:0.06198063"
             id="Fill-10"
             d="m 86.420619,135.68338 c -0.226477,0.22636 -0.353538,0.35354 -0.579705,0.57995 v 9.10651 c 0.226415,0.22623 0.353228,0.35323 0.579705,0.57958 h 17.189951 l 5.073,-5.07435 v -7.10528 c -0.2263,-0.22666 -0.35336,-0.35385 -0.57977,-0.58007 H 97.262147 v 2.49341 H 86.420619 Z"
             inkscape:connector-curvature="0" />
          <path
             style="fill:#e1ff00;fill-opacity:1;stroke-width:0.06198063"
             id="Fill-12"
             d="m 133.49906,148.44631 h -17.19014 l -5.07293,5.07479 v 19.74796 c 0.22666,0.22635 0.3536,0.3531 0.57958,0.5797 h 10.03045 c 0.22654,-0.22641 0.35317,-0.35329 0.5797,-0.5797 v -3.16083 h 11.07359 c 0.22654,-0.22654 0.35323,-0.35354 0.5797,-0.58002 v -7.8592 c -0.22623,-0.22648 -0.35298,-0.35335 -0.5797,-0.57995 h -11.07377 v -2.49373 h 11.07364 c 0.22654,-0.22636 0.35317,-0.35354 0.57971,-0.57996 v -8.9888 c -0.2266,-0.2266 -0.35317,-0.35372 -0.57983,-0.58026"
             inkscape:connector-curvature="0" />
          <path
             style="fill:#e1ff00;fill-opacity:1;stroke-width:0.06198063"
             d="m 147.82136,121.12705 v 24.24291 c -0.22667,0.22567 -0.35304,0.35311 -0.57983,0.57989 h -10.02958 c -0.22685,-0.22666 -0.35323,-0.35422 -0.57996,-0.57989 v -24.24291 c 0.22673,-0.22698 0.35311,-0.35323 0.57996,-0.58008 h 10.02952 c 0.22666,0.22691 0.35316,0.35316 0.57989,0.58008 z"
             id="path19"
             inkscape:connector-curvature="0" />
          <path
             style="fill:#e1ff00;fill-opacity:1;stroke-width:0.06198063"
             d="m 147.82092,149.02632 v 24.24311 c -0.22672,0.22573 -0.3531,0.3531 -0.57982,0.58007 h -10.02971 c -0.22666,-0.22684 -0.3531,-0.3544 -0.57983,-0.58007 v -24.24311 c 0.2266,-0.22678 0.3531,-0.3531 0.57983,-0.58001 h 10.02971 c 0.22672,0.22685 0.3531,0.3531 0.57982,0.58001 z"
             id="path21"
             inkscape:connector-curvature="0" />
        </g>
      </g>
    </g>
  </g>
</svg>
