<svg width="600" height="600" viewBox="0 0 158.75 158.75" xmlns="http://www.w3.org/2000/svg">
    <path d="M79.375 4.55c41.354 0 74.831 33.477 74.831 74.831 0 41.354-33.477 74.831-74.83 74.831-41.355 0-74.832-33.477-74.832-74.831 0-41.354 33.477-74.831 74.831-74.831" fill="#fff"/>
    <path d="M133.146 122.09c-11.967 1.515-22.116-2.727-30.599-11.058-15.905-15.299-19.995-35.143-20.753-55.896-.303-11.361 1.212-22.873 2.575-34.083 0 10.755-.303 21.51.152 32.265.757 18.48 4.393 36.052 16.51 50.745 8.484 10.301 18.48 17.117 32.115 18.026zM27.872 122.09c11.967 1.515 22.116-2.727 30.6-11.058 15.904-15.299 19.994-35.143 20.752-55.896.303-11.361-1.212-22.873-2.575-34.083 0 10.755.303 21.51-.151 32.265-.758 18.48-4.393 36.052-16.511 50.745-8.332 10.301-18.33 17.117-32.114 18.026z"/>
    <path d="M79.375 4.55c41.354 0 74.831 33.477 74.831 74.831 0 41.354-33.477 74.831-74.83 74.831-41.355 0-74.832-33.477-74.832-74.831 0-41.354 33.477-74.831 74.831-74.831m0-4.544C35.598.006 0 35.604 0 79.38s35.598 79.375 79.375 79.375 79.375-35.598 79.375-79.375S123.001.006 79.375.006z"/>
</svg>
