<svg version="1.1" viewBox="0 0 800 225.35" xml:space="preserve" xmlns="http://www.w3.org/2000/svg">
	<path d="m0 0v225.35h800v-225.35z" fill="#ffd106" stroke-width=".8"/>
	<path d="m0 0v225.35h225.35v-225.35z" fill="#ffd106" stroke-width=".8"/>
	<path d="m164.96 104.62a2.672 2.6733 0 0 1-2.6904 2.6733h-64.348a26.812 26.826 0 0 1 0-53.65h64.348a2.6904 2.6918 0 0 1 2.6904 2.6918z" stroke-width=".8"/>
	<path d="m127.92 171.7h-64.846a2.7104 2.6918 0 0 1-2.6918-2.6918v-48.286a2.7104 2.6918 0 0 1 2.6918-2.6918h64.846a27.03 26.844 0 0 1 0 53.669z" stroke-width=".8"/>
	<path d="m701.07 26.826h14.62l30.66 71.902h-16.54l-6.6925-16.058h-29.957l-6.7109 16.058h-16.058zm16.778 42.183-9.5872-23.249-9.5872 23.249z" stroke-width=".8"/>
	<path d="m619.11 26.826h59.44v14.381h-21.81v57.522h-15.818v-57.522h-21.81z" stroke-width=".8"/>
	<path d="m593.23 71.166v-44.34h15.818v71.902h-13.662l-34.274-45.538v45.538h-15.818v-71.902h14.62z" stroke-width=".8"/>
	<path d="m489.94 26.826h14.657l30.678 71.902h-16.593l-6.711-16.058h-29.941l-6.7109 16.058h-16.058zm16.759 42.183-9.556-23.249-9.5872 23.249z" stroke-width=".8"/>
	<path d="m407.97 26.826h59.44v14.381h-21.81v57.522h-15.818v-57.522h-21.81z" stroke-width=".8"/>
	<path d="m397.9 41.206h-39.307v14.381h31.398v14.381h-31.398v14.381h39.307v14.381h-55.126v-71.902h55.126z" stroke-width=".8"/>
	<path d="m295.76 46.718c0.16468-3.3234 3.0763-5.8394 6.4008-5.531h27.458v-14.362l-30.011 0.23967c-11.062-0.16423-20.167 8.6296-20.35 19.654 0.0854 9.3376 6.5134 17.429 15.614 19.654l16.354 3.8348c3.3358 0.8176 5.7037 3.7674 5.7718 7.1902-0.2284 4.0761-3.7361 7.1917-7.8253 6.9506h-27.499v14.381h30.2c11.77-0.10057 21.278-9.6008 21.348-21.331-0.25246-9.8872-7.171-18.358-16.834-20.612l-15.817-4.0192c-2.8211-0.65285-4.8159-3.1609-4.8098-6.0472z" stroke-width=".8"/>
	<path d="m287.13 143.3c-0.0206-5.6872 4.5278-10.3 10.223-10.269h31.574v-7.6327h-31.74c-10.029 0.0202-18.157 8.128-18.187 18.142 5e-3 8.324 5.7488 15.549 13.866 17.441l22.73 5.531c5.7127 1.4981 9.436 6.9831 8.7128 12.836-0.72285 5.8533-5.669 10.271-11.575 10.338h-31.357v7.3746h31.523c9.856 0.0924 18.216-7.207 19.438-16.973 1.2226-9.7656-5.0806-18.895-14.656-21.228l-22.73-5.531c-4.6397-1.1168-7.8279-5.2641-7.8231-10.03z" stroke-width=".8"/>
	<path d="m396.04 148.61c0 15.451-12.758 23.149-28.005 23.149h-17.386v25.286h-8.112v-71.638h26.751c16.04 0 26.53 9.2264 26.751 23.204zm-8.1304 0.023c0-10.221-7.0612-15.586-18.621-15.586h-18.639v31.284h18.64c11.346-0.10559 18.621-6.3613 18.621-15.698z" stroke-width=".8"/>
	<path d="m473.66 161.23c0 19.746-14.27 37.021-36.062 37.021-21.792 0-36.542-17.275-36.542-37.021s14.75-37.021 36.542-37.021 36.062 17.294 36.062 37.021zm-8.112 0c0-16.261-11.578-29.37-27.95-29.37-16.372 0-28.43 13.09-28.43 29.37s12.076 29.388 28.43 29.388 27.95-13.127 27.95-29.388z" stroke-width=".8"/>
	<path d="m540.3 146.9c0 11.873-8.0752 18.971-19.358 21.018l21.977 29.13h-9.7896l-21.018-27.931h-20.28v27.931h-8.1304v-71.645h30.826c8.8128 0 15.782 2.6549 20.28 7.1534 3.6412 3.8759 5.6142 9.0272 5.4941 14.344zm-8.1304 0c0-8.8128-6.8031-13.864-18.437-13.864h-21.921v28.426h21.995c10.73 0 18.363-5.3429 18.363-14.561z" stroke-width=".8"/>
	<path d="m545.34 125.41h56.6v7.6512h-24.115v63.994h-8.1304v-63.994h-24.354z" stroke-width=".8"/>
	<path d="m615.09 143.3c-0.0206-5.6872 4.5278-10.3 10.223-10.269h31.574v-7.6327h-31.74c-10.029 0.0202-18.157 8.128-18.187 18.142 5e-3 8.324 5.7488 15.549 13.866 17.441l22.73 5.531c5.7127 1.4981 9.436 6.9831 8.7128 12.836-0.72285 5.8533-5.669 10.271-11.575 10.338h-31.357v7.3746h31.523c9.856 0.0924 18.216-7.207 19.438-16.973 1.2226-9.7656-5.0806-18.895-14.656-21.228l-22.73-5.531c-4.6397-1.1168-7.8279-5.2641-7.8231-10.03z" stroke-width=".8"/>
</svg>

