<svg version="1.1" viewBox="0 0 651.46 265" xml:space="preserve" xmlns="http://www.w3.org/2000/svg">
<path class="st1" d="m0 124.19h105.45l16.317 26.59h-121.77zm0-41.396v26.288h96.389l-16.015-26.288zm103.34-14.806h-103.34v-26.288h110.29v3.3238c0.30216 8.1584-2.1151 16.317-6.9497 22.964m-50.159-67.986h-53.18v26.59h106.97c-7.8562-18.13-28.101-26.59-53.785-26.59m206.68 70.706c-0.90648-22.964-18.13-35.655-45.022-35.655-14.504 0-45.324 3.3238-45.324 34.144 0 20.547 14.202 29.007 36.259 33.54l8.1584 1.813c11.18 2.4173 22.058 4.8346 22.058 14.202s-13.597 12.993-20.245 12.993c-14.806 0-24.173-6.0432-24.173-18.432l-25.382 1.5108c1.2086 29.612 22.662 38.374 48.346 38.374 40.49 0 47.439-22.058 47.439-35.957 0-26.892-23.266-32.331-32.936-34.446l-14.504-3.0216c-11.18-2.4173-18.734-4.8346-18.734-12.389s6.3454-11.784 17.828-11.784c11.482 0 21.151 5.4389 21.756 17.223l24.475-2.1151zm94.879 45.324v-3.6259c0-25.684-12.993-46.835-40.49-46.835s-42 19.036-42 43.813c0 24.777 15.712 43.813 42 43.813 17.828 0 33.842-8.4605 39.583-26.288l-23.871-1.813c-3.0216 5.7411-9.0648 9.0648-15.41 8.7627-11.18 0-16.317-7.554-18.13-17.828zm-58.015-17.828c2.4173-9.6692 7.8562-14.202 17.828-14.202 8.1584-0.30216 14.806 6.0432 15.108 14.202zm138.39-30.518h-24.777l-13.597 51.67-15.41-51.367h-25.079l28.705 82.792h22.662zm84.001 48.346v-3.6259c0-25.684-12.993-46.835-40.792-46.835s-41.698 19.036-41.698 43.813c0 24.777 15.712 43.813 41.698 43.813 18.13 0 34.144-8.4605 39.885-26.288l-23.871-1.813c-3.0216 5.7411-9.0648 9.0648-15.712 8.7627-10.878 0-16.015-7.554-17.828-17.828zm-58.015-17.828c2.4173-9.6692 7.8562-14.202 17.525-14.202 8.1584-0.30216 14.806 6.0432 15.41 14.202zm92.159-30.518h-23.266v82.792h24.173v-40.792c0-9.6692 1.813-22.36 18.734-22.36 1.813 0 3.9281 0 5.7411 0.60432v-21.756h-4.2303c-9.9713 0-16.921 3.6259-21.151 15.108zm-174.04 145.94h-11.784l-6.3454 26.59-6.9497-26.59h-12.086l11.482 31.727c0.60432 1.813 1.2086 3.9281 1.5108 5.7411 0 1.5108-0.60433 2.7194-1.5108 3.9281-1.5108 0.60433-3.3238 0.90649-4.8346 0.90649h-2.7194v9.0648h2.7194c5.1367 0 11.18 0.30216 14.202-3.9281 1.813-2.7194 3.0216-5.4389 3.9281-8.4605zm-4.5324-16.317h-13.597l-5.1367 11.18h8.7627zm98.505 55.9v-8.4605l19.338-21.756h-17.223v-9.0648h31.123v9.0648l-18.734 21.453h20.245v9.0648zm64.36 0v-22.058c0.30216-2.4173-0.30216-5.1367-1.813-7.2519-0.90648-1.2086-2.4173-1.813-3.9281-1.5108-1.5108 0-3.0216 0.60432-4.2303 1.5108-2.1151 2.4173-3.0216 5.7411-2.4173 9.0648v20.245h-10.878v-53.785h10.878v18.432c2.4173-3.3238 6.3454-5.1367 10.576-5.1367 2.7194 0 5.4389 0.90648 7.8562 2.1151 4.5324 3.3238 5.1367 7.8562 5.1367 13.295v25.079zm29.612 0h-10.878v-53.785h10.878zm84.303-12.086c0-9.9713-9.367-11.784-17.223-12.993-2.1151-0.30216-6.6476-1.2086-6.6476-3.9281s3.0216-3.3238 5.1367-3.3238 4.2303 0.90648 6.0432 2.4173c0.60432 0.90648 1.2086 2.1151 1.2086 3.3238l10.576-0.60432c-0.30217-9.6692-8.4605-13.597-17.525-13.597s-16.317 3.3238-16.317 12.389c0 15.712 23.569 9.9713 23.569 16.921 0 6.9497-3.3238 3.6259-5.7411 3.6259s-7.8562-1.5108-8.4605-6.3454h-10.576c0 1.2086 0 2.4173 0.30216 3.6259 2.1151 8.1584 10.273 10.878 17.828 10.878 7.554 0 17.828-2.4173 17.828-12.389m-41.396-10.273c0.30216-3.6259 0-7.2519-0.90648-10.576-3.0216-6.6476-10.273-7.8562-16.619-7.8562-6.3454 0-16.317 3.9281-16.619 13.597h9.9713c0-3.9281 3.9281-5.1367 7.2519-5.1367s6.0432 0.90648 6.0432 3.6259-4.2303 3.0216-6.0432 3.3238c-8.4605 0.90648-19.64 2.1151-19.64 13.295-0.30216 6.9497 5.1367 12.389 12.086 12.691h0.30216 1.2086c4.5324 0 9.0648-1.5108 12.389-4.5324v3.6259h10.576zm-11.18 9.367c-2.1151 3.3238-5.7411 5.1367-9.367 4.8346-2.4173 0.30216-4.5324-1.5108-5.1367-3.9281 0-4.8346 8.1584-5.4389 11.482-6.0432l3.0216-0.90648v6.3454zm-381.93-5.4389-12.389-0.60432c-0.30216 5.7411-5.4389 10.273-11.18 9.9713-3.0216 0-5.7411-1.2086-8.1584-3.0216-3.9281-3.9281-6.0432-9.367-5.4389-15.108 0-8.7627 3.6259-17.828 13.899-17.828 4.2303-0.30216 8.1584 1.813 9.9713 5.4389l0.90648 2.7194 12.086-0.60432c0-1.2086-0.30217-2.4173-0.90649-3.6259-3.3238-9.6692-12.691-13.899-22.36-13.899-16.619 0-26.892 11.482-26.892 28.101 0 11.482 5.1367 22.36 16.317 26.59 3.3238 0.90648 6.9497 1.5108 10.576 1.813 8.4605 0.60433 16.921-3.6259 21.151-11.18 1.2086-2.7194 2.1151-5.7411 2.4173-8.7627m42 1.813v-1.813c0-12.086-6.3454-22.36-19.64-22.36-13.295 0-19.64 9.367-19.64 20.849 0 11.482 7.2519 21.151 19.64 21.151 8.4605 0.60432 16.015-4.5324 18.734-12.389l-11.18-0.90649c-1.2086 3.0216-4.2302 4.5324-7.554 4.2303-4.5324-0.30216-8.1584-3.9281-8.4605-8.4605zm-11.784-8.7627h-15.41c0.60432-4.2303 4.2302-7.2519 8.4605-6.9497 3.6259 0.30216 6.6476 3.3238 6.9497 6.9497m51.065 12.993c0-9.9713-9.6692-11.784-17.525-12.993-2.1151-0.30217-6.6476-1.2086-6.6476-3.9281s3.3238-3.3238 5.4389-3.3238c2.1151 0 4.2303 0.90648 6.0432 2.4173 0.60433 0.90648 0.90649 2.1151 0.90649 3.3238l10.576-0.60432c-0.60433-9.6692-8.7627-13.597-17.223-13.597s-16.317 3.3238-16.317 12.389c0 15.712 23.266 9.9713 23.266 16.921 0 6.9497-3.0216 3.6259-5.4389 3.6259s-7.8562-1.5108-8.7627-6.3454h-10.576c0 1.2086 0 2.4173 0.30216 3.6259 2.1151 8.1584 10.273 10.878 17.828 10.878 7.554 0 18.13-2.4173 18.13-12.389m44.418 11.784-16.015-24.475 15.108-14.806h-14.504l-12.086 13.295v-26.892h-10.878v53.785h10.878v-12.993l3.6259-3.6259 9.9713 16.619zm85.209-29.914v-10.273h-2.1151c-4.5324-0.30216-8.7627 2.7194-10.273 7.2519v-6.3454h-11.18v39.281h11.482v-18.734c0-6.3454 0.90648-11.482 8.7627-11.482h3.3238m42.303 9.9713c0-11.482-7.2519-20.547-19.338-20.547-10.878-0.60432-20.245 7.554-20.849 18.432v3.0216c0 11.784 7.8562 20.547 19.64 20.547 11.18 0.30216 20.547-8.4605 20.849-19.64 0-0.60432 0-1.5108-0.30216-1.813m-11.18-0.30216c0 6.0432-2.1151 12.389-8.7627 12.389s-9.0648-6.3454-9.0648-12.086 2.1151-11.482 9.0648-11.482c6.9497 0 8.7627 5.4389 8.7627 11.18m-260.77-37.166h-12.993l-6.9497-9.0648h10.273l3.3238 5.4389 3.3238-5.4389h10.273z" fill="#01ab96" stroke-width="3.0216" Googl="true"/>
</svg>
