<svg fill="none" version="1.1" viewBox="0 0 800 162.8" xmlns="http://www.w3.org/2000/svg">
 <path d="m417.42 46.935-0.27687-0.64025c-5.268 3.1508-10.912 5.6273-16.797 7.3716-0.57681 0.16151-1.0902 0.31724-1.6324 0.46144l-1.3613 0.34609-0.29995 0.07501-1.2978 0.29417-0.19611 0.04033-1.1536 0.22496-0.2538 0.04609c-0.40953 0.07501-0.81329 0.13844-1.2171 0.20189l-0.25378 0.03457c-0.36916 0.05772-0.73256 0.10382-1.0902 0.14997h-0.14998c-0.38646 0.04609-0.77293 0.08077-1.1536 0.1096h-0.25956l-1.1536 0.06925h-0.0288-1.044-0.23072-1.0671-0.18458c-0.34608 0-0.6864-0.04033-1.021-0.07501h-0.0577c-0.34609-0.03457-0.68064-0.07501-1.0094-0.12689h-0.17304c-0.32302-0.05196-0.64026-0.1096-0.95174-0.17881l-0.11536-0.02881c-0.31147-0.06925-0.61718-0.1442-0.91135-0.23073-0.29995-0.08653-0.57682-0.18457-0.87676-0.2884l-0.12112-0.04033c-0.27688-0.1096-0.54797-0.21919-0.81331-0.34032l-0.0635-0.02881c-0.26533-0.12689-0.52489-0.2538-0.77292-0.398-0.95693-0.52934-1.8129-1.2246-2.5264-2.0534-0.0346-0.04033-0.075-0.08077-0.1096-0.1269-1.4651-1.7881-2.238-4.13-2.3072-6.9217-1.0302 0.27087-1.9871 0.76941-2.7993 1.4589-0.81215 0.68945-1.4593 1.5524-1.8937 2.5251-0.43434 0.97274-0.64545 2.0306-0.61718 3.0956 0.0288 1.065 0.29532 2.11 0.78099 3.0582 0.48625 0.94816 1.1784 1.7753 2.0263 2.4205 0.84734 0.6455 1.8291 1.092 2.8725 1.3077 1.0434 0.21573 2.1221 0.19438 3.1557-0.06231 1.0342-0.2561 1.9975-0.7412 2.8194-1.4195 0.0923-0.07501 0.17881-0.15574 0.26533-0.23649 2.1336 0.64291 4.3532 0.95404 6.5814 0.92289 3.3784-0.05015 6.7389-0.49524 10.013-1.3267v22.628c-0.0462 1.7304-0.19612 2.8379-1.3382 3.7723l-74.922 61.396c-0.79773 0.65121-1.821 0.95981-2.846 0.85828-1.025-0.10146-1.9675-0.60507-2.6222-1.4005l-41.692-50.903c-0.64948-0.7983-0.95749-1.8216-0.85598-2.846 0.10147-1.0244 0.6045-1.9669 1.3982-2.6222l74.939-61.378c1.2055-0.98058 2.3072-0.86522 4.153-0.47876l24.312 4.874c0.0462-0.08653 0.0865-0.17305 0.12689-0.26533 2.9556-6.0425 6.7804-11.62 11.352-16.554-4.7783-3.0339-9.868-5.5477-15.182-7.4985-9.9978-3.7108-20.908-5.5643-32.728-5.5604-11.694 0-22.496 1.8535-32.405 5.5604-9.5427 3.477-18.276 8.8625-25.668 15.828-7.3243 7.0242-13.083 15.515-16.9 24.918-4.0607 9.7711-6.0928 20.717-6.0969 32.838 0 11.836 2.0321 22.638 6.0969 32.405 3.8537 9.5018 9.6217 18.108 16.945 25.285 7.3232 7.1767 16.045 12.769 25.623 16.43 9.9056 3.9033 20.711 5.8661 32.417 5.8892 11.836 0 22.745-1.9594 32.728-5.8777 9.6419-3.7048 18.443-9.3068 25.881-16.474 7.341-7.1582 13.131-15.75 17.01-25.241 4.0607-9.7671 6.0928-20.569 6.0969-32.405 0-12.136-2.0321-23.092-6.0969-32.867z" fill="#000" stroke-width=".57681"/>
 <path d="m382.5 31.378 11.709 2.3418c1.0204 0.11063 1.9554 0.61898 2.6037 1.4147 0.64776 0.79583 0.95578 1.8149 0.85714 2.8363v9.8058c-3.304 0.98727-6.7227 1.5399-10.169 1.6439-2.0996 0-3.7666-0.32301-4.8567-0.92289-0.83637-1.6215-2.2628-2.8602-3.9858-3.4608 0.0144 1.4507 0.47761 2.8612 1.3267 4.0377l0.0346 0.0462c0.28782 0.3473 0.62179 0.65387 0.9921 0.91136 0.38589 0.27323 0.80235 0.50159 1.2401 0.68063h0.0288c0.21919 0.09229 0.44991 0.17881 0.69217 0.2538h0.0693c0.24226 0.07501 0.49029 0.1442 0.74985 0.20765 0.25956 0.05772 0.52489 0.1096 0.80177 0.15574h0.0635c0.26533 0.04236 0.53643 0.07693 0.8133 0.10382h0.13844c0.27687 0.02881 0.5768 0.05196 0.84213 0.06348h0.11536 0.84792 1.667l0.48452-0.03457h0.23649l0.49606-0.04609h0.21919l0.5768-0.06348h0.16151c7.7523-0.99212 17.5-4.7183 24.099-8.9117-3.7216-7.6617-8.8027-14.584-14.997-20.431-2.2588-2.1285-4.6537-4.1073-7.1697-5.9238-4.2926 4.5461-7.8936 9.6981-10.688 15.291z" fill="#000" stroke-width=".57681"/>
 <path d="m435.08 13.82c0-4.9029 2.5668-7.4697 7.4985-8.4041 14.446-2.1886 29.037-3.2799 43.647-3.2647 31.724 0 62.555 8.3983 62.555 52.282 0 35.48-23.338 50.419-54.151 50.419-8.4006-0.0479-16.772-0.98577-24.976-2.7975v50.65c0 4.9029-2.0996 7.0025-7.0025 7.0025h-20.569c-4.9029 0-7.0025-2.0996-7.0025-7.0025zm50.886 66.991c16.105 0 29.642-4.4357 29.642-25.443 0-23.343-15.176-28.477-29.417-28.477-5.5714 0.08024-11.122 0.70618-16.572 1.8689v50.65c5.3758 1.1709 10.977 1.4016 16.347 1.4016z" stroke="#fff" stroke-width=".57681"/>
 <path d="m4.0204 131.7c0.93443-4.6664 3.9684-5.3701 7.4697-3.9684 10.036 3.9684 25.443 8.6521 39.915 8.6521 15.17 0 23.811-5.1394 23.811-18.458 0-13.774-8.8713-18.458-25.212-24.278-26.141-9.3385-49.715-17.506-49.715-48.786 0-30.109 26.608-43.884 57.185-43.884 12.105 0.035327 24.14 1.8525 35.716 5.3932 4.6664 1.4016 6.068 4.1992 4.9029 8.8713l-2.8033 11.894c-1.1536 4.6664-3.7377 5.8315-7.9369 4.4299-4.1992-1.4016-14.939-4.6664-26.845-4.6664-14.703 0-27.773 1.4016-27.773 17.973 0 14.241 14.005 17.275 29.417 22.64 26.614 9.1078 45.055 23.343 45.055 48.089 0 28.477-22.409 46.918-53.222 46.918-20.54 0-37.348-3.7377-47.616-7.7062-4.2049-1.6324-5.8373-5.1336-4.9029-9.8058z" stroke="#fff" stroke-width=".57681"/>
 <path d="m214.33 10.786c0-4.9029 2.1054-7.0025 7.0025-7.0025h20.309c4.9029 0 7.0025 2.0996 7.0025 7.0025v141.89c0 4.9029-2.0996 7.0024-7.0025 7.0024h-20.309c-4.8971 0-7.0025-2.0996-7.0025-7.0024v-60.196h-58.119v60.219c0 4.9029-2.0996 7.0025-7.0025 7.0025h-20.309c-4.9029 0-7.0024-2.0996-7.0024-7.0025v-141.89c0-4.9029 2.0996-7.0025 7.0024-7.0025h20.309c4.9029 0 7.0025 2.0996 7.0025 7.0025v54.618h58.119z" stroke="#fff" stroke-width=".57681"/>
 <path d="m417.42 46.935-0.27687-0.64025c-5.268 3.1508-10.912 5.6273-16.797 7.3716-0.57681 0.16151-1.0902 0.31724-1.6324 0.46144l-1.3613 0.34609-0.29995 0.07501-1.2978 0.29417-0.19611 0.04033-1.1536 0.22496-0.2538 0.04609c-0.40953 0.07501-0.81329 0.13844-1.2171 0.20189l-0.25378 0.03457c-0.36916 0.05772-0.73256 0.10382-1.0902 0.14997h-0.14998c-0.38646 0.04609-0.77293 0.08077-1.1536 0.1096h-0.25956l-1.1536 0.06925h-0.0288-1.044-0.23072-1.0671-0.18458c-0.34608 0-0.6864-0.04033-1.021-0.07501h-0.0577c-0.34609-0.03457-0.68064-0.07501-1.0094-0.12689h-0.17304c-0.32302-0.05196-0.64026-0.1096-0.95174-0.17881l-0.11536-0.02881c-0.31147-0.06925-0.61718-0.1442-0.91135-0.23073-0.29995-0.08653-0.57682-0.18457-0.87676-0.2884l-0.12112-0.04033c-0.27688-0.1096-0.54797-0.21919-0.81331-0.34032l-0.0635-0.02881c-0.26533-0.12689-0.52489-0.2538-0.77292-0.398-0.95693-0.52934-1.8129-1.2246-2.5264-2.0534-0.0346-0.04033-0.075-0.08077-0.1096-0.1269-1.4651-1.7881-2.238-4.13-2.3072-6.9217-1.0302 0.27087-1.9871 0.76941-2.7993 1.4589-0.81215 0.68945-1.4593 1.5524-1.8937 2.5251-0.43434 0.97274-0.64545 2.0306-0.61718 3.0956 0.0288 1.065 0.29532 2.11 0.78099 3.0582 0.48625 0.94816 1.1784 1.7753 2.0263 2.4205 0.84734 0.6455 1.8291 1.092 2.8725 1.3077 1.0434 0.21573 2.1221 0.19438 3.1557-0.06231 1.0342-0.2561 1.9975-0.7412 2.8194-1.4195 0.0923-0.07501 0.17881-0.15574 0.26533-0.23649 2.1336 0.64291 4.3532 0.95404 6.5814 0.92289 3.3784-0.05015 6.7389-0.49524 10.013-1.3267v22.628c-0.0462 1.7304-0.19612 2.8379-1.3382 3.7723l-74.922 61.396c-0.79773 0.65121-1.821 0.95981-2.846 0.85828-1.025-0.10146-1.9675-0.60507-2.6222-1.4005l-41.692-50.903c-0.64948-0.7983-0.95749-1.8216-0.85598-2.846 0.10147-1.0244 0.6045-1.9669 1.3982-2.6222l74.939-61.378c1.2055-0.98058 2.3072-0.86522 4.153-0.47876l24.312 4.874c0.0462-0.08653 0.0865-0.17305 0.12689-0.26533 2.9556-6.0425 6.7804-11.62 11.352-16.554-4.7788-3.0339-9.868-5.5477-15.182-7.4985-9.9978-3.7108-20.908-5.5643-32.728-5.5604-11.694 0-22.496 1.8535-32.405 5.5604-9.5427 3.477-18.276 8.8625-25.668 15.828-7.3243 7.0242-13.083 15.515-16.9 24.918-4.0607 9.7711-6.0928 20.717-6.0969 32.838 0 11.836 2.0321 22.638 6.0969 32.405 3.8537 9.5018 9.6217 18.108 16.945 25.285 7.3232 7.1767 16.045 12.769 25.623 16.43 9.9056 3.9033 20.711 5.8661 32.417 5.8892 11.836 0 22.745-1.9594 32.728-5.8777 9.6419-3.7048 18.443-9.3068 25.881-16.474 7.341-7.1582 13.131-15.75 17.01-25.241 4.0607-9.7671 6.0928-20.569 6.0969-32.405 0-12.136-2.0321-23.092-6.0969-32.867z" stroke="#fff" stroke-width=".57681"/>
 <path d="m382.5 31.378 11.709 2.3418c1.0204 0.11063 1.9554 0.61898 2.6037 1.4147 0.64776 0.79583 0.95578 1.8149 0.85714 2.8363v9.8058c-3.304 0.98727-6.7227 1.5399-10.169 1.6439-2.0996 0-3.7666-0.32301-4.8567-0.92289-0.83637-1.6215-2.2628-2.8602-3.9858-3.4608 0.0144 1.4507 0.47761 2.8612 1.3267 4.0377l0.0346 0.0462c0.28782 0.3473 0.62179 0.65387 0.9921 0.91136 0.38589 0.27323 0.80235 0.50159 1.2401 0.68063h0.0288c0.21919 0.09229 0.44991 0.17881 0.69217 0.2538h0.0693c0.24226 0.07501 0.49029 0.1442 0.74985 0.20765 0.25956 0.05772 0.52489 0.1096 0.80177 0.15574h0.0635c0.26533 0.04236 0.53643 0.07693 0.8133 0.10382h0.13844c0.27687 0.02881 0.5768 0.05196 0.84213 0.06348h0.11536 0.84792 1.667l0.48452-0.03457h0.23649l0.49606-0.04609h0.21919l0.5768-0.06348h0.16151c7.7523-0.99212 17.5-4.7183 24.099-8.9117-3.7216-7.6617-8.8027-14.584-14.997-20.431-2.2588-2.1285-4.6537-4.1073-7.1697-5.9238-4.2926 4.5461-7.8936 9.6981-10.688 15.291z" stroke="#fff" stroke-width=".57681"/>
 <path d="m435.08 13.82c0-4.9029 2.5668-7.4697 7.4985-8.4041 14.446-2.1886 29.037-3.2799 43.647-3.2647 31.724 0 62.555 8.3983 62.555 52.282 0 35.48-23.338 50.419-54.151 50.419-8.4006-0.0479-16.772-0.98577-24.976-2.7975v50.65c0 4.9029-2.0996 7.0025-7.0025 7.0025h-20.569c-4.9029 0-7.0025-2.0996-7.0025-7.0025zm50.886 66.991c16.105 0 29.642-4.4357 29.642-25.443 0-23.343-15.176-28.477-29.417-28.477-5.5714 0.08024-11.122 0.70618-16.572 1.8689v50.65c5.3758 1.1709 10.977 1.4016 16.347 1.4016z" fill="url(#b)" stroke-width=".57681"/>
 <path d="m4.0204 131.7c0.93443-4.6664 3.9684-5.3701 7.4697-3.9684 10.036 3.9684 25.443 8.6521 39.915 8.6521 15.17 0 23.811-5.1394 23.811-18.458 0-13.774-8.8713-18.458-25.212-24.278-26.141-9.3385-49.715-17.506-49.715-48.786 0-30.109 26.608-43.884 57.185-43.884 12.105 0.035327 24.14 1.8525 35.716 5.3932 4.6664 1.4016 6.068 4.1992 4.9029 8.8713l-2.8033 11.894c-1.1536 4.6664-3.7377 5.8315-7.9369 4.4299-4.1992-1.4016-14.939-4.6664-26.845-4.6664-14.703 0-27.773 1.4016-27.773 17.973 0 14.241 14.005 17.275 29.417 22.64 26.614 9.1078 45.055 23.343 45.055 48.089 0 28.477-22.409 46.918-53.222 46.918-20.54 0-37.348-3.7377-47.616-7.7062-4.2049-1.6324-5.8373-5.1336-4.9029-9.8058z" fill="url(#c)" stroke-width=".57681"/>
 <path d="m214.33 10.786c0-4.9029 2.1054-7.0025 7.0025-7.0025h20.309c4.9029 0 7.0025 2.0996 7.0025 7.0025v141.89c0 4.9029-2.0996 7.0024-7.0025 7.0024h-20.309c-4.8971 0-7.0025-2.0996-7.0025-7.0024v-60.196h-58.119v60.219c0 4.9029-2.0996 7.0025-7.0025 7.0025h-20.309c-4.9029 0-7.0024-2.0996-7.0024-7.0025v-141.89c0-4.9029 2.0996-7.0025 7.0024-7.0025h20.309c4.9029 0 7.0025 2.0996 7.0025 7.0025v54.618h58.119z" fill="url(#c)" stroke-width=".57681"/>
 <path d="m770.31 134.31c6.6316-0.0482 13.259-0.43726 19.852-1.1658 4.9064-0.46972 7.2593 1.4006 7.4771 6.3071l0.70031 11.91c0.23057 4.9064-2.1052 7.4771-7.0074 8.1774-9.9794 1.4715-20.049 2.2521-30.135 2.3358-41.34 0-76.611-17.051-76.863-81.522 0-61.431 39.474-80.348 78.717-80.348 13.78 0 24.058 2.3358 31.3 4.2019 4.9022 1.4049 6.3071 3.9713 5.3719 8.6429l-2.5622 11.679c-0.93515 4.6716-3.7364 6.0722-7.9426 4.6716-5.6025-1.6355-12.61-3.5016-22.888-3.5016-25.929 0-46.481 12.614-46.716 53.954 0.23483 45.08 22.666 54.658 50.696 54.658z" fill="url(#d)" stroke-width=".42702"/>
 <path d="m770.32 134.31c6.6316-0.0482 13.259-0.43726 19.852-1.1658 4.9064-0.46972 7.2593 1.4006 7.4771 6.3071l0.70032 11.91c0.23056 4.9064-2.1052 7.4771-7.0074 8.1774-9.9794 1.4715-20.049 2.2521-30.135 2.3358-41.34 0-76.611-17.051-76.863-81.522 0-61.431 39.474-80.348 78.717-80.348 13.78 0 24.058 2.3358 31.3 4.2019 4.9022 1.4049 6.3071 3.9713 5.372 8.6429l-2.5622 11.679c-0.93515 4.6716-3.7364 6.0722-7.9426 4.6716-5.6025-1.6355-12.61-3.5016-22.888-3.5016-25.929 0-46.481 12.614-46.716 53.954 0.23484 45.08 22.666 54.658 50.696 54.658z" fill="url(#a)" stroke-width=".42702"/>
 <path d="m770.32 134.31c6.6316-0.0482 13.259-0.43726 19.852-1.1658 4.9064-0.46972 7.2593 1.4006 7.4771 6.3071l0.70032 11.91c0.23056 4.9064-2.1052 7.4771-7.0074 8.1774-9.9794 1.4715-20.049 2.2521-30.135 2.3358-41.34 0-76.611-17.051-76.863-81.522 0-61.431 39.474-80.348 78.717-80.348 13.78 0 24.058 2.3358 31.3 4.2019 4.9022 1.4049 6.3071 3.9713 5.372 8.6429l-2.5622 11.679c-0.93515 4.6716-3.7364 6.0722-7.9426 4.6716-5.6025-1.6355-12.61-3.5016-22.888-3.5016-25.929 0-46.481 12.614-46.716 53.954 0.23484 45.08 22.666 54.658 50.696 54.658z" fill="url(#a)" stroke-width=".42702"/>
 <path d="m689.37 153.74c0 5.0516-2.165 7.2166-7.2124 7.2166h-88.495c-5.0516 0-7.2166-2.165-7.2166-7.2166v-146.2c0-5.0474 2.165-7.2123 7.2166-7.2123h21.402c5.0474 0 7.2124 2.165 7.2124 7.2123v125.54h59.881c5.0474 0 7.2124 2.165 7.2124 7.2124z" fill="url(#a)" stroke-width=".42702"/>
 <path d="m689.37 153.74c0 5.0516-2.165 7.2166-7.2124 7.2166h-88.495c-5.0516 0-7.2166-2.165-7.2166-7.2166v-146.2c0-5.0474 2.165-7.2123 7.2166-7.2123h21.402c5.0474 0 7.2124 2.165 7.2124 7.2123v125.54h59.881c5.0474 0 7.2124 2.165 7.2124 7.2124z" fill="url(#a)" stroke-width=".42702"/>
 <path d="m417.42 46.935-0.27687-0.64025c-5.268 3.1508-10.912 5.6273-16.797 7.3716-0.57681 0.16151-1.0902 0.31724-1.6324 0.46144l-1.3613 0.34609-0.29995 0.07501-1.2978 0.29417-0.19611 0.04033-1.1536 0.22496-0.2538 0.04609c-0.40953 0.07501-0.81329 0.13844-1.2171 0.20189l-0.25378 0.03457c-0.36916 0.05772-0.73256 0.10382-1.0902 0.14997h-0.14998c-0.38646 0.04609-0.77293 0.08077-1.1536 0.1096h-0.25956l-1.1536 0.06925h-0.0288-1.044-0.23072-1.0671-0.18458c-0.34608 0-0.6864-0.04033-1.021-0.07501h-0.0577c-0.34609-0.03457-0.68064-0.07501-1.0094-0.12689h-0.17304c-0.32302-0.05196-0.64026-0.1096-0.95174-0.17881l-0.11536-0.02881c-0.31147-0.06925-0.61718-0.1442-0.91135-0.23073-0.29995-0.08653-0.57682-0.18457-0.87676-0.2884l-0.12112-0.04033c-0.27688-0.1096-0.54797-0.21919-0.81331-0.34032l-0.0635-0.02881c-0.26533-0.12689-0.52489-0.2538-0.77292-0.398-0.95693-0.52934-1.8129-1.2246-2.5264-2.0534-0.0346-0.04033-0.075-0.08077-0.1096-0.1269-1.4651-1.7881-2.238-4.13-2.3072-6.9217-1.0302 0.27087-1.9871 0.76941-2.7993 1.4589-0.81215 0.68945-1.4593 1.5524-1.8937 2.5251-0.43434 0.97274-0.64545 2.0306-0.61718 3.0956 0.0288 1.065 0.29532 2.11 0.78099 3.0582 0.48625 0.94816 1.1784 1.7753 2.0263 2.4205 0.84734 0.6455 1.8291 1.092 2.8725 1.3077 1.0434 0.21573 2.1221 0.19438 3.1557-0.06231 1.0342-0.2561 1.9975-0.7412 2.8194-1.4195 0.0923-0.07501 0.17881-0.15574 0.26533-0.23649 2.1336 0.64291 4.3532 0.95404 6.5814 0.92289 3.3784-0.05015 6.7389-0.49524 10.013-1.3267v22.628c-0.0462 1.7304-0.19612 2.8379-1.3382 3.7723l-74.922 61.396c-0.79773 0.65121-1.821 0.95981-2.846 0.85828-1.025-0.10146-1.9675-0.60507-2.6222-1.4005l-41.692-50.903c-0.64948-0.7983-0.95749-1.8216-0.85598-2.846 0.10147-1.0244 0.6045-1.9669 1.3982-2.6222l74.939-61.378c1.2055-0.98058 2.3072-0.86522 4.153-0.47876l24.312 4.874c0.0462-0.08653 0.0865-0.17305 0.12689-0.26533 2.9556-6.0425 6.7804-11.62 11.352-16.554-4.7783-3.0339-9.868-5.5477-15.182-7.4985-9.9978-3.7108-20.908-5.5643-32.728-5.5604-11.694 0-22.496 1.8535-32.405 5.5604-9.5427 3.477-18.276 8.8625-25.668 15.828-7.3243 7.0242-13.083 15.515-16.9 24.918-4.0607 9.7711-6.0928 20.717-6.0969 32.838 0 11.836 2.0321 22.638 6.0969 32.405 3.8537 9.5018 9.6217 18.108 16.945 25.285 7.3232 7.1767 16.045 12.769 25.623 16.43 9.9056 3.9033 20.711 5.8661 32.417 5.8892 11.836 0 22.745-1.9594 32.728-5.8777 9.6419-3.7048 18.443-9.3068 25.881-16.474 7.341-7.1582 13.131-15.75 17.01-25.241 4.0607-9.7671 6.0928-20.569 6.0969-32.405 0-12.136-2.0321-23.092-6.0969-32.867z" fill="url(#b)" stroke-width=".57681" Googl="true"/>
 <path d="m382.5 31.378 11.709 2.3418c1.0204 0.11063 1.9554 0.61898 2.6037 1.4147 0.64776 0.79583 0.95578 1.8149 0.85714 2.8363v9.8058c-3.304 0.98727-6.7227 1.5399-10.169 1.6439-2.0996 0-3.7666-0.32301-4.8567-0.92289-0.83637-1.6215-2.2628-2.8602-3.9858-3.4608 0.0144 1.4507 0.47761 2.8612 1.3267 4.0377l0.0346 0.0462c0.28782 0.3473 0.62179 0.65387 0.9921 0.91136 0.38589 0.27323 0.80235 0.50159 1.2401 0.68063h0.0288c0.21919 0.09229 0.44991 0.17881 0.69217 0.2538h0.0693c0.24226 0.07501 0.49029 0.1442 0.74985 0.20765 0.25956 0.05772 0.52489 0.1096 0.80177 0.15574h0.0635c0.26533 0.04236 0.53643 0.07693 0.8133 0.10382h0.13844c0.27687 0.02881 0.5768 0.05196 0.84213 0.06348h0.11536 0.84792 1.667l0.48452-0.03457h0.23649l0.49606-0.04609h0.21919l0.5768-0.06348h0.16151c7.7523-0.99212 17.5-4.7183 24.099-8.9117-3.7216-7.6617-8.8027-14.584-14.997-20.431-2.2588-2.1285-4.6537-4.1073-7.1697-5.9238-4.2926 4.5461-7.8936 9.6981-10.688 15.291z" fill="url(#b)" stroke-width=".57681"/>
 <defs>
  <linearGradient id="b" x1="740.67" x2="740.67" y1="285.46" y2="58.56" gradientTransform="matrix(.57681 0 0 .57681 -.28841 0)" gradientUnits="userSpaceOnUse">
   <stop stop-color="#0B9CF5" offset="0"/>
   <stop stop-color="#1C35B0" offset=".99"/>
  </linearGradient>
  <linearGradient id="c" x1="740.67" x2="740.67" y1="285.46" y2="58.56" gradientTransform="matrix(.57681 0 0 .57681 -.28841 0)" gradientUnits="userSpaceOnUse">
   <stop stop-color="#0B9CF5" offset="0"/>
   <stop stop-color="#1C35B0" offset=".99"/>
  </linearGradient>
  <linearGradient id="d" x1="740.67" x2="740.67" y1="285.46" y2="58.56" gradientTransform="matrix(.42702 0 0 .42702 167.88 0)" gradientUnits="userSpaceOnUse">
   <stop stop-color="#0B9CF5" offset="0"/>
   <stop stop-color="#1C35B0" offset=".99"/>
  </linearGradient>
  <linearGradient id="a" x1="740.67" x2="740.67" y1="285.46" y2="58.56" gradientTransform="matrix(.42702 0 0 .42702 167.88 0)" gradientUnits="userSpaceOnUse">
   <stop stop-color="#0B9CF5" offset="0"/>
   <stop stop-color="#1C35B0" offset=".99"/>
  </linearGradient>
 </defs>
</svg>
