<svg xmlns="http://www.w3.org/2000/svg" height="145.18" width="600" version="1.1" viewBox="0 0 158.75 38.413437">
 <g stroke-width="1.0149">
  <path d="m0.87376 38.413h26.254v-2.663h-26.254z" fill="#ee2522"/>
  <path d="m27.128 38.413h26.255v-2.663h-26.255z" fill="#f7d109"/>
  <path d="m53.373 38.413h26.254v-2.663h-26.254z" fill="#87ce26"/>
  <path d="m79.627 38.413h26.244v-2.663h-26.244z" fill="#a63ca4"/>
  <path d="m105.87 38.413h26.255v-2.663h-26.255z" fill="#3da9ac"/>
  <path d="m132.13 38.413h26.244v-2.663h-26.244z" fill="#c71266"/>
 </g>
 <g fill="#fff">
  <path d="m90.273 18.193c0 4.5043 3.9413 7.3899 8.3753 7.3899 4.821 0 8.1993-3.2727 8.1993-7.1436 0-2.5689-1.5132-4.1172-3.519-5.2785 0.73899-0.7038 3.2023-3.4134 3.2023-6.7565 0-3.8005-2.9912-6.4046-7.5659-6.4046-4.997 0-7.4955 3.0263-7.4955 6.3342 0 2.2874 1.2668 3.8005 2.9912 4.9266-0.95013 0.59823-4.1876 2.9208-4.1876 6.9325zm11.05-6.0175c-3.4134-1.5836-7.3899-2.6041-7.3899-5.8768 0-2.217 1.8299-4.0469 4.997-4.0469 2.9912 0 5.1378 1.6188 5.1378 4.3284 0 2.8152-2.1466 4.997-2.7448 5.5952zm-8.516 5.8416c0-3.2023 2.78-5.1026 3.6246-5.6304 3.5894 1.7243 7.9178 2.7096 7.9178 6.0879 0 2.8504-2.8152 4.8562-5.736 4.8562s-5.8064-2.1114-5.8064-5.3137z"/>
  <path d="m112.68 16.258h9.994v-2.1818h-9.994z"/>
  <path d="m128.18 25.161h13.407v-2.1818h-5.4545v-22.557h-2.2522l-5.5952 5.56 1.5484 1.5484 2.6393-2.6041c0.98532-0.98533 1.2316-1.478 1.2316-1.478h0.0704s-0.0353 0.66861-0.0353 1.3724v18.158h-5.56z"/>
  <path d="m143.27 25.161h15.48v-2.1818h-12.95c0.0704-6.5806 12.563-7.7418 12.563-16.047 0-3.8709-2.8504-6.9325-7.5307-6.9325-3.3431 0-6.1231 1.9706-7.4955 4.4691l1.7947 1.2317c1.1965-1.9355 3.2375-3.3782 5.56-3.3782 3.0967 0 5.1378 2.041 5.1378 4.7507 0 6.6861-12.704 7.8122-12.704 16.504 0 0.49266 0.0704 1.0205 0.14075 1.5836z"/>
 </g>
 <g fill="#fff">
  <path style="color-rendering:auto;text-decoration-color:#000000;color:#000000;font-variant-numeric:normal;text-orientation:mixed;shape-rendering:auto;solid-color:#000000;text-decoration-line:none;font-variant-position:normal;mix-blend-mode:normal;font-variant-east-asian:normal;font-feature-settings:normal;shape-padding:0;font-variant-alternates:normal;text-indent:0;dominant-baseline:auto;font-variant-caps:normal;image-rendering:auto;white-space:normal;text-decoration-style:solid;font-variant-ligatures:normal;isolation:auto;text-transform:none" d="m9.2479 0.010093c-2.2529 0-4.321 0.66191-5.8619 1.9266s-2.5169 3.1668-2.5169 5.37c0 2.0896 0.92103 3.7289 2.1726 4.8535s2.7908 1.8327 4.2386 2.4759c1.4478 0.64325 2.8139 1.2257 3.7139 1.8939 0.90005 0.66818 1.32 1.2516 1.32 2.3202 0 0.88424-0.30983 1.4976-0.88544 1.9758-0.57559 0.47823-1.4667 0.80346-2.6071 0.80346-1.9173 0-3.9163-0.98469-5.1487-2.189l-0.9183-0.901-2.7547 3.55 0.72147 0.713c2.1301 2.1301 5.0832 3.2794 8.0345 3.2794 2.463 0 4.5386-0.77992 5.9767-2.1398s2.2054-3.2749 2.2054-5.3208c0-2.1441-0.91083-3.8144-2.1644-4.9683-1.253-1.154-2.791-1.866-4.246-2.5-1.4549-0.634-2.8378-1.1949-3.7386-1.8284-0.9008-0.6336-1.2954-1.1627-1.2954-2.148 0-0.86339 0.33665-1.4409 0.96742-1.9184 0.63078-0.47751 1.5916-0.78706 2.6891-0.78706 1.5032 0 3.2974 0.71736 4.2796 1.6479l1.0494 0.99202 2.3038-3.9353-0.66408-0.62308c-1.845-1.7299-4.445-2.5415-6.8701-2.5415z"/>
  <path style="color-rendering:auto;text-decoration-color:#000000;color:#000000;font-variant-numeric:normal;text-orientation:mixed;shape-rendering:auto;solid-color:#000000;text-decoration-line:none;font-variant-position:normal;mix-blend-mode:normal;font-variant-east-asian:normal;font-feature-settings:normal;shape-padding:0;font-variant-alternates:normal;text-indent:0;dominant-baseline:auto;font-variant-caps:normal;image-rendering:auto;white-space:normal;text-decoration-style:solid;font-variant-ligatures:normal;isolation:auto;text-transform:none" d="m20.355 0.78894v25.292h4.5174v-9.1003c0-3.4191 2.2614-5.6488 5.0995-5.6488 1.3098 0 1.6652 0.30958 1.984 0.87724 0.31881 0.56765 0.46731 1.6161 0.46731 2.8449v11.027h4.5174v-11.617c0-2.1634-0.36738-4.033-1.4839-5.4274s-2.9283-2.0988-5.1896-2.0988c-2.1394 0-3.897 0.78441-5.1651 1.7791-0.1182 0.09273-0.11934 0.19968-0.22957 0.29514v-8.2231z"/>
  <path style="color-rendering:auto;text-decoration-color:#000000;color:#000000;font-variant-numeric:normal;text-orientation:mixed;shape-rendering:auto;solid-color:#000000;text-decoration-line:none;font-variant-position:normal;mix-blend-mode:normal;font-variant-east-asian:normal;font-feature-settings:normal;shape-padding:0;font-variant-alternates:normal;text-indent:0;dominant-baseline:auto;font-variant-caps:normal;image-rendering:auto;white-space:normal;text-decoration-style:solid;font-variant-ligatures:normal;isolation:auto;text-transform:none" d="m49.51 6.5525c-5.3905 0-9.8136 4.2035-9.8136 9.6824 0 5.5651 4.4127 9.8464 9.8136 9.8464 5.4009 0.000004 9.8546-4.2763 9.8546-9.8464 0-5.4841-4.4641-9.6824-9.8546-9.6824zm0 4.296c2.9222 0 5.2634 2.2494 5.2634 5.3864 0 3.2879-2.3412 5.5258-5.2634 5.5258s-5.2224-2.2314-5.2224-5.5258c0-3.1438 2.3003-5.3864 5.2224-5.3864z"/>
  <path style="color-rendering:auto;text-decoration-color:#000000;color:#000000;font-variant-numeric:normal;text-orientation:mixed;shape-rendering:auto;solid-color:#000000;text-decoration-line:none;font-variant-position:normal;mix-blend-mode:normal;font-variant-east-asian:normal;font-feature-settings:normal;shape-padding:0;font-variant-alternates:normal;text-indent:0;dominant-baseline:auto;font-variant-caps:normal;image-rendering:auto;white-space:normal;text-decoration-style:solid;font-variant-ligatures:normal;isolation:auto;text-transform:none" d="m71.159 6.5525c-1.7442 0-3.2511 0.67125-4.542 1.6397v-1.2462h-4.427v25.284h4.5256v-7.6902c1.2304 0.91215 2.6445 1.5413 4.2468 1.5413 2.4459 0 4.635-1.0001 6.1489-2.7465 1.5138-1.7464 2.353-4.1933 2.353-7.0343 0-2.7394-0.73268-5.1588-2.1726-6.9277s-3.6047-2.8203-6.1325-2.8203zm-0.32796 4.3288c1.2153 0 2.1457 0.461 2.8695 1.361 0.7238 0.89995 1.2134 2.2853 1.2134 4.091-0.000004 1.8716-0.53346 3.2366-1.2954 4.1238-0.7619 0.88728-1.7489 1.3364-2.8859 1.3364-1.3125 0-2.2365-0.58238-2.9515-1.5741-0.71497-0.99173-1.1314-2.4179-1.1314-3.8533 0-2.1267 0.56902-3.471 1.3282-4.296 0.75913-0.82501 1.753-1.1888 2.8531-1.1888z"/>
 </g>
</svg>
