<svg width="600" height="88.677" version="1.1" viewBox="0 0 158.75 23.462441" xmlns="http://www.w3.org/2000/svg">
 <g transform="translate(-1.5119 -117.45)">
  <g fill="#1a4649">
   <path d="m159.68 129.27h0.58102v6.2306h-0.86328c2e-3 -1.6515-5e-3 -3.3037 4e-3 -4.9552-0.42112 0.29201-0.87303 0.54724-1.364 0.69887-0.0968-0.22069-0.19819-0.43914-0.27776-0.66584 0.72666-0.29051 1.4008-0.71614 1.9202-1.3084z"/>
   <path d="m154.07 132.46c-6.4e-4 -0.62607-6.4e-4 -1.2514 0-1.8767h0.75067v1.8767h1.689c-6.4e-4 0.23721-6.4e-4 0.47517 0 0.71314h-1.689v1.8774c-0.25147-1e-3 -0.50144-8.5e-4 -0.75067-8.5e-4 -6.4e-4 -0.62531-6.4e-4 -1.2514 0-1.8767h-1.689c-6.4e-4 -0.23797-6.4e-4 -0.47593 0-0.71314h1.689z"/>
   <path d="m6.5934 138.07q1.4264 0 2.0802-0.30882 0.6538-0.3369 0.6538-1.123 0-0.72995-0.71323-1.2072-0.6835-0.47728-2.2882-1.0388-0.98063-0.33689-1.8127-0.70186-0.80238-0.39305-1.3967-0.8984-0.59435-0.50534-0.95095-1.2072-0.3269-0.72994-0.3269-1.7687 0-2.0214 1.575-3.1724 1.575-1.1792 4.2793-1.1792 1.367 0 2.6151 0.25267 1.2481 0.22461 1.8722 0.4492l-0.65379 2.7514q-0.59435-0.25268-1.5156-0.4492-0.92125-0.2246-2.1397-0.2246-1.0996 0-1.783 0.36497-0.6835 0.3369-0.6835 1.0669 0 0.36497 0.11887 0.64572 0.14859 0.28074 0.47548 0.53342 0.3269 0.22459 0.86181 0.47727 0.53492 0.2246 1.3076 0.47727 1.2779 0.4492 2.1694 0.89838 0.89153 0.42113 1.4562 0.98261 0.59436 0.53342 0.86181 1.2352 0.26746 0.70187 0.26746 1.6845 0 2.1056-1.6642 3.2005-1.6345 1.0669-4.6954 1.0669-2.0505 0-3.2986-0.3369-1.2481-0.30881-1.7534-0.50534l0.62407-2.8356q0.80238 0.30883 1.9019 0.58958 1.1293 0.28074 2.5557 0.28074z"/>
   <path d="m14.898 140.52v-22.603l3.5958-0.46702v9.2033c0.39624-0.12517 0.85191-0.23246 1.367-0.32187 0.53491-0.0894 1.0599-0.13411 1.575-0.13411 1.2481 0 2.2783 0.16093 3.0906 0.4828 0.83209 0.30399 1.4958 0.74208 1.991 1.3143 0.4953 0.55432 0.842 1.2249 1.0401 2.0116 0.21793 0.78679 0.32689 1.663 0.32689 2.6286v7.8857h-3.5958v-7.3761c0-0.75102-0.05947-1.3858-0.1783-1.9043-0.09906-0.53645-0.27736-0.9656-0.53491-1.2875-0.23775-0.33975-0.56464-0.58115-0.98063-0.7242-0.41605-0.16094-0.93115-0.2414-1.5454-0.2414-0.47548 0-0.96091 0.0447-1.4562 0.13411-0.4953 0.0894-0.86181 0.16988-1.0996 0.2414v11.158z"/>
   <path d="m44.577 133.16q0 1.7407-0.53491 3.1724-0.53492 1.4318-1.5156 2.4425-0.98065 1.0107-2.3774 1.5721-1.367 0.56149-3.0312 0.56149-1.6641 0-3.0311-0.56149-1.367-0.56149-2.3477-1.5721-0.98073-1.0107-1.5454-2.4425-0.53492-1.4318-0.53492-3.1724 0-1.7407 0.53492-3.1444 0.56463-1.4318 1.5454-2.4425 1.0104-1.0107 2.3774-1.5441 1.367-0.5615 3.0015-0.5615 1.6345 0 3.0015 0.5615 1.3967 0.53342 2.3775 1.5441 0.98072 1.0107 1.5156 2.4425 0.56464 1.4038 0.56464 3.1444zm-3.685 0q0-2.1898-1.0104-3.4532-0.98063-1.2914-2.7638-1.2914-1.7831 0-2.7935 1.2914-0.98073 1.2633-0.98073 3.4532 0 2.2179 0.98073 3.5094 1.0104 1.2914 2.7935 1.2914 1.783 0 2.7638-1.2914 1.0104-1.2914 1.0104-3.5094z"/>
   <path d="m55.963 131.28q-0.6835 2.4706-1.4859 4.8288-0.77266 2.3302-1.5453 4.4077h-2.9421q-0.59436-1.2914-1.2481-2.9478-0.6538-1.6564-1.3076-3.5374-0.65378-1.881-1.3076-3.9585-0.6538-2.0775-1.2779-4.2393h3.8039q0.26746 1.1791 0.62406 2.5548 0.35662 1.3476 0.74295 2.7794 0.38633 1.4038 0.80238 2.7513 0.41605 1.3476 0.83209 2.4706 0.44576-1.2914 0.86181-2.6671 0.44576-1.3757 0.83209-2.7514 0.38632-1.3757 0.71322-2.6671 0.35661-1.3195 0.62406-2.4706h2.7638q0.26745 1.151 0.59434 2.4706 0.3269 1.2914 0.68351 2.6671 0.38633 1.3757 0.80237 2.7514 0.44577 1.3757 0.89153 2.6671 0.38633-1.123 0.80238-2.4706 0.41604-1.3476 0.80238-2.7513 0.41604-1.4318 0.77266-2.7794 0.35661-1.3757 0.62407-2.5548h3.7147q-0.62406 2.1618-1.2779 4.2393-0.65382 2.0776-1.3076 3.9585-0.6538 1.881-1.3076 3.5374-0.65379 1.6564-1.2779 2.9478h-2.9123q-0.77265-2.0776-1.6047-4.4077-0.80238-2.3583-1.4859-4.8288z"/>
   <path d="m67.181 133.19q0-1.6283 0.53491-3.0321 0.53492-1.4318 1.5156-2.4706 1.0104-1.0388 2.4368-1.6283 1.4264-0.58953 3.2095-0.58957 2.1991 0 4.1605 0.75802l-0.77268 2.7794q-0.62405-0.25267-1.4264-0.42111-0.77266-0.16846-1.6642-0.16846-2.11 0-3.2095 1.2633-1.0996 1.2353-1.0996 3.5094 0 2.1898 1.0401 3.4812 1.0401 1.2633 3.5067 1.2633 0.92125 0 1.8128-0.16845 0.89154-0.16845 1.5453-0.42113l0.5052 2.8075q-0.59437 0.28075-1.8128 0.50535-1.1887 0.22459-2.4665 0.22459-1.991 0-3.4769-0.56149-1.4562-0.58957-2.4368-1.6002-0.95094-1.0388-1.4264-2.4425-0.47548-1.4318-0.47548-3.0882z"/>
   <path d="m87.211 138.13q1.6642 0 2.526-0.16845v-3.762q-0.29716-0.0843-0.8618-0.16845-0.56464-0.0843-1.2482-0.0843-0.59432 0-1.2184 0.0843-0.59435 0.0843-1.0996 0.30882-0.47547 0.2246-0.77265 0.64573-0.29716 0.39304-0.29716 1.0107 0 1.2072 0.80235 1.6845 0.80239 0.44919 2.1695 0.44919zm-0.2972-12.661q1.783 0 3.0015 0.42112 1.2184 0.42112 1.9317 1.1791 0.74296 0.75803 1.0401 1.853 0.32689 1.0669 0.32689 2.3583v8.8997q-0.8321 0.16844-2.526 0.39304-1.6642 0.25266-3.7742 0.25266-1.3967 0-2.5557-0.25266-1.1589-0.25267-1.991-0.81417-0.80239-0.5615-1.2779-1.4599-0.44578-0.89839-0.44578-2.2179 0-1.2633 0.50521-2.1337 0.53493-0.87031 1.4264-1.4038 0.89153-0.56149 2.0505-0.78609 1.1887-0.25268 2.4666-0.25268 0.59432 0 1.2481 0.0843 0.6538 0.0562 1.3967 0.22461v-0.5615q0-0.58957-0.14859-1.123-0.14858-0.53342-0.53492-0.92646-0.35659-0.42112-0.98064-0.64572-0.59437-0.2246-1.5156-0.2246-1.2481 0-2.2882 0.16845-1.0401 0.16845-1.6939 0.39304l-0.44575-2.7513q0.68351-0.2246 1.991-0.44919 1.3076-0.22461 2.7935-0.22461z"/>
   <path d="m100.36 138.07q1.4264 0 2.0802-0.30882 0.65377-0.3369 0.65377-1.123 0-0.72995-0.71322-1.2072-0.68352-0.47728-2.2882-1.0388-0.98072-0.33689-1.8127-0.70186-0.80238-0.39305-1.3967-0.8984-0.59431-0.50534-0.95094-1.2072-0.32689-0.72994-0.32689-1.7687 0-2.0214 1.575-3.1724 1.575-1.1792 4.2793-1.1792 1.367 0 2.6152 0.25267 1.2481 0.22461 1.8722 0.4492l-0.65377 2.7514q-0.59435-0.25268-1.5156-0.4492-0.92123-0.2246-2.1397-0.2246-1.0996 0-1.783 0.36497-0.68351 0.3369-0.68351 1.0669 0 0.36497 0.11884 0.64572 0.14859 0.28074 0.4755 0.53342 0.32689 0.22459 0.86182 0.47727 0.53492 0.2246 1.3076 0.47727 1.2778 0.4492 2.1694 0.89838 0.89152 0.42113 1.4562 0.98261 0.59433 0.53342 0.8618 1.2352 0.26743 0.70187 0.26743 1.6845 0 2.1056-1.6642 3.2005-1.6344 1.0669-4.6954 1.0669-2.0505 0-3.2986-0.3369-1.2482-0.30881-1.7534-0.50534l0.62409-2.8356q0.80236 0.30883 1.9019 0.58958 1.1293 0.28074 2.5558 0.28074z"/>
   <path d="m108.18 133.25q0-1.9371 0.59438-3.397 0.62402-1.4599 1.6344-2.4145 1.0104-0.9826 2.318-1.4599 1.3076-0.50535 2.6745-0.50535 3.2096 0 4.9926 1.881 1.8127 1.881 1.8127 5.6149 0 0.28075-0.0298 0.64573 0 0.33689-0.0298 0.61764h-10.253q0.14859 1.7687 1.3076 2.7513 1.1887 0.95452 3.4175 0.95452 1.3076 0 2.3775-0.22461 1.0996-0.2246 1.7236-0.47726l0.47549 2.7794q-0.29719 0.14036-0.83209 0.30881-0.50521 0.14037-1.1887 0.25268-0.65377 0.14037-1.4264 0.22459-0.77267 0.0843-1.575 0.0843-2.0505 0-3.5662-0.56149-1.5156-0.58957-2.4963-1.6002-0.98074-1.0388-1.4562-2.4145-0.47547-1.4038-0.47547-3.0602zm10.431-1.516q0-0.70187-0.20806-1.3195-0.20802-0.64571-0.62404-1.0949-0.38634-0.47727-0.98073-0.72995-0.5646-0.28074-1.367-0.28074-0.8321 0-1.4562 0.30882-0.62409 0.28074-1.0698 0.75802-0.41608 0.47727-0.6538 1.0949-0.23772 0.61763-0.32688 1.2633z"/>
  </g>
  <path d="m130.3 121.22-4.4436 0.65575v12.497c0 0.92923 0.0893 1.7764 0.26828 2.5416 0.19885 0.76524 0.53671 1.4207 1.0139 1.9673 0.47722 0.52838 1.1138 0.94784 1.9091 1.2576 0.79534 0.29152 1.7988 0.43717 3.0117 0.43717 0.95432 0 1.7602-0.0728 2.4164-0.21858 0.65616-0.14576 2.8494-0.77006 3.3862-0.97049l-1.2687-3.083c-0.41753 0.14575-1.8396 0.62792-2.3565 0.71902-0.49709 0.0729-0.98401 0.10899-1.4612 0.10899-0.99416 0-1.6603-0.25459-1.9984-0.76475-0.31812-0.51016-0.47729-1.1935-0.47729-2.0499v-5.0556h3.0877c-0.3768-1.0952-0.74694-2.2228-1.1085-3.389h-1.9792z" fill="#004a5b"/>
  <path d="m141.23 140.24q-1.4703-2.7931-2.9983-6.5359-1.4992-3.7428-2.8542-8.1558h4.5552q0.28831 1.0893 0.66313 2.3742 0.40359 1.2569 0.80722 2.5697 0.43246 1.2848 0.83606 2.5138 0.43248 1.2289 0.83608 2.2345 0.37481-1.0055 0.80724-2.2345 0.43245-1.2289 0.83608-2.5138 0.43245-1.3127 0.80726-2.5697 0.4036-1.2848 0.69191-2.3742h4.4398q-1.355 4.4131-2.883 8.1558-1.4991 3.7428-2.9695 6.5359z" fill="#004a5b"/>
 </g>
</svg>
