<?xml version="1.0" encoding="UTF-8" standalone="no"?>
<!-- Created with Inkscape (http://www.inkscape.org/) -->
<svg xmlns:rdf="http://www.w3.org/1999/02/22-rdf-syntax-ns#" xmlns="http://www.w3.org/2000/svg" height="206.04" width="600" version="1.1" xmlns:cc="http://creativecommons.org/ns#" xmlns:dc="http://purl.org/dc/elements/1.1/">
 <metadata>
  <rdf:RDF>
   <cc:Work rdf:about="">
    <dc:format>image/svg+xml</dc:format>
    <dc:type rdf:resource="http://purl.org/dc/dcmitype/StillImage"/>
    <dc:title/>
   </cc:Work>
  </rdf:RDF>
 </metadata>
 <g transform="translate(-338.62532,-403.76826)">
  <g fill="#000" transform="matrix(0.99999707,0,0,0.99999707,0.0018742,0.00148729)">
   <path d="m474.67,576.23-23.583,0,0-58.666-25.494,0,0,58.666-23.583,0,0-135.31,23.583,0,0,54.536,25.494,0,0-54.536,23.583,0,0,135.31zm9.7924-68.027c0-41.274,15.279-67.287,33.489-69.991-18.193-22.447-48.654-34.441-76.322-34.441-30.434,0-57.803,13.2-76.666,34.194,18.008,3.6017,24.137,18.678,24.137,41.979h-22.015c0-13.72-2.8972-20.87-11.052-20.87-3.6193,0-6.4636,1.8405-8.1632,5.0107l-0.7133,1.6379c-0.66045,1.7436-0.97747,3.7514-0.97747,6.0498,0,28.549,46.857,27.123,46.857,70.977,0,17.145-13.121,33.128-27.889,33.128,19.409,21.214,45.932,33.93,76.481,33.93,29.72,0,56.482-12.593,75.257-32.697-17.304-4.3942-32.424-29.315-32.424-68.908" fill-rule="evenodd"/>
   <path d="m358.99,554.64c6.5781,0,11.254-5.768,11.254-14.187,0-17.427-15.252-20.844-31.614-35.541-0.23776,29.87,9.0174,49.728,20.36,49.728" fill-rule="evenodd"/>
   <path d="m507.85,506c0-22.728,6.6574-45.519,18.739-45.519,14.416,0,18.035,35.189,18.035,46.294,0,24.402-7.6877,46.461-18.035,46.461-12.381,0-18.739-23.195-18.739-47.236" fill-rule="evenodd"/>
   <path d="m743.32,442.8-18.405,0-63.774,0-2.9676,0-14.222,0-9.4225,77.238-0.37866,0-10.506-77.238-21.628,0-11.501,77.238-0.35225,0-8.4802-77.238-21.839,0,17.577,131.62,21.047,0,11.871-83.402,0.35225,0,11.448,83.402,21.813,0,14.53-111.3,20.395,0,0,111.3,24.014,0,0-111.3,22.024,0,0,111.3,23.979,0,0-131.62-5.5742,0z" fill-rule="nonzero"/>
   <path d="m760.75,442.8,31.957,0,10.735,67.455,0.36105,0,11.298-67.455,31.226,0,0,131.62-21.443,0,0-96.506-0.36986,0-16.265,96.506-13.324,0-16.071-96.506-0.36985,0,0,96.506-17.735,0,0-131.62z" fill-rule="nonzero"/>
   <path d="m858.11,442.8,54.342,0,0,20.316-30.302,0,0,33.648,22.367,0,0,21.46-22.367,0,0,35.841,31.587,0,0,20.351-55.628,0,0-131.62z" fill-rule="nonzero"/>
   <path d="m922.37,572.41c1.814,1.8229,4.1829,2.8091,6.7366,2.8091,5.266,0,9.5194-4.2445,9.5194-9.581,0-2.4833-0.98628-4.8786-2.7563-6.719-1.8405-1.7788-4.2181-2.7827-6.7631-2.7827-2.5538,0-4.9226,1.0039-6.7366,2.7827-1.7964,1.8405-2.8003,4.2357-2.8003,6.719,0,2.5714,1.0039,4.949,2.8003,6.7719m-1.3914-6.7719c0-2.1399,0.85419-4.2005,2.3776-5.724,1.5234-1.4882,3.5665-2.3512,5.7504-2.3512,2.1751,0,4.2093,0.863,5.768,2.3512,1.5058,1.5234,2.36,3.5841,2.36,5.724,0,4.5351-3.6369,8.1368-8.128,8.1368-2.1839,0-4.2269-0.80135-5.7504-2.3336-1.5234-1.5322-2.3776-3.5841-2.3776-5.8032" fill-rule="nonzero"/>
   <path d="m933.25,571.08-2.0958-5.0018c1.2505-0.31702,1.9902-1.4618,1.9902-2.7475,0-0.91583-0.41389-1.8229-1.1272-2.3688-0.7309-0.54597-1.5587-0.66045-2.4657-0.66045h-4.0244v10.779h1.3473v-4.6408h2.9853l1.9902,4.6408h1.4002zm-6.3756-5.7504,0-3.8306,2.677,0,1.5058,0.31702,0.77493,1.4706-0.59,1.4618-1.8493,0.58121-2.5185,0z" fill-rule="nonzero"/>
  </g>
 </g>
</svg>
