<svg xmlns="http://www.w3.org/2000/svg" width="52.917mm" height="30.492mm" viewBox="0 0 52.916664 30.491508"><defs><clipPath><path d="M64.183 625.566h3.695v-5.844h-3.695z"/></clipPath><clipPath id="a"><path d="M64.183 619.722h3.694v5.845h-3.694z"/></clipPath><clipPath><path d="M63.063 625.874h4.273v-6.162h-4.273z"/></clipPath><clipPath id="b"><path d="M63.063 619.712h4.273v6.162h-4.273z"/></clipPath></defs><g><path d="M23.52 15.306l.067-.067c.443-.421.855-.864 1.236-1.328.47-.574.888-1.178 1.26-1.804l.314-.559.089-.162.015-.021.232-.488c.201-.47.348-.964.436-1.465v-.012c.101-.61-.034-1.26-.424-1.801-.378-.525-.931-.855-1.52-.964l-.211-.031c-.433-.055-.876-.067-1.315-.034-.201.015-.403.037-.604.07l-.024.006-.211.04c-.201.034-.4.07-.598.116-.714.153-1.419.36-2.112.626-.562.211-1.111.458-1.651.748l-.085.046c-.549.293-1.087.632-1.611 1.007l-.009.006c-.351.253-.687.519-1.007.797-.33.281-.641.577-.937.882l-.119.125-.006.006c-.415.452-.76.952-1.041 1.483l-.128.247c-.143.308-.247.632-.305.961-.195 1.044.018 2.161.687 3.092.671.931 1.663 1.486 2.716 1.63.421.058.772.043 1.044.006l.058-.009c.65-.089 1.297-.272 1.917-.549l-.006.003.168-.076c.385-.183.763-.388 1.132-.61.369-.217.732-.455 1.087-.708.522-.378 1.013-.781 1.468-1.209" fill="#90278e"/><g><path d="M23.538 10.078l.015-.11c.104-.699.165-1.392.177-2.088.021-.858-.027-1.706-.134-2.545l-.113-.732-.031-.211-.006-.027c-.037-.204-.082-.412-.134-.61-.153-.577-.369-1.126-.65-1.645l-.003-.012c-.348-.629-.931-1.123-1.676-1.34-.717-.211-1.456-.116-2.072.204l-.211.122c-.436.259-.848.562-1.227.906-.174.156-.339.32-.497.494l-.018.021-.165.189c-.159.174-.314.348-.464.531-.54.65-1.038 1.34-1.477 2.075-.36.592-.687 1.212-.974 1.856l-.046.104c-.29.665-.54 1.355-.748 2.066l-.003.012c-.14.482-.256.961-.354 1.447-.098.491-.171.983-.226 1.471l-.018.198v.009c-.058.711-.012 1.413.11 2.094l.061.317c.089.382.223.748.406 1.099.565 1.087 1.557 1.953 2.829 2.323 1.273.369 2.576.168 3.638-.449.424-.247.732-.513.955-.736l.049-.052c.528-.546.986-1.175 1.352-1.868l-.003.009.101-.192c.217-.439.415-.897.598-1.361.18-.461.342-.94.482-1.422.208-.714.363-1.431.476-2.149" fill="#eb2360" clip-path="url(#a)"/></g><g><path d="M19.769 5.986l-.064-.104c-.391-.653-.821-1.276-1.282-1.868-.574-.726-1.196-1.404-1.865-2.03-.195-.183-.394-.363-.598-.534l-.168-.156-.027-.018c-.171-.15-.348-.29-.531-.421-.519-.375-1.08-.687-1.669-.928l-.012-.006c-.72-.287-1.55-.299-2.316.031-.748.32-1.297.903-1.593 1.593l-.095.247c-.186.516-.324 1.056-.4 1.599-.037.25-.064.504-.073.757l-.003.031-.009.272c-.012.253-.021.507-.021.76-.006.916.055 1.834.189 2.75.107.745.262 1.483.467 2.219l.031.116c.214.754.476 1.502.794 2.24l.006.012c.214.497.449.983.699 1.453.256.476.528.94.821 1.383l.119.18.006.009c.439.629.961 1.187 1.529 1.672l.272.223c.336.259.705.473 1.09.638 1.221.522 2.646.562 3.961 0 1.318-.568 2.271-1.63 2.732-2.878.183-.497.259-.928.293-1.27l.006-.073c.064-.824.015-1.657-.156-2.49l.003.006-.046-.226c-.122-.519-.269-1.035-.436-1.55-.171-.51-.36-1.016-.574-1.52-.317-.739-.681-1.444-1.077-2.118" fill="#ee1f7c" clip-path="url(#b)"/></g><path d="M34.663 18.015l-.027 7.023h.653c.009-2.344.018-4.709.031-7.041h-.65l-.006.018m9.067 4.035c.058-.549.311-.928.626-1.224.317-.296.83-.436 1.401-.461.623-.031 1.166.116 1.526.397.168.131.33.327.439.522.119.217.171.479.171.772-1.444.006-2.744-.009-4.163-.006m14.054 4.609c.006-.476-.082-.888-.204-1.239-.125-.366-.308-.641-.562-.891 4.471.067 3.687-.293 2.628-.211-1.141.085-1.868.577-2.286 1.389-.229.446-.366 1.019-.314 1.63.049.592.217 1.077.501 1.459.269.363.687.656 1.132.824.485.186 1.102.262 1.724.177 1.141-.159 1.795-.806 2.146-1.776h-.806c-.183.403-.409.763-.824.949-.397.183-.955.287-1.52.195-.253-.043-.485-.116-.674-.214-.195-.101-.342-.241-.476-.415-.256-.33-.424-.763-.464-1.309 1.709-.003 3.345.003 4.987.006m-16.493-.366c0 .266.012.531-.021.784-.027.253-.073.455-.174.626-.092.159-.25.296-.397.397-.162.113-.327.208-.522.278-.555.201-1.56.262-1.981-.082-.232-.192-.333-.47-.388-.812-.055-.351-.04-.769-.04-1.166 0-.8 0-1.605.006-2.393h-.656l-.006.018c-.006.778-.006 1.59-.006 2.408 0 .72-.052 1.459.168 1.956l.098.211.171.168.195.15c.421.272 1.071.351 1.73.296.424-.034.769-.14 1.056-.314.287-.177.543-.378.751-.626l.046-.034v.894l.665.009c.009-1.694.012-3.44.018-5.137h-.702c-.009.8-.012 1.572-.012 2.368m9.357-1.822c-.034-.067-.125-.131-.186-.186l-.198-.156c-.43-.269-1.129-.354-1.798-.281-.433.046-.772.162-1.068.345-.143.092-.284.192-.412.299-.119.095-.217.204-.317.305l-.037.027c0-.949.009-1.883.012-2.82h-.662l-.012.018c-.006 2.371-.018 4.691-.034 7.05h.717c.006-.552-.012-1.083 0-1.611.009-.522-.021-1.062.012-1.587.027-.497.311-.766.623-.992.324-.235.702-.369 1.19-.424.528-.058 1.053.006 1.334.235.15.131.244.29.308.497.064.204.089.443.107.702v.4l-.003.4-.012 2.399h.674c.003-.781.012-1.621.012-2.439 0-.742.07-1.456-.156-1.972l-.095-.211m11.372-.644c-.171-.046-.348-.079-.552-.092l-.214-.003-.192.034-.208.021-.217.098-.226.098-.208.186c-.177.156-.342.32-.452.534l-.067.128c.006-.299.006-.635.003-.922l-.681.009c-.012 1.734-.027 3.461-.043 5.191h.723l.015-1.859c0-.29-.003-.632.012-.928l.006-.461c.012-.14.037-.275.085-.388.098-.244.324-.491.501-.656.104-.095.211-.177.339-.238l.223-.07.229-.067c.305-.046.644-.031.916.049l.006-.665m-26.54 1.376c-.058-.36-.195-.671-.427-.888-.439-.415-1.288-.577-2.078-.421-.372.07-.684.18-.952.351-.235.153-.436.336-.629.516l-.092.064c-.186-.327-.4-.62-.751-.784-.342-.159-.824-.238-1.328-.214-.507.024-.882.119-1.218.317-.275.159-.537.357-.732.583l-.089.092v-.888h-.659c.003 1.688.012 3.351.009 5.069h.687l-.006-2.347c0-.262-.015-.525.012-.778.027-.241.11-.406.226-.568.339-.467.809-.778 1.52-.855.513-.055 1.038.003 1.312.229.433.363.406 1.169.406 1.972v2.374h.656v-2.393c0-.269-.015-.537 0-.8.012-.253.089-.43.208-.592.113-.153.256-.281.403-.391.317-.238.693-.375 1.178-.427.266-.024.525-.015.739.034.653.143.961.653.961 1.441v1.596c0 .47-.018 1.025 0 1.538h.681c.006-.913-.006-1.715-.006-2.555 0-.452.027-.909-.031-1.276" fill="#d60a7c"/><path d="M12.33 20.719c.217-.092.458-.162.754-.168.439-.009.8.098 1.074.25.284.159.446.436.574.748h1.499c-.061-.269-.143-.513-.244-.729-.104-.22-.25-.397-.415-.562-.327-.327-.739-.552-1.26-.69-.168-.046-.348-.089-.537-.116-.272-.04-.559-.049-.848-.024-.25.018-.464.046-.678.089-.275.058-.528.128-.775.244l-.339.165c-.415.269-.745.601-.964 1.068-.162.345-.281.769-.281 1.248 0 .623.18 1.166.433 1.602.156.266.363.491.595.671l.153.101c.653.436 1.654.653 2.701.531l.214-.037c.583-.104 1.053-.299 1.431-.601.256-.198.479-.433.607-.751.104-.238.159-.479.186-.809-.464-.009-.964-.006-1.456-.006-.085.327-.217.586-.455.763-.232.168-.531.281-.894.317-.394.04-.781-.003-1.074-.116-.574-.22-.906-.742-.977-1.453-.058-.574.159-1.071.439-1.367.15-.159.333-.281.537-.369" fill="#d60a7c"/><path d="M7.146 19.589l-.006.015c.018 1.804.024 3.62.046 5.423h1.355c-.018-1.81-.034-3.623-.04-5.439z" fill="#d60a7c"/><path d="M5.375 22.516l-.186-.223c-.131-.134-.314-.244-.485-.324-.122-.052-.256-.104-.391-.14l-.446-.089c-.308-.052-.656-.058-.986-.082-.253-.018-.501-.024-.717-.085l-.107-.021-.204-.085-.098-.058-.14-.177c-.046-.107-.046-.192-.024-.32l.089-.153.076-.067.174-.107c.351-.168.931-.198 1.361-.095.406.098.665.339.76.726l.607.009h.742c-.031-.467-.211-.818-.461-1.068l-.073-.064c-.098-.089-.198-.177-.317-.244-.226-.131-.504-.241-.812-.302-.302-.055-.653-.107-1.022-.085-.162.006-.333.015-.485.037-.293.037-.568.098-.809.186l-.354.153c-.11.061-.208.122-.299.201-.095.073-.168.156-.244.253-.107.131-.211.299-.262.485-.034.119-.061.211-.07.351l-.006.162c0 .162.043.327.082.446l.052.156.098.14.095.14.119.116.137.107.165.089.168.092.32.095.348.064c.244.043.497.064.745.089.507.052 1.047.073 1.41.256l.192.137.082.131c.04.14-.021.266-.082.345l-.058.082-.14.11-.159.092c-.11.052-.247.104-.378.128-.217.031-.47.031-.69 0-.22-.037-.43-.067-.607-.143-.14-.061-.256-.116-.357-.201-.177-.14-.275-.348-.305-.632-.452-.006-.919-.006-1.389-.006-.021.519.095.873.32 1.138.107.131.232.253.378.354.214.143.439.256.711.345l.272.064c.183.04.375.079.574.095.415.037.879.04 1.273 0 .497-.049.934-.189 1.285-.382.146-.082.269-.186.378-.293.247-.253.4-.65.382-1.126-.009-.317-.101-.604-.229-.8" fill="#d60a7c"/><path d="M35.632 29.052c0 .235.07.351.174.351.122 0 .214-.226.217-.842 0-.568-.122-.711-.211-.711l-.18.073zm0 .897c0 .153.061.241.192.241v.012h-1.145v-.012c.137 0 .198-.089.198-.241v-1.947c0-.137-.058-.177-.195-.177l-.003-.012c.522 0 .925-.168.925-.168l.027.266c.162-.079.296-.266.559-.266.378 0 .629.342.629.769 0 .577-.406 1.004-1.059 1.004l-.128-.012z" fill="#3890b6"/><path d="M37.9 28.802l.012-.293c-.18.027-.266.229-.266.476 0 .153.049.253.153.253l.171-.049s-.07-.092-.07-.388m.723.247c0 .18.061.226.131.226l.101-.055.009.009c-.07.095-.235.177-.439.177-.204 0-.354-.058-.446-.201-.153.043-.314.214-.632.214-.244 0-.461-.11-.461-.369 0-.348.366-.555 1.025-.555 0 0 .021-.241.021-.501 0-.235-.049-.33-.177-.33-.125 0-.189.113-.189.253 0 .125.034.22.098.314-.092.073-.253.122-.36.122-.186 0-.302-.11-.302-.259 0-.287.461-.449.876-.449.589 0 .778.22.778.687l-.034.717" fill="#3890b6"/><path d="M40.016 29.35l-.571-.012-.574.012v-.012c.131 0 .192-.089.192-.238v-1.096c0-.131-.067-.18-.189-.18l-.003-.012c.519 0 .952-.168.952-.168v.308c.168-.064.262-.308.513-.308.192 0 .324.146.324.33 0 .183-.119.363-.348.363-.079 0-.177-.034-.22-.07l.04-.159c0-.089-.055-.183-.153-.183l-.156.037v1.209c0 .107.049.168.192.168z" fill="#3890b6"/><path d="M41.59 29.061c0 .107.064.156.137.156.052 0 .128-.024.183-.067l.003.009c-.128.143-.345.259-.583.259-.29 0-.494-.11-.494-.476v-1.215h-.128v-.012c.351 0 .742-.244.873-.479l.009.003v.476h.208v.012h-.208z" fill="#3890b6"/><path d="M43.128 28.325l.012-.235c0-.262-.076-.43-.177-.43-.113 0-.195.247-.22.681zm.098.919c.18 0 .342-.064.473-.156l.006.006c-.168.201-.433.324-.79.324-.635 0-.974-.336-.974-.845 0-.504.458-.928 1.053-.928.464 0 .797.217.824.681l-.027.027h-1.047l-.003.146c0 .406.14.745.485.745" fill="#3890b6"/><path d="M45.323 29.237v-.427c0-.278-.046-.391-.11-.391s-.107.128-.107.467c0 .308.07.391.119.391l.098-.04m0-1.09c0-.076-.04-.104-.104-.104l-.003-.003c.284 0 .519-.095.519-.095v1.245c0 .076.034.101.11.101v.006c-.287 0-.507.089-.507.089l-.015-.143c-.089.046-.165.143-.308.143-.204 0-.345-.186-.345-.421 0-.317.223-.552.583-.552l.07.006z" fill="#3890b6"/><path d="M46.513 28.787l.009-.131c0-.143-.043-.235-.098-.235-.061 0-.107.137-.122.375zm.055.504c.101 0 .189-.037.259-.085l.003.006c-.092.11-.235.174-.433.174-.348 0-.534-.183-.534-.461s.25-.51.58-.51c.253 0 .436.119.449.372l-.012.015h-.577l-.003.079c0 .223.079.409.269.409" fill="#3890b6"/><path d="M50.09 27.624h-.015c-.061-.415-.378-.906-.888-.906-.159 0-.281.095-.281.266 0 .586 1.422.653 1.422 1.56 0 .555-.458.916-1.306.916-.372 0-.418-.119-1.068-.119l-.046-.949h.018c.098.525.528 1.044 1.032 1.044.214 0 .33-.137.33-.302 0-.61-1.389-.705-1.389-1.581 0-.546.491-.855 1.23-.855.372 0 .568.122.992.122z" fill="#3890b6"/><path d="M50.731 26.012c0-.299.195-.528.604-.528.412 0 .61.229.61.528 0 .293-.198.51-.61.51-.409 0-.604-.217-.604-.51m1.413 3.339s-.363-.015-.79-.015c-.531 0-.897.015-.897.015v-.015c.208 0 .302-.143.302-.372v-1.709c0-.208-.107-.284-.299-.284l-.003-.012c.806 0 1.48-.259 1.48-.259v2.432c0 .159.092.204.208.204z" fill="#3890b6"/></g></svg>