<svg width="52.917mm" height="30.492mm" version="1.1" viewBox="0 0 52.917 30.492" xmlns="http://www.w3.org/2000/svg">
 <defs>
  <clipPath id="d">
   <path d="m64.183 625.57h3.695v-5.844h-3.695z"/>
  </clipPath>
  <clipPath id="c">
   <path d="m64.183 619.72h3.694v5.845h-3.694z"/>
  </clipPath>
  <clipPath id="b">
   <path d="m63.063 625.87h4.2732v-6.162h-4.2732z"/>
  </clipPath>
  <clipPath id="a">
   <path d="m63.063 619.71h4.273v6.162h-4.273z"/>
  </clipPath>
 </defs>
 <g transform="translate(-80.099 -98.504)">
  <g transform="matrix(3.0515 0 0 -3.0515 -103.33 2008.4)">
   <g transform="translate(67.807 620.76)">
    <path d="m0 0 0.022 0.022c0.145 0.138 0.28 0.283 0.405 0.435 0.154 0.188 0.291 0.386 0.413 0.591 0.035 0.06 0.071 0.122 0.103 0.183 0.01 0.017 0.02 0.036 0.029 0.053l5e-3 7e-3c0.027 0.053 0.053 0.105 0.076 0.16 0.066 0.154 0.114 0.316 0.143 0.48v4e-3c0.033 0.2-0.011 0.413-0.139 0.59-0.124 0.172-0.305 0.28-0.498 0.316-0.023 4e-3 -0.045 8e-3 -0.069 0.01-0.142 0.018-0.287 0.022-0.431 0.011-0.066-5e-3 -0.132-0.012-0.198-0.023l-8e-3 -2e-3c-0.023-3e-3 -0.046-8e-3 -0.069-0.013-0.066-0.011-0.131-0.023-0.196-0.038-0.234-0.05-0.465-0.118-0.692-0.205-0.184-0.069-0.364-0.15-0.541-0.245-9e-3 -5e-3 -0.019-0.01-0.028-0.015-0.18-0.096-0.356-0.207-0.528-0.33 0 0-2e-3 -2e-3 -3e-3 -2e-3 -0.115-0.083-0.225-0.17-0.33-0.261-0.108-0.092-0.21-0.189-0.307-0.289-0.013-0.014-0.026-0.027-0.039-0.041l-2e-3 -2e-3c-0.136-0.148-0.249-0.312-0.341-0.486-0.014-0.026-0.028-0.054-0.042-0.081-0.047-0.101-0.081-0.207-0.1-0.315-0.064-0.342 6e-3 -0.708 0.225-1.013 0.22-0.305 0.545-0.487 0.89-0.534 0.138-0.019 0.253-0.014 0.342-2e-3 6e-3 0 0.013 1e-3 0.019 3e-3 0.213 0.029 0.425 0.089 0.628 0.18l-2e-3 -1e-3c0.017 8e-3 0.037 0.016 0.055 0.025 0.126 0.06 0.25 0.127 0.371 0.2 0.121 0.071 0.24 0.149 0.356 0.232 0.171 0.124 0.332 0.256 0.481 0.396" fill="#90278e"/>
   </g>
   <g clip-path="url(#d)">
    <g clip-path="url(#c)">
     <g transform="translate(67.813 622.48)">
      <path d="m0 0c2e-3 0.012 3e-3 0.024 5e-3 0.036 0.034 0.229 0.054 0.456 0.058 0.684 7e-3 0.281-9e-3 0.559-0.044 0.834-0.011 0.081-0.023 0.161-0.037 0.24-3e-3 0.023-7e-3 0.046-0.01 0.069l-2e-3 9e-3c-0.012 0.067-0.027 0.135-0.044 0.2-0.05 0.189-0.121 0.369-0.213 0.539 0 2e-3 -1e-3 3e-3 -1e-3 4e-3 -0.114 0.206-0.305 0.368-0.549 0.439-0.235 0.069-0.477 0.038-0.679-0.067-0.023-0.011-0.046-0.025-0.069-0.04-0.143-0.085-0.278-0.184-0.402-0.297-0.057-0.051-0.111-0.105-0.163-0.162l-6e-3 -7e-3c-0.019-0.02-0.036-0.042-0.054-0.062-0.052-0.057-0.103-0.114-0.152-0.174-0.177-0.213-0.34-0.439-0.484-0.68-0.118-0.194-0.225-0.397-0.319-0.608-4e-3 -0.012-9e-3 -0.022-0.015-0.034-0.095-0.218-0.177-0.444-0.245-0.677 0-2e-3 -1e-3 -3e-3 -1e-3 -4e-3 -0.046-0.158-0.084-0.315-0.116-0.474-0.032-0.161-0.056-0.322-0.074-0.482-2e-3 -0.022-4e-3 -0.042-6e-3 -0.065v-3e-3c-0.019-0.233-4e-3 -0.463 0.036-0.686 6e-3 -0.035 0.012-0.069 0.02-0.104 0.029-0.125 0.073-0.245 0.133-0.36 0.185-0.356 0.51-0.64 0.927-0.761s0.844-0.055 1.192 0.147c0.139 0.081 0.24 0.168 0.313 0.241 5e-3 5e-3 0.01 0.011 0.016 0.017 0.173 0.179 0.323 0.385 0.443 0.612l-1e-3 -3e-3c0.01 0.021 0.022 0.042 0.033 0.063 0.071 0.144 0.136 0.294 0.196 0.446 0.059 0.151 0.112 0.308 0.158 0.466 0.068 0.234 0.119 0.469 0.156 0.704" fill="#eb2360"/>
     </g>
    </g>
   </g>
   <g clip-path="url(#b)">
    <g clip-path="url(#a)">
     <g transform="translate(66.578 623.82)">
      <path d="m0 0c-6e-3 0.011-0.014 0.022-0.021 0.034-0.128 0.214-0.269 0.418-0.42 0.612-0.188 0.238-0.392 0.46-0.611 0.665-0.064 0.06-0.129 0.119-0.196 0.175-0.018 0.018-0.037 0.035-0.055 0.051l-9e-3 6e-3c-0.056 0.049-0.114 0.095-0.174 0.138-0.17 0.123-0.354 0.225-0.547 0.304-2e-3 1e-3 -3e-3 1e-3 -4e-3 2e-3 -0.236 0.094-0.508 0.098-0.759-0.01-0.245-0.105-0.425-0.296-0.522-0.522-0.011-0.026-0.021-0.054-0.031-0.081-0.061-0.169-0.106-0.346-0.131-0.524-0.012-0.082-0.021-0.165-0.024-0.248l-1e-3 -0.01c-1e-3 -0.03-2e-3 -0.06-3e-3 -0.089-4e-3 -0.083-7e-3 -0.166-7e-3 -0.249-2e-3 -0.3 0.018-0.601 0.062-0.901 0.035-0.244 0.086-0.486 0.153-0.727l0.01-0.038c0.07-0.247 0.156-0.492 0.26-0.734 1e-3 -1e-3 1e-3 -3e-3 2e-3 -4e-3 0.07-0.163 0.147-0.322 0.229-0.476 0.084-0.156 0.173-0.308 0.269-0.453l0.039-0.059 2e-3 -3e-3c0.144-0.206 0.315-0.389 0.501-0.548 0.03-0.025 0.059-0.049 0.089-0.073 0.11-0.085 0.231-0.155 0.357-0.209 0.4-0.171 0.867-0.184 1.298 0 0.432 0.186 0.744 0.534 0.895 0.943 0.06 0.163 0.085 0.304 0.096 0.416 1e-3 8e-3 1e-3 0.016 2e-3 0.024 0.021 0.27 5e-3 0.543-0.051 0.816l1e-3 -2e-3c-6e-3 0.023-0.01 0.049-0.015 0.074-0.04 0.17-0.088 0.339-0.143 0.508-0.056 0.167-0.118 0.333-0.188 0.498-0.104 0.242-0.223 0.473-0.353 0.694" fill="#ee1f7c"/>
     </g>
    </g>
   </g>
   <g transform="translate(71.458 619.88)">
    <path d="m0 0c-2e-3 -0.771-7e-3 -1.531-9e-3 -2.301h0.214c3e-3 0.768 6e-3 1.543 0.01 2.307h-0.213c-2e-3 0-2e-3 -3e-3 -2e-3 -6e-3m2.971-1.322c0.019 0.18 0.102 0.304 0.205 0.401 0.104 0.097 0.272 0.143 0.459 0.151 0.204 0.01 0.382-0.038 0.5-0.13 0.055-0.043 0.108-0.107 0.144-0.171 0.039-0.071 0.056-0.157 0.056-0.253-0.473-2e-3 -0.899 3e-3 -1.364 2e-3m1.634-0.188c2e-3 0.156-0.027 0.291-0.067 0.406-0.041 0.12-0.101 0.21-0.184 0.292-0.169 0.166-0.426 0.284-0.773 0.257-0.374-0.028-0.612-0.189-0.749-0.455-0.075-0.146-0.12-0.334-0.103-0.534 0.016-0.194 0.071-0.353 0.164-0.478 0.088-0.119 0.225-0.215 0.371-0.27 0.159-0.061 0.361-0.086 0.565-0.058 0.374 0.052 0.588 0.264 0.703 0.582h-0.264c-0.06-0.132-0.134-0.25-0.27-0.311-0.13-0.06-0.313-0.094-0.498-0.064-0.083 0.014-0.159 0.038-0.221 0.07-0.064 0.033-0.112 0.079-0.156 0.136-0.084 0.108-0.139 0.25-0.152 0.429 0.56 1e-3 1.096-1e-3 1.634-2e-3m-5.404 0.12c0-0.087 4e-3 -0.174-7e-3 -0.257-9e-3 -0.083-0.024-0.149-0.057-0.205-0.03-0.052-0.082-0.097-0.13-0.13-0.053-0.037-0.107-0.068-0.171-0.091-0.182-0.066-0.511-0.086-0.649 0.027-0.076 0.063-0.109 0.154-0.127 0.266-0.018 0.115-0.013 0.252-0.013 0.382 0 0.262 0 0.526 2e-3 0.784h-0.215c-2e-3 0-2e-3 -3e-3 -2e-3 -6e-3 -2e-3 -0.255-2e-3 -0.521-2e-3 -0.789 0-0.236-0.017-0.478 0.055-0.641 0.011-0.023 0.019-0.051 0.032-0.069 0.012-0.02 0.036-0.037 0.056-0.055 0.022-0.018 0.042-0.035 0.064-0.049 0.138-0.089 0.351-0.115 0.567-0.097 0.139 0.011 0.252 0.046 0.346 0.103 0.094 0.058 0.178 0.124 0.246 0.205 6e-3 2e-3 9e-3 0.017 0.015 0.011v-0.293c0.08 1e-3 0.139-4e-3 0.218-3e-3 3e-3 0.555 4e-3 1.127 6e-3 1.683h-0.23c-3e-3 -0.262-4e-3 -0.515-4e-3 -0.776m3.066 0.597c-0.011 0.022-0.041 0.043-0.061 0.061-0.022 0.019-0.043 0.037-0.065 0.051-0.141 0.088-0.37 0.116-0.589 0.092-0.142-0.015-0.253-0.053-0.35-0.113-0.047-0.03-0.093-0.063-0.135-0.098-0.039-0.031-0.071-0.067-0.104-0.1-3e-3 -4e-3 -9e-3 -0.017-0.012-9e-3 0 0.311 3e-3 0.617 4e-3 0.924h-0.217c-3e-3 -1e-3 -4e-3 -3e-3 -4e-3 -6e-3 -2e-3 -0.777-6e-3 -1.537-0.011-2.31h0.235c2e-3 0.181-4e-3 0.355 0 0.528 3e-3 0.171-7e-3 0.348 4e-3 0.52 9e-3 0.163 0.102 0.251 0.204 0.325 0.106 0.077 0.23 0.121 0.39 0.139 0.173 0.019 0.345-2e-3 0.437-0.077 0.049-0.043 0.08-0.095 0.101-0.163 0.021-0.067 0.029-0.145 0.035-0.23 4e-3 -0.042 2e-3 -0.087 0-0.131-1e-3 -0.043-1e-3 -0.087-1e-3 -0.131 0-0.258-4e-3 -0.523-4e-3 -0.786h0.221c1e-3 0.256 4e-3 0.531 4e-3 0.799 0 0.243 0.023 0.477-0.051 0.646-9e-3 0.022-0.02 0.045-0.031 0.069m3.726 0.211c-0.056 0.015-0.114 0.026-0.181 0.03-0.023 0-0.047 3e-3 -0.07 1e-3 -0.02-1e-3 -0.042-8e-3 -0.063-0.011-0.023-2e-3 -0.048-1e-3 -0.068-7e-3 -0.023-6e-3 -0.049-0.022-0.071-0.032-0.026-0.011-0.055-0.02-0.074-0.032-0.025-0.014-0.046-0.042-0.068-0.061-0.058-0.051-0.112-0.105-0.148-0.175-6e-3 -0.014-0.01-0.031-0.022-0.042 2e-3 0.098 2e-3 0.208 1e-3 0.302-0.073-2e-3 -0.153 2e-3 -0.223-3e-3 -4e-3 -0.568-9e-3 -1.134-0.014-1.701h0.237c0 0.2 5e-3 0.405 5e-3 0.609 0 0.095-1e-3 0.207 4e-3 0.304 3e-3 0.052-2e-3 0.104 2e-3 0.151 4e-3 0.046 0.012 0.09 0.028 0.127 0.032 0.08 0.106 0.161 0.164 0.215 0.034 0.031 0.069 0.058 0.111 0.078 0.022 0.01 0.046 0.017 0.073 0.023 0.024 7e-3 0.05 0.017 0.075 0.022 0.1 0.015 0.211 0.01 0.3-0.016 0 0.073-1e-3 0.148 2e-3 0.218m-8.696-0.451c-0.019 0.118-0.064 0.22-0.14 0.291-0.144 0.136-0.422 0.189-0.681 0.138-0.122-0.023-0.224-0.059-0.312-0.115-0.077-0.05-0.143-0.11-0.206-0.169-8e-3 -8e-3 -0.018-0.019-0.03-0.021-0.061 0.107-0.131 0.203-0.246 0.257-0.112 0.052-0.27 0.078-0.435 0.07-0.166-8e-3 -0.289-0.039-0.399-0.104-0.09-0.052-0.176-0.117-0.24-0.191-0.01-0.012-0.018-0.028-0.029-0.03v0.291h-0.216c1e-3 -0.553 4e-3 -1.098 3e-3 -1.661h0.225c1e-3 0.263-2e-3 0.51-2e-3 0.769 0 0.086-5e-3 0.172 4e-3 0.255 9e-3 0.079 0.036 0.133 0.074 0.186 0.111 0.153 0.265 0.255 0.498 0.28 0.168 0.018 0.34-1e-3 0.43-0.075 0.142-0.119 0.133-0.383 0.133-0.646v-0.778h0.215v0.784c0 0.088-5e-3 0.176 0 0.262 4e-3 0.083 0.029 0.141 0.068 0.194 0.037 0.05 0.084 0.092 0.132 0.128 0.104 0.078 0.227 0.123 0.386 0.14 0.087 8e-3 0.172 5e-3 0.242-0.011 0.214-0.047 0.315-0.214 0.315-0.472v-0.523c0-0.154-6e-3 -0.336 0-0.504h0.223c2e-3 0.299-2e-3 0.562-2e-3 0.837 0 0.148 9e-3 0.298-0.01 0.418" fill="#d60a7c"/>
   </g>
   <g transform="translate(64.141 618.99)">
    <path d="m0 0c0.071 0.03 0.15 0.053 0.247 0.055 0.144 3e-3 0.262-0.032 0.352-0.082 0.093-0.052 0.146-0.143 0.188-0.245h0.491c-0.02 0.088-0.047 0.168-0.08 0.239-0.034 0.072-0.082 0.13-0.136 0.184-0.107 0.107-0.242 0.181-0.413 0.226-0.055 0.015-0.114 0.029-0.176 0.038-0.089 0.013-0.183 0.016-0.278 8e-3 -0.082-6e-3 -0.152-0.015-0.222-0.029-0.09-0.019-0.173-0.042-0.254-0.08-0.038-0.017-0.077-0.033-0.111-0.054-0.136-0.088-0.244-0.197-0.316-0.35-0.053-0.113-0.092-0.252-0.092-0.409 0-0.204 0.059-0.382 0.142-0.525 0.051-0.087 0.119-0.161 0.195-0.22 0.016-0.013 0.033-0.023 0.05-0.033 0.214-0.143 0.542-0.214 0.885-0.174 0.024 2e-3 0.047 8e-3 0.07 0.012 0.191 0.034 0.345 0.098 0.469 0.197 0.084 0.065 0.157 0.142 0.199 0.246 0.034 0.078 0.052 0.157 0.061 0.265-0.152 3e-3 -0.316 2e-3 -0.477 2e-3 -0.028-0.107-0.071-0.192-0.149-0.25-0.076-0.055-0.174-0.092-0.293-0.104-0.129-0.013-0.256 1e-3 -0.352 0.038-0.188 0.072-0.297 0.243-0.32 0.476-0.019 0.188 0.052 0.351 0.144 0.448 0.049 0.052 0.109 0.092 0.176 0.121" fill="#d60a7c"/>
   </g>
   <g transform="translate(62.442 619.36)">
    <path d="m0 0c-2e-3 0-2e-3 -3e-3 -2e-3 -5e-3 6e-3 -0.591 8e-3 -1.186 0.015-1.777h0.444c-6e-3 0.593-0.011 1.187-0.013 1.782z" fill="#d60a7c"/>
   </g>
   <g transform="translate(61.862 618.4)">
    <path d="m0 0c-0.019 0.03-0.037 0.05-0.061 0.073-0.043 0.044-0.103 0.08-0.159 0.106-0.04 0.017-0.084 0.034-0.128 0.046-0.047 0.012-0.095 0.02-0.146 0.029-0.101 0.017-0.215 0.019-0.323 0.027-0.083 6e-3 -0.164 8e-3 -0.235 0.028-0.011 3e-3 -0.024 4e-3 -0.035 7e-3 -0.03 8e-3 -0.045 0.015-0.067 0.028-0.011 6e-3 -0.023 0.011-0.032 0.019-0.015 0.012-0.04 0.044-0.046 0.058-0.015 0.035-0.015 0.063-8e-3 0.105 0.013 0.014 0.016 0.036 0.029 0.05 5e-3 7e-3 0.017 0.014 0.025 0.022 0.02 0.016 0.032 0.023 0.057 0.035 0.115 0.055 0.305 0.065 0.446 0.031 0.133-0.032 0.218-0.111 0.249-0.238 0.083 0 0.124-1e-3 0.199-3e-3 0.08 0 0.155 1e-3 0.243 0-0.01 0.153-0.069 0.268-0.151 0.35-7e-3 7e-3 -0.017 0.014-0.024 0.021-0.032 0.029-0.065 0.058-0.104 0.08-0.074 0.043-0.165 0.079-0.266 0.099-0.099 0.018-0.214 0.035-0.335 0.028-0.053-2e-3 -0.109-5e-3 -0.159-0.012-0.096-0.012-0.186-0.032-0.265-0.061-0.04-0.014-0.078-0.03-0.116-0.05-0.036-0.02-0.068-0.04-0.098-0.066-0.031-0.024-0.055-0.051-0.08-0.083-0.035-0.043-0.069-0.098-0.086-0.159-0.011-0.039-0.02-0.069-0.023-0.115-1e-3 -0.018-2e-3 -0.035-2e-3 -0.053 0-0.053 0.014-0.107 0.027-0.146 6e-3 -0.016 9e-3 -0.034 0.017-0.051 6e-3 -0.013 0.02-0.029 0.032-0.046 9e-3 -0.015 0.02-0.033 0.031-0.046 0.011-0.012 0.026-0.025 0.039-0.038 0.015-0.013 0.031-0.025 0.045-0.035 0.015-0.01 0.035-0.019 0.054-0.029s0.036-0.023 0.055-0.03c0.032-0.012 0.068-0.02 0.105-0.031 0.036-0.011 0.075-0.014 0.114-0.021 0.08-0.014 0.163-0.021 0.244-0.029 0.166-0.017 0.343-0.024 0.462-0.084 0.018-9e-3 0.052-0.031 0.063-0.045 0.01-9e-3 0.025-0.032 0.027-0.043 0.013-0.046-7e-3 -0.087-0.027-0.113-6e-3 -9e-3 -0.013-0.02-0.019-0.027-0.012-0.013-0.029-0.024-0.046-0.036-0.016-0.012-0.033-0.02-0.052-0.03-0.036-0.017-0.081-0.034-0.124-0.042-0.071-0.01-0.154-0.01-0.226 0-0.072 0.012-0.141 0.022-0.199 0.047-0.046 0.02-0.084 0.038-0.117 0.066-0.058 0.046-0.09 0.114-0.1 0.207-0.148 2e-3 -0.301 2e-3 -0.455 2e-3 -7e-3 -0.17 0.031-0.286 0.105-0.373 0.035-0.043 0.076-0.083 0.124-0.116 0.07-0.047 0.144-0.084 0.233-0.113 0.028-0.01 0.059-0.014 0.089-0.021 0.06-0.013 0.123-0.026 0.188-0.031 0.136-0.012 0.288-0.013 0.417 0 0.163 0.016 0.306 0.062 0.421 0.125 0.048 0.027 0.088 0.061 0.124 0.096 0.081 0.083 0.131 0.213 0.125 0.369-3e-3 0.104-0.033 0.198-0.075 0.262" fill="#d60a7c"/>
   </g>
   <g transform="translate(71.775 616.26)">
    <path d="m0 0c0-0.077 0.023-0.115 0.057-0.115 0.04 0 0.07 0.074 0.071 0.276 0 0.186-0.04 0.233-0.069 0.233-0.02 0-0.031-0.012-0.059-0.024zm0-0.294c0-0.05 0.02-0.079 0.063-0.079v-4e-3h-0.375v4e-3c0.045 0 0.065 0.029 0.065 0.079v0.638c0 0.045-0.019 0.058-0.064 0.058l-1e-3 4e-3c0.171 0 0.303 0.055 0.303 0.055l9e-3 -0.087c0.053 0.026 0.097 0.087 0.183 0.087 0.124 0 0.206-0.112 0.206-0.252 0-0.189-0.133-0.329-0.347-0.329-0.013 0-0.032 1e-3 -0.042 4e-3z" fill="#3890b6"/>
   </g>
   <g transform="translate(72.519 616.34)">
    <path d="m0 0c0 0.061 4e-3 0.096 4e-3 0.096-0.059-9e-3 -0.087-0.075-0.087-0.156 0-0.05 0.016-0.083 0.05-0.083 0.02 0 0.032 8e-3 0.056 0.016 0 0-0.023 0.03-0.023 0.127m0.237-0.081c0-0.059 0.02-0.074 0.043-0.074 0.012 0 0.025 8e-3 0.033 0.018l3e-3 -3e-3c-0.023-0.031-0.077-0.058-0.144-0.058s-0.116 0.019-0.146 0.066c-0.05-0.014-0.103-0.07-0.207-0.07-0.08 0-0.151 0.036-0.151 0.121 0 0.114 0.12 0.182 0.336 0.182 0 0 7e-3 0.079 7e-3 0.164 0 0.077-0.016 0.108-0.058 0.108-0.041 0-0.062-0.037-0.062-0.083 0-0.041 0.011-0.072 0.032-0.103-0.03-0.024-0.083-0.04-0.118-0.04-0.061 0-0.099 0.036-0.099 0.085 0 0.094 0.151 0.147 0.287 0.147 0.193 0 0.255-0.072 0.255-0.225 0-0.106-0.011-0.157-0.011-0.235" fill="#3890b6"/>
   </g>
   <g transform="translate(73.212 616.16)">
    <path d="m0 0s-0.1 4e-3 -0.187 4e-3c-0.111 0-0.188-4e-3 -0.188-4e-3v4e-3c0.043 0 0.063 0.029 0.063 0.078v0.359c0 0.043-0.022 0.059-0.062 0.059l-1e-3 4e-3c0.17 0 0.312 0.055 0.312 0.055v-0.101c0.055 0.021 0.086 0.101 0.168 0.101 0.063 0 0.106-0.048 0.106-0.108s-0.039-0.119-0.114-0.119c-0.026 0-0.058 0.011-0.072 0.023 5e-3 0.011 0.013 0.032 0.013 0.052 0 0.029-0.018 0.06-0.05 0.06-0.023 0-0.035-9e-3 -0.051-0.012v-0.396c0-0.035 0.016-0.055 0.063-0.055z" fill="#3890b6"/>
   </g>
   <g transform="translate(73.728 616.26)">
    <path d="m0 0c0-0.035 0.021-0.051 0.045-0.051 0.017 0 0.042 8e-3 0.06 0.022l1e-3 -3e-3c-0.042-0.047-0.113-0.085-0.191-0.085-0.095 0-0.162 0.036-0.162 0.156v0.398h-0.042v4e-3c0.115 0 0.243 0.08 0.286 0.157l3e-3 -1e-3v-0.156h0.068v-4e-3h-0.068z" fill="#3890b6"/>
   </g>
   <g transform="translate(74.232 616.5)">
    <path d="m0 0c3e-3 0.022 4e-3 0.058 4e-3 0.077 0 0.086-0.025 0.141-0.058 0.141-0.037 0-0.064-0.081-0.072-0.223zm0.032-0.301c0.059 0 0.112 0.021 0.155 0.051l2e-3 -2e-3c-0.055-0.066-0.142-0.106-0.259-0.106-0.208 0-0.319 0.11-0.319 0.277 0 0.165 0.15 0.304 0.345 0.304 0.152 0 0.261-0.071 0.27-0.223l-9e-3 -9e-3h-0.343c-1e-3 -0.016-1e-3 -0.033-1e-3 -0.048 0-0.133 0.046-0.244 0.159-0.244" fill="#3890b6"/>
   </g>
   <g transform="translate(74.951 616.2)">
    <path d="m0 0v0.14c0 0.091-0.015 0.128-0.036 0.128s-0.035-0.042-0.035-0.153c0-0.101 0.023-0.128 0.039-0.128 0.011 0 0.017 7e-3 0.032 0.013m0 0.357c0 0.025-0.013 0.034-0.034 0.034l-1e-3 1e-3c0.093 0 0.17 0.031 0.17 0.031v-0.408c0-0.025 0.011-0.033 0.036-0.033v-2e-3c-0.094 0-0.166-0.029-0.166-0.029l-5e-3 0.047c-0.029-0.015-0.054-0.047-0.101-0.047-0.067 0-0.113 0.061-0.113 0.138 0 0.104 0.073 0.181 0.191 0.181 7e-3 0 0.018 0 0.023-2e-3z" fill="#3890b6"/>
   </g>
   <g transform="translate(75.341 616.35)">
    <path d="m0 0c2e-3 0.013 3e-3 0.031 3e-3 0.043 0 0.047-0.014 0.077-0.032 0.077-0.02 0-0.035-0.045-0.04-0.123zm0.018-0.165c0.033 0 0.062 0.012 0.085 0.028l1e-3 -2e-3c-0.03-0.036-0.077-0.057-0.142-0.057-0.114 0-0.175 0.06-0.175 0.151s0.082 0.167 0.19 0.167c0.083 0 0.143-0.039 0.147-0.122l-4e-3 -5e-3h-0.189c-1e-3 -9e-3 -1e-3 -0.018-1e-3 -0.026 0-0.073 0.026-0.134 0.088-0.134" fill="#3890b6"/>
   </g>
   <g transform="translate(76.513 616.73)">
    <path d="m0 0h-5e-3c-0.02 0.136-0.124 0.297-0.291 0.297-0.052 0-0.092-0.031-0.092-0.087 0-0.192 0.466-0.214 0.466-0.511 0-0.182-0.15-0.3-0.428-0.3-0.122 0-0.137 0.039-0.35 0.039l-0.015 0.311h6e-3c0.032-0.172 0.173-0.342 0.338-0.342 0.07 0 0.108 0.045 0.108 0.099 0 0.2-0.455 0.231-0.455 0.518 0 0.179 0.161 0.28 0.403 0.28 0.122 0 0.186-0.04 0.325-0.04z" fill="#3890b6"/>
   </g>
   <g transform="translate(76.723 617.25)">
    <path d="m0 0c0 0.098 0.064 0.173 0.198 0.173 0.135 0 0.2-0.075 0.2-0.173 0-0.096-0.065-0.167-0.2-0.167-0.134 0-0.198 0.071-0.198 0.167m0.463-1.094s-0.119 5e-3 -0.259 5e-3c-0.174 0-0.294-5e-3 -0.294-5e-3v5e-3c0.068 0 0.099 0.047 0.099 0.122v0.56c0 0.068-0.035 0.093-0.098 0.093l-1e-3 4e-3c0.264 0 0.485 0.085 0.485 0.085v-0.797c0-0.052 0.03-0.067 0.068-0.067z" fill="#3890b6"/>
   </g>
  </g>
 </g>
</svg>
