<svg xmlns="http://www.w3.org/2000/svg" width="52.917mm" height="52.822mm" viewBox="0 0 52.91666 52.821892"><path d="M5.985 10.44c-1.185 0-2.248-.433-3.426-1.408l-.352-.291-2.2 2.64.332.291c1.53 1.368 3.514 2.112 5.599 2.112 3.067 0 5.037-1.693 5.037-4.326v-.034c0-2.695-2.065-3.615-4.299-4.198-2.248-.562-2.349-.772-2.349-1.178v-.041c0-.386.454-.623 1.151-.623.887 0 1.869.366 2.979 1.137l.386.271 1.916-2.803-.325-.264c-1.395-1.117-3.047-1.686-4.922-1.686-2.844 0-4.82 1.733-4.82 4.225v.027c0 2.884 2.018 3.629 4.475 4.265 2.16.555 2.16.853 2.16 1.131v.041c0 .657-1.022.711-1.341.711m21.936 35.639l1.571-4.17 1.564 4.17zm16.77-10.907h-5.768v15.633l-6.547-15.626h-5.68l-5.233 12.498-3.913-2.207c-.718 1.273-1.632 2.173-3.263 2.173-1.896 0-3.229-1.584-3.229-3.825v-.054c0-2.072 1.28-3.785 3.229-3.785 1.577 0 2.498.873 3.135 2.106l4.766-2.783c-1.462-2.647-4.028-4.502-7.82-4.502-3.893 0-7.136 2.194-8.497 5.477v-5.105h-5.87v17.278h5.87v-5.01c1.374 3.317 4.644 5.382 8.267 5.382 2.654 0 4.583-.799 6.012-2.011l-.684 1.638h6.127l.88-2.309h6.005l.907 2.309h19.451v-4.936h-8.145zm2.41-10.758c0 2.505-1.706 3.581-4.347 3.581h-.955v-7.204h.955c2.64 0 4.347 1.083 4.347 3.588zm-22.071 2.241l1.571-4.171 1.564 4.171zm17.603-10.893h-6.608v15.619l-6.533-15.626h-5.687l-6.533 15.626v-3.534l-3.453-3.446h3.453v-4.15c0-2.41-1.726-4.489-3.798-4.489h-9.668c-2.072 0-3.798 2.078-3.798 4.489v8.287c0 2.417 1.726 4.489 3.798 4.489h4.834v-3.453l3.453 3.453h10.609l.88-2.302h6.005l.907 2.302h11.943c6.98 0 10.48-3.622 10.48-8.734v-.047c0-5.105-3.426-8.483-10.284-8.483m-18.788-1.943c2.261 0 3.886-.704 5.443-2.376l.305-.318-2.37-2.39-.325.298c-.955.867-1.72 1.341-2.972 1.341-1.794 0-3.155-1.483-3.155-3.46v-.034c0-1.95 1.361-3.426 3.155-3.426 1.029 0 1.889.379 2.884 1.286l.345.318 2.336-2.701-.305-.298c-1.449-1.422-3.053-2.058-5.24-2.058-3.967 0-6.96 2.972-6.96 6.912v.034c0 1.869.691 3.595 1.957 4.875 1.266 1.293 3.013 1.997 4.902 1.997m-8.057-13.602h-3.663v13.398h3.663z" fill="#46bf90"/></svg>