<svg version="1.1" viewBox="0 0 989.61 144.6" xmlns="http://www.w3.org/2000/svg">
 <g transform="translate(-.387)" fill="#dedbdb">
  <path d="m212.95 0c-18.232 0-30.243 1.072-33.675 1.394-3.11 0.322-13.835 1.18-27.884 3.754 0 0-11.047 1.394-30.03 7.292 0 0-13.941 4.29-22.95 11.154-0.858 0.643-2.788 2.896-3.86 4.719-2.682 4.933-0.323 10.939 0.32 12.333 9.0368 18.564 54.614 23.078 55.34 22.737-5.8536-5.3316-9.8617-14.333-4.504-21.236 1.5-1.608 4.397-5.79 13.727-9.652 8.58-3.646 20.377-6.434 21.342-6.649 13.942-2.681 18.554-3.324 29.708-4.719 26.439-3.2388 76.491-6.675 132.77 0.858 1.18-0.321-20.055-7.614-31.21-10.51-16.193-4.182-28.955-5.898-33.353-6.65-29.6-4.718-52.765-4.825-65.742-4.825"/>
  <path d="m141.63 144.25c20.377 1.072 40.325-0.644 44.079-1.073 3.432-0.43 15.12-1.502 30.672-4.933 45.05-10.02 59.7-28.49 60.808-30.887 12.235-19.52-42.745-32.06-57.376-35.285 11.849 32.697-51.255 43.475-70.783 46.116-24.666 2.467-39.36 1.502-48.153 1.18-21.342-0.75-35.123-2.199-39.52-3.165-42.393-5.489-58.396-15.495-60.97-15.71 0.31937 1.4592 9.33 13.011 38.287 23.736 17.695 6.542 32.924 9.403 37.643 10.475 25.31 5.685 49.12 8.687 65.313 9.545z"/>
  <path d="m976.01 140.49h-59.951c-13.406 0-20.163-6.435-18.447-17.803l5.577-36.571c1.716-11.154 10.618-17.803 23.916-17.803h59.95c1.824 0 3.218 1.394 2.897 3.11l-1.502 9.438c-0.322 1.716-2.038 3.11-3.86 3.11h-58.021c-1.61 0-2.252 0.322-2.574 2.145l-1.394 8.794h55.446c1.823 0 3.218 1.394 2.896 3.11l-1.61 10.618c-0.321 1.715-2.036 3.11-3.86 3.11h-55.446l-1.716 11.046c-0.215 1.18-0.322 1.823 3.432 1.823h56.626c1.823 0 3.217 1.394 2.896 3.11l-1.502 9.438c-0.107 1.93-1.823 3.325-3.753 3.325z"/>
  <path d="m884.31 140.49h-14.157c-1.823 0-3.217-1.394-2.895-3.11l7.614-49.441c0.43-2.681 0.536-3.54-4.612-3.54l-49.547 0.108-8.151 52.873c-0.215 1.716-2.038 3.11-3.861 3.11h-13.835c-1.823 0-3.217-1.394-2.896-3.11l10.082-65.85c0.214-1.716 2.037-3.11 3.86-3.11h68.853c16.73 0 22.95 6.22 20.698 20.699l-7.4 48.26c-0.107 1.717-1.823 3.11-3.753 3.11z"/>
  <path d="m765.38 140.6q0.162 0 0 0"/>
  <path d="m765.38 140.6c-0.858 0-1.716-0.322-2.252-0.965q-0.804-0.966-0.643-2.252l10.08-65.957c0.323-1.716 2.039-3.11 3.862-3.11h13.942c1.823 0 3.217 1.394 2.895 3.11l-10.08 65.85c-0.215 1.715-1.931 3.11-3.862 3.11z"/>
  <path d="m679.15 140.6c-0.858 0-1.716-0.322-2.252-0.965q-0.803-0.966-0.644-2.252l10.082-65.957c0.214-1.716 2.037-3.11 3.86-3.11h13.943c1.823 0 3.217 1.394 2.895 3.11l-8.15 53.194h55.017c1.823 0 3.217 1.394 2.896 3.11l-1.502 9.438c-0.214 1.716-2.038 3.11-3.86 3.11z"/>
  <path d="m597.43 102.21 49.335-0.215c3.11 0 3.539-0.536 3.86-2.466l1.93-12.87c0.323-2.252 0.43-2.788-3.11-2.788l-49.225 0.214zm68.21 38.287h-15.872c-1.18 0-2.253-0.536-2.682-1.502l-9.76-19.948h-42.47l-2.787 18.34c-0.215 1.716-2.038 3.11-3.861 3.11h-13.835c-1.823 0-3.217-1.394-2.895-3.11l10.08-65.85c0.215-1.716 2.038-3.11 3.862-3.11l67.136-0.322c16.194 0 24.023 7.079 22.093 19.52l-1.823 11.582c-1.18 7.4-6.22 13.513-13.835 16.73l10.08 19.52c0.323 0.535 0.537 1.179 0.43 1.93-0.215 1.716-1.93 3.11-3.861 3.11"/>
  <path d="m559.04 140.49h-59.95c-13.407 0-20.163-6.435-18.447-17.803l5.577-36.571c1.715-11.154 10.617-17.803 23.916-17.803h59.95c1.93 0 3.218 1.394 2.896 3.11l-1.394 9.438c-0.215 1.716-2.038 3.11-3.861 3.11h-58.02c-1.61 0-2.253 0.322-2.574 2.145l-1.395 8.794h55.447c1.823 0 3.217 1.394 2.896 3.11l-1.61 10.618c-0.214 1.715-2.037 3.11-3.86 3.11h-55.448l-1.715 11.046c-0.215 1.18-0.322 1.823 3.43 1.823h56.628c1.823 0 3.217 1.394 2.895 3.11l-1.394 9.438c-0.43 1.93-2.145 3.325-3.968 3.325"/>
  <path d="m418.01 140.6c-1.18 0-2.252-0.643-2.681-1.609l-30.137-65.956c-0.43-0.966-0.214-2.145 0.537-3.11 0.75-0.966 1.93-1.61 3.217-1.61h14.907c1.18 0 2.252 0.644 2.68 1.61l22.952 48.69 37.75-48.69c0.752-0.966 1.93-1.61 3.218-1.61h14.908c1.18 0 2.252 0.644 2.68 1.61 0.43 0.965 0.322 2.144-0.428 3.11l-50.406 65.956c-0.75 0.966-2.038 1.609-3.218 1.609z"/>
  <path d="m323.09 140.6c-0.858 0-1.716-0.322-2.253-0.965q-0.804-0.966-0.643-2.252l10.08-65.957c0.216-1.716 2.039-3.11 3.86-3.11h13.944c1.823 0 3.217 1.394 2.896 3.11l-8.151 53.194h55.017c1.824 0 3.218 1.394 2.896 3.11l-1.501 9.438c-0.215 1.716-2.038 3.11-3.861 3.11z"/>
  <path d="m294.35 140.6c-0.858 0-1.716-0.322-2.252-0.965q-0.804-0.966-0.643-2.252l10.08-65.957c0.215-1.716 2.039-3.11 3.86-3.11h13.944c1.823 0 3.217 1.394 2.896 3.11l-10.082 65.85c-0.214 1.715-1.93 3.11-3.86 3.11z"/>
 </g>
</svg>
