<?xml version="1.0" encoding="UTF-8" standalone="no"?>
<svg xmlns:rdf="http://www.w3.org/1999/02/22-rdf-syntax-ns#" xmlns="http://www.w3.org/2000/svg" xmlns:cc="http://creativecommons.org/ns#" xmlns:xlink="http://www.w3.org/1999/xlink" xmlns:dc="http://purl.org/dc/elements/1.1/" height="137.03" width="600" version="1.1" viewBox="0 0 158.75 36.255456">
  <defs>
    <linearGradient id="b" gradientUnits="userSpaceOnUse" gradientTransform="matrix(0 34.669 -26.057 0 79.543 .91372)" x2="0.911" x1=".032002" y1="0" y2="0">
      <stop stop-color="#efefef" offset="0"/>
      <stop stop-color="#f2f2f2" offset=".0039062"/>
      <stop stop-color="#f4f4f4" offset=".0078125"/>
      <stop stop-color="#f4f4f7" offset=".011719"/>
      <stop stop-color="#f7f7f7" offset=".015625"/>
      <stop stop-color="#f9f9f9" offset=".019531"/>
      <stop stop-color="#f9f9f9" offset=".023438"/>
      <stop stop-color="#f9f9fc" offset=".03125"/>
      <stop stop-color="#f9f9fc" offset=".0625"/>
      <stop stop-color="#f9f9fc" offset=".070312"/>
      <stop stop-color="#f9f9f9" offset=".078125"/>
      <stop stop-color="#f9f9f9" offset=".082031"/>
      <stop stop-color="#f9f9f9" offset=".085938"/>
      <stop stop-color="#f9f9f9" offset=".09375"/>
      <stop stop-color="#f9f9f9" offset=".125"/>
      <stop stop-color="#f9f9f9" offset=".14062"/>
      <stop stop-color="#f9f9f9" offset=".14844"/>
      <stop stop-color="#f9f9f9" offset=".15234"/>
      <stop stop-color="#f9f9f9" offset=".15625"/>
      <stop stop-color="#f9f9f9" offset=".1875"/>
      <stop stop-color="#f9f9f9" offset=".20312"/>
      <stop stop-color="#f9f9f9" offset=".20703"/>
      <stop stop-color="#f9f9f9" offset=".21094"/>
      <stop stop-color="#f9f9f9" offset=".21875"/>
      <stop stop-color="#f9f9f9" offset=".25"/>
      <stop stop-color="#f9f9f9" offset=".26562"/>
      <stop stop-color="#f9f9f9" offset=".27344"/>
      <stop stop-color="#f7f9f9" offset=".27734"/>
      <stop stop-color="#f7f9f9" offset=".28125"/>
      <stop stop-color="#f7f9f9" offset=".3125"/>
      <stop stop-color="#f7f9f9" offset=".32031"/>
      <stop stop-color="#f7f9f9" offset=".32812"/>
      <stop stop-color="#f7f9f9" offset=".34375"/>
      <stop stop-color="#f7f9f9" offset=".35938"/>
      <stop stop-color="#f7f9f9" offset=".36719"/>
      <stop stop-color="#f7f7f9" offset=".37109"/>
      <stop stop-color="#f7f7f9" offset=".375"/>
      <stop stop-color="#f7f7f9" offset=".40625"/>
      <stop stop-color="#f7f7f9" offset=".42188"/>
      <stop stop-color="#f7f7f9" offset=".4375"/>
      <stop stop-color="#f7f7f9" offset=".46875"/>
      <stop stop-color="#f7f7f9" offset=".47656"/>
      <stop stop-color="#f7f7f7" offset=".48438"/>
      <stop stop-color="#f7f7f7" offset=".5"/>
      <stop stop-color="#f7f7f7" offset=".53125"/>
      <stop stop-color="#f7f7f7" offset=".54688"/>
      <stop stop-color="#f7f7f7" offset=".55469"/>
      <stop stop-color="#f7f7f7" offset=".55859"/>
      <stop stop-color="#f7f7f9" offset=".5625"/>
      <stop stop-color="#f7f7f9" offset=".59375"/>
      <stop stop-color="#f7f7f9" offset=".60938"/>
      <stop stop-color="#f7f7f9" offset=".61719"/>
      <stop stop-color="#f7f7f9" offset=".625"/>
      <stop stop-color="#f7f7f9" offset=".65625"/>
      <stop stop-color="#f7f7f9" offset=".66016"/>
      <stop stop-color="#f7f9f9" offset=".66406"/>
      <stop stop-color="#f7f9f9" offset=".67188"/>
      <stop stop-color="#f7f9f9" offset=".6875"/>
      <stop stop-color="#f7f9f9" offset=".70312"/>
      <stop stop-color="#f7f9f9" offset=".71094"/>
      <stop stop-color="#f7f9f9" offset=".71484"/>
      <stop stop-color="#f7f9f9" offset=".71875"/>
      <stop stop-color="#f7f9f9" offset=".75"/>
      <stop stop-color="#f7f9f9" offset="1"/>
    </linearGradient>
    <linearGradient id="a" gradientUnits="userSpaceOnUse" gradientTransform="matrix(0 34.669 -34.669 0 139.53 .91373)" x2=".99176" x1=".0083024" y1="0" y2="0">
      <stop stop-color="#adaaaa" offset="0"/>
      <stop stop-color="#bcbcba" offset=".0039062"/>
      <stop stop-color="#cecccc" offset=".0078125"/>
      <stop stop-color="#d8d6d6" offset=".011719"/>
      <stop stop-color="#e2e2e2" offset=".015625"/>
      <stop stop-color="#e5e5e5" offset=".019531"/>
      <stop stop-color="#e8e8e8" offset=".023438"/>
      <stop stop-color="#eaeaea" offset=".027344"/>
      <stop stop-color="#ededef" offset=".03125"/>
      <stop stop-color="#efeff2" offset=".035156"/>
      <stop stop-color="#f4f4f4" offset=".039062"/>
      <stop stop-color="#f4f4f7" offset=".042969"/>
      <stop stop-color="#f7f9f9" offset=".046875"/>
      <stop stop-color="#f7f9f9" offset=".0625"/>
      <stop stop-color="#f7f9f9" offset=".078125"/>
      <stop stop-color="#f7f9f9" offset=".082031"/>
      <stop stop-color="#f7f9f9" offset=".085938"/>
      <stop stop-color="#f7f9f9" offset=".09375"/>
      <stop stop-color="#f7f7f9" offset=".125"/>
      <stop stop-color="#f7f7f9" offset=".15625"/>
      <stop stop-color="#f7f7f9" offset=".16406"/>
      <stop stop-color="#f7f7f7" offset=".17188"/>
      <stop stop-color="#f7f7f7" offset=".17969"/>
      <stop stop-color="#f7f7f7" offset=".18359"/>
      <stop stop-color="#f7f7f7" offset=".1875"/>
      <stop stop-color="#f7f7f7" offset=".20312"/>
      <stop stop-color="#f7f7f7" offset=".21094"/>
      <stop stop-color="#f4f7f7" offset=".21875"/>
      <stop stop-color="#f4f7f7" offset=".23438"/>
      <stop stop-color="#f4f4f7" offset=".23828"/>
      <stop stop-color="#f4f4f7" offset=".24219"/>
      <stop stop-color="#f4f4f7" offset=".25"/>
      <stop stop-color="#f4f4f7" offset=".26562"/>
      <stop stop-color="#f4f4f7" offset=".27344"/>
      <stop stop-color="#f4f4f7" offset=".28125"/>
      <stop stop-color="#f4f4f7" offset=".29688"/>
      <stop stop-color="#f4f4f7" offset=".30469"/>
      <stop stop-color="#f4f4f4" offset=".30859"/>
      <stop stop-color="#f4f4f4" offset=".3125"/>
      <stop stop-color="#f4f4f4" offset=".32812"/>
      <stop stop-color="#f4f4f4" offset=".33594"/>
      <stop stop-color="#f4f4f4" offset=".34375"/>
      <stop stop-color="#f4f4f4" offset=".35938"/>
      <stop stop-color="#f4f4f4" offset=".375"/>
      <stop stop-color="#f4f4f4" offset=".39062"/>
      <stop stop-color="#f2f4f4" offset=".39453"/>
      <stop stop-color="#f2f4f4" offset=".39844"/>
      <stop stop-color="#f2f4f4" offset=".40625"/>
      <stop stop-color="#f2f4f4" offset=".4375"/>
      <stop stop-color="#f2f4f4" offset=".44531"/>
      <stop stop-color="#f2f2f4" offset=".45312"/>
      <stop stop-color="#f2f2f4" offset=".45703"/>
      <stop stop-color="#f2f2f4" offset=".46094"/>
      <stop stop-color="#f2f2f4" offset=".46875"/>
      <stop stop-color="#f2f2f4" offset=".5"/>
      <stop stop-color="#f2f2f4" offset=".51562"/>
      <stop stop-color="#f2f2f4" offset=".51953"/>
      <stop stop-color="#f2f2f4" offset=".52344"/>
      <stop stop-color="#f2f2f4" offset=".53125"/>
      <stop stop-color="#f2f4f4" offset=".5625"/>
      <stop stop-color="#f2f4f4" offset=".57812"/>
      <stop stop-color="#f4f4f4" offset=".59375"/>
      <stop stop-color="#f4f4f4" offset=".60938"/>
      <stop stop-color="#f4f4f4" offset=".61719"/>
      <stop stop-color="#f4f4f4" offset=".625"/>
      <stop stop-color="#f4f4f4" offset=".64062"/>
      <stop stop-color="#f4f4f4" offset=".65625"/>
      <stop stop-color="#f4f4f4" offset=".66406"/>
      <stop stop-color="#f4f4f7" offset=".67188"/>
      <stop stop-color="#f4f4f7" offset=".6875"/>
      <stop stop-color="#f4f4f7" offset=".69531"/>
      <stop stop-color="#f4f4f7" offset=".69922"/>
      <stop stop-color="#f4f4f7" offset=".70312"/>
      <stop stop-color="#f4f4f7" offset=".71875"/>
      <stop stop-color="#f4f4f7" offset=".72656"/>
      <stop stop-color="#f4f4f7" offset=".73047"/>
      <stop stop-color="#f4f7f7" offset=".73438"/>
      <stop stop-color="#f4f7f7" offset=".75"/>
      <stop stop-color="#f4f7f7" offset=".75391"/>
      <stop stop-color="#f7f7f7" offset=".75781"/>
      <stop stop-color="#f7f7f7" offset=".76562"/>
      <stop stop-color="#f7f7f7" offset=".77344"/>
      <stop stop-color="#f7f7f7" offset=".77734"/>
      <stop stop-color="#f7f7f7" offset=".78125"/>
      <stop stop-color="#f7f7f7" offset=".79688"/>
      <stop stop-color="#f7f7f7" offset=".80078"/>
      <stop stop-color="#f7f7f9" offset=".80469"/>
      <stop stop-color="#f7f7f9" offset=".8125"/>
      <stop stop-color="#f7f7f9" offset=".84375"/>
      <stop stop-color="#f7f7f9" offset=".85938"/>
      <stop stop-color="#f7f7f9" offset=".86328"/>
      <stop stop-color="#f7f9f9" offset=".86719"/>
      <stop stop-color="#f7f9f9" offset=".875"/>
      <stop stop-color="#f7f9f9" offset=".89062"/>
      <stop stop-color="#f7f9f9" offset=".89844"/>
      <stop stop-color="#f7f7f9" offset=".90234"/>
      <stop stop-color="#f7f7f9" offset=".90625"/>
      <stop stop-color="#f4f7f9" offset=".91016"/>
      <stop stop-color="#f4f7f7" offset=".91406"/>
      <stop stop-color="#f4f4f4" offset=".91797"/>
      <stop stop-color="#f4f4f4" offset=".92188"/>
      <stop stop-color="#f2f2f4" offset=".92578"/>
      <stop stop-color="#eff2f4" offset=".92969"/>
      <stop stop-color="#efeff2" offset=".93359"/>
      <stop stop-color="#efeff2" offset=".9375"/>
      <stop stop-color="#ededef" offset=".94141"/>
      <stop stop-color="#eaeaed" offset=".94531"/>
      <stop stop-color="#eaeaea" offset=".94922"/>
      <stop stop-color="#e8e8ea" offset=".95312"/>
      <stop stop-color="#e5e5e8" offset=".95703"/>
      <stop stop-color="#e5e5e5" offset=".96094"/>
      <stop stop-color="#e2e2e2" offset=".96484"/>
      <stop stop-color="#e0e0e0" offset=".96875"/>
      <stop stop-color="#dbd8d8" offset=".97266"/>
      <stop stop-color="#d3d3d3" offset=".97656"/>
      <stop stop-color="#ccccc9" offset=".98047"/>
      <stop stop-color="#c4c1c1" offset=".98438"/>
      <stop stop-color="#bab7b7" offset=".98828"/>
      <stop stop-color="#b2afad" offset=".99219"/>
      <stop stop-color="#a8a5a3" offset=".99609"/>
      <stop stop-color="#9e9b99" offset="1"/>
    </linearGradient>
  </defs>
  <path d="m5.2029-0.00053239c-4.0045 0-5.2029 2.5173-5.2029 4.968v26.322c0 2.489 1.1984 4.966 5.2055 4.966h148.33c4.02 0 5.21-2.477 5.21-4.967v-26.322c0-2.4502-1.19-4.9675-5.21-4.9675-51.36-0.00003239-104.25-0.00003239-148.34-0.00003239zm0.2018 0.35807h147.99c2.66 0 4.49 1.5763 4.49 4.2257v27.116c0 2.649-1.83 4.226-4.49 4.226h-147.99c-2.6936 0-4.5192-1.577-4.5192-4.226v-27.116c-0.00002-2.6492 1.8256-4.2255 4.5239-4.2255z" stroke-width="5.0066" fill="#a8a6a6"/>
  <g stroke-width="1.3247">
    <path d="m4.9874 1.2053c-2.6983 0-3.6521 1.5763-3.6521 4.2256v25.645c0 2.65 0.9538 4.226 3.6521 4.226h142.56v-34.097z" fill="url(#a)"/>
    <path d="m64.082 1.2315v34.07h89.708c2.66 0 3.62-1.576 3.62-4.226v-25.645c0-2.6494-0.96-4.2257-3.62-4.2257-30.15 0.0043-63.073 0.0273-89.708 0.0262z" fill="#ae1e33"/>
    <path fill="#ae1e33" d="m23.032 21.539c0 2.914-1.908 5.034-5.778 5.471-2.807 0.304-6.869-0.053-8.8041-0.292l-0.1365-1.006c0-2.57 1.3896-3.14 2.6716-3.14 1.336 0 3.462 0.252 5.042 0.252 1.718 0 2.263-0.61 2.263-1.153 0-0.728-0.709-1.059-2.044-1.311l-3.68-0.702c-3.0537-0.57-4.6884-2.703-4.6884-4.941 0-2.742 1.9354-5.0075 5.7234-5.4446 2.89-0.3047 6.379 0.053 8.286 0.2649l0.11 0.9807c0 2.569-1.336 3.113-2.644 3.113-0.981 0-2.535-0.186-4.28-0.186-1.799 0-2.535 0.49-2.535 1.086 0 0.649 0.708 0.901 1.827 1.113l3.515 0.662c3.599 0.649 5.152 2.689 5.152 5.233m6.297 3.126c0 1.563-0.6 2.464-3.653 2.464l-1.09-0.093v-20.757c0-1.5635 0.518-3.2193 3.597-3.2193l1.146 0.1325zm12.51 8.014c0.383 0.225 1.227 0.464 2.263 0.49 1.772 0.067 2.726-0.622 3.463-2.225l9.512-21.234c-0.409-0.2257-1.254-0.4376-1.99-0.4641-1.2-0.0265-2.862 0.2384-3.898 2.7291l-3.08 7.272-6.051-9.8422c-0.409-0.1059-1.363-0.3046-2.044-0.3046-2.126 0-3.326 0.7948-4.579 2.1588l-5.861 6.412 4.716 7.431c0.872 1.365 2.044 2.08 3.897 2.08 1.227 0 2.235-0.305 2.727-0.517l-5.698-8.597 4.035-4.279 6.623 10.386"/>
  </g>
  <g stroke-width="1.3247" fill="#fff">
    <path d="m146.94 7.1927c-5.96 0-11.99-0.0265-17.96 0l-0.95-0.0265c-0.19 0.9537-0.41 1.934-0.63 2.9008-0.1 0.517-0.22 1.033-0.35 1.55h11.49l0.8-0.768c0.57-0.292 1.28-0.186 1.28-0.186 1.42-0.026 4.26-0.026 4.26-0.026l1.08-0.252c0.88-0.4105 1.23-1.2848 1.53-2.0399 0.27-0.6491 0.22-0.8743 0.14-0.9802l-0.69-0.1722"/>
    <path d="m126.53 12.902c-0.33 0.159-0.68 0.517-0.9 1.444-0.03 0.344-0.11 1.391 0.52 2.371l0.9 0.927c0.25-0.927 0.46-1.748 0.67-2.623h3.6c-0.26 0.65-0.92 2.266-1.74 3.458l-0.79 0.768c-0.54 0.331-1.09 0.358-1.58 0.358-1.69 0-3.18-0.146-4.5-0.027l-0.95 0.318-0.74 0.848s4.12 0.027 7.34 0c0.21 0 0.67 0 1.16-0.238 0.61-0.279 0.98-0.689 1.47-1.391 0.75-1.047 1.18-1.669 2-3.219 0.57-1.06 1.33-1.643 2.56-1.497l0.62-0.358c0.82-0.49 0.98-0.649 1.1-0.795l0.32-0.622h-9.62s-0.92 0-1.44 0.278"/>
    <path d="m126.3 9.63c0.2-0.9802 0.28-1.8545 0.28-2.4373h-15.92c-0.52 0.9007-1.03 2.0267-1.5 3.3643-0.41 1.219-0.65 2.345-0.78 3.299 1.01 0.026 1.99 0.026 3 0.026 0.56-1.179 1.13-2.344 1.68-3.47h7.23c-0.17 0.49-0.44 1.232-0.87 2.079-1.04 1.934-2.27 3.127-2.84 3.736 0 0-1.58 1.603-4.71 5.828-1.32 1.775-2.92 4.465-4.15 8.372h6.19c1.23-3.682 2.8-6.226 3.98-7.828 1.99-2.703 4.69-5.312 6.78-8.836 0.44-0.755 1.21-2.146 1.63-4.133"/>
    <path d="m77.493 28.056-0.791-0.146c-1.935-1.761 3.244-17.684 7.2-18.479l0.874 0.1725c1.96 1.8815-3.304 17.604-7.283 18.452m9.376-20.174c-0.927-0.5431-1.908-0.6491-2.504-0.7418-10.634-1.1128-15.922 18.916-9.488 22.599 0.843 0.463 1.689 0.569 2.289 0.622 10.604 1.1 16.326-18.611 9.703-22.48"/>
    <path d="m95.479 28.056-0.781-0.146c-1.948-1.761 3.205-17.684 7.192-18.479l0.87 0.1725c1.97 1.8815-3.293 17.604-7.281 18.452m9.431-20.174c-0.93-0.5431-1.91-0.6491-2.5-0.7418-10.613-1.1128-15.925 18.916-9.461 22.599 0.848 0.463 1.682 0.569 2.292 0.622 10.599 1.1 16.289-18.611 9.669-22.48"/>
  </g>
  <path opacity=".4" d="m4.1404 2.0132c-1.4953 0-2.0688 0.967-2.0688 3.7621v24.215c0 1.497 0.0408 2.504 0.2051 2.504 0.0408-0.464 0.0816-2.782 1.7005-4.901 4.4652-5.511 22.515-9.657 44.7-11.896 11.719-1.166 24.604-1.788 37.268-1.788 11.22 0 22.245 0.49 32.135 1.55 18.4 1.96 32.83 5.855 37.05 12.134 1.45 2.278 1.63 4.437 1.69 4.901 0.15 0 0.19-1.007 0.19-2.504v-24.215c0-2.7948-0.58-3.7618-2.07-3.7618-0.51 0-1.01 0.4371-1.68 0.4371h-147.44c-0.676 0-1.1678-0.4371-1.6796-0.4371z" stroke-width="1.1484" fill="url(#b)"/>
</svg>
