<svg enable-background="new 0 0 1404.7 272" version="1.1" viewBox="0 0 1404.7 272" xml:space="preserve" xmlns="http://www.w3.org/2000/svg">


	
		<path d="m15.2 2.9c-6.9 0-12.5 5.7-12.5 12.7v240.8c0 7 5.6 12.7 12.5 12.7h442.2v-266.2h-442.2" fill="#fff"/>
		<path d="m18.1 272h439.3v-5.7h-439.3c-6.9 0-12.5-5.6-12.5-12.5v-235.7c0-6.9 5.6-12.5 12.5-12.5h439.3v-5.6h-439.3c-10 0-18.1 8.1-18.1 18.1v235.7c0 10.1 8.1 18.2 18.1 18.2" fill="#9d9d9c"/>
		<path d="m1386.5 0h-933.9v272h933.9c10 0 18.1-8.2 18.1-18.1v-235.7c0.1-10-8.1-18.2-18.1-18.2" fill="#003266"/>
		<path d="m910.7 118.8v80.4c-2.1 0.5-5.8 1-9.5 1-7.7 0-10.9-2.6-10.9-7.9v-10.6c-11.9 12.7-26.2 20.1-45.2 20.1-28.3 0-44.2-18.2-44.2-38.4 0-30.7 33.1-44.2 89.2-40.5v-3.4c0-19.6-6.4-31.2-31.2-31.2-13 0-24.1 2.9-31.5 5.3-4 1-6.9 2.1-9 2.1-5.8 0-9.3-5.3-7.9-16.4 12.7-4.7 31.5-9 49.2-9 37.2 0.1 51 18.6 51 48.5m-20.7 44.2v-24.3c-36.5-1.6-68 1.8-68 24.6 0 11.1 9.5 21.4 26.5 21.4 17.2 0 31.8-8.8 41.5-21.7" fill="#fff"/>
		<path d="m617 118.8v80.4c-2.1 0.5-5.8 1-9.5 1-7.7 0-10.9-2.6-10.9-7.9v-10.6c-11.9 12.7-26.2 20.1-45.2 20.1-28.3 0-44.2-18.2-44.2-38.4 0-30.7 33.1-44.2 89.2-40.5v-3.4c0-19.6-6.4-31.2-31.2-31.2-13 0-24.1 2.9-31.5 5.3-4 1-6.9 2.1-9 2.1-5.8 0-9.3-5.3-7.9-16.4 12.7-4.7 31.5-9 49.2-9 37.2 0.1 51 18.6 51 48.5m-20.6 44.2v-24.3c-36.5-1.6-68 1.8-68 24.6 0 11.1 9.5 21.4 26.5 21.4 17.1 0 31.7-8.8 41.5-21.7" fill="#fff"/>
		<path d="m1230.6 136c0-37.6 27.8-65.6 64.3-65.6 17.5 0 33.1 4.8 44.2 10.3 1.1 11.4-3.2 16.1-8.5 16.1-7.4 0-15.6-8.2-34.9-8.2-24.3 0-44.2 18.3-44.2 47.4 0 29.3 19.9 47.9 44.2 47.9 19.3 0 27.5-8.2 34.9-8.2 5.3 0 9.5 4.8 8.5 16.1-11.1 5.3-26.7 10-44.2 10-36.5 0.1-64.3-28.3-64.3-65.8" fill="#fff"/>
		<path d="m1181.3 38.4c0-7.7 6.1-13.5 13.5-13.5s13.2 5.8 13.2 13.5c0 6.9-5.8 13.2-13.2 13.2s-13.5-6.4-13.5-13.2m2.9 160.8v-119.3c0-4.8 2.7-7.9 11.1-7.9 3.4 0 7.4 0.8 9.5 1.3v119.1c0 5-2.9 7.9-11.1 7.9-3.4 0-7.4-0.6-9.5-1.1" fill="#fff"/>
		<path d="m751.9 199.2v-169.5c0-4.8 2.7-7.9 10.9-7.9 3.7 0 7.4 0.5 9.5 1v169.6c0 5-2.7 7.9-10.9 7.9-3.7 0-7.7-0.6-9.5-1.1" fill="#fff"/>
		<path d="m1052.2 124.4v68c0 5-2.7 7.9-10.9 7.9-3.4 0-7.4-0.6-9.5-1.1v-72.2c0-25.9-13-38.4-31.7-38.4-15.1 0-31.2 10.6-37.8 22.7v81c0 5-2.7 7.9-10.9 7.9-3.7 0-7.7-0.6-9.5-1.1v-125.8c1.8-0.5 5.8-1.3 9.5-1.3 8.2 0 10.9 3.2 10.9 7.9v10.9c9.3-11.1 23.3-20.4 42.3-20.4 25.9 0 47.6 16.7 47.6 54" fill="#fff"/>
		<path d="m1156.5 193.4c-10.9 5.3-23.6 8.5-36.5 8.5-24.6 0-39.7-14.3-39.7-38.9v-112.7c0-5 3.2-8.5 11.1-8.5 3.7 0 7.4 0.8 9.5 1.3v30.2h49.7c0.6 1.6 1.1 5 1.1 8.2 0 7.2-3.2 9.8-7.7 9.8h-43.4v70.1c0 15.4 7.4 22 21.7 22 13 0 20.3-5 26.4-5 6-0.1 8.6 5.2 7.8 15" fill="#fff"/>
		<path d="m723.7 193.4c-10.9 5.3-23.6 8.5-36.5 8.5-24.6 0-39.7-14.3-39.7-38.9v-112.7c0-5 3.2-8.5 11.1-8.5 3.7 0 7.4 0.8 9.5 1.3v30.2h49.7c0.6 1.6 1.1 5 1.1 8.2 0 7.2-3.2 9.8-7.7 9.8h-43.4v70.1c0 15.4 7.4 22 21.7 22 13 0 20.4-5 26.5-5 5.8-0.1 8.4 5.2 7.7 15" fill="#fff"/>
		<path d="m306 241.9c2.9 1.5 8.9 3.3 16.5 3.5 12.9 0.3 20-4.7 25.2-16.2l69.3-154.6c-2.8-1.5-9.2-3.2-14.4-3.3-8.9-0.2-20.8 1.7-28.5 19.9l-22.4 53-44-71.7c-2.8-0.9-9.7-2.1-14.8-2.1-15.5 0-24.2 5.7-33.2 15.5l-42.8 46.8 34.4 54.2c6.3 9.8 14.7 14.9 28.3 14.9 8.9 0 16.3-2 19.8-3.7l-41.4-62.5 29.3-31.1 48.2 75.6-29.5 61.8m-90.9-58.4c0 11.4-4.5 18-26.7 18-2.9 0-5.5-0.2-8-0.6v-151.2c0-11.5 3.9-23.5 26.4-23.5l8.3 0.8v156.5m-45.9-22.8c0 21.3-13.9 36.8-42.1 39.8-20.4 2.2-50-0.4-64.1-2l-0.9-7.4c0-18.6 10.1-22.8 19.5-22.8 9.8 0 25.2 1.7 36.6 1.7 12.6 0 16.4-4.3 16.4-8.3 0-5.3-5.1-7.6-14.9-9.4l-26.7-5.2c-22.3-4.3-34.1-19.7-34.1-36 0-19.9 14.1-36.5 41.7-39.6 20.9-2.3 46.4 0.3 60.3 2l0.8 7.2c0 18.5-9.8 22.5-19.2 22.5-7.2 0-18.5-1.4-31.3-1.4-13.1 0-18.5 3.6-18.5 8 0 4.6 5.2 6.6 13.3 8l25.6 4.7c26.3 4.9 37.6 19.8 37.6 38.2" fill="#003266"/>
	
	<path d="m1404.7 18.2c0-10-8.2-18.1-18.1-18.1h-1368.5c-10-0.1-18.1 8-18.1 18.1v164.2c0-6.3 2.1-12 5.7-16.6 4.8-6.2 12.1-10.2 20.4-10.6l1378.6-54.9z" fill="#fff" opacity=".2" Googl="true"/>

</svg>
