<?xml version="1.0" encoding="UTF-8"?>
<!-- Generator: Adobe Illustrator 23.0.1, SVG Export Plug-In . SVG Version: 6.00 Build 0)  -->
<!DOCTYPE svg PUBLIC "-//W3C//DTD SVG 1.1//EN" "http://www.w3.org/Graphics/SVG/1.1/DTD/svg11.dtd">
<svg version="1.1" id="Livello_1" xmlns:x="http://ns.adobe.com/Extensibility/1.0/" xmlns:i="http://ns.adobe.com/AdobeIllustrator/10.0/" xmlns:graph="http://ns.adobe.com/Graphs/1.0/" xmlns="http://www.w3.org/2000/svg" xmlns:xlink="http://www.w3.org/1999/xlink" x="0px" y="0px" viewBox="0 0 1404.7 272" enable-background="new 0 0 1404.7 272" xml:space="preserve">
<metadata>
	<sfw xmlns="http://ns.adobe.com/SaveForWeb/1.0/">
		<slices/>
		<sliceSourceBounds bottomLeftOrigin="true" height="272" width="1404.7" x="-202.7" y="-38.8"/>
	</sfw>
</metadata>
<g>
	<g>
		<path fill="#FFFFFF" d="M15.2,2.9C8.3,2.9,2.7,8.6,2.7,15.6v240.8c0,7,5.6,12.7,12.5,12.7l442.2,0V2.9L15.2,2.9"/>
		<path fill="#9D9D9C" d="M18.1,272h439.3v-5.7H18.1c-6.9,0-12.5-5.6-12.5-12.5V18.1c0-6.9,5.6-12.5,12.5-12.5h439.3V0H18.1    C8.1,0,0,8.1,0,18.1v235.7C0,263.9,8.1,272,18.1,272"/>
		<path fill="#003266" d="M1386.5,0H452.6v272h933.9c10,0,18.1-8.2,18.1-18.1V18.2C1404.7,8.2,1396.5,0,1386.5,0"/>
		<path fill="#FFFFFF" d="M910.7,118.8v80.4c-2.1,0.5-5.8,1-9.5,1c-7.7,0-10.9-2.6-10.9-7.9v-10.6c-11.9,12.7-26.2,20.1-45.2,20.1    c-28.3,0-44.2-18.2-44.2-38.4c0-30.7,33.1-44.2,89.2-40.5v-3.4c0-19.6-6.4-31.2-31.2-31.2c-13,0-24.1,2.9-31.5,5.3    c-4,1-6.9,2.1-9,2.1c-5.8,0-9.3-5.3-7.9-16.4c12.7-4.7,31.5-9,49.2-9C896.9,70.4,910.7,88.9,910.7,118.8 M890,163v-24.3    c-36.5-1.6-68,1.8-68,24.6c0,11.1,9.5,21.4,26.5,21.4C865.7,184.7,880.3,175.9,890,163"/>
		<path fill="#FFFFFF" d="M617,118.8v80.4c-2.1,0.5-5.8,1-9.5,1c-7.7,0-10.9-2.6-10.9-7.9v-10.6c-11.9,12.7-26.2,20.1-45.2,20.1    c-28.3,0-44.2-18.2-44.2-38.4c0-30.7,33.1-44.2,89.2-40.5v-3.4c0-19.6-6.4-31.2-31.2-31.2c-13,0-24.1,2.9-31.5,5.3    c-4,1-6.9,2.1-9,2.1c-5.8,0-9.3-5.3-7.9-16.4c12.7-4.7,31.5-9,49.2-9C603.2,70.4,617,88.9,617,118.8 M596.4,163v-24.3    c-36.5-1.6-68,1.8-68,24.6c0,11.1,9.5,21.4,26.5,21.4C572,184.7,586.6,175.9,596.4,163"/>
		<path fill="#FFFFFF" d="M1230.6,136c0-37.6,27.8-65.6,64.3-65.6c17.5,0,33.1,4.8,44.2,10.3c1.1,11.4-3.2,16.1-8.5,16.1    c-7.4,0-15.6-8.2-34.9-8.2c-24.3,0-44.2,18.3-44.2,47.4c0,29.3,19.9,47.9,44.2,47.9c19.3,0,27.5-8.2,34.9-8.2    c5.3,0,9.5,4.8,8.5,16.1c-11.1,5.3-26.7,10-44.2,10C1258.4,201.9,1230.6,173.5,1230.6,136"/>
		<path fill="#FFFFFF" d="M1181.3,38.4c0-7.7,6.1-13.5,13.5-13.5c7.4,0,13.2,5.8,13.2,13.5c0,6.9-5.8,13.2-13.2,13.2    C1187.4,51.6,1181.3,45.2,1181.3,38.4 M1184.2,199.2V79.9c0-4.8,2.7-7.9,11.1-7.9c3.4,0,7.4,0.8,9.5,1.3v119.1    c0,5-2.9,7.9-11.1,7.9C1190.3,200.3,1186.3,199.7,1184.2,199.2"/>
		<path fill="#FFFFFF" d="M751.9,199.2V29.7c0-4.8,2.7-7.9,10.9-7.9c3.7,0,7.4,0.5,9.5,1v169.6c0,5-2.7,7.9-10.9,7.9    C757.7,200.3,753.7,199.7,751.9,199.2"/>
		<path fill="#FFFFFF" d="M1052.2,124.4v68c0,5-2.7,7.9-10.9,7.9c-3.4,0-7.4-0.6-9.5-1.1V127c0-25.9-13-38.4-31.7-38.4    c-15.1,0-31.2,10.6-37.8,22.7v81c0,5-2.7,7.9-10.9,7.9c-3.7,0-7.7-0.6-9.5-1.1V73.3c1.8-0.5,5.8-1.3,9.5-1.3    c8.2,0,10.9,3.2,10.9,7.9v10.9c9.3-11.1,23.3-20.4,42.3-20.4C1030.5,70.4,1052.2,87.1,1052.2,124.4"/>
		<path fill="#FFFFFF" d="M1156.5,193.4c-10.9,5.3-23.6,8.5-36.5,8.5c-24.6,0-39.7-14.3-39.7-38.9V50.3c0-5,3.2-8.5,11.1-8.5    c3.7,0,7.4,0.8,9.5,1.3v30.2h49.7c0.6,1.6,1.1,5,1.1,8.2c0,7.2-3.2,9.8-7.7,9.8h-43.4v70.1c0,15.4,7.4,22,21.7,22    c13,0,20.3-5,26.4-5C1154.7,178.3,1157.3,183.6,1156.5,193.4"/>
		<path fill="#FFFFFF" d="M723.7,193.4c-10.9,5.3-23.6,8.5-36.5,8.5c-24.6,0-39.7-14.3-39.7-38.9V50.3c0-5,3.2-8.5,11.1-8.5    c3.7,0,7.4,0.8,9.5,1.3v30.2h49.7c0.6,1.6,1.1,5,1.1,8.2c0,7.2-3.2,9.8-7.7,9.8h-43.4v70.1c0,15.4,7.4,22,21.7,22    c13,0,20.4-5,26.5-5C721.8,178.3,724.4,183.6,723.7,193.4"/>
		<path fill="#003266" d="M306,241.9c2.9,1.5,8.9,3.3,16.5,3.5c12.9,0.3,20-4.7,25.2-16.2l69.3-154.6c-2.8-1.5-9.2-3.2-14.4-3.3    c-8.9-0.2-20.8,1.7-28.5,19.9l-22.4,53l-44-71.7c-2.8-0.9-9.7-2.1-14.8-2.1c-15.5,0-24.2,5.7-33.2,15.5l-42.8,46.8l34.4,54.2    c6.3,9.8,14.7,14.9,28.3,14.9c8.9,0,16.3-2,19.8-3.7l-41.4-62.5l29.3-31.1l48.2,75.6L306,241.9 M215.1,183.5    c0,11.4-4.5,18-26.7,18c-2.9,0-5.5-0.2-8-0.6V49.7c0-11.5,3.9-23.5,26.4-23.5l8.3,0.8V183.5 M169.2,160.7    c0,21.3-13.9,36.8-42.1,39.8c-20.4,2.2-50-0.4-64.1-2l-0.9-7.4c0-18.6,10.1-22.8,19.5-22.8c9.8,0,25.2,1.7,36.6,1.7    c12.6,0,16.4-4.3,16.4-8.3c0-5.3-5.1-7.6-14.9-9.4L93,147.1c-22.3-4.3-34.1-19.7-34.1-36c0-19.9,14.1-36.5,41.7-39.6    c20.9-2.3,46.4,0.3,60.3,2l0.8,7.2c0,18.5-9.8,22.5-19.2,22.5c-7.2,0-18.5-1.4-31.3-1.4c-13.1,0-18.5,3.6-18.5,8    c0,4.6,5.2,6.6,13.3,8l25.6,4.7C157.9,127.4,169.2,142.3,169.2,160.7"/>
	</g>
	<path opacity="0.2" fill="#FFFFFF" d="M1404.7,18.2c0-10-8.2-18.1-18.1-18.1H18.1C8.1,0,0,8.1,0,18.2v164.2c0-6.3,2.1-12,5.7-16.6   v0c4.8-6.2,12.1-10.2,20.4-10.6l1378.6-54.9V18.2z" Googl="true"/>
</g>
</svg>