<svg width="4234.6" height="666.66" viewBox="0 0 4234.7 666.66" xmlns="http://www.w3.org/2000/svg">
    <path d="M43.889-.002C19.445-.002.002 20.555.002 43.888v578.33c0 24.445 20 44.447 44.444 44.447l4145.8.002c24.445 0 44.444-20 44.444-44.444V43.883c0-23.334-19.447-43.89-43.891-43.89z" fill="#fff" stroke-width="5.556"/>
    <path d="M1109.4-.001h2333.3v666.67H1109.4zM506.67 64.443c-55 0-64.443 28.889-64.443 57.223v370c6.111 1.111 12.221 1.666 19.443 1.666 54.444 0 65.557-16.111 65.557-43.889V66.663c-6.667-1.667-13.89-2.223-20.557-2.223zm210.56 108.33c-37.778 0-59.444 13.888-81.666 37.777L531.114 325l84.445 132.78c15.556 24.444 36.11 36.666 69.443 36.666 21.667 0 40.001-5 48.334-8.889l-101.67-153.33 72.221-76.11 118.33 185.56-72.223 151.11c7.222 3.888 21.668 8.333 40.557 8.333 31.667.556 48.888-11.667 61.666-40l170-378.89c-7.222-3.889-22.778-7.776-35-8.332-21.667-.555-51.111 3.889-70 48.89l-55 130-108.33-175c-7.222-2.223-23.888-5-36.666-5zm-426.84.01c-14.891.047-29.739.694-43.715 2.213-67.778 7.778-102.22 48.332-102.22 97.22 0 40 28.888 77.779 83.332 88.335l65 11.666c24.444 5 36.668 10 36.668 23.334 0 10-8.889 20.555-40 20.555-28.333 0-66.111-3.889-90-3.889-23.333 0-47.779 10.556-47.779 56.111 0 5.556 1.112 12.778 2.223 18.334 34.444 3.89 107.22 10.556 157.22 5 69.444-7.778 103.33-45.555 103.33-97.777 0-45-27.224-81.666-91.668-93.889l-62.777-11.668c-20-3.333-32.777-8.332-32.777-19.443 0-10.556 12.778-19.445 45-19.445 31.667 0 58.888 3.334 76.666 3.334 23.333 0 47.223-9.444 47.223-55 0-6.111-.555-11.666-1.666-17.777-23.3-3.055-60.252-6.899-97.682-7.197a590.408 590.408 0 0 0-6.383-.016z" fill="#003264" stroke-width="5.556"/>
    <g fill="#fff">
        <path d="M1507.437 290.637v197.604c-5.406 1.201-14.415 2.403-22.824 2.403-18.018 0-25.826-6.607-25.826-18.62V448.6h-.601c-23.424 24.025-59.461 46.248-108.712 46.248-69.072 0-106.31-45.647-106.31-95.499 0-73.275 79.282-107.51 215.022-98.501v-7.808c0-48.65-15.616-75.078-75.078-75.078-31.832 0-58.26 6.607-76.879 11.412-9.01 2.402-16.217 4.805-21.622 4.805-13.815 0-22.223-13.814-18.62-39.641 29.43-11.412 74.477-22.223 118.323-22.223 90.093-.6 123.127 45.046 123.127 118.322zm-49.251 106.91v-58.26c-88.291-3.603-165.17 6.006-165.17 61.264 0 27.027 23.424 51.052 63.065 51.052 40.241 0 78.08-22.223 102.105-54.056zM2227.337 290.615V488.22c-5.406 1.201-14.415 2.403-22.824 2.403-18.018 0-25.826-6.607-25.826-18.62v-23.424h-.601c-23.424 24.025-59.461 46.248-108.712 46.248-69.072 0-106.31-45.647-106.31-95.499 0-73.275 79.282-107.51 215.022-98.501v-7.808c0-48.65-15.616-75.078-75.078-75.078-31.832 0-58.26 6.607-76.879 11.412-9.01 2.402-16.217 4.805-21.622 4.805-13.815 0-22.223-13.814-18.62-39.641 29.43-11.412 74.477-22.223 118.323-22.223 90.093-.6 123.127 45.046 123.127 118.322zm-49.251 106.91v-58.26c-88.291-3.603-165.17 6.006-165.17 61.264 0 27.027 23.424 51.052 63.065 51.052 40.241 0 78.08-22.223 102.105-54.056zM1775.789 473.257c-26.884 13.143-57.95 21.507-89.613 21.507-61.535 0-99.172-36.442-99.172-96.184V122.572c0-12.546 7.169-20.313 28.676-20.313 8.961 0 19.118 1.793 23.897 4.182v72.885h122.471c.597 4.78 1.792 13.741 1.792 21.508 0 18.52-7.169 25.091-19.117 25.091h-105.146V393.8c0 36.443 17.325 53.17 52.573 53.17 31.066 0 49.586-13.143 64.521-13.143s22.105 13.741 19.118 39.43M1842.642 488.306V73.424c0-13.042 7.453-20.495 29.812-20.495 9.316 0 19.253 1.863 24.843 3.105v414.26c0 13.664-6.832 20.496-28.57 20.496-9.937 0-20.496-1.242-26.085-2.484M2836.789 473.302c-26.884 13.143-57.95 21.507-89.613 21.507-61.535 0-99.172-36.442-99.172-96.184V122.617c0-12.546 7.169-20.313 28.676-20.313 8.961 0 19.118 1.793 23.897 4.182v72.885h122.471c.597 4.78 1.792 13.741 1.792 21.508 0 18.52-7.169 25.091-19.117 25.091h-105.146v167.875c0 36.443 17.325 53.17 52.573 53.17 31.066 0 49.586-13.143 64.521-13.143s22.105 13.741 19.118 39.43M2308.674 487.804V178.271c5.389-1.197 15.567-2.394 25.146-2.394 20.356 0 26.343 8.381 26.343 20.954v22.751c23.949-26.343 59.273-47.298 104.775-47.298 63.463 0 116.15 40.114 116.15 132.315v165.843c0 12.573-7.185 20.356-28.739 20.356-8.98 0-19.158-1.197-24.547-2.395V311.185c0-62.266-30.534-92.201-76.635-92.201-36.52 0-74.838 24.547-91.004 53.884v196.975c0 12.573-6.585 20.356-28.139 20.356-7.783 0-18.56-1.197-23.35-2.395zM2895.404 94.28c0-19.139 15.55-33.493 34.09-33.493s33.492 14.354 33.492 33.492c0 17.344-14.952 33.492-33.492 33.492-18.54.598-34.09-15.55-34.09-33.492zm7.177 394.128v-291.26c0-12.56 7.177-20.335 28.707-20.335 8.972 0 19.139 1.196 24.521 2.392v291.26c0 13.158-7.176 20.335-28.707 20.335-8.971 0-19.138-1.196-24.52-2.392zM3016.47 332.338c0-91.96 68.67-160.034 157.645-160.034 39.41 0 72.85 10.152 100.32 23.289 2.985 29.26-7.166 39.41-20.9 39.41-16.123 0-37.023-16.122-79.42-16.122-55.534 0-103.903 43.591-103.903 114.054s48.369 114.65 103.903 114.65c42.397 0 63.297-16.122 79.42-16.122 13.734 0 23.885 10.151 20.9 39.411-26.872 13.137-60.91 23.886-100.32 23.886-89.571-1.194-157.645-70.463-157.645-162.422"/>
    </g>
    <g fill="#003264">
        <path d="M3569.955 177.998c11.387-4.347 24.027-2.054 35.467.88v134.428h154.562V197.251c-.533-8.213 3.76-17.013 11.893-19.76 11.147-3.627 23.04-1.387 34.134 1.333v298.51c.507 7.867-4.48 15.494-11.946 18.08-11.174 3.601-23.094 1.334-34.08-1.84V356.028h-154.562V477.52c.453 7.36-4.054 14.614-10.907 17.414-11.414 4.32-23.84 1.813-35.174-1.307V197.411c-.427-7.787 3.093-16.213 10.613-19.413zM3878.972 180.264c5.161-3.334 11.154-3.795 17.192-3.752h55.104c25.12-.076 50.174.947 74.295 8.819 38.534 11.334 72.374 38.614 89.44 75.228 14.721 31.787 18.081 68.107 12.428 102.48-6.72 40.241-29.44 77.895-63.121 101.229-27.947 19.707-62.214 29.894-96.321 29.814h-72.108c-6.587-.16-14.56.132-19.067-5.601-4.987-6.107-4.133-14.427-4.186-21.76V199.89c-.027-6.854.32-15.12 6.346-19.627m39.734 38.29v233.447h49.387c28.374-.56 57.708-9.494 78.775-29.148 24.853-22.346 36.827-56.454 35.893-89.414 1.04-25.974-7.173-52.107-23.173-72.64-14.72-18.668-36-31.521-58.908-37.468-13.719-3.71-27.76-4.775-41.875-4.775z"/>
    </g>
    <path d="M44.445-.001h4145.8c24.444 0 44.444 20 44.444 44.444v212.22l-4170.8 123.89C28.333 381.664 0 411.109 0 446.664V44.444C0 20 20 0 44.444 0z" fill="#fff" opacity=".2" stroke-width="5.556"/>
</svg>
