<!DOCTYPE svg  PUBLIC '-//W3C//DTD SVG 1.1//EN'  'http://www.w3.org/Graphics/SVG/1.1/DTD/svg11.dtd'>
<svg enable-background="new 0 0 3139.7 500" version="1.1" viewBox="0 0 3139.7 500" xml:space="preserve" xmlns="http://www.w3.org/2000/svg">
		<path d="m3106.4 0h-607.9c-18.4 0-33.3 14.9-33.3 33.3v433.3c0 18.4 14.8 33.3 33.3 33.3h607.9c18.4 0 33.3-14.9 33.3-33.3v-433.2c0-18.5-14.8-33.4-33.3-33.4m0 10c12.9 0 23.3 10.5 23.3 23.3v433.3c0 12.8-10.5 23.3-23.3 23.3h-607.9c-12.9 0-23.3-10.5-23.3-23.3v-433.2c0-12.9 10.5-23.3 23.3-23.3h607.9" fill="#276D9D"/>
		<path d="m3106.4 10c12.9 0 23.3 10.5 23.3 23.3v433.3c0 12.8-10.5 23.3-23.3 23.3h-607.9c-12.9 0-23.3-10.5-23.3-23.3v-433.2c0-12.9 10.5-23.3 23.3-23.3h607.9" fill="#fff"/>
		<path d="m2811.4 153.8v184.7c0 8.1-4.1 12.6-16.7 12.6-5.7 0-11-0.8-15.1-1.6v-85h-105.4v74.1c0 8.1-4.1 12.6-16.7 12.6-6.1 0-12.2-0.8-15.1-1.6v-184.8c0-7.8 4.1-12.6 17.1-12.6 5.7 0 11.3 0.8 14.6 1.6v82.2h104.9v-71.2c0-7.8 4.5-12.6 17.5-12.6 6 0 11.6 0.8 14.9 1.6" fill="#06467A"/>
		<path d="m3027.6 251.4c0 55.4-38.7 97.3-99.3 97.3h-56.5c-12.2 0-16.7-4.9-16.7-12.6v-168.9c0-7.7 4.5-12.6 16.7-12.6h56.5c60.6 0 99.3 41.5 99.3 96.8m-32.2 0c0-41.5-26-68.4-67.1-68.4h-41.5v137.1h41.5c41.1 0.1 67.1-26.8 67.1-68.7" fill="#06467A"/>
				<linearGradient id="c" x1="1355.4" x2="1380.2" y1="-439.13" y2="-439.13" gradientTransform="matrix(70.102 0 0 70.102 -94216 31034)" gradientUnits="userSpaceOnUse">
				<stop stop-color="#00396E" offset="0"/>
				<stop stop-color="#276D9D" offset="1"/>
			</linearGradient>
			<path d="m2502.1 0.1h-1667.9c-18.4 0-33.4 15-33.4 33.4v433.1c0 18.5 15 33.4 33.4 33.4h1667.8c18.5 0 33.4-15 33.4-33.4v-433.1c0.1-18.4-14.9-33.4-33.3-33.4z" fill="url(#c)"/>
			<path d="m500.6 465.1c6 3.1 18.1 6.7 33.3 7.1 26.2 0.6 40.4-9.4 51-32.9l140.4-312.5c-5.8-3.1-18.7-6.6-29.1-6.8-18.1-0.4-42.4 3.3-57.8 40.2l-45.4 107-89.1-144.9c-5.8-1.7-19.8-4.2-30-4.2-31.6 0-49.1 11.5-67.4 31.3l-86.7 94.7 69.7 109.5c12.9 20 29.8 30.2 57.4 30.2 18.1 0 33.1-4.2 40.1-7.5l-84-126.3 59.5-63 97.6 153-59.5 125.1zm-184.1-118.2c0 23.1-9.1 36.3-54.1 36.3-6 0-11.2-0.4-16.2-1.1v-305.6c0-23.3 7.9-47.5 53.3-47.5 5.8 0 11.5 0.6 16.9 1.8v316.1h0.1zm-93-46.1c0 43.1-28.1 74.4-85.3 80.5-41.4 4.4-101.3-0.8-129.8-4.1-1-4.6-1.7-10.4-1.7-15 0-37.5 20.2-46.1 39.3-46.1 19.8 0 51 3.4 74.1 3.4 25.6 0 33.3-8.6 33.3-16.9 0-10.8-10.2-15.2-30-19l-54.3-10.4c-45-8.5-69.1-39.7-69.1-72.7 0-40.2 28.5-73.8 84.5-79.9 42.4-4.6 93.9 0.6 122.3 4 1 4.8 1.5 9.4 1.5 14.4 0 37.5-19.8 45.6-38.9 45.6-14.6 0-37.3-2.7-63.3-2.7-26.4 0-37.3 7.3-37.3 16.1 0 9.4 10.4 13.3 26.9 16.2l51.8 9.6c53.1 9.7 76 39.9 76 77" fill="#00396E"/>
			<path d="m1095.6 220.4v151.5c-3.9 1-11.3 2-18.2 2-14.8 0-21.6-5.4-21.6-15.3v-20.7c-21.2 24.1-48.7 38.4-83.6 38.4-52.6 0-81.7-34.4-81.7-71.8 0-57.1 61-82.1 164.8-75.3v-8.4c0-38.8-11.8-55.1-56.6-55.1-18.7 0-43.8 5.4-57.1 8.9-7.9 2-13.8 3.9-18.7 3.9-11.3 0-18.7-9.8-14.8-30.5 24.1-8.9 59-17.2 92.5-17.2 69.4 0.1 95 31.1 95 89.6m-40.4 82.7v-44.8c-67.9-4.9-124.4 3.9-124.4 44.8 0 20.7 17.2 39.3 48.2 39.3 31.5 0 59-15.7 76.2-39.3" fill="#fff"/>
			<path d="m1298.8 360.1c-20.7 9.8-44.3 16.2-67.9 16.2-46.7 0-74.8-27.5-74.8-73.3v-203.1c0-10.3 5.9-17.2 21.6-17.2 6.9 0 14.7 1.5 18.7 2.5v51.1h92c0.5 3.4 1.5 10.3 1.5 16.2 0 14.3-5.9 19.2-14.7 19.2h-78.7v128.4c0 27.5 12.8 40.8 38.9 40.8 23.6 0 36.9-10.3 48.2-10.3 11.7 0 17.6 9.8 15.2 29.5" fill="#fff"/>
			<path d="m1335.5 371.9v-305.9c0-9.3 5.4-15.2 21.7-15.2 6.9 0 14.7 1 18.7 2v305.9c0 9.8-5.4 15.3-21.6 15.3-7-0.1-14.9-1.1-18.8-2.1" fill="#fff"/>
			<path d="m1627.7 220.4v151.5c-3.9 1-11.3 2-18.2 2-14.8 0-21.6-5.4-21.6-15.3v-20.7c-21.2 24.1-48.7 38.4-83.6 38.4-52.6 0-81.7-34.4-81.7-71.8 0-57.1 61-82.1 164.8-75.3v-8.4c0-38.8-11.8-55.1-56.6-55.1-18.7 0-43.8 5.4-57.1 8.9-7.9 2-13.8 3.9-18.7 3.9-11.3 0-18.7-9.8-14.8-30.5 24.1-8.9 59-17.2 92.5-17.2 69.4 0.1 95 31.1 95 89.6m-40.4 82.7v-44.8c-67.9-4.9-124.4 3.9-124.4 44.8 0 20.7 17.2 39.3 48.2 39.3 31.5 0 59-15.7 76.2-39.3" fill="#fff"/>
			<path d="m1897.2 231.3v127.4c0 9.3-5.4 15.2-21.6 15.2-6.9 0-14.7-1-18.7-2v-135.2c0-47.2-23.1-69.8-58-69.8-27 0-56.6 18.7-68.4 40.8v151c0 9.3-5.4 15.2-21.6 15.2-6.9 0-14.7-1-18.7-2v-236.6c3.9-1 11.8-2 18.7-2 16.2 0 21.6 5.9 21.6 15.2v20.2c17.2-21.2 43.3-37.9 78.2-37.9 48.2 0.1 88.5 30.6 88.5 100.5" fill="#fff"/>
			<path d="m2099.7 360.1c-20.7 9.8-44.3 16.2-67.9 16.2-46.7 0-74.8-27.5-74.8-73.3v-203.1c0-10.3 5.9-17.2 21.6-17.2 6.9 0 14.7 1.5 18.7 2.5v51.1h92c0.5 3.4 1.5 10.3 1.5 16.2 0 14.3-5.9 19.2-14.7 19.2h-78.7v128.4c0 27.5 12.8 40.8 38.9 40.8 23.6 0 36.9-10.3 48.2-10.3 11.7 0 17.6 9.8 15.2 29.5" fill="#fff"/>
			<path d="m2131 81.7c0-14.7 11.8-25.6 25.6-25.6 14.7 0 26.1 10.8 26.1 25.6 0 13.3-11.3 25.6-26.1 25.6-13.8 0-25.6-12.3-25.6-25.6m5.4 290.2v-223.3c0-9.4 5.4-15.2 21.6-15.2 6.9 0 14.3 1 18.2 2v223.3c0 9.8-4.9 15.3-21.1 15.3-6.9-0.1-14.8-1.1-18.7-2.1" fill="#fff"/>
			<path d="m2225.1 253.4c0-70.3 51.6-122.5 120-122.5 32 0 61.5 8.9 82.1 18.7 3.5 22.1-3.4 31-13.3 31-17.2 0-32-14.3-67.4-14.3-44.3 0-80.7 33-80.7 87.1 0 53.6 36.4 87.1 80.7 87.1 35.4 0 50.2-14.8 65.9-14.8 10.3 0 17.7 9.4 14.7 31.5-20.6 10.3-50.2 19.2-82.1 19.2-68.3 0-119.9-53.2-119.9-123" fill="#fff"/>
			<linearGradient id="b" x1="1670.7" x2="1662" y1="-2590.7" y2="-2341.7" gradientTransform="matrix(1 0 0 -1 0 -2364.2)" gradientUnits="userSpaceOnUse">
			<stop stop-color="#fff" offset="0"/>
			<stop stop-color="#fff" stop-opacity=".8347" offset=".1203"/>
			<stop stop-color="#fff" stop-opacity=".6576" offset=".2693"/>
			<stop stop-color="#fff" stop-opacity=".5107" offset=".4195"/>
			<stop stop-color="#fff" stop-opacity=".3965" offset=".5684"/>
			<stop stop-color="#fff" stop-opacity=".3152" offset=".7156"/>
			<stop stop-color="#fff" stop-opacity=".2664" offset=".8603"/>
			<stop stop-color="#fff" stop-opacity=".25" offset="1"/>
		</linearGradient>
		<path d="m824.8 248.1s1.1-0.1 3.2-0.2c98.6-3.5 1682.5-58.2 1682.5-58.2 13.9-0.1 25-11.5 24.9-25.3v-131.1c0-18.4-14.9-33.3-33.3-33.3h-1668c-18.4 0-33.3 14.9-33.3 33.3v240.8c-0.4-13.7 10.3-25.3 24-26z" enable-background="new    " fill="url(#b)" opacity=".3" Googl="true"/>
			<linearGradient id="a" x1="366.14" x2="360.27" y1="-2628.1" y2="-2460.2" gradientTransform="matrix(1 0 0 -1 0 -2364.2)" gradientUnits="userSpaceOnUse">
			<stop stop-color="#fff" offset="0"/>
			<stop stop-color="#fff" stop-opacity=".8347" offset=".1203"/>
			<stop stop-color="#fff" stop-opacity=".6576" offset=".2693"/>
			<stop stop-color="#fff" stop-opacity=".5107" offset=".4195"/>
			<stop stop-color="#fff" stop-opacity=".3965" offset=".5684"/>
			<stop stop-color="#fff" stop-opacity=".3152" offset=".7156"/>
			<stop stop-color="#fff" stop-opacity=".2664" offset=".8603"/>
			<stop stop-color="#fff" stop-opacity=".25" offset="1"/>
		</linearGradient>
		<path d="m725.3 126.9-51.4 114.5c-4 8.2-12.3 13.4-21.4 13.4l-46.9 1.6c-5.1 0.3-9.6 3.7-11.4 8.5v-0.1l44.3-104.5c15.4-36.9 39.7-40.6 57.7-40.2 10.1 0.4 19.9 2.7 29.1 6.8zm-134.7 136.7-86.8-141.1c-9.8-2.6-19.9-4-30.1-4.2-31.6 0-49.1 11.5-67.3 31.4l-86.7 94.6 6.9 10.9c4.5 6.8 12.3 10.7 20.5 10.3 4.1-0.1 46-1.6 49.4-1.7 8.5-0.7 16.7 3 21.8 9.8l-15.5-23.4 59.5-63.1 40 62.7c4.9 6.2 12.5 9.7 20.4 9.5 2.1-0.1 54.4-1.9 56.8-2 4.6 0.1 8.8 2.5 11.1 6.3zm-291.1-234.6c-45.4 0-53.3 24.3-53.3 47.5v209.6c0-9.6 7.7-17.4 17.3-17.7l35.2-1.2c9.8 0 17.8-8 17.8-17.8v-218.7c-5.7-1.2-11.3-1.8-17-1.7zm-152 194.7-51.8-9.6c-16.5-2.9-27-6.7-27-16.1 0-8.8 11-16.1 37.4-16.1 26 0 48.7 2.7 63.3 2.7 19 0 38.9-8.1 38.9-45.6 0-4.8-0.5-9.7-1.5-14.4-28.3-3.5-79.9-8.6-122.3-4-56 6.1-84.5 39.7-84.5 79.8 0.1 21.5 10.2 41.7 27.4 54.7 12.6 7.8 26.9 12.9 41.6 14.8 19.2 2.6 38.6 3.6 57.9 3 6.1-0.2 51.8-1.8 61.8-2.2 23.1-0.8 35.8 18.9 34.5 38.8 0-0.3 0-0.5 0.1-0.8v-0.2c0.2-2.6 0.3-5.2 0.3-7.8 0-37-23-67.2-76.1-77z" enable-background="new    " fill="url(#a)" opacity=".3"/>
</svg>
