<svg enable-background="new 0 0 3469.2 500" version="1.1" viewBox="0 0 1448.2 147" xml:space="preserve" xmlns="http://www.w3.org/2000/svg">

	
		
		
		
		
		
		
	
	
		
			<linearGradient id="c" x1="1214.5" x2="1286.8" y1="-2272.4" y2="-2272.4" gradientTransform="matrix(7.0372 0 0 -7.0372 -8312 -15918)" gradientUnits="userSpaceOnUse">
			<stop stop-color="#00396E" offset="0"/>
			<stop stop-color="#033D72" offset=".2689"/>
			<stop stop-color="#0D4A7E" offset=".5571"/>
			<stop stop-color="#1D6091" offset=".8534"/>
			<stop stop-color="#276D9D" offset="1"/>
		</linearGradient>
		<path d="m1436.3 6.8407e-7h-724.86c-7.0995-2e-3 -12.856 4.3818-12.853 9.7884v127.42c0 5.4066 5.7536 9.7899 12.853 9.7884h724.86c7.0995 2e-3 11.938-4.3818 11.936-9.7884v-127.42c0-5.4066-4.8366-9.7899-11.936-9.7884m0 2.9403c4.9668 3e-3 8.9917 3.0688 8.9961 6.8511l1e-4 127.42c-0.01 3.7817-4.0304 6.8461-8.9961 6.8511h-724.86c-4.9657-5e-3 -8.9899-3.0694-8.9961-6.8511v-127.42c0-3.7823 4.0295-6.8478 8.9961-6.8511h724.86" fill="#06467a" stroke-width=".33692"/><path d="m1436.3 2.9403c4.9668 3e-3 8.992 3.0688 8.9961 6.8511v127.42c-0.01 3.7817-4.0305 6.8461-8.9961 6.8511h-724.86c-4.9657-5e-3 -8.99-3.0694-8.9961-6.8511v-127.42c0-3.7823 4.0295-6.8478 8.9961-6.8511h724.86" fill="#fff" stroke-width="1.146"/><path d="m1265.1 128.36c-1.0817 2e-3 -1.9617-0.87047-1.9698-1.9522v-105.83c0.041-1.0575 0.91-1.8937 1.9683-1.8937s1.9275 0.83622 1.9683 1.8937v105.84c-0.01 1.0812-0.8856 1.9538-1.9668 1.9522" fill="#06467a" stroke-width=".294"/><path d="m1348.3 45.202v54.313c0 2.3814-1.1907 3.7132-4.9039 3.7132-1.4824-0.0158-2.9597-0.1783-4.41-0.4851v-25.005h-30.993v21.777c0 2.3814-1.2084 3.7132-4.9039 3.7132-1.4928 0.0136-2.9821-0.1492-4.4365-0.4851v-54.31c0-2.2785 1.2084-3.7132 5.0245-3.7132 1.4521-1.1e-4 2.8996 0.16161 4.3159 0.48215v24.161h30.87v-20.93c0-2.2785 1.3112-3.7132 5.145-3.7132 1.4473-2e-3 2.8901 0.16036 4.3012 0.48215" fill="#06467a" stroke-width=".294"/><path d="m1411.8 73.913c0 16.267-11.363 28.597-29.185 28.597h-16.629c-3.5926 0-4.9068-1.4494-4.9068-3.7132v-49.648c0-2.2609 1.3142-3.7132 4.9068-3.7132h16.629c17.822 0 29.185 12.21 29.185 28.477m-9.4462 0c0-12.21-7.644-20.101-19.739-20.101h-12.192v40.322h12.192c12.089 0 19.739-7.8909 19.739-20.221" fill="#06467a" stroke-width=".294"/><g transform="translate(474.71 -159.87)" fill="#06467a"><path d="m428.61 229.72v36.836a21.081 21.082 0 0 1-4.4103 0.48515c-3.587 0-5.2717-1.3201-5.2717-3.7194v-5.0219c-5.1365 5.8804-11.84 9.3411-20.331 9.3411-12.793 0-19.864-8.3738-19.864-17.465 0-13.878 14.845-19.993 40.08-18.311v-2.0375c0-9.4382-2.8696-13.392-13.76-13.392-4.5367 0-10.644 1.3172-13.878 2.1523-1.9023 0.48514-3.3518 0.9497-4.5367 0.9497-2.752 0-4.5543-2.3846-3.587-7.4036 5.8539-2.1523 14.345-4.1869 22.484-4.1869 16.862 0 23.083 7.5388 23.083 21.758m-9.8055 20.096v-10.879c-16.512-1.1761-30.257 0.96733-30.257 10.879 0 5.0219 4.1869 9.5764 11.711 9.5764 7.6444 0 14.36-3.837 18.547-9.5764" stroke-width=".29402"/><path d="m373.71 228.75v34.577c0 2.3846-1.3172 3.7018-5.2688 3.7018a21.134 21.135 0 0 1-4.5367-0.48515v-36.594c0-8.3738-3.9545-13.275-11.493-13.275-6.339 0-11.59 4.4104-13.742 8.9736v37.679c0 2.3846-1.3172 3.7018-5.2718 3.7018a21.169 21.17 0 0 1-4.5367-0.48515v-36.594c0-8.3738-3.9516-13.275-11.49-13.275-6.339 0-11.611 4.4104-13.76 8.9736v37.679c0 2.3846-1.3201 3.7018-5.2541 3.7018a21.337 21.338 0 0 1-4.5543-0.48515v-57.526a21.657 21.658 0 0 1 4.669-0.48514c3.7046 0 5.0218 1.4348 5.0218 3.9546v3.937c3.7017-4.9043 9.4556-8.4914 16.394-8.4914 7.6445 0 13.628 3.837 16.63 10.408 3.9369-5.9892 9.9231-10.408 18.414-10.408 12.325 0 18.779 9.2059 18.779 20.816" stroke-width=".29402"/><path d="m472.16 214.02c0 3.9519-1.6731 4.7811-5.7485 4.7811-8.2537 0-15.193 3.8225-19.492 12.811v32.403c0 2.3994-1.3114 3.7137-5.2662 3.7137a21.527 21.527 0 0 1-4.54-0.48517v-57.523a21.527 21.527 0 0 1 4.54-0.48517c3.9548 0 5.2662 1.4349 5.2662 3.7137v8.0097c5.628-8.4948 14.114-12.811 24.758-11.359a28.557 28.557 0 0 1 0.4822 4.4106" stroke-width=".29404"/><path d="m524.61 229.72v36.836a21.081 21.082 0 0 1-4.4103 0.48515c-3.587 0-5.2717-1.3201-5.2717-3.7194v-5.0219c-5.1365 5.8804-11.84 9.3411-20.331 9.3411-12.793 0-19.864-8.3738-19.864-17.465 0-13.878 14.845-19.993 40.08-18.311v-2.0375c0-9.4382-2.8696-13.392-13.76-13.392-4.5367 0-10.644 1.3172-13.878 2.1523-1.9023 0.48514-3.3518 0.9497-4.5367 0.9497-2.752 0-4.5543-2.3846-3.587-7.4036 5.8539-2.1523 14.345-4.1869 22.484-4.1869 16.862 0 23.083 7.5388 23.083 21.758m-9.8055 20.096v-10.879c-16.512-1.1761-30.257 0.96733-30.257 10.879 0 5.0219 4.1869 9.5764 11.711 9.5764 7.6444 0 14.36-3.837 18.547-9.5764" stroke-width=".29402"/><path d="m755.21 243.47h-44.514c1.3231 11.126 8.9652 17.348 20.332 17.348 4.9133 0 8.7418-0.9615 12.332-2.1465 2.5052-0.84093 3.5871-1.1997 4.5488-1.1997 2.7492 0 4.5341 2.2641 4.0548 7.5361-5.1368 2.267-13.034 4.7751-21.294 4.7751-17.936 0-30.017-12.073-30.017-30.017 0-17.225 12.793-29.673 28.471-29.673 17.704 0 26.428 13.755 26.428 27.639a54.881 54.881 0 0 1-0.34404 5.7542m-44.512-7.6596h35.283c-0.35874-9.8061-6.6982-17.466-16.863-17.466-8.8623 0-16.863 6.0981-18.427 17.466" stroke-width=".29403"/><path d="m573.24 239.88c0-17.104 12.552-29.794 29.403-29.794 17.001 0 29.556 12.69 29.556 29.794 0 16.983-12.555 29.914-29.556 29.914-16.863 0-29.403-12.937-29.403-29.914m49.045 0c0-13.152-8.8623-21.171-19.63-21.171-10.647 0-19.489 8.0212-19.489 21.171 0 13.034 8.8417 21.294 19.489 21.294 10.767 0 19.63-8.2593 19.63-21.294" stroke-width=".29403"/><path d="m690.96 234.5v30.979c0 2.2846-1.3202 3.7108-5.272 3.7108a21.735 21.735 0 0 1-4.534-0.48221v-32.884c0-11.488-5.6307-17.001-14.114-17.001-6.5776 0-13.755 4.5517-16.642 9.9442v36.712c0 2.2846-1.3055 3.7108-5.2544 3.7108a21.923 21.923 0 0 1-4.5517-0.48222v-57.527a22.155 22.155 0 0 1 4.5517-0.47046c3.949 0 5.2544 1.4261 5.2544 3.7079v4.8957c4.1902-5.1368 10.526-9.2063 19.027-9.2063 11.729 0 21.535 7.4185 21.535 24.405" stroke-width=".29403"/><path d="m568.21 264.39c-5.0279 2.3876-10.767 3.9637-16.495 3.9637-11.368 0-18.186-6.6982-18.186-17.824v-49.398c0-2.5228 1.4261-4.1901 5.2543-4.1901a21.047 21.047 0 0 1 4.5517 0.58806v12.435h22.376a29.903 29.903 0 0 1 0.3617 3.949c0 3.4695-1.4437 4.6722-3.5903 4.6722h-19.148v31.208c0 6.6952 3.1079 9.9236 9.4444 9.9236 5.7542 0 8.9829-2.5081 11.729-2.5081 2.8697 0 4.3106 2.3876 3.7108 7.1803" stroke-width=".29403"/></g><path d="m743.73 137.24v-127.45c0-5.4096-4.41-9.7902-9.8196-9.7902h-489.3c-5.4096 0-9.7902 4.41-9.7902 9.8196v127.39c0 5.4096 4.3806 9.7902 9.7902 9.7902h489.3c5.4096 0 9.8196-4.3806 9.8196-9.7608z" fill="url(#c)" stroke-width=".294"/>
		<g transform="scale(.294)" fill="#fff">
			<path d="m1093.4 219.9v151.1c-4 1-11.4 2-18.2 2-14.7 0-21.6-5.4-21.6-15.2v-20.6c-21.1 24.1-48.6 38.3-83.5 38.3-52.5 0-81.5-34.3-81.5-71.7 0-56.9 60.9-81.9 164.5-75.1v-8.4c0-38.8-11.8-55-56.5-55-18.6 0-43.7 5.4-56.9 8.8-7.9 2-13.7 4-18.7 4-11.3 0-18.7-9.8-14.8-30.4 24.1-8.8 58.9-17.2 92.3-17.2 69.4 0 94.9 31 94.9 89.4m-40.3 82.5v-44.7c-67.8-4.9-124.2 4-124.2 44.7 0 20.6 17.1 39.3 48.1 39.3 31.5-0.1 58.9-15.8 76.1-39.3"/>
			<path d="m1296.2 359.3c-20.6 9.8-44.2 16.2-67.8 16.2-46.6 0-74.6-27.5-74.6-73.1v-202.8c0-10.3 5.9-17.1 21.6-17.1 6.9 0 14.8 1.4 18.7 2.5v51h91.8c0.5 3.4 1.5 10.3 1.5 16.2 0 14.2-5.9 19.1-14.8 19.1h-78.5v128.1c0 27.5 12.8 40.7 38.8 40.7 23.6 0 36.8-10.3 48.2-10.3 11.6 0.1 17.5 9.8 15.1 29.5"/>
			<path d="m1332.8 371.1v-305.4c0-9.3 5.4-15.2 21.6-15.2 6.9 0 14.7 0.9 18.7 2v305.3c0 9.8-5.4 15.2-21.6 15.2-6.9 0-14.8-0.9-18.7-1.9"/>
			<path d="m1624.4 219.9v151.1c-4 1-11.4 2-18.2 2-14.7 0-21.6-5.4-21.6-15.2v-20.6c-21.1 24.1-48.6 38.3-83.5 38.3-52.5 0-81.5-34.3-81.5-71.7 0-56.9 60.9-81.9 164.5-75.1v-8.4c0-38.8-11.8-55-56.5-55-18.6 0-43.7 5.4-56.9 8.8-7.9 2-13.7 4-18.7 4-11.3 0-18.7-9.8-14.8-30.4 24.1-8.8 58.9-17.2 92.3-17.2 69.4 0 94.9 31 94.9 89.4m-40.2 82.5v-44.7c-67.8-4.9-124.2 4-124.2 44.7 0 20.6 17.1 39.3 48.1 39.3 31.4-0.1 58.8-15.8 76.1-39.3"/>
			<path d="m1893.4 230.7v127.1c0 9.3-5.4 15.2-21.6 15.2-6.9 0-14.7-0.9-18.7-2v-134.9c0-47.2-23.1-69.7-57.9-69.7-27 0-56.4 18.7-68.2 40.7v150.7c0 9.3-5.4 15.2-21.6 15.2-6.9 0-14.7-0.9-18.7-2v-236.1c4-0.9 11.8-2 18.7-2 16.2 0 21.6 5.9 21.6 15.3v20.1c17.2-21.1 43.2-37.8 78-37.8 48.1 0 88.4 30.5 88.4 100.2"/>
			<path d="m2095.4 359.3c-20.6 9.8-44.2 16.2-67.8 16.2-46.6 0-74.6-27.5-74.6-73.1v-202.8c0-10.3 5.9-17.1 21.6-17.1 6.9 0 14.8 1.4 18.7 2.5v51h91.8c0.5 3.4 1.5 10.3 1.5 16.2 0 14.2-5.9 19.1-14.8 19.1h-78.5v128.1c0 27.5 12.8 40.7 38.8 40.7 23.6 0 36.8-10.3 48.2-10.3 11.7 0.1 17.6 9.8 15.1 29.5"/>
			<path d="m2126.7 81.4c0-14.7 11.8-25.5 25.5-25.5 14.8 0 26 10.8 26 25.5 0 13.3-11.3 25.5-26 25.5-13.7 0.1-25.5-12.2-25.5-25.5m5.4 289.7v-222.9c0-9.3 5.4-15.2 21.6-15.2 6.9 0 14.2 1 18.2 2v222.9c0 9.8-4.9 15.2-21.1 15.2-6.9-0.1-14.8-1-18.7-2"/>
			<path d="m2220.6 252.8c0-70.2 51.6-122.2 119.8-122.2 31.9 0 61.4 8.8 82 18.7 3.4 22.1-3.5 30.9-13.3 30.9-17.1 0-31.9-14.2-67.2-14.2-44.2 0-80.6 32.8-80.6 86.9 0 53.5 36.4 86.9 80.6 86.9 35.3 0 50-14.7 65.7-14.7 10.3 0 17.6 9.3 14.8 31.4-20.6 10.3-50.1 19.2-82 19.2-68.2-0.2-119.8-53.2-119.8-122.9"/>
		</g>
		
			<linearGradient id="b" x1="1666.7" x2="1658" y1="424.51" y2="175.44" gradientTransform="matrix(.294 0 0 .294 0 -58.212)" gradientUnits="userSpaceOnUse">
			<stop stop-color="#fff" offset="0"/>
			<stop stop-color="#fff" stop-opacity=".8347" offset=".1203"/>
			<stop stop-color="#fff" stop-opacity=".6576" offset=".2693"/>
			<stop stop-color="#fff" stop-opacity=".5107" offset=".4195"/>
			<stop stop-color="#fff" stop-opacity=".3965" offset=".5684"/>
			<stop stop-color="#fff" stop-opacity=".3152" offset=".7156"/>
			<stop stop-color="#fff" stop-opacity=".2664" offset=".8603"/>
			<stop stop-color="#fff" stop-opacity=".25" offset="1"/>
		</linearGradient>
		<path d="m241.87 72.941s0.3234-0.0294 0.9408-0.0588c28.988-1.029 493.6-17.199 493.6-17.199 4.0866-0.0294 7.35-3.381 7.3206-7.4382l-0.0294-38.426c0-5.4096-4.3806-9.7902-9.7902-9.7902h-489.3c-5.4096 0-9.7902 4.3806-9.7902 9.7902v70.736c-0.1176-4.0278 3.0282-7.4088 7.056-7.6146z" enable-background="new    " fill="url(#b)" opacity=".3" stroke-width=".294" Googl="true"/>
		
			<path d="m146.91 136.45c1.7346 0.882 5.292 1.9698 9.7608 2.0874 7.7028 0.1764 11.878-2.7636 14.965-9.6432l41.189-91.669c-1.7052-0.9114-5.4978-1.911-8.526-1.9698-5.3214-0.1176-12.436 0.9702-16.934 11.789l-13.318 31.429-26.166-42.512c-1.7052-0.4998-5.8212-1.2642-8.82-1.2642-9.261 0-14.406 3.381-19.786 9.2022l-25.402 27.754 20.433 32.134c3.7926 5.88 8.7612 8.8788 16.846 8.8788 5.3214 0 9.702-1.2642 11.76-2.205l-24.608-37.044 17.434-18.493 28.606 44.806zm-54.067-34.692c0 6.762-2.646 10.643-15.847 10.643-1.764 0-3.2634-0.1176-4.7334-0.3528v-89.67c0-6.8208 2.2932-13.936 15.641-13.936 1.7052 0 3.4104 0.1764 4.9686 0.4998v92.816zm-27.254-13.524c0 12.642-8.2614 21.815-25.019 23.608-12.142 1.2936-29.723-0.2058-38.073-1.176-0.2646-1.3524-0.4998-3.0576-0.4998-4.41 0-10.996 5.9388-13.553 11.525-13.553 5.8212 0 14.965 1.029 21.756 1.029 7.5264 0 9.7902-2.5284 9.7902-4.9686 0-3.1752-2.9988-4.4688-8.82-5.586l-15.964-2.9988c-13.23-2.5578-20.286-11.672-20.286-21.374 0-11.789 8.379-21.668 24.814-23.461 12.407-1.3524 27.548 0.1764 35.868 1.176 0.2646 1.4112 0.441 2.7636 0.441 4.2336 0 10.996-5.8212 13.348-11.407 13.348-4.2924 0-10.937-0.7938-18.581-0.7938-7.7322 0-10.937 2.1462-10.937 4.7334 0 2.7636 3.0282 3.8808 7.9086 4.7334l15.2 2.793c15.582 2.94 22.285 11.789 22.285 22.667" fill="#00396e" stroke-width=".294"/>
			
				<linearGradient id="a" x1="366.16" x2="360.29" y1="461.76" y2="293.87" gradientTransform="matrix(.294 0 0 .294 0 -58.212)" gradientUnits="userSpaceOnUse">
				<stop stop-color="#fff" offset="0"/>
				<stop stop-color="#fff" stop-opacity=".8347" offset=".1203"/>
				<stop stop-color="#fff" stop-opacity=".6576" offset=".2693"/>
				<stop stop-color="#fff" stop-opacity=".5107" offset=".4195"/>
				<stop stop-color="#fff" stop-opacity=".3965" offset=".5684"/>
				<stop stop-color="#fff" stop-opacity=".3152" offset=".7156"/>
				<stop stop-color="#fff" stop-opacity=".2664" offset=".8603"/>
				<stop stop-color="#fff" stop-opacity=".25" offset="1"/>
			</linearGradient>
			<path d="m213.24 37.25-15.112 33.663c-1.176 2.4108-3.6162 3.9396-6.2916 3.9396l-13.789 0.4704c-1.4994 0.0882-2.8224 1.0878-3.3516 2.499v-0.0294l13.024-30.723c4.5276-10.849 11.672-11.936 16.964-11.819 2.9694 0.1176 5.8506 0.7938 8.5554 1.9992zm-39.572 40.219-25.519-41.513c-2.8812-0.7644-5.8506-1.176-8.8494-1.2348-9.2904 0-14.435 3.381-19.786 9.2316l-25.49 27.812 2.0286 3.2046c1.323 1.9992 3.6162 3.1458 6.027 3.0282 1.2054-0.0294 13.524-0.4704 14.524-0.4998 2.499-0.2058 4.9098 0.882 6.4092 2.8812l-4.5276-6.8502 17.493-18.551 11.76 18.434c1.4406 1.8228 3.675 2.8518 5.9976 2.793 0.6174-0.0294 15.994-0.5586 16.699-0.588 1.2936 0 2.5578 0.7056 3.234 1.8522zm-85.613-68.972c-13.348 0-15.67 7.1442-15.67 13.965v61.593c0-2.8224 2.2638-5.1156 5.0862-5.2038l10.349-0.3528c2.8812 0 5.2332-2.352 5.2332-5.2332v-64.268c-1.6464-0.3528-3.3222-0.5292-4.998-0.4998zm-44.688 57.242-15.229-2.8224c-4.851-0.8526-7.938-1.9698-7.938-4.7334 0-2.5872 3.234-4.7334 10.996-4.7334 7.644 0 14.318 0.7938 18.61 0.7938 5.586 0 11.437-2.3814 11.437-13.406 0-1.4112-0.147-2.8518-0.441-4.2336-8.3202-1.029-23.491-2.5284-35.956-1.176-16.464 1.764-24.843 11.672-24.843 23.461 0.0294 6.321 2.9988 12.26 8.0556 16.052 3.7044 2.2932 7.9086 3.7926 12.23 4.3512 5.6448 0.7644 11.348 1.0584 17.023 0.882 1.7934-0.0588 15.229-0.5292 18.169-0.6468 6.7914-0.2352 10.525 5.5566 10.143 11.407 0-0.0882 0-0.147 0.0294-0.2352v-0.0588c0.0588-0.7644 0.0882-1.5288 0.0882-2.2932 0-10.849-6.762-19.727-22.373-22.609z" enable-background="new    " fill="url(#a)" opacity=".3" stroke-width=".294"/>
		
	

</svg>
