<?xml version="1.0" encoding="UTF-8" standalone="no"?>
<svg
   xmlns:dc="http://purl.org/dc/elements/1.1/"
   xmlns:cc="http://creativecommons.org/ns#"
   xmlns:rdf="http://www.w3.org/1999/02/22-rdf-syntax-ns#"
   xmlns:svg="http://www.w3.org/2000/svg"
   xmlns="http://www.w3.org/2000/svg"
   xmlns:xlink="http://www.w3.org/1999/xlink"
   height="174.05"
   width="778.39001"
   xml:space="preserve"
   viewBox="0 0 778.39001 174.05"
   y="0px"
   x="0px"
   id="Ebene_1"
   version="1.1"><metadata
   id="metadata150"><rdf:RDF><cc:Work
       rdf:about=""><dc:format>image/svg+xml</dc:format><dc:type
         rdf:resource="http://purl.org/dc/dcmitype/StillImage" /><dc:title></dc:title></cc:Work></rdf:RDF></metadata><defs
   id="defs148" />
<style
   id="style2"
   type="text/css">
	.st0{fill:#020203;}
	.st1{clip-path:url(#SVGID_2_);fill:url(#SVGID_3_);}
	.st2{filter:url(#Adobe_OpacityMaskFilter);}
	.st3{clip-path:url(#SVGID_5_);fill:url(#SVGID_7_);}
	.st4{clip-path:url(#SVGID_5_);mask:url(#SVGID_6_);fill:url(#SVGID_8_);}
	.st5{fill:#A1A2A2;}
	.st6{fill:#AE2D40;}
	.st7{fill:#FFFFFF;}
	.st8{opacity:0.8;}
	.st9{opacity:0.4;}
	.st10{clip-path:url(#SVGID_12_);fill:#FFFFFF;}
</style>
<g
   transform="translate(-4.25,-3.34)"
   id="g143">
	<g
   style="fill:#ffffff"
   id="g22">
		<path
   style="fill:#ffffff"
   id="path4"
   d="m 255.89,177.39 c -0.63,0 -1.26,-0.03 -1.87,-0.09 -0.62,-0.06 -1.08,-0.13 -1.4,-0.21 v -35.57 c 0,-0.91 0.21,-1.65 0.62,-2.23 0.41,-0.57 1.36,-0.86 2.82,-0.86 h 8.73 c 2.53,0 4.76,0.34 6.68,1.01 1.92,0.67 3.51,1.6 4.78,2.79 1.27,1.19 2.22,2.58 2.85,4.19 0.63,1.6 0.95,3.32 0.95,5.14 0,1.94 -0.35,3.72 -1.04,5.34 -0.69,1.62 -1.68,3.02 -2.97,4.19 -1.29,1.17 -2.83,2.08 -4.63,2.73 -1.8,0.65 -3.81,0.98 -6.03,0.98 h -6.12 v 9.8 c 0,0.79 -0.25,1.46 -0.74,1.99 -0.48,0.53 -1.36,0.8 -2.63,0.8 m 3.39,-18.47 h 5.05 c 3.09,0 5.34,-0.65 6.77,-1.96 1.42,-1.31 2.14,-3.09 2.14,-5.35 0,-2.3 -0.71,-4.06 -2.14,-5.29 -1.43,-1.23 -3.5,-1.84 -6.24,-1.84 h -5.58 z"
   class="st0" />
		<path
   style="fill:#ffffff"
   id="path6"
   d="m 288.38,177.39 c -0.63,0 -1.26,-0.03 -1.87,-0.09 -0.62,-0.06 -1.08,-0.13 -1.4,-0.21 v -35.57 c 0,-0.91 0.21,-1.65 0.62,-2.23 0.42,-0.57 1.36,-0.86 2.82,-0.86 h 9.68 c 4.43,0 7.88,1.06 10.33,3.18 2.45,2.12 3.68,5.04 3.68,8.76 0,1.54 -0.25,2.98 -0.74,4.31 -0.5,1.33 -1.2,2.5 -2.11,3.53 -0.91,1.03 -2.02,1.88 -3.33,2.55 -1.31,0.67 -2.79,1.11 -4.45,1.31 l 12,14.25 c -0.63,0.36 -1.33,0.62 -2.08,0.8 -0.75,0.18 -1.46,0.27 -2.14,0.27 -1.27,0 -2.27,-0.19 -3,-0.56 -0.73,-0.38 -1.49,-1.06 -2.29,-2.05 l -9.67,-12.41 h -2.68 v 12.23 c 0,0.79 -0.25,1.46 -0.74,1.99 -0.49,0.53 -1.37,0.8 -2.63,0.8 m 3.38,-20.73 h 5.46 c 3.01,0 5.16,-0.56 6.44,-1.69 1.29,-1.13 1.93,-2.66 1.93,-4.6 0,-1.9 -0.58,-3.35 -1.75,-4.36 -1.17,-1.01 -3.02,-1.51 -5.55,-1.51 h -6.53 z"
   class="st0" />
		<path
   style="fill:#ffffff"
   id="path8"
   d="m 321.75,177.03 c -1.46,0 -2.41,-0.29 -2.82,-0.86 -0.42,-0.57 -0.62,-1.32 -0.62,-2.23 v -32.43 c 0,-0.91 0.21,-1.65 0.62,-2.23 0.41,-0.57 1.36,-0.86 2.82,-0.86 h 19.95 c 0.08,0.32 0.15,0.75 0.21,1.31 0.06,0.55 0.09,1.11 0.09,1.66 0,1.15 -0.25,1.95 -0.74,2.4 -0.49,0.46 -1.1,0.68 -1.81,0.68 h -14.49 v 10.33 h 15.32 c 0.04,0.32 0.09,0.72 0.15,1.22 0.06,0.5 0.09,1.02 0.09,1.57 0,1.11 -0.23,1.88 -0.68,2.32 -0.46,0.44 -1.02,0.65 -1.69,0.65 h -13.18 v 10.39 h 17.28 c 0.04,0.32 0.09,0.72 0.15,1.22 0.06,0.49 0.09,1.02 0.09,1.57 0,1.19 -0.24,2.03 -0.71,2.52 -0.48,0.5 -1.07,0.74 -1.78,0.74 h -18.25 z"
   class="st0" />
		<path
   style="fill:#ffffff"
   id="path10"
   d="m 349.84,177.33 c -0.67,0 -1.26,-0.07 -1.75,-0.21 -0.49,-0.14 -0.92,-0.29 -1.28,-0.45 l 3.93,-37.59 c 0.55,-0.24 1.27,-0.43 2.16,-0.57 0.89,-0.14 1.65,-0.21 2.28,-0.21 1.77,0 3.13,0.27 4.05,0.8 0.93,0.53 1.55,1.48 1.86,2.82 l 6.53,25.83 6.59,-25.65 c 0.32,-1.35 0.95,-2.32 1.9,-2.91 0.95,-0.59 2.26,-0.89 3.92,-0.89 0.79,0 1.6,0.06 2.43,0.18 0.83,0.12 1.52,0.26 2.08,0.42 l 3.72,37.77 c -0.39,0.16 -0.86,0.31 -1.39,0.45 -0.53,0.14 -1.14,0.21 -1.81,0.21 -0.91,0 -1.66,-0.16 -2.26,-0.48 -0.59,-0.32 -0.93,-0.91 -1.01,-1.78 l -2.52,-30.52 -7.25,27.02 c -0.32,1.11 -0.86,1.87 -1.63,2.29 -0.77,0.42 -1.75,0.62 -2.94,0.62 -0.6,0 -1.22,-0.04 -1.87,-0.12 -0.65,-0.08 -1.2,-0.2 -1.63,-0.35 l -8.18,-29.46 -2.76,30.58 c -0.08,0.83 -0.42,1.4 -1.01,1.72 -0.62,0.32 -1.33,0.48 -2.16,0.48"
   class="st0" />
		<path
   style="fill:#ffffff"
   id="path12"
   d="m 397.65,177.39 c -0.63,0 -1.26,-0.03 -1.87,-0.09 -0.61,-0.06 -1.08,-0.13 -1.4,-0.21 V 141.1 c 0,-0.79 0.25,-1.45 0.74,-1.99 0.49,-0.54 1.38,-0.8 2.64,-0.8 0.63,0 1.26,0.03 1.87,0.09 0.61,0.06 1.08,0.13 1.4,0.21 v 35.99 c 0,0.79 -0.25,1.46 -0.74,1.99 -0.5,0.53 -1.38,0.8 -2.64,0.8"
   class="st0" />
		<path
   style="fill:#ffffff"
   id="path14"
   d="m 412.02,177.03 c -1.47,0 -2.41,-0.29 -2.82,-0.86 -0.42,-0.57 -0.62,-1.32 -0.62,-2.23 v -32.43 c 0,-0.91 0.21,-1.65 0.62,-2.23 0.42,-0.57 1.36,-0.86 2.82,-0.86 h 19.95 c 0.08,0.32 0.15,0.75 0.21,1.31 0.06,0.55 0.09,1.11 0.09,1.66 0,1.15 -0.25,1.95 -0.74,2.4 -0.49,0.46 -1.1,0.68 -1.81,0.68 h -14.49 v 10.33 h 15.32 c 0.04,0.32 0.09,0.72 0.15,1.22 0.06,0.5 0.09,1.02 0.09,1.57 0,1.11 -0.23,1.88 -0.68,2.32 -0.46,0.44 -1.02,0.65 -1.69,0.65 h -13.18 v 10.39 h 17.28 c 0.04,0.32 0.09,0.72 0.15,1.22 0.06,0.49 0.09,1.02 0.09,1.57 0,1.19 -0.24,2.03 -0.71,2.52 -0.48,0.5 -1.07,0.74 -1.78,0.74 h -18.25 z"
   class="st0" />
		<path
   style="fill:#ffffff"
   id="path16"
   d="m 442.07,177.39 c -0.63,0 -1.26,-0.03 -1.87,-0.09 -0.62,-0.06 -1.08,-0.13 -1.4,-0.21 v -35.57 c 0,-0.91 0.21,-1.65 0.62,-2.23 0.42,-0.57 1.36,-0.86 2.82,-0.86 h 9.68 c 4.43,0 7.88,1.06 10.33,3.18 2.45,2.12 3.68,5.04 3.68,8.76 0,1.54 -0.25,2.98 -0.74,4.31 -0.5,1.33 -1.2,2.5 -2.11,3.53 -0.91,1.03 -2.02,1.88 -3.33,2.55 -1.31,0.67 -2.79,1.11 -4.46,1.31 l 12,14.25 c -0.63,0.36 -1.33,0.62 -2.08,0.8 -0.75,0.18 -1.46,0.27 -2.14,0.27 -1.27,0 -2.27,-0.19 -3,-0.56 -0.73,-0.38 -1.49,-1.06 -2.29,-2.05 l -9.67,-12.41 h -2.68 v 12.23 c 0,0.79 -0.25,1.46 -0.74,1.99 -0.47,0.53 -1.35,0.8 -2.62,0.8 m 3.38,-20.73 h 5.46 c 3.01,0 5.16,-0.56 6.44,-1.69 1.29,-1.13 1.93,-2.66 1.93,-4.6 0,-1.9 -0.58,-3.35 -1.75,-4.36 -1.17,-1.01 -3.02,-1.51 -5.55,-1.51 h -6.53 z"
   class="st0" />
		<path
   style="fill:#ffffff"
   id="path18"
   d="m 475.44,177.03 c -1.46,0 -2.4,-0.29 -2.82,-0.86 -0.42,-0.57 -0.62,-1.32 -0.62,-2.23 v -32.43 c 0,-0.91 0.21,-1.65 0.62,-2.23 0.42,-0.57 1.36,-0.86 2.82,-0.86 h 19.95 c 0.08,0.32 0.15,0.75 0.21,1.31 0.06,0.55 0.09,1.11 0.09,1.66 0,1.15 -0.25,1.95 -0.74,2.4 -0.49,0.46 -1.1,0.68 -1.81,0.68 h -14.49 v 10.33 h 15.32 c 0.04,0.32 0.09,0.72 0.15,1.22 0.06,0.5 0.09,1.02 0.09,1.57 0,1.11 -0.23,1.88 -0.68,2.32 -0.46,0.44 -1.02,0.65 -1.69,0.65 h -13.19 v 10.39 h 17.28 c 0.04,0.32 0.09,0.72 0.15,1.22 0.06,0.49 0.09,1.02 0.09,1.57 0,1.19 -0.24,2.03 -0.71,2.52 -0.48,0.5 -1.07,0.74 -1.78,0.74 h -18.24 z"
   class="st0" />
		<path
   style="fill:#ffffff"
   id="path20"
   d="m 505.32,177.39 c -0.59,0 -1.18,-0.02 -1.75,-0.06 -0.57,-0.04 -1.02,-0.1 -1.34,-0.18 V 138.9 c 0.43,-0.2 0.99,-0.35 1.66,-0.45 0.67,-0.1 1.29,-0.15 1.84,-0.15 1.58,0 2.72,0.21 3.41,0.62 0.69,0.42 1.3,1.02 1.81,1.81 l 17.29,26.72 -0.36,-26.55 c 0,-0.71 0.23,-1.32 0.68,-1.84 0.45,-0.51 1.28,-0.77 2.46,-0.77 0.55,0 1.12,0.03 1.69,0.09 0.57,0.06 1.02,0.13 1.34,0.21 v 38.25 c -0.91,0.36 -1.98,0.53 -3.21,0.53 -1.42,0 -2.47,-0.21 -3.15,-0.62 -0.67,-0.42 -1.23,-0.96 -1.66,-1.63 l -17.88,-27.85 0.36,27.49 c 0,0.75 -0.23,1.38 -0.68,1.87 -0.45,0.51 -1.29,0.76 -2.51,0.76"
   class="st0" />
	</g>
	<g
   id="g49">
		<defs
   id="defs25">
			<path
   d="m 19.21,6.56 c -8.06,0 -10.93,4.76 -10.93,12.68 v 76.94 c 0,7.92 2.87,12.68 10.93,12.68 h 748.48 c 8.06,0 10.93,-4.76 10.93,-12.68 V 19.24 c 0,-7.92 -2.87,-12.68 -10.93,-12.68 z"
   id="SVGID_1_" />
		</defs>
		<clipPath
   id="SVGID_2_">
			<use
   height="100%"
   width="100%"
   y="0"
   x="0"
   id="use27"
   style="overflow:visible"
   xlink:href="#SVGID_1_" />
		</clipPath>
		
			<linearGradient
   gradientTransform="matrix(0,104.0158,-104.0158,0,19263.676,5.6655)"
   y2="181.41701"
   x2="1"
   y1="181.41701"
   x1="0"
   gradientUnits="userSpaceOnUse"
   id="SVGID_3_">
			<stop
   id="stop30"
   style="stop-color:#868584"
   offset="0" />
			<stop
   id="stop32"
   style="stop-color:#D8D9DA"
   offset="0.0204" />
			<stop
   id="stop34"
   style="stop-color:#F4F3F4"
   offset="0.0524" />
			<stop
   id="stop36"
   style="stop-color:#EDEEEE"
   offset="0.4877" />
			<stop
   id="stop38"
   style="stop-color:#F4F3F4"
   offset="0.8955" />
			<stop
   id="stop40"
   style="stop-color:#EAEAEB"
   offset="0.9294" />
			<stop
   id="stop42"
   style="stop-color:#D8D9DA"
   offset="0.9643" />
			<stop
   id="stop44"
   style="stop-color:#868584"
   offset="1" />
		</linearGradient>
		<rect
   style="fill:url(#SVGID_3_)"
   id="rect47"
   clip-path="url(#SVGID_2_)"
   height="102.3"
   width="770.34003"
   class="st1"
   y="6.5599999"
   x="8.2700005" />
	</g>
	<g
   id="g95">
		<defs
   id="defs52">
			<rect
   height="102.3"
   width="372.06"
   y="6.5500002"
   x="196.2"
   id="SVGID_4_" />
		</defs>
		<clipPath
   id="SVGID_5_">
			<use
   height="100%"
   width="100%"
   y="0"
   x="0"
   id="use54"
   style="overflow:visible"
   xlink:href="#SVGID_4_" />
		</clipPath>
		<defs
   id="defs60">
			<filter
   height="102.3"
   width="372.06"
   y="6.5500002"
   x="196.2"
   filterUnits="userSpaceOnUse"
   id="Adobe_OpacityMaskFilter">
				<feColorMatrix
   id="feColorMatrix57"
   values="1 0 0 0 0  0 1 0 0 0  0 0 1 0 0  0 0 0 1 0"
   type="matrix" />
			</filter>
		</defs>
		<mask
   id="SVGID_6_"
   height="102.3"
   width="372.06"
   y="6.55"
   x="196.2"
   maskUnits="userSpaceOnUse">
			<g
   style="filter:url(#Adobe_OpacityMaskFilter)"
   id="g77"
   class="st2">
				
					<linearGradient
   gradientTransform="matrix(0,-102.2995,-102.2995,0,18941.111,108.8526)"
   y2="181.41701"
   x2="1"
   y1="181.41701"
   x1="-3.57979e-06"
   gradientUnits="userSpaceOnUse"
   id="SVGID_7_">
					<stop
   id="stop62"
   style="stop-color:#FFFFFF"
   offset="0" />
					<stop
   id="stop64"
   style="stop-color:#FFFFFF"
   offset="3.723490e-03" />
					<stop
   id="stop66"
   style="stop-color:#FFFFFF"
   offset="0.1044" />
					<stop
   id="stop68"
   style="stop-color:#FFFFFF"
   offset="0.8981" />
					<stop
   id="stop70"
   style="stop-color:#CCCCCC"
   offset="0.9997" />
					<stop
   id="stop72"
   style="stop-color:#CCCCCC"
   offset="1" />
				</linearGradient>
				<rect
   style="fill:url(#SVGID_7_)"
   id="rect75"
   clip-path="url(#SVGID_5_)"
   height="102.3"
   width="372.06"
   class="st3"
   y="6.5500002"
   x="196.2" />
			</g>
		</mask>
		
			<linearGradient
   gradientTransform="matrix(0,-102.2995,-102.2995,0,18941.107,108.8526)"
   y2="181.41701"
   x2="1"
   y1="181.41701"
   x1="-3.5797909e-06"
   gradientUnits="userSpaceOnUse"
   id="SVGID_8_">
			<stop
   id="stop80"
   style="stop-color:#821626"
   offset="0" />
			<stop
   id="stop82"
   style="stop-color:#821626"
   offset="3.723490e-03" />
			<stop
   id="stop84"
   style="stop-color:#AE2D40"
   offset="0.1044" />
			<stop
   id="stop86"
   style="stop-color:#AE2D40"
   offset="0.8981" />
			<stop
   id="stop88"
   style="stop-color:#BA3D4D"
   offset="0.9997" />
			<stop
   id="stop90"
   style="stop-color:#BA3D4D"
   offset="1" />
		</linearGradient>
		<rect
   style="fill:url(#SVGID_8_)"
   id="rect93"
   clip-path="url(#SVGID_5_)"
   mask="url(#SVGID_6_)"
   height="102.3"
   width="372.06"
   class="st4"
   y="6.5500002"
   x="196.2" />
	</g>
	<g
   id="g141">
		<path
   style="fill:#a1a2a2"
   id="path97"
   d="m 20.43,111.07 c -8.06,0 -13.52,-4.76 -13.52,-12.68 V 17.02 C 6.91,9.1 12.36,4.34 20.43,4.34 h 746.04 c 8.07,0 13.52,4.76 13.52,12.68 v 81.37 c 0,7.92 -5.45,12.68 -13.52,12.68 z m 746.59,1 c 11.97,0 15.62,-7.44 15.62,-14.89 V 18.22 c 0,-7.44 -3.65,-14.88 -15.62,-14.88 H 19.87 C 7.9,3.34 4.25,10.78 4.25,18.22 v 78.96 c 0,7.44 3.65,14.89 15.62,14.89 z"
   class="st5" />
		<path
   style="fill:#ae2d40"
   id="path99"
   d="m 129.78,101.01 c 1.2,0.61 3.67,1.36 6.78,1.44 5.32,0.12 8.23,-1.93 10.38,-6.69 l 28.57,-63.73 c -1.18,-0.63 -3.79,-1.34 -5.93,-1.39 -3.67,-0.07 -8.6,0.68 -11.75,8.2 l -9.25,21.84 -18.14,-29.56 c -1.17,-0.36 -4.03,-0.87 -6.13,-0.87 -6.39,0 -9.98,2.36 -13.69,6.39 l -17.64,19.3 14.19,22.33 c 2.62,4.07 6.08,6.14 11.69,6.14 3.67,0 6.73,-0.83 8.14,-1.51 L 109.92,57.14 122.03,44.31 141.89,75.48 Z M 92.3,76.9 c 0,4.7 -1.85,7.41 -11.01,7.41 -1.22,0 -2.28,-0.09 -3.3,-0.24 V 21.76 c 0,-4.73 1.61,-9.67 10.87,-9.67 1.17,0 2.34,0.12 3.44,0.35 z M 73.38,67.5 c 0,8.76 -5.73,15.16 -17.35,16.42 -8.43,0.9 -20.62,-0.16 -26.42,-0.83 -0.22,-0.94 -0.38,-2.12 -0.38,-3.04 0,-7.67 4.15,-9.41 8.02,-9.41 4.03,0 10.38,0.7 15.1,0.7 5.19,0 6.77,-1.76 6.77,-3.44 0,-2.2 -2.1,-3.11 -6.13,-3.89 L 41.96,61.89 C 32.78,60.13 27.88,53.78 27.88,47.04 c 0,-8.19 5.8,-15.05 17.2,-16.31 8.62,-0.93 19.11,0.12 24.87,0.83 0.21,0.99 0.32,1.92 0.32,2.95 0,7.64 -4.03,9.29 -7.91,9.29 -2.98,0 -7.61,-0.56 -12.89,-0.56 -5.38,0 -7.61,1.49 -7.61,3.3 0,1.91 2.13,2.7 5.49,3.29 l 10.54,1.96 c 10.84,1.99 15.49,8.14 15.49,15.71"
   class="st6" />
		<path
   style="fill:#ffffff"
   id="path101"
   d="m 247.06,89.96 c -4.54,0 -8.72,-0.82 -12.55,-2.45 -3.83,-1.63 -7.15,-3.89 -9.96,-6.77 -2.81,-2.88 -5.01,-6.31 -6.61,-10.28 -1.6,-3.97 -2.4,-8.26 -2.4,-12.87 0,-4.48 0.8,-8.68 2.4,-12.58 1.6,-3.9 3.8,-7.3 6.61,-10.18 2.81,-2.88 6.13,-5.14 9.96,-6.77 3.83,-1.63 8.02,-2.45 12.55,-2.45 3.26,0 6.42,0.35 9.48,1.06 3.07,0.71 5.91,1.6 8.53,2.69 0.58,8.52 -1.5,12.77 -6.23,12.77 -0.83,0 -1.6,-0.1 -2.3,-0.29 -0.7,-0.19 -1.47,-0.38 -2.3,-0.58 -0.83,-0.19 -1.76,-0.38 -2.78,-0.58 -1.02,-0.19 -2.24,-0.29 -3.64,-0.29 -2.24,0 -4.34,0.4 -6.32,1.2 -1.98,0.8 -3.69,1.95 -5.13,3.46 -1.44,1.51 -2.57,3.31 -3.4,5.43 -0.83,2.11 -1.25,4.48 -1.25,7.11 0,2.75 0.42,5.22 1.25,7.4 0.83,2.18 1.96,4.02 3.4,5.52 1.44,1.5 3.15,2.66 5.13,3.46 1.98,0.8 4.09,1.2 6.32,1.2 1.4,0 2.65,-0.1 3.74,-0.29 1.09,-0.19 2.06,-0.38 2.92,-0.58 0.86,-0.19 1.68,-0.38 2.44,-0.58 0.77,-0.19 1.57,-0.29 2.4,-0.29 4.66,0 6.74,4.26 6.23,12.77 -2.62,1.09 -5.54,1.99 -8.77,2.69 -3.23,0.72 -6.47,1.07 -9.72,1.07"
   class="st7" />
		<path
   style="fill:#ffffff"
   id="path103"
   d="m 280.12,89.19 c -1.34,0 -2.67,-0.06 -3.98,-0.19 -1.31,-0.13 -2.41,-0.29 -3.3,-0.48 V 32.91 c 0,-1.86 0.57,-3.44 1.72,-4.76 1.15,-1.31 3.32,-1.97 6.51,-1.97 1.34,0 2.67,0.06 3.98,0.19 1.31,0.13 2.41,0.29 3.3,0.48 v 55.61 c 0,1.86 -0.57,3.44 -1.72,4.76 -1.15,1.32 -3.32,1.97 -6.51,1.97"
   class="st7" />
		<path
   style="fill:#ffffff"
   id="path105"
   d="m 306.32,89.19 c -1.28,0 -2.52,-0.06 -3.74,-0.19 -1.21,-0.13 -2.24,-0.29 -3.07,-0.48 V 27.34 c 0.96,-0.32 2.2,-0.59 3.74,-0.82 1.53,-0.22 2.84,-0.34 3.93,-0.34 3.51,0 6.07,0.45 7.66,1.34 1.6,0.9 2.94,2.21 4.02,3.94 l 21.75,34.29 V 32.33 c 0,-0.83 0.11,-1.62 0.34,-2.35 0.22,-0.74 0.61,-1.39 1.15,-1.97 0.54,-0.58 1.29,-1.02 2.25,-1.34 0.96,-0.32 2.17,-0.48 3.64,-0.48 1.28,0 2.51,0.06 3.69,0.19 1.18,0.13 2.19,0.26 3.02,0.38 v 61.28 c -0.9,0.45 -1.98,0.75 -3.26,0.91 -1.28,0.16 -2.52,0.24 -3.74,0.24 -3,0 -5.24,-0.42 -6.71,-1.25 -1.47,-0.83 -2.68,-1.98 -3.64,-3.46 L 314.07,47.21 v 35.63 c 0,1.79 -0.54,3.3 -1.63,4.51 -1.07,1.23 -3.12,1.84 -6.12,1.84"
   class="st7" />
		<path
   style="fill:#ffffff"
   id="path107"
   d="m 374.38,88.81 c -1.79,0 -3.24,-0.19 -4.36,-0.58 -1.12,-0.38 -1.98,-0.91 -2.59,-1.58 -0.61,-0.67 -1.02,-1.49 -1.24,-2.45 -0.23,-0.96 -0.34,-1.98 -0.34,-3.07 V 34.06 c 0,-1.09 0.11,-2.11 0.34,-3.07 0.22,-0.96 0.64,-1.78 1.24,-2.45 0.61,-0.67 1.47,-1.2 2.59,-1.59 1.12,-0.38 2.57,-0.58 4.36,-0.58 h 31.71 c 0.13,0.71 0.25,1.67 0.38,2.88 0.13,1.22 0.19,2.47 0.19,3.75 0,2.69 -0.54,4.6 -1.63,5.72 -1.09,1.12 -2.46,1.68 -4.12,1.68 h -19.55 v 10.95 h 22.52 c 0.13,0.64 0.26,1.49 0.38,2.54 0.13,1.06 0.19,2.19 0.19,3.41 0,2.56 -0.51,4.31 -1.53,5.24 -1.02,0.93 -2.3,1.39 -3.83,1.39 h -17.73 v 10.85 h 25.68 c 0.13,0.71 0.26,1.68 0.38,2.93 0.13,1.25 0.19,2.48 0.19,3.7 0,2.75 -0.54,4.68 -1.63,5.76 -1.09,1.09 -2.46,1.63 -4.12,1.63 h -27.48 z"
   class="st7" />
		<path
   style="fill:#ffffff"
   id="path109"
   d="m 420.43,89.19 c -1.47,0 -2.76,-0.14 -3.88,-0.43 -1.12,-0.29 -2.09,-0.63 -2.92,-1.01 l 5.86,-59.84 c 1.21,-0.51 2.81,-0.93 4.79,-1.25 1.98,-0.32 3.67,-0.48 5.08,-0.48 1.98,0 3.68,0.13 5.12,0.38 1.44,0.26 2.67,0.69 3.69,1.3 1.02,0.61 1.83,1.46 2.44,2.55 0.61,1.09 1.07,2.43 1.39,4.03 l 2.49,11.62 c 0.7,3.2 1.45,6.74 2.25,10.61 0.8,3.88 1.52,7.86 2.15,11.96 h 0.38 c 0.7,-4.1 1.43,-8.07 2.2,-11.91 0.76,-3.84 1.56,-7.36 2.39,-10.57 l 3.06,-12.2 c 0.76,-3.01 1.99,-5.06 3.68,-6.15 1.69,-1.09 4.32,-1.63 7.89,-1.63 1.79,0 3.59,0.14 5.41,0.43 1.82,0.29 3.33,0.59 4.54,0.91 l 5.6,60.22 c -0.89,0.32 -1.96,0.64 -3.21,0.96 -1.25,0.32 -2.6,0.48 -4.07,0.48 -2.04,0 -3.77,-0.35 -5.17,-1.06 -1.41,-0.7 -2.17,-2.02 -2.3,-3.94 l -1.44,-20.75 c -0.32,-3.65 -0.59,-7.47 -0.82,-11.48 -0.22,-4 -0.37,-7.79 -0.43,-11.38 h -0.19 c -0.83,3.33 -1.68,6.93 -2.54,10.81 -0.86,3.87 -1.74,7.44 -2.63,10.71 l -3.93,16.33 c -0.96,3.84 -3.99,5.76 -9.1,5.76 -1.28,0 -2.59,-0.13 -3.93,-0.38 -1.34,-0.25 -2.49,-0.54 -3.45,-0.86 l -4.88,-20.36 c -0.96,-3.78 -1.85,-7.49 -2.68,-11.14 -0.83,-3.65 -1.6,-7.3 -2.3,-10.95 h -0.29 c -0.19,5.12 -0.45,9.81 -0.77,14.07 -0.32,4.26 -0.61,7.92 -0.86,11 l -1.53,18.73 c -0.13,1.86 -0.83,3.14 -2.11,3.84 -1.27,0.72 -2.93,1.07 -4.98,1.07"
   class="st7" />
		<path
   style="fill:#ffffff"
   id="path111"
   d="m 495.89,89.38 c -1.21,0 -2.6,-0.11 -4.17,-0.34 -1.57,-0.22 -2.86,-0.53 -3.88,-0.91 l 19.88,-60.89 c 1.73,-0.45 3.47,-0.77 5.24,-0.96 1.76,-0.19 3.38,-0.29 4.85,-0.29 2.11,0 3.92,0.16 5.43,0.48 1.51,0.32 2.77,0.8 3.79,1.44 1.03,0.64 1.87,1.49 2.55,2.55 0.67,1.06 1.23,2.29 1.68,3.7 l 17.04,53.88 c -1.09,0.45 -2.4,0.78 -3.93,1.01 -1.53,0.22 -3.04,0.34 -4.5,0.34 -1.66,0 -3.27,-0.27 -4.84,-0.82 -1.57,-0.55 -2.7,-1.78 -3.4,-3.7 l -3.26,-9.89 h -20.89 l -2.77,9.32 c -0.7,2.24 -1.89,3.65 -3.55,4.23 -1.66,0.57 -3.42,0.85 -5.27,0.85 m 14.94,-26.41 h 14.33 l -7.15,-23.53 z"
   class="st7" />
		<path
   style="fill:#ae2d40"
   id="path113"
   d="m 613.76,82.29 c -1.1,0 -2.15,-0.05 -3.15,-0.15 -1,-0.1 -1.86,-0.21 -2.57,-0.34 V 62.93 h -17.52 c -0.13,-0.65 -0.26,-1.41 -0.39,-2.28 -0.13,-0.87 -0.19,-1.89 -0.19,-3.05 0,-2.45 0.52,-4.16 1.55,-5.13 1.03,-0.97 2.29,-1.45 3.77,-1.45 h 12.78 V 37.57 c 0,-1.48 0.45,-2.73 1.36,-3.73 0.9,-1 2.58,-1.5 5.03,-1.5 1.1,0 2.14,0.05 3.15,0.15 1,0.1 1.85,0.21 2.56,0.34 v 18.2 h 17.71 c 0.13,0.65 0.26,1.4 0.39,2.28 0.13,0.87 0.19,1.89 0.19,3.05 0,2.45 -0.52,4.16 -1.55,5.13 -1.03,0.97 -2.29,1.45 -3.78,1.45 h -12.97 v 14.13 c 0,1.49 -0.45,2.73 -1.35,3.73 -0.89,0.99 -2.56,1.49 -5.02,1.49"
   class="st6" />
		<path
   style="fill:#ae2d40"
   id="path115"
   d="m 649.13,88.97 c -0.27,-0.8 -0.49,-1.75 -0.65,-2.85 -0.17,-1.1 -0.25,-2.22 -0.25,-3.35 0,-0.8 0.08,-1.7 0.25,-2.7 0.17,-1 0.45,-2.04 0.85,-3.11 0.4,-1.07 0.97,-2.14 1.71,-3.21 0.74,-1.07 1.67,-2.07 2.82,-3 l 12.47,-10.83 c 2.21,-1.81 4.07,-3.38 5.58,-4.72 1.51,-1.34 2.75,-2.6 3.72,-3.77 0.97,-1.17 1.66,-2.31 2.06,-3.42 0.4,-1.11 0.6,-2.3 0.6,-3.57 0,-1.74 -0.6,-3.35 -1.81,-4.82 -1.21,-1.47 -3.22,-2.21 -6.03,-2.21 -1.74,0 -3.3,0.22 -4.67,0.65 -1.38,0.44 -2.63,0.9 -3.77,1.41 -1.14,0.5 -2.21,0.96 -3.22,1.36 -1,0.4 -2.05,0.6 -3.12,0.6 -1.01,0 -1.98,-0.27 -2.92,-0.8 -0.94,-0.54 -1.74,-1.31 -2.41,-2.31 -0.67,-1.01 -1.17,-2.23 -1.51,-3.67 -0.34,-1.44 -0.44,-3.07 -0.3,-4.88 2.75,-2.01 5.96,-3.72 9.65,-5.13 3.68,-1.41 8.04,-2.11 13.07,-2.11 3.62,0 6.89,0.5 9.8,1.51 2.92,1.01 5.38,2.43 7.39,4.27 2.01,1.84 3.57,4.07 4.67,6.68 1.11,2.61 1.66,5.5 1.66,8.65 0,4.76 -1.21,8.92 -3.62,12.47 -2.41,3.55 -5.8,6.74 -10.15,9.55 l -11.56,8.65 h 25.54 c 0.13,0.74 0.3,1.71 0.5,2.92 0.2,1.21 0.3,2.48 0.3,3.82 0,3.02 -0.64,5.09 -1.91,6.23 -1.27,1.14 -2.78,1.71 -4.52,1.71 h -40.22 z"
   class="st6" />
		<path
   style="fill:#ae2d40"
   id="path117"
   d="m 736.09,89.47 c -1.21,0 -2.45,-0.08 -3.72,-0.25 -1.27,-0.17 -2.25,-0.32 -2.92,-0.45 V 75.6 h -29.3 c -0.13,-0.74 -0.29,-1.69 -0.45,-2.86 -0.17,-1.17 -0.25,-2.43 -0.25,-3.77 0,-1.67 0.28,-3.32 0.86,-4.93 0.57,-1.61 1.49,-3.28 2.76,-5.03 l 24.28,-35.39 h 17.49 v 38.2 h 9.45 c 0.13,0.74 0.28,1.69 0.45,2.87 0.17,1.17 0.25,2.4 0.25,3.67 0,2.82 -0.57,4.74 -1.71,5.78 -1.14,1.04 -2.58,1.56 -4.32,1.56 h -4.12 v 8.75 c 0,1.74 -0.6,3.02 -1.81,3.82 -1.21,0.8 -3.52,1.2 -6.94,1.2 m -19.8,-27.65 h 13.17 v -19.1 z"
   class="st6" />
		<g
   style="opacity:0.8"
   id="g127"
   class="st8">
			<g
   id="g125">
				<defs
   id="defs120">
					<path
   d="M 778.43,19.98 Z"
   id="SVGID_9_" />
				</defs>
				<clipPath
   id="SVGID_10_">
					<use
   height="100%"
   width="100%"
   y="0"
   x="0"
   id="use122"
   style="overflow:visible"
   xlink:href="#SVGID_9_" />
				</clipPath>
			</g>
		</g>
		<g
   style="opacity:0.4"
   id="g139"
   class="st9">
			<g
   id="g137">
				<defs
   id="defs130">
					<rect
   height="91.43"
   width="768.40997"
   y="8.1999998"
   x="9.0600004"
   id="SVGID_11_" />
				</defs>
				<clipPath
   id="SVGID_12_">
					<use
   height="100%"
   width="100%"
   y="0"
   x="0"
   id="use132"
   style="overflow:visible"
   xlink:href="#SVGID_11_" />
				</clipPath>
				<path
   style="fill:#ffffff"
   id="path135"
   clip-path="url(#SVGID_12_)"
   d="m 768.41,84.87 c 6.94,6.87 7.88,13.35 8.12,14.77 0.68,0 0.93,-3.04 0.93,-7.56 l -0.03,-72.62 c 0,-8.41 -2.73,-11.25 -9.85,-11.25 -2.41,0 -8.11,1.29 -11.32,1.29 H 26.97 c -3.21,0 -5.62,-1.29 -8.04,-1.29 -7.12,0 -9.85,2.84 -9.85,11.25 L 9.06,92.07 c 0,4.53 0.25,7.56 0.93,7.56 0.25,-1.42 0.46,-8.4 8.12,-14.77 61.22,-47.24 684.29,-61.74 750.3,0.01"
   class="st10" />
			</g>
		</g>
	</g>
</g>
</svg>