<svg enable-background="new 0 0 2459.8 500" version="1.1" viewBox="0 0 2951.8 970.94" xml:space="preserve" xmlns="http://www.w3.org/2000/svg"><defs><linearGradient id="b" x1="-625.21" x2="-403.69" y1="653.82" y2="653.82" gradientTransform="matrix(7.5001,0,0,-7.5001,9258.2,3656.1)" gradientUnits="userSpaceOnUse"><stop stop-color="#FF0031" offset="0"/><stop stop-color="#9B001F" offset="1"/></linearGradient><linearGradient id="c" x1="-735.16" x2="-730.71" y1="1190.1" y2="1190.1" gradientTransform="matrix(-1.3157,-37.678,-37.678,1.3157,48008,-30500)" gradientUnits="userSpaceOnUse"><stop stop-color="#fff" offset="0"/><stop stop-color="#fff" stop-opacity=".4" offset=".5"/><stop stop-color="#fff" stop-opacity=".25" offset="1"/></linearGradient><linearGradient id="a" x1="-721.24" x2="-716.8" y1="1180.7" y2="1180.7" gradientTransform="matrix(-1.9565,-56.026,-56.026,1.9565,70141,-43988)" gradientUnits="userSpaceOnUse"><stop stop-color="#fff" offset="0"/><stop stop-color="#fff" stop-opacity=".4" offset=".5"/><stop stop-color="#fff" stop-opacity=".25" offset="1"/></linearGradient></defs><link rel="stylesheet" type="text/css"/><link rel="stylesheet" type="text/css"/><style type="text/css"/>

<g transform="translate(-3770.7,304.12)">
	<g transform="matrix(1.2,0,0,1.2,-754.14,1493)"><path d="m3993.9-1197.8c0 43-28 74.2-85.2 80.4-41.2 4.4-101-0.8-129.4-4-1-4.6-1.8-10.4-1.8-15 0-37.4 20.2-46 39.2-46 19.8 0 51 3.4 74 3.4 25.6 0 33.2-8.6 33.2-16.8 0-10.8-10.2-15.2-30-19l-54.2-10.4c-45-8.6-69-39.6-69-72.6 0-40 28.4-73.6 84.4-79.8 42.2-4.6 93.8 0.6 122 4 1 4.8 1.6 9.4 1.6 14.4 0 37.4-19.8 45.4-38.8 45.4-14.6 0-37.2-2.6-63.2-2.6-26.4 0-37.2 7.2-37.2 16 0 9.4 10.4 13.2 26.8 16.2l51.6 9.6c53.2 9.6 76 39.8 76 76.8m92.6 46c0 23-9 36.2-54 36.2-6 0-11.2-0.4-16.2-1.2v-304.8c0-23.2 7.8-47.4 53.2-47.4 5.8 0 11.6 0.6 17 1.8zm183.8 118c6 3 18 6.8 33.2 7 26.2 0.6 40.4-9.4 51-32.8l140-311.6c-5.8-3-18.6-6.6-29-6.8-18-0.4-42.2 3.2-57.6 40l-45.6 106.6-89-144.6c-5.8-1.8-19.8-4.2-30-4.2-31.6 0-49 11.6-67.2 31.2l-86.4 94.4 69.6 109.4c12.8 20 29.8 30.2 57.2 30.2 18 0 33-4.2 40-7.4l-83.8-126 59.4-63 97.4 152.6z" fill="#ff0031"/><path d="m6197.3-1497.6h-1594.8c-18.4 0-33.4 15-33.4 33.4v433.2c0 18.4 15 33.4 33.4 33.4h1594.6c18.4 0 33.4-15 33.4-33.4v-433.4c-0.2-18.4-14.8-33.2-33.2-33.2" fill="url(#b)"/><path d="m4016.5-1421.6v209c0-8.4 6.4-17.2 17.2-17.6 7.6-0.2 28.8-1 35.2-1.2 7-0.2 17.6-5 17.8-17.8v-218c-5.4-1.2-11.2-1.8-17-1.8-45.4 0.2-53.2 24.2-53.2 47.4m160 72.8-86.4 94.4 7 10.8c3 4 8.8 10.8 20.4 10.4 4.2-0.2 45.8-1.6 49.2-1.8 10.8-0.4 17.6 4.2 21.8 9.8l-15.4-23.2 59.4-63 39.8 62.6c7.2 9.4 18 9.6 20.4 9.6 2 0 54.4-1.8 56.6-2 3.6-0.2 7.8 1.8 11 6.4l-86.6-140.8c-5.8-1.8-19.8-4.2-30-4.2-31.6-0.2-49 11.2-67.2 31m-321.4-29c-56 6.2-84.4 39.6-84.4 79.8 0 20.6 9.4 40.4 27.4 54.6 13.6 9 27.6 12.4 41.4 14.8 11.4 2 38 3.8 57.8 3 6.2-0.2 51.8-1.8 61.6-2.2 23.2-0.8 35.6 19 34.4 38.8v-1c0.2-2.6 0.4-5.2 0.4-7.8 0-37-22.8-67.2-75.8-77l-51.6-9.6c-16.6-2.8-26.8-6.8-26.8-16.2 0-8.8 11-16.2 37.2-16.2 26 0 48.6 2.6 63.2 2.6 19 0 38.8-8 38.8-45.4 0-5-0.6-9.6-1.6-14.4-20.2-2.4-52.6-5.8-84.8-5.8-12.6 0.2-25.2 0.8-37.2 2m552.6 39.8-44.2 104.2c0-0.2 2.8-8.2 11.4-8.6 0 0 43.6-1.6 46.8-1.6 14.2-0.6 19.8-10.2 21.4-13.4l51.2-114.2c-5.8-3-18.6-6.6-29-6.8h-2.2c-17.8 0.2-40.6 5-55.4 40.4" enable-background="new    " fill="url(#c)" opacity=".3"/><path d="m4602.5-1497.6c-18.4 0-33.4 15-33.4 33.4v240.6-0.2c0-3.6 1.4-23.4 24-25.6 0 0 1.2-0.2 3.2-0.2 98.6-3.4 1609.4-56.4 1609.4-56.4 12.6-0.4 24.8-9.8 24.8-25.4v-132.6c0-18.4-15-33.4-33.4-33.4z" enable-background="new    " fill="url(#a)" opacity=".3"/><g transform="translate(3755.6,-1662.5)" fill="#fff"><path d="m907.7 417.6c0-70.2 51.5-122.2 119.7-122.2 31.9 0 61.4 8.8 82 18.6 3.4 22.1-3.5 30.9-13.3 30.9-17.2 0-31.9-14.2-67.2-14.2-44.2 0-80.5 32.9-80.5 86.9 0 53.5 36.3 86.9 80.5 86.9 35.3 0 50.1-14.7 65.8-14.7 10.3 0 17.6 9.3 14.7 31.4-20.6 10.3-50.1 19.1-82 19.1-68.2 0-119.7-53-119.7-122.7"/><path d="m2116.2 380.8v141.9c0 9.8-5.4 15.2-21.6 15.2-6.9 0-14.7-1-18.6-2v-150.2c0-34.4-16.2-54.5-47.1-54.5-26 0-47.6 18.1-56.4 36.8v154.6c0 9.8-5.4 15.2-21.6 15.2-6.9 0-14.7-1-18.6-2v-150.1c0-34.4-16.2-54.5-47.1-54.5-26 0-47.6 18.1-56.4 36.8v154.6c0 9.8-5.4 15.2-21.6 15.2-6.8 0-14.7-1-18.6-2v-236c3.9-1 11.8-2 19.1-2 15.2 0 20.6 5.9 20.6 16.2v16.2c15.2-20.1 38.8-34.9 67.3-34.9 31.4 0 55.9 15.7 68.2 42.7 16.2-24.5 40.7-42.7 75.6-42.7 50.3 0.1 76.8 37.9 76.8 85.5"/><path d="m1736.8 432.3h-182.6c5.4 45.7 36.8 71.2 83.4 71.2 20.1 0 35.8-4 50.6-8.8 10.3-3.5 14.7-4.9 18.6-4.9 11.3 0 18.6 9.3 16.7 30.9-21.1 9.3-53.5 19.6-87.4 19.6-73.6 0-123.2-49.5-123.2-123.2 0-70.7 52.6-121.7 116.8-121.7 72.7 0 108.5 56.4 108.5 113.4 0.1 6.9-0.4 15.2-1.4 23.5m-182.6-31.4h144.8c-1.5-40.2-27.5-71.7-69.2-71.7-36.3 0.1-69.2 25.1-75.6 71.7"/><path d="m1465.2 395.5v127.1c0 9.3-5.4 15.2-21.6 15.2-6.8 0-14.7-1-18.6-2v-135c0-47.1-23.1-69.7-57.9-69.7-27 0-56.4 18.7-68.2 40.7v150.7c0 9.3-5.4 15.2-21.6 15.2-6.9 0-14.7-1-18.6-2v-235.9c3.9-1 11.8-2 18.6-2 16.2 0 21.6 5.9 21.6 15.2v20.1c17.2-21.1 43.2-37.8 78-37.8 48.1 0.1 88.3 30.5 88.3 100.2"/><path d="m2367.1 384.7v151.2c-3.9 1-11.3 2-18.1 2-14.7 0-21.6-5.4-21.6-15.2v-20.7c-21.1 24.1-48.6 38.3-83.5 38.3-52.5 0-81.5-34.3-81.5-71.7 0-56.9 60.9-82 164.4-75.1v-8.3c0-38.8-11.8-55-56.4-55-18.6 0-43.7 5.4-56.9 8.8-7.9 2-13.8 3.9-18.6 3.9-11.3 0-18.7-9.8-14.8-30.4 24.1-8.8 58.9-17.2 92.3-17.2 69.2 0.1 94.7 31 94.7 89.4m-40.2 82.5v-44.7c-67.7-4.9-124.2 3.9-124.2 44.7 0 20.6 17.2 39.2 48.1 39.2 31.4 0 58.9-15.6 76.1-39.2"/><path d="m1149.5 246.3c0-14.7 11.8-25.5 25.5-25.5 14.8 0 26 10.8 26 25.5 0 13.3-11.3 25.5-26 25.5-13.7 0-25.5-12.2-25.5-25.5m5.4 289.6v-222.8c0-9.3 5.4-15.2 21.6-15.2 6.9 0 14.2 1 18.1 2v222.8c0 9.8-4.9 15.2-21.1 15.2-6.8 0-14.6-1-18.6-2"/></g></g>
	
		
	
	
		
	
	
		
	
	
<g transform="translate(-93774)" fill="#fff" font-family="'Sky Text'" font-size="40px" letter-spacing=".12103px" stroke-width="8.2627" word-spacing="0px"><path d="m98540 663.19q-12.228 0-15.864-4.6271-3.305-4.9576-3.305-12.559v-180.46q0-7.6017 3.305-12.229 3.636-4.9576 15.864-4.9576h54.534q20.492 0 35.034 4.2966 14.873 3.9661 24.127 11.568 9.585 7.2712 13.882 17.517 4.296 10.246 4.296 22.475 0 16.856-9.584 29.415-9.585 12.559-26.441 18.178 22.144 5.2881 32.72 19.169 10.907 13.881 10.907 30.737 0 30.076-20.491 45.941-20.492 15.534-63.128 15.534zm16.856-32.72h35.034q25.78 0 37.678-6.9407 11.899-7.2712 11.899-24.127 0-5.9492-1.983-11.237-1.984-5.6186-7.272-9.5848-4.957-4.2966-14.212-6.9407-9.254-2.6441-24.127-2.6441h-37.017zm0-92.542h36.356q11.899 0 19.831-2.3136 8.263-2.3136 12.89-6.2797 4.957-3.9661 6.94-9.2542 2.314-5.6186 2.314-11.898 0-27.102-41.314-27.102h-37.017z" style="white-space:pre"/><path d="m98783 666.49q-18.508 0-33.712-6.2797-15.203-6.6102-26.11-17.517-10.907-11.237-16.856-26.441t-5.949-32.72q0-16.856 5.949-31.729 6.28-15.203 17.186-26.441 10.907-11.237 26.111-17.847 15.203-6.6102 33.381-6.6102t33.381 6.6102q15.204 6.6102 25.78 17.847 10.907 11.237 16.856 26.441 5.949 14.873 5.949 31.729t-5.949 32.059q-5.619 15.203-16.525 26.441-10.577 11.237-25.78 17.847-15.204 6.6102-33.712 6.6102zm0-29.746q8.263 0 16.195-3.3051 8.263-3.3051 14.542-9.9152 6.61-6.6102 10.577-16.525 3.966-9.9152 3.966-23.466 0-12.229-3.636-22.144-3.636-9.9152-9.915-16.525-5.949-6.9407-14.212-10.576-8.263-3.6356-17.517-3.6356-8.924 0-17.186 3.6356-8.263 3.6356-14.873 10.576-6.28 6.6102-10.246 16.525-3.636 9.9153-3.636 22.144 0 13.22 3.966 23.136 3.967 9.9153 10.246 16.856 6.61 6.6102 14.873 9.9152 8.263 3.3051 16.856 3.3051z" style="white-space:pre"/><path d="m98949 666.16q-11.898 0-22.475-3.9662-10.576-3.9661-18.508-12.229-7.932-8.2627-12.559-20.822-4.627-12.89-4.627-30.407v-81.305q0-6.6102 3.966-10.907 3.966-4.2966 14.211-4.2966 5.289 0 10.246 0.66102 4.958 0.33051 7.602 0.99153v91.881q0 20.822 9.585 30.407 9.915 9.5848 25.118 9.5848 10.907 0 21.153-5.9492t17.186-17.517v-94.856q0-6.6102 3.966-10.907 3.967-4.2966 14.212-4.2966 5.288 0 10.246 0.66102 5.288 0.33051 7.932 0.99153v96.839q0 9.9152 0 17.847 0.331 7.6017 0.992 14.542t1.652 13.881q0.992 6.6102 2.644 14.542-7.932 3.6356-18.508 3.6356-8.593 0-12.559-2.9746-3.967-2.9746-5.619-6.9407-1.653-4.2966-1.983-9.2542 0-4.9576-0.661-8.9237h-0.331q-8.593 12.89-21.483 21.153-12.559 7.9323-31.398 7.9323z" style="white-space:pre"/><path d="m99096 665.17q-4.958 0-10.246-0.66101-4.958-0.33051-7.602-0.99153v-158.64q3.636-0.99152 7.271-1.6525 3.966-0.99153 8.593-0.99153 10.246 0 14.543 5.6186 4.627 5.2881 4.627 14.542v11.568h0.661q6.61-16.195 17.847-24.127 11.238-8.2627 26.111-8.2627 4.957 0 8.923 0.66101 4.297 0.33051 7.933 0.99153 1.983 6.9407 1.983 12.559 0 18.508-18.509 18.508h-5.949q-17.186 0-27.763 8.9237-10.245 8.9237-10.245 27.763v78.992q0 6.6102-3.967 10.907-3.635 4.2966-14.211 4.2966z" style="white-space:pre"/><path d="m99215 665.17q-4.957 0-10.245-0.66101-4.958-0.33051-7.602-0.99153v-158.64q3.635-0.99152 7.271-1.6525 3.966-0.99153 8.593-0.99153 10.246 0 14.543 5.6186 4.627 5.2881 4.627 14.542l0.33 4.6271q8.263-11.568 21.483-18.839 13.551-7.6017 30.407-7.6017 26.771 0 42.305 17.517t15.534 50.237v81.636q0 6.6102-3.966 10.907-3.636 4.2966-14.212 4.2966-4.957 0-10.246-0.66101-4.957-0.33051-7.601-0.99153v-91.22q0-21.153-9.255-31.068-9.254-9.9152-26.11-9.9152-10.576 0-21.483 5.9492-10.576 5.9492-16.195 15.864v96.839q0 6.6102-3.966 10.907-3.635 4.2966-14.212 4.2966z" style="white-space:pre"/><path d="m99454 666.82q-20.161 0-36.026-6.2798-15.864-6.2797-26.771-17.517-10.907-11.237-16.856-26.441-5.618-15.534-5.618-33.381t5.949-32.72q5.949-15.203 16.195-26.11 10.576-11.237 24.788-17.517t30.737-6.2797q18.509 0 32.72 6.9407 14.212 6.6102 23.466 17.847 9.585 11.237 14.212 25.449 4.958 14.212 4.958 29.085 0 8.2627-1.653 16.525h-114.69q2.314 19.169 14.873 29.415 12.89 9.9153 33.712 9.9153 8.923 0 15.534-1.322 6.61-1.322 11.898-2.9746 5.288-1.983 9.585-3.3051 4.296-1.322 8.593-1.322 5.949 0 9.585 5.2881 3.966 5.2881 3.966 14.212 0 1.6525-0.331 3.6356 0 1.983-0.33 3.9661-9.916 4.6271-24.788 8.9237-14.873 3.9662-33.712 3.9662zm34.042-96.178q-1.652-17.847-12.229-29.746-10.245-12.229-29.415-12.229-18.178 0-29.085 11.568-10.576 11.568-12.229 30.407z" style="white-space:pre"/></g></g>
</svg>
