<svg enable-background="new 0 0 3690.3 500" version="1.1" viewBox="0 0 2459.8 908.88" xml:space="preserve" xmlns="http://www.w3.org/2000/svg">
<g transform="translate(-.039 -.04)">
	
		
		
		
		
		
		
		
		
	
	<g transform="translate(-15.061,-164.86)">
		<path d="m238.3 464.7c0 43-28 74.2-85.2 80.4-41.2 4.4-101-0.8-129.4-4-1-4.6-1.8-10.4-1.8-15 0-37.4 20.2-46 39.2-46 19.8 0 51 3.4 74 3.4 25.6 0 33.2-8.6 33.2-16.8 0-10.8-10.2-15.2-30-19l-54.2-10.4c-45-8.6-69-39.6-69-72.6 0-40 28.4-73.6 84.4-79.8 42.2-4.6 93.8 0.6 122 4 1 4.8 1.6 9.4 1.6 14.4 0 37.4-19.8 45.4-38.8 45.4-14.6 0-37.2-2.6-63.2-2.6-26.4 0-37.2 7.2-37.2 16 0 9.4 10.4 13.2 26.8 16.2l51.6 9.6c53.2 9.6 76 39.8 76 76.8m92.6 46c0 23-9 36.2-54 36.2-6 0-11.2-0.4-16.2-1.2v-304.8c0-23.2 7.8-47.4 53.2-47.4 5.8 0 11.6 0.6 17 1.8zm183.8 118c6 3 18 6.8 33.2 7 26.2 0.6 40.4-9.4 51-32.8l140-311.6c-5.8-3-18.6-6.6-29-6.8-18-0.4-42.2 3.2-57.6 40l-45.6 106.6-89-144.6c-5.8-1.8-19.8-4.2-30-4.2-31.6 0-49 11.6-67.2 31.2l-86.4 94.4 69.6 109.4c12.8 20 29.8 30.2 57.2 30.2 18 0 33-4.2 40-7.4l-83.8-126 59.4-63 97.4 152.6z" fill="#ff0031"/>
		
			<linearGradient id="b" x1="48.487" x2="270" y1="-677.75" y2="-677.75" gradientTransform="matrix(7.5001,0,0,7.5001,449.8,5498.1)" gradientUnits="userSpaceOnUse">
			<stop stop-color="#FF0031" offset="0"/>
			<stop stop-color="#9B001F" offset="1"/>
		</linearGradient>
		<path d="m2441.7 164.9h-1594.8c-18.4 0-33.4 15-33.4 33.4v433.2c0 18.4 15 33.4 33.4 33.4h1594.6c18.4 0 33.4-15 33.4-33.4v-433.4c-0.2-18.4-14.8-33.2-33.2-33.2" fill="url(#b)"/>
		
			<linearGradient id="c" x1="27.859" x2="32.301" y1="-1298.5" y2="-1298.5" gradientTransform="matrix(-1.3157,-37.678,37.678,-1.3157,49342,-231.2)" gradientUnits="userSpaceOnUse">
			<stop stop-color="#fff" offset="0"/>
			<stop stop-color="#fff" stop-opacity=".4" offset=".5"/>
			<stop stop-color="#fff" stop-opacity=".25" offset="1"/>
		</linearGradient>
		<path d="m260.9 240.9v209c0-8.4 6.4-17.2 17.2-17.6 7.6-0.2 28.8-1 35.2-1.2 7-0.2 17.6-5 17.8-17.8v-218c-5.4-1.2-11.2-1.8-17-1.8-45.4 0.2-53.2 24.2-53.2 47.4m160 72.8-86.4 94.4 7 10.8c3 4 8.8 10.8 20.4 10.4 4.2-0.2 45.8-1.6 49.2-1.8 10.8-0.4 17.6 4.2 21.8 9.8l-15.4-23.2 59.4-63 39.8 62.6c7.2 9.4 18 9.6 20.4 9.6 2 0 54.4-1.8 56.6-2 3.6-0.2 7.8 1.8 11 6.4l-86.6-140.8c-5.8-1.8-19.8-4.2-30-4.2-31.6-0.2-49 11.2-67.2 31m-321.4-29c-56 6.2-84.4 39.6-84.4 79.8 0 20.6 9.4 40.4 27.4 54.6 13.6 9 27.6 12.4 41.4 14.8 11.4 2 38 3.8 57.8 3 6.2-0.2 51.8-1.8 61.6-2.2 23.2-0.8 35.6 19 34.4 38.8v-1c0.2-2.6 0.4-5.2 0.4-7.8 0-37-22.8-67.2-75.8-77l-51.6-9.6c-16.6-2.8-26.8-6.8-26.8-16.2 0-8.8 11-16.2 37.2-16.2 26 0 48.6 2.6 63.2 2.6 19 0 38.8-8 38.8-45.4 0-5-0.6-9.6-1.6-14.4-20.2-2.4-52.6-5.8-84.8-5.8-12.6 0.2-25.2 0.8-37.2 2m552.6 39.8-44.2 104.2c0-0.2 2.8-8.2 11.4-8.6 0 0 43.6-1.6 46.8-1.6 14.2-0.6 19.8-10.2 21.4-13.4l51.2-114.2c-5.8-3-18.6-6.6-29-6.8h-2.2c-17.8 0.2-40.6 5-55.4 40.4" enable-background="new    " fill="url(#c)" opacity=".3"/>
		
			<linearGradient id="a" x1="45.702" x2="50.145" y1="-1282.4" y2="-1282.4" gradientTransform="matrix(-1.9565,-56.026,56.026,-1.9565,73584,443.87)" gradientUnits="userSpaceOnUse">
			<stop stop-color="#fff" offset="0"/>
			<stop stop-color="#fff" stop-opacity=".4" offset=".5"/>
			<stop stop-color="#fff" stop-opacity=".25" offset="1"/>
		</linearGradient>
		<path d="m846.9 164.9c-18.4 0-33.4 15-33.4 33.4v240.6-0.2c0-3.6 1.4-23.4 24-25.6 0 0 1.2-0.2 3.2-0.2 98.6-3.4 1609.4-56.4 1609.4-56.4 12.6-0.4 24.8-9.8 24.8-25.4v-132.6c0-18.4-15-33.4-33.4-33.4z" enable-background="new    " fill="url(#a)" opacity=".3" Googl="true"/>
		<g fill="#fff">
			<path d="m907.7 417.6c0-70.2 51.5-122.2 119.7-122.2 31.9 0 61.4 8.8 82 18.6 3.4 22.1-3.5 30.9-13.3 30.9-17.2 0-31.9-14.2-67.2-14.2-44.2 0-80.5 32.9-80.5 86.9 0 53.5 36.3 86.9 80.5 86.9 35.3 0 50.1-14.7 65.8-14.7 10.3 0 17.6 9.3 14.7 31.4-20.6 10.3-50.1 19.1-82 19.1-68.2 0-119.7-53-119.7-122.7"/>
			<path d="m2116.2 380.8v141.9c0 9.8-5.4 15.2-21.6 15.2-6.9 0-14.7-1-18.6-2v-150.2c0-34.4-16.2-54.5-47.1-54.5-26 0-47.6 18.1-56.4 36.8v154.6c0 9.8-5.4 15.2-21.6 15.2-6.9 0-14.7-1-18.6-2v-150.1c0-34.4-16.2-54.5-47.1-54.5-26 0-47.6 18.1-56.4 36.8v154.6c0 9.8-5.4 15.2-21.6 15.2-6.8 0-14.7-1-18.6-2v-236c3.9-1 11.8-2 19.1-2 15.2 0 20.6 5.9 20.6 16.2v16.2c15.2-20.1 38.8-34.9 67.3-34.9 31.4 0 55.9 15.7 68.2 42.7 16.2-24.5 40.7-42.7 75.6-42.7 50.3 0.1 76.8 37.9 76.8 85.5"/>
			<path d="m1736.8 432.3h-182.6c5.4 45.7 36.8 71.2 83.4 71.2 20.1 0 35.8-4 50.6-8.8 10.3-3.5 14.7-4.9 18.6-4.9 11.3 0 18.6 9.3 16.7 30.9-21.1 9.3-53.5 19.6-87.4 19.6-73.6 0-123.2-49.5-123.2-123.2 0-70.7 52.6-121.7 116.8-121.7 72.7 0 108.5 56.4 108.5 113.4 0.1 6.9-0.4 15.2-1.4 23.5m-182.6-31.4h144.8c-1.5-40.2-27.5-71.7-69.2-71.7-36.3 0.1-69.2 25.1-75.6 71.7"/>
			<path d="m1465.2 395.5v127.1c0 9.3-5.4 15.2-21.6 15.2-6.8 0-14.7-1-18.6-2v-135c0-47.1-23.1-69.7-57.9-69.7-27 0-56.4 18.7-68.2 40.7v150.7c0 9.3-5.4 15.2-21.6 15.2-6.9 0-14.7-1-18.6-2v-235.9c3.9-1 11.8-2 18.6-2 16.2 0 21.6 5.9 21.6 15.2v20.1c17.2-21.1 43.2-37.8 78-37.8 48.1 0.1 88.3 30.5 88.3 100.2"/>
			<path d="m2367.1 384.7v151.2c-3.9 1-11.3 2-18.1 2-14.7 0-21.6-5.4-21.6-15.2v-20.7c-21.1 24.1-48.6 38.3-83.5 38.3-52.5 0-81.5-34.3-81.5-71.7 0-56.9 60.9-82 164.4-75.1v-8.3c0-38.8-11.8-55-56.4-55-18.6 0-43.7 5.4-56.9 8.8-7.9 2-13.8 3.9-18.6 3.9-11.3 0-18.7-9.8-14.8-30.4 24.1-8.8 58.9-17.2 92.3-17.2 69.2 0.1 94.7 31 94.7 89.4m-40.2 82.5v-44.7c-67.7-4.9-124.2 3.9-124.2 44.7 0 20.6 17.2 39.2 48.1 39.2 31.4 0 58.9-15.6 76.1-39.2"/>
			<path d="m1149.5 246.3c0-14.7 11.8-25.5 25.5-25.5 14.8 0 26 10.8 26 25.5 0 13.3-11.3 25.5-26 25.5-13.7 0-25.5-12.2-25.5-25.5m5.4 289.6v-222.8c0-9.3 5.4-15.2 21.6-15.2 6.9 0 14.2 1 18.1 2v222.8c0 9.8-4.9 15.2-21.1 15.2-6.8 0-14.6-1-18.6-2"/>
		</g>
	</g>
</g>
<g transform="matrix(1.7097 0 0 1.7097 717.38 537.77)" fill="#fff"><path d="m260.31 24.43c9.15-3.13 20.13 2.75 22.01 12.35 2.59 9.44-4.75 19.89-14.45 20.76-9.27 1.53-18.79-6.12-19.12-15.53-0.81-7.63 4.34-15.22 11.56-17.58z"/><path d="m78.95 36.97c7.45-1.93 15.27-0.73 22.78 0.28 0.06 25 0 49.99 0.03 74.99 27.75 0.01 55.49 0.01 83.24 0 0.02-21.43-0.04-42.87 0.02-64.3 0-5.41 4-10.6 9.46-11.38 7.23-1.14 14.72-0.55 21.87 0.93-0.24 55.51-0.01 111.02-0.12 166.53 0 4.86-2.67 10.12-7.58 11.57-7.66 2.29-15.8 0.82-23.56-0.07-0.21-25.5-0.02-51.01-0.09-76.52-27.75 0-55.5-0.01-83.24 0.01-0.01 21.66-0.02 43.32 0 64.99 0.09 3.38-1.14 6.8-3.54 9.2-2.89 2.9-7.25 3.38-11.13 3.55-5.48 0.07-11-0.29-16.36-1.43 0.05-55.09 0-110.19 0.02-165.28-0.28-5.45 2.47-11.71 8.2-13.07z"/><path d="m327.78 47.81c6.84-2.22 14.38-1.62 21.21 0.4 0.03 11.34-0.01 22.69 0.02 34.03 15.03 0.01 30.07 0.02 45.11 0 1.39 5.75 2.11 11.94 0.46 17.72-1.26 3.94-5.54 6.11-9.49 6.02-12.03 0.06-24.06-0.01-36.09 0.02 0.01 21-0.03 42.01 0.02 63.01 0.01 6.38 1.34 13.29 6.09 17.91 4.97 4.68 12.43 5.24 18.87 4.15 4.94-0.75 9.31-3.32 14.08-4.64 4.43-1.27 9.79 0.17 12.28 4.23 2.91 4.86 2.11 10.76 2.08 16.16-14.45 8.7-31.97 12.15-48.6 9.23-10.94-1.96-21.11-8.4-27.03-17.87-5.75-8.92-7.67-19.75-7.3-30.22 0.01-20.65 0.01-41.3 0-61.96-6.86-0.07-13.72 0.13-20.57-0.07-1.69-4.58-1.58-10.02-1.11-14.92 0.22-4.35 3.79-8.07 8.11-8.53 4.5-0.51 9.05-0.11 13.57-0.24 0.09-7.06-0.15-14.13 0.11-21.19 0.17-5.39 2.73-11.34 8.18-13.24z"/><path d="m259.02 81.92c7.09-1.44 14.43-0.45 21.49 0.66-0.04 40.8 0.02 81.6-0.03 122.4 0 4.67-2.93 9.56-7.62 10.79-7.32 1.92-15.01 0.76-22.36-0.3-0.01-40.84 0.01-81.67-0.01-122.51-0.13-5.07 3.42-10.12 8.53-11.04z"/><path d="m434.28 89.27c8.09-4.91 17.41-7.53 26.79-8.35 20.68-1.86 41.49 1.78 61.11 8.23 0.65 6.05 0.58 12.8-3.09 17.96-2.01 2.89-5.7 3.9-9.06 3.69-8.3 0.09-15.85-3.94-24.01-4.81-8.33-1.05-16.83-1.37-25.15-0.09-4.85 0.79-10.22 2.98-12.11 7.9-1.23 3.92-0.64 8.97 2.98 11.46 5.84 4.18 13.14 5.34 19.87 7.38 11.86 3.51 24.12 6.04 35.28 11.54 6.65 3.21 13.03 7.61 16.98 13.99 5.94 9.35 6.09 21.4 2.85 31.73-2.59 8.61-9.2 15.59-17.13 19.59-14.23 7.55-30.88 8.12-46.6 7.19-15.35-1.11-30.49-4.49-45.01-9.53-0.98-6.31-0.94-13.61 3.43-18.72 2.65-3.2 7.15-3.62 11-3.02 8.31 1.32 16.22 4.44 24.54 5.79 7.55 1.48 15.29 1.54 22.95 1.13 5.7-0.61 12.08-1.76 16.05-6.3 2.77-3.74 3.24-9.11 1.29-13.32-2.11-4.02-6.67-5.64-10.6-7.28-13.1-4.68-26.87-7.24-39.9-12.12-8.11-3.18-16.41-7.14-21.92-14.14-7.14-8.87-8.51-21.49-4.97-32.12 2.38-7.47 7.8-13.71 14.43-17.78z"/></g></svg>
