<svg width="2317.8pt" height="605.25pt" version="1.1" viewBox="0 0 2317.8 605.25" xmlns="http://www.w3.org/2000/svg">
 <defs>
  <linearGradient id="a" x1="-8600.5" x2="-8600.5" y1="-4687.6" y2="-4591.4" gradientTransform="matrix(-2.9812,0,0,-2.9812,-24493,-13655)" gradientUnits="userSpaceOnUse">
   <stop stop-color="#a80000" offset="0"/>
   <stop stop-color="#a1000c" offset=".38129"/>
   <stop stop-color="#b90019" offset="1"/>
  </linearGradient>
 </defs>
 <g transform="matrix(.74925 0 0 .74925 821.88 462.06)" fill="#fff">
  <path d="m48.76 9.77c7.32-1.57 14.9-0.58 22.22 0.51 0.05 24.99 0 49.98 0.03 74.96 27.74 0.01 55.49 0.01 83.23 0 0.02-21.44-0.01-42.87 0.02-64.31-0.02-4.49 2.73-9.02 6.99-10.64 7.86-2.45 16.29-1.08 24.27 0.04-0.05 54.89-0.01 109.78-0.02 164.66 0.04 3.89-0.64 8.11-3.53 10.96-2.76 3.03-7.1 3.61-10.97 3.8-5.6 0.13-11.2-0.4-16.73-1.25-0.05-25.5-0.01-51-0.03-76.49-27.74-0.02-55.49-0.01-83.24-0.01-0.01 21.71 0.01 43.42-0.01 65.13 0.09 5.03-2.98 10.37-8.07 11.66-7.5 1.92-15.35 0.71-22.89-0.32-0.06-55.52-0.03-111.05-0.02-166.58-0.15-5.37 3.24-11.02 8.75-12.12z"/>
  <path d="m251.02 58.1c11.24-5.09 23.92-6.04 36.05-4.54 15.73 2.05 30.5 10.86 39.57 23.89 11.2 15.82 14.97 36.39 11.31 55.31-31.72-0.01-63.45-0.01-95.17 0 1.05 8.41 4.41 16.83 10.85 22.57 7.9 7.21 18.93 9.86 29.41 9.7 7.92 0.2 15.8-1.29 23.25-3.92 5.36-1.72 10.86-4.11 16.62-3.24 3.57 0.59 6.15 3.62 7.59 6.75 2.2 4.99 1.95 10.63 1.15 15.9-11.68 4.86-23.87 8.95-36.55 10.03-17.53 1.61-36.11 0.04-51.52-9.16-14.82-8.45-25.18-23.51-29.16-39.96-4.1-17.04-3.13-35.65 4.46-51.6 6.44-13.97 17.99-25.6 32.14-31.73m2.89 26.82c-7.13 6.75-10.47 16.51-11.47 26.08 22.89-0.01 45.78 0.01 68.67-0.01-0.98-9.94-4.86-19.9-12.28-26.8-5.26-5.08-12.66-7.33-19.84-7.67-8.99-0.57-18.58 1.87-25.08 8.4z"/>
  <path d="m510.53 53.7c14.2-1.61 29.04 0.28 41.76 7.06 13.76 6.96 24.69 19.12 30.47 33.39 8.14 19.68 7.09 42.95-2.74 61.84-6.33 12.44-17.06 22.46-29.68 28.35-13.34 6.45-28.72 7.68-43.24 5.5-17.66-2.82-34.17-12.94-44.18-27.84-9.52-14.24-13.12-32.03-11.1-48.94 1.83-15.94 9.44-31.19 21.23-42.1 10.32-9.43 23.58-15.6 37.48-17.26m3.89 24.86c-12.78 2.04-23.79 11.4-28.55 23.34-4.48 10.56-4.89 22.6-2.28 33.7 2.68 10.37 8.96 20.18 18.41 25.56 8.27 4.61 18.4 6.09 27.53 3.36 9.67-2.64 17.83-9.7 22.45-18.52 5.43-10.21 6.48-22.27 4.75-33.56-1.57-9.68-5.99-19.17-13.44-25.7-7.77-6.83-18.68-9.91-28.87-8.18z"/>
  <path d="m633.38 63.37c10.71-7.23 23.72-10.91 36.63-10.4 17.43-0.31 34.93 7.45 45.98 21.01 13.22 16.16 17.9 38.44 13.96 58.78-31.72-0.01-63.45-0.01-95.17 0 1.06 8.16 4.15 16.38 10.3 22.07 7.93 7.57 19.23 10.37 29.95 10.2 7.91 0.2 15.79-1.28 23.25-3.91 5.34-1.73 10.82-4.1 16.57-3.27 3.81 0.69 6.56 3.97 7.92 7.42 1.83 4.86 1.65 10.18 0.88 15.24-10.44 4.36-21.27 8.07-32.52 9.59-15.63 1.79-32.06 1.6-46.82-4.45-12.53-4.94-23.49-13.98-30.3-25.65-8.68-14.54-11.36-32.12-9.33-48.79 2.3-18.99 12.63-37.2 28.7-47.84m13.07 21.04c-7.46 6.77-11.02 16.77-12 26.59 22.88-0.01 45.77 0.01 68.65-0.01-1.01-9.69-4.64-19.42-11.75-26.3-4.84-4.92-11.65-7.41-18.42-8.03-9.35-0.96-19.51 1.1-26.48 7.75z"/>
  <path d="m365.25 56.43c6.88-1.89 14.44-3.51 21.33-0.76 4.63 1.77 6.97 6.78 7.67 11.41 0.53 4.62 0.12 9.29 0.28 13.93 3.84-9.16 9.67-18.06 18.67-22.84 9.81-5.62 21.71-5.1 32.46-3.02 1.54 6.47 2.79 13.79-0.59 19.9-2.56 4.57-8.15 6.22-13.09 5.96-9.16-0.19-19.02 0.58-26.57 6.34-7.51 5.3-10.08 14.96-10.12 23.71-0.09 22.31 0 44.61-0.04 66.91 0.04 4.61-2.64 9.59-7.34 10.78-7.4 2-15.18 0.7-22.64-0.25-0.05-44.02-0.02-88.05-0.02-132.07z"/>
  <path d="m772.6 58.49c11.48-4.82 24.17-5.34 36.45-4.93 14.98 0.73 29.75 3.93 43.97 8.61 0.53 6.04 0.55 12.72-3.07 17.89-1.97 2.89-5.66 3.93-8.99 3.74-8.28 0.11-15.84-3.84-23.95-4.78-8.11-1.04-16.36-1.37-24.47-0.25-3.74 0.59-7.65 1.61-10.47 4.29-3.56 3.34-4.1 9.3-1.42 13.33 2.54 3.06 6.41 4.56 10.05 5.87 13.32 4.19 27.04 7.06 40.14 11.93 8.68 3.48 17.66 7.9 23.11 15.84 6.8 9.79 7.02 22.89 3.23 33.88-3.05 9.1-10.66 16.03-19.28 19.85-14.64 6.74-31.27 6.91-47.04 5.67-14.34-1.29-28.46-4.55-42.05-9.28-1.09-6.32-0.86-13.62 3.44-18.78 3.69-4.22 9.85-3.37 14.74-2.27 10.85 2.68 21.66 6.3 32.96 6.4 7.96 0.08 16.53 0.34 23.67-3.77 5.38-2.98 6.94-10.45 4.49-15.82-2.05-4.07-6.53-5.87-10.53-7.43-16.82-6.13-35.08-8.43-50.9-17.2-6.97-3.76-12.9-9.75-15.69-17.25-3.77-10.3-2.69-22.43 3.41-31.62 4.34-6.48 11.03-11.05 18.2-13.92z"/>
 </g>
 <g transform="translate(0 .005)">
  <path d="m624.21 9e-5h1248v375.09h-1248z" fill="url(#a)" stroke-width="2.9812"/>
  <path d="m624.21 375.09h-599.2c-13.753 0-25.006-11.253-25.006-25.006v-325.39c0-13.128 10.94-24.693 24.693-24.693h599.52z" fill="#fff" stroke-width="3.1257"/>
  <g transform="matrix(.75012 0 0 .75012 0 -6e-5)" fill="#fff">
   <path d="m1196.8 46.657c8.08-2.39 17.44-0.61 23.7 5.16 8.96 7.84 10.76 22.47 3.9 32.22-5.08 7.92-15.03 12.37-24.3 10.66-11.61-1.81-21.3-12.73-20.86-24.62-0.19-10.58 7.4-20.56 17.56-23.42z"/>
   <path d="m1017.4 133.46c21.37-5.8 43.96-4.99 65.59-1.1 16.56 3.21 33.02 8.13 47.94 16.07 0.82 7.45 0.64 15.53-3.01 22.28-2.45 4.57-7.4 7.7-12.63 7.47-7.67-0.23-14.56-3.99-21.59-6.62-14.68-6.05-30.63-9.09-46.51-8.39-14.87 0.74-29.66 5.3-41.92 13.84-11.33 7.69-20.34 18.59-26.21 30.93-6.65 14.05-9.41 29.77-8.95 45.25 0.46 14.4 3.53 28.88 10.19 41.73 7.95 15.91 21.5 28.99 37.82 36.15 20.99 9.32 45.36 8.45 66.93 1.55 8.87-2.71 17.08-7.36 26.16-9.37 5.62-1.4 12.21 0.36 15.57 5.29 4.85 6.95 5.01 16.04 4.14 24.15-14.07 7.02-29.27 11.67-44.63 14.88-25.46 5.02-52.52 5.76-77.23-3.13-24.95-8.67-46.58-26.38-60.09-49.06-11.77-19.51-17.68-42.39-17.5-65.12-0.26-25.49 7.13-51.2 21.84-72.12 15.21-21.84 38.36-37.9 64.09-44.68z"/>
   <path d="m1378.5 131.64c20.37-4.35 42.33-2.9 61.39 5.79 14.88 6.78 27.32 18.57 35.15 32.9 9.75 17.49 12.97 37.77 13.25 57.57 0 42.06 0.05 84.12-0.05 126.18 0.17 5.36-2.82 10.92-8.15 12.55-9.57 3.04-19.87 1.53-29.55-0.18-0.06-45.61 0.03-91.23-0.05-136.84-0.58-17.92-4.72-37.02-17.41-50.43-11.02-11.97-27.92-16.85-43.82-16.02-16.43 0.97-32.11 7.86-45.12 17.73-8.09 6.21-15.3 13.73-20.45 22.57-1.14 1.63-0.91 3.67-0.96 5.55 0.08 8.56 0.01 17.11 0.05 25.67 0.02 40.13 0.01 80.26-0.01 120.39 0.21 5.36-3.46 10.34-8.62 11.75-9.37 2.72-19.36 1.35-28.8-0.26-0.16-43.48-0.07-86.96-0.08-130.44 0.08-33.89-0.12-67.78 0.1-101.66 9.07-1.94 18.68-3.43 27.8-0.98 4.91 1.26 9.25 5.39 9.48 10.67 0.35 7.42-0.01 14.85 0.15 22.28 14.33-17.02 33.79-30.09 55.7-34.79z"/>
   <path d="m1579.1 150c30.74-21.87 72.51-26.73 107.67-13.3 16.58 6.46 31.22 17.69 41.88 31.93 10.87 14.34 17.8 31.44 21.11 49.08 3.01 15.84 2.86 32.18 0.27 48.06-60.29 0.07-120.59 0-180.88 0.04 2.21 17.04 8.77 33.95 20.77 46.51 10.38 11.11 24.48 18.3 39.23 21.59 22.1 4.92 45.28 2.4 66.72-4.37 7.84-2.21 15.32-5.66 23.31-7.37 5.57-1.42 11.72 1.3 14.58 6.26 4.25 7.17 3.74 15.87 3.17 23.87-19.57 8.63-40.34 14.62-61.56 17.38-19.3 2.53-39.12 2.24-58.08-2.43-16.65-4.06-32.58-11.5-45.88-22.37-14.06-11.32-25.03-26.31-31.98-42.94-9.86-23.76-12.22-50.39-7.98-75.68 5.19-30.3 22.29-58.65 47.65-76.26m17.36 30.27c-13.64 11.51-22.05 28.12-25.99 45.33-0.44 2.72-0.87 5.44-1.29 8.17 48.37 0 96.74-0.01 145.11 0-0.3-4.91-0.85-9.79-1.77-14.63-3.32-16.57-11.88-32.49-25.42-42.9-26.12-20.22-66.03-17.3-90.64 4.03z"/>
   <path d="m1879.3 133.17c21.25-6.87 45.68-4.8 64.78 7.1 11.91 7.31 21.04 18.49 27.09 31 9.14-13.12 20.8-24.75 35.02-32.29 17.83-9.56 39.11-11.94 58.81-7.71 14.06 3.02 27.23 10.4 36.75 21.24 12.31 13.79 18.58 32.08 20.24 50.29 0.97 10.37 0.4 20.8 0.55 31.21-0.04 40.16 0.05 80.34-0.06 120.5 0.17 5.76-3.84 11.05-9.43 12.42-9.4 2.54-19.36 1.27-28.79-0.52 0.01-42.8-0.01-85.61-0.02-128.42-0.23-11.22 0.66-22.52-0.93-33.67-1.46-9.94-5.03-19.84-11.76-27.44-6.16-7.04-14.97-11.41-24.12-12.93-27.02-5.03-54.58 11.73-66.73 35.54-1.21 2.79-0.57 5.94-0.69 8.89 0.02 48.58 0.05 97.16-0.02 145.74 0.28 5.65-3.22 11.29-8.82 12.76-9.59 2.65-19.77 1.3-29.4-0.44-0.01-29.46-0.01-58.92-0.01-88.38-0.17-22.64 0.32-45.29-0.26-67.92-0.73-9.29-2.85-18.66-7.59-26.77-4.58-7.96-12.01-14.27-20.7-17.29-14.94-5.25-31.92-3.43-45.78 4.04-10.33 5.46-19.26 13.56-25.69 23.31-1.78 2.98-4.3 5.92-4.24 9.58-0.1 3.75 0.03 7.5 0.02 11.25 0.04 46.59 0.01 93.19-0.01 139.78 0.3 5.58-3.05 11.21-8.58 12.75-9.48 2.73-19.63 1.5-29.16-0.36 0-50.27-0.03-100.54 0-150.8 0.02-27.01-0.01-54.02 0.01-81.03 8.65-1.91 17.74-3.44 26.53-1.45 5.05 1.07 9.59 5.03 10.31 10.32 0.86 6.75 0.19 13.59 0.4 20.37 10.8-13.94 25.39-25.23 42.28-30.67z"/>
   <path d="m2255.9 129.89c17.19-1.23 34.69-0.86 51.52 3.17 13.74 3.27 27.14 9.51 37.07 19.76 10.85 10.79 16.89 25.54 19.55 40.42 2.85 14.42 1.83 29.17 2.01 43.77-0.02 43.16 0.03 86.32-0.03 129.48-8.95 1.65-18.28 2.8-27.26 0.8-5.34-1.09-10.03-5.64-10.18-11.26-0.16-7.2 0.01-14.4-0.05-21.59-9.66 10.19-20.7 19.21-33.29 25.52-16.85 8.58-36.04 12-54.84 11.19-15.27-0.63-30.64-4.41-43.72-12.49-14.38-8.77-25.53-22.9-30.05-39.19-4.79-17.16-3.22-36.51 6.17-51.87 6.78-11.09 17.31-19.42 28.76-25.31 16.65-8.48 35.14-12.62 53.58-14.98 24.17-2.98 48.62-2.81 72.9-1.26-0.09-10.48-0.18-21.12-2.94-31.31-2.15-7.96-6.31-15.56-12.73-20.85-7.15-5.88-16.23-8.83-25.27-10.16-25.14-3.34-50.68 1.14-74.67 8.72-5.04 1.38-10 3.18-15.2 3.77-5.25 0.51-10.64-2.24-13.06-6.95-3.77-7.19-3.52-15.68-2.55-23.51 23.88-8.65 48.96-13.95 74.28-15.87m25.3 125.03c-17.4 1.05-35.09 2.99-51.35 9.62-9.34 3.91-18.36 10.1-23 19.37-7.01 13.91-3.62 32.09 7.98 42.52 7.95 7.51 18.67 11.45 29.43 12.56 16.59 1.49 33.6-1.83 48.41-9.5 13.04-6.54 24.33-16.26 33.43-27.61 0.8-1.14 2.07-2.21 1.91-3.77 0.07-14.33-0.06-28.67 0.05-42.99-15.61-0.88-31.25-0.94-46.86-0.2z"/>
   <path d="m1193.1 133.91c9.65-3.09 20.03-1.43 29.72 0.69 0 34.69-0.02 69.38 0 104.07 0.04 38.13-0.02 76.25 0.01 114.38 0.03 4.08-0.97 8.55-4.34 11.2-4.23 3.37-9.94 3.91-15.15 4.07-6.31 0.12-12.58-0.67-18.75-1.87-0.05-42.1-0.02-84.19-0.02-126.29 0.03-31.39-0.05-62.78 0.03-94.17-0.12-5.36 3.32-10.5 8.5-12.08z"/>
  </g>
  <path d="m421.97 333.52c4.0635 2.188 12.19 4.6886 22.818 4.6886 17.817 0.31257 27.507-6.5641 34.696-22.505l95.648-213.18c-4.0635-2.188-12.816-4.376-19.692-4.6886-12.19-0.31257-28.757 2.188-39.384 27.507l-30.945 73.142-60.952-98.461c-4.0635-1.2503-13.441-2.8132-20.63-2.8132-21.255 0-33.445 7.8144-45.948 21.255l-58.764 64.39 47.511 74.705c8.7521 13.753 20.317 20.63 39.072 20.63 12.19 0 22.505-2.8132 27.194-5.0012l-57.201-86.27 40.635-42.823 66.578 104.4zm-125.34-80.644c0 15.629-6.2515 24.693-36.884 24.693-4.0635 0-7.5018-0.31258-10.94-0.93773v-208.17c0-15.941 5.3138-32.195 36.258-32.195 3.7509 0 7.8144 0.31257 11.565 1.2503zm-63.452-31.257c0 29.382-19.067 50.637-58.139 55.013-28.132 3.1257-69.079-0.62514-88.458-2.8132-0.62515-3.1257-1.2503-7.1892-1.2503-10.315 0-25.631 13.753-31.57 26.881-31.57 13.441 0 34.696 2.188 50.637 2.188 17.504 0 22.505-5.9389 22.505-11.565 0-7.5018-6.8766-10.315-20.63-13.128l-36.571-6.564c-30.632-5.9389-46.886-27.194-46.886-49.699 0-27.506 19.38-50.324 57.513-54.7 28.757-3.1257 64.078 0.31257 83.145 2.8132 0.62514 3.4383 0.93772 6.564 0.93772 10.002 0 25.631-13.441 30.945-26.569 30.945-10.002 0-25.318-1.8754-43.135-1.8754-18.129 0-25.318 5.0012-25.318 10.94 0 6.2515 7.1892 9.0646 18.442 10.94l35.321 6.5641c36.259 6.8766 51.575 27.507 51.575 52.825" fill="url(#a)" stroke-width="2.9812"/>
  <path d="m1872.2 375.09h420.6c13.753 0 25.006-11.253 25.006-25.006v-325.33c0-13.253-11.003-24.756-24.756-24.756h-420.85z" fill="#fff" fill-rule="evenodd"/>
  <g fill="url(#a)" stroke-width="2.9812">
   <path d="m1943.7 100.27c6.5015-2.5006 13.503-1.2503 20.005 0.25006v75.768h87.02v-65.265c-0.2501-4.7511 2.0005-9.5022 6.7516-11.253 6.2516-2.0004 12.753-0.75018 19.005 0.75018v168.04c0.5001 4.5011-2.5007 8.7521-6.5017 10.252-6.5015 2.0004-13.003 0.75014-19.255-1.0002v-77.518h-87.02v68.266c0.2501 4.251-2.2505 8.252-6.0015 10.002-6.5016 2.2505-13.503 1.0002-20.005-0.75018v-166.79c-0.2501-4.251 1.7504-9.0021 6.0015-10.753z"/>
   <path d="m2117.7 101.52c2.7507-2.0005 6.2516-2.2506 9.5024-2.2506h31.007c14.253 0 28.257 0.50012 41.76 5.0012 21.755 6.5015 40.76 21.755 50.512 42.26 8.2519 18.004 10.002 38.509 7.0016 57.764-4.0009 22.505-16.754 43.76-35.508 57.013-15.754 11.003-35.008 16.754-54.263 16.754h-40.509c-3.751-0.25006-8.2521 0-10.753-3.2508-2.7507-3.5008-2.5006-8.0019-2.5006-12.253v-150.04c0-4.0009 0.2501-8.502 3.7509-11.003m22.255 21.505v131.28h27.757c16.004-0.25006 32.508-5.2512 44.26-16.504 14.003-12.503 20.755-31.757 20.255-50.262 0.5001-14.503-4.001-29.257-13.003-40.76-8.2521-10.502-20.255-17.754-33.258-21.005-7.5018-2.2505-15.504-2.7507-23.506-2.7507z"/>
  </g>
  <path d="m25.006 0c-13.753 0-25.006 11.253-25.006 25.006v226.3c0-20.005 16.003-36.509 36.008-37.259l2281.8-69.266v-119.78c0-13.753-11.253-25.006-25.006-25.006z" fill="#fff" opacity=".2"/>
 </g>
</svg>
