<svg version="1.1" viewBox="0 0 1066.7 257.49" xml:space="preserve" xmlns="http://www.w3.org/2000/svg" xmlns:xlink="http://www.w3.org/1999/xlink">
<style type="text/css">
	.st0{fill:#A1A2A2;}
	.st1{clip-path:url(#SVGID_2_);fill:url(#SVGID_3_);}
	.st2{clip-path:url(#SVGID_5_);fill:url(#SVGID_6_);}
	.st3{fill:#FFFFFF;}
	.st4{fill:#AE2D3F;}
	.st5{opacity:0.4;}
	.st6{clip-path:url(#SVGID_8_);fill:#FFFFFF;}
	.st7{fill:#fdfdfc;}
</style>
<g transform="matrix(1.4835 0 0 1.487 -6.8389 -5.9926)">
	
		<path class="st0" d="m20.79 111.77c-8.06 0-13.52-4.76-13.52-12.68v-81.38c0-7.92 5.45-12.68 13.52-12.68h686.68c8.07 0 13.52 4.76 13.52 12.68v81.37c0 7.92-5.45 12.68-13.52 12.68h-686.68zm687.24 1c11.97 0 15.62-7.44 15.62-14.88v-78.97c0-7.44-3.65-14.89-15.62-14.89h-687.8c-11.97 0-15.62 7.44-15.62 14.89v78.96c0 7.44 3.65 14.88 15.62 14.88h687.8z"/>
	
	
		<defs>
			<path id="SVGID_1_" d="m19.57 7.61c-8.06 0-10.93 4.76-10.93 12.68v76.94c0 7.92 2.87 12.68 10.93 12.68h689.13c8.06 0 10.93-4.76 10.93-12.68v-76.94c0-7.92-2.87-12.68-10.93-12.68z"/>
		</defs>
		<clipPath id="SVGID_2_">
			<use width="100%" height="100%" xlink:href="#SVGID_1_"/>
		</clipPath>
		
			<linearGradient id="SVGID_3_" x2="1" y1="181.42" y2="181.42" gradientTransform="matrix(0,104.02,-104.02,0,19234,6.7164)" gradientUnits="userSpaceOnUse">
			<stop stop-color="#858685" offset="0"/>
			<stop stop-color="#D8D9D9" offset=".0204"/>
			<stop stop-color="#F4F3F4" offset=".0524"/>
			<stop stop-color="#ECEDED" offset=".4832"/>
			<stop stop-color="#F4F3F4" offset=".8955"/>
			<stop stop-color="#EAEAEB" offset=".9294"/>
			<stop stop-color="#D8D9D9" offset=".9643"/>
			<stop stop-color="#858685" offset="1"/>
		</linearGradient>
		<rect class="st1" x="8.63" y="7.61" width="710.99" height="102.3" clip-path="url(#SVGID_2_)" fill="url(#SVGID_3_)"/>
	
	
		<defs>
			<rect id="SVGID_4_" x="196.92" y="7.64" width="372.07" height="102.3"/>
		</defs>
		<clipPath id="SVGID_5_">
			<use width="100%" height="100%" xlink:href="#SVGID_4_"/>
		</clipPath>
		
			<linearGradient id="SVGID_6_" x1="-1.0889e-5" x2="1" y1="181.42" y2="181.42" gradientTransform="matrix(0,-102.3,-102.3,0,18942,109.94)" gradientUnits="userSpaceOnUse">
			<stop stop-color="#821626" offset="0"/>
			<stop stop-color="#AE2D40" offset=".1044"/>
			<stop stop-color="#AE2D40" offset=".8981"/>
			<stop stop-color="#BA3D4D" offset=".9997"/>
			<stop stop-color="#BA3D4D" offset="1"/>
		</linearGradient>
		<rect class="st2" x="196.92" y="7.64" width="372.07" height="102.3" clip-path="url(#SVGID_5_)" fill="url(#SVGID_6_)"/>
	
	
		<path class="st3" d="m247.41 91.12c-4.54 0-8.72-0.82-12.55-2.45s-7.15-3.89-9.96-6.77-5.01-6.31-6.61-10.28-2.4-8.26-2.4-12.87c0-4.48 0.8-8.68 2.4-12.58s3.8-7.3 6.61-10.18 6.13-5.14 9.96-6.77 8.02-2.45 12.55-2.45c3.26 0 6.42 0.35 9.48 1.06 3.07 0.71 5.91 1.6 8.53 2.69 0.58 8.52-1.5 12.77-6.23 12.77-0.83 0-1.6-0.1-2.3-0.29s-1.47-0.39-2.3-0.58-1.76-0.39-2.78-0.58-2.24-0.29-3.64-0.29c-2.24 0-4.34 0.4-6.32 1.2s-3.69 1.95-5.13 3.46-2.57 3.31-3.4 5.43c-0.83 2.11-1.25 4.48-1.25 7.11 0 2.75 0.42 5.22 1.25 7.39 0.83 2.18 1.96 4.02 3.4 5.52s3.15 2.66 5.13 3.46 4.09 1.2 6.32 1.2c1.4 0 2.65-0.1 3.74-0.29s2.06-0.38 2.92-0.58c0.86-0.19 1.68-0.38 2.44-0.58 0.77-0.19 1.57-0.29 2.4-0.29 4.66 0 6.74 4.26 6.23 12.78-2.62 1.09-5.54 1.99-8.77 2.69-3.22 0.72-6.46 1.07-9.72 1.07"/>
		<path class="st3" d="m280.48 90.35c-1.34 0-2.67-0.06-3.98-0.19s-2.41-0.29-3.3-0.48v-55.61c0-1.86 0.57-3.44 1.72-4.76 1.15-1.31 3.32-1.97 6.51-1.97 1.34 0 2.67 0.06 3.98 0.19s2.41 0.29 3.3 0.48v55.61c0 1.86-0.57 3.44-1.72 4.75-1.15 1.33-3.32 1.98-6.51 1.98"/>
		<path class="st3" d="m306.68 90.35c-1.28 0-2.52-0.06-3.74-0.19-1.21-0.13-2.24-0.29-3.07-0.48v-61.18c0.96-0.32 2.2-0.59 3.74-0.82 1.53-0.22 2.84-0.34 3.93-0.34 3.51 0 6.07 0.45 7.66 1.35 1.6 0.9 2.94 2.21 4.02 3.94l21.75 34.29v-33.43c0-0.83 0.11-1.62 0.34-2.35 0.22-0.74 0.61-1.39 1.15-1.97s1.29-1.02 2.25-1.34 2.17-0.48 3.64-0.48c1.28 0 2.51 0.06 3.69 0.19s2.19 0.26 3.02 0.38v61.28c-0.9 0.45-1.98 0.75-3.26 0.91s-2.52 0.24-3.74 0.24c-3 0-5.24-0.42-6.71-1.25s-2.68-1.98-3.64-3.46l-23.28-37.27v35.63c0 1.79-0.54 3.3-1.63 4.51-1.08 1.24-3.12 1.84-6.12 1.84" Googl="true"/>
		<path class="st3" d="m374.74 89.97c-1.79 0-3.24-0.19-4.36-0.58-1.12-0.38-1.98-0.91-2.59-1.58s-1.02-1.49-1.24-2.45c-0.23-0.96-0.34-1.98-0.34-3.07v-47.07c0-1.09 0.11-2.11 0.34-3.07 0.22-0.96 0.64-1.78 1.24-2.45 0.61-0.67 1.47-1.2 2.59-1.58s2.57-0.58 4.36-0.58h31.71c0.13 0.71 0.25 1.67 0.38 2.88 0.13 1.22 0.19 2.47 0.19 3.75 0 2.69-0.54 4.6-1.63 5.72s-2.46 1.68-4.12 1.68h-19.55v10.95h22.52c0.13 0.64 0.26 1.49 0.38 2.54 0.13 1.06 0.19 2.19 0.19 3.41 0 2.56-0.51 4.31-1.53 5.24s-2.3 1.39-3.83 1.39h-17.73v10.85h25.68c0.13 0.71 0.26 1.68 0.38 2.93 0.13 1.25 0.19 2.48 0.19 3.7 0 2.75-0.54 4.68-1.63 5.76-1.09 1.09-2.46 1.63-4.12 1.63z"/>
		<path class="st3" d="m420.79 90.35c-1.47 0-2.76-0.14-3.88-0.43s-2.09-0.62-2.92-1.01l5.86-59.84c1.21-0.51 2.81-0.93 4.79-1.25s3.67-0.48 5.08-0.48c1.98 0 3.68 0.13 5.12 0.38 1.44 0.26 2.67 0.69 3.69 1.3s1.83 1.46 2.44 2.55 1.07 2.43 1.39 4.03l2.49 11.62c0.7 3.2 1.45 6.74 2.25 10.61 0.8 3.88 1.52 7.86 2.15 11.96h0.38c0.7-4.1 1.43-8.07 2.2-11.91 0.76-3.84 1.56-7.36 2.39-10.56l3.06-12.2c0.76-3.01 1.99-5.06 3.68-6.15s4.32-1.63 7.89-1.63c1.79 0 3.59 0.14 5.41 0.43s3.33 0.59 4.54 0.91l5.6 60.22c-0.89 0.32-1.96 0.64-3.21 0.96s-2.6 0.48-4.07 0.48c-2.04 0-3.77-0.35-5.17-1.06-1.41-0.7-2.17-2.02-2.3-3.94l-1.44-20.75c-0.32-3.65-0.59-7.48-0.82-11.48-0.22-4-0.37-7.79-0.43-11.38h-0.19c-0.83 3.33-1.68 6.93-2.54 10.81-0.86 3.87-1.74 7.44-2.63 10.71l-3.93 16.33c-0.96 3.84-3.99 5.76-9.1 5.76-1.28 0-2.59-0.13-3.93-0.38s-2.49-0.54-3.45-0.86l-4.88-20.36c-0.96-3.78-1.85-7.49-2.68-11.14s-1.6-7.3-2.3-10.95h-0.29c-0.19 5.12-0.45 9.81-0.77 14.07s-0.61 7.93-0.86 11l-1.53 18.73c-0.13 1.86-0.83 3.14-2.11 3.84-1.28 0.71-2.94 1.06-4.98 1.06"/>
		<path class="st3" d="m496.25 90.54c-1.21 0-2.6-0.11-4.17-0.34-1.57-0.22-2.86-0.53-3.88-0.91l19.88-60.89c1.73-0.45 3.47-0.77 5.24-0.96 1.76-0.19 3.38-0.29 4.85-0.29 2.11 0 3.92 0.16 5.43 0.48s2.77 0.8 3.79 1.44c1.03 0.64 1.87 1.49 2.55 2.55 0.67 1.06 1.23 2.29 1.68 3.7l17.04 53.88c-1.09 0.45-2.4 0.79-3.93 1.01s-3.04 0.34-4.5 0.34c-1.66 0-3.27-0.27-4.84-0.82-1.57-0.54-2.7-1.78-3.4-3.7l-3.26-9.89h-20.89l-2.77 9.32c-0.7 2.24-1.89 3.65-3.55 4.23-1.66 0.57-3.42 0.85-5.27 0.85m14.94-26.41h14.33l-7.15-23.53z"/>
		<path class="st4" d="m660.68 73.76v-30.91h9.03c12.57 0 17.18 8.14 17.18 15.46 0 7.33-4.6 15.46-17.18 15.46h-9.03zm39.08-15.46c0-16.1-11.59-27.02-30.78-27.02h-13.05c-6.26 0-7.76 3.3-7.76 7.63v38.87c0 4.16 1.5 7.54 7.76 7.54h13.05c19.19 0.01 30.78-10.91 30.78-27.02m-71.67-6.08v-14.44c0-3.91 1.56-6.4 9.64-6.4 1 0 1.85 0.07 2.84 0.22v47.39c0 3.9-1.56 6.39-9.65 6.39-0.99 0-1.84-0.07-2.83-0.22v-21.53h-25.17v15.35c0 3.9-1.56 6.39-9.66 6.39-0.98 0-1.83-0.07-2.84-0.22v-47.37c0-3.91 1.57-6.4 9.66-6.4 0.99 0 1.84 0.07 2.84 0.22v20.63h25.17z"/>
		<path class="st4" d="m130.14 102.1c1.2 0.61 3.67 1.36 6.78 1.44 5.32 0.11 8.23-1.93 10.38-6.69l28.57-63.73c-1.18-0.63-3.79-1.34-5.93-1.39-3.67-0.07-8.6 0.68-11.75 8.2l-9.25 21.84-18.14-29.55c-1.17-0.36-4.03-0.87-6.13-0.87-6.39 0-9.98 2.36-13.69 6.39l-17.64 19.29 14.19 22.33c2.62 4.07 6.08 6.14 11.69 6.14 3.67 0 6.73-0.83 8.14-1.51l-17.08-25.76 12.11-12.83 19.86 31.17zm-37.48-24.11c0 4.7-1.85 7.41-11.01 7.41-1.22 0-2.28-0.09-3.3-0.24v-62.31c0-4.73 1.61-9.67 10.87-9.67 1.17 0 2.34 0.12 3.44 0.35zm-18.93-9.4c0 8.76-5.73 15.16-17.35 16.42-8.43 0.9-20.62-0.16-26.42-0.83-0.22-0.94-0.38-2.12-0.38-3.04 0-7.67 4.15-9.41 8.02-9.41 4.03 0 10.38 0.7 15.1 0.7 5.19 0 6.77-1.76 6.77-3.44 0-2.2-2.1-3.11-6.13-3.89l-11.03-2.12c-9.18-1.76-14.08-8.11-14.08-14.85 0-8.19 5.8-15.05 17.2-16.31 8.62-0.93 19.11 0.12 24.87 0.83 0.21 0.99 0.32 1.92 0.32 2.95 0 7.64-4.03 9.29-7.91 9.29-2.98 0-7.61-0.56-12.89-0.56-5.38 0-7.61 1.49-7.61 3.3 0 1.91 2.13 2.7 5.49 3.29l10.54 1.96c10.85 1.99 15.49 8.14 15.49 15.71"/>
		<g class="st5">
			
				<defs>
					<rect id="SVGID_7_" x="9.41" y="9.29" width="709.44" height="91.43"/>
				</defs>
				<clipPath id="SVGID_8_">
					<use width="100%" height="100%" xlink:href="#SVGID_7_"/>
				</clipPath>
				<path class="st6" d="m709.79 85.95c6.94 6.87 7.88 13.35 8.13 14.77 0.68 0 0.93-3.03 0.93-7.56l-0.02-72.62c0-8.41-2.74-11.25-9.86-11.25-2.41 0-4.83 1.29-8.04 1.29h-673.58c-3.22 0-5.63-1.29-8.04-1.29-7.13 0-9.87 2.84-9.87 11.25l-0.03 72.62c0 4.53 0.25 7.56 0.93 7.56 0.25-1.42 0.46-8.4 8.13-14.77 61.29-47.25 625.25-61.75 691.32 0" clip-path="url(#SVGID_8_)"/>
			
		</g>
		
		
		
		
		
		
	
</g><g stroke-width="1.4884">
<path d="m395.16 257.35c-0.89202 0-1.784-0.14902-2.8247-0.29805-1.0407-0.14901-1.784-0.44705-2.3787-0.74508l19.624-56.627c1.1894-0.29804 2.23-0.44706 3.2707-0.59608 1.0407-0.14903 2.0814-0.14903 3.1221-0.14903 1.4867 0 2.5274 0.14903 3.5681 0.29804 0.89202 0.14902 1.6354 0.59608 2.23 1.0431 0.59468 0.44705 1.1894 1.0431 1.4867 1.6392 0.44601 0.7451 0.74335 1.4902 1.1894 2.5333l17.692 51.859c-0.74335 0.29804-1.4867 0.59607-2.3787 0.74509s-1.784 0.29805-2.5274 0.29805c-1.338 0-2.5274-0.14902-3.5681-0.44706-1.0407-0.29803-1.784-1.1922-2.23-2.5333l-4.3114-12.667h-22.598l-4.1628 12.667c-0.44601 1.3412-1.1894 2.0863-2.0814 2.5333-0.74336 0.29804-1.784 0.44706-3.1221 0.44706zm12.34-24.141h16.948l-8.4742-25.78z"/><path d="m470.54 257.64c-4.0141 0-7.7308-0.7451-11.15-2.2353s-6.3928-3.4274-8.9202-6.1098c-2.5274-2.5333-4.4601-5.6627-5.9468-9.2392-1.4867-3.5765-2.0814-7.6-2.0814-11.773 0-4.1725 0.74335-8.047 2.0814-11.624 1.4867-3.5765 3.4194-6.7059 5.9468-9.3882s5.5008-4.7686 8.9202-6.2588c3.4194-1.4902 7.1362-2.2353 11.15-2.2353 2.9734 0 5.9468 0.29804 8.6229 0.89412s5.3521 1.3412 7.8795 2.3843c0 0.44706 0.14867 0.7451 0.14867 1.0431v1.0431c0 1.9372-0.44601 3.4274-1.1894 4.4706-0.89202 1.0431-1.9327 1.6392-3.1221 1.6392-0.59468 0-1.1894-0.14902-1.9327-0.29804-0.74335-0.29804-1.4867-0.44706-2.3787-0.7451-0.89202-0.29803-1.9327-0.59608-3.2707-0.74508-1.1894-0.29804-2.6761-0.29804-4.3114-0.29804-2.5274 0-4.9061 0.44705-7.1362 1.4902s-4.0141 2.3843-5.6495 4.1726c-1.6354 1.7882-2.8247 3.8745-3.8654 6.4078-0.89202 2.5333-1.338 5.3647-1.338 8.3451 0 3.1294 0.44601 6.1098 1.338 8.4941 0.89202 2.5333 2.23 4.6196 3.8654 6.4078 1.6354 1.7882 3.5681 3.1294 5.6495 3.8745 2.23 0.89412 4.6088 1.3412 7.1362 1.3412 1.6354 0 3.1221-0.14902 4.3114-0.29804 1.1894-0.29804 2.23-0.44706 3.1221-0.7451s1.6354-0.59608 2.23-0.7451c0.59468-0.29804 1.338-0.29804 1.9327-0.29804 1.4867 0 2.6761 0.44706 3.5681 1.4902 0.89202 1.0431 1.338 2.3843 1.338 4.3216v1.1922c0 0.44706 0 0.74509-0.14867 1.1922-2.5274 1.0431-5.0548 1.9373-7.7308 2.3843-2.6761 0.14902-5.7981 0.44706-9.0689 0.44705z"/><path d="m517.52 257.35c-0.89203 0-1.9327 0-2.8247-0.14902s-1.6354-0.14902-2.0814-0.29804v-48.729h-17.692c-0.14866-0.44706-0.14866-1.0432-0.29734-1.9373 0-0.74509-0.14867-1.6392-0.14867-2.5333 0-1.9372 0.44601-3.1294 1.1894-3.7255 0.74335-0.59608 1.784-0.89412 2.9734-0.89412h41.33c0.29734 0.89412 0.29734 2.2353 0.29734 4.0235 0 3.2784-1.338 4.9176-4.0141 4.9176h-13.826v45.004c0 1.1922-0.29734 2.2353-1.0407 2.9804s-1.9327 1.3412-3.8654 1.3412z"/><path d="m551.41 257.35c-0.89202 0-1.9327 0-2.8247-0.14902s-1.6354-0.14902-2.0814-0.29804v-53.796c0-1.1922 0.29734-2.2353 1.0407-2.9804 0.74334-0.7451 2.0814-1.1922 3.8654-1.1922 0.89202 0 1.9327 0 2.8247 0.14902s1.6354 0.14902 2.0814 0.29804v53.796c0 1.1922-0.29733 2.2353-1.0407 2.9804-0.59468 0.8941-1.9327 1.1922-3.8654 1.1922z"/><path d="m593.04 258.09c-4.1628 0-8.0282-0.7451-11.448-2.3843-3.4194-1.4902-6.3928-3.7255-8.9202-6.4078-2.5274-2.6824-4.4601-5.9608-5.7981-9.5372-1.338-3.5765-2.0814-7.6-2.0814-11.773 0-4.1725 0.74334-8.047 2.0814-11.624 1.338-3.5765 3.2708-6.8549 5.7981-9.3882 2.5274-2.5333 5.5008-4.7686 8.9202-6.2588 3.4194-1.4902 7.2848-2.2353 11.448-2.2353s8.0282 0.7451 11.448 2.2353c3.4194 1.4902 6.3928 3.5765 8.9202 6.2588 2.5274 2.6824 4.4601 5.8118 5.7981 9.3882 1.338 3.5765 2.0814 7.451 2.0814 11.773 0 4.3216-0.74334 8.047-2.0814 11.773-1.338 3.5765-3.2708 6.8549-5.7981 9.5372-2.5274 2.6824-5.5008 4.9176-8.9202 6.4078-3.4194 1.3412-7.2848 2.2353-11.448 2.2353zm-0.14868-8.9412c2.5274 0 4.7574-0.59607 6.9875-1.6392s4.1628-2.5333 5.7981-4.4706c1.6354-1.9373 2.9734-4.1726 3.8654-6.7059s1.4867-5.3647 1.4867-8.3451-0.44601-5.6627-1.338-8.3451c-0.89202-2.5333-2.23-4.7686-3.8654-6.7059-1.6354-1.7882-3.5681-3.2784-5.6494-4.3216-2.0814-1.0431-4.6088-1.6392-7.1362-1.6392-2.5274 0-4.7574 0.44706-6.9875 1.4902-2.23 1.0431-4.0141 2.5333-5.6495 4.3216-1.6354 1.9372-2.9734 4.0235-3.8654 6.5568-0.89202 2.5333-1.4867 5.3647-1.4867 8.3451 0 3.1294 0.44601 5.9608 1.338 8.4941s2.23 4.9176 3.8654 6.7059c1.6354 1.9372 3.5681 3.4274 5.6494 4.4706 2.23 1.1922 4.6088 1.7882 6.9875 1.7882z"/><path d="m634.07 257.35c-0.89202 0-1.784 0-2.6761-0.14902-0.89202 0-1.4867-0.14902-1.9327-0.29804v-57.074c0.59468-0.29804 1.4867-0.44706 2.5274-0.59608s1.9327-0.14902 2.6761-0.14902c2.3787 0 4.0141 0.29803 5.0548 0.89412 1.0407 0.59608 1.9327 1.4902 2.6761 2.6824l25.72 39.937-0.59469-39.639c0-1.0432 0.29734-1.9373 1.0407-2.6824 0.74334-0.74509 1.9327-1.1922 3.7168-1.1922 0.89202 0 1.6354 0 2.5274 0.14902s1.4867 0.14902 1.9327 0.29804v57.074c-1.338 0.59607-2.9734 0.7451-4.7574 0.7451-2.0814 0-3.7168-0.29805-4.7574-0.89411-1.0407-0.59608-1.784-1.4902-2.5274-2.3843l-26.612-41.576 0.59468 40.98c0 1.1922-0.29734 2.0863-1.0407 2.8314-0.44601 0.74509-1.6354 1.0431-3.5681 1.0431z"/></g></svg>
