<svg width="600" height="126.61" version="1.1" viewBox="0 0 158.75 33.498786" xmlns="http://www.w3.org/2000/svg">
 <defs>
  <linearGradient id="b" x2="1" gradientTransform="matrix(0 -19.587 19.587 0 85.807 97.388)" gradientUnits="userSpaceOnUse">
   <stop stop-color="#810121" offset="0"/>
   <stop stop-color="#ad2b3e" offset=".10441"/>
   <stop stop-color="#ae2c3f" offset=".89813"/>
   <stop stop-color="#b94556" offset=".99967"/>
   <stop stop-color="#ba3b4b" offset="1"/>
  </linearGradient>
 </defs>
 <g transform="translate(-13.367 -77.186)">
  <g fill="#fff">
   <path d="m169.12 98.004c2.2934 0 2.9919-1.4246 2.9919-2.8492v-15.12c0-1.4246-0.69853-2.8492-2.9919-2.8492h-152.77c-2.2934 0-2.9919 1.4246-2.9919 2.8492v15.12c0 1.4246 0.69852 2.8492 2.9919 2.8492h152.77m-152.66-0.19028c-1.5423 0-2.5863-0.91133-2.5863-2.4286v-15.58c0-1.5172 1.044-2.4286 2.5863-2.4286h152.56c1.5423 0 2.5863 0.91133 2.5863 2.4286v15.58c0 1.5172-1.044 2.4286-2.5863 2.4286h-152.56" opacity=".75"/>
   <path d="m130.04 92.461c-0.21031 0-0.41061-0.01-0.60338-0.0276-0.19028-0.02-0.35552-0.0401-0.49072-0.0651v-3.6128h-3.3549c-0.0226-0.12518-0.0476-0.27039-0.0726-0.43563-0.0251-0.16775-0.0375-0.36304-0.0375-0.58586 0-0.46819 0.0976-0.79617 0.29794-0.98144 0.19529-0.18527 0.43815-0.27791 0.72105-0.27791h2.4461v-2.5763c0-0.28292 0.0876-0.52076 0.26038-0.71355 0.17276-0.19028 0.49322-0.28792 0.96391-0.28792 0.21031 0 0.41061 0.01 0.60088 0.03 0.19279 0.0175 0.35552 0.0401 0.49323 0.0626v3.4851h3.39c0.0251 0.12267 0.05 0.26789 0.0751 0.43564 0.0251 0.16774 0.035 0.36052 0.035 0.58335 0 0.47069-0.0976 0.79616-0.29543 0.98394-0.1978 0.18277-0.43815 0.2779-0.72356 0.2779h-2.4811v2.704c0 0.28541-0.0876 0.52327-0.26038 0.71354-0.17275 0.19278-0.49323 0.28792-0.96391 0.28792"/>
   <path d="m140.02 93.8c-0.27039 0-0.53578-0.0125-0.79867-0.0376-0.26288-0.0276-0.48321-0.0601-0.66347-0.0976v-9.0633l-2.1156 0.96391c-0.10515-0.13019-0.21281-0.27039-0.32798-0.42562-0.11517-0.15272-0.21781-0.34551-0.30794-0.57585-0.0901-0.23034-0.13521-0.46318-0.13521-0.69351 0-0.30795 0.0827-0.57084 0.25037-0.78866 0.16524-0.21782 0.39809-0.39808 0.69351-0.53828l2.8091-1.327h2.2508v11.236c0 0.37304-0.11517 0.6885-0.34551 0.95139-0.23284 0.26539-0.66848 0.39558-1.3094 0.39558"/>
  </g>
  <path d="m50.191 77.806v19.588h71.235v-19.588z" fill="url(#b)" stroke-width=".99999"/>
  <g fill="#fff">
   <g stroke-width=".86722">
    <path d="m59.86 93.789c-0.86723 0-1.6683-0.15769-2.4031-0.46991-0.73481-0.31221-1.3688-0.74427-1.908-1.2962-0.53928-0.5519-0.95872-1.2079-1.2647-1.9679-0.30592-0.76004-0.46045-1.58-0.46045-2.463 0-0.85781 0.15453-1.662 0.46045-2.4094 0.30591-0.74738 0.72535-1.3971 1.2647-1.949 0.53929-0.5519 1.1732-0.98395 1.908-1.2962 0.73481-0.31222 1.5358-0.46991 2.4031-0.46991 0.62444 0 1.23 0.0694 1.8166 0.20184 0.58658 0.13561 1.129 0.30905 1.6336 0.51721 0.10723 1.6305-0.29014 2.4441-1.1952 2.4441-0.15768 0-0.30591-0.0189-0.43837-0.0536-0.1356-0.0378-0.28067-0.0757-0.44152-0.11038-0.15769-0.0378-0.33743-0.0757-0.52981-0.11038-0.19553-0.0378-0.42891-0.0568-0.69697-0.0568-0.42891 0-0.83258 0.0788-1.211 0.23022-0.3816 0.15453-0.70643 0.37528-0.98395 0.66228-0.27437 0.28698-0.49198 0.63389-0.64967 1.0375-0.15768 0.40683-0.23968 0.86096-0.23968 1.3624 0 0.52666 0.082 0.99973 0.23968 1.416 0.15769 0.41629 0.3753 0.76951 0.64967 1.0564 0.27753 0.29014 0.60236 0.5109 0.98395 0.66227 0.37844 0.15454 0.78212 0.23023 1.211 0.23023 0.26806 0 0.50459-0.0189 0.71273-0.0536 0.20814-0.0378 0.39422-0.0757 0.56137-0.11039 0.16398-0.0378 0.32167-0.0757 0.46674-0.11038 0.14823-0.0378 0.2996-0.0568 0.45729-0.0568 0.89246 0 1.293 0.81682 1.1952 2.4473-0.50144 0.20814-1.0628 0.37844-1.681 0.51405-0.61496 0.13561-1.2362 0.20184-1.8607 0.20184"/>
    <path d="m66.191 93.642c-0.25544 0-0.51089-0.0127-0.76004-0.0378-0.2523-0.0252-0.4636-0.0536-0.6339-0.0915v-10.647c0-0.35636 0.11038-0.65911 0.33114-0.91145 0.21761-0.24914 0.63389-0.37528 1.2457-0.37528 0.25859 0 0.5109 0.0126 0.76319 0.0347 0.24914 0.0252 0.46044 0.0568 0.63074 0.0946v10.647c0 0.35636-0.11038 0.65912-0.32798 0.90825-0.22076 0.25231-0.63705 0.37845-1.2489 0.37845"/>
    <path d="m71.203 93.642c-0.24599 0-0.48251-0.0127-0.71589-0.0378-0.23337-0.0252-0.42891-0.0536-0.58659-0.0915v-11.713c0.18292-0.063 0.4226-0.11353 0.71589-0.15768 0.2933-0.041 0.54245-0.063 0.75058-0.063 0.67491 0 1.1637 0.0852 1.4696 0.25544 0.3059 0.17345 0.56135 0.42575 0.7695 0.75374l4.1629 6.566v-6.3989c0-0.16084 0.022-0.30907 0.0663-0.45098 0.041-0.14191 0.11353-0.26491 0.2176-0.37528 0.10408-0.11038 0.24915-0.19869 0.43206-0.25861 0.18292-0.0599 0.41629-0.0915 0.69696-0.0915 0.246 0 0.47937 0.0126 0.70644 0.0347 0.22707 0.0252 0.41945 0.0505 0.57714 0.0757v11.732c-0.17031 0.0852-0.37845 0.14508-0.62129 0.17346-0.24599 0.0316-0.48568 0.0474-0.7159 0.0474-0.57713 0-1.0029-0.0788-1.2836-0.23968-0.28383-0.15769-0.51406-0.37845-0.69697-0.66228l-4.4594-7.1337v6.8214c0 0.34376-0.10408 0.63074-0.31222 0.86412s-0.5992 0.35006-1.1732 0.35006"/>
    <path d="m84.238 93.564c-0.34376 0-0.62128-0.0378-0.83574-0.11038-0.21444-0.0725-0.37843-0.17345-0.49513-0.30276-0.11668-0.1293-0.19553-0.28699-0.23652-0.4699-0.0441-0.18292-0.0663-0.37844-0.0663-0.58658v-9.0131c0-0.20815 0.022-0.40367 0.0663-0.58658 0.041-0.18608 0.11984-0.34061 0.23652-0.4699 0.1167-0.12931 0.28069-0.23022 0.49513-0.30276 0.21446-0.0757 0.49198-0.11038 0.83574-0.11038h6.0709c0.0252 0.1356 0.0505 0.31851 0.0757 0.55189 0.0221 0.23338 0.0347 0.46991 0.0347 0.71589 0 0.51406-0.10407 0.87989-0.31222 1.0944-0.20814 0.21445-0.4699 0.32168-0.78842 0.32168h-3.7403v2.0972h4.3079c0.0252 0.12299 0.0505 0.28383 0.0757 0.48567 0.022 0.20498 0.0347 0.4226 0.0347 0.65282 0 0.49197-0.0978 0.82627-0.2933 1.0029-0.19553 0.17976-0.43837 0.26806-0.73167 0.26806h-3.3934v2.0783h4.9135c0.0252 0.13246 0.0505 0.32168 0.0757 0.56136 0.0221 0.23653 0.0347 0.47306 0.0347 0.70643 0 0.52667-0.10407 0.89567-0.31221 1.1038-0.20814 0.20813-0.4699 0.31222-0.78842 0.31222h-5.2635"/>
    <path d="m93.057 93.642c-0.28069 0-0.52983-0.0284-0.74427-0.0819-0.2113-0.0568-0.40053-0.11984-0.55821-0.19238l1.1227-11.458c0.23023-0.0978 0.53613-0.17976 0.91457-0.23968 0.37844-0.0599 0.70327-0.0915 0.9713-0.0915 0.3816 0 0.70642 0.0252 0.98082 0.0725 0.27752 0.0505 0.51089 0.13246 0.70643 0.24915 0.19552 0.11668 0.35321 0.27753 0.46988 0.48567 0.11354 0.20814 0.20185 0.46673 0.26492 0.77265l0.47621 2.2265c0.13562 0.61182 0.27754 1.2898 0.43206 2.031 0.15138 0.74111 0.29014 1.5043 0.40999 2.2896h0.0757c0.13247-0.78526 0.27439-1.5453 0.41946-2.2801 0.14821-0.73483 0.2996-1.4097 0.45727-2.0215l0.5866-2.3369c0.14823-0.57712 0.38161-0.96816 0.70644-1.1763 0.32483-0.20814 0.82627-0.31222 1.5106-0.31222 0.34059 0 0.68749 0.0284 1.0344 0.082 0.35005 0.0536 0.63703 0.11354 0.87043 0.17346l1.0722 11.533c-0.17031 0.0599-0.37529 0.11985-0.61499 0.18292-0.23652 0.0599-0.49827 0.0915-0.77895 0.0915-0.39106 0-0.72221-0.0663-0.99029-0.20184-0.26806-0.13561-0.41628-0.38791-0.44151-0.75374l-0.27437-3.9737c-0.0599-0.69696-0.11353-1.4318-0.15452-2.1981-0.0441-0.7632-0.0725-1.4917-0.0852-2.1792h-0.0347c-0.16084 0.64019-0.32168 1.3277-0.48566 2.0688-0.16715 0.74427-0.3343 1.4255-0.50461 2.0531l-0.75374 3.1253c-0.18291 0.73482-0.76318 1.1038-1.7409 1.1038-0.24598 0-0.49513-0.0252-0.75374-0.0757-0.25543-0.0473-0.4762-0.10407-0.65912-0.16399l-0.93661-3.898c-0.18291-0.72536-0.35322-1.4349-0.51405-2.135-0.15767-0.69698-0.3059-1.3971-0.43836-2.0941h-0.0568c-0.0347 0.98083-0.0852 1.8764-0.14507 2.6932-0.063 0.81366-0.11669 1.517-0.16716 2.1067l-0.29329 3.5858c-0.022 0.35322-0.15767 0.59921-0.40367 0.73482-0.24283 0.13561-0.56137 0.20184-0.95238 0.20184"/>
    <path d="m110.37 88.62h2.7437l-1.3687-4.5066-1.375 4.5066m-2.8604 5.0585c-0.23338 0-0.49829-0.022-0.7979-0.0662-0.29961-0.041-0.54875-0.10092-0.74427-0.17346l3.8065-11.659c0.33114-0.0852 0.66543-0.14822 1.0028-0.18606 0.33744-0.0347 0.64651-0.0536 0.92715-0.0536 0.40683 0 0.75059 0.0316 1.0408 0.0915 0.28699 0.0631 0.52983 0.15452 0.72536 0.27752 0.19869 0.12299 0.35952 0.28383 0.48883 0.48567 0.1293 0.20184 0.23652 0.43836 0.32168 0.70957l3.2609 10.316c-0.20812 0.0852-0.45728 0.15138-0.75057 0.19238-0.29329 0.0441-0.58028 0.0663-0.86413 0.0663-0.31535 0-0.62442-0.0536-0.92402-0.15768s-0.51721-0.34061-0.65283-0.70959l-0.62442-1.8922h-3.999l-0.52983 1.785c-0.13561 0.4289-0.36266 0.69697-0.67804 0.80735-0.31852 0.11038-0.65597 0.16714-1.0092 0.16714"/>
    <path d="m26.611 89.47c0 1.6777-1.0975 2.9014-3.324 3.1442-1.6116 0.17345-3.9485-0.0316-5.0554-0.15769-0.041-0.1829-0.0725-0.40682-0.0725-0.58343 0-1.4696 0.79158-1.8039 1.5358-1.8039 0.76951 0 1.9868 0.13561 2.8888 0.13561 0.9934 0 1.2993-0.33745 1.2993-0.65913 0-0.4226-0.40366-0.59604-1.1732-0.74427l-2.113-0.40682c-1.7566-0.33745-2.6964-1.5516-2.6964-2.8415 0-1.5705 1.1101-2.8825 3.2956-3.1253 1.6494-0.17661 3.6583 0.0252 4.7621 0.16083 0.041 0.18922 0.0599 0.36582 0.0599 0.5645 0 1.4634-0.76951 1.7787-1.5138 1.7787-0.57083 0-1.457-0.10722-2.4693-0.10722-1.0313 0-1.457 0.28383-1.457 0.63074 0 0.36583 0.40683 0.51722 1.0533 0.63074l2.0184 0.3753c2.072 0.38159 2.9613 1.5579 2.9613 3.0086m3.6236 1.8008c0 0.89879-0.35322 1.4191-2.1098 1.4191-0.23022 0-0.43521-0.0189-0.63074-0.0474v-11.93c0-0.90512 0.30907-1.8512 2.0814-1.8512 0.22391 0 0.44781 0.022 0.65911 0.0662v12.343m7.1778 4.6139c0.22706 0.11984 0.70012 0.26176 1.2962 0.27753 1.0186 0.022 1.5769-0.36899 1.9868-1.2804l5.4717-12.202c-0.22706-0.123-0.72534-0.2586-1.1354-0.26806-0.70328-0.0126-1.6462 0.13245-2.2518 1.5705l-1.7692 4.1818-3.4754-5.6578c-0.2239-0.0694-0.7695-0.16714-1.1732-0.16714-1.2236 0-1.9112 0.45097-2.6208 1.2236l-3.3777 3.693 2.7154 4.2764c0.50144 0.77897 1.1637 1.1763 2.2392 1.1763 0.70328 0 1.2867-0.16085 1.5579-0.29015l-3.2704-4.9324 2.318-2.4568 3.8034 5.97-2.3148 4.8851"/>
   </g>
   <path d="m153.83 86.339v-2.7666c0-0.74859 0.29793-1.2243 1.8452-1.2243 0.19279 0 0.35552 0.0125 0.5458 0.0426v9.0708c0 0.7486-0.29794 1.2243-1.8477 1.2243-0.19029 0-0.35553-0.015-0.5433-0.0426v-4.121h-4.8196v2.9393c0 0.74859-0.30044 1.2243-1.8502 1.2243-0.18778 0-0.35051-0.015-0.5433-0.0426v-9.0708c0-0.7486 0.30045-1.2243 1.8502-1.2243 0.19028 0 0.35302 0.0125 0.5433 0.0426v3.9483h4.8196m13.723 1.1642c0-3.082-2.2207-5.1726-5.8936-5.1726h-2.5012c-1.1968 0-1.4847 0.63092-1.4847 1.4621v7.4409c0 0.79617 0.28791 1.4446 1.4847 1.4446h2.5012c3.6729 0 5.8936-2.0931 5.8936-5.1751m-7.4835 2.9593v-5.9187h1.73c2.406 0 3.2873 1.5598 3.2873 2.9593 0 1.4046-0.88129 2.9593-3.2873 2.9593h-1.73"/>
   <path d="m16.181 78.118c-1.3645 0-1.8903 0.54575-1.8903 2.1556l-5e-3 13.903c0 0.86877 0.0502 1.4471 0.17792 1.4471 0.0476-0.2704 0.0902-1.6075 1.5573-2.8242 0.50324-0.38807 1.2194-0.76363 2.1332-1.1267 8e-5 -6e-5 4.6e-4 -8.7e-4 4.6e-4 -8.7e-4 1.9653-0.78111 4.8442-1.5101 8.4468-2.1735 3.7411-0.65298 7.7388-1.2027 11.137-1.6061 2.1729-0.24966 4.3008-0.46762 6.3822-0.66451h1e-5l-4.6e-4 2e-3c3.4606-0.32046 6.5987-0.57334 9.802-0.79637 1.1298-0.0799 2.2779-0.15681 3.2428-0.21875 2.6665-0.16094 5.3603-0.31772 7.628-0.4298 1.034-0.0532 2.0857-0.10394 2.9695-0.14392 0.74259-0.0311 1.5019-0.0647 2.1381-0.0914 1.8998-0.0772 3.8269-0.15226 5.45-0.20583 0.84122-0.0276 1.6963-0.0572 2.4187-0.0798 0.9367-0.0251 1.8947-0.0535 2.6965-0.0757 0.74326-0.0194 1.4985-0.0385 2.1359-0.052 1.0345-0.0241 2.0875-0.0475 2.9712-0.0632 2.436-0.0423 4.9091-0.0816 6.9962-0.10217l8.7e-4 -2e-5c0.80558-8e-3 1.6113-0.0152 2.4169-0.0202-1e-5 1.5e-4 0 2.4e-4 0 4.6e-4h0.20794c-4e-5 -1.4e-4 2e-5 -2.2e-4 0-4.6e-4 0.78835-5e-3 1.579-7e-3 2.3649-0.01 2e-5 6e-5 2e-3 0 2e-3 0 0.59587 0 1.1891-3e-3 1.785-3e-3h0.22273v-4.6e-4c0.71325 0 1.4265 3e-3 2.1372 5e-3 2e-4 -7.8e-4 6.9e-4 -2e-3 8.7e-4 -3e-3h0.19943c1e-5 6.9e-4 -3e-5 2e-3 0 3e-3 0.84815 3e-3 1.6963 8e-3 2.5419 0.0153 6.9e-4 1e-5 8.7e-4 0 2e-3 0 1.4265 8e-3 2.8482 0.0252 4.2597 0.0453l8.7e-4 -4.6e-4c2.1056 0.029 4.1876 0.0706 6.1952 0.11761l4.6e-4 8.6e-4c7.9375 0.20247 16.561 0.60097 23.652 1.1464 1.081 0.0838 2.1867 0.17698 3.1178 0.25899 1.7119 0.15751 3.4651 0.32789 4.944 0.48977 3.2946 0.40098 6.6978 0.8288 9.6008 1.3341 0.50118 0.0856 1.0199 0.18074 1.4529 0.26306 0.82723 0.16518 1.6777 0.33515 2.3953 0.49567 1.243 0.29281 2.522 0.60771 3.6009 0.92902 0.90607 0.28699 1.8398 0.59435 2.618 0.91108h8.7e-4c1.397 0.57083 2.4662 1.1869 3.1747 1.8504 1.3294 1.3119 1.5098 2.5538 1.5573 2.8242 0.13019 0 0.17747-0.57831 0.17747-1.4471l-5e-3 -13.903c0-1.6099-0.52607-2.1556-1.8881-2.1556-0.46318 0-0.92367 0.24783-1.5421 0.24783h-150.04c-0.61591-4e-5 -1.0767-0.24787-1.5398-0.24787z" opacity=".4" stroke-width="2.5037"/>
   <g stroke-width=".86722">
    <path d="m76.632 110.68c-0.12252 0-0.24014-5e-3 -0.35776-0.0172-0.11762-0.0123-0.20584-0.0245-0.26709-0.0392v-6.8072c0-0.17398 0.03921-0.3161 0.12007-0.42392 0.07841-0.11026 0.25973-0.16662 0.53908-0.16662h3.999c0.0147 0.0613 0.02695 0.14212 0.03431 0.24504 0.0074 0.10292 0.01225 0.20584 0.01225 0.31119 0 0.24259-0.04901 0.40431-0.14212 0.48518-0.09557 0.0784-0.21564 0.11762-0.35776 0.11762h-2.9331v2.1588h3.1022c0.03921 0.13722 0.05636 0.31366 0.05636 0.53418 0 0.22054-0.04656 0.37246-0.14212 0.46067-0.09311 0.0858-0.20584 0.12988-0.33326 0.12988h-2.6832v2.4774c0 0.15193-0.04656 0.27935-0.14212 0.37981-0.09311 0.10292-0.2622 0.15437-0.50478 0.15437"/>
    <path d="m82.604 107.58h2.1858l-1.0855-3.2957zm-1.5879 3.1022c-0.10537 0-0.22544-0.0122-0.35777-0.0343-0.13233-0.0221-0.23769-0.0564-0.3112-0.10293l2.5166-7.2605c0.14458-0.0367 0.28669-0.0637 0.42636-0.0784 0.13968-0.0147 0.27444-0.022 0.40431-0.022 0.18133 0 0.33079 0.0122 0.44842 0.0392 0.11762 0.0269 0.21564 0.0686 0.29404 0.12496 0.08086 0.0564 0.14703 0.12743 0.19848 0.21564 0.05391 0.0858 0.10292 0.19358 0.14948 0.32345l2.2765 6.6479c-0.09067 0.0367-0.19604 0.0711-0.31366 0.10047-0.11761 0.0319-0.22544 0.0466-0.32344 0.0466-0.17398 0-0.3259-0.0221-0.45332-0.0637-0.12988-0.0416-0.22544-0.14947-0.28424-0.32346l-0.54888-1.6247h-2.8989l-0.54154 1.6247c-0.05881 0.16663-0.14703 0.272-0.25974 0.31855-0.11517 0.0466-0.25484 0.0686-0.42146 0.0686"/>
    <path d="m88.118 110.67c-0.12988 0-0.24014-0.0123-0.3357-0.0392-0.09311-0.0269-0.17643-0.0564-0.24504-0.0858l0.75227-7.1919c0.10537-0.0466 0.24504-0.0809 0.41412-0.10782 0.16908-0.0269 0.3161-0.0392 0.43616-0.0392 0.33815 0 0.59789 0.049 0.77433 0.15193 0.17887 0.10292 0.2965 0.2818 0.35775 0.54154l1.2497 4.94 1.262-4.9082c0.0588-0.2573 0.18133-0.44107 0.36266-0.55624 0.18133-0.11272 0.43126-0.16908 0.74982-0.16908 0.14948 0 0.30629 0.01 0.46557 0.0343 0.15683 0.0221 0.28914 0.049 0.39696 0.0784l0.71061 7.2262c-0.07597 0.0294-0.16417 0.0588-0.2671 0.0858-0.1029 0.0269-0.21807 0.0392-0.34549 0.0392-0.17398 0-0.31855-0.0294-0.43127-0.0907-0.11517-0.0613-0.17887-0.17399-0.19358-0.34061l-0.48272-5.8417-1.387 5.1703c-0.06123 0.21319-0.16663 0.35775-0.31366 0.43861-0.14702 0.0784-0.33569 0.11763-0.56358 0.11763-0.11272 0-0.23279-7e-3 -0.35776-0.0221-0.12497-0.0147-0.22789-0.0368-0.31364-0.0686l-1.5633-5.6359-0.52928 5.8515c-0.01466 0.15927-0.08083 0.26955-0.19358 0.33079-0.11271 0.0613-0.24994 0.0907-0.40921 0.0907"/>
    <path d="m97.173 110.68c-0.12251 0-0.24014-5e-3 -0.35776-0.0172-0.11761-0.0123-0.20584-0.0245-0.26709-0.0392v-6.8856c0-0.15192 0.04657-0.27935 0.14212-0.37981 0.09311-0.10291 0.2622-0.15437 0.50478-0.15437 0.12252 0 0.24014 5e-3 0.35777 0.0172 0.11761 0.0123 0.20583 0.0245 0.26709 0.0392v6.8856c0 0.15193-0.04657 0.27936-0.14212 0.37981-0.09311 0.10293-0.2622 0.15438-0.50479 0.15438"/>
    <path d="m99.844 110.62c-0.27934 0-0.46067-0.0539-0.53908-0.16417-0.08082-0.11027-0.12007-0.2524-0.12007-0.42637v-6.2828c0-0.15193 0.04657-0.27935 0.14212-0.38226 0.09557-0.10047 0.26219-0.15193 0.50478-0.15193 0.12252 0 0.24014 5e-3 0.35776 0.0172 0.11761 0.01 0.20827 0.0245 0.26709 0.0392v6.1922h3.5114c0.0148 0.0833 0.0294 0.16908 0.0392 0.25485 0.0122 0.0882 0.0172 0.17642 0.0172 0.26709 0 0.24259-0.0514 0.40921-0.15191 0.49988-0.10292 0.0907-0.24504 0.13722-0.42638 0.13722z"/>
    <path d="m106.19 110.68c-0.12007 0-0.24015-5e-3 -0.35776-0.0172-0.11761-0.0123-0.20584-0.0245-0.26709-0.0392v-3.1366l-2.6808-4.1019c0.10536-0.0613 0.23034-0.10537 0.37491-0.13477 0.14212-0.0319 0.27199-0.0466 0.38471-0.0466 0.19849 0 0.36265 0.0245 0.49497 0.0735s0.24505 0.14703 0.33571 0.28915l1.7717 2.8523 1.7618-2.8401c0.0833-0.14458 0.18133-0.24259 0.29405-0.29651 0.11516-0.0515 0.26218-0.0784 0.44352-0.0784 0.10781 0 0.23278 0.0123 0.3749 0.0392 0.14458 0.0269 0.2622 0.071 0.35287 0.13232l-2.6366 4.0995v2.671c0 0.15193-0.0466 0.27935-0.14213 0.37981-0.0931 0.10293-0.26219 0.15438-0.50477 0.15438"/>
   </g>
  </g>
 </g>
</svg>
