<svg enable-background="new 0 0 1783.1 200.5" version="1.1" viewBox="0 0 1783.1 200.5" xml:space="preserve" xmlns="http://www.w3.org/2000/svg">
<style type="text/css">
	.st0{fill:#FFFFFF;}
	.st1{opacity:0.949;fill:#A9A9A9;enable-background:new    ;}
	.st2{fill:url(#j);}
	.st3{fill:url(#b);}
	.st4{fill:url(#a);}
	.st5{fill:url(#i);}
	.st6{fill:url(#h);}
	.st7{fill:url(#g);}
	.st8{fill:url(#f);}
	.st9{fill:url(#e);}
	.st10{fill:url(#d);}
	.st11{fill:url(#c);}
	.st12{fill:#A9A9A9;}
	.st13{fill:#9D0009;}
	.st14{opacity:0.2;fill:#FFFFFF;enable-background:new    ;}
</style>
		<path class="st0" d="m1768.1 195.5c6.9 0 10-3.4 10-10v-170.4c0-6.5-3.1-10-10-10l-779-0.1 0.1 190.5h778.9z"/>
		<path class="st1" d="m1768.1 5.1c6.9 0 10 3.5 10 10v170.4c0 6.6-3.1 10-10 10h-778.9v5h780.7c7.4 0 13.2-6.2 13.2-13.2v-173.9c0-7.3-6-13.4-13.4-13.4h-780.6v5l779 0.1z"/>
			<linearGradient id="j" x1="1543.7" x2="1543.7" y1="3485" y2="3368.1" gradientTransform="translate(0 -3325.6)" gradientUnits="userSpaceOnUse">
			<stop stop-color="#9D0009" stop-opacity="0" offset="0"/>
			<stop stop-color="#9D0009" stop-opacity=".14" offset=".068766"/>
			<stop stop-color="#9D0009" offset=".5"/>
			<stop stop-color="#9D0009" stop-opacity=".14" offset=".9312"/>
			<stop stop-color="#9D0009" stop-opacity="0" offset="1"/>
		</linearGradient>
		<rect class="st2" x="1541.5" y="42.5" width="4.3" height="117"/>
		<g transform="translate(121.74 4.6824)">
				<linearGradient id="b" x1="1250.3" x2="1250.3" y1="854.82" y2="949.39" gradientTransform="translate(243.48 -806)" gradientUnits="userSpaceOnUse">
				<stop stop-color="#AE0019" offset="0"/>
				<stop stop-color="#AA0016" offset=".3448"/>
				<stop stop-color="#9D000C" offset=".7015"/>
				<stop stop-color="#8D0000" offset="1"/>
			</linearGradient>
			<path class="st3" d="m1527.6 49.1c-0.9-0.3-1.8-0.3-2.7-0.3-2.4 0-4.2 0.6-5.5 1.5-1.2 0.9-1.8 2.4-1.8 4.2v35h-47.6v-39.2l-1.2-0.6c-0.6-0.3-1.5-0.6-2.4-0.6-0.9-0.3-1.8-0.3-2.7-0.3-2.4 0-4.2 0.6-5.5 1.5-1.2 0.9-1.8 2.4-1.8 4.2v87.4l1.2 0.6c0.6 0.3 1.5 0.6 2.4 0.6 0.9 0.3 1.8 0.3 2.7 0.3 2.4 0 4.2-0.6 5.5-1.5 1.2-0.9 1.8-2.4 1.8-4.2v-36.2h47.6v40.4l1.2 0.6c0.6 0.3 1.5 0.6 2.4 0.6 0.9 0.3 1.8 0.3 2.7 0.3 2.4 0 4.2-0.6 5.5-1.5 1.2-0.9 1.8-2.4 1.8-4.2v-87.4l-1.2-0.6c-0.2-0.3-1.1-0.6-2.4-0.6z"/>
				<linearGradient id="a" x1="1347.9" x2="1347.9" y1="855.85" y2="948.14" gradientTransform="translate(243.48 -806)" gradientUnits="userSpaceOnUse">
				<stop stop-color="#AE0019" offset="0"/>
				<stop stop-color="#AA0016" offset=".3448"/>
				<stop stop-color="#9D000C" offset=".7015"/>
				<stop stop-color="#8D0000" offset="1"/>
			</linearGradient>
			<path class="st4" d="m1626.8 76.7c-2.4-5.7-5.7-10.5-10.2-14.4s-10-6.9-16-9.1c-6-2.1-13.3-3.3-20.8-3.3h-21.1c-2.7 0-4.5 0.6-5.2 1.8-0.6 0.9-1.2 2.4-1.2 3.6v81.4c0 1.5 0.3 2.7 1.2 3.6 0.9 1.2 2.7 1.8 5.2 1.8h21.1c7.5 0 14.7-1.2 20.8-3.6 6.3-2.4 11.4-5.7 16-10.2 4.5-4.2 7.8-9.4 10.2-15.1s3.6-11.8 3.6-18.4c0.1-6-1.1-12.4-3.6-18.1zm-13.5 34.3c-1.8 4.5-4.5 8.1-7.8 10.8-3.3 3-7.2 5.2-11.4 6.6-4.5 1.5-9.1 2.4-13.9 2.4h-14.2v-68.6h14.2c4.8 0 9.7 0.9 14.2 2.4s8.1 3.6 11.4 6.6c3.3 2.7 6 6.3 7.8 10.5s3 9.1 3 14.2c-0.3 5.5-1.3 10.6-3.3 15.1z"/>
		</g>
			<linearGradient id="i" x1="603.92" x2="603.92" y1="255.47" y2="344.55" gradientTransform="translate(470.53 -195.75)" gradientUnits="userSpaceOnUse">
			<stop stop-color="#AE0019" offset="0"/>
			<stop stop-color="#AA0016" offset=".3448"/>
			<stop stop-color="#9D000C" offset=".7015"/>
			<stop stop-color="#8D0000" offset="1"/>
		</linearGradient>
		<path class="st5" d="m1111 92.5v54.5c-1.5 0.4-4 0.7-6.3 0.7-5 0-7.1-1.8-7.1-5.2v-6.5h-0.2c-6.5 6.7-16.4 12.7-30 12.7-19 0-29.5-12.6-29.5-26.3 0-20.3 21.8-29.8 59.3-27.2v-2.2c0-13.4-4.3-20.9-20.9-20.9-8.8 0-16.2 1.8-21.1 3.2-2.5 0.7-4.4 1.3-5.9 1.3-3.8 0-6.1-3.8-5.2-11 8-3.2 20.7-6.1 32.6-6.1 25.2 0.2 34.3 12.8 34.3 33m-13.6 29.6v-16.2c-24.4-1.1-45.5 1.7-45.5 16.8 0 7.5 6.5 14.1 17.4 14.1 11.1 0.2 21.5-5.9 28.1-14.7"/>
			<linearGradient id="h" x1="693.04" x2="693.04" y1="255.75" y2="343.76" gradientTransform="translate(470.53 -195.75)" gradientUnits="userSpaceOnUse">
			<stop stop-color="#AE0019" offset="0"/>
			<stop stop-color="#AA0016" offset=".3448"/>
			<stop stop-color="#9D000C" offset=".7015"/>
			<stop stop-color="#8D0000" offset="1"/>
		</linearGradient>
		<path class="st6" d="m1127.2 103.8c0-25.6 18.9-43.8 43.1-43.8 16.8 0 29.4 6.9 29.4 6.9 0.9 6.1-1.4 11-5.8 11-5.7 0-10.2-5.5-23.1-5.5-16 0-29.5 12.1-29.5 31.7 0 19.3 13.4 31.8 29.5 31.8 13.1 0 17.8-5.5 23.3-5.5 4.4 0 6.6 4.6 5.6 11 0 0-12.7 6.7-29.3 6.7-23.4-0.2-43.2-17.1-43.2-44.3z"/>
			<linearGradient id="g" x1="772.12" x2="772.12" y1="235.85" y2="344.55" gradientTransform="translate(470.53 -195.75)" gradientUnits="userSpaceOnUse">
			<stop stop-color="#AE0019" offset="0"/>
			<stop stop-color="#AA0016" offset=".3448"/>
			<stop stop-color="#9D000C" offset=".7015"/>
			<stop stop-color="#8D0000" offset="1"/>
		</linearGradient>
		<path class="st7" d="m1268.7 142.9c-7.5 3.6-16.2 5.9-24.9 5.9-17 0-27.4-10.1-27.4-26.7v-76.5c0-3.4 2-5.5 7.8-5.5 2.5 0 5.4 0.6 6.7 1.1v20.2h34.1c0.2 1.3 0.6 3.8 0.6 5.9 0 5.2-2 7-5.4 7h-29.4v46.6c0 10.1 4.8 14.7 14.5 14.7 8.6 0 13.8-3.6 17.9-3.6 4.2 0 6.4 3.7 5.5 10.9"/>
			<linearGradient id="f" x1="825.27" x2="825.27" y1="225.55" y2="342.63" gradientTransform="translate(470.53 -195.75)" gradientUnits="userSpaceOnUse">
			<stop stop-color="#AE0019" offset="0"/>
			<stop stop-color="#AA0016" offset=".3448"/>
			<stop stop-color="#9D000C" offset=".7015"/>
			<stop stop-color="#8D0000" offset="1"/>
		</linearGradient>
		<path class="st8" d="m1288.7 146.1c9.9 2.2 13.9-0.5 13.9-4.9v-79.2c-10.2-2.1-13.9 0.1-13.9 4.5v79.6zm16.1-107.3c0 5-4 9-9 9s-9-4-9-9 4-9 9-9c4.9 0 9 4 9 9"/>
			<linearGradient id="e" x1="895.52" x2="895.52" y1="255.25" y2="344.45" gradientTransform="translate(470.53 -195.75)" gradientUnits="userSpaceOnUse">
			<stop stop-color="#AE0019" offset="0"/>
			<stop stop-color="#AA0016" offset=".3448"/>
			<stop stop-color="#9D000C" offset=".7015"/>
			<stop stop-color="#8D0000" offset="1"/>
		</linearGradient>
		<path class="st9" d="m1321.9 103.9c0-25.5 18.8-44.4 44.1-44.4 25.5 0 44.2 19 44.2 44.4s-18.8 44.8-44.2 44.8c-25.3 0-44.1-19.4-44.1-44.8m73.4 0c0-19.6-13.3-31.5-29.5-31.5-16 0-29.3 12-29.3 31.5 0 19.6 13.2 31.7 29.3 31.7 16.3 0.1 29.5-12.2 29.5-31.7"/>
			<linearGradient id="d" x1="991.77" x2="991.77" y1="255.66" y2="342.62" gradientTransform="translate(470.53 -195.75)" gradientUnits="userSpaceOnUse">
			<stop stop-color="#AE0019" offset="0"/>
			<stop stop-color="#AA0016" offset=".3448"/>
			<stop stop-color="#9D000C" offset=".7015"/>
			<stop stop-color="#8D0000" offset="1"/>
		</linearGradient>
		<path class="st10" d="m1425.4 146.1v-84.1c7.8-1.7 13.8-1.1 13.8 4.5v6.9s9.6-13.4 28.3-13.4c17.9 0 31.7 12.1 31.7 34.8v47.2c0 5.9-7.7 5.4-13.7 4.2v-49.7c0-13.8-7.9-24.4-21-24.4-15.6 0-25.2 14.9-25.2 14.9v54.4c-0.1 4.5-4 6.7-13.9 4.7z"/>
				<linearGradient id="c" x1="194.32" x2="194.32" y1="-4386.8" y2="-4587" gradientTransform="matrix(1 0 0 -1 470.53 -4386.8)" gradientUnits="userSpaceOnUse">
				<stop stop-color="#AE0019" offset="0"/>
				<stop stop-color="#AA0016" offset=".3448"/>
				<stop stop-color="#9D000C" offset=".7015"/>
				<stop stop-color="#8D0000" offset="1"/>
			</linearGradient>
			<path class="st11" d="M333.7,0H996v200.3H333.7V0z"/>
				<path class="st0" d="m373.2 100.1c0-28.3 20.9-48.3 47.6-48.3 18.6 0 32.4 7.6 32.4 7.6 1 6.7-1.5 12.1-6.4 12.1-6.3 0-11.3-6.1-25.5-6.1-17.6 0-32.6 13.4-32.6 35 0 21.3 14.8 35.1 32.6 35.1 14.5 0 19.7-6.1 25.7-6.1 4.9 0 7.2 5.1 6.2 12.1 0 0-14.1 7.3-32.3 7.3-25.9 0-47.7-18.7-47.7-48.7z"/>
				<path class="st0" d="m474.6 146.8c10.9 2.4 15.4-0.5 15.4-5.4v-87.5c-11.3-2.3-15.4 0.1-15.4 5v87.9zm17.7-118.6c0 5.5-4.4 9.9-9.9 9.9s-9.9-4.4-9.9-9.9 4.4-9.9 9.9-9.9 9.9 4.4 9.9 9.9"/>
				<path class="st0" d="m514.8 146.8v-92.9c8.6-1.8 15.2-1.2 15.2 5v7.6s10.6-14.8 31.2-14.8c19.8 0 35 13.4 35 38.4v52.1c0 6.5-8.5 5.9-15.1 4.6v-54.7c0-15.3-8.8-26.9-23.3-26.9-17.2 0-27.8 16.4-27.8 16.4v60.1c0.1 4.9-4.2 7.3-15.2 5.1z"/>
				<path class="st0" d="m659.2 65.2c25.5 0 27.5 25.9 27.5 28.6h-58.1s3.7-28.6 30.6-28.6zm0.3-13.5c-27.9 0-46.7 22.1-46.7 48.1 0 28.4 18.8 48.8 48.8 48.8 19.8 0 34.3-7.7 34.3-7.7 1.1-7.5-1.5-12.1-5.9-12.1-5.1 0-12.9 5.9-27.6 5.9-31.8 0-33.8-28.2-33.8-28.2h72.5c4.2-25.4-8.7-54.8-41.6-54.8z"/>
				<path class="st0" d="m721.1 146.6v-92.7c8.5-2 14.9-1.3 14.9 5.4v6.4s9.4-14 27-14c12.5 0 22.9 7.7 26.6 17 5-7.3 13.8-17 30.3-17 18.4 0 30.5 13.7 30.5 34v55.8c0 5.5-4.3 7.1-15.3 5.3v-60.2c0-10.8-5.4-21.3-18.8-21.3-15.2 0-23 14.8-23 14.8v61.7c0 4.3-3.1 7.2-15.3 4.9v-61.4c0-10.1-5.9-20-18.8-20-15.4 0-23 15.2-23 15.2v61.3c-0.1 5.6-5.6 7-15.1 4.8z"/>
				<path class="st0" d="m923.2 101.9c3 0 6.1 0.1 9.5 0.3v17.8s-10.8 16-30.6 16c-11.1 0-19.5-6.7-19.5-16 0-11.3 11.9-18.2 40.6-18.1zm-13-50.2c-19.4 0-36 6.6-36 6.6-1.2 6.2 0.6 12.3 5.7 12.3 4.8 0 15.2-5.5 29.9-5.5 19 0 22.9 10.7 22.9 21.1v4.4s-5.6-0.4-12.9-0.4c-36.7 0-52.7 11.8-52.7 30.4 0 12.9 9.4 28.2 32.8 28.2 21.6 0 32.9-14.5 32.9-14.5v6.8c0 6.2 4.9 7.8 15.2 5.8v-62.4c-0.1-15.8-7.8-32.8-37.8-32.8z"/>
			<path class="st0" d="M15,5.1c-6.9,0-10,3.4-10,10v170.3c0,6.5,3.1,10,10,10l318.4,0.1L333.3,5.1H15z"/>
			<path class="st12" d="m15 195.4c-6.9 0-10-3.5-10-10v-170.3c0-6.6 3.1-10 10-10h318.3v-5h-320.1c-7.4 0-13.2 6.2-13.2 13.2v173.8c0 7.3 6 13.4 13.4 13.4h320v-5l-318.4-0.1z"/>
			<path class="st13" d="m225.4 178.2c2.2 1.2 6.5 2.5 12.2 2.5 9.5 0.2 14.7-3.5 18.5-12l51.1-113.8c-2.2-1.2-6.8-2.3-10.5-2.5-6.5-0.2-15.4 1.2-21 14.7l-16.6 39-32.6-52.6c-2.2-0.7-7.2-1.5-11-1.5-11.4 0-17.9 4.2-24.5 11.4l-31.4 34.4 25.4 39.9c4.7 7.3 10.9 11 20.9 11 6.5 0 12-1.5 14.5-2.7l-30.5-46.1 21.6-22.8 35.6 55.8-21.7 45.3zm-67-43.1c0 8.3-3.3 13.2-19.7 13.2-2.2 0-4-0.2-5.8-0.5v-111.1c0-8.5 2.8-17.2 19.4-17.2 2 0 4.2 0.2 6.2 0.7l-0.1 114.9zm-33.9-16.6c0 15.7-10.2 27-31 29.4-15 1.7-36.9-0.3-47.2-1.5-0.3-1.7-0.7-3.8-0.7-5.5 0-13.7 7.3-16.9 14.4-16.9 7.2 0 18.5 1.2 27 1.2 9.3 0 12-3.2 12-6.2 0-4-3.7-5.5-11-7l-19.5-3.5c-16.4-3.2-25-14.5-25-26.5 0-14.7 10.3-26.9 30.7-29.2 15.4-1.7 34.2 0.2 44.4 1.5 0.3 1.8 0.5 3.5 0.5 5.3 0 13.7-7.2 16.5-14.2 16.5-5.3 0-13.5-1-23-1-9.7 0-13.5 2.7-13.5 5.8 0 3.3 3.8 4.8 9.8 5.8l18.8 3.5c19.3 3.7 27.5 14.7 27.5 28.3"/>
		<path class="st14" d="M996,0H13.4C6.1,0,0.1,6,0.1,13.4v121c0-10.7,8.5-19.6,19.2-19.9L996,76.2V0z"/>
</svg>
