<svg width="2709.9" height="500" enable-background="new 0 0 2362.9 500" version="1.1" viewBox="0 0 2709.9 500" xml:space="preserve" xmlns="http://www.w3.org/2000/svg" xmlns:xlink="http://www.w3.org/1999/xlink">
		<g transform="translate(356.96 .0020142)"><path d="m2329.6 0c12.9 0 23.3 10.94 23.3 24.276v451.45c0 13.336-10.5 24.276-23.3 24.276h-607.9c-12.9 0-23.3-10.94-23.3-24.276v-451.34c0-13.44 10.5-24.276 23.3-24.276h607.9" fill="#fff" stroke-width="1.0207"/><g fill="#172935"><path d="m2034.6 153.8v184.7c0 8.1-4.1 12.6-16.7 12.6-5.7 0-11-0.8-15.1-1.6v-85h-105.4v74.1c0 8.1-4.1 12.6-16.7 12.6-6.1 0-12.2-0.8-15.1-1.6v-184.8c0-7.8 4.1-12.6 17.1-12.6 5.7 0 11.3 0.8 14.6 1.6v82.2h104.9v-71.2c0-7.8 4.5-12.6 17.5-12.6 6 0 11.6 0.8 14.9 1.6"/><path d="m2250.8 251.4c0 55.4-38.7 97.3-99.3 97.3h-56.5c-12.2 0-16.7-4.9-16.7-12.6v-168.9c0-7.7 4.5-12.6 16.7-12.6h56.5c60.6 0 99.3 41.5 99.3 96.8m-32.2 0c0-41.5-26-68.4-67.1-68.4h-41.5v137.1h41.5c41.1 0.1 67.1-26.8 67.1-68.7"/></g></g>
				<defs>
				<linearGradient id="SVGID_14_" x1="-327.09" x2="-314.48" y1="726.53" y2="726.53" gradientTransform="matrix(-.345 -9.8782 -9.8782 .345 7794.5 -3364.8)" gradientUnits="userSpaceOnUse"><stop stop-color="#fff" offset="0"/><stop stop-color="#fff" offset="1"/></linearGradient><mask id="SVGID_10_" x="394.5" y="-23" width="668.5" height="183" maskUnits="userSpaceOnUse"><g filter="url(#Adobe_OpacityMaskFilter_1_)"><defs><rect id="SVGID_11_" transform="matrix(.9994 -.034918 .034918 .9994 -1.9472 25.488)" x="397.1" y="-11.5" width="663.3" height="159.9"/></defs><clipPath id="SVGID_12_" clip-path="url(#SVGID_9_)"><use width="100%" height="100%" overflow="visible" xlink:href="#SVGID_11_"/></clipPath><linearGradient id="SVGID_13_" x1="-327.09" x2="-314.48" y1="726.53" y2="726.53" gradientTransform="matrix(-.345 -9.8782 -9.8782 .345 7794.5 -3364.8)" gradientUnits="userSpaceOnUse"><stop stop-color="#fff" offset="0"/><stop stop-color="#D5D5D5" offset=".1203"/><stop stop-color="#A8A8A8" offset=".2693"/><stop stop-color="#828282" offset=".4195"/><stop stop-color="#656565" offset=".5684"/><stop stop-color="#505050" offset=".7156"/><stop stop-color="#444" offset=".8603"/><stop stop-color="#404040" offset="1"/></linearGradient><polygon points="388.1 -22.8 1062.2 -46.3 1069.4 159.7 395.3 183.3" clip-path="url(#SVGID_12_)" fill="url(#SVGID_13_)"/></g></mask><filter id="Adobe_OpacityMaskFilter_1_" x="394.5" y="-23" width="668.5" height="183" filterUnits="userSpaceOnUse"><feColorMatrix values="1 0 0 0 0  0 1 0 0 0  0 0 1 0 0  0 0 0 1 0"/></filter><linearGradient id="SVGID_7_" x1="-327.01" x2="-314.41" y1="798.34" y2="798.34" gradientTransform="matrix(-.232 -6.6434 -6.6434 .232 5410.4 -2226.1)" gradientUnits="userSpaceOnUse"><stop stop-color="#fff" offset="0"/><stop stop-color="#fff" offset="1"/></linearGradient><mask id="SVGID_3_" x="-4.9" y="1.8" width="371.6" height="165.2" maskUnits="userSpaceOnUse"><g filter="url(#Adobe_OpacityMaskFilter)"><defs><rect id="SVGID_4_" transform="matrix(.9994 -.034866 .034866 .9994 -2.8337 6.3598)" x="-2.3" y="8.2" width="366.5" height="152.5"/></defs><clipPath id="SVGID_5_" clip-path="url(#SVGID_2_)"><use width="100%" height="100%" overflow="visible" xlink:href="#SVGID_4_"/></clipPath><linearGradient id="SVGID_6_" x1="-327.01" x2="-314.41" y1="798.34" y2="798.34" gradientTransform="matrix(-.232 -6.6434 -6.6434 .232 5410.4 -2226.1)" gradientUnits="userSpaceOnUse"><stop stop-color="#fff" offset="0"/><stop stop-color="#D5D5D5" offset=".1203"/><stop stop-color="#A8A8A8" offset=".2693"/><stop stop-color="#828282" offset=".4195"/><stop stop-color="#656565" offset=".5684"/><stop stop-color="#505050" offset=".7156"/><stop stop-color="#444" offset=".8603"/><stop stop-color="#404040" offset="1"/></linearGradient><polygon points="-10.6 2 366.3 -11.2 372.5 166.8 -4.4 180" clip-path="url(#SVGID_5_)" fill="url(#SVGID_6_)"/></g></mask><filter id="Adobe_OpacityMaskFilter" x="-4.9" y="1.8" width="371.6" height="165.2" filterUnits="userSpaceOnUse"><feColorMatrix values="1 0 0 0 0  0 1 0 0 0  0 0 1 0 0  0 0 0 1 0"/></filter></defs>
<g transform="translate(-206.8 816.59)"><path d="m2289-816.59h-1250.7c-18.393 0-33.387 14.994-33.387 33.387v433.23c0 18.393 14.994 33.387 33.387 33.387h1250.7c18.393 0 33.387-14.994 33.387-33.387v-433.23c0-18.393-14.994-33.387-33.387-33.387" fill="#ffed00" stroke-width="1.9992"/><path d="m706.2-352.77c5.9976 2.9988 17.993 6.7973 33.187 7.1971 26.19 0.59976 40.384-9.3962 50.98-32.787l139.94-311.68c-5.7977-2.9988-18.593-6.5974-28.988-6.7973-17.993-0.39984-42.183 3.1987-57.577 39.984l-45.382 106.76-88.964-144.54c-5.7977-1.7993-19.792-4.1983-29.988-4.1983-31.587 0-48.98 11.395-67.173 31.188l-86.365 94.362 69.572 109.16c12.795 19.992 29.788 30.188 57.177 30.188 17.993 0 32.987-4.1983 39.984-7.397l-83.766-125.95 59.376-62.775 97.361 152.54zm-183.73-117.95c0 22.991-8.9964 36.186-53.978 36.186-5.9976 0-11.196-0.39984-16.194-1.1995v-304.68c0-23.191 7.7969-47.381 53.179-47.381 5.7977 0 11.595 0.59976 16.993 1.7993zm-92.763-45.982c0 42.983-27.989 74.17-85.166 80.368-41.184 4.3982-100.96-0.79968-129.35-3.9984-0.9996-4.5982-1.7993-10.396-1.7993-14.994 0-37.385 20.192-45.982 39.184-45.982 19.792 0 50.78 3.3986 73.97 3.3986 25.59 0 33.187-8.5966 33.187-16.793 0-10.796-10.196-15.194-29.988-18.992l-54.178-10.396c-44.782-8.5966-68.772-39.584-68.772-72.571 0-40.184 28.389-73.571 84.366-79.768 42.183-4.5982 93.762 0.59976 121.95 3.9984 0.9996 4.7981 1.5994 9.3962 1.5994 14.394-0.19992 37.385-19.992 45.382-38.984 45.382-14.594 0-37.185-2.599-63.175-2.599-26.389 0-37.185 7.397-37.185 16.194 0 9.3962 10.396 13.195 26.789 16.194l51.579 9.5962c53.179 9.5962 75.97 39.584 75.97 76.569" fill="#ffed00" stroke-width="1.9992"/><path transform="matrix(1.9992 0 0 1.9992 206.8 -816.59)" d="m149.3 14.4c-22.5 0-26.5 12.099-26.5 23.699v104.5c0-4.2 3.1996-8.5988 8.5996-8.7988 3.8-0.1 14.4-0.50156 17.5-0.60156 3.5-0.1 8.8004-2.4984 8.9004-8.8984v-109c-2.7-0.6-5.6-0.90039-8.5-0.90039zm87.1 44.5c-15.8 0-24.5 5.7992-33.6 15.699l-43.201 47.201 3.5 5.3984c1.5 2 4.4012 5.4012 10.201 5.2012 2-0.1 22.9-0.80039 24.6-0.90039 5.4-0.2 8.8004 2.1004 10.9 4.9004l-7.7012-11.6 29.701-31.4 20 31.199c3.6 4.7 8.9992 4.8008 10.199 4.8008 1 0 27.201-0.9 28.301-1 1.8-0.1 3.9 0.89922 5.5 3.1992l-43.4-70.6c-2.9-0.9-9.9-2.0996-15-2.0996zm-175.6 0.099609c-6.3 0.2-12.702 0.39961-18.602 1.0996-28 3-42.199 19.8-42.199 39.9 0 10.3 4.6996 20.199 13.6 27.199 6.8 4.5 13.801 6.2004 20.801 7.4004 5.7 1 19 1.9 28.9 1.5 3.1-0.1 25.899-0.89961 30.799-1.0996 11.337-0.39094 17.499 9.058 17.213 18.729 0.0954-1.2428 0.1875-2.4858 0.1875-3.7285 0-18.5-11.4-33.6-37.9-38.5l-25.799-4.8008c-8.3-1.5-13.5-3.3996-13.5-8.0996 0-4.4 5.4996-8.0996 18.6-8.0996 13 0 24.3 1.3008 31.6 1.3008 9.5 0 19.4-4.0012 19.4-22.701 0-2.5-0.30078-4.7992-0.80078-7.1992-10.1-1.2-26.199-2.9004-42.299-2.9004zm50.512 94.729c-4e-3 0.0573-7e-3 0.11462-0.0117 0.17187v0.5c0.0136-0.22429 5e-3 -0.44771 0.0117-0.67187zm234.89-93.928c-8.9 0.1-20.299 2.4996-27.699 20.1l-22.1 52.1c0.1-0.1 1.3992-4.0992 5.6992-4.1992 0 0 21.8-0.80078 23.4-0.80078 7.1-0.3 9.8992-5.0992 10.699-6.6992l25.602-57.102c-2.9-1.5-9.3-3.2984-14.5-3.3984z" fill="url(#SVGID_7_)" mask="url(#SVGID_3_)" opacity=".36"/><g transform="matrix(1.9992 0 0 1.9992 206.8 -816.59)" fill="#172935"><path d="m446.2 126.4c0-35.1 25.8-61.1 59.9-61.1 16 0 30.7 4.4 41 9.3 1.7 11-1.7 15.5-6.6 15.5-8.6 0-16-7.1-33.6-7.1-22.1 0-40.3 16.4-40.3 43.4 0 26.7 18.2 43.4 40.3 43.4 17.7 0 25-7.4 32.9-7.4 5.2 0 8.8 4.7 7.4 15.7-10.3 5.2-25 9.6-41 9.6-34.2 0-60-26.5-60-61.3"/><path d="m642.3 76.3c0 8.1-3.4 9.8-11.8 9.8-16.9 0-31.2 7.9-40 26.3v66.5c0 4.9-2.7 7.6-10.8 7.6-3.4 0-7.4-0.5-9.3-1v-118c2-0.5 5.9-1 9.3-1 8.1 0 10.8 2.9 10.8 7.6v16.4c11.5-17.4 28.9-26.3 50.8-23.3 0.3 1.7 1 5.4 1 9.1"/><path d="m657 40.7c0-7.4 5.9-12.8 12.8-12.8 7.4 0 13 5.4 13 12.8 0 6.6-5.6 12.8-13 12.8-6.9 0-12.8-6.1-12.8-12.8m2.7 144.8v-111.4c0-4.7 2.7-7.6 10.8-7.6 3.4 0 7.1 0.5 9.1 1v111.4c0 4.9-2.4 7.6-10.5 7.6-3.5 0-7.4-0.5-9.4-1"/><path d="m875.2 108v70.9c0 4.9-2.7 7.6-10.8 7.6-3.4 0-7.4-0.5-9.3-1v-75.1c0-17.2-8.1-27.2-23.6-27.2-13 0-23.8 9.1-28.2 18.4v77.3c0 4.9-2.7 7.6-10.8 7.6-3.4 0-7.4-0.5-9.3-1v-75.1c0-17.2-8.1-27.2-23.6-27.2-13 0-23.8 9.1-28.2 18.4v77.3c0 4.9-2.7 7.6-10.8 7.6-3.4 0-7.4-0.5-9.3-1v-118c2-0.5 5.9-1 9.6-1 7.6 0 10.3 2.9 10.3 8.1v8.1c7.6-10.1 19.4-17.4 33.6-17.4 15.7 0 28 7.9 34.1 21.3 8.1-12.3 20.4-21.3 37.8-21.3 25.3 0 38.5 18.9 38.5 42.7"/><path d="m1011.5 133.7h-91.3c2.7 22.8 18.4 35.6 41.7 35.6 10.1 0 17.9-2 25.3-4.4 5.2-1.7 7.4-2.5 9.3-2.5 5.6 0 9.3 4.7 8.3 15.5-10.6 4.7-26.8 9.8-43.7 9.8-36.8 0-61.6-24.8-61.6-61.6 0-35.3 26.3-60.9 58.4-60.9 36.3 0 54.2 28.2 54.2 56.7 0.2 3.5-0.1 7.7-0.6 11.8m-91.2-15.7h72.4c-0.7-20.1-13.7-35.8-34.6-35.8-18.2 0-34.7 12.5-37.8 35.8"/></g><path transform="matrix(1.9992 0 0 1.9992 206.8 -816.59)" d="m415.9 0c-9.2 0-16.701 7.4992-16.701 16.699v117.61l0.0547 1.5801c0.29272-3.0959 2.0735-10.912 11.945-11.785 0 0 0.50156 3.9e-4 1.6016-0.0996 49.3-1.7 632.9-22.1 632.9-22.1 6.3-0.2 12.5-4.9012 12.5-12.701v-72.5c0-9.2-7.4992-16.699-16.699-16.699z" fill="url(#SVGID_14_)" mask="url(#SVGID_10_)" opacity=".4"/></g></svg>
