<svg enable-background="new 0 0 3690.3 500" version="1.1" viewBox="0 0 2459.8 908.88" xml:space="preserve" xmlns="http://www.w3.org/2000/svg">
<g transform="translate(-.039 -.04)">
	
		
		
		
		
		
		
		
		
	
	<g transform="translate(-15.061,-164.86)">
		<path d="m238.3 464.7c0 43-28 74.2-85.2 80.4-41.2 4.4-101-0.8-129.4-4-1-4.6-1.8-10.4-1.8-15 0-37.4 20.2-46 39.2-46 19.8 0 51 3.4 74 3.4 25.6 0 33.2-8.6 33.2-16.8 0-10.8-10.2-15.2-30-19l-54.2-10.4c-45-8.6-69-39.6-69-72.6 0-40 28.4-73.6 84.4-79.8 42.2-4.6 93.8 0.6 122 4 1 4.8 1.6 9.4 1.6 14.4 0 37.4-19.8 45.4-38.8 45.4-14.6 0-37.2-2.6-63.2-2.6-26.4 0-37.2 7.2-37.2 16 0 9.4 10.4 13.2 26.8 16.2l51.6 9.6c53.2 9.6 76 39.8 76 76.8m92.6 46c0 23-9 36.2-54 36.2-6 0-11.2-0.4-16.2-1.2v-304.8c0-23.2 7.8-47.4 53.2-47.4 5.8 0 11.6 0.6 17 1.8zm183.8 118c6 3 18 6.8 33.2 7 26.2 0.6 40.4-9.4 51-32.8l140-311.6c-5.8-3-18.6-6.6-29-6.8-18-0.4-42.2 3.2-57.6 40l-45.6 106.6-89-144.6c-5.8-1.8-19.8-4.2-30-4.2-31.6 0-49 11.6-67.2 31.2l-86.4 94.4 69.6 109.4c12.8 20 29.8 30.2 57.2 30.2 18 0 33-4.2 40-7.4l-83.8-126 59.4-63 97.4 152.6z" fill="#ff0031"/>
		
			<linearGradient id="b" x1="48.487" x2="270" y1="-677.75" y2="-677.75" gradientTransform="matrix(7.5001,0,0,7.5001,449.8,5498.1)" gradientUnits="userSpaceOnUse">
			<stop stop-color="#FF0031" offset="0"/>
			<stop stop-color="#9B001F" offset="1"/>
		</linearGradient>
		<path d="m2441.7 164.9h-1594.8c-18.4 0-33.4 15-33.4 33.4v433.2c0 18.4 15 33.4 33.4 33.4h1594.6c18.4 0 33.4-15 33.4-33.4v-433.4c-0.2-18.4-14.8-33.2-33.2-33.2" fill="url(#b)"/>
		
			<linearGradient id="c" x1="27.859" x2="32.301" y1="-1298.5" y2="-1298.5" gradientTransform="matrix(-1.3157,-37.678,37.678,-1.3157,49342,-231.2)" gradientUnits="userSpaceOnUse">
			<stop stop-color="#fff" offset="0"/>
			<stop stop-color="#fff" stop-opacity=".4" offset=".5"/>
			<stop stop-color="#fff" stop-opacity=".25" offset="1"/>
		</linearGradient>
		<path d="m260.9 240.9v209c0-8.4 6.4-17.2 17.2-17.6 7.6-0.2 28.8-1 35.2-1.2 7-0.2 17.6-5 17.8-17.8v-218c-5.4-1.2-11.2-1.8-17-1.8-45.4 0.2-53.2 24.2-53.2 47.4m160 72.8-86.4 94.4 7 10.8c3 4 8.8 10.8 20.4 10.4 4.2-0.2 45.8-1.6 49.2-1.8 10.8-0.4 17.6 4.2 21.8 9.8l-15.4-23.2 59.4-63 39.8 62.6c7.2 9.4 18 9.6 20.4 9.6 2 0 54.4-1.8 56.6-2 3.6-0.2 7.8 1.8 11 6.4l-86.6-140.8c-5.8-1.8-19.8-4.2-30-4.2-31.6-0.2-49 11.2-67.2 31m-321.4-29c-56 6.2-84.4 39.6-84.4 79.8 0 20.6 9.4 40.4 27.4 54.6 13.6 9 27.6 12.4 41.4 14.8 11.4 2 38 3.8 57.8 3 6.2-0.2 51.8-1.8 61.6-2.2 23.2-0.8 35.6 19 34.4 38.8v-1c0.2-2.6 0.4-5.2 0.4-7.8 0-37-22.8-67.2-75.8-77l-51.6-9.6c-16.6-2.8-26.8-6.8-26.8-16.2 0-8.8 11-16.2 37.2-16.2 26 0 48.6 2.6 63.2 2.6 19 0 38.8-8 38.8-45.4 0-5-0.6-9.6-1.6-14.4-20.2-2.4-52.6-5.8-84.8-5.8-12.6 0.2-25.2 0.8-37.2 2m552.6 39.8-44.2 104.2c0-0.2 2.8-8.2 11.4-8.6 0 0 43.6-1.6 46.8-1.6 14.2-0.6 19.8-10.2 21.4-13.4l51.2-114.2c-5.8-3-18.6-6.6-29-6.8h-2.2c-17.8 0.2-40.6 5-55.4 40.4" enable-background="new    " fill="url(#c)" opacity=".3"/>
		
			<linearGradient id="a" x1="45.702" x2="50.145" y1="-1282.4" y2="-1282.4" gradientTransform="matrix(-1.9565,-56.026,56.026,-1.9565,73584,443.87)" gradientUnits="userSpaceOnUse">
			<stop stop-color="#fff" offset="0"/>
			<stop stop-color="#fff" stop-opacity=".4" offset=".5"/>
			<stop stop-color="#fff" stop-opacity=".25" offset="1"/>
		</linearGradient>
		<path d="m846.9 164.9c-18.4 0-33.4 15-33.4 33.4v240.6-0.2c0-3.6 1.4-23.4 24-25.6 0 0 1.2-0.2 3.2-0.2 98.6-3.4 1609.4-56.4 1609.4-56.4 12.6-0.4 24.8-9.8 24.8-25.4v-132.6c0-18.4-15-33.4-33.4-33.4z" enable-background="new    " fill="url(#a)" opacity=".3" Googl="true"/>
		<g fill="#fff">
			<path d="m907.7 417.6c0-70.2 51.5-122.2 119.7-122.2 31.9 0 61.4 8.8 82 18.6 3.4 22.1-3.5 30.9-13.3 30.9-17.2 0-31.9-14.2-67.2-14.2-44.2 0-80.5 32.9-80.5 86.9 0 53.5 36.3 86.9 80.5 86.9 35.3 0 50.1-14.7 65.8-14.7 10.3 0 17.6 9.3 14.7 31.4-20.6 10.3-50.1 19.1-82 19.1-68.2 0-119.7-53-119.7-122.7"/>
			<path d="m2116.2 380.8v141.9c0 9.8-5.4 15.2-21.6 15.2-6.9 0-14.7-1-18.6-2v-150.2c0-34.4-16.2-54.5-47.1-54.5-26 0-47.6 18.1-56.4 36.8v154.6c0 9.8-5.4 15.2-21.6 15.2-6.9 0-14.7-1-18.6-2v-150.1c0-34.4-16.2-54.5-47.1-54.5-26 0-47.6 18.1-56.4 36.8v154.6c0 9.8-5.4 15.2-21.6 15.2-6.8 0-14.7-1-18.6-2v-236c3.9-1 11.8-2 19.1-2 15.2 0 20.6 5.9 20.6 16.2v16.2c15.2-20.1 38.8-34.9 67.3-34.9 31.4 0 55.9 15.7 68.2 42.7 16.2-24.5 40.7-42.7 75.6-42.7 50.3 0.1 76.8 37.9 76.8 85.5"/>
			<path d="m1736.8 432.3h-182.6c5.4 45.7 36.8 71.2 83.4 71.2 20.1 0 35.8-4 50.6-8.8 10.3-3.5 14.7-4.9 18.6-4.9 11.3 0 18.6 9.3 16.7 30.9-21.1 9.3-53.5 19.6-87.4 19.6-73.6 0-123.2-49.5-123.2-123.2 0-70.7 52.6-121.7 116.8-121.7 72.7 0 108.5 56.4 108.5 113.4 0.1 6.9-0.4 15.2-1.4 23.5m-182.6-31.4h144.8c-1.5-40.2-27.5-71.7-69.2-71.7-36.3 0.1-69.2 25.1-75.6 71.7"/>
			<path d="m1465.2 395.5v127.1c0 9.3-5.4 15.2-21.6 15.2-6.8 0-14.7-1-18.6-2v-135c0-47.1-23.1-69.7-57.9-69.7-27 0-56.4 18.7-68.2 40.7v150.7c0 9.3-5.4 15.2-21.6 15.2-6.9 0-14.7-1-18.6-2v-235.9c3.9-1 11.8-2 18.6-2 16.2 0 21.6 5.9 21.6 15.2v20.1c17.2-21.1 43.2-37.8 78-37.8 48.1 0.1 88.3 30.5 88.3 100.2"/>
			<path d="m2367.1 384.7v151.2c-3.9 1-11.3 2-18.1 2-14.7 0-21.6-5.4-21.6-15.2v-20.7c-21.1 24.1-48.6 38.3-83.5 38.3-52.5 0-81.5-34.3-81.5-71.7 0-56.9 60.9-82 164.4-75.1v-8.3c0-38.8-11.8-55-56.4-55-18.6 0-43.7 5.4-56.9 8.8-7.9 2-13.8 3.9-18.6 3.9-11.3 0-18.7-9.8-14.8-30.4 24.1-8.8 58.9-17.2 92.3-17.2 69.2 0.1 94.7 31 94.7 89.4m-40.2 82.5v-44.7c-67.7-4.9-124.2 3.9-124.2 44.7 0 20.6 17.2 39.2 48.1 39.2 31.4 0 58.9-15.6 76.1-39.2"/>
			<path d="m1149.5 246.3c0-14.7 11.8-25.5 25.5-25.5 14.8 0 26 10.8 26 25.5 0 13.3-11.3 25.5-26 25.5-13.7 0-25.5-12.2-25.5-25.5m5.4 289.6v-222.8c0-9.3 5.4-15.2 21.6-15.2 6.9 0 14.2 1 18.1 2v222.8c0 9.8-4.9 15.2-21.1 15.2-6.8 0-14.6-1-18.6-2"/>
		</g>
	</g>
</g>
<g transform="matrix(1.7014 0 0 1.7014 380.31 539.59)"><path d="m506.35 23.6c7.06-2.48 15.59-0.13 19.86 6.16 4.34 6.04 4.17 15.1-0.74 20.77-3.93 4.85-10.61 7.1-16.69 5.8-8.31-1.49-14.58-10.04-13.42-18.43 0.47-6.39 5.06-12.07 10.99-14.3z"/><path d="m256.41 27.67c6.68-0.95 13.46-0.04 20.09 0.96-0.02 23.89 0.06 47.78-0.04 71.67 7.86-9.9 18.74-18.02 31.36-20.4 14.63-2.66 31.07-0.33 42.47 9.87 12.17 10.7 16.69 27.52 16.93 43.22 0.06 23.35 0.03 46.7 0.02 70.05 0.14 4.9-2.51 10.27-7.51 11.66-7.4 2.07-15.23 0.8-22.7-0.23-0.08-26.15 0.01-52.31-0.04-78.46-0.28-7.98-1.94-16.48-7.32-22.68-4.84-5.64-12.34-8.35-19.62-8.59-12.08-0.73-24.4 4.93-31.6 14.67-0.92 1.37-2.12 2.78-1.96 4.55 0 26.33 0.04 52.67-0.01 79 0.08 4.93-2.44 10.51-7.58 11.83-7.41 1.91-15.19 0.72-22.65-0.34-0.01-56.16 0-112.32 0-168.49 0.07-4.53-0.64-9.55 2.01-13.55 1.73-2.85 4.93-4.34 8.15-4.74z"/><path d="m567.94 27.98c7.11-1.45 14.46-0.44 21.56 0.66 0.01 58.12-0.01 116.24 0.01 174.37 0.16 4.96-2.47 10.57-7.65 11.83-7.4 1.83-15.16 0.68-22.59-0.42-0.06-56.13 0-112.25-0.03-168.38 0.05-4.16-0.38-8.54 1.43-12.43 1.28-2.96 4.08-5.1 7.27-5.63z"/><path d="m624.28 31.33c2.54-3.16 6.84-3.75 10.63-4.01 5.61-0.2 11.23 0.42 16.77 1.28 0.18 57.11 0 114.22 0.09 171.33 0.05 4.09-0.2 8.61-2.97 11.89-2.37 2.85-6.28 3.56-9.78 3.85-5.87 0.33-11.75-0.27-17.53-1.24 0.01-56.82 0.02-113.63-0.01-170.45-0.09-4.31-0.2-9.18 2.8-12.65z"/><path d="m91.73 37.73c3.92-2.59 8.84-2.25 13.32-2.24 41.24 0.03 82.47-0.01 123.7 0.02 1.05 6.96 1.92 14.33-0.26 21.15-1.41 4.39-5.94 7.13-10.44 7.07-14.6 0.07-29.2-0.01-43.8 0.03 0.01 46.41-0.02 92.82 0.01 139.22 0.14 3.5-1.15 7.08-3.78 9.45-2.49 2.42-6.11 2.99-9.44 3.25-5.87 0.31-11.75-0.27-17.54-1.2-0.01-50.24 0.01-100.48-0.01-150.72-18.35-0.04-36.69 0.04-55.04-0.04-0.98-5.52-1.13-11.15-0.9-16.74 0.19-3.4 1.1-7.3 4.18-9.25z"/><path d="m686.38 109.31c9.48-15.85 26.19-27.22 44.54-29.76 14.06-1.73 29.02-0.13 41.38 7.23 12.77 7.13 22.12 19.49 26.85 33.21 4.31 12.38 5.33 25.91 2.81 38.77-31.73-0.02-63.45-0.01-95.17 0 1.03 8.19 4.2 16.43 10.4 22.1 8.11 7.83 19.86 10.44 30.83 10.17 8.65 0.18 17.13-1.99 25.21-4.9 5.3-1.69 11.5-4 16.77-1.06 6.7 4.77 6.86 14.09 5.65 21.45-8.05 3.41-16.35 6.26-24.86 8.23-10.12 2.3-20.56 2.55-30.88 2.13-15.78-0.97-31.59-6.68-43.23-17.59-12.19-11.36-18.96-27.71-20.28-44.16-1.49-15.8 1.6-32.23 9.98-45.82m31.03 2.11c-6.79 6.74-9.98 16.24-10.97 25.58 22.89-0.01 45.78 0.01 68.67-0.01-1-9.93-4.83-19.93-12.28-26.8-6.01-5.79-14.67-7.86-22.8-7.72-8.3-0.02-16.83 2.85-22.62 8.95z"/><path d="m398.85 82.36c6.94-1.79 14.6-3.5 21.49-0.59 4.73 2.01 6.99 7.27 7.51 12.09 0.36 4.37 0.02 8.75 0.21 13.12 3.91-9.52 10.15-18.65 19.6-23.33 9.63-5.12 20.99-4.4 31.4-2.6 1.69 6.38 2.82 13.61-0.33 19.73-2.57 4.94-8.57 6.55-13.75 6.24-9.14-0.21-18.96 0.74-26.4 6.59-7.26 5.33-9.7 14.76-9.78 23.35-0.12 22.37 0 44.74-0.05 67.11 0.04 4.7-2.86 9.72-7.68 10.78-7.32 1.79-15 0.71-22.34-0.45 0.11-44.02-0.12-88.03 0.12-132.04z"/><path d="m504.94 81.12c7.2-1.8 14.72-0.56 21.96 0.32 0.24 40.52 0.01 81.04 0.12 121.56 0.34 5.07-2.7 10.64-7.89 11.83-7.25 1.84-14.86 0.7-22.14-0.4 0.04-40.81-0.03-81.62 0.03-122.43-0.06-4.83 3.09-9.72 7.92-10.88z"/><path d="m829.25 82.42c6.83-1.84 14.33-3.47 21.19-0.82 5.03 1.9 7.44 7.44 7.94 12.46 0.31 4.3 0.01 8.62 0.15 12.94 3.85-9.18 9.71-18.06 18.7-22.85 9.82-5.6 21.7-5.09 32.44-2.99 1.57 6.66 2.88 14.36-0.98 20.49-2.92 4.52-8.73 5.66-13.74 5.36-9.52-0.25-19.84 1.1-27.21 7.7-6.59 5.74-8.43 14.91-8.47 23.27-0.06 21.99 0.01 43.99-0.02 65.99 0.04 4.6-2.63 9.58-7.33 10.78-7.42 1.97-15.22 0.77-22.68-0.31 0.02-44.01-0.01-88.01 0.01-132.02z"/></g></svg>
