<svg enable-background="new 0 0 999 304.1" version="1.1" viewBox="0 0 635.89 193.57" xml:space="preserve" xmlns="http://www.w3.org/2000/svg" xmlns:xlink="http://www.w3.org/1999/xlink">
<style type="text/css">
	.st0{fill:url(#path4169_1_);}
	.st1{fill:#A1A2A2;}
	.st2{fill:url(#path4217_1_);}
	.st3{fill:#AE2C3F;}
	.st4{fill:#FFFFFF;}
	.st5{clip-path:url(#SVGID_2_);}
	.st6{opacity:0.4;}
	.st7{clip-path:url(#SVGID_4_);}
</style>

	
		<linearGradient id="path4169_1_" x1="-2349.6" x2="-2348.6" y1="623.57" y2="623.57" gradientTransform="matrix(0 116.15 -116.15 0 72747 272916)" gradientUnits="userSpaceOnUse">
		<stop stop-color="#868685" offset="0"/>
		<stop stop-color="#D8D9D9" offset=".020448"/>
		<stop stop-color="#F5F5F5" offset=".052404"/>
		<stop stop-color="#EDEEEE" offset=".4877"/>
		<stop stop-color="#F5F5F5" offset=".8955"/>
		<stop stop-color="#EBEBEC" offset=".9294"/>
		<stop stop-color="#D8D9D9" offset=".9643"/>
		<stop stop-color="#868685" offset="1"/>
	</linearGradient>
	<path class="st0" d="m16.677 3.5646c-8.9751 0-12.158 5.3469-12.158 14.195v85.932c0 8.8478 3.1827 14.131 12.221 14.131h602.48c9.0387 0 12.221-5.3469 12.221-14.131v-85.932c0-8.8478-3.1826-14.131-12.221-14.131z" fill="url(#path4169_1_)" stroke-width=".63653"/>
	<path class="st1" d="m618.45 121.45c13.367 0 17.441-8.3386 17.441-16.613v-88.223c0-8.2749-4.0738-16.613-17.441-16.613h-601.01c-13.367 0-17.441 8.3386-17.441 16.613v88.16c0 8.3386 4.0738 16.613 17.441 16.613zm-600.38-1.1458c-8.9751 0-15.086-5.2832-15.086-14.131v-90.897c0-8.8478 6.1107-14.131 15.086-14.131h599.8c8.9751 0 15.086 5.2832 15.086 14.131v90.897c0 8.8478-6.1107 14.131-15.086 14.131z" stroke-width=".63653"/>
	
		<linearGradient id="path4217_1_" x1="-2371.5" x2="-2370.5" y1="623.35" y2="623.35" gradientTransform="matrix(0 -114.24 -114.24 0 71632 -270797)" gradientUnits="userSpaceOnUse">
		<stop stop-color="#820021" offset="0"/>
		<stop stop-color="#AE2C3F" offset=".1044"/>
		<stop stop-color="#BA3C4C" offset="1"/>
	</linearGradient><g stroke-width=".63653">
	<path class="st2" d="m214.77 3.5646v114.26h404.45c9.0387 0 12.221-5.3469 12.221-14.131v-85.932c0-8.8478-3.1826-14.131-12.221-14.131h-404.45z" fill="url(#path4217_1_)"/>
	<path class="st3" d="m77.211 71.673c0 9.8026-6.3653 16.932-19.351 18.332-9.4207 1.0184-23.042-0.19096-29.471-0.9548-0.25461-1.0821-0.44557-2.3552-0.44557-3.3736 0-8.5295 4.6467-10.503 8.9751-10.503 4.5194 0 11.585 0.76384 16.868 0.76384 5.7924 0 7.5747-1.9732 7.5747-3.8192 0-2.4825-2.3552-3.5009-6.8109-4.3284l-12.285-2.3552c-10.248-1.9732-15.722-9.0387-15.722-16.613 0-9.166 6.4926-16.804 19.223-18.205 9.6116-1.0184 21.324 0.12731 27.753 0.9548 0.25461 1.0821 0.38192 2.1642 0.38192 3.31 0 8.5295-4.5194 10.375-8.8478 10.375-3.31 0-8.5295-0.63653-14.386-0.63653-6.1743-0.06365-8.6568 1.5913-8.6568 3.6282 0 2.1642 2.3552 2.9917 6.1107 3.6919l11.776 2.1642c12.094 2.2279 17.314 9.1024 17.314 17.568m21.133 10.503c0 5.2196-2.0369 8.2749-12.285 8.2749-1.3367 0-2.5461-0.12731-3.6919-0.25461v-69.636c0-5.2832 1.7823-10.821 12.158-10.821 1.2731 0 2.6098 0.12731 3.8192 0.38192zm41.82 26.925c1.3367 0.70018 4.0738 1.5277 7.5747 1.5913 5.9197 0.1273 9.166-2.1642 11.585-7.4474l31.89-71.164c-1.3367-0.70018-4.2011-1.464-6.6199-1.5277-4.0738-0.06365-9.6116 0.76384-13.113 9.166l-10.312 24.379-20.242-32.972c-1.3367-0.38192-4.5194-0.9548-6.8109-0.9548-7.1292 0-11.139 2.6098-15.277 7.1291l-19.669 21.515 15.85 24.952c2.928 4.5194 6.8109 6.8745 13.049 6.8745 4.0738 0 7.5111-0.9548 9.1024-1.7186l-19.096-28.771 13.494-14.322 22.151 34.818z"/>
	
		<path class="st4" d="m271.16 96.753c-5.0922 0-9.7389-0.89114-14.004-2.7371-4.2648-1.8459-7.9566-4.3284-11.139-7.5747-3.119-3.2463-5.6015-7.0655-7.3838-11.458-1.7823-4.3921-2.6734-9.2297-2.6734-14.386 0-5.0286 0.89114-9.6753 2.6734-14.067 1.7823-4.3284 4.2648-8.1476 7.3838-11.394s6.8745-5.7288 11.139-7.5747c4.2648-1.8459 8.9751-2.7371 14.004-2.7371 3.6282 0 7.1928 0.38192 10.566 1.2094 3.4373 0.76384 6.6199 1.7823 9.548 2.9917 0.63653 9.4843-1.655 14.258-6.9382 14.258-0.95479 0-1.7823-0.12731-2.5461-0.31827-0.76384-0.19096-1.655-0.44557-2.5461-0.63653-0.9548-0.19096-1.9732-0.44557-3.119-0.63653-1.1458-0.19096-2.4825-0.31826-4.0738-0.31826-2.4825 0-4.8376 0.44557-7.0655 1.3367s-4.1374 2.1642-5.7288 3.8828c-1.5913 1.655-2.8644 3.6919-3.8192 6.047-0.9548 2.3552-1.4004 5.0286-1.4004 7.9566 0 3.0553 0.44557 5.8561 1.4004 8.2749 0.95479 2.4188 2.1642 4.4557 3.8192 6.1743 1.5913 1.655 3.5009 2.9917 5.7288 3.8828s4.583 1.3367 7.0655 1.3367c1.5913 0 2.9917-0.12731 4.2011-0.31826 1.2094-0.19096 2.2915-0.44557 3.2463-0.63653s1.8459-0.44557 2.7371-0.63653c0.82749-0.19096 1.7186-0.31826 2.6734-0.31826 5.2196 0 7.5111 4.774 6.9382 14.258-2.928 1.2094-6.1744 2.2279-9.8026 2.9917-3.6282 0.70018-7.2564 1.1458-10.885 1.1458" Googl="true"/>
		<path class="st4" d="m308.08 95.862c-1.5277 0-2.9917-0.06365-4.4557-0.19096-1.464-0.12731-2.6734-0.31826-3.6919-0.50922v-62.125c0-2.1006 0.63653-3.8192 1.9096-5.2832 1.2731-1.464 3.6919-2.2279 7.2564-2.2279 1.464 0 2.9917 0.06365 4.4557 0.19096 1.464 0.12731 2.6734 0.31827 3.6919 0.50922v62.125c0 2.1006-0.63653 3.8192-1.9096 5.2832-1.2731 1.5277-3.6919 2.2279-7.2564 2.2279"/>
		<path class="st4" d="m337.3 95.862c-1.4004 0-2.8007-0.06365-4.2011-0.19096-1.3367-0.12731-2.4825-0.31826-3.4373-0.50922v-68.363c1.0821-0.38192 2.4825-0.63653 4.2011-0.89114 1.7186-0.25461 3.1826-0.38192 4.3921-0.38192 3.9465 0 6.7472 0.50922 8.5295 1.5277s3.2463 2.4825 4.5194 4.3921l24.315 38.319v-37.364c0-0.9548 0.12731-1.7823 0.38192-2.6098s0.70019-1.5277 1.2731-2.2279c0.63653-0.63653 1.464-1.1458 2.5461-1.5277 1.0821-0.38192 2.4188-0.57288 4.0738-0.57288 1.4004 0 2.8007 0.06365 4.1374 0.19096 1.3367 0.12731 2.4188 0.25461 3.3736 0.44557v68.427c-1.0184 0.50922-2.2279 0.82749-3.6282 1.0184s-2.8007 0.25461-4.2011 0.25461c-3.3736 0-5.8561-0.44557-7.5111-1.4004-1.655-0.9548-2.9917-2.2279-4.0738-3.8828l-26.034-41.502v39.783c0 1.9732-0.63653 3.6919-1.8459 5.0286-1.1458 1.4004-3.4373 2.0369-6.8109 2.0369"/>
		<path class="st4" d="m413.3 95.416c-1.9732 0-3.6282-0.19096-4.8376-0.63653-1.2094-0.44557-2.2279-1.0184-2.8644-1.7823-0.70018-0.76384-1.1458-1.655-1.4004-2.7371-0.25461-1.0821-0.38191-2.2279-0.38191-3.4373v-52.514c0-1.2094 0.1273-2.3552 0.38191-3.4373 0.25462-1.0821 0.70019-1.9732 1.4004-2.7371 0.70019-0.76384 1.655-1.3367 2.8644-1.7823 1.2731-0.44557 2.8644-0.63653 4.8376-0.63653h35.455c0.1273 0.76384 0.31826 1.8459 0.44557 3.2463 0.1273 1.3367 0.19096 2.7371 0.19096 4.2011 0 2.9917-0.57288 5.1559-1.8459 6.3653-1.2094 1.2731-2.7371 1.9096-4.583 1.9096h-21.833v12.221h25.143c0.1273 0.70018 0.31826 1.655 0.44557 2.8644 0.1273 1.2094 0.19096 2.4825 0.19096 3.8192 0 2.8644-0.57288 4.8376-1.7186 5.8561-1.1458 1.0184-2.5461 1.5277-4.2648 1.5277h-19.796v12.094h28.644c0.1273 0.76384 0.31826 1.8459 0.44557 3.2463 0.1273 1.4004 0.19096 2.8007 0.19096 4.1374 0 3.0553-0.63653 5.2196-1.8459 6.429-1.2094 1.2094-2.7371 1.8459-4.583 1.8459h-30.681z"/>
		<path class="st4" d="m464.73 95.862c-1.655 0-3.119-0.19096-4.3284-0.50922-1.2731-0.31827-2.3552-0.70018-3.2463-1.1458l6.5563-66.836c1.3367-0.57288 3.119-1.0184 5.3469-1.4004 2.2278-0.38192 4.0738-0.57288 5.6651-0.57288 2.2279 0 4.1374 0.12731 5.7288 0.44557 1.5913 0.25461 2.9917 0.76384 4.1374 1.464 1.1458 0.70018 2.0369 1.655 2.7371 2.8644 0.70018 1.2094 1.2094 2.7371 1.5277 4.5194l2.8007 12.985c0.76384 3.5646 1.5913 7.5111 2.4825 11.839s1.7186 8.7841 2.4188 13.367h0.44557c0.76383-4.583 1.5913-9.0387 2.4825-13.303 0.82749-4.2648 1.7186-8.2112 2.6734-11.776l3.4373-13.622c0.82749-3.3736 2.2279-5.6651 4.1374-6.8745s4.8376-1.8459 8.7841-1.8459c1.9732 0 4.0101 0.19096 6.047 0.50922 2.0369 0.31827 3.7555 0.63653 5.0922 1.0184l6.238 67.218c-1.0184 0.38192-2.2279 0.70018-3.5646 1.0821-1.4004 0.38192-2.928 0.50922-4.5194 0.50922-2.2915 0-4.2011-0.38192-5.7924-1.2094-1.5913-0.76384-2.4188-2.2279-2.5461-4.3921l-1.5913-23.17c-0.38192-4.0738-0.63654-8.3386-0.89115-12.794-0.25461-4.4557-0.38192-8.7205-0.50922-12.731h-0.19096c-0.9548 3.7555-1.8459 7.7657-2.8644 12.094-0.9548 4.3284-1.9732 8.3386-2.928 11.967l-4.3921 18.205c-1.0821 4.2648-4.4557 6.429-10.184 6.429-1.4004 0-2.8644-0.12731-4.3921-0.44557-1.464-0.25461-2.8007-0.57288-3.8192-0.9548l-5.4742-22.724c-1.0821-4.2011-2.1006-8.3386-2.9917-12.412-0.9548-4.0738-1.7823-8.1476-2.5461-12.221h-0.31827c-0.19096 5.7288-0.50922 10.948-0.82749 15.722-0.38192 4.774-0.70018 8.8478-0.9548 12.285l-1.7186 20.942c-0.1273 2.1006-0.95479 3.5009-2.3552 4.2648-1.655 0.82749-3.5009 1.2094-5.7924 1.2094"/>
		<path class="st4" d="m565.68 66.581h15.977l-7.9566-26.289zm-16.677 29.535c-1.3367 0-2.928-0.12731-4.6467-0.38192-1.7823-0.25461-3.1826-0.57288-4.3284-1.0184l22.215-67.981c1.9096-0.50922 3.8828-0.89114 5.8561-1.0821 1.9732-0.19096 3.7555-0.31826 5.4105-0.31826 2.3552 0 4.3921 0.19096 6.047 0.50922 1.655 0.38192 3.119 0.89114 4.2648 1.5913 1.1458 0.70018 2.1006 1.655 2.8644 2.8644 0.76384 1.2094 1.4004 2.5461 1.9096 4.1374l19.032 60.152c-1.2094 0.50922-2.6734 0.89114-4.3921 1.1458-1.7186 0.25461-3.3736 0.38192-5.0286 0.38192-1.8459 0-3.6282-0.31827-5.4105-0.89114-1.7186-0.63653-2.9917-1.9732-3.8192-4.1374l-3.6282-11.076h-23.361l-3.119 10.375c-0.76384 2.4825-2.1006 4.0738-3.9465 4.7103-1.9096 0.63653-3.8828 1.0184-5.9197 1.0184"/>
	
	
		
			</g><defs>
				<rect id="SVGID_1_" x="8.4" y="8.5" width="981.5" height="160.4"/>
			</defs>
			<clipPath id="SVGID_2_">
				<use width="100%" height="100%" xlink:href="#SVGID_1_"/>
			</clipPath>
			<g class="st5" transform="scale(.63653)" clip-path="url(#SVGID_2_)">
				
					
						
							<g class="st6">
								
									
										<defs>
											<rect id="SVGID_3_" x="8.4" y="8.5" width="981.5" height="160.4"/>
										</defs>
										<clipPath id="SVGID_4_">
											<use width="100%" height="100%" xlink:href="#SVGID_3_"/>
										</clipPath>
										<g class="st7" clip-path="url(#SVGID_4_)">
											<g transform="translate(504.17,519.89)">
												<path class="st4" d="m469.9-376.9c12.2 12 13.8 23.4 14.2 25.9 1.2 0 1.6-5.3 1.6-13.3v-127.4c0-14.8-4.8-19.7-17.3-19.7-4.2 0-8.5 2.3-14.1 2.3h-918.6c-5.6 0-9.9-2.3-14.1-2.3-12.5 0-17.3 5-17.3 19.7v127.4c0 7.9 0.4 13.3 1.6 13.3 0.4-2.5 0.8-14.8 14.2-25.9 107.5-82.8 834-108.3 949.8 0"/>
											</g>
										</g>
									
								
							</g>
						
					
				
			</g><g stroke-width=".63653">
		
	


	<path d="m184.63 171.61c0-3.0554 0.50923-5.9834 1.5913-8.6568s2.4825-5.0286 4.3921-7.0018c1.8459-1.9732 4.0738-3.5009 6.6199-4.6467 2.5461-1.1458 5.3469-1.655 8.3386-1.655 2.2279 0 4.3921 0.19096 6.429 0.63653 2.0369 0.44557 4.0101 1.0184 5.8561 1.7823 0.0636 0.31826 0.0636 0.57287 0.1273 0.82749 0.0637 0.25461 0.0637 0.50922 0.0637 0.76383 0 1.4004-0.31827 2.5461-0.9548 3.31-0.63653 0.76384-1.4004 1.2094-2.2915 1.2094-0.44557 0-0.89114-0.0636-1.464-0.25461-0.50922-0.19096-1.1458-0.38192-1.8459-0.63653s-1.464-0.44557-2.4188-0.57288c-0.95479-0.19096-1.9732-0.25461-3.2463-0.25461-1.9096 0-3.6282 0.38192-5.2832 1.0821s-3.0554 1.7186-4.2648 3.0554c-1.2094 1.3367-2.1642 2.928-2.8644 4.8376-0.70019 1.9096-1.0184 3.9465-1.0184 6.3017 0 2.4188 0.31826 4.5194 1.0184 6.3653 0.70018 1.8459 1.5913 3.4373 2.8644 4.774 1.2094 1.3367 2.6098 2.2915 4.2648 2.928 1.655 0.63654 3.3736 1.0184 5.2832 1.0184 1.2094 0 2.2915-0.0636 3.1826-0.25461 0.89114-0.19096 1.655-0.38192 2.3552-0.57288 0.63654-0.19096 1.2094-0.38191 1.7186-0.57287 0.50922-0.19096 0.95479-0.25462 1.464-0.25462 1.0821 0 1.9732 0.38192 2.6734 1.0821 0.63653 0.70018 1.0184 1.7823 1.0184 3.1826v0.82749c0 0.25461-0.0637 0.57288-0.12731 0.9548-1.8459 0.76383-3.7555 1.3367-5.7288 1.7823-1.9732 0.38192-4.2011 0.57288-6.7472 0.57288-2.9917 0-5.7288-0.50922-8.3386-1.5913-2.5461-1.0821-4.774-2.6098-6.6199-4.5194-1.8459-1.9096-3.31-4.2648-4.3921-6.9382-1.1458-2.8007-1.655-5.7288-1.655-8.9114z"/>
	<path d="m223.52 189.43v-36.537c0-0.89115 0.25461-1.5913 0.82749-2.2279 0.57288-0.57288 1.5277-0.89115 2.9917-0.89115 0.70018 0 1.4004 0.0637 2.1006 0.12731 0.70018 0.0637 1.2094 0.12731 1.5277 0.25461v35.964h20.369c0.0636 0.50922 0.19095 1.0184 0.25461 1.5277 0.0636 0.50923 0.1273 1.0184 0.1273 1.5277 0 1.4004-0.31826 2.4188-0.89114 2.928-0.57288 0.50922-1.4004 0.76384-2.4825 0.76384h-20.942c-1.655 0-2.6734-0.31827-3.119-0.9548-0.57288-0.63653-0.76384-1.464-0.76384-2.4825z"/>
	<path d="m253.12 192.49 14.577-42.202c0.82749-0.19096 1.655-0.38192 2.4825-0.44557 0.82749-0.0637 1.5913-0.12731 2.2915-0.12731 1.0821 0 1.9096 0.0636 2.6098 0.25461 0.70019 0.12731 1.2731 0.38192 1.7186 0.70019 0.44557 0.31826 0.82749 0.76383 1.1458 1.2731 0.31827 0.50922 0.57288 1.1458 0.82749 1.9096l13.303 38.637c-0.50922 0.19096-1.1458 0.38192-1.8459 0.57288-0.70018 0.19095-1.3367 0.25461-1.9096 0.25461-1.0184 0-1.9096-0.12731-2.6734-0.38192-0.76383-0.25461-1.2731-0.82749-1.655-1.8459l-3.1826-9.4206h-16.741l-3.119 9.4206c-0.31827 0.9548-0.82749 1.5913-1.5277 1.8459-0.63654 0.25461-1.464 0.38192-2.4188 0.38192-0.63653 0-1.3367-0.0637-2.1006-0.19096-0.70019-0.19096-1.3367-0.38192-1.7823-0.63653zm13.113-17.25h12.731l-6.3653-19.16z"/>
	<path d="m294.81 189.81c0-1.464 0.25461-2.6098 0.82749-3.5009 0.50922-0.89114 1.4004-1.3367 2.6098-1.3367 0.57288 0 1.2731 0.0637 2.0369 0.25462 0.76384 0.19096 1.655 0.38192 2.6734 0.57287 1.0184 0.19096 2.1006 0.38192 3.31 0.57288s2.5461 0.25461 4.0101 0.25461c3.0554 0 5.1559-0.57287 6.4926-1.655 1.2731-1.0821 1.9732-2.4825 1.9732-4.2011 0-0.82749-0.1273-1.5277-0.44557-2.1006s-0.76384-1.0821-1.3367-1.5277c-0.57288-0.44557-1.2731-0.76384-2.1006-1.0821-0.82749-0.31826-1.7823-0.63653-2.8007-0.95479l-5.4742-1.5277c-4.3284-1.2094-7.3201-2.8007-9.0387-4.9649-1.7186-2.1006-2.5461-4.5194-2.5461-7.2564 0-1.3367 0.25462-2.7371 0.70019-4.2011 0.50922-1.4004 1.3367-2.7371 2.4825-3.8828 1.2094-1.1458 2.8007-2.1006 4.774-2.8644 1.9732-0.76384 4.5194-1.1458 7.5111-1.1458 2.0369 0 4.2011 0.19096 6.4926 0.57288 2.2915 0.38192 4.7103 0.95479 7.2564 1.8459v0.95479c0 1.5277-0.25462 2.7371-0.76384 3.5646-0.50923 0.82749-1.3367 1.2731-2.4825 1.2731-0.57288 0-1.2094-0.0637-1.9096-0.25462-0.70019-0.19095-1.464-0.31826-2.2915-0.44557-0.82749-0.1273-1.8459-0.31826-2.928-0.50922-1.0821-0.19096-2.3552-0.25461-3.6919-0.25461-1.5277 0-2.8007 0.1273-3.8192 0.44557-1.0184 0.31826-1.8459 0.70018-2.4188 1.2094-0.63653 0.50922-1.0821 1.0184-1.3367 1.655-0.25461 0.57287-0.38192 1.2094-0.38192 1.8459 0 1.464 0.50923 2.6098 1.464 3.31 0.9548 0.76384 2.7371 1.464 5.2832 2.1642l5.7924 1.5913c7.702 2.0369 11.585 6.1107 11.585 12.094 0 1.9096-0.31827 3.6919-0.9548 5.2832-0.63653 1.5913-1.655 2.928-2.9917 4.0738-1.3367 1.1458-3.0554 2.0369-5.1559 2.6734s-4.583 0.9548-7.4474 0.9548c-2.1642 0-4.5194-0.25461-7.0655-0.70019-2.5461-0.44557-5.1559-1.1458-7.7657-1.9732 0-0.19096 0-0.31827-0.0636-0.44557 0-0.0637-0.0636-0.19096-0.0636-0.38192z"/>
	<path d="m330.65 189.81c0-1.464 0.25461-2.6098 0.82749-3.5009 0.50922-0.89114 1.4004-1.3367 2.6098-1.3367 0.57288 0 1.2731 0.0637 2.0369 0.25462 0.76384 0.19096 1.655 0.38192 2.6734 0.57287 1.0184 0.19096 2.1006 0.38192 3.31 0.57288s2.5461 0.25461 4.0101 0.25461c3.0554 0 5.1559-0.57287 6.4926-1.655 1.2731-1.0821 1.9732-2.4825 1.9732-4.2011 0-0.82749-0.1273-1.5277-0.44557-2.1006-0.31826-0.57288-0.76384-1.0821-1.3367-1.5277-0.57288-0.44557-1.2731-0.76384-2.1006-1.0821-0.82749-0.31826-1.7823-0.63653-2.8007-0.95479l-5.4742-1.5277c-4.3284-1.2094-7.3201-2.8007-9.0387-4.9649-1.7186-2.1006-2.5461-4.5194-2.5461-7.2564 0-1.3367 0.25461-2.7371 0.70018-4.2011 0.50922-1.4004 1.3367-2.7371 2.4825-3.8828 1.2094-1.1458 2.8007-2.1006 4.774-2.8644 1.9732-0.76384 4.5194-1.1458 7.5111-1.1458 2.0369 0 4.2011 0.19096 6.4926 0.57288s4.7103 0.95479 7.2564 1.8459v0.95479c0 1.5277-0.25462 2.7371-0.76384 3.5646s-1.3367 1.2731-2.4825 1.2731c-0.57288 0-1.2094-0.0637-1.9096-0.25462-0.70019-0.1273-1.464-0.31826-2.2915-0.44557-0.82749-0.1273-1.8459-0.31826-2.928-0.50922-1.0821-0.19096-2.3552-0.25461-3.6919-0.25461-1.5277 0-2.8007 0.1273-3.8192 0.44557-1.0184 0.31826-1.8459 0.70018-2.4188 1.2094-0.63653 0.50922-1.0821 1.0184-1.3367 1.655-0.25461 0.57287-0.38192 1.2094-0.38192 1.8459 0 1.464 0.50923 2.6098 1.464 3.31 0.9548 0.76384 2.7371 1.464 5.2832 2.1642l5.7924 1.5913c7.702 2.0369 11.585 6.1107 11.585 12.094 0 1.9096-0.31827 3.6919-0.9548 5.2832-0.63653 1.5913-1.655 2.928-2.9917 4.0738-1.3367 1.1458-3.0554 2.0369-5.1559 2.6734s-4.583 0.9548-7.4474 0.9548c-2.1642 0-4.5194-0.25461-7.0655-0.70019-2.5461-0.44557-5.1559-1.1458-7.7657-1.9732 0-0.19096 0-0.31827-0.0636-0.44557-0.0636-0.0637-0.0636-0.19096-0.0636-0.38192z"/>
	<path d="m368.46 192.93v-39.974c0-0.89114 0.25461-1.5913 0.82749-2.2279 0.57288-0.57288 1.5277-0.89114 2.928-0.89114 0.70019 0 1.4004 0.0636 2.1006 0.1273 0.70018 0.0637 1.2094 0.12731 1.5913 0.25462v39.974c0 0.89114-0.25461 1.5913-0.82749 2.2278-0.57288 0.57288-1.5277 0.89115-2.928 0.89115-0.70018 0-1.4004-0.0637-2.1006-0.12731-0.76384-0.1273-1.2731-0.19096-1.5913-0.25461z"/>
	<path d="m381.95 171.61c0-3.0554 0.50923-5.9834 1.5913-8.6568s2.4825-5.0286 4.3921-7.0018c1.8459-1.9732 4.0738-3.5009 6.6199-4.6467 2.5461-1.1458 5.3469-1.655 8.3386-1.655 2.2278 0 4.3921 0.19096 6.429 0.63653 2.0369 0.44557 4.0101 1.0184 5.8561 1.7823 0.0636 0.31826 0.0636 0.57287 0.12731 0.82749 0.0636 0.25461 0.0636 0.50922 0.0636 0.76383 0 1.4004-0.31827 2.5461-0.9548 3.31-0.63653 0.76384-1.4004 1.2094-2.2915 1.2094-0.44557 0-0.89114-0.0636-1.464-0.25461-0.50922-0.19096-1.1458-0.38192-1.8459-0.63653-0.70018-0.25461-1.464-0.44557-2.4188-0.57288-0.9548-0.12731-1.9732-0.25461-3.2463-0.25461-1.9096 0-3.6282 0.38192-5.2832 1.0821s-3.0553 1.7186-4.2648 3.0554c-1.2094 1.3367-2.1642 2.928-2.8644 4.8376-0.70019 1.9096-1.0184 3.9465-1.0184 6.3017 0 2.4188 0.31826 4.5194 1.0184 6.3653 0.70018 1.8459 1.5913 3.4373 2.8644 4.774 1.2094 1.3367 2.6098 2.2915 4.2648 2.928 1.655 0.63654 3.3736 1.0184 5.2832 1.0184 1.2094 0 2.2915-0.0636 3.1826-0.25461 0.89115-0.19096 1.655-0.38192 2.3552-0.57288 0.63653-0.19096 1.2094-0.38191 1.7186-0.57287 0.50922-0.19096 0.95479-0.25462 1.464-0.25462 1.0821 0 1.9732 0.38192 2.6734 1.0821 0.63653 0.70018 1.0184 1.7823 1.0184 3.1826v0.82749c0 0.25461-0.0637 0.57288-0.12731 0.9548-1.8459 0.76383-3.7555 1.3367-5.7288 1.7823-1.9732 0.38192-4.2011 0.57288-6.7472 0.57288-2.9917 0-5.7288-0.50922-8.3386-1.5913-2.5461-1.0821-4.774-2.6098-6.6199-4.5194-1.8459-1.9096-3.31-4.2648-4.3921-6.9382-1.1458-2.8007-1.655-5.7288-1.655-8.9114z"/>
	<path d="m419.76 189.81c0-1.464 0.25461-2.6098 0.82749-3.5009 0.50923-0.89114 1.4004-1.3367 2.6098-1.3367 0.57287 0 1.2731 0.0637 2.0369 0.25462 0.76383 0.19096 1.655 0.38192 2.6734 0.57287 1.0184 0.19096 2.1006 0.38192 3.31 0.57288 1.2094 0.19096 2.5461 0.25461 4.0102 0.25461 3.0554 0 5.1559-0.57287 6.4926-1.655 1.2731-1.0821 1.9732-2.4825 1.9732-4.2011 0-0.82749-0.12731-1.5277-0.44557-2.1006-0.31827-0.57288-0.76384-1.0821-1.3367-1.5277s-1.2731-0.76384-2.1006-1.0821c-0.82749-0.31826-1.7823-0.63653-2.8007-0.95479l-5.4742-1.5277c-4.3284-1.2094-7.3201-2.8007-9.0387-4.9649-1.7186-2.1006-2.5461-4.5194-2.5461-7.2564 0-1.3367 0.25461-2.7371 0.70018-4.2011 0.50923-1.4004 1.3367-2.7371 2.4825-3.8828 1.2094-1.1458 2.8007-2.1006 4.774-2.8644 1.9732-0.76384 4.5194-1.1458 7.5111-1.1458 2.0369 0 4.2011 0.19096 6.4926 0.57288s4.7103 0.95479 7.2564 1.8459v0.95479c0 1.5277-0.25461 2.7371-0.76384 3.5646-0.50922 0.82749-1.3367 1.2731-2.4825 1.2731-0.57287 0-1.2094-0.0637-1.9096-0.25462-0.70018-0.1273-1.464-0.31826-2.2915-0.44557-0.82749-0.1273-1.8459-0.31826-2.928-0.50922s-2.3552-0.25461-3.6919-0.25461c-1.5277 0-2.8007 0.1273-3.8192 0.44557-1.0184 0.31826-1.8459 0.70018-2.4188 1.2094-0.63653 0.50922-1.0821 1.0184-1.3367 1.655-0.25462 0.57287-0.38192 1.2094-0.38192 1.8459 0 1.464 0.50922 2.6098 1.464 3.31 0.95479 0.76384 2.7371 1.464 5.2832 2.1642l5.7924 1.5913c7.702 2.0369 11.585 6.1107 11.585 12.094 0 1.9096-0.31826 3.6919-0.95479 5.2832-0.63653 1.5913-1.655 2.928-2.9917 4.0738-1.3367 1.1458-3.0554 2.0369-5.1559 2.6734s-4.583 0.9548-7.4474 0.9548c-2.1642 0-4.5194-0.25461-7.0655-0.70019-2.5461-0.44557-5.1559-1.1458-7.7657-1.9732 0-0.19096 0-0.31827-0.0637-0.44557-0.0636-0.0637-0.0636-0.19096-0.0636-0.38192z"/>

</g></svg>
