<svg width="600" height="146.25" version="1.1" viewBox="0 0 158.75 38.69543" xmlns="http://www.w3.org/2000/svg">
 <defs>
  <linearGradient id="b" x2="1" gradientTransform="matrix(0 22.964 22.964 0 175.32 120.84)" gradientUnits="userSpaceOnUse">
   <stop stop-color="#888685" offset="0"/>
   <stop stop-color="#d9d9da" offset=".020448"/>
   <stop stop-color="#f5f5f6" offset=".052404"/>
   <stop stop-color="#eeefef" offset=".48766"/>
   <stop stop-color="#f5f5f6" offset=".89549"/>
   <stop stop-color="#ebebec" offset=".92944"/>
   <stop stop-color="#d9d9da" offset=".96426"/>
   <stop stop-color="#888685" offset="1"/>
  </linearGradient>
  <linearGradient id="a" x2="1" gradientTransform="matrix(0 -22.586 22.586 0 179.47 143.63)" gradientUnits="userSpaceOnUse">
   <stop stop-color="#810121" offset="0"/>
   <stop stop-color="#ad2b3e" offset=".10441"/>
   <stop stop-color="#ae2c3f" offset=".89813"/>
   <stop stop-color="#b94556" offset=".99967"/>
   <stop stop-color="#ba3b4b" offset="1"/>
  </linearGradient>
 </defs>
 <g transform="translate(-95.94 -120.33)">
  <path d="m251.24 144.34c2.6438 0 3.451-1.6437 3.451-3.2875v-17.434c0-1.6401-0.80731-3.2838-3.451-3.2838h-151.85c-2.6438 0-3.4511 1.6437-3.4511 3.2838v17.434c0 1.6437 0.8073 3.2875 3.4511 3.2875h151.85m-151.73-0.22183c-1.7783 0-2.9856-1.051-2.9856-2.8002v-17.965c0-1.7492 1.2073-2.8002 2.9856-2.8002h151.6c1.7819 0 2.9856 1.051 2.9856 2.8002v17.965c0 1.7492-1.2037 2.8002-2.9856 2.8002h-151.6" fill="#a1a2a2" stroke-width=".99999"/>
  <path d="m99.251 121.04c-1.7783 0-2.4147 1.051-2.4147 2.8038v16.986c0 1.7455 0.63639 2.7965 2.4147 2.7965 50.714 1e-5 101.43 1e-5 152.15 2e-5 1.7783 0 2.411-1.051 2.411-2.7965v-16.986c0-1.7528-0.63276-2.8038-2.411-2.8038-50.714-1e-5 -101.43-1e-5 -152.15-2e-5z" fill="url(#b)" stroke-width=".99999"/>
  <path d="m138.4 121.05v22.587h82.14v-22.587z" fill="url(#a)" stroke-width=".99999"/>
  <g fill="#fff" stroke-width=".99999">
   <path d="m149.55 139.48c-0.99998 0-1.9237-0.18183-2.771-0.54184-0.8473-0.36002-1.5783-0.85822-2.2001-1.4946-0.62184-0.63639-1.1055-1.3928-1.4583-2.2692-0.35274-0.8764-0.53093-1.8219-0.53093-2.8401 0-0.98912 0.17819-1.9165 0.53093-2.7783 0.35275-0.86179 0.8364-1.611 1.4583-2.2474 0.62184-0.63638 1.3528-1.1346 2.2001-1.4946 0.84731-0.36001 1.771-0.54184 2.771-0.54184 0.72003 0 1.4183 0.08 2.0947 0.23274 0.67639 0.15636 1.3019 0.35637 1.8837 0.59639 0.12365 1.8801-0.33456 2.8183-1.3782 2.8183-0.18183 0-0.35275-0.0218-0.50548-0.0618-0.15636-0.0436-0.32364-0.0873-0.50911-0.12728-0.18183-0.0436-0.3891-0.0873-0.61093-0.12728-0.22546-0.0436-0.49456-0.0655-0.80367-0.0655-0.49456 0-0.96004 0.0909-1.3964 0.26547-0.44002 0.17819-0.81458 0.43273-1.1346 0.76366-0.31638 0.33091-0.5673 0.73094-0.74912 1.1964-0.18183 0.46911-0.27638 0.99276-0.27638 1.571 0 0.60729 0.0945 1.1528 0.27638 1.6328 0.18182 0.48002 0.43274 0.88732 0.74912 1.2182 0.32001 0.33457 0.69457 0.58911 1.1346 0.76366 0.43638 0.1782 0.90185 0.26548 1.3964 0.26548 0.30911 0 0.58184-0.0218 0.82185-0.0618 0.24001-0.0436 0.45456-0.0873 0.6473-0.12729 0.1891-0.0436 0.37092-0.0873 0.5382-0.12728 0.17092-0.0436 0.34547-0.0655 0.52729-0.0655 1.0291 0 1.491 0.94187 1.3782 2.822-0.57821 0.24001-1.2255 0.43638-1.9383 0.59275-0.70912 0.15637-1.4255 0.23274-2.1456 0.23274"/>
   <path d="m156.85 139.31c-0.29454 0-0.5891-0.0146-0.87639-0.0436-0.29092-0.0291-0.53457-0.0618-0.73094-0.10546v-12.277c0-0.41092 0.12728-0.76002 0.38184-1.051 0.25091-0.28729 0.73093-0.43274 1.4364-0.43274 0.29818 0 0.58911 0.0145 0.88003 0.04 0.28728 0.0291 0.53093 0.0655 0.7273 0.1091v12.277c0 0.41091-0.12728 0.76001-0.3782 1.0473-0.25456 0.29094-0.73457 0.43639-1.4401 0.43639"/>
   <path d="m162.63 139.31c-0.28364 0-0.55638-0.0146-0.82549-0.0436-0.26909-0.0291-0.49456-0.0618-0.67638-0.10546v-13.506c0.21092-0.0727 0.48729-0.13091 0.82548-0.18182 0.3382-0.0473 0.62549-0.0727 0.86549-0.0727 0.77822 0 1.3419 0.0982 1.6946 0.29455 0.35273 0.20001 0.64729 0.49094 0.8873 0.86913l4.8001 7.5712v-7.3785c0-0.18547 0.0254-0.35639 0.0764-0.52002 0.0473-0.16365 0.13092-0.30547 0.25092-0.43275 0.12001-0.12728 0.28728-0.22911 0.4982-0.29819 0.21092-0.0691 0.48001-0.10546 0.80366-0.10546 0.28366 0 0.55275 0.0145 0.81458 0.04 0.26183 0.0291 0.48366 0.0582 0.66549 0.0873v13.528c-0.19638 0.0982-0.43639 0.16729-0.71639 0.20002-0.28365 0.0364-0.56002 0.0546-0.82549 0.0546-0.66548 0-1.1564-0.0909-1.4801-0.27638-0.32728-0.18183-0.59275-0.43638-0.80366-0.76367l-5.142-8.2258v7.8657c0 0.39638-0.12001 0.7273-0.36002 0.9964-0.24 0.26911-0.69093 0.40366-1.3528 0.40366"/>
   <path d="m177.66 139.22c-0.39639 0-0.7164-0.0436-0.96368-0.12728-0.24727-0.0836-0.43637-0.20001-0.57093-0.34911-0.13455-0.1491-0.22546-0.33092-0.27274-0.54184-0.0509-0.21092-0.0764-0.43637-0.0764-0.67638v-10.393c0-0.24 0.0254-0.46546 0.0764-0.67638 0.0473-0.21455 0.13819-0.39274 0.27274-0.54184 0.13456-0.1491 0.32366-0.26547 0.57093-0.3491 0.24728-0.0873 0.56729-0.12728 0.96368-0.12728h7.0003c0.0291 0.15637 0.0582 0.36728 0.0873 0.63639 0.0255 0.2691 0.04 0.54184 0.04 0.82548 0 0.59275-0.12001 1.0146-0.36003 1.2619-0.24 0.24728-0.54184 0.37093-0.90911 0.37093h-4.3129v2.4183h4.9674c0.0291 0.14182 0.0582 0.32728 0.0873 0.56001 0.0254 0.23637 0.04 0.4873 0.04 0.75276 0 0.56728-0.11273 0.95276-0.3382 1.1564-0.22547 0.20727-0.50548 0.30909-0.84369 0.30909h-3.9128v2.3965h5.6657c0.0291 0.15274 0.0582 0.37092 0.0873 0.6473 0.0255 0.27274 0.04 0.54548 0.04 0.81458 0 0.60729-0.12001 1.0328-0.36002 1.2728-0.24 0.24-0.54184 0.36002-0.90913 0.36002h-6.0693"/>
   <path d="m187.83 139.31c-0.32367 0-0.61094-0.0327-0.85821-0.0945-0.24365-0.0655-0.46184-0.13818-0.64367-0.22182l1.2946-13.212c0.26548-0.11274 0.61821-0.20729 1.0546-0.27638 0.43637-0.0691 0.81092-0.10545 1.12-0.10545 0.44002 0 0.81457 0.0291 1.131 0.0836 0.32001 0.0582 0.58911 0.15273 0.81458 0.28728 0.22545 0.13455 0.40728 0.32002 0.54182 0.56002 0.13091 0.24001 0.23274 0.5382 0.30547 0.89094l0.54911 2.5674c0.15638 0.70548 0.32003 1.4873 0.49821 2.3419 0.17454 0.85457 0.33455 1.7346 0.47274 2.6401h0.0873c0.15275-0.90549 0.31638-1.7819 0.48366-2.6292 0.17091-0.84732 0.34547-1.6255 0.52729-2.331l0.6764-2.6947c0.17091-0.66547 0.44002-1.1164 0.81457-1.3564 0.37456-0.23999 0.95277-0.36001 1.7419-0.36001 0.39274 0 0.79275 0.0327 1.1928 0.0945 0.40365 0.0618 0.73456 0.13092 1.0037 0.2l1.2364 13.299c-0.19637 0.0691-0.43274 0.13819-0.70913 0.21092-0.27273 0.0691-0.57455 0.10545-0.8982 0.10545-0.45093 0-0.83277-0.0764-1.1419-0.23273-0.3091-0.15637-0.48001-0.4473-0.50911-0.86913l-0.31637-4.582c-0.0691-0.80366-0.13091-1.651-0.17817-2.5346-0.0509-0.88004-0.0836-1.7201-0.0982-2.5129h-0.04c-0.18546 0.7382-0.37093 1.531-0.56002 2.3856-0.19273 0.85821-0.38547 1.6437-0.58185 2.3674l-0.86913 3.6038c-0.21091 0.84731-0.88001 1.2728-2.0074 1.2728-0.28363 0-0.57093-0.0291-0.86913-0.0873-0.29454-0.0546-0.5491-0.12-0.76002-0.1891l-1.08-4.4947c-0.21092-0.8364-0.40729-1.6546-0.59275-2.4619-0.18182-0.80367-0.35274-1.611-0.50547-2.4147h-0.0655c-0.04 1.131-0.0982 2.1637-0.16728 3.1056-0.0727 0.93822-0.13455 1.7492-0.19275 2.4292l-0.33818 4.1347c-0.0254 0.40728-0.18181 0.69094-0.46547 0.84731-0.28 0.15636-0.64731 0.23273-1.0982 0.23273"/>
   <path d="m207.79 133.52h3.1638l-1.5783-5.1965-1.5855 5.1965m-3.2982 5.8329c-0.26911 0-0.57458-0.0254-0.92005-0.0764-0.34548-0.0473-0.63275-0.11636-0.85821-0.2l4.3892-13.444c0.38183-0.0982 0.7673-0.1709 1.1564-0.21454 0.3891-0.04 0.74548-0.0618 1.0691-0.0618 0.4691 0 0.86549 0.0364 1.2001 0.10545 0.33093 0.0727 0.61093 0.17819 0.8364 0.32001 0.22911 0.14183 0.41457 0.3273 0.56366 0.56003 0.1491 0.23274 0.27274 0.50547 0.37093 0.8182l3.7602 11.895c-0.24 0.0982-0.5273 0.17455-0.86549 0.22183-0.33819 0.0509-0.66911 0.0764-0.99641 0.0764-0.36363 0-0.72001-0.0618-1.0655-0.18181s-0.59638-0.39275-0.75276-0.81822l-0.72002-2.1819h-4.6111l-0.61094 2.0583c-0.15637 0.49456-0.41818 0.80367-0.78184 0.93095-0.36728 0.12727-0.75639 0.19272-1.1637 0.19272"/>
  </g>
  <path d="m233.6 130.89v-3.1892c0-0.86549 0.34545-1.4146 2.1274-1.4146 0.22181 0 0.41092 0.0145 0.62911 0.0509v10.462c0 0.85822-0.34548 1.4073-2.131 1.4073-0.2182 0-0.40729-0.0145-0.62548-0.0473v-4.7492h-5.5565v3.3892c0 0.85822-0.34547 1.4073-2.1347 1.4073-0.21457 0-0.40366-0.0145-0.62549-0.0473v-10.459c0-0.86549 0.34547-1.4146 2.131-1.4146 0.22183 0 0.40728 0.0145 0.62912 0.0509v4.5529h5.5565m15.823 1.3419c0-3.5528-2.5601-5.9639-6.7966-5.9639h-2.8801c-1.3819 0-1.7128 0.7273-1.7128 1.6837v8.5822c0 0.92004 0.3309 1.6655 1.7128 1.6655h2.8801c4.2365 0 6.7966-2.411 6.7966-5.9675m-8.6295 3.4147v-6.8257h1.9965c2.7747 0 3.7928 1.7965 3.7928 3.411 0 1.6183-1.0182 3.4147-3.7928 3.4147h-1.9965" fill="#ae2c3f" stroke-width=".99999"/>
  <path d="m111.21 134.5c0 1.9346-1.2655 3.3456-3.8328 3.6256-1.8583 0.20001-4.5529-0.0364-5.8293-0.18183-0.0473-0.2109-0.0836-0.4691-0.0836-0.67275 0-1.6946 0.91276-2.0801 1.771-2.0801 0.88731 0 2.291 0.15637 3.3311 0.15637 1.1455 0 1.4982-0.3891 1.4982-0.76003 0-0.48729-0.46546-0.6873-1.3528-0.85822l-2.4365-0.4691c-2.0256-0.38911-3.1092-1.7892-3.1092-3.2765 0-1.811 1.2801-3.3238 3.8002-3.6038 1.9019-0.20363 4.2183 0.0291 5.4911 0.18547 0.0473 0.21819 0.0691 0.42183 0.0691 0.65092 0 1.6874-0.88731 2.051-1.7456 2.051-0.65821 0-1.6801-0.12363-2.8474-0.12363-1.1892 0-1.6801 0.32728-1.6801 0.7273 0 0.42183 0.4691 0.59639 1.2146 0.7273l2.3274 0.43274c2.3892 0.44001 3.4146 1.7964 3.4146 3.4692m4.1784 2.0765c0 1.0364-0.40729 1.6364-2.4328 1.6364-0.26547 0-0.50183-0.0218-0.7273-0.0546v-13.757c0-1.0437 0.35638-2.1346 2.4001-2.1346 0.25818 0 0.51637 0.0254 0.76002 0.0764v14.233m8.2767 5.3202c0.26183 0.13819 0.8073 0.30182 1.4946 0.32001 1.1746 0.0254 1.8183-0.42547 2.291-1.4764l6.3093-14.07c-0.26183-0.14183-0.83639-0.2982-1.3092-0.3091-0.81094-0.0145-1.8983 0.15273-2.5965 1.811l-2.0401 4.822-4.0074-6.5239c-0.25819-0.08-0.88731-0.19273-1.3528-0.19273-1.411 0-2.2038 0.52002-3.022 1.411l-3.8948 4.2583 3.1311 4.9311c0.57821 0.89822 1.3419 1.3564 2.582 1.3564 0.81094 0 1.4837-0.18547 1.7964-0.33457l-3.771-5.6875 2.6729-2.8329 4.3856 6.8839-2.6692 5.6329" fill="#ae2c3f" stroke-width=".99999"/>
  <path d="m99.191 121.41c-1.5746 0-2.1782 0.62578-2.1782 2.4841h-6e-4l-4e-3 16.034c0 0.99998 0.0545 1.6691 0.2036 1.6691 0.0582-0.31274 0.10165-1.8544 1.7926-3.2618 0.6073-0.46548 1.4369-0.91647 2.4624-1.3565l3e-3 2e-3c1.3439-0.57026 3.0368-1.1151 5.0228-1.6309 2e-3 1e-5 5e-3 -2e-5 7e-3 0 0.44365-0.11637 0.89818-0.22886 1.3746-0.34158l3e-3 -3e-3c1.0391-0.24338 2.1505-0.48685 3.3238-0.71933l5.9e-4 -2e-3c0.33821-0.0618 0.67666-0.12728 1.0258-0.19274 1.102-0.20847 2.2205-0.40544 3.159-0.55868v-2e-3c0.34464-0.058 0.69302-0.11248 1.0449-0.16689l3e-3 -2e-3c1.0546-0.16729 2.1495-0.33094 3.2768-0.48731l1e-3 -2e-3c1.3237-0.18909 2.6983-0.36752 4.1128-0.54208-0.89432-1.4058-0.88651-1.393 3e-3 2e-3 1.0908-0.13454 2.1997-0.26185 3.3378-0.38911l1e-3 2e-3c0.3782-0.0436 0.76019-0.0835 1.142-0.12351 1.1484-0.12117 2.3118-0.24063 3.2902-0.33336l2.1601-4.8181c-0.19638-0.10364-0.56874-0.21728-0.94205-0.27233 0.3728 0.0535 0.74671 0.16714 0.94308 0.27078l-1e-3 2e-3 -2.159 4.8171c2.2001-0.21091 4.4731-0.41138 6.8077-0.59685 1.4437-0.11273 2.902-0.22167 4.3893-0.32348 0.0836-0.34547 0.19256-0.6871 0.3271-1.0144 0.35275-0.86186 0.83645-1.6146 1.4583-2.2474 0.62185-0.63638 1.3567-1.1386 2.2004-1.4986 0.8473-0.36 1.7708-0.53794 2.7709-0.53794 0.71639 0 1.418 0.0798 2.0944 0.23255 0.67639 0.15636 1.3023 0.35268 1.8841 0.59633 0.12364 1.8765-0.33453 2.8184-1.3746 2.8184-0.18546 0-0.35679-0.0215-0.50951-0.0615-0.15638-0.0436-0.32718-0.0877-0.50902-0.13126-0.18546-0.04-0.38895-0.0834-0.61442-0.12712-0.22546-0.04-0.4908-0.062-0.80355-0.062-0.49092 0-0.96042 0.091-1.3932 0.26561-0.43997 0.1782-0.81422 0.43284-1.1342 0.76377-0.21092 0.22183-0.39297 0.46927-0.5457 0.75292 2.8147-0.17091 5.6802-0.32022 8.5967-0.45114v-2.9854c0-0.41092 0.12368-0.76017 0.38188-1.0475 0.25456-0.29092 0.7311-0.43665 1.4366-0.43665 0.2982 0 0.58911 0.0148 0.88003 0.0439 0.28728 0.0255 0.53068 0.0618 0.73069 0.10542v4.1743c0.81458-0.0327 1.6364-0.0613 2.4619-0.0904v-3.9786c0.21092-0.0691 0.48395-0.13099 0.82577-0.18189 0.3382-0.0509 0.62556-0.0729 0.86557-0.0729 0.77458 0 1.3417 0.0982 1.6945 0.29816 0.3491 0.19637 0.64726 0.48737 0.88727 0.86557l1.8293 2.8877c0.98913-0.0218 1.9781-0.0438 2.9709-0.0656v-2.6293c0-0.18547 0.0256-0.35624 0.0765-0.51625 0.0473-0.16364 0.13426-0.30885 0.25063-0.43614 0.12-0.12727 0.2841-0.22544 0.49866-0.29817 0.21092-0.0691 0.47991-0.10592 0.80355-0.10592 0.28365 0 0.5526 0.0148 0.81079 0.0439 0.26183 0.0255 0.48737 0.0547 0.6692 0.0837v3.8074c0.82186-0.0109 1.6436-0.0185 2.4619-0.0295v-2.1673c0-0.24002 0.0256-0.4655 0.0729-0.67642 0.0509-0.21456 0.14192-0.39246 0.27647-0.54156 0.13456-0.1491 0.32374-0.2657 0.57102-0.34933 0.24729-0.0836 0.56687-0.12713 0.95961-0.12713h7.0005c0.0327 0.15273 0.0619 0.36705 0.0873 0.63252 0.0291 0.2691 0.0434 0.54575 0.0434 0.82938 0 0.59276-0.11965 1.0147-0.35966 1.262-0.24001 0.24727-0.54221 0.37051-0.90949 0.37051h-4.3164v0.74567c0.84367-7e-3 1.691-7e-3 2.5383-7e-3 1.8474 0 3.6986 7e-3 5.5349 0.0259l0.34156-3.5238c0.2691-0.1091 0.62194-0.20012 1.0583-0.27285 0.43638-0.0691 0.8107-0.10541 1.1198-0.10541 0.43637 0 0.8148 0.0291 1.1312 0.0873 0.31637 0.0545 0.58894 0.14915 0.81441 0.2837 0.22544 0.13455 0.40751 0.31962 0.54206 0.56326 0.13092 0.23637 0.23269 0.53504 0.30178 0.88778l0.46561 2.1673c0.75275 0.0145 1.5019 0.0324 2.2474 0.0507l0.58187-2.3203c0.17092-0.66547 0.44345-1.1196 0.81801-1.3596 0.37092-0.24 0.95289-0.36017 1.7384-0.36017 0.39639 0 0.79264 0.0328 1.1963 0.0946 0.40002 0.0618 0.73446 0.13087 0.99993 0.2036l0.36741 3.9164c1.5928 0.0618 3.1708 0.12726 4.7309 0.19998l1.3674-4.1821c0.38183-0.0982 0.76375-0.17082 1.1565-0.21446 0.3891-0.04 0.7455-0.062 1.0728-0.062 0.46545 0 0.86173 0.0364 1.1963 0.10542 0.33092 0.0727 0.60753 0.17859 0.83662 0.31677 0.22911 0.14546 0.41472 0.33053 0.56016 0.56327 0.15273 0.23273 0.27645 0.50943 0.37465 0.81852l0.97461 3.0872c2.5056 0.17092 4.9309 0.3637 7.2764 0.57824 1.6182 0.15274 3.1963 0.31278 4.7309 0.48369l1e-3 -2e-3c4.0324 0.45452 7.749 0.98538 11.073 1.5999v2e-3c0.57092 0.10546 1.1309 0.21076 1.6764 0.3235v-6e-4c0.96272 0.19619 1.8782 0.39592 2.7611 0.60666v-2e-3c1.5815 0.37813 3.0356 0.78178 4.3407 1.2035 1.0034 0.34856 2.0382 0.71691 2.8959 1.093l1e-3 -1e-3c1.5445 0.67977 2.7585 1.4178 3.6054 2.2066 1.531 1.5164 1.7417 2.949 1.7926 3.2618 0.15274 0 0.20723-0.66908 0.20722-1.6691l-4e-3 -16.034c0-1.8583-0.60405-2.4836-2.1787-2.4836-0.53458 0-1.0654 0.2837-1.7746 0.2837-9.7065-1e-3 -19.419-6e-4 -29.128-6e-4v6e-4l-82.141-6e-4h-37.437c-0.71275 0-1.2436-0.2837-1.7782-0.2837zm110.18 6.9131-0.50177 1.6474c0.34182 0.0218 0.67979 0.0402 1.0216 0.062zm-19.281 0.23305c-0.0109 0.26547-0.0216 0.52368-0.0326 0.77823 0.0873 0 0.16386-2e-4 0.25114 4e-3 -0.0545-0.26183-0.10566-0.52001-0.15656-0.78184zm7.9317 0.0212-0.0439 6e-4c-0.0727 0.29819-0.14896 0.60342-0.22533 0.92706 0.0982 0 0.19639 4e-3 0.29095 7e-3 -7e-3 -0.32-0.0144-0.62934-0.0217-0.93481z" fill="#fff" opacity=".4" stroke-width="3.6366"/>
  <g fill="#231f20" stroke-width=".99999">
   <path d="m152.68 154.85h1.1185c0.68239 0 1.1836-0.14441 1.4979-0.43322 0.31713-0.28881 0.47286-0.68522 0.47286-1.1836 0-0.50967-0.15573-0.89759-0.47286-1.1694-0.3143-0.27183-0.77583-0.40774-1.3818-0.40774h-1.2345zm-0.75035 4.0886c-0.13874 0-0.27749-6e-3 -0.4134-0.0198-0.13591-0.0113-0.23784-0.0283-0.30863-0.0453v-7.8744c0-0.20387 0.0453-0.36809 0.13873-0.49268 0.0906-0.12742 0.30014-0.19254 0.62294-0.19254h1.9339c0.56063 0 1.0533 0.0736 1.4781 0.22369 0.42472 0.15007 0.77866 0.35676 1.059 0.61727 0.28032 0.26333 0.48986 0.57196 0.63143 0.92873 0.13873 0.35393 0.20952 0.73336 0.20952 1.1354 0 0.43039-0.0764 0.82397-0.22934 1.1836-0.1529 0.3596-0.37376 0.66824-0.65692 0.92873-0.28597 0.25767-0.62859 0.45871-1.025 0.60311-0.39925 0.14441-0.84379 0.21803-1.3365 0.21803h-1.3535v2.169c0 0.17556-0.0538 0.3228-0.16423 0.43888-0.11043 0.11892-0.30581 0.17839-0.58612 0.17839"/>
   <path d="m159.65 155.35h2.5286l-1.2572-3.814zm-1.8377 3.5904c-0.12176 0-0.2605-0.0142-0.4134-0.0396-0.1529-0.0283-0.27466-0.068-0.36243-0.11892l2.9136-8.4011c0.16705-0.0453 0.33128-0.0736 0.49268-0.0934 0.16423-0.017 0.31712-0.0255 0.46719-0.0255 0.20953 0 0.38509 0.0142 0.521 0.0453 0.1359 0.0311 0.24917 0.0793 0.33977 0.14441 0.0934 0.068 0.16989 0.15007 0.23219 0.25201 0.0595 0.0991 0.11609 0.22368 0.16988 0.37375l2.6333 7.6903c-0.10477 0.0453-0.22369 0.0849-0.3596 0.11892-0.1359 0.034-0.26049 0.0538-0.37658 0.0538-0.20104 0-0.37659-0.0255-0.52382-0.0736-0.15007-0.0481-0.2605-0.17271-0.32846-0.37375l-0.63425-1.8801h-3.3554l-0.62577 1.8801c-0.0708 0.19254-0.17271 0.31429-0.30296 0.36809-0.13308 0.051-0.29448 0.0793-0.48701 0.0793"/>
   <path d="m168.44 158.98c-0.43039 0-0.89475-0.0453-1.4016-0.13025-0.50401-0.0878-1.0165-0.22085-1.5432-0.3964 0-0.034-3e-3 -0.0651-6e-3 -0.0906-6e-3 -0.0283-8e-3 -0.0566-8e-3 -0.0934 0-0.28881 0.0538-0.52382 0.15857-0.70221 0.10477-0.18122 0.27748-0.269 0.5125-0.269 0.11326 0 0.24918 0.017 0.40773 0.051 0.15857 0.0368 0.33412 0.0764 0.53233 0.11892 0.1982 0.0425 0.41623 0.0821 0.65691 0.11892 0.24067 0.034 0.50684 0.051 0.79566 0.051 0.60594 0 1.0363-0.1076 1.2968-0.32846 0.25766-0.21802 0.38791-0.49551 0.38791-0.82679 0-0.16706-0.0311-0.30864-0.0934-0.42756s-0.15006-0.22085-0.26332-0.30296c-0.11326-0.0821-0.25201-0.15573-0.41341-0.21803-0.16138-0.0595-0.34827-0.12176-0.56063-0.18405l-1.0901-0.30013c-0.85795-0.23785-1.4582-0.56631-1.7952-0.9882-0.33694-0.41906-0.504-0.90042-0.504-1.4441 0-0.27183 0.0481-0.55214 0.14441-0.83529 0.0963-0.28597 0.26332-0.54081 0.49834-0.77017 0.23785-0.22651 0.55214-0.41623 0.94572-0.5663 0.39641-0.14724 0.88908-0.22086 1.4866-0.22086 0.40207 0 0.83528 0.0368 1.294 0.11609 0.46153 0.0793 0.94006 0.2067 1.4412 0.38226v0.18404c0 0.29731-0.051 0.5295-0.15007 0.69655-0.10194 0.16706-0.26616 0.24918-0.49551 0.24918-0.11326 0-0.23785-0.0142-0.37376-0.0453-0.13592-0.0311-0.28881-0.0623-0.4587-0.0906-0.17272-0.0311-0.3681-0.0623-0.58612-0.0934-0.22086-0.0311-0.46437-0.0453-0.73619-0.0453-0.30864 0-0.56064 0.0283-0.76167 0.0849-0.20387 0.0566-0.36527 0.13308-0.48702 0.22935-0.12458 0.0963-0.21235 0.20387-0.26332 0.3228-0.0538 0.11891-0.0793 0.23784-0.0793 0.36243 0 0.28882 0.0991 0.50683 0.29447 0.65691 0.19821 0.15007 0.55215 0.29448 1.059 0.43322l1.1581 0.32845c1.5347 0.4049 2.2992 1.2006 2.2992 2.3926 0 0.38508-0.0623 0.73619-0.18971 1.0533-0.12741 0.3143-0.32562 0.58612-0.59745 0.81547-0.27182 0.22652-0.61443 0.40491-1.025 0.53232-0.41341 0.12459-0.90892 0.18971-1.4866 0.18971"/>
   <path d="m175.44 158.98c-0.43038 0-0.89476-0.0453-1.4016-0.13025-0.504-0.0878-1.0165-0.22085-1.5432-0.3964 0-0.034-3e-3 -0.0651-6e-3 -0.0906-6e-3 -0.0283-8e-3 -0.0566-8e-3 -0.0934 0-0.28881 0.0538-0.52382 0.15856-0.70221 0.10477-0.18122 0.27749-0.269 0.5125-0.269 0.11326 0 0.24917 0.017 0.40774 0.051 0.15856 0.0368 0.33411 0.0764 0.53232 0.11892 0.19821 0.0425 0.41623 0.0821 0.65691 0.11892 0.24068 0.034 0.50683 0.051 0.79565 0.051 0.60594 0 1.0363-0.1076 1.2968-0.32846 0.25767-0.21802 0.38792-0.49551 0.38792-0.82679 0-0.16706-0.0311-0.30864-0.0934-0.42756s-0.15007-0.22085-0.26333-0.30296c-0.11326-0.0821-0.25201-0.15573-0.4134-0.21803-0.16139-0.0595-0.34828-0.12176-0.56064-0.18405l-1.0901-0.30013c-0.85795-0.23785-1.4582-0.56631-1.7952-0.9882-0.33694-0.41906-0.504-0.90042-0.504-1.4441 0-0.27183 0.0481-0.55214 0.14441-0.83529 0.0963-0.28597 0.26333-0.54081 0.49834-0.77017 0.23785-0.22651 0.55215-0.41623 0.94572-0.5663 0.39641-0.14724 0.88909-0.22086 1.4866-0.22086 0.40207 0 0.83529 0.0368 1.294 0.11609 0.46153 0.0793 0.94006 0.2067 1.4412 0.38226v0.18404c0 0.29731-0.051 0.5295-0.15007 0.69655-0.10194 0.16706-0.26615 0.24918-0.49551 0.24918-0.11326 0-0.23785-0.0142-0.37375-0.0453-0.13592-0.0311-0.28882-0.0623-0.45871-0.0906-0.17272-0.0311-0.36809-0.0623-0.58612-0.0934s-0.46436-0.0453-0.73619-0.0453c-0.30863 0-0.56063 0.0283-0.76167 0.0849-0.20387 0.0566-0.36526 0.13308-0.48701 0.22935-0.12459 0.0963-0.21237 0.20387-0.26334 0.3228-0.0538 0.11891-0.0793 0.23784-0.0793 0.36243 0 0.28882 0.0991 0.50683 0.29731 0.65691 0.19538 0.15007 0.54931 0.29448 1.0562 0.43322l1.1581 0.32845c1.5347 0.4049 2.2992 1.2006 2.2992 2.3926 0 0.38508-0.0623 0.73619-0.18971 1.0533-0.12742 0.3143-0.32563 0.58612-0.59745 0.81547-0.27183 0.22652-0.61444 0.40491-1.025 0.53232-0.4134 0.12459-0.90892 0.18971-1.4866 0.18971"/>
   <path d="m180.75 158.94c-0.14158 0-0.27749-6e-3 -0.4134-0.0198-0.13591-0.0142-0.24067-0.0283-0.30863-0.0453v-7.9678c0-0.17555 0.0538-0.32278 0.16423-0.44171 0.10759-0.11609 0.30296-0.17556 0.58328-0.17556 0.14158 0 0.28032 6e-3 0.41623 0.0198 0.13591 0.0113 0.23785 0.0283 0.30864 0.0453v7.9678c0 0.17556-0.0566 0.3228-0.16423 0.43888-0.11043 0.11892-0.30581 0.17839-0.58612 0.17839"/>
   <path d="m186.97 157.71c0.3681 0 0.71354-0.0821 1.0392-0.24351 0.32279-0.1614 0.60877-0.38225 0.85512-0.66257 0.2435-0.28031 0.43604-0.61443 0.57762-0.99951 0.13875-0.38792 0.20952-0.79848 0.20952-1.2374 0-0.4389-0.0679-0.84662-0.20386-1.2289-0.13591-0.38226-0.32279-0.71071-0.56347-0.98536-0.2435-0.27748-0.52383-0.49268-0.84944-0.65124-0.3228-0.15857-0.6739-0.23784-1.0505-0.23784-0.36809 0-0.71637 0.0793-1.0392 0.23218-0.32562 0.1529-0.60878 0.3681-0.84945 0.64275-0.24068 0.27749-0.43039 0.60312-0.57196 0.9797-0.13874 0.37659-0.20953 0.78999-0.20953 1.2374 0 0.45588 0.068 0.87493 0.20387 1.26 0.1359 0.38791 0.32562 0.7192 0.5663 0.99951 0.24067 0.28032 0.52382 0.50117 0.84662 0.65691 0.32561 0.15857 0.67106 0.23785 1.0392 0.23785m0.0142 1.3138c-0.62293 0-1.1921-0.11609-1.7102-0.34827-0.51816-0.23218-0.95987-0.55215-1.328-0.95988-0.3681-0.40774-0.65407-0.8806-0.86077-1.4186-0.2067-0.54081-0.30863-1.1213-0.30863-1.7414 0-0.61443 0.10193-1.1921 0.30863-1.7301s0.49268-1.0052 0.86077-1.3988c0.3681-0.39642 0.80981-0.70787 1.328-0.9344 0.51817-0.22936 1.0873-0.34262 1.7102-0.34262 0.62009 0 1.1921 0.11326 1.7074 0.34262 0.51816 0.22652 0.95987 0.53798 1.328 0.9344 0.36809 0.39357 0.65691 0.85794 0.86078 1.3931 0.20669 0.53515 0.30863 1.1128 0.30863 1.7357 0 0.6201-0.10194 1.2006-0.30863 1.7414-0.20387 0.53798-0.49269 1.0109-0.86078 1.4186-0.3681 0.40769-0.80981 0.72769-1.328 0.95988-0.51534 0.23218-1.0873 0.34827-1.7074 0.34827"/>
   <path d="m193.17 158.94c-0.13025 0-0.2605-6e-3 -0.38792-0.0142-0.12742-8e-3 -0.22652-0.0198-0.29448-0.0396v-8.4662c0.0963-0.0425 0.21803-0.0765 0.36527-0.0991 0.15007-0.0198 0.28598-0.0311 0.40773-0.0311 0.35111 0 0.60312 0.0453 0.75601 0.13591 0.1529 0.0934 0.28598 0.22652 0.39925 0.40207l3.8282 5.9178-0.0793-5.8782c0-0.15856 0.051-0.29447 0.15289-0.40773 0.0991-0.11326 0.28315-0.16989 0.54649-0.16989 0.12174 0 0.24633 6e-3 0.37375 0.0198 0.12742 0.0113 0.22652 0.0283 0.29448 0.0453v8.4662c-0.20104 0.0793-0.43889 0.11892-0.70787 0.11892-0.31714 0-0.54932-0.0453-0.69655-0.13874-0.15007-0.0906-0.27183-0.21235-0.3681-0.35959l-3.9584-6.167 0.0793 6.0877c0 0.16706-0.051 0.30297-0.15291 0.41339-0.0991 0.11043-0.28598 0.16423-0.5578 0.16423"/>
  </g>
 </g>
</svg>
