<svg enable-background="new 0 0 2635 272" version="1.1" viewBox="0 0 2635 272" xml:space="preserve" xmlns="http://www.w3.org/2000/svg">
<style type="text/css">
	.st0{fill:#FFFFFF;}
	.st1{opacity:0.949;fill:#A9A9A9;enable-background:new    ;}
	.st2{fill:url(#j);}
	.st3{fill:url(#i);}
	.st4{fill:url(#h);}
	.st5{fill:url(#g);}
	.st6{fill:url(#b);}
	.st7{fill:url(#a);}
	.st8{fill:url(#f);}
	.st9{fill:url(#e);}
	.st10{fill:url(#d);}
	.st11{fill:url(#c);}
	.st12{fill:#9D0009;}
	.st13{opacity:0.2;fill:#FFFFFF;enable-background:new    ;}
</style>
		<path class="st0" d="m2614.7 265.2c9.4 0 13.6-4.6 13.6-13.6v-231.1c0-8.8-4.2-13.6-13.6-13.6l-1267.7-0.1 0.1 258.4h1267.6z"/>
		<path class="st1" d="m2614.7 6.9c9.4 0 13.6 4.8 13.6 13.6v231.1c0 9-4.2 13.6-13.6 13.6h-1267.6v6.8h1270.1c10 0 17.9-8.4 17.9-17.9v-235.9c0-9.9-8.1-18.2-18.2-18.2h-1270v6.8l1267.8 0.1z"/>
			<linearGradient id="j" x1="1854.3" x2="1854.3" y1="2735.9" y2="2577.2" gradientTransform="translate(0 -2519.6)" gradientUnits="userSpaceOnUse">
			<stop stop-color="#9D0009" stop-opacity="0" offset="0"/>
			<stop stop-color="#9D0009" stop-opacity=".14" offset=".068766"/>
			<stop stop-color="#9D0009" offset=".5"/>
			<stop stop-color="#9D0009" stop-opacity=".14" offset=".9312"/>
			<stop stop-color="#9D0009" stop-opacity="0" offset="1"/>
		</linearGradient>
		<rect class="st2" x="1851.3" y="57.6" width="5.9" height="158.7"/>
				<linearGradient id="i" x1="2150.3" x2="2150.3" y1="218.5" y2="71.1" gradientTransform="matrix(1 0 0 -1 0 274)" gradientUnits="userSpaceOnUse">
				<stop stop-color="#AE0019" offset="0"/>
				<stop stop-color="#AA0016" offset=".3448"/>
				<stop stop-color="#9D000C" offset=".7015"/>
				<stop stop-color="#8D0000" offset="1"/>
			</linearGradient>
			<path class="st3" d="m2140.1 192.2c0.2 2.8-0.6 5.8-2.8 7.7-1.7 1.5-3.9 2.1-6.2 2.1h-89.6l-0.4-2.4c-0.2-0.6-0.2-1.7-0.4-2.8-0.2-1.3-0.2-2.6-0.2-3.9 0-2.1 0.4-4.3 1.1-6.2 0.9-2.6 2.1-4.7 4.1-6.4l47-42.9c3.4-3.2 6.9-6.4 9.9-9.4 2.8-2.8 5.4-5.8 7.7-9 1.9-2.8 3.6-5.8 4.9-9 1.1-3 1.7-6.2 1.7-9.4 0-8.1-2.6-14.2-7.5-18.9s-12.4-6.9-21.7-6.9c-4.3 0-8.4 0.4-12.4 1.7-3.2 1.1-6.4 2.4-9.6 3.9-2.8 1.5-5.1 2.8-7.3 3.9-6.4 3.9-11.1 2.6-13.9-1.7-1.7-2.6-2.6-5.6-2.8-8.6l-0.2-1.7 1.3-1.1c2.6-1.9 5.1-3.9 7.9-5.4 7.1-4.1 14.8-7.1 22.7-8.8 4.5-1.1 9.2-1.5 13.9-1.5 7.1 0 13.9 0.9 20.8 3.2 5.8 1.9 11.1 4.9 15.9 9.2 4.3 3.9 7.7 8.8 10.1 14.2 2.4 5.8 3.6 11.8 3.6 18 0 4.9-0.9 10.1-2.6 14.8-1.7 4.5-4.1 8.8-6.9 12.9-3 4.1-6.2 8.1-9.9 11.6-3.6 3.6-7.5 7.3-11.4 10.7l-36.5 32.8h68.6l0.4 2.4c0.2 0.9 0.2 1.7 0.4 3 0.3 1.3 0.3 2.6 0.3 3.9zm119.6-36.5c0-1.1-0.2-2.1-0.4-3.2l-0.4-2.4h-22.3v-92.1h-19.3l-67.3 91.3c-1.3 1.7-2.1 3.4-2.8 5.6-0.4 1.7-0.9 3.6-0.6 5.4 0 1.3 0.2 2.6 0.2 3.6 0.2 1.1 0.2 2.1 0.4 2.8l0.4 2.4h68.8v32.4l1.9 0.6c1.3 0.4 2.6 0.6 4.1 0.6s2.6 0.2 3.9 0.2c9.4 0 10.5-5.8 10.5-8.4v-25.7h14.6c2.1 0 4.3-0.9 6-2.4 1.9-1.9 2.8-4.7 2.6-7.3-0.3-1-0.3-2.1-0.3-3.4zm-43.3-64.7v59.4h-44.2l44.2-59.4z"/>
				<linearGradient id="h" x1="1968.2" x2="1968.2" y1="200.8" y2="84.9" gradientTransform="matrix(1 0 0 -1 0 274)" gradientUnits="userSpaceOnUse">
				<stop stop-color="#AE0019" offset="0"/>
				<stop stop-color="#AA0016" offset=".3448"/>
				<stop stop-color="#9D000C" offset=".7015"/>
				<stop stop-color="#8D0000" offset="1"/>
			</linearGradient>
			<path class="st4" d="m1967 189.1c-1.4 0-2.7-0.1-3.8-0.2-1.4-0.2-2.4-0.5-3.3-0.8l-1.4-0.6v-48.9h-44.9l-0.3-1.8c-0.1-0.8-0.3-1.8-0.5-2.9-0.1-1.2-0.2-2.6-0.2-4 0-3.3 0.8-5.5 2.4-7 1.5-1.4 3.5-2.1 6-2.1h37.6v-40c0-2.1 0.8-4.1 2.4-5.5 1.6-1.5 3.8-2.1 7-2.1 1.4 0 2.7 0.1 3.8 0.2 1.2 0.2 2.4 0.5 3.3 0.8l1.5 0.6v46h46.2l0.3 1.8c0.1 0.8 0.3 1.8 0.5 2.9 0.1 1.2 0.2 2.6 0.2 4 0 3.3-0.8 5.7-2.4 7.1-1.5 1.4-3.5 2.1-6 2.1h-38.9v42.8c0 2.3-0.8 4.1-2.4 5.5s-4 2.1-7.1 2.1z"/>
			<linearGradient id="g" x1="2315.3" x2="2315.3" y1="2735.9" y2="2577.2" gradientTransform="translate(0 -2519.6)" gradientUnits="userSpaceOnUse">
			<stop stop-color="#9D0009" stop-opacity="0" offset="0"/>
			<stop stop-color="#9D0009" stop-opacity=".14" offset=".068766"/>
			<stop stop-color="#9D0009" offset=".5"/>
			<stop stop-color="#9D0009" stop-opacity=".14" offset=".9312"/>
			<stop stop-color="#9D0009" stop-opacity="0" offset="1"/>
		</linearGradient>
		<rect class="st5" x="2312.3" y="57.6" width="5.9" height="158.7"/>
		<g transform="translate(121.74 4.6824)">
				<linearGradient id="b" x1="2169.3" x2="2169.3" y1="202.12" y2="73.818" gradientTransform="matrix(1 0 0 -1 121.74 269.32)" gradientUnits="userSpaceOnUse">
				<stop stop-color="#AE0019" offset="0"/>
				<stop stop-color="#AA0016" offset=".3448"/>
				<stop stop-color="#9D000C" offset=".7015"/>
				<stop stop-color="#8D0000" offset="1"/>
			</linearGradient>
			<path class="st6" d="m2336.9 67.6c-1.2-0.4-2.5-0.4-3.7-0.4-3.3 0-5.7 0.8-7.4 2-1.6 1.2-2.5 3.3-2.5 5.7v47.5h-64.6v-53.2l-1.6-0.8c-0.8-0.4-2-0.8-3.3-0.8-1.2-0.4-2.5-0.4-3.7-0.4-3.3 0-5.7 0.8-7.4 2-1.6 1.2-2.5 3.3-2.5 5.7v118.6l1.6 0.8c0.8 0.4 2 0.8 3.3 0.8 1.2 0.4 2.5 0.4 3.7 0.4 3.3 0 5.7-0.8 7.4-2 1.6-1.2 2.5-3.3 2.5-5.7v-49.1h64.6v54.8l1.6 0.8c0.8 0.4 2 0.8 3.3 0.8 1.2 0.4 2.5 0.4 3.7 0.4 3.3 0 5.7-0.8 7.4-2 1.6-1.2 2.5-3.3 2.5-5.7v-118.6l-1.6-0.8c-0.4-0.4-1.6-0.8-3.3-0.8z"/>
				<linearGradient id="a" x1="2301.8" x2="2301.8" y1="200.72" y2="75.518" gradientTransform="matrix(1 0 0 -1 121.74 269.32)" gradientUnits="userSpaceOnUse">
				<stop stop-color="#AE0019" offset="0"/>
				<stop stop-color="#AA0016" offset=".3448"/>
				<stop stop-color="#9D000C" offset=".7015"/>
				<stop stop-color="#8D0000" offset="1"/>
			</linearGradient>
			<path class="st7" d="m2471.5 105c-3.3-7.8-7.8-14.3-13.9-19.6s-13.5-9.4-21.7-12.3-18-4.5-28.2-4.5h-28.6c-3.7 0-6.1 0.8-7 2.5-0.8 1.2-1.6 3.3-1.6 4.9v110.4c0 2 0.4 3.7 1.6 4.9 1.2 1.6 3.7 2.5 7 2.5h28.6c10.2 0 20-1.6 28.2-4.9 8.6-3.3 15.5-7.8 21.7-13.9 6.1-5.7 10.6-12.7 13.9-20.5s4.9-16 4.9-25c0-8.1-1.6-16.7-4.9-24.5zm-18.4 46.6c-2.5 6.1-6.1 11-10.6 14.7-4.5 4.1-9.8 7-15.5 9-6.1 2-12.3 3.3-18.8 3.3h-19.3v-93.2h19.2c6.5 0 13.1 1.2 19.2 3.3s11 4.9 15.5 9c4.5 3.7 8.2 8.6 10.6 14.3 2.5 5.7 4.1 12.3 4.1 19.2-0.3 7.3-1.6 14.3-4.4 20.4z"/>
		</g>
				<linearGradient id="f" x1="1470.4" x2="1470.4" y1="845.17" y2="1009.6" gradientTransform="translate(0 -808.51)" gradientUnits="userSpaceOnUse">
				<stop stop-color="#AE0019" offset="0"/>
				<stop stop-color="#AA0016" offset=".3448"/>
				<stop stop-color="#9D000C" offset=".7015"/>
				<stop stop-color="#8D0000" offset="1"/>
			</linearGradient>
			<path class="st8" d="m1412.7 140.5c0-37.5 26.4-60.5 56.1-60.5 17.9 0 32.2 8.3 40.7 20.4v-56.6c0-4.4 2.5-7.1 10-7.1 3.3 0 7 0.4 8.7 1.1v160.6c-1.6 0.4-5.3 1.2-8.7 1.2-7.4 0-10-2.9-10-7.1v-11.5c-8.5 12-22.9 20.4-40.7 20.4-29.7-0.9-56.1-23.5-56.1-60.9m19.3 0c0 25.7 17.2 43.3 40.3 43.3 16 0 30.7-9 37.3-22.7v-42.1c-6.7-13.3-21.3-22.7-37.3-22.7-23.2 0.5-40.3 18.1-40.3 44.2"/>
				<linearGradient id="e" x1="1608.7" x2="1608.7" y1="890.85" y2="1008.5" gradientTransform="translate(0 -808.51)" gradientUnits="userSpaceOnUse">
				<stop stop-color="#AE0019" offset="0"/>
				<stop stop-color="#AA0016" offset=".3448"/>
				<stop stop-color="#9D000C" offset=".7015"/>
				<stop stop-color="#8D0000" offset="1"/>
			</linearGradient>
			<path class="st9" d="m1659.2 83.3v114.4c-2 0.5-5.8 1-9.4 1-7.4 0-9.9-3.1-9.9-7.7v-8.4c-8.9 9.9-21.8 17.5-38.8 17.5-23.5 0-42.8-14.9-42.8-48.8v-61.5c0-4.6 2.6-7.4 10.6-7.4 3.3 0 7.2 0.5 9.1 1v65.2c0 23.1 11.3 34 28.3 34 13.4 0 27.6-9.1 33.6-20v-72.8c0-4.6 2.4-7.4 10.4-7.4 3.1-0.1 7 0.4 8.9 0.9"/>
				<linearGradient id="d" x1="1738.9" x2="1738.9" y1="-684.21" y2="-804.34" gradientTransform="matrix(1 0 0 -1 0 -604)" gradientUnits="userSpaceOnUse">
				<stop stop-color="#AE0019" offset="0"/>
				<stop stop-color="#AA0016" offset=".3448"/>
				<stop stop-color="#9D000C" offset=".7015"/>
				<stop stop-color="#8D0000" offset="1"/>
			</linearGradient>
			<path class="st10" d="m1741.1 96.9c31.6 0 34 32.1 34 35.5h-72.1c0.2 0.1 4.9-35.5 38.1-35.5zm0.4-16.7c-34.6 0-57.8 27.4-57.8 59.7 0 35.2 23.4 60.5 60.5 60.5 24.6 0 42.6-9.5 42.6-9.5 1.3-9.3-1.9-15.1-7.3-15.1-6.3 0-16 7.3-34.2 7.3-39.4 0-42-35-42-35h89.9c5.2-31.4-10.9-67.9-51.7-67.9z"/>
		<path class="st0" d="M490.1,265.3L490,6.9H20.4C11,6.9,6.8,11.5,6.8,20.4v231.1c0,8.8,4.2,13.6,13.6,13.6L490.1,265.3"/>
			<linearGradient id="c" x1="900.06" x2="900.06" y1="3368" y2="3639.7" gradientTransform="translate(0 -3368)" gradientUnits="userSpaceOnUse">
			<stop stop-color="#AE0019" offset="0"/>
			<stop stop-color="#AA0016" offset=".3448"/>
			<stop stop-color="#9D000C" offset=".7015"/>
			<stop stop-color="#8D0000" offset="1"/>
		</linearGradient>
		<path class="st11" d="M452.7,0h894.7v271.7H452.7V0z"/>
			<path class="st0" d="m504.5 135.8c0-38.4 28.4-65.5 64.6-65.5 25.2 0 44 10.3 44 10.3 1.4 9.1-2 16.4-8.7 16.4-8.5 0-15.3-8.3-34.6-8.3-23.9 0-44.2 18.2-44.2 47.5 0 28.9 20.1 47.6 44.2 47.6 19.7 0 26.7-8.3 34.9-8.3 6.6 0 9.8 6.9 8.4 16.4 0 0-19.1 9.9-43.8 9.9-35.2 0.1-64.8-25.3-64.8-66z"/>
			<path class="st0" d="m642 199.1c14.8 3.3 20.9-0.7 20.9-7.3v-118.7c-15.3-3.1-20.9 0.2-20.9 6.8v119.2zm24.1-160.8c0 7.5-6 13.4-13.4 13.4-7.5 0-13.4-6-13.4-13.4s6-13.4 13.4-13.4c7.4-0.1 13.4 5.9 13.4 13.4"/>
			<path class="st0" d="m696.6 199.1v-126c11.7-2.4 20.6-1.6 20.6 6.8v10.3s14.4-20.1 42.3-20.1c26.9 0 47.5 18.2 47.5 52.1v70.7c0 8.8-11.5 8-20.5 6.2v-74.2c0-20.8-11.9-36.5-31.6-36.5-23.3 0-37.7 22.2-37.7 22.2v81.5c0.1 6.8-5.7 10-20.6 7z"/>
			<path class="st0" d="m892.5 88.5c34.6 0 37.3 35.1 37.3 38.8h-78.8s5-38.8 41.5-38.8zm0.4-18.4c-37.8 0-63.4 30-63.4 65.3 0 38.5 25.5 66.2 66.2 66.2 26.9 0 46.5-10.4 46.5-10.4 1.5-10.2-2-16.4-8-16.4-6.9 0-17.5 8-37.4 8-43.1 0-45.9-38.3-45.9-38.3h98.4c5.7-34.5-11.8-74.4-56.4-74.4z"/>
			<path class="st0" d="m976.4 198.9v-125.8c11.5-2.7 20.2-1.8 20.2 7.3v8.7s12.8-19 36.6-19c17 0 31.1 10.4 36.1 23.1 6.8-9.9 18.7-23.1 41.1-23.1 25 0 41.4 18.6 41.4 46.1v75.8c0 7.5-5.8 9.6-20.8 7.2v-81.7c0-14.7-7.3-28.9-25.5-28.9-20.6 0-31.2 20.1-31.2 20.1v83.7c0 5.8-4.2 9.8-20.8 6.6v-83.3c0-13.7-8-27.1-25.5-27.1-20.9 0-31.2 20.6-31.2 20.6v83.2c0 7.6-7.5 9.5-20.4 6.5z"/>
			<path class="st0" d="m1250.6 138.2c4.1 0 8.3 0.1 12.9 0.4v24.1s-14.7 21.7-41.5 21.7c-15.1 0-26.5-9.1-26.5-21.7 0-15.2 16.2-24.6 55.1-24.5zm-17.6-68.1c-26.3 0-48.8 9-48.8 9-1.6 8.4 0.8 16.7 7.7 16.7 6.5 0 20.6-7.5 40.6-7.5 25.8 0 31.1 14.5 31.1 28.6v6s-7.6-0.5-17.5-0.5c-49.8 0-71.5 16-71.5 41.2 0 17.5 12.8 38.3 44.5 38.3 29.3 0 44.6-19.7 44.6-19.7v9.2c0 8.4 6.6 10.6 20.6 7.9v-84.7c-0.2-21.4-10.6-44.5-51.3-44.5z"/>
		<path class="st1" d="m20.3 265.1c-9.4 0-13.6-4.7-13.6-13.6v-231c0-9 4.2-13.6 13.6-13.6h431.8v-6.8h-434.2c-10 0-17.9 8.4-17.9 17.9v235.8c0 9.9 8.1 18.2 18.2 18.2h434.1v-6.8l-432-0.1z"/>
		<path class="st12" d="m305.8 241.7c3 1.6 8.8 3.4 16.6 3.4 12.9 0.3 19.9-4.7 25.1-16.3l69.3-154.4c-3-1.6-9.2-3.1-14.2-3.4-8.8-0.3-20.9 1.6-28.5 19.9l-22.5 52.9-44.2-71.4c-3-0.9-9.8-2-14.9-2-15.5 0-24.3 5.7-33.2 15.5l-42.6 46.7 34.5 54.1c6.4 9.9 14.8 14.9 28.4 14.9 8.8 0 16.3-2 19.7-3.7l-41.4-62.5 29.3-30.9 48.3 75.7-29.7 61.5zm-90.9-58.4c0 11.3-4.5 17.9-26.7 17.9-3 0-5.4-0.3-7.9-0.7v-150.7c0-11.5 3.8-23.3 26.3-23.3 2.7 0 5.7 0.3 8.4 0.9l-0.1 155.9zm-46-22.5c0 21.3-13.8 36.6-42.1 39.9-20.3 2.3-50.1-0.4-64-2-0.4-2.3-0.9-5.2-0.9-7.5 0-18.6 9.9-22.9 19.5-22.9 9.8 0 25.1 1.6 36.6 1.6 12.6 0 16.3-4.3 16.3-8.4 0-5.4-5-7.5-14.9-9.5l-26.5-4.7c-22.2-4.4-33.9-19.8-33.9-36.1 0-19.9 14-36.5 41.6-39.6 20.9-2.3 46.4 0.3 60.2 2 0.4 2.4 0.7 4.7 0.7 7.2 0 18.6-9.8 22.4-19.3 22.4-7.2 0-18.3-1.4-31.2-1.4-13.2 0-18.3 3.7-18.3 7.9 0 4.5 5.2 6.5 13.3 7.9l25.5 4.7c26.3 5.1 37.4 20 37.4 38.5"/>
		<path class="st13" d="M1347.4,0H18.2c-9.9,0-18,8.1-18,18.2v164.1c0-14.5,11.5-26.6,26-27l1321.2-51.8V0z"/>
</svg>
