<svg enable-background="new 0 0 3961.3 500" version="1.1" viewBox="0 0 1322.6 147" xml:space="preserve" xmlns="http://www.w3.org/2000/svg">
<path d="m1310 0h-616.89c-7.0843 2e-3 -12.827 4.3834-12.832 9.7902v127.41c-4e-3 5.4095 5.7438 9.7951 12.832 9.7902h616.89c7.0872 5e-3 12.679-4.3813 12.673-9.7903l5e-4 -127.41c0-5.4063-5.5896-9.7885-12.673-9.7901m0 2.94c4.9502 5e-3 8.9615 3.0663 8.968 6.8443l-1e-4 127.42c0 3.7819-4.0126 6.8496-8.9679 6.8561h-616.89c-4.9583-5e-3 -8.9739-3.0748-8.9718-6.859v-127.41c3e-3 -3.7814 4.017-6.847 8.9718-6.8502h616.89" fill="#b40026" stroke-width=".33653"/><path d="m1310 2.94a8.9794 6.8531 0 0 1 8.9679 6.8443v127.42a8.9833 6.8561 0 0 1-8.9679 6.8561h-616.89a8.9833 6.8561 0 0 1-8.9718-6.859v-127.41a8.9794 6.8531 0 0 1 8.9718-6.8502h616.89" fill="#fff" stroke-width=".33653"/><path d="m1164.5 19.252c0.5601 0 1.011 0.45091 1.011 1.011v114.91c0 0.56009-0.4509 1.011-1.011 1.011s-1.011-0.45091-1.011-1.011v-114.91c0-0.56009 0.4509-1.011 1.011-1.011z" fill="#b40026" fill-rule="evenodd" opacity=".999" stroke="#b40026"/><path d="m1234 46.922v54.06c0 2.3708-1.2 3.6879-4.888 3.6879-1.6683 0-3.2195-0.23416-4.4196-0.46831v-24.908h-30.85v21.689c0 2.3708-1.2001 3.6879-4.8879 3.6879-1.7854 0-3.5709-0.23416-4.4197-0.46831v-54.06c0-2.283 1.2-3.6879 5.0051-3.6879 1.6682 0 3.3073 0.23415 4.2732 0.46831v24.059h30.704v-20.84c0-2.283 1.3171-3.6879 5.1221-3.6879 1.7269-0.0293 3.3952 0.20488 4.3611 0.46831" fill="#9b001f" stroke="#b40026" stroke-width=".29269"/><path d="m1297.3 75.489c0 16.186-11.327 28.479-29.064 28.479h-16.566c-3.5709 0-4.888-1.4342-4.888-3.6879v-49.436c0-2.2537 1.3171-3.6879 4.888-3.6879h16.566c17.737 0 29.064 12.147 29.064 28.333m-9.4247 0c0-12.147-7.61-20.02-19.64-20.02h-12.147v40.157h12.147c12 0 19.64-7.8734 19.64-20.137" fill="#9b001f" stroke="#9b001f" stroke-width=".29269"/><g transform="matrix(.29398 0 0 .29398 -.011465 0)">
	
		
		
		<path d="m2558 252.3c0-58.2 42.7-101.3 99.3-101.3 26.4 0 50.8 7.3 67.9 15.5 2.8 18.3-2.9 25.7-11 25.7-14.2 0-26.4-11.8-55.7-11.8-36.6 0-66.7 27.3-66.7 72 0 44.3 30.1 72 66.7 72 29.3 0 41.5-12.2 54.5-12.2 8.5 0 14.6 7.7 12.2 26.1-17.1 8.5-41.5 15.9-67.9 15.9-56.6-0.2-99.3-44.1-99.3-101.9" fill="#9b001f"/>
		<path d="m2763.8 350.3v-253c0-7.8 4.5-12.6 17.9-12.6l15.5 1.6v253.1c0 8.2-4.5 12.6-17.9 12.6l-15.5-1.7" fill="#9b001f"/>
		<path d="m3005.6 225v125.3l-15.1 1.6c-12.2 0-17.9-4.5-17.9-12.6v-17.1c-17.5 20-40.2 31.7-69.1 31.7-43.5 0-67.6-28.5-67.6-59.4 0-47.2 50.5-67.9 136.3-62.2v-6.9c0-32.2-9.7-45.6-46.8-45.6-15.5 0-36.2 4.4-47.2 7.3-6.5 1.6-11.4 3.2-15.5 3.2-9.3 0-15.5-8.1-12.2-25.3 20-7.3 48.9-14.2 76.5-14.2 57.4 0.2 78.6 25.8 78.6 74.2m-33.4 68.4v-37c-56.2-4.1-102.9 3.2-102.9 37 0 17.1 14.2 32.5 39.8 32.5 26.1 0 48.9-13 63.1-32.5" fill="#9b001f"/>
		<path d="m3046.7 340.6c-2.4-17.1 2.8-26.1 12.6-26.1 9.3 0 32.1 10.2 63.8 10.2 33.4 0 46-11.8 46-27.3 0-11-4.9-20.8-35-28.9l-34.6-9.3c-38.2-10.1-53.3-29.3-53.3-52.9 0-29.3 23.2-55.4 75.7-55.4 23.6 0 52.9 5.3 70.8 12.2 3.2 16.7-2 25.6-12.2 25.6-8.9 0-29.3-8.5-58.2-8.5-30.9 0-42.3 10.6-42.3 24.4 0 9.8 4.4 18.7 32.1 26.5l35.4 9.7c39.4 11 55.3 29.3 55.3 55.4 0 30.5-23.6 57.8-80.6 57.8-25.1 0-56.4-6.1-75.5-13.4" fill="#9b001f"/>
		<path d="m3230.4 340.6c-2.4-17.1 2.8-26.1 12.6-26.1 9.3 0 32.1 10.2 63.8 10.2 33.4 0 46-11.8 46-27.3 0-11-4.9-20.8-35-28.9l-34.6-9.3c-38.2-10.1-53.3-29.3-53.3-52.9 0-29.3 23.2-55.4 75.7-55.4 23.6 0 52.9 5.3 70.8 12.2 3.2 16.7-2 25.6-12.2 25.6-8.9 0-29.3-8.5-58.2-8.5-30.9 0-42.3 10.6-42.3 24.4 0 9.8 4.4 18.7 32.1 26.5l35.4 9.7c39.4 11 55.3 29.3 55.3 55.4 0 30.5-23.6 57.8-80.6 57.8-25 0-56.3-6.1-75.5-13.4" fill="#9b001f"/>
		<path d="m3421.5 110.2c0-12.2 9.8-21.2 21.2-21.2 12.2 0 21.6 9 21.6 21.2 0 11-9.3 21.2-21.6 21.2-11.4 0-21.2-10.1-21.2-21.2m4.5 240.1v-184.7c0-7.7 4.5-12.6 17.9-12.6l15.1 1.6v184.7c0 8.2-4 12.6-17.5 12.6l-15.5-1.6" fill="#9b001f"/>
		<path d="m3499.3 252.3c0-58.2 42.7-101.3 99.3-101.3 26.4 0 50.8 7.3 67.9 15.5 2.8 18.3-2.9 25.7-11 25.7-14.2 0-26.4-11.8-55.7-11.8-36.6 0-66.7 27.3-66.7 72 0 44.3 30.1 72 66.7 72 29.3 0 41.5-12.2 54.5-12.2 8.5 0 14.6 7.7 12.2 26.1-17.1 8.5-41.5 15.9-67.9 15.9-56.5-0.2-99.3-44.1-99.3-101.9" fill="#9b001f"/>
		<path d="m3697 340.6c-2.4-17.1 2.8-26.1 12.6-26.1 9.3 0 32.1 10.2 63.8 10.2 33.4 0 46-11.8 46-27.3 0-11-4.9-20.8-35-28.9l-34.6-9.3c-38.2-10.1-53.3-29.3-53.3-52.9 0-29.3 23.2-55.4 75.7-55.4 23.6 0 52.9 5.3 70.8 12.2 3.2 16.7-2 25.6-12.2 25.6-8.9 0-29.3-8.5-58.2-8.5-30.9 0-42.3 10.6-42.3 24.4 0 9.8 4.4 18.7 32.1 26.5l35.4 9.7c39.4 11 55.3 29.3 55.3 55.4 0 30.5-23.6 57.8-80.6 57.8-25 0-56.3-6.1-75.5-13.4" fill="#9b001f"/>
	
	<g transform="translate(-15.061,-164.86)">
		<path d="m238.3 464.7c0 43-28 74.2-85.2 80.4-41.2 4.4-101-0.8-129.4-4-1-4.6-1.8-10.4-1.8-15 0-37.4 20.2-46 39.2-46 19.8 0 51 3.4 74 3.4 25.6 0 33.2-8.6 33.2-16.8 0-10.8-10.2-15.2-30-19l-54.2-10.4c-45-8.6-69-39.6-69-72.6 0-40 28.4-73.6 84.4-79.8 42.2-4.6 93.8 0.6 122 4 1 4.8 1.6 9.4 1.6 14.4 0 37.4-19.8 45.4-38.8 45.4-14.6 0-37.2-2.6-63.2-2.6-26.4 0-37.2 7.2-37.2 16 0 9.4 10.4 13.2 26.8 16.2l51.6 9.6c53.2 9.6 76 39.8 76 76.8m92.6 46c0 23-9 36.2-54 36.2-6 0-11.2-0.4-16.2-1.2v-304.8c0-23.2 7.8-47.4 53.2-47.4 5.8 0 11.6 0.6 17 1.8zm183.8 118c6 3 18 6.8 33.2 7 26.2 0.6 40.4-9.4 51-32.8l140-311.6c-5.8-3-18.6-6.6-29-6.8-18-0.4-42.2 3.2-57.6 40l-45.6 106.6-89-144.6c-5.8-1.8-19.8-4.2-30-4.2-31.6 0-49 11.6-67.2 31.2l-86.4 94.4 69.6 109.4c12.8 20 29.8 30.2 57.2 30.2 18 0 33-4.2 40-7.4l-83.8-126 59.4-63 97.4 152.6z" fill="#ff0031"/>
		
			<linearGradient id="b" x1="1301.2" x2="1522.8" y1="-719.93" y2="-719.93" gradientTransform="matrix(7.5001,0,0,7.5001,-8945.9,5814.4)" gradientUnits="userSpaceOnUse">
			<stop stop-color="#FF0031" offset="0"/>
			<stop stop-color="#9B001F" offset="1"/>
		</linearGradient>
		<path d="m2441.7 164.9h-1594.8c-18.4 0-33.4 15-33.4 33.4v433.2c0 18.4 15 33.4 33.4 33.4h1594.6c18.4 0 33.4-15 33.4-33.4v-433.4c-0.2-18.4-14.8-33.2-33.2-33.2" fill="url(#b)"/>
		
			<linearGradient id="c" x1="1473.4" x2="1477.8" y1="-1385.5" y2="-1385.5" gradientTransform="matrix(-1.3157,-37.678,37.678,-1.3157,54523,54118)" gradientUnits="userSpaceOnUse">
			<stop stop-color="#fff" offset="0"/>
			<stop stop-color="#fff" stop-opacity=".4" offset=".5"/>
			<stop stop-color="#fff" stop-opacity=".25" offset="1"/>
		</linearGradient>
		<path d="m260.9 240.9v209c0-8.4 6.4-17.2 17.2-17.6 7.6-0.2 28.8-1 35.2-1.2 7-0.2 17.6-5 17.8-17.8v-218c-5.4-1.2-11.2-1.8-17-1.8-45.4 0.2-53.2 24.2-53.2 47.4m160 72.8-86.4 94.4 7 10.8c3 4 8.8 10.8 20.4 10.4 4.2-0.2 45.8-1.6 49.2-1.8 10.8-0.4 17.6 4.2 21.8 9.8l-15.4-23.2 59.4-63 39.8 62.6c7.2 9.4 18 9.6 20.4 9.6 2 0 54.4-1.8 56.6-2 3.6-0.2 7.8 1.8 11 6.4l-86.6-140.8c-5.8-1.8-19.8-4.2-30-4.2-31.6-0.2-49 11.2-67.2 31m-321.4-29c-56 6.2-84.4 39.6-84.4 79.8 0 20.6 9.4 40.4 27.4 54.6 13.6 9 27.6 12.4 41.4 14.8 11.4 2 38 3.8 57.8 3 6.2-0.2 51.8-1.8 61.6-2.2 23.2-0.8 35.6 19 34.4 38.8v-1c0.2-2.6 0.4-5.2 0.4-7.8 0-37-22.8-67.2-75.8-77l-51.6-9.6c-16.6-2.8-26.8-6.8-26.8-16.2 0-8.8 11-16.2 37.2-16.2 26 0 48.6 2.6 63.2 2.6 19 0 38.8-8 38.8-45.4 0-5-0.6-9.6-1.6-14.4-20.2-2.4-52.6-5.8-84.8-5.8-12.6 0.2-25.2 0.8-37.2 2m552.6 39.8-44.2 104.2c0-0.2 2.8-8.2 11.4-8.6 0 0 43.6-1.6 46.8-1.6 14.2-0.6 19.8-10.2 21.4-13.4l51.2-114.2c-5.8-3-18.6-6.6-29-6.8h-2.2c-17.8 0.2-40.6 5-55.4 40.4" enable-background="new    " fill="url(#c)" opacity=".3"/>
		
			<linearGradient id="a" x1="1491.2" x2="1495.7" y1="-1356.9" y2="-1356.9" gradientTransform="matrix(-1.9565,-56.026,56.026,-1.9565,80584,81284)" gradientUnits="userSpaceOnUse">
			<stop stop-color="#fff" offset="0"/>
			<stop stop-color="#fff" stop-opacity=".4" offset=".5"/>
			<stop stop-color="#fff" stop-opacity=".25" offset="1"/>
		</linearGradient>
		<path d="m846.9 164.9c-18.4 0-33.4 15-33.4 33.4v240.6-0.2c0-3.6 1.4-23.4 24-25.6 0 0 1.2-0.2 3.2-0.2 98.6-3.4 1609.4-56.4 1609.4-56.4 12.6-0.4 24.8-9.8 24.8-25.4v-132.6c0-18.4-15-33.4-33.4-33.4z" enable-background="new    " fill="url(#a)" opacity=".3" Googl="true"/>
		<g fill="#fff">
			<path d="m907.7 417.6c0-70.2 51.5-122.2 119.7-122.2 31.9 0 61.4 8.8 82 18.6 3.4 22.1-3.5 30.9-13.3 30.9-17.2 0-31.9-14.2-67.2-14.2-44.2 0-80.5 32.9-80.5 86.9 0 53.5 36.3 86.9 80.5 86.9 35.3 0 50.1-14.7 65.8-14.7 10.3 0 17.6 9.3 14.7 31.4-20.6 10.3-50.1 19.1-82 19.1-68.2 0-119.7-53-119.7-122.7"/>
			<path d="m2116.2 380.8v141.9c0 9.8-5.4 15.2-21.6 15.2-6.9 0-14.7-1-18.6-2v-150.2c0-34.4-16.2-54.5-47.1-54.5-26 0-47.6 18.1-56.4 36.8v154.6c0 9.8-5.4 15.2-21.6 15.2-6.9 0-14.7-1-18.6-2v-150.1c0-34.4-16.2-54.5-47.1-54.5-26 0-47.6 18.1-56.4 36.8v154.6c0 9.8-5.4 15.2-21.6 15.2-6.8 0-14.7-1-18.6-2v-236c3.9-1 11.8-2 19.1-2 15.2 0 20.6 5.9 20.6 16.2v16.2c15.2-20.1 38.8-34.9 67.3-34.9 31.4 0 55.9 15.7 68.2 42.7 16.2-24.5 40.7-42.7 75.6-42.7 50.3 0.1 76.8 37.9 76.8 85.5"/>
			<path d="m1736.8 432.3h-182.6c5.4 45.7 36.8 71.2 83.4 71.2 20.1 0 35.8-4 50.6-8.8 10.3-3.5 14.7-4.9 18.6-4.9 11.3 0 18.6 9.3 16.7 30.9-21.1 9.3-53.5 19.6-87.4 19.6-73.6 0-123.2-49.5-123.2-123.2 0-70.7 52.6-121.7 116.8-121.7 72.7 0 108.5 56.4 108.5 113.4 0.1 6.9-0.4 15.2-1.4 23.5m-182.6-31.4h144.8c-1.5-40.2-27.5-71.7-69.2-71.7-36.3 0.1-69.2 25.1-75.6 71.7"/>
			<path d="m1465.2 395.5v127.1c0 9.3-5.4 15.2-21.6 15.2-6.8 0-14.7-1-18.6-2v-135c0-47.1-23.1-69.7-57.9-69.7-27 0-56.4 18.7-68.2 40.7v150.7c0 9.3-5.4 15.2-21.6 15.2-6.9 0-14.7-1-18.6-2v-235.9c3.9-1 11.8-2 18.6-2 16.2 0 21.6 5.9 21.6 15.2v20.1c17.2-21.1 43.2-37.8 78-37.8 48.1 0.1 88.3 30.5 88.3 100.2"/>
			<path d="m2367.1 384.7v151.2c-3.9 1-11.3 2-18.1 2-14.7 0-21.6-5.4-21.6-15.2v-20.7c-21.1 24.1-48.6 38.3-83.5 38.3-52.5 0-81.5-34.3-81.5-71.7 0-56.9 60.9-82 164.4-75.1v-8.3c0-38.8-11.8-55-56.4-55-18.6 0-43.7 5.4-56.9 8.8-7.9 2-13.8 3.9-18.6 3.9-11.3 0-18.7-9.8-14.8-30.4 24.1-8.8 58.9-17.2 92.3-17.2 69.2 0.1 94.7 31 94.7 89.4m-40.2 82.5v-44.7c-67.7-4.9-124.2 3.9-124.2 44.7 0 20.6 17.2 39.2 48.1 39.2 31.4 0 58.9-15.6 76.1-39.2"/>
			<path d="m1149.5 246.3c0-14.7 11.8-25.5 25.5-25.5 14.8 0 26 10.8 26 25.5 0 13.3-11.3 25.5-26 25.5-13.7 0-25.5-12.2-25.5-25.5m5.4 289.6v-222.8c0-9.3 5.4-15.2 21.6-15.2 6.9 0 14.2 1 18.1 2v222.8c0 9.8-4.9 15.2-21.1 15.2-6.8 0-14.6-1-18.6-2"/>
		</g>
	</g>
</g>
</svg>
