<svg width="600" height="146.06" version="1.1" viewBox="0 0 158.75 38.644524" xmlns="http://www.w3.org/2000/svg">
 <defs>
  <linearGradient id="a" x2="1" gradientTransform="matrix(0 22.964 22.964 0 79.371 .50807)" gradientUnits="userSpaceOnUse">
   <stop stop-color="#888685" offset="0"/>
   <stop stop-color="#d9d9da" offset=".020448"/>
   <stop stop-color="#f5f5f6" offset=".052404"/>
   <stop stop-color="#eeefef" offset=".48766"/>
   <stop stop-color="#f5f5f6" offset=".89549"/>
   <stop stop-color="#ebebec" offset=".92944"/>
   <stop stop-color="#d9d9da" offset=".96426"/>
   <stop stop-color="#888685" offset="1"/>
  </linearGradient>
  <linearGradient id="b" x2="1" gradientTransform="matrix(0 -22.586 22.586 0 83.53 23.295)" gradientUnits="userSpaceOnUse">
   <stop stop-color="#810a32" offset="0"/>
   <stop stop-color="#a90e3a" offset=".10441"/>
   <stop stop-color="#a90e3a" offset=".89813"/>
   <stop stop-color="#b94556" offset=".99967"/>
   <stop stop-color="#b94556" offset="1"/>
  </linearGradient>
 </defs>
 <g stroke-width=".99999">
  <path d="m155.3 24.005c2.6438 0 3.451-1.6437 3.451-3.2874v-17.434c0-1.6401-0.80731-3.2838-3.451-3.2838h-151.85c-2.6438 0-3.4511 1.6437-3.4511 3.2838v17.434c0 1.6437 0.8073 3.2874 3.4511 3.2874h151.85m-151.73-0.22183c-1.7783 0-2.9856-1.051-2.9856-2.8002v-17.965c0-1.7492 1.2073-2.8002 2.9856-2.8002h151.6c1.7819 0 2.9856 1.051 2.9856 2.8002v17.965c0 1.7492-1.2037 2.8002-2.9856 2.8002h-151.6" fill="#a1a2a2"/>
  <path d="m3.3011 0.70307c-1.7783 0-2.4147 1.051-2.4147 2.8038v16.986c0 1.7455 0.63639 2.7965 2.4147 2.7965 50.714 1e-5 101.43 1e-5 152.15 2e-5 1.7783 0 2.411-1.051 2.411-2.7965v-16.986c0-1.7528-0.63276-2.8038-2.411-2.8038-50.714-1e-5 -101.43-1e-5 -152.15-2e-5z" fill="url(#a)"/>
  <path d="m42.459 0.71407v22.587h82.141v-22.587z" fill="url(#b)"/>
 </g>
 <g fill="#fff" stroke-width=".99999">
  <path d="m53.603 19.145c-1.0001 0-1.9237-0.18183-2.7711-0.54184-0.84739-0.36002-1.5783-0.85822-2.2001-1.4946-0.62184-0.63639-1.1055-1.3928-1.4583-2.2692-0.35274-0.8764-0.53093-1.8219-0.53093-2.8402 0-0.98912 0.17819-1.9165 0.53093-2.7783 0.35274-0.86185 0.8364-1.611 1.4583-2.2474 0.62184-0.63638 1.3528-1.1346 2.2001-1.4946 0.84729-0.35999 1.771-0.54184 2.7711-0.54184 0.72003 0 1.4183 0.08 2.0947 0.23274 0.67639 0.15636 1.3019 0.35637 1.8837 0.59639 0.12364 1.8801-0.33456 2.8183-1.3783 2.8183-0.18183 0-0.35274-0.0218-0.50547-0.0618-0.15637-0.0436-0.32365-0.0873-0.50911-0.12728-0.18183-0.0436-0.3891-0.0873-0.61093-0.12728-0.22547-0.0436-0.49456-0.0655-0.80367-0.0655-0.49456 0-0.96004 0.0909-1.3964 0.26547-0.44001 0.17819-0.81458 0.43273-1.1346 0.76366-0.31638 0.33092-0.56729 0.73094-0.74912 1.1964-0.18183 0.46911-0.27638 0.99276-0.27638 1.571 0 0.6073 0.09455 1.1528 0.27638 1.6328 0.18183 0.48002 0.43274 0.88732 0.74912 1.2182 0.32002 0.33457 0.69457 0.58911 1.1346 0.76366 0.43638 0.17819 0.90185 0.26547 1.3964 0.26547 0.3091 0 0.58184-0.0218 0.82185-0.0618 0.24001-0.0436 0.45456-0.0873 0.6473-0.12728 0.1891-0.0436 0.37092-0.0873 0.5382-0.12728 0.17092-0.0436 0.34546-0.0655 0.52729-0.0655 1.0291 0 1.491 0.94186 1.3783 2.822-0.5782 0.24001-1.2255 0.43639-1.9383 0.59276-0.70912 0.15636-1.4255 0.23273-2.1456 0.23273"/>
  <path d="m60.902 18.975c-0.29456 0-0.58911-0.0146-0.8764-0.0436-0.29092-0.0291-0.53456-0.0618-0.73094-0.10546v-12.277c0-0.41092 0.12728-0.76002 0.38184-1.051 0.25092-0.28728 0.73093-0.43274 1.4364-0.43274 0.2982 0 0.58911 0.0145 0.88003 0.04 0.28729 0.0291 0.53093 0.0655 0.7273 0.1091v12.277c0 0.41091-0.12728 0.76001-0.37819 1.0473-0.25456 0.29093-0.73457 0.43638-1.4401 0.43638"/>
  <path d="m66.687 18.975c-0.28365 0-0.55638-0.0146-0.82549-0.0436-0.26911-0.0291-0.49456-0.0618-0.67639-0.10546v-13.506c0.21092-0.0727 0.48729-0.13091 0.82549-0.18182 0.3382-0.0473 0.62548-0.0727 0.86549-0.0727 0.77821 0 1.3419 0.0982 1.6946 0.29455 0.35274 0.20001 0.6473 0.49094 0.88731 0.86913l4.8001 7.5712v-7.3784c0-0.18547 0.02545-0.35639 0.07637-0.52002 0.04727-0.16365 0.13091-0.30547 0.25092-0.43275 0.12001-0.12728 0.28729-0.22911 0.4982-0.29819 0.21092-0.0691 0.48001-0.10546 0.80367-0.10546 0.28365 0 0.55275 0.0145 0.81458 0.04 0.26183 0.0291 0.48365 0.0582 0.66548 0.0873v13.528c-0.19637 0.0982-0.43638 0.16728-0.71639 0.20001-0.28365 0.0364-0.56002 0.0546-0.82549 0.0546-0.66548 0-1.1564-0.0909-1.4801-0.27637-0.32729-0.18183-0.59275-0.43639-0.80367-0.76367l-5.142-8.2258v7.8657c0 0.39639-0.12001 0.7273-0.36002 0.99641s-0.69093 0.40365-1.3528 0.40365"/>
  <path d="m81.71 18.885c-0.39638 0-0.71639-0.0436-0.96368-0.12728-0.24728-0.0836-0.43637-0.20001-0.57093-0.34911-0.13455-0.1491-0.22546-0.33092-0.27274-0.54184-0.05091-0.21092-0.07637-0.43637-0.07637-0.67638v-10.393c0-0.24 0.02545-0.46546 0.07637-0.67638 0.0473-0.21455 0.13819-0.39274 0.27274-0.54184 0.13456-0.1491 0.32366-0.26547 0.57093-0.3491 0.24729-0.0873 0.5673-0.12728 0.96368-0.12728h7.0003c0.0291 0.15636 0.0582 0.36728 0.0873 0.63639 0.0255 0.26909 0.04 0.54184 0.04 0.82548 0 0.59275-0.12001 1.0146-0.36002 1.2619-0.24001 0.24728-0.54184 0.37092-0.90913 0.37092h-4.3129v2.4183h4.9674c0.0291 0.14182 0.0582 0.32728 0.0873 0.56001 0.0254 0.23637 0.04 0.4873 0.04 0.75276 0 0.56729-0.11273 0.95277-0.3382 1.1564-0.22547 0.20727-0.50547 0.30909-0.84368 0.30909h-3.9128v2.3965h5.6657c0.0291 0.15274 0.0582 0.37092 0.0873 0.6473 0.0255 0.27274 0.04 0.54548 0.04 0.81458 0 0.60729-0.12001 1.0328-0.36002 1.2728s-0.54184 0.36002-0.90913 0.36002h-6.0693"/>
  <path d="m91.88 18.975c-0.32366 0-0.61093-0.0327-0.85821-0.0945-0.24364-0.0655-0.46184-0.13819-0.64366-0.22183l1.2946-13.212c0.26548-0.11274 0.61821-0.20729 1.0546-0.27637 0.43638-0.0691 0.81093-0.10546 1.12-0.10546 0.44002 0 0.81458 0.0291 1.131 0.0836 0.32001 0.0582 0.58912 0.15273 0.81458 0.28728 0.22545 0.13455 0.40728 0.32002 0.54183 0.56002 0.13091 0.24001 0.23274 0.5382 0.30547 0.89094l0.54911 2.5674c0.15637 0.70548 0.32002 1.4873 0.49821 2.3419 0.17454 0.85458 0.33455 1.7346 0.47274 2.6401h0.0873c0.15274-0.90549 0.31637-1.7819 0.48365-2.6292 0.17092-0.84731 0.34547-1.6255 0.52729-2.331l0.67641-2.6947c0.1709-0.66547 0.44001-1.1164 0.81456-1.3564 0.37456-0.23999 0.95277-0.36001 1.7419-0.36001 0.39273 0 0.79275 0.0327 1.1928 0.0945 0.40366 0.0618 0.73457 0.13091 1.0037 0.2l1.2364 13.299c-0.19637 0.0691-0.43274 0.13819-0.70913 0.21092-0.27273 0.0691-0.57455 0.10545-0.89821 0.10545-0.45092 0-0.83276-0.0764-1.1419-0.23273-0.3091-0.15637-0.48001-0.4473-0.5091-0.86913l-0.31638-4.582c-0.0691-0.80366-0.13091-1.651-0.17818-2.5347-0.0509-0.88004-0.0836-1.7201-0.0982-2.5129h-0.04c-0.18546 0.7382-0.37093 1.531-0.56002 2.3856-0.19273 0.85821-0.38547 1.6437-0.58185 2.3674l-0.86912 3.6038c-0.21091 0.84731-0.88002 1.2728-2.0074 1.2728-0.28364 0-0.57093-0.0291-0.86913-0.0873-0.29455-0.0546-0.54911-0.12-0.76003-0.1891l-1.08-4.4947c-0.21092-0.8364-0.40729-1.6546-0.59276-2.4619-0.18182-0.80367-0.35274-1.611-0.50547-2.4147h-0.0655c-0.04 1.131-0.0982 2.1637-0.16729 3.1056-0.0727 0.93823-0.13455 1.7492-0.19274 2.4292l-0.33818 4.1347c-0.0254 0.40728-0.18182 0.69094-0.46548 0.84731-0.28 0.15637-0.6473 0.23273-1.0982 0.23273"/>
  <path d="m111.84 13.185h3.1638l-1.5783-5.1965-1.5855 5.1965m-3.2984 5.8329c-0.26911 0-0.57458-0.0254-0.92004-0.0764-0.34548-0.0473-0.63275-0.11637-0.85821-0.20001l4.3892-13.444c0.38182-0.0982 0.7673-0.1709 1.1564-0.21454 0.38911-0.04 0.74549-0.0618 1.0692-0.0618 0.4691 0 0.86549 0.0364 1.2001 0.10546 0.33093 0.0727 0.61093 0.17818 0.8364 0.32 0.22911 0.14183 0.41457 0.3273 0.56365 0.56003 0.1491 0.23274 0.27274 0.50547 0.37093 0.8182l3.7602 11.895c-0.24001 0.0982-0.5273 0.17455-0.86549 0.22183-0.3382 0.0509-0.66912 0.0764-0.99641 0.0764-0.36364 0-0.72002-0.0618-1.0655-0.18181-0.34547-0.12001-0.59638-0.39275-0.75276-0.81822l-0.72002-2.1819h-4.611l-0.61094 2.0583c-0.15637 0.49456-0.41819 0.80367-0.78185 0.93095-0.36728 0.12728-0.75639 0.19272-1.1637 0.19272"/>
 </g>
 <path d="m137.65 10.555v-3.1893c0-0.86549 0.34545-1.4146 2.1274-1.4146 0.22182 0 0.41092 0.0145 0.62911 0.0509v10.462c0 0.85822-0.34547 1.4073-2.131 1.4073-0.21819 0-0.40728-0.0145-0.62547-0.0473v-4.7492h-5.5566v3.3892c0 0.85822-0.34547 1.4073-2.1346 1.4073-0.21457 0-0.40366-0.0145-0.62549-0.0473v-10.459c0-0.86549 0.34547-1.4146 2.131-1.4146 0.22183 0 0.40727 0.0145 0.62911 0.0509v4.5529h5.5566m15.823 1.3419c0-3.5529-2.5601-5.9638-6.7966-5.9638h-2.8802c-1.3819 0-1.7128 0.7273-1.7128 1.6837v8.5822c0 0.92004 0.3309 1.6655 1.7128 1.6655h2.8802c4.2365 0 6.7966-2.411 6.7966-5.9675m-8.6295 3.4147v-6.8257h1.9965c2.7747 0 3.7928 1.7965 3.7928 3.4111 0 1.6183-1.0182 3.4147-3.7928 3.4147h-1.9965" fill="#a90e3a" stroke-width=".99999"/>
 <path d="m15.26 14.165c0 1.9346-1.2655 3.3456-3.8328 3.6256-1.8583 0.20001-4.5529-0.0364-5.8293-0.18183-0.04728-0.2109-0.08364-0.4691-0.08364-0.67275 0-1.6946 0.91277-2.0801 1.771-2.0801 0.88731 0 2.291 0.15637 3.3311 0.15637 1.1455 0 1.4983-0.3891 1.4983-0.76003 0-0.48729-0.46547-0.6873-1.3528-0.85822l-2.4365-0.4691c-2.0256-0.38911-3.1093-1.7892-3.1093-3.2765 0-1.811 1.2801-3.3238 3.8001-3.6038 1.9019-0.20363 4.2183 0.0291 5.4911 0.18547 0.04728 0.21819 0.0691 0.42183 0.0691 0.65092 0 1.6874-0.88731 2.051-1.7455 2.051-0.65821 0-1.6801-0.12363-2.8474-0.12363-1.1892 0-1.6801 0.32728-1.6801 0.7273 0 0.42183 0.4691 0.59639 1.2146 0.7273l2.3274 0.43274c2.3892 0.44001 3.4147 1.7965 3.4147 3.4692m4.1783 2.0765c0 1.0364-0.40728 1.6364-2.4329 1.6364-0.26547 0-0.50183-0.0218-0.7273-0.0546v-13.757c0-1.0437 0.35638-2.1346 2.4001-2.1346 0.25819 0 0.51638 0.0254 0.76003 0.0764v14.233m8.2767 5.3202c0.26183 0.13819 0.8073 0.30182 1.4946 0.32001 1.1746 0.0254 1.8183-0.42547 2.291-1.4764l6.3093-14.07c-0.26183-0.14183-0.83639-0.2982-1.3092-0.30911-0.81094-0.0145-1.8983 0.15274-2.5965 1.811l-2.0401 4.822-4.0074-6.5239c-0.2582-0.08-0.88731-0.19273-1.3528-0.19273-1.411 0-2.2038 0.52002-3.022 1.411l-3.8946 4.2583 3.1311 4.9311c0.5782 0.89822 1.3419 1.3564 2.582 1.3564 0.81094 0 1.4837-0.18547 1.7965-0.33457l-3.771-5.6875 2.6729-2.8329 4.3856 6.8839-2.6692 5.6329" fill="#a90e3a" stroke-width=".99999"/>
 <path d="m3.2421 1.0771c-1.5746 0-2.1782 0.62578-2.1782 2.4841h-5.29e-4l-0.0036 16.034c0 0.99998 0.05451 1.6691 0.2036 1.6691 0.05819-0.31274 0.10165-1.8545 1.7926-3.2618 0.60729-0.46548 1.4369-0.91647 2.4624-1.3565l0.0026 2e-3c1.3439-0.57026 3.0368-1.115 5.0228-1.6309 0.0023 1e-5 5e-3 -2e-5 0.0072 0 0.44365-0.11637 0.89819-0.22886 1.3746-0.34158 0.0011-1e-3 2e-3 -2e-3 0.0031-3e-3 1.0391-0.24338 2.1505-0.48685 3.3238-0.71933l5.29e-4 -2e-3c0.3382-0.0618 0.67665-0.12728 1.0258-0.19274 1.102-0.20847 2.2205-0.40544 3.159-0.55868v-2e-3c0.34463-0.058 0.69301-0.11248 1.0449-0.16689l0.0026-2e-3c1.0546-0.16729 2.1495-0.33094 3.2768-0.48731l1e-3 -2e-3c1.3237-0.18909 2.6983-0.36752 4.1128-0.54208-0.89432-1.4058-0.88651-1.393 0.0026 2e-3 1.0908-0.13454 2.1997-0.26186 3.3378-0.38911l0.0011 2e-3c0.3782-0.0436 0.76019-0.0835 1.142-0.12351 1.1484-0.12117 2.3118-0.24063 3.2902-0.33336l2.1601-4.818c-0.19638-0.10364-0.56874-0.21728-0.94205-0.27233 0.3728 0.0535 0.7467 0.16714 0.94308 0.27078l-0.0011 2e-3 -2.159 4.8171c2.2001-0.21091 4.4731-0.41138 6.8077-0.59685 1.4437-0.11273 2.902-0.22167 4.3893-0.32348 0.08364-0.34548 0.19256-0.68711 0.32711-1.0144 0.35274-0.86185 0.83645-1.6146 1.4583-2.2474 0.62184-0.63638 1.3567-1.1386 2.2004-1.4986 0.84731-0.36 1.7708-0.53794 2.7709-0.53794 0.71639 0 1.418 0.0798 2.0944 0.23255 0.67639 0.15636 1.3023 0.35268 1.8841 0.59633 0.12364 1.8765-0.33454 2.8184-1.3746 2.8184-0.18546 0-0.35678-0.0215-0.50952-0.0615-0.15637-0.0436-0.32718-0.0877-0.509-0.13126-0.18546-0.04-0.38896-0.0834-0.61442-0.12712-0.22546-0.04-0.49081-0.062-0.80355-0.062-0.49093 0-0.96043 0.091-1.3932 0.26561-0.43997 0.17819-0.81422 0.43283-1.1342 0.76376-0.21092 0.22183-0.39295 0.46927-0.54569 0.75292 2.8147-0.17091 5.6802-0.32022 8.5968-0.45113v-2.9853c0-0.41092 0.12369-0.76017 0.38189-1.0475 0.25456-0.29092 0.7311-0.43665 1.4366-0.43665 0.2982 0 0.58911 0.0148 0.88003 0.0439 0.28729 0.0255 0.53068 0.0618 0.73069 0.10542v4.1743c0.81458-0.0327 1.6364-0.0613 2.4619-0.0904v-3.9784c0.21092-0.0691 0.48394-0.13098 0.82577-0.18189 0.3382-0.0509 0.62555-0.0729 0.86557-0.0729 0.77457 0 1.3417 0.0982 1.6945 0.29816 0.3491 0.19637 0.64726 0.48738 0.88727 0.86557l1.8293 2.8877c0.98913-0.0218 1.9781-0.0438 2.9709-0.0656v-2.6293c0-0.18547 0.02556-0.35624 0.07648-0.51624 0.04727-0.16365 0.13426-0.30886 0.25063-0.43615 0.12001-0.12727 0.28412-0.22544 0.49867-0.29816 0.21092-0.0691 0.4799-0.10593 0.80356-0.10593 0.28365 0 0.5526 0.0148 0.81079 0.0439 0.26183 0.0255 0.48737 0.0547 0.6692 0.0837v3.8074c0.82185-0.0109 1.6436-0.0185 2.4619-0.0295v-2.1673c0-0.24001 0.02558-0.4655 0.07286-0.67642 0.0509-0.21455 0.14192-0.39246 0.27647-0.54156s0.32374-0.2657 0.57101-0.34933c0.24729-0.0836 0.56687-0.12712 0.95962-0.12712h7.0005c0.0327 0.15272 0.0619 0.36704 0.0873 0.63251 0.0291 0.2691 0.0434 0.54575 0.0434 0.82939 0 0.59275-0.11965 1.0146-0.35966 1.2619-0.24001 0.24728-0.5422 0.37051-0.90949 0.37051h-4.3164v0.74567c0.84367-7e-3 1.691-7e-3 2.5383-7e-3 1.8474 0 3.6985 7e-3 5.5349 0.0259l0.34157-3.5238c0.2691-0.1091 0.62193-0.20012 1.0583-0.27284 0.43638-0.0691 0.8107-0.10542 1.1198-0.10542 0.43638 0 0.81481 0.0291 1.1312 0.0873 0.31638 0.0545 0.58895 0.14915 0.81441 0.2837 0.22545 0.13455 0.40752 0.31962 0.54207 0.56326 0.13091 0.23637 0.23269 0.53504 0.30178 0.88778l0.4656 2.1673c0.75276 0.0145 1.5019 0.0324 2.2474 0.0507l0.58187-2.3203c0.17091-0.66547 0.44345-1.1196 0.81801-1.3596 0.37092-0.24 0.95289-0.36017 1.7384-0.36017 0.39638 0 0.79264 0.0328 1.1963 0.0946 0.40002 0.0618 0.73446 0.13086 0.99993 0.20359l0.3674 3.9164c1.5928 0.0618 3.1709 0.12726 4.7309 0.19998l1.3674-4.1822c0.38182-0.0982 0.76375-0.17081 1.1565-0.21445 0.3891-0.04 0.7455-0.062 1.0728-0.062 0.46545 0 0.86173 0.0364 1.1963 0.10542 0.33093 0.0727 0.60753 0.17858 0.83663 0.31677 0.22911 0.14546 0.41472 0.33053 0.56016 0.56326 0.15273 0.23274 0.27645 0.50944 0.37465 0.81854l0.9746 3.0871c2.5056 0.17092 4.9309 0.3637 7.2764 0.57824 1.6182 0.15274 3.1963 0.31278 4.7308 0.48369l1e-3 -2e-3c4.0324 0.45452 7.749 0.98538 11.073 1.5999v2e-3c0.57093 0.10546 1.1309 0.21076 1.6764 0.3235v-5.3e-4c0.96271 0.19619 1.8782 0.39592 2.7611 0.60666v-2e-3c1.5815 0.37813 3.0356 0.78178 4.3407 1.2035 1.0034 0.34856 2.0382 0.71691 2.8959 1.093l1e-3 -1e-3c1.5445 0.67977 2.7585 1.4178 3.6054 2.2066 1.531 1.5164 1.7417 2.949 1.7926 3.2618 0.15274 0 0.20723-0.66908 0.20722-1.6691l-4e-3 -16.034c0-1.8583-0.60405-2.4836-2.1787-2.4836-0.53458 0-1.0654 0.2837-1.7746 0.2837-9.7065-1e-3 -19.419-5.3e-4 -29.128-5.3e-4v5.3e-4l-82.141-5.2e-4h-37.437c-0.71275 0-1.2436-0.2837-1.7782-0.2837zm110.18 6.9131-0.50177 1.6474c0.34182 0.0218 0.67979 0.0402 1.0216 0.062zm-19.281 0.23305c-0.0109 0.26547-0.0216 0.52368-0.0326 0.77823 0.0873 0 0.16386-2.7e-4 0.25114 4e-3 -0.0545-0.26183-0.10567-0.52001-0.15658-0.78184zm7.9317 0.0212-0.0439 5.3e-4c-0.0727 0.29819-0.14895 0.60341-0.22532 0.92706 0.0982 0 0.19639 4e-3 0.29095 7e-3 -7e-3 -0.32001-0.0144-0.62934-0.0217-0.93481z" fill="#fff" opacity=".4" stroke-width="3.6366"/>
 <g>
  <path d="m68.35 38.529c-0.14658 0-0.2738-0.0166-0.38166-0.0442-0.10786-0.0304-0.20188-0.0636-0.27932-0.0996l0.85732-8.211c0.12168-0.0498 0.27933-0.0913 0.47291-0.12169 0.19359-0.0304 0.35951-0.0471 0.4978-0.0471 0.38719 0 0.68309 0.0581 0.88499 0.17701 0.20188 0.11616 0.3374 0.32081 0.40653 0.61395l1.4271 5.6445 1.4409-5.603c0.06917-0.29593 0.20743-0.50609 0.41485-0.63607 0.20741-0.12999 0.49226-0.19637 0.85455-0.19637 0.17147 0 0.34847 0.0138 0.53099 0.0387 0.18252 0.0276 0.33187 0.0581 0.45354 0.0913l0.81309 8.2498c-0.08851 0.0359-0.18807 0.0692-0.30422 0.0996-0.11892 0.0276-0.2489 0.0442-0.39547 0.0442-0.19913 0-0.36506-0.0359-0.49504-0.1051-0.12997-0.0692-0.20188-0.19635-0.21848-0.38719l-0.5531-6.6677-1.5819 5.9017c-0.06917 0.24338-0.18807 0.40931-0.35677 0.50055-0.1687 0.0885-0.38441 0.13552-0.64438 0.13552-0.12998 0-0.26549-8e-3 -0.4093-0.0249-0.14105-0.0194-0.25998-0.0442-0.35675-0.0802l-1.7867-6.4327-0.60289 6.6789c-0.01658 0.18253-0.09127 0.30698-0.22125 0.37612-0.12998 0.0692-0.28485 0.10509-0.46738 0.10509"/>
  <path d="m80.034 35.005h2.4947l-1.2391-3.7611zm-1.8115 3.5427c-0.12168 0-0.25997-0.0138-0.4093-0.0414-0.1521-0.0249-0.27103-0.0636-0.35676-0.11616l2.8736-8.2884c0.16594-0.0442 0.32634-0.0747 0.48672-0.0913 0.16041-0.0166 0.31253-0.0249 0.46185-0.0249 0.20743 0 0.37613 0.0138 0.51163 0.0442 0.13276 0.0304 0.24614 0.0775 0.3374 0.14382 0.09127 0.0636 0.16593 0.14658 0.22678 0.24615 0.06088 0.0996 0.11615 0.22124 0.1687 0.37059l2.5998 7.5888c-0.10509 0.0414-0.22401 0.0802-0.35675 0.11616-0.13552 0.0332-0.25721 0.0526-0.3706 0.0526-0.19911 0-0.37056-0.0249-0.51714-0.0719-0.14935-0.047-0.2572-0.17147-0.32634-0.37059l-0.62503-1.8557h-3.3077l-0.61949 1.8557c-0.06917 0.19082-0.16871 0.31251-0.29869 0.36229-0.12997 0.0526-0.29039 0.0802-0.47843 0.0802"/>
  <path d="m98.732 37.348c0.36317 0 0.704-0.081 1.0254-0.24027 0.31847-0.15924 0.60063-0.37713 0.84371-0.65372 0.24025-0.27657 0.4302-0.60622 0.56988-0.98616 0.13687-0.38274 0.20673-0.78782 0.20673-1.2209 0-0.43302-0.067-0.8353-0.20122-1.2125-0.13399-0.37714-0.31847-0.70121-0.55594-0.97221-0.24025-0.27377-0.51683-0.48609-0.83811-0.64254-0.31848-0.15646-0.6649-0.23466-1.0365-0.23466-0.36317 0-0.70681 0.0782-1.0254 0.22909-0.32129 0.15086-0.60065 0.3632-0.83811 0.63416-0.23735 0.2738-0.42465 0.59507-0.56431 0.96663-0.13687 0.37158-0.20673 0.77944-0.20673 1.2209 0 0.44979 0.067 0.86325 0.20123 1.2432 0.13396 0.38272 0.32123 0.70959 0.5587 0.98616 0.23735 0.27659 0.51683 0.49449 0.83532 0.64813 0.32126 0.15646 0.6621 0.23469 1.0254 0.23469m0.0143 1.2963c-0.61462 0-1.1762-0.11454-1.6874-0.34363-0.51124-0.22908-0.94706-0.54477-1.3103-0.94706-0.36319-0.40228-0.64534-0.86885-0.84927-1.3997-0.20386-0.53359-0.30452-1.1064-0.30452-1.7182 0-0.60622 0.1005-1.1762 0.30452-1.707 0.20383-0.5308 0.48609-0.99181 0.84927-1.3802 0.36317-0.39111 0.79898-0.69841 1.3103-0.92192 0.51124-0.22631 1.0728-0.33806 1.6874-0.33806 0.61183 0 1.1762 0.11175 1.6846 0.33806 0.51123 0.22351 0.94705 0.53079 1.3103 0.92192 0.36319 0.38833 0.64813 0.84649 0.84927 1.3745 0.20386 0.528 0.30451 1.098 0.30451 1.7126 0 0.61183-0.10048 1.1846-0.30451 1.7182-0.20121 0.53078-0.48608 0.99743-0.84927 1.3997-0.36316 0.40223-0.79899 0.71797-1.3103 0.94706-0.50845 0.2291-1.0728 0.34363-1.6846 0.34363"/>
  <path d="m104.91 38.534c-0.12848 0-0.257-6e-3 -0.38272-0.0139-0.12562-8e-3 -0.22348-0.0196-0.29057-0.0392v-8.3532c0.095-0.0419 0.2151-0.0754 0.36041-0.0978 0.14811-0.0196 0.28216-0.0307 0.40229-0.0307 0.3464 0 0.59504 0.0447 0.74589 0.13409 0.15098 0.0922 0.28217 0.22351 0.39393 0.39669l3.7769 5.8387-0.0782-5.7997c0-0.15645 0.0502-0.29054 0.15097-0.40228 0.0979-0.11175 0.27938-0.16764 0.53919-0.16764 0.12011 0 0.24305 6e-3 0.36875 0.0196 0.12562 0.0113 0.22348 0.0279 0.29056 0.0447v8.3532c-0.19834 0.0782-0.43303 0.11733-0.69843 0.11733-0.31291 0-0.54196-0.0447-0.68725-0.13689-0.14809-0.0894-0.26818-0.20952-0.36317-0.35479l-3.9054-6.0846 0.0782 6.0064c0 0.16483-0.0502 0.29893-0.15097 0.40787-0.0979 0.10895-0.28215 0.16203-0.55036 0.16203"/>
  <path d="m92.619 38.534c-0.13973 0-0.27379-6e-3 -0.40787-0.0197-0.13399-0.0139-0.23735-0.0279-0.30453-0.0447v-7.8614c0-0.17322 0.0531-0.31847 0.16197-0.4358 0.10624-0.11455 0.29891-0.17323 0.5755-0.17323 0.13972 0 0.27657 6e-3 0.41067 0.0196 0.13399 0.0113 0.23471 0.0279 0.30451 0.0447v7.8614c0 0.1732-0.0558 0.3185-0.16198 0.43301-0.10887 0.11734-0.30173 0.17601-0.5783 0.17601"/>
  <path d="m87.731 38.521c-0.13971 0-0.27397-8e-3 -0.40831-0.0185-0.13447-0.0131-0.23711-0.029-0.30558-0.0475v-7.1205h-2.5949c-0.01677-0.0685-0.02891-0.16332-0.0368-0.27924-0.0099-0.11593-0.0144-0.23973-0.0144-0.36881 0-0.2766 0.05525-0.45836 0.16868-0.5453 0.11078-0.0869 0.2529-0.12907 0.42676-0.12907h6.0721c0.0342 0.12907 0.05 0.32929 0.05 0.59534 0 0.48471-0.19764 0.72707-0.59535 0.72707h-2.0233v6.5778c0 0.17124-0.05525 0.31612-0.16341 0.43465-0.1079 0.11591-0.3003 0.17386-0.57691 0.17386"/>
  <path d="m56.756 38.534c-0.12848 0-0.257-6e-3 -0.38271-0.0139-0.12562-8e-3 -0.22348-0.0196-0.29058-0.0392v-8.3532c0.09502-0.0419 0.2151-0.0754 0.36041-0.0978 0.14811-0.0196 0.28216-0.0307 0.40229-0.0307 0.34641 0 0.59505 0.0447 0.74589 0.13409 0.15098 0.0922 0.28217 0.22351 0.39393 0.39669l3.7769 5.8387-0.07824-5.7997c0-0.15645 0.05022-0.29054 0.15097-0.40228 0.09788-0.11175 0.27939-0.16764 0.5392-0.16764 0.12011 0 0.24305 6e-3 0.36875 0.0196 0.12561 0.0113 0.22347 0.0279 0.29056 0.0447v8.3532c-0.19834 0.0782-0.43303 0.11733-0.69842 0.11733-0.3129 0-0.54197-0.0447-0.68725-0.13689-0.1481-0.0894-0.26819-0.20952-0.36318-0.35479l-3.9054-6.0846 0.07824 6.0064c0 0.16483-0.05022 0.29893-0.15097 0.40787-0.09788 0.10895-0.28214 0.16203-0.55036 0.16203"/>
  <path d="m65.504 38.534c-0.13972 0-0.27378-6e-3 -0.40786-0.0197-0.13399-0.0139-0.23735-0.0279-0.30453-0.0447v-7.8614c0-0.17322 0.05308-0.31847 0.16198-0.4358 0.10623-0.11455 0.2989-0.17323 0.57549-0.17323 0.13973 0 0.27657 6e-3 0.41067 0.0196 0.13399 0.0113 0.23471 0.0279 0.3045 0.0447v7.8614c0 0.1732-0.05574 0.3185-0.16197 0.43301-0.10887 0.11734-0.30173 0.17601-0.57831 0.17601"/>
  <path d="m50.176 35.005h2.4947l-1.2391-3.7611zm-1.8115 3.5427c-0.12169 0-0.25997-0.0138-0.4093-0.0414-0.15211-0.0249-0.27103-0.0636-0.35676-0.11616l2.8736-8.2884c0.16594-0.0442 0.32634-0.0747 0.48672-0.0913 0.16041-0.0166 0.31253-0.0249 0.46185-0.0249 0.20743 0 0.37613 0.0138 0.51163 0.0442 0.13276 0.0304 0.24614 0.0775 0.3374 0.14382 0.09127 0.0636 0.16593 0.14658 0.22678 0.24615 0.06088 0.0996 0.11615 0.22124 0.1687 0.37059l2.5998 7.5888c-0.10509 0.0414-0.22401 0.0802-0.35675 0.11616-0.13552 0.0332-0.25721 0.0526-0.3706 0.0526-0.19911 0-0.37056-0.0249-0.51715-0.0719-0.14935-0.047-0.2572-0.17147-0.32634-0.37059l-0.62502-1.8557h-3.3077l-0.61948 1.8557c-0.06917 0.19083-0.16871 0.31251-0.29869 0.36229-0.12998 0.0526-0.29039 0.0802-0.47844 0.0802"/>
 </g>
</svg>
