<svg width="1872.2pt" height="807" viewBox="0 0 1872.2 605.25" xmlns="http://www.w3.org/2000/svg">
    <defs>
        <linearGradient id="a" x1="-8600.5" x2="-8600.5" y1="-4687.6" y2="-4591.4" gradientTransform="matrix(-2.9812 0 0 -2.9812 -24493 -13655)" gradientUnits="userSpaceOnUse">
            <stop stop-color="#a80000" offset="0"/>
            <stop stop-color="#a1000c" offset=".381"/>
            <stop stop-color="#b90019" offset="1"/>
        </linearGradient>
    </defs>
    <path d="M624.21 0h1223c13.753 0 25.006 11.253 25.006 25.006v325.08c0 13.753-11.253 25.006-25.006 25.006h-1223z" fill="url(#a)" stroke-width="2.981" transform="translate(0 .005)"/>
    <path d="M624.21 375.095H25.01c-13.753 0-25.006-11.253-25.006-25.006V24.699C.004 11.571 10.944.006 24.697.006h599.52z" fill="#fff" stroke-width="3.126"/>
    <g fill="#fff">
        <path d="M897.744 35.003c6.06-1.792 13.082-.457 17.777 3.87 6.722 5.882 8.072 16.856 2.926 24.17-3.81 5.94-11.274 9.279-18.228 7.996-8.709-1.358-15.978-9.549-15.647-18.468-.143-7.936 5.55-15.422 13.172-17.568zM763.172 100.116c16.03-4.35 32.975-3.743 49.2-.825 12.422 2.408 24.77 6.098 35.961 12.054.615 5.589.48 11.65-2.258 16.713-1.837 3.428-5.55 5.776-9.474 5.603-5.753-.172-10.921-2.993-16.195-4.965-11.012-4.539-22.976-6.82-34.888-6.294-11.154.555-22.248 3.976-31.445 10.382-8.499 5.768-15.257 13.944-19.66 23.2-4.989 10.54-7.06 22.332-6.714 33.944.345 10.802 2.648 21.663 7.644 31.302 5.963 11.935 16.127 21.746 28.37 27.117 15.744 6.991 34.025 6.339 50.205 1.163 6.653-2.033 12.812-5.521 19.623-7.029 4.216-1.05 9.159.27 11.68 3.968 3.637 5.214 3.757 12.032 3.105 18.116-10.554 5.266-21.956 8.754-33.478 11.162-19.098 3.765-39.396 4.32-57.932-2.348-18.715-6.504-34.94-19.788-45.075-36.801-8.829-14.635-13.262-31.798-13.127-48.848-.195-19.12 5.349-38.406 16.383-54.099 11.41-16.382 28.775-28.43 48.075-33.515zM1034.04 98.75c15.28-3.262 31.753-2.175 46.05 4.344 11.162 5.086 20.494 13.93 26.367 24.679 7.314 13.12 9.73 28.332 9.94 43.184 0 31.55.037 63.1-.038 94.65.127 4.021-2.116 8.192-6.114 9.414-7.179 2.28-14.905 1.148-22.166-.135-.045-34.213.023-68.433-.037-102.646-.436-13.442-3.541-27.77-13.06-37.829-8.266-8.978-20.943-12.64-32.87-12.016-12.325.727-24.087 5.895-33.846 13.3-6.068 4.657-11.477 10.298-15.34 16.93-.855 1.222-.682 2.752-.72 4.163.06 6.42.008 12.834.038 19.255.015 30.102.007 60.205-.008 90.307.158 4.02-2.595 7.756-6.466 8.814-7.028 2.04-14.522 1.013-21.603-.195-.12-32.615-.053-65.23-.06-97.846.06-25.421-.09-50.843.075-76.257 6.803-1.455 14.012-2.573 20.853-.735 3.683.945 6.939 4.043 7.111 8.004.263 5.566-.007 11.139.113 16.712 10.749-12.767 25.346-22.57 41.781-26.096zM1184.514 112.523c23.06-16.405 54.392-20.05 80.766-9.977 12.437 4.846 23.419 13.27 31.415 23.952 8.154 10.756 13.352 23.583 15.835 36.816 2.258 11.881 2.145 24.138.203 36.05-45.225.053-90.457 0-135.682.03 1.658 12.782 6.578 25.467 15.58 34.888 7.786 8.334 18.363 13.728 29.427 16.196 16.578 3.69 33.965 1.8 50.048-3.279 5.88-1.657 11.492-4.245 17.485-5.528 4.178-1.065 8.792.975 10.937 4.696 3.188 5.378 2.806 11.904 2.378 17.905-14.68 6.474-30.26 10.967-46.177 13.037-14.478 1.898-29.345 1.68-43.567-1.822-12.49-3.046-24.44-8.627-34.416-16.78-10.547-8.492-18.775-19.736-23.989-32.21-7.396-17.824-9.166-37.8-5.986-56.77 3.893-22.729 16.72-43.994 35.743-57.204m13.023 22.706c-10.232 8.634-16.54 21.093-19.496 34.003-.33 2.04-.653 4.08-.968 6.128 36.284 0 72.567-.007 108.85 0-.225-3.683-.637-7.343-1.327-10.974-2.49-12.43-8.912-24.371-19.069-32.18-19.593-15.167-49.53-12.977-67.99 3.023zM1409.7 99.898c15.94-5.153 34.266-3.6 48.593 5.326 8.934 5.484 15.783 13.87 20.321 23.254 6.856-9.842 15.603-18.565 26.27-24.221 13.374-7.172 29.336-8.957 44.114-5.784 10.546 2.266 20.426 7.801 27.567 15.933 9.234 10.344 13.937 24.064 15.182 37.723.728 7.779.3 15.603.413 23.412-.03 30.124.037 60.264-.045 90.389.127 4.32-2.88 8.289-7.074 9.316-7.051 1.906-14.522.953-21.596-.39.008-32.105-.007-64.217-.015-96.33-.172-8.416.495-16.893-.698-25.257-1.095-7.456-3.773-14.882-8.82-20.583-4.622-5.28-11.23-8.559-18.094-9.699-20.268-3.773-40.941 8.799-50.055 26.66-.908 2.092-.428 4.455-.518 6.668.015 36.44.038 72.882-.015 109.322.21 4.239-2.415 8.47-6.616 9.572-7.194 1.988-14.83.975-22.053-.33-.008-22.099-.008-44.197-.008-66.296-.128-16.982.24-33.973-.195-50.948-.548-6.968-2.138-13.997-5.693-20.08-3.436-5.972-9.01-10.705-15.528-12.97-11.207-3.938-23.944-2.573-34.34 3.03a52.712 52.712 0 0 0-19.271 17.486c-1.335 2.235-3.226 4.44-3.18 7.186-.076 2.813.022 5.626.015 8.439.03 34.948.007 69.903-.008 104.851.225 4.186-2.288 8.41-6.436 9.564-7.111 2.048-14.725 1.126-21.874-.27 0-37.708-.022-75.417 0-113.118.015-20.26-.007-40.521.008-60.782 6.489-1.433 13.307-2.58 19.9-1.088 3.789.803 7.194 3.774 7.734 7.742.645 5.063.143 10.194.3 15.28 8.102-10.457 19.046-18.926 31.716-23.007zM1692.196 97.438c12.894-.923 26.021-.645 38.646 2.378 10.307 2.453 20.358 7.134 27.807 14.822 8.139 8.094 12.67 19.158 14.665 30.32 2.138 10.817 1.372 21.881 1.507 32.833-.015 32.375.023 64.75-.022 97.125-6.714 1.238-13.712 2.1-20.448.6-4.006-.817-7.524-4.23-7.637-8.446-.12-5.4.008-10.802-.037-16.195-7.246 7.644-15.528 14.41-24.972 19.143-12.64 6.436-27.034 9.002-41.136 8.394-11.454-.473-22.984-3.308-32.795-9.369-10.787-6.579-19.151-17.178-22.542-29.397-3.593-12.872-2.415-27.387 4.629-38.909 5.086-8.319 12.984-14.567 21.573-18.985 12.49-6.362 26.36-9.467 40.192-11.237 18.13-2.236 36.47-2.108 54.683-.945-.067-7.862-.135-15.843-2.205-23.487-1.613-5.97-4.733-11.672-9.549-15.64-5.363-4.41-12.174-6.623-18.956-7.62-18.858-2.506-38.016.854-56.011 6.54-3.78 1.035-7.501 2.386-11.402 2.828-3.938.383-7.981-1.68-9.796-5.213-2.828-5.394-2.64-11.762-1.913-17.636 17.913-6.488 36.726-10.464 55.719-11.904m18.978 93.788c-13.052.787-26.322 2.242-38.519 7.216-7.006 2.933-13.772 7.576-17.253 14.53-5.258 10.434-2.715 24.07 5.986 31.895 5.964 5.633 14.005 8.588 22.076 9.421 12.445 1.118 25.204-1.373 36.314-7.126 9.781-4.906 18.25-12.197 25.076-20.71.6-.856 1.553-1.659 1.433-2.829.052-10.749-.045-21.506.037-32.247a339.159 339.159 0 0 0-35.15-.15zM894.968 100.454c7.239-2.318 15.025-1.073 22.294.517 0 26.022-.015 52.043 0 78.065.03 28.602-.015 57.197.007 85.799.023 3.06-.727 6.413-3.255 8.401-3.173 2.528-7.456 2.933-11.365 3.053-4.733.09-9.436-.502-14.064-1.403-.038-31.58-.015-63.152-.015-94.732.022-23.547-.038-47.093.022-70.639-.09-4.02 2.49-7.876 6.376-9.061z"/>
    </g>
    <path d="M421.97 333.52c4.064 2.188 12.19 4.689 22.818 4.689 17.817.312 27.507-6.565 34.696-22.505l95.648-213.18c-4.063-2.188-12.816-4.376-19.692-4.689-12.19-.313-28.757 2.188-39.384 27.507l-30.945 73.142-60.952-98.461c-4.063-1.25-13.441-2.813-20.63-2.813-21.255 0-33.445 7.814-45.948 21.255l-58.764 64.39 47.511 74.705c8.752 13.753 20.317 20.63 39.072 20.63 12.19 0 22.505-2.813 27.194-5.001l-57.201-86.27 40.635-42.823 66.578 104.4zm-125.34-80.644c0 15.629-6.252 24.693-36.884 24.693-4.064 0-7.502-.313-10.94-.938V68.461c0-15.94 5.314-32.195 36.258-32.195 3.75 0 7.814.313 11.565 1.25zm-63.452-31.257c0 29.382-19.067 50.637-58.139 55.013-28.132 3.126-69.079-.625-88.458-2.813-.625-3.126-1.25-7.19-1.25-10.315 0-25.631 13.753-31.57 26.88-31.57 13.442 0 34.697 2.188 50.638 2.188 17.504 0 22.505-5.94 22.505-11.565 0-7.502-6.877-10.315-20.63-13.128l-36.571-6.564c-30.632-5.94-46.886-27.194-46.886-49.7 0-27.505 19.38-50.323 57.513-54.7 28.757-3.125 64.078.313 83.145 2.814.625 3.438.937 6.564.937 10.002 0 25.631-13.44 30.945-26.569 30.945-10.002 0-25.318-1.875-43.135-1.875-18.129 0-25.318 5-25.318 10.94 0 6.251 7.19 9.064 18.442 10.94l35.321 6.564c36.26 6.876 51.575 27.507 51.575 52.825" fill="url(#a)" stroke-width="2.981" transform="translate(0 .005)"/>
    <path d="M25.006.005C11.253.005 0 11.258 0 25.011v226.3c0-20.005 16.003-36.509 36.008-37.259l1836.2-69.266V25.006c0-13.753-11.253-25.006-25.006-25.006z" fill="#fff" opacity=".2"/>
    <g>
        <path d="M635.613 469.38c5.485-1.176 11.164-.434 16.649.382.037 18.724 0 37.448.022 56.164 20.784.008 41.576.008 62.36 0 .015-16.064-.007-32.12.015-48.184-.015-3.364 2.046-6.758 5.238-7.972 5.889-1.836 12.205-.81 18.184.03-.038 41.126-.008 82.252-.015 123.371.03 2.915-.48 6.077-2.645 8.212-2.068 2.27-5.32 2.705-8.22 2.847-4.195.098-8.39-.3-12.534-.936-.038-19.106-.008-38.212-.023-57.31-20.784-.015-41.576-.008-62.367-.008-.008 16.266.007 32.532-.008 48.799.068 3.768-2.233 7.77-6.046 8.736-5.62 1.438-11.501.532-17.15-.24-.045-41.598-.023-83.204-.016-124.81-.112-4.023 2.428-8.257 6.556-9.08zM787.157 505.591c8.421-3.813 17.922-4.525 27.01-3.401 11.786 1.536 22.852 8.137 29.648 17.9 8.392 11.853 11.216 27.265 8.474 41.44-23.766-.007-47.54-.007-71.306 0 .787 6.302 3.304 12.61 8.13 16.911 5.918 5.402 14.183 7.388 22.035 7.268 5.934.15 11.838-.967 17.42-2.937 4.016-1.289 8.137-3.08 12.452-2.428 2.675.442 4.608 2.712 5.687 5.058 1.648 3.738 1.461 7.964.862 11.913-8.751 3.641-17.885 6.705-27.385 7.515-13.135 1.206-27.056.03-38.602-6.864-11.104-6.33-18.866-17.614-21.848-29.94-3.072-12.767-2.345-26.71 3.342-38.66 4.825-10.468 13.479-19.182 24.08-23.775m2.166 20.095c-5.342 5.058-7.845 12.37-8.594 19.54 17.15-.007 34.3.008 51.451-.007-.734-7.447-3.641-14.91-9.2-20.08-3.942-3.806-9.486-5.492-14.866-5.746-6.736-.427-13.92 1.4-18.79 6.293zM981.595 502.295c10.639-1.207 21.758.21 31.288 5.29 10.31 5.214 18.5 14.325 22.83 25.017 6.099 14.745 5.312 32.18-2.053 46.334-4.743 9.32-12.782 16.828-22.238 21.24-9.995 4.833-21.518 5.755-32.397 4.122-13.232-2.113-25.602-9.696-33.102-20.86-7.133-10.669-9.83-23.998-8.317-36.668 1.371-11.943 7.073-23.369 15.907-31.543 7.732-7.066 17.667-11.689 28.082-12.932m2.914 18.626c-9.575 1.529-17.824 8.542-21.39 17.488-3.358 7.912-3.665 16.933-1.71 25.25 2.009 7.769 6.714 15.12 13.795 19.15 6.196 3.454 13.786 4.563 20.626 2.518 7.246-1.978 13.36-7.268 16.821-13.876 4.068-7.65 4.855-16.686 3.559-25.145-1.176-7.253-4.488-14.363-10.07-19.256-5.822-5.117-13.996-7.425-21.63-6.129zM1073.64 509.54c8.024-5.417 17.772-8.174 27.445-7.792 13.06-.232 26.171 5.582 34.45 15.742 9.906 12.107 13.412 28.8 10.46 44.04-23.766-.007-47.54-.007-71.306 0 .794 6.114 3.11 12.273 7.717 16.536 5.942 5.672 14.408 7.77 22.44 7.643 5.927.15 11.83-.96 17.42-2.93 4.001-1.296 8.107-3.072 12.415-2.45 2.855.517 4.915 2.975 5.934 5.56 1.372 3.64 1.237 7.627.66 11.418-7.822 3.267-15.937 6.047-24.366 7.185-11.71 1.342-24.02 1.2-35.08-3.334-9.388-3.701-17.6-10.474-22.702-19.218-6.503-10.894-8.511-24.066-6.99-36.556 1.723-14.228 9.463-27.872 21.503-35.844m9.793 15.764c-5.59 5.073-8.257 12.565-8.991 19.923 17.143-.008 34.293.007 51.436-.008-.757-7.26-3.477-14.55-8.804-19.705-3.626-3.686-8.729-5.552-13.801-6.016-7.006-.72-14.618.824-19.84 5.806zM872.744 504.34c5.154-1.416 10.819-2.63 15.981-.57 3.47 1.327 5.222 5.08 5.747 8.55.397 3.461.09 6.96.21 10.437 2.877-6.863 7.245-13.532 13.988-17.113 7.35-4.21 16.266-3.821 24.32-2.263 1.155 4.848 2.091 10.332-.441 14.91-1.918 3.424-6.107 4.66-9.808 4.466-6.863-.143-14.25.434-19.908 4.75-5.626 3.971-7.552 11.209-7.582 17.765-.067 16.715 0 33.424-.03 50.132.03 3.454-1.978 7.185-5.5 8.077-5.544 1.498-11.373.524-16.962-.187-.038-32.982-.015-65.972-.015-98.954zM1177.95 505.884c8.602-3.612 18.11-4.001 27.31-3.694 11.224.547 22.29 2.944 32.945 6.45.397 4.526.412 9.531-2.3 13.405-1.476 2.165-4.24 2.945-6.736 2.802-6.204.083-11.868-2.877-17.944-3.581-6.077-.78-12.258-1.027-18.334-.188-2.803.442-5.732 1.207-7.845 3.215-2.667 2.502-3.072 6.968-1.064 9.987 1.903 2.293 4.803 3.417 7.53 4.398 9.98 3.14 20.26 5.29 30.075 8.939 6.503 2.607 13.232 5.919 17.315 11.868 5.095 7.335 5.26 17.15 2.42 25.385-2.285 6.818-7.987 12.01-14.445 14.872-10.97 5.05-23.43 5.177-35.245 4.248-10.744-.966-21.324-3.409-31.506-6.953-.817-4.735-.644-10.204 2.577-14.07 2.765-3.162 7.38-2.526 11.044-1.701 8.13 2.008 16.229 4.72 24.696 4.795 5.964.06 12.385.255 17.734-2.825 4.031-2.233 5.2-7.83 3.364-11.853-1.536-3.05-4.892-4.398-7.89-5.567-12.602-4.593-26.283-6.316-38.136-12.887-5.222-2.817-9.665-7.305-11.756-12.925-2.824-7.717-2.015-16.805 2.555-23.69 3.252-4.856 8.264-8.28 13.637-10.43z"/>
    </g>
</svg>
