<?xml version="1.0" encoding="UTF-8" standalone="no"?>
<svg
   xmlns:dc="http://purl.org/dc/elements/1.1/"
   xmlns:cc="http://creativecommons.org/ns#"
   xmlns:rdf="http://www.w3.org/1999/02/22-rdf-syntax-ns#"
   xmlns:svg="http://www.w3.org/2000/svg"
   xmlns="http://www.w3.org/2000/svg"
   xmlns:xlink="http://www.w3.org/1999/xlink"
   height="324.81964"
   width="1065.6"
   xml:space="preserve"
   viewBox="0 0 999 304.51842"
   y="0px"
   x="0px"
   id="svg4708"
   version="1.1"><metadata
   id="metadata88"><rdf:RDF><cc:Work
       rdf:about=""><dc:format>image/svg+xml</dc:format><dc:type
         rdf:resource="http://purl.org/dc/dcmitype/StillImage" /><dc:title></dc:title></cc:Work></rdf:RDF></metadata><defs
   id="defs86" />
<style
   id="style2"
   type="text/css">
	.st0{fill:url(#path4169_1_);}
	.st1{fill:#A1A2A2;}
	.st2{fill:url(#path4217_1_);}
	.st3{fill:#FFFFFF;}
	.st4{fill:#AE2C3F;}
	.st5{clip-path:url(#SVGID_2_);}
	.st6{opacity:0.4;}
	.st7{clip-path:url(#SVGID_4_);}
</style>
<g
   id="g73">
	
		<linearGradient
   gradientTransform="matrix(0,182.4774,-182.4774,0,113918.41,429315.5)"
   y2="621.55011"
   x2="-2351.6826"
   y1="621.55011"
   x1="-2352.6826"
   gradientUnits="userSpaceOnUse"
   id="path4169_1_">
		<stop
   id="stop4"
   style="stop-color:#868685"
   offset="0" />
		<stop
   id="stop6"
   style="stop-color:#D8D9D9"
   offset="2.044800e-02" />
		<stop
   id="stop8"
   style="stop-color:#F5F5F5"
   offset="5.240450e-02" />
		<stop
   id="stop10"
   style="stop-color:#EDEEEE"
   offset="0.4877" />
		<stop
   id="stop12"
   style="stop-color:#F5F5F5"
   offset="0.8955" />
		<stop
   id="stop14"
   style="stop-color:#EBEBEC"
   offset="0.9294" />
		<stop
   id="stop16"
   style="stop-color:#D8D9D9"
   offset="0.9643" />
		<stop
   id="stop18"
   style="stop-color:#868685"
   offset="1" />
	</linearGradient>
	<path
   style="fill:url(#path4169_1_)"
   d="M 26.2,5.6 C 12.1,5.6 7.1,14 7.1,27.9 v 0 135 c 0,13.9 5,22.2 19.2,22.2 v 0 h 946.5 c 14.2,0 19.2,-8.4 19.2,-22.2 v 0 -135 C 992,14 987,5.7 972.8,5.7 v 0 z"
   class="st0"
   id="path4169" />
	<path
   style="fill:#a1a2a2"
   d="m 971.6,190.8 c 21,0 27.4,-13.1 27.4,-26.1 V 26.1 C 999,13.1 992.6,0 971.6,0 H 27.4 C 6.4,0 0,13.1 0,26.1 v 138.5 c 0,13.1 6.4,26.1 27.4,26.1 z M 28.4,189 C 14.3,189 4.7,180.7 4.7,166.8 V 24 C 4.7,10.1 14.3,1.8 28.4,1.8 h 942.3 c 14.1,0 23.7,8.3 23.7,22.2 v 142.8 c 0,13.9 -9.6,22.2 -23.7,22.2 -0.1,0 -942.3,0 -942.3,0 z"
   class="st1"
   id="path4181" />
	
		<linearGradient
   gradientTransform="matrix(0,-179.4669,-179.4669,0,112173.35,-425980.78)"
   y2="621.3327"
   x2="-2373.6208"
   y1="621.3327"
   x1="-2374.6211"
   gradientUnits="userSpaceOnUse"
   id="path4217_1_">
		<stop
   id="stop23"
   style="stop-color:#820021"
   offset="0" />
		<stop
   id="stop25"
   style="stop-color:#AE2C3F"
   offset="0.1044" />
		<stop
   id="stop27"
   style="stop-color:#BA3C4C"
   offset="1" />
	</linearGradient>
	<path
   style="fill:url(#path4217_1_)"
   d="m 337.4,5.6 v 179.5 h 635.4 c 14.2,0 19.2,-8.4 19.2,-22.2 v 0 -135 C 992,14 987,5.7 972.8,5.7 v 0 H 337.4 Z"
   class="st2"
   id="path4217" />
	<g
   id="g37">
		<path
   style="fill:#ffffff"
   d="m 426,152 c -8,0 -15.3,-1.4 -22,-4.3 -6.7,-2.9 -12.5,-6.8 -17.5,-11.9 -4.9,-5.1 -8.8,-11.1 -11.6,-18 -2.8,-6.9 -4.2,-14.5 -4.2,-22.6 0,-7.9 1.4,-15.2 4.2,-22.1 2.8,-6.8 6.7,-12.8 11.6,-17.9 4.9,-5.1 10.8,-9 17.5,-11.9 6.7,-2.9 14.1,-4.3 22,-4.3 5.7,0 11.3,0.6 16.6,1.9 5.4,1.2 10.4,2.8 15,4.7 1,14.9 -2.6,22.4 -10.9,22.4 -1.5,0 -2.8,-0.2 -4,-0.5 -1.2,-0.3 -2.6,-0.7 -4,-1 -1.5,-0.3 -3.1,-0.7 -4.9,-1 -1.8,-0.3 -3.9,-0.5 -6.4,-0.5 -3.9,0 -7.6,0.7 -11.1,2.1 -3.5,1.4 -6.5,3.4 -9,6.1 -2.5,2.6 -4.5,5.8 -6,9.5 -1.5,3.7 -2.2,7.9 -2.2,12.5 0,4.8 0.7,9.2 2.2,13 1.5,3.8 3.4,7 6,9.7 2.5,2.6 5.5,4.7 9,6.1 3.5,1.4 7.2,2.1 11.1,2.1 2.5,0 4.7,-0.2 6.6,-0.5 1.9,-0.3 3.6,-0.7 5.1,-1 1.5,-0.3 2.9,-0.7 4.3,-1 1.3,-0.3 2.7,-0.5 4.2,-0.5 8.2,0 11.8,7.5 10.9,22.4 -4.6,1.9 -9.7,3.5 -15.4,4.7 -5.7,1.1 -11.4,1.8 -17.1,1.8"
   class="st3"
   id="path4229" />
		<path
   style="fill:#ffffff"
   d="m 484,150.6 c -2.4,0 -4.7,-0.1 -7,-0.3 -2.3,-0.2 -4.2,-0.5 -5.8,-0.8 V 51.9 c 0,-3.3 1,-6 3,-8.3 2,-2.3 5.8,-3.5 11.4,-3.5 2.3,0 4.7,0.1 7,0.3 2.3,0.2 4.2,0.5 5.8,0.8 v 97.6 c 0,3.3 -1,6 -3,8.3 -2,2.4 -5.8,3.5 -11.4,3.5"
   class="st3"
   id="path4233" />
		<path
   style="fill:#ffffff"
   d="m 529.9,150.6 c -2.2,0 -4.4,-0.1 -6.6,-0.3 -2.1,-0.2 -3.9,-0.5 -5.4,-0.8 V 42.1 c 1.7,-0.6 3.9,-1 6.6,-1.4 2.7,-0.4 5,-0.6 6.9,-0.6 6.2,0 10.6,0.8 13.4,2.4 2.8,1.6 5.1,3.9 7.1,6.9 l 38.2,60.2 V 50.9 c 0,-1.5 0.2,-2.8 0.6,-4.1 0.4,-1.3 1.1,-2.4 2,-3.5 1,-1 2.3,-1.8 4,-2.4 1.7,-0.6 3.8,-0.9 6.4,-0.9 2.2,0 4.4,0.1 6.5,0.3 2.1,0.2 3.8,0.4 5.3,0.7 v 107.5 c -1.6,0.8 -3.5,1.3 -5.7,1.6 -2.2,0.3 -4.4,0.4 -6.6,0.4 -5.3,0 -9.2,-0.7 -11.8,-2.2 -2.6,-1.5 -4.7,-3.5 -6.4,-6.1 L 543.5,77 v 62.5 c 0,3.1 -1,5.8 -2.9,7.9 -1.8,2.2 -5.4,3.2 -10.7,3.2"
   class="st3"
   id="path4237" />
		<path
   style="fill:#ffffff"
   d="m 649.3,149.9 c -3.1,0 -5.7,-0.3 -7.6,-1 -1.9,-0.7 -3.5,-1.6 -4.5,-2.8 -1.1,-1.2 -1.8,-2.6 -2.2,-4.3 -0.4,-1.7 -0.6,-3.5 -0.6,-5.4 V 53.9 c 0,-1.9 0.2,-3.7 0.6,-5.4 0.4,-1.7 1.1,-3.1 2.2,-4.3 1.1,-1.2 2.6,-2.1 4.5,-2.8 2,-0.7 4.5,-1 7.6,-1 H 705 c 0.2,1.2 0.5,2.9 0.7,5.1 0.2,2.1 0.3,4.3 0.3,6.6 0,4.7 -0.9,8.1 -2.9,10 -1.9,2 -4.3,3 -7.2,3 h -34.3 v 19.2 h 39.5 c 0.2,1.1 0.5,2.6 0.7,4.5 0.2,1.9 0.3,3.9 0.3,6 0,4.5 -0.9,7.6 -2.7,9.2 -1.8,1.6 -4,2.4 -6.7,2.4 h -31.1 v 19 h 45 c 0.2,1.2 0.5,2.9 0.7,5.1 0.2,2.2 0.3,4.4 0.3,6.5 0,4.8 -1,8.2 -2.9,10.1 -1.9,1.9 -4.3,2.9 -7.2,2.9 h -48.2 z"
   class="st3"
   id="path4241" />
		<path
   style="fill:#ffffff"
   d="m 730.1,150.6 c -2.6,0 -4.9,-0.3 -6.8,-0.8 -2,-0.5 -3.7,-1.1 -5.1,-1.8 L 728.5,43 c 2.1,-0.9 4.9,-1.6 8.4,-2.2 3.5,-0.6 6.4,-0.9 8.9,-0.9 3.5,0 6.5,0.2 9,0.7 2.5,0.4 4.7,1.2 6.5,2.3 1.8,1.1 3.2,2.6 4.3,4.5 1.1,1.9 1.9,4.3 2.4,7.1 l 4.4,20.4 c 1.2,5.6 2.5,11.8 3.9,18.6 1.4,6.8 2.7,13.8 3.8,21 h 0.7 c 1.2,-7.2 2.5,-14.2 3.9,-20.9 1.3,-6.7 2.7,-12.9 4.2,-18.5 l 5.4,-21.4 c 1.3,-5.3 3.5,-8.9 6.5,-10.8 3,-1.9 7.6,-2.9 13.8,-2.9 3.1,0 6.3,0.3 9.5,0.8 3.2,0.5 5.9,1 8,1.6 l 9.8,105.6 c -1.6,0.6 -3.5,1.1 -5.6,1.7 -2.2,0.6 -4.6,0.8 -7.1,0.8 -3.6,0 -6.6,-0.6 -9.1,-1.9 -2.5,-1.2 -3.8,-3.5 -4,-6.9 l -2.5,-36.4 c -0.6,-6.4 -1,-13.1 -1.4,-20.1 -0.4,-7 -0.6,-13.7 -0.8,-20 h -0.3 c -1.5,5.9 -2.9,12.2 -4.5,19 -1.5,6.8 -3.1,13.1 -4.6,18.8 l -6.9,28.6 c -1.7,6.7 -7,10.1 -16,10.1 -2.2,0 -4.5,-0.2 -6.9,-0.7 -2.3,-0.4 -4.4,-0.9 -6,-1.5 l -8.6,-35.7 c -1.7,-6.6 -3.3,-13.1 -4.7,-19.5 -1.5,-6.4 -2.8,-12.8 -4,-19.2 h -0.5 c -0.3,9 -0.8,17.2 -1.3,24.7 -0.6,7.5 -1.1,13.9 -1.5,19.3 l -2.7,32.9 c -0.2,3.3 -1.5,5.5 -3.7,6.7 -2.6,1.3 -5.5,1.9 -9.1,1.9"
   class="st3"
   id="path4245" />
		<path
   style="fill:#ffffff"
   d="m 888.7,104.6 h 25.1 L 901.3,63.3 Z M 862.5,151 c -2.1,0 -4.6,-0.2 -7.3,-0.6 -2.8,-0.4 -5,-0.9 -6.8,-1.6 L 883.3,42 c 3,-0.8 6.1,-1.4 9.2,-1.7 3.1,-0.3 5.9,-0.5 8.5,-0.5 3.7,0 6.9,0.3 9.5,0.8 2.6,0.6 4.9,1.4 6.7,2.5 1.8,1.1 3.3,2.6 4.5,4.5 1.2,1.9 2.2,4 3,6.5 l 29.9,94.5 c -1.9,0.8 -4.2,1.4 -6.9,1.8 -2.7,0.4 -5.3,0.6 -7.9,0.6 -2.9,0 -5.7,-0.5 -8.5,-1.4 -2.7,-1 -4.7,-3.1 -6,-6.5 l -5.7,-17.4 H 882.9 L 878,142 c -1.2,3.9 -3.3,6.4 -6.2,7.4 -3,1 -6.1,1.6 -9.3,1.6"
   class="st3"
   id="path4249" />
	</g>
	<path
   style="fill:#ae2c3f"
   d="m 121.3,112.6 c 0,15.4 -10,26.6 -30.4,28.8 -14.8,1.6 -36.2,-0.3 -46.3,-1.5 -0.4,-1.7 -0.7,-3.7 -0.7,-5.3 0,-13.4 7.3,-16.5 14.1,-16.5 7.1,0 18.2,1.2 26.5,1.2 9.1,0 11.9,-3.1 11.9,-6 0,-3.9 -3.7,-5.5 -10.7,-6.8 L 66.4,102.8 C 50.3,99.7 41.7,88.6 41.7,76.7 c 0,-14.4 10.2,-26.4 30.2,-28.6 15.1,-1.6 33.5,0.2 43.6,1.5 0.4,1.7 0.6,3.4 0.6,5.2 0,13.4 -7.1,16.3 -13.9,16.3 -5.2,0 -13.4,-1 -22.6,-1 C 69.9,70 66,72.6 66,75.8 c 0,3.4 3.7,4.7 9.6,5.8 L 94.1,85 c 19,3.5 27.2,14.3 27.2,27.6 m 33.2,16.5 c 0,8.2 -3.2,13 -19.3,13 -2.1,0 -4,-0.2 -5.8,-0.4 V 32.3 c 0,-8.3 2.8,-17 19.1,-17 2,0 4.1,0.2 6,0.6 z m 65.7,42.3 c 2.1,1.1 6.4,2.4 11.9,2.5 9.3,0.2 14.4,-3.4 18.2,-11.7 L 300.4,50.4 c -2.1,-1.1 -6.6,-2.3 -10.4,-2.4 -6.4,-0.1 -15.1,1.2 -20.6,14.4 l -16.2,38.3 -31.8,-51.8 c -2.1,-0.6 -7.1,-1.5 -10.7,-1.5 -11.2,0 -17.5,4.1 -24,11.2 l -30.9,33.8 24.9,39.2 c 4.6,7.1 10.7,10.8 20.5,10.8 6.4,0 11.8,-1.5 14.3,-2.7 l -30,-45.2 21.2,-22.5 34.8,54.7 z"
   class="st4"
   id="path4253" />
	<g
   id="g71">
		<g
   id="g69">
			<g
   id="g67">
				<g
   id="g65">
					<defs
   id="defs41">
						<rect
   height="160.39999"
   width="981.5"
   y="8.5"
   x="8.3999996"
   id="SVGID_1_" />
					</defs>
					<clipPath
   id="SVGID_2_">
						<use
   height="100%"
   width="100%"
   y="0"
   x="0"
   id="use43"
   style="overflow:visible"
   xlink:href="#SVGID_1_" />
					</clipPath>
					<g
   id="g63"
   clip-path="url(#SVGID_2_)"
   class="st5">
						<g
   id="g61">
							<g
   id="g59">
								<g
   id="g4255">
									<g
   style="opacity:0.4"
   class="st6"
   id="g4269">
										<g
   id="g4271">
											<g
   id="g4273">
												<defs
   id="defs47">
													<rect
   height="160.39999"
   width="981.5"
   y="8.5"
   x="8.3999996"
   id="SVGID_3_" />
												</defs>
												<clipPath
   id="SVGID_4_">
													<use
   height="100%"
   width="100%"
   y="0"
   x="0"
   id="use49"
   style="overflow:visible"
   xlink:href="#SVGID_3_" />
												</clipPath>
												<g
   clip-path="url(#SVGID_4_)"
   class="st7"
   id="g4275">
													<g
   transform="translate(504.1664,519.8869)"
   id="g4277">
														<path
   style="fill:#ffffff"
   d="m 469.9,-376.9 c 12.2,12 13.8,23.4 14.2,25.9 1.2,0 1.6,-5.3 1.6,-13.3 v -127.4 c 0,-14.8 -4.8,-19.7 -17.3,-19.7 -4.2,0 -8.5,2.3 -14.1,2.3 h -918.6 c -5.6,0 -9.9,-2.3 -14.1,-2.3 -12.5,0 -17.3,5 -17.3,19.7 v 127.4 c 0,7.9 0.4,13.3 1.6,13.3 0.4,-2.5 0.8,-14.8 14.2,-25.9 107.5,-82.8 834,-108.3 949.8,0"
   class="st3"
   id="path4279" />
													</g>
												</g>
											</g>
										</g>
									</g>
								</g>
							</g>
						</g>
					</g>
				</g>
			</g>
		</g>
	</g>
</g>

<path
   d="m 697.72026,304.51841 c -1.04432,0 -2.08868,-0.0356 -3.0976,-0.10629 -1.00895,-0.0707 -1.80546,-0.1769 -2.37187,-0.31861 V 236.3887 c 0.76111,-0.35401 1.75235,-0.61954 2.9383,-0.79654 1.18592,-0.17692 2.28336,-0.26551 3.25691,-0.26551 2.79669,0 4.81456,0.37172 6.03589,1.09745 1.22135,0.74342 2.30108,1.80546 3.20383,3.20379 l 30.60433,47.29604 -0.63722,-46.99511 c 0,-1.25676 0.40713,-2.33647 1.20364,-3.25691 0.79654,-0.90275 2.26569,-1.36295 4.35436,-1.36295 0.97354,0 1.98246,0.0531 2.99141,0.15935 1.00892,0.10628 1.80546,0.23016 2.37187,0.37176 v 67.70482 c -1.61076,0.63722 -3.50472,0.93813 -5.6819,0.93813 -2.51348,0 -4.37205,-0.3717 -5.57569,-1.09744 -1.18594,-0.74342 -2.17718,-1.69926 -2.93829,-2.88519 l -31.64869,-49.2962 0.63722,48.65898 c 0,1.32754 -0.40713,2.44269 -1.20364,3.31 -0.79654,0.90274 -2.28339,1.34525 -4.44286,1.34525 m -52.88942,-0.63722 c -2.58428,0 -4.24814,-0.51331 -4.99157,-1.52225 -0.74342,-1.00893 -1.09743,-2.33648 -1.09743,-3.94723 v -57.40308 c 0,-1.61075 0.37172,-2.9206 1.09743,-3.94722 0.74343,-1.00895 2.40729,-1.52228 4.99157,-1.52228 h 35.31273 c 0.1416,0.56644 0.26549,1.32756 0.3717,2.31879 0.10605,0.97354 0.15935,1.96478 0.15935,2.9383 0,2.03558 -0.44252,3.45163 -1.30984,4.24814 -0.86734,0.81423 -1.94707,1.20364 -3.20382,1.20364 h -25.64821 v 18.28475 h 27.11733 c 0.0707,0.56642 0.15935,1.27444 0.26549,2.15947 0.10605,0.88503 0.15936,1.80547 0.15936,2.779 0,1.96477 -0.40712,3.3277 -1.20364,4.10653 -0.81422,0.77883 -1.80545,1.15055 -2.9914,1.15055 h -23.34714 v 18.39092 h 30.58665 c 0.0707,0.56642 0.15935,1.27445 0.2655,2.15947 0.10605,0.86734 0.15935,1.80547 0.15935,2.77901 0,2.10635 -0.42482,3.59321 -1.25675,4.46056 -0.84964,0.88502 -1.89396,1.30984 -3.15072,1.30984 h -32.2859 z m -59.06691,0.63722 c -1.11516,0 -2.23029,-0.0531 -3.31004,-0.15935 -1.09743,-0.10616 -1.91165,-0.23012 -2.47807,-0.37172 v -62.96107 c 0,-1.61075 0.37172,-2.9206 1.09743,-3.94723 0.74343,-1.00892 2.40729,-1.52226 4.99157,-1.52226 h 17.13419 c 7.84138,0 13.94808,1.87628 18.28474,5.6288 4.33665,3.75254 6.51383,8.9211 6.51383,15.50572 0,2.72591 -0.44253,5.2748 -1.30985,7.62898 -0.88502,2.35418 -2.12408,4.42516 -3.73484,6.24831 -1.61074,1.82318 -3.57552,3.32771 -5.89428,4.51367 -2.3188,1.18592 -4.93849,1.96475 -7.89447,2.31877 l 21.24072,25.22337 c -1.11515,0.63722 -2.35419,1.09744 -3.68172,1.41605 -1.32756,0.31861 -2.5843,0.4779 -3.78794,0.4779 -2.24799,0 -4.01804,-0.33631 -5.31018,-0.99123 -1.29216,-0.67263 -2.6374,-1.87627 -4.05344,-3.62862 l -17.11649,-21.96646 h -4.74376 v 21.64784 c 0,1.39836 -0.44253,2.58431 -1.30984,3.52242 -0.83195,0.93815 -2.3896,1.41605 -4.63756,1.41605 m 5.9828,-36.69335 h 9.66454 c 5.32786,0 9.13351,-0.99123 11.39918,-2.99141 2.28337,-2.00016 3.4162,-4.70836 3.4162,-8.14229 0,-3.3631 -1.02662,-5.92968 -3.09759,-7.71745 -2.07097,-1.78776 -5.34558,-2.67278 -9.82385,-2.67278 h -11.55848 z m -59.17314,36.05614 c -2.60197,0 -4.26584,-0.51331 -4.99157,-1.52226 -0.74342,-1.00892 -1.09743,-2.33648 -1.09743,-3.94723 v -57.40302 c 0,-1.61075 0.37172,-2.9206 1.09743,-3.94722 0.74342,-1.00895 2.40729,-1.52228 4.99157,-1.52228 h 35.31272 c 0.14161,0.56644 0.2655,1.32756 0.37171,2.31879 0.10605,0.97354 0.15935,1.96478 0.15935,2.9383 0,2.03558 -0.44252,3.45163 -1.30985,4.24814 -0.86733,0.81423 -1.94706,1.20364 -3.20382,1.20364 h -25.64817 v 18.28475 h 27.11734 c 0.0707,0.56642 0.15935,1.27444 0.26549,2.15947 0.10605,0.88503 0.15936,1.80547 0.15936,2.779 0,1.96477 -0.40713,3.3277 -1.20364,4.10653 -0.81423,0.77883 -1.80546,1.15055 -2.99141,1.15055 h -23.32941 v 18.39092 h 30.58665 c 0.0708,0.56642 0.15936,1.27445 0.26552,2.15947 0.10604,0.86734 0.15935,1.80547 0.15935,2.77901 0,2.10635 -0.42481,3.59321 -1.25673,4.46056 -0.84963,0.88502 -1.89398,1.30984 -3.1507,1.30984 h -32.30376 z m -25.43577,0.63727 c -1.11514,0 -2.23027,-0.0531 -3.31001,-0.15935 -1.07974,-0.10616 -1.91167,-0.23012 -2.47809,-0.37172 v -63.70448 c 0,-1.39836 0.44253,-2.5666 1.30983,-3.52244 0.86736,-0.95583 2.4427,-1.41604 4.67298,-1.41604 1.11513,0 2.23027,0.0531 3.31003,0.15936 1.07971,0.10604 1.91165,0.23011 2.47808,0.37172 v 63.70448 c 0,1.39835 -0.44254,2.5843 -1.30985,3.52242 -0.88503,0.93815 -2.44269,1.41605 -4.67297,1.41605 m -84.6266,-0.10629 c -1.18595,0 -2.23029,-0.12386 -3.09762,-0.37169 -0.86733,-0.24782 -1.62846,-0.51334 -2.26568,-0.79655 l 6.95635,-66.53658 c 0.97353,-0.4248 2.24797,-0.76113 3.82333,-1.00893 1.57534,-0.24781 2.92059,-0.37172 4.03575,-0.37172 3.13299,0 5.54027,0.47792 7.16872,1.41606 1.64617,0.93812 2.74361,2.61969 3.29231,4.99157 l 11.55852,45.72066 11.6647,-45.40204 c 0.56643,-2.3896 1.68156,-4.10655 3.36312,-5.15089 1.68154,-1.04432 4.00034,-1.57536 6.93864,-1.57536 1.39833,0 2.83209,0.10616 4.30124,0.3186 1.46915,0.21244 2.69048,0.46023 3.68172,0.74345 l 6.58464,66.85518 c -0.69033,0.28321 -1.52226,0.54873 -2.46038,0.79655 -0.93815,0.2478 -2.01788,0.37169 -3.20383,0.37169 -1.61074,0 -2.9383,-0.28321 -4.00033,-0.84962 -1.04433,-0.56643 -1.64615,-1.61074 -1.78775,-3.15071 l -4.46056,-54.02226 -12.83295,47.82705 c -0.56642,1.96477 -1.52226,3.31002 -2.88519,4.05344 -1.36295,0.74343 -3.09761,1.09743 -5.20397,1.09743 -1.06207,0 -2.1595,-0.0707 -3.31003,-0.2124 -1.15054,-0.1416 -2.12407,-0.35401 -2.88521,-0.61953 l -14.4791,-52.14599 -4.88536,54.12846 c -0.1416,1.46916 -0.74342,2.47808 -1.78776,3.04451 -1.09743,0.56641 -2.35419,0.84962 -3.82332,0.84962 m -49.72103,-0.53102 c -2.58428,0 -4.26583,-0.51331 -4.99157,-1.52224 -0.74342,-1.00892 -1.09743,-2.33648 -1.09743,-3.94723 v -57.40299 c 0,-1.61075 0.37172,-2.9206 1.09743,-3.94722 0.72574,-1.00894 2.40729,-1.52228 4.99157,-1.52228 h 35.31273 c 0.1416,0.56644 0.26549,1.32756 0.3717,2.31879 0.10629,0.97355 0.15936,1.96478 0.15936,2.93831 0,2.03557 -0.44253,3.45162 -1.30985,4.24814 -0.86734,0.81422 -1.94707,1.20363 -3.20382,1.20363 h -25.64817 v 18.28475 h 27.11733 c 0.0708,0.56642 0.15935,1.27445 0.26549,2.15947 0.10617,0.88503 0.15936,1.80547 0.15936,2.779 0,1.96477 -0.40712,3.3277 -1.20364,4.10654 -0.81422,0.77882 -1.80546,1.15054 -2.99141,1.15054 h -23.3294 v 18.39092 h 30.58664 c 0.0708,0.56642 0.15936,1.27445 0.26554,2.15947 0.10604,0.86734 0.15934,1.80547 0.15934,2.77901 0,2.10635 -0.42482,3.59322 -1.25674,4.46056 -0.84962,0.88502 -1.89397,1.30984 -3.15069,1.30984 h -32.30363 z m -59.06692,0.63723 c -1.11514,0 -2.23027,-0.0531 -3.31002,-0.15935 -1.09744,-0.10605 -1.91166,-0.23013 -2.47808,-0.37173 v -62.96105 c 0,-1.61076 0.37172,-2.92061 1.09743,-3.94725 0.74343,-1.00892 2.40729,-1.52225 4.99158,-1.52225 h 17.13418 c 7.84138,0 13.94808,1.87627 18.28474,5.62879 4.33664,3.75254 6.51382,8.92111 6.51382,15.50574 0,2.72589 -0.44252,5.27478 -1.30984,7.62897 -0.88503,2.35417 -2.12407,4.42515 -3.73484,6.2483 -1.61074,1.82318 -3.57552,3.32772 -5.89429,4.51368 -2.31879,1.18592 -4.93848,1.96474 -7.87678,2.31876 l 21.24073,25.22337 c -1.11513,0.63723 -2.35417,1.09744 -3.68173,1.41606 -1.32754,0.31861 -2.58429,0.4779 -3.78793,0.4779 -2.24797,0 -4.01803,-0.3363 -5.31018,-0.99124 -1.29214,-0.67262 -2.63738,-1.87626 -4.05343,-3.62861 l -17.1165,-21.96649 h -4.74376 v 21.64785 c 0,1.39835 -0.44251,2.5843 -1.30985,3.52243 -0.86732,0.93814 -2.42497,1.41603 -4.65525,1.41603 m 5.98281,-36.69335 h 9.66453 c 5.32787,0 9.13352,-0.99123 11.39919,-2.9914 2.28337,-2.00017 3.41621,-4.70837 3.41621,-8.14228 0,-3.36312 -1.02663,-5.9297 -3.0976,-7.71747 -2.07098,-1.78776 -5.34558,-2.67278 -9.82384,-2.67278 h -11.55849 z m -63.49209,36.69351 c -1.11513,0 -2.23028,-0.0531 -3.31,-0.15935 -1.09744,-0.10617 -1.91167,-0.23012 -2.47809,-0.37172 v -62.96107 c 0,-1.61075 0.3717,-2.9206 1.09744,-3.94723 0.72571,-1.00892 2.40728,-1.52226 4.99157,-1.52226 h 15.45262 c 4.47826,0 8.42549,0.60182 11.82401,1.78777 3.39851,1.18594 6.21292,2.8321 8.46089,4.93846 2.24798,2.10639 3.92953,4.56677 5.04468,7.41657 1.11513,2.8321 1.68155,5.8766 1.68155,9.09811 0,3.43392 -0.61951,6.58462 -1.84086,9.45212 -1.22134,2.8675 -2.97371,5.3456 -5.25707,7.41655 -2.28339,2.07097 -5.00929,3.68173 -8.1954,4.83228 -3.18611,1.15053 -6.74392,1.73465 -10.67345,1.73465 h -10.83277 v 17.34659 c 0,1.39836 -0.44253,2.58431 -1.30985,3.52242 -0.84963,0.93815 -2.40728,1.41605 -4.65527,1.41605 m 6.00052,-32.69301 h 8.93879 c 5.4695,0 9.45213,-1.15055 11.98332,-3.46932 2.51349,-2.31879 3.78793,-5.46949 3.78793,-9.46984 0,-4.07113 -1.25675,-7.18644 -3.78793,-9.36361 -2.53119,-2.17718 -6.19521,-3.25692 -11.04517,-3.25692 h -9.87694 z"
   style="fill:#020203;stroke-width:1.7700609"
   id="path100" /></svg>