<svg width="1872.2pt" height="857" viewBox="0 0 1872.2 642.75" xmlns="http://www.w3.org/2000/svg">
    <defs>
        <linearGradient id="a" x1="-8600.5" x2="-8600.5" y1="-4687.6" y2="-4591.4" gradientTransform="matrix(-2.9812 0 0 -2.9812 -24493 -13655)" gradientUnits="userSpaceOnUse">
            <stop stop-color="#a80000" offset="0"/>
            <stop stop-color="#a1000c" offset=".381"/>
            <stop stop-color="#b90019" offset="1"/>
        </linearGradient>
    </defs>
    <path d="M624.21 0h1223c13.753 0 25.006 11.253 25.006 25.006v325.08c0 13.753-11.253 25.006-25.006 25.006h-1223z" fill="url(#a)" stroke-width="2.981"/>
    <path d="M624.21 375.09H25.01c-13.753 0-25.006-11.253-25.006-25.006V24.694C.004 11.566 10.944.001 24.697.001h599.52z" fill="#fff" stroke-width="3.126"/>
    <g fill="#fff">
        <path d="M897.744 34.998c6.06-1.792 13.082-.457 17.777 3.87 6.722 5.882 8.072 16.856 2.926 24.17-3.81 5.94-11.274 9.279-18.228 7.996-8.709-1.358-15.978-9.549-15.647-18.468-.143-7.936 5.55-15.422 13.172-17.568zM763.172 100.111c16.03-4.35 32.975-3.743 49.2-.825 12.422 2.408 24.77 6.098 35.961 12.054.615 5.589.48 11.65-2.258 16.713-1.837 3.428-5.55 5.776-9.474 5.603-5.753-.172-10.921-2.993-16.195-4.965-11.012-4.539-22.976-6.82-34.888-6.294-11.154.555-22.248 3.976-31.445 10.382-8.499 5.768-15.257 13.944-19.66 23.2-4.989 10.54-7.06 22.332-6.714 33.944.345 10.802 2.648 21.663 7.644 31.302 5.963 11.935 16.127 21.746 28.37 27.117 15.744 6.991 34.025 6.339 50.205 1.163 6.653-2.033 12.812-5.521 19.623-7.029 4.216-1.05 9.159.27 11.68 3.968 3.637 5.214 3.757 12.032 3.105 18.116-10.554 5.266-21.956 8.754-33.478 11.162-19.098 3.765-39.396 4.32-57.932-2.348-18.715-6.504-34.94-19.788-45.075-36.801-8.829-14.635-13.262-31.798-13.127-48.848-.195-19.12 5.349-38.406 16.383-54.099 11.41-16.382 28.775-28.43 48.075-33.515zM1034.04 98.746c15.28-3.263 31.753-2.176 46.05 4.343 11.162 5.086 20.494 13.93 26.367 24.679 7.314 13.12 9.73 28.332 9.94 43.184 0 31.55.037 63.1-.038 94.65.127 4.021-2.116 8.192-6.114 9.414-7.179 2.28-14.905 1.148-22.166-.135-.045-34.213.023-68.433-.037-102.646-.436-13.442-3.541-27.77-13.06-37.829-8.266-8.978-20.943-12.64-32.87-12.016-12.325.727-24.087 5.895-33.846 13.3-6.068 4.657-11.477 10.298-15.34 16.93-.855 1.222-.682 2.752-.72 4.163.06 6.42.008 12.834.038 19.255.015 30.102.007 60.205-.008 90.307.158 4.02-2.595 7.756-6.466 8.814-7.028 2.04-14.522 1.013-21.603-.195-.12-32.615-.053-65.23-.06-97.846.06-25.421-.09-50.843.075-76.257 6.803-1.455 14.012-2.573 20.853-.735 3.683.945 6.939 4.043 7.111 8.004.263 5.566-.007 11.139.113 16.712 10.749-12.767 25.346-22.57 41.781-26.096zM1184.514 112.518c23.06-16.405 54.392-20.05 80.766-9.977 12.437 4.846 23.419 13.27 31.415 23.952 8.154 10.756 13.352 23.583 15.835 36.816 2.258 11.881 2.145 24.138.203 36.05-45.225.053-90.457 0-135.682.03 1.658 12.782 6.578 25.467 15.58 34.888 7.786 8.334 18.363 13.728 29.427 16.196 16.578 3.69 33.965 1.8 50.048-3.279 5.88-1.657 11.492-4.245 17.485-5.528 4.178-1.065 8.792.975 10.937 4.696 3.188 5.378 2.806 11.904 2.378 17.905-14.68 6.474-30.26 10.967-46.177 13.037-14.478 1.898-29.345 1.68-43.567-1.822-12.49-3.046-24.44-8.627-34.416-16.78-10.547-8.492-18.775-19.736-23.989-32.21-7.396-17.824-9.166-37.8-5.986-56.77 3.893-22.729 16.72-43.994 35.743-57.204m13.023 22.706c-10.232 8.634-16.54 21.093-19.496 34.003-.33 2.04-.653 4.08-.968 6.128 36.284 0 72.567-.007 108.85 0-.225-3.683-.637-7.343-1.327-10.974-2.49-12.43-8.912-24.371-19.069-32.18-19.593-15.167-49.53-12.977-67.99 3.023zM1409.7 99.893c15.94-5.153 34.266-3.6 48.593 5.326 8.934 5.484 15.783 13.87 20.321 23.254 6.856-9.842 15.603-18.565 26.27-24.221 13.374-7.172 29.336-8.957 44.114-5.784 10.546 2.266 20.426 7.801 27.567 15.933 9.234 10.344 13.937 24.064 15.182 37.723.728 7.779.3 15.603.413 23.412-.03 30.124.037 60.264-.045 90.389.127 4.32-2.88 8.289-7.074 9.316-7.051 1.906-14.522.953-21.596-.39.008-32.105-.007-64.217-.015-96.33-.172-8.416.495-16.893-.698-25.257-1.095-7.456-3.773-14.882-8.82-20.583-4.622-5.28-11.23-8.559-18.094-9.699-20.268-3.773-40.941 8.799-50.055 26.66-.908 2.092-.428 4.455-.518 6.668.015 36.44.038 72.882-.015 109.322.21 4.239-2.415 8.47-6.616 9.572-7.194 1.988-14.83.975-22.053-.33-.008-22.099-.008-44.197-.008-66.296-.128-16.982.24-33.973-.195-50.948-.548-6.968-2.138-13.997-5.693-20.08-3.436-5.972-9.01-10.705-15.528-12.97-11.207-3.938-23.944-2.573-34.34 3.03a52.712 52.712 0 0 0-19.271 17.486c-1.335 2.235-3.226 4.44-3.18 7.186-.076 2.813.022 5.626.015 8.439.03 34.948.007 69.903-.008 104.851.225 4.186-2.288 8.41-6.436 9.564-7.111 2.048-14.725 1.126-21.874-.27 0-37.708-.022-75.417 0-113.118.015-20.26-.007-40.521.008-60.782 6.489-1.433 13.307-2.58 19.9-1.088 3.789.803 7.194 3.774 7.734 7.742.645 5.063.143 10.194.3 15.28 8.102-10.457 19.046-18.926 31.716-23.007zM1692.196 97.433c12.894-.923 26.021-.645 38.646 2.378 10.307 2.453 20.358 7.134 27.807 14.822 8.139 8.094 12.67 19.158 14.665 30.32 2.138 10.817 1.372 21.881 1.507 32.833-.015 32.375.023 64.75-.022 97.125-6.714 1.238-13.712 2.1-20.448.6-4.006-.817-7.524-4.23-7.637-8.446-.12-5.4.008-10.802-.037-16.195-7.246 7.644-15.528 14.41-24.972 19.143-12.64 6.436-27.034 9.002-41.136 8.394-11.454-.473-22.984-3.308-32.795-9.369-10.787-6.579-19.151-17.178-22.542-29.397-3.593-12.872-2.415-27.387 4.629-38.909 5.086-8.319 12.984-14.567 21.573-18.985 12.49-6.362 26.36-9.467 40.192-11.237 18.13-2.236 36.47-2.108 54.683-.945-.067-7.862-.135-15.843-2.205-23.487-1.613-5.97-4.733-11.672-9.549-15.64-5.363-4.41-12.174-6.623-18.956-7.62-18.858-2.506-38.016.854-56.011 6.54-3.78 1.035-7.501 2.386-11.402 2.828-3.938.383-7.981-1.68-9.796-5.213-2.828-5.394-2.64-11.762-1.913-17.636 17.913-6.488 36.726-10.464 55.719-11.904m18.978 93.788c-13.052.787-26.322 2.242-38.519 7.216-7.006 2.933-13.772 7.576-17.253 14.53-5.258 10.434-2.715 24.07 5.986 31.895 5.964 5.633 14.005 8.588 22.076 9.421 12.445 1.118 25.204-1.373 36.314-7.126 9.781-4.906 18.25-12.197 25.076-20.71.6-.856 1.553-1.659 1.433-2.829.052-10.749-.045-21.506.037-32.247a339.159 339.159 0 0 0-35.15-.15zM894.968 100.449c7.239-2.318 15.025-1.073 22.294.517 0 26.022-.015 52.043 0 78.065.03 28.602-.015 57.197.007 85.799.023 3.06-.727 6.413-3.255 8.401-3.173 2.528-7.456 2.933-11.365 3.053-4.733.09-9.436-.502-14.064-1.403-.038-31.58-.015-63.152-.015-94.732.022-23.547-.038-47.093.022-70.639-.09-4.02 2.49-7.876 6.376-9.061z"/>
    </g>
    <path d="M421.97 333.52c4.064 2.188 12.19 4.689 22.818 4.689 17.817.312 27.507-6.565 34.696-22.505l95.648-213.18c-4.063-2.188-12.816-4.376-19.692-4.689-12.19-.313-28.757 2.188-39.384 27.507l-30.945 73.142-60.952-98.461c-4.063-1.25-13.441-2.813-20.63-2.813-21.255 0-33.445 7.814-45.948 21.255l-58.764 64.39 47.511 74.705c8.752 13.753 20.317 20.63 39.072 20.63 12.19 0 22.505-2.813 27.194-5.001l-57.201-86.27 40.635-42.823 66.578 104.4zm-125.34-80.644c0 15.629-6.252 24.693-36.884 24.693-4.064 0-7.502-.313-10.94-.938V68.461c0-15.94 5.314-32.195 36.258-32.195 3.75 0 7.814.313 11.565 1.25zm-63.452-31.257c0 29.382-19.067 50.637-58.139 55.013-28.132 3.126-69.079-.625-88.458-2.813-.625-3.126-1.25-7.19-1.25-10.315 0-25.631 13.753-31.57 26.88-31.57 13.442 0 34.697 2.188 50.638 2.188 17.504 0 22.505-5.94 22.505-11.565 0-7.502-6.877-10.315-20.63-13.128l-36.571-6.564c-30.632-5.94-46.886-27.194-46.886-49.7 0-27.505 19.38-50.323 57.513-54.7 28.757-3.125 64.078.313 83.145 2.814.625 3.438.937 6.564.937 10.002 0 25.631-13.44 30.945-26.569 30.945-10.002 0-25.318-1.875-43.135-1.875-18.129 0-25.318 5-25.318 10.94 0 6.251 7.19 9.064 18.442 10.94l35.321 6.564c36.26 6.876 51.575 27.507 51.575 52.825" fill="url(#a)" stroke-width="2.981"/>
    <path d="M25.006 0C11.253 0 0 11.253 0 25.006v226.3c0-20.005 16.003-36.509 36.008-37.259l1836.2-69.266V25.001c0-13.753-11.253-25.006-25.006-25.006z" fill="#fff" opacity=".2"/>
    <g fill="#fff">
        <path d="M906.629 465.723c1.907-2.417 5.233-2.748 8.093-2.958 4.16-.12 8.326.278 12.418.991-.007 17.951.015 35.895-.015 53.846 5.991-7.583 14.362-13.754 24.032-15.443 10.504-1.735 22.201-.233 30.587 6.787 9.52 7.77 13.29 20.473 13.514 32.366.038 17.793 0 35.58.023 53.365.218 3.709-1.892 7.748-5.624 8.792-5.518 1.531-11.329.585-16.892-.165-.03-17.899-.015-35.79-.008-53.689-.045-6.171-.225-12.62-2.988-18.281-2.485-5.105-7.485-8.837-13.056-9.888-9.85-2.177-20.684 1.554-27.148 9.28-1.209 1.561-2.695 3.236-2.44 5.36.038 19.52 0 39.048.023 58.569.127 3.716-1.817 7.943-5.699 8.881-5.57 1.412-11.412.533-17.005-.285-.053-42.914.015-85.837-.03-128.751-.045-3.026.165-6.352 2.215-8.777zM400.746 470.528c9.047-3.093 18.747-3.153 28.191-2.845 12.508.773 24.874 3.43 36.661 7.658.105 5.195.18 11.029-3.288 15.286-2.943 3.28-7.831 2.845-11.75 2.094-11.727-2.485-23.725-4.677-35.752-3.438-5.218.668-10.684 2.275-14.4 6.209-5.338 5.405-4.685 15.856 2.034 19.858 6.765 4.114 14.633 5.69 22.118 7.958 10.136 3.056 20.805 5.06 29.964 10.631 8.379 4.783 15.158 12.838 16.975 22.47 1.584 9.22.646 19.13-3.716 27.502-4.197 7.913-11.817 13.514-20.091 16.615-10.196 3.986-21.337 4.58-32.171 4.22-14.047-.714-27.922-3.68-41.263-8.102-.57-5.195-.158-10.984 3.056-15.308 2.815-3.551 7.86-3.341 11.885-2.59 9.91 2.08 19.798 4.745 29.986 4.85 7.38.112 15.33-.015 21.772-4.085 6.938-4.407 9.746-14.572 5.278-21.637-3.46-5.083-9.647-6.982-15.21-8.792-9.64-3.063-19.588-5.112-29.108-8.559-7.74-2.95-15.496-7.042-20.474-13.874-10.691-13.995-9.22-36.428 4.4-47.997 4.34-3.71 9.55-6.254 14.903-8.124zM649.096 502.692c9.865-2.088 20.504-.969 29.423 3.881 12.043 6.307 20.151 18.544 23.2 31.593 1.681 6.915 1.711 14.092 1.366 21.164-.849 12.884-6.367 25.647-15.984 34.386-13.957 12.613-36.961 15.346-52.487 4.062a45.097 45.097 0 0 1-8.161-7.14c.015 13.852-.03 27.704.022 41.556.09 2.515-.255 5.18-1.817 7.252-1.621 2.268-4.534 3.01-7.177 3.206-4.52.285-9.055-.113-13.514-.856-.075-45.888-.038-91.783-.023-137.67 5.616-1.487 12.148-2.936 17.448.217 4.257 3.371 4.415 9.34 4.723 14.31 5.578-7.643 13.544-14.07 22.981-15.961m-2.928 18.626c-7.98 1.517-15.631 6.187-19.43 13.53-.466 1.103-.248 2.35-.308 3.513.038 10.023.038 20.038 0 30.061.045 1.727-.285 3.664.886 5.12 4.542 6.75 12.08 11.488 20.196 12.336 5.008.488 10.21.18 14.903-1.794 5.39-2.133 9.94-6.194 12.8-11.224 5.091-8.747 5.94-19.513 3.657-29.25-1.802-7.847-6.494-15.272-13.604-19.296-5.676-3.438-12.658-4.032-19.1-2.996zM755.985 502.144c10.496-1.487 21.735-.518 31.105 4.775 8.686 4.52 15.398 12.29 19.392 21.156 4.648 10.391 6.036 22.224 3.822 33.395-23.83-.045-47.66-.015-71.49-.007.796 5.646 2.763 11.314 6.735 15.54 5.773 6.21 14.527 8.732 22.809 8.68 5.826.18 11.644-.736 17.162-2.59 4.385-1.36 8.815-3.476 13.522-2.786 4.077.871 6.314 5.12 6.72 8.972.187 2.62.397 5.353-.308 7.913-11.322 5.248-23.815 8.311-36.338 8.004-13.77.33-28.117-3.927-38.162-13.642-7.914-7.425-12.703-17.756-14.393-28.387-1.907-12.17-.503-25.114 5.406-36.045 6.6-13.034 19.558-22.674 34.018-24.978m-7.538 22.253c-6.134 5.06-9.107 12.966-9.843 20.706 17.193.038 34.378.008 51.564.015-.729-6.577-2.98-13.108-7.343-18.176-3.559-4.362-8.987-6.922-14.527-7.523-6.908-.84-14.4.413-19.851 4.978zM1047.708 503.127c7.883-2.087 16.292-2.095 24.265-.473 11.57 2.478 21.945 9.955 27.959 20.159 6.922 11.449 9.115 25.526 6.637 38.627-23.837.023-47.667 0-71.497.008.706 5.022 2.29 10.06 5.48 14.077 4.265 5.488 10.947 8.686 17.734 9.662 7.688 1.074 15.639.518 23.02-1.96 4.226-1.276 8.4-3.31 12.928-3.025 2.973.008 5.353 2.328 6.569 4.865 1.75 3.792 1.584 8.101 1.051 12.155-11.374 5.053-23.725 8.319-36.248 7.974-12.395.322-25.15-2.988-35.024-10.676-8.986-6.915-14.887-17.336-17.215-28.35-2.92-13.807-1.329-28.875 5.969-41.128 6.126-10.616 16.487-18.77 28.372-21.915m-4.46 22.606c-5.24 5.053-7.658 12.29-8.424 19.385 17.186-.007 34.371.008 51.556-.007-.788-7.38-3.588-14.776-9.039-19.971-4.46-4.317-10.849-6.029-16.93-5.954-6.254-.067-12.733 1.982-17.163 6.547zM1238.564 501.858c16.036-1.479 32.869 4.52 43.395 16.915 16.141 18.53 16.554 48.44 1.441 67.69-9.557 12.186-25.158 19.048-40.572 18.552-18.259.428-36.706-9.625-45.1-26.06-5.885-11.223-7.477-24.527-4.947-36.907 2.635-12.569 10.06-24.228 20.79-31.406 7.357-5.082 16.073-8.138 24.993-8.784m.127 18.965c-10.406 1.734-18.89 10-22.05 19.903-3.461 10.954-2.553 23.695 3.919 33.395 3.483 5.338 8.89 9.445 15.068 11.126 7.598 2.29 16.187.871 22.681-3.693 6.217-4.31 10.376-11.195 12.02-18.515 2.74-12.605.3-27.493-9.813-36.292-5.923-5.076-14.144-7.343-21.825-5.924zM1341.42 503.27c6.502-1.9 13.38-2.035 20.091-1.42 11.923 1.277 23.237 7.674 30.302 17.396 8.814 11.953 11.734 27.697 9.04 42.187-23.853.037-47.698 0-71.543.022.894 6.562 3.567 13.169 8.777 17.486 6.412 5.443 15.15 7.072 23.35 6.727 6.996.06 13.67-2.215 20.21-4.437 3.724-1.164 8.672-2.117 11.607 1.201 3.664 3.942 3.521 9.79 2.868 14.79-8.423 3.672-17.305 6.54-26.472 7.523-12.306 1.194-25.264.548-36.503-5.075-11.465-5.406-20.196-15.88-23.995-27.922-4.805-15.098-3.799-32.366 4.174-46.233 6.006-10.683 16.27-18.927 28.094-22.245m-3.889 22.456c-5.24 5.052-7.718 12.282-8.43 19.392 17.184-.007 34.37.008 51.555-.007-.78-7.546-3.754-15.083-9.392-20.309-4.475-4.054-10.654-5.698-16.585-5.616-6.246-.052-12.74 1.96-17.148 6.54zM494.413 503.195c5.503-1.374 11.277-.526 16.802.307-.015 19.633 0 39.266-.007 58.9.12 5.195 1.081 10.615 4.047 14.992 3.701 5.293 10.165 8.251 16.562 8.289 10.083.39 19.76-5.811 24.528-14.535.263-19.918-.038-39.86.142-59.785.03-3.679 2.418-7.463 6.172-8.25 5.488-1.24 11.202-.444 16.69.404-.023 21.39 0 42.78-.008 64.17-.127 11.457.811 22.974 3.356 34.16-4.737 2.313-10.24 2.778-15.413 2.132-3.296-.383-6.217-2.635-7.546-5.646-1.659-3.633-1.193-7.725-1.756-11.577-5.639 8.049-13.627 15.114-23.5 17.133-10.165 2.05-21.457 1.036-30.234-4.872-6.321-4.167-10.6-10.812-13.048-17.876-2.08-6.022-2.68-12.44-2.71-18.777.014-16.788 0-33.575.007-50.355-.083-3.754 2.034-7.898 5.916-8.814zM830.695 504.14c4.857-1.313 10.06-2.424 15.023-.975 3.296.863 5.638 3.866 6.457 7.072.998 4.002.54 8.16.645 12.245 2.898-6.817 7.238-13.424 13.92-17.02 7.387-4.19 16.3-3.844 24.385-2.305 1.111 4.692 2.027 9.948-.15 14.475-1.75 3.709-6.164 5.166-10.008 4.97-7.042-.142-14.708.45-20.406 5.068-5.143 3.852-7.065 10.503-7.17 16.675-.038 16.795 0 33.582-.015 50.37.105 3.656-1.794 7.8-5.586 8.784-5.578 1.494-11.442.518-17.065-.21-.12-33.042-.06-66.099-.03-99.148zM1127.073 504.133c5.195-1.411 10.984-2.665 16.157-.465 3.31 1.381 5.045 4.955 5.548 8.333.45 3.514.127 7.065.233 10.594 2.988-7.118 7.605-14.032 14.737-17.523 7.23-3.844 15.76-3.326 23.582-1.952 1.232 4.775 2.125 10.173-.225 14.76-1.78 3.446-5.916 4.857-9.587 4.722-5.864-.037-12.013.09-17.32 2.906-4.093 2.004-7.441 5.518-8.965 9.843-1.87 5.03-1.697 10.488-1.667 15.766-.007 14.783.015 29.566-.007 44.349.015 3.55-2.178 7.365-5.841 8.123-5.474 1.336-11.195.465-16.683-.315.038-33.042-.037-66.092.038-99.14zM1424.832 510.17c9.753-7.268 22.44-8.635 34.243-8.207 11.637.398 23.132 2.86 34.153 6.517.413 5.135.48 11.555-4.009 15.023-4.19 2.32-9.257.871-13.627-.157-7.965-2.658-16.487-3.311-24.828-2.756-3.701.338-7.703.849-10.608 3.371-2.823 2.373-3.319 6.877-1.42 9.956 1.495 2.124 4.002 3.183 6.33 4.144 13.093 4.565 27.253 6.381 39.498 13.206 6.066 3.266 11.097 8.777 12.748 15.571 1.562 6.6.961 13.755-1.764 19.979-2.913 6.539-8.957 11.179-15.511 13.709-11.42 4.58-24.085 4.414-36.128 3.213-9.85-1.089-19.505-3.484-28.875-6.637-.938-4.872-.72-10.57 2.77-14.43 2.734-2.808 7.02-2.275 10.497-1.494 7.943 1.877 15.781 4.587 24.017 4.828 6.254.097 12.936.413 18.62-2.666 5.39-2.808 6.08-11.697.893-15.06-5.03-3.101-10.916-4.34-16.525-5.999-8.333-2.432-16.93-4.332-24.715-8.289-4.468-2.207-8.747-5.172-11.517-9.392-7.223-10.653-4.738-26.795 5.758-34.43z"/>
    </g>
</svg>
