<svg width="600" height="184.68" version="1.1" viewBox="0 0 158.75 48.862735" xmlns="http://www.w3.org/2000/svg">
 <defs>
  <linearGradient id="a" x2="1" gradientTransform="matrix(0 -28.52 28.52 0 117.89 352.38)" gradientUnits="userSpaceOnUse">
   <stop stop-color="#810121" offset="0"/>
   <stop stop-color="#ad2b3e" offset=".10441"/>
   <stop stop-color="#ae2c3f" offset=".89813"/>
   <stop stop-color="#b94556" offset=".99967"/>
   <stop stop-color="#ba3b4b" offset="1"/>
  </linearGradient>
 </defs>
 <g transform="translate(-12.402 -322.96)">
  <g fill="#fff">
   <path d="m80.306 371.82c-0.71834 0-1.3534-0.12332-1.9022-0.36688-0.54569-0.24047-1.0081-0.57652-1.3843-1.002-0.37613-0.42545-0.66285-0.92183-0.85708-1.486-0.19115-0.56419-0.2898-1.1746-0.2898-1.8252v-5.5802c0-0.22198 0.07091-0.40696 0.20964-0.55495 0.13565-0.15107 0.38229-0.22506 0.73684-0.22506 0.17882 0 0.35146 9e-3 0.52411 0.0247 0.16957 0.0185 0.30214 0.037 0.38846 0.0586v6.3264c0 0.89408 0.22506 1.6124 0.6721 2.1489 0.45012 0.53646 1.0883 0.80468 1.9176 0.80468 0.7985 0 1.4305-0.26822 1.9022-0.80468 0.46862-0.53644 0.70601-1.2548 0.70601-2.1489v-5.6296c0-0.22198 0.0678-0.40696 0.20656-0.55495 0.13874-0.15107 0.38538-0.22506 0.73993-0.22506 0.17573 0 0.34838 9e-3 0.51486 0.0247 0.1634 0.0185 0.29289 0.037 0.37921 0.0586v6.277c0 0.65052-0.0987 1.261-0.29597 1.8252-0.2004 0.56419-0.48712 1.0606-0.86633 1.486-0.37304 0.42546-0.84166 0.76151-1.3997 1.002-0.5611 0.24356-1.1931 0.36688-1.9022 0.36688"/>
   <path d="m87.766 371.71c-0.16648 0-0.32988-6e-3 -0.4902-0.0154-0.16032-0.0123-0.28364-0.0277-0.37304-0.0524v-10.689c0.12023-0.0555 0.27747-0.0987 0.46245-0.1264 0.18806-0.0277 0.36071-0.0401 0.51486-0.0401 0.44396 0 0.76151 0.0586 0.95265 0.17265 0.19423 0.11715 0.3638 0.28672 0.50562 0.50869l4.8342 7.4702-0.0987-7.4208c0-0.20039 0.0647-0.37304 0.19115-0.51486 0.1264-0.1449 0.35763-0.21581 0.69059-0.21581 0.15415 0 0.31139 9e-3 0.4717 0.0247 0.16032 0.0154 0.28364 0.037 0.37305 0.0586v10.692c-0.25281 0.0987-0.55186 0.14798-0.89716 0.14798-0.39771 0-0.6906-0.0586-0.87866-0.17265-0.18806-0.11715-0.34221-0.2713-0.46553-0.45937l-4.9976-7.7846 0.10174 7.686c0 0.20964-0.0648 0.38537-0.19115 0.52411-0.12949 0.13873-0.3638 0.20656-0.70601 0.20656"/>
   <path d="m102.73 370.16c0.46554 0 0.90332-0.10174 1.3103-0.3083 0.41004-0.20348 0.77076-0.48404 1.0791-0.83859 0.31139-0.35147 0.55495-0.77384 0.73068-1.261 0.17882-0.48712 0.26514-1.0051 0.26514-1.56 0-0.55186-0.0832-1.0698-0.25589-1.5508-0.17265-0.48403-0.41004-0.89715-0.71527-1.2455-0.30213-0.34839-0.65976-0.62277-1.0698-0.82317-0.41004-0.19731-0.85091-0.29905-1.3288-0.29905-0.46554 0-0.90026 0.0986-1.3103 0.2898-0.41004 0.19423-0.76767 0.46554-1.0698 0.81393-0.30522 0.34838-0.5457 0.7615-0.72451 1.2363-0.17573 0.47786-0.26514 0.99889-0.26514 1.5631 0 0.57346 0.0863 1.1068 0.25897 1.5939 0.16957 0.48712 0.40696 0.90641 0.71218 1.261 0.30522 0.35454 0.66285 0.62894 1.0729 0.82934 0.40696 0.20039 0.84475 0.29905 1.3103 0.29905m0.0154 1.6587c-0.78617 0-1.5045-0.1449-2.1581-0.43779-0.65359-0.29288-1.2116-0.69676-1.6741-1.2116-0.46554-0.51486-0.82933-1.113-1.0883-1.7943-0.26205-0.68134-0.39154-1.412-0.39154-2.1982 0-0.77692 0.12949-1.5045 0.39154-2.1828 0.25898-0.68135 0.62277-1.2702 1.0883-1.7696 0.46245-0.49945 1.0205-0.89099 1.6741-1.1777 0.6536-0.28981 1.372-0.43163 2.1581-0.43163 0.78616 0 1.5076 0.14182 2.1581 0.43163 0.6536 0.28672 1.2116 0.67826 1.6772 1.1777 0.46553 0.49945 0.82933 1.0852 1.0883 1.7604s0.38846 1.4059 0.38846 2.192c0 0.78618-0.12949 1.5168-0.38846 2.1982-0.25897 0.68135-0.62277 1.2795-1.0883 1.7943-0.46554 0.51486-1.0236 0.91874-1.6772 1.2116-0.65052 0.29289-1.372 0.43779-2.1581 0.43779"/>
  </g>
  <path d="m66.023 323.86v28.521h100.96c2.1396 0 2.9659-1.2027 3.0461-3.219 6e-3 -7.2243 3e-3 -14.518 3e-3 -21.766 0-2.2074-0.79808-3.5328-3.0487-3.5328-34.826-5e-3 -71.003-4e-3 -100.96-4e-3z" fill="url(#a)"/>
  <g fill="#fff">
   <g stroke-width="1.2627">
    <path d="m80.102 347.14c-1.2627 0-2.4291-0.22961-3.499-0.68422-1.0699-0.45461-1.993-1.0837-2.7781-1.8873-0.78523-0.80361-1.3959-1.7587-1.8414-2.8654-0.44543-1.1067-0.67043-2.3006-0.67043-3.5863 0-1.249 0.225-2.42 0.67043-3.5082 0.44543-1.0882 1.0562-2.0342 1.8414-2.8378 0.78522-0.80358 1.7082-1.4327 2.7781-1.8873 1.0699-0.45461 2.2363-0.68421 3.499-0.68421 0.90921 0 1.7909 0.10102 2.645 0.29388 0.8541 0.19746 1.6439 0.45001 2.3786 0.75309 0.15614 2.374-0.42246 3.5587-1.7403 3.5587-0.2296 0-0.44542-0.0275-0.63828-0.078-0.19745-0.055-0.40868-0.11023-0.64288-0.16071-0.2296-0.0551-0.49134-0.11024-0.77145-0.16072-0.28469-0.0551-0.6245-0.0827-1.0148-0.0827-0.6245 0-1.2123 0.11478-1.7633 0.33521-0.55564 0.22501-1.0286 0.54644-1.4327 0.96432-0.3995 0.41786-0.71634 0.92299-0.94594 1.5107-0.2296 0.59236-0.34899 1.2536-0.34899 1.9837 0 0.76686 0.11933 1.4557 0.34899 2.0618 0.2296 0.60616 0.54644 1.1204 0.94594 1.5382 0.4041 0.42247 0.87706 0.7439 1.4327 0.96431 0.55103 0.22501 1.1388 0.33523 1.7633 0.33523 0.39032 0 0.73471-0.0275 1.0378-0.078 0.30307-0.0551 0.574-0.11024 0.81738-0.16073 0.23878-0.0551 0.46838-0.11024 0.67961-0.16072 0.21582-0.0551 0.43623-0.0827 0.66583-0.0827 1.2995 0 1.8827 1.1893 1.7403 3.5634-0.73012 0.30307-1.5475 0.55103-2.4475 0.74849-0.89544 0.19746-1.8 0.2939-2.7093 0.2939"/>
    <path d="m89.316 346.92c-0.37194 0-0.74388-0.0184-1.1066-0.0551-0.36737-0.0368-0.67503-0.078-0.92299-0.13317v-15.502c0-0.51889 0.16072-0.95972 0.48216-1.3271 0.31684-0.36276 0.92297-0.54644 1.8138-0.54644 0.37653 0 0.74389 0.0183 1.1112 0.0505 0.36277 0.0367 0.67044 0.0827 0.9184 0.13776v15.502c0 0.51888-0.16072 0.95971-0.47757 1.3224-0.32144 0.36738-0.92757 0.55105-1.8184 0.55105"/>
    <path d="m96.616 346.92c-0.35817 0-0.70257-0.0184-1.0424-0.0551-0.3398-0.0368-0.62451-0.078-0.85409-0.13317v-17.054c0.26633-0.0918 0.61531-0.16532 1.0424-0.2296 0.42706-0.0597 0.78984-0.0918 1.0929-0.0918 0.98269 0 1.6944 0.124 2.1398 0.37195 0.44542 0.25255 0.81737 0.61992 1.1204 1.0975l6.0613 9.5605v-9.3171c0-0.23421 0.0321-0.45003 0.0965-0.65667 0.0597-0.20664 0.16532-0.38572 0.31684-0.54644 0.15154-0.16072 0.36277-0.2893 0.62911-0.37655 0.26633-0.0873 0.60613-0.13316 1.0148-0.13316 0.35819 0 0.69799 0.0183 1.0286 0.0505 0.33064 0.0367 0.61075 0.0735 0.84035 0.11023v17.082c-0.24798 0.124-0.55104 0.21124-0.90463 0.25257-0.35817 0.046-0.70717 0.0689-1.0424 0.0689-0.84033 0-1.4602-0.11478-1.869-0.34899-0.41328-0.2296-0.74849-0.55104-1.0148-0.96432l-6.4931-10.387v9.9323c0 0.50054-0.15154 0.9184-0.4546 1.2582-0.30307 0.33981-0.87247 0.50971-1.7082 0.50971"/>
    <path d="m115.6 346.81c-0.50054 0-0.90464-0.0551-1.2169-0.16072-0.31225-0.10556-0.55103-0.25256-0.72094-0.44083-0.1699-0.18827-0.28469-0.41787-0.34439-0.68421-0.0643-0.26633-0.0965-0.55103-0.0965-0.85409v-13.124c0-0.30307 0.0321-0.58776 0.0965-0.85411 0.0597-0.27093 0.17449-0.49593 0.34439-0.6842 0.16991-0.18828 0.40869-0.33522 0.72094-0.44083 0.31225-0.11024 0.71635-0.16072 1.2169-0.16072h8.8396c0.0367 0.19745 0.0735 0.46378 0.11024 0.80359 0.0322 0.3398 0.0505 0.68422 0.0505 1.0424 0 0.74849-0.15155 1.2812-0.45463 1.5934-0.30306 0.31225-0.6842 0.46839-1.148 0.46839h-5.4461v3.0536h6.2726c0.0368 0.17908 0.0735 0.41327 0.11024 0.70715 0.0321 0.29849 0.0505 0.61534 0.0505 0.95056 0 0.71633-0.14235 1.2031-0.42705 1.4602-0.28471 0.26174-0.6383 0.39031-1.0654 0.39031h-4.9409v3.0261h7.1544c0.0367 0.19287 0.0735 0.46838 0.11023 0.81737 0.0322 0.34441 0.0505 0.68882 0.0505 1.0286 0 0.76685-0.15154 1.3041-0.45462 1.6072-0.30306 0.30306-0.6842 0.45461-1.148 0.45461h-7.664"/>
    <path d="m128.44 346.92c-0.40871 0-0.77147-0.0413-1.0837-0.11933-0.30766-0.0827-0.58319-0.1745-0.81279-0.28011l1.6347-16.683c0.33523-0.14236 0.78064-0.26175 1.3317-0.34899 0.55102-0.0873 1.024-0.13316 1.4142-0.13316 0.55565 0 1.0286 0.0367 1.4281 0.10556 0.40409 0.0735 0.74388 0.19287 1.0286 0.36277 0.28469 0.1699 0.51429 0.40409 0.68417 0.70716 0.16533 0.30307 0.29391 0.67961 0.38575 1.125l0.69339 3.2419c0.19746 0.89084 0.40411 1.878 0.6291 2.9572 0.22041 1.0791 0.42246 2.1903 0.59695 3.3337h0.11024c0.19288-1.1434 0.3995-2.25 0.61074-3.32 0.21581-1.07 0.43625-2.0526 0.66583-2.9434l0.85412-3.4027c0.21583-0.84033 0.55564-1.4097 1.0286-1.7128 0.47296-0.30306 1.2031-0.45461 2.1995-0.45461 0.49592 0 1.001 0.0413 1.5062 0.11933 0.5097 0.078 0.92757 0.16532 1.2674 0.25256l1.5612 16.793c-0.24798 0.0873-0.54645 0.17449-0.89545 0.26633-0.3444 0.0873-0.72551 0.13317-1.1342 0.13317-0.56941 0-1.0516-0.0965-1.4419-0.29389-0.39032-0.19745-0.60614-0.56482-0.64288-1.0975l-0.39949-5.7859c-0.0872-1.0148-0.1653-2.0848-0.22499-3.2005-0.0643-1.1113-0.10557-2.172-0.124-3.1731h-0.0505c-0.23419 0.93217-0.46838 1.9332-0.70716 3.0124-0.24338 1.0837-0.48676 2.0755-0.73473 2.9894l-1.0975 4.5506c-0.26633 1.0699-1.1112 1.6072-2.5348 1.6072-0.35816 0-0.72094-0.0367-1.0975-0.11024-0.37194-0.0689-0.69338-0.15153-0.95974-0.23878l-1.3637-5.6757c-0.26633-1.0562-0.51431-2.0893-0.74849-3.1087-0.22959-1.0148-0.44542-2.0342-0.63828-3.0491h-0.0827c-0.0505 1.4281-0.124 2.7322-0.21123 3.9215-0.0918 1.1847-0.16991 2.2088-0.2434 3.0674l-0.42704 5.2211c-0.0321 0.5143-0.22958 0.87248-0.58776 1.0699-0.35358 0.19745-0.81739 0.29388-1.3867 0.29388"/>
    <path d="m153.65 339.61h3.995l-1.993-6.5619-2.002 6.5619m-4.1648 7.3655c-0.33981 0-0.72553-0.0321-1.1618-0.0965-0.43624-0.0597-0.799-0.14694-1.0837-0.25256l5.5425-16.976c0.48214-0.124 0.96891-0.21581 1.4602-0.27092 0.49133-0.0505 0.94135-0.078 1.35-0.078 0.59236 0 1.0929 0.046 1.5154 0.13317 0.41787 0.0918 0.77145 0.22501 1.0562 0.40409 0.2893 0.17909 0.52349 0.41328 0.71176 0.70717s0.3444 0.63828 0.46838 1.0332l4.7481 15.02c-0.30306 0.124-0.66584 0.22042-1.0929 0.28012-0.42704 0.0643-0.84491 0.0965-1.2582 0.0965-0.45918 0-0.90919-0.078-1.3454-0.22958-0.43625-0.15154-0.75309-0.49594-0.95055-1.0332l-0.9092-2.7551h-5.8227l-0.77146 2.5991c-0.19746 0.62451-0.52806 1.0148-0.98727 1.1756-0.46378 0.16072-0.95513 0.24337-1.4694 0.24337"/>
    <path d="m31.689 340.85c0 2.4429-1.598 4.2246-4.8399 4.5781-2.3465 0.25256-5.7492-0.046-7.3609-0.22961-0.05973-0.26632-0.10556-0.59235-0.10556-0.84951 0-2.1398 1.1526-2.6266 2.2363-2.6266 1.1204 0 2.8929 0.19746 4.2063 0.19746 1.4465 0 1.8918-0.49135 1.8918-0.95973 0-0.61534-0.58776-0.86789-1.7082-1.0837l-3.0766-0.59235c-2.5578-0.49135-3.9261-2.2593-3.9261-4.1373 0-2.2868 1.6164-4.197 4.7986-4.5506 2.4016-0.25715 5.3267 0.0367 6.9339 0.2342 0.05973 0.27553 0.08726 0.53266 0.08726 0.82195 0 2.1307-1.1204 2.5898-2.2042 2.5898-0.83115 0-2.1215-0.15614-3.5955-0.15614-1.5016 0-2.1215 0.4133-2.1215 0.91841 0 0.53267 0.59236 0.7531 1.5337 0.91839l2.9389 0.54645c3.0169 0.55562 4.3118 2.2684 4.3118 4.3808m5.2762 2.622c0 1.3087-0.5143 2.0663-3.072 2.0663-0.33522 0-0.63369-0.0275-0.91839-0.0689v-17.371c0-1.3179 0.45002-2.6954 3.0307-2.6954 0.32602 0 0.65205 0.0321 0.95971 0.0965v17.972m10.451 6.7181c0.33062 0.17451 1.0194 0.38113 1.8873 0.4041 1.4832 0.0321 2.296-0.53727 2.8929-1.8643l7.967-17.767c-0.33062-0.1791-1.0561-0.37656-1.6532-0.39034-1.024-0.0183-2.397 0.19288-3.2787 2.2868l-2.5761 6.089-5.0604-8.238c-0.32602-0.10102-1.1204-0.24338-1.7082-0.24338-1.7817 0-2.7828 0.65667-3.816 1.7817l-4.9181 5.3772 3.9537 6.2268c0.73013 1.1342 1.6944 1.7128 3.2604 1.7128 1.024 0 1.8735-0.2342 2.2684-0.42248l-4.7619-7.1819 3.3751-3.5772 5.5379 8.6926-3.3705 7.1129"/>
   </g>
   <path d="m166.8 353.27c3.3389 0 4.3563-2.0749 4.3563-4.1497v-22.013c0-2.0749-1.0174-4.1497-4.3563-4.1497h-150.04c-3.3358 0-4.3532 2.0749-4.3532 4.1497v22.013c0 2.0749 1.0174 4.1497 4.3532 4.1497h150.04m-149.88-0.27746c-2.2506 0-3.7705-1.3288-3.7705-3.5362v-22.685c0-2.2074 1.5199-3.5362 3.7705-3.5362h149.73c2.2475 0 3.7674 1.3288 3.7674 3.5362v22.685c0 2.2074-1.5199 3.5362-3.7674 3.5362h-149.73" opacity=".75"/>
   <path d="m16.499 324.32c-1.9855 0-2.7465 0.79239-2.7465 3.1355l-0.0091 20.246c0 1.261 0.07052 2.1058 0.26167 2.1058 0.06782-0.39462 0.12649-2.3404 2.263-4.1162 0.81978-0.63179 1.8707-1.2419 3.1218-1.8336 1.8233-0.79928 3.6461-1.4819 5.21-1.9759 1.0854-0.33086 2.1777-0.64785 3.1016-0.89397 1.3659-0.3556 2.7419-0.69301 3.9036-0.95599 0.46832-0.10127 0.95184-0.20974 1.3546-0.29687 1.396-0.288 2.8039-0.57056 3.9909-0.79154 0.31635-0.0518 0.64395-0.11655 0.91753-0.16375 1.4238-0.25182 2.8671-0.49367 4.0803-0.6839 1.804-0.27644 3.632-0.54519 5.1714-0.74979 1.4676-0.19766 2.9564-0.38361 4.207-0.53187 0.81113-0.0933 1.6369-0.18975 2.3323-0.2668 1.459-0.15624 2.9368-0.31133 4.1821-0.43395 4.7798-0.45379 9.5405-0.82218 13.964-1.0891 1.8025-0.10367 3.6304-0.20608 5.172-0.27791 3.5889-0.16245 7.2334-0.29413 10.305-0.36938 1.5021-0.0367 3.0354-0.066 4.3237-0.0856 1.0821-0.0138 2.1847-0.0263 3.1127-0.032 1.0236-9e-3 2.0412-0.0126 3.0617-0.0126 1.5135 0 3.0269 9e-3 4.5312 0.0248 1.3462 0.0178 2.7134 0.0369 3.8663 0.0587 1.3103 0.0278 2.624 0.0618 3.925 0.10178 1.0451 0.0308 2.0746 0.0675 3.1074 0.10771 1.505 0.0635 3.0353 0.13064 4.3262 0.19706 3.4948 0.20243 7.0643 0.43099 10.078 0.68779 1.2346 0.10658 2.4942 0.22338 3.5557 0.32954 0.24131 0.0201 0.50016 0.0495 0.71128 0.0717 1.2291 0.12729 2.484 0.26775 3.54 0.39352 0.67646 0.0799 1.3686 0.166 1.9511 0.24145 1.0562 0.14206 2.1374 0.28918 3.0486 0.42153 0.35685 0.0528 0.7223 0.10721 1.0297 0.15468 1.3498 0.21143 2.7293 0.43713 3.8911 0.64667 1.5554 0.29023 3.1541 0.60074 4.494 0.89783 1.3212 0.29816 2.678 0.62093 3.8167 0.92328 0.10443 0.0313 0.21793 0.0604 0.30865 0.0847h8e-3c3.4838 0.94293 6.4906 2.0216 8.9183 3.2386v-1e-3c1.7542 0.88173 3.1998 1.8343 4.3035 2.864 1.93 1.9145 2.1952 3.7216 2.263 4.1162 0.18807 0 0.25906-0.8448 0.25906-2.1058l-6e-3 -20.246c0-2.3431-0.7611-3.1354-2.7465-3.1354-0.67519 0-1.3443 0.36086-2.2415 0.36086h-145.98c-0.80971 0.0588-1.5674-0.34798-2.2415-0.36082z" opacity=".4"/>
  </g>
 </g>
</svg>
