<svg width="1872.2pt" height="605.25pt" version="1.1" viewBox="0 0 1872.2 605.25" xmlns="http://www.w3.org/2000/svg">
 <defs>
  <linearGradient id="a" x1="-8600.5" x2="-8600.5" y1="-4687.6" y2="-4591.4" gradientTransform="matrix(-2.9812 0 0 -2.9812 -24493 -13655)" gradientUnits="userSpaceOnUse">
   <stop stop-color="#a80000" offset="0"/>
   <stop stop-color="#a1000c" offset=".38129"/>
   <stop stop-color="#b90019" offset="1"/>
  </linearGradient>
 </defs>
 <path d="m624.21 9e-5h1223c13.753 0 25.006 11.253 25.006 25.006v325.08c0 13.753-11.253 25.006-25.006 25.006h-1223z" fill="url(#a)" stroke-width="2.9812"/>
 <path d="m624.21 375.09h-599.2c-13.753 0-25.006-11.253-25.006-25.006v-325.39c0-13.128 10.94-24.693 24.693-24.693h599.52z" fill="#fff" stroke-width="3.1257"/>
 <g transform="matrix(.75012 0 0 .75012 0 -6e-5)" fill="#fff">
  <path d="m1196.8 46.657c8.08-2.39 17.44-0.61 23.7 5.16 8.96 7.84 10.76 22.47 3.9 32.22-5.08 7.92-15.03 12.37-24.3 10.66-11.61-1.81-21.3-12.73-20.86-24.62-0.19-10.58 7.4-20.56 17.56-23.42z"/>
  <path d="m1017.4 133.46c21.37-5.8 43.96-4.99 65.59-1.1 16.56 3.21 33.02 8.13 47.94 16.07 0.82 7.45 0.64 15.53-3.01 22.28-2.45 4.57-7.4 7.7-12.63 7.47-7.67-0.23-14.56-3.99-21.59-6.62-14.68-6.05-30.63-9.09-46.51-8.39-14.87 0.74-29.66 5.3-41.92 13.84-11.33 7.69-20.34 18.59-26.21 30.93-6.65 14.05-9.41 29.77-8.95 45.25 0.46 14.4 3.53 28.88 10.19 41.73 7.95 15.91 21.5 28.99 37.82 36.15 20.99 9.32 45.36 8.45 66.93 1.55 8.87-2.71 17.08-7.36 26.16-9.37 5.62-1.4 12.21 0.36 15.57 5.29 4.85 6.95 5.01 16.04 4.14 24.15-14.07 7.02-29.27 11.67-44.63 14.88-25.46 5.02-52.52 5.76-77.23-3.13-24.95-8.67-46.58-26.38-60.09-49.06-11.77-19.51-17.68-42.39-17.5-65.12-0.26-25.49 7.13-51.2 21.84-72.12 15.21-21.84 38.36-37.9 64.09-44.68z"/>
  <path d="m1378.5 131.64c20.37-4.35 42.33-2.9 61.39 5.79 14.88 6.78 27.32 18.57 35.15 32.9 9.75 17.49 12.97 37.77 13.25 57.57 0 42.06 0.05 84.12-0.05 126.18 0.17 5.36-2.82 10.92-8.15 12.55-9.57 3.04-19.87 1.53-29.55-0.18-0.06-45.61 0.03-91.23-0.05-136.84-0.58-17.92-4.72-37.02-17.41-50.43-11.02-11.97-27.92-16.85-43.82-16.02-16.43 0.97-32.11 7.86-45.12 17.73-8.09 6.21-15.3 13.73-20.45 22.57-1.14 1.63-0.91 3.67-0.96 5.55 0.08 8.56 0.01 17.11 0.05 25.67 0.02 40.13 0.01 80.26-0.01 120.39 0.21 5.36-3.46 10.34-8.62 11.75-9.37 2.72-19.36 1.35-28.8-0.26-0.16-43.48-0.07-86.96-0.08-130.44 0.08-33.89-0.12-67.78 0.1-101.66 9.07-1.94 18.68-3.43 27.8-0.98 4.91 1.26 9.25 5.39 9.48 10.67 0.35 7.42-0.01 14.85 0.15 22.28 14.33-17.02 33.79-30.09 55.7-34.79z"/>
  <path d="m1579.1 150c30.74-21.87 72.51-26.73 107.67-13.3 16.58 6.46 31.22 17.69 41.88 31.93 10.87 14.34 17.8 31.44 21.11 49.08 3.01 15.84 2.86 32.18 0.27 48.06-60.29 0.07-120.59 0-180.88 0.04 2.21 17.04 8.77 33.95 20.77 46.51 10.38 11.11 24.48 18.3 39.23 21.59 22.1 4.92 45.28 2.4 66.72-4.37 7.84-2.21 15.32-5.66 23.31-7.37 5.57-1.42 11.72 1.3 14.58 6.26 4.25 7.17 3.74 15.87 3.17 23.87-19.57 8.63-40.34 14.62-61.56 17.38-19.3 2.53-39.12 2.24-58.08-2.43-16.65-4.06-32.58-11.5-45.88-22.37-14.06-11.32-25.03-26.31-31.98-42.94-9.86-23.76-12.22-50.39-7.98-75.68 5.19-30.3 22.29-58.65 47.65-76.26m17.36 30.27c-13.64 11.51-22.05 28.12-25.99 45.33-0.44 2.72-0.87 5.44-1.29 8.17 48.37 0 96.74-0.01 145.11 0-0.3-4.91-0.85-9.79-1.77-14.63-3.32-16.57-11.88-32.49-25.42-42.9-26.12-20.22-66.03-17.3-90.64 4.03z"/>
  <path d="m1879.3 133.17c21.25-6.87 45.68-4.8 64.78 7.1 11.91 7.31 21.04 18.49 27.09 31 9.14-13.12 20.8-24.75 35.02-32.29 17.83-9.56 39.11-11.94 58.81-7.71 14.06 3.02 27.23 10.4 36.75 21.24 12.31 13.79 18.58 32.08 20.24 50.29 0.97 10.37 0.4 20.8 0.55 31.21-0.04 40.16 0.05 80.34-0.06 120.5 0.17 5.76-3.84 11.05-9.43 12.42-9.4 2.54-19.36 1.27-28.79-0.52 0.01-42.8-0.01-85.61-0.02-128.42-0.23-11.22 0.66-22.52-0.93-33.67-1.46-9.94-5.03-19.84-11.76-27.44-6.16-7.04-14.97-11.41-24.12-12.93-27.02-5.03-54.58 11.73-66.73 35.54-1.21 2.79-0.57 5.94-0.69 8.89 0.02 48.58 0.05 97.16-0.02 145.74 0.28 5.65-3.22 11.29-8.82 12.76-9.59 2.65-19.77 1.3-29.4-0.44-0.01-29.46-0.01-58.92-0.01-88.38-0.17-22.64 0.32-45.29-0.26-67.92-0.73-9.29-2.85-18.66-7.59-26.77-4.58-7.96-12.01-14.27-20.7-17.29-14.94-5.25-31.92-3.43-45.78 4.04-10.33 5.46-19.26 13.56-25.69 23.31-1.78 2.98-4.3 5.92-4.24 9.58-0.1 3.75 0.03 7.5 0.02 11.25 0.04 46.59 0.01 93.19-0.01 139.78 0.3 5.58-3.05 11.21-8.58 12.75-9.48 2.73-19.63 1.5-29.16-0.36 0-50.27-0.03-100.54 0-150.8 0.02-27.01-0.01-54.02 0.01-81.03 8.65-1.91 17.74-3.44 26.53-1.45 5.05 1.07 9.59 5.03 10.31 10.32 0.86 6.75 0.19 13.59 0.4 20.37 10.8-13.94 25.39-25.23 42.28-30.67z"/>
  <path d="m2255.9 129.89c17.19-1.23 34.69-0.86 51.52 3.17 13.74 3.27 27.14 9.51 37.07 19.76 10.85 10.79 16.89 25.54 19.55 40.42 2.85 14.42 1.83 29.17 2.01 43.77-0.02 43.16 0.03 86.32-0.03 129.48-8.95 1.65-18.28 2.8-27.26 0.8-5.34-1.09-10.03-5.64-10.18-11.26-0.16-7.2 0.01-14.4-0.05-21.59-9.66 10.19-20.7 19.21-33.29 25.52-16.85 8.58-36.04 12-54.84 11.19-15.27-0.63-30.64-4.41-43.72-12.49-14.38-8.77-25.53-22.9-30.05-39.19-4.79-17.16-3.22-36.51 6.17-51.87 6.78-11.09 17.31-19.42 28.76-25.31 16.65-8.48 35.14-12.62 53.58-14.98 24.17-2.98 48.62-2.81 72.9-1.26-0.09-10.48-0.18-21.12-2.94-31.31-2.15-7.96-6.31-15.56-12.73-20.85-7.15-5.88-16.23-8.83-25.27-10.16-25.14-3.34-50.68 1.14-74.67 8.72-5.04 1.38-10 3.18-15.2 3.77-5.25 0.51-10.64-2.24-13.06-6.95-3.77-7.19-3.52-15.68-2.55-23.51 23.88-8.65 48.96-13.95 74.28-15.87m25.3 125.03c-17.4 1.05-35.09 2.99-51.35 9.62-9.34 3.91-18.36 10.1-23 19.37-7.01 13.91-3.62 32.09 7.98 42.52 7.95 7.51 18.67 11.45 29.43 12.56 16.59 1.49 33.6-1.83 48.41-9.5 13.04-6.54 24.33-16.26 33.43-27.61 0.8-1.14 2.07-2.21 1.91-3.77 0.07-14.33-0.06-28.67 0.05-42.99-15.61-0.88-31.25-0.94-46.86-0.2z"/>
  <path d="m1193.1 133.91c9.65-3.09 20.03-1.43 29.72 0.69 0 34.69-0.02 69.38 0 104.07 0.04 38.13-0.02 76.25 0.01 114.38 0.03 4.08-0.97 8.55-4.34 11.2-4.23 3.37-9.94 3.91-15.15 4.07-6.31 0.12-12.58-0.67-18.75-1.87-0.05-42.1-0.02-84.19-0.02-126.29 0.03-31.39-0.05-62.78 0.03-94.17-0.12-5.36 3.32-10.5 8.5-12.08z"/>
 </g>
 <path d="m421.97 333.52c4.0635 2.188 12.19 4.6886 22.818 4.6886 17.817 0.31257 27.507-6.5641 34.696-22.505l95.648-213.18c-4.0635-2.188-12.816-4.376-19.692-4.6886-12.19-0.31257-28.757 2.188-39.384 27.507l-30.945 73.142-60.952-98.461c-4.0635-1.2503-13.441-2.8132-20.63-2.8132-21.255 0-33.445 7.8144-45.948 21.255l-58.764 64.39 47.511 74.705c8.7521 13.753 20.317 20.63 39.072 20.63 12.19 0 22.505-2.8132 27.194-5.0012l-57.201-86.27 40.635-42.823 66.578 104.4zm-125.34-80.644c0 15.629-6.2515 24.693-36.884 24.693-4.0635 0-7.5018-0.31258-10.94-0.93773v-208.17c0-15.941 5.3138-32.195 36.258-32.195 3.7509 0 7.8144 0.31257 11.565 1.2503zm-63.452-31.257c0 29.382-19.067 50.637-58.139 55.013-28.132 3.1257-69.079-0.62514-88.458-2.8132-0.62515-3.1257-1.2503-7.1892-1.2503-10.315 0-25.631 13.753-31.57 26.881-31.57 13.441 0 34.696 2.188 50.637 2.188 17.504 0 22.505-5.9389 22.505-11.565 0-7.5018-6.8766-10.315-20.63-13.128l-36.571-6.564c-30.632-5.9389-46.886-27.194-46.886-49.699 0-27.506 19.38-50.324 57.513-54.7 28.757-3.1257 64.078 0.31257 83.145 2.8132 0.62514 3.4383 0.93772 6.564 0.93772 10.002 0 25.631-13.441 30.945-26.569 30.945-10.002 0-25.318-1.8754-43.135-1.8754-18.129 0-25.318 5.0012-25.318 10.94 0 6.2515 7.1892 9.0646 18.442 10.94l35.321 6.5641c36.259 6.8766 51.575 27.507 51.575 52.825" fill="url(#a)" stroke-width="2.9812"/>
 <path d="m25.006 0c-13.753 0-25.006 11.253-25.006 25.006v226.3c0-20.005 16.003-36.509 36.008-37.259l1836.2-69.266v-119.78c0-13.753-11.253-25.006-25.006-25.006z" fill="#fff" opacity=".2"/>
 <g transform="matrix(.74938 0 0 .74938 374.32 443.31)" fill="#fff">
  <path d="m194.04 37.46c8.2-3.39 17.79-5.07 26.24-1.62 4.53 1.8 6.55 6.71 7.22 11.21 8.43 46.17 17.53 92.22 24.75 138.6 2.84-19.43 7.13-38.6 11.67-57.7 6.27-25.75 12.55-51.5 18.81-77.25 0.9-3.75 1.59-7.84 4.38-10.73 3.04-3.44 7.69-4.73 12.05-5.47 7.91-1.16 16-0.34 23.72 1.6 11.49 49.85 24.71 99.33 33.77 149.7 3.49-21.32 7.23-42.61 11.27-63.84 4.58-25.69 9.01-51.41 13.53-77.11 0.61-3.98 2.93-7.97 6.9-9.36 7.82-2.9 16.53-1.33 24.14 1.52-11.31 54.69-22.5 109.4-33.78 164.1-0.92 4.44-2.98 9.26-7.36 11.24-4.8 2.19-10.18 2.63-15.39 2.68-6.4-0.07-12.87-0.3-19.05-2.06-5.68-22.6-11.05-45.28-16.63-67.9-2.99-12.7-6.4-25.3-8.94-38.09-2.67-12.49-4.47-25.17-7.77-37.51-3.34 14.48-6.15 29.09-9.62 43.54-6.98 29.01-14.07 58-21.06 87-1.1 4.49-2.74 9.42-6.88 12-4.5 2.6-9.87 2.98-14.95 3.02-6.63-0.1-13.32-0.57-19.73-2.37-12.39-58.41-24.93-116.79-37.29-175.2z"/>
  <path d="m715.66 45.66c6.75-2.03 14.09-1.42 20.8 0.5 0.1 11.36 0 22.73 0.06 34.09 15.06 0.02 30.12-0.05 45.18 0.03 1.26 5.79 2.12 12 0.34 17.77-1.3 4.18-5.91 6.12-9.99 5.94-11.85 0.03-23.7-0.01-35.55 0.01v51.01c0.08 6.35-0.33 12.74 0.68 19.04 0.99 5.99 4.64 11.95 10.57 14.08 7.86 2.91 16.52 0.98 23.93-2.36 4.73-2.31 11.18-2.76 15.05 1.39 4.28 4.82 3.13 11.75 3.25 17.67-14.32 8.57-31.61 12.07-48.11 9.32-9.78-1.68-19.06-6.77-25.19-14.65-7.99-9.9-10.25-23.07-9.68-35.47v-60.03c-6.98-0.01-13.97 0.02-20.94-0.02-0.84-5.68-1.75-11.59-0.24-17.23 0.92-3.51 4.28-5.9 7.79-6.28 4.44-0.48 8.92-0.13 13.39-0.22 0.14-7.45-0.3-14.92 0.23-22.35 0.35-5.2 3.21-10.57 8.43-12.24z"/>
  <path d="m454.04 85.12c12.55-6.88 27.42-8.42 41.44-6.38 15.68 2.38 30.27 11.49 39.06 24.71 10.68 15.68 14.21 35.78 10.64 54.31-31.74-0.01-63.48-0.01-95.22 0 1.15 8.58 4.57 17.21 11.29 22.95 8.38 7.33 19.93 9.71 30.8 9.32 9.38 0.15 18.41-2.73 27.16-5.8 4.94-1.53 11.29-2.98 15.46 1.03 5.31 5.2 5.22 13.38 4.21 20.22-10.48 4.45-21.41 8.11-32.72 9.64-16.38 1.9-33.66 1.47-48.92-5.44-12.8-5.54-23.51-15.61-29.89-28.01-7.78-15.18-9.76-33.02-6.77-49.72 3.51-19.5 15.76-37.58 33.46-46.83m6.98 24.94c-7.07 6.72-10.38 16.42-11.34 25.94 22.89 0 45.78 0.01 68.67-0.01-1.02-9.74-4.77-19.48-11.86-26.41-5.65-5.53-13.66-8.01-21.43-8.1-8.68-0.33-17.85 2.23-24.04 8.58z"/>
  <path d="m825.85 89.83c10.95-8.02 24.59-12.31 38.18-11.86 17.01-0.4 34.15 6.75 45.35 19.65 14.15 16.18 19.16 39.21 15.15 60.1-31.73 0.09-63.45-0.02-95.18 0.05 1.04 8.51 4.49 17.05 11.08 22.77 8.23 7.41 19.76 9.79 30.56 9.49 9.66 0.19 18.96-2.76 27.97-5.92 4.96-1.54 11.46-2.79 15.45 1.48 4.92 5.29 4.76 13.1 3.87 19.81-10.76 4.7-22.09 8.38-33.78 9.85-15.43 1.63-31.6 1.3-46.11-4.8-13.19-5.29-24.48-15.19-31.15-27.77-7.76-14.23-9.8-30.98-7.94-46.92 2.35-17.97 11.75-35.24 26.55-45.93m12.42 22.42c-5.69 6.59-8.34 15.21-9.24 23.74 22.87 0.01 45.74 0.04 68.61-0.02-0.96-10.08-5.02-20.16-12.54-27.12-7.27-6.52-17.63-8.19-27.05-7.08-7.61 0.82-14.9 4.55-19.78 10.48z"/>
  <path d="m1112.7 78.68c14.78-2.33 31.45 0.21 42.47 11.1 11.52 10.75 15.21 27.13 15.48 42.34 0.18 22.64 0 45.28 0.09 67.92 0.25 5.26-1.47 11.75-7.04 13.55-7.56 2.23-15.6 0.92-23.24-0.15 0.01-25.81 0-51.63 0.01-77.44-0.2-8.83-1.9-18.56-8.54-24.95-6.96-6.94-17.69-8.41-27.01-6.73-9.51 2.1-18.56 7.55-23.86 15.85-0.88 1.06-0.88 2.45-0.86 3.75 0.04 25.69 0.02 51.37 0.02 77.06 0.12 4.9-1.7 10.75-6.79 12.49-7.59 2.44-15.71 0.99-23.43 0.01-0.06-44.03-0.04-88.05-0.01-132.08 7.5-1.95 16.23-3.93 23.31 0.32 5.74 3.89 6.02 11.48 6.22 17.73 8-10.67 19.94-18.57 33.18-20.77z"/>
  <path d="m605.16 79.12c21.3-2.29 42.82 1.38 63.05 8.03 0.62 5.84 0.56 12.21-2.65 17.36-1.76 2.9-5.22 4.38-8.53 4.28-8.66 0.4-16.55-3.88-25.02-4.81-7.9-0.98-15.94-1.31-23.85-0.28-3.93 0.57-8.02 1.66-10.96 4.48-4.3 4.05-4.1 12.33 1.15 15.51 5.3 3.49 11.65 4.75 17.66 6.49 14.9 4.45 30.7 7.31 43.91 15.98 7.65 4.86 13.18 13 14.46 22.01 1.49 11.05-0.71 23.3-8.56 31.63-8.18 8.7-20.14 12.69-31.7 14.31-23.66 2.86-47.71-1.25-70.11-8.95-0.99-6.34-0.92-13.66 3.47-18.79 2.81-3.33 7.62-3.56 11.62-2.85 8.04 1.41 15.73 4.31 23.79 5.67 7.59 1.49 15.37 1.56 23.07 1.14 5.32-0.54 11.04-1.61 15.14-5.31 4.88-4.97 4.62-14.72-1.72-18.4-7.25-4.3-15.66-5.91-23.64-8.32-13.98-4.01-28.86-7.28-40.46-16.57-14.76-11.95-14.87-36.81-1.21-49.63 8.4-7.87 19.86-11.6 31.09-12.98z"/>
  <path d="m951.78 81.41c6.73-1.81 14.08-3.38 20.86-0.95 5.14 1.81 7.83 7.32 8.25 12.46 0.28 4.34 0 8.69 0.16 13.04 3.95-8.93 9.48-17.76 18.29-22.57 9.87-5.83 21.89-5.28 32.79-3.35 1.62 6.38 2.82 13.59-0.34 19.7-2.4 4.59-7.89 6.48-12.81 6.27-9.21-0.15-19.19 0.42-26.81 6.23-7.32 4.99-10.2 14.25-10.18 22.75 0.03 20.68-0.02 41.35 0.03 62.02-0.02 4.54 0.28 9.6-2.65 13.41-2.86 3.75-7.99 4.24-12.34 4.35-5.13 0.02-10.25-0.46-15.29-1.36 0.05-44-0.05-88 0.04-132z"/>
  <path d="m1230 80c23.05-3.95 46.74-0.03 68.76 7.16 0.53 5.94 0.58 12.52-2.91 17.66-1.86 2.88-5.41 4.13-8.71 3.98-8.61 0.24-16.45-3.98-24.9-4.87-8.69-0.98-17.59-1.43-26.21 0.26-4.49 0.88-9.26 3.31-10.82 7.9-1.01 3.73-0.59 8.47 2.78 10.92 5.85 4.4 13.31 5.57 20.18 7.63 15.73 4.68 32.77 7.69 45.89 18.24 6.83 5.67 10.92 14.33 11.22 23.17 0.53 10.2-2.21 21.15-9.63 28.51-7.58 7.55-18.11 11.35-28.45 13.16-24.45 3.61-49.47-0.61-72.66-8.57-1-6.42-0.97-13.94 3.7-19.01 3.51-3.84 9.25-3.16 13.85-2.16 10.6 2.49 21.03 6.12 32.02 6.48 8.34 0.11 17.28 0.59 24.87-3.53 7.28-3.63 8.26-15.75 1.19-20.1-7.01-4.27-15.16-5.97-22.95-8.25-12.89-3.73-26.36-6.66-37.74-14.1-6.95-4.4-12.23-11.5-14.01-19.57-2.35-10.27-0.32-21.8 6.53-29.99 6.94-8.41 17.57-12.76 28-14.92z"/>
 </g>
</svg>
