<svg width="1872.2pt" height="605.25pt" version="1.1" viewBox="0 0 1872.2 605.25" xmlns="http://www.w3.org/2000/svg">
 <defs>
  <linearGradient id="a" x1="-8600.5" x2="-8600.5" y1="-4687.6" y2="-4591.4" gradientTransform="matrix(-2.9812 0 0 -2.9812 -24493 -13655)" gradientUnits="userSpaceOnUse">
   <stop stop-color="#a80000" offset="0"/>
   <stop stop-color="#a1000c" offset=".38129"/>
   <stop stop-color="#b90019" offset="1"/>
  </linearGradient>
 </defs>
 <path d="m624.21 9e-5h1223c13.753 0 25.006 11.253 25.006 25.006v325.08c0 13.753-11.253 25.006-25.006 25.006h-1223z" fill="url(#a)" stroke-width="2.9812"/>
 <path d="m624.21 375.09h-599.2c-13.753 0-25.006-11.253-25.006-25.006v-325.39c0-13.128 10.94-24.693 24.693-24.693h599.52z" fill="#fff" stroke-width="3.1257"/>
 <g transform="matrix(.75012 0 0 .75012 0 -6e-5)" fill="#fff">
  <path d="m1196.8 46.657c8.08-2.39 17.44-0.61 23.7 5.16 8.96 7.84 10.76 22.47 3.9 32.22-5.08 7.92-15.03 12.37-24.3 10.66-11.61-1.81-21.3-12.73-20.86-24.62-0.19-10.58 7.4-20.56 17.56-23.42z"/>
  <path d="m1017.4 133.46c21.37-5.8 43.96-4.99 65.59-1.1 16.56 3.21 33.02 8.13 47.94 16.07 0.82 7.45 0.64 15.53-3.01 22.28-2.45 4.57-7.4 7.7-12.63 7.47-7.67-0.23-14.56-3.99-21.59-6.62-14.68-6.05-30.63-9.09-46.51-8.39-14.87 0.74-29.66 5.3-41.92 13.84-11.33 7.69-20.34 18.59-26.21 30.93-6.65 14.05-9.41 29.77-8.95 45.25 0.46 14.4 3.53 28.88 10.19 41.73 7.95 15.91 21.5 28.99 37.82 36.15 20.99 9.32 45.36 8.45 66.93 1.55 8.87-2.71 17.08-7.36 26.16-9.37 5.62-1.4 12.21 0.36 15.57 5.29 4.85 6.95 5.01 16.04 4.14 24.15-14.07 7.02-29.27 11.67-44.63 14.88-25.46 5.02-52.52 5.76-77.23-3.13-24.95-8.67-46.58-26.38-60.09-49.06-11.77-19.51-17.68-42.39-17.5-65.12-0.26-25.49 7.13-51.2 21.84-72.12 15.21-21.84 38.36-37.9 64.09-44.68z"/>
  <path d="m1378.5 131.64c20.37-4.35 42.33-2.9 61.39 5.79 14.88 6.78 27.32 18.57 35.15 32.9 9.75 17.49 12.97 37.77 13.25 57.57 0 42.06 0.05 84.12-0.05 126.18 0.17 5.36-2.82 10.92-8.15 12.55-9.57 3.04-19.87 1.53-29.55-0.18-0.06-45.61 0.03-91.23-0.05-136.84-0.58-17.92-4.72-37.02-17.41-50.43-11.02-11.97-27.92-16.85-43.82-16.02-16.43 0.97-32.11 7.86-45.12 17.73-8.09 6.21-15.3 13.73-20.45 22.57-1.14 1.63-0.91 3.67-0.96 5.55 0.08 8.56 0.01 17.11 0.05 25.67 0.02 40.13 0.01 80.26-0.01 120.39 0.21 5.36-3.46 10.34-8.62 11.75-9.37 2.72-19.36 1.35-28.8-0.26-0.16-43.48-0.07-86.96-0.08-130.44 0.08-33.89-0.12-67.78 0.1-101.66 9.07-1.94 18.68-3.43 27.8-0.98 4.91 1.26 9.25 5.39 9.48 10.67 0.35 7.42-0.01 14.85 0.15 22.28 14.33-17.02 33.79-30.09 55.7-34.79z"/>
  <path d="m1579.1 150c30.74-21.87 72.51-26.73 107.67-13.3 16.58 6.46 31.22 17.69 41.88 31.93 10.87 14.34 17.8 31.44 21.11 49.08 3.01 15.84 2.86 32.18 0.27 48.06-60.29 0.07-120.59 0-180.88 0.04 2.21 17.04 8.77 33.95 20.77 46.51 10.38 11.11 24.48 18.3 39.23 21.59 22.1 4.92 45.28 2.4 66.72-4.37 7.84-2.21 15.32-5.66 23.31-7.37 5.57-1.42 11.72 1.3 14.58 6.26 4.25 7.17 3.74 15.87 3.17 23.87-19.57 8.63-40.34 14.62-61.56 17.38-19.3 2.53-39.12 2.24-58.08-2.43-16.65-4.06-32.58-11.5-45.88-22.37-14.06-11.32-25.03-26.31-31.98-42.94-9.86-23.76-12.22-50.39-7.98-75.68 5.19-30.3 22.29-58.65 47.65-76.26m17.36 30.27c-13.64 11.51-22.05 28.12-25.99 45.33-0.44 2.72-0.87 5.44-1.29 8.17 48.37 0 96.74-0.01 145.11 0-0.3-4.91-0.85-9.79-1.77-14.63-3.32-16.57-11.88-32.49-25.42-42.9-26.12-20.22-66.03-17.3-90.64 4.03z"/>
  <path d="m1879.3 133.17c21.25-6.87 45.68-4.8 64.78 7.1 11.91 7.31 21.04 18.49 27.09 31 9.14-13.12 20.8-24.75 35.02-32.29 17.83-9.56 39.11-11.94 58.81-7.71 14.06 3.02 27.23 10.4 36.75 21.24 12.31 13.79 18.58 32.08 20.24 50.29 0.97 10.37 0.4 20.8 0.55 31.21-0.04 40.16 0.05 80.34-0.06 120.5 0.17 5.76-3.84 11.05-9.43 12.42-9.4 2.54-19.36 1.27-28.79-0.52 0.01-42.8-0.01-85.61-0.02-128.42-0.23-11.22 0.66-22.52-0.93-33.67-1.46-9.94-5.03-19.84-11.76-27.44-6.16-7.04-14.97-11.41-24.12-12.93-27.02-5.03-54.58 11.73-66.73 35.54-1.21 2.79-0.57 5.94-0.69 8.89 0.02 48.58 0.05 97.16-0.02 145.74 0.28 5.65-3.22 11.29-8.82 12.76-9.59 2.65-19.77 1.3-29.4-0.44-0.01-29.46-0.01-58.92-0.01-88.38-0.17-22.64 0.32-45.29-0.26-67.92-0.73-9.29-2.85-18.66-7.59-26.77-4.58-7.96-12.01-14.27-20.7-17.29-14.94-5.25-31.92-3.43-45.78 4.04-10.33 5.46-19.26 13.56-25.69 23.31-1.78 2.98-4.3 5.92-4.24 9.58-0.1 3.75 0.03 7.5 0.02 11.25 0.04 46.59 0.01 93.19-0.01 139.78 0.3 5.58-3.05 11.21-8.58 12.75-9.48 2.73-19.63 1.5-29.16-0.36 0-50.27-0.03-100.54 0-150.8 0.02-27.01-0.01-54.02 0.01-81.03 8.65-1.91 17.74-3.44 26.53-1.45 5.05 1.07 9.59 5.03 10.31 10.32 0.86 6.75 0.19 13.59 0.4 20.37 10.8-13.94 25.39-25.23 42.28-30.67z"/>
  <path d="m2255.9 129.89c17.19-1.23 34.69-0.86 51.52 3.17 13.74 3.27 27.14 9.51 37.07 19.76 10.85 10.79 16.89 25.54 19.55 40.42 2.85 14.42 1.83 29.17 2.01 43.77-0.02 43.16 0.03 86.32-0.03 129.48-8.95 1.65-18.28 2.8-27.26 0.8-5.34-1.09-10.03-5.64-10.18-11.26-0.16-7.2 0.01-14.4-0.05-21.59-9.66 10.19-20.7 19.21-33.29 25.52-16.85 8.58-36.04 12-54.84 11.19-15.27-0.63-30.64-4.41-43.72-12.49-14.38-8.77-25.53-22.9-30.05-39.19-4.79-17.16-3.22-36.51 6.17-51.87 6.78-11.09 17.31-19.42 28.76-25.31 16.65-8.48 35.14-12.62 53.58-14.98 24.17-2.98 48.62-2.81 72.9-1.26-0.09-10.48-0.18-21.12-2.94-31.31-2.15-7.96-6.31-15.56-12.73-20.85-7.15-5.88-16.23-8.83-25.27-10.16-25.14-3.34-50.68 1.14-74.67 8.72-5.04 1.38-10 3.18-15.2 3.77-5.25 0.51-10.64-2.24-13.06-6.95-3.77-7.19-3.52-15.68-2.55-23.51 23.88-8.65 48.96-13.95 74.28-15.87m25.3 125.03c-17.4 1.05-35.09 2.99-51.35 9.62-9.34 3.91-18.36 10.1-23 19.37-7.01 13.91-3.62 32.09 7.98 42.52 7.95 7.51 18.67 11.45 29.43 12.56 16.59 1.49 33.6-1.83 48.41-9.5 13.04-6.54 24.33-16.26 33.43-27.61 0.8-1.14 2.07-2.21 1.91-3.77 0.07-14.33-0.06-28.67 0.05-42.99-15.61-0.88-31.25-0.94-46.86-0.2z"/>
  <path d="m1193.1 133.91c9.65-3.09 20.03-1.43 29.72 0.69 0 34.69-0.02 69.38 0 104.07 0.04 38.13-0.02 76.25 0.01 114.38 0.03 4.08-0.97 8.55-4.34 11.2-4.23 3.37-9.94 3.91-15.15 4.07-6.31 0.12-12.58-0.67-18.75-1.87-0.05-42.1-0.02-84.19-0.02-126.29 0.03-31.39-0.05-62.78 0.03-94.17-0.12-5.36 3.32-10.5 8.5-12.08z"/>
 </g>
 <path d="m421.97 333.52c4.0635 2.188 12.19 4.6886 22.818 4.6886 17.817 0.31257 27.507-6.5641 34.696-22.505l95.648-213.18c-4.0635-2.188-12.816-4.376-19.692-4.6886-12.19-0.31257-28.757 2.188-39.384 27.507l-30.945 73.142-60.952-98.461c-4.0635-1.2503-13.441-2.8132-20.63-2.8132-21.255 0-33.445 7.8144-45.948 21.255l-58.764 64.39 47.511 74.705c8.7521 13.753 20.317 20.63 39.072 20.63 12.19 0 22.505-2.8132 27.194-5.0012l-57.201-86.27 40.635-42.823 66.578 104.4zm-125.34-80.644c0 15.629-6.2515 24.693-36.884 24.693-4.0635 0-7.5018-0.31258-10.94-0.93773v-208.17c0-15.941 5.3138-32.195 36.258-32.195 3.7509 0 7.8144 0.31257 11.565 1.2503zm-63.452-31.257c0 29.382-19.067 50.637-58.139 55.013-28.132 3.1257-69.079-0.62514-88.458-2.8132-0.62515-3.1257-1.2503-7.1892-1.2503-10.315 0-25.631 13.753-31.57 26.881-31.57 13.441 0 34.696 2.188 50.637 2.188 17.504 0 22.505-5.9389 22.505-11.565 0-7.5018-6.8766-10.315-20.63-13.128l-36.571-6.564c-30.632-5.9389-46.886-27.194-46.886-49.699 0-27.506 19.38-50.324 57.513-54.7 28.757-3.1257 64.078 0.31257 83.145 2.8132 0.62514 3.4383 0.93772 6.564 0.93772 10.002 0 25.631-13.441 30.945-26.569 30.945-10.002 0-25.318-1.8754-43.135-1.8754-18.129 0-25.318 5.0012-25.318 10.94 0 6.2515 7.1892 9.0646 18.442 10.94l35.321 6.5641c36.259 6.8766 51.575 27.507 51.575 52.825" fill="url(#a)" stroke-width="2.9812"/>
 <path d="m25.006 0c-13.753 0-25.006 11.253-25.006 25.006v226.3c0-20.005 16.003-36.509 36.008-37.259l1836.2-69.266v-119.78c0-13.753-11.253-25.006-25.006-25.006z" fill="#fff" opacity=".2"/>
 <g transform="matrix(.75056 0 0 .75056 410.76 440.05)" fill="#fff">
  <path d="m367.09 31.25c7.33-1.9 15.04-0.72 22.41 0.39 0 44.45 0.01 88.89-0.01 133.34 0.19 17.31 0.61 34.62 1.76 51.9-7.8 1.27-16.36 3.16-23.87-0.21-7.04-4.02-6.1-13.23-6.15-20.13-4.88 7.57-11.49 14.27-19.82 17.95-13.39 6-29.16 6.8-43 1.85-14.67-5.03-26.52-16.6-33.31-30.39-7.36-14.42-8.67-31.11-7.09-46.99 1.57-15.19 8.41-29.85 19.26-40.62 11.42-11.29 27.72-17.28 43.73-16.34 14.78 0.14 28.8 7.58 38.48 18.52 0.06-19.5-0.02-39 0.04-58.5-0.02-4.66 2.82-9.62 7.57-10.77m-48.53 76.58c-10.36 1.99-19.73 8.77-24.66 18.12-5.27 9.7-6.31 21.17-4.97 31.98 1.32 10.31 5.6 20.64 13.67 27.48 15.93 13.9 43.6 10.01 55.33-7.52 0.96-1.45 2.03-3.01 1.83-4.85-0.13-15.86 0.2-31.74-0.16-47.59-7.45-14.5-25.65-20.6-41.04-17.62z"/>
  <path d="m148.2 39.95c8.35-2.25 17.08-2.82 25.69-2.32 5.09 0.34 10.46 1.58 14.3 5.15 3.7 3.42 5.49 8.28 7.12 12.93 16.48 48.15 32.98 96.29 49.46 144.44 1.67 5.05 3.63 10.02 5.04 15.16-8.71 3.36-18.6 4.96-27.54 1.53-3.9-1.68-5.44-5.97-6.69-9.69-4.07-12.33-8.28-24.6-12.39-36.9-23.25 0.02-46.5-0.02-69.74 0.01-4.29 12.88-8.58 25.76-12.88 38.64-1.24 3.89-3.82 7.79-8.05 8.74-8.27 2.08-17.37 1.26-25.18-2.15 20.32-58.5 40.65-117 60.86-175.54m20.47 24.7c-8.78 26.27-17.54 52.55-26.28 78.83 17.4 0.03 34.81 0.03 52.21 0-8.57-26.3-17.35-52.53-25.93-78.83z"/>
  <path d="m854.75 49.8c6.85-2.24 14.37-1.54 21.22 0.38 0.07 11.35 0 22.71 0.04 34.06 15.01 0 30.03 0.02 45.04-0.01 1.35 5.61 2.05 11.58 0.62 17.24-1.03 4.17-5.46 6.56-9.54 6.5-12.04 0.08-24.09 0-36.13 0.03-0.01 21 0.01 41.99-0.01 62.98 0 6.37 1.24 13.38 6.08 17.94 4.69 4.48 11.7 5.15 17.85 4.31 5.33-0.62 10.04-3.38 15.14-4.82 4.41-1.24 9.74 0.21 12.22 4.26 2.9 4.84 2.23 10.75 2.1 16.15-14.46 8.66-31.94 12.17-48.57 9.23-9.94-1.84-19.39-7.19-25.38-15.42-6.13-8.16-8.92-18.47-8.94-28.59 0.02-22.01 0.01-44.02 0-66.04-7.03-0.07-14.06 0.15-21.09-0.13-0.66-6.58-2.44-14.13 1.36-20.09 4.97-5.56 13.21-2.91 19.72-3.53 0.09-7.08-0.11-14.15 0.08-21.23 0.19-5.39 2.77-11.3 8.19-13.22z"/>
  <path d="m586.89 83.83c9.8-2.44 20.16-2.44 30.08-0.68 15.49 2.97 29.57 12.59 37.89 26.01 9.73 15.45 13.01 34.72 9.5 52.6-31.75 0.01-63.49-0.05-95.24 0.02 1.14 7.82 3.91 15.71 9.65 21.37 8.06 8.22 20.03 11.16 31.24 10.88 9.75 0.3 19.2-2.51 28.28-5.76 4.94-1.55 11.28-3.02 15.52 0.89 5.01 4.82 5.17 12.41 4.44 18.86 0.17 1.58-1.55 1.97-2.62 2.5-14.42 5.97-29.9 9.94-45.61 9.49-18.18 0.56-37.12-4.9-50.61-17.47-10.74-9.75-17.34-23.48-19.78-37.66-2.93-17.5-0.6-36.26 8.59-51.64 8.28-14.45 22.51-25.33 38.67-29.41m-4.7 28.39c-8.25 6.75-12.41 17.35-13.3 27.77 22.88 0.02 45.75 0.01 68.62 0.01-0.88-7.96-3.35-15.9-8.26-22.32-4.43-6.35-11.58-10.54-19.2-11.68-9.57-1.51-20.18-0.08-27.86 6.22z"/>
  <path d="m720.06 103.45c9.83-12.93 25.48-21.8 41.95-21.48 13.26-0.65 27.11 3.95 36.03 14.07 9.56 10.52 12.8 25.13 13.19 38.96 0.06 23.32-0.02 46.65 0.04 69.97 0.04 3.14-0.34 6.46-2.27 9.06-2.06 3.37-6.25 4.31-9.92 4.61-6.06 0.38-12.17-0.15-18.12-1.31 0.1-26.09 0-52.19 0.05-78.28-0.17-8.49-2.07-17.66-8.24-23.9-7.73-7.52-19.74-8.91-29.81-6.21-8.98 2.8-17.81 8.35-22.11 16.96-0.25 27.02 0.01 54.05-0.12 81.08-0.1 4.73-2.88 9.78-7.78 10.9-7.36 1.75-15.06 0.66-22.44-0.47-0.03-43.97 0-87.94-0.01-131.91 7.38-2.13 15.93-3.88 23.05-0.04 5.97 3.82 6.6 11.58 6.51 17.99z"/>
  <path d="m1194.4 114.35c10.79-19.82 32.84-33.11 55.53-32.38 17.35-0.6 34.93 6.63 46.3 19.84 13.38 15.53 18.49 37.18 15.45 57.25-0.34 0.96-0.04 3.14-1.73 2.68-31.32 0.03-62.63 0.01-93.95 0.01 1.11 9.09 5 18.23 12.43 23.92 9.07 7.32 21.26 8.93 32.56 8.27 8.95-0.26 17.37-3.49 25.79-6.18 4.5-1.25 10.29-2.16 13.94 1.54 5.25 5.24 5.25 13.44 4.1 20.28-10.94 4.46-22.26 8.39-34.06 9.72-18.31 2-37.9 0.71-54.05-8.98-16.66-9.42-27.41-27.25-30.34-45.92-2.78-16.94-0.56-35.02 8.03-50.05m32.61-0.29c-7.03 6.74-10.38 16.42-11.35 25.94 22.89 0 45.77 0.01 68.66-0.01-1.02-9.77-4.73-19.56-11.91-26.46-5.62-5.54-13.64-7.94-21.38-8.05-8.68-0.35-17.82 2.26-24.02 8.58z"/>
  <path d="m406.05 86.73c8.27-3.2 17.63-4.91 26.24-2.01 3.07 1.06 4.97 4.03 6.03 6.95 9.01 26.46 17.92 52.95 26.83 79.45 2.02 6.24 3.77 12.57 5.55 18.88 2.59-9.54 5.68-18.94 9.18-28.19 7.7-22.69 15.3-45.42 22.85-68.16 1.13-3.37 2.82-7 6.32-8.43 8.23-3.58 17.67-1.83 25.78 1.24-15 40.41-30.13 80.77-45.21 121.15-1.64 4.83-5.34 9.32-10.53 10.4-8.16 1.84-16.85 1.2-24.79-1.38-16.05-43.31-32.28-86.56-48.25-129.9z"/>
  <path d="m952.1 84.06c7.13-1.75 14.54-0.42 21.74 0.32 0.38 20.85 0.05 41.72 0.16 62.58 0.16 8.7-0.62 17.54 1.34 26.1 1.17 5.47 3.9 10.67 8.21 14.32 7.11 6.24 17.36 7.9 26.42 5.85 10.25-2.33 19.14-9.37 24.33-18.44 0.51-26.84-0.03-53.73 0.26-80.59 0.19-4.77 3.62-9.25 8.38-10.23 7.17-1.54 14.6-0.45 21.79 0.53 0.17 30.84-0.25 61.7 0.27 92.54-0.04 13.03 1.72 26.01 4.31 38.76-6.77 2.71-14.31 3.74-21.5 2.4-4.47-0.8-8.07-4.33-9.53-8.54-1.57-4.48-1.13-9.32-1.86-13.95-7.57 10.13-17.54 19.47-30.23 22.33-12.17 2.71-25.45 2.01-36.75-3.56-9.53-4.75-16.77-13.39-20.68-23.22-3.72-8.9-4.94-18.67-4.77-28.26 0.03-22.67-0.01-45.33 0.02-67.99-0.07-4.88 3.18-9.85 8.09-10.95z"/>
  <path d="m1098.6 85.38c6.58-1.7 13.65-3.25 20.33-1.14 4.31 1.26 7.26 5.31 8.3 9.54 1.23 5.25 0.7 10.69 0.84 16.04 3.91-9.48 10.19-18.5 19.56-23.21 9.66-5.02 20.99-4.39 31.4-2.56 1.52 6.14 2.63 12.94 0.02 18.95-2.2 4.92-7.84 7.27-12.99 7-9.44-0.16-19.75 0.44-27.46 6.56-6.97 5.12-9.73 14.08-9.79 22.42 0 22.02-0.03 44.04 0.01 66.05 0.05 3.46-0.61 7.14-2.91 9.84-2.14 2.56-5.59 3.42-8.76 3.72-6.23 0.53-12.47-0.18-18.61-1.15 0.05-44.02-0.07-88.04 0.06-132.06z"/>
 </g>
</svg>
