<svg version="1.1" viewBox="0 0 1091.7 147" xml:space="preserve" xmlns="http://www.w3.org/2000/svg">
<style type="text/css">
	.st0{fill:#FFFFFF;}
	.st1{fill:#9B001F;}
	.st2{fill:#FF0031;}
	.st3{fill:url(#path15335_2_);}
	.st4{opacity:0.3;fill:url(#path15297-4_2_);enable-background:new    ;}
	.st5{opacity:0.3;fill:url(#path15555_2_);enable-background:new    ;}
</style>


<g transform="translate(1.97e-4)"><g transform="matrix(.588 0 0 .588 -.023129 0)">
	
		<path class="st0" d="m1840 243.7c8.6 0 12.5-4.2 12.5-12.5v-212.4c0-8.1-3.9-12.5-12.5-12.5l-881.7-0.1v237.4z"/>
		<path class="st1" d="m1837.9 6.4c8.6 0 12.5 4.4 12.5 12.5v212.4c0 8.2-3.9 12.5-12.5 12.5h-881.7v6.2h884c9.2 0 16.5-7.7 16.5-16.5v-216.8c0-9.1-7.5-16.7-16.7-16.7h-883.8v6.2z"/>
	
	
		<path class="st1" d="m1345.3 146.2v-18.4c-27.9-1.2-52.1 1.8-52.1 19.3 0 8.6 7.5 16.3 19.9 16.3 12.8-0.1 24.6-7.1 32.2-17.2m15.6-33.7v62.3c-1.6 0.5-4.5 0.8-7.2 0.8-5.8 0-8.2-2-8.2-6v-7.3h-0.2c-7.5 7.6-18.9 14.6-34.2 14.6-21.7 0-33.7-14.3-33.7-30.2 0-23.2 25-34 67.9-31.2v-2.5c0-15.4-5-23.7-23.7-23.7-10.1 0-18.4 2-24.2 3.7-2.8 0.8-5.1 1.5-6.8 1.5-4.3 0-7-4.3-6-12.5 9.3-3.7 23.6-7 37.3-7 28.5 0 39 14.3 39 37.5"/>
		<path class="st1" d="m1379.1 124.9c0-29.4 21.7-50.4 49.6-50.4 19.3 0 33.8 7.9 33.8 7.9 1 7-1.6 12.6-6.7 12.6-6.6 0-11.7-6.3-26.5-6.3-18.4 0-33.9 13.9-33.9 36.5 0 22.1 15.4 36.6 33.9 36.6 15 0 20.4-6.3 26.8-6.3 5.1 0 7.6 5.3 6.4 12.6 0 0-14.6 7.7-33.7 7.7-27-0.2-49.7-19.6-49.7-50.9z"/>
		<path class="st1" d="m1540.8 170c-8.6 4.1-18.5 6.8-28.5 6.8-19.4 0-31.3-11.5-31.3-30.5v-87.4c0-3.8 2.3-6.3 8.9-6.3 2.8 0 6.2 0.7 7.7 1.2v23h38.9c0.2 1.5 0.7 4.3 0.7 6.8 0 6-2.3 8-6.2 8h-33.5v53.2c0 11.5 5.4 16.7 16.5 16.7 9.8 0 15.7-4.1 20.4-4.1 4.9 0.1 7.4 4.3 6.4 12.6"/>
		<path class="st1" d="m1557.8 174.6v-92.6c0-3.8 2.3-6.3 9-6.3 2.8 0 6.2 0.5 7.8 0.8v92.6c0 4.1-2.3 6.3-9 6.3-2.8 0-6.1-0.5-7.8-0.8m-2.2-124c0-6.2 5-10.7 11-10.7s10.7 4.5 10.7 10.7c0 5.5-4.7 10.7-10.7 10.7s-11-5.2-11-10.7"/>
		<path class="st1" d="m1679.5 125.5c0-22.4-15.1-36.1-33.7-36.1-18.2 0-33.4 13.8-33.4 36.1s15.1 36.3 33.4 36.3c18.5-0.1 33.7-14 33.7-36.3m-84.1 0c0-29.1 21.5-50.8 50.4-50.8 29.1 0 50.6 21.7 50.6 50.8s-21.5 51.3-50.6 51.3c-28.8-0.1-50.4-22.2-50.4-51.3"/>
		<path class="st1" d="m1714.8 174.6c1.6 0.5 5 0.8 7.8 0.8 6.8 0 8.8-2.5 8.8-6.3v-62.5c5.1-9.3 17.3-17.1 28.8-17.1 14.6 0 24.2 9.5 24.2 29.1v55.8c1.6 0.5 5 0.8 7.8 0.8 6.8 0 9-2.5 9-6.3v-52.5c0-29.1-16.6-41.9-36.7-41.9-14.6 0-25.6 6.6-33.2 15v-7.2c0-3.8-2-6.6-8.5-6.6-3 0-6.3 0.5-8 0.8v98.1"/>
	
	<g id="layer1_1_" transform="translate(-15.061,-164.86)">
		<path id="path15585_1_" class="st2" d="m126.7 314.7c0 21.5-14 37.1-42.6 40.2-20.6 2.2-50.5-0.4-64.7-2-0.5-2.3-0.9-5.2-0.9-7.5 0-18.7 10.1-23 19.6-23 9.9 0 25.5 1.7 37 1.7 12.8 0 16.6-4.3 16.6-8.4 0-5.4-5.1-7.6-15-9.5l-27.1-5.2c-22.5-4.3-34.5-19.8-34.5-36.3 0-20 14.2-36.8 42.2-39.9 21.1-2.3 46.9 0.3 61 2 0.5 2.4 0.8 4.7 0.8 7.2 0 18.7-9.9 22.7-19.4 22.7-7.3 0-18.6-1.3-31.6-1.3-13.2 0-18.6 3.6-18.6 8 0 4.7 5.2 6.6 13.4 8.1l25.8 4.8c26.6 4.9 38 19.9 38 38.4m46.3 23c0 11.5-4.5 18.1-27 18.1-3 0-5.6-0.2-8.1-0.6v-152.3c0-11.6 3.9-23.7 26.6-23.7 2.9 0 5.8 0.3 8.5 0.9zm91.9 59c3 1.5 9 3.4 16.6 3.5 13.1 0.3 20.2-4.7 25.5-16.4l70-155.7c-2.9-1.5-9.3-3.3-14.5-3.4-9-0.2-21.1 1.6-28.8 20l-22.8 53.3-44.5-72.3c-2.9-0.9-9.9-2.1-15-2.1-15.8 0-24.5 5.8-33.6 15.6l-43.2 47.2 34.8 54.7c6.4 10 14.9 15.1 28.6 15.1 9 0 16.5-2.1 20-3.7l-41.9-63 29.7-31.5 48.7 76.3z"/>
		
			<linearGradient id="path15335_2_" x1="-1300.6" x2="-1189.9" y1="635.01" y2="635.01" gradientTransform="matrix(7.5001,0,0,7.5001,10169,-4472.8)" gradientUnits="userSpaceOnUse">
			<stop stop-color="#FF0031" offset="0"/>
			<stop stop-color="#9B001F" offset="1"/>
		</linearGradient>
		<path id="path15335_1_" class="st3" d="m1228 164.9h-797.1c-9.2 0-16.7 7.5-16.7 16.7v216.5c0 9.2 7.5 16.7 16.7 16.7h797c9.2 0 16.7-7.5 16.7-16.7v-216.6c-0.1-9.2-7.4-16.6-16.6-16.6" fill="url(#path15335_2_)"/>
		
			<linearGradient id="path15297-4_2_" x1="-1513.4" x2="-1511.2" y1="-154.48" y2="-154.48" gradientTransform="matrix(-1.3157,-37.678,37.678,-1.3157,4026.8,-56930)" gradientUnits="userSpaceOnUse">
			<stop stop-color="#fff" offset="0"/>
			<stop stop-color="#fff" stop-opacity=".25" offset=".5146"/>
			<stop stop-color="#fff" stop-opacity=".25" offset="1"/>
		</linearGradient>
		<path id="path15297-4_1_" class="st4" d="m138 202.9v104.5c0-4.2 3.2-8.6 8.6-8.8 3.8-0.1 14.4-0.5 17.6-0.6 3.5-0.1 8.8-2.5 8.9-8.9v-109c-2.7-0.6-5.6-0.9-8.5-0.9-22.7 0.1-26.6 12.1-26.6 23.7m80 36.4-43.2 47.2 3.5 5.4c1.5 2 4.4 5.4 10.2 5.2 2.1-0.1 22.9-0.8 24.6-0.9 5.4-0.2 8.8 2.1 10.9 4.9l-7.7-11.6 29.7-31.5 19.9 31.3c3.6 4.7 9 4.8 10.2 4.8 1 0 27.2-0.9 28.3-1 1.8-0.1 3.9 0.9 5.5 3.2l-43.3-70.4c-2.9-0.9-9.9-2.1-15-2.1-15.8-0.1-24.5 5.6-33.6 15.5m-160.7-14.5c-28 3.1-42.2 19.8-42.2 39.9 0 10.3 4.7 20.2 13.7 27.3 6.8 4.5 13.8 6.2 20.7 7.4 5.7 1 19 1.9 28.9 1.5 3.1-0.1 25.9-0.9 30.8-1.1 11.6-0.4 17.8 9.5 17.2 19.4v-0.5c0.1-1.3 0.2-2.6 0.2-3.9 0-18.5-11.4-33.6-37.9-38.5l-25.8-4.8c-8.3-1.4-13.4-3.4-13.4-8.1 0-4.4 5.5-8.1 18.6-8.1 13 0 24.3 1.3 31.6 1.3 9.5 0 19.4-4 19.4-22.7 0-2.5-0.3-4.8-0.8-7.2-10.1-1.2-26.3-2.9-42.4-2.9-6.3 0.1-12.6 0.4-18.6 1m276.2 19.9-22.1 52.1c0-0.1 1.4-4.1 5.7-4.3 0 0 21.8-0.8 23.4-0.8 7.1-0.3 9.9-5.1 10.7-6.7l25.6-57.1c-2.9-1.5-9.3-3.3-14.5-3.4h-1.1c-8.9 0.1-20.3 2.5-27.7 20.2" fill="url(#path15297-4_2_)"/>
		
			<linearGradient id="path15555_2_" x1="-1481.9" x2="-1479.7" y1="-160.9" y2="-160.9" gradientTransform="matrix(-1.9565,-56.026,56.026,-1.9565,6945.8,-83063)" gradientUnits="userSpaceOnUse">
			<stop stop-color="#fff" offset="0"/>
			<stop stop-color="#fff" stop-opacity=".25" offset=".5146"/>
			<stop stop-color="#fff" stop-opacity=".25" offset="1"/>
		</linearGradient>
		<path id="path15555_1_" class="st5" d="m430.9 164.9c-9.2 0-16.7 7.5-16.7 16.7v120.3-0.1c0-1.8 0.7-11.7 12-12.8 0 0 0.6-0.1 1.6-0.1 49.3-1.7 804.4-28.2 804.4-28.2 6.3-0.2 12.4-4.9 12.4-12.7v-66.3c0-9.2-7.5-16.7-16.7-16.7z" fill="url(#path15555_2_)" Googl="true"/>
		
			<path class="st0" d="m1190.1 275.3v74.5c-2 0.5-5.4 1-8.8 1-7 0-10.1-2.5-10.1-7.4v-9.8c-11.1 11.7-24.3 18.6-41.8 18.6-26.3 0-40.8-16.8-40.8-35.6 0-28.4 30.7-40.8 82.6-37.4v-3.2c0-18.1-5.9-28.9-28.9-28.9-11.9 0-22.2 2.6-29.2 4.9-3.6 1-6.4 1.9-8.3 1.9-5.4 0-8.5-4.9-7.3-15.2 11.7-4.4 29.2-8.3 45.6-8.3 34.3 0.1 47 17.2 47 44.9m-19.1 40.8v-22.5c-33.8-1.5-63 1.8-63 22.7 0 10.3 8.8 19.9 24.5 19.9 16 0 29.5-8.1 38.5-20.1"/>
			<path class="st0" d="m461.4 291.1c0-34.8 25.8-60.7 59.6-60.7 16.2 0 30.7 4.4 40.8 9.6 1 10.6-2.9 15-7.8 15-6.9 0-14.5-7.5-32.3-7.5-22.5 0-40.8 16.8-40.8 43.9s18.3 44.4 40.8 44.4c17.8 0 25.5-7.5 32.3-7.5 4.9 0 8.8 4.4 7.8 15-10.3 4.9-24.8 9.3-40.8 9.3-33.8-0.5-59.6-26.7-59.6-61.5"/>
			<path class="st0" d="m875.2 298.9h-91.1c2.9 22.7 18.9 35.8 42.4 35.8 10.1 0 17.8-2.3 25.3-4.6 4.9-1.8 7.5-2.8 9.6-2.8 4.9 0 8.5 4.6 7.3 15.2-10.3 4.6-26.1 9.6-42.9 9.6-36.4 0-61.5-24.8-61.5-61.2 0-35.1 26.1-60.6 58.3-60.6 35.9 0 53.7 28.7 53.7 56.6-0.1 3.7-0.4 7.6-1.1 12m-91-15.7h73.3c-0.8-20.1-13.7-35.9-34.8-35.9-18.8-0.2-35.4 12.4-38.5 35.9"/>
			<path class="st0" d="m582.4 205.6c0-7.2 5.7-12.4 12.4-12.4 6.9 0 12.2 5.4 12.2 12.4 0 6.4-5.4 12.2-12.2 12.2s-12.4-5.9-12.4-12.2m2.7 144.1v-110.4c0-4.4 2.4-7.3 10.3-7.3 3.1 0 6.9 0.8 8.8 1.3v110.2c0 4.6-2.6 7.3-10.3 7.3-3.2-0.1-6.9-0.6-8.8-1.1"/>
			<path class="st0" d="m1064.5 272.9v70.5c0 4.6-2.6 7.3-10.3 7.3-3.1 0-6.9-0.5-8.8-1v-74.7c0-17.3-8.3-27.6-23.8-27.6-13.2 0-24.5 9.6-28.9 19.1v76.9c0 4.6-2.4 7.3-10.1 7.3-3.4 0-7-0.5-9-1v-74.7c0-17.3-8-27.6-23.8-27.6-13.2 0-24.5 9.6-28.9 19.1v76.9c0 4.6-2.4 7.3-10.1 7.3-3.4 0-7.2-0.5-8.8-1v-116.5c2-0.5 5.7-1.3 8.8-1.3 7.3 0 9.8 2.9 9.8 7.8v8.3c7.5-10.1 19.4-17.6 33.8-17.6 15.5 0 27.6 8 33.8 21.2 8-11.7 20.4-21.2 37.7-21.2 25.2 0.1 38.6 19.2 38.6 42.5"/>
			<path class="st0" d="m739.2 280.4v63c0 4.6-2.4 7.3-10.1 7.3-3.1 0-6.9-0.5-8.8-1v-66.7c0-24-11.9-35.4-29.4-35.4-13.9 0-28.9 9.8-35.1 21.1v74.9c0 4.6-2.5 7.3-10.1 7.3-3.4 0-7-0.5-8.8-1v-116.7c1.8-0.5 5.4-1.3 8.8-1.3 7.5 0 10.1 2.9 10.1 7.3v10.1c8.5-10.3 21.5-18.9 39.2-18.9 24.1 0.1 44.2 15.4 44.2 50"/>
		
	</g>
</g></g></svg>
