<svg width="1872.2pt" height="806" viewBox="0 0 1872.2 604.5" xmlns="http://www.w3.org/2000/svg" xmlns:xlink="http://www.w3.org/1999/xlink">
    <defs>
        <linearGradient id="b" x1="-8600.5" x2="-8600.5" y1="-4687.6" y2="-4591.4" gradientTransform="matrix(-2.9812 0 0 -2.9812 -24493 -13655)" gradientUnits="userSpaceOnUse" xlink:href="#a"/>
        <linearGradient id="a" x1="-8600.5" x2="-8600.5" y1="-4687.6" y2="-4591.4" gradientTransform="matrix(-2.9812 0 0 -2.9812 -24493 -13655)" gradientUnits="userSpaceOnUse">
            <stop stop-color="#a80000" offset="0"/>
            <stop stop-color="#a1000c" offset=".381"/>
            <stop stop-color="#b90019" offset="1"/>
        </linearGradient>
    </defs>
    <path d="M624.21 0h1223c13.753 0 25.006 11.253 25.006 25.006v325.08c0 13.753-11.253 25.006-25.006 25.006h-1223z" fill="url(#b)" stroke-width="2.981"/>
    <path d="M624.21 375.09H25.01c-13.753 0-25.006-11.253-25.006-25.006V24.694C.004 11.566 10.944.001 24.697.001h599.52z" fill="#fff" stroke-width="3.126"/>
    <g fill="#fff">
        <path d="M897.744 34.998c6.06-1.792 13.082-.457 17.777 3.87 6.722 5.882 8.072 16.856 2.926 24.17-3.81 5.94-11.274 9.279-18.228 7.996-8.709-1.358-15.978-9.549-15.647-18.468-.143-7.936 5.55-15.422 13.172-17.568zM763.172 100.111c16.03-4.35 32.975-3.743 49.2-.825 12.422 2.408 24.77 6.098 35.961 12.054.615 5.589.48 11.65-2.258 16.713-1.837 3.428-5.55 5.776-9.474 5.603-5.753-.172-10.921-2.993-16.195-4.965-11.012-4.539-22.976-6.82-34.888-6.294-11.154.555-22.248 3.976-31.445 10.382-8.499 5.768-15.257 13.944-19.66 23.2-4.989 10.54-7.06 22.332-6.714 33.944.345 10.802 2.648 21.663 7.644 31.302 5.963 11.935 16.127 21.746 28.37 27.117 15.744 6.991 34.025 6.339 50.205 1.163 6.653-2.033 12.812-5.521 19.623-7.029 4.216-1.05 9.159.27 11.68 3.968 3.637 5.214 3.757 12.032 3.105 18.116-10.554 5.266-21.956 8.754-33.478 11.162-19.098 3.765-39.396 4.32-57.932-2.348-18.715-6.504-34.94-19.788-45.075-36.801-8.829-14.635-13.262-31.798-13.127-48.848-.195-19.12 5.349-38.406 16.383-54.099 11.41-16.382 28.775-28.43 48.075-33.515zM1034.04 98.746c15.28-3.263 31.753-2.176 46.05 4.343 11.162 5.086 20.494 13.93 26.367 24.679 7.314 13.12 9.73 28.332 9.94 43.184 0 31.55.037 63.1-.038 94.65.127 4.021-2.116 8.192-6.114 9.414-7.179 2.28-14.905 1.148-22.166-.135-.045-34.213.023-68.433-.037-102.646-.436-13.442-3.541-27.77-13.06-37.829-8.266-8.978-20.943-12.64-32.87-12.016-12.325.727-24.087 5.895-33.846 13.3-6.068 4.657-11.477 10.298-15.34 16.93-.855 1.222-.682 2.752-.72 4.163.06 6.42.008 12.834.038 19.255.015 30.102.007 60.205-.008 90.307.158 4.02-2.595 7.756-6.466 8.814-7.028 2.04-14.522 1.013-21.603-.195-.12-32.615-.053-65.23-.06-97.846.06-25.421-.09-50.843.075-76.257 6.803-1.455 14.012-2.573 20.853-.735 3.683.945 6.939 4.043 7.111 8.004.263 5.566-.007 11.139.113 16.712 10.749-12.767 25.346-22.57 41.781-26.096zM1184.514 112.518c23.06-16.405 54.392-20.05 80.766-9.977 12.437 4.846 23.419 13.27 31.415 23.952 8.154 10.756 13.352 23.583 15.835 36.816 2.258 11.881 2.145 24.138.203 36.05-45.225.053-90.457 0-135.682.03 1.658 12.782 6.578 25.467 15.58 34.888 7.786 8.334 18.363 13.728 29.427 16.196 16.578 3.69 33.965 1.8 50.048-3.279 5.88-1.657 11.492-4.245 17.485-5.528 4.178-1.065 8.792.975 10.937 4.696 3.188 5.378 2.806 11.904 2.378 17.905-14.68 6.474-30.26 10.967-46.177 13.037-14.478 1.898-29.345 1.68-43.567-1.822-12.49-3.046-24.44-8.627-34.416-16.78-10.547-8.492-18.775-19.736-23.989-32.21-7.396-17.824-9.166-37.8-5.986-56.77 3.893-22.729 16.72-43.994 35.743-57.204m13.023 22.706c-10.232 8.634-16.54 21.093-19.496 34.003-.33 2.04-.653 4.08-.968 6.128 36.284 0 72.567-.007 108.85 0-.225-3.683-.637-7.343-1.327-10.974-2.49-12.43-8.912-24.371-19.069-32.18-19.593-15.167-49.53-12.977-67.99 3.023zM1409.7 99.893c15.94-5.153 34.266-3.6 48.593 5.326 8.934 5.484 15.783 13.87 20.321 23.254 6.856-9.842 15.603-18.565 26.27-24.221 13.374-7.172 29.336-8.957 44.114-5.784 10.546 2.266 20.426 7.801 27.567 15.933 9.234 10.344 13.937 24.064 15.182 37.723.728 7.779.3 15.603.413 23.412-.03 30.124.037 60.264-.045 90.389.127 4.32-2.88 8.289-7.074 9.316-7.051 1.906-14.522.953-21.596-.39.008-32.105-.007-64.217-.015-96.33-.172-8.416.495-16.893-.698-25.257-1.095-7.456-3.773-14.882-8.82-20.583-4.622-5.28-11.23-8.559-18.094-9.699-20.268-3.773-40.941 8.799-50.055 26.66-.908 2.092-.428 4.455-.518 6.668.015 36.44.038 72.882-.015 109.322.21 4.239-2.415 8.47-6.616 9.572-7.194 1.988-14.83.975-22.053-.33-.008-22.099-.008-44.197-.008-66.296-.128-16.982.24-33.973-.195-50.948-.548-6.968-2.138-13.997-5.693-20.08-3.436-5.972-9.01-10.705-15.528-12.97-11.207-3.938-23.944-2.573-34.34 3.03a52.712 52.712 0 0 0-19.271 17.486c-1.335 2.235-3.226 4.44-3.18 7.186-.076 2.813.022 5.626.015 8.439.03 34.948.007 69.903-.008 104.851.225 4.186-2.288 8.41-6.436 9.564-7.111 2.048-14.725 1.126-21.874-.27 0-37.708-.022-75.417 0-113.118.015-20.26-.007-40.521.008-60.782 6.489-1.433 13.307-2.58 19.9-1.088 3.789.803 7.194 3.774 7.734 7.742.645 5.063.143 10.194.3 15.28 8.102-10.457 19.046-18.926 31.716-23.007zM1692.196 97.433c12.894-.923 26.021-.645 38.646 2.378 10.307 2.453 20.358 7.134 27.807 14.822 8.139 8.094 12.67 19.158 14.665 30.32 2.138 10.817 1.372 21.881 1.507 32.833-.015 32.375.023 64.75-.022 97.125-6.714 1.238-13.712 2.1-20.448.6-4.006-.817-7.524-4.23-7.637-8.446-.12-5.4.008-10.802-.037-16.195-7.246 7.644-15.528 14.41-24.972 19.143-12.64 6.436-27.034 9.002-41.136 8.394-11.454-.473-22.984-3.308-32.795-9.369-10.787-6.579-19.151-17.178-22.542-29.397-3.593-12.872-2.415-27.387 4.629-38.909 5.086-8.319 12.984-14.567 21.573-18.985 12.49-6.362 26.36-9.467 40.192-11.237 18.13-2.236 36.47-2.108 54.683-.945-.067-7.862-.135-15.843-2.205-23.487-1.613-5.97-4.733-11.672-9.549-15.64-5.363-4.41-12.174-6.623-18.956-7.62-18.858-2.506-38.016.854-56.011 6.54-3.78 1.035-7.501 2.386-11.402 2.828-3.938.383-7.981-1.68-9.796-5.213-2.828-5.394-2.64-11.762-1.913-17.636 17.913-6.488 36.726-10.464 55.719-11.904m18.978 93.788c-13.052.787-26.322 2.242-38.519 7.216-7.006 2.933-13.772 7.576-17.253 14.53-5.258 10.434-2.715 24.07 5.986 31.895 5.964 5.633 14.005 8.588 22.076 9.421 12.445 1.118 25.204-1.373 36.314-7.126 9.781-4.906 18.25-12.197 25.076-20.71.6-.856 1.553-1.659 1.433-2.829.052-10.749-.045-21.506.037-32.247a339.159 339.159 0 0 0-35.15-.15zM894.968 100.449c7.239-2.318 15.025-1.073 22.294.517 0 26.022-.015 52.043 0 78.065.03 28.602-.015 57.197.007 85.799.023 3.06-.727 6.413-3.255 8.401-3.173 2.528-7.456 2.933-11.365 3.053-4.733.09-9.436-.502-14.064-1.403-.038-31.58-.015-63.152-.015-94.732.022-23.547-.038-47.093.022-70.639-.09-4.02 2.49-7.876 6.376-9.061z"/>
    </g>
    <path d="M421.97 333.52c4.064 2.188 12.19 4.689 22.818 4.689 17.817.312 27.507-6.565 34.696-22.505l95.648-213.18c-4.063-2.188-12.816-4.376-19.692-4.689-12.19-.313-28.757 2.188-39.384 27.507l-30.945 73.142-60.952-98.461c-4.063-1.25-13.441-2.813-20.63-2.813-21.255 0-33.445 7.814-45.948 21.255l-58.764 64.39 47.511 74.705c8.752 13.753 20.317 20.63 39.072 20.63 12.19 0 22.505-2.813 27.194-5.001l-57.201-86.27 40.635-42.823 66.578 104.4zm-125.34-80.644c0 15.629-6.252 24.693-36.884 24.693-4.064 0-7.502-.313-10.94-.938V68.461c0-15.94 5.314-32.195 36.258-32.195 3.75 0 7.814.313 11.565 1.25zm-63.452-31.257c0 29.382-19.067 50.637-58.139 55.013-28.132 3.126-69.079-.625-88.458-2.813-.625-3.126-1.25-7.19-1.25-10.315 0-25.631 13.753-31.57 26.88-31.57 13.442 0 34.697 2.188 50.638 2.188 17.504 0 22.505-5.94 22.505-11.565 0-7.502-6.877-10.315-20.63-13.128l-36.571-6.564c-30.632-5.94-46.886-27.194-46.886-49.7 0-27.505 19.38-50.323 57.513-54.7 28.757-3.125 64.078.313 83.145 2.814.625 3.438.937 6.564.937 10.002 0 25.631-13.44 30.945-26.569 30.945-10.002 0-25.318-1.875-43.135-1.875-18.129 0-25.318 5-25.318 10.94 0 6.251 7.19 9.064 18.442 10.94l35.321 6.564c36.26 6.876 51.575 27.507 51.575 52.825" fill="url(#b)" stroke-width="2.981"/>
    <path d="M25.006 0C11.253 0 0 11.253 0 25.006v226.3c0-20.005 16.003-36.509 36.008-37.259l1836.2-69.266V25.001c0-13.753-11.253-25.006-25.006-25.006z" fill="#fff" opacity=".2"/>
    <g>
        <path d="M906.413 459.631c6.88-2.353 15.138 2.068 16.552 9.288 1.947 7.098-3.572 14.957-10.867 15.611-6.97 1.15-14.13-4.602-14.378-11.678-.61-5.738 3.264-11.446 8.693-13.22zM770.03 469.061c5.603-1.45 11.483-.549 17.131.211.045 18.8 0 37.592.023 56.392 20.868.008 41.728.008 62.596 0 .015-16.115-.03-32.238.015-48.353 0-4.068 3.008-7.971 7.114-8.558 5.437-.857 11.07-.413 16.446.7-.18 41.743-.007 83.487-.09 125.23 0 3.655-2.008 7.61-5.7 8.7-5.76 1.723-11.882.617-17.717-.052-.158-19.176-.015-38.36-.068-57.543-20.868 0-41.736-.008-62.596.008-.008 16.288-.016 32.576 0 48.872.067 2.542-.858 5.114-2.663 6.918-2.173 2.181-5.452 2.542-8.37 2.67-4.12.053-8.271-.218-12.302-1.075.038-41.428 0-82.863.015-124.29-.21-4.1 1.857-8.807 6.166-9.83zM957.15 477.213c5.144-1.67 10.814-1.218 15.95.3.023 8.529-.007 17.064.016 25.591 11.302.008 22.612.016 33.922 0 1.046 4.324 1.587 8.98.346 13.326-.947 2.963-4.166 4.595-7.136 4.527-9.047.045-18.093-.008-27.14.015.008 15.792-.023 31.592.015 47.384.008 4.797 1.008 9.994 4.58 13.468 3.737 3.52 9.347 3.94 14.19 3.12 3.715-.563 7.001-2.496 10.588-3.489 3.331-.955 7.362.128 9.235 3.181 2.188 3.655 1.586 8.092 1.564 12.153-10.867 6.542-24.042 9.136-36.547 6.94-8.227-1.473-15.875-6.316-20.327-13.438-4.324-6.707-5.768-14.852-5.49-22.725.008-15.529.008-31.058 0-46.594-5.158-.053-10.317.098-15.468-.053-1.271-3.444-1.188-7.535-.835-11.22.166-3.27 2.85-6.068 6.099-6.414 3.384-.384 6.805-.083 10.204-.18.068-5.31-.112-10.626.083-15.935.128-4.054 2.053-8.528 6.152-9.957zM905.443 502.864c5.332-1.083 10.851-.339 16.16.496-.03 30.682.016 61.363-.022 92.045 0 3.512-2.203 7.19-5.73 8.114-5.505 1.444-11.288.572-16.815-.226-.008-30.711.008-61.415-.008-92.127-.097-3.813 2.572-7.61 6.415-8.302zM1037.239 508.391c6.083-3.692 13.092-5.663 20.146-6.28 15.551-1.398 31.2 1.34 45.954 6.19.49 4.55.437 9.625-2.323 13.506-1.512 2.173-4.287 2.933-6.813 2.775-6.242.067-11.92-2.963-18.056-3.618-6.264-.79-12.656-1.03-18.913-.067-3.647.594-7.685 2.24-9.106 5.94-.925 2.948-.482 6.746 2.24 8.619 4.392 3.143 9.882 4.015 14.943 5.55 8.918 2.639 18.138 4.541 26.53 8.677 5.001 2.414 9.799 5.723 12.77 10.52 4.466 7.032 4.579 16.094 2.142 23.862-1.947 6.475-6.918 11.723-12.881 14.731-10.701 5.678-23.222 6.107-35.044 5.407-11.543-.834-22.928-3.376-33.847-7.166-.737-4.745-.707-10.235 2.58-14.078 1.992-2.406 5.376-2.722 8.271-2.27 6.25.992 12.198 3.338 18.454 4.353 5.678 1.113 11.498 1.158 17.259.85 4.286-.459 9.084-1.323 12.07-4.737 2.082-2.813 2.436-6.851.97-10.017-1.587-3.023-5.016-4.241-7.972-5.475-9.85-3.519-20.206-5.444-30.005-9.114-6.098-2.391-12.34-5.37-16.483-10.633-5.37-6.67-6.4-16.16-3.738-24.154 1.79-5.618 5.866-10.31 10.852-13.371z"/>
    </g>
</svg>
