<svg viewBox="0 0 2535 1897.455" xmlns="http://www.w3.org/2000/svg">
  <path d="M111.7 0c-11.02 0-42.05 2.34-70.92 26.62-10.57 8.89-19.94 20-27.18 33.28C5.97 73.9 0 91.87 0 113.81v1669.84c0 21.94 5.97 39.9 13.6 53.9 7.24 13.29 16.61 24.4 27.18 33.29 28.87 24.28 59.9 26.615 70.92 26.615h2311.6c11.02 0 42.05-2.335 70.92-26.615 10.58-8.89 19.94-20 27.18-33.29 7.62-14 13.6-31.96 13.6-53.9V113.81c0-21.94-5.98-39.91-13.6-53.91-7.24-13.28-16.6-24.39-27.18-33.28C2465.35 2.34 2434.32 0 2423.3 0Z" fill="#e90000"/>
  <g fill="#fff">
    <path d="M1632.545 1169.864c13.881 7.096 41.969 15.637 77.391 16.517 60.852 1.357 93.889-21.918 118.533-76.456L2154.7 382.298c-13.391-7.193-44.478-15.28-67.546-15.65-42.021-.877-98.41 7.63-134.21 93.572l-105.621 249.29-207.216-337.467c-13.394-4.084-46.04-9.87-69.718-9.87-73.377 0-114.139 26.834-156.634 72.915l-201.403 220.198 161.997 255.098c29.987 46.566 69.39 70.187 133.343 70.187 42.022 0 76.904-9.794 93.022-17.377L1405.563 669.16l138.343-146.825 226.93 356.256ZM1204.52 894.633c0 53.664-21.064 84.58-125.779 84.58-13.867 0-25.905-.876-37.548-2.723V265.053c0-54.15 18.341-110.535 123.922-110.535 13.392 0 26.656 1.36 39.18 4.084V894.73ZM988.49 787.208c0 50.116-16.328 93.452-49.275 126.007s-82.514 54.332-148.991 61.525c-96.173 10.306-235.338-1.75-301.62-9.429-2.232-10.694-3.96-24.11-3.96-34.902 0-87.301 46.971-107.352 91.322-107.352 44.349 0 118.57 8.122 172.237 8.122 59.49 0 77.443-20.175 77.443-39.424 0-25.083-23.679-35.387-69.776-44.332l-126.26-24.206C524.798 703.19 469 630.591 469 553.595c0-93.522 66.286-171.779 196.523-186.07 98.405-10.792 218.254 1.37 284.052 9.439 2.232 11.179 3.59 21.87 3.59 33.439 0 87.203-46.197 106.164-90.45 106.164-33.966 0-86.856-6.332-147.22-6.332-60.362 0-86.857 17.015-86.857 37.625 0 21.97 24.216 30.916 62.742 37.622l120.29 22.36c61.77 11.422 105.935 34.683 134.698 65.89s42.122 70.36 42.122 113.574Z"/>
    <path d="M1331.65 1541.532c0-43.879 15.95-81.957 42.617-109.115 26.667-27.157 64.051-43.345 106.517-43.345 39.599 0 75.701 10.973 101.949 23.124 4.259 27.205-4.014 38.593-16.466 38.593-21.172 0-39.649-17.782-83.736-17.782-27.23 0-52.206 10.092-70.456 28.683-8.482 8.642-15.512 19.119-20.607 31.225-5.867 13.941-9.068 30.042-9.068 47.988 0 13.033 1.094 49.004 28.25 78.063 18.267 19.547 43.78 30.435 71.764 30.435 44.084 0 62.657-18.519 81.833-18.383 13.107.094 22.01 11.105 18.627 38.966-11.53 5.99-26.113 11.611-42.59 16.024-17.507 4.686-37.154 7.819-57.553 7.819-39.136.812-74.711-13.345-100.635-36.317-31.102-27.559-50.446-68.701-50.446-115.978"/>
    <path d="M1630.371 1673.755c-3.683-25.676 4.253-39.071 18.931-39.071s47.582 15.262 95.9 15.262c50.103 0 69.093-17.739 69.093-40.926 0-16.495-7.348-31.174-52.575-43.365l-51.918-14.057c-57.415-15.25-80.053-43.985-80.053-79.414 0-43.986 34.802-83.127 113.638-83.127 35.425 0 79.407 7.967 106.326 18.34 4.875 25.054-3.061 38.489-18.308 38.489-13.434 0-43.983-12.843-87.395-12.843-46.42 0-63.536 15.903-63.536 36.704 0 14.679 6.766 28.114 48.311 39.732l53.163 14.68c59.283 16.496 83.036 43.957 83.036 83.068 0 45.801-35.425 86.679-120.952 86.679-37.863 0-84.927-9.154-113.661-20.151"/>
    <path d="M983.58 1541.19c0-87.388 64.13-152.119 150.299-152.119 86.792 0 150.921 64.731 150.921 152.119 0 86.762-64.129 152.737-150.921 152.737-86.045 0-150.299-65.975-150.299-152.737m250.539 0c0-67.224-45.202-108.177-100.24-108.177-54.417 0-99.618 40.953-99.618 108.177 0 66.597 45.201 108.796 99.618 108.796 55.038-.126 100.24-42.199 100.24-108.796"/>
    <path d="M929.744 1291.855v395.371c-4.23 1.867-14.063 3.612-22.526 3.612-20.161 0-26.882-7.968-26.882-23.156v-24.499c-22.028 30-57.373 50.739-101.43 50.739-74.548 0-141.131-56.74-141.131-152.718 0-95.36 66.583-152.126 141.13-152.126 43.933 0 79.403 20.789 101.431 50.665V1308.41c0-11.577 7.343-18.922 27.504-18.922 8.463-.124 17.673 1.121 21.904 2.367m-49.432 302.505v-105.693c-16.553-32.988-52.52-55.645-92.22-55.645-57.374 0-99.617 43.946-99.617 108.182 0 64.734 42.243 108.802 99.616 108.802 39.701-.126 75.793-22.658 92.221-55.646"/>
  </g>
</svg>
