<svg enable-background="new 0 0 3680.8 500" version="1.1" viewBox="0 0 1082.4 147" xml:space="preserve" xmlns="http://www.w3.org/2000/svg"><defs><filter id="e" color-interpolation-filters="sRGB"><feColorMatrix result="color1" type="hueRotate" values="180"/><feColorMatrix result="color2" values="-1 0 0 0 1 0 -1 0 0 1 0 0 -1 0 1 -0.21 -0.72 -0.07 2 0 "/></filter><filter id="d" color-interpolation-filters="sRGB"><feColorMatrix result="color1" type="hueRotate" values="180"/><feColorMatrix result="color2" values="-1 0 0 0 1 0 -1 0 0 1 0 0 -1 0 1 -0.21 -0.72 -0.07 2 0 "/></filter><filter id="c" color-interpolation-filters="sRGB"><feColorMatrix result="color1" type="hueRotate" values="180"/><feColorMatrix result="color2" values="-1 0 0 0 1 0 -1 0 0 1 0 0 -1 0 1 -0.21 -0.72 -0.07 2 0 "/></filter></defs>
<linearGradient id="f" x1="2239.8" x2="2239.8" y1="502" y2="2" gradientTransform="matrix(.29406 0 0 -.29406 0 147.62)" gradientUnits="userSpaceOnUse">
	<stop stop-color="#1A1A1A" offset=".4"/>
	<stop offset="1"/>
</linearGradient>
<path d="m1072.5 0h-827.78c-5.3813 0-9.7922 4.4109-9.7922 9.7922v127.42c0 5.3813 4.4109 9.7922 9.7922 9.7922h827.89c5.3813 0 9.7921-4.4109 9.7921-9.7922v-127.42c-0.1176-5.3813-4.4108-9.7922-9.9097-9.7922z" fill="url(#f)" filter="url(#d)" stroke-width=".29406"/>
<linearGradient id="b" x1="2241.6" x2="2233" y1="295.54" y2="544.55" gradientTransform="matrix(.29406 0 0 -.29406 0 147.62)" gradientUnits="userSpaceOnUse">
	<stop stop-color="#fff" offset="0"/>
	<stop stop-color="#fff" stop-opacity=".25" offset="1"/>
</linearGradient>
<path d="m241.86 72.897h0.9704c29.053-0.97039 832.19-28.906 832.19-28.906 3.6757-0.11763 7.3514-2.823 7.3514-7.4691v-26.73c0-5.3813-4.4108-9.7922-9.7921-9.7922h-827.89c-5.3813 0-9.7922 4.4109-9.7922 9.7922v70.809c0-0.82336 0.1177-6.9692 6.9692-7.7043z" enable-background="new    " fill="url(#b)" filter="url(#e)" opacity=".3" stroke-width=".29406" Googl="true"/>
<path d="m146.91 136.5c1.7056 0.85277 5.2637 1.9702 9.7922 2.0878 7.7043 0.11762 11.88-2.823 14.938-9.6745l41.168-91.658c-1.7055-0.85277-5.5283-1.9702-8.5865-1.9702-5.2636-0.11763-12.38 0.97039-16.908 11.762l-13.35 31.376-26.112-42.521c-1.7055-0.4999-5.8811-1.235-8.8217-1.235-9.3217 0-14.468 3.4405-19.731 9.1746l-25.495 27.7 20.466 32.111c3.7934 5.8812 8.7042 8.8218 16.791 8.8218 5.2636 0 9.6745-1.235 11.762-2.2054l-24.613-36.875 17.408-18.496 28.671 44.844-17.379 36.757zm-54.048-34.699c0 6.734-2.7053 10.645-15.938 10.645-1.7055 0-3.3228-0.11762-4.7931-0.35287v-89.688c0-6.8516 2.3231-13.968 15.673-13.968 1.7056 0 3.4405 0.11762 5.0284 0.4999 0.029 0 0.029 92.893 0.029 92.864zm-27.318-13.586c0 12.615-8.2043 21.819-24.995 23.642-12.115 1.3527-29.759-0.23525-38.11-1.235-0.2353-1.3527-0.4999-3.0582-0.4999-4.4109 0-11.027 5.8811-13.468 11.527-13.468 5.7635 0 14.938 0.97039 21.819 0.97039 7.4691 0 9.7922-2.5877 9.7922-4.9108 0-3.1758-2.9406-4.4109-8.8218-5.6459l-15.938-3.0582c-13.203-2.4113-20.319-11.615-20.319-21.29 0-11.762 8.3218-21.702 24.76-23.407 12.38-1.3527 27.583 0.11762 35.905 1.235 0.2352 1.3527 0.4999 2.823 0.4999 4.2933 0 11.027-5.7636 13.35-11.41 13.35-4.2932 0-10.91-0.73515-18.614-0.73515s-10.91 2.0878-10.91 4.7638c0 2.823 3.0582 3.911 7.969 4.7638l15.203 2.823c15.409 2.5877 22.143 11.409 22.143 22.319z" fill="#ebebeb" stroke-width=".29406"/>
<linearGradient id="a" x1="365.34" x2="359.49" y1="238.8" y2="406.27" gradientTransform="matrix(.29406 0 0 -.29406 0 147.62)" gradientUnits="userSpaceOnUse">
	<stop stop-color="#fff" offset="0"/>
	<stop stop-color="#fff" stop-opacity=".25" offset="1"/>
</linearGradient>
<path d="m212.84 37.257-15.056 33.582c-0.4999 0.85277-2.0878 3.7934-6.2634 3.911-0.9704 0-13.733 0.4999-13.733 0.4999-2.4407 0.11762-3.2934 2.4407-3.2934 2.4407l12.968-30.641c4.5285-10.792 11.645-11.88 16.908-11.762 2.9406 0 6.734 0.97039 8.4689 1.9702zm-39.463 40.051-25.495-41.403c-1.7055-0.4999-5.8811-1.235-8.8217-1.235-9.3217 0-14.468 3.4405-19.731 9.1746l-25.495 27.7 2.0878 3.1758c0.8528 1.235 2.5878 3.1758 5.9988 3.0582 1.2351 0 13.468-0.4999 14.468-0.4999 3.1759-0.11763 5.1461 1.235 6.3811 2.823l-4.5285-6.8516 17.408-18.496 11.762 18.379c2.0879 2.823 5.2637 2.823 5.9988 2.823 0.6176 0 15.938-0.61752 16.673-0.61752 1.088 0.0294 2.2936 0.61752 3.2934 1.9702zm-85.512-68.839c-13.35 0-15.556 7.1162-15.556 13.968v61.517c0-2.4407 1.9702-5.0284 5.0284-5.146 2.2055-0.11762 8.4689-0.23525 10.292-0.38227 2.0878-0.11763 5.146-1.4703 5.2636-5.2637v-64.222c-1.6173-0.23525-3.3228-0.4705-5.0284-0.4705zm-44.609 57.194-15.203-2.823c-4.9108-0.85277-7.969-1.9702-7.969-4.7932 0-2.5583 3.1758-4.7638 10.91-4.7638 7.5867 0 14.35 0.73514 18.614 0.73514 5.6459 0 11.41-2.3231 11.41-13.35 0-1.4703-0.1177-2.823-0.4999-4.2932-8.3219-0.9704-23.407-2.5877-35.905-1.235-16.291 1.9702-24.613 11.909-24.613 23.672 0 5.9988 2.7053 11.88 8.0866 16.056 4.058 2.5583 8.0866 3.6757 12.262 4.4109 3.4405 0.61752 11.145 1.1174 17.026 0.85277 1.8232-0.11763 15.203-0.4999 18.144-0.61753 6.7339-0.23524 10.527 5.5283 10.057 11.409v-0.38227c0.1176-0.73515 0.1176-1.4703 0.1176-2.3231-0.147-10.91-6.881-19.731-22.437-22.554z" enable-background="new    " fill="url(#a)" stroke-width=".29406"/>
<g transform="scale(.29406)" filter="url(#c)">
	<path d="m900.4 81.2c0-14.6 11.7-25.4 25.4-25.4 14.6 0 25.8 10.8 25.8 25.4 0 13.3-11.2 25.4-25.8 25.4-13.7 0.5-25.4-12-25.4-25.4zm5.4 289.6v-222.5c0-9.2 5.4-15.4 21.7-15.4 6.7 0 14.2 0.8 18.3 2.1v222.9c0 10-5 15.4-21.2 15.4-7.1-0.4-15-1.2-18.8-2.5zm309.6-140v127.1c0 9.2-5.4 15.4-21.7 15.4-6.7 0-14.6-0.8-18.8-2.1v-135c0-47.1-22.9-69.6-57.9-69.6-27.1 0-56.2 18.8-68.3 40.8v150.8c0 9.2-5.4 15.4-21.7 15.4-6.7 0-14.6-0.8-18.8-2.1v-236.5c3.8-0.8 11.7-2.1 18.8-2.1 16.2 0 21.7 5.8 21.7 15.4v20c17.1-21.2 43.3-37.9 77.9-37.9 48.8 0 88.8 30.4 88.8 100.4zm122.9 138.8-100.4-230c5.8-3.3 17.1-6.2 26.7-6.2 12.1 0 18.3 3.3 22.5 14.2l40.8 100 34.2 83.3h0.4l34.2-83.3 40.8-100c4.6-10.4 10-14.2 22.1-14.2 8.8 0 19.6 2.9 25.8 6.2l-95.4 217.1c-5.8 13.3-11.2 16.7-27.5 16.7-7.1-0.5-15.8-1.7-24.2-3.8zm382.9-102.1h-182.5c5.4 45.8 36.7 71.2 83.3 71.2 20 0 35.8-3.8 50.4-8.7 10.4-3.3 14.6-5 18.8-5 11.2 0 18.8 9.2 16.7 30.8-21.2 9.2-53.3 19.6-87.5 19.6-73.8 0-123.3-49.6-123.3-123.3 0-70.8 52.5-121.7 116.7-121.7 72.5 0 108.3 56.2 108.3 113.3 0.4 7.1 0 15.5-0.9 23.8zm-182.4-31.3h144.6c-1.7-40.4-27.5-71.7-69.2-71.7-36.3 0.1-69.2 25.1-75.4 71.7zm220.8 123c-2.9-20.4 3.3-31.2 15.4-31.2 11.2 0 38.8 12.1 77.1 12.1 40.4 0 55.4-14.2 55.4-32.9 0-13.3-5.8-25-42.1-35l-41.7-11.2c-46.2-12.1-64.2-35.4-64.2-63.8 0-35.4 27.9-66.7 91.2-66.7 28.3 0 63.8 6.2 85.4 14.6 3.8 20-2.5 30.8-14.6 30.8-10.8 0-35.4-10.4-70-10.4-37.5 0-51.2 12.9-51.2 29.6 0 11.7 5.4 22.5 38.7 32.1l42.5 11.7c47.5 13.3 66.7 35.4 66.7 66.7 0 36.7-28.3 69.6-97.1 69.6-30.7 0.2-68.6-7.3-91.5-16zm376.6 0c-20.4 10-44.2 16.2-67.9 16.2-46.7 0-74.6-27.5-74.6-73.3v-202.5c0-10.4 5.8-17.1 21.7-17.1 6.7 0 14.6 1.7 18.8 2.5v51.2h91.7c0.4 3.3 1.7 10.4 1.7 16.3 0 14.2-5.8 19.2-14.6 19.2h-78.3v127.9c0 27.5 12.9 40.8 38.8 40.8 23.8 0 36.7-10.4 47.9-10.4 11.5 0 17.4 9.6 14.8 29.2zm31.3-278c0-14.6 11.7-25.4 25.4-25.4 14.6 0 25.8 10.8 25.8 25.4 0 13.3-11.2 25.4-25.8 25.4-13.3 0.5-25.4-12-25.4-25.4zm5.4 289.6v-222.5c0-9.2 5.4-15.4 21.7-15.4 6.7 0 14.2 0.8 18.3 2.1v222.9c0 10-5 15.4-21.2 15.4-6.7-0.4-14.6-1.2-18.8-2.5zm319.6-235.8v214.2c0 61.7-45.8 101.2-116.7 101.2-33.3 0-68.8-10-94.2-22.1-2.5-22.9 5-32.5 15.4-32.5 5.8 0 11.7 2.9 21.7 6.7 13.3 5.4 33.3 12.9 57.1 12.9 46.7 0 77.1-22.1 77.1-67.1v-16.2c-13.8 18.8-42.1 36.2-80.8 36.2-57.1 0-109.6-45.8-109.6-118.8 0-73.8 52.9-118.8 110-118.8 37.9 0 66.3 17.5 80.8 37.5v-19.2c0-9.2 5.4-15.8 20.4-15.8 7.1-0.3 14.6 1 18.8 1.8zm-40.4 75c-12.9-27.1-40.4-45-72.1-45-43.8 0-77.5 31.2-77.5 84.6 0 52.9 33.7 84.6 77.5 84.6 32.1 0 59.6-18.8 72.1-45v-79.2zm292.1 10v150.8c-3.8 0.8-11.2 2.1-18.3 2.1-14.6 0-21.7-5.4-21.7-15.4v-20.4c-21.2 24.2-48.8 38.3-83.3 38.3-52.5 0-81.7-34.2-81.7-71.7 0-57.1 60.8-82.1 164.6-75v-8.3c0-38.8-11.7-55-56.2-55-18.8 0-43.8 5.4-57.1 8.7-7.9 2.1-13.8 3.8-18.8 3.8-11.2 0-18.8-10-14.6-30.4 24.2-8.7 58.8-17.1 92.1-17.1 69.5 0 95 30.8 95 89.6zm-40 82.5v-45c-67.9-5-124.2 3.8-124.2 44.6 0 20.4 17.1 39.2 47.9 39.2 31.7 0.4 59.2-15.5 76.3-38.8zm242.9 56.7c-20.4 10-44.2 16.2-67.9 16.2-46.7 0-74.6-27.5-74.6-73.3v-202.5c0-10.4 5.8-17.1 21.7-17.1 6.7 0 14.6 1.7 18.8 2.5v51.2h91.7c0.4 3.3 1.7 10.4 1.7 16.3 0 14.2-5.8 19.2-14.6 19.2h-78.3v127.9c0 27.5 12.9 40.8 38.8 40.8 23.8 0 36.7-10.4 47.9-10.4 11.5 0 17.3 9.6 14.8 29.2zm31.2-278c0-14.6 11.7-25.4 25.4-25.4 14.6 0 25.8 10.8 25.8 25.4 0 13.3-11.2 25.4-25.8 25.4-13.7 0.5-25.4-12-25.4-25.4zm5.5 289.6v-222.5c0-9.2 5.4-15.4 21.7-15.4 6.7 0 14.2 0.8 18.3 2.1v222.9c0 10-5 15.4-21.2 15.4-7.2-0.4-15.1-1.2-18.8-2.5zm88.3-117.9c0-70 51.7-122.1 120.8-122.1 69.6 0 121.2 52.1 121.2 122.1 0 69.6-51.7 122.5-121.2 122.5-69.1 0-120.8-52.9-120.8-122.5zm201.2 0c0-54.2-36.2-87.1-80.4-87.1-43.8 0-80 32.9-80 87.1 0 53.3 36.2 87.5 80 87.5 44.2-0.4 80.4-34.1 80.4-87.5zm298.4-22.1v127.1c0 9.2-5.4 15.4-21.7 15.4-6.7 0-14.6-0.8-18.8-2.1v-135c0-47.1-22.9-69.6-57.9-69.6-27.1 0-56.2 18.8-68.3 40.8v150.8c0 9.2-5.4 15.4-21.7 15.4-6.7 0-14.6-0.8-18.8-2.1v-236.5c3.8-0.8 11.7-2.1 18.8-2.1 16.3 0 21.7 5.8 21.7 15.4v20c17.1-21.2 43.3-37.9 77.9-37.9 48.3 0 88.8 30.4 88.8 100.4z" fill="#fff"/>
</g>
</svg>
