<svg version="1.1" viewBox="0 0 1000 235.9" xmlns="http://www.w3.org/2000/svg" xmlns:xlink="http://www.w3.org/1999/xlink">
 <g transform="translate(-499.88 -2390.5)">
  <path d="m892.46 2626.4h-376.85c-8.6496 0-15.727-7.0769-15.727-15.727v-204.64c0-8.2564 6.8804-15.53 15.53-15.53h377.04z" fill="#a9a9a9" fill-opacity=".94902"/>
  <path d="m895.02 2620.5h-377.44c-8.1189 0-11.795-4.0673-11.795-11.795v-200.51c0-7.7598 3.6727-11.795 11.795-11.795h377.44l76.667 117.95z" fill="#fff"/>
  <path d="m1449.6 2433.8 50.333 54.643v122.37c0 8.5963-7.0873 15.57-15.564 15.57h-591.86v-113.28l60.641-62.64z" fill="#ab0000"/>
  <path d="m765.27 2600.2c2.5556 1.3761 7.6667 2.9488 14.35 2.9488 11.205 0.1962 17.299-4.1284 21.821-14.154l60.154-134.07c-2.5556-1.3763-8.0599-2.7523-12.385-2.9488-7.6667-0.1966-18.086 1.3761-24.769 17.299l-19.462 46-38.333-61.923c-2.5556-0.7864-8.453-1.7693-12.974-1.7693-13.368 0-21.034 4.9145-28.898 13.368l-36.957 40.496 29.88 46.983c5.5043 8.6499 12.778 12.975 24.573 12.975 7.6667 0 14.154-1.7693 17.103-3.1454l-35.975-54.257 25.556-26.932 41.872 65.658z"/>
  <path d="m686.44 2549.5c0 9.829-3.9317 15.53-23.197 15.53-2.5555 0-4.718-0.1964-6.8803-0.5895v-130.92c0-10.026 3.3419-20.248 22.803-20.248 2.359 0 4.9146 0.1965 7.2736 0.7863z"/>
  <path d="m646.54 2529.8c0 18.479-11.992 31.846-36.564 34.599-17.692 1.9657-43.445-0.3933-55.633-1.7695-0.39315-1.9657-0.78633-4.5214-0.78633-6.487 0-16.12 8.6496-19.855 16.906-19.855 8.453 0 21.821 1.3761 31.846 1.3761 11.009 0 14.154-3.7351 14.154-7.2735 0-4.718-4.3248-6.4873-12.974-8.2566l-23-4.1282c-19.265-3.7352-29.487-17.103-29.487-31.256 0-17.299 12.188-31.65 36.171-34.402 18.086-1.9659 40.299 0.1966 52.291 1.7691 0.39315 2.1626 0.58974 4.1283 0.58974 6.2906 0 16.12-8.453 19.462-16.709 19.462-6.2906 0-15.923-1.1794-27.128-1.1794-11.402 0-15.923 3.1452-15.923 6.8805 0 3.9314 4.5214 5.7008 11.598 6.88l22.214 4.1282c22.804 4.3249 32.436 17.299 32.436 33.222"/>
  <path d="m515.61 2390.5h376.85v122.61l-369.97 12.045c-12.581 0.393-22.607 10.812-22.607 23.393v-142.33c0-8.6494 7.077-15.726 15.727-15.726z" fill="#fff" opacity=".2"/>
  <path d="m892.46 2390.5h591.67c9.428 0 15.737 7.7523 15.737 15.665v82.293l-607.4 24.656z" fill="#cb0000"/>
  <g transform="matrix(1.9651 0 0 1.9651 1422.1 2439.3)" fill="#fff">
   <g transform="matrix(1.0826 0 0 1.0826 -994.27 -31.447)" fill="#fff">
    <path d="m799.89 65.263h-39.921c1.3937 9.7561 8.1633 15.53 18.417 15.53 4.2808 0 7.7651-1.0951 11.05-2.1902 2.1902-0.79642 3.3848-1.0951 4.1812-1.0951 2.2897 0 3.8825 2.1902 3.3848 6.7696-4.4799 2.0906-11.648 4.2808-19.015 4.2808-15.928 0-27.078-11.05-27.078-27.178 0-15.331 11.05-26.481 25.585-26.481 15.928 0 23.793 12.444 23.793 24.888 0 1.6924-0.0996 3.5839-0.39821 5.4754m-40.02-7.1678h31.658c-0.29865-8.7606-5.9731-15.53-15.032-15.53-8.1633 0-15.331 5.3758-16.625 15.53" fill="#fff"/>
   </g>
  </g>
  <g transform="matrix(2.1313 0 0 2.1313 -441.42 750.29)" fill="#fff">
   <path d="m652.41 850.49v-51.142c0.9-0.2 2.6-0.4 4.2-0.4 3.4 0 4.4 1.4 4.4 3.5v3.8c4-4.4 9.8-7.9 17.5-7.9 10.6 0 19.4 6.7 19.4 22.1v27.242c0 2.1-1.2 3.4-4.8 3.4-1.5 0-3.2-0.2-4.1-0.4v-29.142c0-10.4-5.1-15.4-12.8-15.4-6.1 0-12.4 4.1-15.1 9v32.442c0 2.1-1.1 3.4-4.7 3.4-1.4-0.1-3.2-0.3-4-0.5" fill="#fff"/>
  </g>
  <path d="m1212.1 2562.7-31.229-107.01s4.6632-2.7714 11.47-2.7714c6.6801 0 8.1024 2.8499 9.4743 7.5503l22.154 83.266 27.803-88.507s4.9421-2.4121 11.419-2.4121c7.2648 0 10.979 2.5477 12.959 9.5727l25.189 81.383 21.576-83.969c1.0859-3.9812 3.4378-7.0097 9.0344-7.0097 6.7568 0 11.595 2.8306 11.595 2.8306l-29.292 100.8c-2.482 5.7318-4.7384 7.8333-12.904 7.8333-5.8549 0-10.778-1.4767-10.778-1.4767l-28.025-89.034-26.259 82.011c-1.9541 5.0502-4.0392 8.4484-13.177 8.4484-6.5392 0-11.008-1.514-11.008-1.514z" fill="#fff"/>
  <path d="m1357.7 2554.7c0 2.8839 0.5774 4.0288 0.5774 4.0288s18.231 6.9541 41.943 6.9541c28.602 0 45.335-12.606 45.335-32.171 0-40.637-69.867-27.969-69.867-51.843 0-8.7685 8.4498-14.627 24.557-14.627 16.913 0 25.034 5.4658 33.154 5.4658 7.0448 0 7.1933-10.252 6.3977-13.891 0 0-16.938-7.0992-39.808-7.0992-26.543 0-42.255 12.625-42.255 31.08 0 39.601 69.422 26.696 69.422 51.223 0 8.8065-7.0967 16.458-26.637 16.458-18.15 0-30.515-6.3114-35.673-6.2237-5.7048 0-7.1468 5.0025-7.1468 10.646z" fill="#fff"/>
 </g>
</svg>
