<svg viewBox="0 0 2535 1897.5" xmlns="http://www.w3.org/2000/svg">
 <defs>
  <linearGradient id="a" x1="1267.5" x2="1267.5" y2="1897.5" gradientUnits="userSpaceOnUse">
   <stop stop-color="#3e8f00" offset="0"/>
   <stop stop-color="#357b00" offset=".45"/>
   <stop stop-color="#347700" offset=".55"/>
   <stop stop-color="#2b6300" offset="1"/>
  </linearGradient>
 </defs>
 <path d="M111.7 0c-11.02 0-42.05 2.34-70.92 26.62-10.57 8.89-19.94 20-27.18 33.28C5.97 73.9 0 91.87 0 113.81v1669.84c0 21.94 5.97 39.9 13.6 53.9 7.24 13.29 16.61 24.4 27.18 33.29 28.87 24.28 59.9 26.615 70.92 26.615h2311.6c11.02 0 42.05-2.335 70.92-26.615 10.58-8.89 19.94-20 27.18-33.29 7.62-14 13.6-31.96 13.6-53.9V113.81c0-21.94-5.98-39.91-13.6-53.91-7.24-13.28-16.6-24.39-27.18-33.28C2465.35 2.34 2434.32 0 2423.3 0Z" fill="url(#a)"/>
 <g fill="#fff">
  <path d="m1632.5 1169.9c13.881 7.096 41.969 15.637 77.391 16.517 60.852 1.357 93.889-21.918 118.53-76.456l326.23-727.63c-13.391-7.193-44.478-15.28-67.546-15.65-42.021-0.877-98.41 7.63-134.21 93.572l-105.62 249.29-207.22-337.47c-13.394-4.084-46.04-9.87-69.718-9.87-73.377 0-114.14 26.834-156.63 72.915l-201.4 220.2 162 255.1c29.987 46.566 69.39 70.187 133.34 70.187 42.022 0 76.904-9.794 93.022-17.377l-195.15-294.03 138.34-146.82 226.93 356.26zm-428.02-275.23c0 53.664-21.064 84.58-125.78 84.58-13.867 0-25.905-0.876-37.548-2.723v-711.44c0-54.15 18.341-110.54 123.92-110.54 13.392 0 26.656 1.36 39.18 4.084v736.13zm-216.03-107.42c0 50.116-16.328 93.452-49.275 126.01s-82.514 54.332-148.99 61.525c-96.173 10.306-235.34-1.75-301.62-9.429-2.232-10.694-3.96-24.11-3.96-34.902 0-87.301 46.971-107.35 91.322-107.35 44.349 0 118.57 8.122 172.24 8.122 59.49 0 77.443-20.175 77.443-39.424 0-25.083-23.679-35.387-69.776-44.332l-126.26-24.206c-104.81-20.027-160.61-92.626-160.61-169.62 0-93.522 66.286-171.78 196.52-186.07 98.405-10.792 218.25 1.37 284.05 9.439 2.232 11.179 3.59 21.87 3.59 33.439 0 87.203-46.197 106.16-90.45 106.16-33.966 0-86.856-6.332-147.22-6.332-60.362 0-86.857 17.015-86.857 37.625 0 21.97 24.216 30.916 62.742 37.622l120.29 22.36c61.77 11.422 105.94 34.683 134.7 65.89s42.122 70.36 42.122 113.57z"/>
  <path d="m1253.4 1673.7c-25.674 12.24-54.978 20.175-84.335 20.175-58.038 0-92.862-34.203-92.862-91.003v-252.37c0-12.813 7.283-21.371 26.837-21.371 8.558 0 18.308 1.815 23.236 3.059v63.542h114.26c0.623 4.254 1.815 12.813 1.815 20.178 0 17.74-7.313 23.786-18.308 23.786h-97.768v159.55c0 34.234 15.871 50.7 48.287 50.7 29.304 0 45.798-12.814 59.854-12.814 14.577 0 21.991 12.242 18.931 36.676z"/>
  <path d="m710.98 1513.7v158.26c0 11.619-6.606 18.933-26.782 18.933-8.557 0-18.34-1.245-23.268-2.438v-168.11c0-58.667-28.808-86.656-72.168-86.656-33.609 0-70.33 23.215-84.957 50.705v187.56c0 11.619-6.638 18.933-26.814 18.933-8.558 0-18.259-1.245-23.186-2.438v-293.84c4.875-1.245 14.628-2.438 23.186-2.438 20.176 0 26.814 7.314 26.814 18.933v25.153c21.369-26.299 53.838-47.146 97.197-47.146 59.854 0 109.98 37.8 109.98 124.58"/>
  <path d="m2079.4 1559.5h-227.33c6.706 56.971 45.85 88.636 103.95 88.636 25.054 0 44.611-4.927 62.922-11.047 12.812-4.303 18.31-6.119 23.239-6.119 14.058 0 23.239 11.617 20.749 38.484-26.3 11.618-66.605 24.477-108.78 24.477-91.898 0-153.39-61.767-153.39-153.41 0-87.548 65.259-151.48 145.35-151.48 90.414 0 135.1 70.258 135.1 141.1 0 8.558-0.622 18.931-1.815 29.304zm-227.34-39.148h180.29c-0.916-25.294-9.637-47.594-24.552-63.573-14.912-15.98-35.995-25.637-61.587-25.637-21.771 0-43.294 7.417-60.36 22.297s-29.726 37.219-33.788 66.913"/>
  <path d="m1788.6 1416.6c0 20.181-8.512 24.379-29.273 24.379-42.192 0-77.639 19.51-99.644 65.311v165.68c0 12.24-6.694 18.93-26.883 18.93-8.562 0-18.219-1.242-23.15-2.44v-293.9c4.879-1.249 14.588-2.439 23.15-2.439 20.189 0 26.883 7.311 26.883 18.93v40.98c28.752-43.362 72.038-65.41 126.43-58.09 0.623 4.25 2.49 13.428 2.49 22.609z"/>
  <path d="m1294.8 1565.9v-154.69c0-11.621 6.654-19.137 26.83-19.137 8.557 0 18.372 1.245 23.3 2.438v167.84c0 25.668 5.506 45.684 15.331 59.856 12.635 18.224 32.413 27.114 56.805 27.114 33.609 0 70.33-23.218 84.957-50.713v-187.6c0-11.621 6.638-18.937 26.814-18.937 8.558 0 18.409 1.245 23.336 2.438v293.89c-4.875 1.247-14.778 2.44-23.336 2.44-20.176 0-26.814-7.316-26.814-18.937v-25.157c-21.369 26.303-53.838 47.154-97.197 47.154-40.884 0-77.251-17.734-96.196-56.636-8.79-18.05-13.83-40.824-13.83-71.366"/>
  <path d="m767.6 1605.1c0 27.25 12.801 53.532 36.769 70.319 16.426 11.506 38.011 18.472 64.559 18.472 28.524 0 52.805-7.299 73.931-21.211 10.8-7.112 20.776-15.945 30.073-26.4v25.457c0 12.434 8.621 19.148 26.81 19.148 8.722 0 17.928-1.495 22.662-2.485v-187.99c0-73.103-31.88-111.39-118.09-111.39-41.611 0-84.618 10.546-114.52 21.235-5.232 25.613 3.887 38.046 18.09 38.046 10.038 0 18.385-4.96 51.604-11.15 13.75-2.562 28.784-4.616 42.931-4.616 55.565 0 69.917 20.439 69.917 68.675v10.047c-33.036-2.287-62.754-1.722-88.396 1.275-74.733 8.735-116.34 39.622-116.34 92.566m204.73-2.238c-13.815 18.974-33.248 34.085-56.018 42.232-12.139 4.343-25.326 6.878-39.016 6.705-20.525 0-36.073-6.8-46.19-16.822-8.797-8.715-13.411-20.017-13.411-31.814 0-23.505 14.815-38.554 39.361-47.318 28.42-10.147 69.816-11.868 115.27-8.533z"/>
 </g>
</svg>
