<svg version="1.1" viewBox="0 0 507.77 388.63" xmlns="http://www.w3.org/2000/svg">
 <g stroke-width="3.303">
  <path d="m360.19 109.51 4.1636 9.4613h-8.2257zm-36.779-5.9239c-2.158-0.0508-4.426 0-6.584 0v8.9958h6.584c4.9507 0.0169 5.2469-8.9282 0-8.9789zm122 9.8167c0 13.058 18.051 13.058 18.051 0s-18.051-12.939-18.051 0.0169zm62.362-0.41467c-0.16925 14.734-8.7843 28.172-21.081 35.543-0.78703 0.47391-1.6925 0.96475-2.5388 1.464-44.531 24.999-218.22 84.982-313.12 91.05-31.735 2.031-53.154-3.292-75.216-19.27a184.8 184.8 0 0 1-22.959-19.921c0.38082-0.12694 0.7701-0.28773 1.1594-0.41467a64.816 64.816 0 0 0 27.461-18.753c7.5233-8.8774 19.938-28.773 0.84627-45.775-8.0988-7.1933-17.095-14.615-23.374-20.708-5.2807-5.1284-7.1594-12.288-3.1566-19.625 14.429-26.488 41.273-39.555 70.926-54.068 2.4034-1.1763 6.0254-4.3414 4.1806-8.1665-1.8449-3.8251-4.9507-10.155-13.261-12.821-3.2412-1.024-8.7928 0.10155-13.244 1.9464-8.1326 3.3851-37.913 18.271-60.043 46.189-8.8943 11.222-18.195 25.786-14.827 41.89 1.4133 6.7702 5.7716 14.09 12.542 19.464 8.9874 7.0748 15.106 12.152 23.052 19.21 8.8604 7.8703 3.4782 18.11-0.46545 21.834-8.3358 7.8872-15.047 11.484-25.752 14.319-31.354-37.854-52.122-84.153-56.607-104.81-11.848-55.008 23.103-81.555 84.272-81.564 87.166 0 298.87 44.175 380.12 69.682 33.859 10.629 41.273 26.7 41.086 43.321zm-304.37-28.985c-2.8519-5.4754-7.1171-4.8745-10.875-2.0057a187.92 187.92 0 0 0-33.698 33.775 0.66855 0.66855 0 0 1-1.1678-0.60086c1.921-6.2709 6.4824-20.175 11.458-33.783 4.9761-13.608 11.475-26.437 14.099-32.294 4.1552-9.309-3.4697-10.003-9.6729-10.875-5.34-0.75318-9.6729-2.3272-13.126 3.5374-9.2413 15.741-32.903 89.95-38.607 142.08-0.18618 1.6925 0.65163 4.773 3.3851 5.2807 4.9591 0.91397 7.9126-1.464 9.8929-5.6446 4.7137-9.9098 9.309-25.295 15.157-42.627a0.66855 0.66855 0 0 1 1.1932-0.1608c3.1058 4.883 15.588 23.492 28.325 29.272 4.2314 1.938 13.667 4.1552 18.559-0.71086 5.9239-5.9239 4.3837-7.9465-1.0578-10.604-2.6827-1.3032-3.8759-2.2595-9.1736-7.5572-6.1101-6.1016-16.13-15.377-17.814-20.7-0.52468-1.7687 0.60932-3.0127 1.0071-3.6644 6.6601-10.274 21.8-17.983 31.058-25.185 4.6037-3.5966 4.1552-11.611 1.0578-17.535zm77.459-13.667c-12.939-2.0903-15.563-3.8759-16.968 6.1185-1.8195 12.931-16.392 52.926-34.553 71.425-0.63471 0.65163-1.5571 1.1509-2.0988 0.72779-1.5064-1.1763 2.4034-15.673 5.5008-25.388 3.1735-9.9183 6.0678-21.885 6.5332-23.696 2.8942-11.535 4.4937-15.58-0.84627-18.491a30.525 30.525 0 0 0-12.694-3.5374c-5.6785-0.4993-7.2525 1.4725-7.4387 7.2018-0.34697 10.248-7.2948 33.639-8.4627 39.005-0.98167 4.4768-3.8759 13.642-3.165 22.003a25.143 25.143 0 0 0 3.9352 11.306c2.7758 3.9013 9.4105 7.041 17.772 4.9676 7.1341-1.7687 14.268-10.451 17.611-15.047a0.66855 0.66855 0 0 1 1.1848 0.54161c-3.6813 16.011-11.162 36.66-23.848 60.085-3.1143 5.7292 0.22849 8.1242 5.2215 5.9239 8.4627-3.732 17.044-12.948 26.006-31.659 11.061-23.069 17.492-45.352 20.31-55.261 5.8223-20.776 11.645-41.205 12.356-43.888 1.5825-6.0678 0.32159-11.264-6.3555-12.339zm57.208 59.696-7.0494-11.416c9.1059-6.1693 6.5332-23.188-7.6164-23.239h-15.783v36.017h9.2074v-10.621h4.7645l6.1862 10.621h10.291zm40.384 0-16.24-35.12h-3.9775l-16.198 35.12v1.3625h8.9958l2.1157-4.5275h14.192l2.1072 4.5275h9.0043zm18.728-34.655h-13.583v36.017h13.583c23.425-0.1354 23.425-35.916 0-36.017zm32.827 0h-9.0974v36.017h9.0974zm42.864 18.042c0-24.88-36.923-24.88-36.923 0s36.923 24.94 36.923 0zm-75.69-9.6644h-4.3752v19.227h4.3752c11.467 0 11.467-19.227 0-19.227z" fill="#0943b9" Googl="true"/>
  <path d="m484.14 150.01c-42.457 29.281-185.48 87.445-295.42 104.38-36.728 5.6616-63.047-3.5374-89.612-26.488-11.611-10.037-17.095-14.387-26.759-26.59 0.17772 0.18618 0.34697 0.38082 0.53315 0.567a184.8 184.8 0 0 0 22.959 19.921c22.062 15.978 43.481 21.301 75.216 19.27 94.858-6.0678 268.55-66.051 313.08-91.059z" fill="#c9ff01"/>
  <path d="m430.01 95.401h-9.1059v35.992h9.0974zm-37.236 27.605h4.3752c11.467 0 11.467-19.227 0-19.227h-4.3752zm4.3752 8.3865h-13.557v-36.017h13.583c23.425 0.10155 23.425 35.882 0 36.017zm48.237-17.949c0 13.058 18.051 13.058 18.051 0s-18.034-12.982-18.034-0.0254zm-9.4613 0c0-24.88 36.923-24.88 36.923 0s-36.906 24.914-36.906-0.0254zm-79.82 5.5515h8.2258l-4.1636-9.4613zm-5.0776 12.398h-8.9958v-1.3371l16.198-35.12h3.9775l16.257 35.12v1.3371h-9.0212l-2.1072-4.5275h-14.192zm-34.206-18.77h6.584c4.9845 0 5.2469-8.9451 0-8.9958-2.158-0.0508-4.426 0-6.584 0zm0 18.77h-9.2074v-36.017h15.791c14.141 0.05078 16.714 17.069 7.6164 23.239l7.0494 11.416v1.3625h-10.299l-6.1862-10.621h-4.7814z" fill="#0ef"/>
  <path d="m101.5 182.71a64.816 64.816 0 0 1-27.461 18.753c-0.38928 0.12694-0.77857 0.28773-1.1594 0.41467-0.18618-0.18618-0.35543-0.38082-0.53315-0.567-4.6376-4.756-9.1397-9.7744-13.43-14.911 10.705-2.835 17.416-6.4316 25.752-14.319 3.9436-3.7236 9.309-13.963 0.46545-21.834-7.9465-7.0579-14.065-12.136-23.052-19.21-6.7702-5.34-11.128-12.694-12.542-19.464-3.3851-16.079 5.9239-30.669 14.827-41.89 22.13-27.927 51.91-42.821 60.043-46.189 4.4514-1.8449 10.003-2.9704 13.244-1.9464 8.3104 2.6404 11.391 8.9451 13.261 12.821 1.8702 3.8759-1.7772 6.9902-4.1806 8.1665-29.619 14.514-56.497 27.58-70.926 54.068-4.0029 7.3372-2.1241 14.497 3.1566 19.625 6.2793 6.0932 15.233 13.54 23.374 20.708 19.1 16.976 6.6855 36.897-0.83781 45.775zm91.025-100.71a187.92 187.92 0 0 0-33.698 33.775 0.66855 0.66855 0 0 1-1.1678-0.60085c1.921-6.2709 6.4824-20.175 11.458-33.783 4.9761-13.608 11.475-26.437 14.099-32.294 4.1552-9.309-3.4697-10.003-9.6729-10.875-5.34-0.75318-9.6729-2.3272-13.126 3.5374-9.2413 15.741-32.903 89.95-38.607 142.08-0.18618 1.6925 0.65163 4.773 3.3851 5.2807 4.9591 0.91397 7.9126-1.464 9.8929-5.6446 4.7137-9.9098 9.309-25.295 15.157-42.627a0.66855 0.66855 0 0 1 1.1932-0.16079c3.1058 4.883 15.588 23.492 28.325 29.272 4.2314 1.938 13.667 4.1552 18.559-0.71087 5.9239-5.9239 4.3837-7.9465-1.0578-10.604-2.6827-1.3033-3.8759-2.2595-9.1736-7.5572-6.1101-6.1016-16.13-15.377-17.814-20.7-0.52468-1.7687 0.60932-3.0127 1.0071-3.6644 6.6601-10.274 21.8-17.983 31.058-25.185 4.6291-3.5966 4.1806-11.577 1.0832-17.535-2.8519-5.4838-7.1425-4.883-10.9-2.0141zm88.334-11.662c-12.939-2.0903-15.563-3.8759-16.968 6.1185-1.8195 12.931-16.392 52.926-34.553 71.425-0.63471 0.65163-1.5571 1.1509-2.0988 0.72779-1.5064-1.1763 2.4034-15.673 5.5008-25.388 3.1735-9.9183 6.0678-21.885 6.5332-23.696 2.8942-11.535 4.4937-15.58-0.84627-18.491a30.525 30.525 0 0 0-12.694-3.5374c-5.6785-0.4993-7.2525 1.4725-7.4387 7.2018-0.34697 10.248-7.2948 33.639-8.4627 39.005-0.98167 4.4768-3.8759 13.642-3.165 22.003a25.143 25.143 0 0 0 3.9352 11.306c2.7758 3.9013 9.4105 7.041 17.772 4.9676 7.1341-1.7687 14.268-10.451 17.611-15.047a0.66855 0.66855 0 0 1 1.1848 0.54161c-3.6813 16.011-11.162 36.66-23.848 60.085-3.1143 5.7292 0.22849 8.1242 5.2215 5.9239 8.4627-3.732 17.044-12.948 26.006-31.659 11.061-23.069 17.492-45.352 20.31-55.261 5.8223-20.776 11.645-41.205 12.356-43.888 1.5825-6.0762 0.32159-11.272-6.3555-12.347z" fill="#fff"/>
  <path d="m280.86 70.335c-12.939-2.0903-15.563-3.8759-16.968 6.1185-1.8195 12.931-16.392 52.926-34.553 71.425-0.63471 0.65163-1.5571 1.1509-2.0988 0.72779-1.5064-1.1763 2.4034-15.673 5.5008-25.388 3.1735-9.9183 6.0678-21.885 6.5332-23.696 2.8942-11.535 4.4937-15.58-0.84627-18.491a30.525 30.525 0 0 0-12.694-3.5374c-5.6785-0.4993-7.2525 1.4725-7.4387 7.2018-0.34697 10.248-7.2948 33.639-8.4627 39.005-0.98167 4.4768-3.8759 13.642-3.165 22.003a25.143 25.143 0 0 0 3.9352 11.306c2.7758 3.9013 9.4105 7.041 17.772 4.9676 7.1341-1.7687 14.268-10.451 17.611-15.047a0.66855 0.66855 0 0 1 1.1848 0.54161c-3.6813 16.011-11.162 36.66-23.848 60.085-3.1143 5.7292 0.22849 8.1242 5.2215 5.9239 8.4627-3.732 17.044-12.948 26.006-31.659 11.061-23.069 17.492-45.352 20.31-55.261 5.8223-20.776 11.645-41.205 12.356-43.888 1.5825-6.0678 0.32159-11.264-6.3555-12.339z" fill="none"/>
  <path d="m192.53 81.996a187.92 187.92 0 0 0-33.698 33.775 0.66855 0.66855 0 0 1-1.1678-0.60086c1.921-6.2709 6.4824-20.175 11.458-33.783 4.9761-13.608 11.475-26.437 14.099-32.294 4.1552-9.309-3.4697-10.003-9.6729-10.875-5.34-0.75318-9.6729-2.3272-13.126 3.5374-9.2413 15.741-32.903 89.95-38.607 142.08-0.18618 1.6925 0.65163 4.773 3.3851 5.2807 4.9591 0.91397 7.9126-1.464 9.8929-5.6446 4.7137-9.9098 9.309-25.295 15.157-42.627a0.66855 0.66855 0 0 1 1.1932-0.1608c3.1058 4.883 15.588 23.492 28.325 29.272 4.2314 1.938 13.667 4.1552 18.559-0.71086 5.9239-5.9239 4.3837-7.9465-1.0578-10.604-2.6827-1.3032-3.8759-2.2595-9.1736-7.5572-6.1101-6.1016-16.13-15.377-17.814-20.7-0.52468-1.7687 0.60932-3.0127 1.0071-3.6644 6.6601-10.274 21.8-17.983 31.058-25.185 4.6291-3.5966 4.1806-11.577 1.0832-17.535-2.8519-5.4754-7.1425-4.8745-10.9-2.0057z" fill="none"/>
 </g>
 <rect x="80.805" y="292.2" width="347.01" height="96.429" fill="#c9ff01" style="font-feature-settings:normal;font-variant-caps:normal;font-variant-ligatures:normal;font-variant-numeric:normal"/>
 <g transform="translate(-137.85 -210.82)" fill="#00276f" style="font-feature-settings:normal;font-variant-caps:normal;font-variant-ligatures:normal;font-variant-numeric:normal" aria-label="LOUNGE">
  <path d="m537.9 576.36h-38.631v-50.176h37.489v8.9114h-26.822v11.238h25.022v8.9992h-25.022v12.028h27.963zm-70.852 0.79017q-5.4434 0-9.921-1.7559-4.4337-1.7998-7.6383-5.0922-3.1607-3.3363-4.9166-8.1212-1.712-4.8288-1.712-10.887 0-5.7946 1.5803-10.58 1.6242-4.7849 4.6971-8.209 3.1168-3.4241 7.5944-5.3117t10.228-1.8876q4.6532 0 8.5163 1.1852 3.907 1.1853 6.7604 3.4241 2.8534 2.1949 4.5654 5.3995 1.7559 3.1607 2.151 7.1554h-10.58q-0.43898-3.8192-3.4241-5.9263-2.9851-2.151-7.9017-2.151-3.029 0-5.4873 1.1414-2.4144 1.0975-4.1264 3.2485-1.712 2.151-2.6778 5.3117-0.92186 3.1607-0.92186 7.1993 0 4.0826 0.92186 7.2432 0.96577 3.1607 2.7217 5.3117 1.7998 2.151 4.302 3.2485 2.5022 1.0975 5.619 1.0975 7.77 0 11.765-4.6971v-5.6629h-10.711v-8.0773h21.247v26.602h-6.5848l-1.317-4.0387q-2.59 2.3705-6.2336 3.5997-3.5997 1.2292-8.5163 1.2292zm-32.573-0.79017h-10.799l-20.588-34.899v34.899h-10.053v-50.176h10.755l20.676 34.811v-34.811h10.009zm-72.301 0.79017q-4.5215 0-7.8139-0.79017-3.2924-0.79017-5.619-2.1949-2.2827-1.4486-3.7314-3.468-1.4486-2.0193-2.2388-4.4337-0.79018-2.4583-1.0975-5.2678-0.26339-2.8095-0.26339-5.8385v-28.973h10.667v28.973q0 3.468 0.48289 5.9263 0.52678 2.4144 1.712 3.9948 1.1852 1.5364 3.1168 2.2388 1.9315 0.70237 4.7849 0.70237 2.6778 0 4.5654-0.65847 1.9315-0.70238 3.1607-2.1949 1.2292-1.5364 1.7559-3.9948 0.57068-2.4583 0.57068-6.0141v-28.973h10.623v28.973q0 2.6339-0.21949 5.2678-0.2195 2.6339-0.92187 5.0922-0.70238 2.4583-2.1071 4.5654-1.3608 2.1071-3.6436 3.6875t-5.6629 2.5022q-3.3802 0.87797-8.1212 0.87797zm-53.073-51.844q5.5312 0 9.9649 1.8876 4.4337 1.8437 7.5505 5.2678t4.7849 8.209 1.6681 10.623q0 5.7507-1.6681 10.536-1.6242 4.741-4.741 8.1651-3.0729 3.3802-7.5505 5.2678-4.4337 1.8876-10.009 1.8876-5.619 0-10.097-1.8437-4.4776-1.8876-7.5944-5.2678-3.1168-3.4241-4.7849-8.1651-1.6242-4.7849-1.6242-10.58 0-5.8385 1.6681-10.623 1.6682-4.7849 4.7849-8.209 3.1607-3.4241 7.5944-5.2678 4.4776-1.8876 10.053-1.8876zm-0.0878 42.889q3.1607 0 5.5751-1.2731 2.4583-1.317 4.1264-3.5558 1.712-2.2827 2.5461-5.3556 0.87797-3.1168 0.87797-6.7165 0-3.5558-0.83407-6.6287-0.83407-3.1168-2.5022-5.3995-1.6242-2.2827-4.0387-3.5558-2.4144-1.317-5.5751-1.317-3.1607 0-5.6629 1.2731-2.4583 1.273-4.1264 3.5558-1.6681 2.2388-2.5461 5.3556-0.87797 3.0729-0.87797 6.7165 0 3.5997 0.87797 6.7165 0.87797 3.0729 2.5461 5.3556 1.6681 2.2388 4.0826 3.5558 2.4144 1.2731 5.5312 1.2731zm-29.544 8.1651h-33.056v-50.176h10.667v41.001h22.388z" fill="#00276f"/>
 </g>
</svg>
