<?xml version="1.0" encoding="UTF-8" standalone="no"?>
<svg xmlns:rdf="http://www.w3.org/1999/02/22-rdf-syntax-ns#" xmlns="http://www.w3.org/2000/svg" xmlns:cc="http://creativecommons.org/ns#" xmlns:dc="http://purl.org/dc/elements/1.1/" height="44.43mm" width="169.33mm" version="1.1" viewBox="0 0 599.99998 157.42736">
  <defs>
    <linearGradient id="a" gradientUnits="userSpaceOnUse" gradientTransform="matrix(0 32.218 -32.218 0 259.63 753.79)" x1="0" x2="1" y1="0" y2="0">
      <stop stop-color="#ffcb05" offset="0"/>
      <stop stop-color="#f7931e" offset=".84375"/>
      <stop stop-color="#f7931e" offset="1"/>
    </linearGradient>
    <linearGradient id="b" gradientUnits="userSpaceOnUse" gradientTransform="matrix(-.0000059598 -157.45 157.45 -.0000059598 270.13 904.06)" x1="0" x2="1" y1="0" y2="0">
      <stop stop-color="#c97916" offset="0"/>
      <stop stop-color="#f7931e" offset=".49479"/>
      <stop stop-color="#f7931e" offset="1"/>
    </linearGradient>
    <linearGradient id="c" gradientUnits="userSpaceOnUse" gradientTransform="matrix(0 32.218 -32.218 0 -14.432 753.79)" x1="0" x2="1" y1="0" y2="0">
      <stop stop-color="#58b6dd" offset="0"/>
      <stop stop-color="#0080c6" offset=".84375"/>
      <stop stop-color="#0080c6" offset="1"/>
    </linearGradient>
    <linearGradient id="d" gradientUnits="userSpaceOnUse" gradientTransform="matrix(-.0000059598 -157.45 157.45 -.0000059598 7.6625 904.06)" x1="0" x2="1" y1="0" y2="0">
      <stop stop-color="#005897" offset="0"/>
      <stop stop-color="#0080c6" offset=".49479"/>
      <stop stop-color="#0080c6" offset="1"/>
    </linearGradient>
  </defs>
  <g transform="translate(154.09 -746.62)">
    <path fill="url(#d)" d="m-139.04 746.62c-8.31 0-15.05 7.36-15.05 16.48v124.47c0 9.09 6.74 16.48 15.05 16.48h293.43c8.31 0 15.05-7.39 15.05-16.48v-124.47c0-9.12-6.74-16.48-15.05-16.48h-293.43z"/>
    <path fill="url(#c)" d="m-134.69 753.8c-6.44 0-11.65 7.22-11.65 16.1 0 8.91 5.21 16.12 11.65 16.12h240.54c6.43 0 11.62-7.21 11.62-16.12 0-7.93-5.19-16.1-11.62-16.1h-240.54z"/>
    <path fill="url(#b)" d="m109.42 746.62c-8.31 0-15.076 7.36-15.076 16.48v140.95h336.49c8.35 0 15.08-7.39 15.08-16.48v-140.95h-336.49z"/>
    <path fill="url(#a)" d="m96.966 753.8c-1.639 2.66-2.622 5.84-2.622 9.3v22.92h343.47v-32.22h-340.84z"/>
    <g fill="#fff">
      <path d="m-67.878 839.99c0 13.29-8.642 22.95-26.283 24.86-12.719 1.34-31.169-0.24-39.929-1.25-0.3-1.44-0.54-3.22-0.54-4.62 0-11.57 6.23-14.25 12.1-14.25 6.11 0 15.7 1.08 22.827 1.08 7.866 0 10.25-2.69 10.25-5.22 0-3.34-3.158-4.68-9.267-5.87l-16.72-3.22c-13.85-2.65-21.27-12.25-21.27-22.47 0-12.36 8.79-22.76 26.01-24.64 13.053-1.43 28.936 0.18 37.667 1.25 0.298 1.46 0.476 2.89 0.476 4.44 0 11.56-6.108 14.04-11.979 14.04-4.499 0-11.502-0.84-19.514-0.84-8.11 0-11.51 2.27-11.51 5.01 0 2.89 3.22 4.08 8.32 4.97l15.94 2.96c16.359 3.03 23.422 12.33 23.422 23.77m28.607 14.25c0 7.09-2.772 11.2-16.658 11.2-1.818 0-3.427-0.15-4.976-0.38v-94.26c0-7.18 2.443-14.66 16.419-14.66 1.788 0 3.576 0.21 5.215 0.54v97.56zm56.707 36.44c1.847 0.96 5.602 2.09 10.281 2.21 8.045 0.18 12.455-2.92 15.704-10.16l43.208-96.4c-1.758-0.96-5.722-2-8.94-2.06-5.572-0.12-13.052 0.98-17.79 12.4l-13.975 33.01-27.475-44.69c-1.758-0.57-6.109-1.32-9.2376-1.32-9.7144 0-15.108 3.55-20.74 9.66l-26.699 29.17 21.455 33.79c3.993 6.17 9.2077 9.33 17.671 9.33 5.5719 0 10.221-1.31 12.336-2.32l-25.835-38.95 18.326-19.46 30.037 47.2-18.326 38.59z"/>
      <path d="m130.14 825.03h21.55c5.12 0 8.55-0.92 10.22-2.74 1.7-1.85 2.53-5.51 2.53-11.05 0-5.64-0.71-9.27-2.17-10.91s-4.62-2.47-9.54-2.47h-22.59v27.17zm-15.01 39.28v-79.09h39c9.69 0 16.36 1.7 20.03 5.04 3.69 3.36 5.51 9.44 5.51 18.26 0 7.99-0.92 13.47-2.74 16.39-1.85 2.95-5.6 4.98-11.27 6.08v0.54c8.77 0.54 13.15 5.66 13.15 15.35v17.43h-15.02v-14.43c0-8.16-4-12.21-12.04-12.21h-21.61v26.64h-15.01z"/>
      <path d="m233.41 838.06-13.68-41.18-13.44 41.18h27.12zm3.48 11.06h-34.12l-4.94 15.2h-15.86l26.29-79.09h22.55l26.7 79.09h-15.58l-5.04-15.2z"/>
      <path d="m276.22 851.68h21.37c7.18 0 11.83-1.64 13.94-4.95 2.09-3.31 3.16-10.61 3.16-21.87 0-11.65-0.95-19.07-2.86-22.26-1.88-3.16-6.32-4.74-13.32-4.74h-22.29v53.82zm-15.02 12.63v-79.08h38.89c11.03 0 18.77 2.41 23.18 7.24 4.44 4.83 6.65 13.29 6.65 25.39 0 19.72-1.79 32.39-5.34 38.02-3.54 5.6-11.56 8.43-24.01 8.43h-39.37z"/>
      <path d="m351.39 864.3h-15.02v-79.09h15.02v79.09z"/>
      <path d="m393.01 797.39c-10.07 0-15.97 1.29-17.67 3.88-1.69 2.59-2.56 11.56-2.56 26.88 0 11.35 1.01 18.2 3.01 20.53 1.97 2.29 7.84 3.45 17.58 3.45 9.3 0 14.87-1.31 16.75-3.9 1.85-2.62 2.77-10.52 2.77-23.72 0-13.26-0.89-21.07-2.65-23.48-1.73-2.41-7.48-3.64-17.23-3.64m1.17-12.87c14.36 0 23.6 2.41 27.74 7.15 4.14 4.8 6.2 15.47 6.2 32.04 0 18.08-2.09 29.53-6.23 34.24-4.14 4.7-14.21 7.06-30.16 7.06-14.36 0-23.66-2.33-27.86-7.01-4.2-4.64-6.32-14.86-6.32-30.72 0-18.83 2.09-30.66 6.2-35.49 4.14-4.86 14.28-7.27 30.43-7.27"/>
    </g>
  </g>
</svg>
