<svg xmlns="http://www.w3.org/2000/svg" height="53.267" width="600" viewBox="0 0 158.75 14.094">
    <defs>
        <linearGradient id="a" gradientUnits="userSpaceOnUse" x2=".992" gradientTransform="matrix(0 1.9132 1.9132 0 122.71 97.97)" x1=".008" y1="0" y2="0">
            <stop stop-color="#1b2447" offset="0"/>
            <stop stop-color="#1c264b" offset=".004"/>
            <stop stop-color="#1c274e" offset=".008"/>
            <stop stop-color="#1d2951" offset=".012"/>
            <stop stop-color="#1d2a54" offset=".016"/>
            <stop stop-color="#1d2c57" offset=".02"/>
            <stop stop-color="#1e2e5a" offset=".023"/>
            <stop stop-color="#1e2f5c" offset=".027"/>
            <stop stop-color="#1e2f5e" offset=".031"/>
            <stop stop-color="#1e2f5e" offset=".063"/>
            <stop stop-color="#1e2f5e" offset=".125"/>
            <stop stop-color="#1e2f5e" offset=".25"/>
            <stop stop-color="#1e2f5e" offset=".5"/>
            <stop stop-color="#1e2f5e" offset=".75"/>
            <stop stop-color="#1e2f5e" offset=".875"/>
            <stop stop-color="#1e2f5e" offset=".906"/>
            <stop stop-color="#1e2e5c" offset=".91"/>
            <stop stop-color="#1e2e5b" offset=".914"/>
            <stop stop-color="#1e2d5a" offset=".918"/>
            <stop stop-color="#1e2d59" offset=".922"/>
            <stop stop-color="#1d2c57" offset=".926"/>
            <stop stop-color="#1d2c56" offset=".93"/>
            <stop stop-color="#1d2b55" offset=".934"/>
            <stop stop-color="#1d2b54" offset=".938"/>
            <stop stop-color="#1d2a53" offset=".941"/>
            <stop stop-color="#1d2952" offset=".945"/>
            <stop stop-color="#1c2851" offset=".949"/>
            <stop stop-color="#1c2850" offset=".953"/>
            <stop stop-color="#1c274f" offset=".957"/>
            <stop stop-color="#1c274e" offset=".961"/>
            <stop stop-color="#1c264d" offset=".965"/>
            <stop stop-color="#1c264c" offset=".969"/>
            <stop stop-color="#1b254b" offset=".973"/>
            <stop stop-color="#1b254a" offset=".977"/>
            <stop stop-color="#1b2448" offset=".98"/>
            <stop stop-color="#1b2447" offset=".984"/>
            <stop stop-color="#1b2346" offset=".988"/>
            <stop stop-color="#1b2346" offset=".992"/>
            <stop stop-color="#1a2245" offset=".996"/>
            <stop stop-color="#1a2243" offset="1"/>
        </linearGradient>
        <linearGradient id="b" gradientUnits="userSpaceOnUse" gradientTransform="matrix(0 -1.8816 1.8816 0 123.05 99.868)" x1="0" x2="1" y1="0" y2="0">
            <stop stop-color="#512024" offset="0"/>
            <stop stop-color="#562125" offset=".004"/>
            <stop stop-color="#5c2227" offset=".008"/>
            <stop stop-color="#612328" offset=".012"/>
            <stop stop-color="#672429" offset=".016"/>
            <stop stop-color="#6d2429" offset=".02"/>
            <stop stop-color="#73242a" offset=".023"/>
            <stop stop-color="#78242b" offset=".027"/>
            <stop stop-color="#7e252c" offset=".031"/>
            <stop stop-color="#85242c" offset=".035"/>
            <stop stop-color="#8b242c" offset=".039"/>
            <stop stop-color="#91232c" offset=".043"/>
            <stop stop-color="#97222c" offset=".047"/>
            <stop stop-color="#9d212c" offset=".051"/>
            <stop stop-color="#a4202b" offset=".055"/>
            <stop stop-color="#aa1f2b" offset=".059"/>
            <stop stop-color="#b11d2b" offset=".063"/>
            <stop stop-color="#b71b2a" offset=".066"/>
            <stop stop-color="#bd1829" offset=".07"/>
            <stop stop-color="#c01629" offset=".074"/>
            <stop stop-color="#c31429" offset=".078"/>
            <stop stop-color="#c31429" offset=".094"/>
            <stop stop-color="#c31429" offset=".125"/>
            <stop stop-color="#c31429" offset=".25"/>
            <stop stop-color="#c31429" offset=".5"/>
            <stop stop-color="#c31429" offset=".75"/>
            <stop stop-color="#c31429" offset=".875"/>
            <stop stop-color="#c31429" offset=".906"/>
            <stop stop-color="#c41529" offset=".91"/>
            <stop stop-color="#c41629" offset=".914"/>
            <stop stop-color="#c6172b" offset=".918"/>
            <stop stop-color="#c8172c" offset=".922"/>
            <stop stop-color="#ca192d" offset=".926"/>
            <stop stop-color="#cb1b2e" offset=".93"/>
            <stop stop-color="#cd1c30" offset=".934"/>
            <stop stop-color="#ce1d31" offset=".938"/>
            <stop stop-color="#d01f32" offset=".941"/>
            <stop stop-color="#d12033" offset=".945"/>
            <stop stop-color="#d32135" offset=".949"/>
            <stop stop-color="#d52236" offset=".953"/>
            <stop stop-color="#d72438" offset=".957"/>
            <stop stop-color="#d82639" offset=".961"/>
            <stop stop-color="#da273b" offset=".965"/>
            <stop stop-color="#dc283c" offset=".969"/>
            <stop stop-color="#dd293d" offset=".973"/>
            <stop stop-color="#de2a3e" offset=".977"/>
            <stop stop-color="#e12c40" offset=".98"/>
            <stop stop-color="#e32e41" offset=".984"/>
            <stop stop-color="#e52f43" offset=".988"/>
            <stop stop-color="#e63044" offset=".992"/>
            <stop stop-color="#e83246" offset=".996"/>
            <stop stop-color="#e93448" offset="1"/>
        </linearGradient>
    </defs>
    <path d="M111.73 99.868c-.147 0-.201-.088-.201-.233V98.22c0-.146.054-.234.201-.234h21.966c.149 0 .201.088.201.234v1.415c0 .145-.052.233-.201.233" fill="url(#a)" transform="translate(-785.598 -690.24) scale(7.0485)"/>
    <path d="M115.01 97.986v1.882H131.1v-1.882z" fill="url(#b)" transform="translate(-785.598 -690.24) scale(7.0485)"/>
    <g fill="#fff">
        <path d="M35.764 8.703c0-1.408-.913-2.088-2.37-2.408l-2.555-.583c-.457-.108-.845-.244-.845-.71 0-.505.398-.699 1.467-.699 1.263 0 1.554.07 2.7.07.534 0 1.078-.242 1.078-1.291 0-.126-.02-.272-.035-.398-.777-.07-2.156-.136-3.856-.136-2.564 0-3.545 1.107-3.545 2.525 0 1.321.835 2.06 2.321 2.409l2.555.593c.592.136.913.398.913.767 0 .505-.457.7-1.525.7-1.263 0-1.836-.088-2.982-.088-.535 0-1.078.243-1.078 1.282 0 .136.02.272.035.398.777.078 2.438.175 4.138.175 2.564 0 3.584-1.098 3.584-2.603M56.768 8.132h1.069l2.069 2.468c.388.475.757.718 1.631.718.602 0 .991-.077 1.321-.233l-2.68-3.108c1.505-.32 2.263-1.302 2.263-2.74 0-1.777-1.078-2.651-3.274-2.651l-3.127-.021c-1.02.035-1.35.388-1.35 1.32v7.285c.146.029.33.043.514.043 1.282 0 1.583-.37 1.583-1.04l-.02-2.04m.02-1.699V4.287h2.02c.865 0 1.545.127 1.545 1.03 0 .758-.514 1.117-1.544 1.117h-2.02M36.68 11.17c.146.029.33.036.515.036 1.282 0 1.583-.37 1.583-1.04V8.4h2.185c2.39 0 3.575-1.03 3.575-2.963 0-1.865-1.185-2.865-3.43-2.865H38.03c-1.03 0-1.35.408-1.35 1.32v7.276m2.098-4.507V4.29h2.098c1.04 0 1.564.389 1.564 1.146 0 .816-.525 1.224-1.564 1.224h-2.098M49.438 11.206c1.35 0 2.399-.321 3.127-.981.739-.641 1.108-1.807 1.108-3.458-.007-1.622-.379-2.75-1.146-3.42-.758-.66-1.788-.99-3.09-.99s-2.33.33-3.098.99c-.757.67-1.126 1.798-1.146 3.42 0 1.65.379 2.817 1.117 3.458.729.66 1.778.98 3.128.98m2.069-4.438c0 1-.165 1.69-.496 2.107-.32.428-.855.622-1.573.622-.739-.021-1.263-.223-1.603-.622-.33-.398-.496-1.097-.496-2.107 0-.991.175-1.68.515-2.079.33-.417.864-.612 1.583-.612s1.234.194 1.574.612c.33.398.495 1.088.495 2.079M67.975 4.347h1.68c.564 0 1.127-.252 1.127-1.35 0-.126-.007-.282-.035-.418h-6.556c-.554 0-1.127.262-1.127 1.36 0 .126.021.282.035.408h2.769v6.828c.155.029.34.036.524.036 1.282 0 1.583-.37 1.583-1.04V4.344M146.355 6.201V4.327c0-.506.203-.836 1.253-.836.126 0 .243.007.369.028v6.149c0 .505-.204.825-1.253.825-.126 0-.233-.007-.37-.028V7.678h-3.263v1.99c0 .506-.204.826-1.253.826-.126 0-.233-.007-.37-.028V4.327c0-.505.204-.835 1.263-.835.127 0 .234.007.36.028v2.681h3.264m9.295.787c0-2.088-1.505-3.506-3.992-3.506h-1.69c-.816 0-1.01.427-1.01.99v5.041c0 .535.194.972 1.01.972h1.69c2.487 0 3.992-1.409 3.992-3.497m-5.07 2v-4.01h1.175c1.622 0 2.224 1.058 2.224 2.01s-.601 2-2.224 2h-1.175M9.05 8.316c0 1.136-.738 1.962-2.254 2.127-1.087.116-2.67-.021-3.419-.107a1.844 1.844 0 0 1-.049-.399c0-.99.534-1.214 1.04-1.214.524 0 1.34.088 1.961.088.67 0 .875-.224.875-.447 0-.282-.272-.398-.797-.506L4.98 7.586c-1.194-.223-1.826-1.049-1.826-1.923 0-1.059.748-1.952 2.234-2.117 1.117-.117 2.477.02 3.225.107.021.126.042.252.042.388 0 .991-.524 1.205-1.03 1.205-.378 0-.98-.078-1.67-.078-.7 0-.98.194-.98.427 0 .253.271.35.708.427l1.37.253c1.398.262 2 1.058 2 2.04m2.458 1.214c0 .611-.243.961-1.428.961-.165 0-.3-.007-.427-.028V2.381c0-.612.204-1.253 1.408-1.253.146 0 .301.021.447.05V9.53m4.857 3.128c.155.078.476.175.884.185.69.02 1.059-.243 1.34-.865l3.7-8.256c-.145-.087-.485-.174-.766-.184-.476-.007-1.108.087-1.525 1.068l-1.195 2.827-2.35-3.827a3.265 3.265 0 0 0-.797-.117c-.826 0-1.292.301-1.778.826l-2.282 2.506 1.835 2.895c.34.524.787.796 1.516.796.475 0 .874-.107 1.058-.195l-2.214-3.34 1.564-1.672 2.583 4.041-1.573 3.312M101.385 11.213c-.02-.098-.035-.214-.056-.37a3.407 3.407 0 0 1-.028-.475c0-.214.028-.418.107-.622.07-.204.184-.418.35-.65l4.03-4.556h-3.545a.86.86 0 0 1-.583-.214c-.165-.146-.243-.408-.243-.806 0-.185.007-.35.028-.524.007-.165.028-.301.05-.399h7.197a3.687 3.687 0 0 1 .099.854c0 .185-.043.389-.108.603-.07.213-.194.437-.36.66l-4.079 4.565h4.517c.021.097.035.234.05.398.02.165.027.34.027.525 0 .388-.077.66-.233.806-.146.136-.35.204-.583.204h-6.634M113.72 11.34c1.34 0 2.37-.311 3.099-.962.728-.641 1.097-1.787 1.097-3.42-.007-1.611-.388-2.728-1.136-3.399-.748-.641-1.768-.98-3.06-.98s-2.312.339-3.06.98c-.757.67-1.126 1.788-1.136 3.4 0 1.632.37 2.778 1.098 3.419.728.65 1.758.961 3.098.961m2.05-4.38c0 .98-.165 1.66-.496 2.069-.32.427-.845.612-1.554.612-.728-.007-1.253-.214-1.583-.612-.33-.389-.496-1.078-.496-2.07 0-.98.175-1.67.506-2.068.33-.408.854-.602 1.573-.602.71 0 1.224.195 1.554.602.33.398.496 1.088.496 2.069M120.064 11.262c-.175 0-.35-.007-.515-.028a3.758 3.758 0 0 1-.427-.07V2.722c.136-.05.31-.088.515-.117.213-.028.398-.049.544-.049.485 0 .845.07 1.058.194.224.116.409.3.564.534l3.652 4.74V3.411c0-.116.02-.223.05-.33a.756.756 0 0 1 .154-.272.884.884 0 0 1 .311-.185c.136-.042.301-.07.505-.07.175 0 .35.007.515.028s.3.042.418.056v8.45c-.126.071-.272.108-.457.127a3.26 3.26 0 0 1-.514.042c-.418 0-.729-.056-.923-.175a1.48 1.48 0 0 1-.506-.476l-3.865-4.934v4.701a.906.906 0 0 1-.234.632c-.146.165-.427.252-.845.252M92.504 11.262a4.091 4.091 0 0 1-.932-.099v-8.44c.126-.05.3-.088.514-.117.214-.028.389-.049.544-.049.486 0 .836.07 1.06.194.213.116.407.3.553.534l3.652 4.74V3.411c0-.116.021-.223.05-.33a.742.742 0 0 1 .164-.272.753.753 0 0 1 .311-.185c.126-.042.301-.07.506-.07.174 0 .34.007.505.028.165.02.301.042.417.056v8.45c-.126.071-.272.108-.447.127-.174.028-.35.042-.524.042-.408 0-.719-.056-.923-.175a1.48 1.48 0 0 1-.505-.476l-3.866-4.934v4.701a.945.945 0 0 1-.223.632c-.155.165-.437.252-.855.252M87.288 7.484l-.835-2.623c-.097-.35-.301-.34-.69-.3l-.893 2.923h2.419m-5.731 3.652l2.739-8.324c2.38-.447 3.613-.056 3.943 1l2.302 7.198c-.554.437-2.068.31-2.224-.156l-.476-1.515h-3.516l-.398 1.312c-.252.611-.894.835-2.37.485M76.927 9.436v-1.69h3.098c.72 0 1.108-.233 1.108-1.156a2.8 2.8 0 0 0-.057-.554H76.93v-1.71h3.186c.719 0 1.117-.232 1.117-1.155 0-.214-.028-.36-.07-.554h-4.663c-1.33 0-1.661.719-1.661 1.418v7.159h.71c.718 0 1.34-.117 1.417-1.098.007-.213.007-.466-.028-.612l-.007-.05M130.848 9.472v-1.72h3.128c.718 0 1.117-.223 1.117-1.155 0-.214-.021-.36-.057-.554h-4.186v-1.71h3.215c.719 0 1.127-.223 1.127-1.155 0-.224-.029-.554-.07-.554h-4.72c-1.341 0-1.642.65-1.642 1.35v7.207h5.478c.728 0 1.127-.232 1.127-1.165 0-.214-.021-.36-.057-.545h-4.458"/>
        <path opacity=".4" d="M1.93.682C1.009.682.65 1.052.65 2.14v9.423c0 .568.028.945.113.965.028-.206.063-1.09 1.056-1.897.282-.224.807-.446 1.526-.66 1.878-.408 3.923-.818 5.646-1.063.231-.02.481-.067.68-.095.593-.068 1.204-.148 1.855-.226.385-.045.794-.087 1.125-.124.699-.083 1.404-.152 1.996-.214.856-.078 1.725-.161 2.452-.23 1.192-.112 2.4-.21 3.412-.295 2.936-.228 5.773-.43 8.575-.612 1.836-.117 3.712-.224 5.635-.331.69-.032 1.395-.071 1.985-.102.69-.037 1.389-.074 2.098-.11.911-.031 2.311-.112 3.198-.156l2.466-.106c.266-.02.537-.025.765-.037.718-.03 1.43-.059 2.149-.087 1.427-.064 2.881-.118 4.108-.168a222.05 222.05 0 0 0 2.164-.076c.376-.011.757-.028 1.078-.04.711-.017 1.474-.045 2.095-.066 1.197-.046 2.432-.078 3.51-.109.71-.028 1.419-.048 2.128-.069 1.197-.023 2.424-.057 3.457-.084.709-.02 1.41-.03 2.109-.05 2.37-.059 4.66-.097 6.866-.135.726-.01 1.466-.02 2.09-.03 2.306-.021 4.397-.038 6.477-.046.721-.012 1.408-.002 2.072 0 .352-.022.75 0 1.06 0 .69 0 1.397 0 2.116.007 1.02 0 2.05.014 2.918.022 1.491.008 3.014.033 4.287.05.7.023 1.431.026 2.032.034.664.03 1.374.031 1.953.04 1.75.031 3.52.082 5.012.117.91.023 1.835.055 2.615.08l2.134.058c.733.029 1.495.048 2.128.066l3.944.146 2.168.087 1.27.059c.694.017 1.414.062 2.011.09.12.018.282.014.397.019.891.033 1.823.088 2.597.128.455.033.933.055 1.326.076.681.035 1.373.074 1.956.106.436.028.872.048 1.308.076 2.181.132 4.413.285 6.305.43 2.2.147 4.408.354 6.45.543.552.048 1.092.107 1.614.164 1.128.113 2.283.254 3.264.371.565.075 1.144.148 1.632.211a116.535 116.535 0 0 1 2.593.408c.524.083 1.06.19 1.515.273.843.164 1.706.399 2.455.583 1.156.34 1.963.7 2.371 1.078.89.88 1.02 1.706 1.05 1.905.081-.01.123-.398.123-.972l-.007-9.423c0-1.088-.348-1.457-1.27-1.457-.386.046-.746.119-1.046.167H2.97C2.601.84 2.235.733 1.931.684z" stroke-width=".353"/>
    </g>
    <path d="M156.716 14.095c1.554 0 2.02-.961 2.02-1.932V1.925c0-.961-.466-1.923-2.02-1.923H2.008c-1.554 0-2.02.962-2.02 1.923v10.238c0 .97.467 1.932 2.02 1.932h154.708M2.072 13.97c-1.04 0-1.749-.621-1.749-1.65V1.768c0-1.03.71-1.641 1.749-1.641h154.573c1.04 0 1.749.612 1.749 1.641v10.55c0 1.029-.71 1.65-1.749 1.65H2.072" fill="#9ea1a1"/>
</svg>
