<svg xmlns="http://www.w3.org/2000/svg" height="82.846" width="600" viewBox="0 0 158.75 21.92">
    <defs>
        <linearGradient id="a" gradientUnits="userSpaceOnUse" gradientTransform="matrix(0 20.97 20.97 0 120.94 370.32)" x2=".992" x1=".008" y1="0" y2="0">
            <stop stop-color="#0f1c4d" offset="0"/>
            <stop stop-color="#101e51" offset=".004"/>
            <stop stop-color="#101f54" offset=".008"/>
            <stop stop-color="#112157" offset=".012"/>
            <stop stop-color="#12225a" offset=".016"/>
            <stop stop-color="#13245d" offset=".02"/>
            <stop stop-color="#132560" offset=".023"/>
            <stop stop-color="#142662" offset=".027"/>
            <stop stop-color="#142764" offset=".031"/>
            <stop stop-color="#142764" offset=".063"/>
            <stop stop-color="#142764" offset=".125"/>
            <stop stop-color="#142764" offset=".25"/>
            <stop stop-color="#142764" offset=".5"/>
            <stop stop-color="#142764" offset=".75"/>
            <stop stop-color="#142764" offset=".875"/>
            <stop stop-color="#142764" offset=".891"/>
            <stop stop-color="#142764" offset=".898"/>
            <stop stop-color="#142763" offset=".902"/>
            <stop stop-color="#142763" offset=".906"/>
            <stop stop-color="#132662" offset=".91"/>
            <stop stop-color="#132661" offset=".914"/>
            <stop stop-color="#132560" offset=".918"/>
            <stop stop-color="#13255f" offset=".922"/>
            <stop stop-color="#12245d" offset=".926"/>
            <stop stop-color="#12245c" offset=".93"/>
            <stop stop-color="#12235b" offset=".934"/>
            <stop stop-color="#12235a" offset=".938"/>
            <stop stop-color="#112259" offset=".941"/>
            <stop stop-color="#112258" offset=".945"/>
            <stop stop-color="#112157" offset=".949"/>
            <stop stop-color="#112056" offset=".953"/>
            <stop stop-color="#102055" offset=".957"/>
            <stop stop-color="#102054" offset=".961"/>
            <stop stop-color="#101f53" offset=".965"/>
            <stop stop-color="#101e52" offset=".969"/>
            <stop stop-color="#0f1d50" offset=".973"/>
            <stop stop-color="#0f1d4f" offset=".977"/>
            <stop stop-color="#0f1c4e" offset=".98"/>
            <stop stop-color="#0f1c4d" offset=".984"/>
            <stop stop-color="#0e1b4c" offset=".988"/>
            <stop stop-color="#0e1b4b" offset=".992"/>
            <stop stop-color="#0e1a4a" offset=".996"/>
            <stop stop-color="#0e1949" offset="1"/>
        </linearGradient>
        <linearGradient id="b" gradientUnits="userSpaceOnUse" gradientTransform="rotate(-90 254.31 136.81) scale(20.624)" x1="0" x2="1" y1="0" y2="0">
            <stop stop-color="#552227" offset="0"/>
            <stop stop-color="#5a2227" offset=".004"/>
            <stop stop-color="#602228" offset=".008"/>
            <stop stop-color="#662329" offset=".012"/>
            <stop stop-color="#6c232a" offset=".016"/>
            <stop stop-color="#71232a" offset=".02"/>
            <stop stop-color="#77232a" offset=".023"/>
            <stop stop-color="#7d232a" offset=".027"/>
            <stop stop-color="#84222b" offset=".031"/>
            <stop stop-color="#8a212b" offset=".035"/>
            <stop stop-color="#90202b" offset=".039"/>
            <stop stop-color="#961f2b" offset=".043"/>
            <stop stop-color="#9d1d2b" offset=".047"/>
            <stop stop-color="#a31a2a" offset=".051"/>
            <stop stop-color="#a9172a" offset=".055"/>
            <stop stop-color="#b01329" offset=".059"/>
            <stop stop-color="#b70f29" offset=".063"/>
            <stop stop-color="#bd0829" offset=".066"/>
            <stop stop-color="#c40228" offset=".07"/>
            <stop stop-color="#c70028" offset=".074"/>
            <stop stop-color="#ca0027" offset=".078"/>
            <stop stop-color="#ca0027" offset=".094"/>
            <stop stop-color="#ca0027" offset=".125"/>
            <stop stop-color="#ca0027" offset=".25"/>
            <stop stop-color="#ca0027" offset=".5"/>
            <stop stop-color="#ca0027" offset=".75"/>
            <stop stop-color="#ca0027" offset=".875"/>
            <stop stop-color="#ca0027" offset=".906"/>
            <stop stop-color="#ca0027" offset=".914"/>
            <stop stop-color="#cb0028" offset=".918"/>
            <stop stop-color="#cc0029" offset=".922"/>
            <stop stop-color="#ce002a" offset=".926"/>
            <stop stop-color="#cf012a" offset=".93"/>
            <stop stop-color="#d1052b" offset=".934"/>
            <stop stop-color="#d2092c" offset=".938"/>
            <stop stop-color="#d40b2d" offset=".941"/>
            <stop stop-color="#d50d2e" offset=".945"/>
            <stop stop-color="#d60f2f" offset=".949"/>
            <stop stop-color="#d71130" offset=".953"/>
            <stop stop-color="#d91431" offset=".957"/>
            <stop stop-color="#da1732" offset=".961"/>
            <stop stop-color="#dc1933" offset=".965"/>
            <stop stop-color="#dd1a34" offset=".969"/>
            <stop stop-color="#df1c35" offset=".973"/>
            <stop stop-color="#e01d35" offset=".977"/>
            <stop stop-color="#e12036" offset=".98"/>
            <stop stop-color="#e22237" offset=".984"/>
            <stop stop-color="#e42439" offset=".988"/>
            <stop stop-color="#e6253a" offset=".992"/>
            <stop stop-color="#e7273a" offset=".996"/>
            <stop stop-color="#e8283b" offset="1"/>
        </linearGradient>
    </defs>
    <path fill="url(#a)" d="M197.26 391.12H44.64c-1.631 0-2.205-.957-2.205-2.558v-15.506c0-1.59.573-2.557 2.205-2.557h152.62c1.621 0 2.205.967 2.205 2.557v15.506c0 1.601-.584 2.558-2.205 2.558" transform="translate(-41.634 -369.85)"/>
    <path d="M121.136 11.72h2.623V7.904zm3.951 5.527c-.246 0-.484-.019-.739-.052a9.604 9.604 0 0 1-.59-.092v-2.631h-5.85c-.026-.147-.052-.337-.087-.571a5.066 5.066 0 0 1-.053-.754c0-.334.053-.662.167-.984.123-.322.3-.658.554-1.005l4.858-7.071h3.485v7.633h1.892c.036.148.053.338.097.574.035.234.044.479.044.732 0 .562-.106.947-.343 1.156-.22.206-.51.311-.863.311h-.827v1.747c0 .349-.114.603-.36.765-.23.16-.705.242-1.382.242" stroke-width="2.267" fill="#fff"/>
    <path fill="url(#b)" d="M80.546 370.5c-.008 6.762.008 14.193.005 20.62h73.901c.002-6.995.005-14.511.005-20.62z" transform="translate(-41.634 -369.85)"/>
    <g fill="#fff">
        <path d="M140.036 9.64V6.72c0-.785.312-1.289 1.943-1.289.201 0 .373.021.564.051v9.556c0 .785-.312 1.278-1.943 1.278-.2 0-.373-.008-.564-.043v-4.34h-5.085v3.101c0 .785-.312 1.279-1.943 1.279-.201 0-.363-.008-.574-.044V6.714c0-.786.322-1.29 1.953-1.29.2 0 .362.022.564.052v4.158h5.085m14.439 1.229c0-3.253-2.336-5.448-6.203-5.448h-2.628c-1.268 0-1.57.665-1.57 1.531v7.844c0 .835.301 1.51 1.57 1.51h2.628c3.867 0 6.203-2.195 6.203-5.437m-7.874 3.111V7.741h1.822c2.528 0 3.464 1.641 3.464 3.122 0 1.47-.936 3.11-3.464 3.11h-1.822M55.328 13.37c0-2.145-1.39-3.182-3.615-3.675l-3.886-.876c-.705-.162-1.29-.383-1.29-1.088 0-.765.605-1.057 2.236-1.057 1.923 0 2.376.1 4.118.1.806 0 1.631-.372 1.631-1.963 0-.191-.02-.412-.058-.604a72.223 72.223 0 0 0-5.87-.221c-3.897 0-5.387 1.692-5.387 3.846 0 2.024 1.269 3.142 3.524 3.675l3.887.897c.906.21 1.4.614 1.4 1.178 0 .765-.696 1.057-2.317 1.057-1.923 0-2.809-.13-4.56-.13-.796 0-1.622.372-1.622 1.963 0 .191.02.402.051.604 1.188.12 3.716.252 6.303.252 3.907 0 5.458-1.661 5.458-3.957M87.366 12.51h1.631l3.142 3.746c.584.724 1.158 1.097 2.487 1.097.906 0 1.51-.11 2.003-.352l-4.087-4.722c2.295-.494 3.453-1.984 3.453-4.189 0-2.698-1.651-4.038-4.984-4.038l-4.763-.02c-1.55.058-2.064.594-2.064 2.003v11.106c.242.037.514.059.786.059 1.963 0 2.416-.574 2.416-1.591l-.02-3.101m.02-2.588V6.638h3.081c1.31 0 2.357.201 2.357 1.57 0 1.158-.786 1.712-2.357 1.712h-3.08M56.738 17.14c.232.036.514.051.785.051 1.964 0 2.417-.564 2.417-1.58v-2.69h3.333c3.635 0 5.437-1.57 5.437-4.51 0-2.85-1.802-4.36-5.226-4.36h-4.682c-1.57 0-2.064.604-2.064 2.004V17.14m3.202-6.867V6.659h3.192c1.59 0 2.376.584 2.376 1.752 0 1.228-.785 1.863-2.376 1.863H59.94M76.156 17.18c2.064 0 3.655-.493 4.773-1.49 1.117-.987 1.691-2.749 1.691-5.266-.02-2.467-.594-4.199-1.752-5.216-1.158-1.007-2.728-1.51-4.712-1.51s-3.544.503-4.702 1.51c-1.158 1.017-1.732 2.749-1.752 5.216 0 2.517.574 4.279 1.692 5.266 1.117.997 2.708 1.49 4.762 1.49m3.162-6.756c0 1.51-.252 2.567-.765 3.202-.483.644-1.3.936-2.397.936-1.118-.02-1.913-.332-2.426-.936-.514-.615-.766-1.672-.766-3.202 0-1.51.272-2.568.786-3.182.503-.624 1.309-.916 2.406-.916 1.098 0 1.883.292 2.397.916.513.614.765 1.671.765 3.182M104.436 6.74h2.568c.845 0 1.711-.392 1.711-2.064 0-.192-.02-.433-.058-.624h-9.988c-.836 0-1.702.392-1.702 2.064 0 .191.02.423.058.624h4.209v10.4c.242.037.514.06.795.06 1.954 0 2.407-.575 2.407-1.592v-8.87M14.066 12.93c0 1.772-1.158 3.06-3.504 3.313-1.691.18-4.158-.03-5.316-.171a2.446 2.446 0 0 1-.08-.605c0-1.55.835-1.903 1.61-1.903.816 0 2.095.141 3.051.141 1.047 0 1.36-.352 1.36-.695 0-.442-.423-.624-1.229-.775l-2.225-.433c-1.853-.352-2.84-1.631-2.84-2.99 0-1.652 1.169-3.041 3.474-3.293 1.732-.192 3.847.02 5.005.17.051.192.073.384.073.595 0 1.54-.816 1.873-1.601 1.873-.594 0-1.53-.111-2.598-.111-1.078 0-1.53.292-1.53.664 0 .383.433.544 1.107.665l2.124.392c2.185.403 3.122 1.641 3.122 3.162m3.816 1.903c0 .946-.373 1.49-2.225 1.49-.242 0-.453-.02-.665-.05V3.714c0-.956.322-1.953 2.195-1.953.231 0 .473.02.695.073v12.999m7.551 4.853c.242.131.745.282 1.37.292 1.067.03 1.661-.382 2.094-1.349l5.76-12.848c-.242-.13-.765-.272-1.198-.282-.735-.008-1.732.141-2.367 1.662l-1.862 4.4L25.568 5.6a5.154 5.154 0 0 0-1.229-.171c-1.299 0-2.014.473-2.759 1.289l-3.564 3.886 2.86 4.501c.533.826 1.228 1.239 2.356 1.239.745 0 1.359-.171 1.64-.302l-3.443-5.196 2.447-2.587 3.997 6.283-2.436 5.145"/>
        <path opacity=".4" d="M2.958 1.07c-1.44 0-1.994.574-1.994 2.266v14.639c0 .906.052 1.521.182 1.521.05-.282.088-1.69 1.638-2.979.564-.433 1.362-.847 2.38-1.25 3.194-1.098 6.244-1.826 8.903-2.33.315-.043.651-.116.925-.165.975-.177 1.999-.34 2.888-.488.377-.044.775-.12 1.1-.17 1.053-.153 2.115-.298 3.009-.422 1.319-.172 2.648-.335 3.764-.472 1.063-.13 2.144-.239 3.051-.336h.005v.005c.242-.03.495-.059.737-.08 1.038-.12 2.11-.22 3.002-.31 2.205-.186 4.483-.388 6.37-.536 1.649-.13 3.317-.252 4.723-.355 2.09-.129 4.245-.264 6.038-.37a677.07 677.07 0 0 1 7.06-.354c1.11-.048 2.252-.091 3.202-.129l5.57-.2c1.067-.032 2.124-.062 3.202-.09.384.004.813-.017 1.155-.024 1.152-.03 2.34-.053 3.334-.072 1.953-.04 3.918-.07 5.872-.09 1.117-.009 2.235-.02 3.352-.027.578-.008 1.175-.005 1.76-.005h3.202l5.437.03c1.057.02 2.125.03 3.172.052 1.762.021 3.506.058 5.248.099 1.074.032 2.137.061 3.19.09 2.85.091 5.648.213 8.387.344 3.313.161 6.517.354 9.598.585 1.098.086 2.248.182 3.202.26 2.366.202 4.65.425 6.816.677 3.705.413 7.108.907 10.119 1.46.52.095 1.067.209 1.521.3.87.169 1.769.377 2.522.543 1.203.297 2.466.663 3.527.967.978.304 1.963.718 2.81 1.05 1.278.563 2.276 1.168 2.97 1.812 1.4 1.39 1.592 2.697 1.643 2.98.13 0 .182-.616.182-1.523V3.334c0-1.691-.554-2.265-1.994-2.265-.484 0-.968.26-1.612.26H4.566c-.559-.03-1.114-.19-1.613-.27z" stroke-width="2.578"/>
    </g>
    <path d="M155.596 21.92c2.406 0 3.152-1.5 3.152-3V3c0-1.5-.745-3-3.152-3H3.136C.73 0-.006 1.5-.006 3v15.92c0 1.5.736 3 3.142 3h152.46m-152.34-.2c-1.621 0-2.719-.957-2.719-2.558V2.76c0-1.6 1.098-2.557 2.719-2.557h152.24c1.621 0 2.719.956 2.719 2.557v16.4c0 1.601-1.098 2.558-2.719 2.558H3.256" fill="#a1a19c"/>
</svg>
