<?xml version="1.0" encoding="UTF-8" standalone="no"?>
<svg xmlns:rdf="http://www.w3.org/1999/02/22-rdf-syntax-ns#" xmlns="http://www.w3.org/2000/svg" xmlns:cc="http://creativecommons.org/ns#" xmlns:xlink="http://www.w3.org/1999/xlink" xmlns:dc="http://purl.org/dc/elements/1.1/" height="94.068" width="600" version="1.1" viewBox="0 0 158.75 24.888866">
  <defs>
    <linearGradient id="b" gradientUnits="userSpaceOnUse" gradientTransform="matrix(0 89.983 -89.983 0 365.02 2.0311)" x1="0" x2="1" y1="0" y2="0">
      <stop stop-color="#141c4b" offset="0"/>
      <stop stop-color="#1a2b68" offset=".036344"/>
      <stop stop-color="#1a2b68" offset=".89549"/>
      <stop stop-color="#141c4b" offset="1"/>
    </linearGradient>
    <linearGradient id="a" gradientUnits="userSpaceOnUse" gradientTransform="matrix(0 -23.415 -23.415 0 101.04 24.141)" x1="0" x2="1" y1="0" y2="0">
      <stop stop-color="#5a252a" offset="0"/>
      <stop stop-color="#cb082a" offset=".073882"/>
      <stop stop-color="#cb082a" offset=".91555"/>
      <stop stop-color="#e73440" offset="1"/>
    </linearGradient>
  </defs>
  <path stroke-width="9.812" fill="url(#b)" d="m3.3773 0.73475c-1.8173 0.01817-2.4659 1.1034-2.4659 2.9024v17.61c-0.00002 1.814 0.6485 2.905 2.4917 2.905h149.29v-23.417z"/>
  <path d="m3.5773 0c-2.7414 0-3.5774 1.7059-3.5774 3.4089v18.073c-0.00002967 1.704 0.83597 3.407 3.5774 3.407h151.6c2.74 0 3.57-1.703 3.57-3.407v-18.073c0-1.7031-0.83-3.409-3.57-3.409h-151.6zm0.1271 0.22835h151.35c1.84 0 3.09 1.0904 3.09 2.9024v18.627c0 1.812-1.25 2.903-3.09 2.903h-151.35c-1.8414 0-3.0899-1.091-3.0899-2.903v-18.627c-0.00004-1.8122 1.2485-2.9026 3.0943-2.9026z" stroke-width="9.812" fill="#a1a19e"/>
  <path d="m44.188 0.73475v23.417h111.19c1.84 0 2.49-1.091 2.49-2.905v-17.61c0-1.7989-0.65-2.8841-2.47-2.9022-37.07-0.00005-74.14-0.00005-111.21-0.00005z" stroke-width="2.5961" fill="url(#a)"/>
  <g fill="#fff">
    <g stroke-width="2.5961">
      <path d="m15.994 14.686c0 2.004-1.311 3.468-3.972 3.759-1.929 0.205-4.7193-0.036-6.0459-0.189-0.0493-0.218-0.0883-0.486-0.0883-0.699 0-1.755 0.9502-2.154 1.838-2.154 0.9217 0 2.3752 0.161 3.4552 0.161 1.189 0 1.55-0.405 1.55-0.787 0-0.504-0.48-0.714-1.402-0.89l-2.5232-0.486c-2.1028-0.402-3.2243-1.856-3.2243-3.398 0-1.8746 1.3266-3.4453 3.9382-3.7334 1.9733-0.2155 4.3743 0.0259 5.6933 0.1895 0.049 0.2258 0.073 0.4387 0.073 0.675 0 1.7471-0.922 2.1262-1.81 2.1262-0.683 0-1.742-0.1298-2.952-0.1298-1.2301 0-1.7415 0.3426-1.7415 0.758 0 0.4365 0.4854 0.6175 1.2565 0.7505l2.414 0.449c2.48 0.457 3.541 1.867 3.541 3.598m4.331 2.152c0 1.075-0.421 1.696-2.521 1.696-0.278 0-0.519-0.021-0.753-0.055v-14.263c0-1.0825 0.369-2.2144 2.487-2.2144 0.267 0 0.537 0.0285 0.787 0.0805zm8.58 5.517c0.275 0.143 0.841 0.311 1.552 0.332 1.218 0.026 1.882-0.441 2.376-1.531l6.539-14.588c-0.27-0.1453-0.867-0.3062-1.358-0.3192-0.838-0.013-1.967 0.1584-2.689 1.8796l-2.116 4.9976-4.154-6.7656c-0.267-0.0804-0.921-0.1999-1.402-0.1999-1.464 0-2.284 0.54-3.136 1.4642l-4.037 4.4163 3.248 5.111c0.6 0.93 1.392 1.405 2.677 1.405 0.838 0 1.539-0.19 1.861-0.345l-3.91-5.896 2.773-2.9363 4.546 7.1343z"/>
      <path d="m62.828 15.179c0-2.427-1.581-3.608-4.099-4.166l-4.411-1.002c-0.802-0.177-1.472-0.4236-1.472-1.2258 0-0.8697 0.693-1.202 2.542-1.202 2.183 0 2.694 0.1116 4.678 0.1116 0.914 0 1.848-0.4231 1.848-2.2274 0-0.2233-0.021-0.4699-0.065-0.6932-1.337-0.109-3.723-0.244-6.661-0.244-4.434 0-6.127 1.9159-6.127 4.3666 0 2.2952 1.448 3.5642 4.008 4.1672l4.411 1.025c1.025 0.244 1.584 0.691 1.584 1.334 0 0.87-0.779 1.205-2.63 1.205-2.181 0-3.186-0.156-5.169-0.156-0.911 0-1.848 0.423-1.848 2.228 0 0.223 0.023 0.467 0.067 0.69 1.337 0.133 4.211 0.288 7.15 0.288 4.434 0 6.194-1.892 6.194-4.499"/>
      <path d="m99.199 14.198h1.851l3.57 4.255c0.66 0.823 1.31 1.249 2.83 1.249 1.02 0 1.71-0.135 2.27-0.403l-4.64-5.368c2.61-0.556 3.92-2.251 3.92-4.746 0-3.0738-1.87-4.5873-5.66-4.5873l-5.41-0.0234c-1.758 0.0675-2.339 0.6672-2.339 2.2716v12.609c0.267 0.044 0.581 0.068 0.89 0.068 2.228 0 2.742-0.647 2.742-1.805zm0.024-2.941v-3.7179h3.497c1.49 0 2.67 0.2206 2.67 1.7809 0 1.314-0.89 1.937-2.67 1.937z"/>
      <path d="m64.438 19.458c0.267 0.044 0.578 0.065 0.89 0.065 2.23 0 2.741-0.644 2.741-1.802v-3.053h3.786c4.122 0 6.17-1.781 6.17-5.1248 0-3.2295-2.048-4.9455-5.924-4.9455h-5.324c-1.784 0-2.339 0.6905-2.339 2.2742zm3.631-7.796v-4.0996h3.63c1.807 0 2.697 0.6672 2.697 1.9808 0 1.4048-0.89 2.1188-2.697 2.1188z"/>
      <path d="m86.478 19.502c2.339 0 4.144-0.556 5.416-1.693 1.267-1.114 1.916-3.12 1.916-5.971-0.026-2.8062-0.67-4.7662-1.984-5.9267-1.316-1.1345-3.097-1.7134-5.348-1.7134-2.25 0-4.031 0.5789-5.345 1.7134-1.316 1.1605-1.963 3.1205-1.983 5.9267 0 2.851 0.646 4.857 1.916 5.971 1.266 1.137 3.073 1.693 5.412 1.693m3.588-7.664c0 1.716-0.291 2.918-0.87 3.632-0.555 0.735-1.472 1.07-2.718 1.07-1.269-0.024-2.18-0.379-2.762-1.07-0.579-0.69-0.867-1.892-0.867-3.632 0-1.716 0.312-2.9178 0.89-3.6084 0.579-0.7139 1.493-1.0462 2.739-1.0462s2.14 0.3323 2.718 1.0462c0.579 0.6906 0.87 1.8924 0.87 3.6084"/>
      <path d="m118.59 7.6507h2.92c0.96 0 1.94-0.4465 1.94-2.3391 0-0.2233-0.02-0.4907-0.07-0.7139h-11.34c-0.96 0-1.93 0.4465-1.93 2.3391 0 0.2232 0.02 0.4906 0.06 0.7139h4.79v11.807c0.27 0.044 0.58 0.065 0.89 0.065 2.23 0 2.74-0.644 2.74-1.802z"/>
      <path d="m129.73 19.528c-0.06-0.185-0.11-0.4-0.15-0.654-0.04-0.252-0.06-0.507-0.06-0.766 0-0.185 0.02-0.39 0.06-0.621 0.04-0.228 0.1-0.464 0.2-0.708 0.09-0.247 0.22-0.491 0.39-0.735 0.16-0.244 0.38-0.473 0.64-0.688l2.85-2.479c0.51-0.413 0.94-0.774 1.28-1.08 0.35-0.307 0.63-0.595 0.85-0.865 0.22-0.267 0.38-0.529 0.47-0.781 0.1-0.2547 0.14-0.5247 0.14-0.818 0-0.3972-0.14-0.7659-0.41-1.1034-0.28-0.3375-0.74-0.5062-1.38-0.5062-0.4 0-0.76 0.0493-1.07 0.148-0.32 0.1012-0.6 0.2076-0.87 0.3245-0.26 0.1142-0.5 0.218-0.73 0.3089-0.23 0.0935-0.47 0.1376-0.72 0.1376-0.23 0-0.45-0.0597-0.66-0.1843-0.22-0.122-0.4-0.2986-0.56-0.527-0.15-0.2311-0.26-0.5115-0.34-0.8412s-0.1-0.7009-0.07-1.1163c0.63-0.4595 1.37-0.8515 2.21-1.1734s1.84-0.4829 2.99-0.4829c0.83 0 1.58 0.1142 2.24 0.3453 0.67 0.231 1.24 0.5555 1.7 0.9787 0.46 0.4206 0.81 0.932 1.07 1.5291 0.25 0.5997 0.38 1.2591 0.38 1.9782 0 1.0904-0.28 2.0404-0.83 2.8554-0.56 0.813-1.33 1.54-2.33 2.186l-2.64 1.978h5.84c0.03 0.169 0.07 0.392 0.12 0.668 0.04 0.275 0.07 0.568 0.07 0.875 0 0.69-0.15 1.165-0.44 1.425-0.29 0.262-0.64 0.392-1.03 0.392z"/>
      <path d="m145.1 13.315h3.01v-4.3715zm4.53 6.33c-0.27 0-0.56-0.021-0.85-0.06-0.29-0.036-0.51-0.073-0.67-0.104v-3.014h-6.7c-0.03-0.169-0.07-0.387-0.11-0.654-0.04-0.27-0.05-0.556-0.05-0.865 0-0.381 0.06-0.758 0.19-1.126 0.13-0.369 0.34-0.753 0.63-1.15l5.56-8.1003h4v8.7433h2.17c0.03 0.169 0.06 0.387 0.1 0.657 0.04 0.268 0.06 0.548 0.06 0.839 0 0.644-0.13 1.085-0.39 1.324-0.27 0.236-0.6 0.355-0.99 0.355h-0.95v2.002c0 0.4-0.14 0.691-0.41 0.875-0.28 0.184-0.81 0.278-1.59 0.278"/>
    </g>
    <path opacity=".4" d="m155.86 18.757c1.29 1.573 1.47 3.055 1.52 3.38 0.13 0 0.17-0.693 0.17-1.729v-16.623c0-1.9262-0.51-2.5752-1.85-2.5752-0.45 0-0.9 0.2959-1.51 0.2959h-149.72c-0.6058 0-1.0587-0.2959-1.5095-0.2959-1.3354 0-1.8478 0.649-1.8478 2.5753l-0.0043 16.623c0 1.036 0.0468 1.729 0.1744 1.729 0.0468-0.325 0.085-1.924 1.5225-3.38 11.479-10.816 140.67-14.133 153.05 0" stroke-width="2.3495"/>
  </g>
</svg>
