<?xml version="1.0" encoding="UTF-8" standalone="no"?>
<svg xmlns:rdf="http://www.w3.org/1999/02/22-rdf-syntax-ns#" xmlns="http://www.w3.org/2000/svg" xmlns:cc="http://creativecommons.org/ns#" xmlns:dc="http://purl.org/dc/elements/1.1/" height="84.518" width="600" version="1.1" viewBox="0 0 158.75 22.362">
  <defs>
    <linearGradient id="b" gradientUnits="userSpaceOnUse" gradientTransform="matrix(0 21.376 -19.538 0 111.09 313.39)" x1="0" x2="1" y1="0" y2="0">
      <stop stop-color="#141c4b" offset="0"/>
      <stop stop-color="#1a2b68" offset=".036344"/>
      <stop stop-color="#1a2b68" offset=".89549"/>
      <stop stop-color="#141c4b" offset="1"/>
    </linearGradient>
    <linearGradient id="a" gradientUnits="userSpaceOnUse" gradientTransform="matrix(0 -21.023 -15.524 0 109.16 334.58)" x1="0" x2="1" y1="0" y2="0">
      <stop stop-color="#5a252a" offset="0"/>
      <stop stop-color="#cb082a" offset=".073882"/>
      <stop stop-color="#cb082a" offset=".91555"/>
      <stop stop-color="#e73440" offset="1"/>
    </linearGradient>
  </defs>
  <g transform="translate(-31.75 -312.88)">
    <path d="m34.605 313.57c-1.491 0.02-2.024 0.99-2.024 2.61v15.81c0 1.62 0.533 2.6 2.045 2.6h152.9c1.51 0 2.03-0.98 2.03-2.6v-15.81c0-1.62-0.52-2.59-2.01-2.61z" stroke-width="2.2285" fill="url(#b)"/>
    <path stroke-width="2.5892" d="m71.471 334.59h75.369z"/>
    <path d="m187.28 335.24c2.46 0 3.22-1.54 3.22-3.07v-16.24c0-1.53-0.76-3.05-3.22-3.05h-152.31c-2.461 0-3.22 1.52-3.22 3.05v16.24c0 1.53 0.759 3.07 3.217 3.07h152.31m-152.2-0.22c-1.659 0-2.781-0.98-2.781-2.6v-16.73c0-1.63 1.122-2.61 2.781-2.61h152.09c1.66 0 2.78 0.98 2.78 2.61v16.73c0 1.62-1.12 2.6-2.78 2.6h-152.09" fill="#94979c"/>
    <path d="m71.471 334.59h75.369v-21.02h-75.369z" stroke-width="2.003" fill="url(#a)"/>
    <g fill="#fff">
      <g>
        <path d="m170.96 322.7v-2.97c0-0.81 0.32-1.31 1.98-1.31l0.59 0.04v9.75c0 0.8-0.32 1.31-1.98 1.31l-0.59-0.05v-4.43h-5.18v3.17c0 0.8-0.32 1.31-1.98 1.31l-0.59-0.05v-9.74c0-0.81 0.33-1.31 2-1.31l0.57 0.04v4.24h5.18m14.74 1.25c0-3.31-2.38-5.55-6.33-5.55h-2.69c-1.28 0-1.59 0.67-1.59 1.56v8c0 0.85 0.31 1.55 1.59 1.55h2.69c3.95 0 6.33-2.24 6.33-5.56m-8.03 3.19v-6.37h1.85c2.59 0 3.54 1.67 3.54 3.18s-0.95 3.19-3.54 3.19h-1.85"/>
        <path d="m46.112 326.06c0 1.8-1.183 3.13-3.57 3.38-1.739 0.19-4.248-0.03-5.441-0.17l-0.071-0.63c0-1.56 0.85-1.93 1.649-1.93 0.829 0 2.134 0.14 3.105 0.14 1.072 0 1.395-0.36 1.395-0.71 0-0.44-0.435-0.63-1.264-0.78l-2.266-0.45c-1.891-0.36-2.902-1.67-2.902-3.05 0-1.68 1.193-3.1 3.54-3.36 1.78-0.19 3.934 0.03 5.117 0.18l0.071 0.6c0 1.57-0.829 1.91-1.628 1.91-0.617 0-1.568-0.11-2.65-0.11-1.113 0-1.568 0.3-1.568 0.68 0 0.39 0.435 0.55 1.133 0.67l2.164 0.41c2.226 0.4 3.186 1.67 3.186 3.22m3.884 1.95c0 0.96-0.374 1.51-2.265 1.51-0.243 0-0.466-0.02-0.668-0.05v-12.81c0-0.97 0.324-1.98 2.225-1.98 0.243 0 0.486 0.02 0.708 0.07v13.26m7.717 4.95c0.243 0.12 0.749 0.28 1.386 0.29 1.102 0.03 1.699-0.39 2.134-1.37l5.876-13.11c-0.243-0.13-0.779-0.27-1.214-0.28-0.758-0.01-1.769 0.14-2.417 1.69l-1.901 4.49-3.732-6.08c-0.243-0.08-0.83-0.18-1.265-0.18-1.314 0-2.053 0.48-2.811 1.31l-3.631 3.97 2.923 4.59c0.536 0.84 1.244 1.26 2.397 1.26 0.758 0 1.385-0.17 1.679-0.3l-3.52-5.3 2.498-2.64 4.086 6.41-2.488 5.25"/>
        <path d="m88.197 326.51c0-2.19-1.416-3.25-3.682-3.74l-3.964-0.9c-0.718-0.17-1.315-0.38-1.315-1.11 0-0.78 0.617-1.08 2.275-1.08 1.973 0 2.428 0.1 4.208 0.1 0.819 0 1.659-0.37 1.659-2l-0.061-0.62c-1.193-0.1-3.338-0.22-5.977-0.22-3.985 0-5.502 1.72-5.502 3.93 0 2.06 1.294 3.2 3.6 3.74l3.965 0.92c0.92 0.22 1.416 0.61 1.416 1.2 0 0.78-0.698 1.08-2.357 1.08-1.962 0-2.862-0.14-4.652-0.14-0.819 0-1.659 0.39-1.659 2l0.061 0.62c1.203 0.12 3.782 0.26 6.422 0.26 3.985 0 5.563-1.69 5.563-4.04"/>
        <path d="m120.89 325.63h1.65l3.22 3.82c0.6 0.74 1.17 1.12 2.54 1.12 0.92 0 1.54-0.12 2.04-0.36l-4.16-4.82c2.33-0.5 3.51-2.03 3.51-4.26 0-2.76-1.67-4.13-5.07-4.13l-4.88-0.02c-1.58 0.06-2.09 0.61-2.09 2.04v11.33c0.23 0.04 0.51 0.06 0.8 0.06 2 0 2.46-0.57 2.46-1.62l-0.02-3.16m0.02-2.64v-3.35h3.14c1.35 0 2.41 0.2 2.41 1.61 0 1.17-0.81 1.74-2.41 1.74h-3.14"/>
        <path d="m89.643 330.35c0.243 0.04 0.526 0.06 0.799 0.06 2.003 0 2.468-0.57 2.468-1.62v-2.74h3.398c3.702 0 5.542-1.61 5.542-4.61 0-2.89-1.84-4.44-5.319-4.44h-4.784c-1.608 0-2.104 0.63-2.104 2.04v11.31m3.267-7v-3.69h3.257c1.618 0 2.427 0.61 2.427 1.78 0 1.26-0.809 1.91-2.427 1.91h-3.257"/>
        <path d="m109.46 330.39c2.1 0 3.72-0.49 4.86-1.51 1.14-1.01 1.73-2.81 1.73-5.38-0.03-2.51-0.61-4.27-1.79-5.32-1.18-1.02-2.78-1.53-4.8-1.53-2.03 0-3.62 0.51-4.81 1.53-1.17 1.05-1.76 2.81-1.78 5.32 0 2.57 0.59 4.37 1.72 5.38 1.15 1.02 2.77 1.51 4.87 1.51m3.22-6.89c0 1.55-0.26 2.63-0.78 3.27-0.5 0.66-1.32 0.96-2.44 0.96-1.15-0.02-1.97-0.34-2.48-0.96-0.52-0.62-0.78-1.7-0.78-3.27 0-1.53 0.27-2.61 0.8-3.23 0.52-0.65 1.33-0.94 2.46-0.94 1.12 0 1.92 0.29 2.44 0.94 0.52 0.62 0.78 1.7 0.78 3.23"/>
        <path d="m138.3 319.74h2.62c0.87 0 1.74-0.39 1.74-2.1l-0.05-0.64h-10.19c-0.86 0-1.74 0.41-1.74 2.1l0.06 0.64h4.31v10.61c0.23 0.04 0.51 0.06 0.79 0.06 2.01 0 2.46-0.57 2.46-1.62v-9.05"/>
      </g>
      <path opacity=".4" d="m187.76 329.77c1.31 1.41 1.48 2.75 1.53 3.04 0.13 0 0.17-0.63 0.17-1.56v-14.95c0-1.73-0.51-2.32-1.85-2.32-0.46 0-0.91 0.27-1.51 0.27h-150c-0.603 0-1.056-0.27-1.508-0.27-1.338 0-1.851 0.59-1.851 2.32l-0.005 14.95c0 0.93 0.047 1.56 0.175 1.56 0.047-0.29 0.085-1.73 1.525-3.04 11.5-9.73 140.93-12.72 153.33 0" stroke-width="2.2304"/>
      <path d="m154.63 325.07c1.66 0 2.36 0.46 2.36 1.29 0 0.77-0.7 1.37-2.76 1.37-2.1 0-3.03-0.44-4.1-0.42-0.83 0-1.52 0.7-1.46 2.28 1.48 0.54 3.82 0.87 5.6 0.87 4.48 0 6.08-1.78 6.08-3.92 0-1.57-0.97-2.54-2.35-2.93 1.22-0.5 2.18-1.41 2.18-2.87 0-1.85-1.35-3.69-5.71-3.69-1.88 0-3.96 0.36-5.45 0.79-0.06 1.59 0.68 2.32 1.39 2.32 0.81 0 2-0.43 3.92-0.43 2.4 0 2.46 0.85 2.46 1.44 0 0.83-0.66 1.27-2.34 1.27h-3.7c-0.07 0.22-0.14 0.49-0.14 0.91 0 1.35 0.55 1.72 1.66 1.72h2.36z" stroke-width=".28073"/>
    </g>
  </g>
</svg>
