<?xml version="1.0"?>
<svg xmlns="http://www.w3.org/2000/svg" xmlns:xlink="http://www.w3.org/1999/xlink" height="82.899" width="600" version="1.1" viewBox="0 0 158.75 21.933794">
  <defs>
    <linearGradient id="g" gradientUnits="userSpaceOnUse" gradientTransform="matrix(0 20.652 -20.652 0 -364.97 -53.32)" x2=".99995" x1="-1.4211e-14" y1="0" y2="0">
      <stop stop-color="#88949b" offset="0"/>
      <stop stop-color="#94a0a7" offset=".0039062"/>
      <stop stop-color="#a1adb4" offset=".0078125"/>
      <stop stop-color="#adb8be" offset=".011719"/>
      <stop stop-color="#bac4c9" offset=".015625"/>
      <stop stop-color="#c7cfd4" offset=".019531"/>
      <stop stop-color="#d5dbdf" offset=".023438"/>
      <stop stop-color="#e2e6e9" offset=".027344"/>
      <stop stop-color="#eff1f3" offset=".03125"/>
      <stop stop-color="#f7f8f9" offset=".035156"/>
      <stop stop-color="#fff" offset=".039062"/>
      <stop stop-color="#fff" offset=".046875"/>
      <stop stop-color="#fff" offset=".0625"/>
      <stop stop-color="#fff" offset=".125"/>
      <stop stop-color="#fff" offset=".25"/>
      <stop stop-color="#fff" offset=".5"/>
      <stop stop-color="#fff" offset=".75"/>
      <stop stop-color="#fff" offset=".875"/>
      <stop stop-color="#fff" offset=".9375"/>
      <stop stop-color="#fafbfc" offset=".94141"/>
      <stop stop-color="#f6f8f9" offset=".94531"/>
      <stop stop-color="#eef1f2" offset=".94922"/>
      <stop stop-color="#e6eaec" offset=".95312"/>
      <stop stop-color="#dee3e6" offset=".95703"/>
      <stop stop-color="#d6dce0" offset=".96094"/>
      <stop stop-color="#ced5d9" offset=".96484"/>
      <stop stop-color="#c6ced3" offset=".96875"/>
      <stop stop-color="#bec7cc" offset=".97266"/>
      <stop stop-color="#b7c0c6" offset=".97656"/>
      <stop stop-color="#afb9bf" offset=".98047"/>
      <stop stop-color="#a7b2b9" offset=".98438"/>
      <stop stop-color="#a0abb2" offset=".98828"/>
      <stop stop-color="#98a4ab" offset=".99219"/>
      <stop stop-color="#919da4" offset=".99609"/>
      <stop stop-color="#89959c" offset="1"/>
    </linearGradient>
    <linearGradient id="b" x1="361.31" gradientUnits="userSpaceOnUse" y1="96.177" gradientTransform="matrix(.035934 0 0 .035934 -373.3 -54.608)" x2="493.7" y2="160.01">
      <stop stop-color="#cd090d" offset="0"/>
      <stop stop-color="#f39272" offset="1"/>
    </linearGradient>
    <linearGradient id="c" x1="285.2" gradientUnits="userSpaceOnUse" y1="49.936" gradientTransform="matrix(.035934 0 0 .035934 -376.11 -52.744)" x2="285.2" y2="69.959">
      <stop stop-color="#fff" offset="0"/>
      <stop stop-color="#fff" stop-opacity=".49804" offset=".3"/>
      <stop stop-color="#fff" stop-opacity="0" offset="1"/>
    </linearGradient>
    <linearGradient id="d" x1="-29.473" gradientUnits="userSpaceOnUse" y1="395.42" gradientTransform="matrix(.035934 0 0 .035934 -373.3 -54.597)" x2="301.59" y2="395.42">
      <stop stop-color="#8e0902" offset="0"/>
      <stop stop-color="#e2080e" offset="1"/>
    </linearGradient>
    <linearGradient id="e" x1="331.92" gradientUnits="userSpaceOnUse" y1="457.25" gradientTransform="matrix(.035934 0 0 .035934 -373.3 -54.597)" x2="331.92" y2="425.5">
      <stop stop-color="#580000" stop-opacity=".86275" offset="0"/>
      <stop stop-color="#740500" stop-opacity=".51373" offset=".54748"/>
      <stop stop-color="#800700" stop-opacity=".2549" offset=".81538"/>
      <stop stop-color="#8c0a00" stop-opacity="0" offset="1"/>
    </linearGradient>
    <linearGradient id="f" x1="487.97" gradientUnits="userSpaceOnUse" y1="409.71" gradientTransform="matrix(.035934 0 0 .035934 -372.53 -62.502)" x2="486.58" y2="424.71">
      <stop stop-color="#fff" stop-opacity=".76562" offset="0"/>
      <stop stop-color="#aaa" stop-opacity=".47486" offset="1"/>
    </linearGradient>
    <linearGradient id="a" gradientUnits="userSpaceOnUse" x2=".99201" gradientTransform="matrix(0 20.982 20.982 0 -422.31 -53.481)" x1=".0084819" y1="0" y2="0">
      <stop stop-color="#0f1c4d" offset="0"/>
      <stop stop-color="#101e51" offset=".0039062"/>
      <stop stop-color="#101f54" offset=".0078125"/>
      <stop stop-color="#112157" offset=".011719"/>
      <stop stop-color="#12225a" offset=".015625"/>
      <stop stop-color="#13245d" offset=".019531"/>
      <stop stop-color="#132560" offset=".023438"/>
      <stop stop-color="#142662" offset=".027344"/>
      <stop stop-color="#142764" offset=".03125"/>
      <stop stop-color="#142764" offset=".0625"/>
      <stop stop-color="#142764" offset=".125"/>
      <stop stop-color="#142764" offset=".25"/>
      <stop stop-color="#142764" offset=".5"/>
      <stop stop-color="#142764" offset=".75"/>
      <stop stop-color="#142764" offset=".875"/>
      <stop stop-color="#142764" offset=".89062"/>
      <stop stop-color="#142764" offset=".89844"/>
      <stop stop-color="#142763" offset=".90234"/>
      <stop stop-color="#142763" offset=".90625"/>
      <stop stop-color="#132662" offset=".91016"/>
      <stop stop-color="#132661" offset=".91406"/>
      <stop stop-color="#132560" offset=".91797"/>
      <stop stop-color="#13255f" offset=".92188"/>
      <stop stop-color="#12245d" offset=".92578"/>
      <stop stop-color="#12245c" offset=".92969"/>
      <stop stop-color="#12235b" offset=".93359"/>
      <stop stop-color="#12235a" offset=".9375"/>
      <stop stop-color="#112259" offset=".94141"/>
      <stop stop-color="#112258" offset=".94531"/>
      <stop stop-color="#112157" offset=".94922"/>
      <stop stop-color="#112056" offset=".95312"/>
      <stop stop-color="#102055" offset=".95703"/>
      <stop stop-color="#102054" offset=".96094"/>
      <stop stop-color="#101f53" offset=".96484"/>
      <stop stop-color="#101e52" offset=".96875"/>
      <stop stop-color="#0f1d50" offset=".97266"/>
      <stop stop-color="#0f1d4f" offset=".97656"/>
      <stop stop-color="#0f1c4e" offset=".98047"/>
      <stop stop-color="#0f1c4d" offset=".98438"/>
      <stop stop-color="#0e1b4c" offset=".98828"/>
      <stop stop-color="#0e1b4b" offset=".99219"/>
      <stop stop-color="#0e1a4a" offset=".99609"/>
      <stop stop-color="#0e1949" offset="1"/>
    </linearGradient>
    <linearGradient id="k" gradientUnits="userSpaceOnUse" gradientTransform="matrix(0 -20.636 20.636 0 -413.83 -32.671)" x1="1.4211e-14" x2="1" y1="0" y2="0">
      <stop stop-color="#552227" offset="0"/>
      <stop stop-color="#5a2227" offset=".0039062"/>
      <stop stop-color="#602228" offset=".0078125"/>
      <stop stop-color="#662329" offset=".011719"/>
      <stop stop-color="#6c232a" offset=".015625"/>
      <stop stop-color="#71232a" offset=".019531"/>
      <stop stop-color="#77232a" offset=".023438"/>
      <stop stop-color="#7d232a" offset=".027344"/>
      <stop stop-color="#84222b" offset=".03125"/>
      <stop stop-color="#8a212b" offset=".035156"/>
      <stop stop-color="#90202b" offset=".039062"/>
      <stop stop-color="#961f2b" offset=".042969"/>
      <stop stop-color="#9d1d2b" offset=".046875"/>
      <stop stop-color="#a31a2a" offset=".050781"/>
      <stop stop-color="#a9172a" offset=".054688"/>
      <stop stop-color="#b01329" offset=".058594"/>
      <stop stop-color="#b70f29" offset=".0625"/>
      <stop stop-color="#bd0829" offset=".066406"/>
      <stop stop-color="#c40228" offset=".070312"/>
      <stop stop-color="#c70028" offset=".074219"/>
      <stop stop-color="#ca0027" offset=".078125"/>
      <stop stop-color="#ca0027" offset=".09375"/>
      <stop stop-color="#ca0027" offset=".125"/>
      <stop stop-color="#ca0027" offset=".25"/>
      <stop stop-color="#ca0027" offset=".5"/>
      <stop stop-color="#ca0027" offset=".75"/>
      <stop stop-color="#ca0027" offset=".875"/>
      <stop stop-color="#ca0027" offset=".90625"/>
      <stop stop-color="#ca0027" offset=".91406"/>
      <stop stop-color="#cb0028" offset=".91797"/>
      <stop stop-color="#cc0029" offset=".92188"/>
      <stop stop-color="#ce002a" offset=".92578"/>
      <stop stop-color="#cf012a" offset=".92969"/>
      <stop stop-color="#d1052b" offset=".93359"/>
      <stop stop-color="#d2092c" offset=".9375"/>
      <stop stop-color="#d40b2d" offset=".94141"/>
      <stop stop-color="#d50d2e" offset=".94531"/>
      <stop stop-color="#d60f2f" offset=".94922"/>
      <stop stop-color="#d71130" offset=".95312"/>
      <stop stop-color="#d91431" offset=".95703"/>
      <stop stop-color="#da1732" offset=".96094"/>
      <stop stop-color="#dc1933" offset=".96484"/>
      <stop stop-color="#dd1a34" offset=".96875"/>
      <stop stop-color="#df1c35" offset=".97266"/>
      <stop stop-color="#e01d35" offset=".97656"/>
      <stop stop-color="#e12036" offset=".98047"/>
      <stop stop-color="#e22237" offset=".98438"/>
      <stop stop-color="#e42439" offset=".98828"/>
      <stop stop-color="#e6253a" offset=".99219"/>
      <stop stop-color="#e7273a" offset=".99609"/>
      <stop stop-color="#e8283b" offset="1"/>
    </linearGradient>
    <radialGradient id="j" gradientUnits="userSpaceOnUse" cy="426.03" cx="470.81" gradientTransform="matrix(-.048796 .047061 -.045069 -.046729 -313.37 -49.718)" r="27.812">
      <stop stop-color="#fff" offset="0"/>
      <stop stop-color="#464646" offset=".5"/>
      <stop offset="1"/>
    </radialGradient>
    <radialGradient id="i" gradientUnits="userSpaceOnUse" cy="420.2" cx="477.3" gradientTransform="matrix(.035934 0 0 .035934 -372.52 -62.502)" r="28.703">
      <stop stop-color="#efefef" offset="0"/>
      <stop stop-color="#afafaf" offset=".55"/>
      <stop stop-color="#3f3f3f" offset="1"/>
    </radialGradient>
    <radialGradient id="h" gradientUnits="userSpaceOnUse" cy="493.49" cx="413.12" gradientTransform="matrix(.029698 0 0 .029698 -367.83 -62.11)" r="15.125">
      <stop stop-color="#fff" offset="0"/>
      <stop stop-color="#fff" stop-opacity="0" offset="1"/>
    </radialGradient>
  </defs>
  <g transform="translate(489.75 53.953)">
    <path d="m-486.74-53.301c-1.6221 0-2.2063 0.96727-2.2063 2.5591v15.526c0 1.5919 0.58415 2.5591 2.2063 2.5591h152.63c1.6223 0 2.2067-0.96727 2.2067-2.5591v-15.526c0-1.5919-0.58459-2.5591-2.2067-2.5591h-152.63z" stroke-width=".85032" fill="url(#a)"/>
    <path stroke-width=".85032" fill="url(#k)" d="m-450.81-53.308v20.644h73.951c0.008-7.0264 0.002-14.255 0-20.644z"/>
    <g stroke-width=".85032" fill="#fff">
      <path d="m-475.66-41.007c0 1.7631-1.1586 3.0527-3.5062 3.3046-1.6927 0.18132-4.161-0.02925-5.3298-0.16158-0.0366-0.19156-0.0731-0.43283-0.0731-0.61488 0-1.5515 0.83618-1.9041 1.612-1.9041 0.81602 0 2.0956 0.14111 3.0527 0.14111 1.0377 0 1.3601-0.35241 1.3601-0.68507 0-0.44307-0.42331-0.63462-1.2292-0.78582l-2.2268-0.43356c-1.8539-0.3524-2.8413-1.6322-2.8413-2.9924 0-1.6523 1.1687-3.0326 3.4659-3.2946 1.743-0.18131 3.8588 0.02925 5.0175 0.17108 0.0512 0.2018 0.0731 0.38312 0.0731 0.59442 0 1.5415-0.81609 1.8739-1.602 1.8739-0.59441 0-1.5314-0.11114-2.5994-0.11114-1.0882 0-1.5314 0.29245-1.5314 0.66533 0 0.38311 0.42331 0.54396 1.1082 0.66459l2.1259 0.39335c2.1863 0.40285 3.1233 1.6423 3.1233 3.1737"/>
      <path d="m-471.86-39.111c0 0.94708-0.36266 1.4911-2.2166 1.4911-0.24201 0-0.45331-0.02194-0.6646-0.05119v-12.564c0-0.95712 0.32243-1.9545 2.1964-1.9545 0.23178 0 0.46353 0.02925 0.68506 0.07313v13.007"/>
      <path d="m-464.29-34.239c0.24201 0.12064 0.74554 0.27198 1.3702 0.29245 1.068 0.02194 1.6523-0.39335 2.0956-1.3602l5.7634-12.856c-0.24202-0.12063-0.76572-0.26174-1.199-0.27198-0.74551-0.02194-1.7329 0.13087-2.3777 1.6523l-1.8639 4.4029-3.6573-5.9646c-0.23178-0.07313-0.80599-0.17108-1.2292-0.17108-1.2896 0-2.0151 0.47377-2.7707 1.2896l-3.5565 3.889 2.8613 4.5036c0.53372 0.82617 1.2291 1.2393 2.3576 1.2393 0.7456 0 1.3602-0.16158 1.6423-0.30196l-3.4458-5.1988 2.4382-2.5893 4.0099 6.2869-2.4382 5.1585"/>
      <path d="m-434.38-40.574c0-2.146-1.3904-3.1838-3.607-3.6775l-3.889-0.87651c-0.70554-0.16158-1.2997-0.37287-1.2997-1.078 0-0.7758 0.61488-1.068 2.2468-1.068 1.9244 0 2.3677 0.1009 4.1208 0.1009 0.80607 0 1.6322-0.37287 1.6322-1.9647 0-0.19155-0.0292-0.41308-0.0585-0.60464-1.1788-0.1009-3.2845-0.22153-5.8738-0.22153-3.9092 0-5.4004 1.6926-5.4004 3.8486 0 2.0251 1.2796 3.1435 3.5364 3.6775l3.889 0.89675c0.89675 0.22153 1.3904 0.61488 1.3904 1.1788 0 0.76571-0.68506 1.068-2.3173 1.068-1.9244 0-2.8009-0.1411-4.554-0.1411-0.80601 0-1.6322 0.37287-1.6322 1.9647 0 0.19156 0.0219 0.41309 0.0585 0.60464 1.1788 0.12063 3.7077 0.26174 6.3071 0.26174 3.9092 0 5.4507-1.6726 5.4507-3.9696"/>
      <path d="m-403.45-49.919c-1.5416 0.0585-2.0554 0.592-2.0554 2.0025v11.112c0.23177 0.03656 0.51399 0.06071 0.78582 0.06071 1.9647 0 2.418-0.57343 2.418-1.5906l-0.0292-3.102h1.6323l3.1435 3.7479c0.59441 0.72528 1.1574 1.0995 2.4974 1.0995 0.89674 0 1.5126-0.11011 2.0063-0.35139l-4.0918-4.7266c2.2971-0.49352 3.4571-1.9861 3.4571-4.1825 0-2.7102-1.6523-4.0502-4.9873-4.0502zm1.1485 2.607h3.0717c1.3199 0 2.3576 0.20172 2.3576 1.5717 0 1.1586-0.78582 1.7115-2.3576 1.7115h-3.0717z"/>
      <path d="m-430.91-49.902c-1.5717 0-2.0554 0.61232-2.0554 2.0025v11.098c0.23178 0.04388 0.50376 0.05706 0.78583 0.05706 1.9647 0 2.4068-0.57342 2.4068-1.5906v-2.6901h3.3438c3.627 0 5.4331-1.5731 5.4331-4.5149 0-2.8513-1.8061-4.3601-5.2214-4.3601zm1.1372 2.607h3.204c1.5919 0 2.3765 0.59441 2.3765 1.7531 0 1.2291-0.78456 1.8664-2.3765 1.8664h-3.204z"/>
      <path d="m-413.53-50.25c-1.9848 0-3.5565 0.51406-4.7152 1.5113-1.1587 1.0277-1.7254 2.7492-1.7455 5.2177 0 2.5188 0.56662 4.2832 1.685 5.2706 1.1183 0.99742 2.7102 1.4924 4.7756 1.4924 2.0554 0 3.6473-0.49476 4.7756-1.4924 1.1184-0.98739 1.6813-2.7518 1.6813-5.2706-0.0219-2.4685-0.5827-4.19-1.7418-5.2177-1.1586-0.99742-2.7304-1.5113-4.7152-1.5113zm0 2.6296c1.0983 0 1.8816 0.29121 2.3954 0.92566 0.50374 0.60464 0.76695 1.6624 0.76695 3.1737 0 1.5213-0.26321 2.5793-0.76695 3.2039-0.49352 0.64486-1.2972 0.94827-2.3954 0.94827-1.1183-0.02194-1.9269-0.34414-2.4408-0.94827-0.50375-0.60465-0.76316-1.6725-0.76316-3.2039 0-1.5114 0.28221-2.5692 0.78582-3.1737 0.51399-0.63462 1.3199-0.92566 2.418-0.92566z"/>
      <path d="m-385.24-47.206h2.5692c0.84629 0 1.7128-0.39261 1.7128-2.0653 0-0.19155-0.0219-0.42332-0.0585-0.62438h-9.9912c-0.8463 0-1.7027 0.39262-1.7027 2.0654 0 0.19155 0.0219 0.42332 0.0512 0.62438h4.2216v10.408c0.24199 0.04388 0.51398 0.0585 0.78581 0.0585 1.9647 0 2.418-0.57466 2.418-1.5919v-8.8765"/>
    </g>
    <path d="m-486.6-53.953c-2.418 0-3.1537 1.5008-3.1537 3.0021v15.929c0 1.5012 0.73561 3.0025 3.1537 3.0025h152.44 0.009c2.4079 0 3.1436-1.5013 3.1436-3.0025v-15.929c-0.00001-1.5012-0.73563-3.0021-3.1436-3.0021h-152.45zm0.11073 0.20169h152.22c1.6221 0 2.7204 0.95715 2.7204 2.5591v16.413c0 1.602-1.0984 2.5591-2.7204 2.5591h-152.21-0.009c-1.6222 0-2.7208-0.95715-2.7208-2.5591v-16.413c0-1.602 1.0987-2.5591 2.7208-2.5591z" stroke-width=".85032" fill="#a1a19c"/>
    <path opacity=".4" d="m-334-52.878c-0.48401 0-0.96944 0.26057-1.6245 0.26057h-148.79c-0.68174-0.02482-1.3613-0.17437-1.9699-0.26013h-0.00085c-1.7163 0.0054-2.3807 0.58178-2.3807 2.2665l-0.0145 14.649c0 0.91681 0.0631 1.534 0.23377 1.534 0.0611-0.29216 0.11138-1.7054 1.9923-2.9849 0.70842-0.46346 1.6838-0.89687 2.8808-1.3301 1.4779-0.52392 3.2994-1.0145 5.4369-1.4883 0.5496-0.12092 1.1358-0.2421 1.7221-0.36296 1.2589-0.26656 2.5507-0.4784 3.623-0.66879 0.38732-0.0585 0.80056-0.13323 1.1354-0.18895 1.1867-0.19075 2.418-0.36658 3.4951-0.5251 0.3828-0.05119 0.77144-0.10612 1.099-0.15116 1.2693-0.16326 2.5508-0.31953 3.6278-0.45304 1.5869-0.1857 3.1915-0.35624 4.5435-0.50269 1.2912-0.14081 2.6002-0.25796 3.7008-0.36252 0.49474-0.04464 0.996-0.09278 1.4198-0.13226 1.2695-0.11801 2.5556-0.22264 3.637-0.31374 2.6076-0.19134 5.262-0.39109 7.4885-0.53257 1.8076-0.11084 3.6383-0.22046 5.4826-0.32121 1.8993-0.11084 3.8322-0.20448 5.78-0.29485 3.6149-0.14337 7.2796-0.2802 10.366-0.36999 1.3459-0.05119 2.7205-0.07791 3.8748-0.1059 2.3485-0.04243 4.7522-0.08976 6.7692-0.11688 1.3372-0.02338 2.7144-0.02947 3.8655-0.03823 0.50698-0.01174 1.0214-0.0078 1.4523-0.01185 1.437-0.0077 2.697-0.0075 4.0448-0.0075 2.4537-0.000936 4.9715 0.01152 7.0851 0.03779 1.3664 0.01539 2.7241 0.03914 4.0905 0.06108 0.69663 0.02049 1.4032 0.02828 2.1114 0.04877 1.2947 0.02781 2.601 0.05853 3.8835 0.10195 2.2632 0.06726 4.5679 0.14815 6.5134 0.23025 1.3421 0.0534 2.7084 0.12005 3.8611 0.17401 2.1862 0.11084 4.3327 0.24038 6.4212 0.38141 1.3492 0.09015 2.7233 0.19694 3.884 0.28342 6.9044 0.52161 13.641 1.2722 20.028 2.8601 1.1486 0.2923 2.2164 0.59313 3.2038 0.92584 2.801 0.91681 4.917 1.9745 6.1966 3.1734 1.4005 1.3803 1.5808 2.6928 1.632 2.9849 0.14038 0 0.19247-0.6171 0.19247-1.534v-14.648c0-1.6926-0.55429-2.2669-1.9949-2.2669z" stroke-width="2.8398" fill="#fff"/>
    <path stroke-width=".85032" fill="#fff" d="m-343.59-39.443c0.21129-0.64486 2.005-1.2997 2.9117-1.7329 2.7405-1.2997 4.4533-2.2266 4.4533-4.685 0-1.874-1.3803-4.0099-5.4004-4.0099-1.6725 0-4.1006 0.5542-5.2593 1.1486-0.0585 1.5818 0.72529 2.287 1.4408 2.287 1.1587 0 2.1863-0.65509 3.9394-0.65509 1.3199 0 2.015 0.61488 2.015 1.3199 0 1.2494-1.5012 1.6423-3.3349 2.6498-2.4281 1.3399-4.2013 2.3979-4.2013 4.826 0 0.49352 0.0585 1.1486 0.16084 1.592h8.947c0.84629 0 1.7127-0.39335 1.7127-2.0654 0-0.20106-0.0219-0.47377-0.0512-0.67483h-7.3348"/>
    <g stroke-width="1.1506">
      <path d="m-353.1-53.308h-23.756v20.644h23.756z" fill="url(#g)"/>
      <path d="m-360.54-34.715h0.62658v-2.2039h-0.62658z"/>
      <path d="m-358.41-35.566h0.30251c0 0.22677-0.10819 0.36732-0.3673 0.36732-0.28092 0-0.42134-0.18364-0.42134-0.61578 0-0.3457 0.0973-0.60497 0.3781-0.60497 0.15129 0 0.23757 0.06467 0.3025 0.16206l0.56175-0.21599c-0.15128-0.31328-0.37811-0.47535-0.86425-0.47535-0.65898 0-1.0155 0.48614-1.0155 1.1343 0 0.71299 0.41052 1.1343 1.0155 1.1343 0.6374 0 0.98309-0.36733 0.98309-0.9939v-0.29168h-0.87506v0.39971"/>
      <path d="m-373.43-35.014h-0.58337v-0.7238h0.59416c0.24835 0 0.38893 0.12971 0.38893 0.35651 0 0.21599-0.10819 0.36729-0.39972 0.36729zm-0.58337-1.5989h0.59416c0.21599 0 0.3025 0.1297 0.3025 0.29168 0 0.1405-0.0863 0.28087-0.3025 0.28087h-0.59416zm0.95066 0.71299c0.15129-0.07548 0.26993-0.21599 0.26993-0.44293 0-0.36729-0.24834-0.56175-0.62657-0.56175h-0.90745v2.193h0.87503c0.48612 0 0.75622-0.22677 0.75622-0.6806 0-0.30247-0.19442-0.46453-0.36728-0.50772"/>
      <path d="m-371.01-35.612c0 0.39971-0.16206 0.60497-0.50776 0.60497-0.32409 0-0.49695-0.21599-0.49695-0.62657v-1.2639h-0.33487v1.2639c0 0.60497 0.28087 0.96148 0.83182 0.96148 0.54014 0 0.84264-0.33492 0.84264-0.95067v-1.2747h-0.33488v1.2856"/>
      <path d="m-368.86-35.785v0.51854c-0.0324-0.05396-0.11893-0.21599-0.17284-0.31328l-0.84265-1.3287h-0.33487v2.193h0.32408v-1.6528c0.0324 0.06467 0.10818 0.19442 0.15128 0.2702l0.88586 1.3828h0.31329v-2.193h-0.32409v1.1235"/>
      <path d="m-365.74-35.727h0.63734v-0.3241h-0.63734v-0.54014h1.0911v-0.31328h-1.4152v2.193h1.4584v-0.32409h-1.1343v-0.69139"/>
      <path d="m-363.48-36.003c-0.37811-0.10816-0.47531-0.18363-0.47531-0.3457 0-0.14049 0.10819-0.2702 0.3673-0.2702 0.21599 0 0.37811 0.07548 0.50774 0.21599l0.23754-0.23756c-0.19441-0.19442-0.4213-0.30249-0.72379-0.30249-0.39972 0-0.72381 0.23756-0.72381 0.61578 0 0.3889 0.22677 0.50774 0.69139 0.64817 0.36732 0.10816 0.49695 0.19442 0.49695 0.35651 0 0.21599-0.15128 0.3241-0.45372 0.3241-0.216 0-0.43212-0.10816-0.57256-0.25914l-0.23757 0.22677c0.18364 0.21599 0.46454 0.35651 0.77783 0.35651 0.56175 0 0.81022-0.2702 0.81022-0.6698 0-0.38891-0.25913-0.52934-0.70221-0.65897"/>
      <path d="m-361.74-36.901h-0.61579v2.193h1.4368v-0.52936h-0.82101v-1.6636"/>
      <path d="m-367.47-35.037h-0.2702v-1.5556h0.2702c0.51856 0 0.73459 0.31328 0.73459 0.77782 0 0.46453-0.216 0.77782-0.73459 0.77782zm0-1.8689h-0.59417v2.193h0.59417c0.58335 0 1.0695-0.32409 1.0695-1.1019 0-0.767-0.47534-1.0911-1.0695-1.0911"/>
      <path d="m-356.57-35.566 0.18363-0.63738h0.0647l0.18363 0.63738zm0.52933-1.3395h-0.61576l-0.79945 2.193h0.6482l0.10818-0.38891h0.68057l0.11893 0.38891h0.65899l-0.79941-2.193"/>
      <path fill="url(#b)" d="m-373.58-51.387c-0.46455 0-0.83886 0.37431-0.83886 0.83886v11.31c0 0.46454 0.37431 0.83886 0.83886 0.83886h17.326c0.46453 0 0.83885-0.37431 0.83885-0.83886v-6.0078c-0.96151-0.0012-1.7406-0.78104-1.7406-1.7428 0-0.9618 0.7791-1.7417 1.7406-1.7428v-1.8169c0-0.46454-0.37432-0.83885-0.83885-0.83885z"/>
      <path fill="url(#c)" d="m-373.92-50.742c0.20258 0.09056 0.37445 0.28971 0.51345 0.60513h17.076c0.038-0.26379 0.20048-0.46839 0.44375-0.63447-0.10167-0.1257-0.21488-0.19457-0.34107-0.19804h-17.364c-0.14286 0.03521-0.25385 0.10908-0.32825 0.22738z"/>
      <path fill="url(#d)" d="m-374.38-50.765c-0.0009 0.0035-0.001 0.0069-0.002 0.01038v3.2049zm17.503 4.7108-0.006 0.0081c-5.6933 3.065-11.589 3.2955-17.499 3.3183-0.001 0.000012-0.002 0-0.004 0h-0.0248v3.4947c0 0.46454 0.37431 0.83773 0.83887 0.83773h17.326c0.46455 0 0.83886-0.37319 0.83886-0.83773v-6.009c-0.61933-0.000762-1.1626-0.32449-1.471-0.8119z"/>
      <path fill="url(#e)" d="m-374.41-39.294v0.05833c0 0.46453 0.37432 0.83773 0.83886 0.83773h17.326c0.46455 0 0.83886-0.3732 0.83886-0.83773v-0.05833z"/>
      <path fill="url(#j)" d="m-355.42-47.969c-0.44858 0-0.81189 0.27483-0.81189 0.61314 0 0.3383 0.36331 0.61202 0.81189 0.61202s0.81191-0.27372 0.81191-0.61202c0-0.33831-0.36333-0.61314-0.81191-0.61314zm0.86807 0.45143c0.0604 0.10747 0.0943 0.22764 0.0943 0.35486 0 0.45233-0.42815 0.81865-0.95566 0.81865-0.52752 0-0.95451-0.36632-0.95451-0.81865 0-0.07755 0.0124-0.15235 0.0359-0.22347-0.0476 0.10908-0.0741 0.22864-0.0741 0.35374 0 0.51723 0.44736 0.93655 0.99942 0.93655 0.55208 0 0.99945-0.41932 0.99945-0.93655 0-0.1778-0.053-0.34352-0.14485-0.48513z"/>
      <path fill="url(#i)" d="m-355.41-48.027c-0.56961 0-1.032 0.46239-1.032 1.032 0 0.56962 0.46239 1.0309 1.032 1.0309s1.0309-0.46126 1.0309-1.0309c0-0.5696-0.46127-1.032-1.0309-1.032zm-0.32958 0.0993c0.007 0.000883 0.20064-0.05707 0.32688-0.04925 0.13878 0.0081 0.49768 0.06351 0.66857 0.29615 0.31527 0.42914-0.0412 0.69869-0.0988 0.75017-0.004-0.03877-0.0704-0.30674-0.13807-0.42709-0.0389-0.06927-0.10552-0.15356-0.14569-0.1997-0.0654-0.07514-0.1297-0.12463-0.20906-0.18546-0.27338-0.06386-0.0473 0.01147 0.0438 0.0757 0 0 0.38302 0.33848 0.41689 0.7524-0.14254 0.09262-0.33776 0.16454-0.54067 0.16454-0.44858 0-0.79919-0.27053-0.79919-0.60884 0.0822-0.41872 0.31717-0.46505 0.33228-0.49878 0.045-0.02738 0.0956-0.04684 0.14294-0.06984zm0.3386 1.8239c-0.91054-0.05891-1.0998-0.81244-0.92011-1.2835-0.19911 0.47156 0.21669 1.0179 0.91652 1.0432 0.40018 0.0023 0.52881-0.14461 0.52881-0.14461s-0.002 0.09228-0.0123 0.14049c-0.0109 0.05269-0.0278 0.11068-0.0278 0.11068-0.1599 0.10159-0.20304 0.10585-0.4852 0.13369z"/>
      <path fill="url(#f)" d="m-354.84-46.865c-0.0256-0.09458-0.0353-0.15376-0.0554-0.22686-0.002-0.0069-0.0314-0.10931-0.034-0.11668-0.1253-0.34945-0.29415-0.45692-0.51077-0.59366-0.0624-0.05442-0.22423-0.12956-0.29961-0.14937 0.0863-0.03015 0.11688-0.02555 0.16123-0.0405 0.21509-0.0069 0.41479 0.01171 0.64431 0.13197 0.25847 0.13542 0.39967 0.332 0.40025 0.55723 0.00011 0.06765-0.006 0.11426-0.0217 0.17243-0.0322 0.11638-0.0825 0.21635-0.17536 0.34804-0.0354 0.0451-0.0671 0.05741-0.0902 0.04855-0.0214-0.0081-0.006-0.08515-0.0186-0.1311z"/>
      <circle r=".44918" cy="-47.452" cx="-355.55" fill="url(#h)"/>
    </g>
    <path d="m-355.91-47.325c0.13784-0.1564 0.35335-0.24343 0.7277-0.18866-0.11507-0.14064-0.25335-0.24253-0.40427-0.32341-0.3179 0.06513-0.45938 0.22299-0.53904 0.41325 0.058 0.01738 0.11133 0.02945 0.21561 0.09884z" stroke="#fff" stroke-width=".035934px" fill="#fff"/>
    <path stroke-width="1.1506" fill="#fff" d="m-373.28-39.743c0-0.03233 0.0221-0.05396 0.0431-0.05396h0.0221c0.0121-0.06467 0.0324-0.14049 0.054-0.19442l-0.0221-0.01147c-0.0221-0.01147-0.0324-0.03233-0.0121-0.06467l0.0221-0.06467c0.0121-0.03233 0.0324-0.05396 0.054-0.04315l0.0221 0.01147c0.11893-0.24834 0.33489-0.35651 0.44294-0.58336l-0.0221-0.01147c-0.0221 0-0.0221-0.03233-0.0121-0.06466l0.0324-0.06467c0.0121-0.0221 0.0324-0.04315 0.0431-0.03233h0.0221c0.0121-0.03234 0.0324-0.06478 0.054-0.10816l-0.0221-0.01147c-0.0121-0.01147-0.0121-0.04315 0.0121-0.06467l0.0324-0.05396c0.0221-0.03234 0.0431-0.04315 0.0647-0.03234v0.01147h0.0324l0.0221-0.03234c0.10819-0.07547 0.23756-0.06478 0.32407 0 0.0647 0.05396 0.30249 0.29168 0.30249 0.29168s0.17286 0 0.25914-0.02209c1.0047-0.17284 1.815-0.77782 2.2362-0.58337-0.14048-0.22678-0.29169-0.49692-0.37811-0.66976l-0.15128-0.33492-0.0863 0.01147c-0.25914-0.65898-1.0155-2.1281-0.54016-2.7115 0.0431-0.04315-0.0863-0.04315-0.11893-0.07547-0.15129-0.1405 0.0647-2.2039 0.36732-2.7764l0.54013-0.24834c-0.48611 0.06467-0.7994 0.09711-1.3828 0.11892-0.4213 0.51855-0.73462 0.69139-0.98307 0.9939-0.0431 0.04315-0.0863 0.33488-0.11893 0.36729-0.0647 0.10816-0.19442 0.24862-0.30247 0.3241-0.18364 0.11892-0.41052 0.19442-0.52936 0.06467-0.0324-0.04315-0.0324-0.05396-0.0121-0.07583 0.054-0.08629 0.23757-0.20521 0.29169-0.37811-0.1297 0.09734-0.20521 0.16206-0.32407 0.16206-0.054 0.01147-0.0973-0.10816-0.0431-0.15128 0.17286-0.10816 0.24834-0.12971 0.33488-0.30247 0.0758-0.16206 0.18363-0.2809 0.34571-0.31331 0 0 0.47533-0.81021 0.86424-1.4044 0.10818-0.16206 0.36732-0.16206 0.36732-0.16206s0-0.16206 0.10818-0.19443c0.57254-0.10816 1.7069-0.44293 2.2147-0.23755 0.32411 0.12969 0.45372 0.05396 0.73463 0.2052 0.24834-0.62659 0.70218-0.75622 0.97226-0.75622 0.23757 0 0.37811 0.05396 0.56175 0.19443 0.23757 0.18362 0.29168 0.38891 0.3457 0.66979 0.0431 0.19443 0.0647 0.2702-0.0221 0.45373-0.054 0.10816-0.15128 0.12971-0.2702 0.21599-0.18363 0.14049-0.26993 0.38889-0.3457 0.43212-0.054 0.04315-0.10819-0.01147-0.2052 0.0221-0.23758 0.06478-0.31332 0.18364-0.46454 0.17284-0.054-0.01147-0.0973-0.15127-0.19442-0.24834-0.23756 0.78861-0.44291 1.7068-0.51855 2.0094 0.36733 0 1.3828 0.19442 1.6961 0.25914 0.0973 0.01147 0.054 0.10816 0.12971 0.11892 0.11893 0.0221 0.75621 0.09711 1.3936 0.39971 0.14049 0.03234 0.45372-0.0221 0.72381 0.07548 0.0324 0.0221 0.0431-0.0221 0.0863-0.01147 1.0587 0.3457 1.9445 0.86425 2.7872 1.0371 0.3241 0.01147 1.0479-0.10816 1.3504-0.15128 0.1297-0.0221 0.29169-0.07583 0.37811 0.09711 0.0221 0.04315-0.0121 0.06467-0.0647 0.12971l-0.0324 0.03234 0.0221 0.0221c0.0121 0.01147 0 0.04314-0.0221 0.06466l-0.054 0.04315c-0.0221 0.0221-0.054 0.0221-0.0648 0.01147l-0.0221-0.0221-0.0647 0.04315 0.0221 0.0221c0.0121 0.0221 0 0.05396-0.0324 0.06467l-0.054 0.04315c-0.0221 0.0221-0.054 0.0221-0.0647 0.01147l-0.0121-0.0221c-0.21601 0.16206-0.44293 0.3241-0.69141 0.50774l0.0331 0.03211c0.0121 0.01147 0 0.04315-0.0324 0.06467l-0.054 0.04315c-0.0221 0.01147-0.054 0.0221-0.0647 0l-0.0221-0.03233-0.0755 0.06467 0.0221 0.03233c0.0121 0.01147 0 0.04314-0.0221 0.05396l-0.054 0.04315c-0.0324 0.0221-0.054 0.0221-0.0647 0.01147l-0.0324-0.03234c-0.10819 0.07547-0.23756 0.11892-0.36729-0.03233-0.0973-0.11893-0.12971-0.36729-0.23757-0.37811-1.2856-0.3457-1.8365-0.19442-2.6359-0.38893-0.23757-0.06467-0.36731-0.28087-0.66977-0.29165-0.64818-0.0221-0.84264-0.03233-1.5448-0.05396-0.0324 0.09734-0.0324 0.09734-0.0324 0.09734h-1.6636l0.11893 0.97227c0.0221 0.10816 0 0.10816-0.11893 0.15127 0.0863 0.42131 0.27018 1.4044 0.25912 1.8258-0.0121 0.37811-0.34568 0.7562-0.85342 0.79941-0.0758 0.01147-0.0121 0.07548-0.0758 0.07548-0.78858 0.07583-2.4955 0.14049-2.9708 0.17285-0.25913 0.22677-0.51856 0.25913-0.96148 0.85346-0.0863 0.11892-0.31328 0.05396-0.31328-0.09734 0-0.06467 0-0.17286 0.0121-0.22678l-0.0324-0.01147c-0.0121 0-0.0324-0.0221-0.0221-0.05396v-0.06467"/>
  </g>
</svg>
