<?xml version="1.0"?>
<svg xmlns="http://www.w3.org/2000/svg" xmlns:xlink="http://www.w3.org/1999/xlink" height="78.201" width="600" version="1.1" viewBox="0 0 158.75 20.690686">
  <defs>
    <linearGradient id="a" gradientUnits="userSpaceOnUse" x2=".99201" gradientTransform="matrix(0 19.793 19.793 0 -261.33 65.413)" x1=".0084819" y1="0" y2="0">
      <stop stop-color="#0f1c4d" offset="0"/>
      <stop stop-color="#101e51" offset=".0039062"/>
      <stop stop-color="#101f54" offset=".0078125"/>
      <stop stop-color="#112157" offset=".011719"/>
      <stop stop-color="#12225a" offset=".015625"/>
      <stop stop-color="#13245d" offset=".019531"/>
      <stop stop-color="#132560" offset=".023438"/>
      <stop stop-color="#142662" offset=".027344"/>
      <stop stop-color="#142764" offset=".03125"/>
      <stop stop-color="#142764" offset=".0625"/>
      <stop stop-color="#142764" offset=".125"/>
      <stop stop-color="#142764" offset=".25"/>
      <stop stop-color="#142764" offset=".5"/>
      <stop stop-color="#142764" offset=".75"/>
      <stop stop-color="#142764" offset=".875"/>
      <stop stop-color="#142764" offset=".89062"/>
      <stop stop-color="#142764" offset=".89844"/>
      <stop stop-color="#142763" offset=".90234"/>
      <stop stop-color="#142763" offset=".90625"/>
      <stop stop-color="#132662" offset=".91016"/>
      <stop stop-color="#132661" offset=".91406"/>
      <stop stop-color="#132560" offset=".91797"/>
      <stop stop-color="#13255f" offset=".92188"/>
      <stop stop-color="#12245d" offset=".92578"/>
      <stop stop-color="#12245c" offset=".92969"/>
      <stop stop-color="#12235b" offset=".93359"/>
      <stop stop-color="#12235a" offset=".9375"/>
      <stop stop-color="#112259" offset=".94141"/>
      <stop stop-color="#112258" offset=".94531"/>
      <stop stop-color="#112157" offset=".94922"/>
      <stop stop-color="#112056" offset=".95312"/>
      <stop stop-color="#102055" offset=".95703"/>
      <stop stop-color="#102054" offset=".96094"/>
      <stop stop-color="#101f53" offset=".96484"/>
      <stop stop-color="#101e52" offset=".96875"/>
      <stop stop-color="#0f1d50" offset=".97266"/>
      <stop stop-color="#0f1d4f" offset=".97656"/>
      <stop stop-color="#0f1c4e" offset=".98047"/>
      <stop stop-color="#0f1c4d" offset=".98438"/>
      <stop stop-color="#0e1b4c" offset=".98828"/>
      <stop stop-color="#0e1b4b" offset=".99219"/>
      <stop stop-color="#0e1a4a" offset=".99609"/>
      <stop stop-color="#0e1949" offset="1"/>
    </linearGradient>
    <linearGradient id="k" gradientUnits="userSpaceOnUse" gradientTransform="matrix(0 -19.467 19.467 0 -253.33 85.044)" x1="1.4211e-14" x2="1" y1="0" y2="0">
      <stop stop-color="#552227" offset="0"/>
      <stop stop-color="#5a2227" offset=".0039062"/>
      <stop stop-color="#602228" offset=".0078125"/>
      <stop stop-color="#662329" offset=".011719"/>
      <stop stop-color="#6c232a" offset=".015625"/>
      <stop stop-color="#71232a" offset=".019531"/>
      <stop stop-color="#77232a" offset=".023438"/>
      <stop stop-color="#7d232a" offset=".027344"/>
      <stop stop-color="#84222b" offset=".03125"/>
      <stop stop-color="#8a212b" offset=".035156"/>
      <stop stop-color="#90202b" offset=".039062"/>
      <stop stop-color="#961f2b" offset=".042969"/>
      <stop stop-color="#9d1d2b" offset=".046875"/>
      <stop stop-color="#a31a2a" offset=".050781"/>
      <stop stop-color="#a9172a" offset=".054688"/>
      <stop stop-color="#b01329" offset=".058594"/>
      <stop stop-color="#b70f29" offset=".0625"/>
      <stop stop-color="#bd0829" offset=".066406"/>
      <stop stop-color="#c40228" offset=".070312"/>
      <stop stop-color="#c70028" offset=".074219"/>
      <stop stop-color="#ca0027" offset=".078125"/>
      <stop stop-color="#ca0027" offset=".09375"/>
      <stop stop-color="#ca0027" offset=".125"/>
      <stop stop-color="#ca0027" offset=".25"/>
      <stop stop-color="#ca0027" offset=".5"/>
      <stop stop-color="#ca0027" offset=".75"/>
      <stop stop-color="#ca0027" offset=".875"/>
      <stop stop-color="#ca0027" offset=".90625"/>
      <stop stop-color="#ca0027" offset=".91406"/>
      <stop stop-color="#cb0028" offset=".91797"/>
      <stop stop-color="#cc0029" offset=".92188"/>
      <stop stop-color="#ce002a" offset=".92578"/>
      <stop stop-color="#cf012a" offset=".92969"/>
      <stop stop-color="#d1052b" offset=".93359"/>
      <stop stop-color="#d2092c" offset=".9375"/>
      <stop stop-color="#d40b2d" offset=".94141"/>
      <stop stop-color="#d50d2e" offset=".94531"/>
      <stop stop-color="#d60f2f" offset=".94922"/>
      <stop stop-color="#d71130" offset=".95312"/>
      <stop stop-color="#d91431" offset=".95703"/>
      <stop stop-color="#da1732" offset=".96094"/>
      <stop stop-color="#dc1933" offset=".96484"/>
      <stop stop-color="#dd1a34" offset=".96875"/>
      <stop stop-color="#df1c35" offset=".97266"/>
      <stop stop-color="#e01d35" offset=".97656"/>
      <stop stop-color="#e12036" offset=".98047"/>
      <stop stop-color="#e22237" offset=".98438"/>
      <stop stop-color="#e42439" offset=".98828"/>
      <stop stop-color="#e6253a" offset=".99219"/>
      <stop stop-color="#e7273a" offset=".99609"/>
      <stop stop-color="#e8283b" offset="1"/>
    </linearGradient>
    <linearGradient id="g" gradientUnits="userSpaceOnUse" gradientTransform="matrix(0 17.104 -17.104 0 -216.26 36.191)" x2=".99995" x1="-1.4211e-14" y1="0" y2="0">
      <stop stop-color="#88949b" offset="0"/>
      <stop stop-color="#94a0a7" offset=".0039062"/>
      <stop stop-color="#a1adb4" offset=".0078125"/>
      <stop stop-color="#adb8be" offset=".011719"/>
      <stop stop-color="#bac4c9" offset=".015625"/>
      <stop stop-color="#c7cfd4" offset=".019531"/>
      <stop stop-color="#d5dbdf" offset=".023438"/>
      <stop stop-color="#e2e6e9" offset=".027344"/>
      <stop stop-color="#eff1f3" offset=".03125"/>
      <stop stop-color="#f7f8f9" offset=".035156"/>
      <stop stop-color="#fff" offset=".039062"/>
      <stop stop-color="#fff" offset=".046875"/>
      <stop stop-color="#fff" offset=".0625"/>
      <stop stop-color="#fff" offset=".125"/>
      <stop stop-color="#fff" offset=".25"/>
      <stop stop-color="#fff" offset=".5"/>
      <stop stop-color="#fff" offset=".75"/>
      <stop stop-color="#fff" offset=".875"/>
      <stop stop-color="#fff" offset=".9375"/>
      <stop stop-color="#fafbfc" offset=".94141"/>
      <stop stop-color="#f6f8f9" offset=".94531"/>
      <stop stop-color="#eef1f2" offset=".94922"/>
      <stop stop-color="#e6eaec" offset=".95312"/>
      <stop stop-color="#dee3e6" offset=".95703"/>
      <stop stop-color="#d6dce0" offset=".96094"/>
      <stop stop-color="#ced5d9" offset=".96484"/>
      <stop stop-color="#c6ced3" offset=".96875"/>
      <stop stop-color="#bec7cc" offset=".97266"/>
      <stop stop-color="#b7c0c6" offset=".97656"/>
      <stop stop-color="#afb9bf" offset=".98047"/>
      <stop stop-color="#a7b2b9" offset=".98438"/>
      <stop stop-color="#a0abb2" offset=".98828"/>
      <stop stop-color="#98a4ab" offset=".99219"/>
      <stop stop-color="#919da4" offset=".99609"/>
      <stop stop-color="#89959c" offset="1"/>
    </linearGradient>
    <linearGradient id="b" x1="361.31" gradientUnits="userSpaceOnUse" y1="96.177" gradientTransform="matrix(.029761 0 0 .029761 -223.16 35.124)" x2="493.7" y2="160.01">
      <stop stop-color="#cd090d" offset="0"/>
      <stop stop-color="#f39272" offset="1"/>
    </linearGradient>
    <linearGradient id="c" x1="285.2" gradientUnits="userSpaceOnUse" y1="49.936" gradientTransform="matrix(.029761 0 0 .029761 -225.49 36.668)" x2="285.2" y2="69.959">
      <stop stop-color="#fff" offset="0"/>
      <stop stop-color="#fff" stop-opacity=".49804" offset=".3"/>
      <stop stop-color="#fff" stop-opacity="0" offset="1"/>
    </linearGradient>
    <linearGradient id="d" x1="-29.473" gradientUnits="userSpaceOnUse" y1="395.42" gradientTransform="matrix(.029761 0 0 .029761 -223.16 35.133)" x2="301.59" y2="395.42">
      <stop stop-color="#8e0902" offset="0"/>
      <stop stop-color="#e2080e" offset="1"/>
    </linearGradient>
    <linearGradient id="e" x1="331.92" gradientUnits="userSpaceOnUse" y1="457.25" gradientTransform="matrix(.029761 0 0 .029761 -223.16 35.133)" x2="331.92" y2="425.5">
      <stop stop-color="#580000" stop-opacity=".86275" offset="0"/>
      <stop stop-color="#740500" stop-opacity=".51373" offset=".54748"/>
      <stop stop-color="#800700" stop-opacity=".2549" offset=".81538"/>
      <stop stop-color="#8c0a00" stop-opacity="0" offset="1"/>
    </linearGradient>
    <radialGradient id="j" gradientUnits="userSpaceOnUse" cy="426.03" cx="470.81" gradientTransform="matrix(-.040413 .038976 -.037327 -.038702 -173.52 39.174)" r="27.812">
      <stop stop-color="#fff" offset="0"/>
      <stop stop-color="#464646" offset=".5"/>
      <stop offset="1"/>
    </radialGradient>
    <radialGradient id="i" gradientUnits="userSpaceOnUse" cy="420.2" cx="477.3" gradientTransform="matrix(.029761 0 0 .029761 -222.51 28.587)" r="28.703">
      <stop stop-color="#efefef" offset="0"/>
      <stop stop-color="#afafaf" offset=".55"/>
      <stop stop-color="#3f3f3f" offset="1"/>
    </radialGradient>
    <linearGradient id="f" x1="487.97" gradientUnits="userSpaceOnUse" y1="409.71" gradientTransform="matrix(.029761 0 0 .029761 -222.52 28.587)" x2="486.58" y2="424.71">
      <stop stop-color="#fff" stop-opacity=".76562" offset="0"/>
      <stop stop-color="#aaa" stop-opacity=".47486" offset="1"/>
    </linearGradient>
    <radialGradient id="h" gradientUnits="userSpaceOnUse" cy="493.49" cx="413.12" gradientTransform="matrix(.024596 0 0 .024596 -218.62 28.911)" r="15.125">
      <stop stop-color="#fff" offset="0"/>
      <stop stop-color="#fff" stop-opacity="0" offset="1"/>
    </radialGradient>
  </defs>
  <g transform="translate(324.95 -64.968)">
    <path d="m-322.11 65.583c-1.5302 0-2.0812 0.91245-2.0812 2.4141v14.646c0 1.5017 0.55103 2.4141 2.0812 2.4141 50.164-0.0051 104.74 0.0044 152.97 0.0038h0.009c1.5304 0 2.0808-0.91249 2.0808-2.4141v-14.646c0-1.5016-0.55061-2.4141-2.0808-2.4141-52.181-0.0028-107.68-0.0038-152.98-0.0038z" stroke-width=".80213" fill="url(#a)"/>
    <path stroke-width=".80213" fill="url(#k)" d="m-288.21 65.577v19.474h69.76c0.007-6.6282 0.002-13.447 0-19.474z"/>
    <g stroke-width=".80213" fill="#fff">
      <path d="m-311.66 77.18c0 1.6632-1.093 2.8797-3.3075 3.1173-1.5967 0.17104-3.9252-0.02759-5.0277-0.15242-0.0345-0.1807-0.069-0.4083-0.069-0.58003 0-1.4636 0.7888-1.7962 1.5207-1.7962 0.76977 0 1.9768 0.13311 2.8797 0.13311 0.97891 0 1.283-0.33243 1.283-0.64624 0-0.41796-0.39933-0.59865-1.1596-0.74128l-2.1006-0.40899c-1.7488-0.33242-2.6802-1.5397-2.6802-2.8228 0-1.5587 1.1024-2.8607 3.2695-3.1078 1.6442-0.17104 3.64 0.02759 4.7331 0.16139 0.0483 0.19036 0.069 0.36141 0.069 0.56073 0 1.4541-0.76983 1.7677-1.5112 1.7677-0.56072 0-1.4446-0.10484-2.4521-0.10484-1.0265 0-1.4446 0.27588-1.4446 0.62762 0 0.3614 0.39933 0.51313 1.0454 0.62692l2.0054 0.37106c2.0624 0.38002 2.9463 1.5492 2.9463 2.9939"/>
      <path d="m-308.07 78.969c0 0.89341-0.34209 1.4066-2.091 1.4066-0.22829 0-0.42761-0.02069-0.62693-0.04829v-11.851c0-0.90287 0.30415-1.8438 2.0719-1.8438 0.21864 0 0.43727 0.02759 0.64624 0.06898v12.27"/>
      <path d="m-300.93 83.565c0.22829 0.1138 0.70328 0.25656 1.2925 0.27588 1.0075 0.0207 1.5587-0.37106 1.9768-1.2831l5.4367-12.127c-0.22829-0.1138-0.72231-0.24691-1.131-0.25657-0.70327-0.0207-1.6347 0.12346-2.243 1.5587l-1.7583 4.1533-3.45-5.6265c-0.21864-0.06898-0.76031-0.16139-1.1595-0.16139-1.2165 0-1.9009 0.44692-2.6136 1.2165l-3.355 3.6686 2.6992 4.2484c0.50347 0.77934 1.1595 1.169 2.224 1.169 0.70336 0 1.2831-0.15242 1.5492-0.28484l-3.2505-4.9042 2.3-2.4426 3.7827 5.9306-2.3 4.8662"/>
      <path d="m-272.72 77.59c0-2.0244-1.3116-3.0033-3.4025-3.469l-3.6686-0.82683c-0.66555-0.15242-1.226-0.35174-1.226-1.0169 0-0.73184 0.58004-1.0075 2.1195-1.0075 1.8154 0 2.2335 0.09518 3.8873 0.09518 0.76038 0 1.5397-0.35174 1.5397-1.8533 0-0.18069-0.0276-0.38967-0.0552-0.57037-1.112-0.09518-3.0984-0.20898-5.5409-0.20898-3.6877 0-5.0943 1.5967-5.0943 3.6305 0 1.9103 1.207 2.9653 3.336 3.4691l3.6686 0.84592c0.84593 0.20898 1.3116 0.58003 1.3116 1.112 0 0.72232-0.64624 1.0075-2.186 1.0075-1.8153 0-2.6421-0.1331-4.2959-0.1331-0.76032 0-1.5397 0.35174-1.5397 1.8533 0 0.1807 0.0207 0.38968 0.0552 0.57038 1.112 0.1138 3.4976 0.24691 5.9496 0.24691 3.6876 0 5.1418-1.5778 5.1418-3.7446"/>
      <path d="m-243.53 68.774c-1.4543 0.05519-1.9389 0.55845-1.9389 1.889v10.482c0.21863 0.03449 0.48485 0.05727 0.74127 0.05727 1.8533 0 2.281-0.54093 2.281-1.5005l-0.0276-2.9262h1.5398l2.9653 3.5355c0.56071 0.68417 1.0918 1.0371 2.3558 1.0371 0.84592 0 1.4269-0.10387 1.8926-0.33147l-3.8599-4.4587c2.1669-0.46555 3.2611-1.8735 3.2611-3.9454 0-2.5566-1.5586-3.8207-4.7046-3.8207zm1.0834 2.4592h2.8976c1.2451 0 2.224 0.19029 2.224 1.4826 0 1.093-0.74128 1.6145-2.224 1.6145h-2.8976z"/>
      <path d="m-269.44 68.79c-1.4826 0-1.9389 0.57762-1.9389 1.889v10.469c0.21863 0.04139 0.47519 0.05382 0.74128 0.05382 1.8533 0 2.2703-0.54092 2.2703-1.5005v-2.537h3.1543c3.4215 0 5.1252-1.4839 5.1252-4.259 0-2.6897-1.7037-4.113-4.9255-4.113zm1.0728 2.4592h3.0224c1.5017 0 2.2418 0.56072 2.2418 1.6537 0 1.1595-0.74011 1.7607-2.2418 1.7607h-3.0224z"/>
      <path d="m-253.05 68.461c-1.8723 0-3.355 0.48493-4.448 1.4256-1.0931 0.96945-1.6276 2.5934-1.6466 4.922 0 2.3761 0.53452 4.0405 1.5895 4.9719 1.055 0.94089 2.5566 1.4078 4.505 1.4078 1.9389 0 3.4406-0.46672 4.505-1.4078 1.055-0.93143 1.586-2.5958 1.586-4.9719-0.0207-2.3286-0.54968-3.9526-1.6431-4.922-1.093-0.94089-2.5756-1.4256-4.448-1.4256zm0 2.4806c1.036 0 1.7749 0.2747 2.2597 0.8732 0.4752 0.57038 0.72349 1.5682 0.72349 2.9939 0 1.4351-0.24829 2.4331-0.72349 3.0223-0.46554 0.60831-1.2236 0.89453-2.2597 0.89453-1.055-0.0207-1.8177-0.32464-2.3024-0.89453-0.47519-0.57038-0.7199-1.5777-0.7199-3.0223 0-1.4257 0.26622-2.4235 0.74128-2.9939 0.48486-0.59865 1.2451-0.8732 2.281-0.8732z"/>
      <path d="m-226.36 71.333h2.4235c0.79832 0 1.6157-0.37036 1.6157-1.9483 0-0.18069-0.0207-0.39933-0.0552-0.58899h-9.425c-0.79832 0-1.6062 0.37036-1.6062 1.9484 0 0.1807 0.0207 0.39933 0.0483 0.58899h3.9823v9.818c0.22828 0.04139 0.48485 0.05519 0.74127 0.05519 1.8533 0 2.281-0.54209 2.281-1.5017v-8.3734"/>
    </g>
    <path d="m-321.97 64.968c-2.281 0-2.9749 1.4158-2.9749 2.8319v15.026c0 1.4162 0.69391 2.8324 2.9749 2.8324h152.8 0.008c2.2714 0 2.9654-1.4158 2.9654-2.8319v-15.026c-0.00002-1.4162-0.69398-2.8319-2.9654-2.8319h-152.81zm0.10445 0.19026h152.6c1.5301 0 2.5662 0.90295 2.5662 2.4141v15.482c0 1.5112-1.0361 2.4145-2.5662 2.4145-52.049-0.000212-107.41-0.000424-152.59-0.000424h-0.008c-1.5302 0-2.5666-0.9029-2.5666-2.4141v-15.481c0-1.5112 1.0364-2.4141 2.5666-2.4141z" stroke-width=".80213" fill="#a1a19c"/>
    <path opacity=".4" d="m-321.77 65.983c-1.619 0.0051-2.2458 0.54881-2.2458 2.138l-0.0136 13.819c0 0.86485 0.0595 1.4471 0.22052 1.4471 0.0577-0.2756 0.10508-1.6087 1.8794-2.8158 0.66828-0.43719 1.5884-0.84604 2.7175-1.2547 1.3941-0.49423 3.1124-0.957 5.1287-1.4039 0.51845-0.11407 1.0714-0.22838 1.6245-0.34238 1.1876-0.25146 2.4062-0.45129 3.4176-0.63088 0.36537-0.05519 0.7552-0.12568 1.0711-0.17824 1.1194-0.17994 2.281-0.34581 3.297-0.49534 0.36111-0.04829 0.72771-0.1001 1.0367-0.14259 1.1974-0.15401 2.4063-0.30142 3.4222-0.42736 1.497-0.17518 3.0107-0.33605 4.286-0.4742 1.218-0.13283 2.4528-0.24334 3.491-0.34197 0.4667-0.04211 0.93954-0.08753 1.3393-0.12477 1.1976-0.11132 2.4108-0.21002 3.4309-0.29596 2.4598-0.18049 4.9638-0.36892 7.0641-0.50238 1.7052-0.10456 3.4321-0.20796 5.1718-0.30301 1.7917-0.10455 3.615-0.19289 5.4525-0.27813 3.41-0.13525 6.867-0.26432 9.7783-0.34902 1.2696-0.04829 2.5663-0.0735 3.6551-0.0999 2.2154-0.04003 4.4829-0.08467 6.3855-0.11026 1.2614-0.02206 2.5606-0.0278 3.6464-0.03606 0.47825-0.01108 0.96351-0.0074 1.37-0.01118 1.3556-0.0072 2.5442-0.0071 3.8156-0.0071 2.3146-0.000882 4.6897 0.01087 6.6836 0.03565 1.289 0.01452 2.5697 0.03692 3.8587 0.05762 0.65715 0.01933 1.3237 0.02668 1.9917 0.04601 1.2213 0.02623 2.4536 0.05521 3.6634 0.09617 2.135 0.06345 4.309 0.13976 6.1443 0.2172 1.266 0.05037 2.5549 0.11324 3.6423 0.16415 2.0623 0.10456 4.0871 0.22676 6.0572 0.3598 1.2728 0.08504 2.569 0.18577 3.6639 0.26736 3.2421 0.24493 6.4447 0.54388 9.5872 0.96664v-8.7437h-123.88c-0.6431-0.02341-1.2842-0.16449-1.8582-0.24539z" stroke-width="2.6789" fill="#fff"/>
    <g transform="matrix(1.139 0 0 1.139 39.077 24.345)">
      <g stroke-width=".95294">
        <path fill="url(#g)" d="m-206.43 36.201h-19.675v17.098h19.675z"/>
        <path d="m-212.59 51.6h0.51894v-1.8253h-0.51894z"/>
        <path d="m-210.83 50.895h0.25054c0 0.18782-0.0896 0.30422-0.3042 0.30422-0.23266 0-0.34896-0.15209-0.34896-0.51 0-0.28631 0.0806-0.50105 0.31315-0.50105 0.1253 0 0.19676 0.05356 0.25053 0.13422l0.46525-0.17889c-0.12529-0.25947-0.31315-0.39369-0.71578-0.39369-0.54578 0-0.84105 0.40263-0.84105 0.93947 0 0.59051 0.34 0.93947 0.84105 0.93947 0.5279 0 0.81421-0.30423 0.81421-0.82316v-0.24157h-0.72474v0.33104"/>
        <path d="m-223.26 51.352h-0.48316v-0.59947h0.49209c0.20569 0 0.32212 0.10742 0.32212 0.29527 0 0.17889-0.0896 0.3042-0.33105 0.3042zm-0.48316-1.3242h0.49209c0.17889 0 0.25054 0.10742 0.25054 0.24157 0 0.11636-0.0715 0.23262-0.25054 0.23262h-0.49209zm0.78735 0.59051c0.1253-0.06251 0.22356-0.17889 0.22356-0.36684 0-0.3042-0.20568-0.46525-0.51893-0.46525h-0.75157v1.8163h0.72472c0.40261 0 0.62631-0.18782 0.62631-0.56369 0-0.25051-0.16102-0.38473-0.30419-0.42051"/>
        <path d="m-221.26 50.857c0 0.33104-0.13422 0.50105-0.42053 0.50105-0.26842 0-0.41158-0.17889-0.41158-0.51894v-1.0468h-0.27735v1.0468c0 0.50105 0.23262 0.79632 0.68893 0.79632 0.44735 0 0.69789-0.27738 0.69789-0.78736v-1.0558h-0.27736v1.0647"/>
        <path d="m-219.48 50.714v0.42946c-0.0268-0.04469-0.0985-0.17889-0.14315-0.25947l-0.69789-1.1005h-0.27735v1.8163h0.26841v-1.369c0.0268 0.05356 0.0896 0.16102 0.12529 0.22378l0.73369 1.1452h0.25947v-1.816h-0.26842v0.93051"/>
        <path d="m-216.9 50.762h0.52786v-0.26842h-0.52786v-0.44735h0.90366v-0.25947h-1.1721v1.8163h1.2079v-0.27h-0.93945v-0.57262"/>
        <path d="m-215.02 50.533c-0.31316-0.08958-0.39366-0.15209-0.39366-0.28631 0-0.11636 0.0896-0.22378 0.3042-0.22378 0.17889 0 0.31316 0.06251 0.42052 0.17889l0.19673-0.19676c-0.16101-0.16102-0.34892-0.25053-0.59945-0.25053-0.33106 0-0.59947 0.19676-0.59947 0.51 0 0.3221 0.18781 0.42052 0.57262 0.53682 0.30422 0.08958 0.41158 0.16102 0.41158 0.29527 0 0.17889-0.12529 0.26843-0.37578 0.26843-0.17889 0-0.35789-0.08958-0.4742-0.21462l-0.19676 0.18782c0.15209 0.17889 0.38474 0.29527 0.64421 0.29527 0.46525 0 0.67104-0.22378 0.67104-0.55474 0-0.3221-0.21462-0.43841-0.58158-0.54577"/>
        <path d="m-213.58 49.79h-0.51001v1.8163h1.1899v-0.43842h-0.67997v-1.3779"/>
        <path d="m-218.33 51.333h-0.22378v-1.2884h0.22378c0.42948 0 0.6084 0.25947 0.6084 0.6442s-0.17889 0.6442-0.6084 0.6442zm0-1.5479h-0.4921v1.8163h0.4921c0.48314 0 0.88577-0.26842 0.88577-0.91262 0-0.63524-0.39368-0.90367-0.88577-0.90367"/>
        <path d="m-209.3 50.895 0.15209-0.52789h0.0536l0.15209 0.52789zm0.4384-1.1094h-0.50998l-0.66212 1.8163h0.53685l0.0896-0.3221h0.56366l0.0985 0.3221h0.54579l-0.66209-1.8163"/>
        <path d="m-223.39 37.792c-0.38475 0-0.69476 0.31001-0.69476 0.69475v9.3675c0 0.38474 0.31001 0.69475 0.69476 0.69475h14.349c0.38473 0 0.69475-0.31001 0.69475-0.69475v-4.9758c-0.79634-0.000953-1.4416-0.64687-1.4416-1.4434 0-0.79658 0.64526-1.4425 1.4416-1.4434v-1.5048c0-0.38474-0.31002-0.69475-0.69475-0.69475z" fill="url(#b)"/>
        <path d="m-223.67 38.326c0.16778 0.075 0.31012 0.23994 0.42525 0.50118h14.143c0.0315-0.21847 0.16604-0.38792 0.36752-0.52548-0.0842-0.10411-0.17796-0.16114-0.28248-0.16402h-14.381c-0.11832 0.02916-0.21024 0.09034-0.27186 0.18832z" fill="url(#c)"/>
        <path d="m-224.06 38.307c-0.00075 0.0029-0.00095 0.0057-0.002 0.0086v2.6543zm14.496 3.9015-0.005 0.0067c-4.7153 2.5385-9.598 2.7294-14.493 2.7483-0.00096 0.00001-0.002 0-0.003 0h-0.0205v2.8944c0 0.38474 0.31001 0.69382 0.69476 0.69382h14.349c0.38475 0 0.69476-0.30908 0.69476-0.69382v-4.9768c-0.51294-0.000631-0.96285-0.26875-1.2183-0.67243z" fill="url(#d)"/>
        <path d="m-224.07 47.807v0.04831c0 0.38473 0.31002 0.69382 0.69476 0.69382h14.349c0.38475 0 0.69476-0.30909 0.69476-0.69382v-0.04831z" fill="url(#e)"/>
        <path d="m-208.35 40.622c-0.37152 0-0.67242 0.22762-0.67242 0.50781 0 0.28018 0.3009 0.50688 0.67242 0.50688s0.67244-0.2267 0.67244-0.50688c0-0.28019-0.30092-0.50781-0.67244-0.50781zm0.71895 0.37388c0.05 0.08901 0.0781 0.18854 0.0781 0.2939 0 0.37463-0.3546 0.67802-0.79149 0.67802-0.4369 0-0.79054-0.30339-0.79054-0.67802 0-0.06423 0.0103-0.12618 0.0297-0.18508-0.0394 0.09034-0.0614 0.18937-0.0614 0.29297 0 0.42838 0.37051 0.77567 0.82774 0.77567 0.45724 0 0.82776-0.34729 0.82776-0.77567 0-0.14726-0.0439-0.28451-0.11997-0.40179z" fill="url(#j)"/>
        <path d="m-208.34 40.575c-0.47176 0-0.85472 0.38296-0.85472 0.85472s0.38296 0.85379 0.85472 0.85379 0.85379-0.38203 0.85379-0.85379-0.38203-0.85472-0.85379-0.85472zm-0.27297 0.08224c0.006 0.000731 0.16618-0.04727 0.27073-0.04079 0.11494 0.0067 0.41219 0.0526 0.55372 0.24528 0.26111 0.35542-0.0341 0.57866-0.0818 0.6213-0.003-0.03211-0.0583-0.25404-0.11435-0.35372-0.0322-0.05737-0.0874-0.12718-0.12067-0.16539-0.0542-0.06223-0.10742-0.10322-0.17314-0.1536-0.22642-0.05289-0.0392 0.0095 0.0363 0.0627 0 0 0.31722 0.28034 0.34527 0.62315-0.11805 0.07671-0.27974 0.13627-0.44779 0.13627-0.37152 0-0.6619-0.22406-0.6619-0.50425 0.0681-0.3468 0.26268-0.38516 0.2752-0.4131 0.0373-0.02268 0.0792-0.03879 0.11838-0.05784zm0.28044 1.5106c-0.75413-0.04879-0.91087-0.67287-0.76205-1.063-0.16491 0.39056 0.17946 0.84301 0.75907 0.86402 0.33144 0.0019 0.43797-0.11977 0.43797-0.11977s-0.002 0.07643-0.0102 0.11635c-0.009 0.04364-0.023 0.09167-0.023 0.09167-0.13243 0.08414-0.16816 0.08767-0.40185 0.11072z" fill="url(#i)"/>
        <path d="m-207.87 41.537c-0.0212-0.07833-0.0292-0.12734-0.0459-0.18789-0.002-0.0057-0.026-0.09053-0.0282-0.09664-0.10378-0.28942-0.24362-0.37843-0.42303-0.49168-0.0517-0.04507-0.18571-0.1073-0.24814-0.12371 0.0715-0.02497 0.0968-0.02116 0.13353-0.03354 0.17814-0.0057 0.34354 0.0097 0.53363 0.1093 0.21407 0.11215 0.33101 0.27497 0.33149 0.46151 0.00009 0.05603-0.005 0.09463-0.018 0.14281-0.0267 0.09639-0.0683 0.17918-0.14524 0.28826-0.0293 0.03735-0.0556 0.04755-0.0747 0.04021-0.0177-0.0067-0.005-0.07052-0.0154-0.10858z" fill="url(#f)"/>
        <circle cy="41.051" cx="-208.46" r=".37202" fill="url(#h)"/>
      </g>
      <path d="m-208.75 41.156c0.11416-0.12953 0.29265-0.20161 0.60269-0.15626-0.0953-0.11648-0.20983-0.20087-0.33482-0.26785-0.26329 0.05394-0.38047 0.18468-0.44644 0.34226 0.048 0.01439 0.0922 0.02439 0.17857 0.08186z" stroke="#fff" stroke-width=".029761px" fill="#fff"/>
      <path d="m-223.14 47.436c0-0.02678 0.0183-0.04469 0.0357-0.04469h0.0183c0.01-0.05356 0.0268-0.11635 0.0447-0.16102l-0.0183-0.0095c-0.0183-0.0095-0.0268-0.02678-0.01-0.05356l0.0183-0.05356c0.01-0.02678 0.0268-0.04469 0.0447-0.03574l0.0183 0.0095c0.0985-0.20568 0.27736-0.29527 0.36685-0.48315l-0.0183-0.0095c-0.0183 0-0.0183-0.02678-0.01-0.05355l0.0268-0.05356c0.01-0.0183 0.0268-0.03574 0.0357-0.02678h0.0183c0.01-0.02678 0.0268-0.05365 0.0447-0.08958l-0.0183-0.0095c-0.01-0.0095-0.01-0.03574 0.01-0.05356l0.0268-0.04469c0.0183-0.02678 0.0357-0.03574 0.0536-0.02678v0.0095h0.0268l0.0183-0.02678c0.0896-0.06251 0.19675-0.05365 0.2684 0 0.0536 0.04469 0.25053 0.24157 0.25053 0.24157s0.14316 0 0.21462-0.0183c0.8321-0.14315 1.5032-0.6442 1.852-0.48315-0.11635-0.18782-0.24158-0.41156-0.31316-0.55471l-0.12529-0.27738-0.0715 0.0095c-0.21462-0.54578-0.84104-1.7626-0.44737-2.2457 0.0357-0.03574-0.0715-0.03574-0.0985-0.06251-0.1253-0.11636 0.0536-1.8253 0.30422-2.2995l0.44735-0.20568c-0.40261 0.05356-0.66208 0.08043-1.1452 0.09849-0.34893 0.42947-0.60843 0.57262-0.8142 0.82316-0.0357 0.03574-0.0715 0.27735-0.0985 0.3042-0.0536 0.08958-0.16102 0.20591-0.25051 0.26842-0.15209 0.09849-0.34 0.16102-0.43842 0.05356-0.0268-0.03574-0.0268-0.04469-0.01-0.0628 0.0447-0.07147 0.19676-0.16996 0.24158-0.31316-0.10742 0.08062-0.16996 0.13422-0.2684 0.13422-0.0447 0.0095-0.0806-0.08958-0.0357-0.12529 0.14316-0.08958 0.20568-0.10742 0.27735-0.25051 0.0628-0.13422 0.15209-0.23264 0.28632-0.25949 0 0 0.39368-0.67103 0.71578-1.1632 0.0896-0.13422 0.30422-0.13422 0.30422-0.13422s0-0.13422 0.0896-0.16103c0.47419-0.08958 1.4137-0.36684 1.8342-0.19674 0.26843 0.10742 0.37578 0.04469 0.60843 0.16995 0.20568-0.51895 0.58156-0.62631 0.80524-0.62631 0.19676 0 0.31316 0.04469 0.46525 0.16103 0.19676 0.15208 0.24158 0.3221 0.28632 0.55473 0.0357 0.16103 0.0536 0.22378-0.0183 0.37578-0.0447 0.08958-0.12529 0.10742-0.22378 0.17889-0.15209 0.11635-0.22356 0.32208-0.28632 0.35789-0.0447 0.03574-0.0896-0.0095-0.16995 0.0183-0.19676 0.05365-0.25949 0.15209-0.38474 0.14315-0.0447-0.0095-0.0806-0.12528-0.16102-0.20568-0.19675 0.65314-0.36682 1.4136-0.42947 1.6642 0.30423 0 1.1452 0.16102 1.4047 0.21462 0.0806 0.0095 0.0447 0.08958 0.10743 0.09849 0.0985 0.0183 0.6263 0.08043 1.1542 0.33104 0.11636 0.02678 0.37578-0.0183 0.59947 0.06251 0.0268 0.0183 0.0357-0.0183 0.0715-0.0095 0.87682 0.28631 1.6105 0.71578 2.3084 0.85894 0.26842 0.0095 0.86787-0.08958 1.1184-0.12529 0.10742-0.0183 0.24158-0.0628 0.31316 0.08043 0.0183 0.03574-0.01 0.05356-0.0536 0.10742l-0.0268 0.02678 0.0183 0.0183c0.01 0.0095 0 0.03573-0.0183 0.05355l-0.0447 0.03574c-0.0183 0.0183-0.0447 0.0183-0.0537 0.0095l-0.0183-0.0183-0.0536 0.03574 0.0183 0.0183c0.01 0.0183 0 0.04469-0.0268 0.05356l-0.0447 0.03574c-0.0183 0.0183-0.0447 0.0183-0.0536 0.0095l-0.01-0.0183c-0.1789 0.13422-0.36684 0.26842-0.57264 0.42052l0.0274 0.02659c0.01 0.0095 0 0.03574-0.0268 0.05356l-0.0447 0.03574c-0.0183 0.0095-0.0447 0.0183-0.0536 0l-0.0183-0.02678-0.0625 0.05356 0.0183 0.02678c0.01 0.0095 0 0.03573-0.0183 0.04469l-0.0447 0.03574c-0.0268 0.0183-0.0447 0.0183-0.0536 0.0095l-0.0268-0.02678c-0.0896 0.06251-0.19675 0.09849-0.30419-0.02678-0.0806-0.0985-0.10743-0.3042-0.19676-0.31316-1.0647-0.28631-1.521-0.16102-2.1831-0.32212-0.19676-0.05356-0.30421-0.23262-0.55471-0.24155-0.53684-0.0183-0.69789-0.02678-1.2794-0.04469l-0.0268 0.08062h-1.3779l0.0985 0.80525c0.0183 0.08958 0 0.08958-0.0985 0.12528 0.0715 0.34894 0.22377 1.1632 0.21461 1.5121-0.01 0.31316-0.2863 0.62629-0.70682 0.66209-0.0628 0.0095-0.01 0.06251-0.0628 0.06251-0.65312 0.0628-2.0668 0.11635-2.4605 0.14316-0.21462 0.18782-0.42948 0.21461-0.79632 0.70685-0.0715 0.09849-0.25946 0.04469-0.25946-0.08062 0-0.05356 0-0.14316 0.01-0.18782l-0.0268-0.0095c-0.01 0-0.0268-0.0183-0.0183-0.04469v-0.05356" stroke-width=".95294" fill="#fff"/>
    </g>
    <g fill="#fff">
      <path opacity=".4" d="m-169.28 65.982c-0.48888 0-0.97952 0.24588-1.6413 0.24588h-25.121v7.8681c2.6178 0.23852 5.1265 0.51647 7.4749 0.82862 3.735 0.50374 7.0945 1.0942 9.9643 1.7784 1.1602 0.27574 2.239 0.55914 3.2364 0.873 2.8292 0.86487 4.9664 1.8627 6.2588 2.9936 1.4146 1.3021 1.5971 2.54 1.6488 2.8156 0.14179 0 0.1944-0.58197 0.1944-1.4469v-13.818c0-1.5967-0.55981-2.1384-2.015-2.1384z" stroke-width="2.5177"/>
      <path stroke-width=".92584" d="m-189.49 72.982c-0.15751-0.13038-0.28877-0.24362-0.47254-0.57125-0.51628-0.81468-0.53378-1.8914 0.52506-2.2849l3.8416-1.3006h1.8814v10.983c0 0.84269-0.22752 1.4325-1.5751 1.4325-0.54253 0-1.1813-0.05694-1.4352-0.11289v-9.0729l-2.7652 0.92739"/>
      <path stroke-width=".87509" d="m-176.73 81.244c-0.74381 0-1.4438-0.12952-2.0739-0.37541-0.62131-0.2669-1.1551-0.66417-1.6188-1.1831-0.44629-0.5198-0.80506-1.163-1.0676-1.9348-0.25377-0.76569-0.37627-1.6749-0.37627-2.7145s0.1225-1.9415 0.37627-2.7139c0.26253-0.76516 0.6213-1.4147 1.0676-1.9345 0.46379-0.51971 0.99755-0.90231 1.6188-1.1549 0.63004-0.26708 1.33-0.4042 2.0739-0.4042 0.73507 0 1.4001 0.13712 2.0215 0.4042 0.6388 0.25263 1.1901 0.63521 1.6451 1.1549 0.46378 0.51979 0.82257 1.1693 1.0676 1.9345 0.27127 0.77233 0.41128 1.6743 0.41128 2.7139s-0.14001 1.9487-0.41128 2.7145c-0.24502 0.77182-0.60381 1.415-1.0676 1.9348-0.45504 0.51893-1.0063 0.91623-1.6451 1.1831-0.62131 0.2459-1.2864 0.37541-2.0215 0.37541zm0-2.4826c0.70005 0 1.2251-0.29666 1.5926-0.89518 0.3588-0.59243 0.54256-1.5375 0.54256-2.83 0-1.2846-0.18376-2.2303-0.54256-2.8294-0.36752-0.59189-0.89252-0.89501-1.5926-0.89501-0.70882 0-1.2514 0.30313-1.6101 0.89501-0.37628 0.59916-0.55129 1.5448-0.55129 2.8294 0 1.2925 0.17501 2.2376 0.55129 2.83 0.35878 0.59855 0.90128 0.89518 1.6101 0.89518z"/>
    </g>
  </g>
</svg>
