<svg width="569.688" height="120" viewBox="0 0 150.73 31.75" xmlns="http://www.w3.org/2000/svg">
    <defs>
        <linearGradient id="a" x1="-8600.5" x2="-8600.5" y1="-4719.1" y2="-4553.4" gradientTransform="rotate(180 -1256.85 -580.3) scale(.26458)" gradientUnits="userSpaceOnUse">
            <stop stop-color="#a80002" offset="0"/>
            <stop stop-color="#ea021a" offset="1"/>
        </linearGradient>
        <linearGradient id="b" x1="99.851" x2="99.851" y1="138.67" y2="-27.096" gradientTransform="translate(-339.95 51.315) scale(.26458)" gradientUnits="userSpaceOnUse">
            <stop stop-color="#00043b" offset="0"/>
            <stop stop-color="#002672" offset="1"/>
        </linearGradient>
    </defs>
    <g stroke-width=".265">
        <path d="M-287.11 51.315h95.779c1.164 0 2.117.953 2.117 2.117v27.517a2.123 2.123 0 0 1-2.117 2.116h-95.779z" fill="url(#a)" transform="translate(339.95 -51.315)"/>
        <path d="M-287.11 83.065h-50.721a2.123 2.123 0 0 1-2.117-2.117V53.405c0-1.11.926-2.09 2.09-2.09h50.747z" fill="url(#b)" transform="translate(339.95 -51.315)"/>
        <path d="M2.12 0h146.5c1.164 0 2.117.953 2.117 2.117v10.107l-147.69 5.9a3.153 3.153 0 0 0-3.043 3.148V2.116C.004.952.957 0 2.121 0z" fill="#fff" opacity=".2"/>
        <path d="M35.72 28.232c.344.185 1.032.397 1.931.397 1.508.026 2.329-.556 2.937-1.905l8.096-18.045c-.343-.185-1.084-.37-1.666-.397-1.032-.026-2.435.185-3.334 2.328l-2.62 6.191-5.159-8.334c-.344-.106-1.138-.238-1.746-.238-1.8 0-2.831.661-3.89 1.8l-4.974 5.45 4.022 6.323c.74 1.164 1.72 1.746 3.307 1.746 1.032 0 1.905-.238 2.302-.423l-4.842-7.303 3.44-3.624 5.635 8.837zm-10.61-6.826c0 1.323-.53 2.09-3.122 2.09-.344 0-.635-.026-.926-.08V5.797c0-1.35.45-2.726 3.07-2.726.317 0 .66.027.978.106zm-5.371-2.646c0 2.487-1.614 4.286-4.921 4.657-2.381.264-5.848-.053-7.488-.238a4.92 4.92 0 0 1-.106-.874c0-2.17 1.164-2.672 2.276-2.672 1.137 0 2.937.185 4.286.185 1.482 0 1.905-.502 1.905-.979 0-.635-.582-.873-1.746-1.11l-3.096-.556C8.256 16.67 6.88 14.87 6.88 12.966c0-2.329 1.64-4.26 4.869-4.63 2.434-.265 5.424.026 7.037.238.053.29.08.555.08.846 0 2.17-1.138 2.62-2.25 2.62-.846 0-2.142-.16-3.65-.16-1.535 0-2.143.424-2.143.927 0 .53.608.767 1.56.926l2.99.556c3.07.582 4.366 2.328 4.366 4.471m39.608 3.81c-.159-1.243.238-1.905.9-1.905.714 0 2.434.794 4.868.794 2.593 0 3.572-.953 3.572-2.17 0-.846-.37-1.534-2.752-2.196l-2.646-.74c-2.83-.768-3.995-2.197-3.995-3.996 0-2.17 1.72-4.18 5.715-4.18 1.8 0 4.022.423 5.345.952.158 1.217-.238 1.852-.847 1.852-.661 0-2.275-.74-4.498-.74-2.381 0-3.28.873-3.28 2.01 0 .741.343 1.43 2.513 2.038l2.699.793c2.99.847 4.206 2.25 4.206 4.128 0 2.328-1.825 4.392-6.085 4.392-1.958 0-4.313-.476-5.715-1.032m29.263-6.694c0 4.79-3.36 7.7-7.144 7.7-2.275 0-4.1-1.059-5.186-2.593v6.482c0 .556-.317.926-1.27.926-.423 0-.9-.053-1.11-.132V8.548c.211-.053.687-.159 1.11-.159.953 0 1.27.37 1.27.926v1.482c1.085-1.535 2.91-2.593 5.186-2.593 3.784.026 7.144 2.91 7.144 7.673m-2.434 0c0-3.281-2.196-5.53-5.133-5.53-2.037 0-3.916 1.164-4.763 2.884v5.37c.847 1.694 2.726 2.885 4.763 2.885 2.937-.027 5.133-2.275 5.133-5.61m4.789 0c0-4.391 3.254-7.646 7.593-7.646 4.366 0 7.594 3.281 7.594 7.647 0 4.418-3.255 7.7-7.594 7.7s-7.593-3.282-7.593-7.7m12.753 0c0-3.387-2.328-5.53-5.16-5.53S93.4 12.49 93.4 15.877c0 3.44 2.328 5.582 5.16 5.582s5.159-2.143 5.159-5.582m14.34-6.324c0 .9-.397 1.111-1.27 1.111-1.693 0-4.101.556-5.318 3.281v8.52c0 .582-.318.926-1.27.926-.424 0-.9-.053-1.111-.132V8.548c.211-.053.688-.16 1.11-.16.953 0 1.27.371 1.27.927v1.8c1.35-1.959 3.705-3.017 6.483-2.567.027.185.106.635.106 1.005m13.758 13.018c-.159-1.244.238-1.905.9-1.905.714 0 2.434.794 4.868.794 2.593 0 3.572-.953 3.572-2.17 0-.847-.37-1.534-2.752-2.196l-2.646-.74c-2.83-.768-3.995-2.197-3.995-3.996 0-2.17 1.72-4.18 5.715-4.18 1.8 0 4.022.423 5.345.952.158 1.217-.239 1.852-.847 1.852-.635 0-2.275-.74-4.498-.74-2.381 0-3.28.873-3.28 2.01 0 .741.343 1.429 2.513 2.038l2.699.74c2.99.847 4.206 2.25 4.206 4.128 0 2.328-1.825 4.392-6.085 4.392-1.931.053-4.286-.423-5.715-.979m-2.434 0a9.97 9.97 0 0 1-4.26.979c-2.91 0-4.657-1.667-4.657-4.55V5.77c0-.555.318-.926 1.27-.926.424 0 .9.106 1.112.185v3.493h5.9c.026.185.08.582.08.952 0 .873-.371 1.138-.9 1.138h-5.107v8.176c0 1.799.873 2.566 2.54 2.566 1.508 0 2.408-.582 3.122-.582.688.053 1.032.662.9 1.8" fill="#fff"/>
    </g>
</svg>
