<?xml version="1.0"?>
<svg xmlns="http://www.w3.org/2000/svg" xmlns:xlink="http://www.w3.org/1999/xlink" height="72.072" width="600" version="1.1" viewBox="0 0 158.75 19.069181">
  <defs>
    <linearGradient id="e" gradientUnits="userSpaceOnUse" x2=".99201" gradientTransform="matrix(0 18.243 201.18 0 -83.441 184.3)" x1=".0084819" y1="0" y2="0">
      <stop stop-color="#0f1c4d" offset="0"/>
      <stop stop-color="#101e51" offset=".0039062"/>
      <stop stop-color="#101f54" offset=".0078125"/>
      <stop stop-color="#112157" offset=".011719"/>
      <stop stop-color="#12225a" offset=".015625"/>
      <stop stop-color="#13245d" offset=".019531"/>
      <stop stop-color="#132560" offset=".023438"/>
      <stop stop-color="#142662" offset=".027344"/>
      <stop stop-color="#142764" offset=".03125"/>
      <stop stop-color="#142764" offset=".0625"/>
      <stop stop-color="#142764" offset=".125"/>
      <stop stop-color="#142764" offset=".25"/>
      <stop stop-color="#142764" offset=".5"/>
      <stop stop-color="#142764" offset=".75"/>
      <stop stop-color="#142764" offset=".875"/>
      <stop stop-color="#142764" offset=".89062"/>
      <stop stop-color="#142764" offset=".89844"/>
      <stop stop-color="#142763" offset=".90234"/>
      <stop stop-color="#142763" offset=".90625"/>
      <stop stop-color="#132662" offset=".91016"/>
      <stop stop-color="#132661" offset=".91406"/>
      <stop stop-color="#132560" offset=".91797"/>
      <stop stop-color="#13255f" offset=".92188"/>
      <stop stop-color="#12245d" offset=".92578"/>
      <stop stop-color="#12245c" offset=".92969"/>
      <stop stop-color="#12235b" offset=".93359"/>
      <stop stop-color="#12235a" offset=".9375"/>
      <stop stop-color="#112259" offset=".94141"/>
      <stop stop-color="#112258" offset=".94531"/>
      <stop stop-color="#112157" offset=".94922"/>
      <stop stop-color="#112056" offset=".95312"/>
      <stop stop-color="#102055" offset=".95703"/>
      <stop stop-color="#102054" offset=".96094"/>
      <stop stop-color="#101f53" offset=".96484"/>
      <stop stop-color="#101e52" offset=".96875"/>
      <stop stop-color="#0f1d50" offset=".97266"/>
      <stop stop-color="#0f1d4f" offset=".97656"/>
      <stop stop-color="#0f1c4e" offset=".98047"/>
      <stop stop-color="#0f1c4d" offset=".98438"/>
      <stop stop-color="#0e1b4c" offset=".98828"/>
      <stop stop-color="#0e1b4b" offset=".99219"/>
      <stop stop-color="#0e1a4a" offset=".99609"/>
      <stop stop-color="#0e1949" offset="1"/>
    </linearGradient>
    <linearGradient id="a" gradientUnits="userSpaceOnUse" gradientTransform="matrix(0 -17.942 17.942 0 208.88 202.4)" x1="7.105e-15" x2="1" y1="0" y2="0">
      <stop stop-color="#552227" offset="0"/>
      <stop stop-color="#5a2227" offset=".0039062"/>
      <stop stop-color="#602228" offset=".0078125"/>
      <stop stop-color="#662329" offset=".011719"/>
      <stop stop-color="#6c232a" offset=".015625"/>
      <stop stop-color="#71232a" offset=".019531"/>
      <stop stop-color="#77232a" offset=".023438"/>
      <stop stop-color="#7d232a" offset=".027344"/>
      <stop stop-color="#84222b" offset=".03125"/>
      <stop stop-color="#8a212b" offset=".035156"/>
      <stop stop-color="#90202b" offset=".039062"/>
      <stop stop-color="#961f2b" offset=".042969"/>
      <stop stop-color="#9d1d2b" offset=".046875"/>
      <stop stop-color="#a31a2a" offset=".050781"/>
      <stop stop-color="#a9172a" offset=".054688"/>
      <stop stop-color="#b01329" offset=".058594"/>
      <stop stop-color="#b70f29" offset=".0625"/>
      <stop stop-color="#bd0829" offset=".066406"/>
      <stop stop-color="#c40228" offset=".070312"/>
      <stop stop-color="#c70028" offset=".074219"/>
      <stop stop-color="#ca0027" offset=".078125"/>
      <stop stop-color="#ca0027" offset=".09375"/>
      <stop stop-color="#ca0027" offset=".125"/>
      <stop stop-color="#ca0027" offset=".25"/>
      <stop stop-color="#ca0027" offset=".5"/>
      <stop stop-color="#ca0027" offset=".75"/>
      <stop stop-color="#ca0027" offset=".875"/>
      <stop stop-color="#ca0027" offset=".90625"/>
      <stop stop-color="#ca0027" offset=".91406"/>
      <stop stop-color="#cb0028" offset=".91797"/>
      <stop stop-color="#cc0029" offset=".92188"/>
      <stop stop-color="#ce002a" offset=".92578"/>
      <stop stop-color="#cf012a" offset=".92969"/>
      <stop stop-color="#d1052b" offset=".93359"/>
      <stop stop-color="#d2092c" offset=".9375"/>
      <stop stop-color="#d40b2d" offset=".94141"/>
      <stop stop-color="#d50d2e" offset=".94531"/>
      <stop stop-color="#d60f2f" offset=".94922"/>
      <stop stop-color="#d71130" offset=".95312"/>
      <stop stop-color="#d91431" offset=".95703"/>
      <stop stop-color="#da1732" offset=".96094"/>
      <stop stop-color="#dc1933" offset=".96484"/>
      <stop stop-color="#dd1a34" offset=".96875"/>
      <stop stop-color="#df1c35" offset=".97266"/>
      <stop stop-color="#e01d35" offset=".97656"/>
      <stop stop-color="#e12036" offset=".98047"/>
      <stop stop-color="#e22237" offset=".98438"/>
      <stop stop-color="#e42439" offset=".98828"/>
      <stop stop-color="#e6253a" offset=".99219"/>
      <stop stop-color="#e7273a" offset=".99609"/>
      <stop stop-color="#e8283b" offset="1"/>
    </linearGradient>
    <linearGradient id="f" gradientUnits="userSpaceOnUse" x2=".99995" gradientTransform="matrix(0 17.949 -17.949 0 251.35 184.45)" x1="-1.4211e-14" y1="0" y2="0">
      <stop stop-color="#88949b" offset="0"/>
      <stop stop-color="#94a0a7" offset=".0039062"/>
      <stop stop-color="#a1adb4" offset=".0078125"/>
      <stop stop-color="#adb8be" offset=".011719"/>
      <stop stop-color="#bac4c9" offset=".015625"/>
      <stop stop-color="#c7cfd4" offset=".019531"/>
      <stop stop-color="#d5dbdf" offset=".023438"/>
      <stop stop-color="#e2e6e9" offset=".027344"/>
      <stop stop-color="#eff1f3" offset=".03125"/>
      <stop stop-color="#f7f8f9" offset=".035156"/>
      <stop stop-color="#fff" offset=".039062"/>
      <stop stop-color="#fff" offset=".046875"/>
      <stop stop-color="#fff" offset=".0625"/>
      <stop stop-color="#fff" offset=".125"/>
      <stop stop-color="#fff" offset=".25"/>
      <stop stop-color="#fff" offset=".5"/>
      <stop stop-color="#fff" offset=".75"/>
      <stop stop-color="#fff" offset=".875"/>
      <stop stop-color="#fff" offset=".9375"/>
      <stop stop-color="#fafbfc" offset=".94141"/>
      <stop stop-color="#f6f8f9" offset=".94531"/>
      <stop stop-color="#eef1f2" offset=".94922"/>
      <stop stop-color="#e6eaec" offset=".95312"/>
      <stop stop-color="#dee3e6" offset=".95703"/>
      <stop stop-color="#d6dce0" offset=".96094"/>
      <stop stop-color="#ced5d9" offset=".96484"/>
      <stop stop-color="#c6ced3" offset=".96875"/>
      <stop stop-color="#bec7cc" offset=".97266"/>
      <stop stop-color="#b7c0c6" offset=".97656"/>
      <stop stop-color="#afb9bf" offset=".98047"/>
      <stop stop-color="#a7b2b9" offset=".98438"/>
      <stop stop-color="#a0abb2" offset=".98828"/>
      <stop stop-color="#98a4ab" offset=".99219"/>
      <stop stop-color="#919da4" offset=".99609"/>
      <stop stop-color="#89959c" offset="1"/>
    </linearGradient>
    <linearGradient id="k" y2="160.01" gradientUnits="userSpaceOnUse" x2="493.7" gradientTransform="matrix(.031231 0 0 .031231 244.11 183.33)" y1="96.177" x1="361.31">
      <stop stop-color="#cd090d" offset="0"/>
      <stop stop-color="#f39272" offset="1"/>
    </linearGradient>
    <linearGradient id="j" y2="69.959" gradientUnits="userSpaceOnUse" x2="285.2" gradientTransform="matrix(.031231 0 0 .031231 241.67 184.95)" y1="49.936" x1="285.2">
      <stop stop-color="#fff" offset="0"/>
      <stop stop-color="#fff" stop-opacity=".49804" offset="0.3"/>
      <stop stop-color="#fff" stop-opacity="0" offset="1"/>
    </linearGradient>
    <linearGradient id="i" y2="395.42" gradientUnits="userSpaceOnUse" x2="301.59" gradientTransform="matrix(.031231 0 0 .031231 244.11 183.34)" y1="395.42" x1="-29.473">
      <stop stop-color="#8e0902" offset="0"/>
      <stop stop-color="#e2080e" offset="1"/>
    </linearGradient>
    <linearGradient id="h" y2="425.5" gradientUnits="userSpaceOnUse" x2="331.92" gradientTransform="matrix(.031231 0 0 .031231 244.11 183.34)" y1="457.25" x1="331.92">
      <stop stop-color="#580000" stop-opacity=".86275" offset="0"/>
      <stop stop-color="#740500" stop-opacity=".51373" offset=".54748"/>
      <stop stop-color="#800700" stop-opacity=".25490" offset=".81538"/>
      <stop stop-color="#8c0a00" stop-opacity="0" offset="1"/>
    </linearGradient>
    <radialGradient id="b" gradientUnits="userSpaceOnUse" cy="426.03" cx="470.81" gradientTransform="matrix(-.042409 .040901 -.039170 -.040613 296.2 187.58)" r="27.812">
      <stop stop-color="#fff" offset="0"/>
      <stop stop-color="#464646" offset=".5"/>
      <stop offset="1"/>
    </radialGradient>
    <radialGradient id="c" cx="477.3" gradientUnits="userSpaceOnUse" cy="420.2" r="28.703" gradientTransform="matrix(.031231 0 0 .031231 244.79 176.47)">
      <stop stop-color="#efefef" offset="0"/>
      <stop stop-color="#afafaf" offset="0.55"/>
      <stop stop-color="#3f3f3f" offset="1"/>
    </radialGradient>
    <linearGradient id="g" y2="424.71" gradientUnits="userSpaceOnUse" x2="486.58" gradientTransform="matrix(.031231 0 0 .031231 244.78 176.47)" y1="409.71" x1="487.97">
      <stop stop-color="#fff" stop-opacity=".76562" offset="0"/>
      <stop stop-color="#aaa" stop-opacity=".47486" offset="1"/>
    </linearGradient>
    <radialGradient id="d" cx="413.12" gradientUnits="userSpaceOnUse" cy="493.49" r="15.125" gradientTransform="matrix(.025811 0 0 .025811 248.87 176.81)">
      <stop stop-color="#fff" offset="0"/>
      <stop stop-color="#fff" stop-opacity="0" offset="1"/>
    </radialGradient>
  </defs>
  <g transform="translate(-142.88 -183.9)">
    <path d="m145.48 184.46c-1.4193 0-1.9154 0.84124-1.9154 2.2252v13.489c0 1.3928 0.49601 2.2252 1.9154 2.2252h153.43c1.4104 0 1.9188-0.83245 1.9188-2.2252v-13.489c0-1.384-0.50895-2.2252-1.9188-2.2252h-153.43z" stroke-width="2.8889" fill="url(#e)"/>
    <path stroke-width=".86993" fill="url(#a)" d="m176.73 184.46c-0.007 5.8826 0.005 12.348 0 17.939h64.292c0.002-6.0851 0.004-12.625 0.004-17.939z"/>
    <g fill="#fff">
      <g stroke-width=".86993">
        <path d="m191.01 195.53c0-1.8658-1.2089-2.768-3.1447-3.1973l-3.3811-0.76201c-0.6132-0.14035-1.1213-0.33317-1.1213-0.9461 0-0.66566 0.52531-0.91966 1.9445-0.91966 1.6731 0 2.0672 0.0879 3.5827 0.0879 0.70075 0 1.4191-0.32432 1.4191-1.7081 0-0.16692-0.0204-0.35906-0.0477-0.52599-1.0249-0.0879-2.8468-0.19213-5.1068-0.19213-3.39 0-4.6864 1.4715-4.6864 3.3461 0 1.7606 1.1038 2.733 3.0658 3.1972l3.3812 0.77958c0.78831 0.18396 1.2176 0.53485 1.2176 1.0249 0 0.66566-0.60435 0.91973-2.0147 0.91973-1.673 0-2.4439-0.11378-3.968-0.11378-0.69204 0-1.4103 0.32432-1.4103 1.708 0 0.16692 0.0204 0.3502 0.0477 0.52599 1.0336 0.10492 3.2322 0.21939 5.4834 0.21939 3.3987 0 4.7477-1.4453 4.7477-3.4425"/>
        <path d="m217.91 187.4c-1.349 0.0477-1.7958 0.51698-1.7958 1.743v9.6614c0.21053 0.0341 0.44688 0.0481 0.68316 0.0481 1.7081 0 2.1022-0.49983 2.1022-1.3844l-0.0202-2.6975 0.003 0.008h1.419l2.7326 3.2582c0.5076 0.63091 1.0073 0.95498 2.1637 0.95498 0.7883 0 1.3138-0.0965 1.743-0.30644l-3.5564-4.1083c1.9971-0.42924 3.0045-1.7259 3.0045-3.6442 0-2.3475-1.4363-3.5124-4.3356-3.5124zm0.98961 2.2639h2.6805c1.1388 0 2.05 0.17563 2.05 1.3663 0 1.0073-0.68352 1.4888-2.05 1.4888h-2.6805z"/>
        <path d="m194.03 187.43c-1.3665 0-1.7958 0.52637-1.7958 1.7436v9.6402c0.20167 0.0341 0.44681 0.0476 0.68316 0.0476 1.7081 0 2.1027-0.49033 2.1027-1.3751v-2.3389h2.899c3.1622 0 4.7305-1.3665 4.7305-3.9243 0-2.479-1.5682-3.793-4.5465-3.793zm0.9896 2.2691h2.7771c1.3839 0 2.0671 0.50738 2.0671 1.5239 0 1.0686-0.68314 1.6206-2.0671 1.6206h-2.7771z"/>
        <path d="m209.13 187.12c-1.7257 0-3.0834 0.43834-4.0907 1.3141-1.0073 0.88471-1.5069 2.3911-1.5244 4.5372 0 2.1899 0.49954 3.7232 1.4717 4.5816 0.97217 0.86705 2.3567 1.296 4.1434 1.296 1.7954-0.00009 3.1794-0.429 4.1517-1.296 0.9722-0.85848 1.4718-2.3918 1.4718-4.5816-0.0204-2.1461-0.51751-3.6525-1.5245-4.5372-1.0074-0.87592-2.3734-1.3141-4.099-1.3141zm0 2.2862c0.95476 0 1.6379 0.25435 2.0846 0.79737 0.44695 0.53485 0.6656 1.4538 0.6656 2.7678s-0.21933 2.2341-0.6656 2.7859c-0.42038 0.56074-1.1299 0.81442-2.0846 0.81442-0.97233-0.0204-1.6643-0.28931-2.111-0.81442-0.44697-0.53485-0.6656-1.4544-0.6656-2.7859 0-1.3139 0.23641-2.2335 0.68316-2.7678 0.4381-0.54302 1.1386-0.79737 2.0934-0.79737z"/>
        <path d="m233.73 189.76h2.2337c0.73571 0 1.4891-0.34135 1.4891-1.7957 0-0.16625-0.0204-0.37678-0.0477-0.54303h-8.6892c-0.72705 0-1.4803 0.34135-1.4803 1.7957 0 0.16693 0.0204 0.36792 0.0477 0.54302h3.6614v9.0482c0.21054 0.0341 0.44696 0.0477 0.69197 0.0477 1.6994 0 2.0936-0.49941 2.0936-1.3841v-7.7162"/>
        <path d="m155.11 195.15c0 1.5416-1.0073 2.6629-3.0483 2.8818-1.4715 0.15739-3.6177-0.0273-4.625-0.14853-0.0477-0.15739-0.0702-0.36792-0.0702-0.52599 0-1.3489 0.72705-1.6555 1.4016-1.6555 0.70947 0 1.822 0.12264 2.6541 0.12264 0.91101 0 1.1826-0.3066 1.1826-0.60434 0-0.38496-0.36792-0.54303-1.0686-0.67452l-1.9358-0.37678c-1.6118-0.3066-2.4702-1.4191-2.4702-2.6016 0-1.4365 1.0161-2.6454 3.022-2.8644 1.5066-0.16625 3.3461 0.0204 4.3535 0.14853 0.0477 0.16692 0.0613 0.33317 0.0613 0.51713 0 1.3401-0.70955 1.6292-1.3928 1.6292-0.51645 0-1.3315-0.0968-2.26-0.0968-0.93725 0-1.3314 0.25413-1.3314 0.57777 0 0.33317 0.37678 0.47284 0.96348 0.57845l1.8482 0.34135c1.9008 0.3502 2.7154 1.4277 2.7154 2.7504"/>
        <path d="m158.43 196.8c0 0.82346-0.32432 1.2964-1.9359 1.2964-0.21054 0-0.39381-0.0204-0.57846-0.0477v-10.923c0-0.83212 0.28003-1.6992 1.9096-1.6992 0.20167 0 0.41221 0.0204 0.60434 0.0613v11.308"/>
        <path d="m165 201.02c0.21053 0.11378 0.64795 0.24528 1.1912 0.25413 0.92852 0.0273 1.4453-0.33317 1.822-1.1737l5.0106-11.177c-0.21055-0.11378-0.66567-0.23642-1.0424-0.24528-0.63978-0.007-1.5066 0.12264-2.0585 1.4453l-1.6205 3.8279-3.1884-5.1856c-0.20168-0.0613-0.70076-0.14853-1.0687-0.14853-1.1299 0-1.7518 0.41221-2.4 1.1212l-3.101 3.3812 2.4878 3.9155c0.46399 0.71833 1.0686 1.0774 2.0497 1.0774 0.64795 0 1.1824-0.14853 1.4278-0.26231l-2.9958-4.5199 2.1286-2.2511 3.4775 5.4659-2.1198 4.476"/>
      </g>
      <path opacity=".4" d="m145.45 184.82c-1.2495 0.001-1.7323 0.50146-1.7323 1.9717v12.735c0 0.78831 0.0477 1.3238 0.15875 1.3238 0.0477-0.24528 0.077-1.4702 1.426-2.5914 0.49056-0.37678 1.1856-0.73755 2.0702-1.088 2.7794-0.95523 5.433-1.5901 7.746-2.028 0.27457-0.0341 0.56482-0.10152 0.80281-0.14444 0.84874-0.1533 1.7401-0.29434 2.5139-0.42243 0.32772-0.0409 0.6752-0.10424 0.95768-0.14785 0.91654-0.13354 1.8388-0.26163 2.616-0.36996 1.1477-0.14922 2.3039-0.28889 3.2744-0.40812 0.92423-0.11242 1.8659-0.20713 2.6548-0.29229h0.004c0.21054-0.0273 0.43061-0.0477 0.64046-0.0681 0.90345-0.10424 1.8362-0.1935 2.6125-0.27117 1.9186-0.16216 3.8977-0.33658 5.5384-0.46467 1.4352-0.1131 2.8898-0.22075 4.1124-0.31001 1.8177-0.11242 3.69-0.22824 5.2497-0.32022 2.1444-0.11515 4.3156-0.23166 6.1439-0.31001 0.96504-0.0409 1.9584-0.0797 2.785-0.11242l4.8448-0.17238c0.92851-0.0272 1.8477-0.0545 2.785-0.0811 0.33454 0.005 0.70981-0.0136 1.007-0.0204 1.0022-0.0272 2.0364-0.0477 2.9012-0.0613 1.6993-0.0341 3.406-0.0613 5.1053-0.0777 0.97233-0.007 1.9465-0.0204 2.9188-0.0272 0.50283-0.007 1.0229-0.004 1.5316-0.004h2.785l4.7285 0.0272c0.91974 0.0204 1.8494 0.0272 2.7604 0.0477 1.5329 0.0136 3.0513 0.0477 4.5666 0.0845 0.9339 0.0272 1.858 0.0545 2.7745 0.0777 2.479 0.079 4.9126 0.18532 7.2953 0.29911v-6.5524h-94.177c-0.48442-0.0204-0.9649-0.14989-1.3978-0.22552z" stroke-width="2.2424"/>
    </g>
    <path d="m145.61 183.9c-2.0935 0-2.7322 1.3039-2.7322 2.609v13.851c0 1.3052 0.63841 2.609 2.7322 2.609h153.28c2.0935 0 2.7392-1.3037 2.7392-2.609v-13.851c0-1.3051-0.6459-2.609-2.7392-2.609h-153.28zm0.0947 0.17646h153.08c1.4102 0 2.3661 0.83246 2.3661 2.2252v14.27c0 1.3928-0.95584 2.2252-2.3661 2.2252h-153.08c-1.4103 0-2.3625-0.83239-2.3625-2.2252v-14.27c0-1.3928 0.95224-2.2252 2.3625-2.2252z" stroke-width=".86993" fill="#a1a19c"/>
    <path d="m261.67 184.46h-20.647v17.942h20.647z" fill="url(#f)"/>
    <g>
      <path d="m255.2 200.62h0.54456v-1.9154h-0.54456z"/>
      <path d="m257.05 199.88h0.26291c0 0.19709-0.094 0.31924-0.31922 0.31924-0.24414 0-0.36619-0.1596-0.36619-0.53518 0-0.30045 0.0846-0.52579 0.32862-0.52579 0.13148 0 0.20647 0.0562 0.2629 0.14085l0.48822-0.18772c-0.13147-0.27228-0.32862-0.41313-0.75112-0.41313-0.57273 0-0.88258 0.42251-0.88258 0.98586 0 0.61967 0.35679 0.98586 0.88258 0.98586 0.55396 0 0.85441-0.31925 0.85441-0.86381v-0.2535h-0.76053v0.34739"/>
      <path d="m244 200.36h-0.50702v-0.62907h0.51639c0.21584 0 0.33802 0.11273 0.33802 0.30985 0 0.18772-0.094 0.31922-0.34739 0.31922zm-0.50702-1.3896h0.51639c0.18772 0 0.26291 0.11272 0.26291 0.2535 0 0.12211-0.075 0.24411-0.26291 0.24411h-0.51639zm0.82624 0.61967c0.13148-0.0656 0.23459-0.18772 0.23459-0.38496 0-0.31922-0.21584-0.48822-0.54456-0.48822h-0.78867v1.906h0.7605c0.4225 0 0.65724-0.19709 0.65724-0.59152 0-0.26288-0.16897-0.40373-0.31922-0.44127"/>
      <path d="m246.1 199.84c0 0.34739-0.14085 0.52579-0.4413 0.52579-0.28167 0-0.4319-0.18772-0.4319-0.54456v-1.0985h-0.29105v1.0985c0 0.52579 0.24411 0.83564 0.72295 0.83564 0.46945 0 0.73235-0.29108 0.73235-0.82624v-1.1079h-0.29105v1.1173"/>
      <path d="m247.97 199.69v0.45067c-0.0281-0.0469-0.10335-0.18772-0.15022-0.27228l-0.73235-1.1548h-0.29105v1.906h0.28167v-0.99525-0.44127c0.0281 0.0562 0.094 0.16897 0.13148 0.23483l0.76992 1.2018h0.27228v-1.906h-0.28168v0.97646"/>
      <path d="m250.68 199.74h0.55393v-0.28168h-0.55393v-0.46944h0.94829v-0.27228h-1.23v1.906h1.2675v-0.28167h-0.98583v-0.6009"/>
      <path d="m252.65 199.5c-0.32862-0.094-0.4131-0.1596-0.4131-0.30045 0-0.1221 0.094-0.23483 0.31922-0.23483 0.18772 0 0.32862 0.0656 0.44128 0.18772l0.20646-0.20647c-0.16897-0.16897-0.36616-0.2629-0.62906-0.2629-0.3474 0-0.62907 0.20647-0.62907 0.53518 0 0.338 0.19709 0.44128 0.6009 0.56333 0.31924 0.094 0.4319 0.16897 0.4319 0.30985 0 0.18772-0.13148 0.28168-0.39434 0.28168-0.18772 0-0.37556-0.094-0.49761-0.22522l-0.20647 0.19709c0.1596 0.18772 0.40373 0.30985 0.67601 0.30985 0.48822 0 0.70418-0.23483 0.70418-0.58213 0-0.33801-0.22522-0.46006-0.6103-0.57272"/>
      <path d="m254.16 198.72h-0.53519v1.906h1.2487v-0.46007h-0.71355v-1.4459"/>
      <path d="m249.18 200.34h-0.23483v-1.352h0.23483c0.45068 0 0.63844 0.27228 0.63844 0.67601s-0.18772 0.67601-0.63844 0.67601zm0-1.6243h-0.51641v1.906h0.51641c0.50699 0 0.9295-0.28167 0.9295-0.95768 0-0.66661-0.41311-0.94829-0.9295-0.94829"/>
      <path d="m258.65 199.88 0.1596-0.55396h0.0562l0.1596 0.55396zm0.46005-1.1642h-0.53516l-0.69481 1.906h0.56335l0.094-0.33801h0.5915l0.10335 0.33801h0.57273l-0.69478-1.906"/>
    </g>
    <g>
      <path fill="url(#k)" d="m243.87 186.13c-0.40374 0-0.72906 0.32532-0.72906 0.72906v9.8301c0 0.40374 0.32532 0.72906 0.72906 0.72906h15.058c0.40374 0 0.72906-0.32532 0.72906-0.72906v-5.2215c-0.83566-0.001-1.5128-0.67881-1.5128-1.5147 0-0.83591 0.67711-1.5137 1.5128-1.5147v-1.5791c0-0.40374-0.32532-0.72906-0.72906-0.72906z"/>
      <path d="m243.57 186.69c0.17606 0.0787 0.32543 0.25179 0.44624 0.52593h14.841c0.0331-0.22926 0.17425-0.40708 0.38568-0.55143-0.0884-0.10925-0.18675-0.1691-0.29643-0.17212h-15.091c-0.12416 0.0306-0.22062 0.0948-0.28528 0.19762z" fill="url(#j)"/>
      <path fill="url(#i)" d="m243.17 186.67c-0.00079 0.003-0.001 0.006-0.002 0.009v2.7854zm15.212 4.0942-0.005 0.007c-4.9481 2.6638-10.072 2.8642-15.209 2.884-0.001 0.00001-0.002 0-0.003 0h-0.0215v3.0373c0 0.40374 0.32532 0.72808 0.72906 0.72808h15.058c0.40375 0 0.72906-0.32434 0.72906-0.72808v-5.2225c-0.53826-0.00066-1.0104-0.28202-1.2785-0.70563z"/>
      <path fill="url(#h)" d="m243.15 196.64v0.0507c0 0.40373 0.32532 0.72808 0.72906 0.72808h15.058c0.40374 0 0.72906-0.32435 0.72906-0.72808v-0.0507z"/>
      <path d="m259.65 189.1c-0.38986 0-0.70563 0.23886-0.70563 0.53289 0 0.29402 0.31577 0.53191 0.70563 0.53191s0.70564-0.23789 0.70564-0.53191c0-0.29403-0.31578-0.53289-0.70564-0.53289zm0.75444 0.39234c0.0525 0.0934 0.082 0.19785 0.082 0.30841 0 0.39313-0.3721 0.7115-0.83056 0.7115-0.45847 0-0.82959-0.31837-0.82959-0.7115 0-0.0674 0.0108-0.13241 0.0312-0.19422-0.0413 0.0948-0.0644 0.19872-0.0644 0.30744 0 0.44953 0.38882 0.81397 0.86862 0.81397 0.47981 0 0.86863-0.36444 0.86863-0.81397 0-0.15453-0.0461-0.29856-0.1259-0.42163z" fill="url(#b)"/>
      <path d="m259.66 189.05c-0.49505 0-0.89693 0.40187-0.89693 0.89692 0 0.49506 0.40188 0.89595 0.89693 0.89595s0.89595-0.40089 0.89595-0.89595c0-0.49505-0.4009-0.89692-0.89595-0.89692zm-0.28645 0.0863c0.006 0.00076 0.17439-0.0496 0.2841-0.0428 0.12061 0.007 0.43254 0.0552 0.58106 0.25739 0.27401 0.37297-0.0358 0.60724-0.0858 0.65198-0.003-0.0337-0.0612-0.26659-0.12-0.37119-0.0338-0.0602-0.0917-0.13346-0.12662-0.17356-0.0569-0.0653-0.11273-0.10832-0.18169-0.16119-0.2376-0.0555-0.0411 0.01 0.0381 0.0658 0 0 0.33288 0.29418 0.36232 0.65392-0.12388 0.0805-0.29355 0.143-0.4699 0.143-0.38986 0-0.69459-0.23512-0.69459-0.52915 0.0715-0.36392 0.27566-0.40418 0.2888-0.4335 0.0391-0.0238 0.0831-0.0407 0.12422-0.0607zm0.29429 1.5852c-0.79137-0.0512-0.95585-0.7061-0.79969-1.1155-0.17305 0.40984 0.18834 0.88464 0.79656 0.90668 0.34781 0.002 0.45959-0.12568 0.45959-0.12568s-0.002 0.0802-0.0107 0.1221c-0.009 0.0458-0.0241 0.0962-0.0241 0.0962-0.13898 0.0883-0.17648 0.092-0.4217 0.11619z" fill="url(#c)"/>
      <path d="m260.16 190.06c-0.0222-0.0822-0.0306-0.13363-0.0482-0.19717-0.002-0.006-0.0273-0.095-0.0296-0.10141-0.1089-0.30371-0.25564-0.39712-0.44391-0.51596-0.0543-0.0473-0.19488-0.1126-0.26039-0.12982 0.075-0.0262 0.10159-0.0222 0.14012-0.0352 0.18693-0.006 0.3605 0.0102 0.55998 0.1147 0.22464 0.11769 0.34736 0.28855 0.34785 0.4843 0.00011 0.0588-0.005 0.0993-0.0189 0.14986-0.028 0.10115-0.0717 0.18803-0.15242 0.30249-0.0307 0.0392-0.0583 0.0499-0.0784 0.0422-0.0186-0.007-0.005-0.074-0.0161-0.11394z" fill="url(#g)"/>
      <circle cy="189.55" cx="259.54" r=".39039" fill="url(#d)"/>
    </g>
    <g fill="#fff">
      <path d="m259.23 189.66c0.11979-0.13593 0.3071-0.21157 0.63244-0.16397-0.1-0.12223-0.22019-0.21079-0.35135-0.28108-0.27629 0.0566-0.39925 0.1938-0.46848 0.35916 0.0504 0.0151 0.0968 0.0256 0.18739 0.0859z" stroke="#fff" stroke-width=".031231px"/>
      <path d="m244.13 196.25c0-0.0281 0.0192-0.0469 0.0375-0.0469h0.0192c0.01-0.0562 0.0281-0.1221 0.0469-0.16897l-0.0192-0.01c-0.0192-0.01-0.0281-0.0281-0.01-0.0562l0.0192-0.0562c0.01-0.0281 0.0281-0.0469 0.0469-0.0375l0.0192 0.01c0.10335-0.21584 0.29105-0.30985 0.38496-0.50701l-0.0192-0.01c-0.0192 0-0.0192-0.0281-0.01-0.0562l0.0281-0.0562c0.01-0.0192 0.0281-0.0375 0.0375-0.0281h0.0192c0.01-0.0281 0.0281-0.0563 0.0469-0.094l-0.0192-0.01c-0.01-0.01-0.01-0.0375 0.01-0.0562l0.0281-0.0469c0.0192-0.0281 0.0375-0.0375 0.0562-0.0281v0.01h0.0281l0.0192-0.0281c0.094-0.0656 0.20647-0.0563 0.28166 0 0.0562 0.0469 0.2629 0.2535 0.2629 0.2535s0.15023 0 0.22522-0.0192c0.87318-0.15022 1.5774-0.67601 1.9435-0.50701-0.1221-0.1971-0.25351-0.43188-0.32862-0.5821l-0.13148-0.29108-0.075 0.01c-0.22521-0.57273-0.88257-1.8496-0.46947-2.3566 0.0375-0.0375-0.075-0.0375-0.10335-0.0656-0.13148-0.12211 0.0562-1.9154 0.31924-2.413l0.46945-0.21584c-0.4225 0.0562-0.69478 0.0844-1.2018 0.10335-0.36616 0.45068-0.63847 0.6009-0.8544 0.86381-0.0375 0.0375-0.075 0.29105-0.10336 0.31922-0.0562 0.094-0.16897 0.21608-0.26288 0.28168-0.1596 0.10335-0.35679 0.16897-0.46007 0.0562-0.0281-0.0375-0.0281-0.0469-0.01-0.0659 0.0469-0.075 0.20647-0.17835 0.25351-0.32862-0.11273 0.0846-0.17835 0.14085-0.28165 0.14085-0.0469 0.01-0.0846-0.094-0.0375-0.13148 0.15023-0.094 0.21584-0.11273 0.29105-0.26288 0.0659-0.14085 0.1596-0.24413 0.30045-0.2723 0 0 0.41313-0.70416 0.75113-1.2206 0.094-0.14085 0.31924-0.14085 0.31924-0.14085s0-0.14085 0.094-0.16898c0.49762-0.094 1.4835-0.38496 1.9248-0.20646 0.28168 0.11272 0.39434 0.0469 0.63847 0.17834 0.21584-0.54458 0.61027-0.65724 0.84501-0.65724 0.20647 0 0.32862 0.0469 0.48822 0.16898 0.20647 0.15959 0.2535 0.33801 0.30045 0.58212 0.0375 0.16898 0.0562 0.23483-0.0192 0.39434-0.0469 0.094-0.13148 0.11273-0.23483 0.18772-0.1596 0.1221-0.2346 0.33799-0.30045 0.37556-0.0469 0.0375-0.094-0.01-0.17835 0.0192-0.20647 0.0563-0.2723 0.1596-0.40373 0.15022-0.0469-0.01-0.0846-0.13147-0.16898-0.21584-0.20646 0.68539-0.38493 1.4834-0.45067 1.7464 0.31925 0 1.2018 0.16897 1.4741 0.22522 0.0846 0.01 0.0469 0.094 0.11273 0.10335 0.10336 0.0192 0.65724 0.0844 1.2112 0.34739 0.1221 0.0281 0.39433-0.0192 0.62907 0.0656 0.0281 0.0192 0.0375-0.0192 0.075-0.01 0.92012 0.30045 1.69 0.75113 2.4224 0.90135 0.28167 0.01 0.91072-0.094 1.1736-0.13148 0.11273-0.0192 0.25351-0.0659 0.32862 0.0844 0.0192 0.0375-0.01 0.0562-0.0562 0.11273l-0.0281 0.0281 0.0192 0.0192c0.01 0.01 0 0.0375-0.0192 0.0562l-0.0469 0.0375c-0.0192 0.0192-0.0469 0.0192-0.0563 0.01l-0.0192-0.0192-0.0562 0.0375 0.0192 0.0192c0.01 0.0192 0 0.0469-0.0281 0.0562l-0.0469 0.0375c-0.0192 0.0192-0.0469 0.0192-0.0562 0.01l-0.01-0.0192c-0.18773 0.14085-0.38495 0.28168-0.60091 0.44128l0.0288 0.0279c0.01 0.01 0 0.0375-0.0281 0.0562l-0.0469 0.0375c-0.0192 0.01-0.0469 0.0192-0.0562 0l-0.0192-0.0281-0.0656 0.0562 0.0192 0.0281c0.01 0.01 0 0.0375-0.0192 0.0469l-0.0469 0.0375c-0.0281 0.0192-0.0469 0.0192-0.0562 0.01l-0.0281-0.0281c-0.094 0.0656-0.20647 0.10335-0.31922-0.0281-0.0846-0.10336-0.11273-0.31922-0.20647-0.32862-1.1173-0.30045-1.5961-0.16897-2.2909-0.33802-0.20647-0.0562-0.31922-0.24411-0.5821-0.25348-0.56335-0.0192-0.73235-0.0281-1.3426-0.0469-0.0281 0.0846-0.0281 0.0846-0.0281 0.0846h-1.4459l0.10336 0.84501c0.0192 0.094 0 0.094-0.10336 0.13147 0.075 0.36617 0.23483 1.2206 0.22522 1.5868-0.01 0.32862-0.30045 0.65722-0.74173 0.69478-0.0659 0.01-0.01 0.0656-0.0659 0.0656-0.68538 0.0659-2.1689 0.1221-2.582 0.15023-0.22522 0.19709-0.45068 0.22521-0.83564 0.74175-0.075 0.10335-0.27228 0.0469-0.27228-0.0846 0-0.0562 0-0.15023 0.01-0.1971l-0.0281-0.01c-0.01 0-0.0281-0.0192-0.0192-0.0469v-0.0562"/>
      <g stroke-width=".86993">
        <path d="m285.35 192.28v-2.5402c0-0.68324 0.27117-1.1213 1.6905-1.1213 0.1751 0 0.32432 0.0204 0.49056 0.0477v8.3128c0 0.68324-0.27117 1.1125-1.6905 1.1125-0.17443 0-0.32432-0.007-0.49056-0.0409v-3.7753h-4.4236v2.6978c0 0.68324-0.27117 1.1125-1.6905 1.1125-0.17443 0-0.31546-0.007-0.49942-0.0409v-8.3128c0-0.68325 0.28003-1.1211 1.6993-1.1211 0.17443 0 0.31546 0.0204 0.49056 0.0477v3.6178h4.4235"/>
        <path d="m290.23 188.6c-1.1037 0-1.3663 0.57801-1.3663 1.3317v6.8234c0 0.72705 0.26216 1.3141 1.3663 1.3141h2.2862c3.3637 0 5.3961-1.9094 5.3961-4.73 0-2.8294-2.0324-4.7392-5.3961-4.7392zm0.83251 2.0236h1.5854c2.1987 0 3.0132 1.428 3.0132 2.7156 0 1.2789-0.81465 2.7063-3.0132 2.7063h-1.5854z"/>
        <path d="m267.47 191.29c-0.1315-0.11378-0.25414-0.21939-0.4381-0.52599-0.46399-0.75328-0.48171-1.7431 0.49056-2.1023l3.5389-1.2h1.7432v10.117c0 0.77086-0.21939 1.314-1.4716 1.314-0.49056 0-1.0774-0.0477-1.314-0.0967v-8.3566l-2.549 0.8497"/>
      </g>
      <path opacity=".4" d="m299.01 184.82c-0.42107 0-0.84424 0.22552-1.4048 0.22552h-35.931v6.5524c2.8818 0.14035 5.6712 0.30933 8.3516 0.51032 0.95468 0.0743 1.9547 0.15602 2.785 0.22552 2.0584 0.1751 4.0459 0.36928 5.9292 0.58799 3.2235 0.35907 6.1836 0.78926 8.8022 1.2711 0.45173 0.0818 0.92839 0.18192 1.3239 0.26027 0.75751 0.14785 1.5379 0.32772 2.1935 0.47148 1.0462 0.25891 2.1437 0.57709 3.0667 0.84152 0.85105 0.26436 1.7112 0.62683 2.447 0.91544 1.1125 0.49056 1.98 1.0168 2.5844 1.5774 1.2175 1.2088 1.3849 2.3461 1.4294 2.5914 0.1131 0 0.15466-0.53553 0.15466-1.3238v-12.735c0-1.4716-0.47966-1.9717-1.7323-1.9717z" stroke-width="2.2424"/>
    </g>
  </g>
</svg>
