<svg enable-background="new 0 0 1795.7 250" version="1.1" viewBox="0 0 1795.7 250" xml:space="preserve" xmlns="http://www.w3.org/2000/svg">

	
		<path d="m1778.8 250h-626c-9.2 0-16.7-7.5-16.7-16.7v-216.6c0-9.2 7.5-16.7 16.7-16.7h626.2c9.2 0 16.7 7.5 16.7 16.7v216.7c-0.2 9.1-7.7 16.6-16.9 16.6z" fill="#fff" Googl="true"/>
		
		<g transform="translate(126.1,4.55)" fill="#002a91">
			
				<path d="m1176.2 108v62.7c-1.7 0.4-4.6 0.8-7.5 0.8-6 0-9-2.3-9-6.2v-8.5c-8.7 10-20.2 15.8-34.6 15.8-21.7 0-33.7-14.2-33.7-29.8 0-23.5 25.2-34 68.1-31v-3.5c0-16-4.8-22.7-23.3-22.7-7.7 0-18.1 2.3-23.5 3.7-3.3 0.8-5.6 1.7-7.7 1.7-4.6 0-7.7-4.2-6-12.7 10-3.7 24.4-7.1 38.3-7.1 28.5-0.3 38.9 12.6 38.9 36.8zm-16.6 34.1v-18.5c-28.1-2.1-51.5 1.7-51.5 18.5 0 8.5 7.1 16.2 20 16.2 13.1 0.1 24.4-6.4 31.5-16.2z"/>
				<path d="m1196.2 121.5c0-29.2 21.5-50.6 49.6-50.6 13.1 0 25.4 3.7 34 7.7 1.5 9.2-1.5 12.9-5.4 12.9-7.1 0-13.1-5.8-27.9-5.8-18.3 0-33.3 13.5-33.3 36 0 22.1 15 36 33.3 36 14.6 0 20.8-6 27.3-6 4.4 0 7.3 4 6 12.9-8.5 4.4-20.8 7.9-34 7.9-28.1 0-49.6-22.1-49.6-51z"/>
				<path d="m1356.9 165.7c-8.5 4.2-18.3 6.7-28.1 6.7-19.4 0-30.8-11.5-30.8-30.4v-83.8c0-4.4 2.5-7.1 9-7.1 2.9 0 6 0.6 7.7 1v21.2h38.1c0.2 1.5 0.6 4.4 0.6 6.7 0 5.8-2.5 7.9-6 7.9h-32.5v53.1c0 11.5 5.2 16.9 16 16.9 9.8 0 15.2-4.4 20-4.4 4.7 0.1 7 4 6 12.2z"/>
				<path d="m1370 50.7c0-6 4.8-10.6 10.6-10.6 6 0 10.8 4.4 10.8 10.6 0 5.4-4.6 10.6-10.8 10.6-5.8-0.2-10.6-5.2-10.6-10.6zm2.1 120v-92.5c0-4 2.3-6.2 9-6.2 2.9 0 5.8 0.4 7.5 0.8v92.2c0 4.2-2.1 6.2-8.7 6.2-2.8 0.3-6.2-0.1-7.8-0.5z"/>
				<path d="m1408.7 121.5c0-29.2 21.5-50.6 50-50.6 29 0 50.2 21.7 50.2 50.6s-21.5 50.8-50.2 50.8c-28.5 0.2-50-21.9-50-50.8zm83.6 0c0-22.3-15-36-33.3-36-18.1 0-33.1 13.5-33.1 36 0 22.1 15 36.2 33.1 36.2s33.3-13.9 33.3-36.2z"/>
				<path d="m1615.8 112.3v52.7c0 4-2.3 6.2-9 6.2-2.9 0-6-0.4-7.7-0.8v-55.8c0-19.6-9.6-29-24-29-11.2 0-23.3 7.7-28.3 16.9v62.5c0 4-2.3 6.2-9 6.2-2.9 0-6-0.4-7.7-0.8v-97.9c1.7-0.4 4.8-0.8 7.7-0.8 6.7 0 9 2.5 9 6.2v8.3c7.1-8.7 17.9-15.6 32.3-15.6 20.1 0.3 36.7 13 36.7 41.7z"/>
			
			
				<path d="m1176.2 108v62.7c-1.7 0.4-4.6 0.8-7.5 0.8-6 0-9-2.3-9-6.2v-8.5c-8.7 10-20.2 15.8-34.6 15.8-21.7 0-33.7-14.2-33.7-29.8 0-23.5 25.2-34 68.1-31v-3.5c0-16-4.8-22.7-23.3-22.7-7.7 0-18.1 2.3-23.5 3.7-3.3 0.8-5.6 1.7-7.7 1.7-4.6 0-7.7-4.2-6-12.7 10-3.7 24.4-7.1 38.3-7.1 28.5-0.3 38.9 12.6 38.9 36.8zm-16.6 34.1v-18.5c-28.1-2.1-51.5 1.7-51.5 18.5 0 8.5 7.1 16.2 20 16.2 13.1 0.1 24.4-6.4 31.5-16.2z"/>
				<path d="m1196.2 121.5c0-29.2 21.5-50.6 49.6-50.6 13.1 0 25.4 3.7 34 7.7 1.5 9.2-1.5 12.9-5.4 12.9-7.1 0-13.1-5.8-27.9-5.8-18.3 0-33.3 13.5-33.3 36 0 22.1 15 36 33.3 36 14.6 0 20.8-6 27.3-6 4.4 0 7.3 4 6 12.9-8.5 4.4-20.8 7.9-34 7.9-28.1 0-49.6-22.1-49.6-51z"/>
				<path d="m1356.9 165.7c-8.5 4.2-18.3 6.7-28.1 6.7-19.4 0-30.8-11.5-30.8-30.4v-83.8c0-4.4 2.5-7.1 9-7.1 2.9 0 6 0.6 7.7 1v21.2h38.1c0.2 1.5 0.6 4.4 0.6 6.7 0 5.8-2.5 7.9-6 7.9h-32.5v53.1c0 11.5 5.2 16.9 16 16.9 9.8 0 15.2-4.4 20-4.4 4.7 0.1 7 4 6 12.2z"/>
				<path d="m1370 50.7c0-6 4.8-10.6 10.6-10.6 6 0 10.8 4.4 10.8 10.6 0 5.4-4.6 10.6-10.8 10.6-5.8-0.2-10.6-5.2-10.6-10.6zm2.1 120v-92.5c0-4 2.3-6.2 9-6.2 2.9 0 5.8 0.4 7.5 0.8v92.2c0 4.2-2.1 6.2-8.7 6.2-2.8 0.3-6.2-0.1-7.8-0.5z"/>
				<path d="m1408.7 121.5c0-29.2 21.5-50.6 50-50.6 29 0 50.2 21.7 50.2 50.6s-21.5 50.8-50.2 50.8c-28.5 0.2-50-21.9-50-50.8zm83.6 0c0-22.3-15-36-33.3-36-18.1 0-33.1 13.5-33.1 36 0 22.1 15 36.2 33.1 36.2s33.3-13.9 33.3-36.2z"/>
				<path d="m1615.8 112.3v52.7c0 4-2.3 6.2-9 6.2-2.9 0-6-0.4-7.7-0.8v-55.8c0-19.6-9.6-29-24-29-11.2 0-23.3 7.7-28.3 16.9v62.5c0 4-2.3 6.2-9 6.2-2.9 0-6-0.4-7.7-0.8v-97.9c1.7-0.4 4.8-0.8 7.7-0.8 6.7 0 9 2.5 9 6.2v8.3c7.1-8.7 17.9-15.6 32.3-15.6 20.1 0.3 36.7 13 36.7 41.7z"/>
			
		</g>
	
	
		
			<linearGradient id="c" x1="-1393.5" x2="-1393.5" y1="1445.4" y2="1447.8" gradientTransform="matrix(149.68 0 0 91.158 208763 -131745)" gradientUnits="userSpaceOnUse">
			<stop stop-color="#002A91" offset="0"/>
			<stop stop-color="#002672" offset=".8"/>
		</linearGradient>
		<path d="m250.9 232.1c3 1.5 9 3.4 16.8 3.6 13.2 0.2 20.3-4.8 25.5-16.5l70.3-155.9c-3-1.5-9.4-3.4-14.7-3.4-9-0.2-21.1 1.7-28.9 20l-22.9 53.4-44.6-72.3c-3-0.9-10.1-2.1-15.1-2.1-15.9 0-24.7 5.9-33.7 15.6l-43.5 47.1 35 54.6c6.5 10 14.9 15 28.7 15 9 0 16.5-2.1 20.1-3.8l-42.1-62.7 29.7-31.5 49 76.3zm-92.3-59c0 11.5-4.6 18.1-27.2 18.1-3 0-5.7-0.2-8.2-0.6v-152.5c0-11.7 4-23.8 26.8-23.8 3 0 5.9 0.2 8.6 0.9v157.9zm-46.7-23.1c0 21.5-14 37.1-42.7 40.2-20.7 2.3-50.8-0.4-65.1-2.1-0.4-2.3-0.9-5.2-0.9-7.5 0-18.8 10.1-22.9 19.7-22.9 9.9 0 25.5 1.7 37.3 1.7 12.8 0 16.8-4.4 16.8-8.4 0-5.4-5-7.5-15.1-9.6l-27.2-5.2c-22.5-4.1-34.7-19.8-34.7-36.2 0-20 14.2-36.9 42.3-39.8 21.1-2.3 47.1 0.2 61.3 2.1 0.4 2.3 0.9 4.8 0.9 7.3 0 18.8-9.9 22.7-19.5 22.7-7.3 0-18.6-1.3-31.8-1.3s-18.6 3.6-18.6 8.1c0 4.8 5.3 6.7 13.6 8.1l26 4.8c26.2 4.5 37.7 19.5 37.7 38z" fill="url(#c)"/>
		
			<linearGradient id="a" x1="-1393.5" x2="-1393.5" y1="1456" y2="1455" gradientTransform="matrix(149.68 0 0 57.766 208763 -83981)" gradientUnits="userSpaceOnUse">
			<stop stop-color="#fff" offset="0"/>
			<stop stop-color="#fff" stop-opacity=".25" offset="1"/>
		</linearGradient>
		<path d="m363.4 63.4-25.8 57.1c-0.9 1.5-3.6 6.5-10.7 6.7-1.7 0-23.5 0.9-23.5 0.9-4.2 0.2-5.7 4.2-5.7 4.2l22.4-52.3c7.8-18.4 19.9-20.2 28.9-20 5 0 11.4 1.7 14.4 3.4zm-67.4 68.1-43.5-70.4c-3-0.9-10.1-2.1-15.1-2.1-15.9 0-24.7 5.9-33.7 15.6l-43.5 47.1 3.6 5.4c1.5 2.1 4.4 5.4 10.3 5.2 2.1 0 23-0.9 24.7-0.9 5.5-0.2 8.8 2.1 10.9 4.8l-7.8-11.6 29.7-31.5 20.1 31.3c3.6 4.8 9 4.8 10.3 4.8 1.1 0 27.2-1.1 28.5-1.1 1.8 0 3.9 1.1 5.5 3.4zm-146-117.1c-22.8 0-26.6 12.1-26.6 23.8v104.6c0-4.2 3.4-8.6 8.6-8.8 3.8-0.2 14.5-0.4 17.6-0.6 3.6-0.2 8.8-2.5 9-9v-109.1c-2.8-0.5-5.7-0.9-8.6-0.9zm-76.1 97.3-26-4.8c-8.4-1.5-13.6-3.4-13.6-8.1 0-4.4 5.5-8.1 18.6-8.1 13 0 24.5 1.3 31.8 1.3 9.6 0 19.5-4 19.5-22.7 0-2.5-0.2-4.8-0.9-7.3-14.2-1.7-40-4.4-61.3-2.1-27.8 3.2-42 20.1-42 40.1 0 10.2 4.6 20.2 13.8 27.3 6.9 4.4 13.8 6.3 20.9 7.5 5.9 1.1 19.1 1.9 29.1 1.5 3.2-0.2 26-0.9 31-1.1 11.5-0.4 18 9.4 17.2 19.4v-0.4-0.2c0.2-1.3 0.2-2.5 0.2-4-0.3-18.5-11.8-33.5-38.3-38.3z" enable-background="new    " fill="url(#a)" opacity=".25"/>
		
			<linearGradient id="d" x1="-1396.3" x2="-1396.3" y1="1443.6" y2="1446" gradientTransform="matrix(317.37 0 0 103 443931 -148690)" gradientUnits="userSpaceOnUse">
			<stop stop-color="#f00" offset=".4"/>
			<stop stop-color="#D42321" offset="1"/>
		</linearGradient>
		<path d="m1154.5 0h-736.7c-9.2 0-16.8 7.5-16.8 16.7v216.7c0 9.2 7.6 16.7 16.8 16.7h737c9.2 0 16.8-7.5 16.8-16.7v-216.7c-0.3-9.2-7.9-16.7-17.1-16.7z" fill="url(#d)"/>
		
			<linearGradient id="b" x1="-1396.1" x2="-1396.4" y1="1456.6" y2="1455.3" gradientTransform="matrix(317.37 0 0 56.478 443931 -82145)" gradientUnits="userSpaceOnUse">
			<stop stop-color="#fff" offset="0"/>
			<stop stop-color="#fff" stop-opacity=".25" offset="1"/>
		</linearGradient>
		<path d="m412.9 124h1.7c49.6-1.7 744.3-25.9 744.3-25.9 6.3-0.2 12.6-4.8 12.6-12.7v-68.7c0-9.2-7.6-16.7-16.8-16.7h-736.9c-9.2 0-16.8 7.5-16.8 16.7v120.4c0-1.5 0.2-11.9 11.9-13.1z" enable-background="new    " fill="url(#b)" opacity=".4"/>
		<g transform="translate(184.41 16.308)" fill="#fff">
			<path d="m264.7 163.3c-1.5-10.2 1.7-15.6 7.8-15.6 5.7 0 19.5 6.1 38.7 6.1 20.3 0 27.8-7.1 27.8-16.5 0-6.7-3-12.5-21.1-17.5l-20.9-5.6c-23.2-6.1-32.2-17.7-32.2-31.9 0-17.7 14-33.4 45.8-33.4 14.2 0 32 3.1 42.9 7.3 1.9 10-1.3 15.4-7.3 15.4-5.5 0-17.8-5.2-35.2-5.2-18.8 0-25.8 6.5-25.8 14.8 0 5.9 2.7 11.3 19.5 16.1l21.4 5.9c23.9 6.7 33.5 17.7 33.5 33.4 0 18.4-14.2 34.8-48.8 34.8-15.5 0-34.6-3.7-46.1-8.1z"/>
			<path d="m501.7 110.2c0 38.6-27.2 61.3-56.9 61.3-17.8 0-32.2-8.4-41-20.2v49.6c0 4.6-2.7 7.7-10.7 7.7-4 0-7.8-0.4-9.6-1.1v-156.3c1.9-0.4 5.7-1.1 9.6-1.1 8 0 10.7 2.9 10.7 7.7v11.3c8.6-11.9 23.2-20.2 41-20.2 29.8 0 56.9 22.9 56.9 61.3zm-20.4 0c0-25.9-17.2-43.6-40.4-43.6-15.7 0-30.4 9.2-37 22.3v42.5c6.7 13.4 21.1 22.3 37 22.3 23.2 0 40.4-17.7 40.4-43.5z"/>
			<path d="m521.2 110.2c0-35 26-61.1 60.7-61.1 35 0 60.9 26.1 60.9 61.1 0 34.8-26 61.3-60.9 61.3-34.8-0.1-60.7-26.5-60.7-61.3zm101.1 0c0-27.1-18.2-43.6-40.4-43.6-22 0-40.2 16.5-40.2 43.6 0 26.7 18.2 43.8 40.2 43.8 22.2-0.3 40.4-17.2 40.4-43.8z"/>
			<path d="m740.9 60c0 8.1-3.4 9.8-11.9 9.8-17 0-31.4 7.9-40.2 26.3v66.5c0 5-2.7 7.7-10.9 7.7-3.4 0-7.3-0.4-9.4-1.1v-118c1.9-0.4 5.9-1.1 9.4-1.1 8.2 0 10.9 2.9 10.9 7.7v16.5c11.5-17.5 29.1-26.3 51.1-23.4 0.1 1.8 1 5.5 1 9.1z"/>
			<path d="m829.5 163.3c-10.3 5-22.2 8.1-34.1 8.1-23.5 0-37.5-13.8-37.5-36.7v-101.2c0-5.2 3-8.6 10.9-8.6 3.4 0 7.3 0.9 9.4 1.3v25.6h46c0.2 1.7 0.9 5.2 0.9 8.1 0 7.1-3 9.6-7.3 9.6h-39.3v64c0 13.8 6.5 20.4 19.5 20.4 11.9 0 18.4-5.2 24.1-5.2 5.6 0 8.7 4.8 7.4 14.6z"/>
			<path d="m843.6 163.3c-1.5-10.2 1.7-15.6 7.8-15.6 5.7 0 19.5 6.1 38.7 6.1 20.3 0 27.8-7.1 27.8-16.5 0-6.7-3-12.5-21.1-17.5l-20.9-5.6c-23.2-6.1-32.2-17.7-32.2-31.9 0-17.7 14-33.4 45.8-33.4 14.2 0 32 3.1 42.9 7.3 1.9 10-1.3 15.4-7.3 15.4-5.5 0-17.8-5.2-35.2-5.2-18.8 0-25.8 6.5-25.8 14.8 0 5.9 2.7 11.3 19.5 16.1l21.4 5.9c23.9 6.7 33.5 17.7 33.5 33.4 0 18.4-14.2 34.8-48.8 34.8-15.6 0-34.6-3.7-46.1-8.1z"/>
		</g>
	

</svg>
