<svg width="4094.1" height="500" version="1.1" viewBox="0 0 1083.2 132.29" xmlns="http://www.w3.org/2000/svg" xmlns:xlink="http://www.w3.org/1999/xlink">
 <defs>
  <linearGradient id="a" x1=".00043661" x2="1.0004" y1="-4.666" y2="-4.666" gradientTransform="matrix(-2.3006 -65.881 65.881 -2.3006 234.18 134.09)" gradientUnits="userSpaceOnUse">
   <stop stop-color="#fff" offset="0"/>
   <stop stop-color="#fff" stop-opacity=".25" offset="1"/>
  </linearGradient>
  <linearGradient id="b" x2="1" gradientTransform="matrix(-1.5472 -44.307 44.307 -1.5472 -322.45 151.2)" gradientUnits="userSpaceOnUse">
   <stop stop-color="#fff" offset="0"/>
   <stop stop-color="#fff" stop-opacity=".25" offset="1"/>
  </linearGradient>
  <linearGradient id="d" x1="-278.89" x2="-278.89" y1="-722.86" y2="-788.75" gradientTransform="matrix(.83332 0 0 .83332 -97.176 808.59)" gradientUnits="userSpaceOnUse">
   <stop stop-color="#0182dc" offset="0"/>
   <stop stop-color="#0398f0" offset="1"/>
  </linearGradient>
  <linearGradient id="c" x1="-132.78" x2="913.58" y1="-793.08" y2="-793.08" gradientTransform="matrix(.83332 0 0 .83332 -97.176 808.59)" gradientUnits="userSpaceOnUse">
   <stop stop-color="#0086e0" offset="0"/>
   <stop stop-color="#54dcf7" offset="1"/>
  </linearGradient>
 </defs>
 <g transform="translate(419.11 -81.56)">
  <path d="m-360.1 160.95c0 11.367-7.4222 19.637-22.519 21.263-10.929 1.1663-26.739-0.20389-34.262-1.0685-0.25284-1.2153-0.45675-2.7378-0.45675-3.9558 0-9.8962 5.3369-12.18 10.369-12.18 5.2363 0 13.471 0.9135 19.572 0.9135 6.7588 0 8.7924-2.2837 8.7924-4.4642 0-2.8411-2.6943-4.0074-7.9278-5.0242l-14.336-2.7405c-11.897-2.2838-18.248-10.502-18.248-19.23 0-10.606 7.5228-19.488 22.313-21.111 11.185-1.218 24.806 0.15224 32.28 1.0657 0.25284 1.2669 0.4051 2.4849 0.4051 3.8062 0 9.8935-5.2336 12.025-10.266 12.025-3.8633 0-9.8609-0.70959-16.723-0.70959-6.9654 0-9.8636 1.9276-9.8636 4.2603 0 2.4876 2.7459 3.5017 7.1177 4.263l13.673 2.5393c14.031 2.5882 20.081 10.554 20.081 20.347m24.534 12.177c0 6.09-2.3898 9.5917-14.284 9.5917-1.5769 0-2.9471-0.10335-4.2684-0.30178v-80.684c0-6.1389 2.0826-12.536 14.078-12.536 1.5252 0 3.0504 0.15224 4.475 0.45946zm48.619 31.208c1.5741 0.81016 4.7768 1.7753 8.7924 1.8786 6.9138 0.15224 10.676-2.4849 13.471-8.6782l37.056-82.508c-1.5252-0.8129-4.9291-1.7264-7.675-1.7781-4.7768-0.0978-11.182 0.86457-15.249 10.609l-11.995 28.261-23.536-38.258c-1.5252-0.45947-5.2363-1.1174-7.9306-1.1174-8.3356 0-12.963 3.045-17.791 8.2704l-22.873 24.969 18.4 28.922c3.4066 5.2771 7.8789 7.9659 15.149 7.9659 4.7796 0 8.7408-1.1147 10.57-1.9765l-22.163-33.34 15.709-16.644 25.771 40.392z" fill="url(#d)"/>
  <path d="m655.31 81.56-854.31 5e-3c-4.8693 2.8e-5 -8.8199 3.9507-8.8199 8.8199v114.65c0 4.872 3.9507 8.8147 8.8199 8.8147h854.31c4.872 0 8.8199-3.9507 8.8199-8.8199v-114.65c0-4.8692-3.9479-8.8195-8.8199-8.8194z" fill="url(#c)"/>
  <path d="m-182.36 133.74q0-5.5015 2.9624-9.4917 2.9624-3.9901 8.343-6.1061 5.4411-2.1764 12.696-2.1764 6.5293 0 12.333 1.0882 5.8038 1.0882 10.459 2.8415 0.66502 3.7483-0.12092 5.6225-0.72547 1.8742-2.4182 2.3578-1.6323 0.4232-3.6879-0.0604-2.5392-0.66502-5.1388-1.2091-2.5392-0.54411-5.3202-0.84639-2.7205-0.36274-5.8643-0.36274-6.5898 0-9.9753 1.9951-3.3856 1.9951-3.3856 5.7434 0 2.116 1.0278 3.5669 1.0882 1.451 3.0228 2.4787t4.4738 1.8742q2.5996 0.78594 5.6829 1.6323l3.3856 0.90685q3.0833 0.84639 6.1666 1.8742 3.0833 0.9673 5.8038 2.2974 2.781 1.33 4.9574 3.2647 2.1764 1.9346 3.3856 4.6552 1.2696 2.7206 1.2696 6.4688 0 4.6552-1.8742 8.1616-1.8742 3.5065-5.3202 5.8643-3.446 2.2974-8.1616 3.446-4.6552 1.2091-10.217 1.2091-4.5947 0-9.1289-0.66502-4.4738-0.66502-8.4035-1.6323-3.9297-0.9673-6.8316-1.9951-0.36275-1.9951-0.0605-4.111 0.30228-2.116 1.5719-3.3856 1.33-1.2696 4.0506-0.72547 1.9346 0.42319 3.7483 0.90684 2.1764 0.54411 4.4133 1.0882 2.2974 0.48365 4.897 0.84639 2.5996 0.30229 5.7434 0.30229 4.4738 0 7.7989-0.96731 3.3251-0.9673 5.1388-2.9019 1.8137-1.9346 1.8137-4.897 0-1.9951-1.0278-3.5065-1.0278-1.5114-2.8415-2.6601-1.7532-1.1487-4.0506-1.9951-2.2974-0.84639-4.8365-1.5114-2.5392-0.72549-9.2499-2.4183-2.5392-0.66502-5.0179-1.6323-2.4787-1.0278-4.6552-2.3578-2.1764-1.3905-3.8692-3.2042-1.6928-1.8742-2.7205-4.232-0.96731-2.4183-0.96731-5.4411z" fill="#fff" stroke-width=".83332"/>
  <path d="m-92.073 115.96q6.5293 0 11.789 2.2973 5.2597 2.2369 9.008 6.2875 3.7483 3.9901 5.7434 9.4312 1.9951 5.4411 1.9951 11.849 0 1.5719-0.06041 3.3251-0.0605 1.6928-0.36274 3.0228h-48.244q0.48365 3.9901 1.9951 7.4362 1.5719 3.3856 4.2924 5.9852 2.7206 2.5392 6.6502 3.9901 3.9297 1.451 9.2499 1.451 4.4133 0 8.0407-0.84639 3.6879-0.84639 7.3757-2.1764 3.5669-1.33 5.6225 0.48365 2.0555 1.7532 1.5719 7.013-2.116 1.1487-5.8038 2.3578-3.6878 1.2091-8.2221 2.0555-4.5342 0.90685-9.008 0.90685-7.3757 0-13.361-2.3578-5.9852-2.3578-10.278-6.6502-4.2924-4.3529-6.6502-10.338-2.2974-6.0457-2.2974-13.3 0-6.892 2.3578-12.756t6.5293-10.217q4.232-4.3529 9.8544-6.7711 5.6829-2.4787 12.212-2.4787zm-0.12091 9.008q-5.0784 0-9.3103 2.2974t-7.013 6.5293q-2.781 4.232-3.6274 10.157h38.269q0-2.6601-0.72548-5.3806t-2.2369-5.1388q-1.451-2.4183-3.6274-4.2924-2.1764-1.9346-5.1388-3.0228-2.9019-1.1487-6.5898-1.1487z" fill="#fff" stroke-width=".83332"/>
  <path d="m-45.557 116.69q3.0228 0 4.4133 1.0278 1.3905 1.0278 1.3905 2.9019v8.8267q4.2924-6.2875 9.794-9.4312 5.5015-3.2042 12.635-3.2042 2.3578 0 4.4738 0.24182 0.5441 3.0228 0.5441 5.0179 0 2.4183-0.84639 3.446-0.84639 0.96731-2.2974 1.33-1.3905 0.30229-3.3856 0.30229-4.7761 0-8.7662 1.6928-3.9297 1.6928-7.013 4.8365-3.0228 3.0833-5.1388 7.4966v35.125q0 1.6928-1.0882 2.6601-1.0278 0.9673-3.3251 1.1487-2.2974 0.18137-6.1061-0.48366v-62.391q2.7205-0.54411 4.7156-0.54411z" fill="#fff" stroke-width=".83332"/>
  <path d="m-2.6582 179.63v-59.006q0-1.6928 1.0882-2.6601 1.1487-1.0278 3.446-1.2091 2.3578-0.24183 5.9852 0.48365v59.066q0 1.6928-1.0882 2.6601-1.0278 0.90685-3.3251 1.0882-2.2973 0.18137-6.1061-0.4232zm5.3806-83.37q2.8415 0 4.8365 1.9951 1.9951 1.9951 1.9951 4.7761 0 2.8414-1.9951 4.8365-1.9951 1.9346-4.8365 1.9346-2.8415 0-4.8365-1.9346-1.9951-1.9951-1.9951-4.8365 0-2.781 1.9951-4.7761 1.9951-1.9951 4.8365-1.9951z" fill="#fff" stroke-width=".83332"/>
  <path d="m51.87 115.96q6.5293 0 11.789 2.2973 5.2597 2.2369 9.008 6.2875 3.7483 3.9901 5.7434 9.4312 1.9951 5.4411 1.9951 11.849 0 1.5719-0.0605 3.3251-0.0605 1.6928-0.36274 3.0228h-48.244q0.48365 3.9901 1.9951 7.4362 1.5719 3.3856 4.2924 5.9852 2.7206 2.5392 6.6502 3.9901t9.2499 1.451q4.4133 0 8.0407-0.84639 3.6878-0.84639 7.3757-2.1764 3.5669-1.33 5.6225 0.48365 2.0555 1.7532 1.5719 7.013-2.116 1.1487-5.8038 2.3578t-8.2221 2.0555q-4.5342 0.90685-9.008 0.90685-7.3757 0-13.361-2.3578-5.9852-2.3578-10.278-6.6502-4.2924-4.3529-6.6502-10.338-2.2974-6.0457-2.2974-13.3 0-6.892 2.3578-12.756 2.3578-5.8643 6.5293-10.217 4.232-4.3529 9.8544-6.7711 5.6829-2.4787 12.212-2.4787zm-0.12091 9.008q-5.0783 0-9.3103 2.2974t-7.013 6.5293-3.6274 10.157h38.269q0-2.6601-0.72548-5.3806-0.72548-2.7206-2.2369-5.1388-1.451-2.4183-3.6274-4.2924-2.1764-1.9346-5.1388-3.0228-2.9019-1.1487-6.5898-1.1487z" fill="#fff" stroke-width=".83332"/>
  <path d="m124.91 115.96q4.7761 0 8.9476 1.5719 4.232 1.5719 7.4362 4.7156 3.2042 3.1437 5.0179 7.9198 1.8137 4.7761 1.8137 11.245v34.883q0 1.6928-1.0278 2.6601-1.0278 0.9673-3.3856 1.1487-2.2974 0.18137-6.0457-0.4232v-35.972q0-5.9852-1.9346-10.036-1.8742-4.0506-5.3202-6.1061-3.446-2.0555-8.1012-2.0555-2.9624 0-6.5293 1.33-3.5669 1.2696-6.7107 3.7483-3.0833 2.4787-4.9574 6.0456v39.66q0 1.6928-1.0278 2.6601-1.0278 0.9673-3.3856 1.1487-2.2974 0.18137-6.0457-0.4232v-62.512q2.7205-0.5441 4.7156-0.5441 3.0228 0 4.3529 1.0278 1.3905 1.0278 1.3905 2.9019v5.4411q1.7532-2.0555 3.8088-3.8088 2.116-1.8137 4.6552-3.2042 2.5996-1.3905 5.6225-2.1764 3.0833-0.84639 6.7107-0.84639z" fill="#fff" stroke-width=".83332"/>
  <path d="m212.49 133.44 5.8643-2.3578q2.3578-0.90685 4.1715-2.2974 1.8137-1.451 2.8415-3.3251 1.0882-1.8742 1.0882-4.1715 0-4.5947-3.6878-7.2548-3.3251-2.2974-7.8594-2.2974-3.3856 0-5.9248 1.1487-2.4787 1.1487-3.8692 3.2042-1.3905 2.0555-1.3905 4.6552 0 4.0506 3.3856 7.4362zm-1.3905 37.906q3.9901 0 7.3152-1.2696 3.3856-1.2696 6.0457-3.3856 2.6601-2.116 4.5947-4.7156l-19.346-18.379q-14.026 5.0179-14.026 14.993 0 3.5669 1.8742 6.4688 1.8742 2.9019 5.3202 4.5947 3.5065 1.6928 8.2221 1.6928zm-0.12091 9.3708q-11.064 0-18.137-6.0457-7.0734-6.0456-7.0734-16.081 0-7.7989 5.0784-13.663 4.5947-5.3202 11.849-7.9803-4.0506-4.0506-5.4411-6.0457-3.446-4.6552-3.446-10.64 0-7.1943 5.8038-12.273 5.8038-5.1388 15.114-5.1388 6.227 0 11.003 2.3578 4.7761 2.2974 7.4362 6.4084 2.7205 4.0506 2.7205 9.2499 0 6.1666-4.0506 10.822-4.0506 4.6552-12.394 8.1012l15.054 14.147 8.8871-14.691q1.9951-3.2042 5.8038-3.2042 2.781 0 6.1666 1.6323l-14.086 22.671 18.56 17.412q-3.3251 2.2974-7.678 2.2974-3.8088 0-6.0457-2.116l-10.338-9.673q-2.9019 3.8088-6.5293 6.5898-3.5669 2.781-8.1012 4.3529-4.4738 1.5114-10.157 1.5114z" fill="#fff" stroke-width=".83332"/>
  <path d="m288.96 133.74q0-5.5015 2.9624-9.4917 2.9624-3.9901 8.343-6.1061 5.4411-2.1764 12.696-2.1764 6.5293 0 12.333 1.0882 5.8038 1.0882 10.459 2.8415 0.66503 3.7483-0.12091 5.6225-0.72548 1.8742-2.4183 2.3578-1.6323 0.4232-3.6878-0.0604-2.5392-0.66502-5.1388-1.2091-2.5392-0.54411-5.3202-0.84639-2.7206-0.36274-5.8643-0.36274-6.5898 0-9.9753 1.9951-3.3856 1.9951-3.3856 5.7434 0 2.116 1.0278 3.5669 1.0882 1.451 3.0228 2.4787t4.4738 1.8742q2.5996 0.78594 5.6829 1.6323l3.3856 0.90685q3.0833 0.84639 6.1666 1.8742 3.0833 0.9673 5.8038 2.2974 2.781 1.33 4.9574 3.2647 2.1764 1.9346 3.3856 4.6552 1.2696 2.7206 1.2696 6.4688 0 4.6552-1.8742 8.1616-1.8742 3.5065-5.3202 5.8643-3.446 2.2974-8.1616 3.446-4.6552 1.2091-10.217 1.2091-4.5947 0-9.129-0.66502-4.4738-0.66502-8.4035-1.6323-3.9297-0.9673-6.8316-1.9951-0.36274-1.9951-0.0605-4.111 0.30229-2.116 1.5719-3.3856 1.33-1.2696 4.0506-0.72547 1.9346 0.42319 3.7483 0.90684 2.1764 0.54411 4.4133 1.0882 2.2974 0.48365 4.897 0.84639 2.5996 0.30229 5.7434 0.30229 4.4738 0 7.7989-0.96731 3.3251-0.9673 5.1388-2.9019 1.8137-1.9346 1.8137-4.897 0-1.9951-1.0278-3.5065-1.0278-1.5114-2.8415-2.6601-1.7532-1.1487-4.0506-1.9951t-4.8365-1.5114q-2.5392-0.72549-9.2499-2.4183-2.5392-0.66502-5.0179-1.6323-2.4787-1.0278-4.6552-2.3578-2.1764-1.3905-3.8692-3.2042-1.6928-1.8742-2.7206-4.232-0.9673-2.4183-0.9673-5.4411z" fill="#fff" stroke-width=".83332"/>
  <path d="m352.02 98.734q0-1.8742 1.33-2.9019 1.3905-1.0278 4.4133-1.0278 1.9951 0 4.7156 0.54411v30.651q1.7532-2.0555 3.8088-3.8088 2.116-1.8137 4.6552-3.2042 2.5996-1.3905 5.6225-2.1764 3.0833-0.84639 6.7107-0.84639 4.7761 0 8.9476 1.5719 4.232 1.5719 7.4362 4.7156 3.2042 3.1437 5.0179 7.9198t1.8137 11.245v34.883q0 1.6928-1.0278 2.6601-1.0278 0.9673-3.3856 1.1487-2.2974 0.18137-6.0457-0.4232v-35.972q0-5.9852-1.9346-10.036-1.8742-4.0506-5.3202-6.1061-3.446-2.0555-8.1012-2.0555-2.9624 0-6.5293 1.33-3.5669 1.2696-6.7107 3.7483-3.0833 2.4787-4.9574 6.0456v39.66q0 1.6928-1.0278 2.6601-1.0278 0.9673-3.3856 1.1487-2.2973 0.18137-6.0457-0.4232z" fill="#fff" stroke-width=".83332"/>
  <path d="m450.99 115.96q7.1943 0 13.059 2.5392 5.9247 2.5392 10.096 7.013 4.232 4.4133 6.5293 10.338 2.2974 5.8643 2.2974 12.575t-2.3578 12.575q-2.2974 5.8643-6.5898 10.338-4.232 4.4133-10.096 6.9525-5.8643 2.5392-12.938 2.5392-7.1339 0-12.998-2.5392-5.8643-2.5392-10.157-6.9525-4.232-4.4738-6.5898-10.338-2.2974-5.8643-2.2974-12.575t2.2974-12.575q2.2974-5.9247 6.4688-10.338 4.232-4.4738 10.096-7.013 5.9247-2.5392 13.18-2.5392zm0 9.4312q-4.8365 0-8.7662 1.8137-3.8692 1.7532-6.7107 4.9574-2.781 3.1438-4.2924 7.3152t-1.5114 8.9476 1.5114 8.9476q1.5719 4.1715 4.3529 7.3152 2.8415 3.1437 6.7711 4.9574t8.6453 1.8137q4.7156 0 8.5848-1.8137 3.9297-1.8137 6.7107-4.9574 2.8415-3.1437 4.3529-7.3152 1.5719-4.1715 1.5719-8.9476t-1.5114-8.9476q-1.5114-4.1715-4.3529-7.3152-2.781-3.2042-6.7107-4.9574-3.8692-1.8137-8.6453-1.8137z" fill="#fff" stroke-width=".83332"/>
  <path d="m500.88 120.38 12.515 48.123 15.477-50.36q1.5114-0.72548 3.1437-1.0882t3.5065-0.36274q2.5392 0 3.9901 0.60457 1.5114 0.54411 2.2973 1.6928 0.78594 1.0882 1.2696 2.7205l14.147 46.733 12.152-48.123q0.36274-1.5719 1.1487-2.3578 0.8464-0.78594 1.9346-1.0278 1.0882-0.24183 2.2369-0.24183 1.9346 0 3.5065 0.42319 1.5719 0.4232 3.0833 1.0882l-16.384 57.071q-0.60458 2.116-1.7532 3.2042-1.0882 1.0278-2.6601 1.33-1.5114 0.30229-3.3856 0.30229-1.6323 0-3.2647-0.24183-1.5719-0.24183-2.9019-0.66502l-15.658-50.36-14.751 46.431q-0.36274 1.33-1.1487 2.4183-0.72547 1.0882-2.2369 1.7532-1.451 0.66502-4.1715 0.66502-1.8137 0-3.446-0.24183-1.6323-0.24183-3.0833-0.66502l-17.653-61.001q1.33-0.60456 3.0833-1.0278 1.7532-0.48365 3.7483-0.48365 1.3905 0 2.4182 0.30229 1.0278 0.30228 1.7532 1.1487 0.72548 0.78594 1.0882 2.2369z" fill="#fff" stroke-width=".83332"/>
  <path d="m588.18 133.74q0-5.5015 2.9624-9.4917 2.9624-3.9901 8.343-6.1061 5.4411-2.1764 12.696-2.1764 6.5293 0 12.333 1.0882 5.8038 1.0882 10.459 2.8415 0.66503 3.7483-0.12091 5.6225-0.72548 1.8742-2.4183 2.3578-1.6323 0.4232-3.6878-0.0604-2.5392-0.66502-5.1388-1.2091-2.5392-0.54411-5.3202-0.84639-2.7206-0.36274-5.8643-0.36274-6.5898 0-9.9753 1.9951-3.3856 1.9951-3.3856 5.7434 0 2.116 1.0278 3.5669 1.0882 1.451 3.0228 2.4787t4.4738 1.8742q2.5996 0.78594 5.6829 1.6323l3.3856 0.90685q3.0833 0.84639 6.1666 1.8742 3.0833 0.9673 5.8038 2.2974 2.781 1.33 4.9574 3.2647 2.1764 1.9346 3.3856 4.6552 1.2696 2.7206 1.2696 6.4688 0 4.6552-1.8742 8.1616-1.8742 3.5065-5.3202 5.8643-3.446 2.2974-8.1616 3.446-4.6552 1.2091-10.217 1.2091-4.5947 0-9.1289-0.66502-4.4738-0.66502-8.4035-1.6323-3.9297-0.9673-6.8316-1.9951-0.36273-1.9951-0.0604-4.111 0.30229-2.116 1.5719-3.3856 1.33-1.2696 4.0506-0.72547 1.9346 0.42319 3.7483 0.90684 2.1764 0.54411 4.4133 1.0882 2.2974 0.48365 4.897 0.84639 2.5996 0.30229 5.7434 0.30229 4.4738 0 7.7989-0.96731 3.3251-0.9673 5.1388-2.9019 1.8137-1.9346 1.8137-4.897 0-1.9951-1.0278-3.5065-1.0278-1.5114-2.8415-2.6601-1.7532-1.1487-4.0506-1.9951-2.2973-0.84639-4.8365-1.5114-2.5392-0.72549-9.2499-2.4183-2.5392-0.66502-5.0179-1.6323-2.4787-1.0278-4.6552-2.3578-2.1764-1.3905-3.8692-3.2042-1.6928-1.8742-2.7206-4.232-0.9673-2.4183-0.9673-5.4411z" fill="#fff" stroke-width=".83332"/>
  <path d="m-199.01 81.565c-4.8693 3.4e-5 -8.8199 3.9507-8.8199 8.8199v63.605c0-3.5558 2.2517-6.66 7.1819-6.8322l858.18-29.971c3.3196-0.11593 6.5958-2.7679 6.5958-6.6992v-20.108c0-4.8692-3.9479-8.82-8.8199-8.8199z" fill="url(#a)" opacity=".35"/>
  <path d="m-340.04 89.199c-11.992 0-14.075 6.3979-14.075 12.537v55.296c0-2.2239 1.7103-4.5753 4.5676-4.6732 1.9928-0.0708 7.6206-0.26689 9.2872-0.32671 1.8297-0.0625 4.6574-1.3047 4.6982-4.7167v-57.659c-1.4247-0.30449-2.95-0.45725-4.4779-0.45725zm46.028 23.547c-8.3357 0-12.96 3.0427-17.788 8.2708l-22.875 24.965 1.827 2.8711c0.7803 1.0685 2.3487 2.8382 5.4099 2.7295 1.0875-0.0381 12.14-0.42096 13.042-0.4563 2.8537-0.10065 4.6616 1.1221 5.7709 2.5786l-4.0882-6.1513 15.706-16.641 10.551 16.535c1.9168 2.4958 4.7853 2.5393 5.397 2.5176 0.54921-0.019 14.376-0.50306 14.99-0.5248 0.95973-0.0326 2.0744 0.4946 2.9091 1.6827l-22.919-37.263c-1.528-0.45675-5.2388-1.1144-7.933-1.1144zm-92.929 0.12502c-3.3522 0-6.7018 0.13881-9.8582 0.48405-14.79 1.6231-22.315 10.505-22.315 21.108 0 5.4456 2.4763 10.695 7.2314 14.428 3.6105 2.368 7.2752 3.2845 10.975 3.9207 3.0368 0.52472 10.07 0.99548 15.296 0.80246 1.6231-0.0571 13.691-0.4813 16.315-0.56829 6.1172-0.20663 9.4317 5.0133 9.0919 10.241 5e-3 -0.0707 0.0108-0.13575 0.0161-0.20917 4e-3 -0.019 5e-3 -0.0412 9e-3 -0.0602 0.0545-0.67698 0.0815-1.3672 0.0815-2.0659 0-9.7929-6.0496-17.762-20.076-20.348l-13.675-2.5388c-4.3717-0.76125-7.1176-1.7755-7.1176-4.2632 0-2.3327 2.8983-4.2631 9.861-4.2631 6.8648 0 12.863 0.71266 16.726 0.71266 5.0296 0 10.265-2.1342 10.265-12.025 0-1.3186-0.15171-2.54-0.4045-3.8096-5.3641-0.65521-13.896-1.5466-22.422-1.5466zm151.04 0.37115c-4.7034 0-10.749 1.2729-14.651 10.617l8.4e-4 8.3e-4 -11.708 27.576-4e-3 0.0161c0.0245-0.0381 0.76447-2.1694 3.021-2.2482 0 0 11.513-0.4051 12.394-0.43501 3.7491-0.13057 5.2582-2.7182 5.6552-3.5366l13.564-30.206c-1.5252-0.81017-4.9298-1.7236-7.6757-1.7752-0.19572-5e-3 -0.39399-9e-3 -0.59791-9e-3zm-72.729 40.466 4e-3 4e-3v-4e-3z" fill="url(#b)" opacity=".35" Googl="true"/>
 </g>
</svg>
