<svg version="1.1" viewBox="0 0 2894.7 500" xmlns="http://www.w3.org/2000/svg">
 <defs>
  <linearGradient id="h" x1="361.97" x2="361.97" y1="275.19" y2="-167.32" gradientTransform="matrix(.99975 0 0 -1 0 304)" gradientUnits="userSpaceOnUse">
   <stop stop-color="#002a91" offset="0"/>
   <stop stop-color="#002672" offset=".8"/>
  </linearGradient>
  <linearGradient id="g" x1="365.5" x2="359.65" y1="40.699" y2="208.23" gradientTransform="matrix(.99975 0 0 -1 0 304)" gradientUnits="userSpaceOnUse">
   <stop stop-color="#fff" offset="0"/>
   <stop stop-color="#fff" stop-opacity=".8347" offset=".1203"/>
   <stop stop-color="#fff" stop-opacity=".6576" offset=".2693"/>
   <stop stop-color="#fff" stop-opacity=".5107" offset=".4195"/>
   <stop stop-color="#fff" stop-opacity=".3965" offset=".5684"/>
   <stop stop-color="#fff" stop-opacity=".3152" offset=".7156"/>
   <stop stop-color="#fff" stop-opacity=".2664" offset=".8603"/>
   <stop stop-color="#fff" stop-opacity=".25" offset="1"/>
  </linearGradient>
  <linearGradient id="f" x1="1832.1" x2="1832.1" y1="22.231" y2="41.461" gradientTransform="matrix(79.796 0 0 26 -144627 -578)" gradientUnits="userSpaceOnUse">
   <stop stop-color="red" offset=".4"/>
   <stop stop-color="#d42321" offset="1"/>
  </linearGradient>
  <linearGradient id="e" x1="1569" x2="1560.3" y1="74.039" y2="323.14" gradientTransform="matrix(1 0 0 -1 -.67737 304)" gradientUnits="userSpaceOnUse">
   <stop stop-color="#fff" offset="0"/>
   <stop stop-color="#fff" stop-opacity=".8347" offset=".1203"/>
   <stop stop-color="#fff" stop-opacity=".6576" offset=".2693"/>
   <stop stop-color="#fff" stop-opacity=".5107" offset=".4195"/>
   <stop stop-color="#fff" stop-opacity=".3965" offset=".5684"/>
   <stop stop-color="#fff" stop-opacity=".3152" offset=".7156"/>
   <stop stop-color="#fff" stop-opacity=".2664" offset=".8603"/>
   <stop stop-color="#fff" stop-opacity=".25" offset="1"/>
  </linearGradient>
 </defs>
 <path d="m499.58 464.2c10.497 4.6 21.795 7.1 33.192 7.1 26.094 0.6 40.39-9.4 50.887-32.8l140.07-312c-9.0978-4.1-18.995-6.4-28.993-6.7-18.096-0.4-42.29 3.3-57.586 40.1l-45.289 106.9-88.978-144.6c-9.7976-2.6-19.895-4-29.993-4.2-31.492 0-48.988 11.5-67.184 31.3l-86.479 94.4 69.483 109.4c12.897 19.9 29.793 30.1 57.286 30.1 13.697 0.2 27.293-2.3 39.99-7.5l-83.779-126 59.385-62.9 97.376 152.7zm-183.65-117.9c0 23-8.9977 36.2-53.987 36.2-5.3986 0-10.797-0.4-16.096-1.1v-305.2c0-23.2 7.898-47.4 53.187-47.4 5.6986 0 11.397 0.6 16.896 1.7zm-92.877-46.1c0 43-28.093 74.2-85.079 80.4-41.29 4.4-101.08-0.8-129.47-4-0.99977-4.9-1.5996-9.9-1.6996-15 0-37.4 20.195-46 39.19-46 19.795 0 50.887 3.5 73.982 3.5 25.494 0 33.192-8.6 33.192-16.9 0-10.7-10.197-15.2-29.993-19l-54.187-10.4c-44.989-8.6-68.983-39.8-68.983-72.8 0-40.1 28.393-73.6 84.279-79.8 42.29-4.6 93.777 0.6 121.97 4 0.99978 4.7 1.4996 9.5 1.4996 14.4 0 37.4-19.795 45.5-38.79 45.5-14.596 0-37.291-2.7-63.184-2.7-26.294 0-37.291 7.3-37.291 16.1 0 9.4 10.397 13.2 26.893 16.1l51.687 9.6c53.087 9.7 75.981 40 75.981 77z" fill="url(#h)"/>
 <path d="m723.82 126.5-51.287 114.2c-3.999 8.2-12.297 13.4-21.395 13.4l-46.788 1.6c-5.0987 0.3-9.5977 3.7-11.397 8.5v-0.1l44.189-104.2c15.396-36.8 39.59-40.5 57.586-40.1 10.098 0.3 19.895 2.6 29.093 6.7zm-134.37 136.6-86.579-140.9c-9.7976-2.6-19.895-4-29.993-4.2-31.492 0-48.988 11.5-67.184 31.3l-86.479 94.4 6.8982 10.9c4.4989 6.8 12.297 10.7 20.495 10.3 4.0991-0.1 45.889-1.6 49.288-1.7 8.4979-0.7 16.696 3 21.795 9.8l-15.496-23.3 59.385-62.9 39.89 62.5c4.8988 6.2 12.497 9.7 20.395 9.5 2.0995-0.1 54.287-1.9 56.686-2 4.3989 0.1 8.5978 2.5 10.897 6.3zm-290.43-234.2c-45.289 0-53.187 24.2-53.187 47.4v209c0-9.6 7.698-17.4 17.296-17.7l35.091-1.2c9.7976 0 17.796-8 17.796-17.8v-218c-5.6986-1.2-11.297-1.8-16.996-1.7zm-151.86 194.2-51.687-9.6c-16.496-2.9-26.893-6.7-26.893-16.1 0-8.8 10.997-16.1 37.291-16.1 25.894 0 48.588 2.7 63.184 2.7 18.995 0 38.79-8.1 38.79-45.5 0-4.8-0.4999-9.7-1.4996-14.4-28.193-3.5-79.68-8.6-121.97-4-55.986 6.2-84.379 39.8-84.379 79.8 0.099977 21.4 10.197 41.6 27.293 54.5 12.597 7.8 26.793 12.9 41.49 14.8 19.195 2.6 38.491 3.6 57.786 3 6.0985-0.2 51.687-1.8 61.685-2.2 23.094-0.8 35.691 18.9 34.392 38.7 0-0.3 0-0.5 0.10003-0.8v-0.2c0.19992-2.6 0.29987-5.2 0.29987-7.8 0-36.7-22.894-67-75.881-76.8z" fill="url(#g)" opacity=".25"/>
 <path d="m2851.5 500h-706.04c-18.395 0.049-33.334-14.85-33.333-33.245v-433.24c-0.098-18.479 14.855-33.511 33.333-33.51h705.78c18.513-0.14733 33.599 14.82 33.599 33.333v433.24c1e-4 18.395-14.938 33.294-33.334 33.245" fill="#fff"/>
 <path d="m2861.5 2e-8h-576.28c-18.4 0-33.3 14.9-33.3 33.3v433.4c0 18.4 14.9 33.3 33.3 33.3h576.18c18.4 0 33.3-14.9 33.3-33.3v-433.4c0.1-18.4-14.8-33.3-33.2-33.3m0 10c12.9 0 23.3 10.5 23.3 23.3v433.4c0 12.8-10.5 23.3-23.3 23.3h-576.28c-12.9 0-23.3-10.5-23.3-23.3v-433.4c0-12.9 10.5-23.3 23.3-23.3h576.28" fill="#002a91"/>
 <path d="m2299.4 0h-1467.8c-18.299 0-33.299 15-33.299 33.3v433.4c0 18.3 14.999 33.3 33.299 33.3h1468.2c18.747 0 33.298-15 33.298-33.3v-433.4c0-18.368-14.894-33.3-33.699-33.3z" fill="url(#f)"/>
 <path d="m822.35 248.1s1.1001-0.1 3.2001-0.2c98.603-3.5 1482.6-51.7 1482.6-51.7 13.9-0.1 25.001-11.5 24.9-25.3v-137.6c0-18.4-14.9-33.3-33.301-33.3h-1468.1c-18.401 0-33.301 14.9-33.301 33.3v241.8c0-15.066 10.3-26.3 24.001-27z" fill="url(#e)" opacity=".4"/>
 <path d="m894.47 359.32c-2.9027-20.4 3.1029-31.6 15.214-31.6 11.311 0 38.636 12.3 76.971 12.3 40.438 0 55.551-14.418 55.551-32.7 0-13.3-5.9054-24.9-42.239-34.9l-41.739-11.3c-46.243-12.1-64.26-35.4-64.26-63.8 0-35.4 27.926-66.9 91.384-66.9 28.326 0 63.759 6.3997 85.479 14.8 3.8036 20-2.5022 31.1-14.613 31.1-10.81 0-35.433-10.4-70.065-10.4-37.535 0-51.448 12.6-51.448 29.3 0 6.9247 1.9635 13.634 10.497 19.866 5.8849 4.2976 14.894 8.3154 28.539 12.234l42.539 11.7c20.12 5.6285 34.116 11.942 45.664 21.346 14.805 12.056 21.098 27.109 21.098 45.354 0 14.521-4.4348 28.448-14.061 39.977-14.702 17.608-40.677 29.724-83.129 29.724-30.828 0.2-68.463-7.4003-91.384-16.1z" fill="#fff"/>
 <path d="m1366.7 252.62c0 30.295-8.3054 56.095-22.098 75.771-21.31 30.398-55.48 47.129-91.384 47.129-35.426 0-63.847-16.3-81.359-40v98.7c0 9.2-5.0571 15.4-21.215 15.4-7.9057 0-15.411-0.8-19.214-2.1v-312.5c3.8027-0.8 11.208-2.1 19.214-2.1 15.811 0 21.215 5.8 21.215 15.4v22.5c17.112-23.8 45.934-40.4 81.459-40.4 59.143 0 113.38 45.4 113.38 122.2zm-40.83 0.39967c0-51.7-34.425-87.1-80.658-87.1-31.222 0-59.944 18.3-73.353 44.6v85c13.31 26.7 42.884 44.6 73.853 44.6 45.48 0 80.158-35.4 80.158-87.1z" fill="#fff"/>
 <path d="m1405.4 252.82c0-70.114 51.441-122.4 120.88-122.4 69.649 0 121.28 52.285 121.28 122.4 0 69.714-51.736 122.7-121.28 122.7-69.148 0-120.88-52.987-120.88-122.7zm201.2 0.10135c0-54.089-36.172-86.922-80.337-86.922-43.766 0-79.938 32.833-79.938 86.922 0 53.191 36.372 87.221 80.138 87.221 44.066-0.39917 80.137-34.03 80.137-87.221z" fill="#fff"/>
 <path d="m1842.9 152.52c0 16.2-6.4991 19.7-23.597 19.7-33.796 0-62.492 15.8-79.99 52.5v132.8c0 10-5.3993 15.5-21.697 15.5-6.6991 0-14.598-0.90033-18.797-2.2003v-235.8c3.7995-0.8 11.698-2.1 18.797-2.1 16.198 0 21.697 5.8 21.697 15.4v32.9c22.897-35 57.288-52.58 101.69-46.7 0.5 3.4 1.8998 10.9 1.8998 18z" fill="#fff"/>
 <path d="m2019.4 359.21c-20.397 10.007-44.194 16.211-67.891 16.211-46.694 0-74.49-27.519-74.49-73.35v-202.54c0-10.407 5.6991-17.212 21.597-17.212 6.6991 0 14.598 1.6012 18.798 2.4017v51.235h91.788c0.4 3.3022 1.5001 10.407 1.5001 16.211 0 14.21-5.7992 19.213-14.598 19.213h-78.69v127.99c0 27.519 12.998 40.828 38.895 40.828 22.154 0 37.096-10.407 48.294-10.407 11.098 0.20014 17.298 9.8067 14.798 29.42z" fill="#fff"/>
 <path d="m2047.5 359.32c-2.9027-20.4 3.1029-31.6 15.214-31.6 11.311 0 38.636 12.3 76.971 12.3 40.438 0 55.451-14.418 55.451-32.7 0-13.3-5.8054-24.9-42.139-34.9l-41.738-11.3c-46.243-12.1-64.359-35.4-64.359-63.8 0-35.4 28.025-66.9 91.484-66.9 28.326 0 63.759 6.3997 85.479 14.8 3.8036 20-2.5022 31.1-14.613 31.1-10.81 0-35.433-10.4-70.065-10.4-37.535 0-51.448 12.6-51.448 29.3 0 6.9247 1.9635 13.634 10.497 19.866 5.8849 4.2976 14.894 8.2158 28.539 12.134l42.539 11.7c47.544 13.3 66.762 35.5 66.762 66.8 0 14.521-4.4348 28.448-14.061 39.977-14.702 17.608-40.677 29.724-83.129 29.724-30.828 0.2-68.463-7.4003-91.384-16.1z" fill="#fff"/>
 <path d="m2610.9 89.79c-5.3766 0-10.351 0.67944-14.116 1.6818-4.6738 1.2444-8.1508 2.9446-10.544 4.5023-10.397 6.7666-11.623 18.144-11.623 24.278v95.985h-91.957c-8.4199 0-15.035 2.4305-20.483 7.291-3.6306 3.239-6.872 8.3126-8.6168 15.221-0.8736 3.4587-1.4332 7.3773-1.4332 11.756 0 11.972 2.3456 22.587 4.611 32.809h117.88v121.62c9.7052 3.9741 22.783 5.3203 34.373 5.3203 5.2518 0 9.6877-0.45058 13.457-1.2676 1.8982-0.41145 6.349-1.5084 10.772-4.3867 10.397-6.7666 11.623-17.716 11.623-23.85v-97.441h90.508c2.8562 0 7.5574-0.29687 12.413-2.0821 4.4028-1.6187 8.9327-4.4788 12.329-9.1199 3.848-5.2579 6.5319-12.93 6.5319-24.091 0-4.9719-0.5905-10.691-1.452-16.063-1.0112-6.3062-2.358-12.135-3-15.72h-117.33v-121.03c-9.7052-3.9741-22.352-5.42-33.942-5.42z" fill="#002a91"/>
</svg>
