<svg enable-background="new 0 0 2384 272.7" version="1.1" viewBox="0 0 2384 272.7" xml:space="preserve" xmlns="http://www.w3.org/2000/svg">
<style type="text/css">
	.st0{fill:#FFFFFF;}
	.st1{fill:#808080;}
	.st2{fill:#131780;}
	.st3{fill:url(#c);}
	.st4{fill:url(#b);}
	.st5{opacity:0.2;fill:#FFFFFF;enable-background:new    ;}
	.st6{fill:url(#a);}
</style>
			<path class="st0" d="M2076.4,6.5h-913.2V267h913.2V6.5z"/>
			<rect class="st1" x="1163.2" y=".8" width="913.2" height="5.6"/>
			<rect class="st1" x="1163.2" y="267" width="913.2" height="5.7"/>
			<path class="st2" d="m1920.1 124.4v74.5c-2 0.5-5.4 1-8.6 1-6.9 0-9.8-2.5-9.8-7.1v-8.8h-0.2c-8.8 9.1-22.6 17.4-40.9 17.4-26 0-40.2-17.2-40.2-36 0-27.7 29.9-40.7 81.2-37.3v-2.9c0-18.4-5.9-28.4-28.4-28.4-12 0-22.1 2.5-28.9 4.4-3.4 1-6.1 1.7-8.1 1.7-5.1 0-8.3-5.1-7.1-15 11-4.4 28.2-8.3 44.6-8.3 33.9-0.1 46.4 17 46.4 44.8m-18.7 40.4v-22.1c-33.3-1.5-62.3 2.2-62.3 23.1 0 10.3 8.8 19.4 23.8 19.4 15.3 0 29.5-8.4 38.5-20.4"/>
			<path class="st2" d="m1305.8 44.9c0 7.8-3.2 11-7.1 11-3.7 0-12-3.7-23-3.7-12.2 0-19.6 5.9-19.6 20.8v10.8h39.9c0.2 1.7 0.7 5.1 0.7 8.3 0 7.1-2.9 9.6-7.3 9.6h-33.3v90.4c0 4.9-2.4 7.6-10.8 7.6-3.4 0-7.3-0.5-9.3-1v-97h-17.6c-0.5-1.7-0.7-5.1-0.7-8.3 0-7.1 2.9-9.6 7.4-9.6h11v-9.6c0-27.4 16.4-40.2 38.7-40.2 10.3 0 24 2.7 30.6 5.6 0.4 2.1 0.4 4.1 0.4 5.3"/>
			<path class="st2" d="m1444.6 139.9c0-34.8 25.8-60.8 60.3-60.8 34.8 0 60.6 26 60.6 60.8s-25.8 61.3-60.6 61.3c-34.5 0.1-60.3-26.4-60.3-61.3m100.6 0c0-26.7-18.2-43.2-40.2-43.2-21.8 0-40 16.4-40 43.2 0 26.7 18.2 43.4 40 43.4 22 0 40.2-16.6 40.2-43.4"/>
			<path class="st2" d="m1801.2 140c0 38.3-27 61.2-56.8 61.2-17.9 0-32.4-8.4-41-20.4v9.6c0 6.1-2.7 9.3-10.6 9.3-3.4 0-7.4-0.7-9.3-1.5v-151.5c0-4.7 2.7-7.6 11.1-7.6 3.4 0 6.9 0.5 8.8 1v59.4c8.6-12 23.1-20.4 41-20.4 29.8 0 56.8 22.8 56.8 60.9m-20.6 0c0-25.6-17-43.2-40-43.2-16 0-30.7 9.3-37.1 22.8v41c6.4 13.5 21.1 22.9 37.1 22.9 23 0 40-17.7 40-43.5"/>
			<path class="st2" d="m1951.1 198.5v-151.6c0-4.7 2.7-7.6 10.8-7.6 3.4 0 7.1 0.7 9.1 1.2v151.3c0 4.9-2.5 7.6-10.5 7.6-3.5 0.1-7.4-0.4-9.4-0.9"/>
			<path class="st2" d="m2002.1 198.5v-151.6c0-4.7 2.7-7.6 10.8-7.6 3.4 0 7.1 0.7 9.1 1.2v151.3c0 4.9-2.4 7.6-10.5 7.6-3.5 0.1-7.5-0.4-9.4-0.9"/>
			<path class="st2" d="m1662.4 193.3c-10.3 4.9-22.1 8.1-34.1 8.1-23.3 0-37.6-13.7-37.6-36.6v-104.7c0-4.7 2.7-7.6 10.8-7.6 3.4 0 7.4 0.7 9.1 1.5v27.6h46.6c0.2 1.7 0.7 5.2 0.7 8.1 0 7.1-2.7 9.6-7.4 9.6h-40v63.8c0 13.7 6.6 20.1 19.9 20.1 11.8 0 18.9-4.9 24.5-4.9 5.8 0 8.7 5.2 7.5 15"/>
			<path class="st2" d="m1303.4 139.9c0-34.8 25.8-60.8 60.3-60.8 34.8 0 60.6 26 60.6 60.8s-25.8 61.3-60.6 61.3c-34.6 0.1-60.3-26.4-60.3-61.3m100.5 0c0-26.7-18.2-43.2-40.2-43.2-21.8 0-40 16.4-40 43.2 0 26.7 18.1 43.4 40 43.4 22.1 0 40.2-16.6 40.2-43.4"/>
			<linearGradient id="c" x1="-10260" x2="-10260" y1="7587.7" y2="7212" gradientTransform="matrix(-1 0 0 1 -9452.4 -7272.7)" gradientUnits="userSpaceOnUse">
			<stop stop-color="#A80002" offset="0"/>
			<stop stop-color="#EA021A" offset="1"/>
		</linearGradient>
		<path class="st3" d="M452.6,0.7h710.6v272H452.6V0.7z"/>
				<linearGradient id="b" x1="226.3" x2="226.3" y1="-1653" y2="-1277.3" gradientTransform="matrix(1 0 0 -1 0 -1338)" gradientUnits="userSpaceOnUse">
				<stop stop-color="#00043B" offset="0"/>
				<stop stop-color="#002672" offset="1"/>
			</linearGradient>
			<path class="st4" d="m452.6 272.7h-434.5c-9.9 0-18.1-8.2-18.1-18.1v-236c0-9.5 7.9-17.9 17.9-17.9h434.7v272z"/>
			<path class="st0" d="m306 242.6c2.9 1.6 8.8 3.4 16.5 3.4 12.9 0.2 19.9-4.8 25.2-16.3l69.4-154.6c-2.9-1.6-9.3-3.2-14.3-3.4-8.8-0.2-20.9 1.6-28.6 19.9l-22.4 53-44.2-71.4c-2.9-0.9-9.7-2-15-2-15.4 0-24.3 5.7-33.3 15.4l-42.6 46.7 34.5 54.2c6.3 10 14.7 15 28.3 15 8.8 0 16.3-2 19.7-3.6l-41.5-62.6 29.5-31.1 48.3 75.7-29.5 61.7zm-90.9-58.5c0 11.3-4.5 17.9-26.7 17.9-2.9 0-5.4-0.2-7.9-0.7v-151c0-11.6 3.9-23.3 26.3-23.3 2.7 0 5.7 0.2 8.4 0.9l-0.1 156.2zm-46-22.7c0 21.3-13.8 36.7-42.2 39.9-20.4 2.3-50.1-0.5-64.1-2-0.5-2.3-0.9-5.2-0.9-7.5 0-18.6 10-22.9 19.5-22.9 9.7 0 25.2 1.6 36.7 1.6 12.7 0 16.3-4.3 16.3-8.4 0-5.4-5-7.5-15-9.5l-26.5-4.8c-22.2-4.3-34-19.7-34-36 0-19.9 14.1-36.5 41.7-39.7 20.9-2.3 46.5 0.2 60.3 2 0.5 2.5 0.7 4.8 0.7 7.3 0 18.6-9.7 22.4-19.3 22.4-7.3 0-18.4-1.4-31.3-1.4-13.1 0-18.4 3.6-18.4 7.9 0 4.5 5.2 6.6 13.4 7.9l25.6 4.8c26.4 5.1 37.5 20 37.5 38.4"/>
			<path class="st0" d="m508.6 194c-1.4-10.7 2-16.3 7.7-16.3 6.1 0 20.9 6.8 41.7 6.8 22.2 0 30.6-8.2 30.6-18.6 0-7.3-3.2-13.1-23.6-18.8l-22.7-6.3c-24.3-6.6-34.2-18.8-34.2-34.2 0-18.6 14.7-35.8 49-35.8 15.4 0 34.5 3.6 45.8 8.2 1.4 10.4-2 15.9-7.3 15.9-5.7 0-19.5-6.3-38.5-6.3-20.4 0-28.1 7.5-28.1 17.2 0 6.3 2.9 12.2 21.5 17.5l23.1 6.8c25.6 7.3 36 19.3 36 35.4 0 19.9-15.6 37.6-52.1 37.6-16.7-0.2-36.9-4.3-48.9-9.1"/>
			<path class="st0" d="m759.3 136.7c0 41-28.8 66-61.2 66-19.5 0-35.1-9.1-44.4-22.2v55.5c0 4.8-2.7 7.9-10.9 7.9-3.6 0-7.7-0.5-9.5-1.1v-168.9c1.8-0.5 5.9-1.4 9.5-1.4 8.2 0 10.9 3.2 10.9 7.9v12.7c9.3-13.1 24.9-22.2 44.4-22.2 32.4 0.3 61.2 25 61.2 65.8m-20.9 0c0-28.1-18.8-47.4-44-47.4-17.5 0-33.5 10-40.8 24.7v46c7.3 14.5 23.3 24.7 40.8 24.7 25.2-0.2 44-19.4 44-48"/>
			<path class="st0" d="m779.4 136.7c0-37.6 27.9-65.5 65.1-65.5 37.4 0 65.1 28.1 65.1 65.5 0 37.9-27.9 66-65.1 66s-65.1-28.1-65.1-66m109.3 0c0-29-19.9-47.4-44.2-47.4s-44.2 18.4-44.2 47.4c0 29.5 19.9 47.8 44.2 47.8 24.2 0 44.2-18.3 44.2-47.8"/>
			<path class="st0" d="m1011.5 82.5c0 7.7-3.4 9.5-10.9 9.5-14.5 0-35.1 4.8-45.6 28.1v73c0 5-2.7 7.9-10.9 7.9-3.6 0-7.7-0.5-9.5-1.1v-126c1.8-0.5 5.9-1.4 9.5-1.4 8.2 0 10.9 3.2 10.9 7.9v15.4c11.6-16.8 31.7-25.8 55.5-22 0.4 1.7 1 5.6 1 8.7"/>
			<path class="st0" d="m1108.6 194c-10.9 5.2-23.6 8.4-36.5 8.4-24.9 0-39.9-14.3-39.9-39v-113.3c0-4.8 2.7-7.9 10.9-7.9 3.6 0 7.7 0.9 9.5 1.6v29.9h50.5c0.2 1.6 0.7 5 0.7 8.2 0 7.5-3.2 9.7-7.7 9.7h-43.7v70c0 15.4 7.5 22 21.8 22 12.9 0 20.6-5 26.7-5 5.8 0.5 8.8 5.7 7.7 15.4"/>
		<path class="st5" d="M1163.2,0.7H18.1C8.2,0.7,0,8.9,0,18.8v164.1c0-14.5,11.6-26.5,26.1-27l1137.1-45V0.7z"/>
		<linearGradient id="a" x1="2230" x2="2230" y1="1882.6" y2="1610.6" gradientTransform="translate(0 -1610.6)" gradientUnits="userSpaceOnUse">
		<stop stop-color="#00043B" offset="0"/>
		<stop stop-color="#002672" offset="1"/>
	</linearGradient>
	<path class="st6" d="m2076 0v272h290.1c10 0 17.9-8.4 17.9-17.9v-236c0-10-8.2-18.1-18.1-18.1h-289.9z"/>
	<g transform="translate(121.74 4.6824)">
		<path class="st0" d="m2090.6 68.2c-1.2-0.4-2.5-0.4-3.7-0.4-3.3 0-5.7 0.8-7.4 2-1.6 1.2-2.5 3.3-2.5 5.7v47.5h-64.6v-53.2l-1.6-0.8c-0.8-0.4-2-0.8-3.3-0.8-1.2-0.4-2.5-0.4-3.7-0.4-3.3 0-5.7 0.8-7.4 2-1.6 1.2-2.5 3.3-2.5 5.7v118.6l1.6 0.8c0.8 0.4 2 0.8 3.3 0.8 1.2 0.4 2.5 0.4 3.7 0.4 3.3 0 5.7-0.8 7.4-2 1.6-1.2 2.5-3.3 2.5-5.7v-49.1h64.6v54.8l1.6 0.8c0.8 0.4 2 0.8 3.3 0.8 1.2 0.4 2.5 0.4 3.7 0.4 3.3 0 5.7-0.8 7.4-2s2.5-3.3 2.5-5.7v-118.6l-1.6-0.8c-0.4-0.4-1.6-0.8-3.3-0.8z"/>
		<path class="st0" d="m2225.2 105.6c-3.3-7.8-7.8-14.3-13.9-19.6s-13.5-9.4-21.7-12.3-18-4.5-28.2-4.5h-28.6c-3.7 0-6.1 0.8-7 2.5-0.8 1.2-1.6 3.3-1.6 4.9v110.4c0 2 0.4 3.7 1.6 4.9 1.2 1.6 3.7 2.5 7 2.5h28.6c10.2 0 20-1.6 28.2-4.9 8.6-3.3 15.5-7.8 21.7-13.9 6.1-5.7 10.6-12.7 13.9-20.5s4.9-16 4.9-25c0-8.1-1.6-16.7-4.9-24.5zm-18.4 46.6c-2.5 6.1-6.1 11-10.6 14.7-4.5 4.1-9.8 7-15.5 9-6.1 2-12.3 3.3-18.8 3.3h-19.2v-93.2h19.2c6.5 0 13.1 1.2 19.2 3.3s11 4.9 15.5 9c4.5 3.7 8.2 8.6 10.6 14.3 2.5 5.7 4.1 12.3 4.1 19.2-0.4 7.3-1.6 14.3-4.5 20.4z"/>
	</g>
	<path class="st5" d="M2365.9,0H2076v109.7l308-12.2V18.1C2384,8.2,2375.8,0,2365.9,0"/>
</svg>
