<svg version="1.1" viewBox="0 0 709.61 240" xmlns="http://www.w3.org/2000/svg">
 <defs>
  <linearGradient id="c" x1="-8599.2" x2="-8599.2" y1="-4719.4" y2="-4553.6" gradientTransform="rotate(180 -4107.9 -2290.4)" gradientUnits="userSpaceOnUse">
   <stop stop-color="#a80002" offset="0"/>
   <stop stop-color="#ea021a" offset="1"/>
  </linearGradient>
  <linearGradient id="b" x1="99.851" x2="99.851" y1="138.67" y2="-27.096" gradientTransform="matrix(-1 0 0 1 709.56 0)" gradientUnits="userSpaceOnUse">
   <stop stop-color="#00043b" offset="0"/>
   <stop stop-color="#002672" offset="1"/>
  </linearGradient>
 </defs>
 <path d="m7.9004 0c-4.4 0-7.9004 3.7004-7.9004 7.9004v112.1h709.56v-112.1c2e-5 -4.2-3.5004-7.9004-7.9004-7.9004z" fill="url(#b)"/>
 <g transform="matrix(.48 0 0 .48 567 .0002425)" fill="#fff">
  <path d="m47.72 66.75c4.27-1.63 9.01-0.77 13.3 0.33v50.41h57.96v-43.52c-0.2-3.08 1.41-6.38 4.46-7.41 4.18-1.36 8.6398-0.52 12.8 0.5v111.94c0.19 2.95-1.6798 5.81-4.4798 6.78-4.19 1.35-8.66 0.5-12.78-0.69v-51.58h-57.96v45.56c0.17 2.76-1.52 5.48-4.09 6.53-4.28 1.62-8.94 0.68-13.19-0.49v-111.08c-0.16-2.92 1.16-6.08 3.98-7.28z"/>
  <path d="m163.6 67.6c1.9354-1.2505 4.1828-1.4231 6.4468-1.407h20.664c9.4196-0.02864 18.815 0.35498 27.86 3.307 14.45 4.25 27.14 14.48 33.54 28.21 5.52 11.92 6.78 25.54 4.66 38.43-2.52 15.09-11.04 29.21-23.67 37.96-10.48 7.39-23.33 11.21-36.12 11.18h-27.04c-2.47-0.06-5.46 0.0498-7.15-2.1002-1.87-2.29-1.55-5.41-1.57-8.16v-100.06c-0.01-2.57 0.12-5.67 2.38-7.36m14.9 14.359v87.541h18.52c10.64-0.21 21.64-3.5602 29.54-10.93 9.32-8.38 13.81-21.17 13.46-33.53 0.39-9.74-2.69-19.54-8.69-27.24-5.52-7-13.5-11.82-22.09-14.05-5.1447-1.3914-10.41-1.7905-15.703-1.7905z"/>
 </g>
 <path d="m199.7 0h367.3v120h-367.3z" fill="url(#c)"/>
 <path d="m135 106.7c1.3 0.7 3.9 1.5 7.3 1.5 5.7 0.1 8.8-2.1 11.1-7.2l30.6-68.2c-1.3-0.7-4.1-1.4-6.3-1.5-3.9-0.1-9.2 0.7-12.6 8.8l-9.9 23.4-19.5-31.5c-1.3-0.4-4.3-0.9-6.6-0.9-6.8 0-10.7 2.5-14.7 6.8l-18.8 20.6 15.2 23.9c2.8 4.4 6.5 6.6 12.5 6.6 3.9 0 7.2-0.9 8.7-1.6l-18.3-27.6 13-13.7 21.3 33.4zm-40.1-25.8c0 5-2 7.9-11.8 7.9-1.3 0-2.4-0.1-3.5-0.3v-66.6c0-5.1 1.7-10.3 11.6-10.3 1.2 0 2.5 0.1 3.7 0.4zm-20.3-10c0 9.4-6.1 16.2-18.6 17.6-9 1-22.1-0.2-28.3-0.9-0.2-1-0.4-2.3-0.4-3.3 0-8.2 4.4-10.1 8.6-10.1 4.3 0 11.1 0.7 16.2 0.7 5.6 0 7.2-1.9 7.2-3.7 0-2.4-2.2-3.3-6.6-4.2l-11.7-2.1c-9.8-1.9-15-8.7-15-15.9 0-8.8 6.2-16.1 18.4-17.5 9.2-1 20.5 0.1 26.6 0.9 0.2 1.1 0.3 2.1 0.3 3.2 0 8.2-4.3 9.9-8.5 9.9-3.2 0-8.1-0.6-13.8-0.6-5.8 0-8.1 1.6-8.1 3.5 0 2 2.3 2.9 5.9 3.5l11.3 2.1c11.6 2.2 16.5 8.8 16.5 16.9m149.7 14.4c-0.6-4.7 0.9-7.2 3.4-7.2 2.7 0 9.2 3 18.4 3 9.8 0 13.5-3.6 13.5-8.2 0-3.2-1.4-5.8-10.4-8.3l-10-2.8c-10.7-2.9-15.1-8.3-15.1-15.1 0-8.2 6.5-15.8 21.6-15.8 6.8 0 15.2 1.6 20.2 3.6 0.6 4.6-0.9 7-3.2 7-2.5 0-8.6-2.8-17-2.8-9 0-12.4 3.3-12.4 7.6 0 2.8 1.3 5.4 9.5 7.7l10.2 3c11.3 3.2 15.9 8.5 15.9 15.6 0 8.8-6.9 16.6-23 16.6-7.4 0-16.3-1.8-21.6-3.9m110.6-25.3c0 18.1-12.7 29.1-27 29.1-8.6 0-15.5-4-19.6-9.8v24.5c0 2.1-1.2 3.5-4.8 3.5-1.6 0-3.4-0.2-4.2-0.5v-74.5c0.8-0.2 2.6-0.6 4.2-0.6 3.6 0 4.8 1.4 4.8 3.5v5.6c4.1-5.8 11-9.8 19.6-9.8 14.3 0.1 27 11 27 29m-9.2 0c0-12.4-8.3-20.9-19.4-20.9-7.7 0-14.8 4.4-18 10.9v20.3c3.2 6.4 10.3 10.9 18 10.9 11.1-0.1 19.4-8.6 19.4-21.2m18.1 0c0-16.6 12.3-28.9 28.7-28.9 16.5 0 28.7 12.4 28.7 28.9 0 16.7-12.3 29.1-28.7 29.1s-28.7-12.4-28.7-29.1m48.2 0c0-12.8-8.8-20.9-19.5-20.9s-19.5 8.1-19.5 20.9c0 13 8.8 21.1 19.5 21.1s19.5-8.1 19.5-21.1m54.2-23.9c0 3.4-1.5 4.2-4.8 4.2-6.4 0-15.5 2.1-20.1 12.4v32.2c0 2.2-1.2 3.5-4.8 3.5-1.6 0-3.4-0.2-4.2-0.5v-55.6c0.8-0.2 2.6-0.6 4.2-0.6 3.6 0 4.8 1.4 4.8 3.5v6.8c5.1-7.4 14-11.4 24.5-9.7 0.1 0.7 0.4 2.4 0.4 3.8m52 49.2c-0.6-4.7 0.9-7.2 3.4-7.2 2.7 0 9.2 3 18.4 3 9.8 0 13.5-3.6 13.5-8.2 0-3.2-1.4-5.8-10.4-8.3l-10-2.8c-10.7-2.9-15.1-8.3-15.1-15.1 0-8.2 6.5-15.8 21.6-15.8 6.8 0 15.2 1.6 20.2 3.6 0.6 4.6-0.9 7-3.2 7-2.4 0-8.6-2.8-17-2.8-9 0-12.4 3.3-12.4 7.6 0 2.8 1.3 5.4 9.5 7.7l10.2 2.8c11.3 3.2 15.9 8.5 15.9 15.6 0 8.8-6.9 16.6-23 16.6-7.3 0.2-16.2-1.6-21.6-3.7m-9.2 0c-4.8 2.3-10.4 3.7-16.1 3.7-11 0-17.6-6.3-17.6-17.2v-50c0-2.1 1.2-3.5 4.8-3.5 1.6 0 3.4 0.4 4.2 0.7v13.2h22.3c0.1 0.7 0.3 2.2 0.3 3.6 0 3.3-1.4 4.3-3.4 4.3h-19.3v30.9c0 6.8 3.3 9.7 9.6 9.7 5.7 0 9.1-2.2 11.8-2.2 2.6 0.2 3.9 2.5 3.4 6.8" fill="#fff"/>
 <path d="m8 0c-4.4 0-8 3.6-8 8v72.4c0-6.4 5.1-11.7 11.5-11.9l698.11-22.199v-38.301c0-4.4-3.6-8-8-8z" fill="#fff" opacity=".2"/>
 <path d="m7.9004 240c-4.4 0-7.9004-3.7004-7.9004-7.9004v-112.1h709.56v112.1c2e-5 4.2-3.5004 7.9004-7.9004 7.9004z" fill="#999"/>
 <path d="m10.4 237.5c-4.4 0-7.9004-3.7004-7.9004-7.9004v-109.6h704.56v109.6c1e-5 4.2-3.5004 7.9004-7.9004 7.9004z" fill="#fff"/>
 <g transform="translate(-329.26 453.56)" fill="#121780">
  <path d="m496.32-248.04c-4.64 2.16-9.8399 3.6-15.04 3.6-10.4 0-16.56-6.16-16.56-16.24v-46.08c0-2.32 1.28-3.84 4.8-3.84 1.52 0 3.2 0.31999 4 0.55999v12.4h20.48c0.08 0.79999 0.32 2.24 0.32 3.6 0 3.2-1.28 4.32-3.28 4.32h-17.52v28.24c0 6.08 2.88 8.9599 8.7199 8.9599 5.2 0 8.1599-2.16 10.64-2.16 2.64 0.16 3.92 2.32 3.44 6.64z"/>
  <path d="m549.28-276.44v27.84c0 2.16-1.2 3.44-4.8 3.44-1.44 0-3.28-0.16-4.08-0.4v-29.68c0-10.56-5.12-15.52-12.88-15.52-6 0-12.48 4.08-15.2 8.9599v33.2c0 2.24-1.2 3.44-4.8 3.44-1.52 0-3.28-0.16-4.08-0.4v-69.759c0-2.16 1.2-3.44 4.8-3.44 1.44 0 3.28 0.16 4.08 0.39999v27.92c3.76-4.64 9.5199-8.3199 17.36-8.3199 10.8 0 19.6 6.8 19.6 22.32z"/>
  <path d="m608.32-268.36h-40.48c1.28 9.9999 8.1599 15.68 18.48 15.68 4.48 0 7.9999-0.88 11.2-2 2.32-0.79999 3.28-1.12 4.08-1.12 2.48 0 4.08 2.16 3.68 6.96-4.64 2.08-11.84 4.4-19.36 4.4-16.32 0-27.44-11.04-27.44-27.44 0-15.6 11.76-26.88 25.92-26.88 16.08 0 24.08 12.64 24.08 25.2 0.15999 1.52 0 3.36-0.16 5.2zm-40.48-6.88h32.16c-0.32-8.7999-6.08-15.92-15.36-15.92-8.1599 0-15.52 5.52-16.8 15.92z"/>
  <path d="m689.12-278.84v33.2c-0.88 0.16-2.48 0.4-4 0.4-3.28 0-4.8-1.2-4.8-3.44v-4.4c-4.72 5.36-10.8 8.4799-18.48 8.4799-11.76 0-18.16-7.6-18.16-15.84 0-12.64 13.52-18.24 36.56-16.72v-1.68c0-8.6399-2.64-12.32-12.56-12.32-4.08 0-9.6799 1.2-12.56 2.08-1.68 0.39999-3.12 0.87999-4.08 0.87999-2.56 0-4.16-2.16-3.36-6.8 5.36-1.92 13.12-3.76 20.56-3.76 15.2 0 20.88 6.88 20.88 19.92zm-9.0399 18.16v-9.8399c-14.96-1.12-27.6 0.87999-27.6 9.8399 0 4.64 3.84 8.7199 10.72 8.7199 7.04 0 13.12-3.52 16.88-8.7199z"/>
  <path d="m698.72-248.04c-0.72-4.64 0.79999-6.88 3.36-6.88s8.6399 2.64 17.12 2.64c8.8799 0 12.32-3.28 12.32-7.3599 0-2.96-1.28-5.36-9.4399-7.6l-9.2799-2.56c-10.16-2.8-14.32-7.7599-14.32-14.16 0-7.8399 6.24-14.8 20.32-14.8 6.32 0 14.24 1.36 19.04 3.28 0.87999 4.56-0.56 6.96-3.36 6.96-2.4 0-7.7599-2.64-15.6-2.64-8.2399 0-11.28 2.88-11.28 6.88 0 2.64 1.2 4.88 8.6399 7.12l9.4399 2.56c10.64 2.96 14.8 7.8399 14.8 14.72 0 8.2399-6.24 15.52-21.6 15.52-6.64-0.08-15.04-1.68-20.16-3.68z"/>
  <path d="m795.36-276.44v27.84c0 2.16-1.2 3.44-4.8 3.44-1.44 0-3.28-0.16-4.08-0.4v-29.68c0-10.56-5.12-15.52-12.88-15.52-6 0-12.48 4.08-15.2 8.9599v33.2c0 2.24-1.2 3.44-4.8 3.44-1.52 0-3.28-0.16-4.08-0.4v-69.759c0-2.16 1.2-3.44 4.8-3.44 1.44 0 3.28 0.16 4.08 0.39999v27.92c3.76-4.64 9.5199-8.3199 17.36-8.3199 10.8 0 19.6 6.8 19.6 22.32z"/>
  <path d="m854.4-268.36h-40.48c1.28 9.9999 8.1599 15.68 18.48 15.68 4.48 0 7.9999-0.88 11.2-2 2.32-0.79999 3.28-1.12 4.08-1.12 2.48 0 4.08 2.16 3.68 6.96-4.64 2.08-11.84 4.4-19.36 4.4-16.32 0-27.44-11.04-27.44-27.44 0-15.6 11.76-26.88 25.92-26.88 16.08 0 24.08 12.64 24.08 25.2 0.24 1.52 0.16 3.36-0.16 5.2zm-40.48-6.88h32.16c-0.32-8.7999-6.08-15.92-15.36-15.92-8.1599 0-15.52 5.52-16.8 15.92z"/>
  <path d="m861.6-248.04c-0.71999-4.64 0.79999-6.88 3.36-6.88 2.56 0 8.6399 2.64 17.12 2.64 8.8799 0 12.32-3.28 12.32-7.3599 0-2.96-1.28-5.36-9.4399-7.6l-9.2799-2.56c-10.16-2.8-14.32-7.7599-14.32-14.16 0-7.8399 6.24-14.8 20.32-14.8 6.32 0 14.24 1.36 19.04 3.28 0.87999 4.56-0.56 6.96-3.36 6.96-2.4 0-7.76-2.64-15.6-2.64-8.2399 0-11.28 2.88-11.28 6.88 0 2.64 1.2 4.88 8.6399 7.12l9.4399 2.56c10.64 2.96 14.8 7.8399 14.8 14.72 0 8.2399-6.24 15.52-21.6 15.52-6.64-0.08-15.04-1.68-20.16-3.68z"/>
 </g>
</svg>
