<svg xmlns="http://www.w3.org/2000/svg" height="93.57" width="600" viewBox="0 0 158.75 24.757">
    <defs>
        <linearGradient id="a" gradientUnits="userSpaceOnUse" gradientTransform="matrix(0 23.683 23.683 0 209.57 431.54)" x2=".992" x1=".008" y1="0" y2="0">
            <stop stop-color="#0f1c4d" offset="0"/>
            <stop stop-color="#101e51" offset=".004"/>
            <stop stop-color="#101f54" offset=".008"/>
            <stop stop-color="#112157" offset=".012"/>
            <stop stop-color="#12225a" offset=".016"/>
            <stop stop-color="#13245d" offset=".02"/>
            <stop stop-color="#132560" offset=".023"/>
            <stop stop-color="#142662" offset=".027"/>
            <stop stop-color="#142764" offset=".031"/>
            <stop stop-color="#142764" offset=".063"/>
            <stop stop-color="#142764" offset=".125"/>
            <stop stop-color="#142764" offset=".25"/>
            <stop stop-color="#142764" offset=".5"/>
            <stop stop-color="#142764" offset=".75"/>
            <stop stop-color="#142764" offset=".875"/>
            <stop stop-color="#142764" offset=".891"/>
            <stop stop-color="#142764" offset=".898"/>
            <stop stop-color="#142763" offset=".902"/>
            <stop stop-color="#142763" offset=".906"/>
            <stop stop-color="#132662" offset=".91"/>
            <stop stop-color="#132661" offset=".914"/>
            <stop stop-color="#132560" offset=".918"/>
            <stop stop-color="#13255f" offset=".922"/>
            <stop stop-color="#12245d" offset=".926"/>
            <stop stop-color="#12245c" offset=".93"/>
            <stop stop-color="#12235b" offset=".934"/>
            <stop stop-color="#12235a" offset=".938"/>
            <stop stop-color="#112259" offset=".941"/>
            <stop stop-color="#112258" offset=".945"/>
            <stop stop-color="#112157" offset=".949"/>
            <stop stop-color="#112056" offset=".953"/>
            <stop stop-color="#102055" offset=".957"/>
            <stop stop-color="#102054" offset=".961"/>
            <stop stop-color="#101f53" offset=".965"/>
            <stop stop-color="#101e52" offset=".969"/>
            <stop stop-color="#0f1d50" offset=".973"/>
            <stop stop-color="#0f1d4f" offset=".977"/>
            <stop stop-color="#0f1c4e" offset=".98"/>
            <stop stop-color="#0f1c4d" offset=".984"/>
            <stop stop-color="#0e1b4c" offset=".988"/>
            <stop stop-color="#0e1b4b" offset=".992"/>
            <stop stop-color="#0e1a4a" offset=".996"/>
            <stop stop-color="#0e1949" offset="1"/>
        </linearGradient>
        <linearGradient id="b" gradientUnits="userSpaceOnUse" gradientTransform="rotate(-90 337.09 117.95) scale(23.293)" x1="0" x2="1" y1="0" y2="0">
            <stop stop-color="#552227" offset="0"/>
            <stop stop-color="#5a2227" offset=".004"/>
            <stop stop-color="#602228" offset=".008"/>
            <stop stop-color="#662329" offset=".012"/>
            <stop stop-color="#6c232a" offset=".016"/>
            <stop stop-color="#71232a" offset=".02"/>
            <stop stop-color="#77232a" offset=".023"/>
            <stop stop-color="#7d232a" offset=".027"/>
            <stop stop-color="#84222b" offset=".031"/>
            <stop stop-color="#8a212b" offset=".035"/>
            <stop stop-color="#90202b" offset=".039"/>
            <stop stop-color="#961f2b" offset=".043"/>
            <stop stop-color="#9d1d2b" offset=".047"/>
            <stop stop-color="#a31a2a" offset=".051"/>
            <stop stop-color="#a9172a" offset=".055"/>
            <stop stop-color="#b01329" offset=".059"/>
            <stop stop-color="#b70f29" offset=".063"/>
            <stop stop-color="#bd0829" offset=".066"/>
            <stop stop-color="#c40228" offset=".07"/>
            <stop stop-color="#c70028" offset=".074"/>
            <stop stop-color="#ca0027" offset=".078"/>
            <stop stop-color="#ca0027" offset=".094"/>
            <stop stop-color="#ca0027" offset=".125"/>
            <stop stop-color="#ca0027" offset=".25"/>
            <stop stop-color="#ca0027" offset=".5"/>
            <stop stop-color="#ca0027" offset=".75"/>
            <stop stop-color="#ca0027" offset=".875"/>
            <stop stop-color="#ca0027" offset=".906"/>
            <stop stop-color="#ca0027" offset=".914"/>
            <stop stop-color="#cb0028" offset=".918"/>
            <stop stop-color="#cc0029" offset=".922"/>
            <stop stop-color="#ce002a" offset=".926"/>
            <stop stop-color="#cf012a" offset=".93"/>
            <stop stop-color="#d1052b" offset=".934"/>
            <stop stop-color="#d2092c" offset=".938"/>
            <stop stop-color="#d40b2d" offset=".941"/>
            <stop stop-color="#d50d2e" offset=".945"/>
            <stop stop-color="#d60f2f" offset=".949"/>
            <stop stop-color="#d71130" offset=".953"/>
            <stop stop-color="#d91431" offset=".957"/>
            <stop stop-color="#da1732" offset=".961"/>
            <stop stop-color="#dc1933" offset=".965"/>
            <stop stop-color="#dd1a34" offset=".969"/>
            <stop stop-color="#df1c35" offset=".973"/>
            <stop stop-color="#e01d35" offset=".977"/>
            <stop stop-color="#e12036" offset=".98"/>
            <stop stop-color="#e22237" offset=".984"/>
            <stop stop-color="#e42439" offset=".988"/>
            <stop stop-color="#e6253a" offset=".992"/>
            <stop stop-color="#e7273a" offset=".996"/>
            <stop stop-color="#e8283b" offset="1"/>
        </linearGradient>
    </defs>
    <path d="M136.84 431.74c-1.83 0-2.49 1.092-2.49 2.889v17.524c0 1.796.659 2.888 2.49 2.888h151.84c1.831 0 2.49-1.092 2.49-2.888v-17.524c0-1.797-.659-2.889-2.49-2.889H136.84z" stroke-width=".96" fill="url(#a)" transform="translate(-133.45 -431.01)"/>
    <path d="M135.26 9.58c-.189-.156-.346-.292-.566-.684-.618-.975-.639-2.264.629-2.735l4.599-1.557h2.252v13.148c0 1.009-.272 1.715-1.886 1.715-.65 0-1.414-.069-1.718-.136V8.471l-3.31 1.11" stroke-width="1.108" fill="#fff"/>
    <path stroke-width=".96" fill="url(#b)" d="M177.4 431.74v23.301h83.47c.009-7.93.002-16.09 0-23.301z" transform="translate(-133.45 -431.01)"/>
    <g stroke-width=".96" fill="#fff">
        <path d="M15.9 14.61c0 1.99-1.308 3.446-3.957 3.73-1.911.205-4.697-.033-6.016-.182a4.103 4.103 0 0 1-.083-.694c0-1.752.944-2.15 1.82-2.15.92 0 2.365.16 3.445.16 1.172 0 1.536-.398 1.536-.774 0-.5-.478-.716-1.388-.887l-2.513-.489c-2.093-.398-3.207-1.842-3.207-3.377 0-1.865 1.319-3.423 3.912-3.72 1.967-.204 4.355.034 5.663.194.058.228.083.432.083.67 0 1.74-.922 2.116-1.809 2.116-.67 0-1.728-.125-2.934-.125-1.228 0-1.728.33-1.728.75 0 .433.478.615 1.25.75l2.4.445c2.468.454 3.526 1.853 3.526 3.582M20.2 16.75c0 1.069-.41 1.683-2.502 1.683-.273 0-.512-.025-.75-.058V4.195c0-1.081.364-2.207 2.48-2.207.26 0 .522.033.772.083v14.682M28.74 22.25c.273.136.842.307 1.547.33 1.205.025 1.865-.444 2.365-1.535l6.505-14.511c-.273-.136-.864-.296-1.353-.307-.842-.025-1.956.148-2.684 1.865l-2.104 4.97-4.128-6.733a5.818 5.818 0 0 0-1.387-.193c-1.456 0-2.275.535-3.127 1.456l-4.015 4.39 3.23 5.083c.602.932 1.387 1.398 2.66 1.398.842 0 1.536-.182 1.855-.34l-3.89-5.868 2.752-2.923 4.526 7.096-2.752 5.823M62.5 15.1c0-2.422-1.57-3.594-4.071-4.15l-4.39-.99c-.796-.182-1.467-.421-1.467-1.217 0-.876.694-1.205 2.536-1.205 2.172 0 2.673.113 4.651.113.91 0 1.843-.42 1.843-2.217 0-.216-.033-.466-.066-.683-1.33-.113-3.708-.25-6.63-.25-4.413 0-6.096 1.91-6.096 4.344 0 2.286 1.445 3.548 3.992 4.151l4.39 1.013c1.012.25 1.569.694 1.569 1.33 0 .864-.773 1.206-2.616 1.206-2.172 0-3.161-.16-5.14-.16-.91 0-1.842.421-1.842 2.218 0 .216.025.466.066.682 1.33.136 4.185.296 7.119.296 4.412 0 6.152-1.888 6.152-4.48M97.41 4.55c-1.74.066-2.32.668-2.32 2.26v12.542c.262.042.58.069.887.069 2.218 0 2.73-.648 2.73-1.796l-.034-3.5h1.843l3.548 4.23c.67.818 1.306 1.24 2.819 1.24 1.012 0 1.707-.124 2.264-.396l-4.618-5.335c2.592-.557 3.902-2.242 3.902-4.72 0-3.06-1.865-4.572-5.63-4.572zm1.296 2.943h3.467c1.49 0 2.661.227 2.661 1.774 0 1.307-.887 1.931-2.66 1.931h-3.468zM66.41 4.57c-1.774 0-2.32.691-2.32 2.26v12.526c.262.05.569.065.887.065 2.218 0 2.716-.648 2.716-1.796V14.59h3.775c4.094 0 6.132-1.776 6.132-5.096 0-3.218-2.038-4.921-5.893-4.921zm1.284 2.942h3.616c1.797 0 2.682.671 2.682 1.98 0 1.387-.885 2.106-2.682 2.106h-3.616zM86.03 4.18c-2.24 0-4.014.58-5.322 1.706-1.308 1.16-1.948 3.103-1.97 5.89 0 2.842.64 4.834 1.902 5.948 1.262 1.126 3.059 1.685 5.39 1.685 2.32 0 4.117-.559 5.39-1.685 1.262-1.114 1.898-3.106 1.898-5.949-.025-2.786-.658-4.73-1.966-5.89C90.044 4.76 88.27 4.18 86.03 4.18zm0 2.968c1.24 0 2.124.329 2.704 1.045.568.682.865 1.876.865 3.582 0 1.717-.297 2.911-.865 3.616-.557.728-1.464 1.07-2.704 1.07-1.262-.024-2.175-.388-2.755-1.07-.568-.682-.861-1.887-.861-3.616 0-1.706.318-2.9.887-3.582.58-.716 1.49-1.045 2.729-1.045zM117.96 7.61h2.9c.955 0 1.933-.443 1.933-2.331a4.18 4.18 0 0 0-.066-.705H111.45c-.955 0-1.922.443-1.922 2.331 0 .217.025.478.058.705h4.765v11.748c.273.05.58.066.887.066 2.218 0 2.73-.649 2.73-1.797V7.608"/>
    </g>
    <path d="M3.56 0C.83 0 0 1.694 0 3.389v17.98c0 1.694.83 3.389 3.56 3.389H155.2c2.718 0 3.548-1.695 3.548-3.39V3.389c0-1.694-.83-3.388-3.548-3.388H3.56zm.125.228h151.38c1.83 0 3.07 1.08 3.07 2.888v18.525c0 1.808-1.24 2.889-3.07 2.889H3.685c-1.83 0-3.07-1.08-3.07-2.889V3.116c0-1.808 1.239-2.888 3.07-2.888z" stroke-width=".96" fill="#a1a19c"/>
    <path stroke-width="1.108" fill="#fff" d="M145.37 9.58c-.178-.156-.335-.292-.566-.684-.607-.975-.639-2.264.629-2.735l4.599-1.557h2.263v13.148c0 1.009-.273 1.715-1.897 1.715-.649 0-1.403-.069-1.718-.136V8.471l-3.31 1.11"/>
    <path opacity=".4" d="M3.44 1.21c-1.682 0-2.332.648-2.332 2.559l-.014 16.534c0 1.035.061 1.731.227 1.731.06-.33.108-1.925 1.932-3.369.687-.523 1.633-1.012 2.794-1.501 1.433-.591 3.2-1.145 5.272-1.68.533-.137 1.101-.273 1.67-.41 1.22-.3 2.474-.54 3.513-.755.376-.066.777-.15 1.102-.213 1.15-.215 2.344-.414 3.389-.592.371-.058.748-.12 1.066-.17 1.23-.185 2.473-.362 3.518-.513 1.539-.21 3.095-.402 4.406-.567 1.252-.159 2.522-.291 3.59-.41.479-.05.965-.104 1.376-.149 1.231-.133 2.478-.25 3.527-.354 2.529-.216 5.103-.441 7.262-.6 1.753-.126 3.528-.25 5.316-.363 1.842-.125 3.717-.23 5.606-.333a861.1 861.1 0 0 1 10.052-.418c1.305-.058 2.638-.088 3.758-.12 2.277-.047 4.608-.1 6.564-.131 1.297-.027 2.633-.033 3.75-.043.49-.013.99-.01 1.407-.013 1.394-.01 2.615-.01 3.922-.01 2.38 0 4.822.014 6.871.044 1.326.017 2.642.043 3.967.068.675.023 1.36.032 2.047.055 1.256.032 2.523.066 3.767.115 2.195.076 4.43.168 6.316.26 1.302.06 2.627.136 3.744.197 2.12.125 4.202.271 6.228.43 1.308.102 2.64.222 3.766.32 3.47.307 6.777.68 9.856 1.1 4.347.603 8.257 1.31 11.597 2.128 1.35.33 2.606.67 3.767 1.045 3.293 1.035 5.78 2.23 7.284 3.582 1.647 1.558 1.859 3.04 1.92 3.37.164 0 .225-.697.225-1.732V3.768c0-1.91-.651-2.559-2.345-2.559-.569 0-1.14.295-1.91.295H5.313c-.661-.028-1.32-.197-1.911-.294z" stroke-width="2.971" fill="#fff"/>
</svg>
