<svg enable-background="new 0 0 2342.5 500" version="1.1" viewBox="0 0 2937.4 1000" xml:space="preserve" xmlns="http://www.w3.org/2000/svg"><defs><linearGradient id="d" x1="-1151.8" x2="-1152" y1="-784.92" y2="-782.98" gradientTransform="matrix(149.71 0 0 -57.778 172817 -45104)" gradientUnits="userSpaceOnUse"><stop stop-color="#fff" offset="0"/><stop stop-color="#fff" stop-opacity=".25" offset="1"/></linearGradient><linearGradient id="c" x1="-1152.6" x2="-1152.6" y1="-773.58" y2="-778.43" gradientTransform="matrix(317.37 0 0 -103 366970 -80578)" gradientUnits="userSpaceOnUse"><stop stop-color="#f00" offset=".4"/><stop stop-color="#D42321" offset="1"/></linearGradient><linearGradient id="b" x1="-1152.3" x2="-1152.8" y1="-785.34" y2="-782.74" gradientTransform="matrix(317.37 0 0 -56.478 366970 -45017)" gradientUnits="userSpaceOnUse"><stop stop-color="#fff" offset="0"/><stop stop-color="#fff" stop-opacity=".25" offset="1"/></linearGradient><linearGradient id="a" x1="-1151.9" x2="-1151.9" y1="-775.02" y2="-779.87" gradientTransform="matrix(149.71 0 0 -91.176 175063 -70634)" gradientUnits="userSpaceOnUse"><stop stop-color="#002A91" offset="0"/><stop stop-color="#002672" offset=".8"/></linearGradient><linearGradient id="e" x1="-1151.9" x2="-1151.9" y1="-775.02" y2="-779.87" gradientTransform="matrix(149.71 0 0 -91.176 172817 -70634)" gradientUnits="userSpaceOnUse"><stop stop-color="#002A91" offset="0"/><stop stop-color="#002672" offset=".8"/></linearGradient></defs>
<g transform="matrix(20 0 0 20 1300 518.75)"><path d="m16.292 2.6354c-0.72396 0.52083-2.1042 1.224-3.8854 0.78646-3.0833-0.76042-3.9688-3.4167-3.9688-3.4167s-0.88021 2.6562-3.9688 3.4167c-1.7812 0.4375-3.1615-0.27083-3.8854-0.78646h-0.55729v14.323c0 0.36458 0.088542 1.0781 0.67708 1.7917 0.72396 0.88021 1.9583 1.4531 3.6562 1.6979 1.3542 0.19792 2.3594 0.61979 3.0625 1.3021 0.52083 0.5 1.0104 1.3646 1.0104 1.3646s0.51042-0.88542 1.0104-1.3646c0.70833-0.68229 1.7083-1.1042 3.0625-1.3021 1.7031-0.24479 2.9323-0.81771 3.6562-1.6979 0.58854-0.71354 0.67708-1.4271 0.67708-1.7917v-14.323z" fill="#fff"/><path d="m16.344 3.1927s-1.6875 1.3125-4.0625 0.71875c-2.7708-0.69271-3.8438-2.7656-3.8438-2.7656s-1.0781 2.0729-3.8438 2.7656c-2.375 0.59375-4.0625-0.71875-4.0625-0.71875v13.766c0 0.46875 0.19792 2.4531 3.901 2.9896 1.4635 0.21354 2.5573 0.68229 3.3438 1.4375 0.28125 0.27083 0.5 0.54688 0.66146 0.80208 0.16667-0.25521 0.38021-0.53125 0.66146-0.80208 0.78646-0.75521 1.8802-1.224 3.3437-1.4375 3.7031-0.53646 3.901-2.5208 3.901-2.9896z" fill="#013369"/><path d="m8.4375 20.786s1.0781-1.3281 3.8698-1.7552c3.2031-0.49479 3.1042-1.9948 3.1042-2.0729v-7.2083h-13.953v7.2083c0 0.07813-0.09375 1.5781 3.1042 2.0729 2.7969 0.43229 3.875 1.7552 3.875 1.7552" fill="#fff"/><polygon points="2.599 11.594 2.1094 11.349 2.1094 10.458 3.6979 10.458 5.1823 15.016 5.1823 11.589 4.7552 11.349 4.7552 10.458 6.7135 10.458 6.7135 11.349 6.3021 11.589 6.3021 18.583 5.2552 18.271 3.7396 13.802 3.7396 16.745 4.224 17.115 4.224 18.026 2.1198 17.49 2.1198 16.714 2.599 16.526" fill="#d50a0a"/><polygon points="9.7552 13.219 10.307 13.219 10.307 15.083 9.7552 15.083 9.4948 14.703 8.7917 14.703 8.7917 18.151 9.2135 18.656 9.2135 19.547 7.1302 18.766 7.1302 18.01 7.5885 17.823 7.5885 11.589 7.1302 11.359 7.1302 10.458 10.75 10.458 10.75 12.271 9.9531 12.271 9.7135 11.526 8.7917 11.526 8.7917 13.62 9.4844 13.62" fill="#d50a0a"/><polygon points="11.609 17.156 11.609 11.589 11.167 11.359 11.167 10.458 13.25 10.458 13.25 11.359 12.844 11.589 12.844 16.812 13.74 16.568 13.911 15.198 14.766 15.198 14.766 17.484 11.089 18.469 11.089 17.578" fill="#d50a0a"/><polygon points="2.6146 8.276 2.8438 9.0156 2.2188 8.5729 1.5938 9.0156 1.8229 8.276 1.1927 7.7969 1.9635 7.7969 2.2188 7.0677 2.474 7.7969 3.2448 7.7969" fill="#fff"/><polygon points="5.349 8.276 5.5833 9.0156 4.9583 8.5729 4.3281 9.0156 4.5625 8.276 3.9323 7.7969 4.7031 7.7969 4.9583 7.0677 5.2083 7.7969 5.9844 7.7969" fill="#fff"/><polygon points="2.6146 5.8021 2.8438 6.5469 2.2188 6.1042 1.5938 6.5469 1.8229 5.8021 1.1927 5.3281 1.9635 5.3281 2.2188 4.599 2.474 5.3281 3.2448 5.3281" fill="#fff"/><polygon points="5.349 5.8021 5.5833 6.5469 4.9583 6.1042 4.3281 6.5469 4.5625 5.8021 3.9323 5.3281 4.7031 5.3281 4.9583 4.599 5.2083 5.3281 5.9844 5.3281" fill="#fff"/><polygon points="14.656 7.0677 14.911 7.7969 15.682 7.7969 15.052 8.276 15.286 9.0156 14.656 8.5729 14.031 9.0156 14.26 8.276 13.63 7.7969 14.401 7.7969" fill="#fff"/><polygon points="11.917 7.0677 12.172 7.7969 12.943 7.7969 12.312 8.276 12.547 9.0156 11.917 8.5729 11.292 9.0156 11.526 8.276 10.891 7.7969 11.667 7.7969" fill="#fff"/><polygon points="14.656 4.599 14.911 5.3281 15.682 5.3281 15.052 5.8021 15.286 6.5469 14.656 6.1042 14.031 6.5469 14.26 5.8021 13.63 5.3281 14.401 5.3281" fill="#fff"/><polygon points="11.917 4.599 12.172 5.3281 12.943 5.3281 12.312 5.8021 12.547 6.5469 11.917 6.1042 11.292 6.5469 11.526 5.8021 10.891 5.3281 11.667 5.3281" fill="#fff"/><path d="m9.0365 5.2656c-0.28125-0.22917-0.59375-0.38021-0.93229-0.45312 0.083333-0.078125 0.16146-0.14062 0.23438-0.20312 0.41667 0.098958 0.69792 0.28646 0.89062 0.44792-0.0625 0.067708-0.13021 0.13542-0.19271 0.20833m-0.40625 0.48958c-0.26562-0.22396-0.59375-0.39062-0.96354-0.46875 0.057292-0.072917 0.125-0.15104 0.1875-0.22396 0.28125 0.052083 0.64062 0.19792 0.95833 0.45833-0.0625 0.078125-0.125 0.15625-0.18229 0.23438m-0.36458 0.51042c-0.28646-0.23958-0.625-0.39062-0.95312-0.45312 0 0 0.098958-0.16667 0.16146-0.25 0.40625 0.078125 0.73438 0.27083 0.96354 0.46354-0.0625 0.083333-0.11979 0.16667-0.17188 0.23958m1.9115-2.4427s-0.32812 0.17188-0.78125 0.61979c0.10417 0.057292 0.21875 0.14062 0.28646 0.19271-0.067708 0.0625-0.14062 0.125-0.20312 0.1875-0.29688-0.24479-0.60417-0.36979-0.84375-0.42708 0.078125-0.057292 0.16146-0.11458 0.24479-0.16667 0.13021 0.03125 0.25521 0.083333 0.25521 0.083333 0.51562-0.39062 0.95833-0.5625 0.95833-0.5625s-0.05208-0.026042-0.1875-0.026042c-2.026 0.026042-3.8906 1.5365-3.5417 4.125 0.036458 0.27604 0.14583 0.77083 0.28125 0.99479 0.046875-0.43229 0.20833-1.3854 0.6875-2.4062-0.16667-0.057292-0.30729-0.083333-0.30729-0.083333 0.046875-0.10417 0.11979-0.23438 0.11979-0.23438 0.35417 0.067708 0.66667 0.21354 0.94271 0.43229-0.067708 0.10417-0.10938 0.17188-0.14062 0.22917-0.09375-0.072917-0.19271-0.14062-0.29688-0.19792-0.54167 0.94271-0.79167 1.8333-0.89062 2.3021 0.00521 0.03125 0.0625 0.041667 0.10938 0.036458 2.2188-0.28646 3.2604-1.4219 3.5729-2.6458 0.20833-0.80208 0.14062-1.6458-0.14062-2.3333-0.026041-0.046875-0.0625-0.13021-0.125-0.11979" fill="#fff"/></g><path d="m2914.1 2e-5c12.9 0 23.3 10.94 23.3 24.276v451.45c0 13.336-10.5 24.276-23.3 24.276h-607.9c-12.9 0-23.3-10.94-23.3-24.276v-451.34c0-13.44 10.5-24.276 23.3-24.276h607.9" fill="#fff" stroke-width="1.0207"/><g fill="url(#a)" stroke-width="1.0002"><path d="m2619.1 153.8v184.7c0 8.1-4.1 12.6-16.7 12.6-5.7 0-11-0.8-15.1-1.6v-85h-105.4v74.1c0 8.1-4.1 12.6-16.7 12.6-6.1 0-12.2-0.8-15.1-1.6v-184.8c0-7.8 4.1-12.6 17.1-12.6 5.7 0 11.3 0.8 14.6 1.6v82.2h104.9v-71.2c0-7.8 4.5-12.6 17.5-12.6 6 0 11.6 0.8 14.9 1.6" stop-color="#000000" style="font-variation-settings:normal"/><path d="m2835.3 251.4c0 55.4-38.7 97.3-99.3 97.3h-56.5c-12.2 0-16.7-4.9-16.7-12.6v-168.9c0-7.7 4.5-12.6 16.7-12.6h56.5c60.6 0 99.3 41.5 99.3 96.8m-32.2 0c0-41.5-26-68.4-67.1-68.4h-41.5v137.1h41.5c41.1 0.1 67.1-26.8 67.1-68.7" stop-color="#000000" style="font-variation-settings:normal"/></g><g transform="matrix(1.0002 0 0 1.0002 200.04 450.09)"><g transform="translate(200,450)"><path d="m1908.6-900h-1473.2c-18.4 0-33.5 15-33.5 33.3v433.3c0 18.3 15.1 33.3 33.5 33.3h1473.7c18.4 0 33.5-15 33.5-33.3v-433.3c-0.5-18.3-15.6-33.3-34-33.3z" fill="url(#c)"/><path d="m425.7-652.1h3.3c99.1-3.3 1488.3-51.7 1488.3-51.7 12.5-0.4 25.1-9.6 25.1-25.4v-137.5c0-18.3-15.1-33.3-33.5-33.3h-1473.5c-18.4 0-33.5 15-33.5 33.3v240.8c0-2.9 0.4-23.7 23.8-26.2z" enable-background="new    " fill="url(#b)" opacity=".4"/><g transform="translate(184.41 16.308)" fill="#fff"><path d="m313.7-557.1c-2.9-20.4 3.3-31.2 15.5-31.2 11.3 0 38.9 12.1 77.4 12.1 40.6 0 55.6-14.2 55.6-32.9 0-13.3-5.9-25-42.2-35l-41.8-11.2c-46.4-12.1-64.4-35.4-64.4-63.8 0-35.4 28-66.7 91.6-66.7 28.4 0 64 6.2 85.8 14.6 3.8 20-2.5 30.8-14.6 30.8-10.9 0-35.6-10.4-70.3-10.4-37.6 0-51.5 12.9-51.5 29.6 0 11.7 5.4 22.5 38.9 32.1l42.7 11.7c47.7 13.3 66.9 35.4 66.9 66.7 0 36.7-28.4 69.6-97.5 69.6-31 0.2-69.1-7.3-92.1-16z"/><path d="m787.6-663.4c0 77.1-54.4 122.5-113.8 122.5-35.6 0-64.4-16.7-82-40.4v99.2c0 9.2-5.4 15.4-21.3 15.4-7.9 0-15.5-0.8-19.2-2.1v-312.5c3.8-0.8 11.3-2.1 19.2-2.1 15.9 0 21.3 5.8 21.3 15.4v22.5c17.2-23.8 46.4-40.4 82-40.4 59.5 0 113.8 45.8 113.8 122.5zm-40.9 0c0-51.7-34.3-87.1-80.7-87.1-31.4 0-60.7 18.3-74 44.6v85c13.4 26.7 42.2 44.6 74 44.6 46.3 0 80.7-35.4 80.7-87.1z"/><path d="m826.5-663.4c0-70 51.9-122.1 121.3-122.1 69.9 0 121.7 52.1 121.7 122.1 0 69.6-51.9 122.5-121.7 122.5-69.4 0-121.3-52.9-121.3-122.5zm202.1 0c0-54.2-36.4-87.1-80.7-87.1-43.9 0-80.3 32.9-80.3 87.1 0 53.3 36.4 87.5 80.3 87.5 44.3-0.4 80.7-34.2 80.7-87.5z"/><path d="m1265.8-763.8c0 16.2-6.7 19.6-23.8 19.6-33.9 0-62.7 15.8-80.3 52.5v132.9c0 10-5.4 15.4-21.8 15.4-6.7 0-14.6-0.8-18.8-2.1v-235.8c3.8-0.8 11.7-2.1 18.8-2.1 16.3 0 21.8 5.8 21.8 15.4v32.9c23-35 58.1-52.5 102.1-46.7 0.3 3.4 2 10.9 2 18z"/><path d="m1443.1-557.1c-20.5 10-44.3 16.2-68.2 16.2-46.9 0-74.9-27.5-74.9-73.3v-202.5c0-10.4 5.9-17.1 21.8-17.1 6.7 0 14.6 1.7 18.8 2.5v51.2h92c0.4 3.3 1.7 10.4 1.7 16.2 0 14.2-5.9 19.2-14.6 19.2h-78.6v127.9c0 27.5 13 40.8 38.9 40.8 23.8 0 36.8-10.4 48.1-10.4s17.5 9.7 15 29.3z"/><path d="m1471.2-557.1c-2.9-20.4 3.3-31.2 15.5-31.2 11.3 0 38.9 12.1 77.4 12.1 40.6 0 55.6-14.2 55.6-32.9 0-13.3-5.9-25-42.2-35l-41.8-11.2c-46.4-12.1-64.4-35.4-64.4-63.8 0-35.4 28-66.7 91.6-66.7 28.4 0 64 6.2 85.8 14.6 3.8 20-2.5 30.8-14.6 30.8-10.9 0-35.6-10.4-70.3-10.4-37.6 0-51.5 12.9-51.5 29.6 0 11.7 5.4 22.5 38.9 32.1l42.7 11.7c47.7 13.3 66.9 35.4 66.9 66.7 0 36.7-28.4 69.6-97.5 69.6-31.1 0.2-69.1-7.3-92.1-16z"/></g></g></g><path d="m2937.4 531.08c-0.05 8.9599-3.6796 17.528-10.08 23.798l0.088 411.81c-0.012 12.866-10.439 23.294-23.306 23.306h-2870.8c-12.852-0.0477-23.258-10.454-23.306-23.306v-411.8c-6.1404-6.0269-9.722-14.188-10-22.788v434.59c-0.01 18.398 14.908 33.314 33.306 33.308h2870.7c18.447 0.0855 33.438-14.861 33.407-33.308z" fill="#002a91" stroke-width="2.6668"/><path d="m501.7 464.29c5.9012 2.9006 18.004 6.7013 33.507 7.1014 26.405 0.40008 40.608-9.6019 51.01-32.907l140.63-311.76c-5.9012-2.9006-18.804-6.7013-29.306-6.7013-18.004-0.40008-42.208 3.3007-57.712 40.008l-45.709 106.72-89.118-144.63c-5.9012-1.7003-20.104-4.2008-30.106-4.2008-31.806 0-49.41 11.702-67.313 31.206l-87.017 94.219 69.914 109.22c13.003 20.004 29.706 30.006 57.311 30.006 18.004 0 33.007-4.2008 40.208-7.5015l-84.217-125.43 59.412-62.913 97.92 152.53zm-184.54-118.02c0 22.905-9.2018 36.207-54.411 36.207-5.9012 0-11.302-0.40008-16.303-1.2002v-305.06c0-23.305 7.9016-47.51 53.511-47.51 5.9012 0 11.702 0.40008 17.203 1.7003zm-93.319-46.209c0 42.909-28.006 74.215-85.317 80.416-41.408 4.6009-101.62-0.80016-130.13-4.2008-0.80016-4.6009-1.7003-10.402-1.7003-15.003 0-37.508 20.104-45.809 39.308-45.809 19.704 0 51.01 3.3007 74.515 3.3007 25.505 0 33.507-8.8018 33.507-16.703 0-10.802-10.002-15.003-30.106-19.204l-54.411-10.402c-45.209-8.3017-69.414-39.608-69.414-72.514 0-40.008 28.406-73.815 84.517-79.616 42.208-4.6009 94.119 0.40008 122.62 4.2008 0.80016 4.6009 1.7003 9.6019 1.7003 14.603 0 37.508-19.704 45.409-38.908 45.409-14.603 0-37.207-2.5005-63.613-2.5005s-37.207 7.1014-37.207 16.203c0 9.6019 10.502 13.303 27.205 16.203l51.91 9.6019c52.51 8.9018 75.515 38.908 75.515 76.015z" fill="url(#e)" stroke-width="1.0002"/><path d="m726.75 126.73-51.51 114.22c-1.7003 2.9006-7.1014 12.903-21.304 13.303-3.3007 0-46.909 1.7003-46.909 1.7003-8.4017 0.40008-11.302 8.3017-11.302 8.3017l44.409-104.22c15.503-36.707 39.708-40.408 57.712-40.008 10.102 0 23.005 3.3007 28.906 6.7013zm-134.73 136.23-87.017-140.83c-5.9012-1.7003-20.104-4.2008-30.106-4.2008-31.806 0-49.41 11.702-67.313 31.206l-87.017 94.219 7.1014 10.802c2.9006 4.2008 8.8018 10.802 20.504 10.402 4.2008 0 46.009-1.7003 49.41-1.7003 10.902-0.40008 17.604 4.2008 21.804 9.6019l-15.603-23.205 59.412-62.913 40.208 62.512c7.1014 9.6019 18.004 9.6019 20.504 9.6019 2.1004 0 54.411-2.1004 56.911-2.1004 3.7007-0.10002 7.9016 2.0004 11.202 6.6013zm-292.06-234.15c-45.609 0-53.111 24.205-53.111 47.51v209.24c0-8.3017 6.7013-17.103 17.203-17.504 7.5015-0.40008 28.906-0.80016 35.107-1.2002 7.1014-0.40008 17.604-5.001 18.004-17.904v-218.34c-5.5011-1.0002-11.302-1.8004-17.203-1.8004zm-152.23 194.54-51.91-9.6019c-16.703-2.9006-27.205-6.7013-27.205-16.203 0-8.8018 10.902-16.203 37.207-16.203 25.905 0 48.91 2.5005 63.613 2.5005 19.204 0 38.908-7.9016 38.908-45.409 0-5.001-0.40008-9.6019-1.7003-14.603-28.406-3.3007-79.916-8.8018-122.62-4.2008-55.611 6.6013-84.017 40.408-84.017 80.416 0 20.404 9.2018 40.408 27.606 54.611 13.803 8.8018 27.606 12.502 41.808 15.003 11.702 2.1004 38.108 3.8008 58.112 2.9006 6.3013-0.40008 51.91-1.7003 61.912-2.1004 23.005-0.80016 36.007 18.704 34.307 38.708v-1.2002c0.40008-2.5005 0.40008-5.001 0.40008-7.9016-0.30006-37.107-23.305-67.113-76.415-76.715z" enable-background="new    " fill="url(#d)" opacity=".25" stroke-width="1.0002"/></svg>
