<svg xmlns="http://www.w3.org/2000/svg" height="78.4" width="600" viewBox="0 0 158.75 20.743">
    <defs>
        <linearGradient id="a" gradientUnits="userSpaceOnUse" x2=".992" gradientTransform="matrix(0 19.844 19.844 0 208.5 433.46)" x1=".008" y1="0" y2="0">
            <stop stop-color="#0f1c4d" offset="0"/>
            <stop stop-color="#101e51" offset=".004"/>
            <stop stop-color="#101f54" offset=".008"/>
            <stop stop-color="#112157" offset=".012"/>
            <stop stop-color="#12225a" offset=".016"/>
            <stop stop-color="#13245d" offset=".02"/>
            <stop stop-color="#132560" offset=".023"/>
            <stop stop-color="#142662" offset=".027"/>
            <stop stop-color="#142764" offset=".031"/>
            <stop stop-color="#142764" offset=".063"/>
            <stop stop-color="#142764" offset=".125"/>
            <stop stop-color="#142764" offset=".25"/>
            <stop stop-color="#142764" offset=".5"/>
            <stop stop-color="#142764" offset=".75"/>
            <stop stop-color="#142764" offset=".875"/>
            <stop stop-color="#142764" offset=".891"/>
            <stop stop-color="#142764" offset=".898"/>
            <stop stop-color="#142763" offset=".902"/>
            <stop stop-color="#142763" offset=".906"/>
            <stop stop-color="#132662" offset=".91"/>
            <stop stop-color="#132661" offset=".914"/>
            <stop stop-color="#132560" offset=".918"/>
            <stop stop-color="#13255f" offset=".922"/>
            <stop stop-color="#12245d" offset=".926"/>
            <stop stop-color="#12245c" offset=".93"/>
            <stop stop-color="#12235b" offset=".934"/>
            <stop stop-color="#12235a" offset=".938"/>
            <stop stop-color="#112259" offset=".941"/>
            <stop stop-color="#112258" offset=".945"/>
            <stop stop-color="#112157" offset=".949"/>
            <stop stop-color="#112056" offset=".953"/>
            <stop stop-color="#102055" offset=".957"/>
            <stop stop-color="#102054" offset=".961"/>
            <stop stop-color="#101f53" offset=".965"/>
            <stop stop-color="#101e52" offset=".969"/>
            <stop stop-color="#0f1d50" offset=".973"/>
            <stop stop-color="#0f1d4f" offset=".977"/>
            <stop stop-color="#0f1c4e" offset=".98"/>
            <stop stop-color="#0f1c4d" offset=".984"/>
            <stop stop-color="#0e1b4c" offset=".988"/>
            <stop stop-color="#0e1b4b" offset=".992"/>
            <stop stop-color="#0e1a4a" offset=".996"/>
            <stop stop-color="#0e1949" offset="1"/>
        </linearGradient>
        <linearGradient id="b" gradientUnits="userSpaceOnUse" gradientTransform="rotate(-90 329.19 123.95) scale(19.516)" x1="0" x2="1" y1="0" y2="0">
            <stop stop-color="#552227" offset="0"/>
            <stop stop-color="#5a2227" offset=".004"/>
            <stop stop-color="#602228" offset=".008"/>
            <stop stop-color="#662329" offset=".012"/>
            <stop stop-color="#6c232a" offset=".016"/>
            <stop stop-color="#71232a" offset=".02"/>
            <stop stop-color="#77232a" offset=".023"/>
            <stop stop-color="#7d232a" offset=".027"/>
            <stop stop-color="#84222b" offset=".031"/>
            <stop stop-color="#8a212b" offset=".035"/>
            <stop stop-color="#90202b" offset=".039"/>
            <stop stop-color="#961f2b" offset=".043"/>
            <stop stop-color="#9d1d2b" offset=".047"/>
            <stop stop-color="#a31a2a" offset=".051"/>
            <stop stop-color="#a9172a" offset=".055"/>
            <stop stop-color="#b01329" offset=".059"/>
            <stop stop-color="#b70f29" offset=".063"/>
            <stop stop-color="#bd0829" offset=".066"/>
            <stop stop-color="#c40228" offset=".07"/>
            <stop stop-color="#c70028" offset=".074"/>
            <stop stop-color="#ca0027" offset=".078"/>
            <stop stop-color="#ca0027" offset=".094"/>
            <stop stop-color="#ca0027" offset=".125"/>
            <stop stop-color="#ca0027" offset=".25"/>
            <stop stop-color="#ca0027" offset=".5"/>
            <stop stop-color="#ca0027" offset=".75"/>
            <stop stop-color="#ca0027" offset=".875"/>
            <stop stop-color="#ca0027" offset=".906"/>
            <stop stop-color="#ca0027" offset=".914"/>
            <stop stop-color="#cb0028" offset=".918"/>
            <stop stop-color="#cc0029" offset=".922"/>
            <stop stop-color="#ce002a" offset=".926"/>
            <stop stop-color="#cf012a" offset=".93"/>
            <stop stop-color="#d1052b" offset=".934"/>
            <stop stop-color="#d2092c" offset=".938"/>
            <stop stop-color="#d40b2d" offset=".941"/>
            <stop stop-color="#d50d2e" offset=".945"/>
            <stop stop-color="#d60f2f" offset=".949"/>
            <stop stop-color="#d71130" offset=".953"/>
            <stop stop-color="#d91431" offset=".957"/>
            <stop stop-color="#da1732" offset=".961"/>
            <stop stop-color="#dc1933" offset=".965"/>
            <stop stop-color="#dd1a34" offset=".969"/>
            <stop stop-color="#df1c35" offset=".973"/>
            <stop stop-color="#e01d35" offset=".977"/>
            <stop stop-color="#e12036" offset=".98"/>
            <stop stop-color="#e22237" offset=".984"/>
            <stop stop-color="#e42439" offset=".988"/>
            <stop stop-color="#e6253a" offset=".992"/>
            <stop stop-color="#e7273a" offset=".996"/>
            <stop stop-color="#e8283b" offset="1"/>
        </linearGradient>
    </defs>
    <path d="M136.29 433.63c-1.544 0-2.087.915-2.087 2.42v14.673c0 1.516.543 2.421 2.087 2.421h152.96c1.534 0 2.087-.905 2.087-2.42V436.05c0-1.506-.553-2.421-2.087-2.421H136.29z" stroke-width=".946" fill="url(#a)" transform="translate(-133.45 -433.02)"/>
    <path d="M112.26 8.03a1.712 1.712 0 0 1-.474-.573c-.518-.817-.535-1.897.527-2.292l3.853-1.304h1.887v11.016c0 .845-.228 1.436-1.58 1.436-.544 0-1.185-.057-1.44-.113V7.1l-2.773.93" stroke-width=".929" fill="#fff"/>
    <path d="M125.06 16.32a5.71 5.71 0 0 1-2.08-.377 4.59 4.59 0 0 1-1.624-1.186c-.448-.522-.808-1.167-1.07-1.941-.255-.768-.378-1.68-.378-2.723s.123-1.947.377-2.722c.264-.767.623-1.419 1.071-1.94.465-.521 1-.905 1.624-1.159a5.309 5.309 0 0 1 2.08-.405 5.05 5.05 0 0 1 2.028.405c.64.254 1.193.638 1.65 1.159.465.521.825 1.173 1.07 1.94.273.775.413 1.68.413 2.722s-.14 1.955-.412 2.723c-.246.774-.606 1.42-1.071 1.94a4.46 4.46 0 0 1-1.65 1.187 5.43 5.43 0 0 1-2.028.377zm0-2.49c.702 0 1.229-.298 1.597-.898.36-.594.545-1.542.545-2.839 0-1.288-.185-2.237-.544-2.838-.37-.593-.896-.897-1.598-.897-.711 0-1.255.304-1.615.897-.377.601-.553 1.55-.553 2.838 0 1.297.176 2.245.553 2.839.36.6.904.898 1.615.898z" stroke-width=".878" fill="#fff"/>
    <path stroke-width=".946" fill="url(#b)" d="M170.27 433.63c-.007 6.399.007 13.431.002 19.513h69.933c.002-6.62.005-13.732.005-19.513z" transform="translate(-133.45 -433.02)"/>
    <g fill="#fff">
        <g stroke-width=".946">
            <path d="M52.35 12.65c0-2.03-1.315-3.01-3.42-3.478l-3.679-.829c-.667-.153-1.22-.362-1.22-1.029 0-.724.572-1 2.116-1 1.82 0 2.249.095 3.897.095.762 0 1.544-.353 1.544-1.858 0-.181-.02-.39-.056-.572a68.348 68.348 0 0 0-5.555-.21c-3.687 0-5.097 1.601-5.097 3.64 0 1.916 1.2 2.973 3.334 3.478l3.678.848c.858.2 1.325.582 1.325 1.115 0 .724-.658 1-2.192 1-1.82 0-2.658-.123-4.316-.123-.753 0-1.534.352-1.534 1.858 0 .181.02.38.048.572 1.125.114 3.516.238 5.965.238 3.697 0 5.165-1.572 5.165-3.745M82.67 11.83h1.544l2.973 3.545c.552.685 1.095 1.038 2.353 1.038.858 0 1.43-.105 1.896-.333l-3.868-4.469c2.172-.467 3.268-1.877 3.268-3.964 0-2.553-1.563-3.82-4.717-3.82l-4.506-.02c-1.468.055-1.954.562-1.954 1.896v10.51c.229.035.486.055.743.055 1.858 0 2.287-.543 2.287-1.505l-.02-2.935m.02-2.449V6.273h2.916c1.239 0 2.23.191 2.23 1.487 0 1.095-.744 1.62-2.23 1.62h-2.916M53.69 16.22c.22.035.486.048.743.048 1.858 0 2.287-.533 2.287-1.496v-2.544h3.154c3.44 0 5.145-1.486 5.145-4.268 0-2.697-1.705-4.126-4.945-4.126h-4.43c-1.487 0-1.954.572-1.954 1.896v10.491m3.03-6.498V6.302h3.02c1.506 0 2.25.552 2.25 1.658 0 1.162-.744 1.763-2.25 1.763h-3.02M72.07 16.25c1.953 0 3.459-.467 4.516-1.41 1.058-.934 1.601-2.601 1.601-4.984-.02-2.334-.562-3.973-1.658-4.935-1.095-.953-2.582-1.43-4.459-1.43-1.877 0-3.354.477-4.45 1.43-1.095.962-1.638 2.6-1.657 4.935 0 2.383.543 4.05 1.6 4.984 1.058.943 2.563 1.41 4.507 1.41m2.992-6.394c0 1.43-.239 2.43-.724 3.03-.457.61-1.23.887-2.268.887-1.057-.02-1.81-.315-2.296-.886-.486-.582-.724-1.582-.724-3.03 0-1.43.257-2.43.743-3.011.476-.59 1.239-.868 2.277-.868 1.039 0 1.782.277 2.268.868.486.581.724 1.581.724 3.01M98.83 6.37h2.43c.8 0 1.62-.371 1.62-1.953 0-.182-.02-.41-.056-.59h-9.452c-.79 0-1.61.37-1.61 1.952 0 .182.02.4.055.59H95.8v9.843c.23.035.486.056.753.056 1.849 0 2.277-.544 2.277-1.506V6.368M13.31 12.23c0 1.677-1.096 2.897-3.316 3.135-1.6.171-3.935-.028-5.03-.162a2.326 2.326 0 0 1-.077-.572c0-1.467.791-1.8 1.525-1.8.772 0 1.982.133 2.887.133.99 0 1.286-.334 1.286-.658 0-.419-.4-.59-1.162-.734l-2.106-.41C5.564 10.83 4.63 9.62 4.63 8.332c0-1.562 1.105-2.877 3.287-3.115 1.64-.182 3.64.02 4.736.162.048.18.069.362.069.562 0 1.458-.772 1.772-1.515 1.772-.562 0-1.448-.105-2.458-.105-1.02 0-1.449.276-1.449.628 0 .363.41.515 1.048.63l2.01.371c2.068.381 2.955 1.553 2.955 2.992m3.61 1.8c0 .896-.352 1.411-2.105 1.411a4.34 4.34 0 0 1-.63-.048V3.51c0-.905.306-1.849 2.078-1.849.22 0 .448.02.658.07v12.3m7.146 4.593c.229.124.705.267 1.296.277 1.01.027 1.572-.363 1.982-1.277l5.45-12.158c-.23-.124-.724-.257-1.134-.267-.695-.007-1.639.133-2.24 1.572l-1.762 4.164-3.468-5.64a4.876 4.876 0 0 0-1.163-.162c-1.229 0-1.905.448-2.61 1.22l-3.373 3.677 2.706 4.26c.504.78 1.162 1.172 2.23 1.172.704 0 1.286-.162 1.553-.286l-3.26-4.917 2.316-2.448 3.783 5.945-2.306 4.87"/>
        </g>
        <path opacity=".4" d="M2.9 1.01c-1.44 0-1.994.543-1.994 2.144v13.853c0 .857.051 1.44.181 1.44.051-.267.089-1.6 1.64-2.82.564-.41 1.362-.8 2.379-1.182 3.195-1.04 6.246-1.728 8.905-2.205.316-.04.652-.11.925-.157.976-.167 2-.322 2.89-.461.377-.042.774-.113 1.099-.16 1.053-.146 2.116-.283 3.01-.4 1.32-.163 2.65-.317 3.765-.447 1.063-.123 2.145-.226 3.052-.319h.005v.005c.242-.028.495-.055.736-.075 1.04-.113 2.11-.208 3.003-.293 2.206-.177 4.485-.367 6.371-.507a866.44 866.44 0 0 1 4.725-.336c2.09-.122 4.246-.25 6.039-.35a715.67 715.67 0 0 1 7.063-.336c1.109-.045 2.252-.086 3.202-.121l5.57-.19c1.068-.03 2.126-.058 3.204-.086.384.005.813-.015 1.155-.022 1.152-.028 2.34-.05 3.335-.068a621.64 621.64 0 0 1 5.873-.086c1.118-.007 2.236-.017 3.353-.025.579-.007 1.176-.002 1.76-.002h3.203l5.438.029c1.058.02 2.125.029 3.173.05 1.762.02 3.507.054 5.25.092 1.073.03 2.137.059 3.19.086 2.85.086 5.65.202 8.389.325 3.313.153 6.519.335 9.6.554 1.098.081 2.248.172 3.203.247 2.367.19 4.652.401 6.817.64 3.706.39 7.11.858 10.121 1.382.52.089 1.067.197 1.522.282.87.16 1.769.358 2.523.515 1.203.281 2.466.627 3.527.915.979.288 1.964.68 2.81.993 1.28.534 2.277 1.106 2.972 1.715 1.4 1.315 1.592 2.553 1.643 2.82.13 0 .181-.583.181-1.44V3.156c0-1.601-.554-2.144-1.994-2.144-.483 0-.968.246-1.612.246H4.512c-.558-.028-1.114-.18-1.613-.255z" stroke-width="2.508"/>
    </g>
    <path d="M2.97 0C.693 0-.002 1.42-.002 2.84v15.064c0 1.42.695 2.84 2.972 2.84h152.8c2.277 0 2.982-1.42 2.982-2.84V2.84c0-1.42-.705-2.84-2.982-2.84H2.97zm.105.192h152.59c1.534 0 2.573.905 2.573 2.42v15.521c0 1.515-1.039 2.421-2.573 2.421H3.075c-1.534 0-2.573-.905-2.573-2.42V2.611c0-1.515 1.039-2.42 2.573-2.42z" stroke-width=".946" fill="#a1a19c"/>
    <path d="M141.04 9.12V6.357c0-.743.295-1.22 1.839-1.22.19 0 .353.02.534.048v9.043c0 .743-.296 1.21-1.84 1.21-.19 0-.352-.007-.533-.041V11.29h-4.812v2.935c0 .743-.295 1.21-1.839 1.21-.19 0-.343-.007-.543-.042V6.351c0-.743.305-1.22 1.848-1.22.19 0 .343.02.534.049v3.935h4.812m13.664 1.162c0-3.077-2.21-5.155-5.87-5.155h-2.487c-1.2 0-1.486.629-1.486 1.449v7.422c0 .791.286 1.43 1.486 1.43h2.487c3.66 0 5.87-2.078 5.87-5.146m-7.451 2.944V7.323h1.724c2.392 0 3.278 1.554 3.278 2.954 0 1.391-.886 2.944-3.278 2.944h-1.724" stroke-width=".946" fill="#fff"/>
</svg>
