<svg version="1.1" viewBox="0 0 482.95 800" xml:space="preserve" xmlns="http://www.w3.org/2000/svg">
 <defs>
  <linearGradient id="a" x1="123.9" x2="182.4" y1="105.33" y2="105.33" gradientTransform="matrix(2.5146 0 0 2.5128 -9.9842 458.19)" gradientUnits="userSpaceOnUse">
   <stop stop-color="#f11e1f" offset="0"/>
   <stop stop-color="#b91e1f" offset=".653"/>
   <stop stop-color="#9a1e1f" offset="1"/>
  </linearGradient>
  <linearGradient id="c" x1="17.113" x2="169.03" y1="-220.32" y2="-221.41" gradientTransform="matrix(1.4227 0 0 1.4217 111.39 367.54)" gradientUnits="userSpaceOnUse">
   <stop stop-color="#9a1e1f" offset="0"/>
   <stop stop-color="#f11e1f" offset=".5"/>
   <stop stop-color="#9a1e1f" offset="1"/>
  </linearGradient>
 <linearGradient id="b" x1="26.317" x2="86.462" y1="274.67" y2="274.67" gradientTransform="matrix(2.8454 0 0 2.8434 .0028454 .0011374)" gradientUnits="userSpaceOnUse">
 <stop stop-color="#9a1e1f" offset="0"/>
 <stop stop-color="#f11e1f" offset=".5"/>
 <stop stop-color="#9a1e1f" offset="1"/>
 </linearGradient>
 <radialGradient id="d" cx="84.866" cy="-88.177" r="84.866" gradientTransform="matrix(5.4752 .019209 -.013527 3.8555 -224.36 714.9)" gradientUnits="userSpaceOnUse">
   <stop stop-color="#0059ac" offset="0"/>
   <stop stop-color="#002771" offset="1"/>
  </radialGradient>
 </defs>
 <path d="m482.95 376.56a241.47 241.47 0 0 1-241.47 241.47 241.47 241.47 0 0 1-241.47-241.47 241.47 241.47 0 0 1 241.47-241.47 241.47 241.47 0 0 1 241.47 241.47z" fill="url(#d)" stroke-width="0"/>
 <path d="m290.35 279.5-94.144 56.629 47.218 53.18-78.936 102.19 141.69 117.47a241.47 241.47 0 0 0 162.29-151.81z" fill="#002771" stroke-width="1.0114"/>
 <path d="m312.6 31.864c0-7.2009-5.8478-13.045-13.054-13.045-7.2059 0-13.054 5.8437-13.054 13.045 0 2.6107 0.78725 5.0311 2.1022 7.0627-21.938 9.6129-36.583-6.9589-41.619-14.091 4.455-2.0747 7.5519-6.5614 7.5519-11.791 0-7.2009-5.8478-13.045-13.054-13.045-7.2059 0-13.054 5.8437-13.054 13.045 0 5.2301 3.1054 9.7167 7.5519 11.791-5.0434 7.1318-19.68 23.712-41.619 14.091 1.3236-2.0401 2.1021-4.4607 2.1021-7.0627 0-7.2009-5.8478-13.045-13.054-13.045-7.2059 0-13.054 5.8437-13.054 13.045 0 5.9649 4.0313 10.944 9.507 12.5 3.5035 5.1437 7.7682 12.215 9.0312 17.661 2.2405 9.6994 2.8115 13.97 4.8098 17.393 1.9983 3.4232 4.5677 5.9907 9.1351 5.9907h77.303c4.5677 0 7.1368-2.5675 9.1351-5.9907 1.9983-3.4234 2.5693-7.7025 4.8098-17.393 1.2543-5.4462 5.5277-12.509 9.0312-17.661 5.476-1.5561 9.507-6.5267 9.507-12.5zm-113.72 60.098h85.182v5.9907c0 5.3078-4.3167 9.6215-9.6282 9.6215h-65.381c-5.6142 0-10.165-4.5557-10.165-10.157v-5.4548z" fill="url(#c)" stroke-width="2.8444"/>
 <path d="m386.8 685.32c-5.8092-3.0407-13.512-2.7919-18.129 0.50761-0.61359 0.43976-1.1744 0.93232-1.6673 1.4801-1.28 1.4198-2.1727 2.8271-2.7762 4.1892-0.0114 0.0228-0.0199 0.0478-0.0328 0.0703 0 0 0 6e-3 -2e-3 8e-3 -0.0114 0.0228-0.0171 0.0453-0.0285 0.068 0 2e-3 -2e-3 8e-3 -6e-3 0.0114-0.0114 0.0199-0.0171 0.0426-0.0285 0.0629 0 6e-3 -6e-3 0.0114-6e-3 0.0143-8e-3 0.0171-0.0143 0.0378-0.0228 0.0551-2e-3 8e-3 -6e-3 0.0143-0.0114 0.0227-8e-3 0.0171-0.0143 0.0353-0.0227 0.0529-2e-3 8e-3 -6e-3 0.0171-0.0114 0.0257-6e-3 0.0143-0.0114 0.0301-0.0171 0.0453-6e-3 0.0114-0.0114 0.0228-0.0143 0.0328l-0.0143 0.0378c-6e-3 0.0114-0.0114 0.0285-0.0143 0.0401-6e-3 8e-3 -8e-3 0.0199-0.0114 0.0285-6e-3 0.0171-0.0114 0.0328-0.0171 0.0504 0 6e-3 -6e-3 0.0114-6e-3 0.0143-8e-3 0.0199-0.0143 0.0401-0.0228 0.0604v6e-3c-0.6287 1.6686-0.83993 3.2568-0.82986 4.6893v0.33673c0.3571 8.2273 11.102 13.98 10.235 17.302-6e-3 0.0228-0.0114 0.0427-0.0171 0.0654 0 6e-3 -6e-3 0.0114-6e-3 0.0171v6e-3c0 6e-3 -2e-3 8e-3 -6e-3 0.0143v6e-3c0 6e-3 -2e-3 0.0114-6e-3 0.0171v2e-3c0 8e-3 -6e-3 0.0143-8e-3 0.0199v2e-3c0 6e-3 -6e-3 0.0114-6e-3 0.0143 0 2e-3 0 6e-3 -2e-3 8e-3 0 6e-3 -2e-3 8e-3 -6e-3 0.0114 0 2e-3 -2e-3 6e-3 -6e-3 0.0114 0 2e-3 -2e-3 6e-3 -6e-3 8e-3 0 2e-3 -2e-3 8e-3 -6e-3 0.0114 0 0 0 6e-3 -2e-3 6e-3l-0.0114 0.0285c0 6e-3 -6e-3 0.0114-6e-3 0.0114v6e-3c0 6e-3 -6e-3 8e-3 -8e-3 0.0143v2e-3l-8e-3 0.0143c-0.0577 0.1181-0.13345 0.22879-0.22364 0.33676 0 0-8e-3 8e-3 -0.0114 0.0143 0 0-2e-3 6e-3 -6e-3 6e-3l-0.0257 0.0257c-2.9396 3.287-31.74-3.018-32.19 21.609-0.16106 8.8128 3.8802 14.625 10.107 17.779 0.0171 0.0114 0.0378 0.0171 0.0554 0.0285 0 0 6e-3 2e-3 8e-3 6e-3 0.0171 8e-3 0.0328 0.0143 0.0504 0.0257 6e-3 0 0.0114 6e-3 0.0143 8e-3 0.0143 8e-3 0.0285 0.0143 0.0404 0.0199 0.0114 6e-3 0.0171 0.0114 0.0285 0.0114l0.0301 0.0143c0.0114 6e-3 0.0199 0.0114 0.0285 0.0143l0.0301 0.0143c0.0114 6e-3 0.0199 8e-3 0.0285 0.0143 0.0114 6e-3 0.0199 0.0114 0.0328 0.0143l0.0301 0.0143c8e-3 6e-3 0.0171 0.0114 0.0285 0.0114 0.0143 8e-3 0.0328 0.0143 0.0478 0.0228 0 0 6e-3 2e-3 8e-3 6e-3 0.0171 8e-3 0.0378 0.0199 0.0551 0.0285 0.0199 8e-3 0.0378 0.0171 0.0577 0.0285h2e-3c3.742 1.7616 8.218 2.606 13.019 2.606 0.99582 0 2.0067-0.0378 3.0252-0.10813 3.6614-0.25893 7.3957-1.0931 11.216-2.131l13.469-64.212s0.0504-0.28644 0.19376-0.69857c-1.3906-2.1737-3.3521-3.8423-5.5977-5.0183z" fill="none" stroke-width="0px"/>
 <g transform="matrix(2.5147 0 0 2.513 28.073 611.81)" fill="#fff">
  <path d="m10.508 42.064 4.75 3.909s2.606 2.012 5.146 0c2.029-1.682-0.198-4.008-2.672-4.552s-11.183-3.018-11.183-11.579 7.571-15.29 19.001-15.29 13.558 5.69 13.558 5.69 0.581 1.212-0.742 2.425c-1.682 1.583-6.828 6.284-6.828 6.284s-0.705 0.854-2.833-0.829c0 0-2.264-2.47-4.969-2.47s-3.299 1.484-3.299 2.474 0.825 1.649 2.771 2.21 9.566 2.573 11.645 6.795 0.561 11.084-2.903 14.515-7.95 6.762-16.428 6.762-14.086-5.839-15.075-7.488c-0.363-0.66-0.792-1.155 0-1.88s8.148-7.29 8.148-7.29 0.841-0.643 1.913 0.313z"/>
  <path d="m35.183 56.494 8.379-39.783s0.132-1.122 1.385-1.122h10.094s0.99-0.264 0.792 1.056-8.511 40.443-8.511 40.443-0.214 0.801-1.395 0.801h-9.985s-1.082 0.14-0.759-1.395z"/>
  <path d="m66.67 23.454 4.8-7.521s0.445-0.368 1.583-0.368h6.136s1.237 0.022 0.346 1.358-4.602 6.977-4.602 6.977-0.469 0.495-1.67 0.495h-6.297s-0.658-0.374-0.297-0.94z"/>
  <path d="m83.873 29.837h-6.787c-1.501 0-2.598 2.82-2.598 2.82s-1.336-3.315-6.68-3.315c-7.769 0-13.558 6.878-15.537 12.469s-0.643 10.193 1.534 12.964 5.047 3.629 8.214 3.629 6.185-1.649 7.769-3.282c0.016 2.837 1.287 2.767 1.287 2.767h6.408c1.955 0 2.2-1.2 2.2-1.2s4.983-24.279 5.173-25.442c0.189-1.163-0.981-1.41-0.981-1.41zm-13.852 16.221c-1.263 1.852-3.513 2.518-5.025 1.486s-1.714-3.369-0.451-5.221 3.513-2.518 5.025-1.486 1.714 3.369 0.451 5.221z"/>
  <path d="m115.96 29.837h-6.828c-1.55 0-2.408 2.936-2.408 2.936-2.012-3.266-6.037-3.431-6.037-3.431s-7.917-0.363-13.69 7.385c-8.346 13.818 0.544 19.682 0.544 19.682 5.146 3.612 10.985 1.682 12.766 0.198-0.643 3.662-1.484 5.641-2.672 6.779-0.808 0.924-3.018 0.94-3.018 0.94h-5.938s-1.188 7.571-1.682 10.342c4.206 0 14.251 0.396 18.605-4.255s5.245-9.698 5.245-9.698 5.179-25.434 5.839-28.271-0.726-2.606-0.726-2.606zm-13.786 16.221c-1.263 1.852-3.513 2.518-5.025 1.486s-1.714-3.369-0.451-5.221 3.513-2.518 5.025-1.486 1.714 3.369 0.451 5.221z"/>
  <path d="m20.774 10.638h9.847v0.693c0 0.614-0.499 1.113-1.113 1.113h-7.558c-0.649 0-1.175-0.527-1.175-1.175v-0.631z"/>
  <path d="m169.14 32.46c-1.435-2.029-3.365-2.87-7.274-2.87-3.217 0-7.224 4.552-7.224 4.552s-0.209-1.878-0.445-2.969c-0.264-1.221-1.138-1.188-1.138-1.188h-6.433c-0.34 0-0.616 0.073-0.844 0.185-0.545 0.266-0.8 0.76-0.91 1.071-0.058 0.164-0.077 0.278-0.077 0.278l-5.356 25.553c3.469-0.943 7.121-2.313 11.04-2.379 0.49-8e-3 0.966-6e-3 1.428 5e-3 0.603-3.003 1.728-8.588 1.943-9.521 0.297-1.287 0.346-2.35 1.287-3.563 1.188-1.435 2.623-1.435 3.068-1.435s1.385-0.099 2.524 1.287 2.375 0 2.375 0 4.998-5.492 6.037-6.581 0.465-1.832 0-2.425z"/>
  <path d="m33.92 3.686c0-0.833-0.676-1.509-1.509-1.509s-1.509 0.676-1.509 1.509c0 0.302 0.091 0.582 0.243 0.817-2.536 1.112-4.229-0.805-4.811-1.63 0.515-0.24 0.873-0.759 0.873-1.364 0-0.833-0.676-1.509-1.509-1.509s-1.509 0.676-1.509 1.509c0 0.605 0.359 1.124 0.873 1.364-0.583 0.825-2.275 2.743-4.811 1.63 0.153-0.236 0.243-0.516 0.243-0.817 0-0.833-0.676-1.509-1.509-1.509s-1.509 0.676-1.509 1.509c0 0.69 0.466 1.266 1.099 1.446 0.405 0.595 0.898 1.413 1.044 2.043 0.259 1.122 0.325 1.616 0.556 2.012s0.528 0.693 1.056 0.693h8.936c0.528 0 0.825-0.297 1.056-0.693s0.297-0.891 0.556-2.012c0.145-0.63 0.639-1.447 1.044-2.043 0.633-0.18 1.099-0.755 1.099-1.446z"/>
 </g>
 <path d="m217.28 797c-1.9137-1.9626-2.8693-4.5611-2.8693-7.7926 0-0.79911 0.0855-1.754 0.26152-2.8673 0.45264-2.6411 1.3479-4.9506 2.6857-6.9308s3.0002-3.5181 4.9817-4.6137c1.9816-1.0956 4.1543-1.641 6.5208-1.641 3.4074 0 5.9799 1.1283 7.7201 3.3874l0.99078-2.8673h8.4494l-4.5364 25.748h-8.4494v-2.7617c-2.4342 2.1888-5.1627 3.2844-8.1879 3.2844-3.1282 0-5.6506-0.98258-7.5616-2.9452zm7.7704-6.0211c0.76447 0.76392 1.8081 1.1459 3.1282 1.1459 1.529 0 2.8593-0.52019 3.991-1.563 1.1291-1.0429 1.8508-2.3974 2.1652-4.0661 0.0679-0.31158 0.10311-0.76392 0.10311-1.3544 0-1.2842-0.37467-2.3019-1.1216-3.0482-0.74686-0.74637-1.7829-1.1208-3.1032-1.1208-1.7402 0-3.2264 0.65087-4.4587 1.9551-1.2347 1.3042-1.8508 2.9452-1.8508 4.9253 0 1.3218 0.38225 2.3622 1.1467 3.126zm-26.234-0.56292-1.5642 9.0164h-9.649l6.4149-36.484h9.649l-3.2338 18.503 6.259-7.765h11.422l-10.901 12.768 8.032 12.977h-11.16zm-19.612-16.736h9.649l-4.5367 25.748h-9.649zm2.7108-10.321c1.1467-0.90212 2.4694-1.3545 3.9631-1.3545 1.461 0 2.6153 0.36439 3.4677 1.0956 0.85248 0.72875 1.2775 1.739 1.2775 3.0231 0 0.24384-0.0352 0.60813-0.10563 1.0957-0.2439 1.3218-0.93043 2.4225-2.0595 3.3094-1.1291 0.88708-2.4443 1.3293-3.938 1.3293-1.461 0-2.6078-0.37186-3.4426-1.1208-0.8349-0.74637-1.2523-1.7792-1.2523-3.101 0-0.41713 0.0176-0.72872 0.0528-0.93735 0.2087-1.3193 0.88769-2.4325 2.0344-3.3347zm-32.178 33.089 12.413-15.01h-8.8142l1.3554-7.765h22.062l-0.57335 3.2318-12.153 14.437h10.119l-1.4082 8.0792h-23.522l0.52052-2.9702zm-25.791 1.3319c-1.373-1.4776-2.0595-3.5182-2.0595-6.1241 0-1.0755 0.10311-2.2064 0.31183-3.3873l2.555-14.593h9.649l-2.5021 14.228c-0.0704 0.55534-0.10563 0.93731-0.10563 1.1459 0 0.93732 0.23389 1.6937 0.70412 2.2667 0.47026 0.57295 1.1895 0.85942 2.1652 0.85942 1.2171 0 2.3286-0.42468 3.3371-1.2766 1.0084-0.85188 1.6522-2.0757 1.9288-3.674l2.399-13.552h9.649l-4.5364 25.748h-8.4494v-2.8145c-1.2523 1.1811-2.6253 2.0405-4.1215 2.5808-1.4962 0.5378-2.9899 0.80917-4.4863 0.80917-2.9196 0-5.0671-0.73878-6.4402-2.2139zm-44.516-24.099h8.4494l-0.26152 2.7617c1.0436-1.0429 2.2607-1.8596 3.6515-2.4501 1.3908-0.59057 2.8341-0.88709 4.3278-0.88709 1.5994 0 2.9546 0.33926 4.0689 1.0152 1.1115 0.67848 1.8785 1.6234 2.2959 2.8396 2.6077-2.5707 5.8239-3.8573 9.649-3.8573 2.746 0 4.8409 0.7388 6.2843 2.2139 1.4434 1.4776 2.1652 3.5884 2.1652 6.3325 0 1.0429-0.10562 2.1888-0.31183 3.4402l-2.5046 14.334h-9.649l2.555-14.542c0.0679-0.55532 0.10312-0.93732 0.10312-1.1459 0-0.90217-0.22632-1.5982-0.67897-2.0858-0.45264-0.48499-1.114-0.72874-1.9816-0.72874-1.114 0-2.052 0.37441-2.8165 1.1208-0.76446 0.74637-1.2699 1.7993-1.5114 3.1539l-2.5046 14.228h-9.4401l2.555-14.543c0.0679-0.55533 0.10312-0.93732 0.10312-1.1459 0-0.90216-0.23389-1.5982-0.70412-2.0858-0.47026-0.485-1.1392-0.72873-2.0093-0.72873-1.114 0-2.0344 0.37439-2.7637 1.1207-0.72927 0.74638-1.2171 1.7993-1.461 3.1539l-2.5046 14.228h-9.649l4.5364-25.748z" fill="url(#b)" stroke-width="2.8444"/>
 <path d="m410.08 749.26c-1.1618-0.0285-2.3563-0.0328-3.5909-0.0114-9.8553 0.16588-19.039 3.6111-27.762 5.9782-3.8225 1.0404-7.5542 1.8747-11.216 2.1335-1.0184 0.0728-2.0294 0.10812-3.0252 0.10812-4.803 0-9.2794-0.84437-13.019-2.6059h-2e-3c-0.0171-8e-3 -0.0378-0.0171-0.0552-0.0257-0.0171-0.0114-0.0378-0.0171-0.0554-0.0285 0 0-6e-3 0-8e-3 -2e-3 -0.0171-8e-3 -0.0328-0.0143-0.0504-0.0228-8e-3 -2e-3 -0.0199-8e-3 -0.0285-0.0114l-0.0301-0.0143c-0.0114-6e-3 -0.0199-0.0114-0.0328-0.0143l-0.11896-0.0595c-8e-3 -2e-3 -0.0171-8e-3 -0.0285-0.0114-0.0114-6e-3 -0.0257-0.0114-0.0403-0.0199-6e-3 0-0.0114-6e-3 -0.0143-6e-3 -0.0171-8e-3 -0.0328-0.0171-0.0504-0.0257-2e-3 0-6e-3 -2e-3 -8e-3 -6e-3 -0.0171-8e-3 -0.0378-0.0171-0.0551-0.0285-6.2288-3.1562-10.268-8.9686-10.109-17.779 0.45017-24.627 29.251-18.325 32.19-21.609l0.0143-0.0143c0-2e-3 6e-3 -8e-3 0.0114-0.0114l2e-3 -6e-3 0.0114-0.0114c0.0904-0.10813 0.16361-0.22137 0.22365-0.33673l8e-3 -0.0143v-2e-3c0-6e-3 6e-3 -8e-3 8e-3 -0.0114v-6e-3c0-2e-3 6e-3 -8e-3 6e-3 -0.0114 0 0 8e-3 -0.0171 0.0114-0.0285v-6e-3l6e-3 -0.0114s0-6e-3 2e-3 -8e-3 0-6e-3 2e-3 -8e-3c0-6e-3 0-8e-3 2e-3 -0.0114 0 0 0-2e-3 2e-3 -8e-3 0-6e-3 2e-3 -8e-3 6e-3 -0.0143v-2e-3c2e-3 -6e-3 6e-3 -0.0114 8e-3 -0.0199v-2e-3c0-6e-3 2e-3 -8e-3 6e-3 -0.0143v-2e-3c0-6e-3 2e-3 -8e-3 6e-3 -0.0143v-6e-3c0-6e-3 2e-3 -0.0114 6e-3 -0.0171 6e-3 -0.0199 0.0114-0.0427 0.0171-0.0629 0.86758-3.3222-9.8803-9.0744-10.235-17.304v-0.33926c-0.0114-1.4323 0.19889-3.018 0.82988-4.689v-6e-3c8e-3 -0.0199 0.0143-0.0426 0.0228-0.0604 0-6e-3 2e-3 -0.0114 6e-3 -0.0143 8e-3 -0.0143 0.0114-0.0328 0.0171-0.0504 2e-3 -0.0114 8e-3 -0.0199 0.0114-0.0301 6e-3 -0.0114 0.0114-0.0257 0.0143-0.0401 6e-3 -0.0114 8e-3 -0.0257 0.0114-0.0378 6e-3 -0.0114 8e-3 -0.0227 0.0114-0.0328 6e-3 -0.0143 0.0114-0.0301 0.0171-0.0453 2e-3 -8e-3 8e-3 -0.0143 0.0114-0.0257 8e-3 -0.0171 0.0143-0.0353 0.0227-0.0529 0-6e-3 6e-3 -0.0114 8e-3 -0.0227 8e-3 -0.0171 0.0143-0.0378 0.0257-0.0554 0-6e-3 2e-3 -8e-3 6e-3 -0.0114 0.0114-0.0199 0.0171-0.0427 0.0285-0.0629 0-6e-3 0-8e-3 6e-3 -8e-3l0.0301-0.068v-8e-3c0.0114-0.0227 0.0199-0.0478 0.0328-0.0703 0.60353-1.362 1.4937-2.7718 2.7762-4.1892 0.49287-0.54786 1.0511-1.0404 1.6672-1.4801 4.6146-3.2995 12.32-3.5483 18.126-0.50763 2.2481 1.1761 4.2072 2.8445 5.6003 5.0183 0.27658-0.78407 0.91789-2.0229 2.2884-2.6914-2.218-11.288-17.047-21.787-31.601-21.787-4.6496 0-9.2643 1.0705-13.434 3.5258-4.6647 2.7492-6.4678 6.6493-7.9315 10.117-0.94552 2.2416-1.3328 4.6239-1.3328 6.9785 0 0.24641 2e-3 0.49507 0.0114 0.74133v6e-3c2e-3 0.10557 8e-3 0.21369 0.0114 0.31914v0.0143c6e-3 0.10556 0.0114 0.20885 0.0171 0.3116v0.0199c0 0.0257 2e-3 0.0478 6e-3 0.0703v0.0114c2e-3 0.0478 8e-3 0.0957 0.0114 0.14341v0.0143c0 0.0199 2e-3 0.0401 6e-3 0.0629 0 0.0114 0 0.0228 2e-3 0.0353 0 0.0199 0 0.0378 2e-3 0.0578v0.0301c2e-3 0.0401 8e-3 0.0805 0.0114 0.11808v0.0228c0 0.0199 2e-3 0.04 6e-3 0.0578 0 0.0114 2e-3 0.0257 2e-3 0.0378 0 0.0171 2e-3 0.04 6e-3 0.0577 0 0.0114 2e-3 0.0228 6e-3 0.0353 0 0.0353 6e-3 0.0703 0.0114 0.10556v0.0328c0 0.0171 2e-3 0.0378 6e-3 0.0554 0 0.0114 0 0.0285 6e-3 0.0401 0 0.0171 0 0.0353 6e-3 0.0529 0 0.0143 2e-3 0.0301 6e-3 0.0453 0 0.0285 6e-3 0.0554 8e-3 0.0805 0 0.0171 6e-3 0.0353 6e-3 0.0529 0 0.0143 2e-3 0.0301 6e-3 0.0478 0 0.0171 2e-3 0.0353 6e-3 0.0529 0 0.0143 2e-3 0.0301 6e-3 0.0453 0 0.0199 6e-3 0.0427 8e-3 0.0629 0 0.0114 2e-3 0.0285 6e-3 0.04 2e-3 0.0285 8e-3 0.0529 0.0114 0.0805 0 0.0143 6e-3 0.0285 6e-3 0.0428 0 0.0199 6e-3 0.0378 8e-3 0.0578 0 0.0114 0 0.0257 6e-3 0.0378 0 0.0228 6e-3 0.0478 8e-3 0.0703 0 8e-3 0 0.0171 2e-3 0.0257 2e-3 0.0301 8e-3 0.0604 0.0114 0.093 0 0.0114 0 0.0228 6e-3 0.0353 0 0.0228 6e-3 0.0453 8e-3 0.0654 0 0.0114 2e-3 0.0199 6e-3 0.0301 8e-3 0.0629 0.0171 0.12833 0.0285 0.1912 0 0.0114 2e-3 0.0199 6e-3 0.0301 2e-3 0.0227 8e-3 0.0453 0.0114 0.068 0 0.0114 2e-3 0.0228 6e-3 0.0328 6e-3 0.0257 8e-3 0.0529 0.0114 0.0753 0 8e-3 0 0.0114 2e-3 0.0199 6e-3 0.0301 0.0114 0.0604 0.0143 0.093 0 0.0114 6e-3 0.0199 6e-3 0.0328 2e-3 0.0199 8e-3 0.0427 0.0114 0.0629 2e-3 0.0114 6e-3 0.0257 8e-3 0.0353 2e-3 0.0257 8e-3 0.0529 0.0114 0.078v0.0114c6e-3 0.0328 0.0114 0.0629 0.0171 0.0957 0 0.0114 0 0.0171 6e-3 0.0285 6e-3 0.0257 8e-3 0.0478 0.0114 0.0703 0 8e-3 6e-3 0.0171 6e-3 0.0285l0.0143 0.0831v0.0143c8e-3 0.0301 0.0114 0.0604 0.0199 0.0929 0 0.0114 2e-3 0.0199 6e-3 0.0301 6e-3 0.0228 8e-3 0.0426 0.0114 0.0654 0 0.0114 6e-3 0.0227 6e-3 0.0328 6e-3 0.0285 0.0114 0.0577 0.0171 0.0854t0 6e-3c6e-3 0.0328 0.0114 0.0629 0.0199 0.0956 0 8e-3 2e-3 0.0171 6e-3 0.0285 2e-3 0.0228 8e-3 0.0453 0.0114 0.068 0 0.0114 2e-3 0.0171 6e-3 0.0285 6e-3 0.0257 0.0114 0.0529 0.0143 0.0754 0 6e-3 0 0.0114 6e-3 0.0199 6e-3 0.0301 0.0114 0.0604 0.0199 0.093 0 8e-3 2e-3 0.0143 6e-3 0.0228 6e-3 0.0257 0.0114 0.0478 0.0143 0.0728 0 8e-3 2e-3 0.0171 6e-3 0.0285 6e-3 0.0285 0.0114 0.0529 0.0171 0.083v0.0114c8e-3 0.0301 0.0114 0.0629 0.0227 0.0931 0 8e-3 0 0.0143 6e-3 0.0228 6e-3 0.0257 0.0114 0.0504 0.0143 0.0728 0 8e-3 6e-3 0.0171 6e-3 0.0257 6e-3 0.0257 0.0114 0.0504 0.0171 0.0755 0 6e-3 0 0.0114 6e-3 0.0199 6e-3 0.0301 0.0114 0.0578 0.0199 0.0879 0 0.0114 6e-3 0.0171 6e-3 0.0257 6e-3 0.0227 0.0114 0.0478 0.0171 0.0703 0 8e-3 6e-3 0.0171 8e-3 0.0285 6e-3 0.0285 0.0114 0.0554 0.0199 0.0854v2e-3c8e-3 0.0328 0.0143 0.0604 0.0228 0.093 0 8e-3 6e-3 0.0171 8e-3 0.0257l0.0143 0.068c2e-3 8e-3 6e-3 0.0171 8e-3 0.0285 6e-3 0.0257 0.0114 0.0504 0.0171 0.0703 0 8e-3 2e-3 0.0114 6e-3 0.0199 8e-3 0.0301 0.0143 0.0579 0.0227 0.0879 0 0.0114 6e-3 0.0171 8e-3 0.0285 6e-3 0.0199 0.0114 0.0453 0.0171 0.0654 0 0.0114 6e-3 0.0199 8e-3 0.0301 8e-3 0.0257 0.0114 0.0529 0.0199 0.078v0.0114l0.0257 0.0904c0 8e-3 2e-3 0.0143 6e-3 0.0227 6e-3 0.0228 0.0114 0.0478 0.0199 0.0703 0 8e-3 6e-3 0.0114 6e-3 0.0199 8e-3 0.0257 0.0143 0.0529 0.0228 0.078 0 6e-3 2e-3 0.0114 6e-3 0.0143 8e-3 0.0301 0.0171 0.0578 0.0256 0.0879 2e-3 8e-3 6e-3 0.0171 8e-3 0.0257 6e-3 0.0199 0.0114 0.0428 0.0171 0.0629l8e-3 0.0301c6e-3 0.0228 0.0114 0.0453 0.0199 0.068 0 8e-3 6e-3 0.0114 6e-3 0.0199 8e-3 0.0285 0.0171 0.0554 0.0257 0.0831 2e-3 0.0114 6e-3 0.0257 0.0114 0.0353l0.0143 0.0529c6e-3 0.0114 8e-3 0.0228 0.0114 0.0353l0.0143 0.0529c0 0.0114 8e-3 0.0228 0.0114 0.0353 8e-3 0.0285 0.0143 0.0529 0.0227 0.078 6e-3 0.0114 8e-3 0.0257 0.0114 0.0378 6e-3 0.0143 0.0114 0.0301 0.0143 0.0478 2e-3 0.0143 8e-3 0.0285 0.0114 0.0427 6e-3 0.0143 0.0114 0.0328 0.0143 0.0478 2e-3 0.0114 8e-3 0.0228 0.0114 0.0353 8e-3 0.0257 0.0171 0.0504 0.0257 0.0754 6e-3 0.0114 0.0114 0.0285 0.0114 0.0401 6e-3 0.0143 0.0114 0.0301 0.0143 0.0478 2e-3 0.0114 8e-3 0.0257 0.0114 0.0378l0.0143 0.0453c6e-3 0.0114 0.0114 0.0285 0.0114 0.04 8e-3 0.0257 0.0171 0.0478 0.0257 0.0703 6e-3 0.0143 0.0114 0.0328 0.0143 0.0478 2e-3 0.0114 8e-3 0.0257 0.0114 0.0353 6e-3 0.0143 0.0114 0.0328 0.0143 0.0478l0.0114 0.0401s8e-3 0.0285 0.0114 0.04c6e-3 0.0114 0.0114 0.0301 0.0143 0.0428 8e-3 0.0285 0.0171 0.0529 0.0285 0.078 2e-3 0.0114 8e-3 0.0199 0.0114 0.0301 6e-3 0.0171 0.0114 0.0353 0.0171 0.0529l8e-3 0.0227c0.0199 0.0604 0.0426 0.12065 0.0654 0.18353 0 6e-3 0 0.0114 6e-3 0.0143 8e-3 0.0199 0.0143 0.04 0.0228 0.0604 0 2e-3 0 8e-3 6e-3 0.0114 0.0228 0.0604 0.0453 0.1232 0.068 0.18352 0 8e-3 6e-3 0.0114 8e-3 0.0199 8e-3 0.0171 0.0143 0.0378 0.0227 0.0577 0 0 0 6e-3 2e-3 8e-3l0.0755 0.19605c0.0114 0.0257 0.0171 0.0453 0.0285 0.0654 0.9405 2.3999 2.0948 4.3248 3.098 5.4155v2e-3c0.0285 0.0285 0.0554 0.0578 0.0831 0.0857 0 0 0.0143 0.0171 0.0256 0.0285 0 0 2e-3 6e-3 6e-3 6e-3 8e-3 8e-3 0.0143 0.0143 0.0228 0.0257 0 0 2e-3 0 6e-3 6e-3 0.0143 0.0143 0.0285 0.0301 0.0427 0.0453l0.0285 0.0285c0 2e-3 6e-3 6e-3 0.0114 8e-3 6e-3 8e-3 0.0114 0.0114 0.0199 0.0199l6e-3 6e-3c0.0114 0.0114 0.0285 0.0257 0.0404 0.0378 2e-3 2e-3 6e-3 8e-3 0.0114 8e-3l0.0171 0.0171c2e-3 2e-3 8e-3 8e-3 0.0114 8e-3l0.0171 0.0171c2e-3 2e-3 8e-3 8e-3 0.0114 8e-3 0.0114 8e-3 0.0199 0.0171 0.0301 0.0285 6e-3 6e-3 0.0114 8e-3 0.0171 0.0143 6e-3 2e-3 0.0114 8e-3 0.0143 0.0114l0.0143 0.0143c6e-3 2e-3 0.0114 8e-3 0.0143 0.0114 8e-3 6e-3 0.0114 0.0114 0.0199 0.0171 8e-3 6e-3 0.0114 8e-3 0.0199 0.0143 8e-3 6e-3 0.0114 0.0114 0.0199 0.0143 6e-3 2e-3 0.0114 8e-3 0.0114 8e-3 6e-3 6e-3 0.0114 0.0114 0.0199 0.0171 2e-3 0 6e-3 6e-3 0.0114 8e-3 8e-3 8e-3 0.0171 0.0143 0.0285 0.0228 0 0 6e-3 2e-3 8e-3 6e-3 8e-3 8e-3 0.0171 0.0114 0.0285 0.0199 0 0 6e-3 6e-3 8e-3 6e-3 8e-3 6e-3 0.0143 0.0114 0.0228 0.0171 2e-3 0 6e-3 6e-3 0.0114 8e-3 0.0114 6e-3 0.0199 0.0143 0.0301 0.0199-0.51553-0.0554-1.959-0.25636-4.0362-0.34679-0.64377-0.0301-1.3504-0.0478-2.1074-0.0478-9.136 0-25.881 2.611-34.93 21.046-0.0199 0.0378-0.0378 0.0728-0.0554 0.11068-2e-3 8e-3 -8e-3 0.0171-0.0114 0.0257-0.0143 0.0285-0.0285 0.0578-0.0426 0.0879-6e-3 8e-3 -8e-3 0.0171-0.0114 0.0285-0.0114 0.0285-0.0285 0.0579-0.0427 0.0879-6e-3 8e-3 -8e-3 0.0143-0.0114 0.0228-0.0143 0.0328-0.0301 0.0654-0.0478 0.0982 0 2e-3 -6e-3 8e-3 -6e-3 0.0114-0.0554 0.11553-0.10813 0.23134-0.16105 0.34931-0.0171 0.0401-0.0353 0.078-0.0529 0.11807-2.1224 4.7092-2.9347 9.5945-2.9373 14.281 0 11.846 5.1954 22.42 7.6322 25.675l6e-3 6e-3c8e-3 0.0114 0.0143 0.0228 0.0257 0.0353 0.21142 0.28168 0.42246 0.55533 0.63874 0.82672 6.1586 7.7573 13.474 11.67 20.606 13.63 0.0478 0.0114 0.0931 0.0257 0.14086 0.0378 8e-3 0 0.0143 2e-3 0.0199 6e-3 0.0453 0.0114 0.0929 0.0257 0.13828 0.0378 8e-3 0 0.0143 2e-3 0.0228 6e-3 0.0171 6e-3 0.0378 0.0114 0.0554 0.0114 8e-3 0 0.0143 6e-3 0.0228 8e-3 0.0171 6e-3 0.0353 8e-3 0.0529 0.0114 8e-3 0 0.0171 6e-3 0.0285 8e-3l0.0453 8e-3s0.0257 6e-3 0.0378 0.0114c0.0114 0 0.0199 6e-3 0.0301 8e-3 0.0143 6e-3 0.0328 8e-3 0.0478 0.0114 8e-3 0 0.0171 6e-3 0.0257 8e-3 5.9372 1.5354 11.718 1.7515 16.57 1.7515h0.0551c26.037-8e-3 30.938-13.856 56.427-19.744 31.951-7.3806 42.499 11.263 44.217 14.882 0.18126 0.382 0.26405 0.5956 0.26405 0.5956s-0.72927-25.474-38.609-26.351z" fill="url(#a)" stroke-width="0px"/>
 <path d="m312.94 441.7h-64.73l34.955-33.37c31.189-28.998 38.722-48.834 38.624-68.848-0.20572-42.063-30.414-80.308-79.62-79.759-46.695 0.52158-71.36 27.421-80.952 53.796-1.9257 5.2954-2.162 14.772 7.08 19.249l24.682 10.09c14.911 6.1426 21.519-9.1789 24.147-15.232 3.2537-7.4931 8.8465-13.969 23.949-13.969 16.981 0 24.553 14.049 24.553 21.627 0 20.81-17.774 29.665-33.022 43.652l-74.407 68.865v31.287c0.36657 10.997 3.0551 17.124 22.896 17.215l131.84-0.54989c8.1981 0.35938 13.969-4.1875 14.017-14.69 0.0404-8.8191-0.0114-15.358 0.054-26.424 0.0717-12.099-7.359-13.03-14.071-12.939z" fill="#fff" stroke-width="4.298" aria-label="2"/>
</svg>
