<?xml version="1.0" encoding="UTF-8" standalone="no"?>
<!-- Created with Inkscape (http://www.inkscape.org/) -->
<svg xmlns:rdf="http://www.w3.org/1999/02/22-rdf-syntax-ns#" xmlns="http://www.w3.org/2000/svg" height="432.41" width="600" version="1.1" xmlns:cc="http://creativecommons.org/ns#" xmlns:dc="http://purl.org/dc/elements/1.1/">
 <defs></defs>
 <metadata>
  <rdf:RDF>
   <cc:Work rdf:about="">
    <dc:format>image/svg+xml</dc:format>
    <dc:type rdf:resource="http://purl.org/dc/dcmitype/StillImage"/>
    <dc:title/>
   </cc:Work>
  </rdf:RDF>
 </metadata>
 <path fill-rule="nonzero" fill="#79bb19" d="M0.28125,0v359.81h599.72v-359.81h-599.72zm59.969,59.969h179.91v59.971h-119.91v59.97h-60v-119.94zm405.19,1.531h59.84v59.75h-59.84v-59.75zm-285.25,118.41h59.97v119.93h-179.91v-59.96h119.94v-59.97zm285.4,56.43h59.88v59.78h-59.88v-59.78z"/>
 <path fill-rule="nonzero" fill="#79bb19" d="m26.546,432.4-26.546,0,0-9.5957,21.174,0,0-8.4753-15.801,0l-3.7641-1.4-1.6089-3.45v-17.67l1.6089-3.3614,3.7636-1.4078h26.431v9.6244h-21.059v7.9581h15.801l3.7061,1.379,1.5514,3.4763v18.071l-1.5514,3.4476-3.7061,1.4078z"/>
 <path fill-rule="nonzero" fill="#79bb19" d="m50.208,422.79,19.852,0,0,9.6244-30.597,0,0-45.163,10.745,0,0,35.539z"/>
 <path fill-rule="nonzero" fill="#79bb19" d="m81.938,387.25-3.75,1.4062-1.5312,3.3438,0,35.656,1.5312,3.4062,3.75,1.3438,25.813,0,3.7188-1.3438,1.5625-3.4062,0-35.656-1.5625-3.3438-3.7188-1.4062-25.813,0zm5.375,9.5938,15.063,0,0,25.938-15.063,0,0-25.938z"/>
 <path fill-rule="nonzero" fill="#79bb19" d="m163.35,387.24-13.446,45.163-16.318,0-13.532-45.163,10.86,0,10.831,35.338,10.745-35.338,10.86,0z"/>
 <path fill-rule="nonzero" fill="#79bb19" d="m175.75,387.34-14.781,45.062,10.938,0,3.625-10.625,16.75,0,3.5,10.625,10.969,0-14.781-45.062-16.219,0zm8.1562,9.5,5.0625,15.219-10.219,0,5.1562-15.219z"/>
 <path fill-rule="nonzero" fill="#79bb19" d="m238.26,432.4-8.9924-12.928-8.9924,12.928-8.9924,0,0-45.163,10.659,0,0,21.72,14.451-21.72,15.313,0-15.198,21.72,0.31602,0,15.485,23.443-14.049,0z"/>
 <path fill-rule="nonzero" fill="#79bb19" d="m315.23,432.4-26.546,0,0-9.5957,21.174,0,0-8.4753-15.801,0-3.7636-1.4078-1.6089-3.4476,0-17.669,1.6089-3.3614,3.7636-1.4078,26.431,0,0,9.6244-21.059,0,0,7.9581,15.801,0,3.7349,1.379,1.5227,3.4763,0,18.071-1.5227,3.4476-3.7349,1.4078z"/>
 <path fill-rule="nonzero" fill="#79bb19" d="m329,387.25,0,45.156,10.75,0,0-15.5,20.125,0,3.7188-1.4062,1.5625-3.4688,0-20.031-1.5625-3.375-3.7188-1.375-30.875,0zm10.75,9.5938,14.75,0,0,10.438-14.75,0,0-10.438z"/>
 <path fill-rule="nonzero" fill="#79bb19" d="m378.78,387.25-3.7188,1.4062-1.5312,3.3438,0,35.656,1.5312,3.4062,3.7188,1.3438,25.844,0,3.7188-1.3438,1.5312-3.4062,0-35.656-1.5312-3.3438-3.7188-1.4062-25.844,0zm5.375,9.5938,15.094,0,0,25.938-15.094,0,0-25.938z"/>
 <path fill-rule="nonzero" fill="#79bb19" d="m419.5,387.25,0,45.156,10.625,0,0-15.531,7.6562,0,10.344,15.531,12.406,0l-10.34-15.53,3.81-1.38,1.5625-3.4688v-20.031l-1.5625-3.3438-3.8125-1.4062h-30.688zm10.625,9.625,14.781,0,0,10.406-14.781,0,0-10.406z"/>
 <path fill-rule="nonzero" fill="#79bb19" d="m495.23,396.75-10.429,0,0,35.654-10.659,0,0-35.654-10.429,0,0-9.5095,31.516,0,0,9.5095z"/>
 <path fill-rule="nonzero" fill="#79bb19" d="m511.66,432.39-8.6764,0,0-9.5957,8.6764,0,0,9.5957z"/>
 <path fill-rule="nonzero" fill="#79bb19" d="m551.65,396.75-10.429,0,0,35.654-10.659,0,0-35.654-10.429,0,0-9.5095,31.516,0,0,9.5095z"/>
 <path fill-rule="nonzero" fill="#79bb19" d="m599.69,387.24-13.417,45.163-16.347,0-13.532-45.163,10.86,0,10.831,35.338,10.745-35.338,10.86,0z"/>
</svg>
