<svg xmlns="http://www.w3.org/2000/svg" height="383.86" width="600" viewBox="0 0 158.75 101.562">
    <g fill="#c1227d" fill-rule="evenodd">
        <path d="M29.823 32.43c-1.396-8.146-4.199-13.443-7.455-12.804-9.349 2.154-13.61 8.855-13.61 15.796 0 6.94 8.639 18.787 11.361 20.821-2.603 0-5.562 2.992-5.562 5.744 0 2.754 1.538 4.428 2.367 4.428.828 0 1.894-.478 1.894-1.795 0-1.316-1.658-2.154-2.959-1.196-.356-.718-.474-1.915-.237-2.634.237-.718 1.775-3.709 4.734-3.709.27 0 .547.002.827.009 0 0 1.5.829 2.604 1.467 1.105.638 2.289 1.276 3.666 2.098 1.179 2.172 1.969 5.659 2.015 11.265.119 14.482-12.071 22.142-18.58 22.142s-9.704-4.19-9.704-11.49c0-10.892 9.822-13.404 11.835-13.046-.947.599-.711 2.274 0 2.992.709.718 2.248.239 2.603-.718s.237-3.231-2.486-3.231C9.941 68.569 0 71.8 0 82.692c0 12.56 7.456 15.56 13.019 15.56 4.141-.13 18.461-5.63 18.461-27.769 0-13.173.092-27.852-1.657-38.053zm-2.366 24.293c-1.066 0-3.433 0-5.799-1.198-2.368-1.196-8.048-9.932-8.048-19.266 0-8.975 6.272-14.36 8.639-14.36 2.368 0 5.089 5.265 5.799 11.129s.473 23.695-.591 23.695zM76.093 45.115c0-18.788-22.324-26.367-25.677-26.566-3.191-.19-4.261.359-5.563 1.794-1.301 1.437-1.894 3.671-2.052 6.063-.158 2.394.395 5.825 1.815 9.335-1.657 11.608-2.366 32.828-.946 44.317 1.42 11.484 5.088 16.994 8.639 17.714 3.55.71 16.214-2.76 16.214-14.96 0-12.209-13.138-21.782-13.138-21.782s20.708 2.872 20.708-15.915zM63.315 81.454c-.078 7.338-4.971 14.598-10.415 13.798-5.444-.79-7.415-12.44-7.731-17.15-.316-4.706.788-20.662.788-20.662s3.709 1.995 4.971 2.313c10.178 5.506 12.466 14.361 12.387 21.701zm-9.941-22.219c-2.13-1.556-6.035-3.829-7.101-5.624-1.065-1.795.237-16.155.237-16.155s1.539.838 3.669.598c2.13-.239 3.668-1.914 3.668-3.111s-.947-2.155-.947-2.155c4.142 0 7.141 2.234 7.495 3.311-1.419.28-1.183 2.035-.591 2.634.591.598 2.012.598 2.249-.479.237-1.078-.711-2.035-1.184-2.753-.474-.718-2.406-3.31-7.85-3.79-4.378-.439-6.668 2.155-7.298 2.753-.867-2.393-1.341-5.266-1.105-7.898.237-2.633 1.263-6.782 5.563-6.582 2.84 0 19.294 4.188 19.294 22.977 0 18.787-14.205 16.394-16.099 16.274zm-1.973-23.654c-2.288 1.914-4.417.559-4.417.559s.157-2.154 4.023-3.112c0 0-1.025 1.596.394 2.553z"/>
        <path d="M59.765 0c-4.024 0-11.48 14.36-13.847 26.207-2.366 11.847-4.97 37.456-4.97 37.456l-2.367-8.377s1.834-8.077 2.129-11.847c.297-3.769 0-11.608-3.55-11.368-3.549.239-3.136 6.343-2.84 10.77s2.486 13.462 2.486 13.462l-3.788 10.351s-1.775-29.797-4.379-42.84C26.036 10.77 22.13.12 17.633.12s-5.561 5.983-5.088 10.411c.474 4.428 3.314 8.855 6.628 8.855 3.313 0 3.313-2.872 3.432-3.829.117-.958-.475-2.275-1.421-2.394-.947-.119-1.775 1.436-1.775 2.034 0 .599.71 1.317.71 1.317s.947 1.437-1.301 1.437c-2.249 0-4.853-3.112-4.853-8.019 0-4.906 1.302-5.863 3.195-5.983 1.894-.12 9.941 9.333 12.308 35.302 2.367 25.968 2.604 28.84 2.604 28.84s-3.373 8.018-3.551 10.889c-.177 2.872.474 5.622 2.367 5.622 1.894 0 3.669-2.81 3.373-6.699s-1.005-9.693-1.005-9.693l4.259-11.01 2.959 9.215s-1.419 7.42-1.183 11.129c.237 3.711 1.538 7.178 3.551 7.178 2.011 0 2.84-2.75 2.248-7.896-.593-5.146-3.314-11.607-3.314-11.607s1.657-11.967 4.142-31.114C48.403 14.959 57.674 3.829 60.356 3.829c3.314 0 2.959 4.547 2.604 7.301-.355 2.752-2.249 6.701-4.378 6.701-2.132 0-2.132-1.317-2.132-1.317s.475-1.317.475-2.034c0-.718-.71-1.436-1.776-1.436-1.064 0-.947 1.436-.947 2.153 0 .719.947 3.711 4.497 3.711 2.249 0 4.971-3.231 5.68-8.377C65.09 5.385 63.788 0 59.765 0zM32.96 78.143c-.06 1.735-.947 3.649-1.835 3.649s-1.45-.897-1.42-2.812c.03-1.914 2.692-9.484 2.692-9.484s.621 6.912.563 8.647zm2.9-36.439c-.119-2.573.176-5.385 1.597-5.505 1.419-.12 1.952 3.89 1.952 5.804 0 1.915-1.538 12.086-1.538 12.086s-1.894-9.813-2.011-12.385zm7.75 34.973c.651 4.787-.621 4.487-1.242 4.487-.622 0-1.243-.837-1.568-3.471-.326-2.633.385-10.2.385-10.2s1.774 4.397 2.425 9.184z"/>
        <path d="M29.823 32.43c-1.396-8.146-4.199-13.443-7.455-12.804-9.349 2.154-13.61 8.855-13.61 15.796 0 6.94 8.639 18.787 11.361 20.821-2.603 0-5.562 2.992-5.562 5.744 0 2.754 1.538 4.428 2.367 4.428.828 0 1.894-.478 1.894-1.795 0-1.316-1.658-2.154-2.959-1.196-.356-.718-.474-1.915-.237-2.634.237-.718 1.775-3.709 4.734-3.709.27 0 .547.002.827.009 0 0 1.5.829 2.604 1.467 1.105.638 2.289 1.276 3.666 2.098 1.179 2.172 1.969 5.659 2.015 11.265.119 14.482-12.071 22.142-18.58 22.142s-9.704-4.19-9.704-11.49c0-10.892 9.822-13.404 11.835-13.046-.947.599-.711 2.274 0 2.992.709.718 2.248.239 2.603-.718s.237-3.231-2.486-3.231C9.941 68.569 0 71.8 0 82.692c0 12.56 7.456 15.56 13.019 15.56 4.141-.13 18.461-5.63 18.461-27.769 0-13.173.092-27.852-1.657-38.053zm-2.366 24.293c-1.066 0-3.433 0-5.799-1.198-2.368-1.196-8.048-9.932-8.048-19.266 0-8.975 6.272-14.36 8.639-14.36 2.368 0 5.089 5.265 5.799 11.129s.473 23.695-.591 23.695zM76.093 45.115c0-18.788-22.324-26.367-25.677-26.566-3.191-.19-4.261.359-5.563 1.794-1.301 1.437-1.894 3.671-2.052 6.063-.158 2.394.395 5.825 1.815 9.335-1.657 11.608-2.366 32.828-.946 44.317 1.42 11.484 5.088 16.994 8.639 17.714 3.55.71 16.214-2.76 16.214-14.96 0-12.209-13.138-21.782-13.138-21.782s20.708 2.872 20.708-15.915zM63.315 81.454c-.078 7.338-4.971 14.598-10.415 13.798-5.444-.79-7.415-12.44-7.731-17.15-.316-4.706.788-20.662.788-20.662s3.709 1.995 4.971 2.313c10.178 5.506 12.466 14.361 12.387 21.701zm-9.941-22.219c-2.13-1.556-6.035-3.829-7.101-5.624-1.065-1.795.237-16.155.237-16.155s1.539.838 3.669.598c2.13-.239 3.668-1.914 3.668-3.111s-.947-2.155-.947-2.155c4.142 0 7.141 2.234 7.495 3.311-1.419.28-1.183 2.035-.591 2.634.591.598 2.012.598 2.249-.479.237-1.078-.711-2.035-1.184-2.753-.474-.718-2.406-3.31-7.85-3.79-4.378-.439-6.668 2.155-7.298 2.753-.867-2.393-1.341-5.266-1.105-7.898.237-2.633 1.263-6.782 5.563-6.582 2.84 0 19.294 4.188 19.294 22.977 0 18.787-14.205 16.394-16.099 16.274zm-1.973-23.654c-2.288 1.914-4.417.559-4.417.559s.157-2.154 4.023-3.112c0 0-1.025 1.596.394 2.553z"/>
    </g>
    <path d="M59.765 0c-4.024 0-11.48 14.36-13.847 26.207-2.366 11.847-4.97 37.456-4.97 37.456l-2.367-8.377s1.834-8.077 2.129-11.847c.297-3.769 0-11.608-3.55-11.368-3.549.239-3.136 6.343-2.84 10.77s2.486 13.462 2.486 13.462l-3.788 10.351s-1.775-29.797-4.379-42.84C26.036 10.77 22.13.12 17.633.12s-5.561 5.983-5.088 10.411c.474 4.428 3.314 8.855 6.628 8.855 3.313 0 3.313-2.872 3.432-3.829.117-.958-.475-2.275-1.421-2.394-.947-.119-1.775 1.436-1.775 2.034 0 .599.71 1.317.71 1.317s.947 1.437-1.301 1.437c-2.249 0-4.853-3.112-4.853-8.019 0-4.906 1.302-5.863 3.195-5.983 1.894-.12 9.941 9.333 12.308 35.302 2.367 25.968 2.604 28.84 2.604 28.84s-3.373 8.018-3.551 10.889c-.177 2.872.474 5.622 2.367 5.622 1.894 0 3.669-2.81 3.373-6.699s-1.005-9.693-1.005-9.693l4.259-11.01 2.959 9.215s-1.419 7.42-1.183 11.129c.237 3.711 1.538 7.178 3.551 7.178 2.011 0 2.84-2.75 2.248-7.896-.593-5.146-3.314-11.607-3.314-11.607s1.657-11.967 4.142-31.114C48.403 14.959 57.674 3.829 60.356 3.829c3.314 0 2.959 4.547 2.604 7.301-.355 2.752-2.249 6.701-4.378 6.701-2.132 0-2.132-1.317-2.132-1.317s.475-1.317.475-2.034c0-.718-.71-1.436-1.776-1.436-1.064 0-.947 1.436-.947 2.153 0 .719.947 3.711 4.497 3.711 2.249 0 4.971-3.231 5.68-8.377C65.09 5.385 63.788 0 59.765 0zM32.96 78.143c-.06 1.735-.947 3.649-1.835 3.649s-1.45-.897-1.42-2.812c.03-1.914 2.692-9.484 2.692-9.484s.621 6.912.563 8.647zm2.9-36.439c-.119-2.573.176-5.385 1.597-5.505 1.419-.12 1.952 3.89 1.952 5.804 0 1.915-1.538 12.086-1.538 12.086s-1.894-9.813-2.011-12.385zm7.75 34.973c.651 4.787-.621 4.487-1.242 4.487-.622 0-1.243-.837-1.568-3.471-.326-2.633.385-10.2.385-10.2s1.774 4.397 2.425 9.184z" fill-rule="evenodd" fill="#715695"/>
    <g fill="#fff">
        <path d="M110.913 96.592h-.21c-5.42-.38-8.14-5.27-8.14-14.68 0-5.837.59-11.538 1.75-17.101 1.72-8.345 4.35-12.518 7.89-12.518 1.4 0 2.62 1.135 3.65 3.403.86 1.856 1.29 3.523 1.29 5.001 0 .447-.17.955-.52 1.522-.34.566-.73.85-1.18.85-.89 0-1.53-.514-1.91-1.543-.1-.239-.26-1.336-.46-3.291-.21-1.577-.52-2.52-.93-2.829-2.24.172-3.85 2.642-4.85 7.409-.76 3.499-1.13 7.924-1.13 13.275 0 2.196.06 4.151.18 5.862.2 2.85.41 4.75.61 5.71.41 1.86 1.2 3.61 2.37 5.25.13.21.41.35.82.41.31.07.62.12.92.16.52-.04 1.05-.29 1.6-.77 2.81-2.54 4.21-5.96 4.21-10.25 0-.62.05-1.629.16-3.036s.16-2.42.16-3.038c0-.034.02-.068.05-.103h.05c0-.034.02-.051.06-.051-.03 0-.03-.017 0-.053a.147.147 0 0 1 .1-.051h.92c.28.069.45.31.52.721.17.997.26 2.871.26 5.621 0 3.47-.52 6.48-1.55 9.02-1.44 3.61-3.67 5.31-6.69 5.1zm-.21 0l.05-.53s.07-.01.21-.01l-.05.54h-.21zM126.453 76.284c.17-.239.72-.36 1.65-.36 3.46 0 5.19 8.098 5.19 24.298 0 .59-.3.88-.91.88-.1 0-.38.07-.83.23-.46.15-.77.23-.94.23-.16 0-.25-.07-.25-.21v-10.29c-.17-5.59-.6-9.525-1.29-11.79-.07.069-.37-.103-.91-.515-.53-.411-.85-.618-.96-.618-.44 0-.94.335-1.47 1.003-.54.669-.86 1.208-.96 1.62-.03.549-.37 2.86-1.01 6.94s-1.06 6.57-1.27 7.46c-.1.51-.39.77-.88.77-.1 0-.29.06-.57.18-.27.12-.43.18-.46.18-.11 0-.16-.05-.16-.15l-1.43-43.044c0-.137.05-.206.15-.206.07 0 .27.07.59.21.33.141.56.21.7.21-.07 0 .27-.034 1.03-.103.48-.069.72-.035.72.103l.1 33.94 1.6-7.155c0-.687.17-1.202.51-1.545.34-.344.72-.722 1.13-1.134zm-3.96 18.908v.05c-.04.14-.11.26-.21.36.14-.1.21-.24.21-.41zM139.873 71.803l-.61 4.119v14.88l-.15 4.89c-.04.68-.61 1.02-1.71 1.02-1.14 0-1.65-.34-1.55-1.03l.72-5.25.62-15.542-.26-3.706c-.03-.514.29-.771.98-.771.51 0 .98.129 1.39.386.41.258.6.592.57 1.004zm-3.72-6.366c0-.754.19-1.397.56-1.929.38-.532.86-.798 1.45-.798.54 0 1.01.266 1.41.798.39.532.59 1.175.59 1.929 0 .79-.2 1.451-.59 1.982-.4.533-.87.798-1.41.798-.59 0-1.07-.265-1.45-.798-.37-.531-.56-1.192-.56-1.982zM146.843 61.665l-1 14.426-.24 9.321v13.92c0 .41-.27.61-.82.61-.59 0-1.18-.19-1.76-.56-.59-.38-.86-.78-.83-1.19l1.2-12.72.36-10.978-.56-13.86c0-.411.31-.618.92-.618.62 0 1.23.172 1.83.515.6.344.9.722.9 1.134z"/>
        <path d="M149.323 80.065c1.92-.927 2.94-1.391 3.04-1.391l.15-11.643-.41-12.415c-.03-.79.64-1.185 2.01-1.185 1.07 0 1.58.326 1.55.978l-.78 12.468v10.818c.31.069.84.138 1.6.207.51.069 1.05.223 1.6.463.44.172.67.378.67.618 0 .722-1.03 1.082-3.09 1.082v8.607c-.04 3.88-.06 6.18-.06 6.9s-.39 1.08-1.18 1.08-1.18-.36-1.18-1.08c0-.21.02-.47.07-.8s.08-.66.08-1c-2.68-.62-4.5-1.24-5.46-1.86-1.68-1.1-2.52-2.8-2.52-5.1 0-3.23 1.3-5.476 3.91-6.747zm3.19.649c-.72.103-1.34.224-1.85.36-.65-.136-1.34.439-2.06 1.728-.72 1.29-1.08 2.46-1.08 3.53 0 .44.08.77.26.98 1.47 1.78 2.28 2.73 2.42 2.83.13.1 1.08.22 2.83.36 0-4.6-.17-7.86-.52-9.788zM76.253 65.511c.17-1.112.27-1.772.32-1.98.19-.801.5-1.476.93-2.025.32-1.186.97-1.779 1.97-1.779 1.49 0 2.24 1.226 2.24 3.677.74-.566 1.17-.849 1.29-.849.32 0 .47.127.47.379 0 .09-.59.581-1.76 1.473-.02.893-.28 1.778-.79 2.656-.62 1.116-1.43 1.674-2.43 1.674-.76 0-1.35-.334-1.77-1.001-.33-.52-.49-1.128-.49-1.825 0-.148.01-.281.02-.4zm1.29-2.152c-.32 1.183-.47 1.996-.47 2.439 0 .415.11.829.33 1.242.27.532.62.799 1.05.799.56 0 1.05-.368 1.47-1.104.29-.529.49-1.081.58-1.655-.26.103-.43.154-.52.154l-.93-.154.93.154c-1.36.015-2.18-.609-2.44-1.875zm3.24.73v-1.237c0-.427-.09-.891-.27-1.391-.25-.677-.6-1.016-1.03-1.016-.38 0-.68.265-.9.795-.18.398-.27.773-.27 1.126 0 .457.12.898.38 1.325.33.53.76.795 1.28.795.15 0 .33-.051.54-.154 0-.015.09-.096.27-.243z"/>
        <path d="M86.113 63.091a.3.3 0 0 1 .28-.156c.23 0 .34.112.34.336 0 .313-.46.521-1.37.625-.15.06-.44.12-.87.179-.12 1.744-.18 3.927-.18 6.55 0 .432.1 1.125.32 2.079.07.089-.08.164-.47.224-.31.059-.59.089-.84.089-.18 0-.29-.119-.3-.356.06-.194.09-.387.09-.58-.06-.49-.09-1.032-.09-1.626 0-1.411.1-3.46.29-6.149h-3.98c-.24 0-.47-.11-.71-.332-.24-.221-.36-.479-.36-.775 0-.325.08-.487.25-.487.07 0 .11.059.13.175.43.308.71.462.83.462h3.26c.04 0 .12-.015.22-.045.11-.03.23-.045.36-.045.39-2.796.76-4.998 1.12-6.604.83-3.659 1.74-5.489 2.72-5.489.46 0 .85.417 1.18 1.25.25.64.38 1.191.38 1.653 0 .238-.13 1.831-.38 4.778-.05.461-.21.692-.49.692-.15 0-.31-.097-.5-.291-.18-.193-.25-.342-.19-.447.02-.328.05-.79.11-1.387.26-1.878.4-3.018.4-3.421 0-1.162-.18-1.885-.53-2.168-.54 0-1.04 1.017-1.49 3.051-.44 2.035-.8 4.81-1.06 8.327.39 0 .9-.037 1.53-.112zM97.303 67.493c-.63.191-1.59.286-2.89.286-.67 0-1.31-.119-1.92-.358-.74-.297-1.12-.692-1.12-1.183 0-.64.89-1.243 2.66-1.809 1.45-.461 2.7-.707 3.75-.737l-.05-.602c0-.179-.01-.558-.04-1.139l-.03-.849c-.09-.312-.36-.521-.81-.625-.8.774-1.19 1.713-1.19 2.815 0 .105-.1.217-.28.336s-.33.179-.47.179c-.12 0-.27-.06-.45-.179s-.27-.231-.27-.335c0-.625.27-1.34.8-2.144.63-.908 1.3-1.362 2.01-1.362 1.24 0 1.86 1.213 1.86 3.638 0 .253-.01.573-.02.96s-.01.625-.01.714c0 1.265-.01 1.994-.02 2.188-.11 1.146-.38 1.719-.82 1.719-.13 0-.31-.063-.54-.189-.22-.126-.33-.234-.33-.323s.02-.244.08-.467c.05-.222.08-.4.1-.534zm.2-1.212c0-.03.03-.215.09-.555.06-.281.06-.48 0-.599l-.09-.222c-2.21.074-3.86.436-4.97 1.087a.737.737 0 0 1-.24.111l-.05.133c0 .37.77.555 2.31.555 1.4 0 2.38-.17 2.95-.51zM92.473 50.242c-1.45 0-2.92-.498-4.43-1.491-1.89-1.302-2.84-2.931-2.84-4.885 0-.925.31-2.142.93-3.651.65-1.644 1.24-2.468 1.75-2.468.07 0 .19-.093.36-.282s.34-.283.52-.283c.17 0 .25.188.25.564 0 .444-.17 1.409-.51 2.897-.34 1.487-.53 2.554-.57 3.203.41.411.72.855.93 1.334 1.44.821 2.64 1.23 3.6 1.23 1.03 0 2.13-.239 3.3-.72 1.54-.616 2.31-1.473 2.31-2.571 0-.926-.68-1.834-2.06-2.725-1.09-.618-2.21-1.235-3.34-1.852-3.74-2.468-5.61-6.548-5.61-12.239 0-3.977.6-7.885 1.8-11.725 1.48-4.8 3.44-7.2 5.88-7.2 1.78 0 3.31 1.063 4.58 3.191 1.17 1.921 1.89 4.305 2.17 7.153.17 1.647-.04 3.928-.62 6.844-.66 3.225-1.4 4.838-2.22 4.838-.48 0-.95-.085-1.39-.258-.62-.274-.93-.634-.93-1.081 0 .103.33-1.226.99-3.988s.99-4.88.99-6.356c0-1.75-.29-3.302-.88-4.658-.58-1.355-1.29-2.033-2.12-2.033-1.72 0-3.04 2.264-3.93 6.793-.24 1.201-.61 4.168-1.09 8.902-.06.514-.09 1.029-.09 1.543 0 2.23.63 3.963 1.91 5.198.58.618 1.9 1.458 3.96 2.521 1.79.927 3.01 1.922 3.66 2.985.42.514.8 1.038 1.16 1.57s.56 1.192.6 1.981c.1 2.367-1.07 4.323-3.51 5.866-1.92 1.235-3.76 1.853-5.51 1.853z"/>
        <path d="M109.803 48.874c.13-.514.31-2.489.51-5.923.21-3.434.31-6.164.31-8.19 0-.79-.02-1.357-.05-1.7l-.26-2.009c-2.34.515-4.23 3.039-5.68 7.572-1.1 3.538-1.65 6.817-1.65 9.838h-1.79c.06-2.641.01-5.986-.16-10.034-.16-3.329-.33-6.674-.5-10.036l3.19-.36-.72 10.335c2.12-6.211 4.68-9.318 7.69-9.318 1.4 0 2.1 2.626 2.1 7.875 1.64-5.082 3.67-7.623 6.09-7.623 2.4 0 3.54 5.219 3.44 15.658v5.564l-2.34.257c0-11.297-.25-17.77-.77-19.418-2.29-.309-4.02 1.991-5.18 6.902-.82 3.263-1.23 6.662-1.23 10.198l-1.71.361zM128.723 26.828l-.61 4.119v14.881l-.15 4.893c-.04.678-.61 1.017-1.71 1.017-1.14 0-1.65-.343-1.55-1.029l.72-5.25.62-15.544-.26-3.706c-.03-.514.29-.771.98-.771.51 0 .98.129 1.39.386.41.258.6.592.57 1.004zm-3.72-6.366c0-.754.19-1.397.56-1.929.38-.532.86-.798 1.44-.798.55 0 1.02.266 1.42.798.39.532.59 1.175.59 1.929 0 .79-.2 1.451-.59 1.982-.4.533-.87.798-1.42.798-.58 0-1.06-.265-1.44-.798-.37-.531-.56-1.192-.56-1.982zM135.693 16.69l-1 14.426-.24 9.325v13.912c0 .411-.27.618-.82.618-.59 0-1.18-.189-1.76-.567-.59-.378-.86-.773-.83-1.185l1.2-12.726.36-10.974-.56-13.86c0-.412.31-.618.92-.618.62 0 1.23.172 1.83.515.6.344.9.722.9 1.134zM140.343 51.199c-1.78 0-3.16-1.167-4.12-3.501-.75-1.784-1.13-3.723-1.13-5.817 0-3.054.41-5.92 1.24-8.597 1.17-3.741 2.92-5.612 5.25-5.612 1.14 0 2.12.412 2.97 1.235.84.823 1.26 1.8 1.26 2.932 0 6.652-2.78 9.996-8.35 10.03.55 4.544 1.6 6.816 3.14 6.816 1.82 0 3.49-.885 5.02-2.656 1.52-1.771 2.28-3.671 2.28-5.701 0-.653-.09-1.289-.29-1.908-.27-.825-.07-1.238.61-1.238 1.23 0 1.84.275 1.84.825 0 2.955-.86 5.806-2.57 8.554-1.96 3.092-4.34 4.638-7.15 4.638zm.79-20.507c-.82.858-1.29 1.408-1.39 1.648-.31.481-.64 1.408-.99 2.781l-.82 4.584c2.17.242 3.7-.497 4.6-2.215.59-1.098 1-2.952 1.24-5.562.07-.653-.24-.996-.93-1.03-1-.069-1.57-.137-1.71-.206z"/>
    </g>
</svg>
