<svg xmlns="http://www.w3.org/2000/svg" height="114.38" width="600" xmlns:xlink="http://www.w3.org/1999/xlink">
    <g transform="translate(-77.793 5.37)">
        <path fill="#f1471d" d="M85.813 86.543c3.48 3.396 7.764 5.955 12.576 5.955 3.054 0 7.678-.99 7.678-4.214 0-1.485-.921-2.065-1.655-2.492-1.894-.972-4.88-1.228-7.354-1.655-1.894-.324-3.89-.734-5.784-1.314-2.645-.733-5.29-1.826-7.201-3.72-1.894-1.894-3.225-4.863-3.225-8.105 0-7.098 6.126-14.47 18.19-14.47 10.17 0 16.294 4.386 19.263 6.45l-7.849 7.286c-4.061-3.156-7.85-4.3-10.835-4.3-4.965 0-6.109 1.98-6.109 3.225 0 2.475 2.73 2.97 6.86 3.703 8.685 1.587 18.752 3.908 18.752 14.145 0 10.17-10.238 15.135-20.408 15.135-11.995 0-18.19-5.784-20.92-8.344l8.02-7.286zM142.77 56.575c-14.54.444-21.866 10.476-21.866 22.874 0 15.954 11.06 22.899 23.226 22.899 16.858 0 23.151-11.978 23.151-22.899 0-7.85-3.887-21.834-21.513-22.823a34.804 34.804 0 0 0-2.998-.05zm1.335 10.077c1.82-.064 4.412.279 6.726 2.444 2.389 2.32 3.527 6.037 3.527 10.832 0 6.774-3.368 12.319-10.228 12.319-7.115 0-10.429-6.039-10.429-12.898 0-2.97.597-5.94 2.166-8.414 1.74-2.73 3.873-3.994 7.507-4.232.226-.022.471-.042.731-.05zM183.9 61.836c1.229-1.33 2.048-2.32 4.3-3.396 1.98-.836 4.778-1.57 7.849-1.57 2.56 0 5.443.495 7.678 1.741 4.54 2.389 5.7 6.28 5.7 12.968v29.519h-12.644V76.8c0-3.908-.069-5.29-.58-6.45-.973-2.32-3.226-3.31-5.7-3.31-6.706 0-6.706 5.375-6.706 10.75v23.308h-12.729V58.03H183.9v3.805zM229.2 61.836c1.229-1.33 2.065-2.32 4.3-3.396a20.845 20.845 0 0 1 7.849-1.57c2.56 0 5.46.495 7.696 1.741 4.538 2.389 5.699 6.28 5.699 12.968v29.519H242.1V76.8c0-3.908-.086-5.29-.58-6.45-.99-2.32-3.226-3.31-5.717-3.31-6.689 0-6.689 5.375-6.689 10.75v23.308h-12.729V58.03H229.2v3.805zM319.14 61.836c1.246-1.33 2.065-2.32 4.3-3.396 1.98-.836 4.795-1.57 7.849-1.57 2.56 0 5.46.495 7.696 1.741 4.538 2.389 5.699 6.28 5.699 12.968v29.519H332.04V76.8c0-3.908-.086-5.29-.58-6.45-.99-2.32-3.225-3.31-5.717-3.31-6.689 0-6.689 5.375-6.689 10.75v23.308h-12.729V58.03h12.814v3.805zM368.49 74.514l19.913 26.397h-9.265L363.49 79.974l-5.273 5.563v15.374h-7.525V44.654h7.525V75.81l17.404-18.514h9.06L368.49 74.514zM398.75 100.91h-7.132V44.653h7.132v56.257zM422.95 55.895c-7.405 0-12.496 2.98-15.09 7.81-1.4 2.576-1.593 4.987-1.763 6.574l7.784.454c0-2.321-.005-9.17 9.346-9.17 9.828 0 9.824 7.578 9.824 12.117v1.134l-6.952.529c-13.07 1.023-17.687 3.988-20.178 7.708-1.314 1.945-1.94 4.254-1.94 6.575 0 7.405 6.298 12.47 14.812 12.47 8.327 0 12.77-4.808 14.989-7.129.734 5.375 4.153 6.5 7.582 6.5 2.133 0 3.441-.458 4.636-.731v-6.399c-.649.273-1.48.454-2.419.454-3.054 0-3.038-2.11-3.124-6.273V74.335c.086-5.836.076-10.829-4.736-14.737-3.43-2.679-8.693-3.703-12.772-3.703zm10.177 23.629c0 6.399-.075 7.402-1.184 9.825-2.15 4.521-6.503 6.55-11.588 6.55-5.46 0-8.238-2.96-8.238-6.475 0-3.054 1.384-6.102 9.523-7.86 4.726-1.023 8.62-1.58 11.487-2.04zM458.32 57.293v7.968c4.163-8.241 12.03-8.429 14.999-8.514v7.951c-.921-.085-1.86-.17-3.054-.17-4.266 0-7.969 1.655-10.101 5.17-1.945 3.242-1.843 7.047-1.843 11.023v20.186h-7.406V57.293h7.406zM478.92 56.764h36.276v10.938H504.02v33.205h-13.924V67.702H478.92V56.764zM517.28 56.824h14.231l5.255 17.49c1.604 5.545 1.86 6.86 2.543 11.739.819-4.88 1.058-5.801 2.32-10.306l5.546-18.923h14.299l-14.913 44.091h-14.538L517.28 56.824zM280.69 56.525c-17.029 0-22.143 13.397-22.143 23.806 0 14.145 9.026 22.345 21.841 22.345 6.928 0 12.554-2.64 16.274-6.122 1.638-1.501 2.854-3.081 3.98-4.685l-9.295-4.938c-1.638 2.799-4.26 5.895-9.976 5.895-6.877 0-9.935-5.382-9.85-10.757h30.834c-.154-4.863-.49-13.28-6.121-19.322-5.529-5.955-12.984-6.222-15.543-6.222zm-.075 9.094c2.235 0 4.627.849 6.197 2.419 1.825 1.894 2.154 4.287 2.393 6.096h-17.61c.41-1.809.83-3.782 2.57-5.693 1.246-1.331 3.395-2.822 6.45-2.822zM479.79 95.831a5.837 5.837 0 0 1-5.853 5.836c-3.208 0-5.818-2.611-5.818-5.836s2.61-5.836 5.818-5.836a5.837 5.837 0 0 1 5.853 5.836M204.24 25.262l-13.139-11.671-6.416 6.416L196.646 32.6a17.8 17.8 0 0 1 7.593-7.337"/>
        <path fill="#fff200" d="M229.88 41.076a17.74 17.74 0 0 1-1.467 7.064h44.074l-.273-19.759-43.29 6.962a17.35 17.35 0 0 1 .956 5.733"/>
        <path fill="#f57c14" d="M212.18 23.382c2.184 0 4.266.392 6.194 1.11l2.235-28.838h-18.036l2.184 29.366a17.438 17.438 0 0 1 7.423-1.638"/>
        <path fill="#fab20b" d="M228.85 35.121l30.185-26.653L245.18-5.37l-26.687 29.912a17.768 17.768 0 0 1 10.357 10.579"/>
        <path fill="#ce1f26" d="M196.6 32.536l-14.094-.631-.768 7.252 13.838 1.808a14.443 14.443 0 0 1 1.024-8.429"/>
        <rect rx=".782" ry="1.933" height="60.461" width="104.8" y="48.548" x="572.99" fill="#0c4da2"/>
        <path d="M620.37 101.72h-11.257V81.509h-16.622v20.211h-11.257V55.846h11.257v16.791h16.622V55.846h11.257v45.874M669.56 78.825c0 4.272-.915 8.103-2.746 11.492-1.83 3.368-4.143 5.956-6.938 7.764a20.514 20.514 0 0 1-6.908 2.834c-2.506.534-5.473.801-8.904.801h-15.176V55.842h15.61c3.508 0 6.533.319 9.077.955 2.544.617 4.683 1.5 6.417 2.65 2.968 1.93 5.3 4.54 6.996 7.825 1.715 3.266 2.572 7.117 2.572 11.553m-11.475-.092c0-3.02-.52-5.597-1.561-7.733-1.022-2.157-2.65-3.84-4.886-5.053a11.826 11.826 0 0 0-3.497-1.201c-1.176-.226-2.959-.34-5.348-.34h-2.804v28.715h2.804c2.64 0 4.577-.123 5.81-.37a12.515 12.515 0 0 0 3.613-1.417c2.024-1.232 3.508-2.876 4.452-4.93.944-2.074 1.416-4.631 1.416-7.67" fill="#FFF"/>
    </g>
    <g transform="translate(253.05 -841.818)">
        <use xlink:href="#id274" transform="matrix(24.45358 0 0 -25.38688 -701.859 591.259)" height="1052.362" width="744.094"/>
        <use xlink:href="#id402" transform="matrix(29.77977 0 0 -29.77977 -359.581 1047.834)" height="1052.362" width="744.094"/>
    </g>
</svg>
