<svg width="200mm" height="27.884mm" version="1.1" viewBox="0 0 200 27.884" xmlns="http://www.w3.org/2000/svg">
 <g transform="translate(204.26 -114.4)">
  <path d="m-29.662 118.2h3.5757l0.01066 20.461h-3.5944z" fill="#9d9d97" stroke-width=".26764"/>
  <path d="m-22.435 118.2h3.5757l0.01072 20.461h-3.5944z" fill="#cececc" stroke-width=".26764"/>
  <path d="m-15.075 118.2h3.474l-0.01873 20.461h-3.391z" fill="#fefefe" stroke-width=".26764"/>
  <g transform="matrix(.26764 0 0 .26764 -204.26 114.4)" fill="#808080">
   <path d="m551.02 0v23.63h26.88v22.79h-26.88c0.49 8.27-1.83 17.43 2.51 24.98 5.36 7.86 15.86 8.34 24.47 8.5l-0.02 23.72c-12.03 0.02-24.54-1.41-35.07-7.67-8.38-5-14.62-13.48-16.7-23.02-2.06-8.79-1.2-17.57-1.38-26.51h-10.49v-22.79h10.49v-8.69z"/>
   <path d="m611.78 14.21h26.85v27.22h27.113v22.421h-27.113v26.809h-26.85v-26.809h-27.58v-22.421h27.58z"/>
   <path d="m6.7 33.47c5.64-6.98 14.62-10.42 23.35-11.22 12.46-0.95 24.28 4.68 34.23 11.67l-16.26 14.43c-4.13-2.95-8.55-6.49-13.96-6.05-3.25-0.12-7.92 1.49-7.43 5.51 0.23 3.58 4.47 4.48 7.38 4.63 8.75 0.4 17.81 3 24.23 9.23 6.72 6.56 8 17.36 4.39 25.8-3.62 7.69-10.92 13.49-19.12 15.58-15.17 3.46-31.63-1.22-43.51-11.04l15.16-15.44c5.61 3.37 11.35 8.77 18.45 7.11 3.06-0.27 6.99-3.16 5.36-6.58-2.58-3.25-7.1-3.47-10.9-3.95-8.11-0.99-16.85-3.5-22.13-10.18-6.4-8.5-5.99-21.31 0.76-29.5z"/>
   <path d="m268.51 22.53c13.58-1.74 27.87 2.64 37.99 11.89 8.92 8.09 14.19 20.32 12.91 32.41-1.68 18.83-18.54 33.78-36.73 36.47-14.8 2.61-30.86-1.79-41.59-12.48-7.51-7.22-12.23-17.5-11.93-28-0.07-8.26 2.86-16.44 8.05-22.86 7.47-9.8 19.16-15.92 31.3-17.43m2.98 23.85c-7.84 1.1-14.89 7.42-15.85 15.43-0.77 7.78 5.15 14.9 12.3 17.23 10.29 3.82 23.73-2.79 25.09-14.15 1.31-11.32-10.81-20.65-21.54-18.51z"/>
   <path d="m423.22 39c6.98-9.97 18.77-16.03 30.85-16.72 9.13-0.94 17.76 2.9 25.76 6.81l-0.05-5.5402h25.53v79.17h-25.8l0.13-5.5598c-4.74 1.99-9.21 4.75-14.3 5.76-12.84 2.56-26.87-0.89-36.64-9.72-14.97-13.35-17.12-38.06-5.48-54.2m32.19 8.09c-5.67 1.67-10.77 6.03-12.42 11.82-1.17 4.57-0.4 9.71 2.49 13.51 4.9 6.8 14.35 9.4 22.24 7.02 8.64-2.32 15.5-11.89 12.49-20.82-3.22-9.93-15.25-14.55-24.8-11.53z"/>
   <path d="m104.44 23.31c11.69-2.39 24.41-0.82 34.68 5.45 7.46 4.27 13.48 10.85 17.39 18.47 4.25 9.25 4.69 20.28 0.74 29.7-4.67 12.17-15.72 21.06-27.95 24.94-12.39 3.63-26.29 2.67-37.7-3.57-11.36-6.07-20.37-17.44-21.8-30.45-1.12-9.27 1.27-18.97 6.77-26.55 6.58-9.21 16.75-15.82 27.87-17.99m3.12 24.18c-6.6 2.57-11.9 9.04-11.61 16.34 0.55 7.84 6.99 14.35 14.58 15.8 10.84 2.89 24.07-6.04 22.94-17.82-1.35-11.75-15.28-18.84-25.91-14.32z"/>
   <path d="m208.5 25.34c5.74-1.92 11.79-2.95 17.86-2.86l-0.03 23.56c-8.32 0.4-17.65 1.02-24.07 6.98-4.55 4.29-5.49 10.86-5.39 16.81l0.02 32.83-25.7 0.03-0.04-78.96h25.68l-0.07 7.5302c3.9-1.98 7.53-4.58 11.74-5.92z"/>
   <path d="m325.57 23.54 87.14 0.06-44.09 56.44 41.22 0.12v22.51l-87.97-0.03 43.68-56.75-39.98-0.07z"/>
  </g>
  <path d="m-7.8141 125.48h3.5168l0.03479 6.0008h-3.5516z" fill="#fefefe" stroke-width=".26764"/>
  <path d="m-22.435 125.48h3.5757l0.01072 6.0008h-3.5944z" fill="#9c9c98" stroke-width=".26764"/>
  <path d="m-15.075 125.48h3.474l-0.01873 6.0008h-3.391z" fill="#cececc" stroke-width=".26764"/>
 </g>
</svg>
