<?xml version="1.0" encoding="UTF-8" standalone="no"?>
<svg id="svg2" xmlns:rdf="http://www.w3.org/1999/02/22-rdf-syntax-ns#" xmlns="http://www.w3.org/2000/svg" height="963.86" viewBox="0 0 998.32233 963.8573" width="998.32" version="1.1" xmlns:cc="http://creativecommons.org/ns#" xmlns:dc="http://purl.org/dc/elements/1.1/">
 <path id="path4138" fill="#008500" d="m108.44 963.15c-39.284-4.56-69.179-24.55-87.889-58.77-15.274-27.93-18.368-70.54-7.534-103.75 4.7158-14.453 8.2203-21.614 16.359-33.426 19.441-28.215 51.095-45.716 88.861-49.13 25.4-2.296 49.785 1.8193 68.673 11.59 14.455 7.477 14.656 7.8706 14.656 28.716 0 9.6132-0.57964 18.497-1.294 19.831-2.2096 4.1286-7.4714 2.9467-17.108-3.8428-11.563-8.1463-23.686-13.219-37.245-15.583-13.627-2.3763-17.507-2.3781-31.377-0.014-30.213 5.1497-50.71 25.474-57.337 56.858-3.0504 14.445-3.5184 28.337-1.4187 42.114 4.872 31.967 19.94 53.054 45.154 63.189 9.7925 3.9362 10.415 4.0201 30 4.046 18.735 0.025 20.7-0.2031 31.069-3.6013 6.462-2.118 14.932-6.1498 20.351-9.6875 9.3195-6.0838 14.776-7.4891 17.705-4.5598 1.9282 1.9282 2.0398 28.448 0.1373 32.623-3.2096 7.0443-26.738 18.324-44.779 21.468-12.727 2.2176-36.218 3.1837-46.983 1.9322zm223.75-0.01c-31.924-3.6944-60.2-18.969-79.348-42.863-8.4463-10.54-17.99-30.128-22.063-45.281-3.0484-11.342-3.3688-14.643-3.4585-35.625-0.0937-21.93 0.0876-23.771 3.5108-35.625 6.1458-21.282 16.224-38.606 30.814-52.968 7.5773-7.4587 23.667-18.474 33.045-22.623 54.264-24.01 121.43-5.9331 151.27 40.711 14.97 23.401 20.271 45.197 18.972 78.006-0.59634 15.067-1.3576 20.34-4.5118 31.25-11.022 38.127-35.258 65.084-70.086 77.956-16.753 6.1917-40.621 9.0908-58.146 7.0627zm33.056-38.952c9.0935-1.9426 22.05-9.5236 28.686-16.785 8.015-8.7697 13.147-18.116 17.27-31.45 3.2188-10.411 3.3869-12.232 3.3772-36.582-0.01-24.154-0.19672-26.205-3.2591-35.729-5.7414-17.856-15.049-30.94-27.683-38.916-20.057-12.662-53.287-13.021-74.139-0.8019-9.1363 5.3538-17.467 14.741-22.876 25.778-8.177 16.685-9.4339 23.226-9.424 49.044 0.007 19.913 0.35221 23.722 2.997 33.125 11.829 42.056 43.084 61.282 85.051 52.317zm321.94 39c-21.807-2.7982-41.511-13.805-53.846-30.078-13.273-17.511-21.094-37.15-24.933-62.611-1.182-7.8386-2.5028-14.632-2.9351-15.096-0.43229-0.4642-12.036-0.9945-25.786-1.1785l-25-0.3346 0.48585 49.96c0.26721 27.478 0.0886 51.212-0.39674 52.741-0.86635 2.7296-1.2705 2.7808-21.975 2.7808-11.773 0-21.412-0.5177-21.816-1.1717-1.4535-2.3519-0.72464-230.39 0.74204-232.15 2.1674-2.6115 40.181-2.3953 42.369 0.2409 1.2504 1.5066 1.4453 11.399 0.9115 46.25l-0.67911 44.334h26.004 26.004l1.484-9.0625c4.1952-25.62 17.566-51.478 34.929-67.554 10.015-9.2725 17.846-13.728 32.563-18.526 10.407-3.3931 13.651-3.8781 26.25-3.924 39.886-0.1453 68.74 20.523 83.561 59.857 5.3586 14.22 6.1776 17.268 8.1863 30.459 3 19.702 3.4322 29.8 2.046 47.799-1.6696 21.679-3.7728 31.638-10.098 47.815-10.296 26.334-24.984 42.794-46.821 52.473-13.915 6.167-35.098 9.0517-51.25 6.979zm30.234-37.802c9.0438-3.326 18.829-14.07 23.887-26.227 6.6726-16.039 8.3921-28.191 8.283-58.537-0.11262-31.315-2.3349-44.973-9.865-60.629-8.5088-17.69-20.628-25.622-39.148-25.62-22.493 0-37.638 14.796-45.428 44.374-2.7533 10.455-2.9595 13.504-2.9163 43.125 0.0512 35.127 1.1722 42.336 9.2758 59.654 10.797 23.075 32.668 32.408 55.911 23.86zm170.39 38.192c-21.486-1.9382-39.882-6.551-53.35-13.377-9.6681-4.9002-10.4-6.5094-10.4-22.879 0-7.6971 0.34143-14.884 0.75874-15.972 1.133-2.9526 5.5453-2.3957 11.139 1.4059 15.359 10.439 31.989 15.296 55.603 16.239 14.842 0.5929 18.111 0.3402 27.137-2.0974 21.292-5.7501 30.771-16.54 30.771-35.025 0-25.053-14.581-33.285-63.245-35.709-18.811-0.9371-18.413-0.6096-18.413-15.18 0-14.709 0.11088-14.796 20.25-15.849 35.236-1.8423 51.493-9.7984 56.713-27.754 4.5601-15.686-0.14162-30.585-11.878-37.641-8.8771-5.3362-17.89-7.0417-33.535-6.3459-11.574 0.5147-13.682 0.9964-21.177 4.838-6.2313 3.1939-9.7598 6.105-14.036 11.58-7.0144 8.9812-10.044 10.712-18.837 10.763-12.703 0.073-19.804-7.7425-18.331-20.177 0.95005-8.0217 3.672-12.815 12.016-21.159 8.6424-8.6424 19.126-14.11 34.967-18.237 10.493-2.7333 14.599-3.1189 33.222-3.1189 18.619 0 22.731 0.3859 33.212 3.1164 29.975 7.8088 46.069 22.811 50.12 46.719 1.924 11.354 0.04 24.95-4.8707 35.158-6.7927 14.119-24.655 28.178-41.626 32.762l-5.5852 1.5088 9.375 2.3622c20.539 5.1752 34.544 15.409 42.152 30.802l4.7234 9.5571v17.565c0 17.073-0.1088 17.792-3.8829 25.69-9.5206 19.922-29.866 33.32-57.766 38.038-11.561 1.9552-35.917 3.257-45.226 2.4172zm-804.06-311.23c-6.5489-1.9729 1.2163-6.6101 19.687-11.757 26.193-7.2983 103.43-23.653 144.1-30.513 94.536-15.946 164.84-21.347 276.53-21.245 74.571 0.068 118 1.9419 173.12 7.4687 50.829 5.0961 111.74 14.346 163.75 24.867 4.8125 0.9735 18.312 3.5847 30 5.8027 41.259 7.8297 56.875 12.259 56.875 16.131 0 4.3867-33.503 4.7052-77.5 0.7367-37.946-3.4226-95.237-6.9149-136.88-8.3435-60.278-2.0681-374.37-2.1718-417.5-0.1379-62.505 2.9478-99.858 6.0151-172.5 14.165-22.397 2.5127-55.52 4.0803-59.687 2.8248zm811.82-55.53c-25.822-4.648-48.718-22.193-60.761-46.561-11.056-22.37-12.38-42.927-3.8573-59.894 1.6548-3.2947 2.7387-5.9903 2.4086-5.9903-0.33011 0-2.6975 1.3687-5.2609 3.0415-5.591 3.6486-17.846 6.9585-25.765 6.9585-7.4721 0-17.061-3.708-23.738-9.1792-5.8776-4.8163-17.593-20.971-19.801-27.304l-1.4083-4.0398-1.5538 7.6171c-2.0522 10.06-6.5088 20.88-13.082 31.759-8.8704 14.681-19.87 24.264-35.001 30.492-26.658 10.973-56.918 8.2745-76.98-6.8653-7.5499-5.6978-10.103-9.5376-16.285-24.488-4.2568-10.296-4.6039-12.087-4.6966-24.242-0.0891-11.689 0.26039-13.894 3.1939-20.15 6.9319-14.784 20.029-24.183 33.697-24.183 5.6054 0 8.2578 0.7557 13.141 3.7437 14.328 8.767 15.736 27.305 2.5192 33.152-7.6509 3.3843-12.833 1.3424-15.062-5.9356-1.2191-3.98 3.385-8.4466 6.8146-6.6111 1.3592 0.7274 2.4714 1.9342 2.4714 2.6817 0 0.8746-0.68728 0.7887-1.928-0.241-1.3482-1.1189-2.3232-1.2048-3.2422-0.2858-2.182 2.182-0.64478 5.8278 2.9974 7.1086 2.752 0.9678 4.1052 0.7017 6.8628-1.3499 2.734-2.034 3.5123-3.7299 3.8136-8.3102 1.1338-17.232-21.17-23.366-34.377-9.4553-9.0194 9.5001-11.805 21.55-8.0502 34.819 8.7238 30.827 38.956 41.85 72.674 26.498 17.241-7.8498 29.082-25.185 33.886-49.606 2.357-11.982 2.1001-40.709-0.503-56.25-2.1005-12.54-8.2082-33.657-11.346-39.228l-1.6773-2.978-1.43 4.102c-0.78647 2.2561-1.43 10.505-1.43 18.331 0 9.4828-0.59374 15.65-1.7801 18.489-1.8018 4.3122-1.8615 4.3398-13.22 6.1195-1.0312 0.1616 1.1072 1.031 4.7522 1.932 4.9798 1.2309 6.53 2.147 6.2361 3.6855-0.33587 1.7585-3.2104 2.1476-20.377 2.7583-21.62 0.7691-20.826 0.5744-33.88 8.308-17.396 10.306-43.52 14.575-61.146 9.9912l-6.2099-1.6147 6.0086 6.0013c13.113 13.097 17.996 33.611 12.134 50.978-4.4505 13.187-16.451 29.46-29.336 39.781-10.005 8.014-19.149 13.043-31.307 17.22-8.9736 3.0829-11.732 3.4358-26.875 3.4387-15.067 0-18.013-0.3686-27.5-3.4668-14.762-4.8211-24.465-10.403-39.112-22.503-10.613-8.767-26.111-31.225-30.867-44.73-2.5385-7.2083-3.0362-6.2583-4.3925 8.3839-0.5376 5.8037-2.0572 11.357-4.5131 16.492-7.1676 14.986-26.542 28.839-47.058 33.648-10.452 2.45-34.864 1.7653-45.833-1.2856-30.362-8.4442-56.572-30.433-72.614-60.919-4.3238-8.2166-6.8167-11.875-6.8338-10.029-0.0147 1.5984-2.5259 6.7693-5.5804 11.491-11.577 17.897-23.212 25.56-38.462 25.334-8.7605-0.13-19.398-2.9588-24.734-6.5775-6.1669-4.1819-6.4508-4.0729-3.6514 1.4028 6.2337 12.194 7.6118 25.212 4.3235 40.844-5.2765 25.084-22.744 47.984-44.884 58.843-14.589 7.1558-22.699 8.8837-41.594 8.862-26.146-0.03-40.089-4.6351-53.762-17.755-22.033-21.09-30.896-40.29-30.789-66.59 0.12046-29.5 13.522-58.16 40.196-85.96 13.161-13.72 36.58-32.02 53.271-41.63 27.482-15.82 46.002-32.2 61.042-54.02l5.9285-8.5985 0.014-21.772 0.014-21.772-6.3239-0.3779c-5.7732-0.3449-6.3238-0.6442-6.3238-3.4375 0-2.8345 0.45574-3.0596 6.1929-3.0596h6.1929l0.36961-8.4375 0.36961-8.4375h4.375 4.375l0.36961 8.4375 0.36962 8.4375h6.8179c6.4391 0 6.8179 0.1736 6.8179 3.125 0 2.9545-0.375 3.125-6.875 3.125h-6.875v21.332c0 13.637 0.51768 22.317 1.4351 24.062 6.4965 12.36 24.709 37.082 36.084 48.98 7.2293 7.5625 14.873 15.95 16.987 18.638l3.843 4.888 0.82607-17.388c0.45435-9.5634 1.6206-21.356 2.5916-26.207 2.9042-14.506 20.873-49.571 35.194-68.681 16.87-22.511 64.771-63.836 108.66-93.746 31.411-21.404 59.007-46.634 84.104-76.89 15.701-18.929 16.33-20.01 20.794-35.734 2.635-9.2823 3.2275-14.044 3.2275-25.938v-14.568h-10-10v-5.625-5.625h9.9563 9.9563l0.35623-12.812 0.35-12.81h6.875 6.875l0.17922 12.5 0.17922 12.5 10.758 0.3611 10.758 0.3612v5.5763 5.5764h-10.938-10.938l0.74227 16.565c0.6839 15.262 2.97 27.459 7.2636 38.752 2.3491 6.1786 22.393 29.648 42.526 49.794 20.724 20.737 32.972 31.287 49.945 43.019 64.537 44.61 98.936 75.465 121.94 109.38 8.8102 12.987 21.736 39.194 26.819 54.375 4.8219 14.401 9.6982 39.117 10.77 54.586l0.83719 12.086 4.3975-8.2892c5.6394-10.63 12.896-19.916 24.134-30.882 14.115-13.774 26.684-31.857 36.363-52.316 3.5188-7.4379 3.6354-8.2957 3.6363-26.747l0.00099-19.062h-6.875c-6.5 0-6.875-0.1704-6.875-3.125 0-2.9545 0.375-3.125 6.875-3.125h6.875v-8.75-8.75h4.375 4.375v8.75 8.75h7.5c7.1259 0 7.5 0.1528 7.5 3.0626 0 2.8516-0.49521 3.0885-7.1875 3.4375l-7.1875 0.3749v19.462 19.462l4.8567 9.2881c2.6712 5.1085 6.4854 11.665 8.476 14.569 8.1887 11.949 26.912 27.346 50.307 41.369 53.564 32.108 85.702 69.018 95.428 109.6 2.5591 10.677 2.7756 31.112 0.4305 40.625-3.731 15.134-13.147 30.536-27.138 44.392-9.686 9.5923-17.776 14.427-29.4 17.571-8.3672 2.2629-35.728 3.3265-44.58 1.733zm-792.13-23.68c17.241-2.8014 38.223-17.907 45.931-33.069 3.5809-7.0433 3.8568-8.5343 3.9455-21.323 0.0857-12.367-0.23764-14.463-3.2161-20.844-4.4839-9.6055-12.251-17.694-21.364-22.248-6.4325-3.2144-8.9982-3.7833-17.059-3.7824-15.203 0.001-27.006 6.7717-33.494 19.211-3.1222 5.9863-2.9325 19.661 0.33373 24.047 4.5835 6.1552 8.7413 8.4244 15.617 8.5235 5.6839 0.082 6.7818-0.3548 10.032-3.9903 4.7369-5.2991 4.8449-10.421 0.2951-14-3.804-2.9922-6.3779-2.9107-8.3779 0.265-1.0278 1.6321-0.94851 2.8943 0.31414 5l1.689 2.8169-2.8324-2.7316c-2.7143-2.6175-2.7448-2.8652-0.73181-5.9375 4.5338-6.9195 15.793-1.8026 15.793 7.1774 0 5.4388-4.464 12.115-10.025 14.993-8.2821 4.2862-22.711-0.1003-28.278-8.5968-1.1623-1.7739-3.1281-6.1344-4.3685-9.6899l-2.2552-6.4645 0.27562 11.581c0.23891 10.039-0.013 11.672-1.8921 12.265-2.2304 0.7047-10.957 10.608-10.957 12.434 0 1.311-3.8549 5.5947-5.0347 5.5947-0.49347 0-1.2399-2.6719-1.6586-5.9375-0.41879-3.2657-1.1234-7.8114-1.5658-10.102-0.44242-2.2903-0.21054-5.3841 0.5153-6.875 0.72584-1.491 1.9945-4.9608 2.8193-7.7108 2.4866-8.2909 8.4958-19.572 14.527-27.272l5.6962-7.2722-4.5744 0.8582c-6.2886 1.1797-14.78-1.4412-19.025-5.8722-2.6342-2.7496-3.6785-5.2993-4.1694-10.18l-0.6549-6.5116-2.9041 4.6707c-5.8116 9.3471-9.1734 22.886-9.8585 39.704-0.59204 14.535-0.40335 16.323 2.7044 25.625 6.6628 19.944 20.822 36.215 36.297 41.711 13.391 4.7561 24.966 5.9689 37.511 3.9306zm828.59-3.3116c7.8498-2.8119 11.29-4.9217 17.004-10.428 9.1722-8.8385 15.417-18.654 19.381-30.463 6.6147-19.705 2.3318-54.849-8.3847-68.803-1.6655-2.1686-1.8226-1.8705-1.9056 3.6167-0.1059 7.0155-2.8969 11.494-9.1497 14.682-4.9008 2.499-15.022 2.8864-19.056 0.7292-2.0595-1.1014-1.693-0.2783 1.4919 3.3504 10.086 11.491 17.355 27.139 20.202 43.49 1.235 7.0919 1.0854 8.9875-1.3387 16.969-3.0682 10.101-4.3812 10.244-8.532 0.924-1.2609-2.831-4.0961-7.0662-6.3004-9.4116l-4.0079-4.2642 1.4805-11.762c1.7261-13.713 1.0224-24.734-1.9055-29.84l-2.06-3.62 1.0024 3.75c1.8066 6.7586 1.0815 22.154-1.2492 26.522-6.5337 12.246-21.179 17.647-32.046 11.818-4.7393-2.5417-8.8271-9.0669-8.8271-14.09 0-9.6733 14.138-14.75 16.894-6.0669 0.85284 2.6871-1.2042 6.2049-3.6092 6.1722-0.84664-0.011-0.74185-0.4423 0.26241-1.0788 0.91953-0.5829 1.482-2.4024 1.25-4.0434-0.59156-4.1838-6.1575-4.727-9.6812-0.9448-3.7889 4.0669-3.2756 8.1762 1.6344 13.086 5.5156 5.5156 12.632 5.8845 19.653 1.0187 6.5978-4.5722 9.0676-10.405 8.2454-19.473-1.6585-18.291-19.124-31.324-39.5-29.477-13.801 1.2514-28.247 12.221-34.607 26.278-3.1207 6.8976-3.5153 9.2-3.4859 20.341 0.048 18.206 4.4142 27.188 19.481 40.078 6.9503 5.9459 18.617 12.132 26.737 14.176 2.6686 0.6719 10.758 1.0115 17.977 0.7548 10.425-0.3708 15.15-1.1921 22.966-3.9919zm-395.72-51.17c24.677-5.0435 49.08-22.116 57.484-40.215 2.7662-5.9571 3.332-8.92 3.2982-17.269-0.037-9.1178-0.45849-10.845-4.4233-18.125-5.1621-9.4785-13.044-15.56-21.883-16.886-13.326-1.9983-25.466 6.6942-25.466 18.234 0 10.725 11.016 17.714 17.577 11.153 2.9925-2.9925 2.7806-7.1941-0.46257-9.1705-1.8095-1.1026-2.649-0.8786-4.2059 1.1224-1.0699 1.375-1.7066 1.6964-1.4149 0.7143 1.059-3.5658 4.433-4.5196 7.1834-2.0305 5.0863 4.603 1.9019 12.5-5.6086 13.909-13.778 2.5848-21.807-14.863-13.133-28.54 4.5243-7.1341 11.504-10.956 21.697-11.88l7.438-0.6745-7.1336-3.5512c-13.183-6.5624-22.076-13.976-37.232-31.037-33.65-37.88-62.618-67.739-71.592-73.794-11.369-7.6716-22.939-12.9-38.017-17.178-10.715-3.0403-13.938-3.3877-30.721-3.3111-20.103 0.092-26.833 1.5724-38.668 8.5082-7.0094 4.1078-17.28 15.242-21.205 22.989-2.9201 5.7625-3.252 7.8292-3.252 20.248 0 15.823 2.8663 26.885 8.5366 32.945 5.9665 6.3768 17.558 14.641 26.168 18.656 7.5527 3.5222 9.6446 3.9307 20.296 3.9636 10.416 0.032 12.797-0.392 19.375-3.4515 13.446-6.2532 24.375-19.962 24.375-30.574 0-6.2387-5.4224-17.028-10.306-20.505-2.3711-1.6884-6.3742-2.9447-10.463-3.2838-6.0629-0.5028-6.9446-0.2276-10.427 3.2549-4.356 4.3561-5.1048 10.487-1.7354 14.21 4.0222 4.4446 11.186 2.2101 10.158-3.1682-0.33856-1.7711-0.13432-2.9228 0.45386-2.5592 1.7746 1.0967 1.2042 5.7926-0.99931 8.2274-4.5382 5.0147-14.237 1.5672-16.715-5.9414-4.0953-12.409 10.681-24.96 25.627-21.768 8.7397 1.8666 14.954 6.3687 19.407 14.059l3.799 6.5609-0.84752-5.5511c-0.46614-3.0531-1.5987-6.9906-2.5168-8.75-1.6276-3.1191-1.5603-3.2086 2.6979-3.5869 2.4019-0.2134 4.3458-0.7759 4.3197-1.25s-2.2452-2.3816-4.9314-4.2388c-6.4978-4.4926-8.976-8.5595-9.4092-15.441-0.19754-3.1383-1.2734-6.7162-2.3907-7.9508-1.2052-1.3318-1.6898-3.1355-1.1913-4.4345 0.71149-1.8541 2.0837-2.1104 8.9547-1.6729 7.1788 0.4571 8.4541 0.941 11.06 4.1963 4.6883 5.8578 8.4488 18.69 8.4044 28.68-0.0556 12.519-4.135 24.453-17.697 51.771-3.2941 6.6355-11.777 15.308-19.536 19.972-7.3422 4.4136-21.037 8.8489-27.564 8.9269-3.2672 0.039-2.8943 0.3628 2.7631 2.3989 13.803 4.968 24.161 16.137 28.335 30.554l1.4717 5.0832 1.5461-11.612c2.5886-19.443 8.7613-31.38 23.22-44.906 33.388-31.233 82.315-27.309 99.696 7.9967 5.4945 11.161 6.1929 21.59 2.0495 30.604-6.2324 13.559-14.883 19.835-27.336 19.835-12.103 0-19.898-7.008-19.898-17.889 0-9.0263 11.16-15.772 16.786-10.146 1.0804 1.0803 1.9643 2.6117 1.9643 3.4031s-0.87565 0.1887-1.9459-1.3393c-3.9672-5.6639-12.922-1.9774-14.938 6.1497-0.8513 3.4316 1.4052 9.1647 5.0362 12.796 6.502 6.502 22.103 4.462 29.396-3.8439 9.4057-10.712 10.802-20.962 4.6787-34.338-6.429-14.043-17.373-22.288-33.178-24.999-31.503-5.4022-63.028 17.054-70.918 50.515-3.9174 16.615-1.8415 29.184 7.2021 43.607 20.733 33.067 58.785 49.408 96.908 41.616zm-24.035-85.897c0.46942-1.2328 1.1684-1.9266 1.5532-1.5417 0.38486 0.3849 0.0008 1.3935-0.85348 2.2414-1.2345 1.2253-1.3781 1.0818-0.69975-0.6997zm-115.71-80.1c0-0.2595 0.98437-1.2439 2.1875-2.1875 1.9826-1.5548 2.0268-1.5106 0.47195 0.472-1.633 2.0822-2.6594 2.7443-2.6594 1.7155zm-22.087 147.88c10.035-3.8942 18.767-12.088 24.04-22.559 4.0101-7.963 4.2971-9.3389 4.2971-20.6 0-11.167-0.28484-12.564-3.8206-18.744-10.777-18.836-32.719-24.138-42.581-10.289-6.6125 9.2864-2.3736 23.537 7.001 23.537 2.8911 0 8.2594-5.7613 7.4161-7.959-1.2295-3.204-4.2741-3.455-5.5513-0.4577-1.1673 2.7395-1.184 2.7335-0.88952-0.3206 0.37319-3.8708 3.9916-4.7687 7.268-1.8036 4.5813 4.146 2.3195 10.91-4.6171 13.809-3.9209 1.6383-4.8317 1.5812-9.794-0.6139-7.4026-3.2745-10.057-7.6435-10.057-16.554 0-5.914 0.64727-8.0622 3.7829-12.555 3.4419-4.9315 10.043-9.3627 17.467-11.725 1.7842-0.5676-0.10225-1.4647-6.5881-3.1329-29.874-7.6837-47.105-26.133-53.915-57.728-3.6959-17.147-3.1831-28.414 1.8892-41.512 1.5213-3.9282-9.8836 4.8799-18.734 14.468-17.157 18.588-26.611 41.346-29.01 69.834l-0.89472 10.625 7.6883-7.7356c4.2286-4.2545 7.6883-7.1889 7.6883-6.5209s-1.3351 3.8678-2.9669 7.1105c-6.8764 13.665-11.832 34.021-8.2831 34.021 0.6875 0 1.25-1.8667 1.25-4.1482 0-6.8023 3.3317-15.914 9.3413-25.548 4.3503-6.9737 5.6684-10.298 5.7006-14.375l0.0419-5.3039 2.553 7.4241c1.4042 4.0833 3.3541 8.5679 4.3331 9.9657 2.1645 3.0902 2.3003 7.2149 0.30345 9.2118-0.81218 0.8122-1.8822 4.916-2.3778 9.1195-0.7777 6.5958-1.4744 8.1261-5.0858 11.17-3.3548 2.8281-3.8765 3.8439-2.6309 5.1218 1.2428 1.275 1.0115 2.1713-1.1554 4.4778l-2.7092 2.8838h2.8534c2.4261 0 2.7349 0.4721 2.0622 3.1524-0.54471 2.1703-0.22129 3.3712 1.0381 3.8544 1.0061 0.3861 2.198 2.3805 2.6486 4.4321 0.45059 2.0515 1.5886 4.0252 2.5288 4.386 2.6637 1.0222 3.3662 5.0112 1.696 9.6301-4.7274 13.073 17.409 29.07 47.679 34.457 11.262 2.0038 30.677 0.7586 39.093-2.5073zm-172.29-25.39c7.657-3.6199 12.098-8.2081 15.87-16.396 4.0041-8.691 3.9491-25.534-0.11738-35.94-8.1535-20.865-27.35-32.771-52.628-32.639-10.09 0.053-13.087 0.5795-19.943 3.5063-15.039 6.4211-29.41 19.986-43.863 41.405-7.711 11.427-20.147 34.293-18.651 34.293 0.58244 0 1.4132-0.5732 1.8462-1.2738 1.3833-2.2382 12.264-7.1184 19.109-8.5708 16.107-3.4175 34.017 0.6131 47.438 10.676 3.7061 2.7786 5.5471 2.6149 3.0232-0.2689-1.8252-2.0855-3.9616-11.296-3.9333-16.958 0.074-14.784 13.577-26.802 27.235-24.24 9.479 1.7783 15.63 13.65 10.587 20.435-3.2942 4.4324-9.3808 5.1302-12.01 1.3769-2.0772-2.9657-1.6359-5.6036 1.114-6.6588 1.4157-0.5433 1.4805-0.2277 0.33108 1.6127-3.2934 5.2737 3.0518 8.715 7.9296 4.3006 5.1375-4.6493 1.4524-14.469-6.2896-16.76-10.513-3.1107-20.175 4.7583-20.175 16.432 0 7.7814 1.3624 11.129 7.1317 17.522 9.3258 10.335 24.228 13.707 35.993 8.1452zm617.03 1.0692c12.183-4.1512 19.847-14.141 19.832-25.853-0.0137-11.011-5.6971-17.108-16.025-17.193-4.3449-0.036-6.1273 0.6743-9.0625 3.6095-3.5785 3.5785-4.7817 8.9747-2.6972 12.096 1.5075 2.2577 6.2298 4.2915 8.2046 3.5337 2.7854-1.0688 3.441-5.3445 1.035-6.749-1.1392-0.6649-1.4806-1.2261-0.75875-1.247 1.7935-0.052 4.3125 2.6105 4.3125 4.5582 0 0.8779-1.4096 2.5197-3.1324 3.6485-2.5917 1.6982-3.7504 1.7965-6.7128 0.5694-7.6745-3.1789-7.9848-13.57-0.59882-20.055 3.7092-3.2567 5.252-3.7588 11.55-3.7588 6.1254 0 8.1001 0.602 12.552 3.8271 9.6174 6.9668 12.716 20.49 7.712 33.66-1.309 3.4448-2.1152 6.2634-1.7916 6.2634 0.32356 0 2.4099-1.3894 4.6362-3.0875 10.771-8.2153 26.946-12.302 41.526-10.492 10.956 1.3602 14.068 2.4297 21.33 7.3306 4.892 3.3016 7.2672 3.6146 4.2598 0.5614-0.64334-0.6532-2.9557-4.8438-5.1385-9.3125-5.5603-11.383-18.343-30.395-26.827-39.902-10.422-11.678-18.906-18.638-28.115-23.066-7.7194-3.7116-8.8738-3.9058-23.125-3.8894-13.679 0.016-15.75 0.333-23.517 3.6023-16.622 6.9964-28.059 21.59-30.964 39.51-2.9265 18.051 4.1825 34.303 18.231 41.677 4.8149 2.5275 16.107 2.6045 23.285 0.1587zm-750.74-7.05c4.1116-3.6101 12.591-18.366 14.964-26.04 2.2292-7.2097 13.762-29.862 18.296-35.938 2.6938-3.6094 4.5868-6.5625 4.2066-6.5625s-9.2578 6.3714-19.728 14.159c-19.14 14.235-38.603 31.434-41.116 36.332-1.1125 2.1682-1.0592 2.3578 0.30139 1.0718 2.1499-2.0322 7.5769-2 10.396 0.062 3.2684 2.3899 2.2816 8.873-1.4308 9.4003-2.0375 0.2893-2.8072-0.2273-2.7934-1.875 0.0161-1.9109 0.20756-1.9764 1.198-0.4099 1.5515 2.4541 4.4521-0.1927 3.3522-3.0589-1.9434-5.0644-10.043-3.2162-11.144 2.5429-1.5909 8.3223 4.0136 14.134 13.719 14.226 4.1754 0.04 6.2051-0.7719 9.7791-3.9099zm880.94 1.4446c5.7784-4.5452 5.5746-13.058-0.3891-16.25-1.7422-0.9324-3.2089-0.9278-4.9713 0.015-3.375 1.8062-3.3226 6.25 0.0738 6.25 1.6272 0 2.2457-0.5308 1.6819-1.4432-0.57702-0.9336-0.34007-1.102 0.67116-0.4771 1.2132 0.7498 1.1306 1.3986-0.3691 2.8983-1.6194 1.6193-2.2562 1.6633-3.9332 0.2716-5.4052-4.486 1.7129-12.675 8.7063-10.016 3.0366 1.1545 2.8667 0.7316-2.047-5.0958-7.8751-9.3394-27.536-25.395-53.118-43.378-3.9468-2.7743-3.942-2.7574 1.5181 5.3851 5.42 8.0826 14.358 25.73 17.491 34.535 3.6791 10.339 11.175 23.86 14.823 26.736 5.0973 4.0186 15.112 4.3055 19.862 0.569zm-321.7-72.44c17.131-2.4762 30.211-12.462 39.312-30.012 5.3016-10.224 7.4632-19.283 7.4632-31.277 0-19.178-5.8835-33.228-19.704-47.052-9.9016-9.9047-12.206-10.93-29.796-13.257-31.201-4.1272-54.784 11.348-57.917 38.004-1.2257 10.429 2.0365 19.788 9.049 25.96 6.1435 5.4077 10.699 6.7616 16.946 5.0367 5.12-1.4137 8.9232-5.1797 11.529-11.416 1.749-4.1858 1.727-4.7884-0.26379-7.2469-2.7495-3.3955-5.9141-2.3277-7.6221 2.5717-1.5496 4.4452-4.4125 4.6911-7.0874 0.6086-1.6433-2.508-1.7221-3.549-0.44963-5.9375 3.8916-7.3047 10.614-8.0424 16.811-1.845 5.1204 5.1204 6.1806 8.9276 4.3644 15.672-2.7158 10.086-13.181 17.652-24.416 17.652-11.038 0-23.575-8.4175-29.932-20.097-4.2444-7.7984-5.6675-21.174-3.2758-30.79 4.3737-17.584 16.483-31.966 34.071-40.465 5.7128-2.7605 9.262-4.7488 7.887-4.4184-10.61 2.5487-24.63 6.6968-36.25 10.725-7.5625 2.6216-20.5 6.6199-28.75 8.8851-13.111 3.6-16.889 4.1177-30 4.111-12.025-0.01-16.485-0.5291-22.488-2.6368-4.1186-1.4461-7.637-2.4805-7.8188-2.2987-0.18177 0.1818 3.188 3.2791 7.4883 6.8829 12.993 10.889 35.511 33.615 48.404 48.852 30.131 35.609 45.451 50.744 58.615 57.909 12.04 6.5531 26.112 8.4408 43.831 5.8797zm57.365-5.0168c4.2585-3.0848 5.4866-4.9716 7.1192-10.938 1.0851-3.9653 2.8394-9.1578 3.8984-11.539 2.6398-5.9356 11.256-15.996 15.642-18.264l3.6152-1.8695-8.1208-15.893c-8.0779-15.81-15.363-28.164-13.795-23.394 2.0359 6.192 4.3693 21.546 4.3693 28.75 0 10.2-2.8282 24.873-6.4244 33.331-3.0661 7.211-10.265 19.146-12.311 20.41-1.5357 0.9491-1.6766 3.134-0.20208 3.134 0.58435 0 3.3782-1.6776 6.2086-3.7279zm170.83-22.799c-6.7348-5.4547-13.591-12.891-18.443-20.003-2.2159-3.2479-4.3135-5.9198-4.6613-5.9375-0.3478-0.018-1.3272 1.5146-2.1765 3.4053-0.84925 1.8906-4.655 8.1469-8.4572 13.903-5.8738 8.8921-6.4862 10.33-4.0736 9.5661 1.5618-0.4946 7.9021-1.1544 14.09-1.4663 8.7515-0.4411 13.054-0.029 19.375 1.8547 4.4688 1.332 8.3938 2.4856 8.7223 2.5635 0.32853 0.078-1.6402-1.6706-4.375-3.8856zm-710.49 1.0102c9.9011-3.0053 21.02-3.6159 29.599-1.6256l7.8322 1.8171-2.5661-3.8997c-1.4114-2.1449-5.4298-8.516-8.9299-14.158l-6.3638-10.258-4.6298 7.1334c-2.5464 3.9233-8.4011 10.649-13.01 14.946-4.6094 4.2968-8.2195 7.8064-8.0225 7.7989 0.19704-0.01 2.938-0.7965 6.0909-1.7535zm304.09-107.29c-3.3956-3.6094-9.788-11.856-14.205-18.325-9.9699-14.602-18.724-23.384-25.263-25.344-10.542-3.1584-23.29 4.0857-25.211 14.326-2.3704 12.635 12.244 22.679 18.688 12.844 1.5639-2.3867 1.6807-3.5799 0.55623-5.681-1.5541-2.9038-7.1432-3.073-6.5358-0.1978 0.1889 0.8941-0.23448 1.2685-0.94088 0.8319-0.87405-0.5402-0.85709-1.5921 0.0531-3.2928 1.9639-3.6696 7.572-2.6756 9.6658 1.7133 2.0174 4.2287-0.0551 9.6191-4.4395 11.546-1.5438 0.6786-2.807 1.5587-2.807 1.9558 0 0.397 8.2506 2.2876 18.335 4.2013 17.696 3.3583 29.601 6.8998 34.756 10.339 4.245 2.8321 3.7159 1.8511-2.6519-4.9175zm-109.81-2.645c10.834-4.4762 25.003-7.0425 38.882-7.0425h12.113l-4.2474-2.8592c-2.336-1.5725-5.0865-4.5257-6.1122-6.5625-2.7686-5.4981-2.2984-15.487 0.99155-21.063 1.514-2.5659 2.0485-4.2561 1.188-3.756-8.8274 5.1301-57.143 46.843-52.19 45.058 1.0312-0.3717 5.25-2.0703 9.375-3.7746zm185.71-0.2716c4.8656-1.1066 14.291-4.2306 20.944-6.9421 27.988-11.405 59.879-16.033 78.847-11.44 1.8999 0.46 2.7064 0.2527 2.2006-0.5656-0.78597-1.2717-25.636-20.595-45.2-35.147-13.597-10.114-43.979-37.325-56.545-50.644-12.048-12.77-24.456-28.501-30.344-38.471l-4.1718-7.0641-3.9813 6.6116c-5.7163 9.4929-17.533 24.944-26.038 34.046-4.032 4.315-7.0172 7.8455-6.634 7.8455 0.38329 0 2.5572-1.0847 4.8308-2.4104 8.9266-5.2047 29.117-6.2307 39.255-1.9947 2.188 0.9142 6.3214 3.7791 9.1854 6.3666 14.1 12.739 17.281 31.161 7.335 42.489-11.338 12.914-31.016 9.1782-31.016-5.8877 0-7.032 8.0608-12.502 12.25-8.3126 1.6954 1.6953 2.0503 7.25 0.46325 7.25-0.57021 0-0.99209-1.2657-0.9375-2.8125 0.0714-2.0225-0.71013-2.9273-2.782-3.221-6.6908-0.9485-8.9163 7.4745-3.4255 12.965 8.2171 8.2171 23.182-1.1119 23.182-14.452 0-6.4596-5.8286-15.699-12.675-20.092-7.1581-4.5933-17.918-6.0964-26.481-3.6991-18.858 5.2801-30.895 28.706-27.27 53.077 1.8355 12.341 5.6655 19.704 14.73 28.316 16.564 15.739 37.321 20.321 64.279 14.189zm-96.066-51.621c-0.63795-11.02 2.3256-22.503 7.9447-30.783 4.2893-6.3207 3.7806-6.8316-1.6486-1.6557-5.771 5.5019-36.107 30.884-40.347 33.759-2.9788 2.0195-2.9099 2.0327 1.9096 0.3674 11.413-3.9437 20.548-1.6807 32.606 8.0769 0.0581 0.047-0.15082-4.3468-0.46442-9.7642z"/>
</svg>
