<svg width="611.09mm" height="188.82mm" version="1.1" viewBox="0 0 611.09 188.82" xmlns="http://www.w3.org/2000/svg">
 <defs>
  <clipPath id="ap">
   <path d="m371.52 127.88h16.69v7.006h-16.69z"/>
  </clipPath>
  <clipPath id="ao">
   <path d="m374.86 130.35h0.376v-0.208h-0.376z"/>
  </clipPath>
  <clipPath id="an">
   <path d="m375.3 130.33-0.1111-0.30525-0.39925 0.14532 0.1111 0.30524z"/>
  </clipPath>
  <linearGradient id="a" x2="1" gradientTransform="matrix(-.048341 -.13282 -.13282 .048341 375.06 130.29)" gradientUnits="userSpaceOnUse">
   <stop stop-color="#af2a1c" offset="0"/>
   <stop stop-color="#e04e15" offset=".20947"/>
   <stop stop-color="#f39600" offset=".5636"/>
   <stop stop-color="#f39600" offset="1"/>
  </linearGradient>
  <clipPath id="aq">
   <path d="m374.94 130.55h0.74965v-0.3484h-0.74965z"/>
  </clipPath>
  <linearGradient id="b" x2="1" gradientTransform="matrix(.74964 0 0 -.74964 374.94 130.38)" gradientUnits="userSpaceOnUse">
   <stop stop-color="#e04e15" offset="0"/>
   <stop stop-color="#f39600" offset=".62718"/>
   <stop stop-color="#f39600" offset="1"/>
  </linearGradient>
  <clipPath id="av">
   <path d="m371.52 127.88h16.69v7.006h-16.69z"/>
  </clipPath>
  <clipPath id="au">
   <path d="m375.07 130.92h0.231v-0.209h-0.231z"/>
  </clipPath>
  <clipPath id="at">
   <path d="m375.07 130.71h0.231v0.209h-0.231z"/>
  </clipPath>
  <clipPath id="as">
   <path d="m374.91 130.86h0.245v-0.171h-0.245z"/>
  </clipPath>
  <clipPath id="ar">
   <path d="m374.91 130.69h0.246v0.171h-0.246z"/>
  </clipPath>
  <clipPath id="aw">
   <path d="m375.09 133.84c-0.063-0.077-0.218-0.366-0.316-0.777-0.088-0.368-0.121-0.89-0.131-1.097 0.014 0.026 0.029 0.053 0.045 0.08 6e-3 0.213 0.027 0.647 0.115 1.009 0.105 0.432 0.219 0.73 0.385 0.891-0.033-0.031-0.069-0.07-0.098-0.106"/>
  </clipPath>
  <clipPath id="ax">
   <path d="m371.52 127.88h16.69v7.006h-16.69z"/>
  </clipPath>
  <clipPath id="ay">
   <path d="m372.29 129.31h3.178v0.52014h-3.178z"/>
  </clipPath>
  <linearGradient id="c" x2="1" gradientTransform="matrix(3.1971,0,0,3.1971,372.27,129.54)" gradientUnits="userSpaceOnUse">
   <stop stop-color="#e35014" offset="0"/>
   <stop stop-color="#f39600" offset=".53374"/>
   <stop stop-color="#ffd100" offset=".68953"/>
   <stop stop-color="#e36210" offset="1"/>
  </linearGradient>
  <clipPath id="az">
   <path d="m371.52 127.88h16.69v7.006h-16.69z"/>
  </clipPath>
  <clipPath id="ba">
   <path d="m374.65 129.34v0.73602h-0.35725v-0.73602z"/>
  </clipPath>
  <linearGradient id="d" x2="1" gradientTransform="matrix(0 .7362 -.7362 0 374.47 129.34)" gradientUnits="userSpaceOnUse">
   <stop stop-color="#f29300" offset="0"/>
   <stop stop-color="#ef8300" offset="1"/>
  </linearGradient>
  <clipPath id="bb">
   <path d="m371.52 127.88h16.69v7.006h-16.69z"/>
  </clipPath>
  <clipPath id="bc">
   <path d="m371.8 130.09 1.2908-2.2358 2.9668 1.7129-1.2908 2.2358z"/>
  </clipPath>
  <linearGradient id="e" x2="1" gradientTransform="matrix(.95078 -1.6468 1.6468 .95078 373.45 130.67)" gradientUnits="userSpaceOnUse">
   <stop stop-color="#dc231a" offset="0"/>
   <stop stop-color="#f08a00" offset=".66334"/>
   <stop stop-color="#ef8300" offset=".95012"/>
   <stop stop-color="#e04e15" offset="1"/>
  </linearGradient>
  <clipPath id="bd">
   <path d="m377.01 129.56h-2.5897v-1.6792h2.5897z"/>
  </clipPath>
  <linearGradient id="f" x2="1" gradientTransform="matrix(-2.5722,0,0,-2.5722,376.99,128.73)" gradientUnits="userSpaceOnUse">
   <stop stop-color="#ffd800" offset="0"/>
   <stop stop-color="#e36210" offset=".2606"/>
   <stop stop-color="#131513" offset="1"/>
  </linearGradient>
  <clipPath id="bg">
   <path d="m375.41 129.82c0.097-0.133 0.282-0.431 0.324-0.776 0.038-0.313 0.045-0.787 0.042-1.069 9e-3 3e-3 6e-3 1e-3 0.014 4e-3 4e-3 0.279 4e-3 0.76-0.036 1.08-0.043 0.357-0.238 0.657-0.333 0.784-5e-3 -0.013-4e-3 -9e-3 -0.011-0.023"/>
  </clipPath>
  <clipPath id="bf">
   <path d="m375.41 129.85h0.384v-1.868h-0.384z"/>
  </clipPath>
  <clipPath id="be">
   <path d="m375.41 127.98h0.38384v1.8684h-0.38384z"/>
  </clipPath>
  <linearGradient id="g" x2="1" gradientTransform="matrix(.39716 0 0 .39716 375.41 128.91)" gradientUnits="userSpaceOnUse">
   <stop stop-color="#e36210" offset="0"/>
   <stop stop-color="#f29300" offset=".46385"/>
   <stop stop-color="#f29300" offset="1"/>
  </linearGradient>
  <clipPath id="bh">
   <path d="m371.52 127.88h16.69v7.006h-16.69z"/>
  </clipPath>
  <clipPath id="bk">
   <path d="m375.64 129.64c-0.024-6e-3 -0.051-0.01-0.077-0.014 0.082-0.149 0.165-0.345 0.191-0.562 0.014-0.116 0.023-0.252 0.029-0.392 0.12-0.064 0.274-0.121 0.47-0.148 0.142-0.019 0.301-8e-3 0.434 0.019 0.105 0.126 0.191 0.272 0.249 0.442 0.072 0.212 0.074 0.418 9e-3 0.61-0.152-0.027-0.425-0.062-0.707-0.043-0.207 0.014-0.399 0.057-0.553 0.102-0.015-5e-3 -0.03-0.01-0.045-0.014"/>
  </clipPath>
  <clipPath id="bj">
   <path d="m375.56 129.65h1.447v-1.149h-1.447z"/>
  </clipPath>
  <clipPath id="bi">
   <path d="m377.01 129.65h-1.4468v-1.1492h1.4468z"/>
  </clipPath>
  <linearGradient id="h" x2="1" gradientTransform="matrix(-1.428,0,0,-1.428,376.99,129.08)" gradientUnits="userSpaceOnUse">
   <stop stop-color="#f29500" offset="0"/>
   <stop stop-color="#fbbd00" offset="1"/>
  </linearGradient>
  <clipPath id="bn">
   <path d="m375.42 129.85c0.025-0.034 0.058-0.082 0.094-0.139 0.165-0.06 0.431-0.138 0.723-0.157 0.282-0.019 0.555 0.016 0.707 0.043-0.071 0.207-0.221 0.399-0.448 0.564-0.049 0.036-0.102 0.068-0.159 0.098-0.169-0.011-0.385-0.022-0.51-0.021-0.171 1e-3 -0.36 0.029-0.482 0.05 0.106-0.134 0.126-0.3 0.075-0.438"/>
  </clipPath>
  <clipPath id="bm">
   <path d="m375.1 130.8h2.081v-1.779h-2.081z"/>
  </clipPath>
  <clipPath id="bl">
   <path d="m375.34 128.35 2.4099 0.87713-0.8154 2.2403-2.4099-0.87714z"/>
  </clipPath>
  <linearGradient id="i" x2="1" gradientTransform="matrix(1.2643 .46018 -.46018 1.2643 375.48 129.67)" gradientUnits="userSpaceOnUse">
   <stop stop-color="#e36210" offset="0"/>
   <stop stop-color="#f29300" offset=".24699"/>
   <stop stop-color="#f29300" offset="1"/>
  </linearGradient>
  <clipPath id="bo">
   <path d="m371.52 127.88h16.69v7.006h-16.69z"/>
  </clipPath>
  <clipPath id="bp">
   <path d="m373.55 128.37 1.8948-1.0939 1.1989 2.0765-1.8948 1.0939z"/>
  </clipPath>
  <linearGradient id="j" x2="1" gradientTransform="matrix(1.8806,-1.0858,1.0858,1.8806,374.14,129.42)" gradientUnits="userSpaceOnUse">
   <stop stop-color="#131513" offset="0"/>
   <stop stop-color="#131513" offset=".18703"/>
   <stop stop-color="#e04916" offset=".41489"/>
   <stop stop-color="#ee7f02" offset=".60106"/>
   <stop stop-color="#ee7f02" offset="1"/>
  </linearGradient>
  <clipPath id="bq">
   <path d="m374.96 130.54-0.023-0.035c0.473-0.089 0.59-0.484 0.443-0.728-0.112-0.185-0.374-0.372-0.469-0.441-0.376-0.275-0.517-0.526-0.517-0.833 0-0.411 0.396-0.623 0.888-0.608 0.511 0.017 1.378 0.301 1.646 1.086 0.149 0.439-1e-3 0.856-0.439 1.174-0.391 0.284-1.08 0.387-1.459 0.387-0.025 0-0.048-1e-3 -0.07-2e-3"/>
  </clipPath>
  <clipPath id="br">
   <path d="m371.52 127.88h16.69v7.006h-16.69z"/>
  </clipPath>
  <clipPath id="bs">
   <path d="m374.96 130.54-0.023-0.035 2e-3 -0.015c0.256-0.049 0.405-0.175 0.465-0.319 0.056-0.133 0.045-0.28-0.024-0.394-0.112-0.185-0.374-0.372-0.469-0.441-0.376-0.275-0.517-0.526-0.517-0.833 0-0.411 0.396-0.623 0.888-0.608 0.511 0.017 1.378 0.301 1.646 1.086 0.149 0.439-1e-3 0.856-0.439 1.174-0.391 0.284-1.08 0.387-1.459 0.387-0.025 0-0.048-1e-3 -0.07-2e-3"/>
  </clipPath>
  <clipPath id="bt">
   <path d="m376.16 128.2h2.3265v1.437h-2.3265z"/>
  </clipPath>
  <linearGradient id="k" x2="1" gradientTransform="matrix(2.3223,0,0,2.3223,376.16,128.91)" gradientUnits="userSpaceOnUse">
   <stop stop-color="#fbbd00" offset="0"/>
   <stop stop-color="#f29300" offset=".30675"/>
   <stop stop-color="#e36210" offset=".98773"/>
   <stop stop-color="#e36210" offset="1"/>
  </linearGradient>
  <clipPath id="bu">
   <path d="m375.06 130.72 0.9398-0.34206 0.25471 0.69983-0.93979 0.34205z"/>
  </clipPath>
  <linearGradient id="l" x2="1" gradientTransform="matrix(.65748 -.2393 .2393 .65748 375.32 131.02)" gradientUnits="userSpaceOnUse">
   <stop stop-color="#ffd800" offset="0"/>
   <stop stop-color="#fbbd00" offset=".86284"/>
   <stop stop-color="#fbbd00" offset="1"/>
  </linearGradient>
  <clipPath id="bv">
   <path d="m375 130.47 1.1408-0.95723 0.97272 1.1592-1.1408 0.95723z"/>
  </clipPath>
  <linearGradient id="m" x2="1" gradientTransform="matrix(.69882 -.58638 .58638 .69882 375.73 130.85)" gradientUnits="userSpaceOnUse">
   <stop stop-color="#fbbd00" offset="0"/>
   <stop stop-color="#fbbd00" offset=".1172"/>
   <stop stop-color="#ffd800" offset="1"/>
  </linearGradient>
  <clipPath id="by">
   <path d="m376.27 130.08c-0.022-0.025-0.067-0.056-0.112-0.083 0.019-0.16 0.014-0.318 6e-3 -0.434-0.024-0.355 0.014-0.595 0.254-0.867 0.366-0.415 0.934-0.43 1.369-0.192 0.071 0.312 0.015 0.656-0.213 0.984-0.29 0.415-0.729 0.641-1.186 0.74-0.035-0.052-0.075-0.096-0.118-0.148"/>
  </clipPath>
  <clipPath id="bx">
   <path d="m375.39 130.88h3.221v-3.279h-3.221z"/>
  </clipPath>
  <clipPath id="bw">
   <path d="m375.96 126.37 3.902 1.8195-1.8312 3.927-3.902-1.8195z"/>
  </clipPath>
  <linearGradient id="n" x2="1" gradientTransform="matrix(1.3174 .61432 -.61432 1.3174 376.27 128.9)" gradientUnits="userSpaceOnUse">
   <stop stop-color="#ffd000" offset="0"/>
   <stop stop-color="#ffd800" offset=".42892"/>
   <stop stop-color="#ffe800" offset=".92024"/>
   <stop stop-color="#ffee59" offset="1"/>
  </linearGradient>
  <clipPath id="bz">
   <path d="m374.87 130.69 0.019-0.013c0.283 0.055 0.522 0.04 0.715-0.02-0.12 0.041-0.257 0.066-0.411 0.066-0.101 0-0.208-0.01-0.323-0.033"/>
  </clipPath>
  <clipPath id="ca">
   <path d="m375.08 130.06 2.2485-2.6796 2.6436 2.2183-2.2485 2.6796z"/>
  </clipPath>
  <linearGradient id="o" x2="1" gradientTransform="matrix(1.8842,-2.2455,2.2455,1.8842,376.41,131.14)" gradientUnits="userSpaceOnUse">
   <stop stop-color="#fbbd00" offset="0"/>
   <stop stop-color="#ffd000" offset=".80981"/>
   <stop stop-color="#ffe800" offset="1"/>
  </linearGradient>
  <clipPath id="cb">
   <path d="m374.87 128.2h3.7927v2.9591h-3.7927z"/>
  </clipPath>
  <linearGradient id="p" x2="1" gradientTransform="matrix(3.6105,0,0,3.6105,374.87,129.68)" gradientUnits="userSpaceOnUse">
   <stop stop-color="#fbbd00" offset="0"/>
   <stop stop-color="#ffd000" offset="1"/>
  </linearGradient>
  <clipPath id="ce">
   <path d="m374.12 130.5s0.032 9e-3 0.068 0.011c0.041 2e-3 0.087-3e-3 0.087-3e-3l-0.072 0.047s-0.056 0.019-0.116 0.028c-0.047 7e-3 -0.133 0.018-0.133 0.018z"/>
  </clipPath>
  <clipPath id="cd">
   <path d="m373.95 130.61h0.322v-0.101h-0.322z"/>
  </clipPath>
  <clipPath id="cc">
   <path d="m373.95 130.51h0.32204v0.10087h-0.32204z"/>
  </clipPath>
  <linearGradient id="q" x2="1" gradientTransform="matrix(.32207 0 0 .32207 373.95 130.56)" gradientUnits="userSpaceOnUse">
   <stop stop-color="#ffd000" offset="0"/>
   <stop stop-color="#ffee59" offset=".92024"/>
   <stop stop-color="#ffd800" offset="1"/>
  </linearGradient>
  <clipPath id="cf">
   <path d="m370.29 131.45 2.7959-2.7959 2.7959 2.7959-2.7959 2.7959z"/>
  </clipPath>
  <linearGradient id="r" x2="1" gradientTransform="matrix(2.7058,-2.7058,2.7058,2.7058,371.75,132.78)" gradientUnits="userSpaceOnUse">
   <stop stop-color="#e36210" offset="0"/>
   <stop stop-color="#ffe800" offset=".33096"/>
   <stop stop-color="#ffee59" offset=".84048"/>
   <stop stop-color="#ffee59" offset="1"/>
  </linearGradient>
  <clipPath id="cg">
   <path d="m373.37 128.67 2.514 2.9961-3.0618 2.5692-2.514-2.9961z"/>
  </clipPath>
  <linearGradient id="s" x2="1" gradientTransform="matrix(.25385 .30253 -.30253 .25385 372.93 131.26)" gradientUnits="userSpaceOnUse">
   <stop stop-color="#ffd000" offset="0"/>
   <stop stop-color="#ffd800" offset=".84788"/>
   <stop stop-color="#ffd000" offset="1"/>
  </linearGradient>
  <clipPath id="ch">
   <path d="m371.52 127.88h16.69v7.006h-16.69z"/>
  </clipPath>
  <clipPath id="ci">
   <path d="m375.06 131.7-0.56372-0.47302 0.4839-0.57669 0.56372 0.47302z"/>
  </clipPath>
  <linearGradient id="t" x2="1" gradientTransform="matrix(-.52 -.43633 .43633 -.52 375.27 131.39)" gradientUnits="userSpaceOnUse">
   <stop stop-color="#ffee59" offset="0"/>
   <stop stop-color="#ffd800" offset="1"/>
  </linearGradient>
  <clipPath id="cj">
   <path d="m378.17 131.25h-2.0988v-0.36042h2.0988z"/>
  </clipPath>
  <linearGradient id="u" x2="1" gradientTransform="matrix(-2.0992,0,0,-2.0992,378.17,131.06)" gradientUnits="userSpaceOnUse">
   <stop stop-color="#ffe800" offset="0"/>
   <stop stop-color="#ffee59" offset=".6135"/>
   <stop stop-color="#fff49f" offset=".95262"/>
   <stop stop-color="#fff49f" offset="1"/>
  </linearGradient>
  <clipPath id="cm">
   <path d="m376.07 131.13c0.08-0.03 0.148-0.068 0.197-0.116 0.065-0.06 0.183-0.251 0.275-0.365 0.285-0.356 0.511-0.465 0.807-0.536 0.466-0.111 0.908 0.043 1.165 0.384-0.095 0.136-0.244 0.326-0.413 0.443-0.274 0.19-0.659 0.28-1.098 0.306-0.031 2e-3 -0.064 3e-3 -0.097 3e-3 -0.309 0-0.665-0.077-0.836-0.119"/>
  </clipPath>
  <clipPath id="cl">
   <path d="m375.67 132.03h3.244v-2.817h-3.244z"/>
  </clipPath>
  <clipPath id="ck">
   <path d="m374.77 131.7 1.2849-3.5302 3.7703 1.3723-1.2849 3.5302z"/>
  </clipPath>
  <linearGradient id="v" x2="1" gradientTransform="matrix(.54641 -1.5012 1.5012 .54641 376.99 131.46)" gradientUnits="userSpaceOnUse">
   <stop stop-color="#fff49f" offset="0"/>
   <stop stop-color="#ffee59" offset=".3394"/>
   <stop stop-color="#ffe800" offset=".75151"/>
   <stop stop-color="#ffd800" offset="1"/>
  </linearGradient>
  <clipPath id="cn">
   <path d="m374.67 129.97h4.2057v2.3949h-4.2057z"/>
  </clipPath>
  <linearGradient id="w" x2="1" gradientTransform="matrix(4.0692,0,0,4.0692,374.67,131.17)" gradientUnits="userSpaceOnUse">
   <stop stop-color="#ffd800" offset="0"/>
   <stop stop-color="#ffee59" offset=".37576"/>
   <stop stop-color="#ffd800" offset="1"/>
  </linearGradient>
  <clipPath id="co">
   <path d="m374.67 132.39h4.2057v-2.3949h-4.2057z"/>
  </clipPath>
  <linearGradient id="x" x2="1" gradientTransform="matrix(4.0706,0,0,-4.0706,374.67,131.24)" gradientUnits="userSpaceOnUse">
   <stop stop-color="#e04e15" offset="0"/>
   <stop stop-color="#f39600" offset=".47133"/>
   <stop stop-color="#e04e15" offset=".84912"/>
   <stop stop-color="#e04e15" offset="1"/>
  </linearGradient>
  <clipPath id="cp">
   <path d="m375.23 131.67h1.3057v1.164h-1.3057z"/>
  </clipPath>
  <linearGradient id="y" x2="1" gradientTransform="matrix(1.3061,0,0,1.3061,375.23,132.25)" gradientUnits="userSpaceOnUse">
   <stop stop-color="#ffd800" offset="0"/>
   <stop stop-color="#ffee59" offset=".15152"/>
   <stop stop-color="#fff49f" offset=".72728"/>
   <stop stop-color="#ffe800" offset="1"/>
  </linearGradient>
  <clipPath id="cq">
   <path d="m375.41 131.63h1.8262v1.3037h-1.8262z"/>
  </clipPath>
  <linearGradient id="z" x2="1" gradientTransform="matrix(1.7511,0,0,1.7511,375.41,132.28)" gradientUnits="userSpaceOnUse">
   <stop stop-color="#ffee59" offset="0"/>
   <stop stop-color="#ffee59" offset=".0060577"/>
   <stop stop-color="#ffee59" offset=".45454"/>
   <stop stop-color="#fff49f" offset="1"/>
  </linearGradient>
  <clipPath id="cr">
   <path d="m374.53 130.96h0.18793v0.28939h-0.18793z"/>
  </clipPath>
  <linearGradient id="aa" x2="1" gradientTransform="matrix(.20042 0 0 .20042 374.52 131.1)" gradientUnits="userSpaceOnUse">
   <stop stop-color="#fff49f" offset="0"/>
   <stop stop-color="#ffd800" offset="1"/>
  </linearGradient>
  <clipPath id="cs">
   <path d="m374.57 132.17-0.17523-0.99377 0.73904-0.13031 0.17523 0.99377z"/>
  </clipPath>
  <linearGradient id="ab" x2="1" gradientTransform="matrix(-.16076 -.91174 .91174 -.16076 374.93 132.05)" gradientUnits="userSpaceOnUse">
   <stop stop-color="#fff49f" offset="0"/>
   <stop stop-color="#ffee59" offset="1"/>
  </linearGradient>
  <clipPath id="ct">
   <path d="m374.82 129.82 3.5612 1.2962-1.3174 3.6197-3.5612-1.2962z"/>
  </clipPath>
  <linearGradient id="ac" x2="1" gradientTransform="matrix(3.4721,1.2637,-1.2637,3.4721,374.16,131.65)" gradientUnits="userSpaceOnUse">
   <stop stop-color="#f29300" offset="0"/>
   <stop stop-color="#ffd800" offset=".67879"/>
   <stop stop-color="#f29300" offset="1"/>
  </linearGradient>
  <clipPath id="cu">
   <path d="m374.48 130.76h3.304v2.9803h-3.304z"/>
  </clipPath>
  <linearGradient id="ad" x2="1" gradientTransform="matrix(3.1847,0,0,3.1847,374.48,132.25)" gradientUnits="userSpaceOnUse">
   <stop stop-color="#ffee59" offset="0"/>
   <stop stop-color="#fff49f" offset=".45454"/>
   <stop stop-color="#ffee59" offset=".86667"/>
   <stop stop-color="#ffe800" offset="1"/>
  </linearGradient>
  <clipPath id="cv">
   <path d="m371.52 127.88h16.69v7.006h-16.69z"/>
  </clipPath>
  <clipPath id="cw">
   <path d="m373.69 132.88 1.6208-1.36 1.435 1.7101-1.6208 1.36z"/>
  </clipPath>
  <linearGradient id="ae" x2="1" gradientTransform="matrix(.77347 -.64902 .64902 .77347 374.76 133.45)" gradientUnits="userSpaceOnUse">
   <stop stop-color="#fff49f" offset="0"/>
   <stop stop-color="#ffee59" offset=".31421"/>
   <stop stop-color="#ffe800" offset="1"/>
  </linearGradient>
  <clipPath id="cx">
   <path d="m375.03 130.59v3.9974h-0.94714v-3.9974z"/>
  </clipPath>
  <linearGradient id="af" x2="1" gradientTransform="matrix(0,3.9984,-3.9984,0,374.56,130.58)" gradientUnits="userSpaceOnUse">
   <stop stop-color="#ffd000" offset="0"/>
   <stop stop-color="#ffe800" offset=".73619"/>
   <stop stop-color="#ffd000" offset=".90184"/>
   <stop stop-color="#f29300" offset="1"/>
  </linearGradient>
  <clipPath id="cy">
   <path d="m371.52 127.88h16.69v7.006h-16.69z"/>
  </clipPath>
  <clipPath id="cz">
   <path d="m374.41 130.83-0.31631 0.11512-0.0952-0.26159 0.31631-0.11512z"/>
  </clipPath>
  <linearGradient id="ag" x2="1" gradientTransform="matrix(-.31642 .11517 -.11517 -.31642 374.36 130.7)" gradientUnits="userSpaceOnUse">
   <stop stop-color="#ffd800" offset="0"/>
   <stop stop-color="#ffe800" offset="1"/>
  </linearGradient>
  <clipPath id="da">
   <path d="m373.94 130.77h0.35027v0.25973h-0.35027z"/>
  </clipPath>
  <linearGradient id="ah" x2="1" gradientTransform="matrix(.35033 0 0 .35033 373.94 130.9)" gradientUnits="userSpaceOnUse">
   <stop stop-color="#ffe800" offset="0"/>
   <stop stop-color="#ffd800" offset="1"/>
  </linearGradient>
  <clipPath id="db">
   <path d="m374.26 131.51h-0.58405v-0.67646h0.58405z"/>
  </clipPath>
  <linearGradient id="ai" x2="1" gradientTransform="matrix(-.58418 0 0 -.58418 374.26 131.17)" gradientUnits="userSpaceOnUse">
   <stop stop-color="#ffd800" offset="0"/>
   <stop stop-color="#ffe800" offset="1"/>
  </linearGradient>
  <clipPath id="dc">
   <path d="m373.58 131.04h0.5947v0.6765h-0.5947z"/>
  </clipPath>
  <linearGradient id="aj" x2="1" gradientTransform="matrix(.59437 0 0 .59437 373.58 131.38)" gradientUnits="userSpaceOnUse">
   <stop stop-color="#ffee59" offset="0"/>
   <stop stop-color="#ffe800" offset=".73619"/>
   <stop stop-color="#ffd800" offset="1"/>
  </linearGradient>
  <clipPath id="dd">
   <path d="m371.64 130.84 2.6612-0.96861 1.4491 3.9813-2.6612 0.96861z"/>
  </clipPath>
  <linearGradient id="ak" x2="1" gradientTransform="matrix(2.5566 -.93051 .93051 2.5566 372.47 132.8)" gradientUnits="userSpaceOnUse">
   <stop stop-color="#e36210" offset="0"/>
   <stop stop-color="#ffd800" offset=".094757"/>
   <stop stop-color="#ffee59" offset=".43642"/>
   <stop stop-color="#ffee59" offset="1"/>
  </linearGradient>
  <clipPath id="de">
   <path d="m374.16 132.34h-0.82631v-1.2618h0.82631z"/>
  </clipPath>
  <linearGradient id="al" x2="1" gradientTransform="matrix(-.82654 0 0 -.82654 374.16 131.7)" gradientUnits="userSpaceOnUse">
   <stop stop-color="#ffd800" offset="0"/>
   <stop stop-color="#ffe800" offset="1"/>
  </linearGradient>
  <clipPath id="df">
   <path d="m373 130.04 2.3598 0.54482-0.94763 4.1046-2.3598-0.54481z"/>
  </clipPath>
  <linearGradient id="am" x2="1" gradientTransform="matrix(.71955 .16612 -.16612 .71955 373.3 132.27)" gradientUnits="userSpaceOnUse">
   <stop stop-color="#ffe800" offset="0"/>
   <stop stop-color="#ffe800" offset=".73619"/>
   <stop stop-color="#ffd800" offset="1"/>
  </linearGradient>
 </defs>
 <g transform="translate(3936.5 -776.85)">
  <g transform="matrix(.27229 0 0 .27229 -3931.4 913.18)">
   <g transform="matrix(356.2,0,0,356.2,-10392,-61440)"></g>
   <g transform="matrix(161.87,0,0,161.87,-4650,-27701)"></g>
   <g transform="matrix(292.17,0,0,292.17,5804.1,-43639)">
    <g transform="matrix(.35278 0 0 -.35278 -151.03 195.14)">
     <g clip-path="url(#df)">
      <path d="m373.12 134.34c-0.197-3e-3 -0.207-0.56 0.062-1.527 0.174-0.625 0.407-1.185 0.679-1.661 0.151-0.263 0.415-0.644 0.623-0.772l-3e-3 0.052c-0.312 0.426-0.571 1.316-0.553 1.673 0.015 0.307 0.039 0.673-0.141 1.208-0.242 0.719-0.465 1.027-0.664 1.027h-3e-3" fill="url(#am)"/>
     </g>
    </g>
    <g transform="matrix(.35278 0 0 -.35278 -151.03 195.14)">
     <g clip-path="url(#de)">
      <path d="m373.34 132.34c0.076-0.218 0.158-0.426 0.246-0.623 0.095-0.08 0.198-0.171 0.253-0.227 0.153-0.156 0.271-0.326 0.327-0.412-0.027 0.076-0.054 0.152-0.078 0.228-0.076 0.129-0.21 0.346-0.36 0.543-0.122 0.161-0.279 0.357-0.388 0.491z" fill="url(#al)"/>
     </g>
    </g>
    <g transform="matrix(.35278 0 0 -.35278 -151.03 195.14)">
     <g clip-path="url(#dd)">
      <path d="m373.17 132.8c0.174-0.626 0.406-1.186 0.679-1.662 0.151-0.264 0.41-0.623 0.617-0.751l0.027-5e-3c-0.208 0.128-0.472 0.509-0.623 0.772-0.272 0.476-0.505 1.036-0.679 1.661-0.235 0.843-0.258 1.376-0.128 1.499-0.152-0.085-0.14-0.628 0.107-1.514" fill="url(#ak)"/>
     </g>
    </g>
    <g transform="matrix(.35278 0 0 -.35278 -151.03 195.14)">
     <g clip-path="url(#dc)">
      <path d="m373.58 131.71c0.031-0.069 0.063-0.137 0.095-0.203 0.075-0.043 0.175-0.109 0.264-0.198 0.104-0.105 0.188-0.21 0.236-0.276-5e-3 0.013-9e-3 0.025-0.015 0.038-0.056 0.086-0.174 0.256-0.327 0.412-0.055 0.056-0.158 0.147-0.253 0.227z" fill="url(#aj)"/>
     </g>
    </g>
    <g transform="matrix(.35278 0 0 -.35278 -151.03 195.14)">
     <g clip-path="url(#db)">
      <path d="m373.68 131.51c0.062-0.125 0.125-0.243 0.19-0.358 0.023-0.039 0.048-0.081 0.076-0.126 0.04-0.02 0.084-0.044 0.121-0.063 0.059-0.033 0.151-0.096 0.197-0.13-0.029 0.066-0.057 0.134-0.084 0.203-0.048 0.066-0.132 0.171-0.236 0.276-0.089 0.089-0.189 0.155-0.264 0.198z" fill="url(#ai)"/>
     </g>
    </g>
    <g transform="matrix(.35278 0 0 -.35278 -151.03 195.14)">
     <g clip-path="url(#da)">
      <path d="m373.94 131.03c0.035-0.056 0.073-0.115 0.114-0.173 0.051-0.018 0.112-0.04 0.144-0.053 0.033-0.013 0.068-0.025 0.092-0.034-0.011 0.023-0.021 0.044-0.032 0.067-0.046 0.034-0.138 0.097-0.197 0.13-0.037 0.019-0.081 0.043-0.121 0.063z" fill="url(#ah)"/>
     </g>
    </g>
    <g transform="matrix(.35278 0 0 -.35278 -151.03 195.14)">
     <g clip-path="url(#cz)">
      <path d="m374.17 130.69c0.016-3e-3 0.032-6e-3 0.044-8e-3 0.026-4e-3 0.088-0.016 0.126-0.022-0.018 0.033-0.035 0.068-0.052 0.104-0.024 9e-3 -0.059 0.021-0.092 0.034-0.032 0.013-0.093 0.035-0.144 0.053 0.038-0.054 0.078-0.109 0.118-0.161" fill="url(#ag)"/>
     </g>
    </g>
    <g transform="matrix(.35278 0 0 -.35278 -151.03 195.14)">
     <g clip-path="url(#cy)">
      <g transform="translate(375.58,134.38)">
       <path d="m0 0c-0.16 0.237-0.355 0.288-0.548 0.205 2e-3 1e-3 3e-3 1e-3 4e-3 2e-3 -0.23-0.087-0.459-0.369-0.628-0.761-0.219-0.51-0.319-1.083-0.312-1.801 4e-3 -0.349 0.079-0.962 0.297-1.427l0.015-9e-3 0.037 0.026c-0.083 0.587 0.03 0.918 0.154 1.26 0.043 0.116 0.21 0.414 0.383 0.459 0.316 0.084 0.504 0.39 0.676 0.77 0.129 0.284 0.159 0.926-0.078 1.276" fill="#bbcfe9"/>
      </g>
      <g transform="translate(374.42,133.83)">
       <path d="m0 0c0.305 0.708 0.809 1.057 1.154 0.547 0.237-0.35 0.207-0.993 0.078-1.277-0.172-0.38-0.36-0.685-0.676-0.769-0.172-0.046-0.34-0.344-0.382-0.46-0.125-0.341-0.238-0.672-0.155-1.26l-0.037-0.025c-0.218 0.465-0.291 1.094-0.294 1.442-7e-3 0.718 0.092 1.292 0.312 1.802" fill="#fff49f"/>
      </g>
     </g>
    </g>
    <g transform="matrix(.35278 0 0 -.35278 -151.03 195.14)">
     <g clip-path="url(#cx)">
      <path d="m374.4 133.83c-0.219-0.511-0.319-1.084-0.312-1.802 4e-3 -0.349 0.079-0.962 0.297-1.427l0.015-9e-3c-0.217 0.465-0.29 1.095-0.294 1.443-7e-3 0.717 0.092 1.291 0.312 1.802 0.164 0.381 0.387 0.659 0.611 0.753-0.231-0.087-0.46-0.369-0.629-0.76" fill="url(#af)"/>
     </g>
    </g>
    <g transform="matrix(.35278 0 0 -.35278 -151.03 195.14)">
     <g clip-path="url(#cw)">
      <path d="m375.25 134c-0.201-0.143-0.332-0.459-0.449-0.945-0.088-0.362-0.109-0.795-0.115-1.009h1e-3c0.074 0.122 0.182 0.254 0.292 0.282 0.317 0.084 0.504 0.39 0.677 0.77 0.062 0.137 0.101 0.358 0.098 0.589-0.022 0.09-0.055 0.191-0.103 0.25-0.051 0.061-0.129 0.125-0.228 0.125-0.053 0-0.11-0.017-0.173-0.062" fill="url(#ae)"/>
     </g>
    </g>
    <g transform="matrix(.35278 0 0 -.35278 -151.03 195.14)">
     <g clip-path="url(#cv)">
      <g transform="translate(374.44,130.61)">
       <path d="m0 0c-1e-3 0.017-1e-3 0.033-2e-3 0.049-0.024 0.19-0.027 0.353-0.016 0.498-0.026 0.05-0.062 0.106-0.109 0.157-0.046 0.05-0.099 0.086-0.145 0.112 0.045-0.28 0.121-0.584 0.24-0.838z" fill="#ffee59"/>
      </g>
      <g transform="translate(374.16,132.84)">
       <path d="m0 0c-0.033-0.25-0.048-0.519-0.045-0.811 1e-3 -0.093 7e-3 -0.205 0.019-0.329 0.049-0.026 0.108-0.065 0.159-0.12 0.079-0.085 0.127-0.185 0.152-0.248 0.033 0.2 0.093 0.368 0.155 0.54 2e-3 5e-3 5e-3 0.012 8e-3 0.018-0.036 0.12-0.102 0.318-0.21 0.556-0.078 0.172-0.167 0.304-0.238 0.394" fill="#ffee59"/>
      </g>
     </g>
    </g>
    <g transform="matrix(.35278 0 0 -.35278 -151.03 195.14)">
     <g clip-path="url(#cu)">
      <path d="m376.18 133.58c-0.419-0.185-0.84-0.571-1.209-1.176-0.271-0.444-0.472-1.051-0.487-1.64l0.049-5e-3c0.176 0.499 0.487 0.794 0.808 0.969 0.302 0.166 0.506 0.108 0.677 0.037 0.321-0.134 0.679-0.191 0.921-0.098 0.591 0.229 0.849 1.052 0.676 1.518-0.145 0.388-0.425 0.554-0.771 0.554-0.203 0-0.429-0.057-0.664-0.159" fill="url(#ad)"/>
     </g>
    </g>
    <g transform="matrix(.35278 0 0 -.35278 -151.03 195.14)">
     <g clip-path="url(#ct)">
      <path d="m376.18 133.58c-0.419-0.185-0.84-0.571-1.209-1.176-0.271-0.444-0.472-1.051-0.487-1.64l0.013-1e-3c0.018 0.585 0.218 1.188 0.486 1.628 0.37 0.605 0.791 0.991 1.211 1.175 0.484 0.213 0.932 0.23 1.218-0.049-0.149 0.154-0.345 0.222-0.568 0.222-0.203 0-0.429-0.057-0.664-0.159" fill="url(#ac)"/>
     </g>
    </g>
    <g transform="matrix(.35278 0 0 -.35278 -151.03 195.14)">
     <g clip-path="url(#cs)">
      <path d="m374.55 131.25c0.02-0.017 0.038-0.031 0.05-0.037 0.024-0.012 0.077-0.039 0.119-0.061 0.124 0.197 0.273 0.347 0.432 0.463-0.016 0.072-0.049 0.174-0.122 0.274-0.065 0.089-0.146 0.146-0.218 0.182-0.115-0.251-0.206-0.532-0.261-0.821" fill="url(#ab)"/>
     </g>
    </g>
    <g transform="matrix(.35278 0 0 -.35278 -151.03 195.14)">
     <g clip-path="url(#cr)">
      <path d="m374.53 131.13c0.015-0.023 0.031-0.049 0.044-0.074 0.019-0.035 0.03-0.069 0.038-0.098 0.033 0.069 0.068 0.133 0.106 0.192-0.042 0.022-0.095 0.049-0.119 0.061-0.012 6e-3 -0.03 0.02-0.05 0.037-7e-3 -0.04-0.013-0.079-0.019-0.118" fill="url(#aa)"/>
     </g>
    </g>
    <g transform="matrix(.35278 0 0 -.35278 -151.03 195.14)">
     <g clip-path="url(#cq)">
      <path d="m375.84 132.31c-0.115-0.114-0.319-0.392-0.431-0.546 0.262 0.118 0.447 0.065 0.603-1e-3 0.177-0.074 0.365-0.124 0.539-0.139 0.126 0.101 0.391 0.347 0.549 0.729 0.072 0.177 0.136 0.47-0.155 0.563-0.025 8e-3 -0.053 0.012-0.083 0.012-0.328 0-0.874-0.469-1.022-0.618" fill="url(#z)"/>
     </g>
    </g>
    <g transform="matrix(.35278 0 0 -.35278 -151.03 195.14)">
     <g clip-path="url(#cp)">
      <path d="m375.59 132.11c-0.146-0.165-0.287-0.347-0.359-0.442 0.035 0.022 0.071 0.043 0.106 0.062 0.026 0.015 0.05 0.026 0.074 0.038 0.112 0.154 0.316 0.432 0.431 0.546 0.105 0.106 0.41 0.372 0.695 0.518-0.211-0.083-0.679-0.421-0.947-0.722" fill="url(#y)"/>
     </g>
    </g>
    <g transform="matrix(.35278 0 0 -.35278 -151.03 195.14)">
     <g clip-path="url(#co)">
      <path d="m375.79 131.96c-0.473-0.296-0.861-0.712-1.112-1.106l0.036-0.037c0.585 0.503 1.303 0.465 1.56 0.222 0.065-0.062 0.183-0.251 0.275-0.367 0.285-0.354 0.511-0.464 0.807-0.534 0.594-0.141 1.148 0.147 1.33 0.704 0.197 0.604-0.069 1.23-0.873 1.468-0.16 0.049-0.371 0.081-0.581 0.081-0.466 0-0.979-0.14-1.442-0.431" fill="url(#x)"/>
     </g>
    </g>
    <g transform="matrix(.35278 0 0 -.35278 -151.03 195.14)">
     <g clip-path="url(#cn)">
      <path d="m375.79 131.94c-0.473-0.297-0.861-0.713-1.112-1.107l0.036-0.037c0.585 0.503 1.303 0.464 1.56 0.221 0.065-0.06 0.183-0.251 0.275-0.365 0.285-0.356 0.511-0.465 0.807-0.536 0.594-0.141 1.148 0.148 1.33 0.704 0.197 0.606-0.069 1.23-0.873 1.47-0.179 0.053-0.375 0.08-0.581 0.08-0.466 0-0.979-0.14-1.442-0.43" fill="url(#w)"/>
     </g>
    </g>
    <g transform="matrix(.35278 0 0 -.35278 -151.03 195.14)">
     <g clip-path="url(#cm)">
      <g clip-path="url(#cl)" opacity=".5">
       <g clip-path="url(#ck)">
        <path d="m375.67 131.1 0.686-1.885 2.558 0.93-0.687 1.887z" fill="url(#v)"/>
       </g>
      </g>
     </g>
    </g>
    <g transform="matrix(.35278 0 0 -.35278 -151.03 195.14)">
     <g clip-path="url(#cj)">
      <path d="m376.07 131.13c0.014-5e-3 0.029-0.011 0.043-0.017 0.196 0.047 0.598 0.131 0.917 0.113 0.438-0.027 0.823-0.117 1.097-0.307 0.015-9e-3 0.028-0.02 0.042-0.03-0.023 0.018-0.045 0.035-0.068 0.051-0.274 0.19-0.659 0.28-1.098 0.306-0.031 2e-3 -0.064 3e-3 -0.097 3e-3 -0.309 0-0.665-0.077-0.836-0.119" fill="url(#u)"/>
     </g>
    </g>
    <g transform="matrix(.35278 0 0 -.35278 -151.03 195.14)">
     <g clip-path="url(#ci)">
      <path d="m374.79 131c4e-3 -0.032 9e-3 -0.063 0.012-0.077 3e-3 -0.012 8e-3 -0.03 0.014-0.047 0.138 0.103 0.283 0.177 0.425 0.227 4e-3 0.045 8e-3 0.107 4e-3 0.176-3e-3 0.064-0.025 0.14-0.044 0.195-0.156-0.152-0.294-0.313-0.411-0.474" fill="url(#t)"/>
     </g>
    </g>
    <g transform="matrix(.35278 0 0 -.35278 -151.03 195.14)">
     <g clip-path="url(#ch)">
      <g transform="translate(374.71,130.79)">
       <path d="m0 0c0.034 0.03 0.069 0.057 0.105 0.083-6e-3 0.017-0.012 0.034-0.014 0.046-3e-3 0.014-8e-3 0.046-0.013 0.077-0.02-0.027-0.039-0.054-0.057-0.081 0-0.017-1e-3 -0.038-4e-3 -0.055-4e-3 -0.018-0.011-0.046-0.017-0.07" fill="#fff49f"/>
      </g>
      <g transform="translate(374.71,130.79)">
       <path d="m0 0s1e-3 0 1e-3 1e-3c6e-3 0.024 0.013 0.052 0.017 0.069 3e-3 0.018 4e-3 0.039 4e-3 0.056-0.02-0.03-0.04-0.059-0.059-0.089z" fill="#ffe800"/>
      </g>
     </g>
    </g>
    <g transform="matrix(.35278 0 0 -.35278 -151.03 195.14)">
     <g clip-path="url(#cg)">
      <path d="m371.64 132.67c-0.125-0.093 0.418-0.662 1.018-1.177 0.388-0.333 0.859-0.706 1.233-0.94 0.184-0.114 0.417-0.273 0.632-0.311 0.114-0.021 0.137 0.033 0.146 0.058l-0.037 0.035c-0.315 0.106-0.892 0.621-1.129 0.848-0.152 0.144-0.433 0.464-0.785 0.77-0.415 0.361-0.882 0.727-1.042 0.727-0.015 0-0.027-3e-3 -0.036-0.01" fill="url(#s)"/>
     </g>
    </g>
    <g transform="matrix(.35278 0 0 -.35278 -151.03 195.14)">
     <g clip-path="url(#cf)">
      <path d="m371.64 132.67c-0.125-0.093 0.418-0.662 1.018-1.177 0.388-0.333 0.859-0.706 1.233-0.94 0.184-0.114 0.417-0.273 0.632-0.311 0.089-0.017 0.123 0.013 0.137 0.038-0.02-0.017-0.055-0.028-0.12-0.017-0.214 0.039-0.448 0.197-0.631 0.312-0.375 0.234-0.846 0.605-1.234 0.939-0.567 0.488-1.084 1.023-1.033 1.158-1e-3 0-2e-3 -1e-3 -2e-3 -2e-3" fill="url(#r)"/>
     </g>
    </g>
    <g transform="matrix(.35278 0 0 -.35278 -151.03 195.14)">
     <g clip-path="url(#ce)">
      <g clip-path="url(#cd)" opacity=".5">
       <g clip-path="url(#cc)">
        <path d="m373.95 130.5h0.321v0.101h-0.321z" fill="url(#q)"/>
       </g>
      </g>
     </g>
    </g>
    <g transform="matrix(.35278 0 0 -.35278 -151.03 195.14)">
     <g clip-path="url(#cb)">
      <path d="m376.46 131.16c-0.584 0-1.235-0.225-1.588-0.431v-0.039l0.019-0.013c0.281 0.055 0.519 0.04 0.711-0.019 0.304-0.105 0.493-0.322 0.539-0.544 0.04-0.196 0.034-0.408 0.024-0.552-0.024-0.355 0.014-0.595 0.254-0.867 0.436-0.494 1.158-0.422 1.602-0.028 0.47 0.418 0.643 1.082 0.219 1.69-0.412 0.591-1.128 0.798-1.766 0.803h-0.014" fill="url(#p)"/>
     </g>
    </g>
    <g transform="matrix(.35278 0 0 -.35278 -151.03 195.14)">
     <g clip-path="url(#ca)">
      <path d="m376.46 131.16h-0.031c0.048-0.112 0.11-0.302 0.088-0.51-0.025-0.22-0.071-0.333-0.131-0.423 0.457-0.099 0.896-0.325 1.186-0.74 0.228-0.328 0.284-0.672 0.213-0.984 0.083 0.046 0.162 0.101 0.233 0.164 0.47 0.418 0.643 1.082 0.219 1.69-0.412 0.591-1.128 0.798-1.766 0.803h-0.011" fill="url(#o)"/>
     </g>
    </g>
    <g transform="matrix(.35278 0 0 -.35278 -151.03 195.14)">
     <g clip-path="url(#bz)">
      <path d="m374.87 130.73h0.733v-0.076h-0.733z" fill="#e36210"/>
     </g>
    </g>
    <g transform="matrix(.35278 0 0 -.35278 -151.03 195.14)">
     <g clip-path="url(#by)">
      <g clip-path="url(#bx)" opacity=".5">
       <g clip-path="url(#bw)">
        <path d="m375.39 129.87 1.059-2.271 2.163 1.009-1.058 2.27z" fill="url(#n)"/>
       </g>
      </g>
     </g>
    </g>
    <g transform="matrix(.35278 0 0 -.35278 -151.03 195.14)">
     <g clip-path="url(#bv)">
      <path d="m376.1 131.13c-0.04-0.066-0.101-0.154-0.178-0.232-0.091-0.091-0.246-0.181-0.35-0.235 0.321-0.102 0.519-0.326 0.567-0.554 7e-3 -0.039 0.013-0.078 0.018-0.118 0.045 0.027 0.09 0.058 0.112 0.083 0.119 0.143 0.211 0.226 0.249 0.571 0.022 0.208-0.04 0.398-0.088 0.51-0.109-2e-3 -0.219-0.011-0.33-0.025" fill="url(#m)"/>
     </g>
    </g>
    <g transform="matrix(.35278 0 0 -.35278 -151.03 195.14)">
     <g clip-path="url(#bu)">
      <path d="m375.39 130.96c-0.014-0.036-0.037-0.081-0.086-0.139-0.028-0.034-0.063-0.069-0.095-0.098 0.136-1e-3 0.259-0.021 0.367-0.055 0.104 0.054 0.259 0.144 0.35 0.235 0.077 0.078 0.138 0.166 0.178 0.232-0.248-0.034-0.494-0.098-0.714-0.175" fill="url(#l)"/>
     </g>
    </g>
    <g transform="matrix(.35278 0 0 -.35278 -151.03 195.14)">
     <g clip-path="url(#bt)">
      <path d="m378.02 128.68c-0.444-0.394-1.166-0.467-1.602 0.028-0.198 0.224-0.26 0.426-0.26 0.689-1e-3 -0.271 0.058-0.478 0.26-0.707 0.436-0.494 1.158-0.422 1.602-0.028 0.287 0.255 0.463 0.601 0.461 0.971-3e-3 -0.363-0.179-0.702-0.461-0.953" fill="url(#k)"/>
     </g>
    </g>
    <g transform="matrix(.35278 0 0 -.35278 -151.03 195.14)">
     <g clip-path="url(#bs)">
      <path d="m374.4 130.55h2.683v-2.662h-2.683z" fill="#e36210"/>
     </g>
    </g>
    <g transform="matrix(.35278 0 0 -.35278 -151.03 195.14)">
     <g clip-path="url(#br)">
      <g transform="translate(374.96,130.54)">
       <path d="m0 0-0.023-0.035c0.473-0.09 0.591-0.485 0.443-0.729-0.112-0.184-0.374-0.371-0.469-0.441-0.376-0.274-0.517-0.525-0.517-0.833 0-0.41 0.396-0.623 0.887-0.607 0.512 0.017 1.38 0.3 1.647 1.086 0.149 0.439-1e-3 0.856-0.439 1.174-0.391 0.284-1.081 0.386-1.458 0.386-0.025 0-0.049 0-0.071-1e-3" fill="#f59f00"/>
      </g>
     </g>
    </g>
    <g transform="matrix(.35278 0 0 -.35278 -151.03 195.14)">
     <g clip-path="url(#bq)">
      <path d="m374.4 130.55h2.683v-2.662h-2.683z" fill="#ef8600"/>
     </g>
    </g>
    <g transform="matrix(.35278 0 0 -.35278 -151.03 195.14)">
     <g clip-path="url(#bp)">
      <path d="m375.38 129.78c-0.112-0.185-0.374-0.372-0.469-0.441-0.376-0.275-0.517-0.526-0.517-0.833 0-0.411 0.396-0.623 0.888-0.608 0.144 5e-3 0.319 0.031 0.5 0.085 4e-3 0.279 4e-3 0.76-0.036 1.08-0.043 0.357-0.238 0.657-0.333 0.784-9e-3 -0.023-0.02-0.046-0.033-0.067" fill="url(#j)"/>
     </g>
    </g>
    <g transform="matrix(.35278 0 0 -.35278 -151.03 195.14)">
     <g clip-path="url(#bo)">
      <g transform="translate(376.33,130.26)">
       <path d="m0 0c-0.19 0.1-0.419 0.171-0.642 0.217-0.051-0.023-0.119-0.047-0.201-0.063-0.096-0.02-0.189-0.023-0.256-0.022 0.043-0.031 0.078-0.066 0.107-0.103 0.121-0.021 0.311-0.048 0.482-0.05 0.125-1e-3 0.341 0.011 0.51 0.021" fill="#f59f00"/>
      </g>
     </g>
    </g>
    <g transform="matrix(.35278 0 0 -.35278 -151.03 195.14)">
     <g clip-path="url(#bn)">
      <g clip-path="url(#bm)" opacity=".5">
       <g clip-path="url(#bl)">
        <path d="m375.1 130.2 0.428-1.178 1.654 0.602-0.43 1.178z" fill="url(#i)"/>
       </g>
      </g>
     </g>
    </g>
    <g transform="matrix(.35278 0 0 -.35278 -151.03 195.14)">
     <g clip-path="url(#bk)">
      <g clip-path="url(#bj)" opacity=".35001">
       <g clip-path="url(#bi)">
        <path d="m375.56 128.5h1.447v1.149h-1.447z" fill="url(#h)"/>
       </g>
      </g>
     </g>
    </g>
    <g transform="matrix(.35278 0 0 -.35278 -151.03 195.14)">
     <g clip-path="url(#bh)">
      <g transform="translate(375.68,129.65)">
       <path d="m0 0c-0.064 0.019-0.121 0.038-0.17 0.055 0.016-0.025 0.032-0.053 0.049-0.083 0.026 3e-3 0.053 8e-3 0.077 0.014 0.015 4e-3 0.03 9e-3 0.044 0.014" fill="#f59f00"/>
      </g>
     </g>
    </g>
    <g transform="matrix(.35278 0 0 -.35278 -151.03 195.14)">
     <g clip-path="url(#bg)">
      <g clip-path="url(#bf)" opacity=".5">
       <g clip-path="url(#be)">
        <path d="m375.41 127.98h0.383v1.868h-0.383z" fill="url(#g)"/>
       </g>
      </g>
     </g>
    </g>
    <g transform="matrix(.35278 0 0 -.35278 -151.03 195.14)">
     <g clip-path="url(#bd)">
      <path d="m376.92 129.01c-0.266-0.786-1.134-1.07-1.646-1.086-0.419-0.014-0.769 0.14-0.862 0.44 0.081-0.316 0.438-0.479 0.87-0.465 0.511 0.017 1.378 0.301 1.646 1.086 0.068 0.2 0.073 0.395 0.019 0.579 0.047-0.176 0.039-0.363-0.027-0.554" fill="url(#f)"/>
     </g>
    </g>
    <g transform="matrix(.35278 0 0 -.35278 -151.03 195.14)">
     <g clip-path="url(#bc)">
      <path d="m374.86 130.35c0.15-0.173-0.066-0.251-0.304-0.28-0.129-0.015-0.402-8e-3 -0.554 0.011-0.31 0.039-0.577 0.079-0.832 0.08-0.4 3e-3 -0.915-0.038-0.903-0.27 0.014-0.258 0.914-0.502 1.468-0.541 0.462-0.034 1.421-0.045 1.672 0.293 0.199 0.267-0.193 0.555-0.509 0.708z" fill="url(#e)"/>
     </g>
    </g>
    <g transform="matrix(.35278 0 0 -.35278 -151.03 195.14)">
     <g clip-path="url(#bb)">
      <g transform="translate(374.86,130.35)">
       <path d="m0 0v-0.023c0.031-0.037 0.047-0.067 0.049-0.092 4e-3 0.032-0.011 0.071-0.049 0.115" fill="#af2a1c"/>
      </g>
      <g transform="translate(374.6,130.08)">
       <path d="m0 0c0.016-0.075 0.045-0.209 0.079-0.327 0.039-0.136 0.101-0.279 0.142-0.369 0.136 0.023 0.262 0.057 0.366 0.103-0.1 0.07-0.273 0.198-0.353 0.309-0.083 0.114-0.14 0.222-0.175 0.295-0.019-4e-3 -0.039-8e-3 -0.059-0.011" fill="#f29200"/>
      </g>
     </g>
    </g>
    <g transform="matrix(.35278 0 0 -.35278 -151.03 195.14)">
     <g clip-path="url(#ba)">
      <path d="m374.55 130.07c-0.013-1e-3 -0.027-2e-3 -0.042-3e-3 -0.05-0.069-0.153-0.228-0.192-0.393-0.031-0.131-0.025-0.256-0.015-0.339 0.113 3e-3 0.229 0.01 0.342 0.022-0.038 0.069-0.093 0.187-0.126 0.341-0.028 0.129 0.017 0.299 0.039 0.373-2e-3 0-4e-3 -1e-3 -6e-3 -1e-3" fill="url(#d)"/>
     </g>
    </g>
    <g transform="matrix(.35278 0 0 -.35278 -151.03 195.14)">
     <g clip-path="url(#az)">
      <g transform="translate(375.21,129.7)">
       <path d="m0 0c0.042-0.054 0.084-0.096 0.119-0.125 0.028 0.022 0.053 0.047 0.073 0.074 0.043 0.058 0.058 0.117 0.052 0.175-0.029 5e-3 -0.059 0.012-0.086 0.02-0.088 0.028-0.299 0.12-0.299 0.12s0.084-0.191 0.141-0.264" fill="#f29200"/>
      </g>
     </g>
    </g>
    <g transform="matrix(.35278 0 0 -.35278 -151.03 195.14)">
     <g clip-path="url(#ay)">
      <path d="m375.46 129.83c3e-3 -0.053-0.013-0.106-0.053-0.161-0.254-0.335-1.211-0.326-1.673-0.293-0.491 0.035-1.253 0.23-1.431 0.454h-0.013c0.143-0.233 0.938-0.44 1.446-0.476 0.462-0.034 1.421-0.045 1.672 0.293 0.045 0.06 0.06 0.122 0.052 0.183z" fill="url(#c)"/>
     </g>
    </g>
    <g transform="matrix(.35278 0 0 -.35278 -151.03 195.14)">
     <g clip-path="url(#ax)">
      <g transform="translate(375.09,133.85)">
       <path d="m0 0c-0.063-0.077-0.218-0.366-0.317-0.778-0.088-0.368-0.12-0.889-0.13-1.096 0.013 0.026 0.028 0.052 0.045 0.08 6e-3 0.213 0.027 0.647 0.115 1.009 0.105 0.432 0.219 0.73 0.385 0.891-0.033-0.031-0.069-0.07-0.098-0.106" fill="#ffee59"/>
      </g>
     </g>
    </g>
    <g transform="matrix(.35278 0 0 -.35278 -151.03 195.14)">
     <g clip-path="url(#aw)">
      <path d="m374.64 133.95h0.545v-1.98h-0.545z" fill="#ffee59"/>
     </g>
    </g>
    <g transform="matrix(.35278 0 0 -.35278 -151.03 195.14)">
     <g clip-path="url(#av)">
      <g transform="translate(374.54,130.79)">
       <path d="m0 0c0.021 0.057 0.044 0.112 0.069 0.164-8e-3 0.028-0.02 0.063-0.039 0.097-0.012 0.025-0.029 0.051-0.044 0.074-0.015-0.097-0.025-0.195-0.03-0.293z" fill="#fff49f"/>
      </g>
      <g clip-path="url(#au)" opacity=".60001">
       <g clip-path="url(#at)">
        <g transform="translate(375.3,130.92)">
         <path d="m0 0-0.125-0.204s-0.064 3e-3 -0.106-5e-3c-9e-3 -1e-3 0.196 0.197 0.196 0.197z" fill="#ffd800"/>
        </g>
       </g>
      </g>
      <g clip-path="url(#as)" opacity=".60001">
       <g clip-path="url(#ar)">
        <g transform="translate(375.01,130.71)">
         <path d="m0 0 0.143 0.155-0.044-0.018-0.202-0.153z" fill="#ffd800"/>
        </g>
       </g>
      </g>
     </g>
    </g>
    <g transform="matrix(.35278 0 0 -.35278 -151.03 195.14)">
     <g clip-path="url(#aq)">
      <path d="m374.96 130.54-0.023-0.035c0.177-0.033 0.305-0.11 0.387-0.205 0.021-0.025 0.065-0.106 0.055-0.078-0.088 0.269 0.308 0.248 0.308 0.248-0.041 8e-3 -0.081 0.016-0.121 0.022-0.202 0.035-0.392 0.05-0.536 0.05-0.025 0-0.048-1e-3 -0.07-2e-3" fill="url(#b)"/>
     </g>
    </g>
    <g transform="matrix(.35278 0 0 -.35278 -151.03 195.14)">
     <g clip-path="url(#ap)">
      <g clip-path="url(#ao)" opacity=".8">
       <g clip-path="url(#an)">
        <path d="m374.86 130.35s0.081-0.087 0.036-0.149l0.34-0.058c-8e-3 5e-3 -0.191 0.134-0.269 0.171-0.05 0.025-0.07 0.037-0.07 0.037z" fill="url(#a)"/>
       </g>
      </g>
     </g>
    </g>
   </g>
  </g>
 </g>
 <g fill="#ee7f00">
  <g stroke-width="82.825">
   <path d="m288.65 118.71c0-15.24-10.602-21.452-20.126-21.452-9.442 0-20.126 6.2119-20.126 21.452v47.459c0 4.721-2.7332 7.6199-7.2058 7.6199-4.3897 0-7.1229-2.8989-7.1229-7.6199v-111.9c0-4.721 2.7332-7.7027 7.1229-7.7027 4.4726 0 7.2058 2.9817 7.2058 7.7027v41.744l0.33129 0.33131c6.3775-8.1997 15.405-11.513 24.019-11.513 13.418 0 30.314 8.531 30.314 33.047v48.287c0 4.721-2.816 7.6199-7.2058 7.6199s-7.2058-2.8989-7.2058-7.6199z"/>
   <path d="m353.45 160.97c17.642 0 23.854-17.31 23.854-32.053 0-14.743-6.2119-32.053-23.854-32.053-17.642 0-23.854 17.31-23.854 32.053 0 14.743 6.2119 32.053 23.854 32.053m0-76.53c24.516 0 38.265 21.452 38.265 44.477 0 23.025-13.749 44.477-38.265 44.477-24.516 0-38.265-21.452-38.265-44.477 0-23.025 13.749-44.477 38.265-44.477"/>
   <path d="m456.75 116.36c0-12.424-6.8745-20.126-18.636-20.126-11.595 0-18.47 7.7027-18.47 20.126v48.701c0 4.8038-2.816 7.7027-7.2058 7.7027s-7.2058-2.8989-7.2058-7.7027v-73.548c0-4.721 2.816-7.7027 7.2058-7.7027s7.2058 2.9817 7.2058 7.7027v2.5676l0.3313 0.33129c3.3958-4.3897 8.7794-10.602 21.866-10.602 8.531 0 17.393 3.5615 23.936 14.743 6.3775-9.1936 13.997-14.743 26.587-14.743 13.418 0 30.314 8.531 30.314 33.047v48.204c0 4.8038-2.816 7.7027-7.2058 7.7027-4.3897 0-7.2057-2.8989-7.2057-7.7027v-48.701c0-12.424-6.8745-20.126-18.636-20.126-11.595 0-18.47 7.7027-18.47 20.126v48.701c0 4.8038-2.816 7.7027-7.2058 7.7027s-7.2058-2.8989-7.2058-7.7027z"/>
   <path d="m596.68 123.4c0-12.424-7.2058-26.835-23.025-26.835-17.89-0.6626-24.268 13.583-24.765 26.835zm-47.79 10.767c0 14.908 9.5249 26.504 25.676 26.504 19.133 0 24.102-11.761 29.486-11.761 2.5676 0 5.218 2.3191 5.218 6.3775 0 7.0401-17.807 17.807-34.869 17.807-27.746 0-39.839-21.369-39.839-44.477 0-23.522 14.66-44.477 39.093-44.477 23.688 0 37.437 21.452 37.437 42.406 0 5.0523-1.8221 7.6199-8.034 7.6199z"/>
  </g>
  <g stroke-width="37.639">
   <path d="m286 21.663c0 1.5432-1.1668 2.8229-2.7476 2.8229-2.8229 0-3.7639-3.3498-10.162-3.3498-4.7048 0-8.2052 3.0111-8.2052 7.3395 0 11.404 24.54 5.9469 24.54 23.374 0 8.544-6.248 16.335-17.502 16.335-6.8126 0-14.378-2.6347-14.378-6.248 0-1.7314 0.8657-3.2746 2.71-3.2746 2.1454 0 5.1941 3.9897 11.743 3.9897 6.5867 0 10.576-4.7801 10.576-10.501 0-12.27-24.503-6.3233-24.503-23.223 0-6.0222 5.6458-13.286 15.244-13.286 6.3609 0 12.684 2.6723 12.684 6.0222"/>
   <path d="m303.29 43.001h9.4473c6.2856 0 10.576-4.7048 10.576-10.576 0-5.0812-2.8982-10.765-10.878-10.765h-9.1462zm0 21.83c0 2.1078-1.2421 3.4251-3.1993 3.4251s-3.1993-1.3174-3.1993-3.4251v-45.204c0-1.9572 1.0162-3.4627 3.4251-3.4627h12.609c10.388 0 16.787 7.2642 16.787 16.26 0 8.9956-7.1137 16.109-16.561 16.109h-9.8613z"/>
   <path d="m342.76 62.205h15.394c1.8066 0 3.124 0.94096 3.124 2.9734 0 2.0325-1.3173 2.9734-3.124 2.9734h-18.368c-2.4089 0-3.4251-1.5055-3.4251-3.4627v-44.715c0-1.9572 1.0163-3.5004 3.4251-3.5004h18.368c1.8066 0 3.124 0.94096 3.124 2.9734 0 2.0325-1.3173 3.0111-3.124 3.0111h-15.394v16.9h14.002c1.8066 0 3.124 0.94097 3.124 2.9734s-1.3173 2.9734-3.124 2.9734h-14.002z"/>
   <path d="m374.98 64.339c0 2.1078-1.2421 3.4251-3.1993 3.4251-1.9572 0-3.1993-1.3173-3.1993-3.4251v-45.731c0-2.0701 1.2421-3.3875 3.1993-3.3875 1.9572 0 3.1993 1.3173 3.1993 3.3875v18.895l22.131-20.25c1.1668-1.0915 2.183-2.0325 3.5004-2.0325 1.5808 0 2.7476 1.0915 2.7476 2.7476 0 1.6937-0.60221 2.2583-1.3173 2.8982l-21.191 19.083 23.148 22.357c1.0163 0.94096 1.3174 1.6561 1.3174 2.5971 0 1.5432-1.3926 2.8605-3.124 2.8605-0.94095 0-1.8066-0.15056-3.124-1.3926l-24.089-23.675z"/>
   <path d="m420.43 21.663h-9.6355c-1.8443 0-3.124-0.94096-3.124-2.9734s1.2797-2.9734 3.124-2.9734h25.669c1.8066 0 3.124 0.94096 3.124 2.9734s-1.3174 2.9734-3.124 2.9734h-9.6355v42.757c0 2.0701-1.2421 3.3875-3.1993 3.3875-1.9572 0-3.1993-1.3174-3.1993-3.3875z"/>
   <path d="m451.8 39.8h8.6945c6.6997 0 9.5979-2.8229 9.5979-9.5226 0-4.7801-3.7639-8.8451-9.7484-8.8451h-8.544zm0 24.804c0 2.1078-1.2421 3.4251-3.1993 3.4251-1.9572 0-3.1993-1.3173-3.1993-3.4251v-45.204c0-1.9572 1.0162-3.4627 3.4251-3.4627h11.818c8.1299 0 15.808 5.4952 15.808 13.926 0 10.426-6.3609 14.378-14.077 14.641l-2.7476 0.07528 16.486 18.067c0.86569 0.94096 1.2421 1.769 1.2421 2.8982 0 1.3926-1.3174 2.4841-2.8982 2.4841-1.3174 0-2.183-0.63986-2.9358-1.4679l-19.723-21.605z"/>
   <path d="m483.81 18.462c0-2.1078 1.2421-3.4251 3.1993-3.4251 1.9572 0 3.1993 1.3174 3.1993 3.4251v30.713c0 8.1299 5.4952 12.91 13.625 12.91s13.663-4.7801 13.663-12.91v-30.713c0-2.1078 1.2044-3.4251 3.1616-3.4251 1.9572 0 3.1993 1.3174 3.1993 3.4251v28.229c0 17.427-11.179 20.889-20.024 20.889-8.8451 0-20.024-3.4628-20.024-20.889z"/>
   <path d="m536.51 65.406c-0.30114 2.2583-1.7314 2.7476-3.4251 2.7476-1.9572 0-2.9735-1.3173-2.9735-3.2746 0-0.71514 0.15057-1.6561 0.37639-2.8982l7.0384-41.478c0.63985-3.6509 2.6724-4.893 5.0059-4.893 2.5594 0 3.9144 0.94096 4.6296 3.3498l11.066 37.827h0.1128l11.028-37.827c0.75276-2.4089 2.1078-3.3498 4.6672-3.3498 2.296 0 4.3284 1.2421 5.0059 4.893l7.0384 41.478c0.22584 1.2421 0.33874 2.183 0.33874 2.8982 0 1.9572-1.0162 3.2746-2.9734 3.2746-1.6561 0-3.124-0.4893-3.3875-2.7476l-6.0221-41.515h-0.15056l-12.345 41.666c-0.63986 2.1078-1.8066 2.5971-3.2746 2.5971-1.4303 0-2.5971-0.4893-3.2369-2.5971l-12.345-41.666h-0.15057z"/>
  </g>
 </g>
</svg>
