<svg width="600" height="199.55" version="1.1" viewBox="0 0 158.75 52.798" xmlns="http://www.w3.org/2000/svg">
 <defs>
  <linearGradient id="a" x2="1" gradientTransform="matrix(158.76 0 0 118.6 -1e-6 26.39)" gradientUnits="userSpaceOnUse">
   <stop stop-color="#bc2027" offset="0"/>
   <stop stop-color="#bc2027" offset=".56147"/>
   <stop stop-color="#f16421" offset=".98022"/>
   <stop stop-color="#f16120" offset="1"/>
  </linearGradient>
 </defs>
 <path d="m0 52.798h158.75v-52.798h-158.75z" fill="url(#a)" stroke-width=".86432"/>
 <g fill="#fff">
  <g stroke-width=".74704">
   <path d="m21.739 42.661c0.18343 0.68628 0.34156 1.6888 0.34156 1.6888s0.18343-1.0025 0.36686-1.6888l2.97-11.559c0.04429-0.18343 0.136-0.27514 0.31942-0.27514h0.59456c0.20557 0 0.27514 0.06954 0.22771 0.27514l-3.814 14.987c-0.04744 0.18026-0.16129 0.27197-0.34156 0.27197h-0.68627c-0.18343 0-0.27514-0.09172-0.31942-0.27197l-2.995-11.743c-0.13598-0.45857-0.27198-1.303-0.29728-1.4643l-0.31942 1.4643-2.9696 11.743c-0.04429 0.18026-0.15813 0.27197-0.34156 0.27197h-0.68627c-0.18343 0-0.29728-0.09172-0.34156-0.27197l-3.7922-14.987c-0.0475-0.206 0.0221-0.275 0.2056-0.275h0.70841c0.18026 0 0.27198 0.09172 0.31942 0.27514l2.9222 11.559 0.36686 1.6002c0.02212-0.117 0.20556-1.0279 0.3637-1.6002l2.973-11.559c0.04431-0.18343 0.11385-0.27514 0.31941-0.27514h0.63884c0.18343 0 0.27514 0.09172 0.31942 0.27514z"/>
   <path d="m35.903 46.09c0 0.18343-0.06954 0.27514-0.24984 0.27514h-0.68628c-0.18343 0-0.27514-0.09172-0.27514-0.27514v-14.987c0-0.18343 0.09172-0.27198 0.27514-0.27198h0.68628c0.18026 0 0.24984 0.08855 0.24984 0.27198z"/>
   <path d="m53.384 34.003c0-1.3694-0.75272-2.3308-3.4029-2.3308s-3.4061 0.96144-3.4061 2.3308v0.84438c0 1.167 0.82227 1.7141 1.439 1.9418l4.3865 1.6699c1.1448 0.43327 2.2865 1.2998 2.2865 2.8558v2.0082c0 1.7837-1.0974 3.2227-4.7312 3.2227-3.6306 0-4.7501-1.439-4.7501-3.2227v-1.186c0-0.20556 0.09172-0.29728 0.27514-0.29728h0.66098c0.18343 0 0.27514 0.09172 0.27514 0.29728v1.05c0 1.3694 0.84438 2.3308 3.5168 2.3308 2.6976 0 3.5642-0.96144 3.5642-2.3308v-1.6224c0-1.2334-1.0057-1.7805-1.8944-2.1253l-4.25-1.645c-0.914-0.342-1.964-1.256-1.964-2.695v-1.2334c0-1.7837 1.0057-3.2227 4.5921-3.2227 3.5642 0 4.5921 1.439 4.5921 3.2227v1.1195c0 0.18027-0.06954 0.27198-0.27514 0.27198h-0.664c-0.18026 0-0.24984-0.09172-0.24984-0.27198z"/>
   <path d="m71.612 34.003c0-1.3694-0.75272-2.3308-3.4029-2.3308s-3.4061 0.96144-3.4061 2.3308v0.84438c0 1.167 0.82227 1.7141 1.439 1.9418l4.3865 1.6699c1.1448 0.43327 2.2865 1.2998 2.2865 2.8558v2.0082c0 1.7837-1.0974 3.2227-4.7312 3.2227-3.6306 0-4.7501-1.439-4.7501-3.2227v-1.186c0-0.20556 0.09172-0.29728 0.27514-0.29728h0.66098c0.18343 0 0.27514 0.09172 0.27514 0.29728v1.05c0 1.3694 0.84438 2.3308 3.5168 2.3308 2.6976 0 3.5642-0.96144 3.5642-2.3308v-1.6224c0-1.2334-1.0057-1.7805-1.8944-2.1253l-4.25-1.645c-0.914-0.342-1.964-1.256-1.964-2.695v-1.2334c0-1.7837 1.0057-3.2227 4.5921-3.2227 3.5642 0 4.5921 1.439 4.5921 3.2227v1.1195c0 0.18027-0.06954 0.27198-0.27514 0.27198h-0.66414c-0.18026 0-0.24984-0.09172-0.24984-0.27198z"/>
   <path d="m82.376 46.366c-0.16129 0-0.24984-0.09172-0.24984-0.27514v-14.984c0-0.18343 0.08855-0.27514 0.27198-0.27514h7.7924c0.18026 0 0.27198 0.06954 0.27198 0.27514v0.49969c0 0.20556-0.09172 0.27514-0.27198 0.27514h-6.8564v5.8033h6.4421c0.18343 0 0.27514 0.06954 0.27514 0.27514v0.47755c0 0.18343-0.09172 0.27514-0.27514 0.27514h-6.4421v6.6034h7.1284c0.18343 0 0.27514 0.06641 0.27514 0.27198v0.50285c0 0.20556-0.09172 0.27514-0.27514 0.27514z"/>
   <path d="m109.06 46.09c0 0.18343-0.0695 0.27514-0.24984 0.27514h-0.61986c-0.136 0-0.20557-0.04744-0.24984-0.13915l-6.5339-11.628c-0.34156-0.54713-0.70842-1.2999-0.73056-1.3694v12.861c0 0.18343-0.0695 0.27514-0.253 0.27514h-0.6167c-0.18027 0-0.27198-0.09172-0.27198-0.27514v-14.987c0-0.18343 0.09172-0.27198 0.27198-0.27198h0.6167c0.11702 0 0.18343 0.04429 0.23087 0.11385l6.6003 11.717c0.20557 0.36686 0.66414 1.303 0.66414 1.303v-12.862c0-0.18343 0.0917-0.27198 0.27198-0.27198h0.61986c0.18027 0 0.24984 0.08855 0.24984 0.27198z"/>
   <path d="m109.05 27.556h-99.719l-3e-3 -1.4484h99.722z"/>
   <path d="m85.805 8.7303v3.2448h2.1379v-2.0113h1.4484v9.5283h-1.445v2.325h5.5914v-2.325h-1.445v-9.5246h1.446v2.0116h2.1379v-4.3835h-9.8707z"/>
   <path d="m109.06 7.5873h-3.605l-2.15 10.794-2.14-10.794-3e-3 3e-3v-3e-3h-3.599v2.3719h1.3188l2.3466 11.835 0.01-3e-3v0.02533h4.1461v-0.02212l2.3498-11.835h1.322z"/>
   <path d="m16.48 7.5948h-5.6009c-0.82227 0-1.5117 0.68944-1.5117 1.5086v6.4833h5.8317v3.8994h-3.077v-2.675h-2.7548v3.4599c0 0.84124 0.68944 1.5465 1.5307 1.5465h5.6009c0.84125 0 1.5117-0.6673 1.5117-1.4896v-7.113h-5.889v-3.2514h3.0771v1.9703h2.8115v-2.8465c0-0.84124-0.68944-1.4927-1.5307-1.4927"/>
   <path d="m26.991 13.213h-3.172v-3.2516h3.172zm1.2619-5.6199h-8.3557v2.3687h1.11v9.5222h-1.091v2.3308h4.9525v-2.3308h-1.05v-3.8994h4.4339c0.84125 0 1.5086-0.70841 1.5086-1.5497v-4.9336c0-0.84124-0.6673-1.5086-1.5086-1.5086"/>
   <path d="m31.144 7.5948v2.3687h1.0721v9.5226h-1.0721v2.3308h4.8767v-2.331h-1.053v-9.5225h1.0531v-2.3687h-3.2037z"/>
   <path d="m38.473 7.5948h-0.67362v2.3687h1.0341v9.5226h-1.0341v2.3308h9.7317v-5.0064h-2.7325v2.6755h-3.2321v-3.8994h4.3011v-2.372h-4.301v-3.2515h3.2321v1.9703h2.7325v-4.3393h-8.055z"/>
   <path d="m53.854 13.213h-0.77483v2.3719h2.2738v3.899h-3.172v-9.5226h3.0771v1.9703h2.8684v-2.8119c0-0.83811-0.67046-1.5276-1.5117-1.5276h-5.6199c-0.37951 0-0.72106 0.14546-0.98669 0.37634-0.31942 0.28146-0.52498 0.6926-0.52498 1.1512v11.206c0 0.43644 0.20872 0.82541 0.52498 1.1005 0.2783 0.24036 0.642 0.38899 1.0246 0.38899h7.1126v-8.6022h-3.3934z"/>
   <path d="m59.674 7.5948v2.3687h1.0341v9.5226h-1.0341v2.3308h9.7317v-5.0064h-2.7356v2.6755h-3.2289v-3.8994h4.3011v-2.372h-4.301v-3.2515h3.2289v1.9703h2.7356v-4.3393h-8.0554z"/>
   <path d="m78.432 16.806v2.675h-3.175v-9.5192h1.1859v-2.3719h-5.0474v2.3719h1.0721v9.5192h-1.0911v2.334h9.7691v-5.0095h-1.0405z"/>
  </g>
  <path d="m117.47 7.5877c-0.23857 0-0.35822 0.12366-0.35822 0.37217v38.213c0 0.24851 0.11964 0.37217 0.35822 0.37217h0.92422c0.21869 0 0.32798-0.12366 0.32798-0.37217 0.0134-6.3104 0.0114-12.496 8e-3 -18.574h10.677v18.574c0 0.24851 0.11959 0.37217 0.35822 0.37217h0.92422c0.21869 0 0.32798-0.12366 0.32798-0.37217 0.0282-13.267-5e-3 -26.064 0-38.213 0-0.24851-0.10923-0.37217-0.32798-0.37217h-0.92422c-0.23857 0-0.35822 0.12366-0.35822 0.37217v18.222h-10.677c-4e-3 -6.2108-0.0108-12.299-9e-3 -18.222 0-0.24851-0.10929-0.37217-0.32798-0.37217z"/>
  <path d="m134.52 7.6319c-0.21868 0-0.32798 0.12444-0.32798 0.37295v38.168c0 0.24851 0.10938 0.37295 0.32798 0.37295h6.848c4.2545 0 6.3812-1.4359 6.3812-4.3087v-30.296c0-2.8727-2.1267-4.3094-6.3812-4.3094h-6.848zm1.2824 1.4166h5.5655c1.6998 0 2.9171 0.27362 3.6527 0.82033 0.73558 0.54671 1.1033 1.3221 1.1033 2.3261v29.803c0 1.004-0.36776 1.7794-1.1033 2.3261-0.73557 0.54671-1.9529 0.82033-3.6527 0.82033h-5.5655v-36.096z"/>
 </g>
</svg>
