<svg width="600" height="267.13" version="1.1" viewBox="0 0 158.75 70.677" xmlns="http://www.w3.org/2000/svg">
 <defs>
  <linearGradient id="a" x2="1" gradientTransform="matrix(158.76 0 0 158.76 102.81 160.92)" gradientUnits="userSpaceOnUse">
   <stop stop-color="#bc2027" offset="0"/>
   <stop stop-color="#bc2027" offset=".56147"/>
   <stop stop-color="#f1511b" offset=".98022"/>
   <stop stop-color="#f1511b" offset="1"/>
  </linearGradient>
 </defs>
 <g transform="translate(-102.81 -125.59)">
  <path d="m102.81 196.27h158.75v-70.677h-158.75z" fill="url(#a)"/>
  <g fill="#fff">
   <path d="m131.91 182.7c0.24554 0.91866 0.45721 2.2607 0.45721 2.2607s0.24554-1.342 0.49108-2.2607l3.9752-15.473c0.0593-0.24554 0.18204-0.36831 0.42758-0.36831h0.79588c0.27518 0 0.36831 0.0931 0.30481 0.36831l-5.1055 20.062c-0.0635 0.2413-0.21591 0.36407-0.45722 0.36407h-0.91865c-0.24554 0-0.36831-0.12277-0.42758-0.36407l-4.0091-15.719c-0.18203-0.61385-0.36407-1.7442-0.39794-1.9601l-0.42758 1.9601-3.9752 15.719c-0.0593 0.2413-0.21168 0.36407-0.45722 0.36407h-0.91865c-0.24554 0-0.39795-0.12277-0.45722-0.36407l-5.0759-20.062c-0.0635-0.27517 0.0296-0.36831 0.27518-0.36831h0.94829c0.2413 0 0.36407 0.12277 0.42758 0.36831l3.9117 15.473 0.49108 2.1421c0.0296-0.15663 0.27517-1.3759 0.48685-2.1421l3.9794-15.473c0.0593-0.24554 0.1524-0.36831 0.42757-0.36831h0.85516c0.24554 0 0.36831 0.12277 0.42758 0.36831z"/>
   <path d="m150.87 187.29c0 0.24554-0.0931 0.36831-0.33444 0.36831h-0.91866c-0.24554 0-0.36831-0.12277-0.36831-0.36831v-20.062c0-0.24554 0.12277-0.36408 0.36831-0.36408h0.91866c0.2413 0 0.33444 0.11854 0.33444 0.36408z"/>
   <path d="m174.27 171.11c0-1.8331-1.0076-3.12-4.5552-3.12s-4.5594 1.287-4.5594 3.12v1.1303c0 1.5621 1.1007 2.2945 1.9262 2.5993l5.8718 2.2353c1.5325 0.57998 3.0608 1.7399 3.0608 3.8228v2.6882c0 2.3877-1.469 4.3139-6.3332 4.3139-4.86 0-6.3586-1.9262-6.3586-4.3139v-1.5876c0-0.27517 0.12277-0.39794 0.36831-0.39794h0.88479c0.24554 0 0.36831 0.12277 0.36831 0.39794v1.4055c0 1.8331 1.1303 3.12 4.7076 3.12 3.6111 0 4.7711-1.287 4.7711-3.12v-2.1718c0-1.651-1.3462-2.3834-2.5358-2.8449l-5.6898-2.2014c-1.2235-0.45721-2.629-1.6807-2.629-3.6069v-1.651c0-2.3877 1.3462-4.3139 6.147-4.3139 4.7711 0 6.147 1.9262 6.147 4.3139v1.4986c0 0.24131-0.0931 0.36408-0.36831 0.36408h-0.88903c-0.2413 0-0.33444-0.12277-0.33444-0.36408z"/>
   <path d="m198.67 171.11c0-1.8331-1.0076-3.12-4.5552-3.12s-4.5594 1.287-4.5594 3.12v1.1303c0 1.5621 1.1007 2.2945 1.9262 2.5993l5.8718 2.2353c1.5325 0.57998 3.0608 1.7399 3.0608 3.8228v2.6882c0 2.3877-1.469 4.3139-6.3332 4.3139-4.86 0-6.3586-1.9262-6.3586-4.3139v-1.5876c0-0.27517 0.12277-0.39794 0.36831-0.39794h0.88479c0.24554 0 0.36831 0.12277 0.36831 0.39794v1.4055c0 1.8331 1.1303 3.12 4.7076 3.12 3.6111 0 4.7711-1.287 4.7711-3.12v-2.1718c0-1.651-1.3462-2.3834-2.5358-2.8449l-5.6898-2.2014c-1.2235-0.45721-2.629-1.6807-2.629-3.6069v-1.651c0-2.3877 1.3462-4.3139 6.147-4.3139 4.7711 0 6.147 1.9262 6.147 4.3139v1.4986c0 0.24131-0.0931 0.36408-0.36831 0.36408h-0.88903c-0.2413 0-0.33444-0.12277-0.33444-0.36408z"/>
   <path d="m213.08 187.66c-0.21591 0-0.33444-0.12277-0.33444-0.36831v-20.058c0-0.24554 0.11853-0.36831 0.36407-0.36831h10.431c0.2413 0 0.36407 0.0931 0.36407 0.36831v0.66889c0 0.27517-0.12277 0.36831-0.36407 0.36831h-9.1781v7.7684h8.6235c0.24554 0 0.36831 0.0931 0.36831 0.36831v0.63925c0 0.24554-0.12277 0.36831-0.36831 0.36831h-8.6235v8.8394h9.5422c0.24554 0 0.36831 0.0889 0.36831 0.36407v0.67312c0 0.27517-0.12277 0.36831-0.36831 0.36831z"/>
   <path d="m248.8 187.29c0 0.24554-0.0931 0.36831-0.33444 0.36831h-0.82976c-0.18204 0-0.27517-0.0635-0.33444-0.18627l-8.7463-15.566c-0.45721-0.73239-0.94829-1.74-0.97793-1.8331v17.217c0 0.24554-0.0931 0.36831-0.33867 0.36831h-0.82552c-0.24131 0-0.36408-0.12277-0.36408-0.36831v-20.062c0-0.24554 0.12277-0.36408 0.36408-0.36408h0.82552c0.15664 0 0.24554 0.0593 0.30904 0.15241l8.8352 15.685c0.27518 0.49108 0.88903 1.7442 0.88903 1.7442v-17.217c0-0.24554 0.12277-0.36408 0.36407-0.36408h0.82976c0.2413 0 0.33444 0.11854 0.33444 0.36408z"/>
   <path d="m248.79 162.48h-133.49l-4e-3 -1.9389h133.49z"/>
   <path d="m217.67 137.28v4.3435h2.8618v-2.6925h1.9389v12.755h-1.9347v3.1116h7.4847v-3.1116h-1.9347v-12.75h1.9347v2.6925h2.8618v-5.8675h-13.213z"/>
   <path d="m248.8 135.75h-4.8257l-2.8703 14.449-2.866-14.449-4e-3 4e-3v-4e-3h-4.8177v3.1751h1.7653l3.1412 15.842 0.0127-4e-3v0.0339h5.55v-0.0296l3.1454-15.842h1.7696z"/>
   <path d="m124.87 135.76h-7.4974c-1.1007 0-2.0236 0.92289-2.0236 2.0194v8.6786h7.8064v5.2198h-4.1191v-3.5815h-3.6873v4.6314c0 1.1261 0.92289 2.0702 2.049 2.0702h7.4974c1.1261 0 2.0236-0.89326 2.0236-1.994v-9.521h-7.8827v-4.352h4.1191v2.6374h3.7635v-3.8101c0-1.1261-0.92289-1.9982-2.049-1.9982"/>
   <path d="m138.94 143.28h-4.2461v-4.352h4.2461zm1.6892-7.5228h-11.185v3.1708h1.4859v12.747h-1.4605v3.1201h6.6295v-3.12h-1.4055v-5.2198h5.9353c1.1261 0 2.0194-0.94829 2.0194-2.0744v-6.6042c0-1.1261-0.89326-2.0194-2.0194-2.0194"/>
   <path d="m144.5 135.76v3.1708h1.4351v12.747h-1.4351v3.12h6.528v-3.12h-1.4097v-12.747h1.4097v-3.1708h-4.2885z"/>
   <path d="m154.31 135.76h-0.90172v3.1708h1.3843v12.747h-1.3843v3.12h13.027v-6.7016h-3.6577v3.5815h-4.3265v-5.2198h5.7575v-3.1751h-5.7575v-4.352h4.3265v2.6374h3.6577v-5.8083h-10.783z"/>
   <path d="m174.9 143.28h-1.0372v3.1751h3.0438v5.2198h-4.2461v-12.747h4.1191v2.6374h3.8397v-3.7635c0-1.1219-0.89749-2.0448-2.0236-2.0448h-7.5228c-0.50801 0-0.96522 0.19473-1.3208 0.50378-0.42758 0.37677-0.70275 0.92712-0.70275 1.541v15c0 0.58422 0.2794 1.1049 0.70275 1.4732 0.37254 0.32174 0.85939 0.52071 1.3716 0.52071h9.521v-11.515h-4.5425z"/>
   <path d="m182.69 135.76v3.1708h1.3843v12.747h-1.3843v3.12h13.027v-6.7016h-3.6619v3.5815h-4.3223v-5.2198h5.7575v-3.1751h-5.7575v-4.352h4.3223v2.6374h3.6619v-5.8083h-10.783z"/>
   <path d="m207.8 148.09v3.5815h-4.2503v-12.743h1.5875v-3.1751h-6.7565v3.1751h1.4351v12.743h-1.4605v3.1243h13.077v-6.7058h-1.3928z"/>
  </g>
 </g>
</svg>
