<?xml version="1.0" encoding="UTF-8" standalone="no"?>
<svg xmlns:rdf="http://www.w3.org/1999/02/22-rdf-syntax-ns#" xmlns="http://www.w3.org/2000/svg" height="68.948mm" width="169.33mm" version="1.1" xmlns:cc="http://creativecommons.org/ns#" xmlns:dc="http://purl.org/dc/elements/1.1/" viewBox="0 0 599.99998 244.30287">
 <g transform="translate(-9.2616 -427.9)">
  <path d="m583.06 488.45v2.5l3.62-0.02v10.25h2.82v-10.25h3.61v-2.48h-10.05z"/>
  <path d="m605.04 488.45-2.94 8.3h-0.04l-2.93-8.3h-4.24v12.71h2.81v-9.74h0.04l3.2 9.74h2.15l3.34-9.74h0.03v9.74h2.8v-12.71h-4.22z"/>
  <path d="m89.254 438.98c-6.239 0-49.362-0.48-65.979 30.65-5.775 10.61-6.007 20.74-6.007 25.22-0.218 18.15 9.005 29.23 14.085 33.72 7.832 7.07 19.845 12.72 42.209 17.2 14.547 3.07 24.926 4.49 30.688 6.6 4.83 1.66 6.69 3.77 7.84 6.14 0.24 0.71 1.16 2.12 1.16 4 0 8.24-10.16 12.74-24.692 12.74-11.305 0-28.371-3.54-37.605-11.79-2.302-1.88-4.385-4.47-7.845-10.14l-33.846 32.68c3.405 3.91 6.917 7.27 11.712 10.93 19.368 14.86 41.979 18.87 65.747 18.87 6.919 0 34.379 0.47 55.369-15.33 6.14-4.65 17.51-15.22 20.62-33.77v105.5l46.61-47.97v-23.78c1.44 2.68 3.76 5.15 5.36 6.32 2.48 1.7 4.81 3.29 7.41 4.25l70.04-72.95c-3.31-28.76-18.7-52.65-51.45-52.65-13.6 0-22.59 4.48-26.99 8.01-1.38 0.94-2.3 1.89-4.6 4.73v-9.44h-46.38v58.3c-4.39-25.28-25.4-32.95-34.46-35.89-16.15-5.44-31.384-7.56-37.159-8.5-4.372-0.71-14.068-2.59-18.209-5.19-2.329-1.65-4.167-4.47-4.167-7.54 0-5.66 5.543-8.25 6.469-8.73 4.835-2.12 11.073-2.12 12.217-2.12 12.231 0 28.619 2.6 38.069 11.56 1.39 1.17 2.55 2.59 4.62 5.42l30.59-29.56c-3.42-3.52-6.21-6.38-10.53-9.58-23.29-17.45-52.588-17.91-60.896-17.91zm138.98 82.96c2.31 0 8.53 0.91 12.67 6.35 4.63 6.1 5.1 15.4 5.1 22.63 0 8.63-1.16 19.94-9.7 25.16-3.92 2.26-7.14 2.48-9.22 2.48-1.62 0-4.62 0-8.31-2.03-9.24-4.98-9.92-16.98-9.92-26.04 0-9.31 0.47-21.07 10.15-26.29 3.69-2.04 7.4-2.26 9.23-2.26z"/>
  <path d="m339.81 487.75-47.54 49.75v73.35h47.54v-123.1z"/>
  <path d="m316.02 487.4c13.11 0 23.74-10.87 23.74-24.28 0-13.4-10.63-24.25-23.74-24.25s-23.75 10.85-23.75 24.25c0 13.41 10.64 24.28 23.75 24.28"/>
  <path d="m397.7 576.66 12.45-12.26 25.85 46.45h54.21l-13.97-22.95-1.84-3.01-31.71-52.07 45.45-44.11h-57.91l-32.53 34.91v-95.72l-47.53 49.45v133.5h47.53v-34.19z"/>
  <path d="m528.3 485.63c-6.43 0-29.24 1.12-45.64 17.19-6.64 6.57-17.49 21.5-17.49 45.71 0 12.38 3 24.27 8.73 34.39l1.76 2.89c6.08 9.44 14.72 17.12 25.83 21.79 8.64 3.63 17.71 4.98 27.24 4.98 9.51 0 18.61-1.35 27.25-4.98 17.1-7.19 28.44-21.46 33.42-38.46h-41.12c-2.16 4.62-6.92 10.68-17.18 10.49l-0.16-0.08c-12.17 0.21-17.84-8.38-19.39-12.9-1.12-3.62-1.12-9.06-1.12-9.06h81.19c0-10.64-0.22-20.59-3.32-30.78-2.43-7.92-6.65-15.61-12.18-21.73-16.6-18.33-40.08-19.45-47.82-19.45zm0.87 29.64c3.56 0 11.96 1.35 15.05 11.09 0.9 2.94 0.9 5.2 1.12 6.56h-34.46c0.43-2.49 1.55-12 9.95-15.84 1.34-0.68 4.8-1.59 8.34-1.81z"/>
 </g>
</svg>
