<svg version="1.1" viewBox="0 0 800.01 182.51" xml:space="preserve" xmlns="http://www.w3.org/2000/svg">
	<path d="m229.81 35.304h37.746v42.187l-37.746-20.65z" fill="#ec1c24" stroke-width="2.2204"/>
	<path d="m21.76 146.99c-8.8815-1.9983-15.987-4.8848-21.76-8.4374l12.212-27.533a82.598 82.598 0 0 0 37.08 10.436c5.3289 0 8.8815-0.44407 11.324-1.5543 2.4424-1.1102 3.3306-2.4424 3.3306-4.6628 0-2.4424-1.5543-4.2187-4.4408-5.3289s-7.7713-2.4424-14.432-3.7746c-8.6595-1.7763-15.765-3.7746-21.538-5.773-5.773-1.9983-10.88-5.5509-15.099-10.214-4.2187-4.6628-6.4391-11.102-6.4391-19.317 0-7.1052 1.9983-13.544 5.995-19.317 3.9967-5.773 9.7697-10.214 17.763-13.544 7.7713-3.3306 17.319-4.8848 28.643-4.8848 7.7713 0 15.321 0.88815 22.648 2.4424s13.988 3.9967 19.539 7.3272l-11.324 27.311c-11.102-5.5509-21.316-8.4374-31.307-8.4374-9.7697 0-14.654 2.4424-14.654 7.1052 0 2.2204 1.5543 3.9967 4.2187 5.1069 2.8865 1.1102 7.5493 2.2204 14.21 3.5526 8.4374 1.5543 15.765 3.5526 21.538 5.5509 5.773 1.9983 10.88 5.5509 15.321 10.214 4.2187 4.6628 6.4391 11.102 6.4391 19.317 0 7.1052-1.9983 13.544-5.995 19.095a38.857 38.857 0 0 1-17.763 13.544 72.606 72.606 0 0 1-28.643 5.1069c-9.1035-0.22204-17.985-1.3322-26.867-3.3306zm171.64-106.58c7.7713 3.3306 13.544 8.4374 17.763 14.654 4.2187 6.4391 6.4391 13.988 6.4391 22.426a38.857 38.857 0 0 1-23.98 37.08 67.722 67.722 0 0 1-27.089 5.1069h-16.209v27.533h-37.746v-111.91h53.955c10.214 0 19.317 1.7763 26.867 5.1069zm-17.985 46.85c2.6645-2.2204 3.7746-5.5509 3.7746-9.7697 0-4.2187-1.3322-7.3272-3.7746-9.7697a17.541 17.541 0 0 0-11.546-3.5526h-13.766v26.2h13.766c5.3289 0.44408 9.1036-0.66611 11.546-3.1085zm54.399 10.88 37.746-20.65v69.942h-37.746zm56.176-62.837h37.746v82.82h50.625v29.309h-88.371zm192.06 83.708v28.421h-93.256v-112.13h91.258v28.421h-53.955v13.1h47.516v27.311h-47.516v14.654h55.954zm62.837 0.22204h-10.214v28.199h-37.746v-112.13h53.955c10.436 0 19.317 1.7763 27.089 5.1069 7.7713 3.3306 13.544 8.4374 17.763 14.654a39.967 39.967 0 0 1 6.2171 22.426 37.746 37.746 0 0 1-21.316 35.304l23.536 34.638h-40.411zm14.877-51.291a17.541 17.541 0 0 0-11.546-3.5526h-13.766v26.2h13.766c5.1069 0 8.8815-1.1102 11.546-3.5526 2.6645-2.2204 3.7746-5.5509 3.7746-9.7697a11.102 11.102 0 0 0-3.7746-9.3256z" stroke-width="2.2204"/>
	<path d="m708.74 182.52a91.258 91.258 0 1 0 0-182.51 91.258 91.258 0 0 0 0 182.51zm-32.418-147.21h57.064v112.13h-37.746v-83.708h-19.317z" fill="#ec1c24" stroke-width="2.2204"/>
</svg>
