<svg xmlns="http://www.w3.org/2000/svg" width="200.001" height="33.974" viewBox="0 0 52.917 8.989">
    <path d="M1.376 3.804h-1.4c-.005.4.02.81.085 1.219h1.405c-.07-.41-.096-.82-.091-1.219M1.85 6.323H.442c.204.463.463.867.752 1.219h1.413a5.36 5.36 0 0 1-.757-1.219M1.737 1.283H.342a8.693 8.693 0 0 0-.259 1.219h1.398c.075-.518.168-.92.256-1.219" fill="#e9eaea"/>
    <path d="M52.837 2.834l-.035-.332c-.055-.47-.123-.875-.199-1.219h-9.606c.098.287.204.686.289 1.219.033.214.063.447.085.704.02.204.033.402.035.598.01.425-.015.832-.078 1.219a5.262 5.262 0 0 1-.309 1.151l-.06.148c-.199.46-.455.865-.739 1.219h9.694c.178-.297.342-.618.478-.963l.096-.256c.141-.41.244-.842.309-1.3.058-.39.085-.797.085-1.219 0-.314-.015-.639-.045-.97" fill="#bbbcbd"/>
    <path d="M5.839.126c.096-.003.95.005 1.805.5.319.186.676.266.955.297.277.03.568.008.568.008l.05.085c.015.023.392.639.543 2.248.078.862.033 1.815-.314 2.69-.928 2.348-3.479 3.122-3.608 3.16-.131-.038-2.68-.812-3.61-3.16-.344-.875-.392-1.828-.312-2.69.151-1.609.528-2.225.541-2.248L2.51.931s.292.023.566-.008c.282-.03.636-.111.958-.297a3.78 3.78 0 0 1 1.805-.5" fill="#fff"/>
    <path d="M5.843 8.987c-.096-.028-2.579-.784-3.489-3.09H9.33c-.913 2.305-3.391 3.062-3.487 3.09m3.766-4.143H2.072c.028.184.063.357.108.528h7.323c.043-.171.078-.344.106-.528m.05-1.053H2.021l-.003.304.005.221h7.633l.008-.224-.005-.302m-7.61-.528h7.585c-.111-1.589-.518-2.195-.518-2.195s-.83.07-1.531-.337C6.718.225 5.843.247 5.843.247S4.968.224 4.101.73c-.699.407-1.531.337-1.531.337s-.41.593-.52 2.195" fill="#278556" fill-rule="evenodd"/>
    <path d="M8.652 6.645l-.173.206-.178.171-.402-.422.113-.108.327.344.106-.106.126-.151zm-.98.126l-.156.098.038.634.146-.073-.01-.128.274-.168.103.07.133-.096zm.199.299l-.196.126-.02-.264zm-.581.106a.533.533 0 0 0-.241.028c-.161.055-.224.178-.196.259.035.096.176.118.299.075l.091-.053-.02-.063-.088.03-.033-.103.234-.078.078.221c-.028.055-.131.126-.226.158-.209.075-.43.02-.488-.141-.058-.168.085-.342.297-.415a.604.604 0 0 1 .251-.038zm-.767.058l.048.334c.015.191-.138.279-.309.292-.184.018-.332-.053-.349-.229l-.01-.332.158-.008.018.327c.008.08.073.131.171.126.083-.008.168-.055.156-.158l-.038-.324zm-.709.171l-.121-.003-.123-.008-.04.468-.158-.013.043-.468-.128-.015-.108-.018.013-.106.319.043.309.013zM4.65 7.108l-.163.553.151.045.068-.224.04.013c.098.023.101.138.131.274l.168.038c-.035-.189-.045-.249-.103-.292.08-.01.138-.048.156-.106.025-.083-.028-.184-.151-.219zm.123.148l.073.02c.058.02.106.048.096.091-.013.048-.07.05-.126.038l-.083-.025zm-.329.106c.065-.123.013-.322-.199-.432-.211-.113-.407-.04-.473.083-.07.131-.01.329.194.44.204.103.407.04.478-.091m-.148-.075c-.05.093-.166.116-.272.055-.108-.053-.156-.161-.108-.254.05-.093.163-.111.272-.053.108.058.158.158.108.251m-.747-.882l-.41.405.108.108.168-.158.085.088c.113.111.224.111.289.05.08-.083.048-.199-.043-.294zm.035.186l.04.04c.058.063.085.116.05.151-.03.028-.083.008-.133-.045l-.053-.05.096-.096" fill="#fff" fill-rule="evenodd"/>
    <path d="M3.517 1.771l.075-.06c.088-.078.143-.096.181-.053.048.053.005.116-.053.163l-.098.085zm.116-.274c-.116.073-.194.146-.36.299l.458.551.148-.133-.166-.209.146-.123c.138-.116.138-.264.08-.347-.063-.088-.186-.116-.307-.038M4.801 1.354c.043.118-.055.254-.191.307-.163.063-.302.005-.337-.123-.035-.126.07-.249.184-.297.168-.065.302-.018.344.113m.194-.075c-.06-.206-.284-.309-.581-.184-.284.121-.375.332-.327.505.05.186.244.329.573.201.287-.108.387-.349.334-.523M5.346 1.025l.108-.013c.073-.005.151-.005.161.065.013.085-.07.108-.138.113l-.113.01zM5.132.922l.08.716.196-.025-.03-.282.06-.008c.108-.01.173.118.274.266h.231c-.128-.199-.214-.342-.284-.329.073-.015.176-.088.163-.204C5.804.878 5.636.867 5.49.878l-.36.043M6.711 1.086l-.138-.028-.146-.025-.073.593-.196-.023.073-.596-.146-.01-.141-.008.008-.121.402.028.382.068-.025.121M6.905 1.756l-.189-.053.194-.696.194.055zM7.763 2.213l-.138-.103-.163-.593-.189.39-.184-.08.312-.651.161.073.186.621.249-.38.171.121zM8.746 2.626a.97.97 0 0 0-.148-.344c-.116-.166-.256-.181-.352-.108-.08.06-.111.204-.023.347l.141.156.08-.045-.07-.133.101-.055.156.307-.229.121c-.083-.033-.226-.166-.299-.272-.158-.226-.146-.47.03-.596.181-.126.412-.05.578.181.075.103.146.254.171.344l-.136.098M3.189 2.127a1.03 1.03 0 0 0-.209.216c-.045.07-.053.126-.023.146.083.06.307-.347.515-.216.108.068.108.226 0 .4-.083.138-.153.189-.231.246l-.131-.078a.629.629 0 0 0 .244-.221c.048-.075.045-.136.01-.156-.098-.065-.289.354-.503.221-.106-.063-.116-.209-.003-.392a.97.97 0 0 1 .211-.239l.118.073" fill="#fff"/>
    <path d="M5.843 7.064s2.142-.618 2.142-2.743c0-1.247-.309-1.692-.309-1.692s-.468.038-.857-.189c-.485-.282-.975-.272-.975-.272s-.488-.01-.975.272c-.392.226-.857.189-.857.189s-.309.445-.309 1.692c.003 2.124 2.142 2.743 2.142 2.743" fill="#278556"/>
    <path d="M5.843 6.941s2.031-.588 2.031-2.605c.005-1.187-.292-1.609-.292-1.609s-.44.038-.812-.178c-.463-.269-.928-.256-.928-.256s-.465-.013-.928.256c-.372.216-.812.178-.812.178s-.294.422-.294 1.609c0 2.016 2.034 2.605 2.034 2.605" fill="#fff"/>
    <path d="M5.843 6.819s1.928-.556 1.928-2.464c0-1.126-.279-1.529-.279-1.529s-.417.038-.769-.166c-.44-.256-.88-.244-.88-.244s-.44-.013-.877.244c-.352.204-.772.166-.772.166s-.279.402-.279 1.529c.003 1.908 1.928 2.464 1.928 2.464" fill="#278556"/>
    <path d="M5.087 3.21l.171.045c.128.008.375-.106.468-.018a.393.393 0 0 0-.229.023l-.241.055c-.151 0-.178-.116-.168-.106" fill="#f9b116"/>
    <path d="M6.524 3.256c-.005-.128-.108-.166-.173-.166l-.108.045c.003-.008-.013-.088.083-.108.083-.02.158.035.171.043 0-.015.005-.116-.156-.128-.078-.008-.189.023-.224-.018l.113-.023.085-.063c-.103.033-.246-.045-.334-.048-.123-.005-.146.053-.146.053l-.131-.025c-.02-.003-.128-.005-.128.06 0 .096.279.04.287.04l-.116.053-.07.053-.015-.03c-.018-.025-.05-.053-.151-.048-.033.003-.151.023-.151.07l.093.025-.03.025-.04.038.053.091s.038-.08.168-.08c.136 0 .201.078.199.141-.003.035-.03.078-.128.083l-.171-.023.015.08.065.121s.06-.098.138-.108l.085.043c-.003.088-.176.116-.211.126-.151.038-.199.08-.204.123l.131-.015c.101.005.146-.053.146-.053.008.075-.141.118-.277.166-.181.065-.214.178-.221.241 0 0-.329.234-.495.229l-.241-.093c-.113 0-.131.106-.131.106l.096-.018.078.038s-.113-.015-.176.033c-.085.063-.023.153-.023.153l.085-.063.123-.008c-.01.003-.116.018-.143.093-.023.063.035.108.053.113 0 0 .058-.126.259-.163a.54.54 0 0 1 .339.038l-.048-.068-.073-.043.06-.033.289.111.141-.04s-.05.02-.118-.055c-.06-.068-.138-.058-.138-.058l.123-.038.246.128.123.003-.058.05-.068.01s.013.153.465.269c.151.038.168.07.163.131-.01.101-.141.141-.148.329-.008.194.146.241.178.324.038.085-.015.153-.015.153l.121-.058c.065-.035.128.003.113.106-.013.093-.101.332-.211.327l-.146-.018c-.07 0-.08.053-.083.075l.033.096.063-.05.101-.01s-.096.05-.101.128l.023.078.075-.043c.06-.008.101-.025.166-.111l-.01.075v.096l.048-.038c.043-.02.116-.028.123-.085.01-.055-.068-.103-.025-.206.033-.08.093-.101.143-.126l.085-.078h-.106l-.058.028s0-.07.078-.131c.08-.06.206-.068.266-.161.06-.091.008-.143.008-.143l-.111.091-.131.093s-.008-.173.178-.239c.211-.078.148-.186.141-.201 0 0-.043.073-.126.075-.123.003-.131-.153-.131-.153l.178.01c.118-.023.153-.093.161-.126-.008.005-.108.088-.161.035 0 0 .206-.045.214-.284.008-.269-.201-.41-.309-.696-.04-.106-.096-.417.161-.47h.07s-.063.158.113.171c.166.013.241-.065.241-.065h-.148l-.068-.068.126.038c.113.008.153-.048.158-.063l-.111.013-.088-.055.136.008c.111-.018.128-.085.123-.106 0 0-.028.063-.158.04l-.153-.033a.172.172 0 0 0-.146.073l-.096-.003c-.053.005-.269.063-.261.365.005.304.302.644.292.87-.01.156-.121.196-.171.201-.111.008-.251-.048-.382-.36a1.135 1.135 0 0 1-.08-.515l-.058.083v.101s-.083-.028-.073-.151l.053-.274-.043-.151s.111.015.131.156c.038.244.133.224.136.224-.065-.101-.023-.251-.043-.38-.033-.194-.166-.151-.171-.151l.091-.068c.05 0 .096.05.138.156.04.103.098.083.098.083l-.065-.239c-.078-.204-.224-.161-.226-.161.005-.008.015-.07.093-.07.055-.003.108.04.136.108l.075.058-.035-.136" fill="#f9b116"/>
    <path d="M4.576 3.156s.08-.043.143.03c.05.058.055.234.209.322.224.128.447.111.447.111-.098.058-.116.118-.181.186-.158.153-.302.106-.309.091l.078-.043.093-.085.083-.035-.085-.005-.199.085-.126-.028.063-.013.088-.07.088-.028-.075-.03-.161.025.033-.075c.003-.038-.023-.133-.221-.143a.254.254 0 0 1-.191-.088l-.055-.033c.023-.038.101-.05.173-.01l.063.023-.106-.088-.078.005s.028-.083.123-.088c.096-.005.156.078.176.118l-.02-.075-.053-.058M5.787 4.734c-.07.045-.156.02-.294.028-.161.01-.199.128-.199.189l.091.254c-.008.101-.161.173-.266.163l-.264-.103c-.113.003-.118.096-.118.096l.085-.01.07.068s-.116-.05-.196.013c-.078.06-.02.163-.025.156l.075-.063.108-.008-.078.058-.033.085.131-.005.256-.136c.148-.02.261.043.261.043l-.033-.068-.075-.03.085-.025.231.058c.108.005.168-.055.168-.055l-.123-.04-.133-.023s.02-.08.141-.08c.123.003.236.065.236.065s-.065-.075-.035-.226a.378.378 0 0 1 .136-.214l-.158.035-.116.085.063-.121.121-.078-.184.025-.163.065s-.005-.068.108-.108c.143-.048.126-.093.126-.093" fill="#f9b116"/>
    <path d="M5.188 4.101s.04-.121.184-.148c.171-.035.194-.07.234-.118 0 0 .018.128-.141.191l-.201.038-.075.038M5.421 4.18s-.003-.08.204-.148c.226-.07.196-.189.196-.189.03.04.05.196-.116.269l-.196.03-.088.038M5.723 4.253l.045-.096c.093-.068.189-.07.241-.168l.025-.143.035.048c.015.033.04.158-.035.226-.055.053-.151.068-.221.08l-.091.053M5.4 4.27l.091-.033c.101.003.138.075.191.093l.048.008-.07.025-.191-.093h-.068M5.566 4.496l.219.035a.58.58 0 0 0 .246-.075s-.075.108-.239.118c-.148.01-.226-.078-.226-.078M5.789 4.614l.191.02.201-.038s-.05.073-.199.078c-.138.008-.194-.06-.194-.06M6.16 4.951s-.116.121-.111.249c.005.091.048.131.096.209l.035.083c.028-.058-.04-.166-.065-.256-.028-.121.045-.284.045-.284" fill="#278556"/>
    <path d="M13.179 2.461v.737a1.73 1.73 0 0 0-.558-.365 1.508 1.508 0 0 0-.503-.101c-.209 0-.38.05-.515.151a.462.462 0 0 0-.204.387c0 .166.063.302.184.415.123.113.272.221.447.322l.171.096.184.103c.241.143.465.314.669.518.204.204.304.485.304.842 0 .354-.121.646-.357.877-.241.231-.543.344-.91.344-.244 0-.468-.033-.674-.098a2.184 2.184 0 0 1-.593-.312v-.83c.168.214.354.38.558.493.204.113.415.168.636.168.209 0 .372-.043.488-.136a.624.624 0 0 0 .229-.302l.015-.065.005-.065a.65.65 0 0 0-.226-.503 3.678 3.678 0 0 0-.523-.387l-.116-.07-.111-.07a3.97 3.97 0 0 1-.676-.508c-.204-.186-.304-.437-.304-.747 0-.365.123-.659.375-.877.249-.219.583-.329.998-.329.171 0 .344.028.513.08.171.053.337.133.495.239zM14.685 4.187h.737c.244.005.435-.053.581-.178.143-.123.214-.299.214-.523v-.07a.747.747 0 0 0-.189-.432c-.113-.128-.304-.196-.581-.196h-.762zm.762-1.984c.495.005.86.133 1.094.387.231.256.347.561.347.918 0 .354-.123.656-.37.9-.244.246-.628.367-1.156.367h-.676v1.953h-.651V2.203zM17.922 4.467c0 .498.166.913.5 1.239.334.327.754.49 1.26.49.508 0 .928-.163 1.262-.49.334-.327.5-.739.5-1.234 0-.498-.166-.91-.5-1.237-.334-.324-.754-.488-1.262-.488-.505 0-.925.163-1.26.488-.334.327-.5.739-.5 1.237zm-.671 0c0-.623.221-1.166.666-1.627.44-.46 1.028-.691 1.765-.691.747 0 1.337.231 1.777.689.437.455.656 1.003.656 1.634 0 .611-.216 1.149-.651 1.617-.432.465-1.031.699-1.798.699-.739 0-1.325-.231-1.76-.696-.437-.465-.656-1.003-.656-1.619zM23.575 4.18h.42c.344.005.578-.065.701-.214a.76.76 0 0 0 .186-.503V3.45a.668.668 0 0 0-.211-.505c-.138-.123-.362-.184-.676-.184h-.42zm.49-1.976c.46.005.825.121 1.089.344.266.224.4.533.4.93 0 .259-.065.485-.199.674a1.174 1.174 0 0 1-.558.432 1.8 1.8 0 0 1 .349.299c.103.116.204.246.302.392l.173.269.184.294.075.126.078.113.015.03.023.028.181.256.244.337h-.777l-.596-.928c-.251-.392-.455-.654-.611-.789-.153-.133-.299-.211-.437-.229l-.075-.01-.078-.003h-.272v1.958h-.649V2.202zM29.719 2.788h-1.566v3.939h-.649V2.788h-1.566v-.583h3.781zM30.984 6.728h-.649V2.203h.649zM36.175 6.728h-.558l-3.024-3.484v3.484h-.611V2.203h.518l3.065 3.505V2.203h.611zM41.137 6.416l-.392.158-.372.113-.468.073c-.156.02-.322.025-.495.025-.691 0-1.267-.214-1.725-.644-.455-.432-.681-.98-.681-1.644 0-.666.231-1.224.696-1.674.463-.447 1.041-.674 1.732-.674l.244.008.234.025c.163.023.332.063.505.116.176.058.385.136.628.236v.651a4.182 4.182 0 0 0-.603-.264 3.574 3.574 0 0 0-.611-.148l-.209-.02-.204-.005c-.49 0-.903.163-1.239.495a1.664 1.664 0 0 0-.505 1.234c0 .505.171.918.515 1.239.342.322.782.48 1.317.48.176 0 .344-.018.508-.053l.473-.126v-.935h-.867v-.586h1.518z" fill="#211d1d"/>
    <path d="M47.801 2.788h-1.566v3.939h-.649V2.788H44.02v-.583h3.781zM50.003 6.767h-.133l-1.956-4.563h.651l1.36 3.175 1.353-3.175h.644z" fill="#278556"/>
</svg>
