<svg xmlns="http://www.w3.org/2000/svg" width="200.001" height="22.05" viewBox="0 0 52.917 5.834">
    <path d="M47.709.177l-2.256 5.648h7.448V.177z" fill="#f9da05"/>
    <path d="M51.32 4.885h-2.74v-.612c1.489-1.103 1.925-1.474 1.925-1.923 0-.323-.288-.474-.589-.474a1.3 1.3 0 0 0-.978.421l-.441-.514c.356-.409.895-.597 1.404-.597.78 0 1.391.436 1.391 1.163 0 .622-.514 1.163-1.457 1.853h1.484zM.422 4.381c.436.231 1 .446 1.604.439.677-.005 1.096-.213 1.096-.624 0-.303-.168-.489-.745-.639-.231-.063-.692-.181-.958-.266C.489 3-.012 2.481-.012 1.764-.012.836.68.092 2.174.092c.807 0 1.615.341 1.976.521l-.409.948a3.834 3.834 0 0 0-1.607-.381c-.674 0-.953.206-.953.526 0 .303.203.436.607.552l1.028.296c1.01.281 1.504.755 1.504 1.569 0 1.053-.97 1.782-2.319 1.782-.812 0-1.677-.379-1.971-.599zM6.998 1.174v2.068h1.063c.577 0 1.033-.391 1.033-1.025 0-.677-.456-1.043-1.033-1.043zM5.827.176h2.417c1.108 0 2.058.649 2.058 2.068 0 1.276-.95 2.031-2.058 2.031H6.998v1.552H5.827zM20.058 1.174v1.69h1.183c.534 0 .918-.313.918-.84 0-.559-.384-.85-.918-.85zM18.887.176h2.229c1.394 0 2.259.564 2.259 1.838 0 .9-.649 1.567-1.499 1.74l1.803 1.89v.183h-1.294l-1.893-2.033h-.434v2.033h-1.171zM27.502 1.21v4.618h-1.171V1.21h-1.655V.175h4.445V1.21zM36.601 1.21v4.618H35.43V1.21h-1.655V.175h4.445V1.21zM39.38.175h1.276l1.65 4.593 1.71-4.593h1.274l-2.251 5.653h-1.464z" fill="#100f0d"/>
    <path d="M32.606 3.002a1.139 1.139 0 1 1-2.277-.001 1.139 1.139 0 0 1 2.277.001M14.438 4.141a1.137 1.137 0 1 1-.001-2.275 1.137 1.137 0 0 1 .001 2.275m0-4.054a2.916 2.916 0 0 0-2.918 2.916c0 1.609 1.306 2.918 2.918 2.918s2.918-1.309 2.918-2.918A2.916 2.916 0 0 0 14.438.087" fill="#f9da05"/>
</svg>
