<svg version="1.1" viewBox="0 0 800 266.45" xml:space="preserve" xmlns="http://www.w3.org/2000/svg">
 <defs>
  <linearGradient id="a" x1="9.72" x2="9.72" y1="1.719" y2="20.733" gradientTransform="matrix(13.725 0 0 7.3914 .063236 -9.6679)" gradientUnits="userSpaceOnUse">
   <stop stop-color="#fff" stop-opacity="0" offset="0"/>
   <stop stop-color="#fff" stop-opacity=".12" offset=".26"/>
   <stop stop-color="#fff" stop-opacity=".22" offset=".5"/>
   <stop stop-color="#fff" stop-opacity=".26275" offset=".65549"/>
   <stop stop-color="#fff" stop-opacity=".29412" offset=".84171"/>
   <stop stop-color="#fff" stop-opacity=".3" offset="1"/>
  </linearGradient>
 </defs>
 <path d="m133.49 216.1c-45.611 0-82.717-37.031-82.717-82.551 0-45.515 37.105-82.551 82.717-82.551 45.611 0 82.717 37.036 82.717 82.551 0 45.52-37.105 82.551-82.717 82.551" fill="#d66449" stroke-width="1.3266"/>
 <path d="m127.22 0.15805c-70.813 3.2696-127.22 61.585-127.22 133.07 0 71.479 56.41 129.8 127.22 133.07l12.668-3e-3c70.753-3.3333 127.09-61.627 127.09-133.06 0-71.441-56.338-129.73-127.09-133.07z" fill="#454545" stroke-width="1.3266"/>
 <path d="m133.49 51.06c45.611 0 82.331 36.646 82.331 82.166 0 45.52-36.72 82.166-82.331 82.166-45.611 0-82.331-36.646-82.331-82.166 0-45.52 36.72-82.166 82.331-82.166z" fill="#d66449" stroke-width="1.3266"/>
 <path d="m127.22 0.15805v266.13c2.0794 0.096 4.1672 0.15806 6.2703 0.15806 2.1458 0 4.2764-0.0608 6.3973-0.16064v-266.13c-2.121-0.099917-4.2516-0.16065-6.3973-0.16065-2.1032 0-4.191 0.062042-6.2703 0.15805z" fill="#fff" stroke-width="1.3266"/>
 <path d="m133.49 108.68c13.761 0 24.916 11.137 24.916 24.87 0 13.733-11.155 24.866-24.916 24.866s-24.92-11.132-24.92-24.866c0-13.733 11.159-24.87 24.92-24.87z" fill="#fff" stroke-width="1.3266"/>
 <path d="m133.51 44.734c-49.149 0-88.997 39.758-88.997 88.807 0 49.044 39.848 88.833 88.997 88.833 49.149 0 88.997-39.789 88.997-88.833 0-49.049-39.848-88.807-88.997-88.807m0 12.625c42.092 0 76.342 34.181 76.342 76.194 0 42.008-34.25 76.189-76.342 76.189-42.097 0-76.347-34.181-76.347-76.189 0-42.013 34.25-76.194 76.347-76.194" fill="#fff" stroke-width="1.3266"/>
 <path d="m260.42 143.56c1.6792 0.1879 3.189-1.0475 3.2924-2.7291 0.15524-2.4755 0.24459-4.965 0.24459-7.4781 0-71.972-58.417-130.31-130.48-130.31-72.062 0-130.48 58.34-130.48 130.31 0 2.4754 0.089366 4.9368 0.23988 7.3747 0.10348 1.6816 1.6133 2.9217 3.2877 2.7338 41.504-4.608 83.675-7.0083 126.42-7.0083 43.103 0 85.636 2.4285 127.49 7.107" fill="url(#a)" stroke-width="1.3266"/>
 <path d="m330.81 68.531c0 4.4154-1.5847 7.895-4.7681 10.434-3.1693 2.5439-7.5942 3.8135-13.26 3.8135-5.2195 0-9.8325-0.97806-13.848-2.9436v-9.6348c3.2963 1.4718 6.0941 2.511 8.3748 3.1129 2.29 0.60188 4.3825 0.90282 6.2775 0.90282 2.2712 0 4.0204-0.4326 5.2289-1.3025 1.2179-0.86991 1.8292-2.163 1.8292-3.884 0-0.95925-0.26803-1.8103-0.80409-2.5533-0.53606-0.74765-1.3166-1.4671-2.3606-2.1583-1.0298-0.69122-3.1458-1.7962-6.3387-3.315-2.9859-1.4013-5.2289-2.7508-6.7196-4.0439-1.4953-1.2978-2.6897-2.8025-3.5831-4.5188-0.88873-1.7163-1.3355-3.7194-1.3355-6.0188 0-4.326 1.4624-7.7257 4.3966-10.204 2.9342-2.4734 6.9876-3.71 12.16-3.71 2.544 0 4.9656 0.30094 7.2791 0.90282 2.2994 0.60188 4.7164 1.4483 7.2368 2.5392l-3.3433 8.0643c-2.6098-1.0721-4.7634-1.8198-6.475-2.2429-1.7022-0.4232-3.3762-0.6348-5.0314-0.6348-1.9608 0-3.4656 0.45611-4.5142 1.373-1.0533 0.91223-1.5752 2.1066-1.5752 3.5784 0 0.91222 0.21629 1.7116 0.6348 2.3887 0.4232 0.68182 1.1003 1.3401 2.0267 1.9749 0.92635 0.6348 3.1129 1.7821 6.5691 3.4279 4.5706 2.1865 7.7117 4.373 9.3998 6.5737 1.6928 2.2006 2.544 4.8903 2.544 8.0784" fill="#d66449" stroke-width="1.3266"/>
 <path d="m351.42 56.222h3.4138c3.1881 0 5.5722-0.63009 7.1569-1.8903 1.5847-1.2602 2.3746-3.094 2.3746-5.5016 0-2.431-0.66303-4.2273-1.9844-5.3887-1.3354-1.1567-3.4138-1.7351-6.2446-1.7351h-4.7164zm23.413-7.7586c0 5.2571-1.6411 9.2868-4.9327 12.071-3.2869 2.7884-7.961 4.185-14.032 4.185h-4.4483v17.393h-10.369v-48.903h15.621c5.9343 0 10.444 1.2743 13.533 3.8276 3.0847 2.5533 4.627 6.3621 4.627 11.426z" fill="#d66449" stroke-width="1.3266"/>
 <path d="m394.13 57.593c0 5.4639 1.0392 9.5784 3.1129 12.343 2.0737 2.7649 5.1678 4.1473 9.2964 4.1473 8.276 0 12.409-5.4969 12.409-16.491 0-11.013-4.1145-16.524-12.343-16.524-4.1239 0-7.2368 1.3871-9.3293 4.1661-2.0925 2.7743-3.1458 6.8934-3.1458 12.357m35.69 0c0 8.0925-2.0032 14.313-6.0189 18.663-4.0157 4.3495-9.7666 6.5219-17.262 6.5219-7.4907 0-13.246-2.1724-17.257-6.5219-4.0157-4.3495-6.0236-10.594-6.0236-18.729 0-8.1395 2.0173-14.356 6.0424-18.649 4.0204-4.2931 9.7948-6.442 17.304-6.442 7.5142 0 13.27 2.1677 17.243 6.4937 3.9828 4.3213 5.9719 10.542 5.9719 18.663" fill="#d66449" stroke-width="1.3266"/>
 <path d="m451.7 54.916h3.3433c3.2775 0 5.6992-0.54546 7.2603-1.6364 1.5564-1.0956 2.3417-2.8119 2.3417-5.1536 0-2.3182-0.79937-3.9687-2.3888-4.9514-1.5988-0.97806-4.0675-1.4718-7.4155-1.4718h-3.1411zm0 8.431v18.766h-10.373v-48.903h14.253c6.6443 0 11.558 1.2085 14.751 3.6254 3.1929 2.4216 4.7822 6.0987 4.7822 11.027 0 2.873-0.78528 5.431-2.3746 7.674-1.5847 2.2382-3.823 3.9969-6.7242 5.2665 7.359 10.994 12.155 18.099 14.384 21.31h-11.506l-11.676-18.766z" fill="#d66449" stroke-width="1.3266"/>
 <path d="m506.79 82.112h-10.369v-40.274h-13.279v-8.6285h36.927v8.6285h-13.279z" fill="#d66449" stroke-width="1.3266"/>
 <path d="m558.77 57.46c0-10.505-4.6364-15.757-13.914-15.757h-5.5205v31.843h4.4484c9.9923 0 14.986-5.3605 14.986-16.086m10.773-0.26803c0 8.0502-2.2947 14.215-6.87 18.494-4.5894 4.2837-11.21 6.4279-19.858 6.4279h-13.848v-48.903h15.353c7.9845 0 14.182 2.1066 18.598 6.3197 4.4154 4.2132 6.6255 10.1 6.6255 17.661" fill="#d66449" stroke-width="1.3266"/>
 <path d="m581.05 82.114h10.369v-48.903h-10.369z" fill="#d66449" stroke-width="1.3266"/>
 <path d="m623.66 54.649h19.402v25.354c-3.1458 1.0251-6.1082 1.7445-8.8779 2.1583-2.7837 0.40909-5.6192 0.61599-8.5158 0.61599-7.3826 0-13.021-2.1677-16.905-6.5031-3.8982-4.3401-5.8402-10.561-5.8402-18.682 0-7.895 2.2524-14.05 6.776-18.466 4.5095-4.4154 10.768-6.6207 18.776-6.6207 5.0173 0 9.856 1.0016 14.516 3.0094l-3.4421 8.2947c-3.5643-1.7821-7.2791-2.6756-11.14-2.6756-4.4813 0-8.0738 1.5047-10.768 4.5141-2.6991 3.0141-4.0486 7.058-4.0486 12.141 0 5.3088 1.0815 9.3621 3.2634 12.16 2.1678 2.8025 5.3324 4.1991 9.4798 4.1991 2.163 0 4.3637-0.221 6.5879-0.66771v-10.204h-9.2635z" fill="#d66449" stroke-width="1.3266"/>
 <path d="m656.07 82.114h10.369v-48.903h-10.369z" fill="#d66449" stroke-width="1.3266"/>
 <path d="m698.98 82.112h-10.369v-40.274h-13.279v-8.6285h36.927v8.6285h-13.279z" fill="#d66449" stroke-width="1.3266"/>
 <path d="m745.07 61.774c-3.2775-10.547-5.1208-16.514-5.5299-17.897-0.4185-1.3824-0.71006-2.4734-0.89345-3.2774-0.73355 2.8542-2.8402 9.9122-6.3198 21.174zm6.0236 20.337-3.5502-11.638h-17.826l-3.5455 11.638h-11.173l17.262-49.105h12.677l17.328 49.105z" fill="#d66449" stroke-width="1.3266"/>
 <path d="m780.17 33.209v40.34h19.834v8.5627h-30.207v-48.903z" fill="#d66449" stroke-width="1.3266"/>
 <path d="m370.67 154.29c-11.079 1.2393-20.008 9.5059-22.129 20.189-0.25001 1.2587-0.18359 2.1739 0.032 2.766 0.46504 1.2777 1.8094 2.1315 3.314 2.1315h27.281c1.6022 0 2.901-1.2988 2.901-2.901v-19.445c0-1.6022-1.2988-2.901-2.901-2.901h-2.7019c-1.6022 0-4.2046-0.0171-5.796 0.16088z" fill="#4a4a4a" stroke-width="1.3266"/>
 <path d="m421.23 104.2v71.424c0 1.8391 1.487 3.332 3.3261 3.3392l26.876 0.10587c1.8348 7e-3 3.3261-1.4782 3.3261-3.313v-44.342c0-1.837 1.4892-3.3261 3.3261-3.3261h7.5079c1.837 0 4.8163-0.0118 6.6511 0.072 2.3241 0.10616 4.4968 0.33509 6.5233 0.72174 1.8035 0.3441 4.6631 1.2098 6.3552 1.9227 1.3023 0.54868 2.5226 1.1678 3.6632 1.8513 1.5746 0.94368 3.9304 2.7869 5.2318 4.0819 0.53796 0.5353 1.0512 1.0902 1.5384 1.6634 1.1888 1.3988 2.8182 3.9055 3.6591 5.5378 1.444 2.8033 2.4958 5.8168 3.2356 9.0168 0.41372 1.7894 0.88501 4.7339 1.0638 6.5618 0.17249 1.7639 0.27082 3.5782 0.31993 5.4425 0.0484 1.8362 0.0484 4.8164-0.0626 6.6497-0.10772 1.7772-0.31536 3.8523-0.69324 6.0866-0.30623 1.8108-0.9842 4.7149-1.5304 6.4684-0.90766 2.9142-2.1625 5.866-3.9234 8.627-0.98728 1.5479-2.8664 3.8744-4.1877 5.1489-1.0824 1.044-2.2834 2.0214-3.632 2.9146-1.5305 1.0138-4.2108 2.3397-5.9338 2.974-0.49138 0.18089-0.99737 0.35314-1.5187 0.51565-1.753 0.54649-4.6791 1.1387-6.5021 1.36-1.5597 0.18934-3.2239 0.31245-5.0025 0.37814-1.8356 0.0678-4.8145 0.0581-6.6515 0.0581h-16.27c-3.6018 0-8.1231 0.6933-12.663 3.2072-4.6716 2.5869-7.532 6.0334-9.3298 8.6265-2.2921 3.3565-3.829 7.2548-4.4102 11.463-0.2876 2.0826 1.446 3.7978 3.5501 3.7978h45.522c1.837 0 4.8157 7e-3 6.6517-0.05 7.8482-0.24161 14.775-1.3672 21.765-3.5793 1.7512-0.55421 4.5423-1.6005 6.2083-2.3737 3.1716-1.4721 6.337-3.3201 9.3938-5.6011 1.472-1.0984 3.7456-3.0277 5.0658-4.3046 5.3022-5.128 10.019-11.899 13.461-20.775 0.66405-1.7126 1.5714-4.5512 2.027-6.3305 1.5475-6.0428 2.5268-12.857 2.8042-18.764 0.0862-1.8347 0.0858-4.814 0.0606-6.6508-0.05-3.6393-0.20475-7.1603-0.60786-10.743-0.20538-1.8252-0.66382-4.7696-1.0242-6.5707-1.0748-5.3714-2.7491-10.755-5.1212-15.71-0.79309-1.6566-2.2447-4.261-3.2365-5.8069-5.1237-7.9865-12.406-14.646-22.281-19.147-1.6714-0.76175-4.449-1.844-6.1942-2.4166-6.2576-2.0531-13.343-3.2542-22.092-3.4937-1.8362-0.0503-4.8148-0.0446-6.6518-0.0446h-46.267c-1.837 0-3.3261 1.4891-3.3261 3.3261z" fill="#4a4a4a" stroke-width="1.3266"/>
 <path d="m695.51 104.13v125.78c0 1.837 1.4891 3.3261 3.3261 3.3261h83.667c1.837 0 3.3261-1.4891 3.3261-3.3261v-20.442c0-1.837-1.4891-3.3261-3.3261-3.3261h-50.1c-1.837 0-3.3261-1.4891-3.3261-3.3261v-71.556c0-1.837 1.4891-3.3261 3.3261-3.3261h50.232c1.837 0 3.3261-1.4891 3.3261-3.3261v-20.474c0-1.837-1.4892-3.3261-3.3261-3.3261h-83.799c-1.837 0-3.3261 1.4892-3.3261 3.3261z" fill="#4a4a4a" stroke-width="1.3266"/>
 <path d="m300.25 104.18v125.72c0 1.837 1.4891 3.3261 3.3261 3.3261h83.799c1.837 0 3.3261-1.4891 3.3261-3.3261v-20.442c0-1.837-1.4891-3.3261-3.3261-3.3261h-50.1c-1.837 0-3.3261-1.4891-3.3261-3.3261v-71.556c0-1.837 1.4891-3.3261 3.3261-3.3261h50.1c1.837 0 3.3261-1.4891 3.3261-3.3261v-20.42c0-1.837-1.4891-3.3261-3.3261-3.3261h-83.799c-1.837 0-3.3261 1.4891-3.3261 3.3261z" fill="#4a4a4a" stroke-width="1.3266"/>
 <path d="m613.59 100.71c-6.1883 0.18534-11.668 0.88735-16.38 1.9807-1.7892 0.41518-4.6508 1.2501-6.3826 1.862-4.172 1.4742-7.6319 3.2193-10.402 4.8993-1.5703 0.95252-4.0126 2.6635-5.4457 3.8121-5.1531 4.1301-9.3181 9.071-12.415 14.151-0.95607 1.5682-2.3438 4.2068-3.1102 5.876-2.2884 4.9841-3.9522 10.323-4.9964 15.677-0.35164 1.8028-0.78631 4.7507-0.9904 6.5762-0.40046 3.582-0.58577 7.1024-0.62786 10.741-0.0212 1.8368 9e-3 4.8156 0.0862 6.6508 0.13741 3.2804 0.43021 6.7105 0.89021 9.9501 0.25823 1.8185 0.80907 4.7476 1.2512 6.5303 0.83108 3.3514 2.3127 8.1915 4.8085 13.232 0.81476 1.6455 2.2937 4.2332 3.2849 5.7796 0.40015 0.62426 0.80568 1.2318 1.2129 1.8154 1.0508 1.5059 2.9534 3.8028 4.2202 5.1326 0.77244 0.81083 1.581 1.6101 2.4121 2.3887 1.3403 1.2557 3.6138 3.1856 5.1057 4.2564 3.0557 2.1931 6.2194 3.847 9.3897 5.2284 1.6838 0.73367 4.4747 1.7778 6.2287 2.323 7.009 2.1785 13.953 3.1675 21.824 3.3758 1.8363 0.0487 4.8149 0.0427 6.6519 0.0427h46.159c1.837 0 3.3261-1.4892 3.3261-3.3261v-71.263c0-1.8412-1.4849-3.3378-3.326-3.3523l-26.951-0.21196c-1.8326-0.0145-3.326 1.4672-3.326 3.2999v44.43c0 1.837-1.4891 3.3261-3.3261 3.3261h-6.1398c-1.837 0-4.8156 9e-3 -6.6519-0.0348-1.7336-0.0421-3.339-0.12802-4.8586-0.28994-1.8258-0.19452-4.7525-0.78856-6.5058-1.334-0.55569-0.17288-1.0942-0.35668-1.6164-0.55015-1.7217-0.63791-4.4006-1.9646-5.939-2.9666-1.3642-0.88852-2.5718-1.8526-3.6621-2.8943-1.3273-1.2681-3.2031-3.5975-4.198-5.1406-1.7928-2.7809-3.0708-5.7236-3.9904-8.6358-0.55298-1.7513-1.2333-4.6558-1.5204-6.4698-0.35328-2.2317-0.51734-4.3045-0.59282-6.0796-0.078-1.835-0.0718-4.8145-0.0208-6.6507 0.0484-1.7427 0.14309-3.4026 0.30668-5.0586 0.18057-1.8277 0.63864-4.7738 1.0367-6.5668 0.72737-3.2764 1.7647-6.3605 3.1917-9.228 0.81808-1.6439 2.4055-4.1762 3.5612-5.6027 0.50985-0.6293 1.0504-1.2407 1.6182-1.8275 1.2766-1.3191 3.6163-3.1855 5.1918-4.1275 1.1475-0.68608 2.3769-1.302 3.689-1.8476 1.6955-0.70507 4.5558-1.5674 6.3595-1.9106 2.0349-0.38722 4.2168-0.61607 6.5512-0.72192 1.8349-0.0832 4.8142-0.0714 6.6511-0.0714h17.244c7.4001 0 13.994-2.8659 18.823-7.5326 4.1447-4.0053 7.1739-9.5579 8.0358-15.449 0.56243-3.8442-2.4714-4.2424-3.6705-4.2424h-45.412c-1.837 0-4.8156-6e-3 -6.6517 0.0492z" fill="#4a4a4a" stroke-width="1.3266"/>
 <path d="m765.8 154.29c-11.079 1.2393-20.008 9.5059-22.129 20.189-0.25002 1.2587-0.18359 2.1739 0.032 2.766 0.46503 1.2777 1.8094 2.1315 3.314 2.1315h27.281c1.6022 0 2.901-1.2988 2.901-2.901v-19.445c0-1.6022-1.2988-2.901-2.901-2.901h-2.7019c-1.6022 0-4.2046-0.0171-5.796 0.16088z" fill="#4a4a4a" stroke-width="1.3266"/>
</svg>
