<svg xmlns="http://www.w3.org/2000/svg" width="600" height="99.198">
    <path d="M0 80.17l3.838-14.308h50.85c2.406 0 4.648-1.96 4.988-4.378.164-1.198-.176-2.395-.95-3.275a3.56 3.56 0 0 0-2.724-1.256H23.476c-4.989 0-9.332-1.902-12.22-5.341-2.899-3.451-4.014-8.064-3.122-13.006 2.02-11.303 11.55-18.464 21.74-18.464h53.172L79.22 34.451H27.666c-2.23 0-4.272 1.796-4.965 4.367a3.394 3.394 0 0 0 .599 2.958 3.77 3.77 0 0 0 2.97 1.455h32.702c5 0 9.331 1.902 12.219 5.364 2.876 3.451 3.873 8.076 3.052 13.053C72.388 72.81 63.726 80.17 52.304 80.17H0M273.214 20.13c-17.842 0-25.26 9.227-30.155 27.538l-8.722 32.49h15.471l8.64-32.49c1.83-6.855 6.232-13.229 14.766-13.229h18.182l3.768-14.308h-21.95M340.6 20.13h-23.933L322.055 0h-15.46l-21.48 80.159h15.46l12.242-45.731h23.957l3.827-14.297M140.41 46.412l-2.242 8.381c-1.585 5.892-6.808 11.057-14.086 11.057h-29.04l8.417-31.41h28.64c10.177 0 9.05 9.284 8.31 11.972zm-8.31-26.281H91.826L70.638 99.198h15.47l5.107-19.04h32.866c14.121 0 24.873-8.908 28.324-21.656l2.254-8.38c3.416-12.678-.106-29.991-22.56-29.991M221.578 46.412l-2.242 8.381c-1.585 5.892-6.808 11.057-14.086 11.057h-22.067c-10.177 0-9.05-9.273-8.31-11.973l2.241-8.38c1.573-5.893 7.043-11.058 14.086-11.058h22.055c10.189 0 9.062 9.285 8.323 11.973zm-8.323-26.281H191.2c-13.229 0-24.873 8.909-28.336 21.668l-2.242 8.38c-3.427 12.678-.258 29.98 22.56 29.98h22.068c14.12 0 24.873-8.91 28.324-21.657l2.254-8.38c3.415-12.678-.106-29.991-22.573-29.991" fill="#212d34"/>
    <path d="M374.524.012c-3.944 11.926-15.178 20.119-27.866 20.119l-3.65 14.308h17.207L347.95 80.16h20.483L390.194.012h-15.67M447.346 42.996h-22.912l6.127-22.865H415.1l-6.138 22.865h-22.737l-3.838 14.297h22.748L399.01 80.16h15.47l6.128-22.866h22.913l3.826-14.297" fill="#ffb400"/>
    <path d="M512.692 20.142l-6.127 22.866h-36.012l6.127-22.866h-15.47L445.127 80.17h15.47l6.116-22.865h36.013L496.61 80.17h15.47l16.082-60.028h-15.47M584.622 46.412l-2.241 8.381c-1.585 5.892-6.809 11.057-14.086 11.057h-29.099l8.428-31.41H576.3c10.189 0 9.062 9.284 8.322 11.972zM576.3 20.131h-40.32L519.9 80.159h48.395c14.12 0 24.873-8.91 28.324-21.657l2.253-8.38c3.428-12.678-.105-29.991-22.572-29.991" fill="#9c9c9b"/>
</svg>
