<svg xmlns="http://www.w3.org/2000/svg" viewBox="0 0 343.79 64"><path fill="#fdea00" d="M188.48 41.848c5.103.02 9.299-4.104 9.36-9.176.051-5.103-4.156-9.36-9.279-9.38-5.133-.01-9.369 4.196-9.349 9.298.02 5.082 4.176 9.238 9.278 9.258zM117.73 32.652c-.041 11.213-9.146 20.216-20.399 20.166-11.132-.05-20.176-9.207-20.114-20.359.061-11.132 9.237-20.196 20.358-20.135 11.172.071 20.195 9.166 20.155 20.318zm-20.288 9.207c5.103.02 9.299-4.105 9.36-9.176.051-5.103-4.155-9.36-9.278-9.38-5.133-.01-9.37 4.196-9.35 9.298.021 5.082 4.176 9.238 9.279 9.258z"/><path fill="#fff" d="M175.85 41.858v10.887c-2.21.214-4.369.01-6.487-.51-8.78-2.148-15.176-9.726-15.389-18.728-.224-9.278-.072-18.556-.072-27.834 0-.184.041-.357.082-.601h10.836v7.21h10.999v10.99h-10.968v2.23c0 2.292-.01 4.583 0 6.875.041 5.418 3.972 9.38 9.39 9.481h1.619zM203.14 4.919h10.837v7.262h11.029V23.15h-10.877c-.051.366-.112.61-.112.865 0 2.852-.051 5.714.01 8.566.123 5.102 4.044 8.992 9.146 9.145.591.02 1.182 0 1.854 0v10.898c-2.607.234-5.154-.06-7.649-.825-8.239-2.536-14.106-9.98-14.268-18.597-.174-9.196-.051-18.404-.051-27.6 0-.183.04-.366.081-.672zM258.19 12.242l-8.922 22.661-9.064-22.661h-12.068l15.938 40.402h10.378l15.745-40.402zM53.62 12.323c-11.05-.071-20.175 8.891-20.348 19.921v28.038h10.989v-9.726a20.114 20.114 0 0 0 9.125 2.25c11.254.052 20.358-8.951 20.399-20.165.04-11.152-8.983-20.257-20.155-20.318zm-.132 29.525c-5.103-.02-9.258-4.165-9.278-9.258-.02-5.113 4.216-9.319 9.349-9.298 5.123.01 9.339 4.267 9.288 9.38-.05 5.072-4.257 9.196-9.36 9.176zM141.14 12.405c-11.122-.071-20.298 9.003-20.359 20.135l-.041 20.135h11V32.672c-.021-5.113 4.206-9.319 9.339-9.298h9.145v-10.97zM16.173 27.957c-.468-.153-.906-.295-1.334-.438-1.497-.56-2.495-1.008-3.25-1.446-.65-.377-1.038-1.019-1.018-1.68.02-.612.327-1.1.938-1.467 2.912-1.793 11.682-.408 17.09 1.996V14.34c-3.107-.978-7.629-2.057-12.395-2.067-4.787-.01-8.606 1.049-11.386 3.157C1.578 17.894 0 20.838 0 24.433c0 7.292 7.364 10.602 13.77 12.67.469.153.907.295 1.334.438 1.009.377 2.282.886 3.25 1.446.651.377 1.038 1.019 1.018 1.68-.02.612-.326 1.1-.937 1.467-2.984 1.833-12.11.336-17.487-2.17l-.275-.121v10.673l.132.041c3.107 1.008 7.873 2.22 12.934 2.24h.082c4.736 0 8.545-1.058 11.305-3.156 3.239-2.465 4.817-5.408 4.817-9.004 0-7.292-7.363-10.602-13.77-12.67z"/><path fill="#fdea00" d="M311.79 0c-17.67 0-31.999 14.33-31.999 32s14.329 32 31.999 32 31.999-14.33 31.999-32S329.46 0 311.79 0z"/><path d="M311.72 24.718c4.176.112 7.557 1.467 10.164 4.043s3.901 5.887 3.901 9.9-1.355 7.455-4.074 10.072c-2.719 2.617-6.213 3.931-10.5 3.931-4.288 0-7.771-1.304-10.47-3.9s-4.043-5.969-4.043-10.104c0-3.055.784-5.754 2.352-8.086l12.507-18.882h9.064l-8.911 13.026zm-5.266 18.709c1.263 1.192 2.852 1.782 4.767 1.782s3.514-.59 4.797-1.782c1.283-1.181 1.925-2.77 1.925-4.766s-.642-3.524-1.925-4.706-2.882-1.782-4.797-1.782-3.504.58-4.767 1.752c-1.262 1.171-1.894 2.75-1.894 4.736s.632 3.574 1.894 4.766z"/></svg>