<svg version="1.1" viewBox="0 0 1040 383.17" xml:space="preserve" xmlns="http://www.w3.org/2000/svg"><defs><linearGradient id="z" x2="1" gradientTransform="matrix(-3.4546 5.9835 5.9835 3.4546 604.61 588.62)" gradientUnits="userSpaceOnUse"><stop stop-color="#400000" offset="0"/><stop stop-color="#c42b06" offset="1"/></linearGradient><linearGradient id="y" x2="1" gradientTransform="matrix(.16194 -1.3563 -1.3563 -.16194 598.53 595.01)" gradientUnits="userSpaceOnUse"><stop stop-color="#c42b06" offset="0"/><stop stop-color="#860001" offset="1"/></linearGradient><linearGradient id="x" x2="1" gradientTransform="matrix(-2.0069 .21095 .21095 2.0069 609.23 594.52)" gradientUnits="userSpaceOnUse"><stop stop-color="#fbc100" offset="0"/><stop stop-color="#eb6527" offset=".19488"/><stop stop-color="#c42b06" offset=".71909"/><stop stop-color="#c42b06" offset="1"/></linearGradient><linearGradient id="w" x2="1" gradientTransform="matrix(-1.1331 0 0 1.1331 598.72 591.52)" gradientUnits="userSpaceOnUse"><stop stop-color="#620000" offset="0"/><stop stop-color="#990003" offset="1"/></linearGradient><linearGradient id="v" x2="1" gradientTransform="matrix(1.3302 2.8527 2.8527 -1.3302 608.48 591.35)" gradientUnits="userSpaceOnUse"><stop stop-color="#400000" offset="0"/><stop stop-color="#620000" offset=".34543"/><stop stop-color="#af1505" offset=".71153"/><stop stop-color="#ec6527" offset=".82779"/><stop stop-color="#fbc100" offset="1"/></linearGradient><linearGradient id="u" x2="1" gradientTransform="matrix(.015167 1.2298 1.2298 -.015167 603.35 594.45)" gradientUnits="userSpaceOnUse"><stop stop-color="#990003" offset="0"/><stop stop-color="#d83e07" offset="1"/></linearGradient><linearGradient id="t" x2="1" gradientTransform="matrix(.0098572 .79619 .79619 -.0098572 610.64 594.86)" gradientUnits="userSpaceOnUse"><stop stop-color="#c42b06" offset="0"/><stop stop-color="#af1505" offset="1"/></linearGradient><linearGradient id="s" x2="1" gradientTransform="matrix(.0098724 .80104 .80104 -.0098724 610.49 594.01)" gradientUnits="userSpaceOnUse"><stop stop-color="#860001" offset="0"/><stop stop-color="#4f0000" offset=".99866"/><stop stop-color="#4f0000" offset="1"/></linearGradient><linearGradient id="r" x2="1" gradientTransform="matrix(1.5224 4.8633 4.8633 -1.5224 610.62 589.4)" gradientUnits="userSpaceOnUse"><stop stop-color="#620000" offset="0"/><stop stop-color="#620000" offset=".26292"/><stop stop-color="#4f0000" offset="1"/></linearGradient><linearGradient id="q" x2="1" gradientTransform="matrix(-1.4012 .50763 .50763 1.4012 612.55 594.58)" gradientUnits="userSpaceOnUse"><stop stop-color="#fbc100" offset="0"/><stop stop-color="#ec6527" offset=".35216"/><stop stop-color="#c42b06" offset=".76344"/><stop stop-color="#c42b06" offset="1"/></linearGradient><linearGradient id="p" x2="1" gradientTransform="matrix(2.0671 4.4329 4.4329 -2.0671 611.31 589.92)" gradientUnits="userSpaceOnUse"><stop stop-color="#620000" offset="0"/><stop stop-color="#af1505" offset=".71153"/><stop stop-color="#ec6527" offset=".82779"/><stop stop-color="#fbc100" offset="1"/></linearGradient><linearGradient id="o" x2="1" gradientTransform="matrix(-.007309 .59019 -.59019 -.007309 616.96 592.07)" gradientUnits="userSpaceOnUse"><stop stop-color="#af1505" offset="0"/><stop stop-color="#990003" offset=".58737"/><stop stop-color="#860001" offset="1"/></linearGradient><linearGradient id="n" x2="1" gradientTransform="matrix(-.61479 1.9639 -1.9639 -.61479 615.73 592.41)" gradientUnits="userSpaceOnUse"><stop stop-color="#620000" offset="0"/><stop stop-color="#990003" offset="1"/></linearGradient><linearGradient id="m" x2="1" gradientTransform="matrix(-1.7934 3.8459 -3.8459 -1.7934 615.59 590.53)" gradientUnits="userSpaceOnUse"><stop stop-color="#620000" offset="0"/><stop stop-color="#af1505" offset=".71153"/><stop stop-color="#e94f0a" offset="1"/></linearGradient><linearGradient id="l" x2="1" gradientTransform="matrix(-.007309 .59404 -.59404 -.007309 616.96 591.49)" gradientUnits="userSpaceOnUse"><stop stop-color="#860001" offset="0"/><stop stop-color="#4f0000" offset=".99866"/><stop stop-color="#4f0000" offset="1"/></linearGradient><linearGradient id="k" x2="1" gradientTransform="matrix(1.7939 3.8471 3.8471 -1.7939 618.32 590.52)" gradientUnits="userSpaceOnUse"><stop stop-color="#620000" offset="0"/><stop stop-color="#620000" offset=".34543"/><stop stop-color="#af1505" offset=".71153"/><stop stop-color="#ec6527" offset=".85849"/><stop stop-color="#fbc100" offset="1"/></linearGradient><linearGradient id="j" x2="1" gradientTransform="matrix(.267 .57259 .57259 -.267 618.67 594.07)" gradientUnits="userSpaceOnUse"><stop stop-color="#c42b06" offset="0"/><stop stop-color="#c42b06" offset=".23656"/><stop stop-color="#ec6527" offset=".67636"/><stop stop-color="#fbc100" offset="1"/></linearGradient><linearGradient id="i" x2="1" gradientTransform="matrix(-1.7931 3.8453 -3.8453 -1.7931 620.72 590.52)" gradientUnits="userSpaceOnUse"><stop stop-color="#620000" offset="0"/><stop stop-color="#af1505" offset=".71153"/><stop stop-color="#e94f0a" offset="1"/></linearGradient><linearGradient id="h" x2="1" gradientTransform="matrix(-.0072021 .58546 -.58546 -.0072021 621.83 590.29)" gradientUnits="userSpaceOnUse"><stop stop-color="#af1505" offset="0"/><stop stop-color="#990003" offset=".58737"/><stop stop-color="#860001" offset="1"/></linearGradient><linearGradient id="g" x2="1" gradientTransform="matrix(-.00737 .59514 -.59514 -.00737 621.65 589.69)" gradientUnits="userSpaceOnUse"><stop stop-color="#860001" offset="0"/><stop stop-color="#4f0000" offset=".99866"/><stop stop-color="#4f0000" offset="1"/></linearGradient><linearGradient id="f" x2="1" gradientTransform="matrix(-.0072632 .58965 -.58965 -.0072632 621.83 593.27)" gradientUnits="userSpaceOnUse"><stop stop-color="#860001" offset="0"/><stop stop-color="#4f0000" offset=".99866"/><stop stop-color="#4f0000" offset="1"/></linearGradient><linearGradient id="e" x2="1" gradientTransform="matrix(1.3459 2.8863 -2.8863 1.3459 619.97 590.71)" gradientUnits="userSpaceOnUse"><stop stop-color="#620000" offset="0"/><stop stop-color="#990003" offset="1"/></linearGradient><linearGradient id="d" x2="1" gradientTransform="matrix(-.99603 -.36089 .36089 -.99603 624.49 590.46)" gradientUnits="userSpaceOnUse"><stop stop-color="#af1505" offset="0"/><stop stop-color="#620000" offset=".76344"/><stop stop-color="#620000" offset="1"/></linearGradient><linearGradient id="c" x2="1" gradientTransform="matrix(1.143 2.4512 2.4512 -1.143 623.73 591.11)" gradientUnits="userSpaceOnUse"><stop stop-color="#620000" offset="0"/><stop stop-color="#af1505" offset=".71153"/><stop stop-color="#e94f0a" offset="1"/></linearGradient><linearGradient id="b" x2="1" gradientTransform="matrix(0 1.0275 1.0275 0 623.92 593.36)" gradientUnits="userSpaceOnUse"><stop stop-color="#990003" offset="0"/><stop stop-color="#ec6527" offset=".82779"/><stop stop-color="#fbc100" offset="1"/></linearGradient><linearGradient id="a" x2="1" gradientTransform="matrix(.76199 1.6341 -1.6341 .76199 621.33 593.46)" gradientUnits="userSpaceOnUse"><stop stop-color="#c42b06" offset="0"/><stop stop-color="#c42b06" offset=".23656"/><stop stop-color="#ec6527" offset=".67636"/><stop stop-color="#fbc100" offset="1"/></linearGradient></defs><g transform="matrix(1.3333 0 0 -1.3333 -9.836e-6 1122.5)"><g transform="matrix(28.966 0 0 28.966 -17309 -16412)"><path d="m599.6 594.45-0.839-0.838v-3.918l4.606-2.553 4.583 2.553v3.918l-0.839 0.838z" fill="url(#z)"/><path d="m597.55 594.11 1.214-0.503 0.839 0.838-0.504 1.215z" fill="url(#y)"/><path d="m607.12 594.45 0.839-0.838 1.214 0.503-1.548 1.55z" fill="url(#x)"/><path d="m597.55 588.92 1.214 0.77v3.918l-1.214 0.503z" fill="url(#w)"/><path d="m607.96 593.61v-3.918l1.213-0.77 1e-3 1e-3v5.19z" fill="url(#v)"/><path d="m599.1 595.66v-1e-3l0.504-1.214h7.511l0.505 1.215z" fill="url(#u)"/><path d="m603.37 585.74-5.82 3.181 1.214 0.769 4.606-2.503z" fill="#3a0000"/><path d="m603.37 585.74 5.797 3.181-1.214 0.769-4.583-2.503z" fill="#4f0000"/><path d="m607.96 593.61-0.839 0.838-1.77-1.77h-0.213v1.77h-5.528l-0.839-0.838v-1.321l0.827-0.827h2.434l0.12-0.119v-0.317l-0.12-0.12h-3.261v-1.214h3.77l0.825 0.826v1.333l-0.825 0.827h-2.434l-0.122 0.121v0.314l0.122 0.121h3.815v-3.542h1.216v1.77h0.245l1.77-1.77h0.807v0.916l-1.482 1.479z" fill="#fff"/><path d="m599.61 594.45 0.047-0.111h5.368l0.113 0.111z" fill="#68676c"/><path d="m599.64 591.58-0.046-0.113h2.434l0.047 0.113z" fill="#fff"/><path d="m600.1 592.68-0.046-0.112h2.433l0.047 0.112z" fill="#68676c"/><path d="m600.06 593.35 0.047-0.112h3.815l0.114 0.112z" fill="#fff"/><path d="m598.77 590.91 0.112-0.111h3.196l-0.048 0.111z" fill="#98989c"/><path d="m598.88 589.8-0.112-0.112h3.77l-0.047 0.112z" fill="#fff"/><path d="m604.03 589.8-0.113-0.112h1.216l-0.112 0.112z" fill="#fff"/><path d="m605.02 591.58 0.112-0.113h0.245l0.046 0.113z" fill="#fff"/><path d="m607.19 589.8-0.046-0.112h0.808l-0.111 0.112z" fill="#fff"/><path d="m598.77 593.61 0.112-0.047 0.774 0.774-0.047 0.111z" fill="#98989c"/><path d="m598.77 592.29 0.826-0.827 0.046 0.113-0.76 0.76z" fill="#edeeef"/><path d="m602.03 591.46 0.121-0.119 0.111 0.046-0.185 0.186z" fill="#fff"/><path d="m599.87 592.75 0.187-0.185 0.046 0.112-0.121 0.121z" fill="#98989c"/><path d="m599.87 593.16 0.112-0.047 0.121 0.123-0.046 0.11z" fill="#edeeef"/><path d="m602.49 592.57 0.76-0.76 0.113 0.045-0.826 0.827z" fill="#68676c"/><path d="m598.77 592.29 0.112 0.046v1.229l-0.112 0.046z" fill="#edeeef"/><path d="m599.87 592.75 0.112 0.048v0.314l-0.112 0.047z" fill="#c3c5c8"/><path d="m602.15 591.34v-0.317l0.111-0.046v0.409z" fill="#edeeef"/><path d="m603.25 591.81v-1.241l0.112-0.046v1.333z" fill="#98989c"/><path d="m603.92 593.24v-3.542l0.114 0.11v3.544z" fill="#edeeef"/><path d="m605.02 589.8 0.112-0.112v1.771l-0.112 0.112z" fill="#c3c5c8"/><path d="m605.02 594.34v-1.772l0.112 0.112v1.771z" fill="#98989c"/><path d="m607.84 590.56v-0.76l0.111-0.11v0.916z" fill="#c3c5c8"/><path d="m605.38 591.46 1.77-1.77 0.046 0.111-1.77 1.773z" fill="#edeeef"/><path d="m606.32 592.09 0.158 2e-3 1.482 1.524-0.158-1e-3z" fill="#edeeef"/><path d="m605.35 592.68 0.047-0.113 1.723 1.726v0.157z" fill="#c3c5c8"/><path d="m606.32 592.09 1.529-1.523 0.111 0.046-1.482 1.479z" fill="#68676c"/><path d="m607.12 594.29 0.68-0.681 0.158 1e-3 -0.838 0.838z" fill="#68676c"/><path d="m598.77 589.69 0.112 0.112v0.991l-0.112 0.11z" fill="#edeeef"/><path d="m602.03 590.91 0.047-0.111 0.185 0.187-0.111 0.044z" fill="#c3c5c8"/><path d="m602.49 589.8 0.046-0.112 0.827 0.828-0.113 0.044z" fill="#c3c5c8"/><path d="m605.13 592.68-0.112-0.112h0.371l-0.046 0.112z" fill="#c3c5c8"/><path d="m610.01 595.66v-1.684l0.598 0.842z" fill="#af1505"/><path d="m610.02 595.66 0.597-0.842 0.356 1e-3 0.316 0.841z" fill="url(#t)"/><path d="m610.96 594.82-0.351-1e-3 -0.597-0.842h0.638l0.315 0.843z" fill="url(#s)"/><path d="m610.97 594.82 0.733-0.741-0.841-0.317-0.208 0.215z" fill="#620000"/><path d="m610.86 593.77v-4.844l0.84 0.65v4.51z" fill="url(#r)"/><path d="m610.97 594.82 0.732-0.741 0.843 0.32-1.259 1.262z" fill="url(#q)"/><path d="m611.7 594.08v-4.51l0.843-0.65v5.48h-1e-3z" fill="url(#p)"/><path d="m610.86 588.92h1.683l-0.842 0.65z" fill="#450000"/><path d="m615.17 592.08 3.574-4e-3h0.01l-0.598 0.593-2.393 1e-3z" fill="url(#o)"/><path d="m615.17 594.03 1e-3 -1.954 0.593 0.59v1.781l-1e-3 2e-3z" fill="url(#n)"/><path d="m615.17 590.11 0.594-0.42v1.784l-0.593 0.597z" fill="#620000"/><path d="m614.57 594.45h-1e-3v-4.756l0.6 0.413v3.923z" fill="url(#m)"/><path d="m615.17 592.07 0.593-0.597h2.393l0.6 0.594-3.576 4e-3z" fill="url(#l)"/><path d="m614.57 589.69h1.193l-0.594 0.42z" fill="#450000"/><path d="m614.57 594.45 0.599-0.42 0.594 0.42z" fill="#d83e08"/><path d="m618.15 592.66 0.599-0.594v1.958l-0.599 0.421z" fill="#4f0000"/><path d="m618.15 591.48v-1.785l0.599 0.421v1.958z" fill="#4f0000"/><path d="m618.75 594.03v-3.915l0.593-0.42v4.755z" fill="url(#k)"/><path d="m618.15 594.45 0.599-0.42 0.595 0.42z" fill="url(#j)"/><path d="m619.7 594.45v-4.756l0.595 0.594v3.57z" fill="url(#i)"/><path d="m620.9 590.88-0.599-0.593v-1e-3l2.999-2e-3 0.06 1e-3 -0.219 0.595z" fill="url(#h)"/><path d="m619.7 589.69v-1e-3h3.881l-0.226 0.592-3.06 2e-3z" fill="url(#g)"/><path d="m620.3 593.86 0.599-0.595h2.241l0.219 0.595z" fill="url(#f)"/><path d="m620.3 593.86v-3.57h1e-3l0.598 0.594v2.381z" fill="url(#e)"/><path d="m623.36 590.28 0.226-0.592 0.894 0.889-0.599 0.227z" fill="url(#d)"/><path d="m623.14 590.88 0.22-0.595 0.521 0.523-0.596 0.224z" fill="#860001"/><path d="m623.29 593.12v-2.084l0.596-0.224v2.52z" fill="#4f0000"/><path d="m623.88 593.33v-2.52l0.599-0.227v2.978z" fill="url(#c)"/><path d="m623.14 593.26 0.145-0.146 0.596 0.213-0.522 0.528z" fill="#450000"/><path d="m623.36 593.86 0.522-0.528 0.599 0.231-0.894 0.889z" fill="url(#b)"/><path d="m623.58 594.45h-3.88v-1e-3l0.595-0.591h3.059l0.227 0.592z" fill="url(#a)"/><path d="m618.15 589.69h1.193l-0.594 0.42z" fill="#450000"/></g></g></svg>
