<svg xmlns="http://www.w3.org/2000/svg" width="52.917mm" height="4.704mm" viewBox="0 0 52.916672 4.703578"><g><path d="M52.917.078h-7.934v4.552h7.934zm-.408 4.14h-7.114v-3.732h7.114z" fill="#f9da05"/><path d="M48.266 3.65v-1.131h-1.341v1.131h-.452v-2.578h.452v1.05h1.341v-1.05h.452v2.578z" fill="#f9da05"/><path d="M51.208 2.358c0-.495-.309-.889-.883-.889h-.509v1.782h.507c.56 0 .885-.402.885-.893m-1.844 1.293v-2.58h.959c.806 0 1.347.533 1.347 1.287 0 .762-.541 1.293-1.345 1.293z" fill="#f9da05"/><path d="M38.46.075l-1.818 4.551h6.001v-4.551z" fill="#f9da05"/><path d="M40.23 3.944c-.537 0-.941-.208-1.157-.471l.331-.418c.198.212.519.335.804.335.358 0 .556-.156.556-.376 0-.232-.182-.337-.59-.337l-.366.008v-.562l.366.004c.325 0 .545-.097.545-.313 0-.234-.242-.349-.545-.349-.285 0-.541.107-.747.305l-.313-.392c.236-.267.608-.467 1.121-.467.687 0 1.109.309 1.109.798 0 .368-.315.61-.642.669.299.03.687.263.687.703 0 .505-.452.863-1.157.863" fill="#100f0d"/><path d="M.35 3.462c.351.186.806.358 1.293.353.543-.004.881-.172.881-.503 0-.244-.135-.394-.598-.515-.186-.051-.56-.145-.774-.214-.747-.236-1.151-.652-1.151-1.23 0-.747.558-1.347 1.761-1.347.65 0 1.301.275 1.592.42l-.331.764c-.311-.156-.804-.309-1.293-.309-.543 0-.768.166-.768.424 0 .246.164.353.489.446l.828.238c.814.226 1.212.608 1.212 1.265 0 .846-.782 1.436-1.869 1.436-.654 0-1.351-.305-1.588-.483z" fill="#fff"/><path d="M5.648.878v1.666h.856c.465 0 .834-.315.834-.826 0-.545-.37-.84-.834-.84zm-.943-.804h1.949c.893 0 1.658.523 1.658 1.664 0 1.028-.766 1.638-1.658 1.638h-1.006v1.25h-.943z" fill="#fff"/><path d="M16.175.878v1.361h.953c.43 0 .739-.255.739-.677 0-.45-.309-.685-.739-.685zm-.943-.804h1.796c1.123 0 1.82.452 1.82 1.481 0 .725-.523 1.262-1.208 1.402l1.45 1.523v.147h-1.04l-1.525-1.638h-.349v1.638h-.943z" fill="#fff"/><path d="M22.174.905v3.723h-.943v-3.723h-1.333v-.832h3.581v.832z" fill="#fff"/><path d="M29.507.905v3.723h-.945v-3.723h-1.331v-.832h3.581v.832z" fill="#fff"/><path d="M31.746.073h1.028l1.329 3.701 1.378-3.701h1.026l-1.814 4.555h-1.18z" fill="#fff"/><path d="M26.286 2.352c0 .507-.41.917-.917.917-.507 0-.917-.41-.917-.917 0-.507.41-.917.917-.917.507 0 .917.41.917.917" fill="#f9da05"/><path d="M11.645 3.269c-.507 0-.917-.41-.917-.917 0-.507.41-.917.917-.917.505 0 .917.41.917.917 0 .507-.412.917-.917.917m0-3.268c-1.299 0-2.351 1.052-2.351 2.351 0 1.297 1.052 2.351 2.351 2.351s2.351-1.054 2.351-2.351c0-1.299-1.052-2.351-2.351-2.351" fill="#f9da05"/></g></svg>