<?xml version="1.0" encoding="UTF-8" standalone="no"?>
<!-- Created with Inkscape (http://www.inkscape.org/) -->

<svg
   xmlns:dc="http://purl.org/dc/elements/1.1/"
   xmlns:cc="http://creativecommons.org/ns#"
   xmlns:rdf="http://www.w3.org/1999/02/22-rdf-syntax-ns#"
   xmlns:svg="http://www.w3.org/2000/svg"
   xmlns="http://www.w3.org/2000/svg"
   xmlns:sodipodi="http://sodipodi.sourceforge.net/DTD/sodipodi-0.dtd"
   xmlns:inkscape="http://www.inkscape.org/namespaces/inkscape"
   width="52.916668mm"
   height="8.9893942mm"
   viewBox="0 0 52.916668 8.9893942"
   version="1.1"
   id="svg30441"
   sodipodi:docname="sportingtv.default.svg"
   inkscape:version="0.92.3pre0 (0ab9bec, 2018-03-03)">
  <defs
     id="defs30435" />
  <sodipodi:namedview
     id="base"
     pagecolor="#ffffff"
     bordercolor="#666666"
     borderopacity="1.0"
     inkscape:pageopacity="0.0"
     inkscape:pageshadow="2"
     inkscape:zoom="6.2645241"
     inkscape:cx="94.68215"
     inkscape:cy="1.9704726"
     inkscape:document-units="mm"
     inkscape:current-layer="g30347"
     showgrid="false"
     fit-margin-top="0"
     fit-margin-left="0"
     fit-margin-right="0"
     fit-margin-bottom="0"
     inkscape:window-width="1920"
     inkscape:window-height="983"
     inkscape:window-x="0"
     inkscape:window-y="27"
     inkscape:window-maximized="1" />
  <metadata
     id="metadata30438">
    <rdf:RDF>
      <cc:Work
         rdf:about="">
        <dc:format>image/svg+xml</dc:format>
        <dc:type
           rdf:resource="http://purl.org/dc/dcmitype/StillImage" />
        <dc:title></dc:title>
      </cc:Work>
    </rdf:RDF>
  </metadata>
  <g
     inkscape:label="Layer 1"
     inkscape:groupmode="layer"
     id="layer1"
     transform="translate(-37.810682,-128.12952)">
    <g
       id="g30347"
       transform="matrix(2.5144475,0,0,-2.5144475,-101.05811,837.70484)">
      <g
         transform="translate(55.7856,280.7363)"
         id="g1712">
        <path
           inkscape:connector-curvature="0"
           id="path1714"
           style="fill:#e9eaea;fill-opacity:1;fill-rule:nonzero;stroke:none"
           d="m 0,0 h -0.557 c -0.002,-0.159 0.008,-0.322 0.034,-0.485 H 0.036 C 0.008,-0.322 -0.002,-0.159 0,0" />
      </g>
      <g
         transform="translate(55.9741,279.7343)"
         id="g1716">
        <path
           inkscape:connector-curvature="0"
           id="path1718"
           style="fill:#e9eaea;fill-opacity:1;fill-rule:nonzero;stroke:none"
           d="m 0,0 h -0.56 c 0.081,-0.184 0.184,-0.345 0.299,-0.485 H 0.301 C 0.186,-0.345 0.082,-0.184 0,0" />
      </g>
      <g
         transform="translate(55.9292,281.7392)"
         id="g1720">
        <path
           inkscape:connector-curvature="0"
           id="path1722"
           style="fill:#e9eaea;fill-opacity:1;fill-rule:nonzero;stroke:none"
           d="M 0,0 H -0.555 C -0.59,-0.119 -0.628,-0.278 -0.658,-0.485 h 0.556 C -0.072,-0.279 -0.035,-0.119 0,0" />
      </g>
      <g
         transform="translate(76.2554,281.122)"
         id="g1724">
        <path
           inkscape:connector-curvature="0"
           id="path1726"
           style="fill:#bbbcbd;fill-opacity:1;fill-rule:nonzero;stroke:none"
           d="M 0,0 C -0.004,0.045 -0.009,0.089 -0.014,0.132 -0.036,0.319 -0.063,0.48 -0.093,0.617 h -3.821 c 0.039,-0.114 0.081,-0.273 0.115,-0.485 0.013,-0.085 0.025,-0.178 0.034,-0.28 0.008,-0.081 0.013,-0.16 0.014,-0.238 0.004,-0.169 -0.006,-0.331 -0.031,-0.485 -0.025,-0.162 -0.066,-0.316 -0.123,-0.458 -0.008,-0.021 -0.016,-0.039 -0.024,-0.059 -0.079,-0.183 -0.181,-0.344 -0.294,-0.485 h 0.048 3.808 c 0.071,0.118 0.136,0.246 0.19,0.383 0.013,0.034 0.026,0.068 0.038,0.102 0.056,0.163 0.097,0.335 0.123,0.517 0.023,0.155 0.034,0.317 0.034,0.485 C 0.018,-0.261 0.012,-0.132 0,0" />
      </g>
      <g
         transform="translate(57.561,282.1992)"
         id="g1728">
        <path
           inkscape:connector-curvature="0"
           id="path1730"
           style="fill:#ffffff;fill-opacity:1;fill-rule:nonzero;stroke:none"
           d="m 0,0 c 0.038,0.001 0.378,-0.002 0.718,-0.199 0.127,-0.074 0.269,-0.106 0.38,-0.118 0.11,-0.012 0.226,-0.003 0.226,-0.003 l 0.02,-0.034 C 1.35,-0.363 1.5,-0.608 1.56,-1.248 1.591,-1.591 1.573,-1.97 1.435,-2.318 1.066,-3.252 0.051,-3.56 0,-3.575 c -0.052,0.015 -1.066,0.323 -1.436,1.257 -0.137,0.348 -0.156,0.727 -0.124,1.07 0.06,0.64 0.21,0.885 0.215,0.894 l 0.021,0.034 c 0,0 0.116,-0.009 0.225,0.003 0.112,0.012 0.253,0.044 0.381,0.118 0.34,0.197 0.68,0.2 0.718,0.199" />
      </g>
      <g
         transform="translate(57.5625,278.6748)"
         id="g1732">
        <path
           inkscape:connector-curvature="0"
           id="path1734"
           style="fill:#278556;fill-opacity:1;fill-rule:evenodd;stroke:none"
           d="M 0,0 C -0.038,0.011 -1.026,0.312 -1.388,1.229 H 1.387 C 1.024,0.312 0.038,0.011 0,0 M 1.498,1.648 H -1.5 c 0.011,-0.073 0.025,-0.142 0.043,-0.21 h 2.913 c 0.017,0.068 0.031,0.137 0.042,0.21 m 0.02,0.419 H -1.52 c 0,-0.038 -10e-4,-0.079 -10e-4,-0.121 0,-0.029 10e-4,-0.058 0.002,-0.088 h 3.036 c 0.001,0.03 0.003,0.059 0.003,0.089 0,0.041 -0.001,0.082 -0.002,0.12 m -3.027,0.21 H 1.508 C 1.464,2.909 1.302,3.15 1.302,3.15 c 0,0 -0.33,-0.028 -0.609,0.134 C 0.348,3.485 0,3.476 0,3.476 0,3.476 -0.348,3.485 -0.693,3.284 -0.971,3.122 -1.302,3.15 -1.302,3.15 c 0,0 -0.163,-0.236 -0.207,-0.873" />
      </g>
      <g
         transform="translate(58.6797,279.6064)"
         id="g1736">
        <path
           inkscape:connector-curvature="0"
           id="path1738"
           style="fill:#ffffff;fill-opacity:1;fill-rule:evenodd;stroke:none"
           d="M 0,0 C 0,0 -0.034,-0.044 -0.069,-0.082 -0.104,-0.12 -0.14,-0.15 -0.14,-0.15 l -0.16,0.168 0.045,0.043 0.13,-0.137 c 0,0 0.008,0.007 0.042,0.042 0.032,0.035 0.05,0.06 0.05,0.06 z m -0.39,-0.05 -0.062,-0.039 0.015,-0.252 0.058,0.029 -0.004,0.051 0.109,0.067 0.041,-0.028 0.053,0.038 z m 0.079,-0.119 -0.078,-0.05 -0.008,0.105 z m -0.231,-0.042 c -0.035,0.003 -0.066,0 -0.096,-0.011 -0.064,-0.022 -0.089,-0.071 -0.078,-0.103 0.014,-0.038 0.07,-0.047 0.119,-0.03 0.015,0.004 0.021,0.008 0.036,0.021 l -0.008,0.025 -0.035,-0.012 -0.013,0.041 0.093,0.031 0.031,-0.088 c -0.011,-0.022 -0.052,-0.05 -0.09,-0.063 -0.083,-0.03 -0.171,-0.008 -0.194,0.056 -0.023,0.067 0.034,0.136 0.118,0.165 0.036,0.013 0.074,0.018 0.1,0.015 z m -0.305,-0.023 0.019,-0.133 c 0.006,-0.076 -0.055,-0.111 -0.123,-0.116 -0.073,-0.007 -0.132,0.021 -0.139,0.091 l -0.004,0.132 0.063,0.003 0.007,-0.13 c 0.003,-0.032 0.029,-0.052 0.068,-0.05 0.033,0.003 0.067,0.022 0.062,0.063 l -0.015,0.129 z m -0.282,-0.068 c 0,0 -0.025,0 -0.048,0.001 -0.025,0.001 -0.049,0.003 -0.049,0.003 l -0.016,-0.186 -0.063,0.005 0.017,0.186 c 0,0 -0.033,0.003 -0.051,0.006 -0.021,0.003 -0.043,0.007 -0.043,0.007 l 0.005,0.042 c 0.034,-0.007 0.078,-0.013 0.127,-0.017 0.042,-0.004 0.082,-0.006 0.123,-0.005 z m -0.463,0.118 -0.065,-0.22 0.06,-0.018 0.027,0.089 0.016,-0.005 c 0.039,-0.009 0.04,-0.055 0.052,-0.109 l 0.067,-0.015 c -0.014,0.075 -0.018,0.099 -0.041,0.116 0.032,0.004 0.055,0.019 0.062,0.042 0.01,0.033 -0.011,0.073 -0.06,0.087 z m 0.049,-0.059 0.029,-0.008 c 0.023,-0.008 0.042,-0.019 0.038,-0.036 -0.005,-0.019 -0.028,-0.02 -0.05,-0.015 l -0.033,0.01 z m -0.131,-0.042 c 0.026,0.049 0.005,0.128 -0.079,0.172 -0.084,0.045 -0.162,0.016 -0.188,-0.033 -0.028,-0.052 -0.004,-0.131 0.077,-0.175 0.081,-0.041 0.162,-0.016 0.19,0.036 m -0.059,0.03 c -0.02,-0.037 -0.066,-0.046 -0.108,-0.022 -0.043,0.021 -0.062,0.064 -0.043,0.101 0.02,0.037 0.065,0.044 0.108,0.021 0.043,-0.023 0.063,-0.063 0.043,-0.1 m -0.297,0.351 -0.163,-0.161 0.043,-0.043 0.067,0.063 0.034,-0.035 c 0.045,-0.044 0.089,-0.044 0.115,-0.02 0.032,0.033 0.019,0.079 -0.017,0.117 z M -2.016,0.022 -2,0.006 c 0.023,-0.025 0.034,-0.046 0.02,-0.06 -0.012,-0.011 -0.033,-0.003 -0.053,0.018 l -0.021,0.02 0.038,0.038" />
      </g>
      <g
         transform="translate(56.6372,281.5449)"
         id="g1740">
        <path
           inkscape:connector-curvature="0"
           id="path1742"
           style="fill:#ffffff;fill-opacity:1;fill-rule:nonzero;stroke:none"
           d="M 0,0 0.03,0.024 C 0.065,0.055 0.087,0.062 0.102,0.045 0.121,0.024 0.104,-0.001 0.081,-0.02 L 0.042,-0.054 Z M 0.046,0.109 C 0,0.08 -0.031,0.051 -0.097,-0.01 l 0.182,-0.219 0.059,0.053 -0.066,0.083 0.058,0.049 C 0.191,0.002 0.191,0.061 0.168,0.094 0.143,0.129 0.094,0.14 0.046,0.109" />
      </g>
      <g
         transform="translate(57.1479,281.7109)"
         id="g1744">
        <path
           inkscape:connector-curvature="0"
           id="path1746"
           style="fill:#ffffff;fill-opacity:1;fill-rule:nonzero;stroke:none"
           d="m 0,0 c 0.017,-0.047 -0.022,-0.101 -0.076,-0.122 -0.065,-0.025 -0.12,-0.002 -0.134,0.049 -0.014,0.05 0.028,0.099 0.073,0.118 C -0.07,0.071 -0.017,0.052 0,0 m 0.077,0.03 c -0.024,0.082 -0.113,0.123 -0.231,0.073 -0.113,-0.048 -0.149,-0.132 -0.13,-0.201 0.02,-0.074 0.097,-0.131 0.228,-0.08 0.114,0.043 0.154,0.139 0.133,0.208" />
      </g>
      <g
         transform="translate(57.3647,281.8418)"
         id="g1748">
        <path
           inkscape:connector-curvature="0"
           id="path1750"
           style="fill:#ffffff;fill-opacity:1;fill-rule:nonzero;stroke:none"
           d="M 0,0 0.043,0.005 C 0.072,0.007 0.103,0.007 0.107,-0.021 0.112,-0.055 0.079,-0.064 0.052,-0.066 L 0.007,-0.07 Z m -0.085,0.041 0.032,-0.285 0.078,0.01 -0.012,0.112 0.024,0.003 c 0.043,0.004 0.069,-0.047 0.109,-0.106 h 0.092 c -0.051,0.079 -0.085,0.136 -0.113,0.131 0.029,0.006 0.07,0.035 0.065,0.081 C 0.183,0.058 0.116,0.062 0.058,0.058 0.001,0.055 -0.085,0.041 -0.085,0.041" />
      </g>
      <g
         transform="translate(57.9077,281.8174)"
         id="g1752">
        <path
           inkscape:connector-curvature="0"
           id="path1754"
           style="fill:#ffffff;fill-opacity:1;fill-rule:nonzero;stroke:none"
           d="m 0,0 c 0,0 -0.018,0.005 -0.055,0.011 -0.037,0.007 -0.058,0.01 -0.058,0.01 l -0.029,-0.236 -0.078,0.009 0.029,0.237 c 0,0 -0.013,0.002 -0.058,0.004 -0.041,0.003 -0.056,0.003 -0.056,0.003 l 0.003,0.048 C -0.249,0.085 -0.186,0.079 -0.142,0.075 -0.099,0.069 -0.046,0.06 0.01,0.048 L 0,0" />
      </g>
      <g
         transform="translate(57.9849,281.5508)"
         id="g1756">
        <path
           inkscape:connector-curvature="0"
           id="path1758"
           style="fill:#ffffff;fill-opacity:1;fill-rule:nonzero;stroke:none"
           d="M 0,0 -0.075,0.021 0.002,0.298 0.079,0.276 Z" />
      </g>
      <g
         transform="translate(58.3262,281.3691)"
         id="g1760">
        <path
           inkscape:connector-curvature="0"
           id="path1762"
           style="fill:#ffffff;fill-opacity:1;fill-rule:nonzero;stroke:none"
           d="M 0,0 -0.055,0.041 -0.12,0.277 -0.195,0.122 -0.268,0.154 -0.144,0.413 -0.08,0.384 -0.006,0.137 0.093,0.288 0.161,0.24 Z" />
      </g>
      <g
         transform="translate(58.7173,281.205)"
         id="g1764">
        <path
           inkscape:connector-curvature="0"
           id="path1766"
           style="fill:#ffffff;fill-opacity:1;fill-rule:nonzero;stroke:none"
           d="M 0,0 C -0.009,0.047 -0.034,0.102 -0.059,0.137 -0.105,0.203 -0.161,0.209 -0.199,0.18 -0.231,0.156 -0.243,0.099 -0.208,0.042 -0.197,0.024 -0.173,-0.005 -0.152,-0.02 l 0.032,0.018 -0.028,0.053 0.04,0.022 0.062,-0.122 -0.091,-0.048 c -0.033,0.013 -0.09,0.066 -0.119,0.108 -0.063,0.09 -0.058,0.187 0.012,0.237 0.072,0.05 0.164,0.02 0.23,-0.072 C 0.016,0.135 0.044,0.075 0.054,0.039 L 0,0" />
      </g>
      <g
         transform="translate(56.5068,281.4033)"
         id="g1768">
        <path
           inkscape:connector-curvature="0"
           id="path1770"
           style="fill:#ffffff;fill-opacity:1;fill-rule:nonzero;stroke:none"
           d="m 0,0 c -0.043,-0.036 -0.066,-0.06 -0.083,-0.086 -0.018,-0.028 -0.021,-0.05 -0.009,-0.058 0.033,-0.024 0.122,0.138 0.205,0.086 0.043,-0.027 0.043,-0.09 0,-0.159 C 0.08,-0.272 0.052,-0.292 0.021,-0.315 l -0.052,0.031 c 0.051,0.03 0.076,0.054 0.097,0.088 0.019,0.03 0.018,0.054 0.004,0.062 -0.039,0.026 -0.115,-0.141 -0.2,-0.088 -0.042,0.025 -0.046,0.083 -0.001,0.156 0.022,0.035 0.047,0.064 0.084,0.095 L 0,0" />
      </g>
      <g
         transform="translate(57.5625,279.4394)"
         id="g1772">
        <path
           inkscape:connector-curvature="0"
           id="path1774"
           style="fill:#278556;fill-opacity:1;fill-rule:nonzero;stroke:none"
           d="m 0,0 c 0,0 0.852,0.246 0.852,1.091 0,0.496 -0.123,0.673 -0.123,0.673 0,0 -0.186,-0.015 -0.341,0.075 C 0.195,1.951 0,1.947 0,1.947 c 0,0 -0.194,0.004 -0.388,-0.108 -0.156,-0.09 -0.341,-0.075 -0.341,-0.075 0,0 -0.123,-0.177 -0.123,-0.673 C -0.851,0.246 0,0 0,0" />
      </g>
      <g
         transform="translate(57.5625,279.4883)"
         id="g1776">
        <path
           inkscape:connector-curvature="0"
           id="path1778"
           style="fill:#ffffff;fill-opacity:1;fill-rule:nonzero;stroke:none"
           d="m 0,0 c 0,0 0.808,0.234 0.808,1.036 0.002,0.472 -0.116,0.64 -0.116,0.64 0,0 -0.175,-0.015 -0.323,0.071 C 0.185,1.854 0,1.849 0,1.849 c 0,0 -0.185,0.005 -0.369,-0.102 -0.148,-0.086 -0.323,-0.071 -0.323,-0.071 0,0 -0.117,-0.168 -0.117,-0.64 C -0.809,0.234 0,0 0,0" />
      </g>
      <g
         transform="translate(57.5625,279.5371)"
         id="g1780">
        <path
           inkscape:connector-curvature="0"
           id="path1782"
           style="fill:#278556;fill-opacity:1;fill-rule:nonzero;stroke:none"
           d="m 0,0 c 0,0 0.767,0.221 0.767,0.98 0,0.448 -0.111,0.608 -0.111,0.608 0,0 -0.166,-0.015 -0.306,0.066 C 0.175,1.756 0,1.751 0,1.751 c 0,0 -0.175,0.005 -0.349,-0.097 -0.14,-0.081 -0.307,-0.066 -0.307,-0.066 0,0 -0.111,-0.16 -0.111,-0.608 C -0.766,0.221 0,0 0,0" />
      </g>
      <g
         transform="translate(57.2617,280.9726)"
         id="g1784">
        <path
           inkscape:connector-curvature="0"
           id="path1786"
           style="fill:#f9b116;fill-opacity:1;fill-rule:nonzero;stroke:none"
           d="M 0,0 C 0,0 0.03,-0.016 0.068,-0.018 0.119,-0.021 0.217,0.024 0.254,-0.011 0.247,-0.009 0.211,-0.002 0.163,-0.02 0.12,-0.035 0.09,-0.042 0.067,-0.042 0.007,-0.042 -0.004,0.004 0,0" />
      </g>
      <g
         transform="translate(57.8335,280.9541)"
         id="g1788">
        <path
           inkscape:connector-curvature="0"
           id="path1790"
           style="fill:#f9b116;fill-opacity:1;fill-rule:nonzero;stroke:none"
           d="m 0,0 c -0.002,0.051 -0.043,0.066 -0.069,0.066 -0.026,0 -0.043,-0.018 -0.043,-0.018 0.001,0.003 -0.005,0.035 0.033,0.043 0.033,0.008 0.063,-0.014 0.068,-0.017 0,0.006 0.002,0.046 -0.062,0.051 -0.031,0.003 -0.075,-0.009 -0.089,0.007 0,0 0.026,0 0.045,0.009 0.019,0.009 0.034,0.025 0.034,0.025 -0.041,-0.013 -0.098,0.018 -0.133,0.019 -0.049,0.002 -0.058,-0.021 -0.058,-0.021 -0.014,0.008 -0.042,0.01 -0.052,0.01 -0.008,0.001 -0.051,0.002 -0.051,-0.024 0,-0.038 0.111,-0.016 0.114,-0.016 0,0 -0.001,-0.011 -0.046,-0.021 -0.017,-0.004 -0.024,-0.012 -0.028,-0.021 0.001,0.003 -0.002,0.008 -0.006,0.012 -0.007,0.01 -0.02,0.021 -0.06,0.019 -0.013,-0.001 -0.06,-0.009 -0.06,-0.028 0,-0.019 0.037,-0.01 0.037,-0.01 0,0 0.001,-0.004 -0.012,-0.01 C -0.446,0.072 -0.452,0.067 -0.454,0.06 -0.457,0.04 -0.433,0.024 -0.433,0.024 c 0,0 0.015,0.032 0.067,0.032 0.054,0 0.08,-0.031 0.079,-0.056 -0.001,-0.014 -0.012,-0.031 -0.051,-0.033 -0.039,-0.001 -0.068,0.009 -0.068,0.009 0,0 -0.008,-0.02 0.006,-0.032 0.019,-0.017 0.027,-0.029 0.026,-0.048 0,0 0.024,0.039 0.055,0.043 0.014,0.002 0.035,-0.001 0.034,-0.017 -0.001,-0.035 -0.07,-0.046 -0.084,-0.05 -0.06,-0.015 -0.079,-0.032 -0.081,-0.049 0.014,0.006 0.029,0.007 0.052,0.006 0.04,-0.002 0.058,0.021 0.058,0.021 0.003,-0.03 -0.056,-0.047 -0.11,-0.066 -0.072,-0.026 -0.085,-0.071 -0.088,-0.096 0,0 -0.131,-0.093 -0.197,-0.091 -0.059,0.003 -0.053,0.037 -0.096,0.037 -0.045,0 -0.052,-0.042 -0.052,-0.042 0,0 0.013,0.008 0.038,0.007 0.019,-0.002 0.028,-0.009 0.031,-0.015 0,0 -0.045,0.006 -0.07,-0.013 -0.034,-0.025 -0.009,-0.061 -0.009,-0.061 0,0 0.009,0.017 0.034,0.025 0.026,0.011 0.049,0.003 0.049,0.003 -0.004,-0.001 -0.046,-0.007 -0.057,-0.037 -0.009,-0.025 0.014,-0.043 0.021,-0.045 0,0 0.023,0.05 0.103,0.065 0.077,0.016 0.135,-0.015 0.135,-0.015 -0.005,0.015 -0.016,0.024 -0.019,0.027 -0.013,0.012 -0.029,0.017 -0.029,0.017 0,0 0.004,0.012 0.024,0.013 0.048,0.002 0.058,-0.041 0.115,-0.044 0.034,-0.003 0.056,0.016 0.056,0.016 0,0 -0.02,-0.008 -0.047,0.022 -0.024,0.027 -0.055,0.023 -0.055,0.023 0,0 0.019,0.017 0.049,0.015 0.042,-0.003 0.067,-0.044 0.098,-0.051 0.035,-0.009 0.049,-0.001 0.049,-0.001 -0.002,-0.002 -0.004,-0.01 -0.023,-0.02 -0.006,-0.002 -0.022,-0.004 -0.027,-0.004 0,0 0.005,-0.061 0.185,-0.107 0.06,-0.015 0.067,-0.028 0.065,-0.052 -0.004,-0.04 -0.056,-0.056 -0.059,-0.131 -0.003,-0.077 0.058,-0.096 0.071,-0.129 0.015,-0.034 -0.006,-0.061 -0.006,-0.061 0.02,-0.004 0.034,0.015 0.048,0.023 0.026,0.014 0.051,-0.001 0.045,-0.042 -0.005,-0.037 -0.04,-0.132 -0.084,-0.13 -0.032,0.001 -0.029,0.006 -0.058,0.007 -0.028,0 -0.032,-0.021 -0.033,-0.03 -0.001,-0.015 0.013,-0.038 0.013,-0.038 0,0 0.005,0.013 0.025,0.02 0.016,0.005 0.028,0.004 0.04,0.004 0,0 -0.038,-0.02 -0.04,-0.051 -0.003,-0.023 0.009,-0.031 0.009,-0.031 0,0 0.008,0.013 0.03,0.017 0.024,0.003 0.04,0.01 0.066,0.044 0,0 0.008,-0.005 -0.004,-0.03 -0.012,-0.022 0,-0.038 0,-0.038 0,0 0.008,0.01 0.019,0.015 0.017,0.008 0.046,0.011 0.049,0.034 0.004,0.022 -0.027,0.041 -0.01,0.082 0.013,0.032 0.037,0.04 0.057,0.05 0.036,0.019 0.034,0.031 0.034,0.031 -0.012,-0.006 -0.025,0.001 -0.042,0 -0.014,-10e-4 -0.023,-0.011 -0.023,-0.011 0,0 0,0.028 0.031,0.052 0.032,0.024 0.082,0.027 0.106,0.064 0.024,0.036 0.003,0.057 0.003,0.057 0,-0.009 -0.011,-0.022 -0.044,-0.036 -0.031,-0.014 -0.043,-0.025 -0.052,-0.037 0,0 -0.003,0.069 0.071,0.095 0.084,0.031 0.059,0.074 0.056,0.08 0,0 -0.017,-0.029 -0.05,-0.03 -0.049,-0.001 -0.052,0.061 -0.052,0.061 0.016,-0.008 0.042,-0.01 0.071,-0.004 0.047,0.009 0.061,0.037 0.064,0.05 -0.003,-0.002 -0.043,-0.035 -0.064,-0.014 0,0 0.082,0.018 0.085,0.113 0.003,0.107 -0.08,0.163 -0.123,0.277 -0.016,0.042 -0.038,0.166 0.064,0.187 0.017,0.002 0.031,-0.002 0.028,0 0,0 -0.025,-0.063 0.045,-0.068 0.066,-0.005 0.096,0.026 0.096,0.026 0,0 -0.03,-0.008 -0.059,0 -0.031,0.008 -0.027,0.027 -0.027,0.027 0,0 0.024,-0.012 0.05,-0.015 0.045,-0.003 0.061,0.019 0.063,0.025 0,0 -0.023,-0.007 -0.044,-0.005 -0.036,0.005 -0.035,0.022 -0.035,0.022 0,0 0.024,-0.009 0.054,-0.003 0.044,0.007 0.051,0.034 0.049,0.042 0,0 -0.011,-0.025 -0.063,-0.016 -0.029,0.005 -0.032,0.011 -0.061,0.013 -0.031,0.002 -0.055,-0.022 -0.058,-0.029 0,0 -0.017,0.003 -0.038,0.001 C 0.125,-0.102 0.039,-0.125 0.042,-0.245 0.044,-0.366 0.162,-0.501 0.158,-0.591 0.154,-0.653 0.11,-0.669 0.09,-0.671 c -0.044,-0.003 -0.1,0.019 -0.152,0.143 -0.027,0.067 -0.037,0.136 -0.032,0.205 0,0 -0.016,-0.008 -0.023,-0.033 -0.005,-0.018 -0.003,-0.029 0,-0.04 0,0 -0.033,0.011 -0.029,0.06 0.004,0.053 0.018,0.066 0.021,0.109 0.003,0.033 -0.017,0.06 -0.017,0.06 0,0 0.044,-0.006 0.052,-0.062 0.015,-0.097 0.053,-0.089 0.054,-0.089 -0.026,0.04 -0.009,0.1 -0.017,0.151 -0.013,0.077 -0.066,0.06 -0.068,0.06 0,0 0.009,0.027 0.036,0.027 0.02,0 0.038,-0.02 0.055,-0.062 0.016,-0.041 0.039,-0.033 0.039,-0.033 -0.02,0.023 -0.014,0.061 -0.026,0.095 -0.031,0.081 -0.089,0.064 -0.09,0.064 0.002,0.003 0.006,0.028 0.037,0.028 0.022,10e-4 0.043,-0.016 0.054,-0.043 0.012,-0.027 0.03,-0.023 0.03,-0.023 C 0.006,-0.046 0.002,-0.043 0,0" />
      </g>
      <g
         transform="translate(57.0586,280.9941)"
         id="g1792">
        <path
           inkscape:connector-curvature="0"
           id="path1794"
           style="fill:#f9b116;fill-opacity:1;fill-rule:nonzero;stroke:none"
           d="M 0,0 C 0,0 0.032,0.017 0.057,-0.012 0.077,-0.035 0.079,-0.105 0.14,-0.14 0.229,-0.191 0.318,-0.184 0.318,-0.184 0.279,-0.207 0.272,-0.231 0.246,-0.258 0.183,-0.319 0.126,-0.3 0.123,-0.294 c 0,0 0.015,0.003 0.031,0.017 0.015,0.015 0.021,0.023 0.037,0.034 0.018,0.012 0.033,0.014 0.033,0.014 0,0 -0.008,0.01 -0.034,0.002 -0.028,-0.008 -0.039,-0.033 -0.079,-0.034 -0.04,-0.002 -0.05,0.011 -0.05,0.011 0,0 0.009,-0.002 0.025,0.005 0.013,0.007 0.023,0.02 0.035,0.028 0.017,0.013 0.035,0.011 0.035,0.011 0,0 -0.009,0.012 -0.03,0.012 -0.034,-0.001 -0.037,-0.017 -0.064,-0.01 0,0 0.013,0.014 0.013,0.03 0.001,0.015 -0.009,0.053 -0.088,0.057 -0.047,0.002 -0.07,0.028 -0.076,0.035 -0.007,0.008 -0.015,0.012 -0.022,0.013 0.009,0.015 0.04,0.02 0.069,0.004 0.017,-0.009 0.025,-0.009 0.025,-0.009 -0.004,0.009 -0.023,0.031 -0.042,0.035 -0.013,0.002 -0.02,0.002 -0.031,-0.002 0,0 0.011,0.033 0.049,0.035 0.038,0.002 0.062,-0.031 0.07,-0.047 0,0 10e-4,0.012 -0.008,0.03 C 0.017,-0.014 0.005,-0.004 0,0" />
      </g>
      <g
         transform="translate(57.54,280.3662)"
         id="g1796">
        <path
           inkscape:connector-curvature="0"
           id="path1798"
           style="fill:#f9b116;fill-opacity:1;fill-rule:nonzero;stroke:none"
           d="m 0,0 c -0.028,-0.018 -0.062,-0.008 -0.117,-0.011 -0.064,-0.004 -0.079,-0.051 -0.079,-0.075 0,-0.048 0.039,-0.068 0.036,-0.101 -0.003,-0.04 -0.064,-0.069 -0.106,-0.065 -0.041,0.004 -0.067,0.043 -0.105,0.041 -0.045,-0.001 -0.047,-0.038 -0.047,-0.038 0,0 0.016,0.006 0.034,0.004 0.023,-0.004 0.026,-0.022 0.028,-0.027 0,0 -0.046,0.02 -0.078,-0.005 -0.031,-0.024 -0.008,-0.065 -0.01,-0.062 0,0 0.01,0.018 0.03,0.025 0.024,0.007 0.043,0.003 0.043,0.003 0,0 -0.019,-0.008 -0.031,-0.023 -0.015,-0.017 -0.013,-0.034 -0.013,-0.034 0.019,0.014 0.033,0.003 0.052,0.002 0.043,-0.005 0.046,0.047 0.102,0.054 0.059,0.008 0.104,-0.017 0.104,-0.017 0,0 0.001,0.016 -0.013,0.027 -0.014,0.012 -0.03,0.012 -0.03,0.012 0,0 0.014,0.01 0.034,0.01 0.037,-0.001 0.055,-0.021 0.092,-0.023 0.043,-0.002 0.067,0.022 0.067,0.022 0,0 -0.024,-10e-4 -0.049,0.016 -0.024,0.018 -0.053,0.009 -0.053,0.009 0,0 0.008,0.032 0.056,0.032 0.049,-0.001 0.094,-0.026 0.094,-0.026 0,0 -0.026,0.03 -0.014,0.09 0.013,0.057 0.054,0.085 0.054,0.085 0,0 -0.033,0.002 -0.063,-0.014 -0.035,-0.016 -0.046,-0.034 -0.046,-0.034 0,0 -0.002,0.023 0.025,0.048 0.03,0.027 0.048,0.031 0.048,0.031 -0.01,0.002 -0.037,0 -0.073,-0.01 -0.047,-0.012 -0.065,-0.026 -0.065,-0.026 0,0 -0.002,0.027 0.043,0.043 C 0.007,-0.018 0,0 0,0" />
      </g>
      <g
         transform="translate(57.3018,280.6181)"
         id="g1800">
        <path
           inkscape:connector-curvature="0"
           id="path1802"
           style="fill:#278556;fill-opacity:1;fill-rule:nonzero;stroke:none"
           d="M 0,0 C 0,0 0.016,0.048 0.073,0.059 0.141,0.073 0.15,0.087 0.166,0.106 0.166,0.106 0.173,0.055 0.11,0.03 0.073,0.017 0.057,0.021 0.03,0.015 0.01,0.01 0,0 0,0" />
      </g>
      <g
         transform="translate(57.3945,280.5869)"
         id="g1804">
        <path
           inkscape:connector-curvature="0"
           id="path1806"
           style="fill:#278556;fill-opacity:1;fill-rule:nonzero;stroke:none"
           d="M 0,0 C 0,0 -0.001,0.032 0.081,0.059 0.171,0.087 0.159,0.134 0.159,0.134 0.171,0.118 0.179,0.056 0.113,0.027 0.089,0.017 0.062,0.02 0.035,0.015 0.024,0.013 0.014,0.01 0,0" />
      </g>
      <g
         transform="translate(57.5146,280.5576)"
         id="g1808">
        <path
           inkscape:connector-curvature="0"
           id="path1810"
           style="fill:#278556;fill-opacity:1;fill-rule:nonzero;stroke:none"
           d="m 0,0 c 0,0 -0.006,0.021 0.018,0.038 0.037,0.027 0.075,0.028 0.096,0.067 0.014,0.027 0.013,0.046 0.01,0.057 0,0 0.005,-0.002 0.014,-0.019 C 0.144,0.13 0.154,0.08 0.124,0.053 0.102,0.032 0.064,0.026 0.036,0.021 0.02,0.016 0.009,0.009 0,0" />
      </g>
      <g
         transform="translate(57.3862,280.5508)"
         id="g1812">
        <path
           inkscape:connector-curvature="0"
           id="path1814"
           style="fill:#278556;fill-opacity:1;fill-rule:nonzero;stroke:none"
           d="M 0,0 C 0,0 0.014,0.014 0.036,0.013 0.076,0.012 0.091,-0.017 0.112,-0.024 0.125,-0.029 0.131,-0.027 0.131,-0.027 0.128,-0.031 0.122,-0.039 0.103,-0.037 0.068,-0.035 0.048,-0.006 0.027,0 0.011,0.005 0,0 0,0" />
      </g>
      <g
         transform="translate(57.4521,280.4609)"
         id="g1816">
        <path
           inkscape:connector-curvature="0"
           id="path1818"
           style="fill:#278556;fill-opacity:1;fill-rule:nonzero;stroke:none"
           d="m 0,0 c 0,0 0.041,-0.015 0.087,-0.014 0.034,0.002 0.071,0.014 0.098,0.03 0,0 -0.03,-0.043 -0.095,-0.047 C 0.031,-0.035 0,0 0,0" />
      </g>
      <g
         transform="translate(57.541,280.414)"
         id="g1820">
        <path
           inkscape:connector-curvature="0"
           id="path1822"
           style="fill:#278556;fill-opacity:1;fill-rule:nonzero;stroke:none"
           d="m 0,0 c 0,0 0.045,-0.01 0.076,-0.008 0.038,0.002 0.061,0.007 0.08,0.015 0,0 -0.02,-0.029 -0.079,-0.031 C 0.022,-0.027 0,0 0,0" />
      </g>
      <g
         transform="translate(57.6885,280.2802)"
         id="g1824">
        <path
           inkscape:connector-curvature="0"
           id="path1826"
           style="fill:#278556;fill-opacity:1;fill-rule:nonzero;stroke:none"
           d="m 0,0 c 0,0 -0.046,-0.048 -0.044,-0.099 0.002,-0.036 0.019,-0.052 0.038,-0.083 0.012,-0.018 0.014,-0.033 0.014,-0.033 0.011,0.023 -0.016,0.066 -0.026,0.102 C -0.029,-0.065 0,0 0,0" />
      </g>
      <g
         transform="translate(60.4805,281.2705)"
         id="g1828">
        <path
           inkscape:connector-curvature="0"
           id="path1830"
           style="fill:#211d1d;fill-opacity:1;fill-rule:nonzero;stroke:none"
           d="m 0,0 v -0.293 c -0.076,0.07 -0.149,0.118 -0.222,0.145 -0.072,0.026 -0.139,0.04 -0.2,0.04 -0.083,0 -0.151,-0.02 -0.205,-0.06 -0.054,-0.04 -0.081,-0.091 -0.081,-0.154 0,-0.066 0.025,-0.12 0.073,-0.165 0.049,-0.045 0.108,-0.088 0.178,-0.128 0.021,-0.013 0.044,-0.026 0.068,-0.038 0.024,-0.014 0.048,-0.028 0.073,-0.041 0.096,-0.057 0.185,-0.125 0.266,-0.206 0.081,-0.081 0.121,-0.193 0.121,-0.335 0,-0.141 -0.048,-0.257 -0.142,-0.349 -0.096,-0.092 -0.216,-0.137 -0.362,-0.137 -0.097,0 -0.186,0.013 -0.268,0.039 -0.081,0.027 -0.16,0.069 -0.236,0.124 v 0.33 c 0.067,-0.085 0.141,-0.151 0.222,-0.196 0.081,-0.045 0.165,-0.067 0.253,-0.067 0.083,0 0.148,0.017 0.194,0.054 0.047,0.036 0.077,0.076 0.091,0.12 0.002,0.008 0.004,0.017 0.006,0.026 0.001,0.009 0.002,0.018 0.002,0.026 0,0.079 -0.03,0.146 -0.09,0.2 -0.059,0.053 -0.129,0.105 -0.208,0.154 -0.016,0.009 -0.032,0.018 -0.046,0.028 -0.015,0.01 -0.03,0.019 -0.044,0.028 -0.098,0.059 -0.188,0.126 -0.269,0.202 -0.081,0.074 -0.121,0.174 -0.121,0.297 0,0.145 0.049,0.262 0.149,0.349 0.099,0.087 0.232,0.131 0.397,0.131 0.068,0 0.137,-0.011 0.204,-0.032 C -0.129,0.071 -0.063,0.039 0,-0.003 Z" />
      </g>
      <g
         transform="translate(61.0796,280.584)"
         id="g1832">
        <path
           inkscape:connector-curvature="0"
           id="path1834"
           style="fill:#211d1d;fill-opacity:1;fill-rule:nonzero;stroke:none"
           d="M 0,0 H 0.293 C 0.39,-0.002 0.466,0.021 0.524,0.071 0.581,0.12 0.609,0.19 0.609,0.279 V 0.295 0.307 C 0.604,0.369 0.579,0.426 0.534,0.479 0.489,0.53 0.413,0.557 0.303,0.557 H 0 Z M 0.303,0.789 C 0.5,0.787 0.645,0.736 0.738,0.635 0.83,0.533 0.876,0.412 0.876,0.27 0.876,0.129 0.827,0.009 0.729,-0.088 0.632,-0.186 0.479,-0.234 0.269,-0.234 H 0 v -0.777 h -0.259 v 1.8 z" />
      </g>
      <g
         transform="translate(62.3672,280.4726)"
         id="g1836">
        <path
           inkscape:connector-curvature="0"
           id="path1838"
           style="fill:#211d1d;fill-opacity:1;fill-rule:nonzero;stroke:none"
           d="m 0,0 c 0,-0.198 0.066,-0.363 0.199,-0.493 0.133,-0.13 0.3,-0.195 0.501,-0.195 0.202,0 0.369,0.065 0.502,0.195 0.133,0.13 0.199,0.294 0.199,0.491 C 1.401,0.196 1.335,0.36 1.202,0.49 1.069,0.619 0.902,0.684 0.7,0.684 0.499,0.684 0.332,0.619 0.199,0.49 0.066,0.36 0,0.196 0,-0.002 Z m -0.267,0 c 0,0.248 0.088,0.464 0.265,0.647 0.175,0.183 0.409,0.275 0.702,0.275 0.297,0 0.532,-0.092 0.707,-0.274 0.174,-0.181 0.261,-0.399 0.261,-0.65 0,-0.243 -0.086,-0.457 -0.259,-0.643 -0.172,-0.185 -0.41,-0.278 -0.715,-0.278 -0.294,0 -0.527,0.092 -0.7,0.277 -0.174,0.185 -0.261,0.399 -0.261,0.644 z" />
      </g>
      <g
         transform="translate(64.6157,280.5869)"
         id="g1840">
        <path
           inkscape:connector-curvature="0"
           id="path1842"
           style="fill:#211d1d;fill-opacity:1;fill-rule:nonzero;stroke:none"
           d="m 0,0 h 0.167 c 0.137,-0.002 0.23,0.026 0.279,0.085 0.05,0.06 0.074,0.126 0.074,0.2 V 0.287 0.29 C 0.518,0.375 0.49,0.442 0.436,0.491 0.381,0.54 0.292,0.564 0.167,0.564 H 0 Z M 0.195,0.786 C 0.378,0.784 0.523,0.738 0.628,0.649 0.734,0.56 0.787,0.437 0.787,0.279 0.787,0.176 0.761,0.086 0.708,0.011 0.657,-0.065 0.583,-0.122 0.486,-0.161 0.537,-0.194 0.583,-0.234 0.625,-0.28 0.666,-0.326 0.706,-0.378 0.745,-0.436 0.767,-0.47 0.791,-0.505 0.814,-0.543 0.838,-0.58 0.862,-0.619 0.887,-0.66 c 0.01,-0.018 0.02,-0.034 0.03,-0.05 0.01,-0.016 0.02,-0.031 0.031,-0.045 C 0.949,-0.759 0.952,-0.763 0.954,-0.767 0.957,-0.771 0.96,-0.775 0.963,-0.778 0.984,-0.811 1.008,-0.845 1.035,-0.88 1.061,-0.917 1.094,-0.961 1.132,-1.014 H 0.823 l -0.237,0.369 c -0.1,0.156 -0.181,0.26 -0.243,0.314 -0.061,0.053 -0.119,0.084 -0.174,0.091 -0.01,0.002 -0.021,0.003 -0.03,0.004 -0.01,0.001 -0.02,0.001 -0.031,0.001 H 0 v -0.779 h -0.258 v 1.8 z" />
      </g>
      <g
         transform="translate(67.0596,281.1406)"
         id="g1844">
        <path
           inkscape:connector-curvature="0"
           id="path1846"
           style="fill:#211d1d;fill-opacity:1;fill-rule:nonzero;stroke:none"
           d="M 0,0 H -0.623 V -1.567 H -0.881 V 0 H -1.504 V 0.232 H 0 Z" />
      </g>
      <path
         inkscape:connector-curvature="0"
         id="path1848"
         style="fill:#211d1d;fill-opacity:1;fill-rule:nonzero;stroke:none"
         d="m 67.563,279.573 h -0.258 v 1.8 h 0.258 z" />
      <g
         transform="translate(69.6275,279.5732)"
         id="g1850">
        <path
           inkscape:connector-curvature="0"
           id="path1852"
           style="fill:#211d1d;fill-opacity:1;fill-rule:nonzero;stroke:none"
           d="M 0,0 H -0.222 L -1.425,1.386 V 0 h -0.243 v 1.8 h 0.206 L -0.243,0.406 V 1.8 H 0 Z" />
      </g>
      <g
         transform="translate(71.6016,279.6972)"
         id="g1854">
        <path
           inkscape:connector-curvature="0"
           id="path1856"
           style="fill:#211d1d;fill-opacity:1;fill-rule:nonzero;stroke:none"
           d="M 0,0 C -0.055,-0.024 -0.106,-0.046 -0.156,-0.063 -0.205,-0.081 -0.254,-0.096 -0.304,-0.108 -0.365,-0.12 -0.427,-0.13 -0.49,-0.137 c -0.062,-0.008 -0.128,-0.01 -0.197,-0.01 -0.275,0 -0.504,0.085 -0.686,0.256 -0.181,0.172 -0.271,0.39 -0.271,0.654 0,0.265 0.092,0.487 0.277,0.666 0.184,0.178 0.414,0.268 0.689,0.268 0.033,0 0.066,-0.001 0.097,-0.003 0.032,-0.002 0.063,-0.005 0.093,-0.01 0.065,-0.009 0.132,-0.025 0.201,-0.046 0.07,-0.023 0.153,-0.054 0.25,-0.094 V 1.285 C -0.116,1.327 -0.196,1.362 -0.277,1.39 -0.358,1.417 -0.439,1.437 -0.52,1.449 -0.548,1.452 -0.576,1.455 -0.603,1.457 -0.63,1.459 -0.657,1.459 -0.684,1.459 -0.879,1.459 -1.043,1.394 -1.177,1.262 -1.311,1.13 -1.378,0.966 -1.378,0.771 c 0,-0.201 0.068,-0.365 0.205,-0.493 0.136,-0.128 0.311,-0.191 0.524,-0.191 0.07,0 0.137,0.007 0.202,0.021 0.064,0.014 0.127,0.031 0.188,0.05 V 0.53 H -0.604 V 0.763 H 0 Z" />
      </g>
      <g
         transform="translate(74.252,281.1406)"
         id="g1858">
        <path
           inkscape:connector-curvature="0"
           id="path1860"
           style="fill:#278556;fill-opacity:1;fill-rule:nonzero;stroke:none"
           d="M 0,0 H -0.623 V -1.567 H -0.881 V 0 H -1.504 V 0.232 H 0 Z" />
      </g>
      <g
         transform="translate(75.1279,279.5576)"
         id="g1862">
        <path
           inkscape:connector-curvature="0"
           id="path1864"
           style="fill:#278556;fill-opacity:1;fill-rule:nonzero;stroke:none"
           d="m 0,0 h -0.053 l -0.778,1.815 h 0.259 l 0.541,-1.263 0.538,1.263 h 0.256 z" />
      </g>
    </g>
  </g>
</svg>
