<?xml version="1.0" encoding="UTF-8" standalone="no"?>
<svg xmlns:rdf="http://www.w3.org/1999/02/22-rdf-syntax-ns#" xmlns="http://www.w3.org/2000/svg" height="450.65" width="600" version="1.1" xmlns:cc="http://creativecommons.org/ns#" xmlns:dc="http://purl.org/dc/elements/1.1/" viewBox="0 0 158.75 119.23475">
 <g transform="translate(-33.091 49.815)">
  <g fill="#007f7b">
   <path d="m53.476 37.854c-2.194-0.604-5.429-1.203-8.279-1.203-2.63 0-3.946 0.212-3.946 2.406 0 1.484 0.767 1.864 5.1 2.413 6.52 0.823 9.425 2.799 9.425 8.547 0 7.623-5.479 9.65-12.549 9.65-3.017 0-7.405-0.605-9.98-1.534l1.646-6.358c2.088 0.604 5.211 1.153 7.948 1.153 3.291 0 4.825-0.275 4.825-2.469 0-1.534-0.929-2.132-5.592-2.575-5.86-0.554-8.983-2.25-8.983-8.222 0-7.618 5.423-9.594 12.437-9.594 3.017 0 6.963 0.61 9.588 1.54z"/>
   <path d="m59.5 32.046c3.017-1.153 8.328-1.976 12.717-1.976 9.532 0 13.752 3.348 13.752 14.805 0 11.34-4.925 14.788-11.894 14.788-2.737 0-4.601-0.599-6.135-1.253v11.009h-8.44zm8.44 18.578c0 1.259 1.864 2.138 4.333 2.138 3.996 0 5.261-1.758 5.261-7.668 0-6.801-1.315-8.005-5.317-8.005-1.484 0-3.292 0.275-4.277 0.655z"/>
   <path d="m89.258 44.705c0-11.457 4.657-14.637 13.592-14.637 9.1 0 13.7 3.18 13.7 14.637 0 11.514-4.55 14.962-13.7 14.962-9.041 0-13.592-3.448-13.592-14.962m8.497 0.168c0 7.069 1.147 8.217 5.095 8.217 4 0 5.15-1.148 5.15-8.217 0-7.349-1.15-8.222-5.15-8.222-3.948 0-5.095 0.873-5.095 8.222"/>
   <path d="m120.22 30.837h8.44v2.961c0.93-1.645 2.74-2.961 6.8-2.961h4.79l-4.49 7.238-1.46 0.011c-3.01 0-5.64 0.991-5.64 2.849v17.967h-8.44z"/>
   <path d="m164.11 30.837v1.372c-3.51 5.866-9.53 14.743-13.04 19.456h12.39v7.237h-25.38v-1.371c4.61-6.14 10.9-15.454 13.15-19.456h-11.29l4.4-7.238z"/>
   <path d="m191.84 57.478c-3.78 1.366-9.21 2.189-13.32 2.189-9.26 0-12-1.971-12-9.314 0-7.898 4.27-9.157 10.96-9.157 2.09 0 4.22 0.274 6.36 0.71 0-3.89-0.88-4.981-6.36-4.981-3.23 0-6.35 0.599-8.71 1.315l-1.32-6.683c3.23-0.828 7.9-1.489 12.06-1.489 8.39 0 12.33 2.581 12.33 10.909zm-12.66-4.058c1.58 0 3.35-0.274 4.66-0.767v-5.323c-1.26-0.324-2.85-0.38-4.55-0.38-3.02 0-4.11 0.33-4.11 3.129 0 2.849 0.71 3.341 4 3.341"/>
  </g>
  <path d="m153.72-30.997c2.55 3.622 4.18 7.696 4.64 12.096 1.94 18.381-17.03 35.442-42.37 38.112-10.66 1.13-20.739-0.487-28.995-4.092 6.341 3.174 13.665 5.373 21.585 6.247 26.88 2.961 50.4-10.49 52.54-30.035 0.88-7.977-1.93-15.734-7.4-22.328" fill="#8dc63f"/>
  <path d="m66.611-9.2297c-1.942-18.381 17.033-35.442 42.369-38.117 10.05-1.058 19.59 0.313 27.57 3.498-6.01-2.804-12.84-4.752-20.18-5.558-26.866-2.961-50.391 10.495-52.535 30.035-0.907 8.183 2.088 16.143 7.842 22.843-2.794-3.7674-4.579-8.0549-5.066-12.701" fill="#8dc63f"/>
  <path d="m110.83-20.685c-4.58 0.828-3.85 3.196-1.64 3.151 4.9-0.112 13.35 2.004 14.1 6.112 0.84 4.6462-2.66 7.6687-9.06 8.9841-13.4 2.7538-25.057-4.8697-26.971-13.333-1.064-4.69 0.907-9.493 4.466-13.416-9.493 5.339-14.177 12.739-12.745 20.631 1.965 10.786 18.746 20.789 37.7 16.719 11.34-2.4289 16.48-9.8565 14.9-18.504-1.32-7.316-11.41-12.046-20.75-10.344" fill="#007f7b"/>
  <path d="m112.99-7.3607c4.59-0.834 3.85-3.2013 1.64-3.1573-4.9 0.112-13.35-1.998-14.1-6.112-0.843-4.64 2.66-7.663 9.06-8.983 13.4-2.754 25.06 4.869 26.97 13.332 1.07 4.6908-0.9 9.4988-4.46 13.417 9.49-5.3399 14.17-12.739 12.74-20.632-1.96-10.78-18.74-20.794-37.69-16.73-11.353 2.435-16.486 9.874-14.913 18.521 1.327 7.316 11.423 12.04 20.753 10.344" fill="#007f7b"/>
 </g>
</svg>
