<svg width="600" height="238.35" version="1.1" viewBox="0 0 158.75 63.064" xmlns="http://www.w3.org/2000/svg">
 <g transform="translate(-22.679 -159.63)">
  <g fill="#1d1d1b">
   <path class="cls-1" d="m121.97 197.03h5.1477v-22.115h7.0539v-4.5719h-19.256v4.5719h7.0539z"/>
   <path class="cls-1" d="m28.506 177.45c0-2.0501 2.1594-2.8841 4.1003-2.8841a7.1184 7.1184 0 0 1 4.5272 1.6927l2.7104-3.7578a12.321 12.321 0 0 0-7.6942-2.482c-4.4081 0-8.7764 2.7352-8.7764 7.4858 0 2.9784 1.6729 4.825 3.7627 6.0412 3.5691 2.0898 8.5084 2.5068 8.5084 5.932 0 1.936-1.5934 3.3408-3.8769 3.3408a8.7516 8.7516 0 0 1-6.2547-2.9139l-2.8345 3.9266a14.009 14.009 0 0 0 9.0842 3.5294c4.7903 0 9.0097-3.2663 9.0097-7.9822 0-8.965-12.271-7.6347-12.271-11.914"/>
   <path class="cls-1" d="m77.806 192.8c-4.964 0-7.5999-3.7975-7.5999-9.119 0-5.3215 2.6607-9.1189 7.5999-9.1189 4.9392 0 7.5999 3.8024 7.5999 9.1189 0 5.3165-2.6607 9.119-7.5999 9.119m0-22.8c-7.9822 0-12.907 5.6987-12.907 13.681 0 7.9823 4.964 13.681 12.907 13.681 7.9424 0 12.906-5.6987 12.906-13.681 0-7.9823-4.964-13.681-12.906-13.681"/>
   <path class="cls-1" d="m57.796 178.27a3.3011 3.3011 0 0 0-0.87368-2.2884c-0.61058-0.65028-1.4892-1.0673-3.2415-1.0673h-4.6513v6.6717h4.6513c1.7523 0 2.6309-0.41698 3.2415-1.0673a3.1869 3.1869 0 0 0 0.87368-2.2438m5.1477 0a8.0268 8.0268 0 0 1-2.0998 5.5299c-1.4495 1.524-3.5046 2.3629-6.9497 2.3629h-4.8796v10.856h-5.1328v-26.687h10.022c3.4351 0 5.4604 0.83892 6.9497 2.4026a8.0219 8.0219 0 0 1 2.0998 5.5299"/>
   <path class="cls-1" d="m106.86 185.87a7.1879 7.1879 0 0 0 3.862-2.07 8.3297 8.3297 0 0 0 0-11.06c-1.4892-1.5637-3.5046-2.4026-6.9497-2.4026h-10.008v26.687h5.1428v-13.453l9.799 13.443h4.825v-1.9856zm-3.3011-4.284h-4.6513v-6.6717h4.6513c1.7523 0 2.631 0.41699 3.2415 1.0673a3.3011 3.3011 0 0 1 0.87368 2.2884 3.1919 3.1919 0 0 1-0.87368 2.2487c-0.61056 0.64531-1.4892 1.0673-3.2415 1.0673z"/>
  </g>
  <path class="cls-2" d="m152.65 173.92c0-5.0484 3.0777-6.2795 6.2845-6.2795a4.6513 4.6513 0 0 1 3.3011 1.2907l0.0794 0.0844 5.2619-7.2376-0.1439-0.0844a17.334 17.334 0 0 0-8.5034-2.0551c-8.007 0-15.523 4.6215-15.523 14.286v0.99281h9.2381z" fill="#ffe400"/>
  <path class="cls-1" d="m176.26 186.99v-26.607h-7.6694l-1.0176 1.3998c3.6138 2.0899 6.0164 5.7086 6.0164 10.871 0 4.6215-1.8466 7.6992-4.2492 10.841l-0.0694 0.0794-9.7792 13.453h6.91v8.3148h9.8586v-8.3148h5.1725v-10.037z" fill="#1d1d1b"/>
  <path class="cls-1" d="m158.57 182.8 2.209-3.0876c1.8466-2.482 2.9784-4.006 2.9784-7.0837a5.1179 5.1179 0 0 0-1.4346-3.6138l-18.903 26.012v1.9856h4.83z" fill="#1d1d1b"/>
  <path class="cls-2" d="m148.24 197.03-4.7357 6.5128-0.0944 0.13396v1.6679h22.993v-8.3148h-6.9099z" fill="#ffe400"/>
  <path class="cls-2" d="m80.016 222.7h92.078l4.1797-5.8923v-6.9844h-91.835l-4.4229 6.761z" fill="#ffe400"/>
  <g fill="#1d1d1b">
   <path d="m112.96 213.6v-1.4892h-5.1626v8.6076h5.2867v-1.4892h-3.6287v-2.3927h2.6458v-1.4892h-2.6458v-1.7821z"/>
   <path d="m122.43 212.11h-1.9062l-1.7225 2.7153-1.7225-2.7153h-1.9111l2.6061 4.0209-2.9784 4.5868h1.9062l2.0898-3.2713 2.0899 3.2713h1.9062l-2.9784-4.5868z"/>
   <path d="m124.15 212.11v1.4892h2.2735v7.1333h1.648v-7.1582h2.2735v-1.4892z"/>
   <path d="m135.86 212.09a2.6012 2.6012 0 0 0-0.21814 6e-3h-3.1374v8.6076h1.6579v-3.8122l0.6108 0.015 3.0628 3.8122h2.0506l-3.2218-3.9712a2.2189 2.2189 0 0 0 0.85803-0.49639 2.4125 2.4125 0 0 0 0-3.5146 2.6012 2.6012 0 0 0-1.6628-0.64571zm-0.24336 1.4708a0.99281 0.99281 0 0 1 0.73491 0.28212 0.99281 0.99281 0 0 1 0 1.3147 0.99281 0.99281 0 0 1-0.8338 0.25885h-1.3457v-1.847h1.3457a0.99281 0.99281 0 0 1 0.0989-9e-3z"/>
   <path d="m144.87 212.12-3.6881 8.6076 1.7277-0.0251 0.79404-1.8809h3.4748l0.8144 1.9061h1.7326l-3.6891-8.6076zm0.57105 2.6604 1.0975 2.547h-2.1892z"/>
  </g>
 </g>
</svg>
