<?xml version="1.0" encoding="UTF-8"?>
<svg width="200px" height="51px" viewBox="0 0 200 51" version="1.1" xmlns="http://www.w3.org/2000/svg" xmlns:xlink="http://www.w3.org/1999/xlink">
    <title>SPORT1 Logo</title>
    <g id="Symbols" stroke="none" stroke-width="1" fill="none" fill-rule="evenodd">
        <g id="SPORT1-Logo">
            <path d="M191.922511,0.00179026549 C189.900707,6.11366637 184.141308,10.317631 177.641308,10.317631 L175.772286,17.6495956 L184.592737,17.6495956 L178.30206,41.0933478 L188.799053,41.0933478 L199.951233,-1.50442478e-05 C199.951233,-1.50442478e-05 191.923414,0.00118849558 191.922511,0.00179026549" id="Fill-13" fill="#F6A800"></path>
            <polygon id="Fill-5" fill="#FFFFFF" points="174.538376 10.3176009 162.272511 10.3176009 165.03597 -4.51327434e-05 157.109654 -4.51327434e-05 146.10394 41.0916628 154.030256 41.0916628 160.302286 17.6495655 172.578526 17.6495655"></polygon>
            <path d="M140.003594,10.3176009 C130.859835,10.3176009 127.058481,15.0500699 124.553368,24.4379814 L120.084496,41.0933177 L128.011113,41.0933177 L132.434421,24.4379814 C133.376827,20.9213885 135.629008,17.6525743 140.003594,17.6525743 L149.322842,17.6525743 L151.24991,10.3176009 L140.003594,10.3176009 Z" id="Fill-3" fill="#FFFFFF"></path>
            <path d="M113.543308,23.7904319 L112.392331,28.0879717 C111.583308,31.1087062 108.904812,33.7581487 105.175188,33.7581487 L93.8690226,33.7581487 C88.6509774,33.7581487 89.2296241,29.0016088 89.6064662,27.6205469 L90.757594,23.3227062 C91.5664662,20.3021221 94.3682707,17.6525292 97.9747368,17.6525292 L109.280752,17.6525292 C114.498797,17.6525292 113.92015,22.4093699 113.543308,23.7904319 M109.280752,10.3175558 L97.9747368,10.3175558 C91.197594,10.3175558 85.2281203,14.8846885 83.4578947,21.424423 L82.3067669,25.7221133 C80.5514286,32.2189717 82.1753383,41.093423 93.8690226,41.093423 L105.175188,41.093423 C112.411579,41.093423 117.921654,36.5262903 119.69203,29.9865558 L120.843008,25.6891664 C122.598496,19.1917062 120.791579,10.3175558 109.280752,10.3175558" id="Fill-11" fill="#FFFFFF"></path>
            <path d="M71.9522406,23.7904319 L70.8012632,28.0879717 C69.9922406,31.1087062 67.3137444,33.7581487 63.5841203,33.7581487 L48.7056241,33.7581487 L53.0191579,17.6525292 L67.6896842,17.6525292 C72.9077293,17.6525292 72.3290827,22.4093699 71.9522406,23.7904319 M67.6896842,10.3175558 L54.9838195,10.316954 L47.0575038,10.316954 L36.2006617,50.8536796 L44.1269774,50.8536796 L46.7411128,41.093423 L63.5841203,41.093423 C70.8205113,41.093423 76.3305865,36.5262903 78.1009624,29.9865558 L79.2519398,25.6891664 C81.0074286,19.1917062 79.2005113,10.3175558 67.6896842,10.3175558" id="Fill-8" fill="#FFFFFF"></path>
            <path d="M0,41.0933779 L1.96451128,33.7581035 L28.0225564,33.7581035 C29.2581955,33.7581035 30.4046617,32.7517938 30.5784962,31.5144044 C30.664812,30.8990947 30.4887218,30.2864929 30.0953383,29.8336611 C29.7353383,29.4193425 29.2381955,29.1911212 28.6954887,29.1911212 L12.0285714,29.1911212 C9.47082707,29.1911212 7.24661654,28.2179088 5.76571429,26.4505106 C4.28496241,24.6831124 3.71263158,22.3154487 4.16496241,19.7848558 C5.2006015,13.9902628 10.0890226,10.3176611 15.3087218,10.3176611 L42.5565414,10.3176611 L40.5920301,17.6526345 L14.1765414,17.6526345 C13.0335338,17.6526345 11.9881203,18.5748469 11.6344361,19.8957319 C11.4920301,20.4269442 11.6007519,20.9634221 11.9403008,21.4066257 C12.3007519,21.8764575 12.8694737,22.1570327 13.4615038,22.1570327 L30.2162406,22.1570327 C32.7801504,22.1570327 35.0040602,23.1322009 36.4784962,24.9032097 C37.9553383,26.6773779 38.4673684,29.0462451 38.0443609,31.5963956 C37.0942857,37.3229885 32.6526316,41.0933779 26.8027068,41.0933779 L0,41.0933779 Z" id="Fill-1" fill="#FFFFFF"></path>
        </g>
    </g>
</svg>