<svg xmlns="http://www.w3.org/2000/svg" height="115.07" width="600">
    <path fill="#FFF" d="M593.05 115.07c3.848 0 6.945-3.476 6.945-7.795V7.79c0-4.318-3.1-7.794-6.95-7.794H6.945C3.098-.004 0 3.472 0 7.79v99.48c0 4.319 3.098 7.795 6.945 7.795"/>
    <path fill="#00386b" d="M14.331 7.56c-3.75 0-6.77 3.02-6.77 6.77v86.407c0 3.751 3.02 6.77 6.77 6.77h40.481V94.956C35.649 93.517 20.537 77.5 20.537 57.97c0-19.531 15.112-35.52 34.276-36.956V7.558H14.332zm46.095 0v13.456C79.59 22.452 94.701 38.44 94.701 57.971S79.589 93.52 60.426 94.954v12.553h525.246c3.751 0 6.77-3.02 6.77-6.77V14.33c0-3.751-3.019-6.77-6.77-6.77H60.427zm47.083 7.56h477v84.715h-477V15.12z"/>
    <path fill="#01b3c1" d="M54.772 26.368c-16.34 1.426-29.169 15.111-29.169 31.821s12.829 30.423 29.169 31.849V66.313a8.605 8.605 0 0 1-5.783-8.125c0-3.758 2.42-6.932 5.783-8.096V26.367zm5.614 0v23.725c3.362 1.164 5.783 4.338 5.783 8.096 0 3.759-2.42 6.961-5.783 8.125v23.725c16.34-1.426 29.169-15.14 29.169-31.85s-12.83-30.394-29.17-31.82z"/>
    <path d="M149.47 38.273h20.234v7.746H149.47c-6.182 0-5.842 6.92 0 6.92h7.335c19.745 0 19.635 23.88 0 23.88h-21.76v-8.082h21.76c6.471 0 6.396-8.35 0-8.35-1.137 0-5.162.201-7.335 0-19.791 0-19.791-22.114 0-22.114zM294.02 38.273v8.16h-8.866c-5.617 0-6.255 5.198-6.255 8.324v22.095H268.3V55.15c0-3.54.487-8.113 3.01-11.747 2.022-2.915 5.789-5.13 9.013-5.13h13.697z" stroke="#01386a" stroke-width=".106" fill="#00386b"/>
    <path d="M306.74 24.13h10.321c0 4.514 0 10.002.068 14.175 3.634-.032 7.026-.032 10.524-.032.03 2.595.03 5.451 0 8.16h-10.592v18.163c0 5.01 4.673 3.93 10.592 3.93v8.325h-10.592c-9.582 0-10.32-8.326-10.32-12.28v-18.14h-6.927v-8.159h6.926c.113-4.513 0-9.506 0-14.144h0z" stroke="#01b3c1" stroke-width=".106" fill="#00386b"/>
    <path fill="#00386b" d="M189.4 90.995c.005-3.201.005-12.455 0-14.144h8.68c12.93 0 18.791-8.16 18.791-19.357 0-10.896-5.98-19.222-18.79-19.222h-19.365c0 2.833 0 47.471.027 52.722H189.4zm-.03-22.303l.035-22.093h8.675c10.733 0 10.733 22.093 0 22.093h-8.71zM241.9 37.495c-10.795.532-19.38 9.213-19.38 19.832 0 10.961 9.14 19.86 20.424 19.86s20.452-8.899 20.452-19.86-9.169-19.832-20.452-19.832c-.353 0-.696-.017-1.044 0zm1.016 8.52c5.249 0 9.506 5.095 9.506 11.368 0 6.274-4.257 11.34-9.506 11.34s-9.507-5.067-9.507-11.34 4.258-11.369 9.507-11.369z"/>
    <path fill="#01b3c1" d="M361.77 24.13c-.005 3.201-.005 12.455 0 14.144h-8.68c-12.93 0-18.791 8.16-18.791 19.357 0 10.896 5.98 19.222 18.79 19.222h19.365c0-2.832 0-47.471-.027-52.722H361.77zm.03 22.303l-.035 22.093h-8.675c-10.733 0-10.733-22.093 0-22.093h8.71z"/>
    <path d="M475.54 24.13h10.321c0 4.514 0 10.002.068 14.175 3.634-.032 7.026-.032 10.524-.032.03 2.595.03 5.451 0 8.16h-10.592v18.163c0 5.01 4.673 3.93 10.592 3.93v8.325h-10.592c-9.582 0-10.32-8.326-10.32-12.28v-18.14h-6.927v-8.159h6.926c.113-4.513 0-9.506 0-14.144h0zM439.51 38.273h-19.843c-13.183 0-18.661 8.773-18.661 18.668 0 10.918 5.087 19.91 18.661 19.91h9.454c0 2.392 0 4.24-3.773 4.24h-19.973v7.905h21.214c4.063-.113 8.802-1.373 10.946-5.097 2.709-4.739 1.924-10.252 1.924-15.375 0-10.316.051-20.006.051-30.252h0zm-10.389 8.16v22.092h-9.454c-11.72 0-11.72-22.093 0-22.093 1.986 0 4.322-.008 9.454 0zM503.99 38.273c-.113 2.595.113 5.564 0 8.16h21.346c3.385.338 4.916 3.572 5.254 6.506h-18.013c-14.328 0-14.328 23.912 0 23.912h28.35V53.623c.034-10.247-5.986-15.35-15.597-15.35-7.102 0-14.042.037-21.34 0zm26.56 22.114v8.139h-12.605c-7.189 0-7.212-8.139-.023-8.139h12.628z" stroke="#01b3c1" stroke-width=".106" fill="#01b3c1"/>
    <path fill="#01b3c1" d="M548.17 24.13h10.965v52.722H548.17zM381.98 38.273h10.932v38.579H381.98zM381.98 24.13h10.932v10.002H381.98zM449.15 38.273h10.932v38.579H449.15zM449.15 24.13h10.932v10.002H449.15z"/>
</svg>
