<?xml version="1.0" encoding="UTF-8" standalone="no"?>
<!-- Created with Inkscape (http://www.inkscape.org/) -->

<svg
   xmlns:dc="http://purl.org/dc/elements/1.1/"
   xmlns:cc="http://creativecommons.org/ns#"
   xmlns:rdf="http://www.w3.org/1999/02/22-rdf-syntax-ns#"
   xmlns:svg="http://www.w3.org/2000/svg"
   xmlns="http://www.w3.org/2000/svg"
   xmlns:sodipodi="http://sodipodi.sourceforge.net/DTD/sodipodi-0.dtd"
   xmlns:inkscape="http://www.inkscape.org/namespaces/inkscape"
   width="52.916668mm"
   height="5.8367844mm"
   viewBox="0 0 52.916668 5.8367844"
   version="1.1"
   id="svg35340"
   inkscape:version="0.92.3pre0 (0ab9bec, 2018-03-03)"
   sodipodi:docname="sporttv4.light.svg">
  <defs
     id="defs35334" />
  <sodipodi:namedview
     id="base"
     pagecolor="#ffffff"
     bordercolor="#666666"
     borderopacity="1.0"
     inkscape:pageopacity="0.0"
     inkscape:pageshadow="2"
     inkscape:zoom="4.4296875"
     inkscape:cx="93.642856"
     inkscape:cy="-13.736847"
     inkscape:document-units="mm"
     inkscape:current-layer="layer1"
     showgrid="false"
     fit-margin-top="0"
     fit-margin-left="0"
     fit-margin-right="0"
     fit-margin-bottom="0"
     inkscape:window-width="1920"
     inkscape:window-height="983"
     inkscape:window-x="0"
     inkscape:window-y="27"
     inkscape:window-maximized="1" />
  <metadata
     id="metadata35337">
    <rdf:RDF>
      <cc:Work
         rdf:about="">
        <dc:format>image/svg+xml</dc:format>
        <dc:type
           rdf:resource="http://purl.org/dc/dcmitype/StillImage" />
        <dc:title></dc:title>
      </cc:Work>
    </rdf:RDF>
  </metadata>
  <g
     inkscape:label="Layer 1"
     inkscape:groupmode="layer"
     id="layer1"
     transform="translate(-97.301338,-94.584842)">
    <g
       id="g19930"
       transform="matrix(2.5072097,0,0,-2.5072097,145.02808,94.679863)">
      <path
         d="M 0,0 -0.899,-2.252 H 2.07 V 0 Z"
         style="fill:#f9da05;fill-opacity:1;fill-rule:nonzero;stroke:none"
         id="path19932"
         inkscape:connector-curvature="0" />
    </g>
    <g
       id="g19934"
       transform="matrix(2.5072097,0,0,-2.5072097,147.3638,97.98788)">
      <path
         d="M 0,0 H -0.392 L 0,0.605 Z M 0.309,0 V 0.88 H -0.118 L -0.695,-0.028 V -0.271 H 0 v -0.301 h 0.309 v 0.301 H 0.497 V 0 Z"
         style="fill:#100f0d;fill-opacity:1;fill-rule:nonzero;stroke:none"
         id="path19936"
         inkscape:connector-curvature="0" />
    </g>
    <g
       id="g19938"
       transform="matrix(2.5072097,0,0,-2.5072097,97.735085,98.881447)"
       style="fill:#ffffff">
      <path
         d="M 0,0 C 0.174,-0.092 0.399,-0.177 0.64,-0.175 0.909,-0.172 1.077,-0.09 1.077,0.074 1.077,0.196 1.01,0.27 0.78,0.329 0.688,0.354 0.503,0.401 0.397,0.435 c -0.37,0.117 -0.57,0.323 -0.57,0.609 0,0.371 0.276,0.667 0.872,0.667 0.322,0 0.644,-0.136 0.788,-0.208 L 1.323,1.125 c -0.154,0.078 -0.397,0.153 -0.64,0.153 -0.269,0 -0.38,-0.082 -0.38,-0.21 0,-0.122 0.081,-0.175 0.242,-0.22 0.102,-0.03 0.41,-0.119 0.41,-0.119 0.403,-0.112 0.6,-0.301 0.6,-0.626 0,-0.419 -0.387,-0.711 -0.925,-0.711 -0.324,0 -0.669,0.151 -0.786,0.239 z"
         style="fill:#ffffff;fill-opacity:1;fill-rule:nonzero;stroke:none"
         id="path19940"
         inkscape:connector-curvature="0" />
    </g>
    <g
       id="g19942"
       transform="matrix(2.5072097,0,0,-2.5072097,104.31024,95.673974)"
       style="fill:#ffffff">
      <path
         d="m 0,0 v -0.825 h 0.424 c 0.23,0 0.413,0.156 0.413,0.409 C 0.837,-0.146 0.654,0 0.424,0 Z m -0.467,0.398 h 0.965 c 0.442,0 0.821,-0.259 0.821,-0.824 0,-0.509 -0.379,-0.811 -0.821,-0.811 H 0 v -0.619 h -0.467 z"
         style="fill:#ffffff;fill-opacity:1;fill-rule:nonzero;stroke:none"
         id="path19944"
         inkscape:connector-curvature="0" />
    </g>
    <g
       id="g19946"
       transform="matrix(2.5072097,0,0,-2.5072097,117.3728,95.673974)"
       style="fill:#ffffff">
      <path
         d="m 0,0 v -0.674 h 0.472 c 0.213,0 0.366,0.126 0.366,0.335 C 0.838,-0.116 0.685,0 0.472,0 Z m -0.467,0.398 h 0.889 c 0.556,0 0.901,-0.224 0.901,-0.733 0,-0.359 -0.259,-0.625 -0.598,-0.694 L 1.443,-1.783 V -1.856 H 0.928 L 0.173,-1.045 H 0 v -0.811 h -0.467 z"
         style="fill:#ffffff;fill-opacity:1;fill-rule:nonzero;stroke:none"
         id="path19948"
         inkscape:connector-curvature="0" />
    </g>
    <g
       id="g19950"
       transform="matrix(2.5072097,0,0,-2.5072097,124.81721,95.70832)"
       style="fill:#ffffff">
      <path
         d="M 0,0 V -1.843 H -0.467 V 0 h -0.66 V 0.412 H 0.646 V 0 Z"
         style="fill:#ffffff;fill-opacity:1;fill-rule:nonzero;stroke:none"
         id="path19952"
         inkscape:connector-curvature="0" />
    </g>
    <g
       id="g19954"
       transform="matrix(2.5072097,0,0,-2.5072097,133.91688,95.70832)"
       style="fill:#ffffff">
      <path
         d="M 0,0 V -1.843 H -0.468 V 0 H -1.127 V 0.412 H 0.646 V 0 Z"
         style="fill:#ffffff;fill-opacity:1;fill-rule:nonzero;stroke:none"
         id="path19956"
         inkscape:connector-curvature="0" />
    </g>
    <g
       id="g19958"
       transform="matrix(2.5072097,0,0,-2.5072097,136.69587,94.675101)"
       style="fill:#ffffff">
      <path
         d="M 0,0 H 0.509 L 1.167,-1.832 1.849,0 H 2.357 L 1.459,-2.255 H 0.875 Z"
         style="fill:#ffffff;fill-opacity:1;fill-rule:nonzero;stroke:none"
         id="path19960"
         inkscape:connector-curvature="0" />
    </g>
    <g
       id="g19962"
       transform="matrix(2.5072097,0,0,-2.5072097,129.91989,97.502983)">
      <path
         d="m 0,0 c 0,-0.251 -0.203,-0.454 -0.454,-0.454 -0.251,0 -0.454,0.203 -0.454,0.454 0,0.251 0.203,0.454 0.454,0.454 C -0.203,0.454 0,0.251 0,0"
         style="fill:#f9da05;fill-opacity:1;fill-rule:nonzero;stroke:none"
         id="path19964"
         inkscape:connector-curvature="0" />
    </g>
    <g
       id="g19966"
       transform="matrix(2.5072097,0,0,-2.5072097,111.75239,98.641507)">
      <path
         d="m 0,0 c -0.251,0 -0.454,0.203 -0.454,0.454 0,0.251 0.203,0.454 0.454,0.454 0.25,0 0.454,-0.203 0.454,-0.454 C 0.454,0.203 0.25,0 0,0 m 0,1.618 c -0.643,0 -1.164,-0.521 -1.164,-1.164 0,-0.642 0.521,-1.164 1.164,-1.164 0.643,0 1.164,0.522 1.164,1.164 0,0.643 -0.521,1.164 -1.164,1.164"
         style="fill:#f9da05;fill-opacity:1;fill-rule:nonzero;stroke:none"
         id="path19968"
         inkscape:connector-curvature="0" />
    </g>
  </g>
</svg>
