<svg xmlns="http://www.w3.org/2000/svg" width="52.917mm" height="5.837mm" viewBox="0 0 52.916668 5.8367844"><g><path d="M47.724.095l-2.256 5.646h7.448v-5.646z" fill="#f9da05"/><path d="M49.922 4.894c-.667 0-1.168-.258-1.437-.584l.409-.519c.246.263.647.416 1 .416.444 0 .689-.193.689-.466 0-.288-.226-.419-.732-.419l-.454.01v-.697l.454.005c.404 0 .677-.12.677-.389 0-.291-.301-.434-.677-.434-.356 0-.672.133-.928.379l-.389-.486c.293-.331.752-.579 1.391-.579.852 0 1.376.384 1.376.99 0 .456-.394.757-.797.83.371.038.852.326.852.872 0 .627-.562 1.07-1.437 1.07" fill="#100f0d"/><path d="M.434 4.297c.434.231.998.444 1.604.439.674-.005 1.093-.213 1.093-.624 0-.303-.168-.489-.742-.639-.231-.063-.694-.181-.96-.266-.928-.293-1.429-.81-1.429-1.527 0-.928.692-1.672 2.186-1.672.807 0 1.612.341 1.973.521l-.409.948c-.386-.193-.998-.384-1.604-.384-.674 0-.955.206-.955.526 0 .306.206.439.609.554l1.028.296c1.01.281 1.504.755 1.504 1.569 0 1.053-.97 1.782-2.319 1.782-.812 0-1.68-.379-1.971-.599z" fill="#100f0d"/><path d="M7.009 1.089v2.068h1.063c.577 0 1.033-.391 1.033-1.025 0-.677-.456-1.043-1.033-1.043zm-1.171-.998h2.417c1.108 0 2.061.649 2.061 2.066 0 1.276-.953 2.033-2.061 2.033h-1.246v1.552h-1.171z" fill="#100f0d"/><path d="M20.071 1.089v1.69h1.183c.534 0 .915-.316.915-.84 0-.559-.381-.85-.915-.85zm-1.171-.998h2.229c1.391 0 2.259.562 2.259 1.838 0 .9-.649 1.567-1.499 1.74l1.8 1.89v.183h-1.294l-1.89-2.033h-.434v2.033h-1.171z" fill="#100f0d"/><path d="M27.516 1.123v4.62h-1.171v-4.62h-1.655v-1.033h4.445v1.033z" fill="#100f0d"/><path d="M36.614 1.123v4.62h-1.171v-4.62h-1.655v-1.033h4.445v1.033z" fill="#100f0d"/><path d="M39.393.09h1.276l1.65 4.593 1.71-4.593h1.274l-2.249 5.653h-1.467z" fill="#100f0d"/><path d="M32.619 2.918c0 .629-.509 1.138-1.138 1.138-.629 0-1.138-.509-1.138-1.138 0-.629.509-1.138 1.138-1.138.629 0 1.138.509 1.138 1.138" fill="#f9da05"/><path d="M14.45 4.057c-.627 0-1.138-.509-1.138-1.138 0-.629.511-1.138 1.138-1.138.629 0 1.138.509 1.138 1.138 0 .629-.509 1.138-1.138 1.138m0-4.056c-1.612 0-2.918 1.306-2.918 2.918 0 1.609 1.306 2.918 2.918 2.918s2.918-1.309 2.918-2.918c0-1.612-1.306-2.918-2.918-2.918" fill="#f9da05"/></g></svg>