<svg version="1.1" viewBox="0 0 1040 536.56" xml:space="preserve" xmlns="http://www.w3.org/2000/svg"><defs><linearGradient id="q" x2="1" gradientTransform="matrix(-86.399 149.65 149.65 86.399 176.78 665.68)" gradientUnits="userSpaceOnUse"><stop stop-color="#400000" offset="0"/><stop stop-color="#c42b06" offset="1"/></linearGradient><linearGradient id="p" x2="1" gradientTransform="matrix(4.0514 -33.932 -33.932 -4.0514 24.578 825.52)" gradientUnits="userSpaceOnUse"><stop stop-color="#c42b06" offset="0"/><stop stop-color="#860001" offset="1"/></linearGradient><linearGradient id="o" x2="1" gradientTransform="matrix(-50.249 5.2817 5.2817 50.249 292.18 813.25)" gradientUnits="userSpaceOnUse"><stop stop-color="#fbc100" offset="0"/><stop stop-color="#eb6527" offset=".19488"/><stop stop-color="#c42b06" offset=".71909"/><stop stop-color="#c42b06" offset="1"/></linearGradient><linearGradient id="n" x2="1" gradientTransform="matrix(-28.355 0 0 28.355 29.351 738.15)" gradientUnits="userSpaceOnUse"><stop stop-color="#620000" offset="0"/><stop stop-color="#990003" offset="1"/></linearGradient><linearGradient id="m" x2="1" gradientTransform="matrix(33.299 71.408 71.408 -33.299 273.6 733.92)" gradientUnits="userSpaceOnUse"><stop stop-color="#400000" offset="0"/><stop stop-color="#620000" offset=".34543"/><stop stop-color="#af1505" offset=".71153"/><stop stop-color="#ec6527" offset=".82779"/><stop stop-color="#fbc100" offset="1"/></linearGradient><linearGradient id="l" x2="1" gradientTransform="matrix(.37956 30.777 30.777 -.37956 145.2 811.61)" gradientUnits="userSpaceOnUse"><stop stop-color="#990003" offset="0"/><stop stop-color="#d83e07" offset="1"/></linearGradient><linearGradient id="k" x2="1" gradientTransform="matrix(.25889 20.972 20.972 -.25889 372.64 821.08)" gradientUnits="userSpaceOnUse"><stop stop-color="#c42b06" offset="0"/><stop stop-color="#af1505" offset="1"/></linearGradient><linearGradient id="j" x2="1" gradientTransform="matrix(.26004 21.058 21.058 -.26004 368.71 799.94)" gradientUnits="userSpaceOnUse"><stop stop-color="#860001" offset="0"/><stop stop-color="#4f0000" offset=".99866"/><stop stop-color="#4f0000" offset="1"/></linearGradient><linearGradient id="i" x2="1" gradientTransform="matrix(.25087 20.325 20.325 -.25087 404.4 757.98)" gradientUnits="userSpaceOnUse"><stop stop-color="#af1505" offset="0"/><stop stop-color="#990003" offset=".58737"/><stop stop-color="#860001" offset="1"/></linearGradient><linearGradient id="h" x2="1" gradientTransform="matrix(.25355 20.542 20.542 -.25355 404.4 736.83)" gradientUnits="userSpaceOnUse"><stop stop-color="#860001" offset="0"/><stop stop-color="#4f0000" offset=".99866"/><stop stop-color="#4f0000" offset="1"/></linearGradient><linearGradient id="g" x2="1" gradientTransform="matrix(-.26309 21.342 -21.342 -.26309 376.89 694.18)" gradientUnits="userSpaceOnUse"><stop stop-color="#af1505" offset="0"/><stop stop-color="#990003" offset=".58737"/><stop stop-color="#860001" offset="1"/></linearGradient><linearGradient id="f" x2="1" gradientTransform="matrix(-.26004 21.093 -21.093 -.26004 380.79 673.19)" gradientUnits="userSpaceOnUse"><stop stop-color="#860001" offset="0"/><stop stop-color="#4f0000" offset=".99866"/><stop stop-color="#4f0000" offset="1"/></linearGradient><linearGradient id="e" x2="1" gradientTransform="matrix(-35.048 12.698 12.698 35.048 465.6 814.94)" gradientUnits="userSpaceOnUse"><stop stop-color="#fbc100" offset="0"/><stop stop-color="#ec6527" offset=".35216"/><stop stop-color="#c42b06" offset=".76344"/><stop stop-color="#c42b06" offset="1"/></linearGradient><linearGradient id="d" x2="1" gradientTransform="matrix(-33.06 11.978 11.978 33.06 479.67 746.05)" gradientUnits="userSpaceOnUse"><stop stop-color="#ec6527" offset="0"/><stop stop-color="#c42b06" offset=".76344"/><stop stop-color="#c42b06" offset="1"/></linearGradient><linearGradient id="c" x2="1" gradientTransform="matrix(23.653 50.724 50.724 -23.653 444.45 761.95)" gradientUnits="userSpaceOnUse"><stop stop-color="#620000" offset="0"/><stop stop-color="#af1505" offset=".71153"/><stop stop-color="#ec6527" offset=".82779"/><stop stop-color="#fbc100" offset="1"/></linearGradient><linearGradient id="b" x2="1" gradientTransform="matrix(-35.215 -12.758 12.758 -35.215 481.54 700.2)" gradientUnits="userSpaceOnUse"><stop stop-color="#af1505" offset="0"/><stop stop-color="#620000" offset=".76344"/><stop stop-color="#620000" offset="1"/></linearGradient><linearGradient id="a" x2="1" gradientTransform="matrix(16.673 35.754 35.754 -16.673 464.97 713.76)" gradientUnits="userSpaceOnUse"><stop stop-color="#620000" offset="0"/><stop stop-color="#af1505" offset=".71153"/><stop stop-color="#e94f0a" offset="1"/></linearGradient></defs><g transform="matrix(1.3333 0 0 -1.3333 -.00055557 1122.5)"><g transform="matrix(1.6208 0 0 1.6208 -.00025866 -522.62)"><path d="m51.376 811.48-20.971-20.996v-98.047l115.24-63.863 114.69 63.863v98.047l-20.971 20.996z" fill="url(#q)"/><path d="m4.1668e-4 803.1 30.405-12.613 20.971 20.996-12.613 30.405z" fill="url(#p)"/><path d="m239.36 811.48 20.971-20.996 30.405 12.613-38.738 38.789z" fill="url(#o)"/><path d="m4.1668e-4 673.2 30.405 19.244v98.047l-30.405 12.613z" fill="url(#n)"/><path d="m260.33 790.49v-98.047l30.405-19.244v129.9z" fill="url(#m)"/><path d="m38.764 841.89v-0.0501l12.613-30.355h187.99l12.638 30.405z" fill="url(#l)"/><path d="m145.65 593.6-145.64 79.604 30.405 19.244 115.24-62.662z" fill="#3a0000"/><path d="m145.65 593.6 145.09 79.604-30.38 19.244-114.71-62.662z" fill="#4f0000"/><path d="m260.35 790.49-20.996 20.996-44.294-44.319h-5.3303v44.319h-138.34l-20.996-20.996v-33.058l20.696-20.696h60.911l3.003-2.978v-7.9329l-3.003-3.003h-81.606v-30.38h94.344l20.646 20.671v33.358l-20.646 20.696h-60.911l-3.053 3.028v7.8578l3.053 3.053h95.495v-88.663h30.405v44.294h6.1311l44.294-44.294h20.195v22.923l-37.087 37.012z" fill="#fff"/><path d="m51.371 811.47 1.1762-2.8028h134.36l2.8528 2.8028z" fill="#68676c"/><path d="m52.227 739.58-1.1762-2.8278h60.961l1.1512 2.8278z" fill="#fff"/><path d="m63.826 767.17-1.1762-2.8028h60.911l1.1762 2.8028z" fill="#68676c"/><path d="m62.678 783.89 1.1511-2.8028h95.52l2.8028 2.8028z" fill="#fff"/><path d="m30.403 722.8 2.7778-2.7778h79.979l-1.1511 2.7778z" fill="#98989c"/><path d="m33.173 695.21-2.7778-2.7778h94.344l-1.2012 2.7778z" fill="#fff"/><path d="m162.14 695.21-2.8028-2.7778h30.405l-2.8028 2.7778z" fill="#fff"/><path d="m186.93 739.58 2.8028-2.8278h6.1061l1.1511 2.8278z" fill="#fff"/><path d="m241.3 695.21-1.1512-2.7778h20.195l-2.7527 2.7778z" fill="#fff"/><path d="m30.403 790.48 2.8028-1.1512 19.344 19.344-1.1762 2.8028z" fill="#98989c"/><path d="m30.403 757.42 20.671-20.671 1.1261 2.8278-18.994 19.019z" fill="#edeeef"/><path d="m112 736.75 3.003-2.978 2.8028 1.1512-4.6546 4.6546z" fill="#fff"/><path d="m57.993 769 4.6796-4.6296 1.1511 2.8028-3.028 3.028z" fill="#98989c"/><path d="m57.993 779.22 2.8028-1.1762 3.028 3.0781-1.1511 2.7527z" fill="#edeeef"/><path d="m123.53 764.36 19.044-19.019 2.8278 1.1261-20.671 20.721z" fill="#68676c"/><path d="m30.403 757.42 2.7778 1.1512v30.756l-2.7778 1.1511z" fill="#edeeef"/><path d="m57.993 769 2.8028 1.2012v7.8578l-2.8028 1.1762z" fill="#c3c5c8"/><path d="m115 733.75v-7.9329l2.8028-1.1511v10.26z" fill="#edeeef"/><path d="m142.59 745.33v-31.056l2.8028-1.1511v33.358z" fill="#98989c"/><path d="m159.34 781.09v-88.638l2.8028 2.7527v88.688z" fill="#edeeef"/><path d="m186.93 695.21 2.8028-2.7778v44.319l-2.8028 2.8278z" fill="#c3c5c8"/><path d="m186.93 808.68v-44.319l2.8028 2.7778v44.344z" fill="#98989c"/><path d="m257.56 714.22v-19.019l2.7778-2.7527v22.923z" fill="#c3c5c8"/><path d="m195.85 736.74 44.319-44.294 1.1511 2.7778-44.344 44.369z" fill="#edeeef"/><path d="m219.31 752.32 3.9539 0.05 37.062 38.113h-3.9289z" fill="#edeeef"/><path d="m195.06 767.18 1.1511-2.8028 43.143 43.143v3.9539z" fill="#c3c5c8"/><path d="m219.31 752.32 38.238-38.113 2.7778 1.1512-37.062 37.012z" fill="#68676c"/><path d="m239.37 807.53 17.042-17.042h3.9289l-20.971 20.971z" fill="#68676c"/><path d="m30.403 692.44 2.7778 2.7778v24.8l-2.7778 2.7778z" fill="#edeeef"/><path d="m112 722.8 1.1512-2.7778 4.6546 4.6796-2.8028 1.1261z" fill="#c3c5c8"/><path d="m123.53 695.21 1.2012-2.7778 20.671 20.696-2.8028 1.1261z" fill="#c3c5c8"/><path d="m189.73 767.17-2.8028-2.8028h9.2842l-1.1762 2.8028z" fill="#c3c5c8"/><path d="m311.84 841.88v-42.142l14.915 21.071z" fill="#af1505"/><path d="m364.77 736.45 14.99 20.946-14.99 21.196z" fill="#af1505"/><path d="m311.84 841.89v-0.025l14.915-21.071 99.098 0.05 7.8328 21.046z" fill="url(#k)"/><path d="m425.7 820.84-98.948-0.05-14.915-21.046h106.06l7.9579 21.096z" fill="url(#j)"/><path d="m364.79 778.6v-0.025l14.99-21.146h64.489l-21.171 21.171z" fill="url(#i)"/><path d="m379.78 757.43-15.015-20.971h68.918l10.586 20.946h-0.025l-1.5265 0.025z" fill="url(#h)"/><path d="m312.04 715.29h-0.2002l16.266-21.096 113.59-0.0751-8.008 21.171z" fill="url(#g)"/><path d="m311.84 673.17h137.61l-7.7577 20.946-113.59 0.0751z" fill="url(#f)"/><path d="m425.85 820.85 18.418-18.368-21.171-7.8828-5.1802 5.1301z" fill="#450000"/><path d="m444.28 757.41 15.716-15.891-21.121-10.26-5.1802 5.2052z" fill="#450000"/><path d="m423.08 794.58v-15.991l21.196-21.171v45.045z" fill="#4f0000"/><path d="m425.85 820.84 18.418-18.368 20.946 7.8328-31.506 31.581z" fill="url(#e)"/><path d="m444.27 757.43 15.741-15.916 21.246 5.5055-16.041 15.816z" fill="url(#d)"/><path d="m444.27 802.48v-45.045l20.946 5.4054v47.472z" fill="url(#c)"/><path d="m311.84 673.17 16.266 21.046-16.266 21.071z" fill="#990003"/><path d="m441.69 694.12 7.7577-20.946 31.807 31.506-21.246 8.008z" fill="url(#b)"/><path d="m441.68 694.11 18.318 18.593-21.121 7.9579-5.1801-5.3553z" fill="#860001"/><path d="m438.87 731.27v-10.611l21.146-7.9579v28.804z" fill="#4f0000"/><path d="m481.23 747.02-21.221-5.5055v-28.829l21.221-8.008 0.025 0.025v42.317z" fill="url(#a)"/></g></g></svg>
