<?xml version="1.0" encoding="UTF-8" standalone="no"?>
<svg id="svg128748" xmlns:rdf="http://www.w3.org/1999/02/22-rdf-syntax-ns#" xmlns="http://www.w3.org/2000/svg" height="533.83" width="600" version="1.1" xmlns:cc="http://creativecommons.org/ns#" xmlns:dc="http://purl.org/dc/elements/1.1/">
 <defs id="defs128750">
  <clipPath id="clipPath72187">
   <path id="path72189" d="m241.56 260.82c-0.692-0.693-1.073-1.612-1.073-2.591 0-0.084 0.003-0.167 0.008-0.25l0.707 0.003c-0.07 0.837 0.215 1.698 0.856 2.339 0.578 0.578 1.335 0.867 2.092 0.867s1.515-0.289 2.093-0.867c0.073-0.073 0.141-0.149 0.204-0.227l-0.003 0.992c-0.648 0.523-1.449 0.806-2.294 0.806-0.978 0-1.898-0.381-2.59-1.072"/>
  </clipPath>
  <linearGradient id="linearGradient72171" gradientUnits="userSpaceOnUse" gradientTransform="matrix(-9.8237 5.6915 5.6915 9.8237 245.75 258.58)">
   <stop id="stop72173" stop-color="#e2e2e0" offset="0"/>
   <stop id="stop72175" stop-color="#fff" offset=".35576"/>
   <stop id="stop72179" stop-color="#fff" offset="1"/>
  </linearGradient>
  <linearGradient id="linearGradient72151" gradientUnits="userSpaceOnUse" gradientTransform="matrix(4.2275 5.8339 5.8339 -4.2275 239.65 257.16)">
   <stop id="stop72153" stop-color="#e2e2e0" offset="0"/>
   <stop id="stop72155" stop-color="#e2e2e0" offset="1"/>
  </linearGradient>
  <clipPath id="clipPath72131">
   <path id="path72133" d="m238.17 253.56h12.575v10.925h-12.575v-10.925z"/>
  </clipPath>
  <linearGradient id="linearGradient72119" gradientUnits="userSpaceOnUse" gradientTransform="matrix(1.8576 2.0897 2.0897 -1.8576 245.28 260.06)">
   <stop id="stop72121" stop-color="#fff" offset="0"/>
   <stop id="stop72123" stop-color="#facc09" offset="1"/>
  </linearGradient>
  <clipPath id="clipPath72095">
   <path id="path72097" d="m238.17 253.56h11.961v10.642h-11.961v-10.642z"/>
  </clipPath>
  <clipPath id="clipPath71687">
   <path id="path71689" d="m238.17 253.56h12.575v10.925h-12.575v-10.925z"/>
  </clipPath>
 </defs>
 <g id="layer1" transform="translate(-50.001 -265.44)">
  <g id="g129263">
   <g id="g71683" transform="matrix(50.163 0 0 -50.163 -11897 13519)">
    <g id="g71685" clip-path="url(#clipPath71687)">
     <g id="g71691" transform="translate(243.38 257.05)">
      <path id="path71693" d="m0 0c-0.001 0.006-0.002 0.011-0.003 0.016l0.458 0.07c0-0.003 0.001-0.005 0.001-0.008l-0.456-0.078" fill="#fde47b"/>
     </g>
     <g id="g71695" transform="translate(243.38 257.06)">
      <path id="path71697" d="m0 0c-0.001 0.006-0.002 0.011-0.002 0.017l0.458 0.06c0.001-0.002 0.001-0.005 0.001-0.008l-0.457-0.069" fill="#fde47c"/>
     </g>
     <g id="g71699" transform="translate(243.38 257.03)">
      <path id="path71701" d="m0 0c-0.001 0.005-0.002 0.011-0.003 0.016l0.456 0.078c0.001-0.002 0.001-0.005 0.002-0.007l-0.455-0.087" fill="#fde378"/>
     </g>
     <g id="g71703" transform="translate(243.37 257.09)">
      <path id="path71705" d="m0 0c-0.001 0.005-0.001 0.011-0.002 0.017l0.461 0.043c0-0.002 0-0.005 0.001-0.008l-0.46-0.052" fill="#fde581"/>
     </g>
     <g id="g71707" transform="translate(243.37 257.08)">
      <path id="path71709" d="m0 0c-0.001 0.005-0.001 0.011-0.002 0.016l0.46 0.053c0-0.003 0-0.005 0.001-0.008l-0.459-0.061" fill="#fde57f"/>
     </g>
     <g id="g71711" transform="translate(243.4 256.96)">
      <path id="path71713" d="m0 0c-0.001 0.005-0.003 0.011-0.004 0.016l0.449 0.112c0.001-0.003 0.001-0.005 0.002-0.008l-0.447-0.12" fill="#fde16f"/>
     </g>
     <g id="g71715" transform="translate(243.38 257.01)">
      <path id="path71717" d="m0 0c-0.001 0.005-0.002 0.011-0.003 0.016l0.454 0.087c0.001-0.003 0.001-0.005 0.002-0.008l-0.453-0.095" fill="#fde376"/>
     </g>
     <g id="g71719" transform="translate(243.39 256.98)">
      <path id="path71721" d="m0 0c-0.001 0.005-0.003 0.011-0.004 0.016l0.451 0.104c0.001-0.003 0.001-0.006 0.002-0.008l-0.449-0.112" fill="#fde272"/>
     </g>
     <g id="g71723" transform="translate(243.83 257.22)">
      <path id="path71725" d="m0 0-0.462 0.025c0.001 0.005 0.001 0.011 0.001 0.016l0.462-0.033c-0.001-0.003-0.001-0.005-0.001-0.008" fill="#fde996"/>
     </g>
     <g id="g71727" transform="translate(243.39 257)">
      <path id="path71729" d="m0 0c-0.001 0.005-0.002 0.011-0.004 0.016l0.453 0.095c0.001-0.003 0.002-0.005 0.002-0.008l-0.451-0.103" fill="#fde273"/>
     </g>
     <g id="g71731" transform="translate(243.83 257.21)">
      <path id="path71733" d="m0 0-0.462 0.016c0 0.006 0 0.011 0.001 0.017l0.461-0.025v-0.008" fill="#fde994"/>
     </g>
     <g id="g71735" transform="translate(243.83 257.2)">
      <path id="path71737" d="m0 0-0.462 0.008v0.016l0.462-0.016v-0.008" fill="#fde891"/>
     </g>
     <g id="g71739" transform="translate(243.41 256.93)">
      <path id="path71741" d="m0 0c-0.002 0.005-0.003 0.011-0.005 0.016l0.445 0.128c0.001-0.002 0.001-0.005 0.002-0.007l-0.442-0.137" fill="#fde06b"/>
     </g>
     <g id="g71743" transform="translate(243.37 257.19)">
      <path id="path71745" d="m0 0v0.017l0.463-0.008c0-0.003-0.001-0.005-0.001-0.008l-0.462-0.001" fill="#fde88f"/>
     </g>
     <g id="g71747" transform="translate(243.37 257.16)">
      <path id="path71749" d="m0 0v0.017l0.462 0.009v-0.008l-0.462-0.018" fill="#fde78b"/>
     </g>
     <g id="g71751" transform="translate(243.37 257.13)">
      <path id="path71753" d="m0 0c0 0.006-0.001 0.011-0.001 0.017l0.462 0.026v-0.008l-0.461-0.035" fill="#fde685"/>
     </g>
     <g id="g71755" transform="translate(243.37 257.14)">
      <path id="path71757" d="m0 0c0 0.006-0.001 0.011-0.001 0.017l0.462 0.018c0.001-0.003 0.001-0.006 0.001-0.008l-0.462-0.027" fill="#fde688"/>
     </g>
     <g id="g71759" transform="translate(243.37 257.11)">
      <path id="path71761" d="m0 0c-0.001 0.006-0.001 0.011-0.001 0.017l0.461 0.035c0-0.003 0-0.005 0.001-0.008l-0.461-0.044" fill="#fde584"/>
     </g>
     <g id="g71763" transform="translate(243.37 257.18)">
      <path id="path71765" d="m0 0v0.017h0.462v-0.007l-0.462-0.01" fill="#fde78d"/>
     </g>
     <g id="g71767" transform="translate(243.4 256.95)">
      <path id="path71769" d="m0 0c-0.002 0.005-0.003 0.011-0.005 0.016l0.447 0.12c0.001-0.003 0.002-0.005 0.002-0.008l-0.444-0.128" fill="#fde16c"/>
     </g>
     <g id="g71771" transform="translate(243.51 256.71)">
      <path id="path71773" d="m0 0c-0.003 0.005-0.006 0.009-0.009 0.014l0.391 0.246 0.004-0.007-0.386-0.253" fill="#fcda4a"/>
     </g>
     <g id="g71775" transform="translate(243.52 256.69)">
      <path id="path71777" d="m0 0c-0.003 0.005-0.006 0.009-0.009 0.014l0.386 0.253 0.004-0.007-0.381-0.26" fill="#fcd947"/>
     </g>
     <g id="g71779" transform="translate(243.41 256.92)">
      <path id="path71781" d="m0 0c-0.002 0.005-0.003 0.011-0.005 0.016l0.442 0.137c0.001-0.003 0.002-0.006 0.002-0.008l-0.439-0.145" fill="#fde068"/>
     </g>
     <g id="g71783" transform="translate(243.53 256.68)">
      <path id="path71785" d="m0 0c-0.003 0.004-0.007 0.009-0.01 0.014l0.381 0.26 0.005-0.007-0.376-0.267" fill="#fcd945"/>
     </g>
     <g id="g71787" transform="translate(243.49 256.74)">
      <path id="path71789" d="m0 0c-0.003 0.005-0.006 0.01-0.009 0.014l0.4 0.231 0.004-0.006-0.395-0.239" fill="#fcdb4e"/>
     </g>
     <g id="g71791" transform="translate(243.83 257.23)">
      <path id="path71793" d="m0 0-0.461 0.033c0 0.006 0.001 0.012 0.001 0.017l0.461-0.042c-0.001-0.003-0.001-0.005-0.001-0.008" fill="#fdea99"/>
     </g>
     <g id="g71795" transform="translate(243.56 256.64)">
      <path id="path71797" d="m0 0c-0.004 0.004-0.007 0.009-0.01 0.013l0.365 0.281 0.005-0.006-0.36-0.288" fill="#fcd73e"/>
     </g>
     <g id="g71799" transform="translate(243.54 256.67)">
      <path id="path71801" d="m0 0c-0.003 0.004-0.007 0.009-0.01 0.013l0.376 0.268 0.005-0.007-0.371-0.274" fill="#fcd843"/>
     </g>
     <g id="g71803" transform="translate(243.49 256.75)">
      <path id="path71805" d="m0 0c-0.003 0.005-0.006 0.01-0.008 0.014l0.404 0.224 0.004-0.007-0.4-0.231" fill="#fcdb50"/>
     </g>
     <g id="g71807" transform="translate(243.55 256.65)">
      <path id="path71809" d="m0 0c-0.003 0.004-0.007 0.009-0.01 0.013l0.371 0.274 0.005-0.006-0.366-0.281" fill="#fcd840"/>
     </g>
     <g id="g71811" transform="translate(243.5 256.72)">
      <path id="path71813" d="m0 0c-0.003 0.005-0.006 0.01-0.009 0.014l0.396 0.239 0.004-0.007-0.391-0.246" fill="#fcda4b"/>
     </g>
     <g id="g71815" transform="translate(243.43 256.87)">
      <path id="path71817" d="m0 0c-0.002 0.005-0.004 0.01-0.006 0.016l0.434 0.161c0.001-0.003 0.002-0.005 0.002-0.008l-0.43-0.169" fill="#fcdf62"/>
     </g>
     <g id="g71819" transform="translate(243.57 256.63)">
      <path id="path71821" d="m0 0-0.005 0.006-0.006 0.007 0.36 0.288 0.004-0.005 0.002-0.002-0.355-0.294z" fill="#fcd73c"/>
     </g>
     <g id="g71823" transform="translate(243.43 256.85)">
      <path id="path71825" d="m0 0l-0.006 0.015 0.43 0.17 0.003-0.008-0.427-0.177" fill="#fcde5f"/>
     </g>
     <g id="g71827" transform="translate(243.48 256.76)">
      <path id="path71829" d="m0 0c-0.003 0.005-0.005 0.01-0.008 0.015l0.408 0.216c0.002-0.003 0.003-0.005 0.004-0.007l-0.404-0.224" fill="#fcdb52"/>
     </g>
     <g id="g71831" transform="translate(243.42 256.9)">
      <path id="path71833" d="m0 0c-0.002 0.005-0.004 0.01-0.005 0.016l0.439 0.145c0.001-0.003 0.002-0.005 0.003-0.008l-0.437-0.153" fill="#fcdf66"/>
     </g>
     <g id="g71835" transform="translate(243.42 256.89)">
      <path id="path71837" d="m0 0c-0.002 0.005-0.004 0.01-0.006 0.016l0.437 0.153c0.001-0.003 0.002-0.005 0.003-0.008l-0.434-0.161" fill="#fcdf64"/>
     </g>
     <g id="g71839" transform="translate(243.46 256.79)">
      <path id="path71841" d="m0 0c-0.003 0.005-0.005 0.01-0.007 0.015l0.416 0.201 0.004-0.007-0.413-0.209" fill="#fcdc57"/>
     </g>
     <g id="g71843" transform="translate(243.47 256.78)">
      <path id="path71845" d="m0 0c-0.003 0.005-0.005 0.01-0.008 0.015l0.413 0.208c0.001-0.002 0.002-0.005 0.003-0.007l-0.408-0.216" fill="#fcdc54"/>
     </g>
     <g id="g71847" transform="translate(243.45 256.81)">
      <path id="path71849" d="m0 0c-0.002 0.005-0.005 0.01-0.007 0.015l0.42 0.193c0.001-0.003 0.002-0.005 0.003-0.007l-0.416-0.201" fill="#fcdd59"/>
     </g>
     <g id="g71851" transform="translate(243.44 256.84)">
      <path id="path71853" d="m0 0c-0.002 0.005-0.004 0.01-0.007 0.015l0.428 0.178 0.003-0.008-0.424-0.185" fill="#fcde5d"/>
     </g>
     <g id="g71855" transform="translate(243.9 257.43)">
      <path id="path71857" d="m0 0-0.384 0.25c0.003 0.004 0.006 0.009 0.009 0.014l0.38-0.257-0.005-0.007" fill="#fef7da"/>
     </g>
     <g id="g71859" transform="translate(243.91 257.44)">
      <path id="path71861" d="m0 0-0.374 0.264c0.003 0.004 0.006 0.009 0.01 0.013l0.369-0.27-0.005-0.007" fill="#fef8df"/>
     </g>
     <g id="g71863" transform="translate(243.9 257.44)">
      <path id="path71865" d="m0 0-0.38 0.257c0.004 0.004 0.007 0.009 0.01 0.013l0.375-0.264-0.005-0.006" fill="#fef7dc"/>
     </g>
     <g id="g71867" transform="translate(243.92 257.46)">
      <path id="path71869" d="m0 0-0.364 0.278c0.004 0.004 0.007 0.008 0.01 0.013l0.359-0.285-0.005-0.006" fill="#fff9e3"/>
     </g>
     <g id="g71871" transform="translate(243.88 257.39)">
      <path id="path71873" d="m0 0-0.407 0.213c0.003 0.005 0.005 0.01 0.008 0.015l0.403-0.221-0.004-0.007" fill="#fef5cd"/>
     </g>
     <g id="g71875" transform="translate(243.83 257.24)">
      <path id="path71877" d="m0 0-0.46 0.042c0 0.006 0.001 0.011 0.002 0.017l0.459-0.051c0-0.003-0.001-0.005-0.001-0.008" fill="#fdea9b"/>
     </g>
     <g id="g71879" transform="translate(243.89 257.41)">
      <path id="path71881" d="m0 0-0.398 0.228c0.002 0.005 0.005 0.01 0.008 0.014l0.394-0.235-0.004-0.007" fill="#fef6d2"/>
     </g>
     <g id="g71883" transform="translate(243.88 257.4)">
      <path id="path71885" d="m0 0-0.403 0.221c0.003 0.005 0.006 0.009 0.009 0.014l0.398-0.228-0.004-0.007" fill="#fef5d0"/>
     </g>
     <g id="g71887" transform="translate(243.89 257.42)">
      <path id="path71889" d="m0 0-0.389 0.243c0.003 0.005 0.006 0.009 0.009 0.014l0.384-0.25-0.004-0.007" fill="#fef7d7"/>
     </g>
     <g id="g71891" transform="translate(243.89 257.42)">
      <path id="path71893" d="m0 0-0.394 0.236c0.003 0.004 0.006 0.009 0.009 0.014l0.389-0.243-0.004-0.007" fill="#fef6d5"/>
     </g>
     <g id="g71895" transform="translate(243.92 257.46)">
      <path id="path71897" d="m0 0-0.358 0.284c0.003 0.005 0.007 0.009 0.01 0.013l0.353-0.291-0.005-0.006" fill="#fffae5"/>
     </g>
     <g id="g71899" transform="translate(243.96 257.5)">
      <path id="path71901" d="m0 0-0.317 0.328c0.004 0.004 0.008 0.007 0.012 0.011l0.311-0.334-0.006-0.005" fill="#fffdf7"/>
     </g>
     <g id="g71903" transform="translate(243.97 257.51)">
      <path id="path71905" d="m0 0-0.311 0.334c0.004 0.003 0.009 0.007 0.013 0.011l0.304-0.34-0.006-0.005" fill="#fffefa"/>
     </g>
     <g id="g71907" transform="translate(243.93 257.47)">
      <path id="path71909" d="m0 0-0.353 0.291c0.004 0.004 0.007 0.008 0.011 0.012l0.347-0.297-0.005-0.006" fill="#fffae8"/>
     </g>
     <g id="g71911" transform="translate(243.96 257.5)">
      <path id="path71913" d="m0 0-0.323 0.322c0.004 0.004 0.008 0.007 0.012 0.011l0.317-0.327-0.006-0.006" fill="#fffdf5"/>
     </g>
     <g id="g71915" transform="translate(243.97 257.51)">
      <path id="path71917" d="m0 0-0.304 0.339c0.004 0.004 0.008 0.008 0.013 0.011l0.297-0.345-0.006-0.005" fill="#fffefc"/>
     </g>
     <g id="g71919" transform="translate(243.93 257.47)">
      <path id="path71921" d="m0 0-0.347 0.297c0.003 0.004 0.007 0.009 0.011 0.013l0.341-0.304-0.005-0.006" fill="#fffbeb"/>
     </g>
     <g id="g71923" transform="translate(243.94 257.48)">
      <path id="path71925" d="m0 0-0.341 0.304c0.003 0.004 0.007 0.008 0.011 0.012l0.336-0.31-0.006-0.006" fill="#fffbed"/>
     </g>
     <g id="g71927" transform="translate(243.95 257.49)">
      <path id="path71929" d="m0 0-0.329 0.316c0.003 0.004 0.007 0.008 0.011 0.012l0.324-0.322-0.006-0.006" fill="#fffcf2"/>
     </g>
     <g id="g71931" transform="translate(243.94 257.49)">
      <path id="path71933" d="m0 0-0.336 0.31l0.012 0.012 0.33-0.316-0.006-0.006" fill="#fffcf0"/>
     </g>
     <g id="g71935" transform="translate(243.91 257.45)">
      <path id="path71937" d="m0 0-0.369 0.271c0.003 0.004 0.006 0.009 0.01 0.013l0.364-0.278-0.005-0.006" fill="#fff9e0"/>
     </g>
     <g id="g71939" transform="translate(243.85 257.31)">
      <path id="path71941" d="m0 0-0.443 0.126c0.001 0.006 0.003 0.011 0.004 0.016l0.441-0.134c0-0.003-0.001-0.005-0.002-0.008" fill="#feefb2"/>
     </g>
     <g id="g71943" transform="translate(243.84 257.27)">
      <path id="path71945" d="m0 0-0.454 0.085c0.001 0.005 0.002 0.01 0.004 0.016l0.452-0.093c-0.001-0.003-0.002-0.005-0.002-0.008" fill="#feeda7"/>
     </g>
     <g id="g71947" transform="translate(243.84 257.28)">
      <path id="path71949" d="m0 0-0.452 0.093c0.001 0.006 0.002 0.011 0.004 0.016l0.45-0.101c-0.001-0.003-0.001-0.005-0.002-0.008" fill="#feeda9"/>
     </g>
     <g id="g71951" transform="translate(243.84 257.3)">
      <path id="path71953" d="m0 0-0.448 0.11c0.001 0.005 0.003 0.01 0.004 0.016l0.446-0.118c-0.001-0.003-0.001-0.005-0.002-0.008" fill="#feeeae"/>
     </g>
     <g id="g71955" transform="translate(243.84 257.31)">
      <path id="path71957" d="m0 0-0.446 0.118c0.002 0.005 0.003 0.011 0.005 0.016l0.443-0.126c-0.001-0.003-0.001-0.005-0.002-0.008" fill="#feeeb0"/>
     </g>
     <g id="g71959" transform="translate(243.84 257.29)">
      <path id="path71961" d="m0 0-0.45 0.101c0.001 0.006 0.002 0.011 0.004 0.017l0.448-0.11c-0.001-0.003-0.001-0.005-0.002-0.008" fill="#feeeab"/>
     </g>
     <g id="g71963" transform="translate(243.83 257.24)">
      <path id="path71965" d="m0 0-0.459 0.051c0 0.005 0.001 0.011 0.002 0.016l0.458-0.059c0-0.003-0.001-0.005-0.001-0.008" fill="#fdeb9d"/>
     </g>
     <g id="g71967" transform="translate(243.83 257.25)">
      <path id="path71969" d="m0 0-0.458 0.059c0.001 0.006 0.001 0.011 0.002 0.017l0.457-0.068c0-0.003-0.001-0.005-0.001-0.008" fill="#fdeba0"/>
     </g>
     <g id="g71971" transform="translate(243.83 257.27)">
      <path id="path71973" d="m0 0-0.456 0.076c0.001 0.006 0.002 0.011 0.004 0.016l0.453-0.084c0-0.003-0.001-0.005-0.001-0.008" fill="#feeca5"/>
     </g>
     <g id="g71975" transform="translate(243.83 257.26)">
      <path id="path71977" d="m0 0-0.457 0.068c0.001 0.005 0.002 0.011 0.003 0.016l0.455-0.076c0-0.003-0.001-0.005-0.001-0.008" fill="#feeca2"/>
     </g>
     <g id="g71979" transform="translate(243.86 257.37)">
      <path id="path71981" d="m0 0-0.422 0.183c0.002 0.005 0.004 0.01 0.007 0.015l0.418-0.191-0.003-0.007" fill="#fef3c4"/>
     </g>
     <g id="g71983" transform="translate(243.87 257.37)">
      <path id="path71985" d="m0 0-0.419 0.19c0.003 0.005 0.005 0.01 0.008 0.015l0.415-0.198c-0.002-0.002-0.003-0.004-0.004-0.007" fill="#fef3c6"/>
     </g>
     <g id="g71987" transform="translate(243.88 257.39)">
      <path id="path71989" d="m0 0-0.411 0.206c0.003 0.005 0.005 0.01 0.008 0.015l0.407-0.214-0.004-0.007" fill="#fef4ca"/>
     </g>
     <g id="g71991" transform="translate(243.87 257.38)">
      <path id="path71993" d="m0 0-0.415 0.198c0.002 0.005 0.005 0.01 0.008 0.015l0.411-0.206c-0.002-0.002-0.003-0.004-0.004-0.007" fill="#fef4c9"/>
     </g>
     <g id="g71995" transform="translate(243.86 257.36)">
      <path id="path71997" d="m0 0-0.426 0.175c0.002 0.005 0.005 0.01 0.007 0.015l0.422-0.183-0.003-0.007" fill="#fef2c1"/>
     </g>
     <g id="g71999" transform="translate(243.85 257.34)">
      <path id="path72001" d="m0 0-0.435 0.151c0.002 0.005 0.004 0.01 0.005 0.015l0.433-0.159-0.003-0.007" fill="#fef1ba"/>
     </g>
     <g id="g72003" transform="translate(243.85 257.32)">
      <path id="path72005" d="m0 0-0.441 0.135c0.002 0.005 0.003 0.01 0.005 0.015l0.438-0.142c0-0.003-0.001-0.005-0.002-0.008" fill="#feefb5"/>
     </g>
     <g id="g72007" transform="translate(243.85 257.33)">
      <path id="path72009" d="m0 0-0.438 0.143c0.002 0.005 0.003 0.01 0.005 0.015l0.436-0.15c-0.001-0.003-0.002-0.005-0.003-0.008" fill="#fef0b7"/>
     </g>
     <g id="g72011" transform="translate(243.86 257.35)">
      <path id="path72013" d="m0 0-0.429 0.167l0.006 0.015 0.426-0.175-0.003-0.007" fill="#fef2bf"/>
     </g>
     <g id="g72015" transform="translate(243.86 257.34)">
      <path id="path72017" d="m0 0-0.432 0.159l0.006 0.015 0.429-0.166c-0.001-0.003-0.002-0.005-0.003-0.008" fill="#fef1bc"/>
     </g>
     <g id="g72019" transform="translate(243.45 256.82)">
      <path id="path72021" d="m0 0c-0.002 0.005-0.005 0.01-0.007 0.015l0.424 0.185c0.001-0.002 0.002-0.005 0.003-0.007l-0.42-0.193" fill="#fcdd5b"/>
     </g>
     <g id="g72023" transform="translate(243.58 256.61)">
      <path id="path72025" d="m0 0c-0.004 0.004-0.007 0.008-0.011 0.013l0.355 0.294 0.005-0.006-0.349-0.301" fill="#fcd73a"/>
     </g>
     <g id="g72027" transform="translate(243.71 256.5)">
      <path id="path72029" d="m0 0c-0.004 0.003-0.009 0.007-0.013 0.01l0.292 0.355 0.007-0.005-0.286-0.36" fill="#fbd225"/>
     </g>
     <g id="g72031" transform="translate(243.76 256.46)">
      <path id="path72033" d="m0 0c-0.005 0.003-0.009 0.006-0.014 0.009l0.265 0.376 0.006-0.005-0.257-0.38" fill="#fbd11c"/>
     </g>
     <g id="g72035" transform="translate(243.72 256.49)">
      <path id="path72037" d="m0 0c-0.005 0.003-0.009 0.007-0.013 0.01l0.285 0.36 0.007-0.005-0.279-0.365" fill="#fbd223"/>
     </g>
     <g id="g72039" transform="translate(243.73 256.48)">
      <path id="path72041" d="m0 0c-0.005 0.003-0.009 0.007-0.013 0.01l0.278 0.365 0.007-0.004-0.272-0.371" fill="#fbd220"/>
     </g>
     <g id="g72043" transform="translate(243.77 256.45)">
      <path id="path72045" d="m0 0c-0.005 0.003-0.009 0.006-0.014 0.009l0.257 0.38 0.007-0.004-0.25-0.385" fill="#fbd01b"/>
     </g>
     <g id="g72047" transform="translate(243.75 256.47)">
      <path id="path72049" d="m0 0c-0.005 0.003-0.009 0.006-0.014 0.01l0.272 0.37 0.007-0.005-0.265-0.375" fill="#fbd11f"/>
     </g>
     <g id="g72051" transform="translate(243.69 256.51)">
      <path id="path72053" d="m0 0c-0.004 0.004-0.009 0.007-0.013 0.011l0.299 0.349 0.006-0.005-0.292-0.355" fill="#fbd327"/>
     </g>
     <g id="g72055" transform="translate(243.63 256.57)">
      <path id="path72057" d="m0 0l-0.012 0.012 0.331 0.32 0.006-0.006-0.325-0.326" fill="#fcd532"/>
     </g>
     <g id="g72059" transform="translate(243.61 256.59)">
      <path id="path72061" d="m0 0c-0.004 0.004-0.008 0.008-0.011 0.012l0.343 0.308 0.005-0.006-0.337-0.314" fill="#fcd636"/>
     </g>
     <g id="g72063" transform="translate(243.62 256.58)">
      <path id="path72065" d="m0 0l-0.012 0.012 0.338 0.314 0.005-0.006-0.331-0.32" fill="#fcd534"/>
     </g>
     <g id="g72067" transform="translate(243.64 256.55)">
      <path id="path72069" d="m0 0l-0.012 0.012 0.325 0.326 0.006-0.006-0.319-0.332" fill="#fcd42f"/>
     </g>
     <g id="g72071" transform="translate(243.67 256.53)">
      <path id="path72073" d="m0 0c-0.004 0.004-0.008 0.007-0.012 0.011l0.312 0.338 0.006-0.006-0.306-0.343" fill="#fbd42b"/>
     </g>
     <g id="g72075" transform="translate(243.68 256.52)">
      <path id="path72077" d="m0 0c-0.004 0.004-0.008 0.007-0.013 0.011l0.306 0.343 0.006-0.005-0.299-0.349" fill="#fbd329"/>
     </g>
     <g id="g72079" transform="translate(243.65 256.54)">
      <path id="path72081" d="m0 0c-0.004 0.004-0.008 0.008-0.012 0.011l0.318 0.332 0.006-0.005-0.312-0.338" fill="#fbd42d"/>
     </g>
     <g id="g72083" transform="translate(243.6 256.6)">
      <path id="path72085" d="m0 0c-0.004 0.004-0.007 0.008-0.011 0.012l0.349 0.301 0.005-0.006-0.343-0.307" fill="#fcd638"/>
     </g>
     <g id="g72087" transform="translate(244.77 256.76)">
      <path id="path72089" d="m0 0-0.244 0.102-0.006-0.006-0.007-0.004-0.006-0.005-0.007-0.005-0.007-0.004-0.007-0.004-0.007-0.005-0.007-0.004-0.007-0.004c-0.002-0.001-0.005-0.002-0.007-0.003l-0.008-0.004-0.007-0.004c-0.002-0.001-0.005-0.002-0.007-0.003-0.003-0.001-0.005-0.002-0.008-0.003-0.002-0.001-0.005-0.003-0.007-0.003-0.003-0.002-0.006-0.002-0.008-0.003-0.003-0.001-0.005-0.002-0.008-0.003-0.002-0.001-0.005-0.002-0.007-0.003-0.003-0.001-0.006-0.002-0.008-0.002-0.003-0.001-0.005-0.002-0.008-0.003s-0.005-0.001-0.008-0.002-0.005-0.001-0.008-0.002c-0.002-0.001-0.005-0.001-0.008-0.002-0.002-0.001-0.005-0.001-0.008-0.002-0.002 0-0.005-0.001-0.008-0.001-0.002-0.001-0.005-0.001-0.008-0.002-0.003 0-0.005-0.001-0.008-0.001-0.003-0.001-0.005-0.001-0.008-0.001-0.003-0.001-0.005-0.001-0.008-0.001-0.003-0.001-0.005-0.001-0.008-0.001s-0.006-0.001-0.008-0.001c-0.003 0-0.006 0-0.009-0.001h-0.008-0.008-0.008-0.008-0.008-0.009c-0.002 0-0.005 0-0.008 0.001h-0.008c-0.002 0.001-0.005 0.001-0.008 0.001s-0.005 0.001-0.008 0.001-0.005 0.001-0.008 0.001-0.005 0.001-0.008 0.002c-0.003 0-0.005 0-0.008 0.001-0.003 0-0.006 0.001-0.008 0.001-0.003 0.001-0.006 0.002-0.008 0.002-0.003 0.001-0.005 0.001-0.008 0.002-0.003 0-0.005 0.001-0.008 0.002-0.003 0-0.005 0.001-0.008 0.002-0.002 0.001-0.005 0.001-0.008 0.002-0.002 0.001-0.005 0.002-0.008 0.003-0.002 0-0.005 0.001-0.007 0.002-0.003 0.001-0.005 0.002-0.008 0.003-0.002 0.001-0.005 0.002-0.008 0.003-0.002 0.001-0.005 0.002-0.007 0.003-0.003 0.001-0.005 0.002-0.008 0.003-0.002 0.001-0.005 0.002-0.007 0.003s-0.005 0.002-0.007 0.004l-0.008 0.003-0.007 0.004-0.007 0.004-0.007 0.003-0.007 0.005-0.007 0.004-0.007 0.004-0.25-0.385c0.005-0.003 0.009-0.006 0.014-0.009s0.01-0.005 0.015-0.008c0.004-0.003 0.009-0.006 0.014-0.009 0.005-0.002 0.01-0.005 0.015-0.008 0.005-0.002 0.01-0.005 0.015-0.007 0.005-0.003 0.01-0.006 0.015-0.008s0.01-0.005 0.015-0.007 0.01-0.005 0.016-0.007c0.005-0.002 0.01-0.004 0.015-0.007 0.005-0.002 0.01-0.004 0.016-0.006l0.015-0.006c0.006-0.002 0.011-0.004 0.016-0.006s0.011-0.004 0.016-0.005c0.005-0.002 0.011-0.004 0.016-0.005 0.005-0.002 0.011-0.004 0.016-0.005 0.006-0.002 0.011-0.003 0.016-0.005 0.006-0.001 0.011-0.003 0.017-0.004 0.005-0.002 0.011-0.003 0.016-0.004s0.011-0.003 0.016-0.004c0.006-0.001 0.011-0.002 0.017-0.003 0.005-0.001 0.011-0.002 0.017-0.003 0.005-0.001 0.011-0.002 0.016-0.003 0.006-0.001 0.011-0.001 0.017-0.002 0.005-0.001 0.011-0.002 0.017-0.002 0.005-0.001 0.011-0.002 0.016-0.002 0.006-0.001 0.011-0.001 0.017-0.002 0.006 0 0.011 0 0.017-0.001 0.005 0 0.011 0 0.017-0.001h0.017 0.016 0.017 0.017c0.006 0 0.011 0 0.017 0.001 0.005 0 0.011 0 0.017 0.001 0.005 0 0.011 0.001 0.016 0.001 0.006 0.001 0.012 0.001 0.017 0.002 0.006 0 0.011 0.001 0.017 0.002 0.005 0.001 0.011 0.001 0.017 0.002 0.005 0.001 0.011 0.002 0.016 0.003 0.006 0 0.011 0.002 0.017 0.003 0.005 0.001 0.011 0.002 0.016 0.003 0.006 0.001 0.011 0.002 0.017 0.003 0.005 0.002 0.011 0.003 0.016 0.004 0.006 0.001 0.011 0.003 0.016 0.004 0.006 0.002 0.011 0.003 0.017 0.005 0.005 0.001 0.01 0.003 0.016 0.004 0.005 0.002 0.01 0.004 0.016 0.005 0.005 0.002 0.01 0.004 0.016 0.006 0.005 0.002 0.01 0.004 0.016 0.005l0.015 0.006c0.006 0.002 0.011 0.004 0.016 0.007l0.015 0.006c0.006 0.002 0.011 0.005 0.016 0.007s0.01 0.005 0.015 0.007 0.01 0.005 0.015 0.007c0.005 0.003 0.01 0.005 0.015 0.008s0.01 0.005 0.015 0.008 0.01 0.005 0.014 0.008l0.015 0.009c0.005 0.003 0.009 0.006 0.014 0.008 0.005 0.003 0.01 0.007 0.014 0.009 0.005 0.004 0.009 0.007 0.014 0.01s0.009 0.006 0.014 0.009c0.004 0.004 0.009 0.007 0.013 0.01 0.005 0.003 0.009 0.007 0.014 0.01 0.004 0.003 0.009 0.007 0.013 0.01l-0.041 0.252z" fill="#fbd018"/>
     </g>
    </g>
   </g>
   <g id="g72091" transform="matrix(50.163 0 0 -50.163 -11897 13519)">
    <g id="g72093" clip-path="url(#clipPath72095)">
     <g id="g72099" transform="translate(242.47 259.37)">
      <path id="path72101" d="m0 0c-0.02 0-0.043 0.007-0.068 0.021-0.026 0.013-0.048 0.031-0.068 0.054l-0.1-0.11c0.057-0.074 0.132-0.111 0.227-0.111 0.071 0 0.128 0.02 0.171 0.058 0.042 0.039 0.063 0.087 0.063 0.145 0 0.043-0.011 0.081-0.035 0.113-0.023 0.032-0.067 0.064-0.13 0.095l-0.059 0.03c-0.026 0.013-0.042 0.023-0.049 0.03-0.007 0.008-0.01 0.016-0.01 0.024 0 0.012 0.005 0.022 0.016 0.029 0.01 0.008 0.024 0.012 0.043 0.012 0.033 0 0.07-0.02 0.111-0.061l0.101 0.101c-0.026 0.035-0.057 0.061-0.094 0.08-0.038 0.018-0.077 0.027-0.12 0.027-0.061 0-0.112-0.018-0.152-0.054-0.039-0.036-0.059-0.081-0.059-0.132 0-0.079 0.053-0.146 0.158-0.199l0.055-0.027c0.047-0.024 0.071-0.049 0.071-0.074 0-0.013-0.007-0.025-0.02-0.036-0.013-0.01-0.031-0.015-0.052-0.015m0.808 0.335c0.034 0.035 0.076 0.052 0.128 0.052 0.051 0 0.093-0.018 0.126-0.053 0.034-0.036 0.05-0.082 0.05-0.138s-0.016-0.102-0.05-0.138c-0.035-0.036-0.077-0.054-0.126-0.054-0.052 0-0.094 0.017-0.128 0.053s-0.051 0.082-0.051 0.14c0 0.057 0.017 0.102 0.051 0.138m-0.044-0.396c0.032-0.03 0.064-0.052 0.096-0.065 0.033-0.013 0.068-0.02 0.105-0.02 0.084 0 0.157 0.033 0.218 0.098s0.092 0.146 0.092 0.243c0 0.1-0.03 0.182-0.089 0.246s-0.131 0.096-0.216 0.096c-0.039 0-0.076-0.007-0.11-0.022-0.034-0.014-0.066-0.036-0.096-0.066v0.072h-0.162v-0.854h0.162v0.272zm0.301-2.701c-0.072 0.085-0.129 0.182-0.166 0.288-0.063-0.049-0.141-0.079-0.226-0.079-0.2 0-0.366 0.165-0.366 0.366h-0.543c0-0.497 0.411-0.905 0.907-0.905 0.202 0 0.391 0.068 0.543 0.182-0.055 0.044-0.105 0.093-0.149 0.148m1.638 1.482c-0.081 0-0.158-0.011-0.232-0.03l0.244 0.291 0.76 0.002v0.543h-0.993l-0.664-0.798c0.361-0.016 0.666-0.243 0.799-0.561 0.029 0.008 0.059 0.012 0.09 0.012 0.2 0 0.365-0.165 0.365-0.366s-0.165-0.366-0.365-0.366c-0.031 0-0.061 0.004-0.089 0.011-0.075-0.18-0.207-0.332-0.372-0.432 0.134-0.078 0.29-0.122 0.457-0.122 0.502 0 0.91 0.406 0.91 0.908 0 0.501-0.408 0.908-0.91 0.908m-0.925-0.541c-0.202 0-0.366-0.164-0.366-0.366s0.164-0.366 0.366-0.366 0.366 0.164 0.366 0.366-0.164 0.366-0.366 0.366m1.572 1.692h0.163v0.509h0.097v0.141h-0.097v0.239h-0.163v-0.239h-0.083v-0.141h0.083v-0.509zm-0.536 0.263-0.001 0.031c0 0.091 0.009 0.152 0.027 0.183 0.017 0.031 0.038 0.047 0.063 0.047 0.012 0 0.028-0.005 0.047-0.015l0.051 0.141c-0.023 0.011-0.045 0.016-0.066 0.016-0.03 0-0.057-0.008-0.083-0.025-0.025-0.016-0.045-0.041-0.06-0.073v0.082h-0.14v-0.65h0.162v0.263zm-2.143-0.52c-0.465 0-0.85-0.383-0.85-0.848h0.544c0 0.168 0.138 0.306 0.306 0.306 0.167 0 0.305-0.138 0.305-0.306 0-0.167-0.137-0.305-0.303-0.306v-0.281c0.075 0 0.146-0.024 0.205-0.064 0.058 0.265 0.195 0.473 0.293 0.613 0.321 0.456 0.618 0.798 0.618 0.798h-0.121l-0.266-0.33c-0.149 0.249-0.423 0.418-0.731 0.418m1.169 0.717c0.034 0.035 0.076 0.053 0.127 0.053s0.094-0.018 0.127-0.052c0.034-0.035 0.05-0.08 0.05-0.136s-0.017-0.102-0.051-0.137-0.076-0.053-0.127-0.053-0.093 0.017-0.126 0.052c-0.034 0.036-0.051 0.081-0.051 0.138 0 0.055 0.017 0.1 0.051 0.135m0.125-0.477c0.063 0 0.121 0.015 0.173 0.045 0.053 0.03 0.094 0.072 0.125 0.125 0.03 0.054 0.046 0.111 0.046 0.172s-0.015 0.118-0.046 0.171c-0.03 0.052-0.072 0.094-0.126 0.124-0.054 0.031-0.112 0.046-0.173 0.046-0.085 0-0.16-0.029-0.225-0.088-0.075-0.068-0.112-0.152-0.112-0.254 0-0.095 0.033-0.175 0.099-0.241 0.066-0.067 0.145-0.1 0.239-0.1" fill="#56565a"/>
     </g>
     <g id="g72103" transform="translate(244.15 252.24)">
      <path id="path72105" d="m0 0c-1.531 0-3.061 0.584-4.229 1.752-2.206 2.206-2.328 5.707-0.367 8.056l0.573-0.606c-0.732-0.911-1.13-2.036-1.13-3.221 0-1.377 0.536-2.671 1.509-3.644 0.973-0.974 2.268-1.51 3.644-1.51 1.087 0 2.122 0.334 2.989 0.954l0.572-0.606c-1.054-0.783-2.308-1.175-3.561-1.175" fill="#fff"/>
     </g>
    </g>
   </g>
   <g id="g72107" transform="matrix(50.163 0 0 -50.163 -11897 13519)">
    <g id="g72109">
     <g id="g72115">
      <g id="g72117">
       <path id="path72125" fill="url(#linearGradient72119)" d="m239.92 262.45c-0.129-0.129-0.251-0.263-0.366-0.401l0.572-0.607c0.118 0.147 0.245 0.288 0.379 0.423 0.974 0.973 2.268 1.509 3.644 1.509 1.377 0 2.671-0.536 3.644-1.509s1.51-2.268 1.51-3.644c0-1.377-0.537-2.671-1.51-3.644-0.205-0.205-0.423-0.39-0.655-0.556l0.436-0.461h0.324c0.166 0.134 0.327 0.278 0.481 0.432 1.158 1.159 1.741 2.673 1.751 4.192v0.074c-0.01 1.519-0.593 3.033-1.751 4.192-1.169 1.168-2.699 1.752-4.23 1.752s-3.061-0.584-4.229-1.752"/>
      </g>
     </g>
    </g>
   </g>
   <g id="g72127" transform="matrix(50.163 0 0 -50.163 -11897 13519)">
    <g id="g72129" clip-path="url(#clipPath72131)">
     <g id="g72135" transform="translate(244.15 253.7)">
      <path id="path72137" d="m0 0c-1.157 0-2.314 0.441-3.197 1.324-0.818 0.818-1.257 1.872-1.317 2.943l0.859 0.003c0.059-0.884 0.432-1.707 1.065-2.34 0.692-0.692 1.612-1.073 2.59-1.073s1.898 0.381 2.59 1.073 1.073 1.612 1.073 2.591c0 0.978-0.381 1.898-1.073 2.59-0.095 0.095-0.194 0.184-0.297 0.267l-0.004 1.042c0.324-0.19 0.63-0.425 0.908-0.703 1.765-1.765 1.765-4.628 0-6.393-0.883-0.883-2.04-1.324-3.197-1.324m0 1.562c-0.757 0-1.514 0.289-2.092 0.867-0.515 0.514-0.8 1.171-0.856 1.844h0.02c0.057-0.691 0.354-1.334 0.85-1.83 0.555-0.555 1.293-0.861 2.078-0.861s1.523 0.306 2.078 0.861 0.86 1.293 0.86 2.078c0 0.674-0.225 1.313-0.641 1.832v0.033c0.946-1.162 0.878-2.875-0.205-3.958-0.578-0.577-1.335-0.866-2.092-0.866" fill="#e2e2e0"/>
     </g>
    </g>
   </g>
   <g id="g72139" transform="matrix(50.163 0 0 -50.163 -11897 13519)">
    <g id="g72141">
     <g id="g72147">
      <g id="g72149">
       <path id="path72157" fill="url(#linearGradient72151)" d="m246.44 260.09c0.946-1.162 0.878-2.874-0.204-3.957-0.578-0.578-1.336-0.867-2.093-0.867s-1.514 0.289-2.092 0.867c-0.514 0.515-0.8 1.172-0.856 1.845l-0.707-0.003c0.06-0.885 0.432-1.708 1.065-2.34 0.692-0.692 1.612-1.073 2.59-1.073 0.979 0 1.898 0.381 2.591 1.072 0.692 0.692 1.072 1.612 1.072 2.591s-0.38 1.898-1.072 2.591c-0.095 0.094-0.194 0.183-0.297 0.266l0.003-0.992z"/>
      </g>
     </g>
    </g>
   </g>
   <g id="g72159" transform="matrix(50.163 0 0 -50.163 -11897 13519)">
    <g id="g72161">
     <g id="g72167">
      <g id="g72169">
       <path id="path72181" fill="url(#linearGradient72171)" d="m240.95 261.42c-0.947-0.947-1.386-2.209-1.317-3.449l0.858 0.003c-0.005 0.083-0.008 0.166-0.008 0.25 0 0.979 0.381 1.898 1.073 2.591 0.692 0.691 1.612 1.072 2.59 1.072 0.845 0 1.646-0.283 2.294-0.806l-0.004 1.042c-0.705 0.414-1.497 0.622-2.29 0.622-1.156 0-2.313-0.442-3.196-1.325m1.104-1.104c-0.641-0.641-0.926-1.502-0.856-2.339h0.021c-0.007 0.082-0.011 0.164-0.011 0.247 0 0.785 0.306 1.523 0.86 2.078 0.556 0.555 1.294 0.86 2.078 0.86 0.785 0 1.523-0.305 2.079-0.86 0.077-0.079 0.151-0.161 0.219-0.245l-0.001 0.032c-0.063 0.078-0.131 0.154-0.204 0.227-0.578 0.578-1.336 0.867-2.093 0.867s-1.514-0.289-2.092-0.867"/>
      </g>
     </g>
    </g>
   </g>
   <g id="g72183" transform="matrix(50.163 0 0 -50.163 -11897 13519)">
    <g id="g72185" clip-path="url(#clipPath72187)">
     <g id="g72191"></g>
    </g>
   </g>
  </g>
 </g>
</svg>
