<svg xmlns="http://www.w3.org/2000/svg" width="200.001" height="17.771" viewBox="0 0 52.917 4.702">
    <path d="M52.917.076h-7.934v4.55h7.934zm-.408 4.14h-7.114V.484h7.114z" fill="#f9da05"/>
    <path d="M48.266 3.648V2.519h-1.341v1.129h-.452V1.07h.452v1.05h1.341V1.07h.452v2.578zM51.208 2.356c0-.495-.309-.887-.883-.887h-.509v1.78h.507c.56 0 .885-.402.885-.893m-1.844 1.293v-2.58h.959c.806 0 1.347.533 1.347 1.287 0 .762-.541 1.293-1.345 1.293zM38.459.073l-1.818 4.551h6.001V.073z" fill="#f9da05"/>
    <path d="M41.369 3.867h-2.21v-.493c1.202-.889 1.553-1.188 1.553-1.549 0-.261-.232-.382-.475-.382-.335 0-.59.131-.788.339l-.356-.414c.285-.329.721-.481 1.131-.481.628 0 1.121.351 1.121.937 0 .501-.414.937-1.176 1.493h1.198z" fill="#100f0d"/>
    <path d="M.35 3.46c.351.186.806.358 1.293.353.543-.004.881-.172.881-.503 0-.244-.135-.394-.598-.515-.186-.051-.56-.145-.774-.214C.405 2.347.001 1.929.001 1.351.001.604.559.004 1.762.004c.65 0 1.301.275 1.592.42l-.331.764A3.07 3.07 0 0 0 1.73.881c-.543 0-.768.166-.768.424 0 .244.164.351.489.444l.828.238c.814.226 1.212.608 1.212 1.265 0 .848-.782 1.436-1.869 1.436-.654 0-1.351-.305-1.588-.483zM5.648.876v1.666h.856c.465 0 .834-.315.834-.826 0-.545-.37-.84-.834-.84zM4.705.072h1.949c.893 0 1.658.523 1.658 1.666 0 1.028-.766 1.636-1.658 1.636H5.648v1.25h-.943zM16.175.876v1.361h.953c.43 0 .739-.253.739-.677 0-.45-.309-.685-.739-.685zm-.943-.804h1.796c1.123 0 1.82.455 1.82 1.481 0 .725-.523 1.262-1.208 1.402l1.45 1.523v.147h-1.04l-1.525-1.638h-.349v1.638h-.943zM22.174.905v3.721h-.943V.905h-1.333V.071h3.581v.834zM29.507.905v3.721h-.945V.905h-1.331V.071h3.581v.834zM31.746.071h1.028l1.329 3.701L35.481.071h1.026l-1.814 4.555h-1.18z" fill="#fff"/>
    <path d="M26.286 2.35a.916.916 0 1 1-1.833.001.916.916 0 0 1 1.833-.001M11.645 3.267a.916.916 0 1 1-.001-1.833.916.916 0 0 1 .001 1.833m0-3.266A2.349 2.349 0 0 0 9.294 2.35a2.352 2.352 0 0 0 4.702 0A2.349 2.349 0 0 0 11.645.001" fill="#f9da05"/>
</svg>
