<svg width="600pt" height="304.38pt" version="1.1" viewBox="0 0 600 304.38" xmlns="http://www.w3.org/2000/svg">
 <path d="m152.19 0c-84.052 3.3137e-5 -152.19 68.138-152.19 152.19 3.3137e-5 84.052 68.138 152.19 152.19 152.19 84.052-3e-5 152.19-68.138 152.19-152.19-3e-5 -84.052-68.138-152.19-152.19-152.19zm-99.42 113.88c8.8448 0 17.015 2.8368 24.141 8.3558l0.01905 0.0161 0.01755 0.0132c0.46595 0.37277 0.88478 0.891 1.2539 1.4956 0.47297 0.66014 0.84232 1.4864 0.84225 2.2954 7e-6 0.85702-0.24616 1.49-0.50976 2.0171-0.17488 0.34975-0.37334 0.70473-0.59912 1.081l-0.04103 0.0674-2.8814 4.27-0.0015 5e-3c-0.38607 0.57745-0.8274 1.1186-1.4648 1.5967l-0.06446 0.0513-0.07031 0.0455c-0.70365 0.46911-1.5794 0.69434-2.3364 0.69434-1.4487 0-2.4494-0.57781-3.3692-1.2217l-0.02198-0.0146-0.01904-0.0146c-2.4333-1.7642-4.896-3.1409-7.396-4.1528-2.383-0.96458-4.8882-1.4473-7.5968-1.4473-2.1406 0-3.9355 0.36072-5.4727 1.0268l-0.04687 0.0206c-1.4308 0.59206-2.4199 1.3848-3.2021 2.4858-0.66926 0.96705-1.0283 2.0866-1.0283 3.6724 0 1.571 0.34958 2.5612 0.9375 3.3472 0.73707 0.89767 1.8928 1.7699 3.6269 2.5312 1.9244 0.81525 4.7009 1.7011 8.256 2.5898l0.01465 3e-3 0.01319 3e-3c5.1664 1.342 9.3998 2.8611 12.769 4.6509 3.4894 1.8186 6.2606 4.229 8.0858 7.2261 1.9143 2.9716 2.8096 6.5783 2.8096 10.582 0 4.574-1.2621 8.829-3.7544 12.454l-0.0075 0.0117-0.0088 0.0117c-2.4764 3.527-5.9229 6.2675-10.126 8.1518l-0.01904 9e-3 -0.0205 7e-3c-4.2132 1.816-8.9722 2.6909-14.198 2.6909-4.7731 0-9.327-0.81382-13.594-2.4492l-0.0074-1e-3 -0.0074-5e-3c-4.1291-1.6096-7.9575-3.822-11.45-6.6152l-0.07325-0.0586-0.07031-0.0644c-0.97358-0.88508-2.0508-1.8488-2.0508-3.8643 0-1.4486 0.57928-2.4523 1.2232-3.3721l0.01025-0.0103 2.9428-4.1221 0.0073-0.0117 0.0088-0.0103c0.76485-1.0517 1.859-2.3027 3.8745-2.3027 1.8914 0 2.4713 0.74616 3.2974 1.4136 0.0039 3e-3 0.0078 6e-3 0.01172 9e-3l0.01758 0.0132c5.5441 4.3178 10.826 6.2988 16.054 6.2988 2.7216 0 4.9684-0.38814 6.769-1.0766 1.8118-0.69281 2.9822-1.5748 3.772-2.6279l0.0058-9e-3 0.0059-7e-3c0.86985-1.1445 1.2539-2.2798 1.2539-3.7793 0-1.5431-0.33698-2.4918-0.87308-3.2066-0.53132-0.70845-1.6493-1.579-3.5493-2.3613l-0.05127-0.0205-0.04834-0.0234c-1.8805-0.85477-4.8251-1.8394-8.691-2.855-4.8527-1.2132-8.934-2.6401-12.281-4.3491l-0.01172-7e-3 -0.01172-6e-3c-3.3691-1.7578-6.1333-4.113-8.127-7.0269l-0.02637-0.0352-0.02344-0.0395c-1.9931-3.1094-2.918-6.8866-2.918-11.099 0-4.5994 1.1686-8.8102 3.5434-12.334 2.3253-3.4504 5.5454-6.1216 9.45-7.8922 3.9473-1.8256 8.3468-2.7188 13.085-2.7188zm131.72 6e-3c7.1132 0 13.679 1.6648 19.492 4.9966 5.7862 3.3165 10.412 7.9425 13.729 13.729v2e-3c3.3319 5.8131 4.9966 12.377 4.9966 19.491 0 7.1194-1.7015 13.718-5.0948 19.589-3.3182 5.854-7.9852 10.518-13.841 13.834-5.8757 3.3272-12.497 4.9878-19.672 4.9878-7.043 0-13.565-1.6254-19.371-4.8824l-0.0175-0.0117-0.0206-0.0103c-5.7196-3.3188-10.305-7.944-13.617-13.723-3.302-5.7609-4.9651-12.235-4.9922-19.222l-3e-3 -0.0249v-0.14795c0-7.1134 1.663-13.706 4.9878-19.576l1e-3 -5e-3 5e-3 -6e-3c3.376-5.908 8.0317-10.605 13.829-13.928 5.8709-3.3926 12.47-5.0932 19.588-5.0932zm-91.388 1.0723h18.893c9.7305 0 17.418 1.9793 22.749 6.4629 5.3542 4.3842 8.0272 11.038 8.0272 19.027 0 5.4018-1.2326 10.251-3.7852 14.307l-3e-3 5e-3c-2.4998 4.0088-6.2867 7.0642-11.047 9.0832-4.7746 2.0256-10.394 2.9766-16.824 2.9766h-7.4004v17.483c0 1.2298-0.12411 2.6262-1.3623 3.8643l-0.11427 0.11719-0.1289 0.104c-1.233 0.98648-2.4106 1.043-3.5244 1.043h-5.4814c-1.1138 0-2.2884-0.0564-3.5215-1.043l-0.1289-0.104-0.11719-0.11719c-1.238-1.238-1.3623-2.6344-1.3623-3.8643v-64.216c0-1.1912 0.10488-2.6425 1.5205-3.8628 1.1368-1.0406 2.4637-1.2656 3.6094-1.2656zm135.99 5e-3h48.945c1.1457 0 2.4725 0.22485 3.6094 1.2656 1.4154 1.2202 1.5205 2.6716 1.5205 3.8628v4.9922c0 1.2298-0.1241 2.6276-1.3623 3.8657l-0.11719 0.11719-0.12597 0.10254c-1.2331 0.98648-2.4107 1.043-3.5244 1.043h-16.603v54.094c0 1.2298-0.12117 2.6276-1.3594 3.8657l-0.11719 0.11719-0.12891 0.104c-1.233 0.98648-2.4106 1.043-3.5244 1.043h-5.48c-1.1138 0-2.2898-0.0564-3.523-1.043l-0.12891-0.104-0.11719-0.11719c-1.238-1.238-1.3594-2.6359-1.3594-3.8657v-54.094h-16.604c-1.1138 0-2.2884-0.0564-3.5215-1.043l-0.12891-0.10254-0.11719-0.11719c-1.238-1.238-1.3608-2.6359-1.3608-3.8657v-4.9922c0-1.1913 0.10341-2.6426 1.519-3.8628 1.1368-1.0407 2.4637-1.2656 3.6094-1.2656zm-44.704 14.174c-4.1445 0-7.809 0.99188-11.209 3.0088l-0.0146 0.0103-0.0161 0.0103c-3.3975 1.9579-6.0123 4.6226-7.989 8.1698-1.9596 3.5157-2.9532 7.4743-2.9531 12.062 0 4.4486 0.95962 8.3468 2.8623 11.872 1.9755 3.4749 4.5626 6.1123 7.8922 8.067 3.4003 1.9574 7.076 2.9268 11.231 2.9268 4.1553 0 7.833-0.9687 11.234-2.9268 3.4738-2.0278 6.1231-4.732 8.0963-8.2718l8e-3 -0.0161 0.0103-0.0146c2.0221-3.5242 3.0308-7.4013 3.0308-11.833 0-4.587-0.99173-8.5035-2.9414-11.944l-6e-3 -9e-3 -3e-3 -0.0103c-1.9769-3.5468-4.5932-6.2116-7.9905-8.1698-3.4028-1.961-7.081-2.9312-11.239-2.9312zm-80.678 1.0723v21.36h7.695c5.3483 0 9.1695-1.0781 11.682-2.8726 4.5927-4.046 4.9164-12.478 0.17578-15.756l-0.0293-0.019-0.0293-0.022c-2.328-1.6346-6.2202-2.6894-11.799-2.6894h-1e-3zm0 34.711v0.30469c0.057-0.22798 0-0.33549 0-0.30469z" fill="#fff" stroke-width=".75"/>
 <g fill="#fff" shape-rendering="auto">
  <path d="m436.69 113.88c-7.1015 0-13.704 1.622-19.629 4.8652-2e-3 1e-3 -4e-3 3e-3 -6e-3 4e-3 -5.9331 3.1842-10.705 7.8171-14.154 13.725-3.4849 5.903-5.209 12.711-5.209 20.209 0 7.3056 1.6933 13.954 5.1133 19.725 3.3834 5.7096 8.0119 10.234 13.742 13.418l0.0137 8e-3 0.0117 6e-3c5.7237 3.1092 12.064 4.668 18.844 4.668 9.7202 0 18.686-2.1234 26.738-6.3672 0.97371-0.44633 1.958-1.0419 2.6426-2.2949 0.66044-1.0893 0.80859-2.1708 0.80859-3.2226v-24.818c0-1.1438-0.22223-2.4701-1.2656-3.6094-1.2205-1.4163-2.671-1.5195-3.8633-1.5195h-21.479c-1.2306 0-2.6311 0.1252-3.8672 1.3613l-0.11524 0.11523-0.10351 0.12891c-0.98689 1.2338-1.043 2.4097-1.043 3.5234v5.4824c0 1.1137 0.0584 2.2906 1.043 3.5215l0.10351 0.12891 0.11524 0.11719c1.2363 1.2363 2.6367 1.3613 3.8672 1.3613h10.867v8.4805c-3.6286 1.5719-8.2059 2.459-13.859 2.459-4.169 1e-5 -7.8607-0.94613-11.264-2.8477-3.3137-1.8874-5.9296-4.5197-7.9727-8.0742-1.951-3.5064-2.9473-7.49-2.9473-12.141 0-4.5998 0.96873-8.5721 2.873-12.092 1.9045-3.5203 4.4999-6.169 7.9551-8.127 3.447-1.9534 7.3279-2.9414 11.844-2.9414 5.9821 0 11.806 1.8057 17.672 5.5938l-0.0371-0.0254c0.88484 0.58989 1.9124 1.0879 3.2168 1.0879 1.6874 0 3.2031-1.104 4.0039-2.248l2.7793-3.9688 0.0351-0.0566c0.27235-0.42796 0.49933-0.81565 0.69922-1.2442 0.19989-0.42849 0.44922-0.82302 0.44922-1.8203 0-2.014-1.316-3.345-2.543-4.1973-3.3925-2.4659-7.3334-4.4447-11.789-5.9551-4.0927-1.4465-8.3867-2.1472-12.799-2.2949l-0.10352-0.12305h-1.3867z"/>
  <path d="m323.33 114.96c-1.1457 0-2.4726 0.22497-3.6094 1.2656-1.4156 1.2203-1.5195 2.672-1.5195 3.8633v64.215c0 1.2299 0.12326 2.6272 1.3613 3.8652l0.11718 0.11719 0.12891 0.10351c1.2331 0.98658 2.4077 1.043 3.5215 1.043h37.688c1.1137 0 2.2904-0.0565 3.5234-1.043l0.12891-0.10351 0.11523-0.11719c1.2382-1.2381 1.3613-2.6354 1.3613-3.8652v-4.9922c0-1.1908-0.10362-2.6414-1.5176-3.8613-1.1373-1.0426-2.4649-1.2676-3.6113-1.2676h-27.076v-54.094c0-1.1908-0.10367-2.6413-1.5176-3.8613-1.1373-1.0425-2.4649-1.2676-3.6113-1.2676z"/>
  <path d="m380.54 114.96c-1.1452 0-2.4729 0.22604-3.6094 1.2656-1.4179 1.2207-1.5195 2.6733-1.5195 3.8652v64.215c0 1.2299 0.12131 2.6272 1.3594 3.8652l0.11719 0.11718 0.12891 0.10157c1.2331 0.98657 2.4097 1.0449 3.5234 1.0449h5.4805c1.1137 0 2.2904-0.0585 3.5234-1.0449l0.12891-0.10157 0.11719-0.11718c1.2382-1.2381 1.3613-2.6354 1.3613-3.8652v-64.215c0-1.1919-0.1038-2.6446-1.5215-3.8652-1.1365-1.0396-2.4642-1.2656-3.6094-1.2656z"/>
  <path d="m479.37 114.96c-1.1459 0-2.4724 0.22631-3.6094 1.2676-1.4165 1.2204-1.5195 2.6718-1.5195 3.8633v64.215c0 1.2299 0.12326 2.6272 1.3613 3.8652l0.11523 0.11718 0.12891 0.10157c1.2331 0.98657 2.4097 1.0449 3.5234 1.0449h5.4824c1.1137 0 2.2904-0.0585 3.5234-1.0449l0.12696-0.10157 0.11718-0.11718c1.2382-1.2381 1.3613-2.6354 1.3613-3.8652v-25.412h28.799v25.412c0 1.2298 0.12328 2.6272 1.3613 3.8652l0.11719 0.11718 0.12695 0.10157c1.2331 0.98657 2.4097 1.0449 3.5234 1.0449h5.4824c1.1137 0 2.2904-0.0585 3.5234-1.0449l0.12695-0.10157 0.11719-0.11718c1.2382-1.2381 1.3613-2.6354 1.3613-3.8652v-64.215c0-1.1915-0.10331-2.6429-1.5195-3.8633-1.137-1.0414-2.4634-1.2676-3.6094-1.2676h-5.4824c-1.1452 0-2.4709 0.22616-3.6074 1.2656-1.4179 1.2207-1.5215 2.6733-1.5215 3.8652v23.648h-28.799v-23.648c0-1.1915-0.10331-2.6429-1.5195-3.8633-1.137-1.0414-2.4634-1.2676-3.6094-1.2676z"/>
  <path d="m545.92 114.96c-1.1457 0-2.4726 0.225-3.6094 1.2656-1.4156 1.2203-1.5195 2.672-1.5195 3.8633v4.9922c0 1.2298 0.12328 2.6272 1.3613 3.8652l0.11718 0.11719 0.12696 0.10352c1.2331 0.98655 2.4097 1.043 3.5234 1.043h16.602v54.094c0 1.2299 0.12326 2.6272 1.3613 3.8652l0.11718 0.11719 0.12891 0.10351c1.2331 0.98658 2.4097 1.043 3.5234 1.043h5.4805c1.1137 0 2.2904-0.0565 3.5234-1.043l0.12891-0.10351 0.11523-0.11719c1.2382-1.2381 1.3613-2.6354 1.3613-3.8652v-54.094h16.604c1.1137 0 2.2885-0.0566 3.5215-1.043l0.12891-0.10352 0.11719-0.11719c1.2382-1.2381 1.3613-2.6354 1.3613-3.8652v-4.9922c0-1.1912-0.10415-2.643-1.5195-3.8633-1.1368-1.0408-2.4637-1.2656-3.6094-1.2656z"/>
 </g>
</svg>
