<svg width="800.013" height="231.851" viewBox="0 0 211.67 61.344" xmlns="http://www.w3.org/2000/svg">
    <g fill="#fff" stroke-width=".705">
        <path d="M32.059 60.36c-4.049-1.33-8.456-3.873-9.433-5.442l8.343-7.932c5.985 4.341 12.472 5.232 15.566 2.138 2.362-2.362 2.226-4.991-.385-7.43-1.987-1.856-2.04-.28-2.05-1.877l-.063-11.126c.882-.544 8.208 2.113 11.325 4.25 2.266 1.327 3.242 3.014 4.126 4.587 1.363 2.425 1.82 5.412 1.598 8.04.28 3.057-.823 5.605-2.691 8.185-1.214 1.674-3.854 3.953-5.961 5.143-3.374 1.907-4.506 2.157-10.493 2.322-4.482.123-7.764-.162-9.882-.858zM148.665 60.44c-6.617-2.098-14.922-8.27-14.055-10.446l10.223-6.181c.397-.24 2.048 1.088 3.52 2.419 5.443 4.917 12.726 5.136 18.874.568l2.356-1.751 7.46 8.554c-.303 1.546-6.63 5.58-10.605 6.76-4.306 1.279-13.853 1.32-17.774.077zM79.971 49.45h11.978v10.57H79.971zM102.579 50.57l-5.057-9.446.416-10.29 3.17-.9c7.526-2.138 8.534-9.521 1.565-11.457-1.441-.4-7.14-.73-12.662-.732l-10.04-.003V7.878h12.555c15.198 0 18.718.79 23.117 5.189 5.99 5.99 5.965 14.82-.058 20.527-1.637 1.55-3.688 3.297-4.557 3.88l-1.58 1.06 6.046 9.862c3.326 5.423 6.047 11.137 6.047 11.622h-13.905l-5.057-9.446z"/>
    </g>
    <path d="M130.202 47.81V19.153l22.342 14.328z" fill="#e61e29" stroke-width=".705"/>
    <path d="M0 33.9l20.784-12.498v9.424l19.078-9.424.249 24.995-19.327-9.627v9.627z" fill="#8ec043" stroke-width=".705"/>
    <g fill="#fff">
        <path d="M24.308 21.94c0-5.956 2.237-10.415 8.53-13.695 2.74-1.428 4.807-2.407 11.199-2.407 6.64.379 7.805 1.207 11.378 2.95 6.597 3.218 4.904 3.842 4.904 3.842l-6.377 8.175-3.462-1.884c-5.784-3.148-8.978-2.722-17.544 2.343-3.933 2.325-7.483 4.227-7.89 4.227-.417 0-.738-1.544-.738-3.55zM134.925 17.22c0-1.773 4.985-5.918 9.864-8.203 9.157-4.288 23.397-3.056 29.928 2.589l2.739 2.367-8.873 7.432c-4.98-4.507-14.404-3.962-19.663-.435-4.077 3.054-3.466 3.086-4.077 3.054z" stroke-width=".705"/>
        <g stroke-width=".109" style="font-feature-settings:normal;font-variant-caps:normal;font-variant-ligatures:normal;font-variant-numeric:normal" aria-label="FM">
            <path d="M183.282 13.512V-.002h10.72v2.286h-7.563v3.2h6.528v2.285h-6.528v5.743zM196.577 13.512V-.002h4.725l2.837 9.218 2.805-9.218h4.736v13.514h-2.933V2.874l-3.104 10.638h-3.04L199.51 2.874v10.638z"/>
        </g>
    </g>
    <path d="M69.155 46.39V21.025H93.65V46.39z" fill="#f19221" stroke-width=".705"/>
</svg>
