<?xml version="1.0" encoding="UTF-8" standalone="no"?>
<!-- Created with Inkscape (http://www.inkscape.org/) -->
<svg xmlns:rdf="http://www.w3.org/1999/02/22-rdf-syntax-ns#" xmlns="http://www.w3.org/2000/svg" height="242.02" width="600" version="1.1" xmlns:cc="http://creativecommons.org/ns#" xmlns:dc="http://purl.org/dc/elements/1.1/">
 <metadata>
  <rdf:RDF>
   <cc:Work rdf:about="">
    <dc:format>image/svg+xml</dc:format>
    <dc:type rdf:resource="http://purl.org/dc/dcmitype/StillImage"/>
    <dc:title/>
   </cc:Work>
  </rdf:RDF>
 </metadata>
 <path d="m178.2,121.28c0-39.208,0.0187-78.416-0.0505-117.63-0.004-2.1422,0.47709-2.6942,2.6661-2.6923,77.143,0.0654,154.29,0.0617,231.44,0.007,2.0393-0.002,2.58,0.48646,2.5782,2.5595-0.0561,78.565-0.0561,157.13,0,235.7,0.002,1.9888-0.47896,2.4491-2.4566,2.4472-77.293-0.0561-154.59-0.0543-231.89-0.004-1.8635,0-2.335-0.45464-2.3312-2.32,0.0598-39.356,0.0449-78.713,0.0449-118.07z" fill-rule="evenodd" fill="#a90000"/>
 <path d="m160.86,121.04c0,39.432-0.0206,78.865,0.0524,118.3,0.004,2.1591-0.50142,2.6848-2.6755,2.6811-51.854-0.0692-103.71-0.0692-155.56,0-2.1592,0.01-2.6719-0.49-2.67-2.66,0.065483-78.94,0.063612-157.88,0.00561-236.83,0-2.0524,0.51638-2.5333,2.5426-2.5314,51.929,0.0598,103.85,0.0598,155.78,0.002,1.9907-0.002,2.5763,0.41909,2.5726,2.5146-0.0673,39.509-0.0486,79.016-0.0486,118.52z" fill-rule="evenodd" fill="#a90000"/>
 <path d="m325.2,24.904v2.4435c0,60.976-0.0112,121.95,0.0505,182.93,0.002,2.1217-0.43219,2.7148-2.6437,2.6979-15.636-0.11038-31.273-0.0879-46.911-0.0187-1.7381,0.007-2.2227-0.40225-2.2208-2.1946,0.0523-49.231,0.0523-98.461-0.004-147.69-0.002-1.6764,0.68477-2.5819,1.8803-3.4781,8.9731-6.7392,18.33-12.932,27.486-19.406,6.5334-4.6175,13.057-9.2482,19.604-13.849,0.77646-0.54259,1.5061-1.2143,2.7578-1.4332z" fill-rule="evenodd" fill="#fefefe"/>
 <path d="m80.511,148.1c-11.299,0-22.597,0.004-33.896-0.002-3.6839,0-4.2527-0.51451-4.219-4.0843,0.09542-9.9498-0.2769-19.903,0.21516-29.849,0.12536-2.5482,0.60432-5.0441,1.3471-7.4876,2.6586-8.7486,8.7729-13.647,17.888-14.579,9.9198-1.0141,17.798,2.2077,23.146,10.831,0.73529,1.1862,1.2535,1.2142,2.4004,0.5089,8.5353-5.2443,17.117-10.412,25.686-15.598,0.76711-0.46586,1.5211-0.96915,2.3368-1.3321,1.755-0.78393,3.1002-0.116,3.1432,1.7961,0.10852,4.8608,0.058,9.7252-0.015,14.586-0.0243,1.6352-1.0627,2.769-2.4341,3.538-8.8721,4.9618-17.752,9.9086-26.637,14.848-1.218,0.67728-2.5127,0.86063-3.8991,0.50142-2.3873-0.61929-4.7859-1.1881-7.1882-1.74-1.5548-0.35735-2.4004-1.2797-2.7952-2.8364-1.5679-6.1929-4.2583-8.2154-10.509-8.0208-5.0666,0.15528-7.9927,2.696-8.3594,7.8038-0.3031,4.2452-0.1029,8.526-0.19271,12.788-0.02619,1.2517,0.67729,1.2498,1.5716,1.246,3.5174-0.0206,7.0329-0.009,10.55-0.009,15.19,0,30.381-0.004,45.569,0.002,4.1348,0.002,4.4098,0.29561,4.4136,4.5034,0.002,2.8439,0.007,5.6877,0,8.5316-0.0112,3.5212-0.522,4.0488-3.9982,4.0506-11.377,0.009-22.751,0.004-34.124,0.004z" fill-rule="evenodd" fill="#fefefe"/>
 <path d="m119.31,194.56c-0.26194,5.5268-0.30497,11.067-1.0403,16.567-0.26568,1.9907-1.2086,2.726-3.1918,2.3761-2.7971-0.49394-5.6222-0.82136-8.4193-1.3172-2.6773-0.47335-3.1208-1.0328-2.9786-3.7831,0.30871-5.901,0.96729-11.783,0.96729-17.701,0-3.2218-0.0449-6.4417-0.8438-9.5868-0.87374-3.4444-2.567-4.988-5.7682-5.3921-3.2405-0.40787-5.6503,0.76896-7.2855,3.6989-2.2208,3.9777-2.8607,8.4736-4.0188,12.79-0.87374,3.2517-1.6745,6.5203-3.2798,9.5101-4.7335,8.8178-12.496,11.815-21.98,11.136-8.7711-0.62677-14.444-5.4744-17.48-13.587-1.5099-4.0338-2.1778-8.2322-2.2863-12.52-0.19271-7.5624,0.0094-15.114,0.88309-22.633,0.33303-2.8682,0.89619-3.2854,3.8093-2.8607,2.5894,0.37794,5.1564,0.90368,7.7495,1.2479,2.219,0.29562,3.0927,1.465,2.9281,3.6596-0.45651,6.118-0.91677,12.236-0.89432,18.378,0.0075,2.1778,0.13845,4.3331,0.81761,6.4249,0.9149,2.8195,2.6942,4.6138,5.7644,4.8682,3.2742,0.27316,5.4595-0.88497,6.887-3.9103,2.0581-4.3612,2.7017-9.1565,3.9945-13.753,1.16-4.1236,2.5501-8.1293,4.9898-11.695,3.132-4.5838,7.4483-7.278,12.96-7.9572,14.333-1.7699,23.75,5.1601,26.53,19.516,0.36858,1.9065,0.67915,3.8317,0.86813,5.7626,0.34612,3.5754,0.47148,7.1658,0.31806,10.762z" fill-rule="evenodd" fill="#fefefe"/>
 <path d="m80.455,76.047c-11.295,0-22.592,0.004-33.887-0.002-3.6895-0.002-4.1872-0.48458-4.1891-4.088-0.0075-14.363-0.0075-28.727,0-43.088,0.0019-3.6184,0.50703-4.103,4.1666-4.1217,2.1703-0.0112,4.3388-0.0112,6.5091,0,3.581,0.0206,4.0413,0.46775,4.045,3.9758,0.0075,9.351,0.05238,18.702-0.04116,28.051-0.01871,1.7812,0.46587,2.2639,2.2227,2.2059,3.9608-0.13471,7.931-0.12723,11.89-0.002,1.6502,0.0523,2.131-0.348,2.1104-2.0674-0.10103-8.4511-0.05052-16.906-0.04304-25.359,0.0037-3.3752,0.53509-3.9272,3.871-3.972,2.4678-0.0337,4.9393-0.0561,7.4053,0.015,2.7802,0.0785,3.4126,0.72219,3.4239,3.5305,0.02994,8.5278,0.08045,17.058-0.04117,25.584-0.02807,1.9458,0.5669,2.2957,2.3668,2.2732,8.0769-0.0992,16.158-0.0524,24.236-0.0393,3.6203,0.006,4.1124,0.51826,4.1217,4.161,0.007,2.9917,0.009,5.9852,0,8.9769-0.0112,3.5342-0.43593,3.959-4.0544,3.9627-11.372,0.009-22.742,0.004-34.113,0.004z" fill-rule="evenodd" fill="#fefefe"/>
 <path d="m435.52,64.496c-1.1757,0-2.1506,0.92113-2.1506,2.0968v108.55c0,1.1757,0.97489,2.1506,2.1506,2.1506h27.581c1.1757,0,2.0968-0.97489,2.0968-2.1506v-35.162-0.91396c0-1.1757,0.97488-2.1506,2.1506-2.1506h27.581c1.1757,0,2.0968,0.97491,2.0968,2.1506v0.91396,35.162c0,1.1757,0.97488,2.1501,2.1506,2.1501h27.581c1.1757,0,2.1506-0.97446,2.1506-2.1501v-78.645c0-1.1206,0.69419-1.6837,2.2589-1.7141l20.265-0.0667s17.283-1.135,17.485,26.727c0.20181,27.862-11.964,26.668-25.08,26.956-2.0837,0.0457-2.5238,0.55954-2.5284,2.1824l-0.0679,24.284c-0.005,1.54,1.007,2.428,2.8641,2.4262,42.435-0.0418,55.77-20.134,55.897-57.319,0.12684-37.185-17.223-55.478-52.598-55.478h-48.227c-1.1757,0-2.1506,0.92111-2.1506,2.0968v34.355,2.1506c-0.00009,1.1757-0.92118,2.0968-2.0969,2.0968h-27.581c-1.1757,0-2.1506-0.92112-2.1506-2.0968v-2.1506-34.355c0-1.1757-0.92113-2.0968-2.0968-2.0968z" fill-rule="nonzero" fill="#6c6c6c"/>
</svg>
