<svg xmlns="http://www.w3.org/2000/svg" width="155.031" height="190.719">
    <path d="M1 1v153.032h153.031V1zm95.25 162.375c-1.703 0-3.441.3-5.219.875-1.752.576-3.192 1.872-4.344 3.875-1.151 2.003-1.718 4.8-1.718 8.406 0 2.504.249 4.604.75 6.281.526 1.678 1.273 3.005 2.25 4.032a8.404 8.404 0 0 0 3.531 2.219c1.402.425 2.972.656 4.75.656 1.803 0 3.41-.23 4.813-.656 1.402-.451 2.58-1.193 3.53-2.22.977-1.026 1.719-2.353 2.22-4.03.5-1.678.75-3.778.75-6.282 0-2.479-.324-4.772-1-6.875-.652-2.103-1.835-3.66-3.563-4.687-1.728-1.052-3.996-1.594-6.75-1.594zm19.313 0v26.344h38.468v-26.344zM1 163.906v25.281h5.688v-20.562h3.28c1.353 0 2.287.287 2.813.813.551.5.813 1.248.813 2.25 0 1.251-.337 2.124-1.063 2.625-.7.5-1.754.75-3.156.75L8.437 179 15 189.188h6.563l-7.313-10.813c.651-.15 1.392-.45 2.219-.875.851-.45 1.549-1.192 2.125-2.219.576-1.026.875-2.279.875-3.781 0-2.329-.692-4.18-2.094-5.531-1.377-1.377-3.545-2.063-6.5-2.063zm30.406 0l-9.062 25.281h5.593l2.125-6.125h7.907l2.125 6.125h5.812l-9.031-25.28zm17.625 0v25.281h8.719c1.778 0 3.398-.193 4.875-.593 1.477-.4 2.767-1.08 3.844-2.031 1.076-.977 1.893-2.28 2.469-3.907.6-1.627.906-3.671.906-6.125 0-2.479-.306-4.522-.906-6.125-.576-1.627-1.393-2.923-2.47-3.875-1.076-.976-2.366-1.655-3.843-2.031-1.477-.4-3.097-.594-4.875-.594zm25.469 0v25.281h5.781v-25.28zm21.75 4.219c.926 0 1.83.187 2.656.563.852.35 1.48 1.116 1.906 2.343.451 1.227.688 3.072.688 5.5 0 1.653-.125 3.148-.375 4.5-.25 1.327-.786 2.318-1.563 2.969-.75.651-1.86.969-3.312.969-.926 0-1.699-.125-2.375-.375a3.573 3.573 0 0 1-1.625-1.375c-.4-.651-.706-1.517-.906-2.594-.2-1.077-.313-2.441-.313-4.094 0-1.652.119-3.135.344-4.437.25-1.327.749-2.318 1.5-2.969.776-.676 1.898-1 3.375-1zm-41.438.5h2.907c.926 0 1.86.162 2.812.438.952.275 1.712.973 2.313 2.125.6 1.126.906 2.915.906 5.343 0 1.703-.187 3.198-.563 4.5-.375 1.277-.998 2.156-1.874 2.656-.877.501-2.067.75-3.594.75h-2.907zm-20.75 1.594l2.532 8.219h-5.125z" style="text-align:start;line-height:125%;-inkscape-font-specification:'LHFJNT+SRGSSRType-Bold Bold'" font-size="37.558" font-weight="700" letter-spacing="0" word-spacing="0" fill="#cf007f" font-family="LHFJNT+SRGSSRType-Bold"/>
    <path d="M124.227 170.174c-3.201 0-4.751 1.394-4.751 3.605 0 2 1.082 3.187 2.963 3.67l1.437.368c1.184.31 1.69.657 1.69 1.394 0 1.088-.739 1.284-2.524 1.284-.814 0-2.231-.12-2.716-.16-.505-.036-.642.025-.718.45l-.23 1.493c-.04.292.097.407.35.445.562.076 1.977.175 3.353.175 3.086 0 5.338-1.008 5.338-3.879 0-1.69-.742-2.95-3.303-3.61l-1.432-.368c-.969-.25-1.415-.562-1.415-1.278 0-1.01.93-1.202 1.821-1.202 1.205 0 2.423.1 2.908.137.506.038.641-.024.719-.45l.236-1.454c.038-.29-.1-.406-.351-.444-.564-.078-1.804-.176-3.375-.176zm6.354.132c-.389 0-.505.138-.505.527v11.429c0 .386.116.52.505.52h1.783c.388 0 .505-.134.505-.52v-9.646h1.844c1.163 0 1.722.427 1.722 1.514 0 .99-.442 1.3-.888 1.493-.562.233-.76-.018-.933.718l-.192.818c-.06.232-.083.344-.083.422 0 .194.062.35.198.582l2.31 4.154c.194.329.347.466.812.466h2.118c.27 0 .602-.175.29-.659l-2.836-4.696c.951-.602 2.02-1.454 2.02-3.336 0-2.425-1.358-3.786-4.346-3.786h-4.324zm11.764 0c-.389 0-.505.138-.505.527v11.429c0 .386.116.52.505.52h1.788c.387 0 .5-.134.5-.52v-4.505h4.62c.387 0 .504-.134.504-.521v-1.36c0-.39-.117-.522-.505-.522h-4.62v-2.64h5.087c.388 0 .505-.138.505-.526v-1.355c0-.39-.117-.527-.505-.527h-7.374z" fill="#fff"/>
    <path d="M41.938 53.844L73.13 85.036 30.5 113.094l-.469 5.062v21.188l14.688 14.688h109.312V71.39L111.641 29 56.75 32.594z" fill="#a21455"/>
    <path d="M76.25 16.344c-12.422-.144-23.478 4.221-34.25 9.5v28c9.416-7.793 19.063-13.003 32-13.5 12.099-.466 16.94 5.251 17.75 14 1.116 12.044-11.037 21.159-15.5 24.5l-45.75 34.25H71l27-19.75c11.692-8.553 23.115-18.456 23.5-39.5.26-14.205-9.135-37.083-45.25-37.5zM30.031 118.156v21.188h4.75v-21.188zm11.969 0l-5.25 8.375-.531 2.438 6.343 10.375h5.532l-7-11.5 6.156-9.688zm6.188 0v13.281c0 1.658.184 3.024.562 4.094.378 1.07.943 1.933 1.656 2.563.714.63 1.566 1.06 2.594 1.312 1.049.252 2.23.375 3.531.375 1.322 0 2.504-.123 3.532-.375 1.027-.251 1.88-.683 2.593-1.312.713-.63 1.279-1.493 1.657-2.563.377-1.07.562-2.436.562-4.094v-13.28h-4.844v13.75c0 .796-.102 1.495-.312 2.124-.21.609-.59 1.05-1.094 1.344-.503.294-1.202.438-2.125.438-.545 0-1.08-.062-1.625-.188-.524-.126-.987-.485-1.344-1.094-.335-.608-.5-1.47-.5-2.625v-13.75zm18.906 0v21.188h13.062l.5-4.125h-8.719v-17.063zm8.312 0v4.125h5.969v17.063h4.844V122.28h4.187v9.156c0 1.658.216 3.024.594 4.094.378 1.07.912 1.933 1.625 2.563.713.63 1.597 1.06 2.625 1.312 1.049.252 2.2.375 3.5.375 1.322 0 2.503-.123 3.531-.375 1.028-.251 1.912-.683 2.625-1.312.713-.63 1.248-1.493 1.625-2.563.378-1.07.563-2.436.563-4.094v-13.28h-4.844v13.75c0 .796-.103 1.495-.313 2.124-.21.609-.559 1.05-1.062 1.344-.503.294-1.233.438-2.156.438-.546 0-1.08-.062-1.625-.188-.525-.126-.956-.485-1.313-1.094-.335-.608-.5-1.47-.5-2.625v-13.75H92.22zm33.906 0v21.188h4.813v-17.219h2.719c1.133 0 1.934.247 2.375.688.461.42.687 1.035.687 1.874 0 1.05-.298 1.768-.906 2.188-.587.42-1.481.656-2.656.656l-.781 3.281 5.5 8.532h5.5l-6.126-9.063c.546-.126 1.152-.362 1.844-.719.713-.377 1.33-.983 1.813-1.843.482-.86.718-1.929.719-3.188 0-1.95-.607-3.492-1.782-4.625-1.154-1.154-2.962-1.75-5.437-1.75z" style="text-align:start;line-height:125%;-inkscape-font-specification:'LHFJNT+SRGSSRType-Bold Bold'" font-size="31.467" font-weight="700" letter-spacing="-2.36" word-spacing="0" fill="#fff" font-family="LHFJNT+SRGSSRType-Bold"/>
</svg>
