<?xml version="1.0" encoding="UTF-8" standalone="no"?>
<!-- Created with Inkscape (http://www.inkscape.org/) -->

<svg
   xmlns:dc="http://purl.org/dc/elements/1.1/"
   xmlns:cc="http://creativecommons.org/ns#"
   xmlns:rdf="http://www.w3.org/1999/02/22-rdf-syntax-ns#"
   xmlns:svg="http://www.w3.org/2000/svg"
   xmlns="http://www.w3.org/2000/svg"
   version="1.1"
   width="155.03125"
   height="190.71875"
   id="svg2">
  <metadata
     id="metadata8">
    <rdf:RDF>
      <cc:Work
         rdf:about="">
        <dc:format>image/svg+xml</dc:format>
        <dc:type
           rdf:resource="http://purl.org/dc/dcmitype/StillImage" />
        <dc:title></dc:title>
      </cc:Work>
    </rdf:RDF>
  </metadata>
  <defs
     id="defs6">
    <linearGradient
       id="linearGradient3833">
      <stop
         id="stop3835"
         style="stop-color:#ffdf00;stop-opacity:1"
         offset="0" />
      <stop
         id="stop3837"
         style="stop-color:#ff6600;stop-opacity:1"
         offset="1" />
    </linearGradient>
  </defs>
  <path
     d="m 1,1 0,153.03175 153.031,0 L 154.031,1 z m 95.25,162.375 c -1.70263,3e-5 -3.44103,0.29914 -5.21875,0.875 -1.7527,0.57591 -3.19199,1.87195 -4.34375,3.875 -1.15177,2.0031 -1.71875,4.80073 -1.71875,8.40625 0,2.50386 0.24923,4.60368 0.75,6.28125 0.5258,1.67758 1.2735,3.00468 2.25,4.03125 0.97649,1.02658 2.15413,1.76806 3.53125,2.21875 1.40214,0.42565 2.97226,0.65625 4.75,0.65625 1.80275,0 3.41033,-0.2306 4.8125,-0.65625 1.40213,-0.45069 2.57977,-1.19217 3.53125,-2.21875 0.97648,-1.02657 1.71796,-2.35367 2.21875,-4.03125 0.50074,-1.67757 0.74998,-3.77739 0.75,-6.28125 -2e-5,-2.47879 -0.32399,-4.77175 -1,-6.875 -0.65102,-2.10321 -1.83487,-3.6609 -3.5625,-4.6875 -1.72767,-1.05159 -3.99579,-1.59372 -6.75,-1.59375 z m 19.3125,0 0,26.34375 38.46875,0 0,-26.34375 z M 1,163.90625 l 0,25.28125 5.6875,0 0,-20.5625 3.28125,0 c 1.352064,2e-5 2.286678,0.28671 2.8125,0.8125 0.550831,0.50079 0.812485,1.24848 0.8125,2.25 -1.5e-5,1.25194 -0.3364,2.12425 -1.0625,2.625 -0.70109,0.50078 -1.754109,0.75001 -3.15625,0.75 L 8.4375,179 15,189.1875 l 6.5625,0 L 14.25,178.375 c 0.650983,-0.15022 1.392463,-0.44933 2.21875,-0.875 0.851289,-0.45068 1.549096,-1.19216 2.125,-2.21875 0.575864,-1.02656 0.874979,-2.27893 0.875,-3.78125 -2.1e-5,-2.32856 -0.691617,-4.17915 -2.09375,-5.53125 -1.377133,-1.37709 -3.545477,-2.06247 -6.5,-2.0625 z m 30.40625,0 -9.0625,25.28125 5.59375,0 2.125,-6.125 7.90625,0 2.125,6.125 5.8125,0 -9.03125,-25.28125 z m 17.625,0 0,25.28125 8.71875,0 c 1.777717,0 3.397716,-0.19313 4.875,-0.59375 1.477251,-0.40061 2.767077,-1.07979 3.84375,-2.03125 1.076633,-0.9765 1.892843,-2.27875 2.46875,-3.90625 0.6009,-1.62749 0.90623,-3.67122 0.90625,-6.125 -2e-5,-2.47879 -0.30535,-4.52252 -0.90625,-6.125 -0.575907,-1.62748 -1.392117,-2.92352 -2.46875,-3.875 -1.076673,-0.97648 -2.366499,-1.65565 -3.84375,-2.03125 -1.477284,-0.40059 -3.097283,-0.59372 -4.875,-0.59375 z m 25.46875,0 0,25.28125 5.78125,0 0,-25.28125 z m 21.75,4.21875 c 0.92641,2e-5 1.82997,0.18694 2.65625,0.5625 0.85129,0.35056 1.48058,1.11688 1.90625,2.34375 0.45067,1.2269 0.68748,3.07128 0.6875,5.5 -2e-5,1.65255 -0.12463,3.14793 -0.375,4.5 -0.2504,1.32705 -0.78633,2.31776 -1.5625,2.96875 -0.75117,0.651 -1.86028,0.96875 -3.3125,0.96875 -0.92644,0 -1.69897,-0.12461 -2.375,-0.375 -0.65101,-0.27542 -1.19936,-0.72399 -1.625,-1.375 -0.40062,-0.65099 -0.70595,-1.51709 -0.90625,-2.59375 -0.20032,-1.07664 -0.31251,-2.4412 -0.3125,-4.09375 -1e-5,-1.65252 0.1184,-3.13548 0.34375,-4.4375 0.25038,-1.32702 0.74884,-2.31773 1.5,-2.96875 0.77618,-0.67602 1.89772,-0.99998 3.375,-1 z m -41.4375,0.5 2.90625,0 c 0.926411,2e-5 1.861025,0.1621 2.8125,0.4375 0.951446,0.27544 1.711561,0.97325 2.3125,2.125 0.600906,1.12675 0.906233,2.91503 0.90625,5.34375 -1.7e-5,1.70263 -0.18694,3.19801 -0.5625,4.5 -0.375593,1.27697 -0.99867,2.15549 -1.875,2.65625 -0.87636,0.50077 -2.066417,0.75 -3.59375,0.75 l -2.90625,0 z m -20.75,1.59375 2.53125,8.21875 -5.125,0 z"
     id="text2987"
     style="font-size:37.55768967px;font-style:normal;font-variant:normal;font-weight:bold;font-stretch:normal;text-align:start;line-height:125%;letter-spacing:0px;word-spacing:0px;writing-mode:lr-tb;text-anchor:start;fill:#cf007f;fill-opacity:1;stroke:none;font-family:'LHFJNT+SRGSSRType-Bold';-inkscape-font-specification:'LHFJNT+SRGSSRType-Bold Bold'" />
  <path
     d="m 124.22736,170.17434 c -3.20139,0 -4.75153,1.39383 -4.75153,3.60479 0,1.99903 1.08203,3.18661 2.96285,3.67063 l 1.43753,0.36762 c 1.18416,0.30915 1.68991,0.65711 1.68991,1.39363 0,1.08764 -0.7389,1.2839 -2.5239,1.2839 -0.81416,0 -2.23122,-0.11925 -2.71594,-0.15912 -0.505,-0.0371 -0.64182,0.0247 -0.71876,0.44992 l -0.23045,1.49239 c -0.0399,0.29237 0.0979,0.40666 0.35116,0.44443 0.56165,0.0769 1.97658,0.17557 3.3524,0.17557 3.08597,0 5.3386,-1.00858 5.3386,-3.87913 0,-1.68917 -0.74233,-2.95069 -3.30302,-3.61028 l -1.43204,-0.36761 c -0.96874,-0.2497 -1.41558,-0.56217 -1.41558,-1.27841 0,-1.01001 0.9298,-1.2016 1.8216,-1.2016 1.20445,0 2.42325,0.0994 2.90797,0.13717 0.50571,0.0378 0.64113,-0.0239 0.71877,-0.44991 l 0.23593,-1.45399 c 0.0385,-0.29027 -0.10005,-0.40596 -0.35115,-0.44443 -0.56376,-0.0783 -1.80339,-0.17557 -3.37435,-0.17557 z m 6.35365,0.13168 c -0.3889,0 -0.50478,0.13783 -0.50478,0.52673 l 0,11.42889 c 0,0.3861 0.11588,0.52124 0.50478,0.52124 l 1.78319,0 c 0.3882,0 0.50478,-0.13514 0.50478,-0.52124 l 0,-9.6457 1.84355,0 c 1.16389,0 1.72284,0.4267 1.72284,1.51434 0,0.98902 -0.44191,1.29935 -0.88885,1.4924 -0.56166,0.23361 -0.75859,-0.0178 -0.93275,0.71876 l -0.19204,0.81753 c -0.0588,0.23221 -0.0823,0.34414 -0.0823,0.42248 0,0.19305 0.0611,0.34867 0.19752,0.58159 l 2.30992,4.15347 c 0.19445,0.32944 0.34691,0.46637 0.81204,0.46637 l 2.11789,0 c 0.27068,0 0.60205,-0.17509 0.29079,-0.65841 l -2.83664,-4.69665 c 0.95125,-0.60153 2.01912,-1.45373 2.01912,-3.33594 0,-2.425 -1.35675,-3.78586 -4.3455,-3.78586 l -4.32356,0 z m 11.76358,0 c -0.38819,0 -0.50478,0.13783 -0.50478,0.52673 l 0,11.42889 c 0,0.3868 0.11659,0.52124 0.50478,0.52124 l 1.78868,0 c 0.3868,0 0.4993,-0.13444 0.4993,-0.52124 l 0,-4.50462 4.61984,0 c 0.38749,0 0.50478,-0.13444 0.50478,-0.52124 l 0,-1.36071 c 0,-0.3882 -0.11729,-0.52124 -0.50478,-0.52124 l -4.61984,0 0,-2.63913 5.08621,0 c 0.3882,0 0.50478,-0.13853 0.50478,-0.52673 l 0,-1.35522 c 0,-0.3889 -0.11658,-0.52673 -0.50478,-0.52673 l -7.37419,0 z"
     id="path3057"
     style="fill:#ffffff;fill-opacity:1;fill-rule:nonzero;stroke:none" />
  <path
     d="M 41.9375,53.84375 73.13013,85.03638 30.5,113.09375 l -0.469,5.062 0,21.188 14.688,14.688 109.312,0 0,-82.64138 L 111.64063,29 56.75,32.59375 z"
     id="path3929"
     style="fill:#a21455;fill-opacity:1;stroke:none" />
  <path
     d="m 76.25,16.34375 c -12.42171,-0.143679 -23.47798,4.221706 -34.25,9.5 l 0,28 c 9.416,-7.792663 19.06253,-13.002379 32,-13.5 12.09853,-0.465353 16.93931,5.251507 17.75,14 1.11609,12.044129 -11.0375,21.15922 -15.5,24.5 l -45.75,34.25 40.5,0 27,-19.75 c 11.6917,-8.55226 23.11508,-18.45536 23.5,-39.5 0.25981,-14.204516 -9.13534,-37.08227 -45.25,-37.5 z m -46.219,101.8125 0,21.1875 4.75025,0 0,-21.1875 z m 11.969,0 -5.25,8.375 -0.53125,2.4375 6.34375,10.375 5.53125,0 -7,-11.5 6.15625,-9.6875 z m 6.1875,0 0,13.28125 c -1e-5,1.65728 0.18489,3.02386 0.5625,4.09375 0.3776,1.06988 0.94299,1.93316 1.65625,2.5625 0.71326,0.62935 1.56581,1.06076 2.59375,1.3125 1.0489,0.25173 2.23059,0.375 3.53125,0.375 1.32161,0 2.50331,-0.12327 3.53125,-0.375 1.02791,-0.25174 1.88048,-0.68315 2.59375,-1.3125 0.71324,-0.62934 1.27862,-1.49262 1.65625,-2.5625 0.37759,-1.06989 0.56248,-2.43647 0.5625,-4.09375 l 0,-13.28125 -4.84375,0 0,13.75 c -1e-5,0.79718 -0.10273,1.49566 -0.3125,2.125 -0.2098,0.60837 -0.59028,1.05006 -1.09375,1.34375 -0.50349,0.2937 -1.20197,0.4375 -2.125,0.4375 -0.54544,0 -1.07957,-0.0616 -1.625,-0.1875 -0.52446,-0.12587 -0.98713,-0.48538 -1.34375,-1.09375 -0.33566,-0.60836 -0.5,-1.47119 -0.5,-2.625 l 0,-13.75 z m 18.90625,0 0,21.1875 13.0625,0 0.5,-4.125 -8.71875,0 0,-17.0625 z m 8.3125,0 0,4.125 5.96875,0 0,17.0625 4.84375,0 0,-17.0625 4.1875,0 0,9.15625 c 0,1.65728 0.21614,3.02386 0.59375,4.09375 0.3776,1.06988 0.91174,1.93316 1.625,2.5625 0.71325,0.62935 1.59706,1.06076 2.625,1.3125 1.0489,0.25173 2.19934,0.375 3.5,0.375 1.32161,0 2.50331,-0.12327 3.53125,-0.375 1.02792,-0.25174 1.91173,-0.68315 2.625,-1.3125 0.71324,-0.62934 1.24738,-1.49262 1.625,-2.5625 0.37759,-1.06989 0.56248,-2.43647 0.5625,-4.09375 l 0,-13.28125 -4.84375,0 0,13.75 c -1e-5,0.79718 -0.10273,1.49566 -0.3125,2.125 -0.20979,0.60837 -0.55904,1.05006 -1.0625,1.34375 -0.50349,0.2937 -1.23322,0.4375 -2.15625,0.4375 -0.54544,0 -1.07958,-0.0616 -1.625,-0.1875 -0.52447,-0.12587 -0.95588,-0.48538 -1.3125,-1.09375 -0.33566,-0.60836 -0.50001,-1.47119 -0.5,-2.625 l 0,-13.75 -3.0625,0 z m 33.90625,0 0,21.1875 4.8125,0 0,-17.21875 2.71875,0 c 1.13281,1e-5 1.93444,0.24698 2.375,0.6875 0.4615,0.41958 0.68748,1.03589 0.6875,1.875 -2e-5,1.04893 -0.2979,1.76795 -0.90625,2.1875 -0.5874,0.41958 -1.48149,0.65626 -2.65625,0.65625 l -0.78125,3.28125 5.5,8.53125 5.5,0 -6.125,-9.0625 c 0.54542,-0.12585 1.15145,-0.36211 1.84375,-0.71875 0.71324,-0.3776 1.32999,-0.98363 1.8125,-1.84375 0.48248,-0.86009 0.71873,-1.9288 0.71875,-3.1875 -2e-5,-1.95095 -0.60649,-3.49216 -1.78125,-4.625 -1.15381,-1.15378 -2.96209,-1.74997 -5.4375,-1.75 z"
     id="path3897"
     style="font-size:31.46724892px;font-style:normal;font-variant:normal;font-weight:bold;font-stretch:normal;text-align:start;line-height:125%;letter-spacing:-2.3599999px;word-spacing:0px;writing-mode:lr-tb;text-anchor:start;fill:#ffffff;fill-opacity:1;stroke:none;font-family:'LHFJNT+SRGSSRType-Bold';-inkscape-font-specification:'LHFJNT+SRGSSRType-Bold Bold'" />
</svg>
