<svg width="800" height="800" version="1.1" viewBox="7.32 7.2 800 800" xml:space="preserve" xmlns="http://www.w3.org/2000/svg">
	<style type="text/css">
		.st0{fill:#007796;}
		.st1{fill:#FFFFFF;}
		.st2{fill:#003C5A;}
	</style>
	<style class="darkreader darkreader--sync" media="screen"/>
	
<g transform="matrix(2.8219 0 0 2.8219 7.32 7.2)">
		<path class="st0" d="m0 21.1 23 262.4 260.5-46-41.9-237.5z" fill="#007796"/>
		<path class="st1" d="m168.3 117.2s4-0.3 7.6-0.3c11.4 0 16.4 5.7 16.4 14 0 9.2-6.5 14.3-17 14.3-3.5 0-7-0.2-7-0.2zm57.5 87.4-21.1-34c-3.3-5.6-7.8-11.8-7.8-11.8 12.4-4.1 21.5-13.8 21.5-30 0-22.9-15.3-32.3-41-32.3-18.6 0-33.9 0.8-33.9 0.8v107.3h24.8v-41.2h4.1l23.4 41.2zm-104.7-106.8c-7.3-1.4-14.6-2.4-21.8-2.4-25.3 0-40.5 13.8-40.5 32.6 0 35 44 29.6 44 46.9 0 6.8-5.2 10.2-14 10.2-8.4 0-18.6-2.5-25.8-5.6l-2.6 23.5c7.6 1.9 17.6 3.5 27.3 3.5 26.2 0 41.3-14.5 41.3-34 0-35.1-44.2-29.6-44.2-46.9 0-6.4 4.8-9.7 13.5-9.7 6.5 0 13.7 1.4 20.3 3.7z"/>
	</g></svg>
