<svg width="1158.2" height="300" enable-background="new 265.281 325.273 295.121 121.535" version="1.1" viewBox="265.28 325.27 1158.2 300" xml:space="preserve" xmlns="http://www.w3.org/2000/svg"><g transform="translate(216.67 89.23)" fill="#616265"><g transform="matrix(2.4684 0 0 2.4684 -606.2 -566.85)" opacity=".996"><path d="m307.28 424.97c15.51 0 15.2-5.955 15.2-8.189 0-3.784-1.676-5.459-6.515-7.383-4.839-1.861-11.663-3.783-20.349-5.645-3.536-0.807-7.011-1.8-10.423-2.916-3.35-1.117-6.39-2.606-8.995-4.467-2.606-1.799-4.777-4.095-6.328-6.886-1.613-2.792-2.42-6.142-2.42-10.175 0-5.894 1.117-10.732 3.351-14.517 2.233-3.784 5.211-6.762 8.871-8.934s7.755-3.723 12.346-4.591c4.591-0.869 9.306-1.303 14.083-1.303 4.839 0 9.492 0.497 14.021 1.427 4.528 0.931 8.561 2.543 12.098 4.777 3.536 2.233 6.452 5.211 8.81 8.934 2.357 3.723 3.722 8.438 4.219 14.083h-23.203c-0.372-4.901-5.025-8.934-16.688-8.934-12.408 0-14.331 4.777-14.331 7.383 0 7.507 14.207 9.864 17.495 10.547 3.288 0.744 6.7 1.489 10.112 2.295 3.536 0.868 7.011 1.861 10.423 3.04 3.35 1.179 6.39 2.792 8.995 4.715 2.605 1.985 4.777 4.405 6.328 7.258 1.613 2.916 2.42 6.452 2.42 10.732 0 6.019-0.372 9.493-2.729 13.587-2.358 4.095-5.397 7.383-9.183 9.864-3.784 2.482-8.064 4.219-12.966 5.212-4.901 0.992-9.864 1.551-14.89 1.551-5.149 0-10.174-0.496-15.138-1.613-4.9-1.055-9.306-2.854-13.152-5.335s-6.948-5.77-9.43-9.864c-2.481-4.033-3.847-9.183-4.032-15.324h23.202c0.063 2.668 2.358 10.671 18.798 10.671z"/><path d="m398.79 374.53v-23.513h-20.907l0.062-25.746-25.002 25.746v51.865c0 24.134 12.346 42.993 41.442 43.056v-23.886h-1.799c-8.003 0-14.579-6.266-14.642-14.207v-33.253h20.846z"/><path d="m497.8 398.17c0-26.863-21.775-48.701-48.701-48.701-26.863 0-48.639 21.776-48.639 48.701 0 28.166 20.349 48.639 48.639 48.639 10.733 0 19.295-3.102 24.692-10.36v8.872h24.009v-45.786h-0.062c0-0.372 0.062-0.807 0.062-1.365zm-48.763 24.878c-13.4 0-24.319-11.167-24.319-24.878 0-13.773 10.856-24.878 24.319-24.878 13.462 0 24.319 11.167 24.319 24.878s-10.918 24.878-24.319 24.878z"/><path d="m560.34 349.9h-0.187c-6.266 0-19.977 2.606-28.104 10.733v-9.74h-24.754v94.486h24.754v-46.344c0-9.244 3.536-15.634 8.251-19.418 4.529-3.661 10.547-4.777 14.703-4.777 2.792 0 4.901 0.311 5.397 0.435v-25.375z"/></g><g transform="scale(1.0129 .9873)" opacity=".996" aria-label="HD"><path d="m790.42 300.06v241.64h26.899v-113.85h124.8v113.85h27.064v-241.64h-27.064v101.24h-124.8v-101.24z" stroke-width="1.7759"/><path d="m992.48 300.57v24.413h29.791l46.725 1.4e-4c26.796 0.11148 49.239 9.4203 67.326 27.925 18.423 18.393 27.466 41.135 27.131 68.223 0.335 26.754-8.7084 49.383-27.131 67.888-18.088 18.282-40.53 27.589-67.326 27.923l-46.725-3.3e-4h-29.791v24.246h78.023c16.525 0 32.044-3.1762 46.56-9.5303 14.961-6.354 27.8-14.825 38.518-25.415 11.165-11.036 19.763-23.801 25.793-38.292 6.4756-15.16 9.6584-30.766 9.5468-46.818 0.335-21.849-5.0804-42.026-16.246-60.53-10.718-18.505-25.346-33.109-43.88-43.81-18.311-11.147-38.408-16.554-60.291-16.22z" stroke="#616265" stroke-width="1.008"/></g></g></svg>
