<svg fill="none" version="1.1" viewBox="0 0 800 460.57" xmlns="http://www.w3.org/2000/svg">
	<g transform="scale(1.0417)" clip-path="url(#b)">
		<path d="m652.35 79.015h30.03c18.103 0 29.817 9.371 29.817 25.77 0 17.678-11.501 29.391-29.817 29.391h-30.03zm51.967 90.942c31.094-4.047 56.865-30.882 56.865-64.959 0-44.299-30.03-68.579-78.802-68.579h-78.376v222.78h48.346v-89.238l59.847 89.238h55.8z" fill="#fff"/>
		<path d="m167.4 36.632v43.874h48.985v178.69h48.985v-178.69h48.985v-43.874z" fill="#fff"/>
		<path d="m76.672 118.42c-14.482-6.602-20.02-13.844-20.02-23.215 0-10.862 9.1581-20.02 23.641-19.594 12.779 0.426 22.576 7.2413 29.391 23.641l41.744-18.529c-11.501-29.604-35.142-47.068-73.265-47.068-40.253 0-69.857 26.409-69.857 61.977 0 24.28 11.927 43.448 40.253 57.717l31.095 15.548c17.464 8.732 25.77 15.334 25.77 27.9 0 13.844-11.288 23.641-25.77 23.641-15.547 0-29.817-8.732-36.206-28.326l-43.448 12.778c10.223 36.632 40.253 57.93 79.441 57.93 42.383 0 75.181-27.261 75.181-66.449 0-30.03-16.399-50.05-47.494-64.106z" fill="#fff"/>
		<path d="m262.82 351.84h19.807v71.774h37.059v18.316h-56.653v-90.09z" fill="#fff"/>
		<path d="m336.72 351.84h19.807v90.303h-19.807z" fill="#fff"/>
		<path d="m381.87 351.84h60.486v18.316h-40.679v18.317h37.697v18.316h-37.697v35.141h-19.807z" fill="#fff"/>
		<path d="m463.65 351.84h61.338v18.316h-41.318v16.826h39.188v18.316h-39.188v18.316h43.66v18.316h-63.68z" fill="#fff"/>
		<path d="m591.44 107.34h-110.96c-1.491 0-2.13-0.639-2.555-2.13l-34.716-105.21-34.077 105.21c-0.425 1.491-1.064 2.13-2.555 2.13h-110.96l89.664 65.384c1.065 0.639 2.13 0.639 3.195 0 24.705-15.334 46.855-26.196 92.858-37.697-42.17 32.586-83.487 69.644-117.56 112.45-1.065 1.491-1.491 1.917-2.13 4.046l-9.797 30.03 89.664-64.958c1.491-1.065 2.13-1.065 3.621 0l89.664 64.958-34.077-105.85c-0.426-1.491 0-2.13 1.065-2.982z" fill="url(#a)"/>
	</g>
	<defs>
		<linearGradient id="a" x1="335" x2="561.42" y1="261.45" y2="71.453" gradientUnits="userSpaceOnUse">
			<stop stop-color="#FF028B" offset=".5004"/>
			<stop stop-color="#DA0B8D" offset=".5969"/>
			<stop stop-color="#A41990" offset=".7521"/>
			<stop stop-color="#822192" offset=".8683"/>
			<stop stop-color="#752493" offset=".9313"/>
		</linearGradient>
		<clipPath id="b">
			<rect width="768" height="442.14" fill="#fff"/>
		</clipPath>
	</defs>
</svg>
