<svg version="1.1" viewBox="0 0 800 462.66" xml:space="preserve" xmlns="http://www.w3.org/2000/svg" xmlns:xlink="http://www.w3.org/1999/xlink">
 <defs>
  <linearGradient id="k" x1="768.09" x2="878.59" y1="180.24" y2="467.4" gradientUnits="userSpaceOnUse">
   <stop stop-color="#fffce5" offset="0"/>
   <stop stop-color="#cfa762" offset=".31365"/>
   <stop stop-color="#cf984f" offset=".4193"/>
   <stop stop-color="#ca934d" offset=".47884"/>
   <stop stop-color="#bf8347" offset=".59801"/>
   <stop stop-color="#b0763f" offset=".65162"/>
   <stop stop-color="#966331" offset=".72558"/>
   <stop stop-color="#754c2c" offset=".85947"/>
   <stop stop-color="#633e1b" offset=".91173"/>
   <stop stop-color="#623c14" offset=".95351"/>
   <stop stop-color="#5c370d" offset="1"/>
  </linearGradient>
  <linearGradient id="l" x1="717.94" x2="912.83" y1="238.79" y2="474.38" gradientTransform="matrix(-1 0 0 1 1573.7 0)" gradientUnits="userSpaceOnUse">
   <stop stop-color="#d5a25f" offset="0"/>
   <stop stop-color="#ce974d" offset=".31365"/>
   <stop stop-color="#cb914b" offset=".42793"/>
   <stop stop-color="#bf8543" offset=".54548"/>
   <stop stop-color="#a9783c" offset=".63615"/>
   <stop stop-color="#825630" offset=".75568"/>
   <stop stop-color="#6f491f" offset=".85947"/>
   <stop stop-color="#5f3c0b" offset="1"/>
  </linearGradient>
  <linearGradient id="m" x1="759.12" x2="829.67" y1="173.42" y2="470.89" gradientUnits="userSpaceOnUse">
   <stop stop-color="#fff2b5" offset="0"/>
   <stop stop-color="#e1c482" offset=".053543"/>
   <stop stop-color="#cfa268" offset=".31365"/>
   <stop stop-color="#cf984f" offset=".4193"/>
   <stop stop-color="#ca934d" offset=".47884"/>
   <stop stop-color="#bf8347" offset=".59801"/>
   <stop stop-color="#b0763f" offset=".65162"/>
   <stop stop-color="#966331" offset=".72558"/>
   <stop stop-color="#754c2c" offset=".85947"/>
   <stop stop-color="#5c370d" offset="1"/>
  </linearGradient>
  <linearGradient id="p" x1="834.32" x2="1021.4" y1="235.17" y2="189.35" gradientUnits="userSpaceOnUse">
   <stop stop-color="#ffe7ab" offset="0"/>
   <stop stop-color="#e9d3a7" offset="1"/>
  </linearGradient>
  <linearGradient id="q" x1="838.65" x2="837.78" y1="158.1" y2="197.47" gradientUnits="userSpaceOnUse">
   <stop stop-color="#f9d880" offset="0"/>
   <stop stop-color="#fcdf94" offset=".43641"/>
   <stop stop-color="#fde5ab" offset="1"/>
  </linearGradient>
  <linearGradient id="r" x1="657.9" x2="906.56" y1="366.59" y2="369.45" gradientUnits="userSpaceOnUse">
   <stop stop-color="#fff" stop-opacity=".16318" offset="0"/>
   <stop stop-color="#fff" stop-opacity=".037657" offset=".28217"/>
   <stop stop-color="#fff" stop-opacity=".19665" offset=".5"/>
   <stop stop-color="#fff" stop-opacity=".27615" offset=".75"/>
   <stop stop-color="#fff" stop-opacity=".30962" offset="1"/>
  </linearGradient>
  <linearGradient id="s" x1="863.5" x2="936.45" y1="304.17" y2="474.72" gradientUnits="userSpaceOnUse">
   <stop stop-color="#fff" stop-opacity="0" offset="0"/>
   <stop stop-color="#fff" stop-opacity=".12941" offset=".59194"/>
   <stop stop-color="#fff" stop-opacity=".2" offset=".66746"/>
   <stop stop-color="#fff" stop-opacity=".30962" offset="1"/>
  </linearGradient>
  <linearGradient id="t" x1="863.5" x2="966.52" y1="304.17" y2="473.29" gradientTransform="matrix(-1 0 0 1 1603.1 0)" gradientUnits="userSpaceOnUse">
   <stop stop-color="#fff" stop-opacity="0" offset="0"/>
   <stop stop-color="#fff" stop-opacity=".058577" offset=".88191"/>
   <stop stop-color="#fff" stop-opacity=".16" offset="1"/>
  </linearGradient>
  <radialGradient id="o" cx="832.3" cy="308.3" r="261.2" gradientTransform="matrix(.55963 -.43403 .81713 1.0536 -4.8873 276.12)" gradientUnits="userSpaceOnUse">
   <stop stop-color="#fffbe0" offset="0"/>
   <stop stop-color="#fff5d1" offset=".3217"/>
   <stop stop-color="#ffe7a8" offset=".59801"/>
   <stop stop-color="#f3c958" offset="1"/>
  </radialGradient>
  <radialGradient id="n" cx="600.8" cy="245.9" r="261.2" gradientTransform="matrix(-.11932 .36475 -.39198 -.12822 996.09 68.831)" gradientUnits="userSpaceOnUse">
   <stop stop-color="#d1a552" offset="0"/>
   <stop stop-color="#cc9a4e" stop-opacity=".49804" offset=".71356"/>
   <stop stop-color="#c78e4b" stop-opacity="0" offset="1"/>
  </radialGradient>
 </defs>
 <path d="m679.5 82.33h31.29c18.862 0 31.068 9.7642 31.068 26.851 0 18.42-11.983 30.625-31.068 30.625h-31.29zm54.147 94.757c32.399-4.2167 59.251-32.178 59.251-67.684 0-46.158-31.29-71.456-81.886-71.456h-81.665v231.9h50.153v-92.76l62.357 92.982h58.142z" fill="#241c32" stroke-width=".58984"/>
 <path d="m175.84 38.364v45.714h51.041v185.99h51.041v-185.99h51.04v-45.714z" fill="#241c32" stroke-width=".58984"/>
 <path d="m80.111 123.38c-15.09-6.8792-20.86-14.425-20.86-24.189 0-11.318 9.5423-20.86 24.633-20.416 13.315 0.44386 23.523 7.5451 30.624 24.633l43.496-19.307c-12.205-30.846-36.839-49.043-76.339-49.043-41.942 0-73.01 27.517-73.01 64.577 0 25.298 12.427 45.27 41.942 60.139l32.399 16.2c18.197 9.0979 26.852 15.755 26.852 29.071 0 14.424-11.762 24.632-26.852 24.632-16.2 0-31.068-9.099-37.725-29.515l-45.27 13.315c10.652 38.169 41.942 60.36 82.774 60.36 44.16 0 78.114-28.405 78.114-69.236 0-31.291-17.088-52.15-49.486-66.797z" fill="#241c32" stroke-width=".58984"/>
 <g transform="scale(.58984)">
  <path d="m1048 189.35h-195.8c-2.6 0-3.8-1.299-4.5-3.797l-61.5-185.55-60.2 185.55c-0.6 2.5979-1.9 3.797-4.5 3.797h-195.9l158.2 115.21c1.9 1.299 3.8 1.299 5.8 0 43.5-26.878 82.6-46.163 163.9-66.647-74.3 57.554-147.5 122.9-207.7 198.44-1.9 2.5979-2.6 3.1974-3.8 6.9944l-17.1 53.257 158.1-114.41c2.2624-1.6519 3.9088-1.646 6.3 0.1l158.1 114.41-60.1-187.05c-0.6-2.5979 0.2-3.8974 2.1-5.1963z" fill="url(#k)"/>
  <path d="m772.78 347.27 80.772-109.36c-74.3 57.554-147.5 122.9-207.7 198.44-1.9 2.5979-2.6 3.1974-3.8 6.9944l-17.1 53.257 131.55-95.198 6.145-14.491 3.3397-13.243z" fill="url(#l)"/>
  <path d="m1048 189.35h-97.624l-96.876 48.561c-32.814 25.418-65.414 52.357-96.774 81.022l56.388-26.343 74.186 17.064c-0.6-2.5979 0.2-3.8974 2.1-5.1963z" fill="url(#m)"/>
  <path d="m1048 189.35h-195.8c-2.6 0-3.8-1.299-4.5-3.797l-61.5-185.55-60.2 185.55c-0.6 2.5979-1.9 3.797-4.5 3.797h-195.9l158.2 115.21c1.9 1.299 3.8 1.299 5.8 0 43.5-26.878 82.6-46.163 163.9-66.647-74.3 57.554-147.5 122.9-207.7 198.44-1.9 2.5979-2.6 3.1974-3.8 6.9944l-17.1 53.257 158.1-114.41c2.2624-1.6519 3.9088-1.646 6.3 0.1l158.1 114.41-60.1-187.05c-0.6-2.5979 0.2-3.8974 2.1-5.1963z" fill="url(#n)"/>
  <path d="m1048 189.35h-195.8c-2.6 0-3.8-1.299-4.5-3.797l-61.5-185.55-60.2 185.55c-0.6 2.5979-1.9 3.797-4.5 3.797h-195.9l158.2 115.21c1.9 1.299 3.8 1.299 5.8 0 43.5-26.878 82.6-46.163 163.9-66.647 49.028-16.187 116.73-30.996 194.5-48.561z" fill="url(#o)"/>
  <path d="m1048 189.35h-195.8c-2.6 0-3.8-1.299-4.5-3.797l-27.939 16.029 18.323 40.333s-18.168 4.4573 15.416-4.0041c49.028-16.187 116.73-30.996 194.5-48.561z" fill="url(#p)"/>
  <path d="m852.25 189.35c-2.6 0-3.8-1.299-4.5-3.797l-14.969-45.161-8.2814 33.207-0.85284 25.782 21.104 6.2395z" fill="url(#q)"/>
  <path d="m940.41 474.79-7.9219-0.13672 0.82031 2.5527-139.54-100.97-6e-3 -4e-3c-1.854-1.3529-4.3888-2.72-7.5156-2.7617-3.129-0.0417-5.7887 1.3268-7.623 2.666l-139.54 100.98 0.39258-1.2891-7.8125-0.13476-6.7129 20.908 158.1-114.41c2.2624-1.6519 3.9096-1.6445 6.3008 0.10156l158.1 114.41z" fill="url(#r)"/>
  <path d="m978.11 240.11-92.949 58.203c-1.4987 1.0314-3.3907 2.6099-4.5449 5.1953-1.1683 2.617-1.0984 5.5519-0.57226 7.8301l0.0703 0.30859 52.377 163.01 7.9219 0.13672-53.061-165.14c-0.6-2.5979 0.19961-3.8964 2.0996-5.1953z" fill="url(#s)"/>
  <path d="m853.55 237.91c-74.3 57.554-147.5 122.9-207.7 198.44-1.9 2.5979-2.6008 3.1972-3.8008 6.9941l-10.387 32.348 7.8125 0.13476 8.959-29.492 4e-3 -0.0156c1.0158-3.2142 0.60956-1.9656 2.7031-4.8281l-0.1875 0.24805c59.667-74.87 120.59-137.08 202.6-203.83z" fill="url(#t)"/>
 </g>
 <path d="m625.86 388.12q-2.5488-3.2354-6.9755-4.7182-4.2927-1.6177-8.1828-1.6177-2.2806 0-4.6951 0.53923t-4.5609 1.7525q-2.1462 1.0784-3.4877 2.9658-1.3415 1.8873-1.3415 4.5834 0 4.3138 3.2195 6.6055 3.2194 2.2917 8.0486 3.9094 4.9634 1.6177 10.597 3.2354 5.6342 1.6177 10.463 4.5834 4.9633 2.9658 8.1828 7.9536 3.2194 4.9878 3.2194 13.346 0 7.9536-2.9511 13.885-2.9512 5.9315-8.0487 9.8409-4.9633 3.9094-11.671 5.7967-6.5731 1.8873-13.951 1.8873-9.256 0-17.17-2.831-7.9145-2.8309-14.756-9.1669l14.89-16.446q3.2195 4.3138 8.0486 6.7404 4.9634 2.2917 10.195 2.2917 2.5488 0 5.0975-0.53923 2.683-0.67403 4.6951-1.8873 2.1463-1.2133 3.3536-3.1006 1.3414-1.8873 1.3414-4.4486 0-4.3138-3.3536-6.7403-3.2195-2.5613-8.1828-4.3138-4.9633-1.7525-10.731-3.505-5.7683-1.7525-10.732-4.7182-4.9634-2.9658-8.317-7.8188-3.2195-4.853-3.2195-12.807 0-7.684 2.9512-13.481 3.0853-5.7967 8.0487-9.7061 5.0974-3.9094 11.671-5.7967 6.573-2.0221 13.549-2.0221 8.0487 0 15.561 2.2917 7.5121 2.2917 13.549 7.684z" fill="#241c32" stroke-width=".58984"/>
 <path d="m491.55 364.79h64.524v19.412h-43.597v17.795h41.182v19.412h-41.182v19.412h46.012v19.412h-66.938z" fill="#241c32" stroke-width=".58984"/>
 <path d="m447.24 364.79h20.927v95.443h-20.927z" fill="#241c32" stroke-width=".58984"/>
 <path d="m355.64 364.79h36.756q7.2438 0 13.683 1.4829 6.5731 1.3481 11.402 4.7182 4.9634 3.2354 7.7804 8.8972 2.9512 5.5271 2.9512 13.885 0 10.111-5.2316 17.255-5.2316 7.01-15.292 8.8973l24.146 40.307h-25.085l-19.853-38.15h-10.329v38.15h-20.927zm20.927 39.498h12.341q2.817 0 5.9024-0.13481 3.2195-0.26961 5.7682-1.2133 2.5487-1.0784 4.1585-3.2354 1.7439-2.1569 1.7439-6.0663 0-3.6398-1.4756-5.7967-1.4756-2.1569-3.756-3.2354-2.2805-1.2133-5.2316-1.6177-2.9512-0.40442-5.7682-0.40442h-13.683z" fill="#241c32" stroke-width=".58984"/>
 <path d="m268.34 364.79h64.524v19.412h-43.597v17.795h41.182v19.412h-41.182v19.412h46.012v19.412h-66.938z" fill="#241c32" stroke-width=".58984"/>
 <path d="m234.37 388.12q-2.5488-3.2354-6.9755-4.7182-4.2926-1.6177-8.1828-1.6177-2.2805 0-4.6951 0.53923-2.4146 0.53923-4.5609 1.7525-2.1463 1.0784-3.4878 2.9658-1.3414 1.8873-1.3414 4.5834 0 4.3138 3.2195 6.6055t8.0487 3.9094q4.9634 1.6177 10.597 3.2354 5.6341 1.6177 10.463 4.5834 4.9634 2.9658 8.1828 7.9536 3.2195 4.9878 3.2195 13.346 0 7.9536-2.9512 13.885-2.9512 5.9315-8.0487 9.8409-4.9634 3.9094-11.671 5.7967-6.5731 1.8873-13.951 1.8873-9.256 0-17.171-2.831-7.9145-2.8309-14.756-9.1669l14.89-16.446q3.2195 4.3138 8.0487 6.7404 4.9634 2.2917 10.195 2.2917 2.5487 0 5.0975-0.53923 2.6829-0.67403 4.6951-1.8873 2.1463-1.2133 3.3536-3.1006 1.3414-1.8873 1.3414-4.4486 0-4.3138-3.3536-6.7403-3.2195-2.5613-8.1828-4.3138-4.9634-1.7525-10.732-3.505-5.7682-1.7525-10.732-4.7182-4.9634-2.9658-8.317-7.8188-3.2195-4.853-3.2195-12.807 0-7.684 2.9512-13.481 3.0853-5.7967 8.0487-9.7061 5.0975-3.9094 11.671-5.7967 6.5731-2.0221 13.549-2.0221 8.0487 0 15.561 2.2917 7.5121 2.2917 13.549 7.684z" fill="#241c32" stroke-width=".58984"/>
</svg>
