<svg enable-background="new 0 0 780 244" version="1.1" viewBox="0 0 749.04 214.46" xml:space="preserve" xmlns="http://www.w3.org/2000/svg">
<path d="m140.17 113.62s10.738 12.354 14.344 16c3.812 3.854 15.323 14 15.323 14l-77.354 70.833s1.854-20.6 20.354-57.333c5.649-11.219 27.333-43.5 27.333-43.5z" fill="#308aca"/>
<path d="m44.37 113.62-29.245 30 77.354 70.833s-1.854-20.6-20.313-57.333c-5.794-11.532-27.796-43.5-27.796-43.5" fill="#308aca"/>
<path d="m0 66.625 92.479-66.625 92.126 66.625s-17.307 15.552-22.813 21.375c-5.604 5.927-21.625 25.625-21.625 25.625s-21.739 32.391-27.333 43.5c-18.5 36.733-20.354 57.333-20.354 57.333s-1.855-20.6-20.313-57.333c-5.448-10.841-27.417-43.042-27.417-43.042s-15.035-18.934-20.833-25.083c-5.389-5.715-23.917-22.375-23.917-22.375z" fill="#57c0ee"/>
<linearGradient id="a" x1="138.88" x2="161.76" y1="72.773" y2="55.648" gradientTransform="translate(-21.333,-16.875)" gradientUnits="userSpaceOnUse">
	<stop stop-color="#389DD7" offset="0"/>
	<stop stop-color="#57C0EE" offset="1"/>
</linearGradient>
<path d="m92.48 0 92.125 66.625s-17.432 15.707-22.813 21.375c-5.771 6.079-21.625 25.625-21.625 25.625s-17.5-20.125-32.167-54.167c-14.772-34.288-15.52-59.458-15.52-59.458" fill="url(#a)"/>
<g transform="translate(-21.333,-16.875)">
	<path d="m295.81 103.06s0.924 7.295-7 15.938c-6.876 7.5-21.063 6.969-21.063 6.969s-11.125 0.531-19.625-6.344c-8.431-6.819-9-15.875-9-15.875h16.125s0.5 9.5 12.5 9.5c13.375 0 12.932-7.655 12.834-9.416-0.167-3-1.912-4.724-3.25-5.75-2.053-1.573-7.349-2.503-9.848-3.167-4.957-1.318-15.653-3.011-19.486-6.418-3.224-2.866-7.718-9.071-7.583-15.5 0.167-7.917 5.473-14.264 9.5-17 3.766-2.559 9.833-4.763 17.583-4.75 4.838 8e-3 12.88 0.991 17.75 4.917 8.167 6.583 10.25 15.833 10.25 15.833h-15.25s-1.441-3.443-4.083-5.583c-2.656-2.153-6.517-3.003-8.417-2.992-1.835 0.01-6.28 0.387-8.833 2.492-2.601 2.146-2.73 2.125-3.292 6.021-0.309 2.145 0.208 7.479 14.5 9.063 12.147 1.346 17.893 5.902 20.089 8.104 5.632 5.645 5.599 13.958 5.599 13.958z" fill="#474747"/>
	<path d="m740.52 80.657 14.041-28.697h15.812l-36.75 73h-15.75l14.875-29.375-26.916-43.625h16.541z" fill="#474747"/>
	<path d="m664 107.96h20.916l6 17h14.917l-24.958-73h-12.959l-25 73 16.833-28.5h7.324l7.301-22.541 7.575 22.541h-22.2l-16.833 28.5h15z" fill="#474747"/>
	<path d="m579.88 51.96h29s22.188 0.688 23 24c0.524 15.059-12.125 21.25-12.125 21.25l12.125 27.75h-15.125l-10.867-24h-11.927l-0.039 24h-14.042v-59.041h14.083l-1e-3 21.031h12.918s11-0.115 11.063-10.74c0.062-10.5-11.063-10.291-11.063-10.291h-27z" fill="#474747"/>
	<path d="m524.67 50.042c31.521 0 32.333 26.031 32.333 26.031h-14.563s-1.188-12.113-18.188-12.113c-10.25 0-21.563 7.165-21.563 24.291 0 14.58 11.188 24.422 22.376 24.422 16.812 0 18.082-13.007 18.082-13.007h-12.144l-0.063-12.916h37.063l-0.063 12.916h-8.375s-2.625 26.793-34.896 26.793c-18.292 0-36.834-14.126-36.834-38.202 1e-3 -23.674 16.918-38.215 36.835-38.215z" fill="#474747"/>
	<path d="m487.83 88.46" fill="#474747"/>
	<path d="m409.91 124.96v-73h13l35.985 47.016v-47.016h13.984v73h-13.984l-35.985-48.563v48.563z" fill="#474747"/>
	<path d="m374.94 51.96h13.938v73h-13.938z" fill="#474747"/>
	<path d="m338.94 64.96 20.968 0.016v-13.016h-56.031v13.016l21.063-0.01-0.021 59.994h14z" fill="#474747"/>


	<path d="m243.42 149.2h10.251v36.583h17.957v8.576h-28.208z" fill="#058ed0"/>
	<path d="m287.91 149.2v45.159h-10.25v-45.159z" fill="#058ed0"/>
	<path d="m305.46 157.78h-12.127v-8.576h34.707v8.576h-12.328v36.583h-10.252z" fill="#058ed0"/>
	<path d="m360.34 175.27h-16.617v10.721h18.559v8.375h-28.811v-45.159h27.873v8.375h-17.621v9.381h16.617z" fill="#058ed0"/>
	<path d="m388.88 157.78h-12.127v-8.576h34.707v8.576h-12.328v36.583h-10.252z" fill="#058ed0"/>
	<path d="m429.41 194.36-14.473-45.159h11.189l5.494 19.096c1.541 5.36 2.949 10.52 4.021 16.147h0.201c1.139-5.428 2.545-10.787 4.086-15.946l5.762-19.297h10.855l-15.209 45.159z" fill="#058ed0"/>
</g>
</svg>
