<svg xmlns="http://www.w3.org/2000/svg" height="298.17" width="600" viewBox="0 0 158.75 78.89">
    <g stroke-width="1.617">
        <g fill="#424143">
            <path d="M89.237 2.425v9.376H91.5V2.425h3.233V.324h-8.73v2.101zM97.158.323h2.263v11.316h-2.263zM110.254.323v7.436L104.596.323h-2.102v11.478h2.263V4.365l5.496 7.436h2.102V.323zM121.404 7.921h2.101c-.323 1.293-1.293 1.94-2.91 1.94-2.586 0-3.718-1.94-3.718-3.88s1.293-3.88 3.557-3.88c1.293 0 2.425.647 2.586 1.617l.162.323h2.263v-.485C125.122 1.455 123.02 0 120.595 0c-3.718 0-5.82 3.071-5.82 5.981s2.102 5.82 5.82 5.82c2.748 0 4.688-1.617 5.335-4.042h1.132V5.82h-5.658zM154.064 4.85L151.315.323h-2.586l4.203 6.79-2.263 4.688h2.425L158.752.323h-2.425zM129.004.485v11.317h2.263v-3.88h1.778l1.778 3.718h2.425l-1.94-4.203c1.132-.647 1.779-1.94 1.779-3.233 0-2.102-1.617-3.719-3.718-3.719zm2.263 1.94h2.102c.97 0 1.778.809 1.778 1.779-.162.97-.808 1.778-1.778 1.778h-2.102zM142.904.323l-3.88 11.316h2.424l.809-2.586h3.395l.808 2.586h2.425L144.844.484zm.808 3.556l1.132 3.557h-2.264zM81.8 5.173l-2.102-.485c-.808-.162-1.132-.485-1.132-1.132 0-.808.647-1.293 1.779-1.293 1.131 0 1.778.647 2.101 1.293h2.263c-.323-1.94-1.778-3.233-4.364-3.233-2.425 0-4.042 1.455-4.042 3.395 0 1.778 1.293 2.748 2.91 3.072l1.94.485c.97.161 1.293.646 1.293 1.293 0 .97-.808 1.455-1.94 1.455s-1.94-.485-2.263-1.455h-2.425c.324 2.101 2.102 3.395 4.688 3.395 2.425 0 4.204-1.294 4.204-3.557 0-1.778-1.132-2.748-2.91-3.233"/>
        </g>
        <g fill="#e21e27">
            <path d="M15.52 24.087l12.448-2.263v35.242H31.2v.97H18.753v-3.233c-.647.808-1.455 1.778-2.587 2.587-1.131.808-2.425 1.293-3.88 1.293-2.101 0-3.88-.323-5.334-1.132-1.456-.808-2.749-1.778-3.88-3.072-.97-1.293-1.779-2.748-2.264-4.364C.323 48.498 0 46.72 0 45.103c0-1.778.323-3.395.808-5.011.485-1.617 1.293-3.072 2.263-4.365.97-1.293 2.264-2.263 3.88-3.071 1.455-.809 3.395-1.132 5.335-1.132 1.778 0 3.072.323 4.203.97 1.132.647 1.779 1.455 2.263 2.263V24.734l-3.233.647zm-5.012 23.926c0 1.94 0 3.557.162 4.688s.323 2.102.485 2.587c.161.647.485.97.97 1.293.484.162.97.324 1.454.324.485 0 .97-.162 1.455-.485.485-.324.97-.647 1.455-1.132.485-.485.808-.97 1.293-1.455l.97-1.455V36.535c-.647-.97-1.293-1.94-2.102-2.748-.808-.808-1.778-1.293-2.91-1.293-.646 0-1.131.161-1.454.485-.323.323-.647.808-.97 1.455-.323.646-.485 1.616-.485 2.748-.323 1.293-.323 2.91-.323 4.688z" class="st1"/>
            <path d="M46.235 67.897c-.809 2.263-1.779 4.203-3.234 5.82s-3.233 2.91-5.173 3.718c-2.101.97-4.526 1.455-6.951 1.455-2.263 0-4.203-.485-5.82-1.617s-2.425-2.586-2.425-4.365c0-1.454.485-2.586 1.455-3.394.97-.809 1.94-1.294 3.233-1.294s2.425.324 3.234 1.132c.808.808 1.293 1.778 1.293 3.233 0 .647-.162 1.293-.485 1.778-.323.485-.647.97-.97 1.294-.485.323-.808.646-1.293.808-.485.162-.97.323-1.294.323.647.485 1.294.809 2.263.809.485 0 .97-.162 1.617-.324s1.132-.485 1.617-.808c.485-.323.808-.808 1.131-1.455.324-.647.485-1.455.485-2.425V21.986l-4.526.647V21.34l17.136-2.749v41.547a35.29 35.29 0 0 1-1.294 7.76M75.657 21.5c2.263.486 4.041 1.132 5.496 2.102s2.425 2.264 3.071 3.88c.647 1.617.97 3.557.97 5.982v17.62c0 1.294.162 2.425.485 3.072.324.808.97 1.132 2.102 1.132.97 0 1.617-.324 1.94-.97.323-.647.647-1.294.808-2.102 0-.485.324-.808.647-.808s.485.161.485.646c0 .647-.162 1.294-.323 1.94-.162.809-.647 1.455-1.294 1.94-.646.647-1.616 1.132-2.748 1.617-1.132.485-2.748.647-4.85.647-2.91 0-5.011-.485-6.466-1.294-1.455-.808-2.587-1.94-3.072-3.071-.485.485-.97.97-1.616 1.455-.647.485-1.455.97-2.263 1.455-.809.484-1.779.808-2.91 1.131-1.132.323-2.264.485-3.719.485-2.101 0-4.041-.323-5.496-.808-1.617-.647-2.91-1.455-4.041-2.425-1.132-.97-1.779-2.263-2.425-3.557a12.342 12.342 0 0 1-.809-4.364c0-1.455.324-2.91.809-4.365s1.455-2.748 2.586-3.88a12.642 12.642 0 0 1 4.203-2.748c1.779-.647 3.719-.97 5.982-.97h9.053v-6.628c0-1.94-.323-3.557-.97-4.688s-1.94-1.617-4.042-1.617c-2.263 0-3.88.162-4.688.485s-1.293.647-1.293 1.132c0 .323.162.646.647.808 1.131.647 1.616 1.778 1.616 3.071 0 .324 0 .809-.161 1.294-.162.485-.324.97-.647 1.455-.323.485-.808.808-1.455 1.131-.647.324-1.293.485-2.263.485-1.132 0-2.263-.323-3.072-.97-.97-.646-1.455-1.778-1.455-3.556 0-2.263 1.132-3.88 3.557-5.012 2.425-1.131 5.496-1.616 9.053-1.616 3.718-.162 6.466 0 8.568.485M69.19 36.859c-2.263 0-3.88.97-4.85 2.91-.97 1.94-1.455 4.364-1.455 7.436 0 3.071.324 5.335.809 6.79.646 1.293 1.616 2.101 2.91 2.101.323 0 .808-.161 1.454-.485l1.94-.97c.647-.485 1.294-.97 1.779-1.455.484-.485.646-.97.646-1.616V36.86zM123.994 23.44l-18.43 32.656h7.92c3.234 0 5.659-.809 7.276-2.587s2.748-4.041 3.071-6.951h.808V57.55H92.626v-1.778l18.913-32.817h-7.113c-2.263 0-4.364.646-6.143 2.101-1.778 1.455-2.91 3.557-3.233 6.467h-.81V21.5h29.745zM157.294 23.44l-18.43 32.656h7.92c3.234 0 5.659-.809 7.276-2.587s2.748-4.041 3.071-6.951h.808V57.55h-31.847v-1.779l18.914-32.817h-7.274c-2.264 0-4.365.647-6.143 2.102-1.779 1.455-2.91 3.557-3.234 6.466h-.808V21.5h29.745zM44.134 14.064c-.97.97-2.264 1.455-3.719 1.455s-2.586-.485-3.718-1.455c-.97-.97-1.455-2.263-1.455-3.718s.485-2.587 1.455-3.718c.97-.97 2.263-1.455 3.718-1.455s2.587.485 3.719 1.455c.97.97 1.455 2.263 1.455 3.718s-.485 2.748-1.455 3.718" class="st1"/>
        </g>
    </g>
    <style>
        .st1{fill:#e21e27}
    </style>
</svg>
