<?xml version="1.0" encoding="UTF-8" standalone="no"?>
<!-- Created with Inkscape (http://www.inkscape.org/) -->
<svg xmlns:rdf="http://www.w3.org/1999/02/22-rdf-syntax-ns#" xmlns="http://www.w3.org/2000/svg" height="600" width="600" version="1.1" xmlns:cc="http://creativecommons.org/ns#" xmlns:xlink="http://www.w3.org/1999/xlink" xmlns:dc="http://purl.org/dc/elements/1.1/">
 <defs></defs>
 <metadata>
  <rdf:RDF>
   <cc:Work rdf:about="">
    <dc:format>image/svg+xml</dc:format>
    <dc:type rdf:resource="http://purl.org/dc/dcmitype/StillImage"/>
    <dc:title/>
   </cc:Work>
  </rdf:RDF>
 </metadata>
 <g fill-rule="nonzero" transform="translate(81.18791,1004.95)">
  <path fill="#e00440" d="m518.81-703.44c-0.85627,165.66-135.84,299.29-301.51,298.49-165.66-0.85627-299.29-135.84-298.49-301.51,0.85627-165.71,135.84-299.34,301.51-298.49,165.71,0.8563,299.34,135.84,298.49,301.51"/>
  <path fill="#FFF" d="m393.08-635.36c0-30.12-19.291-43.367-49.361-43.367h-30.977-174.43c-2.4177,0-4.6843-1.2592-5.8931-3.3747-1.2592-2.1155-1.2592-4.7347-0.0504-6.8502l73.689-129.1c1.511-2.7199,4.6843-4.0295,7.656-3.2236,3.0221,0.75552,5.0872,3.4754,5.0872,6.5983v118.32h93.938v-164.2c0-43.367-27.703-73.438-72.229-73.438-30.725,0-51.779,7.2027-69.257,34.301l-143.3,221.57c-7.2531,10.829-18.687,28.912-18.687,47.598,0,16.219,12.038,38.532,48.807,38.532h79.683c0.25184-0.0504,0.50369-0.10074,0.70516-0.10074h208.78c28.055-1.0074,45.836-14.355,45.836-43.267"/>
  <path fill="#FFF" d="m218.82-551.06c0,34.301,18.082,52.988,46.944,52.988,28.912,0,46.994-18.687,46.994-54.197v-22.162h-93.938v23.371z"/>
  <path fill="#e00440" d="m104.79-622.76c2.9214,0,6.699,2.9718,12.693,2.9718,4.5836,0,6.2457-2.317,6.2457-4.8858,0-3.8784-4.4828-4.6843-11.182-6.8502-6.0946-1.9644-12.391-4.5835-12.391-13.952,0-11.232,8.7642-16.571,18.586-16.571,9.419,0,14.657,3.274,14.657,7.8072,0,3.1732-2.1155,5.4902-5.2384,5.4902-3.7777,0-4.9865-1.9644-10.023-1.9644-3.1732,0-5.3391,1.6622-5.3391,4.231,0,2.9718,2.871,3.3243,11.031,5.9939,6.3465,2.1155,12.542,5.3895,12.542,15.211,0,11.887-8.8145,17.276-19.745,17.276-6.9005,0-17.377-2.7199-17.377-8.5123,0-3.1732,1.9644-6.2457,5.5406-6.2457"/>
  <path fill="#e00440" d="m150.59-649.98-6.5983,0c-3.9288,0-6.0946-2.1659-6.0946-5.4398,0-3.4251,2.1659-5.4398,6.0946-5.4398h24.983c3.8784,0,6.0946,2.0148,6.0946,5.4398,0,3.274-2.2162,5.4398-6.0946,5.4398h-6.6487v35.006c0,4.1302-2.4681,6.2457-5.8428,6.2457-3.4251,0-5.8931-2.1155-5.8931-6.2457v-35.006z"/>
  <path fill="#e00440" d="m186.66-635.03c0,8.2101,3.6769,16.118,12.794,16.118,9.0664,0,12.743-7.9079,12.743-16.118s-3.6769-16.118-12.743-16.118c-9.1167,0-12.794,7.9079-12.794,16.118m38.179,0c0,16.42-10.074,26.998-25.386,26.998s-25.436-10.577-25.436-26.998c0-16.42,10.124-26.998,25.436-26.998s25.386,10.577,25.386,26.998"/>
  <path fill="#e00440" d="m243.28-638.58,7.7568,0c3.8784,0,6.0442-2.5184,6.0442-5.7924,0-3.4754-2.7199-5.5909-6.0442-5.5909h-7.7568v11.383zm-11.736-16.42c0-3.7776,2.8206-5.8428,5.8428-5.8428h14.154c10.477,0,17.276,6.3465,17.276,16.017,0,7.6057-4.6339,13.146-12.038,14.506l10.225,11.031c1.6118,1.7629,2.4681,3.1228,2.4681,5.0872,0,1.6622-1.5111,5.4398-5.9939,5.4398-3.0725,0-4.1806-1.0577-5.5909-2.871l-14.456-18.233h-0.1511v14.859c0,4.1302-2.4681,6.2457-5.8931,6.2457-3.3747,0-5.8428-2.1155-5.8428-6.2457v-39.993z"/>
  <path fill="#e00440" d="m285.96-633.43-10.174-13.65c-3.6769-5.1376-4.8354-6.5983-4.8354-9.016,0-3.1228,2.7703-5.188,6.2457-5.188,3.1732,0,4.6843,2.2162,5.9435,3.9791l8.7138,12.391,8.7138-12.391c1.2088-1.7629,2.7199-3.9791,5.9435-3.9791,3.4754,0,6.2457,2.0651,6.2457,5.188,0,2.4177-1.1585,3.8784-4.8858,9.016l-10.174,13.65v18.435c0,4.1302-2.4681,6.2457-5.8428,6.2457-3.4251,0-5.8931-2.1155-5.8931-6.2457v-18.435z"/>
 </g>
</svg>
