<svg version="1.1" viewBox="0 0 800 225.99" xmlns="http://www.w3.org/2000/svg">
 <defs>
  <style>.cls-1{fill:#fc0;}.cls-2{fill:#c63;}.cls-3{fill:#f90;}</style>
 </defs>
 <g transform="matrix(.55849 0 0 .55849 -113.11 -115.85)" stroke-width="1.7906">
  <path class="cls-3" d="m412.53 328.24 0.15-13.1 42.35-3.8-2.6-40.85-37.95 3.45 3.95-66.5-40.4 2.65-1.3 67.15-27.55 2.45 1.3 40.85 25.75-2.3c0.77 66.43 11.17 101.02 31.2 103.75l16.4 1.15c12.93 0 24.1-2.42 33.5-7.25 13.23-6.77 20.83-23.28 22.8-49.55l-28.85-3.95c-4.93 18.17-12.87 26.55-23.8 25.15-9.97-1.33-14.95-21.1-14.95-59.3m-196.35-57.25c0 6.77 1.7 13.98 5.1 21.65 10.27 23.3 30.18 38.73 59.75 46.3 20.23 5.13 30.35 11.58 30.35 19.35 0 5.17-2.73 9.5-8.2 13-4.83 3.17-9.98 4.75-15.45 4.75-15 0-36.12-8.92-63.35-26.75l-21.85 48.9c36 12.9 65 19.35 87 19.35 16.43 0 28.92-3.55 37.45-10.65 20-16.63 29.52-35.28 28.55-55.95-0.53-12.6-5.02-22.62-13.45-30.05-5.6-4.93-15.02-10.03-28.25-15.3-15.3-6-25.7-10.75-31.2-14.25-7.77-4.93-11.65-9.63-11.65-14.1 0-4.73 2.97-8.52 8.9-11.35 4.9-2.4 9.82-3.6 14.75-3.6 10.93 0 25.05 3.93 42.35 11.8l15.6-46.6c-23-4.5-43.03-6.75-60.1-6.75-19.23 0-35.8 3.5-49.7 10.5-17.73 9-26.6 22.25-26.6 39.75m685 8.35 69.6-2.6-72.2 102.4 6.55 42.35 132.6-12.95-7.85-49.9-80.1 16.55 70.9-89.45-2.65-61.35-126.05 3.75 9.2 51.2m214.45-32.3c-23.07 0-41.5 10.72-55.3 32.15-11.6 17.93-17.78 39.38-18.55 64.35-0.87 25.7 4.72 44.73 16.75 57.1s30.97 18.93 56.8 19.7c28.1 0.87 49.05-8 62.85-26.6 9.4-12.7 14.1-28.57 14.1-47.6 0-8.87-0.98-18.27-2.95-28.2-5.03-25.4-11.98-43.02-20.85-52.85-10.83-12.03-28.45-18.05-52.85-18.05m-22 62.7c7-10.97 14.67-16.45 23-16.45 6.8 0 14.02 3.62 21.65 10.85 9.3 10.93 13.95 21.65 13.95 32.15 0 9.77-3.77 19.35-11.3 28.75-7.9 9.97-16.6 14.95-26.1 14.95-8.33 0-15.67-5.1-22-15.3-5.7-9.07-8.55-17.93-8.55-26.6 0-9.17 3.12-18.62 9.35-28.35m-458 8.2c-5.03-25.4-11.98-43.02-20.85-52.85-10.83-12.03-28.45-18.05-52.85-18.05-23.07 0-41.5 10.72-55.3 32.15-11.6 17.93-17.78 39.38-18.55 64.35-0.87 25.7 4.72 44.73 16.75 57.1s30.97 18.93 56.8 19.7c28.1 0.87 49.05-8 62.85-26.6 9.4-12.7 14.1-28.57 14.1-47.6 0-8.87-0.98-18.27-2.95-28.2m-51.05-13.8c9.3 10.93 13.95 21.65 13.95 32.15 0 9.77-3.77 19.35-11.3 28.75-7.9 9.97-16.6 14.95-26.1 14.95-8.33 0-15.67-5.1-22-15.3-5.7-9.07-8.55-17.93-8.55-26.6 0-9.17 3.12-18.62 9.35-28.35 7-10.97 14.67-16.45 23-16.45 6.8 0 14.02 3.62 21.65 10.85m220.9-58.45-44.8 10.35 42.65 121.15c-8.1 12.8-18.55 19.2-31.35 19.2-5.47 0-11.37-1.15-17.7-3.45v48.25l13.45 0.65c27.13 0 49.07-10.62 65.8-31.85 11.27-14.33 22.22-37.42 32.85-69.25l23.15-84.7-40.7-6.55c-6.47 31.4-13.15 57.38-20.05 77.95l-23.3-81.75m-47.6 41.85-4.4-39.7c-23.43-0.77-46.42 5.85-68.95 19.85l1.5-14.95-45.95 3.8c3.7 39.83 5.38 93.02 5.05 159.55l46.95-1.65-2.3-51.05c0-31.63 3.78-51.33 11.35-59.1 10.93-11.17 29.85-16.75 56.75-16.75m515.2-40.5c-23.07 0-41.5 10.72-55.3 32.15-11.6 17.93-17.78 39.38-18.55 64.35-0.87 25.7 4.72 44.73 16.75 57.1s30.97 18.93 56.8 19.7c28.1 0.87 49.05-8 62.85-26.6 9.4-12.7 14.1-28.57 14.1-47.6 0-8.87-0.98-18.27-2.95-28.2-5.03-25.4-11.98-43.02-20.85-52.85-10.83-12.03-28.45-18.05-52.85-18.05m1 46.25c6.8 0 14.02 3.62 21.65 10.85 9.3 10.93 13.95 21.65 13.95 32.15 0 9.77-3.77 19.35-11.3 28.75-7.9 9.97-16.6 14.95-26.1 14.95-8.33 0-15.67-5.1-22-15.3-5.7-9.07-8.55-17.93-8.55-26.6 0-9.17 3.12-18.62 9.35-28.35 7-10.97 14.67-16.45 23-16.45z"/>
  <path class="cls-1" d="m1173.1 498.29-38.05 7.95c3.4 17.2 5.85 34.22 7.35 51.05 1.17 13.57 1.72 26.95 1.65 40.15l32.05-5.85-3-93.3m-103.1-12.45 0.15-11.7-35.1 6.05c5.53 30.37 10.42 71.13 14.65 122.3l35.9-4.4-5.2-39.1c-2.07-24.3-0.48-39.68 4.75-46.15 7.7-9.37 21.88-14.95 42.55-16.75l-6-30.2c-18.1 1-35.33 7.65-51.7 19.95m60.05-16.65c0.3 3.07 1.5 5.98 3.6 8.75 4.57 6.03 10.12 9.05 16.65 9.05 6.53 0.07 12.02-3.15 16.45-9.65 3.1-4.5 4.47-8.9 4.1-13.2l-1.5-5.7c-2.77-6.2-7.78-10.17-15.05-11.9l-5.1-0.35c-5.53 0.47-10.92 3.95-16.15 10.45-2.33 4.53-3.33 8.72-3 12.55m-153.05 53.35-3.1-24.15 56.55-3.95-2.55-41.4-91.6 10.95 16.95 148.1 33.25-3.95-5.8-54.4 44.65-5.95-1.85-32.4-46.5 7.15m550.65-69.6c0.9 4.47 3.03 9.12 6.4 13.95 10.2 14.53 25.87 22.35 47 23.45 14.63 0.7 22.48 3.67 23.55 8.9 0.67 3.47-0.65 6.78-3.95 9.95-2.97 2.83-6.27 4.63-9.9 5.4-10.27 2.03-25.97-1.12-47.1-9.45l-7.95 36.2c26.47 3.9 47.18 4.32 62.15 1.25 11.2-2.23 19.2-6.38 24-12.45 11.37-14.2 15.33-28.22 11.9-42.05-2.1-8.6-6.55-14.8-13.35-18.6-4.67-2.73-11.83-4.93-21.5-6.6-11.43-2-19.2-3.77-23.3-5.3-5.97-2.37-9.27-5.03-9.9-8-0.63-3.2 0.83-6.18 4.4-8.95 2.97-2.17 6.27-3.63 9.9-4.4 7.43-1.5 17.7-0.78 30.8 2.15l4.1-33.9c-16.43 0.13-30.5 1.38-42.2 3.75-16.53 3.37-28.35 8.95-35.45 16.75-8.3 9.1-11.5 18.42-9.6 27.95m-103.6 15.3c-6.5 16.07-8.23 31.73-5.2 47 3 15.23 8.63 26.55 16.9 33.95 8.23 7.33 36.95 5.8 86.15-4.6-4.87-63.07-13.52-123.85-25.95-182.35l-38.35 9.3 14.8 60.85c-25.8 7.73-41.92 19.68-48.35 35.85m54.5-1.85 10.55 55.65c-19.03 3.9-31.48-1.55-37.35-16.35-5.9-14.83 3.03-27.93 26.8-39.3m-119.95 12.15c3.37-0.27 6.53 1.67 9.5 5.8 4.63 6.47 7.62 17.35 8.95 32.65 1.13 12.53 1.15 27.98 0.05 46.35l33.9-4.05-2.15-40.75c-2.97-34.27-8.68-58.57-17.15-72.9-5.57-9.43-13.23-13.73-23-12.9-10.53 0.93-23.48 7.87-38.85 20.8l-3.3-13.9-30.85 7.8 16.15 124.6 30.85-1.8-5.85-66.8c8-16.03 15.25-24.33 21.75-24.9m-61.2 43.5-34.85 8.1c-2.97 12.97-10.18 19.67-21.65 20.1-12.37 0.47-20.98-5.48-25.85-17.85l76.7-28.15c-8.47-43.33-28.15-63.32-59.05-59.95-32.17 8.6-47.63 30.65-46.4 66.15l0.5 8.75c2.67 30.63 13.9 50.5 33.7 59.6 10.53 2.93 19.92 4.05 28.15 3.35 26.73-2.33 42.98-22.37 48.75-60.1m-58.1-45.45c8.17-0.7 15.4 3.65 21.7 13.05l-46.1 17.6c-0.27-7.83 1.72-14.7 5.95-20.6 4.17-5.97 10.32-9.32 18.45-10.05z"/>
  <path class="cls-2" d="m806.68 525.39c-1.5 2.8-2.6 5.7-3.3 8.7-0.9 3.53-0.72 7.03 0.55 10.5 4.43 11.7 13.02 18.93 25.75 21.7 20.43 4.57 37.25-1.12 50.45-17.05l15.15 18.75 23.75-17.55-21.5-17.6 13.85-13.6 1.5-0.4-24-19.7-10.2 14.85-12.95-11.85c10.63-7.07 16.22-15.48 16.75-25.25 0.57-9.7-4.23-17.85-14.4-24.45-10.23-6.6-22.98-6.98-38.25-1.15-7.5 3.57-12.42 7.57-14.75 12-2.3 4.37-3.62 10.27-3.95 17.7-0.37 7.37 5.48 15.28 17.55 23.75-5.83 3.3-10.43 6.67-13.8 10.1-3.33 3.47-5.13 5.5-5.4 6.1s-0.53 1.08-0.8 1.45c-0.73 0.9-1.4 1.9-2 3m28.85 0.05c2.47-2.03 6.47-4.93 12-8.7 4.13 2.87 7.45 5.6 9.95 8.2 2.47 2.6 5 5.17 7.6 7.7-1.67 2.63-3.75 4.88-6.25 6.75-2.6 1.87-5.98 3.18-10.15 3.95-4.2 0.77-8.42 0.12-12.65-1.95-4.3-2.1-6.1-4.78-5.4-8.05 0.73-3.23 2.37-5.87 4.9-7.9m21.3-51.65c3.97 6.3 1.03 12.3-8.8 18-8.33-4.13-12.55-9.48-12.65-16.05 5.87-8.87 13.02-9.52 21.45-1.95z"/>
 </g>
</svg>
