<svg width="478.75" height="500" version="1.1" viewBox="0 0 126.67 132.29" xml:space="preserve" xmlns="http://www.w3.org/2000/svg"><path d="m83.467 112.58v18.89h6.9403v-18.89zm43.159 12.376v6.5147h-26.373v-6.5147l17.49-23.886h-16.472v-6.5147h25.402v6.5147l-17.49 23.886zm-57.241-30.4v6.5147h10.689v11.511h6.9403v-11.511h10.689v-6.5147zm-11.534 36.914-14.482-26.471h-0.18508v26.471h-6.385v-36.914h7.8657l14.297 26.006h0.18508v-26.006h6.385v36.914zm-26.537-13.597q0 4.7049-1.8508 7.9619-1.8045 3.2055-4.997 4.8599-3.1927 1.6027-7.2643 1.6027-4.0716 0-7.2643-1.6027-3.1927-1.6545-5.0433-4.8599-1.8045-3.2571-1.8045-7.9619v-23.318h6.9403v22.594q0 4.5497 1.8045 6.6694 1.8045 2.1198 5.3673 2.1198 3.5164 0 5.321-2.1198 1.8508-2.1198 1.8508-6.6694v-22.594h6.9403z" fill="#ececec" stroke-width=".21424" style="font-variant-caps:normal;font-variant-ligatures:normal;font-variant-numeric:normal"/><g transform="matrix(1.494 0 0 1.494 -3.4961 -3.5134)"><path d="m2.34 2.351h55.994v55.994h-55.994z" fill="#20fc42"/><g fill="#131313"><path d="m15.594 51.168h-5.014v-6.367h5.014c1.881 0 3.233 0.627 3.696 2.011 0.099 0.364 0.164 0.76 0.164 1.189 0 2.144-1.452 3.167-3.86 3.167zm-5.014-15.704h4.783c1.947 0 3.497 0.824 3.497 2.804 0 1.814-1.22 2.805-3.497 2.805h-4.783zm8.544 7.522v-0.396c2.74-0.561 4.421-2.111 4.421-4.784 0-2.475-1.22-4.421-3.299-5.476-1.154-0.594-2.672-0.891-4.685-0.891h-9.766v23.754h10.426c1.947 0 3.696-0.43 4.95-1.155 1.979-1.155 3.166-3.168 3.166-5.641 0-0.561-0.065-1.09-0.23-1.585-0.693-2.408-2.871-3.628-4.983-3.826z"/><path d="m50.797 47.407c0 2.474-0.859 4.52-3.267 4.52-2.144 0-3.002-1.287-3.002-3.465v-10.095h-4.453v10.294c0 4.321 1.846 6.895 5.608 6.895 2.441 0 3.892-1.287 5.015-2.903h0.297v2.54h4.256v-16.826h-4.454z"/><path d="m32.882 41.929h-0.33v-3.562h-4.256v12.372h-2.64v4.454h4.455v-4.454h2.64v-3.927c0-2.969 1.517-4.586 4.651-4.586h1.023v-4.223h-0.494c-2.706 0-4.126 1.519-5.049 3.926z"/><path d="m18.563 15.503-2.969-0.463c-2.475-0.395-3.464-0.99-3.63-2.375-0.032-0.165-0.032-0.329-0.032-0.495 0-1.848 1.55-2.838 4.156-2.838 2.772 0 4.322 1.287 4.422 3.663h4.784c-0.133-4.586-3.464-7.555-9.106-7.555-5.345 0-8.974 2.87-8.974 7.027v0.198c0.065 4.091 2.804 6.038 7.127 6.698l3.299 0.495c1.319 0.198 2.277 0.593 2.836 1.253h-2.639c0.396 0.496 0.595 1.056 0.595 1.881 0 2.112-2.146 2.969-4.587 2.969-3.497 0-4.817-1.617-5.081-4.223h-4.849c0.098 4.982 3.596 8.116 10.129 8.116 5.873 0 9.138-2.936 9.138-6.862 0-0.693-0.066-1.287-0.165-1.881h2.639c-0.659-3.2-3.101-4.981-7.093-5.608z"/><path d="m35.455 24.179v-3.068h-2.309v-5.146h3.134v-3.3h-3.134v-4.289h-4.454v4.289h-2.475v3.3h2.475v5.146h2.309v3.266c0 3.267 1.42 5.115 5.015 5.115h2.573v-3.794h-1.682c-1.122 0-1.452-0.43-1.452-1.519z"/><path d="m50.796 12.665v9.04c0 2.474-0.857 4.52-3.266 4.52-2.144 0-3.002-1.287-3.002-3.464v-10.096h-4.454v10.294c0 4.322 1.847 6.895 5.609 6.895 2.441 0 3.893-1.287 5.015-2.903h0.297v2.541h4.256v-16.827z"/></g></g></svg>
