<?xml version="1.0" encoding="UTF-8" standalone="no"?>
<svg xmlns="http://www.w3.org/2000/svg" height="97.644" viewBox="0 0 600 97.643554" width="600" version="1.1">
 <g>
  <path d="m508.66 0.5718v96.5h3.3697v-49.612h36.257v49.612h3.3674v-96.5h-3.3674v43.521h-36.26v-43.521z"/>
  <path d="m559.53 0.57389v96.498h17.391c17.21 0 23.08-13.562 23.08-48.249 0-34.948-5.61-48.249-23.08-48.249zm3.3007 3.4777h14.554c14.623 0 19.317 12.342 19.317 44.771 0 32.187-4.912 44.771-19.317 44.771h-14.554z"/>
  <g stroke-width=".49557">
   <path d="m22.249 0c-13.461 0-20.709 9.0644-20.709 23.573 0 14.252 7.8825 22.655 15.008 30.692 6.4706 7.2407 12.3 12.685 12.3 20.831 0 5.8358-2.067 8.551-5.8294 8.551-4.7817 0-6.2075-3.8773-7.5113-17.481l-15.508 1.163v0.41875c1.3167 17.399 4.6539 29.896 22.898 29.896 14.373 0 22.398-8.16 22.398-23.452 0-15.279-8.0242-22.79-15.414-30.679-6.208-6.728-11.773-12.158-11.773-21.628 0-4.3907 1.29-7.376 4.3897-7.376 3.4992 0 5.4443 1.5402 6.2213 15.279l15.677-1.433c-1.169-18.25-5.964-28.355-22.148-28.355z"/>
   <path d="m77.541 0.91878v68.234c0 11.266-1.0402 14.495-5.316 14.495-4.3972 0-5.2956-3.4987-5.2956-14.752v-67.977h-16.71v69.018c0 17.845 5.1742 27.707 21.493 27.707 16.313 0 21.749-9.9832 21.749-28.099v-68.626z"/>
   <path d="m129.72 0.91878v29.517c0 6.5925 0.12141 16.954 0.76961 26.289h-0.25026c-1.56-8.9296-3.7618-18.399-5.6936-26.545l-7.39-29.261h-15.657v95.806h14.353v-30.302c0-5.0384-0.12191-19.804-0.75673-26.018h0.26315c1.5333 9.3216 4.2624 17.603 6.599 26.018l8.4093 30.301h13.718v-95.805z"/>
   <path d="m169.09 15.536h2.3232c8.4232 0 9.4495 7.1332 9.4495 33.286 0 25.762-1.0268 33.799-9.3211 33.799h-2.4516m-16.72-81.702v95.806h16.447c18.507 0 29.132-7.376 29.132-47.903 0-40.798-10.233-47.903-29.132-47.903z"/>
   <path d="m220.75 37.947c0.5139-3.6201 0.77705-6.7407 1.1621-10.618h0.14173c0.37168 3.7554 0.63482 6.9974 1.1482 10.618l3.1136 25.775h-8.81m-3.62-63.209-15.8 96.212h15.799l2.7222-21.493h10.611l2.7222 21.493h16.961l-15.65-96.212z"/>
   <path d="m279.29 0.91878v29.517c0 6.5925 0.12092 16.954 0.77011 26.289h-0.26364c-1.56-8.9296-3.7624-18.399-5.6941-26.545l-7.39-29.261h-15.671v95.806h14.374v-30.302c0-5.0384-0.14173-19.804-0.79043-26.018h0.26315c1.5605 9.3216 4.2688 17.603 6.6133 26.018l8.4222 30.301h13.719v-95.805z"/>
   <path d="m323.3 0c-15.799 0-23.31 12.806-23.31 48.822 0 35.988 7.376 48.822 23.438 48.822 18.136 0 21.243-16.332 22.148-36.015l-15.799-0.6487c-0.52678 17.887-1.8172 21.641-6.3497 21.641-5.5652 0-6.3497-9.1858-6.3497-33.799 0-23.952 0.64919-33.408 6.2214-33.408 4.1543 0 5.5791 4.7822 5.8427 22.006l15.78-0.635c-0.26-28.355-6.35-36.785-21.63-36.785z"/>
  </g>
  <polygon points="741.49 78.644 741.49 31.349 777.02 31.349 777.02 1.854 707.8 1.854 707.8 195.18 778.33 195.18 778.33 166.72 741.49 166.72 741.49 106.37 766.3 106.37 766.3 78.644" transform="matrix(.49557 0 0 .49557 -.00001 0)"/>
 </g>
 <g fill="#87a9a4">
  <polygon transform="matrix(.49557 0 0 .49557 -.00001 0)" points="861.15 195.18 861.15 31.349 886.21 31.349 886.21 1.854 801.83 1.854 801.83 31.349 827.18 31.349 827.18 195.18"/>
  <path d="m472.73 0.91878-5.1737 47.376c-0.79043 7.3894-1.567 16.062-2.0873 24.221h-0.26315c-0.65-8.16-1.3-16.832-2.07-24.221l-5.3-47.376h-16.846l15.022 96.197h17.36l15.136-96.197z" stroke-width=".49557"/>
  <polygon transform="matrix(.49557 0 0 .49557 -.00001 0)" points="986.52 195.97 986.52 183.1 989.34 183.1 989.34 181.71 982.18 181.71 982.18 183.1 984.98 183.1 984.98 195.97"/>
  <polygon transform="matrix(.49557 0 0 .49557 -.00001 0)" points="995.5 193.68 992.85 181.71 990.97 181.71 990.97 195.97 992.24 195.97 992.24 184.17 992.27 184.17 993.12 188.28 994.83 195.97 996.08 195.97 997.79 188.45 998.71 184.11 998.74 184.11 998.74 195.97 1000.1 195.97 1000.1 181.71 998.24 181.71 995.58 193.68"/>
 </g>
</svg>
