<?xml version="1.0" encoding="UTF-8" standalone="no"?>
<svg xmlns:rdf="http://www.w3.org/1999/02/22-rdf-syntax-ns#" xmlns="http://www.w3.org/2000/svg" height="600" width="600" version="1.1" xmlns:cc="http://creativecommons.org/ns#" xmlns:xlink="http://www.w3.org/1999/xlink" viewBox="0 0 158.75 158.75" xmlns:dc="http://purl.org/dc/elements/1.1/">
 <g transform="translate(-49.379 -54.07)">
  <path d="m208.13 54.07h-158.75l-0.001 158.75h158.75v-158.75z" fill="#a02f35"/>
  <g fill="#fff">
   <path d="m130.38 158.55 0.03-10.14c0-2.49 0.04-4.2 0.18-5.44 0.14-1.25 0.53-2.36 1.23-3.52 0.71-1.15 1.64-1.96 2.89-2.62 1.24-0.66 2.52-0.93 4-0.97 2.2-0.06 3.96 0.51 5.39 1.53 1.43 1.03 2.15 2.02 2.6 3.54 0.45 1.53 0.7 3.88 0.7 7.11v2.96h-6.86l0.01-5.69c0-1.74-0.02-2.83-0.18-3.26-0.16-0.44-0.71-0.97-1.25-0.97-1.03 0-1.47 0.58-1.63 1.11-0.16 0.52-0.23 1.66-0.23 3.41l0.03 16.05c0 1.68 0.09 2.76 0.2 3.29 0.16 0.72 0.86 1.07 1.43 1.07 0.83 0 1.23-0.56 1.4-1.08 0.17-0.51 0.23-1.72 0.23-3.62v-4h6.85l0.02 0.98c0 3.58-0.23 6.1-0.64 7.6-0.43 1.49-1.24 2.6-2.68 3.73-1.43 1.13-3.03 1.61-5.13 1.61-2.19 0-3.9-0.53-5.31-1.48-1.42-0.95-2.14-2.02-2.6-3.71-0.46-1.68-0.68-4.11-0.68-7.49"/>
   <path d="m252.29 312l-14.43 127.84h25.21l1.56-23.5h12.87l1.53 23.5h24.86l-16.13-127.84h-35.47zm18.83 26.36s4.3 42.79 5.67 57.56h-12.27c0.71-11.53 6.6-57.56 6.6-57.56z" transform="matrix(.26458 0 0 .26458 49.379 54.07)"/>
   <path d="m98.107 136.62h15.673v6.21h-4.48v27.62h-6.76v-27.62h-4.433v-6.21z"/>
   <path d="m90.993 162.9c0-2.04-0.215-3.54-0.787-4.23-0.498-0.61-1.693-1.7-3.545-3.16-1.857-1.48-3.007-2.5-3.61-3.16-0.602-0.67-1.045-1.51-1.439-2.69-0.393-1.18-0.562-2.59-0.562-4.43 0-2.65 0.234-4.36 0.796-5.58 0.558-1.22 1.365-2.08 2.619-2.78 1.25-0.68 2.544-0.99 4.317-0.99 1.937 0 3.465 0.34 4.834 1.07 1.35 0.73 2.076 1.59 2.54 2.61 0.507 1.11 0.677 3.06 0.677 5.8v1.07h-6.294v-2.26c0-1.19-0.109-2.08-0.333-2.49-0.179-0.33-0.603-0.61-1.175-0.58-0.443 0.02-0.886 0.17-1.225 0.81-0.234 0.43-0.378 1.26-0.378 2.15 0 1.15 0.144 2.11 0.388 2.64 0.324 0.7 0.936 1.36 2.216 2.3 3.256 2.39 5.307 4.22 6.163 5.74 0.862 1.52 1.265 3.83 1.265 7.21 0 2.46-0.259 4.26-0.737 5.43-0.478 1.16-1.314 1.96-2.654 2.72-1.379 0.78-2.748 1.12-4.57 1.12-2.002 0-3.605-0.43-5.019-1.34s-2.215-2.07-2.654-3.48c-0.438-1.41-0.592-3.12-0.592-5.71v-1.94h6.308v3.9c0 1.29 0.144 2.29 0.344 2.66 0.194 0.37 0.657 0.7 1.289 0.71 0.503 0.01 1.11-0.22 1.429-0.9 0.229-0.47 0.389-1.3 0.389-2.22"/>
   <path d="m87.886 104.39c0 1.22 0.194 2.16 0.418 2.79 0.249 0.74 1.14 1.6 2.37 2.47 3.52 2.52 5.76 4.52 6.612 6.17 0.836 1.61 1.274 4.01 1.274 7.6 0 2.61-0.249 4.48-0.791 5.7-0.513 1.17-1.325 2.04-2.778 2.88-1.454 0.84-3.018 1.22-4.949 1.22-2.122 0-3.779-0.47-5.278-1.43-1.499-0.97-2.325-2.07-2.793-3.56-0.463-1.5-0.652-3.44-0.652-6.18l0.02-2.09 6.701-0.01 0.01 4.2c0 1.38 0.115 2.37 0.349 2.74 0.388 0.62 0.831 0.71 1.349 0.74 0.732 0.05 1.215-0.42 1.468-0.92 0.259-0.5 0.414-1.37 0.409-2.35-0.01-2.85-0.394-3.85-0.872-4.51-0.497-0.67-1.717-1.76-3.684-3.3-1.971-1.56-3.166-2.62-3.804-3.33-0.637-0.71-1.135-1.6-1.553-2.85-0.423-1.26-0.622-2.83-0.622-4.78 0-2.81 0.308-4.67 0.901-5.968 0.597-1.3 1.364-2.111 2.599-2.828 1.309-0.767 3.022-1.13 4.779-1.13 1.852 0 3.59 0.338 5.039 1.135 1.449 0.801 2.35 1.782 2.778 2.833 0.493 1.208 0.702 3.238 0.702 6.148v1.14h-6.731v-2.42c0-1.27-0.09-2.13-0.269-2.49-0.329-0.65-0.841-0.77-1.275-0.77-0.642 0-1.09 0.41-1.329 0.88-0.244 0.47-0.398 1.31-0.398 2.27"/>
   <path d="m118.86 126.43c-0.16 1.12-0.73 2.29-1.47 3.48-0.74 1.18-1.36 1.73-2.57 2.34s-2.64 0.91-4.29 0.91c-1.81 0-3.34-0.34-4.73-1.07-1.39-0.72-2.16-1.47-2.85-2.63s-1.1-2.25-1.23-3.54c-0.12-1.28-0.19-4-0.19-8.13v-21.335h7.34v27.145c0 1.6 0.07 2.61 0.21 3.06 0.14 0.44 0.35 0.97 1.17 0.98 0.71 0.02 1.15-0.53 1.3-1.02 0.14-0.49 0.17-1.67 0.17-3.5v-26.665h7.23v24.135c0 2.78 0.06 4.71-0.09 5.84"/>
   <path d="m306.07 159.99l-28.89 0.07v135.94h27.78v-55.57h8.2c6.53 0 11.67-0.65 15.7-2.82 4.02-2.16 6.64-4.55 8.16-8.6 1.51-4.06 2.34-10.46 2.34-19.31v-12.06c0-8.67-0.53-15.09-1.32-19.21-0.77-4.14-1.9-7-4.1-9.92-2.2-2.9-5.21-4.87-9.2-6.23-4.11-1.41-10.52-2.29-18.67-2.29zm-1.09 21.41c3.84 0 7.37 0.38 9.41 2.41 1.56 1.56 2.18 5.38 2.18 10.12v11.43c0 5.13-0.58 9.01-1.64 10.65-1.05 1.62-3.01 3.18-6.62 3.06-0.62-0.01-2.49-0.11-3.33-0.16v-37.51z" transform="matrix(.26458 0 0 .26458 49.379 54.07)"/>
   <path d="m155.18 132.43h-13.12v-36.039h12.61v6.709h-5.29v7.59h4.96v6.34h-4.96v8.71h5.8v6.69z"/>
   <path d="m157.56 166.01c-0.06 1-0.27 1.81-0.77 2.6-0.45 0.73-0.99 1.14-1.81 1.45s-1.95 0.43-3.6 0.43h-3.02l0.02-5.08c0.82-0.17 1.4-0.48 1.82-0.87 0.31-0.3 0.52-0.9 0.56-1.35 0.05-0.45 0.07-1.34 0.07-2.64v-23.93h6.76v22.73c0 3.45 0.03 5.68-0.03 6.66"/>
   <path d="m410.77 159.99v136.01h27.68v-62.21c4.84-0.3 7.87 0.79 9.15 2.35 1.86 2.24 2.31 7.74 2.31 15.15v44.71l25.55-0.07v-35.23c0-11.18-0.24-18.01-0.73-20.49-0.51-2.49-1.99-4.86-4.03-7.83-2.03-2.96-7.37-5.83-13.3-7.6 6.55-0.76 12.55-3.39 14.77-7.1 2.22-3.68 3.24-10.31 3.24-21.09 0-11.78-1.55-19.97-4.71-25.35s-6.83-8.09-11.83-9.41c-5.01-1.31-14.08-1.77-28.23-1.77l-19.87-0.07zm27.89 21.38c3.46 0 7.21 0.31 8.75 2.21 1.18 1.47 2.58 3.24 2.54 9.62v7.58c0 6.1-1.39 10.6-2.69 11.76-2.2 1.98-5.23 1.85-8.6 1.85v-33.02z" transform="matrix(.26458 0 0 .26458 49.379 54.07)"/>
   <path d="m428.72 312l-14.43 127.84h25.21l1.57-23.5h12.87l1.52 23.5h24.86l-16.13-127.84h-35.47zm18.84 26.36c1.52 21.83 4.29 42.79 5.64 57.56h-12.26c0.71-11.53 3.81-32.51 6.62-57.56z" transform="matrix(.26458 0 0 .26458 49.379 54.07)"/>
  </g>
 </g>
</svg>
