<svg enable-background="new 0 0 1000 500" version="1.1" viewBox="0 0 800 297.66" xml:space="preserve" xmlns="http://www.w3.org/2000/svg">
<linearGradient id="a" x1="816.38" x2="911.71" y1="-80.387" y2="55.767" gradientTransform="matrix(.86003 0 0 .86003 -2.6832 69.012)" gradientUnits="userSpaceOnUse">
	<stop stop-color="#EA272A" offset="0"/>
	<stop stop-color="#EA2929" offset=".1508"/>
	<stop stop-color="#EB2F29" offset=".2108"/>
	<stop stop-color="#ED3B27" offset=".2546"/>
	<stop stop-color="#EE4B25" offset=".2906"/>
	<stop stop-color="#F06026" offset=".3218"/>
	<stop stop-color="#F27C23" offset=".3496"/>
	<stop stop-color="#F69D25" offset=".3749"/>
	<stop stop-color="#F8C223" offset=".3976"/>
	<stop stop-color="#FBEB1E" offset=".4186"/>
	<stop stop-color="#FCEE23" offset=".4196"/>
	<stop stop-color="#18B04B" offset=".612"/>
	<stop stop-color="#2AB7EA" offset=".7585"/>
	<stop stop-color="#5395BD" offset=".7899"/>
	<stop stop-color="#807290" offset=".8263"/>
	<stop stop-color="#A7566A" offset=".8628"/>
	<stop stop-color="#C4414E" offset=".8987"/>
	<stop stop-color="#DB3039" offset=".9339"/>
	<stop stop-color="#E6282D" offset=".9681"/>
	<stop stop-color="#EA272A" offset="1"/>
</linearGradient>
<path d="m737.56 116.02c-47.13-22.189-105.1-84.283-70.952-91.249 19.007-3.8701 57.88 21.157 57.88 21.157-24.683-4.8162-30.875-0.60202-34.745 4.6442-10.492 14.104 21.931 43.088 55.386 51.172 2.8381 0.77403 5.9342 1.462 8.0843 1.462 0.086 0 1.5481-0.172 2.1501-0.43001 17.803-6.8802 27.951-100.28 2.6661-85.917-13.158 7.4823-19.007 40.163-19.007 40.163-3.3541-37.927 16.341-72.157 38.873-50.054 21.501 21.243 38.959 146.46-40.335 109.05z" fill="url(#a)" stroke-width=".86003"/>
<g transform="matrix(.86003 0 0 .86003 -31.133 -65.789)">
	<g fill="#3259a8">
		<path d="m83.4 176.9h26.9c17.4 0 30.2 2.2 38.7 6.5 8.4 4.3 15.4 11.3 20.8 21 5.5 9.7 8.2 21 8.2 33.9 0 9.2-1.5 17.7-4.6 25.4s-7.3 14.1-12.7 19.2-11.2 8.6-17.5 10.6c-6.3 1.9-17.1 2.9-32.6 2.9h-27.2zm22.6 21.9v75.3h10.6c10.4 0 17.9-1.2 22.6-3.6s8.5-6.4 11.5-12 4.5-12.6 4.5-20.8c0-12.7-3.5-22.5-10.6-29.5-6.4-6.3-16.6-9.4-30.8-9.4z"/>
		<path d="m197.6 176.9h72.2l-42.5 97.6h39.7v21.8h-73l42.3-96.9h-38.8v-22.5z"/>
		<path d="m291.1 296.2v-119.3h18.8c10.9 0 18.9 0.7 23.9 2.1 7.2 1.9 12.8 5.4 17.1 10.6 4.2 5.1 6.3 11.2 6.3 18.2 0 4.5-1 8.7-2.9 12.4s-5 7.2-9.4 10.4c7.3 3.4 12.6 7.7 15.9 12.8 3.4 5.1 5 11.2 5 18.1 0 6.7-1.7 12.8-5.2 18.3s-7.9 9.6-13.4 12.4c-5.5 2.7-13 4.1-22.7 4.1h-33.4zm22.8-97.7v25.2h5c5.5 0 9.7-1.2 12.3-3.5 2.7-2.3 4-5.5 4-9.5 0-3.7-1.3-6.7-3.8-8.9-2.6-2.2-6.4-3.3-11.6-3.3zm0 45.5v30.6h5.7c9.4 0 15.8-1.2 19.1-3.6s4.9-5.8 4.9-10.4c0-5.1-1.9-9.2-5.8-12.2s-10.3-4.5-19.2-4.5h-4.7z"/>
		<path d="m391.7 296.2v-119.3h18.8c10.9 0 18.9 0.7 23.9 2.1 7.2 1.9 12.8 5.4 17.1 10.6 4.2 5.1 6.3 11.2 6.3 18.2 0 4.5-1 8.7-2.9 12.4s-5 7.2-9.4 10.4c7.3 3.4 12.6 7.7 15.9 12.8 3.4 5.1 5 11.2 5 18.1 0 6.7-1.7 12.8-5.2 18.3s-7.9 9.6-13.4 12.4c-5.5 2.7-13 4.1-22.7 4.1h-33.4zm22.7-97.7v25.2h5c5.5 0 9.7-1.2 12.3-3.5 2.7-2.3 4-5.5 4-9.5 0-3.7-1.3-6.7-3.8-8.9-2.6-2.2-6.4-3.3-11.6-3.3zm0 45.5v30.6h5.7c9.4 0 15.8-1.2 19.1-3.6s4.9-5.8 4.9-10.4c0-5.1-1.9-9.2-5.8-12.2s-10.3-4.5-19.2-4.5h-4.7z"/>
		<path d="m557.1 176.9h55.9v21h-39l-4.9 21.7c1.4-0.4 2.7-0.7 4-0.9s2.5-0.3 3.7-0.3c10.8 0 19.8 3.7 27 11.1s10.8 16.8 10.8 28.4-4 21.4-11.9 29.4-17.6 12-28.9 12c-10.2 0-18.9-2.9-26.2-8.7s-12.1-13.7-14.4-23.8h23.9c1.8 3.7 4.3 6.6 7.3 8.5s6.3 2.9 9.9 2.9c5 0 9.3-1.8 12.8-5.4s5.3-8.3 5.3-14c0-5.5-1.6-10.1-4.9-13.6s-7.2-5.3-11.9-5.3c-2.5 0-4.9 0.6-7.3 1.9-2.4 1.2-4.8 3.1-7.1 5.6l-18.5-4.1z"/>
		<path d="m671.4 299.2-19.3-9.6 20.9-40.7c-10.1 0-18.8-3.6-25.9-10.9-7.1-7.2-10.7-16.2-10.7-27 0-10.4 3.6-19.3 10.9-26.5s16.1-10.8 26.3-10.8c10.8 0 19.7 3.7 26.9 11.2s10.8 16.1 10.8 25.8c0 3.7-0.6 7.4-1.7 11.1s-3.7 9.4-7.7 17.1zm2.9-71.7c4.2 0 7.8-1.5 10.6-4.6 2.9-3.1 4.3-6.9 4.3-11.4 0-4.6-1.5-8.5-4.5-11.7s-6.5-4.7-10.5-4.7c-4.2 0-7.8 1.6-10.9 4.7-3 3.1-4.5 7-4.5 11.6s1.5 8.4 4.4 11.5c3 3.1 6.7 4.6 11.1 4.6z"/>
		<path d="m778.9 173.9h22.7v76.9h10.6v21h-10.6v24.5h-22.2v-24.5h-52.1v-21zm0.4 76.8v-40l-27.3 40z"/>
	</g>
</g>
<path transform="matrix(.86003 0 0 .86003 -31.133 -65.789)" d="m36.2 422.6 38.5-107.7h883.2l-38.5 107.7z" fill="#ec2225"/>
<g transform="matrix(.86003 0 0 .86003 -31.133 -65.789)" fill="#fff">
	<path d="m134 346.6-8.7 7.7c-3.6-4.6-6.9-7-10-7-1.5 0-2.8 0.5-3.8 1.4s-1.5 2-1.5 3.3c0 1.2 0.5 2.5 1.4 4 0.9 1.4 3.7 4.6 8.4 9.6 2.5 2.6 4.1 4.5 4.9 5.6 1.9 2.5 3.2 4.9 4.1 7.1 0.8 2.2 1.2 4.5 1.2 6.8 0 5.1-1.8 9.4-5.5 12.9s-8.3 5.2-14 5.2c-8.7 0-15.8-4.1-21.3-12.4l9.2-7.4c3.7 5.7 7.7 8.5 12 8.5 2.1 0 3.8-0.7 5.2-2s2.1-2.9 2.1-4.8c0-1.5-0.4-3-1.3-4.5s-3.3-4.4-7.3-8.7c-4.3-4.5-7.1-7.9-8.4-10.2-1.8-3.1-2.7-6.1-2.7-9.1 0-3.9 1.3-7.5 3.9-10.6 3.2-3.9 7.6-5.9 13.1-5.9 7.5 0 13.9 3.5 19 10.5z"/>
	<path d="m170.4 337.7h12l-5.3 39.5c-0.5 3.4-0.7 5.9-0.7 7.3 0 2.4 0.7 4.3 2.2 5.6s3.7 2 6.5 2c2.3 0 4.3-0.5 6-1.5 1.3-0.8 2.3-2 3.1-3.8s1.5-5.2 2.2-10.5l5.3-38.7h12.1l-5.2 38.2c-1.1 7.9-2.5 13.5-4.2 16.9s-4.3 6-7.5 7.8c-3.3 1.8-7.3 2.7-12 2.7-6.4 0-11.3-1.7-14.9-5.1s-5.3-8-5.3-13.9c0-2.5 0.3-6.3 1-11.3z"/>
	<path d="m250.9 337.7h11.2c6.8 0 11.6 0.6 14.4 1.8 3.5 1.5 6.1 3.5 7.9 6.2 1.8 2.6 2.7 5.7 2.7 9.3 0 3.9-1 7.4-3.1 10.5s-4.9 5.4-8.4 6.9c-3.5 1.4-9.4 2.2-17.6 2.3l-3.7 27h-12zm8.5 25.6c6.5 0 10.8-0.7 12.7-2 2-1.3 3-3.3 3-6 0-1.5-0.4-2.7-1.2-3.7s-1.9-1.7-3.4-2.1-4.5-0.6-9-0.6z"/>
	<path d="m323 337.7h34.4l-1.5 11.3h-22.3l-1.8 13.2h22.4l-1.5 11.3h-22.5l-2.4 16.9h22.7l-1.5 11.2h-34.8z"/>
	<path d="m393.8 337.7h11.1c6.9 0 11.7 0.6 14.5 1.8 3.5 1.5 6.1 3.5 7.9 6.1s2.7 5.7 2.7 9.3c0 4.4-1.3 8.2-3.9 11.4s-6.6 5.4-11.9 6.6l13.9 28.7h-12.4l-13.6-27.9h-1l-3.8 27.9h-12zm8.5 25.6c6.5 0 10.7-0.7 12.7-2s2.9-3.3 2.9-5.9c0-1.5-0.4-2.8-1.2-3.8s-1.9-1.7-3.4-2.1-4.5-0.6-9-0.6z"/>
	<path d="m516.4 337.7h11.1c6.9 0 11.7 0.6 14.5 1.8 3.5 1.5 6.1 3.5 7.9 6.1s2.7 5.7 2.7 9.3c0 4.4-1.3 8.2-3.9 11.4s-6.6 5.4-11.9 6.6l13.9 28.7h-12.4l-13.6-27.9h-1l-3.8 27.9h-12zm8.5 25.6c6.5 0 10.7-0.7 12.7-2s2.9-3.3 2.9-5.9c0-1.5-0.4-2.8-1.2-3.8s-1.9-1.7-3.4-2.1-4.5-0.6-9-0.6z"/>
	<path d="m612.1 337.7h10.1l15.9 63.9h-11.6l-3.4-13.6h-25.4l-7.3 13.6h-12.9zm8.1 39-5.1-21.1-11.3 21.1z"/>
	<path d="m679.3 337.7h10.1c9.5 0 16.6 1.1 21.2 3.4 4.6 2.2 8.4 5.8 11.3 10.6s4.4 10.4 4.4 16.6c0 6.5-1.5 12.4-4.6 17.8s-7 9.3-11.7 11.8-11.2 3.7-19.6 3.7h-19.9zm10.5 11.3-5.6 41.5h3.9c6.1 0 10.5-0.5 13.2-1.5 3.8-1.4 6.9-3.9 9.2-7.4s3.5-7.8 3.5-13c0-4.2-0.8-7.8-2.4-10.6s-3.9-5.1-6.9-6.6-6.9-2.3-11.8-2.3h-3.1z"/>
	<path d="m755.8 337.7h12.2l10 25.6 18.2-25.6h13.8l-27.3 38.4-3.4 25.6h-12l3.5-25.6z"/>
	<path d="m872.2 336.1c8.8 0 16 2.8 21.7 8.5 5.7 5.6 8.6 12.8 8.6 21.5 0 6.7-1.7 12.9-5.1 18.8s-7.9 10.4-13.5 13.6-12 4.7-19.3 4.7c-9.1 0-16.4-2.7-21.8-8.1s-8.1-12.5-8.1-21.3c0-10 3.2-18.6 9.7-25.8 7.3-7.9 16.5-11.9 27.8-11.9zm-0.4 11.3c-4.6 0-8.8 1.1-12.5 3.3-3.8 2.2-6.8 5.4-9.1 9.6s-3.5 8.5-3.5 12.9c0 5.2 1.6 9.7 4.8 13.3 3.2 3.7 7.8 5.5 13.9 5.5 7 0 12.9-2.5 17.8-7.4s7.3-10.9 7.3-17.9c0-5.8-1.7-10.5-5.1-14-3.6-3.5-8.1-5.3-13.6-5.3z"/>
</g>
<g transform="matrix(.86003 0 0 .86003 -31.133 -65.789)" fill="#fff">
	<path d="m843 243h10.1v18l14.2-18h11.9l-18.2 23.3 20 28.9h-11.8l-16.1-23.2v23.2h-10.1z"/>
	<path d="m888 243h10.1v19.7h17.4v-19.7h10.1v52.3h-10.1v-22.9h-17.4v22.9h-10.1z"/>
	<path d="m934.8 243h31.6l-18.6 42.7h17.4v9.6h-31.9l18.5-42.4h-17z"/>
</g>
</svg>
