<svg version="1.0" viewBox="0 0 349.87 358.4" xmlns="http://www.w3.org/2000/svg">
    <path d="M324.194 0H25.674C11.5 0 0 11.475 0 25.624v211.39c0 14.149 11.499 25.649 25.673 25.649l324.19-.024V25.629c0-14.15-11.5-25.624-25.673-25.624" fill="#f79110"/>
    <g fill="#fff">
        <path d="M56.618 225.338c0-1.881-.605-3.527-1.814-4.938-1.143-1.479-2.655-2.722-4.536-3.73-1.881-1.074-3.964-2.082-6.248-3.023-2.218-1.008-6.367-2.116-8.651-3.326-2.285-1.276-4.368-2.654-6.249-4.132-1.881-1.545-3.426-3.527-4.636-5.946-1.142-2.486-1.713-5.274-1.713-8.365 0-5.51 1.982-10.112 5.946-13.807 4.031-3.763 11.271-5.644 17.923-5.644 8.87 0 17.391 1.475 21.96 6.515l-6.652 9.272c-3.628-3.494-9.597-4.197-14.3-4.197-3.024 0-5.443.706-7.257 2.117-1.747 1.41-2.62 3.292-2.62 5.643 0 2.285.772 4.267 2.318 5.947 1.612 1.68 3.594 2.359 5.946 3.367a62.768 62.768 0 0 1 15.42 6.995c2.351 1.41 4.26 3.516 5.845 6.248 1.573 2.711 2.419 7.208 2.419 10.903 0 5.846-2.25 10.65-6.752 14.412-4.502 3.696-10.112 5.543-16.831 5.543-12.448.185-19.492-2.87-26.58-9.956l7.055-8.466c1.949 2.553 5.35 4.345 8.307 5.756 3.023 1.344 8.53 1.076 11.419 1.076 3.023 0 5.476-.705 7.357-2.116 1.948-1.478 2.923-3.527 2.923-6.148zM79.574 173.538v40.617c0 10.011 2.721 17.703 8.164 23.078 5.51 5.308 13.572 7.963 22.643 7.963 8.062 0 15.518-2.52 20.826-7.559s7.963-12.632 7.963-22.777v-41.322h-12.295v38.803c0 14.177-6.013 21.266-16.494 21.266-5.913 0-11.12-1.948-14.076-5.845-2.89-3.965-4.334-9.374-4.334-16.227v-37.996zM168.76 244.088h-13.915v-70.549c1.209 0 5.92-.034 11.093-.1 5.24-.068 8.734-.102 10.482-.102 4.972 0 9.305.236 12.934 1.513 3.695 1.209 6.98 2.334 10.949 5.542 2.015 2.15 3.493 4.536 4.434 7.156.94 2.553 1.411 5.375 1.411 8.466 0 6.383-2.284 11.792-6.853 16.226-4.569 4.434-13.301 6.651-21.363 6.651-4.099 0-7.156-.1-9.171-.302zm8.869-59.16c-1.479 0-4.435.067-8.87.202v21.668c3.226.336 6.148.503 8.769.503 3.897 0 8.129-.94 10.548-2.821 2.419-1.949 4.702-4.804 4.702-8.567 0-7.324-6.482-10.985-15.15-10.985zM216.64 173.538v69.84h44.844v-9.977H230.11v-19.148h25.666v-11.59H230.11v-19.148h31.373v-9.976zM298.82 173.338c-.538 0-5.776.034-11.957.102-6.115.067-11.12.101-12.598.101v70.547h13.605v-26.404h9.359l18.068 26.404h15.016l-18.834-26.404-1.719-2.42c3.059-1.039 4.796-2.869 7.799-5.494 1.08-.957 2.076-1.925 2.768-3.33 2.103-3.453 3.554-6.75 3.554-11.332 0-14.513-7.996-21.77-25.062-21.77zm-2.485 11.59c8.735 0 14.311 3.83 14.311 10.684 0 3.427-2.518 5.712-5.139 7.66-2.553 1.882-5.744 2.823-9.574 2.823h-8.062v-20.963c4.434-.135 7.255-.204 8.465-.204z" style="font-feature-settings:normal;font-variant-caps:normal;font-variant-ligatures:normal;font-variant-numeric:normal"/>
    </g>
    <path d="M0 260.688v72.084c0 14.149 11.5 25.624 25.673 25.624h298.52c14.174 0 25.673-11.475 25.673-25.624v-59.709H25.676c-10.38 0-19.619-4.862-25.673-12.375" fill="#d32"/>
    <path d="M82.513 311.408c0 2.942-1.046 5.3-3.112 7.099-2.067 1.799-4.595 2.699-7.56 2.699H53.727v-6.71H71.84c2.504 0 3.768-1.021 3.768-3.088v-4.303c0-2.212-1.264-3.33-3.768-3.33H47.31v30.024h-6.88v-36.54h31.362c2.99 0 5.519.924 7.61 2.747 2.066 1.848 3.111 4.206 3.111 7.1v4.303M126.934 323.978v-16.945c0-.875-.413-1.653-1.216-2.334-.778-.68-1.653-1.021-2.577-1.021h-20.47c-.924 0-1.774.34-2.577 1.021-.802.68-1.191 1.459-1.191 2.334v16.945c0 2.188 1.264 3.282 3.768 3.282h20.47c2.529 0 3.793-1.094 3.793-3.282zm6.904-.073c0 2.917-1.07 5.276-3.16 7.123-2.115 1.848-4.62 2.772-7.561 2.772H102.72c-2.942 0-5.47-.924-7.56-2.772-2.116-1.847-3.161-4.206-3.161-7.123v-16.872c0-2.723 1.094-5.032 3.282-6.977 2.163-1.921 4.667-2.893 7.439-2.893h20.397c2.771 0 5.251.972 7.44 2.893 2.163 1.945 3.281 4.254 3.281 6.977v16.872M175.404 333.798H155.08c-2.942 0-5.446-.924-7.537-2.772-2.09-1.847-3.136-4.205-3.136-7.123V297.16h6.88v26.816c0 2.213 1.265 3.307 3.793 3.307h20.324v6.515M225.444 303.698h-30.56c-.924 0-1.775.34-2.577.997-.802.68-1.191 1.483-1.191 2.358v1.823c0 2.188 1.264 3.282 3.768 3.282l20.446.073c2.942 0 5.446.876 7.488 2.626 2.14 1.896 3.233 4.279 3.233 7.196v1.896c0 2.748-1.118 5.106-3.282 7.002-2.188 1.896-4.668 2.869-7.415 2.869h-30.56v-6.54h30.56c.924 0 1.8-.316 2.601-.972.778-.657 1.192-1.435 1.192-2.358v-1.897c0-2.212-1.264-3.282-3.793-3.282l-20.422-.073c-2.941 0-5.47-.924-7.56-2.723-2.116-1.847-3.161-4.206-3.161-7.099v-1.823c0-2.723 1.094-5.057 3.282-6.978 2.164-1.944 4.643-2.893 7.415-2.893h30.535v6.516M277.904 333.898h-7.367l-3.379-12.788h-16.726l1.58-6.71h13.371c-.291-1.118-1.215-5.081-1.823-7.293-.608-2.213-1.848-3.331-3.744-3.331h-8.46c-1.92 0-3.185 1.118-3.769 3.355l-6.88 26.767h-7.366l6.88-26.743c1.702-6.613 5.3-9.895 10.697-9.895h9.336c5.47 0 9.02 3.282 10.72 9.895l6.93 26.743M316.074 303.698h-15.292v30.122h-6.905v-30.122h-15.073v-6.516h37.27v6.516" fill="#fff"/>
    <path d="M316.644 13.844a17.5 17.5 0 0 0-12.117 5.094L231.84 89.24l-26.12-26.38a17.501 17.501 0 0 0-12.53-5.364c-15.71-.073-23.552 18.988-12.34 29.992l36.262 36.619c6.7 6.7 10.862 7.398 14.096 7.398 3.06 0 9.47-1.953 14.635-7.117l83.018-80.293c11.633-10.936 3.748-30.461-12.217-30.252z" color="#000" fill="#fff" style="font-feature-settings:normal;font-variant-alternates:normal;font-variant-caps:normal;font-variant-ligatures:normal;font-variant-numeric:normal;font-variant-position:normal;isolation:auto;mix-blend-mode:normal;shape-padding:0;text-decoration-color:#000;text-decoration-line:none;text-decoration-style:solid;text-indent:0;text-orientation:mixed;text-transform:none;white-space:normal"/>
</svg>
