<svg width="211.67mm" height="65.189mm" version="1.1" viewBox="0 0 211.67 65.189" xmlns="http://www.w3.org/2000/svg">
 <g transform="translate(37.264 -39.562)">
  <g transform="matrix(.32595 0 0 .32595 7.7226 123.17)">
   <path class="cls-1" d="m41.641-168.86c-17.39 0-29.66-13-29.66-31.78 0-19 12.45-32 29.76-32 13.94 0 24.19 8.21 27.45 21.71l-12.54 1.07a14.9 14.9 0 0 0-14.74-10.51c-9.63 0-16.33 7.76-16.33 19.6s6.7 19.6 16.33 19.6a14.9 14.9 0 0 0 14.74-10.51l12.54 1.06c-3.21 13.55-13.51 21.76-27.55 21.76" fill="#fff"/>
   <path class="cls-1" d="m88.621-169.04a19.89 19.89 0 0 1-10.07-2.65l2-11.38a16.14 16.14 0 0 0 7.89 2.56c3.08 0 5.74-1.76 7.68-5l-24.9-46.08h14.22l16.68 32.75 14.48-32.75h13.78l-23 49.43c-3.9 8.48-10.51 13.16-18.72 13.16" fill="#fff"/>
   <path class="cls-1" d="m159.68-168.86c-17.39 0-29.67-13-29.67-31.78 0-19 12.45-32 29.76-32 13.95 0 24.19 8.21 27.46 21.71l-12.54 1.07a14.9 14.9 0 0 0-14.71-10.47c-9.63 0-16.34 7.76-16.34 19.6s6.71 19.6 16.34 19.6a14.9 14.9 0 0 0 14.74-10.51l12.54 1.06c-3.28 13.51-13.54 21.72-27.58 21.72" fill="#fff"/>
   <path class="cls-1" transform="translate(-138.02 -256.51)" d="m373.98 35.65h-26.4v51.03h-12.89v-61.8h52.18v61.8h-12.89z" fill="#fff"/>
   <path class="cls-1" d="m339.4-231.63v61.8h-12.89v-51h-20v6.32c0 33.2-4 45.47-14.66 45.47a32.88 32.88 0 0 1-9-1.59l0.88-11.12a14 14 0 0 0 3.8 0.62c5.21 0 6.8-8.66 6.8-37.17v-13.33z" fill="#fff"/>
   <path class="cls-1" d="m260.22-231.63h12.89v61.8h-12.89z" fill="#fff"/>
   <path class="cls-1" d="m350.54-231.63h12.89v22.69h12.55c12.26 0 21 8.12 21 19.51s-8.75 19.59-20.84 19.59h-25.6zm12.89 33.46v17.57h10.68c5.57 0 9.27-3.63 9.27-8.83s-3.79-8.74-9.44-8.74z" fill="#fff"/>
   <path class="cls-1" transform="translate(-138.02 -256.51)" d="m582.73 24.88h12.89v61.8h-12.89v-25.96h-26.75v25.96h-12.89v-61.8h12.89v25.07h26.75z" fill="#fff"/>
   <path class="cls-1" transform="translate(-138.02 -256.51)" d="m619.38 49.86h26.57v10.77h-26.57v15.28h30.01v10.77h-42.9v-61.8h42.46v10.77h-29.57z" fill="#fff"/>
   <path class="cls-2" d="m-38.019-156.51v100c-54.86 0-100-45.14-100-100s45.14-100 100-100z" fill="#9f61ec" Googl="true"/>
   <path class="cls-1" d="m88.411-79.906a20.17 20.17 0 0 1-10.13-2.66l2-11.47a16.17 16.17 0 0 0 7.91 2.58c3.11 0 5.78-1.77 7.73-5.06l-25-46.38h14.3l16.79 33 14.57-33h13.86l-23.18 49.75c-3.92 8.53-10.57 13.24-18.84 13.24" fill="#fff"/>
   <path class="cls-1" d="m312.27-79.906a20.11 20.11 0 0 1-10.12-2.66l2-11.47a16.1 16.1 0 0 0 7.9 2.58c3.11 0 5.78-1.77 7.73-5.06l-25-46.38h14.3l18.46 33 12.89-33h13.86l-23.18 49.75c-3.91 8.53-10.58 13.24-18.84 13.24" fill="#fff"/>
   <path class="cls-1" transform="translate(-138.02 -256.51)" d="m204.91 175.8h-15.81l-18.84-26.3-5.24 0.89v25.41h-12.97v-62.19h12.97v25.24l5.42-0.98 16.88-24.26h15.46l-21.95 30.3z" fill="#fff"/>
   <path class="cls-1" d="m444.11-142.9 24.07 62.19h-13.86l-4.62-12.62h-25.23l-4.62 12.62h-13.87l24.07-62.19zm1.59 38.65-8.61-23.55-8.62 23.55z" fill="#fff"/>
   <path class="cls-1" d="m196.4-142.9h13v22.83h12.58c12.35 0 21.15 8.18 21.15 19.64s-8.8 19.72-21 19.72h-25.73zm13 33.67v17.72h10.75c5.59 0 9.32-3.64 9.32-8.88s-3.81-8.8-9.5-8.8z" fill="#fff"/>
   <path class="cls-1" d="m184.09-142.9v62.64h-13.11v-51.72h-20.27v6.47c0 33.65-4 46.09-14.86 46.09a33.44 33.44 0 0 1-9.12-1.61l0.89-11.28a14 14 0 0 0 3.85 0.63c5.28 0 6.89-8.77 6.89-37.67v-13.55z" fill="#fff"/>
   <path class="cls-1" transform="translate(-138.02 -256.51)" d="m426.93 124.56h-19.29v51.87h-13.1v-51.87h-19.3v-10.95h51.69z" fill="#fff"/>
   <path class="cls-1" d="m362.48-142.9h25.17c12.37 0 21.18 8.19 21.18 19.67s-8.85 19.72-21 19.72h-12.36v22.86h-13zm13 10.86v17.71h10.3c5.61 0 9.35-3.65 9.35-8.9s-3.82-8.81-9.43-8.81z" fill="#fff"/>
  </g>
 </g>
</svg>
