<?xml version="1.0" encoding="UTF-8" standalone="no"?>
<!-- Created with Inkscape (http://www.inkscape.org/) -->
<svg xmlns:rdf="http://www.w3.org/1999/02/22-rdf-syntax-ns#" xmlns="http://www.w3.org/2000/svg" height="338.13" width="600" version="1.1" xmlns:cc="http://creativecommons.org/ns#" xmlns:dc="http://purl.org/dc/elements/1.1/">
 <defs></defs>
 <metadata>
  <rdf:RDF>
   <cc:Work rdf:about="">
    <dc:format>image/svg+xml</dc:format>
    <dc:type rdf:resource="http://purl.org/dc/dcmitype/StillImage"/>
    <dc:title/>
   </cc:Work>
  </rdf:RDF>
 </metadata>
 <g fill-rule="nonzero" transform="translate(151.8055,1503.6974)" fill="#000">
  <path d="m-151.81-1298.3,600,0,0-10.802-600,0,0,10.802z"/>
  <path d="m-151.81-1165.6,600,0,0-10.802-600,0,0,10.802z"/>
  <path d="m167.06-1399.7,1.3923,0,37.271,61.176,44.001,0-33.083-50.295c-3.9614-5.7844-7.8965-11.574-12.073-17.595,20.884-5.1066,33.856-22.234,33.856-43.318,0-33.21-21.551-46.476-58.549-46.476-18.856,0-35.784,0.2259-49.018,1.1611v156.52h36.204v-61.176zm0-66.256c2.091-0.2418,6.2941-0.4624,10.003-0.4624,17.028,0,24.252,7.4079,24.252,19.681,0,13.219-9.7774,21.315-25.166,21.315-3.5096,0-7.2293-0.2313-9.0892-0.4571v-40.076z"/>
  <path d="m-110.41-1367.3c-11.343,0-24.614-3.3625-33.409-6.6199l-1.6129,34.302c9.9613,2.3222,21.362,3.4833,32.243,3.4833,39.961,0,64.276-22.56,64.276-52.964,0-48.934-62.657-39.661-62.657-64.013,0-8.8107,7.2188-15.299,22.366-15.299,9.2625,0,21,2.3221,29.795,4.865l0.07356-31.933c-9.7196-1.8545-20.143-2.7845-28.476-2.7845-39.273,0-63.099,19.444-62.437,48.856,1.1926,51.955,62.663,38.737,62.663,65.41,0,11.128-9.541,16.697-22.823,16.697"/>
  <path d="m85.598-1495-15.772,96.918-15.788-96.918-8.2643,0-19.896,0-8.2696,0-15.772,96.918-15.783-96.918-36.451,0,27.662,156.56,12.678,0,23.779,0,4.387,0,17.711-100.49,17.732,100.49,4.3765,0,23.784,0,12.678,0,27.667-156.56-36.456,0z"/>
  <path d="m276.31-1503.7,0,56.589,30.383,30.383-30.383,30.388,0,56.574,86.247-86.962-86.247-86.972z"/>
  <path d="m353.81-1503.7,0,56.589,30.383,30.383-30.383,30.388,0,56.574,86.258-86.962-86.258-86.972z"/>
  <path d="m-109.11-1258.5c-0.49386-2.669-0.98772-5.133-1.1821-7.6024h-15.898v20.637h13.129c0.29947-2.1751,0.6935-4.2451,1.1874-6.1207h6.7144v20.437h-6.7144c-0.49387-1.8756-0.8879-3.9509-1.1874-6.1207h-13.129v21.425c2.9579,0.1944,6.0209,0.6883,8.59,1.282v6.5148h-27.845v-6.5148c2.5691-0.5937,5.6269-1.0876,8.59-1.282v-51.046c-2.9632-0.1997-6.0209-0.6936-8.59-1.2872v-6.5148h44.138v16.192h-7.802z"/>
  <path d="m-89.469-1208,0-6.5147c2.5691-0.5937,5.6269-1.0877,8.59-1.2873v-51.046c-2.9632-0.1943-6.0209-0.6882-8.59-1.2819v-6.52h44.138v15.998h-7.802c-0.49386-2.7635-0.98772-5.4324-1.1821-7.5024h-15.898v19.944h12.735c0.29947-2.1751,0.69351-4.2451,1.2819-6.1207h6.7144v20.143h-6.7144c-0.58843-1.8757-1.0823-4.1505-1.2819-6.126h-12.735v21.625h15.993c0.19964-2.3694,0.69351-5.0332,1.2872-7.8965h7.7967v16.586h-44.332z"/>
  <path d="m-6.0396-1266.3c-2.0753,0-4.0507,0.1-5.6269,0.1944v21.131c0.98247,0.1,2.8633,0.1997,5.2328,0.1997,8.6899,0,13.917-4.4448,13.917-11.059,0-7.3082-4.5393-10.466-13.523-10.466m14.122,58.255-18.073-28.833-1.676,0,0,21.031c2.2697,0.1996,4.6391,0.5937,6.809,1.1874v6.6145h-26.064v-6.5147c2.5691-0.5937,5.6269-1.0876,8.59-1.2872v-51.046c-2.9632-0.1944-6.0209-0.6883-8.59-1.2819v-6.5201h7.7021c2.5639,0,10.565-0.394,18.662-0.394,13.823,0,23.301,4.8388,23.301,18.068,0,10.072-7.3081,16.692-17.574,18.268,1.3818,1.6812,2.7635,3.6567,3.9509,5.5323l11.553,17.28c2.07,0.2942,4.5393,0.6883,7.1032,1.1821v6.7144h-15.693z"/>
  <path d="m97.138-1266.9,0,58.848-13.923,0-23.301-37.917c-3.063-4.9386-5.3327-9.6775-7.4079-14.022,0.59368,10.865,0.59368,26.958,0.59368,44.138,2.5691,0.1996,5.2328,0.5937,7.6023,1.1874v6.6146h-26.558v-6.52c2.5691-0.5885,5.6269-1.0824,8.59-1.282v-51.046c-2.9632-0.1996-6.0209-0.6935-8.59-1.2871v-6.5149h22.613l23.007,37.618c2.9579,4.8441,5.133,9.0891,7.5971,13.923-0.58843-10.566-0.68825-25.965-0.68825-43.738-2.4693-0.1996-5.0332-0.5937-7.2083-1.1873v-6.6147h24.289v6.6147c-2.07,0.4938-4.3449,0.9877-6.6146,1.1873"/>
  <path d="m132.48-1207c-5.2328,0-10.366-0.5884-14.616-1.676v-16.686h7.9018c0.49385,3.0578,0.98772,5.9211,1.1874,8.3904,1.7758,0.394,4.0455,0.6936,5.9211,0.6936,7.6023,0,13.529-3.0631,13.529-10.271,0-14.017-29.721-7.8966-29.721-29.621,0-11.453,8.8842-19.45,24.189-19.45,4.7442,0,8.8895,0.4939,13.329,1.3818v16.092h-7.8965c-0.59368-2.8633-0.98772-5.7266-1.1874-8.0962-1.0823-0.1943-3.0577-0.4939-4.6392-0.4939-8.3904,0-12.541,3.8512-12.541,9.3834,0,13.329,29.821,8.3904,29.821,29.222,0,12.247-9.6776,21.131-25.276,21.131"/>
  <path d="m170.49-1208,0-6.5147c2.5691-0.5937,5.6269-1.0877,8.59-1.2873v-51.046c-2.9632-0.1943-6.0209-0.6882-8.59-1.2819v-6.52h44.138v15.998h-7.802c-0.49386-2.7635-0.98772-5.4324-1.1821-7.5024h-15.898v19.944h12.735c0.29421-2.1751,0.69351-4.2451,1.2872-6.1207h6.7092v20.143h-6.7092c-0.59369-1.8757-1.0876-4.1505-1.2872-6.126h-12.735v21.625h15.993c0.19964-2.3694,0.69351-5.0332,1.2872-7.8965h7.7967v16.586h-44.332z"/>
  <path d="m272.19-1208,0-6.6145c2.2697-0.5938,5.0332-0.9879,7.6023-1.1875v-22.113h-31.497v22.113c2.5691,0.1996,5.3327,0.5937,7.6023,1.1875v6.6145h-26.858v-6.5147c2.5691-0.5937,5.6269-1.0877,8.59-1.2873v-51.046c-2.9632-0.1943-6.0209-0.6882-8.59-1.2819v-6.52h26.858v6.6146c-2.2697,0.5936-5.0332,0.993-7.6023,1.1873v19.749h31.497v-19.749c-2.5691-0.1943-5.3327-0.5937-7.6023-1.1873v-6.6146h26.958v6.52c-2.5691,0.5937-5.6321,1.0876-8.59,1.2819v51.046c2.9579,0.1996,6.0209,0.6936,8.59,1.2873v6.5147h-26.958z"/>
  <path d="m311.88-1208,0-6.5147c2.5691-0.5937,5.6269-1.0877,8.59-1.2873v-51.046c-2.9632-0.1943-6.0209-0.6882-8.59-1.2819v-6.52h44.138v15.998h-7.802c-0.49387-2.7635-0.98773-5.4324-1.1821-7.5024h-15.898v19.944h12.735c0.29421-2.1751,0.69351-4.2451,1.282-6.1207h6.7144v20.143h-6.7144c-0.58844-1.8757-1.0823-4.1505-1.282-6.126h-12.735v21.625h15.993c0.19964-2.3694,0.69351-5.0332,1.2872-7.8965h7.7967v16.586h-44.332z"/>
  <path d="m433.42-1266.9,0,58.848-13.923,0-23.301-37.917c-3.063-4.9386-5.3327-9.6775-7.4027-14.022,0.58843,10.865,0.58843,26.958,0.58843,44.138,2.5691,0.1996,5.2328,0.5937,7.6023,1.1874v6.6146h-26.558v-6.52c2.5691-0.5885,5.6269-1.0824,8.59-1.282v-51.046c-2.9632-0.1996-6.0209-0.6935-8.59-1.2871v-6.5149h22.613l23.007,37.618c2.9579,4.8441,5.133,9.0891,7.6023,13.923-0.59368-10.566-0.6935-25.965-0.6935-43.738-2.4693-0.1996-5.0332-0.5937-7.2083-1.1873v-6.6147h24.289v6.6147c-2.07,0.4938-4.3449,0.9877-6.6146,1.1873"/>
 </g>
</svg>
