<svg width="800mm" height="385mm" version="1.1" viewBox="0 0 800 385" xmlns="http://www.w3.org/2000/svg">
 <g transform="translate(59.827 -101.26)">
  <path d="m465.79 160.26 31.685 31.686-31.685 31.685v58.998l89.94-90.683-89.94-90.687zm-80.814 0 31.684 31.686-31.684 31.685v58.998l89.942-90.683-89.942-90.687zm-444.81-3.1123v0.4797c1e-3 0.33898 6e-3 0.67798 0.01391 1.0183 1.2357 54.167 65.342 40.389 65.342 68.203 0 11.609-9.9579 17.413-23.799 17.413-11.839 0-25.674-3.5153-34.85-6.9014l-1.6695 35.759c10.381 2.4241 22.266 3.6368 33.615 3.6368 41.674 0 67.031-23.521 67.031-55.228 0-51.032-65.344-41.359-65.344-66.752 0-9.1899 7.5304-15.963 23.316-15.963 9.6686 0 21.906 2.4331 31.08 5.0938l0.08046-33.308c-10.143-1.9291-21.008-2.8949-29.704-2.8949-40.278 0-64.98 19.607-65.112 49.444m293.15-45.98v163.2h37.734v-63.786h1.4558l38.868 63.786h45.874l-34.503-52.431c-4.1127-6.0405-8.2267-12.08-12.58-18.359 21.776-5.3152 35.317-23.192 35.317-45.176 0-34.621-22.493-48.449-61.066-48.449-19.655 0-37.314 0.2431-51.1 1.214m37.734 72.117v-41.792c2.1875-0.24189 6.5624-0.48484 10.45-0.48484 17.743 0 25.277 7.7316 25.277 20.535 0 13.768-10.209 22.225-26.251 22.225-3.6445 0-7.5346-0.24189-9.4765-0.48354m-84.948-72.18-16.45 101.07-16.447-101.07h-37.997l-16.447 101.07-16.451-101.07h-38.012l28.849 163.26h42.583l18.476-104.79 18.478 104.79h42.581l28.849-163.26h-38.013"/>
  <path d="m688.67 373.54c0-12.692-7.5666-21.477-25.139-21.477-5.6132 0-11.715 0.48738-11.715 0.48738v42.711s5.3689 0.24431 10.739 0.24431c16.109 0 26.115-7.8096 26.115-21.966zm51.5 109.57h-45.717l-35.555-62.647h-6.2899v62.647h-37.733v-163.27s23.22-1.2076 51.522-1.2076c39.184 0 62.404 14.271 62.404 49.102 0 24.671-13.787 39.425-32.655 45.716 0 0 6.7735 9.4327 11.852 17.898zm-155.04-163.27h-37.25v101.35c0 24.431-8.2228 33.379-29.509 33.379-23.22 0-29.267-12.093-29.267-31.202v-103.53h-37.733v105.7c0 32.652 12.577 60.711 64.582 60.711 43.297 0 69.178-21.285 69.178-67.241zm-148.03 32.171v-32.171h-115.86v32.171h39.185v131.1h37.49v-131.1zm-100.14 131.1v-32.896h-49.343v-130.37h-37.733v163.27zm-116.82-163.27h-37.25v101.35c0 24.431-8.2241 33.379-29.51 33.379-23.219 0-29.266-12.093-29.266-31.202v-103.53h-37.733v105.7c0 32.652 12.577 60.711 64.582 60.711 43.297 0 69.178-21.285 69.178-67.241zm-192.78 163.27-44.265-76.676v76.676h-37.733v-163.27h37.733v72.081l44.748-72.081h45.231l-53.697 78.37 56.841 84.901h-48.859"/>
 </g>
</svg>
