<svg xmlns="http://www.w3.org/2000/svg" height="140.38" width="600">
    <defs>
        <linearGradient id="a" y2="325.49" gradientUnits="userSpaceOnUse" y1="353.66" gradientTransform="translate(-177.543 -689.177) scale(2.00543)" x2="302.81" x1="274.64">
            <stop stop-color="#001a4b" offset="0"/>
            <stop stop-color="#001a4b" stop-opacity="0" offset="1"/>
        </linearGradient>
    </defs>
    <path d="M489.64-9.399c-38.765 0-70.19 31.425-70.19 70.19s31.425 70.19 70.19 70.19 70.19-31.425 70.19-70.19-31.425-70.19-70.19-70.19zm0 14.038c31.012 0 56.152 25.14 56.152 56.152s-25.14 56.152-56.152 56.152-56.152-25.14-56.152-56.152S458.628 4.64 489.64 4.64z" fill="url(#a)" transform="translate(40.17 9.399)"/>
    <path fill-rule="evenodd" fill="#001a4b" d="M427.71 34.025c-12.186 0-22.045 9.923-22.045 22.082 0 12.229 9.858 22.154 22.046 22.154 12.182 0 22.082-9.925 22.082-22.154 0-12.158-9.9-22.082-22.082-22.082zm0 3.247c10.346 0 18.87 8.46 18.87 18.834 0 10.444-8.525 18.907-18.87 18.907-10.344 0-18.87-8.463-18.87-18.907 0-10.374 8.527-18.834 18.87-18.834zm8.985 5.665l-22.262 8.01v5.448l7.324-2.634v16.633l14.938-5.268v-22.19zM271.48 37.163v60.226h10.53V77.585c0-7.18 4.224-13.286 9.588-13.286 3.879 0 5.014 2.602 5.014 6.893v26.196h10.529V68.623c0-7.18-2.978-13.098-12.221-13.098-6.355 0-11.081 3.025-13.474 7.646l-.188-.062c.578-2.393.752-5.86.752-8.335v-17.61h-10.53zM15.104 41.049l-6.205 1.754v13.6H0v4.888h8.9V85.92c0 8.5 2.4 12.158 10.653 12.158 2.559 0 5.438-.32 7.583-.815v-5.39c-1.65.496-3.765.752-5.828.752-4.869 0-6.204-1.867-6.204-9.212V61.291h12.033v-4.888H15.104V41.049zM508.38 44.684c-2.821 0-5.71.282-8.648.814a62.784 62.784 0 0 0-8.962 2.256v11.343c2.822-1.757 5.485-3.069 7.96-3.948 2.474-.902 4.749-1.379 6.83-1.379 2.706 0 4.9.776 6.518 2.256 1.642 1.48 2.444 3.4 2.444 5.829a9.319 9.319 0 0 1-1.19 4.575c-.81 1.457-2.072 2.923-3.76 4.45l-18.927 16.732v9.777h37.664v-9.777h-22.812l11.093-9.714c4.672-4.093 7.693-7.348 9.15-9.776a15.398 15.398 0 0 0 2.193-7.96c0-4.88-1.692-8.676-5.138-11.405-3.423-2.73-8.216-4.074-14.414-4.074zM552.73 45.607l-20.71 30.922v11.474h22.912v9.38h12.664v-9.38h7.324V78.26h-7.324V45.608H552.73zm2.202 10.969V78.26h-14.65l14.65-21.685zM216.96 55.526c-11.553 0-17.421 5.918-17.421 13.098 0 13.947 16.545 9.783 16.545 17.046 0 2.723-2.6 4.386-6.643 4.386-3.136 0-6.278-.53-8.837-1.19l-.25 8.648c2.64.413 5.614.752 8.585.752 11.223 0 18.3-5.449 18.3-13.537 0-13.286-16.795-10.362-16.795-17.046 0-2.558 1.953-4.199 6.08-4.199 2.558 0 5.272.405 7.582 1.066l.314-8.335c-2.476-.413-5.065-.69-7.458-.69zM333.29 55.529c-5.281 0-10.558 1.004-14.684 2.49l.938 8.84c3.466-1.982 8.41-3.176 12.123-3.176 5.942 0 8.01 2.203 8.01 6.494v2.201c-13.947 0-23.705 5.226-23.705 15.046 0 6.602 4.299 10.824 11.726 10.824 6.107 0 11.117-3.208 13.097-7.83l.144.072c-.33 2.146-.433 4.499-.433 6.892h9.959a227.112 227.112 0 0 1-.253-10.536V69.744c0-8.913-3.718-14.216-16.922-14.216zm6.387 23.74v1.01c0 4.952-3.569 9.887-8.768 9.887-3.053 0-4.835-1.725-4.835-4.366 0-3.3 2.462-6.53 13.603-6.53zM51.06 55.637c-5.53 0-10.265 1.333-14.144 3.067l.577 5.484c3.631-2.31 8.559-3.572 12.52-3.572 7.097 0 9.345 3.444 9.345 9.634v3.391c-16.01 0-24.968 5.958-24.968 14.541 0 6.52 4.702 9.959 11.22 9.959 7.016 0 12.309-4.219 14.289-9.418h.216c-.412 2.394-.469 5.524-.469 8.66h6.098c-.164-3.631-.143-8.224-.143-12.268V68.987c0-7.758-3.235-13.35-14.54-13.35zm8.298 22.587v.613c0 7.097-4.789 14.288-12.05 14.288-4.044 0-6.712-2.348-6.712-6.062 0-3.96 3.33-8.84 18.762-8.84zM95.945 55.637c-11.141 0-17.86 7.293-17.86 15.876 0 5.281 2.007 9.513 6.133 11.907-2.888 1.32-4.582 3.833-4.582 6.638 0 2.641 1.591 4.798 4.15 5.954-3.88 1.98-7.072 5.78-7.072 10.897 0 7.84 6.704 12.05 17.102 12.05 12.626 0 21.504-6.452 21.504-15.117 0-7.18-4.87-11.546-13.783-11.546h-7.974c-5.117 0-7.47-1.035-7.47-3.428 0-1.485 1.005-3.01 3.068-3.752 1.485.33 3.694.54 5.592.54 11.801 0 17.86-6.658 17.86-15.406 0-3.879-1.54-7.05-3.932-8.948h7.396v-4.907H102.15c-2.146-.495-3.895-.758-6.206-.758zM94.32 60.47c.42-.033.855 0 1.299 0 6.767 0 10.788 3.754 10.788 10.355 0 6.603-4.382 10.283-11.15 10.283-6.931 0-10.968-3.598-10.968-10.283 0-5.647 3.72-9.852 10.03-10.355zm-5.593 37.091c.743.084 1.81.072 2.634.072h8.48c6.271 0 9.344 2.662 9.344 7.036 0 5.446-5.292 9.273-14.288 9.273-6.85 0-11.979-2.8-11.979-8.082 0-3.467 2.26-6.484 5.81-8.299zM140.68 55.637c-11.388 0-17.967 9.208-17.967 21.504 0 14.359 6.6 20.999 18.979 20.999 5.116 0 9.734-.886 13.53-2.454l-.542-5.268c-3.053 1.568-7.615 2.634-11.907 2.634-9.16 0-14.015-5.13-13.603-17.427h27.386c.165-1.238.18-2.324.18-3.067 0-9.078-4.75-16.922-16.055-16.922zm-.288 4.726c6.272 0 10.051 4.29 9.886 10.644H129.46c.993-6.437 5.158-10.644 10.94-10.644zM181.3 55.65c-10.397 0-15.98 5.184-15.98 12.034 0 14.607 19.929 8.459 19.929 18.362 0 4.29-4.086 6.893-10.027 6.893-3.219 0-6.572-.573-9.213-1.316l-.125 5.703c2.476.495 5.595.815 8.648.815 10.728 0 17.172-5.648 17.172-12.91 0-13.947-20.054-8.354-20.054-18.174 0-4.044 3-6.518 9.025-6.518 2.805 0 5.737.471 8.46 1.379l.188-5.327c-2.558-.495-5.463-.94-8.022-.94zM254.63 55.65c-14.523 0-21.181 9.833-21.181 22.625 0 13.947 7.099 19.866 18.488 19.866 4.373 0 8.412-.808 11.218-1.88l-.815-9.025c-2.228 1.155-5.279 1.755-8.084 1.755-7.015 0-9.777-4.767-9.777-11.782 0-7.757 3.405-12.722 10.09-12.722 2.64 0 5.23.679 7.458 1.504l1.065-9.15c-2.64-.742-5.654-1.19-8.46-1.19zM361.73 56.403V85.23c0 7.18 2.978 13.098 12.222 13.098 6.767 0 11.437-3.404 13.913-8.273l.125.126c-.413 2.145-.501 5.308-.501 7.206h9.901V56.402H386.8v19.804c0 7.18-4.1 13.286-9.464 13.286-3.96 0-5.139-2.54-5.139-6.83v-26.26h-10.466z"/>
</svg>
