<svg version="1.1" viewBox="0 0 800 883.6" xml:space="preserve" xmlns="http://www.w3.org/2000/svg">
	<style type="text/css">
		.st0{fill:#FB981B;}
	</style>
	<path class="st0" d="m548.45 687.35c-5.2257 0.58064-8.0784 1.1613-10.931 1.1613-87.903-0.17671-175.81-0.37867-263.71-0.63112-17.268-0.0505-15.601 1.4137-15.601-16.207 0-161.29 0-322.58-0.0252-483.87 0-15.93-0.12623-15.955-16.308-15.955h-227.96c-13.456 0-13.506-0.0252-13.531-13.38-0.10102-50.01-0.10102-100.02-0.37871-150.03-0.025245-4.9732 1.8681-6.9676 6.2355-7.2705 4.4179-0.30294 8.8357-0.37867 13.279-0.37867 212.28 0 424.57 0.025245 636.85-0.05049 40.897 0 81.768-0.58063 122.67-0.7321 13.557-0.05049 13.784 0.25245 13.733 13.658-0.25245 48.647-0.58064 97.294-0.90882 145.94 0 3.2314-0.5049 6.4879-0.90882 11.486-10.123-5.2509-18.631-9.8708-27.34-14.112-40.013-19.489-82.324-27.82-126.75-25.624-43.8 2.1711-84.545 14.794-121.6 37.817-32.945 20.448-60.992 46.501-83.384 78.562-33.879 48.521-51.828 102.19-53.721 161.19-1.9438 60.462 12.875 116.63 44.835 168.08 17.57 28.274 39.508 53.014 66.318 72.756 16.333 12.017 34.51 21.559 51.828 32.238 1.8681 1.1613 3.5595 2.575 7.3715 5.3267z"/>
	<path fill="#FFF" d="m660.81 540.93h13.102c36.125 0 72.226 0 108.35 0.0253 11.184 0 12.017 0.7321 12.017 11.259 0.0505 30.622 0.0505 61.244-0.0757 91.866-0.0505 11.411-1.3632 12.42-12.37 11.613-4.4179-0.32818-8.8357-0.40392-13.279-0.40392-79.042 0-158.08 0-237.15-0.0252-3.9887 0-7.9774-0.37867-13.456-0.65637 1.6914-13.102 2.7264-25.22 4.8723-37.135 9.896-54.983 32.768-104.19 68.187-147.3 23.276-28.35 47.536-55.892 71.292-83.838 13.026-15.324 25.624-31.026 33.525-49.732 10.552-24.992 13.228-50.035-2.7012-74.043-14.642-22.064-40.796-22.165-55.817-0.30294-9.5678 13.885-11.916 30.218-14.415 46.35-2.1458 13.91-1.7924 13.456-15.98 11.512-24.286-3.3576-48.647-6.2102-73.008-8.8862-5.6549-0.63113-9.0377-1.9186-8.2803-8.457 4.4936-39.079 10.603-77.679 35.191-110.27 18.075-23.957 42.083-38.145 72.2-41.275 27.921-2.9032 55.64-2.9537 83.081 4.7965 28.274 8.0026 48.243 25.8 62.506 50.667 14.92 26.028 20.65 54.403 21.332 84.116 1.2875 55.589-16.889 104.36-52.509 146.42-21.483 25.396-45.012 49.051-67.252 73.816-7.624 8.4823-14.112 18-21.13 27.037 0.58063 0.93406 1.1865 1.8934 1.7671 2.8274z"/>
	<g transform="matrix(.25245 0 0 .25245 -41.805 .0035492)" stroke-width="3.9612">
		<path class="st0" d="m389.1 3483.3v-535h-185.1v-73.7h450.2v73.7h-184.2v535h-81z"/>
		<path class="st0" d="m691.1 3483.3 221.9-609.6h89.5l222.7 609.6h-82.2l-64.3-179.1h-242.9l-64.3 179.1h-80.5zm172.6-253.6h188.1l-94.2-268.6-93.8 268.6z"/>
		<path class="st0" d="m1300.6 3483.3v-608.7h210.8c60.5 0 106.4 14.9 137.5 44.5 31.1 29.7 46.7 73.2 46.7 130.7s-5.2 57.7-15.6 81.4-25.9 43.7-46.5 60c-16.6 12.9-35.4 21.9-56.5 27.2s-56.4 7.9-105.8 7.9h-89.5v257zm188.9-534.2h-107.9v202.6h101.5c47.7 0 81-7.9 99.8-23.6s28.3-41.8 28.3-78.4-9.2-61.8-27.6-77.3c-18.4-15.6-49.8-23.3-94-23.3z"/>
		<path class="st0" d="m1829.7 3483.3v-608.7h379.1v73.7h-298.1v182.5h272v72.8h-272v206h305v73.7h-385.9z"/>
		<path class="st0" d="m2403.7 3282.4c0 44.3 13 79.3 39 105.2 26 25.8 61 38.8 104.9 38.8s72-10.1 96.2-30.2c24.1-20.1 36.2-46.9 36.2-80.3s-42.8-79.2-128.5-102.4c-17.1-4.6-30.4-8.1-39.8-10.7-68.8-19.4-114.2-40.9-136.2-64.5s-33-56.5-33-98.7 17.8-97.6 53.5-130.9 82.4-49.9 140.1-49.9 117.1 17.1 153.4 51.2 54.4 82.3 54.4 144.6v1.7h-79.7c-3.1-40.6-15.5-71.6-37.1-93.2s-51-32.3-88.5-32.3-62.2 8.8-82.9 26.3c-20.7 17.6-31.1 40.9-31.1 70s7.8 50.5 23.3 64.3c15.6 13.7 56.6 28.3 123.2 43.7 77.4 18 128.3 39.4 152.7 64.3s36.6 60.7 36.6 107.5-19.5 106.1-58.5 140.9-91.6 52.3-157.9 52.3-120.6-18.8-158.7-56.5-58.8-91.4-61.9-161.1h80.1z"/>
		<path class="st0" d="m2866.7 3483.3v-608.7h81.8v248h243.7v-248h81v608.7h-81v-286.1h-243.7v286.1z"/>
	</g>
</svg>
