<svg width="159.17mm" height="211.67mm" version="1.1" viewBox="0 0 159.17 211.67" xmlns="http://www.w3.org/2000/svg">
 <g transform="translate(30.895 -25.259)">
  <g transform="matrix(.30747 0 0 .32385 33.327 89.726)" stroke-width="1.9954" style="font-feature-settings:normal;font-variant-caps:normal;font-variant-ligatures:normal;font-variant-numeric:normal" aria-label="POLSKA">
   <path d="m-138.03 355.84h-22.584v97.584h15.335v-36.664h7.2491c15.335 0 22.862-8.5037 22.862-24.117v-12.686c0-15.613-7.5279-24.117-22.862-24.117zm0 13.941c4.8792 0 7.5279 2.2305 7.5279 9.2008v14.638c0 6.9703-2.6487 9.2008-7.5279 9.2008h-7.2491v-33.039z"/>
   <path d="m-63.373 378.28c0-6.9703 3.0669-9.619 7.9461-9.619s7.9461 2.6487 7.9461 9.619v52.695c0 6.9703-3.0669 9.619-7.9461 9.619s-7.9461-2.6487-7.9461-9.619zm-15.335 51.719c0 15.613 8.2249 24.535 23.281 24.535s23.281-8.922 23.281-24.535v-50.744c0-15.613-8.2249-24.535-23.281-24.535s-23.281 8.922-23.281 24.535z"/>
   <path d="m8.4281 453.42h40.567v-13.941h-25.232v-83.643h-15.335z"/>
   <path d="m84.734 379.26c0 27.881 29.972 31.645 29.972 51.719 0 6.9703-3.0669 9.4796-7.9461 9.4796s-7.9461-2.5093-7.9461-9.4796v-7.6673h-14.498v6.6915c0 15.613 7.8067 24.535 22.862 24.535 15.056 0 22.862-8.922 22.862-24.535 0-27.881-29.972-31.645-29.972-51.719 0-6.9703 2.7881-9.619 7.6673-9.619s7.6673 2.6487 7.6673 9.619v4.7398h14.498v-3.764c0-15.613-7.6673-24.535-22.584-24.535-14.916 0-22.584 8.922-22.584 24.535z"/>
   <path d="m204.29 453.42h15.753l-21.329-54.089 21.329-43.494h-15.056l-20.353 42.519v-42.519h-15.335v97.584h15.335v-29.972l4.7398-8.922z"/>
   <path d="m291.65 355.84h-22.444l-15.613 97.584h14.08l2.6487-17.704h18.82l2.6487 17.704h15.474zm-11.989 17.286 7.3885 49.35h-14.777z"/>
  </g>
  <g transform="matrix(.31281 0 0 .31832 33.327 89.726)" style="font-feature-settings:normal;font-variant-caps:normal;font-variant-ligatures:normal;font-variant-numeric:normal" aria-label="TBN">
   <path d="m-69.974-167.47h-45.697v493.68h-43.936v-493.68h-45.697v-33.554h135.33z" stroke-width="10.141"/>
   <path d="m98.767 274.14c0 19.768 2.2047 33.51-9.3999 41.224-11.121 7.2323-28.045 10.848-50.77 10.848h-77.757v-527.24h77.757c22.726 0 39.649 3.8572 50.77 11.572 11.605 7.2323 9.3999 20.733 9.3999 40.501v156.59c0 13.018 3.8971 17.94-4.3229 24.208-7.7364 5.7859-19.583 11.174-35.539 14.067v-0.97772c15.956 1.4465 27.803 11.641 35.539 16.945 8.22 5.3037 4.3229 14.706 4.3229 28.206zm-47.759-419.4c0-14.465-6.0441-21.697-18.132-21.697h-29.081v195.65h29.081c12.088 0 18.132-6.9913 18.132-20.974zm0.5338 226.11c0-13.983-6.0441-20.974-18.132-20.974h-29.615v225.52h29.615c12.088 0 18.132-6.9913 18.132-20.974z" stroke-width="10.367"/>
   <path d="m129.72 326.21v-528.74h59.001l74.501 450.25v-450.25h40.318v528.74h-61.67l-71.832-437v437z" stroke-width="10.331"/>
  </g>
 </g>
</svg>
