<svg width="667.32pt" height="169.95pt" version="1.1" viewBox="0 0 667.32 169.95" xmlns="http://www.w3.org/2000/svg">
 <g transform="matrix(.9576 0 0 .9576 0 .0009576)" fill="#282828" stroke-width="2.5105">
  <path d="m54.477 20.335h-54.477l15.565-16.067h38.912zm9.7908-16.067h39.414v98.41h-51.213l11.548-11.548v-86.862zm66.025 16.067v70.795l11.548 11.548h-28.368v-98.41h81.088l-15.565 16.067z"/>
  <path d="m396.15 30.126 16.82 17.322v55.23h-28.368l11.548-11.548zm43.18-25.858 54.728 56.234-26.611 29.623-82.343-85.858zm82.845 0h39.414v98.41h-39.414v-73.556l-21.59 24.1-47.197-48.954h23.096l23.598 24.351zm66.025 86.611 11.548 11.548h-28.368v-98.159h28.619l-11.548 11.548v75.063z"/>
  <path d="m241.26 45.188c0 22.343 17.322 46.192 52.971 46.192 34.895 0 52.72-17.573 56.736-20.837l9.0377 11.548c-5.7741 4.2678-26.36 24.1-72.552 24.1-35.649 0-90.126-12.552-90.126-53.222 0-32.636 42.176-50.962 72.803-52.469-12.301 3.7657-28.87 17.824-28.87 44.686zm61.506-30.126c-23.598 0-38.41 11.046-38.41 33.64 0 14.059 6.5272 26.611 13.305 32.385-13.054-2.2594-26.611-20.084-26.611-35.9 0-31.13 25.105-45.188 48.201-45.188 15.565 0 28.368 4.5188 44.184 12.05l11.297-10.042v37.908c-12.552-14.059-32.887-24.854-51.967-24.854z"/>
 </g>
 <g transform="matrix(.29892 0 0 .29892 -28.21 -4.47)" fill="#282828">
  <path d="m867.59 430.54a77.991 76.482 0 0 0-77.991 76.482 77.991 76.482 0 0 0 77.991 76.481 77.991 76.482 0 0 0 77.99-76.481 77.991 76.482 0 0 0-77.99-76.482zm0 29.985a45.828 46.497 0 0 1 45.828 46.497 45.828 46.497 0 0 1-45.828 46.496 45.828 46.497 0 0 1-45.829-46.496 45.828 46.497 0 0 1 45.829-46.497z" style="paint-order:stroke fill markers"/>
  <path d="m1575.3 443.32c10.6-9.16 25.06-12.17 38.73-12.33 10.96-0.11 22.25 1.59 31.99 6.89 7.61 4.09 13.91 10.64 17.5 18.53 3.17 6.78 4.35 14.325 4.45 21.765h-31.32c-0.25-4.39-1.47-8.915-4.67-12.095-5.39-5.48-13.62-6.9-20.99-6.23-5.15 0.52-10.55 2.08-14.22 5.94-3.78 3.88-4.17 10.72-0.4 14.75 3.64 3.91 8.94 5.59 13.91 7.14 12.62 3.61 25.73 5.82 37.71 11.4 7.15 3.29 13.87 8.06 18.24 14.74 4.89 7.33 6.42 16.42 5.98 25.11-0.39 10.49-4.31 21.01-11.75 28.55-10.74 10.99-26.53 15.35-41.52 15.66-15.83 0.48-32.67-3.44-44.51-14.5-9.9-9.05-14.64-22.66-14.5-35.88h31.92c0.1 5.81 2.38 11.75 7.06 15.39 7.21 5.67 17.24 6.69 25.95 4.51 5.1-1.35 10.17-4.06 13.07-8.64 2.89-4.52 3.02-11.07-0.71-15.17-3.57-3.89-8.74-5.68-13.64-7.21-12.93-3.72-26.44-5.74-38.72-11.46-6.98-3.2-13.49-7.94-17.56-14.55-5.13-8.2-6.07-18.34-4.86-27.75 1.17-9.37 5.63-18.4 12.86-24.56z"/>
  <path transform="scale(.75)" d="m707.55 773.5h43.094l19.262-127.03 58.178 127.03h10.414l58.176-127.03 19.264 127.03h43.094l-30.588-195.15h-42.146l-53.008 119.16-53.006-119.16h-42.146z" stroke-width="1.3333"/>
  <path transform="scale(.75)" d="m1346.1 578.35 76.373 195.15h37.375l76.373-195.15h-46.08l-48.98 137.75-48.98-137.75z" stroke-width="1.3333"/>
  <path d="m1241.6 433.76h31.675v146.36h-31.675z"/>
  <path d="m1378.8 433.76h87.935v29.295h-56.225v28.89h50.72v28.795h-50.72v29.955h58.52v29.43h-90.23z"/>
  <path d="m129.37 491.45-30.167 31.14h299.5l30.167-31.14z" stroke-width="4.8657"/>
  <path d="m2071.4 491.45 30.167 31.14h-299.5l-30.167-31.14z" stroke-width="4.8657"/>
 </g>
 <g transform="matrix(.32417 0 0 .32417 0 114.86)" fill="#282828">
  <path d="m1975.4-236.87c3.6959 0 5.667-1.9712 5.667-5.6671v-13.552c0-3.6959-1.9711-5.6671-5.667-5.6671h-41.887v-41.641c0-3.6959-1.9711-5.6671-5.667-5.6671h-13.552c-3.6959 0-5.6671 1.9712-5.6671 5.6671v41.641h-41.641c-3.6959 0-5.6671 1.9712-5.6671 5.6671v13.552c0 3.6959 1.9712 5.6671 5.6671 5.6671h41.641v41.887c0 3.6959 1.9712 5.6671 5.6671 5.6671h13.552c3.6959 0 5.667-1.9712 5.667-5.6671v-41.887z"/>
  <path d="m2052.8-180.44c3.6959 0 5.667-1.9712 5.667-5.6671v-142.42c0-3.6959-1.9711-5.6671-5.667-5.6671h-12.566c-2.7104 0-4.9279 0.73919-7.1455 2.2176l-44.351 32.77c-2.7104 2.2176-3.2031 4.9279-1.232 8.131l8.131 11.088c2.2176 3.2031 4.6815 3.4495 7.8846 1.232l26.857-19.712v112.36c0 3.6959 1.9712 5.6671 5.6671 5.6671z"/>
 </g>
</svg>
