<?xml version="1.0" encoding="utf-8"?>
<!-- Generator: Adobe Illustrator 21.1.0, SVG Export Plug-In . SVG Version: 6.00 Build 0)  -->
<svg version="1.1" id="Layer_1" xmlns="http://www.w3.org/2000/svg" xmlns:xlink="http://www.w3.org/1999/xlink" x="0px" y="0px"
	 viewBox="0 0 176.5 78" style="enable-background:new 0 0 176.5 78;" xml:space="preserve">
<style type="text/css">
	.st0{fill:#FFFFFF;}
</style>
<title>logo_novi</title>
<path class="st0" d="M165.7,30.6c3.7,0,6.7-2.5,6.7-5.5s-3-5.5-6.7-5.5s-6.7,2.5-6.7,5.5S162,30.6,165.7,30.6 M46.9,30.6
	c3.7,0,6.7-2.5,6.7-5.5s-3-5.5-6.7-5.5s-6.7,2.5-6.7,5.5S43.2,30.6,46.9,30.6 M38.2,64.9c0-0.3,0.2-0.5,0.4-0.7
	c0.7-0.7,3.3-1.6,3.5-4.4V42.5c0.1-2-0.9-4-2.6-5.1c0,0-1.3-0.7,0-1c2.2-0.4,4.4-0.9,6.5-1.6c1.9-0.7,3.8-1.5,5.6-2.5
	c0,0,1.2-0.9,1.3,0.6c0.1,1.5,0,26.7,0,26.7c0.2,2.8,2.7,3.6,3.5,4.4c0.2,0.2,0.4,0.4,0.4,0.7H38.2 M157,64.9c0-0.3,0.2-0.5,0.4-0.7
	c0.7-0.7,3.3-1.6,3.5-4.4V42.5c0.1-2-0.9-4-2.6-5.1c0,0-1.3-0.7,0-1c2.2-0.4,4.4-0.9,6.5-1.6c1.9-0.7,3.8-1.5,5.6-2.5
	c0,0,1.2-0.9,1.3,0.6c0.1,1.5,0,26.7,0,26.7c0.2,2.8,2.7,3.6,3.5,4.4c0.2,0.2,0.4,0.4,0.4,0.7H157 M65.3,30c3.7,0,6.7-2.5,6.7-5.5
	S69,19,65.3,19s-6.7,2.5-6.7,5.5S61.6,30,65.3,30"/>
<path class="st0" d="M60,65.2c0.1-0.3,0.2-0.7,0.2-1.1c0.3-1,0.3-2.4,0.2-5.2V41.7c0.1-2-0.9-4-2.6-5.1c0,0-1.3-0.7,0-1
	c2.2-0.4,4.4-0.9,6.5-1.6c1.9-0.7,3.8-1.5,5.6-2.5c0,0,1.2-0.9,1.3,0.6c0.1,1.5,0,35.4,0,35.4C71,70.3,70.6,72,68.8,74s-7.7,3-7.7,3
	s-5.3-0.2-7.2-3.4c-1-1.3-1.2-3.1-0.6-4.6c0.5-1,1.3-1.9,3.5-2.1c1.5-0.1,2.9,0.3,4.1,1.1c0.9,0.7,2.5,3.5,3.3,4.1s2.1,0.3,2.4-0.3
	s0.1-1.8-1.1-2.9c-1.5-1.3-3.3-2.4-5.1-3.2c-0.5-0.1-0.4-0.8-0.4-0.8 M87.8,31.8c-5.1-0.3-12.2,5.3-13.1,17
	c-0.6,7.9,4,15.6,12.9,16.1c11.8,0.6,12.6-10.2,12.6-11.4s-1.4-0.1-1.4-0.1s-1.8,2.9-7.1,2.9s-6.7-4.1-7.4-6c-0.4-1-0.6-2-0.5-3.1
	h16.6C100.4,47.2,99.5,32.5,87.8,31.8 M87.7,34.1c3.1,0.1,3.3,10.5,3.3,10.5h-7.1C83.9,44.6,84.2,34,87.7,34.1z M116.4,65.3
	c2.1-0.1,10.6-0.5,12.1-9.2c1.2-6.5-6.7-10.2-9.1-11.3s-8.7-3.9-8.4-7.2s2.6-2.6,3.8-2.6c4,0.1,6.4,5.8,7.3,7.6s1,0.3,1.3-0.1
	l4.3-6.7c0,0,0.8-0.8-0.7-1.4c-3.3-1.2-6.8-1.9-10.3-1.9c-5.2,0.1-11.3,2.6-12.1,9.7c-0.6,5.5,6.5,9.2,8.2,10s8.3,4.1,8.8,6
	c0.9,3.5-1.5,4.8-4.7,4.7c-2.1-0.1-4.1-1.2-5.2-3.1c0,0-2.8-3.8-3.1-6.6c-0.1-0.8-0.9-0.8-1.3-0.2l-4.8,7.2
	c-0.4,0.2-0.6,0.8-0.4,1.2c0.1,0.3,0.4,0.5,0.7,0.5C107,64.1,111.7,65.3,116.4,65.3 M153.5,36.4c2.1,0,1.6-2.5-0.1-2.6h-7.3
	c0,0,0.3-9.6-0.3-11.3s-2.3-0.1-2.3-0.1c-1.4,2.4-3.1,4.7-5,6.7c-2.5,2.6-5.9,4.5-6.7,5.2c-0.6,0.5-0.6,1.3-0.2,1.8
	c0.1,0.1,0.1,0.1,0.2,0.2h3.4c0,0-0.1,19.4,0,21.7s1,4.2,1.4,4.4s0.8,2.4,5.9,2.4s7.6-2,8.8-2.4c1.4-0.5,2.6-1.5,3.4-2.8
	c0.4-1-0.9-1-0.9-1c-1.1,0.6-2.4,0.8-3.7,0.7c-4,0-4.2-2.5-4.2-2.5V36.4h7.4 M44.5,2.1c0,0-4.6,4.8-6.1,10c0,0-14.4,51.7-14.4,51.8
	s-2.1,2.4-3.1-0.3L4.7,8.2c0,0-0.7-3-4.4-6.3C-0.7,1.1,1,0.4,1,0.4h20.7c0,0,0.9,0.3,0.2,1.1s-2.8,1.4-3,5.4s7.8,27.5,7.8,27.5
	s0.6,0.9,0.9-0.2L34,12.1c0,0,1.3-4.9-0.3-7.4c-0.8-1.3-1.8-2.3-3.1-3.1C29.8,1,31,0.4,31,0.4h13.2C46.1,0.4,44.5,2,44.5,2.1
	 M127.4,7.4c0-0.3,0-0.7,0.1-1c0.2-1.8,1.9-3.2,3.7-3c2,0,3.3,0.8,3.3,2.6c0,0.3,0,0.7-0.1,1c-0.2,1.8-1.9,3.2-3.7,3
	C128.7,10.1,127.4,9.2,127.4,7.4z M132.5,6.9c0.1-0.2,0.1-0.4,0.1-0.6c0-0.7-0.3-1.2-1.5-1.2c-0.9-0.1-1.7,0.5-1.8,1.4
	c0,0,0,0.1,0,0.1c-0.1,0.2-0.1,0.4-0.1,0.6c0,0.7,0.3,1.3,1.5,1.3C131.6,8.6,132.4,7.9,132.5,6.9L132.5,6.9z M137.9,3.5h1.9l1.6,3.6
	l0.8-3.6h1.8l-1.4,6.5h-1.7l-1.8-3.9l-0.8,3.9h-1.7L137.9,3.5z M147.2,3.5h1.8l-1,4.9h2.9l-0.3,1.6h-4.7L147.2,3.5z M154.6,3.5h1.8
	L155,10h-1.8L154.6,3.5z M159.7,3.5h1.9l1.6,3.6l0.8-3.6h1.7l-1.4,6.5h-1.7l-1.8-3.9L160,10h-1.7L159.7,3.5z M168.9,3.5h5.1
	l-0.3,1.6h-3.3l-0.2,0.8h3.2l-0.3,1.6h-3.2l-0.2,0.9h3.3l-0.3,1.6h-5.1L168.9,3.5z"/>
</svg>
