<svg version="1.1" viewBox="0 0 744.98 300" xmlns="http://www.w3.org/2000/svg">
 <path d="m555.4 0c-16.155 0-29.283 5.747-39.402 17.231-10.657 12.102-16.006 28.705-16.006 49.801 0 17.968 4.1235 32.869 12.351 44.741 10.179 14.661 24.283 21.992 42.331 21.992 8.3466 0 15.936-1.6932 22.739-5.0498 7.6096-3.8048 13.914-9.3028 18.904-16.474 8.4263-12.181 12.649-27.311 12.649-45.418 0-21.145-5.5976-37.948-16.763-50.349-9.8108-10.976-22.062-16.474-36.803-16.474zm-555.38 2.9084v23.406h30.976v104.36h27.43v-104.38h31.175v-23.376h-89.602zm104.5 0v127.77h82.669v-23.406h-55.239v-31.345h49.422v-22.281h-49.422v-27.351h54.104v-23.376h-81.534zm101.24 0v127.77h77.59v-23.775h-50.159v-103.98h-27.43zm94.124 0v127.77h82.649v-23.406h-55.219v-31.345h49.402v-22.281h-49.402v-27.351h54.084v-23.376h-81.524zm101.23 0v127.77h27.4v-44.552l7.7689-9.3626 33.705 53.914h30.697l-47.072-75.07 43.526-52.689h-30.578l-38.028 48.277v-48.277h-27.41zm224.9 0v127.77h26.315v-87.709l22.281 87.709h22.271l21.813-88.845v88.845h26.295v-127.77h-36.873l-22.171 87.53-22.739-87.55h-37.181zm-71.803 20.498c8.7251 0 15.398 3.9641 20.02 11.882 4.8805 8.4263 7.3008 18.884 7.3008 31.375 0 7.4104-0.96613 14.442-2.8884 21.046-2.3207 7.8685-5.5777 13.606-9.761 17.231-4.1633 3.6155-8.8446 5.4283-14.024 5.4283-3.5558 0-6.9323-0.83666-10.11-2.5199-4.3825-2.3705-7.6693-5.4781-9.9303-9.3626-4.9303-8.4861-7.3904-19.124-7.3904-31.922 0-12.231 2.51-22.649 7.5-31.275 4.6116-7.9084 11.056-11.873 19.283-11.873z" fill="#e20074" stroke-width=".99602" Googl="true"/>
 <path d="m315.8 166.14c-15.369 0-27.888 6.2151-37.57 18.645-9.3626 11.992-14.044 28.127-14.044 48.426 0 17.61 3.8048 32.45 11.424 44.502 9.3626 14.861 22.47 22.291 39.343 22.291 8.1076 0 15.478-1.7928 22.112-5.4283 7.1116-3.8845 12.978-9.492 17.6-16.863 7.6195-12.052 11.434-26.853 11.434-44.402 0-11.494-1.5936-21.773-4.7809-30.827-4.0637-11.624-10.309-20.647-18.725-27.092-8.008-6.1753-16.932-9.263-26.793-9.263zm-288.27 2.8884v127.89h11.434v-127.89zm40.936 0v127.89h10.876v-108.96l62.012 108.96h12.371v-127.89h-10.857v109.52l-62.131-109.52h-12.261zm114.39 0v127.89h11.434v-61.355h50.677v-9.9402h-50.677v-46.653h57.052v-9.9303h-68.486zm131.71 7.0418c12.191 0 21.912 5.3785 29.153 16.116 7.1713 10.618 10.757 24.382 10.757 41.305 0 9.243-1.1454 17.649-3.4562 25.199-3.247 10.558-8.1673 18.526-14.801 23.904-6.245 4.9801-13.267 7.4701-21.076 7.4701-5.6275 0-10.807-1.2948-15.558-3.9243-5.996-3.3068-10.797-7.988-14.422-14.044-6.245-10.558-9.3626-23.735-9.3626-39.542 0-16.863 3.6454-30.478 10.956-40.837 7.3108-10.438 16.584-15.637 27.819-15.637z" fill="#e20074" stroke-width=".99602"/>
</svg>
