<svg version="1.0" viewBox="0 0 873.01 200" xml:space="preserve" xmlns="http://www.w3.org/2000/svg" xmlns:xlink="http://www.w3.org/1999/xlink">
<g transform="matrix(4.4248 0 0 4.4248 -6.6372 -11.062)">
	
		<defs>
			<path id="j" d="m10.5 20 6.6-1.3 20.8-4 0.1 5.3 0.3 13.1-22.3 2.2-6.7 0.6zm-6.3-6.7-2.7 32.6v0.1l7 1.7 45.5-1.4-2.3-38.2-3.7-5.6z"/>
		</defs>
		<clipPath id="i">
			<use width="100%" height="100%" xlink:href="#j"/>
		</clipPath>
		
			<linearGradient id="h" x1="-318.39" x2="-315.27" y1="293.51" y2="293.51" gradientTransform="matrix(8.5799 14.861 14.861 -8.5799 -1613.2 7255.8)" gradientUnits="userSpaceOnUse">
			<stop stop-color="#C02F19" offset="0"/>
			<stop stop-color="#B42A17" offset=".2191"/>
			<stop stop-color="#B42A17" offset=".6573"/>
			<stop stop-color="#D72C16" offset="1"/>
		</linearGradient>
		<path d="m73.6 36.4-59 34-32.7-56.6 59-34.1z" clip-path="url(#i)" fill="url(#h)"/>
	
	
		<defs>
			<polygon id="g" points="1.5 46 8.5 47.7 54 46.3 49.9 44.2"/>
		</defs>
		<clipPath id="f">
			<use width="100%" height="100%" xlink:href="#g"/>
		</clipPath>
		
			<linearGradient id="e" x1="-355.39" x2="-352.27" y1="320.41" y2="320.41" gradientTransform="matrix(12.596 -7.2725 -7.2725 -12.596 6814.8 1508.8)" gradientUnits="userSpaceOnUse">
			<stop stop-color="#8C261A" offset="0"/>
			<stop stop-color="#8C261A" offset=".7978"/>
			<stop stop-color="#A22A1C" offset="1"/>
		</linearGradient>
		<path d="M 40.9,21.4 55.5,46.8 14.6,70.4 0,45.1 Z" clip-path="url(#f)" fill="url(#e)"/>
	
	
		<defs>
			<polygon id="d" points="54 46.3 51.7 8.1 48 2.5 49.9 44.2"/>
		</defs>
		<clipPath id="c">
			<use width="100%" height="100%" xlink:href="#d"/>
		</clipPath>
		
			<linearGradient id="b" x1="-305.98" x2="-302.86" y1="291.12" y2="291.12" gradientTransform="matrix(2.4605 13.954 13.954 -2.4605 -3262.3 4988.6)" gradientUnits="userSpaceOnUse">
			<stop stop-color="#381A14" offset="0"/>
			<stop stop-color="#451C15" offset=".236"/>
			<stop stop-color="#451C15" offset=".8371"/>
			<stop stop-color="#77271C" offset="1"/>
		</linearGradient>
		<path d="m61.5 45-13.3 2.3-7.7-43.5 13.3-2.3z" clip-path="url(#c)" fill="url(#b)"/>
	
	<path d="m10.6 20 6 3.5-0.5 11.8-6.7 0.6z" clip-rule="evenodd" fill="#451c15" fill-rule="evenodd"/>
	<path d="m37.9 14.8 0.1 5.2-21.4 3.5-6-3.5z" clip-rule="evenodd" fill="#8d261a" fill-rule="evenodd"/>
	<path d="m10.5 20 6.6-1.2-0.5 4.7z" fill="#692219"/><g fill="#7c7f81">
	<path d="m64.3 10.4v-3.9h14.9v3.9h-5.2v13.4h-4.5v-13.4z"/>
	<path d="m94.6 13.2v3.5h-8.5v3.2h9.6v3.9h-14.1v-17.3h13.8v3.6h-9.3v3.1z"/>
	<path d="m98.7 23.8v-17.3h4.5v13.4h8.1v3.9z"/>
	<path d="m127 13.2v3.5h-8.5v3.2h9.6v3.9h-14.1v-17.3h13.8v3.6h-9.3v3.1z"/>
	</g>
		<defs>
			<rect id="k" x="1.5" y="2.5" width="197.3" height="45.2"/>
		</defs>
		<clipPath id="a">
			<use width="100%" height="100%" xlink:href="#k"/>
		</clipPath><g fill="#7c7f81">
		<path d="m142.6 12.7c-0.2-1.7-1.6-2.7-3.5-2.7-2.9 0-4 2.6-4 5.1 0 2.6 1.1 5.1 4 5.1 2.1 0 3.3-1.2 3.5-3.2h4.5c-0.2 4.5-3.5 7.1-7.9 7.1-5.2 0-8.6-4-8.6-9s3.4-9 8.6-9c3.7 0 7.8 2.4 7.9 6.5h-4.5z" clip-path="url(#a)"/>
		<path d="m150 23.8v-17.3h4.5v13.4h8.1v3.9z" clip-path="url(#a)"/>
		<path d="m180.2 16.7c0 5-2.3 7.5-7.5 7.5s-7.5-2.5-7.5-7.5v-10.2h4.5v10.4c0 2.2 0.8 3.4 3 3.4s3-1.1 3-3.4v-10.4h4.5z" clip-path="url(#a)"/>
		<path d="m183.7 6.5h8.1c3 0 6.3 0.7 6.3 4.3 0 1.6-0.9 2.8-2.3 3.5 1.8 0.5 3 2.1 3 4.1 0 4.1-3 5.4-6.7 5.4h-8.3v-17.3zm4.5 6.8h3.5c0.8 0 1.8-0.4 1.8-1.7s-0.9-1.7-1.8-1.7h-3.5zm0 6.9h3.6c1.4 0 2.4-0.5 2.4-1.9 0-1.5-1.1-2-2.4-2h-3.6z" clip-path="url(#a)"/></g><g fill="#fefdfd">
		<path d="m67.2 28.9h8.2c3.2 0 6.2 1.5 6.2 5.6 0 4.3-2.4 6-6.2 6h-3.7v5.8h-4.5zm4.5 8.1h3c1.4 0 2.4-0.6 2.4-2.2s-1-2.3-2.4-2.3h-3z" clip-path="url(#a)"/>
		<path d="m83.9 28.9h8.8c3 0 6 1.4 6 4.9 0 1.9-0.9 3.6-2.7 4.3 1.8 0.4 2.4 2.5 2.5 4.1 0 0.7 0.1 3.3 0.7 3.9h-4.5c-0.4-0.6-0.5-2.3-0.5-2.8-0.1-1.7-0.4-3.5-2.5-3.5h-3.4v6.3h-4.5v-17.2zm4.5 7.5h3.8c1.4 0 2.1-0.7 2.1-2s-1-1.9-2.3-1.9h-3.6z" clip-path="url(#a)"/>
		<path d="m102 28.9h4.5v17.3h-4.5z" clip-path="url(#a)"/>
		<path d="m129.4 28.9v17.3h-4.2v-13.1h-0.1l-3.6 13.1h-3.4l-3.7-13.1v13.1h-4.2v-17.3h6.6l3 11.5 3-11.5z" clip-path="url(#a)"/>
		<path d="m146.1 35.5v3.5h-8.5v3.3h9.5v3.9h-14v-17.3h13.8v3.6h-9.3v3z" clip-path="url(#a)"/>
	</g>
</g>






</svg>
