<svg xmlns="http://www.w3.org/2000/svg" xmlns:xlink="http://www.w3.org/1999/xlink" viewBox="0 0 210 50">
    <g fill="#777D7A">
        <path d="M79.8 9.9h-5.4v13.7h-4.6V9.9h-5.2V6h15.2zM82.2 6h14v3.6h-9.4v3.2h8.6v3.4h-8.6v3.4h9.8v4H82.2zM99.6 6h4.6v13.6h8.2v4H99.6zM115.2 6h14v3.6h-9.4v3.2h8.6v3.4h-8.6v3.4h9.6v4h-14.2z"/>
    </g>
    <path fill="#777D7A" d="M144.3 12.2c-.2-1.7-1.6-2.7-3.6-2.7-3 0-4.1 2.7-4.1 5.2 0 2.7 1.1 5.2 4.1 5.2 2.2 0 3.4-1.2 3.6-3.3h4.6c-.2 4.5-3.6 7.2-8.1 7.2-5.3 0-8.8-4.1-8.8-9.2s3.5-9.2 8.8-9.2c3.8 0 7.9 2.5 8.1 6.7h-4.6v.1zM151.8 6h4.6v13.6h8.2v4h-12.8zM182.6 16.3c0 5.1-2.4 7.7-7.7 7.7s-7.7-2.6-7.7-7.7V6h4.6v10.7c0 2.3.8 3.4 3.1 3.4s3.1-1.1 3.1-3.4V6h4.6v10.3zM186.2 6h8.2c3.1 0 6.3.7 6.3 4.4 0 1.5-.9 2.9-2.4 3.6 1.8.5 3.1 2.2 3.1 4.2 0 4.2-3.1 5.4-6.9 5.4H186V6h.2zm4.5 6.9h3.6c.8 0 1.8-.4 1.8-1.6 0-1.3-.9-1.7-1.8-1.7h-3.6v3.3zm0 7h3.7c1.4 0 2.5-.5 2.5-1.9 0-1.5-1.1-2-2.5-2h-3.7v3.9z"/>
    <path fill="#020304" d="M77.9 35c-.2-1.7-1.6-2.7-3.6-2.7-3 0-4.1 2.7-4.1 5.2 0 2.7 1.1 5.2 4.1 5.2 2.2 0 3.4-1.2 3.6-3.3h4.6c-.2 4.5-3.6 7.2-8.1 7.2-5.3 0-8.8-4.1-8.8-9.2s3.5-9.2 8.8-9.2c3.8 0 7.9 2.5 8.1 6.7h-4.6v.1zM85.4 28.6H90v17.6h-4.6zM93.6 28.6h4.7l6.1 10.9h.1V28.6h4.3v17.6h-4.7L98 35.3h-.1v10.9h-4.3zM112.4 28.6h14.1v3.7H117v3.1h8.6V39H117v3.4h9.8v3.8h-14.4zM129.8 28.6h6.8l3.1 11.8 3-11.8h6.8v17.6h-4.3V32.9h-.1l-3.7 13.3h-3.5l-3.7-13.3h-.1v13.3h-4.3zM158 28.6h4.7l6.6 17.6h-4.8l-1.1-3.2h-6.1l-1.1 3.2h-4.7l6.5-17.6zm.2 11.1h4l-1.9-6.1-2.1 6.1z"/>
    <g>
        <defs>
            <path id="a" d="M11.2 19.6l6.6-1.2 20.6-3.9.1 5.1.3 12.9-22 2.2-6.7.7 1.1-15.8zM5 13L2.2 45.2v.1l7 1.6 45.1-1.3-2.4-37.8-3.7-5.5L5 13z"/>
        </defs>
        <clipPath id="b">
            <use xlink:href="#a" overflow="visible"/>
        </clipPath>
        <linearGradient id="c" gradientUnits="userSpaceOnUse" x1="-312.61" y1="-242.273" x2="-309.525" y2="-242.273" gradientTransform="rotate(60 -6278.847 2584.904) scale(17.1597)">
            <stop offset="0" stop-color="#c2331b"/>
            <stop offset=".219" stop-color="#b42f19"/>
            <stop offset=".657" stop-color="#b42f19"/>
            <stop offset="1" stop-color="#d73116"/>
        </linearGradient>
        <path clip-path="url(#b)" fill="url(#c)" d="M41.3-20.2l32.3 56-58.4 33.7-32.3-56z"/>
        <defs>
            <path id="d" d="M2.2 45.3l7 1.7 45.1-1.4-4.1-2z"/>
        </defs>
        <clipPath id="e">
            <use xlink:href="#d" overflow="visible"/>
        </clipPath>
        <linearGradient id="f" gradientUnits="userSpaceOnUse" x1="-349.644" y1="-269.704" x2="-346.558" y2="-269.704" gradientTransform="rotate(-30 4887.148 -11439.002) scale(14.5449)">
            <stop offset="0" stop-color="#8e281a"/>
            <stop offset=".798" stop-color="#8e281a"/>
            <stop offset="1" stop-color="#a42b1e"/>
        </linearGradient>
        <path clip-path="url(#e)" fill="url(#f)" d="M.8 44.4l40.5-23.3 14.4 25-40.5 23.4z"/>
        <g>
            <defs>
                <path id="g" d="M50.2 43.6l4.1 2-2.4-37.8-3.7-5.5z"/>
            </defs>
            <clipPath id="h">
                <use xlink:href="#g" overflow="visible"/>
            </clipPath>
            <linearGradient id="i" gradientUnits="userSpaceOnUse" x1="-300.133" y1="-239.739" x2="-297.049" y2="-239.739" gradientTransform="scale(14.1693) rotate(80 -291.35 61.055)">
                <stop offset="0" stop-color="#381a14"/>
                <stop offset=".236" stop-color="#461e16"/>
                <stop offset=".837" stop-color="#461e16"/>
                <stop offset="1" stop-color="#78281c"/>
            </linearGradient>
            <path clip-path="url(#h)" fill="url(#i)" d="M54.1 1.3l7.5 43-13.2 2.4-7.6-43.1z"/>
        </g>
        <path fill="#461E16" d="M10.1 35.4l1.1-15.8 6 3.5-.5 11.6z"/>
        <path fill="#8F281A" d="M11.2 19.6l27.1-5.1.1 5.1-21.2 3.5z"/>
        <path fill="#692219" d="M17.2 23.1l-6-3.5 6.5-1.2z"/>
    </g>
    <g fill="#B61D1B">
        <path d="M175.6 28.6h4.6v6.5h5.7v-6.5h4.6v17.6h-4.6V39h-5.7v7.2h-4.6v-6.9-10.7zM192.8 28.6h7.9c.5.1 1 .1 1.4.2 1.6.2 3.1.9 4.2 2 .8.8 1.4 1.8 1.8 2.8.4 1 .6 2.2.6 3.3 0 1.2-.1 2.4-.4 3.6-.3 1-.7 2-1.4 2.9-.6.8-1.4 1.4-2.2 1.8-1.3.7-2.8 1-4.3 1h-7.7v-2.4-10.1c.1-1.7.1-3.4.1-5.1m4.6 4v9.8c1.1 0 2.2.1 3.3-.1.9-.1 1.9-.4 2.5-1.1.7-.8.9-1.8 1-2.9.1-.8.1-1.6-.1-2.5-.2-.8-.6-1.7-1.2-2.2-.9-.8-2.1-1-3.2-1h-2.3z"/>
    </g>
</svg>
