<svg width="1173.3" height="205" space="preserve" version="1.1" viewBox="0 0 1173.3 205" xmlns="http://www.w3.org/2000/svg">
 <g transform="matrix(2.4204 0 0 2.4204 -457.84 -233.3)" fill="#363636" font-family="'ITC Avant Garde Gothic'" font-size="40px">
  <path d="m282.43 125.99v-25.64h5.68v-3.96h-15.68v3.96h5.68v25.64z" style="white-space:pre"/>
  <path d="m310.55 116.71c0.04-0.28 0.12-1.4 0.12-2.12-0.04-6.48-5.28-11.36-11.28-11.36-6.24 0-11.36 5-11.36 11.64 0 6.28 5 11.68 11.28 11.68 3.44 0 8.52-1.8 10.64-7.52h-4.16c-1 1.92-3.24 3.72-6.32 3.72-2.8 0-6.24-1.76-7.28-6.04zm-18.36-3.2c0.2-3.24 3.16-6.48 7.16-6.48s6.96 3.24 7.16 6.48z" style="white-space:pre"/>
  <path d="m318.99 96.387h-4.16v29.6h4.16z" style="white-space:pre"/>
  <path d="m345.75 116.71c0.04-0.28 0.12-1.4 0.12-2.12-0.04-6.48-5.28-11.36-11.28-11.36-6.24 0-11.36 5-11.36 11.64 0 6.28 5 11.68 11.28 11.68 3.44 0 8.52-1.8 10.64-7.52h-4.16c-1 1.92-3.24 3.72-6.32 3.72-2.8 0-6.24-1.76-7.28-6.04zm-18.36-3.2c0.2-3.24 3.16-6.48 7.16-6.48s6.96 3.24 7.16 6.48z" style="white-space:pre"/>
 </g>
 <link rel="stylesheet" type="text/css"/>
 <link rel="stylesheet" type="text/css"/>
 <g transform="translate(162.33 -502.1)">
  <path d="m284.96 572.89 70.658 124.74h-141.32z" fill="#f00" stroke-width=".48217"/>
  <path d="m284.96 557.1v15.789l70.658 124.74h-141.32l-15 9.4746h171.32z" fill="#770f18" stroke-width=".58217"/>
  <path d="m284.96 557.1-85.658 150 15-9.4737 70.658-124.74z" fill="#ffd599" stroke-width=".58217"/>
 </g>
 <g transform="translate(157.23 -502.1)" fill="#363636" font-family="'ITC Avant Garde Gothic'" font-size="40px">
  <path d="m-91.472 688.07v-14.309h-47.984l46.105-78.336v-14.309h-61.426v14.309h43.938l-46.395 78.336v14.309z" style="white-space:pre"/>
  <path d="m-23.976 688.07v-14.309h-42.059v-32.52h42.059v-14.309h-42.059v-31.508h42.059v-14.309h-57.668v106.95z" style="white-space:pre"/>
  <path d="m79.942 688.07v-106.95h-15.61l1.9e-4 81.371h-0.28906l-52.031-81.371h-17.055v106.95h15.609v-82.672h0.28907l52.898 82.672z" style="white-space:pre"/>
  <path d="m127.93 688.07v-92.645h20.523v-14.309h-56.656v14.309h20.523v92.645z" style="white-space:pre"/>
  <path d="m229.68 688.07-29.918-39.891c6.9375 0 30.641-4.4805 30.641-32.809 0-8.9609-3.0352-18.789-9.8281-25.293-5.6367-5.3477-13.441-8.9609-28.473-8.9609h-33.098v106.95h15.609v-49.574h0.28906l35.266 49.574zm-55.066-92.645h16.477c17.633 0 23.703 10.984 23.703 19.945 0 20.668-23.125 20.957-29.484 20.957h-10.695z" style="white-space:pre"/>
 </g>
 <g transform="translate(183.21 -502.1)" fill="#363636" font-family="'ITC Avant Garde Gothic'" font-size="40px">
  <path d="m398.49 688.07v-14.309h-37.145v-92.645h-15.609v106.95z" style="white-space:pre"/>
  <path d="m401.09 656.42c0 23.848 18.211 33.676 32.953 33.676 19.656 0 32.809-13.73 32.809-32.375 0-25.727-19.367-29.918-32.809-34.977-4.625-1.7344-14.309-4.4805-14.309-14.742 0-6.2148 5.0586-14.598 14.309-14.598 6.3594 0 15.031 3.6133 15.031 15.465h15.609c0-18.066-12.863-29.773-30.641-29.773-20.234 0-29.918 16.621-29.918 29.051 0 7.5156 2.3125 15.32 7.2266 20.09 4.9141 4.7695 8.3828 6.5039 22.691 11.996 7.3711 2.8906 17.199 5.4922 17.199 17.488 0 11.273-7.3711 18.066-17.199 18.066-15.754 0-17.344-15.754-17.344-19.367z" style="white-space:pre"/>
  <path d="m580.31 608.44c-2.7461-4.7695-6.7929-11.996-16.477-18.934-11.562-8.3828-24.57-10.406-32.664-10.406-29.918 0-55.066 23.848-55.066 55.066 0 30.352 24.57 55.934 54.922 55.934 16.621 0 36.711-7.5156 48.563-28.473h-19.223c-7.3711 8.6719-17.922 14.164-29.195 14.164-20.957 0-39.457-18.5-39.457-41.48 0-22.547 17.488-40.902 39.746-40.902 17.344 0 26.883 11.418 30.062 15.031z" style="white-space:pre"/>
  <path d="m669.77 688.07v-106.95h-15.609v46.105h-44.082v-46.105h-15.609v106.95h15.609v-46.539h44.082v46.539z" style="white-space:pre"/>
  <path d="m779.18 688.07 29.918-106.95h-15.898l-20.812 79.926h-0.289l-20.379-79.926h-11.418l-20.668 80.504h-0.289l-20.379-80.504h-16.188l29.918 106.95h13.73l19.367-74.723h0.289l19.367 74.723z" style="white-space:pre"/>
  <path d="m878.48 688.07v-14.309h-42.059v-32.52h42.059v-14.309h-42.059v-31.508h42.059v-14.309h-57.668v106.95z" style="white-space:pre"/>
  <path d="m913.02 688.07v-106.95h-15.609v106.95z" style="white-space:pre"/>
  <path d="m990.05 688.07v-14.309h-47.984l46.106-78.336v-14.309h-61.426v14.309h43.938l-46.394 78.336v14.309z" style="white-space:pre"/>
 </g>
</svg>
