<svg width="800" height="371.43" clip-rule="evenodd" fill-rule="evenodd" image-rendering="optimizeQuality" shape-rendering="geometricPrecision" text-rendering="geometricPrecision" version="1.1" viewBox="0 0 22578 10483" xml:space="preserve" xmlns="http://www.w3.org/2000/svg">
 <defs>
  <style type="text/css">
   <![CDATA[
    .fil0 {fill:#2B2A29}
   ]]>
  </style>
 
  
  
 </defs>
 
<g transform="matrix(1.9048 0 0 1.9048 .0008772 .00022572)"><path class="fil0" d="m10699 16.195c236.73-37.603 489.83-12.758 701.42 106.6 266.75 143.67 444.41 436.03 452.92 739.38-1.755 72.916 3.248 146.12-3.511 218.9-26.501 192.13-117.36 375.05-255.8 510.71-182.12 183.58-441.98 283.81-699.27 277.42-238.48 6.2427-481.18-74.952-658.97-236.54-151.15-134.57-249.72-324.14-281.22-524.02-25.687-203.28-7.8448-417.28 87.068-601.55 124.66-257.33 378.56-440.09 657.35-490.88zm144.13 468.21c-74.094 8.1419-146.7 32.996-208.22 75.634-185.36 127.23-241.47 398.54-140.33 595.98 44.207 88.265 121.27 158.88 212.67 195.27 182.12 76.724 410.47 29.47 540.53-121.93 151.16-165.67 141.02-443.23-4.46-608.75-99.635-109.59-256.75-151-400.2-136.2zm-10200-223.11c321.1-189.29 709.13-221.33 1072.4-179.77 271.62 31.759 546.89 120.44 753.75 306.48 178.47 158.19 286.09 387.27 312.72 623.27 25.687 230.7 13.925 477.44-104.24 682.89-99.916 183.85-274.87 316.94-469.96 385.1 239.57 70.871 450.49 243.88 553.65 474.04 68.004 145.57 85.303 308.79 79.223 467.93 2.0266 248.09-78.952 496.86-232.28 692.13-183.46 236.41-454.95 392.57-741.44 466.31-239.44 62.603-491.06 65.856-735.37 33.269-260.66-35.85-518.76-130.9-721.03-303.63-199.69-167.84-336.51-403.43-404.79-654.24-16.494-49.299 1.8909-112.03 53.818-130.36 139.79-56.087 281.89-105.65 422.37-159.96 42.86-16.021 92.343-35.577 136.55-12.622 38.4 16.556 55.708 57.295 69.497 93.963 45.294 123.71 114.78 242.25 217.81 326.31 118.98 99.261 273.78 145.7 426.29 155.07 177.11 13.985 366.53-10.859 514.57-116.37 114.11-78.896 188.48-209.93 201.18-348.03 16.359-165.81-17.309-347.49-133.98-472.41-108.84-118.83-271.48-169.88-428.05-179.66-126.69-3.3892-253.5 0.5454-380.19-1.7627-36.092 2.8438-55.699-34.759-52.586-66.401-0.1358-172.6-0.543-345.18 0.2715-517.77-1.2218-26.354 7.6993-62.466 38.933-65.856 197.67-9.7878 401.95 22.127 593.53-41.693 125.2-40.057 239.04-129.68 288.25-254.74 38.671-94.508 37.992-199.61 28.664-299.83-13.789-130.49-90.86-252.16-204.69-317.2-146.97-86.911-324.21-90.846-489.56-77.679-126.69 12.768-255.4 49.026-355.99 130.5-98.287 77.523-161.16 189.97-208.89 304.03-18.521 51.052-79.087 79.841-130.19 61.785-156.03-52.007-312.33-103.61-467.67-157.52-40.019-11.814-62.865-56.487-52.46-96.407 76.935-308.52 273.25-589.88 549.87-749.16zm3524.3-72.381c310.69-127.09 657.75-147.74 986.83-95.19 249.32 41.42 493.9 147.88 672.77 330.79 113.16 110.27 197.26 247.14 260.13 391.63 16.233 39.511 40.698 81.195 29.071 125.46-13.653 37.077-53.139 53.916-87.34 66.81-161.98 56.487-324.49 111.08-486.46 167.43-28.926 10.187-66.52 17.384-89.366-8.6873-51.51-57.042-67.325-136.61-115.73-195.95-96.668-131.72-260.53-193.9-418.45-206.54-198.07-16.44-415.07 13.576-570.69 147.88-156.96 135.65-213.88 350.88-221.86 551.58 0 96.806-7.0302 194.59 3.5103 290.99 86.535-74.543 178.88-143.8 283.12-191.46 237.28-110.67 508.09-125.47 764.57-92.882 284.06 37.749 561.76 166.07 752.4 384.56 167.25 186.98 262.96 430.05 296.49 677.19 20.693 130.08 13.934 262.08 15.146 393.12 1.3479 289.64-96.939 579.96-278.65 805.51-158.06 198.11-377.76 342.74-617.47 420.81-264.86 88.265-550.41 96.28-825.28 60.022-272.42-36.794-542.56-136.74-751.31-320.19-205.1-177.88-337.2-429.78-393.03-694.03-29.343-133.76-40.969-270.9-40.155-407.64-0.2715-421.22-0.1357-842.31 0.1358-1263.5-1.4836-271.17 58.947-545.74 194.56-781.61 141.83-250.81 371.26-448.1 637.07-556.06zm500.92 1917.4c-161.7 26.48-315.97 113.12-411.28 248.77-104.38 144.33-138.18 327.66-132.1 502.96-0.126 187.53 60.576 384.83 204.29 511.66 155.35 138.64 375.05 176.67 576.51 158.46 177.25-16.43 348.14-113.25 441.84-267.23 108.84-170.96 121.13-383.2 100.72-579.83-20.955-180.34-101.4-361.48-250.39-470.65-150.35-111.49-349.09-135.52-529.58-104.15zm3283-2026c70.448-5.9701 142.23 7.0706 211.87-9.0866 40.562-10.051 80.309 10.45 121.14 8.5509 177.66-7.1972 355.85 22.137 526.2 71.29 227.55 53.36 436.57 187.25 580.97 371.94 209.15 271.57 268.51 627.22 262.69 962.62-0.2619 452.86 0.6787 905.85-0.1261 1358.7 2.2981 272.66-42.327 552.8-174.15 794.37-100.99 185.76-261.34 336.77-450.49 429.51-263.1 129.95-561.5 168.38-851.77 162.14-226.19 4.6163-454.69-24.309-668.71-99.134-148.58-50.78-283.52-137.01-399.79-241.98-184.14-174.22-291.36-416.73-335.3-664.28-32.717-178.84-37.721-361.48-36.237-542.89 0.2812-407.51-0.1358-815.01 0.4073-1222.4 5.275-205.73 23.524-414.03 92.75-609.16 73.686-220.67 216.72-420.13 412.1-547.51 209.56-140.27 461.17-198.52 708.45-222.69zm68.014 690.9c-106.13 22.4-212.41 65.456-289.47 144.48-128.99 121.53-180.23 302.82-197.26 474.46-14.186 71.962-6.7587 145.43-9.4641 218.21 0.8145 403.3-0.9406 806.46 1.3575 1209.6 9.1926 96.134 20.14 193.23 48.668 285.98 45.701 163.49 162.11 311.91 321.78 375.19 149.27 60.148 315.02 59.749 472.53 41.284 140.48-17.793 285.82-74.28 371-193.64 105.45-146.79 119.65-334.99 127.9-509.9 1.0764-439.01 0.6691-878.02 0.5334-1317-3.7721-142.72-14.196-288.7-66.375-422.85-35.161-91.255-97.754-172.19-181.58-223.1-76.111-59.214-173.87-71.972-265.13-91.255-111.26-2.3082-224.7-12.495-334.48 8.5509z" fill="#fff" Googl="true"/><g transform="matrix(10.975 0 0 .39198 -376.3 5230.8)"><g transform="translate(240)" clip-rule="nonzero" fill-rule="nonzero" shape-rendering="auto"><path d="m-205.71-384.78v1080h1080v-1080z" color="#000000" color-rendering="auto" fill="#ff0" image-rendering="auto" solid-color="#000000" style="isolation:auto;mix-blend-mode:normal"/><path d="m-25.714-384.78v1080h900v-1080z" color="#000000" color-rendering="auto" fill="#0ff" image-rendering="auto" solid-color="#000000" style="isolation:auto;mix-blend-mode:normal"/><path d="m154.29-384.78v1080h720v-1080z" color="#000000" color-rendering="auto" fill="#0f0" image-rendering="auto" solid-color="#000000" style="isolation:auto;mix-blend-mode:normal"/><path d="m334.29-384.78v1080h540v-1080z" color="#000000" color-rendering="auto" fill="#f0f" image-rendering="auto" solid-color="#000000" style="isolation:auto;mix-blend-mode:normal"/><path d="m514.29-384.78v1080h360v-1080z" color="#000000" color-rendering="auto" fill="#f00" image-rendering="auto" solid-color="#000000" style="isolation:auto;mix-blend-mode:normal"/><path d="m694.29-384.78v1080h180v-1080z" color="#000000" color-rendering="auto" fill="#00f" image-rendering="auto" solid-color="#000000" style="isolation:auto;mix-blend-mode:normal"/></g></g></g></svg>
