<?xml version="1.0" encoding="UTF-8" standalone="no"?>
<svg xmlns="http://www.w3.org/2000/svg" xmlns:xlink="http://www.w3.org/1999/xlink" height="475.7" width="600" version="1.1" viewBox="0 0 158.75 125.86147">
  <defs>
    <linearGradient id="a" gradientUnits="userSpaceOnUse" gradientTransform="matrix(36.051 -62.236 -62.236 -36.051 -191.11 167.04)" x1="0" x2="1" y1="0" y2="0">
      <stop stop-color="#230000" offset="0"/>
      <stop stop-color="#ed1b2f" offset="1"/>
    </linearGradient>
    <linearGradient id="b" gradientUnits="userSpaceOnUse" gradientTransform="matrix(86.722 -107.51 -107.51 -86.722 -154.82 228.32)" x1="0" x2="1" y1="0" y2="0">
      <stop stop-color="#230000" offset="0"/>
      <stop stop-color="#ed1b2f" offset="1"/>
    </linearGradient>
  </defs>
  <g transform="translate(208.72 -93.445)">
    <path fill="url(#b)" d="m-135.85 97.794-3.112 11.605h53.868l-5.0703 18.907h-34.278l-2.5503 9.5182c2.482-0.56167 5.0399-0.88805 7.6813-0.88805 18.96 0 34.323 15.37 34.323 34.331 0 18.96-15.363 34.323-34.323 34.323-5.427 0-10.558-1.2752-15.127-3.5219l4.7439-17.685c2.7021 0.98674 5.5712 1.4497 8.1975 1.4497 8.0381 0 14.566-6.5276 14.566-14.566 0-8.0532-6.5276-14.573-14.566-14.573-3.6661 0-7.8483 0.94119-11.325 2.9071l-13.435 50.118c9.6776 6.0646 21.093 9.5865 33.352 9.5865 34.763 0 62.938-28.175 62.938-62.923 0-34.763-28.175-62.938-62.938-62.938-8.0912 0-15.826 1.5484-22.945 4.3492"/>
    <path fill="url(#a)" d="m-156.57 128.31-7.15 26.695h12.539l1.1689-4.3872h-7.484 0.008-0.0228l2.1556-8.0684h6.224l1.131-4.1746h-6.224l1.5029-5.632h7.4992l1.1917-4.4251-0.008-0.008zm-15.226 0-7.15 26.695h12.023l1.1765-4.3872h-6.9906l0.1594-0.6224 5.7762-21.685zm-16.957 0-7.15 26.695h12.539l0.40228-1.4953 0.75144-2.8919h-7.4992l0.0531-0.12144 2.1253-7.947h6.2164l0.0607-0.18217 1.0626-3.9925h-6.2468l0.0607-0.12144 1.4725-5.5105h7.4688l1.1917-4.4327zm-17.465 0-1.1917 4.4327h4.6528l-5.9659 22.262h5.002l5.9508-22.262h4.6073l1.1841-4.4327z"/>
  </g>
</svg>
