<svg width="600" height="114.53" version="1.1" viewBox="0 0 158.75 30.301604" xmlns="http://www.w3.org/2000/svg" xmlns:xlink="http://www.w3.org/1999/xlink">
 <defs>
  <linearGradient id="a" x1="95.2" x2="151.87" y1="327.17" y2="327.17" gradientUnits="userSpaceOnUse">
   <stop stop-color="red" offset="0"/>
   <stop stop-color="#ff4b00" offset="1"/>
  </linearGradient>
  <linearGradient id="b" x1="104.74" x2="104.74" y1="284.62" y2="333.76" gradientUnits="userSpaceOnUse">
   <stop stop-color="#c80000" offset="0"/>
   <stop stop-color="red" offset="1"/>
  </linearGradient>
  <linearGradient id="j" x1="5.9917" x2="15.97" y1="250.49" y2="250.49" gradientTransform="translate(-33.072 -203.97)" gradientUnits="userSpaceOnUse" xlink:href="#b"/>
  <linearGradient id="i" x1="47.24" x2="70.86" y1="35.43" y2="35.43" gradientUnits="userSpaceOnUse" xlink:href="#a"/>
  <linearGradient id="h" x1="-3.9862" x2="15.239" y1="245.13" y2="245.13" gradientTransform="translate(-33.072 -203.97)" gradientUnits="userSpaceOnUse" xlink:href="#a"/>
  <linearGradient id="g" x2="47.24" y1="11.81" y2="11.81" gradientUnits="userSpaceOnUse" xlink:href="#b"/>
  <linearGradient id="f" x2="23.62" y1="35.43" y2="35.43" gradientUnits="userSpaceOnUse" xlink:href="#a"/>
  <linearGradient id="e" x1="11.81" x2="70.86" y1="53.145" y2="53.145" gradientUnits="userSpaceOnUse" xlink:href="#b"/>
  <linearGradient id="d" x1="-13.985" x2="-3.9862" y1="259.73" y2="259.73" gradientTransform="translate(-33.072 -203.97)" gradientUnits="userSpaceOnUse" xlink:href="#b"/>
  <linearGradient id="c" x1="-13.233" x2="10.981" y1="267.58" y2="267.58" gradientTransform="translate(-33.072 -203.97)" gradientUnits="userSpaceOnUse" xlink:href="#a"/>
 </defs>
 <g transform="translate(47.057 -36.174)">
  <path class="a" d="m-42.047 61.123-4.2581 4.2581a2.4881 2.4881 0 0 0 1.7615 0.73081h17.463l4.9889-4.9889z" fill="url(#c)"/>
  <path class="b" d="m-37.058 56.13l-9.999-9.9778v17.463a2.4881 2.4881 0 0 0 0.73081 1.7616l4.2581-4.2581z" fill="url(#d)"/>
  <polygon class="c" transform="matrix(.42243 0 0 .42243 -47.036 36.174)" points="59.05 59.05 70.86 47.24 23.62 47.24 11.81 59.05" fill="url(#e)"/>
  <polygon class="d" transform="matrix(.42243 0 0 .42243 -47.036 36.174)" points="23.62 23.62 0 23.62 23.62 47.24" fill="url(#f)"/>
  <polygon class="e" transform="matrix(.42243 0 0 .42243 -47.036 36.174)" points="47.24 23.62 23.62 0 0 23.62" fill="url(#g)"/>
  <path class="f" d="m-17.833 36.905a2.4881 2.4881 0 0 0 -1.7615 -0.73081h-17.463l9.9778 9.9778z" fill="url(#h)"/>
  <polygon class="g" transform="matrix(.42243 0 0 .42243 -47.036 36.174)" points="47.24 47.24 70.86 47.24 70.86 23.62" fill="url(#i)"/>
  <path class="h" d="m-17.102 38.671a2.4881 2.4881 0 0 0 -0.73081 -1.7616l-9.247 9.247v9.9736l9.9778-9.9778z" fill="url(#j)"/>
  <g fill="#140087">
   <path class="i" d="m-1.3837 50.841h-5.7324v-4.689h16.94v2.2178c0 1.6897-0.78572 2.4712-2.4712 2.4712h-3.3795v15.254h-5.3564z"/>
   <path class="i" d="m26.087 61.292v4.8031h-11.207l-3.3795-4.7735v-15.17h14.156v4.803h-8.926v2.8388h6.2098v4.6468h-6.2098v2.8641zm-5.3649-16.965h-4.4947l3.4597-4.6721h4.9425z"/>
   <path class="i" d="m42.744 61.402v4.689h-14.101v-19.939h2.8725c1.6897 0 2.4712 0.78572 2.4712 2.4712v12.779z"/>
   <path class="i" d="m58.788 61.292v4.8031h-11.22l-3.3795-4.7735v-15.17h14.151v4.803h-8.9049v2.8388h6.2098v4.6468h-6.2098v2.8641zm-5.3649-16.965h-4.4947l3.4555-4.6468h4.9425z"/>
   <path class="i" d="m60.663 64.857 1.6559-4.5496c2.2769 0.98425 3.9624 1.487 5.4916 1.487 1.5292 0 2.3614-0.56184 2.3614-1.432 0-1.1786-1.1237-1.5165-2.957-2.1122-3.4808-1.0941-5.8718-2.4459-5.8718-6.3745 0-4.0469 2.5346-6.1253 7.2743-6.1253a14.012 14.012 0 0 1 6.5012 1.5081l-2.2051 4.1145c-1.8798-0.8153-3.0331-1.1237-4.3806-1.1237-1.3476 0-2.1333 0.47735-2.1333 1.2377 0 1.0688 0.64632 1.3771 3.6245 2.4712 3.4555 1.2377 5.5634 2.8936 5.5634 6.1802 0 4.2243-2.7796 6.3365-7.8361 6.3365a15.765 15.765 0 0 1 -7.0884 -1.6179z"/>
   <path class="i" d="m91.298 66.095-1.1532-2.8937h-3.3795l-2.7542-3.6498-2.1122 6.5435h-5.7873l7.5277-19.943h3.088c1.6897 0 2.7542 0.73081 3.3795 2.3023l6.8518 17.641zm-2.5346-7.1814-2.3022-6.7589h-0.0845l-2.1924 6.7589z"/>
   <path class="i" d="m100.48 50.841h-5.7282v-4.689h16.94v2.2178c0 1.6897-0.78573 2.4712-2.4712 2.4712h-3.3794v15.254h-5.3607z"/>
  </g>
 </g>
</svg>
