<?xml version="1.0" encoding="UTF-8" standalone="no"?>
<svg xmlns:rdf="http://www.w3.org/1999/02/22-rdf-syntax-ns#" xmlns="http://www.w3.org/2000/svg" height="341.01" width="600" version="1.1" xmlns:cc="http://creativecommons.org/ns#" xmlns:dc="http://purl.org/dc/elements/1.1/" viewBox="0 0 158.75 90.22551">
 <g transform="translate(20.471 -155.91)">
  <path d="m-20.471 221.14h158.75v-34.86h-158.75l-0.001 34.86z" fill="#7f1c72"/>
  <path d="m124.35 199.38c-0.15 0-0.25-0.11-0.25-0.24v-6.21c0-0.13-0.11-0.25-0.25-0.25h-5.46c-0.14 0-0.25 0.12-0.25 0.25v6.21c0 0.13-0.12 0.24-0.25 0.24h-7.14c-0.14 0-0.25 0.11-0.25 0.25v5.52c0 0.13 0.11 0.24 0.25 0.24h7.14c0.13 0 0.25 0.11 0.25 0.25v7.28c0 0.13 0.11 0.24 0.25 0.24h5.46c0.14 0 0.25-0.11 0.25-0.24v-7.28c0-0.14 0.1-0.25 0.25-0.25h6.64c0.14 0 0.25-0.11 0.25-0.24v-5.52c0-0.14-0.11-0.25-0.25-0.25" fill="#fff"/>
  <path d="m77.845 205.62c3.479-20.82-47.343-7.49-21.167-30.02 11.544-9.93-18.278-31.46 10.816-11.49 17.585 12.07 16.578 28.41 10.351 41.51" fill="#7f1c72"/>
  <path d="m17.937 197.83c-10.833-31.53 13.976-24.11 5.099 0.25-4.731 12.98 11.255 22.68 21.292 20.83 27.5-5.08 10.748 29.25-14.626 13.6-12.969-7.99-4.282-12.9-11.765-34.68" fill="#fecc00"/>
  <path d="m101.6 187.43c-1.14-3.54-2.667-6.93-4.562-10.02-5.683-9.27-14.71-15.81-26.925-15.47-27.765 0.18-21.469 24.24-11.033 25.37 11.775 1.29 27.612-13.97 29.765 14.88 1.445 19.37 5.999 15.89-9.531 30.09-14.656 13.4-0.153 19.09-0.153 7.89 0-15.27 23.569-14.32 24.409-37.98 0.13-3.86-0.38-10.04-1.97-14.76" fill="#c9003c"/>
  <path d="m103.51 200.34c-1.02-18.74-25.917-27.24-25.196-4.85 0.929 28.89-11.524 34.65-47.819 20.1 14.19 5.98 21.006 8.94 29.897 13.57 17.851 9.29 44.538-2.71 43.118-28.82" fill="#e53734"/>
  <g fill="#fff">
   <path d="m40.985 197.17 1.295 15.16c0.011 0.09-0.051 0.18-0.156 0.18l-4.816 0.41c-0.099 0.01-0.184-0.06-0.187-0.16l-1.303-15.14c-0.003-0.1-0.089-0.16-0.18-0.16l-3.854 0.33c-0.088 0.01-0.174-0.06-0.177-0.16l-0.35-4.02c-0.007-0.1 0.068-0.18 0.153-0.18l13.299-1.15c0.088-0.01 0.18 0.06 0.18 0.16l0.357 4.03c0.004 0.09-0.064 0.17-0.163 0.18l-3.945 0.34c-0.092 0-0.16 0.09-0.153 0.18"/>
   <path d="m7.4985 204.52c-0.1667-1.33-0.9388-2.1-2.2959-2.3-1.3843-0.2-2.3163 0.32-2.7857 1.56-0.0204 0.05 0.0034 0.09 0.0544 0.09l4.9558 0.73c0.0476 0 0.0816-0.03 0.0714-0.08m-5.6292 2.07c-0.1837 1.79 0.602 2.8 2.3333 3.05 0.8912 0.12 1.6258-0.13 2.2313-0.74 0.068-0.08 0.1973-0.12 0.2857-0.11l3.9764 0.57c0.098 0.01 0.136 0.1 0.098 0.18-0.398 0.83-0.8704 1.46-1.3874 1.92-1.4251 1.21-3.3231 1.64-5.6768 1.29-2.1802-0.31-3.8537-1.15-4.9897-2.56-1.1361-1.4-1.5408-3.13-1.2585-5.14 0.2993-2.05 1.1565-3.6 2.5986-4.62 1.4354-1.03 3.2483-1.39 5.4081-1.07 2.1496 0.31 3.7245 1.16 4.7547 2.58 1.034 1.41 1.405 3.21 1.099 5.36l-0.048 0.31c-0.006 0.09-0.095 0.16-0.187 0.14l-9.0506-1.3c-0.0919-0.02-0.1803 0.04-0.1871 0.14"/>
   <path d="m13.25 212.19 1.204-17.5c0.007-0.09 0.092-0.17 0.18-0.15l3.946 0.27c0.092 0 0.163 0.09 0.156 0.18l-1.204 17.5c-0.01 0.1-0.085 0.17-0.187 0.16l-3.935-0.27c-0.092-0.01-0.17-0.09-0.16-0.19"/>
   <path d="m28.757 204.82c-0.419-1.16-1.245-1.7-2.493-1.62-1.29 0.08-2.028 0.73-2.218 1.93-0.007 0.04 0.02 0.08 0.075 0.08l4.581-0.31c0.045 0 0.075-0.03 0.055-0.08m-4.667 2.96c0.18 1.63 1.085 2.39 2.691 2.28 0.806-0.05 1.418-0.41 1.857-1.09 0.044-0.07 0.156-0.15 0.255-0.15l3.653-0.24c0.105 0 0.15 0.06 0.129 0.15-0.194 0.82-0.5 1.47-0.881 1.97-1.037 1.36-2.673 2.11-4.857 2.26-2.02 0.13-3.69-0.31-4.979-1.36-1.29-1.04-1.987-2.52-2.099-4.38-0.129-1.92 0.34-3.46 1.442-4.66 1.092-1.21 2.67-1.87 4.663-1.99 2.004-0.13 3.575 0.34 4.779 1.41 1.197 1.07 1.878 2.63 2.007 4.63l0.014 0.25c0.01 0.1-0.068 0.19-0.154 0.19l-8.367 0.55c-0.092 0-0.16 0.09-0.153 0.18"/>
   <path d="m-6.2224 203.68 1.3911 8.28c0.0136 0.1-0.0408 0.19-0.1327 0.2l-4.0033 0.67c-0.0919 0.02-0.1837-0.04-0.1973-0.14l-1.3914-8.26c-0.024-0.1-0.105-0.17-0.2-0.15l-1.085 0.19c-0.096 0.01-0.181-0.05-0.198-0.15l-0.551-3.25c-0.013-0.09 0.048-0.18 0.143-0.2l1.085-0.18c0.095-0.02 0.153-0.11 0.143-0.2l-0.568-3.33c-0.01-0.09 0.044-0.18 0.143-0.2l4.0066-0.67c0.0952-0.01 0.1803 0.05 0.1973 0.14l0.568 3.34c0.0068 0.08 0.0986 0.15 0.1905 0.13l2.1428-0.36c0.0952-0.01 0.1837 0.05 0.2007 0.14l0.5476 3.25c0.017 0.1-0.0476 0.19-0.1428 0.2l-2.1463 0.37c-0.0952 0.01-0.1564 0.09-0.1428 0.18"/>
   <path d="m54.6 207.27c0-1.02-0.378-1.87-1.082-2.58-0.707-0.72-1.574-1.06-2.578-1.06-0.99 0-1.85 0.36-2.578 1.08-0.714 0.71-1.082 1.54-1.082 2.53 0 1.01 0.354 1.9 1.062 2.6 0.707 0.72 1.578 1.08 2.598 1.08 1.024 0 1.871-0.36 2.578-1.08 0.704-0.7 1.082-1.57 1.082-2.57m3.524 0c0 2.02-0.697 3.68-2.099 4.98-1.381 1.31-3.075 1.94-5.085 1.94-2.03 0-3.745-0.65-5.122-1.95-1.368-1.32-2.061-2.93-2.061-4.85 0-1.47 0.377-2.79 1.142-3.95 0.759-1.15 1.817-2.02 3.147-2.55 0.864-0.35 1.802-0.53 2.819-0.53 2.092 0 3.823 0.66 5.191 1.96 1.371 1.29 2.068 2.96 2.068 4.95"/>
   <path d="m73.294 201.01c0-1.36-0.483-2.49-1.432-3.43-0.939-0.94-2.085-1.4-3.425-1.4-1.31 0-2.47 0.48-3.429 1.43-0.945 0.94-1.428 2.04-1.428 3.36 0 1.35 0.466 2.53 1.411 3.47 0.942 0.95 2.088 1.43 3.446 1.43 1.36 0 2.486-0.48 3.425-1.43 0.949-0.94 1.432-2.1 1.432-3.43m4.687 0c0 2.7-0.919 4.91-2.776 6.63-1.84 1.73-4.095 2.58-6.768 2.58-2.687 0-4.97-0.88-6.813-2.6-1.82-1.75-2.738-3.89-2.738-6.45 0-1.95 0.503-3.71 1.52-5.24 1.007-1.54 2.408-2.7 4.184-3.42 1.16-0.45 2.404-0.68 3.748-0.68 2.792 0 5.088 0.87 6.915 2.6 1.809 1.72 2.728 3.93 2.728 6.58"/>
   <path d="m90.933 213.88-6.755-10.4c-0.051-0.07-0.095-0.06-0.106 0.03l-0.843 9.66c-0.003 0.1-0.085 0.17-0.187 0.16l-3.901-0.34c-0.102-0.01-0.167-0.09-0.157-0.18l1.388-16.01c0.007-0.09 0.092-0.17 0.184-0.15l3.911 0.33c0.095 0.01 0.208 0.09 0.265 0.16l6.755 10.4c0.045 0.08 0.092 0.06 0.099-0.03l0.844-9.66c0.006-0.09 0.088-0.17 0.18-0.16l3.918 0.34c0.095 0.01 0.157 0.09 0.15 0.19l-1.395 16c-0.007 0.1-0.088 0.17-0.177 0.17l-3.918-0.36c-0.095 0-0.207-0.07-0.255-0.15"/>
  </g>
 </g>
</svg>
