<svg width="180.65" height="248.988" viewBox="0 0 47.797 65.878" xmlns="http://www.w3.org/2000/svg">
    <g fill-rule="evenodd">
        <path d="M.571 23.505L23.933 0l23.295 23.806-15.743 15.487-.128-31.358-12.483 6.354.128 8.448 4.736-2.688-.16 26.686z" fill="#b41e27"/>
        <path d="M23.933.002L13.299 10.7c1.865.904 4.026 1.966 6.428 3.157l11.63-5.92.047 11.76c4.73 2.38 9.241 4.666 13.21 6.68l2.613-2.569z" fill="#d21e29"/>
    </g>
    <g fill="#fff">
        <path d="M4.266 51.132h1.81v2.036h-1.81zM15.805 51.132h1.81v2.036h-1.81zM1.505 51.132h1.81v2.036h-1.81zM11.959 63.842h1.81v2.036h-1.81zM9.198 63.842h1.81v2.036h-1.81z"/>
        <g style="font-feature-settings:normal;font-variant-caps:normal;font-variant-ligatures:normal;font-variant-numeric:normal" aria-label="الوطنية">
            <path d="M47.796 62.105H45.58V51.282h2.215zM39.76 59.91h1.67v-8.626h2.206v9.635q.027.241-.054.464-.08.215-.232.384-.152.161-.366.26-.214.098-.455.098H39.76zM23.019 55.426q.375-.474 1-.768.634-.304 1.42-.304l3.42.036q.223 0 .42.09.205.088.357.24.152.143.232.348.09.197.09.42v5.448q0 .24-.081.464-.071.214-.214.375-.143.16-.349.259-.205.09-.455.09h-9.528v-2.215h1.482v-8.627h2.206zm2.375 1.134q-.446 0-.866.116t-.75.348q-.322.232-.527.58-.205.34-.232.804v1.5h4.724v-3.321q-1.206-.018-1.76-.018l-.59-.01z"/>
            <path d="M15.684 59.91v-5.268h2.206v5.232h1.59v2.224l-5.546.027V59.91z"/>
            <path d="M10.373 59.91v-5.268h2.206v5.268h1.59v2.215H8.622V59.91z"/>
            <path d="M8.899 62.124h-2.59c-.173 0-.328-.03-.465-.09-.136-.065-.253-.151-.348-.258s-.17-.233-.223-.375a1.43 1.43 0 0 1-.072-.456l-.017-4.375h-.742a29.358 29.358 0 0 0-.732-.01c-.196 0-.384.042-.562.126a1.548 1.548 0 0 0-.465.321 1.483 1.483 0 0 0-.428 1.027l.008 1.858c.108.017.248.038.42.062.179.024 3.112.045 3.297.063 1.466-.444 2.887 2.233 1.371 2.113-2.348.051-5.514.122-7.212.032-.25-1.681-.09-2.97-.09-4.128 0-.506.095-.982.286-1.429s.45-.836.777-1.17a3.678 3.678 0 0 1 1.17-.785c1.627-.53 3.34-.176 5.104-.286 0 0 .017 4.079.021 5.546h1.491zM38.27 62.124s.083 1.44-.458 2.122c-.658 1.67-3.77 1.205-3.77 1.205v-2.215s1.345.057 1.827-.282c.488-.34.178-.84.178-.84-1.59.101-4.878.02-4.878.02s-.07-2.525-.006-4.482c.033-1.037.334-1.836.568-2.107.672-.777 1.812-1.192 3.084-1.19s2.353.466 2.917 1.127c.65.772.841 2.476.842 3.508 0 .154-.003.31-.009.464 0 .149-.003.3-.009.455h1.375v2.215zm-2.258-5.335c-.457-.366-2.296-.428-2.518.037-.297.621-.08 3.194-.08 3.194l2.796.024c.043-.92-.007-2.602-.198-3.255z"/>
        </g>
    </g>
    <path d="M18.873 14.289l12.483-6.354.128 31.358-7.907 7.442.16-26.686L19 22.737z" fill="#fff"/>
</svg>
