<?xml version="1.0" encoding="UTF-8" standalone="no"?>
<svg xmlns="http://www.w3.org/2000/svg" height="535.6" width="600" version="1.1" viewBox="0 0 158.75 141.71161">
 <g transform="translate(37.33 -64.527)" fill="#9b9ba1">
  <path d="m-26.757 204.45c-1.099 1.22-2.769 1.79-4.34 1.79-3.975 0-6.233-2.36-6.233-6.38 0-4.7 3.02-8.86 7.987-8.86 3.215 0 5.848 1.51 5.848 4.87h-1.935c0-2.22-1.796-3.24-3.913-3.24-4.053 0-6.049 3.73-6.049 7.23 0 2.81 1.387 4.75 4.295 4.75 3.076 0 4.565-1.94 5.256-4.75h-4.643l0.329-1.63h6.33l-1.588 7.66h-1.221z"/>
  <path d="m-19.931 191.35-3.076 14.54h1.937l1.305-6.21h4.296c0.832 0 2.789-0.37 2.182 3.1-0.288 1.48-0.227 2.58-0.046 3.11h2.02c-0.594-1.16-0.101-2.4-0.021-3.73 0.145-1.46-0.229-2.77-1.484-3.16v-0.03c1.935-0.29 3.2785-1.98 3.2785-3.92 0-2.87-2.3255-3.7-4.7865-3.7zm1.591 1.63h4.014c1.446 0 2.851 0.38 2.851 2.2 0 1.04-0.531 2.87-3.588 2.87h-4.36z"/>
  <path d="m3.3167 200.06c-0.2461 1.13-0.4883 2.22-0.7325 2.8-0.9825 2.4-3.1994 3.38-5.6645 3.38-4.26 0-6.1098-2.28-5.2777-6.34l1.8127-8.55h1.9337l-1.9142 9.04c-0.6524 2.81 0.6348 4.22 3.4455 4.22 3.178 0 3.8714-1.82 4.4398-4.55l1.8341-8.71h1.9338z"/>
  <path d="m7.6721 191.35-3.0331 14.54h1.9354l1.2636-5.95h4.315c4.284 0 5.565-2.77 5.565-4.58 0-2.65-1.528-4.01-4.318-4.01zm1.6343 1.63h4.0936c1.28 0 2.382 0.59 2.382 2.38 0 1.73-1.139 2.95-3.215 2.95h-4.3808z"/>
  <path d="m20.368 191.35-3.035 14.54h1.937l1.26-5.95h4.319c4.28 0 5.564-2.77 5.564-4.58 0-2.65-1.528-4.01-4.321-4.01zm1.632 1.63h4.092c1.283 0 2.386 0.59 2.386 2.38 0 1.73-1.139 2.95-3.224 2.95h-4.376z"/>
  <path d="m38.642 191c-4.967 0-7.983 4.16-7.983 8.86 0 4.02 2.259 6.38 6.232 6.38 4.848 0 7.822-4.24 7.822-8.8 0-3.61-2.301-6.44-6.071-6.44zm0 1.63c2.686 0 4.14 2.12 4.14 4.81 0 3.46-2.037 7.17-5.891 7.17-2.912 0-4.298-1.94-4.298-4.75 0-3.5 1.994-7.23 6.049-7.23z"/>
  <path d="m50.624 191.35h3.893l3.397 9.51h0.043l1.816-9.51h3.663l-3.036 14.54h-3.889l-3.361-9.51h-0.043l-1.854 9.51h-3.664z"/>
  <path d="m71.833 191.04c-5.014 0-8.151 3.89-8.151 8.72 0 4.05 2.349 6.44 6.4 6.44 5.215 0 8.229-3.89 8.229-9.01 0-5.21-3.955-6.15-6.478-6.15zm-0.121 3.12c2.033 0 2.806 1.2 2.806 3.36 0 2.3-1.404 5.56-4.133 5.56-2.018 0-2.917-1.43-2.917-3.3 0-2.41 1.306-5.62 4.244-5.62z"/>
  <path d="m81.569 191.35-3.017 14.54h3.795l1.1-5.3h2.525c1.344 0 1.897 0.68 1.897 1.96 0 0.98-0.109 1.75-0.109 2.51 0 0.28 0.067 0.55 0.121 0.83h3.816c-0.225-0.41-0.226-1.04-0.226-1.55 0-0.83 0.062-1.65 0.062-2.71 0-1.4-0.407-2.16-1.489-2.42v-0.04c2.287-0.33 3.322-1.88 3.322-4.05 0-3.1-2.017-3.77-4.664-3.77zm3.181 2.93h2.791c0.994 0 2.04 0.26 2.04 1.51 0 1.56-1.184 1.99-2.55 1.99h-3.014z"/>
  <path d="m96.442 191.35-3.033 14.54h7.111c4.25-0.02 6.62-1.93 6.62-4.89 0-1.3-0.78-2.54-2.06-2.85v-0.04c1.67-0.37 2.69-1.67 2.69-3.58 0-1.6-0.61-3.18-4.54-3.18zm3.138 2.97h2.49c0.81 0 1.91 0.08 1.91 1.14 0 1.12-0.75 1.61-2.28 1.61h-2.686zm-1.098 5.3h2.668c0.98 0 2.2 0.1 2.2 1.44 0 1.57-1.26 1.86-2.59 1.86h-2.972z"/>
  <path d="m115.2 191.35-8.49 14.54h3.97l1.47-2.61h5.12l0.34 2.61h3.81l-2.38-14.54zm1.14 3.89h0.05l0.55 5.23h-3.32z"/>
  <path d="m39.058 94.417 26.258 26.353c0.651 0.65 1.575 1.26 2.773 1.26 0.976 0.03 1.952-0.44 2.512-1.09 0.586-0.66 0.859-1.38 0.976-2.1l4.218-22.327c0.052-0.403 0.079-0.755 0.079-1.119-0.027-1.914-0.651-3.698-2.031-5.182l-15.076-15.244c-6.066-6.418-14.697-10.441-24.279-10.441-16.155 0-29.655 11.456-32.78 26.714l-14.072 74.969c-0.039 0.3-0.091 0.59-0.091 0.89 0 1.17 0.442 2.32 1.288 3.15 0.847 0.81 1.9921 1.25 3.1507 1.25h17.757c2.6423-0.08 4.7253-1.82 5.2983-4.39l13.24-69.881c0.742-2.708 3.254-4.713 6.209-4.713 1.797 0 3.385 0.73 4.57 1.901"/>
  <path d="m-4.4974 86.313 3.0723-16.259c0.0651-0.3 0.0911-0.586 0.0911-0.886 0-1.171-0.4686-2.33-1.3018-3.137-0.8332-0.82-2.0178-1.25-3.1634-1.25h-23.121c-2.616 0.091-4.712 1.797-5.285 4.374l-3.059 16.26c-0.039 0.273-0.066 0.573-0.066 0.872-0.013 1.172 0.469 2.33 1.289 3.138 0.833 0.807 1.979 1.249 3.151 1.249h23.159c2.6169-0.078 4.6998-1.783 5.2336-4.361"/>
  <path d="m120.13 68.063c-0.83-0.82-1.99-1.263-3.18-1.263h-17.714c-2.63 0.091-4.726 1.797-5.311 4.374l-13.188 69.896c-0.794 2.69-3.267 4.7-6.236 4.7-1.809 0-3.436-0.72-4.595-1.89l-26.219-26.35c-0.69-0.65-1.601-1.25-2.838-1.27-0.924-0.02-1.914 0.44-2.46 1.12-0.586 0.63-0.873 1.38-1.003 2.09l-4.192 22.32c-0.091 0.37-0.117 0.74-0.117 1.13 0.052 1.89 0.664 3.68 2.044 5.15l15.088 15.27c6.054 6.41 14.711 10.43 24.292 10.43 16.143 0 29.669-11.45 32.769-26.71l14.07-74.974 0.01-0.013c0.06-0.313 0.07-0.599 0.07-0.873 0.03-1.171-0.47-2.33-1.29-3.137"/>
 </g>
</svg>
