<svg width="800" height="732.81" version="1.1" viewBox="0 0 211.67 193.9" xmlns="http://www.w3.org/2000/svg">
 <g transform="translate(25.916 81)">
  <path d="m-25.917-12.759h24.07v-19.344h24.064v42.754h-48.133zm0-23.415v-44.826h16.254v21.416h3.9354v-21.416h7.7135v21.416h3.9359v-21.416h16.295v44.826zm24.046 112.89v-13.251h-24.046v49.432h24.046v-12.992h24.087v-23.189zm-24.046-17.166v-44.831h16.254v21.416h3.9354v-21.416h7.7135v21.416h3.9359v-21.416h16.295v44.831zm204.69-59.078c18.429 40.636-0.84608 87.954-43.046 105.7-42.204 17.743-91.353-0.8127-109.78-41.445zm-68.392 28.914h-80.473v-110.39h147.09v65.236h-66.618z" fill="#fff" stroke-width=".46638"/>
 </g>
</svg>
