<svg width="211.67mm" height="167.38mm" version="1.1" viewBox="0 0 211.67 167.38" xmlns="http://www.w3.org/2000/svg">
 <g transform="translate(6.3586 -22.656)" fill="#316c94" stroke-opacity=".98824">
  <path d="m50.721 38.629-53.245 86.258c-2.4132 3.5856-3.8345 7.9807-3.8345 12.73 0 12.076 9.1863 21.866 20.518 21.866h0.01896 47.97v30.55h43.496v-30.55h16.021v-39.454h-16.021v-81.4l-43.496 67.188v14.212h-17.704l52.502-81.4z" stroke-width="1.2989"/>
  <path d="m121.75 22.656v45.556c0 8.775 7.8597 15.889 17.555 15.889 4.1074 0 7.8851-1.2769 10.876-3.4156l0.0392-11.861c0.034-0.71448-0.65164-0.88416-0.65164-0.88416s-2.0022-0.27235-2.8867 0.15293c-0.90986 0.96237-1.9637 1.3681-3.101 1.3779-1.0534 4.1e-5 -2.1012-0.66774-2.629-1.1844v-13.445h9.2293v-15.923h-9.4581l-2e-4 -16.263z" stroke-width="1.0771"/>
  <path d="m187.43 74.302c-2.7112 5.7632-5.1618 10.275-10.874 10.275-5.7122 0-8.1797-5.0287-10.343-10.275-0.91861-2.2278-14.072-35.326-14.072-35.326l17.161 0.03421 8.1232 21.01c0.35736 0.92428 0.40942 0.99458 0.89347 0l10.261-21.084 16.733 0.14524s-16.343 32.285-17.882 35.22z" stroke-width="1.2048"/>
 </g>
</svg>
