<svg width="211.67mm" height="166.8mm" version="1.1" viewBox="0 0 211.67 166.8" xmlns="http://www.w3.org/2000/svg">
 <g transform="translate(680.68 110.99)">
  <path d="m-680.68-80.109s41.09-30.851 41.07-30.879l-0.14158 138s-41.104 28.834-40.905 28.803l-0.0235-135.92z" fill="#47dfac" stroke-width=".02359"/>
  <path d="m-469.01-27.569a77.991 77.991 0 0 1-77.991 77.991 77.991 77.991 0 0 1-77.991-77.991 77.991 77.991 0 0 1 77.991-77.991 77.991 77.991 0 0 1 77.991 77.991z" fill="#ff005c" stroke-width="2.0932"/>
  <path d="m-582.17-3.5364c-2.3118-0.30667-4.081-0.66051-4.8123-0.96718-2.5241-1.038-3.4205-1.5805-5.4256-3.279-1.3682-1.1559-4.6708-5.9446-4.7416-6.8882-0.0236-0.09436-0.16512-0.6841-0.33025-1.3446-0.87283-3.2318-0.92001-4.3641-1.0144-20.169-0.0708-8.6103-0.0471-15.994 0.0471-16.395 0.11795-0.58974 0.87282-1.2503 4.4113-3.8923 5.2841-3.9631 6.0862-4.5056 6.3457-4.3405 0.11795 0.07077 0.2123 3.1846 0.2123 6.9354 0 4.9067 0.0708 6.8646 0.28308 6.9826 0.14155 0.09436 3.2554 0.14154 6.9118 0.11795 6.7938-0.04718 7.9734 0.02359 7.8554 0.58974-0.0471 0.16513-1.6513 2.3118-3.5621 4.7887l-3.4913 4.5057h-3.7036c-2.5949 0-3.8215 0.09436-4.0103 0.28308-0.58974 0.58975-0.16513 16.159 0.49539 17.645 1.3682 3.1139 4.1518 4.9539 7.4308 4.9539 1.4862 0 4.2226-0.56616 4.6-0.94359 0.11795-0.09436-0.11795-0.87282-0.49538-1.6749-0.40102-0.82564-0.82564-1.9344-0.99077-2.4533-0.14154-0.51898-0.42462-1.5333-0.66051-2.241-0.28308-0.99077-0.37744-2.2646-0.37744-5.4257 0-4.0339 0.0236-4.1754 0.77846-6.3692 1.7928-5.2369 3.7508-7.9498 7.8318-10.969 3.5621-2.6185 7.6667-3.8923 12.597-3.8923 6.5108 0 11.913 2.4533 17.055 7.7375 1.3682 1.4154 2.4062 2.6892 2.4062 2.9487 0 0.28308-4.1282 4.5764-11.016 11.512-6.0862 6.0862-11.04 11.205-11.04 11.347 0 0.40103 2.0995 0.89641 3.798 0.89641 1.6513 0 4.4349-0.66051 6.1098-1.439 1.6041-0.75487 4.1518-3.2318 5.001-4.8595 0.40102-0.75487 0.89641-1.9815 1.1087-2.7128 0.21231-0.75487 0.4718-1.3682 0.56616-1.3682 0.0944 0 1.6985 0.33026 3.5856 0.7077 1.8636 0.37744 3.4913 0.61333 3.5856 0.51898 0.0944-0.09436 0.21232-5.5436 0.2359-12.078l0.0708-11.913h13.446l3.1138 4.6c1.6985 2.5241 3.8216 5.6616 4.718 6.959 0.92001 1.2974 2.8544 4.1282 4.3405 6.2985 1.4862 2.1703 2.76 3.9395 2.878 3.9631 0.0944 0 0.16513-4.718 0.16513-10.474 0-5.7559 0.0708-10.639 0.14155-10.851 0.11795-0.30667 0.58974-0.37744 2.8308-0.37744 3.1139 0 2.5241-0.37744 6.039 3.9631l2.3354 2.9251-0.0236 17.268c-0.0236 9.4831-0.0944 17.386-0.18872 17.551-0.21231 0.33026-10.828 0.44821-11.158 0.11795-0.21231-0.21231-2.5241-3.5856-7.7375-11.3-1.4626-2.1938-2.8544-4.199-3.0903-4.4585-0.23589-0.25949-0.58974-0.80205-0.80205-1.2267-0.18871-0.40103-0.51897-0.87282-0.6841-1.0615-0.16513-0.16513-0.99077-1.321-1.8164-2.5477-0.82563-1.2267-1.84-2.76-2.2882-3.4205-0.42461-0.63692-0.92-1.1795-1.0851-1.1795-0.21232 0-0.30667 2.8072-0.35385 12.691l-0.0471 12.668-5.3785-0.047179-5.3549-0.070769-0.0708-4.6c-0.0236-2.5241-0.14153-4.6708-0.25948-4.7887-0.11795-0.11795-0.6841 0.51898-1.2974 1.439-1.2738 1.8872-3.1374 3.7508-5.3313 5.2841-2.7364 1.9108-4.9303 2.8072-8.4923 3.3969-2.3118 0.37744-7.4072 0.42462-8.9641 0.070769-1.2503-0.25949-4.4821-1.5097-5.6616-2.1703-1.6749-0.96718-2.0051-1.1087-2.4533-1.1087-0.25949 0-0.63693 0.14154-0.82564 0.33026-1.0616 0.92-3.8923 2.1467-6.558 2.878-1.2267 0.33026-6.3928 0.61333-7.7374 0.42462zm19.296-21.254c1.6277-1.6749 3.3026-3.3969 3.7272-3.8451 0.40103-0.44821 2.2882-2.4062 4.199-4.3169 3.8451-3.8923 3.8687-3.9867 1.7692-4.6944-1.4154-0.4718-5.1662-0.54257-6.6995-0.11795-4.5292 1.2503-7.5487 5.2369-7.5487 9.9549 0 2.359 0.84922 6.0154 1.4154 6.0154 0.0944 0 1.5098-1.3446 3.1374-2.9959z" fill="#fff" stroke-width=".02359"/>
 </g>
</svg>
