<svg version="1.2" viewBox="0 0 800 447.04" xmlns="http://www.w3.org/2000/svg">
 <path d="m85.9 0v112.75c40.035 0.40853 79.662 0 119.7 0.40853-19.609 25.328-38.81 50.248-58.419 75.577h-60.87c0 38.401 0 76.394 0.40852 114.8 0 23.694 14.707 47.389 36.767 56.376 20.018 8.9875 42.486 4.9023 62.504-2.0426-27.78-49.84-31.865-113.16-6.5364-164.64 15.115-33.499 43.712-59.236 76.394-75.168 46.98-21.652 104.17-20.426 149.93 4.0852 29.822 14.707 53.108 38.81 74.351 63.73-58.01 59.644-117.65 117.65-175.67 177.3 31.865 9.396 68.223 5.3108 94.778-15.932 19.201-13.89 30.639-35.95 34.316-59.236 19.201 4.0852 38.401 8.1705 58.01 11.847v-187.92h103.77c39.627 58.01 78.437 115.61 118.47 173.21-0.40853-57.193 0-114.39-0.40853-171.58q22.06-0.40852 44.121 0c13.89 17.158 28.188 34.316 42.486 51.474v273.71h-85.79c-46.163-67.406-91.509-134.81-138.08-201.81-0.40852 66.998 0 134.4 0 201.81-28.188 0-56.376 0-84.564-0.40852v-78.845c-17.975 29.822-43.304 55.559-74.76 70.675-31.048 13.89-65.364 16.341-98.863 14.298-27.371-1.6341-51.883-15.524-75.577-28.597-38.401 29.005-89.875 37.176-136.45 26.963-51.474-10.213-93.143-55.559-101.31-107.03-5.7193-33.907-4.4938-68.223-4.4938-102.13 0.81705-56.785 0-113.57 0.40852-170.35 28.597-21.243 56.785-42.486 85.381-63.321m167.09 213.66c-19.201 27.371-15.115 63.73-3.6767 93.96 38.401-39.218 76.394-78.845 114.39-118.47-36.359-19.609-87.016-10.622-110.71 24.511" fill="#47dfab" fill-rule="evenodd"/>
</svg>
