<svg version="1.0" viewBox="0 0 580.69 801" xmlns="http://www.w3.org/2000/svg" xmlns:xlink="http://www.w3.org/1999/xlink">
 <g transform="translate(-489.35 445.36)">
  <g transform="matrix(.58027 0 0 -.58027 595.82 87.973)">
   <path d="m0 0h0.672z" fill="#81a5d2"/>
  </g>
  <g transform="matrix(.58027 0 0 -.58027 595.06 86.29)">
   <path d="m0 0h2.137z" fill="#81a5d2"/>
  </g>
  <g transform="matrix(.58027 0 0 -.58027 601.25 88.465)">
   <path d="m0 0h-1.301z" fill="#5b8dc4"/>
  </g>
  <g transform="matrix(.58027 0 0 -.58027 599.42 86.29)">
   <path d="m0 0h1.635z" fill="#81a5d2"/>
  </g>
  <g transform="matrix(.58027 0 0 -.58027 600.31 88.465)">
   <path d="m0 0h-1.369z" fill="#5b8dc4"/>
  </g>
  <g transform="matrix(.58027 0 0 -.58027 608.17 88.465)">
   <path d="m0 0h-0.551z" fill="#5b8dc4"/>
  </g>
  <g transform="matrix(.58027 0 0 -.58027 608.17 87.25)">
   <path d="m0 0h1.074z" fill="#81a5d2"/>
  </g>
  <g transform="matrix(.58027 0 0 -.58027 601.98 87.79)">
   <path d="m0 0h0.574z" fill="#81a5d2"/>
  </g>
  <g transform="matrix(.58027 0 0 -.58027 494.59 406.82)" clip-path="url(#id1809)">
   <g transform="matrix(3.6114 0 0 3.6114 562.45 533.24)">
    <use width="744.09448" height="1052.3622" xlink:href="#id1807"/>
   </g>
  </g>
  <g transform="matrix(12.42 0 0 -8.6811 713.3 217.02)">
   <use width="744.09448" height="1052.3622" xlink:href="#id9"/>
  </g>
  <g transform="matrix(14.799 0 0 -12.99 809.28 53.498)">
   <use width="744.09448" height="1052.3622" xlink:href="#id7"/>
  </g>
  <g transform="matrix(.58027 0 0 -.58027 494.59 406.82)" clip-path="url(#id1998)">
   <g transform="matrix(9.0466 0 0 9.0777 558.61 333.65)">
    <use width="744.09448" height="1052.3622" xlink:href="#id13"/>
   </g>
  </g>
  <g transform="matrix(.58027 0 0 -.58027 494.59 406.82)" clip-path="url(#id2075)">
   <g transform="matrix(.99481 0 0 .18652 557.48 332.26)">
    <use width="744.09448" height="1052.3622" xlink:href="#id91"/>
   </g>
  </g>
  <g transform="matrix(.32471 0 0 -.090198 819.07 214.02)">
   <use width="744.09448" height="1052.3622" xlink:href="#id92"/>
  </g>
  <g transform="matrix(.58027 0 0 -.58027 494.59 406.82)" clip-path="url(#id2076)">
   <g transform="matrix(1.6477 0 0 .15544 560.96 332.26)">
    <use width="744.09448" height="1052.3622" xlink:href="#id93"/>
   </g>
  </g>
  <g transform="matrix(.58027 0 0 -.58027 494.59 406.82)" clip-path="url(#id2077)">
   <g transform="matrix(1.3368 0 0 .18652 564.26 332.26)">
    <use width="744.09448" height="1052.3622" xlink:href="#id95"/>
   </g>
  </g>
  <g transform="matrix(.58027 0 0 -.58027 494.59 406.82)" clip-path="url(#id2078)">
   <g transform="matrix(2.0518 0 0 .15544 565.9 332.26)">
    <use width="744.09448" height="1052.3622" xlink:href="#id97"/>
   </g>
  </g>
  <g transform="matrix(.58027 0 0 -.58027 494.59 406.82)" clip-path="url(#id2079)">
   <g transform="matrix(.15544 0 0 .15544 568.89 332.26)">
    <use width="744.09448" height="1052.3622" xlink:href="#id99"/>
   </g>
  </g>
  <g transform="matrix(.58027 0 0 -.58027 494.59 406.82)" clip-path="url(#id2080)">
   <g transform="matrix(9.0466 0 0 9.0777 558.5 333.75)">
    <use width="744.09448" height="1052.3622" xlink:href="#id13"/>
   </g>
  </g>
  <g transform="matrix(.58027 0 0 -.58027 494.59 406.82)" clip-path="url(#id2081)">
   <g transform="matrix(7.9896 0 0 8.4559 558.72 333.82)">
    <use width="744.09448" height="1052.3622" xlink:href="#id102"/>
   </g>
  </g>
  <g transform="matrix(.58027 0 0 -.58027 494.59 406.82)" clip-path="url(#id2082)">
   <g transform="matrix(7.9896 0 0 8.4559 558.72 333.82)">
    <use width="744.09448" height="1052.3622" xlink:href="#id104"/>
   </g>
  </g>
  <g transform="matrix(.58027 0 0 -.58027 494.59 406.82)" clip-path="url(#id2083)">
   <g transform="matrix(6.4663 0 0 6.9948 559.25 334.81)">
    <use width="744.09448" height="1052.3622" xlink:href="#id106"/>
   </g>
  </g>
  <g transform="matrix(.58027 0 0 -.58027 494.59 406.82)" clip-path="url(#id2088)">
   <g transform="matrix(5.5098 .016495 -.016495 5.5098 477.48 349.59)">
    <use width="744.09448" height="1052.3622" xlink:href="#id671"/>
   </g>
  </g>
  <g transform="matrix(.58027 0 0 -.58027 494.59 406.82)" clip-path="url(#id2124)">
   <g transform="matrix(2.4098 0 0 .51135 386.28 311.99)">
    <use width="744.09448" height="1052.3622" xlink:href="#id1545"/>
   </g>
  </g>
  <g transform="matrix(.58027 0 0 -.58027 494.59 406.82)" clip-path="url(#id2125)">
   <g transform="matrix(2.4098 0 0 .51135 386.28 311.48)">
    <use width="744.09448" height="1052.3622" xlink:href="#id1547"/>
   </g>
  </g>
  <g transform="matrix(.58027 0 0 -.58027 494.59 406.82)" clip-path="url(#id2126)">
   <g transform="matrix(2.4098 0 0 .51135 386.28 310.96)">
    <use width="744.09448" height="1052.3622" xlink:href="#id1549"/>
   </g>
  </g>
  <g transform="matrix(.58027 0 0 -.58027 494.59 406.82)" clip-path="url(#id2127)">
   <g transform="matrix(2.4098 0 0 .51135 386.28 310.45)">
    <use width="744.09448" height="1052.3622" xlink:href="#id1551"/>
   </g>
  </g>
  <g transform="matrix(.58027 0 0 -.58027 494.59 406.82)" clip-path="url(#id2128)">
   <g transform="matrix(2.4098 0 0 .36435 386.28 310.09)">
    <use width="744.09448" height="1052.3622" xlink:href="#id1553"/>
   </g>
  </g>
  <g transform="matrix(5.7558 0 0 5.7558 726.29 74.511)">
   <use width="744.09448" height="1052.3622" xlink:href="#id1557"/>
  </g>
  <g transform="matrix(.58027 0 0 -.58027 766.29 86.29)">
   <path d="m0 0h1.406z" fill="#81a5d2"/>
  </g>
  <g transform="matrix(.58027 0 0 -.58027 763.66 87.973)">
   <path d="m0 0h0.672z" fill="#81a5d2"/>
  </g>
  <g transform="matrix(.58027 0 0 -.58027 762.9 86.29)">
   <path d="m0 0h2.137z" fill="#81a5d2"/>
  </g>
  <g transform="matrix(.58027 0 0 -.58027 769.1 88.465)">
   <path d="m0 0h-1.301z" fill="#5b8dc4"/>
  </g>
  <g transform="matrix(.58027 0 0 -.58027 767.27 86.29)">
   <path d="m0 0h1.635z" fill="#81a5d2"/>
  </g>
  <g transform="matrix(.58027 0 0 -.58027 768.16 88.465)">
   <path d="m0 0h-1.369z" fill="#5b8dc4"/>
  </g>
  <path d="m767.08 87.655h-0.87621 2e-3z" fill="#85a8d4"/>
  <path d="m766.98 87.586h-0.6708 3e-3z" fill="#a5bddf"/>
  <path d="m766.98 87.586h-0.66731 0.66499z" fill="#9db8dc"/>
  <path d="m766.98 87.585h-0.66325z" fill="#8dadd7"/>
  <path d="m766.98 87.585h-0.66325z" fill="#85a8d4"/>
  <path d="m764.05 87.98h-0.39691z" fill="#bfd0e9"/>
  <path d="m764.05 87.976h-0.39575z" fill="#aec3e2"/>
  <path d="m764.05 87.974h-0.3911 1e-3z" fill="#9db8dc"/>
  <path d="m764.05 87.974h-0.38994z" fill="#95b2da"/>
  <path d="m764.05 87.974h-0.38994z" fill="#8dadd7"/>
  <path d="m764.05 87.974h-0.38994z" fill="#85a8d4"/>
  <path d="m763.66 86.791h0.36732z" fill="#6090c6"/>
  <path d="m768.34 87.698v0.76306z" fill="#a5bddf"/>
  <path d="m768.34 87.7v0.76364z" fill="#95b2da"/>
  <path d="m768.34 87.7v0.76534z" fill="#8dadd7"/>
  <path d="m768.34 87.7v0.76538z" fill="#85a8d4"/>
  <path d="m768.34 87.7v0.76538z" fill="#7da3d1"/>
  <path d="m768.34 87.7v0.76538z" fill="#769ece"/>
  <path d="m768.18 86.357h-0.78124z" fill="#85a8d4"/>
  <path d="m768.21 86.294h-0.94446z" fill="#b6c9e5"/>
  <path d="m768.22 86.292h-0.94874z" fill="#a5bddf"/>
  <path d="m768.22 86.292h-0.94874z" fill="#9db8dc"/>
  <path d="m768.22 86.29h-0.94874z" fill="#8dadd7"/>
  <path d="m768.22 86.29h-0.94874z" fill="#85a8d4"/>
  <path d="m769.96 86.357h-0.6325z" fill="#85a8d4"/>
  <path d="m770.09 86.294h-0.78975 0.79207z" fill="#b6c9e5"/>
  <path d="m770.09 86.292h-0.7944 0.79556z" fill="#a5bddf"/>
  <path d="m770.09 86.292h-0.79556z" fill="#9db8dc"/>
  <path d="m770.09 86.29h-0.79556z" fill="#8dadd7"/>
  <path d="m770.09 86.29h-0.79556z" fill="#85a8d4"/>
  <path d="m767.36 88.465h0.79191-0.79439z" fill="#6090c6"/>
  <path d="m765.16 88.465h0.74913-0.75145z" fill="#6090c6"/>
  <path d="m767.06 86.357h-0.73115z" fill="#85a8d4"/>
  <path d="m767.1 86.294h-0.81238z" fill="#b6c9e5"/>
  <path d="m767.11 86.292h-0.81586z" fill="#a5bddf"/>
  <path d="m767.11 86.292h-0.81586z" fill="#9db8dc"/>
  <path d="m767.11 86.29h-0.81586z" fill="#8dadd7"/>
  <path d="m767.11 86.29h-0.81586z" fill="#85a8d4"/>
  <path d="m762.9 88.465h1.2998z" fill="#6090c6"/>
  <path d="m762.97 86.357v2.0402z" fill="#85a8d4"/>
  <path d="m762.9 86.294v2.1696-2.1714z" fill="#9db8dc"/>
  <path d="m762.9 86.292v2.1731z" fill="#8dadd7"/>
  <path d="m762.9 86.292v2.1731-2.1754z" fill="#85a8d4"/>
  <path d="m762.9 86.29v2.1754z" fill="#7da3d1"/>
  <path d="m762.9 86.29v2.1754z" fill="#769ece"/>
  <path d="m764.14 86.357h-1.1727z" fill="#85a8d4"/>
  <path d="m764.14 86.294h-1.2377z" fill="#b6c9e5"/>
  <path d="m764.14 86.292h-1.2397z" fill="#a5bddf"/>
  <path d="m764.14 86.292h-1.24z" fill="#9db8dc"/>
  <path d="m764.14 86.29h-1.24z" fill="#8dadd7"/>
  <path d="m764.14 86.29h-1.24z" fill="#85a8d4"/>
  <path d="m768.34 88.465h0.75477z" fill="#6090c6"/>
  <g transform="matrix(.58027 0 0 -.58027 776.02 88.465)">
   <path d="m0 0h-0.551z" fill="#5b8dc4"/>
  </g>
  <g transform="matrix(.58027 0 0 -.58027 776.02 87.25)">
   <path d="m0 0h1.074z" fill="#81a5d2"/>
  </g>
  <path d="m775.7 88.465h0.31509-0.31973z" fill="#6090c6"/>
  <path d="m776.64 87.252h-0.62437 1e-3z" fill="#a5bddf"/>
  <path d="m776.64 87.252h-0.62321z" fill="#9db8dc"/>
  <path d="m776.64 87.25h-0.62321z" fill="#8dadd7"/>
  <path d="m776.64 87.25h-0.62321z" fill="#85a8d4"/>
  <path d="m776.72 87.25h-0.0795 0.0963z" fill="#85a8d4"/>
  <path d="m776.02 87.528h0.72302z" fill="#6090c6"/>
  <path d="m775.7 86.294v2.1673z" fill="#a5bddf"/>
  <path d="m775.7 86.292v2.1714z" fill="#95b2da"/>
  <path d="m775.7 86.292v2.1731-2.1754z" fill="#85a8d4"/>
  <path d="m775.7 86.29v2.1754z" fill="#7da3d1"/>
  <path d="m775.7 86.29v2.1754z" fill="#769ece"/>
  <path d="m776.75 86.357h-0.98688z" fill="#85a8d4"/>
  <path d="m776.75 86.294h-1.0474z" fill="#b6c9e5"/>
  <path d="m776.75 86.292h-1.0486z" fill="#a5bddf"/>
  <path d="m776.75 86.292h-1.0526z" fill="#9db8dc"/>
  <path d="m776.75 86.29h-1.0526z" fill="#8dadd7"/>
  <path d="m776.75 86.29h-1.0526z" fill="#85a8d4"/>
  <path d="m777.26 88.465h0.35686z" fill="#6090c6"/>
  <path d="m773.83 86.357h-1.99 1.995z" fill="#85a8d4"/>
  <path d="m773.9 86.294h-2.1203z" fill="#b6c9e5"/>
  <path d="m773.9 86.292h-2.1238 2.1296z" fill="#a5bddf"/>
  <path d="m773.91 86.292h-2.1296z" fill="#9db8dc"/>
  <path d="m773.91 86.29h-2.1296z" fill="#8dadd7"/>
  <path d="m773.91 86.29h-2.1296z" fill="#85a8d4"/>
  <path d="m771.78 86.297v0.27795-0.28143z" fill="#aec3e2"/>
  <path d="m771.78 86.294v0.28375-0.28549z" fill="#9db8dc"/>
  <path d="m771.78 86.292v0.28724z" fill="#8dadd7"/>
  <path d="m771.78 86.292v0.28724-0.28956z" fill="#85a8d4"/>
  <path d="m771.78 86.29v0.2913z" fill="#7da3d1"/>
  <path d="m771.78 86.29v0.2913z" fill="#769ece"/>
  <path d="m772.67 88.465h0.33043z" fill="#6090c6"/>
  <path d="m772.74 86.514v1.8841z" fill="#85a8d4"/>
  <path d="m772.68 86.572v1.8893-1.8859z" fill="#aec3e2"/>
  <path d="m772.68 86.579v1.8841z" fill="#95b2da"/>
  <path d="m772.67 86.579v1.8859-1.8836z" fill="#85a8d4"/>
  <path d="m772.67 86.581v1.8841z" fill="#7da3d1"/>
  <path d="m772.67 86.581v1.8841z" fill="#769ece"/>
  <g transform="matrix(.58027 0 0 -.58027 769.83 87.79)">
   <path d="m0 0h0.574z" fill="#81a5d2"/>
  </g>
  <path d="m771.4 86.886h0.32506-0.32902z" fill="#6090c6"/>
  <path d="m770.09 87.859h-0.19962 0.20078z" fill="#85a8d4"/>
  <path d="m770.16 87.792h-0.33075z" fill="#a5bddf"/>
  <path d="m770.16 87.79h-0.33307z" fill="#95b2da"/>
  <path d="m770.16 87.79h-0.33307z" fill="#8dadd7"/>
  <path d="m770.16 87.79h-0.33307z" fill="#85a8d4"/>
  <path d="m769.87 87.833v-0.0041z" fill="#4a83be"/>
  <path d="m765.29 88.82v0.0023z" fill="#636161"/>
  <path d="m773.99 88.454v0.0041-0.0116 0.0058z" fill="#221e1f"/>
  <path d="m773.99 88.452v-0.0035z" fill="#221e1f"/>
  <path d="m773.33 88.307h3e-3z" fill="#221e1f"/>
  <path d="m773.33 88.307h3e-3z" fill="#221e1f"/>
  <path d="m773.39 88.267h1e-3z" fill="#221e1f"/>
  <path d="m773.99 88.431v0.01741-0.0099z" fill="#221e1f"/>
  <path d="m773.99 88.431v0.01511-0.0052z" fill="#221e1f"/>
  <path d="m773.99 88.431v0.01161-0.0041z" fill="#221e1f"/>
  <path d="m773.99 88.431v0.0099-0.0023z" fill="#221e1f"/>
  <path d="m774 88.492v-0.0058 0.0041z" fill="#221e1f"/>
  <path d="m772.75 89.91h1e-3z" fill="#221e1f"/>
  <path d="m772.69 89.925h-6e-3z" fill="#221e1f"/>
  <path d="m772.69 89.925h-2e-3z" fill="#221e1f"/>
  <g transform="matrix(.58027 0 0 -.58027 494.59 406.82)" clip-path="url(#id2374)">
   <g transform="matrix(5.3973 0 0 5.1018 535.41 547.94)">
    <use width="744.09448" height="1052.3622" xlink:href="#id1804"/>
   </g>
  </g>
  <g transform="matrix(18.351 0 0 -5.7791 763.62 137.93)">
   <use width="744.09448" height="1052.3622" xlink:href="#id1834"/>
  </g>
  <g transform="matrix(18.547 0 0 -4.5822 811.33 149.08)">
   <use width="744.09448" height="1052.3622" xlink:href="#id1840"/>
  </g>
  <g transform="matrix(.58027 0 0 -.58027 494.59 406.82)" clip-path="url(#id2405)">
   <g transform="matrix(15.873 0 0 17.249 475.93 420.72)">
    <use width="744.09448" height="1052.3622" xlink:href="#id1843"/>
   </g>
  </g>
  <g transform="matrix(.58027 0 0 -.58027 494.59 406.82)" clip-path="url(#id2469)">
   <g transform="matrix(15.443 0 0 11.148 452.98 484.72)">
    <use width="744.09448" height="1052.3622" xlink:href="#id1909"/>
   </g>
  </g>
  <g transform="matrix(.58027 0 0 -.58027 494.59 406.82)" clip-path="url(#id2508)">
   <g transform="matrix(3.1533 0 0 3.1533 497.05 549.53)">
    <use width="744.09448" height="1052.3622" xlink:href="#id1949"/>
   </g>
  </g>
  <g transform="matrix(14.258 0 0 -6.5702 798.42 161.75)">
   <use width="744.09448" height="1052.3622" xlink:href="#id1951"/>
  </g>
  <g transform="matrix(.58027 0 0 -.58027 494.59 406.82)" clip-path="url(#id2549)">
   <use width="744.09448" height="1052.3622" opacity=".39999" xlink:href="#id2551"/>
  </g>
  <g transform="matrix(.58027 0 0 -.58027 494.59 406.82)" clip-path="url(#id2563)">
   <g transform="matrix(.92427 0 0 -1.7458 360.31 152.69)">
    <use width="744.09448" height="1052.3622" xlink:href="#id229"/>
   </g>
  </g>
  <g transform="matrix(.58027 0 0 -.58027 494.59 406.82)" clip-path="url(#id2564)">
   <g transform="matrix(.92427 0 0 -3.4532 370.06 157.81)">
    <use width="744.09448" height="1052.3622" xlink:href="#id231"/>
   </g>
  </g>
  <g transform="matrix(.58027 0 0 -.58027 494.59 406.82)" clip-path="url(#id2565)">
   <g transform="matrix(.92427 0 0 -1.7458 369.18 157.81)">
    <use width="744.09448" height="1052.3622" xlink:href="#id233"/>
   </g>
  </g>
  <g transform="matrix(.58027 0 0 -.58027 494.59 406.82)" clip-path="url(#id2566)">
   <g transform="matrix(1.81 0 0 -.88576 360.31 157.81)">
    <use width="744.09448" height="1052.3622" xlink:href="#id235"/>
   </g>
  </g>
  <g transform="matrix(.58027 0 0 -.58027 494.59 406.82)" clip-path="url(#id2570)">
   <g transform="matrix(1.8742 0 0 -1.0013 359.88 151.76)">
    <use width="744.09448" height="1052.3622" xlink:href="#id240"/>
   </g>
  </g>
  <g transform="matrix(.58027 0 0 -.58027 494.59 406.82)" clip-path="url(#id2571)">
   <g transform="matrix(.96277 0 0 -5.7895 359.88 157.52)">
    <use width="744.09448" height="1052.3622" xlink:href="#id242"/>
   </g>
  </g>
  <g transform="matrix(.58027 0 0 -.58027 494.59 406.82)" clip-path="url(#id2572)">
   <g transform="matrix(.94994 0 0 -5.7895 360.81 158.48)">
    <use width="744.09448" height="1052.3622" xlink:href="#id244"/>
   </g>
  </g>
  <g transform="matrix(.58027 0 0 -.58027 494.59 406.82)" clip-path="url(#id2573)">
   <g transform="matrix(.94994 0 0 -4.8267 361.72 159.43)">
    <use width="744.09448" height="1052.3622" xlink:href="#id246"/>
   </g>
  </g>
  <g transform="matrix(.58027 0 0 -.58027 494.59 406.82)" clip-path="url(#id2574)">
   <g transform="matrix(.96277 0 0 -3.8639 362.63 159.43)">
    <use width="744.09448" height="1052.3622" xlink:href="#id248"/>
   </g>
  </g>
  <g transform="matrix(.58027 0 0 -.58027 494.59 406.82)" clip-path="url(#id2575)">
   <g transform="matrix(.96277 0 0 -2.914 369.05 158.48)">
    <use width="744.09448" height="1052.3622" xlink:href="#id250"/>
   </g>
  </g>
  <g transform="matrix(.58027 0 0 -.58027 494.59 406.82)" clip-path="url(#id2576)">
   <g transform="matrix(.94994 0 0 -2.914 363.56 159.43)">
    <use width="744.09448" height="1052.3622" xlink:href="#id252"/>
   </g>
  </g>
  <g transform="matrix(.58027 0 0 -.58027 494.59 406.82)" clip-path="url(#id2577)">
   <g transform="matrix(.94994 0 0 -1.9641 368.14 158.48)">
    <use width="744.09448" height="1052.3622" xlink:href="#id254"/>
   </g>
  </g>
  <g transform="matrix(.58027 0 0 -.58027 494.59 406.82)" clip-path="url(#id2578)">
   <g transform="matrix(2.7856 0 0 -1.9512 364.47 159.43)">
    <use width="744.09448" height="1052.3622" xlink:href="#id256"/>
   </g>
  </g>
  <g transform="matrix(.58027 0 0 -.58027 494.59 406.82)" clip-path="url(#id2579)">
   <g transform="matrix(.96277 0 0 -1.0013 367.21 158.48)">
    <use width="744.09448" height="1052.3622" xlink:href="#id258"/>
   </g>
  </g>
  <g transform="matrix(.58027 0 0 -.58027 494.59 406.82)" clip-path="url(#id2580)">
   <g transform="matrix(.32092 0 0 -1.2067 370.72 153.47)">
    <use width="744.09448" height="1052.3622" xlink:href="#id260"/>
   </g>
  </g>
  <g transform="matrix(.58027 0 0 -.58027 494.59 406.82)" clip-path="url(#id2584)">
   <g transform="matrix(2.7985 0 0 -.53915 363.29 148.85)">
    <use width="744.09448" height="1052.3622" xlink:href="#id265"/>
   </g>
  </g>
  <g transform="matrix(.58027 0 0 -.58027 494.59 406.82)" clip-path="url(#id2588)">
   <g transform="matrix(4.2747 0 0 -2.1053 361.16 150.42)">
    <use width="744.09448" height="1052.3622" xlink:href="#id270"/>
   </g>
  </g>
  <g transform="matrix(.58027 0 0 -.58027 494.59 406.82)" clip-path="url(#id2592)">
   <g transform="matrix(.50064 0 0 -.53915 360.35 151.86)">
    <use width="744.09448" height="1052.3622" xlink:href="#id275"/>
   </g>
  </g>
  <g transform="matrix(.58027 0 0 -.58027 494.59 406.82)" clip-path="url(#id2593)">
   <g transform="matrix(1.3736 0 0 -2.2465 359.88 153.47)">
    <use width="744.09448" height="1052.3622" xlink:href="#id277"/>
   </g>
  </g>
  <g transform="matrix(.58027 0 0 -.58027 494.59 406.82)" clip-path="url(#id2594)">
   <g transform="matrix(.69319 0 0 -1.2324 370.13 152.37)">
    <use width="744.09448" height="1052.3622" xlink:href="#id279"/>
   </g>
  </g>
  <g transform="matrix(.58027 0 0 -.58027 494.59 406.82)" clip-path="url(#id2595)">
   <g transform="matrix(.38512 0 0 -.80873 370.37 152.48)">
    <use width="744.09448" height="1052.3622" xlink:href="#id281"/>
   </g>
  </g>
  <g transform="matrix(.58027 0 0 -.58027 494.59 406.82)" clip-path="url(#id2599)">
   <g transform="matrix(.32092 0 0 -.42362 360.87 150.8)">
    <use width="744.09448" height="1052.3622" xlink:href="#id286"/>
   </g>
  </g>
  <g transform="matrix(.58027 0 0 -.58027 494.59 406.82)" clip-path="url(#id2600)">
   <g transform="matrix(.55199 0 0 -.66753 361.64 155.91)">
    <use width="744.09448" height="1052.3622" xlink:href="#id288"/>
   </g>
  </g>
  <g transform="matrix(.58027 0 0 -.58027 494.59 406.82)" clip-path="url(#id2601)">
   <g transform="matrix(.5905 0 0 -1.5404 370.46 154.91)">
    <use width="744.09448" height="1052.3622" xlink:href="#id290"/>
   </g>
  </g>
  <g transform="matrix(.58027 0 0 -.58027 494.59 406.82)" clip-path="url(#id2602)">
   <g transform="matrix(.25674 0 0 -.66753 370.69 153.9)">
    <use width="744.09448" height="1052.3622" xlink:href="#id292"/>
   </g>
  </g>
  <g transform="matrix(.58027 0 0 -.58027 494.59 406.82)" clip-path="url(#id2603)">
   <g transform="matrix(.38512 0 0 -.74455 370.59 154.47)">
    <use width="744.09448" height="1052.3622" xlink:href="#id294"/>
   </g>
  </g>
  <g transform="matrix(.58027 0 0 -.58027 494.59 406.82)" clip-path="url(#id2604)">
   <g transform="matrix(.82156 0 0 -.42362 361.18 150.46)">
    <use width="744.09448" height="1052.3622" xlink:href="#id296"/>
   </g>
  </g>
  <g transform="matrix(.58027 0 0 -.58027 494.59 406.82)" clip-path="url(#id2605)">
   <g transform="matrix(2.2336 0 0 -1.3736 360.84 151.26)">
    <use width="744.09448" height="1052.3622" xlink:href="#id298"/>
   </g>
  </g>
  <g transform="matrix(.58027 0 0 -.58027 494.59 406.82)" clip-path="url(#id2606)">
   <g transform="matrix(1.6303 0 0 -1.5276 360.91 151.96)">
    <use width="744.09448" height="1052.3622" xlink:href="#id300"/>
   </g>
  </g>
  <g transform="matrix(.58027 0 0 -.58027 494.59 406.82)" clip-path="url(#id2610)">
   <g transform="matrix(.089859 0 0 -.089859 366.03 159.45)">
    <use width="744.09448" height="1052.3622" xlink:href="#id305"/>
   </g>
  </g>
  <g transform="matrix(.58027 0 0 -.58027 494.59 406.82)" clip-path="url(#id2611)">
   <g transform="matrix(.56484 0 0 -.26958 366.08 159.4)">
    <use width="744.09448" height="1052.3622" xlink:href="#id307"/>
   </g>
  </g>
  <g transform="matrix(.58027 0 0 -.58027 494.59 406.82)" clip-path="url(#id2612)">
   <g transform="matrix(1.81 0 0 -1.3864 365.89 159.4)">
    <use width="744.09448" height="1052.3622" xlink:href="#id309"/>
   </g>
  </g>
  <g transform="matrix(.58027 0 0 -.58027 494.59 406.82)" clip-path="url(#id2613)">
   <g transform="matrix(.064178 0 0 -.038513 369.36 157.81)">
    <use width="744.09448" height="1052.3622" xlink:href="#id311"/>
   </g>
  </g>
  <g transform="matrix(.58027 0 0 -.58027 494.59 406.82)" clip-path="url(#id2614)">
   <g transform="matrix(.46213 0 0 -.038513 368.93 157.81)">
    <use width="744.09448" height="1052.3622" xlink:href="#id313"/>
   </g>
  </g>
  <g transform="matrix(.58027 0 0 -.58027 494.59 406.82)" clip-path="url(#id2615)">
   <g transform="matrix(1.2965 0 0 -.26958 367.68 158.04)">
    <use width="744.09448" height="1052.3622" xlink:href="#id315"/>
   </g>
  </g>
  <g transform="matrix(.58027 0 0 -.58027 494.59 406.82)" clip-path="url(#id2616)">
   <g transform="matrix(.051346 0 0 -.051346 367.66 158.06)">
    <use width="744.09448" height="1052.3622" xlink:href="#id317"/>
   </g>
  </g>
  <g transform="matrix(.58027 0 0 -.58027 494.59 406.82)" clip-path="url(#id2617)">
   <g transform="matrix(3.4146 0 0 -1.8357 366.61 159.61)">
    <use width="744.09448" height="1052.3622" xlink:href="#id319"/>
   </g>
  </g>
  <g transform="matrix(.58027 0 0 -.58027 494.59 406.82)" clip-path="url(#id2618)">
   <g transform="matrix(.7317 0 0 -.66753 368.66 158.47)">
    <use width="744.09448" height="1052.3622" xlink:href="#id321"/>
   </g>
  </g>
  <g transform="matrix(.58027 0 0 -.58027 494.59 406.82)" clip-path="url(#id2619)">
   <g transform="matrix(.66753 0 0 -.62901 368.15 159.01)">
    <use width="744.09448" height="1052.3622" xlink:href="#id323"/>
   </g>
  </g>
  <g transform="matrix(.58027 0 0 -.58027 494.59 406.82)" clip-path="url(#id2620)">
   <g transform="matrix(2.991 0 0 -1.5404 366.43 159.31)">
    <use width="744.09448" height="1052.3622" xlink:href="#id325"/>
   </g>
  </g>
  <g transform="matrix(.58027 0 0 -.58027 494.59 406.82)" clip-path="url(#id2621)">
   <g transform="matrix(.78305 0 0 -.64185 368.61 158.42)">
    <use width="744.09448" height="1052.3622" xlink:href="#id327"/>
   </g>
  </g>
  <g transform="matrix(.58027 0 0 -.58027 494.59 406.82)" clip-path="url(#id2622)">
   <g transform="matrix(2.837 0 0 -1.3992 366.14 159.17)">
    <use width="744.09448" height="1052.3622" xlink:href="#id329"/>
   </g>
  </g>
  <g transform="matrix(.58027 0 0 -.58027 494.59 406.82)" clip-path="url(#id2628)">
   <g transform="matrix(2.5457 0 0 2.4244 371.19 151.18)">
    <use width="744.09448" height="1052.3622" xlink:href="#id336"/>
   </g>
  </g>
  <g transform="matrix(.58027 0 0 -.58027 494.59 406.82)" clip-path="url(#id2629)">
   <g transform="matrix(.4493 0 0 -.71887 370.05 155.59)">
    <use width="744.09448" height="1052.3622" xlink:href="#id338"/>
   </g>
  </g>
  <g transform="matrix(.58027 0 0 -.58027 494.59 406.82)" clip-path="url(#id2630)">
   <g transform="matrix(8.036 0 0 -3.1066 362.16 158.06)">
    <use width="744.09448" height="1052.3622" xlink:href="#id340"/>
   </g>
  </g>
  <g transform="matrix(.58027 0 0 -.58027 494.59 406.82)" clip-path="url(#id2631)">
   <g transform="matrix(.33376 0 0 -.82156 370.41 153.27)">
    <use width="744.09448" height="1052.3622" xlink:href="#id342"/>
   </g>
  </g>
  <g transform="matrix(.58027 0 0 -.58027 494.59 406.82)" clip-path="url(#id2632)">
   <g transform="matrix(.37227 0 0 -.55199 370.28 153.2)">
    <use width="744.09448" height="1052.3622" xlink:href="#id344"/>
   </g>
  </g>
  <g transform="matrix(.58027 0 0 -.58027 494.59 406.82)" clip-path="url(#id2633)">
   <g transform="matrix(1.335 0 0 -.71887 364.62 149.47)">
    <use width="744.09448" height="1052.3622" xlink:href="#id346"/>
   </g>
  </g>
  <g transform="matrix(.58027 0 0 -.58027 494.59 406.82)" clip-path="url(#id2634)">
   <g transform="matrix(2.6059 0 0 -1.0911 363.03 150.07)">
    <use width="744.09448" height="1052.3622" xlink:href="#id348"/>
   </g>
  </g>
  <g transform="matrix(.58027 0 0 -.58027 494.59 406.82)" clip-path="url(#id2635)">
   <g transform="matrix(4.5186 0 0 -1.0911 363.46 156.59)">
    <use width="744.09448" height="1052.3622" xlink:href="#id350"/>
   </g>
  </g>
  <g transform="matrix(.58027 0 0 -.58027 494.59 406.82)" clip-path="url(#id2636)">
   <g transform="matrix(.35944 0 0 -.57767 370.05 151.72)">
    <use width="744.09448" height="1052.3622" xlink:href="#id352"/>
   </g>
  </g>
  <g transform="matrix(.58027 0 0 -.58027 494.59 406.82)" clip-path="url(#id2637)">
   <g transform="matrix(.71887 0 0 -1.4249 369.94 152.69)">
    <use width="744.09448" height="1052.3622" xlink:href="#id354"/>
   </g>
  </g>
  <g transform="matrix(.58027 0 0 -.58027 494.59 406.82)" clip-path="url(#id2638)">
   <g transform="matrix(1.733 0 0 -2.0282 368.72 153.16)">
    <use width="744.09448" height="1052.3622" xlink:href="#id356"/>
   </g>
  </g>
  <g transform="matrix(.58027 0 0 -.58027 494.59 406.82)" clip-path="url(#id2639)">
   <g transform="matrix(.3466 0 0 -.25674 365.6 149.48)">
    <use width="744.09448" height="1052.3622" xlink:href="#id358"/>
   </g>
  </g>
  <g transform="matrix(.58027 0 0 -.58027 494.59 406.82)" clip-path="url(#id2640)">
   <g transform="matrix(2.0539 0 0 -1.0013 364.17 150.43)">
    <use width="744.09448" height="1052.3622" xlink:href="#id360"/>
   </g>
  </g>
  <g transform="matrix(.58027 0 0 -.58027 494.59 406.82)" clip-path="url(#id2641)">
   <g transform="matrix(7.3556 0 0 -1.5918 361.82 156.46)">
    <use width="744.09448" height="1052.3622" xlink:href="#id362"/>
   </g>
  </g>
  <g transform="matrix(.58027 0 0 -.58027 494.59 406.82)" clip-path="url(#id2642)">
   <g transform="matrix(.47498 0 0 -.55199 370.15 154.99)">
    <use width="744.09448" height="1052.3622" xlink:href="#id364"/>
   </g>
  </g>
  <g transform="matrix(.58027 0 0 -.58027 494.59 406.82)" clip-path="url(#id2643)">
   <g transform="matrix(.55199 0 0 -1.7202 370.19 154.88)">
    <use width="744.09448" height="1052.3622" xlink:href="#id366"/>
   </g>
  </g>
  <g transform="matrix(.58027 0 0 -.58027 494.59 406.82)" clip-path="url(#id2644)">
   <g transform="matrix(1.3479 0 0 -1.8742 369.38 155.03)">
    <use width="744.09448" height="1052.3622" xlink:href="#id368"/>
   </g>
  </g>
  <g transform="matrix(.58027 0 0 -.58027 494.59 406.82)" clip-path="url(#id2645)">
   <g transform="matrix(1.7073 0 0 -.57767 362.5 150.47)">
    <use width="744.09448" height="1052.3622" xlink:href="#id370"/>
   </g>
  </g>
  <g transform="matrix(.58027 0 0 -.58027 494.59 406.82)" clip-path="url(#id2646)">
   <g transform="matrix(7.3043 0 0 -6.4313 362.17 156.46)">
    <use width="744.09448" height="1052.3622" xlink:href="#id372"/>
   </g>
  </g>
  <g transform="matrix(.58027 0 0 -.58027 494.59 406.82)" clip-path="url(#id2656)">
   <g transform="matrix(.16688 0 0 -.21823 370.58 153.22)">
    <use width="744.09448" height="1052.3622" xlink:href="#id383"/>
   </g>
  </g>
  <g transform="matrix(.58027 0 0 -.58027 494.59 406.82)" clip-path="url(#id2664)">
   <g transform="matrix(.10269 0 0 -.1412 366 148.49)">
    <use width="744.09448" height="1052.3622" xlink:href="#id392"/>
   </g>
  </g>
  <g transform="matrix(.58027 0 0 -.58027 494.59 406.82)" clip-path="url(#id2665)">
   <g transform="matrix(.12837 0 0 -.33376 365.92 148.79)">
    <use width="744.09448" height="1052.3622" xlink:href="#id394"/>
   </g>
  </g>
  <g transform="matrix(.58027 0 0 -.58027 494.59 406.82)" clip-path="url(#id2666)">
   <g transform="matrix(.064178 0 0 -.51347 365.89 149.26)">
    <use width="744.09448" height="1052.3622" xlink:href="#id396"/>
   </g>
  </g>
  <g transform="matrix(.58027 0 0 -.58027 494.59 406.82)" clip-path="url(#id2667)">
   <g transform="matrix(.051346 0 0 -.2439 365.89 149.47)">
    <use width="744.09448" height="1052.3622" xlink:href="#id398"/>
   </g>
  </g>
  <g transform="matrix(.58027 0 0 -.58027 494.59 406.82)" clip-path="url(#id2668)">
   <g transform="matrix(7.0915 0 0 1.9395 365.93 147.69)">
    <use width="744.09448" height="1052.3622" xlink:href="#id400"/>
   </g>
  </g>
  <g transform="matrix(.58027 0 0 -.58027 494.59 406.82)" clip-path="url(#id2669)">
   <g transform="matrix(2.3492 0 0 -.80873 366.88 148.74)">
    <use width="744.09448" height="1052.3622" xlink:href="#id402"/>
   </g>
  </g>
  <g transform="matrix(.58027 0 0 -.58027 494.59 406.82)" clip-path="url(#id2670)">
   <g transform="matrix(2.4005 0 0 -1.3094 369.22 149.24)">
    <use width="744.09448" height="1052.3622" xlink:href="#id404"/>
   </g>
  </g>
  <g transform="matrix(.58027 0 0 -.58027 494.59 406.82)" clip-path="url(#id2672)">
   <g transform="matrix(.19255 0 0 -.30809 366.05 150.43)">
    <use width="744.09448" height="1052.3622" xlink:href="#id407"/>
   </g>
  </g>
  <g transform="matrix(.58027 0 0 -.58027 494.59 406.82)" clip-path="url(#id2673)">
   <g transform="matrix(.25674 0 0 -.28241 366.19 150.68)">
    <use width="744.09448" height="1052.3622" xlink:href="#id409"/>
   </g>
  </g>
  <g transform="matrix(.58027 0 0 -.58027 494.59 406.82)" clip-path="url(#id2678)">
   <g transform="matrix(7.0915 0 0 2.6063 365.96 148.15)">
    <use width="744.09448" height="1052.3622" xlink:href="#id415"/>
   </g>
  </g>
  <g transform="matrix(.58027 0 0 -.58027 494.59 406.82)" clip-path="url(#id2679)">
   <g transform="matrix(2.1694 0 0 -2.3363 367.68 150.51)">
    <use width="744.09448" height="1052.3622" xlink:href="#id417"/>
   </g>
  </g>
  <g transform="matrix(.58027 0 0 -.58027 494.59 406.82)" clip-path="url(#id2680)">
   <g transform="matrix(.50064 0 0 -1.4891 371.54 150.37)">
    <use width="744.09448" height="1052.3622" xlink:href="#id419"/>
   </g>
  </g>
  <g transform="matrix(.58027 0 0 -.58027 494.59 406.82)" clip-path="url(#id2682)">
   <g transform="matrix(.66672 0 0 .84856 370.45 149.1)">
    <use width="744.09448" height="1052.3622" xlink:href="#id422"/>
   </g>
  </g>
  <g transform="matrix(.58027 0 0 -.58027 494.59 406.82)" clip-path="url(#id2683)">
   <g transform="matrix(.74455 0 0 -.84724 370.36 150.05)">
    <use width="744.09448" height="1052.3622" xlink:href="#id424"/>
   </g>
  </g>
  <use transform="matrix(.58027 0 0 -.58027 494.59 406.82)" width="744.09448" height="1052.3622" opacity=".98" xlink:href="#id2932"/>
  <use transform="matrix(.58027 0 0 -.58027 494.59 406.82)" width="744.09448" height="1052.3622" opacity=".98" xlink:href="#id2935"/>
  <use transform="matrix(.58027 0 0 -.58027 494.59 406.82)" width="744.09448" height="1052.3622" opacity=".98" xlink:href="#id2938"/>
  <use transform="matrix(.58027 0 0 -.58027 494.59 406.82)" width="744.09448" height="1052.3622" opacity=".98" xlink:href="#id2941"/>
  <use transform="matrix(.58027 0 0 -.58027 494.59 406.82)" width="744.09448" height="1052.3622" opacity=".98" xlink:href="#id2944"/>
  <use transform="matrix(.58027 0 0 -.58027 494.59 406.82)" width="744.09448" height="1052.3622" opacity=".98" xlink:href="#id3685"/>
  <use transform="matrix(.58027 0 0 -.58027 494.59 406.82)" width="744.09448" height="1052.3622" opacity=".98" xlink:href="#id3688"/>
  <use transform="matrix(.58027 0 0 -.58027 494.59 406.82)" width="744.09448" height="1052.3622" opacity=".98" xlink:href="#id3691"/>
  <g transform="matrix(.58027 0 0 -.58027 494.59 406.82)" clip-path="url(#id3697)">
   <g transform="matrix(3.9015 0 0 3.9015 481.21 214.3)">
    <use width="744.09448" height="1052.3622" xlink:href="#id1442"/>
   </g>
  </g>
  <g transform="matrix(.58027 0 0 -.58027 494.59 406.82)" clip-path="url(#id3698)">
   <g transform="matrix(15.273 0 0 4.9892 496.66 207.07)">
    <use width="744.09448" height="1052.3622" xlink:href="#id1444"/>
   </g>
  </g>
  <g transform="matrix(.58027 0 0 -.58027 494.59 406.82)" clip-path="url(#id3702)">
   <g transform="matrix(.4539 0 0 3.6242 522.71 212.3)">
    <use width="744.09448" height="1052.3622" xlink:href="#id1449"/>
   </g>
  </g>
  <g transform="matrix(.58027 0 0 -.58027 494.59 406.82)" clip-path="url(#id3703)">
   <g transform="matrix(.66263 0 0 1.3432 532.15 210.97)">
    <use width="744.09448" height="1052.3622" xlink:href="#id1451"/>
   </g>
  </g>
  <g transform="matrix(12.521 0 0 -10.184 761.4 177.07)">
   <use width="744.09448" height="1052.3622" xlink:href="#id3762"/>
  </g>
  <g transform="matrix(.58027 0 0 -.58027 494.59 406.82)" clip-path="url(#id3767)">
   <g transform="matrix(5.6442 0 0 5.6442 402.86 404.22)">
    <use width="744.09448" height="1052.3622" xlink:href="#id3765"/>
   </g>
  </g>
  <g transform="matrix(.58027 0 0 -.58027 494.59 406.82)" clip-path="url(#id3781)">
   <g transform="matrix(.18123 0 0 -.39265 360.82 401.48)">
    <use width="744.09448" height="1052.3622" xlink:href="#id3772"/>
   </g>
  </g>
  <g transform="matrix(.58027 0 0 -.58027 494.59 406.82)" clip-path="url(#id3782)">
   <g transform="matrix(7.9436 0 0 -8.1853 369.88 406.94)">
    <use width="744.09448" height="1052.3622" xlink:href="#id3774"/>
   </g>
  </g>
  <g transform="matrix(.58027 0 0 -.58027 494.59 406.82)" clip-path="url(#id3783)">
   <g transform="matrix(2.9902 0 0 -6.1012 366.98 409.21)">
    <use width="744.09448" height="1052.3622" xlink:href="#id3776"/>
   </g>
  </g>
  <g transform="matrix(.58027 0 0 -.58027 494.59 406.82)" clip-path="url(#id3784)">
   <g transform="matrix(1.5706 0 0 -.39265 371.03 407.24)">
    <use width="744.09448" height="1052.3622" xlink:href="#id3778"/>
   </g>
  </g>
  <g transform="matrix(21.297 0 0 -11.979 684.42 278.97)">
   <use width="744.09448" height="1052.3622" xlink:href="#id3786"/>
  </g>
  <g transform="matrix(17.113 0 0 -7.1629 729.18 275.13)">
   <use width="744.09448" height="1052.3622" xlink:href="#id3788"/>
  </g>
  <g transform="matrix(.58027 0 0 -.58027 494.59 406.82)" clip-path="url(#id3791)">
   <g transform="matrix(29.492 0 0 12.344 404.27 226.95)">
    <use width="744.09448" height="1052.3622" xlink:href="#id3790"/>
   </g>
  </g>
  <g transform="matrix(47.645 0 0 -47.645 733.98 90.141)">
   <path d="m0 0h6.141v6.545l-4.129 0.555z" fill="#257551"/>
  </g>
  <g transform="matrix(47.645 0 0 -47.645 491.66 -291.97)">
   <path d="m0 0v-8.02h2.627l2.096 7.403z" fill="#257551"/>
  </g>
  <g transform="matrix(47.645 0 0 -47.645 1026.5 -444.86)">
   <path d="m0 0h-11.227v-0.82l11.227-1.475z" fill="#257551" Googl="true"/>
  </g>
  <g transform="matrix(47.645 0 0 -47.645 491.66 -405.74)">
   <path d="m0 0v-2.389l4.723-0.617-2.096-7.402h2.459l2.012 7.099 4.129-0.554v2.388z" fill="#fff"/>
  </g>
  <g transform="matrix(47.645 0 0 -47.645 576.04 148.22)">
   <path d="m0 0h-0.619v-2.369h-0.572v2.369h-0.618v0.465h1.809z" fill="#eff2f2"/>
  </g>
  <g transform="matrix(47.645 0 0 -47.645 662.84 148.22)">
   <path d="m0 0h-1.01v-0.674h0.951v-0.463h-0.951v-0.765h1.049v-0.467h-1.621v2.834h1.582z" fill="#eff2f2"/>
  </g>
  <g transform="matrix(47.645 0 0 -47.645 742.6 218.45)">
   <path d="m0 0h6e-3v1.939h0.521v-2.834h-0.648l-0.695 1.985h-8e-3v-1.985h-0.522v2.834h0.658z" fill="#eff2f2"/>
  </g>
  <g transform="matrix(47.645 0 0 -47.645 850.94 218.45)">
   <path d="m0 0h6e-3v1.939h0.521v-2.834h-0.648l-0.693 1.985h-8e-3v-1.985h-0.522v2.834h0.656z" fill="#eff2f2"/>
  </g>
  <path d="m896.45 126.06h27.157v135.02h-27.157z" fill="#eff2f2"/>
  <g transform="matrix(47.645 0 0 -47.645 965.77 222.83)">
   <path d="m0 0c0-0.066 6e-3 -0.125 0.016-0.182 9e-3 -0.054 0.031-0.097 0.06-0.134 0.028-0.039 0.067-0.067 0.117-0.088 0.047-0.022 0.11-0.032 0.182-0.032 0.088 0 0.166 0.026 0.236 0.084 0.071 0.055 0.106 0.143 0.106 0.264 0 0.063-0.01 0.115-0.026 0.164-0.017 0.045-0.046 0.088-0.086 0.125-0.039 0.037-0.093 0.07-0.158 0.102-0.064 0.029-0.142 0.06-0.24 0.092-0.125 0.043-0.234 0.089-0.328 0.138-0.092 0.051-0.17 0.11-0.233 0.176-0.06 0.068-0.109 0.146-0.138 0.234-0.026 0.088-0.043 0.192-0.043 0.307 0 0.279 0.08 0.488 0.234 0.627 0.156 0.137 0.371 0.205 0.643 0.205 0.127 0 0.244-0.016 0.351-0.041 0.108-0.027 0.2-0.076 0.278-0.137 0.078-0.06 0.138-0.14 0.183-0.238 0.043-0.096 0.065-0.211 0.065-0.346v-0.078h-0.547c0 0.133-0.024 0.237-0.072 0.311-0.047 0.072-0.125 0.109-0.237 0.109-0.064 0-0.117-0.01-0.16-0.029-0.041-0.018-0.074-0.041-0.099-0.072-0.026-0.032-0.041-0.067-0.053-0.106-8e-3 -0.039-0.012-0.08-0.012-0.123 0-0.086 0.018-0.16 0.055-0.221 0.037-0.056 0.115-0.113 0.238-0.162l0.441-0.191c0.108-0.047 0.198-0.096 0.266-0.149 0.068-0.05 0.125-0.105 0.166-0.166 0.041-0.06 0.068-0.125 0.084-0.195s0.024-0.152 0.024-0.238c0-0.299-0.088-0.516-0.26-0.653-0.172-0.136-0.414-0.205-0.725-0.205-0.322 0-0.553 0.073-0.691 0.211-0.139 0.143-0.209 0.344-0.209 0.606v0.113h0.572z" fill="#eff2f2"/>
  </g>
  <g transform="matrix(47.645 0 0 -47.645 530.63 297.92)">
   <path d="m0 0c-0.025 0.049-0.07 0.07-0.137 0.07-0.035 0-0.066-9e-3 -0.092-0.029-0.021-0.018-0.039-0.051-0.052-0.094-0.014-0.043-0.024-0.099-0.03-0.17-5e-3 -0.072-7e-3 -0.158-7e-3 -0.259 0-0.108 4e-3 -0.196 0.011-0.262 8e-3 -0.069 0.02-0.121 0.036-0.156 0.015-0.038 0.035-0.061 0.058-0.075 0.024-0.013 0.051-0.019 0.08-0.019 0.026 0 0.051 6e-3 0.074 0.014 0.022 9e-3 0.039 0.025 0.055 0.052 0.018 0.026 0.029 0.063 0.041 0.11 8e-3 0.047 0.014 0.109 0.014 0.187h0.289c0-0.078-8e-3 -0.15-0.02-0.219-0.011-0.07-0.033-0.132-0.066-0.183-0.033-0.055-0.08-0.094-0.139-0.125-0.06-0.028-0.138-0.043-0.232-0.043-0.112 0-0.196 0.015-0.26 0.051-0.064 0.035-0.115 0.087-0.148 0.154-0.036 0.062-0.057 0.141-0.067 0.23-0.01 0.092-0.015 0.194-0.015 0.303s5e-3 0.211 0.015 0.303c0.01 0.09 0.031 0.17 0.067 0.236 0.033 0.065 0.084 0.117 0.148 0.153 0.064 0.037 0.148 0.056 0.26 0.056 0.103 0 0.183-0.017 0.242-0.051 0.061-0.035 0.107-0.076 0.135-0.127 0.027-0.052 0.049-0.109 0.054-0.168 8e-3 -0.058 0.012-0.117 0.012-0.168h-0.289c0 0.106-0.012 0.18-0.037 0.229" fill="#eff2f2"/>
  </g>
  <g transform="matrix(47.645 0 0 -47.645 597.28 285.63)">
   <path d="m0 0v-0.553h0.338v0.553h0.289v-1.438h-0.289v0.639h-0.338v-0.639h-0.291v1.438z" fill="#eff2f2"/>
  </g>
  <g transform="matrix(47.645 0 0 -47.645 693.86 328.36)">
   <path d="m0 0-0.137 0.646h-4e-3l-0.138-0.646zm0.041 0.896 0.377-1.437h-0.301l-0.066 0.301h-0.381l-0.066-0.301h-0.303l0.381 1.437z" fill="#eff2f2"/>
  </g>
  <g transform="matrix(47.645 0 0 -47.645 779.91 332.56)">
   <path d="m0 0h4e-3v0.984h0.264v-1.437h-0.329l-0.355 1.006h-4e-3v-1.006h-0.264v1.437h0.336z" fill="#eff2f2"/>
  </g>
  <g transform="matrix(47.645 0 0 -47.645 863.67 332.56)">
   <path d="m0 0h2e-3v0.984h0.266v-1.437h-0.331l-0.353 1.006h-6e-3v-1.006h-0.262v1.437h0.334z" fill="#eff2f2"/>
  </g>
  <g transform="matrix(47.645 0 0 -47.645 953 297.11)">
   <path d="m0 0h-0.514v-0.336h0.483v-0.238h-0.483v-0.385h0.534v-0.238h-0.823v1.437h0.803z" fill="#eff2f2"/>
  </g>
  <g transform="matrix(47.645 0 0 -47.645 989.59 285.63)">
   <path d="m0 0h0.289v-1.199h0.514v-0.239h-0.803z" fill="#eff2f2"/>
  </g>
  <g transform="matrix(47.645 0 0 -47.645 1041.8 -440.29)">
   <path d="m0 0h-0.104v0.059h0.278v-0.059h-0.104v-0.379h-0.07z" fill="#eff2f2"/>
  </g>
  <g transform="matrix(47.645 0 0 -47.645 1051.9 -443.05)">
   <path d="m0 0h0.111l0.077-0.322h1e-3l0.077 0.322h0.105v-0.438h-0.066v0.366l-0.09-0.366h-0.059l-0.088 0.366h-2e-3v-0.366h-0.066z" fill="#eff2f2"/>
  </g>
  <g transform="matrix(9.3303 0 0 -8.8851 689.81 55.691)">
   <use width="744.09448" height="1052.3622" xlink:href="#id3793"/>
  </g>
  <g transform="matrix(18.241 0 0 -8.1325 812.26 242.18)">
   <use width="744.09448" height="1052.3622" xlink:href="#id10"/>
  </g>
 </g>
</svg>
