<svg width="95.671mm" height="23.074mm" version="1.1" viewBox="0 0 95.671 23.074" xmlns="http://www.w3.org/2000/svg" xmlns:xlink="http://www.w3.org/1999/xlink">
 <defs>
  <linearGradient id="a" x1="-105.61" x2="-57.342" y1="98.431" y2="98.431" gradientTransform="translate(-.47716 1.0255)" gradientUnits="userSpaceOnUse">
   <stop stop-color="#6cc4f0" offset="0"/>
   <stop stop-color="#0f4b6a" offset="1"/>
  </linearGradient>
 </defs>
 <g transform="translate(70.892 -137.3)">
  <g transform="scale(1.0019 .99807)" fill="#cfcfd0" stroke-width=".20024" style="font-feature-settings:normal;font-variant-caps:normal;font-variant-ligatures:normal;font-variant-numeric:normal" aria-label="RADIO.BE">
   <path d="m-36.787 160.52q-0.33574-0.014-0.61553-0.1259-0.27979-0.12591-0.51761-0.34974-0.23782-0.23782-0.36372-0.5176-0.11192-0.29378-0.11192-0.62953v-6.8828q0-0.37771 0.09793-0.68548 0.11192-0.30777 0.33575-0.5316 0.22383-0.23782 0.51761-0.34973 0.30777-0.11192 0.68548-0.11192l3.0637-0.014q0.72745 0.014 1.315 0.18186 0.60154 0.16788 1.0632 0.50362 0.46165 0.33575 0.75543 0.7974 0.29378 0.44766 0.43367 1.0212 0.02798 0.11192 0.04197 0.22384 0.02798 0.11191 0.04197 0.22383 0.01399 0.11191 0.01399 0.22383 0.01399 0.11191 0.01399 0.22383 0 0.33574-0.06995 0.6575-0.05596 0.30776-0.18186 0.58755-0.1259 0.27979-0.30777 0.51761-0.16787 0.23782-0.3917 0.43367l-0.05596 0.042-0.32176 0.25181-0.19585 0.15388 1.1891 1.5668q0.08394 0.1259 0.15388 0.2518 0.06995 0.12591 0.11192 0.25181 0.02798 0.056 0.04197 0.12591 0.01399 0.07 0.02798 0.1259 0 0.07 0 0.1399 0.01399 0.056 0.01399 0.1259 0 0.18186-0.05596 0.37771-0.04197 0.18187-0.1259 0.34974-0.08394 0.16787-0.20984 0.32176-0.1259 0.13989-0.29378 0.25181-0.06995 0.0559-0.15388 0.0979-0.06995 0.028-0.15388 0.042-0.08394 0.028-0.16787 0.056-0.06995 0.042-0.13989 0.0559-0.01399 0-0.04197 0-0.01399 0-0.02798 0.014-0.02798 0-0.04197 0t-0.04197 0q-0.01399 0-0.04197 0-0.01399 0-0.02798 0.014-0.02798 0-0.04197 0t-0.04197 0q-0.20984 0-0.40569-0.0559-0.18186-0.056-0.37771-0.15389-0.18186-0.11191-0.36372-0.27979-0.18186-0.16787-0.33575-0.3917l-2.0844-3.0917v2.3642q0 0.34974-0.1259 0.62953-0.11192 0.26579-0.34974 0.50361-0.23782 0.22383-0.5316 0.33575-0.27979 0.11191-0.60154 0.11191v0.014zm1.6228-6.1973h1.343q0.11192 0.014 0.20984-0.028 0.11192-0.042 0.19585-0.1259 0.08394-0.0839 0.1259-0.18187 0.04197-0.11191 0.04197-0.23781 0 0 0-0.014t0-0.028 0-0.028q-0.01399-0.11192-0.05596-0.20984-0.04197-0.0979-0.11192-0.18186-0.08394-0.07-0.16787-0.11192-0.08394-0.042-0.18186-0.042l-1.3989-0.014v1.2031z"/>
   <path d="m-29.223 160.41q-0.23782-0.0839-0.41968-0.22383-0.18186-0.1399-0.30777-0.32176-0.09793-0.18186-0.15388-0.3917-0.06995-0.20984-0.06995-0.44766 0-0.0979 0.01399-0.19585 0.01399-0.11192 0.04197-0.20984 0.01399-0.11192 0.05596-0.22383 0.02798-0.11192 0.06995-0.22384l2.3782-6.1693q0.16787-0.40569 0.40569-0.72745 0.25181-0.33574 0.57357-0.55957 0.32176-0.23782 0.68548-0.34974 0.36372-0.11191 0.76942-0.11191t0.76942 0.11191q0.37771 0.11192 0.68548 0.34974 0.32176 0.22383 0.55958 0.55957 0.25181 0.32176 0.41968 0.74144l2.4062 6.1414q0.04197 0.1259 0.06995 0.23782 0.04197 0.11191 0.05596 0.22383 0.02798 0.0979 0.04197 0.20984 0.01399 0.0979 0.01399 0.19585 0 0.23782-0.06995 0.44766-0.05596 0.20984-0.18186 0.3917-0.1259 0.18186-0.30777 0.32176-0.18186 0.13989-0.41968 0.20984-0.02798 0.014-0.05596 0.014-0.02798 0.014-0.05596 0.028t-0.05596 0.014q-0.02798 0.014-0.05596 0.028-0.05596 0.014-0.11192 0.014-0.05596 0.014-0.11192 0.028-0.02798 0-0.05596 0t-0.05596 0.014q-0.02798 0-0.05596 0t-0.05596 0q-0.25181 0-0.47564-0.0699-0.22383-0.07-0.43367-0.20984-0.20984-0.15389-0.36372-0.36373-0.13989-0.20984-0.23782-0.47564l-0.15388-0.47564h-3.3994l-0.16787 0.46165q-0.09793 0.27979-0.25181 0.48963-0.15388 0.20984-0.36372 0.36373-0.20984 0.13989-0.43367 0.20984-0.22383 0.0699-0.46165 0.0699-0.08394 0-0.16787-0.014-0.08394 0-0.16787-0.028-0.08394-0.014-0.16787-0.042-0.08394-0.028-0.16787-0.056v0.014zm3.2875-4.2528h1.5109l-0.75543-2.686-0.75543 2.686z"/>
   <path d="m-20.093 158.76v-6.8128q0-0.32175 0.11192-0.61553 0.1259-0.29378 0.34974-0.51761 0.23782-0.23782 0.51761-0.34973 0.29378-0.12591 0.64351-0.12591l2.2103-0.014q1.1751 0.014 2.1264 0.2658 0.95128 0.25181 1.6647 0.75543 0.71346 0.50362 1.1751 1.2171 0.47564 0.69947 0.69947 1.6088 0.02798 0.15388 0.05596 0.32175 0.02798 0.15389 0.04197 0.30777 0.02798 0.15388 0.02798 0.32176 0.01399 0.15388 0.01399 0.30776-0.01399 1.0772-0.40569 1.9725-0.37771 0.89532-1.1192 1.5948-0.74144 0.71346-1.6927 1.0632-0.93729 0.33575-2.0984 0.33575h-2.7139q-0.33575 0-0.61553-0.11192-0.27979-0.11191-0.51761-0.34973-0.23782-0.23782-0.36372-0.51761-0.11192-0.29378-0.11192-0.64351v-0.014zm3.2316-1.1471h0.76942q0.54559 0.014 0.97926-0.13989 0.44766-0.16788 0.78341-0.47564 0.33574-0.32176 0.50362-0.69947 0.16787-0.39171 0.16787-0.86735-0.01399-0.0699-0.02798-0.13989 0-0.0699 0-0.1399-0.01399-0.0699-0.02798-0.13989 0-0.07-0.01399-0.13989-0.08394-0.37772-0.29378-0.68548-0.19585-0.32176-0.51761-0.55958-0.33575-0.23782-0.75543-0.36372-0.41968-0.12591-0.9233-0.12591l-0.64351-0.014v4.4906z"/>
   <path d="m-9.4825 160.04q-0.11192-0.0979-0.19585-0.23782-0.083936-0.13989-0.15388-0.27978-0.055958-0.15389-0.097926-0.30777-0.027979-0.15388-0.027979-0.32176v-7.0646q0-0.32176 0.11192-0.60155 0.1259-0.29377 0.36372-0.53159t0.51761-0.34974q0.29378-0.11191 0.62952-0.11191 0.33575 0 0.61553 0.1259 0.29378 0.11192 0.51761 0.34974 0.23782 0.23782 0.34973 0.53159 0.1259 0.27979 0.1259 0.61554v7.0506q0 0.16788-0.027979 0.32176t-0.097926 0.30777q-0.055958 0.13989-0.15388 0.27978-0.083936 0.1399-0.19585 0.25181-0.1259 0.11192-0.25181 0.19585-0.1259 0.0839-0.27979 0.12591-0.13989 0.056-0.30777 0.0839-0.15388 0.028-0.30777 0.028-0.013989 0-0.027979 0-0.013989 0-0.027979 0 0 0-0.013989 0t-0.027979 0q-0.013989 0-0.027979 0 0 0-0.013989 0-0.13989-0.014-0.27979-0.0559-0.1259-0.028-0.25181-0.07-0.1259-0.056-0.23782-0.13989-0.11192-0.0839-0.22383-0.18187v-0.014z"/>
   <path d="m-5.2961 158.24q-0.20984-0.27979-0.37771-0.58755-0.16787-0.32176-0.27979-0.6575-0.11192-0.32176-0.18186-0.65751-0.055958-0.33574-0.083936-0.67149-0.013989-0.028-0.013989-0.0559 0-0.042 0-0.0839 0-0.028 0-0.042t0-0.042q0-0.014 0-0.028 0-0.028 0-0.042 0-0.028 0-0.056 0-0.042 0-0.0839 0-0.028 0-0.042t0-0.042q0-0.014 0-0.028 0.013989-0.028 0.013989-0.042 0.013989-0.16787 0.027979-0.33575 0.027979-0.16787 0.055958-0.33574 0.027979-0.15389 0.069947-0.32176 0.055958-0.16787 0.11192-0.33574 0.11192-0.32176 0.27979-0.62953 0.16787-0.32175 0.37771-0.62952 0.36372-0.5316 0.83936-0.95128 0.48963-0.41968 1.0772-0.72745t1.2031-0.46165q0.62952-0.15388 1.301-0.15388 0.6575 0 1.287 0.15388 0.62952 0.15388 1.2171 0.46165t1.0632 0.72745q0.47564 0.41968 0.85335 0.95128 0.20984 0.30777 0.36372 0.62952 0.16787 0.30777 0.27979 0.62953 0.11192 0.32175 0.18186 0.6575 0.083936 0.32175 0.097926 0.64351 0 0.014 0 0.042 0 0.014 0.013989 0.042 0 0.014 0 0.042 0 0.014 0 0.042 0 0.042 0 0.0839 0 0.042 0 0.0839 0 0.37772-0.069947 0.74144-0.055958 0.36373-0.16787 0.72745-0.1259 0.36373-0.29378 0.71346-0.16787 0.34974-0.40569 0.68548-0.37771 0.54559-0.85335 0.96527-0.47564 0.41968-1.0632 0.71346-0.58755 0.30777-1.2171 0.44766-0.62952 0.13989-1.287 0.13989-0.67149 0-1.301-0.13989-0.61553-0.13989-1.2031-0.44766-0.58755-0.29378-1.0772-0.71346-0.47564-0.41968-0.83936-0.96527v-0.014zm2.2663-2.8818q0 0.53159 0.15388 0.96526 0.16787 0.43368 0.47564 0.75543 0.32176 0.33575 0.69947 0.50362 0.37771 0.15388 0.81139 0.15388 0.055958 0 0.097926 0 0.055958 0 0.11192-0.014 0.055958 0 0.097926 0 0.055958-0.014 0.11192-0.028 0.37771-0.07 0.68548-0.2658 0.32176-0.20984 0.57357-0.51761 0.25181-0.32176 0.37771-0.69947 0.1259-0.3917 0.1259-0.82538 0-0.028 0-0.0559 0-0.028 0-0.056-0.013989-0.028-0.013989-0.056t0-0.056q0-0.0559-0.013989-0.11191 0-0.056-0.013989-0.11192-0.069947-0.43367-0.2658-0.7834-0.18186-0.34974-0.47564-0.61554-0.30777-0.26579-0.6575-0.3917-0.33575-0.13989-0.72745-0.13989-0.44766 0-0.82537 0.16787-0.37771 0.16787-0.69947 0.50362-0.30777 0.33574-0.47564 0.75543-0.15388 0.41968-0.15388 0.93729v-0.014z"/>
   <path d="m6.5786 160.66q-0.34973-0.014-0.6575-0.1399-0.30777-0.1259-0.55958-0.34973-0.25181-0.25181-0.37771-0.54559-0.1259-0.30776-0.1259-0.6575 0-0.34973 0.1259-0.64351 0.1259-0.29378 0.37771-0.54559t0.55958-0.37771q0.30777-0.12591 0.6575-0.12591 0.16787 0 0.32176 0.042 0.16787 0.028 0.32176 0.0979 0.15388 0.056 0.29378 0.15388 0.13989 0.0979 0.2658 0.20984 0.1259 0.12591 0.20984 0.27979 0.097926 0.13989 0.15388 0.29378 0.069947 0.15388 0.097926 0.32175 0.027979 0.15389 0.027979 0.30777 0 0.16787-0.027979 0.33575-0.027979 0.15388-0.097926 0.30776-0.055958 0.15389-0.15388 0.29378-0.097926 0.13989-0.20984 0.25181-0.1259 0.1259-0.2658 0.20984-0.13989 0.0839-0.29378 0.13989-0.15388 0.07-0.32176 0.0979-0.15388 0.028-0.32176 0.028v0.014z"/>
   <path d="m10.676 160.39q-0.34974 0-0.64351-0.11192-0.29378-0.11191-0.5316-0.34973-0.22383-0.23782-0.33575-0.55958-0.11192-0.33574-0.11192-0.74143v-6.645q0-0.33574 0.11192-0.62952 0.1259-0.29378 0.36372-0.5316t0.5316-0.36372q0.29378-0.12591 0.64351-0.12591l2.3222-0.014q0.02798 0.014 0.04197 0.014t0.04197 0q0.01399 0 0.02798 0 0.02798 0 0.04197 0 0.02798 0 0.04197 0t0.04197 0q0.01399 0.014 0.02798 0.014 0.02798 0 0.04197 0t0.02798 0 0.04197 0q0.01399 0.014 0.02798 0.014 0.02798 0 0.04197 0 0.02798 0 0.04197 0 0.02798 0 0.04197 0 0.02798 0.014 0.04197 0.014 0.02798 0 0.04197 0 0.69947 0.0979 1.2451 0.34974 0.54559 0.2518 0.93729 0.67149 0.40569 0.41968 0.60154 0.90931 0.19585 0.48963 0.19585 1.0352 0 0.014 0 0.042 0 0.014 0 0.028 0 0.028 0 0.042t0 0.042q0 0.014 0 0.042 0 0.014 0 0.042-0.01399 0.014-0.01399 0.042 0 0.014 0 0.042-0.01399 0.22383-0.06995 0.41968-0.04197 0.19585-0.11192 0.36373-0.06995 0.16787-0.15388 0.32175-0.08394 0.15388-0.18186 0.27979l0.02798 0.014 0.19585 0.1259 0.19585 0.12591 0.08394 0.0699q0.20984 0.19586 0.37771 0.41969 0.16787 0.20984 0.27979 0.46165 0.11192 0.2658 0.16787 0.54558 0.06995 0.2658 0.06995 0.54559 0 0.014 0 0.042t0 0.042q-0.01399 0.028-0.01399 0.056 0 0.014 0 0.042 0 0.014 0 0.042t0 0.042q-0.01399 0.028-0.01399 0.056 0 0.014 0 0.042-0.01399 0.18187-0.06995 0.36373-0.04197 0.18186-0.11192 0.36372-0.06995 0.18187-0.16787 0.34974-0.09793 0.16787-0.20984 0.33574-0.02798 0.042-0.05596 0.0839-0.02798 0.028-0.05596 0.056-0.04197 0.042-0.06995 0.0839-0.02798 0.028-0.05596 0.056-0.02798 0.042-0.06995 0.0699-0.02798 0.028-0.05596 0.07-0.04197 0.028-0.08394 0.0559-0.02798 0.028-0.05596 0.056-0.22383 0.18186-0.46165 0.32176-0.23782 0.13989-0.51761 0.23782-0.2658 0.0979-0.58755 0.13989-0.30777 0.028-0.67149 0.028h-3.4834zm1.6088-2.7839h1.5248q0.08394 0.014 0.16787-0.014 0.08394-0.042 0.13989-0.0979 0.06995-0.0699 0.09793-0.13989 0.04197-0.0839 0.04197-0.18186 0 0 0-0.014t0-0.028q0-0.0839-0.04197-0.16787-0.02798-0.0839-0.09793-0.1399-0.05596-0.0699-0.13989-0.0979-0.08394-0.042-0.16787-0.042l-1.5248-0.014v0.93729zm0.01399-3.6233h0.74144l0.51761-0.44766-0.54559-0.44766h-0.71346v0.89532z"/>
   <path d="m18.002 159.36q-0.02798-0.056-0.05596-0.1259-0.01399-0.0839-0.04197-0.16787-0.01399-0.0699-0.02798-0.1399 0-0.0839 0-0.16787v-6.8128q0-0.33574 0.11192-0.62952 0.1259-0.29378 0.34974-0.51761 0.23782-0.23782 0.51761-0.34973 0.29378-0.11192 0.64351-0.11192l3.8471-0.014q0.27979 0.014 0.50362 0.12591 0.23782 0.0979 0.44766 0.29377 0.19585 0.20985 0.29378 0.46165 0.11192 0.23782 0.11192 0.5316t-0.11192 0.54559q-0.09793 0.25181-0.29378 0.46165-0.20984 0.20984-0.46165 0.30777-0.23782 0.0979-0.51761 0.0979l-2.2103-0.014v0.85335h1.8186q0.15388 0.014 0.29378 0.042t0.27979 0.0839q0.13989 0.056 0.2658 0.13989 0.1259 0.07 0.23782 0.18187 0.08394 0.0839 0.15388 0.18186 0.06995 0.0839 0.1259 0.19585 0.02798 0.056 0.04197 0.11191 0.02798 0.056 0.04197 0.0979 0.01399 0.056 0.02798 0.11192 0.01399 0.0559 0.02798 0.11191 0 0.014 0 0.028t0 0.028q0 0 0 0.014t0 0.028 0 0.028q-0.01399 0.13989-0.04197 0.26579-0.02798 0.12591-0.08394 0.25181-0.05596 0.12591-0.1259 0.23782-0.06995 0.11192-0.18186 0.20984-0.11192 0.0979-0.23782 0.16788-0.1259 0.0699-0.2658 0.1259t-0.27979 0.0839q-0.1259 0.028-0.2658 0.028l-1.8326-0.014v0.86734h2.0984q0.15388 0.014 0.29378 0.042 0.15388 0.028 0.29378 0.0839 0.13989 0.056 0.2658 0.1399 0.1259 0.0699 0.23782 0.18186 0.09793 0.0839 0.16787 0.18186 0.06995 0.0979 0.1259 0.20984 0.05596 0.11192 0.08394 0.23782 0.04197 0.11192 0.05596 0.22383 0 0.014 0 0.028t0 0.028q0 0 0 0.014t0 0.028 0 0.028q0 0.13989-0.02798 0.2658-0.02798 0.1259-0.08394 0.25181-0.05596 0.1259-0.1259 0.23782-0.06995 0.11191-0.18186 0.20984-0.11192 0.0979-0.23782 0.18186-0.1259 0.07-0.2658 0.1259-0.13989 0.056-0.27979 0.0839-0.1259 0.014-0.27979 0.014h-3.7631q-0.22383 0-0.44766-0.056-0.20984-0.07-0.41968-0.20984-0.20984-0.13989-0.36372-0.32176-0.13989-0.19585-0.25181-0.43367v-0.014z"/>
  </g>
  <g transform="scale(.66824 1.4965)" fill="url(#a)" stroke-width=".30028" style="font-feature-settings:normal;font-variant-caps:normal;font-variant-ligatures:normal;font-variant-numeric:normal" aria-label="TEXT">
   <path d="m-106.09 93.95q0.042-0.3986 0.18881-0.75523 0.14685-0.37762 0.44055-0.67132 0.29371-0.2937 0.65034-0.44055 0.37762-0.16783 0.79719-0.16783l8.2027-0.02098q0.41957 0.02098 0.77621 0.18881 0.37762 0.14685 0.6923 0.46153 0.2937 0.31468 0.44055 0.6923 0.16783 0.35664 0.16783 0.79719 0 0.02098 0 0.02098-0.02098 0.44055-0.18881 0.81817-0.14685 0.35664-0.44055 0.65034-0.31468 0.2937-0.67132 0.44055-0.35664 0.14685-0.77621 0.14685l-1.7622-0.02098v8.7062q0 0.50349-0.18881 0.92306-0.16783 0.3986-0.52447 0.75524-0.33566 0.33566-0.77621 0.50348-0.41957 0.16783-0.90208 0.16783-0.50349 0-0.94404-0.16783-0.41957-0.16782-0.77621-0.50348-0.33566-0.35664-0.52447-0.77622-0.16783-0.41957-0.16783-0.92306v-8.7271h-1.6573q-0.44055 0.02098-0.79719-0.12587-0.35663-0.14685-0.65033-0.46153-0.29371-0.2937-0.44056-0.65034-0.12587-0.37762-0.12587-0.81817 0 0 0-0.02098l-0.042-0.02098z"/>
   <path d="m-93.343 105.45q-0.04196-0.0839-0.08391-0.18881-0.02098-0.12587-0.06294-0.25174-0.02098-0.1049-0.04196-0.20979 0-0.12587 0-0.25174v-10.217q0-0.50349 0.16783-0.94404 0.18881-0.44055 0.52447-0.77621 0.35664-0.35664 0.77621-0.52447 0.44055-0.16783 0.96502-0.16783l5.7691-0.02098q0.41957 0.02098 0.75523 0.18881 0.35664 0.14685 0.67132 0.44055 0.2937 0.31468 0.44055 0.6923 0.16783 0.35664 0.16783 0.79719 0 0.44055-0.16783 0.81817-0.14685 0.37762-0.44055 0.6923-0.31468 0.31468-0.6923 0.46153-0.35664 0.14685-0.77621 0.14685l-3.3146-0.02098v1.2797h2.7272q0.23076 0.02098 0.44055 0.06294t0.41957 0.12587q0.20979 0.08392 0.3986 0.20979 0.18881 0.10489 0.35664 0.27272 0.12587 0.12587 0.23077 0.27272 0.10489 0.12587 0.18881 0.2937 0.04196 0.08391 0.06294 0.16783 0.04196 0.08392 0.06294 0.14685 0.02098 0.08392 0.04196 0.16783 0.02098 0.08391 0.04196 0.16783 0 0.02098 0 0.04196t0 0.04196q0 0 0 0.02098t0 0.04196 0 0.04196q-0.02098 0.20979-0.06294 0.3986-0.04196 0.18881-0.12587 0.37762-0.08391 0.1888-0.18881 0.35663-0.10489 0.16783-0.27272 0.31468-0.16783 0.14685-0.35664 0.25175-0.18881 0.10489-0.3986 0.18881-0.20979 0.0839-0.41957 0.12587-0.18881 0.042-0.3986 0.042l-2.7482-0.021v1.3007h3.1468q0.23076 0.021 0.44055 0.0629 0.23077 0.042 0.44055 0.12587 0.20979 0.0839 0.3986 0.20979 0.18881 0.10489 0.35664 0.27272 0.14685 0.12588 0.25174 0.27273 0.10489 0.14685 0.18881 0.31468 0.08391 0.16783 0.12587 0.35663 0.06294 0.16783 0.08391 0.33566 0 0.021 0 0.042t0 0.042q0 0 0 0.021t0 0.0419q0 0.021 0 0.042 0 0.20979-0.04196 0.3986t-0.12587 0.37761q-0.08391 0.18881-0.18881 0.35664-0.10489 0.16783-0.27272 0.31468-0.16783 0.14685-0.35664 0.27272-0.18881 0.1049-0.3986 0.18881-0.20979 0.0839-0.41957 0.12587-0.18881 0.021-0.41957 0.021h-5.6433q-0.33566 0-0.67132-0.0839-0.31468-0.10489-0.62936-0.31468-0.31468-0.20979-0.54545-0.48251-0.20979-0.2937-0.37762-0.65034v-0.021z"/>
   <path d="m-82.193 106.75q-0.27272-0.14685-0.48251-0.35664-0.18881-0.23076-0.31468-0.50349-0.14685-0.27272-0.20979-0.54544-0.04196-0.2937-0.04196-0.58741 0-0.10489 0.02098-0.1888 0-0.0839 0-0.18881 0.02098-0.0839 0.04196-0.16783 0.02098-0.1049 0.04196-0.18881 0.04196-0.16783 0.12587-0.33566 0.10489-0.18881 0.23076-0.35664l3.4615-4.4475-2.7482-3.1678q-0.14685-0.14685-0.27272-0.33566-0.12587-0.20979-0.20979-0.41957-0.08392-0.20979-0.12587-0.41957-0.02098-0.20979 0-0.41957 0-0.12587 0-0.25174 0.02098-0.12587 0.04196-0.25174 0.04196-0.10489 0.06294-0.23077 0.04196-0.12587 0.10489-0.25174 0.10489-0.23077 0.27272-0.44055 0.18881-0.20979 0.3986-0.37762 0.16783-0.14685 0.33566-0.25174 0.18881-0.10489 0.37762-0.16783 0.18881-0.06294 0.37762-0.10489 0.18881-0.04196 0.37762-0.04196 0.04196 0 0.06294 0 0.04196 0 0.08392 0 0.02098 0.02098 0.06294 0.02098t0.06294 0q0.06294 0.02098 0.12587 0.04196 0.08391 0 0.16783 0.02098 0.10489 0.02098 0.20979 0.08392 0.10489 0.04196 0.23076 0.08391 0.10489 0.06294 0.20979 0.12587 0.10489 0.06294 0.20979 0.14685 0.20979 0.14685 0.3986 0.35664 0.20979 0.18881 0.3986 0.44055l1.5944 2.0559 1.5944-2.0769q0.20979-0.23076 0.41957-0.44055 0.23076-0.23077 0.44055-0.37762 0.10489-0.08391 0.20979-0.14685 0.12587-0.06294 0.25174-0.10489 0.10489-0.06294 0.20979-0.10489 0.12587-0.04196 0.23077-0.06294 0.04196 0 0.06294 0 0.02098-0.02098 0.06294-0.02098 0.02098-0.02098 0.04196-0.02098 0.04196 0 0.06294 0 0.04196 0 0.06294 0t0.06294-0.02098q0.02098 0 0.04196 0 0.04196 0 0.06294 0 0.10489 0 0.18881 0.02098 0.08391 0 0.18881 0.02098 0.08392 0.02098 0.16783 0.04196 0.10489 0.02098 0.18881 0.06294 0.18881 0.06294 0.35664 0.16783 0.18881 0.10489 0.35664 0.25174 0.23077 0.18881 0.3986 0.3986 0.16783 0.20979 0.2937 0.44055 0.06294 0.12587 0.08392 0.25174 0.04196 0.12587 0.08392 0.23077 0.02098 0.12587 0.02098 0.25174 0.02098 0.12587 0.02098 0.25174 0 0.20979-0.04196 0.41957t-0.10489 0.41957q-0.08391 0.20979-0.18881 0.3986-0.10489 0.18881-0.27272 0.35664l-2.7692 3.1468 3.4615 4.4265q0.12587 0.18881 0.20979 0.37762 0.10489 0.16783 0.16783 0.35664 0.06294 0.18881 0.08392 0.37761 0.04196 0.18881 0.04196 0.37762 0 0.27272-0.08391 0.56643-0.06294 0.27272-0.18881 0.52446-0.14685 0.27273-0.35664 0.50349-0.18881 0.20979-0.44055 0.37762-0.08391 0.0629-0.16783 0.10489-0.08392 0.042-0.14685 0.0839-0.08392 0.0419-0.16783 0.0629t-0.16783 0.042q-0.16783 0.042-0.35664 0.0629-0.16783 0.0419-0.33566 0.0419-0.2937-0.021-0.5874-0.10489-0.27272-0.0629-0.56642-0.20979-0.27272-0.16783-0.52447-0.39859-0.25174-0.25175-0.48251-0.58741l-2.1818-3.2517-2.1818 3.2307q-0.23077 0.35663-0.48251 0.60838-0.25174 0.23076-0.54545 0.39859-0.27272 0.14685-0.56642 0.23077-0.2937 0.0839-0.5874 0.0839-0.02098 0-0.06294 0-0.02098 0-0.04196 0-0.04196-0.021-0.06294-0.021t-0.06294 0q-0.06294-0.021-0.12587-0.0419-0.04196 0-0.08391 0-0.12587-0.021-0.25174-0.0629-0.10489-0.021-0.20979-0.042-0.10489-0.0419-0.20979-0.0839-0.10489-0.0629-0.20979-0.14685v-0.021z"/>
   <path d="m-70.175 93.95q0.04196-0.3986 0.18881-0.75523 0.14685-0.37762 0.44055-0.67132t0.65034-0.44055q0.37762-0.16783 0.79719-0.16783l8.2027-0.02098q0.41957 0.02098 0.77621 0.18881 0.37762 0.14685 0.6923 0.46153 0.2937 0.31468 0.44055 0.6923 0.16783 0.35664 0.16783 0.79719 0 0.02098 0 0.02098-0.02098 0.44055-0.18881 0.81817-0.14685 0.35664-0.44055 0.65034-0.31468 0.2937-0.67132 0.44055-0.35664 0.14685-0.77621 0.14685l-1.7622-0.02098v8.7062q0 0.50349-0.18881 0.92306-0.16783 0.3986-0.52447 0.75524-0.33566 0.33566-0.77621 0.50348-0.41957 0.16783-0.90208 0.16783-0.50349 0-0.94404-0.16783-0.41957-0.16782-0.77621-0.50348-0.33566-0.35664-0.52447-0.77622-0.16783-0.41957-0.16783-0.92306v-8.7271h-1.6573q-0.44055 0.02098-0.79719-0.12587-0.35664-0.14685-0.65034-0.46153-0.2937-0.2937-0.44055-0.65034-0.12587-0.37762-0.12587-0.81817 0 0 0-0.02098l-0.04196-0.02098z"/>
  </g>
 </g>
</svg>
