<svg width="200mm" height="51.254mm" version="1.1" viewBox="0 0 200 51.254" xmlns="http://www.w3.org/2000/svg" xmlns:xlink="http://www.w3.org/1999/xlink">
 <defs>
  <linearGradient id="e-5-2" x2="35.855" y1="18.136" y2="18.136" gradientTransform="matrix(3.841 0 0 1.4131 -253.46 -12.109)" gradientUnits="userSpaceOnUse">
   <stop stop-color="#020186" offset="0"/>
   <stop stop-color="#0500E7" offset=".50572"/>
   <stop stop-color="#02A7E6" offset="1"/>
  </linearGradient>
 </defs>
 <g transform="translate(253.46 12.109)" fill-rule="evenodd">
  <g transform="matrix(4.5792 0 0 4.5792 246.75 -217.01)" fill="#ff0">
   <mask fill="#000000">
    <use width="100%" height="100%" xlink:href="#f-7"/>
   </mask>
  </g>
  <path d="m-74.927 12.77h2.3663v-16.44h-2.3663zm7.402-1.9158h4.7557v1.9158h-7.1476v-16.44h6.9633v1.9181h-4.5737v5.0685h3.7849v1.9158h-3.7826zm11.649-0.7608v-4.0182c0-0.3174-0.049-0.5205-0.1446-0.6184-0.098-0.096-0.3034-0.1447-0.616-0.1447h-1.9462c-1.5938 0-2.3919-0.7795-2.3919-2.3382v-4.3334c0-1.5402 0.8168-2.3102 2.4432-2.3102h2.5762c1.6289 0 2.4432 0.77 2.4432 2.3102v2.4175h-2.3895v-2.0488c0-0.315-0.054-0.5204-0.1586-0.6161-0.1051-0.098-0.3151-0.1447-0.6301-0.1447h-1.1038c-0.3174 0-0.525 0.047-0.63 0.1447-0.1074 0.093-0.1587 0.3035-0.1587 0.6161v3.6497c0 0.315 0.051 0.5227 0.1587 0.6183 0.105 0.096 0.3126 0.1447 0.63 0.1447h1.9181c1.6102 0 2.4176 0.7701 2.4176 2.3102v4.7277c0 1.5401-0.8238 2.3102-2.4712 2.3102h-2.5482c-1.6288 0-2.4432-0.7701-2.4432-2.3102v-2.4152h2.3895v2.0488c0 0.3151 0.054 0.5204 0.1587 0.6161 0.105 0.098 0.315 0.1447 0.6301 0.1447h1.1061c0.3126 0 0.518-0.047 0.616-0.1447 0.096-0.093 0.1446-0.3033 0.1446-0.6161m-36.853-14.363h1.7151l1.7244-2.1538h-2.2261zm-4.5061 21.588h-4.7814v5.4091h3.785v1.8668h-3.785v7.2479h-2.3919v-16.442h7.1733zm1.9088 14.524h2.3663v-16.442h-2.3663zm7.0777-1.9182h4.0719v1.9182h-6.4358v-16.442h2.3662zm8.0669 1.9182h-2.0768v-16.442h2.6018l2.8119 10.19 2.8119-10.19h2.602v16.442h-2.0769v-12.029l-2.2589 8.4567h-2.1561l-2.2589-8.431zm16.064-2.6812v-4.016c0-0.315-0.049-0.5203-0.1447-0.6184-0.098-0.093-0.3034-0.1447-0.6184-0.1447h-1.9438c-1.5939 0-2.3919-0.7793-2.3919-2.3382v-4.331c0-1.5401 0.8167-2.3125 2.4432-2.3125h2.5762c1.6288 0 2.4432 0.7701 2.4432 2.3102v2.4176h-2.3919v-2.0489c0-0.315-0.051-0.5204-0.1563-0.6161-0.1051-0.096-0.315-0.1446-0.6301-0.1446h-1.1037c-0.3174 0-0.5251 0.047-0.6301 0.1446-0.1073 0.093-0.1586 0.3011-0.1586 0.6161v3.652c0 0.3126 0.051 0.5204 0.1563 0.616 0.1073 0.096 0.315 0.1446 0.63 0.1446h1.9206c1.6101 0 2.4175 0.7701 2.4175 2.3102v4.7278c0 1.5401-0.8238 2.3102-2.4712 2.3102h-2.546c-1.6287 0-2.4431-0.7701-2.4431-2.3102v-2.4152h2.3896v2.0465c0 0.3174 0.054 0.5227 0.1586 0.6184 0.105 0.098 0.3151 0.1446 0.63 0.1446h1.1038c0.3151 0 0.5204-0.047 0.6184-0.1446 0.093-0.093 0.1447-0.3034 0.1447-0.6184m-35.194-19.067v-4.0182c0-0.3174-0.047-0.5205-0.1447-0.6184-0.096-0.096-0.3033-0.1447-0.6183-0.1447h-1.9439c-1.5938 0-2.3919-0.7795-2.3919-2.3382v-4.3334c0-1.5402 0.8168-2.3102 2.4456-2.3102h2.5738c1.6288 0 2.4433 0.77 2.4433 2.3102v2.4175h-2.3896v-2.0488c0-0.315-0.054-0.5204-0.1587-0.6161-0.1049-0.098-0.315-0.1447-0.6299-0.1447h-1.1038c-0.3151 0-0.5275 0.047-0.6301 0.1447-0.105 0.093-0.1587 0.3035-0.1587 0.6161v3.6497c0 0.315 0.054 0.5227 0.1587 0.6183 0.1026 0.096 0.315 0.1447 0.6301 0.1447h1.9181c1.6101 0 2.4176 0.7701 2.4176 2.3102v4.7277c0 1.5401-0.8238 2.3102-2.4713 2.3102h-2.5481c-1.6288 0-2.4433-0.7701-2.4433-2.3102v-2.4152h2.3919v2.0488c0 0.3151 0.051 0.5204 0.1564 0.6161 0.1049 0.098 0.315 0.1447 0.6299 0.1447h1.1039c0.3173 0 0.5227-0.047 0.6183-0.1447 0.096-0.093 0.1447-0.3033 0.1447-0.6161m6.9983 0.7608h4.7557v1.9158h-7.1476v-16.44h6.9633v1.9181h-4.5737v5.0685h3.7849v1.9158h-3.7826zm9.1358-12.606v5.9879h2.3102c0.3173 0 0.525-0.047 0.6299-0.1447 0.1074-0.096 0.1587-0.3033 0.1587-0.6184v-4.464c0-0.315-0.051-0.5204-0.1563-0.6161-0.1073-0.098-0.315-0.1447-0.63-0.1447zm0 7.878v6.6436h-2.3663v-16.44h5.3858c1.6311 0 2.4456 0.77 2.4456 2.3102v5.1478c0 1.3301-0.5881 2.0932-1.7619 2.2869l2.6019 6.6972h-2.5482l-2.4712-6.646z" fill="#02a7e6" mask="url(#d-0)" stroke-width="2.3335"/>
  <path d="m-253.46-12.109v51.254h139.32v-7.7486h-16.108v-31.328l16.108-4.6059v-7.5715z" fill="url(#e-5-2)" stroke-width="2.3297"/>
  <path d="m-237.34-4.2043v12.24h8.1214v23.213h15.546v-23.213h8.1237v-12.24zm55.021 0v35.451h15.546v-11.159h9.5518v-8.8809h-9.5518v-6.5325h13.356v-8.8786zm68.249-0.4496v36.111h-16.117v-31.484z" fill="#fff" stroke-width="2.3297"/>
 </g>
</svg>
