<svg xmlns="http://www.w3.org/2000/svg" version="1.0" width="382" height="120">
    <path d="M321.148 70.548c14.592 0 18.277 1.127 15.613 11.023-2.685 10.044-7.401 13.14-21.193 13.14h-32.753c-13.781 0-16.845-3.096-14.15-13.14.18-.663 2.738-10.97 2.738-10.97l49.745-.053zm-154.152-26.11l2.2-8.337c.285-1.053 2.727-9.16 11.34-9.16h70.527c-2.548 5.096-4.464 10.255-6.38 17.203l-.085.295h-77.602zm68.359 34.375c-8.17 30.479 2.916 41.186 30.952 41.186h51.24c27.889 0 42.997-3.727 50.735-32.595l2.737-10.202c5.685-21.256 2.611-32.763-32.09-32.763h-60.315l.906-3.38c2.474-9.243 8.97-14.118 21.298-14.118h73.97L382 0l-74.128.01c-28.194 0-44.176 5.59-54.462 22.646l-.495.885.2-.59 6.149-22.94H179.84c-15.402 0-33.784 10.549-41.554 25.13L145.013 0H8.907L0 29.226h50.598L26.962 117.43h36.006l23.636-88.204h49.83c-.348.937-23.5 87.94-23.5 87.94h34.554l12.444-46.544h77.58l-2.157 8.191M516.121 399.839" fill="#ed1c24"/>
</svg>
