<svg xmlns="http://www.w3.org/2000/svg" height="361.08" width="600" viewBox="0 0 158.75 95.535">
    <g fill="#65256e">
        <path d="M2.02 68.455V88.84c0 5.86 2.475 7.244 7.863 6.37l-.146-3.057c-3.021.473-3.786-.437-3.786-3.35V68.457z"/>
        <path d="M25.98 78.825c-2.293-1.02-4.696-1.638-7.208-1.638-5.715-.11-9.864 3.094-9.974 8.918 0 4.95 2.585 9.246 7.936 9.246 2.584 0 5.06-1.383 6.043-3.822v.728c0 2.912 2.584 3.203 5.096 2.73v-2.694c-1.93.182-1.893-.837-1.893-2.438zm-3.822 7.462c-.11 3.24-1.638 5.533-4.587 5.533-3.24 0-4.805-2.511-4.805-5.715.11-3.785 2.366-5.715 5.715-5.715 1.129 0 2.475.182 3.677.728zM27.52 80.025c2.148-.182 2.039.546 2.039 2.876v12.194h3.967V84.903c0-2.84 1.966-4.55 4.441-4.55 2.366 0 4.187 1.674 4.187 4.44v6.262c0 4.186 2.62 4.622 5.97 3.967v-2.511c-1.712.182-2.04-.292-2.04-1.602v-6.261c.11-4.368-2.183-7.499-6.952-7.499-2.475 0-4.732 1.02-5.86 3.24 0-2.912-2.985-3.604-5.788-2.912zM65.35 83.375c-.91-4.223-4.587-6.334-8.372-6.334-4.623 0-9.356 3.094-9.356 9.21 0 6.079 4.66 9.137 9.247 9.137 3.895 0 7.68-2.185 8.59-6.626h-3.83c-.8 2.185-2.803 3.24-4.768 3.204-2.658-.037-5.315-1.966-5.315-5.715s2.803-5.642 5.497-5.679c1.893-.036 3.749.91 4.513 2.803z"/>
        <path d="M82.58 78.825c-2.293-1.02-4.696-1.638-7.207-1.638-5.715-.11-9.865 3.094-9.974 8.918 0 4.95 2.584 9.246 7.935 9.246 2.585 0 5.06-1.383 6.043-3.822v.728c0 2.912 2.584 3.203 5.096 2.73v-2.694c-1.93.182-1.893-.837-1.893-2.438zm-3.822 7.462c-.11 3.24-1.638 5.533-4.587 5.533-3.24 0-4.805-2.511-4.805-5.715.11-3.785 2.366-5.715 5.715-5.715 1.129 0 2.476.182 3.677.728zM84.31 89.925c.291 4.368 4.15 5.606 8.045 5.606 3.895 0 7.644-1.675 7.644-5.57 0-4.15-3.567-4.768-7.244-5.241-2.73-.328-4.15-.656-4.186-2.112-.11-1.565 1.784-2.439 3.604-2.439 1.856 0 3.967.546 3.967 2.294h3.495c.11-3.495-3.422-5.278-7.462-5.278-3.823 0-7.463 1.747-7.463 5.496.11 3.968 4.15 4.368 7.754 4.842 2.293.29 3.931.764 3.931 2.366-.109 2.147-2.257 2.693-4.186 2.693-1.893 0-3.895-.837-4.004-2.657zM105.23 84.975c0-2.876 2.002-4.623 4.514-4.623 2.475 0 3.64 1.128 4.04 3.422.11.764.073 1.71.073 6.661 0 3.567 1.638 5.351 6.152 4.587l-.036-2.73c-1.93.182-2.112-.474-2.112-2.112v-4.368c0-.874-.036-1.638-.145-2.475-.4-3.495-2.84-6.08-6.553-6.08-2.33-.145-4.659.838-5.933 2.694v-11.43h-3.968v26.574h3.968zM120.16 72.125c0 1.602 1.238 2.366 2.439 2.366 1.165 0 2.33-.8 2.33-2.366 0-1.529-1.165-2.33-2.366-2.33-1.202 0-2.403.765-2.403 2.33zm4.368 5.606h-3.968v17.363h3.968zM131.26 80.105c-.182-2.84-3.021-3.276-5.606-2.694l.037 2.694c1.893-.11 1.893.692 1.893 2.257v12.74h3.93V84.946c0-2.84 2.112-4.368 4.478-4.368 1.274 0 2.44.364 3.495 1.055l.983-3.421c-1.129-.838-2.585-1.274-4.041-1.238-2.148 0-4.477 1.092-5.169 3.13zM155.12 90.945c-1.565.728-3.75 1.31-5.788 1.31-3.858.11-6.589-1.856-6.48-5.496 1.639.983 3.969 1.565 6.262 1.456 3.349-.11 6.588-1.71 6.77-5.205.183-4.332-4.04-6.007-7.862-5.897-4.66.109-8.81 3.057-8.919 8.736-.29 6.188 3.75 9.755 9.974 9.573 2.184-.109 4.223-.364 6.152-1.346zm-11.976-6.843c.582-2.621 2.475-3.823 4.914-3.86 1.784 0 4.114.656 4.004 2.731-.109 1.82-2.11 2.512-3.676 2.512-1.82 0-3.932-.474-5.242-1.384z"/>
    </g>
    <path d="M128.11 56.155c.572 8.528 8.108 10.951 15.711 10.951 7.612 0 14.929-3.272 14.929-10.883 0-8.1-6.964-9.31-14.147-10.236-5.332-.64-8.108-1.278-8.175-4.121-.21-3.062 3.482-4.76 7.04-4.76 3.625 0 7.746 1.06 7.746 4.474h6.83c.21-6.821-6.687-10.311-14.577-10.311-7.468 0-14.576 3.415-14.576 10.74.21 7.746 8.108 8.528 15.14 9.453 4.482.572 7.678 1.497 7.678 4.626-.21 4.189-4.407 5.257-8.175 5.257-3.692 0-7.603-1.632-7.822-5.19zm-18.772-34.694h-6.821l-.782 10.589H94.77v5.055l6.964.496v15.568c0 13.44 9.167 16.14 20.9 12.515l-.782-5.828c-7.04 2.48-12.515 1.917-12.515-6.83V37.601h11.876v-5.55h-11.876zM87.016 49.048c-.21 6.325-3.196 10.808-8.957 10.808-6.325 0-9.387-4.912-9.387-11.169.22-7.393 4.626-11.161 11.161-11.161 2.204 0 4.837.362 7.183 1.421zm7.469-14.576c-4.483-1.993-9.176-3.204-14.08-3.204-11.16-.21-19.268 6.047-19.478 17.418 0 9.672 5.046 18.058 15.5 18.058 5.047 0 9.883-2.7 11.8-7.46v1.42c0 5.686 5.047 6.258 9.95 5.333v-5.265c-3.768.362-3.692-1.632-3.692-4.76zm-59.581 12.01c0-5.61 3.91-9.025 8.814-9.025 4.836 0 7.115 2.204 7.897 6.687.21 1.489.135 3.339.135 13.003 0 6.972 3.204 10.454 12.019 8.957l-.067-5.332c-3.768.361-4.13-.917-4.13-4.121v-8.529c0-1.707-.067-3.204-.277-4.836-.783-6.821-5.551-11.876-12.801-11.876-4.55-.278-9.1 1.64-11.59 5.265V14.352h-7.747v51.893h7.747zm-20.33-25.03h-6.83l-.782 10.589H-.002v5.055l6.964.496V53.16c0 13.44 9.176 16.14 20.9 12.515l-.782-5.828c-7.031 2.48-12.507 1.917-12.507-6.83V37.592H26.44v-5.55H14.57zM144.72 8.722l-4.903 11.48h-.8l-4.945-11.48v-.286h2.06l1.674 4.037 1.598 4.315h.051l1.53-4.23 1.683-4.122h2.052zm-18.116 7.132V10.8l-2.263-.168v-1.64h2.263l.26-3.44h2.213v3.44h3.86V10.8h-3.86v5.013c0 2.834 1.783 3.02 4.07 2.212l.253 1.892c-3.81 1.186-6.796.303-6.796-4.062m30.32-5.425c-.135-.353-.454-.807-.496-1.169a.316.316 0 0 1-.135-.244c-.059-.067-.059-.042-.076-.134-.067-.068-.059-.051-.084-.135a.374.374 0 0 1-.134-.219c-.084-.067-.101-.151-.194-.218a.343.343 0 0 0-.134-.194c-.042-.185-.446-.69-.623-.782-.017-.093-.134-.194-.218-.244-.05-.235-.53-.563-.707-.74-.235-.219-.496-.437-.731-.673-.101-.024-.295-.202-.379-.277-.126-.093-.294-.202-.387-.32a.33.33 0 0 1-.185-.135.327.327 0 0 1-.193-.143c-.286-.05-.463-.378-.757-.462a.419.419 0 0 0-.219-.135c-.067-.059-.042-.059-.134-.075-.068-.068-.051-.06-.135-.084-.067-.068-.05-.06-.143-.084a.2.2 0 0 0-.185-.11.213.213 0 0 0-.193-.11c-.06-.1-.236-.176-.354-.184-.134-.219-.656-.379-.891-.488-.32-.152-.631-.303-.95-.437-.758-.32-1.531-.606-2.314-.867-3.625-1.21-7.426-1.665-11.245-1.74h-.269c0-.144-4.945.344-5.727.462-.774.118-1.548.252-2.313.437-1.077.252-2.153.513-3.205.866a31.56 31.56 0 0 0-2.304.867c-.32.134-.64.286-.95.437-.261.118-.59.379-.875.404-.06.1-.227.185-.353.193-.034.076-.101.11-.185.11-.034.075-.11.11-.194.11-.059.058-.042.058-.134.083a.18.18 0 0 1-.185.101.435.435 0 0 1-.22.143.42.42 0 0 1-.218.135c-.16.235-.538.26-.706.513a.35.35 0 0 0-.194.134c-.244.06-.614.43-.816.623-.1.024-.31.227-.378.328-.202.042-.446.395-.597.547-.16.16-.345.395-.539.513-.033.16-.32.403-.437.546-.134.16-.277.396-.437.513a.343.343 0 0 1-.135.194c-.025.134-.151.202-.193.353a.368.368 0 0 0-.135.21c-.059.067-.059.05-.076.143-.092.05-.126.143-.134.244-.286.177-.463.883-.572 1.195-.328.874-.547 1.858-.463 2.792.084.967.202 1.842.539 2.75.134.337.454.757.496 1.11.084.05.118.143.134.244.06.068.06.042.076.135.093.059.168.185.194.303.067.042.067.084.134.134.042.227.387.572.572.757.025.143.227.27.328.379.11.134.202.286.353.386.034.185.396.42.539.564.168.168.462.311.572.521.143.025.31.253.437.354.168.126.404.227.538.403a.347.347 0 0 1 .194.135c.32.059.513.437.84.521.06.068.11.11.22.135.067.059.041.059.134.076.067.067.042.059.135.084.067.067.042.059.134.084.042.075.11.109.194.109a.399.399 0 0 0 .294.16c.067.1.235.176.353.193.135.202.597.328.816.429.27.135.538.27.816.387.656.269 1.312.521 1.985.757.866.311 1.74.563 2.632.79.555.135 1.119.27 1.682.379.354.067.707.134 1.06.193.32.05.841.025 1.119.185-.152.539-.404 1.069-.631 1.573-.168.379-.555.875-.597 1.279a.213.213 0 0 0-.11.193.2.2 0 0 0-.109.185c-.059.067-.059.05-.076.135-.067.067-.059.05-.084.143a.332.332 0 0 0-.134.21c-.143.093-.152.286-.303.387-.034.16-.236.37-.353.513-.11.143-.228.303-.354.437-.235.253-.572.463-.757.757-.109.025-.328.236-.403.328a.347.347 0 0 0-.194.135c-.067.018-.126.05-.16.11h.244c.007.201 2.885-.614 3.28-.757.303-.118.59-.244.875-.387.202-.101.48-.303.707-.32.05-.092.143-.126.244-.143a.2.2 0 0 1 .185-.11c.067-.058.05-.05.134-.075.067-.067.05-.06.143-.084.06-.059.042-.059.135-.084.067-.101.252-.21.378-.244.126-.185.404-.202.547-.404a.329.329 0 0 0 .185-.134c.21-.042.437-.32.622-.463.21-.16.438-.303.631-.488.252-.05.614-.513.816-.681.227-.202.563-.412.732-.681.227-.042.605-.555.782-.732.067-.059.126-.168.193-.219.345-.235.984-.134 1.413-.16a41.223 41.223 0 0 0 2.473-.243 37.717 37.717 0 0 0 5.021-1.035c1.018-.277 2.01-.647 2.986-1.034.412-.152.799-.336 1.194-.513.311-.135.732-.454 1.06-.488.067-.101.235-.177.353-.193a.316.316 0 0 1 .244-.135.207.207 0 0 1 .193-.11c.068-.059.043-.059.135-.075.067-.068.042-.06.135-.084.067-.067.05-.06.134-.084.067-.06.05-.06.143-.076a.381.381 0 0 1 .21-.143c.177-.26.598-.286.791-.563.151-.034.353-.236.488-.328.134-.093.286-.236.412-.354.143-.033.48-.344.563-.487.127-.025.337-.27.413-.379.16-.033.353-.32.462-.437.135-.143.26-.362.43-.463.024-.109.193-.252.277-.353.1-.135.193-.303.32-.404.033-.176.226-.269.277-.462a.374.374 0 0 0 .134-.219c.06-.067.06-.042.084-.135.06-.067.06-.05.076-.134.26-.168.454-.833.572-1.119a7.92 7.92 0 0 0 .547-2.279c.092-1.11-.101-2.296-.488-3.339" fill="#ca3493"/>
</svg>
