<svg width="200mm" height="466.205" viewBox="0 0 200 123.35" xmlns="http://www.w3.org/2000/svg">
    <g stroke-width=".353">
        <path d="M2.421 95.327C-.437 78.93-.72 68.404 1.32 54.402c1.559-10.7 4.572-19.873 9.218-28.068 2.82-4.975 6.83-9.554 11.93-13.622C29.827 6.84 39.261 2.54 47.785 1.172l3.078-.49c5.241-.833 10.795-.933 16.358-.295C76.136 1.41 85.667 4.415 93.798 8.77c2.784 1.49 8.443 4.9 13.323 8.03 5.798 3.716 8.306 5.198 11.348 6.706 3.754 1.86 5.356 2.264 8.45 2.127 3.29-.146 5.432-.694 12.918-3.307 1.992-.695 4.596-1.557 5.787-1.916 8.175-2.461 15.207-2.968 22.282-1.607 10.912 2.1 19.832 9.19 25.344 20.147 3.25 6.462 5.114 13.4 6.224 23.179.442 3.898.585 7.447.501 12.494-.135 8.18-.803 14.469-2.277 21.429l-.396 1.871-.084-2.958c-.136-4.748-.332-9.17-.527-11.83-.512-7.01-1.413-14.605-2.3-19.377-2.822-15.206-7.27-24.813-14.291-30.872-4.375-3.775-9.496-6.032-15.549-6.852-6.323-.857-10.934.014-21.394 4.04-6.163 2.372-9.357 3.371-12.977 4.06-1.907.362-4.751.436-6.795.175-5.616-.714-10.245-2.9-21.878-10.33-1.626-1.04-3.854-2.425-4.95-3.08s-2.752-1.661-3.681-2.236c-2.324-1.436-3.885-2.293-6.154-3.382C66.59 5.624 43.23 7.23 27.626 19.343c-1.55 1.202-4.65 4.17-5.915 5.658-2.716 3.2-6.104 8.667-8.29 13.378C8.857 48.21 6.013 60.09 4.266 76.614c-.64 6.055-.963 10.813-1.153 16.961a331.5 331.5 0 0 1-.153 4.407c-.015.166-.258-1.03-.542-2.656zM108.883 75.65c-.224-1.357-.308-5.312-.143-6.715.56-4.758 2.453-9.252 5.423-12.874.996-1.216 3.143-3.27 4.367-4.179a25.003 25.003 0 0 1 11.827-4.717c1.315-.163 4.484-.163 5.802 0 5.588.69 10.603 3.124 14.548 7.056a24.714 24.714 0 0 1 7.069 14.186c.205 1.474.206 5.044 0 6.515-.222 1.594-.318 1.797-.428.907-.14-1.132-.837-3.748-1.335-5.007-1.262-3.191-2.89-5.716-5.242-8.132-2.176-2.235-4.244-3.74-6.907-5.024-3.413-1.646-6.795-2.415-10.63-2.417-11.572-.007-21.56 8.184-23.826 19.539a69.17 69.17 0 0 1-.34 1.647c-.02.067-.104-.286-.186-.784z" fill="#2a91cc"/>
        <path d="M124.688 123.251c-1.326-.222-2.14-.875-2.468-1.983-.256-.862-.272-6.066-.021-6.9.25-.831.638-1.289 1.391-1.642.631-.296.789-.317 2.426-.317 1.674 0 1.78.015 2.442.34 1.262.62 1.552 1.325 1.633 3.976l.058 1.902h-4.737v.905c0 .745.043.948.241 1.147.297.296.385.3.723.025.182-.147.288-.396.331-.784l.064-.569h3.35v1.31c0 1.484.004 1.475-1.055 2.006-1.047.524-3.1.798-4.378.585zm2.015-7.489c-.148-1.43-1.29-1.33-1.29.115v.577h1.36zm6.923 7.44c-.657-.202-1.1-.583-1.378-1.184-.236-.51-.261-.819-.317-3.814l-.06-3.26-1.026-.074v-2.4h1.086v-1.998l3.38-1.12v3.118h1.208v2.4l-1.147.074v2.556c0 2.506.005 2.562.28 2.853.16.172.48.33.754.373l.475.076v1.132c0 1.07-.015 1.135-.272 1.207-.522.147-2.566.188-2.983.06zm20.277-.027c-.844-.197-1.34-.46-1.726-.92-.579-.688-.628-1.037-.628-4.482v-3.208l.365-.713c.318-.622.456-.76 1.078-1.078.7-.358.746-.365 2.532-.365 1.711 0 1.86.019 2.495.317.37.174.781.472.911.664.56.824.58.945.623 4.118.036 2.575.011 3.154-.16 3.742-.26.9-.969 1.617-1.82 1.84-.848.222-2.878.269-3.67.084zm2.113-2.516c.073-.069.12-1.17.12-2.819 0-2.364-.025-2.731-.2-2.907-.284-.284-.8-.132-.957.281-.074.195-.109 1.33-.086 2.844.034 2.335.054 2.533.271 2.692.233.17.617.129.852-.09zm-45.815 1.167c0-.802.046-1.268.126-1.268.07 0 .26-.133.422-.296l.297-.297v-8.13l-.427-.403-.427-.403.034-1.181.035-1.181 4.6-.066 1.16 3.534 1.158 3.534.012-2.022c.011-1.87-.006-2.04-.23-2.264-.21-.21-.241-.402-.241-1.509v-1.268h4.346v1.328c0 .805-.048 1.328-.12 1.328-.067 0-.23.109-.363.242-.234.234-.241.402-.241 5.915v5.674h-1.932c-1.062 0-1.931-.016-1.931-.036 0-.12-2.208-6.32-2.306-6.474-.081-.129-.106.396-.078 1.635.033 1.466.082 1.887.247 2.14.159.242.205.587.205 1.524v1.212h-4.346zm29.347.818c-.067-.25-.456-1.896-.865-3.655-.41-1.76-.822-3.351-.917-3.537-.095-.185-.307-.398-.472-.474-.294-.133-.3-.163-.266-1.292l.034-1.156 4.648-.065v1.17c0 .884-.046 1.22-.186 1.375-.168.185-.165.356.024 1.73.116.839.242 1.524.28 1.524s.34-1.29.67-2.867l.6-2.867 2.215-.07.194.88.657 2.993c.491 2.234.502 2.243.733.64.158-1.095.16-1.812.004-1.908-.068-.042-.12-.625-.12-1.335v-1.26h3.983v1.193c0 1.15-.011 1.2-.312 1.398-.171.112-.38.376-.465.587s-.526 1.972-.98 3.914l-.826 3.532h-1.664c-1.625 0-1.665-.007-1.73-.272-.037-.15-.25-1.195-.475-2.324-.224-1.129-.415-2.025-.424-1.992-.009.033-.22 1.065-.469 2.294l-.452 2.233-3.298.067zm21.116-.73c0-1.103.017-1.186.27-1.297.495-.22.571-.592.573-2.798.001-1.14-.052-2.215-.117-2.386a.84.84 0 0 0-.422-.427c-.297-.113-.304-.144-.304-1.326v-1.21h3.984v.771l.392-.378c.498-.48.925-.641 1.47-.553l.431.07v3.59h-.587c-1.156 0-1.463.563-1.464 2.681-.002 1.403.111 1.81.556 2.012.274.125.288.186.288 1.28v1.15h-5.07zm6.76-.028c0-.971.034-1.207.175-1.207.095 0 .258-.12.362-.268.161-.231.188-.872.188-4.57 0-4.012-.015-4.313-.221-4.5-.121-.11-.284-.2-.362-.2-.1 0-.142-.38-.142-1.27v-1.27l4.165.066.121 7.536.483-.746c.462-.712.485-.794.525-1.866l.042-1.122h4.08v2.412l-.392.165c-.258.108-.629.494-1.086 1.132l-.695.968.77 1.625c.793 1.673.911 1.806 1.706 1.933.22.034.244.145.276 1.214l.034 1.175h-3.704l-.39-.815a56.107 56.107 0 0 1-1.043-2.444l-.655-1.63-.006 1.033c-.003.729.047 1.103.172 1.268.127.168.178.568.181 1.411l.004 1.177h-4.588v-1.207zm11.71-7.002v-1.57h-.603c-.564 0-.604-.02-.604-.301v-.302h3.139v.295c0 .267-.056.299-.573.332l-.574.037-.067 3.079h-.718zm2.217 1.056c.04-.282.108-1.124.152-1.87l.08-1.359h1.153l.382 1.177.438 1.351c.03.096.257-.42.503-1.147l.448-1.32.555-.037.556-.036.081 1.123c.045.617.115 1.462.156 1.877l.073.755h-.378c-.275 0-.384-.059-.395-.212-.009-.116-.05-.836-.09-1.6l-.075-1.388-1.038 3.214-.382-.037c-.369-.037-.393-.076-.774-1.245-.216-.664-.395-1.302-.397-1.419-.003-.116-.06-.21-.126-.21-.07 0-.12.413-.122.995-.001.548-.035 1.2-.076 1.449-.067.405-.112.453-.435.453-.354 0-.359-.009-.289-.514zm-168.326-6.852c-5.145-.54-7.724-2.46-8.599-6.397-.235-1.058-.259-1.604-.308-7.03-.058-6.283.028-8.082.456-9.625.613-2.207 1.865-3.78 3.737-4.697 4.356-2.134 13.199-1.635 18.478 1.043l1.14.578.063 7.659h-9.42v-1.306c0-1.525-.206-2.367-.691-2.82-.515-.48-.8-.583-1.607-.583-.939 0-1.492.257-1.908.886l-.321.485-.037 7.01c-.025 4.782.005 7.154.094 7.459.3 1.027 1.29 1.64 2.43 1.505.822-.097 1.314-.406 1.678-1.053.287-.51.304-.65.343-2.8l.042-2.264h9.394v9.158l-.332.234c-1.438 1.016-4.063 1.896-6.932 2.325-1.845.277-6.07.404-7.7.233zm27.036-.012c-4.15-.363-6.616-1.676-7.775-4.139-.527-1.118-.772-2.162-.916-3.906-.151-1.826-.153-11.016-.002-12.827.301-3.62 1.465-5.688 3.864-6.863 1.988-.973 3.883-1.282 7.848-1.278 3.215.003 4.87.196 6.69.781 2.87.922 4.513 2.75 5.18 5.765.248 1.122.259 1.463.26 7.993.001 6.596-.007 6.86-.266 8.029-.749 3.386-2.66 5.228-6.26 6.032-2.266.507-5.688.67-8.622.413zm4.2-6.07c.56-.289.977-.916 1.118-1.68.08-.427.112-3.058.09-7.173l-.035-6.499-.31-.6c-.416-.81-.998-1.139-2.018-1.141-.417-.001-.936.072-1.153.162-.512.214-1.007.811-1.168 1.407-.085.315-.116 2.783-.094 7.329.034 6.792.037 6.858.3 7.349.27.506.679.846 1.233 1.027.452.147 1.6.045 2.037-.18zm23.127 6.09c-2.26-.262-4.205-.878-5.517-1.75-.908-.602-2.038-1.837-2.42-2.644-.71-1.502-.712-1.52-.788-9.918-.08-8.842-.004-8.254-1.155-8.817l-.666-.326v-4.803l12.495.063.032 2.38.033 2.38-.348.18c-.192.099-.451.386-.576.638-.215.433-.228.847-.228 7.641 0 6.66.016 7.225.22 7.753.387 1.003 1.338 1.52 2.535 1.38.767-.091 1.356-.47 1.686-1.087.266-.498.268-.535.306-7.563.042-7.902.026-8.124-.651-8.664l-.414-.33v-4.77l11.65.062.033 2.37.032 2.37-.573.286c-.358.178-.666.445-.818.708-.235.408-.246.687-.31 7.908-.073 8.223-.104 8.593-.841 10.14-1.01 2.117-3.622 3.593-7.483 4.226-1.344.22-4.996.33-6.235.187zm18.307-3.175v-2.445l.574-.302c1.047-.551.995-.1.995-8.644v-7.497l-.276-.41c-.152-.226-.505-.537-.784-.691l-.509-.28v-4.814l11.273.063 2.932 6.808c1.613 3.744 2.964 6.84 3.004 6.879.039.04.053-1.64.032-3.73-.044-4.435-.037-4.405-1.133-4.906l-.655-.3V80.84h11.107v4.81l-.503.281c-.276.154-.616.434-.754.621-.251.34-.253.404-.285 11.078l-.032 10.737-9.583-.063-2.963-6.36c-1.63-3.497-3.008-6.403-3.064-6.458-.055-.055-.082 1.422-.06 3.281.048 3.93.066 4.007 1.073 4.448l.592.26.005 4.89H85.695v-2.445zm35.009-.011v-2.456l.452-.138c.724-.22 1.239-.598 1.426-1.046.145-.347.174-1.684.174-8.086 0-7.563-.004-7.67-.24-7.67-.13 0-.459.089-.728.196-.849.34-.898.538-.943 3.82l-.04 2.87-6.802-.065V80.901h27.042v12.434l-6.79.064-.051-2.883c-.044-2.464-.081-2.929-.258-3.2-.275-.419-.686-.676-1.218-.763l-.435-.07v7.772c0 7.502.009 7.785.237 8.16.236.387.857.775 1.483.925l.332.08v4.945h-13.642v-2.456zm22.696-.001v-2.457l.49-.22c.27-.122.609-.388.754-.592l.265-.371V94.58c0-7.606-.003-7.69-.253-8.028-.138-.187-.478-.467-.754-.621l-.502-.281v-4.81h7.152c9.674.002 11.744.144 13.986.962 2.065.754 3.266 2.057 3.814 4.14.247.938.274 3.377.049 4.314-.51 2.112-1.538 3.191-3.995 4.193-.291.118-.283.128.238.27 1.394.382 2.445 1.177 2.89 2.186.275.622.49 2.228.493 3.673.003 1.552.364 2.367 1.205 2.715l.365.151v4.92H158.74l-.123-.456c-.26-.965-.39-2.469-.474-5.453-.083-2.954-.1-3.121-.383-3.691-.395-.794-.829-1.029-2.055-1.113l-.973-.067.037 2.364c.043 2.686.09 2.836 1.04 3.282l.507.239v4.895H143.4v-2.456zm13.715-13.899c1.111-.33 1.498-1.03 1.493-2.707-.005-2.044-.552-2.568-2.864-2.747l-.996-.077v5.71h.883c.486 0 1.154-.08 1.484-.179zm18.88 13.898v-2.46l.523-.2c.693-.264 1.126-.738 1.278-1.402.069-.299.126-1.375.128-2.39l.002-1.849-3.167-5.455c-1.742-3.001-3.303-5.584-3.47-5.74a3.995 3.995 0 0 0-.757-.516l-.452-.231V80.84h11.951v2.415c0 2.383-.003 2.414-.257 2.414-.242 0-.252.04-.175.722.129 1.14.393 1.855 1.046 2.831.334.5.655.938.713.974.18.111 1.22-1.473 1.572-2.39.182-.478.367-1.154.41-1.503.073-.583.06-.634-.166-.634-.239 0-.245-.066-.245-2.414V80.84h10.623v4.902l-.398.143c-.218.08-.568.321-.776.538-.208.216-1.795 2.805-3.526 5.753l-3.147 5.36v2.092c0 2.787.17 3.208 1.481 3.676l.456.162-.033 2.42-.033 2.42-13.58.062zM140.46 80.19c-1.162-.435-1.347-.936-1.345-3.635.002-1.877.024-2.095.266-2.549.402-.756.905-.952 2.449-.952 1.542 0 1.962.184 2.394 1.053.235.471.285.774.302 1.809l.02 1.242-3.2.068v.516c0 .983.679 1.294.897.411l.112-.451h2.251v.826c0 .943-.081 1.062-1.006 1.471-.756.334-2.477.44-3.14.19zm1.807-4.597c.038-.098.018-.328-.044-.513-.152-.458-.643-.47-.801-.018-.062.175-.078.405-.037.513.096.25.788.264.882.018zm-16.29 4.566c-.045-.046-.083-.425-.083-.843 0-.666.034-.779.272-.904.149-.078.311-.203.36-.276.12-.18.117-5.626-.004-5.626-.284 0-.387.359-.387 1.353v1.062h-1.81v-4.346h7.122v4.346h-1.81v-1.062c0-.994-.103-1.353-.387-1.353-.121 0-.125 5.445-.004 5.626.049.073.213.199.366.28.252.132.273.215.241.953l-.035.808-1.879.033c-1.033.018-1.916-.005-1.962-.05zm5.953-.692c0-.665.037-.795.272-.95.267-.177.272-.228.308-3.032l.036-2.852-.308-.308c-.261-.262-.308-.418-.308-1.027v-.72h2.898v2.88l.392-.202c.478-.245 1.509-.263 1.938-.034.612.328.743.84.788 3.067.037 1.841.062 2.04.272 2.171.19.12.231.288.231.96v.817h-1.315c-1.088 0-1.328-.033-1.388-.191-.04-.105-.073-1.16-.073-2.346 0-2.39-.075-2.775-.54-2.775h-.305v1.743c0 1.032.049 1.774.12 1.818.067.041.121.452.121.913v.838h-3.139z" fill="#231f20"/>
    </g>
</svg>
