<svg width="1160.3pt" height="795.747" viewBox="0 0 1160.3 596.81" xmlns="http://www.w3.org/2000/svg">
    <path d="M76.39 0h39.07v104.8l374.2-.05v35.88l-202.82.19c-.02 110.83 0 221.66-.01 332.5.35 20.73-.49 41.78-6.47 61.78-5.18 17.77-14.99 34.75-30.14 45.81-15.85 11.78-36.07 16.11-55.53 15.89-14.06-.36-28.1-2.59-41.52-6.8l6.98-35.52c17.24 4.43 36.08 6.78 53.13.34 12.58-4.64 22.45-15.03 27.68-27.23 4.61-10.46 6.57-21.93 6.82-33.31.08-117.83-.26-235.64-.27-353.46l-132.06.02c.02 79.83 0 159.67.01 239.5.09 14.35-.84 28.99 3.04 42.99 3.13 12.33 10.33 24.16 21.66 30.51 13.71 7.83 30.32 7.91 45.5 5.39 11.11-1.88 21.97-5.16 32.35-9.53l6.98 34.27c-22.13 7.97-45.53 13.89-69.23 12.77-17.16-.8-34.49-6.37-47.59-17.77-13.71-11.71-22.27-28.37-26.94-45.57-3.34-12.37-5.01-25.21-4.84-38.03V140.82l-76.38.01L0 104.8h76.41zM596.57 219.94l14.26-.01.05 64.87c4.72-12.42 16.72-20.96 29.59-23.2 6.97-1.14 14.16-.77 21.1.49 8.79 1.65 17.45 6.17 22.41 13.83 5.67 8.63 6.45 19.34 6.75 29.39.02 24.91 0 49.83.01 74.75l-14.24.02c.02-23.56-.01-47.13.01-70.69-.01-8.26-.56-16.96-4.7-24.3-3.34-6-9.55-10.08-16.22-11.39-9.66-1.89-20.3-.69-28.53 5-8.63 5.74-13.68 15.63-15.41 25.65-1.07 5.6-.8 11.31-.82 16.98v58.75l-14.21-.03c-.05-53.37-.03-106.74-.05-160.11zM873.74 219.92l14.13.01-.01 22.69-14.12.01zM485.08 268.73c11.44-7.39 25.74-9.08 38.99-6.98 10.14 1.72 20.03 6.48 26.79 14.38 5.86 6.85 8.68 15.75 9.81 24.57l-14.16.01c-2.04-8.67-6.13-17.37-13.58-22.65-7.31-4.99-16.67-5.86-25.24-4.74-11.92 1.52-22.16 9.87-27.65 20.34-7.76 14.68-8.84 32.56-3.76 48.29 2.83 8.72 7.87 16.99 15.35 22.46 10.25 7.86 25.13 9.55 36.68 3.61 11-5.54 18-17.33 19.07-29.43h14.19c-1.78 13.63-7.65 27.39-18.93 35.79-10.94 8.44-25.6 10.13-38.92 8.14-14.33-2.13-27.47-10.88-34.99-23.26-9.42-15.33-11.51-34.34-8.4-51.83 2.69-15.46 11.12-30.42 24.75-38.7zM770.08 262.02c13.84-2.55 28.96-.9 40.9 6.96 13.35 8.3 21.61 23.03 24.34 38.27 3.02 16.94 1.22 35.27-7.4 50.4-7.28 12.93-20.51 22.35-35.19 24.73-12.85 2.03-26.7.78-38.08-5.92-13.66-7.6-22.49-21.94-25.66-36.98-3.63-17.2-2.1-35.94 6.29-51.57 7.04-13.19 20.09-23.05 34.8-25.89m3.85 11.62c-11.18 2.12-20.57 10.2-25.78 20.13-6.96 13.22-8.5 29.03-5.04 43.51 2.64 11.1 8.59 21.9 18.31 28.28 8.1 5.65 18.56 7.04 28.13 5.3 11.19-1.99 20.67-9.96 25.94-19.84 7.03-13.07 8.68-28.78 5.39-43.18-2.52-11.22-8.4-22.14-18.07-28.71-8.26-5.9-19.05-7.37-28.88-5.49zM950.36 269.05c11.71-7.76 26.53-9.52 40.18-7.18 10.39 1.9 20.5 7.04 27.08 15.46 5.23 6.69 7.76 15.06 8.86 23.38l-14.19.01c-1.97-8.42-5.86-16.86-12.92-22.19-7.31-5.37-16.94-6.34-25.7-5.24-11.69 1.44-21.84 9.45-27.41 19.62-7.78 14.07-9.21 31.28-4.91 46.68 2.73 9.72 8.05 19.06 16.35 25.04 10.28 7.7 25.09 9.29 36.55 3.31 10.93-5.58 17.81-17.32 18.95-29.36l14.16.01c-1.77 13.34-7.37 26.8-18.23 35.24-11.23 9.07-26.65 10.83-40.5 8.54-14.43-2.38-27.47-11.55-34.77-24.19-8.99-15.38-10.79-34.17-7.61-51.48 2.81-14.99 10.97-29.43 24.11-37.65zM1081.6 268.43c11.43-7.55 25.98-8.86 39.19-6.38 15.64 3.1 28.33 15.42 33.91 30.09 4.2 10.73 5.62 22.39 5.51 33.85-29.73.19-59.47.02-89.21.09.22 10.99 2.77 22.41 9.61 31.26 5.56 7.18 13.68 12.78 22.86 13.83 9.32 1.08 19.48-.06 27.3-5.63 7.7-5.64 12.38-14.51 14.7-23.6 4.72-.01 9.45-.03 14.18.02-2.39 10.33-6.69 20.51-14.13 28.23-6.9 7.46-16.83 11.34-26.76 12.51-12.35 1.37-25.58.53-36.51-5.94-11.42-6.35-18.82-18.15-22.23-30.51-4.51-16.47-4.37-34.33 1.1-50.55 3.72-10.93 10.59-21.07 20.48-27.27m6.55 11.43c-10.6 8.08-15.46 21.41-17.19 34.21 24.98.11 49.96.03 74.94.03-.38-8.44-2.49-16.92-6.99-24.14-5.27-8.6-14.17-15.25-24.27-16.66-9.24-1.44-19.13.66-26.49 6.56zM873.74 264.25l14.12.01.01 115.81-14.13.03z" fill="#fff"/>
    <path d="M493.61 104.76c37.41-.61 75.61 8.01 107.33 28.35 11.25 7.24 21.78 15.78 30.37 26.08-9.3 8.6-18.59 17.21-27.87 25.83-22.77-24.09-54.57-38.89-87.31-42.93-57.64-7.48-118.11 21.59-148.73 70.91-14.3 22.82-21.84 49.49-23.29 76.29-2.13 35.07 5.11 71.4 24.45 101.11 19.29 30.12 49.86 52.34 83.84 63.07 37.01 12.12 78.65 8.56 113.31-9.07 13.98-7.15 27.04-16.34 37.74-27.89 9.27 8.63 18.56 17.24 27.86 25.84-10.52 12.54-23.78 22.56-37.94 30.64-33.39 18.88-72.67 25.83-110.71 23.29-43.38-3.25-86.11-20.17-118.48-49.5-22.5-20.3-39.27-46.7-48.64-75.5-8.98-27.3-11.76-56.38-10.24-84.99 1.66-31.13 9.43-62.26 25.02-89.4 12.66-22.31 30.53-41.52 51.49-56.26 36.497-21.676 74.915-36.066 111.8-35.87z" fill="#8460a0"/>
</svg>
