<svg width="211.67mm" height="80.966mm" version="1.1" viewBox="0 0 211.67 80.966" xmlns="http://www.w3.org/2000/svg">
 <g transform="translate(-63.043 -136.45)">
  <g transform="matrix(.1156 0 0 .11718 149.22 156.34)" stroke-width="1.4868" aria-label="The">
   <path d="m-666.13 41.473q-2.5692 0-3.9966-1.7128-1.1419-1.9983-1.1419-4.5675 0.28547-4.282 1.7128-5.1384t5.4239-0.8564q8.2786 0 12.275-2.8547 3.9966-3.1401 4.853-7.4222 1.1419-4.5675 1.4273-11.704v-136.17h-19.697q-9.7059 0.28547-15.13 4.282-5.1384 3.7111-7.9931 11.419-2.5692 7.4222-4.5675 21.41-0.28546 2.2837-3.4256 3.7111t-6.5658 1.4273q-2.5692 0-4.853-1.4273-1.9983-1.7128-1.9983-4.282l0.85641-40.251q0-6.8512 7.7076-6.8512h139.59q7.4222 0 7.4222 6.8512l1.1419 40.251q0 2.5692-2.2838 4.282-2.2837 1.4273-4.853 1.4273-3.4256 0-6.5658-1.4273-2.8547-1.4273-3.1401-3.7111-2.2838-14.273-4.853-21.696-2.5692-7.4222-7.9931-11.133-5.4239-3.9966-15.13-4.282h-19.412v136.17q0.28547 7.1367 1.1419 11.704 1.1419 4.282 5.1384 7.4222 3.9966 2.8547 12.275 2.8547h1.7128q2.5692 0 3.7111 1.1419 1.4273 0.8564 1.7128 4.853 0 2.5692-1.4273 4.5675-1.1419 1.7128-3.7111 1.7128-18.27-0.8564-33.685-0.8564-17.128 0-35.684 0.8564z" fill="#a88e17"/>
   <path d="m-535.58 41.473q-2.2837 0-3.4256-1.7128-1.1419-1.7128-1.1419-3.9966 0.28546-3.7111 1.4273-4.282 1.4273-0.8564 5.1384-0.8564 7.4222 0 10.562-2.5692 3.1402-2.5692 3.7111-5.9948 0.57093-3.4256 0.57093-10.848v-139.31q0-7.4222-0.57093-10.848-0.28547-3.4256-3.4256-5.9948-3.1402-2.5692-10.562-2.5692-3.4256 0-5.1384-0.8564-1.7128-1.1419-1.7128-4.853 0-1.7128 1.1419-3.1402 1.1419-1.7128 3.4256-1.9983 14.273-1.9983 21.41-4.282 7.4222-2.5692 8.564-2.8547 5.4239-1.9983 7.4222-1.9983 5.4239 0 5.4239 5.4239v91.921h0.57094q8.2786-7.7076 13.417-11.704 5.1384-4.282 13.132-7.1367 8.2786-3.1401 19.412-3.1401 19.412 0 30.831 11.704 11.419 11.704 11.419 30.831v60.805q0 7.4222 0.28547 10.848 0.57094 3.4256 3.7111 5.9948 3.1401 2.5692 10.562 2.5692h1.7128q2.5692 0 3.4256 0.8564 1.1419 0.8564 1.4273 4.282 0 2.2837-1.1419 3.9966-1.1419 1.7128-3.1401 1.7128-16.843-0.8564-29.974-0.8564-13.417 0-29.689 0.8564-2.2838 0-3.4256-1.7128-1.1419-1.7128-1.1419-3.9966 0.28547-3.7111 1.4273-4.282 1.4273-0.8564 5.1384-0.8564 7.4222 0 10.562-2.5692t3.4256-5.7094q0.57094-3.4256 0.57094-11.133v-60.519q0-13.132-8.2786-19.983-7.9931-7.1367-18.841-7.1367-13.132 0-22.837 6.5658-9.4204 6.5658-12.561 13.132v67.941q0 7.4222 0.28547 10.848 0.57093 3.4256 3.7111 5.9948t10.562 2.5692h1.7128q2.5692 0 3.4256 0.8564 1.1419 0.8564 1.4273 4.282 0 2.2837-1.1419 3.9966-1.1419 1.7128-3.1402 1.7128-16.557-0.8564-29.974-0.8564-12.846 0-29.689 0.8564z" stroke="#000"/>
   <path d="m-307.6 44.042q-21.41 0-36.54-9.135-14.844-9.135-22.552-24.836-7.7076-15.701-7.7076-34.827 0-16.843 7.7076-32.258 7.9931-15.701 22.552-25.407 14.559-9.7059 33.4-9.7059 25.407 0 39.109 13.132 13.702 12.846 15.701 34.827 0 9.4204-5.1384 12.846t-14.844 3.4256h-69.369q0 26.549 10.848 42.249 11.133 15.415 34.256 15.415 12.275 0 20.839-5.1384 8.564-5.4239 16.272-17.984 1.4273-1.4273 2.8547-1.4273 1.9983 0 3.4256 1.1419 2.8547 1.7128 2.8547 5.1384 0 1.7128-0.57094 2.5692-8.8495 14.273-22.552 22.267-13.417 7.7076-30.545 7.7076zm8.8495-82.786q14.559 0 15.415-11.99 0-13.132-7.1367-22.267-7.1367-9.135-20.268-9.135-14.559 0-23.979 11.704-9.4204 11.419-10.562 31.687z" stroke="#000"/>
  </g>
  <g transform="matrix(.11716 0 0 .11562 149.22 156.34)" stroke="#000" stroke-width=".54843" aria-label="R E P O R T">
   <path d="m178.77 522.04q-0.94767 0-1.4742-0.63179-0.42119-0.73708-0.42119-1.6848 0.1053-1.5794 0.63178-1.8953 0.52649-0.31589 2.0006-0.31589 3.0536 0 4.5278-1.053 1.4742-1.1583 1.79-2.7377 0.42119-1.6848 0.52648-4.3172v-41.698q-0.10529-2.7377-0.52648-4.3172-0.31589-1.5795-1.79-2.7377-1.4742-1.1583-4.5278-1.1583h-0.63178q-1.053 0-1.4742-0.31589-0.42119-0.42119-0.52649-1.8954 0-0.94767 0.42119-1.5794 0.52649-0.73708 1.4742-0.73708 6.8443 0.31589 12.53 0.31589h18.111q8.1079 0.1053 13.478 2.6324 5.4754 2.4218 8.0026 6.3178 2.5271 3.7907 2.5271 8.2132 0 5.7913-4.6331 10.635-4.5278 4.8437-12.425 6.9496l1.79 2.843q4.4225 7.1602 8.0026 12.32 3.5801 5.0542 7.792 9.4767 2.9483 2.4218 6.3178 2.843 0.2106 0 0.94768 0.10529 0.73708 0 1.1583 0.52649 0.52649 0.52648 0.52649 1.5794 0 0.94767-0.52649 1.6848-0.42118 0.63179-1.3689 0.63179l-2.7377-0.1053q-4.6331-0.2106-6.739-0.2106-4.2119-0.84237-7.2655-2.9483-2.9483-2.2112-5.8966-6.2125-3.0536-4.0013-8.5291-13.057l-1.8953-3.0536q-1.5795-2.4218-3.0536-3.2642-1.4742-0.94767-5.0542-0.94767h-3.0536v17.163q0.10529 2.6324 0.42118 4.3172 0.42119 1.5795 1.8954 2.7377 1.4742 1.053 4.5278 1.053h0.63178q0.94767 0 1.3689 0.42118 0.52649 0.31589 0.63178 1.79 0 0.94767-0.52648 1.6848-0.42119 0.63179-1.3689 0.63179-6.739-0.3159-13.162-0.3159-5.5807 0-12.425 0.3159zm27.272-33.906q15.689 0 15.689-14.742 0-6.0019-4.1066-10.109t-13.478-4.1066q-3.0536 0-4.6331 0.73708-1.5795 0.73708-2.2112 2.5271-0.52648 1.79-0.52648 5.4754v20.217z"/>
   <path d="m305.83 522.04q-0.84237 0-1.3689-0.63179-0.42118-0.73708-0.42118-1.6848 0.10529-1.5794 0.63178-1.8953 0.52648-0.31589 2.0006-0.31589 3.0536 0 4.5278-1.053 1.4742-1.1583 1.79-2.7377 0.42119-1.6848 0.52649-4.3172v-41.803q-0.1053-2.6324-0.52649-4.2119-0.31589-1.6848-1.79-2.7377-1.4742-1.1583-4.5278-1.1583h-0.63178q-1.053 0-1.4742-0.31589-0.42119-0.42119-0.52648-1.8954 0-0.94767 0.42118-1.5794 0.52649-0.73708 1.3689-0.73708 6.9496 0.31589 12.53 0.31589h33.063q2.7377 0 2.7377 2.5271l0.31589 14.742q0 0.94767-0.94768 1.5794-0.94767 0.52649-1.8953 0.52649-1.2636 0-2.2112-0.42119-0.94767-0.52649-1.053-1.4742-0.84237-5.1596-1.8953-7.792-0.94768-2.7377-2.9483-4.0013-1.8954-1.3689-5.4754-1.4742h-14.11v26.745h19.059q0.73708 0.10529 1.1583 0.84237 0.42119 0.63178 0.42119 1.5795 0 0.84237-0.42119 1.4742-0.42119 0.63178-1.1583 0.63178h-19.059v19.901q0.21059 2.2112 0.52648 3.5801 0.31589 1.2636 1.8954 2.3165 1.5794 1.053 4.949 0.94768h9.6873q3.6854-0.1053 5.5807-1.1583 1.8954-1.1583 2.9483-3.4748 1.1583-2.3165 2.7377-7.5814 0.73708-1.8953 3.5801-1.4742 1.053 0.21059 1.79 0.84237 0.84237 0.63178 0.73708 1.5795l-2.1059 13.267q-0.31589 1.3689-0.94768 1.79-0.63178 0.42118-2.1059 0.42118h-34.748q-5.686 0-12.636 0.3159z"/>
   <path d="m424.89 522.04q-0.84237 0-1.3689-0.63179-0.52648-0.73708-0.52648-1.6848 0.1053-1.5794 0.63178-1.8953 0.63178-0.31589 2.1059-0.31589 3.0536 0 4.5278-1.053 1.4742-1.1583 1.79-2.7377 0.42119-1.6848 0.52648-4.3172v-41.803q-0.10529-2.6324-0.52648-4.2119-0.31589-1.6848-1.79-2.7377-1.4742-1.1583-4.5278-1.1583h-0.63178q-1.053 0-1.5795-0.31589-0.42118-0.42119-0.52648-1.8954 0-0.94767 0.52648-1.5794 0.52649-0.73708 1.3689-0.73708 6.8443 0.31589 12.636 0.31589h15.795q9.1608 0 17.69 3.7907 8.6344 3.7907 8.6344 15.163 0 6.3178-3.7907 11.267t-9.8979 7.6867q-6.0019 2.7377-12.53 2.7377-6.0019 0-10.53-1.6848v15.163q0.1053 2.6324 0.42119 4.3172 0.42119 1.5795 1.8953 2.7377 1.4742 1.053 4.5278 1.053h0.63178q1.053 0 1.4742 0.42118 0.52648 0.31589 0.63178 1.79 0 0.94767-0.52649 1.6848-0.42119 0.63179-1.3689 0.63179-6.739-0.3159-13.162-0.3159-5.686 0-12.53 0.3159zm25.482-30.852q3.7907 0 7.792-1.4742 4.1066-1.5795 6.9496-5.2648 2.843-3.7907 2.843-9.8979 0-9.2661-5.8966-12.32-5.8966-3.0536-12.53-3.0536-2.7377 0-4.1066 0.63178-1.3689 0.52649-2.0006 2.2112-0.52649 1.6848-0.52649 5.2648v22.744q2.5271 1.1583 7.4761 1.1583z"/>
   <path d="m575.64 523.83q-10.003 0-17.69-4.7384-7.5814-4.8437-11.793-12.741-4.1066-7.8973-4.1066-16.953 0-11.056 4.949-19.269 5.0543-8.2132 12.846-12.53 7.792-4.4225 15.795-4.4225 10.109 0 17.795 4.8437 7.792 4.7384 11.899 12.636 4.2119 7.792 4.2119 16.848 0 11.056-5.0543 19.375-5.0542 8.2132-12.952 12.636-7.8973 4.3172-15.9 4.3172zm-0.1053-4.6331q7.1602 0 11.899-4.2119 4.8437-4.3172 7.1602-11.477 2.4218-7.2655 2.4218-16.005 0-8.1079-2.4218-14.847-2.4218-6.8443-7.2655-10.846-4.8437-4.1066-11.793-4.1066-10.53 0-15.9 8.9502-5.2648 8.8449-5.2648 22.428 0 8.2132 2.3165 15.057 2.4218 6.8443 7.1602 10.951 4.7384 4.1066 11.688 4.1066z"/>
   <path d="m674.8 522.04q-0.94767 0-1.4742-0.63179-0.42118-0.73708-0.42118-1.6848 0.10529-1.5794 0.63178-1.8953 0.52648-0.31589 2.0006-0.31589 3.0536 0 4.5278-1.053 1.4742-1.1583 1.79-2.7377 0.42119-1.6848 0.52649-4.3172v-41.698q-0.1053-2.7377-0.52649-4.3172-0.31589-1.5795-1.79-2.7377-1.4742-1.1583-4.5278-1.1583h-0.63178q-1.053 0-1.4742-0.31589-0.42119-0.42119-0.52648-1.8954 0-0.94767 0.42118-1.5794 0.52649-0.73708 1.4742-0.73708 6.8443 0.31589 12.53 0.31589h18.111q8.1079 0.1053 13.478 2.6324 5.4754 2.4218 8.0026 6.3178 2.5271 3.7907 2.5271 8.2132 0 5.7913-4.6331 10.635-4.5278 4.8437-12.425 6.9496l1.79 2.843q4.4225 7.1602 8.0026 12.32 3.5801 5.0542 7.792 9.4767 2.9483 2.4218 6.3178 2.843 0.21059 0 0.94767 0.10529 0.73708 0 1.1583 0.52649 0.52648 0.52648 0.52648 1.5794 0 0.94767-0.52648 1.6848-0.42119 0.63179-1.3689 0.63179l-2.7377-0.1053q-4.6331-0.2106-6.739-0.2106-4.2119-0.84237-7.2655-2.9483-2.9483-2.2112-5.8966-6.2125-3.0536-4.0013-8.529-13.057l-1.8954-3.0536q-1.5795-2.4218-3.0536-3.2642-1.4742-0.94767-5.0543-0.94767h-3.0536v17.163q0.10529 2.6324 0.42119 4.3172 0.42118 1.5795 1.8953 2.7377 1.4742 1.053 4.5278 1.053h0.63178q0.94768 0 1.3689 0.42118 0.52648 0.31589 0.63178 1.79 0 0.94767-0.52649 1.6848-0.42119 0.63179-1.3689 0.63179-6.739-0.3159-13.162-0.3159-5.5807 0-12.425 0.3159zm27.272-33.906q15.689 0 15.689-14.742 0-6.0019-4.1066-10.109-4.1066-4.1066-13.478-4.1066-3.0536 0-4.6331 0.73708-1.5795 0.73708-2.2112 2.5271-0.52648 1.79-0.52648 5.4754v20.217z"/>
   <path d="m811.77 522.04q-0.94767 0-1.4742-0.63179-0.42119-0.73708-0.42119-1.6848 0.10529-1.5794 0.63178-1.8953 0.52648-0.31589 2.0006-0.31589 3.0536 0 4.5278-1.053 1.4742-1.1583 1.79-2.7377 0.42119-1.6848 0.52649-4.3172v-50.227h-7.2655q-3.5801 0.1053-5.5807 1.5794-1.8953 1.3689-2.9483 4.2119-0.94768 2.7377-1.6848 7.8973-0.1053 0.84237-1.2636 1.3689-1.1583 0.52648-2.4218 0.52648-0.94767 0-1.79-0.52648-0.73708-0.63178-0.73708-1.5795l0.31589-14.847q0-2.5271 2.843-2.5271h51.49q2.7377 0 2.7377 2.5271l0.42118 14.847q0 0.94768-0.84237 1.5795-0.84238 0.52648-1.79 0.52648-1.2636 0-2.4218-0.52648-1.053-0.52649-1.1583-1.3689-0.84237-5.2648-1.79-8.0026-0.94767-2.7377-2.9483-4.1066-2.0006-1.4742-5.5807-1.5794h-7.1602v50.227q0.1053 2.6324 0.42119 4.3172 0.42119 1.5795 1.8953 2.7377 1.4742 1.053 4.5278 1.053h0.63179q0.94767 0 1.3689 0.42118 0.52648 0.31589 0.63178 1.79 0 0.94767-0.52649 1.6848-0.42118 0.63179-1.3689 0.63179-6.739-0.3159-12.425-0.3159-6.3178 0-13.162 0.3159z"/>
  </g>
  <g transform="matrix(.11577 0 0 .11701 149.22 156.34)" stroke="#000" stroke-width="4.4516" aria-label="AP">
   <path d="m98.055 380.86q-7.6924 0-11.111-5.1283-4.2736-5.983-4.2736-13.675 0.85471-12.821 5.1283-15.385 4.2736-2.5641 10.257-2.5641 5.983 0 7.6924 0 25.641 0 37.607-12.821 11.966-13.675 18.804-29.915 7.6924-17.094 10.257-23.077l149.57-353.85q5.1283-12.821 5.1283-20.513 0-15.385-11.966-22.223-11.966-6.8377-33.334-11.111-14.53-2.5641-17.949-5.1283-3.4188-2.5641-3.4188-14.53 0-10.257 5.1283-13.675 5.983-3.4188 17.949-3.4188 42.736 0 67.522 6.8377 25.641 5.983 44.445 25.641 18.804 18.804 35.043 58.12l143.59 353.85q12.821 32.479 24.787 48.719 11.966 16.24 35.898 17.094h5.1283q8.5471 0 11.966 3.4188 3.4188 2.5641 4.2736 14.53 0 7.6924-4.2736 13.675-3.4188 5.1283-11.111 5.1283-54.702-2.5641-94.018-2.5641-51.283 0-105.98 2.5641-7.6924 0-11.966-5.1283-3.4188-5.983-3.4188-13.675 0.85472-11.966 4.2736-14.53 3.4188-3.4188 11.966-3.4188 29.06 0 41.026-5.1283 11.966-5.983 11.966-20.513 0-11.111-10.257-40.171l-29.06-70.941h-211.11q-21.368 52.992-24.787 61.539-2.5641 8.5471-2.5641 9.4018-10.257 32.479-10.257 41.881 0 14.53 12.821 19.658 12.821 4.2736 48.719 4.2736h5.1283q8.5471 0 11.966 3.4188 3.4188 2.5641 4.2736 14.53 0 7.6924-4.2736 13.675-3.4188 5.1283-11.111 5.1283-54.702-2.5641-93.164-2.5641-27.351 0-82.907 2.5641zm162.4-210.26h179.49l-86.326-219.66h-2.5641z"/>
   <path d="m637.29 380.86q-6.8377 0-11.111-5.1283-4.2736-5.983-4.2736-13.675 0.85471-12.821 5.1283-15.385 5.1283-2.5641 17.094-2.5641 24.787 0 36.753-8.5471 11.966-9.4018 14.53-22.223 3.4188-13.675 4.2736-35.043v-339.32q-0.85471-21.368-4.2736-34.188-2.5641-13.675-14.53-22.223-11.966-9.4018-36.753-9.4018h-5.1283q-8.5471 0-12.821-2.5641-3.4188-3.4188-4.2736-15.385 0-7.6924 4.2736-12.821 4.2736-5.983 11.111-5.983 55.556 2.5641 102.57 2.5641h128.21q74.36 0 143.59 30.77 70.086 30.77 70.086 123.08 0 51.283-30.77 91.454-30.77 40.171-80.343 62.394-48.719 22.223-101.71 22.223-48.719 0-85.471-13.675v123.08q0.85471 21.368 3.4188 35.043 3.4188 12.821 15.385 22.223 11.966 8.5471 36.753 8.5471h5.1283q8.5471 0 11.966 3.4188 4.2736 2.5641 5.1283 14.53 0 7.6924-4.2736 13.675-3.4188 5.1283-11.111 5.1283-54.702-2.5641-106.84-2.5641-46.154 0-101.71 2.5641zm206.84-250.43q30.77 0 63.249-11.966 33.334-12.821 56.411-42.736 23.077-30.77 23.077-80.343 0-75.215-47.864-100-47.864-24.787-101.71-24.787-22.223 0-33.334 5.1283-11.111 4.2736-16.24 17.949-4.2736 13.675-4.2736 42.736v184.62q20.513 9.4018 60.685 9.4018z"/>
  </g>
  <path d="m161.79 136.77c-5.3563 0.25137-10.336 0.37705-14.939 0.37705h-7.1558l-24.731 61.083h-0.37657l-13.959-31.363h-13.307l21.617 48.958c0.50216 0.8379 1.3809 1.2568 2.6363 1.2568 1.3391 0 2.176-0.41894 2.5107-1.2568l25.861-63.973h0.37662v49.897c-0.0837 2.0947-0.29295 3.8124-0.62773 5.1531-0.25107 1.2568-0.96247 2.3461-2.1342 3.2678-1.1717 0.83789-2.9711 1.2568-5.3982 1.2568-1.1717 0-1.9668 0.12567-2.3852 0.37704-0.41847 0.25137-0.66956 1.0055-0.75326 2.2623 0 0.75411 0.16738 1.4244 0.50215 2.0109 0.41847 0.50273 1.0043 0.75409 1.7576 0.75409 5.44-0.25137 10.587-0.37705 15.441-0.37705 4.6868 0 9.7083 0.12568 15.065 0.37705 0.75323 0 1.2972-0.25136 1.632-0.75409 0.41846-0.58653 0.62767-1.2568 0.62767-2.0109-0.0837-1.173-0.33473-1.8853-0.75319-2.1366-0.33477-0.33516-0.87879-0.50275-1.632-0.50275h-0.75325c-2.4271 0-4.2264-0.41895-5.3982-1.2568-1.1717-0.92169-1.9249-2.0109-2.2597-3.2678-0.25108-1.3406-0.41852-3.0583-0.50221-5.1531v-49.897c0.0837-2.0947 0.25113-3.7705 0.50221-5.0274 0.33477-1.3406 1.088-2.4299 2.2597-3.2678 1.1717-0.92169 2.9711-1.3826 5.3982-1.3826 1.088 0 1.8412-0.12567 2.2597-0.37704 0.50216-0.25137 0.79508-1.0055 0.87878-2.2623 0-0.75411-0.20921-1.3825-0.62767-1.8852-0.33477-0.58653-0.87879-0.8798-1.632-0.8798zm-87.2 30.097-0.17556 34.882c-0.08369 2.2623-0.25107 4.0219-0.50215 5.2788-0.25108 1.1731-0.96247 2.2204-2.1342 3.1421-1.088 0.83789-2.8455 1.2568-5.2726 1.2568-1.1717 0-1.9668 0.12567-2.3853 0.37704s-0.6695 1.0055-0.75319 2.2623c0 0.75411 0.16738 1.4244 0.50215 2.0109 0.41846 0.50273 1.0043 0.75409 1.7575 0.75409 5.44-0.25137 9.5828-0.37705 12.428-0.37705 1.6739 0 4.4358 0.0838 8.2856 0.25141l3.1385 0.12564c0.75323 0 1.2973-0.25136 1.632-0.75409 0.41846-0.58653 0.62767-1.2568 0.62767-2.0109-0.08369-1.173-0.33479-1.8853-0.75325-2.1366-0.33477-0.33516-0.92062-0.50275-1.7575-0.50275h-0.75325c-2.4271 0-4.2265-0.41895-5.3982-1.2568-1.088-0.92169-1.7576-1.969-2.0086-3.1421-0.25108-1.2568-0.41845-3.0164-0.50215-5.2788l-0.1755-34.882z" fill="#a88e17" stroke="#a88e17" stroke-width=".65422"/>
 </g>
</svg>
