<svg xmlns="http://www.w3.org/2000/svg" height="269.696" width="600" viewBox="0 0 158.75 71.357">
    <g fill="#ee3a43">
        <path d="M38.536 13.912c-.108 0-.236.01-.236.13 0 .19.177.22.314.23.118 0 .256-.05.236-.2-.029-.17-.206-.13-.314-.16M3.255 29.972c-.02-.12.078-.31-.118-.25-.266.06-.207.34-.256.53-.039.14.01.39.157.34.286-.09.118-.42.217-.62m53.551 3.81c-.099.58-.168 1.15.196 1.67.138-.57.108-1.13-.196-1.67m.098-.7c-.089-.54-.01-1.11-.315-1.63-.678.74.197 1.1.315 1.63m-22.429-19.37c.806.19 1.622.34 2.32-.32-.747.32-1.543.27-2.32.32M24.17 66.662c.708 1.09 1.691.72 2.576.76-.826-.24-1.652-.49-2.576-.76M5.359 23.242c-.787.71-1.436 3.04-1.101 3.87.334-.64.049-1.36.364-1.98.295-.6.501-1.26.737-1.89m25.487 45.1c-.934-.24-1.858-.49-2.832-.43.905.43 1.839.61 2.832.43m.561-53.72c.078.05.118.1.157.11.325.09 1.691-.46 1.859-.75.049-.09.068-.18-.02-.27-.138-.11-.964-.09-1.033.05-.186.42-.55.61-.963.86m-23.993 3.49c-.324.08-.324.08-.403.18-.728.84-.875 1.91-1.131 2.96a.6.6 0 0 0 .02.23c.029.12.108.16.226.1.216-.1.855-1.34.836-1.64-.177-.05-.207.24-.462.18.767-.51.363-1.44.914-2.01m35.989-2.92c.04.2.177.2.276.23.196.06.186.24.137.37-.069.18-.216.03-.324.01-.079-.02-.197-.07-.207-.12-.137-.79-.806-.85-1.386-1.05-.403-.15-.757-.3-.866.37-.059-.51-.432-.66-.757-.84-.452-.25-.659.31-1.052.31-.364 0-.049.22-.079.36-.147.02-.304-.18-.462.03.63.33 1.308.44 1.987.55.049.01.127.02.137 0 .276-.42.423-.06.571.09.295.31.619.52 1.052.6.57.12 1.229.19 1.661.53.738.57 1.613.31 2.37.64-.118-.32-.511-.36-.501-.82 0-.33-.836-.56-1.2-.44-.098.03-.177.05-.216-.1-.118-.43-.58-.71-1.141-.72M2.37 34.422l.157.05c.216-.73.708-1.45.305-2.22-.197-.38-.157-.74-.256-1.09 0-.03-.049-.04-.088-.07-.079.11-.167.22-.325.41.069-.27.108-.43.148-.59.049-.13.137-.28-.01-.47-.059.09-.108.14-.118.2-.334 1.18-.452 2.39-.452 3.62 0 .09.009.24.059.27.363.21.216.52.118.74-.551 1.13-.345 2.28-.197 3.45.088.72.442 1.43.413 2.11-.069 1.62.836 2.85 1.416 4.2.01.02.059.01.118.01.01-.52-.354-.94-.374-1.47.167.1.099.32.276.4.147-.21.127-.42.098-.63-.098-.53-.216-1.06-.334-1.59-.02-.12.029-.28-.227-.27-.147.01-.324-.31-.108-.5.148-.12.128-.23.138-.38.039-.51-.069-1.02-.108-1.53-.01-.12.01-.34-.158-.3-.216.04-.088.24-.059.36.079.31.138.59-.275.74-.059-.37-.285-.76-.059-1.1.207-.31.275-.62.325-.96.137-.91-.04-1.81-.01-2.72 0-.12.01-.24-.138-.28-.197-.05-.334.03-.433.29-.009-.39 0-.69.118-.98.02.11.03.21.04.3m48.064-13.11c.216.41.157.89.383 1.27.158.26.148.36-.137.52-.571.3-.522.31-.138.83.413.57.964.97 1.544 1.41.118-.51-.649-.79-.315-1.3.639.15.639.15.934.72.099.2.207.48.472.44.472-.08.462.2.502.51.108.97.59 1.81 1.062 2.65.059.08.118.24.305.17.039-.02-.01-.23.127-.07.04.06.069.15 0 .18-.442.22-.196.62-.216.93-.02.4.492.89.885.92.148 0 .226-.08.216-.22 0-.54.128-1.08-.088-1.64-.305-.8-.757-1.55-1.003-2.4-.118-.41-.354-.81-.649-1.18-.138.24.098.4-.03.6-.403-.5-.708-1.04-1.022-1.57-.089-.16.01-.37.098-.35.266.06.236-.09.108-.16-.354-.19-.354-.57-.55-.85a22.419 22.419 0 0 0-3.373-3.74c-.079-.07-.138-.21-.285-.13-.02.14.049.23.128.31.796.89 1.415 1.95 2.438 2.63.354.23.62.56.816 1.04-.432-.21-.757-.38-1.249-.38.472.33.404.89.767 1.21-.953-.52-.875-1.76-1.73-2.35m-40.335 37.99c.531.25 1.081.36 1.455.81.285.33.541.71.934.94.138.09.295.23.452.16.413-.2.639.06.826.32 1.043 1.49 2.508 2.43 4.052 3.27.285.15.599.31.963.28-.039-.25-.334-.22-.413-.44.413.16.787.32.767.84.865.64 1.672 1.43 2.911 1.09.098-.03.216-.02.246-.14a.196.196 0 0 0-.109-.21c-.649-.3-1.071-.92-1.72-1.22-1.121-.51-2.134-1.2-3.216-1.76-.649-.33-1.17-.9-1.75-1.36-.403-.32-.816-.61-1.219-.92-.02.02-.04.05-.069.08.167.2.324.4.491.6-.983-.54-1.789-1.27-2.536-2.05-.118-.12-.227-.27-.109-.45.118-.15.148-.18.03-.24-.541-.29-.787-.84-1.17-1.27a31 31 0 0 1-4.7-7.02c-.089-.17-.128-.37-.354-.51.009.46.157.86.344 1.24.305.62.717 1.2.953 1.84.354.94.984 1.67 1.643 2.38.609.66 1.298 1.26 1.809 2.17-.59-.4-1.062-.75-1.662-.89.669.56.826 1.49 1.514 2.01-1.602-1.01-1.996-2.94-3.205-4.28.531.9.57 1.99 1.249 2.79-.187.14-.512-.03-.502.41.01.12-.295.18-.069.45.689.79 1.367 1.57 2.193 2.21.452.35.993.57 1.436.95-.118-.5-.443-.77-.846-.98-.128-.07-.393-.13-.344-.22.187-.39-.216-.52-.275-.88m39.656-10.91c-.019.22-.049.45-.068.68 0 .15.049.26.236.21.294-.07.943-1.06.796-1.32-.285-.53.265-.93.128-1.42-.03-.11.147-.16.236-.23.373-.32.816-.62.885-1.15.078-.61.305-1.15.6-1.67.049-.08.019-.22.167-.21.167.02.088.15.098.23.02.14.03.4.207.27.393-.29.924-.51 1.071-1.03.315-1.12.659-2.24.817-3.41.009-.12.029-.23-.059-.32-.266-.32-.276-.7-.276-1.08 0-.7.059-1.41-.078-2.12.649.13.639.13.776.49.099.28.089.53-.147.72-.167.14-.334.28-.167.48.196.24.265-.13.423-.15.029-.01.059-.01.167-.02-.158.4-.128.77-.049 1.16.118.58.511 1.13.334 1.77-.059.25.128.23.265.07.118-.12.305-.26.305.02.01.66-.137 1.4-.629 1.75-.423.31-.472.52-.334.96-.699-.47-.817-.4-.925.38-.049.35-.285.66-.541.87-.344.27-.452.9-.098 1.19.079.05.197.16.256.07.364-.51.413.04.639.2 1.357-2.85 2.33-5.76 1.898-9.03-.403.34-.413.86-.728 1.22.157-.5.079-.89-.364-1.19-.01 0-.01-.03-.01-.05-.009-.92-.521-1.73-.639-2.63-.01-.11-.049-.38-.226-.31-.59.27-.265-.17-.275-.33-.02-.61-.089-1.24-.423-1.75-.236-.35-.226-.62.069-.85.344-.26.295-.55.137-.86-.108-.25-.236-.49-.432-.66-.462-.39-.698-.88-.689-1.47 0-.43-.196-.66-.639-.74-.403-.07-.757-.43-.629-.76.177-.47-.108-.68-.305-.94-.344-.47-.747-.89-1.111-1.33-.295-.37-.875-.64-.442-1.26.009-.02 0-.07-.01-.1-.413-.75-.276-1.73-1.161-2.32-.403-.26-.521-.11-.57.11-.128.5-.423.3-.688.24-.128-.03-.246-.09-.364-.14-.049-.02-.039-.06.029-.1.109.02.246.04.394.07-.049-.24-.315-.4-.226-.57.304-.57-.158-.7-.482-.86-.177-.08-.325-.15-.285-.31.039-.18.265-.16.403-.17.118-.01.246.08.373.13.295.11.581.22.885.32.118.04.276.07.335-.1.059-.12-.059-.2-.148-.28a1.34 1.34 0 0 0-.875-.31c-.246-.01-.501-.04-.708-.18-.354-.24-.59-.73-1.15-.45-.03.01-.118-.1-.177-.16-.325-.26-1.623-.35-2.026-.11.285.15.58.26.836.42.255.17.472.4.708.59-.03.06-.059.12-.079.18-.521-.39-1.16-.4-1.711-.7-.029-.01-.049-.04-.069-.06-.55-.53-1.091-1.05-1.956-.92-.099.02-.236-.03-.325-.08-.413-.23-.826-.21-1.249-.08-.255.08-.482.03-.619-.18-.305-.48-.826-.63-1.298-.76-.983-.28-1.977-.11-2.911.3-.088-.23.138-.24.167-.36-.658-.2-1.288-.51-2.006-.45-.206.02-.432.11-.619-.13-.098-.13-.374-.01-.433.12-.128.25-.049.63-.482.69-.049.01.05.13.109.18.147.09.285.22.206.4-.098.21-.315.14-.491.1-.325-.06-.64-.23-1.013-.11.069-.73.845-.41 1.101-.82 0-.14-.344-.03-.187-.25.079-.12.158-.21.089-.35-.079-.18-.236-.14-.384-.14-.236.02-.472.08-.619.28-.256.35-.708.51-.905.92-.059.13-.187.14-.334.14-.531-.01-.767.28-.649.79.039.17.069.38-.069.47-.482.29-.669.9-1.269 1.08-.442.13-.835.39-1.268.56-1.091.45-2.094 1.01-2.881 1.93-.226.26-.57.44-1.013.06.462.1.325-.38.57-.43.374-.07.6-.31.817-.59.068-.08.157-.17.245-.12.463.32.295-.09.315-.27.03-.18.728-.66.767-.56.226.51.305 0 .413-.05.167-.08.295-.25.462-.3.443-.11.777-.38 1.092-.71.196-.2.452-.31.767-.26.354.05.58-.1.629-.49.088-.67.177-1.35.295-2.01.069-.41-.02-.51-.423-.37-1.229.44-2.468.86-3.668 1.38-.098.05-.206.17-.373.06.118-.27.324-.59.56-.48.305.16.462.02.669-.09.373-.17.737-.35 1.121-.53.423-.18.826-.39 1.199-.68.05-.04.158-.08.118-.18-.029-.09-.127-.12-.206-.11-.108.01-.226.04-.334.08-1.092.41-2.183.84-3.216 1.41-.246.14-.482.33-.452.6.029.34-.167.4-.393.52-.384.2-.866.26-1.121.67-.305.5-.728.9-.994 1.42-.108.21-.285.33-.58.38-.491.08-1.052.31-1.18.8-.137.58-.59.81-.924 1.16-.157.17-.403.28-.521.46-.157.26-.325.33-.62.34-.295 0-.649.09-.403.54.217.4-.039.63-.305.84-.344.29-.629.64-.57 1.11.089.67-.138 1.24-.452 1.82-.236.46-.433.93-.639 1.4-.069.16-.109.31-.305.35-.403.11-.787.27-.669.8.089.38-.098.87.197 1.14.314.3.118.46-.02.66-.138.19-.315.34-.492.49-.501.42-.639.97-.471 1.57.108.43.009.81-.099 1.21-.206.78-.226 1.56-.019 2.34.049.18.176.36.088.57-.147.01-.167-.26-.324-.16-.109.08-.05.21-.03.32.108.82.354 1.58.846 2.25.147.2.265.4.137.66-.216-.11-.314-.5-.531-.37-.285.17.158.4.059.67-.403-.23-.354.01-.265.27.118.42.098.9.59 1.11-.128.63.482.98.6 1.52.029.12.078.28.245.26.158-.03.04-.23.148-.32.157.11.305.29.275.44-.098.61.266 1.07.462 1.59.04.12.128.25.059.38-.127.23.01.41.128.58.856 1.22 1.701 2.45 2.852 3.42.216.18.364.46.344.69-.039.32.157.42.325.59.609.58 1.445.78 2.005 1.48.708.9 1.692 1.55 2.655 2.19 1.003.65 2.095 1.04 3.235 1.33.817.2 1.643.36 2.478.53-.147.1-.393.1-.383.29.01.24.275.18.433.25.088.04.196.03.295.03.521.02 1.052-.12 1.524.3.206.18.57.13.865.1.344-.05.688-.13 1.032-.18.364-.05.728-.19 1.22-.09-.571.19-1.052.35-1.564.51.305.39.679.42 1.052.44 4.474.14 8.654-.88 12.518-3.14 1.17-.69 2.301-1.43 2.94-2.7.167-.35.364-.68.59-1.01.197-.27.393-.59.482-.98-.256.03-.393.14-.482.31-.403.71-1.101 1.22-1.406 2.02-.039.12-.098.32-.295.25-.334-.12-.708-.09-.974.12-.835.68-1.652 1.39-2.714 1.73-.334.09-.619.6-1.022.1-.039-.06-.157.1-.266-.02.63-.37 1.111-.95 1.849-1.12.295-.07.521-.28.757-.47.167-.13.216-.31.049-.45-.098-.09-.206-.13-.049-.24.138-.09.354-.33.443-.18.255.41.472.03.678.02.266-.03.492-.17.325-.54-.04-.06.088-.29.177-.32.245-.06.383-.27.609-.37.571-.27.777-.65.718-1.25-.029-.2.02-.33.148-.48.344-.45.904-.68 1.13-1.23M0 32.242c.737-.82.855-1.81.806-2.85-.019-.38-.019-.76.128-1.13.01.55-.187 1.09.03 1.64.826-2.3 1.219-4.72 1.711-7.15.245.11.118.34.275.35.138.02.167-.14.226-.23.767-1.2 1.632-2.33 2.242-3.62.049-.09.069-.18.236-.2.256-.03.629-.67.59-.92-.01-.01-.01-.04-.02-.04-.747-.45.069-.73.118-1.08.01-.03.01-.06.02-.13-.206-.02-.315.16-.462.22-.128.06-.266.11-.374-.01-.098-.1 0-.22.049-.32.276-.54.738-.94 1.2-1.3.374-.3.639-.64.905-1.06.167.57-.128.97-.423 1.36-.285.37-.531.78-.718 1.24.226.01.265-.22.433-.24.078.11-.01.2-.01.3 0 .12.01.23.128.29.147.07.216-.05.285-.13.413-.52.845-1.03.983-1.7 0-.02 0-.04.01-.05.344-.62.58-1.28.806-1.96.04-.13.148-.31.266-.35.59-.2.737-.82 1.14-1.2.109-.09.109-.251 0-.349-.472-.413-.186-.767.089-1.112.128-.157.236-.354.521-.442-.138 1.18-.098 2.323-.108 3.633 1.74-1.64 3.402-3.171 5.388-4.292-.717.708-1.583 1.229-2.33 1.898-.659.604-1.298 1.204-1.809 2.044.462-.05.688-.29.914-.51.777-.74 1.564-1.455 2.468-2.045.285-.177.63-.345.659-.748.128.089.256.069.374-.01.6-.373 1.219-.737 1.77-1.189.088-.069.206-.168.216-.256.059-.708.639-.826 1.131-.983 1.406-.453 2.576-1.318 3.815-2.075.767-.462 1.564-.698 2.448-.669.669.02 1.367-.019 1.928-.354.983-.59 2.035-.511 3.087-.541.148-.009.305.01.453-.009.56-.069 1.101-.227 1.632.236.265.236.728.226 1.032-.148.384-.482.895-.305 1.348-.206.944.196 1.878.245 2.792-.069.816-.295 1.603-.099 2.39.039 1.189.216 2.35.521 3.5.875a.903.903 0 0 1 .541.394c.344.531.826.865 1.504.885.413.009.817.147 1.23.186.255.02.599.345.786-.147 0-.01.167.049.266.079.619.236 1.052.727 1.455 1.219.639.767 1.406 1.347 2.36 1.652.747.236 1.318.727 1.878 1.249 1.052.993 2.114 1.975 3.314 2.795.226.14.501.25.619.53-.177.13-.295-.08-.511 0 .246.27.472.55.728.78.914.86 1.848 1.71 2.832 2.49.304.25.521.54.688.96-.344-.13-.541-.51-.964-.46.148.44.6.61.748 1.02-.109.11-.227-.07-.463.03.679.55.708 1.52 1.534 1.9.138.07.207.17.236.29.256 1.14 1.259 1.86 1.613 3.06.206-.35.049-.55.069-.77.236.41.57.76.56 1.31-.01.46.236.88.374 1.33.147.47.433.94.413 1.41-.069 1.58.757 2.96.964 4.49.206 1.51.472 3.02.599 4.56.05.56.05 1.14-.334 1.63-.069.11-.059.29-.059.43.01.73 0 1.46.049 2.19.108 1.51-.364 2.91-.826 4.31-.314.98-.698 1.92-.934 2.91-.01.04 0 .07-.02.1-.118.21-.393.38-.285.65.108.26.403.37.63.55 1.711 1.29 3.657 2.17 5.496 3.24.846.49 1.672.99 2.557 1.51-.197.17-.433-.04-.59.21.334.29.688.57 1.111.75.187.08.364.16.541.26.609.33 1.17.7 1.681 1.23.693.71 1.623 1.18 2.433 1.78.82.6 1.5 1.33 1.86 2.31-.62-.79-1.25-1.54-2.2-2.12.06.46.26.75.46 1.04.8 1.09 1.36 2.3 1.37 3.66.02 1.56-.36 3.07-1.3 4.34-1.45 1.95-3.4 3.01-5.897 2.82-1.623-.12-3.009-.86-4.297-1.77-1.583-1.11-3.117-2.3-4.691-3.41-1.278-.89-2.674-1.52-4.188-1.94-.561-.15-1.072-.56-1.652-.76-.197-.07-.374-.21-.63-.14.079.27.276.39.502.5.747.34 1.534.59 2.202 1.07.502.36 1.121.34 1.652.6.187.09.443.1.266.43-.039.07.039.15.098.21.443.39.787.86 1.318 1.17 1.052.62 2.094 1.27 3.048 2.03.452.36.875.78 1.347 1.12.246.19.502.32.787.41.324.09.639.19.501.65-.049.16.128.22.246.27.256.11.511.2.856.35-.374.02-.64-.09-.895-.21-.856-.42-1.75-.79-2.547-1.31-.56-.36-.993-.91-1.544-1.3-.236-.18-.491-.34-.737-.5-.148-.11-.344-.06-.472-.01-.158.07.157.18.019.34-.363-.17-.678-.43-1.003-.67-.059-.05-.167-.14-.059-.17.472-.14.099-.25 0-.36-.236-.23-.462-.47-.708-.7-.216-.2-.226-.11-.57-.11-.344.01-.718-.15-.983-.4a8.786 8.786 0 0 0-2.203-1.52.732.732 0 0 0-.718.02c-.354.18-.59.04-.816-.19-.196-.21-.373-.39-.649-.11.089-.22.187-.45.266-.69.029-.06.069-.15-.01-.22-.069-.07-.157-.05-.226.01-.453.43-1.111.72-1.042 1.51.019.19-.069.31-.236.4-.364.18-.64.49-.856.81-.246.4-.57.6-1.013.77-1.317.52-2.596 1.15-3.717 2.04-.334.28-.658.52-1.121.57-.462.05-.865.32-1.268.54-.216.11-.413.18-.639.03.177-.11.364-.21.541-.32.108-.07.285-.13.236-.28-.05-.16-.217-.08-.345-.07-1.15.07-2.251.24-3.363.6-1.858.58-3.775.92-5.722 1.15-.325.04-.62.11-.915.3-.423.26-.944.27-1.435.31-1.584.14-3.167.04-4.75.07.02-.51.295-.62.708-.66.708-.07 1.396-.14 2.036.33.186.14.501.08.776-.06-.098-.29-.452-.2-.639-.54 1.416.34 2.616-.15 3.874-.55-.137-.2-.295-.1-.403-.17.738-.1 1.485-.11 2.223-.37-.168-.29-.384-.14-.561-.18-.118-.03-.246-.01-.256-.16-.009-.16.138-.1.217-.14.344-.16.777-.04 1.081-.34.492.16.954-.06 1.426-.08.354-.01.767-.21 1.062-.02.443.31.738.09 1.062-.12.108-.07.177-.25.325-.16.137.08.098.19.009.32-.108.16.089.18.177.22a.71.71 0 0 0 .708-.07c.679-.48 1.574-.38 2.242-.85.079-.05.128-.08.187.03.128.21.285.08.433.03.364-.13.649-.39.934-.64.187-.18.443-.41.256-.67-.187-.29-.394.05-.6.09-.02 0-.049-.02-.079-.03-.295-.27.177-.4.138-.65-.502.21-.974.41-1.436.62-2.202.92-4.503 1.51-6.834 1.98-1.721.23-3.431.48-5.152.67-.649.07-1.318.01-1.987.09.669.48 1.466.43 2.223.64-.108.16-.256.23-.433.15-.56-.23-1.052-.1-1.524.22-.089.06-.226.06-.334.06-1.062.04-2.114.09-3.176.11-.738.02-1.485.03-2.213-.15-.177-.05-.383-.11-.56 0-.03.2.255.17.226.38-.246.02-.472-.05-.698-.14a20.253 20.253 0 0 0-4.189-1.11c-.551-.09-1.013-.38-1.19-.93-.118-.38-.344-.58-.698-.69-.856-.3-1.691-.67-2.567-.89-1.121-.27-1.868-1.03-2.645-1.76-.295-.29-.58-.45-.963-.48-.866-.09-1.593-.43-2.134-1.12-.049-.06-.433-.2-.03-.36.059-.02-.127-.18-.226-.27-.836-.75-1.701-1.47-2.527-2.23-.905-.85-1.75-1.75-2.468-2.78-.098-.13-.266-.25-.03-.46.158-.14.03-.38-.049-.56-.226-.57-.472-1.13-.698-1.69-.118-.32-.275-.62-.324-.94-.099-.63-.335-1.18-.797-1.64-.216-.22-.147-.65-.462-.86-.059.29-.816.27-.295.83-.629-.53-1.131-1.11-1.524-1.93.383.23.452.58.718.8.049-.21-.079-.36-.108-.52-.069-.29-.315-.62.118-.85.108-.06.059-.22.019-.33-.187-.46-.255-.96-.59-1.36-.236-.27-.059-.6-.137-.86.629.31.796 1 1.13 1.55.187.29.364.59.561.88.118.16.236.46.472.32.226-.13 0-.36-.069-.53-.197-.47-.501-.88-.826-1.28-.511-.63-.924-1.29-.885-2.14 0-.05 0-.12-.02-.14-.688-.64-.717-1.57-1.081-2.35-.374-.81-.649-1.66-1.082-2.45-.01-.02-.049-.03-.147-.1.334 1.34.413 2.65.619 4.02-.324-.41-.413-.82-.492-1.25-.118-.64-.393-1.24-.472-1.87-.147-1.11-.147-2.23-.078-3.35.039-.61 0-1.22-.207-1.8-.118-.33-.068-.66-.039-.99.088-1.07-.059-2.1-.295-3.13v-.2zM158.751 35.312c-.12 1.26-.68 2.43-.62 3.74.06 1.17-.01 2.35-.06 3.52-.03.72.03 1.42.3 2.09.12.32.08.57-.22.76-.34.23-.46.59-.52.98-.04.27-.16.46-.47.45-.21 0-.36.06-.39.29-.03.17-.16.21-.29.24-.36.06-.61.21-.86.51-.2.26-.57.2-.86.02-.25-.14-.49-.23-.72 0-.17.15-.31.05-.45-.01-.45-.19-.87-.35-1.38-.22-.47.13-.9-.06-1.28-.39-.74-.64-1.31-1.39-1.64-2.32-.2-.55-.43-.64-.92-.3-1.47 1.01-3.08 1.73-4.68 2.48-.49.24-.96.49-1.55.28-.31-.11-.57.19-.84.34-.58.32-1.21.26-1.83.28-1.82.03-3.64.16-5.43-.27-.59-.14-1.18-.31-1.75-.52-.39-.15-.84-.25-.99-.74-.01-.05-.13-.09-.2-.11-.98-.28-1.5-1.05-1.91-1.89-.26-.53-.38-1.18-.77-1.6-1.43-1.59-1.55-3.59-1.89-5.52-.5-2.82-.79-5.68-.94-8.56-.19-4.22-.31-8.45-.11-12.68.15-2.97.55-5.891 1.37-8.742.42-1.475 1.12-2.832 2.64-3.471 2.06-.875 4.1-.659 5.95.55 1.37.895 1.7 2.331 1.53 3.894-.14 1.357-.59 2.636-.87 3.959-.03.14-.09.24-.18.35-.19.23-.33.51-.3.81.12 1.54-.26 3.03-.31 4.55-.06 1.87-.22 3.72-.29 5.59-.09 2.66-.19 5.32-.22 7.98-.03 1.21.21 2.36.43 3.53.27 1.47.49 2.96.96 4.39.15.47.33.94.62 1.35.33.47.77.64 1.33.54.87-.14 1.64-.53 2.36-.98 2.31-1.45 4.29-3.26 5.81-5.53.35-.53.64-1.09.79-1.71.17-.78.56-1.45 1.12-2.01.73-.72 1.03-1.57 1.03-2.62-.02-4.08-.15-8.16-.63-12.21-.06-.52-.04-1.08-.42-1.51-.06-.06-.06-.19-.05-.27.1-1.17-.13-2.31-.26-3.465-.05-.512-.08-1.023-.02-1.534.14-1.219 1.11-2.016 2.52-2.173.96-.108 1.87.177 2.78.354.33.069.64.108.97-.049.31-.158.58.059.75.304.15.197.27.423.37.649.19.472.5.787 1.04.866.4.049.54.403.63.747.26.973.38 1.981.51 2.971.48 3.74.67 7.5.92 11.26.12 1.9.25 3.78.29 5.69.01.22.01.42.1.63v4.46zM119.901 24.572c.28-.23.24-.43.1-.64-.05-.07-.16-.12-.21-.03-.11.23.01.42.11.67m-2.72-4.81c0-.13-.05-.24-.18-.27-.14-.02-.2.08-.21.2-.02.15.02.28.18.29.14.01.18-.1.21-.22m3.73 3.46c-.15-.05-.33-.06-.36.17-.02.14.12.25.21.18.16-.11.46-.02.47-.27.01-.21-.19-.1-.32-.08m-5.39 7.97c.19-.25.17-.51.15-.76-.01-.14-.1-.2-.23-.19-.17.02-.18.14-.14.26.06.22.14.46.22.69m-.39 3.9c.18-.48.18-.96.41-1.38.03-.06.01-.14-.06-.15-.04-.02-.1-.01-.14.01-.3.21-.45 1.08-.21 1.52m1.19-6.91c-.05-1.19-.04-2.35-.31-3.48-.03 1.51-.22 3.02.12 4.54.25-.07.15-.3.29-.38.11.27-.06.59.28.91.03-1.84 0-3.56-.26-5.29-.24 1.22.05 2.45-.12 3.7m-2.9 7.02c.34-.15.38-.42.4-.71.04-.61.04-1.27.39-1.76.24-.33.31-.6.29-.96 0-.13.04-.27.05-.4.04-.59.39-1.09.47-1.68.29-2.04.3-4.11.35-6.17 0-.1-.01-.21-.04-.3-.06-.15.03-.39-.15-.44-.2-.06-.22.19-.3.32-.11.16-.25.26-.42.22-.19-.05-.1-.25-.11-.38-.03-.63.08-1.26-.15-1.87-.06-.14.01-.23.09-.31.23-.26.22-.56.17-.88-.1-.71-.51-1.37-.36-2.13.07-.42.05-.84-.33-1.17-.13-.1-.21-.31-.22-.48-.07-1.28-.76-2.22-1.58-3.11-.17-.17-.41-.34-.29-.67.05-.13-.07-.21-.21-.17-.13.03-.24.01-.37-.06-.55-.28-1.16-.11-1.52.4-.24.33-.38.7-.48 1.08-.15.48-.27.96-.5 1.4-.28.59-.68.75-1.29.46a9.48 9.48 0 0 1-1.1-.56c-.17-.11-.35-.17-.48.01-.47.68-1.31.67-1.95 1.04-.36.21-.58.43-.76.75-.34.61-.57 1.26-.78 1.93-.67 2.27-1.06 4.6-1.24 6.96-.1 1.33-.34 2.68-.18 4 .38 3.3 1.37 6.41 2.95 9.34.29.56.67 1.07 1.11 1.52.8.83 1.81.94 2.79.34.41-.25.75-.6 1.08-.94.74-.76 1.24-1.71 1.96-2.49.18-.19.33-.39.59-.09.15.17.26.05.34-.11.5-1.05 1.27-1.97 1.53-3.15.05-.26.12-.52.35-.83.1.75-.25 1.36-.1 2.05m2.74-28.617c-.2.118-.43-.029-.73.177.26.236.52.433.75.659 2.59 2.497 4.02 5.601 4.72 9.081.03.17.03.25-.16.34-.28.14-.23.42.04.45.33.03.3.24.33.42.08.62.2 1.25.19 1.87-.01 1.23.16 2.44.34 3.64.03.2.09.41-.17.49-.35.12-.41.4-.42.71l-.12 3.67c-.01.41-.07.82-.07 1.24.01.36-.45.38-.48.73-.02.25-.2.39.17.56.33.15.38.63.55.97.08.14-.01.35.24.44.13.05.01.18-.07.22-.14.09-.3.14-.42.2-.13-.09-.05-.2-.08-.29-.02-.07-.05-.13-.13-.13-.09 0-.1.08-.12.14-.28.83-.27 1.73-.55 2.57.37-.38.52-.87.83-1.28-.25 1.1-.62 2.17-.85 3.29-.23-.63.03-1.36-.36-1.94-.48.3-.62.82-.39 1.43.02.06-.01.16-.03.23-.09.29-.27.57.07.84.13.1 0 .32-.06.46-.35 1.02-.95 1.89-1.58 2.74-1.66 2.25-3.55 4.26-5.96 5.74-.25.15-.53.28-.79.39-.26.1-.53.17-.79.26.02.22.24.07.3.2-.06.09-.17.08-.26.09-.9.07-1.8.04-2.67.24-.82.19-1.62-.15-2.42.07-.37.1-.75-.08-1.12-.18-1.68-.45-3.29-1.09-4.86-1.81-.66-.29-1.07-.87-1.57-1.35-.64-.64-1.26-1.32-1.87-1.98-.06-.06-.15-.11-.18-.18-.57-1.54-1.78-2.7-2.41-4.24-1.27-3.07-1.82-6.19-1.57-9.52.31-4.26 1.07-8.41 2.46-12.44 1.01-2.91 2.44-5.569 4.66-7.742 1.91-1.878 4.2-2.901 6.89-2.96 2.41-.059 4.83-.108 7.23.246 1.07.157 2.1.531 3.11.934.15.059.32.118.38.305"/>
        <path d="M75.215 49.772c.079-.41.148-.74.197-1.09.019-.13.059-.31-.138-.36-.157-.04-.246.06-.305.2-.078.17-.177.28-.354.07-.118-.15-.265-.1-.393-.01-.364.23-.501.02-.58-.3a2.046 2.046 0 0 1-.079-.73c.03-.31-.108-.43-.413-.37l-.531.09c-.55.11-.659.01-.56-.55.098-.55.206-1.1.491-1.61.059-.09.158-.24.05-.3-.423-.25-.197-.56-.148-.88.354-2.28.846-4.54 1.288-6.8.511-2.56 1.023-5.11 1.701-7.63.187-.67.453-1.3.207-2.01-.069-.17-.099-.36-.305-.42-1.298-.38-2.035-1.47-2.911-2.38-2.212-2.29-4.395-4.62-6.627-6.89-.62-.63-1.357-1.16-1.957-1.83a4.117 4.117 0 0 1-1.091-2.59.66.66 0 0 1 .009-.24c.158-.88 1.78-2.245 2.665-2.255.875 0 1.751 0 2.626.01.344 0 .698-.01 1.003.206a.554.554 0 0 0 .373.089c.61-.148 1.062.138 1.574.413 2.045 1.097 3.559 2.767 4.995 4.537.541.66 1.109 1.3 1.799 1.82.52.4.58.38.89-.18.88-1.64 1.39-3.42 1.97-5.17.59-1.774 1.16-3.554 1.85-5.285.38-.973.9-1.878 1.47-2.753.32-.501.93-.718 1.51-.57.21.049.39-.039.58-.118.55-.236 1.11-.216 1.69-.098.84.177 1.68.344 2.53.491.27.04.49.128.65.384.24.413.62.6 1.09.511.47-.088.54.148.57.541.06 1.327-.28 2.556-.87 3.727-.22.442-.44.885-.7 1.307-1.39 2.243-1.85 4.823-2.7 7.263-1.23 3.57-2.21 7.22-2.99 10.91-.67 3.19-1.17 6.43-2.01 9.59-.24.85-.66 1.7-.49 2.6.26 1.35-.2 2.55-.61 3.78-.1.27-.21.55-.57.63-.17.03-.22.22-.31.36-.3.55-.48 1.15-.63 1.76-.29 1.26-.98 2.18-2.29 2.56-.33.1-.46.09-.47-.32-.01-.35.24-.74-.09-1.07.05-.05.11-.09.15-.15.06-.07.06-.18.01-.27s-.15-.12-.22-.08c-.49.31-.79-.14-1.091-.33-.266-.18-.364-.18-.482.07-.118.26-.217.53-.443.71-.049.05-.059.1-.039.18.108.51.098.52-.541.83M40.428 2.032c.305-.147.668.01 1.032-.285-.836-.265-1.632-.324-2.419-.452-.57-.098-1.15-.118-1.701-.305-.256-.079-.521-.01-.787.02-2.399.275-4.641 1.15-6.902 1.907-.797.266-1.564.63-2.429.659-.295.01-.58.01-.315-.432-.668-.02-1.16.717-1.868.226-.039-.079.108-.089.167-.128 1.583-1.023 3.206-1.967 4.936-2.744a5.436 5.436 0 0 1 2.105-.481c1.121-.03 2.251-.01 3.372-.01.049 0 .108-.01.148.01 1.691.639 3.52.383 5.241.826.364.098.757.088 1.131.137.186.03.295.187.236.384-.05.196.118.177.206.206.216.069.443.118.659.187.088.03.216.069.167.197-.039.137-.147.078-.236.049-.226-.059-.452-.108-.669-.177-.354-.108-.678-.167-.904.226-.089.148-.236.148-.393.118-.256-.049-.522-.088-.777-.138M52.452 5.498c-.079.019-.158.049-.286.078.433.394.915.62 1.436.738.207.049.492.019.207-.285-.177-.197.068-.246.078-.374.02-.167.177-.059.266-.02.609.276 1.14.669 1.671 1.062.187.138.177.295.089.472-.128.266-.118.649-.551.679a1.173 1.173 0 0 1-.659-.148 120.678 120.678 0 0 1-4.179-2.409c.649-.01 1.279.177 1.928.207M19.853 3.896c-.138.491-.344.904-.885 1.081-.295.099-.551.315-.846.404-.118.029-.334.462-.481-.03-.02-.088-.197.03-.286.098-.767.61-1.563 1.17-2.448 1.583-.315.148-.531.443-.767.699-.492.531-1.013 1.042-1.642 1.406-.403.226-.875.334-1.111.904-.138-.501 0-.757.265-1.003a24.923 24.923 0 0 1 5.025-3.5c.895-.462 1.79-.974 2.724-1.357.167-.069.354-.108.452-.285z"/>
        <path d="M40.721 2.757c-.374.197-.757.108-1.121.079-.61-.049-1.259 0-1.81-.226-1.307-.522-2.654.059-3.952-.217-.109-.019-.276.059-.295-.088-.01-.177.147-.187.285-.187 1.435.039 2.851-.305 4.287-.246.206.01.393.03.59.167.482.335 1.032.492 1.613.541.137.02.295 0 .403.177M52.277 4.596c-.817-.01-1.574-.108-2.213-.688-.521-.472-1.219-.64-1.868-.866a42.716 42.716 0 0 0-1.898-.57c-.315-.079-.6-.177-.669-.58.571.137 1.23.147 1.692.442.452.295.904.502 1.396.659.354.118.708.246 1.111.128.197-.059.364.118.541.206.669.364 1.327.748 1.908 1.269M19.855 3.898c.816-.256 1.563-.679 2.33-1.043.541-.255 1.112-.393 1.692-.511.196-.029.354.03.521.108.295.138.265.325.039.472-.324.217-.678.384-1.101.354.265-.108.521-.216.777-.344.088-.039.186-.118.137-.226-.049-.148-.177-.118-.285-.069-.137.049-.285.108-.364.246-.108.197-.295.265-.491.265-.826.02-1.544.345-2.183.797-.413.295-.718.02-1.072-.049M16.997 6.006c-.118.265-.265.462-.029.708.138.147.029.285-.079.383-.324.315-.56.718-1.15.649-.364-.039-.757.197-1.19.246.816-.668 1.632-1.327 2.448-1.986M18.022 7.424c1.21-.659 2.35-1.387 3.727-1.652-.246.226-.502.452-.757.678-.069.069-.128.168-.246.128-.669-.196-1.121.285-1.623.561-.334.177-.629.462-1.101.285M43.326 3.13c.63.118 1.239.265 1.898.098.423-.118.512.089.335.679-.59-.374-1.289-.423-1.938-.64-.108-.029-.236 0-.295-.137zM76.045 70.572c-.993.47-1.967 1.02-3.245.68.492-.03.865-.04 1.229-.08.364-.03.708-.03.984-.42.196-.27.688-.02 1.032-.18M16.86 9.676c.01-.315-.217-.256-.403-.246a4.07 4.07 0 0 1 1.455-.777c-.256.442-.688.698-1.052 1.023M73.412 70.502c-1.033.09-1.908-.36-2.763-.85.904.34 1.809.68 2.763.85M46.055 5.113c.6.207 1.101.374 1.613.541-.531-.098-1.249.364-1.613-.541M1.584 46.052c.256.57.521 1.14.797 1.74-.404-.15-.728-.85-.797-1.74M4.449 19.532c.443-.44.492-1.18 1.249-1.56-.393.65-.727 1.17-1.249 1.56M45.556 3.909c.796-.04 1.484.324 2.212.55-.383.138-.718-.049-1.052-.157-.393-.128-.738-.364-1.16-.393M43.721 2.567c-.482-.098-.915-.029-1.308-.226.423-.01.875-.216 1.308.226M2.333 48.592c.138.39.266.79.404 1.19-.246-.37-.502-.72-.531-1.16l.127-.03M119.781 37.232c.09.29.03.51.31.49.14-.01.15.11.13.21-.03.11-.13.15-.23.19-.11.04-.2-.02-.21-.13-.01-.2 0-.39 0-.76"/>
        <path d="M43.327 3.131c-.481-.04-1.003.167-1.553-.256l1.553.256M35.996 34.612c-.039.8-.197 1.72-.384 2.65-.206 1.02-.127 2.07-.403 3.09-.196.74-.423.92-1.18.91-.875-.01-1.18-.37-1.052-1.25.118-.85.364-1.67.6-2.5.236-.82.354-1.66.344-2.53-.02-1.08-1.003-1.3-1.73-1.12-.925.2-1.475.8-1.751 1.7-.255.84-.314 1.72-.393 2.58-.069.8-.138 1.59-.334 2.35-.177.67-.699.93-1.515.76-.619-.13-.855-.47-.718-1.18.236-1.3.669-2.55.915-3.84.344-1.82.669-3.63.806-5.48.03-.41.079-.83.226-1.22.286-.75 1.279-1.02 1.879-.48.403.36.265.86.177 1.31-.109.5-.305.97-.404 1.47-.118.61.05.78.649.67.345-.06.669-.2.984-.34.649-.25 1.307-.26 1.927.04 1.17.59 1.357.91 1.357 2.41M42.292 35.812c.443.01.915 0 1.387-.13.648-.2.776-.48.462-1.09a1.048 1.048 0 0 0-.659-.56c-.856-.28-1.662-.16-2.399.34-.207.15-.354.34-.472.56-.187.32-.118.54.236.7.452.2.934.18 1.445.18m-.757 5.47c-.492-.03-.974.03-1.475-.13-1.76-.55-2.35-2.37-2.114-3.83.167-1.06.413-2.09.993-2.99.855-1.31 2.065-2.09 3.658-2.23 1.288-.11 2.33.27 3.176 1.27.61.72.846 2.54.423 3.39-.226.46-.639.51-1.052.51-.541 0-1.082-.04-1.623-.11-.816-.1-1.622-.08-2.429-.06-.432 0-.934-.01-1.14.5-.197.5.059 1.16.501 1.51.639.5 1.869.53 2.577.05.324-.22.629-.48.953-.71.502-.33 1.229-.36 1.485-.09.246.29.059 1.14-.354 1.55-1.003.95-2.163 1.5-3.579 1.37M21.847 39.392c.069-1.1.393-2.04.6-3.01.069-.34.138-.68.187-1.03.078-.65.069-1.25-.453-1.79-.344-.34-.275-.78.059-1.16.079-.08.158-.17.256-.23.561-.35.856-.8.865-1.5.01-.66.797-1.35 1.456-1.42.59-.06.885.21.816.79-.039.32-.059.64-.157.93-.177.52-.01.88.442 1.12.443.23.649.54.551 1.04-.108.49-.433.8-1.003.86-.462.06-.698.27-.787.73-.197 1.1-.403 2.18-.511 3.28-.04.43.069.74.393.99.207.17.423.33.61.51.55.57.354 1.41-.394 1.67-.767.25-1.534.17-2.251-.18-.728-.37-.541-1.1-.679-1.6M17.015 26.982c.069.2-.01.4.167.51.158-.01.158-.16.236-.25.954-1.1 1.259-2.44 1.446-3.84.098-.73.314-1.46.777-2.06.157-.23.363-.64.737-.15.167.22.275-.07.305-.16.069-.26.236-.27.442-.2.256.08.079.27.05.39-.217.86-.384 1.74-.443 2.63-.02.38-.138.74-.433.98-.442.37-.826.82-1.239 1.22-.462.44-.816 1.08-1.052 1.74-.069.2-.098.49-.452.32-.069-.04-.118 0-.167.05-.108.11-.138.39-.344.23-.148-.11.039-.27.098-.39.098-.21.01-.35-.148-.47-.216-.15-.167-.32.02-.55M15.303 31.642c.285.21.217.55.453.74.127.1-.059.1-.089.15-.157.24-.098.48.03.7.127.22.275.18.413 0 .137.12.472.01.432.34-.029.29.118.68-.334.76-.905.15-1.249-.14-1.21-1.06.02-.54.168-1.07.305-1.63M16.37 26.892c-.206-.46-.01-.72.138-1 .088-.17.167-.36.285-.51.088-.1.029-.48.364-.22.069.04.187-.2.216-.35.098-.39.266-.74.61-.98.059-.04.078-.16.187-.1.078.05.088.15.039.22-.443.56-.561 1.25-.777 1.89-.02.08-.079.19-.138.2-.432.1-.688.4-.924.85M16.657 32.572c-.324-.43-.531-.76-.137-1.22.324-.38.186-.92.295-1.38.059-.25.127-.47.491-.4-.049.29-.039.59-.255.85-.168.21-.207.54-.089.76.305.56-.108.91-.305 1.39M24.948 19.192c.01-.24.05-.44-.098-.63-.138-.19-.079-.37.069-.53.147-.18.275-.1.423-.02.226.12.482.04.777.09-.345.44-.944.56-1.171 1.09M23.958 17.752c-.609.3-1.101.78-1.868 1.04.187-.4.167-.76.678-.68.217.03.443-.19.62-.36.167-.18.344-.24.57 0M16.149 27.372c-.177.63-.502 1.22-.108 1.88-.433 0-.61-.1-.423-.51.167-.36.295-.73.285-1.13-.01-.12.049-.19.246-.24M40.539 56.432c.324-.36.619-.76 1.121-.89-.423.25-.669.7-1.121.89M46.333 19.592c-.442.1-.668-.12-1.012-.34.432-.03.688.12 1.012.34M14.117 29.932c-.098-.18-.334-.35-.127-.59.039-.05.196-.07.216-.04.167.22-.049.42-.089.63M42.157 56.172c.344-.12.689-.24 1.023-.36-.266.33-.629.38-1.023.36"/>
    </g>
</svg>
