<svg class="logo-epg" version="1.1" viewBox="0 0 719.87 800" xmlns="http://www.w3.org/2000/svg">
 <defs>
  <style>.cls-logo-epg-1 {fill: #007fd5;}.cls-logo-epg-2 {fill: #fff;}</style>
 </defs>
 <g transform="matrix(2.0567 0 0 2.0567 .010747 0)">
  <path d="m107.9 0h-24.47c-1.99 0-3.5 1.42-3.5 3.15v16.52c0 1.76 1.52 3.17 3.5 3.17h24.47c1.96 0 3.51-1.4 3.51-3.17v-16.52c0-1.73-1.56-3.15-3.51-3.15z"/>
  <path d="m107.69 32.84h-24.14c-1.98 0-3.54 1.42-3.54 3.16v106c0 1.75 1.56 3.17 3.54 3.17h24.14c1.93 0 3.46-1.42 3.46-3.17v-106c0-1.74-1.53-3.16-3.46-3.16z"/>
  <path d="m239.14 32.84h-24.99s-3.68-0.07-4.88 3.16v-0.06l-24.03 66.3-24.3-66.42c-1.25-3.07-4.81-2.99-4.81-2.99h-25.05c-4 0.11-2.76 3.19-2.76 3.19l43.43 106.02c1.24 3.15 4.85 3.12 4.85 3.12h17.27s3.65 0.03 4.87-3.17v0.05l43.19-106.02s1.2-3.08-2.8-3.19z"/>
  <path d="m51.72 32.76h-18.55v-26.76c0-1.73-1.59-3.15-3.53-3.15h-24.13c-1.95 0-3.52 1.42-3.52 3.15v107.02c0 15.98 10.79 32.15 36.21 32.15h9.86v-0.05h3.66c1.94 0 3.46-1.39 3.46-3.14v-17.42c0-1.73-1.52-3.15-3.46-3.15h-7.79c-7.43 0-10.77-3.65-10.77-10.13v-57.19h18.55c1.94 0 3.46-1.42 3.46-3.15v-15.02c0-1.78-1.52-3.17-3.46-3.17z"/>
  <path d="m291.02 22.3s1.11 1.89 3.8 1.93h17.28s2.61 0.1 1.7-2.84l-5.31-17.52c-0.77-2.46-2.95-2.42-2.95-2.42h-25.24s-4.51-0.03-1.86 3.57z"/>
  <path d="m349.62 70.09v-34.04c0-1.73-1.59-3.15-3.51-3.15h-24.4c-1.89 0-3.47 1.42-3.47 3.15v34.04h-0.07v35.02c0 10.4-5.86 16-16.04 16s-15.77-5.6-15.77-16v-69.06c0-1.73-1.57-3.15-3.52-3.15h-24.37c-1.9 0-3.49 1.42-3.49 3.15v69.68c0 24.57 21.2 40.35 47.14 40.35s47.5-15.79 47.5-40.35v-35.64h-0.01z"/>
  <path class="cls-logo-epg-1" d="m333.54 388.97h-330.01c-2.12 0-3.76-1.86-3.51-3.96l12.93-105.29c0.22-1.77 1.72-3.1 3.51-3.1h330.01c2.12 0 3.76 1.86 3.51 3.96l-12.93 105.29c-0.22 1.77-1.72 3.1-3.51 3.1z"/>
  <path class="cls-logo-epg-2" d="m58.2 354.85c-2.55 0-4.89-0.64-7.01-1.92s-3.78-2.92-4.98-4.94v6.24h-3.77v-45.12h4.2v19.65c1.44-2.18 3.17-3.95 5.19-5.28 2.02-1.34 4.37-2.01 7.05-2.01 2.27 0 4.3 0.47 6.09 1.42s3.32 2.22 4.57 3.8c1.26 1.59 2.22 3.38 2.9 5.38s1.02 4.05 1.02 6.15c0 2.27-0.39 4.41-1.17 6.43s-1.85 3.78-3.21 5.28c-1.36 1.51-2.98 2.7-4.85 3.59-1.88 0.88-3.88 1.33-6.03 1.33zm-0.99-3.71c1.77 0 3.39-0.36 4.85-1.08s2.72-1.69 3.77-2.91c1.05-1.21 1.87-2.6 2.47-4.14 0.6-1.55 0.9-3.14 0.9-4.79s-0.28-3.32-0.83-4.88c-0.56-1.57-1.34-2.96-2.35-4.17-1.01-1.22-2.23-2.18-3.65-2.91-1.42-0.72-2.98-1.08-4.67-1.08-1.28 0-2.47 0.22-3.58 0.65s-2.14 1.02-3.09 1.76-1.79 1.6-2.53 2.56c-0.74 0.97-1.36 1.99-1.85 3.06v10.01c0.16 1.11 0.61 2.15 1.33 3.12s1.59 1.8 2.6 2.5 2.1 1.26 3.28 1.67c1.17 0.41 2.3 0.62 3.37 0.62z"/>
  <path class="cls-logo-epg-2" d="m80.25 364.12c0.33 0.04 0.65 0.07 0.96 0.09s0.61 0.03 0.9 0.03c0.74 0 1.33-0.1 1.76-0.31s0.85-0.66 1.27-1.36c0.41-0.7 0.88-1.71 1.39-3.03s1.25-3.09 2.19-5.31l-14.03-32.2h4.33l11.93 28.31 11.06-28.31h4.02l-16.69 41.53c-0.45 1.2-1.2 2.23-2.26 3.12-1.05 0.88-2.48 1.33-4.3 1.33-0.41 0-0.8-0.01-1.17-0.03s-0.82-0.07-1.36-0.15z"/>
  <path class="cls-logo-epg-2" d="m146.19 352.56c-1.11 0.49-2.47 0.99-4.08 1.48s-3.3 0.74-5.07 0.74c-1.15 0-2.23-0.14-3.24-0.43s-1.9-0.75-2.66-1.39-1.37-1.46-1.82-2.47-0.68-2.23-0.68-3.68v-18.6h-4.26v-6.36h4.26v-10.51h8.28v10.51h6.8v6.36h-6.8v15.82c0 1.16 0.3 1.97 0.9 2.44s1.33 0.71 2.19 0.71 1.71-0.14 2.53-0.43 1.48-0.53 1.98-0.74z"/>
  <path class="cls-logo-epg-2" d="m149.73 317.34v-8.22h8.28v8.22zm0 36.89v-32.38h8.28v32.38z"/>
  <path class="cls-logo-epg-2" d="m173.45 354.23-11.93-32.38h8.53l8.22 25.65 8.28-25.65h7.79l-11.93 32.38z"/>
  <path class="cls-logo-epg-2" d="m207.9 354.85c-3.34 0-5.87-1.07-7.6-3.21s-2.6-5.32-2.6-9.52v-20.27h8.28v18.48c0 4.99 1.79 7.48 5.38 7.48 1.61 0 3.16-0.48 4.67-1.45 1.5-0.97 2.73-2.44 3.68-4.42v-20.09h8.28v22.87c0 0.86 0.16 1.48 0.46 1.85 0.31 0.37 0.81 0.58 1.52 0.62v7.05c-0.83 0.16-1.52 0.27-2.07 0.31-0.56 0.04-1.06 0.06-1.51 0.06-1.48 0-2.69-0.34-3.61-1.02-0.93-0.68-1.47-1.62-1.64-2.81l-0.19-2.6c-1.44 2.22-3.3 3.89-5.56 5.01-2.27 1.11-4.76 1.67-7.48 1.67zm-2.97-45.73h7.66l3.4 7.35-5.32 1.61-5.75-8.96z"/>
  <path class="cls-logo-epg-2" d="m246.98 354.85c-2.51 0-4.96-0.41-7.35-1.23s-4.45-2.02-6.18-3.59l1.92-2.84c1.81 1.48 3.66 2.6 5.53 3.34s3.88 1.11 6.03 1.11c2.6 0 4.67-0.53 6.21-1.58 1.55-1.05 2.32-2.54 2.32-4.48 0-0.91-0.21-1.66-0.62-2.26s-1.02-1.12-1.82-1.58c-0.8-0.45-1.81-0.85-3.03-1.21-1.22-0.35-2.63-0.71-4.23-1.08-1.86-0.45-3.46-0.91-4.82-1.36s-2.48-0.97-3.37-1.55-1.55-1.29-1.98-2.13-0.65-1.91-0.65-3.18c0-1.61 0.32-3.03 0.96-4.26 0.64-1.24 1.5-2.26 2.6-3.06 1.09-0.8 2.37-1.41 3.83-1.82s3.02-0.62 4.67-0.62c2.47 0 4.72 0.4 6.74 1.21 2.02 0.8 3.65 1.86 4.88 3.18l-2.04 2.47c-1.2-1.24-2.65-2.16-4.36-2.78s-3.49-0.93-5.35-0.93c-1.11 0-2.14 0.11-3.09 0.34s-1.78 0.59-2.5 1.08-1.29 1.12-1.7 1.88-0.62 1.66-0.62 2.69c0 0.87 0.14 1.57 0.43 2.1s0.76 1 1.42 1.39 1.49 0.74 2.5 1.05 2.23 0.63 3.68 0.96c2.06 0.49 3.87 0.99 5.44 1.48s2.87 1.07 3.92 1.73 1.84 1.46 2.38 2.41c0.53 0.95 0.8 2.1 0.8 3.46 0 2.97-1.13 5.32-3.4 7.05s-5.32 2.6-9.15 2.6z"/>
  <path class="cls-logo-epg-2" d="m274.32 354.85c-1.52 0-2.93-0.26-4.23-0.77s-2.43-1.22-3.4-2.13-1.72-1.97-2.26-3.18-0.8-2.52-0.8-3.92 0.33-2.7 0.99-3.89 1.59-2.22 2.78-3.09c1.2-0.86 2.62-1.53 4.26-2.01 1.65-0.47 3.46-0.71 5.44-0.71 1.65 0 3.32 0.14 5.01 0.43s3.19 0.7 4.51 1.24v-2.9c0-2.84-0.8-5.1-2.41-6.77s-3.83-2.5-6.67-2.5c-1.65 0-3.34 0.33-5.07 0.99s-3.48 1.61-5.25 2.84l-1.48-2.78c4.16-2.8 8.2-4.2 12.11-4.2s7.21 1.13 9.52 3.4 3.46 5.4 3.46 9.39v14.52c0 1.15 0.52 1.73 1.55 1.73v3.71c-0.7 0.12-1.23 0.19-1.61 0.19-1.07 0-1.91-0.27-2.5-0.8-0.6-0.54-0.92-1.28-0.96-2.23l-0.12-2.53c-1.48 1.94-3.35 3.42-5.59 4.45-2.25 1.03-4.67 1.55-7.26 1.55zm0.99-3.21c2.18 0 4.19-0.41 6.03-1.24 1.83-0.82 3.22-1.92 4.17-3.28 0.37-0.37 0.65-0.77 0.83-1.2s0.28-0.83 0.28-1.21v-5.25c-1.4-0.53-2.85-0.95-4.36-1.24-1.5-0.29-3.04-0.43-4.6-0.43-2.97 0-5.38 0.62-7.23 1.85-1.85 1.24-2.78 2.86-2.78 4.88 0 0.99 0.19 1.92 0.59 2.78 0.39 0.87 0.93 1.62 1.61 2.26s1.49 1.14 2.44 1.51 1.96 0.56 3.03 0.56z"/>
  <path class="cls-logo-epg-2" d="m314.03 352.69c-0.25 0.12-0.61 0.29-1.08 0.49-0.47 0.21-1.02 0.41-1.64 0.62s-1.32 0.39-2.1 0.56c-0.78 0.16-1.61 0.25-2.47 0.25s-1.77-0.12-2.6-0.37-1.55-0.63-2.16-1.14c-0.62-0.52-1.11-1.16-1.48-1.95-0.37-0.78-0.56-1.69-0.56-2.72v-23.05h-4.45v-3.34h4.45v-10.88h4.2v10.88h7.41v3.34h-7.41v21.88c0.08 1.2 0.5 2.07 1.27 2.63 0.76 0.56 1.64 0.83 2.63 0.83 1.19 0 2.25-0.19 3.15-0.59 0.91-0.39 1.48-0.67 1.73-0.83l1.11 3.4z"/>
  <path d="m112.52 182.11h4.34v39.07c0 1.23 0.34 2.2 1.02 2.9s1.64 1.05 2.87 1.05c0.47 0 1.02-0.06 1.66-0.19s1.23-0.3 1.79-0.51l0.77 3.51c-0.81 0.34-1.8 0.62-2.97 0.83s-2.18 0.32-3.03 0.32c-2 0-3.57-0.56-4.72-1.69s-1.72-2.71-1.72-4.76v-40.54z"/>
  <path d="m138.06 229.35c-1.57 0-3.03-0.27-4.37-0.8s-2.51-1.27-3.51-2.2-1.78-2.03-2.33-3.29c-0.55-1.25-0.83-2.61-0.83-4.05s0.34-2.79 1.02-4.02 1.64-2.3 2.87-3.19 2.7-1.58 4.41-2.07c1.7-0.49 3.57-0.73 5.62-0.73 1.7 0 3.43 0.15 5.17 0.45 1.75 0.3 3.3 0.72 4.66 1.28v-3c0-2.94-0.83-5.27-2.49-6.99s-3.96-2.59-6.89-2.59c-1.7 0-3.45 0.34-5.24 1.02s-3.6 1.66-5.43 2.94l-1.53-2.87c4.3-2.89 8.47-4.34 12.51-4.34s7.45 1.17 9.83 3.51 3.58 5.58 3.58 9.7v15c0 1.19 0.53 1.79 1.6 1.79v3.83c-0.72 0.13-1.28 0.19-1.66 0.19-1.11 0-1.97-0.28-2.58-0.83-0.62-0.55-0.95-1.32-0.99-2.3l-0.13-2.62c-1.53 2-3.46 3.53-5.78 4.6-2.32 1.06-4.82 1.6-7.5 1.6zm1.02-3.32c2.26 0 4.33-0.43 6.22-1.28s3.33-1.98 4.31-3.38c0.38-0.38 0.67-0.8 0.86-1.24 0.19-0.45 0.29-0.86 0.29-1.24v-5.43c-1.45-0.55-2.95-0.98-4.5-1.28s-3.14-0.45-4.76-0.45c-3.06 0-5.55 0.64-7.47 1.92s-2.87 2.96-2.87 5.04c0 1.02 0.2 1.98 0.61 2.87 0.4 0.89 0.96 1.67 1.66 2.33s1.54 1.18 2.52 1.56 2.02 0.57 3.13 0.57z"/>
  <path d="m192.96 228.9c-2.26 0-4.3-0.45-6.13-1.34s-3.42-2.12-4.76-3.67-2.37-3.35-3.1-5.39-1.08-4.21-1.08-6.51c0-2.43 0.38-4.68 1.15-6.77 0.77-2.08 1.83-3.92 3.19-5.49s3-2.81 4.91-3.7c1.92-0.89 4.02-1.34 6.32-1.34 2.59 0 4.87 0.59 6.83 1.76s3.57 2.73 4.85 4.69v-5.87h7.47v31.85c0 2.47-0.47 4.68-1.41 6.64s-2.22 3.62-3.86 4.98-3.6 2.4-5.87 3.13-4.76 1.09-7.44 1.09c-3.66 0-6.74-0.61-9.23-1.82s-4.63-2.93-6.41-5.14l4.66-4.53c1.28 1.57 2.88 2.81 4.82 3.7s3.99 1.34 6.16 1.34c1.32 0 2.58-0.18 3.8-0.54s2.29-0.93 3.22-1.69c0.94-0.77 1.67-1.75 2.2-2.94s0.8-2.6 0.8-4.21v-4.21c-1.11 1.91-2.66 3.39-4.66 4.44-2 1.04-4.15 1.56-6.45 1.56zm2.87-6.83c0.94 0 1.83-0.15 2.68-0.45s1.64-0.7 2.36-1.21 1.36-1.11 1.92-1.79c0.55-0.68 0.98-1.4 1.28-2.17v-7.98c-0.77-1.96-1.97-3.53-3.61-4.72s-3.35-1.79-5.14-1.79c-1.32 0-2.51 0.29-3.58 0.86-1.06 0.57-1.98 1.34-2.74 2.3-0.77 0.96-1.35 2.05-1.76 3.29-0.41 1.23-0.61 2.51-0.61 3.83s0.23 2.64 0.7 3.83 1.12 2.23 1.95 3.13c0.83 0.89 1.8 1.6 2.91 2.11s2.32 0.77 3.64 0.77z"/>
  <path d="m230.56 229.35c-3.45 0-6.06-1.11-7.85-3.32s-2.68-5.49-2.68-9.83v-20.94h8.55v19.09c0 5.15 1.85 7.72 5.55 7.72 1.66 0 3.27-0.5 4.82-1.5s2.82-2.52 3.8-4.56v-20.75h8.55v23.62c0 0.89 0.16 1.53 0.48 1.92 0.32 0.38 0.84 0.6 1.56 0.64v7.28c-0.85 0.17-1.56 0.28-2.14 0.32-0.57 0.04-1.1 0.06-1.56 0.06-1.53 0-2.78-0.35-3.73-1.05-0.96-0.7-1.52-1.67-1.69-2.91l-0.19-2.68c-1.49 2.3-3.41 4.02-5.75 5.17s-4.91 1.72-7.72 1.72z"/>
  <path d="m259.79 190.6v-8.49h8.55v8.49zm0 38.11v-33.45h8.55v33.45z"/>
  <path d="m289.93 229.35c-2.3 0-4.43-0.45-6.38-1.34-1.96-0.89-3.64-2.13-5.04-3.7-1.41-1.57-2.5-3.41-3.29-5.52s-1.18-4.37-1.18-6.8 0.37-4.68 1.12-6.77c0.74-2.08 1.78-3.92 3.1-5.49s2.89-2.81 4.72-3.7 3.83-1.34 6-1.34c2.47 0 4.69 0.6 6.67 1.79s3.52 2.74 4.63 4.66v-19.02h8.55v36.77c0 0.89 0.15 1.53 0.45 1.92 0.3 0.38 0.81 0.6 1.53 0.64v7.28c-1.49 0.3-2.7 0.45-3.64 0.45-1.53 0-2.79-0.38-3.77-1.15s-1.53-1.77-1.66-3l-0.19-2.11c-1.23 2.13-2.91 3.73-5.01 4.82-2.11 1.08-4.31 1.63-6.61 1.63zm2.23-7.28c0.81 0 1.64-0.14 2.49-0.41 0.85-0.28 1.64-0.67 2.36-1.18s1.37-1.11 1.95-1.79c0.57-0.68 1.01-1.43 1.31-2.23v-7.98c-0.34-0.94-0.82-1.8-1.44-2.59s-1.32-1.47-2.11-2.04-1.62-1.03-2.49-1.37-1.74-0.51-2.59-0.51c-1.28 0-2.46 0.28-3.54 0.83s-2.01 1.31-2.78 2.27-1.36 2.05-1.79 3.29c-0.43 1.23-0.64 2.51-0.64 3.83 0 1.4 0.23 2.7 0.7 3.89s1.11 2.23 1.92 3.13c0.81 0.89 1.78 1.6 2.9 2.11 1.13 0.51 2.37 0.77 3.74 0.77z"/>
  <path d="m326.38 229.35c-1.62 0-3.13-0.27-4.53-0.8-1.41-0.53-2.62-1.28-3.64-2.23s-1.82-2.07-2.39-3.35-0.86-2.68-0.86-4.21 0.35-3.03 1.05-4.37 1.68-2.48 2.94-3.42c1.25-0.94 2.76-1.67 4.5-2.2s3.66-0.8 5.75-0.8c1.49 0 2.95 0.13 4.37 0.38 1.43 0.26 2.69 0.62 3.8 1.09v-1.92c0-2.21-0.63-3.92-1.88-5.11-1.26-1.19-3.12-1.79-5.59-1.79-1.79 0-3.53 0.32-5.24 0.96s-3.45 1.57-5.23 2.81l-2.62-5.43c4.3-2.85 8.94-4.28 13.92-4.28s8.54 1.18 11.2 3.54 3.99 5.78 3.99 10.25v10.41c0 0.89 0.16 1.53 0.48 1.92 0.32 0.38 0.84 0.6 1.56 0.64v7.28c-1.45 0.3-2.7 0.45-3.77 0.45-1.62 0-2.86-0.36-3.74-1.09s-1.42-1.68-1.63-2.87l-0.19-1.85c-1.49 1.96-3.3 3.45-5.43 4.47s-4.41 1.53-6.83 1.53zm2.42-6.26c1.45 0 2.82-0.26 4.12-0.77s2.31-1.19 3.03-2.04c0.94-0.72 1.4-1.53 1.4-2.43v-3.83c-1.02-0.38-2.13-0.69-3.32-0.93-1.19-0.23-2.34-0.35-3.45-0.35-2.21 0-4.02 0.5-5.43 1.5-1.4 1-2.11 2.27-2.11 3.8 0 1.45 0.55 2.65 1.66 3.61s2.47 1.44 4.08 1.44z"/>
 </g>
</svg>
