<svg width="600" height="280.98" version="1.1" viewBox="0 0 158.75 74.341576" xmlns="http://www.w3.org/2000/svg">
 <g transform="translate(-26.458 -111.66)" fill="#fff">
  <path d="m185.21 114.8c-0.0794-1.7465-1.72-3.2283-3.4665-3.1225h-41.174c-0.52923-0.0265-1.0585 0-1.5612 0.13231-1.376 0.44985-2.3816 1.7994-2.408 3.2283v66.657c0 0.60862-0.0529 1.2172 0.13231 1.7994 0.344 1.2172 1.4025 2.2228 2.6462 2.4345 0.344 0.0794 0.71447 0.0794 1.0585 0.0794 13.892-0.0265 27.758 0.0265 41.651-0.0265 0.18523-0.0529 0.39693-0.0794 0.58215-0.13231 0.10586-0.0265 0.23816-0.0794 0.37047-0.10585 1.1908-0.50278 2.1169-1.6936 2.1434-2.9902 0.0264-22.651 0.0264-45.303 0.0264-67.954zm-30.51 41.254c1.2172 1.7465 2.9902 3.1225 4.9748 3.9163 3.2019 1.2966 6.9594 0.92616 9.8702-0.95262 0.58216-0.344 1.0849-0.84678 1.6406-1.2172 0.34401-0.13231 0.66155 0.0794 0.8997 0.34401 1.1643 1.1643 2.3286 2.3286 3.493 3.493 0.39693 0.26462 0.60862 0.87324 0.13231 1.1908-3.2548 3.0166-7.6739 4.7367-12.119 4.7102-4.5779 0.0265-9.1028-1.8523-12.358-5.0542-2.8579-2.752-4.7102-6.5096-5.2394-10.426-0.0529-0.7674-0.15877-1.5083-0.13231-2.2757-0.0265-0.76739 0.0794-1.5348 0.13231-2.2757 0.42339-3.1754 1.6936-6.245 3.7046-8.7588 2.064-2.5932 4.8425-4.6044 7.965-5.7157 3.7046-1.3231 7.8591-1.376 11.617-0.13231 2.408 0.82032 4.6308 2.117 6.4567 3.8634 0.29108 0.23816 0.26462 0.71447-0.0265 0.95263-1.2966 1.2702-2.5668 2.5668-3.8634 3.8634-0.26463 0.31754-0.7674 0.23815-1.0056-0.0265-1.1379-1.0056-2.5139-1.7729-3.9693-2.2228-2.8049-0.87325-5.9539-0.5557-8.5207 0.87323-2.5403 1.4025-4.4985 3.837-5.2659 6.6419-0.87325 3.096-0.26463 6.589 1.6142 9.2087z"/>
  <path d="m130.17 181.56v-66.181c-0.0265-0.58216-0.0794-1.1908-0.34401-1.7465-0.42338-0.92617-1.2966-1.6671-2.3022-1.8788-0.44985-0.13231-0.95262-0.0794-1.4289-0.0794h-41.28c-1.5348 0-2.8579 1.1908-3.2548 2.6197-0.07938 0.68801-0.05293 1.3496-0.05293 2.0376v66.181c0 0.39692 0.05293 0.8203 0.15877 1.1908 0.23816 0.47631 0.47631 0.92616 0.84678 1.2966 0.52924 0.55569 1.2702 0.84678 2.0111 0.97909 13.363 0.0265 26.726 0 40.09 0 1.0056-0.0265 2.0111 0.0794 2.9902-0.13231 0.95263-0.31754 1.7994-1.032 2.1963-1.9582 0.39693-0.71448 0.39693-1.5348 0.37047-2.3286zm-13.84-14.713c0 0.344-0.344 0.58216-0.66154 0.5557h-11.167c-1.0585 0-2.1434 0.0529-3.2019-0.13231-1.72-0.26462-3.44-1.0849-4.472-2.5139-1.1643-1.5348-1.5612-3.493-1.5348-5.3717v-26.568c-0.05293-0.37046 0.29108-0.71447 0.66154-0.66154h5.4776c0.26461-0.0265 0.5557 0.0794 0.66154 0.37047 0.10585 0.42338 0.0529 0.84677 0.0529 1.2702v23.736c0.0264 1.376 1.0585 2.5932 2.3551 2.9902 0.31754 0.0529 0.63508 0.10585 0.95262 0.1323h10.32c0.344-0.0264 0.60862 0.34401 0.55569 0.66155 0 1.8259 0.0265 3.6782 0 5.5305z"/>
  <path d="m72.984 111.91c-0.39693-0.10584-0.79385-0.26461-1.1908-0.23815h-42.101c-1.6936 0.0529-3.1754 1.5612-3.2283 3.2548v66.763c0 0.66155-0.05293 1.3231 0.15877 1.9317 0.29108 0.97908 1.0849 1.72 1.9846 2.1169 0.95262 0.344 1.9846 0.23816 2.9637 0.23816h39.984c0.63508-0.0265 1.2702-0.15877 1.8259-0.50278 1.0055-0.58215 1.6671-1.72 1.6936-2.8579v-67.61c0-1.3231-0.8997-2.5403-2.0905-3.096zm-7.4358 20.905v5.4511c0.02646 0.344-0.29108 0.71447-0.66154 0.66155h-10.505c-0.05293 0.31754-0.07938 0.66154-0.07938 1.0056 0.02646 1.1378 0 2.3022 0.02646 3.44v0.84678c0 0.66155 0 1.3496 0.02646 2.0111-0.05293 0.71448-0.05293 1.4289-0.02646 2.1434-0.02646 1.1379-0.05293 2.3022 0.02646 3.44-0.07938 1.1908-0.02646 2.3816-0.02646 3.5723 0 0.15877 0 0.31754 0.02646 0.47631-0.02646 0.31754-0.02646 0.63508-0.02646 0.95263v1.2966 2.1434c0 0.58216-0.02646 1.1908 0 1.7729-0.05293 1.6142 0 3.2283-0.02646 4.869 0.02646 0.37047-0.344 0.60862-0.66154 0.5557h-5.4776c-0.37046 0.0265-0.71447-0.29108-0.66154-0.66154v-27.811h-10.849c-0.23816 0.0265-0.42339-0.0794-0.63508-0.18523-0.05293-0.29108-0.10585-0.55569-0.10585-0.84678v-4.8425c0-0.23816 0.05293-0.50277 0.10585-0.74093 0.18523-0.0794 0.39693-0.21169 0.63508-0.18523h28.235c0.39693-0.0794 0.71447 0.26462 0.66154 0.63508z"/>
 </g>
</svg>
