<svg width="553.58" height="265.49" version="1.1" viewBox="0 0 638.5 306.21" xmlns="http://www.w3.org/2000/svg">
 <path d="m179.04 0h-157.86c-11.65 0-21.18 9.53-21.18 21.15v263.81c0 11.65 9.53 21.17 21.18 21.17h157.86c11.62 0 21.17-9.53 21.17-21.17v-263.81c0.01-11.62-9.55-21.15-21.17-21.15m219.02 0h-157.85c-11.65 0-21.18 9.53-21.18 21.15v263.81c0 11.65 9.53 21.17 21.18 21.17h157.86c11.62 0 21.17-9.53 21.17-21.17v-263.81c0-11.62-9.56-21.15-21.18-21.15m219.27 0.08h-157.86c-11.65 0-21.18 9.53-21.18 21.15v263.81c0 11.65 9.53 21.17 21.18 21.17h157.86c11.62 0 21.17-9.53 21.17-21.17v-263.8c0.01-11.62-9.55-21.16-21.17-21.16" fill="#e9115a"/>
 <path d="m158.04 109.89c0 1.36-1.13 2.47-2.5 2.47h-33.17c-5.81 0-10.5 4.7-10.5 10.5v104.27c0 1.37-1.09 2.47-2.46 2.47h-23.09c-1.37 0-2.47-1.1-2.47-2.47v-104.27c0-5.8-4.68-10.5-10.5-10.5h-34.6c-1.35 0-2.47-1.11-2.47-2.47v-23.08c0-1.35 1.12-2.45 2.47-2.45h116.8c1.37 0 2.5 1.1 2.5 2.44v23.09zm205.78 117.22c0 1.37-1.07 2.49-2.46 2.49h-52.35c-22.1 0-31.65-14.16-31.65-32.55v-110.24c0-1.35 1.11-2.45 2.47-2.45h23.06c1.37 0 2.46 1.1 2.46 2.45v101.35c0 7.42 6 13.42 13.43 13.42h42.57c1.39 0 2.46 1.14 2.46 2.5v23.03zm210.3-103.81c-7.98-7.12-18.51-11.45-30.05-11.45-24.94 0-45.18 20.19-45.18 45.13 0 24.89 20.24 45.14 45.18 45.14 11.54 0 22.07-4.32 30.05-11.46 0.98-0.94 2.63-0.94 3.59 0l16.32 16.3c0.86 0.89 0.9 2.31 0.12 3.25-13.06 12.3-30.7 19.89-50.09 19.89-40.42 0-73.18-32.77-73.18-73.13 0-40.42 32.76-73.17 73.18-73.17 19.39 0 36.99 7.57 50.09 19.91 0.77 0.98 0.73 2.37-0.12 3.26l-16.32 16.33c-0.96 0.97-2.61 0.97-3.59 0" fill="#edd6b4"/>
</svg>
