<svg width="800.013" height="246.331" viewBox="0 0 211.67 65.175" xmlns="http://www.w3.org/2000/svg">
    <g fill-rule="evenodd">
        <path d="M.01 0h66.707v65.175H.008z" fill="red"/>
        <path d="M71.908 0h66.707v65.175H71.906z" fill="#ff0"/>
        <path d="M144.964 0h66.707v65.175h-66.709z" fill="#00f"/>
    </g>
    <path d="M77.694 59.203c-1.868-1.869-1.043-10.754 1.907-20.521 1.607-5.322 3.7-13.563 4.651-18.314 1.829-9.133 4.306-12.494 8.595-11.662 2.918.565 3.803 2.943 7.413 19.919 1.38 6.49 3.04 11.8 3.689 11.8.648 0 3.059-6.338 5.357-14.084a4515.013 4515.013 0 0 1 4.773-16.021c.94-3.064 5.263-4.013 7.606-1.669 1.177 1.176 3.208 8.293 4.514 15.814 1.307 7.521 3.374 17.054 4.595 21.184 3.312 11.206 2.973 14.569-1.47 14.569-4.116 0-5.421-2.904-8.72-19.413-1.047-5.234-2.28-9.513-2.74-9.51-.46.003-2.915 5.998-5.455 13.322-4.128 11.907-5.047 13.367-8.682 13.79-3.836.449-4.248-.152-7.31-10.657-1.784-6.123-3.626-12.16-4.094-13.416-.991-2.666-6.274 12.44-6.416 18.347-.137 5.708-5.092 9.643-8.213 6.521zm-48.866-1.854c-.457-.74-1.227-8.448-1.71-17.129-1.269-22.847-.832-21.836-10.156-23.491-6.65-1.18-8.12-2.018-8.523-4.853-.288-2.03.332-3.472 1.523-3.54 1.105-.063 11.259-.023 22.564.092 21.336.214 25.496 1.384 23.493 6.604-.78 2.03-3.022 2.554-10.93 2.554h-9.95l1.075 18.377c.78 13.333.58 18.975-.732 20.554-2.03 2.446-5.396 2.867-6.654.831zm127.52-1.076c-.511-1.332.195-4.781 1.57-7.665 1.375-2.883 2.5-5.904 2.5-6.713 0-.809 1.076-2.67 2.39-4.135 1.315-1.466 6.337-8.488 11.16-15.606 9.623-14.2 13.632-16.343 15.673-8.374 10.512 41.025 10.921 43.967 6.2 44.637-3.317.471-5.703-2.949-8.68-12.441-.566-1.803-1.751-2.49-3.281-1.903-1.318.505-4.944.919-8.058.919-5.203 0-5.932.556-8.99 6.851-3.476 7.152-8.608 9.32-10.485 4.43zm27.916-21.011c.135-.092-.116-2.05-.558-4.354-1.245-6.478-2.52-5.593-7.782 5.396-.432.902 6.801-.002 8.34-1.042z" fill="#020101" stroke-width="1.523"/>
</svg>
