<svg xmlns="http://www.w3.org/2000/svg" height="600" width="600" viewBox="0 0 158.75 158.746">
    <g stroke-width="1.535" fill="#00a4e0">
        <path d="M79.375 146.84c-37.265 0-67.471-30.204-67.471-67.466 0-37.254 30.206-67.466 67.471-67.466s67.471 30.214 67.471 67.466c0 37.263-30.206 67.466-67.471 67.466m0-146.84C35.531-.001 0 35.538 0 79.368c0 43.841 35.531 79.38 79.375 79.38s79.375-35.539 79.375-79.38c0-43.832-35.531-79.37-79.375-79.37"/>
        <path d="M87.062 87.866l-14.501-25.03h-10.55v40.333h9.647l.132-23.547 14.12 23.547h10.48V62.835h-9.708zM101.37 72.056h11.904l-.05 31.117h10.189l.05-31.117h12.345l-.06-9.216h-34.421zM23.02 62.833l.05 9.216h11.904l-.05 31.125h10.189l.04-31.125h12.345l-.05-9.216z"/>
    </g>
</svg>
