<svg width="51.373mm" height="46.585mm" fill="none" version="1.1" viewBox="0 0 194.17 176.07" xmlns="http://www.w3.org/2000/svg">
 <g transform="translate(-.41174 -.706)" clip-path="url(#a)">
  <g fill="#fff">
   <path d="m48.092 141.41h-14.262v34.893h7.6797v-10.473h5.835c7.8253 0 14.107-4.183 14.107-12.258v-0.097c0-7.124-5.0389-12.065-13.359-12.065zm5.5826 12.317c0 2.99-2.2427 5.222-6.0874 5.222h-6.0874v-10.647h5.932c3.835 0 6.2331 1.883 6.2331 5.318v0.097z"/>
   <path d="m126.48 163.84c4.437-1.64 7.476-5.183 7.476-10.813v-0.097c0-7.182-4.932-11.511-13.166-11.511h-15.951v34.893h7.68v-11.162h6.029l6.359 9.493c0.699 1.048 1.874 1.669 3.136 1.669h6.961l-8.524-12.462zm-0.301-10.415c0 2.941-2.146 4.824-5.884 4.824h-7.776v-9.948h7.631c3.738 0 6.029 1.737 6.029 5.027z"/>
   <path d="m136.85 141.41v6.892h10.621v28.001h7.68v-28.001h8.107c1.388 0 2.514-1.126 2.514-2.514v-4.378z"/>
   <path d="m183.53 155.43c-6.029-1.543-7.515-2.291-7.515-4.581v-0.097c0-1.689 1.544-3.038 4.486-3.038 2.32 0 4.699 0.805 7.107 2.193 1.135 0.651 2.582 0.33 3.32-0.747l2.612-3.785c-3.534-2.835-7.865-4.426-12.942-4.426-7.117 0-12.204 4.183-12.204 10.501v0.098c0 6.92 4.534 8.861 11.553 10.657 5.826 1.494 7.02 2.484 7.02 4.426v0.097c0 2.038-1.893 3.28-5.029 3.28s-5.981-1.067-8.583-2.853c-1.078-0.738-2.524-0.554-3.359 0.446l-3 3.591c4.184 3.737 9.514 5.572 14.786 5.572 7.515 0 12.796-3.883 12.796-10.803v-0.097c0-6.076-3.98-8.609-11.058-10.454z"/>
   <path d="m16.946 155.43c-6.0292-1.543-7.5147-2.291-7.5147-4.581v-0.097c0-1.689 1.5437-3.038 4.4855-3.038 2.3204 0 4.6991 0.805 7.1069 2.193 1.1359 0.651 2.5825 0.33 3.3204-0.747l2.6117-3.785c-3.5341-2.835-7.8642-4.426-12.942-4.426-7.1166 0-12.204 4.183-12.204 10.501v0.098c0 6.92 4.534 8.861 11.553 10.657 5.8253 1.494 7.0195 2.484 7.0195 4.426v0.097c0 2.038-1.8932 3.28-5.0292 3.28-3.1359 0-5.9806-1.067-8.5826-2.853-1.0777-0.738-2.5243-0.554-3.3592 0.446l-3 3.591c4.1845 3.737 9.5146 5.572 14.787 5.572 7.5146 0 12.796-3.883 12.796-10.803v-0.097c0-6.076-3.9806-8.609-11.058-10.454z"/>
   <path d="m81.937 140.94c-9.903 0-17.922 8.027-17.922 17.917s8.0292 17.917 17.922 17.917 17.922-8.027 17.922-17.917-8.0292-17.917-17.922-17.917zm0 28.594c-5.8933 0-10.68-4.776-10.68-10.677s4.7767-10.676 10.68-10.676c5.9029 0 10.68 4.775 10.68 10.676s-4.7768 10.677-10.68 10.677z"/>
  </g>
  <path d="m76.636 42.257h-35.719c7.534-24.08 30.01-41.551 56.573-41.551 26.564 0 49.04 17.471 56.574 41.551h-47.554v21.916h-0.408l-12-18.674c-1.4563-2.407-2.9223-3.232-5.8447-3.232h-11.622v-0.0097z" fill="#ff28ff"/>
  <path d="m143.04 50.866v35.009h-11.806v-35.009h-13.495v35.009h-7.874c-2.922 0-4.32-0.825-5.845-3.2321l-15.272-22.857h-0.2427v26.09h-11.466v-35.009h-13.447v35.009h-12.01v-35.009h-12.66c-0.4564 2.9603-0.6894 5.9983-0.6894 9.0848 0 32.719 26.534 59.245 59.263 59.245 32.728 0 59.263-26.527 59.263-59.245 0-3.0865-0.243-6.1245-0.69-9.0848h-13.029z" fill="#ff28ff"/>
 </g>
 <defs>
  <clipPath id="a">
   <rect transform="translate(.41174 .70569)" width="194.18" height="176.08" fill="#fff"/>
  </clipPath>
 </defs>
</svg>
