<svg version="1.1" viewBox="0 0 800.99 338.45" xml:space="preserve" xmlns="http://www.w3.org/2000/svg"><path d="m159.48 337.08h59.742c1.0732 0 2.1464-0.85644 2.3253-2.0554l2.1464-16.615c0-1.1991-0.71547-2.0554-1.9676-2.0554h-36.311c-0.53663 0-0.89436-0.34258-0.71549-0.85645l12.343-96.264c0-1.199-0.71548-2.0554-1.9676-2.0554h-20.212c-1.2521 0-2.1464 0.85645-2.3253 2.0554l-14.846 115.8c-0.17888 1.1991 0.53661 2.0554 1.7887 2.0554zm104.28 1.3703c21.106 0 36.848-13.361 39.53-33.915l6.9759-54.812c2.6831-20.554-9.659-33.915-30.944-33.915-21.106 0-36.669 13.361-39.351 33.915l-6.9759 54.812c-2.6831 20.554 9.4802 33.915 30.765 33.915zm2.5042-20.725c-6.2605 0-9.8378-4.9674-8.9435-12.162l7.3337-56.867c0.89434-7.1941 5.7239-12.162 12.164-12.162s10.017 4.9674 9.1224 12.162l-7.3337 56.867c-0.89435 7.1941-5.7239 12.162-12.343 12.162zm80.134 20.725c20.749 0 36.311-14.046 38.994-35.457l10.732-83.76c0.17886-1.1991-0.53662-2.0554-1.7887-2.0554h-20.391c-1.2521 0-2.1464 0.85644-2.3253 2.0554l-11.09 86.158c-0.89434 7.3654-5.545 12.333-11.447 12.333-6.0815 0-9.3012-4.9674-8.4069-12.333l11.09-86.158c0-1.1991-0.71548-2.0554-1.9676-2.0554h-20.212c-1.2521 0-2.1464 0.85644-2.3253 2.0554l-10.732 83.76c-2.8619 21.411 9.1224 35.457 29.871 35.457zm50.62-1.3703h19.854c1.2521 0 2.3253-0.85644 2.5042-2.0554l7.8703-63.891c0.17887-0.68516 1.0732-0.68516 1.0732 0l14.131 64.233c0.17888 1.0277 0.89436 1.7129 2.1464 1.7129h22.002c1.2521 0 2.1464-0.85644 2.3253-2.0554l14.846-115.8c0.17888-1.1991-0.53661-2.0554-1.7887-2.0554h-20.033c-1.2521 0-2.1464 0.85644-2.3253 2.0554l-8.0492 63.548c-0.17887 0.68516-1.0732 0.85645-1.0732 0.17129l-14.31-64.062c-0.17888-1.0277-0.71549-1.7129-1.9676-1.7129h-21.823c-1.2521 0-2.1464 0.85644-2.3253 2.0554l-14.846 115.8c-0.17887 1.199 0.53662 2.0554 1.7887 2.0554zm119.66 1.3703c20.57 0 36.311-12.676 38.815-32.373l4.114-31.688c0-1.199-0.71549-2.0554-1.9676-2.0554h-30.765c-1.2521 0-2.3253 0.85644-2.3253 2.0554l-1.9676 15.244c-0.17886 1.199 0.53661 2.0554 1.7887 2.0554h7.6914c0.35774 0 0.71548 0.34257 0.71548 0.85643l-1.7887 13.703c-0.89434 6.8515-5.5449 11.476-11.805 11.476-5.9027 0-9.3012-4.6248-8.5858-11.476l7.5126-58.238c0.89434-6.8515 5.545-11.476 11.626-11.476 6.2605 0 9.659 4.6248 8.7646 11.476l-0.89435 6.8515c-0.17888 1.199 0.53661 2.0554 1.7887 2.0554h20.212c1.2521 0 2.3253-0.85645 2.5042-2.0554l0.71548-6.5089c2.5042-19.869-9.8378-32.545-30.408-32.545-20.927 0-36.311 12.676-38.815 32.373l-7.3337 57.896c-2.5042 19.698 9.4802 32.373 30.408 32.373zm124.5-102.6 2.1464-16.615c0.17887-1.199-0.71547-2.0554-1.7887-2.0554h-59.563c-1.2521 0-2.1464 0.85644-2.3253 2.0554l-14.846 115.8c-0.17887 1.1991 0.53661 2.0554 1.7887 2.0554h59.563c1.0732 0 2.1464-0.85643 2.3253-2.0554l2.1464-16.615c0.17886-1.199-0.71549-2.0554-1.9676-2.0554h-36.131c-0.53661 0-0.89435-0.34258-0.71547-0.85644l3.3985-27.235c0-0.51386 0.53661-0.85645 1.0732-0.85645h20.749c1.2521 0 2.1464-0.85643 2.3253-2.0554l2.1464-16.615c0.17887-1.1991-0.53661-2.0554-1.7887-2.0554h-20.927c-0.53661 0-0.71549-0.34259-0.71549-0.85645l3.5774-27.064c0-0.51386 0.35774-0.85643 0.89435-0.85643h36.311c1.2521 0 2.1464-0.85644 2.3253-2.0554z" fill="#008080" stroke-width="2.188" aria-label="LOUNGE"/><g fill="#fff" stroke-width=".62811"><path d="m667.91 1.4572h125.23l-46.753 135.78h-125.23z"/><path d="m48.887 1.4619h125.23l-46.753 135.78h-125.23z"/><path d="m196.59 1.4619h125.23l-46.753 135.78h-125.23z"/><path d="m344.3 1.4619h125.23l-46.753 135.78h-125.23z"/><path d="m520.2 1.4572h125.23l-46.753 135.78h-125.23z"/></g><g fill="#008080" stroke-width=".62811"><path d="m9.7684 138.73h-9.7684l47.769-138.73h128.15l-3.8805 11.27h9.7684s-11.316 32.851-24.455 70.675l-23.314 68.056h-128.15zm164.19-137.27h-125.23l-46.753 135.78h125.23z"/><path d="m157.64 138.73h-9.7684l47.769-138.73h128.15l-3.8805 11.27h9.7684s-11.316 32.851-24.455 70.675l-23.314 68.056h-128.15zm164.19-137.27h-125.23l-46.753 135.78h125.23z"/><path d="m305.34 138.73h-9.7684l47.769-138.73h128.15l-3.8805 11.27h9.7684s-11.318 32.851-24.455 70.675l-23.314 68.056h-128.15zm164.19-137.27h-125.23l-46.753 135.78h125.23z"/><path d="m481.25 138.73h-9.7683l47.769-138.73h128.15l-3.8805 11.27h9.7684s-11.318 32.851-24.455 70.675l-23.314 68.056h-128.15zm164.19-137.27h-125.23l-46.753 135.78h125.23z"/><path d="m628.95 138.73h-9.7683l47.769-138.73h128.15l-3.8804 11.27h9.7683s-11.318 32.851-24.456 70.675l-23.313 68.056h-128.15zm164.19-137.27h-125.23l-46.753 135.78h125.23z"/><path d="m675.97 119.87c-8.0769-2.9422-12.327-9.3255-14.337-12.09-3.3553-6.5983-3.7276-8.5825-4.3568-17.288-0.12705-8.313 1.7194-14.462 3.3015-19.786 5.7503-19.475 10.219-24.232 16.227-31.995 6.8407-8.4437 12.445-11.852 15.399-14.277 6.6705-4.4655 12.825-8.5297 26.073-11.02 8.9587-1.5606 18.269-0.82201 24.524 2.235 9.2489 5.6277 9.9254 8.1585 12.309 12.763 2.831 6.0916 3.5126 13.955 2.3884 21.837-3.1974 22.418-18.518 46.668-36.398 59.896-14.158 10.474-32.723 14.012-45.13 9.7256zm21.638-7.3646c16.167-45.668 18.247-54.59 30.954-89.895 0.90272-2.6216-1.5192-4.0044-4.5196-3.9913-3.1015 0.03329-6.2243 1.8909-6.9475 3.9913-8.0247 22.135-19.66 57.098-30.954 89.895-1.2183 3.5383 0.0654 4.8972 3.7528 4.9245 3.1247-0.027 6.4268-1.1847 7.7144-4.9245z"/><path d="m544.65 99.58h-42.936l77.169-81.975 35.742 0.02323-26.678 77.477h11.191l-1.5526 4.4909h-11.185l-7.423 21.559-41.757 6e-5zm1.5466-4.4919 19.934-57.892-55.902 57.892z"/><path d="m400.62 19.908c-2.6055-0.22888-6.4714 0.87477-7.3652 3.4694l-19.194 55.742c-0.794 2.3059 0.62015 4.322 4.6722 4.3491 2.5516 0.0917 5.5612-1.358 6.6335-4.3491l19.194-55.742c0.57479-1.6693-0.44608-3.577-3.941-3.4694zm-49.891-3.4837c21.598-0.03768 33.9-0.18799 66.441-0.02576 7.0989 0.03518 12.597 1.3857 19.088 6.3037 5.6539 4.5611 7.4086 9.6025 7.0637 17.221-0.8095 11.653-7.1014 23.07-9.7797 26.865-9.4443 13.381-18.252 19.5-33.487 19.556-11.079 0.03518-28.481 0-28.481 0l-11.508 33.42h-44.92z"/><path d="m256.97 23.378c1.1547-3.3535-1.8438-4.344-4.1788-4.399-1.9958-0.01136-6.0402 1.0292-7.2886 4.399-10.542 30.614-19.533 56.295-30.767 89.355-1.2656 3.6755 0.69388 5.0741 3.5446 5.154 3.1568-8e-3 6.9318-2.2767 7.9223-5.154 8.7527-25.42 21.169-61.825 30.767-89.355zm-72.817 40.431c12.992-25.999 34.701-43.03 62.424-48.05 12.261-1.8868 26.723-2.2629 36.789 7.8074 7.011 7.7999 13.298 18.385 8.1679 37.065-5.8662 18.442-11.729 26.09-24.788 38.223-10.114 8.4085-26.242 21.741-51.065 22.396-15.532 0.47177-28.102-5.4707-33.902-16.959-6.8037-12.962-4.0394-27.438 2.3733-40.483z"/><path d="m80.638 24.272h-20.522l1.8777-5.4191h87.006l-1.8628 5.4191h-19.547l-33.271 96.628h-46.951z"/></g></svg>
