<svg width="200mm" height="502.45" viewBox="0 0 200 132.94" xmlns="http://www.w3.org/2000/svg">
    <g fill="#fff">
        <path d="M65.62 109.276c-6.683 0-11.926 1.614-15.731 4.843-3.781 3.23-5.672 7.454-5.672 12.674 0 2.104.31 4.292.928 6.085h13.102c-.325-.775-.554-1.744-.687-2.79h30.535v-1.628c0-4.403-.82-7.978-2.462-10.724-1.64-2.746-4.03-4.843-7.17-6.29-3.14-1.446-7.42-2.17-12.842-2.17zm.606 7.58c1.998 0 4.554.534 5.766 1.604 1.237 1.069 2.948 2.366 3.234 4.84h-17.63c-.002-2.052 1.271-3.491 2.151-4.498 1.38-1.614 4.173-1.946 6.48-1.946z"/>
        <path class="fil0" d="M151.87 0c23.048 0 41.904 18.857 41.904 41.905S174.918 83.81 151.87 83.81c-1.355 0-2.712.007-4.067-.004v5.008c0 7.715-6.318 14.033-14.033 14.033H41.922c-7.715 0-14.033-6.315-14.033-14.033V63.562c0-8.982 7.954-15.818 16.79-14.568-.14 1.44-.212 2.9-.212 4.379 0 24.674 20 44.674 44.674 44.674s44.674-20 44.674-44.674a44.96 44.96 0 0 0-.257-4.79h19.474c5.084 0 9.244-3.16 9.244-7.021 0-3.862-4.16-7.022-9.244-7.022H129.66a44.87 44.87 0 0 0-16.883-19.082v-1.422c0-7.719 6.315-14.033 14.033-14.033h25.062zM89.14 14.512c21.461 0 38.859 17.397 38.859 38.858 0 21.462-17.397 38.859-38.859 38.859-21.46 0-38.858-17.397-38.858-38.859 0-21.461 17.397-38.858 38.858-38.858zm10.647-4.538A44.757 44.757 0 0 0 89.14 8.697c-17.964 0-33.45 10.605-40.544 25.895H14.537c-4.21 0-7.655-3.445-7.655-7.655V7.655C6.882 3.445 10.327 0 14.537 0h77.595c4.21 0 7.655 3.445 7.655 7.655v2.32z"/>
        <path d="M0 110.916h12.428v4.966c1.99-2.223 4.411-3.33 6.448-4.274 2.037-.965 4.994-1.447 7.92-1.447 3.958 0 7.049 1.059 9.273 3.177 2.248 2.097 3.372 5.822 3.372 10.225v9.302H26.976v-6.44c0-2.097-.433-4.05-1.299-4.91-.866-.88-4.069-1.932-5.638-1.932-1.732 0-4.477.723-5.554 1.897s-1.61 4.232-1.548 7.272v4.113H0zM90.17 111.046h13.492l6.33 20.139 7.397-20.139h11.617l7.196 20.139 6.33-20.139h13.865l-8.164 21.796h-21.898l-3.087-8.762-3.322 8.762H97.959zM177.9 109.836c-4.479 0-8.05.418-10.712 1.253-2.663.813-4.753 2.056-6.27 3.727-1.519 1.67-2.277 3.66-2.277 5.969 0 2.11.696 3.99 2.09 5.639 1.418 1.649 3.147 2.35 5.188 3.053 2.065.682 5.735 1.43 11.01 2.243 3.047.474 6.03.882 7.06 1.225h16.016c-.168-1.66-.81-3.2-1.932-4.622-1.294-1.67-3.173-2.957-5.637-3.858-2.463-.902-7.17-1.605-12.222-2.11-3.334-.353-5.5-.748-6.495-1.188-.995-.44-1.968-.613-1.968-1.47 0-.77.861-1.419 1.633-1.946.796-.55 2.528-.825 4.244-.825 1.692 0 2.896.117 4.33.58.871.528 2.083 1.828 2.457 2.949l13.342-.303c-.336-2.107-1.182-4.635-2.82-5.916-1.493-1.342-4.322-2.806-6.587-3.444-2.24-.637-5.722-.956-10.45-.956z"/>
    </g>
</svg>
