<svg overflow="hidden" version="1.1" viewBox="0 0 1583 610" xml:space="preserve" xmlns="http://www.w3.org/2000/svg"><defs><clipPath id="c"><path d="m0 0h1583v610h-1583z"/></clipPath><clipPath id="b"><path d="m0 0h1583v610h-1583z"/></clipPath><clipPath id="a"><path d="m0 0h1583v610h-1583z"/></clipPath></defs><g fill="#059cd8"><path d="m1491 247.63h92v265.37h-92zm0-150.63h92v92.3h-92z" clip-path="url(#a)" fill-rule="evenodd"/><path d="m118.41 256.41h100.23v256.59h-100.23zm794.58-159.2c10.43 0.62 20.6 2.64 29.74 6.19 40.07 17.28 60.85 51.02 60.2 96.93 0.24 104.23-0.24 208.45 0 312.67h-100.23c-0.35-97.3-0.69-194.61-1.04-291.91 0.5-10.66-3.99-9.87-8.49-4.78l-215.11 296.69h-123.6l277.88-386.34c15.63-20.49 49.34-31.31 80.65-29.45zm-912.99-0.21h547.25v0.2l9.29 0.47c65.01 6.61 115.75 61.58 115.75 128.42 0 71.29-57.73 129.08-128.93 129.08h-77.3c-16.71 0-30.25 13.57-30.25 30.3v127.53h-100.23v-131.42c0-77.3 50.61-126.75 126.6-126.75h81.18c15.85 0 28.7-12.87 28.7-28.74s-12.85-28.74-28.7-28.74h-543.36z" clip-path="url(#b)" fill-rule="evenodd"/><path d="m1186 0h111v610h-111z" clip-path="url(#c)"/></g></svg>
