<svg xmlns="http://www.w3.org/2000/svg" height="81.44mm" width="639.987" viewBox="0 0 600 288.565">
    <defs>
        <linearGradient id="a" gradientUnits="userSpaceOnUse" gradientTransform="rotate(11.3 4565.16 3398.525) scale(49.4608)" x1="0" x2="1" y1="0" y2="0">
            <stop stop-color="#5e3221" offset="0"/>
            <stop stop-color="#5e3221" offset=".001"/>
            <stop stop-color="#c6a250" offset=".538"/>
            <stop stop-color="#c6a250" offset=".539"/>
            <stop stop-color="#e6caab" offset=".679"/>
            <stop stop-color="#e6caab" offset=".683"/>
            <stop stop-color="#c6a250" offset=".803"/>
            <stop stop-color="#c6a250" offset=".81"/>
            <stop stop-color="#5e3221" offset="1"/>
        </linearGradient>
    </defs>
    <path d="M599.99 227.56H0V0h599.99v227.56z" fill="#00adef"/>
    <path d="M297.55 200.87l-.97-18.46-257.1 13.47 4.59 87.71 257.11-13.48.96 18.46 258.35-13.54-4.6-87.71-258.34 13.55z" fill="#12100f"/>
    <path fill="url(#a)" d="M746.17-696.85l-19.87 1.48 16.08 11.77-4.76 19.35 16.17-11.65 16.94 10.5-6.08-18.98 15.22-12.87-19.92-.08-7.55-18.45-6.23 18.93z" transform="translate(-454.81 926)"/>
    <g fill="#fff">
        <path d="M412.45 62.87c-34.13 0-46.39 13.35-46.39 33.68v29.8c0 10.06-1.95 12.01-5.19 12.05-3.32-.04-5.21-2.41-5.21-12.05V65.38h-41.2c-14.78 0-25.8 6.9-33.54 27.49l-13.44 39.06c-1.28 3.5-2.77 4.02-4.38 4.02-1.86 0-3.63-1.12-4.86-5.01l-4.51-9.6c11.19-5.25 15.09-14.07 15.09-23.79v-3c0-15.94-9.23-29.17-46.85-29.17H65.78v31.73h25.6l.01-6.65c0-2.13 1.71-3.84 3.83-3.84l10.27.02-.02 58.47c0 10.85 8.82 19.58 19.71 19.58h19.47v-21.91l-.26.01c-3.88 0-7.02-3.15-7.02-7.06V86.64l10.29-.02c2.13 0 3.81 1.71 3.81 3.84v6.65h24.82v-.38l.01.38v38.69c0 3.89-3.13 7.03-7.04 7.03v21.86h39.19v-37.82l3.29.03c5.21 0 9.76 2.44 12.1 6.7l16.26 31.09H272.76c14.39 0 17.5-3.14 22.19-14.92l5.73-15.98h23.04l-.06 30.9h210.55v-32.42h-25.84l.04 6.66c0 2.09-1.72 3.76-3.83 3.76l-22.99-.07v-17.99h19.31v-20.95h-19.31V86.61h22.99c2.11 0 3.83 1.72 3.83 3.82l-.04 6.68h25.84V65.38l-84.74.07v8.27c-7.2-6.48-19.05-10.85-37.02-10.85zm-.07 23.36h.02c7.9 0 14.31 2.59 14.31 14.68l-.03.65h23.3l.54 25.55h-23.81v.81c0 12.13-6.41 14.7-14.31 14.7h-.02c-7.92 0-14.33-2.57-14.33-14.7v-27.01c0-12.09 6.41-14.68 14.33-14.68zm-203.94.38h12.43c12.15 0 14.8 4.31 14.8 9.44 0 5.14-2.63 9.33-14.77 9.33l-12.46-.03V86.61zm115.17 3.82v22.3l-16.69-.04 3-7.7c4.84-11.63 8.27-14.56 13.69-14.56zM96.29 247.91c.14 2.62-.01 4.9-.43 6.83-.42 1.95-1.3 3.6-2.64 4.99-1.35 1.38-3.24 2.45-5.7 3.2-2.45.76-5.62 1.24-9.54 1.45-3.03.16-6.05.01-9.06-.43-3.01-.45-5.66-1.15-7.97-2.08l1.49-9.25c2.44.61 4.9 1.08 7.38 1.42 2.48.35 5.08.44 7.79.31 1.51-.08 2.74-.23 3.67-.44s1.65-.54 2.15-1.01.82-1.06.96-1.78c.15-.71.2-1.61.14-2.71-.06-1.15-.17-2.08-.31-2.81-.14-.72-.51-1.3-1.11-1.74s-1.49-.81-2.69-1.11c-1.19-.31-2.87-.64-5.04-.99-3.17-.51-5.73-1.1-7.67-1.76-1.96-.66-3.46-1.55-4.54-2.66-1.08-1.12-1.84-2.59-2.27-4.39-.44-1.81-.73-4.12-.88-6.94-.13-2.61.01-4.84.43-6.69.43-1.85 1.29-3.4 2.6-4.65 1.28-1.24 3.09-2.19 5.38-2.86 2.3-.67 5.25-1.1 8.86-1.29 2.29-.12 4.78-.12 7.46 0 2.67.12 5.49.42 8.45.88l-.66 9.87c-3.01-.37-5.6-.61-7.78-.73s-4.45-.12-6.8 0c-1.3.07-2.37.19-3.2.36-.83.18-1.47.46-1.92.86-.44.38-.75.9-.9 1.54s-.2 1.42-.15 2.37c.07 1.25.16 2.23.31 2.93.14.7.5 1.26 1.07 1.68.57.41 1.44.76 2.61 1.04 1.16.28 2.78.6 4.84.97 3.54.65 6.33 1.36 8.36 2.11 2.03.77 3.57 1.71 4.63 2.84 1.05 1.11 1.72 2.54 2.03 4.26.3 1.71.51 3.85.65 6.41M124.6 208.89c-.74-.01-1.51.01-2.3.05l-21.32 1.13 2.73 52.18 11.76-.62-.83-15.83 8.94-.46c6.37-.33 10.9-1.8 13.59-4.41 2.69-2.6 3.9-6.36 3.65-11.27l-.35-6.81c-.13-2.46-.56-4.59-1.28-6.42-.73-1.82-1.82-3.31-3.26-4.46-1.45-1.16-3.29-2-5.52-2.5-1.66-.39-3.61-.58-5.81-.58zm-.69 10.51c1.55.08 2.67.44 3.35 1.07.91.85 1.41 2.21 1.51 4.09l.24 4.55c.1 1.87-.23 3.32-1 4.33-.76 1-2.41 1.58-4.97 1.71l-8.94.47-.82-15.75 8.93-.46c.62-.04 1.18-.04 1.7-.01zM166.81 205.92c-.85-.01-1.73.01-2.64.06-3.71.19-6.82.81-9.33 1.86-2.51 1.04-4.52 2.37-6.03 3.96-1.52 1.6-2.6 3.37-3.23 5.32-.63 1.94-.89 3.91-.79 5.89l1.14 21.79c.1 1.98.58 3.9 1.41 5.78.82 1.87 2.08 3.52 3.75 4.94 1.68 1.43 3.82 2.54 6.42 3.33 2.6.77 5.77 1.06 9.47.88 3.66-.2 6.76-.82 9.3-1.87s4.56-2.37 6.07-3.97c1.52-1.6 2.59-3.37 3.22-5.32.63-1.94.9-3.91.79-5.89l-1.14-21.79c-.1-1.97-.57-3.9-1.4-5.77s-2.08-3.52-3.75-4.95c-1.68-1.43-3.83-2.54-6.46-3.32-1.98-.58-4.24-.89-6.8-.93zm-2.09 10.47c2.97-.15 5.16.32 6.56 1.43 1.38 1.1 2.13 2.67 2.24 4.71l1.04 19.75c.1 2.03-.48 3.67-1.75 4.92-1.27 1.24-3.4 1.94-6.37 2.1-2.99.16-5.17-.32-6.56-1.42-1.39-1.11-2.14-2.68-2.25-4.72l-1.04-19.74c-.1-2.04.49-3.68 1.75-4.93 1.27-1.24 3.4-1.94 6.38-2.1zM215.87 204.11c-.73 0-1.5.02-2.3.06l-21.7 1.14 2.73 52.18 11.75-.62-.85-16.22 6.9-.35 12.37 15.61 13.94-.73-13.55-17.2c2.61-1.24 4.45-2.97 5.54-5.21 1.1-2.22 1.56-4.99 1.37-8.28l-.33-6.42c-.13-2.46-.55-4.59-1.28-6.42-.72-1.82-1.81-3.3-3.25-4.46-1.45-1.15-3.29-1.99-5.52-2.51-1.67-.38-3.61-.57-5.82-.57zm-.71 10.51c1.53.08 2.64.41 3.34 1 .92.79 1.44 2.18 1.54 4.16l.22 4.16c.11 1.98-.23 3.45-1.02 4.4-.79.96-2.44 1.51-4.95 1.65l-9.32.48-.81-15.36 9.33-.48c.6-.04 1.16-.04 1.67-.01zM260.89 212.14l2.19 41.76-11.75.62-2.18-41.76-14.04.73-.54-10.42 39.8-2.08.55 10.42-14.03.73zM363.39 253.03c.14 2.62 0 4.89-.42 6.82-.43 1.95-1.31 3.61-2.65 4.99s-3.24 2.44-5.69 3.21c-2.45.75-5.63 1.24-9.55 1.44-3.03.16-6.04.01-9.05-.44s-5.67-1.14-7.97-2.08l1.48-9.24c2.44.61 4.9 1.08 7.38 1.43 2.48.34 5.08.43 7.79.29 1.52-.08 2.74-.21 3.68-.42.93-.21 1.65-.54 2.15-1.02.49-.46.81-1.06.96-1.77.14-.72.19-1.62.14-2.72-.06-1.15-.17-2.08-.31-2.81a2.82 2.82 0 0 0-1.11-1.74c-.6-.44-1.5-.81-2.69-1.11-1.2-.3-2.88-.64-5.04-1-3.17-.51-5.73-1.1-7.68-1.75-1.95-.66-3.45-1.55-4.54-2.67-1.08-1.12-1.83-2.58-2.27-4.38-.44-1.81-.73-4.12-.87-6.94-.13-2.61.01-4.83.43-6.69.43-1.85 1.29-3.4 2.59-4.64 1.29-1.25 3.09-2.2 5.38-2.87 2.3-.67 5.25-1.1 8.86-1.29 2.29-.12 4.78-.12 7.46 0s5.5.42 8.45.88l-.66 9.87c-3-.37-5.6-.61-7.77-.73-2.19-.12-4.45-.12-6.8 0-1.31.07-2.37.19-3.2.36-.83.18-1.47.46-1.92.86-.45.39-.76.9-.91 1.54-.15.63-.2 1.43-.15 2.37.07 1.25.17 2.23.31 2.93.14.71.51 1.26 1.08 1.67.56.42 1.43.77 2.6 1.05s2.78.6 4.84.97c3.55.65 6.33 1.36 8.37 2.11 2.02.76 3.57 1.71 4.62 2.84 1.06 1.12 1.73 2.54 2.03 4.26.3 1.71.51 3.85.65 6.42M391.44 224.4l2.19 41.77-11.75.61-2.19-41.77-14.03.74-.54-10.42 39.8-2.08.54 10.42-14.02.73zM478.86 209.6c-.73 0-1.5.03-2.3.07l-21.7 1.14 2.73 52.17 11.75-.61-.85-16.22 6.9-.36 12.36 15.62 13.95-.74-13.55-17.19c2.61-1.25 4.45-2.98 5.54-5.21s1.55-4.99 1.38-8.28l-.34-6.42c-.13-2.46-.56-4.59-1.28-6.42-.73-1.81-1.81-3.31-3.26-4.46-1.45-1.16-3.28-1.99-5.51-2.51-1.67-.38-3.61-.57-5.82-.58zm-.72 10.51c1.53.08 2.64.42 3.34 1 .93.8 1.45 2.18 1.56 4.17l.21 4.15c.1 1.99-.24 3.45-1.02 4.41-.79.96-2.44 1.51-4.95 1.64l-9.32.49-.81-15.36 9.33-.49c.6-.03 1.15-.03 1.66-.01zM539.02 243.95c.14 2.62-.01 4.89-.43 6.83-.43 1.93-1.31 3.6-2.65 4.98s-3.24 2.45-5.68 3.21c-2.45.75-5.63 1.24-9.55 1.44-3.03.17-6.05.01-9.06-.43-3.01-.45-5.66-1.15-7.96-2.08l1.47-9.25c2.45.62 4.91 1.08 7.39 1.43 2.48.34 5.07.44 7.79.3 1.51-.08 2.74-.22 3.67-.43s1.65-.54 2.15-1.01c.49-.47.82-1.07.97-1.78.14-.71.18-1.62.13-2.72-.06-1.14-.16-2.08-.31-2.8-.14-.72-.51-1.3-1.11-1.74s-1.49-.81-2.69-1.12c-1.19-.3-2.88-.64-5.04-.99-3.17-.52-5.73-1.1-7.67-1.75-1.95-.66-3.46-1.55-4.54-2.67s-1.84-2.58-2.28-4.39c-.43-1.81-.72-4.12-.87-6.94-.14-2.6.01-4.83.44-6.69.42-1.85 1.29-3.39 2.58-4.64 1.3-1.24 3.09-2.2 5.39-2.87s5.25-1.09 8.85-1.28a77.96 77.96 0 0 1 15.92.87l-.66 9.88c-3.01-.37-5.61-.62-7.79-.74-2.17-.12-4.44-.12-6.79 0-1.3.07-2.37.2-3.2.37s-1.47.46-1.92.85-.75.9-.9 1.54c-.15.63-.2 1.42-.15 2.37.06 1.25.17 2.24.31 2.93.14.71.5 1.27 1.07 1.68s1.44.76 2.61 1.05c1.16.28 2.78.59 4.84.96 3.54.65 6.33 1.36 8.36 2.12s3.57 1.71 4.62 2.83c1.06 1.12 1.74 2.55 2.04 4.26.29 1.72.51 3.86.65 6.42M433.49 211.75l-15.66.82-13.18 53.02 12.23-.65 2.28-10.33 17.48-.91 3.35 10.03 12.22-.64-18.72-51.34zm-7.29 10.75l7.1 21.55-11.98.63 4.88-22.18z"/>
    </g>
</svg>
