<svg width="258.031" height="179.945" viewBox="0 0 68.271 47.61" xmlns="http://www.w3.org/2000/svg"><path d="M108.822 152.885H3.229v-37.306h105.593v37.306z" fill="#f36018" style="fill:#c90848;fill-opacity:1;stroke-width:.169846" transform="matrix(.64655 0 0 .64655 -2.088 -51.236)"/><path d="M108.822 115.579H3.229V79.246h105.593v36.333z" fill="#f36018" style="opacity:1;fill:#000;fill-opacity:1;stroke-width:.167615" transform="matrix(.64655 0 0 .64655 -2.088 -51.236)"/><path d="M73.572 90.057c-5.26 0-7.149 2.057-7.149 5.187v4.595c0 1.554-.302 1.851-.8 1.859-.511-.008-.803-.375-.803-1.859v-9.396h-6.352c-2.274 0-3.973 1.065-5.167 4.237l-2.07 6.02c-.195.535-.428.619-.676.62-.285 0-.558-.176-.746-.77l-.698-1.483c1.726-.806 2.327-2.165 2.327-3.663v-.464c0-2.456-1.42-4.497-7.22-4.497h-24.07v4.887h3.944l.003-1.025c0-.325.262-.587.589-.587l1.586.002-.003 9.009c0 1.67 1.359 3.022 3.035 3.022l3-.001v-3.381l-.04.004a1.086 1.086 0 0 1-1.084-1.085V93.72l1.589-.002c.326 0 .588.262.588.587v1.025h3.825v-.054 6.021c0 .596-.484 1.08-1.086 1.08l.001 3.37h6.038l.002-5.83.505.004c.803 0 1.506.38 1.866 1.037l2.503 4.79h5.035c2.219 0 2.696-.486 3.42-2.3l.882-2.465h3.55l-.005 4.764h32.443v-4.996h-3.979l.004 1.027a.586.586 0 0 1-.59.582l-3.544-.009v-2.776h2.977v-3.234h-2.977v-2.628l3.544.002c.327 0 .59.263.59.589l-.004 1.026h3.98v-4.887l-13.055.011v1.273c-1.113-.996-2.939-1.67-5.708-1.67zm-.01 3.6c1.22 0 2.208.4 2.208 2.265l-.007.097h3.594l.08 3.933-3.667.004v.126c0 1.867-.988 2.267-2.207 2.267h-.002c-1.22 0-2.206-.4-2.206-2.267v-4.16c0-1.865.986-2.266 2.206-2.266zm-31.432.057h1.917c1.873 0 2.28.664 2.28 1.456v.003c0 .792-.403 1.434-2.272 1.434l-1.925-.004zm17.753.588v3.438l-2.575-.003.462-1.19c.75-1.792 1.276-2.245 2.113-2.245z" fill="#fff" style="fill:#fff;stroke-width:.154105" transform="matrix(.64655 0 0 .64655 -2.088 -51.236)"/><g fill="#fff" stroke-width="3.055" aria-label="TOCA" style="fill:#fff"><path d="M-433.93 415.58v-9.753h-37.253v9.753h13.127v39.086h11V415.58ZM-392.32 420.05c0-7.407-5.133-14.96-18.92-14.96-13.787 0-18.92 7.553-18.92 14.96v20.386c0 7.407 5.133 14.96 18.92 14.96 13.787 0 18.92-7.553 18.92-14.96zm-11 19.433c0 3.813-2.42 6.16-7.92 6.16s-7.92-2.347-7.92-6.16v-18.48c0-3.813 2.42-6.16 7.92-6.16s7.92 2.347 7.92 6.16zM-374.04 421.81c0-4.253 1.393-6.747 6.82-6.747 3.52 0 8.36.44 12.613 1.174l1.54-9.607c-4.84-1.027-9.24-1.54-14.153-1.54-12.32 0-17.82 6.087-17.82 14.96v20.386c0 8.873 5.5 14.96 17.82 14.96 4.913 0 9.313-.513 14.153-1.54l-1.54-9.607c-4.253.734-9.093 1.174-12.613 1.174-5.427 0-6.82-2.494-6.82-6.747zM-319.46 405.83h-14.666l-14.886 48.839h11.44l2.64-9.533h16.353l2.64 9.533h11.44zm-7.333 9.68 5.573 20.46h-11.22z" style="fill:#fff" transform="translate(112.971 -51.685) scale(.20291)"/></g></svg>