<svg version="1.1" viewBox="0 0 800 122" xml:space="preserve" xmlns="http://www.w3.org/2000/svg"><defs><linearGradient id="j" x1="4329.8" x2="4767.5" y1="2175.6" y2="1737.9" gradientUnits="userSpaceOnUse"><stop stop-color="#F17429" offset="0"/><stop stop-color="#F0DC1C" offset="1"/></linearGradient><linearGradient id="b" x1="4847.5" x2="5392" y1="1770.9" y2="1770.9" gradientUnits="userSpaceOnUse"><stop stop-color="#C1D951" offset="0"/><stop stop-color="#64B688" offset="1"/></linearGradient><linearGradient id="f" x1="4991" x2="5470.7" y1="1957.1" y2="1957.1" gradientUnits="userSpaceOnUse"><stop stop-color="#D4E48B" offset="0"/><stop stop-color="#95D19E" offset="1"/></linearGradient><linearGradient id="a" x1="4405.1" x2="4901.7" y1="2305.2" y2="2018.4" gradientUnits="userSpaceOnUse"><stop stop-color="#F99E6C" offset="0"/><stop stop-color="#F8F388" offset="1"/></linearGradient><linearGradient id="g" x1="5119.8" x2="5119.8" y1="1488.4" y2="860.86" gradientUnits="userSpaceOnUse"><stop stop-color="#5CB257" offset="0"/><stop stop-color="#1282C7" offset="1"/></linearGradient><linearGradient id="c" x1="5166.3" x2="5522.4" y1="1158.7" y2="1189.9" gradientUnits="userSpaceOnUse"><stop stop-color="#229ED9" offset="0"/><stop stop-color="#1A85C6" offset=".65098"/><stop stop-color="#116BB3" offset="1"/></linearGradient><linearGradient id="k" x1="5143.2" x2="5545.8" y1="944.24" y2="-161.82" gradientUnits="userSpaceOnUse"><stop stop-color="#49C4F5" offset="0"/><stop stop-color="#3089C6" offset=".41961"/><stop stop-color="#164E97" offset="1"/></linearGradient><linearGradient id="e" x1="6391" x2="5657.4" y1="1041.1" y2="1308.2" gradientUnits="userSpaceOnUse"><stop stop-color="#1366A5" offset="0"/><stop stop-color="#474B9C" offset=".63922"/><stop stop-color="#7B3092" offset="1"/></linearGradient><linearGradient id="i" x1="5912.6" x2="5691.2" y1="936.88" y2="1411.8" gradientUnits="userSpaceOnUse"><stop stop-color="#0970B0" offset="0"/><stop stop-color="#3D55A2" offset=".38039"/><stop stop-color="#723A93" offset="1"/></linearGradient><linearGradient id="d" x1="6018.5" x2="5585.1" y1="174.52" y2="607.92" gradientUnits="userSpaceOnUse"><stop stop-color="#2F318B" offset="0"/><stop stop-color="#2D5EA9" offset=".63922"/><stop stop-color="#2A8BC7" offset="1"/></linearGradient><linearGradient id="h" x1="5720.8" x2="6326.2" y1="2317.9" y2="1596.4" gradientUnits="userSpaceOnUse"><stop stop-color="#FF179A" offset="0"/><stop stop-color="#92298A" offset=".72941"/><stop stop-color="#243C7A" offset="1"/></linearGradient><linearGradient id="l" x1="6046.1" x2="6925.8" y1="1957.5" y2="1957.5" gradientUnits="userSpaceOnUse"><stop stop-color="#DD1C95" offset="0"/><stop stop-color="#812B88" offset=".56078"/><stop stop-color="#253A7A" offset="1"/></linearGradient></defs>
<style type="text/css">
	.st0{fill:#FFFFFF;}
	.st1{fill:#0767B0;}
	.st2{fill:#00A44F;}
	.st3{fill:#EA2127;}
	.st4{fill:#221F1F;}
</style>


<g transform="scale(.050495)" clip-rule="evenodd" fill-rule="evenodd" image-rendering="optimizeQuality" shape-rendering="geometricPrecision"><path class="fil0" d="m4209 2347c152-260 305-520 457-780 74 136 148 272 222 409-226 124-453 247-679 371z" fill="url(#j)"/><path class="fil1" d="m4666 1567c303 0 605 0 908-1-228 136-457 273-685 409-74-136-148-272-222-409z" fill="url(#b)"/><path class="fil2" d="m4888 1976c70 124 140 248 210 372 159-261 317-521 476-782-228 136-457 273-685 409z" fill="url(#f)"/><path class="fil3" d="m4209 2347c226-124 453-247 679-371 70 124 140 248 210 372-296 0-592-1-889-1z" fill="url(#a)"/><path class="fil4" d="m4666 1567c150-261 299-523 449-784 153 261 306 523 459 784-303 0-605 0-908 1z" fill="url(#g)"/><path class="fil5" d="m5115 782h459v784c-153-261-306-523-459-784z" fill="url(#c)"/><path class="fil6" d="m5115 782c153-261 306-522 459-782v782h-459z" fill="url(#k)"/><path class="fil7" d="m6473 1567c-148-261-296-523-444-784-152 261-304 523-456 784 300 0 600 0 900 1z" fill="url(#e)"/><path class="fil8" d="m6029 782h-455v784c152-261 304-523 456-784z" fill="url(#i)"/><path class="fil9" d="m6029 782c-152-261-303-522-455-782v782h455z" fill="url(#d)"/><path class="fil10" d="m5574 1566c158 261 315 521 473 782 142-260 285-521 427-781-300 0-600 0-900-1z" fill="url(#h)"/><path class="fil11" d="m6473 1567c-142 260-285 521-427 781 293 0 587-1 880-1-151-260-302-520-452-780z" fill="url(#l)"/><path class="fil12" d="m0 69v602h615v1677h699v-1677h615v-602h-1928z" fill="#0c4c8f"/><path class="fil12" d="m2194 69v2278h712v-671h140c111 224 222 447 333 671h756c-130-273-261-545-391-818 14-6 29-13 59-33s75-55 120-104 91-113 123-178c32-66 50-134 59-222s9-196-1-285-31-160-69-231c-38-70-94-140-162-199s-147-107-250-140-230-50-337-59-194-9-373-9h-719zm712 577v472h139c49 0 102 0 154-9s104-27 140-55c36-29 57-68 68-111 10-43 10-89-2-131s-36-78-72-105-83-44-131-52c-47-8-94-8-144-8h-153z" fill="#0c4c8f"/><path class="fil12" d="m6986 69v2278h698v-1078c275 359 551 719 826 1078h515v-2278h-699v1049c-266-350-532-699-797-1049h-544z" fill="#0c4c8f" Googl="true"/><path class="fil12" d="m9611 1535c-129 150-259 300-388 451 58 50 116 101 175 145s119 81 186 116 142 68 231 94c90 26 194 44 294 53 99 9 193 9 275 3 82-7 153-20 225-45s146-62 207-104 110-90 150-138c39-48 70-96 93-152 24-56 41-121 50-200 9-80 9-175-4-256s-38-148-78-210c-40-61-94-117-165-168-71-50-158-96-252-132s-195-63-271-85-127-40-169-60-76-42-93-73-17-72-2-101c15-28 46-44 88-52 43-8 98-7 149 2s99 26 150 49 104 52 153 82c48 30 91 61 133 92 111-157 222-314 333-472-70-56-139-111-204-154s-126-72-188-97-124-45-187-60-128-25-209-30-179-5-277 10-196 45-276 83c-81 38-144 85-191 129-46 44-76 84-104 131s-56 101-74 151-27 97-31 148-3 106 12 179 44 163 86 237 95 131 163 180c68 50 151 91 240 126 90 35 187 62 266 87s141 48 184 67 67 34 84 51 25 35 30 60c4 24 4 54-6 78-11 24-32 41-57 53-25 13-54 21-90 25s-80 4-123-2-85-18-123-32c-38-15-73-32-108-52s-70-43-118-77c-48-35-109-82-169-130z" fill="#0c4c8f"/><path class="fil12" d="m11261 69v518h894v1760h559v-1760h724c354 610 709 1220 1063 1829 447-782 895-1565 1342-2347h-602c-246 444-493 888-739 1333-252-444-505-888-757-1333h-2484z" fill="#0c4c8f"/></g></svg>
