<svg Googl="true" version="1.1" viewBox="0 0 800 283.47" xmlns="http://www.w3.org/2000/svg">
 <path d="m262.7 158.19h-0.73948c-8.9971 14.297-23.848 18.426-40.733 18.426-11.524 0-22.801-3.1428-31.366-9.2436v113.76h-12.941v-15.406h-0.43136c-8.4425 12.448-23.602 17.748-35.803 17.748-28.717 0-48.991-20.644-48.991-48.436 0-27.731 20.274-48.375 48.991-48.375 12.202 0 27.361 5.2996 35.803 17.686h0.43136v-54.475c-1.1708-3.4509-1.972-7.1484-1.972-11.339 0-41.226 48.128-44.123 79.864-44.123h7.8878v-3.4509c0-15.591-12.14-23.787-29.086-23.787-13.187 0-25.389 5.2996-33.831 13.187l-16.638-16.638c13.989-14.297 33.831-20.336 53.921-20.336 54.229 0 54.229 39.131 54.229 57.125v72.963h-28.593zm198.92-37.036c2.0952 18.734 16.392 30.134 34.078 30.134 15.899 0 26.19-7.3949 34.14-17.193l22.739 17.193c-11.647 14.297-25.759 21.753-41.041 24.28v13.434h26.56v11.832h-26.56v54.291c0 13.804 5.2996 16.577 13.372 16.577 4.5602 0 9.4901-1.4174 13.372-3.5742l0.61624 12.017c-4.745 2.1568-11.031 3.3277-17.501 3.3277-9.8598 0-22.862-4.3137-22.862-24.588v-82.268c-38.145-0.12324-68.649-26.806-68.649-66.615 0-39.932 30.627-66.615 68.957-66.615 35.495 0 59.529 24.834 59.529 69.019v8.7506zm282.55 52.75h-33.338v-55.831h-55.77v-33.338h55.77v-55.77h33.338v55.77h55.831v33.338h-55.831zm-397.35-0.43137-51.826-126.95h34.633l33.831 88.862h0.55462l34.14-88.862h32.537l-49.977 126.95zm-305.28 3.1428c-33.585 0-41.473-15.036-41.473-44.924v-130.7h31.736v45.54h34.879v26.991h-34.879v55.523c0 12.694 3.6974 20.644 17.686 20.644 5.5461 0 13.249-1.0476 17.193-4.0056v26.745c-6.5938 3.1428-17.686 4.1904-25.143 4.1904zm111.48-103.1c-29.888 0-34.14 25.143-34.14 31.983v67.971h-31.736v-126.95h31.736v17.933h0.55462c6.8402-14.543 20.829-21.075 37.529-21.075 3.9439 0 7.6414 0.73949 11.339 1.8487v30.627c-5.238-1.2941-10.291-2.3417-15.283-2.3417zm141.49 161.52c0-27.731 20.274-48.375 46.464-48.375 27.977 0.18487 44.061 20.829 44.061 46.033v5.9159h-76.722c1.6022 18.487 15.529 33.092 33.831 33.092 13.804 0 24.403-7.703 29.518-15.961l10.045 8.2576c-10.846 13.742-24.403 19.473-39.562 19.473-27.361 0-47.635-20.644-47.635-48.436zm428.78 3.5742c1.5406 18.487 15.529 33.092 33.831 33.092 13.742 0 24.403-7.703 29.518-15.961l10.045 8.2576c-10.846 13.742-24.403 19.473-39.562 19.473-27.361 0-47.635-20.644-47.635-48.436 0-27.731 20.274-48.375 46.464-48.375 27.916 0.18487 44.061 20.829 44.061 46.033v5.9159zm-476.54 27.916h0.36974l29.333-77.523h14.728l-37.344 92.128h-14.605l-37.344-92.128h15.529zm376.52 14.605c-0.55461-4.9299-0.55461-9.8598-0.55461-14.79h-0.36975c-5.731 10.045-18.734 17.131-30.935 17.131-23.417 0-34.633-13.187-34.633-35.988v-58.481h13.003v50.963c0 20.459 5.731 31.675 25.019 31.675 2.7731 0 27.916-1.7255 27.916-35.372v-47.265h13.003v71.853c0 4.9299 0.55462 13.557 0.98599 20.274zm-558.56 0c-0.36975-4.6834-0.18488-8.0727-0.18488-13.003h-0.36974c-7.5181 12.202-17.686 15.344-32.476 15.344-16.33 0-31.675-9.0587-31.675-26.93 0-29.949 35.249-31.921 57.248-31.921h6.5321v-2.3417c0-15.961-7.703-23.787-23.664-23.787-10.784 0-20.274 3.6974-28.1 10.784l-7.8878-9.2436c8.4425-8.6273 21.63-13.372 38.946-13.372 18.117 0 33.647 10.23 33.647 32.661v41.103c0 7.0867-0.18487 15.776 0.55462 20.706zm508.4-281.13h31.736v173.47h-31.736zm-395.62 235.03c0-20.644-15.529-36.605-36.789-36.605-21.445 0-34.817 15.961-34.817 36.605 0 20.706 13.372 36.605 34.817 36.605 21.26 0 36.789-15.899 36.789-36.605zm489.35-28.902h0.36974c3.6974-9.8598 13.372-19.473 29.518-19.473 3.6974 0 6.8402 0.36974 9.6133 1.1708l-2.5266 12.818c-1.6022-0.61624-3.9439-0.98598-7.5181-0.98598-19.658 0-28.47 17.131-28.47 29.518v51.949h-13.003v-63.349c0-8.3192-0.43137-15.344-0.80111-28.778h12.818zm-405.98-89.539h-6.5938c-17.44 0-47.635 1.3557-47.635 19.596 0 11.647 11.955 16.638 22.246 16.638 21.692 0 31.983-11.339 31.983-29.086zm265.78-19.288c-0.24649-18.487-12.386-30.134-32.229-30.134-18.795 0-30.442 11.893-32.784 30.134zm-155.78 130.7c0-17.563-11.216-29.518-29.888-29.518-16.885 0-32.291 14.358-32.291 29.518zm414.97 0c0-17.563-11.216-29.518-29.888-29.518-16.947 0-32.291 14.358-32.291 29.518zm-722.05 7.2716h-6.717c-13.187 0-42.89 0.98598-42.89 19.473 0 12.202 11.216 16.947 21.63 16.947 18.918 0 27.977-13.434 27.977-29.764zm335.05-46.279c0.36974 6.717 0.98598 15.344 0.98598 20.274v71.853h12.941v-47.265c0-33.647 25.204-35.372 27.977-35.372 19.288 0 24.958 11.216 24.958 31.675v50.963h13.003v-58.481c0-22.801-11.216-35.988-34.633-35.988-12.202 0-25.143 7.0867-30.874 17.131h-0.43137c0-4.9299 0-9.8598-0.55461-14.79z" fill="#fff" stroke-width="6.1624"/>
</svg>
