<?xml version="1.0" encoding="UTF-8" standalone="no"?>
<svg
   xmlns:dc="http://purl.org/dc/elements/1.1/"
   xmlns:cc="http://creativecommons.org/ns#"
   xmlns:rdf="http://www.w3.org/1999/02/22-rdf-syntax-ns#"
   xmlns:svg="http://www.w3.org/2000/svg"
   xmlns="http://www.w3.org/2000/svg"
   id="svg2"
   version="1.1"
   width="600"
   height="219.55">
  <defs
     id="defs52" />
  <metadata
     id="metadata4">
    <rdf:RDF>
      <cc:Work
         rdf:about="">
        <dc:format>image/svg+xml</dc:format>
        <dc:type
           rdf:resource="http://purl.org/dc/dcmitype/StillImage" />
        <dc:title></dc:title>
      </cc:Work>
    </rdf:RDF>
  </metadata>
  <path
     d="m 511.03828,0.1156 -28.992,0 50.64,109.64 -51.73,109.79 28.992,0 49.46,-109.79 -48.37,-109.64 z"
     id="path8"
     style="fill:#2fb2e2;fill-rule:nonzero" />
  <path
     d="m 519.41828,109.7256 -0.0107,0 -50.052,-109.61 -469.36,0 0,133.81 c 0,47.251 38.303,85.555 85.555,85.555 l 0,0.0215 383.49,0 50.362,-109.76 0.0107,0 -0.0107,-0.0107 0.0107,-0.0107 z"
     id="path10"
     style="fill:#2fb2e2;fill-rule:nonzero" />
  <path
     d="m 64.002888,120.2056 c 0,26.875 20.632,30.874 27.752,30.874 l 17.094002,0 c 1.657,0 2.5764,-0.73762 2.5764,-2.0312 l 0,-15.993 c 0,-1.657 -0.41692,-3.0254 -1.6998,-3.0254 -1.2828,0 -9.0761,-0.0321 -12.208002,-0.0321 -5.1955,0 -8.0177,-4.693 -8.0177,-8.007 l 0,-29.933 18.933002,0 c 1.8387,0 2.2022,-1.657 2.2022,-1.657 l 0,-17.276 c 0,-2.2022 -2.2022,-2.5764 -2.2022,-2.5764 l -18.323002,0 0,-28.308 c 0,-2.2129 -2.7581,-1.8388 -2.7581,-1.8388 0,0 -20.226,6.6173 -21.52,6.799 -1.2828,0.18174 -1.828,0.73763 -1.828,1.8387 l 0,71.165 z"
     id="path12"
     style="fill:#ffffff;fill-rule:nonzero" />
  <path
     d="m 117.35828,72.9356 c 0,-2.5764 1.8387,-2.7581 3.1216,-2.7581 l 14.592,0 c 1.9349,0 2.3305,1.2828 2.694,2.2022 0.37416,0.91937 4.0409,9.5571 4.0409,9.5571 0,0 7.3549,-12.679 24.641,-12.679 2.0205,0 2.2022,2.0205 2.2022,4.2334 l 0,16.933 c 0,1.0263 -0.91937,2.5443 -2.2022,2.5443 -1.2935,0 -18.206,0.73763 -22.802,6.0721 l 0,50.736 c 0,1.8387 -1.1011,1.1011 -2.7581,1.1011 -1.657,0 -20.771,0.37415 -21.872,0.37415 -1.1011,0 -1.5608,-1.4753 -1.5608,-2.7581 0,-1.2935 -0.0962,-75.559 -0.0962,-75.559"
     id="path14"
     style="fill:#ffffff;fill-rule:nonzero" />
  <path
     d="m 200.92828,70.5656 c -2.0402,0.0187 -3.5781,0.16572 -4.2756,0.16572 l -20.284,0 c -1.1118,0 -2.4858,0.29096 -2.4858,1.3921 0,1.10114 -0.0994,15.591 -0.0994,16.97 0,1.379 0.66522,2.751 2.055,2.751 l 17.765,0 c 6.8418,0 8.6507,4.7463 8.6507,6.2643 l 0,4.8059 -9.6119,0 c -15.031,0 -32.283,3.0521 -32.283,23.599 0,15.715 9.5294,26.317 24.56,26.317 12.198,0 20.947,-9.3467 20.947,-9.3467 l 3.447,7.6895 c 0,0 16.293,0.0663 17.533,0.0663 1.2401,0 1.4584,-1.2746 1.4584,-2.3864 0,-1.1011 0.32071,-11.202 0,-46.833 -0.26926,-29.02 -18.537,-31.535 -27.377,-31.454 z m -2.3864,48.623 c 1.8025,-0.021 3.9442,0.0663 3.9442,0.0663 l 0,10.772 c -1.208,2.1915 -13.235,7.2321 -15.18,0.49716 -2.4908,-8.595 6.47,-11.013 9.645,-11.269 0.43563,-0.0374 0.99009,-0.0593 1.5909,-0.0663 z"
     id="path16"
     style="fill:#ffffff;fill-rule:nonzero" />
  <path
     d="m 229.44828,73.3956 c -0.54521,-1.796 0.27795,-3.314 2.0739,-3.314 l 23.572,0 c 1.2508,0 1.935,1.1118 2.2129,2.8971 0.27794,1.796 11.31,57.77 11.31,57.77 0,0 10.893,-57.354 11.3,-58.733 0.41692,-1.3791 1.796,-1.657 3.175,-1.657 l 21.787,0 c 1.518,0 1.3791,1.657 1.1011,2.6191 -0.27795,0.96212 -23.166,78.178 -23.166,78.178 l -30.339,0 -23.027,-77.761 z"
     id="path18"
     style="fill:#ffffff;fill-rule:nonzero" />
  <path
     d="m 381.05828,49.4956 c 0,-0.96213 0.63073,-2.2557 2.0632,-2.8222 1.3684,-0.54521 20.825,-7.0663 21.958,-7.3442 1.6891,-0.42761 2.4481,0.97283 2.4481,2.2129 0,1.2508 -0.13896,77.355 -0.13896,80.252 0,2.8971 2.6191,7.8574 7.9963,7.8574 l 8.1353,0 c 1.1011,0 1.657,1.379 1.657,2.7581 l 0,16.549 c 0,1.3791 -0.82316,2.0632 -2.6191,2.0632 l -13.523,0 c -4.8213,0 -27.56,-3.7202 -27.56,-29.505 0,-25.774 -0.41693,-72.021 -0.41693,-72.021"
     id="path20"
     style="fill:#ffffff;fill-rule:nonzero" />
  <path
     d="m 342.12828,69.2756 c -13.374,0 -36.823,7.6901 -36.823,43.684 0,33.503 27.72,39.442 40.27,39.442 12.54,0 22.16,-5.2647 23.4,-6.0986 1.2401,-0.82316 2.0346,-1.3282 1.4252,-3.0493 -2.6084,-7.2587 -2.8241,-7.4799 -5.9991,-15.412 -0.5452,-1.379 -1.1004,-1.3781 -2.6184,-0.96119 -1.518,0.40622 -7.4662,3.246 -16.639,3.1819 -14.892,-0.1069 -14.252,-11.17 -14.252,-11.17 l 45.143,0 c 1.1011,-45.637 -20.533,-49.617 -33.907,-49.617 z m -1.3921,18.859 c 9.493,0 9.0484,15.081 9.0484,15.081 l -19.224,0 c 0,0 -0.066,-15.081 10.175,-15.081 z"
     id="path22"
     style="fill:#ffffff;fill-rule:nonzero" />
  <path
     d="m 274.93828,169.2456 2.0311,-3.8164 c 0,0 -5.9973,-4.1372 -12.754,-0.88729 -7.8039,3.7416 -6.5745,16.891 -4.8748,20.055 1.7104,3.175 5.6872,9.9099 17.628,4.8748 l -1.9563,-4.1372 c 0,0 -5.0351,3.3247 -9.0119,0.16036 -3.9875,-3.1643 -3.4102,-12.262 -1.2935,-15.191 2.106,-2.9292 7.216,-3.004 10.231,-1.0584"
     id="path24"
     style="fill:#ffffff;fill-rule:nonzero" />
  <path
     d="m 281.75828,163.6456 4.7893,0 0,11.535 10.07,-0.032 0,-11.503 4.8748,0 0,27.645 -4.9175,0 0.0427,-11.631 -10.07,-0.0107 0,11.642 -4.7893,0 0,-27.645 z"
     id="path26"
     style="fill:#ffffff;fill-rule:nonzero" />
  <path
     d="m 314.11828,163.6356 -8.6507,27.642 4.8722,0 1.7898,-6.0654 9.2142,0 1.9555,6.0654 5.2368,0 -8.7833,-27.642 -5.6346,0 z m 2.6847,5.7008 3.4802,11.634 -6.9272,0 c -0.0641,0 3.447,-11.634 3.447,-11.634 z"
     id="path28"
     style="fill:#ffffff;fill-rule:nonzero" />
  <path
     d="m 332.87828,163.6456 4.8106,0 10.263,18.12 0,-18.12 4.8641,0 0,27.645 -4.7679,0 -10.273,-18.612 0.0642,18.612 -4.9603,0 0,-27.645 z"
     id="path30"
     style="fill:#ffffff;fill-rule:nonzero" />
  <path
     d="m 364.91828,191.2956 -5.0031,0 0,-27.645 4.8427,0 10.177,18.174 0,-18.174 4.9924,0 0,27.645 -4.8106,0 -10.295,-18.516 0.0962,18.516 z"
     id="path32"
     style="fill:#ffffff;fill-rule:nonzero" />
  <path
     d="m 386.78828,191.2956 0,-27.645 16.709,0 0,4.2334 -11.781,0 0,7.2694 9.1723,0 0,4.3616 -9.2044,0 0,7.3336 11.813,0 0,4.4472 -16.709,0 z"
     id="path34"
     style="fill:#ffffff;fill-rule:nonzero" />
  <path
     d="m 408.94828,163.6456 5.0351,0 0,23.23 10.979,0 0,4.4151 -16.014,0 0,-27.645 z"
     id="path36"
     style="fill:#ffffff;fill-rule:nonzero" />
  <g
     transform="matrix(0.88849085,0,0,1.125504,64.06828,-191.0844)"
     style="font-style:normal;font-weight:normal;font-size:60.67215729px;line-height:125%;font-family:Sans;letter-spacing:0px;word-spacing:0px;fill:#2fb2e2"
     id="text38" />
  <g
     transform="matrix(0.92996028,0,0,0.92996028,96.699648,-114.6563)"
     id="g42"
     style="fill:#2fb2e2">
    <g
       transform="matrix(5.2843479,0,0,-5.2843479,480.63094,149.43662)"
       id="g44">
      <path
         d="m 0,0 2.253,0 0,1.931 2.252,0 0,-1.931 2.253,0 0,-2.092 -2.253,0 0,-2.091 -2.252,0 0,2.091 L 0,-2.092 0,0 Z"
         id="path46"
         style="fill:#2fb2e2;fill-rule:nonzero" />
    </g>
    <path
       d="m 519.78,136.47 7.3951,0 0,44.214 14.03,0 0,-57.393 -21.425,0 z"
       id="path48"
       style="fill-rule:nonzero" />
  </g>
</svg>
