<svg version="1.1" viewBox="0 0 800 184.01" xml:space="preserve" xmlns="http://www.w3.org/2000/svg">
	<g transform="matrix(2.8626 0 0 2.7184 -.00085877 0)" fill="#fff">
		<path d="m156.93 61.779c-6.423 1.361-8.455-8.2078-8.455-15.577 0-7.3696 0.725-13.967 6.207-14.235 5.382-0.2639 5.859 5.9031 5.804 8.2974v12.547c0 3.6525 0.202 8.171-3.556 8.9675zm31.969-19.584c-4.788-1.8462-7.087-4.3163-7.025-6.7102 0.074-2.9828 3.23-3.2675 4.263-3.287 1.553-0.0288 8.202 0.7677 10.793 10.83h0.941l-0.924-10.116c-2.768-1.5934-6.486-2.4666-9.712-2.4666-3.227 0-12.285 1.7234-12.357 11.174-0.071 9.4056 7.246 11.646 10.821 13.224 2.348 1.0364 6.956 2.8884 6.816 7.1311-0.103 3.1242-2.621 4.0622-4.7 3.8999-2.697-0.2107-9.096-3.6968-11.729-14.604l-0.911-0.0222v10.949c-1.645-0.0855-2.955-1.4807-2.955-3.1943l0.028-20.252 0.019-26.665v-4.5611l-0.396-0.38981c-4.42 2.4063-12.038 4.4977-16.903 5.1203l8e-3 0.6839c2.538 0.9353 4.354 3.4307 4.354 6.3612l-0.044 11.293c-2.879-0.7464-9.204-1.1446-15.056 1.9624-4.873 2.5535-8.91 7.366-9.006 15.781 0 13.99 7.58 18.175 13.582 18.224 4.6-0.0018 8.224-1.9939 10.535-4.8769l0.013 5.3913 0.37 0.4178c4.215-1.9211 11.164-3.3726 16.06-3.8006 1.828 1.6542 5.436 3.946 12.031 3.9984 7.864 0.0634 12.193-6.5129 12.189-12.82-5e-3 -6.7679-5.423-10.486-11.105-12.675z"/>
		<path d="m81.195 31.051c5.3971-0.1428 5.5488 9.0561 5.3545 12.84h-11.015c-0.0431-5.1421 0.7312-12.711 5.6604-12.84zm14.552 23.422c-0.7743 1.1965-2.3925 4.3358-8.9763 4.3358-6.5829 0-10.879-6.8885-11.138-13.129l21.068-0.0213c-0.7597-9.0335-7.2029-16.138-15.682-16.138-5.3478 0-10.105 2.7997-13.162 7.1501 0.0332-0.3663 0.0505-0.7406 0.0403-1.1242-0.0732-2.7362-1.7912-5.527-4.8409-5.5301-3.0023-0.0026-6.1364 2.3314-7.8792 5.9652 0.0129 0.0501-0.2781 0.0306-0.2781 0.0306v-6.1421l-0.3964-0.3898c-4.4201 2.4062-12.093 4.4977-16.958 5.1199l0.0088 0.6838c2.5376 0.9353 4.3523 3.4303 4.3523 6.3621v16.656c0 1.5765-0.2355 4.8374-2.9868 5.7394-3.0059-0.9455-3.1469-4.4902-3.1274-6.0374l-0.0053-54.102c3.4591-0.2723 12.463 1.4209 19.143 15.595h0.9543l-3.6107-19.497h-48.662l-3.6103 19.497h0.95391c6.6805-14.174 15.685-15.867 19.143-15.595l0.0239 54.385c0 3.3083-2.6071 5.9887-5.8228 5.9887l-0.7986 0.0133v1.385h45.204l-0.0084-1.3752h-0.6479c-1.7189 0-3.1132-1.4338-3.1132-3.2019v-17.086c-0.0355-1.9925 0.1823-5.2281 2.5065-5.3443 1.644-0.0834 2.5167 1.5096 3.0006 2.1074 0.5614 0.6922 1.5494 1.7428 3.0515 1.6116 0.6665-0.0586 1.2892-0.3069 1.8466-0.7012-0.663 2.0028-1.0257 4.1669-1.0257 6.426 0 10.266 7.4791 18.59 16.705 18.59 7.0721 0 13.118-4.8911 15.555-11.8z"/>
		<path d="m137.06 64.327c-1.719 0-3.114-1.4333-3.114-3.2019l-0.015-15.589-2e-3 -3.5535c0-8.6309-4.805-12.186-10.507-12.211-5.224-0.0222-9.114 2.5677-11.4 4.6591 0.012 0.0497-0.147 0.0297-0.147 0.0297v-4.5616l-0.396-0.3898c-4.419 2.4063-12.093 4.4977-16.958 5.1199l0.0089 0.6839c2.5371 0.9357 4.3522 3.4307 4.3522 6.362l-0.0142 19.451c0 1.7686-1.3938 3.2019-3.114 3.2019h-0.6475l-0.0084 1.3757h20.577l-3e-3 -1.3757h-0.647c-1.721 0-3.114-1.4333-3.114-3.2019v-19.909c0.024-1.5131-0.556-5.6254 4.142-6.0583l0.986-0.0044c4.644-0.0266 4.119 4.5456 4.142 6.0583v19.909l-5e-3 4e-3c0 1.7686-1.393 3.2019-3.112 3.2019h-0.649l-1e-3 1.3757h20.301l-8e-3 -1.3757z"/>
	</g>
	<path d="m654.55 183.88h-54.959l145.35-175.8h55.062zm42.861-7.6266 94.494-45.737-6.8313 53.364h-87.661zm11.024-160.55-94.601 45.637 6.9341-53.264h87.661z" stroke-width=".70537" fill="#fff"/>
</svg>
