<svg xmlns="http://www.w3.org/2000/svg" height="407.27" width="600" viewBox="0 0 158.75 107.757">
    <g fill="#00457d">
        <path style="text-decoration-color:#000;font-variant-numeric:normal;font-variant-ligatures:normal;text-decoration-line:none;font-variant-position:normal;mix-blend-mode:normal;solid-color:#000;font-feature-settings:normal;shape-padding:0;font-variant-alternates:normal;text-indent:0;font-variant-caps:normal;white-space:normal;text-decoration-style:solid;text-orientation:mixed;isolation:auto;text-transform:none" d="M22.988 0C10.012 0 0 11.95 0 26.07V81.7c0 14.11 10.012 26.06 22.988 26.06h112.78c12.96 0 22.98-11.95 22.98-26.06V26.07c0-14.12-10.02-26.07-22.99-26.07zm0 7.1h112.78c8.56 0 15.89 8.14 15.89 18.97V81.7c0 10.83-7.33 18.97-15.9 18.97H22.978c-8.564 0-15.894-8.14-15.894-18.97V26.07c0-10.83 7.33-18.97 15.899-18.97z" color="#000"/>
        <path d="M33.339 16.43c-4.812 1.08-9.698 2.16-14.534 3.2-.369 1.47-.761 3.14-.761 4.44 0 .61.073 1.2.22 1.74 2.775-.59 5.966-1.35 8.299-1.35.049.86-.639 3.51-.491 4.32l1.252-1.3c.491 0 2.234-.91 2.872-.91.172 0 .368.05.663.1v.49l-4.296 24.41-.172 2.65c2.553-3.64 4.787-6.83 6.039-8.18-1.252 4.49-2.013 8.4-2.013 12.08 1.792-.22 5.745-1.35 5.966-1.4.54-2.6 1.129-5.96 1.841-10.09.639-4.07 1.179-7.09 1.571-9.11.369-1.96.909-4.17 1.621-6.72-1.473 2.38-4.444 7.63-6.776 10.53.761-5.11 1.522-10.22 2.332-15.35l.712-1.03 7.537-1.69c-.221 1.08-1.252 2.87-1.792 3.9l6.727-1.99c.589-1.96.859-3.48.859-4.93 0-.44 0-.76-.049-.98-.884-.22-2.872 1.08-3.756.71l-.491.47v-3.29c-6.015.9-10.606 1.84-14.362 3.14.122-.17.81-3.14.982-3.86zM73.134 16.43l-13.822 2.43-4.837 25.93-.098 2.06c1.792-2.38 3.953-5.42 5.401-6.9-.908 5.38-1.768 10.68-2.651 16.01l5.744-.81c1.032-4.57 2.186-9.99 3.217-13.72 1.571-.4 3.461-.94 4.812-.94 1.031 0 1.964.27 2.774.84l-.712 1.99c.933-.37 1.939-.81 2.872-.81.172 0 .369.05.761.12 1.94.86 2.603 2.26 2.603 4.27 0 1.52-.86 5.43-.86 6.88 0 .49 0 .88.049 1.1.492.32.909.47 1.302.47 1.08 0 3.954-4.1 4.124-4.18-.66 1.7-1.2 3.42-1.2 4.94 0 .61.05 1.08.22 1.52 1.45-.22 4-.37 5.52-1.45 0-2.01 1.03-9.28 1.03-10.63 0-.88-.05-1.57-.22-2.18-.64.71-3.14 4.34-4.44 5.42 0-.64.59-3.09.59-4 .07-.22.07-.54.07-.98 0-2.11-.88-3.86-2.55-5.16 2.21-1.5 4.17-3.9 5.3-6.43.49-2.14.76-3.27.76-4.93 0-2.24-.54-3.86-2.11-5.33-.54.81-.98 1.25-1.35 1.25-.49 0-1.42-3.46-2.72-3.73-1.04-.66-2.165-.98-3.466-.98-2.382.36-4.812.76-7.095 1.2l-.27-.34c.098-.1 1.08-2.07 1.252-2.93zm-8.839 41.69c4.051 0 3.83-7.59 4.714-8.89-.442.86-4.345 6.02-4.714 8.89zm13.012-32.95l1.08 1.4c.148.54.271 1.03.271 1.48 0 1.49-.59 2.48-1.744 4.37-2.651 2.13-5.523 2.77-9.476 2.77.417-2.92.859-5.84 1.301-8.79 2.553-.86 4.542-1.35 6.874-1.35.442 0 .982.05 1.694.12zm5.036 3.07c.37.62.54 1.3.54 2.06 0 1.58-.64 2.88-1.79 4.25-1.527 1.23-2.165 1.62-3.467 1.84.639-2.4 2.284-4.61 4.717-8.15zm-12.622-5.4c-1.473 3.46-3.535 6.38-6.85 11.37l1.474-10.29zM100.663 16.43c-1.69.4-3.41.72-5.1 1.08l-1.48 8.52c2.41-2.38 3.17-3.53 6.58-9.6zm30.67 4.18l.88-3.42c-1.37.5-5.42.86-6.78 1.48-1.15 2.43-2.5 5.62-4.12 9.65-1.62 4-2.92 7.09-3.85 9.3a71.95 71.95 0 0 1-3.32 6.63l-.32-.32-.71-20.55c-.86 1.23-2.26 3.24-3.61 4.32-.29-1.57-.29-7.41-1.1-9.3l-8.35 1.5c-.05.12-.1.27-.15.44l-6.41 30.46c1.35-1.3 4.72-6.01 6.07-7.16-.2 1.15-2.7 10.14-3.14 14.26.88-.22 4.17-.64 5.42-1.13 1.3-5.25 3.64-14.71 5.6-21.14.64 5.26.76 9.87.76 17.19.69-.67 2.75-3.54 4.27-3.98-.22.98-.32 2.01-.32 3.04 0 1.31.32 4.89.32 6.24l5.85-.98 3.85-7.46c1.25-2.24 5.16-11.57 7.36-14.76-1.49 8.25-2.65 13.99-4.1 18.27 1.23-1.67 5.26-7.86 7.37-10.41-1.3 5.1-2.55 10.19-3.73 15.34l5.4-.98c2.33-8.62 5.2-18.81 6.24-25.8-.37.39-4.45 6.23-5.97 7.53 1.03-6.33 2.14-12.62 3.22-18.97-1.08 0-5.33.71-6.63.71zm-12.08 24.55l-.93 1.47c-.27-.71-.27-1.89-.27-2.99 0-1.5-.05-1.89-.2-2.31l-.44.15c2.65-4.62 5.84-9.26 9.47-13.92zm-15.94-12.52c.15.81.32 2.01.32 2.87 0 1.69-.44 2.92-1.57 3.76zM54.946 65.53v9.49q2.394-2.8 5.72-2.8 1.707 0 3.08.63 1.373.64 2.06 1.62.704.99.95 2.19.264 1.19.264 3.71v10.97h-4.946v-9.88q0-2.94-.281-3.73-.282-.79-1.004-1.25-.704-.48-1.777-.48-1.232 0-2.2.6-.969.6-1.426 1.82-.44 1.19-.44 3.55v9.37H50V65.53zM87.703 86.74v4.6H70.364q.282-2.61 1.69-4.93 1.408-2.34 5.562-6.2 3.347-3.11 4.097-4.22 1.02-1.53 1.02-3.03 0-1.65-.89-2.54-.88-.89-2.449-.89-1.549 0-2.464.93-.916.93-1.057 3.1l-4.928-.49q.44-4.09 2.763-5.87 2.324-1.77 5.809-1.77 3.816 0 6.006 2.06 2.18 2.05 2.18 5.12 0 1.74-.64 3.32-.61 1.57-1.97 3.3-.89 1.14-3.24 3.29-2.336 2.14-2.97 2.85-.616.7-1.003 1.37zM100.763 91.34v-5.2h-10.56v-4.33l11.19-16.38h4.16V81.8h3.2v4.34h-3.2v5.2zm0-9.54v-8.82l-5.93 8.82z"/>
    </g>
</svg>
