<svg version="1.1" viewBox="0 0 985.89 175.45" xmlns="http://www.w3.org/2000/svg">
 <defs>
  <style>.cls-1{fill:#f47f20;}.cls-2{fill:#fff;}</style>
 </defs>
 <g transform="scale(3.9436)" data-name="Layer 2">
  <g data-name="Layer 1">
   <g data-name="Layer 2">
    <g data-name="Layer 1-2">
     <path d="m57.47 28.73c3.23-2 5.41-6.29 5.41-10.61 0-8.66-7-12.6-13.44-12.6h-14.83a2.32 2.32 0 0 0-2.32 2.32v31.16h5.71a3.11 3.11 0 0 0 3.11-3.11v-5.14h7.13l5.76 8.25h9.61l-6.91-9.79zm-7.94-6.1h-8.44v-9.14h8.48a4.42 4.42 0 0 1 4.56 4.27 1.41 1.41 0 0 1 0 0.29 4.49 4.49 0 0 1-4.42 4.55h-0.14zm-49.53-15.44v6.4h10.73v25.41h5.73a3.12 3.12 0 0 0 3.12-3.1v-22.26h8.08a2.65 2.65 0 0 0 2.65-2.64v-5.5h-28.61a1.7 1.7 0 0 0-1.7 1.69zm65.75-1.69a1.7 1.7 0 0 0-1.75 1.68v6.4h10.77v25.42h5.74a3.11 3.11 0 0 0 3.11-3.11v-22.25h8.09a2.65 2.65 0 0 0 2.64-2.64v-5.5z" fill="#fff"/>
     <path class="cls-1" d="m104.41 0h145.59v44.49h-145.59z" fill="#f47f20"/>
     <path class="cls-2" d="m135.23 5.38h-11.59l-11.79 33.74h9.35l1.8-5.82h12.79l1.84 5.82h9.37zm-5.79 21h-4.21l4.21-15.08 4.2 15.08z"/>
     <path class="cls-2" d="m200.08 5.38h-11.59l-11.78 33.74h9.35l1.83-5.82h12.79l1.84 5.82h9.35zm-5.79 21h-4.21l4.21-15.08 4.21 15.08z"/>
     <path class="cls-2" d="m161.61 28.27-7.97-22.89h-9.67l14.35 33.74h6.59l14.35-33.74h-9.67z" fill="#fff"/>
     <path class="cls-2" d="m242.34 5.38-16.62 26.49h14.67v7.25h-29.35l16.35-26.29h-13.38l0.09-7.45z" fill="#fff"/>
    </g>
   </g>
  </g>
 </g>
</svg>
