<svg enable-background="new 0 0 966.5 103.58" version="1.1" viewBox="0 0 966.55 103.59" xmlns="http://www.w3.org/2000/svg" xmlns:xlink="http://www.w3.org/1999/xlink">
 <linearGradient id="a">
  <stop stop-color="#d2de26" offset="0"/>
  <stop stop-color="#d2de26" offset=".4299"/>
  <stop stop-color="#d2de26" offset=".5"/>
  <stop stop-color="#cdd925" offset=".5841"/>
  <stop stop-color="#c4cf24" offset=".6737"/>
  <stop stop-color="#b5c121" offset=".7658"/>
  <stop stop-color="#a0ac1d" offset=".8597"/>
  <stop stop-color="#859015" offset=".9541"/>
  <stop stop-color="#778210" offset="1"/>
 </linearGradient>
 <radialGradient id="b" cx="564.84" cy="28.497" r="85.067" fx="566.5" fy="2.8034" gradientTransform="translate(0 .02)" gradientUnits="userSpaceOnUse" xlink:href="#a"/>
 <radialGradient id="c" cx="598.45" cy="101.52" r="108.24" gradientTransform="translate(0 .02)" gradientUnits="userSpaceOnUse" xlink:href="#a"/>
 <radialGradient id="d" cx="608.86" cy="97.204" r="108.12" fx="606.92" fy="98.403" gradientTransform="translate(0 .02)" gradientUnits="userSpaceOnUse" xlink:href="#a"/>
 <g transform="translate(-477.11)" fill="#fff">
  <path d="m598.56 25.87h25.08c8.84 0 13.47 6.78 13.47 13.46 0 5.21-3.66 13.47-13.47 13.47h-25.08zm-19.11-23.63c-3.79 0-6.87 3.08-6.87 6.87v92.15h16.93c5.08 0 9.19-4.12 9.19-9.2v-15.19h21.06l17.07 24.39h28.33l-20.46-28.94 2.39-1.49c9.57-5.99 16.01-18.59 16.01-31.36 0-25.58-20.61-37.24-39.74-37.24h-43.91z"/>
  <path d="m482.14 2.24c-2.78 0-5.03 2.25-5.03 5.03v18.9h31.73v75.09h16.93c5.08 0 9.19-4.12 9.19-9.2v-65.89h23.9c4.33 0 7.82-3.5 7.82-7.82v-16.11z"/>
  <path d="m671.43 2.24c-2.77 0-5.02 2.25-5.02 5.03v18.9h31.73v75.09h16.93c5.08 0 9.19-4.12 9.19-9.2v-65.89h23.9c4.33 0 7.82-3.5 7.82-7.82v-16.11z"/>
 </g>
 <g transform="translate(-477.11)" fill="#d2de26">
  <path d="m829.25 50.78c8.14 1.04 17.31 9.03 17.31 23.08 0 16.13-9.91 27.52-31.96 27.52h-48.98v-94.06c0-2.8 2.27-5.08 5.08-5.08h43.75c17.9 0 29.3 10.95 29.3 27.52 0 12.58-8.58 19.38-14.5 20.42zm-43.51-7.11h25.16c7.99 0 13.32-5.03 13.32-12.73 0-6.96-5.48-11.54-11.99-11.54h-26.49zm26.64 40.55c9.03 0 13.61-4.88 13.61-12.28 0-7.55-5.33-12.28-12.87-12.28h-27.37v24.56z"/>
  <path d="m921.72 101.38h-67.47v-94.06c0-2.8 2.27-5.08 5.08-5.08h70.24v10.35c0 4.34-3.52 7.85-7.85 7.85h-47.34v22.34h50.61v10.05c0 4.34-3.52 7.85-7.85 7.85h-42.76v22.49h55.19v10.35c0 4.35-3.51 7.86-7.85 7.86z"/>
  <path d="m1002.7 101.38h-63.47v-94.06c0-2.8 2.27-5.08 5.08-5.08h15.05v80.94h51.2v10.35c-0.01 4.34-3.52 7.85-7.86 7.85z" Googl="true"/>
  <path d="m1183.9 101.38h-67.47v-93.45c0-3.14 2.55-5.69 5.69-5.69h69.63v10.35c0 4.34-3.52 7.85-7.85 7.85h-47.34v22.34h50.61v10.05c0 4.34-3.52 7.85-7.85 7.85h-42.76v22.49h55.19v10.35c0 4.35-3.51 7.86-7.85 7.86z"/>
  <path d="m1277 28.58-13.7 2.82c-3.31 0.68-6.61-0.98-8.14-3.99-3.19-6.25-9.94-10.08-17.82-10.08-10.06 0-16.13 5.62-16.13 12.28 0 5.03 2.22 8.58 9.91 10.06l21.31 4.29c16.13 3.4 26.04 13.02 26.04 28.41 0 19.24-15.83 31.22-39.36 31.22-20.72 0-38.92-9.62-41.43-29.45l14.82-3c3.39-0.69 6.72 1.06 8.29 4.14 3.77 7.41 11.01 10.7 20.25 10.7 11.54 0 17.61-5.47 17.61-12.58 0-5.62-2.66-9.03-11.54-10.8l-21.01-4c-11.84-2.52-26.04-9.02-26.04-28.41 0-17.76 14.5-30.19 37.73-30.19 20.12 0.02 35.36 10.97 39.21 28.58z"/>
  <path d="m1354.8 101.38h-67.47v-93.45c0-3.14 2.55-5.69 5.69-5.69h69.34v10.35c0 4.34-3.52 7.85-7.85 7.85h-47.05v22.34h50.61v10.05c0 4.34-3.52 7.85-7.85 7.85h-42.76v22.49h55.19v10.35c0 4.35-3.51 7.86-7.85 7.86z"/>
  <path d="m1435.8 101.38h-63.47v-93.45c0-3.14 2.55-5.69 5.69-5.69h14.44v80.94h51.2v10.35c-0.01 4.34-3.52 7.85-7.86 7.85z"/>
 </g>
 <path d="m582.19 84.81c-16.76 0-30.07-11.67-32.44-27.84-0.16-1.71-0.25-3.43-0.25-5.18s0.09-3.49 0.26-5.2c1.88-19.48 14.22-35.9 31.34-43.59 2.26-1.02 4.61-1.88 7.03-2.58-2.35-0.26-4.72-0.4-7.11-0.4-2.32 0-4.6 0.16-6.84 0.44-25.82 3.25-45.24 24.66-45.24 51.35 0 26.71 19.38 47.94 45.39 51.31 2.35-0.69 4.63-1.53 6.83-2.52 14.97-6.72 26.27-20.12 30.14-36.41-4.05 12.7-14.86 20.62-29.11 20.62z" fill="url(#b)"/>
 <path d="m631.49 43.52h-54.3v10.54c0 4.31 3.5 7.81 7.81 7.81h26.8c-0.15 0.78-0.31 1.55-0.5 2.31 0.24-0.76 0.46-1.52 0.65-2.31-0.19 0.79-0.41 1.56-0.65 2.31-3.86 16.29-15.17 29.69-30.14 36.41-2.2 0.99-4.48 1.83-6.83 2.52 2.38 0.31 4.81 0.48 7.29 0.48 2.28 0 4.49-0.15 6.66-0.41 25.77-3.08 43.65-23.93 43.65-51.09 0.01-2.35-0.14-5.16-0.44-8.57z" fill="url(#c)"/>
 <path d="m613.19 32 15.13-3.12c-6.54-17.15-22.4-26.5-40.15-28.46-2.42 0.7-4.77 1.56-7.03 2.58-17.11 7.69-29.45 24.1-31.34 43.59 2.33-16 15.2-27.63 31.25-27.63 11.39 0 19.61 4.03 24.99 10.46 1.77 2.09 4.48 3.13 7.15 2.58z" fill="url(#d)"/>
</svg>
