<svg Googl="true" version="1.1" viewBox="0 0 1087.6 231.98" xml:space="preserve" xmlns="http://www.w3.org/2000/svg">
<style type="text/css">
	.st0{fill:#FDC423;}
	.st1{fill:#FFFFFF;}
</style>

<g transform="scale(.54411)">
	<path class="st0" d="m787.7 272.4c-29.5-45.7-19-93.4-17.4-99.9 8-33.5 29.6-63.7 63.2-83 48.5-28 115.3-18.5 154 21.7 12 12.4 12.3 32.7 0.8 44.8-12.3 13-32.7 14.2-45.7 2.2-14-13-30-20.3-49.2-19.9-37.7 0.8-67.8 38.5-60.2 75.4 5.2 25.2 20.1 42.2 44.7 49.6 23.5 7.1 44.4 1.5 62.5-15.2 20.6-19 49.7-10.3 55.8 16.7 2.3 10.4-0.5 20-7.7 27.4-21.8 22.1-48.2 35.4-79.5 38.1-29.4 2.5-51.8-4.9-56.6-6.6-39.2-13.8-59.6-43.4-64.7-51.3"/>
	<path class="st0" d="m1308 272.3c-29.5-45.7-19-93.4-17.4-100 8-33.5 29.6-63.7 63.2-83 48.5-27.9 115.4-18.5 154 21.8 12 12.4 12.3 32.7 0.8 44.8-12.3 13-32.7 14.2-45.7 2.2-14-13-30-20.3-49.2-19.9-37.7 0.8-67.8 38.5-60.2 75.4 5.2 25.2 20.1 42.2 44.7 49.6 23.5 7.1 44.4 1.5 62.5-15.2 20.6-19 49.7-10.3 55.8 16.7 2.3 10.4-0.5 20-7.7 27.4-21.8 22.2-48.2 35.4-79.5 38.1-29.4 2.5-51.8-4.8-56.6-6.6-39.2-13.7-59.6-43.4-64.7-51.3"/>
	<path class="st0" d="m1728.7 310.3c-45.7 29.5-93.4 19-99.9 17.4-33.5-8-63.7-29.6-83-63.2-27.9-48.5-18.5-115.4 21.8-154 12.4-12 32.7-12.3 44.8-0.8 13 12.3 14.2 32.7 2.2 45.7-13 14-20.3 30-19.9 49.2 0.8 37.7 38.5 67.8 75.4 60.2 25.2-5.2 42.2-20.1 49.6-44.7 7.1-23.5 1.5-44.4-15.2-62.5-19-20.6-10.4-49.7 16.7-55.8 10.4-2.3 20 0.5 27.4 7.7 22.2 21.8 35.4 48.2 38.1 79.5 2.5 29.4-4.8 51.8-6.6 56.6-13.8 39.2-43.5 59.6-51.4 64.7"/>
	<path class="st0" d="m1962.3 209-0.6-0.6c-0.7-0.7-0.7-1.9 0-2.6l1.5-1.5c20.4-19.5 30.5-56.9 30.5-56.9 4.4-16.1 7.8-29.3 2.5-42.5-3-7.5-7.4-11.8-8.5-12.8-2-1.8-8.9-8-19.5-8.5-8.4-0.4-14.6 3.1-16.6 4.3-11.1 6.4-15.1 18-16.6 22.3-0.9 2.6-1.5 5.2-1.9 6.8-1.2 5.7-0.9 9.6-2.4 15.5-3.1 12.7-10.8 21.1-13.6 24.1-7.6 8.1-15.6 11.9-18.1 13.1-11.1 3.8-20 4.6-26.2 4.6-4.4 0-7.7-0.4-11-0.2v-142.8c0-17.2-14.1-31.3-31.3-31.3s-31.3 14.1-31.3 31.3v267.8c0 17.2 14.1 31.3 31.3 31.3s31.3-14.1 31.3-31.3v-58.4c5.2-1 14-2 24.4 0.1 4.8 1 19 4.1 30.8 16.6 3.6 3.8 10.7 13.3 13.6 24.1 2.3 8.6 0.7 12.1 4.2 22.3 1.5 4.5 3.3 8 4.5 10.3 1.4 2.4 5 8.1 12.1 12.1 2.6 1.5 8.6 4.3 16.6 3.9 1.6-0.1 11.3-0.7 19.5-8.2 5.3-4.9 7.6-10.4 8.5-12.8 14.8-36.9-32-99-33.7-100.1z"/>
	<path class="st1" d="m380 75.3h-114c-9.9 0-17.9 8-17.9 17.9v239.4h44c13.2 0 23.9-10.7 23.9-23.9v-39.5h54.7l44.4 63.4h73.6l-53.1-75.2 6.2-3.9c24.9-15.6 41.6-48.3 41.6-81.5-0.2-66.4-53.7-96.7-103.4-96.7m0.7 131.4h-65.1v-70h65.2c23 0 35 17.6 35 35-0.1 13.5-9.6 35-35.1 35"/>
	<path class="st1" d="m82.4 332.6h44c13.2 0 23.9-10.7 23.9-23.9v-171.2h62.1c11.2 0 20.3-9.1 20.3-20.3v-41.9h-219.6c-7.3 0-13.1 5.8-13.1 13.1v49.1h82.4z"/>
	<path class="st1" d="m574.3 332.6h44c13.2 0 23.9-10.7 23.9-23.9v-171.2h62.1c11.2 0 20.3-9.1 20.3-20.3v-41.9h-219.7c-7.2 0-13.1 5.8-13.1 13.1v49.1h82.4z"/>
	<path class="st0" d="m1236.9 107.5c-52.3-52.3-137-52.3-189.3 0s-52.3 137 0 189.3 137 52.3 189.3 0c52.2-52.3 52.2-137 0-189.3zm-82.2 61.7c4-5.5 10.5-8.8 17.2-8.8s13.2 3.2 17.2 8.7c1.8 2.5 1.3 5.9-1.2 7.7s-5.9 1.3-7.7-1.2c-2-2.7-5-4.2-8.3-4.2s-6.4 1.6-8.3 4.2c-1.1 1.5-2.8 2.3-4.5 2.3-1.1 0-2.3-0.3-3.3-1.1-2.4-1.7-2.9-5.1-1.1-7.6zm-59.2 0c4-5.5 10.5-8.8 17.2-8.8s13.2 3.2 17.2 8.7c1.8 2.5 1.3 5.9-1.2 7.7s-5.9 1.3-7.7-1.2c-2-2.7-5-4.2-8.3-4.2s-6.4 1.6-8.3 4.2c-1.1 1.5-2.8 2.3-4.5 2.3-1.1 0-2.3-0.3-3.3-1.1-2.3-1.7-2.9-5.1-1.1-7.6zm111 50.4c-4 13.5-12.5 25.7-23.8 34.3-11.7 8.9-25.7 13.6-40.4 13.6s-28.7-4.7-40.4-13.6c-11.3-8.6-19.8-20.8-23.8-34.3-1.2-3.9 1.1-8 5-9.2s8 1.1 9.2 5c6.6 22 27.2 37.3 50.1 37.3s43.6-15.3 50.1-37.3c1.2-3.9 5.3-6.1 9.2-5 3.7 1.2 5.9 5.3 4.8 9.2z"/>
	
		<path class="st0" d="m882.6 423c-2.1-2.2-3.9-4.6-5.6-7.1-1.3-1.9-2.6-3.9-3.9-5.8-0.3-0.5-0.7-0.9-1-1.3-0.8-1-2-1.4-3.2-1.4-2.1 0-4.3 0.1-6.4 0.1-3.5 0.1-6.9 0.2-10.4-0.3-2.2-0.3-4.2-0.9-6.1-2.1-1.6-1.1-2.2-2.5-2-4.3 0.1-2.1 0.8-4 1.8-5.8 1.7-3.1 3.8-5.9 6-8.7 1.3-1.7 2.6-3.3 3.8-5 0.9-1.2 1.2-2.6 0.7-4.1-0.8-2.2-1.6-4.5-2.4-6.7-1.1-3-2.1-6.1-2.7-9.3-0.4-2-0.5-4 0-6.1 0.5-2 1.7-3.1 3.6-3.6 2-0.5 4.1-0.4 6.1 0 3.7 0.7 7.2 2 10.8 3.3 1.7 0.6 3.5 1.2 5.2 1.8 0.4 0.1 0.9 0.2 1.4 0.2 1 0.1 1.9-0.3 2.6-0.9 1.7-1.3 3.4-2.5 5.1-3.9 2.7-2.1 5.5-4.2 8.5-5.9 1.8-1 3.8-1.8 5.9-1.9 1.6-0.1 3 0.2 3.9 1.5 0.6 0.8 1.1 1.7 1.5 2.6 0.8 1.8 1 3.7 1.2 5.6 0.3 3.5 0.1 7 0 10.5-0.1 1.6-0.1 3.1-0.1 4.7 0 1 0.2 2 0.9 2.7 0.5 0.6 1.1 1.1 1.8 1.5 2.5 1.7 5 3.4 7.5 5.2 2.2 1.6 4.3 3.2 6.2 5.2 1.2 1.2 2.1 2.7 2.6 4.3 0.6 1.7 0.3 3.1-0.8 4.5-1.3 1.7-3.1 2.8-5 3.7-3.4 1.6-6.9 2.6-10.5 3.6-1.8 0.5-3.7 1.1-5.5 1.6-1 0.3-1.9 0.9-2.4 1.8-0.4 0.7-0.6 1.4-0.9 2.1-1 3.4-2 6.8-3.1 10.2-0.7 2.1-1.5 4.1-2.6 6.1-0.9 1.6-2 3-3.6 4-1.4 1-2.9 0.9-4.4 0.3-1.6-0.3-3.2-1.5-4.5-2.9z"/>
	
</g>
</svg>
