<svg data-name="Laag 1" viewBox="0 0 800 232.9" xmlns="http://www.w3.org/2000/svg">
    <defs>
        <style>
            .cls-1{fill:#e1e2e3}
        </style>
    </defs>
    <g stroke-width="1.125">
        <path class="cls-1" d="M0 120.43v-8.599c.99-.484.743-1.53.98-2.318 2.149-7.091 6.415-12.809 11.288-18.122a119.3 119.3 0 0 1 8.655-8.497q5.526-4.919 11.435-9.364 10.67-8.093 21.96-15.296c5.75-3.67 11.502-7.339 17.276-10.951 9.128-5.707 18.29-11.368 27.451-17.051 7.361-4.581 14.857-8.914 22.51-12.932a164.04 164.04 0 0 1 32.426-13.022 98.932 98.932 0 0 1 12.831-2.87A85.685 85.685 0 0 1 179.935.53c.417 0 .957.146 1.047-.53h12.381c0 .485.383.541.777.541a34.688 34.688 0 0 1 8.362 1.126 22.724 22.724 0 0 1 8.092 3.376 7.98 7.98 0 0 1-.889.338c-2.566.607-5.166 1.125-7.71 1.812a192.65 192.65 0 0 0-24.422 8.362 258.04 258.04 0 0 0-29.781 15.104c-12.921 7.519-25.346 15.825-37.941 23.861-9.68 6.168-19.36 12.291-28.655 19.032-7.654 5.56-15.172 11.255-21.643 18.256a52.381 52.381 0 0 0-9.635 13.697c-2.791 6.1-3.534 12.302-.821 18.706 2.532 5.977 6.449 10.974 10.76 15.667a138.72 138.72 0 0 0 10.298 9.894c5.177 4.57 10.58 8.857 16.117 12.977q11.717 8.7 23.917 16.714c8.43 5.548 16.748 11.255 25.38 16.545a280.75 280.75 0 0 0 36.275 18.964 218.89 218.89 0 0 0 34.272 11.491c2.172.53 4.333 1.126 6.663 1.678a3.208 3.208 0 0 1-.518.315 136.07 136.07 0 0 1-16.354 3.68c-1.002.169-2.251-.304-3.039.765h-13.776c0-.394-.27-.517-.641-.54a92.562 92.562 0 0 1-10.501-1.328 128.96 128.96 0 0 1-22.251-5.56 199.21 199.21 0 0 1-32.358-14.632c-8.52-4.727-16.804-9.837-25.01-15.082-5.863-3.748-11.704-7.518-17.49-11.368-12.582-8.374-25.435-16.365-37.647-25.279a165.76 165.76 0 0 1-18.008-14.902 72.786 72.786 0 0 1-7.305-8.25 37.344 37.344 0 0 1-7.327-14.857c-.079-.349-.158-.608-.551-.675zM264.99 0c.18.833.855.529 1.317.518a79.067 79.067 0 0 1 11.255.619 101.45 101.45 0 0 1 13.64 2.87 147.91 147.91 0 0 1 21.059 7.383 215.59 215.59 0 0 1 19.392 9.724c6.944 3.872 13.72 8.014 20.473 12.19 5.785 3.556 11.413 7.214 17.13 10.714 10.77 6.652 21.542 13.281 31.976 20.462 7.057 4.851 13.968 9.894 20.529 15.397a121.22 121.22 0 0 1 11.49 10.771c4.998 5.437 9.466 11.255 11.796 18.436a23.973 23.973 0 0 1-1.036 17.164 51.222 51.222 0 0 1-10.13 14.823c-6.753 7.305-14.553 13.281-22.51 19.134-5.976 4.367-12.133 8.476-18.312 12.538q-14.148 9.297-28.397 18.593c-7.26 4.716-14.53 9.421-21.98 13.844-7.148 4.244-14.385 8.33-21.892 11.908a163.43 163.43 0 0 1-33.337 12.077 106.32 106.32 0 0 1-14.868 2.69 39.607 39.607 0 0 1-4.93.507c-.382 0-.731 0-.776.529h-13.506a.506.506 0 0 0-.506-.53 82.488 82.488 0 0 1-8.734-1.372 92.944 92.944 0 0 1-10.974-2.814 11.424 11.424 0 0 1 1.125-.383 209.09 209.09 0 0 0 28.003-8.092 250.04 250.04 0 0 0 33.585-15.194c10.017-5.38 19.63-11.401 29.106-17.67 11.964-7.879 23.917-15.87 35.42-24.468 5.932-4.423 11.717-9.004 17.22-13.945a115.06 115.06 0 0 0 9.105-9.004 58.526 58.526 0 0 0 10.298-15.014 20.169 20.169 0 0 0 1.576-11.064 32.37 32.37 0 0 0-5.796-13.956 84.323 84.323 0 0 0-15.926-16.714 226.06 226.06 0 0 0-18.447-13.686c-10.456-7.08-21.205-13.776-31.83-20.586-8.857-5.774-17.726-11.48-26.81-16.883a263.66 263.66 0 0 0-29.037-15.059A185.81 185.81 0 0 0 241.24 6.451l-5.808-1.407a20.889 20.889 0 0 1 6.956-3.14A40.518 40.518 0 0 1 252.056.53c.416 0 .956.146 1.047-.53zm230.68 134.7v-20.259c0-3.658-2.701-7.879-6.753-8.7a8.216 8.216 0 0 0-10.13 7.72c-.81 13.563-.169 27.159-.338 40.744v1.215c0 .653-.168.99-.911.99h-18.773c-.642 0-.9-.258-.856-.888v-.676c0-13.01-.247-26.022.09-39.02.237-9.444 3.174-18.077 10.13-24.886a24.356 24.356 0 0 1 14.226-6.674 26.472 26.472 0 0 1 13.101 1.362 24.412 24.412 0 0 1 9.747 6.753c.698.788.99.765 1.61.079a25.369 25.369 0 0 1 7.124-5.684 24.592 24.592 0 0 1 14.452-2.6 26.888 26.888 0 0 1 11.548 3.67c6.753 4.22 10.625 10.5 12.763 18.007A47.541 47.541 0 0 1 554.332 119v35.78c0 1.328-.405 1.632-1.677 1.62q-8.846-.1-17.693 0c-1.216 0-1.497-.348-1.497-1.519q.056-20.124 0-40.237a8.903 8.903 0 0 0-3.77-7.676 8.351 8.351 0 0 0-12.662 4.311 9.117 9.117 0 0 0-.597 3.287v39.29a10.13 10.13 0 0 1-.067 1.475 1.125 1.125 0 0 1-1.25 1.058h-18.368c-1.069 0-1.125-.506-1.125-1.328.056-6.764.045-13.562.045-20.36zm256.89-28.419a3.061 3.061 0 0 0 1.283-1.002q9.364-9.353 18.706-18.728a2.87 2.87 0 0 1 2.251-.934h23.737a2.983 2.983 0 0 1-.788 1.362 1447.518 1447.518 0 0 0-10.006 10.569c-5.481 5.819-10.962 11.638-16.387 17.513-1.035 1.126-2.037 2.251-3.14 3.377-.54.529-.54.855 0 1.429q6.303 6.91 12.538 13.877 6.753 7.507 13.439 15.048c1.936 2.172 3.838 4.367 5.808 6.607a2.938 2.938 0 0 1-1.835.484h-20.394c-1.8 0-2.769-1.126-3.76-2.251-2.678-3.073-5.323-6.18-7.979-9.275l-9.837-11.4c-.844-.98-1.71-1.925-2.847-3.208v24.592c0 1.125-.248 1.553-1.486 1.53q-9.184-.1-18.368 0c-1.294 0-1.7-.416-1.52-1.61a3.377 3.377 0 0 0 0-.54c-.36-24.76-.135-49.59-.348-74.372-.057-7.237 0-14.474-.214-21.711 0-1.227.36-1.497 1.53-1.486q9.004.079 18.098 0c1.205 0 1.497.338 1.497 1.52q-.056 23.5 0 47zm-147.75.54V86.978c0-1.069.293-1.384 1.362-1.373q9.004.068 18.098 0c1.047 0 1.384.27 1.373 1.362 0 12.381.169 24.761-.09 37.142-.18 8.453-2.454 16.432-7.957 23.095a25.346 25.346 0 0 1-16.241 9.24 40.518 40.518 0 0 1-6.55.496 27.271 27.271 0 0 1-18.639-7.136 31.447 31.447 0 0 1-10.04-18.515 62.927 62.927 0 0 1-.754-10.974V87.101c0-1.216.35-1.508 1.52-1.497q8.779.09 17.558 0c1.193 0 1.508.315 1.508 1.508q-.068 19.37 0 38.751c0 4.12 2.926 8.667 7.248 9.556 4.986 1.024 9.308-1.35 11.11-6.393a9.522 9.522 0 0 0 .562-3.287c-.09-6.314-.068-12.617-.068-18.92zm55.791-1.024a2.364 2.364 0 0 0-1.407-.18h-20.653c-1.328 0-1.632-.394-1.62-1.666.067-5.762 0-11.525 0-17.277 0-1.125.303-1.362 1.372-1.362 11.93 0 23.85-.056 35.78.068 3.85 0 7.676.686 10.906 3.162a10.535 10.535 0 0 1 4.097 7.98c.428 5.515-2.048 9.871-5.47 13.877a1959.248 1959.248 0 0 0-10.073 11.897c-2.881 3.377-5.785 6.753-8.677 10.13-.664.766-1.295 1.565-2.105 2.544.968-.056 1.7-.146 2.42-.146h21.598c2.25 0 2.25 0 2.25 2.34v17.278c0 1.125-.236 1.474-1.406 1.474-14.136 0-28.261.056-42.398-.079-4.12 0-8.081-1.125-10.501-4.975-2.004-3.128-2.082-6.618-1.216-10.13a22.285 22.285 0 0 1 5.043-8.801q5.548-6.652 11.154-13.27c2.723-3.219 5.47-6.404 8.193-9.612.968-1.069 1.824-2.127 2.713-3.253zm39.28 14.812V87.114c0-1.34.349-1.79 1.733-1.778 5.853.067 11.705 0 17.558 0 1.126 0 1.565.337 1.565 1.542v67.665c0 1.125-.383 1.339-1.396 1.339q-9.004-.056-18.098 0c-1.125 0-1.362-.326-1.35-1.384 0-11.29-.012-22.59-.012-33.89zm-2.431-54.204c-.394-6.685 5.819-12.774 12.594-12.696a12.718 12.718 0 1 1-.056 25.425c-6.821.101-12.921-5.976-12.538-12.729zm-82.387-2.701a9.106 9.106 0 0 1-18.211.09c-.056-5.56 3.646-9.274 9.128-9.398a9.004 9.004 0 0 1 9.083 9.308zm-32.28 8.959a9.004 9.004 0 0 1-8.937-9.004c.068-5.403 3.523-9.162 9.455-9.207a9.128 9.128 0 0 1-.507 18.244z" fill="#e1e2e3"/>
        <path d="M217.38 220.46a79.562 79.562 0 0 1-31.424-7.136c-5.459-2.532-10.501-5.897-15.757-8.891-16.95-9.725-34.092-19.134-50.738-29.398-13.416-8.284-26.359-17.22-37.918-28.025a90.806 90.806 0 0 1-11.255-11.818c-8.644-11.626-8.633-24.333-.068-36.793 4.311-6.258 9.815-11.334 15.656-16.095a400.34 400.34 0 0 1 69.905-46.36 374.25 374.25 0 0 1 44.187-19.55 64.705 64.705 0 0 1 27.856-3.67 76.05 76.05 0 0 1 21.79 5.774c23.287 9.353 44.818 21.734 65.527 35.746 16.567 11.255 32.64 23.174 48.734 35.071 6.585 4.874 11.762 10.917 14.283 18.83 3.535 11.086.957 20.923-7.045 29.207-5.628 5.797-12.144 10.568-18.515 15.487-22.308 17.198-46.146 32.043-70.693 45.786q-12.46 6.978-25.133 13.574c-11.3 5.887-23.343 8.33-39.393 8.262zm24.018-78.875a30.119 30.119 0 0 0 6.888-4.007 30.557 30.557 0 0 0 11.694-21.385c1.126-9.713-2.352-17.468-11.536-21.959a40.203 40.203 0 0 0-17.355-3.894c-15.217-.18-30.389-.101-45.639-.158-.912 0-.99.406-1.07 1.126q-1.282 12.38-2.599 24.682-1.024 9.724-2.06 19.449c-.686 6.528-1.328 13.056-2.048 19.584-.124 1.125.236 1.238 1.204 1.272 6.123.202 12.234 0 18.357.09 1.936 0 1.902 0 2.105-1.947q.968-9.004 1.992-18.008c.957-8.487 1.947-16.973 2.881-25.46.327-2.97.26-3.016 3.22-2.97 5.84.1 11.693.09 17.523.607a18.942 18.942 0 0 1 8.824 2.634 6.337 6.337 0 0 1 3.062 6.573 9.5 9.5 0 0 1-2.623 5.503c-2.61 2.713-5.987 3.726-9.578 4.154-4.704.562-9.443.168-14.159.168-1.001 0-1.328.338-1.407 1.272a137.38 137.38 0 0 1-.72 6.753 1.542 1.542 0 0 0 .608 1.508q10.017 9.14 20 18.323a2.701 2.701 0 0 0 2.037.777q9.51-.18 19.021-.281h6.944a261.7 261.7 0 0 0-15.566-14.406zm-101.49-52.122h-37.952c-.72 0-1.384-.135-1.497.99q-.855 8.183-1.868 16.342c-.147 1.216.169 1.509 1.384 1.497h24.986c1.002 0 1.317.214 1.205 1.272-.507 4.502-.935 9.128-1.385 13.686q-1.024 10.197-2.06 20.394c-.416 4.12-.787 8.239-1.215 12.381-.079.765.124 1.013.911 1.013h20.934c.81 0 1.126-.27 1.126-1.058.608-5.729 1.25-11.446 1.88-17.164 1.069-9.657 2.16-19.302 3.151-28.959.135-1.328.653-1.452 1.744-1.44h24.986c.89 0 1.227-.18 1.306-1.126q.675-8.329 1.52-16.657c.112-1.125-.406-1.125-1.227-1.125q-18.954-.034-37.93-.045zm165.91 0h-37.941c-1.047 0-1.463.214-1.576 1.362a547.835 547.835 0 0 1-1.8 15.757c-.192 1.643-.214 1.643 1.44 1.643h24.851c.98 0 1.407.101 1.26 1.283-.382 2.893-.596 5.82-.888 8.723l-2.049 20.259c-.574 5.774-1.125 11.536-1.722 17.31-.09.878.124 1.125 1.047 1.125h20.799c.788 0 1.125-.202 1.125-1.024 1.666-15.374 3.377-30.738 5.031-46.146.135-1.272.552-1.485 1.689-1.485h24.975c.968 0 1.283-.237 1.362-1.227q.675-8.261 1.496-16.522c.113-1.126-.461-1.126-1.316-1.126q-18.875.079-37.783.068z" fill="#ad2b32"/>
        <path class="cls-1" d="M241.4 141.59a289.787 289.787 0 0 1 15.577 14.361h-6.944q-9.51.113-19.021.281a2.701 2.701 0 0 1-2.038-.776q-9.972-9.184-20-18.323a1.542 1.542 0 0 1-.607-1.508c.292-2.251.529-4.502.72-6.753.079-.935.405-1.272 1.407-1.272 4.716 0 9.454.382 14.159-.169 3.59-.428 6.955-1.452 9.578-4.153a9.5 9.5 0 0 0 2.622-5.504 6.337 6.337 0 0 0-3.061-6.573 18.942 18.942 0 0 0-8.824-2.634c-5.83-.517-11.683-.517-17.524-.517-2.96 0-2.893 0-3.219 2.971-.923 8.486-1.925 16.973-2.881 25.459q-1.013 9.004-1.993 18.008c-.213 1.947-.168 1.97-2.104 1.947-6.123 0-12.234.113-18.357-.09-.98 0-1.328-.191-1.205-1.272.72-6.528 1.374-13.056 2.049-19.584.675-6.528 1.373-12.966 2.06-19.449l2.6-24.682c.067-.709.157-1.125 1.069-1.125 15.217.056 30.389 0 45.639.157a40.203 40.203 0 0 1 17.355 3.895c9.184 4.502 12.673 12.246 11.536 21.959a30.557 30.557 0 0 1-11.694 21.385 30.119 30.119 0 0 1-6.9 3.961zM139.91 89.468h37.941c.822 0 1.34 0 1.227 1.125q-.833 8.318-1.52 16.658c-.078.967-.416 1.125-1.305 1.125h-24.986c-1.126 0-1.61.124-1.745 1.44-.979 9.657-2.082 19.315-3.151 28.96-.63 5.717-1.283 11.435-1.88 17.164-.078.787-.337 1.058-1.125 1.058h-20.934c-.8 0-1.002-.248-.912-1.013.428-4.12.81-8.24 1.216-12.381q1.013-10.197 2.06-20.394c.46-4.559.877-9.128 1.384-13.686.112-1.058-.203-1.272-1.205-1.272H99.99c-1.215 0-1.541-.282-1.384-1.497q1.013-8.16 1.868-16.342c.113-1.126.777-.99 1.497-.99h37.941zm165.91 0h37.806c.867 0 1.44 0 1.317 1.125q-.822 8.25-1.497 16.523c-.079.99-.394 1.237-1.362 1.226h-24.975c-1.125 0-1.553.214-1.688 1.486-1.632 15.374-3.377 30.749-5.031 46.146-.09.822-.383 1.024-1.126 1.024h-20.799c-.911 0-1.125-.27-1.046-1.125.596-5.763 1.125-11.536 1.722-17.31q1.013-10.13 2.048-20.26c.293-2.903.506-5.83.89-8.722.157-1.125-.271-1.283-1.262-1.283h-24.85c-1.655 0-1.633 0-1.441-1.643.619-5.268 1.272-10.535 1.8-15.757.113-1.126.53-1.362 1.576-1.362q18.954-.045 37.918-.068z" fill="#e1e2e3"/>
    </g>
</svg>
