<svg enable-background="new 0 0 593.729 349.78" Googl="true" version="1.1" viewBox="0 0 593.73 349.78" xml:space="preserve" xmlns="http://www.w3.org/2000/svg">

	<path d="m405.72 139.96c-22.083-76.962-92.477-129.99-172.54-129.97v-9.997c87.408 0 161.21 59.345 183.22 139.86" fill="#05c3dc"/>
	<path d="m374.36 240.18c-20.705 57.985-76.18 99.604-141.19 99.604s-120.48-41.609-141.19-99.604h-10.567c21.125 63.604 81.169 109.6 151.76 109.6s130.65-45.988 151.77-109.6z" fill="#05c3dc"/>
	<path d="m91.877 139.96c20.625-58.145 76.17-99.904 141.29-99.904s120.68 41.749 141.3 99.904h10.567c-21.035-63.764-81.119-109.91-151.87-109.91s-130.84 46.148-151.86 109.91z" fill="#05c3dc"/>
	<path d="m103.1 201.36c5.809-3.639 9.708-11.277 9.708-18.995 0-15.516-12.497-22.584-24.104-22.584h-26.633c-2.302 0-4.169 1.866-4.169 4.169v0.01 55.896h10.277c3.081 0 5.579-2.498 5.579-5.579v-9.218h12.767l10.357 14.796h17.186l-12.407-17.555zm-14.216-10.937h-15.216v-16.346h15.216c4.365-0.146 8.022 3.274 8.168 7.639 6e-3 0.176 6e-3 0.353 0 0.529 0.1 4.416-3.398 8.077-7.814 8.178-0.118 2e-3 -0.236 3e-3 -0.354 0zm-88.887-27.623v11.467h19.245v45.548h10.277c3.081 0 5.579-2.498 5.579-5.579v-39.99h14.496c2.623 0 4.749-2.126 4.749-4.749v-9.767h-51.297c-1.656-0.028-3.022 1.292-3.05 2.948 0 0.041 0 0.082 1e-3 0.122zm117.87-3.049c-1.656-0.028-3.021 1.292-3.049 2.948-1e-3 0.034-1e-3 0.067 0 0.101v11.467h19.255v45.548h10.267c3.081 0 5.579-2.498 5.579-5.579v-39.99h14.496c2.623 0 4.749-2.126 4.749-4.749v-9.767z" fill="#fff"/>
	<g fill="#05c3dc">
		<path d="m208.68 217.29-22.307-57.681h12.935c1.998-0.036 3.788 1.229 4.421 3.124l13.976 38.447 13.976-38.447c0.664-1.877 2.44-3.129 4.431-3.124h12.925l-23.604 60.744h-12.25c-2.016 0.098-3.853-1.152-4.503-3.063z"/>
		<path d="m244.9 189.98c0-9.249 3.097-16.859 9.29-22.827 6.01-5.724 13.53-8.586 22.562-8.586 9.528 0 17.284 3.097 23.266 9.29 5.731 5.948 8.593 13.323 8.586 22.123 0 9.256-3.093 16.869-9.28 22.838-6.023 5.703-13.547 8.555-22.572 8.555-9.528 0-17.281-3.097-23.256-9.29-5.738-5.929-8.603-13.296-8.596-22.103zm14.752 0c-0.173 5.339 2.029 10.479 6.013 14.037 3.05 2.731 7.014 4.218 11.107 4.165 5.308 0.126 10.331-2.401 13.394-6.738 2.421-3.328 3.699-7.35 3.645-11.465 0.185-5.343-2.01-10.492-5.993-14.058-3.05-2.731-7.014-4.218-11.107-4.165-5.316-0.133-10.347 2.395-13.415 6.738-2.425 3.334-3.704 7.364-3.644 11.486z"/>
		<path d="m306.75 172.97v-9.464c0.116-2.539 1.419-3.839 3.91-3.9h50.024v9.464c-0.123 2.542-1.419 3.849-3.91 3.9h-15.702v42.449c0.054 1.874-0.997 3.605-2.685 4.421-0.705 0.335-1.475 0.513-2.256 0.521h-9.76v-47.39h-19.621z"/>
		<path d="m420.78 220.35h-41.929v-56.844c0.116-2.539 1.419-3.839 3.91-3.9h41.918v9.188c-0.112 2.552-1.419 3.849-3.9 3.91h-27.35v10.934h26.043v9.188c-0.112 2.552-1.419 3.849-3.91 3.91h-22.133v10.495h31.25v9.188c-0.111 2.583-1.428 3.931-3.899 3.931z"/>
		<path d="m437.84 220.35h-12.322l23.093-57.722c0.678-1.894 2.502-3.132 4.512-3.063h12.578l24.389 60.785h-12.322c-2.011 0.081-3.825-1.201-4.421-3.124l-2.777-7.289h-25.522l-2.777 7.351c-0.647 1.88-2.443 3.121-4.431 3.062zm19.969-44.44-8.167 21.613h16.335z"/>
		<path d="m516.63 221.37c-9.651 0.055-19.082-2.884-26.993-8.412l4.257-9.117c0.384-0.899 1.268-1.481 2.246-1.48 1.462 0.434 2.865 1.048 4.176 1.827 1.154 0.521 2.195 0.949 3.124 1.297 4.416 1.67 9.083 2.582 13.803 2.695 5.036 0 7.956-1.388 8.759-4.165 0.113-0.395 0.171-0.804 0.174-1.215 0-2.205-1.419-3.788-4.247-4.778-1.284-0.391-2.59-0.708-3.91-0.949-1.103-0.235-2.726-0.521-4.859-0.868-2.134-0.347-3.849-0.786-4.951-0.96-10.352-1.912-16.079-6.86-17.182-14.844-0.179-1.09-0.268-2.193-0.265-3.298 0-5.948 2.634-10.692 7.902-14.231 4.718-2.98 10.215-4.491 15.793-4.339 8.458 0 16.729 2.485 23.787 7.146l-3.645 7.555c-0.755 1.562-1.797 2.338-3.124 2.338-0.712-0.014-1.41-0.192-2.042-0.521-5.377-2.368-10.008-3.611-13.894-3.726h-1.021c-4.165 0-6.854 1.041-8.065 3.124-0.291 0.561-0.442 1.185-0.439 1.817 0 2.083 1.215 3.529 3.645 4.339 1.138 0.341 2.297 0.604 3.471 0.786l10.158 1.817c9.896 1.736 15.77 6.394 17.621 13.976 0.351 1.596 0.525 3.225 0.521 4.859 0 8.222-3.876 13.895-11.628 17.019-4.199 1.624-8.673 2.408-13.172 2.308z"/>
		<path d="m539.8 172.97v-9.464c0.112-2.542 1.419-3.839 3.9-3.9h50.024v9.464c-0.112 2.542-1.419 3.849-3.9 3.9h-15.742v42.449c0.052 1.876-1.003 3.608-2.695 4.421-0.702 0.332-1.469 0.507-2.246 0.51h-9.719v-47.38z"/>
	</g>

</svg>
