<?xml version="1.0" encoding="UTF-8" standalone="no"?>
<svg id="svg2" xmlns:rdf="http://www.w3.org/1999/02/22-rdf-syntax-ns#" xmlns="http://www.w3.org/2000/svg" height="152.47" viewBox="0 0 212.29592 152.46538" width="212.3" version="1.1" xmlns:cc="http://creativecommons.org/ns#" xmlns:dc="http://purl.org/dc/elements/1.1/">
 <path id="path4138" fill="#d80c02" d="m118.36 152.17c0.10198-0.165 0.0391-0.3-0.13972-0.3s-0.45345-0.3375-0.61028-0.75c-0.34426-0.90547-0.91902-0.95772-1.65-0.15-0.65605 0.72493-1.5212 0.77696-1.8923 0.11382-0.30636-0.54744-2.6262-0.86939-2.9136-0.40436-0.0988 0.1598-0.35807 0.29054-0.57625 0.29054-0.44956 0-0.92701-1.6985-1.2228-4.35-0.27866-2.4978-0.9978-6.7198-1.3286-7.8-0.15159-0.495-0.42559-2.9618-0.60888-5.4817-0.1833-2.52-0.67068-7.3125-1.0831-10.65-0.41239-3.3375-1.0125-8.2283-1.3335-10.868-0.32103-2.64-0.65892-6.96-0.75088-9.6-0.16974-4.8732-0.54773-7.9291-1.111-8.982-0.30233-0.56518-0.32751-0.56204-0.87027 0.10823-0.30741 0.37964-0.55583 0.97905-0.55205 1.332 0.0127 1.1823-1.6091 7.664-1.8763 7.4989-0.14511-0.0897-0.21925-0.38672-0.16477-0.66008 0.0545-0.27337-0.14857-0.70053-0.45125-0.94926-0.47363-0.3892-0.50931-0.63474-0.25605-1.7619 0.34135-1.5192 0.16756-2.2073-0.52129-2.0638-0.32564 0.06782-0.46802 0.37488-0.42926 0.92577 0.0319 0.45336-0.40686 1.7943-0.975 2.9798-0.56815 1.1855-1.033 2.3219-1.033 2.5253s-0.35445 0.72428-0.78767 1.1575l-0.78767 0.78767 0.21235-1.4161c0.14953-0.99711 0.10277-1.4838-0.15805-1.645-0.28277-0.17476-0.22829-0.51614 0.23028-1.443 0.34721-0.70178 0.48894-1.3258 0.33588-1.4789-0.33152-0.33152 0.02-1.3221 0.38843-1.0944 0.14888 0.092 0.3569-0.0574 0.46228-0.332 0.10653-0.27762 0.0171-0.60716-0.20153-0.74226-0.32176-0.19886-0.31097-0.53376 0.0594-1.8447 0.44806-1.5858 0.43038-2.3518-0.0543-2.3518-0.1378 0-0.54543 0.88612-0.90584 1.9692-0.80249 2.4115-1.0322 2.3937-0.41259-0.03194 1.1255-4.4055 1.0211-4.149 1.4492-3.5635 0.37071 0.50698 0.40768 0.50283 0.72002-0.08079 0.18109-0.33836 0.45142-1.159 0.60075-1.8236 0.24946-1.1103 0.21323-1.2349-0.44634-1.5354-0.53799-0.24513-0.67917-0.49703-0.56353-1.0055 1.1222-4.9341 3.4567-18.192 3.458-19.639 0.0006-0.5282 0.21192-1.7432 0.46988-2.7 0.27402-1.0164 0.51008-3.361 0.56778-5.6396 0.0543-2.145 0.1954-4.4574 0.31352-5.1387 0.20798-1.1996 0.25768-1.2446 1.5741-1.425 1.7404-0.23855 5.3049-0.23936 7.0396-0.0015l1.3478 0.18473 0.36804 3.0403c0.20243 1.6721 0.49176 3.8503 0.64297 4.8403 0.54064 3.5396 1.3171 13.26 2.6719 33.45 0.63554 9.4708 1.388 18.603 1.6923 20.537l0.18671 1.1872 0.56313-0.69543c0.65258-0.80591 0.78444-3.199 0.18812-3.4144-0.2697-0.0974-0.14047-0.59562 0.4602-1.7742 1.0125-1.9867 2.9147-9.3561 2.915-11.293 0.00008-0.7687 0.27008-2.1078 0.6-2.9759 0.633-1.6654 0.81833-3.8422 0.29985-3.5218-0.165 0.10198-0.3 0.04244-0.3-0.13229 0-0.17482 0.18784-0.31779 0.41743-0.31779 0.44485 0 1.3826-2.0268 1.3826-2.9884 0-0.80372-0.50174-1.0297-0.87244-0.39294-0.41666 0.7157-0.41008 0.29064 0.01-0.63083 0.20783-0.45615 0.50263-0.67695 0.7679-0.57515 0.27568 0.10579 0.4962-0.08582 0.61306-0.53268 0.16697-0.63851 0.19953-0.64935 0.38263-0.1274 0.39008 1.112 2.1887-6.6768 2.564-11.104 0.17846-2.1048 0.15128-2.3314-0.22157-1.847-0.38519 0.50041-0.46191 0.50759-0.81949 0.07672-0.21699-0.26145-0.32355-0.77989-0.23682-1.1521 0.82762-3.5514 4.1101-20.061 4.1113-20.678 0.001-0.76735 0.0869-0.81028 2.0266-1.0185 1.7649-0.18946 18.976 0.07031 19.195 0.28971 0.0452 0.04522 0.2282 0.88045 0.40662 1.8561 0.17841 0.97561 1.0446 4.2799 1.9248 7.343 2.0266 7.0522 2.1408 7.6429 1.5241 7.8796-0.33299 0.12778-0.47553 0.0086-0.47553-0.39755 0-0.31902-0.27-0.72453-0.6-0.90114s-0.6-0.5906-0.6-0.91997c0-0.74624-0.75969-1.0699-1.3538-0.57686-0.56643 0.4701-0.56612 1.4098 0.0009 2.4968 0.24382 0.46748 0.58569 1.3787 0.75972 2.025 0.17402 0.64628 0.4462 1.175 0.60484 1.175s0.28844 0.2025 0.28844 0.45c0 0.54055 0.34966 0.58034 0.835 0.095 0.19525-0.19525 0.4585-0.25126 0.585-0.12448 0.1265 0.12679-0.15398 0.56101-0.62329 0.96494-0.98627 0.84888-0.89459 1.7886 0.14791 1.5159 0.43215-0.11301 0.81104 0.04505 1.1769 0.49096 0.537 0.6545 0.5417 0.65477 0.98636 0.05763 0.42873-0.57574 0.46999-0.54542 1.0205 0.75 0.31554 0.7425 0.94761 2.3355 1.4046 3.5399 0.45699 1.2045 1.154 2.574 1.549 3.0433 0.39494 0.46936 0.71864 1.2389 0.71934 1.7101 0.0006 0.47793 1.3416 3.5757 3.0329 7.0067 1.6674 3.3825 3.2169 6.7654 3.4433 7.5176 0.22645 0.75219 0.73657 1.6728 1.1336 2.0458 0.45585 0.42824 0.66608 0.89163 0.57043 1.2574-0.12115 0.46329 0.006 0.5792 0.63353 0.5792 0.57979 0 0.78499-0.15379 0.78499-0.58831 0-0.32358 0.27383-0.84343 0.60852-1.1552 0.33468-0.31181 1.2258-1.7683 1.9803-3.2367 0.75449-1.4684 3.0966-5.6398 5.2046-9.2698s4.6932-8.3199 5.7447-10.422 2.0806-3.8233 2.2869-3.825c0.20625-0.0018 0.375-0.28266 0.375-0.62442s1.2381-2.9405 2.7512-5.775c4.0065-7.505 6.958-13.316 7.7403-15.238l0.68547-1.6847 3.1865-0.19657c2.8122-0.17348 7.3425 0.12209 7.7244 0.50396 0.0758 0.07579-0.0626 0.59326-0.30762 1.1499-0.24498 0.55668-0.7342 2.9021-1.0871 5.2121-0.35295 2.31-1.2989 8.0475-2.1021 12.75-1.5991 9.362-2.2723 14.239-2.5675 18.6-0.1061 1.5675-0.44372 3.7794-0.75026 4.9153-0.31233 1.1574-0.54862 2.9965-0.53751 4.1837 0.0141 1.5072-0.10386 2.2097-0.40894 2.4347-0.83795 0.6181-1.1268 1.6581-1.1268 4.0571 0 1.5919-0.14741 2.6595-0.42731 3.0947-0.50709 0.78851-0.70109 2.8978-0.32399 3.5228 0.22851 0.37873 0.19467 0.38341-0.23757 0.0328-0.63003-0.51097-0.69376-0.34532-0.94805 2.4642-0.12559 1.3876-0.0714 2.1936 0.16685 2.4806 0.2766 0.33328 0.23667 0.5536-0.18473 1.0192-0.36561 0.404-0.58106 1.242-0.67345 2.6194-0.0747 1.1139-0.27008 2.1906-0.43415 2.3926-0.17921 0.22066-0.21376 1.0957-0.0866 2.1917 0.17377 1.4972 0.12055 1.9251-0.2968 2.3863-0.44564 0.49242-0.46008 0.69595-0.11676 1.6454 0.32125 0.88842 0.32171 1.1956 0.002 1.7068-0.26836 0.42971-0.29279 0.71978-0.0787 0.9339 0.19869 0.19868 0.20984 0.49885 0.031 0.83308-0.15379 0.28737-0.35707 1.3129-0.45172 2.279-0.31687 3.2344-0.42695 3.633-1.048 3.7954-0.36367 0.0951-0.59261 0.41002-0.59261 0.81515 0 0.46358-0.13402 0.60876-0.45 0.4875-0.27412-0.10519-0.45-0.0006-0.45 0.2679 0 0.24233 0.135 0.44059 0.3 0.44059s0.3 0.2025 0.3 0.45-0.1973 0.45-0.43844 0.45c-0.25484 0-0.56045 0.4711-0.7298 1.125-0.65836 2.542-0.88656 3.595-1.0727 4.95-0.17694 1.2878-0.13836 1.425 0.40062 1.425 0.36291 0 0.7722 0.35237 1.0454 0.9 0.24694 0.495 0.32099 0.9 0.16455 0.9s-0.41584-0.34562-0.57645-0.76805c-0.37027-0.97389-0.72473-0.74918-1.4677 0.93048-0.69302 1.5667-1.4482 1.742-2.589 0.6012-0.80231-0.8023-0.80984-0.84987-0.46567-2.9411 0.16307-0.99083 0.12622-1.5177-0.12049-1.7224-0.40054-0.33246-0.75016-0.0995-0.75016 0.49983 0 0.22-0.27903 0.67903-0.62007 1.0201-0.46075 0.46075-0.53688 0.72032-0.2963 1.0102 0.23746 0.28613 0.20283 0.4905-0.12993 0.76666-0.38003 0.3154-0.4537 0.27591-0.4537-0.24319 0-0.34084-0.27759-0.81415-0.61687-1.0518l-0.61687-0.43207 0.66804-3.1838c0.36742-1.7511 0.57809-3.2737 0.46814-3.3837-0.10995-0.10995-0.53797-0.0459-0.95117 0.1424-0.4132 0.18826-0.74699 0.24394-0.74177 0.12373 0.005-0.12022 0.19818-1.5686 0.42877-3.2186s1.0332-7.6575 1.7835-13.35c0.75034-5.6925 1.5728-11.902 1.8278-13.8 1.0531-7.8377 2.4166-21.551 2.2057-22.184-0.24642-0.73928-1.4867 0.75036-3.7855 4.5465-3.2804 5.4172-5.9096 10.718-5.513 11.114 0.16936 0.16936 1.0131 0.37569 1.875 0.4585 1.2266 0.11786 1.4723 0.22274 1.1309 0.48267-0.2399 0.18264-0.45786 0.65743-0.48435 1.0551-0.0265 0.39765-0.20961 0.82278-0.40692 0.94472s-0.27959 0.42797-0.18286 0.68006c0.0967 0.25209-0.0182 0.61939-0.25533 0.81622-0.23718 0.19684-0.63372 1.0397-0.8812 1.8731-0.54556 1.8371-1.2136 2.9129-1.8088 2.9129-0.815 0-0.4547 0.5995 0.38192 0.63547 0.51654 0.0222 0.26417 0.13732-0.675 0.3079-0.825 0.14985-2.2088 0.41357-3.075 0.58605l-1.575 0.31361-0.0006 3.3535c-0.0003 2.7489-0.1048 3.5428-0.57918 4.4035-0.31829 0.5775-0.71442 1.3398-0.88029 1.6939l-0.30159 0.64393-1.4201-0.71893c-0.78091-0.39542-1.5948-0.71894-1.8086-0.71894-0.21373 0-0.5331-0.27-0.70971-0.6s-0.51886-0.6-0.76055-0.6c-0.2417 0-0.44152-0.23625-0.44404-0.525-0.004-0.44777-0.0466-0.45881-0.29039-0.075-0.15719 0.2475-0.16945 0.49022-0.0272 0.53938 0.1422 0.0492 0.19158 0.34545 0.10974 0.65841-0.12484 0.47738-0.2405 0.51175-0.71815 0.21345-0.31315-0.19556-0.56936-0.6606-0.56936-1.0334 0-0.37282-0.135-0.67784-0.3-0.67784s-0.3 0.31059-0.3 0.69019c0 0.75321-0.63359 2.3037-0.9429 2.3075-0.1061 0.001-0.2739-0.20872-0.37289-0.46667-0.099-0.25796-0.32787-0.37761-0.50863-0.2659-0.23291 0.14395-0.31323-0.96482-0.2757-3.806 0.0602-4.5592-0.0898-5.3562-1.0099-5.3657-0.352-0.004-1.2285-0.27362-1.9478-0.6-1.5608-0.70824-2.9926-0.77174-3.2338-0.14341-0.13998 0.36477-0.84225 0.45-3.7081 0.45h-3.5354l-0.22117 5.6038c-0.12165 3.0821-0.13814 6.6258-0.0367 7.875 0.13204 1.6252 0.0614 2.6125-0.24818 3.4712-0.26191 0.72635-0.43952 2.3841-0.44997 4.2-0.0209 3.6365-0.1653 4.2489-1.0543 4.472-0.37871 0.095-0.76717 0.37766-0.86324 0.62801-0.23735 0.61852 0.25527 1.827 0.83551 2.0497 0.35855 0.13759 0.47298 0.62079 0.47298 1.9973 0 1.6458-0.0703 1.8479-0.75 2.1576-0.43282 0.19721-0.76091 0.60683-0.77579 0.96858-0.0199 0.48456-0.0841 0.43226-0.28267-0.2304-0.26522-0.88501-1.1083-1.9928-1.5166-1.9928-0.12764 0-0.45178 0.21971-0.72031 0.48824-0.38492 0.38491-0.4467 0.82073-0.29194 2.0594 0.19001 1.5208 0.1711 1.576-0.59035 1.7215-0.43266 0.0827-0.86026 0.0313-0.95022-0.11429-0.09-0.14556-0.28924-0.18699-0.44284-0.0921-0.1536 0.0949-0.27927-0.0379-0.27927-0.2951 0-0.79209-0.82127-0.51668-1.0655 0.35729-0.1982 0.70932-0.24935 0.74086-0.3648 0.225-0.19592-0.87539-0.65324-1.3375-1.1391-1.151-0.66357 0.25463-0.88842-0.76742-0.26856-1.2207 0.51369-0.37562 0.51205-0.40701-0.0374-0.7145-0.55303-0.30951-0.57679-0.88442-0.63097-15.268-0.031-8.2203-0.16797-15.486-0.30446-16.146l-0.24817-1.2-4.1955-0.15-4.1955-0.15 0.0655-0.9c0.21902-3.0091 1.0605-9.0437 1.2937-9.278 0.16986-0.17062 1.1774-0.14088 2.6088 0.077 1.2826 0.19523 2.6824 0.35407 3.1105 0.35298 1.7053-0.004 1.6614 0.37777 2.0361-17.702 0.5115-24.676 0.47399-26.705-0.47011-25.422-0.54642 0.74268-1.281 4.3956-2.0354 10.122-0.86738 6.5838-1.3746 9.2534-2.4316 12.797-0.40146 1.346-0.64679 2.664-0.54517 2.9288 0.10162 0.26482 0.0196 0.68055-0.18236 0.92385-0.20192 0.2433-0.29143 0.63962-0.19891 0.88072 0.0925 0.2411-0.15739 1.7616-0.55534 3.3788-1.2451 5.0599-4.0932 18.156-4.3583 20.04-0.13929 0.99-0.47408 2.4075-0.74399 3.15s-0.53985 2.43-0.59988 3.75c-0.13701 3.0126-1.077 7.9071-3.5723 18.6-1.0781 4.62-1.9627 8.6489-1.9657 8.9531-0.003 0.30419-0.27551 0.62369-0.60551 0.70998-0.69874 0.18273-0.81631 0.98693-0.14428 0.98693 0.32762 0 0.41194 0.21081 0.3 0.75-0.0857 0.4125-0.22718 1.093-0.31452 1.5123-0.0873 0.41925-0.28858 0.68205-0.44722 0.58401-0.15864-0.0981-0.51719 0.30143-0.79677 0.88773-0.27959 0.58629-0.6263 1.066-0.77048 1.066s-0.17871-0.135-0.0767-0.3zm25.35-10.05c0-0.4125-0.135-0.75-0.3-0.75s-0.3 0.3375-0.3 0.75 0.135 0.75 0.3 0.75 0.3-0.3375 0.3-0.75zm2.2812-1.2688c-0.30496-0.30495-0.55657 0.15417-0.30637 0.55901 0.18901 0.30583 0.25968 0.30607 0.36129 0.001 0.0695-0.20843 0.0448-0.46054-0.0549-0.56022zm-2.6167-1.3562c-0.0195-0.53625-0.12364-1.38-0.23137-1.875-0.25643-1.1783-0.60594-0.61838-0.83821 1.3428-0.16528 1.3955-0.13095 1.5072 0.46328 1.5072 0.53135 0 0.63568-0.16778 0.6063-0.975zm42.035-1.1427c0-0.15526-0.135-0.28229-0.3-0.28229s-0.3 0.21047-0.3 0.46771c0 0.25723 0.135 0.38427 0.3 0.28229s0.3-0.31244 0.3-0.46771zm-36.31-2.6167c0.0104-0.74541-0.61566-1.1352-1.3628-0.84855-0.42972 0.1649-0.42972 0.2238 0 0.65353 0.25976 0.25976 0.47229 0.82595 0.47229 1.2582 0 0.75544 0.0171 0.76333 0.44046 0.20357 0.24225-0.32029 0.44475-0.89033 0.45-1.2668zm-1.0724-2.0407c0.11212-0.29217 0.0451-0.42932-0.17416-0.35625-0.44845 0.14949-0.69536 0.83132-0.30105 0.83132 0.1611 0 0.37494-0.21378 0.47521-0.47507zm-0.0798-0.94993c0.2057-1.2089 0.17858-1.8267-0.10536-2.4-0.69751-1.4083-1.0699-0.43472-0.64543 1.6875 0.16748 0.83742 0.65139 1.2966 0.75079 0.7125zm-29.858-16.95c0.24908-2.1218-0.31518-2.3959-0.61758-0.3-0.11307 0.78375-0.28016 1.7625-0.3713 2.175-0.14935 0.67589-0.11868 0.70553 0.31033 0.3 0.2626-0.24823 0.56685-1.2235 0.67855-2.175zm0.86989-3.3959c0-0.31399-0.21878-0.61302-0.48617-0.66452-0.37539-0.0723-0.45233 0.0834-0.33763 0.68343 0.16738 0.87559 0.8238 0.86052 0.8238-0.0189zm40.075-1.6291c0.3165 0 0.57546-0.135 0.57546-0.3s-0.3375-0.3-0.75-0.3c-0.75801 0-1.0379-0.45403-0.40913-0.66362 0.24366-0.0812 0.2255-0.29837-0.0636-0.76136-0.54947-0.87984-0.0837-1.2605 0.50824-0.41542 0.57966 0.82758 1.3977 0.72661 1.4644-0.18077 0.047-0.63967-0.0469-0.66826-2.0003-0.60938-1.1273 0.034-2.0504 0.1335-2.0514 0.22116-0.0009 0.0877 0.30275 0.86681 0.675 1.7314 0.43707 1.0152 0.81833 1.52 1.0764 1.425 0.21974-0.0809 0.65849-0.14704 0.975-0.14704zm2.2942-0.48125c-0.0997-0.0997-0.35844-0.11034-0.575-0.0237-0.23932 0.0958-0.16823 0.16685 0.18125 0.18125 0.31625 0.013 0.49344-0.0579 0.39375-0.15757zm-3.6688-3.7188c-0.10198-0.165-0.37994-0.3-0.61771-0.3-0.23776 0-0.43229 0.135-0.43229 0.3s0.27797 0.3 0.61771 0.3c0.33973 0 0.53427-0.135 0.43229-0.3zm0.825-1.9987c-0.20625-0.0832-0.54375-0.0832-0.75 0s-0.0375 0.15131 0.375 0.15131 0.58125-0.0681 0.375-0.15131zm-37.725-0.40132c0.10198-0.165 0.0931-0.44941-0.0198-0.63203-0.20164-0.32625-0.71472 0.1737-0.72561 0.70703-0.007 0.32884 0.52914 0.27493 0.7454-0.075zm32.475-1.5219c0.37125 0.0152 1.3162 0.0563 2.1 0.0913 0.78375 0.035 1.8133-0.0407 2.288-0.16813l0.86297-0.23175-0.58258-0.65976c-0.95011-1.076-1.6307-2.3066-1.4434-2.6098 0.0962-0.15568-0.0416-0.61351-0.30623-1.0174s-0.43899-0.98145-0.38746-1.2835c0.0563-0.32976-0.0861-0.54913-0.35631-0.54913-0.5639 0-0.88946-0.42928-0.89541-1.1807-0.002-0.31936-0.27496-0.86846-0.60541-1.2202-0.33045-0.35175-0.93223-1.4852-1.3373-2.5188-0.58366-1.4893-0.6657-1.9925-0.3954-2.4254 0.26818-0.42941 0.22911-0.71701-0.18279-1.3456-0.4033-0.61551-0.44425-0.89542-0.17795-1.2163 0.43899-0.52895 0.13169-1.0431-0.62347-1.0431-0.54475 0-0.58223 0.23693-0.58137 3.675 0.0006 2.0212 0.0897 6.0153 0.19819 8.8758l0.19727 5.2008 0.77681-0.20054c0.42725-0.11031 1.0806-0.1881 1.4518-0.17288zm-4.725-1.1781c0-0.40084-0.2-0.6-0.60254-0.6-0.52745 0-0.55584 0.0748-0.22784 0.6 0.20609 0.33 0.47723 0.6 0.60254 0.6 0.12532 0 0.22784-0.27 0.22784-0.6zm0.79868-0.675c-0.0832-0.20625-0.15131-0.0375-0.15131 0.375s0.0681 0.58125 0.15131 0.375c0.0832-0.20625 0.0832-0.54375 0-0.75zm-27.499-2.7573c0-0.40276-0.135-0.81573-0.3-0.9177-0.17503-0.10817-0.3 0.19688-0.3 0.7323 0 0.50474 0.135 0.91771 0.3 0.91771s0.3-0.32954 0.3-0.7323zm26.4 0.0723c0-0.48463-0.0887-0.57129-0.33386-0.32614-0.18362 0.18362-0.24316 0.48062-0.1323 0.66 0.31032 0.5021 0.46616 0.39049 0.46616-0.33386zm-48.393-4.205c-0.0832-0.20625-0.15132-0.0375-0.15132 0.375s0.0681 0.58125 0.15132 0.375c0.0832-0.20625 0.0832-0.54375 0-0.75zm-1.9987-3.225c0-0.165-0.135-0.3-0.3-0.3s-0.3 0.135-0.3 0.3 0.135 0.3 0.3 0.3 0.3-0.135 0.3-0.3zm0-6.1173c0-1.6561-0.54468-1.0325-0.76816 0.87946-0.16212 1.3869-0.14196 1.4484 0.29712 0.90554 0.25907-0.32029 0.47104-1.1235 0.47104-1.785zm51.481 0.79859c-0.30496-0.30495-0.55657 0.15417-0.30637 0.55901 0.18901 0.30583 0.25968 0.30606 0.36129 0.0012 0.0695-0.20844 0.0448-0.46054-0.0549-0.56023zm11.519-0.21354c0-0.23776-0.135-0.51573-0.3-0.61771s-0.3 0.09256-0.3 0.43229c0 0.33974 0.135 0.61771 0.3 0.61771s0.3-0.19453 0.3-0.43229zm-62.794-3.987c-0.0761-0.29189-0.1433-0.12571-0.14941 0.36929-0.006 0.495 0.0561 0.73382 0.1383 0.53071s0.0872-0.60811 0.0111-0.9zm54.266-2.4065c-0.32681-0.32681-0.45085 0.10052-0.24349 0.83886l0.20695 0.7369 0.10539-0.70076c0.058-0.38542 0.027-0.77917-0.0688-0.875zm-1.9742 0.23222c0-0.39965-1.2484-1.2065-1.8668-1.2065-0.7141 0-0.67686 0.50203 0.0668 0.9 0.33 0.17661 0.6 0.52361 0.6 0.77111 0 0.35704 0.12395 0.38366 0.6 0.12889 0.33-0.17661 0.6-0.44371 0.6-0.59354zm1.8-15.324c0-0.15526-0.2025-0.28229-0.45-0.28229-0.46392 0-0.59601 0.35399-0.25816 0.69184 0.23968 0.23968 0.70816-0.03126 0.70816-0.40955zm-12.9-4.3323c0-0.2475-0.2025-0.45-0.45-0.45s-0.45 0.2025-0.45 0.45 0.2025 0.45 0.45 0.45 0.45-0.2025 0.45-0.45zm-127.31 86.624c-0.0764-0.12375 0.2515-2.385 0.7287-5.025 1.3788-7.628 2.9069-19.253 5.6781-43.2 0.82477-7.1269 2.0708-16.151 3.1276-22.65 0.22806-1.4025 0.49379-4.305 0.59053-6.45 0.0967-2.145 0.38239-5.5875 0.63478-7.65 1.2752-10.421 1.6376-13.741 1.9608-17.967 0.29433-3.8479 0.28489-4.6476-0.0574-4.8644-0.2253-0.14273-5.8434-0.26158-12.485-0.26411l-12.075-0.0046-0.008-1.275c-0.0039819-0.742 0.65536-3.348 1.5517-6.139l1.5593-4.8542 2.1233-0.15719c1.1678-0.08645 6.4779-0.27016 11.8-0.40824 7.8514-0.2037 9.7547-0.33359 10.09-0.68857 0.2858-0.30262 0.70504-3.3973 1.3598-10.038 0.52063-5.28 1.0941-10.661 1.2743-11.958l0.328-2.357 2.8857 0.19764c3.1796 0.21777 7.6176 0.74968 7.8031 0.93523 0.3346 0.3346-1.0185 17.316-1.6571 20.796-0.38436 2.0949-0.39448 2.5772-0.0608 2.8942 0.32035 0.30424 3.2644 0.32435 14.72 0.10056 11.876-0.232 23.678-0.2052 29.78 0.06763 0.66 0.02951 14.206-0.05341 30.103-0.18427 24.731-0.20358 28.94-0.17687 29.164 0.18508 0.21934 0.3549 2.0672 0.40601 11.477 0.31743 8.6052-0.081 11.356-0.01828 11.817 0.26946 0.47848 0.29882 2.7892 0.30427 11.37 0.02683 9.825-0.31768 37.043-0.41282 34.661-0.12117-0.67991 0.08325-1.058 0.31208-1.16 0.70199-0.096 0.36717-0.41245 0.57847-0.86629 0.57847-0.51501 0-0.71501 0.16783-0.71501 0.6 0 0.43905 0.2 0.6 0.74559 0.6h0.74559l-0.56121 0.92283c-0.50687 0.83349-0.51894 1.0075-0.12469 1.7978 0.52721 1.0568 0.26879 2.0793-0.5255 2.0793-0.92126 0-0.67803 0.5074 0.61199 1.2767l1.1918 0.71068-5.7564 0.33945c-4.1477 0.24459-5.8662 0.24828-6.1494 0.0132-0.28794-0.23897-0.65184-0.19886-1.3604 0.14996-0.85515 0.42098-5.9072 0.53203-43.567 0.95774-23.43 0.26485-46.11 0.62443-50.4 0.79906s-21.053 0.4043-37.25 0.51037c-16.198 0.10607-29.521 0.26362-29.607 0.35012-0.26398 0.26417-1.6405 8.2634-2.2828 13.266-0.33354 2.5978-0.94622 8.2003-1.3615 12.45-1.0942 11.197-2.1169 19.24-3.6146 28.427-0.72627 4.455-1.9314 13.702-2.678 20.55-1.9094 17.512-3.7541 29.922-4.3894 29.529-0.14651-0.0905-0.26638-0.5099-0.26638-0.93191 0-0.61958-0.1155-0.73708-0.6-0.61038-0.40171 0.10505-0.6 0.009-0.6-0.29001 0-0.75927-0.74441-0.24763-0.84281 0.57927-0.051 0.42895-0.2873 0.94132-0.525 1.1386-0.35992 0.29871-0.43219 0.20819-0.43219-0.54131 0-0.495-0.20577-1.0708-0.45725-1.2795-0.54563-0.45283-0.47753-0.51687-1.4422 1.356l-0.77261 1.5-0.014-1.01c-0.0119-0.8594-0.10343-0.98659-0.61397-0.85309-0.44504 0.11639-0.6 0.009-0.6-0.41501 0-1.1384-1.5284-0.40029-1.9551 0.94426-0.10754 0.33883-0.0244 0.81752 0.18606 1.0711 0.30994 0.37346 0.30063 0.50816-0.0502 0.72645-0.33173 0.2064-0.35419 0.39158-0.0977 0.80582 0.54936 0.88727-0.008 1.8805-1.0556 1.8805-0.49058 0-0.95449-0.10125-1.0309-0.225zm4.2114-10.494c-0.0761-0.29189-0.1433-0.12571-0.14941 0.36929-0.006 0.495 0.0561 0.73382 0.1383 0.53071s0.0872-0.60811 0.0111-0.9zm126.6-100.62c0.24574-0.24574 0.74009-0.23031 1.866 0.05826 1.3254 0.3397 1.593 0.33127 1.9868-0.06256 0.39539-0.39538 0.69977-0.40385 2.319-0.06451 2.7291 0.57194 8.9992 0.52953 10.156-0.06869 0.82991-0.42916 0.95956-0.4291 1.4344 0.0006 0.28714 0.25986 0.62408 0.37092 0.74876 0.24681 0.12467-0.12411 2.4886-0.22565 5.2533-0.22565 3.8012 0 5.147-0.09965 5.5204-0.40879 0.41858-0.34651 0.51913-0.34283 0.65996 0.02415 0.13637 0.35539 1.0909 0.42862 5.3286 0.40879 2.8393-0.01329 5.588 0.07109 6.1082 0.1875 0.83549 0.18697 0.9674 0.12573 1.1307-0.525 0.20691-0.82441 0.70216-0.97154 0.96497-0.28666 0.20546 0.53542 1.8248 0.59484 3.504 0.12858 0.84566-0.23483 1.2568-0.22568 1.5709 0.03498 0.23765 0.19724 0.85755 0.28328 1.4045 0.19496 3.9711-0.64119 5.635-0.79781 6.6723-0.62803 1.0272 0.16813 1.1423 0.13403 0.8276-0.2452-0.48705-0.5868-0.18096-0.83523 1.0292-0.83523 0.55 0 1-0.13025 1-0.28945 0-0.54135-1.2544-0.96712-2.2816-0.77442-0.78467 0.1472-1.0184 0.0893-1.0184-0.25232 0-0.56384 0.97429-0.87875 2.0317-0.6567 1.0624 0.22309 1.8712-0.24418 1.3408-0.77462-0.83358-0.83358-0.43673-1.2378 1.0507-1.0701 1.3366 0.15066 2.4768-0.13381 2.4768-0.61794 0-0.20893-3.6677-0.35094-8.585-0.33241-2.0269 0.0076-2.468-0.07689-2.6321-0.50437-0.10838-0.28245-0.15227-0.55834-0.0975-0.61309 0.0547-0.05475 0.93206 0.05527 1.9496 0.2445 1.9953 0.37106 3.365 0.05758 3.365-0.77012 0-0.70525-1.3795-0.82593-3.4618-0.30286-1.5408 0.38703-2.1345 0.42078-2.7188 0.15454-1.1794-0.53737-11.425-0.45307-13.013 0.10707-1.048 0.36975-1.6278 0.38842-3.3304 0.10724-1.5817-0.26122-2.1623-0.25685-2.4944 0.01876-0.54058 0.44864-3.4618 0.54031-3.732 0.11712-0.13638-0.21356-1.2935-0.22538-3.6497-0.03729-1.8975 0.15147-3.855 0.26307-4.35 0.24799-6.2634-0.19084-11.517-0.02349-12.528 0.3991-1.3277 0.55474-1.5517 1.2786-0.29696 0.95959 0.45375-0.11537 1.095-0.19213 1.425-0.17058s2.0175 0.1022 3.75 0.17924c1.7325 0.07703 3.4538 0.20813 3.825 0.29132 0.91118 0.20419 0.88042 1.0398-0.0383 1.0398-0.70674 0-1.3162 0.47173-1.3567 1.05-0.0115 0.165-0.66427 0.33522-1.4505 0.37827l-1.4295 0.07827 0.825-0.52275c1.1528-0.73045 1.0277-1.0958-0.3-0.87634-0.61875 0.10227-1.3612 0.18744-1.65 0.18925-0.3239 0.002-0.525 0.23313-0.525 0.6033 0 0.33-0.135 0.6-0.3 0.6s-0.29872 0.16875-0.29715 0.375c0.002 0.26209 0.74722 0.40208 2.475 0.46494 2.9511 0.10737 4.2306-0.09126 4.9-0.76068 0.46288-0.46288 0.55846-0.46198 1.3862 0.01311 0.83158 0.47726 1.0214 0.47832 2.9352 0.01641 1.14-0.27516 2.2907-0.39313 2.5984-0.26639 0.36638 0.15092 0.42602 0.27461 0.17722 0.36755-1.1362 0.4244 0.0268 0.69494 3.15 0.73277l3.525 0.04271-3.15 0.26653c-1.7325 0.14659-3.916 0.19801-4.8523 0.11427-1.1894-0.10639-1.743-0.04138-1.8375 0.21577-0.10617 0.28906-0.22048 0.28756-0.53268-0.007-0.53047-0.50044-0.8775-0.47372-0.8775 0.06757 0 0.35111-0.15903 0.38211-0.76953 0.15-0.42322-0.16091-1.1615-0.29256-1.6406-0.29256-0.70252 0-0.83402 0.10158-0.67961 0.525 0.17188 0.47132 0.12491 0.46656-0.45941-0.0465-0.57543-0.50525-0.65087-0.51395-0.65087-0.075 0 0.27308-0.2025 0.4965-0.45 0.4965s-0.45 0.14944-0.45 0.3321c0 0.1967-0.21405 0.24603-0.525 0.12101-1.0008-0.40238-4.6636-0.75306-4.9971-0.47842-0.18036 0.14853-2.2083 0.28219-4.5066 0.29704-3.1738 0.02049-4.3377-0.07722-4.84-0.40636-0.36375-0.23834-0.91336-0.41586-1.2214-0.39449-0.308 0.02136-0.92297-0.05383-1.3666-0.16711-0.4514-0.11526-0.88857-0.07337-0.99271 0.09514-0.10235 0.16561 0.0581 0.30589 0.35661 0.31173 0.43195 0.0085 0.38964 0.09813-0.20729 0.43937l-0.75 0.42874 0.75 0.02319c0.4125 0.01275 1.2225 0.28189 1.8 0.59806 1.2541 0.68661 1.2881 0.69188 1.7143 0.26569zm38.936-2.6417c-1.1215-0.17575-1.0626-0.20219 0.9-0.40391 2.6442-0.27178 4.209-0.27916 3.9485-0.0186-0.11083 0.11083-0.77458 0.23085-1.475 0.26672-0.70042 0.03586-1.476 0.1279-1.7235 0.20453s-0.99 0.0547-1.65-0.04873zm6.2886-0.90559c0.0957-0.15486-0.0651-0.42075-0.3573-0.59088-0.7244-0.42173-0.28594-0.40793 0.65457 0.02061 0.92142 0.41983 0.99567 0.85184 0.14641 0.85184-0.33973 0-0.53939-0.1267-0.44368-0.28156zm5.2614 0.000423c0-0.15573 0.50182-0.2037 1.125-0.10754 1.5578 0.24038 1.6054 0.38868 0.125 0.38868-0.6875 0-1.25-0.12651-1.25-0.28114zm-29.325-2.3257c0.28875-0.07546 0.76125-0.07546 1.05 0s0.0525 0.1372-0.525 0.1372-0.81375-0.06174-0.525-0.1372zm8.8687-0.89814c0.21656-0.08666 0.47531-0.076 0.575 0.02369 0.0997 0.09969-0.0775 0.17059-0.39375 0.15757-0.34948-0.01439-0.42057-0.08548-0.18125-0.18125zm7.4062-0.41228c1.6564-0.34261 4.1076-0.32983 3.3 0.01721-0.33 0.14181-1.4775 0.25179-2.55 0.24442-1.8111-0.01246-1.8645-0.03109-0.75-0.26162zm6.6 0.01721c-1.1608-0.20784-1.1443-0.21625 0.50729-0.25743 0.93902-0.02341 1.7907 0.09243 1.8927 0.25743 0.2047 0.33122-0.5501 0.33122-2.4 0zm18.75 5.6429c0-0.39432-0.68183-0.1474-0.83132 0.30105-0.0731 0.21922 0.0641 0.28627 0.35625 0.17415 0.26129-0.10026 0.47507-0.3141 0.47507-0.4752zm-0.3-0.8429c0.56479-0.44179 0.62856-0.58831 0.25823-0.59333-0.27046-0.0037-0.81046 0.25884-1.2 0.58335-0.9576 0.79777-0.0773 0.80709 0.94177 0.01zm-59.4-0.9c0-0.165-0.64125-0.28084-1.425-0.25743l-1.425 0.04257 1.2 0.21486c0.66 0.11817 1.3012 0.23402 1.425 0.25743 0.12375 0.02341 0.225-0.09243 0.225-0.25743zm5.55 0c0.11692-0.18918-0.59689-0.3-1.9323-0.3-1.2118 0-2.1177 0.12833-2.1177 0.3 0 0.16895 0.8441 0.3 1.9323 0.3 1.0628 0 2.0157-0.135 2.1177-0.3zm-14.612-0.3c1.0356 0 1.0448-0.0108 0.51163-0.6-0.67133-0.74181-1.3924-0.7543-3.2312-0.05596-1.694 0.64337-1.5092 1.0865 0.34807 0.8346 0.72428-0.09825 1.7914-0.17864 2.3715-0.17864zm3.3616-0.43945c0-0.37006-0.84332-1.0606-1.2953-1.0606-0.21934 0-0.45424 1.1505-0.27208 1.3326 0.36119 0.36118 1.5674 0.15181 1.5674-0.27208zm64.784 0.15547c0.34158-0.2161 0.26512-0.31727-0.35795-0.47365-0.8661-0.21738-1.5367 0.03649-1.2636 0.47836 0.21922 0.3547 1.0573 0.35227 1.6215-0.0047zm1.5156-0.61602c0-0.165-0.135-0.3-0.3-0.3s-0.3 0.135-0.3 0.3 0.135 0.3 0.3 0.3 0.3-0.135 0.3-0.3zm-69.3-1.8c0-0.165-0.26203-0.3-0.58229-0.3-0.32027 0-0.66573 0.135-0.76771 0.3-0.10516 0.17015 0.14689 0.3 0.58229 0.3 0.42224 0 0.76771-0.135 0.76771-0.3zm71.925-0.675c-0.0687-0.20625-0.305-0.375-0.525-0.375s-0.45625 0.16875-0.525 0.375c-0.0744 0.22308 0.13833 0.375 0.525 0.375s0.59936-0.15192 0.525-0.375zm-3.9116-1.6107c0.0697-0.21184-0.17068-0.28194-0.6515-0.19003-0.41904 0.0801-0.76189 0.2743-0.76189 0.43154 0 0.39301 1.2764 0.1749 1.4134-0.24151zm-2.1634-0.41433c-0.10198-0.165-0.58244-0.3-1.0677-0.3s-0.88229 0.135-0.88229 0.3 0.48047 0.3 1.0677 0.3c0.6354 0 0.99263-0.12146 0.88229-0.3zm-169.36 119.48c0-0.32461 2.2543-20.728 2.8418-25.722 0.25239-2.145 0.87247-7.815 1.378-12.6 0.50548-4.785 1.1197-10.185 1.3649-12 0.4068-3.0109 2.1869-16.871 4.6678-36.345 0.52865-4.1496 1.1316-7.7778 1.3399-8.0626 0.35764-0.48911 0.61142-0.49018 4.5604-0.01926 8.6651 1.0333 13.621 2.8463 17.436 6.3781 1.9337 1.7903 2.1572 2.1265 2.8309 4.2594 1.1513 3.6445 1.4796 5.8957 1.4715 10.089-0.0117 6.0261-1.0593 9.6659-3.9636 13.771-1.2611 1.7827-1.9842 2.5079-2.9129 2.9215-0.67945 0.3026-1.4047 0.75426-1.6117 1.0037-0.207 0.24942-0.56233 0.45349-0.78963 0.45349-0.22729 0-0.68326 0.27-1.0133 0.6-0.72681 0.72681-0.78662 2.2893-0.16077 4.2 0.24321 0.7425 0.64097 2.565 0.8839 4.05 0.24294 1.485 0.85585 4.3875 1.362 6.45 0.50618 2.0625 1.0014 4.56 1.1005 5.55s0.50475 2.7246 0.90151 3.8547c0.75283 2.1443 1.4381 5.9609 1.7588 9.7953 0.24589 2.9402 0.73982 6.9048 0.94692 7.6008 0.14376 0.48306 0.0835 0.50772-0.49018 0.20069-0.35975-0.19253-0.74356-0.26058-0.85292-0.15122-0.24033 0.24034 0.80642 1.0498 1.3576 1.0498 0.21597 0 0.39267 0.18986 0.39267 0.42191 0 0.27422-0.21005 0.36699-0.6 0.26501-0.73181-0.19137-0.74397-0.0278-0.0894 1.203l0.51059 0.96011 0.16711-0.89858 0.1671-0.89858 0.35899 1.1986c0.19745 0.65922 0.44446 1.7361 0.54893 2.393 0.10447 0.65697 0.34337 1.467 0.5309 1.8 0.37058 0.65814 1.0555 3.5195 1.0865 4.5389 0.0157 0.51708-0.11845 0.60707-0.73074 0.49002-0.54983-0.1051-0.75-0.0139-0.75 0.3416 0 0.84756-0.51759 0.52201-0.71149-0.4475-0.1336-0.668-0.31442-0.8834-0.6375-0.75942-0.28273 0.1085-0.451-0.002-0.451-0.2956 0-0.25777-0.27-0.53928-0.6-0.62558-0.4318-0.11291-0.6-0.4092-0.6-1.0569 0-0.80049-0.0837-0.88398-0.75717-0.75525-0.41643 0.0796-0.82576 0.0337-0.9096-0.10192-0.0838-0.13566-0.35063-0.17062-0.59284-0.0777-0.34061 0.13073-0.44039-0.095-0.44039-0.99632 0-0.64094-0.23283-1.4978-0.51739-1.904-0.28457-0.40627-0.48074-1.0184-0.43594-1.3602 0.0448-0.34185-0.0817-1.0182-0.28105-1.5031-0.19938-0.48484-0.33508-0.99967-0.30155-1.1441 0.0335-0.1444-0.12665-0.4819-0.35596-0.75-0.53558-0.62619-0.90147-1.6306-0.50468-1.3853 0.17714 0.10948 0.29657-0.31591 0.29657-1.0564 0-1.0161-0.0941-1.2216-0.52156-1.1393-1.2055 0.23216-1.7985-1.3026-1.9921-5.1564-0.0456-0.9075-0.25476-1.9702-0.46479-2.3616-0.21004-0.39141-0.30471-1.0975-0.2104-1.5691 0.13227-0.66132 0.0329-0.93159-0.43424-1.1816-0.43233-0.23137-0.54989-0.50016-0.41064-0.9389 0.11054-0.34827-0.0328-1.1202-0.33078-1.7809-0.42907-0.95149-0.60425-1.1012-0.95142-0.81307-0.31589 0.26215-0.37428 0.72575-0.22665 1.7992 0.12844 0.93383 0.0876 1.4461-0.11516 1.4461-0.3138 0-0.93742-1.8156-0.94058-2.7384-0.0009-0.2686-0.20417-0.97301-0.45167-1.5654-0.2475-0.59235-0.45-1.41-0.45-1.8171 0-0.40706-0.15666-1.1202-0.34812-1.5846-0.19146-0.46449-0.3175-1.0265-0.2801-1.2489 0.0374-0.22241-0.12015-0.62741-0.35013-0.9-0.52945-0.62754-0.96755-2.1981-1.539-5.5174-0.42287-2.456-1.1482-4.5479-1.6938-4.8851-0.23829-0.14727-0.56554 1.126-1.1583 4.5069-0.17359 0.99-0.79836 6.1875-1.3884 11.55-0.59003 5.3625-1.4034 11.354-1.8074 13.314-0.40406 1.9603-0.73974 4.3228-0.74594 5.25-0.0107 1.5966-1.0791 7.6732-1.1536 6.5608-0.0564-0.84318-0.60022-0.60616-1.0324 0.45-0.39593 0.96761-0.4017 0.96989-0.76142 0.3-0.5298-0.98661-0.88982-0.82749-1.0181 0.45l-0.11301 1.125-0.2426-0.975c-0.21071-0.84684-0.76414-1.3862-0.7695-0.75-0.0009 0.12375-0.40604 0.45497-0.9 0.73605-0.49396 0.28107-0.8981 0.71559-0.8981 0.96558 0 0.26268-0.17433 0.38765-0.41299 0.29606-0.26167-0.10041-0.48326 0.12149-0.60476 0.60562-0.10548 0.42026-0.56089 0.98766-1.012 1.2609-0.45113 0.27324-1.1915 0.75149-1.6452 1.0628-0.45375 0.31128-0.825 0.45523-0.825 0.31987zm34.564-5.1184-0.27413-1.5082 0.7143 0.46803c0.95811 0.62778 1.1081 0.38192 0.66639-1.0924-0.34798-1.1614-1.1246-1.59-0.93266-0.51475 0.0485 0.27163-0.0311 0.49388-0.17685 0.49388-0.38798 0-0.88405-1.23-1.1137-2.7613-0.11048-0.73671-0.31655-1.5266-0.45793-1.7554-0.48029-0.77712-0.66805-0.0116-0.3282 1.338 0.18618 0.73939 0.33851 1.6346 0.33851 1.9893 0 0.74531 1.5204 5.169 1.711 4.9784 0.0701-0.0701 0.004-0.80607-0.14674-1.6356zm-1.5642-0.33667c0-0.10079-0.18525-0.44954-0.41167-0.775s-0.5051-1.0212-0.61928-1.546c-0.26083-1.1988-0.94688-1.8379-1.4418-1.343-0.26305 0.26305-0.23207 0.34729 0.12773 0.34729 0.46387 0 0.83268 0.82236 0.84089 1.875 0.002 0.28875-0.20315 0.525-0.45646 0.525-0.35364 0-0.39222 0.12768-0.1662 0.55 0.27309 0.51029 2.1268 0.82994 2.1268 0.36675zm-5.8338-14.091c-0.34479-0.55788-0.71824-0.3577-0.5479 0.29369 0.10574 0.40433 0.2642 0.51772 0.45578 0.32614 0.16153-0.16153 0.20298-0.44045 0.0921-0.61983zm4.0298-1.3011c-0.006-0.99318-0.32749-2.025-0.63089-2.025-0.14576 0-0.26317 0.30375-0.26092 0.675 0.006 0.99318 0.3275 2.025 0.63089 2.025 0.14576 0 0.26317-0.30375 0.26092-0.675zm0.93524-2.1139c-0.38505-0.38505-0.77552-0.0875-0.49046 0.37379 0.11043 0.17867 0.33821 0.23992 0.50618 0.1361 0.2049-0.12663 0.19973-0.29444-0.0157-0.50989zm-4.5311-3.2288c0-0.15526-0.135-0.28229-0.3-0.28229s-0.3 0.21047-0.3 0.46771c0 0.25723 0.135 0.38427 0.3 0.28229s0.3-0.31244 0.3-0.46771zm-4.455-6.4323c0-0.15675-0.14513-0.33337-0.3225-0.3925-0.17738-0.0591-0.3225 0.1175-0.3225 0.3925s0.14512 0.45163 0.3225 0.3925c0.17737-0.0591 0.3225-0.23575 0.3225-0.3925zm-5.3124-20.522c0.0924-0.14951 0.4221-0.20539 0.73266-0.12418 0.31056 0.08122 1.0174-0.08645 1.5707-0.37258 1.1188-0.57854 3.6132-2.5822 3.4357-2.7597-0.0625-0.06246-0.67972 0.17528-1.3717 0.5283-2.3964 1.2225-1.5634 0.17587 1.612-2.0256 1.3439-0.93167 1.9497-1.7126 1.6-2.0623-0.0891-0.08913-0.44824 0.12411-0.79801 0.47388s-0.76012 0.55919-0.91189 0.46539c-0.33413-0.2065-0.0538-1.0513 0.34879-1.0513 0.15772 0 0.24648-0.23777 0.19725-0.52838-0.0492-0.2906 0.54883-1.4886 1.329-2.6622 3.8387-5.7742 5.566-10.423 5.8369-15.709 0.18039-3.5202-0.24113-5.7892-1.5584-8.3887-0.58231-1.1491-1.3663-1.956-3.3671-3.4651-1.4344-1.0819-2.8164-1.927-3.071-1.878-0.88504 0.17044-1.2324 1.6935-1.5365 6.7381-0.38471 6.3804-0.93257 10.905-2.1003 17.344-1.6968 9.3567-2.6799 14.996-2.6804 15.375-0.0006 0.43417 0.48526 0.50262 0.73214 0.10316zm35.004 48.683c-0.95618-1.3565-1.37-1.437-1.5825-0.30756-0.099 0.52642-0.14268 0.52322-0.88894-0.0652-0.43166-0.34034-0.88144-0.52218-0.99953-0.4041-0.31602 0.31606-1.0656-0.83878-1.0656-1.6417 0-0.54113 0.16613-0.69266 0.75941-0.69266 0.41768 0 0.83778-0.20422 0.93356-0.45382 0.22389-0.58344-0.44279-1.3916-1.0639-1.2897-0.64694 0.10612-1.2291-0.29261-1.2291-0.84185 0-0.2475 0.13595-0.36598 0.30211-0.26328 0.53674 0.33172 0.72895-0.81352 0.20129-1.1994-0.27174-0.19871-0.43687-0.41849-0.36696-0.4884 0.0699-0.0699-0.0206-1.5882-0.20125-3.3738-0.24019-2.3749-0.23894-3.302 0.005-3.4525 0.23921-0.14784 0.21059-0.58349-0.10161-1.5465-0.3292-1.0156-0.61879-6.6147-1.1942-23.091-0.41781-11.963-0.97603-27.536-1.2405-34.608-0.39975-10.69-0.4135-12.9-0.0815-13.105 0.84574-0.5227 9.0368-1.2579 9.3051-0.83521 0.0974 0.15342 0.26185 6.0434 0.36551 13.089 0.10366 7.0455 0.32468 13.552 0.49114 14.46 0.56064 3.0564 0.91038 10.297 0.91336 18.908 0.003 7.4001 0.0687 8.6521 0.48893 9.2521l0.48596 0.69381 0.56404-1.2598c0.31022-0.6929 0.56404-1.4149 0.56404-1.6044 0-0.18953 0.61177-0.56459 1.3595-0.83347 1.2584-0.45252 1.3496-0.45234 1.2262 0.002-0.0733 0.27018-0.29324 1.4362-0.48868 2.5912-0.19543 1.155-0.48642 2.3492-0.64664 2.6537-0.21216 0.40329-0.16022 0.69859 0.19117 1.0869 0.44657 0.49344 0.43692 0.54505-0.12951 0.69317-0.33659 0.088-0.61198 0.37515-0.61198 0.63809 0 0.27623-0.25042 0.47809-0.59309 0.47809-0.70026 0-1.4218 0.99928-1.69 2.3407-0.20969 1.0484 0.0225 1.1752 0.91547 0.49978 0.32029-0.24225 0.77997-0.44046 1.0215-0.44046 0.35916 0 0.34552 0.10347-0.0749 0.56805-0.29933 0.33076-0.68693 1.6359-0.92787 3.1242-0.22759 1.4059-0.57795 2.8191-0.77859 3.1403-0.29343 0.46986-0.27804 0.70798 0.0787 1.2173 0.32286 0.46094 0.39103 1.0419 0.25066 2.1361-0.11642 0.90746-0.0688 1.627 0.12018 1.816 0.21733 0.21733 0.20509 0.48578-0.04 0.8783-0.59673 0.95552-0.13118 2.6788 0.86249 3.1927 0.83694 0.4328 0.84856 0.47039 0.40851 1.3214-0.2491 0.48214-0.45292 1.2205-0.45292 1.6412 0 0.92685-0.46536 1.0122-0.69664 0.12777-0.32048-1.2255-2.6034-0.0904-2.6034 1.2945 0 0.42018 0.23698 0.54266 1.05 0.54266 0.96198 0 1.05 0.074 1.05 0.88229 0 1.1407-0.526 1.467-0.77373 0.47998-0.19529-0.77809-0.83354-1.0168-1.1875-0.44416-0.10814 0.17495-0.0219 0.73981 0.19157 1.2552 0.31132 0.7516 0.3132 0.96212 0.01 1.0634-0.20827 0.0694-0.5016 0.44957-0.65186 0.84476-0.15025 0.3952-0.38554 0.71854-0.52286 0.71854s-0.69019-0.62497-1.2286-1.3888zm-0.63657-3.2435c0-0.23777-0.135-0.51573-0.3-0.61771s-0.3 0.0926-0.3 0.43229c0 0.33974 0.135 0.61771 0.3 0.61771s0.3-0.19453 0.3-0.43229zm6.919-24.941c0.32524-0.39188 0.31869-0.51953-0.0383-0.7454-0.23689-0.1499-0.69396-0.27461-1.0157-0.27714-0.455-0.004-0.505-0.0846-0.225-0.36459 0.198-0.198 0.36-0.55642 0.36-0.7965 0-0.34649-0.12371-0.32453-0.6 0.1065-0.81905 0.74123-0.78037 1.8968 0.075 2.2406 0.93776 0.37693 1.0014 0.36972 1.444-0.16352zm-31.644 23.313c-0.12923-0.2091-0.15395-0.4612-0.0549-0.56022 0.26849-0.26849 0.56123 0.12639 0.41622 0.56143-0.10162 0.30486-0.17228 0.30462-0.36129-0.001zm31.749-7.7267c0.43251-2.4545 1.1165-4.4338 1.3831-4.0024 0.15308 0.24768 0.12946 0.57463-0.0578 0.80028-0.23108 0.27843-0.18592 0.43167 0.16717 0.56716 0.56198 0.21565 0.64632 0.91727 0.13091 1.0891-0.19408 0.0647-0.49912 0.63888-0.67787 1.276-0.45592 1.625-1.2228 1.844-0.94547 0.26996zm81.8-3.8885c0.0144-0.34948 0.0855-0.42057 0.18125-0.18125 0.0867 0.21656 0.076 0.47531-0.0237 0.575-0.0997 0.0997-0.17059-0.0775-0.15756-0.39375zm-117.6-2.1c0.0144-0.34948 0.0855-0.42057 0.18125-0.18125 0.0867 0.21656 0.076 0.47531-0.0237 0.575-0.0997 0.0997-0.17059-0.0775-0.15757-0.39375zm-1.386-1.045c-0.27501-0.44497-0.0164-0.62979 0.56767-0.40567 0.27017 0.10368 0.41653 0.30936 0.32524 0.45706-0.22454 0.36332-0.65181 0.33872-0.89291-0.0514zm38.112-2.98c-0.10198-0.165-0.0424-0.3 0.13229-0.3 0.17474 0 0.31771 0.135 0.31771 0.3s-0.0595 0.3-0.1323 0.3-0.21573-0.135-0.3177-0.3zm-0.6-1.5c-0.10558-0.17082 0.15278-0.3 0.6-0.3 0.44721 0 0.70557 0.12918 0.6 0.3-0.10198 0.165-0.37198 0.3-0.6 0.3-0.22803 0-0.49803-0.135-0.6-0.3zm1.3974-6c0-0.4125 0.0681-0.58125 0.15132-0.375 0.0832 0.20625 0.0832 0.54375 0 0.75s-0.15132 0.0375-0.15132-0.375zm29.397-26.395c-0.0288-0.86009 1.3618-8.1009 1.6019-8.341 0.23112-0.23112 0.21816-0.13381-0.45768 3.4348-0.96709 5.1065-1.1161 5.7454-1.1442 4.9062zm31.632-13.671c-0.11035-0.43965-0.13313-0.86687-0.0506-0.94937 0.0825-0.0825 0.24028 0.20972 0.35063 0.64937s0.13313 0.86687 0.0506 0.94937c-0.0825 0.0825-0.24028-0.20972-0.35063-0.64937z"/>
</svg>
