<?xml version="1.0" encoding="UTF-8" standalone="no"?>
<!-- Created with Inkscape (http://www.inkscape.org/) -->

<svg
   xmlns:dc="http://purl.org/dc/elements/1.1/"
   xmlns:cc="http://creativecommons.org/ns#"
   xmlns:rdf="http://www.w3.org/1999/02/22-rdf-syntax-ns#"
   xmlns:svg="http://www.w3.org/2000/svg"
   xmlns="http://www.w3.org/2000/svg"
   xmlns:sodipodi="http://sodipodi.sourceforge.net/DTD/sodipodi-0.dtd"
   xmlns:inkscape="http://www.inkscape.org/namespaces/inkscape"
   width="62.117722mm"
   height="43.056202mm"
   viewBox="0 0 220.10216 152.56134"
   id="svg4182"
   version="1.1"
   inkscape:version="0.91 r13725"
   sodipodi:docname="tsf.default.svg">
  <defs
     id="defs4184" />
  <sodipodi:namedview
     id="base"
     pagecolor="#ffffff"
     bordercolor="#666666"
     borderopacity="1.0"
     inkscape:pageopacity="0.0"
     inkscape:pageshadow="2"
     inkscape:zoom="1.1115234"
     inkscape:cx="-23.260288"
     inkscape:cy="26.792008"
     inkscape:document-units="px"
     inkscape:current-layer="layer1"
     showgrid="false"
     inkscape:window-width="1920"
     inkscape:window-height="983"
     inkscape:window-x="0"
     inkscape:window-y="27"
     inkscape:window-maximized="1"
     fit-margin-top="0"
     fit-margin-left="0"
     fit-margin-right="0"
     fit-margin-bottom="0" />
  <metadata
     id="metadata4187">
    <rdf:RDF>
      <cc:Work
         rdf:about="">
        <dc:format>image/svg+xml</dc:format>
        <dc:type
           rdf:resource="http://purl.org/dc/dcmitype/StillImage" />
        <dc:title></dc:title>
      </cc:Work>
    </rdf:RDF>
  </metadata>
  <g
     inkscape:label="Layer 1"
     inkscape:groupmode="layer"
     id="layer1"
     transform="translate(-221.92573,-406.59287)">
    <g
       transform="matrix(0.125,0,0,-0.125,858.1237,491.03446)"
       id="g4167">
      <path
         inkscape:connector-curvature="0"
         id="path18"
         style="fill:#2056ae;fill-opacity:1;fill-rule:evenodd;stroke:none"
         d="m -4543.1155,-180.35124 c 0,0 34.895,-145.008 324.918,-145.008 0,0 287.341,-29.539 346.411,145.008 l 233.62,0 0,0 c 0,0 -9.09,-184.321 -225.57,-298.071 -158.42,-83.25 -276.6,-64.445 -338.351,-64.445 0,0 -201.399,-18.805 -343.715,56.379 -142.32,75.199 -209.453,190.66 -225.566,306.137 l 228.253,0 0,0 z m 568.579,855.884 -922.336,0 0,0 c -65.61,0 -118.805,-53.17 -118.805,-118.79 l 0,0 c 0,-65.59 53.195,-118.79 118.805,-118.79 l 108.007,0 0,-382.116996 228.348,0 0,382.116996 52.723,0 c -5.883,-24.05 -3.875,-69.84 29.133,-156.43 0,0 51.007,-115.48 222.871,-145.01 0,0 300.744,0 349.094,-77.883996 l 273.88,0 0,71.113996 111.53,0 0,0 c 63.05,0 114.18,51.12 114.18,114.18 l 0,0 c 0,63.04 -51.13,114.17 -114.18,114.17 l -111.53,0 0,79.86 151.73,0 0,0 c 65.6,0 118.79,53.2 118.79,118.79 l 0,0 c 0,65.62 -53.19,118.79 -118.79,118.79 l -386.61,0 0,0 1.27,-1.28 0,-363.2 c 0,0 -104.73,45.66 -260.47,44.31 l 0,0 -110.09,9.39 0,0 c 0,0 -24.175,-5.38 -32.226,34.92 0,0 0.01,29.98 17.242,38.28 l 277.434,0 0,237.58" />
      <path
         inkscape:connector-curvature="0"
         id="path20"
         style="fill:#231f20;fill-opacity:1;fill-rule:evenodd;stroke:none"
         d="m -4961.0685,-110.33224 c 7.844,-10.258 10.86,-14.722 25.176,-15.91 l 0,-16.527 -46.742,0 -43.297,59.039004 -10.668,0 0,-23.192004 c 0,-13.668 1.406,-18.132 16.719,-19.117 l 0,0 2.812,-0.203 0,-16.527 -72.5153,0 0,16.527 1.6171,0.203 0,0 c 15.5042,0.985 15.7152,4.625 15.7152,18.934 l 0,65.836004 c 0,13.504 0.203,18.144 -14.9105,18.961 l 0,0 -2.4218,0.195 0,16.5120002 75.9533,0 0,0 c 12.472,0 26.765,-0.411 38.664,-4.6410002 13.898,-5.035 23.359,-16.504 23.359,-31.605 0,-19.551 -14.902,-34.231 -33.437,-37.676 l 0,0 23.976,-30.809004 0,0 z m -67.679,45.930004 c 8.046,0 17.519,-0.414 24.968,3.004 7.262,3.41 13.297,9.469 13.297,17.519 0,5.645 -4.844,11.692 -9.265,15.11 -5.446,4.035 -13.289,4.632 -19.739,4.632 -5.445,0 -12.691,-0.406 -15.507,-3.027 -2.02,-1.816 -1.606,-6.055 -1.606,-8.453 l 0,-28.785 7.852,0 0,0 z m 221.097,-42.703004 c 5.242,-12.903 5.645,-16.332 19.532,-18.934 l 0,0 2.226,-0.203 0,-16.527 -73.309,0 0,16.527 c 4.223,0.609 16.696,0.203 16.696,6.453 0,2.813 -2.012,8.051 -2.813,10.871 l 0,0 -5.437,14.899004 -43.297,0 -5.649,-14.899004 0,0 c -1.003,-2.629 -2.402,-6.636 -2.402,-9.281 0,-7.051 11.067,-7.051 15.899,-7.84 l 0,0 2.019,-0.203 0,-16.527 -62.23,0 0,16.527 c 17.718,1.813 21.539,12.879 27.586,27.160004 l 0,0 39.082,93.4810002 31.211,0 40.886,-101.5040042 0,0 z m -49.754,30.597004 -14.906,39.09 -15.504,-39.09 30.41,0 0,0 z m -36.25,89.852 19.336,17.309 0,0 c 4.629,4.226 11.477,9.882 18.125,9.882 8.473,0 14.707,-6.472 14.707,-14.922 0,-10.464 -9.867,-13.886 -18.523,-15.7029998 l 0,0 -29.613,-6.457 -4.032,9.8909998 0,0 z m 100.09,-139.586004 c 16.727,1.188 17.121,5.422 17.121,19.75 l 0,64.645004 c 0,14.082 -0.195,18.316 -17.121,19.734 l 0,16.5120002 62.235,0 0,0 c 11.277,0 28.601,0 39.285,-3.028 12.668,-3.6170002 24.965,-13.0820002 32.414,-23.7540002 8.664,-12.086 12.691,-26.992 12.691,-41.902 0,-20.559 -6.453,-39.473004 -21.949,-53.168004 -16.719,-14.719 -36.652,-15.316 -57.605,-15.316 l -67.071,0 0,16.527 z m 52.77,12.879 c 0,-2.824 -0.407,-7.227 2.218,-8.856 2.813,-1.82 8.055,-2.019 11.469,-2.019 29.219,0 41.305,22.758 41.305,50.562004 0,12.278 -2.02,25.77 -9.473,35.649 -8.066,10.676 -18.726,13.89 -30.414,13.89 -12.289,0 -15.105,-0.792 -15.105,-12.898 l 0,-76.328004 z m 173.566,-29.406 -72.297,0 0,16.527 c 5.032,0.203 12.078,1.188 15.094,4.023 3.426,3.422 2.816,11.282 2.816,15.727 l 0,64.645004 c 0,4.019 0.418,11.269 -2.203,14.683 -2.621,3.434 -10.082,4.656 -14.308,4.856 l 0,0 -1.399,0.195 0,16.5120002 72.297,0 0,-16.7070002 c -5.64,-0.2 -12.695,-1.02 -15.918,-4.051 -3.418,-3.219 -2.812,-11.059 -2.812,-15.488 l 0,-64.645004 c 0,-4.254 -0.606,-11.488 2.019,-14.734 2.821,-3.598 10.469,-4.813 14.903,-5.016 l 1.808,0 0,-16.527 z m 29.988,15.515 c -15.105,13.696 -21.753,31.223004 -21.753,51.563004 0,43.504 32.019,73.5120002 74.531,73.5120002 39.871,0 73.301,-26.9930002 73.301,-68.8720002 0,-44.113004 -32.614,-75.136004 -75.922,-75.136004 -19.34,0 -35.653,5.644 -50.157,18.933 l 0,0 z m 80.559,20.762 c 5.039,10.250004 6.645,22.949004 6.645,34.230004 0,21.149 -7.645,49.754 -33.633,49.754 -27.391,0 -36.446,-29.421 -36.446,-52.586 0,-22.152 7.856,-50.761004 34.832,-50.761004 13.301,0 22.77,8.07 28.602,19.363 l 0,0 z m 223.289,21.730004 0,42.915 c 0,14.082 -0.187,18.519 -17.324,19.734 l 0,16.5120002 53.973,0 0,-16.5120002 c -17.118,-1.012 -17.711,-5.238 -17.711,-19.734 l 0,-100.922004 -24.981,0 -63.043,105.957004 0,-69.680004 c 0,-4.035 -0.406,-11.488 2.008,-14.734 2.828,-3.598 10.289,-4.629 15.727,-5.016 l 0,-16.527 -53.782,0 0,16.527 c 5.032,0.203 11.875,1.188 14.903,4.242 3.429,3.203 2.812,11.063 2.812,15.508 l 0,64.645004 c 0,4.019 0.41,11.269 -2.008,14.683 -2.828,3.633 -10.277,4.656 -15.707,5.051 l 0,16.5120002 59.008,0 46.125,-79.1610002 0,0 z m 65.646,-42.492004 c -15.095,13.696 -21.744,31.223004 -21.744,51.563004 0,43.504 32.014,73.5120002 74.514,73.5120002 39.88,0 73.32,-26.9930002 73.32,-68.8720002 0,-44.113004 -32.63,-75.136004 -75.94,-75.136004 -19.32,0 -35.66,5.644 -50.15,18.933 l 0,0 z m 80.57,20.762 c 5.05,10.250004 6.64,22.949004 6.64,34.230004 0,21.149 -7.64,49.754 -33.62,49.754 -27.39,0 -36.47,-29.421 -36.47,-52.586 0,-22.152 7.85,-50.761004 34.85,-50.761004 13.29,0 22.77,8.07 28.6,19.363 l 0,0 z m 101.26,77.723004 c 0.21,3.84 0.21,4.836 -3.83,4.836 -7.45,0 -15.51,-5.047 -20.74,-9.871 -5.64,-5.223 -9.45,-11.493 -14.09,-19.34 l 0,0 -14.71,5.843 16.12,41.7000002 110.16,0 16.13,-41.7000002 -14.71,-5.843 0,0 c -4.64,7.847 -8.46,14.117 -14.09,19.34 -5.25,4.824 -13.33,9.871 -20.76,9.871 -4.03,0 -4.03,-0.996 -3.83,-4.836 l 0,-77.723004 c 0,-4.035 -0.4,-11.488 2.22,-14.734 2.82,-3.828 9.86,-4.813 14.29,-5.016 l 2.44,0 0,-16.527 -73.53,0 0,16.527 2.42,0 0,0 c 4.42,0.203 11.48,1.188 14.29,5.016 2.62,3.246 2.22,10.699 2.22,14.734 l 0,77.723004 z m 161.73,-114.000004 -72.32,0 0,16.527 c 5.05,0.203 12.1,1.188 15.11,4.023 3.43,3.422 2.83,11.282 2.83,15.727 l 0,64.645004 c 0,4.019 0.4,11.269 -2.22,14.683 -2.61,3.434 -10.08,4.656 -14.31,4.856 l 0,0 -1.41,0.195 0,16.5120002 72.32,0 0,-16.7070002 c -5.66,-0.2 -12.69,-1.02 -15.92,-4.051 -3.43,-3.219 -2.83,-11.059 -2.83,-15.488 l 0,-64.645004 c 0,-4.254 -0.6,-11.488 2.02,-14.734 2.83,-3.598 10.49,-4.813 14.92,-5.016 l 1.81,0 0,-16.527 z m -62.64,156.113004 19.33,17.309 0,0 c 4.63,4.226 11.47,9.882 18.13,9.882 8.45,0 14.69,-6.472 14.69,-14.922 0,-10.464 -9.86,-13.886 -18.53,-15.7029998 l 0,0 -29.61,-6.457 -4.01,9.8909998 0,0 z m 209.65,-116.035004 c -10.48,-27.789 -37.49,-43.496 -66.68,-43.496 -41.69,0 -72.12,30 -72.12,71.711004 0,41.691 26.2,72.2970002 69.09,72.2970002 11.5,0 23.19,-2.622 33.45,-8.0630002 l 0,0 2.42,4.6410002 12.07,0 17.93,-47.5430002 -15.52,-5.625 -0.8,1.031 0,0 c -4.83,8.223 -9.66,16.91 -16.51,23.738 -7.25,7.254 -17.12,13.098 -27.6,13.098 -27.59,0 -35.63,-31.027 -35.63,-52.985 0,-10.875 3.01,-25.765 9.06,-35.031004 6.44,-10.488 17.3,-16.937 29.79,-16.937 19.94,0 35.66,15.109 44.53,31.836004 l 0,0 16.52,-8.672004 0,0 z m 76.54,-40.078 -72.34,0 0,16.527 c 5.04,0.203 12.1,1.188 15.12,4.023 3.43,3.422 2.81,11.282 2.81,15.727 l 0,64.645004 c 0,4.019 0.41,11.269 -2.2,14.683 -2.63,3.434 -10.08,4.656 -14.31,4.856 l 0,0 -1.42,0.195 0,16.5120002 72.34,0 0,-16.7070002 c -5.67,-0.2 -12.71,-1.02 -15.94,-4.051 -3.41,-3.219 -2.8,-11.059 -2.8,-15.488 l 0,-64.645004 c 0,-4.254 -0.61,-11.488 2.01,-14.734 2.81,-3.598 10.46,-4.813 14.89,-5.016 l 1.84,0 0,-16.527 z m 133.09,35.664 c 5.24,-12.903 5.63,-16.332 19.54,-18.934 l 0,0 2.21,-0.203 0,-16.527 -73.3,0 0,16.527 c 4.22,0.609 16.69,0.203 16.69,6.453 0,2.813 -2.02,8.051 -2.81,10.871 l 0,0 -5.41,14.899004 -43.32,0 -5.64,-14.899004 0,0 c -1.02,-2.629 -2.43,-6.636 -2.43,-9.281 0,-7.051 11.08,-7.051 15.93,-7.84 l 0,0 2.02,-0.203 0,-16.527 -62.28,0 0,16.527 c 17.76,1.813 21.58,12.879 27.6,27.160004 l 0,0 39.07,93.4810002 31.24,0 40.89,-101.5040042 0,0 z m -49.74,30.597004 -14.91,39.09 -15.52,-39.09 30.43,0 0,0 z m 154.45,70.9070002 12.11,0 13.28,-40.8790002 -14.49,-5.449 -1.84,2.628 0,0 c -4.6,6.434 -10.24,14.098 -16.9,18.508 -7.27,5.035 -15.9,8.285 -24.76,8.285 -9.07,0 -22.17,-3.437 -22.17,-14.527 0,-9.84 15.09,-12.074 22.17,-13.879 l 0,0 7.45,-1.613 13.49,-3.613 0,0 c 10.07,-2.832 22.35,-5.641 31.21,-11.297 9.66,-6.239 14.52,-17.903 14.52,-29.219 0,-31.625004 -27.59,-49.531004 -56.81,-49.531004 -11.69,0 -26.79,3.613 -36.06,11.078 l 0,0 -2.81,-9.254 -12.08,0 -16.75,50.742004 15.34,5.035 0,0 c 10.45,-20.332004 27.97,-37.269004 52.14,-37.269004 11.09,0 25.78,4.441 25.78,17.738 0,11.074004 -13.29,13.078004 -21.53,15.121004 l 0,0 -22.78,5.613 0,0 c -9.85,2.43 -22.73,5.454 -31.02,11.305 -9.47,6.828 -13.9,17.895 -13.9,29.395 0,28.187 25.4,44.5040002 51.37,44.5040002 11.09,0 23.38,-3.622 32.62,-9.8790002 l 0,0 2.42,6.4570002 0,0" />
    </g>
  </g>
</svg>
