<svg xmlns="http://www.w3.org/2000/svg" height="506.91" width="600" viewBox="0 0 158.75 134.12">
    <path d="M68.016 40.754c.492-9.431.772-35.937-25.558-40.472-24.395-4.203 3.3 40.075 3.3 40.075s-4.966-24.833-27.642-21.816C-2.597 21.294 31.43 45.938 31.43 45.938s-5.814-11.841-20.061-2.277c-12.483 8.382 21.06 17.068 22.733 14.116 1.669-2.955 33.914-17.023 33.914-17.023" fill="#e5007d"/>
    <path d="M34.961 42.985c-4.262 2.91-13.196 11.696-2.845 25.753 7.63 10.362 20.066 19.196 29.898 13.876 5.993-3.245 17.853-13.852 9.164-22.822-9.507-9.81-36.217-16.807-36.217-16.807" fill="#1f5ea9"/>
    <path d="M67.458 54.916c2.848 3.115 11.997 6.383 18.114-1.592 5.358-6.987-2.482-15.483-5.018-16.577-3.324-1.428-11.834-1.806-14.703 5.744-2.297 6.043-.217 10.426 1.606 12.425" fill="#fff"/>
    <path d="M68.435 48.417c.675.853 2.836 1.944 4.47-.057 2.127-2.596-.15-4.039-.78-4.37-.828-.423-3.005-.672-3.875 1.208-.7 1.512-.247 2.677.185 3.219"/>
    <path d="M67.933 44.61l2.437 1.909-2.993.261z" fill="#fff"/>
    <path d="M63.508 43.031a19.16 19.16 0 0 1 1.343-3.283c4.513-8.665 14.685-7.015 18.479-4.828 1.767 1.02 6.33 4.15 7.202 9.109z" fill="#a0c7eb"/>
    <path d="M78.202 61.432l6.519 11.081c-25.47 7.832-41.939-1.462-41.939-1.462L60 61.109z" fill="#ebb510"/>
    <path d="M75.666 61.186l-3.264.062.057.083 3.333.06z" fill="#dddee0"/>
    <path d="M72.402 61.248l-2.218.043 2.277.04z" fill="#1f5ea9"/>
    <path d="M70.184 61.29l-8.822.166-11.674 8.537s4.386 2.339 12.794 2.339c4.771 0 10.838-.753 18.131-3.116l-4.82-7.826-3.334-.06z" fill="#ebb510"/>
    <path d="M66.654 50.887s5.33-3.25 14.14-2.561c11.517.899 13.464 2.991 13.464 2.991s-6.511 12.449-21.913 17.765c-18.252 6.302-29.563 1.968-29.563 1.968l17.437-11.584s3.542 3.216 6.435-8.579" fill="#fcea00"/>
    <path d="M41.169 65.634c5.125 3.385 18.649 5.446 23.924-8.194 6.844-17.701-7.947-21.454-11.91-22.091-5.196-.835-17.339 1.664-18.701 13.329-1.089 9.335 3.404 14.788 6.687 16.956" fill="#fff"/>
    <path d="M38.673 56.418c1.034 1.134 4.186 2.46 6.295-.523 2.745-3.873-.614-5.689-1.539-6.086-1.205-.518-4.3-.656-5.341 2.09-.837 2.196-.081 3.794.585 4.519"/>
    <path d="M36.907 50.795l4.094 2.776-4.731.744z" fill="#fff"/>
    <path d="M31.476 52.323a25.29 25.29 0 0 1 .416-4.622c2.302-12.554 15.647-14.406 21.229-13.129 2.598.589 9.504 2.743 12.499 8.603z" fill="#a0c7eb"/>
    <path d="M23.358 84.777c1.243-2.684 4.417-10.355-2.707-14.748-6.602-4.068-3.718 12.035-3.718 12.035s1.454-7.797-5.489-9.568c-6.345-1.616.672 9.518.672 9.518s-.309-4.12-5.565-3.002c-4.607.979 4.129 7.42 4.962 6.756.829-.663 11.845-.991 11.845-.991M105.798 87.858a2.168 2.168 0 0 1 2.268 2.064l1.555 35.387a2.174 2.174 0 0 1-2.064 2.27l-8.967.806a2.168 2.168 0 0 1-2.267-2.063l-1.555-35.388a2.174 2.174 0 0 1 2.063-2.27z" fill="#e5007d"/>
    <path d="M58.53 93.168l-6.874-.076a2.356 2.356 0 0 0-2.382 2.328l-.2 18.005s-.09.832-.675 1.457c-.961 1.032-2.337 1.429-5.934 1.207-1.343-.083-2.498-.627-3.242-1.466-.473-.537-.293-1.555-.293-1.555l-.114-17.708a2.355 2.355 0 0 0-2.37-2.34l-6.875.046a2.355 2.355 0 0 0-2.341 2.37l.149 22.976c-.149 3.984 5.368 7.819 10.743 8.377 21.723 2.254 22.474-7.478 22.481-8.265l.257-22.976a2.353 2.353 0 0 0-2.33-2.38" fill="#ebb510"/>
    <path d="M33.636 85.914a2.486 2.486 0 0 0-2.513-2.454l-28.669.742A2.481 2.481 0 0 0 0 86.712l.554 10.291a2.487 2.487 0 0 0 2.513 2.456l7.702-.2.183 25.175a2.482 2.482 0 0 0 2.499 2.468l7.245-.048a2.486 2.486 0 0 0 2.468-2.498l-.128-25.413 8.7-.225a2.484 2.484 0 0 0 2.453-2.513z" fill="#1f5ea9"/>
    <path d="M100.424 126.41l-17.81-17.658 14.348-16.636a2.714 2.714 0 0 0-.256-3.832l-2.023-1.92a2.714 2.714 0 0 0-3.832.256l-12.352 14.323-.024-12.554a2.718 2.718 0 0 0-2.734-2.698l-8.843.026A2.718 2.718 0 0 0 64.2 88.45l.085 42.69a2.715 2.715 0 0 0 2.734 2.698l8.84-.026a2.717 2.717 0 0 0 2.699-2.732l-.026-12.56 14.926 14.8a2.714 2.714 0 0 0 3.84.007l3.116-3.08a2.717 2.717 0 0 0 .01-3.838" fill="#aac811"/>
    <path d="M155.323 120.328c-4.5 6.134-19.338 14.343-31.329.764-15.563-17.638.013-28.358 4.348-30.802 5.686-3.209 20.866-5.521 27.468 7.452 5.278 10.384 2.399 18.659-.487 22.586" fill="#fff"/>
    <path d="M138.05 97.535v20.2l-.382.383h-.62l-.355-.382v-9.6h-12.492v9.6l-.356.382h-.62l-.382-.382V97.535l.382-.382h.62l.356.382v9.329h12.492v-9.33l.355-.381h.62zM155.503 104.947v5.376c0 4.816-3.07 7.794-8.565 7.794h-6.022l-.389-.382V97.534l.389-.382h6.022c5.495 0 8.565 2.978 8.565 7.795m-8.532-6.523h-5.08v18.428h5.08c4.605 0 7.175-2.424 7.175-6.53v-5.375c0-4.105-2.543-6.524-7.175-6.524" fill="#1f5ea9"/>
</svg>
