<svg xmlns="http://www.w3.org/2000/svg" height="634.76" width="600" viewBox="0 0 158.75 167.948">
    <path d="M85.171 51.032c.618-11.807.967-45-32.005-50.68-30.545-5.261 4.132 50.184 4.132 50.184s-6.217-31.096-34.614-27.32c-25.936 3.45 16.673 34.31 16.673 34.31s-7.28-14.83-25.12-2.851C-1.396 65.17 40.607 76.048 42.702 72.35c2.091-3.7 42.468-21.32 42.468-21.32" fill="#e5007d"/>
    <path d="M43.778 53.827c-5.336 3.643-16.523 14.648-3.562 32.249 9.555 12.977 25.128 24.035 37.438 17.373 7.506-4.062 22.356-17.345 11.476-28.576-11.903-12.286-45.352-21.046-45.352-21.046" fill="#1f5ea9"/>
    <path d="M84.472 68.767c3.565 3.902 15.024 7.992 22.688-1.995 6.7-8.75-3.113-19.388-6.289-20.755-4.162-1.792-14.819-2.262-18.412 7.189-2.875 7.568-.272 13.059 2.013 15.56" fill="#fff"/>
    <path d="M85.696 60.628c.846 1.068 3.55 2.436 5.597-.071 2.665-3.25-.19-5.06-.979-5.471-1.033-.53-3.76-.843-4.85 1.513-.876 1.892-.31 3.35.232 4.029"/>
    <path d="M85.067 55.86l3.051 2.39-3.747.328z" fill="#fff"/>
    <path d="M79.526 53.884a23.936 23.936 0 0 1 1.683-4.11c5.648-10.85 18.39-8.786 23.138-6.046 2.213 1.278 7.933 5.196 9.023 11.407z" fill="#a0c7eb"/>
    <path d="M97.926 76.927l8.164 13.875c-31.894 9.808-52.516-1.832-52.516-1.832l21.558-12.448z" fill="#ebb510"/>
    <path d="M94.75 76.619l-4.088.078.074.102 4.172.074z" fill="#dddee0"/>
    <path d="M90.662 76.697l-2.776.052 2.85.05z" fill="#1f5ea9"/>
    <path d="M87.886 76.749l-11.047.208-14.62 10.689s5.494 2.93 16.022 2.93c5.975 0 13.572-.943 22.705-3.904l-6.038-9.8-4.172-.073z" fill="#ebb510"/>
    <path d="M83.465 63.72s6.675-4.07 17.707-3.205c14.418 1.126 16.858 3.746 16.858 3.746s-8.15 15.587-27.437 22.244c-22.856 7.892-37.019 2.465-37.019 2.465l21.832-14.506s4.436 4.027 8.06-10.743" fill="#fcea00"/>
    <path d="M51.552 82.188c6.417 4.239 23.354 6.819 29.958-10.26 8.57-22.167-9.95-26.866-14.914-27.665-6.507-1.043-21.71 2.084-23.417 16.69-1.365 11.692 4.262 18.522 8.373 21.235" fill="#fff"/>
    <path d="M48.426 70.647c1.294 1.42 5.244 3.08 7.884-.656 3.435-4.848-.767-7.123-1.926-7.621-1.51-.648-5.386-.821-6.69 2.619-1.048 2.75-.102 4.75.732 5.658"/>
    <path d="M46.216 63.606l5.127 3.478-5.924.93z" fill="#fff"/>
    <path d="M39.415 65.519a31.72 31.72 0 0 1 .521-5.786c2.882-15.722 19.594-18.04 26.581-16.441 3.255.739 11.903 3.436 15.653 10.772z" fill="#a0c7eb"/>
    <path d="M29.25 106.16c1.557-3.36 5.531-12.968-3.39-18.468-8.268-5.095-4.656 15.07-4.656 15.07s1.821-9.764-6.875-11.98c-7.943-2.024.844 11.919.844 11.919s-.387-5.16-6.97-3.76c-5.77 1.227 5.172 9.29 6.213 8.46 1.04-.83 14.833-1.241 14.833-1.241M132.48 110.02c1.5-.08 2.77 1.08 2.84 2.58l1.95 44.31c.07 1.5-1.09 2.77-2.58 2.84l-11.23 1.01c-1.5.08-2.77-1.08-2.84-2.58l-1.95-44.31a2.716 2.716 0 0 1 2.58-2.84z" fill="#e5007d"/>
    <path d="M73.293 116.67l-8.609-.1a2.951 2.951 0 0 0-2.982 2.92l-.25 22.54s-.114 1.04-.845 1.83c-1.204 1.29-2.929 1.79-7.433 1.51-1.68-.11-3.128-.79-4.057-1.84-.596-.67-.368-1.94-.368-1.94l-.142-22.18a2.949 2.949 0 0 0-2.969-2.93l-8.609.06a2.951 2.951 0 0 0-2.93 2.97l.185 28.77c-.185 4.99 6.723 9.79 13.453 10.49 27.201 2.82 28.141-9.37 28.153-10.35l.32-28.77a2.94 2.94 0 0 0-2.917-2.98" fill="#ebb510"/>
    <path d="M42.12 107.583a3.113 3.113 0 0 0-3.147-3.073l-35.899.929A3.106 3.106 0 0 0 0 108.58l.695 12.89a3.11 3.11 0 0 0 3.144 3.07l9.646-.25.23 31.53a3.113 3.113 0 0 0 3.13 3.09l9.071-.06a3.116 3.116 0 0 0 3.09-3.13l-.159-31.82 10.893-.29a3.103 3.103 0 0 0 3.072-3.14z" fill="#1f5ea9"/>
    <path d="M125.75 158.29l-22.3-22.11 17.97-20.83a3.411 3.411 0 0 0-.32-4.8l-2.54-2.41a3.393 3.393 0 0 0-4.79.33L98.297 126.4l-.03-15.72a3.396 3.396 0 0 0-3.424-3.376l-11.072.033a3.402 3.402 0 0 0-3.379 3.424l.108 53.46a3.39 3.39 0 0 0 3.421 3.37l11.073-.03a3.397 3.397 0 0 0 3.377-3.42l-.03-15.72 18.69 18.53a3.407 3.407 0 0 0 4.81.01l3.9-3.86a3.398 3.398 0 0 0 .01-4.81" fill="#aac811"/>
    <path d="M158.75 112.76c.06-1.26-.91-2.33-2.17-2.39l-14.68-.03c-1.26-.06-2.33.91-2.39 2.17v10.03c-.06 1.25.91 2.32 2.16 2.39l14.68.03c1.26.06 2.33-.91 2.4-2.17z" fill="#1f5ea9"/>
    <path d="M148.62 113.28a.579.579 0 0 0-.56-.59l-6.63.02c-.32 0-.58.25-.58.57l.02 1.89c0 .31.25.57.57.58l1.78-.01-.05 6.31c0 .31.25.57.57.58l1.67.03c.32 0 .58-.25.58-.56l.06-6.36 2.01-.01c.32.01.58-.25.58-.56zM156.86 113.66l-1.13-.47a.482.482 0 0 0-.61.28l-1.87 5.44-1.73-5.23a.468.468 0 0 0-.59-.31l-1.18.31c-.25.08-.39.34-.32.59l2.67 8.05c.07.25.27.33.59.31l1.05.05c.34-.01.51-.06.6-.3l2.8-8.11a.482.482 0 0 0-.28-.61" fill="#fff"/>
</svg>
