<svg xmlns="http://www.w3.org/2000/svg" height="178.89" viewBox="0 0 223.819 178.886" width="223.82">
    <path fill="#c51015" d="M33.48 178.786c-2-.464-5.39-1.891-7.2-3.032-3.069-1.935-7.206-6.31-8.75-9.25-1.892-3.606-2.614-6.701-2.621-11.231-.008-5.127.591-7.166 4.273-14.55 3.21-6.44 9.54-14.378 14.718-18.46.726-.572 1.738-1.388 2.25-1.812 1.895-1.573 7.28-4.9 10.653-6.582 9.777-4.874 20.983-7.915 32.727-8.881 5.192-.428 12.71-.467 66.825-.349 33.536.073 61.07.228 61.186.345.357.356-4.376 19.66-5.499 22.429-.906 2.234-2.402 4.376-3.803 5.444-2.33 1.778 1.267 1.67-63.35 1.901l-59.222.212.404-1.474c.223-.81.9-3.836 1.504-6.723a645.777 645.777 0 0 1 2.13-9.75c1.269-5.542 1.315-6.846.27-7.532-2.207-1.445-12.969 1.218-20.095 4.974-12.906 6.802-21.758 17.47-24.317 29.307-1.465 6.778-.7 12.436 2.344 17.35 1.682 2.716 2.776 3.794 4.934 4.86 2.203 1.089 2.284 1.104 5.737 1.079 1.972-.015 3.666.108 3.877.28 1 .814-.219 4.265-2.26 6.406-1.742 1.826-3.46 3.014-6.065 4.193-1.822.825-2.216.886-6 .934-2.227.028-4.32-.012-4.65-.088z"/>
    <path fill="#fff" d="M114.48 131.206c.196-.842 1.383-6.6 2.445-11.862.443-2.193.9-3.88 1.015-3.75.186.21.36 2.361 1.094 13.512l.183 2.775h7.298l.652-1.275a171.73 171.73 0 0 1 2.085-3.854c.788-1.418 2.58-4.681 3.98-7.252s2.583-4.639 2.625-4.597c.042.042-.11.672-.337 1.402-.228.729-.925 3.216-1.55 5.526a631.928 631.928 0 0 1-1.95 7.05l-.815 2.85 3.906.084c2.148.046 3.96.03 4.026-.037.155-.155 1.775-6.49 3.234-12.647.626-2.64 1.526-6.296 2-8.125.475-1.829.864-3.415.864-3.525 0-.11-2.687-.2-5.971-.2h-5.97l-.32.825c-.175.454-.84 1.77-1.476 2.925-2.567 4.66-4.18 7.649-5.463 10.129l-1.35 2.608-.22-6.669c-.12-3.667-.299-7.376-.396-8.243l-.178-1.575h-5.808c-5.271 0-5.823.049-5.966.525-.23.766-5.003 20.41-5.302 21.825-.506 2.39-.731 2.25 3.614 2.25 3.792 0 3.898-.017 4.051-.675zM152.48 129.175l1.247-2.7h6.29l-.203 2.7-.204 2.7h4.22c3.115 0 4.25-.098 4.336-.375.063-.206.193-5.74.288-12.3l.173-11.925h-13.686l-1.062 2.025c-.584 1.114-1.908 3.646-2.942 5.626-1.034 1.98-2.117 4.004-2.405 4.5-.813 1.395-6.3 12.09-6.3 12.28 0 .094 2.025.17 4.5.17h4.501l1.247-2.7z"/>
    <path fill="#c51015" d="M156.51 120.256c.426-.95.842-1.928.925-2.175.179-.535 2.085-5.165 2.656-6.45.384-.867.4-.826.418 1.077.011 1.088-.069 3.62-.177 5.625l-.196 3.648h-4.4l.774-1.725z"/>
    <path fill="#fff" d="M179.664 131.346c.373-.921 4.707-8.148 4.893-8.158.097-.006.339.766.536 1.714.198.95.64 2.907.982 4.35l.621 2.625h4.167c2.291 0 4.166-.09 4.166-.2 0-.11-.624-2.168-1.387-4.575-2.423-7.643-2.499-7.985-1.943-8.801.487-.716 3.141-4.084 6.555-8.318 1.031-1.28 1.875-2.411 1.875-2.516 0-.104-2.009-.19-4.464-.19H191.2l-.785 1.03c-.432.567-.786 1.119-.786 1.226 0 .108-.386.758-.858 1.445a53.547 53.547 0 0 0-1.483 2.29l-.623 1.042-.313-.822c-.172-.452-.508-1.664-.746-2.692-.239-1.028-.575-2.24-.748-2.694l-.314-.825h-4.207c-2.315 0-4.208.072-4.208.16 0 .088.215.662.479 1.275.263.613.716 1.79 1.007 2.615.29.825.953 2.623 1.471 3.995 1.089 2.881 1.175 2.539-1.581 6.29a289.327 289.327 0 0 0-2.876 3.983c-.577.823-1.759 2.447-2.625 3.61-.866 1.161-1.575 2.238-1.575 2.392 0 .161 1.916.28 4.51.28 4.036 0 4.532-.055 4.725-.531z"/>
    <g fill="#c51015">
        <path d="M3.82 145.536c-1.301-.464-2.733-1.706-3.368-2.921-.765-1.465-.54-4.283.533-6.666 2.603-5.785 9.846-13.206 16.294-16.694.495-.268 2.01-1.113 3.367-1.877 9.14-5.149 20.666-8.875 32.226-10.42 4.507-.601 13.163-1.501 14.056-1.461.248.011-1.507.418-3.9.905-11.175 2.271-20.283 6.22-29.313 12.706-5.308 3.812-11.945 11.113-20.023 22.025-1.086 1.467-3.905 4.032-4.878 4.439-1.227.513-3.5.496-4.993-.036zM10.97 118.175c-.897-.177-2.196-1.354-2.256-2.045-.126-1.446.08-2.033 1.056-3.01 2.465-2.465 8.84-4.18 19.96-5.37 3.936-.422 14.855-.896 13.65-.594-.33.083-2.6.628-5.047 1.211-7.116 1.697-10.423 2.919-19.403 7.171-5.02 2.377-6.61 2.904-7.96 2.638zM93.95 0c-2.765.006-5.543 1.476-7.637 4.328-.597.813-1.086 1.55-1.086 1.64 0 .516 1.095 1.108 2.047 1.106 3.201-.004 6.95 2.843 7.936 6.028 1.946 6.289-1.73 14.677-8.125 18.54-2.545 1.538-3.07 1.567-1.916.108 1.843-2.33 2.406-4.756 1.713-7.387-.83-3.148-2.846-5.302-5.738-6.133-3.982-1.143-8.184.616-10.258 4.295-.378.67-.508 1.628-.508 3.75 0 2.56.084 2.992.814 4.235 1.352 2.3 3.11 3.606 5.637 4.191 2.11.489 6.257.015 9.408-1.074 4.439-1.534 7.053-3.156 10.393-6.451 2.484-2.45 3.103-3.27 4.41-5.85 3.658-7.216 3.28-14.377-.986-18.643C98.246.876 96.1-.005 93.95 0zm17.229 19.826l-.096.75c-.052.412-.546 2.64-1.095 4.95-.55 2.31-1.43 6.09-1.953 8.4-.525 2.31-1.486 6.495-2.137 9.3a13910.427 13910.427 0 0 0-3.967 17.1c-.572 2.475-1.465 6.39-1.986 8.7-.521 2.31-1.471 6.428-2.112 9.15-.64 2.723-1.59 6.84-2.113 9.15s-1.41 6.127-1.97 8.48c-.562 2.355-1.022 4.345-1.022 4.425s4.382.144 9.738.144h9.74l.27-1.125c.148-.619.752-3.216 1.344-5.773l2.12-9.15c.575-2.476 1.545-6.661 2.155-9.301.61-2.64 1.33-5.678 1.602-6.75l.492-1.95 4.045.01c4.409.012 5.348.274 6.568 1.824.87 1.106.827 3.688-.135 8.14-.419 1.939-1.104 5.282-1.523 7.427-.419 2.145-1.02 4.979-1.336 6.299-.328 1.369-.577 3.479-.578 4.914-.002 2.473.015 2.53 1.02 3.478.561.53 1.609 1.122 2.326 1.315.717.193 4.272.463 7.902.601 10.372.394 10.951.392 10.951-.039 0-.21-.483-.642-1.074-.96-.612-.33-1.323-1.066-1.65-1.708-1.047-2.05-1.037-2.122 3.06-21.852.615-2.96.975-5.576.99-7.199.022-2.29-.067-2.714-.865-4.154-1.256-2.269-4.078-4.112-7.435-4.858-.95-.21-1.726-.463-1.725-.56 0-.098 1.34-.544 2.975-.99 1.634-.447 3.69-1.242 4.572-1.77 2.197-1.317 4.593-3.695 5.703-5.658 2.122-3.755 4.19-12.408 4.234-17.711.06-7.314-3.453-11.288-11.06-12.516-2.838-.458-5.462-.53-19.626-.531l-16.35-.002zm-96.301.15l-1.588 6.526c-.873 3.588-1.581 6.624-1.574 6.748.007.124 3.599.226 7.982.226 7.45 0 7.962.033 7.817.524-.085.289-.418 1.741-.739 3.226a2051.372 2051.372 0 0 1-3.656 16.648c-.467 2.063-.935 4.224-1.04 4.801-.107.578-.58 2.738-1.05 4.801-.47 2.062-1.337 5.977-1.927 8.7-2.674 12.33-3.263 15.011-3.823 17.4-.795 3.395-2.052 9.578-2.052 10.095 0 .344 1.618.4 9.642.334l9.643-.08.684-3c.375-1.65 1.178-5.295 1.785-8.1.607-2.805 1.558-7.124 2.113-9.6.555-2.474 1.56-7.065 2.232-10.2.673-3.135 1.553-7.185 1.956-9s1.218-5.528 1.812-8.25c.594-2.723 1.482-6.773 1.973-9 .49-2.228 1.033-4.724 1.205-5.549.172-.825.44-2.006.596-2.625l.283-1.125h13.453l.459-1.545c.252-.85.67-2.567.928-3.816s.715-3.221 1.017-4.381c.302-1.16.636-2.48.74-2.934l.192-.824H14.879zm174.08 0l-9.64.002-9.64.004-.995 4.272c-.549 2.35-1.468 6.296-2.041 8.771-.574 2.475-1.5 6.457-2.059 8.85-.558 2.392-1.44 6.24-1.959 8.55-.858 3.817-1.484 6.535-4.182 18.15-2.365 10.187-3.044 13.133-4.076 17.7a784.507 784.507 0 0 1-2.129 9.134c-.555 2.302-1.01 4.428-1.01 4.725 0 .51.55.541 9.557.541h9.555l.521-2.324c.287-1.279.973-4.283 1.526-6.676.552-2.392 1.499-6.51 2.103-9.15 1.929-8.426 3.149-13.703 4.024-17.4.468-1.98 1.024-4.513 1.238-5.63s.488-1.924.61-1.798c.12.126.638 2.727 1.152 5.78a765.356 765.356 0 0 0 1.652 9.448c.395 2.145 1.14 6.331 1.658 9.301.517 2.97 1.405 7.904 1.973 10.967.567 3.063 1.033 6 1.033 6.526v.957h10.049c5.527 0 10.051-.07 10.051-.157 0-.086-.458-2.078-1.018-4.425-.56-2.348-1.433-6.091-1.941-8.319-4.364-19.144-5.035-22.05-6.076-26.395-.514-2.142-.851-4.066-.752-4.275.1-.209 1.051-1.595 2.117-3.08s2.962-4.185 4.213-6 3.217-4.649 4.369-6.299 2.984-4.284 4.07-5.852c1.087-1.567 2.976-4.267 4.198-6s3.113-4.466 4.203-6.076c1.09-1.61 2.103-3.003 2.25-3.094.991-.613-.598-.728-9.918-.728h-10.186l-.764 1.002c-.42.552-.766 1.098-.766 1.213 0 .115-.257.574-.57 1.021-.635.907-3.08 4.727-6.137 9.588-.389.619-1.313 2.07-2.052 3.225a1638.138 1638.138 0 0 0-9.09 14.367c-2.039 3.278-3.21 5.025-3.303 4.931-.059-.059.077-.847.303-1.752.429-1.72 1.857-7.806 3.45-14.697 1.43-6.194 2.96-12.734 3.732-15.975l.697-2.923zm-61.334 13.5h4.357c3.83 0 4.518.077 5.674.637.804.389 1.435.943 1.621 1.424.572 1.478-.206 6.552-1.71 11.143-.963 2.939-2.429 4.528-4.641 5.039-1.416.327-9.596.523-9.596.23 0-.148 1.435-6.253 2.686-11.424.479-1.98 1.037-4.375 1.24-5.324l.369-1.724zm-76.498 4.2l-.506 2.175a411.435 411.435 0 0 1-1.373 5.625c-.477 1.898-1.358 5.407-1.957 7.8l-1.953 7.8c-2.002 7.978-2.715 11.207-3.47 15.75-1.573 9.451-.518 15.005 3.591 18.9 3.146 2.983 8.488 4.97 15.17 5.646 4.282.434 11.958-.141 15.53-1.164 2.006-.574 5.564-2.198 7.12-3.25 1.882-1.271 4.58-4.333 5.846-6.632 2.27-4.122 3.665-8.53 6.459-20.4.621-2.64 1.575-6.623 2.117-8.85.543-2.228 1.543-6.413 2.223-9.3.68-2.888 1.642-6.938 2.137-9s.961-4.053 1.039-4.425l.14-.675H84.052l-.332 1.234c-.183.679-.6 2.467-.926 3.975a162 162 0 0 1-1.174 4.99c-.318 1.237-1.128 4.612-1.799 7.5-.67 2.887-1.606 6.871-2.078 8.851s-1.346 5.693-1.943 8.25c-.598 2.558-1.301 5.392-1.565 6.3-1.034 3.563-2.776 6.095-4.97 7.226-1.605.827-4.506.78-6.23-.102-2.828-1.444-3.233-3.384-1.87-8.955.829-3.387 1.591-6.593 4.303-18.119.505-2.145 1.369-5.79 1.92-8.1s1.427-6.022 1.947-8.25c.52-2.227.998-4.219 1.06-4.425.09-.295-1.963-.375-9.577-.375h-9.692z"/>
    </g>
</svg>
