<svg width="800" height="134.72" version="1.1" viewBox="-21.6 -6.0626 124.8 6.1258" xmlns="http://www.w3.org/2000/svg">
 <defs>
  <clipPath id="a">
   <path d="M 0,595.28 H 841.89 V 0 H 0 Z"/>
  </clipPath>
  <filter id="b" color-interpolation-filters="sRGB">
   <feColorMatrix result="color1" type="hueRotate" values="180"/>
   <feColorMatrix result="color2" values="-1 0 0 0 1 0 -1 0 0 1 0 0 -1 0 1 -0.21 -0.72 -0.07 2 0 "/>
  </filter>
 </defs>
 <g transform="matrix(.30574 0 0 -.30574 -87.9 88.001)" clip-path="url(#a)">
  <path d="m522.36 263.97c-5.92 0-14.246 9e-3 -14.246 9e-3v7.087s7.598-9e-3 13.275-9e-3c5.494 0 8.309 1.417 8.42 4.884 0.104 3.272-1.162 4.478-5.678 6.37l-6.837 2.809c-6.715 2.746-10.317 6.273-10.317 12.866 0 8.183 5.26 11.338 16.438 11.338 5.738 0 13.047 9e-3 13.047 9e-3v-7.087s-8.018-5e-3 -12.78-5e-3c-5.31 0-8.281-0.634-8.281-4.255 0-2.273 1.283-3.688 5.799-5.519l6.168-2.504c7.935-3.234 11.008-6.37 11.008-14.061 0-8.242-5.821-11.932-16.016-11.932m-180.78 38.276v-38.268h-8.504v38.268h-14.173v7.087h36.85v-7.087zm269.29 0v-38.268h-8.504v38.268h-14.172v7.087h36.85v-7.087zm-169.99-7.0537c0 6.985-4.615 7.046-15.67 7.046l2e-3 -14.878 4.432-4e-3c7.775 0 11.236 1.641 11.236 7.472zm2.037-31.214-9.922 17.004-7.795 4e-3v-17.008h-8.504v45.355l12.766-5e-3c10.875 0 19.74-2.262 19.74-14.168 0-6.864-2.904-10.693-7.703-12.757l10.631-18.425zm-67.324 45.355h-8.504v-4.252l8.504-4.252z" fill="#505a67" filter="url(#b)"/>
  <path d="m394.03 283.98c0-9.109-2.025-12.911-9.193-12.911-7.228 0-9.232 3.771-9.232 12.881l-0.012 14.048-8.503 4.252v-19.808c0-12.998 6.268-19.169 17.747-19.169 11.42 0 17.697 6.19 17.697 19.188l-0.011 15.537-8.504 4.252zm8.4926 25.356h-8.504v-4.252l8.504-4.252zm170.08 0h-12.756l-13.463-45.354 8.504-5e-3 11.338 38.272 11.338-38.267h8.504zm-83.621-45.354-17.008 21.26v-21.26h-8.504v45.354h8.504v-21.259l17.008 21.259h9.922l-18.426-22.677 18.426-22.677z" fill="#9da7b4"/>
  <path d="m249.45 300.83 15.591 5.669v-36.851l-15.591-5.669z" fill="#309cdd"/>
  <path d="m249.45 317.84v-17.008l-32.599 14.174v17.008zm48.189-8.5039v-17.008l-32.598 14.173v17.009z" fill="#309cdd"/>
 </g>
</svg>
