<?xml version="1.0" encoding="UTF-8" standalone="no"?>
<svg id="svg2" xmlns:rdf="http://www.w3.org/1999/02/22-rdf-syntax-ns#" xmlns="http://www.w3.org/2000/svg" height="178.89" viewBox="0 0 223.81894 178.88592" width="223.82" version="1.1" xmlns:cc="http://creativecommons.org/ns#" xmlns:dc="http://purl.org/dc/elements/1.1/">
 <g id="g4169" transform="translate(270.35 -1.6445)">
  <path id="path4166" fill="#c51015" d="m-236.87 180.43c-2.0002-0.46326-5.3909-1.891-7.2-3.0318-3.0687-1.935-7.2063-6.3093-8.7497-9.2502-1.8923-3.6058-2.6146-6.7005-2.6214-11.231-0.008-5.1269 0.59114-7.1657 4.273-14.55 3.2106-6.439 9.5393-14.377 14.718-18.459 0.72595-0.57233 1.7384-1.3881 2.25-1.8127 1.8946-1.5728 7.2808-4.9004 10.653-6.5816 9.7772-4.874 20.983-7.9151 32.727-8.8815 5.1917-0.42724 12.711-0.46645 66.825-0.34844 33.536 0.0731 61.07 0.22808 61.186 0.34434 0.35663 0.35662-4.3761 19.661-5.4989 22.429-0.90622 2.2344-2.4024 4.3766-3.8028 5.4448-2.3302 1.7773 1.2663 1.6694-63.35 1.9006l-59.222 0.21193 0.40422-1.4736c0.22231-0.81047 0.89874-3.8361 1.5032-6.7236 0.60443-2.8875 1.5628-7.275 2.1297-9.75 1.2694-5.542 1.3161-6.8459 0.27004-7.5313-2.2067-1.4459-12.968 1.2176-20.094 4.9733-12.906 6.8022-21.758 17.47-24.317 29.307-1.4655 6.7781-0.70122 12.436 2.3438 17.351 1.6821 2.7154 2.7762 3.793 4.9342 4.8595 2.2028 1.0887 2.2832 1.1038 5.7365 1.0786 1.9717-0.0144 3.6662 0.10796 3.8774 0.27991 0.99912 0.81378-0.21885 4.2653-2.2605 6.4058-1.742 1.8263-3.4598 3.0141-6.0645 4.1934-1.822 0.82486-2.2159 0.88616-6 0.93388-2.2275 0.0281-4.32-0.0115-4.65-0.0879z"/>
  <path id="path4164" fill="#fff" d="m-155.87 132.85c0.19573-0.84194 1.3827-6.6001 2.4452-11.862 0.4428-2.1929 0.89961-3.8804 1.0151-3.75 0.18576 0.2097 0.35996 2.3617 1.0938 13.512l0.18262 2.775h3.6491 3.6491l0.65203-1.275c0.35862-0.70125 1.2968-2.4353 2.0848-3.8535 0.78801-1.4182 2.5794-4.6815 3.9809-7.2518s2.5824-4.6392 2.6241-4.5974c0.0418 0.0418-0.10996 0.67259-0.33717 1.4018-0.22721 0.72923-0.92419 3.2159-1.5488 5.5259-0.62465 2.31-1.5025 5.4825-1.9508 7.05l-0.81503 2.85 3.9058 0.084c2.1482 0.0462 3.96 0.0297 4.0264-0.0366 0.15486-0.15485 1.7745-6.4891 3.2339-12.647 0.62563-2.64 1.5258-6.2962 2.0005-8.1248 0.47464-1.8287 0.86297-3.4149 0.86297-3.525 0-0.11009-2.6868-0.20016-5.9706-0.20016h-5.9706l-0.31906 0.825c-0.17549 0.45375-0.83973 1.77-1.4761 2.925-2.5671 4.6592-4.1797 7.6488-5.4635 10.129l-1.35 2.6077-0.2192-6.6682c-0.12056-3.6675-0.29903-7.3769-0.39659-8.2432l-0.17738-1.575h-5.8082c-5.2714 0-5.8228 0.0485-5.9662 0.525-0.23047 0.76587-5.0029 20.41-5.3024 21.825-0.50575 2.3903-0.73118 2.25 3.6143 2.25 3.792 0 3.8984-0.0177 4.0512-0.675z"/>
  <path id="path4162" fill="#fff" d="m-117.87 130.82 1.2472-2.7h3.1451 3.1451l-0.20382 2.7-0.20383 2.7h4.2202c3.1146 0 4.2504-0.0982 4.3356-0.375 0.0635-0.20625 0.19331-5.7412 0.28852-12.3l0.1731-11.925h-6.8433-6.8433l-1.0617 2.025c-0.58395 1.1138-1.9078 3.645-2.942 5.625-1.0341 1.98-2.1164 4.005-2.4049 4.5-0.81343 1.3953-6.3006 12.091-6.3006 12.281 0 0.093 2.0254 0.16906 4.5008 0.16906h4.5008l1.2472-2.7z"/>
  <path id="path4160" fill="#c51015" d="m-113.84 121.9c0.42562-0.94875 0.84174-1.9275 0.92469-2.175 0.17911-0.53437 2.0858-5.1644 2.6562-6.45 0.38433-0.86625 0.40002-0.82583 0.41849 1.0779 0.0106 1.0878-0.0691 3.6191-0.17692 5.625l-0.1961 3.6471h-2.2001-2.2001l0.77387-1.725z"/>
  <path id="path4158" fill="#fff" d="m-90.686 132.99c0.37289-0.92089 4.7068-8.1472 4.8926-8.158 0.0975-0.006 0.33904 0.76602 0.53677 1.7148 0.19773 0.94875 0.63932 2.9062 0.98131 4.35l0.62181 2.625h4.1664c2.2915 0 4.1664-0.09 4.1664-0.19994 0-0.10997-0.62422-2.1687-1.3872-4.575-2.4235-7.6435-2.499-7.9857-1.9435-8.8016 0.48716-0.71548 3.1414-4.0834 6.5556-8.3181 1.0312-1.2791 1.875-2.4111 1.875-2.5155 0-0.10442-2.009-0.18986-4.4644-0.18986h-4.4644l-0.78561 1.03c-0.43209 0.56649-0.78561 1.1182-0.78561 1.226 0 0.10779-0.38635 0.75805-0.85857 1.445-0.47221 0.68698-1.1392 1.7176-1.4823 2.2902l-0.6237 1.0412-0.31254-0.82205c-0.1719-0.45212-0.50774-1.6632-0.74632-2.6912-0.23857-1.028-0.57507-2.2404-0.74776-2.6941l-0.31399-0.825h-4.2074c-2.3141 0-4.2074 0.0718-4.2074 0.15964 0 0.0878 0.21529 0.66155 0.47842 1.275 0.26312 0.61345 0.71634 1.7904 1.0072 2.6154 0.29081 0.825 0.95295 2.6228 1.4714 3.995 1.0886 2.8811 1.1747 2.5383-1.5814 6.2904-1.0041 1.367-2.2981 3.1589-2.8756 3.9821-0.5775 0.82319-1.7588 2.4474-2.625 3.6094-0.86625 1.162-1.575 2.2388-1.575 2.3929 0 0.1612 1.9155 0.28022 4.5097 0.28022 4.0359 0 4.5323-0.0559 4.725-0.53179z"/>
  <g fill="#c51015">
   <path id="path4156" d="m-266.53 147.18c-1.3013-0.46391-2.7332-1.7056-3.368-2.9207-0.76518-1.4647-0.54-4.2826 0.53269-6.666 2.6034-5.7844 9.8468-13.206 16.294-16.694 0.495-0.26783 2.0105-1.1125 3.3678-1.8771 9.1396-5.1484 20.666-8.875 32.226-10.419 4.5066-0.60183 13.163-1.5021 14.056-1.4618 0.2475 0.0112-1.5075 0.41826-3.9 0.90465-11.175 2.2718-20.283 6.2197-29.313 12.706-5.3082 3.8127-11.945 11.113-20.023 22.025-1.0863 1.4673-3.9051 4.0324-4.8784 4.4392-1.2273 0.51302-3.4995 0.49669-4.9935-0.0359z"/>
   <path id="path4154" d="m-259.38 119.82c-0.89709-0.17722-2.1958-1.3548-2.2561-2.0458-0.12616-1.4459 0.0799-2.0331 1.0556-3.0088 2.4659-2.4659 8.8396-4.1811 19.961-5.3714 3.9358-0.42127 14.854-0.89593 13.65-0.59342-0.33 0.0829-2.6014 0.62789-5.0475 1.2111-7.116 1.6966-10.423 2.9188-19.403 7.1708-5.0207 2.3774-6.6108 2.9043-7.9607 2.6376z"/>
   <path id="path4152" d="m-176.4 1.6445c-2.7654 0.00551-5.5427 1.4756-7.6367 4.3281-0.59685 0.81307-1.0859 1.5508-1.0859 1.6406 0 0.51553 1.0943 1.1068 2.0469 1.1055 3.2009-0.0043 6.9502 2.8429 7.9356 6.0273 1.9459 6.289-1.7292 14.677-8.125 18.541-2.5451 1.5378-3.0705 1.5662-1.916 0.10742 1.8435-2.3293 2.4062-4.7558 1.7129-7.3867-0.82975-3.1487-2.8463-5.3027-5.7383-6.1328-3.9819-1.143-8.1834 0.61577-10.258 4.2949-0.37782 0.67011-0.50781 1.628-0.50781 3.75 0 2.5591 0.0839 2.9917 0.81445 4.2344 1.3521 2.3001 3.1097 3.6066 5.6367 4.1914 2.1104 0.48839 6.2572 0.01468 9.4082-1.0742 4.4389-1.534 7.0525-3.1561 10.393-6.4512 2.4837-2.4502 3.1027-3.2704 4.4102-5.8496 3.658-7.2158 3.2794-14.377-0.98633-18.643-1.8076-1.8076-3.9526-2.6879-6.1035-2.6836zm17.229 19.826-0.0957 0.75c-0.0528 0.4125-0.54632 2.6392-1.0957 4.9492-0.5494 2.31-1.4288 6.0904-1.9531 8.4004-0.52431 2.31-1.4851 6.4958-2.1367 9.3008-2.4268 10.447-2.9512 12.706-3.9668 17.1-0.57211 2.475-1.4655 6.3892-1.9863 8.6992-0.52083 2.31-1.4712 6.4279-2.1113 9.1504-0.64016 2.7225-1.591 6.8404-2.1133 9.1504s-1.4094 6.1263-1.9707 8.4805c-0.56132 2.3542-1.0215 4.3442-1.0215 4.4238s4.3821 0.14453 9.7383 0.14453h9.7402l0.26953-1.125c0.14825-0.61875 0.75198-3.2159 1.3438-5.7734 0.59177-2.5575 1.5467-6.6754 2.1211-9.1504 0.57437-2.475 1.5443-6.6608 2.1543-9.3008 0.60997-2.64 1.3306-5.6775 1.6016-6.75l0.49218-1.9492 4.0449 0.0098c4.4092 0.01196 5.3486 0.27354 6.5684 1.8242 0.86933 1.1052 0.82703 3.6878-0.13476 8.1387-0.41908 1.9394-1.1047 5.2827-1.5234 7.4277-0.41873 2.145-1.0199 4.9788-1.3359 6.2988-0.32786 1.3694-0.57712 3.4793-0.57812 4.9141-0.002 2.473 0.0148 2.531 1.0195 3.4785 0.56187 0.52992 1.6093 1.1216 2.3262 1.3144 0.71688 0.19291 4.2724 0.46385 7.9024 0.60157 10.372 0.39348 10.951 0.39211 10.951-0.0391 0-0.20998-0.48307-0.64257-1.0742-0.96093-0.61218-0.32968-1.3228-1.0649-1.6504-1.707-1.0461-2.0505-1.0366-2.1223 3.0606-21.852 0.61461-2.9596 0.97493-5.5762 0.99023-7.1992 0.0216-2.2894-0.0674-2.7139-0.86523-4.1543-1.2563-2.2682-4.0778-4.1114-7.4356-4.8574-0.94875-0.21079-1.7255-0.46306-1.7246-0.56055 0.00091-0.0975 1.3403-0.54403 2.9746-0.99024 1.6343-0.4462 3.6913-1.2416 4.5723-1.7695 2.1975-1.3169 4.5935-3.6948 5.7031-5.6582 2.1222-3.7551 4.191-12.408 4.2344-17.711 0.0599-7.3139-3.4533-11.288-11.061-12.516-2.8375-0.45778-5.4614-0.52895-19.625-0.53125l-16.35-0.002zm-96.301 0.15039-1.5879 6.5254c-0.87321 3.5883-1.5812 6.6243-1.5742 6.748 0.007 0.12375 3.5988 0.22656 7.9824 0.22656 7.4497 0 7.9612 0.03272 7.8164 0.52344-0.0852 0.28875-0.41794 1.7416-0.73829 3.2266-1.3218 6.1274-2.8587 13.125-3.6562 16.648-0.4669 2.0625-0.93504 4.2233-1.041 4.8008-0.10597 0.5775-0.57849 2.7383-1.0488 4.8008-0.47035 2.0625-1.3374 5.9767-1.9277 8.6992-2.6736 12.331-3.2628 15.012-3.8223 17.4-0.79519 3.3954-2.0527 9.5789-2.0527 10.096 0 0.34375 1.6182 0.39988 9.6426 0.33398l9.6426-0.0801 0.6836-3c0.37535-1.65 1.1781-5.2946 1.7852-8.0996 0.60703-2.805 1.558-7.1246 2.1133-9.5996 0.55533-2.475 1.5601-7.0662 2.2324-10.201 0.67235-3.135 1.5521-7.185 1.9551-9s1.2183-5.5275 1.8125-8.25c0.59424-2.7225 1.4821-6.7725 1.9727-9 0.49053-2.2275 1.0331-4.7238 1.2051-5.5488 0.17195-0.825 0.43997-2.0062 0.5957-2.625l0.2832-1.125h6.7266 6.7266l0.45898-1.5449c0.25228-0.84953 0.66963-2.5668 0.92774-3.8164s0.71586-3.2212 1.0176-4.3809c0.30172-1.1596 0.63531-2.4798 0.74023-2.9336l0.19141-0.82422h-24.531-24.531zm174.08 0-9.6406 0.002-9.6387 0.0039-0.9961 4.2715c-0.54814 2.3496-1.4672 6.2965-2.041 8.7715-0.57386 2.475-1.5003 6.4571-2.0586 8.8496-0.55831 2.3925-1.4394 6.2408-1.959 8.5508-0.85823 3.8159-1.4843 6.5344-4.1816 18.15-2.3653 10.186-3.0443 13.132-4.0762 17.699-0.6151 2.7225-1.5736 6.8334-2.1289 9.1348-0.55532 2.3013-1.0098 4.4272-1.0098 4.7246 0 0.50965 0.55042 0.54101 9.5566 0.54101h9.5547l0.52149-2.3242c0.28664-1.2788 0.97296-4.2833 1.5254-6.6758 0.55243-2.3925 1.4992-6.5104 2.1035-9.1504 1.9286-8.4256 3.1488-13.703 4.0234-17.4 0.46839-1.98 1.0248-4.5129 1.2383-5.6289s0.48844-1.9249 0.60938-1.7988c0.12093 0.12603 0.63902 2.7268 1.1523 5.7793 0.51331 3.0525 1.2572 7.3042 1.6523 9.4492 0.39511 2.145 1.1408 6.3308 1.6582 9.3008 0.51739 2.97 1.4051 7.9042 1.9727 10.967 0.56752 3.0626 1.0332 5.9992 1.0332 6.5254v0.95703h10.049c5.5275 0 10.051-0.07 10.051-0.15625 0-0.0863-0.45764-2.0783-1.0176-4.4258-0.55994-2.3474-1.4336-6.0909-1.9414-8.3184-4.3639-19.144-5.0347-22.05-6.0762-26.395-0.51358-2.1426-0.85125-4.0667-0.75195-4.2754 0.09935-0.20866 1.0515-1.5951 2.1172-3.0801s2.9622-4.185 4.2129-6 3.2166-4.6488 4.3691-6.2988 2.9838-4.2841 4.0703-5.8516c1.0866-1.5675 2.9759-4.2675 4.1973-6s3.1129-4.4661 4.2031-6.0762c1.0903-1.6101 2.1029-3.0028 2.25-3.0938 0.99175-0.61293-0.59808-0.72852-9.918-0.72852h-10.186l-0.76367 1.002c-0.4209 0.55182-0.76562 1.098-0.76562 1.2129 0 0.11486-0.2571 0.57442-0.57031 1.0215-0.63492 0.9063-3.0792 4.7265-6.1367 9.5879-0.38915 0.61875-1.3137 2.0696-2.0527 3.2246-3.129 4.8904-7.1126 11.188-9.0898 14.367-2.0387 3.278-3.2091 5.0253-3.3027 4.9316-0.05901-0.05902 0.07707-0.84693 0.30274-1.752 0.42889-1.7201 1.8567-7.8065 3.4492-14.697 1.4316-6.1948 2.96-12.734 3.7324-15.975l0.69727-2.9238zm-61.334 13.5h4.3574c3.8292 0 4.5171 0.07677 5.6738 0.63672 0.80332 0.38888 1.435 0.94304 1.6211 1.4238 0.57202 1.4776-0.20665 6.5516-1.7109 11.143-0.96287 2.9387-2.4281 4.5283-4.6406 5.0391-1.4155 0.32673-9.5957 0.52341-9.5957 0.23047 0-0.14828 1.4344-6.2532 2.6856-11.424 0.47911-1.98 1.0375-4.3755 1.2402-5.3242l0.36914-1.7246zm-76.498 4.1992-0.50586 2.1758c-0.27839 1.1962-0.89572 3.7275-1.373 5.625-0.47731 1.8975-1.3586 5.4063-1.957 7.7988-0.59838 2.3925-1.4769 5.9033-1.9531 7.8008-2.0024 7.9784-2.7147 11.207-3.4707 15.75-1.5727 9.4512-0.51704 15.005 3.5918 18.9 3.1457 2.9826 8.4883 4.9704 15.17 5.6465 4.2815 0.43322 11.958-0.14172 15.529-1.1641 2.0068-0.57449 5.5651-2.1984 7.1211-3.25 1.8814-1.2715 4.5796-4.3333 5.8457-6.6328 2.2696-4.122 3.665-8.5301 6.459-20.4 0.62139-2.64 1.5746-6.6221 2.1172-8.8496 0.54256-2.2275 1.5424-6.4133 2.2227-9.3008 0.68022-2.8875 1.6421-6.9375 2.1367-9s0.96176-4.0526 1.0391-4.4238l0.14062-0.67578h-9.5937-9.5938l-0.33203 1.2344c-0.18277 0.67876-0.59923 2.4671-0.92578 3.9746-0.32656 1.5075-0.85528 3.7527-1.1738 4.9902-0.31856 1.2375-1.1278 4.6125-1.7988 7.5-0.67099 2.8875-1.6065 6.8716-2.0781 8.8516s-1.3459 5.6925-1.9434 8.25c-0.59743 2.5575-1.3011 5.3913-1.5644 6.2988-1.0342 3.564-2.776 6.0953-4.9707 7.2266-1.6044 0.82695-4.5062 0.7795-6.2305-0.10156-2.8268-1.4444-3.2319-3.3846-1.8691-8.9551 0.82868-3.3873 1.5908-6.5936 4.3027-18.119 0.50471-2.145 1.3687-5.7896 1.9199-8.0996s1.4272-6.0225 1.9473-8.25c0.52008-2.2275 0.99764-4.2195 1.0606-4.4258 0.0899-0.29462-1.964-0.375-9.5781-0.375h-9.6914z"/>
  </g>
 </g>
</svg>
