<svg width="600" height="341.96" viewBox="0 0 158.75 90.476" xmlns="http://www.w3.org/2000/svg">
    <defs>
        <linearGradient id="a" x2="1" gradientTransform="rotate(-140.821 86.204 33.411) scale(6.7421)" gradientUnits="userSpaceOnUse">
            <stop stop-color="#176fc1" offset="0"/>
            <stop stop-color="#11a4e6" offset=".3"/>
            <stop stop-color="#11a4e6" offset="1"/>
        </linearGradient>
        <linearGradient id="b" x2="1" gradientTransform="scale(5.6146) rotate(39.105 -12.351 45.884)" gradientUnits="userSpaceOnUse">
            <stop stop-color="#80cd3d" offset="0"/>
            <stop stop-color="#bfdf14" offset=".5"/>
            <stop stop-color="#bfdf14" offset="1"/>
        </linearGradient>
        <linearGradient id="c" x2="1" gradientTransform="matrix(-6.5656 -4.8108 4.8108 -6.5656 129 118.3)" gradientUnits="userSpaceOnUse">
            <stop stop-color="#80cd3d" offset="0"/>
            <stop stop-color="#bfdf14" offset=".5"/>
            <stop stop-color="#bfdf14" offset="1"/>
        </linearGradient>
        <linearGradient id="d" x2="1" gradientTransform="rotate(38.533 -71.77 261.634) scale(7.5459)" gradientUnits="userSpaceOnUse">
            <stop stop-color="#176fc1" offset="0"/>
            <stop stop-color="#11a4e6" offset=".3"/>
            <stop stop-color="#11a4e6" offset="1"/>
        </linearGradient>
    </defs>
    <g fill-rule="evenodd">
        <path d="M50.566 85.098H17.717l-7.98-9.094h39.122l.066 7.334h-.007z" fill="#176fc1"/>
        <path d="M158.746 90.478H55.596l-6.687-7.14h103.15V17.114l6.68 7.1z" fill="#80cd3d"/>
        <path d="M103.146 0l6.44 7.334h-6.373z" fill="#176fc1"/>
    </g>
    <path d="M63.72 66.182h-.007v66.264l9.734 9.74h39.13l54.35-68.663-.067-7.34z" fill="url(#a)" transform="translate(-63.714 -66.182)"/>
    <path d="M166.93 73.516l-54.35 68.657.067 7.347h103.14l.007-.007V83.25l-9.734-9.734z" fill="url(#b)" transform="translate(-63.714 -66.182)"/>
    <path d="M125.38 97.83c-.96.667-1.44 1.813-1.44 3.44v12.574c0 4.334-1.954 6.507-5.88 6.507-3.914 0-5.874-2.173-5.874-6.507V97.77c-.253-.08-.833-.26-1.754-.533-.913-.274-1.94-.407-3.066-.407-1.58 0-2.854.334-3.814 1-.96.667-1.44 1.814-1.44 3.44v14.447c0 2.334.407 4.367 1.227 6.1.807 1.728 1.927 3.174 3.34 4.314 1.42 1.147 3.107 2.014 5.067 2.594 1.96.587 4.067.88 6.314.88 1.706 0 3.326-.167 4.86-.5l11.087-13.987V97.77c-.24-.08-.827-.26-1.74-.533-.92-.274-1.947-.407-3.067-.407-1.587 0-2.86.333-3.82 1" fill="url(#c)" transform="translate(-63.714 -66.182)"/>
    <path d="M13.234 25.707c0-1.627.48-2.774 1.44-3.44.96-.667 2.227-1 3.814-1 1.126 0 2.146.133 3.066.406.914.274 1.5.447 1.747.534v8.44h7.194c1.88 0 3.213.374 4.007 1.127.793.753 1.186 1.873 1.186 3.38 0 1.08-.166 2.094-.5 3.034-.333.933-.586 1.553-.753 1.84H23.301v9.867c0 .967.147 1.727.44 2.293.293.56.66 1.02 1.094 1.354.44.333.94.553 1.5.653.566.107 1.14.16 1.72.16 1.166 0 2.233-.18 3.193-.533.96-.353 1.647-.654 2.06-.907l3.947 6.84c-.38.334-.92.707-1.627 1.127-.713.407-1.566.8-2.566 1.174-1 .38-2.127.693-3.38.96a18.36 18.36 0 0 1-3.94.406c-3.921 0-6.981-1.033-9.195-3.093-2.206-2.067-3.313-4.827-3.313-8.287z" fill="#bfdf14" fill-rule="evenodd"/>
    <path d="M112.896 65.538c.167.08.533.22 1.093.407.567.186 1.26.373 2.094.56.84.193 1.787.36 2.847.5 1.066.146 2.16.22 3.287.22 3.206 0 5.527-.687 6.94-2.06 1.42-1.38 2.127-3.654 2.127-6.82-.794.96-2 1.72-3.627 2.286-1.627.56-3.254.84-4.88.84-1.914 0-3.7-.24-5.347-.72s-3.087-1.22-4.314-2.22c-1.233-1-2.193-2.26-2.88-3.78-.687-1.527-1.034-3.327-1.034-5.414v-14.7c0-1.62.48-2.768 1.44-3.441.96-.667 2.234-1 3.82-1 1.12 0 2.148.14 3.06.407.921.273 1.501.453 1.754.533v16.14c0 2.001.467 3.441 1.407 4.315s2.407 1.313 4.407 1.313c1.88 0 3.34-.54 4.38-1.627 1.047-1.087 1.567-2.753 1.567-5.007V34.636c0-1.62.48-2.767 1.44-3.44.954-.667 2.227-1 3.814-1 1.126 0 2.147.14 3.067.407.913.273 1.5.453 1.746.533v26.52c0 3.168-.413 5.868-1.246 8.101-.84 2.227-2.027 4.047-3.567 5.44-1.547 1.4-3.38 2.42-5.507 3.067-2.127.647-4.5.967-7.127.967-1.834 0-3.527-.1-5.067-.313a42.942 42.942 0 0 1-4.067-.72c-1.167-.267-2.107-.527-2.814-.78-.713-.247-1.126-.414-1.253-.5z" fill="#11a4e6" fill-rule="evenodd"/>
    <path d="M147.37 98.137v19.634c0 3.46 1.1 6.227 3.313 8.294 2.214 2.06 5.28 3.093 9.194 3.093a19 19 0 0 0 3.947-.406c1.247-.274 2.374-.58 3.367-.96 1.007-.38 1.86-.774 2.574-1.18.706-.42 1.246-.787 1.62-1.127l-3.94-6.84c-.414.253-1.1.553-2.06.906-.96.36-2.027.533-3.187.533-.594 0-1.16-.053-1.727-.153-.56-.1-1.06-.327-1.5-.653-.434-.34-.8-.794-1.094-1.36-.293-.56-.44-1.327-.44-2.294v-9.86h11.134c.174-.294.414-.907.754-1.847.333-.94.5-1.947.5-3.034 0-1.5-.4-2.627-1.194-3.373-.786-.754-2.12-1.134-4-1.134h-7.194v-8.44c-.233-.08-.766-.24-1.6-.487z" fill="url(#d)" transform="translate(-63.714 -66.182)"/>
</svg>
