<svg version="1.1" viewBox="0 0 1066.7 804.8" xmlns="http://www.w3.org/2000/svg">
 <g transform="matrix(3.3916 0 0 3.3916 -98.018 -133.66)" fill="#25bb28">
  <path d="m296.3 142c-5.6-1.7-11.5-2.7-17.5-3l5.3-22.7h38.3c3.1 0 6-0.9 8.5-2.6 4.2-2.8 6.7-7.6 6.7-12.6 0-8.4-6.8-15.2-15.2-15.2h-54.6c-1.4 0-2.6 0.1-3.6 0.4-1.9 0.5-3.2 1.9-3.9 4.9l-1.5 6.4-5.2 21.8c-0.1 0.3-0.2 0.7-0.2 1l-8.8 37.1c-1.6 6.7 0.1 10.1 4 11.4 1.1 0.5 2.6 0.7 4.6 0.7 1.4 0 2.9-0.1 4.6-0.2 4.8-0.4 10.7-1.1 16.8-1.1 19.3 0 35.3 13.9 38.7 32.2 0.1 0.5 0.2 1.1 0.2 1.6 0.4 3.1 0.5 6.2 0.3 9.1-1.8 20.1-18.7 36-39.3 36-9.6 0-18.8-3.5-26-9.8-6.1-5.4-15.4-4.8-20.8 1.3s-4.8 15.4 1.3 20.8c12.6 11.1 28.8 17.2 45.5 17.2 38 0 68.9-30.9 68.9-68.9 0-33.5-19.7-57.5-47.1-65.8z"/>
  <path d="m54.4 147.3c0 2.2 1.8 4.1 4.1 4.1h8.9c2.2 0 4.1-1.8 4.1-4.1v-46.3h18.1l19.9 44.4c1.2 3.5 4.4 5.9 8.1 5.9 3.3 0 6.3-1.9 7.7-4.9 0.1-0.1 0.2-0.2 0.2-0.3l17.4-36.8v-0.1c0.4-1 0.6-2 0.6-3.1 0-4.5-3.7-8.2-8.2-8.2-3.1 0-6 1.8-7.3 4.5l-0.1 0.1-9.9 19.9-14.9-32.2c-0.5-1.3-1.3-2.4-2.4-3.2-0.8-0.6-1.7-1-2.8-1.2-0.5-0.1-1-0.1-1.4-0.1h-60c-4.2 0-7.6 3.4-7.6 7.6 0 2 0.8 4 2.2 5.4s3.4 2.2 5.4 2.2h17.7z"/>
  <path d="m234.7 186.4h-59.4l-0.1-0.1c5-4.1 10.1-7.8 15.3-11.6 12.5-9 25.4-18.4 36.9-33.5 12.7-16.7 17.9-37.1 14.2-55.9-3.1-16.1-12.5-29.6-26.3-37.8-13.9-8.3-31.4-10.3-47-5.6-14.9 4.6-26.4 14.7-33.3 29.4-3.5 7.5-0.3 16.5 7.2 20.1 7.5 3.5 16.5 0.3 20.1-7.2 3.2-6.8 8.2-11.3 14.8-13.3 7.3-2.2 16.2-1.2 22.7 2.6 8.1 4.8 11 12.2 12.1 17.6 2 10.4-1.1 22-8.6 31.9-8.8 11.6-18.9 18.9-30.6 27.3-3.9 2.8-8 5.8-12.1 9-0.1 0.1-0.2 0.1-0.3 0.2-2.9 2.3-5.9 4.7-8.9 7.3-23.9 20.3-33.1 34.3-26.1 45.5 2.5 3.8 6.2 5.6 10.8 5.6h98.4c3.1 0 6-0.9 8.5-2.6 4.2-2.8 6.7-7.6 6.7-12.6 0.3-8.5-6.6-16.3-15-16.3z" Googl="true"/>
 </g>
</svg>
