<?xml version="1.0" encoding="UTF-8" standalone="no"?>
<svg xmlns:rdf="http://www.w3.org/1999/02/22-rdf-syntax-ns#" xmlns="http://www.w3.org/2000/svg" height="231.69" width="600" version="1.1" xmlns:cc="http://creativecommons.org/ns#" xmlns:xlink="http://www.w3.org/1999/xlink" viewBox="0 0 158.75 61.300096" xmlns:dc="http://purl.org/dc/elements/1.1/">
 <g transform="translate(-83.155 -331.38)">
  <g stroke-width=".60139" fill="#cb237d">
   <path d="m160.24 346.54h11.22c5.13 0 8.5 2.56 8.5 7.47 0 3.33-2.09 6.27-5.64 7.13v0.04c4.27 0.64 6.53 3.8 6.53 7.43 0 5.76-4.52 8.41-9.17 8.41h-11.44zm10.2 13.7c3.58 0 6.87-1.79 6.87-5.8 0-3.93-2.86-5.6-6.49-5.6h-7.9v11.4zm0.6 14.47c3.97 0 7.08-1.92 7.08-6.19 0-4.18-3.2-6.02-7.17-6.02h-8.03v12.21z"/>
   <path d="m186.24 371.98v-25.44h2.51v25.61c0 1.67 0.94 2.95 3.08 2.95 0.85 0 1.66-0.13 2.35-0.22v1.92c-1.03 0.3-2.22 0.43-3.16 0.43-3.72 0-4.78-2.6-4.78-5.25z"/>
   <path d="m198.53 346.58h2.48v4.35h-2.48zm0 9.18h2.48v21.26h-2.48z"/>
   <path d="m205.83 374.41 1.71-1.45c1.79 1.71 3.8 2.56 6.62 2.56 2.73 0 5.5-1.49 5.5-4.22 0-2.61-1.62-3.42-4.57-3.97l-2.34-0.52c-3.76-0.72-6.02-2.43-6.02-5.42 0-3.45 2.69-6.14 7.38-6.14 2.99 0 5.47 0.68 7.09 2.34l-1.67 1.41c-1.36-1.11-3.11-1.79-5.63-1.79-2.82 0-4.7 1.58-4.7 3.76 0 2.22 1.71 3.07 4.83 3.75l3.16 0.69c2.98 0.68 5.08 2.26 5.08 5.37 0 4.49-4.06 6.75-8.07 6.75-3.37 0-6.41-0.85-8.37-3.12z"/>
   <path d="m225.47 374.41 1.71-1.45c1.79 1.71 3.8 2.56 6.62 2.56 2.73 0 5.5-1.49 5.5-4.22 0-2.61-1.62-3.42-4.57-3.97l-2.34-0.52c-3.76-0.72-6.02-2.43-6.02-5.42 0-3.45 2.69-6.14 7.38-6.14 2.99 0 5.47 0.68 7.09 2.34l-1.67 1.41c-1.36-1.11-3.11-1.79-5.63-1.79-2.82 0-4.7 1.58-4.7 3.76 0 2.22 1.71 3.07 4.83 3.75l3.15 0.69c2.99 0.68 5.08 2.26 5.08 5.37 0 4.49-4.05 6.75-8.06 6.75-3.37 0-6.41-0.85-8.37-3.12z"/>
   <rect height="61.3" width="61.301" y="331.38" x="83.155"/>
  </g>
  <g fill="#fff">
   <path stroke-width=".60139" d="m110.55 341.05c-2.21 0.68-4.24 1.89-6.03 3.59-4.3 4.09-4.31 9.7-4.29 10.49h9.49l-4.22-3.12c0.07-0.26 0.75-2.68 3.34-4.73 2.53-2.02 5.6-2.28 6.05-2.31v-4.56c-1.47-0.01-2.92 0.2-4.34 0.64z"/>
   <polygon points="75.691 73.271 50.241 73.271 35.878 81.041 69.309 81.041 75.691 88.515" transform="matrix(.60139 0 0 .60139 83.155 331.38)"/>
   <path stroke-width=".60139" d="m118.37 359.28-6.86 5.3c-4.97 3.78-7.94 7.86-8.4 8.54-0.81 1.21-1.91 3.06-2.69 5.11-0.866 2.27-1.369 4.48-1.426 6.23l5.736-4.34c0.07-0.29 0.79-2.96 3.41-6.07 2.76-3.27 4.93-4.88 6.67-6.17 0.39-0.29 0.76-0.57 1.12-0.84 0.26-0.21 0.67-0.5 1.14-0.84 1.2-0.86 2.91-2.1 4.31-3.37 2.25-1.85 3.68-4.64 3.68-7.76 0-5.58-4.55-10.1-10.17-10.1v4.65c3.03 0 5.48 2.44 5.48 5.45 0 1.08-0.32 2.09-0.87 2.94-0.28 0.38-0.64 0.79-1.13 1.27z"/>
  </g>
 </g>
</svg>
