<?xml version="1.0" encoding="UTF-8" standalone="no"?>
<svg xmlns:rdf="http://www.w3.org/1999/02/22-rdf-syntax-ns#" xmlns="http://www.w3.org/2000/svg" height="128.99" width="600" version="1.1" xmlns:cc="http://creativecommons.org/ns#" xmlns:dc="http://purl.org/dc/elements/1.1/" viewBox="0 0 158.75 34.129591">
 <g transform="translate(-235.56 -319.05)">
  <g fill="#f7901e">
   <path d="m286.29 332.39c3.21 0 5.43 1.54 6.37 3.96l-2.6 1.39c-0.64 0.35-1.4 0.06-1.92-0.46-0.59-0.6-1.38-0.93-2.41-0.93-2.6 0-4.68 2.45-4.68 5.18 0 2 1.32 3.23 3.13 3.23 0.92 0 1.66-0.26 2.36-0.73 0.6-0.42 1.45-0.47 2 0.02l1.94 1.72c-1.52 1.73-3.58 2.94-6.56 2.94-4.36 0-7.42-2.67-7.42-6.87 0-4.64 3.76-9.45 9.79-9.45"/>
   <path d="m299.32 332.7c0.34 0 0.55 0.27 0.46 0.6l-1.43 5.27h5.54l1.57-5.87h3.75c0.34 0 0.55 0.27 0.46 0.6l-4.06 15.09h-3.74c-0.35 0-0.56-0.27-0.46-0.6l1.45-5.36h-5.54l-1.59 5.96h-3.75c-0.34 0-0.55-0.27-0.46-0.6l4.05-15.09h3.75z"/>
   <path d="m349.78 333.3-3.02 11.28h7.49l-0.87 3.21c-0.09 0.33-0.44 0.6-0.79 0.6h-10.61c-0.35 0-0.55-0.27-0.46-0.6l4.05-15.09h3.75c0.34 0 0.55 0.27 0.46 0.6"/>
   <path d="m362.37 332.7c0.34 0 0.55 0.27 0.46 0.6l-4.05 15.09h-3.73c-0.34 0-0.55-0.27-0.46-0.6l4.05-15.09h3.73z"/>
   <path d="m378.19 332.7-0.85 3.1c-0.09 0.33-0.44 0.6-0.78 0.6h-7.63l-0.65 2.38h7.48l-0.75 2.82c-0.09 0.33-0.44 0.61-0.78 0.61h-6.87l-0.67 2.48h8.38l-0.83 3.1c-0.08 0.33-0.43 0.6-0.78 0.6h-11.44c-0.35 0-0.55-0.27-0.46-0.6l4.05-15.09h12.58z"/>
   <path d="m334.28 340.23c1.95 0 3.23-0.83 3.23-2.17 0-0.43-0.13-0.77-0.4-1.06-0.36-0.35-1.01-0.53-1.93-0.53h-2.35l-1.03 3.76h2.48zm-8.87 7.56 4.05-15.09h5.92c2.63 0 4.35 0.58 5.41 1.64 0.82 0.82 1.21 1.95 1.21 3.2 0 2.63-1.5 4.69-4.71 5.56 0 0 0.61 1.53 1.26 2.04 0.71 0.55 1.49 0.65 1.87 0.65l-0.69 2.54s-0.79 0.25-2.13 0.25c-1.32 0-2.95-0.79-3.69-2.45-0.31-0.68-1.08-2.49-1.08-2.49h-1.93l-1.28 4.75h-3.75c-0.34 0-0.55-0.27-0.46-0.6"/>
   <path d="m315.53 342.2 2.94-4.5 0.55 4.5h-3.49zm2.03-9.5-10.84 15.69h4.11c0.34 0 0.77-0.23 0.97-0.52l1.53-2.28h6.05l0.3 2.19c0.05 0.34 0.36 0.61 0.71 0.61h3.95l-2.23-14.38c-0.1-0.72-0.79-1.31-1.52-1.31h-3.03z"/>
   <path d="m262.25 325.87h-8.91c-0.27 0-0.61 0.19-0.77 0.42l-1.91 2.83h10.86c0.44 0.01 0.85 0.23 0.9 0.74 0.06 0.63-0.62 1.22-1.25 1.22h-4.85c-0.27 0-0.62 0.18-0.77 0.4l-1.92 2.84h6.99c2.72 0 5.54-2.36 5.44-4.97-0.08-2.07-1.9-3.48-3.81-3.48"/>
   <path d="m247.73 329.12h-12.17l1.91-2.84c0.16-0.22 0.5-0.41 0.78-0.41h12.17l-1.92 2.84c-0.15 0.23-0.5 0.41-0.77 0.41"/>
   <path d="m240.69 338.49 0.77-7.41h3.62l-0.79 7.48 4.78-7.07c0.15-0.23 0.49-0.41 0.76-0.41h3.49l-5.42 8.03c-0.15 0.23-0.49 0.41-0.77 0.41h-5.51c-0.58 0-0.99-0.46-0.93-1.03"/>
   <path d="m261.55 339.52h-11.43l1.92-2.84c0.15-0.22 0.5-0.41 0.77-0.41h11.43l-1.92 2.84c-0.15 0.23-0.5 0.41-0.77 0.41"/>
  </g>
  <g fill="#a7a9ac">
   <path d="m258.6 353.18h2.67l23.02-34.13h-2.67l-23.02 34.13z"/>
   <path d="m382.04 332.7h1.92l-0.68 2.57h1.99l0.69-2.57h1.91l-1.81 6.82h-1.92l0.72-2.66h-1.99l-0.71 2.66h-1.93l1.81-6.82z"/>
   <path d="m390.08 338.03c1.29 0 2.15-1.09 2.26-2.35 0.09-1.01-0.33-1.49-1.23-1.49h-0.67l-1.02 3.84h0.66zm-1.15-5.33h2.33c2 0 3.21 0.95 3.03 2.95-0.19 2.22-1.76 3.87-4.76 3.87h-2.42l1.82-6.82z"/>
  </g>
 </g>
</svg>
