<svg xmlns="http://www.w3.org/2000/svg" height="129.42" width="600" viewBox="0 0 158.75 34.242">
    <path stroke-width=".276" fill="#7f0ac7" d="M0 0h34.242v34.242H0z"/>
    <g fill="#fff">
        <path d="M15.3 5.4c-1.23.38-2.37 1.05-3.37 2-2.4 2.28-2.41 5.42-2.4 5.86h5.31l-2.36-1.74c.04-.15.42-1.5 1.86-2.65 1.42-1.12 3.13-1.27 3.38-1.28V5.04a7.72 7.72 0 0 0-2.42.36z" stroke-width=".276"/>
        <path d="M25.426 29.734v-5.12h-8.549l-4.825 2.61h11.231z"/>
        <path d="M19.67 15.58l-3.83 2.96c-2.78 2.11-4.44 4.39-4.7 4.77-.45.68-1.06 1.71-1.5 2.86-.48 1.26-.76 2.49-.79 3.47l3.2-2.42c.04-.16.44-1.66 1.9-3.39 1.54-1.83 2.76-2.73 3.73-3.45.22-.16.43-.31.62-.47.15-.11.38-.28.64-.46.67-.49 1.63-1.18 2.41-1.89a5.581 5.581 0 0 0 2.06-4.33c0-3.12-2.55-5.64-5.69-5.64v2.59c1.7 0 3.07 1.37 3.07 3.05 0 .6-.18 1.17-.49 1.64-.15.21-.36.44-.63.71z" stroke-width=".276"/>
    </g>
    <g stroke-width=".276" fill="#7f0ac7">
        <path d="M43.04 8.84h10.57v2.75h-7.15v4.35h5.67v2.75h-5.67v7.2h-3.42zM55.84 8.58h3.15v3.2h-3.15zm0 4.76h3.15v12.55h-3.15zM61.63 23.19V8.84h3.18v13.51c0 .63.24 1.08 1.12 1.08.24 0 .6-.05.89-.1v2.42c-.65.24-1.34.36-2.01.36-1.99 0-3.18-1.03-3.18-2.92zM68.9 13.34h3.02v1.96h.04c.82-1.51 2.23-2.25 3.78-2.25 1.49 0 2.71.93 3.11 2.18h.07c.87-1.46 2.23-2.18 3.78-2.18 1.75 0 3.35 1.32 3.35 3.42v9.42h-3.16v-8.58c0-1.13-.5-1.8-1.65-1.8-1.05 0-2.17 1.01-2.2 2.47v7.91h-3.15v-8.65c-.03-1.06-.46-1.73-1.65-1.73-1.06 0-2.18 1.03-2.18 2.54v7.84H68.9V13.34zM88.86 8.84h1.68v10.91l4.59-6.03h1.91l-3.27 4.16 3.42 8.01h-1.77l-2.87-6.74-2.01 2.53v4.21h-1.68V8.84zM98.84 22.69c0-2.85 2.49-3.88 4.48-3.88h2.32v-2.08c0-1.43-.96-2.08-2.4-2.08-1.29 0-2.51.62-2.51 1.94v.69h-1.5v-.74c0-2.06 1.89-3.11 4.21-3.11 2.15 0 3.89.98 3.89 3.23v6.15c0 .93.1 2.49.12 3.08h-1.55l-.1-1.93h-.05c-.78 1.74-2.46 2.2-3.56 2.2-1.77 0-3.35-1.15-3.35-3.47zm6.8-.84v-1.89h-2.06c-1.41 0-3.02.46-3.02 2.49 0 1.65 1.03 2.42 2.21 2.42 1.55-.01 2.87-1.27 2.87-3.02zM110.41 13.72h1.58v2.06h.02c.79-1.63 2.25-2.35 3.81-2.35 1.84 0 3.06 1.39 3.06 3.11v9.35h-1.68V17c0-1.63-.79-2.23-2.1-2.23-1.46 0-3.01 1.46-3.01 3.28v7.84h-1.68zM121.48 22.69c0-2.85 2.49-3.88 4.47-3.88h2.32v-2.08c0-1.43-.95-2.08-2.39-2.08-1.29 0-2.51.62-2.51 1.94v.69h-1.51v-.74c0-2.06 1.89-3.11 4.21-3.11 2.16 0 3.9.98 3.9 3.23v6.15c0 .93.1 2.49.12 3.08h-1.55l-.1-1.93h-.05c-.79 1.74-2.46 2.2-3.56 2.2-1.77 0-3.35-1.15-3.35-3.47zm6.79-.84v-1.89h-2.05c-1.41 0-3.02.46-3.02 2.49 0 1.65 1.03 2.42 2.2 2.42 1.56-.01 2.87-1.27 2.87-3.02zM133 23.5V8.84h1.67v14.37c0 .79.36 1.37 1.41 1.37.31 0 .75-.05 1.03-.1v1.32c-.55.19-1.07.24-1.58.24-1.6 0-2.53-.89-2.53-2.54zM139.05 21.78v-3.71c0-2.99 1.91-4.64 4.43-4.64 2.58 0 4.11 1.63 4.11 4.31v2.39h-6.84v1.67c0 2.06 1.08 2.97 3.06 2.97 1.36 0 2.3-.5 2.97-.89l.62 1.13c-1.1.86-2.44 1.17-3.83 1.17-2.65 0-4.52-1.32-4.52-4.4zm6.94-2.87v-1.32c0-1.43-.65-2.87-2.63-2.87-1.85 0-2.61 1.46-2.61 2.87v1.32zM150.28 13.72h1.58v2.06h.02c.79-1.63 2.25-2.35 3.81-2.35 1.84 0 3.06 1.39 3.06 3.11v9.35h-1.68V17c0-1.63-.79-2.23-2.1-2.23-1.46 0-3.01 1.46-3.01 3.28v7.84h-1.68z"/>
    </g>
</svg>
