<svg version="1.1" viewBox="0 0 496.5 300" xmlns="http://www.w3.org/2000/svg">
 <path d="m476.82 108.48c0 2.67 0.96 4.98 2.91 6.87s4.26 2.85 6.93 2.85c2.76 0 5.1-0.93 6.99-2.79s2.85-4.17 2.85-6.93-0.96-5.07-2.85-6.93-4.23-2.79-6.99-2.79c-2.67 0-4.98 0.96-6.93 2.85s-2.91 4.2-2.91 6.87zm18.39 18.03h-16.98v69.39h16.98zm-137.91-22.71h57.57v15.18h-40.59v25.17h35.28v15.18h-35.28v36.57h-16.98zm66.961 22.71h16.17v14.67c1.29-4.5 3.66-8.28 7.08-11.34s7.98-4.59 13.68-4.59c1.65 0 3.24 0.21 4.8 0.66v15.96c-2.07-0.18-3.84-0.27-5.31-0.27-5.79 0-10.5 1.68-14.07 4.98-3.6 3.33-5.37 8.07-5.37 14.19v35.13h-16.98zm-274.26 173.49c82.842 0 150-67.158 150-150 0-82.843-67.158-150-150-150-82.843 0-150 67.157-150 150 0 82.842 67.157 150 150 150z" fill="#19aa46"/>
 <path d="m112.08 171.42c-5.37 9.51-7.68 13.71-13.35 13.71-3.99 0-7.98-2.04-7.98-9.42s0.15-37.41 0.15-37.41h-23.1v39.21c0 23.1 16.95 30.69 30.78 30.69 12.57 0 20.79-5.73 29.61-21.06 3.81-6.57 28.11-48.84 28.11-48.84h-25.5s-11.34 20.07-18.72 33.12zm124.62 36.18h-90.9l13.11-23.1h77.79z" fill="#fff"/>
 <path d="m213.6 92.1h-162v23.1h162c6.39 0 11.7 5.01 11.7 11.4s-5.31 11.7-11.7 11.7h-29.1l-13.41 23.1h42.51c19.17 0 34.8-15.63 34.8-34.8s-15.63-34.5-34.8-34.5z" fill="#fff"/>
</svg>
