<svg xmlns="http://www.w3.org/2000/svg" height="221.66" width="600" viewBox="0 0 158.75 58.647">
    <g fill="#e52823">
        <path d="M114.952 56.88l8.23-12.19h-49.08c-1.16 0-2.64.78-3.3 1.75l-8.23 12.21h49.07c1.18 0 2.66-.78 3.31-1.77M26.012 58.65h23.71c1.16 0 2.64-.78 3.31-1.77l23.29-34.53h-14.99c-1.17 0-2.65.78-3.31 1.76L37.512 54.5l3.39-32.15h-15.55l-3.34 31.85c-.26 2.46 1.54 4.45 4 4.45M55.592 12.2L63.822 0H11.534c-1.169 0-2.653.79-3.305 1.77L0 13.96h52.282c1.17 0 2.65-.78 3.31-1.76"/>
        <path d="M131.032 14.93c.44 11.2-11.69 21.38-23.38 21.38h-30.02l8.25-12.2c.64-.98 2.13-1.76 3.31-1.76h20.85c2.69 0 5.6-2.5 5.34-5.22-.22-2.2-1.99-3.14-3.86-3.17h-46.66l8.22-12.19c.67-.98 2.15-1.77 3.32-1.77h38.24c8.22 0 16.04 6.06 16.39 14.93"/>
    </g>
    <path d="M137.672 0h3.29l-1.16 4.42h3.41l1.19-4.42h3.28l-3.1 11.73h-3.3l1.22-4.58h-3.42l-1.22 4.58h-3.3L137.672 0zM149.502 0l-3.12 11.73h4.16c5.16 0 7.84-2.85 8.18-6.65.3-3.44-1.78-5.08-5.22-5.08h-4zm2.61 2.56h1.13c1.56 0 2.28.82 2.13 2.57-.2 2.16-1.67 4.03-3.88 4.03h-1.15l1.77-6.6z" fill="#a7a9ac"/>
</svg>
