<svg width="500" height="511.41" fill="#6e18e7" version="1.1" viewBox=".1 .6 65.114 66.6" xmlns="http://www.w3.org/2000/svg">
 <path d="m51.3 6.1"/>
 <path d="m65.1 6.4c-0.6-3.4-3.5-5.8-6.9-5.8s-6.2 2.3-6.9 5.5l-1.5-0.3c-6.6-0.8-13.2-1.3-19.8-1.3s-13.2 0.4-19.8 1.3c-5.6 0.7-9.7 5.5-9.9 11.2-0.1 3.3-0.2 7-0.2 10s0 6.6 0.2 9.9c0.2 5.7 4.3 10.5 10 11.2 6.5 0.8 13.1 1.2 19.7 1.2s13.2-0.4 19.7-1.2c5.7-0.7 9.8-5.5 10-11.2 0.1-3.3 0.2-7 0.2-9.9s0-6.7-0.2-10c0-0.8-0.1-1.7-0.3-2.5 3.8-0.7 6.4-4.3 5.7-8.2zm-27.5 35.8c-2.7 0-5.3-0.7-7.6-2-2.3 1.3-4.9 2-7.6 2-8.4 0-15.3-6.8-15.3-15.3s6.8-15.3 15.3-15.3c2.7 0 5.3 0.7 7.6 2-7.3 4.2-9.8 13.6-5.6 20.9 1.3 2.3 3.3 4.2 5.6 5.6 7.3-4.2 9.8-13.6 5.6-20.9-1.3-2.3-3.3-4.2-5.6-5.6 2.3-1.3 4.9-2 7.6-2 8.4 0 15.3 6.8 15.3 15.3s-6.8 15.3-15.3 15.3zm18.8-32.5c-0.5 0-1.2-0.3-1.2-1.2v-1.5h0.9v1.4c0 0.2 0.2 0.4 0.3 0.4s0.3-0.2 0.5-0.5c0.3-0.5 0.7-1.3 0.7-1.3h1s-0.9 1.6-1.1 1.9c-0.3 0.6-0.7 0.8-1.1 0.8zm5.3 0h-3.5l0.5-0.9h3zm-0.8-1.8h-1.6l0.5-0.9h1.1c0.2 0 0.5-0.2 0.5-0.5s-0.2-0.4-0.5-0.4h-6.2v-0.9h6.2c0.7 0 1.3 0.6 1.3 1.3s-0.6 1.3-1.3 1.3z"/>
 <path d="m6.4 64.5-2.1-3h-1.1v3h-1.5v-9.8h1.5v5.5h1.1l1.8-2.7h1.7l-2.2 3.4 2.5 3.7h-1.7z"/>
 <path d="m11.7 64.7c-0.7 0-1.3-0.2-1.9-0.5-1.1-0.7-1.8-1.9-1.8-3.2 0-0.7 0.2-1.3 0.5-1.9 0.3-0.5 0.8-1 1.3-1.3 0.6-0.3 1.2-0.5 1.9-0.5s1.3 0.2 1.9 0.5c0.5 0.3 1 0.8 1.3 1.3 0.3 0.6 0.5 1.2 0.5 1.9 0 1.3-0.7 2.6-1.8 3.2-0.6 0.3-1.2 0.5-1.8 0.5zm0-1.4c0.4 0 0.8 0 1.1-0.3 0.3-0.2 0.6-0.5 0.8-0.8 0.2-0.4 0.3-0.8 0.3-1.2s0-0.8-0.3-1.2c-0.2-0.3-0.4-0.6-0.8-0.8-0.3-0.2-0.7-0.3-1.1-0.3s-0.8 0-1.1 0.3c-0.3 0.2-0.6 0.5-0.8 0.8-0.2 0.4-0.3 0.8-0.3 1.2s0 0.8 0.3 1.2c0.2 0.3 0.4 0.6 0.8 0.8 0.3 0.2 0.7 0.3 1.1 0.3z"/>
 <path d="m19 64.7c-0.7 0-1.3-0.2-1.9-0.5-0.5-0.3-0.9-0.8-1.1-1.4l1.1-0.5c0.2 0.4 0.4 0.7 0.8 0.9 0.3 0.2 0.7 0.4 1.1 0.4 0.3 0 0.6 0 0.8-0.2 0.2-0.1 0.3-0.4 0.3-0.6s0-0.3-0.1-0.4-0.2-0.2-0.4-0.3c-0.1 0-0.3-0.1-0.4-0.2l-1.1-0.3c-0.6-0.2-1.1-0.4-1.4-0.8-0.5-0.7-0.6-1.6-0.1-2.3 0.2-0.3 0.5-0.6 0.9-0.7 0.4-0.2 0.8-0.3 1.3-0.3 0.6 0 1.2 0.2 1.7 0.5s0.9 0.8 1.1 1.3l-1.1 0.5c-0.1-0.3-0.4-0.6-0.7-0.8s-0.6-0.3-1-0.3c-0.3 0-0.6 0-0.8 0.2-0.2 0.1-0.3 0.4-0.3 0.6 0 0.1 0 0.3 0.1 0.4 0 0.1 0.2 0.2 0.3 0.3 0.1 0 0.3 0.1 0.4 0.2l1.1 0.3c0.6 0.2 1 0.4 1.3 0.8 0.3 0.3 0.5 0.8 0.5 1.2s-0.1 0.8-0.3 1.1-0.5 0.6-0.9 0.7c-0.4 0.2-0.9 0.3-1.4 0.3z"/>
 <path d="m22.7 64.5v-7h1.4v0.9c0.2-0.3 0.4-0.5 0.6-0.7 0.4-0.2 0.9-0.4 1.3-0.4 0.5 0 1.1 0.2 1.5 0.5 0.3 0.2 0.5 0.4 0.7 0.7 0.2-0.3 0.4-0.6 0.7-0.8 0.4-0.3 1-0.4 1.5-0.4s0.9 0.1 1.3 0.3 0.7 0.5 0.9 0.9 0.4 0.9 0.4 1.4v4.6h-1.5v-4.2c0-0.3 0-0.6-0.2-0.9-0.1-0.2-0.3-0.4-0.5-0.6-0.2-0.1-0.5-0.2-0.8-0.2s-0.5 0-0.8 0.2c-0.2 0.1-0.4 0.3-0.5 0.6s-0.2 0.6-0.2 0.9v4.2h-1.5v-4.2c0-0.3 0-0.6-0.2-0.9-0.1-0.2-0.3-0.4-0.5-0.6-0.2-0.1-0.5-0.2-0.8-0.2s-0.5 0-0.8 0.2c-0.2 0.1-0.4 0.3-0.5 0.6s-0.2 0.6-0.2 0.9v4.2h-1.5z"/>
 <path d="m37.5 64.7c-0.7 0-1.3-0.2-1.9-0.5-1.1-0.7-1.8-1.9-1.8-3.2 0-0.7 0.2-1.3 0.5-1.9 0.3-0.5 0.8-1 1.3-1.3 0.6-0.3 1.2-0.5 1.9-0.5s1.3 0.2 1.9 0.5c0.5 0.3 1 0.8 1.3 1.3 0.3 0.6 0.5 1.2 0.5 1.9 0 1.3-0.7 2.6-1.8 3.2-0.6 0.3-1.2 0.5-1.8 0.5zm0-1.4c0.4 0 0.8 0 1.1-0.3 0.3-0.2 0.6-0.5 0.8-0.8 0.2-0.4 0.3-0.8 0.3-1.2s0-0.8-0.3-1.2c-0.2-0.3-0.4-0.6-0.8-0.8-0.3-0.2-0.7-0.3-1.1-0.3s-0.8 0-1.1 0.3c-0.3 0.2-0.6 0.5-0.8 0.8-0.2 0.4-0.3 0.8-0.3 1.2s0 0.8 0.3 1.2c0.2 0.3 0.4 0.6 0.8 0.8 0.3 0.2 0.7 0.3 1.1 0.3z"/>
 <path d="m42 67.1v-9.6h1.4v0.9c0.2-0.3 0.5-0.5 0.9-0.7 0.5-0.2 1-0.3 1.5-0.3 1.3 0 2.5 0.7 3.1 1.8 0.6 1.2 0.6 2.6 0 3.7-0.3 0.5-0.7 1-1.2 1.3s-1.2 0.5-1.8 0.5c-0.5 0-1-0.1-1.5-0.3-0.3-0.2-0.6-0.4-0.8-0.6v3.4h-1.5zm3.6-3.8c0.4 0 0.8 0 1.1-0.3 0.3-0.2 0.6-0.5 0.8-0.8 0.2-0.4 0.3-0.8 0.3-1.2s0-0.8-0.3-1.2c-0.2-0.3-0.4-0.6-0.8-0.8-0.3-0.2-0.7-0.3-1.1-0.3s-0.8 0-1.1 0.3c-0.3 0.2-0.6 0.5-0.8 0.8-0.2 0.4-0.3 0.8-0.3 1.2s0 0.8 0.3 1.2c0.2 0.3 0.4 0.6 0.8 0.8 0.3 0.2 0.7 0.3 1.1 0.3z"/>
 <path d="m53.7 64.7c-0.7 0-1.3-0.2-1.9-0.5-1.1-0.7-1.8-1.9-1.8-3.2 0-0.7 0.2-1.3 0.5-1.9 0.3-0.5 0.8-1 1.3-1.3 0.6-0.3 1.2-0.5 1.9-0.5s1.3 0.2 1.9 0.5c0.5 0.3 1 0.8 1.3 1.3 0.3 0.6 0.5 1.2 0.5 1.9 0 1.3-0.7 2.6-1.8 3.2-0.6 0.3-1.2 0.5-1.8 0.5zm0-1.4c0.4 0 0.8 0 1.1-0.3 0.3-0.2 0.6-0.5 0.8-0.8 0.2-0.4 0.3-0.8 0.3-1.2s0-0.8-0.3-1.2c-0.2-0.3-0.4-0.6-0.8-0.8-0.3-0.2-0.7-0.3-1.1-0.3s-0.8 0-1.1 0.3c-0.3 0.2-0.6 0.5-0.8 0.8-0.2 0.4-0.3 0.8-0.3 1.2s0 0.8 0.3 1.2c0.2 0.3 0.4 0.6 0.8 0.8 0.3 0.2 0.7 0.3 1.1 0.3z"/>
 <path d="m58.3 64.5v-9.8h1.5v9.8z"/>
</svg>
