<?xml version="1.0" encoding="UTF-8" standalone="no"?>
<svg xmlns:rdf="http://www.w3.org/1999/02/22-rdf-syntax-ns#" xmlns="http://www.w3.org/2000/svg" height="600" width="600" version="1.1" xmlns:cc="http://creativecommons.org/ns#" xmlns:xlink="http://www.w3.org/1999/xlink" viewBox="0 0 158.75 158.75003" xmlns:dc="http://purl.org/dc/elements/1.1/">
 <g transform="translate(-158.75 -604.68)">
  <rect height="158.75" width="158.75" y="604.68" x="158.75" stroke-width=".46622" fill="#fff"/>
  <path stroke-width=".46622" fill="#231f20" d="m317.5 763.43h-158.75v-158.75h158.75zm-158.46-0.29h158.17v-158.17h-158.17z"/>
  <polygon points="95.968 131.92 148.68 131.92 125.24 114.59" fill="#ffca05" transform="matrix(.46622 0 0 .46622 158.75 604.68)"/>
  <path d="m241.45 628.06c-3.78-0.04-7.55 0.52-11.22 1.65-5.73 1.77-10.99 4.9-15.62 9.3-11.15 10.59-11.17 25.12-11.12 27.17l5.16-3.05 8.49-5.02c0.18-0.7 1.94-6.96 8.65-12.27 6.56-5.21 14.5-5.89 15.66-5.97z" stroke-width=".46622" fill="#f52612"/>
  <polygon points="120.98 270.72 232.67 270.72 253.97 295.69 253.97 244.77 168.96 244.77" fill="#0064d2" transform="matrix(.46622 0 0 .46622 158.75 604.68)"/>
  <path d="m267.81 666.01c0-14.43-11.81-26.14-26.36-26.14v12.04c7.85 0 14.22 6.32 14.22 14.1 0 2.82-0.85 5.44-2.28 7.64-0.71 0.98-1.65 2.04-2.92 3.27l-17.76 13.74c-12.86 9.79-20.57 20.34-21.75 22.1-2.11 3.15-4.96 7.93-6.98 13.25-2.23 5.88-3.54 11.58-3.69 16.12l14.87-11.23c0.18-0.76 2.04-7.68 8.82-15.72 7.14-8.47 12.77-12.64 17.29-15.99 1-0.76 1.97-1.46 2.88-2.18 0.69-0.54 1.74-1.29 2.95-2.16 3.11-2.24 7.55-5.44 11.17-8.72 5.83-4.79 9.54-12.02 9.54-20.12z" stroke-width=".46622" fill="#30b32b"/>
 </g>
</svg>
