<svg version="1.1" viewBox="0 0 2131.1 1000" xml:space="preserve" xmlns="http://www.w3.org/2000/svg"><circle cx="500" cy="500" r="500" fill="#f0281e"/><path d="m373.6 571.4c-17.9 31.7-25.6 45.7-44.5 45.7-13.3 0-26.6-6.8-26.6-31.4s0.5-124.7 0.5-124.7h-77v130.7c0 77 56.5 102.3 102.6 102.3 41.9 0 69.3-19.1 98.7-70.2 12.7-21.9 93.7-162.8 93.7-162.8h-85s-37.8 66.9-62.4 110.4z" fill="#fff"/><path d="m789 692h-303l43.7-77h259.3z" fill="#fff"/><path d="m712 307h-540v77h540c21.3 0 39 16.7 39 38s-17.7 39-39 39h-97l-44.7 77h141.7c63.9 0 116-52.1 116-116s-52.1-115-116-115z" fill="#fff"/><path d="m1190.7 346h54.6l144.2 215.6v-215.6h55.4v307.4h-55.4l-143.8-212.6v212.6h-55z" fill="#f0281e"/><path d="m1540.4 641.9c-17.8-10.5-31.8-24.9-42.2-43.1s-15.6-38.5-15.6-61.1c0-22.5 5.2-42.9 15.6-61.3 10.4-18.3 24.5-32.8 42.2-43.3 17.8-10.5 37.5-15.8 59.1-15.8s41.4 5.3 59.1 15.8c17.8 10.5 31.8 25 42.2 43.3s15.6 38.8 15.6 61.3-5.2 42.9-15.6 61.1-24.5 32.5-42.2 43.1c-17.8 10.5-37.5 15.8-59.1 15.8s-41.4-5.2-59.1-15.8zm17.1-54.8c11 12.7 25 19.1 42 19.1s31-6.3 42-19.1c11-12.7 16.5-29.2 16.5-49.4s-5.5-36.7-16.5-49.6c-11-12.8-25-19.3-42-19.3s-31 6.4-42 19.3c-11 12.8-16.5 29.4-16.5 49.6 0 20.3 5.5 36.7 16.5 49.4z" fill="#f0281e"/><path d="m1751 421.7h54.1v48.9c4.3-15 12.2-27.6 23.6-37.9 11.4-10.2 26.6-15.4 45.7-15.4 5.5 0 10.8 0.7 16 2.2v53.3c-6.9-0.6-12.8-0.9-17.8-0.9-19.3 0-35 5.6-47 16.7s-18 26.9-18 47.4v117.3h-56.6z" fill="#f0281e"/><path d="m1950.4 642.1c-15.7-10.4-28.3-24.7-37.7-43.1-9.4-18.3-14.1-38.8-14.1-61.3s4.7-42.9 14.1-61.3c9.4-18.3 21.9-32.8 37.7-43.3 15.7-10.5 32.8-15.8 51.3-15.8 13.6 0 25.5 2.2 35.9 6.7s18.7 10.1 24.9 16.9 10.3 13.5 12.3 20.1v-115h56.3v307.4h-53.7v-40.7c-4.6 11-13.4 21.2-26.4 30.7s-29.3 14.3-48.9 14.3c-18.7 0-35.9-5.2-51.7-15.6zm15-67.5c5.5 11.3 12.8 20.1 22.1 26.6 9.2 6.5 19.2 9.7 29.9 9.7 11.5 0 21.9-3.3 31.2-10 9.2-6.6 16.5-15.6 21.7-26.8 5.2-11.3 7.8-23.5 7.8-36.8 0-13.9-2.6-26.3-7.8-37.5-5.2-11.1-12.3-19.9-21.4-26.4s-19.4-9.7-31-9.7c-10.7 0-20.6 3.1-29.9 9.3-9.2 6.2-16.7 15-22.3 26.4s-8.4 24.2-8.4 38.3c-0.2 13.4 2.6 25.6 8.1 36.9z" fill="#f0281e"/></svg>
