<svg version="1.1" viewBox="0 0 600 505.51" xmlns="http://www.w3.org/2000/svg">
 <style>.st0{fill:#e1052d}</style>
 <path class="st0" d="m410.75 171.84-5.41 16.434h-0.64499l-5.6239-16.431-33.378-108.14h-45.211l61.718 162.21h43.905l61.715-162.21h-42.826zm-195.09 54.087h41.315v-127.18h52.234l-13.327-35.036h-133.04v35.036h52.816zm28.475 96.547c-0.1086-7.7826 5.7687-15.002 28.814-15.325 12.182-0.16783 25.075 1.5203 39.706 5.025l12.916-33.635c-18.955-4.1463-36.442-5.5548-54.373-5.3014-47.38 0.66473-66.045 24.704-65.66 52.148 0.79636 56.844 87.03 41.592 87.369 65.584 0.14151 10.155-8.5131 16.763-28.794 17.043-17.411 0.24352-35.089-5.4857-50.997-12.755l-12.63 33.177c16.783 7.085 43.448 13.15 63.666 12.867 42.477-0.58904 67.792-21.482 67.338-53.685-0.80623-57.924-87.024-41.374-87.356-65.143zm93.622-11.439h54.498v127.17h41.315v-127.17h50.388v-35.043h-132.87zm219.3-268.09v419.63l42.944 42.944v-505.51zm-353.74 233.15h-38.107l-11.511 11.294c-12.933-9.3095-30.765-14.14-54.231-14.14-58.411 0-81.775 29.673-81.775 83.815 0 21.291 3.6988 38.841 11.682 52.329l-29.373 28.827h38.087l9.6945-9.5135c12.712 8.2927 29.748 12.604 51.684 12.604 58.407 0 81.768-29.452 81.768-84.243 0-19.86-3.1854-36.409-10.07-49.427zm-146.56 80.748c0-37.844 13.11-49.657 42.714-49.657 11.781 0 20.86 1.8626 27.583 6.3577l-67.918 66.647c-1.5927-6.4071-2.3792-14.111-2.3792-23.348zm42.714 50.526c-10.201 0-18.395-1.5269-24.819-5.025l66.025-64.785c1.0037 5.512 1.5072 11.886 1.5072 19.284 0 38.057-13.114 50.526-42.714 50.526z" fill="#e1052d" stroke-width="3.2907"/>
</svg>
