<?xml version="1.0" encoding="UTF-8" standalone="no"?>
<svg xmlns:rdf="http://www.w3.org/1999/02/22-rdf-syntax-ns#" xmlns="http://www.w3.org/2000/svg" height="115.47" width="600" version="1.1" xmlns:cc="http://creativecommons.org/ns#" xmlns:xlink="http://www.w3.org/1999/xlink" viewBox="0 0 158.75 30.551103" xmlns:dc="http://purl.org/dc/elements/1.1/">
 <g transform="translate(-73.327 -250.82)">
  <rect height="30.551" width="30.551" y="250.82" x="73.327" stroke-width=".29923" fill="#0052ba"/>
  <g fill="#fff">
   <path stroke-width=".29923" d="m86.17 258.69c1.265-1 2.795-1.13 3.017-1.15v-2.27c-0.728-0.01-1.454 0.09-2.162 0.31-1.106 0.34-2.119 0.95-3.012 1.8-2.149 2.04-2.153 4.84-2.142 5.24h4.737l-2.106-1.56c0.034-0.14 0.375-1.34 1.668-2.37z"/>
   <polyline points="75.911 73.314 50.374 73.314 36.068 81.107 69.511 81.107 75.907 88.61 75.907 73.477 75.907 73.317" transform="matrix(.29923 0 0 .29923 73.327 250.82)"/>
   <path stroke-width=".29923" d="m94.271 262.58c0-2.78-2.276-5.04-5.083-5.04v2.32c1.514 0 2.742 1.22 2.742 2.72 0 0.55-0.163 1.05-0.438 1.48-0.137 0.18-0.319 0.39-0.564 0.63l-3.425 2.64c-2.617 1.97-4.077 4.1-4.192 4.26-0.444 0.63-0.956 1.53-1.346 2.56-0.431 1.13-0.682 2.23-0.711 3.11l2.865-2.17c0.036-0.14 0.393-1.48 1.703-3.03 1.377-1.63 2.461-2.43 3.332-3.08 0.194-0.15 0.38-0.28 0.555-0.42 0.134-0.1 0.337-0.25 0.569-0.42 0.6-0.43 1.455-1.05 2.156-1.68 1.121-0.92 1.837-2.32 1.837-3.88z"/>
  </g>
  <g stroke-width=".29923" fill="#0052ba">
   <path d="m111.57 271.08 1.55-2.12c0.99 0.76 2.09 1.46 3.85 1.46 1.27 0 2.25-0.65 2.25-1.69 0-1.12-0.83-1.61-1.95-2.1l-2.04-0.85c-1.97-0.8-2.98-2.12-2.98-4.04 0-2.42 1.9-4.45 5-4.45 1.71 0 3.26 0.46 4.55 1.54l-1.57 2.1c-0.99-0.74-1.97-1.29-3.11-1.29-1.23 0-1.99 0.55-1.99 1.65 0 0.98 0.78 1.46 1.99 1.97l1.74 0.76c2.16 0.94 3.39 2.33 3.39 4.2 0 3.01-2.55 4.68-5.41 4.68-2.01 0-3.85-0.49-5.27-1.82z"/>
   <path d="m123.99 261.46h2.69v1.71h0.04c0.7-1.33 2.04-1.99 3.12-1.99 2.18 0 3.18 1.61 3.18 3.54v4.34c0 2.08-1.34 3.77-3.48 3.77-0.97 0-2.22-0.55-2.71-1.61h-0.04v5.13h-2.8v-14.89zm6.23 7.65v-4.09c0-1.02-0.45-1.63-1.55-1.63-0.99 0-1.88 0.89-1.88 2.45v2.65c0 1.44 1.03 2.31 1.97 2.31 0.86 0 1.46-0.49 1.46-1.69z"/>
   <path d="m134.94 268.75v-3.31c0-2.82 2.08-4.21 4.5-4.21 2.41 0 4.55 1.22 4.55 4.15v3.32c0 2.93-2.16 4.16-4.51 4.16-2.44 0-4.54-1.17-4.54-4.11zm6.23 0.08v-3.6c0-1.06-0.57-1.86-1.71-1.86-1.21 0-1.7 0.86-1.7 1.94v3.54c0 1.13 0.53 1.87 1.74 1.87 1.23 0 1.67-0.83 1.67-1.89z"/>
   <path d="m145.97 261.52h2.71v1.78h0.03c0.63-1.27 1.39-1.9 2.69-1.9 0.23 0 0.65 0.02 0.95 0.08v2.52c-0.51-0.06-0.85-0.06-1.06-0.06-0.97 0-2.5 0.4-2.52 2.14v6.57h-2.8z"/>
   <path d="m155.4 270.11v-6.36h-1.54v-2.24h1.54v-2.95h2.84v2.95h2.53v2.24h-2.53v5.49c0 0.64 0.28 1.02 1.08 1.02 0.43 0 0.79-0.07 1.17-0.15v2.25c-0.76 0.25-1.48 0.35-2.18 0.35-1.4 0.01-2.91-0.55-2.91-2.6z"/>
   <path d="m161.85 271.13 1.42-1.83c0.81 0.64 1.91 1.34 2.93 1.34 0.99 0 1.6-0.4 1.6-1.12 0-0.81-0.74-1.06-1.67-1.36l-1.02-0.34c-1.75-0.53-2.62-1.69-2.62-3.22 0-1.71 1.31-3.47 3.94-3.47 1.48 0 2.73 0.4 3.75 1.27l-1.38 1.82c-0.85-0.66-1.63-0.97-2.42-0.97-0.82 0-1.35 0.33-1.35 0.95 0 0.68 0.42 0.91 1.21 1.21l1.4 0.46c1.94 0.66 2.86 1.82 2.86 3.35 0 2.18-1.93 3.54-4.28 3.54-1.74 0-3.25-0.49-4.37-1.63z"/>
   <path d="m172.27 257.4h1.48v9.66l4.07-5.34h1.69l-2.9 3.69 3.03 7.09h-1.57l-2.54-5.97-1.78 2.24v3.73h-1.48v-15.1z"/>
   <path d="m180.77 269.66c0-2.52 2.2-3.43 3.96-3.43h2.05v-1.84c0-1.27-0.84-1.84-2.11-1.84-1.15 0-2.23 0.55-2.23 1.71v0.62h-1.33v-0.66c0-1.82 1.67-2.75 3.72-2.75 1.91 0 3.46 0.86 3.46 2.86v5.44c0 0.83 0.08 2.2 0.1 2.73h-1.37l-0.09-1.71h-0.04c-0.7 1.54-2.18 1.95-3.16 1.95-1.56 0-2.96-1.02-2.96-3.08zm6.01-0.74v-1.67h-1.82c-1.25 0-2.67 0.4-2.67 2.2 0 1.47 0.91 2.14 1.95 2.14 1.38 0 2.54-1.12 2.54-2.67z"/>
   <path d="m190.66 261.72h1.4v1.82h0.02c0.7-1.44 1.99-2.07 3.37-2.07 1.63 0 2.71 1.22 2.71 2.75v8.28h-1.48v-7.88c0-1.44-0.7-1.97-1.87-1.97-1.29 0-2.67 1.3-2.67 2.91v6.94h-1.48v-10.78z"/>
   <path d="m200.12 269.66c0-2.52 2.2-3.43 3.96-3.43h2.05v-1.84c0-1.27-0.84-1.84-2.12-1.84-1.14 0-2.22 0.55-2.22 1.71v0.62h-1.34v-0.66c0-1.82 1.68-2.75 3.73-2.75 1.91 0 3.46 0.86 3.46 2.86v5.44c0 0.83 0.08 2.2 0.1 2.73h-1.37l-0.09-1.71h-0.04c-0.7 1.54-2.18 1.95-3.16 1.95-1.57 0-2.96-1.02-2.96-3.08zm6.01-0.74v-1.67h-1.82c-1.25 0-2.67 0.4-2.67 2.2 0 1.47 0.91 2.14 1.95 2.14 1.38 0 2.54-1.12 2.54-2.67z"/>
   <path d="m209.96 270.39v-12.99h1.49v12.73c0 0.7 0.32 1.21 1.25 1.21 0.27 0 0.65-0.04 0.91-0.09v1.17c-0.49 0.17-0.96 0.21-1.4 0.21-1.42 0-2.25-0.78-2.25-2.24z"/>
   <path d="m214.98 268.86v-3.28c0-2.65 1.7-4.11 3.92-4.11 2.29 0 3.65 1.44 3.65 3.81v2.12h-6.06v1.48c0 1.82 0.95 2.63 2.71 2.63 1.21 0 2.03-0.45 2.62-0.79l0.56 1c-0.98 0.76-2.17 1.04-3.39 1.04-2.36 0-4.01-1.17-4.01-3.9zm6.14-2.54v-1.17c0-1.27-0.57-2.54-2.32-2.54-1.64 0-2.32 1.29-2.32 2.54v1.17z"/>
   <path d="m224.58 261.72h1.4v1.82h0.02c0.7-1.44 1.99-2.07 3.37-2.07 1.63 0 2.71 1.22 2.71 2.75v8.28h-1.49v-7.88c0-1.44-0.7-1.97-1.86-1.97-1.29 0-2.67 1.3-2.67 2.91v6.94h-1.48z"/>
  </g>
 </g>
</svg>
