<svg Googl="true" version="1.1" viewBox="0 0 1066.7 809.31" xml:space="preserve" xmlns="http://www.w3.org/2000/svg">
<style type="text/css">
	.st0{fill:#840B17;}
</style>
<g transform="matrix(2.0833 0 0 2.0833 .0625 -.23085)">
	
		<g transform="translate(510.47,240.98)">
			<path class="st0" d="m-14.7-59h-69.5v4.6h69.5c6.4 0 11.6 5.2 11.6 11.6v174.2c0 6.4-5.2 11.6-11.6 11.6h-479.6c-6.4 0-11.6-5.2-11.6-11.6v-174.2c0-6.4 5.2-11.6 11.6-11.6h65.9v-4.6h-65.9c-8.9 0-16.2 7.3-16.2 16.2v174.2c0 8.9 7.3 16.2 16.2 16.2h479.6c8.9 0 16.2-7.3 16.2-16.2v-174.2c0-8.9-7.2-16.2-16.2-16.2"/>
		</g>
		<g transform="translate(132.61,183.71)">
			<path class="st0" d="m-74 64.5h-21.4v-18.6h63.3v18.6h-21.4v111.8h-20.5z"/>
		</g>
		<g transform="translate(173.34,199.81)">
			<path class="st0" d="m-67.6 29.8h20.7l13.4 101.1h0.4l13.4-101.1h18.8l-19.7 130.4h-27.2z"/>
		</g>
		<g transform="translate(239.18,99.357)">
			<path class="st0" d="m-57.3 246.5c0-9.3 1.5-17.3 4.5-23.9s8.3-14 16-22.1c7.6-8.1 12.8-15 15.7-20.7s4.4-11.7 4.4-17.9c0-5.6-0.9-9.5-2.7-11.6-1.8-2.2-4.4-3.3-7.9-3.3-7.1 0-10.6 4.3-10.6 12.9v14h-19.4v-12.7c0-10.6 2.6-18.7 7.8-24.3s12.8-8.5 22.7-8.5 17.5 2.8 22.7 8.5 7.8 13.8 7.8 24.3c0 7.9-1.9 15.7-5.7 23.3s-10.3 16.3-19.7 26.1c-6.1 6.5-10.2 11.7-12.3 15.7s-3.2 8.4-3.2 12.9v2.8h39.2v18.6h-59.2v-14.1z"/>
		</g>
		<g transform="translate(333.19,92.837)">
			<path class="st0" d="m-42.5 260.5c-5.1-5.6-7.6-13.8-7.6-24.3v-7.4h19.4v8.9c0 8.4 3.5 12.7 10.6 12.7 3.5 0 6.1-1 7.9-3.1 1.8-2 2.7-5.4 2.7-10 0-5.5-1.2-10.3-3.7-14.4-2.5-4.2-7.1-9.2-13.8-15-8.4-7.4-14.3-14.2-17.7-20.2s-5-12.8-5-20.4c0-10.3 2.6-18.3 7.8-23.9s12.8-8.5 22.7-8.5c9.8 0 17.2 2.8 22.3 8.5 5 5.7 7.5 13.8 7.5 24.3v5.4h-19.4v-6.7c0-4.5-0.9-7.7-2.6-9.8-1.7-2-4.3-3.1-7.6-3.1-6.8 0-10.2 4.2-10.2 12.5 0 4.7 1.3 9.1 3.8 13.2s7.2 9.1 13.9 14.9c8.6 7.5 14.5 14.2 17.7 20.3s4.8 13.2 4.8 21.4c0 10.7-2.6 18.9-7.9 24.6s-12.9 8.6-23 8.6c-10 0-17.5-2.8-22.6-8.5"/>
		</g>
		<g transform="translate(415.29,225.89)">
			<path class="st0" d="m-29.6-26.5h22.4l-20 21.5h-15.5zm-29.8 30.2h55.9v18.6h-35.4v34.5h28.1v18.6h-28.1v40h35.4v18.6h-55.9z"/>
		</g>
		<g transform="translate(447.97,199.81)">
			<path class="st0" d="m-24.5 29.8h54.2v18.6h-33.7v36.3h26.4v18.6h-26.4v56.8h-20.5z"/>
		</g>
		<g transform="translate(267.54,231.85)">
			<path class="st0" d="m-52.8-39.3c6.6 2.1 10.8 6.4 13.2 13.2 23.8-41.8 59.5-65.3 106.6-72-10.2-3.8-14.8-11.4-15.3-22.3-3.3 2.4-6.3 4.7-9.4 6.8-7 4.8-14.8 7.7-23.3 8.6-5.2 0.6-9.8-0.6-14.3-3.4-9.6-6.1-14.6-14.7-15.5-26-0.6-7.6 0.6-15 2.3-21.5 1.8 6.4 3.4 13.5 5.9 20.3 2.4 6.6 6.7 12.1 13.2 15.2 10.3 5 19.7 2.8 28.3-4.1 9.3-7.5 14.7-17.6 18.7-28.6 4.3-11.8 5.2-23.8 1.6-36.1-5.6-19-19.4-28.5-39.3-26.4-14.6 1.6-26.7 8.6-37.5 18.2-13.9 12.3-24.6 27.3-34.2 43.1-4.4 7.2-8.4 14.7-12.6 22.1-0.2 0.3-0.4 0.5-0.7 0.7 5-23.8 15.4-45.1 30.5-64.1l-0.2-0.9c-5.5 0.2-11 0.1-16.4 0.8-16.9 2.2-29.5 11-37.6 26-6.4 11.8-9.1 24.7-10.7 38.5 5.2-2.7 9.9-5.1 14.5-7.5 0.1 0.1 0.2 0.3 0.3 0.4-2.5 3-5 5.9-7.5 8.9-8.4 10.4-16.4 21-21 33.7-4.5 12.2-5 24.8-1.1 37.3 4.1 13.2 14.3 20.3 26.9 17.8 5.3-1.1 10.6-3.6 15.3-6.4 13.7-8 23.1-20.3 30.8-34 2.6-4.6 5-9.3 7.5-14-2 20-8 38.6-19 55.7m10.9 22.5c-3.2-6.5-7.8-11.6-15.1-13.3-1.6-0.4-3.7-0.2-5.2 0.5-8.5 4.1-17.3 7-26.6 8-14.6 1.6-27.6-1.8-37.3-13.6-7-8.6-10-18.7-10.1-29.6-0.2-25.8 11.1-46 30.5-62.1 1.9-1.5 2.5-2.9 2.3-5.3-1.3-15.7-0.1-31.1 7.2-45.4 7-13.7 18.1-22.1 33-25.5 10.6-2.4 21.2-2 31.8 0.1 2.7 0.5 4.5 0 6.5-2 11.8-12.4 25.5-22.1 42.6-25.5 19.5-3.9 36.2 1.3 48.8 17.1 9.3 11.6 12.3 25.2 10.9 39.9-1.5 16.6-8.5 30.9-18.3 44-1 1.3-1.9 2.6-3.1 4.2 11.4-3.2 13.5-3.3 17.3-1.2-1 0.7-1.9 1.4-2.8 2.2-5.6 5-6.5 10.9-2.4 17.2 1.5 2.3 3.2 4.6 5.2 6.5 1.4 1.4 3.2 2.5 5 3.1 5.8 2 11.2 4.5 15.8 8.7 12.5 11.4 9.3 28.5-1.9 39.1 0.4-4.2 1.3-8.6 1.1-13.1-0.1-4.1-0.7-8.5-2.3-12.2-3.3-7.9-10.4-10.4-18.3-10.9-16.1-1-30.8 3.9-44.9 11.2-16.7 8.7-31.5 20-44.6 33.5-8.3 8.6-16 17.8-24.1 26.8-0.2-0.6-0.6-1.5-1-2.4"/>
		</g>
	
</g>
</svg>
