<?xml version="1.0" encoding="UTF-8" standalone="no"?>
<svg xmlns:rdf="http://www.w3.org/1999/02/22-rdf-syntax-ns#" xmlns="http://www.w3.org/2000/svg" height="191.08" width="600" version="1.1" xmlns:cc="http://creativecommons.org/ns#" xmlns:xlink="http://www.w3.org/1999/xlink" viewBox="0 0 158.75 50.555894" xmlns:dc="http://purl.org/dc/elements/1.1/">
 <g transform="translate(-90.714 -538.25)">
  <rect height="50.556" width="50.555" y="538.25" x="90.714" stroke-width=".35973" fill="#ffc501"/>
  <g fill="#231f20">
   <path stroke-width=".35973" d="m113.31 546.22c-1.83 0.56-3.5 1.56-4.98 2.96-3.54 3.38-3.55 8-3.54 8.66h7.83l-3.48-2.58c0.06-0.22 0.62-2.21 2.75-3.9 2.1-1.66 4.62-1.88 4.99-1.9v-3.76c-1.2-0.02-2.4 0.16-3.57 0.52z"/>
   <polygon points="104.35 101.02 69.266 101.02 49.464 111.73 95.559 111.73 104.35 122.04" transform="matrix(.35973 0 0 .35973 90.714 538.25)"/>
   <path stroke-width=".35973" d="m119.75 561.25-5.65 4.38c-4.1 3.12-6.55 6.48-6.93 7.04-0.67 1-1.58 2.52-2.22 4.22-0.71 1.87-1.13 3.69-1.17 5.13l4.73-3.58c0.06-0.24 0.65-2.44 2.81-5 2.27-2.7 4.06-4.02 5.5-5.09 0.32-0.24 0.63-0.47 0.92-0.7 0.22-0.17 0.56-0.41 0.94-0.68 0.99-0.72 2.41-1.74 3.56-2.78 1.85-1.53 3.04-3.83 3.04-6.41 0-4.6-3.76-8.32-8.4-8.32v3.83c2.5 0 4.53 2.01 4.53 4.49 0 0.9-0.27 1.73-0.73 2.44-0.22 0.3-0.52 0.64-0.93 1.03z"/>
  </g>
  <g stroke-width=".35973" fill="#ffc501">
   <path d="m154.29 571.69 11.64-15.9h-11.15v-5.03h18.92v4.4l-11.29 15.54h11.36v5.14h-19.49v-4.15z"/>
   <path d="m176.02 568.66v-3.41c0-5.63 4.44-8.3 9.01-8.3 4.22 0 8.19 2.5 8.19 7.53v3.55h-11.29v0.77c0 2.08 2.01 3.03 3.91 3.03 1.61 0 3.9-0.88 4.82-1.69l2.21 3.27c-1.9 1.94-4.75 2.89-7.77 2.89-4.64 0-9.08-2.26-9.08-7.64zm11.72-4.01v-0.59c0-1.94-1.31-2.82-2.85-2.82-1.55 0-2.96 0.92-2.96 2.92v0.49z"/>
   <path d="m202.26 574.12h-0.1v1.72h-5.67v-25.08h5.81v8.72h0.07c1.34-1.76 3.3-2.53 5.06-2.53 4.15 0 6.86 2.57 6.86 6.86v5.59c0 4.29-3.41 6.9-7.45 6.9-1.8 0-3.52-0.85-4.58-2.18zm6.19-5.18v-4.53c0-1.94-1.37-2.96-3.02-2.96-1.48 0-3.13 0.81-3.13 3.34v4.26c0 2.04 1.65 2.95 3.2 2.95 1.51 0 2.95-0.91 2.95-3.06z"/>
   <path d="m217.42 557.34h5.7v3.06h0.04c0.98-1.8 3.34-3.38 5.62-3.38 0.53 0 1.27 0.04 1.83 0.18v4.99c-0.88-0.14-1.93-0.21-2.46-0.21-2.43 0-4.92 1.02-4.92 4.22v9.64h-5.81v-18.5z"/>
   <path d="m231.84 570.81c0-4.36 4.58-5.98 8.3-5.98h3.2v-1.44c0-1.52-1.02-2.32-2.88-2.32s-2.74 0.88-2.74 1.86v0.53h-5.17v-0.67c0-4.01 4.01-5.84 8.23-5.84 4.25 0 8.37 1.69 8.37 6.37v8.44c0 1.41 0.17 3.73 0.31 4.08h-5.52c-0.03-0.14-0.17-1.94-0.21-2.08h-0.14c-1.55 2.08-3.76 2.47-5.63 2.47-3.55 0-6.12-1.94-6.12-5.42zm11.5-1.69v-1.06h-2.77c-1.69 0-2.92 0.5-2.92 2.01 0 1.2 0.77 2 2.57 2 2.14 0.01 3.12-1.19 3.12-2.95z"/>
  </g>
 </g>
</svg>
