<svg class="page-1bp09s7" fill="none" Googl="true" preserveAspectRatio="xMinYMid" version="1.1" viewBox="0 0 715.04 210" xmlns="http://www.w3.org/2000/svg">
 <path d="m81.42 0c47.64 0 81.42 34.324 81.42 84.287v20.713h-41.25v-20.713c0-26.715-16.35-43.37-40.17-43.37-23.82 0-40.17 16.655-40.17 43.37h-41.249c0-49.964 33.697-84.287 81.42-84.287zm-81.42 210h162.76v-40.326h-112.46l57.849-64.59h-50.296l-57.849 64.505zm273.18-63.321h67.692v23.038h-98.857v-23.038l67.518-81.929v-1.6906h-67.518v-23.088h98.857v22.868l-67.692 82.098zm73.718-24.957c0-28.845 18.94-49.659 48.76-49.659 27.986 0 49.258 20.29 47.416 57.852h-70.871c2.4899 13.315 11.221 20.822 23.795 20.822 9.711 0 16.417-4.0918 20.434-11.261h26.11c-6.1998 19.115-22.409 31.914-46.578 31.914-30.128 0-49.067-20.992-49.067-49.668zm72.049-8.192c-2.341-13.307-10.89-20.822-23.289-20.822-12.234 0-20.94 7.5158-23.455 20.822zm62.837 36.184h-1.8428v19.969h-23.463v-129.71h23.463v53.59h1.8428c6.0254-15.217 17.761-21.499 31.829-21.499 23.121 0 39.546 19.284 39.546 49.659 0 30.553-16.425 49.668-39.546 49.668-14.068 0-25.804-6.1126-31.829-21.676zm21.579 0.8453c14.242 0 23.455-11.269 23.455-28.845 0-17.576-9.2122-28.845-23.455-28.845-14.242 0-23.455 11.269-23.455 28.845 0 17.576 9.2455 28.854 23.488 28.854zm63.2-76.797h23.457v19.968h1.8438c6.0334-15.217 17.593-19.968 29.818-19.968h5.7058v22.023h-15.247c-13.911 0-22.121 9.8911-22.121 26.791v47.107h-23.457zm62.325 68.613c0-18.43 13.741-28.676 37.347-28.676 20.752 0 25.639-3.7537 25.639-9.8996 0-7.1608-6.53-11.092-17.091-11.092-10.049 0-16.6 4.1003-18.259 11.439h-23.087c2.1819-19.631 17.26-32.084 41.388-32.084 26.976 0 40.215 14.33 40.215 39.422v58.198h-21.143v-19.8h-1.6589c-6.0228 15.023-18.095 21.507-32.502 21.507-18.945 0-30.848-10.416-30.848-29.015zm36.031 10.407c10.72 0 21.444-5.4612 26.136-23.206l0.82946-3.9312c-5.5315 3.0774-14.412 4.954-25.132 4.954-9.8848 0-15.77 3.5846-15.77 11.092 0 7.5074 5.2198 11.091 13.937 11.091z" fill="#fff" stroke-width="5.2832"/>
</svg>
