<svg xmlns="http://www.w3.org/2000/svg" height="796.99" width="600" version="1.1" viewBox="0 0 158.74992 210.86838">
 <path fill="#fff" d="m0.32506 175.32q-0.32506-0.87-0.32506-1.52 0-1.3003 1.192-2.0588l37.275-21.238q0.43345-0.43345 1.4087-0.43345 0.86687 0 1.7338 0.86687 2.3839 2.384 5.3096 4.5511 3.034 2.1672 9.5356 4.5511 6.5015 2.3839 13.545 2.3839h0.43342q13.003 0 19.397-5.6347 6.3932-5.7431 6.3932-13.87 0-9.4273-6.3932-14.52-6.3931-5.2012-17.988-5.8514-4.4427-0.43342-12.028-0.43342h-2.1671q-0.97523 0-1.6254-0.86688-0.65013-0.86687-0.65013-1.8421v-32.822q0-0.97523 0.65013-1.6254 0.65017-0.65014 1.6254-0.65014h2.1671q8.0186 0 13.329-0.86689 3.9009-0.32506 7.1517-1.4087 3.3591-1.0836 6.5015-3.1424t4.8762-5.8514q1.8421-3.9009 1.8421-9.1022 0-4.8762-2.3839-8.5604-2.2755-3.6842-5.8514-5.5264-3.5758-1.9505-7.0433-2.8173-3.3591-0.86689-6.3931-0.86689-17.338 0-25.789 8.8855-0.43345 0.43342-1.7338 0.43342h-1.41l-36.84-21.78q-0.9748-0.325-1.2999-1.3-0.2167-1.084 0.4334-1.734 2.1671-3.034 4.9845-6.1764 2.9257-3.1424 9.1022-7.8019 6.1764-4.6595 13.437-8.1269 7.368-3.4676 18.637-5.9598 11.27-2.6006 23.948-2.6006 15.82 0.10829 29.257 3.5758t22.538 9.1022q9.1022 5.5263 15.496 12.678 6.5015 7.1517 9.4273 14.629 2.9257 7.3684 2.8173 14.629 0 37.059-40.851 45.728 6.6099 1.5171 12.353 3.6842 5.7431 2.0588 11.92 5.8514 6.1764 3.7926 10.511 8.6688 4.3344 4.8762 7.1517 12.245 2.8173 7.26 2.8173 16.146-0.10834 11.486-3.6842 21.238-3.5758 9.644-9.7524 16.471-6.0682 6.8266-13.87 12.028-7.8018 5.2013-16.904 8.2353t-18.096 4.5511q-8.9938 1.4087-17.988 1.4087h-0.43342q-25.681 0-46.595-9.3189-20.913-9.45-31.098-26.25z"/>
</svg>
