<svg enable-background="new 0 0 220.361 110.594" version="1.1" viewBox="0 0 1345 675" xml:space="preserve" xmlns="http://www.w3.org/2000/svg">
<g transform="scale(6.1034)"><g fill="#d42129">
	<polygon points="0 18.66 63.881 55.233 53.37 61.262 0.022 30.683"/>
	<polygon points="0.095 74.646 14.774 83.405 0.126 91.807"/>
	<polygon points="0.087 67.883 20.678 80.016 31.134 74.018 0.063 55.859"/>
	<polygon points="37.079 70.609 0.054 49.348 0.031 37.323 47.683 64.525"/>
	</g><path d="m80.413 32.21s-27.176-0.126-27.301-0.126c3.526-20.467 16.69-32.084 38.752-32.084 15.181 0 37.996 9.102 37.996 32.964 0 11.516-6.877 19.728-13.084 21.767 4.904 2.768 13.965 8.051 13.965 23.781 0 15.055-14.846 32.082-38.877 32.082-29.945 0-38.752-18.705-38.752-33.34h27.301s1.008 9.686 12.079 9.686c7.046 0 11.578-3.941 11.578-10.818 0-7.886-6.124-11.576-12.837-11.576h-8.808v-19.629h10.57c5.031 0 10.695-3.649 10.695-10.82 0-7.172-3.775-11.448-11.326-11.448-7.546-1e-3 -11.951 4.655-11.951 9.561z" fill="#fff" Googl="true"/>
	<path d="m220.36 54.524c0 8.479-6.873 15.361-15.36 15.361h-49.785c-8.484 0-15.356-6.881-15.356-15.361 0-8.484 6.872-15.36 15.356-15.36h49.785c8.487 0 15.36 6.876 15.36 15.36z" fill="#d42129"/><g fill="#fff">
	<path d="m161.18 65.108c-1.522 0-2.933-0.275-4.239-0.83-1.305-0.555-2.435-1.311-3.38-2.271-0.948-0.955-1.691-2.086-2.226-3.391-0.536-1.309-0.799-2.699-0.799-4.189v-0.056c0-1.481 0.263-2.871 0.799-4.165 0.533-1.294 1.276-2.435 2.226-3.412 0.945-0.979 2.087-1.75 3.41-2.312 1.321-0.563 2.787-0.846 4.39-0.846 0.989 0 1.877 0.078 2.668 0.235 0.79 0.161 1.515 0.379 2.166 0.655 0.652 0.275 1.253 0.612 1.81 1.006 0.555 0.397 1.065 0.833 1.54 1.305l-2.904 3.352c-0.813-0.728-1.639-1.305-2.476-1.722-0.842-0.414-1.786-0.62-2.832-0.62-0.87 0-1.679 0.167-2.421 0.504-0.737 0.337-1.379 0.802-1.91 1.392-0.537 0.593-0.949 1.282-1.245 2.062-0.298 0.778-0.444 1.619-0.444 2.506v0.059c0 0.894 0.146 1.733 0.444 2.521 0.297 0.791 0.706 1.484 1.229 2.076 0.524 0.592 1.158 1.062 1.897 1.408 0.744 0.349 1.561 0.517 2.449 0.517 1.186 0 2.188-0.22 3.011-0.667 0.818-0.443 1.634-1.03 2.445-1.762l2.904 2.935c-0.531 0.574-1.088 1.089-1.661 1.545-0.571 0.457-1.202 0.845-1.885 1.17-0.68 0.325-1.425 0.573-2.235 0.741-0.812 0.17-1.723 0.254-2.731 0.254z"/>
	<path d="m179.56 43.847h4.216l8.895 20.905h-4.776l-1.894-4.658h-8.782l-1.897 4.658h-4.654zm4.805 12.245-2.759-6.732-2.757 6.732z"/>
	<path d="m198.19 48.203h-6.314v-4.21h17.199v4.21h-6.32v16.549h-4.563z"/>
</g></g>
</svg>
