<?xml version="1.0" encoding="UTF-8" standalone="no"?>
<!-- Created with Inkscape (http://www.inkscape.org/) -->

<svg
   xmlns:dc="http://purl.org/dc/elements/1.1/"
   xmlns:cc="http://creativecommons.org/ns#"
   xmlns:rdf="http://www.w3.org/1999/02/22-rdf-syntax-ns#"
   xmlns:svg="http://www.w3.org/2000/svg"
   xmlns="http://www.w3.org/2000/svg"
   version="1.1"
   width="863.75299"
   height="398.12299"
   viewBox="0 0 863.753 398.12298"
   id="Layer_1"
   xml:space="preserve"><metadata
   id="metadata3037"><rdf:RDF><cc:Work
       rdf:about=""><dc:format>image/svg+xml</dc:format><dc:type
         rdf:resource="http://purl.org/dc/dcmitype/StillImage" /><dc:title></dc:title></cc:Work></rdf:RDF></metadata><defs
   id="defs3035" />
<g
   transform="translate(-0.54,-0.20800469)"
   id="g3013">
	<g
   id="g3015">
		<polygon
   points="0.616,110.662 0.54,67.378 216.162,199.036 180.684,220.741 "
   id="polygon3017"
   style="fill:#d42129" />
		<polygon
   points="0.966,330.696 0.86,268.924 50.411,300.452 "
   id="polygon3019"
   style="fill:#d42129" />
		<polygon
   points="0.754,201.292 0.833,244.574 70.335,288.252 105.63,266.659 "
   id="polygon3021"
   style="fill:#d42129" />
		<polygon
   points="161.484,232.488 125.693,254.39 0.721,177.854 0.644,134.564 "
   id="polygon3023"
   style="fill:#d42129" />
	</g>
	<path
   d="m 271.966,116.162 c 0,0 -91.73,-0.458 -92.151,-0.458 C 191.716,42.029 236.15,0.208 310.62,0.208 c 51.242,0 128.252,32.766 128.252,118.666 0,41.456 -23.215,71.019 -44.166,78.358 16.556,9.967 47.141,28.98 47.141,85.606 0,54.196 -50.114,115.493 -131.227,115.493 -101.081,0 -130.805,-67.337 -130.805,-120.02 h 92.151 c 0,0 3.402,34.868 40.772,34.868 23.785,0 39.079,-14.19 39.079,-38.951 0,-28.384 -20.671,-41.667 -43.329,-41.667 -27.173,0 -29.724,0 -29.724,0 V 161.9 c 0,0 18.686,0 35.679,0 16.983,0 36.099,-13.131 36.099,-38.949 0,-25.821 -12.744,-41.211 -38.23,-41.211 -25.477,0.001 -40.346,16.76 -40.346,34.422 z"
   id="path3025"
   style="fill:#000000" />
</g>
<g
   transform="translate(-0.54,-0.20800469)"
   id="g3027">
	<polygon
   points="492.024,115.999 492.024,277.112 532.698,277.112 532.698,215.129 616.559,215.129 616.559,277.112 657.239,277.112 657.239,115.999 616.559,115.999 616.559,177.101 532.698,177.101 532.698,115.999 "
   id="polygon3029"
   style="fill:#000000" />
	<path
   d="m 858.07,164.474 c -4.13,-9.714 -10.066,-18.291 -17.649,-25.494 -7.565,-7.181 -16.649,-12.866 -27.01,-16.908 -10.351,-4.031 -21.968,-6.074 -34.528,-6.074 h -84.51 v 161.114 h 84.51 c 12.574,0 24.195,-2.083 34.547,-6.191 10.355,-4.112 19.438,-9.834 26.991,-17.007 7.583,-7.198 13.521,-15.817 17.655,-25.613 4.126,-9.782 6.217,-20.459 6.217,-31.743 v -0.44 c 0,-11.282 -2.093,-21.928 -6.223,-31.644 z m -79.187,75.272 h -43.836 v -86.377 h 43.836 c 6.45,0 12.416,1.071 17.731,3.182 5.279,2.102 9.871,5.081 13.646,8.849 3.773,3.776 6.71,8.32 8.732,13.516 2.044,5.247 3.082,11.185 3.082,17.643 v 0.44 c 0,6.319 -1.038,12.179 -3.084,17.423 -2.021,5.194 -4.957,9.744 -8.73,13.515 -3.765,3.766 -8.343,6.701 -13.607,8.727 -5.329,2.043 -11.306,3.082 -17.77,3.082 z"
   id="path3031"
   style="fill:#000000" />
</g>
</svg>