<svg xmlns="http://www.w3.org/2000/svg" width="34.495mm" height="72.065mm" viewBox="0 0 34.495014 72.065369"><g><g><path d="M27.338 19.958c4.853 1.238 7.132 4.655 7.132 9.707 0 9.509-8.716 13.52-17.036 13.52-9.905 0-17.829-5.051-17.185-15.798h9.608c-.05 5.002 2.377 7.478 7.627 7.478 3.516 0 6.785-1.486 6.785-5.2 0-4.655-3.368-5.745-7.478-5.745l-2.724.099v-7.181c.891-.099 1.832.099 2.724.099 3.021 0 6.785-.792 6.785-4.408 0-2.724-2.724-4.259-5.992-4.259-4.16 0-6.636 2.229-6.537 5.992h-9.657c.297-9.41 7.082-14.263 16.095-14.263 7.33 0 15.699 3.071 15.699 11.638 0 3.714-2.031 7.577-5.844 8.221z" fill="#211c20"/><g style="font-variant-ligatures:normal;font-variant-caps:normal;font-variant-numeric:normal;font-feature-settings:normal"><path d="M.516 66.085l1.854-.193q.167.999.676 1.468.515.469 1.384.469.921 0 1.384-.414.47-.42.47-.979 0-.358-.2-.607-.193-.255-.682-.441-.335-.124-1.526-.441-1.532-.407-2.15-.999-.869-.834-.869-2.033 0-.772.406-1.441.412-.676 1.178-1.027.772-.352 1.86-.352 1.777 0 2.672.834.901.834.946 2.226l-1.905.09q-.122-.779-.528-1.117-.399-.345-1.204-.345-.83 0-1.3.365-.303.234-.303.627 0 .358.283.613.361.324 1.751.676 1.39.352 2.054.731.669.372 1.043 1.027.38.648.38 1.606 0 .869-.451 1.627t-1.275 1.13q-.824.365-2.054.365-1.79 0-2.749-.882-.959-.889-1.146-2.585z"/><path d="M9.74 62.054h1.687v1.075q.328-.551.888-.896t1.242-.345q1.191 0 2.021.999.83.999.83 2.785 0 1.834-.837 2.854-.837 1.013-2.028 1.013-.566 0-1.03-.241-.457-.241-.966-.827v3.688h-1.809zm1.79 3.536q0 1.234.457 1.827.457.586 1.114.586.631 0 1.049-.538.418-.545.418-1.778 0-1.151-.431-1.709t-1.069-.558q-.663 0-1.101.551-.438.545-.438 1.62z"/><path d="M17.434 65.609q0-.965.444-1.868.444-.903 1.255-1.379.818-.476 1.822-.476 1.551 0 2.543 1.082.991 1.075.991 2.723 0 1.661-1.004 2.757-.998 1.089-2.517 1.089-.94 0-1.796-.455-.85-.455-1.294-1.33-.444-.882-.444-2.144zm1.854.103q0 1.089.483 1.668t1.191.579q.708 0 1.184-.579.483-.579.483-1.682 0-1.075-.483-1.654-.476-.579-1.184-.579t-1.191.579q-.483.579-.483 1.668z"/><path d="M27.644 69.372h-1.809v-7.32h1.68v1.041q.431-.738.772-.972.348-.234.785-.234.618 0 1.191.365l-.56 1.689q-.457-.317-.85-.317-.38 0-.644.227-.264.221-.418.806-.148.586-.148 2.454z"/><path d="M34.171 62.054v1.544h-1.236v2.95q0 .896.032 1.048.039.145.161.241.129.097.309.097.251 0 .727-.186l.154 1.503q-.631.289-1.429.289-.489 0-.882-.172-.393-.179-.579-.455-.18-.283-.251-.758-.058-.338-.058-1.365v-3.191h-.83v-1.544h.83v-1.454l1.815-1.13v2.585z"/></g></g><g fill="#211c20"><path d="M0 48.335h20.203v6.785h-20.203z"/><g style="font-variant-ligatures:normal;font-variant-caps:normal;font-variant-numeric:normal;font-feature-settings:normal"><path d="M21.827 55.007v-6.771h1.392v2.665h2.728v-2.665h1.392v6.771h-1.392v-2.961h-2.728v2.961z"/><path d="M28.779 48.237h2.545q.861 0 1.312.129.607.176 1.04.624.433.448.659 1.099.226.647.226 1.598 0 .836-.212 1.441-.259.739-.738 1.196-.362.346-.978.54-.461.143-1.232.143h-2.62zm1.392 1.145v4.485h1.04q.583 0 .842-.065.339-.083.56-.282.226-.199.367-.651.141-.457.141-1.242 0-.785-.141-1.205-.141-.42-.395-.656-.254-.236-.644-.319-.292-.065-1.143-.065z"/></g></g></g></svg>