<svg width="200mm" height="227.3mm" viewBox="0 0 200 227.3" xmlns="http://www.w3.org/2000/svg">
    <g stroke-width=".345">
        <path d="M97.663 4.742C104.914.682 113.437-.115 121.6.012c8.778.1 17.74 2.854 24.4 8.717 6.616 5.696 10.516 14.07 11.677 22.635.601 3.9.456 7.855.477 11.787v80.756h-48.95v-61.03c.1-1.386-.403-2.868-1.62-3.631-1.696-1.234-4.266-.463-5.157 1.392l-38.36 67.303c-1.327 2.273.711 5.362 3.302 5.168h101.21c6.136-.031 12.471-.245 18.31 1.962 4.74 1.665 8.917 5.124 10.986 9.756 1.98 4.26 2.34 9.072 2.018 13.705-.37 5.272-2.436 10.626-6.543 14.102-4.902 4.205-11.57 5.535-17.86 5.683H25.91c-6.05.048-12.35-.998-17.453-4.429C3.593 170.665.304 165.12.02 159.271c-.27-5.427 1.402-10.74 3.696-15.594 1.734-3.672 3.893-7.12 6.135-10.495l74.596-115.38C87.817 12.562 92.16 7.79 97.66 4.747M109.187 187.475h48.983v9.765c0 4.397-.203 8.777-1.423 13.035-1.44 5.29-4.515 10.291-9.189 13.297-5.396 3.534-12.167 4.232-18.441 3.417-5.089-.712-10.039-3.023-13.452-6.923-4.412-4.94-6.15-11.69-6.422-18.171-.034-1.75-.056-2.904-.056-4.655v-9.765z" fill="#e40046"/>
        <path d="M110.883 144.425c-.66 0-1.327-.008-1.406.68-.1 1.034-.07 2.074-.031 3.11.073.719.378.928 1.105.928h6.8v20.462c.004.607.052 1.184.778 1.258 1.178.1 2.365.068 3.547.03.82-.072 1.058-.378 1.058-1.105v-20.646h6.798c.726 0 1.032-.209 1.105-.927.038-1.037.07-2.077-.031-3.11-.08-.69-.751-.68-1.413-.68h-18.31zM135.075 144.407c-.668 0-1.337.021-2.002.068-.76.21-.497 1.071-.3 1.607l7.838 23.512c.156.561.454 1.149 1.123 1.263.388.066 1.008.077 1.534.075l2.101-.004c.481-.003.996-.02 1.325-.071.637-.102.968-.702 1.123-1.263l7.839-23.512c.197-.536.46-1.396-.3-1.607a30.373 30.373 0 0 0-4.005-.003c-.622.072-.864.756-1.043 1.267l-6.094 18.741-6.094-18.74c-.18-.512-.422-1.196-1.044-1.268a32.53 32.53 0 0 0-2.002-.065z" fill="#fff"/>
    </g>
</svg>
