<svg xmlns="http://www.w3.org/2000/svg" height="600.04" width="600" viewBox="0 0 158.75 158.76">
    <path d="M79.37 0c43.74 0 79.38 35.65 79.38 79.37 0 43.74-35.64 79.39-79.38 79.39C35.64 158.76 0 123.11 0 79.37 0 35.65 35.64 0 79.37 0" fill="#ed1c2e"/>
    <path d="M101.96 12.98c-.6.01-1.3.34-2.18.98L72.03 55.12l-45.02 67.44c-.74 2.02-.19 2.94 1.83 2.94h43.19v-.01h11.02v12.13c0 1.47 1.28 2.02 3.3 1.84h15.62c1.29 0 2.03-.73 1.84-1.84v-12.13h11.02c1.47-.17 1.84-1.28 1.84-2.75v-15.07c0-1.46-.73-2.21-2.2-2.02h-10.66V14.51c-.52-1.03-1.09-1.54-1.85-1.53zM82.13 75.7v29.95H61.36l10.67-15.62 10.1-14.33z" fill="#fff"/>
</svg>
