<svg width="200mm" height="220.826" viewBox="0 0 200 58.427" xmlns="http://www.w3.org/2000/svg">
    <defs>
        <style>
            .cls-1{fill:#ff3334}
        </style>
    </defs>
    <g transform="translate(-18.986 -150.13)" stroke-width=".487">
        <circle class="cls-1" cx="48.199" cy="179.34" r="29.213" fill="#ff3334"/>
        <path d="M49.631 188.93h-7.596l7.596-11.242zm11.758 0H57.45v-33.751a.609.609 0 0 0-.433-.584.59.59 0 0 0-.677.248l-27.456 40.563a.613.613 0 0 0 .487.945h20.26v4.572a.613.613 0 0 0 .604.598h6.582a.618.618 0 0 0 .633-.594v-4.547h3.964a.599.599 0 0 0 .603-.614v-6.251a.599.599 0 0 0-.603-.609" fill="#fff"/>
        <path class="cls-1" d="M99.844 199.72c-2.22 0-2.848-.682-2.848-2.731v-34.9c0-2.05.628-2.732 2.848-2.732h19.928c2.05 0 2.731.682 2.731 2.921v1.768c0 2.22-.681 2.848-2.731 2.848h-14.801v9.524h12.411c2.05 0 2.731.681 2.731 2.921v1.768c0 2.22-.681 2.843-2.731 2.843h-12.416v13.039c0 2.05-.682 2.731-2.921 2.731zM133.41 199.72c-2.22 0-2.848-.682-2.848-2.731v-34.9c0-2.05.628-2.732 2.848-2.732h2.22c2.22 0 2.922.682 2.922 2.732v34.9c0 2.05-.682 2.731-2.922 2.731zM150.52 199.72c-2.22 0-2.843-.682-2.843-2.731v-34.9c0-2.05.623-2.732 2.843-2.732h2.22c2.22 0 2.922.682 2.922 2.732v30.119h15.425c2.05 0 2.73.681 2.73 2.92v1.74c0 2.22-.68 2.847-2.73 2.847zM183.29 199.72c-2.22 0-2.848-.682-2.848-2.731v-34.9c0-2.05.628-2.732 2.848-2.732h1.991c1.948 0 2.79.57 3.813 2.05l10.59 15.542 10.648-15.542c1.022-1.46 1.82-2.05 3.812-2.05h1.992c2.22 0 2.848.682 2.848 2.732v34.9c0 2.05-.628 2.731-2.848 2.731h-2.22c-2.22 0-2.922-.682-2.922-2.731v-23.006l-6.87 10.196c-1.022 1.46-1.763 2.62-3.87 2.62h-1.082c-2.108 0-2.848-1.14-3.87-2.62l-6.88-10.196v23.006c0 2.05-.682 2.731-2.922 2.731z" fill="#ff3334"/>
    </g>
</svg>
