<?xml version="1.0" encoding="UTF-8" standalone="no"?>
<svg xmlns:rdf="http://www.w3.org/1999/02/22-rdf-syntax-ns#" xmlns="http://www.w3.org/2000/svg" height="253.89" width="600" version="1.1" xmlns:cc="http://creativecommons.org/ns#" xmlns:dc="http://purl.org/dc/elements/1.1/" viewBox="0 0 158.75 67.173812">
 <g transform="translate(-258.72 -609.82)">
  <path d="m292.3 609.82c18.51 0 33.59 15.08 33.59 33.59 0 18.5-15.08 33.58-33.59 33.58-18.5 0-33.58-15.08-33.58-33.58 0-18.51 15.08-33.59 33.58-33.59" fill="#ed1c2e"/>
  <path d="m301.86 615.31c-0.25 0.01-0.55 0.15-0.92 0.42l-11.75 17.41v0.01l-19.04 28.53c-0.32 0.85-0.08 1.24 0.77 1.24h18.27 4.67v5.13c0 0.62 0.54 0.86 1.4 0.78h6.61c0.54 0 0.85-0.31 0.77-0.78v-5.13h4.67c0.62-0.08 0.77-0.54 0.77-1.16v-6.38c0-0.62-0.31-0.93-0.93-0.86h-4.51v-38.56c-0.22-0.43-0.46-0.65-0.78-0.65zm-8.39 26.54v12.67h-4.28v0.01h-4.51l4.51-6.61 4.28-6.07z" fill="#fff"/>
  <path d="m347.77 621.66v17.81h18.45v-17.81h6.79v43.5h-6.79v-19.3h-18.45v19.3h-6.75v-43.5h6.75z" fill="#6f6d6d"/>
  <path d="m380.38 621.66v43.5h12.62c15.93 0 24.47-10.11 24.47-22.38 0-9.9-7.67-21.12-22.98-21.12h-14.11zm6.58 6.32h7.14c10.08 0 16.55 6.53 16.55 14.87 0 10.33-6.66 16.04-16.88 16.04h-6.81v-30.91z" fill="#6f6d6d"/>
 </g>
</svg>
