<svg version="1.1" viewBox="0 0 800 289.33" xmlns="http://www.w3.org/2000/svg">
 <path d="m144.67 289.33c79.904 0 144.67-64.738 144.67-144.62 0-79.879-64.762-144.71-144.67-144.71-79.904 0-144.67 64.786-144.67 144.71 0 79.928 64.738 144.62 144.67 144.62" fill="#e0001c" stroke-width="1.8547"/>
 <path d="m151.73 192.16h-37.613l37.613-55.672zm58.228-0.12055h-19.626v-167.02c0-1.3743-0.868-2.4593-2.1459-2.8692-1.2538-0.38577-2.604 0.07233-3.3514 1.2055l-135.82 200.89c-0.62688 0.8921-0.6751 2.0735-0.12055 3.0621 0.50633 0.98855 1.519 1.6154 2.6281 1.6154h100.23v22.64c0 1.5672 1.3743 2.9656 2.9898 2.9656h32.598c1.6395 0 3.0139-1.3984 3.0139-2.9656v-22.64h19.626c1.7119 0 2.9898-1.3261 2.9898-3.038v-30.838c0-1.6636-1.2779-3.0139-2.9898-3.0139" fill="#fff" stroke-width="1.8547"/>
 <path d="m387.25 48.101h26.691v82.291h94.274v-82.291h26.691v193.18h-26.691v-85.546h-94.274v85.546h-26.691z" fill="#fff" stroke-width="1.8547"/>
 <path d="m581.56 43.207c10.344 0 18.517 8.1736 18.517 18.517 0 10.344-8.1736 18.252-18.517 18.252s-18.252-7.9084-18.252-18.252c0-10.344 7.9084-18.517 18.252-18.517zm-12.803 67.028h25.606v131.07h-25.606z" fill="#fff" stroke-width="1.8547"/>
 <path d="m629.17 198.24v-64.569h-19.626v-23.436h19.626v-37.613l25.606-14.708v52.321h28.62v23.436h-28.62v65.654c0 12.248 7.619 18.517 18.517 18.517 2.17 0 6.8234-0.26522 14.442-1.6395v23.171c-7.3538 2.4593-12.803 2.9898-16.902 2.9898-26.691 0-41.688-18.252-41.688-44.147z" fill="#fff" stroke-width="1.8547"/>
 <path d="m701.12 213.77 20.446-11.718c5.7143 12.272 11.718 20.446 28.33 20.446s24.786-7.3538 24.786-17.432c0-6.5341-3.5443-12.272-16.902-15.262l-21.531-4.8945c-21.242-4.8945-32.694-19.626-32.694-37.058 0-22.881 19.337-40.603 47.402-40.603 23.436 0 37.058 11.718 44.412 27.8l-20.422 11.718c-5.1838-10.633-10.344-17.722-24.256-17.722-13.912 0-22.351 7.9084-22.351 17.167 0 5.4491 2.7245 11.718 14.973 14.442l20.446 4.6293c26.426 6.0036 36.239 21.242 36.239 37.589 0 20.446-15.527 41.423-50.127 41.423-26.426 0-40.868-11.983-48.776-30.524z" fill="#fff" stroke-width="1.8547"/>
</svg>
