<svg xmlns="http://www.w3.org/2000/svg" height="253.89" width="600" viewBox="0 0 158.75 67.174">
    <path d="M33.58 0c18.51 0 33.59 15.08 33.59 33.59 0 18.5-15.08 33.58-33.59 33.58C15.08 67.17 0 52.09 0 33.59 0 15.08 15.08 0 33.58 0" fill="#ed1c2e"/>
    <path d="M43.14 5.49c-.25.01-.55.15-.92.42L30.47 23.32v.01L11.43 51.86c-.32.85-.08 1.24.77 1.24H35.14v5.13c0 .62.54.86 1.4.78h6.61c.54 0 .85-.31.77-.78V53.1h4.67c.62-.08.77-.54.77-1.16v-6.38c0-.62-.31-.93-.93-.86h-4.51V6.14c-.22-.43-.46-.65-.78-.65zm-8.39 26.54V44.7h-4.28v.01h-4.51l4.51-6.61 4.28-6.07z" fill="#fff"/>
    <path d="M89.05 11.84v17.81h18.45V11.84h6.79v43.5h-6.79v-19.3H89.05v19.3H82.3v-43.5h6.75zM121.66 11.84v43.5h12.62c15.93 0 24.47-10.11 24.47-22.38 0-9.9-7.67-21.12-22.98-21.12h-14.11zm6.58 6.32h7.14c10.08 0 16.55 6.53 16.55 14.87 0 10.33-6.66 16.04-16.88 16.04h-6.81V18.16z" fill="#6f6d6d"/>
</svg>
