<svg version="1.1" viewBox="0 0 800 134.69" xmlns="http://www.w3.org/2000/svg">
 <path d="m66.501 133c36.731 0 66.501-29.759 66.501-66.479 0-36.72-29.77-66.523-66.501-66.523-36.731 0-66.501 29.781-66.501 66.523 0 36.742 29.759 66.479 66.501 66.479" fill="#e0001c" stroke-width=".85258"/>
 <path d="m69.749 88.336h-17.29l17.29-25.592zm26.767-0.05542h-9.022v-76.776c0-0.63176-0.39901-1.1305-0.98643-1.3189-0.57634-0.17734-1.197 0.03325-1.5406 0.55418l-62.433 92.348c-0.28817 0.41009-0.31034 0.95319-0.05542 1.4076 0.23275 0.45443 0.69826 0.7426 1.2081 0.7426h46.074v10.407c0 0.72043 0.63176 1.3633 1.3744 1.3633h14.985c0.75368 0 1.3854-0.64284 1.3854-1.3633v-10.407h9.022c0.78693 0 1.3744-0.6096 1.3744-1.3965v-14.176c0-0.76476-0.58743-1.3854-1.3744-1.3854" fill="#fff" stroke-width=".85258"/>
 <path d="m172.75 90.44 10.644-6.1277c2.9999 8.7698 7.3998 15.897 18.688 15.897 10.778 0 16.8-6.5052 16.8-13.898 0-5.5061-3.2666-10.146-13.044-12.766l-8.9109-2.3756c-12.155-3.2637-21.822-11.279-21.822-24.289 0-13.898 11.022-26.176 28.333-26.176 13.533 0 22.311 7.5043 25.955 17.029l-10.533 6.1277c-3.1332-7.6375-8.5331-11.145-15.288-11.145-9.3998 0-15.911 6.0167-15.911 13.41 0 6.3942 4.8888 11.012 11.4 12.655l9.2664 2.3756c14.533 3.7521 23.066 12.655 23.066 24.555 0 13.277-10.4 26.554-29.577 26.554-17.155-0.0222-25.799-10.79-29.066-21.825z" stroke-width=".85258"/>
 <path d="m242.7 50.632h7.6442l4.511 6.6384c5.0221-4.8844 10.911-8.0149 19.044-8.0149 15.422 0 29.088 11.523 29.088 31.438s-13.666 31.571-29.088 31.571c-8.5331 0-14.422-3.6411-19.422-9.1472v31.571h-11.777zm30.844 51.087c9.2664 0 17.422-7.0158 17.422-21.047 0-14.032-8.1554-20.914-17.422-20.914-10.911 0-19.044 9.3914-19.044 21.047-0.0222 11.767 8.3776 20.914 19.044 20.914z" stroke-width=".85258"/>
 <path d="m309.81 80.805c0-17.406 14.044-31.549 31.466-31.549 17.422 0 31.599 14.143 31.599 31.549 0 17.406-14.155 31.438-31.599 31.438-17.422 0-31.466-14.032-31.466-31.438zm31.599 20.914c10.778 0 19.422-8.6366 19.422-20.914 0-12.278-8.6442-21.047-19.422-21.047s-19.555 8.7698-19.555 21.047c0 12.278 8.7776 20.914 19.555 20.914z" stroke-width=".85258"/>
 <path d="m383.14 50.632h7.6443l4.511 6.6384c4.1332-5.8835 10.022-8.0149 16.8-8.0149 1.6222 0 3.511 0.13321 4.8888 0.37743v12.033c-1.3778-0.24422-3.1332-0.37743-4.8888-0.37743-11.4 0-17.177 5.2619-17.177 15.408v34.191h-11.777z" stroke-width=".85258"/>
 <path d="m430.59 91.084v-29.684h-9.022v-10.768h9.022v-17.295l11.778-6.7716v24.045h13.155v10.768h-13.155v30.173c0 5.6393 3.511 8.5256 8.5331 8.5256 0.99997 0 3.1333-0.13322 6.6443-0.75488v10.635c-3.3777 1.1323-5.8887 1.3765-7.7776 1.3765-12.289 0.0222-19.177-8.348-19.177-20.248z" stroke-width=".85258"/>
 <path d="m502.43 22.058h12.289v77.019h42.621v11.767h-54.91z" stroke-width=".85258"/>
 <path d="m571.25 19.816c4.7554 0 8.5331 3.7521 8.5331 8.5256 0 4.7734-3.7555 8.3924-8.5331 8.3924-4.7776 0-8.3998-3.6411-8.3998-8.3924 0-4.7512 3.6221-8.5256 8.3998-8.5256zm-5.911 30.816h11.778v60.234h-11.778z" stroke-width=".85258"/>
 <path d="m584.18 50.632h13.289l15.933 40.208 16.177-40.208h12.533l-25.955 60.234h-5.7554z" stroke-width=".85258"/>
 <path d="m642.34 81.049c0-17.784 14.044-31.815 31.088-31.815 16.933 0 28.466 13.787 28.466 29.062 0 2.2646-0.24444 4.2628-0.51109 5.7503h-46.999c1.3777 10.391 8.6442 17.651 19.8 17.651 5.1332 0 10.4-1.5097 17.8-7.1268l6.8887 7.8817c-8.6442 7.3933-17.177 9.7689-24.955 9.7689-18.666 0.0222-31.577-14.009-31.577-31.172zm47.132-6.5052c-1.1333-9.6357-8.7776-14.787-16.288-14.787-8.2665 0-15.555 6.261-18.177 14.787z" stroke-width=".85258"/>
 <path d="m744.13 104.85 30.71-37.566c5.0221-6.1277 10.644-12.389 10.644-20.293 0-6.1277-3.511-14.52-13.8-14.52-10.022 0-15.044 8.1481-15.044 16.03v2.1314h-12.533v-1.9982c0-13.033 7.8887-27.93 27.577-27.93 17.288 0 26.577 13.277 26.577 25.044 0 11.767-7.022 21.047-15.177 30.927l-18.688 22.424h35.599v11.767h-55.91v-6.0167z" stroke-width=".85258"/>
</svg>
