<svg version="1.1" viewBox="0 0 374.05 305.02" xmlns="http://www.w3.org/2000/svg">
 <g transform="translate(-68.975,-126.55)" fill="#009cef">
  <path d="m442.91 356.41h-54.981q0.154 9.738 6.175 16.847t15.593 7.11q7.565 0 12.35-3.4c3.294-2.37 6.372-5.915 9.253-10.655l11.728 6.622c-3.395 6.174-8.065 11-14.032 14.498q-8.796 5.247-19.444 5.247c-10.801 0-19.425-3.6-25.905-10.803-6.379-7.202-9.587-16.257-9.587-27.163q0-17.286 9.105-28.09 9.105-10.802 26.079-10.803 16.511 0 25.153 10.803 6.914 8.52 8.296 21.09c0.275 2.278 0.217 5.795 0.217 8.697m-54.19-10.494h40.43q-1.234-8.336-6.481-13.118-5.247-4.94-13.425-4.94-8.025 0-13.734 5.093-5.556 5.094-6.79 12.965"/>
  <path d="m340.56 256.25v133.96h-13.887v-133.96z"/>
  <path d="m283.77 317.98h15.585l-43.437 113.59h-15.74z"/>
  <path d="m191.6 330.95v59.265h-13.89v-59.265h-7.561v-12.964h7.561v-27.626h13.89v27.626h13.579v12.964z"/>
  <path d="m138.42 288.97-11.574 6.944q-6.48-10.957-18.672-10.957-7.407 0-13.425 4.63t-6.018 11.883q0 10.495 16.203 16.67l8.332 3.239q13.889 5.403 21.297 13.427 7.56 8.026 7.56 21.607 0 15.742-10.802 26.083-10.647 10.186-26.387 10.186-14.043 0-24.073-9.106-10.03-9.259-11.882-23.458l14.66-3.087q-0.155 9.414 6.327 15.742 6.635 6.328 16.203 6.328 9.258 0 15.277-6.637 6.172-6.79 6.172-16.05 0-8.489-5.401-13.274-5.246-4.938-14.66-8.797l-8.024-3.395q-11.882-5.093-18.672-11.73-6.635-6.636-6.635-17.748 0-13.582 10.184-21.762 10.185-8.333 24.073-8.333 20.06 0 29.937 17.594"/>
  <path d="m226.61 318.08 21.334 55.118 21.077-55.118z" opacity=".595"/>
  <path d="m250.19 144.77c0-11.161-16.625-7.488-16.625-7.488l0.66-3.017h14.08v-7.718h-21.05l-3.109 17.282c0.66-0.142 17.095-3.58 17.095 0.894 0 7.206-17.567 1.93-17.567 1.93l-1.224 6.971s4.805 2.354 11.163 2.354c10.218 0 16.576-4.285 16.576-11.208"/>
  <path d="m160.86 156.03h-10.032v-21.757h-8.383v-7.724h26.797v7.724h-8.382z"/>
  <path d="m201.06 126.55-4.992 18.556-5.039-18.556h-9.183l8.524 29.481h11.35l8.524-29.481z"/>
  <path d="m190.32 200.2h-7.703v-29.58h8.979l4.489 8.552 4.49-8.553h8.93v29.581h-7.655v-15.451l-3.308 5.576h-4.962l-3.26-5.576z"/>
  <path d="m270.67 183.8v16.35h-7.703v-29.581h8.979l10.253 16.302v-16.302h7.655v29.581h-8.884z"/>
  <path d="m352.34 192.69h17.101v7.466h-25.365v-29.581h25.365v7.666h-17.1v3.78h13.94v6.841h-13.94z"/>
  <path d="m241.3 185.42c0-1.084-0.094-2.12-0.282-3.062a8 8 0 0 0-0.895-2.402c-0.424-0.66-0.941-1.177-1.6-1.554s-1.272-0.565-2.168-0.565c-0.895 0-1.836 0.188-2.449 0.565s-1.082 0.894-1.46 1.554c-0.376 0.66-0.66 1.46-0.8 2.402s-0.236 1.93-0.236 3.062v0.14c0 1.084 0.095 2.12 0.236 3.015 0.14 0.941 0.424 1.742 0.8 2.402 0.378 0.66 0.848 1.224 1.46 1.6 0.613 0.378 1.508 0.565 2.45 0.565s1.507-0.187 2.166-0.565a3.9 3.9 0 0 0 1.554-1.6c0.424-0.66 0.706-1.46 0.895-2.402a15.5 15.5 0 0 0 0.282-3.062v-0.14zm8.478 2.26c0 1.884-0.33 3.673-0.943 5.275a11.7 11.7 0 0 1-2.683 4.144c-1.179 1.177-2.59 2.072-4.287 2.685-1.695 0.659-3.39 0.988-5.51 0.988s-4.19-0.329-5.793-0.988c-1.648-0.66-3.014-1.555-4.144-2.732a11.3 11.3 0 0 1-2.543-4.144 15.7 15.7 0 0 1-0.895-5.275v-4.333c0-1.884 0.283-3.673 0.895-5.275 0.565-1.6 1.46-2.967 2.543-4.144 1.13-1.177 2.496-2.073 4.144-2.732 1.65-0.66 3.72-0.988 5.84-0.988s3.815 0.329 5.51 0.988c1.697 0.66 3.108 1.555 4.286 2.732a11.65 11.65 0 0 1 2.684 4.144c0.613 1.602 0.943 3.344 0.943 5.275v4.333z"/>
  <path d="m312.06 178.28v14.27c1.558 0 4.347 0.237 5.765-0.472 2.6-1.086 3.544-3.78 3.544-6.521 0.094-2.788-0.945-5.624-3.591-6.71-1.371-0.71-4.112-0.472-5.671-0.52m-9.026 21.879v-29.582h13.563c3.873 0 7.418 1.229 10.018 3.828 2.551 2.552 3.78 6.048 3.78 9.781v2.457c0 3.735-1.228 7.184-3.733 9.783a12.55 12.55 0 0 1-4.254 2.789c-1.654 0.661-4.49 0.991-6.473 0.991h-12.901z"/>
 </g>
</svg>
