<svg version="1.1" viewBox="0 0 800 799.93" xmlns="http://www.w3.org/2000/svg">
 <g transform="matrix(2.1038 0 0 2.1038 -19.551 -20.392)" fill-rule="evenodd">
  <path d="m188.1 9.876c0.385 0.1 1.015 0.1 1.4 0 0.385-0.101 0.07-0.183-0.7-0.183s-1.085 0.082-0.7 0.183m2.355 29.771c-92.793 5.312-162.05 88.454-150.24 180.35 13.074 101.7 117.37 165.42 213.69 130.56 91.516-33.127 132.78-140.49 86.903-226.12-26.813-50.045-76.472-81.528-133.81-84.832-7.508-0.432-8.265-0.43-16.545 0.044m140.71 23.086c0.216 0.403 0.707 0.988 1.091 1.3 0.432 0.351 0.335 0.071-0.254-0.733-1.05-1.435-1.444-1.702-0.837-0.567m-63.164 43.267v25.2h-39.376c-22.391 0-39.471 0.153-39.595 0.354-0.258 0.416-3.829 23.545-3.829 24.794 0 1.034-1.001 1.033 11.503 8e-3 11.487-0.942 19.223-0.862 25.697 0.267 62.435 10.883 84.339 97.777 35.452 140.64-31 27.18-96.949 28.706-139.76 3.234-4.625-2.752-4.303-1.795-3.088-9.187 0.958-5.827 3.141-19.768 6.188-39.509 0.679-4.4 1.325-8.415 1.436-8.923 0.191-0.871 0.376-0.779 3.288 1.632 22.799 18.878 52.188 27.913 71.687 22.038 31.629-9.53 34.114-49.676 4-64.604-18.05-8.947-50.727-7.979-70.458 2.087-2.329 1.188-2.575 4.094 2.065-24.43 1.824-11.209 4.607-28.454 7.586-47 1.131-7.04 2.938-18.2 4.015-24.8s2.417-14.97 2.978-18.6 1.112-7.005 1.225-7.5l0.204-0.9h118.78v25.2m-258.71 82c0 0.77 0.082 1.085 0.183 0.7 0.1-0.385 0.1-1.015 0-1.4-0.101-0.385-0.183-0.07-0.183 0.7m380 1.2c0 0.77 0.082 1.085 0.183 0.7 0.1-0.385 0.1-1.015 0-1.4-0.101-0.385-0.183-0.07-0.183 0.7m0 21.2c0 0.77 0.082 1.085 0.183 0.7 0.1-0.385 0.1-1.015 0-1.4-0.101-0.385-0.183-0.07-0.183 0.7m-380 1.2c0 0.77 0.082 1.085 0.183 0.7 0.1-0.385 0.1-1.015 0-1.4-0.101-0.385-0.183-0.07-0.183 0.7" fill="#fbfbfb" Googl="true"/>
  <path d="m182.4 10.233c-5.389 0.511-10.236 1.001-11.2 1.132-4.082 0.554-5.2 0.77-5.2 1.009 0 0.155-1.485 0.518-3.3 0.807-3.998 0.636-3.874 0.612-7.1 1.369-1.43 0.335-3.05 0.69-3.6 0.789-3.334 0.599-3.971 0.785-3.773 1.105 0.121 0.196-0.062 0.356-0.407 0.356s-3.424 0.81-6.842 1.8-6.307 1.8-6.42 1.8-0.122 0.135-0.02 0.3-0.923 0.634-2.277 1.043c-1.353 0.408-3.181 1.061-4.061 1.45s-2.197 0.837-2.927 0.995-1.424 0.54-1.543 0.85c-0.118 0.309-0.399 0.562-0.623 0.562s-1.419 0.432-2.657 0.959c-1.237 0.528-2.85 1.186-3.584 1.463s-1.544 0.713-1.8 0.969-2.266 1.333-4.466 2.393-4.114 2.104-4.254 2.321-1.593 1.054-3.228 1.862c-1.636 0.807-3.369 1.836-3.853 2.286-0.483 0.451-1.37 1.072-1.972 1.381-2.34 1.202-4.46 2.665-4.216 2.91 0.141 0.141 0.023 0.256-0.263 0.256-0.285 0-1.395 0.63-2.467 1.4s-2.088 1.4-2.259 1.4-0.621 0.362-1 0.805-1.634 1.426-2.789 2.184c-1.154 0.758-2.624 1.925-3.266 2.594-0.641 0.67-1.338 1.217-1.547 1.217s-0.995 0.54-1.747 1.2-1.24 1.2-1.084 1.2c0.155 0-0.525 0.534-1.511 1.188-0.986 0.653-2.342 1.778-3.012 2.5-0.671 0.721-2.042 2.06-3.046 2.975-1.005 0.914-1.72 1.769-1.59 1.9 0.131 0.13 5e-3 0.237-0.28 0.237-0.475 0-5.157 4.611-9.016 8.879-4.137 4.576-6.4 7.231-6.4 7.51 0 0.168-0.765 1.07-1.7 2.005s-1.7 1.906-1.7 2.157c0 0.252-0.627 1.176-1.393 2.053-0.766 0.878-2.161 2.757-3.1 4.176s-2.097 3.004-2.573 3.522c-0.477 0.518-1.244 1.744-1.704 2.724-0.461 0.98-1.17 2.114-1.575 2.519-0.406 0.406-1.011 1.259-1.345 1.897-0.334 0.637-1.142 2.192-1.795 3.455-0.654 1.263-1.27 2.215-1.369 2.116-0.187-0.187-0.515 0.42-2.802 5.187-0.739 1.54-1.492 2.909-1.673 3.042s-1.186 2.339-2.232 4.902-1.988 4.573-2.094 4.467c-0.107-0.106-0.792 1.558-1.523 3.698s-1.485 4.062-1.675 4.271c-0.191 0.209-0.347 0.689-0.347 1.067 0 0.377-0.161 0.746-0.357 0.82-0.262 0.098-2.514 6.563-3.042 8.733-0.027 0.11-0.29 1.229-0.585 2.486-0.296 1.258-0.668 2.205-0.828 2.107-0.16-0.099-0.399 0.312-0.531 0.913-0.133 0.602-0.524 2.354-0.87 3.894-0.765 3.403-1.144 5.22-1.628 7.8-0.062 0.33-0.243 1.23-0.403 2-0.159 0.77-0.248 1.643-0.196 1.94 0.051 0.297-0.082 0.432-0.296 0.3-0.222-0.137-0.511 0.661-0.673 1.86-0.157 1.155-0.334 2.37-0.393 2.7-2.491 13.726-2.714 46.875-0.403 59.898 0.068 0.386 0.355 2.267 0.638 4.18s0.661 3.388 0.84 3.277c0.18-0.111 0.349 0.348 0.377 1.021 0.027 0.673 0.083 1.359 0.123 1.524 0.302 1.251 0.645 2.89 0.816 3.9 0.543 3.215 2.253 9.956 2.586 10.2 0.151 0.11 0.603 1.46 1.006 3 1.041 3.985 3.087 10.364 3.4 10.6 0.343 0.259 1.182 2.35 1.398 3.485 0.093 0.487 0.436 1.477 0.762 2.2s0.822 1.985 1.103 2.805c0.28 0.819 0.596 1.403 0.702 1.298 0.105-0.106 1.047 1.905 2.093 4.468s2.064 4.769 2.261 4.902c0.198 0.133 1.239 2.079 2.314 4.325 1.074 2.245 2.035 4.002 2.133 3.903 0.099-0.099 0.714 0.854 1.368 2.117 0.653 1.263 1.461 2.818 1.795 3.455 0.334 0.638 0.939 1.491 1.345 1.897 0.405 0.405 1.098 1.505 1.539 2.443s1.217 2.155 1.725 2.704c0.507 0.549 1.047 1.268 1.199 1.598 0.438 0.947 2.977 4.446 4.496 6.196 0.763 0.877 1.386 1.808 1.386 2.068s0.807 1.251 1.793 2.204c0.987 0.953 1.797 1.918 1.8 2.145 4e-3 0.226 0.862 1.337 1.907 2.468s2.89 3.17 4.1 4.531c3.414 3.841 4.744 5.213 5.086 5.241 0.173 0.015 0.278 0.163 0.233 0.329-0.044 0.167 1.642 1.904 3.747 3.86 2.105 1.957 4.842 4.5 6.081 5.652s2.457 2.097 2.707 2.1 0.741 0.444 1.092 0.979c0.35 0.535 1.631 1.633 2.846 2.439 1.214 0.806 2.208 1.623 2.208 1.815 0 0.191 0.945 0.958 2.1 1.702 1.155 0.745 2.443 1.74 2.862 2.213 0.419 0.472 0.947 0.858 1.174 0.858s0.784 0.341 1.238 0.758 1.461 1.093 2.238 1.502c0.777 0.41 1.857 1.161 2.4 1.669s1.888 1.372 2.988 1.919 2.189 1.24 2.42 1.541c0.231 0.3 2.02 1.369 3.974 2.374 1.955 1.006 3.656 1.981 3.78 2.167s1.846 1.121 3.826 2.078 3.833 1.972 4.118 2.255c0.285 0.284 1.185 0.696 2 0.917 0.815 0.22 1.847 0.657 2.294 0.971 0.446 0.314 1.563 0.773 2.482 1.02 0.918 0.248 1.926 0.706 2.239 1.019 0.532 0.532 3.634 1.791 6.547 2.656 0.704 0.209 1.771 0.635 2.371 0.947 0.6 0.311 1.24 0.475 1.42 0.363 0.181-0.112 0.329-0.02 0.329 0.203 0 0.224 1.845 0.956 4.1 1.626 2.255 0.671 4.64 1.391 5.3 1.601 0.66 0.209 1.825 0.487 2.59 0.618 0.764 0.132 1.488 0.398 1.608 0.593 0.186 0.3 1.672 0.686 7.002 1.814 0.44 0.093 1.61 0.343 2.6 0.555s2.52 0.516 3.4 0.675 1.78 0.322 2 0.363 0.906 0.102 1.524 0.135c0.618 0.034 1.027 0.216 0.911 0.405-0.117 0.189 0.817 0.463 2.076 0.607 1.259 0.145 2.919 0.357 3.689 0.473 14.662 2.2 35.635 2.262 53.735 0.159 3.704-0.431 6.909-0.783 7.123-0.783s0.278-0.18 0.142-0.4 0.122-0.4 0.574-0.4c0.451 0 3.207-0.467 6.123-1.038 2.917-0.571 5.663-1.108 6.103-1.193 2.29-0.442 4.856-1.161 5.287-1.482 0.268-0.2 2.068-0.785 4-1.301 6.64-1.771 9.018-2.508 9.265-2.872 0.136-0.2 1.778-0.854 3.648-1.453s4.66-1.703 6.2-2.453c4.111-2.004 9.231-4.208 9.774-4.208 0.26 0 0.375-0.159 0.255-0.354-0.173-0.279 1.57-1.28 2.571-1.476 0.8-0.157 5.058-2.395 5.29-2.781 0.159-0.265 1.219-0.882 2.356-1.37 1.136-0.489 3.63-1.953 5.542-3.254s3.674-2.365 3.916-2.365c0.241 0 1.107-0.63 1.923-1.4 0.817-0.77 1.632-1.4 1.811-1.4 0.392 0 3.084-1.798 3.948-2.637 0.338-0.328 1.604-1.312 2.814-2.188 1.21-0.875 2.985-2.262 3.945-3.083s1.895-1.45 2.078-1.4c0.182 0.051 0.845-0.53 1.472-1.292 0.628-0.761 1.969-1.972 2.981-2.692 1.012-0.719 1.9-1.488 1.973-1.708s0.976-1.067 2.008-1.883c1.032-0.815 2.363-2.12 2.957-2.9 0.595-0.779 1.285-1.42 1.533-1.424 0.498-8e-3 2.453-1.933 2.453-2.415 0-0.166 0.844-1.044 1.875-1.951 1.031-0.908 2.261-2.276 2.734-3.041 0.472-0.765 0.979-1.318 1.125-1.229s0.894-0.675 1.661-1.698c0.767-1.022 1.982-2.377 2.7-3.01s1.305-1.368 1.305-1.633c0-0.266 0.683-1.223 1.519-2.128 0.835-0.905 2.23-2.679 3.1-3.943 0.869-1.264 1.857-2.578 2.195-2.921 0.593-0.604 1.746-2.315 3.519-5.224 0.47-0.77 0.86-1.22 0.868-1 0.012 0.36 0.666-0.713 3.034-4.976 0.421-0.758 1.086-1.743 1.479-2.19 0.392-0.448 1.235-1.919 1.873-3.269s1.397-2.705 1.686-3.011c0.543-0.573 2.095-3.665 3.34-6.654 0.39-0.935 0.827-1.7 0.971-1.7s0.558-0.675 0.919-1.5c1.699-3.875 3.169-7.545 3.198-7.982 0.018-0.266 0.182-0.39 0.366-0.277 0.183 0.114 0.336 0.151 0.339 0.083 0.021-0.487 3.557-10.438 3.597-10.124 0.027 0.22 0.499-1.04 1.048-2.8 1.137-3.644 1.019-3.211 2.205-8.077 0.493-2.022 1.042-3.586 1.22-3.476s0.324 0.047 0.324-0.141 0.554-3.033 1.232-6.324c0.677-3.29 1.283-6.342 1.346-6.782s0.249-1.833 0.414-3.095c0.164-1.263 0.459-2.197 0.654-2.077 0.194 0.121 0.368-0.376 0.385-1.104 0.016-0.728 0.097-1.684 0.18-2.124 0.264-1.414 0.563-3.926 0.816-6.855 0.135-1.571 0.309-3.461 0.385-4.2 0.78-7.586 0.551-29.137-0.401-37.699-0.75-6.749-1.145-9.446-1.382-9.446-0.219 0-0.957-3.884-1.823-9.6-0.348-2.297-2.045-9.1-2.239-8.979-0.147 0.09-0.405-0.597-0.573-1.528s-0.371-1.918-0.45-2.193-0.203-0.725-0.275-1c-0.143-0.549-0.772-2.72-1.936-6.684-0.418-1.422-0.899-2.682-1.07-2.8-0.171-0.119-0.716-1.476-1.211-3.016-1.716-5.34-2.547-7.388-2.909-7.165-0.199 0.123-0.313 0.072-0.253-0.113 0.107-0.328-0.337-1.503-2.312-6.122-0.517-1.21-1.052-2.608-1.188-3.106s-0.394-0.815-0.572-0.705c-0.269 0.166-1.398-1.904-1.413-2.592-0.01-0.41-2.421-4.991-2.901-5.51-0.273-0.295-1.139-1.83-1.925-3.412-0.786-1.581-1.688-3.075-2.004-3.319s-0.575-0.539-0.575-0.656c0-0.388-3.163-5.63-3.54-5.867-0.205-0.128-1.043-1.379-1.862-2.779-0.82-1.401-1.785-2.843-2.144-3.204-0.843-0.848-3.654-4.686-3.654-4.988 0-0.127-0.81-1.065-1.8-2.083-0.99-1.019-1.8-2.057-1.8-2.307s-0.675-1.112-1.5-1.915-2.085-2.222-2.8-3.152-1.3-1.566-1.3-1.412c0 0.153-0.707-0.616-1.572-1.71s-2.121-2.38-2.793-2.858c-0.671-0.478-1.185-0.994-1.142-1.147s-0.59-0.935-1.407-1.738-1.486-1.371-1.486-1.263-1.499-1.35-3.332-3.242c-1.833-1.891-4.218-4.068-5.3-4.838-1.082-0.769-1.878-1.472-1.768-1.562 0.238-0.193-2.034-2.035-2.51-2.035-0.182 0-1.117-0.765-2.077-1.7-0.961-0.935-1.879-1.7-2.039-1.7s-1.06-0.63-2-1.4-1.794-1.4-1.899-1.4-0.724-0.499-1.377-1.108c-0.653-0.61-2.017-1.536-3.031-2.057-1.014-0.522-1.764-1.078-1.667-1.235 0.097-0.158-0.493-0.627-1.311-1.043-0.819-0.416-2.877-1.682-4.574-2.812-1.696-1.131-4.164-2.554-5.484-3.163-1.32-0.61-2.32-1.239-2.221-1.398 0.099-0.16-0.763-0.692-1.915-1.182-4.338-1.847-6.505-2.95-6.815-3.468-0.176-0.293-0.631-0.534-1.011-0.534s-1.046-0.244-1.48-0.542-1.867-0.942-3.184-1.43-2.487-1.022-2.6-1.185c-0.27-0.392-2.943-1.469-7.514-3.028-2.04-0.695-3.616-1.356-3.503-1.469 0.217-0.218-4.476-1.661-10.276-3.159-1.919-0.496-3.412-1.025-3.319-1.176 0.143-0.231-12.06-2.923-15.462-3.411-0.587-0.085-1.397-0.333-1.8-0.552-0.731-0.398-8.248-1.442-13.531-1.88-1.54-0.128-4.15-0.375-5.8-0.55-4.479-0.474-25.874-0.329-31.6 0.215m24.6 29.37c32.073 1.848 60.194 11.681 85.788 29.996 71.864 51.424 88.411 152.42 36.665 223.8-65.648 90.553-201.39 88.285-263.32-4.4-68.867-103.07 0.534-242.27 124.32-249.35 8.28-0.474 9.037-0.476 16.545-0.044m-57.989 42.097c-0.113 0.495-0.664 3.87-1.225 7.5s-1.901 12-2.978 18.6-2.884 17.76-4.015 24.8c-2.979 18.546-5.762 35.791-7.586 47-4.64 28.524-4.394 25.618-2.065 24.43 16.564-8.451 46.296-10.8 63.531-5.019 23.616 7.92 34.436 29.945 24.557 49.989-13.439 27.27-57.521 25.149-93.317-4.491-2.912-2.411-3.097-2.503-3.288-1.632-0.111 0.508-0.757 4.523-1.436 8.923-3.047 19.741-5.23 33.682-6.188 39.509-1.215 7.392-1.537 6.435 3.088 9.187 42.814 25.472 108.76 23.946 139.76-3.234 48.887-42.862 26.983-129.76-35.452-140.64-6.474-1.129-14.21-1.209-25.697-0.267-12.504 1.025-11.503 1.026-11.503-8e-3 0-1.249 3.571-24.378 3.829-24.794 0.124-0.201 17.204-0.354 39.595-0.354h39.376v-50.4h-118.78l-0.204 0.9" fill="#ec4333"/>
 </g>
</svg>
