<svg width="600" height="600" viewBox="0 0 158.75 158.75" xmlns="http://www.w3.org/2000/svg">
    <path d="M158.627 75c2.418 43.773-31.097 81.214-74.871 83.632C39.994 161.062 2.54 127.535.123 83.773-2.295 40 31.22 2.559 74.993.129 118.757-2.289 156.21 31.226 158.628 75" fill="#fff"/>
    <path d="M57.066 80.65c-5.204 7.921-2.994 18.605 4.927 23.821 7.933 5.204 18.617 2.982 23.821-4.94 5.204-7.92 2.994-18.604-4.927-23.808-7.933-5.216-18.617-2.994-23.821 4.927" fill="#2e8b80"/>
    <path d="M158.627 75c-1.773-32.133-22.44-58.718-50.613-69.632L85.816 39.171a52.866 52.866 0 0 1 14.668 6.69c24.397 16.025 31.2 48.896 15.186 73.281-10.155 15.451-27.08 23.855-44.315 23.855a52.6 52.6 0 0 1-28.968-8.68C18.002 118.3 11.197 85.43 27.212 61.046c.023-.047.057-.093.092-.139L65.77 1.2C26.613 7.958-2.124 43.131.12 83.773c2.419 43.762 39.872 77.288 83.634 74.859 43.774-2.418 77.289-39.859 74.87-83.632" fill="#2e8b80"/>
</svg>
