<svg width="600" height="600" version="1.1" viewBox="0 0 158.75 158.75" xmlns="http://www.w3.org/2000/svg">
 <g transform="translate(-.0032827 -285.99)">
  <path d="m158.63 360.99c2.4178 43.773-31.097 81.214-74.871 83.632-43.762 2.4293-81.215-31.097-83.633-74.859-2.4178-43.773 31.097-81.214 74.871-83.644 43.762-2.4178 81.215 31.097 83.633 74.871" fill="#fff"/>
  <path d="m57.069 366.64c-5.204 7.9211-2.9935 18.605 4.9277 23.821 7.9327 5.204 18.617 2.9819 23.821-4.9392 5.204-7.9211 2.9935-18.605-4.9277-23.809-7.9327-5.2155-18.617-2.9934-23.821 4.9277" fill="#2e8b80"/>
  <path d="m158.63 360.99c-1.773-32.133-22.439-58.718-50.613-69.632l-22.198 33.803c5.0774 1.4276 10.028 3.6497 14.668 6.6892 24.397 16.026 31.201 48.897 15.186 73.282-10.155 15.451-27.079 23.855-44.315 23.855-9.959 0-20.033-2.8092-28.968-8.681-24.385-16.015-31.19-48.885-15.175-73.27 0.02303-0.0461 0.05757-0.0921 0.09211-0.13816l38.466-59.708c-39.157 6.7583-67.894 41.931-65.649 82.573 2.4178 43.762 39.871 77.288 83.633 74.859 43.774-2.4178 77.289-39.859 74.871-83.632" fill="#2e8b80"/>
 </g>
</svg>
