<?xml version="1.0" encoding="UTF-8" standalone="no"?>
<!-- Created with Inkscape (http://www.inkscape.org/) -->

<svg
   xmlns:dc="http://purl.org/dc/elements/1.1/"
   xmlns:cc="http://creativecommons.org/ns#"
   xmlns:rdf="http://www.w3.org/1999/02/22-rdf-syntax-ns#"
   xmlns:svg="http://www.w3.org/2000/svg"
   xmlns="http://www.w3.org/2000/svg"
   xmlns:sodipodi="http://sodipodi.sourceforge.net/DTD/sodipodi-0.dtd"
   xmlns:inkscape="http://www.inkscape.org/namespaces/inkscape"
   width="52.916679mm"
   height="14.725121mm"
   viewBox="0 0 52.916679 14.72512"
   version="1.1"
   id="svg22891"
   sodipodi:docname="tvcine1.light.svg"
   inkscape:version="0.92.3pre0 (0ab9bec, 2018-03-03)">
  <defs
     id="defs22885" />
  <sodipodi:namedview
     id="base"
     pagecolor="#ffffff"
     bordercolor="#666666"
     borderopacity="1.0"
     inkscape:pageopacity="0.0"
     inkscape:pageshadow="2"
     inkscape:zoom="0.84944294"
     inkscape:cx="-335.38414"
     inkscape:cy="115.33873"
     inkscape:document-units="mm"
     inkscape:current-layer="layer1"
     showgrid="false"
     inkscape:window-width="1920"
     inkscape:window-height="983"
     inkscape:window-x="0"
     inkscape:window-y="27"
     inkscape:window-maximized="1"
     fit-margin-top="0"
     fit-margin-left="0"
     fit-margin-right="0"
     fit-margin-bottom="0"
     units="mm" />
  <metadata
     id="metadata22888">
    <rdf:RDF>
      <cc:Work
         rdf:about="">
        <dc:format>image/svg+xml</dc:format>
        <dc:type
           rdf:resource="http://purl.org/dc/dcmitype/StillImage" />
        <dc:title></dc:title>
      </cc:Work>
    </rdf:RDF>
  </metadata>
  <g
     inkscape:label="Layer 1"
     inkscape:groupmode="layer"
     id="layer1"
     transform="translate(-92.722379,-189.981)">
    <g
       id="g20928"
       transform="matrix(0.35277777,0,0,-0.35277777,60.15616,204.7577)" />
    <path
       d="m 142.2366,199.75002 v -5.10332 c 0.004,-0.39912 -0.0891,-0.75174 -0.38361,-1.05786 -0.31,-0.28287 -0.67425,-0.42625 -1.09274,-0.42625 h -1.37562 c -0.45724,0 -0.83311,-0.37974 -0.82924,-0.83311 l 0.0155,-1.51511 c 0.004,-0.45337 0.38363,-0.83312 0.837,-0.83312 h 1.81348 c 1.21674,0 2.26685,0.44562 3.13097,1.31361 0.86412,0.87187 1.29811,1.92586 1.28649,3.14259 v 5.31257 4.13071 c 0,0.45724 -0.4185,0.82924 -0.87574,0.82536 l -1.69336,-0.0116 c -0.45337,-0.004 -0.83312,-0.37975 -0.83312,-0.83699 z M 93.59812,189.989 h 6.45568 c 0.4805,0 0.87574,0.39912 0.87574,0.87574 v 1.59261 c 0,0.47662 -0.39524,0.87961 -0.87574,0.87961 h -6.45568 c -0.47662,0 -0.875741,-0.40299 -0.875741,-0.87961 v -1.59261 c 0,-0.47662 0.399121,-0.87574 0.875741,-0.87574 m 11.22576,4.9057 v 8.93953 c 0,0.47662 -0.39912,0.87186 -0.87574,0.87186 h -2.14286 c -0.47662,0 -0.87574,-0.39524 -0.87574,-0.87186 v -9.1604 c 0,-1.27874 0.465,-2.38698 1.38336,-3.30147 0.91449,-0.91449 2.02273,-1.38336 3.30147,-1.38336 h 5.21569 l 2.12735,-0.008 c 0.45337,0 0.82925,0.37975 0.82925,0.82924 v 9.26503 c 0,0.39912 0.14337,0.75562 0.44949,1.06561 0.30612,0.27125 0.66649,0.40687 1.07337,0.40687 h 0.53086 c 0.4185,0 0.78275,-0.1395 1.09274,-0.42624 0.40687,-0.42625 4.62283,-6.11081 6.87418,-9.07903 0.17437,-0.28287 0.3875,-0.54637 0.63937,-0.79824 0.83699,-0.83699 1.84835,-1.26324 3.01472,-1.26324 h 8.84265 c 0.43787,0 0.80212,0.36425 0.80212,0.80599 v 1.45311 c 0,0.434 -0.36425,0.79824 -0.80212,0.79824 h -8.09091 c -0.403,0 -0.75174,0.13563 -1.05399,0.40687 -0.28287,0.2945 -0.4185,0.6355 -0.4185,1.01524 v 5.76982 c 0,0.38362 0.13563,0.72461 0.4185,1.01524 0.30225,0.27124 0.65099,0.41074 1.05399,0.41074 h 8.09091 c 0.43787,0 0.80212,0.36425 0.80212,0.79824 v 1.45311 c 0,0.43787 -0.36425,0.79824 -0.80212,0.79824 h -8.84265 c -1.16637,0 -2.17773,-0.42237 -3.01472,-1.25936 -0.83699,-0.83699 -1.26324,-1.84448 -1.26324,-3.01472 v -1.62748 c -1.83285,2.33273 -3.40221,4.33996 -3.66184,4.59958 -0.86411,0.86411 -1.91422,1.30198 -3.12321,1.30198 h -1.86386 c -1.20898,0 -2.2591,-0.43787 -3.12321,-1.30198 -0.86799,-0.86412 -1.30586,-1.91423 -1.30586,-3.12322 v -6.94393 h -3.66959 c -0.44175,0 -0.82537,0.14725 -1.15474,0.44563 -0.31,0.32162 -0.45724,0.69749 -0.45724,1.11211"
       style="fill:#ffffff;fill-opacity:1;fill-rule:nonzero;stroke:none;stroke-width:3.87495875"
       id="path20930"
       inkscape:connector-curvature="0" />
  </g>
</svg>
