<svg xmlns="http://www.w3.org/2000/svg" width="200.001" height="49.871" viewBox="0 0 52.917 13.195">
    <path d="M45.393 7.412l4.675-.037V3.36a.76.76 0 0 1 .748-.751l1.357-.014a.747.747 0 0 1 .745.741v9.098a.757.757 0 0 1-.745.751l-1.357.01a.745.745 0 0 1-.748-.741v-2.071l-4.862.037c-1.088.01-2.033-.381-2.815-1.153-.782-.775-1.176-1.717-1.176-2.805V.764c0-.408.34-.751.748-.755l1.357-.01a.746.746 0 0 1 .745.741v5.307c0 .374.126.704.381.983.275.258.592.384.949.381M.791.006h5.783c.428 0 .785.357.785.785v1.428a.79.79 0 0 1-.785.782H.791a.793.793 0 0 1-.789-.782V.791c0-.428.36-.785.789-.785m10.057 4.393v8.014a.792.792 0 0 1-.785.782H8.145a.792.792 0 0 1-.785-.782V4.206c0-1.146.415-2.139 1.238-2.958C9.417.422 10.41.007 11.559.007h4.668L18.134 0a.75.75 0 0 1 .741.741V9.04c0 .364.133.68.405.959.275.241.598.364.966.364h.473c.377 0 .7-.126.979-.377.364-.384 4.141-5.477 6.157-8.139.16-.252.35-.49.575-.717.751-.748 1.659-1.129 2.706-1.129h7.922c.388 0 .714.326.714.717V2.02a.723.723 0 0 1-.714.717h-7.252c-.36 0-.677.122-.945.367a1.259 1.259 0 0 0-.374.908v5.171c0 .343.119.646.374.908.269.245.585.367.945.367h7.252c.388 0 .714.326.714.717v1.302a.723.723 0 0 1-.714.717h-7.922c-1.047 0-1.955-.377-2.706-1.129-.748-.751-1.129-1.656-1.129-2.703V7.903c-1.642 2.091-3.05 3.89-3.284 4.121-.775.779-1.714 1.17-2.798 1.17H19.55c-1.085 0-2.023-.391-2.798-1.17-.775-.775-1.17-1.71-1.17-2.798V3.001h-3.288c-.394 0-.741.136-1.037.401a1.412 1.412 0 0 0-.408.996" fill="#211d1d"/>
</svg>
