<svg version="1.1" viewBox="0 0 444.4 69.1" xml:space="preserve" xmlns="http://www.w3.org/2000/svg">
<path class="st0" d="m225.7 1.8c-0.1-0.7 0.4-1.3 1.1-1.4h15.2c0.7 0 1.3 0.5 1.4 1.2v4.4c0 0.7-0.5 1.3-1.2 1.4h-7.5c-0.7 0-1.3 0.5-1.4 1.2v20.9c0 0.7 0.5 1.3 1.2 1.4h7.5c0.7 0 1.3 0.5 1.4 1.2v4.4c0 0.7-0.5 1.3-1.2 1.4h-7.5c-0.7 0-1.3 0.5-1.4 1.2v21.5c0 0.7 0.5 1.3 1.2 1.4h7.5c0.7 0 1.3 0.5 1.4 1.2v4.3c0 0.7-0.5 1.3-1.2 1.4h-15.2c-0.7 0-1.3-0.5-1.4-1.2v-65.9z" fill="#1f95d2"/>
<path class="st0" d="m254.7 67.3v-65.5c-0.1-0.7 0.4-1.3 1.1-1.4h5.4c0.8 0 1.3 0.5 1.5 1.4l9.1 32.6c0 0.3 0.3 0.5 0.6 0.5 0.2 0 0.4-0.2 0.5-0.5l9.1-32.6c0.2-0.8 0.6-1.4 1.5-1.4h5.1c0.7 0 1.3 0.5 1.4 1.2v65.7c0 0.7-0.5 1.3-1.2 1.4h-5c-0.7 0-1.3-0.5-1.4-1.2v-38.1c0-0.3-0.2-0.5-0.5-0.5-0.2 0-0.4 0.2-0.4 0.4l-5.1 19.6c-0.1 0.8-0.7 1.3-1.5 1.4h-4.9c-0.8 0-1.4-0.6-1.5-1.4l-5.1-19.6c0-0.3-0.3-0.4-0.5-0.4s-0.4 0.3-0.4 0.5v37.9c0 0.7-0.5 1.3-1.2 1.4h-5c-0.7 0-1.3-0.5-1.4-1.2-0.2-0.1-0.2-0.1-0.2-0.2z" fill="#1f95d2"/>
<path class="st0" d="m301.3 14.1c0-8.6 4.3-14.1 11.9-14.1s11.8 5.5 11.8 14.1v40.9c0 8.6-4.3 14.1-11.8 14.1s-11.9-5.6-11.9-14.1zm11.9 47.8c3.4 0 4.2-2.7 4.2-8.7v-37.2c0-6-0.8-8.7-4.2-8.7s-4.3 2.7-4.3 8.7v37.1c0 6 0.9 8.8 4.3 8.8z" fill="#1f95d2"/>
<path class="st0" d="m333.4 1.8c0-0.7 0.5-1.3 1.2-1.4h18c0.7-0.1 1.3 0.4 1.4 1.1v4.9c0 0.7-0.5 1.3-1.2 1.4h-4c-0.7 0-1.3 0.5-1.4 1.2v58.4c0.1 0.7-0.4 1.3-1.1 1.4h-5.2c-0.7 0-1.3-0.5-1.4-1.2v-58.5c0-0.7-0.5-1.3-1.2-1.4h-3.8c-0.7 0.1-1.3-0.4-1.4-1.1v-4.8z" fill="#1f95d2"/>
<path class="st0" d="m363.3 67.3v-65.5c-0.1-0.7 0.4-1.3 1.1-1.4h5.2c0.7 0 1.3 0.5 1.4 1.2v65.7c0.1 0.7-0.4 1.3-1.1 1.4h-5.1c-0.7 0-1.3-0.5-1.4-1.2-0.1-0.1-0.1-0.1-0.1-0.2z" fill="#1f95d2"/>
<path class="st0" d="m382.4 14.1c0-8.6 4.3-14.1 11.9-14.1s11.8 5.6 11.8 14.1v40.9c0 8.6-4.3 14.1-11.8 14.1s-11.9-5.6-11.9-14.1zm11.9 47.8c3.4 0 4.2-2.7 4.2-8.7v-37.2c0-6-0.8-8.7-4.2-8.7s-4.3 2.7-4.3 8.7v37.1c0 6 0.8 8.8 4.3 8.8z" fill="#1f95d2"/>
<path class="st0" d="m417.6 67.3v-65.5c0-0.7 0.5-1.3 1.2-1.4h4.6c0.8-0.1 1.5 0.4 1.6 1.1l10.8 36.9c0.2 0.6 0.9 0.6 0.9-0.1v-36.5c0-0.7 0.5-1.3 1.2-1.4h5.1c0.7 0 1.3 0.5 1.4 1.2v65.7c0 0.7-0.5 1.3-1.2 1.4h-4.8c-0.6 0-1-0.3-1.3-1.2l-11.1-36.7c-0.2-0.6-0.9-0.6-0.9 0.1v36.4c0.1 0.7-0.4 1.3-1.1 1.4h-5.1c-0.7 0-1.3-0.5-1.4-1.2 0.1-0.1 0.1-0.1 0.1-0.2z" fill="#1f95d2"/>
<path class="st1" d="m109 19.3c-5.4-3.1-11.5-4.7-17.7-4.6-15.2 0-27.6 8.9-27.6 19.9s12.4 19.9 27.6 19.9c6.2 0.1 12.3-1.5 17.7-4.6 0.3-0.1 0.5-0.4 0.4-0.8v-5.1c0-0.3-0.2-0.5-0.4-0.5-0.1 0-0.2 0-0.3 0.1-4.1 3.4-10.4 5.6-17.4 5.6-12.1 0-22.3-6.7-22.3-14.6s10.2-14.6 22.3-14.6c6.9 0 13.3 2.2 17.4 5.6 0.2 0.2 0.5 0.1 0.6-0.1 0.1-0.1 0.1-0.2 0.1-0.3v-5c0.1-0.4-0.1-0.7-0.4-0.9zm-50.7 3.9h-5c-0.3 0-0.5 0.1-0.7 0.3l-15.6 19.4c-0.3 0.4-0.8 0.5-1.2 0.2-0.2-0.2-0.4-0.4-0.4-0.7v-18.8c0-0.3-0.2-0.5-0.4-0.5h-4.4c-0.2 0-0.5 0.2-0.5 0.4v21.9c0 0.2 0.2 0.4 0.4 0.5h9.8c0.3 0 0.6-0.1 0.8-0.3l17.4-21.7c0.2-0.2 0.1-0.5-0.1-0.6 0.1-0.1 0-0.1-0.1-0.1zm-35.9 0h-22c-0.2 0-0.4 0.2-0.4 0.4v2.8c0 0.2 0.2 0.4 0.4 0.4h7.9c0.2 0 0.4 0.2 0.5 0.4v18.2c0 0.4 0.2 0.6 0.4 0.6h4.4c0.2 0 0.5-0.2 0.5-0.4v-18.2c0-0.2 0.2-0.5 0.4-0.5h7.9c0.2 0 0.4-0.2 0.4-0.4v-2.8c0-0.3-0.2-0.5-0.4-0.5zm159.2 3.7h20.9c0.2 0 0.5-0.2 0.5-0.4v-2.8c0-0.2-0.2-0.5-0.4-0.5h-26.2c-0.2 0-0.5 0.2-0.5 0.4v21.9c0 0.2 0.2 0.5 0.4 0.5h26.2c0.2 0 0.4-0.2 0.5-0.4v-2.8c0-0.2-0.2-0.4-0.4-0.5h-20.9c-0.2 0-0.4-0.2-0.5-0.4v-4.9c0-0.2 0.2-0.4 0.4-0.4h13.7c0.2 0 0.4-0.2 0.5-0.4v-2.8c0-0.2-0.2-0.4-0.4-0.5h-13.7c-0.2 0-0.4-0.2-0.5-0.4v-4.9c-0.1-0.5 0.1-0.7 0.4-0.7zm-14.6-3.7h-4.4c-0.2 0-0.4 0.2-0.5 0.4v18.7c0 0.5-0.4 0.9-0.9 0.9-0.3 0-0.5-0.1-0.7-0.3l-15.5-19.4c-0.2-0.2-0.4-0.3-0.7-0.3h-9.9c-0.2 0-0.5 0.2-0.5 0.4v21.9c0 0.2 0.2 0.5 0.4 0.5h4.4c0.2 0 0.5-0.2 0.5-0.4v-18.8c0-0.5 0.4-0.9 0.9-0.9 0.3 0 0.5 0.1 0.7 0.3l15.5 19.4c0.2 0.2 0.5 0.3 0.7 0.3h9.8c0.2 0 0.5-0.2 0.5-0.4v-21.9c0.1-0.2-0.1-0.4-0.3-0.4zm-42 0h-4.4c-0.3 0-0.5 0.2-0.5 0.5v21.9c0 0.2 0.2 0.4 0.4 0.5h4.4c0.2 0 0.5-0.2 0.5-0.4v-22.1c0.1-0.2-0.1-0.4-0.4-0.4z"/>
</svg>
