<?xml version="1.0" encoding="UTF-8" standalone="no"?>
<!-- Created with Inkscape (http://www.inkscape.org/) -->

<svg
   xmlns:dc="http://purl.org/dc/elements/1.1/"
   xmlns:cc="http://creativecommons.org/ns#"
   xmlns:rdf="http://www.w3.org/1999/02/22-rdf-syntax-ns#"
   xmlns:svg="http://www.w3.org/2000/svg"
   xmlns="http://www.w3.org/2000/svg"
   xmlns:sodipodi="http://sodipodi.sourceforge.net/DTD/sodipodi-0.dtd"
   xmlns:inkscape="http://www.inkscape.org/namespaces/inkscape"
   width="52.916664mm"
   height="9.6270781mm"
   viewBox="0 0 52.916664 9.6270781"
   version="1.1"
   id="svg26757"
   inkscape:version="0.92.3pre0 (0ab9bec, 2018-03-03)"
   sodipodi:docname="tvcine2hd.light.svg">
  <defs
     id="defs26751" />
  <sodipodi:namedview
     id="base"
     pagecolor="#ffffff"
     bordercolor="#666666"
     borderopacity="1.0"
     inkscape:pageopacity="0.0"
     inkscape:pageshadow="2"
     inkscape:zoom="1.1074219"
     inkscape:cx="-29.156984"
     inkscape:cy="-39.45788"
     inkscape:document-units="mm"
     inkscape:current-layer="layer1"
     showgrid="false"
     fit-margin-top="0"
     fit-margin-left="0"
     fit-margin-right="0"
     fit-margin-bottom="0"
     inkscape:window-width="1920"
     inkscape:window-height="983"
     inkscape:window-x="0"
     inkscape:window-y="27"
     inkscape:window-maximized="1" />
  <metadata
     id="metadata26754">
    <rdf:RDF>
      <cc:Work
         rdf:about="">
        <dc:format>image/svg+xml</dc:format>
        <dc:type
           rdf:resource="http://purl.org/dc/dcmitype/StillImage" />
        <dc:title></dc:title>
      </cc:Work>
    </rdf:RDF>
  </metadata>
  <g
     inkscape:label="Layer 1"
     inkscape:groupmode="layer"
     id="layer1"
     transform="translate(-64.808456,-128.76636)">
    <g
       id="g26733"
       transform="matrix(2.744321,0,0,-2.744321,-923.7654,694.2337)"
       style="fill:#ffffff">
      <g
         transform="translate(374.4263,204.9297)"
         id="g6868"
         style="fill:#ffffff">
        <path
           inkscape:connector-curvature="0"
           id="path6870"
           style="fill:#ffffff;fill-opacity:1;fill-rule:nonzero;stroke:none"
           d="m 0,0 c -0.015,-0.255 -0.117,-0.478 -0.303,-0.664 -0.203,-0.202 -0.447,-0.305 -0.73,-0.305 h -1.346 c -0.06,-0.014 -0.114,-0.044 -0.163,-0.089 -0.065,-0.068 -0.098,-0.145 -0.101,-0.245 0.003,-0.087 0.036,-0.165 0.101,-0.233 0.073,-0.067 0.158,-0.1 0.256,-0.1 h 2.114 c 0.106,0 0.193,-0.088 0.193,-0.193 v -0.352 c 0,-0.105 -0.087,-0.193 -0.193,-0.193 h -2.296 c -0.282,0 -0.527,0.103 -0.73,0.305 -0.197,0.197 -0.3,0.435 -0.304,0.73 0.004,0.278 0.107,0.617 0.304,0.815 0.203,0.202 0.448,0.304 0.73,0.304 h 1.346 c 0.06,0.015 0.114,0.044 0.163,0.088 0.068,0.071 0.101,0.153 0.101,0.246 C -0.872,0.176 -0.9,0.231 -0.949,0.283 -1.022,0.349 -1.107,0.382 -1.205,0.382 H -2.35 c -0.105,0 -0.193,0.088 -0.193,0.193 v 0.352 c 0,0.105 0.088,0.193 0.193,0.193 h 1.327 c 0.283,0 0.527,-0.102 0.73,-0.305 0.202,-0.202 0.305,-0.447 0.305,-0.729 z m -13.993,1.119 h 1.532 c 0.113,0 0.208,-0.095 0.208,-0.208 V 0.533 c 0,-0.113 -0.095,-0.208 -0.208,-0.208 h -1.532 c -0.113,0 -0.208,0.095 -0.208,0.208 v 0.378 c 0,0.113 0.095,0.208 0.208,0.208 m 2.664,-1.164 v -2.121 c 0,-0.113 -0.095,-0.208 -0.208,-0.208 h -0.508 c -0.113,0 -0.208,0.095 -0.208,0.208 v 2.173 c 0,0.304 0.11,0.566 0.328,0.784 0.217,0.218 0.48,0.328 0.784,0.328 h 1.237 l 0.505,0.001 c 0.107,0 0.196,-0.089 0.196,-0.196 v -2.198 c 0,-0.095 0.035,-0.18 0.108,-0.253 0.072,-0.065 0.157,-0.097 0.254,-0.097 h 0.126 c 0.099,0 0.186,0.034 0.259,0.101 0.097,0.101 1.097,1.451 1.631,2.155 0.042,0.067 0.093,0.13 0.152,0.189 0.199,0.199 0.439,0.299 0.716,0.299 h 2.098 c 0.104,0 0.19,-0.086 0.19,-0.189 V 0.586 c 0,-0.104 -0.086,-0.19 -0.19,-0.19 h -1.92 c -0.096,0 -0.179,-0.033 -0.25,-0.097 -0.067,-0.07 -0.099,-0.151 -0.099,-0.241 v -1.37 c 0,-0.09 0.032,-0.17 0.099,-0.241 0.071,-0.064 0.154,-0.096 0.25,-0.096 h 1.92 c 0.104,0 0.19,-0.086 0.19,-0.19 v -0.346 c 0,-0.103 -0.086,-0.189 -0.19,-0.189 h -2.098 c -0.277,0 -0.517,0.101 -0.716,0.299 -0.198,0.199 -0.299,0.438 -0.299,0.716 v 0.386 c -0.435,-0.553 -0.808,-1.03 -0.869,-1.091 -0.206,-0.206 -0.455,-0.31 -0.742,-0.31 h -0.442 c -0.287,0 -0.536,0.104 -0.741,0.31 -0.206,0.206 -0.31,0.454 -0.31,0.741 v 1.648 h -0.87 c -0.105,0 -0.197,-0.035 -0.275,-0.106 -0.073,-0.076 -0.108,-0.165 -0.108,-0.264" />
      </g>
      <g
         transform="translate(377.3711,204.2949)"
         id="g6872"
         style="fill:#ffffff">
        <path
           inkscape:connector-curvature="0"
           id="path6874"
           style="fill:#ffffff;fill-opacity:1;fill-rule:nonzero;stroke:none"
           d="M 0,0 H -1.043 V -0.941 H -1.195 V 1.06 h 0.152 V 0.135 H 0 V 1.06 H 0.151 V -0.941 H 0 Z" />
      </g>
      <g
         transform="translate(379.2065,205.0654)"
         id="g6876"
         style="fill:#ffffff">
        <path
           inkscape:connector-curvature="0"
           id="path6878"
           style="fill:#ffffff;fill-opacity:1;fill-rule:nonzero;stroke:none"
           d="m 0,0 c -0.115,0.12 -0.27,0.154 -0.43,0.154 h -0.484 v -1.731 h 0.484 c 0.16,0 0.315,0.034 0.43,0.154 0.157,0.166 0.149,0.515 0.149,0.739 C 0.149,-0.459 0.157,-0.166 0,0 m 0.107,-1.529 c -0.121,-0.121 -0.29,-0.183 -0.501,-0.183 h -0.671 v 2.001 h 0.671 c 0.211,0 0.38,-0.061 0.501,-0.183 0.202,-0.202 0.194,-0.519 0.194,-0.79 0,-0.269 0.008,-0.643 -0.194,-0.845" />
      </g>
      <path
         inkscape:connector-curvature="0"
         id="path6880"
         style="fill:#ffffff;fill-opacity:1;fill-rule:nonzero;stroke:none"
         d="m 375.259,202.542 h 0.154 v 3.508 h -0.154 z" />
    </g>
  </g>
</svg>
