<svg width="211.67mm" height="107.87mm" version="1.1" viewBox="0 0 211.67 107.87" xmlns="http://www.w3.org/2000/svg" xmlns:xlink="http://www.w3.org/1999/xlink">
 <defs>
  <linearGradient id="a" x1="257.12" x2="257.25" y1="182" y2="6.9958" gradientTransform="matrix(.61675 0 0 .61675 -60.477 -33.153)" gradientUnits="userSpaceOnUse">
   <stop stop-color="#0171bb" offset="0"/>
   <stop stop-color="#53e4ec" offset="1"/>
  </linearGradient>
 </defs>
 <g transform="translate(60.397 29.027)">
  <path d="m6.4686-29.027a71.877 71.632 0 0 1 24.78 53.997 71.877 71.632 0 0 1-24.579 53.872h91.414a53.266 53.934 0 0 0 53.185-53.975 53.266 53.934 0 0 0-53.266-53.894z" fill="url(#a)" opacity=".97"/>
  <g transform="matrix(2.264 0 0 2.4001 -60.477 -33.153)" style="font-feature-settings:normal;font-variant-caps:normal;font-variant-ligatures:normal;font-variant-numeric:normal" aria-label="TV DR">
   <path d="m0.035007 19.174h5.0888v13.775h4.1106v-13.775h5.0886v-3.5815h-14.288z" fill="#6b6b6b" stroke-width=".34895"/>
   <path d="m23.796 27.822-4.3888-12.229h-4.1689l6.5 17.356h4.0124l6.603-17.356h-4.1453z" fill="#6b6b6b" stroke-width=".34895"/>
   <path d="m55.818 14.719h-7.903v18.918h7.903c5.854 0 9.6172-3.8537 9.6172-9.4591 0-5.6324-3.7633-9.4591-9.6172-9.4591zm-3.5372 14.93v-10.995h3.2497c3.3713 0 5.3574 2.0481 5.3574 5.5246s-1.9862 5.4707-5.3574 5.4707z" fill="#fff" stroke-width=".37986"/>
   <path d="m78.318 20.863c0 1.4822-0.80959 2.1188-2.5332 2.1774h-2.8566v-4.495h2.8566c1.7247 0 2.5332 0.91627 2.5332 2.3176zm-9.9981-6.1444v18.918h4.6083l4.32e-4 -6.8505h1.1049l5.0238 6.8505h5.2012l-5.4554-7.4919c2.9105-0.86237 4.2041-3.0992 4.2041-5.4707 0-3.2878-2.3176-5.9558-6.9529-5.9558z" fill="#fff" stroke-width=".38574"/>
  </g>
 </g>
</svg>
