<svg width="600" height="526.7" viewBox="0 0 158.75 139.356" xmlns="http://www.w3.org/2000/svg">
    <path d="M146.05 67.38c-.137 20.912-2.323 38.271-7.79 44.831-5.468 6.56-12.302 15.172-61.097 14.898-48.795-.273-55.493-11.208-58.773-17.768-3.28-6.56-6.15-27.336-6.014-44.012.137-16.674 3.827-34.032 9.021-40.047C26.591 19.267 40.67 11.75 80.17 12.297c0 0 43.055.41 52.622 8.612 9.568 8.2 13.395 25.56 13.258 46.471m9.773-28.839c-5.809-24.125-18.383-34.239-48.18-37.11C93.502.07 70.867-1.004 47.418 1.585 2.38 6.558 2.42 39.455 1.288 47.1-1.34 64.847.314 95.537 3.902 105.788c6.623 18.922 13.705 25.477 35.275 30.533 19.682 4.613 54.538 3.275 74.719.63 23.475-3.075 35.469-13.12 40.799-32.29 4.93-17.73 5.434-48.235 1.128-66.12"/>
    <path d="M124.66 31.67c-1.128-.307-15.172-3.793-24.295-3.383-9.123.41-21.783 1.26-29.216 6.561-10.799 7.699-11.964 14.368-13.58 28.908H33.733l-1.64 8.917h24.378c-.689 4.732-1.62 10.56-1.62 10.56s-.616 9.431-5.536 13.84c-4.92 4.407-10.046 6.458-15.377 7.278-5.33.82-3.895 1.742-.923 2.87s12.711 3.895 21.835 3.895 25.115-1.23 31.778-6.458S97.904 93.894 99.134 88.36c.738-3.319 1.807-9.952 2.655-15.685h22.87l1.64-8.917h-23.282l.012-.103c.513-4.407 2.05-15.993 4.818-19.17 2.768-3.179 8.304-8.61 16.812-9.225 8.509-.615 1.128-3.28 0-3.588"/>
</svg>
