<svg xmlns="http://www.w3.org/2000/svg" height="291.764" width="600">
    <path d="M491.59 72.163c-12.647 0-22.92 10.27-22.92 22.917 0 12.674 10.273 22.917 22.92 22.917h49.252v26.357H491.59c-27.166 0-49.274-22.107-49.274-49.274 0-27.152 22.108-49.245 49.274-49.245h72.161V0h-72.16c-52.427 0-95.095 42.654-95.095 95.08 0 52.426 42.668 95.095 95.094 95.095h95.078V72.163H491.59z" fill="#00b2bb"/>
    <g fill="#00b2bb">
        <path d="M11.343 260.014H0v-6.996h31.007v6.996H19.664v30.85h-8.32v-30.85zM34.293 253.018h28.305v6.996H42.616v8.11h18.339v6.466h-18.34v9.277h20.406v6.996H34.293v-37.845zM67.579 253.018h8.32v30.85h18.445v6.995H67.58v-37.845zM97.95 253.018h28.304v6.996h-19.982v8.11h18.34v6.466h-18.34v9.277h20.406v6.996H97.95v-37.845zM148.832 290.863h-9.38l-12.298-37.845h8.586l8.428 26.608h.107l8.533-26.608h8.588l-12.564 37.845zM163.568 253.018h8.32v37.845h-8.32v-37.845zM183.814 278.3c0 5.036 3.922 6.998 8.376 6.998 2.914 0 7.368-.848 7.368-4.72 0-4.08-5.672-4.77-11.237-6.255-5.618-1.484-11.29-3.657-11.29-10.76 0-7.739 7.315-11.45 14.151-11.45 7.898 0 15.16 3.447 15.16 12.19h-8.057c-.264-4.555-3.497-5.724-7.475-5.724-2.648 0-5.724 1.114-5.724 4.294 0 2.917 1.802 3.287 11.29 5.725 2.757.69 11.237 2.438 11.237 11.026 0 6.943-5.46 12.136-15.744 12.136-8.373 0-16.22-4.132-16.113-13.462h8.058zM211.481 253.018h8.323v37.845h-8.323v-37.845zM243.02 252.117c11.713 0 18.604 8.745 18.604 19.982 0 10.92-6.89 19.663-18.604 19.663-11.716 0-18.605-8.743-18.605-19.663 0-11.237 6.89-19.982 18.605-19.982zm0 32.651c7.474 0 10.282-6.36 10.282-12.667 0-6.624-2.81-12.986-10.282-12.986-7.473 0-10.283 6.36-10.283 12.986 0 6.305 2.808 12.667 10.283 12.667zm1.27-35.143h-5.246l5.087-7.527h8.323l-8.163 7.527zM266.235 253.018h8.27l15.794 25.388h.106v-25.388h7.791v37.845h-8.322l-15.742-25.335h-.106v25.335h-7.79v-37.845z"/>
    </g>
    <g fill="#010101">
        <path d="M313.885 253.018h16.326c9.806 0 17.172 6.148 17.172 18.709 0 10.971-5.619 19.134-17.172 19.134h-16.326v-37.843zm8.322 30.85h7.421c4.821 0 9.434-2.97 9.434-11.344 0-7.634-2.65-12.51-10.92-12.51h-5.935v23.853zM352.1 253.018h28.305v6.996h-19.98v8.11h18.338v6.466h-18.339v9.277h20.406v6.996H352.1v-37.845z"/>
    </g>
    <path d="M422.174 286.57c-2.914 3.762-6.73 5.192-10.389 5.192-11.713 0-18.605-8.743-18.605-19.663 0-11.237 6.89-19.982 18.605-19.982 7.74 0 15.053 4.77 15.956 13.358h-7.952c-.955-4.188-4.082-6.36-8.004-6.36-7.472 0-10.282 6.36-10.282 12.986 0 6.307 2.81 12.667 10.282 12.667 5.408 0 8.535-2.916 9.011-8.162h-8.375v-6.201h15.9v20.46h-5.3l-.847-4.296zM444.327 253.018h8.535l14.151 37.845h-8.639l-2.861-8.426h-14.154l-2.967 8.426h-8.427l14.362-37.845zm-.793 23.218h9.806l-4.77-13.888h-.106l-4.93 13.888zM469.241 253.018h8.32v30.85h18.446v6.995h-26.768v-37.845zM499.61 253.018h8.32v37.845h-8.32v-37.845zM539.417 265.739c-.531-3.763-4.134-6.624-8.269-6.624-7.472 0-10.282 6.36-10.282 12.986 0 6.307 2.81 12.667 10.282 12.667 5.087 0 7.95-3.499 8.586-8.48h8.057c-.848 9.435-7.368 15.476-16.645 15.476-11.713 0-18.605-8.743-18.605-19.663 0-11.237 6.89-19.982 18.605-19.982 8.32 0 15.318 4.878 16.324 13.622h-8.053zM552.402 253.018h8.32v37.845h-8.32v-37.845zM577.314 253.018h8.535L600 290.863h-8.64l-2.86-8.426h-14.154l-2.968 8.426h-8.428l14.364-37.845zm-.795 23.218h9.806l-4.77-13.888h-.107l-4.93 13.888z"/>
</svg>
