<svg xmlns="http://www.w3.org/2000/svg" width="300" height="262.005"><title>Globo</title><path d="M149.786 0c-45.078 0-81.664 36.82-81.664 81.894 0 45.157 36.586 81.982 81.664 81.982 45.169 0 81.75-36.825 81.75-81.982 0-45.074-36.581-81.894-81.75-81.894zm-6.918 41.029c2.324-.01 4.631 0 6.918.01 18.381-.093 38.075.35 55.752 2.278 5.169.526 7.876 1.754 8.495 7.364.957 10.171 1.05 20.605 1.05 31.215 0 10.697-.093 21.132-1.05 31.302-.618 5.612-3.326 6.841-8.495 7.367-17.677 1.929-37.372 2.279-55.752 2.279-18.294 0-37.988-.349-55.67-2.279-5.163-.526-7.877-1.754-8.49-7.367-.963-10.171-1.05-20.605-1.05-31.302 0-10.61.087-21.044 1.05-31.215.613-5.61 3.327-6.838 8.49-7.364 15.471-1.687 32.485-2.238 48.752-2.287zm6.918 7.721c-18.381 0-33.174 14.906-33.174 33.144 0 18.325 14.793 33.144 33.174 33.144 18.468 0 33.26-14.819 33.26-33.144 0-18.238-14.792-33.144-33.26-33.144zm-19.767 136.53c-21.125 0-38.365 17.238-38.365 38.362 0 21.125 17.24 38.363 38.365 38.363 21.124 0 38.36-17.238 38.36-38.363 0-21.124-17.236-38.362-38.36-38.362zm131.622 0c-21.124 0-38.367 17.238-38.367 38.362 0 21.125 17.243 38.363 38.367 38.363 21.122 0 38.359-17.238 38.359-38.363 0-21.124-17.237-38.362-38.359-38.362zm-225.139.018c-20.424.434-36.45 17.915-36.501 36.764 0 23.069 18.481 37.928 37.088 37.928h54.496v-16.363h-22.217l33.986-56.335h-21.853l-18.473 30.694h-26.526v15.906h18.082c-3.447 5.12-8.124 8.776-16.602 8.725-9.798-.056-19.136-6.506-19.136-20.058 0-11.505 9.926-19.224 18.742-19.22 6.736.01 14.956 2.014 20.523 11.247l9.923-16.425c-8.257-8.748-17.41-12.865-31.533-12.865zm135.351 1.995v72.697h26.453c14.733 0 22.991-9.695 22.991-22.25 0-6.642-3.188-13.107-9.369-16.333 4.855-3.574 6.696-8.034 6.661-14.678-.05-9.156-6.247-19.436-22.545-19.436zm18.575 15.897h5.23c2.727 0 5.958 2.081 5.964 5.923.005 3.709-2.527 6.351-6.039 6.351h-5.154v-12.278zm-60.409.999c10.712 0 19.449 8.741 19.449 19.453 0 10.71-8.737 19.455-19.449 19.455-10.713 0-19.452-8.745-19.452-19.455 0-10.712 8.739-19.453 19.452-19.453zm131.622 0c10.71 0 19.451 8.741 19.451 19.453 0 10.71-8.742 19.455-19.451 19.455-10.711 0-19.456-8.745-19.456-19.455 0-10.712 8.745-19.453 19.456-19.453zm-71.214 25.224h5.852c4.399 0 7.465 3.335 7.465 7.307 0 3.66-3.051 7.205-7.044 7.205h-6.273z" fill="#00aeef" fill-rule="evenodd"/></svg>