<svg version="1.1" viewBox="0 0 298.5 80.81" xmlns="http://www.w3.org/2000/svg" xmlns:xlink="http://www.w3.org/1999/xlink">
 <defs>
  <linearGradient id="a" x1="1110" x2="1110.4" y1="-4955.2" y2="-4955.2" gradientTransform="matrix(0 -160.16 -160.16 0 -793488 177896)" gradientUnits="userSpaceOnUse">
   <stop stop-color="#fc0" offset="0"/>
   <stop stop-color="#fdca00" offset=".21"/>
   <stop stop-color="#f6c500" offset=".28"/>
   <stop stop-color="#eabb00" offset=".34"/>
   <stop stop-color="#d9ae00" offset=".38"/>
   <stop stop-color="#c39c00" offset=".42"/>
   <stop stop-color="#ab8900" offset=".45"/>
   <stop stop-color="#ab8900" offset="1"/>
  </linearGradient>
  <linearGradient id="n" x1="1110" x2="1110.4" y1="-4954.8" y2="-4954.8" gradientTransform="matrix(0 -160.16 -160.16 0 -793387 177889)" xlink:href="#a"/>
  <linearGradient id="h" x1="1110" x2="1110.4" y1="-4955.6" y2="-4955.6" gradientTransform="matrix(0 -160.16 -160.16 0 -793597 177905)" xlink:href="#a"/>
  <linearGradient id="g" x1="1110" x2="1110.4" y1="-4954.9" y2="-4954.9" gradientTransform="matrix(0 -160.16 -160.16 0 -793417 177893)" xlink:href="#a"/>
  <linearGradient id="f" x1="1111.8" x2="1112.1" y1="-4955.4" y2="-4955.4" gradientTransform="matrix(0 -169.05 -169.05 0 -837488 188041)" xlink:href="#a"/>
  <linearGradient id="b" x1="1116.7" x2="1117.1" y1="-4957.6" y2="-4957.6" gradientTransform="matrix(0 -200.04 -200.04 0 -991459 223505)" gradientUnits="userSpaceOnUse">
   <stop stop-color="#fc0" offset="0"/>
   <stop stop-color="#fdca00" offset=".35"/>
   <stop stop-color="#f6c500" offset=".47"/>
   <stop stop-color="#eabb00" offset=".56"/>
   <stop stop-color="#d9ae00" offset=".64"/>
   <stop stop-color="#c39c00" offset=".7"/>
   <stop stop-color="#ab8900" offset=".75"/>
   <stop stop-color="#ab8900" offset="1"/>
  </linearGradient>
  <linearGradient id="e" x1="1116.7" x2="1117.1" y1="-4957.3" y2="-4957.3" gradientTransform="matrix(0 -200.03 -200.03 0 -991341 223492)" xlink:href="#b"/>
  <linearGradient id="am" x1="1116.7" x2="1117.1" y1="-4957.7" y2="-4957.7" gradientTransform="matrix(0 -200.03 -200.03 0 -991451 223499)" xlink:href="#b"/>
  <linearGradient id="al" x1="1116.7" x2="1117.1" y1="-4957.9" y2="-4957.9" gradientTransform="matrix(0 -200.04 -200.04 0 -991539 223507)" xlink:href="#b"/>
  <linearGradient id="ak" x1="1116.7" x2="1117.1" y1="-4957.7" y2="-4957.7" gradientTransform="matrix(0 -200.03 -200.03 0 -991459 223501)" xlink:href="#b"/>
  <linearGradient id="aj" x1="1110" x2="1110.4" y1="-4955.1" y2="-4955.1" gradientTransform="matrix(0 -160.16 -160.16 0 -793467 177894)" xlink:href="#a"/>
  <linearGradient id="ai" x1="1111.8" x2="1112.1" y1="-4955.4" y2="-4955.4" gradientTransform="matrix(0 -169.04 -169.04 0 -837474 188038)" xlink:href="#a"/>
  <linearGradient id="ah" x1="1011" x2="1011.4" y1="-4899.3" y2="-4899.3" gradientTransform="matrix(0 -39.75 -39.75 0 -194533 40246)" gradientUnits="userSpaceOnUse">
   <stop stop-color="#fc0" offset="0"/>
   <stop stop-color="#fdca00" offset=".23"/>
   <stop stop-color="#f6c500" offset=".31"/>
   <stop stop-color="#eabb00" offset=".37"/>
   <stop stop-color="#d9ae00" offset=".41"/>
   <stop stop-color="#c39c00" offset=".45"/>
   <stop stop-color="#ab8900" offset=".49"/>
   <stop stop-color="#ab8900" offset="1"/>
  </linearGradient>
  <linearGradient id="ag" x1="1116.7" x2="1117.1" y1="-4957.3" y2="-4957.3" gradientTransform="matrix(0 -200.04 -200.04 0 -991373 223503)" xlink:href="#b"/>
  <linearGradient id="af" x1="1116.7" x2="1117.1" y1="-4957.8" y2="-4957.8" gradientTransform="matrix(0 -200.03 -200.03 0 -991472 223500)" xlink:href="#b"/>
  <linearGradient id="ae" x1="1110" x2="1110.4" y1="-4954.9" y2="-4954.9" gradientTransform="matrix(0 -160.16 -160.16 0 -793413 177892)" xlink:href="#a"/>
  <linearGradient id="ad" x1="1110" x2="1110.4" y1="-4955.6" y2="-4955.6" gradientTransform="matrix(0 -160.15 -160.15 0 -793547 177894)" xlink:href="#a"/>
  <linearGradient id="ac" x1="1110" x2="1110.4" y1="-4954.8" y2="-4954.8" gradientTransform="matrix(0 -160.16 -160.16 0 -793406 177894)" xlink:href="#a"/>
  <linearGradient id="ab" x1="1110" x2="1110.4" y1="-4955.2" y2="-4955.2" gradientTransform="matrix(0 -160.16 -160.16 0 -793475 177893)" xlink:href="#a"/>
  <linearGradient id="aa" x1="1110" x2="1110.4" y1="-4955.2" y2="-4955.2" gradientTransform="matrix(0 -160.16 -160.16 0 -793487 177895)" xlink:href="#a"/>
  <linearGradient id="z" x1="1110" x2="1110.4" y1="-4955.2" y2="-4955.2" gradientTransform="matrix(0 -160.16 -160.16 0 -793477 177894)" xlink:href="#a"/>
  <linearGradient id="y" x1="1110" x2="1110.4" y1="-4955.6" y2="-4955.6" gradientTransform="matrix(0 -160.16 -160.16 0 -793586 177902)" xlink:href="#a"/>
  <linearGradient id="x" x1="1110" x2="1110.4" y1="-4955.6" y2="-4955.6" gradientTransform="matrix(0 -160.16 -160.16 0 -793577 177900)" xlink:href="#a"/>
  <linearGradient id="w" x1="1110" x2="1110.4" y1="-4954.9" y2="-4954.9" gradientTransform="matrix(0 -160.16 -160.16 0 -793404 177890)" xlink:href="#a"/>
  <linearGradient id="v" x1="1110" x2="1110.4" y1="-4954.9" y2="-4954.9" gradientTransform="matrix(0 -160.16 -160.16 0 -793394 177888)" xlink:href="#a"/>
  <linearGradient id="u" x1="1111.8" x2="1112.1" y1="-4955.5" y2="-4955.5" gradientTransform="matrix(0 -169.04 -169.04 0 -837486 188038)" xlink:href="#a"/>
  <linearGradient id="t" x1="1111.8" x2="1112.1" y1="-4955.5" y2="-4955.5" gradientTransform="matrix(0 -169.05 -169.05 0 -837506 188044)" xlink:href="#a"/>
  <linearGradient id="s" x1="1111.8" x2="1112.1" y1="-4955.5" y2="-4955.5" gradientTransform="matrix(0 -169.05 -169.05 0 -837495 188042)" xlink:href="#a"/>
  <linearGradient id="r" x1="1116.7" x2="1117.1" y1="-4957.5" y2="-4957.5" gradientTransform="matrix(0 -200.03 -200.03 0 -991376 223491)" xlink:href="#b"/>
  <linearGradient id="q" x1="1116.7" x2="1117.1" y1="-4957.5" y2="-4957.5" gradientTransform="matrix(0 -200.04 -200.04 0 -991386 223496)" xlink:href="#b"/>
  <linearGradient id="p" x1="1116.7" x2="1117.1" y1="-4957.8" y2="-4957.8" gradientTransform="matrix(0 -200.03 -200.03 0 -991461 223498)" xlink:href="#b"/>
  <linearGradient id="o" x1="1116.7" x2="1117.1" y1="-4958" y2="-4958" gradientTransform="matrix(0 -200.03 -200.03 0 -991542 223505)" xlink:href="#b"/>
  <linearGradient id="m" x1="1116.7" x2="1117.1" y1="-4957.6" y2="-4957.6" gradientTransform="matrix(0 -200.03 -200.03 0 -991407 223492)" xlink:href="#b"/>
  <linearGradient id="l" x1="1116.7" x2="1117.1" y1="-4957.5" y2="-4957.5" gradientTransform="matrix(0 -200.03 -200.03 0 -991408 223497)" xlink:href="#b"/>
  <linearGradient id="k" x1="1116.7" x2="1117.1" y1="-4957.5" y2="-4957.5" gradientTransform="matrix(0 -200.03 -200.03 0 -991400 223495)" xlink:href="#b"/>
  <linearGradient id="j" x1="1116.7" x2="1117.1" y1="-4958" y2="-4958" gradientTransform="matrix(0 -200.04 -200.04 0 -991546 223508)" xlink:href="#b"/>
  <linearGradient id="i" x1="1116.7" x2="1117.1" y1="-4958" y2="-4958" gradientTransform="matrix(0 -200.03 -200.03 0 -991538 223506)" xlink:href="#b"/>
  <linearGradient id="d" x1="1110" x2="1110.4" y1="-4955.2" y2="-4955.2" gradientTransform="matrix(0 -160.16 -160.16 0 -793488 177896)" gradientUnits="userSpaceOnUse" xlink:href="#a"/>
  <linearGradient id="c" x1="1116.7" x2="1117.1" y1="-4957.6" y2="-4957.6" gradientTransform="matrix(0 -200.04 -200.04 0 -991459 223505)" gradientUnits="userSpaceOnUse" xlink:href="#b"/>
  <clipPath id="ce">
   <path d="m66.68 50.34c0 4.06 3.02 7.35 7.84 7.35h0.09c4.83 0 7.93-3.28 7.93-7.35-0.09-4.32-3.1-7.43-7.93-7.43s-7.93 3.11-7.93 7.43" fill="none"/>
  </clipPath>
  <clipPath id="cd">
   <path d="m5.04 54.14v7.95h-5.26v11.41h5.26v14.86c0 6.48 1.38 10.63 3.96 13.22 2.24 2.25 6.03 3.89 10.6 3.89 3.96 0 7.41-0.52 9.22-1.21v-11.84c-1.29 0.35-1.9 0.35-3.71 0.35-3.79 0-4.91-2.07-4.91-7.09v-12.18h7.67l11.04 31.11h15.6l12.24-33.72v33.72h15.6v-42.52h-28.71l-4.22 18.06c-0.86 3.54-1.38 6.57-1.9 10.02h-0.26c-0.52-3.37-1.12-6.65-1.98-10.02l-4.57-18.06h-20.5v-12.1z" fill="none"/>
  </clipPath>
  <clipPath id="bs">
   <path d="m116.65 91.76 13.75-2.25c1.14 2.84 5.67 4.44 10.71 4.44 3.97 0 7.76-0.43 11.55-1.64l1.98 10.34h0.02l-1.98-10.37c-3.79 1.21-7.59 1.64-11.55 1.64-5.03 0-9.55-1.58-10.7-4.42l-13.78 2.25z" fill="none"/>
  </clipPath>
  <clipPath id="bh">
   <path d="m168.96 90.58c0 2.68 1.73 4.06 4.4 4.06 2.24 0 4.57-1.56 5.34-3.89-0.78 2.32-3.1 3.87-5.33 3.87-2.67 0-4.4-1.38-4.4-4.06 0-0.71 0.12-1.34 0.36-1.9-0.25 0.57-0.37 1.21-0.37 1.93" fill="none"/>
  </clipPath>
  <clipPath id="aw">
   <path d="m91.21 95.93 15.59-2.55v11.09h0.01v-11.1l-15.6 2.55z" fill="none"/>
  </clipPath>
  <clipPath id="ar">
   <path d="m135.64 88.65h0.06l58.25-9.53c0 0.22 0.01 0.44 0.01 0.66v14.34c0 4.22 0.26 8.17 0.68 10.34h0.02c-0.43-2.16-0.69-6.14-0.69-10.37v-14.98l-58.32 9.54z" fill="none"/>
  </clipPath>
  <clipPath id="aq">
   <path d="m195.69 78.84 15.59-2.55v28.18h0.01v-28.19l-15.6 2.55z" fill="none"/>
  </clipPath>
  <clipPath id="ap">
   <path d="m267.16 104.9c-1.03 1.38-3.02 3.11-5 3.89-1.9 0.86-3.79 1.38-5.34 1.64v0.03c1.56-0.26 3.45-0.78 5.33-1.64 1.98-0.78 3.97-2.51 5-3.89 0.22-0.31 0.42-0.64 0.56-0.97-0.14 0.32-0.33 0.64-0.55 0.94" fill="none"/>
  </clipPath>
  <clipPath id="ao">
   <path d="m281.13 64.87 17.1-2.8-7.23 21.62 7.24-21.63-17.1 2.8z" fill="none"/>
  </clipPath>
  <clipPath id="an">
   <path d="m229.15 73.36h0.06l41.07-6.72 3.84 14.44c0.61 2.33 1.29 5.44 1.81 7.6h0.34v-0.03h-0.34c-0.52-2.16-1.21-5.27-1.81-7.6l-3.84-14.42-41.15 6.73z" fill="none"/>
  </clipPath>
  <clipPath id="cc">
   <path d="m213.11 75.99 15.59-2.55v31.03h0.01v-31.04l-15.6 2.55z" fill="none"/>
  </clipPath>
  <clipPath id="cb">
   <path d="m247.57 73.39v12.18c0 5.01 1.12 7.09 4.91 7.09 1.81 0 2.41 0 3.71-0.35v11.81h0.01v-11.84c-1.29 0.35-1.9 0.35-3.71 0.35-3.79 0-4.91-2.07-4.91-7.09v-12.15z" fill="none"/>
  </clipPath>
  <clipPath id="ca">
   <path d="m136.64 71.2c4.92 0 6.04 4.49 6.04 6.91h-12.67c0.26-2.68 2.07-6.91 6.64-6.91m20.09-6.31 2.67 9.77c2.84-1.56 7.5-3.11 11.98-3.11 5.69 0 6.98 1.9 6.98 3.63v0.35c-9.54 0-17.25 2.24-21.38 7.07-0.06-11.58-5.94-21.58-19.57-21.58-8.65 0-14.47 3.93-17.93 9.12v-8.86c-1.12-0.26-1.72-0.26-3.1-0.26-3.71 0-9.05 2.16-11.29 8.64h-0.35l-0.6-7.69h-13.28c0.26 3.54 0.35 7.6 0.35 14.34v19.62l15.6-2.55v-9.9c0-1.04 0.08-1.99 0.17-2.68 0.86-3.46 3.96-5.36 8.53-5.36 0.47 0 0.91 0.02 1.31 0.04-0.95 2.73-1.4 5.55-1.4 8.17 0 2.97 0.41 5.69 1.21 8.12l13.78-2.25c-0.11-0.27-0.2-0.56-0.25-0.85h5.46l58.32-9.54c-0.2-10.31-5.37-18.11-19.65-18.11-8.79 0-14.91 2.42-17.59 3.89" fill="none"/>
  </clipPath>
  <clipPath id="bz">
   <path d="m136.64 71.2c4.92 0 6.04 4.49 6.04 6.91h-12.67c0.26-2.68 2.07-6.91 6.64-6.91m20.09-6.31 2.67 9.77c2.84-1.56 7.5-3.11 11.98-3.11 5.69 0 6.98 1.9 6.98 3.63v0.35c-9.54 0-17.25 2.24-21.38 7.07-0.06-11.58-5.94-21.58-19.57-21.58-8.65 0-14.47 3.93-17.93 9.12v-8.86c-1.12-0.26-1.72-0.26-3.1-0.26-3.71 0-9.05 2.16-11.29 8.64h-0.35l-0.6-7.69h-13.28c0.26 3.54 0.35 7.6 0.35 14.34v19.62l15.6-2.55v-9.9c0-1.04 0.08-1.99 0.17-2.68 0.86-3.46 3.96-5.36 8.53-5.36 0.47 0 0.91 0.02 1.31 0.04-0.95 2.73-1.4 5.55-1.4 8.17 0 2.97 0.41 5.69 1.21 8.12l13.78-2.25c-0.11-0.27-0.2-0.56-0.25-0.85h5.46l58.32-9.54c-0.2-10.31-5.37-18.11-19.65-18.11-8.79 0-14.91 2.42-17.59 3.89" fill="none"/>
  </clipPath>
  <clipPath id="by">
   <path d="m195.69 78.83 15.6-2.55v-33.25h-15.6z" fill="none"/>
  </clipPath>
  <clipPath id="bx">
   <path d="m195.69 78.83 15.6-2.55v-33.25h-15.6z" fill="none"/>
  </clipPath>
  <clipPath id="bw">
   <path d="m213.02 50.2c0 4.06 3.02 7.34 7.85 7.34h0.09c4.83 0 7.93-3.28 7.93-7.34-0.09-4.32-3.1-7.43-7.93-7.43s-7.93 3.11-7.93 7.43" fill="none"/>
  </clipPath>
  <clipPath id="bv">
   <path d="m213.02 50.2c0 4.06 3.02 7.34 7.85 7.34h0.09c4.83 0 7.93-3.28 7.93-7.34-0.09-4.32-3.1-7.43-7.93-7.43s-7.93 3.11-7.93 7.43" fill="none"/>
  </clipPath>
  <clipPath id="bu">
   <path d="m281.14 64.86 17.1-2.8 0.04-0.11h-16.56z" fill="none"/>
  </clipPath>
  <clipPath id="bt">
   <path d="m281.14 64.86 17.1-2.8 0.04-0.11h-16.56z" fill="none"/>
  </clipPath>
  <clipPath id="br">
   <path d="m232.41 61.95h-19.3v14.03l15.6-2.55v-0.07h0.44l41.15-6.73-1.25-4.68h-21.46v-12.1l-15.18 4.15z" fill="none"/>
  </clipPath>
  <clipPath id="bq">
   <path d="m232.41 61.95h-19.3v14.03l15.6-2.55v-0.07h0.44l41.15-6.73-1.25-4.68h-21.46v-12.1l-15.18 4.15z" fill="none"/>
  </clipPath>
  <clipPath id="bp">
   <path d="m135.69 88.65-0.19 0.03h18.53c-0.22 1.06-0.34 2.18-0.34 3.37 0 7.09 5.34 13.39 14.05 13.39 4.57 0 8.79-1.3 11.72-4.67h0.34l0.78 3.72h14.05v-0.03h-14.03l-0.78-3.72h-0.34c-2.93 3.37-7.16 4.67-11.73 4.67-8.71 0-14.05-6.31-14.05-13.39 0-1.19 0.12-2.31 0.34-3.37z" fill="none"/>
  </clipPath>
  <clipPath id="bo">
   <path d="m91.2 104.5h15.6v-0.03h-15.59v-8.54h-0.01z" fill="none"/>
  </clipPath>
  <clipPath id="bn">
   <path d="m169.33 88.65c1.06-2.46 4.36-3.6 9.54-3.6v3.46c0 0.78 0 1.55-0.17 2.24v-0.02c0.17-0.69 0.17-1.47 0.17-2.25v-3.46c-5.2 0-8.5 1.15-9.55 3.63" fill="none"/>
  </clipPath>
  <clipPath id="bm">
   <path d="m116.63 91.77c2.82 8.59 10.52 13.59 22.16 13.59 5.26 0 10.78-0.69 15.86-2.68v-0.02c-5.09 1.98-10.6 2.67-15.85 2.67-11.62 0-19.31-4.98-22.15-13.56z" fill="none"/>
  </clipPath>
  <clipPath id="bl">
   <path d="m116.65 91.77c2.83 8.58 10.53 13.56 22.15 13.56 5.25 0 10.76-0.69 15.84-2.67l-1.98-10.34c-3.79 1.21-7.58 1.64-11.55 1.64-5.04 0-9.57-1.59-10.71-4.44z" fill="none"/>
  </clipPath>
  <clipPath id="bk">
   <path d="m116.65 91.77c2.83 8.58 10.53 13.56 22.15 13.56 5.25 0 10.76-0.69 15.84-2.67l-1.98-10.34c-3.79 1.21-7.58 1.64-11.55 1.64-5.04 0-9.57-1.59-10.71-4.44z" fill="none"/>
  </clipPath>
  <clipPath id="bj">
   <path d="m91.21 104.47h15.59v-11.09l-15.59 2.55z" fill="none"/>
  </clipPath>
  <clipPath id="bi">
   <path d="m91.21 104.47h15.59v-11.09l-15.59 2.55z" fill="none"/>
  </clipPath>
  <clipPath id="bg">
   <path d="m168.96 90.58c0-0.72 0.13-1.36 0.37-1.93 1.05-2.48 4.36-3.63 9.55-3.63v3.46c0 0.78 0 1.56-0.17 2.25v0.02c-0.78 2.33-3.1 3.89-5.34 3.89-2.67 0-4.4-1.38-4.4-4.06m-33.26-1.93h18.35c-0.22 1.06-0.34 2.18-0.34 3.37 0 7.08 5.34 13.39 14.05 13.39 4.57 0 8.79-1.3 11.73-4.67h0.34l0.78 3.72h14.03c-0.43-2.17-0.68-6.12-0.68-10.34v-14.34c0-0.22 0-0.44-0.01-0.66z" fill="none"/>
  </clipPath>
  <clipPath id="bf">
   <path d="m168.96 90.58c0-0.72 0.13-1.36 0.37-1.93 1.05-2.48 4.36-3.63 9.55-3.63v3.46c0 0.78 0 1.56-0.17 2.25v0.02c-0.78 2.33-3.1 3.89-5.34 3.89-2.67 0-4.4-1.38-4.4-4.06m-33.26-1.93h18.35c-0.22 1.06-0.34 2.18-0.34 3.37 0 7.08 5.34 13.39 14.05 13.39 4.57 0 8.79-1.3 11.73-4.67h0.34l0.78 3.72h14.03c-0.43-2.17-0.68-6.12-0.68-10.34v-14.34c0-0.22 0-0.44-0.01-0.66z" fill="none"/>
  </clipPath>
  <clipPath id="be">
   <path d="m195.68 104.5h15.6v-0.03h-15.59v-25.63h-0.01z" fill="none"/>
  </clipPath>
  <clipPath id="bd">
   <path d="m195.69 104.47h15.59v-28.18l-15.59 2.55z" fill="none"/>
  </clipPath>
  <clipPath id="bc">
   <path d="m195.69 104.47h15.59v-28.18l-15.59 2.55z" fill="none"/>
  </clipPath>
  <clipPath id="bb">
   <path d="m289.22 89c-6.38 17.8-10.52 24.28-15.09 28.34-4.91 4.32-10.17 5.79-14.14 6.22l-3.18-13.11h-0.02l3.19 13.13c3.96-0.43 9.22-1.9 14.14-6.22 4.57-4.06 8.71-10.54 15.09-28.34l1.79-5.34-1.78 5.31z" fill="none"/>
  </clipPath>
  <clipPath id="ba">
   <path d="m281.13 64.87-3.3 16.3c-0.51 2.15-1.03 5.24-1.54 7.49 0.52-2.25 1.04-5.36 1.55-7.52z" fill="none"/>
  </clipPath>
  <clipPath id="az">
   <path d="m229.21 73.36-0.19 0.03h3.38v14.86c0 6.48 1.38 10.63 3.97 13.22 2.24 2.25 6.04 3.89 10.6 3.89 3.97 0 7.41-0.52 9.22-1.21v-0.03c-1.81 0.69-5.25 1.21-9.21 1.21-4.57 0-8.36-1.64-10.6-3.89-2.59-2.59-3.97-6.74-3.97-13.22v-14.86h-3.21z" fill="none"/>
  </clipPath>
  <clipPath id="ay">
   <path d="m213.09 104.5h15.61v-0.03h-15.59v-28.48h-0.02z" fill="none"/>
  </clipPath>
  <clipPath id="ax">
   <path d="m247.59 73.36v0.03h8.77l10.95 27.39c0.52 1.04 0.6 1.73 0.6 2.25 0 0.29-0.08 0.61-0.22 0.93 0.14-0.33 0.23-0.65 0.23-0.96 0-0.52-0.09-1.21-0.6-2.25l-10.96-27.39h-8.78z" fill="none"/>
  </clipPath>
  <clipPath id="av">
   <path d="m281.13 64.87-3.29 16.27c-0.52 2.16-1.04 5.27-1.55 7.52v0.03h-0.34c-0.52-2.16-1.21-5.27-1.81-7.6l-3.84-14.44-41.07 6.72h3.21v14.86c0 6.48 1.38 10.63 3.97 13.22 2.24 2.25 6.03 3.89 10.6 3.89 3.96 0 7.4-0.52 9.21-1.21v-11.81c-1.29 0.35-1.9 0.35-3.71 0.35-3.79 0-4.91-2.07-4.91-7.09v-12.18h0.01v-0.03h8.78l10.96 27.39c0.52 1.04 0.6 1.73 0.6 2.25 0 0.3-0.09 0.63-0.23 0.96s-0.34 0.66-0.56 0.97c-1.03 1.38-3.02 3.11-5 3.89-1.89 0.86-3.78 1.38-5.33 1.64l3.18 13.11c3.97-0.43 9.22-1.9 14.14-6.22 4.57-4.06 8.71-10.54 15.09-28.34l1.78-5.31 7.23-21.62-17.1 2.8z" fill="none"/>
  </clipPath>
  <clipPath id="au">
   <path d="m281.13 64.87-3.29 16.27c-0.52 2.16-1.04 5.27-1.55 7.52v0.03h-0.34c-0.52-2.16-1.21-5.27-1.81-7.6l-3.84-14.44-41.07 6.72h3.21v14.86c0 6.48 1.38 10.63 3.97 13.22 2.24 2.25 6.03 3.89 10.6 3.89 3.96 0 7.4-0.52 9.21-1.21v-11.81c-1.29 0.35-1.9 0.35-3.71 0.35-3.79 0-4.91-2.07-4.91-7.09v-12.18h0.01v-0.03h8.78l10.96 27.39c0.52 1.04 0.6 1.73 0.6 2.25 0 0.3-0.09 0.63-0.23 0.96s-0.34 0.66-0.56 0.97c-1.03 1.38-3.02 3.11-5 3.89-1.89 0.86-3.78 1.38-5.33 1.64l3.18 13.11c3.97-0.43 9.22-1.9 14.14-6.22 4.57-4.06 8.71-10.54 15.09-28.34l1.78-5.31 7.23-21.62-17.1 2.8z" fill="none"/>
  </clipPath>
  <clipPath id="at">
   <path d="m213.11 104.47h15.59v-31.03l-15.59 2.55z" fill="none"/>
  </clipPath>
  <clipPath id="as">
   <path d="m213.11 104.47h15.59v-31.03l-15.59 2.55z" fill="none"/>
  </clipPath>
 </defs>
 <g transform="translate(.22 -42.77)" clip-path="url(#ce)" fill="#fff">
  <path d="m66.68 42.9h15.86v14.78h-15.86z" fill="#fff"/>
 </g>
 <g transform="translate(.22 -42.77)" clip-path="url(#cd)" fill="#fff">
  <path d="m-0.22 49.99h82.58v55.48h-82.58z" fill="#fff"/>
 </g>
 <g transform="translate(.22 -42.77)" clip-path="url(#bs)">
  <path transform="rotate(-10,135.68,96.064)" d="m115.79 86.31h39.72v19.55h-39.72z" fill="url(#d)"/>
 </g>
 <g transform="translate(.22 -42.77)" clip-path="url(#bh)">
  <path transform="rotate(-10 173.85 91.628)" d="m168.51 87.85h10.64v7.6h-10.64z" fill="url(#n)"/>
 </g>
 <g transform="translate(.22 -42.77)" clip-path="url(#aw)">
  <path transform="rotate(-10,99.036,98.904)" d="m90.37 92.1h17.29v13.64h-17.29z" fill="url(#h)"/>
 </g>
 <g transform="translate(.22 -42.77)" clip-path="url(#ar)">
  <path transform="rotate(-10 165.14 91.788)" d="m133.88 74.18h62.53v35.22h-62.53z" fill="url(#g)"/>
 </g>
 <g transform="translate(.22 -42.77)" clip-path="url(#aq)">
  <path transform="rotate(-10 203.5 90.364)" d="m193.36 75.14h20.26v30.47h-20.26z" fill="url(#f)"/>
 </g>
 <g transform="translate(.22 -42.77)" clip-path="url(#ap)">
  <path transform="rotate(-10 262.26 107.2)" d="m256.33 103.06h11.86v8.29h-11.86z" fill="url(#c)"/>
 </g>
 <g transform="translate(.22 -42.77)" clip-path="url(#ao)">
  <path transform="rotate(-10 289.68 72.854)" d="m279.39 60.74h20.6v24.27h-20.6z" fill="url(#e)"/>
 </g>
 <g transform="translate(.22 -42.77)" clip-path="url(#an)">
  <path transform="rotate(-10 252.69 77.68)" d="m227.59 62.7h50.25v29.91h-50.25z" fill="url(#am)"/>
 </g>
 <g transform="translate(.22 -42.77)" clip-path="url(#cc)">
  <path transform="rotate(-10 220.9 88.95)" d="m210.53 72.31h20.76v33.27h-20.76z" fill="url(#al)"/>
 </g>
 <g transform="translate(.22 -42.77)" clip-path="url(#cb)">
  <path transform="rotate(-10 251.9 88.782)" d="m244.97 72.87h13.84v31.77h-13.84z" fill="url(#ak)"/>
 </g>
 <g transform="translate(.22 -42.77)" clip-path="url(#ca)">
  <path transform="rotate(-10 142.4 78.454)" d="m88.62 52.32h107.59v52.29h-107.59z" fill="url(#aj)"/>
 </g>
 <g transform="translate(.22 -42.77)" clip-path="url(#bz)" fill="#fff">
  <path d="m90.86 61h103.09v34.92h-103.09z" fill="#fff"/>
 </g>
 <g transform="translate(.22 -42.77)" clip-path="url(#by)">
  <path transform="rotate(-10 203.48 60.936)" d="m192.7 41.95h21.58v37.97h-21.58z" fill="url(#ai)"/>
 </g>
 <g transform="translate(.22 -42.77)" clip-path="url(#bx)" fill="#fff">
  <path d="m195.69 43.03h15.6v35.8h-15.6z" fill="#fff"/>
 </g>
 <g transform="translate(.22 -42.77)" clip-path="url(#bw)">
  <path transform="rotate(-10 220.95 50.14)" d="m211.86 41.5h18.19v17.31h-18.19z" fill="url(#ah)"/>
 </g>
 <g transform="translate(.22 -42.77)" clip-path="url(#bv)" fill="#fff">
  <path d="m213.02 42.77h15.86v14.78h-15.86z" fill="#fff"/>
 </g>
 <g transform="translate(.22 -42.77)" clip-path="url(#bu)">
  <path transform="rotate(-10 289.7 63.411)" d="m281.02 60.49h17.38v5.84h-17.38z" fill="url(#ag)"/>
 </g>
 <g transform="translate(.22 -42.77)" clip-path="url(#bt)" fill="#fff">
  <path d="m281.14 61.95h17.14v2.9h-17.14z" fill="#fff"/>
 </g>
 <g transform="translate(.22 -42.77)" clip-path="url(#br)">
  <path transform="rotate(-10 241.72 62.899)" d="m211.27 45.09h60.86v35.66h-60.86z" fill="url(#af)"/>
 </g>
 <g transform="translate(.22 -42.77)" clip-path="url(#bq)" fill="#fff">
  <path d="m213.11 49.85h57.19v26.13h-57.19z" fill="#fff"/>
 </g>
 <g transform="translate(.22 -42.77)" clip-path="url(#bp)">
  <path transform="rotate(-10,165.08,97.023)" d="m134.5 83.65h61.16v26.81h-61.16z" fill="url(#ae)"/>
 </g>
 <g transform="translate(.22 -42.77)" clip-path="url(#bo)">
  <path transform="rotate(-10 98.978 100.22)" d="m90.57 94.64h16.86v11.15h-16.86z" fill="url(#ad)"/>
 </g>
 <g transform="translate(.22 -42.77)" clip-path="url(#bn)">
  <path transform="rotate(-10 174.11 87.909)" d="m168.91 84.24h10.4v7.3h-10.4z" fill="url(#ac)"/>
 </g>
 <g transform="translate(.22 -42.77)" clip-path="url(#bm)">
  <path transform="rotate(-10 135.63 98.593)" d="m115.74 88.57h39.8v19.99h-39.8z" fill="url(#ab)"/>
 </g>
 <g transform="translate(.22 -42.77)" clip-path="url(#bl)">
  <path transform="rotate(-10 135.62 97.44)" d="m115.57 86.34h40.16v22.17h-40.16z" fill="url(#aa)"/>
 </g>
 <g transform="translate(.22 -42.77)" clip-path="url(#bk)">
  <path transform="rotate(-10 135.62 97.44)" d="m115.57 86.34h40.16v22.17h-40.16z" fill="url(#z)"/>
 </g>
 <g transform="translate(.22 -42.77)" clip-path="url(#bj)">
  <path transform="rotate(-10,99.036,98.904)" d="m90.37 92.11h17.28v13.63h-17.28z" fill="url(#y)"/>
 </g>
 <g transform="translate(.22 -42.77)" clip-path="url(#bi)">
  <path transform="rotate(-10,99.036,98.904)" d="m90.37 92.11h17.28v13.63h-17.28z" fill="url(#x)"/>
 </g>
 <g transform="translate(.22 -42.77)" clip-path="url(#bg)">
  <path transform="rotate(-10 165.15 92.25)" d="m133.86 74.21h62.62v36.13h-62.62z" fill="url(#w)"/>
 </g>
 <g transform="translate(.22 -42.77)" clip-path="url(#bf)">
  <path transform="rotate(-10 165.15 92.25)" d="m133.86 74.21h62.62v36.13h-62.62z" fill="url(#v)"/>
 </g>
 <g transform="translate(.22 -42.77)" clip-path="url(#be)">
  <path transform="rotate(-10 203.5 91.689)" d="m193.57 77.68h19.82v27.98h-19.82z" fill="url(#u)"/>
 </g>
 <g transform="translate(.22 -42.77)" clip-path="url(#bd)">
  <path transform="rotate(-10 203.5 90.364)" d="m193.36 75.15h20.25v30.46h-20.25z" fill="url(#t)"/>
 </g>
 <g transform="translate(.22 -42.77)" clip-path="url(#bc)">
  <path transform="rotate(-10 203.5 90.364)" d="m193.36 75.15h20.25v30.46h-20.25z" fill="url(#s)"/>
 </g>
 <g transform="translate(.22 -42.77)" clip-path="url(#bb)">
  <path transform="rotate(-10 273.92 103.67)" d="m253.59 81.02h40.61v45.24h-40.61z" fill="url(#r)"/>
 </g>
 <g transform="translate(.22 -42.77)" clip-path="url(#ba)">
  <path transform="rotate(-10 278.69 76.787)" d="m274.26 64.63h8.9v24.27h-8.9z" fill="url(#q)"/>
 </g>
 <g transform="translate(.22 -42.77)" clip-path="url(#az)">
  <path transform="rotate(-10 242.63 89.354)" d="m226.45 71.24h32.32v36.23h-32.32z" fill="url(#p)"/>
 </g>
 <g transform="translate(.22 -42.77)" clip-path="url(#ay)">
  <path transform="rotate(-10 220.9 90.217)" d="m210.74 74.85h20.32v30.78h-20.32z" fill="url(#o)"/>
 </g>
 <g transform="translate(.22 -42.77)" clip-path="url(#ax)">
  <path transform="rotate(-10,257.78,88.663)" d="m245.09 71.83h25.35v33.66h-25.35z" fill="url(#m)"/>
 </g>
 <g transform="translate(.22 -42.77)" clip-path="url(#av)">
  <path transform="rotate(-10 263.69 92.809)" d="m224.39 56.54h78.66v72.55h-78.66z" fill="url(#l)"/>
 </g>
 <g transform="translate(.22 -42.77)" clip-path="url(#au)">
  <path transform="rotate(-10 263.69 92.809)" d="m224.39 56.54h78.66v72.55h-78.66z" fill="url(#k)"/>
 </g>
 <g transform="translate(.22 -42.77)" clip-path="url(#at)">
  <path transform="rotate(-10 220.9 88.95)" d="m210.53 72.32h20.74v33.26h-20.74z" fill="url(#j)"/>
 </g>
 <g transform="translate(.22 -42.77)" clip-path="url(#as)">
  <path transform="rotate(-10 220.9 88.95)" d="m210.53 72.32h20.74v33.26h-20.74z" fill="url(#i)"/>
 </g>
</svg>
