<svg version="1.1" viewBox="0 0 800 594.21" xmlns="http://www.w3.org/2000/svg">
 <g transform="scale(2.3757)" fill="#ff10ff">
  <path d="m251.84 37.603h-9.156v-8.039h26.708v8.039h-9.11v24.966h-8.441v-24.966zm42.473-8.039h9.602l-13.131 33.005h-7.458l-13.31-33.005h9.691l7.37 20.857zm34.21 0h8.218v33.005h-6.297l-15.007-17.687v17.687h-8.173v-33.005h5.984l15.274 17.91v-17.91z"/>
 </g>
 <radialGradient id="a" cx="220.35" cy="13.882" r="382.66" gradientTransform="scale(2.3757)" gradientUnits="userSpaceOnUse">
  <stop stop-color="#ff10ff" offset="0"/>
  <stop stop-color="#ff14fa" offset=".071"/>
  <stop stop-color="#ff21ec" offset=".155"/>
  <stop stop-color="#ff36d4" offset=".246"/>
  <stop stop-color="#fe54b3" offset=".341"/>
  <stop stop-color="#fe7a88" offset=".44"/>
  <stop stop-color="#fea855" offset=".54"/>
  <stop stop-color="#fddc1a" offset=".639"/>
 </radialGradient>
 <path d="m594.21 297.1c0 164.09-133.02 297.1-297.1 297.1s-297.1-133.02-297.1-297.1 133.02-297.1 297.1-297.1 297.1 133.02 297.1 297.1z" clip-rule="evenodd" fill="url(#a)" fill-rule="evenodd" stroke-width="2.3757" Googl="true"/>
 <path d="m200.78 148.02v16.91h186.01l-148.13 295.93 21.301 0.24232 147.96-300.4v-12.682z" clip-rule="evenodd" fill="#fff" fill-rule="evenodd" stroke-width="2.3757"/>
</svg>
