<svg enable-background="new 0 0 80 22" Googl="true" version="1.1" viewBox="0 0 800 205.13" xml:space="preserve" xmlns="http://www.w3.org/2000/svg">
<g transform="matrix(10.256 0 0 10.256 -10.256 -10.256)">
	<path d="m17.9 17h-0.5l-3.7-12h-4.8l5.2 14.9c0.2 0.6 0.8 1.1 1.5 1.1h4.1c0.7 0 1.3-0.5 1.5-1.1l5.3-14.9h-4.8z" fill="#fff"/>
	<path d="m39 4.9c-2.3 0-4 1-6.2 2.7v-2.6h-4.6v16h4.6v-10.3c1.7-1.2 3.1-1.8 4.4-1.8 1.2 0 1.5 0.5 1.5 1.8v10.3h4.6v-11.7c0.1-2.8-1.4-4.4-4.3-4.4" fill="#fff"/>
	<path d="m6.9 17c-1 0-1.4-0.4-1.4-1.4v-6.6h2.8l-1.3-4h-1.5v-4h-4.5v15.5c0 2.9 1.6 4.5 4.4 4.5h3.6v-4z" fill="#fff"/>
	<path d="m68.9 17c-1 0-1.4-0.4-1.4-1.4v-6.6h2v-4h-2v-4h-4.5v15.5c0 2.8 1.6 4.5 4.4 4.5h3.6v-4z" fill="#fff"/>
	<path d="m53.5 17c-1.7-0.1-2.8-0.5-3.1-2.5h5.5c3.3 0 4.6-1.5 4.6-4.3 0-3.5-2-5.3-7.2-5.3-5.5 0-7.7 2-7.7 8.1 0 5.6 2.2 7.9 7.9 7.9h0.1 6.1v-4h-6.2zm0-8.6c2 0 2.5 0.5 2.5 1.9 0 0.8-0.2 1.5-1.5 1.5h-4.3c0.3-2.9 1-3.5 3.3-3.4" fill="#fff"/>
	<rect x="75" y="17" width="4" height="4" fill="#f8af07"/>
</g>
</svg>
