<?xml version="1.0" encoding="UTF-8" standalone="no"?>
<svg xmlns:rdf="http://www.w3.org/1999/02/22-rdf-syntax-ns#" xmlns="http://www.w3.org/2000/svg" height="735.87" width="600" version="1.1" xmlns:cc="http://creativecommons.org/ns#" xmlns:dc="http://purl.org/dc/elements/1.1/" viewBox="0 0 158.75 194.69825">
 <g transform="translate(85.423 -190.55)">
  <path d="m73.327 349.13h-158.75v-158.58h158.75z" fill="#e22525"/>
  <path fill="#fff" d="m-51.41 315.25v-90.64h22.674l45.394 54.48v-54.48h22.673v90.64h-22.673l-45.394-54.29v54.29z"/>
  <path fill="#bbaaa0" d="m-78.311 369.2h-7.108v-3.65h19.428v3.65h-7.12v15.5h-5.2z"/>
  <path fill="#bbaaa0" d="m-68.036 365.55h5.71l5.556 14.59 5.556-14.59h5.721l-8.505 19.15h-5.532z"/>
  <g fill="#221e1f">
   <path d="m-27.36 365.55h5.047v19.15h-5.663l-10.436-13.36h-0.06v13.36h-5.034v-19.15h6.029l10.058 13.36h0.059z"/>
   <path d="m-7.8269 365.01c10.306 0 11.917 6.11 11.917 10.12 0.0003 3.99-1.6108 10.12-11.917 10.12s-11.917-6.13-11.917-10.12c0-4.01 1.611-10.12 11.917-10.12m0.0001 16.59c4.7267 0 6.3851-3.5 6.3851-6.47s-1.6584-6.47-6.3851-6.47c-4.7261 0-6.3851 3.5-6.3851 6.47s1.659 6.47 6.3851 6.47"/>
   <path d="m6.6621 365.55h13.931c5.307 0 6.196 3.25 6.196 5.2 0 2.33-0.948 3.84-3.116 4.62v0.05c2.286 0.35 2.63 3.26 2.63 5.13 0 0.93 0.083 3.2 0.995 4.15h-5.686c-0.486-0.88-0.509-1.65-0.509-3.67 0-2.69-1.161-3.35-2.772-3.35h-6.468v7.02h-5.2009zm5.2009 8.48h6.906c1.149 0 2.488-0.65 2.488-2.44 0-1.91-1.505-2.39-2.761-2.39h-6.633v4.83"/>
   <path d="m41.945 374.03h9.761v10.67h-2.618l-0.699-2.23c-1.824 1.97-4.727 2.78-8.055 2.78-6.978 0-11.325-3.01-11.325-10.12 0-5.94 4.087-10.12 11.325-10.12 5.319 0 10.329 1.55 11.265 6.81h-5.792c-0.782-2.46-2.998-3.16-4.881-3.16-4.727 0-6.385 3.48-6.385 6.47 0 2.97 1.658 6.47 6.385 6.47 2.843 0 5.046-1.08 5.662-4.24h-4.643v-3.33"/>
   <path d="m55.172 365.55h17.9v3.65h-12.699v3.97h12.047v3.49h-12.047v4.4h12.805v3.64h-18.006z"/>
  </g>
 </g>
</svg>
