<svg width="267.67mm" height="85.334mm" version="1.1" viewBox="0 0 948.42 302.37" xmlns="http://www.w3.org/2000/svg">
 <defs>
  <clipPath id="a">
   <path d="m0 1004h1004v-1004h-1004z"/>
  </clipPath>
 </defs>
 <g transform="translate(-464.78 -297)">
  <g transform="matrix(2.1491 0 0 -2.1491 -139.84 1527)" fill="#fff">
   <path d="m597.89 541.67h124.77v24.731h-124.77z"/>
   <path d="m597.89 438.63h124.77v24.731h-124.77z"/>
   <g transform="translate(597.89 514.88)">
    <path d="m0 0v-24.73h124.77v24.73z" fill="#fff"/>
   </g>
   <g transform="translate(371.3 518.23)">
    <path d="m0 0-7.746-23.261-7.746 23.261h-32.943v-8.117h9.231v-24.352h8.813v24.352h8.509l8.871-24.352h10.391l11.828 32.469z" fill="#fff"/>
   </g>
   <g clip-path="url(#a)" fill="#fff">
    <g transform="translate(351.69 550.7)">
     <path d="m0 0c-26.855 0-48.703-21.848-48.703-48.702 0-26.855 21.848-48.703 48.703-48.703 26.854 0 48.701 21.848 48.701 48.703 0 26.854-21.847 48.702-48.701 48.702m0-119.05c-38.791 0-70.349 31.557-70.349 70.348 0 38.79 31.558 70.348 70.349 70.348s70.348-31.558 70.348-70.348c0-38.791-31.557-70.348-70.348-70.348" fill="#fff"/>
    </g>
    <g transform="translate(571.05 470.02)">
     <path d="m0 0v96.379h-24.73v-63.733z" fill="#fff"/>
    </g>
    <g transform="translate(571.1 438.63)">
     <path d="m0 0-96.793 127.78h-31.026l96.795-127.78z" fill="#fff"/>
    </g>
    <g transform="translate(443.32 535.01)">
     <path d="m0 0v-96.379h24.73v63.733z" fill="#fff"/>
    </g>
   </g>
  </g>
 </g>
</svg>
