<svg width="537.94" height="147.19" fill-rule="evenodd" version="1.0" viewBox="0 0 151.82 156.49" xml:space="preserve" xmlns="http://www.w3.org/2000/svg" xmlns:xlink="http://www.w3.org/1999/xlink">
 <defs>
  <style type="text/css"/>
  <linearGradient id="a" x1="240.84" x2="240.84" y1="187.57" y2="109.43" gradientUnits="userSpaceOnUse"><stop stop-color="#00268f" offset="0"/><stop stop-color="#40c9ff" offset="1"/></linearGradient></defs>
 <polygon transform="matrix(2.7234 0 0 1.9849 -210.05 -216.51)" points="210 187.92 0 187.92 0 109.08 0 109.08 210 109.08" fill="url(#a)"/><path d="m174.53 18.558-45.317 23.589v28.573l19.868-12.293-1.329 71.564h26.778v-111.43zm34.221 6.2129v69.704h54.221v-69.704h-54.221zm57.411 0v69.704h54.221v-69.704h-54.221zm7.1431 10.565h16.479c13.395 0 24.154 10.792 24.154 24.187 0 13.395-10.759 24.187-24.154 24.187h-16.479v-48.374zm-57.943 0.06645h9.9007v18.473h21.197v-18.473h9.9007v48.44h-9.9007v-20.599h-21.197v20.599h-9.9007v-48.44zm67.245 9.5685v29.104h6.379c8.0583 0 14.519-6.4938 14.519-14.552 0-8.0583-6.4606-14.552-14.519-14.552h-6.379z" fill="#fff"/><path d="m-63.169 29.19h72.932v95.844h-72.932v-95.844zm78.294 0h72.932v95.844h-72.932v-95.844zm15.795 15.795v65.229h13.163v-19.89l2.8277 0.0975c17.843 0 26.618-11.505 26.618-23.01 0-11.213-8.4826-22.425-25.351-22.425h-17.258zm13.163 12.675h4.7776c7.5078 0.0975 11.31 2.6324 11.798 10.14-0.38991 7.8001-4.8751 10.238-12.48 10.433h-4.0951v-20.573zm-70.786 54.601-30.226-68.056h14.625l15.113 34.418 0.48744 2.0477 0.48743-2.0477 15.015-34.418h14.723l-30.226 68.056zm-53.041-54.601v-12.675h-50.604v12.675h18.33v52.554h14.04v-52.554h18.233zm-61.719-28.471h72.932v95.844h-72.932v-95.844zm-5.3626-4.6801h240.25v105.2h-240.25v-105.2z" fill="#fff"/>
</svg>
