<?xml version="1.0" encoding="UTF-8" standalone="no"?>
<!-- Created with Inkscape (http://www.inkscape.org/) -->

<svg
   version="1.0"
   width="744.09448"
   height="279.35434"
   viewBox="0 0 210 297"
   id="svg2"
   xml:space="preserve"
   style="fill-rule:evenodd"
   xmlns="http://www.w3.org/2000/svg"
   xmlns:svg="http://www.w3.org/2000/svg"
   xmlns:rdf="http://www.w3.org/1999/02/22-rdf-syntax-ns#"
   xmlns:cc="http://creativecommons.org/ns#"
   xmlns:dc="http://purl.org/dc/elements/1.1/"><metadata
   id="metadata15"><rdf:RDF><cc:Work
       rdf:about=""><dc:format>image/svg+xml</dc:format><dc:type
         rdf:resource="http://purl.org/dc/dcmitype/StillImage" /></cc:Work></rdf:RDF></metadata>
 <defs
   id="defs4">
  <style
   type="text/css"
   id="style6" />
 
   
   
   
  </defs>
 <g
   transform="matrix(3.7666448,0,0,3.7666448,-290.54793,-410.82789)"
   id="Warstwa_x0020_1">
  <metadata
   id="CorelCorpID_0Corel-Layer" />
  <path
   d="m 63.5188,124.256 h 36.2688 v 47.6633 H 63.5188 Z m 38.9356,0 h 36.2688 v 47.6633 h -36.2688 z m 7.855,7.855 v 32.4382 h 6.5458 v -9.8915 l 1.4062,0.0485 c 8.8732,0 13.2371,-5.7215 13.2371,-11.4431 0,-5.576 -4.2184,-11.1521 -12.6068,-11.1521 z m 6.5458,6.3034 h 2.3759 c 3.7336,0.0485 5.6246,1.3091 5.867,5.0427 -0.1939,3.879 -2.4244,5.0912 -6.2064,5.1882 h -2.0365 z m -35.202,27.153 -15.0312,-33.8443 h 7.2732 l 7.5156,17.1161 0.2424,1.0183 0.2424,-1.0183 7.4671,-17.1161 h 7.3217 z M 55.2759,138.4144 V 132.111 H 30.1108 v 6.3034 h 9.1157 v 26.1348 h 6.9822 V 138.4144 Z M 24.5832,124.256 H 60.852 v 47.6633 H 24.5832 Z m -2.6668,-2.3274 h 119.474 v 52.3181 H 21.9164 Z"
   id="_74801320"
   style="fill:#030303;fill-opacity:1" /><polygon
   points="159.185,130.705 159.185,144.912 169.076,138.803 168.406,174.384 181.732,174.392 181.732,118.971 "
   id="_74801176"
   style="fill:#030303;fill-opacity:1" />
 </g>
</svg>
