<svg version="1.1" viewBox="0 0 672.99 400" xmlns="http://www.w3.org/2000/svg">
 <path d="m0 0h672.99v254.03h-672.99z" fill="#174891" stroke-width="12.619"/>
 <path d="m96.549 94.593h29.137v83.879h22.412v-83.879h29.137v-20.102h-80.686z" fill="#fff" stroke-width="12.619"/>
 <path d="m70.238 209.48h382.81v-167.67h-382.81zm258.11-160.14h116.3v152.62h-116.3zm-124.8 0h116.3v152.62h-116.3zm-124.8 0h116.3v152.62h-116.3z" fill="#fff" stroke-width="12.619"/>
 <path d="m380.96 74.402h-27.547v103.98h21.086v-31.8l4.5176 0.17667c28.342 0 42.249-18.424 42.249-36.671 0.0883-17.806-13.376-35.699-40.305-35.699zm0.0883 52.962h-6.5493v-32.772h7.6219c12.051 0.17667 18.071 4.2526 18.866 16.203-0.795 12.405-7.7986 16.392-19.926 16.569z" fill="#fff" stroke-width="12.619"/>
 <path d="m262.54 128-0.88333 3.281-0.79501-3.281-23.913-54.742h-23.383l48.091 108.32 48.18-108.32h-23.383z" fill="#fff" stroke-width="12.619"/>
 <path d="m583.97 117.89c17.099-5.136 25.781-18.954 25.781-35.876 0-25.869-19.926-43.22-55.183-43.22-38.703 0-60.584 18.512-61.291 49.517h40.57c0-11.509 7.8869-18.071 18.512-17.894 10.537 0.17667 18.159 6.9153 18.512 17.187 0.79501 22.853-11.698 27.017-20.456 31.358 9.4769 5.8426 24.09 7.8869 24.178 37.643 0 12.14-7.7103 21.086-21.793 21.086-13.376 0-20.456-7.7103-20.456-22.323v-2.8393h-42.425v2.2967c0 35.169 24.62 57.745 63.6 57.745 37.113 0 62.616-22.323 62.616-54.918 0.17667-22.146-11.067-36.229-32.153-39.775z" fill="#fff" stroke-width="12.619"/>
 <path d="m324.01 400h-51.107v-82.201h50.666v17.011h-31.623v14.79h27.017v16.834h-27.017v16.291h32.065z" fill="#174891" stroke-width="12.619"/>
 <path d="m389.99 400h-51.637v-82.201h19.661v64.572h31.977z" fill="#174891" stroke-width="12.619"/>
 <path d="m225.6 400h-23.648l-29.226-37.819v37.819h-19.396v-82.201h19.396v35.788l27.106-35.788h23.383l-31.005 39.144z" fill="#174891" stroke-width="12.619"/>
 <path d="m235.26 317.8h19.572v82.112h-19.572z" fill="#174891" stroke-width="12.619"/>
 <path d="m456.15 372.72-1.2367 20.456c-6.6376 4.606-14.348 6.8143-22.942 6.8143-9.2119 0-17.452-2.8393-24.62-8.4169-4.871-3.811-8.6819-8.5936-11.332-14.26-2.751-5.5776-3.9876-11.786-3.9876-18.424 0-5.666 0.97167-10.979 2.9276-16.026 1.855-5.0476 4.6943-9.4769 8.5053-13.288 7.7103-7.9753 17.276-11.875 28.607-11.875 8.5936 0 16.569 2.385 23.648 7.2686l-1.9433 19.661c-6.5493-6.726-13.465-10.095-20.91-10.095-6.5493 0-11.875 2.2083-16.026 6.6376s-6.196 10.184-6.196 17.452c0 7.0919 2.0317 12.846 6.1076 17.187 3.9876 4.341 9.4769 6.5493 16.115 6.5493 7.7103 0.0883 15.585-3.1926 23.295-9.6536z" fill="#174891" stroke-width="12.619"/>
 <path d="m519.76 400h-51.107v-82.201h50.577v17.011h-31.535v14.79h27.017v16.834h-27.017v16.291h32.065z" fill="#174891" stroke-width="12.619"/>
</svg>
