<svg width="143.51mm" height="95.662mm" version="1.1" viewBox="0 0 143.51 95.662" xmlns="http://www.w3.org/2000/svg">
 <g transform="translate(-240.13 16.581)" fill="#fff">
  <path d="m290.68 6.8703-0.23211 0.86253-0.20914-0.86253-6.2865-14.391h-6.1472l12.643 28.477 12.666-28.477h-6.1472zm31.131-14.089h-7.242v27.336h5.5434v-8.3599l1.1876 0.04645c7.451 0 11.107-4.8435 11.107-9.6405 0.0236-4.6809-3.5165-9.385-10.596-9.385zm0.0236 13.923h-1.7217v-8.6154h2.0037c3.1682 0.046453 4.7506 1.118 4.9596 4.2596-0.20914 3.261-2.0502 4.3093-5.2382 4.3558zm-81.708 21.587h100.64v-44.079h-100.64zm67.855-42.098h30.573v40.121h-30.573zm-32.809 0h30.573v40.121h-30.573zm-32.809 0h30.573v40.121h-30.573zm4.6809 11.896h7.66v22.051h5.8918v-22.051h7.66v-5.2847h-21.212z" stroke-width="3.3174"/>
  <path d="m375.18 4.213c4.4951-1.3502 6.7775-4.9828 6.7775-9.4315 0-6.8007-5.2382-11.362-14.507-11.362-10.175 0-15.927 4.8667-16.113 13.018h10.666c0-3.0255 2.0734-4.7506 4.8666-4.7041 2.7701 0.046453 4.7738 1.818 4.8667 4.5183 0.20913 6.0079-3.0753 7.1026-5.3776 8.2438 2.4914 1.536 6.333 2.0734 6.3562 9.8959 0 3.1914-2.027 5.5434-5.7292 5.5434-3.5165 0-5.3776-2.027-5.3776-5.8685v-0.74642h-11.153v0.60378c0 9.2457 6.4723 15.181 16.72 15.181 9.7566 0 16.461-5.8685 16.461-14.437 0.0465-5.8221-2.9094-9.5243-8.4528-10.457z" stroke-width="3.3174"/>
  <path d="m350.87 78.254v-22.506h0.49613l13.576 12.719v-12.012h4.7959v22.626h-0.45102l-13.621-12.719v11.892zm-15.831-6.9307h5.728l-2.8264-6.8255zm-8.1485 6.9307 11.11-22.476h0.33076l10.87 22.476h-5.4423l-1.3831-3.1722h-8.84l-1.4132 3.1722zm-20.461 0v-22.506h0.49609l13.576 12.719v-12.012h4.7959v22.626h-0.45102l-13.621-12.719v11.892zm-22.596 0 10.84-17.244h-9.727l0.82688-4.5553h17.304l-10.809 17.184h10.809l-0.82686 4.6155zm-18.567-10.9q0 2.8414 1.6538 4.7658 1.6688 1.9093 4.1043 1.9093 2.4506 0 4.1043-1.9093 1.6538-1.9093 1.6538-4.7658 0-2.8715-1.6538-4.7808-1.6538-1.9244-4.1043-1.9244-2.4355 0-4.1043 1.9244-1.6538 1.9093-1.6538 4.7808zm-5.3521 0q0-2.4205 0.82687-4.5253 0.84191-2.1198 2.4656-3.7886 1.5335-1.5936 3.5631-2.4355 2.0296-0.85694 4.2546-0.85694 2.225 0 4.2547 0.85694 2.0446 0.85694 3.6232 2.4656 1.5936 1.6087 2.4055 3.7284 0.82685 2.1048 0.82685 4.5553 0 2.0446-0.57129 3.8487-0.5713 1.8041-1.6988 3.2925-1.5936 2.1198-3.9239 3.2925-2.3152 1.1727-4.9162 1.1727-2.21 0-4.2396-0.85694-2.0146-0.85694-3.5781-2.4656-1.6237-1.6688-2.4656-3.7585-0.82687-2.1048-0.82687-4.5253zm-10.96-6.9006h-0.70662v5.8182h0.94716q1.9694 0 3.0068-0.7517 1.0374-0.76674 1.0374-2.195 0-1.4884-1.0223-2.1799-1.0223-0.69157-3.2624-0.69157zm-5.9084 17.8v-21.799h5.6077q2.5858 0 4.1043 0.37585 1.5184 0.37585 2.6911 1.2629 1.2178 0.88701 1.8792 2.225 0.67654 1.323 0.67654 2.8114 0 3.3075-2.3603 5.2469-2.3453 1.9394-6.3744 1.9394-0.42096 0-0.63142 0-0.21061-0.01502-0.39091-0.0301v7.9681zm117.47-29.516-2.5344 5.1922h3.7385l3.5315-5.1922z"/>
 </g>
</svg>
