<svg version="1.1" viewBox="0 0 674.83 400" xml:space="preserve" xmlns="http://www.w3.org/2000/svg">
<style type="text/css">
	.st0{fill:#174891;}
	.st1{fill:#FFFFFF;}
</style>

<path class="st0" d="m0 0h674.83v254.93h-674.83z" stroke-width="3.8278"/>
<path class="st1" d="m96.842 94.928h29.091v84.211h22.584v-84.211h29.091v-20.287h-80.766z" stroke-width="3.8278"/>
<path class="st1" d="m70.431 210.14h383.92v-168.04h-383.92zm258.76-160.77h116.75v153.11h-116.75zm-125.17 0h116.75v153.11h-116.75zm-125.17 0h116.75v153.11h-116.75z" stroke-width="3.8278"/>
<path class="st1" d="m382.01 74.641h-27.56v104.11h21.053v-31.77h4.5933c28.325 0 42.488-18.373 42.488-36.746 0-17.608-13.397-35.598-40.574-35.598zm0 53.206h-6.5072v-32.919h7.6555c12.249 0 17.99 4.2105 18.756 16.077-0.38278 12.632-7.6555 16.459-19.904 16.842z" stroke-width="3.8278"/>
<path class="st1" d="m263.35 128.23-0.76555 3.445-0.76555-3.445-24.115-54.737h-23.349l48.23 108.71 48.23-108.71h-23.349z" stroke-width="3.8278"/>
<path class="st1" d="m585.65 118.28c17.225-4.9761 26.029-19.139 26.029-35.981 0-26.029-19.904-43.254-55.502-43.254-38.66 0-60.861 18.756-61.627 49.761h40.574c0-11.483 8.0383-17.99 18.756-17.99 10.718 0 18.373 6.89 18.756 17.225 0.76555 22.967-11.866 27.177-20.67 31.388 9.5694 5.7416 24.115 8.0383 24.115 37.895 0 12.249-7.6555 21.053-21.818 21.053-13.397 0-20.67-7.6555-20.67-22.201v-3.0622h-42.488v2.2966c0 35.215 24.88 57.799 63.923 57.799 37.129 0 62.775-22.201 62.775-55.12 0.38278-22.201-11.1-36.364-32.153-39.809z" stroke-width="3.8278"/>
<path class="st0" d="m302.39 313.11h-1.1483l-40.574 83.445h19.139l5.3588-11.483h32.153l4.9761 11.483h19.904zm-12.249 57.799 10.718-25.263 10.335 25.263z" stroke-width="3.8278"/>
<path class="st0" d="m567.27 396.56h-23.732l-29.091-37.512v37.512h-19.522v-81.914h19.522v35.598l27.177-35.598h23.349l-31.005 39.043z" stroke-width="3.8278"/>
<path class="st0" d="m481.91 373.59c0 7.6555-2.6794 14.163-8.0383 19.139-4.9761 4.9761-12.249 7.2727-21.435 7.2727-5.7416 0-13.014-1.1483-21.053-3.8278l-1.5311-21.435c4.2105 2.6794 8.421 4.5933 11.866 6.5072 3.445 1.5311 7.2727 2.2966 10.718 2.2966 3.0622 0 5.7416-0.76555 8.0383-2.2966 1.9139-1.5311 2.6794-3.445 2.6794-6.1244 0-3.0622-1.9139-6.1244-5.3588-8.0383-0.38277-0.38278-3.0622-1.9139-8.0383-4.5933l-5.3589-3.0622c-10.335-6.1244-15.311-13.397-15.311-22.967 0-6.89 2.2966-11.483 7.2727-16.077 4.5933-4.2105 11.1-6.5072 18.756-6.5072 3.0622 0 6.1244 0.38277 9.5694 1.1483 3.445 0.76555 6.89 1.9139 10.718 3.0622v19.139c-3.8278-2.6794-8.0383-4.5933-11.1-6.1244-3.445-1.1483-6.1244-1.9139-8.8038-1.9139-2.6794 0-4.5933 0.76555-6.1244 1.9139-1.5311 1.1483-2.2966 2.6794-2.2966 4.5933 0 2.6794 1.9139 5.7416 5.3588 7.2727l9.5694 5.7416c6.89 3.8278 11.483 7.2727 14.163 10.335 3.8278 3.445 5.7416 8.0383 5.7416 14.545z" stroke-width="3.8278"/>
<path class="st0" d="m177.61 391.58c-11.1 5.7416-21.435 8.0383-31.388 8.0383-12.632 0-22.967-4.2105-31.005-12.249-8.421-8.0383-12.249-18.373-12.249-31.005 0-12.249 4.2105-22.967 12.632-31.005 8.421-8.0383 18.756-12.249 31.77-12.249 9.5694 0 18.373 2.6794 26.411 7.6555l-1.9139 20.287c-7.2727-7.2727-15.311-10.718-23.349-10.718-7.2727 0-13.397 2.6794-18.373 6.89-4.9761 4.9761-7.2727 10.718-7.2727 18.373 0 7.6555 2.2966 14.163 6.89 19.139 4.5933 4.9761 10.718 6.89 17.99 6.89 3.445 0 6.89-0.76555 10.335-1.9139v-11.866h-15.694v-16.459h34.833z" stroke-width="3.8278"/>
<path class="st0" d="m250.33 327.27c-8.8038-7.2727-21.053-11.1-36.746-11.1h-21.818v80.383h21.818c5.7416 0 11.1-0.38277 15.694-1.5311 4.5933-0.76555 8.8038-2.6794 13.014-4.9761 13.397-7.2727 20.287-19.139 20.287-34.45 0.38278-11.483-3.8278-21.053-12.249-28.325zm-14.545 45.933c-4.9761 4.2105-11.483 6.5072-20.287 6.5072h-4.2105v-46.316h4.2105c8.8038 0 15.694 2.2966 20.287 6.1244 4.9761 4.2105 7.2727 9.5694 7.2727 17.225-0.38277 6.89-2.6794 12.249-7.2727 16.459z" stroke-width="3.8278"/>
<path class="st0" d="m400.38 290.14-13.014 19.139h-13.014l9.5694-19.139z" stroke-width="3.8278"/>
<path class="st0" d="m415.69 396.94h-1.5311c-16.077-14.545-32.536-29.091-48.612-43.254v40.574h-17.225v-81.148h1.9139l48.23 45.933v-43.636h16.842z" stroke-width="3.8278"/>
<path class="st0" d="m348.33 394.26" stroke-width="3.8278"/>
<polyline class="st0" transform="scale(3.8278)" points="95.5 102.8 91 102.8 91 103.6 95.5 103.6"/>
</svg>
