<svg version="1.1" viewBox="0 0 800 121.85" xml:space="preserve" xmlns="http://www.w3.org/2000/svg">
	<g transform="matrix(.36364 0 0 .36364 -2.5455 -2.2909)">
		<path d="m7 6.3v335.1h2200v-335.1h-2200zm659.5 16.199h1524.5v302.4h-1524.5v-302.4zm-570.9 37.302h499.6v223h-499.6v-223zm11.097 10.001v203h151.8v-203h-151.8zm162.8 0v203h151.8l-0.09668-203h-151.7zm162.9 0v203h151.7 0.09668v-203h-151.8zm-149.8 31.797h30.497l31.201 72.902 1.1011 4.2969 1.1011-4.3989 31.201-72.8h30.497l-62.799 144.1-62.799-144.1zm222.7 1.4018c26.6-0.2 48.301 21.197 48.501 47.797 0 24.2-18.199 48.7-55.199 48.7l-5.8975-0.19873v42.201h-27.5v-138.3h35.895c1.4-0.1 2.8002-0.19873 4.2002-0.19873zm-375.3 0.19873h105.2v26.802h-38v111.5h-29.203v-111.5h-38v-26.802zm362.6 26.802v43.699h8.5991c15.8-0.3 25.001-5.6021 26.001-22.102-1.2-15.9-9.0017-21.397-24.702-21.597h-9.8989z"/>
		<path d="m872.2 139.4c0.6 15.3-5.9 30-17.6 39.9-13.7 10.6-30.8 15.9-48.1 15-3.4 0-5.9-0.1-7.6-0.2v61h-39.1v-166.8h42.1c17.9-1.3 35.8 3 51.1 12.5 12.4 8.8 19.6 23.3 19.2 38.6zm-35.7 1.4c0-14.6-10.7-21.9-32.2-21.9h-5.3v44.5h7.2c20.2 0 30.3-7.5 30.3-22.6z"/>
		<path d="m1022.3 255.1h-40.9l-10.4-24.3h-66.4l-10.6 24.3h-39.3l83.5-172h2.5zm-63.3-53-21.3-52.3-21.7 52.3z"/>
		<path d="m1167.8 255.1h-44.6l-43.7-65.5h-5.5v65.5h-38v-166.8h42.1c17.8-1.4 35.7 2.7 51.1 11.8 12.3 8.4 19.5 22.4 19.2 37.2 0.9 20.4-11.4 39-30.5 46.2zm-55.3-113.8c0.6-6.8-2.3-13.4-7.8-17.4-7.5-4-15.9-5.8-24.4-5.2h-6.5v46.2h8.3c20.3 0 30.4-7.9 30.4-23.6z"/>
		<path d="m1285.8 219.3v35.8h-102.9v-166.9h39.1v131.1z"/>
		<path d="m1458.4 255.1h-40.9l-10.4-24.3h-66.4l-10.6 24.3h-39.3l83.5-172h2.5zm-63.4-53-21.3-52.3-21.7 52.3z"/>
		<path d="m1515.2 177.9-14.3 77.2h-34.9l34-172.2h2.7l61.8 108.7 58.2-108.7h3l34.3 172.2h-37.3l-13.8-76-44 82.2h-2.5z"/>
		<path d="m1719.5 122.7v30.1h53.9v34.2h-53.9v32.9h63.9v35.2h-101.8v-166.9h100.8v34.5z"/>
		<path d="m1813.3 82.9h3.7l102 97.3v-92h36v173.4h-3.5l-102.2-97.4v90.9h-36z"/>
		<path d="m1971.5 123.2v-35h142.9v35h-51.7v131.9h-39.1v-131.9z"/>
	</g>
</svg>
