<svg width="211.67mm" height="95.943mm" version="1.1" viewBox="0 0 211.67 95.943" xmlns="http://www.w3.org/2000/svg">
 <g transform="translate(58.586 -26.659)">
  <g transform="matrix(.17444 0 0 .17444 -58.586 26.659)" clip-rule="evenodd" fill="#fff" fill-rule="evenodd">
   <path class="st0" d="m1213.4 543.3-88.1-182.1h-2.7l-89.5 182.1h42.3l11.2-26.1h71.5l11.2 26.1zm-68.4-56.3h-46.3l23.4-55.3zm-152 56.3v-176.7h-42.3v176.7zm-104.3 6.7v-183.5h-38.7v97.2l-110.2-103h-3.6v182.6h38.7v-96.7l110.2 103.4zm-197-95.3c0-26.1-9-49.5-26.5-67-17.1-17.6-39.6-27-63.4-27-24.3 0-46.8 9.5-63.4 27-17.6 17.6-26.5 40.9-26.5 67s9 49 26.5 67.5c16.6 17.1 39.6 27 63.4 27 27.4 0 54-13.5 71.5-36.4 12.1-16.3 18.4-36.1 18.4-58.1zm-43.6 0c0 31.5-20.7 54.4-46.3 54.4-26.1 0-46.8-22.9-46.8-54.4s20.7-54.4 46.8-54.4c25.6 0 46.3 22.9 46.3 54.4zm-159.2 88.6v-38.2h-68.8v-138.5h-42.3v176.7zm-155.7-88.6c0-26.1-9-49.5-26.1-67-17.6-17.6-40-27-63.9-27-23.8 0-46.8 9.5-63.4 27-17.6 17.6-26.5 40.9-26.5 67s9 49 26.5 67.5c17.1 17.1 39.6 27 63.4 27 27.9 0 54-13.5 71.5-36.4 12.2-16.3 18.5-36.1 18.5-58.1zm-43.6 0c0 31.5-20.2 54.4-46.3 54.4s-46.8-22.9-46.8-54.4 20.7-54.4 46.8-54.4 46.3 22.9 46.3 54.4zm-168.2-34.2c0-15.7-7.6-31-21.1-40.9-14.8-11.2-32.4-13-54.9-13h-45.4v176.7h42.3v-64.8c2.7 0.5 5.4 0.5 8.1 0.5 44.5-0.1 71-23.4 71-58.5zm-39.1 1.3c0 15.3-10.8 24.3-32.4 24.3h-7.6v-47.2h5.8c22.9 0 34.2 6.3 34.2 22.9z"/>
   <path class="st0" d="m337.6 2.0366e-14v260.3h535v-260.3h-535zm69.9 41.799h395.1v173.1h-395.1v-173.1zm8.8013 7.6992v157.4h120.2v-157.4h-120.2zm129 0v157.4h119.6 0.10072v-157.4h-119.7zm128.4 0v157.4h120.2v-157.4h-120.2zm-118 24.7h23.901l24.7 56.401 0.79985 3.5015 0.79984-3.5015 24.7-56.401h23.901l-49.401 111.7-49.401-111.7zm144.1 1.0013h28.4c27.7 0 41.5 18.4 41.5 37 0 18.9-14.4 37.8-43.6 37.8h-4.4999v32.598h-21.8v-107.4zm-264.8 0.10072h83.199v21h-30.299v86.398h-22.899v-86.398h-30v-21zm286.3 21v33.798h6.8994c12.5-0.3 19.7-4.3004 20.5-17.3-0.8-12.3-6.8977-16.498-19.398-16.498h-8.0014z"/>
  </g>
 </g>
</svg>
