<?xml version="1.0" encoding="UTF-8" standalone="no"?>
<!-- Generator: Adobe Illustrator 27.3.1, SVG Export Plug-In . SVG Version: 6.00 Build 0)  -->

<svg
   version="1.1"
   id="b766fffb-bdcd-4f3c-b941-bddfd0e9e262"
   x="0px"
   y="0px"
   viewBox="0 0 2200 503"
   style="enable-background:new 0 0 2200 503;"
   xml:space="preserve"
   sodipodi:docname="tvpsport.dark.svg"
   inkscape:version="1.2.2 (732a01da63, 2022-12-09, custom)"
   xmlns:inkscape="http://www.inkscape.org/namespaces/inkscape"
   xmlns:sodipodi="http://sodipodi.sourceforge.net/DTD/sodipodi-0.dtd"
   xmlns="http://www.w3.org/2000/svg"
   xmlns:svg="http://www.w3.org/2000/svg"><sodipodi:namedview
   id="namedview936"
   pagecolor="#ffffff"
   bordercolor="#000000"
   borderopacity="0.25"
   inkscape:showpageshadow="2"
   inkscape:pageopacity="0.0"
   inkscape:pagecheckerboard="0"
   inkscape:deskcolor="#d1d1d1"
   showgrid="false"
   inkscape:zoom="0.43181818"
   inkscape:cx="1100"
   inkscape:cy="253.57895"
   inkscape:window-width="1530"
   inkscape:window-height="1136"
   inkscape:window-x="0"
   inkscape:window-y="0"
   inkscape:window-maximized="1"
   inkscape:current-layer="b766fffb-bdcd-4f3c-b941-bddfd0e9e262" /><defs
   id="defs2507" />
<style
   type="text/css"
   id="style2496">
	.st0{fill:#2C273D;}
	.st1{fill:#EBFF14;}
</style>

<g
   id="babb60d6-e5aa-49e2-b78b-03ff91310281"
   style="fill:#030303;fill-opacity:1">
	<g
   id="aff925ee-65ff-43c8-b261-c15a87a68f3a"
   style="fill:#030303;fill-opacity:1">
		<path
   id="eba3fbca-7eb1-49d8-8568-24059dbe05ff"
   class="st1"
   d="M1820,141h185.5v46.5h-65.2v184.3h-55.1V187.5H1820L1820,141    L1820,141z M1023.7,377.1c61.8,0,99.8-34.8,99.8-77.6c0-27.8-15.5-49.2-52.1-62.9l-28.6-10.7c-26.9-10-35.9-16.4-35.9-27.1    c0-12.7,11.4-20.7,33.6-20.7c19.4,0.8,38.3,6.7,54.8,17.1l18.1-42.1c-21.6-11.3-45.5-17.3-69.9-17.4c-53.4,0-91.4,28.8-91.4,72.6    c0,30.4,18.5,51.8,56.4,65.9l24.5,9c25.5,9.4,35.6,16.4,35.6,27.4c0,14.4-17.1,23.1-40.3,23.1c-22.3-0.7-43.7-8.5-61.1-22.4    l-16.8,45.1C972.1,370.7,997.7,378,1023.7,377.1z M1479,330.6c-40.7,0-64.2-36.1-64.2-75.2c0-41.8,21.8-73.2,63.5-73.2    c40.6,0,64.2,34.1,64.2,74.6S1522,330.6,1479,330.6z M1475.6,377.1c81.6,0,123.6-58.6,123.6-121.1c0-60.2-40.6-120.4-119.6-120.4    c-64.1-3-118.6,46.6-121.6,110.7c-0.2,3.2-0.2,6.4,0,9.7C1358.1,319.5,1399.7,377.1,1475.6,377.1z M1684.2,259.4v-75.3h23.2    c31.3,0,42,16.1,42,37.5s-14.4,37.8-44.7,37.8H1684.2z M1714,302.5l41.8,69.2h63l-51-84.2c23.5-13.7,38.2-38.7,38.5-65.9    c0-45.2-29.2-80.6-97.8-80.6h-79.3v230.8h55.1v-69.2H1714L1714,302.5z M1233.9,141h-79.3v230.8h55.1v-69.2h25.2    c61.8,0,96.8-39.5,96.8-80.9C1331.7,176.4,1302.4,141,1233.9,141L1233.9,141z M1209.7,259.4v-75.3h23.2c31.3,0,42,16.1,42,37.5    s-14.5,37.8-44.7,37.8H1209.7z"
   style="fill:#030303;fill-opacity:1" />
		<path
   id="b45b471e-61f3-4770-b8ba-9ef1587c6717"
   class="st1"
   d="M730.3,259.4v-75.3h23.2c31.3,0,42,16.1,42,37.5    s-14.5,37.8-44.7,37.8H730.3z M754.5,141h-79.3v230.8h55.1v-69.2h25.2c61.8,0,96.8-39.5,96.8-80.9    C852.3,176.4,823.1,141,754.5,141L754.5,141z M380,141H194.5v46.5h65.2v184.3h55.1V187.5H380L380,141L380,141z M527.6,278.8    L590.7,141h59.5l-110,230.8h-25.3L404.9,141h59.5L527.6,278.8L527.6,278.8z"
   style="fill:#030303;fill-opacity:1" />
	</g>
</g>
</svg>
