<svg xmlns="http://www.w3.org/2000/svg" height="403.01" width="600" viewBox="0 0 158.75 106.631">
    <defs>
        <linearGradient id="j" gradientUnits="userSpaceOnUse" gradientTransform="matrix(0 20.68 20.68 0 174.98 77.342)" x1="0" x2="1" y1="0" y2="0">
            <stop stop-color="#fff" offset="0"/>
            <stop stop-color="#eb7e81" offset="1"/>
        </linearGradient>
        <linearGradient id="i" gradientUnits="userSpaceOnUse" gradientTransform="matrix(0 26.046 26.046 0 140.67 109.86)" x1="0" x2="1" y1="0" y2="0">
            <stop stop-color="#fff" offset="0"/>
            <stop stop-color="#eb7e81" offset="1"/>
        </linearGradient>
        <linearGradient id="h" gradientUnits="userSpaceOnUse" gradientTransform="matrix(0 36.833 36.833 0 127.42 98.316)" x1="0" x2="1" y1="0" y2="0">
            <stop stop-color="#fff" offset="0"/>
            <stop stop-color="#eb7e81" offset="1"/>
        </linearGradient>
        <linearGradient id="g" gradientUnits="userSpaceOnUse" gradientTransform="matrix(0 25.463 25.463 0 111.06 110.48)" x1="0" x2="1" y1="0" y2="0">
            <stop stop-color="#fff" offset="0"/>
            <stop stop-color="#eb7e81" offset="1"/>
        </linearGradient>
        <linearGradient id="f" gradientUnits="userSpaceOnUse" gradientTransform="matrix(0 36.907 36.907 0 87.094 110.08)" x1="0" x2="1" y1="0" y2="0">
            <stop stop-color="#fff" offset="0"/>
            <stop stop-color="#eb7e81" offset="1"/>
        </linearGradient>
        <linearGradient id="e" gradientUnits="userSpaceOnUse" gradientTransform="scale(18.1914 -18.1914) rotate(80 7.728 3.215)" x1="0" x2="1" y1="0" y2="0">
            <stop stop-color="#e77479" offset="0"/>
            <stop stop-color="#a71f23" offset="1"/>
        </linearGradient>
        <linearGradient id="d" gradientUnits="userSpaceOnUse" gradientTransform="scale(42.7352 -42.7352) rotate(80 2.866 .14)" x1="0" x2="1" y1="0" y2="0">
            <stop stop-color="#e77479" offset="0"/>
            <stop stop-color="#be1d23" offset="1"/>
        </linearGradient>
        <radialGradient id="c" gradientUnits="userSpaceOnUse" cy="0" cx="0" gradientTransform="matrix(61.135 0 0 -61.135 126.07 123.09)" r="1">
            <stop stop-color="#e61e28" offset="0"/>
            <stop stop-color="#a71f23" offset="1"/>
        </radialGradient>
        <linearGradient id="b" gradientUnits="userSpaceOnUse" gradientTransform="matrix(0 -27.009 -27.009 0 205.18 136.63)" x1="0" x2="1" y1="0" y2="0">
            <stop stop-color="#a21e21" offset="0"/>
            <stop stop-color="#e41e25" offset="1"/>
        </linearGradient>
        <linearGradient id="a" gradientUnits="userSpaceOnUse" gradientTransform="matrix(0 -27.009 -27.009 0 181.1 136.63)" x1="0" x2="1" y1="0" y2="0">
            <stop stop-color="#a21e21" offset="0"/>
            <stop stop-color="#e41e25" offset="1"/>
        </linearGradient>
    </defs>
    <path fill="url(#a)" d="M186.27 110.53v9.959h-10.316v-9.959h-5.624v24.923h5.624v-10.156h10.316v10.156h5.646V110.53z" transform="translate(-57.452 -69.815)"/>
    <path fill="url(#b)" d="M194.05 110.53v24.923h8.859c4.007 0 7.234-1.137 9.66-3.468 2.426-2.295 3.629-5.42 3.629-9.281 0-8.13-4.423-12.174-13.288-12.174zm5.624 4.553h2.769c2.462 0 4.386.692 5.77 2.07s2.083 3.22 2.083 5.616c0 2.514-.7 4.488-2.112 5.938-1.363 1.493-3.286 2.207-5.712 2.207h-2.798z" transform="translate(-57.452 -69.815)"/>
    <path fill="url(#c)" d="M60.821 104.52c-10.28 27.59 3.76 58.283 31.349 68.555 27.59 10.28 58.283-3.76 68.555-31.341 4.218-11.336 4.342-23.211 1.086-33.971l.058.102s-.058-.131-.131-.357c-.117-.357-.233-.714-.343-1.078-.27-1.006-.43-2.251.16-2.798.78-.736 2.448.022 3.505.627.255.167.517.335.787.502.087.059.138.08.138.08l-.015-.014c.882.517 1.829.962 2.827 1.333 9.66 3.6 20.413-1.318 24.02-10.972 3.584-9.667-1.319-20.42-10.986-24.012-9.668-3.599-20.413 1.312-24.012 10.972a18.735 18.735 0 0 0-1.166 7.162l-.072-.139s.568 2.426-.846 2.885c-1.486.481-3.97-3.081-3.97-3.081l.073.153a53.07 53.07 0 0 0-22.461-15.94 53.104 53.104 0 0 0-18.592-3.374c-21.63 0-41.963 13.252-49.963 34.707" transform="translate(-57.452 -69.815)"/>
    <path fill="url(#d)" d="M75.967 94.702c0 11.525 15.591 20.872 34.817 20.872 19.233 0 34.817-9.347 34.817-20.872S130.018 73.83 110.784 73.83c-19.226 0-34.817 9.347-34.817 20.872" transform="translate(-57.452 -69.815)"/>
    <path fill="url(#e)" d="M161.75 81.275c0 4.932 6.127 8.932 13.682 8.932 7.548 0 13.675-4 13.675-8.932 0-4.94-6.127-8.925-13.675-8.925-7.555 0-13.682 3.986-13.682 8.925" transform="translate(-57.452 -69.815)"/>
    <path fill="url(#f)" d="M79.836 114.82h-.11v-4.378H75.75v36.325h3.978v-15.044h.109c1.748 2.79 4.226 4.181 7.453 4.181 3.511 0 6.28-1.253 8.305-3.752 2.018-2.506 3.03-5.835 3.03-10.003 0-3.737-.888-6.724-2.695-8.946-1.792-2.22-4.29-3.34-7.497-3.34-3.78 0-6.644 1.654-8.596 4.961m1.901 15.576c-1.34-1.428-2.01-3.176-2.01-5.23v-3.476c0-2.433.706-4.444 2.12-6.061 1.413-1.617 3.27-2.412 5.594-2.412 2.179 0 3.913.787 5.188 2.354 1.282 1.573 1.923 3.737 1.923 6.498 0 3.3-.685 5.865-2.055 7.708-1.37 1.85-3.256 2.776-5.675 2.776-2.054 0-3.76-.714-5.085-2.157" transform="translate(-57.452 -69.815)"/>
    <path fill="url(#g)" d="M117.4 110.45v14.338c0 2.31-.634 4.19-1.894 5.617-1.246 1.442-2.849 2.156-4.787 2.156-4.021 0-6.032-2.622-6.032-7.875V110.45h-3.948v14.87c0 7.051 2.957 10.592 8.88 10.592 3.46 0 6.025-1.508 7.679-4.517h.102v3.934h3.978V110.45z" transform="translate(-57.452 -69.815)"/>
    <path fill="url(#h)" d="M125.68 135.33h3.985V98.491h-3.985z" transform="translate(-57.452 -69.815)"/>
    <path fill="url(#i)" d="M138.54 110.33c-1.144.299-2.164.758-3.053 1.37a7.114 7.114 0 0 0-2.149 2.25c-.524.904-.787 1.939-.787 3.104 0 .955.139 1.8.423 2.507.277.714.7 1.333 1.26 1.908.554.554 1.253 1.064 2.084 1.509a33.2 33.2 0 0 0 2.907 1.325c.794.292 1.53.59 2.222.875a9.67 9.67 0 0 1 1.8.969c.516.357.917.757 1.216 1.23.291.452.444 1.013.444 1.676 0 2.339-1.741 3.505-5.245 3.505-2.608 0-4.998-.802-7.169-2.412v4.277c1.887.99 4.102 1.486 6.666 1.486 1.282 0 2.52-.139 3.708-.445 1.188-.284 2.23-.735 3.133-1.333a6.881 6.881 0 0 0 2.178-2.265c.54-.897.816-1.96.816-3.199 0-1.005-.167-1.872-.502-2.6a5.898 5.898 0 0 0-1.421-1.931 10.152 10.152 0 0 0-2.237-1.501 28.298 28.298 0 0 0-2.965-1.304c-.816-.32-1.559-.627-2.207-.896a8.15 8.15 0 0 1-1.654-.925 3.38 3.38 0 0 1-1.027-1.166c-.233-.437-.357-.984-.357-1.632 0-.517.124-.99.357-1.42.233-.43.568-.795.998-1.093.423-.321.94-.561 1.53-.729.605-.175 1.275-.248 2.025-.248 2.375 0 4.48.59 6.317 1.793v-4.022c-1.698-.75-3.629-1.13-5.785-1.13-1.21 0-2.39.154-3.526.467" transform="translate(-57.452 -69.815)"/>
    <path fill="url(#j)" d="M169.23 78.631c-1.158.801-1.741 2.331-1.741 4.51v1.719h3.089v-1.588c0-1.224.24-2.047.67-2.353.32-.22 1.144-.467 3.264-.467 3.533 0 4.364.335 4.553.474.284.218.46.495.547.889.05.225.116.692.116 1.668 0 1.748-.19 2.215-.277 2.339-.19.284-.743.706-2.338 1.136l-4.415 1.21c-2.062.575-3.402 1.253-4.087 2.083-.765.918-1.122 2.295-1.122 4.218v3.745h15.255V95.3h-12.166v-1.712c0-.736.182-1.26.532-1.567.218-.189.72-.488 1.923-.823l5.479-1.53c1.704-.473 2.877-1.18 3.467-2.09.518-.802.765-2.084.765-3.927 0-1.596-.153-2.732-.459-3.446-.386-.911-1.158-1.632-2.324-2.15-.787-.342-2.52-.51-5.318-.51-2.608 0-4.379.35-5.413 1.086" transform="translate(-57.452 -69.815)"/>
</svg>
