<svg version="1.1" viewBox="0 0 800 433.8" xml:space="preserve" xmlns="http://www.w3.org/2000/svg">
	<g transform="matrix(.95888 0 0 .95888 .0022054 0)">
		<path d="m220.5 0v190.3h393.1v-190.3zm50.999 31.401h291.2v127.6h-291.2zm6.4997 5.6992v116h88.401v-116zm94.9 0v116h88.399v-116zm94.9 0v116h88.399l0.0998-116zm-87.301 18.2h17.8l18.2 41.701 0.60088 2.4993 0.59885-2.4993 18.2-41.701h17.8l-36.599 82.4zm-89 0.9003h61.3v15.301h-22.1v63.799h-17v-63.799h-22.2zm195.5 0h20.9c20.4 0 30.7 13.501 30.7 27.201 0 13.9-10.601 27.899-32.201 27.899l-3.3996-0.0978v24.098h-16zm15.9 15.301 0.0998 24.899h5.0006c9.2-0.1 14.499-3.1002 15.099-12.6-0.69999-9.1-5.3008-12.199-14.401-12.299zm-232.6 312.3c-6.5-2.6-12.5-6.6-17.4-11.5-5-5-9-10.9-11.6-17.4-2.7-6.5-4.1-13.5-4-20.5 0-7 1.5-14 4.2-20.5s6.8-12.3 11.8-17.3c5-4.9 11-8.8 17.5-11.3 6.5-2.6 13.5-3.8 20.6-3.7 7 0.20001 14 1.7 20.4 4.6l12.3-29c-20.5-8.3-43.5-8.1-63.9 0.29999-20.4 8.5-36.7 24.7-45.4 45-8.6 20.4-9 43.3-0.90001 63.9 8.1 20.6 24 37.2 44.2 46.2zm66.7-156.2-12.7 29.9c42.4 18 62.1 67.6 43.9 110.6-6.4 15.3-17.3 28.4-31.1 37.6s-30.1 14.1-46.7 14.2c-11.1 0-22-2.2-32.2-6.6l-12.7 29.9c14.2 6 29.4 9.2 44.9 9.2 23 0 45.5-6.8 64.7-19.6 19.2-12.7 34.2-30.8 43.1-52.1 25.1-59.4-2.3-128.1-61.2-153.1zm-199 106.6-31-76.8h-33.6l12.5 31.2-19.6 49.2-27.4-80.4h-38.9l62.1 160.5 40.6-87.3 35.1 87.4 59.8-160.5h-36.1zm468.3-77.8h-33.5v151.1h102.3v-32.5h-68.9v-118.6zm219.4 40.2c-6-12.2-15.5-22.3-27.3-29-12.4-7.4-28.2-11.2-47.4-11.2h-46v151.1h53.3c13.2 0.10001 26.2-2.9 38-8.9 11.4-5.8 21-14.7 27.7-25.6 7-11.6 10.5-24.9 10.3-38.4-0.10001-13.2-3-26.2-8.6-38zm-38.4 67.4c-8.3 7.3-19.8 11-34.2 11h-14.9v-86.4h21.2c6 0.10001 11.9 1.4 17.3 3.8 6.5 2.9 12 7.6 15.9 13.5 4.5 6.5 6.8 15.4 6.8 26.5 0.3 13.8-3.8 24.4-12.1 31.6zm-256.9-29.6c3.9-8.2 6-17.2 5.9-26.4 0-15.9-5.3-28.6-15.8-37.8s-25.1-13.8-43.8-13.8h-46.7v151.1h33.5v-46.6h15.8l30.8 46.6h39.1l-35-54.7c7-4.5 12.6-10.9 16.2-18.4zm-33.5-12c-3.2 4-8.2 5.9-15.3 5.9h-18.2v-39.5h18.4c7.9 0 13.2 2.1 15.8 6.2 2.7 4.2 4.2 9 4.2 14 0 4.9-1.7 9.6-4.9 13.4z"/>
	</g>
</svg>
