<svg width="671.31" height="800" version="1.1" viewBox="0 0 1127.7 638.57" xmlns="http://www.w3.org/2000/svg" xmlns:xlink="http://www.w3.org/1999/xlink">
 <defs>
  <linearGradient id="b" x2="1" gradientTransform="matrix(-41.301 113.47 113.47 41.301 447.78 63.584)" gradientUnits="userSpaceOnUse">
   <stop stop-color="#eb4c3a" offset="0"/>
   <stop stop-color="#df2e2a" offset=".54494"/>
   <stop stop-color="#9e2b28" offset=".83708"/>
   <stop stop-color="#802323" offset="1"/>
  </linearGradient>
  <linearGradient id="c" x2="1" gradientTransform="matrix(142.68 142.68 142.68 -142.68 270.04 168.28)" gradientUnits="userSpaceOnUse">
   <stop stop-color="#8dc8ec" offset="0"/>
   <stop stop-color="#31a5e0" offset=".3764"/>
   <stop stop-color="#258fcf" offset=".57866"/>
   <stop stop-color="#2b4c96" offset="1"/>
  </linearGradient>
  <linearGradient id="d" x2="1" gradientTransform="matrix(161.45 0 0 -161.45 302.55 132.01)" gradientUnits="userSpaceOnUse">
   <stop stop-color="#918f90" offset="0"/>
   <stop stop-color="#c8c7c7" offset=".25"/>
   <stop stop-color="#e2e2e2" offset=".5"/>
   <stop stop-color="#c8c7c7" offset=".75"/>
   <stop stop-color="#918f90" offset="1"/>
  </linearGradient>
  <linearGradient id="a" x2="1" gradientTransform="matrix(37.917 -104.17 -104.17 -37.917 502.86 301.9)" gradientUnits="userSpaceOnUse">
   <stop stop-color="#f3dd25" offset="0"/>
   <stop stop-color="#e98329" offset=".58427"/>
   <stop stop-color="#e85f2a" offset="1"/>
  </linearGradient>
 </defs>
 <path d="m602.05-344.98c11.992-1.5147 23.609-2.2721 35.601-3.0295 8.2445 6.4376 17.613 11.361 27.732 14.39 26.233 8.7098 52.84 20.07 71.577 41.655-43.096-28.78-91.814-49.608-143.9-51.122 2.2485-0.37867 6.7455-1.5147 8.994-1.8934z" fill="#cacb82" stroke="#cacb82" stroke-width=".35317"/>
 <path d="m593.06-343.08c52.09 1.5147 100.81 22.342 143.9 51.122 13.116 12.497 26.607 24.614 38.974 38.247 9.7436 12.875 19.487 25.751 27.357 39.762 16.114 30.295 26.233 63.619 29.605 97.701 1.499 32.567-5.2465 64.376-16.489 94.671l-3.3728-1.5147c0.37475-8.3311 0-16.662-0.37479-24.614 5.996-7.9524 12.742-16.283 13.491-26.508 5.6213-43.927-4.8718-89.37-24.734-128.37-25.108-49.608-68.205-88.612-117.3-112.47-28.856-14.39-61.084-17.798-91.065-28.023z" fill="#415d67" stroke="#415d67" stroke-width=".35317"/>
 <path d="m632.41 230.24c55.463-49.986 126.67-76.116 195.99-99.594-0.37476 1.8934-1.1243 6.059-1.499 7.9524-11.243 42.034-2.998 85.961 8.6193 127.24-12.367-10.603-16.864-26.508-23.609-40.519-52.84 21.585-106.8 42.034-160.39 62.104-18.363 6.8163-38.599 9.4671-55.088 20.449-5.6212 14.011-4.497 29.916-4.8718 44.685-4.8718-12.497-8.2445-25.372-7.8698-38.626 6.7455-32.188 24.359-61.726 48.718-83.689z" fill="#913127" stroke="#913127" stroke-width=".35317"/>
 <path d="m216.06 741.09c63.708-0.37868 127.42-0.37868 191.12 0v53.016c-22.485 0-44.595 0.37868-67.08 0.37868v196.54h-56.962c0-65.512 0.37473-131.02 0-196.54-22.485 0-44.595-0.37868-67.08-0.37868-0.37477-17.42-0.37477-35.218 0-53.016z" fill="#9da4ac" stroke="#9da4ac" stroke-width=".35317"/>
 <path d="m440.16 741.09c19.862-0.37868 39.724-0.37868 59.585 0.37867 14.99 47.336 26.982 95.807 43.096 143.14h8.994c7.8698-34.082 19.487-67.406 28.106-101.11 4.1223-14.39 9.3688-28.401 14.241-42.413 19.487-0.37868 38.599-0.37868 57.712 0.37867-25.483 83.311-54.714 165.86-80.571 249.55h-49.842c-27.732-82.932-53.589-166.62-81.321-249.93z" fill="#9ea4ac" stroke="#9ea4ac" stroke-width=".35317"/>
 <path d="m688.25 741.09c32.603 0 65.207-0.37868 97.435-0.37868 29.231 0 58.836 13.254 75.325 37.868 13.866 21.206 20.611 49.986 8.6192 73.465-7.1202 17.798-23.609 27.644-35.227 41.655 1.499 14.011 10.118 26.508 16.864 38.626 11.617 18.934 19.862 39.383 29.98 58.696h-68.205c-13.866-25.75-24.359-53.773-38.225-79.524-4.497-10.982-18.363-6.059-27.357-7.9524-1.1242 29.159-0.74951 58.317-0.37475 87.476h-59.211c0-83.311 0-166.62 0.37473-249.93z" fill="#9da4ac" stroke="#9da4ac" stroke-width=".35317"/>
 <path d="m747.08 796.76c17.613 0 35.601-3.4082 52.465 1.8934 20.986 8.3311 20.611 42.791-0.37473 51.122-16.489 5.3016-34.477 1.5147-51.716 1.8934-1.1242-18.177-1.1242-36.732-0.37475-54.909z" fill="#fefffe" stroke="#fefffe" stroke-width=".35317"/>
 <path d="m747.46 903.55c8.994 1.8934 22.86-3.0295 27.357 7.9524 13.866 25.75 24.359 53.773 38.225 79.524h-65.956c-0.37476-29.159-0.74949-58.317 0.37475-87.476z" fill="#feffff" stroke="#feffff" stroke-width=".35317"/>
 <g transform="matrix(5.1419 0 0 -5.1857 -1555.7 1150.1)">
  <path d="m415.26 287.52c-17.301-3.434-31.275-10.636-42.54-20.195-3.241-2.75-6.252-5.706-9.058-8.813-10.426-11.516-21.202-28.982-27.42-45.465-10.434-27.634-13.883-53.58-29.362-68.251-11.558-10.779 2.668-15.469 12.02-11.237 11.056 4.104 21.307 12.593 35.218 33.579 11.794 18.128 28.465 51.423 60.728 65.895 27.432 12.463 49.909 6.725 44.629-8.97 2.303 4.675 3.859 9.383 4.396 14.062 2.039 25.924-20.202 49.405-47.517 49.408-0.365 0-0.727-4e-3 -1.094-0.013" fill="url(#d)"/>
  <path d="m415.26 287.52c-17.301-3.434-31.275-10.636-42.54-20.195-3.241-2.75-6.252-5.706-9.058-8.813-10.426-11.516-21.202-28.982-27.42-45.465-10.434-27.634-13.883-53.58-29.362-68.251-11.558-10.779 2.668-15.469 12.02-11.237 11.056 4.104 21.307 12.593 35.218 33.579 11.794 18.128 28.465 51.423 60.728 65.895 27.432 12.463 49.909 6.725 44.629-8.97 2.303 4.675 3.859 9.383 4.396 14.062 2.039 25.924-20.201 49.405-47.517 49.408-0.366 0-0.728-5e-3 -1.094-0.013" fill="url(#c)"/>
  <path d="m445.79 190.94c-34.002-15.241-30.526-31.643-27.534-37.795 0.682-1.39 1.253-2.228 1.302-2.297 34.247-52.713 102.08-60.499 102.3-60.3-34.21 30.996-69.216 85.624-57.439 107.6-5.998-2.328-12.25-4.709-18.629-7.206" fill="url(#b)" Googl="true"/>
  <path d="m415.26 287.52c27.815 0.637 50.677-23.124 48.611-49.395-0.537-4.679-2.093-9.387-4.396-14.062-5.44-11.01-15.124-21.823-25.972-31.568-22.624-19.835-18.518-33.38-15.239-39.363-2.996 6.147-6.488 22.559 27.53 37.806 45.45 17.784 84.356 29.604 71.839 60.832-14.408 31.953-50.358 38.016-75.565 38.016-15.413 0-26.808-2.266-26.808-2.266" fill="url(#a)"/>
 </g>
</svg>
