<svg viewBox="0 0 1843.2 360" xmlns="http://www.w3.org/2000/svg">
    <defs>
        <linearGradient id="a" x2="1" gradientTransform="scale(-58.355 58.355) rotate(45 -16.297 4.179)" gradientUnits="userSpaceOnUse">
            <stop stop-color="#918f90" offset="0"/>
            <stop stop-color="#c8c7c7" offset=".25"/>
            <stop stop-color="#e2e2e2" offset=".5"/>
            <stop stop-color="#c8c7c7" offset=".75"/>
            <stop stop-color="#918f90" offset="1"/>
        </linearGradient>
        <linearGradient id="c" x2="1" gradientTransform="matrix(-41.301 113.47 113.47 41.301 447.78 63.584)" gradientUnits="userSpaceOnUse">
            <stop stop-color="#eb4c3a" offset="0"/>
            <stop stop-color="#df2e2a" offset=".545"/>
            <stop stop-color="#9e2b28" offset=".837"/>
            <stop stop-color="#802323" offset="1"/>
        </linearGradient>
        <linearGradient id="d" x2="1" gradientTransform="scale(110.856 -110.856) rotate(69.999 4.213 1.878)" gradientUnits="userSpaceOnUse">
            <stop stop-color="#f3dd25" offset="0"/>
            <stop stop-color="#e98329" offset=".584"/>
            <stop stop-color="#e85f2a" offset="1"/>
        </linearGradient>
        <linearGradient id="b" x2="1" gradientTransform="scale(201.78 -201.78) rotate(-45 -.338 -2.032)" gradientUnits="userSpaceOnUse">
            <stop stop-color="#8dc8ec" offset="0"/>
            <stop stop-color="#31a5e0" offset=".376"/>
            <stop stop-color="#258fcf" offset=".579"/>
            <stop stop-color="#2b4c96" offset="1"/>
        </linearGradient>
        <linearGradient id="e" x1="232.43" x2="239.83" y1="5.193" y2="58.693" gradientTransform="translate(-56.676 -20.397) scale(5.4048)" gradientUnits="userSpaceOnUse">
            <stop stop-color="#918f90" offset="0"/>
            <stop stop-color="#c8c7c7" offset=".323"/>
            <stop stop-color="#e2e2e2" offset=".559"/>
            <stop stop-color="#c8c7c7" offset=".711"/>
            <stop stop-color="#918f90" offset="1"/>
        </linearGradient>
    </defs>
    <path d="M106.81 777.01l-5.812-19.605-5.913 19.605h-8.914l11.576-35.073h6.402l11.626 35.073zm-50.113 0v-7.685h8.62v-27.388h8.623v27.388h8.62v7.685z" fill="url(#a)" transform="matrix(6.756 0 0 -6.756 -383.05 5295.4)"/>
    <g stroke-width="5.105">
        <path d="M415.26 287.52c-17.301-3.434-31.275-10.636-42.54-20.195a95.305 95.305 0 0 1-9.058-8.813c-10.426-11.516-21.202-28.982-27.42-45.465-10.434-27.634-13.883-53.58-29.362-68.251-11.558-10.779 2.668-15.469 12.02-11.237 11.056 4.104 21.307 12.593 35.218 33.579 11.794 18.128 28.465 51.423 60.728 65.895 27.432 12.463 49.909 6.725 44.629-8.97 2.303 4.675 3.859 9.383 4.396 14.062 2.039 25.924-20.201 49.405-47.517 49.408-.366 0-.728-.005-1.094-.013" fill="url(#b)" transform="matrix(1.7916 0 0 -1.8068 -176.509 523.595)"/>
        <path d="M445.79 190.94c-34.002-15.241-30.526-31.643-27.534-37.795.682-1.39 1.253-2.228 1.302-2.297 34.247-52.713 102.08-60.499 102.3-60.3-34.21 30.996-69.216 85.624-57.439 107.6-5.998-2.328-12.25-4.709-18.629-7.206" fill="url(#c)" transform="matrix(1.7916 0 0 -1.8068 -176.509 523.595)"/>
        <path d="M415.26 287.52c27.815.637 50.677-23.124 48.611-49.395-.537-4.679-2.093-9.387-4.396-14.062-5.44-11.01-15.124-21.823-25.972-31.568-22.624-19.835-18.518-33.38-15.239-39.363-2.996 6.147-6.488 22.559 27.53 37.806 45.45 17.784 84.356 29.604 71.839 60.832-14.408 31.953-50.358 38.016-75.565 38.016-15.413 0-26.808-2.266-26.808-2.266" fill="url(#d)" transform="matrix(1.7916 0 0 -1.8068 -176.509 523.595)"/>
    </g>
    <path d="M1027.2 68.598c-11.116 0-20.646 1.859-28.85 5.3-8.204 3.44-15.352 8.204-21.704 14.556-4.764 4.764-8.47 9.793-11.116 14.821a60.606 60.606 0 0 0-5.563 16.932c-1.059 6.088-1.847 12.711-2.111 19.856-.265 7.41-.264 15.344-.264 24.343s-.001 17.207.264 24.354a146.809 146.809 0 0 0 2.11 20.11c1.06 6.088 2.917 11.65 5.564 16.68 2.647 5.293 6.352 10.056 11.116 14.82 6.352 6.353 13.499 11.38 21.704 14.821 8.204 3.441 17.734 5.025 28.85 5.025 10.851 0 20.382-1.584 28.587-5.025 7.94-3.44 15.341-8.469 21.693-14.82 4.764-4.765 8.205-9.528 10.852-14.822 2.647-5.028 4.504-10.592 5.827-16.679 1.059-6.087 1.857-12.699 2.122-20.11.265-7.146.528-15.355.528-24.354 0-8.999-.264-16.932-.528-24.343-.265-7.146-1.063-13.769-2.122-19.856-1.323-6.087-3.18-11.639-5.827-16.932-2.647-5.028-6.088-10.057-10.852-14.82-6.352-6.353-13.753-11.118-21.693-14.558-8.204-3.44-17.735-5.299-28.587-5.299zm450.72 0c-11.116 0-20.646 1.859-28.85 5.3-8.204 3.44-15.352 8.204-21.704 14.556-4.764 4.764-8.47 9.793-11.116 14.821a60.606 60.606 0 0 0-5.563 16.932c-1.059 6.088-1.847 12.711-2.111 19.856-.265 7.41-.264 15.344-.264 24.343s-.001 17.207.264 24.354a146.817 146.817 0 0 0 2.11 20.11c1.06 6.088 2.917 11.65 5.564 16.68 2.647 5.293 6.352 10.056 11.116 14.82 6.352 6.353 13.499 11.38 21.704 14.821 8.205 3.441 17.734 5.025 28.85 5.025 10.851 0 20.371-1.584 28.576-5.025 7.94-3.44 15.352-8.469 21.704-14.82 4.764-4.765 8.205-9.528 10.852-14.822 2.647-5.028 4.504-10.592 5.827-16.679a146.753 146.753 0 0 0 2.111-20.11c.265-7.146.528-15.355.528-24.354 0-8.999-.263-16.932-.528-24.343-.265-7.146-1.052-13.769-2.111-19.856-1.323-6.087-3.18-11.639-5.827-16.932-2.647-5.028-6.088-10.057-10.852-14.82-6.352-6.353-13.764-11.118-21.704-14.558-8.205-3.44-17.725-5.299-28.576-5.299zm-713.17 1.594v188.44h36.788v-109.84l36.25 71.468h24.881l35.997-71.468v109.84h36.788V70.192h-36.261l-48.96 101.89-49.235-101.89h-36.25zm354.41 0v188.44h122.27v-32.82h-85.483V70.192h-36.788zm136.63 0v188.44h68.014c12.704 0 23.82-2.12 33.084-6.619 8.998-4.234 16.944-11.384 23.826-20.912 2.647-3.97 5.03-8.2 6.619-12.699a80.905 80.905 0 0 0 3.705-14.82c.53-5.294 1.055-11.384 1.32-17.735 0-6.352.263-13.5.263-21.44 0-7.675-.263-14.814-.263-21.165-.265-6.352-.79-12.44-1.32-17.734a80.897 80.897 0 0 0-3.705-14.82c-1.588-4.5-3.972-8.74-6.619-12.975-6.881-9.528-14.827-16.413-23.826-20.912-9.263-4.235-20.38-6.608-33.084-6.608h-68.014zm292.91 0l62.199 188.44h27.531l62.464-188.44h-38.383l-37.845 122.8-37.845-122.8h-38.119zm196.92 0l-68.544 188.44h38.372l11.38-33.347h66.96l11.116 33.347h38.383l-68.814-188.44h-28.85zm-718.46 31.225c5.029 0 9.521 1.06 13.491 2.913 3.97 1.853 7.413 4.236 10.06 7.147 1.588 2.118 3.174 4.237 4.233 6.62s2.12 5.552 2.914 9.257c.529 3.97 1.064 8.999 1.594 14.821a479.21 479.21 0 0 1 .527 22.232c0 8.999-.263 16.673-.527 22.495-.53 5.823-1.065 10.852-1.594 14.557-.794 3.705-1.855 6.886-2.914 9.268-1.059 2.382-2.645 4.502-4.233 6.355-2.647 3.176-6.09 5.558-10.06 7.41-3.97 2.118-8.462 2.904-13.491 2.904-5.293 0-9.795-.786-13.766-2.903-3.97-1.853-7.413-4.235-10.06-7.41-1.853-1.853-3.438-3.974-4.497-6.356a35.39 35.39 0 0 1-2.65-9.268c-.794-3.705-1.318-8.734-1.583-14.557-.265-5.823-.264-13.497-.264-22.495 0-8.998 0-16.409.264-22.232.265-5.823.79-10.851 1.584-14.821a35.293 35.293 0 0 1 2.65-9.258c1.058-2.382 2.643-4.501 4.496-6.619 2.647-2.911 6.09-5.294 10.06-7.146 3.97-1.853 8.472-2.914 13.766-2.914zm450.72 0c5.029 0 9.521 1.06 13.491 2.913 3.97 1.853 7.413 4.236 10.06 7.147 1.588 2.118 3.174 4.237 4.233 6.62 1.059 2.381 2.12 5.552 2.914 9.257.529 3.97 1.054 8.999 1.583 14.821a479.23 479.23 0 0 1 .528 22.232c0 8.999-.264 16.673-.528 22.495-.53 5.823-1.054 10.852-1.583 14.557-.794 3.705-1.855 6.886-2.914 9.268-1.059 2.382-2.645 4.502-4.233 6.355-2.647 3.176-6.09 5.558-10.06 7.41-3.97 2.118-8.462 2.904-13.491 2.904-5.293 0-9.795-.786-13.766-2.903-3.97-1.853-7.413-4.235-10.06-7.41-1.853-1.853-3.438-3.974-4.497-6.356a35.386 35.386 0 0 1-2.65-9.268c-.794-3.705-1.318-8.734-1.583-14.557-.265-5.823-.264-13.497-.264-22.495 0-8.998 0-16.409.264-22.232.265-5.823.79-10.851 1.583-14.821a35.288 35.288 0 0 1 2.65-9.258c1.059-2.382 2.644-4.501 4.497-6.619 2.647-2.911 6.09-5.294 10.06-7.146 3.97-1.853 8.472-2.914 13.766-2.914zm-185.33 1.594h28.059c12.175 0 21.168 3.968 27.52 11.644 1.588 2.117 2.91 4.5 3.97 7.147 1.058 2.646 1.856 6.08 2.385 9.785.529 3.706.79 8.472 1.056 13.766 0 5.294.263 11.644.263 19.054 0 7.41-.264 14.035-.264 19.33-.264 5.293-.526 10.05-1.055 13.754-.53 3.705-1.327 6.886-2.386 9.533-1.058 2.646-2.381 5.029-3.969 7.146-6.352 7.94-15.345 11.645-27.52 11.645h-28.059v-122.8zm468.39 22.759l23.034 68.544h-46.849l23.815-68.544z" fill="url(#e)" stroke-width="5.405"/>
</svg>
