<svg width="740.22mm" height="120.82mm" version="1.1" viewBox="0 0 740.22 120.82" xml:space="preserve" xmlns="http://www.w3.org/2000/svg"><g transform="translate(-338.18 14.037)"><text x="68.647163" y="281.69516" fill="#d4aa00" font-family="'DIN Pro'" font-size="3.9051px" font-weight="500" stroke="#000000" stroke-linecap="round" stroke-linejoin="round" stroke-width="1.2299" text-align="center" text-anchor="middle" style="paint-order:stroke fill markers" xml:space="preserve"><tspan x="68.647163" y="281.69516" stroke-width="1.2299"/></text><g fill="#9d9da8" stroke-linecap="round" stroke-linejoin="round" stroke-width="33.904" style="paint-order:stroke fill markers" aria-label="MOLDOVA"><path d="m673.8 4.7772v76.643h-11.626v-51.239l-17.654 37.353h-8.6116l-18.084-37.353v51.239h-11.626v-76.643h11.626l22.39 47.687 21.96-47.687z"/><path d="m698.77 11.882q7.7504-7.7504 19.807-7.7504t19.807 7.7504q5.2746 5.2746 6.4587 11.41 1.2917 6.1358 1.2917 19.807 0 13.671-1.2917 19.807-1.1841 6.1358-6.4587 11.41-7.7504 7.7504-19.807 7.7504t-19.807-7.7504q-5.2746-5.2746-6.5663-11.41-1.1841-6.1358-1.1841-19.807 0-13.671 1.1841-19.807 1.2917-6.1358 6.5663-11.41zm31.217 7.3199q-4.4134-4.6287-11.41-4.6287-6.9969 0-11.41 4.6287-2.7988 3.0141-3.6599 7.7504-0.86116 4.6287-0.86116 16.147 0 11.518 0.86116 16.147t3.6599 7.6428q4.5211 4.7364 11.41 4.7364t11.41-4.7364q2.7988-2.9064 3.6599-7.5352t0.86116-16.254q0-11.626-0.86116-16.254-0.86116-4.7364-3.6599-7.6428z"/><path d="m774.98 4.7772v66.202h36.922v10.442h-48.548v-76.643z"/><path d="m825.15 4.7772h26.911q13.886 0 21.744 9.6881 3.7676 4.6287 4.7364 11.087 1.0764 6.3511 1.0764 17.546 0 11.195-1.0764 17.654-0.9688 6.3511-4.7364 10.98-7.8581 9.688-21.744 9.688h-26.911zm25.62 10.442h-13.994v55.76h13.994q8.7192 0 13.133-5.167 2.5835-2.9064 3.337-7.8581 0.75351-5.0593 0.75351-14.855t-0.75351-14.747q-0.75352-5.0593-3.337-7.9657-4.4134-5.167-13.133-5.167z"/><path d="m901.79 11.882q7.7504-7.7504 19.807-7.7504t19.807 7.7504q5.2746 5.2746 6.4587 11.41 1.2917 6.1358 1.2917 19.807 0 13.671-1.2917 19.807-1.1841 6.1358-6.4587 11.41-7.7504 7.7504-19.807 7.7504t-19.807-7.7504q-5.2746-5.2746-6.5663-11.41-1.1841-6.1358-1.1841-19.807 0-13.671 1.1841-19.807 1.2917-6.1358 6.5663-11.41zm31.217 7.3199q-4.4134-4.6287-11.41-4.6287-6.9969 0-11.41 4.6287-2.7988 3.0141-3.6599 7.7504-0.86116 4.6287-0.86116 16.147 0 11.518 0.86116 16.147t3.6599 7.6428q4.5211 4.7364 11.41 4.7364t11.41-4.7364q2.7988-2.9064 3.6599-7.5352t0.86116-16.254q0-11.626-0.86116-16.254-0.86116-4.7364-3.6599-7.6428z"/><path d="m981.12 81.42-25.189-76.643h12.056l17.654 55.868 17.654-55.868h12.056l-25.297 76.643z"/><path d="m1050.3 4.7772 28.095 76.643h-12.379l-5.2746-15.393h-30.248l-5.2746 15.393h-12.379l28.095-76.643zm-4.7364 17.331-11.733 34.016h23.574z"/></g><g transform="matrix(.61437 0 0 .61437 522.15 -50.12)" stroke-width=".19935"><path d="m-49.638 88.511c-13.691 12.717-25.337 33.918-31.297 49.326-10.446 27.65-14.868 49.149-30.357 63.821-11.562 10.785 2.6714 15.469 12.021 11.263 5.0804-1.8948 9.9934-4.711 15.168-9.2298 4.1834-4.6404 8.6186-10.446 13.511-17.826 8.5008-13.067 19.528-34.004 37.099-50.103 8.2672-8.8999 16.85-15.453 28.924-20.864 21.374-10.656 40.487-7.3955 41.576 1.0223 5.9877-22.104-18.485-50.525-45.506-48.574-15.581 1.1255-30.964 11.715-41.139 21.166z" fill="#0091c8"/><path d="m44.768 157.64c-26.922 7.0657-49.741 28.041-41.01 41.84 28.155 44.498 80.518 53.376 95.788 55.906-17.673-17.764-34.599-40.746-44.138-61.097-1.4e-4 -2.7e-4 -2.6e-4 -5.5e-4 -4e-4 -7.8e-4 -7.3962-13.904-11.147-26.655-10.64-36.648z" fill="#e42024"/><path d="m21.067 58.732c-15.43 0-26.54 3.7125-26.54 3.7125 27.829-0.63791 50.423 21.685 48.329 47.979-0.53824 4.6847-2.0933 9.3892-4.3858 14.074-5.4422 11.004-12.211 19.688-23.056 29.436-12.203 10.699-16.913 25.9-17.894 32.741 2.1505-7.2893 13.341-22.235 32.788-30.173 45.204-18.451 79.417-30.373 66.898-61.611-14.393-31.976-50.923-36.158-76.14-36.158z" fill="#f9a613" Googl="true"/></g><path d="m338.18 4.7771v16.792h18.835v59.851h18.846v-59.84h18.835v-16.804zm107.57 0-12.695 42.84-12.914-42.84h-19.493l25.298 76.643h13.988l25.413-76.643z" fill="#9d9da8" stroke-width=".11541"/><text x="420.9256" y="172.69485" fill="#d4aa00" font-family="'DIN Pro'" font-size="3.9051px" font-weight="500" stroke="#000000" stroke-linecap="round" stroke-linejoin="round" stroke-width="1.2299" text-align="center" text-anchor="middle" style="paint-order:stroke fill markers" xml:space="preserve"><tspan x="420.9256" y="172.69485" stroke-width="1.2299"/></text></g><style type="text/css">
	
		.st0{clip-path:url(#SVGID_00000007390057207292410680000014594833281145322675_);fill:url(#SVGID_00000157298640823903213790000010888111401409626045_);}
	
		.st1{clip-path:url(#SVGID_00000005983024144573716740000016784724532432265650_);fill:url(#SVGID_00000142878313634934549560000010673053826580347800_);}
	
		.st2{clip-path:url(#SVGID_00000007411450908773892550000011950398068649316539_);fill:url(#SVGID_00000119803813235496044640000012929267509213497495_);}
	
		.st3{clip-path:url(#SVGID_00000117643940319535349970000014165591920462043831_);fill:url(#SVGID_00000054236731410441289960000017090424301116576415_);}
	
		.st4{clip-path:url(#SVGID_00000142886590596858563350000007777114443962211252_);fill:url(#SVGID_00000173841416790630443860000011599866442561749660_);}
</style><style type="text/css">
	
		.st0{clip-path:url(#SVGID_00000007390057207292410680000014594833281145322675_);fill:url(#SVGID_00000157298640823903213790000010888111401409626045_);}
	
		.st1{clip-path:url(#SVGID_00000005983024144573716740000016784724532432265650_);fill:url(#SVGID_00000142878313634934549560000010673053826580347800_);}
	
		.st2{clip-path:url(#SVGID_00000007411450908773892550000011950398068649316539_);fill:url(#SVGID_00000119803813235496044640000012929267509213497495_);}
	
		.st3{clip-path:url(#SVGID_00000117643940319535349970000014165591920462043831_);fill:url(#SVGID_00000054236731410441289960000017090424301116576415_);}
	
		.st4{clip-path:url(#SVGID_00000142886590596858563350000007777114443962211252_);fill:url(#SVGID_00000173841416790630443860000011599866442561749660_);}
</style><style type="text/css">
	
		.st0{clip-path:url(#SVGID_00000007390057207292410680000014594833281145322675_);fill:url(#SVGID_00000157298640823903213790000010888111401409626045_);}
	
		.st1{clip-path:url(#SVGID_00000005983024144573716740000016784724532432265650_);fill:url(#SVGID_00000142878313634934549560000010673053826580347800_);}
	
		.st2{clip-path:url(#SVGID_00000007411450908773892550000011950398068649316539_);fill:url(#SVGID_00000119803813235496044640000012929267509213497495_);}
	
		.st3{clip-path:url(#SVGID_00000117643940319535349970000014165591920462043831_);fill:url(#SVGID_00000054236731410441289960000017090424301116576415_);}
	
		.st4{clip-path:url(#SVGID_00000142886590596858563350000007777114443962211252_);fill:url(#SVGID_00000173841416790630443860000011599866442561749660_);}
</style><style type="text/css">
	
		.st0{clip-path:url(#SVGID_00000007390057207292410680000014594833281145322675_);fill:url(#SVGID_00000157298640823903213790000010888111401409626045_);}
	
		.st1{clip-path:url(#SVGID_00000005983024144573716740000016784724532432265650_);fill:url(#SVGID_00000142878313634934549560000010673053826580347800_);}
	
		.st2{clip-path:url(#SVGID_00000007411450908773892550000011950398068649316539_);fill:url(#SVGID_00000119803813235496044640000012929267509213497495_);}
	
		.st3{clip-path:url(#SVGID_00000117643940319535349970000014165591920462043831_);fill:url(#SVGID_00000054236731410441289960000017090424301116576415_);}
	
		.st4{clip-path:url(#SVGID_00000142886590596858563350000007777114443962211252_);fill:url(#SVGID_00000173841416790630443860000011599866442561749660_);}
</style><style type="text/css">
	
		.st0{clip-path:url(#SVGID_00000007390057207292410680000014594833281145322675_);fill:url(#SVGID_00000157298640823903213790000010888111401409626045_);}
	
		.st1{clip-path:url(#SVGID_00000005983024144573716740000016784724532432265650_);fill:url(#SVGID_00000142878313634934549560000010673053826580347800_);}
	
		.st2{clip-path:url(#SVGID_00000007411450908773892550000011950398068649316539_);fill:url(#SVGID_00000119803813235496044640000012929267509213497495_);}
	
		.st3{clip-path:url(#SVGID_00000117643940319535349970000014165591920462043831_);fill:url(#SVGID_00000054236731410441289960000017090424301116576415_);}
	
		.st4{clip-path:url(#SVGID_00000142886590596858563350000007777114443962211252_);fill:url(#SVGID_00000173841416790630443860000011599866442561749660_);}
</style><style type="text/css">
	
		.st0{clip-path:url(#SVGID_00000007390057207292410680000014594833281145322675_);fill:url(#SVGID_00000157298640823903213790000010888111401409626045_);}
	
		.st1{clip-path:url(#SVGID_00000005983024144573716740000016784724532432265650_);fill:url(#SVGID_00000142878313634934549560000010673053826580347800_);}
	
		.st2{clip-path:url(#SVGID_00000007411450908773892550000011950398068649316539_);fill:url(#SVGID_00000119803813235496044640000012929267509213497495_);}
	
		.st3{clip-path:url(#SVGID_00000117643940319535349970000014165591920462043831_);fill:url(#SVGID_00000054236731410441289960000017090424301116576415_);}
	
		.st4{clip-path:url(#SVGID_00000142886590596858563350000007777114443962211252_);fill:url(#SVGID_00000173841416790630443860000011599866442561749660_);}
</style><style type="text/css">
	
		.st0{clip-path:url(#SVGID_00000007390057207292410680000014594833281145322675_);fill:url(#SVGID_00000157298640823903213790000010888111401409626045_);}
	
		.st1{clip-path:url(#SVGID_00000005983024144573716740000016784724532432265650_);fill:url(#SVGID_00000142878313634934549560000010673053826580347800_);}
	
		.st2{clip-path:url(#SVGID_00000007411450908773892550000011950398068649316539_);fill:url(#SVGID_00000119803813235496044640000012929267509213497495_);}
	
		.st3{clip-path:url(#SVGID_00000117643940319535349970000014165591920462043831_);fill:url(#SVGID_00000054236731410441289960000017090424301116576415_);}
	
		.st4{clip-path:url(#SVGID_00000142886590596858563350000007777114443962211252_);fill:url(#SVGID_00000173841416790630443860000011599866442561749660_);}
</style><style type="text/css">
	
		.st0{clip-path:url(#SVGID_00000007390057207292410680000014594833281145322675_);fill:url(#SVGID_00000157298640823903213790000010888111401409626045_);}
	
		.st1{clip-path:url(#SVGID_00000005983024144573716740000016784724532432265650_);fill:url(#SVGID_00000142878313634934549560000010673053826580347800_);}
	
		.st2{clip-path:url(#SVGID_00000007411450908773892550000011950398068649316539_);fill:url(#SVGID_00000119803813235496044640000012929267509213497495_);}
	
		.st3{clip-path:url(#SVGID_00000117643940319535349970000014165591920462043831_);fill:url(#SVGID_00000054236731410441289960000017090424301116576415_);}
	
		.st4{clip-path:url(#SVGID_00000142886590596858563350000007777114443962211252_);fill:url(#SVGID_00000173841416790630443860000011599866442561749660_);}
</style><style type="text/css">
	
		.st0{clip-path:url(#SVGID_00000007390057207292410680000014594833281145322675_);fill:url(#SVGID_00000157298640823903213790000010888111401409626045_);}
	
		.st1{clip-path:url(#SVGID_00000005983024144573716740000016784724532432265650_);fill:url(#SVGID_00000142878313634934549560000010673053826580347800_);}
	
		.st2{clip-path:url(#SVGID_00000007411450908773892550000011950398068649316539_);fill:url(#SVGID_00000119803813235496044640000012929267509213497495_);}
	
		.st3{clip-path:url(#SVGID_00000117643940319535349970000014165591920462043831_);fill:url(#SVGID_00000054236731410441289960000017090424301116576415_);}
	
		.st4{clip-path:url(#SVGID_00000142886590596858563350000007777114443962211252_);fill:url(#SVGID_00000173841416790630443860000011599866442561749660_);}
</style><style type="text/css">
	
		.st0{clip-path:url(#SVGID_00000007390057207292410680000014594833281145322675_);fill:url(#SVGID_00000157298640823903213790000010888111401409626045_);}
	
		.st1{clip-path:url(#SVGID_00000005983024144573716740000016784724532432265650_);fill:url(#SVGID_00000142878313634934549560000010673053826580347800_);}
	
		.st2{clip-path:url(#SVGID_00000007411450908773892550000011950398068649316539_);fill:url(#SVGID_00000119803813235496044640000012929267509213497495_);}
	
		.st3{clip-path:url(#SVGID_00000117643940319535349970000014165591920462043831_);fill:url(#SVGID_00000054236731410441289960000017090424301116576415_);}
	
		.st4{clip-path:url(#SVGID_00000142886590596858563350000007777114443962211252_);fill:url(#SVGID_00000173841416790630443860000011599866442561749660_);}
</style><style type="text/css">
	
		.st0{clip-path:url(#SVGID_00000007390057207292410680000014594833281145322675_);fill:url(#SVGID_00000157298640823903213790000010888111401409626045_);}
	
		.st1{clip-path:url(#SVGID_00000005983024144573716740000016784724532432265650_);fill:url(#SVGID_00000142878313634934549560000010673053826580347800_);}
	
		.st2{clip-path:url(#SVGID_00000007411450908773892550000011950398068649316539_);fill:url(#SVGID_00000119803813235496044640000012929267509213497495_);}
	
		.st3{clip-path:url(#SVGID_00000117643940319535349970000014165591920462043831_);fill:url(#SVGID_00000054236731410441289960000017090424301116576415_);}
	
		.st4{clip-path:url(#SVGID_00000142886590596858563350000007777114443962211252_);fill:url(#SVGID_00000173841416790630443860000011599866442561749660_);}
</style><style type="text/css">
	
		.st0{clip-path:url(#SVGID_00000007390057207292410680000014594833281145322675_);fill:url(#SVGID_00000157298640823903213790000010888111401409626045_);}
	
		.st1{clip-path:url(#SVGID_00000005983024144573716740000016784724532432265650_);fill:url(#SVGID_00000142878313634934549560000010673053826580347800_);}
	
		.st2{clip-path:url(#SVGID_00000007411450908773892550000011950398068649316539_);fill:url(#SVGID_00000119803813235496044640000012929267509213497495_);}
	
		.st3{clip-path:url(#SVGID_00000117643940319535349970000014165591920462043831_);fill:url(#SVGID_00000054236731410441289960000017090424301116576415_);}
	
		.st4{clip-path:url(#SVGID_00000142886590596858563350000007777114443962211252_);fill:url(#SVGID_00000173841416790630443860000011599866442561749660_);}
</style><style type="text/css">
	
		.st0{clip-path:url(#SVGID_00000007390057207292410680000014594833281145322675_);fill:url(#SVGID_00000157298640823903213790000010888111401409626045_);}
	
		.st1{clip-path:url(#SVGID_00000005983024144573716740000016784724532432265650_);fill:url(#SVGID_00000142878313634934549560000010673053826580347800_);}
	
		.st2{clip-path:url(#SVGID_00000007411450908773892550000011950398068649316539_);fill:url(#SVGID_00000119803813235496044640000012929267509213497495_);}
	
		.st3{clip-path:url(#SVGID_00000117643940319535349970000014165591920462043831_);fill:url(#SVGID_00000054236731410441289960000017090424301116576415_);}
	
		.st4{clip-path:url(#SVGID_00000142886590596858563350000007777114443962211252_);fill:url(#SVGID_00000173841416790630443860000011599866442561749660_);}
</style><style type="text/css">
	
		.st0{clip-path:url(#SVGID_00000007390057207292410680000014594833281145322675_);fill:url(#SVGID_00000157298640823903213790000010888111401409626045_);}
	
		.st1{clip-path:url(#SVGID_00000005983024144573716740000016784724532432265650_);fill:url(#SVGID_00000142878313634934549560000010673053826580347800_);}
	
		.st2{clip-path:url(#SVGID_00000007411450908773892550000011950398068649316539_);fill:url(#SVGID_00000119803813235496044640000012929267509213497495_);}
	
		.st3{clip-path:url(#SVGID_00000117643940319535349970000014165591920462043831_);fill:url(#SVGID_00000054236731410441289960000017090424301116576415_);}
	
		.st4{clip-path:url(#SVGID_00000142886590596858563350000007777114443962211252_);fill:url(#SVGID_00000173841416790630443860000011599866442561749660_);}
</style><style type="text/css">
	
		.st0{clip-path:url(#SVGID_00000007390057207292410680000014594833281145322675_);fill:url(#SVGID_00000157298640823903213790000010888111401409626045_);}
	
		.st1{clip-path:url(#SVGID_00000005983024144573716740000016784724532432265650_);fill:url(#SVGID_00000142878313634934549560000010673053826580347800_);}
	
		.st2{clip-path:url(#SVGID_00000007411450908773892550000011950398068649316539_);fill:url(#SVGID_00000119803813235496044640000012929267509213497495_);}
	
		.st3{clip-path:url(#SVGID_00000117643940319535349970000014165591920462043831_);fill:url(#SVGID_00000054236731410441289960000017090424301116576415_);}
	
		.st4{clip-path:url(#SVGID_00000142886590596858563350000007777114443962211252_);fill:url(#SVGID_00000173841416790630443860000011599866442561749660_);}
</style></svg>
