<svg width="605.98mm" height="120mm" version="1.1" viewBox="0 0 605.98 120" xmlns="http://www.w3.org/2000/svg">
 <g transform="translate(197.91 -88.371)">
  <g fill="#74ba29" stroke-width="1.0393">
   <path d="m102.44 102.95q7.9429 0 13.76 2.1256t10.963 6.9361l-7.6074 7.6074q-6.4886-6.153-17.564-6.153-6.9361 0-10.74 3.468-3.6918 3.3562-3.6918 8.9498 0 4.9224 2.9087 7.3836 3.0205 2.685 8.726 3.5799l9.5091 1.4544q9.8448 1.5662 14.767 5.9292 6.4886 5.9292 6.4886 16.333 0 10.852-7.9429 17.117-7.9429 6.2648-20.696 6.2648-9.1735 0-15.886-2.3493-6.6004-2.4612-12.306-8.1667l7.9429-7.9429q7.7192 7.7192 20.473 7.7192 7.8311 0 12.083-3.1325 4.3631-3.2443 4.3631-9.1735 0-5.5936-3.1325-8.2785-2.9087-2.573-8.726-3.3562l-9.3973-1.3424q-9.9566-1.5662-14.99-6.3768-5.9292-5.3699-5.9292-15.326 0-10.516 7.1598-16.892 7.1598-6.3768 19.466-6.3768z" style="paint-order:stroke fill markers"/>
   <path d="m146.18 103.62h30.205q11.522 0 18.458 6.8242 7.0479 6.8242 7.0479 17.34t-7.0479 17.34q-6.9361 6.7123-18.458 6.7123h-18.123v31.436h-12.083zm29.534 10.852h-17.452v26.514h17.452q6.4886 0 10.292-3.468 3.8036-3.468 3.8036-9.7329t-3.8036-9.7329q-3.8036-3.5799-10.292-3.5799z" style="paint-order:stroke fill markers"/>
   <path d="m221.35 111q8.0548-8.0548 20.585-8.0548t20.585 8.0548q5.4817 5.4817 6.7123 11.858 1.3424 6.3768 1.3424 20.585 0 14.208-1.3424 20.585-1.2306 6.3768-6.7123 11.858-8.0548 8.0548-20.585 8.0548t-20.585-8.0548q-5.4817-5.4817-6.8242-11.858-1.2306-6.3768-1.2306-20.585 0-14.208 1.2306-20.585 1.3424-6.3768 6.8242-11.858zm32.443 7.6074q-4.5867-4.8105-11.858-4.8105-7.2717 0-11.858 4.8105-2.9087 3.1325-3.8036 8.0548-0.89498 4.8105-0.89498 16.781 0 11.97 0.89498 16.781t3.8036 7.9429q4.6986 4.9224 11.858 4.9224 7.1594 0 11.858-4.9224 2.9087-3.0205 3.8036-7.8311 0.89491-4.8106 0.89497-16.892 0-12.083-0.89497-16.892-0.89498-4.9224-3.8036-7.9429z" style="paint-order:stroke fill markers"/>
   <path d="m288.48 103.62h30.877q11.187 0 17.899 6.4886 6.8243 6.4886 6.8243 16.781 0 8.1667-4.4749 13.76-4.3631 5.4817-11.411 7.3836l18.347 35.24h-14.096l-16.781-33.561h-15.103v33.561h-12.083zm29.982 10.852h-17.899v24.948h17.899q6.153 0 9.8448-3.2443 3.6918-3.3562 3.6918-9.1735t-3.6918-9.1735q-3.6918-3.3561-9.8448-3.3561z" style="paint-order:stroke fill markers"/>
   <path d="m408.07 103.62v10.852h-21.927v68.802h-12.083v-68.802h-21.927v-10.852z" style="paint-order:stroke fill markers"/>
  </g>
  <path d="m-84.093 103.57-13.198 44.523-13.429-44.523h-20.247l26.292 79.654h14.542l26.4-79.654zm-113.82 0v17.451h19.575v62.203h19.585v-62.203h19.575v-17.451z" fill="#74ba29" stroke-width="2.4614"/>
  <path d="m-14.597 94.09c-9.4762 1.4497-30.405 10.407-41.912 41.075-6.1534 16.402-8.2357 31.781-17.417 40.482-6.8524 6.3921 1.5826 9.171 7.133 6.6678 23.026-8.9027 28.931-45.247 56.227-58.912 11.974-5.9959 26.553-6.7343 26.885-0.62026 0.02707 0.48734 0.94024-0.48735 0.81963-2.5844-1.1864-20.592-18.696-28.101-31.737-26.108" fill="#74ba29" fill-rule="evenodd" stroke-width="2.4614"/>
  <path d="m-6.8194 170.76h0.00246c-1.8066-3.7068-3.9012-13.589 16.577-22.772 27.375-10.707 50.81-17.828 43.271-36.635-10.06-24.343-44.733-24.823-61.659-21.537 16.754-0.38151 30.523 13.931 29.283 29.75-1.7205 11.138-9.5131 19.287-18.295 27.481-13.624 11.95-11.15 20.107-9.1784 23.713" fill="#87d738" fill-rule="evenodd" stroke-width="2.4614"/>
  <path d="m19.591 149.67c-16.43 3.8102-31.904 15.839-21.251 28.33 23.956 28.086 57.116 30.257 57.249 30.373-18.527-16.828-36.403-45.348-35.997-58.703" fill="#4f9212" fill-rule="evenodd" stroke-width="2.4614"/>
 </g>
</svg>
