<svg version="1.1" viewBox="0 0 140.32 71.312" xmlns="http://www.w3.org/2000/svg" xmlns:xlink="http://www.w3.org/1999/xlink">
 <defs>
  <linearGradient id="a" x1="-130.46" x2="158.25" y1="154.46" y2="154.46" gradientTransform="matrix(.60064 0 0 .4973 55.567 14.865)" gradientUnits="userSpaceOnUse">
   <stop stop-color="#9a9999" offset="0"/>
   <stop stop-color="#c8c7c7" offset=".125"/>
   <stop stop-color="#e2e2e2" offset=".25"/>
   <stop stop-color="#c8c7c7" offset=".375"/>
   <stop stop-color="#9d9b9d" offset=".5"/>
   <stop stop-color="#c8c7c7" offset=".625"/>
   <stop stop-color="#e2e2e2" offset=".75"/>
   <stop stop-color="#c8c7c7" offset=".875"/>
   <stop stop-color="#9b999a" offset="1"/>
  </linearGradient>
  <linearGradient id="e" x1="-130.46" x2="158.25" y1="154.46" y2="154.46" gradientTransform="matrix(.51579 0 0 .32675 41.362 14.342)" gradientUnits="userSpaceOnUse" xlink:href="#a"/>
  <linearGradient id="h" x2="1" gradientTransform="matrix(-13.691,-37.615,37.615,-13.691,191.56,108.3)" gradientUnits="userSpaceOnUse">
   <stop stop-color="#eb4c3a" offset="0"/>
   <stop stop-color="#df2e2a" offset=".545"/>
   <stop stop-color="#9e2b28" offset=".837"/>
   <stop stop-color="#802323" offset="1"/>
  </linearGradient>
  <linearGradient id="i" x2="1" gradientTransform="matrix(14.434,39.657,-39.657,14.434,174.37,36.373)" gradientUnits="userSpaceOnUse">
   <stop stop-color="#f4dd25" offset="0"/>
   <stop stop-color="#e98328" offset=".584"/>
   <stop stop-color="#e85f2a" offset="1"/>
  </linearGradient>
  <linearGradient id="g" x2="1" gradientTransform="matrix(47.297,-47.297,47.297,47.297,131.25,89.505)" gradientUnits="userSpaceOnUse">
   <stop stop-color="#8dc8ec" offset="0"/>
   <stop stop-color="#31a5e0" offset=".376"/>
   <stop stop-color="#258fcf" offset=".579"/>
   <stop stop-color="#2b4c96" offset="1"/>
  </linearGradient>
  <linearGradient id="f" x2="1" gradientTransform="matrix(-51.578,-51.578,51.578,-51.578,124.96,87.79)" gradientUnits="userSpaceOnUse">
   <stop stop-color="#918f90" offset="0"/>
   <stop stop-color="#c8c7c7" offset=".25"/>
   <stop stop-color="#e2e2e2" offset=".5"/>
   <stop stop-color="#c8c7c7" offset=".75"/>
   <stop stop-color="#918f90" offset="1"/>
  </linearGradient>
  <linearGradient id="c" x1="-130.46" x2="158.25" y1="154.46" y2="154.46" gradientTransform="matrix(.51579 0 0 .32675 5.5654 14.452)" gradientUnits="userSpaceOnUse" xlink:href="#a"/>
  <linearGradient id="b" x1="-130.46" x2="158.25" y1="154.46" y2="154.46" gradientTransform="matrix(.60064 0 0 .4973 55.567 14.865)" gradientUnits="userSpaceOnUse" xlink:href="#a"/>
  <linearGradient id="j" x1="-130.46" x2="158.25" y1="154.46" y2="154.46" gradientTransform="matrix(.51579 0 0 .32675 46.783 14.452)" gradientUnits="userSpaceOnUse" xlink:href="#a"/>
  <linearGradient id="d" x1="-130.46" x2="158.25" y1="154.46" y2="154.46" gradientTransform="matrix(.51579 0 0 .32675 5.5637 14.452)" gradientUnits="userSpaceOnUse" xlink:href="#a"/>
 </defs>
 <g transform="translate(-63.06,-37.923)">
  <path d="m125.7 46.281-7.262 24.51-7.39-24.507h-11.146l14.472 43.843h8.003l14.53-43.842zm-62.64 0v9.607h10.775v34.235h10.78v-34.235h10.774v-9.607z" fill="url(#f)"/>
  <path d="m168.05 38.675c-5.737 1.138-10.368 3.526-14.104 6.696-1.073 0.91-2.07 1.89-3 2.92-3.456 3.817-7.03 9.606-9.09 15.07-3.46 9.16-4.603 17.762-9.734 22.625-3.83 3.574 0.885 5.126 3.985 3.725 3.666-1.36 7.064-4.175 11.675-11.13 3.91-6.01 9.436-17.047 20.13-21.845 9.094-4.13 16.545-2.23 14.795 2.974 0.764-1.55 1.28-3.112 1.458-4.662 0.676-8.594-6.697-16.378-15.752-16.38-0.12 0-0.24 3e-3 -0.362 6e-3" fill="url(#g)"/>
  <path d="m178.17 70.691c-11.27 5.053-10.12 10.49-9.127 12.527 0.226 0.462 0.414 0.74 0.432 0.762 11.204 17.244 33.25 19.983 33.896 19.99h0.014c-11.34-10.276-22.944-28.385-19.04-35.67-1.987 0.774-4.06 1.56-6.175 2.39" fill="url(#h)"/>
  <path d="m168.05 38.675c9.22-0.213 16.8 7.665 16.114 16.373-0.178 1.55-0.694 3.113-1.458 4.662-1.804 3.65-5.014 7.234-8.61 10.464-7.5 6.573-6.138 11.063-5.05 13.047-0.994-2.036-2.15-7.476 9.125-12.53 15.066-5.895 27.963-9.815 23.814-20.166-4.776-10.592-16.695-12.602-25.05-12.602-5.11 0-8.886 0.752-8.886 0.752" fill="url(#i)"/>
 </g>
 <g transform="translate(-47.32,37.895)">
  <g transform="translate(73.41,-41.424)" stroke-width=".49298">
   <g fill="url(#d)" stroke-width=".3703">
    <path d="m87.189 67.557c0-1.0905-0.55503-1.9349-1.6098-2.5683-0.5555-0.29886-1.1384-0.50989-1.7493-0.65075-0.61086-0.12291-1.2496-0.21103-1.9159-0.28147l-2.3602-0.22871c-0.94443-0.08842-1.6665-0.28147-2.1661-0.56293-0.24984-0.1232-0.44431-0.29915-0.55504-0.50989-0.11072-0.21132-0.16656-0.42235-0.16656-0.65135 0-0.56292 0.30567-1.0375 0.94443-1.4067 0.61039-0.35162 1.4991-0.54525 2.6379-0.54525 1.8321 0 3.2753 0.33453 4.3593 0.96763l1.8875-1.196c-0.83372-0.49222-1.7493-0.84436-2.7217-1.0728-0.99939-0.22872-2.1378-0.35191-3.4149-0.35191-2.027 0-3.6373 0.33453-4.8311 1.003-1.1942 0.66815-1.7772 1.565-1.7772 2.6555 0 1.0557 0.47223 1.8471 1.4715 2.41 0.83279 0.50989 2.0541 0.84436 3.7201 1.0026l2.3323 0.21103c0.94357 0.08783 1.6656 0.26378 2.1652 0.52757 0.49968 0.28146 0.77698 0.72117 0.77698 1.3019 0 0.6154-0.36056 1.0905-1.0822 1.4247-0.72206 0.35132-1.7214 0.50989-2.9989 0.50989-1.0547 0-1.9712-0.08842-2.804-0.28177-0.8328-0.17566-1.6106-0.49222-2.2769-0.93221l-1.9708 1.2496c0.91661 0.59772 1.9433 1.0197 3.0543 1.2659 1.1101 0.26408 2.4425 0.38696 3.942 0.38696 0.99939 0 1.9433-0.07013 2.8319-0.24608 0.88862-0.17596 1.6377-0.42206 2.2769-0.73891 0.63835-0.31654 1.1384-0.7035 1.4715-1.1607 0.33312-0.45742 0.52761-0.96763 0.52761-1.5303z"/>
    <path d="m82.354 72.255h-2.2769l-1.9438 2.5857h2.8045z"/>
    <path d="m60.053 71.23-1.8e-4 -12.297h10.884v1.7646h-8.316v3.5106h7.0699v1.6542h-7.0699v3.621h8.316l-1.03e-4 1.7461z"/>
   </g>
   <path d="m45.453 58.935v12.297h2.5678v-5.2383h3.3058l3.5104 5.2383h3.076l-3.9414-5.4411c1.0173-0.25734 1.8136-0.69239 2.39-1.3051 0.59341-0.61268 0.89059-1.3171 0.89059-2.1136 0-0.55142-0.16913-1.0475-0.5082-1.4886-0.32211-0.45339-0.71293-0.8332-1.1707-1.1396-0.86466-0.53919-2.0256-0.80849-3.4835-0.80849zm2.5678 1.6542h4.0438c0.76296 0 1.3984 0.12766 1.907 0.38499 0.55949 0.30633 0.84028 0.77255 0.84028 1.3975 0 0.52692-0.24632 0.98609-0.73798 1.3783-0.47468 0.39212-1.1874 0.58902-2.1368 0.58902h-3.9162z" fill="url(#c)" stroke-width=".3703"/>
   <g fill="url(#d)" stroke-width=".3703">
    <path d="m30.023 67.079v-8.1427h2.594v7.9404c0 0.84548 0.3306 1.495 0.99184 1.9483 0.66119 0.44114 1.4835 0.66171 2.4668 0.66171s1.8057-0.22057 2.4668-0.66171c0.67816-0.4534 1.0173-1.1028 1.0173-1.9483v-7.9404h2.5685l5.6e-5 8.1427c1.7e-5 1.2866-0.59336 2.3221-1.7801 3.1064-1.1698 0.77196-2.594 1.158-4.2724 1.158s-3.111-0.386-4.2979-1.158c-1.1698-0.78425-1.7547-1.8197-1.7547-3.1064z"/>
    <path d="m12.224 71.23v-12.297h2.4414l4.8573 8.0323 4.8064-8.0323h2.4414v12.297h-2.594v-7.6651h-0.05086l-3.5603 5.9188h-2.1616l-3.5603-5.9188h-0.05086v7.6651z"/>
   </g>
   <path d="m-0.50068 66.123v-1.7646h6.0528v2.5182q0 1.8197-1.7802 3.088-1.7547 1.2683-4.2979 1.2683-2.0091 0-3.3824-0.69844-1.3479-0.69844-1.9582-1.5073-0.43233-0.53306-0.58491-1.1764-0.15259-0.66171-0.15259-2.8674 0-2.224 0.15259-2.8674 0.15259-0.64334 0.58491-1.1764 0.61033-0.80875 1.9582-1.5073 1.3733-0.71683 3.3824-0.71683 2.416 0 3.9927 1.0844 1.5767 1.0661 1.9836 2.5733h-2.7211q-0.30518-0.71683-1.1698-1.2499-0.86466-0.53303-2.0853-0.53303-0.91549 0-1.6021 0.27571-0.66119 0.25733-1.0427 0.62494-0.48319 0.45951-0.66119 1.0293-0.17801 0.56978-0.17801 2.463 0 1.8932 0.17801 2.463t0.66119 1.0293q0.38147 0.36762 1.0427 0.64333 0.68662 0.25733 1.6021 0.25733 1.4495 0 2.4668-0.71683 1.0173-0.73523 1.0173-1.8932v-0.64334z" fill="url(#e)" stroke-width=".3703"/>
   <g fill="url(#b)">
    <path d="m-15.854 71.23v-10.643h-4.6539v-1.6543h11.927v1.6543h-4.6793v10.643z" fill="url(#j)" stroke-width=".3703"/>
   </g>
  </g>
 </g>
</svg>
