<svg viewBox="0 0 853.16 583.9" xmlns="http://www.w3.org/2000/svg">
    <defs>
        <linearGradient id="a" x2="1" gradientTransform="rotate(-135 46.321 .022) scale(415.82)" gradientUnits="userSpaceOnUse">
            <stop stop-color="#918f90" offset="0"/>
            <stop stop-color="#c8c7c7" offset=".25"/>
            <stop stop-color="#e2e2e2" offset=".5"/>
            <stop stop-color="#c8c7c7" offset=".75"/>
            <stop stop-color="#918f90" offset="1"/>
        </linearGradient>
        <linearGradient id="b" x2="1" gradientTransform="rotate(-45 108.817 -117.391) scale(381.3)" gradientUnits="userSpaceOnUse">
            <stop stop-color="#8dc8ec" offset="0"/>
            <stop stop-color="#31a5e0" offset=".376"/>
            <stop stop-color="#258fcf" offset=".579"/>
            <stop stop-color="#2b4c96" offset="1"/>
        </linearGradient>
        <linearGradient id="c" x2="1" gradientTransform="rotate(-110 281.754 -85.73) scale(228.192)" gradientUnits="userSpaceOnUse">
            <stop stop-color="#eb4c3a" offset="0"/>
            <stop stop-color="#df2e2a" offset=".545"/>
            <stop stop-color="#9e2b28" offset=".837"/>
            <stop stop-color="#802323" offset="1"/>
        </linearGradient>
        <linearGradient id="d" x2="1" gradientTransform="rotate(70 366.27 127.437) scale(240.579)" gradientUnits="userSpaceOnUse">
            <stop stop-color="#f4dd25" offset="0"/>
            <stop stop-color="#e98328" offset=".584"/>
            <stop stop-color="#e85f2a" offset="1"/>
        </linearGradient>
        <linearGradient id="e" x1="-122.02" x2="703.83" y1="367.24" y2="367.24" gradientTransform="matrix(3.3537 0 0 2.7705 -804.31 92.016)" gradientUnits="userSpaceOnUse">
            <stop stop-color="#9a9999" offset="0"/>
            <stop stop-color="#c8c7c7" offset=".125"/>
            <stop stop-color="#e2e2e2" offset=".25"/>
            <stop stop-color="#c8c7c7" offset=".375"/>
            <stop stop-color="#9d9b9d" offset=".5"/>
            <stop stop-color="#c8c7c7" offset=".625"/>
            <stop stop-color="#e2e2e2" offset=".75"/>
            <stop stop-color="#c8c7c7" offset=".875"/>
            <stop stop-color="#9b999a" offset="1"/>
        </linearGradient>
    </defs>
    <g stroke-width="5.701">
        <path d="M83.238-203.84L41.84-64.12-.288-203.83h-63.539l82.5 249.93h45.622l82.83-249.93zm-357.09 0v54.766h61.424v195.16h61.453v-195.16h61.419v-54.766z" fill="url(#a)" transform="translate(274.344 251.488)"/>
        <path d="M324.66-247.2c-32.705 6.487-59.104 20.1-80.402 38.171-6.117 5.188-11.8 10.774-17.102 16.646-19.701 21.759-40.076 54.76-51.819 85.909-19.724 52.218-26.24 101.25-55.49 128.98-21.833 20.374 5.045 29.221 22.717 21.235 20.899-7.753 40.269-23.8 66.555-63.448 22.29-34.261 53.791-97.179 114.75-124.53 51.842-23.544 94.317-12.712 84.341 16.954 4.355-8.836 7.297-17.74 8.312-26.576 3.853-48.991-38.177-93.365-89.796-93.376-.685 0-1.369.017-2.064.034" fill="url(#b)" transform="translate(274.344 251.488)"/>
        <path d="M382.41-64.69c-64.246 28.805-57.69 59.8-52.03 71.412 1.288 2.634 2.36 4.219 2.463 4.344 63.87 98.302 189.55 113.92 193.23 113.96h.08c-64.646-58.58-130.8-161.81-108.54-203.34-11.328 4.412-23.146 8.893-35.202 13.625" fill="url(#c)" transform="translate(274.344 251.488)"/>
        <path d="M324.66-247.2c52.56-1.214 95.771 43.695 91.86 93.337-1.015 8.836-3.956 17.746-8.311 26.576-10.284 20.807-28.583 41.238-49.083 59.652-42.755 37.47-34.991 63.066-28.788 74.376-5.667-11.607-12.257-42.618 52.017-71.429 85.886-33.605 159.41-55.952 135.76-114.96-27.226-60.381-95.172-71.839-142.8-71.839-29.13 0-50.656 4.287-50.656 4.287" fill="url(#d)" transform="translate(274.344 251.488)"/>
    </g>
    <path d="M599.97 410.47l44.483-121.65h15.07l44.302 121.65h-19.246l-9.441-27.598H629.02l-9.623 27.598zm34.497-43.757h35.223q-3.813-11.257-5.992-17.612-2.178-6.355-3.812-11.257-1.635-4.902-3.45-9.986-1.634-5.265-4.358-13.799-2.905 8.897-4.72 14.344-1.634 5.265-3.268 10.349-1.635 5.084-3.813 11.257-1.997 6.173-5.81 16.704zm-107.53-61.369v37.039h27.961q10.168 0 15.251-5.81 5.265-5.81 5.265-13.617 0-9.26-5.991-13.799-5.447-3.813-13.617-3.813zm-18.338 105.13v-121.47h47.388q15.614 0 24.874 7.989 4.902 4.539 8.352 11.257 3.631 6.536 3.631 14.707 0 11.802-6.355 20.88-6.173 9.078-17.067 12.89l28.142 53.744h-21.968l-25.056-51.746h-23.603v51.746zm-119.28 0l44.483-121.65h15.07l44.302 121.65h-19.246l-9.441-27.598H418.37l-9.623 27.598zm34.497-43.757h35.223q-3.813-11.257-5.992-17.612-2.178-6.355-3.812-11.257-1.635-4.902-3.45-9.986-1.634-5.265-4.358-13.799-2.905 8.897-4.72 14.344-1.634 5.265-3.268 10.349-1.635 5.084-3.813 11.257-1.997 6.173-5.81 16.704zm-130.04-16.885q0-21.969 1.09-28.324t4.175-11.62q4.358-7.989 13.98-14.888 9.805-7.081 24.148-7.081 14.162 0 23.785 7.081 9.805 6.9 14.344 14.888 2.905 5.265 3.995 11.62 1.27 6.355 1.27 28.324 0 21.788-1.27 28.324-1.09 6.355-3.995 11.62-4.539 7.989-14.344 14.888-9.622 6.9-23.785 6.9-14.344 0-24.148-6.9-9.623-6.9-13.98-14.888-3.086-5.265-4.176-11.62-1.089-6.536-1.089-28.324zm18.519 0q0 18.701 1.271 24.33 1.27 5.629 4.72 10.168 2.724 3.631 7.445 6.355 4.902 2.542 11.439 2.542t11.075-2.542q4.72-2.724 7.625-6.355 3.632-4.54 4.903-10.168 1.27-5.628 1.27-24.33 0-18.701-1.27-24.33-1.271-5.628-4.903-10.168-2.905-3.631-7.625-6.173-4.54-2.724-11.075-2.724t-11.44 2.724q-4.72 2.542-7.443 6.173-3.45 4.54-4.721 10.168-1.271 5.629-1.271 24.33zm-157.88 61.732v-123.64h18.667v123.64zm-131.76 0v-123.64h17.743l35.301 80.767 34.931-80.767h17.743v123.64h-18.852v-77.07h-.37l-25.875 59.512h-15.71l-25.875-59.512h-.37v77.07zm-44.761 0v-123.64h18.667v123.64zm-66.111 0v-107.01h-33.822V287.92h86.681v16.634h-34.007v107.01zm374.16-35.693c0-10.588-4.133-18.787-11.986-24.936a45.059 45.059 0 0 0-13.025-6.318c-4.548-1.194-9.304-2.05-14.265-2.733l-17.573-2.22c-7.032-.86-12.408-2.734-16.129-5.466-1.86-1.197-3.308-2.905-4.133-4.951-.824-2.052-1.24-4.1-1.24-6.324 0-5.466 2.276-10.073 7.032-13.66 4.545-3.413 11.161-5.293 19.641-5.293 13.641 0 24.387 3.248 32.458 9.395l14.054-11.612c-6.207-4.78-13.025-8.199-20.265-10.416-7.44-2.221-15.917-3.417-25.426-3.417-15.093 0-27.082 3.248-35.97 9.738-8.893 6.487-13.234 15.195-13.234 25.783 0 10.25 3.516 17.934 10.957 23.4 6.2 4.95 15.294 8.198 27.698 9.735l17.365 2.049c7.025.852 12.401 2.56 16.122 5.122 3.72 2.733 5.785 7.002 5.785 12.64 0 5.975-2.685 10.588-8.057 13.833-5.376 3.411-12.817 4.95-22.33 4.95-7.852 0-14.676-.858-20.877-2.735a43.757 43.757 0 0 1-16.953-9.051l-14.674 12.133c6.824 5.803 14.469 9.9 22.74 12.29 8.266 2.565 18.187 3.758 29.352 3.758 7.44 0 14.469-.681 21.086-2.39 6.616-1.708 12.193-4.097 16.953-7.173 4.752-3.074 8.476-6.831 10.957-11.27 2.48-4.44 3.928-9.394 3.928-14.857zm-35.964 45.597h-16.953l-14.473 25.105h20.881z" fill="url(#e)" stroke-width="2.599" transform="matrix(1.0331 0 0 .95854 126.064 155.849)" aria-label="OARA"/>
</svg>
