<svg xmlns="http://www.w3.org/2000/svg" width="52.917mm" height="17.214mm" viewBox="0 0 52.916668 17.214239"><g fill="#fff"><path d="M35.412 6.679c.286 1.01.772 1.549 1.191 1.991.109.105.125.145.044.27-.7.961-.881 1.227-.881 1.227-2.144 2.732-3.983 5.077-4.289 5.379-1.01 1.014-2.237 1.529-3.649 1.529h-2.18c-1.412 0-2.639-.515-3.649-1.529-1.014-1.01-1.525-2.237-1.525-3.649v-8.122h-4.293c-.515 0-.966.173-1.348.523-.366.378-.539.813-.539 1.299v10.452c0 .559-.463 1.026-1.022 1.026h-2.502c-.559 0-1.022-.467-1.022-1.026v-10.705c0-1.497.539-2.792 1.609-3.862 1.074-1.074 2.37-1.613 3.866-1.613h6.091l2.49-.008c.527 0 .966.439.966.966v10.826c0 .475.173.889.531 1.251.358.314.776.475 1.255.475h.62c.491 0 .913-.165 1.275-.495.418-.434 5.813-7.664 6.96-9.189.024-.04.117-.02.093.052-.153.535-.434 1.722-.093 2.933m-34.236-6.811h7.547c.559 0 1.026.463 1.026 1.022v1.859c0 .559-.467 1.026-1.026 1.026h-7.547c-.559 0-1.026-.467-1.026-1.026v-1.859c0-.559.467-1.022 1.026-1.022"/><path d="M41.471 9.775c-1.569 0-5.572-.728-5.6-4.928.028-3.914 3.959-4.932 5.58-4.984l8.372-.004c.559 0 1.022.463 1.022 1.026v1.46c0 .559-.463 1.026-1.022 1.026l-7.362.004c-.543 0-2.056-.04-2.068 1.179.04.978 1.227 1.058 1.569 1.062h5.419c1.569 0 2.929.563 4.051 1.694 1.098 1.09 1.613 2.349 1.641 3.894-.028 1.637-.543 3.017-1.637 4.116-1.126 1.118-2.486 1.69-4.051 1.69h-11.172c-.587 0-1.364-.676-1.074-1.074.282-.386 1.219-1.537 1.653-2.032.43-.499.736-.994 1.324-.994h8.259c1.666 0 2.007-1.058 2.028-1.573.02-.535-.447-1.565-1.513-1.565h-4.542z"/></g></svg>