<svg width="654.94" height="800" version="1.1" viewBox="0 0 173.29 211.67" xmlns="http://www.w3.org/2000/svg">
 <defs>
  <clipPath id="c">
   <path d="m0 0h595.28v595.28h-595.28z"/>
  </clipPath>
  <clipPath id="b">
   <path d="m0 0h595.28v595.28h-595.28z"/>
  </clipPath>
  <clipPath id="a">
   <path d="m0 0h595.28v595.28h-595.28z"/>
  </clipPath>
 </defs>
 <g transform="matrix(.65494 0 0 .65494 -44.21 136.43)">
  <g transform="matrix(36.195 0 0 -36.195 -12420 19211)">
   <path d="m350.52 527.59h-5.519v8.929h5.519z" fill="#757378"/>
   <g clip-path="url(#c)">
    <g transform="translate(350.52 527.59)">
     <path d="m0 0h-3.163v0.699l2.106 2.56c0.194 0.235 0.292 0.479 0.292 0.73s-0.071 0.452-0.212 0.603-0.337 0.227-0.588 0.227c-0.23 0-0.422-0.069-0.576-0.207-0.154-0.139-0.231-0.351-0.231-0.638h-0.784c0 0.461 0.149 0.834 0.446 1.118s0.679 0.426 1.145 0.426c0.472 0 0.853-0.139 1.145-0.418 0.232-0.222 0.372-0.503 0.42-0.843v-0.529c-0.019-0.122-0.052-0.234-0.101-0.335-0.079-0.166-0.211-0.365-0.395-0.595l-1.714-2.099h2.21z" fill="#edeeef"/>
    </g>
   </g>
   <path d="m351.42 527.59h0.891v0.895h-0.891z" fill="#757378"/>
   <g transform="translate(351.43 529.62)">
    <path d="m0 0v-0.625h0.151v0.228h0.717v0.17h-0.717v0.227z" fill="#757378"/>
   </g>
   <g transform="translate(351.43 530.26)">
    <path d="m0 0 0.565-0.175-0.565-0.174v-0.177l0.868 0.287v0.128l-0.868 0.288z" fill="#757378"/>
   </g>
   <g clip-path="url(#b)">
    <g transform="translate(352.04 531.47)">
     <path d="m0 0c0.082 0 0.146-0.03 0.193-0.091s0.07-0.138 0.07-0.232c0-0.069-9e-3 -0.129-0.026-0.179-0.018-0.051-0.047-0.097-0.089-0.138l-0.109 0.11c0.049 0.048 0.073 0.119 0.073 0.21 0 0.103-0.036 0.154-0.107 0.154-0.032 0-0.056-9e-3 -0.073-0.027-0.015-0.016-0.025-0.042-0.031-0.077l-0.014-0.105c-0.011-0.074-0.035-0.13-0.072-0.169-0.042-0.041-0.098-0.062-0.171-0.062-0.078 0-0.142 0.027-0.19 0.082-0.049 0.054-0.073 0.128-0.073 0.221 0 0.117 0.034 0.211 0.101 0.281l0.106-0.108c-0.039-0.041-0.059-0.101-0.059-0.178 0-0.043 0.01-0.076 0.031-0.1 0.02-0.023 0.047-0.034 0.078-0.034 0.026 0 0.046 8e-3 0.062 0.025 0.018 0.02 0.03 0.047 0.034 0.081l0.015 0.103c0.011 0.073 0.033 0.128 0.067 0.166 0.042 0.045 0.104 0.067 0.184 0.067" fill="#757378"/>
    </g>
   </g>
   <g transform="translate(352.14 532.2)">
    <path d="m0 0v-0.395h-0.716v-0.169h0.867v0.564z" fill="#757378"/>
   </g>
   <g clip-path="url(#a)">
    <g transform="translate(351.75 532.92)">
     <path d="m0 0c0.023 1e-3 0.059 1e-3 0.108 1e-3 0.05 0 0.086 0 0.109-1e-3s0.051-4e-3 0.084-8e-3c0.034-5e-3 0.063-0.014 0.086-0.027 0.024-0.012 0.046-0.029 0.067-0.051 0.064-0.063 0.095-0.141 0.095-0.234 0-0.094-0.031-0.173-0.095-0.236-0.021-0.021-0.043-0.038-0.066-0.05s-0.052-0.021-0.087-0.026-0.063-8e-3 -0.084-8e-3c-0.021-1e-3 -0.057-2e-3 -0.109-2e-3 -0.051 0-0.087 1e-3 -0.108 2e-3 -0.021 0-0.049 3e-3 -0.084 8e-3s-0.064 0.014-0.087 0.026-0.045 0.029-0.066 0.05c-0.064 0.063-0.095 0.142-0.095 0.236 0 0.093 0.031 0.171 0.095 0.234 0.021 0.022 0.043 0.039 0.067 0.051 0.023 0.013 0.052 0.022 0.085 0.027 0.034 4e-3 0.062 7e-3 0.085 8e-3m0.277-0.177c-0.031 5e-3 -0.087 8e-3 -0.169 8e-3 -0.081 0-0.137-3e-3 -0.168-8e-3 -0.031-6e-3 -0.056-0.017-0.075-0.034-0.031-0.027-0.046-0.064-0.046-0.109 0-0.047 0.015-0.083 0.046-0.11 0.019-0.017 0.043-0.029 0.074-0.034s0.087-8e-3 0.169-8e-3 0.139 3e-3 0.17 8e-3 0.055 0.017 0.074 0.034c0.031 0.027 0.046 0.063 0.046 0.11 0 0.045-0.015 0.082-0.046 0.109-0.019 0.017-0.044 0.028-0.075 0.034" fill="#757378"/>
    </g>
   </g>
  </g>
 </g>
</svg>
