<svg width="800mm" height="554.79mm" version="1.1" viewBox="0 0 800 554.79" xml:space="preserve" xmlns="http://www.w3.org/2000/svg"><g transform="translate(186.8 .48187)"><g transform="matrix(2.5099 0 0 2.4731 278.59 .71866)" stroke-width=".25444" aria-label="świętokrzyska"><path d="m-176.63 184.84q-1.4163 0-0.5218-1.466l2.6836-4.4477q0.69573-1.1678 2.6338-1.1678h3.7768q1.8387 0 0.54664 1.466l-4.0999 4.6962q-0.79512 0.91937-2.5096 0.91937zm-7.9512 26.835q-1.2175-0.86967-0.67088-1.8636l1.2672-2.3108q0.67088-1.2424 2.0872-0.29817t3.3296 1.3915q1.9381 0.44725 3.5284 0.44725 1.1182 0 2.0872-0.22363 0.96906-0.22362 1.6399-0.86966 0.67089-0.64604 0.67089-1.8884 0-0.74543-0.39756-1.2672-0.39757-0.5218-1.0188-0.79512-0.62119-0.27333-1.3169-0.44726-0.91937-0.22363-2.6587-0.74543-1.7145-0.5218-3.3047-1.2175-1.3169-0.5715-2.5842-1.5902-1.2424-1.0436-1.8387-2.3108-0.5715-1.2672-0.5715-3.1308 0-2.5096 1.4412-4.398 1.466-1.8884 3.7768-2.609t5.7646-0.72058q2.3357 0 4.5471 0.67089 2.2114 0.67088 3.1556 1.2672 1.4909 0.94421 0.74543 2.0127l-1.5157 2.2114q-0.69573 0.9939-2.2363 0.14908-1.1678-0.64604-2.3108-1.0436-1.1181-0.39756-2.5096-0.39756-0.94421 0-1.8139 0.19878t-1.4909 0.74543q-0.59635 0.54665-0.59635 1.4412 0 0.94422 0.54665 1.4909 0.5715 0.5218 1.2921 0.77028 0.74543 0.24848 1.4163 0.47211 1.3915 0.44725 2.8078 0.86966 1.4163 0.39757 2.8823 0.96906 1.2672 0.49696 2.4599 1.4163t1.7393 2.3357q0.54665 1.4163 0.54665 3.2302 0 2.4102-1.4412 4.4726-1.4412 2.0624-3.8017 2.932-2.3605 0.86966-5.4913 0.86966-3.5035 0-5.9634-0.49695t-4.1993-1.7393z"/><path d="m-161.74 189.26q-0.54665-1.9381 0.81997-1.9381h4.1993q1.1927 0 1.4908 1.2672l3.3544 14.561q0.29817 1.2672 0.5218 2.4351t0.27332 1.9133h0.14909q0.0497-0.74543 0.27332-1.9381 0.22363-1.2175 0.5218-2.4102l3.5284-14.561q0.29817-1.2672 1.4909-1.2672h4.5223q1.1927 0 1.4909 1.2672l3.5284 14.561q0.29817 1.1927 0.5218 2.4102 0.22363 1.1927 0.27333 1.9381h0.14908q0.0497-0.74543 0.27333-1.9133t0.5218-2.4351l3.3544-14.561q0.29817-1.2672 1.4909-1.2672h4.1992q1.3666 0 0.81998 1.9381l-6.4604 22.487q-0.47211 1.6648-1.8139 1.6648h-4.4974q-1.4163 0-1.8139-1.6648l-3.6029-14.735q-0.32302-1.2672-0.4721-2.0375-0.12424-0.77028-0.17394-1.7145h-0.0994q-0.0497 0.94421-0.19878 1.7145-0.12424 0.77028-0.44726 2.0375l-3.6029 14.735q-0.39756 1.6648-1.8139 1.6648h-4.4974q-1.3418 0-1.8139-1.6648z"/><path d="m-118.91 213.41q-1.4909 0-1.4909-1.4909v-23.108q0-1.4909 1.4909-1.4909h3.9756q1.4909 0 1.4909 1.4909v23.108q0 1.4909-1.4909 1.4909zm0-29.917q-1.4909 0-1.4909-1.4909v-3.1805q0-1.4909 1.4909-1.4909h3.9756q1.4909 0 1.4909 1.4909v3.1805q0 1.4909-1.4909 1.4909z"/><path d="m-108.93 200.37q0-6.2865 3.1308-9.9142 3.1557-3.6278 8.8955-3.6278 6.6592 0 9.8894 3.429 3.2302 3.429 3.2302 11.032 0 1.4909-1.3915 1.4909h-16.399q0.39756 4.1247 2.0375 5.1932 1.6399 1.0684 3.8017 1.0684 2.0624 0 3.1557-0.54664 1.0933-0.54665 1.8387-1.4909 0.84482-1.0933 2.0872-0.34787l2.4848 1.5157q1.466 0.89451 0.42241 2.1369-0.86967 1.0188-1.789 1.6648-0.89452 0.64604-2.0127 1.7145-1.2921 1.0684-2.8575 2.1866-1.5654 1.143-1.5654 1.9133t0.5715 0.96906q0.59634 0.22363 1.3915 0.22363 1.2424 0 2.0127-0.12424 0.89452-0.14909 0.99391 0.77028l0.34787 2.932q0.09939 0.89451-0.84482 1.0684-1.0933 0.22363-3.3296 0.22363-3.5035 0-5.2677-1.0933-1.7393-1.0933-1.7393-3.2054 0-0.89451 0.22363-1.7393 0.24848-0.84482 1.0933-1.8636 0.86967-0.9939 2.7581-1.9878v-0.0994q-0.24848 0.0497-0.49695 0.0497-6.6095 0-9.6409-3.6278-3.0314-3.6278-3.0314-9.9142zm7.3798-2.5593h10.809q0-2.6835-1.3418-4.3732-1.3418-1.7145-4.2738-1.7145-2.3357 0-3.7023 1.6399-1.3666 1.6151-1.4909 4.4477z"/><path d="m-80.098 192.29q-1.466 0-1.466-1.2424v-2.4848q0-1.2424 1.466-1.2424h1.6896v-0.86967q0-1.1181 0.5218-2.0375l1.9133-3.3544q0.54665-0.94421 1.2921-0.94421h1.7393q1.4909 0 1.4909 1.4909v5.715h4.0253q1.466 0 1.466 1.2424v2.4848q0 1.2424-1.466 1.2424h-4.0253v12.324q0 2.5345 0.34787 3.6526 0.37272 1.0933 1.8884 1.0933 0.77028 0 1.7393-0.24847 0.96906-0.27333 1.5157-0.5218 0.86967-0.39757 1.143 0.57149l0.74543 2.8326q0.22363 0.84482-0.64604 1.2424-0.81997 0.37271-2.2611 0.67088-1.4163 0.32302-2.8575 0.32302-3.5532 0-6.0628-1.466-2.5096-1.466-2.5096-6.038v-14.436z"/><path d="m-61.649 200.37q0-6.3362 3.255-9.9391 3.2799-3.6029 9.7403-3.6029 6.4604 0 9.7154 3.6029 3.2799 3.6029 3.2799 9.9391t-3.2799 9.9391q-3.255 3.6029-9.7154 3.6029-6.4604 0-9.7403-3.6029-3.255-3.6029-3.255-9.9391zm7.3549 0q0 4.7211 1.4412 6.7089 1.466 1.963 4.1993 1.963t4.1744-1.963q1.466-1.9878 1.466-6.7089 0-4.721-1.466-6.684-1.4412-1.9878-4.1744-1.9878t-4.1993 1.9878q-1.4412 1.963-1.4412 6.684z"/><path d="m-29.658 213.41q-1.4909 0-1.4909-1.4909v-33.693q0-1.4909 1.4909-1.4909h3.9756q1.4909 0 1.4909 1.4909v18.263q0 0.9939-0.09939 1.9878h0.09939l7.8767-10.138q0.79512-1.0188 1.9381-1.0188h4.075q2.286 0 0.77028 1.8387l-7.504 9.0694 8.6967 13.343q1.1927 1.8387-0.77028 1.8387h-4.2489q-1.2424 0-2.0375-1.2921l-5.6404-9.0694-3.1557 3.8017v5.0689q0 1.4909-1.4909 1.4909z"/><path d="m-2.8096 213.41q-1.4909 0-1.4909-1.4909v-23.108q0-1.4909 1.4909-1.4909h3.9259q1.4909 0 1.4909 1.4909v2.0375h0.099391q0.64604-1.5902 2.1617-2.8078 1.5157-1.2175 3.5781-1.2175 1.4163 0 2.3357 0.34787 0.86967 0.32302 0.67089 1.1927l-0.69574 2.9569q-0.22363 0.99391-1.3418 0.59635-0.64604-0.22363-1.2424-0.22363-2.3854 0-3.9508 2.8575-1.5654 2.8575-1.5654 8.324v9.0446q0 1.4909-1.4909 1.4909z"/><path d="m13.776 213.41q-1.4909 0-1.4909-1.2424v-1.8884q0-1.2921 1.0188-2.6836l11.132-15.306v-0.0994q-0.99391 0.0994-1.9878 0.0994h-8.0755q-1.4909 0-1.4909-1.2424v-0.79512q0-2.932 1.4909-2.932h17.195q1.4909 0 1.4909 1.2424v1.7393q0 1.2175-1.0684 2.6836l-11.206 15.455v0.0994q1.3169-0.0994 1.9878-0.0994h9.3924q1.4909 0 1.4909 1.2424v2.4848q0 1.2424-1.4909 1.2424z"/><path d="m35.182 189.26q-0.67089-1.9381 0.81997-1.9381h4.4477q1.143 0 1.4909 1.2672l3.752 13.89q0.27332 0.96906 0.47211 2.5096 0.22363 1.5157 0.22363 1.9381h0.14908q0.29817-1.3169 0.42241-2.0872 0.14909-0.79513 0.77028-3.0563l3.5532-13.194q0.34787-1.2672 1.4909-1.2672h4.4477q1.466 0 0.81997 1.9381l-8.3737 25.196q-1.466 4.4229-3.6029 6.9076-2.1369 2.4848-5.9386 2.4848-2.0872 0-3.7271-0.34787-0.94421-0.19878-0.72058-1.2921l0.54665-2.7332q0.22363-1.0684 1.2672-0.74543 0.77028 0.24848 1.4412 0.24848 2.0127 0 3.0563-1.9133 1.0684-1.9133 1.4163-3.2799l0.07454-0.37272z"/><path d="m60.142 211.67q-1.2175-0.86967-0.67089-1.8636l1.2672-2.3108q0.67089-1.2424 2.0872-0.29817 1.4163 0.94421 3.3296 1.3915 1.9381 0.44725 3.5284 0.44725 1.1181 0 2.0872-0.22363 0.96906-0.22362 1.6399-0.86966 0.67089-0.64604 0.67089-1.8884 0-0.74543-0.39756-1.2672-0.39756-0.5218-1.0188-0.79512-0.62119-0.27333-1.3169-0.44726-0.91936-0.22363-2.6587-0.74543-1.7145-0.5218-3.3047-1.2175-1.3169-0.5715-2.5842-1.5902-1.2424-1.0436-1.8387-2.3108-0.5715-1.2672-0.5715-3.1308 0-2.5096 1.4412-4.398 1.466-1.8884 3.7768-2.609t5.7647-0.72058q2.3357 0 4.5471 0.67089 2.2114 0.67088 3.1557 1.2672 1.4909 0.94421 0.74543 2.0127l-1.5157 2.2114q-0.69573 0.9939-2.2363 0.14908-1.1678-0.64604-2.3108-1.0436-1.1181-0.39756-2.5096-0.39756-0.94421 0-1.8139 0.19878t-1.4909 0.74543q-0.59634 0.54665-0.59634 1.4412 0 0.94422 0.54665 1.4909 0.5715 0.5218 1.2921 0.77028 0.74543 0.24848 1.4163 0.47211 1.3915 0.44725 2.8078 0.86966 1.4163 0.39757 2.8823 0.96906 1.2672 0.49696 2.4599 1.4163 1.1927 0.91936 1.7393 2.3357 0.54665 1.4163 0.54665 3.2302 0 2.4102-1.4412 4.4726-1.4412 2.0624-3.8017 2.932-2.3605 0.86966-5.4913 0.86966-3.5035 0-5.9634-0.49695t-4.1993-1.7393z"/><path d="m86.816 213.41q-1.4909 0-1.4909-1.4909v-33.693q0-1.4909 1.4909-1.4909h3.9756q1.4909 0 1.4909 1.4909v18.263q0 0.9939-0.09939 1.9878h0.09939l7.8767-10.138q0.79512-1.0188 1.9381-1.0188h4.075q2.286 0 0.77028 1.8387l-7.504 9.0694 8.6967 13.343q1.1927 1.8387-0.77027 1.8387h-4.249q-1.2424 0-2.0375-1.2921l-5.6404-9.0694-3.1557 3.8017v5.0689q0 1.4909-1.4909 1.4909z"/><path d="m110.78 206.45q0-4.9695 4.7459-7.2058t10.834-2.3854v-0.9939q0-2.286-1.143-3.2302-1.143-0.94421-3.1805-0.94421-1.4412 0-2.5593 0.42241-1.0933 0.39756-1.9133 0.94421-0.79513 0.5218-1.4412 1.0684-1.143 0.99391-1.8884 0.0994l-2.0624-2.5345q-0.77028-0.94421 0.37271-1.9381 0.86967-0.77028 2.0127-1.3418 1.1678-0.5715 3.0811-1.0684 1.9133-0.5218 4.9695-0.5218 5.1683 0 7.9264 2.3854 2.7829 2.3854 2.7829 7.0319v15.679q0 1.4909-1.4909 1.4909h-4.075q-1.3418 0-1.3418-1.4909v-0.74543h-0.0497q-1.466 1.4163-3.5284 2.0872-2.0375 0.64603-3.752 0.64603-4.075 0-6.1871-1.9878-2.112-2.0127-2.112-5.4665zm7.3549-0.14909q0 0.86967 0.34787 1.5157 0.34787 0.62119 1.0933 0.91936t1.6648 0.29817q1.2672 0 2.4599-0.34786 1.1927-0.34787 2.6587-1.64v-5.3919q-4.1744 0.4721-5.5907 1.2175-1.4163 0.74543-2.0375 1.5406-0.59635 0.79512-0.59635 1.8884z"/></g><g transform="matrix(2.5099 0 0 2.4731 278.59 .71866)" stroke-width=".25444" aria-label="telewizja"><path d="m-125.21 138.12q-1.466 0-1.466-1.2424v-2.4848q0-1.2424 1.466-1.2424h1.6896v-0.86966q0-1.1182 0.5218-2.0375l1.9133-3.3544q0.54664-0.94421 1.2921-0.94421h1.7393q1.4909 0 1.4909 1.4909v5.715h4.0253q1.466 0 1.466 1.2424v2.4848q0 1.2424-1.466 1.2424h-4.0253v12.324q0 2.5345 0.34787 3.6526 0.37271 1.0933 1.8884 1.0933 0.77028 0 1.7393-0.24848 0.96906-0.27333 1.5157-0.5218 0.86967-0.39756 1.143 0.57149l0.74543 2.8326q0.22363 0.84482-0.64604 1.2424-0.81997 0.37271-2.2611 0.67089-1.4163 0.32302-2.8575 0.32302-3.5532 0-6.0628-1.466-2.5096-1.466-2.5096-6.038v-14.436z"/><path d="m-106.76 146.2q0-6.2864 3.1308-9.9142 3.1556-3.6278 8.8955-3.6278 6.6592 0 9.8894 3.429 3.2302 3.429 3.2302 11.032 0 1.4909-1.3915 1.4909h-16.399q0.39756 4.1247 2.0375 5.1932 1.6399 1.0684 3.8017 1.0684 2.0624 0 3.1557-0.54665t1.8387-1.4909q0.84482-1.0933 2.0872-0.34787l2.4848 1.5157q1.466 0.89451 0.42241 2.1369-1.5157 1.8139-3.5532 2.7084-2.0375 0.89452-6.4355 0.89452-7.1313 0-10.163-3.6278-3.0314-3.6278-3.0314-9.9142zm7.3798-2.5593h10.809q0-2.6835-1.3418-4.3732-1.3418-1.7145-4.2738-1.7145-2.3357 0-3.7023 1.6399-1.3666 1.6151-1.4909 4.4477z"/><path d="m-75.561 159.24q-1.4909 0-1.4909-1.4909v-29.345q0-1.1181 0.5218-2.0375l1.9133-3.3544q0.54665-0.94421 1.2921-0.94421h1.7393q1.4909 0 1.4909 1.4909v34.19q0 1.4909-1.4909 1.4909z"/><path d="m-65.585 146.2q0-6.2864 3.1308-9.9142 3.1557-3.6278 8.8955-3.6278 6.6592 0 9.8894 3.429 3.2302 3.429 3.2302 11.032 0 1.4909-1.3915 1.4909h-16.399q0.39756 4.1247 2.0375 5.1932 1.6399 1.0684 3.8017 1.0684 2.0624 0 3.1557-0.54665 1.0933-0.54665 1.8387-1.4909 0.84482-1.0933 2.0872-0.34787l2.4848 1.5157q1.466 0.89451 0.42241 2.1369-1.5157 1.8139-3.5532 2.7084-2.0375 0.89452-6.4355 0.89452-7.1313 0-10.163-3.6278-3.0314-3.6278-3.0314-9.9142zm7.3798-2.5593h10.809q0-2.6835-1.3418-4.3732-1.3418-1.7145-4.2738-1.7145-2.3357 0-3.7023 1.6399-1.3666 1.6151-1.4909 4.4477z"/><path d="m-38.215 135.09q-0.54665-1.9381 0.81997-1.9381h4.1993q1.1927 0 1.4909 1.2672l3.3544 14.561q0.29817 1.2672 0.5218 2.4351t0.27332 1.9133h0.14909q0.04969-0.74543 0.27332-1.9381 0.22363-1.2175 0.5218-2.4102l3.5284-14.561q0.29817-1.2672 1.4909-1.2672h4.5223q1.1927 0 1.4909 1.2672l3.5284 14.561q0.29817 1.1927 0.5218 2.4102 0.22363 1.1927 0.27332 1.9381h0.14909q0.04969-0.74543 0.27332-1.9133 0.22363-1.1678 0.5218-2.4351l3.3544-14.561q0.29817-1.2672 1.4909-1.2672h4.1993q1.3666 0 0.81997 1.9381l-6.4604 22.487q-0.47211 1.6648-1.8139 1.6648h-4.4974q-1.4163 0-1.8139-1.6648l-3.6029-14.735q-0.32302-1.2672-0.47211-2.0375-0.12424-0.77028-0.17393-1.7145h-0.09939q-0.04969 0.94421-0.19878 1.7145-0.12424 0.77028-0.44726 2.0375l-3.6029 14.735q-0.39756 1.6648-1.8139 1.6648h-4.4974q-1.3418 0-1.8139-1.6648z"/><path d="m4.6099 159.24q-1.4909 0-1.4909-1.4909v-23.108q0-1.4909 1.4909-1.4909h3.9756q1.4909 0 1.4909 1.4909v23.108q0 1.4909-1.4909 1.4909zm0-29.917q-1.4909 0-1.4909-1.4908v-3.1805q0-1.4909 1.4909-1.4909h3.9756q1.4909 0 1.4909 1.4909v3.1805q0 1.4908-1.4909 1.4908z"/><path d="m15.381 159.24q-1.4909 0-1.4909-1.2424v-1.8884q0-1.2921 1.0188-2.6836l11.132-15.306v-0.0994q-0.99391 0.0994-1.9878 0.0994h-8.0755q-1.4909 0-1.4909-1.2424v-0.79512q0-2.932 1.4909-2.932h17.195q1.4909 0 1.4909 1.2424v1.7393q0 1.2175-1.0684 2.6836l-11.206 15.455v0.0994q1.3169-0.0994 1.9878-0.0994h9.3924q1.4909 0 1.4909 1.2424v2.4848q0 1.2424-1.4909 1.2424z"/><path d="m33.682 169.41q-0.94421-0.17393-0.72058-1.2921l0.54665-2.7332q0.22363-1.143 1.2672-0.74543 0.44726 0.17394 1.789 0.17394 1.5654 0 2.1617-1.64 0.59634-1.6399 0.59634-4.572v-23.953q0-1.4909 1.4909-1.4909h3.9756q1.4909 0 1.4909 1.4909v24.699q0 6.1622-2.4102 8.2494-2.4102 2.0872-6.4355 2.0872-2.2363 0-3.752-0.27333zm7.1313-40.079q-1.4909 0-1.4909-1.4908v-3.1805q0-1.4909 1.4909-1.4909h3.9756q1.4909 0 1.4909 1.4909v3.1805q0 1.4908-1.4909 1.4908z"/><path d="m50.789 152.29q0-4.9695 4.7459-7.2058t10.834-2.3854v-0.9939q0-2.286-1.143-3.2302t-3.1805-0.94421q-1.4412 0-2.5593 0.42241-1.0933 0.39756-1.9133 0.94421-0.79512 0.5218-1.4412 1.0684-1.143 0.99391-1.8884 0.0994l-2.0624-2.5345q-0.77028-0.94421 0.37272-1.9381 0.86967-0.77027 2.0127-1.3418 1.1678-0.5715 3.0811-1.0684 1.9133-0.5218 4.9695-0.5218 5.1683 0 7.9264 2.3854 2.7829 2.3854 2.7829 7.0319v15.679q0 1.4909-1.4909 1.4909h-4.075q-1.3418 0-1.3418-1.4909v-0.74544h-0.0497q-1.466 1.4163-3.5284 2.0872-2.0375 0.64604-3.752 0.64604-4.075 0-6.1871-1.9878-2.112-2.0127-2.112-5.4665zm7.3549-0.14909q0 0.86967 0.34787 1.5157 0.34787 0.62119 1.0933 0.91936 0.74543 0.29818 1.6648 0.29818 1.2672 0 2.4599-0.34787 1.1927-0.34787 2.6587-1.64v-5.3919q-4.1744 0.47211-5.5907 1.2175-1.4163 0.74543-2.0375 1.5406-0.59634 0.79513-0.59634 1.8884z"/></g><g transform="matrix(2.5142 0 0 2.4689 278.59 .71866)" stroke-width=".64206" aria-label="tvś"><path d="m-109.64 36.194q-3.6994 0-3.6994-3.1351v-6.2701q0-3.1351 3.6994-3.1351h4.2637v-2.1945q0-2.8216 1.3167-5.1415l4.828-8.4647q1.3794-2.3826 3.2605-2.3826h4.3891q3.7621 0 3.7621 3.7621v14.421h10.158q3.6994 0 3.6994 3.1351v6.2701q0 3.1351-3.6994 3.1351h-10.158v31.1q0 6.3955 0.87782 9.2171 0.94052 2.7589 4.7653 2.7589 1.9437 0 4.3891-0.62701 2.4453-0.68971 3.8248-1.3167 2.1945-1.0032 2.8843 1.4421l1.881 7.1479q0.56431 2.1318-1.6302 3.1351-2.0691 0.94052-5.7058 1.6929-3.574 0.81512-7.2106 0.81512-8.9663 0-15.299-3.6994-6.3328-3.6994-6.3328-15.236v-36.429z" fill="#01509f"/><path d="m-61.278 28.698c-1.0649-3.3625-0.36207-5.0438 2.1086-5.0438h10.389c2.0021 0 3.28 1.0993 3.8337 3.2979l11.804 37.893c0.55376 2.1124 0.81219 4.1751 1.0152 6.2725 0.38337 2.0693 0.19281 3.7505 0.27801 5.0438h0.18432c0.08519-1.2933-0.12667-2.9746 0.21411-5.0438 0.3007-2.0412 0.62658-4.1881 1.2079-6.2725l11.675-37.893c0.55376-2.1986 1.8317-3.2979 3.8337-3.2979h10.389c2.4706 0 3.1735 1.6813 2.1086 5.0438l-18.53 58.521c-0.89454 2.8883-2.4493 4.3325-4.6644 4.3325h-12.651c-2.215 0-3.7698-1.4442-4.6644-4.3325z" fill="#01509f" stroke-width=".65821"/><path d="m28.485 17.581q-3.574 0-1.3167-3.7403l6.7717-11.348q1.7556-2.9795 6.6463-2.9795h9.5306q4.6399 0 1.3794 3.7403l-10.346 11.982q-2.0064 2.3456-6.3328 2.3456zm-20.064 68.466q-3.0724-2.2188-1.6929-4.7546l3.1978-5.8957q1.6929-3.1697 5.2669-0.76074 3.574 2.409 8.402 3.5501 4.8907 1.1411 8.9036 1.1411 2.8216 0 5.2669-0.57055 2.4453-0.57055 4.1383-2.2188t1.6929-4.818q0-1.9018-1.0032-3.2331-1.0032-1.3313-2.5707-2.0286-1.5675-0.69734-3.3232-1.1411-2.3199-0.57055-6.709-1.9018-4.3264-1.3313-8.3393-3.1063-3.3232-1.4581-6.5209-4.0573-3.1351-2.6626-4.6399-5.8957-1.4421-3.2331-1.4421-7.9877 0-6.4029 3.6367-11.221 3.6994-4.818 9.5306-6.6564 5.8312-1.8384 14.547-1.8384 5.8939 0 11.474 1.7117 5.5804 1.7116 7.963 3.2331 3.7621 2.409 1.881 5.135l-3.8248 5.6421q-1.7556 2.5358-5.6431 0.38037-2.947-1.6483-5.8312-2.6626-2.8216-1.0143-6.3328-1.0143-2.3826 0-4.5772 0.50716t-3.7621 1.9018q-1.5048 1.3947-1.5048 3.6769 0 2.409 1.3794 3.8037 1.4421 1.3313 3.2605 1.9652 1.881 0.63394 3.574 1.2045 3.5113 1.1411 7.0852 2.2188 3.574 1.0143 7.2733 2.4724 3.1978 1.2679 6.2074 3.6135 3.0097 2.3456 4.3891 5.9591 1.3794 3.6135 1.3794 8.2413 0 6.1493-3.6367 11.411t-9.5933 7.4806q-5.9566 2.2188-13.857 2.2188-8.8409 0-15.048-1.2679t-10.596-4.4376z" fill="#1690cf" stroke-width=".6456"/></g></g></svg>
