<svg width="211.67mm" height="216.07mm" version="1.1" viewBox="0 0 211.67 216.07" xmlns="http://www.w3.org/2000/svg">
 <g transform="matrix(16.667 0 0 16.667 -816.1 -1188.5)">
  <g transform="matrix(.35278 0 0 -.35278 48.965 80.338)">
   <path d="m0 18.342h6.6494l6.652-11.037h7.5158l-4.1924-1.9921 3.6473-0.29895-6.3913-2.6509 4.8824-1.1614-7.7765-1.463z" fill="#1454b3"/>
  </g>
  <g stroke-width=".37886">
   <g transform="matrix(.92901 0 0 -.9333 54.167 82.578)">
    <path d="m0 0-1.208 2.086h2.306z" fill="#1454b3"/>
   </g>
   <g transform="matrix(.92901 0 0 -.9333 51.107 71.306)">
    <path d="m0 0h2.465l1.817-3.111-0.878-2.708z" fill="#f00"/>
   </g>
   <g transform="matrix(.92901 0 0 -.9333 55.799 74.072)">
    <path d="m0 0-0.951-2.965 6.111 1.538-3.378-0.137 3.67 1.325-3.291-0.292 4.153 1.473z" fill="#38b54a"/>
   </g>
   <g transform="matrix(.92901 0 0 -.9333 58.961 76.839)">
    <path d="m0 0-1.92-4.063h-1.269l1.379-3.899 3.676 7.962z" fill="#b3b3b3"/>
   </g>
  </g>
 </g>
</svg>
