<svg version="1.1" viewBox="0 0 829.21 130" xmlns="http://www.w3.org/2000/svg">
 <path d="m184.7 44.337c-3.9607 0-7.4372 0.3591-10.679 1.2715-2.9143 0.77598-5.8823 2.0837-8.3579 3.9354l-2e-3 0.0021c-2.8754 2.0669-7.0792 6.7051-7.0792 14.802 0 3.8089 0.67991 7.0395 2.1798 10.246 1.7195 3.4185 3.197 5.4538 5.175 7.7192-10.471 5.1813-15.323 13.234-15.323 22.656 0 3.4755 0.71708 6.8097 2.1531 9.7463 1.7607 3.6008 4.9737 7.1886 8.2348 9.2918 4.652 3.0003 10.347 4.8609 19.608 4.8609 1.9189 0.079 3.821-7e-3 5.7492-0.10439 7.2654-0.43366 12.865-2.8604 18.955-6.7979l3.2392 3.4317c1.4638 1.5023 3.4745 2.3506 5.5747 2.3506h13.385c4.2971 0 6.4093-5.2179 3.3169-8.1943l-9.358-9.1076c5.0744-6.3286 8.5482-13.923 10.81-19.835 0.65611-1.4436 1.1014-2.921 1.1556-4.4964 0.0234-0.68203-0.0494-1.2729-0.21762-1.7875-0.45877-1.4055-1.969-2.8256-4.6921-2.8256h-10.449c-2.9466 0-6.2549 2.6026-7.325 5.1357-1.8352 4.3442-2.6649 6.3174-4.5586 9.5985l-11.16-10.651s1.9157-1.2712 3.9552-2.842c1.4944-1.151 3.0554-2.5123 3.9778-3.4071 4.2907-4.001 6.6882-8.8343 6.8145-15.169 0-6.3673-2.245-11.13-6.7098-14.578-4.0542-3.1312-10.519-5.252-18.372-5.252zm-0.47411 14.413c1.796 0 3.1744 0.45812 4.2569 1.2695 0.98098 0.73523 1.5045 1.9044 1.5045 3.8985 0 1.8278-0.64025 3.5866-1.8883 5.3666-1.1118 1.5244-2.7225 2.9147-4.7496 4.1852-3.2663-3.157-4.8871-6.0952-4.8871-8.7267 0-2.3574 0.58838-3.7412 1.6133-4.523l4e-3 -0.0021 2e-3 -0.0042c1.2571-0.97414 2.5973-1.464 4.1441-1.464zm-6.291 35.728 14.033 14.188c-1.0135 0.61574-2.0472 1.1226-3.4914 1.6933-1.7718 0.66262-3.7063 0.88843-5.8312 0.87839-2.9414-0.0139-4.9605-0.64217-6.6482-2.0434-1.6036-1.3872-2.6047-3.3763-2.6047-6.0444 0-3.188 1.3311-6.2114 4.5422-8.6714z" fill="#ffaf3c" opacity=".5" stroke-width=".98587"/>
 <path d="m6.697 3.2242c-3.6987 0-6.697 2.9989-6.697 6.6965v62.379c0 13.64 4.1746 24.612 11.201 33.97 4.6961 6.2546 10.712 11.479 17.707 15.423 8.5956 4.8466 15.965 6.5034 21.283 7.293 5.7096 0.84778 15.732 1.0111 22.325 1.0111 6.5961 0 16.522-0.16334 22.235-1.0111 5.3209-0.78969 12.693-2.4465 21.293-7.293 6.9979-3.9438 13.018-9.0639 17.717-15.318 7.0294-9.3577 11.307-20.33 11.307-33.97v-62.484c0-3.6976-2.9985-6.6965-6.699-6.6965h-44.294c-3.7004 0-6.7009 2.9989-6.7009 6.6965v87.655c0 8.1944-6.6562 14.844-14.857 14.852-8.1968-9e-3 -14.834-6.6576-14.826-14.852v-87.655c0-3.6976-2.9983-6.6965-6.697-6.6965z" fill="#ff635d" stroke-width=".98587"/>
 <path d="m653.32 127.53c38.932 0 58.397-20.71 58.397-61.953v-0.35554c0-41.42-19.466-62.131-58.397-62.131h-52.353v124.44zm-26.132-106.13h24.71c22.399 0 32.799 12.711 32.799 40.709v6.4886c0 27.91-10.4 40.532-32.799 40.532h-24.71z" fill="#ffaf3c" stroke-width=".98587"/>
 <path d="m593.37 127.53v-19.466h-61.686v-104.97h-26.221v124.44z" fill="#ffaf3c" stroke-width=".98587"/>
 <path d="m432.5 129.76c40.448 0 61.428-21.958 61.428-64.183v-0.35559c0-42.315-20.98-64.361-61.428-64.361-40.359 0-61.339 22.046-61.339 64.361v0.35559c0 42.226 20.98 64.183 61.339 64.183zm0-18.846c-23.113 0-34.314-13.779-34.314-42.759v-5.156c0-29.336 11.201-43.382 34.314-43.382 23.202 0 34.314 14.046 34.314 43.382v5.156c0 28.98-11.112 42.759-34.314 42.759z" fill="#ffaf3c" stroke-width=".98587"/>
 <path d="m293.73 128.62c23.11 0 39.198-11.644 46.931-33.865l2.0444 0.53331c-4.1776 16.266-5.3331 24.088-4.9776 31.376h23.11v-70.397h-63.819v18.488h37.687c-2.9332 23.466-13.777 34.754-33.51 34.754-21.688 0-32.176-13.866-32.176-43.642v-3.9998c0-29.332 11.111-43.02 34.043-43.02 18.932 0 28.71 8.2663 30.221 26.221l26.132-4.622c-3.1999-26.399-21.955-40.443-56.353-40.443-40.176 0-61.064 21.866-61.064 63.997v0.35554c0 42.22 17.777 64.264 51.731 64.264z" fill="#ffaf3c" stroke-width=".98587"/>
 <path d="m804.68 44.219-22.842 18.615c-1.7797 1.4503-2.0485 4.0634-0.60123 5.8441l6.8327 8.4069c1.4442 1.777 4.0637 2.0384 5.8322 0.58206l6.5826-5.4207c0.95899-0.90479 1.9608-1.7858 2.5547-2.4375 0.88438-0.88226 1.8298-1.8946 2.875-3.0977-0.049 1.2226-0.1209 2.5137-0.16992 3.916-0.0314 0.89768-0.0389 1.8401-0.0703 2.8418-0.0804 2.5666-0.10156 4.8932-0.10156 6.9785v43.026c0 2.2391 1.8196 4.0547 4.0641 4.0546l15.509-3.2e-4c2.2445-5e-5 4.0641-1.8152 4.0641-4.0543v-77.979c0-2.2902-1.8611-4.1468-4.1568-4.1468h-12.299c-2.9426-2e-6 -5.7948 1.0144-8.0737 2.8716zm-54.817 28.698v17.549h-17.856c-2.2445 0-4.0641 1.8152-4.0641 4.0543v7.6941c1e-5 2.2391 1.8196 4.0543 4.0641 4.0543h17.856v17.204c0 2.2391 1.8196 4.0543 4.0641 4.0543h7.7234c2.2445 0 4.0641-1.8152 4.0641-4.0543v-17.204h17.797c2.288 0 4.1427-1.8503 4.1427-4.1328v-7.5372c0-2.2825-1.8548-4.1328-4.1427-4.1328h-17.797v-17.549c0-2.2391-1.8196-4.0543-4.0641-4.0543h-7.7234c-2.2445 0-4.0641 1.8152-4.0641 4.0543z" fill="#ffaf3c" fill-opacity=".50196" opacity=".7"/>
</svg>
