<?xml version="1.0" encoding="UTF-8" standalone="no"?>
<svg
   width="708.09662"
   height="129.50722"
   viewBox="0 0 708.09662 129.50722"
   version="1.1"
   id="svg6"
   xmlns="http://www.w3.org/2000/svg"
   xmlns:svg="http://www.w3.org/2000/svg">
  <path
    fill="#a9dbd2" d="M 6.8887951,0 H 52.814022 C 56.618677,0 59.70285,3.0841782 59.70285,6.8887042 V 96.441889 C 59.70285,104.05087 65.871307,110.21885 73.480396,110.21885 81.089596,110.21885 87.258053,104.05087 87.258053,96.441889 V 6.8887042 C 87.258053,3.0841782 90.342226,0 94.146771,0 H 140.07222 C 143.87687,0 146.96072,3.0841782 146.96072,6.8887042 V 59.702065 C 146.96072,107.2587 125.63062,128.5891 78.072985,128.5891 H 68.887918 C 21.330723,128.5891 0,107.2587 0,59.702065 V 6.8887042 C 0,3.0841782 3.0842173,0 6.8887951,0 Z"
     id="path1" />
  <path
    fill="#a9dbd2" d="M 657.46341,112.96442 C 641.2815,112.96442 631.55604,103.78183 630.82862,85.329584 H 707.36919 C 707.82328,82.238706 708.09662,78.874484 708.09662,75.331045 708.09662,46.605043 689.9165,29.696969 657.28045,29.696969 623.0121,29.696969 604.10345,47.332159 604.10345,79.056456 V 80.238667 C 604.10345,112.41773 622.92062,129.50722 656.91784,129.50722 686.18899,129.50722 704.0054,118.2351 708.09662,97.328052 L 682.27963,94.692379 C 679.82623,106.87282 671.1897,112.96442 657.46341,112.96442 Z M 657.82712,46.15116 C 671.82565,46.15116 681.1896,53.785937 681.1896,65.512494 V 65.603755 C 681.1896,68.693421 679.82623,70.058266 676.09872,70.058266 H 631.19233 C 633.19275,54.604315 642.64708,46.15116 657.82712,46.15116 Z"
     id="path2" />
  <path
    fill="#a9dbd2" d="M 606.17662,31.878208 H 557.08863 V 46.877064 C 570.81603,46.877064 572.1794,48.150537 563.99807,66.784754 L 555.72526,85.511556 C 553.63446,90.147268 550.90772,97.056251 547.72579,105.9645 H 545.81684 C 542.81677,97.147513 539.99965,89.784095 537.99923,85.147722 L 525.54593,57.42207 C 521.45581,48.150537 522.63733,46.877064 536.18066,46.877064 V 31.878208 H 486.1845 V 46.877064 C 493.63951,46.877064 494.63806,47.605393 498.09333,55.513954 L 529.99975,127.32598 H 562.45174 L 594.26778,55.513954 C 597.72305,47.605393 598.72271,46.877064 606.17662,46.877064 Z"
     id="path3" />
  <path
    fill="#a9dbd2" d="M 481.22258,105.5093 V 61.967732 C 481.22258,40.605148 465.85957,29.696969 436.31619,29.696969 406.04537,29.696969 384.95555,41.332264 384.95555,57.603932 384.95555,65.421232 390.1368,69.785033 401.50007,69.785033 410.4992,69.785033 415.86341,67.057988 415.86341,61.967732 415.86341,58.240338 413.04519,57.877165 413.04519,54.512943 413.04519,48.786943 421.59023,44.514404 434.13391,44.514404 448.22392,44.514404 454.76964,49.78597 454.76964,61.057983 V 68.149489 L 428.49747,72.512739 C 402.13601,76.965817 383.95589,84.602468 383.95589,104.60021 V 104.9647 C 383.95589,120.41854 395.04582,129.50722 414.95413,129.50722 436.6799,129.50722 452.49589,119.87186 458.58753,103.05604 L 460.49647,103.50992 C 456.76896,121.87234 460.67832,129.50722 478.31288,129.50722 482.31261,129.50722 486.31345,128.96274 489.40281,128.14381 L 492.3114,112.59959 C 482.94856,113.41742 481.22258,112.41773 481.22258,105.5093 Z M 454.76964,86.783707 C 454.76964,102.23645 441.49744,113.0548 425.58887,113.0548 416.3175,113.0548 410.86291,109.23658 410.86291,102.60028 V 102.23645 C 410.86291,92.693002 419.95352,88.055968 437.40732,85.056351 L 454.76964,82.056734 Z"
     id="path4" />
  <path
    fill="#a9dbd2" d="M 316.89058,0.0632405 H 251.07732 V 15.061395 C 262.43949,15.061395 263.34877,15.699124 263.34877,23.697074 V 103.69057 C 263.34877,111.69138 262.43949,112.32625 251.07732,112.32625 V 127.32598 H 316.89058 C 356.7072,127.32598 376.6133,106.1457 376.6133,63.966999 V 63.604488 C 376.6133,21.243152 356.7072,0.0632405 316.89058,0.0632405 Z M 348.797,67.057988 C 348.797,95.601357 338.25264,108.50957 315.34425,108.50957 H 290.16541 V 18.78879 H 315.34425 C 338.25264,18.78879 348.797,31.78882 348.797,60.422238 Z"
     id="path5" />
  <path
     opacity="0.7"
    fill="#a9dbd2" d="M 227.7435,109.07842 C 230.92213,105.34353 238.14017,93.295791 240.30482,84.841092 241.08074,81.812157 239.01639,78.821137 235.88957,78.821137 H 223.17395 C 220.24,78.821137 217.6367,80.718782 216.75938,83.518682 216.38465,84.714781 213.71852,91.612853 211.84926,94.126844 L 200.13441,83.000431 C 204.726,80.21486 215.67596,73.406507 215.67596,60.454532 215.67596,54.252716 213.02086,39.974363 189.42031,39.969072 165.82969,39.963892 162.16501,53.214891 162.16501,60.454532 162.16501,72.023916 168.26656,77.801058 169.87682,79.645026 166.42265,81.411731 153.37969,88.638256 153.86464,103.2509 154.77393,130.63917 191.56181,134.49134 210.96643,121.14599 L 213.73285,123.99516 C 215.79058,126.11247 218.61872,127.30835 221.57251,127.30835 H 236.70737 C 240.34229,127.30835 242.12338,122.87974 239.50134,120.36343 Z M 189.06762,55.03924 C 194.05048,55.043098 195.09203,58.537268 194.95426,60.454532 194.55748,66.001977 190.30424,69.089219 188.06686,70.344175 186.69247,69.089219 182.70375,65.254691 182.88671,61.220115 182.9859,59.024768 183.85881,55.035272 189.06762,55.03924 Z M 178.44831,105.32523 C 175.04154,97.711284 181.32936,92.97384 182.41499,92.301833 L 197.01419,107.13635 C 194.85286,109.29764 181.90248,113.04157 178.44831,105.32523 Z"
     id="path6" />
  <defs
     id="defs6" />
</svg>
