<?xml version="1.0" encoding="UTF-8" standalone="no"?>
<svg
   version="1.1"
   viewBox="0 0 693.32896 168.77352"
   id="svg6"
   sodipodi:docname="uandeden.default.svg"
   width="693.32898"
   height="168.77351"
   inkscape:version="1.3.1 (91b66b0783, 2023-11-16)"
   xmlns:inkscape="http://www.inkscape.org/namespaces/inkscape"
   xmlns:sodipodi="http://sodipodi.sourceforge.net/DTD/sodipodi-0.dtd"
   xmlns="http://www.w3.org/2000/svg"
   xmlns:svg="http://www.w3.org/2000/svg">
  <defs
     id="defs6" />
  <sodipodi:namedview
     id="namedview6"
     pagecolor="#ffffff"
     bordercolor="#666666"
     borderopacity="1.0"
     inkscape:showpageshadow="2"
     inkscape:pageopacity="0.0"
     inkscape:pagecheckerboard="0"
     inkscape:deskcolor="#d1d1d1"
     inkscape:zoom="1.8620281"
     inkscape:cx="346.66501"
     inkscape:cy="84.585188"
     inkscape:window-width="1920"
     inkscape:window-height="1017"
     inkscape:window-x="-8"
     inkscape:window-y="-8"
     inkscape:window-maximized="1"
     inkscape:current-layer="svg6" />
  <path
     d="m 187.34,81.88682 c -4.0175,0 -7.5437,0.36425 -10.832,1.2898 -2.956,0.7871 -5.9666,2.1136 -8.4777,3.9918 l -0.002,0.0021 c -2.9166,2.0965 -7.1806,6.8012 -7.1806,15.014 0,3.8634 0.68957,7.1404 2.211,10.393 1.7442,3.4674 3.2429,5.532 5.2491,7.8298 -10.621,5.2555 -15.542,13.424 -15.542,22.981 0,3.5253 0.72739,6.9073 2.184,9.886 1.786,3.6524 5.045,7.2916 8.3528,9.425 4.7187,3.0432 10.495,4.9306 19.889,4.9306 1.9464,0.0802 3.8758,-0.007 5.8315,-0.1059 7.3695,-0.43987 13.049,-2.9014 19.227,-6.8953 l 3.2856,3.4809 c 1.4847,1.5239 3.5243,2.3843 5.6546,2.3843 h 13.576 c 4.3587,0 6.5012,-5.2926 3.3644,-8.3118 l -9.4919,-9.238 c 5.1471,-6.4193 8.6707,-14.123 10.965,-20.119 0.66546,-1.4643 1.1172,-2.9629 1.1721,-4.5609 0.0238,-0.6918 -0.0503,-1.2911 -0.22068,-1.8131 -0.46537,-1.4256 -1.9972,-2.8661 -4.7593,-2.8661 h -10.599 c -2.9888,0 -6.3445,2.6399 -7.43,5.2093 -1.8615,4.4064 -2.7031,6.4079 -4.624,9.7361 l -11.32,-10.804 c 0,0 1.9432,-1.2894 4.0119,-2.8827 1.5158,-1.1675 3.0992,-2.5483 4.0348,-3.456 4.3522,-4.0583 6.7841,-8.9609 6.9121,-15.386 0,-6.4586 -2.2772,-11.289 -6.8059,-14.787 -4.1124,-3.176 -10.67,-5.3272 -18.636,-5.3272 z m -0.48092,14.619 c 1.8218,0 3.2198,0.46469 4.318,1.2877 0.99508,0.74576 1.5261,1.9317 1.5261,3.9544 0,1.854 -0.64947,3.638 -1.9154,5.4436 -1.1277,1.5463 -2.7615,2.9565 -4.8176,4.2452 -3.3131,-3.2022 -4.9571,-6.1826 -4.9571,-8.8517 0,-2.3912 0.59679,-3.7948 1.6364,-4.5879 l 0.004,-0.0021 0.002,-0.0042 c 1.2751,-0.9881 2.6346,-1.485 4.2035,-1.485 z m -6.3812,36.24 14.234,14.391 c -1.0281,0.62457 -2.0766,1.1387 -3.5414,1.7176 -1.7972,0.67212 -3.7594,0.90117 -5.9148,0.89099 -2.9836,-0.0141 -5.0315,-0.65137 -6.7434,-2.0727 -1.6266,-1.4071 -2.642,-3.4247 -2.642,-6.131 0,-3.2337 1.3502,-6.3004 4.6074,-8.7957 z"
     fill="#c1f94d"
     opacity="0.5"
     id="path1" />
  <path
     d="m 6.793,40.18482 c -3.7517,0 -6.793,3.0419 -6.793,6.7925 v 63.273 c 0,13.835 4.2345,24.965 11.361,34.456 4.7634,6.3442 10.866,11.644 17.961,15.644 8.7188,4.916 16.194,6.5966 21.588,7.3976 5.7914,0.85993 15.958,1.0256 22.645,1.0256 6.6906,0 16.759,-0.16568 22.553,-1.0256 5.3971,-0.80101 12.875,-2.4816 21.598,-7.3976 7.0982,-4.0003 13.205,-9.1938 17.97,-15.538 7.1301,-9.4918 11.469,-20.621 11.469,-34.456 v -63.379 c 0,-3.7506 -3.0415,-6.7925 -6.795,-6.7925 H 95.421 c -3.7535,0 -6.7969,3.0419 -6.7969,6.7925 v 88.911 c 0,8.3119 -6.7516,15.056 -15.07,15.065 -8.3143,-0.009 -15.047,-6.753 -15.038,-15.065 v -88.911 c 0,-3.7506 -3.0413,-6.7925 -6.793,-6.7925 z"
     fill="#ff635d"
     id="path2" />
  <path
     d="m 621.86,165.92382 v -63.054 c 0,-25.719 10.667,-43.024 26.549,-43.024 10.43,0 16.119,6.8743 16.119,19.556 v 86.522 h 28.801 v -92.448 c 0,-22.401 -11.141,-34.135 -32.949,-34.135 -19.201,0 -33.186,10.549 -42.668,34.846 l -2.489,-0.94818 c 4.8594,-14.578 6.4002,-22.875 6.6373,-31.764 h -28.92 v 124.45 z"
     fill="#c1f94d"
     id="path3" />
  <path
     d="m 552.93,122.78382 c -2.2519,18.845 -10.074,26.431 -23.468,26.431 -16.593,0 -25.364,-11.497 -25.364,-35.32 v -2.3704 h 75.144 c 0.59261,-6.0447 0.82966,-11.26 0.82966,-16.83 0,-35.912 -18.134,-56.061 -50.728,-56.061 -34.964,0 -53.928,21.216 -53.928,59.617 v 11.023 c 0,38.401 18.845,59.499 53.098,59.499 29.868,0 47.883,-14.104 52.15,-42.431 z m -23.823,-64.595 c 14.815,0 22.282,9.6004 22.282,30.342 v 3.2001 h -47.291 c 0.59261,-22.401 8.8892,-33.542 25.008,-33.542 z"
     fill="#c1f94d"
     id="path4" />
  <path
     d="m 399.5,168.06382 c 20.979,0 33.305,-11.852 40.061,-32.831 l 2.489,0.94818 c -3.9113,13.63 -5.9262,23.586 -6.0447,29.749 h 28.683 V 0 h -28.801 v 33.779 c 0,11.734 1.6593,22.282 6.1632,37.453 l -2.489,0.94818 c -6.6373,-20.149 -18.964,-32.831 -40.061,-32.831 -26.549,0 -40.535,21.216 -40.535,61.75 v 5.215 c 0,40.535 13.986,61.75 40.535,61.75 z m 11.378,-19.438 c -15.289,0 -22.756,-13.038 -22.756,-40.298 v -9.1263 c 0,-27.379 7.4669,-40.535 22.756,-40.535 16.238,0 25.008,14.578 25.008,41.72 v 6.7558 c 0,27.023 -8.7707,41.483 -25.008,41.483 z"
     fill="#c1f94d"
     id="path5" />
  <path
     d="m 323.86,122.78382 c -2.2519,18.845 -10.074,26.431 -23.468,26.431 -16.593,0 -25.364,-11.497 -25.364,-35.32 v -2.3704 h 75.144 c 0.59262,-6.0447 0.82966,-11.26 0.82966,-16.83 0,-35.912 -18.134,-56.061 -50.728,-56.061 -34.964,0 -53.928,21.216 -53.928,59.617 v 11.023 c 0,38.401 18.845,59.499 53.098,59.499 29.868,0 47.883,-14.104 52.15,-42.431 z m -23.823,-64.595 c 14.815,0 22.282,9.6004 22.282,30.342 v 3.2001 h -47.291 c 0.59262,-22.401 8.8892,-33.542 25.008,-33.542 z"
     fill="#c1f94d"
     id="path6" />
</svg>
