<svg width="600" height="336.37" viewBox="0 0 450 252.275" xmlns="http://www.w3.org/2000/svg">
    <g fill="#171314">
        <path d="M160.99 45.268C172.152 21.833 195.31 4.502 221.094.945c34.695-5.696 72.833 14.867 84.795 48.338l-43.883 18.163c-3.623-9.4-11.424-17.462-21.46-19.648-13.121-3.264-26.943 5.206-31.986 17.331-7.964 16.336-.082 38.84 17.527 44.862 14.818 5.418 31.48-4.716 35.935-19.289l44.176 18.343c-8.698 21.411-27.335 38.318-49.399 45.123-20.905 6.707-44.519 4.227-63.531-6.74-19.714-11.293-34.45-31.252-38.432-53.723-3.33-16.254-.865-33.47 6.152-48.436zM0 4.681l50.672.066c-.065 29.13-.049 58.26 0 87.39-.049 7.588 4.374 15.308 11.587 18.163 8.437 3.378 18.702 3.166 26.47-1.828 5.32-3.558 8.274-9.988 8.013-16.336.114-29.163-.212-58.325.147-87.472l50.606-.033c.016 29.75.163 59.517-.033 89.267-.13 14.704-4.34 29.848-14.247 41.027-11.44 13.284-28.885 19.73-45.939 21.574-21.117 1.746-43.85.066-61.965-11.995C9.057 133.962.277 114.51.065 95.497-.033 65.225.098 34.952 0 4.68zM311.65 4.616c25.785.13 51.585.017 77.37.05 8.764.097 17.674-.588 26.274 1.533 13.822 2.921 26.144 13.35 30.207 27.057 4.684 15.65-.783 34.858-15.634 43.018 8.192 4.667 14.851 12.093 17.755 21.15 5.434 15.177 1.37 33.373-10.363 44.503-8.617 7.784-20.416 11.146-31.839 11.31-31.268.13-62.552-.131-93.82.13l.049-148.75m50.133 37.437l-.098 18.75c8.062-.016 16.124.033 24.185.017 2.546-.147 5.695.212 7.36-2.203 4.994-4.88 2.742-15.422-4.65-16.303-8.928-.473-17.87.049-26.797-.261m-.196 53.707l.017 20.579c10.102-.114 20.22.359 30.305-.163 9.89-1.534 9.775-18.555 0-20.22-10.085-.539-20.22 0-30.321-.196zM3.558 176.62h9.677v75.574H3.574zM31.039 176.62h29.946c5.467-.065 11.162 1.159 15.52 4.618 11.554 8.111 11.815 27.89.212 36.066-3.166 2.4-7.115 3.33-10.852 4.505l20.448 30.06-11.668.13-18.996-29.913c-5.059.049-9.955.033-14.997-.049v30.093l-9.661.065.049-75.574m9.612 37.29c8.681.034 16.852.459 25.426-1.045 11.603-3.166 12.713-21.852 1.583-26.372-8.692-2.263-17.906-1.856-27.009-1.844zM100.51 176.41h49.367v8.21h-40.113v24.691h38.677v8.91h-38.677v25.425l40.113-.212-.033 8.813H100.51zM164.3 176.61l9.171-.082.115 66.991 35.168-.146.326 8.55-44.813.18zM245.61 176.54l11.668.163 30.501 75.281-11.13-.212-6.364-16.385-37.65-.016-6.625 16.613-10.738.18 30.338-75.625m5.793 10.2l-15.96 40.178h32.1zM297.34 176.57l9.808.065 43.507 58.864-.016-58.864 9.514-.016-.066 75.412-8.763.196-44.356-60.512-.163 60.463-9.498-.065zM376.99 176.62c17.059.036 35.871-1.2 50.394 7.621 19.877 14.377 19.012 48.746-2.007 61.638-15.142 7.676-31.766 6.263-48.371 6.332m9.481-8.714c11.411-.005 22.001.82 32.41-3.95 17.135-10.183 17.511-38.399 1.257-49.61-10.5-6.047-22.423-5.234-33.667-5.256z"/>
    </g>
</svg>
