<?xml version="1.0" encoding="UTF-8" standalone="no"?>
<svg xmlns="http://www.w3.org/2000/svg" height="212.83" width="600" version="1.1" viewBox="0 0 158.75 56.311289">
 <g fill="#8ebbe7">
  <path d="m74.819 30.381c0 3.39-2.35 6.09-6.862 6.09-4.493 0-6.822-2.68-6.822-6.09v-8.781h4.138v7.681c0 2.64 0.915 3.49 2.684 3.49 1.808 0 2.724-0.85 2.724-3.49v-7.681h4.138z"/>
  <path d="m91.324 36.271h-5.573l-3.681-4.21-0.811 1v3.21h-4.14v-14.671h4.14v5.641l4.741-5.641h5.096l-6.302 7.351z"/>
  <path d="m98.609 33.151c-0.041-0.02-0.084-0.02-0.125-0.02h-1.808v3.14h-4.264v-14.671h6.968c4.55 0 6.11 2.691 6.11 5.601 0 2.39-0.85 4.18-2.68 5.13l3.14 3.94h-5.07zm-1.933-3.35h1.621c2.103 0 2.723-1.17 2.723-2.29 0-1.23-0.58-2.43-2.369-2.43h-1.975z"/>
  <path d="m117.53 33.921h-5.46l-1.02 2.35h-4.45l7.21-14.671h2l7.24 14.671h-4.47zm-3.97-3.37h2.5l-1.25-2.89z"/>
  <path d="m128.45 36.271h-4.27v-14.671h4.27z"/>
  <path d="m144.64 21.6v14.671h-2l-7.59-7.26v7.26h-4.26v-14.671h1.99l7.6 7.261v-7.261z"/>
  <path d="m158.75 32.791v3.48h-11.92v-14.671h11.48v3.481h-7.34v2.39h6.05v3.37h-6.05v1.95z"/>
  <path d="m73.987 44.921h-4.284v11.19h-4.264v-11.19h-4.304v-3.48h12.852z"/>
  <path d="m89.688 48.781c0 4.16-3.494 7.53-7.84 7.53-4.327 0-7.84-3.37-7.84-7.53 0-4.15 3.513-7.52 7.84-7.52 4.346 0 7.84 3.37 7.84 7.52m-4.326 0c0-2.05-1.56-3.74-3.514-3.74-1.914 0-3.494 1.69-3.494 3.74 0 2.08 1.58 3.75 3.494 3.75 1.954 0 3.514-1.67 3.514-3.75"/>
  <path d="m98.277 56.111h-7.05v-14.67h6.572c4.081 0 7.381 3.29 7.381 7.35 0 3.88-3.05 7.32-6.903 7.32m-0.375-3.71c1.707-0.06 3.078-1.66 3.078-3.61 0-2-1.433-3.64-3.181-3.64h-2.433v7.25z"/>
  <path d="m115.15 53.761h-5.47l-1.02 2.35h-4.45l7.22-14.67h1.99l7.24 14.67h-4.47zm-3.97-3.37h2.5l-1.25-2.9z"/>
  <path d="m132.26 41.441-5.53 9.74v4.93h-4.26v-4.93l-5.52-9.74h4.85l2.81 5.33 2.8-5.33z"/>
  <path d="m28.031-0.000063969c-15.481 0-28.031 12.56-28.031 28.041 0 15.49 12.55 28.04 28.031 28.04h28.042v-28.04c0-15.481-12.553-28.041-28.042-28.041"/>
 </g>
 <path fill="#fff" d="m28.451 35.371c0 5.31-3.69 9.55-10.761 9.55-7.05 0-10.7-4.2-10.7-9.55v-13.771h6.49v12.041c0 4.14 1.43 5.48 4.21 5.48 2.831 0 4.271-1.34 4.271-5.48v-12.041h6.49z"/>
 <path fill="#fff" d="m51.428 27.131h-6.811v17.79h-6.78v-17.79h-6.844v-5.531h20.435z"/>
</svg>
