<svg data-name="b" version="1.1" viewBox="0 0 800 521.6" xmlns="http://www.w3.org/2000/svg">
 <g transform="scale(1.6)" stroke-width=".625" fill="#fff">
  <path d="m493.43 0h-18.46c-3.55 0-6.48 2.93-6.48 6.48v90.15h-29.91v-90.06c0-3.55-2.93-6.48-6.48-6.48h-18.46c-3.55 0-6.48 2.93-6.48 6.48v207.28c0 3.55 2.93 6.48 6.48 6.48h18.46c3.55 0 6.48-2.93 6.48-6.48v-92.64h29.91v92.64c0 3.55 2.93 6.48 6.48 6.48h18.46c3.55 0 6.48-2.93 6.48-6.48v-207.28c0-3.55-2.93-6.48-6.48-6.48z" stroke-width=".625"/>
  <path d="m326.82 129.46h29.91v85.09c0 2.4 2.22 5.86 5.95 6.12h19.71s5.95-0.27 5.95-7.72v-205.14c0-1.33-0.98-6.92-6.57-7.01h-54.86c-16.95 0-31.51 14.2-31.51 31.5v182.34c0 2.66 2.57 6.21 5.95 6.21h18.91c4.17 0 6.66-3.82 6.57-5.86v-85.54zm0-97.25h29.91v72.67h-29.91z" stroke-width=".625"/>
  <path d="m240.81 221.12h18.46c3.55 0 6.48-2.93 6.48-6.48v-149.78l-31.51 34.69v115c0 3.55 2.93 6.48 6.48 6.48z" stroke-width=".625"/>
  <path d="m198.21 0h-18.46c-3.56 0-6.49 2.93-6.49 6.48v90.15h-29.91v-90.06c0-3.55-2.93-6.48-6.48-6.48h-18.46c-3.55 0-6.48 2.93-6.48 6.48v207.28c0 3.55 2.93 6.48 6.48 6.48h18.46c3.55 0 6.48-2.93 6.48-6.48v-92.64h29.91v92.64c0 3.55 2.93 6.48 6.48 6.48h18.46c3.55 0 6.48-2.93 6.48-6.48v-207.28c0-3.55-2.93-6.48-6.48-6.48v-0.09z" stroke-width=".625"/>
  <path d="m86.45 0h-18.46c-3.55 0-6.48 2.93-6.48 6.48v119.08h-29.91v-119.08c0-3.55-2.93-6.48-6.48-6.48h-18.46c-3.55 0-6.39 2.84-6.48 6.39v119.16c0 17.3 14.47 31.77 31.51 31.77h29.91v31.5h-30v-6.48c0-1.33-0.36-2.48-1.07-3.55-0.36-0.44-0.71-0.89-1.15-1.24-1.15-1.06-2.66-1.69-4.35-1.69h-18.46c-1.69 0-3.2 0.62-4.35 1.69-1.07 0.98-1.86 2.22-2.04 3.73v9.14h-0.09c-0.18 6.39 0.98 29.9 28.49 29.9h33.02c17.31 0 31.51-14.82 31.51-31.5v-182.25c0-3.55-2.93-6.48-6.48-6.48h-0.18z" stroke-width=".625"/>
  <path d="m259.28 0h-18.46c-3.56 0-6.49 2.93-6.49 6.48v53.15l31.51-34.69v-18.37c0-3.55-2.93-6.48-6.48-6.48h-0.09v-0.09z" stroke-width=".625"/>
  <path d="m0 237.36v52.79l52.73-52.79z"/>
  <path d="m500 326v-50.49l-50.42 50.49z"/>
  <g stroke-width=".625">
   <path d="m300.73 263c-0.53 1.51-8.96 27.24-8.96 27.24h18.29s-8.79-25.64-9.32-27.24z"/>
   <path d="m246.58 265.13c-2.04-1.69-5.24-2.48-9.5-2.48h-6.83v20.5h7.01c4.35 0 7.54-0.8 9.5-2.48s2.93-4.17 2.93-7.54c0-3.64-0.98-6.39-3.11-7.99z"/>
   <path d="m91.34 237.36-88.59 88.64h408.4l88.41-88.64h-408.22zm69.41 27.59c-2.13-2.04-5.24-3.02-9.32-3.02s-7.28 1.06-9.41 3.19c-2.22 2.13-3.28 5.15-3.28 9.14v16.42c0 3.99 1.07 7.01 3.28 9.14 2.22 2.13 5.33 3.19 9.41 3.19s7.28-0.98 9.5-3.11c2.22-2.04 3.11-4.88 2.75-8.61-0.09-0.53 0.09-0.8 0.71-0.8h4.97c0.53 0 0.8 0.35 0.98 1.06 0.36 3.46-0.27 6.48-1.86 9.05-1.51 2.57-3.73 4.53-6.75 5.95s-6.39 2.13-10.39 2.13c-6.3 0-11.1-1.6-14.38-4.7-3.2-3.19-4.88-7.63-4.88-13.49v-16.24c0-5.86 1.69-10.38 4.97-13.49s8.08-4.7 14.38-4.7c3.99 0 7.46 0.71 10.56 2.04 3.02 1.33 5.33 3.37 6.83 5.95s2.04 5.59 1.51 9.23q-0.09 0.44-0.28 0.76c-0.16 0.22-0.34 0.31-0.6 0.31h-5.06c-0.53 0-0.8-0.27-0.71-0.8 0.18-3.73-0.8-6.57-2.93-8.61zm50.68-2.75c0 0.53-0.27 0.8-0.8 0.8h-21.84v16.15h19.97c0.53 0 0.8 0.27 0.8 0.8v4.17c0 0.53-0.27 0.8-0.8 0.8h-19.97v17.04h21.84c0.53 0 0.8 0.27 0.8 0.8v4.44c0 0.53-0.27 0.8-0.8 0.8h-27.69c-0.53 0-0.8-0.27-0.8-0.8v-49.33c0-0.53 0.27-0.8 0.8-0.8h27.69c0.53 0 0.8 0.27 0.8 0.8v4.44-0.09zm40.12 22.45c-3.2 2.66-7.9 4.08-14.11 4.08h-7.19v18.37c0 0.53-0.27 0.8-0.8 0.8h-5.06c-0.53 0-0.8-0.27-0.8-0.8v-49.33c0-0.53 0.27-0.8 0.8-0.8h12.96c6.3 0 11.01 1.33 14.11 3.99 3.2 2.66 4.7 6.65 4.7 11.89s-1.6 9.14-4.79 11.8h0.18zm21.04 22.45c0 0.53-0.27 0.8-0.8 0.8h-5.06c-0.53 0-0.8-0.27-0.8-0.8v-49.33c0-0.53 0.27-0.8 0.8-0.8h5.06c0.53 0 0.8 0.27 0.8 0.8zm49.44 0.8h-5.5s-0.8-0.18-0.98-0.62l-3.73-11.27h-22.1l-3.73 11.27s-0.44 0.62-0.98 0.62h-5.24c-0.53 0-0.8-0.27-0.62-0.89l17.22-49.42s0.44-0.62 0.98-0.62h6.92s0.8 0.18 0.89 0.62l17.4 49.42c0.18 0.53 0 0.89-0.62 0.89zm44.65 0h-5.5s-0.8-0.18-0.98-0.62l-14.56-44.37c-0.53 1.51-14.47 44.37-14.47 44.37s-0.44 0.62-0.89 0.62h-5.24c-0.53 0-0.8-0.27-0.62-0.89l16.95-49.42s0.44-0.62 0.98-0.62h6.92s0.8 0.18 0.98 0.62l17.22 49.42c0.18 0.53 0 0.89-0.62 0.89h-0.18z"/>
  </g>
 </g>
</svg>
