<svg enable-background="new 0 0 800 436.2" version="1.1" viewBox="0 0 845.15 436.2" xml:space="preserve" xmlns="http://www.w3.org/2000/svg" xmlns:xlink="http://www.w3.org/1999/xlink"><defs><radialGradient id="d" cx="997.03" cy="-206.47" r="2161.3" gradientTransform="matrix(.1983 .1966 .095534 -.096378 2.1251 -207.01)" gradientUnits="userSpaceOnUse" xlink:href="#a"/><radialGradient id="c" cx="-430.58" cy="-7330.7" r="4101.8" gradientTransform="matrix(.1931 -.0020232 -.00053564 -.050993 85.284 -153.25)" gradientUnits="userSpaceOnUse" xlink:href="#b"/></defs>
	<radialGradient id="a" cx="997.03" cy="-206.47" r="2161.3" gradientTransform="matrix(.1983 .1966 .095534 -.096378 2.1251 -207.01)" gradientUnits="userSpaceOnUse">
		<stop stop-color="#FF732C" offset="0"/>
		<stop stop-color="#FE3852" stop-opacity=".9608" offset="1"/>
	</radialGradient>
	<radialGradient id="b" cx="-430.58" cy="-7330.7" r="4101.8" gradientTransform="matrix(.1931 -.0020232 -.00053564 -.050993 85.284 -153.25)" gradientUnits="userSpaceOnUse">
		<stop stop-color="#FB4D54" offset="0"/>
		<stop stop-color="#F6654B" offset=".5047"/>
		<stop stop-color="#FF1950" offset="1"/>
	</radialGradient>
	<style type="text/css">
		.st0{fill:url(#a);}
		.st1{fill:url(#b);}
	</style>
	<path class="st0" d="m398.2 18.1c68.6 0 154.7 40.3 189.6 132.8h10.6c-23.5-84.6-110.1-150.9-205.4-150.9-103.6 0-182.1 71.5-205.6 144.7l31.8-0.4c28.1-72.3 96.7-126.2 179-126.2z"/>
	<path class="st0" d="m397.2 423.5c-67.3 0-153.4-34.6-188.3-130.8h-19.8c18.1 64.8 87.9 143.5 202.9 143.5 78 0 136.8-35.8 171.9-83.9h-11.8c-36.8 44-93 71.2-154.9 71.2z"/>
	<path class="st0" d="m539.9 333.9v-38.6h14.8v-7.6h-37.2v7.6h14.8v38.6z"/>
	<path class="st0" d="m599.9 287.7-14 34.7-14.2-34.7h-8.9l19.2 46.2h7.3l19.4-46.2z"/>
	<path class="st1" d="m295.3 230-21.7-62.4h-28.5l37.1 99.2h24.7l36-99.9-28.5 0.3z"/>
	<path class="st1" d="m163.4 221-37-50.1-24.2 0.5v95.4h25.2v-51.9l38.9 51.9h22.4v-97.6h-25.3z"/>
	<path class="st1" d="m207.4 266.8h26v-99l-26 0.8z"/>
	<path class="st1" d="m59.5 224.1c0 13.7-7.7 21.3-17.3 21.3-8.9 0-17-6.1-17-20.1v-50.6l-25.2 0.5v56.4c0 21.8 14.5 37 41.7 37 27.5 0 42.9-14.7 42.9-41.9v-54.1l-25.2 0.7v50.8z"/>
	<path class="st1" d="m657.2 169.5-39.5 97.2h27.5l6.1-16.8h35.1l6.3 16.8h27.8l-38.9-96.7zm1.7 59.1 10-27.4 10.4 27.4z"/>
	<path class="st1" d="m380.1 227.1h43v-21.3h-43v-15.6h47.6v-23.6h-73.8v100.2h74.4v-22.9h-48.2z"/>
	<path class="st1" d="m756.5 244.5v-71.1l-25.1-0.7v94.1h68.6v-21.9z"/>
	<path class="st1" d="m526.4 201.1c0-20.2-14.3-34.6-38.2-34.6h-43.4v100.2h25.8v-30.5h13l15.6 30.5h30.2l-21.8-34.4c9.3-4.7 18.8-12.9 18.8-31.2zm-39.8 13.2h-16v-24.6h14.4c11.7 0 15.7 6.8 15.7 12.7 0.1 7.4-6.7 11.9-14.1 11.9z"/>
	<path class="st1" d="m563.5 194.9c0-2.9 3.1-5.8 9.6-5.8 10.5 0 19.4 5.4 25.7 10.2l12.9-19.5c-10.9-8.7-23-13.4-37.7-13.4-25.1 0-35.8 13.9-35.8 30.5 0 36.9 50.1 28.4 50.1 42.2 0 3.5-3.6 6.8-11.2 6.8-13.5 0-20.7-6.3-28.8-12.1l-14.8 18.5c12.8 10.2 21 16.3 43.1 16.3 21.3 0 37.2-10.4 37.2-32.2 0.1-34.2-50.3-27.8-50.3-41.5z"/>
	<path class="st1" d="m831.13 84.927-20.696 5.5459 4.1456 15.143 11.505-2.8255v51.065h19.074v-68.927zm-58.957 16.768v16.056h-16.056v16.413h16.056v16.056h16.413v-16.056h16.056v-16.413h-16.056v-16.056z" stroke-width=".41062"/>
</svg>
