<svg width="487.597" height="247.638" viewBox="0 0 129.01 65.521" xmlns="http://www.w3.org/2000/svg">
    <g fill="#fff">
        <path d="M0 26.33v8.477c0 3.275 2.172 5.553 6.266 5.553 4.136 0 6.45-2.203 6.45-6.288v-8.12l-3.78.109v7.6c0 2.061-1.161 3.204-2.6 3.204-1.34 0-2.555-.92-2.555-3.025v-7.598zM15.352 40.07V25.749l3.64-.086 5.548 7.534v-7.79h3.803V40.07h-3.368l-5.843-7.79v7.79zM35.057 40.07h-3.895V25.317l3.895-.11zM36.826 25.18l5.562 14.893h3.716l5.411-15.009-4.29.046-2.867 9.435-3.263-9.365zM53.157 40.07V25.017h11.09v3.551h-7.149v2.337h6.462v3.208h-6.462v2.52h7.24v3.437zM66.812 25.02v15.051h3.874v-4.582h1.947l2.342 4.582h4.532l-3.272-5.17c1.408-.713 2.835-1.947 2.835-4.69 0-3.03-2.145-5.19-5.735-5.19h-6.523zm3.874 3.48h2.176c1.752 0 2.363 1.023 2.363 1.911 0 1.105-1.02 1.783-2.134 1.783h-2.405zM82.379 35.11l-2.23 2.784c1.922 1.535 3.156 2.445 6.478 2.445 3.202 0 5.595-1.56 5.595-4.836 0-5.134-7.567-4.174-7.567-6.22 0-.43.47-.874 1.445-.874 1.58 0 2.912.818 3.864 1.535l1.936-2.936c-1.635-1.302-3.448-2.017-5.657-2.017-3.774 0-5.372 2.084-5.372 4.578 0 5.546 7.523 4.267 7.523 6.344 0 .533-.537 1.018-1.687 1.018-2.026 0-3.113-.95-4.328-1.82zM98.729 25.46L92.8 40.066h4.125l.916-2.52h5.27l.952 2.52h4.174l-5.842-14.528-3.666-.079zm1.761 4.769l1.561 4.11h-3.064l1.504-4.11zM120.179 40.07h-10.311V25.936l3.78.104v10.682l6.53.07zM79.969 50.15v-5.797h-2.223v-1.145h5.591v1.145h-2.222v5.797zM84.549 43.21h1.337l2.125 5.223 2.113-5.223h1.324l-2.916 6.942h-1.107zM28.151 21.74C31.677 10.732 43.471-.003 59.035-.003c14.315 0 27.33 9.956 30.844 22.66h-1.586C83.049 8.771 70.115 2.714 59.81 2.714c-12.356 0-22.664 8.092-26.884 18.962zM28.412 43.97c2.712 9.734 13.205 21.552 30.485 21.552 11.711 0 20.546-5.377 25.828-12.6h-1.776c-5.544 6.614-13.978 10.701-23.277 10.701-10.114 0-23.04-5.193-28.282-19.652z" stroke-width=".12"/>
        <path d="M109.875 13.6h2.161v3.663h4.134V13.6h2.16v9.542h-2.16v-3.92h-4.134v3.92h-2.16V13.6M123.785 21.23c.952 0 1.687-.25 2.205-.753.514-.5.77-1.187.77-2.067 0-.438-.057-.836-.177-1.194-.12-.355-.3-.663-.546-.913a2.42 2.42 0 0 0-.92-.586c-.373-.141-.818-.21-1.332-.21h-1.317v5.723zm-3.475-7.623h3.602a6.94 6.94 0 0 1 2.041.286c.623.188 1.162.481 1.615.872s.807.89 1.06 1.502c.25.608.377 1.329.377 2.158 0 .792-.127 1.48-.384 2.066a4.17 4.17 0 0 1-1.068 1.477 4.457 4.457 0 0 1-1.614.887 6.814 6.814 0 0 1-2.038.293h-3.59v-9.541"/>
    </g>
</svg>
