<?xml version="1.0" encoding="UTF-8"?>
<svg id="svg33" width="1050.8pt" height="530.01pt" version="1.1" viewBox="0 0 1050.8 530.01" xmlns="http://www.w3.org/2000/svg" xmlns:cc="http://creativecommons.org/ns#" xmlns:dc="http://purl.org/dc/elements/1.1/" xmlns:rdf="http://www.w3.org/1999/02/22-rdf-syntax-ns#" xmlns:xlink="http://www.w3.org/1999/xlink">
 <metadata id="metadata39">
  <rdf:RDF>
   <cc:Work rdf:about="">
    <dc:format>image/svg+xml</dc:format>
    <dc:type rdf:resource="http://purl.org/dc/dcmitype/StillImage"/>
    <dc:title/>
   </cc:Work>
  </rdf:RDF>
 </metadata>
 <defs id="defs37">
  <linearGradient id="linearGradient846">
   <stop id="stop842" stop-color="#ff7430" offset="0"/>
   <stop id="stop862" stop-color="#f6664b" offset=".35247"/>
   <stop id="stop858" stop-color="#fb5954" offset=".5654"/>
   <stop id="stop856" stop-color="#ff3c4e" offset=".73119"/>
   <stop id="stop844" stop-color="#fe1b52" offset="1"/>
  </linearGradient>
  <radialGradient id="radialGradient852-2" cx="307.93" cy="-96.575" r="486.52" gradientTransform="matrix(-.5825 1.2382 -1.2254 -.57646 436.55 -358.96)" gradientUnits="userSpaceOnUse" xlink:href="#linearGradient846"/>
 </defs>
 <g id="#000000ff-1" transform="translate(-13.5 -34.591)" fill="url(#radialGradient852-2)">
  <path id="path2" d="m369.72 63.71c57.32-29.79 125.77-36.97 188.15-20.4 60.79 15.84 115.1 54.53 150.43 106.42 14.3 20.92 25.61 43.89 33.38 68.01h-12.81c-23.14-61.92-72.07-113.55-132.49-140.29-46.15-20.72-98.94-26.24-148.36-15.36-34.69 7.54-67.51 23.46-94.93 46.02-32.48 26.57-57.25 62.08-72.43 101.12l-39.27 0.9c22.16-62.74 69.08-116.18 128.33-146.42z"/>
  <path id="path4-1" d="m396.88 237.01 34.15-0.26-43.87 122.37-29.93-0.04-45.27-120.93 34.41-0.65 26.74 76.32z"/>
  <path id="path6-2" d="m444.4 359.14v-122.39l89.195-0.01v28.76l-57.375 0.01v18.36l52.02 0.01v26.86l-52.02 0.11v19.42l58.28 0.01v28.84z"/>
  <path id="path8" d="m554.63 236.76 43.37-0.01c6.97 0.05 14.01-0.36 20.89 1.04 10.57 1.89 20.96 7.11 27.3 16.01 7.84 10.88 9.05 25.44 5.81 38.17-2.75 10.87-10.95 19.78-21.04 24.4l26.4 42.73-36.14 0.02-19.71-37.38-15.585 0.02v37.36h-31.295v-122.36m31.295 28.47v29.64l19.135 0.01c4.33 0.05 8.87-0.79 12.4-3.46 7.41-5.62 6.8-18.84-1.23-23.63-3.32-2.04-7.31-2.6-11.14-2.55z"/>
  <path id="path10" d="m683.81 243.86c11.18-7.42 25.32-8.47 38.3-6.75 13 1.63 25.3 7.48 35.04 16.2l-15.28 23.17c-8.45-6.28-18.29-11.29-28.95-12.04-3.79-0.22-8-0.06-11.12 2.36-2.97 2.31-3.12 7.22-0.26 9.69 4 3.62 9.37 5.13 14.43 6.65 11.53 3.04 23.59 6.12 33.09 13.72 6.15 4.88 10.05 12.32 10.82 20.11 1.2 10.44-1.08 21.68-8.07 29.78-7.12 8.42-18.02 12.7-28.76 13.88-21.53 2.25-44.57-4.26-60.01-19.86l17.21-22.31c9.39 8.18 21.18 14.12 33.8 14.61 4.21 0.14 8.92 0.06 12.4-2.66 3.68-3 3.05-9.47-1.17-11.68-7.14-4.19-15.55-5.17-23.26-7.87-10.97-3.65-22.29-8.96-28.93-18.85-9.83-15.41-4.68-38.31 10.72-48.15z"/>
  <path id="path12" d="m266.49 239.05 31.655-0.69v120.76l-31.655-0.02z"/>
  <path id="path14" d="m212.74 240.38 30.75-0.9v119.64h-27.32l-47.415-64.22v64.21l-30.49 0.01v-116.51l28.775-0.88 45.7 61.09z"/>
  <path id="path16" d="m765.06 359.12 47.59-118.77 29.89 0.82 47.27 117.94-32.95-0.05-0.45-0.32-8.1-20.73-42.58-0.01-8.11 20.76-0.42 0.3-32.14 0.06m49.72-46.76 24.78 0.29-12.21-33.14z"/>
  <path id="path18" d="m86.005 244.51 31.335-1.04v66.51c-0.26 14.2-4.19 29.45-15.17 39.2-11.36 10.21-27.49 12.59-42.23 11.73-13.32-0.67-27.34-5.2-35.98-15.89-7.54-9.2-10.28-21.37-10.46-33.03v-64.32l31.635-1.43v64.85c0.13 7.55 3.085 16.08 10.425 19.43 7.05 3.05 15.94 2.89 22.38-1.58 5.91-4.29 7.985-11.98 8.065-18.96z"/>
  <path id="path20" d="m902.88 243.99 31 1.42v85.97l52.65 0.66v26.95l-83.65 0.13z"/>
  <path id="path22" d="m643.12 384h45.37v9.37h-17.745v47.245h-9.86v-47.245h-17.765z"/>
  <path id="path24" d="m698.46 384.05h10.95l16.88 42.25 16.61-42.25h10.87l-23.37 56.56h-8.86z"/>
  <path id="path26" d="m243.35 389.63h24.36c12.37 34.28 31.9 66.16 57.9 91.8 26.79 26.75 60.49 46.37 96.78 57.02 36.69 10.76 75.72 13.15 113.53 7.8 37.06-5.27 72.94-19.23 103.46-40.97 16.97-12.01 32.29-26.32 45.62-42.27h14.26c-20.34 27.66-46.67 50.85-76.59 67.68-34.14 19.31-72.76 30.32-111.84 33.12-39.05 2.93-78.81-2.28-115.5-16.14-33.44-12.57-64.28-32.14-89.66-57.31-28.45-27.94-49.94-62.84-62.32-100.73z"/>
  <path id="path4" d="m1046.8 137.88h17.471v84.24h-23.235v-62.19l-14.205 3.23-4.53-18.24z"/>
  <path id="path6" d="m975.25 158.38h20.135v19.86h19.485v19.51h-19.485v19.865h-20.135v-19.865h-19.5v-19.51h19.5z"/>
 </g>
</svg>
