<svg id="ec613b02-d61d-47c6-b8ec-006c5ec83968" data-name="Layer 1" xmlns="http://www.w3.org/2000/svg" xmlns:xlink="http://www.w3.org/1999/xlink" width="242.68211" height="195.119" viewBox="0 0 242.68211 195.119"><defs><clipPath id="e6975908-a104-4256-b1ec-70a922156fcc"><rect x="8.39435" y="11.33412" width="225.893" height="172.45125" transform="translate(-9.53305 13.21801) rotate(-6)" fill="none"/></clipPath></defs><title>Artboard 1</title><rect x="8.39428" y="11.33464" width="225.89343" height="172.4507" transform="translate(-9.53307 13.21802) rotate(-6)" fill="#ED6C00"/><g clip-path="url(#e6975908-a104-4256-b1ec-70a922156fcc)"><path d="M229.09038,35.26212a8.76906,8.76906,0,0,0-.828-3.111,5.6186,5.6186,0,0,0-1.51-1.887,5.344,5.344,0,0,0-1.95-.95,10.16421,10.16421,0,0,0-2.231-.306,5.59124,5.59124,0,0,0,1.744-.646,6.57783,6.57783,0,0,0,1.533-1.202,5.089,5.089,0,0,0,1.059-1.654,4.31545,4.31545,0,0,0,.246-2.07l-1.355-12.892a11.93509,11.93509,0,0,0-1.161-4.08,9.99385,9.99385,0,0,0-2.456-3.174,9.88591,9.88591,0,0,0-3.597-1.935,11.7476,11.7476,0,0,0-4.665-.358l-27.992,2.942,5.829,55.456,16.324-1.716-2.029-19.299,2.135-.225a7.68014,7.68014,0,0,1,2.207.076,3.83607,3.83607,0,0,1,1.822.85,3.06443,3.06443,0,0,1,.918,2.101l1.659,15.791,16.399-1.723Zm-18.382-9.057a3.415,3.415,0,0,1-2.23.813l-3.431.36-1.227-11.67,3.51-.369q.915-.096,1.454-.112a1.28623,1.28623,0,0,1,.875.253,1.76681,1.76681,0,0,1,.518.912,11.243,11.243,0,0,1,.313,1.855l.602,5.721a2.97376,2.97376,0,0,1-.384,2.237m-23.628,19.119-16.016,1.683-.649-6.18,13.862-1.456-1.513-14.402-13.863,1.457-.632-6.005,15.547-1.634-1.509-14.356-33.442,3.514,5.817,55.346,33.912-3.564Zm-39.199-8.928a15.88931,15.88931,0,0,0-.661-3.363,4.5037,4.5037,0,0,0-1.295-2.023,4.09952,4.09952,0,0,0-2.25-.882,16.31014,16.31014,0,0,0-3.466.055l-11.822,1.243q-1.143.12-1.294-1.329l-.481-4.577a1.18805,1.18805,0,0,1,.169-.942,1.36048,1.36048,0,0,1,.852-.322l18.002-1.891-1.475-14.036-24.103,2.533a36.08282,36.08282,0,0,0-5.457.921,6.8846,6.8846,0,0,0-3.279,1.81,5.89109,5.89109,0,0,0-1.453,3.431,26.02627,26.02627,0,0,0,.097,5.694l2.021,19.224q.273,2.595,1.664,3.334a6.19266,6.19266,0,0,0,3.599.509l12.89-1.355q1.2975-.1365,1.441,1.238l.497,4.727q.072.69-.174.904a1.37092,1.37092,0,0,1-.78.276l-17.927,1.884,1.476,14.037,26.239-2.757a25.49742,25.49742,0,0,0,5.104-.962,5.31463,5.31463,0,0,0,2.808-1.915,6.56941,6.56941,0,0,0,1.024-3.464,37.26024,37.26024,0,0,0-.25-5.679Zm-43.249-23.94-15.081,1.585,2.645,25.168-13.734-24.002-15.244,1.602,5.832,55.482,15.047-1.581-2.499-23.773,13.426,22.625,15.44-1.623Zm-45.304,4.789-16.627,1.748,4.153,39.512a2.52413,2.52413,0,0,1-.167,1.365,1.31861,1.31861,0,0,1-1.167.626l-3.508.369a1.32313,1.32313,0,0,1-1.273-.369,2.51937,2.51937,0,0,1-.446-1.301l-4.153-39.513-16.705,1.756,5.059,48.131a7.23447,7.23447,0,0,0,2.576,5.051,6.85092,6.85092,0,0,0,5.287,1.528l25.783-2.71a6.73261,6.73261,0,0,0,4.818-2.59,7.31914,7.31914,0,0,0,1.429-5.472Z" fill="#fff"/><path d="M234.44917,86.23961l-25.973,2.73,2.025,19.263,4.58-.481.839,7.982a2.57526,2.57526,0,0,1-.504,1.883,2.3014,2.3014,0,0,1-1.677.93l-6.492.682a2.37254,2.37254,0,0,1-2.587-2.097l-3.524-33.524a3.10893,3.10893,0,0,1,.25-1.695c.236-.488.814-.784,1.739-.881l30.44-3.2-2.058-19.584-45.66,4.799a9.68664,9.68664,0,0,0-8.763,10.819l6.052,57.582a9.73558,9.73558,0,0,0,3.58,6.94,9.61064,9.61064,0,0,0,7.263,2.035l35.868-3.77a9.56651,9.56651,0,0,0,6.733-3.505,9.841,9.841,0,0,0,2.007-7.528Zm-63.494-21.597-21.025,2.21,3.687,35.086-19.147-33.461-21.251,2.233,8.13,77.345,20.979-2.204-3.483-33.139,18.713,31.538,21.526-2.263Zm-62.421,6.53-23.736,2.494,8.133,77.378,23.735-2.494Zm-25.954,18.223a15.71934,15.71934,0,0,0-5.5-10.344,15.1351,15.1351,0,0,0-5.191-2.791,15.33022,15.33022,0,0,0-6.248-.58l-40.018,4.206,8.133,77.376,40.017-4.206a16.42964,16.42964,0,0,0,6.211-1.837,13.91882,13.91882,0,0,0,4.449-3.748,15.34023,15.34023,0,0,0,2.577-5.168,15.86857,15.86857,0,0,0,.491-6.078Zm-19.283,42.81a2.5833,2.5833,0,0,1-.381,1.493,1.66138,1.66138,0,0,1-1.115.655q-.73951.1335-2.018.267l-5.321.56-3.983-37.892,5.322-.559c.853-.089,1.528-.139,2.029-.158a1.79813,1.79813,0,0,1,1.221.356,2.29845,2.29845,0,0,1,.678,1.328,26.30191,26.30191,0,0,1,.385,2.648l2.998,28.524a27.35154,27.35154,0,0,1,.185,2.778" fill="#fff"/></g></svg>