<svg width="286.33mm" height="307.669" viewBox="0 0 811.65 230.75" xmlns="http://www.w3.org/2000/svg">
    <g fill="#f8981d">
        <path d="M374.82 2.8c7.88-4.58 18.89-3.53 25.34 3.07 4.62 4.61 6.61 11.29 6.6 17.7.01 60.66.02 121.32 0 181.98-.01 6.62-2.2 13.53-7.16 18.11-6.61 6.21-17.22 6.83-25.09 2.78-5.68-3.02-8.76-9.12-10.27-15.12-6.47 10.34-18.04 16.48-29.8 18.6-16.34 2.79-33.65-1.67-46.91-11.54-13.54-9.99-22.98-24.85-27.92-40.81-5.6-17.82-5.23-37.18-.53-55.17 4.28-16.17 12.87-31.72 26.34-42 22.59-17.44 57.34-16.58 78.86 2.28-.03-18.4 0-36.79-.02-55.19-.73-9.21 2-19.83 10.56-24.69m-51.91 104.35c-8.44 2.42-14.98 9.15-18.9 16.8-7.49 14.65-8.05 32.64-1.51 47.73 2.77 6.34 6.96 12.23 12.76 16.12 9.47 6.47 22.9 6.25 32.26-.31 7.07-4.94 11.52-12.8 14.01-20.9 3.38-11.22 3.72-23.43.45-34.71-2.19-7.46-6.14-14.63-12.28-19.54-7.37-5.97-17.73-7.76-26.79-5.19zM623.92 21.07c3.8-1.01 7.75-.87 11.65-.86 49.62.03 99.25-.03 148.87.03 10.88.03 21.2 7.26 25.15 17.36 2.02 4.68 2.14 9.87 2.03 14.88-.01 49.02-.02 98.04.01 147.05.12 4.65-.39 9.4-2.33 13.67-4.25 10.07-14.87 16.99-25.82 16.68-51.3-.04-102.61.05-153.91-.04-14.24-.23-26.63-13.1-26.5-27.31-.03-51.67-.04-103.35 0-155.02.01-12.18 9.02-23.59 20.85-26.44m88 22.99c-1.93.51-3.71 1.4-5.45 2.33-13.05 7.01-26.15 13.92-39.2 20.93-7.14 3.78-11.16 12.42-9.61 20.33 1.31 7.81 7.92 14.36 15.77 15.52 4.78.9 9.67-.45 13.79-2.9 12.82-6.88 25.67-13.7 38.5-20.56 5.03-2.63 8.75-7.59 9.83-13.16 1.42-6.54-.92-13.71-5.91-18.17-4.67-4.32-11.59-5.98-17.72-4.32m-14.12 59.47c0 26.67.01 53.35 0 80.02.02 2.98-.22 6.02.54 8.94 1.37 5.76 5.63 10.73 11.11 12.98 5.83 2.5 12.92 1.73 18.08-1.97 5.12-3.56 8.24-9.74 8.06-15.97-.02-34.65 0-69.29-.01-103.94-12.6 6.64-25.2 13.28-37.78 19.94zM16.022 68.31c8.46-2.15 18.27 1.24 22.75 8.93 2.64 4.23 3.71 9.28 3.71 14.24.02 25.37 0 50.74.01 76.11-.1 7.59 2.72 15.38 8.46 20.5 10.3 9.46 27.78 9.41 38.02-.11 5.65-5.14 8.43-12.87 8.33-20.41.01-25.36-.01-50.72.01-76.08-.04-6.4 1.87-13.07 6.42-17.74 7.28-7.67 20.65-8.08 28.52-1.07 5.33 4.66 7.6 11.95 7.55 18.87-.01 25.99.04 51.99-.03 77.98-.04 15.78-5.29 32.12-16.91 43.2-12.53 12.18-30.33 17.14-47.41 17.89-17.86.78-36.75-1.96-51.75-12.32-11.31-7.69-19.06-19.99-21.93-33.29-2.32-9.65-1.66-19.62-1.75-29.45.04-22.01-.08-44.03.05-66.04.17-9.47 6.33-19.15 15.95-21.21zM171.54 71.6c7.35-5.18 17.47-4.79 25.47-1.37 6.04 2.6 9.01 9.25 8.91 15.55 6.93-6.71 15.07-12.56 24.52-15.03 6.84-1.69 14.71-.94 20.43 3.46 5.39 4.15 7.25 11.85 5.29 18.22-1.58 4.84-5.78 8.19-9.99 10.72-10.21 5.92-21.36 10.22-31.07 17-5.95 4.09-9.34 11.18-9.24 18.35-.07 22.34.01 44.68-.04 67.02-.02 6.41-2.04 13.09-6.69 17.68-6.47 6.54-17.42 7.55-25.27 2.97-7.48-4.3-10.8-13.33-10.53-21.63.02-38.65-.03-77.3.02-115.94-.02-6.5 2.75-13.21 8.19-17zM447.98 68.11c8.25-1.73 17.53 1.76 21.85 9.17 3.85 6 3.85 13.36 3.69 20.22v70.01c-.12 7.62 2.7 15.44 8.46 20.58 10.27 9.43 27.7 9.42 37.94-.06 5.7-5.13 8.47-12.89 8.4-20.45.03-25.36.01-50.72.01-76.08-.07-6.61 2-13.53 6.87-18.2 7.38-7.25 20.39-7.48 28.09-.6 5.3 4.66 7.58 11.93 7.51 18.83v61.03c-.11 12.71.92 25.77-3.29 38-4.47 14.48-15.44 26.6-29.23 32.8-16.71 7.67-35.8 8.66-53.81 6.18-15.84-2.33-31.68-9.44-41.55-22.45-8.44-10.91-11.96-24.93-11.9-38.55.03-26.31-.08-52.63.06-78.94.1-9.82 6.79-19.86 16.9-21.49z"/>
    </g>
</svg>
