<svg width="800.013" height="181.5" viewBox="0 0 211.67 48.022" xmlns="http://www.w3.org/2000/svg">
    <defs>
        <linearGradient id="a" x1="-60.133" x2="-20.604" y1="149.44" y2="149.44" gradientUnits="userSpaceOnUse">
            <stop stop-color="#d62224" offset="0"/>
            <stop stop-color="#e2554e" stop-opacity=".941" offset="1"/>
        </linearGradient>
        <linearGradient id="b" x1="-17.553" x2="14.995" y1="149.36" y2="149.36" gradientUnits="userSpaceOnUse">
            <stop stop-color="#e55e57" stop-opacity=".996" offset="0"/>
            <stop stop-color="#d82f2b" offset="1"/>
        </linearGradient>
    </defs>
    <g stroke-width=".363" style="font-feature-settings:normal;font-variant-caps:normal;font-variant-ligatures:normal;font-variant-numeric:normal" aria-label="Urk FM">
        <path d="M-28.634 150.34l7.726 7.6h-3.318l-6.384-6.283-2.179 1.444v4.839h-2.431v-17.175h2.432v9.6l7.928-5.32 4.256.102zm-11.206-1.267q-1.013 1.444-1.013 3.775v5.092h-2.432v-12.413h2.432v1.14q1.798-1.394 5.395-1.394v2.153q-3.242 0-4.382 1.647zm-6.613 7.499q-1.925 1.545-5.776 1.545-7.904 0-7.904-6.789v-10.563h2.432v10.563q0 2.33 1.292 3.47 1.318 1.115 4.18 1.115 2.837 0 4.18-1.14 1.292-1.064 1.292-3.369v-10.639h2.432v10.614q0 3.496-2.128 5.193z" fill="url(#a)" transform="matrix(2.8174 0 0 2.7674 169.42 -389.57)"/>
        <path d="M12.563 157.94v-12.109L6.002 157.94H4.254l-6.56-12.109v12.109H-4.74v-17.175h2.381l7.473 13.806 7.499-13.806h2.38v17.175zm-27.71-14.971v4.94h9.322v2.204h-9.322v7.827h-2.406v-17.175h13.299v2.204z" fill="url(#b)" transform="matrix(2.8174 0 0 2.7674 169.42 -389.57)"/>
    </g>
</svg>
