<svg xmlns="http://www.w3.org/2000/svg" height="329.15" width="600" version="1.1" viewBox="0 0 158.75 87.087694">
 <g transform="translate(-8.438 -113.6)">
  <path d="m50.578 200.69c-24.121 0-42.14-14.458-42.14-31.303v-35.437c0-0.77111 0.55851-1.363 1.363-1.363h25.351c0.91882 0 1.4538 0.61265 1.4538 1.4538v34.256c0 6.4406 5.5264 12.216 12.117 12.216h3.2828c6.2007 0 12.223-5.1207 12.223-12.074v-34.431c0-0.8353 0.55366-1.4202 1.4538-1.4202h25.178c0.83216 0 1.5366 0.43196 1.5366 1.3837v35.326c0 18.003-19.476 31.394-41.819 31.394z" fill="#00bdc9"/>
  <path d="m100.8 146.6c0-17.361 14.338-32.996 33.152-32.996 18.635 0 33.234 15.033 33.234 33.234 0 18.235-14.818 33.166-33.166 33.166-17.669 0-33.22-14.171-33.22-33.404z" fill="#00bdc9"/>
  <g fill="#fff">
   <path d="m116.11 159.62 3.4809-9.016 1.1229-1.127v1.5778c0 3.795 1.8343 6.7148 6.5807 6.7148 4.3279 0 7.3743-2.4608 7.3743-6.2795 0-1.941-0.9361-3.4811-0.9361-3.4811l4.9095 2.4604 0.43036 5.9949s-3.2694 6.4356-12.485 6.4356c-7.1964 0-10.477-3.28-10.477-3.28z"/>
   <path d="m116.11 159.62s-3.93-3.0143-3.93-8.6508v-16.143c0-1.2981 0.83454-2.423 4.314-2.423 3.8025 0 4.2198 1.4856 4.2198 2.6001v6.6976h6.7372c0.48612 0 0.67371 0.28522 0.67371 0.73709v3.9963c0 0.37789-0.1536 0.67621-0.59551 0.67621h-4.4574c-1.1559 0-2.358-0.4508-2.358-0.4508v2.7048c0 3.3725-0.86825 6.8174-4.6037 10.256z"/>
   <path d="m139.07 156.46 1.0698-11.797 0.48335-2.0528s2.135 3.1243 7.574 13.175c3.4543-6.304 5.6573-13.837 5.6573-13.837 0.15467-0.51493 0.56426-0.63959 1.1572-0.48274l3.7287 1.1567c0.45273 0.16216 0.69834 0.34167 0.44342 1.1865-3.1014 9.0589-7.9579 16.531-7.9579 16.531-0.935 1.3907-1.8874 2.5714-5.043 2.5714-2.5458 0-3.4324-0.87031-4.3192-2.1986z"/>
   <path d="m139.07 156.46-5.8128-9.1931c-0.34885-0.65521-0.61474-1.0526-0.61474-1.8307 0.004-1.1438 0.59665-1.9709 2.6045-3.2335 0.43389-0.28616 1.9977-0.91 3.2647-0.91 1.7087 0 2.9834 1.775 2.9834 5.4886 0 6.0425-2.4251 9.6788-2.4251 9.6788z"/>
  </g>
 </g>
</svg>
