<svg xmlns="http://www.w3.org/2000/svg" height="248.15" width="600" version="1.1" viewBox="0 0 158.75 65.657574">
 <g transform="translate(-27.97 -124.32)">
  <path d="m59.741 189.98c-18.185 0-31.771-10.9-31.771-23.6v-26.717c0-0.58136 0.42107-1.0276 1.0276-1.0276h19.113c0.69272 0 1.0961 0.46189 1.0961 1.0961v25.826c0 4.8557 4.1665 9.21 9.1351 9.21h2.475c4.6748 0 9.2155-3.8606 9.2155-9.1031v-25.959c0-0.62975 0.41742-1.0708 1.0961-1.0708h18.983c0.62739 0 1.1585 0.32566 1.1585 1.0432v26.633c0 13.573-14.683 23.669-31.528 23.669z" fill="#00bdc9"/>
  <path d="m97.606 149.2c0-13.089 10.81-24.877 24.994-24.877 14.05 0 25.056 11.334 25.056 25.056 0 13.748-11.172 25.005-25.005 25.005-13.321 0-25.045-10.684-25.045-25.184z" fill="#00bdc9"/>
  <g fill="#fff">
   <path d="m109.14 159.01 2.6243-6.7974 0.84655-0.84967v1.1896c0 2.8612 1.3829 5.0625 4.9614 5.0625 3.2629 0 5.5597-1.8552 5.5597-4.7342 0-1.4634-0.70575-2.6245-0.70575-2.6245l3.7014 1.855 0.32446 4.5197s-2.4648 4.852-9.4129 4.852c-5.4255 0-7.8991-2.4729-7.8991-2.4729z"/>
   <path d="m109.14 159.01s-2.9629-2.2726-2.9629-6.522v-12.171c0-0.97866 0.62918-1.8268 3.2524-1.8268 2.8668 0 3.1814 1.12 3.1814 1.9603v5.0495h5.0793c0.3665 0 0.50793 0.21503 0.50793 0.55571v3.0129c0 0.2849-0.1158 0.50981-0.44897 0.50981h-3.3605c-0.87144 0-1.7778-0.33987-1.7778-0.33987v2.0392c0 2.5426-0.65459 5.1398-3.4709 7.732z"/>
   <path d="m126.46 156.63 0.80654-8.894 0.36441-1.5477s1.6096 2.3555 5.7102 9.933c2.6043-4.7527 4.2652-10.432 4.2652-10.432 0.11661-0.38822 0.42541-0.4822 0.87242-0.36395l2.8111 0.87204c0.34132 0.12225 0.52649 0.25759 0.3343 0.89455-2.3382 6.8297-5.9997 12.464-5.9997 12.464-0.70492 1.0485-1.423 1.9387-3.802 1.9387-1.9194 0-2.5878-0.65615-3.2563-1.6576z"/>
   <path d="m126.46 156.63-4.3824-6.9309c-0.26301-0.49398-0.46347-0.79356-0.46347-1.3802 0.003-0.86236 0.44983-1.4859 1.9636-2.4378 0.32712-0.21574 1.5061-0.68607 2.4614-0.68607 1.2882 0 2.2493 1.3382 2.2493 4.138 0 4.5556-1.8283 7.297-1.8283 7.297z"/>
  </g>
  <path d="m158.43 160.28c0 0.79946-0.8903 1.1326-2.2348 1.1326-1.4112 0-2.1198-0.33312-2.1198-1.1326v-21.519h4.3547v7.6309c1.5323-0.91451 3.3129-1.5626 5.0873-1.5626 1.6534 0 3.0646 0.55115 3.9851 1.5323 1.0417 1.1326 1.4414 2.574 1.4414 4.6576v9.2605c0 0.79945-0.8903 1.1326-2.2348 1.1326-1.4112 0-2.1198-0.33312-2.1198-1.1326v-8.9213c0-1.072-0.15141-1.8714-0.52086-2.356-0.3331-0.46629-1.0114-0.70858-1.932-0.70858-1.2234 0-2.5134 0.43-3.7065 1.1023v10.884z" stroke-width=".42714" fill="#00bdc9"/>
  <path d="m175.75 153.19c0 3.2523 1.3506 4.9361 4.1366 4.9361 0.86001 0 1.72-0.0908 2.4832-0.18167v-9.4724c-0.7631-0.24831-1.6837-0.39972-2.6648-0.39972-2.7012 0-3.9548 1.714-3.9548 5.1176m-4.4453 0.0303v-0.15143c0-5.4871 3.216-8.3396 7.7886-8.3396 1.284 0 2.4529 0.27864 3.2765 0.61172v-6.6801h4.3547v21.52c0 0.43004-0.18169 0.67228-0.67831 0.76919-1.4717 0.27252-3.7065 0.5148-6.2807 0.5148-6.0684 0-8.4609-2.9374-8.4609-8.243" stroke-width=".42714" fill="#00bdc9"/>
 </g>
</svg>
