<svg xmlns="http://www.w3.org/2000/svg" height="252.27" width="600" viewBox="0 0 158.75 66.746">
    <path d="M32.297 66.74C13.81 66.74 0 55.659 0 42.749v-27.16c0-.591.428-1.045 1.045-1.045h19.43c.704 0 1.114.47 1.114 1.115v26.255c0 4.936 4.236 9.362 9.287 9.362h2.515c4.753 0 9.369-3.924 9.369-9.254v-26.4c0-.64.424-1.088 1.114-1.088h19.297c.638 0 1.178.33 1.178 1.06v27.074c0 13.798-14.927 24.061-32.051 24.061zM70.79 25.28c0-13.306 10.989-25.289 25.409-25.289 14.283 0 25.471 11.522 25.471 25.471 0 13.976-11.357 25.42-25.42 25.42-13.542 0-25.46-10.861-25.46-25.602z" fill="#00bdc9"/>
    <g fill="#fff">
        <path d="M82.514 35.26l2.668-6.91.86-.864v1.21c0 2.908 1.406 5.146 5.044 5.146 3.317 0 5.652-1.886 5.652-4.813 0-1.488-.718-2.668-.718-2.668l3.763 1.886.33 4.594s-2.506 4.933-9.569 4.933c-5.515 0-8.03-2.514-8.03-2.514z"/>
        <path d="M82.514 35.26s-3.012-2.31-3.012-6.63V16.257c0-.995.64-1.857 3.306-1.857 2.915 0 3.234 1.138 3.234 1.993v5.133h5.164c.372 0 .516.218.516.565v3.063c0 .29-.117.518-.456.518H87.85c-.886 0-1.808-.346-1.808-.346V27.4c0 2.585-.665 5.225-3.528 7.86zM100.114 32.84l.82-9.041.37-1.574s1.637 2.395 5.805 10.098c2.648-4.831 4.336-10.605 4.336-10.605.119-.395.433-.49.887-.37l2.858.887c.347.124.535.261.34.909-2.377 6.943-6.1 12.67-6.1 12.67-.716 1.066-1.446 1.97-3.865 1.97-1.95 0-2.63-.666-3.31-1.684z"/>
        <path d="M100.114 32.84l-4.455-7.046c-.267-.502-.471-.807-.471-1.403.003-.877.457-1.51 1.996-2.478.332-.22 1.531-.698 2.502-.698 1.31 0 2.287 1.36 2.287 4.207 0 4.631-1.859 7.418-1.859 7.418z"/>
    </g>
    <path d="M138.704 36.92c0 .493-.491.837-2.24.837-1.895 0-2.2-.383-2.2-.837V31.8h-5.309c-.452 0-.756-.533-.756-2.09 0-1.74.343-2.083.756-2.083h5.31v-5.841h4.439v5.84h6.07V31.8h-6.07zM158.754 36.71c0 .693-.626 1.042-2.565 1.042-2.005 0-2.422-.35-2.422-1.075v-16.59a126.717 126.717 0 0 1-6.1 3.569l-1.87-3.813c2.739-1.63 5.752-3.43 7.691-4.677.761-.488 1.11-.593 1.974-.593h2.079c.904 0 1.213.315 1.213 1.075z" stroke-width=".435" fill="#00bdc9"/>
</svg>
