<svg width="211.67mm" height="63.132mm" version="1.1" viewBox="0 0 211.67 63.132" xmlns="http://www.w3.org/2000/svg">
 <g transform="translate(128.89 -117.27)" fill="#00b5de">
  <g stroke-width=".59386">
   <path d="m-18.111 165.25h-7.9432l3.9716 6.9242zm8.8027 2.4301a12.717 12.717 0 0 1-12.717 12.717 12.717 12.717 0 0 1-12.717-12.717 12.717 12.717 0 0 1 12.717-12.717 12.717 12.717 0 0 1 12.717 12.717z"/>
   <path d="m-82.806 137.47 13.528 23.634h-10.017l-3.5104-6.123-3.5104 6.123-10.017-4.7e-4z"/>
   <path d="m46.977 124.31 7.3821 12.508 7.3821-12.508 21.035 36.98h-56.835z"/>
   <path d="m-128.89 118.49 18.091-0.035 5.8402 9.9072 5.8402-9.8788 18.01-0.0263-23.85 42.201z"/>
   <path d="m-74.45 137.09 18.091-0.035 5.8402 9.9072 5.8402-9.8788 18.01-0.0263-23.85 42.201z"/>
  </g>
  <path d="m11.456 144.47h-11.303l5.6519-9.5728zm16.857-4.7956c-1.3e-5 -12.376-10.032-22.408-22.408-22.408-12.376 0-22.408 10.032-22.408 22.408-3.6e-5 12.376 10.032 22.408 22.408 22.408 12.376 0 22.408-10.032 22.408-22.408z" stroke-width="1.0464"/>
 </g>
</svg>
