<svg version="1.1" viewBox="0 0 1887 437.2" xmlns="http://www.w3.org/2000/svg" xmlns:xlink="http://www.w3.org/1999/xlink">
 <defs>
  <style>.cls-1{fill:none}</style>
  <clipPath id="g">
   <path class="cls-1" d="m28.42 1.01 6.59 18.75 6.58-18.75c-2.08-0.66-4.29-1.01-6.59-1.01s-4.51 0.35-6.59 1.01"/>
  </clipPath>
  <linearGradient id="a" x1="-803.95" x2="-803.26" y1="72.53" y2="72.53" gradientTransform="matrix(93.71 0 0 -93.71 75322 6806.4)" gradientUnits="userSpaceOnUse">
   <stop stop-color="#16217c" offset="0"/>
   <stop stop-color="#0009ff" offset=".55"/>
   <stop stop-color="#00ff5b" offset="1"/>
  </linearGradient>
  <clipPath id="f">
   <path class="cls-1" d="m13.15 21.86c0 12.07 9.79 21.86 21.86 21.86s21.86-9.79 21.86-21.86c0-6.41-2.76-12.18-7.15-16.17l-11.25 25.14h-6.92l-11.25-25.14c-4.4 4-7.15 9.76-7.15 16.17"/>
  </clipPath>
  <linearGradient id="d" x1="-804.72" x2="-804.02" y1="71.64" y2="71.64" gradientTransform="matrix(88.92 0 0 -88.92 71551 6395.1)" xlink:href="#a"/>
  <clipPath id="e">
   <path class="cls-1" d="m35 19.77-6.58-18.75c-3.04 0.96-5.8 2.57-8.1 4.67l11.23 25.13h6.92l11.23-25.13c-2.31-2.1-5.07-3.71-8.11-4.67z"/>
  </clipPath>
  <linearGradient id="c" x1="-806.66" x2="-805.96" y1="98.92" y2="98.92" gradientTransform="matrix(0 42.85 42.85 0 -4203.8 34566)" gradientUnits="userSpaceOnUse">
   <stop stop-color="#ebf5f7" offset="0"/>
   <stop stop-color="#f1f8f9" offset=".15"/>
   <stop stop-color="#fbfdfd" offset=".54"/>
   <stop stop-color="#fff" offset="1"/>
  </linearGradient>
  <linearGradient id="b" x1="-803.95" x2="-803.26" y1="72.53" y2="72.53" gradientTransform="matrix(93.71 0 0 -93.71 75322 6806.4)" gradientUnits="userSpaceOnUse" xlink:href="#a"/>
 </defs>
 <g transform="matrix(10,0,0,10,-131.5,0)" clip-path="url(#g)">
  <path transform="rotate(-52.83 34.999 9.8806)" d="m23.15-1.34h23.7v22.43h-23.7z" fill="url(#b)"/>
 </g>
 <g transform="matrix(10,0,0,10,-131.5,0)" clip-path="url(#f)">
  <path transform="rotate(-60 35.008 24.704)" d="m7.61-3.73h54.8v56.88h-54.8z" fill="url(#d)"/>
 </g>
 <g transform="matrix(10,0,0,10,-131.5,0)" clip-path="url(#e)">
  <path d="m20.32 1.02h29.39v29.81h-29.39z" fill="url(#c)"/>
 </g>
 <g fill="#f2f2f2">
  <path d="m691.3 121.32-39.277 46.623c-12.64-11.769-28.14-17.654-46.5-17.654-16.252 0-29.946 5.3891-41.082 16.556-10.836 11.166-16.446 26.45-16.446 45.461q1e-4 28.517 16.253 45.269c11.136 11.165 25.022 16.748 41.275 16.748 18.059 0 33.558-6.0354 46.5-18.106l39.277 46.624c-10.534 10.262-22.874 18.411-37.019 24.448q-20.768 8.5994-50.111 8.5993c-22.271 0-42.738-5.1303-61.398-15.392-18.359-10.563-32.86-25.199-43.695-43.909q-16.252-28.518-16.252-64.28c0-24.142 5.3202-45.569 16.157-64.28 10.834-19.013 25.43-33.844 43.79-44.105 18.66-10.562 39.127-15.648 61.398-15.648q52.366 0 87.13 33.045"/>
  <path d="m704.42 39.82h64.9v290.6h-64.9z"/>
  <path d="m935.51 329.32a321.5 321.5 0 0 1-3.2132-24.023c-12.696 20.315-36.181 29.629-69.129 29.629-23.891 0-44.229-5.6866-58.835-17.504-13.79-11.157-22.024-27.602-22.024-49.37 0-24.409 9.2573-42 25.81-54.815 16.248-12.579 39.518-20.75 68.735-26.821l53.513-11.6c-1.7658-19.994-15.27-30.114-43.235-30.114-30.216 0-49.907 15.411-61.64 27.181l-36.45-43.334c8.0031-8.7949 18.726-17.694 32.304-24.958 17.785-9.515 40.47-15.625 68.358-15.625 25.437 0 45.38 4.2644 60.627 12.301 29.647 15.627 41.539 44.283 41.539 78.14v93.193c0 30.312 1.2861 48.045 2.7315 57.56h-59.413zm-4.9812-92.6v-16.497l-39.699 10.38c-29.732 7.7389-44.714 15.522-44.714 31.81 0 12.733 12.248 20.51 32.497 20.51 30.7 0 51.913-15.408 51.913-46.041"/>
  <path d="m1190.7 114.65-31.175 46.608c-17.231-12.209-35.336-17.248-51.117-17.248-18.97 0-27.588 6.7826-27.588 16.278s10.84 13.566 26.719 19.475l18.588 7.2699c42.981 16.763 67.864 34.88 67.864 74.22 0 46.604-39.404 74.705-90.905 74.705-37.563 0-72.415-12.209-97.295-33.042l32.142-47.574c18.588 14.051 41.628 23.544 64.282 23.544 17.23 0 28.46-5.4223 28.46-18.602 0-13.175-17.23-17.636-41.142-27.129l-18.976-7.2678c-40.273-15.89-52.473-37.594-52.473-66.081 0-34.884 29.822-71.507 92.262-71.507 38.048 0 65.637 14.048 80.547 26.26"/>
  <path d="m1382.3 114.65-31.176 46.604c-17.234-12.207-35.335-17.246-51.116-17.246-18.974 0-27.59 6.7827-27.59 16.278 0 9.4971 10.843 13.568 26.72 19.477l18.584 7.2656c42.987 16.763 67.867 34.882 67.867 74.22 0 46.608-39.403 74.705-90.904 74.705-37.565 0-72.414-12.209-97.296-33.038l32.141-47.576c18.586 14.051 41.629 23.544 64.282 23.544 17.232 0 28.464-5.4224 28.464-18.602 0-13.179-17.236-17.636-41.144-27.131l-18.977-7.2657c-40.274-15.89-52.472-37.594-52.472-66.081 0-34.882 29.818-71.508 92.261-71.508 38.045 0 65.637 14.051 80.548 26.258"/>
  <path d="m1399.5 88.47h64.65v241.65h-64.65zm64.497-37.548c0 17.02-13.999 31.499-32.451 31.499-18.455 0-32.136-14.478-32.136-31.499 0-17.025 13.999-31.025 32.136-31.025 18.134 0 32.451 13.364 32.451 31.025"/>
  <path d="m1690.6 121.71-39.277 46.585c-12.64-11.76-28.141-17.639-46.5-17.639-16.253 0-29.947 5.3847-41.082 16.542-10.836 11.158-16.447 26.428-16.447 45.424q0 28.494 16.254 45.232c11.136 11.156 25.022 16.734 41.275 16.734 18.059 0 33.558-6.0306 46.5-18.091l39.277 46.586c-10.534 10.254-22.874 18.397-37.019 24.428q-20.769 8.5924-50.112 8.5923c-22.271 0-42.738-5.1261-61.398-15.379-18.36-10.554-32.86-25.178-43.695-43.873q-16.251-28.494-16.251-64.228c0-24.123 5.32-45.532 16.156-64.228 10.834-18.998 25.43-33.817 43.79-44.069 18.66-10.553 39.127-15.636 61.398-15.636 34.911 0 63.954 11.006 87.131 33.018"/>
  <path d="m1883.8 114.65-31.174 46.608c-17.231-12.209-35.335-17.248-51.117-17.248-18.968 0-27.587 6.7826-27.587 16.278s10.843 13.566 26.718 19.475l18.589 7.2699c42.982 16.763 67.864 34.88 67.864 74.22 0 46.604-39.403 74.705-90.905 74.705-37.563 0-72.415-12.209-97.295-33.042l32.141-47.574c18.589 14.051 41.63 23.544 64.282 23.544 17.232 0 28.462-5.4223 28.462-18.602 0-13.175-17.231-17.636-41.143-27.129l-18.975-7.2678c-40.274-15.89-52.475-37.594-52.475-66.081 0-34.884 29.823-71.507 92.262-71.507 38.048 0 65.638 14.048 80.549 26.26"/>
 </g>
</svg>
