<svg data-name="Слой 1" version="1.1" viewBox="0 0 800 416" xmlns="http://www.w3.org/2000/svg">
 <defs>
  <style>
   .cls-1 {fill: #b91f2d;}
   .cls-2 {  fill: #fffad2;}
   .cls-3 {  fill: #936900;}
  </style>
 </defs>
 <g transform="scale(1.6)">
  <path class="cls-2" d="m0 0h184.21v65.05h-184.21z"/>
  <path class="cls-3" d="m114.53 48.13c-1.8 2.92-5.18 4.47-8.49 4.86-4.24 0.48-8.87 0.03-12.43-2.53-2.62-1.84-4.28-4.81-4.83-7.92h7.13c0.4 2.15 2.07 3.95 4.24 4.36 2.59 0.53 5.59 0.63 7.88-0.88 1.88-1.32 1.45-4.51-0.69-5.31-4.16-1.85-9.13-0.56-13.07-3.11-4.28-2.16-5.76-8.24-2.8-12.04 3.23-4.15 9.12-4.97 14.02-4.16 4.86 0.72 9.45 4.59 9.82 9.68h-6.82c-0.24-1.65-1.3-3.16-2.9-3.74-2.52-0.93-5.56-0.93-7.85 0.58-1.64 1.06-1.64 3.73 0 4.79 2.14 1.39 4.82 1.24 7.25 1.55 3.34 0.37 6.93 1.29 9.26 3.87 2.44 2.74 2.18 7.04 0.29 10z"/>
  <path class="cls-3" d="m125.88 22.86c3.72-2 8.2-2.11 12.25-1.21 4.64 1.12 8.39 5.36 8.54 10.19 0.09 6.87 0 13.75 0.04 20.62h-6.82c0-1.09 0-2.18-0.01-3.28-3.37 3.41-8.53 4.66-13.15 3.65-2.18-0.54-4.2-1.8-5.47-3.67-2.32-3.29-2.09-8.24 0.8-11.13 3.68-3.69 9.34-3.58 14.14-4.45 1.5-0.29 3.54-0.95 3.58-2.79-0.25-2.01-2.05-3.42-3.96-3.78-2.27-0.43-4.84-0.37-6.82 0.94-1.1 0.68-1.47 1.96-1.79 3.12-2.31-0.01-4.61 0.02-6.92 0 0.59-3.36 2.53-6.58 5.59-8.22m4.5 16.79c-1.7 0.36-3.67 1.16-4.24 2.95-0.77 2.03 0.73 4.39 2.84 4.73 3.79 0.69 8.35-0.82 10.15-4.43 0.89-1.6 0.84-3.47 0.82-5.24-3.05 1.23-6.36 1.41-9.56 1.98z"/>
  <path class="cls-3" d="m45.83 21.88h6.97v30.54h-6.97z"/>
  <path class="cls-3" d="m171.65 45.16v7.27h-6.24c-7.55 0-13.67-6.11-13.67-13.65v-6.21h7.27v12.59z"/>
  <path class="cls-3" d="m171.65 25.29v7.27h-6.24c-7.55 0-13.67-6.11-13.67-13.65v-6.26h7.27v12.64z"/>
  <path class="cls-3" d="m35.5 21.88-8.61 23.89-8.62-23.89h-6.97l11.01 30.54h9.16l11.01-30.54z"/>
  <path class="cls-3" d="m64.03 22.86c3.72-2 8.2-2.11 12.25-1.21 4.64 1.12 8.39 5.36 8.54 10.19 0.09 6.87 0 13.75 0.04 20.62h-6.82c0-1.09 0-2.18-0.01-3.28-3.37 3.41-8.53 4.66-13.15 3.65-2.18-0.54-4.2-1.8-5.47-3.67-2.32-3.29-2.09-8.24 0.8-11.13 3.68-3.69 9.34-3.58 14.14-4.45 1.5-0.29 3.54-0.95 3.58-2.79-0.25-2.01-2.05-3.42-3.96-3.78-2.27-0.43-4.84-0.37-6.82 0.94-1.1 0.68-1.47 1.96-1.79 3.12-2.31-0.01-4.61 0.02-6.92 0 0.59-3.36 2.53-6.58 5.59-8.22m4.5 16.79c-1.7 0.36-3.67 1.16-4.24 2.95-0.77 2.03 0.73 4.39 2.84 4.73 3.79 0.69 8.35-0.82 10.15-4.43 0.89-1.6 0.84-3.47 0.82-5.24-3.05 1.23-6.36 1.41-9.56 1.98z"/>
  <path class="cls-2" d="m184.21 65.05h315.79v129.81h-315.79z"/>
  <path class="cls-3" d="m209.5 169.57v-79.42h17.16v33.13l30-33.13h21.25l-28.63 31.43 31.47 47.99h-21.47l-21.7-35.28-10.91 11.91v23.37h-17.16z"/>
  <path class="cls-3" d="m286.66 90.16h17.16v79.42h-17.16z"/>
  <path class="cls-3" d="m319.15 90.16h18.18l31.93 52.53v-52.53h17.04v79.42h-18.18l-31.93-52.53v52.53h-17.04z"/>
  <path class="cls-3" d="m416.47 165.21c-6.17-3.52-11.02-8.36-14.54-14.52s-5.28-13.1-5.28-20.82 1.76-14.65 5.28-20.82c3.52-6.16 8.37-11 14.54-14.52s13.12-5.28 20.85-5.28 14.56 1.76 20.74 5.28c6.17 3.52 11.02 8.36 14.54 14.52 3.52 6.17 5.28 13.1 5.28 20.82s-1.76 14.65-5.28 20.82-8.37 11-14.54 14.52-13.09 5.28-20.74 5.28-14.68-1.76-20.85-5.28zm32.84-12.82c3.6-2.23 6.4-5.31 8.41-9.25 2.01-3.93 3.01-8.36 3.01-13.27s-1.01-9.34-3.01-13.27c-2.01-3.93-4.81-7.03-8.41-9.3s-7.63-3.4-12.1-3.4-8.48 1.13-12.04 3.4-6.35 5.37-8.35 9.3c-2.01 3.93-3.01 8.36-3.01 13.27s1 9.34 3.01 13.27 4.79 7.02 8.35 9.25 7.57 3.35 12.04 3.35 8.5-1.11 12.1-3.35z"/>
  <path class="cls-1" d="m184.21 194.86h315.79v65.14h-315.79z"/>
  <path class="cls-2" d="m249.86 207.55h8.06l15.16 39.77h-8.86l-3.12-8.69h-14.36l-3.12 8.69h-8.86zm-0.57 23.92h9.25l-4.65-12.9z"/>
  <path class="cls-2" d="m283.86 245.44c-3.03-1.55-5.43-3.86-7.21-6.93s-2.67-6.76-2.67-11.08 0.9-8.01 2.7-11.08 4.22-5.38 7.27-6.93 6.39-2.33 10.02-2.33c3.29 0 6.26 0.59 8.91 1.76s4.81 2.84 6.47 5 2.67 4.66 3.01 7.5h-8.97c-0.27-2.08-1.28-3.76-3.04-5.03s-3.91-1.9-6.44-1.9c-2.16 0-4.09 0.5-5.79 1.51-1.7 1-3.05 2.48-4.03 4.43s-1.48 4.31-1.48 7.07 0.49 5.12 1.48 7.07c0.98 1.95 2.33 3.42 4.03 4.4 1.7 0.99 3.63 1.48 5.79 1.48 2.53 0 4.7-0.63 6.5-1.9s2.87-2.93 3.21-4.97h8.57c-0.27 2.8-1.2 5.28-2.81 7.44s-3.75 3.83-6.41 5.03c-2.67 1.19-5.67 1.79-9 1.79-3.71 0-7.08-0.78-10.1-2.33z"/>
  <path class="cls-2" d="m325.41 214.88h-11.75v-7.33h32.07v7.33h-11.75v32.44h-8.57z"/>
  <path class="cls-2" d="m350.61 207.55h8.57v39.77h-8.57z"/>
  <path class="cls-2" d="m375.39 245.13c-3.09-1.76-5.51-4.18-7.27-7.27s-2.64-6.56-2.64-10.43 0.88-7.34 2.64-10.43 4.18-5.51 7.27-7.27c3.08-1.76 6.56-2.64 10.42-2.64s7.27 0.88 10.36 2.64c3.08 1.76 5.51 4.19 7.27 7.27 1.76 3.09 2.64 6.56 2.64 10.43s-0.88 7.34-2.64 10.43-4.18 5.51-7.27 7.27-6.54 2.64-10.36 2.64-7.33-0.88-10.42-2.64zm16.4-6.42c1.8-1.12 3.2-2.66 4.2-4.63s1.5-4.18 1.5-6.65-0.5-4.68-1.5-6.65-2.4-3.52-4.2-4.66-3.81-1.7-6.05-1.7-4.24 0.57-6.02 1.7c-1.78 1.14-3.17 2.69-4.17 4.66s-1.5 4.19-1.5 6.65 0.5 4.68 1.5 6.65 2.39 3.51 4.17 4.63 3.78 1.68 6.02 1.68 4.25-0.56 6.05-1.68z"/>
  <path class="cls-2" d="m412.37 207.55h9.08l15.95 26.3v-26.3h8.51v39.77h-9.08l-15.95-26.3v26.3h-8.51z"/>
 </g>
</svg>
