<svg xmlns="http://www.w3.org/2000/svg" height="105.18" width="600" viewBox="0 0 158.75 27.828">
    <path fill="#dc0019" d="M0 0h158.75v27.828H0z"/>
    <g fill="#fff">
        <path d="M156.804 25.87h-20.61V1.95h20.61zm-20.15-.46h19.69v-23h-19.69z"/>
        <path d="M136.614 25.87h-20.6V1.95h20.6zm-20.14-.46h19.68v-23h-19.68zM103.045 25.87H89.154V1.95h13.89zm-13.43-.46h12.97v-23h-12.97z"/>
        <path d="M89.614 25.87H69.008V1.95h20.606zm-20.146-.46h19.686v-23H69.468z"/>
        <path d="M69.496 25.87h-13.89V1.95h13.89zm-13.43-.46h12.969v-23h-12.97zM116.474 25.87h-13.89V1.95h13.89zm-13.43-.46h12.97v-23h-12.97z"/>
        <path d="M56.08 25.87H35.475V1.95H56.08zm-20.143-.46h19.685v-23H35.937zM22.557 25.87H1.95V1.95h20.606zm-20.144-.46h19.685v-23H2.413z"/>
        <path d="M35.956 25.87H22.065V1.95h13.89zm-13.43-.46h12.97v-23h-12.97zM10.657 21.61L4.2 6.21h4.457l3.08 8.61c.029.1.086.32.177.66.085.35.2.82.34 1.41.111-.47.215-.9.315-1.28.097-.37.172-.64.22-.79l3.06-8.61h4.46l-6.458 15.4M43.328 18.16h.703c1.648 0 2.854-.34 3.61-1.02.759-.67 1.135-1.75 1.135-3.22s-.376-2.55-1.134-3.24c-.757-.69-1.963-1.03-3.611-1.03h-.703zm-4.153 3.45V6.21h3.205c2.39 0 4.084.11 5.075.34.99.22 1.863.6 2.614 1.12a6.638 6.638 0 0 1 2.218 2.62c.506 1.06.757 2.27.757 3.63s-.251 2.57-.757 3.63a6.638 6.638 0 0 1-2.218 2.62c-.743.51-1.59.88-2.545 1.11-.955.22-2.433.33-4.436.33h-.708M57.805 21.88V6.49h9.432v3.37h-5.34v2.67h5.036v3.31h-5.035v2.59h5.339v3.45M79.282 18.68c1.163 0 2.124-.43 2.886-1.29.76-.85 1.14-1.93 1.14-3.24 0-1.28-.384-2.36-1.155-3.23-.772-.86-1.73-1.29-2.871-1.29-1.164 0-2.125.43-2.887 1.29-.761.86-1.14 1.94-1.14 3.23 0 1.32.373 2.41 1.124 3.25.749.85 1.718 1.28 2.903 1.28m8.222-4.53c0 1.11-.203 2.15-.61 3.11a7.835 7.835 0 0 1-1.777 2.6 8.54 8.54 0 0 1-2.691 1.76c-1.01.4-2.057.61-3.144.61a8.457 8.457 0 0 1-3.158-.61 8.164 8.164 0 0 1-2.657-1.76 7.737 7.737 0 0 1-1.805-2.61c-.41-.97-.615-2-.615-3.1s.206-2.13.615-3.11a8.003 8.003 0 0 1 1.805-2.6 7.98 7.98 0 0 1 2.657-1.75 8.263 8.263 0 0 1 3.158-.61c1.094 0 2.147.2 3.159.61a8.06 8.06 0 0 1 2.676 1.75 8.055 8.055 0 0 1 1.775 2.6c.409.97.612 2.01.612 3.11M91.507 21.61V6.21h4.196v11.8h5.214v3.6M118.794 21.61V6.21h4.05l5.82 7.92c.11.16.29.48.55.97s.54 1.07.85 1.74c-.09-.63-.15-1.2-.19-1.7s-.06-.94-.06-1.33v-7.6h4.03v15.4h-4.03l-5.81-7.95c-.12-.16-.31-.49-.56-.98-.26-.48-.53-1.06-.84-1.72.09.65.15 1.22.19 1.72s.05.94.05 1.33v7.6M138.614 21.72l5.32-15.39h5.26l5.32 15.39h-4.18l-.78-2.75h-5.96l-.8 2.75zm5.88-5.75h4.18l-1.57-5.08c-.05-.15-.11-.4-.2-.75-.08-.34-.19-.78-.32-1.32-.09.38-.18.74-.27 1.08-.09.35-.18.67-.27.99M111.594 21.72h-4.238V6.33h4.238z"/>
        <path d="M31.149 21.61h-4.24V6.21h4.24z"/>
    </g>
</svg>
