<svg width="308.035" height="412.044" viewBox="0 0 81.501 109.02" xmlns="http://www.w3.org/2000/svg">
    <path d="M17.696.663A.829.829 0 0 1 18.515 0h12.446c.18 0 .278.2.176.336L13.596 22.803c-.139.168-.421.045-.375-.164L17.695.663m56.203 23.848a.83.83 0 0 1-.837.827H47.395c-.171 0-.278-.2-.167-.327L66.555.246a.62.62 0 0 1 .5-.245h6.006a.83.83 0 0 1 .837.826v23.69-.005M60.804.001c.171 0 .273.2.162.332L18.625 54.592a.421.421 0 0 1-.509.118l-9.698-4.47a1.022 1.022 0 0 1-.578-1.136l3.192-15.69c.037-.184.116-.358.232-.508L36.758.246A.633.633 0 0 1 37.253 0h23.55M38.286 56.6c-1.431.001-2.857.169-4.248.499a17.168 17.168 0 0 0-5.385 2.248.433.433 0 0 1-.408.037l-5.274-2.435a.412.412 0 0 1-.153-.622L40.529 33.66a.452.452 0 0 1 .36-.164c8.135 0 14.146 1.78 19.786 4.647a.416.416 0 0 1 .139.622l-14.96 19.151a.421.421 0 0 1-.5.128 17.637 17.637 0 0 0-7.074-1.445h.005M21.933 74.433a.846.846 0 0 1 .686-.068.825.825 0 0 1 .503.463c.935 2.208 2.531 4.161 4.567 5.683.19.136.231.4.092.581L12.304 100.92a.422.422 0 0 1-.578.082A37.865 37.865 0 0 1 .089 87.662a.819.819 0 0 1 .333-1.091l21.511-12.137M79.51 60.148a.215.215 0 0 1 .37.064 35.809 35.809 0 0 1 1.62 10.734c0 19.964-17.064 36.349-39.63 38.002-.185.009-.296-.196-.185-.337L79.51 60.148M64.667 40.934a.43.43 0 0 1 .573-.09A37.421 37.421 0 0 1 77.733 54.93a.411.411 0 0 1-.041.436l-41.744 53.496a.42.42 0 0 1-.361.159c-7.2-.35-13.76-2.213-19.364-5.22a.407.407 0 0 1-.139-.613l15.718-20.14a.422.422 0 0 1 .481-.128c1.851.64 3.891 1 6.006 1 8.777 0 15.685-6.12 15.685-13.66 0-3.67-1.633-6.995-4.326-9.448a.417.417 0 0 1-.051-.559L64.672 40.94l-.005-.005" fill="#ff00b9" fill-rule="evenodd"/>
</svg>
