<?xml version="1.0" encoding="UTF-8" standalone="no"?>
<!-- Created with Inkscape (http://www.inkscape.org/) -->
<svg xmlns:rdf="http://www.w3.org/1999/02/22-rdf-syntax-ns#" xmlns="http://www.w3.org/2000/svg" height="425.06" width="600" version="1.1" xmlns:cc="http://creativecommons.org/ns#" xmlns:dc="http://purl.org/dc/elements/1.1/">
 <defs></defs>
 <metadata>
  <rdf:RDF>
   <cc:Work rdf:about="">
    <dc:format>image/svg+xml</dc:format>
    <dc:type rdf:resource="http://purl.org/dc/dcmitype/StillImage"/>
    <dc:title/>
   </cc:Work>
  </rdf:RDF>
 </metadata>
 <g fill="#dd1373">
  <g>
   <path fill="#dd1373" d="M2.3125,0.09375c-1.3488,0.10878-2.3588,1.2666-2.25,2.5938l18.376,223.12-16.876,6.72c-1.2183,0.52-1.8129,1.95-1.3125,3.19l3.7812,10c0.5004,1.24,1.8632,1.86,3.125,1.4l12.594-5.03,14.875,180.6c0,1.37,1.12,2.47,2.469,2.47h28.968c1.349,0,2.438-1.1,2.438-2.47h0.031l16.094-206.41,55.845-22.28v228.75c0.02,1.33,1.09,2.41,2.44,2.41h14.65c1.33,0,2.4-1.08,2.44-2.41v-236.53l71.03-28.28-0.03,234.31c0,7.33-5.96,13.31-13.31,13.31-7.33,0-13.28-5.98-13.28-13.31l-0.03-20.94c0-1.37-1.1-2.47-2.47-2.47h-14.63c-1.37,0-2.47,1.1-2.47,2.47v20.94c0,18.14,14.76,32.91,32.88,32.91,18.14,0,32.9-14.77,32.9-32.91,0-0.04-0.01-131.8-0.03-242.13l63.44-25.24v297.9c0.04,1.31,1.11,2.38,2.44,2.38h14.65c1.33,0,2.4-1.07,2.44-2.38v-305.69l57.06-22.746c1.24-0.501,1.9-1.895,1.38-3.156l-3.81-10.032c-0.5-1.262-1.9-1.875-3.16-1.375l-51.47,20.499,0.03-80.624h55.97c1.37,0,2.44-1.088,2.44-2.437v-14.688c0-1.3488-1.07-2.4374-2.44-2.4374h-73.09c-1.35,0-2.44,1.0886-2.44,2.4374v105.53l-63.44,25.28v-130.9c-0.04-1.3053-1.11-2.3438-2.44-2.3438h-14.62c-1.33,0-2.39,1.0384-2.44,2.3438l-0.03,138.68-71.03,28.29,0.03-166.88c0-1.3488-1.12-2.4374-2.47-2.4374h-14.65c-1.35,0-2.47,1.0886-2.47,2.4374l0.03,174.69-54.501,21.72,15.281-196.25c0.11-1.3271-0.93-2.485-2.281-2.5938h-14.625-0.063-0.187c-1.219,0.04351-2.257,0.98815-2.344,2.25l-16.344,204.78-27.5,10.94-18.344-215.72c-0.087-1.2619-1.134-2.2065-2.374-2.25h-0.157-0.093-14.626zm61.718,224.38l-12.406,155.37-12.344-145.53,24.75-9.84z"/>
  </g>
  <g>
   <path d="m460.24,190.88,0,106.23-39.747,0,0-106.23-25.671,0,0,234.26,25.671,0,0-104.47,39.747,0,0,104.47,24.975,0,0-234.26"/>
   <path d="M511.38,190.88v234.28h45.71c30.27,0,42.94-19,42.94-51.72v-130.85c0-32.72-12.67-51.71-42.94-51.71h-45.71zm25.68,24.62h19.35c13.01,0,18.28,7.73,18.28,25.31v134.72c0,17.23-5.27,25-18.28,25h-19.35v-185.03z"/>
  </g>
 </g>
</svg>
