<svg enable-background="new 0 0 500 118.4" version="1.1" viewBox="0 0 500 118.4" xml:space="preserve" xmlns="http://www.w3.org/2000/svg">
<style type="text/css">
	.st0{fill:#0084BD;}
	.st1{fill:#FFFFFF;}
</style>

	<path class="st0" d="m0 59.2c0-25.8 0-38.7 7.1-47.5 1.4-1.7 3-3.3 4.7-4.7 8.7-7 21.6-7 47.4-7h41.2c25.8 0 38.7 0 47.5 7.1 1.7 1.4 3.3 3 4.7 4.7 7.1 8.7 7.1 21.6 7.1 47.5 0 25.8 0 38.7-7.1 47.5-1.4 1.7-3 3.3-4.7 4.7-8.7 7.1-21.6 7.1-47.5 7.1h-41.2c-25.8 0-38.7 0-47.5-7.1-1.7-1.4-3.3-3-4.7-4.7-7-8.9-7-21.8-7-47.6z"/>
	<path class="st1" d="m40.8 69.2-12-27.8h-12.6l18.6 41.4h11.2c6-13.4 12.5-27.3 18.9-41.4h-12l-12.1 27.8z"/>
	<path class="st1" d="m82.6 82.2c0 4.1-1.5 7.3-7 7.3h-9.2v9.6h10.2c11.7 0 17.2-5.9 17.2-17.3v-40.4h-11.2z"/>
	<path class="st1" d="m126.5 41.4v23.6c0 5.5-2.6 9.4-8.2 9.4s-8.5-3.6-8.5-9.4v-23.6h-10.9v24.8c0 12.2 7.1 18.1 19.1 18.1s19.3-5.9 19.3-18.4v-24.5h-10.8z"/>
	<path class="st1" d="m88.3 19.2c-4 0-7.1 2.1-8.5 5.2-1.4-3.1-4.4-5.2-8.3-5.2-5.7 0-9.5 4.2-9.5 9.6s3.8 9.6 9.5 9.6c3.9 0 6.9-2.2 8.3-5.3 1.5 3.1 4.6 5.3 8.5 5.3 5.4 0 9.2-4.3 9.2-9.6s-3.9-9.6-9.2-9.6z"/>
	<path class="st1" d="m77.5 41.4h-11.1v41.4h11.1z"/>
	<path d="m292.6 30-4.3 12.2h14.6v45.8h13v-58z" fill="#fff"/>
	<path d="m177.5 30v12.2h18.2v45.8h13v-45.9h19.3l-4.2-12.1z" fill="#fff"/>
	<path d="m258.3 70.9-14.5-40.9h-13.9l21.4 58h13.7l21.1-58h-13.4z" fill="#fff"/>
	<path d="m473.3 29.2c-16.6 0-26.8 12.8-26.7 29.8 0 17 10 29.9 26.7 29.9s26.7-13 26.7-29.9-10.1-29.8-26.7-29.8zm0 47.5c-9.4 0-13.4-7.5-13.4-17.7s4.1-17.7 13.4-17.7 13.4 7.5 13.4 17.7c0 10.1-4 17.7-13.4 17.7z" fill="#fff"/>
	<path d="m412.7 29.2c-16.7 0-26.8 12.8-26.7 29.8 0 17 10 29.9 26.7 29.9s26.7-12.9 26.7-29.9c0-16.9-10.1-29.8-26.7-29.8zm0 47.5c-9.4 0-13.4-7.5-13.4-17.7s4.1-17.7 13.4-17.7 13.4 7.5 13.4 17.7c-0.1 10.1-4 17.7-13.4 17.7z" fill="#fff"/>
	<path d="m352 29.2c-16.6 0-26.8 12.8-26.7 29.8 0 17 10 29.9 26.7 29.9s26.7-12.9 26.7-29.9c0-16.9-10-29.8-26.7-29.8zm0 47.5c-9.4 0-13.4-7.5-13.4-17.7s4.1-17.7 13.4-17.7 13.4 7.5 13.4 17.7c0 10.1-4 17.7-13.4 17.7z" fill="#fff"/>

</svg>
