<svg enable-background="new 0 0 500 113.3" version="1.1" viewBox="0 0 500 113.3" xml:space="preserve" xmlns="http://www.w3.org/2000/svg">
<style type="text/css">
	.st0{fill:#254C9C;}
	.st1{fill:#FFFFFF;}
</style>

	<path class="st0" d="M0,56.7C0,32,0,19.6,6.8,11.3c1.3-1.7,2.8-3.1,4.5-4.5C19.6,0,32,0,56.7,0h39.5c24.7,0,37.1,0,45.4,6.8   c1.7,1.3,3.1,2.8,4.5,4.5c6.8,8.4,6.8,20.7,6.8,45.4s0,37.1-6.8,45.4c-1.3,1.7-2.8,3.1-4.5,4.5c-8.4,6.8-20.7,6.8-45.4,6.8H56.7   c-24.7,0-37.1,0-45.4-6.8c-1.7-1.3-3.1-2.8-4.5-4.5C0,93.7,0,81.4,0,56.7z"/>
	<path class="st1" d="m39 66.2-11.5-26.6h-12l17.8 39.6h10.7c5.8-12.8 12-26.1 18.1-39.6h-11.5l-11.6 26.6z"/>
	<path class="st1" d="M79.1,78.7c0,3.9-1.4,7-6.7,7h-8.8v9.2h9.7c11.2,0,16.5-5.6,16.5-16.5V39.6H79.1V78.7z"/>
	<path class="st1" d="m121.1 39.6v22.6c0 5.3-2.5 9-7.9 9s-8.2-3.4-8.2-9v-22.6h-10.3v23.7c0 11.7 6.8 17.3 18.3 17.3s18.5-5.7 18.5-17.6v-23.4h-10.4z"/>
	<path class="st1" d="m84.5 18.4c-3.8 0-6.7 2-8.1 5-1.3-3-4.2-5-8-5-5.5 0-9 4.1-9 9.2s3.6 9.2 9 9.2c3.7 0 6.6-2.1 7.9-5.1 1.4 3 4.4 5.1 8.2 5.1 5.1 0 8.8-4.1 8.8-9.2 0-5.2-3.7-9.2-8.8-9.2z"/>
	<path class="st1" d="M74.2,39.6H63.6v39.6h10.6V39.6z"/>
	<path d="m277.2 50.5c-8-2.2-11.1-3.4-11.1-6.8 0-2 1.6-3.7 5.4-3.7 7.5 0 21.5 0.1 21.5 0.1v-11.4h-19.8c-12.3 0-18.6 5.5-18.6 15 0 8.5 3.9 13.2 17.4 17.1 8.9 2.6 12 4 12 7.4 0 2.6-3.2 4.3-9 4.3-6.6 0-15.1-2.6-19.6-6.3v13c3.9 2.6 11.6 4.6 19.2 4.6 14.3 0 21.3-6.1 21.3-15.5s-4.7-14-18.7-17.8z"/>
	<path d="M298.4,28.7v11.4h16V83h12.2V40.1h14.9l6.8-11.4H298.4z"/>
	<path d="M246.7,28.7h-12.2V83h12.2V28.7z"/>
	<path d="M213.5,50h-22.9V28.7h-12.2V83h12.2V61.4h22.9V83h12.2V28.7h-12.2V50z"/>
	<path d="m371.5 27.9c-16 0-27.9 11.9-27.9 28s12.6 27.9 27.9 27.9c16.1 0 27.2-11.9 27.2-27.9s-11.8-28-27.2-28zm0 45c-9.2 0-15.5-7.2-15.5-16.9 0-9.8 6.3-17 15.5-17 8.5 0 14.8 7.3 14.8 17-0.1 9.6-6.2 16.9-14.8 16.9z"/>
	<path d="m486.1 28.7-12.2 19.4-12.3-19.4h-14.2l20.4 31.8v22.5h12.2v-22.1l20-32.2h-13.9z"/>
	<path d="m447.6 46.3c0-10.4-7.9-17.6-18.8-17.6h-22v54.3h12.2v-23.6l17.5 23.6h14.4l-15.5-20.6c7-2.1 12.2-7.6 12.2-16.1zm-19.7 6.9h-8.9v-13.4h8.9c4.2 0 7.4 2.6 7.4 6.6s-3.1 6.8-7.4 6.8z"/>

</svg>
