<svg enable-background="new 0 0 500 97.9" version="1.1" viewBox="0 0 500 97.9" xml:space="preserve" xmlns="http://www.w3.org/2000/svg" xmlns:xlink="http://www.w3.org/1999/xlink">
<style type="text/css">
	.st0{clip-path:url(#SVGID_00000158722578255681802100000017684794141048740756_);}
	.st1{fill:#D32EE9;}
</style>

	
		<defs>
			<rect id="a" width="500" height="97.9"/>
		</defs>
		<clipPath id="b">
			<use xlink:href="#a"/>
		</clipPath>
		<g clip-path="url(#b)">
			<path class="st1" d="m25.5 66.1-12.4-29.3h-13.1l19.4 43.7h11.6c6.2-14.1 13-28.8 19.6-43.7h-12.5l-12.6 29.3z"/>
			<path class="st1" d="m69.3 79.1c0 4.2-1.5 7.6-7 7.6h-9.3v10h10.2c11.8 0 17.4-6.1 17.4-17.9v-42h-11.3v42.3z"/>
			<path class="st1" d="m113.2 36.8v24.1c0 5.6-2.7 9.6-8.4 9.6s-8.7-3.7-8.7-9.6v-24.1h-11v25.3c0 12.5 7.2 18.4 19.5 18.4s19.6-6 19.6-18.8v-25h-11z"/>
			<path class="st1" d="m73.3 13.8c-4.1 0-7.3 2.3-8.8 5.6-1.5-3.4-4.6-5.6-8.6-5.6-5.9 0-9.8 4.6-9.8 10.3s3.9 10.4 9.8 10.4c4.1 0 7.2-2.3 8.6-5.7 1.5 3.4 4.7 5.7 8.8 5.7 5.6 0 9.6-4.7 9.6-10.4s-4.1-10.3-9.6-10.3z"/>
			<path class="st1" d="M64.4,36.8H52.9v43.7h11.5V36.8z"/>
			<path class="st1" d="M165.6,27.6h-16.8v16.1h-12.5V27.6h-16.7V16.1h16.7V0h12.5v16.1h16.8V27.6z"/>
		</g>
	
	<path d="m354.1 56.3v25.1h-10.4v-24.8c0-5.2-3-9.5-8.7-9.5-4.1 0-7.4 2.5-8.6 6.2 0 1 0.1 2 0.1 2.8v25.3h-10.4v-24.8c0-5.2-3.3-9.5-8.6-9.5-3.7 0-7 2.1-8.6 5.4v28.8h-10.4v-43h10.1v4.2c2.3-3 6.6-5.2 11-5.2 5.1 0 9 2.1 12.2 6.2 3.3-3.8 8.4-6.2 14-6.2 11.4 0 18.3 8.5 18.3 19zm99.3-18v9.6c-5.5-0.1-12.2 0-14.2 6.2v27.4h-10.1v-43.2h9.9v4.9c2.6-3.9 6.3-5.4 10.1-5.4 2 0 4.3 0.5 4.3 0.5zm46.6 21.6v3.3h-31.7c1 6.2 6.8 9.5 13.7 9.5 6.2 0 12.6-2 16.9-5.4v9.9c-4.3 3.2-11.3 4.9-17.6 4.9-13.7 0-23.5-8.6-23.5-22.3s9.2-22.6 21.6-22.6c12.2 0 20.6 8.4 20.6 22.7zm-31.4-4.9h21.3c-1.2-5.1-4.9-8.5-10.6-8.5s-9.6 3.3-10.7 8.5zm-46.9 4.9v3.3h-31.7c1 6.2 6.8 9.5 13.7 9.5 6.2 0 12.6-2 16.9-5.4v9.9c-4.3 3.2-11.3 4.9-17.6 4.9-13.7 0-23.5-8.6-23.5-22.3s9.2-22.6 21.6-22.6c12.3 0 20.7 8.4 20.6 22.7zm-31.4-4.9h21.3c-1.2-5.1-4.9-8.5-10.6-8.5-5.6 0-9.6 3.3-10.7 8.5zm-154.7-16.7v9.6c-5.5-0.1-12.2 0-14.2 6.2v27.4h-10.1v-43.2h9.9v4.9c2.6-3.9 6.3-5.4 10.1-5.4 1.9 0 4.3 0.5 4.3 0.5zm126.4-18.6v10.1h10.1v-10.1h-10.1zm0 18.6v43.1h10.1v-43.1h-10.1zm-80.9 21.6v3.3h-31.7c1 6.2 6.8 9.5 13.7 9.5 6.2 0 12.6-2 16.9-5.4v9.9c-4.3 3.2-11.3 4.9-17.6 4.9-13.7 0-23.5-8.6-23.5-22.3s9.2-22.6 21.6-22.6c12.3 0 20.7 8.4 20.6 22.7zm-31.4-4.9h21.3c-1.2-5.1-4.9-8.5-10.6-8.5-5.6 0-9.6 3.3-10.7 8.5zm-45.8 4.7c0 12.3-8 22.6-21.4 22.6-4.9 0-9.5-2.2-12.1-5.3v20.9h-10.1v-59.5h9.9v4.7c3-3.6 8-5.8 12.9-5.8 13.8 0 20.8 10.2 20.8 22.4zm-10.1 0c-0.4-6.9-5.1-12.8-12.3-12.8-4.8 0-9 2.5-11.1 6.5v12.6c1.7 4.1 6.3 6.6 11.1 6.6 7.5 0.1 12.3-5.9 12.3-12.9z"/>

</svg>
