<svg width="203.373" height="113.2pt" viewBox="0 0 152.53 113.2" xmlns="http://www.w3.org/2000/svg">
    <path d="M63.023 8.943c-5.57 1.91-6.75 10.27-1.89 13.61 4.57 3.89 12.6.21 12.48-5.84.65-5.36-5.68-10.05-10.59-7.77m-1.668 20.564a3.836 3.836 0 0 0-.162 2.147c1.18 11.04 2.56 22.07 3.68 33.12.102 1.927 1.245 4.33 3.323 4.589.724.05 1.517.045 2.177.042a22.07 22.07 0 0 0 2.532-.2c1.338-.18 2.607-.582 3.627-1.49.287-.21.434-.52.591-.8.901-1.906.204-4.172.13-6.201-1.25-10.3-2.28-20.63-3.51-30.92-.709-4.295-5.525-4.065-9.014-3.084-.796.232-1.54.712-2.207 1.217-.702.582-.98 1.07-1.167 1.58zM115.84.001c-.67-.005-1.336.007-1.986.012-1.71-.07-3.132 1.45-3.402 3.04-.72 4.85-1.07 9.75-1.59 14.62-5.95-2.65-13.12-3.2-18.89.22-12.23 6.79-14.65 25.19-6.1 35.78 5.3 6.22 14.53 8.25 22.1 5.35 2.88 1.61 6.44 2.58 9.68 1.69 3.59-1.4 2.361-5.84 2.761-8.83 1.35-14.12 2.79-28.22 4.19-42.33.22-2.75 1.27-6.07-.99-8.27C119.894.203 117.85.018 115.838 0zM99.501 27.86c2.384-.04 4.774.981 6.012 3.134 2.56 4.62 1.89 10.87-1.46 14.93-2.31 2.85-6.95 2.78-9.62.52-4.55-5.1-3.6-15 2.73-18.19a7.92 7.92 0 0 1 2.338-.393z" fill="#e51c22"/>
    <path d="M32.941 6.5c2.14-.688 4.21-1.644 6.42-2.076 2.711-.144 4.81 2.906 3.751 5.399-3.096 7.172-6.239 14.326-9.368 21.479-.668 1.513-1.471 3.003-1.745 4.656 8.806 6.105 17.77 11.986 26.609 18.04 2.353 1.393 2.534 5.227.153 6.67-2.08 1.148-4.424 1.714-6.643 2.536-1.783.612-3.343-.688-4.721-1.62-5.78-3.984-11.601-7.91-17.38-11.894-1.087-.728-2.09-1.713-3.44-1.88-.938 2.48-3.213 5.074-1.89 7.822 1.258 3.686 2.567 7.358 3.826 11.044.403 1.152.585 2.48.023 3.617-.576 1.337-1.978 2.033-3.291 2.455-1.347.432-2.66 1.003-4.048 1.29-1.811.317-3.566-.988-4.137-2.66-5.315-15.51-10.658-31.004-15.992-46.505-.46-1.305-1.128-2.6-1.063-4.02-.088-1.708 1.24-3.231 2.809-3.742 1.37-.529 2.767-.98 4.16-1.448 1.828-.683 4.275.204 4.846 2.172 2.019 5.896 3.904 11.838 5.997 17.71.251 0 .752-.004.998-.004 3.719-8.89 7.623-17.705 11.383-26.577.534-1.138 1.518-2.112 2.744-2.465z" fill="#e51c22" stroke-width=".464"/>
    <path d="M60.391 79.771a16.12 16.12 0 0 1 2.955-.182c1.24.018 2.366.144 3.49.415 5.56 1.631 9.959 5.825 13.449 10.306.418.485 1.072 1.544 1.686.64 2.532-2.928 5.727-5.504 9.612-6.27 1.949-.266 4.005-.04 5.66 1.095 3.2 2.087 4.508 6.048 4.735 9.696.16 3.64-.744 7.539-3.302 10.252-1.914 2.016-4.904 2.773-7.578 2.127-3.614-.858-6.613-3.297-8.962-6.082-.365-.628-1.166-.32-1.495.164-3.138 4-6.822 7.823-11.575 9.861-3.217 1.424-7.048 2.06-10.34.512-4.255-1.816-6.59-6.297-7.565-10.6-1.228-5.287-.641-10.991 1.824-15.837 1.31-2.362 3.277-4.449 5.752-5.583.54-.247 1.114-.4 1.655-.515zm-.323 5.932c-2.875 2.004-3.77 5.73-4.176 9.126-.105.885-.085 1.79-.02 2.607.249 3.143 1.015 6.393 3.226 8.72 1.83 1.948 4.85 1.93 7.17.96 5.103-1.98 8.73-6.38 11.787-10.738-2.047-3.275-4.65-6.234-7.707-8.606-2.456-1.814-5.575-3.31-8.671-2.747a3.98 3.98 0 0 0-1.608.678zm30.82 4.82c-2.109.957-3.786 2.652-5.224 4.428-.436.56-1.103 1.361-.48 2.033 1.824 2.688 4.467 5.069 7.711 5.776 2.154.036 3.19-2.34 3.605-4.125.525-2.728.285-6.012-1.802-8.054-1.033-1.064-2.635-.579-3.81-.058z" fill="#e51c22" stroke-width=".445"/>
    <path d="M136.02 39.888c-.402.005-.802.027-1.2.066-7.23.28-13.67 7.56-11.85 14.83 1.12 5.4 6.19 8.399 10.37 11.329 1.3 1.06 3.84 2.61 2.5 4.56-1.93 2.86-6.27 1.25-8.24-.79-2.09-1.88-1.24-4.82-1.37-7.27-.73-2.24-3.52-2.11-5.43-2.29-1.68-.23-3.81.1-4.43 1.94-1.28 4.96 0 10.6 3.76 14.18 4.94 4.89 13.05 7.44 19.52 4.09 5.81-2.79 8.79-10.6 5.64-16.37-2.25-4.68-7.2-6.86-11.04-9.96-1-.644-1.318-1.836-.983-2.892.212-.695.72-.961 1.258-1.203 2.999-1.173 7.131.673 7.475 4.065.35 1.97-.631 4.81 1.869 5.64 1.52.262 3.211.411 4.835.231.675-.074 1.367-.226 1.98-.351.267-.062.513-.177.74-.317.29-.18.54-.425.732-.754.184-.274.19-.602.225-.896.225-2.128.232-4.376-.223-6.49a13.897 13.897 0 0 0-.237-.946c-.144-.441-.345-.845-.538-1.226a7.573 7.573 0 0 0-.13-.261c-2.836-5.415-9.209-8.997-15.234-8.915z" fill="#e51c22" stroke-width=".428"/>
</svg>
