<svg width="152.53pt" height="113.2pt" version="1.1" viewBox="0 0 152.53 113.2" xmlns="http://www.w3.org/2000/svg">
 <path d="m63.023 8.9434c-5.57 1.91-6.75 10.27-1.89 13.61 4.57 3.89 12.6 0.21 12.48-5.84 0.65-5.36-5.68-10.05-10.59-7.77m-1.668 20.564c-0.24674 0.67093-0.32164 1.4024-0.16196 2.1462 1.18 11.04 2.56 22.07 3.68 33.12 0.10241 1.9272 1.2449 4.331 3.3226 4.5891 0.72396 0.05004 1.5175 0.04555 2.1775 0.04278 0.85548-0.01825 1.6751-0.08373 2.5318-0.19988 1.3382-0.18143 2.6069-0.58242 3.6269-1.4905 0.28708-0.21043 0.43412-0.52072 0.59123-0.80104 0.90096-1.9054 0.20347-4.171 0.13001-6.2004-1.25-10.3-2.28-20.63-3.51-30.92-0.70863-4.295-5.5247-4.0643-9.0141-3.0834-0.79562 0.23162-1.5403 0.7115-2.2065 1.2164-0.70217 0.58248-0.97961 1.07-1.1675 1.5808z" fill="#e51c22"/>
 <path d="m115.84 0.001431c-0.67047-0.0056-1.3363 0.0067-1.9863 0.01172-1.71-0.07001-3.1314 1.4495-3.4014 3.0395-0.72 4.85-1.0694 9.7506-1.5894 14.621-5.95-2.65-13.121-3.2003-18.891 0.21973-12.23 6.79-14.65 25.19-6.0996 35.78 5.3 6.22 14.53 8.2496 22.1 5.3496 2.88 1.61 6.4397 2.5804 9.6797 1.6904 3.59-1.4 2.3612-5.8401 2.7612-8.8301 1.35-14.12 2.7894-28.22 4.1895-42.33 0.21999-2.75 1.2698-6.0705-0.99024-8.2705-1.7175-1.08-3.7615-1.2649-5.773-1.2817zm-16.339 27.858c2.3836-0.04125 4.7742 0.9808 6.0117 3.1333 2.56 4.62 1.8896 10.87-1.4604 14.93-2.31 2.85-6.9496 2.78-9.6196 0.52002-4.55-5.1-3.5995-14.999 2.7305-18.189 0.75-0.2475 1.5434-0.38029 2.3379-0.39404z" fill="#e51c22"/>
 <path d="m32.941 6.4992c2.1401-0.68705 4.2105-1.6433 6.4202-2.0751 2.711-0.14391 4.8093 2.906 3.7509 5.3989-3.0963 7.1722-6.2391 14.326-9.368 21.479-0.66848 1.5134-1.4716 3.0035-1.7455 4.6561 8.8063 6.1045 17.77 11.986 26.609 18.04 2.3536 1.3927 2.5346 5.2271 0.15319 6.6708-2.0797 1.1466-4.424 1.713-6.643 2.5346-1.7826 0.61277-3.3424-0.68705-4.7211-1.6201-5.7795-3.983-11.601-7.9103-17.38-11.893-1.0863-0.72882-2.089-1.713-3.4399-1.8801-0.93772 2.4789-3.2124 5.0739-1.8894 7.8221 1.258 3.6859 2.5671 7.3579 3.8252 11.044 0.40387 1.1513 0.58492 2.4789 0.02321 3.6163-0.57563 1.337-1.9776 2.0333-3.2913 2.4557-1.3462 0.43172-2.66 1.0027-4.048 1.2905-1.8105 0.31567-3.5652-0.98879-4.1362-2.66-5.3153-15.51-10.658-31.005-15.992-46.506-0.45958-1.3045-1.128-2.5996-1.0631-4.0201-0.0882-1.7083 1.2395-3.231 2.8085-3.7416 1.3694-0.52921 2.7668-0.9795 4.1594-1.4484 1.829-0.6824 4.2755 0.20426 4.8465 2.1726 2.0194 5.8956 3.9041 11.838 5.9977 17.71 0.25068 0 0.75204-0.0046 0.99807-0.0046 3.7184-8.8898 7.6225-17.705 11.383-26.577 0.53385-1.1373 1.518-2.1122 2.7435-2.465z" fill="#e51c22" stroke-width=".46422"/>
 <path d="m60.391 79.771c0.97332-0.15814 1.9641-0.20438 2.9551-0.18162 1.2404 0.01717 2.366 0.14352 3.4904 0.41422 5.5592 1.6316 9.958 5.8251 13.448 10.306 0.41829 0.48503 1.0724 1.5441 1.6865 0.64078 2.532-2.928 5.727-5.5045 9.6117-6.2698 1.949-0.267 4.0049-0.0401 5.6602 1.0947 3.1995 2.087 4.5077 6.0474 4.7347 9.6962 0.16019 3.64-0.74313 7.5381-3.3018 10.252-1.9134 2.0158-4.9037 2.7722-7.5781 2.127-3.6133-0.85882-6.6125-3.2973-8.962-6.0829-0.36488-0.62743-1.1659-0.32039-1.4952 0.16464-3.1371 4.0004-6.8216 7.8228-11.574 9.8609-3.2172 1.424-7.0486 2.0603-10.341 0.51174-4.2541-1.8155-6.5902-6.2965-7.5648-10.6-1.2282-5.2864-0.64078-10.991 1.8244-15.837 1.3097-2.3621 3.277-4.4489 5.7523-5.5833 0.5388-0.24694 1.1136-0.3995 1.6544-0.51408 1e-5 -2e-6 -1e-5 3.2e-5 0 3e-5zm-0.32255 5.9321c-2.8755 2.0036-3.77 5.73-4.176 9.1256-0.10591 0.88574-0.085 1.7912-0.0204 2.6071 0.24888 3.1428 1.0151 6.3932 3.2264 8.7194 1.8289 1.949 4.8503 1.9312 7.1687 0.96117 5.104-1.9802 8.7306-6.3811 11.788-10.738-2.0469-3.2751-4.6501-6.2342-7.7072-8.606-2.4556-1.8143-5.575-3.3104-8.6712-2.7473-0.62279 0.11326-1.1327 0.34629-1.6081 0.67751zm30.82 4.8198c-2.1092 0.95672-3.7868 2.6521-5.2241 4.4276-0.43609 0.56068-1.1036 1.3617-0.48059 2.0336 1.8244 2.6877 4.4677 5.0684 7.7116 5.7759 2.1537 0.0356 3.1905-2.3406 3.6044-4.125 0.52508-2.7278 0.28479-6.0118-1.8022-8.0542-1.0324-1.0635-2.6343-0.57848-3.8091-0.0579z" fill="#e51c22" stroke-width=".44499"/>
 <path d="m136.02 39.888c-0.40169 0.0055-0.80226 0.02734-1.1997 0.06592-7.23 0.28-13.671 7.5601-11.851 14.83 1.12 5.4 6.1911 8.3991 10.371 11.329 1.3 1.06 3.839 2.6101 2.499 4.5601-1.93 2.86-6.2697 1.2504-8.2397-0.78956-2.09-1.88-1.2396-4.82-1.3696-7.27-0.73-2.24-3.5202-2.111-5.4302-2.291-1.68-0.23-3.8097 0.10092-4.4297 1.9409-1.28 4.96 2.5e-4 10.6 3.7602 14.18 4.94 4.89 13.049 7.4398 19.519 4.0898 5.81-2.79 8.7911-10.6 5.6411-16.37-2.25-4.68-7.2005-6.8595-11.041-9.9595-0.99985-0.64506-1.317-1.837-0.98287-2.8931 0.21269-0.69432 0.72035-0.96074 1.2586-1.2021 2.9987-1.1735 7.131 0.67239 7.4747 4.0644 0.35 1.97-0.63086 4.8096 1.8691 5.6396 1.5196 0.26278 3.2112 0.41172 4.8347 0.23183 0.67527-0.07394 1.3677-0.22652 1.9801-0.35171 0.26709-0.06204 0.51372-0.17682 0.73941-0.31662 0.291-0.18026 0.54102-0.42512 0.73242-0.7544 0.18459-0.27388 0.19105-0.60179 0.22496-0.8959 0.22514-2.1272 0.23219-4.3753-0.22203-6.4898-0.0684-0.31854-0.14711-0.6347-0.23731-0.94629-0.14416-0.44056-0.34539-0.84488-0.53803-1.2256-0.0418-0.08785-0.0848-0.17512-0.12993-0.26125-2.8358-5.415-9.209-8.9968-15.234-8.915z" fill="#e51c22" stroke-width=".42779"/>
</svg>
