<?xml version="1.0" encoding="UTF-8" standalone="no"?>
<!-- Created with Inkscape (http://www.inkscape.org/) -->

<svg
   xmlns:dc="http://purl.org/dc/elements/1.1/"
   xmlns:cc="http://creativecommons.org/ns#"
   xmlns:rdf="http://www.w3.org/1999/02/22-rdf-syntax-ns#"
   xmlns:svg="http://www.w3.org/2000/svg"
   xmlns="http://www.w3.org/2000/svg"
   xmlns:sodipodi="http://sodipodi.sourceforge.net/DTD/sodipodi-0.dtd"
   xmlns:inkscape="http://www.inkscape.org/namespaces/inkscape"
   version="1.1"
   id="svg815"
   width="500"
   height="193"
   viewBox="0 0 500 193"
   sodipodi:docname="visiontvnetwork.default.svg"
   inkscape:version="0.92.2 (5c3e80d, 2017-08-06)">
  <metadata
     id="metadata821">
    <rdf:RDF>
      <cc:Work
         rdf:about="">
        <dc:format>image/svg+xml</dc:format>
        <dc:type
           rdf:resource="http://purl.org/dc/dcmitype/StillImage" />
        <dc:title></dc:title>
      </cc:Work>
    </rdf:RDF>
  </metadata>
  <defs
     id="defs819" />
  <sodipodi:namedview
     pagecolor="#ffffff"
     bordercolor="#666666"
     borderopacity="1"
     objecttolerance="10"
     gridtolerance="10"
     guidetolerance="10"
     inkscape:pageopacity="0"
     inkscape:pageshadow="2"
     inkscape:window-width="1920"
     inkscape:window-height="1017"
     id="namedview817"
     showgrid="false"
     inkscape:snap-nodes="true"
     inkscape:pagecheckerboard="true"
     inkscape:zoom="2.83"
     inkscape:cx="250"
     inkscape:cy="90.896778"
     inkscape:window-x="1272"
     inkscape:window-y="-8"
     inkscape:window-maximized="1"
     inkscape:current-layer="svg815" />
  <path
     style="display:inline;opacity:1;fill:#86aa00;fill-opacity:1"
     d="m 234.36671,169.08194 c -3.81761,-2.09308 -6.09633,-7.0591 -6.36671,-11.40445 -0.18312,-2.94289 1.39249,-5.96827 3.32113,-8.19862 1.71306,-1.98105 4.82438,-3.60314 6.7802,-3.97006 4.33661,1.16985 3.96632,-1.5551 8.17887,-9.08056 2.59589,-4.6374 5.21952,-9.22461 5.21952,-9.58304 0,-0.35843 -5.08864,-4.0616 -7.14394,-6.55601 -2.49557,-3.02875 -4.69436,-6.39389 -6.15454,-10.03656 -1.99863,-4.98594 -3.33782,-10.381368 -3.39723,-15.75264 -0.0613,-5.541773 0.67384,-11.039148 3.1447,-16.326233 1.53524,-3.285079 4.53886,-7.08134 5.32667,-7.951854 1.27205,-1.405608 -0.76188,-2.347754 -12.22509,-14.365719 l -12.90787,-13.53255 c 0,0 -3.63484,0.40699 -5.46077,0.452849 -4.4992,0.112998 -6.91849,-0.862756 -9.32121,-3.084982 C 200.92081,37.435145 199.51201,33.823077 199.5,30.5 c -0.0118,-3.27177 1.44877,-6.736682 3.73531,-9.076839 1.98426,-2.03079 4.96156,-3.341922 7.79966,-3.423161 3.4339,-0.09829 7.19811,1.197728 9.65851,3.595183 2.32959,2.269993 3.63985,5.261738 3.63985,9.053744 0,4.075445 -0.69076,3.521193 13.58334,17.766418 L 251.5,61.971201 c 0,0 4.33297,-1.760914 6.5,-2.640016 11.37212,-4.613336 23.73189,-4.382528 34.17732,0.165425 7.83936,3.413269 13.36885,8.328686 17.1722,14.878097 3.72011,6.406075 4.64016,14.400114 4.3146,21.800859 -0.29335,6.668364 -1.91013,13.662354 -5.59753,19.226184 -4.10866,6.19946 -10.32822,11.49952 -17.29948,14.09105 -9.36074,3.4798 -18.62628,3.53508 -29.94787,0.84731 -0.92382,-0.21932 -2.04398,3.5047 -5.43229,9.59183 -5.00044,8.98333 -6.43137,9.5636 -3.81855,12.20034 3.26528,6.31434 0.22253,12.63179 -4.05929,16.17859 -3.3795,2.79938 -9.29446,2.88077 -13.1424,0.77107 z m 59.00684,-79.608283 c -8.89864,-5.615252 -19.10711,-11.688226 -27.25869,-15.897901 -9.27161,-5.824862 -7.66177,3.271901 -7.66177,3.271901 -0.002,11.088194 0.15453,25.043873 -0.10916,35.480643 0.22972,6.97976 2.20027,5.21032 9.51384,2.39318 9.16806,-4.86607 18.17748,-9.67796 26.92331,-15.572244 10.44731,-5.25188 2.04176,-6.786422 -1.40753,-9.675579 z M 267,83.097702 c 6.99239,4.125339 14.91309,9.390726 18.98329,11.825599 C 278.92176,99.543877 273.46276,102.77207 267,106.23002 Z M 97.095582,132.16667 C 97.186737,123.82986 97,117.75789 97,93.916667 V 56 h 11.5 11.5 v 37.935662 l -0.17668,38.289018 -11.22774,-0.039 c -9.675849,0.14098 2.46955,0.004 -11.499998,-0.019 z m 102.839178,-0.16668 c 0,0 0.0652,-3.15748 0.0652,-38.073314 V 56 h 11.5 11.5 c 0.27079,12.077 0.18898,60.50813 -0.0132,76.12688 -3.00234,0.30474 -23.05204,-0.12689 -23.05204,-0.12689 z m 126.44901,-0.44229 c 0,0 -0.42236,-13.36445 -0.23125,-27.85549 0.42147,-26.927856 -2.20331,-30.612352 11.1849,-41.346854 6.96236,-4.225398 15.3459,-6.998067 23.4859,-6.735657 9.30991,0.300124 20.27074,2.325628 26.30942,9.417799 9.244,10.856692 8.13179,10.947744 7.8112,42.057812 l 0.0861,25.93473 c -7.6803,-0.18858 -15.35316,-0.15749 -23.03004,0.0355 v -24.51251 c 0,-26.863663 -0.053,-22.273662 -0.83098,-28.470194 -0.61532,-4.900871 -7.94662,-6.394473 -10.26609,-6.497935 -2.10359,-0.09383 -10.04837,1.552438 -10.22625,6.475321 C 350.4988,84.983065 350,105.66172 350,105.66172 L 349.5,132.5 c -7.70671,-0.15314 -15.41015,0.0339 -23.11623,0.11778 z M 25.041454,103.25 C 19.36133,87.4375 13.211398,70.3375 11.374937,65.25 L 8.0359186,56 H 19.852188 31.668457 l 7.871248,23.994524 c 4.329186,13.196988 8.202377,23.659486 8.607091,23.249996 C 48.551509,102.83504 52.323825,92.0375 56.529719,79.25 L 64.176799,56 h 11.4116 C 81.86478,56 87.543652,55.807465 87.560295,56.219965 87.576935,56.632465 81.091852,74.2625 73.796814,94.75 L 60.533109,132 H 47.951031 35.368952 Z M 145.5,129.9574 c -6.11084,-2.36904 -12.3866,-7.14227 -13.95449,-12.90316 -0.62525,-2.29738 -0.54727,-6.90651 -0.54727,-6.90651 7.45211,-0.16804 11.18195,-0.10468 18.63134,-0.14773 l 1.64371,3.4469 c 1.26093,2.64421 2.44579,3.59737 5.08799,4.09305 4.12233,0.77336 10.26112,-1.77488 11.16935,-4.63645 1.60039,-5.0424 -1.81999,-8.02362 -15.47683,-13.489678 -14.37489,-5.753447 -19.07234,-10.841446 -19.03184,-20.614162 0.0439,-10.599578 6.01223,-19.189169 17.86202,-21.45431 26.08511,-4.986285 38.17609,8.667928 36.93934,19.565994 0,0 -4.15054,0.265334 -9.25593,0.08866 -8.54502,0 -9.3588,-0.227296 -9.3588,-0.227296 -0.7001,-7.379815 -8.30632,-8.324886 -14.13707,-5.309689 -3.42344,1.770331 -4.31561,3.764773 -3.10659,6.944755 1.2814,3.370334 4.06492,5.059827 16.03507,9.732702 12.79985,4.996769 15.23858,6.655186 17.91417,12.182224 5.31511,10.97954 0.2993,23.87469 -11.40689,29.32599 -6.67179,3.1069 -21.38554,3.26349 -29.00728,0.30871 z"
     id="path831"
     inkscape:connector-curvature="0"
     sodipodi:nodetypes="aaacssaaascscsaaaaasscssaaaacscaaccccccccccccsccccccccccccccccsccaaccccsszcccsscccscscscscccssssccccssssscscscsss" />
  <g
     aria-label="tv network"
     style="font-style:normal;font-variant:normal;font-weight:bold;font-stretch:normal;font-size:50.66666794px;line-height:1.25;font-family:Verdana;-inkscape-font-specification:'Verdana Bold';letter-spacing:0px;word-spacing:0px;display:inline;fill:#383838;fill-opacity:1;stroke:none"
     id="text835">
    <path
       d="m 190.06277,171.95168 c -2.61926,-0.0378 -3.20098,0.0998 -4.60289,0.10454 -3.46354,0 -3.85841,-0.32616 -5.86953,-1.72807 -1.68229,-1.40191 -1.70306,-3.67746 -1.77386,-7.07429 l -0.24986,-11.98884 -2.78693,-0.12493 v -7.34823 h 2.97433 v -7.12936 l 9.34352,0.12493 0.0625,6.81704 3.02769,0.0625 v 7.59809 h -3.09015 l -0.0625,8.84691 c -0.007,0.97307 0.008,1.82249 0.0247,2.54818 0.0165,0.72569 0.14841,1.37717 0.39584,1.95443 1.34936,0.65114 0.69777,0.37697 2.59281,0.39649 0.0173,3.22416 0.0725,4.85455 0.0143,6.94061 z"
       style="font-style:normal;font-variant:normal;font-weight:bold;font-stretch:normal;font-size:50.66666794px;font-family:sans-serif;-inkscape-font-specification:'sans-serif Bold';fill:#383838;fill-opacity:1"
       id="path837"
       inkscape:connector-curvature="0"
       sodipodi:nodetypes="cccsccccccccccssccc" />
    <path
       d="m 222.94767,143.91679 -9.62522,28.15735 -10.09375,-0.0625 -10.26324,-28.15735 9.11347,0.0625 6.18243,18.28692 5.92081,-18.34938 z"
       style="font-style:normal;font-variant:normal;font-weight:bold;font-stretch:normal;font-size:50.66666794px;font-family:sans-serif;-inkscape-font-specification:'sans-serif Bold';fill:#383838;fill-opacity:1"
       id="path839"
       inkscape:connector-curvature="0"
       sodipodi:nodetypes="cccccccc" />
    <path
       d="m 286.04325,172.01167 h -9.20559 l -0.12493,-19.52675 c -0.51206,-1.75438 -2.08948,-2.31473 -3.49947,-2.3857 -1.48844,-0.0749 -3.65476,0.86831 -3.84819,2.2698 -0.18481,5.34145 -0.0731,12.86137 -0.0731,19.58018 l -8.78132,-0.0625 c 0,0 -0.0778,-13.6545 -0.0625,-18.28783 0.0147,-4.44665 1.63676,-6.66134 4.28381,-8.30097 1.43825,-0.89088 3.21432,-1.41532 4.92687,-1.72067 2.23512,-0.39853 4.58428,-0.56248 6.81013,-0.11508 2.28461,0.45921 4.77075,1.14507 6.40139,2.8098 1.93284,1.97325 3.17283,4.17501 3.17283,7.65505 z"
       style="font-style:normal;font-variant:normal;font-weight:bold;font-stretch:normal;font-size:50.66666794px;font-family:sans-serif;-inkscape-font-specification:'sans-serif Bold';fill:#383838;fill-opacity:1"
       id="path841"
       inkscape:connector-curvature="0"
       sodipodi:nodetypes="cccscccssaaasc" />
    <path
       d="m 320.9314,160.95242 h -21.9582 c 0.13727,2.17708 1.55741,3.40562 3.13605,4.56013 1.5958,1.15452 2.06405,1.29452 5.15268,1.29452 1.95614,0 4.67276,-2.30094 4.75124,-3.88773 3.13837,0.10794 5.85334,0.12805 8.7525,0.13417 -0.84511,3.82135 -5.14225,8.17602 -8.35602,8.90625 -1.60332,0.55025 -3.90369,1.10646 -6.15152,1.10646 -5.79977,0 -8.30755,-1.5658 -11.39619,-4.07275 -3.08863,-2.50694 -4.63294,-6.07769 -4.63294,-10.71224 0,-4.58507 1.45852,-8.21354 4.37556,-10.88541 2.93421,-2.68837 6.94943,-4.03256 12.04567,-4.03256 4.70159,0 7.73663,1.89585 10.10458,4.18839 2.36796,2.27604 4.05166,4.80858 4.05166,9.09677 z m -9.33936,-6.40689 c -0.0515,-1.86372 -0.53192,-3.26563 -1.44136,-4.20573 -0.90943,-0.94011 -2.32505,-1.41016 -4.24686,-1.41016 -1.78455,0 -3.25165,0.44531 -4.40131,1.33594 -1.14965,0.89063 -1.79312,2.31728 -1.93039,4.27995 z"
       style="font-style:normal;font-variant:normal;font-weight:bold;font-stretch:normal;font-size:50.66666794px;font-family:sans-serif;-inkscape-font-specification:'sans-serif Bold';fill:#383838;fill-opacity:1;stroke-width:1.01999092"
       id="path843"
       inkscape:connector-curvature="0"
       sodipodi:nodetypes="cccscccssscscscccsccc" />
    <path
       d="m 390.28138,143.85433 -8.66611,28.15734 h -9.51279 l -5.7027,-18.9805 -5.60308,18.9805 h -9.6373 l -8.5914,-28.15734 h 9.41319 l 4.7813,19.40675 5.97662,-19.40675 h 7.94392 l 5.67779,19.40675 4.70659,-19.40675 z"
       style="font-style:normal;font-variant:normal;font-weight:bold;font-stretch:normal;font-size:50.66666794px;font-family:sans-serif;-inkscape-font-specification:'sans-serif Bold';opacity:1;fill:#383838;fill-opacity:1;stroke-width:1.01003361"
       id="path847"
       inkscape:connector-curvature="0" />
    <path
       d="m 420.80143,158.03915 c 0,4.59758 -1.31126,8.22419 -3.93378,10.87983 -2.60631,2.63905 -6.27297,3.95858 -10.99997,3.95858 -4.727,0 -8.40175,-1.31953 -11.02426,-3.95858 -2.60633,-2.65564 -3.90949,-6.28225 -3.90949,-10.87983 0,-4.63078 1.31126,-8.26569 3.93377,-10.90474 2.63869,-2.63905 6.30535,-3.95858 10.99998,-3.95858 4.75937,0 8.43413,1.32783 11.02426,3.98348 2.60633,2.65564 3.90949,6.28225 3.90949,10.87984 z m -10.44482,5.92227 c 0.42651,-0.48552 0.67515,-0.69397 0.95035,-1.68984 0.29139,-1.01247 0.43709,-2.40668 0.43709,-4.18264 0,-1.64318 -0.1457,-3.0208 -0.43709,-4.13285 -0.29139,-1.11205 -0.66936,-1.50355 -1.21412,-2.10175 -0.46303,-0.50846 -1.04192,-0.94363 -1.68236,-1.19415 -0.87413,-0.34194 -1.85442,-0.38732 -2.79266,-0.36078 -0.74435,0.0211 -1.50622,0.13002 -2.19582,0.41102 -0.60131,0.24502 -1.16173,0.62177 -1.61988,1.08189 -0.57514,0.5776 -1.02567,0.91064 -1.34943,2.03929 -0.30759,1.12865 -0.46138,2.54776 -0.46138,4.25733 0,1.527 0.1376,2.85482 0.41281,3.98347 0.27519,1.11205 0.79519,1.41125 1.33905,2.00171 0.42429,0.46066 0.91657,0.87739 1.47068,1.16926 0.76412,0.40249 1.61352,0.73619 2.47682,0.76046 0.98935,0.0278 1.98812,-0.28766 2.88291,-0.71067 0.67066,-0.31705 1.29344,-0.77443 1.78303,-1.33175 z"
       style="font-style:normal;font-variant:normal;font-weight:bold;font-stretch:normal;font-size:50.66666794px;font-family:sans-serif;-inkscape-font-specification:'sans-serif Bold';opacity:1;fill:#383838;fill-opacity:1;stroke-width:0.99385965"
       id="path849"
       inkscape:connector-curvature="0"
       sodipodi:nodetypes="scscscscsacscaaaaacscaaaaa" />
    <path
       d="m 437.07138,150.27866 c -0.37934,-0.13194 -1.90313,0.19298 -2.51784,0.82749 -0.55633,0.57426 -0.60169,1.31664 -0.67629,2.30132 v 18.60416 H 424.971 c 0.032,-9.85566 -0.25265,-15.79916 -0.0158,-18.76984 0.23682,-2.97068 1.12922,-4.46172 2.48815,-6.24245 0.80675,-1.05716 1.96005,-1.88447 3.18467,-2.40286 2.00249,-0.84767 2.13725,-1.11859 6.44585,-1.00385 0.0445,2.06173 0.16813,4.63088 -0.002,6.68603 z"
       style="font-style:normal;font-variant:normal;font-weight:bold;font-stretch:normal;font-size:50.66666794px;font-family:sans-serif;-inkscape-font-specification:'sans-serif Bold';opacity:1;fill:#383838;fill-opacity:1"
       id="path851"
       inkscape:connector-curvature="0"
       sodipodi:nodetypes="cacccsaacc" />
    <path
       d="m 470.33323,171.9492 -10.42835,0.0625 -8.04283,-12.84723 -0.0508,3.69359 v 9.15364 H 442.905 v -47.05253 h 8.90625 l 0.12493,29.91672 7.35021,-10.8966 h 10.01706 l -9.12028,13.59806 z"
       style="font-style:normal;font-variant:normal;font-weight:bold;font-stretch:normal;font-size:50.66666794px;font-family:sans-serif;-inkscape-font-specification:'sans-serif Bold';fill:#383838;fill-opacity:1"
       id="path853"
       inkscape:connector-curvature="0"
       sodipodi:nodetypes="ccccccccccccc" />
    <path
       d="m 339.10707,171.92632 c -2.61926,-0.0378 -3.20098,0.0998 -4.60289,0.10454 -3.46354,0 -3.85841,-0.32616 -5.86953,-1.72807 -1.68229,-1.40191 -1.70306,-3.67746 -1.77386,-7.07429 l -0.24986,-11.98884 -2.78693,-0.12493 v -7.34823 h 2.97433 v -7.12936 l 9.34352,0.12493 0.0625,6.81704 3.02769,0.0625 v 7.59809 h -3.09015 l -0.0625,8.84691 c -0.007,0.97307 0.008,1.82249 0.0247,2.54818 0.0165,0.72569 0.14841,1.37717 0.39584,1.95443 1.34936,0.65114 0.69777,0.37697 2.59281,0.39649 0.0173,3.22416 0.0725,4.85455 0.0143,6.94061 z"
       style="font-style:normal;font-variant:normal;font-weight:bold;font-stretch:normal;font-size:50.66666794px;line-height:1.25;font-family:sans-serif;-inkscape-font-specification:'sans-serif Bold';letter-spacing:0px;word-spacing:0px;fill:#383838;fill-opacity:1;stroke:none"
       id="path837-0"
       inkscape:connector-curvature="0"
       sodipodi:nodetypes="cccsccccccccccssccc" />
  </g>
</svg>
