<svg width="158.74mm" height="63.769mm" version="1.1" viewBox="0 0 158.74 63.769" xmlns="http://www.w3.org/2000/svg">
 <g transform="translate(102.43 -116.95)">
  <g transform="matrix(.99999 0 0 .99999 204.31 -183.84)">
   <path d="m-157.68 348.52c0 1.31-1.07 2.37-2.38 2.37h-143.75c-1.31 0-2.37-1.06-2.37-2.37v-33.27c0-1.32 1.06-2.38 2.37-2.38h143.75c1.31 0 2.38 1.06 2.38 2.38v33.27" fill="#ef3e20"/>
   <path d="m-157.68 348.52c0 1.31-1.07 2.37-2.38 2.37h-143.75c-1.31 0-2.37-1.06-2.37-2.37v-33.27c0-1.32 1.06-2.38 2.37-2.38h143.75c1.31 0 2.38 1.06 2.38 2.38z" fill="none" stroke="#fff" stroke-width="1.1179"/>
   <path d="m-166.46 321.94c-5.69 7.8 3.49 12.69 7.65 1.02 0.51-1.42 2.04-13.15-10.81-15.6-11.83-1.02-0.92 11.22 3.16 14.58" fill="#ef3e20"/>
   <path d="m-166.46 321.94c-5.69 7.8 3.49 12.69 7.65 1.02 0.51-1.42 2.04-13.15-10.81-15.6-11.83-1.02-0.92 11.22 3.16 14.58z" fill="none" stroke="#fff" stroke-width="1.0019"/>
   <path d="m-152.38 317.25c6.22 5.61 2.45 12.04-5.87 4.52-1.12-1.02-7.58-10.64 2.81-18.59 11.12-7.35 6.12 9.69 3.06 14.07" fill="#ef3e20"/>
   <g fill="none" stroke="#fff">
    <path d="m-152.38 317.25c6.22 5.61 2.45 12.04-5.87 4.52-1.12-1.02-7.58-10.64 2.81-18.59 11.12-7.35 6.12 9.69 3.06 14.07z" stroke-width=".86755"/>
    <path d="m-166.46 321.94c-5.69 7.8 3.49 12.69 7.65 1.02 0.51-1.42 2.04-13.15-10.81-15.6-11.83-1.02-0.92 11.22 3.16 14.58z" stroke-width="1.1473"/>
    <path d="m-152.38 317.25c6.22 5.61 2.45 12.04-5.87 4.52-1.12-1.02-7.58-10.64 2.81-18.59 11.12-7.35 6.12 9.69 3.06 14.07z" stroke-width="1.1473"/>
   </g>
   <g fill="#171717">
    <path d="m-289.69 338.61 9.7-18.66h6.15l-13.36 24.3c-0.96 1.69-2.39 2.53-4.26 2.53-1.85 0-2.9-0.84-3.14-2.53l-3.02-24.3h6.16l1.77 18.66"/>
    <path d="m-273.67 346.67h-4.74l4.61-21.71h4.74l-4.61 21.71"/>
    <path d="m-260.57 340.14 7.88-15.18h4.72l-10.85 19.76c-0.79 1.37-1.94 2.06-3.47 2.06-1.5 0-2.35-0.69-2.55-2.06l-2.45-19.76h5.28l1.44 15.18"/>
    <path d="m-242.44 331.93-2.98 5.63h3.54zm-2.29-5.07c0.33-0.65 0.87-1.19 1.64-1.6 0.67-0.35 1.4-0.52 2.19-0.52 0.8 0 1.45 0.17 1.93 0.52 0.59 0.37 0.91 0.9 0.98 1.6l2.02 19.81h-4.97l-0.49-4.64h-6.34l-2.45 4.64h-4.97l10.46-19.81"/>
   </g>
   <g fill="#fff">
    <path d="m-290.81 337.5 9.7-18.67h6.16l-13.37 24.3c-0.96 1.69-2.38 2.53-4.26 2.53-1.85 0-2.9-0.84-3.14-2.53l-3.02-24.3h6.16l1.77 18.67"/>
    <path d="m-274.78 345.56h-4.75l4.62-21.72h4.74l-4.61 21.72"/>
    <path d="m-261.69 339.02 7.88-15.18h5.01l-10.86 19.76c-0.78 1.37-1.94 2.06-3.47 2.06-1.5 0-2.35-0.69-2.55-2.06l-2.45-19.76h5l1.44 15.18"/>
    <path d="m-243.56 330.81-2.97 5.63h3.53zm-2.29-5.07c0.33-0.65 0.88-1.18 1.64-1.6 0.67-0.35 1.4-0.52 2.19-0.52 0.81 0 1.45 0.17 1.93 0.52 0.59 0.37 0.91 0.91 0.98 1.6l2.03 19.82h-4.97l-0.49-4.65h-6.35l-2.45 4.65h-4.97l10.46-19.82"/>
    <path d="m-229.7 345.56c-1.53 0-2.73-0.55-3.59-1.65-0.88-1.1-1.15-2.43-0.8-3.99l3.3-15.49c0.32-1.51 1.14-2.82 2.45-3.95 1.35-1.1 2.78-1.65 4.31-1.65h11.99l-1.24 5.84h-10.43c-0.35 0-0.68 0.12-1 0.38-0.33 0.25-0.53 0.57-0.61 0.94l-2.61 12.36c-0.08 0.38-0.02 0.7 0.2 0.97 0.21 0.27 0.49 0.4 0.84 0.4h10.43l-1.25 5.84h-11.99"/>
    <path d="m-210.78 345.56h-4.74l4.61-21.72h4.74l-4.61 21.72"/>
    <path d="m-199.6 345.56h-4.74l3.6-16.98h-4.61l1.01-4.74h13.96l-1.01 4.74h-4.61l-3.6 16.98"/>
    <path d="m-188.77 345.56c-1.27 0-2.25-0.45-2.95-1.34-0.72-0.88-0.92-1.95-0.62-3.24l2.68-12.59c0.27-1.24 0.92-2.31 1.97-3.2 1.09-0.9 2.26-1.35 3.53-1.35h9.71l-1.01 4.74h-8.44c-0.31 0-0.58 0.1-0.83 0.31-0.26 0.21-0.41 0.46-0.48 0.77l-0.55 2.66h9.51l-1.01 4.73h-9.52l-0.55 2.66c-0.07 0.3-0.02 0.57 0.14 0.79 0.17 0.21 0.4 0.32 0.71 0.32h8.43l-1.01 4.74h-9.71"/>
    <path d="m-182.21 321.54 0.63 1.34 5.24-1.47-1.22-2.31-4.65 2.44"/>
   </g>
   <g fill="#171717">
    <path d="m-153.54 317.04c4.03-6.69 4.83-13.05 3.62-14.73 2.24 2.02-0.74 11.91-3.21 15.04l-0.41-0.31"/>
    <path d="m-157.96 321.27s1.72 1.57 2.99 2.26c1.04 0.69 5.13 2.55 5.11-0.96 0 0-0.72 3.02-5.11 0.41-2.46-1.46-2.94-2.28-2.94-2.28l-0.05 0.57"/>
    <path d="m-159.1 321.66s-0.71 5.35-4.59 7.24c-3.31 1.62-4.03-1.31-3.99-2.13 0 0 0.76 2.79 3.27 1.68 2.24-1 4.08-3.78 4.9-7.37 0 0.04 0.41 0.58 0.41 0.58"/>
    <path d="m-165.66 321.86s-6.46-5.2-8.23-9.93c3.46 5.33 8.79 9.34 8.79 9.34l-0.56 0.59"/>
   </g>
  </g>
  <g transform="matrix(1.0054 0 0 .99458 -137.5 128.9)" fill="#f44f13" stroke-width=".13887" style="font-feature-settings:normal;font-variant-caps:normal;font-variant-ligatures:normal;font-variant-numeric:normal" aria-label="BRABANT WALLON 97.3 FM">
   <path d="m54.15 49.789q0 0.51161-0.20844 0.91427-0.2037 0.40266-0.56372 0.66794-0.41687 0.31265-0.91901 0.44529-0.4974 0.13264-1.2648 0.13264h-3.0791v-7.0536h2.7381q0.85269 0 1.2459 0.05685 0.39792 0.05684 0.78637 0.25107 0.40266 0.2037 0.59688 0.54951 0.19896 0.34107 0.19896 0.78163 0 0.51161-0.27002 0.9048-0.27002 0.38845-0.76268 0.60636v0.0379q0.69162 0.13738 1.0943 0.56846 0.4074 0.43108 0.4074 1.1369zm-2.3307-2.8991q0-0.17527-0.09001-0.35055-0.08527-0.17527-0.30791-0.26054-0.19896-0.07579-0.4974-0.08053-0.2937-0.0095-0.829-0.0095h-0.17054v1.4922h0.28423q0.43108 0 0.73426-0.01421 0.30318-0.01421 0.47845-0.09474 0.24633-0.10896 0.32213-0.27949 0.07579-0.17528 0.07579-0.40266zm0.44529 2.8707q0-0.33634-0.13264-0.51635-0.1279-0.18475-0.44056-0.27476-0.21317-0.06158-0.58741-0.06632-0.37424-0.0047-0.78163-0.0047h-0.39792v1.7575h0.13264q0.76742 0 1.099-0.0047 0.3316-0.0047 0.61109-0.12317 0.28423-0.11843 0.38845-0.31265 0.10895-0.19896 0.10895-0.45477z"/>
   <path d="m58.972 47.055q0-0.26528-0.10896-0.45477-0.10895-0.18949-0.37423-0.29844-0.18475-0.07579-0.43108-0.09001-0.24633-0.01895-0.5732-0.01895h-0.65846v1.8996h0.55898q0.43582 0 0.72952-0.04264 0.2937-0.04263 0.49266-0.19422 0.18949-0.14685 0.27476-0.32213 0.09001-0.18001 0.09001-0.47845zm2.8376 4.8935h-2.2217l-1.9233-2.5865h-0.83848v2.5865h-1.8096v-7.0536h3.0507q0.6253 0 1.0753 0.07106t0.84321 0.30792q0.39792 0.23686 0.63004 0.61583 0.23686 0.37424 0.23686 0.94269 0 0.78163-0.36476 1.2743-0.36002 0.49266-1.0327 0.81953z"/>
   <path d="m68.644 51.949h-1.8806l-0.48793-1.4259h-2.6149l-0.48793 1.4259h-1.8333l2.6054-7.0536h2.0938zm-2.8091-2.7191-0.8669-2.5296-0.8669 2.5296z"/>
   <path d="m75.214 49.789q0 0.51161-0.20843 0.91427-0.2037 0.40266-0.56372 0.66794-0.41687 0.31265-0.91901 0.44529-0.4974 0.13264-1.2648 0.13264h-3.0791v-7.0536h2.7381q0.85269 0 1.2459 0.05685 0.39792 0.05684 0.78637 0.25107 0.40266 0.2037 0.59688 0.54951 0.19896 0.34107 0.19896 0.78163 0 0.51161-0.27002 0.9048-0.27002 0.38845-0.76268 0.60636v0.0379q0.69162 0.13738 1.0943 0.56846 0.40739 0.43108 0.40739 1.1369zm-2.3307-2.8991q0-0.17527-0.09001-0.35055-0.08527-0.17527-0.30792-0.26054-0.19896-0.07579-0.4974-0.08053-0.2937-0.0095-0.829-0.0095h-0.17053v1.4922h0.28423q0.43108 0 0.73426-0.01421 0.30318-0.01421 0.47845-0.09474 0.24633-0.10896 0.32213-0.27949 0.07579-0.17528 0.07579-0.40266zm0.44529 2.8707q0-0.33634-0.13264-0.51635-0.1279-0.18475-0.44055-0.27476-0.21317-0.06158-0.58741-0.06632-0.37423-0.0047-0.78163-0.0047h-0.39792v1.7575h0.13264q0.76742 0 1.099-0.0047 0.3316-0.0047 0.61109-0.12317 0.28423-0.11843 0.38845-0.31265 0.10896-0.19896 0.10896-0.45477z"/>
   <path d="m82.598 51.949h-1.8806l-0.48793-1.4259h-2.6149l-0.48793 1.4259h-1.8333l2.6054-7.0536h2.0938zm-2.8091-2.7191-0.8669-2.5296-0.8669 2.5296z"/>
   <path d="m89.547 51.949h-1.7527l-2.9939-4.8414v4.8414h-1.6675v-7.0536h2.1744l2.5723 4.0408v-4.0408h1.6675z"/>
   <path d="m96.387 46.259h-2.2028v5.6893h-1.8191v-5.6893h-2.2028v-1.3643h6.2246z"/>
   <path d="m109.55 44.895-1.8996 7.0536h-2.0133l-1.2648-4.595-1.2317 4.595h-2.0133l-1.8996-7.0536h1.8996l1.0848 4.8556 1.298-4.8556h1.8143l1.2364 4.8556 1.1369-4.8556z"/>
   <path d="m116.8 51.949h-1.8806l-0.48792-1.4259h-2.6149l-0.48793 1.4259h-1.8333l2.6054-7.0536h2.0938zm-2.8091-2.7191-0.8669-2.5296-0.86689 2.5296z"/>
   <path d="m122.42 51.949h-5.0877v-7.0536h1.8191v5.6893h3.2686z"/>
   <path d="m128.11 51.949h-5.0877v-7.0536h1.8191v5.6893h3.2686z"/>
   <path d="m135.57 48.424q0 1.6864-0.96638 2.6812-0.96638 0.99006-2.6718 0.99006-1.7006 0-2.667-0.99006-0.96638-0.9948-0.96638-2.6812 0-1.7006 0.96638-2.686 0.96638-0.99006 2.667-0.99006 1.6959 0 2.667 0.99006 0.97112 0.98533 0.97112 2.686zm-2.4112 1.7859q0.26528-0.32213 0.39318-0.75794 0.1279-0.44055 0.1279-1.0327 0-0.63478-0.14685-1.0801t-0.38371-0.72005q-0.24159-0.28423-0.55898-0.41213-0.31265-0.1279-0.65373-0.1279-0.34581 0-0.65372 0.12317-0.30318 0.12317-0.55899 0.40739-0.23685 0.26528-0.38844 0.73426-0.14685 0.46424-0.14685 1.0801 0 0.63004 0.14211 1.0753 0.14685 0.44056 0.38371 0.72005 0.23686 0.27949 0.55425 0.41213t0.66793 0.13264q0.35055 0 0.66794-0.13264 0.31739-0.13738 0.55425-0.42161z"/>
   <path d="m142.88 51.949h-1.7527l-2.9939-4.8414v4.8414h-1.6675v-7.0536h2.1744l2.5723 4.0408v-4.0408h1.6675z"/>
   <path d="m152.39 48.026q0 0.88585-0.22738 1.6485-0.22739 0.76268-0.69163 1.2838-0.50213 0.56372-1.2459 0.84795-0.74373 0.27949-1.7338 0.27949-0.35055 0-0.75795-0.04263-0.40739-0.04263-0.53529-0.07579v-1.388h0.18948q0.14212 0.06632 0.40266 0.14211 0.26528 0.07579 0.72005 0.07579 0.36949 0 0.72478-0.09 0.35529-0.09474 0.61109-0.2937 0.27949-0.21317 0.45951-0.53056 0.18001-0.32213 0.24159-0.77216-0.41213 0.23686-0.76742 0.36476-0.35055 0.12317-0.87637 0.12317-0.39792 0-0.76268-0.09474-0.36002-0.09948-0.65846-0.30318-0.39319-0.27949-0.63005-0.73426-0.23212-0.4595-0.23212-1.1559 0-1.1322 0.78637-1.8428 0.7911-0.71531 2.0701-0.71531 0.65847 0 1.1653 0.17528 0.51161 0.17054 0.88111 0.52582 0.43108 0.4074 0.64899 1.0374 0.21791 0.63004 0.21791 1.5348zm-1.8143-0.26528q0-0.57793-0.11369-0.94743-0.10895-0.37424-0.30318-0.57793-0.13737-0.15159-0.31739-0.21791-0.18001-0.06632-0.37897-0.06632-0.18475 0-0.35528 0.06632-0.1658 0.06158-0.32213 0.21791-0.14685 0.15159-0.24159 0.39792-0.09 0.24633-0.09 0.58741 0 0.3316 0.0995 0.55898 0.0995 0.22265 0.27476 0.35529 0.1658 0.1279 0.38844 0.18001 0.22738 0.05211 0.49266 0.05211 0.21318 0 0.46425-0.05211 0.25106-0.05685 0.38844-0.11369 0-0.05211 5e-3 -0.14685 9e-3 -0.09948 9e-3 -0.2937z"/>
   <path d="m158.81 46.297-3.1928 5.6514h-2.0275l3.316-5.7035h-3.6239v-1.3501h5.5282z"/>
   <path d="m159.61 51.949h-1.7717v-1.8617h1.7717z"/>
   <path d="m165.71 48.642q0.23212 0.19896 0.36949 0.46424 0.13738 0.26528 0.13738 0.70584 0 0.4974-0.19896 0.92848-0.19422 0.43108-0.60162 0.739-0.39792 0.29844-0.93795 0.4595-0.5353 0.15633-1.3027 0.15633-0.87637 0-1.5064-0.13738-0.6253-0.13738-1.0185-0.30792v-1.549h0.18475q0.4074 0.24633 0.97112 0.42634 0.56845 0.18001 1.0374 0.18001 0.27476 0 0.59688-0.04264 0.32213-0.04737 0.54477-0.19896 0.17528-0.11843 0.2795-0.28423 0.10421-0.17054 0.10421-0.48793 0-0.30792-0.14211-0.47372-0.14212-0.17054-0.37424-0.2416-0.23212-0.07579-0.55898-0.08053-0.32686-0.0095-0.60635-0.0095h-0.38845v-1.2601h0.40266q0.36949 0 0.65372-0.02369t0.48319-0.10896q0.20844-0.09001 0.31265-0.23686 0.10422-0.15159 0.10422-0.44056 0-0.21317-0.10895-0.34108-0.10896-0.13264-0.27476-0.20843-0.18475-0.08527-0.43581-0.11369-0.25107-0.02842-0.43109-0.02842-0.44529 0-0.96637 0.15633-0.52109 0.15159-1.009 0.44056h-0.17527v-1.5301q0.38845-0.15633 1.0564-0.29844 0.66794-0.14685 1.3548-0.14685 0.66794 0 1.1701 0.11843 0.50214 0.11369 0.829 0.30792 0.38845 0.23212 0.57794 0.56372 0.18948 0.3316 0.18948 0.77689 0 0.58741-0.36476 1.0516-0.36476 0.4595-0.96164 0.58741v0.06632q0.2416 0.03316 0.51161 0.13264 0.27002 0.09948 0.49267 0.28897z"/>
   <path d="m174.18 46.259h-3.245v1.3122h3.0081v1.3643h-3.0081v3.0128h-1.8096v-7.0536h5.0545z"/>
   <path d="m182.34 51.949h-1.8096v-4.7229l-1.3075 3.0649h-1.2553l-1.3074-3.0649v4.7229h-1.7148v-7.0536h2.1128l1.5869 3.5386 1.5822-3.5386h2.1128z"/>
  </g>
 </g>
</svg>
