<svg xmlns="http://www.w3.org/2000/svg" height="271.52" width="600" viewBox="0 0 158.75 71.84">
    <g stroke-width=".815" fill="#d82a5f">
        <path d="M62.834 12.64L50.285 32.998c-.407.57-.57 1.71-.489 2.362l3.83 29.07c.081.733.733 1.222 1.467 1.14l14.015-1.872c.733-.082 1.222-.733 1.14-1.466l-6.518-49.51c-.163-.652-.57-.733-.897-.082M56.071 12.47l-17.356 2.28c-.733.081-1.548.652-1.956 1.303l-17.275 28.42c-.326.57-.733.57-.814-.163l-3.341-25.162c-.082-.733-.734-1.221-1.467-1.14L1.15 19.718c-.733.082-1.222.733-1.14 1.466l6.518 49.51c.081.733.733 1.222 1.467 1.14l12.793-1.71c.733-.081 1.548-.651 1.955-1.222l33.98-55.38c.326-.732.082-1.14-.652-1.058M124.767 3.43l-17.112 2.28c-.733.082-1.548.652-1.956 1.222L88.343 35.35c-.407.57-.733.488-.814-.163l-3.341-25.162c-.082-.733-.734-1.222-1.467-1.14l-12.793 1.791c-.733.082-1.222.733-1.14 1.466l6.518 49.43c.081.732.733 1.22 1.467 1.14l12.793-1.711c.733-.081 1.548-.651 1.955-1.222l33.816-55.373c.408-.651.082-1.058-.57-.977M151.027.01a1.53 1.53 0 0 0-.27.005L133.4 2.295c-.733.081-1.548.651-1.955 1.303L97.547 58.97c-.408.57-.081 1.058.57.895l17.276-2.28c.733-.08 1.547-.651 1.955-1.303l4.89-8.061 20.208-2.687.896 7.003c.082.733.734 1.221 1.467 1.14l12.793-1.71c.733-.082 1.222-.733 1.14-1.466L152.225.992c-.071-.5-.58-.936-1.196-.983zm-11.994 21.289c.153.03.275.214.316.54l1.467 10.83-9.779 1.303 7.497-12.296c.163-.285.346-.407.499-.377z"/>
    </g>
</svg>
