<svg version="1.1" viewBox="0 0 799.45 350.24" xml:space="preserve" xmlns="http://www.w3.org/2000/svg">
 <g transform="matrix(1.0007 0 0 1.0007 .00078835 0)" fill="#373636">
  <polygon transform="matrix(9.915,0,0,9.915,-888.6,0)" points="117 35.3 105 0.1 105.2 0 117.2 35.3" stroke-width=".10079"/>
  <path d="m155.45 174.5c-8.9235-6.9405-12.89 0-17.847 0-4.9575 0-8.9235-7.932-11.898-5.949-6.9405 2.9745 2.9745 15.864 6.9405 17.847s7.932 3.966 8.9235 4.9575c4.9575 1.983 7.932 5.949 7.932 11.898v5.949c-1.983 10.907-20.822 19.83-31.728 12.89-4.9575-2.9745-9.915-7.932-10.907-15.864-2.9745-13.881-12.89-23.796-15.864-37.677-1.983-7.932-2.9745-16.856-5.949-24.788-1.983-8.9235-4.9575-16.856-5.949-24.788-1.983-6.9405-4.9575-17.847-7.932-24.788-9.915-26.771-14.873-24.788-14.873-24.788s3.966 6.9405 16.856 72.38c0.9915 2.9745 4.9575 30.737 8.9235 40.652 0.9915 2.9745 2.9745 10.907 4.9575 13.881 3.966 8.9235 15.864 22.805 15.864 35.694 0 6.9405 0.9915 12.89 0.9915 18.839 0 1.983 0.9915 7.932 1.983 10.907 2.9745 7.932 24.788 32.72 48.584 32.72v-18.839c-23.796 0-45.609-12.89-45.609-14.873 0-0.9915 0.9915-9.915 2.9745-13.881 2.9745-7.932 8.9235-14.873 18.839-15.864 10.907-0.9915 17.847 1.983 23.796 1.983z" stroke-width=".99932"/>
  <path d="m54.315 106.09c-0.99151 13.881-22.805 33.711-29.745 45.609-2.9745 5.949-7.932 16.856-8.9235 22.805-2.9745 16.856 0.9915 27.762 4.9575 37.677 6.9405 16.856-0.9915 23.796 4.9575 19.83 6.9405-5.949 5.949-18.839 4.9575-27.762 0-6.9405-0.9915-14.873 0-22.805 1.983-14.873 10.907-30.737 18.839-42.635 9.915-12.89 5.949-26.771 4.9575-32.72" stroke-width=".99932"/>
  <path d="m58.281 145.75s1.983 10.907-7.932 39.66c-25.779 75.354 23.796 82.295 37.677 100.14 0 0 4.9575-7.932-16.856-31.728-7.932-8.9235-15.864-28.754-8.9235-56.516 8.9235-40.652-3.966-51.558-3.966-51.558" stroke-width=".99932"/>
  <path d="m9.6976 97.167c-0.9915-3.966-1.983-7.932-0.9915-11.898 0.9915-17.847 16.856-24.788 20.822-27.762 0 0 6.9405-4.9575 7.932-9.915 0 0 6.9405 18.839-9.915 29.745-7.932 4.9575-13.881 10.907-17.847 19.83" stroke-width=".99932"/>
  <path d="m50.349 79.32c0.9915 1.983 7.932 11.898-19.83 33.711-26.771 22.805-18.839 38.669-18.839 38.669s-28.754-15.864 3.966-43.626c33.711-27.762 26.771-33.711 26.771-33.711s4.9575 0 7.932 4.9575" stroke-width=".99932"/>
  <path d="m85.052 88.244c4.9575 0.9915 7.932 14.873 18.839 18.839 7.932 1.983 16.856 0.9915 17.847 5.949-3.966 1.983-0.9915 8.9235 2.9745 6.9405 3.966-7.932 4.9575-41.643-39.66-31.728zm14.873 6.9405c0-0.99151 0.9915 0 1.983-0.99151 0.99151-0.9915 2.9745-2.9745 4.9575-3.966h4.9575c0.9915 0 0 2.9745 0 2.9745-0.9915 0.9915-5.949-0.9915-5.949 2.9745 0 4.9575 6.9405 0 10.907 0 1.983 12.89-19.83 9.915-16.856-0.9915z" stroke-width=".99932"/>
 </g>
 <path d="m300.35 178.9v-97.846c0-15.303 16.436-27.664 36.004-27.664h425.57c20.157 0 36.589 12.357 36.589 27.664l0.3944 97.846 0.3945 96.081c0 15.303-17.415 28.104-37.572 28.104h-425.37c-19.763 0-36.199-12.361-36.199-27.368v-97.406z" fill="#00a650" stroke-width="2.2219"/>
 <path d="m300.35 178.9v-97.846c0-15.303 16.436-27.664 36.004-27.664h425.57c20.157 0 36.589 12.357 36.589 27.664l0.3944 97.846 0.3945 96.081c0 15.303-17.415 28.104-37.572 28.104h-425.37c-19.763 0-36.199-12.361-36.199-27.368v-97.406z" fill="none" stroke="#00a650" stroke-miterlimit="3.863" stroke-width=".30582"/>
 <path d="m789.9 178.46 0.1944 96.817c0 11.332-13.105 21.191-28.178 21.191h-425.57c-14.873 0-27.004-9.859-27.004-21.191l0.1948-96.225v-99.467c0-10.743 11.152-19.426 25.242-19.426h427.13c14.873 0 28.178 9.1225 28.178 20.75v97.55z" fill="#fff" stroke-width="2.2219"/>
 <path d="m789.9 178.46 0.1944 96.817c0 11.332-13.105 21.191-28.178 21.191h-425.57c-14.873 0-27.004-9.859-27.004-21.191l0.1948-96.225v-99.467c0-10.743 11.152-19.426 25.242-19.426h427.13c14.873 0 28.178 9.1225 28.178 20.75v97.55z" fill="none" stroke="#fff" stroke-miterlimit="3.863" stroke-width=".5097"/>
 <path d="m781.88 178.32 0.1947 96.813c0 7.9494-9.3945 14.866-19.763 14.866h-425.58c-10.368 0-19.173-6.6208-19.173-14.57v-96.521l0.19481-97.846c0-7.9457 8.8051-14.57 19.173-14.57h425.77c10.368 0 18.784 6.7688 18.784 14.718l0.3944 97.109z" fill="#00a650" stroke-width="2.2219"/>
 <path d="m781.88 178.32 0.1947 96.813c0 7.9494-9.3945 14.866-19.763 14.866h-425.58c-10.368 0-19.173-6.6208-19.173-14.57v-96.521l0.19481-97.846c0-7.9457 8.8051-14.57 19.173-14.57h425.77c10.368 0 18.784 6.7688 18.784 14.718l0.3944 97.109z" fill="none" stroke="#00a650" stroke-miterlimit="3.863" stroke-width=".5097"/>
 <g transform="matrix(3.7006 0 0 3.7021 317.27 55.378)" fill="#fff">
  <polygon points="29.75 55.721 8.698 55.721 8.698 11.908 29.831 11.908 29.831 17.156 14.965 17.156 14.965 30.396 24.447 30.396 24.447 36.121 15.166 36.081 15.166 50.354 29.75 50.354" stroke-width=".6003"/>
  <polygon points="29.75 55.721 8.698 55.721 8.698 11.908 29.831 11.908 29.831 17.156 14.965 17.156 14.965 30.396 24.447 30.396 24.447 36.121 15.166 36.081 15.166 50.354 29.75 50.354" stroke="#fff" stroke-miterlimit="3.863" stroke-width=".072035"/>
 </g>
 <polygon transform="matrix(4.8701 0 0 3.7008 299.86 53.173)" points="46.866 42.401 56.269 23.555 56.269 42.401" fill="#00a650" stroke-width=".6003"/>
 <polygon transform="matrix(4.8701 0 0 3.7008 299.86 53.173)" points="46.866 42.401 56.269 23.555 56.269 42.401" fill="none" stroke="#00a650" stroke-miterlimit="3.863" stroke-width=".072035"/>
 <g transform="matrix(4.1839 0 0 4.1856 288.87 24.857)" fill="#fff">
  <path d="m51.448 34.774h2.1978c0.90441 0.0181 1.7003-0.26226 2.3877-0.84112 0.83206-0.72352 1.2481-1.646 1.2481-2.7675v-3.8257c-1.5e-5 -1.031-0.33465-1.8902-1.0039-2.5776-0.75973-0.79586-1.6551-1.1938-2.6861-1.1938-1.2843 3.3e-5 -2.3153 0.56078-3.0931 1.6822-0.41604 0.59695-0.62406 1.2934-0.62405 2.0892v1.5466h-5.2638v-0.89538c-2e-6 -1.9716 0.50648-3.6991 1.5194-5.1824 0.81398-1.1938 1.836-2.1344 3.066-2.8218 1.3566-0.77777 2.8128-1.1667 4.3684-1.1667 2.0983 3.8e-5 3.9795 0.66027 5.6436 1.9807 2.243 1.7908 3.3644 4.1875 3.3645 7.1902v3.1745c-2.1e-5 1.3205-0.3437 2.5957-1.031 3.8257-0.52459 0.90445-1.23 1.6732-2.1164 2.3063 0.94059 0.47032 1.7546 1.1848 2.442 2.1435 0.83205 1.23 1.2481 2.6319 1.2481 4.2056v3.9614c-2.1e-5 2.1706-0.77783 4.1513-2.3334 5.9421-1.9355 2.2611-4.3865 3.3916-7.353 3.3916-2.9846-1e-6 -5.4537-1.2391-7.4073-3.7172-1.3024-1.6641-1.9536-3.5363-1.9536-5.6165v-1.7365h5.2909v1.7365c-8e-6 1.5194 0.51552 2.7223 1.5466 3.6087 0.75971 0.6331 1.646 0.94965 2.659 0.94965 1.6822 4e-6 2.9032-0.73258 3.6629-2.1978 0.39793-0.75971 0.59691-1.5466 0.59692-2.3606v-3.8529c-1.5e-5 -1.0491-0.3437-1.9716-1.031-2.7675-0.83209-0.95868-1.8993-1.438-3.2017-1.438h-2.1435z" fill="#fff" stroke-width=".49787"/>
 </g>
 <path d="m609.5 103.12v157.33h-22.467v-120.1h-13.134v-13.37l13.134-23.859z" fill="#fff"/>
 <path d="m690.15 236.01h-58.414v-20.286l51.732-112.61h29.15v112.61h6.7977v20.286h-6.7977v24.436h-22.467zm0-20.286v-73.537l-33.873 73.537z" fill="#fff"/>
</svg>
