<svg version="1.1" viewBox="0 0 799.45 350.24" xml:space="preserve" xmlns="http://www.w3.org/2000/svg">
 <g transform="matrix(1.0007 0 0 1.0007 .00078835 0)" fill="#373636">
  <polygon transform="matrix(9.915,0,0,9.915,-888.6,0)" points="117 35.3 105 0.1 105.2 0 117.2 35.3" stroke-width=".10079"/>
  <path d="m155.45 174.5c-8.9235-6.9405-12.89 0-17.847 0-4.9575 0-8.9235-7.932-11.898-5.949-6.9405 2.9745 2.9745 15.864 6.9405 17.847s7.932 3.966 8.9235 4.9575c4.9575 1.983 7.932 5.949 7.932 11.898v5.949c-1.983 10.907-20.822 19.83-31.728 12.89-4.9575-2.9745-9.915-7.932-10.907-15.864-2.9745-13.881-12.89-23.796-15.864-37.677-1.983-7.932-2.9745-16.856-5.949-24.788-1.983-8.9235-4.9575-16.856-5.949-24.788-1.983-6.9405-4.9575-17.847-7.932-24.788-9.915-26.771-14.873-24.788-14.873-24.788s3.966 6.9405 16.856 72.38c0.9915 2.9745 4.9575 30.737 8.9235 40.652 0.9915 2.9745 2.9745 10.907 4.9575 13.881 3.966 8.9235 15.864 22.805 15.864 35.694 0 6.9405 0.9915 12.89 0.9915 18.839 0 1.983 0.9915 7.932 1.983 10.907 2.9745 7.932 24.788 32.72 48.584 32.72v-18.839c-23.796 0-45.609-12.89-45.609-14.873 0-0.9915 0.9915-9.915 2.9745-13.881 2.9745-7.932 8.9235-14.873 18.839-15.864 10.907-0.9915 17.847 1.983 23.796 1.983z" stroke-width=".99932"/>
  <path d="m54.315 106.09c-0.99151 13.881-22.805 33.711-29.745 45.609-2.9745 5.949-7.932 16.856-8.9235 22.805-2.9745 16.856 0.9915 27.762 4.9575 37.677 6.9405 16.856-0.9915 23.796 4.9575 19.83 6.9405-5.949 5.949-18.839 4.9575-27.762 0-6.9405-0.9915-14.873 0-22.805 1.983-14.873 10.907-30.737 18.839-42.635 9.915-12.89 5.949-26.771 4.9575-32.72" stroke-width=".99932"/>
  <path d="m58.281 145.75s1.983 10.907-7.932 39.66c-25.779 75.354 23.796 82.295 37.677 100.14 0 0 4.9575-7.932-16.856-31.728-7.932-8.9235-15.864-28.754-8.9235-56.516 8.9235-40.652-3.966-51.558-3.966-51.558" stroke-width=".99932"/>
  <path d="m9.6976 97.167c-0.9915-3.966-1.983-7.932-0.9915-11.898 0.9915-17.847 16.856-24.788 20.822-27.762 0 0 6.9405-4.9575 7.932-9.915 0 0 6.9405 18.839-9.915 29.745-7.932 4.9575-13.881 10.907-17.847 19.83" stroke-width=".99932"/>
  <path d="m50.349 79.32c0.9915 1.983 7.932 11.898-19.83 33.711-26.771 22.805-18.839 38.669-18.839 38.669s-28.754-15.864 3.966-43.626c33.711-27.762 26.771-33.711 26.771-33.711s4.9575 0 7.932 4.9575" stroke-width=".99932"/>
  <path d="m85.052 88.244c4.9575 0.9915 7.932 14.873 18.839 18.839 7.932 1.983 16.856 0.9915 17.847 5.949-3.966 1.983-0.9915 8.9235 2.9745 6.9405 3.966-7.932 4.9575-41.643-39.66-31.728zm14.873 6.9405c0-0.99151 0.9915 0 1.983-0.99151 0.99151-0.9915 2.9745-2.9745 4.9575-3.966h4.9575c0.9915 0 0 2.9745 0 2.9745-0.9915 0.9915-5.949-0.9915-5.949 2.9745 0 4.9575 6.9405 0 10.907 0 1.983 12.89-19.83 9.915-16.856-0.9915z" stroke-width=".99932"/>
 </g>
 <g transform="matrix(3.6997 0 0 3.7002 299.95 53.196)" stroke-width=".79019">
  <path d="m0.1 33.974v-26.439c0-4.135 3.375-7.475 7.393-7.475h87.384c4.139 0 7.513 3.339 7.513 7.475l0.081 26.439 0.081 25.962c0 4.135-3.576 7.594-7.715 7.594h-87.344c-4.058 0-7.433-3.34-7.433-7.395v-26.32z" fill="#00a650" stroke-width=".79019"/>
  <path d="m0.1 33.974v-26.439c0-4.135 3.375-7.475 7.393-7.475h87.384c4.139 0 7.513 3.339 7.513 7.475l0.081 26.439 0.081 25.962c0 4.135-3.576 7.594-7.715 7.594h-87.344c-4.058 0-7.433-3.34-7.433-7.395v-26.32z" fill="none" stroke="#00a650" stroke-miterlimit="3.863" stroke-width=".094823"/>
  <path d="m100.62 33.854 0.04 26.161c0 3.062-2.691 5.726-5.786 5.726h-87.384c-3.054 0-5.545-2.664-5.545-5.726l0.04-26.001v-26.877c0-2.903 2.29-5.249 5.183-5.249h87.706c3.054 0 5.786 2.465 5.786 5.607v26.359z" fill="#fff" stroke-width=".79019"/>
  <path d="m100.62 33.854 0.04 26.161c0 3.062-2.691 5.726-5.786 5.726h-87.384c-3.054 0-5.545-2.664-5.545-5.726l0.04-26.001v-26.877c0-2.903 2.29-5.249 5.183-5.249h87.706c3.054 0 5.786 2.465 5.786 5.607v26.359z" fill="none" stroke="#fff" stroke-miterlimit="3.863" stroke-width=".15804"/>
  <path d="m98.976 33.815 0.04 26.16c0 2.148-1.929 4.017-4.058 4.017h-87.386c-2.129 0-3.937-1.789-3.937-3.937v-26.081l0.04-26.439c0-2.147 1.808-3.937 3.937-3.937h87.426c2.129 0 3.857 1.829 3.857 3.977z" fill="#00a650" stroke-width=".79019"/>
  <path d="m98.976 33.815 0.04 26.16c0 2.148-1.929 4.017-4.058 4.017h-87.386c-2.129 0-3.937-1.789-3.937-3.937v-26.081l0.04-26.439c0-2.147 1.808-3.937 3.937-3.937h87.426c2.129 0 3.857 1.829 3.857 3.977z" fill="none" stroke="#00a650" stroke-miterlimit="3.863" stroke-width=".15804"/>
  <g transform="translate(5.4415)">
   <path d="m14.965 17.156v13.24h9.482v5.725l-9.281-0.04v14.273h14.584v5.367h-21.052v-43.813h21.133v5.248z" fill="#fff" stroke-width=".79019"/>
   <path d="m14.965 17.156v13.24h9.482v5.725l-9.281-0.04v14.273h14.584v5.367h-21.052v-43.813h21.133v5.248z" fill="none" stroke="#fff" stroke-miterlimit="3.863" stroke-width=".094823"/>
  </g>
  <path d="m56.269 42.401h-9.403l9.403-18.846z" fill="#00a650" stroke-width=".79019"/>
  <path d="m56.269 42.401h-9.403l9.403-18.846z" fill="none" stroke="#00a650" stroke-miterlimit="3.863" stroke-width=".094823"/>
  <g fill="#fff" stroke-width=".79019">
   <path d="m55.562 11.191v44.656h-6.3794v-34.089h-3.7295v-3.7949l3.7295-6.772z"/>
   <path d="m80.098 16.949h-9.749v2.9116h-6.3794v-8.6694h22.966v5.7578l-16.586 38.898h-6.5757z"/>
  </g>
 </g>
</svg>
