<svg width="800" height="349.29" version="1.1" viewBox="0 10 800 349.29" xml:space="preserve" xmlns="http://www.w3.org/2000/svg"><style type="text/css">
	.st0{fill:#4D4D4D;}
	.st1{fill:#ED1C24;}
	.st2{fill:#27AAE1;}
</style><g fill="#4d4d4d"><path class="st0" d="m264.44 313.42c0-10.765-7.9566-21.062-22.466-21.062h-26.21v65.993h16.381v-24.338h5.6164l11.701 24.338h18.721l-14.509-27.614c5.1484-2.8082 10.765-7.9566 10.765-17.317zm-23.402 7.0206h-8.8927v-13.105h8.8927c4.2123 0 7.0206 3.2763 7.0206 6.5525 0 3.2762-2.3402 6.5525-7.0206 6.5525z" stroke-width="4.6804"/><path class="st0" d="m313.58 292.36-23.87 65.993h16.849l3.2762-9.8288h20.126l3.2763 9.8288h16.849l-23.87-65.993zm0.93607 42.591 6.0845-17.785 5.6164 17.785z" stroke-width="4.6804"/><polygon class="st0" transform="matrix(4.6804 0 0 4.6804 -7.0206 -34.33)" points="73 64.9 69.7 64.9 68.7 68.4 70.7 68.4"/><g stroke-width="4.6804"><path class="st0" d="m419.36 298.91c-4.6804-4.6804-10.765-6.5525-17.785-6.5525h-24.338v65.993h24.338c7.0206 0 13.105-1.8721 17.785-6.5525 7.4886-7.4886 7.0206-15.913 7.0206-26.678-0.46804-10.297 0.46803-18.721-7.0206-26.21zm-11.233 41.187c-1.4041 2.3402-3.7443 3.7443-7.9566 3.7443h-7.0206v-36.975h7.0206c4.2123 0 6.5525 1.4041 7.9566 3.7443 1.4041 1.8722 1.8721 3.7443 1.8721 14.977 0 11.233-0.46803 12.637-1.8721 14.509z"/><rect class="st0" x="457.74" y="292.36" width="16.381" height="65.993"/><path class="st0" d="m549.01 299.38c-4.6804-4.6804-10.297-7.4886-18.253-7.4886-7.9566 0-13.573 2.8082-18.253 7.4886-7.0206 7.0206-6.5525 15.913-6.5525 26.21 0 9.8288-0.46803 19.19 6.5525 26.21 4.6804 4.6804 10.297 7.4886 18.253 7.4886 7.9566 0 13.573-2.8082 18.253-7.4886 7.0206-7.0206 6.5525-15.913 6.5525-26.21 0-10.297 0-19.658-6.5525-26.21zm-12.169 42.123c-0.93607 1.4041-3.7443 2.8082-6.5525 2.8082s-5.1484-1.4041-6.5525-2.8082c-1.4041-1.8721-2.3402-4.2123-2.3402-15.913 0-12.169 0.93608-14.509 2.3402-16.381 0.93607-1.4041 3.7443-2.8082 6.5525-2.8082s5.1484 1.4041 6.5525 2.8082c1.4041 1.8722 2.3402 4.2123 2.3402 16.381 0 11.701-0.93608 14.041-2.3402 15.913z"/></g></g><g stroke-width="4.6804"><path class="st1" d="m641.21 195.94 1.4041-4.2123c1.8721-5.6164 2.8082-11.701 3.2762-17.317v-8.8927c0-2.8082-0.93607-6.0845-0.93607-8.8927-0.46804-1.4041-0.46804-2.8082-0.93607-4.2123l-1.4041-4.2123c-0.93608-2.8082-1.4041-5.6164-2.8082-7.9566-0.93608-2.8082-2.3402-5.1484-3.7443-7.4886-1.4041-2.3402-2.8082-4.6804-4.2123-7.0206-2.8082-4.2123-6.0845-7.9566-8.8927-11.701l-4.6804-4.6804c-1.4041-1.4041-3.2763-2.8082-4.2123-3.7443-2.8082-2.3402-5.6164-4.2123-7.9566-5.6164-2.3402-1.4041-4.2123-2.8082-5.1484-3.2763-1.4041-0.93607-1.8722-0.93607-1.8722-0.93607-0.46803 0-0.93607-0.46804-1.4041 0-0.46803 0-0.93607 0.93607-0.46803 1.4041 0 0 0.46803 0.46804 0.93607 1.8721 0.46804 1.4041 1.4041 2.8082 2.8082 4.6804 0.93607 2.3402 2.8082 4.6804 3.7443 7.4886 0.46804 1.4041 1.4041 2.8082 2.3402 4.6804 0.46803 0.93608 0.93607 1.4041 1.4041 2.3402 0.46803 0.93607 0.46803 1.8721 0.93607 2.8082 1.4041 3.7443 3.2763 7.4886 4.2123 11.233 0.46804 1.8721 1.4041 4.2123 1.8722 6.0845 0.46803 2.3402 0.93607 4.2123 1.4041 6.5525 0.46803 2.3402 0.46803 4.2123 0.93607 6.5525 0 2.3402 0.46804 4.2123 0.46804 6.5525v6.5525c-0.46804 2.3402-0.46804 4.2123-0.46804 6.5525-0.46804 2.3402-0.93607 4.2123-1.4041 6.0845-0.46804 2.3402-0.93607 4.2123-1.8722 6.0845-0.93607 4.2123-3.2762 7.4886-4.6804 11.233-2.3402 3.2762-3.7443 7.0206-6.0845 9.8288-0.93607 1.4041-1.8722 3.2762-3.2763 4.6804-0.93607 1.4041-2.3402 2.8082-3.2762 4.2123-0.46804 0.46804-0.46804 0.93608-0.93608 1.4041-0.93607 0.46804-1.8721 0.93608-3.2762 0.93608-4.6804 0.46803-3.2763-9.3607-3.7443-14.041-0.46803-6.0845 0.46804-11.701 1.4041-17.785 3.7443-17.785-3.2762-25.742-22.934-31.358-4.6804-1.4041-6.5525-3.2763-7.0206-7.4886-1.8722-9.3607-8.8927-15.445-19.19-18.721-21.998-7.0206-42.123-3.7443-57.569 11.233-7.9566 7.9566-13.105 17.785-19.658 26.678-7.9566 11.233-15.445 23.402-24.338 33.699-7.9566 9.3607-17.317 4.2123-18.253-5.6164-0.46804-5.1484-1.4041-11.233-1.8722-15.913-1.4041-12.169-2.3402-23.87-5.1484-35.571-4.2123-16.381-16.849-23.87-36.039-22.934-16.849 0.93607-30.422 7.9566-38.379 21.53-5.1484 9.3607-8.8927 19.658-13.573 30.422-1.4041-7.0206-2.3402-13.105-3.7443-19.19-2.3402-8.8927-8.8927-13.105-19.19-12.169-12.169 1.4041-15.913 10.297-20.126 18.721-8.4247 17.317-16.849 35.103-26.678 51.484-5.6164 9.8288-29.486 21.53-35.103-19.658-5.1484-38.379 12.637-105.78 21.998-131.99 5.1484-14.509 0-18.253-14.977-14.509-16.849 4.2123-24.338 8.4247-29.018 24.806-26.21 88.927-12.637 144.16-9.8288 151.64 5.6164 14.509 13.573 27.614 31.358 30.89 19.19 3.7443 32.295-5.1484 42.123-19.19 7.9566-11.701 14.509-24.338 22.466-37.443 0.46804 3.2762 0.46804 6.0845 0.93607 8.4247 0.93608 10.297 1.8722 20.594 2.3402 30.89 0.46803 6.0845 3.7443 8.8927 9.8288 10.297 14.509 2.3402 28.082-5.1484 31.826-19.19 3.7443-12.637 6.5525-25.742 10.765-37.911 3.2762-8.8927 7.0206-17.785 11.701-26.21 2.3402-3.7443 8.4247-8.4247 11.701-7.9566 3.2763 0.46804 7.4886 7.0206 8.4247 11.233 1.8722 7.4886 1.4041 14.977 2.8082 22.466 1.4041 11.701 2.8082 23.87 5.6164 35.571 3.2763 12.169 12.169 17.317 25.274 17.785 16.849 0.46804 27.146-8.8927 37.443-19.19 4.6804-5.1484 8.8927-11.233 14.041-17.317 2.8082 19.658 11.701 34.167 31.826 38.379 23.87 5.1484 41.187-4.6804 52.888-25.274 0.93607 4.2123 1.4041 7.0206 2.3402 10.297 3.2763 14.041 11.233 20.594 25.742 22.466 5.6164 0.93608 11.233 0.46804 15.913-0.93607 1.4041 0 2.8082 0 3.7443-0.46804 0 0 0.46804-0.46803 1.8722-0.46803 0.93607-0.46804 2.8082-0.93608 5.1484-2.3402 0.93607-0.46803 2.3402-0.93607 3.7443-1.4041 1.4041-0.46803 2.8082-1.4041 4.2123-2.8082 3.2763-1.8721 7.0206-4.2123 10.297-7.0205 1.4041-1.4041 3.2763-2.8082 5.1484-4.2123 1.8722-1.4041 3.2763-3.7443 5.1484-5.1484 3.7443-3.7443 6.5525-7.9566 9.3607-12.637 1.4041-2.3402 2.8082-5.1484 3.7443-7.4886 0.46803-4.2123 0.93607-5.6164 1.4041-7.0206zm-103.44-2.8082c-4.6804 7.4886-13.105 13.573-21.062 19.19-5.6164 3.7443-10.765 0.46804-13.573-5.6164-9.3607-19.658 10.297-52.42 33.699-53.824 5.1484-0.46803 10.297 1.8722 15.913 3.2763-5.1484 14.041-8.4247 26.21-14.977 36.975z" fill="#ed1c24"/><path class="st2" d="m701.59 228.24c6.0845-7.4886 11.233-15.913 14.977-24.806 4.2123-9.3607 6.5525-19.19 7.4886-29.486 2.3402-20.126-2.8082-40.719-12.637-58.037-9.8288-17.317-24.806-31.358-42.123-41.187-7.4886-4.2123-14.977-7.4886-22.934-9.8288-0.46804 0-0.93607-0.46804-1.4041-0.46804-1.8722-0.46804-3.2763 1.4041-2.3402 3.2763 0.93607 1.8721 2.3402 3.7443 3.7443 5.1484 5.6164 7.4886 11.701 15.445 16.849 23.402 5.6164 8.4247 10.297 17.317 14.977 26.678 7.9566 16.849 10.765 36.507 7.9566 55.228-3.2763 20.126-12.637 38.847-24.338 55.228-5.6164 7.9566-12.169 14.977-19.19 21.53-1.4041 1.4041-3.2763 2.8082-4.6804 4.2123-0.93607 0.93607-2.3402 2.3402-0.93607 3.7443 0.93607 0.93607 2.3402 0.93607 3.7443 0.46804 2.3402 0 4.2123-0.46804 6.5525-0.93608 10.765-2.3402 21.062-6.5525 30.422-12.637 8.4247-5.1484 16.849-13.105 23.87-21.53 2.3402-3.2763-2.3402 2.8082 0 0z" fill="#27aae1"/><path class="st2" d="m794.73 123.4c-2.8082-7.4886-5.1484-15.445-8.8927-22.466-4.6804-7.9566-9.3607-15.913-15.445-22.934-12.637-15.445-28.55-27.146-46.336-36.507-7.9566-4.2123-16.849-7.4886-25.742-10.297-1.4041-0.46804-3.7443-1.4041-5.1484-0.93607-2.3402 1.4041-0.46804 3.7443 0.93607 4.6804 12.169 13.105 25.742 25.742 36.039 39.783 2.8082 4.2123 5.6164 7.9566 8.4247 12.169s5.1484 8.4247 7.9566 12.637c4.6804 8.4247 8.4247 18.253 11.233 27.614 4.6804 16.849 5.6164 36.039 1.8722 53.356-4.2123 18.253-11.701 36.039-22.934 51.484-5.6164 7.9566-12.169 15.445-19.19 22.934-3.2763 3.7443-7.0206 7.0206-10.765 10.297-3.2763 2.8082-6.5525 6.0845-10.297 8.4247-1.4041 0.93608-3.2762 2.3402-4.6804 3.7443-0.93608 0.46803-2.3402 1.4041-3.2763 2.8082s0.46804 3.2762 2.3402 2.8082c1.4041 0 2.8082-0.46804 4.2123-0.46804 8.8927-1.4041 17.785-3.7443 26.21-7.4886 17.785-7.4886 33.699-19.19 46.804-33.699 12.637-14.509 22.466-31.826 27.614-50.548 5.6164-20.126 5.6164-41.655 0.93608-61.781l-1.8722-5.6164c-1.8722-5.6164 3.2763 10.765 0 0z" fill="#27aae1"/><path class="st1" d="m190.02 23.239c14.509-14.041 16.849-14.509 7.0206-12.169-21.53 4.6804-86.119 38.379-73.014 193.3 0.93607 11.701-1.8722 14.977-9.8288 11.233-12.637-6.0845-18.253-13.105-28.082-28.082-9.8288-14.509-17.317-34.167-22.934-58.973-10.297-46.336-8.4247-52.42-10.765-74.886-1.8722-16.381-17.317-23.87-30.422-27.146-17.785-4.6804-21.998 2.8082-21.998 14.041 0.46803 24.806 7.0206 79.566 35.571 143.22 21.062 46.336 63.653 79.566 101.1 84.715 18.721 2.8082 25.742-3.7443 20.594-31.358-16.849-91.735-5.6164-176.45 32.763-213.89z" fill="#ed1c24"/></g></svg>
