<svg width="800" height="307.38" version="1.0" xmlns="http://www.w3.org/2000/svg">
 <link href="" rel="stylesheet" type="text/css"/>
 <style type="text/css"/>
 <g transform="translate(122.35 -377.13)">
  <g transform="matrix(.54198 0 0 .54198 -113.99 809.79)">
   <g transform="translate(577.18 -990.06)">
    <path d="m-295.73 370.89s3.0971-11.81 15.818-24.146c26.706-25.898 61.324-69.263 88.499-79.779 9.3182-3.6059 24.523-4.7657 33.305 0 8.7282 4.7367 11.482 15.375 10.19 26.773-2.0441 18.036-32.156 50.533-32.156 50.533l-59.91 68.405s47.214-2.6475 68.236-1.3877c9.4856 0.56843 26.274 5.8783 27.754 15.265 1.5141 9.6003-14.239 18.021-22.203 23.591-15.589 10.902-54.359 24.979-54.359 24.979v12.489s21.182 7.4788 30.53 9.714c17.64 4.2181 38.472 3.119 56.203 6.9386 10.958 2.3607 27.923 7.9995 37.468 13.877 9.0379 5.5654 19.109 15.064 22.897 24.979 4.7547 12.445 2.7754 44.407 2.7754 44.407l-238.69 43.019s-18.643 52.82-32.002 72.161c-7.1957 10.418-18.397 26.189-31.02 27.18-6.5624 0.51489-15.023-4.0294-16.078-10.527-3.1885-19.644 1.3877-73.549 1.3877-73.549l-31.918-62.447 18.04-61.06-1.3877-2.7754-69.386 37.468s-31.988 14.751-47.182 19.176c-11.654 3.3935-35.675 10.187-47.113 6.1257-9.9869-3.5458-14.055-12.735-18.11-22.526-2.5491-6.154-1.7565-15.778 0-22.203 5.6107-20.524 21.7-45.378 36.081-61.06 4.8409-5.279 12.941-10.841 19.428-13.877 8.9628-4.1945 22.124-6.9065 31.918-8.3263 25.146-3.6457 84.651-2.7754 84.651-2.7754s-56.04-31.213-75.343-51.261c-7.5298-7.8204-20.198-19.701-19.428-30.53 0.27209-3.8286 4.685-8.5003 8.3263-9.714 10.924-3.6413 32.318 4.5572 43.847 8.3263 16.904 5.5267 48.149 19.344 48.149 19.344l22.203 11.102s-30.369-27.704-40.669-41.863c-6.6621-9.1582-17.663-33.363-17.663-33.363l-56.913-84.389s-14.083-18.189-16.682-27.475c-0.87255-3.1184-3.4055-9.9694-1.0408-12.182 3.2317-3.0234 11.147 0.84275 15.76 2.369 13.499 4.4668 31.099 12.696 42.194 21.588 29.404 23.564 61.282 48.839 95.183 72.614 6.8212 4.7838 14.719 23.55 14.719 23.55l2.9438 21.588s0.33235-66.997 0-95.183c-0.0768-6.5159 2.523-15.751 6.8688-20.607 2.811-3.1406 9.045-3.2714 13.247-2.9438 5.291 0.41246 10.779 2.8359 14.228 6.8689 2.7397 3.203 4.8159 8.6801 5.8876 12.756 4.5813 17.425 0.0263 42.982 1.4719 61.329 1.6033 20.348 9.0402 67.434 9.0402 67.434z" fill="#fff" fill-rule="evenodd" stroke="#407499" stroke-width="13.292"/>
    <g transform="translate(-605.1 259.05)">
     <path d="m196.36 215.79s-16.098-15.402-12.489-33.305c3.6256-17.988 27.754-22.203 27.754-22.203s-3.5349-22.223 12.489-35.387c16.368-13.446 39.55-4.857 39.55-4.857s15.463-25.466 43.019-19.428c15.953 3.4956 25.673 29.836 25.673 29.836s26.907-0.42537 38.856 16.653c10.225 14.613 2.7754 43.019 2.7754 43.019s15.09 11.587 14.571 32.611c-0.47116 19.562-16.653 29.836-16.653 29.836l-48.57 15.265-6.2447 61.753-36.081-27.061-63.141-2.7754 18.04-21.51s-25.598 0.2968-40.244-22.203c-13.336-20.488 0.69386-40.244 0.69386-40.244z" fill="#407499" fill-rule="evenodd"/>
     <ellipse transform="matrix(1.2856 0 0 1.1571 -84.381 -33.299)" cx="289.47" cy="207.26" rx="31.4" ry="41.458" fill="#ff0"/>
     <ellipse transform="matrix(.94575 -.59155 .62943 .88883 -80.289 211.73)" cx="337.31" cy="171.44" rx="14.474" ry="23.305" fill="#ff0"/>
     <ellipse transform="matrix(.94575 -.59155 .62943 .88883 -205.4 290.72)" cx="337.31" cy="171.44" rx="14.474" ry="23.305" fill="#ff0"/>
     <ellipse transform="matrix(1.0627 0 0 1.0486 -24.109 -11.706)" cx="361.11" cy="220.75" rx="15.21" ry="19.625" fill="#ff0"/>
     <ellipse transform="matrix(.69496 .80395 -.79328 .68574 166.53 -295.02)" cx="361.11" cy="220.75" rx="15.21" ry="19.625" fill="#ff0"/>
     <ellipse transform="matrix(.018943 1.0619 -1.0855 .018044 529.36 -258.45)" cx="361.11" cy="220.75" rx="15.21" ry="19.625" fill="#ff0"/>
     <ellipse transform="matrix(-.73533 .71885 -.7238 -.76292 640.7 100.15)" cx="361.11" cy="220.75" rx="15.21" ry="19.625" fill="#ff0"/>
     <ellipse transform="matrix(.76751 -.80951 .83193 .70292 -130.44 436.34)" cx="337.31" cy="171.44" rx="14.474" ry="23.305" fill="#ff0"/>
    </g>
   </g>
   <path d="m1312.2-727.28c-3.5144 0.0232-6.7554 0.79486-9.5 2.5625-20.832 13.417-4.1976 60.311-13.719 81.438-8.6591 19.213-30.074 30.847-61.844 33.375-31.651 2.5186-66.492-14.374-101.06-31.406-6.387-3.1468-13.787-1.7867-18.625 3.4375-4.2051 4.541-6.2539 15.228-2.4687 20.125 29.291 37.893 128.85 49.046 107.44 89.281-32.675 61.392-82.518 141.85-111.97 175.56-9.4752 10.846-185.96-146.93-194.91-131.72 23.691 102.55 207.27 240.1 213.19 240.28 18.168 0.5532 298.44 19.042 300.25-7.9062 0.7501-11.141-251.46-37.269-227.66-74.562 0 0 23.934-82.857 41.719-115.31 12.762-23.289 26.312-64.891 52-71.625 48.283 2.5876 109.09 88.254 134.44 46.125 17.135-28.477-52.085-53.85-74.594-69.688-19.308-13.801-34.612-43.361-30.406-66.719 5.2756-29.302 73.056-41.857 73.594-71.625 0.2634-14.592-24.846-28.673-37.281-36.312-9.9341-6.103-26.042-15.396-38.594-15.312zm24.219 32.688c2.1099-6e-3 4.104 0.51782 5.875 1.6562 7.0844 4.5537 7.7652 17.048 1.5 27.875-6.2651 10.827-17.103 15.929-24.187 11.375-7.0844-4.5537-7.7339-17.048-1.4688-27.875 4.6988-8.1206 11.952-13.013 18.281-13.031z" fill="#ff0" fill-rule="evenodd" stroke="#407499" stroke-width="12.992"/>
   <g transform="translate(-23.55 -898.84)">
    <path d="m1062.6 424.19c-20.141 1.4298-40.336 0.10373-60.5 0.65625 0.3972 13.86-0.2274 28.379 0.031 41.844-17.8-8.6048-38.384-7.9696-57.656-7.125-11.984 1.7744-23.706 6.5867-32.719 14.75 0.8399-5.7899-4.005-11.801-10.312-9.9375h-59.375c0.6283 2.7668-3.598-0.78597-5.4062-0.3125-8.8402-0.56427-17.646 1.2504-26.5 0.3125h-31.75c0.27725 5.5691 0.46525 11.143 0.5 16.719-13.979-19.309-42.749-25.312-63.531-13.688-3.4288 1.5662-7.6916 5.5096-10.906 1.375-14.407-8.733-32.648-8.0513-48.25-3.5625-10.647-2.7748-21.787 0.44074-32.562-0.78125-9.0042-0.32675-18.218 0.17932-27.094-0.0937-19.7-5.8631-41.439-7.6217-61.424-2.5172-2.7501 1.071-5.1852 2.2716-6.9196-0.51406-5.4214-2.5715-11.793 0.37062-17.562-0.82812-19.815 0.23172-40.095-1.1763-59.625 0.73437-3.787 5.0096-1.406-4.3492-2.0625-6.9062v-29.531h-69.125c0 55.083-5.2039 110.17 0 165.25h68.25c1.0056-1.5936 0.14448-7.6158 2.3438-3.5312 5.1162 6.5624 14.007 2.5672 20.906 3.5312 28.979-0.23754 57.973 0.20351 86.938 0.375 13.991-0.92845 28.404-4.7595 39.125-14.125-1.1816 4.9755-0.79417 13.452 6.0624 13.668 21.093 0.28472 42.188-0.046 63.281 0.0816-0.13299-1.422 4.1076 0.72662 5.9062 0.3125 11.911 0.07 23.793-0.95592 35.719-0.2944 6.3442 0.053 12.688-0.0392 19.031-0.1431-0.13889-1.5425 3.1778 1.0443 4.6868 0.16201 18.853-0.18086 37.705-0.0312 56.563-0.037-0.0955-5.4449-0.93598-12.476-0.5625-17.062 13.427 18.513 39.854 24.611 60.812 16.375 6.8486-0.14918 13.601 2.0932 20.468 0.65264 14.259-0.53268 28.523 0.52125 42.782-0.0276-2.0217-4.5606-0.24942-5.0266 3.75-3.4688 26.078 5.714 56.126 7.5746 79.312-7.7188 2.9447-2.3008 5.5946-4.9784 7.7812-7.9688v19.219c44.744 0.0207 88.768-5e-3 133.53 0 1.0253-1.2619 0.1102-6.7838 2.0626-3.4375 5.0826 6.3354 13.791 2.189 20.562 3.353 14.301 0.28362 28.741 0.5614 42.938-0.82176 8.7173 2.725 17.968-0.33771 26.906 0.90625h37.5v-23.312c7.2695 15.056 23.533 23.145 39.656 24.625 17.748 1.941 35.944-0.61028 52.781-5.9688 5.0936-4.4452 0.7488-11.676 2.1875-17.312-0.01-11.208 0.011-22.417 0.031-33.625-9.1888-5.2768-20.33-2.8876-30.156-1.25 0.5832-2.372-2.513-8.9056 2.125-7.1562 7.0385 1.1868 16.826-1.2558 17.656-9.5938 0.545-2.1286 0.3784-6.2697 0.6563-7.1562 10.319 26.979 21.173 53.738 31.406 80.75 20.125-0.0245 40.25-0.0384 60.375-0.0312 13.026-37.002 30.771-72.479 41-110.34-0.6105-12.399-15.554-18.317-26.312-15.348-13.049 0.35469-26.107-0.12998-39.157 0.25386-1.9061 5.1035-3.5352 10.295-5.25 15.469-1.7301-5.2307-3.4752-10.452-5.2812-15.656h-76.219c3.5173 3.0378 3.5186 4.2082-0.9375 4.2188-1.8143-0.30733 0.2889-4.7372-0.375-6.4375 0.2855-9.374-0.4208-18.752 0-28.125h-69.094c-0.6543 11.434-0.2293 26.226-0.5313 37.413-3.832 0.33068-13.8-0.5172-14.664 1.2129-0.7963 1.5937-0.2827 11.588-0.595 17.25 0.3259 10.29-0.7825 20.588-0.3031 30.875-0.037 0.52308 12.781 4.758 16.25 5.5312-5.7043 0.62517-11.69-0.73901-17.5 0.0625h-47.25v24.594c-7.5813-10.24-15.091-20.518-22.156-31.125 17.754-19.626 35.329-39.619 53-59.438-29.198 0.0157-58.396-0.0768-87.594 0-4.0052 5.753-2.8876-0.79852-2.9375-4.9062 0.01-10.24-0.026-20.479-0.031-30.719h-69.281c0.1308 1.1132-4.1012-1.4019-5.4062-0.59375zm-753.16 2.5938v65.094c-11.692-18.985-33.715-30.154-55.812-30.438-17.028-1.4082-35.089 2.9888-49.156 11.5-2.8862-7.0208-11.907-7.1064-18.219-8.4688-15.067-0.97875-30.177 1.0942-45.188-0.28125-6.6273-0.75976-7.9174 6.9508-9.371 11.67-1.6925 9.059-3.3716-3.8808-5.1088-7.0661-0.28658-7.5317-8.9817-3.3692-13.926-4.4163h-51.625c-6.0763 19.974 5.4234 39.347 12.441 57.469 8.2252 22.859 17.479 45.383 26.153 68.094 20.093 0.17048 40.188 0.0644 60.281 0.0937 6.0687-15.491 12.147-30.979 18.219-46.469 4.656 21.664 21.918 39.241 43 45.312 29.755 10.045 67.191 2.8252 86.469-22.906 3.3578-6.2419 1.2837 4.6474 1.8438 7.3438 1.1663 5.0732-2.4386 14.918 2 16.719h67.094v-165.25h-69.094v1zm693.56 81.469c1.2482 5.281-1.3672 13.113-1.875 4.5 0.5266-1.0677 2.1972-9.6371 1.875-4.5zm-506.06 0.28125c0.47538 7.921 3.6817 15.559 8.2188 21.812-2.4519 3.1984-2.7598 7.3928-3.25 11.25-5.0285-7.2981-10.308-14.414-15.531-21.562 3.4432-3.6836 7.3592-8.5391 10.562-11.5zm-248.78 11.281c1.672 3.6346 1.7628 8.3515 1.2188 12.406-0.27195 1.8835-1.7744 3.7151-2.2188 0.625-1.5252-4.0973-0.80292-9.3384 1-13.031z" fill="#fff"/>
    <g transform="matrix(.9931 0 0 .9931 .41638 -101.19)" fill="#234285">
     <path d="m329.81 548.94v128.38h31.844v-128.38zm70.75 0v128.38h31.844v-34.312l4.9062-6.0312 27.688 40.344h37.844l-38.406-52.719 35.75-39.906h-37.562l-30.219 36.219v-71.969zm624.78 0v16.531h33.656v-16.531zm66.281 0v128.38h31.844v-34.312l4.9374-6.0312 27.656 40.344h37.844l-38.406-52.719 35.781-39.906h-37.594l-30.219 36.219v-71.969zm194.16 9.25v34.5h-12.187v20.125h12.187v35.312c0 11 2.961 18.91 8.875 23.75 5.9142 4.84 15.363 7.25 28.344 7.25 5.6411-1e-5 10.399-0.21998 14.281-0.6875 3.882-0.46751 7.5426-1.1125 11-1.9375v-20.375h-2.7187c-1.092 0.55003-3.0213 1.1525-5.7813 1.8125-2.7599 0.66003-4.9892 1-6.6874 1-4.1248 2e-5 -7.2841-0.59125-9.4376-1.7188-2.1533-1.1275-3.6507-2.6375-4.5-4.5625-0.9099-1.925-1.3768-4.1112-1.4374-6.5312-0.061-2.42-0.094-5.255-0.094-8.5v-24.812h20.656v-20.125h-20.656v-34.5zm-259.53 26.5v92.625h31.844v-92.625zm-776.91 1.0938c-16.681 1e-4 -29.656 4.3763-38.906 13.094-9.2503 8.7176-13.875 20.756-13.875 36.156-1e-5 15.235 4.6247 23.259 13.875 32.031 9.2502 8.7726 22.225 13.156 38.906 13.156 16.802 0 29.779-4.3837 38.969-13.156 9.1895-8.7725 13.781-16.796 13.781-32.031-1.1e-4 -15.29-4.5927-27.321-13.812-36.094-9.22-8.7725-22.196-13.156-38.938-13.156zm431.62 0.34375c-5.7625 1e-4 -10.953 1.1201-15.562 3.375-4.61 2.2551-9.5023 5.3913-14.719 9.4062v-10.219h-31.844v88.625h31.844v-61.656c2.3656-1.4849 4.7942-2.775 7.2812-3.875 2.4869-1.0999 5.0166-1.6562 7.625-1.6562 3.3968 7e-5 6.058 0.46756 7.9688 1.375 1.9106 0.90758 3.3088 2.3326 4.2188 4.3125 0.90978 1.9801 1.4751 4.5563 1.6875 7.7188 0.21223 3.1626 0.31241 6.99 0.3125 11.5v42.281h32.031v-61.656c2.7901-1.7599 5.3842-3.1312 7.75-4.0938 2.3655-0.96243 4.7611-1.4374 7.1875-1.4375 3.4574 7e-5 6.1204 0.46756 8.0312 1.375 1.9106 0.90758 3.34 2.3326 4.25 4.3125 0.90973 1.9801 1.4429 4.5526 1.625 7.6875 0.18184 3.1351 0.2811 6.9663 0.28125 11.531v42.281h32.031v-56.312c-1.7e-4 -6.6-0.73096-11.934-2.1562-16.031-1.4256-4.0974-3.5555-7.6237-6.4062-10.594-2.6084-2.7499-5.8019-4.8124-9.5625-6.1875-3.7609-1.3749-7.9876-2.0624-12.719-2.0625-5.5806 1e-4 -11.103 1.3788-16.531 4.1562-5.429 2.7776-11.186 6.7676-17.312 11.938-2.4871-5.3349-6.1126-9.3674-10.844-12.062-4.7314-2.6949-10.221-4.0312-16.469-4.0312zm-602.03 2.5625 34.375 88.625h34.75l34.688-88.625h-32.75l-18.656 57.281-18.938-57.281zm722.06 0v56.281c-1e-5 11.66 2.8285 20.416 8.5 26.219 5.6714 5.8025 13.589 8.6875 23.719 8.6875 6.369 0 11.859-1.0775 16.469-3.25 4.6099-2.1725 9.6676-5.3512 15.188-9.5312v10.219h31.844v-88.625h-31.844v61.656c-2.6084 1.705-5.4368 3.0413-8.5 4.0312-3.0633 0.99003-5.7245 1.5-7.9688 1.5-3.6395 3e-5 -6.468-0.50995-8.5-1.5-2.0321-0.98998-3.5296-2.45-4.5-4.375-1.0312-2.09-1.6958-4.6312-1.9688-7.6562s-0.4063-6.9337-0.40625-11.719v-41.938zm566.34 0 34.406 88.625h34.75l34.656-88.625h-32.75l-18.656 57.281-18.938-57.281zm-1118 17.812c3.0328 8e-5 5.728 0.43629 8.0938 1.3438 2.3656 0.90758 4.4945 2.5338 6.375 4.8438 1.759 2.2001 3.1241 5.1238 4.125 8.7812 1.0008 3.6576 1.4999 8.25 1.5 13.75-7e-5 5.8851-0.46706 6.485-1.4375 9.8125-0.9706 3.3276-2.4009 6.1662-4.2812 8.5312-1.5772 1.98-3.7052 3.4787-6.3438 4.4688-2.6387 0.99003-5.2337 1.4688-7.7812 1.4688-3.0936 2e-5 -5.8899-0.47874-8.4375-1.4688-2.5477-0.98998-4.6766-2.5737-6.375-4.7188-1.6378-2.09-2.9689-4.8824-4-8.375-1.0312-3.4925-1.5625-4.0537-1.5625-9.7188-3e-5 -5.665 0.56437-10.385 1.6562-14.125 1.0918-3.74 2.524-6.6674 4.3438-8.8125 1.941-2.255 4.07-3.7962 6.375-4.5938 2.3049-0.79743 4.899-1.1874 7.75-1.1875zm971.72 44.406v26.406h32.219v-26.406z" font-family="Tahoma" font-size="177.44px" font-weight="bold" stroke="#234285" stroke-width="9.4894"/>
     <path d="m560.99 578.4c-9.7475 0.12443-19.648 1.527-28.576 5.5912-6.4207 2.9504-12.263 7.6351-15.586 13.962-2.9046 5.4952-3.9438 11.896-3.3607 18.063 0.50489 4.3449 2.5228 8.4899 5.706 11.485 4.0352 3.9259 9.2842 6.2676 14.508 8.1902 6.2479 2.279 12.794 3.7413 18.886 6.4382 2.0644 0.96826 4.1919 2.2232 5.368 4.243 0.99973 1.9489 0.7495 4.4944-0.60794 6.2105-1.386 1.6042-3.5697 2.1721-5.5941 2.4722-3.7637 0.51028-7.6164 0.0655-11.356-0.45499-6.8447-1.0438-13.538-2.8817-20.125-4.9838-0.66583-0.21756-1.3284-0.44411-1.9918-0.66846-1.9714 9.4005-3.9487 18.8-5.9104 28.202 14.862 3.5889 30.15 5.912 45.477 5.3645 8.2493-0.33789 16.589-1.6056 24.194-4.9231 5.8272-2.5875 11.15-6.6938 14.311-12.315 3.2873-5.7724 4.2912-12.626 3.7627-19.199-0.41977-4.918-2.0815-9.8292-5.312-13.615-3.2919-3.9337-7.8324-6.6055-12.554-8.4562-7.2204-2.8839-14.991-3.9753-22.397-6.2495-2.0894-0.70859-4.2572-1.5494-5.8325-3.1584-0.99669-1.0824-1.4005-2.6313-1.1071-4.0562 0.19761-1.4818 1.0994-2.8868 2.5175-3.4307 2.572-1.2058 5.5251-1.0566 8.3066-0.90486 6.5088 0.48827 12.847 2.2129 19.09 4.0286 2.6206 0.78989 5.2209 1.646 7.7907 2.5873 2.656-9.5664 5.3133-19.132 7.9587-28.702-12.141-3.7577-24.839-5.8269-37.566-5.7212z" fill-rule="evenodd"/>
     <path d="m962.99 578.4c-9.7475 0.12443-19.648 1.527-28.576 5.5912-6.4207 2.9504-12.263 7.6351-15.586 13.962-2.9046 5.4952-3.9438 11.896-3.3607 18.063 0.50489 4.3449 2.5228 8.4899 5.706 11.485 4.0352 3.9259 9.2842 6.2676 14.508 8.1902 6.2479 2.279 12.794 3.7413 18.886 6.4382 2.0644 0.96826 4.1919 2.2232 5.368 4.243 0.99973 1.9489 0.7495 4.4944-0.60794 6.2105-1.386 1.6042-3.5697 2.1721-5.5941 2.4722-3.7637 0.51028-7.6164 0.0655-11.356-0.45499-6.8447-1.0438-13.538-2.8817-20.125-4.9838-0.66583-0.21756-1.3284-0.44411-1.9918-0.66846-1.9714 9.4005-3.9487 18.8-5.9104 28.202 14.862 3.5889 30.15 5.912 45.477 5.3645 8.2493-0.33789 16.589-1.6056 24.194-4.9231 5.8272-2.5875 11.15-6.6938 14.311-12.315 3.2873-5.7724 4.2912-12.626 3.7627-19.199-0.4198-4.918-2.0815-9.8292-5.312-13.615-3.2919-3.9337-7.8324-6.6055-12.554-8.4562-7.2204-2.8839-14.991-3.9753-22.397-6.2495-2.0894-0.70859-4.2572-1.5494-5.8325-3.1584-0.99669-1.0824-1.4005-2.6313-1.1071-4.0562 0.19761-1.4818 1.0994-2.8868 2.5175-3.4307 2.572-1.2058 5.5251-1.0566 8.3066-0.90486 6.5088 0.48827 12.847 2.2129 19.09 4.0286 2.6206 0.78989 5.2209 1.646 7.7907 2.5873 2.656-9.5664 5.3133-19.132 7.9587-28.702-12.141-3.7577-24.839-5.8269-37.566-5.7212z" fill-rule="evenodd"/>
    </g>
   </g>
  </g>
 </g>
</svg>