<svg width="257.36" height="111.94" version="1.1" viewBox="0 0 273.69 297.8" xmlns="http://www.w3.org/2000/svg">
 <rect x="-177.84" y="37.535" width="322.04" height="79.97" fill="#fff" stroke="#fff" stroke-width="3.2333"/>
 <path d="m95.86 0.001205c-21.998 0-41.835 9.1751-55.942 23.894-14.1-14.719-33.94-23.894-55.938-23.894-22.018 0-41.875 9.195-55.978 23.93-14.107-14.735-33.963-23.93-55.975-23.93-42.803 0-77.507 34.695-77.507 77.504 0 42.806 34.705 77.504 77.507 77.504 22.011 0 41.868-9.184 55.975-23.926 14.103 14.742 33.96 23.927 55.978 23.927 21.998 0 41.838-9.1784 55.938-23.887 14.107 14.709 33.943 23.887 55.942 23.887 42.809 0 77.507-34.698 77.507-77.504 0-42.809-34.698-77.504-77.507-77.504m-182.85 62.313-30.508 46.853c-2.401 3.6813-6.4116 5.6766-10.502 5.68-4.107-3e-3 -8.1142-1.9986-10.515-5.68l-30.501-46.853c-3.7645-5.7797-2.1084-13.502 3.698-17.249 5.7963-3.7412 13.555-2.1017 17.313 3.6813l20.006 30.714 19.99-30.714c3.7578-5.783 11.516-7.4225 17.316-3.6813 5.813 3.7478 7.4624 11.47 3.7046 17.249m70.93 49.57c-19.009 0-34.409-15.4-34.409-34.416 0-18.999 15.4-34.409 34.409-34.409 19.005 0 34.412 15.41 34.412 34.409 0 19.015-15.4 34.416-34.412 34.416m111.88 0c-19.005 0-34.412-15.4-34.412-34.416 0-18.999 15.407-34.409 34.412-34.409 19.005 0 34.412 15.41 34.412 34.409 0 19.015-15.404 34.416-34.412 34.416" fill="#d4007a" stroke-width="3.3255"/>
 <path d="m56.969 173.49c-37.138 0-62.979 27.453-62.979 61.349 0 35.51 25.841 62.957 62.979 62.957s61.333-27.447 62.948-62.957c0-33.896-25.81-61.349-62.948-61.349zm-219.62 1.6411c-24.22 0-41.976 14.508-41.976 37.106 0 37.125 53.297 35.53 53.297 51.671 0 4.8439-4.8566 8.0705-12.93 8.0705-9.6881 0-17.742-6.4538-20.972-8.0705-6.4588-3.2272-9.7006-3.2394-12.93 1.6105l-4.8566 8.0705c-4.8441 6.4563-1.5897 9.667 1.6398 12.894 6.4588 4.8439 22.58 11.318 38.727 11.318 27.45 0 41.982-17.781 40.367-33.922 0-38.739-53.266-33.883-53.266-51.639 0-4.8439 3.2105-8.0705 12.899-8.0705 8.0735 0 14.551 1.6289 19.395 4.8561 4.8441 1.6167 9.6691 3.2089 12.899-3.2455l3.2483-8.0705c1.6148-4.8439 1.5961-9.6664-3.2483-12.894-6.4587-4.8378-17.762-9.678-32.294-9.678zm67.836 0c-6.4586 0-9.6819 3.2211-9.6819 9.678v101.67c0 6.4575 3.2231 9.7097 9.6819 9.7097h11.29c6.4586 0 9.6818-3.2516 9.6818-9.7097v-27.428h21.004c22.606 0 38.765-17.749 37.15-41.961 0-24.212-16.153-41.961-38.759-41.961zm240.6 0c-6.4586 0-9.7133 3.2211-9.7133 9.678l-1.6084 100.06c0 6.4575 3.2231 9.6786 9.6818 9.6786h11.322c6.4586 0 9.6818-3.2211 9.6818-9.6786v-30.674h14.538l17.755 33.922c3.2294 4.8378 6.4458 6.4312 11.29 6.4312h12.93c8.0736 0 9.6946-4.8317 6.465-11.286l-17.755-30.674c-3.2296-4.8378-4.8567-6.463-4.8567-6.463 11.303-6.4563 17.755-19.369 17.755-32.283 0-17.755-9.6944-30.654-22.612-35.498-4.8441-1.6106-9.663-3.215-22.58-3.215zm93.633 0c-6.4586 0-9.6818 3.2211-9.6818 9.678l-1.6084 6.463c0 6.4575 3.2231 9.6786 9.6818 9.6786h27.437v85.529c0 6.4575 3.2545 9.7097 9.7133 9.7097h11.29c6.4586 0 9.6818-3.2516 9.6818-9.7097v-85.529h27.469c6.4586 0 9.6818-3.2211 9.6818-9.6786v-6.463c0-6.4569-3.2231-9.678-9.6818-9.678zm-313.26 25.82h14.539c9.6885 0 14.538 6.4563 14.538 16.141s-4.8503 16.141-14.538 16.141h-14.539zm130.82 0c17.762 0 32.294 14.521 32.294 33.89s-12.918 35.498-32.294 35.498-32.294-14.515-32.294-35.498c0-19.369 12.918-33.89 32.294-33.89zm108.17 0h9.6818c4.8441 0 8.0922-9e-3 11.322 1.6106 4.844 1.6167 6.4336 6.4697 6.4336 12.926 0 9.6835-4.8189 14.502-14.507 14.502h-12.93z" fill="#6d6e71"/>
 <path class="st3" d="m479.17 287.65c0 5.0739-2.537 10.148-10.148 10.148h-65.96c-5.0742 0-10.148-2.5369-10.148-10.148v-2.5369c0-45.665 53.275-53.276 53.275-71.034 0-7.6108-7.6113-12.685-12.685-12.685-5.0741 0-10.148 2.5369-12.685 5.0739-5.0742 5.0739-7.6103 5.0739-12.685 2.5369l-7.6102-5.0739c-5.0742-2.5369-5.0742-7.6108-2.5371-12.685 5.0742-7.6108 17.758-17.759 38.054-17.759 20.295 0 40.591 12.685 40.591 38.054 0 38.054-50.738 45.665-50.738 60.886h43.128c5.0742 0 10.148 2.5369 10.148 10.148z" fill="#6d6e71" stroke-width="25.369"/>
</svg>
