<svg width="305.38" height="111.94" version="1.1" viewBox="0 0 324.76 297.8" xmlns="http://www.w3.org/2000/svg">
 <path d="m57.511 0c-21.998 0-41.835 9.1751-55.942 23.894-14.1-14.719-33.94-23.894-55.938-23.894-22.018 0-41.875 9.195-55.978 23.93-14.107-14.735-33.963-23.93-55.975-23.93-42.803 0-77.507 34.695-77.507 77.504 0 42.806 34.705 77.504 77.507 77.504 22.011 0 41.868-9.184 55.975-23.926 14.103 14.742 33.96 23.927 55.978 23.927 21.998 0 41.838-9.1784 55.938-23.887 14.107 14.709 33.943 23.887 55.942 23.887 42.809 0 77.507-34.698 77.507-77.504 0-42.809-34.698-77.504-77.507-77.504m-182.85 62.313-30.508 46.853c-2.401 3.6813-6.4116 5.6766-10.502 5.68-4.107-3e-3 -8.1142-1.9986-10.515-5.68l-30.501-46.853c-3.7645-5.7797-2.1084-13.502 3.698-17.249 5.7963-3.7412 13.555-2.1017 17.313 3.6813l20.006 30.714 19.99-30.714c3.7578-5.783 11.516-7.4225 17.316-3.6813 5.813 3.7478 7.4624 11.47 3.7046 17.249m70.93 49.57c-19.009 0-34.409-15.4-34.409-34.416 0-18.999 15.4-34.409 34.409-34.409 19.005 0 34.412 15.41 34.412 34.409 0 19.015-15.4 34.416-34.412 34.416m111.88 0c-19.005 0-34.412-15.4-34.412-34.416 0-18.999 15.407-34.409 34.412-34.409 19.005 0 34.412 15.41 34.412 34.409 0 19.015-15.404 34.416-34.412 34.416" fill="#d4007a" stroke-width="3.3255"/>
 <path d="m18.625 173.49c-37.138 0-62.979 27.453-62.979 61.349 0 35.51 25.841 62.957 62.979 62.957s61.333-27.447 62.948-62.957c0-33.896-25.81-61.349-62.948-61.349zm-219.62 1.6411c-24.22 0-41.976 14.508-41.976 37.106 0 37.125 53.297 35.53 53.297 51.671 0 4.8439-4.8566 8.0705-12.93 8.0705-9.6881 0-17.742-6.4538-20.972-8.0705-6.4588-3.2272-9.7006-3.2394-12.93 1.6105l-4.8566 8.0705c-4.8441 6.4563-1.5897 9.667 1.6398 12.894 6.4588 4.8439 22.58 11.318 38.727 11.318 27.45 0 41.982-17.781 40.367-33.922 0-38.739-53.266-33.883-53.266-51.639 0-4.8439 3.2105-8.0705 12.899-8.0705 8.0735 0 14.551 1.6289 19.395 4.8561 4.8441 1.6167 9.6691 3.2089 12.899-3.2455l3.2483-8.0705c1.6148-4.8439 1.5961-9.6664-3.2483-12.894-6.4587-4.8378-17.762-9.678-32.294-9.678zm67.836 0c-6.4586 0-9.6819 3.2211-9.6819 9.678v101.67c0 6.4575 3.2231 9.7097 9.6819 9.7097h11.29c6.4586 0 9.6818-3.2516 9.6818-9.7097v-27.428h21.004c22.606 0 38.765-17.749 37.15-41.961 0-24.212-16.153-41.961-38.759-41.961zm240.6 0c-6.4586 0-9.7133 3.2211-9.7133 9.678l-1.6084 100.06c0 6.4575 3.2231 9.6786 9.6818 9.6786h11.322c6.4586 0 9.6818-3.2211 9.6818-9.6786v-30.674h14.538l17.755 33.922c3.2294 4.8378 6.4458 6.4312 11.29 6.4312h12.93c8.0736 0 9.6946-4.8317 6.465-11.286l-17.755-30.674c-3.2296-4.8378-4.8567-6.463-4.8567-6.463 11.303-6.4563 17.755-19.369 17.755-32.283 0-17.755-9.6944-30.654-22.612-35.498-4.8441-1.6106-9.663-3.215-22.58-3.215zm93.633 0c-6.4586 0-9.6818 3.2211-9.6818 9.678l-1.6084 6.463c0 6.4575 3.2231 9.6786 9.6818 9.6786h27.437v85.529c0 6.4575 3.2545 9.7097 9.7133 9.7097h11.29c6.4586 0 9.6818-3.2516 9.6818-9.7097v-85.529h27.469c6.4586 0 9.6818-3.2211 9.6818-9.6786v-6.463c0-6.4569-3.2231-9.678-9.6818-9.678zm-313.26 25.82h14.539c9.6885 0 14.538 6.4563 14.538 16.141 0 9.6847-4.8503 16.141-14.538 16.141h-14.539zm130.82 0c17.762 0 32.294 14.521 32.294 33.89 0 19.369-12.918 35.498-32.294 35.498-19.376 0-32.294-14.515-32.294-35.498 0-19.369 12.917-33.89 32.294-33.89zm108.17 0h9.6818c4.8441 0 8.0922-9e-3 11.322 1.6106 4.844 1.6167 6.4336 6.4697 6.4336 12.926 0 9.6835-4.8189 14.502-14.507 14.502h-12.93z"/>
 <path class="st3" d="m432.77 287.65c0 5.0763-2.3698 10.147-9.4784 10.147h-59.239c-4.7388 0-9.4785-2.5381-9.4785-10.147v-7.6143c0-5.0762 2.3698-10.147 9.4785-10.147h16.587v-60.884s-2.3698 2.5381-2.3698 5.0762l-2.3698 2.5381c-4.7388 5.0762-9.4785 5.0762-11.847 0l-4.7388-5.0762c-4.7388-5.0762-4.7388-10.147 0-12.684l18.956-20.294c2.3698-2.5381 7.1086-5.0762 11.847-5.0762h9.4785c4.7388 0 9.4784 2.5381 9.4784 10.147v86.253h16.587c4.7388 0 9.4785 2.5381 9.4785 10.147v7.6143z" stroke-width="86.928"/>
 <path d="m460.77 240.92q3.1174 0 5.3036-2.8252 2.1862-2.8252 2.1862-6.8084v-18.248h20.971l0.0405 18.248q0 3.9831 2.1862 6.8084 2.1862 2.8252 5.2631 2.8252t5.2631-2.8252q2.2267-2.8252 2.2267-6.8084v-48.168q0-3.9831-2.2267-6.8083-2.1862-2.8252-5.2631-2.8252t-5.3036 2.8716q-2.1862 2.8252-2.1862 6.762v16.072h-20.971v-16.072q0-3.9831-2.1862-6.8083-2.1862-2.8252-5.3036-2.8252-3.0769 0-5.2631 2.8252-2.1862 2.8252-2.1862 6.8083v48.168q0 3.9831 2.1862 6.8084 2.1862 2.8252 5.2631 2.8252z" fill="#878787" stroke-width="1.2693"/>
 <path d="m531.05 229.3v-44.046h4.9797q9.1497 0 13.036 4.9558 3.8866 4.9095 3.8866 17.09 0 8.3368-1.7814 13.154-1.7814 4.7705-5.506 6.8084-3.6841 2.0379-10 2.0379zm-7.3683 11.625h12.713q15.87 0 24.008-8.3831 8.178-8.4294 8.178-24.825 0-16.905-8.4614-25.52-8.4614-8.661-24.899-8.661h-8.7044q-5.6274 0-7.9351 3.0105-2.2672 3.0105-2.2672 10.05v41.359q0 3.52 0.56679 6.2526 0.60729 2.7326 2.3077 4.7242 1.7409 1.9916 4.4939 1.9916z" fill="#878787" stroke-width="1.2693"/>
</svg>
