<svg width="211.67mm" height="114.76mm" version="1.1" viewBox="0 0 750.01 406.64" xmlns="http://www.w3.org/2000/svg">
 <g transform="matrix(1.3747 0 0 1.3747 -197.02 -671.36)">
  <path d="m143.32 784.18h545.59v-295.81h-545.59z" fill="#515253"/>
  <g fill="#fff">
   <path d="m259.99 719-64.32-153.51h37.35l40.97 103.64 41.83-103.64h37.24l-65.68 153.51z"/>
   <path d="m421.4 596.94c-9.74 0-18.69 2.76-26.58 8.26-7.9 5.44-13.61 12.83-16.99 21.95-1.89 5.19-2.87 10.54-2.87 15.9 0 11.01 3.71 21.02 11.07 29.73 9.09 10.79 21 16.26 35.37 16.26 14.33 0 26.27-5.44 35.47-16.12 7.37-8.57 11.07-18.61 11.07-29.87 0-11.52-3.73-21.62-11.1-30.01-9.39-10.69-21.33-16.1-35.44-16.1m0 125.26c-26 0-46.91-8.76-62.14-26.02-13.39-15.18-20.17-33.05-20.17-53.13 0-9.18 1.84-18.72 5.47-28.37 3.6-9.65 8.51-18.02 14.59-24.9 15.22-17.24 36.17-26 62.25-26 26.07 0 47.02 8.76 62.25 26 13.38 15.17 20.16 33.1 20.16 53.27 0 20.08-6.78 37.95-20.16 53.13-15.23 17.26-36.18 26.02-62.25 26.02"/>
   <path d="m595.23 719-36-54.64-36.87 54.64h-41.34l58.96-81.55-49.84-71.96h42.28l26.95 45.58 27.5-45.58h42.14l-50.15 71.93 57.65 81.58z"/>
  </g>
 </g>
</svg>
