<svg width="800.013" height="433.739" viewBox="0 0 750.01 406.64" xmlns="http://www.w3.org/2000/svg">
    <path d="M.002 406.652h750.023V.002H.002z" fill="#515253"/>
    <g fill="#fff">
        <path d="M160.388 317.05l-88.42-211.03h51.345l56.321 142.473 57.504-142.474h51.194l-90.29 211.03zM382.279 149.253c-13.39 0-25.694 3.795-36.54 11.355-10.86 7.479-18.71 17.638-23.356 30.175-2.598 7.135-3.945 14.49-3.945 21.858 0 15.135 5.1 28.896 15.217 40.87 12.496 14.833 28.87 22.352 48.624 22.352 19.699 0 36.113-7.478 48.76-22.16 10.132-11.781 15.218-25.583 15.218-41.062 0-15.837-5.128-29.721-15.26-41.255-12.907-14.695-29.321-22.133-48.718-22.133m0 172.195c-35.743 0-64.488-12.042-85.424-35.77-18.408-20.867-27.728-45.433-27.728-73.037 0-12.62 2.53-25.735 7.52-39 4.949-13.266 11.698-24.772 20.057-34.23 20.922-23.7 49.722-35.743 85.575-35.743 35.838 0 64.638 12.043 85.575 35.743 18.393 20.854 27.714 45.502 27.714 73.23 0 27.604-9.32 52.17-27.714 73.038-20.937 23.727-49.737 35.77-85.575 35.77"/>
        <path d="M621.243 317.05l-49.49-75.114-50.685 75.113h-56.83l81.053-112.106-68.516-98.924h58.123l37.048 62.659 37.804-62.659h57.93l-68.941 98.882L677.99 317.05z"/>
    </g>
</svg>
