<svg enable-background="new 0 0 943.9 204" version="1.1" viewBox="0 0 943.9 204" xmlns="http://www.w3.org/2000/svg">
 <g fill="#fff">
  <path d="m943 61.6c-2.1-14.9-8.3-28-18.5-39-11.6-12.5-25.8-20.1-42.9-22-1.6-.2-3.2-.4-4.7-.7-2.4 0-4.8 0-7.3 0-.2.1-.3.3-.5.3-4.7.8-9.5 1.1-14 2.4-12.7 3.7-23.5 10.4-31.9 20.7-.5.6-1.2 1.1-1.8 1.6-.1-.6-.3-1.1-.3-1.7 0-6.2 0-12.3 0-18.5 0-1-.1-1.6-1.4-1.6-5 .1-10.1.2-15.1.3-.1 0-.1 0-.2 0-1 0-2.5-.4-2.8 0-.5.8-.4 2.1-.4 3.2v194c0 2.3 0 2.3 2.3 2.3 5.2 0 10.3-.1 15.5 0 1.6 0 2-.4 2-2 0-25.4 0-50.7 0-76.1 0-.5-.1-1 0-1.5.1-.3.3-.6.5-.9.2.3.5.6.7.9.1.1.2.2.3.4 3 4.3 6.8 7.7 11 10.8 17.3 12.7 36.6 16.3 57.2 11.1 20-5.1 34.6-17.4 44.3-35.5 8.3-15.1 10.4-31.5 8-48.5zm-24.7 34.9c-7.1 17-19.4 27.8-37.8 31.3-11.3 2.1-22.3.8-32.5-4.5-14-7.3-22.7-18.9-26.5-34.2-3.7-15.1-2.4-29.9 5.3-43.6 8.1-14.4 20.3-23.1 36.9-25.5 1.2-.2 2.5-.3 3.8-.4 1.2-.1 2.4-.1 3.6-.2 15.3 0 28.1 5.7 38.1 17.1 6.8 7.7 10.8 16.8 12.4 27 2 11.4 1.1 22.5-3.3 33z"/>
  <path d="m770 3.3c-6.3 0-12.5 0-18.8 0-.3 0-.8.6-.9 1-.2.4 0 .9 0 1.3v73.6c0 1.3-.5 2.7-.8 4 0 .2 0 .4-.1.7-.1 1.4-.1 2.9-.3 4.3-.1 1-.5 2-.8 3-.1.2-.3.5-.3.7-2.6 10.8-7.1 20.5-15.8 27.8-9 7.6-19.4 10.3-30.8 8.3-10.3-1.8-17.6-8-22.5-17.2-3.8-7-4.8-14.7-4.8-22.5-.1-27.8 0-55.6 0-83.3 0-.6 0-1.3 0-1.9-7 0-13.8 0-20.6 0 0 .5-.1.9-.1 1.3v88.6c0 6.5.9 12.9 2.9 19.1 6.9 21.7 24.2 34.5 45.7 35.8 8 .5 15.7-.7 23.2-3.7 7.4-3 13.9-7.2 19-13.4 2-2.5 3.9-5.1 5.8-7.6.1.6.3 1.1.3 1.7v18c0 1.3.3 1.8 1.7 1.8 5.5-.1 11-.1 16.5 0 1.3 0 1.7-.4 1.7-1.7 0-46 0-92 0-138.1-.1-.5-.1-.9-.2-1.6z"/>
  <path d="m324 44.8c31.9-.7 56.5 26.4 56.5 55.4-.1 29.1-25.1 56.1-55.8 56.1-30.7.1-55.6-24.6-55.7-55.5-.2-35.4 28.6-56.8 55-56z"/>
  <path d="m542 97.3c27.2-31.4 54.3-62.7 81.6-94.3h-1.2-108.3c-1.1 0-1.7 0.5-2.3 1.3-5.6 7.4-11.2 14.9-16.8 22.3-2.3 3.1-4.7 6.1-7.1 9.3-2.1-2.8-4.1-5.4-6.1-8.1-5.7-8-11.6-15.8-17.4-23.8-0.7-1-1.4-1.1-2.4-1.1h-80.9-1.5c38.1 23.4 58.7 57.1 57.5 102.1-1.1 45-23.9 77.4-63.1 98.8 0.4 0 0.8 0.1 1.2 0.1h70.1c0.6 0 1.4-0.3 1.8-0.8 1.2-1.2 2.3-2.5 3.4-3.8 6.9-7.8 13.8-15.5 20.8-23.3 3.2-3.6 6.5-7.3 9.7-11 2.2-2.5 4.5-4.9 6.8-7.5 5.2 6.4 10.3 12.7 15.4 19 7.1 8.8 14.2 17.6 21.3 26.4 0.4 0.5 1.3 0.8 1.9 0.8h106.4c0.4 0 0.9-0.1 1.6-0.1-30.8-35.5-61.6-70.9-92.4-106.3z"/>
  <path d="m189.5 2.9c-1.2 0-1.8 0.3-2.4 1.4-5.1 10-10.3 20-15.5 30-6 11.5-12 23-18 34.4-3.3 6.3-6.6 12.6-9.9 19.1-5.6-10.6-11.1-21-16.7-31.4-9.1-17.4-18.3-34.7-27.4-52.1-0.6-1.1-1.2-1.4-2.4-1.4h-84.7c-4.1 0-8.3 0.1-12.5 0.1v0.7l0.4 0.4c4.8 8.7 9.7 17.4 14.5 26.2 9 16.4 18.1 32.8 27.2 49.3 5.5 9.9 10.9 19.9 16.3 29.8 10 18.2 20.1 36.4 30.1 54.6 7.1 12.9 14.3 25.8 21.3 38.7 0.5 1 1.1 1.3 2.1 1.3h61.7c1.2 0 1.7-0.4 2.2-1.4 4.7-8.5 9.4-16.9 14.2-25.4l24.9-44.7c0.2-0.4 0.3-1.1 0.2-1.6-2.1-8.4-3.4-16.9-3.6-25.5-0.2-7.5 0.3-15 1.6-22.4 1.6-9.7 4.5-19.1 8.6-28 4.5-9.9 10.3-18.9 17.5-27 7.1-8.1 15-15.1 24-20.9 2-1.3 4-2.6 6.3-4h-3.6c-25.4-0.2-50.9-0.2-76.4-0.2z"/>
 </g>
</svg>
