<svg version="1.1" viewBox="0 0 800 205.29" xmlns="http://www.w3.org/2000/svg">
 <defs>
  <style>.cls-1{fill:#6722ff;}</style>
 </defs>
 <g transform="scale(.85324)" data-name="Layer 2">
  <g data-name="Layer 1">
   <g data-name="Layer 2">
    <g data-name="Vrstva 1">
     <path class="cls-1" d="m187.6 1.8a32.18 32.18 0 0 0-29.6 19.7l-48.4 125.3-47.8-123.7c-5.2-13.5-16.5-21.3-30.8-21.3-17.4 0-31 13.5-31 30.7a38.77 38.77 0 0 0 3.3 14.2l70.5 168.7c6.3 15 18.2 23.3 33.5 23.3h3.1c15.3 0 27.2-8.3 33.5-23.3l71.1-170.1a34.54 34.54 0 0 0 3.1-13.4c0.2-16.9-13.3-30.1-30.5-30.1zm473.4 0.6c-11.5 0-20.9 5.7-28.8 17.3l-48 68.4-47-67.7c-5.2-7.6-13.8-17.7-29.5-17.7-17.1 0-31 13.5-31 30.1a35.61 35.61 0 0 0 7.3 21.3l68.9 93.5v59.5a31 31 0 1 0 62 0v-60.4l68.9-93c5-7 7.5-14 7.5-20.9 0.1-17.9-12.4-30.4-30.3-30.4zm-312.4-2.4a120.3 120.3 0 1 0 120.3 120.3 120.29 120.29 0 0 0-120.3-120.3zm0 179.4a59.2 59.2 0 1 1 59.2-59.2 59.19 59.19 0 0 1-59.2 59.2zm468.7-179.4a120.3 120.3 0 1 0 120.3 120.3 120.29 120.29 0 0 0-120.3-120.3zm0 179.4a59.2 59.2 0 1 1 59.2-59.2 59.19 59.19 0 0 1-59.2 59.2z" Googl="true"/>
    </g>
   </g>
  </g>
 </g>
</svg>
