<svg viewBox="0 0 600.06 600.03" xmlns="http://www.w3.org/2000/svg">
    <ellipse cx="300.03" cy="300.01" rx="300.03" ry="300.02" fill="#fff"/>
    <path d="M469.302 53.122h.002v.002h.004l.003.005.002.002.004.002h.002-.002l-.004-.002-.002-.002-.003-.005c0 .005 0 0-.004 0v-.002h-.002M597.967 266.452v-.015c0-.002 0-.004-.002-.004v-.011c0-.002-.005-.002-.005-.004v-.015c-.002-.002-.002-.007-.002-.009 0 .002 0 .007.002.009v.015c0 .002.005.002.005.004v.01c.002 0 .002.003.002.005v.015M514.35 510.077l-.011.01a.104.104 0 0 0-.009.007.018.018 0 0 0-.006.013c-.004 0-.006.004-.009.008a.02.02 0 0 0-.008.01c-.004.001-.009.004-.009.008l-.012.008c0 .005-.003.009-.009.011.006-.002.009-.006.009-.008.006-.003.008-.007.012-.01l.009-.008c.002-.005.004-.008.008-.01a.019.019 0 0 1 .009-.009l.006-.013a.104.104 0 0 1 .009-.008c.002-.002.009-.007.01-.01" fill="#f79210"/>
    <path d="M568.719 433.658h-.05s0 .003-.001.003v.007s0 .001-.002.001v.003c0 .001-.005.001-.005.004v.004l.043.002s0-.002.004-.002c0-.004 0-.004.002-.004v-.004l.003-.003s0-.001.004-.001v-.007c.002 0 .002-.003.002-.003M600.02 295.785a274.178 274.178 0 0 0-.247-8.394c-.06-1.396-.132-2.788-.213-4.177a326.036 326.036 0 0 0-.588-8.308 428.342 428.342 0 0 0-.38-4.127c-.138-1.377-.279-2.75-.428-4.118a192.854 192.854 0 0 1-2.08 4.084 190.53 190.53 0 0 1-2.194 4.045 198.958 198.958 0 0 1-2.305 4.005 200.017 200.017 0 0 1-2.416 3.961 203.468 203.468 0 0 1-2.527 3.926 203.115 203.115 0 0 1-8.225 11.538l-56.57 59.612-85.765 76.641h132.132a302.477 302.477 0 0 0 7.203-15.407 300.852 300.852 0 0 0 6.346-15.865 294.423 294.423 0 0 0 5.456-16.299 296.685 296.685 0 0 0 8.116-33.761 293.412 293.412 0 0 0 2.598-17.407 300.203 300.203 0 0 0 2.118-35.726c0-1.41-.01-2.814-.032-4.223zm-448.489 9.108a9.252 9.252 0 0 1-.998.49c-.363.15-.755.29-1.185.42-.43.133-.895.255-1.4.37-.504.118-1.046.227-1.632.332-.583.107-1.209.21-1.885.31-.674.096-1.393.195-2.163.29l-1.551.193-1.557.197-1.551.192-1.553.197-1.554.19-1.554.195-3.105.39c-1.071.138-2.08.296-3.023.478-.945.18-1.825.383-2.64.62-.815.233-1.565.496-2.244.795-.685.295-1.304.629-1.853.997-.55.37-1.032.782-1.447 1.235-.415.452-.76.948-1.042 1.495a7.43 7.43 0 0 0-.63 1.792c-.137.647-.21 1.35-.21 2.11 0 .677.085 1.33.248 1.954.163.62.404 1.214.719 1.77a8.4 8.4 0 0 0 1.163 1.57c.455.485.981.932 1.568 1.338.592.402 1.239.765 1.947 1.082.71.316 1.475.583 2.292.804.817.22 1.684.387 2.6.504.914.111 1.877.169 2.882.169 1.551 0 3.076-.105 4.55-.304 1.475-.203 2.903-.5 4.265-.885a27.212 27.212 0 0 0 3.885-1.421 22.705 22.705 0 0 0 3.396-1.914 18.5 18.5 0 0 0 2.816-2.371c.833-.86 1.547-1.79 2.136-2.775.586-.99 1.044-2.04 1.354-3.14.307-1.108.472-2.265.472-3.467v-7.427a5.392 5.392 0 0 1-.686.658c-.253.201-.526.39-.83.567zm184.15 7.938a21.38 21.38 0 0 0 1.512 3.66 19.172 19.172 0 0 0 2.202 3.312 17.608 17.608 0 0 0 2.944 2.812 18.368 18.368 0 0 0 3.73 2.183 21.857 21.857 0 0 0 4.574 1.41c1.67.326 3.49.503 5.465.503s3.793-.177 5.462-.502a21.838 21.838 0 0 0 4.576-1.411 18.502 18.502 0 0 0 3.733-2.183 17.943 17.943 0 0 0 2.944-2.812 19.16 19.16 0 0 0 2.2-3.311 21.371 21.371 0 0 0 1.509-3.66c.396-1.264.682-2.564.872-3.877.188-1.312.28-2.638.28-3.953 0-1.317-.092-2.642-.28-3.955a24.918 24.918 0 0 0-.872-3.876 21.535 21.535 0 0 0-1.51-3.663 19.208 19.208 0 0 0-2.2-3.307 17.955 17.955 0 0 0-2.943-2.814 18.496 18.496 0 0 0-3.733-2.18 21.588 21.588 0 0 0-4.576-1.412c-1.67-.325-3.487-.502-5.462-.502s-3.795.177-5.465.502a21.607 21.607 0 0 0-4.573 1.411 18.362 18.362 0 0 0-3.731 2.181 17.62 17.62 0 0 0-2.944 2.814 19.22 19.22 0 0 0-2.202 3.307c-.618 1.17-1.118 2.4-1.512 3.663s-.682 2.56-.872 3.876a28.23 28.23 0 0 0-.276 3.955c0 1.315.09 2.64.276 3.953.19 1.313.479 2.613.872 3.876zm-37.218-46.373h-10.942v-12.182h10.942zm0 67.563h-10.942v-58.036h10.942zm-41.035 0h-11.122v-7.425h-.222c-.539.761-1.159 1.48-1.843 2.155s-1.434 1.304-2.238 1.888a23.622 23.622 0 0 1-2.57 1.616c-.902.49-1.85.934-2.83 1.336-.982.398-1.994.747-3.028 1.05-1.035.3-2.093.554-3.162.755-1.067.2-2.147.36-3.229.462-1.08.1-2.161.154-3.232.154-2.196 0-4.34-.174-6.406-.52a34.793 34.793 0 0 1-5.959-1.533 31.284 31.284 0 0 1-5.385-2.516 28.39 28.39 0 0 1-4.687-3.462 27.427 27.427 0 0 1-3.863-4.374 27.938 27.938 0 0 1-2.914-5.255 30.89 30.89 0 0 1-1.842-6.104c-.418-2.172-.64-4.477-.64-6.915s.222-4.744.64-6.916a30.718 30.718 0 0 1 1.842-6.1c.8-1.896 1.777-3.65 2.914-5.257a27.458 27.458 0 0 1 3.863-4.379 28.5 28.5 0 0 1 4.687-3.459 31.125 31.125 0 0 1 5.385-2.516c1.9-.676 3.89-1.19 5.96-1.533 2.064-.347 4.209-.52 6.405-.52 1.086 0 2.174.05 3.258.148 1.086.096 2.168.243 3.235.436 1.066.197 2.118.438 3.149.731 1.028.293 2.037.633 3.008 1.026.977.39 1.914.832 2.812 1.322.897.487 1.755 1.028 2.557 1.616s1.552 1.23 2.24 1.92c.69.686 1.32 1.424 1.873 2.215h.222v-29.791h11.122zm-84.994-.002c-.333.058-.673.107-1.026.156-.348.047-.704.092-1.07.133-.36.04-.73.079-1.099.115-.373.032-.744.064-1.118.094-.377.026-.749.047-1.118.07-.373.024-.74.04-1.101.052-.364.015-.723.024-1.073.03-.351.009-.694.01-1.024.01-.692 0-1.355-.02-1.985-.074-.631-.06-1.23-.143-1.794-.265a9.742 9.742 0 0 1-1.599-.494 7.197 7.197 0 0 1-1.385-.757 6.537 6.537 0 0 1-1.164-1.06 7.238 7.238 0 0 1-.925-1.414 9.351 9.351 0 0 1-.68-1.793 14.542 14.542 0 0 1-.426-2.224 14.728 14.728 0 0 1-1.942 2.12c-.74.668-1.567 1.29-2.458 1.872a26.689 26.689 0 0 1-2.87 1.614c-1.019.492-2.09.94-3.198 1.343-1.111.4-2.26.754-3.436 1.064-1.17.304-2.364.563-3.572.77a42.383 42.383 0 0 1-7.2.63c-2.405 0-4.579-.153-6.541-.444-1.959-.287-3.707-.703-5.263-1.232a20.835 20.835 0 0 1-4.112-1.875 16.399 16.399 0 0 1-3.087-2.373 14.895 14.895 0 0 1-3.588-5.665 16.907 16.907 0 0 1-.752-2.994 18.792 18.792 0 0 1-.223-2.916c0-1.33.099-2.576.306-3.748.212-1.17.528-2.258.971-3.277.438-1.016 1-1.96 1.7-2.833a14.024 14.024 0 0 1 2.497-2.405c.977-.736 2.095-1.4 3.374-2.004 1.277-.603 2.71-1.141 4.314-1.618a50.183 50.183 0 0 1 5.323-1.255 84.877 84.877 0 0 1 6.408-.913l1.577-.167 1.577-.167 1.577-.162 1.578-.17 1.576-.164 1.58-.169 1.574-.164 1.58-.167a58.97 58.97 0 0 0 2.21-.276 27.928 27.928 0 0 0 1.973-.361c.618-.14 1.195-.3 1.724-.488a8.688 8.688 0 0 0 1.447-.66c.436-.252.826-.541 1.16-.873.335-.33.621-.703.853-1.128.23-.422.403-.894.52-1.424.119-.533.18-1.118.18-1.77 0-.995-.121-1.89-.35-2.694a7.239 7.239 0 0 0-1-2.153 7.493 7.493 0 0 0-1.571-1.668 10.156 10.156 0 0 0-2.07-1.234 15.39 15.39 0 0 0-2.494-.861c-.89-.231-1.84-.41-2.834-.543a38.628 38.628 0 0 0-3.103-.287 61.154 61.154 0 0 0-3.288-.083c-1.19 0-2.358.04-3.49.13-1.13.088-2.227.22-3.277.41a22.44 22.44 0 0 0-3 .743 15.62 15.62 0 0 0-2.64 1.116c-.811.438-1.552.949-2.209 1.535a9.55 9.55 0 0 0-1.705 2.003 9.875 9.875 0 0 0-1.126 2.512c-.27.93-.433 1.952-.475 3.07h-10.405c.18-1.81.492-3.489.939-5.033a20.874 20.874 0 0 1 1.719-4.237 17.707 17.707 0 0 1 2.498-3.483 17.823 17.823 0 0 1 3.254-2.764 21.957 21.957 0 0 1 4.001-2.087 30.486 30.486 0 0 1 4.738-1.443c1.7-.379 3.519-.654 5.459-.836a64.718 64.718 0 0 1 6.166-.272c1.477 0 3.004.045 4.54.152a52.3 52.3 0 0 1 4.619.526c1.527.246 3.032.565 4.48.977 1.445.417 2.833.92 4.13 1.527a19.244 19.244 0 0 1 3.578 2.16 14.25 14.25 0 0 1 2.815 2.879 12.838 12.838 0 0 1 1.84 3.69c.428 1.377.661 2.901.661 4.588v31.234c0 .43.023.832.072 1.204.05.372.124.714.222 1.024.101.317.225.601.375.862.154.26.329.49.535.69.204.206.435.385.694.535.257.154.543.28.858.378.314.099.653.171 1.028.218.368.054.77.075 1.198.075.15 0 .308-.002.47-.008.16-.009.324-.015.491-.026.166-.017.337-.028.507-.045a21.938 21.938 0 0 0 1.498-.203c.163-.024.319-.051.47-.077.148-.028.294-.058.432-.083zm-84.977-47.406c-.34-.081-.673-.158-1.001-.235-.324-.08-.642-.145-.957-.218-.314-.064-.624-.128-.932-.184a42.004 42.004 0 0 0-.926-.165c-.306-.049-.618-.092-.932-.128a21.348 21.348 0 0 0-1.973-.152 25.062 25.062 0 0 0-1.077-.021 24.59 24.59 0 0 0-3.913.3c-1.249.2-2.438.5-3.56.902-1.12.4-2.17.9-3.148 1.494-.975.6-1.875 1.296-2.69 2.093a15.468 15.468 0 0 0-2.178 2.683 17.04 17.04 0 0 0-1.614 3.276 20.542 20.542 0 0 0-1.007 3.857 27.266 27.266 0 0 0-.347 4.445v29.459H50.214v-58.034h10.988v10.628h.219a32.044 32.044 0 0 1 2.035-3.177 25.938 25.938 0 0 1 2.216-2.67 23.183 23.183 0 0 1 2.364-2.183 21.996 21.996 0 0 1 2.489-1.728c.849-.5 1.714-.932 2.588-1.295a20.573 20.573 0 0 1 2.661-.892 21.431 21.431 0 0 1 5.423-.678c.342 0 .665 0 .971.005.308.002.594.01.871.023.28.009.54.02.794.034.254.02.503.039.742.062.24.022.477.054.71.088a14.656 14.656 0 0 1 1.418.265c.245.056.495.116.754.188zm236.036 12.25a32.554 32.554 0 0 1 1.537-5.77 29.303 29.303 0 0 1 2.572-5.259 27.494 27.494 0 0 1 3.607-4.614 27.61 27.61 0 0 1 4.65-3.833 30.146 30.146 0 0 1 5.697-2.908 35.512 35.512 0 0 1 6.748-1.847c2.427-.424 5.03-.646 7.808-.646 2.78 0 5.38.222 7.806.646a35.556 35.556 0 0 1 6.747 1.847c2.074.8 3.973 1.777 5.696 2.908a27.275 27.275 0 0 1 8.26 8.447 29.285 29.285 0 0 1 2.567 5.26 32.196 32.196 0 0 1 1.54 5.77c.341 1.99.512 4.04.512 6.134a36.26 36.26 0 0 1-.513 6.134 32.247 32.247 0 0 1-1.54 5.766 29.235 29.235 0 0 1-2.567 5.262c-1.03 1.652-2.23 3.198-3.607 4.613s-2.927 2.7-4.652 3.832a30.32 30.32 0 0 1-5.696 2.91 36.038 36.038 0 0 1-6.747 1.845c-2.427.425-5.027.647-7.806.647-2.777 0-5.381-.222-7.808-.647a35.993 35.993 0 0 1-6.748-1.846 30.405 30.405 0 0 1-5.697-2.91 27.6 27.6 0 0 1-4.65-3.83 27.58 27.58 0 0 1-3.607-4.614 29.252 29.252 0 0 1-2.572-5.262 32.606 32.606 0 0 1-1.537-5.766 36.26 36.26 0 0 1-.514-6.134c0-2.093.171-4.144.514-6.134zm-.565 135.61l155.114-144.161c3.42-3.194 6.842-6.408 10.21-9.664a340.64 340.64 0 0 0 9.892-9.918c3.207-3.363 6.305-6.795 9.246-10.318 2.94-3.521 5.722-7.13 8.285-10.859 2.568-3.726 4.922-7.564 7.004-11.543 2.085-3.977 3.906-8.09 5.403-12.37a83.93 83.93 0 0 0 3.474-13.337 84.401 84.401 0 0 0 1.227-14.451c0-4.716-.416-9.279-1.22-13.653a68.652 68.652 0 0 0-3.547-12.523c-1.55-3.966-3.457-7.705-5.687-11.186s-4.79-6.702-7.642-9.63a60 60 0 0 0-9.405-7.863 61.248 61.248 0 0 0-10.989-5.88c-3.906-1.607-8.047-2.845-12.388-3.685s-8.883-1.274-13.595-1.274c-6.008 0-11.644.624-16.9 1.81-5.263 1.185-10.141 2.927-14.638 5.155s-8.607 4.945-12.325 8.078-7.047 6.68-9.974 10.58c-2.927 3.896-5.454 8.138-7.575 12.66s-3.84 9.317-5.14 14.324a94.283 94.283 0 0 0-2.657 15.563 105.071 105.071 0 0 0-.137 16.381h-80.902v-16.426c0-10.036 1.016-19.864 2.953-29.378a147.335 147.335 0 0 1 8.47-27.495 148.535 148.535 0 0 1 13.406-24.989 148.949 148.949 0 0 1 17.751-21.85 148.008 148.008 0 0 1 21.517-18.088 144.702 144.702 0 0 1 24.694-13.694 142.251 142.251 0 0 1 27.29-8.678 142.37 142.37 0 0 1 29.3-3.032l.899.003.898.008c.297.007.594.009.891.015.3.006.597.01.894.02.297.006.594.014.892.023s.594.021.891.03c.295.01.592.019.885.03.3.013.597.028.89.038a301.115 301.115 0 0 0-18.633-11.915 298.693 298.693 0 0 0-19.533-10.549 297.51 297.51 0 0 0-20.366-9.114 297.609 297.609 0 0 0-65.434-18.051 301.002 301.002 0 0 0-23.035-2.69 303.983 303.983 0 0 0-23.535-.913c-20.708 0-40.93 2.102-60.458 6.096a298.113 298.113 0 0 0-56.31 17.48 299.366 299.366 0 0 0-50.962 27.66A301.642 301.642 0 0 0 87.87 87.915a301.03 301.03 0 0 0-36.63 44.406 299.133 299.133 0 0 0-27.662 50.949A297.283 297.283 0 0 0 6.1 239.586C2.104 259.106.005 279.33.005 300.027c0 20.717 2.1 40.943 6.095 60.463a297.49 297.49 0 0 0 17.478 56.321 299.293 299.293 0 0 0 27.662 50.957 301.312 301.312 0 0 0 36.63 44.4 301.69 301.69 0 0 0 44.398 36.632 299.222 299.222 0 0 0 50.961 27.655 297.442 297.442 0 0 0 56.317 17.483c19.52 3.996 39.746 6.093 60.463 6.093 10.42 0 20.71-.53 30.855-1.567a299.84 299.84 0 0 0 29.96-4.599 298.78 298.78 0 0 0 28.906-7.49 296.714 296.714 0 0 0 27.696-10.208 298.269 298.269 0 0 0 26.34-12.78 300.92 300.92 0 0 0 24.828-15.198 299.873 299.873 0 0 0 23.163-17.468 301.196 301.196 0 0 0 21.35-19.573H322.89v-76.645zm-79.345-141.747a18.162 18.162 0 0 0-2.513-3.068 18.366 18.366 0 0 0-3.121-2.446 19.935 19.935 0 0 0-3.686-1.788 23.528 23.528 0 0 0-4.197-1.098 28.41 28.41 0 0 0-4.66-.373c-1.615 0-3.158.127-4.623.373a23.084 23.084 0 0 0-4.156 1.098 19.685 19.685 0 0 0-3.65 1.788 18.19 18.19 0 0 0-3.087 2.446 18.098 18.098 0 0 0-2.487 3.068 19.686 19.686 0 0 0-1.831 3.656 22.922 22.922 0 0 0-1.135 4.212 28.111 28.111 0 0 0-.386 4.735c0 1.37.098 2.733.302 4.067.2 1.334.506 2.64.92 3.897a21.171 21.171 0 0 0 1.575 3.62 18.602 18.602 0 0 0 2.25 3.218c.861.992 1.848 1.9 2.951 2.704a18.673 18.673 0 0 0 3.684 2.072 21.796 21.796 0 0 0 4.443 1.33c1.61.308 3.35.47 5.23.47 1.89 0 3.643-.162 5.265-.47a22.088 22.088 0 0 0 4.482-1.33 18.806 18.806 0 0 0 3.722-2.072 17.997 17.997 0 0 0 2.987-2.704c.874-.992 1.633-2.072 2.277-3.218s1.173-2.358 1.594-3.62a23.98 23.98 0 0 0 .939-3.897c.205-1.334.306-2.696.306-4.067 0-1.661-.133-3.239-.391-4.735a22.8 22.8 0 0 0-1.15-4.212 19.233 19.233 0 0 0-1.854-3.656" fill="#c51f26"/>
</svg>
