<svg version="1.1" viewBox="0 0 709.42 263.62" xml:space="preserve" xmlns="http://www.w3.org/2000/svg"><defs><linearGradient id="SVGID_4_" x1="148.99" x2="169.56" y1="94.827" y2="59.204" gradientTransform="matrix(3.2023 0 0 3.2046 122.05 -2.597)" gradientUnits="userSpaceOnUse"><stop stop-color="#16217C" offset=".0051"/><stop stop-color="#0009FF" offset=".5468"/><stop stop-color="#00FF5B" offset="1"/></linearGradient></defs>
<style type="text/css">
	.st2{fill:url(#Vector_7_1_);}
	.st3{fill:url(#Vector_8_1_);}
	.st4{fill:url(#Vector_9_1_);}
</style>

<g transform="scale(1.6313)"><g fill="#f2f2f2">
	
		<path id="Vector" class="st0" d="m189.7 30.8-9 13.5c-4.9-3.5-10.1-4.9-14.8-4.9-5.5 0-8 2-8 4.7 0 2.9 3.1 3.9 7.8 5.7l5.3 2.1c12.5 4.9 19.5 10.1 19.5 21.5 0 13.5-11.3 21.7-26.4 21.7-10.9 0-20.9-3.5-28.1-9.6l9.4-13.7c5.3 4.1 12.1 6.8 18.5 6.8 4.9 0 8.2-1.6 8.2-5.3s-4.9-5.1-11.9-7.8l-5.5-2.1c-11.7-4.5-15.2-10.9-15.2-19.1 0-10.1 8.6-20.7 26.7-20.7 11.2-0.4 19.2 3.7 23.5 7.2z"/>
		<path class="st0" d="m264.7 59.1c0 21.3-13.7 35.1-31.4 35.1-7.8 0-14.1-2.1-18.3-6.6v27.1h-18.7v-89.3h17.8v6.2c4.5-4.9 11.3-7.8 19.5-7.8 17.4 0 31.1 13.9 31.1 35.3zm-18.8 0c0-11.3-7.2-18-16-18-9 0-16.2 6.4-16.2 18 0 11.3 7.4 18 16.2 18 8.8-0.2 16-6.8 16-18z" Googl="true"/>
		<path class="st0" d="m337.5 59.1c0 21.3-15.6 35.7-35.5 35.7s-35.5-14.4-35.5-35.7 15.6-35.9 35.5-35.9 35.5 14.5 35.5 35.9zm-52.3 0c0 11.3 7.8 18 16.6 18 9 0 16.8-6.6 16.8-18 0-11.3-7.8-18-16.8-18-8.8 0.1-16.6 6.5-16.6 18z" stroke-width=".9998"/>
		<path class="st0" d="m382.6 41.4c-14.1 1-20.7 9.2-20.7 24.4v27.1h-18.7v-67.5h17.8v10.9c3.3-6.2 9.8-10.7 21.7-10.9z"/>
		<path class="st0" d="m416.7 67.9c0 7 3.1 9.4 10 9.4 1 0 2.5-0.2 3.1-0.2v15.6c-2.5 0.8-5.9 1.4-9.8 1.4-14.1 0-22.3-6.1-22.3-21.5v-31.4h-11.3v-16h11.3v-15h18.7v15h13.7v16h-13.7z"/>
	
	
	
		
			
				</g><linearGradient id="Vector_7_1_" x1="-15.58" x2="70.403" y1="21.087" y2="-129.49" gradientTransform="translate(0,126.58)" gradientUnits="userSpaceOnUse">
				<stop stop-color="#16217C" offset="0"/>
				<stop stop-color="#16217C" offset=".0042341"/>
				<stop stop-color="#0009FF" offset=".5689"/>
				<stop stop-color="#00FF5B" offset="1"/>
			</linearGradient>
			<path class="st2" d="M 61.3,55.4 42.9,2.9 C 48.8,1.2 55,0 61.5,0 67.9,0 74.2,1 80,2.9 Z" fill="url(#Vector_7_1_)"/>
			
				<linearGradient id="Vector_8_1_" x1="5.1894" x2="91.173" y1="32.948" y2="-117.63" gradientTransform="translate(0,126.58)" gradientUnits="userSpaceOnUse">
				<stop stop-color="#16217C" offset="0"/>
				<stop stop-color="#16217C" offset=".0042341"/>
				<stop stop-color="#0009FF" offset=".5689"/>
				<stop stop-color="#00FF5B" offset="1"/>
			</linearGradient>
			<path class="st3" d="m122.6 61.3c0 34-27.5 61.3-61.3 61.3s-61.3-27.3-61.3-61.3c0-18 7.6-34 19.9-45.3l31.6 70.7h19.5l31.7-70.7c12.3 11.3 19.9 27.3 19.9 45.3z" fill="url(#Vector_8_1_)"/>
		
		
			<linearGradient id="Vector_9_1_" x1="61.3" x2="61.3" y1="-123.56" y2="-40.845" gradientTransform="translate(0,126.58)" gradientUnits="userSpaceOnUse">
			<stop stop-color="#EBF5F7" offset="0"/>
			<stop stop-color="#fff" offset=".9973"/>
			<stop stop-color="#fff" offset="1"/>
		</linearGradient>
		<path class="st4" d="m102.7 16-31.7 70.7h-19.5l-31.6-70.7c6.4-5.9 14.2-10.5 22.8-13.3l18.5 52.5 18.6-52.7c8.6 3 16.4 7.6 22.9 13.5z" fill="url(#Vector_9_1_)"/>
	
</g><g transform="scale(1.051 .95149)" fill="#d8d8d8" aria-label="HOCKEY"><path d="m243.31 264.42v-22.94h-21.5v22.94h-10.33v-53.514h10.33v21.307h21.5v-21.307h10.33v53.514z" stroke-width="1.069"/><path d="m320.71 237.42q0 8.3556-3.2189 14.698-3.2189 6.3426-9.2127 9.7228-5.9938 3.3422-13.986 3.3422-12.284 0-19.276-7.4061-6.9558-7.444-6.9558-20.357 0-12.875 6.9558-20.091 6.9558-7.2162 19.35-7.2162 12.395 0 19.35 7.2921 6.9928 7.2921 6.9928 20.015zm-11.137 0q0-8.6594-3.9958-13.559-3.9959-4.9374-11.211-4.9374-7.3257 0-11.322 4.8994-3.9959 4.8614-3.9959 13.597 0 8.8113 4.0699 13.901 4.1068 5.0513 11.174 5.0513 7.3258 0 11.285-4.9374 3.9958-4.9374 3.9958-14.015z" stroke-width="1.0989"/><path d="m359.18 256.37q9.7972 0 13.613-10.179l9.4303 3.684q-3.0456 7.7479-8.9533 11.546-5.871 3.76-14.09 3.76-12.476 0-19.301-7.2921-6.7883-7.3301-6.7883-20.471 0-13.179 6.5682-20.243t19.044-7.0642q9.1 0 14.824 3.798 5.7242 3.76 8.0359 11.09l-9.5404 2.6966q-1.2109-4.0258-4.7702-6.3806-3.5226-2.3927-8.3295-2.3927-7.3388 0-11.155 4.7095-3.7795 4.7095-3.7795 13.787 0 9.2291 3.8895 14.09 3.9262 4.8614 11.302 4.8614z" stroke-width="1.0943"/><path d="m423.31 264.42-16.445-24.573-5.655 5.0513v19.522h-9.5875v-53.514h9.5875v24.269l20.638-24.269h11.18l-19.565 22.636 21.158 30.878z" stroke-width="1.0299"/><path d="m448.1 264.42v-53.514h30.781v8.6594h-22.585v13.445h20.891v8.6594h-20.891v14.091h23.724v8.6594z" stroke-width=".95219"/><path d="m519.27 242.47v21.952h-10.945v-21.952l-18.688-31.561h11.503l12.583 22.636 12.731-22.636h11.503z" stroke-width="1.1022"/></g><path d="m575.6 188.73v74.889h133.82v-74.889zm128.58 69.646h-123.34v-64.4h123.34z" fill="url(#SVGID_4_)" stroke-width="3.2035"/><path transform="matrix(3.2023 0 0 3.2046 122.05 -2.597)" d="m149.67 72.602h7.38v7.147h3.226v-16.713h-3.226v6.64h-7.38v-6.64h-3.226v16.713h3.226z" fill="#d8d8d8"/><path d="m669.81 199.41h-18.567v53.559h18.567c16.3 0 26.835-10.511 26.835-26.778 0-16.267-10.536-26.781-26.835-26.781zm-8.2364 9.38h7.6472c10.456 0 16.947 6.6656 16.947 17.401s-6.4911 17.401-16.947 17.401h-7.6472z" fill="#d8d8d8" stroke-width="3.2035"/></svg>
