<svg version="1.1" viewBox="0 0 776.63 264.46" xml:space="preserve" xmlns="http://www.w3.org/2000/svg">
<style type="text/css">
	.st2{fill:url(#Vector_7_1_);}
	.st3{fill:url(#Vector_8_1_);}
	.st4{fill:url(#Vector_9_1_);}
</style>

<g><g transform="scale(1.6313)"><g fill="#202f35">
	
		<path id="Vector" class="st0" d="m189.7 30.8-9 13.5c-4.9-3.5-10.1-4.9-14.8-4.9-5.5 0-8 2-8 4.7 0 2.9 3.1 3.9 7.8 5.7l5.3 2.1c12.5 4.9 19.5 10.1 19.5 21.5 0 13.5-11.3 21.7-26.4 21.7-10.9 0-20.9-3.5-28.1-9.6l9.4-13.7c5.3 4.1 12.1 6.8 18.5 6.8 4.9 0 8.2-1.6 8.2-5.3s-4.9-5.1-11.9-7.8l-5.5-2.1c-11.7-4.5-15.2-10.9-15.2-19.1 0-10.1 8.6-20.7 26.7-20.7 11.2-0.4 19.2 3.7 23.5 7.2z"/>
		<path class="st0" d="m264.7 59.1c0 21.3-13.7 35.1-31.4 35.1-7.8 0-14.1-2.1-18.3-6.6v27.1h-18.7v-89.3h17.8v6.2c4.5-4.9 11.3-7.8 19.5-7.8 17.4 0 31.1 13.9 31.1 35.3zm-18.8 0c0-11.3-7.2-18-16-18-9 0-16.2 6.4-16.2 18 0 11.3 7.4 18 16.2 18 8.8-0.2 16-6.8 16-18z" Googl="true"/>
		<path class="st0" d="m337.5 59.1c0 21.3-15.6 35.7-35.5 35.7s-35.5-14.4-35.5-35.7 15.6-35.9 35.5-35.9 35.5 14.5 35.5 35.9zm-52.3 0c0 11.3 7.8 18 16.6 18 9 0 16.8-6.6 16.8-18 0-11.3-7.8-18-16.8-18-8.8 0.1-16.6 6.5-16.6 18z" stroke-width=".9998"/>
		<path class="st0" d="m382.6 41.4c-14.1 1-20.7 9.2-20.7 24.4v27.1h-18.7v-67.5h17.8v10.9c3.3-6.2 9.8-10.7 21.7-10.9z"/>
		<path class="st0" d="m416.7 67.9c0 7 3.1 9.4 10 9.4 1 0 2.5-0.2 3.1-0.2v15.6c-2.5 0.8-5.9 1.4-9.8 1.4-14.1 0-22.3-6.1-22.3-21.5v-31.4h-11.3v-16h11.3v-15h18.7v15h13.7v16h-13.7z"/>
	
	
	
		
			
				</g><linearGradient id="Vector_7_1_" x1="-15.58" x2="70.403" y1="21.087" y2="-129.49" gradientTransform="translate(0,126.58)" gradientUnits="userSpaceOnUse">
				<stop stop-color="#16217C" offset="0"/>
				<stop stop-color="#16217C" offset=".0042341"/>
				<stop stop-color="#0009FF" offset=".5689"/>
				<stop stop-color="#00FF5B" offset="1"/>
			</linearGradient>
			<path class="st2" d="M 61.3,55.4 42.9,2.9 C 48.8,1.2 55,0 61.5,0 67.9,0 74.2,1 80,2.9 Z" fill="url(#Vector_7_1_)"/>
			
				<linearGradient id="Vector_8_1_" x1="5.1894" x2="91.173" y1="32.948" y2="-117.63" gradientTransform="translate(0,126.58)" gradientUnits="userSpaceOnUse">
				<stop stop-color="#16217C" offset="0"/>
				<stop stop-color="#16217C" offset=".0042341"/>
				<stop stop-color="#0009FF" offset=".5689"/>
				<stop stop-color="#00FF5B" offset="1"/>
			</linearGradient>
			<path class="st3" d="m122.6 61.3c0 34-27.5 61.3-61.3 61.3s-61.3-27.3-61.3-61.3c0-18 7.6-34 19.9-45.3l31.6 70.7h19.5l31.7-70.7c12.3 11.3 19.9 27.3 19.9 45.3z" fill="url(#Vector_8_1_)"/>
		
		
			<linearGradient id="Vector_9_1_" x1="61.3" x2="61.3" y1="-123.56" y2="-40.845" gradientTransform="translate(0,126.58)" gradientUnits="userSpaceOnUse">
			<stop stop-color="#EBF5F7" offset="0"/>
			<stop stop-color="#fff" offset=".9973"/>
			<stop stop-color="#fff" offset="1"/>
		</linearGradient>
		<path class="st4" d="m102.7 16-31.7 70.7h-19.5l-31.6-70.7c6.4-5.9 14.2-10.5 22.8-13.3l18.5 52.5 18.6-52.7c8.6 3 16.4 7.6 22.9 13.5z" fill="url(#Vector_9_1_)"/>
	
</g><g fill="#424b4c"><g transform="scale(1.0179 .98244)" aria-label="ALKAPALLO"><path d="m289.59 241.93h-23.644l-4.6174 12.578h-10.509l21.017-55.409h12.26l21.017 55.409h-10.907zm-3.264-8.9164-8.5183-23.565-8.5979 23.565z" stroke-width="1.1395"/><path d="m319.37 199.1h10.509v46.174h23.326v9.2348h-33.834z" stroke-width="1.1395"/><path d="m387.41 228.83-6.9178 7.108v18.569h-10.623v-55.409h10.623v23.121l22.082-23.121h13.279l-21.066 22.674 22.77 32.734h-12.084z" stroke-width="1.1563"/><path d="m463.62 241.93h-23.644l-4.6175 12.578h-10.509l21.017-55.409h12.26l21.017 55.409h-10.907zm-3.264-8.9164-8.5183-23.565-8.5979 23.565z" stroke-width="1.1395"/><path d="m493.11 199.1h19.12q11.971 0 17.873 4.697 5.9024 4.6174 5.9024 13.454 0 8.9164-5.8192 13.852-5.8192 4.9358-16.959 4.9358h-9.1445v18.47h-10.973zm19.203 27.784q6.2349 0 9.1445-2.1495 2.9928-2.1495 2.9928-7.2446 0-4.9358-2.9096-7.0057-2.9096-2.0699-9.3108-2.0699h-8.1469v18.47z" stroke-width="1.1644"/><g stroke-width="1.1395"><path d="m580.83 241.93h-23.644l-4.6174 12.578h-10.509l21.017-55.409h12.26l21.017 55.409h-10.907zm-3.264-8.9164-8.5183-23.565-8.5979 23.565z"/><path d="m610.61 199.1h10.509v46.174h23.326v9.2348h-33.834z"/><path d="m660.52 199.1h10.509v46.174h23.326v9.2348h-33.834z"/></g><path d="m734.73 255.47q-8.8693 0-15.252-3.5029t-9.6982-9.9513q-3.3156-6.4484-3.3156-15.206 0-8.7572 3.3156-15.206 3.3156-6.4484 9.6982-9.9513t15.252-3.5029q8.8693 0 15.252 3.5029 6.3826 3.5029 9.6982 9.9513 3.3156 6.4484 3.3156 15.206 0 8.7572-3.3156 15.206-3.3156 6.4484-9.6982 9.9513-6.3826 3.5029-15.252 3.5029zm0-9.7125q7.7918 0 12.268-4.8562 4.4761-4.9358 4.4761-14.091 0-9.1552-4.4761-14.011-4.4761-4.9358-12.268-4.9358-7.7917 0-12.268 4.9358-4.4761 4.8562-4.4761 14.011 0 9.1552 4.4761 14.091 4.4761 4.8562 12.268 4.8562z" stroke-width="1.1628"/></g><g transform="scale(.96103 1.0405)" stroke-width="1.0406" aria-label="J"><path d="m240.07 187.08v44.854c0.13631 9.9019-3.7331 11.872-10.74 14.356l3.6743 7.8688c15.562-3.2855 18.697-11.466 18.697-22.734v-44.345z" fill="#424b4c" stroke-width="1.0406"/></g></g></g></svg>
