<svg version="1.1" viewBox="0 0 796.92 265.62" xml:space="preserve" xmlns="http://www.w3.org/2000/svg"><defs><linearGradient id="SVGID_4_" x1="148.99" x2="169.56" y1="94.827" y2="59.204" gradientTransform="matrix(3.2023 0 0 3.2046 209.54 -.598)" gradientUnits="userSpaceOnUse"><stop stop-color="#16217C" offset=".0051"/><stop stop-color="#0009FF" offset=".5468"/><stop stop-color="#00FF5B" offset="1"/></linearGradient></defs>
<style type="text/css">
	.st2{fill:url(#Vector_7_1_);}
	.st3{fill:url(#Vector_8_1_);}
	.st4{fill:url(#Vector_9_1_);}
</style>

<g><g><path d="m688.84 232.06h23.633v22.903h10.331v-53.558h-10.331v21.279h-23.633v-21.279h-10.331v53.558h10.331z" fill="#d8d8d8" stroke-width="3.2035"/><path d="m757.31 201.41h-18.567v53.559h18.567c16.3 0 26.835-10.511 26.835-26.778s-10.536-26.781-26.835-26.781zm-8.2365 9.38h7.6473c10.456 0 16.947 6.6656 16.947 17.401s-6.4912 17.401-16.947 17.401h-7.6473z" fill="#d8d8d8" stroke-width="3.2035"/><path d="m383.63 228.92a22.224 22.224 0 0 1-22.224 22.224 22.224 22.224 0 0 1-22.224-22.224 22.224 22.224 0 0 1 22.224-22.224 22.224 22.224 0 0 1 22.224 22.224z" fill="none" opacity=".998" stroke="#d8d8d8" stroke-width="9.5517"/><path d="m316.43 228.92a22.224 22.224 0 0 1-22.224 22.224 22.224 22.224 0 0 1-22.224-22.224 22.224 22.224 0 0 1 22.224-22.224 22.224 22.224 0 0 1 22.224 22.224z" fill="none" opacity=".998" stroke="#d8d8d8" stroke-width="9.5517"/><g fill="#d8d8d8"><path d="m570.13 255.92h33.684v-9.4961h-23.218v-44.504h-10.467z" stroke-width="3.2355"/><path d="m618.62 255.92h33.684v-9.4961h-23.218v-44.504h-10.467z" stroke-width="3.2355"/><path d="m544.7 244h-24.067l-4.7002 12.357h-10.697l21.393-54.436h12.479l21.393 54.436h-11.102zm-3.3224-8.7598-8.6708-23.151-8.7518 23.151z" stroke-width="1.1395"/><path d="m230.93 255.92v-21.283h22.399v-9.4993h-22.399v-13.718h24.483v-9.4993h-35.024v54z" stroke-width="3.2355"/><path d="m425.84 211.48h14.734v-9.376l-39.799-0.179v9.555h14.734l5e-4 44.003h10.331z" stroke-width="3.2035"/><g transform="scale(.95222 1.0502)" stroke-width="1.0236" aria-label="B"><path d="m501.88 243.69q4.434 0 7.8667-0.85819 3.4328-0.85819 5.8643-2.6461 2.36-1.7164 3.7903-4.5055 1.2158-2.2885 1.5018-3.7188 0.28606-1.3588 0.28606-2.9322 0-4.577-1.9309-8.0813-2.0024-3.5758-6.0073-4.9346 6.2219-2.2885 6.2219-11.3-0.28606-3.5758-2.0024-6.3649-1.7879-2.8606-5.2206-4.5055-3.2182-1.5734-8.2243-1.5734h-25.317v51.42zm-12.801-42.48h12.444q4.3625 0 6.0073 1.4303 1.6449 1.4303 1.6449 4.1479 0 2.5746-1.8594 4.0764-1.7879 1.5018-5.1491 1.5018h-13.087zm0 33.684v-13.803h13.803q3.0752 0 5.2922 1.5018 2.2885 1.5018 2.2885 5.2922 0 3.5758-2.217 5.2922t-5.5067 1.7164z" fill="#d8d8d8" stroke-width="1.0236"/></g></g></g><g transform="scale(1.6313)"><g fill="#f2f2f2">
	
		<path id="Vector" class="st0" d="m189.7 30.8-9 13.5c-4.9-3.5-10.1-4.9-14.8-4.9-5.5 0-8 2-8 4.7 0 2.9 3.1 3.9 7.8 5.7l5.3 2.1c12.5 4.9 19.5 10.1 19.5 21.5 0 13.5-11.3 21.7-26.4 21.7-10.9 0-20.9-3.5-28.1-9.6l9.4-13.7c5.3 4.1 12.1 6.8 18.5 6.8 4.9 0 8.2-1.6 8.2-5.3s-4.9-5.1-11.9-7.8l-5.5-2.1c-11.7-4.5-15.2-10.9-15.2-19.1 0-10.1 8.6-20.7 26.7-20.7 11.2-0.4 19.2 3.7 23.5 7.2z"/>
		<path class="st0" d="m264.7 59.1c0 21.3-13.7 35.1-31.4 35.1-7.8 0-14.1-2.1-18.3-6.6v27.1h-18.7v-89.3h17.8v6.2c4.5-4.9 11.3-7.8 19.5-7.8 17.4 0 31.1 13.9 31.1 35.3zm-18.8 0c0-11.3-7.2-18-16-18-9 0-16.2 6.4-16.2 18 0 11.3 7.4 18 16.2 18 8.8-0.2 16-6.8 16-18z" Googl="true"/>
		<path class="st0" d="m337.5 59.1c0 21.3-15.6 35.7-35.5 35.7s-35.5-14.4-35.5-35.7 15.6-35.9 35.5-35.9 35.5 14.5 35.5 35.9zm-52.3 0c0 11.3 7.8 18 16.6 18 9 0 16.8-6.6 16.8-18 0-11.3-7.8-18-16.8-18-8.8 0.1-16.6 6.5-16.6 18z" stroke-width=".9998"/>
		<path class="st0" d="m382.6 41.4c-14.1 1-20.7 9.2-20.7 24.4v27.1h-18.7v-67.5h17.8v10.9c3.3-6.2 9.8-10.7 21.7-10.9z"/>
		<path class="st0" d="m416.7 67.9c0 7 3.1 9.4 10 9.4 1 0 2.5-0.2 3.1-0.2v15.6c-2.5 0.8-5.9 1.4-9.8 1.4-14.1 0-22.3-6.1-22.3-21.5v-31.4h-11.3v-16h11.3v-15h18.7v15h13.7v16h-13.7z"/>
	
	
	
		
			
				</g><linearGradient id="Vector_7_1_" x1="-15.58" x2="70.403" y1="21.087" y2="-129.49" gradientTransform="translate(0,126.58)" gradientUnits="userSpaceOnUse">
				<stop stop-color="#16217C" offset="0"/>
				<stop stop-color="#16217C" offset=".0042341"/>
				<stop stop-color="#0009FF" offset=".5689"/>
				<stop stop-color="#00FF5B" offset="1"/>
			</linearGradient>
			<path class="st2" d="M 61.3,55.4 42.9,2.9 C 48.8,1.2 55,0 61.5,0 67.9,0 74.2,1 80,2.9 Z" fill="url(#Vector_7_1_)"/>
			
				<linearGradient id="Vector_8_1_" x1="5.1894" x2="91.173" y1="32.948" y2="-117.63" gradientTransform="translate(0,126.58)" gradientUnits="userSpaceOnUse">
				<stop stop-color="#16217C" offset="0"/>
				<stop stop-color="#16217C" offset=".0042341"/>
				<stop stop-color="#0009FF" offset=".5689"/>
				<stop stop-color="#00FF5B" offset="1"/>
			</linearGradient>
			<path class="st3" d="m122.6 61.3c0 34-27.5 61.3-61.3 61.3s-61.3-27.3-61.3-61.3c0-18 7.6-34 19.9-45.3l31.6 70.7h19.5l31.7-70.7c12.3 11.3 19.9 27.3 19.9 45.3z" fill="url(#Vector_8_1_)"/>
		
		
			<linearGradient id="Vector_9_1_" x1="61.3" x2="61.3" y1="-123.56" y2="-40.845" gradientTransform="translate(0,126.58)" gradientUnits="userSpaceOnUse">
			<stop stop-color="#EBF5F7" offset="0"/>
			<stop stop-color="#fff" offset=".9973"/>
			<stop stop-color="#fff" offset="1"/>
		</linearGradient>
		<path class="st4" d="m102.7 16-31.7 70.7h-19.5l-31.6-70.7c6.4-5.9 14.2-10.5 22.8-13.3l18.5 52.5 18.6-52.7c8.6 3 16.4 7.6 22.9 13.5z" fill="url(#Vector_9_1_)"/>
	
</g><path d="m663.1 190.73v74.889h133.82v-74.889zm128.58 69.646h-123.34v-64.4h123.34z" fill="url(#SVGID_4_)" stroke-width="3.2035"/></g></svg>
