<svg xmlns="http://www.w3.org/2000/svg" height="232.12" width="600">
    <path fill="#f07f00" d="M482.972 147.145c0-29.445 48.852-39.401 50.994-8.149v93.083h66.032v-89.975c0-7.057.126-14.996-3.066-29.74-14.702-67.25-97.493-63.848-126.1-21.885-23.018-38.35-77.709-37.72-108.204-12.517V59.186h-60.656v113.498h-20.036c-18.062 0-29.907-10.71-29.907-32.806v-21.255h31.125V59.186H252.03V.002l-31 59.184h-71.493l-43.644 89.47-34.654-89.47H-.002L80.354 232.12h53.136l57.168-110.096v24.321c0 49.776 29.572 85.775 83.338 85.775h88.547v-84.977c0-30.117 53.976-39.862 53.976-5.964v90.898h66.452v-84.934z"/>
</svg>
