<svg width="380.57mm" height="105.83mm" version="1.1" viewBox="0 0 380.57 105.83" xmlns="http://www.w3.org/2000/svg">
 <g transform="translate(20.95 -229.81)" fill="#e60000" stroke-width="1.0627">
  <path d="m287.49 316.49v19.151h72.124v-20.723h-37.623l15.622-11.017c13.539-9.8378 21.091-17.446 21.091-32.135v-0.26269c0-17.314-13.671-29.25-33.589-29.25-17.705 0-27.339 6.9513-37.103 19.674l17.054 14.297c7.1607-8.2638 11.978-11.805 18.096-11.805 6.1192 0 10.154 3.5421 10.154 9.3128 0 5.5082-3.2541 9.8367-11.717 16.526l-34.109 26.235z"/>
  <path d="m256.23 277.62c1.5346 7.0427 1.4676 10.845 1.4676 14.214v43.022h-31.607v-44.503c-1.0425-14.944-24.433-10.198-24.433 3.8917v40.589h-31.808v-43.44c0-16.212-25.864-11.553-25.864 2.8524v40.618l-42.434 0.0522c-25.745 0-39.914-17.214-39.914-41.012v-13.243l-29.054 50.235c-1.5367 2.6558-4.2265 3.9864-6.9152 3.9864-2.6908 0-5.3817-1.3306-6.9184-3.9864l-38.62-66.781c-3.0745-5.3158 0.76838-11.96 6.9174-11.96h22.246l13.701 23.693c0.59406 1.0266 1.6334 1.5409 2.6738 1.5409 1.0393 0 2.0776-0.51437 2.6728-1.5409l13.702-23.693 36.054 0.0321 12.934-22.377 0.01205 22.377 14.893 4e-3v28.469h-14.907v10.168c0 10.558 5.6676 15.675 14.32 15.675h9.6242v-54.317h29.058v8.9833c14.6-12.051 40.786-12.343 51.813 5.9705 13.698-20.047 53.356-21.674 60.385 10.479" Googl="true"/>
 </g>
</svg>
