<svg width="732.66mm" height="400mm" version="1.1" viewBox="0 0 732.66 400" xmlns="http://www.w3.org/2000/svg">
 <g transform="translate(-198.17 -75.142)" fill="#fd3">
  <path d="m821.56 110.69c-27.313-6.3916-67.451 3.0807-78.257 24.896-0.14888 0.2979-0.44687 0.49427-0.77863 0.50781-0.35878-0.0137-0.64997-0.14897-0.82603-0.43333-11.253-17.997-29.067-27.862-50.239-27.862-0.34512 0-0.69738 0-1.0427 6e-3 -21.287 0.32499-41.823 10.772-51.81 25.404l-0.60262-0.0268c1.9026-8.8224 3.1755-19.148 3.5276-24.131h-72.563l-0.25724 198.58h68.48l0.2709-103.03c0.18301-18.796 12.038-29.297 23.109-29.636 0.17619-6e-3 0.35877-6e-3 0.53491-6e-3 8.714 0 20.394 6.4255 20.394 24.984v107.69h74.749v-102.67c0.18302-18.796 12.099-29.297 23.224-29.643 0.17618-6e-3 0.35877-6e-3 0.54165-6e-3 8.7546 0 20.475 6.4526 20.475 24.957v107.37h74.736v-116.07c0-59.434-33.624-76.185-53.658-80.877z" stroke-width=".67708"/>
  <path d="m352.8 109.04c0 27.266-10.725 80.762-36.732 113.76l-44.085-115.27-73.808 9.865 73.118 190.25h74.397c23.461-26.406 43.556-58.689 56.678-90.613 0 0 23.996-50.023 23.996-107.97l-73.565-0.0136z" stroke-width=".67708"/>
  <path d="m434.95 209.22c0 58.926 34.66 98.413 91.446 98.413h33.752v-67.254l-25.77-0.0128c-19.574 0-30.069-15.925-30.069-38.6v-25.546h42.277c1.1917-3.4531 11.24-35.276 14.415-67.166l-59.529-0.0136c5.8364-15.106 5.9718-29.358 6.0869-33.895h-72.732l0.12883 134.07z" stroke-width=".67708"/>
  <path d="m450.7 323.69c-50.659 0-77.917 40.035-78.091 76.466-0.16852 35.383 19.568 74.987 75.134 74.987 24.82 0 40.772-24.056 40.772-24.056v19.885h30.652v-76.779h-61.44c0.93588 9.5322-1.9704 21.694-6.3623 30.081h22.191s-5.0876 13.39-24.268 13.39c-20.528 0-31.487-17.095-31.487-38.183-5e-5 -21.087 9.7041-38.182 31.487-38.182 13.282 0 20.951 7.4815 25.853 18.622h44.027c-2.9964-34.923-32.495-56.231-68.466-56.231z" stroke-linecap="round" stroke-linejoin="round" stroke-width="7.5667"/>
  <path d="m603.74 323.69c-49.77 0-76.189 33.903-76.189 75.726 0 41.823 26.123 75.728 76.189 75.728 48.883 0 76.186-33.905 76.186-75.728 0-41.823-26.12-75.726-76.186-75.726zm0 37.605c21.096 0 32.102 17.067 32.102 38.121 0 21.054-11.505 38.123-32.102 38.123-21.096 0-32.102-17.069-32.102-38.123 0-21.054 11.131-38.121 32.102-38.121z" stroke-linecap="round" stroke-linejoin="round" stroke-width="7.8067"/>
  <path d="m688.51 327.47h42.014v107.89h65.121c-1.8262 15.551-2.905 20.473-7.9502 35.611h-99.186z" stroke-linecap="round" stroke-linejoin="round" stroke-width="6.5235"/>
  <path d="m801.54 327.47v143.5h62.873c36.848 0 66.423-27.87 66.423-71.749 0-18.12-7.6083-71.751-66.423-71.751zm41.126 36.097h22.111c22.207 0 26.708 27.127 26.708 35.896 0 21.952-14.422 35.896-28.335 35.896h-20.485z" stroke-linecap="round" stroke-linejoin="round" stroke-width="6.5235"/>
 </g>
</svg>
