<?xml version="1.0" encoding="UTF-8" standalone="no"?>
<!-- Created with Inkscape (http://www.inkscape.org/) -->
<svg xmlns:rdf="http://www.w3.org/1999/02/22-rdf-syntax-ns#" xmlns="http://www.w3.org/2000/svg" height="497.24" width="600" version="1.1" xmlns:cc="http://creativecommons.org/ns#" xmlns:xlink="http://www.w3.org/1999/xlink" xmlns:dc="http://purl.org/dc/elements/1.1/">
 <defs>
  <radialGradient id="radialGradient3098" gradientUnits="userSpaceOnUse" cy="0" cx="0" gradientTransform="matrix(-85.329386,-41.30568,41.376053,-85.474655,541.93741,131.1303)" r="1">
   <stop stop-color="#007caa" offset="0"/>
   <stop stop-color="#1e2d50" offset="1"/>
  </radialGradient>
  <radialGradient id="radialGradient3100" gradientUnits="userSpaceOnUse" cy="0" cx="0" gradientTransform="matrix(-85.502983,-41.319393,41.319393,-85.502983,359.49922,131.08016)" r="1">
   <stop stop-color="#007caa" offset="0"/>
   <stop stop-color="#1e2d50" offset="1"/>
  </radialGradient>
  <radialGradient id="radialGradient3102" gradientUnits="userSpaceOnUse" cy="0" cx="0" gradientTransform="matrix(-85.503437,-41.319544,41.319544,-85.503437,408.17103,131.08016)" r="1">
   <stop stop-color="#007caa" offset="0"/>
   <stop stop-color="#1e2d50" offset="1"/>
  </radialGradient>
  <radialGradient id="radialGradient3104" gradientUnits="userSpaceOnUse" cy="0" cx="0" gradientTransform="matrix(-85.495149,-41.315626,41.315626,-85.495149,491.69375,131.07879)" r="1">
   <stop stop-color="#007caa" offset="0"/>
   <stop stop-color="#1e2d50" offset="1"/>
  </radialGradient>
  <radialGradient id="radialGradient3106" gradientUnits="userSpaceOnUse" cy="0" cx="0" gradientTransform="matrix(-85.501478,-41.31864,41.31864,-85.501478,468.35159,131.0818)" r="1">
   <stop stop-color="#007caa" offset="0"/>
   <stop stop-color="#1e2d50" offset="1"/>
  </radialGradient>
  <radialGradient id="radialGradient3108" gradientUnits="userSpaceOnUse" cy="0" cx="0" gradientTransform="matrix(-85.501777,-41.31879,41.31879,-85.501777,436.20437,131.0818)" r="1">
   <stop stop-color="#007caa" offset="0"/>
   <stop stop-color="#1e2d50" offset="1"/>
  </radialGradient>
  <radialGradient id="radialGradient3110" gradientUnits="userSpaceOnUse" cy="0" cx="0" gradientTransform="matrix(-85.501931,-41.31879,41.31879,-85.501931,385.11244,131.0818)" r="1">
   <stop stop-color="#007caa" offset="0"/>
   <stop stop-color="#1e2d50" offset="1"/>
  </radialGradient>
 </defs>
 <metadata>
  <rdf:RDF>
   <cc:Work rdf:about="">
    <dc:format>image/svg+xml</dc:format>
    <dc:type rdf:resource="http://purl.org/dc/dcmitype/StillImage"/>
    <dc:title/>
   </cc:Work>
  </rdf:RDF>
 </metadata>
 <g fill-rule="nonzero" transform="matrix(0.99999833,0,0,0.99999833,-346.87742,-347.21952)">
  <path d="m928.96,506.7-55.038,3.4655,0-114.66c0-10.113-7.7526-19.075-17.387-20.001l-482.5-22.92c-14.923-1.4714-27.157,7.6705-27.157,20.42v174.53c0,12.749,12.234,23.101,27.157,23.101h25.349l-11.069,112.27c-0.80663,8.2381,4.1228,14.938,11.039,14.938h529.01c10.195,0,18.515-8.1858,18.515-18.269v-156.78c0-9.5003-8.0588-16.708-17.918-16.103" fill="#ace413"/>
  <path d="m756.9,462.71c0-23.109,38.345-30.928,40.048-6.3709v73.06h51.804v-70.633c0-5.5493,0.11203-11.778-2.4199-23.355-11.495-52.775-76.518-50.116-98.962-17.201-18.082-30.069-61.02-29.599-84.95-9.814v-14.743h-47.569v89.118h-15.722c-14.183,0-23.46-8.4174-23.46-25.752v-16.7h24.416v-46.665h-24.416v-46.434l-24.378,46.434h-56.106l-34.252,70.244-27.201-70.244h-55.927l63.067,135.75h41.698l44.903-86.414v19.098c0,39.069,23.221,67.316,65.434,67.316h69.43v-66.689c0-23.639,42.393-31.302,42.393-4.6755v71.335h52.17v-66.659z" fill="#0080df"/>
  <path d="m565.16,621.63-15.169,0.3585,30.308-47.345c1.3743-2.1361,1.6282-4.9742,0.65726-7.297-0.95601-2.3153-2.9576-3.6896-5.1759-3.5552l-62.634,3.5776c-2.629,0.14938-4.8398,2.6216-5.2506,5.8481l-3.0772,24.318c-0.239,1.9195,0.18672,3.8315,1.21,5.2431,0.99335,1.4266,2.4647,2.2182,4.0033,2.1809l11.487-0.38838-28.202,45.821c-1.2174,1.9792-1.4415,4.6307-0.55269,6.8638,0.87385,2.2332,2.6888,3.6522,4.6755,3.6298l64.351-0.0374c2.7859,0,5.146-2.4274,5.5942-5.7435l3.3983-25.723c0.26141-1.9643-0.23153-3.9659-1.307-5.4597-1.068-1.4788-2.6514-2.3228-4.317-2.2929" fill="#0080df"/>
  <path d="m473.36,615.01,22.362-36.03c1.2473-2.024,1.4938-4.7278,0.61244-6.9609-0.85891-2.2108-2.6813-3.5402-4.683-3.4207l-24.677,1.3967c-1.6282,0.0971-3.1668,1.2025-4.1078,2.9651l-5.3925,10.09,0.6946-5.0414c0.25394-1.8821-0.14937-3.7718-1.0904-5.1535-0.94854-1.3892-2.3377-2.1361-3.8016-2.0614l-21.04,1.21c-2.3826,0.13444-4.3842,2.4722-4.7651,5.5493l-9.1642,76.219c-0.22406,1.8075,0.17179,3.6224,1.068,5.0116,0.91119,1.3817,2.2332,2.1809,3.6224,2.1809l20.801-0.0149c2.4498,0,4.5112-2.3377,4.8473-5.4672l1.0382-9.5153,3.5477,11.039c0.75435,2.3751,2.5693,3.9211,4.6008,3.9211l25.947-0.0149c1.8,0,3.473-1.1726,4.4066-3.1145,0.94107-1.9494,1.0083-4.3618,0.17179-6.3634l-14.997-36.425z" fill="#0080df"/>
  <path d="m908.71,552.87c-0.0523-4.4738-3.6821-7.902-8.1335-7.6406l-35.888,2.0315c-3.0921,0.17178-5.863,2.1884-7.1252,5.146l-9.9783,23.534-2.0838-20.48c-0.41826-4.0108-3.6971-6.8862-7.6107-6.6547l-34.08,1.9419c-3.1892,0.19419-6.0124,2.5095-6.9759,5.7584l-28.045,94.242c-0.6946,2.3377-0.32863,4.8622,1.0158,6.819,1.322,1.9643,3.4581,3.1294,5.751,3.1294l31.063-0.0224c3.3684,0,6.3336-2.4199,7.1701-5.8705l3.2489-13.242,1.7776,12.436c0.54522,3.824,3.6971,6.6547,7.4165,6.6547l19.643-0.0224c2.9651,0,5.6614-1.7626,6.9385-4.5112l7.2149-15.423-0.77676,11.405c-0.14938,2.2033,0.61991,4.3767,2.0763,5.9751,1.4863,1.6282,3.5701,2.5469,5.7136,2.5469l34.125-0.0224c2.1585-0.0299,4.2572-0.85892,5.7809-2.4199,1.5386-1.561,2.3751-3.6298,2.3751-5.8033l-0.61244-99.507z" fill="#0080df"/>
  <path d="m627.52,611.3c-0.74688,5.7062-4.0257,9.2165-8.5817,9.1568-4.556-0.0747-6.9161-3.6821-6.1319-9.4256,0.63485-4.7128,3.5626-9.3958,8.6265-9.2912,3.3684,0.0747,6.9908,2.6066,6.0871,9.5601m-1.8149-51.736c-12.391,0.70954-24.326,6.1842-33.64,15.326-9.6273,9.4779-15.931,22.444-17.783,36.605-1.8373,13.967,0.65725,26.156,7.2896,35.305,7.1402,9.8962,18.523,15.371,32.138,15.371,12.525,0,24.752-4.6979,34.416-13.339,10.501-9.3659,17.223-22.466,19.359-37.815,2.0091-14.482-0.94107-27.709-8.2829-37.135-7.8273-10.06-19.77-15.132-33.498-14.318" fill="#0080df"/>
  <path d="m731.16,608.24c-0.83651,6.0497-4.5261,9.7767-9.6646,9.7095-5.1386-0.0747-7.7974-3.9286-6.9161-9.9933,0.72448-5.0041,4.0108-9.9634,9.7244-9.8588,3.8016,0.0747,7.8647,2.7784,6.8564,10.143m35.036-39.615c-8.7908-10.598-22.16-15.924-37.553-15.035-13.877,0.7917-27.216,6.6398-37.598,16.319-10.755,10.031-17.783,23.758-19.882,38.741-2.0614,14.721,0.75435,27.59,8.1335,37.262,7.9767,10.471,20.681,16.252,35.918,16.252,14.019,0,27.732-4.9892,38.554-14.101,11.778-9.9485,19.329-23.848,21.742-40.093,2.2481-15.371-1.083-29.382-9.3136-39.346" fill="#0080df"/>
 </g>
 <g transform="matrix(1.0000418,0,0,1.0000418,0.05572933,359.9645)">
  <path fill="url(#radialGradient3098)" d="m462.98,0.11007,0,20.878,33.454,0c5.3701,0,8.3018,3.8632,6.5482,8.5483l-39.673,107.73h136.61v-14.055h-62.606c-5.3701,0-8.3018-3.781-6.6304-8.5209l42.77-114.58h-110.47z"/>
  <path fill="url(#radialGradient3100)" d="m-0.054727,21.755,0,91.538,8.7675,0,0-33.892,23.124,33.892,10.028,0-24.549-36.358,24.713-24.823-13.617,0-19.7,22.905,0-53.345-8.7675,0.0822z"/>
  <path fill="url(#radialGradient3102)" d="m167.08,53.811c-2.822,1.8083-5.0413,4.3016-6.6304,7.5346h-0.35618v-9.0963h-6.466v61.181h8.8497v-39.317c0-5.1783,1.4521-9.3977,4.3564-12.521,2.6851-2.9042,6.1373-4.3838,10.411-4.3838,5.0961,0,8.7949,2.0823,11.096,6.2743,1.3973,2.6029,2.1097,6.0277,2.1097,10.274v39.673h8.8497v-39.919c0-6.3017-1.2603-11.288-3.7536-14.987-3.781-5.4249-9.6991-8.1374-17.727-8.1374-3.781,0-7.3702,1.1233-10.74,3.4248"/>
  <path fill="url(#radialGradient3104)" d="m407.36,113.54c0.24659,0.24659,8.4661,0,8.7401,0v-91.648l-8.74-0.082v91.73z"/>
  <path fill="url(#radialGradient3106)" d="m347.12,50.812c-5.53,0-10.37,1.736-14.56,5.188l3.32,4.75c2.9-2.055,6.42-3.094,10.53-3.094,9.12,0,13.68,4.821,13.68,14.438v2.25h-13.21c-14.5,0-21.76,7.209-21.76,21.594,0,2.986,0.48,5.682,1.44,8.062,0.93,2.41,2.24,4.46,3.94,6.16,1.7,1.69,3.78,3.01,6.19,3.96,2.44,0.96,5.2,1.41,8.19,1.41,8.71,0,14.45-3.05,17.21-9.19-0.19,0.47-0.16,7.28-0.18,7.28h7l0.03-40.839c0-6.932-1.87-12.324-5.56-16.187-3.7-3.863-9.1-5.782-16.26-5.782zm0.63,30h12.34v14.282c0,4.466-1.18,7.936-3.62,10.376-2.44,2.38-5.78,3.56-10,3.56-8.17,0-12.22-4.66-12.22-14.03,0-4.959,1-8.593,3.03-10.812,2.03-2.275,5.54-3.376,10.47-3.376z"/>
  <path fill="url(#radialGradient3108)" d="m259.72,50.812c-5.54,0-10.37,1.736-14.56,5.188l3.34,4.75c2.9-2.055,6.39-3.094,10.5-3.094,9.12,0,13.66,4.821,13.66,14.438v2.25h-13.19c-14.5,0-21.72,7.209-21.72,21.594,0,2.986,0.44,5.682,1.37,8.062,0.96,2.41,2.28,4.46,3.97,6.16,1.7,1.69,3.78,3.01,6.22,3.96,2.44,0.96,5.14,1.41,8.16,1.41,8.74,0,14.45-3.05,17.22-9.19-0.17,0.47-0.13,7.28-0.16,7.28h6.97l0.06-40.839c0-6.932-1.86-12.324-5.56-16.187-3.73-3.863-9.13-5.782-16.28-5.782zm0.62,30h12.32v14.282c0,4.466-1.19,7.936-3.6,10.376-2.44,2.38-5.78,3.56-10,3.56-8.13,0-12.25-4.66-12.25-14.03,0-4.959,1.04-8.593,3.07-10.812,2.05-2.275,5.53-3.376,10.46-3.376z"/>
  <path fill="url(#radialGradient3110)" d="m93.938,50.812c-5.535,0-10.367,1.736-14.532,5.188l3.282,4.75c2.904-2.055,6.421-3.094,10.531-3.094,9.121,0,13.691,4.821,13.691,14.438v2.25h-13.222c-14.494,0-21.75,7.209-21.75,21.594,0,2.986,0.474,5.682,1.406,8.062,0.959,2.41,2.27,4.46,3.968,6.16,1.699,1.69,3.75,3.01,6.188,3.96,2.438,0.96,5.174,1.41,8.188,1.41,8.712,0,14.452-3.05,17.222-9.19-0.17,0.47-0.16,7.28-0.16,7.28h6.97l0.03-40.839c0-6.932-1.83-12.324-5.53-16.187s-9.13-5.782-16.282-5.782zm0.624,30h12.348v14.282c0,4.466-1.25,7.936-3.66,10.376-2.44,2.38-5.781,3.56-10,3.56-8.165,0-12.219-4.66-12.219-14.03,0-4.959,1.035-8.593,3.063-10.812,2.027-2.275,5.537-3.376,10.468-3.376z"/>
 </g>
</svg>
