<svg xmlns="http://www.w3.org/2000/svg" height="350.63" width="600">
    <path d="M582.087 159.478l-55.038 3.465V48.283c0-10.113-7.752-19.075-17.387-20l-482.5-22.92C12.24 3.89.005 13.032.005 25.782v174.53c0 12.748 12.234 23.1 27.157 23.1h25.35l-11.07 112.27c-.806 8.238 4.123 14.938 11.04 14.938h529.01c10.194 0 18.514-8.186 18.514-18.269v-156.78c0-9.5-8.059-16.708-17.918-16.103" fill="#ace413"/>
    <path d="M410.027 115.488c0-23.11 38.345-30.928 40.048-6.371v73.06h51.804v-70.633c0-5.55.112-11.778-2.42-23.355-11.495-52.775-76.518-50.116-98.962-17.201-18.082-30.07-61.02-29.6-84.95-9.814V46.43h-47.569v89.118h-15.722c-14.183 0-23.46-8.418-23.46-25.752v-16.7h24.416V46.432h-24.416V-.002l-24.378 46.434h-56.106l-34.252 70.244-27.2-70.244H30.931L94 182.182h41.698L180.6 95.768v19.098c0 39.069 23.221 67.316 65.434 67.316h69.43v-66.69c0-23.638 42.393-31.301 42.393-4.675v71.335h52.17v-66.659zM218.287 274.408l-15.169.358 30.308-47.345c1.375-2.136 1.628-4.974.658-7.297-.956-2.315-2.958-3.69-5.176-3.555l-62.634 3.578c-2.63.149-4.84 2.621-5.251 5.848l-3.077 24.318c-.24 1.92.187 3.831 1.21 5.243.993 1.426 2.465 2.218 4.003 2.18l11.487-.388-28.202 45.821c-1.217 1.98-1.441 4.631-.553 6.864.874 2.233 2.69 3.652 4.676 3.63l64.351-.037c2.786 0 5.146-2.428 5.594-5.744l3.398-25.723c.262-1.964-.231-3.966-1.307-5.46-1.068-1.478-2.65-2.322-4.317-2.293M126.487 267.788l22.362-36.03c1.248-2.024 1.494-4.728.613-6.961-.86-2.21-2.682-3.54-4.683-3.42l-24.677 1.396c-1.628.097-3.167 1.202-4.108 2.965l-5.393 10.09.695-5.041c.254-1.883-.15-3.772-1.09-5.154-.949-1.39-2.338-2.136-3.802-2.061l-21.04 1.21c-2.383.134-4.384 2.472-4.765 5.549l-9.164 76.219c-.224 1.807.172 3.622 1.068 5.012.91 1.381 2.233 2.18 3.622 2.18l20.801-.014c2.45 0 4.511-2.338 4.847-5.468l1.039-9.515 3.547 11.039c.755 2.375 2.57 3.921 4.601 3.921l25.947-.015c1.8 0 3.473-1.172 4.407-3.114.94-1.95 1.008-4.362.172-6.364l-14.997-36.425zM561.837 205.648c-.052-4.474-3.682-7.902-8.133-7.64l-35.888 2.03c-3.092.172-5.863 2.19-7.125 5.147l-9.979 23.534-2.084-20.48c-.418-4.011-3.697-6.887-7.61-6.655l-34.08 1.942c-3.19.194-6.013 2.51-6.976 5.758l-28.045 94.242c-.695 2.338-.329 4.862 1.016 6.82 1.322 1.964 3.458 3.129 5.75 3.129l31.064-.023c3.368 0 6.333-2.42 7.17-5.87l3.249-13.242 1.777 12.436c.546 3.824 3.697 6.654 7.417 6.654l19.643-.022c2.965 0 5.661-1.763 6.938-4.511l7.215-15.423-.777 11.405a8.097 8.097 0 0 0 2.077 5.975c1.486 1.628 3.57 2.547 5.713 2.547l34.125-.023c2.159-.03 4.258-.858 5.781-2.42a8.225 8.225 0 0 0 2.375-5.803l-.612-99.507z" fill="#0080df"/>
    <path d="M280.647 264.078c-.747 5.706-4.025 9.216-8.581 9.157-4.556-.075-6.917-3.683-6.132-9.426.635-4.713 3.562-9.396 8.626-9.291 3.369.074 6.991 2.606 6.087 9.56m-1.815-51.736c-12.39.71-24.326 6.184-33.64 15.326-9.627 9.478-15.93 22.444-17.783 36.605-1.837 13.967.658 26.156 7.29 35.305 7.14 9.896 18.523 15.37 32.138 15.37 12.525 0 24.752-4.697 34.416-13.338 10.501-9.366 17.223-22.466 19.359-37.815 2.01-14.482-.941-27.71-8.283-37.135-7.827-10.06-19.77-15.132-33.498-14.318M384.287 261.018c-.836 6.05-4.526 9.776-9.664 9.71-5.139-.075-7.798-3.93-6.916-9.994.724-5.004 4.01-9.963 9.724-9.859 3.802.075 7.865 2.779 6.856 10.143m35.036-39.615c-8.79-10.598-22.16-15.924-37.553-15.035-13.877.792-27.216 6.64-37.598 16.32-10.755 10.03-17.783 23.757-19.882 38.74-2.061 14.721.755 27.59 8.134 37.262 7.977 10.471 20.68 16.252 35.918 16.252 14.019 0 27.732-4.989 38.554-14.1 11.778-9.95 19.329-23.849 21.742-40.094 2.248-15.37-1.083-29.382-9.314-39.346" fill="#0080df"/>
</svg>
