<svg width="389.827" height="236.093" viewBox="0 0 292.37 177.07" xmlns="http://www.w3.org/2000/svg">
    <path d="M187.813 41.03c-6.58-.092-13.204 4.259-15.08 10.703-1.09 3.415-1.256 8.379 1.145 14.15l39.32 96.967c1.174 2.746 2.895 5.362 5.07 7.472.27.264.549.521.834.768h.002c.285.247.577.486.876.715h.001c.3.229.605.448.917.658h.002c.312.209.631.409.956.597h.002c.325.188.655.366.993.532h.001c.338.166.682.32 1.032.461h.001c.35.142.706.272 1.068.389h.001c.362.116.73.22 1.103.309h.002c.497.085.999.161 1.504.227h.002c.505.065 1.014.121 1.525.165h.001c1.022.088 2.053.129 3.08.114 2.054.03 4.12-.166 6.11-.506 2.99-.715 5.619-2.318 7.792-4.429 2.175-2.11 3.895-4.726 5.07-7.472l39.32-96.967c2.4-5.772 2.235-10.736 1.145-14.15-2.31-7.93-11.81-12.69-19.57-9.9-6.3 1.66-8.274 7.106-10.7 14l-29.168 78.765-29.168-78.765c-2.425-6.894-4.4-12.34-10.7-14a13.817 13.817 0 0 0-4.49-.803z" fill="#e44d1b" stroke-width="1.333"/>
    <path d="M145.242-.002c-2.259.032-4.509.546-6.581 1.621-5.8 2.45-9.169 8.61-9.529 14.7-.55 8.14-.21 16.29-.33 24.44v89.662c-.025 11.811-.408 27.297 8.46 37.131 5.95 6.89 15.45 9 24.17 9.37 9.07.365 18.98.27 27.9-2.93 4.31-1.45 8.599-3.98 10.769-8.141 3.16-6.03.41-14.52-6.21-16.8-8.29-2.19-16.76 3.911-24.93.561-5.49-2.68-5.83-9.6-5.97-14.91v-69.69h28.103c13.797 0 13.714-24.307 0-24.307h-28.107c-.324-10.043 1.1-20.343-1.605-30.154-2.49-6.412-9.362-10.648-16.14-10.55z" fill="#599a70" stroke-width="1.333"/>
    <path d="M104.51 40.707l.001.003a13.809 13.809 0 0 0-4.44.802c-6.3 1.66-8.275 7.105-10.7 14l-29.169 78.764-29.168-78.765c-2.425-6.894-4.4-12.34-10.7-14a13.817 13.817 0 0 0-4.49-.802c-6.58-.092-13.203 4.26-15.08 10.703C-.324 54.827-.49 59.79 1.91 65.562l39.32 96.967c1.175 2.746 2.895 5.362 5.07 7.473.271.263.549.52.834.767h.002c.285.247.577.486.876.715h.001a17.985 17.985 0 0 0 1.874 1.255h.002c.325.188.655.366.993.532h.001c.338.166.681.32 1.031.461h.002c.35.142.706.272 1.068.389h.003c.362.116.73.22 1.103.309h.001c.498.085 1 .161 1.505.227h.001c.506.065 1.014.121 1.525.165h.002c1.022.088 2.052.129 3.079.115 2.054.028 4.12-.167 6.111-.507 2.99-.715 5.618-2.318 7.792-4.429 2.174-2.11 3.894-4.726 5.07-7.472l39.32-96.967c.076-.184.142-.366.213-.548h23.64c13.798 0 13.715-24.306 0-24.306z" fill="#eda401" stroke-width="1.333"/>
</svg>
