<svg width="472.252" height="449.348" viewBox="0 0 124.95 118.89" xmlns="http://www.w3.org/2000/svg">
    <g stroke-width=".116">
        <path d="M59.513-.006c2.899.592 28.513 3.824 31.704 5.345.744 1.41 2.257 5.776 2.749 6.47 2.05.432 10.39 1.955 10.914 2.248.293.837 2.21 4.446 2.653 4.863 1.75.431 9.988 1.884 11.016 2.592.588 3.377 2.788 37.128-11.904 59.196-14.684 22.09-40.37 36.774-47.117 38.18h-.047c-6.748-1.406-32.424-16.09-47.112-38.18C-2.331 58.638-.125 24.888.457 21.512c1.034-.708 9.263-2.16 11.021-2.592.443-.417 2.352-4.026 2.65-4.863.521-.293 8.861-1.816 10.921-2.248.483-.694 2.008-5.06 2.745-6.47C30.974 3.819 56.559.6 59.513-.006z" fill="#25398d"/>
        <path d="M59.503-.006C56.604.586 30.99 3.818 27.799 5.34c-.744 1.41-2.257 5.776-2.749 6.47-2.05.432-10.39 1.955-10.914 2.248-.293.837-2.21 4.446-2.653 4.863-1.75.431-9.988 1.884-11.016 2.592-.588 3.377-2.788 37.128 11.904 59.196 14.684 22.09 40.37 36.774 47.117 38.18h.047c6.748-1.406 32.424-16.09 47.112-38.18 14.7-22.07 12.494-55.82 11.912-59.196-1.034-.708-9.263-2.16-11.021-2.592-.443-.417-2.352-4.026-2.65-4.863-.521-.293-8.862-1.816-10.921-2.248-.483-.694-2.008-5.06-2.745-6.47C88.042 3.819 62.457.6 59.503-.006zm0 8.63c2.527.524 24.4 3.272 27.117 4.572.622 1.205 1.93 4.935 2.34 5.534 1.767.364 8.883 1.675 9.335 1.921.253.72 1.88 3.806 2.256 4.166 1.513.353 8.55 1.612 9.417 2.198.511 2.889 2.388 31.741-10.165 50.606-12.56 18.87-34.503 31.436-40.277 32.63h-.03c-5.774-1.195-27.713-13.76-40.275-32.63C6.667 58.758 8.536 29.905 9.06 27.017c.863-.587 7.904-1.847 9.409-2.199.372-.36 2.004-3.445 2.265-4.166.451-.246 7.564-1.557 9.33-1.921.405-.599 1.719-4.329 2.344-5.534 2.726-1.304 24.616-4.057 27.095-4.572z" fill="#fbb41b"/>
        <path d="M27.023 27.564c-.88.353-8.38 4.928-9.124 5.65-.214 6.367 1.567 23.545 8.133 36.948.832 1.699 1.743 3.295 2.71 4.719 1.876 3.105 1.971 2.862 4.157-.106 1.521-1.949 3.692-4.851 4.245-5.442.745 2.395 5.616 17.382 12.46 26.445 3.033 4.006 7.69 7.816 7.673 6.25-.173-15.306-.64-81.555-.15-84.258-2.02-.045-8.633.777-9.94 1.421-.11 2.43.911 47.858.278 53.03-4.634-10.823-6.226-39.376-5.307-51.15-2.503.466-8.633 2.816-9.513 3.662-1.124 2.168.413 25.882 2.02 33.846-.554.833-2.13 3.077-2.384 3.44-3.167-5.477-6.201-22.385-5.258-34.454" fill="#fbb41b"/>
    </g>
    <path d="M124.953 76.164a18.899 18.521 0 0 1-18.899 18.521 18.899 18.521 0 0 1-18.899-18.521 18.899 18.521 0 0 1 18.899-18.521 18.899 18.521 0 0 1 18.899 18.521z" fill="#25398d"/>
    <path d="M91.756 68.378v3.673h4.085v13.208h5.017V72.05h2.386l6.347 13.208h3.9l8.226-16.881h-5.441l-4.692 10.264-4.65-10.264h-5.455zM62.687 17.974c.464-.178 6.84 1.267 10.338 2.343 6.474 1.992 13.073 4.99 18.272 8.297 4.095 2.606 6.195 4.606 7.402 7.05.834 1.686.95 2.165.95 3.935 0 2.34-.523 3.946-2.016 6.195-1.21 1.823-4.269 4.726-6.804 6.458l-1.865 1.275 1.559 1.148c1.725 1.27 3.046 3 3.655 4.786l.4 1.173-2.381 2.358c-2.004 1.985-2.58 2.76-3.633 4.898-1.598 3.24-2.133 5.718-1.964 9.087.07 1.396.206 2.728.302 2.959.368.88-8.826 10.62-14.278 15.128-3.4 2.81-7.06 5.332-10.49 7.225-.11.06-.005-84.1.554-84.314zm13.616 61.809c2.19-2.595 5.278-7.12 6.475-9.488 3.424-6.773 1.08-11.591-5.02-10.32-1.871.39-4.774 1.469-5.851 2.175l-.62.406V85.11l1.493-1.46c.821-.804 2.406-2.544 3.523-3.867zm4.606-32.393c7.238-4.765 8.018-5.528 8.018-7.853 0-2.248-1.821-4.032-6.601-6.466-2.765-1.408-8.243-3.693-9.776-4.078l-.729-.183v24.161l1.805-.987c.992-.543 4.27-2.61 7.283-4.594z" fill="#fbb41b"/>
</svg>
