<?xml version="1.0" encoding="UTF-8" standalone="no"?>
<svg xmlns="http://www.w3.org/2000/svg" height="207.46" width="600" version="1.1" viewBox="0 0 158.75 54.891713">
 <g transform="translate(87.782 -221.51)" fill="#e5004b">
  <path d="m38.716 228.41h-6.721c-1.868 0-2.148 0.29-2.148 2.18 0 8.68-0.005 17.35 0.005 26.03 0.005 1.85-0.331 3.61-1.151 5.26-1.374 2.78-3.528 4.4-6.705 4.47-3.233 0.06-5.575-1.4-7.072-4.24-0.896-1.69-1.308-3.51-1.303-5.43 0.005-8.75 0.005-17.51 0-26.25 0-1.69-0.316-2.01-1.971-2.02h-6.8321c-1.7361 0.01-2.0314 0.3-2.0314 2.05 0 8.76-0.0254 17.5 0.0204 26.25 0.0102 1.7 0.1374 3.43 0.4989 5.08 1.2219 5.63 4.1494 10.09 9.4492 12.68 3.849 1.89 7.958 2.22 12.168 1.71 9.256-1.11 14.933-8.06 15.641-16.62 0.402-4.87 0.239-24.24 0.239-29.01 0-1.82-0.3-2.13-2.087-2.14"/>
  <path d="m-19.114 230.16c0.585-1.28 0.336-1.66-1.08-1.67-2.835-0.01-5.671 0.01-8.507-0.01-1.166-0.01-1.94 0.46-2.378 1.57-0.555 1.41-7.107 16.76-9.78 23.03l-0.362 0.53-0.381-0.47c-1.334-3.16-8.004-19-9.995-23.76-0.331-0.79-0.733-1.47-1.736-1.45-0.952 0.02-1.324 0.67-1.639 1.42-3.228 7.7-6.599 15.71-9.837 23.4-0.193 0.46-0.397 0.86-0.539 0.86l-0.484-0.77c-3.167-7.45-6.512-15.28-9.653-22.74-0.479-1.14-1.232-1.64-2.444-1.62l-8.294 0.01c-1.649 0-1.888 0.39-1.191 1.91 6.777 14.86 13.558 29.73 20.335 44.59 0.32 0.7 0.677 1.38 1.558 1.39 0.931 0.02 1.313-0.65 1.644-1.41 3.33-7.54 6.67-15.07 10.015-22.6l0.585-0.53 0.565 0.56c1.456 3.26 2.892 6.53 4.338 9.79 1.904 4.3 3.819 8.6 5.713 12.9 0.341 0.77 0.779 1.36 1.725 1.27 0.795-0.08 1.105-0.67 1.39-1.3 2.989-6.57 5.983-13.13 8.971-19.69 3.819-8.41 7.642-16.81 11.461-25.21"/>
  <path d="m-13.174 229.59c-0.58-1.22-1.904-1.56-2.78-0.72l-0.773 1.24c-6.746 14.83-13.482 29.66-20.213 44.49-0.56 1.23-0.26 1.67 1.136 1.67h8.395c1.538 0 1.981-0.31 2.546-1.73 0.942-2.37 1.904-4.72 2.805-7.1 0.229-0.6 0.545-0.78 1.166-0.77l12.112-0.01c0.7689-0.02 1.1202 0.25 1.3849 0.96 0.9114 2.4 1.8991 4.79 2.8512 7.19 0.3054 0.76 0.7738 1.42 1.6597 1.43l9.6684 0.02c0.7688-0.01 1.0081-0.49 0.7331-1.24z"/>
  <path d="m51.234 221.51c-3.609 0-6.537 2.92-6.537 6.53v8.64c0 0.49 0.397 0.88 0.886 0.88h18.848c3.488 0 6.333-2.73 6.527-6.17l0.01-0.04v-8.96c0-0.49-0.392-0.88-0.881-0.88zm10.753 2.31c3.702 0 5.661 2.07 5.661 5.83 0 3.75-1.939 5.91-5.61 5.91-2.882 0-3.381-0.44-3.381-1.21v-9.51c0-0.68 0.337-1.02 3.33-1.02zm-12.219 0.06c1.176 0 1.374 0.19 1.374 0.44v4.6h3.437v-4.6c0-0.25 0.178-0.44 1.37-0.44 1.176 0 1.369 0.19 1.369 0.44v10.7c0 0.25-0.157 0.45-1.369 0.45s-1.37-0.2-1.37-0.45v-4.2h-3.437v4.2c0 0.25-0.162 0.45-1.374 0.45-1.207 0-1.37-0.2-1.37-0.45v-10.7c0-0.25 0.178-0.44 1.37-0.44zm12.503 2.08-0.87 0.05v7.41l0.941 0.06c1.355 0 2.424-0.88 2.424-3.83 0-2.82-1.105-3.69-2.495-3.69z"/>
 </g>
</svg>
