<svg width="600" height="235.52" viewBox="0 0 158.75 62.315" xmlns="http://www.w3.org/2000/svg">
    <g fill="#fff">
        <path d="M126.978.002h31.769l-17.298 62.315H109.68zM79.808 47.99h9.548V35.778h.729c1.088 0 3.829-.06 5.32 2.35l5.865 9.862h10.274l-5.345-8.978c-1.765-3.01-3.217-4.622-4.36-5.45v-.1c3.222-1.142 6.747-3.896 6.747-9.506 0-6.95-4.98-10.533-13.802-10.533H79.809V25.42h-.096c-1.814-7.238-7.92-11.998-19.073-11.998H39.523l-3.218 14.116c-.675 2.907-1.248 6.595-1.248 6.595h-.102s-.726-4.1-1.4-7.011l-2.755-13.7H19.208l-2.754 13.7c-.675 2.91-1.4 7.011-1.4 7.011h-.107s-.569-3.688-1.244-6.595l-3.218-14.116H0L9.238 47.99h10.546l5.242-22.163h.103L30.37 47.99h10.38l7.689-28.701h.102v28.7h11.787c11.31 0 17.55-5.188 19.386-12.605h.093zm-18.702-7.837h-2.904V21.26h2.645c6.333 0 9.186 2.802 9.186 9.241 0 6.33-2.853 9.653-8.927 9.653m33.47-11.68h-5.22V20.74h4.907c3.272 0 4.622 1.296 4.622 3.89 0 2.39-1.401 3.841-4.309 3.841"/>
    </g>
</svg>
