<?xml version="1.0" encoding="UTF-8" standalone="no"?>
<svg xmlns="http://www.w3.org/2000/svg" xml:space="preserve" height="149.49" viewBox="0 0 599.99994 149.48999" width="600" version="1.1" y="0px" x="0px"><style type="text/css"><![CDATA[
	.st0{clip-path:url(#SVGID_4_);fill:#00345F;}
	.st1{clip-path:url(#SVGID_6_);fill:#00345F;}
	.st2{clip-path:url(#SVGID_8_);fill:#00345F;}
	.st3{clip-path:url(#SVGID_10_);fill:#00345F;}
	.st4{fill:#00345F;}
	.st5{clip-path:url(#SVGID_2_);fill:#00345F;}
]]></style><g stroke-width="2.1984" fill="#fff"><path d="m207.82 94.326h28.849v18.384h-52.22v-81.073h23.367z"/><path d="m243.97 31.637h23.369v81.07h-23.369z"/><path d="m272.45 31.637h25.075l13.999 42.726c1.9478 6.0895 3.5262 12.537 3.6471 13.023h0.24402c0.12531-0.48585 1.8247-7.059 3.6515-13.023l13.386-42.726h23.375l-30.184 81.065h-21.911z"/><path d="m383.84 62.676v-12.17h30.43v-18.869h-53.32v81.07h54.17v-18.87h-31.281v-13.634h27.141v-17.53z"/><path d="m77.858 58.202-4.4429-7.602c-1.2069-1.9873-3.3943-1.9873-4.2165-1.9873h-0.96729v9.5894h-6.7974v-9.8949h-0.50342l-0.12531 0.21764c-1.5147 6.2412-6.7292 9.6773-14.668 9.6773h-8.8023v-22.533h-0.49903l-0.1363 0.21324-5.8675 22.318h-7.5624l-4.0406-17.402h-0.45067l-0.12971 0.22203-3.9879 17.178h-7.6921l-6.9689-26.563h7.4877l2.4314 10.86c0.51442 2.2467 0.9519 5.1266 0.95849 5.1552l0.0374 0.24402h0.47924l0.12531-0.23742c0.002-0.033 0.55839-3.2382 1.0706-5.4872l2.0819-10.535h8.4704l2.0775 10.526c0.51882 2.2577 1.0728 5.463 1.0816 5.496l0.0396 0.23742h0.47925l0.11651-0.24402c0.007-0.0286 0.44628-2.9107 0.9585-5.153l2.4314-10.862h16.053c7.9582 0 12.946 3.1833 14.428 9.2046l0.055 0.21764h0.50342l0.0725-0.28798v-9.1321h11.26c4.7287 0 10.361 1.385 10.361 7.9823 0 4.6804-3.1415 6.516-5.0145 7.1909l-0.18467 0.0704v0.34954l0.11652 0.16268c1.0025 0.74525 2.1082 2.1544 3.2822 4.1923l3.867 6.6171zm-33.651-5.5773h2.5238c4.7529 0 7.1645-2.649 7.1645-7.868 0-5.2146-2.2731-7.5404-7.369-7.5404h-2.3215zm24.022-9.1716h4.3044c2.3259 0 3.601-1.1739 3.601-3.3042 0-2.2489-1.2575-3.3437-3.8406-3.3437h-4.0648z"/></g><path d="m109.23 0-40.621 149.49h75.635l40.62-149.49z" stroke-width="2.1984" fill="#f09"/><g stroke-width="2.1984" fill="#fff"><path d="m113.77 32.424-5.1596 18.88h11.5v60.689h21.399v-79.566z"/><path d="m600 34.805h-166.49v-3.1657h166.49z"/><path d="m600 112.68h-166.49v-3.1723h166.49z"/><path d="m450.71 83.253c7.7933 0 11.607-4.0934 11.607-11.95 0-7.8548-3.7548-11.381-11.893-11.381h-3.2448v23.331zm-12.744-30.617h12.346c14.852 0 21.683 7.5119 21.683 18.44 0 10.924-6.9425 19.462-22.026 19.462h-12.008z"/><path d="m480.42 52.636h9.2772v37.902h-9.2772z"/><path d="m498.57 71.531c0-10.302 7.6812-19.577 21.166-19.577 5.8631 0 9.6751 1.2531 12.636 3.3591l-3.9835 6.8282c-2.1632-1.4773-4.9508-2.6183-8.8243-2.6183-7.5097 0-11.269 4.7815-11.269 11.781 0 7.0018 3.1898 12.52 10.585 12.52 2.6754 0 4.7221-0.56938 5.8059-1.1937v-6.5468h-6.5995v-7.0546h15.362v18.666c-2.6754 1.596-6.826 3.5262-14.514 3.5262-13.366-0.002-20.366-9.3871-20.366-19.691z"/><path d="m541.31 71.531c0-10.302 7.6768-19.577 21.168-19.577 5.8652 0 9.6728 1.2531 12.632 3.3591l-3.9835 6.8282c-2.1544-1.4773-4.9486-2.6183-8.8199-2.6183-7.5097 0-11.267 4.7815-11.267 11.781 0 7.0018 3.1854 12.52 10.583 12.52 2.6754 0 4.7177-0.56938 5.8059-1.1937v-6.5468h-6.6039v-7.0546h15.367v18.666c-2.6755 1.596-6.826 3.5262-14.514 3.5262-13.368-0.002-20.368-9.3871-20.368-19.691z"/><path d="m586.26 52.636h9.2749v37.902h-9.2749z"/></g></svg>
