<?xml version="1.0" encoding="utf-8"?>
<!-- Generator: Adobe Illustrator 16.0.0, SVG Export Plug-In . SVG Version: 6.00 Build 0)  -->
<!DOCTYPE svg PUBLIC "-//W3C//DTD SVG 1.1//EN" "http://www.w3.org/Graphics/SVG/1.1/DTD/svg11.dtd">
<svg version="1.1"
	 id="svg2" xmlns:rdf="http://www.w3.org/1999/02/22-rdf-syntax-ns#" xmlns:cc="http://creativecommons.org/ns#" xmlns:dc="http://purl.org/dc/elements/1.1/" xmlns:svg="http://www.w3.org/2000/svg" xmlns:sodipodi="http://sodipodi.sourceforge.net/DTD/sodipodi-0.dtd" xmlns:inkscape="http://www.inkscape.org/namespaces/inkscape" inkscape:version="0.48.2 r9819" sodipodi:docname="WDR4_Logo_2012.svg"
	 xmlns="http://www.w3.org/2000/svg" xmlns:xlink="http://www.w3.org/1999/xlink" x="0px" y="0px" width="330.125px"
	 height="129.678px" viewBox="0 0 330.125 129.678" enable-background="new 0 0 330.125 129.678" xml:space="preserve">
<title  id="title3874">Logo WDR4 (2012)</title>
<sodipodi:namedview  id="namedview2995" showgrid="false" bordercolor="#666666" gridtolerance="10" fit-margin-top="0" inkscape:zoom="1.5157847" pagecolor="#ffffff" inkscape:cx="123.52927" objecttolerance="10" borderopacity="1" inkscape:cy="115.22757" guidetolerance="10" fit-margin-left="0" inkscape:window-width="1158" inkscape:current-layer="svg2" inkscape:pageopacity="0" inkscape:window-x="1681" inkscape:window-maximized="0" inkscape:pageshadow="2" fit-margin-right="0" fit-margin-bottom="0" inkscape:window-y="281" inkscape:window-height="733">
	</sodipodi:namedview>
<path id="path3848" sodipodi:nodetypes="ccccc" inkscape:connector-curvature="0" fill="#F4A019" d="M263.977,0h66.148l-36,129.678
	h-66.148L263.977,0z"/>
<path id="path3074" sodipodi:nodetypes="cccccccccccccccc" inkscape:connector-curvature="0" fill="#FFFFFF" d="M293.164,26.92
	l-12.881-0.269L258.415,57.98v9.626h21.868v9.259h12.881v-9.259h6.156V57.98h-6.156V26.92z M280.283,44.437V57.98h-9.051
	L280.283,44.437z"/>
<path id="rect2987" sodipodi:nodetypes="ccccccccsccccccccccsccsccccccccssscccsssscc" inkscape:connector-curvature="0" fill="#DADBDC" d="
	M0,27.88l19.344,71.906h21.75l11.063-46.531l11.219,46.531h21.219l16.563-61.5v61.5h23.969c37.954,0,41.063-27.313,41.063-27.313
	v27.313h19.375V74.755h4.813c3.554,0.004,6.941,2.611,10.063,7.875l10.156,17.156h20.781c0,0-12.043-24.34-19.5-29.969
	c0,0,14.038-3.602,14.031-19.75C225.9,33.032,212.369,27.88,199.563,27.88h-33.375v25.719c0,0-4.005-25.718-40.875-25.719H82.25
	l-9.594,44.063L64.125,27.88H40.063l-8.875,44.063l-9.25-44.063H0z M185.563,43.036h12.094c4.54,0,8.188,3.647,8.188,8.188
	s-3.647,8.188-8.188,8.188h-12.094V43.036z M120.719,44.255h9c8.982,0,16.188,7.236,16.188,16.219v7.063
	c0,8.982-7.205,16.219-16.188,16.219h-9V44.255z"/>
</svg>
