<svg xmlns="http://www.w3.org/2000/svg" width="330.125" height="129.678" viewBox="0 0 330.125 129.678"><title>Logo WDR5 (2012)</title><path fill="#77B31F" d="M263.977 0h66.148l-36 129.678h-66.148l36-129.678z"/><path fill="#DADBDC" d="M0 27.88l19.344 71.906h21.75l11.063-46.531 11.219 46.531h21.219l16.563-61.5v61.5h23.969c37.954 0 41.063-27.313 41.063-27.313v27.313h19.375v-25.031h4.813c3.554.004 6.941 2.611 10.063 7.875l10.156 17.156h20.781s-12.043-24.34-19.5-29.969c0 0 14.038-3.602 14.031-19.75-.009-17.035-13.54-22.187-26.346-22.187h-33.375v25.719s-4.005-25.718-40.875-25.719h-43.063l-9.594 44.063-8.531-44.063h-24.062l-8.875 44.063-9.25-44.063h-21.938zm185.563 15.156h12.094c4.54 0 8.188 3.647 8.188 8.188s-3.647 8.188-8.188 8.188h-12.094v-16.376zm-64.844 1.219h9c8.982 0 16.188 7.236 16.188 16.219v7.063c0 8.982-7.205 16.219-16.188 16.219h-9v-39.501z"/><path fill="#fff" d="M282.153 37.199h17.009v-11.426h-30.405v27.883c9.757-.316 16.884.483 16.776 6.73-.072 4.181-5.561 8.584-17.525 4.075l-1.162 11.054c12.514 5.237 32.367 1.394 32.985-14.671.124-9.325-3.225-16.326-17.678-17.385-.254-.629 0-6.26 0-6.26z"/></svg>