<svg version="1.1" viewBox="0 0 800 324.59" xml:space="preserve" xmlns="http://www.w3.org/2000/svg">
 <g transform="matrix(1.3333 0 0 1.3333 .0030933 .011253)" fill="#dadbdc" stroke-width="4.0844">
  <path d="m314.91 243.43v-56.773h32.675v8.1688h-23.281v15.112h20.422v7.3519h-20.422v17.971h23.69v8.1688z"/>
  <path d="m363.92 186.66h10.211l13.07 35.943c1.6338 4.4928 2.4506 8.1688 3.2675 9.3942 0.40844-1.2253 1.6338-5.3097 2.8591-9.3942l12.662-35.943h9.3942l-20.83 56.365h-8.9857z"/>
  <path d="m434.58 243.43v-56.773h32.267v8.1688h-22.873v15.112h20.422v7.3519h-20.42v17.971h23.69v8.1688z"/>
  <path d="m489.72 186.66h9.3942l23.281 33.084c3.2675 4.4929 4.9013 7.7604 5.7182 8.9857 0-0.81688-0.40844-4.0844-0.40844-8.1688v-33.901h8.5773v56.365h-8.9857l-24.506-35.534c-2.4506-3.2675-4.0844-6.5351-4.9013-7.7604 0 0.81688 0.40845 3.676 0.40845 6.9435v36.351h-8.5773z"/>
  <path d="m600 186.66v8.1688h-17.563v48.604h-9.8026v-48.604h-17.563v-8.1688z"/>
  <path d="m411.71 65.759h-22.87v-33.901h21.239c14.295 0 20.014 5.7182 20.014 17.155 0.40844 10.211-5.3097 16.746-18.38 16.746m-145.81 50.647h-12.67v-82.101h11.436c27.774 0 40.027 12.253 40.027 40.436 0.40844 27.366-12.253 41.661-38.802 41.661m177.67-28.595v-0.40844c13.887-4.9013 29.408-17.155 29.408-41.253 0-30.225-21.647-45.745-60.041-45.745h-65.36v52.28h-0.40844c-7.76-31.45-34.71-52.281-83.32-52.281h-91.9l-13.88 61.675c-2.8591 12.662-5.3097 28.591-5.3097 28.591h-0.40844s-3.2675-17.971-6.1266-30.633l-12.25-60.041h-50.648l-11.845 59.632c-2.859 12.662-6.126 30.633-6.126 30.633h-0.40844s-2.4506-15.929-5.3097-28.591l-13.888-61.674h-45.745l40.436 150.71h46.154l22.87-96.796h0.40844l22.873 96.801h45.337l33.49-124.99h0.40844v124.98h51.464c49.421 0 76.378-22.464 84.547-55.14h0.40844v55.14h41.661v-53.093h3.2675c4.9013 0 16.746-0.40844 23.281 10.211l25.732 42.886h44.929l-23.28-39.22c-8.99-13.066-15.52-20.009-20.42-23.685"/>
 </g>
</svg>
