<svg xmlns="http://www.w3.org/2000/svg" width="600.001" height="191.347">
    <path d="M488.727 40.472v70.683h10.26V77.484h27.96v33.67h10.26V40.473h-10.26v28.971h-27.96V40.472h-10.26zm62.276 0v70.683h15.327c11.526 0 20.02-2.867 25.48-8.58 5.46-5.744 8.19-14.652 8.19-26.708 0-12.119-2.73-21.05-8.19-26.794-5.46-5.744-13.954-8.601-25.48-8.601h-15.327zm10.26 7.846h4.851c8.628 0 14.63 1.995 18 5.971 3.404 3.945 5.108 11.132 5.108 21.578 0 10.352-1.704 17.515-5.108 21.492-3.405 3.945-9.405 5.928-18 5.928h-4.85V48.318z" style="text-align:start;line-height:125%;-inkscape-font-specification:DejaVu Sans Mono" font-size="145.247" font-weight="400" letter-spacing="0" word-spacing="0" fill="#999" font-family="DejaVu Sans Mono"/>
    <path fill="#d40055" d="M389.912 0h97.551l-53.115 191.347h-97.55z"/>
    <path d="M245.06 147.373h29.317v-37.5h2.24c3.34 0 11.756-.186 16.333 7.22l18.013 30.28h31.547l-16.412-27.57c-5.421-9.242-9.88-14.192-13.387-16.736v-.305c9.89-3.506 20.714-11.962 20.714-29.19 0-21.342-15.292-32.342-42.38-32.342H245.06v36.84h-.295c-5.569-22.225-24.318-36.84-58.566-36.84h-64.843l-9.88 43.343c-2.072 8.928-3.83 20.252-3.83 20.252h-.315s-2.23-12.591-4.302-21.529L94.573 41.23H58.979l-8.456 42.066c-2.073 8.938-4.302 21.529-4.302 21.529h-.325s-1.748-11.324-3.82-20.252l-9.88-43.343H0l28.365 106.142h32.382l16.097-68.054h.316l16.097 68.054h31.871l23.612-88.13h.314v88.131h36.193c34.729 0 53.89-15.931 59.528-38.708h.285v38.707zm-57.427-24.063h-8.918V65.293h8.122c19.447 0 28.208 8.604 28.208 28.375 0 19.437-8.76 29.642-27.412 29.642M290.406 87.44h-16.029V63.702h15.067c10.047 0 14.192 3.978 14.192 11.943 0 7.337-4.302 11.796-13.23 11.796" fill="#034b7a"/>
</svg>
