<svg width="600" height="274.12" version="1.1" viewBox="0 0 158.75 72.526" xmlns="http://www.w3.org/2000/svg">
 <g transform="translate(-26.458 -112.57)">
  <path d="m41.813 177.18h-0.47656c-0.25999 0-0.46218 0.11561-0.59246 0.34684l-0.90998 1.7799v3.7445l2.5568-4.9322c0.05781-0.15904 0.11561-0.28904 0.11561-0.43342 0-0.15876-0.07219-0.28903-0.17342-0.36122-0.13-0.10096-0.30314-0.14438-0.51999-0.14438m-14.185 0h-0.47656c-0.46235 0-0.6935 0.17342-0.6935 0.5056 0 0.13 0.04337 0.27438 0.11559 0.43342l3.1491 6.2692c0.10096 0.18781 0.24561 0.33219 0.46218 0.43314 0.1878 0.10124 0.38999 0.14438 0.6356 0.14438 0.23095 0 0.4478-0.0431 0.64999-0.14438 0.17342-0.10095 0.3178-0.23095 0.41876-0.40437l2.6146-4.8392 2.5568 4.8248c0.08657 0.17343 0.23123 0.31781 0.41903 0.40438 0.17315 0.0722 0.37533 0.12999 0.60656 0.12999 0.21657 0 0.43342-0.0578 0.62122-0.14438 0.21657-0.10123 0.36095-0.23122 0.43314-0.40437l0.28904-0.55705v-3.7331l-1.329 2.6-2.6146-4.8102c-0.10096-0.20219-0.23095-0.34657-0.41876-0.4478-0.17342-0.0865-0.37561-0.14438-0.56341-0.14438-0.23095 0-0.41876 0.0578-0.59218 0.17342-0.1878 0.0866-0.33218 0.23096-0.41876 0.41876l-2.629 4.8102-2.658-5.1711-0.24561-0.25999-0.33219-0.0868m12.206 2.1267-0.40438 0.79132v3.7331l0.40438-0.77999v-3.7445l-0.40438 0.79132v3.7331l0.40438-0.77999v-3.7445m10.718-2.1267h-3.2643c-1.2859 0-2.2968 0.21657-3.0624 0.66464-0.73684 0.44752-1.1124 1.0687-1.1124 1.8343v2.9034c0 0.67902 0.3178 1.2712 0.96807 1.7768 0.28876 0.23123 0.72218 0.41904 1.2709 0.54903 0.54903 0.11534 1.2134 0.18753 2.008 0.18753h1.1122c0.43342 0 0.64999-0.23095 0.64999-0.66437v-0.14438c0-0.43342-0.21657-0.64999-0.64999-0.64999h-1.3c-1.5168 0-2.268-0.54903-2.268-1.6468h8.6669c0.15904 0 0.28904-0.0722 0.36123-0.21657 0.08657-0.14438 0.13-0.30342 0.13-0.5056v-1.9068c0-0.69341-0.36123-1.2566-1.069-1.6612-0.66437-0.34656-1.4734-0.51998-2.4412-0.51998m-5.6911 3.308v-0.92463c0-0.30315 0.25999-0.53437 0.79437-0.70779 0.46218-0.14439 1.069-0.20219 1.82-0.20219h2.5424c0.62122 0 1.1844 0.0722 1.6468 0.25999 0.47657 0.17342 0.69314 0.36123 0.69314 0.59218v0.98244h-7.4967m12.336-5.4458h-0.4478c-0.43342 0-0.64999 0.20219-0.64999 0.6356v8.7535c0 0.43342 0.21657 0.66437 0.64999 0.66437h0.4478c0.43342 0 0.6356-0.23095 0.6356-0.66437v-8.7535c0-0.43341-0.20219-0.6356-0.6356-0.6356m4.5211 0h-0.46218c-0.43342 0-0.64999 0.20219-0.64999 0.6356v1.56h-0.60656c-0.43342 0-0.65026 0.2022-0.65026 0.65v0.15904c0 0.43314 0.21685 0.64998 0.65026 0.64998h0.60656v5.7345c0 0.43342 0.21657 0.66437 0.64999 0.66437h0.46218c0.43342 0 0.6356-0.23095 0.6356-0.66437v-5.7345h2.759c0.43342 0 0.64999-0.21684 0.64999-0.64998v-0.15904c0-0.4478-0.21657-0.65-0.64999-0.65h-2.759v-1.56c0-0.43341-0.20219-0.6356-0.6356-0.6356m20.613 0h-0.4478c-0.41903 0-0.64999 0.21657-0.64999 0.64998v1.5456h-5.1858c-1.4156 0-2.4702 0.24562-3.178 0.70781-0.6356 0.41903-0.93875 0.99682-0.95341 1.7478l-0.01438 3.1636c-0.01438 0.64999 0.27438 1.1556 0.83779 1.5312 0.70779 0.46218 1.8056 0.70752 3.3224 0.70752h2.6724c1.3434 0 2.4265-0.27438 3.2068-0.79437 0.69314-0.46218 1.04-1.0112 1.04-1.6322v-6.977c0-0.43341-0.21685-0.64998-0.64999-0.64998m-6.2836 8.5948c-0.88122 0-1.5168-0.0722-1.8634-0.23122-0.36122-0.14439-0.51999-0.43342-0.51999-0.86656v-2.8168c0-0.34684 0.17314-0.60683 0.54876-0.76559 0.37561-0.15904 0.96779-0.26 1.7912-0.26h5.2292v3.9434c0 0.30341-0.21685 0.54902-0.67903 0.72217-0.46218 0.18781-1.1122 0.27465-2.0078 0.27465h-2.499m16.337-6.457h-3.2646c-1.2856 0-2.2965 0.21657-3.0477 0.66464-0.73656 0.44752-1.1268 1.0687-1.1268 1.8343v2.9034c0 0.67902 0.3178 1.2712 0.98245 1.7768 0.28876 0.23123 0.72218 0.41904 1.2712 0.54903 0.54876 0.11534 1.1987 0.18753 2.0078 0.18753h1.1122c0.43342 0 0.6356-0.23095 0.6356-0.66437v-0.14438c0-0.43342-0.20219-0.64999-0.6356-0.64999h-1.3c-1.5168 0-2.2678-0.54903-2.2678-1.6468h8.6523c0.15904 0 0.28904-0.0722 0.37561-0.21657 0.07219-0.14438 0.13-0.30342 0.13-0.5056v-1.9068c0-0.69341-0.37561-1.2566-1.0834-1.6612-0.64999-0.34656-1.4587-0.51998-2.4412-0.51998m-5.6911 3.308v-0.92463c0-0.30315 0.26-0.53437 0.80875-0.70779 0.4478-0.14439 1.0546-0.20219 1.8202-0.20219h2.5278c0.6356 0 1.199 0.0722 1.6612 0.25999 0.46218 0.17342 0.69341 0.36123 0.69341 0.59218v0.98244h-7.5114m15.759-3.308h-0.67875c-1.1846 0-2.109 0.21657-2.788 0.64998-0.67875 0.41903-1.0109 1.0256-1.0256 1.8058l-0.01438 4.7955c0 0.43342 0.20219 0.66437 0.6356 0.66437h0.49122c0.41876 0 0.6356-0.23095 0.6356-0.66437v-4.7955c0-0.30342 0.11534-0.53464 0.37534-0.69341 0.30342-0.1878 0.83779-0.28903 1.5746-0.28903h0.79436c0.43342 0 0.66464-0.23123 0.66464-0.66437v-0.15904c0-0.43341-0.23122-0.64998-0.66464-0.64998m23.574 0h-0.49122c-0.24562 0-0.4478 0.11561-0.5778 0.34684l-2.6434 5.1711-2.6146-4.8102c-0.10096-0.20219-0.23096-0.34657-0.41876-0.4478-0.1878-0.0866-0.37562-0.14438-0.56341-0.14438-0.23124 0-0.41904 0.0578-0.59219 0.17342-0.1878 0.0866-0.33246 0.23095-0.41903 0.41876l-2.629 4.8102-2.6578-5.1711-0.24561-0.26-0.33218-0.0868h-0.47684c-0.46218 0-0.7078 0.17343-0.7078 0.50561 0 0.13 0.0578 0.27438 0.12999 0.43341l3.149 6.2692c0.10123 0.18781 0.24561 0.33219 0.4478 0.43314 0.20247 0.10124 0.40466 0.14438 0.64998 0.14438 0.23124 0 0.44781-0.0431 0.63562-0.14438 0.1878-0.10095 0.33218-0.23096 0.41903-0.40438l2.629-4.8392 2.5568 4.8248c0.0865 0.17343 0.23095 0.31781 0.40437 0.40437 0.18781 0.0722 0.39 0.13 0.62122 0.13 0.21657 0 0.43314-0.0578 0.62095-0.14438 0.21685-0.10123 0.36123-0.23123 0.43341-0.40437l3.2502-6.2692c0.0578-0.15903 0.11562-0.28903 0.11562-0.43341 0-0.15876-0.0725-0.28903-0.18781-0.36122-0.12999-0.10096-0.28903-0.14439-0.5056-0.14439m12.119 0h-0.46218c-0.43342 0-0.65027 0.21658-0.65027 0.64999v4.9258c0 0.30342-0.21656 0.5056-0.66436 0.64998-0.43342 0.15904-1.04 0.23123-1.7912 0.23123h-2.6002c-0.79436 0-1.4009-0.0868-1.8343-0.23123-0.4478-0.15876-0.67902-0.38999-0.67902-0.67875v-4.897c0-0.43341-0.20219-0.64999-0.63533-0.64999h-0.44807c-0.43314 0-0.65 0.21658-0.65 0.64999v4.897c0 0.69314 0.27466 1.2422 0.82342 1.6322 0.69341 0.49122 1.8346 0.73655 3.4233 0.73655h2.6002c1.4012 0 2.4702-0.24533 3.2212-0.70751 0.66464-0.41903 0.99682-0.96806 0.99682-1.6612v-4.897c0-0.43341-0.21684-0.64999-0.64998-0.64999m9.6347 0h-2.8602c-1.3866 0-2.4122 0.20219-3.0624 0.59218-0.60657 0.36123-0.90999 0.92464-0.90999 1.6468v5.0124c0 0.43342 0.20218 0.66436 0.63561 0.66436h0.4478c0.43341 0 0.64998-0.23094 0.64998-0.66436v-5.0268c0-0.30342 0.18781-0.53464 0.59245-0.6356 0.30315-0.0865 0.85218-0.11561 1.6756-0.11561h2.8312c0.77998 0 1.329 0.029 1.6322 0.12999 0.39 0.11562 0.57781 0.3178 0.57781 0.62122v5.0268c0 0.43342 0.20219 0.66436 0.6356 0.66436h0.47684c0.43314 0 0.6356-0.23094 0.6356-0.66436v-5.0268c0-0.72217-0.3178-1.2856-0.98244-1.6468-0.6356-0.38999-1.6322-0.5778-2.9756-0.5778m16.64-2.1378h-0.4478c-0.41875 0-0.6356 0.21657-0.6356 0.64998v1.5456h-5.2002c-1.4156 0-2.47 0.24562-3.1777 0.7078-0.62122 0.41904-0.93903 0.99683-0.9534 1.7478l-0.0144 3.1636c-0.0146 0.64998 0.27438 1.1556 0.83779 1.5312 0.70779 0.46218 1.82 0.70751 3.3224 0.70751h2.6721c1.3434 0 2.4268-0.27437 3.2212-0.79436 0.67903-0.46218 1.0403-1.0112 1.0403-1.6322v-6.977c0-0.43341-0.23124-0.64998-0.66465-0.64998m-6.2836 8.5948c-0.88093 0-1.5022-0.0722-1.8634-0.23123-0.34656-0.14438-0.5056-0.43341-0.5056-0.86655v-2.8168c0-0.34684 0.17342-0.60683 0.53465-0.7656 0.37561-0.15903 0.96779-0.25999 1.7912-0.25999h5.2433v3.9433c0 0.30342-0.23095 0.54903-0.67875 0.72218-0.46218 0.1878-1.1268 0.27465-2.0078 0.27465h-2.5136m16.337-6.457h-3.2502c-1.2856 0-2.2968 0.21658-3.0621 0.66465-0.73683 0.44752-1.1268 1.0687-1.1268 1.8343v2.9034c0 0.67902 0.33218 1.2712 0.98217 1.7768 0.28903 0.23122 0.72217 0.41904 1.2712 0.54903 0.54904 0.11533 1.2134 0.18752 2.0078 0.18752h1.1124c0.43314 0 0.63561-0.23094 0.63561-0.66436v-0.14438c0-0.43342-0.20247-0.64999-0.63561-0.64999h-1.3002c-1.5165 0-2.2678-0.54903-2.2678-1.6468h8.667c0.15904 0 0.28904-0.0722 0.36122-0.21657 0.0866-0.14438 0.13001-0.30342 0.13001-0.50561v-1.9068c0-0.69341-0.37562-1.2566-1.069-1.6612-0.66437-0.34656-1.4734-0.51999-2.4556-0.51999m-5.677 3.308v-0.92463c0-0.30315 0.25999-0.53438 0.79465-0.7078 0.4478-0.14438 1.069-0.20218 1.82-0.20218h2.5424c0.62122 0 1.1844 0.0722 1.6468 0.25999 0.47656 0.17342 0.69313 0.36123 0.69313 0.59218v0.98244h-7.497m15.76-3.308h-0.69341c-1.17 0-2.109 0.21658-2.7734 0.64999-0.67902 0.41903-1.0256 1.0256-1.04 1.8058l-0.0144 4.7955c0 0.43342 0.21657 0.66436 0.64999 0.66436h0.47656c0.41904 0 0.64999-0.23094 0.64999-0.66436v-4.7955c0-0.30342 0.10124-0.53465 0.36123-0.69341 0.30342-0.1878 0.83779-0.28903 1.5744-0.28903h0.80902c0.43341 0 0.64998-0.23123 0.64998-0.66437v-0.15904c0-0.43341-0.21657-0.64999-0.64998-0.64999" fill="#fff"/>
  <path d="m105.84 112.57c-15.456 0-27.994 12.538-27.994 27.994s12.538 27.98 27.994 27.98 27.98-12.524 27.98-27.98-12.524-27.994-27.98-27.994m0 53.937c-14.329 0-25.943-11.613-25.943-25.943 0-14.329 11.614-25.943 25.943-25.943 14.33 0 25.943 11.614 25.943 25.943 0 14.33-11.613 25.943-25.943 25.943m0-49.907c-4.8102 0-9.2882 1.4156-13.044 3.8568l6.3701 5.6767 6.6736-5.9514 6.6736 5.9514 6.3704-5.6767c-3.7558-2.4412-8.2338-3.8568-13.044-3.8568m19.486 10.025-12.813 11.426-6.6736-5.9658-6.6736 5.9658-12.813-11.426c-2.8168 3.929-4.4633 8.7391-4.4633 13.939h47.899c0-5.2002-1.6466-10.01-4.4633-13.939m-6.1392 17.262-6.6736 5.9514-6.6736-5.9514-6.6736 5.9514-6.6879-5.9514-6.6736 5.9658 13.362 11.902 6.6736-5.9511 6.6736 5.9511 13.362-11.902-6.688-5.9658" fill="#b4152b"/>
 </g>
</svg>
