<?xml version="1.0" encoding="utf-8"?>
<!-- Generator: Adobe Illustrator 23.0.1, SVG Export Plug-In . SVG Version: 6.00 Build 0)  -->
<svg version="1.1" id="Ebene_1" xmlns="http://www.w3.org/2000/svg" xmlns:xlink="http://www.w3.org/1999/xlink" x="0px" y="0px"
	 viewBox="0 0 600 210.1" style="enable-background:new 0 0 600 210.1;" xml:space="preserve">
<style type="text/css">
	.st0{fill:#FFFFFF;}
</style>
<g>
	<path class="st0" d="M0,0v210.1h600V0H0z M215.7,161.6h-34.3l-20.9-71.5l-20.9,71.5h-34.3L73.6,48.5h29.6l20.6,79.4l21.5-79.4h30.8
		l21.5,79.6l20.6-79.6h29.2L215.7,161.6z M357,115c-0.1,0.2-0.1,0.4-0.1,0.5h-78.3l0.1,0.7c3.3,14.6,13,22.3,28.1,22.3
		c9.9,0,19.3-3.6,27.2-10.2l0.3-0.3l17.8,19.2l-0.4,0.3c-12.2,11.2-27,16.4-46.5,16.4c-34.5,0-57.6-23.5-57.6-58.6
		c0-35.5,22.6-59.3,56.1-59.3c32.1,0,53.8,23.6,53.9,58.8C357.6,108.3,357.3,112.5,357,115z M448,161.6h-76.2V48.5h28.7v87.4H448
		V161.6z M526.4,74.1h-32.6v87.5h-28.7V74.1h-32.7V48.5h94V74.1z"/>
	<path class="st0" d="M303.4,71.9c-13.3,0-21.5,7.2-24.6,21.5l-0.1,0.6h48.6l-0.1-0.6C324.1,79.3,315.9,71.9,303.4,71.9z"/>
</g>
</svg>
