<svg enable-background="new 0 0 600 210.1" version="1.1" viewBox="0 0 600 210.1" xml:space="preserve" xmlns="http://www.w3.org/2000/svg"><style type="text/css">
	.st0{fill:#FFFFFF;}
</style><path class="st0" d="m0 0v210.1h600v-210.1h-600zm215.7 161.6h-34.3l-20.9-71.5-20.9 71.5h-34.3l-31.7-113.1h29.6l20.6 79.4 21.5-79.4h30.8l21.5 79.6 20.6-79.6h29.2l-31.7 113.1zm141.3-46.6c-0.1 0.2-0.1 0.4-0.1 0.5h-78.3l0.1 0.7c3.3 14.6 13 22.3 28.1 22.3 9.9 0 19.3-3.6 27.2-10.2l0.3-0.3 17.8 19.2-0.4 0.3c-12.2 11.2-27 16.4-46.5 16.4-34.5 0-57.6-23.5-57.6-58.6 0-35.5 22.6-59.3 56.1-59.3 32.1 0 53.8 23.6 53.9 58.8 0 3.5-0.3 7.7-0.6 10.2zm91 46.6h-76.2v-113.1h28.7v87.4h47.5v25.7zm78.4-87.5h-32.6v87.5h-28.7v-87.5h-32.7v-25.6h94v25.6z"/><path class="st0" d="m303.4 71.9c-13.3 0-21.5 7.2-24.6 21.5l-0.1 0.6h48.6l-0.1-0.6c-3.1-14.1-11.3-21.5-23.8-21.5z"/></svg>
