<?xml version="1.0" encoding="UTF-8"?>
<svg width="1307.2" height="615.81" version="1.1" viewBox="0 0 345.86 162.93" xmlns="http://www.w3.org/2000/svg">
  <g>
    <rect transform="rotate(4.9974)" x="11.206" y="-2.1371" width="255.36" height="143.54" rx="13.853" ry="13.853" fill="#b8463c"/>
    <path d="m25.07 37.621 35.801 80.023c3.409 7.548 10.578 11.022 17.448 11.022l25.561 4e-5c10.92-5.8e-4 16.075-6.9866 18.202-11.689l10.177-22.941 10.177 22.941c2.1263 4.702 7.2816 11.689 18.202 11.689l25.561 2e-5c6.8694 1.6e-4 14.039-3.4735 17.448-11.022l35.801-80.023-37.74 2.2e-5c-10.816 5.75e-4 -16.063 7.35-18.023 11.715l-10.41 23.439-10.339-23.092c-3.1575-6.8996-8.9845-12.063-19.243-12.063h-22.868c-10.258-1.96e-4 -16.085 5.1632-19.243 12.063l-10.339 23.092-10.41-23.439c-1.9609-4.3656-7.2072-11.716-18.023-11.716z" fill="#fff"/>
  </g>
  <path d="m270.74 59.187v44.574h10.296v-18.276h13.017v18.276h10.296v-44.574h-10.296v17.762h-13.017v-17.762z" fill="#fff"/>
  <path d="m312.23 59.206v44.548h16.288c12.117-0.0326 17.347-6.4222 17.347-20.902v-2.7435c0-14.48-5.2299-20.869-17.347-20.902zm14.876 8.4496c7.2871 0.05683 8.1148 5.2764 8.369 10.163v7.4078c-0.26271 4.9527-1.1439 10.224-8.7555 10.1h-4.299v-27.669h4.299c0.13081-0.0022 0.25966-0.0031 0.38652-0.0021z" fill="#fff"/>
</svg>
