<svg version="1.1" viewBox="0 0 799.99 407.08" xml:space="preserve" xmlns="http://www.w3.org/2000/svg">
 <g transform="scale(2.2298)" fill="#fff">
  
   <path d="m223.64 101.35 6.01 13.21v0.85h-42.6v-0.85l6-13.07v-54.26l-5.79-9.39v-0.92l35.53-15.66 0.85 0.78z"/>
   <path d="m236.86 16.58 5.79 9.39v75.52l-6 13.07v0.85h42.6v-0.85l-6.01-13.21v-100.57l-0.85-0.78-35.53 15.66z"/>
   <path d="m315.6 131.25h-5.4s-22.42-0.14-24.26-0.14c-0.56 0-1.06 0.07-1.41 0.07l-0.78 1.56 10.81 20.84 19.08-18.34z"/>
   <path d="m332.78 86.16-11.45-29.1 5.37-13.21v-0.85h-46.91v0.85l7.7 13.15 29 63.29 1.78 3.84q1.47-2.88 2.95-6.1l13-28.38z"/>
   <path d="m349.1 57.27 9.67-13.43v-0.84h-19.21v0.84l6.14 13.21 1.39 2.78z"/>
   <path d="m179.09 114.56-6-13.21v-58.33l-0.65-0.71 0.05-0.04-0.06 0.03-0.05-0.06-35.81 15.61v0.84l5.93 9.86v32.94l-6 13.07v0.85h42.59z"/>
   <path d="m54.09 14.86v-1.07h-54.09v1.07l10.98 16.87 29.18 83.8h13.39l9.94-26.77-17.44-56.76z"/>
   <path d="m114.61 15.13v-1.07h-54.08v1.07l7.61 16.87 29.45 83.8h13.81l9.94-27.3-17.32-56.77z"/>
   <path d="m156 8.63a21.65 21.65 0 0 0-5.69 0.76l-9.31 25.94a20.17 20.17 0 0 0 15 6.32c10.51 0 19-7.39 19-16.51s-8.51-16.51-19-16.51z"/>
  
 </g>
 <path d="m455.84 361.93v12.183c0 19.349 8.4616 32.964 29.941 32.964 21.479 0 28.53-12.899 28.573-34.398 0.0669-33.211-35.602-44.007-35.634-56.079-0.0156-6.0314 3.1228-6.1241 5.4045-6.1088 4.0836 0.0274 4.7206 4.142 4.7206 7.0084v6.0494h24.858v-3.8995c0-18.632-7.4849-31.382-28.183-31.531-22.19-0.15944-29.872 13.616-29.976 31.531-0.16755 28.973 34.141 33.688 34.141 53.746v4.2997c0 4.6203-1.8251 6.6872-4.8192 6.6872-2.994 0-5.095-2.7844-5.095-6.6872v-15.766zm-239.96 9.316c0 22.215 8.0443 35.831 28.464 35.831 20.42 0 28.464-13.616 28.464-35.831v-16.049h-24.752v22.499c0 2.8665-0.86631 5.733-3.7127 5.733s-3.7127-2.8665-3.7127-5.733v-60.196c0-2.8665 0.8663-5.733 3.7127-5.733s3.7127 2.8665 3.7127 5.733v18.632h24.752v-12.183c0-22.215-8.0443-35.831-28.464-35.831-20.42 0-28.464 13.616-28.464 35.831zm111.38 33.681v-20.098h-24.014v-94.561h-24.252v114.66zm31.915-87.427h1.8737l3.409 44.43h-8.406zm9.0929 87.427h22.505l-11.421-114.66h-38.08l-11.421 114.66h22.505l1.4776-18.632h12.957zm27.554-42.997v12.183c0 19.349 8.0443 32.964 28.464 32.964s27.123-12.899 27.164-34.398c0.064-33.211-33.846-44.007-33.877-56.079-0.0156-6.0314 2.9689-6.1241 5.138-6.1088 3.8823 0.0274 4.488 4.142 4.488 7.0084v6.0494h23.633v-3.8995c0-18.632-7.116-31.382-26.793-31.531-21.096-0.15944-28.399 13.616-28.498 31.531-0.15943 28.973 32.458 33.688 32.458 53.746v4.2997c0 4.6203-1.7352 6.6872-4.5816 6.6872s-4.8438-2.7844-4.8438-6.6872v-15.766zm163.11-18.866-12.296 62.163h24.481l6.1584-41.264h0.832l6.558 41.264h23.581l-12.096-62.163 9.496-53.296h-22.981l-4.1584 35.031h-1.2317l-4.758-35.031h-22.981z" fill="#fff" stroke-width="1.7074"/>
</svg>
