<svg data-name="Layer 2" version="1.1" viewBox="0 0 800 211.26" xmlns="http://www.w3.org/2000/svg">
 <defs>
  <style>.cls-1{fill:#faff05;}.cls-2{fill:#fff;}</style>
 </defs>
 <g transform="matrix(.2114 0 0 .2114 -2.2134 -.073992)">
  <path d="m145.64 630.65c0-169.83 147-373.25 287.82-397.25-123.76 81.42-207.25 208.61-207.25 319.9 0 46.26 10.74 89 33.92 117.66-22.87 10.88-46.75 17.06-71.13 17.06-11.21 0-25.44-2.16-40.59-7.25-1.8531-16.642-2.7778-33.375-2.77-50.12zm384.51-381.9c132.66 83.73-15.49 436.09-182.77 436.09-18.66 0-33.72-4.59-45.77-12.41 54.77-35.93 112.06-104.57 149-233.09l-7.57-2.73c-27.65 84.38-86.57 174.64-158.31 220.63-20.1-24.37-26.81-61.24-26.81-95.52 0-106.37 127.11-238.83 272.26-312.97zm-52 725.46c-188.38 0-299.52-114.58-326.2-268.51 9.7429 2.6104 19.774 3.9912 29.86 4.11 23.59 0 57.6-4.64 94.5-22.87 16.28 12.72 36.73 20.09 61.71 20.09 195.67 0 340-367.12 216.56-470.1 103.43-47.47 212.79-63.67 290-19.18-19.955 14.429-38.795 30.341-56.36 47.6-148.42 148.41-217.69 451-330.17 572.47-12.17-4-25.46-7.71-41.64-7.71-22.37 0-42.79 10.52-45.62 23.5s13 23.5 35.38 23.5c16.8 0 33.93-4 56.18-17.3 12.021 1.3879 24.11 2.099 36.21 2.13 45.5 0 88.43-19.57 138.18-69.32 130-130 242.29-404.26 318.53-456.9-71.65 120.72-148.25 392.63-252.51 503.49-11.69-4.71-24.26-9.11-40.35-9.11-22.37 0-42.79 10.52-45.62 23.5s13 23.5 35.38 23.5c17.33 0 35-4.22 58.33-18.61 12.46 3.38 27.28 6.19 42.21 6.19 37.66 0 83-21.21 121-59.2 137.75-137.75 311.67-421.33 459.16-568.82 53.65-53.65 149.42-127.51 277.15-127.51 115.29 0 191.81 70.51 191.81 70.51 2.72-2.72 1.66-7.37-4.59-13.62-62.5-62.5-137.65-89.1-205.65-89.1s-182.44 23.57-321.13 162.27c-147.99 147.93-315.86 444.37-426.1 554.61-46.25 46.25-76.32 56.66-100.65 56.66-5.9593-0.0364-11.885-0.89453-17.61-2.55 18.22-13.33 39.78-32.31 66.49-59 180.76-180.76 221.68-512.61 322.4-613.33-7-7-56.21 4.31-142.88 91-139.34 139.3-218.57 383.12-355.9 520.45-43 43-88 60.83-116.3 60.83-5.6697-0.0519-11.313-0.78039-16.81-2.17 17.58-13.2 38.23-31.54 63.49-56.81 101.41-101.41 209.79-407.39 328-557.23 132.27-6.09 130.33-69.11 87.85-69.11-23.9 0-58.4 15.94-92.34 37.67-33.35-29.29-89.75-50.79-167.68-50.79-82.61 0-161.55 23.29-230.58 60.9-151.25 0-360.17 159.93-360.17 430.26 0 7.6067 0.2 15.107 0.6 22.5-36.38-24.15-68.68-68.37-68.68-143.28 0-217 330.78-481.2 720.93-481.2 155.85 0 314.6 51.76 413.17 123.27l5.61-6.54c-60.66-60.67-208.53-155-464.69-155-336.89 0-708.14 197.83-708.14 518.38 0 86.94 51.57 144.89 104.26 172.45 23.74 193.65 183.1 308.47 345.84 308.47l3334-1e-5v-25.44z" fill="#faff05"/>
  <path d="m1601.5 125.45v259.77h-103.96v-259.77h-211.05v738.02h211.05v-292.26h103.96v292.26h211.05v-738.02z" fill="#fff"/>
  <g transform="scale(1.0353 .96593)" fill="#fff" stroke-width="12.859" style="font-feature-settings:normal;font-variant-caps:normal;font-variant-ligatures:normal;font-variant-numeric:normal" aria-label="Two">
   <path d="m2518.1 304.36h-233.37v575.98h-86.857v-575.98h-233.37v-77.206h553.6z"/>
   <path d="m3128.8 390.33-127.65 490h-76.329l-125.9-377.7-125.02 377.7h-75.89l-128.97-490h85.98l89.928 379.45 122.39-379.45h67.994l125.46 379.45 85.102-379.45z"/>
   <path d="m3665.3 635.55c0 79.838-20.471 142.86-61.414 189.07s-95.777 69.31-164.5 69.31c-69.31 0-124.44-23.103-165.38-69.31-40.65-46.207-60.975-109.23-60.975-189.07 0-79.838 20.325-142.86 60.975-189.07 40.943-46.499 96.069-69.749 165.38-69.749 68.725 0 123.56 23.25 164.5 69.749 40.943 46.207 61.414 109.23 61.414 189.07zm-85.102 0c0-63.461-12.429-110.55-37.287-141.25-24.858-31-59.367-46.499-103.53-46.499-44.744 0-79.546 15.5-104.4 46.499-24.566 30.707-36.848 77.791-36.848 141.25 0 61.414 12.429 108.06 37.287 139.94 24.858 31.584 59.513 47.377 103.97 47.377 43.867 0 78.23-15.646 103.09-46.938 25.15-31.584 37.726-78.376 37.726-140.38z"/>
  </g>
 </g>
</svg>
