<?xml version="1.0" encoding="UTF-8" standalone="no"?>
<svg id="svg4735" xmlns:rdf="http://www.w3.org/1999/02/22-rdf-syntax-ns#" xmlns="http://www.w3.org/2000/svg" height="64" viewBox="0 0 197.48862 64.000008" width="197.49" version="1.1" xmlns:cc="http://creativecommons.org/ns#" xmlns:dc="http://purl.org/dc/elements/1.1/">
 <path id="path5285" fill="#fff" d="m163 62.904c0-0.60285 0.72975-3.6064 1.6217-6.6744 1.4956-5.1446 1.4956-5.6706 0-6.7642-0.89-0.652-1.62-1.923-1.62-2.825 0-1.3755 1.222-1.6398 7.5833-1.6398 8.0444 0 9.3998 1.2168 4.1874 3.7592-1.9918 0.97154-3.0667 2.8564-4.7049 8.25-1.8819 6.1956-2.4045 6.9908-4.5946 6.9908-1.3592 0-2.4712-0.49325-2.4712-1.0961zm17.47-1.1657c-0.31221-1.244-0.43329-5.6315-0.26905-9.75 0.28877-7.2411 0.38111-7.4882 2.7986-7.4882 2.2263 0 2.5337 0.46533 2.8075 4.25 0.16912 2.3375 0.64876 4.25 1.0659 4.25 0.4171 0 1.7555-1.7742 2.9743-3.9427 2.1634-3.8493 5.1617-5.7876 7.0997-4.5898 1.3147 0.81251 0.42814 2.8422-4.8188 11.033-5.0079 7.8173-5.682 8.4629-8.8596 8.4847-1.4901 0.0102-2.4195-0.73577-2.7986-2.2465zm-154.94-6.349c-0.88586-0.88586-2.7795-3.9234-4.208-6.75-1.428-2.826-6.811-12.644-11.961-21.818-5.1495-9.173-9.363-17.52-9.363-18.55 0-2.9336 2.0494-4.271 6.545-4.271 2.7153 0 4.7046 0.61836 5.7674 1.7927 0.89232 0.98601 4.2783 7.3985 7.5243 14.25 3.2461 6.8515 6.8072 13.266 7.9137 14.255 1.8333 1.638 2.1519 1.6573 3.5914 0.21786 0.86876-0.86877 1.8094-3.0276 2.0903-4.7974 0.521-3.285 2.568-23.016 2.568-24.758 0-1.9656 4.092-4.961 6.777-4.961 4.6799 0 7.0524 2.6914 13.223 15 3.265 6.5133 6.4204 12.141 7.0119 12.507 2.4094 1.4891 3.8295-1.7728 4.4881-10.309 0.369-4.784 1.1-10.386 1.624-12.448 0.8089-3.1834 1.3625-3.7477 3.6643-3.7347 5.7449 0.03244 5.7514 0.07472 3.1659 20.643-2.0614 16.399-2.6597 19.133-4.616 21.091-2.2748 2.2772-6.6952 2.9443-9.1589 1.3822-0.72621-0.46047-4.1012-6.4161-7.5-13.235-4.8655-9.7612-6.656-12.465-8.4199-12.716-1.5727-0.22344-2.5295 0.37253-3.2108 2-0.846 2.024-3.048 22.838-3.048 28.819 0 1.1852-1.3154 3.4702-2.9231 5.0779-3.3551 3.3551-8.8746 3.9826-11.545 1.3124zm147.45-15.77c-3.2314-3.105-7.3557-4.0735-8.9853-2.11-1.6095 1.9394-4.8923 1.9137-5.6436-0.0442-0.80411-2.0955 2.6698-18.236 4.1978-19.504 2.778-2.3056 5.9831 1.0087 11.285 11.67 2.868 5.7668 4.9526 10.909 4.6325 11.427-0.96958 1.5688-2.8775 1.0686-5.4867-1.4386zm-4.5659-10.791c-1.356-2.6223-1.7936-2.8969-2.5273-1.5859-1.2403 2.2162-0.0392 4.7574 2.2486 4.7574 1.833 0 1.8454-0.14164 0.27869-3.1714zm-80.409 10.173c-1.148-0.71-5.958-27.828-5.986-33.751-0.013-2.9173 0.28-3.25 2.863-3.25 1.5826 0 3.3378 0.5625 3.9004 1.25 1.2156 1.4855 5.222 25.61 5.222 31.444 0 3.5214-0.32972 4.1358-2.4354 4.5384-1.3394 0.25605-2.9431 0.15177-3.5636-0.23173zm11.016-3.2507c-1.3784-3.3-5.2656-30.539-4.5283-31.732 0.346-0.56 1.78-1.018 3.188-1.018 2.9034 0 7.2178 4.0709 14.572 13.75 6.6783 8.7891 8.0802 8.4479 7.1906-1.75-0.56469-6.4735-0.4347-7.9971 0.68127-7.9847 3.1739 0.03524 4.0329 2.1251 5.9577 14.494 1.7598 11.309 1.8226 13.018 0.52564 14.315-2.5416 2.5416-6.6028-0.2941-13.451-9.3923-4.06-5.399-7.03-8.432-8.25-8.432-2.2308 0-2.3577 1.6061-0.85752 10.852 0.75984 4.6827 0.72568 6.719-0.13 7.75-1.7164 2.0682-3.8325 1.7003-4.8985-0.85152zm37.97 0.38667c-7.84-4.194-11.85-19.363-6.54-24.682 1.39-1.385 3.63-2.455 5.14-2.455 7.3382 0 17.428 5.9097 16.081 9.4192-0.62372 1.6254-1.03 1.5595-5.1016-0.82656-5.4203-3.1765-9.0947-3.3451-10.624-0.4873-3.6244 6.7723 5.7185 18.287 12.077 14.884 2.6866-1.4378 2.4878-2.6321-0.69668-4.1844-5.8598-2.8565-3.2703-5.675 3.5312-3.8436 4.2688 1.1495 4.8794 2.3298 5.4407 10.518l0.2042 2.9788-8.0131 0.27259c-6.2859 0.21383-8.7647-0.12963-11.5-1.5934z"/>
</svg>
