<?xml version="1.0" encoding="UTF-8" standalone="no"?>
<svg id="svg2" xmlns:rdf="http://www.w3.org/1999/02/22-rdf-syntax-ns#" xmlns="http://www.w3.org/2000/svg" height="334.2" viewBox="0 0 222 334.20001" width="222" version="1.1" xmlns:cc="http://creativecommons.org/ns#" xmlns:dc="http://purl.org/dc/elements/1.1/">
 <path id="path4138" fill="#fff" d="m0 282.75v-51.45h111 111v51.45 51.45h-111-111v-51.45zm218.33 23.925 0.0768-23.775h-107.4-107.4v23.65c0 13.008 0.0902 23.74 0.20041 23.85 0.11023 0.11022 48.406 0.16647 107.32 0.12501l107.12-0.0754 0.0768-23.775zm-139.73 14.11c-3.9708-0.66393-7.0915-2.8967-8.5306-6.1034-0.453-1.0094-0.77524-1.8837-0.71607-1.9429 0.12906-0.12906 7.2443-1.3607 7.3021-1.264 1.1063 1.8503 1.5264 2.3354 2.3696 2.7354 0.55858 0.26508 1.7101 0.48195 2.5589 0.48195 1.2386 0 1.6887-0.14541 2.2797-0.73635 0.90671-0.90672 0.91265-1.1253 0.0575-2.1194-0.53085-0.61716-1.4053-0.97512-4.0116-1.6423-4.0475-1.036-6.0107-1.9907-7.3777-3.5878-2.4238-2.8317-2.3311-7.7547 0.20183-10.714 2.2167-2.5897 6.4791-3.8325 10.827-3.1566 3.3146 0.51531 5.4027 1.7222 6.9904 4.0402 1.6862 2.4619 1.6977 2.4407-1.9506 3.6206l-3.2279 1.0439-0.57381-0.94923c-0.69246-1.1455-0.92018-1.3086-2.3984-1.7176-2.0399-0.56447-3.7999 0.215-3.7999 1.6829 0 1.026 0.90761 1.4908 4.35 2.2276 3.8545 0.825 6.1501 1.8654 7.6096 3.4487 1.4519 1.5751 1.9764 3.0651 1.9569 5.5591-0.0269 3.44-1.752 6.1856-4.8935 7.7883-2.3499 1.1988-6.2677 1.7653-9.023 1.3046zm82.307-0.10473c-2.9867-0.59112-6.6624-3.5557-7.9124-6.3817-2.0812-4.7048-2.0079-10.9 0.18238-15.422 3.9455-8.1456 16.316-8.5086 20.943-0.61442 1.1255 1.9205 1.9808 5.5822 1.9808 8.4797 0 2.652-0.77422 6.247-1.7553 8.1507-2.3432 4.5467-7.8103 6.9013-13.438 5.7874zm4.8466-6.9813c1.3485-1.3485 1.7688-3.0256 1.781-7.1069 0.0118-3.9235-0.37401-5.5875-1.6181-6.9799-1.1041-1.2357-2.8718-1.342-4.0415-0.24305-1.3901 1.3059-1.8245 3.0613-1.8245 7.373 0 3.6468 0.0535 4.009 0.82453 5.579 1.2766 2.5994 3.1329 3.1237 4.8786 1.3779zm-151.66-6.96v-13.65h9.45 9.45v3.15 3.15h-5.4-5.4v2.1 2.1h4.2 4.2v2.85 2.85h-4.2-4.2v5.55 5.55h-4.05-4.05v-13.65zm25.2 13.398c0-0.25107 6.8195-23.853 7.5358-26.081l0.31605-0.98308 4.2441 0.0831 4.2441 0.0831 3.9776 13.5c2.1877 7.425 3.9786 13.538 3.98 13.583 0.001 0.0459-1.8469 0.0459-4.1072 0l-4.1096-0.0835-0.63077-2.55-0.63076-2.55-3.4711-0.0842-3.4711-0.0842-0.71993 2.6342-0.71992 2.6342-3.2186 0.0851c-1.791 0.05-3.219-0.03-3.219-0.18zm13.198-11.523c-0.002-0.45744-1.7222-6.849-1.8877-7.0145-0.0649-0.0649-0.47933 1.2674-0.9209 2.9607s-0.88312 3.3825-0.98123 3.7538c-0.17176 0.64995-0.10475 0.675 1.8066 0.675 1.3889 0 1.9845-0.11262 1.9832-0.375zm49.202-1.875v-13.65h3.9 3.9v5.1 5.1h3 3v-5.1-5.1h4.05 4.05v13.65 13.65h-4.05-4.05v-5.4109-5.4109l-2.925 0.0859-2.925 0.0859-0.0819 5.325-0.0819 5.325h-3.8931-3.8931v-13.65zm32.4 0.0168v-13.633l3.926-0.0917c2.1593-0.0504 3.9818-0.0354 4.05 0.0333 0.0682 0.0688 0.12396 6.245 0.12396 13.725v13.6h-4.05-4.05v-13.633zm51.3-0.0168v-13.65h3.8778 3.8778l3.9656 6.975c4.5024 7.9193 4.8261 8.3898 4.457 6.4794-0.13861-0.71739-0.2579-4.0381-0.26509-7.3794l-0.0131-6.075h3.3 3.3v13.65 13.65l-3.375-0.003-3.375-0.003-4.05-7.09c-2.2275-3.8995-4.32-7.6918-4.65-8.4275l-0.6-1.3375 0.0997 8.4297 0.0997 8.4297h-3.3247-3.3247v-13.65zm-106.1-34.05c6.5191-1.0677 10.087-6.0547 10.099-14.117 0.01-6.2573-2.298-10.511-6.8956-12.711-1.8326-0.87674-2.1577-0.9329-5.4-0.9329-3.2048 0-3.5768 0.0622-5.2337 0.87576-3.8389 1.8849-6.1814 5.5658-6.793 10.674-0.97088 8.1098 2.8129 14.635 9.3267 16.083 2.086 0.46381 2.7398 0.48086 4.8962 0.12768zm-4.1494-7.0036c-1.3035-1.3035-1.7344-2.9646-1.7658-6.8069-0.0306-3.7495 0.46844-5.9685 1.6192-7.2004 0.69258-0.74141 1.0775-0.89959 2.1889-0.89959 1.1609 0 1.4745 0.14348 2.2539 1.0311 1.2671 1.4432 1.6628 3.5158 1.4991 7.8524-0.10927 2.894-0.25717 3.8032-0.78444 4.8217-1.2686 2.4506-3.2798 2.9329-5.0109 1.2017zm-45.234-0.35688c0.88373-3.795 1.6845-7.1025 1.7795-7.35s0.9449 2.8575 1.8886 6.9l1.7159 7.35 3.4282 0.0839 3.4282 0.0839 3.2634-13.284c1.7949-7.3061 3.3292-13.458 3.4095-13.67 0.1145-0.30236-0.52424-0.3673-2.9508-0.3l-3.0969 0.0859-1.6992 7.3794c-0.93455 4.0587-1.7607 7.5642-1.836 7.7899-0.0752 0.22573-0.49065-1.07-0.92313-2.8795-0.43249-1.8094-1.2781-5.3486-1.8792-7.8649l-1.0928-4.575h-3.0973-3.0973l-0.59139 2.625c-0.32527 1.4438-1.1053 4.9508-1.7333 7.7935-0.62806 2.8427-1.1796 5.1308-1.2257 5.0848-0.0461-0.0461-0.83524-3.3169-1.7537-7.2685-0.91845-3.9516-1.7419-7.421-1.83-7.7098-0.14076-0.46173-0.59149-0.525-3.7398-0.525-2.8677 0-3.5798 0.0835-3.5798 0.41982 0 0.23091 0.81291 3.5722 1.8065 7.425 0.99356 3.8528 2.5123 9.8102 3.375 13.239l1.5685 6.2334 3.4281-0.0834 3.4281-0.0834 1.6068-6.9zm85.587 1.95v-5.1l1.275 0.00006 1.275 0.00007 1.8 4.988c0.99 2.7434 1.9415 5.0424 2.1144 5.1088 0.17294 0.0664 2.1565 0.0831 4.408 0.0369l4.0935-0.0839-2.3885-5.6795c-1.3137-3.1237-2.2848-5.7637-2.158-5.8666 0.12677-0.10287 0.72626-0.54973 1.3322-0.993 2.7381-2.0031 3.6144-6.826 1.8733-10.31-1.0433-2.0877-2.9072-3.4886-5.303-3.9858-0.95433-0.19806-4.46-0.29458-8.922-0.24565l-7.35 0.0806-0.0781 13.575-0.0781 13.575h4.053 4.0531v-5.1zm0-13.458v-2.7423h2.5636c2.3219 0 2.6331 0.0694 3.3 0.73636 1.0134 1.0134 1.0173 2.7951 0.008 3.7432-0.60348 0.56694-1.1688 0.71162-3.3 0.84458l-2.5718 0.16045v-2.7423zm51.6 15.415v-3.1427l-5.025-0.0823-5.025-0.0822-0.0789-10.425-0.0789-10.425h-3.8961-3.8961v13.65 13.65h9 9v-3.1428zm33.15 2.1521c5.1528-2.4066 7.9854-8.4698 7.0466-15.083-0.69783-4.916-3.4775-8.7995-7.4226-10.37-1.6137-0.64245-2.1559-0.68699-8.474-0.69618l-6.75-0.01-0.0781 13.595-0.0781 13.595 6.9781-0.095c6.9238-0.0942 6.9921-0.10151 8.7781-0.93565zm-7.65-12.696v-7.3872l1.6624 0.13786c2.8021 0.23237 4.1408 1.7176 4.6821 5.1943 0.57904 3.7193-0.67141 7.7729-2.7399 8.8818-0.57493 0.30822-1.6212 0.5604-2.325 0.5604h-1.2797v-7.3872zm-192.6-147.71v-111h111 111v111 111h-111-111v-111zm92.55 105.36c43.153-6.5159 72.011-14.072 91.8-24.038 12.638-6.3649 19.884-12.933 22.58-20.468 1.1215-3.135 1.1133-7.4585-0.0208-10.9-2.6678-8.0967-11.142-16.994-24.275-25.488-1.7689-1.144-3.1724-2.1238-3.1189-2.1773 0.20137-0.20137 12.569 5.1852 18.335 7.9854 7.0614 3.4295 11.288 5.802 16.134 9.0562 1.944 1.3054 3.598 2.3734 3.6756 2.3734s0.10711-33.379 0.0655-74.175l-0.0756-74.175-38.25-0.09161c-27.136-0.064991-39.035 0.00683-40.95 0.24719-49.789 6.2475-90.17 17.32-109.2 29.943-7.801 5.1746-12.128 9.9656-14.18 15.701-1.1215 3.135-1.1133 7.4585 0.0208 10.9 2.677 8.1246 11.096 16.965 24.275 25.488 1.7689 1.144 3.1713 2.1248 3.1165 2.1796-0.0548 0.05479-3.1896-1.2125-6.9662-2.8163-11.597-4.932-22.378-10.564-28.597-14.947-1.2948-0.912-2.4351-1.659-2.5337-1.659-0.25346 0-0.22445 148.05 0.0291 148.31 0.11462 0.11461 18.103 0.16523 39.975 0.11248l39.767-0.0959 8.4-1.2684zm-29.668-27.28c-0.094-0.45-1.595-10.95-3.336-23.33-1.741-12.37-3.966-28.17-4.946-35.1-0.979-6.93-3.478-24.61-5.553-39.3-2.076-14.685-4.246-30.075-4.825-34.2-1.147-8.186-1.579-9.604-3.244-10.633-0.538-0.332-1.676-0.766-2.528-0.962l-1.55-0.358v-1.5985-1.5985h16.5 16.5v1.6236 1.6236l-1.193 0.20156c-1.6443 0.27781-3.0849 1.3224-3.5326 2.5616-0.23127 0.64012-0.3157 1.7889-0.21973 2.9896 0.29403 3.6784 10.443 74.423 10.643 74.186 0.1098-0.12992 2.8651-12.229 6.1229-26.887l5.9233-26.65-0.17774-5.5996c-0.367-11.528-0.806-16.362-1.635-17.986-0.631-1.237-2.247-2.294-4.007-2.621l-1.125-0.20898v-1.7666-1.7666l5.775 0.0006c3.1762 0.000252 10.534 0.08963 16.35 0.19861l10.575 0.19815v1.568 1.568l-1.1146 0.20911c-3.0211 0.56676-3.9826 1.8992-3.9842 5.5209-0.0006 1.3823 0.67406 10.36 1.4993 19.95 2.3673 27.512 4.1754 48.739 4.36 51.187 0.0933 1.2375 0.24212 2.5875 0.33069 3 0.11206 0.52185 1.3894-3.1286 4.1989-12 2.2208-7.0125 6.133-19.348 8.6936-27.411l4.6558-14.661-0.0947-10.989c-0.0857-9.9438-0.14707-11.094-0.64553-12.096-0.65332-1.3134-1.4003-1.8498-3.3802-2.4271l-1.469-0.42833v-1.6186-1.6186h29.25 29.25v24.3 24.3l-2.1461 0.08756-2.1461 0.08756-0.16971-2.7876c-0.87561-14.383-1.1982-17.324-2.452-22.356-1.8706-7.5071-4.5467-11.533-9.0992-13.69l-1.987-0.9416-7.125-0.0988-7.125-0.0988v29.874c0 26.149 0.0553 29.874 0.44315 29.874 0.88713 0 4.4156-1.5069 6.0163-2.5694 4.3067-2.8586 6.7956-7.8807 7.2382-14.606l0.19252-2.925h2.2049 2.2049v25.5 25.5h-2.206-2.2061l-0.3482-3.375c-0.97132-9.4148-4.0373-14.239-10.451-16.446-0.92-0.32-1.99-0.58-2.38-0.58h-0.70303v30.167c0 21.475 0.0979 30.556 0.33983 31.517 0.44719 1.7759 1.6409 2.9226 3.6139 3.4715l1.5963 0.44406v1.6253 1.6253l-15.825 0.0777-15.825 0.0776v-1.7763-1.7763l1.1501-0.19432c1.575-0.2661 2.9159-1.1399 3.5603-2.3202 0.51126-0.93644 0.54255-3.1673 0.59653-42.538 0.0359-26.22-0.0475-41.329-0.22607-40.95-0.15568 0.33-2.108 6.945-4.3384 14.7-2.2305 7.755-5.398 18.758-7.039 24.45-8.0054 27.77-13.001 45.11-13.721 47.625l-0.79439 2.775h-3.6941c-2.7743 0-3.6941-0.0943-3.6941-0.37867 0-0.34197-0.70343-8.6481-1.9496-23.021-0.73835-8.5158-5.5287-62.075-5.7421-64.2-0.14028-1.3971-0.26272-1.7799-0.43181-1.35-0.1298 0.33-1.5386 6.4725-3.1306 13.65-1.5921 7.1775-4.6953 21.082-6.8961 30.9-2.2008 9.8175-5.1731 23.115-6.605 29.55-1.432 6.435-2.7673 12.375-2.9674 13.2l-0.36384 1.5-3.6309 0.084-3.6309 0.084-0.16994-0.83403zm154.78 28.341c0.0789-0.20625 0.1084-8.2725 0.0656-17.925-0.0754-16.993-0.0945-17.513-0.60312-16.388-3.2832 7.2648-15.068 15.266-33.075 22.456-11.546 4.6101-27.083 9.0198-39.238 11.136-2.2757 0.3963-4.222 0.80484-4.325 0.90788-0.10304 0.10303 17.187 0.18734 38.422 0.18734 30.611 0 38.639-0.0777 38.753-0.375zm-212.86-178.26c0-0.224 0.6734-1.414 1.4965-2.644 4.4545-6.661 15.144-13.453 31.504-20.019 11.32-4.544 27.408-9.1277 39-11.113 2.062-0.353 4.02-0.7544 4.35-0.8918s-16.815-0.2249-38.1-0.1945l-38.7 0.0553-0.0774 17.794c-0.0518 11.899 0.0228 17.732 0.225 17.607 0.16632-0.10279 0.30239-0.37011 0.30239-0.59405z"/>
</svg>
