<svg width="800" height="666.67" version="1.1" viewBox="0 0 897.6 734.12" xml:space="preserve" xmlns="http://www.w3.org/2000/svg">
	<g transform="matrix(8 0 0 8 0 -.86765)" fill="#fff">
		<path d="m2.9 40.7c5.6-13.3 22.8-35.3 23-35.5 0.1-0.1 0.3-0.2 0.5-0.1 0.1 0.1 0.2 0.3 0.1 0.5-6.2 11.2-8.6 21.2-9.6 27.6-1 6.6-0.7 10.9-0.7 11.3v0.1c0 0.2-0.2 0.4-0.4 0.3-0.1 0-0.3-0.1-0.3-0.2 0 0-1.6-3.6-3.8-4.3-0.3-0.1-0.5-0.1-0.8-0.1-2 0-3 2.6-3 2.6-9.1 19.6-1 39.4 20.2 49.2 1.2 0.5 2.3 1 3.5 1.4h0.1v-34.1h19.8v-27.1h-19.8v-5.8h27.1v-26.5h-58.8v50.1c0.6-3.1 1.6-6.2 2.9-9.4z"/>
		<path d="m62.1 40-1-4.3-1 4.3h-2.4l-2.2-7.6h2.6l1 4.7 1.2-4.7h1.7l1.2 4.7 1-4.7h2.6l-2.2 7.6z"/>
		<path d="m66.6 36.2c0-2.3 1.8-3.9 4.2-3.9s4.2 1.6 4.2 3.9-1.8 3.9-4.2 3.9c-2.4 0.1-4.2-1.5-4.2-3.9zm6 0c0-1.1-0.7-1.9-1.8-1.9s-1.8 0.8-1.8 1.9 0.7 1.9 1.8 1.9 1.8-0.8 1.8-1.9z"/>
		<path d="m79.7 40-1.1-2.4h-0.8v2.4h-2.3v-7.6h4.1c1.8 0 2.7 1.2 2.7 2.6 0 1.3-0.8 2-1.4 2.3l1.4 2.7zm0.3-5c0-0.4-0.4-0.6-0.8-0.6h-1.4v1.2h1.4c0.4 0 0.8-0.2 0.8-0.6z"/>
		<path d="m83.3 40v-7.6h2.3v5.6h2.9v2z"/>
		<path d="m89.1 40v-7.6h3.4c2.4 0 4.2 1.4 4.2 3.8s-1.8 3.8-4.2 3.8zm5.3-3.8c0-1-0.6-1.8-1.8-1.8h-1.1v3.6h1.1c1.1 0 1.8-0.8 1.8-1.8z"/>
		<path d="m56.3 49.7v-7.6h5.8v2h-3.5v0.8h3.4v2h-3.4v2.8z"/>
		<path d="m63.1 49.7v-7.6h2.3v7.6z"/>
		<path d="m66 48.7 1.2-1.7c0.6 0.5 1.4 1 2.5 1 0.4 0 0.8-0.1 0.8-0.4 0-0.7-4.2 0-4.2-3 0-1.3 1.1-2.5 3.2-2.5 1.2 0 2.4 0.4 3.2 1.1l-1.2 1.6c-0.7-0.5-1.5-0.8-2.2-0.8-0.5 0-0.6 0.1-0.6 0.3 0 0.7 4.2 0.1 4.2 2.9 0 1.7-1.2 2.6-3.3 2.6-1.6 0.1-2.7-0.4-3.6-1.1z"/>
		<path d="m78.7 49.7v-2.9h-2.7v2.9h-2.3v-7.6h2.3v2.7h2.7v-2.7h2.3v7.6z"/>
		<path d="m82.2 49.7v-7.6h2.3v7.6z"/>
		<path d="m90.9 49.7-2.9-3.8v3.9h-2.3v-7.6h2.4l2.6 3.6v-3.6h2.3v7.6h-2.1z"/>
		<path d="m93.7 45.9c0-2.4 1.9-3.9 4.2-3.9 1.8 0 2.9 1 3.3 2l-1.9 1c-0.3-0.5-0.8-1-1.4-1-1.1 0-1.8 0.8-1.8 1.9s0.7 1.9 1.8 1.9c0.4 0 0.9-0.2 1.2-0.3v-0.3h-1.4v-2h3.7v3.1c-0.8 0.9-2 1.5-3.5 1.5-2.4 0.1-4.2-1.4-4.2-3.9z"/>
		<path d="m61.4 59.4-2.8-3.9v3.9h-2.3v-7.6h2.4l2.6 3.6v-3.6h2.3v7.6z"/>
		<path d="m64.7 59.4v-7.6h5.8v2h-3.5v0.8h3.4v2h-3.4v0.8h3.5v2z"/>
		<path d="m73.1 59.4v-5.6h-2v-2h6.4v2h-2v5.6z"/>
		<path d="m84.1 59.4-1-4.3-1 4.3h-2.4l-2.2-7.6h2.6l1 4.7 1.2-4.7h1.7l1.2 4.7 1-4.7h2.6l-2.2 7.6z"/>
		<path d="m88.5 55.6c0-2.3 1.8-3.9 4.2-3.9s4.2 1.6 4.2 3.9-1.8 3.9-4.2 3.9c-2.4 0.1-4.2-1.5-4.2-3.9zm6 0c0-1.1-0.7-1.9-1.8-1.9s-1.8 0.8-1.8 1.9 0.7 1.9 1.8 1.9 1.8-0.8 1.8-1.9z"/>
		<path d="m101.6 59.4-1.1-2.4h-0.8v2.4h-2.3v-7.6h4.1c1.8 0 2.7 1.2 2.7 2.6 0 1.3-0.8 2-1.4 2.3l1.4 2.7zm0.3-5c0-0.4-0.4-0.6-0.8-0.6h-1.4v1.2h1.4c0.4 0 0.8-0.2 0.8-0.6z"/>
		<path d="m109.4 59.4-1.7-2.7-0.4 0.6v2.1h-2.3v-7.6h2.3v2.9l2-2.9h2.8l-2.9 3.5 3 4.1z"/>
	</g>
</svg>
