<svg xmlns="http://www.w3.org/2000/svg" height="312.94" width="600" viewBox="0 0 158.75 82.799">
    <g fill="#fc1d4f">
        <path d="M111.067 22.91c-.161 1.479-.322 2.873-.468 4.268-.23 2.153-.444 4.306-.667 6.46-.329 3.171-.643 6.344-.98 9.516a5666.7 5666.7 0 0 1-1.21 11.332c-.192 1.831-.323 3.67-.706 5.478-.682 3.272-2.1 6.168-4.528 8.52-2.03 1.978-4.46 3.257-7.164 4.062-2.008.597-4.054.82-6.138.69-4.122-.254-7.363-2.07-9.7-5.48-1.08-1.593-1.778-3.363-2.23-5.217a922.108 922.108 0 0 1-2.62-11.264c-.859-3.755-1.702-7.525-2.552-11.28-.935-4.152-1.862-8.305-2.797-12.458-.314-1.402-.628-2.812-.942-4.222a2.838 2.838 0 0 0-.123-.437c-.207-.56-.544-.79-1.072-.736-.476.054-.759.345-.843.928-.077.544-.13 1.095-.184 1.64-.345 3.424-.697 6.842-1.035 10.266-.29 2.989-.567 5.977-.865 8.958-.36 3.67-.736 7.332-1.104 11.003-.276 2.758-.529 5.524-.835 8.275-.291 2.62-.866 5.164-2.023 7.555-1.678 3.448-4.252 6.03-7.478 8.014-3.326 2.054-6.973 3.15-10.82 3.678-2.229.3-4.466.437-6.704.238-4.084-.368-7.846-1.579-11.118-4.122-2.183-1.701-3.8-3.862-4.95-6.368-1.026-2.237-1.746-4.574-2.436-6.926-.567-1.893-1.157-3.778-1.74-5.67-.681-2.23-1.37-4.46-2.053-6.697-.613-2-1.21-4-1.816-6-.728-2.375-1.463-4.758-2.191-7.133-.743-2.414-1.487-4.828-2.23-7.249-.843-2.758-1.678-5.524-2.528-8.275-.736-2.36-1.502-4.705-2.23-7.065-.605-1.984-1.218-3.961-1.732-5.961a7.83 7.83 0 0 1 .092-4.283c.582-1.9 1.778-3.34 3.387-4.444C7.052.228 10.729-.4 14.66.213c3.364.52 6.344 1.908 8.957 4.084 2.191 1.831 3.578 4.145 4.283 6.903.529 2.077 1.088 4.153 1.64 6.222.781 2.942 1.563 5.877 2.337 8.82.781 2.972 1.57 5.945 2.337 8.926.927 3.647 1.831 7.294 2.735 10.949a700.768 700.768 0 0 1 1.947 7.915c.613 2.582 1.187 5.18 1.785 7.77.176.796.345 1.6.544 2.39.191.766.69 1.08 1.433.965.613-.1.88-.36.95-1.019.1-.927.176-1.854.26-2.781l.736-7.777c.291-3.157.575-6.314.866-9.47.367-3.993.735-7.985 1.095-11.977.284-3.103.56-6.206.85-9.31.223-2.367.514-4.72 1.235-6.995.65-2.03 1.578-3.908 2.927-5.57 1.884-2.322 4.29-3.87 7.148-4.636 5.41-1.44 10.674-.958 15.692 1.54 3.494 1.74 5.977 4.513 7.724 7.961 1.142 2.253 1.824 4.666 2.314 7.134a4222.632 4222.632 0 0 1 3.295 16.48c1.187 6.016 2.367 12.038 3.547 18.053.085.414.154.827.253 1.226.123.483.552.75 1.035.69.298-.039.498-.269.559-.706.069-.505.115-1.019.153-1.532.222-2.873.422-5.754.644-8.635.23-3.012.467-6.023.72-9.034.207-2.398.43-4.804.659-7.203.276-2.873.575-5.746.858-8.62.268-2.704.537-5.409.797-8.106.1-1.05.268-2.069.62-3.065 1.204-3.318 4.483-4.69 7.226-4.398 1.303.138 2.613.23 3.916.337l4.038.322c1.716.138 8.765.697 10.559.873 1.134.108 2.283.169 3.394.399 6.375 1.302 10.773 5.003 13.202 11.034.736 1.816 1.15 3.716 1.44 5.654.345 2.23.33 4.475.215 6.713-.146 2.896-.62 5.746-1.655 8.49-1.885 5.041-5.478 8.229-10.536 9.86-1.272.414-2.59.598-3.908.775-2.053.268-4.107.505-6.168.758-.528.07-1.057.13-1.586.192-1.119.13-2.053-.246-2.804-1.08-.69-.767-1.119-1.679-1.364-2.66-.544-2.214-.391-4.382.659-6.428a8.656 8.656 0 0 1 1.011-1.51c.713-.88 1.632-1.41 2.782-1.478 1.708-.108 3.417-.2 5.126-.322 1.003-.077 2.007-.161 2.995-.322 5.126-.85 6.1-15.31-.666-15.815-.904-.107-1.824-.1-2.736-.115-3.662-.061-7.332-.115-11.003-.176h-.666M152.616 78.8V5.993a3.064 3.064 0 1 1 6.13 0V78.8a3.064 3.064 0 1 1-6.13 0"/>
    </g>
</svg>
