<?xml version="1.0" encoding="UTF-8" standalone="no"?>
<svg id="svg2" xmlns:rdf="http://www.w3.org/1999/02/22-rdf-syntax-ns#" xmlns="http://www.w3.org/2000/svg" height="348.75pt" width="831.95pt" version="1.1" xmlns:cc="http://creativecommons.org/ns#" xmlns:dc="http://purl.org/dc/elements/1.1/" viewBox="0 0 831.94793 348.75006">
 <metadata id="metadata32">
  <rdf:RDF>
   <cc:Work rdf:about="">
    <dc:format>image/svg+xml</dc:format>
    <dc:type rdf:resource="http://purl.org/dc/dcmitype/StillImage"/>
    <dc:title/>
   </cc:Work>
  </rdf:RDF>
 </metadata>
 <g id="g4" transform="matrix(7.3439 0 0 7.3439 924.41 5862.4)" stroke="#000" stroke-width="1.4777" fill="#c22634">
  <path id="path6" d="m-95.57-783.26 10.117 14.883h-7.832l-6.8164-9.9609-6.7578 9.9609h-7.8711l10.117-14.883-9.7266-14.277h7.8516l6.3867 9.3945 6.3672-9.3945h7.8906z"/>
  <path id="path8" d="m-64.711-783.26 10.117 14.883h-7.832l-6.8164-9.9609-6.7578 9.9609h-7.8711l10.117-14.883-9.7266-14.277h7.8516l6.3867 9.3945 6.3672-9.3945h7.8906z"/>
  <path id="path10" d="m-33.852-783.26 10.117 14.883h-7.832l-6.8164-9.9609-6.7578 9.9609h-7.8711l10.117-14.883-9.7266-14.277h7.8516l6.3867 9.3945 6.3672-9.3945h7.8906z"/>
 </g>
 <g id="g12" transform="matrix(3.7185 0 0 3.7185 2450.9 -2030.5)">
  <path id="path14" d="m-637.94 633.96h-11.758l-1.8555 5.3125h-7.5586l10.801-29.16h8.9648l10.801 29.16h-7.5586zm-9.8828-5.4102h7.9883l-3.9844-11.602z"/>
  <path id="path16" d="m-598.48 637.1q-2.8125 1.3672-5.8398 2.0508-3.0273 0.68359-6.25 0.68359-7.2852 0-11.543-4.0625-4.2578-4.082-4.2578-11.055 0-7.0508 4.3359-11.094 4.3359-4.043 11.875-4.043 2.9102 0 5.5664 0.54688 2.6758 0.54687 5.0391 1.6211v6.0352q-2.4414-1.3867-4.8633-2.0703-2.4024-0.6836-4.8242-0.6836-4.4922 0-6.9336 2.5195-2.4219 2.5-2.4219 7.168 0 4.6289 2.3438 7.1484t6.6602 2.5195q1.1719 0 2.168-0.13672 1.0156-0.15625 1.8164-0.46875v-5.6641h-4.5898v-5.0391h11.719z"/>
  <path id="path18" d="m-591.88 610.11h20.293v5.6836h-12.773v5.4297h12.012v5.6836h-12.012v6.6797h13.203v5.6836h-20.723z"/>
  <path id="path20" d="m-524.42 637.1q-2.8125 1.3672-5.8398 2.0508-3.0273 0.68359-6.25 0.68359-7.2852 0-11.543-4.0625-4.2578-4.082-4.2578-11.055 0-7.0508 4.3359-11.094 4.3359-4.043 11.875-4.043 2.9102 0 5.5664 0.54688 2.6758 0.54687 5.0391 1.6211v6.0352q-2.4414-1.3867-4.8633-2.0703-2.4024-0.6836-4.8242-0.6836-4.4922 0-6.9336 2.5195-2.4219 2.5-2.4219 7.168 0 4.6289 2.3438 7.1484t6.6602 2.5195q1.1719 0 2.168-0.13672 1.0156-0.15625 1.8164-0.46875v-5.6641h-4.5898v-5.0391h11.719z"/>
  <path id="path22" d="m-500.12 633.96h-11.758l-1.8555 5.3125h-7.5586l10.801-29.16h8.9648l10.801 29.16h-7.5586zm-9.8828-5.4102h7.9883l-3.9844-11.602z"/>
  <path id="path24" d="m-486.88 610.11h12.48q5.5664 0 8.5352 2.4805 2.9883 2.4609 2.9883 7.0312 0 4.5898-2.9883 7.0703-2.9688 2.4609-8.5352 2.4609h-4.9609v10.117h-7.5195zm7.5195 5.4492v8.1445h4.1602q2.1875 0 3.3789-1.0547 1.1914-1.0742 1.1914-3.0273t-1.1914-3.0078-3.3789-1.0547z"/>
  <path id="path26" d="m-437.29 611.03v6.1719q-2.4023-1.0742-4.6875-1.6211-2.2852-0.54688-4.3164-0.54688-2.6953 0-3.9844 0.74219t-1.2891 2.3047q0 1.1719 0.85938 1.8359 0.8789 0.64453 3.1641 1.1133l3.2031 0.64453q4.8633 0.97656 6.9141 2.9688t2.0508 5.6641q0 4.8242-2.8711 7.1875-2.8516 2.3438-8.7305 2.3438-2.7734 0-5.5664-0.52734-2.793-0.52735-5.5859-1.5625v-6.3477q2.793 1.4844 5.3906 2.2461 2.6172 0.74219 5.0391 0.74219 2.4609 0 3.7695-0.82031t1.3086-2.3438q0-1.3672-0.89843-2.1094-0.87891-0.74218-3.5352-1.3281l-2.9102-0.64453q-4.375-0.9375-6.4062-2.9883-2.0117-2.0508-2.0117-5.5274 0-4.3555 2.8125-6.6992 2.8125-2.3438 8.0859-2.3438 2.4024 0 4.9414 0.3711 2.5391 0.35156 5.2539 1.0742z"/>
 </g>
</svg>
