<?xml version="1.0" encoding="UTF-8" standalone="no"?>
<svg id="svg2" xmlns:rdf="http://www.w3.org/1999/02/22-rdf-syntax-ns#" xmlns="http://www.w3.org/2000/svg" height="141.24" viewBox="0 0 138.33999 141.24445" width="138.34" version="1.1" xmlns:cc="http://creativecommons.org/ns#" xmlns:dc="http://purl.org/dc/elements/1.1/">
 <g id="g4138" transform="translate(-.34958 -.055571)">
  <path id="path4142" fill="#4a94ce" d="m0.35 141.06c0.09023-0.21 30.927-46.026 37.599-55.86 1.5115-2.2275 5.6959-8.4375 9.2986-13.8s7.6874-11.411 9.077-13.442c1.6209-2.3683 2.4609-3.8628 2.3434-4.1691-0.101-0.262-7.605-12.392-16.675-26.954-9.071-14.562-16.493-26.559-16.493-26.659 0-0.1005 5.4304-0.14744 12.068-0.10432l12.067 0.07832 10.865 17.4c5.9759 9.57 10.998 17.4 11.16 17.4 0.16237 0 5.6142-7.8161 12.115-17.369l11.821-17.369 12.274 0.06451c6.75 0.035518 12.326 0.11824 12.392 0.18382 0.0656 0.065583-0.68961 1.3051-1.6782 2.7545-0.99 1.4494-9.33 13.773-18.53 27.385-9.208 13.613-18.131 26.79-19.832 29.283l-3.0926 4.5331 2.037 0.18932c1.1203 0.10412 2.4438 0.27069 2.9411 0.37013l0.90409 0.18082 0.19468-2.3031c0.946-11.196 11.197-18.153 26.748-18.153 13.666 0 22.605 5.1311 25.612 14.7 0.73437 2.3375 1.3474 6.611 0.99837 6.96-0.13716 0.13715-4.1537 0.21351-8.9257 0.16968l-8.6763-0.07969-0.23694-1.6472c-0.31904-2.2179-1.3628-3.7076-3.2975-4.7066-1.3295-0.68648-2.0446-0.83182-4.6098-0.93694-3.6746-0.15059-5.9167 0.38969-7.2817 1.7548-1.6092 1.6092-1.5905 4.0152 0.0456 5.8787 1.8244 2.0778 5.5209 3.4386 14.55 5.3561 8.2942 1.7614 10.732 2.6525 13.722 5.0149 5.0491 3.99 7.4399 10.144 6.7112 17.275-0.33175 3.2465-1.3362 6.5766-2.733 9.0611-0.5102 0.9075-2.0865 2.8011-3.5029 4.208-2.8549 2.8357-5.5864 4.4651-9.7808 5.8343-4.7435 1.5484-6.6546 1.6904-19.749 1.4672l-11.954-0.20381-1.5248-1.9028c-0.83867-1.0466-1.6023-1.9028-1.697-1.9028-0.09467 0-0.8467 0.48381-1.6712 1.0751-3.6845 2.6426-7.129 3.7249-11.855 3.7249-1.8768 0-3.8868-0.18722-4.9316-0.45936-9.1792-2.3909-13.943-12.216-9.9097-20.439 1.2587-2.5663 4.4484-5.7323 7.3138-7.2596 1.0084-0.53747 1.8335-1.0355 1.8335-1.1067 0-0.07122-0.59112-0.99291-1.3136-2.0482s-1.379-2.1028-1.4589-2.3279c-0.07993-0.22506-0.20933-0.34171-0.28755-0.25921s-9.1606 13.481-20.183 29.775l-20.041 29.625h-12.433c-6.8381 0-12.388-0.1069-12.333-0.23756zm77.457-35.48c1.5311-0.79803 3.4932-2.3275 3.4932-2.7231 0-0.23415-4.8437-6.2356-6.4776-8.0259-0.57503-0.63007-1.9849 0.0632-3.8601 1.8981-1.1 1.0764-1.649 1.8946-1.8768 2.7971-0.72861 2.8867 0.73345 5.3068 3.8792 6.4211 1.8303 0.64835 3.0745 0.55397 4.8421-0.36733zm35.159-4.8728c4.5288-0.94954 7.0184-4.0464 6.3059-7.8441-0.2599-1.3854-1.7006-3.0152-3.4452-3.8976-1.5035-0.76044-5.7984-2.0073-11.877-3.4481-4.5871-1.0873-9.0324-2.5006-11.015-3.5021-0.77826-0.39314-1.4771-0.7148-1.553-0.7148-0.07589 0-0.46649 0.70875-0.86799 1.575-0.94737 2.0439-2.7802 4.083-4.9385 5.4943-0.94899 0.6205-1.7822 1.1743-1.8516 1.2306-0.0694 0.05635 0.18828 0.43719 0.57263 0.8463l0.69881 0.74385 7.6734 0.07997 7.6734 0.07997 0.23682 1.6464c0.3222 2.2401 1.1922 3.9161 2.8042 5.402 2.5472 2.348 5.7335 3.1154 9.5832 2.3083zm-32.741-19.785c1.9942-1.9427 2.5774-3.5931 1.9313-5.4652-0.75841-2.1976-3.2588-3.1583-5.4786-2.1049-1.739 0.82519-2.4581 3.0543-1.6613 5.1499 0.4579 1.2044 2.6737 3.9953 3.172 3.9953 0.23094 0 1.1474-0.70875 2.0366-1.575zm-35.231 56.405c-0.0018-3.1557-0.1493-4.2884-1.0435-8.0165-0.59254-2.4703-0.9286-4.4542-0.77972-4.6031 0.14392-0.14392 0.51148-0.21356 0.8168-0.15476 0.45051 0.0868 0.67536 0.72815 1.193 3.4031 0.69297 3.5808 0.64324 3.605 1.5413-0.74974 0.4118-1.9968 0.64507-2.5691 1.0815-2.6531 0.30606-0.0589 0.66592 0.007 0.7997 0.14596 0.13377 0.13923-0.21388 2.0756-0.77257 4.3031-0.89476 3.5674-1.0169 4.5236-1.0251 8.025l-0.0093 3.975h-0.9-0.9l-0.0021-3.675zm8.1039 3.3199c0.0009-0.21721 0.2069-1.7449 0.4576-3.3949 0.25071-1.65 0.72172-4.89 1.0467-7.2 0.82196-5.843 0.71977-5.55 1.9361-5.55 0.92819 0 1.0475 0.097 1.1996 0.975 0.21887 1.2637 2.2583 15.163 2.2583 15.391 0 0.0956-0.37125 0.13103-0.825 0.0788-0.77834-0.0896-0.84206-0.21371-1.1267-2.1949l-0.3017-2.1-1.23-0.0901-1.23-0.0901-0.26835 2.1901c-0.25601 2.0894-0.30627 2.1945-1.0934 2.2851-0.53088 0.0611-0.82437-0.0459-0.82323-0.3zm4.3983-6.3199c-0.09074-0.37125-0.32679-2.1298-0.52455-3.908-0.19776-1.7781-0.40299-3.1896-0.45606-3.1365-0.07225 0.0723-1.0194 7.1666-1.0194 7.6355 0 0.0462 0.48713 0.084 1.0825 0.084 0.9715 0 1.0656-0.0692 0.91754-0.675zm8.6832 6.2154c-0.72264-0.72264-0.82675-1.9606-0.72677-8.6424 0.09212-6.1559 0.10444-6.2609 0.80179-6.825 0.8903-0.72023 2.4719-0.73764 3.3375-0.0367 0.52286 0.42339 0.67188 0.88104 0.70823 2.175 0.0441 1.5696 0.01194 1.6427-0.76178 1.7321-0.76758 0.0886-0.81241 0.0214-0.9-1.35-0.07745-1.2125-0.1881-1.4433-0.69218-1.4433-0.5793 0-0.6028 0.227-0.681 6.5786-0.08229 6.6835 0.0034 7.255 1.0288 6.8616 0.26146-0.10034 0.4022-0.67499 0.4022-1.6422 0-1.4461 0.02313-1.4852 0.825-1.3929 0.78359 0.0902 0.82441 0.17305 0.81319 1.6515-0.01557 2.051-0.65696 2.7934-2.4133 2.7934-0.75158 0-1.4723-0.19019-1.7417-0.45965zm10.087-7.7154 0.07982-8.175h0.75 0.75l0.08452 3.525 0.08452 3.525h1.0405 1.0405v-3.6209c0-3.5834 0.007-3.6199 0.675-3.525l0.675 0.0959 0.07982 8.175 0.07982 8.175h-0.74586-0.74586l-0.08396-3.825-0.08396-3.825-0.975-0.094-0.975-0.094v3.919 3.919h-0.90482-0.90482l0.07982-8.175zm13.03 7.975c-0.11-0.11-0.2-3.485-0.2-7.5v-7.3h-0.77086c-0.62782 0-0.75308-0.12526-0.675-0.675 0.09029-0.63576 0.23538-0.675 2.4959-0.675 2.2 0 2.4 0.05 2.4 0.6 0 0.43153-0.23164 0.62665-0.825 0.69492l-0.825 0.0949v7.4801 7.4801h-0.7c-0.385 0-0.79-0.09-0.9-0.2zm12.794-0.0357c-0.53692-0.3414-0.99377-1.7591-0.99377-3.0838 0-1.1116 0.0525-1.1805 0.9-1.1805 0.86294 0 0.9 0.0541 0.9 1.3133 0 1.6548 0.72205 2.4382 1.4061 1.5254 0.8723-1.164 0.3773-3.5815-1.3523-6.6042-1.4763-2.5802-1.5538-2.8232-1.5538-4.875 0-2.6322 0.51957-3.3594 2.4-3.3594 1.7583 0 2.4 0.76732 2.4 2.8699 0 1.6448-0.0125 1.6685-0.825 1.575-0.53904-0.062-0.7916-0.24713-0.72863-0.53402 0.053-0.2415 0.0115-0.89113-0.0921-1.4436-0.15366-0.81907-0.30992-0.98725-0.84637-0.91091-0.59627 0.0849-0.65611 0.26227-0.63869 1.8936 0.0172 1.612 0.17268 2.0506 1.4887 4.2 1.4128 2.3074 1.4739 2.5001 1.5846 4.9962 0.10295 2.3229 0.0489 2.6624-0.51371 3.225-0.6428 0.6428-2.7702 0.87936-3.535 0.39308zm9.5062 0.0733c0-0.36224 2.0974-14.664 2.275-15.513 0.14741-0.70447 0.32172-0.825 1.1931-0.825 1.0974 0 1.1192 0.0382 1.4541 2.55 0.088 0.66 0.56898 3.9612 1.0689 7.3361 0.49991 3.3748 0.90892 6.2526 0.90892 6.3949 0 0.14237-0.3705 0.21613-0.82332 0.16393-0.77626-0.0895-0.84057-0.21498-1.125-2.1949l-0.30168-2.1h-1.1968-1.1968l-0.30318 2.1c-0.28598 1.9808-0.35002 2.1054-1.1282 2.1949-0.45375 0.0522-0.825 0.004-0.825-0.10729zm4.385-6.6626c-0.0895-0.45375-0.31517-2.175-0.50156-3.825s-0.37793-3.0403-0.42565-3.0895c-0.0477-0.0492-0.24592 1.3008-0.44047 3-0.19454 1.6992-0.42375 3.4607-0.50936 3.9145-0.14678 0.77804-0.0932 0.825 0.94203 0.825 1.0369 0 1.0887-0.0457 0.93501-0.825zm8.3504 6.4451c-0.0802-0.20896-0.1097-3.8877-0.0656-8.175l0.0802-7.7951h0.75 0.75l0.0798 8.175 0.0798 8.175h-0.76423c-0.42033 0-0.82985-0.17097-0.91003-0.37993zm8.2646-7.8701v-8.25h0.75 0.75v7.5 7.5h1.2c1.08 0 1.2 0.075 1.2 0.75 0 0.72308-0.07 0.75-1.95 0.75h-1.95v-8.25zm-38.504 2.9014c-0.66007-0.72937-0.62809-1.7198 0.07833-2.4262 0.44763-0.44763 0.5386-0.8449 0.41113-1.7953-0.14538-1.0839-0.08382-1.2502 0.55017-1.4862 0.84208-0.3134 1.7599-0.0355 2.1995 0.66606 0.23299 0.37182 0.18137 0.73443-0.19939 1.4007-0.28257 0.49445-0.43688 1.0994-0.34291 1.3443 0.19217 0.50078 0.70667 0.60654 0.70667 0.14526 0-0.165 0.19912-0.3 0.4425-0.3 0.33255 0 0.39737 0.22565 0.26087 0.90814-0.12878 0.64388-0.02577 1.0804 0.354 1.5 0.51581 0.56997 0.51393 0.59186-0.05087 0.59186-0.32258 0-0.7485-0.162-0.9465-0.36-0.28-0.28-0.44-0.28-0.72 0-0.54646 0.54646-2.1799 0.43416-2.7435-0.18862zm2.029-0.23348c0.59907-0.22988 0.59773-0.551-0.0061-1.4726-0.38886-0.59348-0.5894-0.67539-1.05-0.42889-0.71377 0.382-0.7383 1.3554-0.04433 1.7596 0.64138 0.37357 0.53319 0.35962 1.1005 0.14193zm0.41826-4.0972c0.12337-0.64058-0.80972-1.0611-1.1462-0.51657-0.34607 0.55995-0.0077 1.2419 0.56182 1.1322 0.26609-0.0512 0.52909-0.32828 0.58442-0.61563z"/>
  <path id="path4140" fill="#003c75" d="m0.6 141.13c0-0.15201 14.996-22.507 27.154-40.479 2.0092-2.97 8.017-11.88 13.351-19.8 5.3336-7.92 11.582-17.186 13.886-20.591l4.1882-6.1912-6.1486-9.8588c-3.382-5.424-10.1-16.205-14.928-23.96s-9.579-15.382-10.558-16.95l-1.781-2.85 11.779-0.07854c9.179-0.061204 11.855 0.005005 12.127 0.3 0.19154 0.2082 5.1717 8.1144 11.067 17.569 5.8953 9.4549 10.835 17.15 10.977 17.1 0.14191-0.04993 5.608-7.9545 12.147-17.566l11.889-17.475h12.158c11.051 0 12.141 0.043956 11.972 0.48282-0.17 0.43938-10.58 15.872-33.966 50.368-4.6989 6.93-8.6516 12.784-8.7838 13.008-0.13226 0.22431-0.96304 0.53916-1.8462 0.69968-4.0847 0.74242-7.9094 3.546-9.6439 7.0693-1.1525 2.3411-1.4732 5.8873-0.74472 8.2347l0.43805 1.4115-20.166 29.789-20.166 29.789-12.201 0.0784c-6.7104 0.0431-12.201-0.002-12.201-0.0998zm66.3-0.32c-1.1181-0.43376-1.2-0.97293-1.2-7.8962 0-7.897 0.05918-8.1094 2.2601-8.1094 1.0715 0 1.4173 0.13928 1.8014 0.72549 0.63952 0.97603 0.49151 3.2808-0.21933 3.4156-0.40908 0.0776-0.52572-0.17842-0.6-1.3167-0.10532-1.614-0.76732-2.309-1.5671-1.6453-0.40565 0.33666-0.47515 1.3068-0.47515 6.6331 0 3.4313 0.08194 6.4523 0.1821 6.7133 0.10015 0.261 0.49071 0.47454 0.8679 0.47454 0.80105 0 1.05-0.50371 1.05-2.1245 0-0.97546 0.10209-1.1755 0.6-1.1755 0.52466 0 0.6 0.2 0.6 1.5927 0 0.87596-0.16919 1.824-0.37598 2.1068-0.39449 0.5395-2.155 0.90439-2.924 0.60605zm35.7-0.0137c-0.84295-0.30127-1.2-1.1044-1.2-2.6992 0-1.3777 0.0788-1.5927 0.58357-1.5927 0.48125 0 0.59959 0.24443 0.675 1.3943 0.0969 1.4769 0.6725 2.1499 1.5507 1.8129 0.38709-0.14854 0.49077-0.61484 0.49077-2.2072 0-1.8873-0.10206-2.1958-1.5664-4.7344-1.4812-2.5678-1.5669-2.8314-1.575-4.8444-0.0108-2.6766 0.31211-3.1211 2.2676-3.1211 1.7167 0 2.0738 0.43569 2.0738 2.5303 0 1.1697-0.0876 1.3697-0.6 1.3697-0.49251 0-0.60082-0.20153-0.60459-1.125-0.006-1.3914-0.34622-1.9666-1.0814-1.8265-0.46865 0.0893-0.5792 0.42602-0.65365 1.9906-0.085 1.787-0.0124 2.0168 1.425 4.5074 1.5008 2.6004 1.5146 2.648 1.5146 5.222 0 2.3442-0.065 2.6432-0.66675 3.0646-0.65954 0.46196-1.7617 0.57029-2.6332 0.25882zm-57.3-3.383c0-2.7254-0.18051-4.0456-1.05-7.6799-0.5775-2.4138-1.05-4.5103-1.05-4.6589 0-0.14858 0.26043-0.27014 0.57873-0.27014 0.60317 0 0.61323 0.0326 1.5482 5.025 0.19313 1.0312 0.44508 1.875 0.55989 1.875s0.4501-1.379 0.74508-3.0644c0.29499-1.6854 0.60293-3.2379 0.68432-3.45 0.13006-0.33892 1.2838-0.57752 1.2838-0.26549 0 0.0661-0.4725 2.0951-1.05 4.5089-0.8839 3.6945-1.05 4.9331-1.05 7.8299 0 3.2411-0.03487 3.4411-0.6 3.4411-0.56354 0-0.6-0.2-0.6-3.2911zm8.1 2.8508c0-0.24217 0.4725-3.6701 1.05-7.6177s1.05-7.3269 1.05-7.5097c0-0.18276 0.44564-0.33229 0.9903-0.33229h0.9903l0.99754 6.975c0.54864 3.8362 1.0657 7.4138 1.149 7.95 0.12994 0.83673 0.06269 0.975-0.47424 0.975-0.49267 0-0.6619-0.23913-0.79617-1.125-0.48263-3.1844-0.50106-3.2173-1.8543-3.3159-1.3839-0.10083-1.3366-0.18117-1.775 3.0159-0.1546 1.1274-0.31364 1.425-0.76136 1.425-0.31126 0-0.56594-0.19814-0.56594-0.44031zm4.0912-7.1347c-0.29028-3.2388-0.84293-6.8733-1.0184-6.6978-0.20921 0.20921-1.2049 8.3646-1.0558 8.6478 0.06516 0.12375 0.60238 0.225 1.1938 0.225h1.0754l-0.19493-2.175zm19.009-0.375c0-7.75 0.01509-7.95 0.6-7.95 0.56667 0 0.6 0.2 0.6 3.6v3.6h1.2 1.2v-3.6c0-3.4 0.03333-3.6 0.6-3.6 0.58491 0 0.6 0.2 0.6 7.95 0 7.7098-0.01785 7.95-0.59104 7.95-0.55276 0-0.59648-0.24775-0.675-3.825l-0.08396-3.825h-1.05-1.05l-0.08396 3.825c-0.07852 3.5772-0.12224 3.825-0.675 3.825-0.57318 0-0.59104-0.24019-0.59104-7.95zm12.83 0.525-0.08024-7.425-0.675-0.0959c-0.37125-0.0527-0.675-0.28897-0.675-0.525 0-0.33403 0.49862-0.42913 2.25-0.42913 1.7537 0 2.25 0.0949 2.25 0.43007 0 0.24616-0.3528 0.47067-0.825 0.525l-0.825 0.0949-0.08024 7.425c-0.07731 7.1538-0.10178 7.425-0.66976 7.425s-0.59245-0.27123-0.66976-7.425zm22.568 7.05c-0.0009-0.20625 0.49769-3.7838 1.1079-7.95l1.1094-7.575h0.93428 0.93428l1.1094 7.575c0.61017 4.1662 1.1087 7.7438 1.1079 7.95-0.0009 0.20625-0.26328 0.375-0.58317 0.375-0.469 0-0.6159-0.2759-0.75869-1.425-0.33267-2.677-0.48611-2.925-1.8097-2.925s-1.477 0.248-1.8097 2.925c-0.1428 1.1491-0.28969 1.425-0.7587 1.425-0.31989 0-0.58231-0.16875-0.58317-0.375zm4.1988-6c-0.004-1.4198-0.81767-7.7454-1.0227-7.9504-0.096-0.096-0.1799-0.0508-0.18642 0.10045-0.007 0.15125-0.25222 2.1331-0.54599 4.404-0.29377 2.271-0.46843 4.1947-0.38814 4.275 0.0803 0.0803 0.59599 0.14599 1.146 0.14599 0.92876 0 0.99981-0.0695 0.99729-0.975zm8.4027-1.575c0-7.75 0.0151-7.95 0.6-7.95 0.58491 0 0.6 0.2 0.6 7.95s-0.0151 7.95-0.6 7.95c-0.58491 0-0.6-0.2-0.6-7.95zm8.1-0.0208v-7.9709l0.675 0.0959 0.675 0.0959 0.0802 7.425 0.0802 7.425h1.1948c0.86201 0 1.1948 0.12533 1.1948 0.45 0 0.35385-0.41667 0.45-1.95 0.45h-1.95v-7.9709zm-26.089-17.782-1.6392-0.1973-4.8645-5.7c-2.6755-3.135-4.8741-5.881-4.8858-6.1023-0.0117-0.22127 0.44101-0.94236 1.006-1.6024 1.3438-1.5699 3.0571-4.8556 3.5887-6.8824 0.23269-0.88708 0.48941-1.4104 0.57048-1.1629 1.24 3.7855 2.7977 5.7817 5.3994 6.9195 2.1455 0.93827 6.1839 1.1525 8.3834 0.44463 3.1485-1.0133 5.0621-3.0274 5.5043-5.7936 0.40298-2.5206-1.3041-5.11-4.2188-6.3994-0.67416-0.29822-5.1384-1.5499-9.9206-2.7815-9.0487-2.3305-14.19-4.1737-13.971-5.0087 0.06218-0.23701 0.1792-1.3786 0.26002-2.5369 0.17237-2.4702-0.43395-5.2232-1.5817-7.1817-1.0406-1.7756-3.3652-3.8844-5.3611-4.8632l-1.6591-0.8137 0.17084-1.8177c0.88381-9.4035 6.6714-15.172 17.808-17.748 2.7218-0.62968 11.866-0.89625 15.004-0.43741 6.8519 1.0019 10.962 2.816 14.578 6.4342 1.8731 1.8743 2.6888 2.9696 3.5503 4.7673 1.0871 2.2686 2.2559 6.8327 2.264 8.841l0.004 0.975h-8.6592-8.6592l-0.19199-1.4007c-0.57321-4.182-4.2003-6.3828-9.93-6.0254-4.9626 0.30961-7.6435 2.7359-6.7197 6.0815 0.95593 3.4621 4.5247 5.0416 17.66 7.8163 5.6452 1.1925 8.0964 2.0589 10.642 3.7614 6.6592 4.454 9.3661 12.709 7.0862 21.61-2.2198 8.6664-9.2322 14.471-19.694 16.303-3.045 0.53321-9.0764 0.7954-11.523 0.50092zm-19.766-21.497-1.5626-1.95h2.5588c2.0991 0 2.5588 0.08263 2.5588 0.45997 0 0.6072-1.4421 3.44-1.7512 3.44-0.13261 0-0.9443-0.8775-1.8037-1.95z"/>
 </g>
</svg>
