<?xml version="1.0" encoding="UTF-8" standalone="no"?>
<svg id="svg2" xmlns:rdf="http://www.w3.org/1999/02/22-rdf-syntax-ns#" xmlns="http://www.w3.org/2000/svg" height="285.19" viewBox="0 0 520.69019 285.1941" width="520.69" version="1.1" xmlns:cc="http://creativecommons.org/ns#" xmlns:dc="http://purl.org/dc/elements/1.1/">
 <rect id="rect4140" stroke-linejoin="bevel" ry="21.63" height="229.85" width="244.4" stroke="#fff" stroke-linecap="round" y="26.249" x="17.457" stroke-width="6.733" fill="#fff"/>
 <path id="path4138" d="m8.1 284.17c-3.0562-1.4-5.5719-3.92-6.9727-6.97-1.0572-2.3-1.1015-7.66-1.1141-134.78l-0.0132-132.38 1.6765-3.2122c1.2206-2.3365 2.4724-3.7013 4.603-5.0185l2.9264-1.8093h133.89 133.89l2.5011 1.6551c1.3756 0.91032 3.2459 2.7806 4.1562 4.1562l1.6551 2.5011v134.19 134.19l-1.6551 2.501c-0.91031 1.3756-2.7806 3.2459-4.1561 4.1562l-2.501 1.6551-133.24 0.13897c-128.24 0.13-133.34 0.1-135.65-0.97zm74.221-68.34c4.7844-2.3564 8.7173-6.176 10.856-10.543 2.3459-4.791 23.053-88.45 23.665-95.608 0.30209-3.5353 0.22811-3.8062-1.5157-5.55-1.7014-1.7014-2.141-1.8333-6.1093-1.8333-5.4703 0-7.4065 0.96919-8.6648 4.3372-0.52658 1.4095-3.7697 14.851-7.2071 29.869-3.4373 15.019-6.4353 28.046-6.6621 28.95-0.3197 1.2738-0.76904 1.6428-1.9975 1.6402-2.913-0.006-5.9504-1.2019-6.9576-2.739-0.54778-0.83602-4.3529-14.209-8.4559-29.717-4.1029-15.509-7.7346-28.711-8.0704-29.338-1.229-2.3-3.079-3.01-7.855-3.01-7.5572 0-9.1799 2.3285-7.5263 10.8 1.1921 6.1071 15.762 57.829 16.959 60.203 2.7677 5.4891 6.7753 7.6804 14.761 8.0708 5.5705 0.27238 5.8285 0.34452 5.5629 1.5558-2.9854 13.618-4.3921 16.718-8.4734 18.673-2.6969 1.2916-8.1826 1.4905-18.608 0.67473-6.367-0.4982-6.7367-0.46333-7.95 0.75-1.0514 1.0514-1.2725 1.9937-1.2725 5.4234 0 5.2799 0.24015 5.8411 3.1302 7.3155 3.762 1.9192 6.653 2.2661 17.884 2.146l10.514-0.11245 3.9924-1.9663zm147.05-34c4.7905-1.0829 7.3582-2.3013 8.2121-3.8968 0.33978-0.63489 0.61779-2.8762 0.61779-4.9806 0-3.08-0.25037-4.095-1.2835-5.204-1.4288-1.5337-3.0492-1.5382-14.016-0.0387-6.5967 0.90191-18.531 0.43098-22.955-0.90577-5.9879-1.8095-8.3739-5.7462-8.9975-14.845l-0.31932-4.6587h22.01c21.051 0 22.115-0.0539 24.436-1.238 1.8097-0.92325 2.7394-1.945 3.6568-4.0189 1.0862-2.4556 1.1836-3.5007 0.83242-8.9326-1.46-22.582-11.778-32.812-33.064-32.781-15.686 0.0227-24.844 5.011-30.292 16.498-3.5587 7.5042-4.4847 13.023-4.4583 26.572 0.025 12.833 0.79282 17.644 3.8692 24.244 3.9158 8.3996 11.114 13.233 22.481 15.096 4.6902 0.7685 24.581 0.15051 29.27-0.90937zm-38.251-48.299c-0.57576-0.9316 0.84145-8.4163 2.1849-11.539 2.5553-5.9401 7.1671-8.4839 15.496-8.5477 4.8477-0.0371 6.1342 0.1701 8.6039 1.386 4.8812 2.4031 7.7315 7.6462 8.6003 15.82l0.36669 3.45h-17.45c-10.358 0-17.593-0.23135-17.802-0.56927zm-39.051 47.156c1.1243-1.1243 1.4959-2.321 1.8164-5.85 0.22167-2.4401 0.31585-27.657 0.20931-56.037-0.19-48.966-0.26-51.71-1.32-53.761-1.94-3.741-3.26-4.139-13.78-4.139-9.142 0-9.345 0.0283-11.157 1.5533-1.77 1.492-1.84 1.74-1.84 6.267 0 4.1166 0.18323 4.9263 1.4475 6.3967 1.256 1.4608 1.99 1.7231 5.55 1.9835l4.1025 0.3 0.3 51.203 0.3 51.203 1.4165 1.1469c1.1444 0.92654 2.3887 1.1469 6.4773 1.1469 4.5155 0 5.2131-0.1523 6.4742-1.4134zm307.53 10.377c-3.795-0.30296-8.925-0.89114-11.4-1.3071l-4.5-0.75622-0.15369-46.307-0.15369-46.307 3.1537-0.63093c6.7805-1.3565 14.393-1.9199 25.927-1.919 14.826 0.001 20.617 1.0282 28.887 5.1226 8.9708 4.4417 15.14 12.091 17.937 22.241 0.60963 2.2123 1.1186 7.0693 1.3204 12.6 0.99731 27.337-8.1769 46.229-26.086 53.718-8.1989 3.4285-20.612 4.6883-34.931 3.5452zm23.344-11.687c15.142-3.5693 23.091-16.55 23.866-38.976 0.48616-14.064-1.5889-21.357-7.8605-27.629-6.4755-6.4755-13.402-8.3776-28.762-7.8988-5.6584 0.17636-10.895 0.51117-11.638 0.74402l-1.35 0.42335v36.519 36.519l1.35 0.28806c0.7425 0.15844 1.89 0.40227 2.55 0.54183 3.2228 0.68152 18.25 0.31629 21.844-0.5309zm-140.94-36.88v-47.4h6.5923 6.5923l0.15768 21.15 0.15767 21.15 26.85 0.15618 26.85 0.15618v-21.306-21.306h6.9 6.9v47.4 47.4h-6.9-6.9v-20.1-20.1h-27-27v20.1 20.1h-6.6-6.6v-47.4z"/>
</svg>
