<svg xmlns="http://www.w3.org/2000/svg" height="285.19" viewBox="0 0 520.69 285.194" width="520.69">
    <rect stroke-linejoin="bevel" ry="21.63" height="229.85" width="244.4" stroke="#fff" stroke-linecap="round" y="26.249" x="17.457" stroke-width="6.733"/>
    <path fill="#fff" d="M8.1 284.17a14.3 14.3 0 0 1-6.973-6.97C.07 274.9.026 269.54.013 142.42L0 10.04l1.676-3.212C2.897 4.49 4.15 3.126 6.28 1.809L9.207 0h267.78l2.501 1.655c1.376.91 3.246 2.78 4.156 4.156l1.655 2.501v268.38l-1.655 2.501c-.91 1.376-2.78 3.246-4.156 4.157l-2.5 1.655-133.24.139c-128.24.13-133.34.1-135.65-.97zm74.221-68.34c4.784-2.356 8.717-6.176 10.856-10.543 2.346-4.791 23.053-88.45 23.665-95.608.302-3.535.228-3.806-1.516-5.55-1.701-1.701-2.14-1.833-6.109-1.833-5.47 0-7.407.969-8.665 4.337-.526 1.41-3.77 14.85-7.207 29.869s-6.435 28.046-6.662 28.95c-.32 1.274-.769 1.643-1.998 1.64-2.913-.006-5.95-1.202-6.957-2.739-.548-.836-4.353-14.209-8.456-29.717-4.103-15.509-7.735-28.71-8.07-29.338-1.23-2.3-3.08-3.01-7.855-3.01-7.558 0-9.18 2.329-7.527 10.8 1.192 6.107 15.762 57.83 16.96 60.203 2.767 5.49 6.775 7.68 14.76 8.07 5.57.273 5.829.345 5.563 1.557-2.985 13.618-4.392 16.718-8.473 18.673-2.697 1.291-8.183 1.49-18.608.674-6.367-.498-6.737-.463-7.95.75-1.052 1.052-1.273 1.994-1.273 5.424 0 5.28.24 5.84 3.13 7.315 3.762 1.92 6.653 2.266 17.884 2.146l10.514-.112 3.993-1.966zm147.05-34c4.79-1.083 7.358-2.301 8.212-3.897.34-.635.618-2.876.618-4.98 0-3.08-.25-4.095-1.284-5.204-1.428-1.534-3.049-1.539-14.016-.04-6.596.903-18.53.432-22.955-.905-5.988-1.81-8.374-5.746-8.997-14.845l-.32-4.659h22.01c21.052 0 22.116-.053 24.437-1.238 1.81-.923 2.739-1.945 3.656-4.018 1.087-2.456 1.184-3.501.833-8.933-1.46-22.582-11.778-32.812-33.064-32.781-15.686.023-24.844 5.01-30.292 16.498-3.559 7.504-4.485 13.023-4.459 26.572.025 12.833.793 17.644 3.87 24.244 3.915 8.4 11.114 13.233 22.48 15.096 4.69.768 24.582.15 29.27-.91zm-38.251-48.299c-.576-.932.841-8.416 2.185-11.539 2.555-5.94 7.167-8.484 15.496-8.548 4.848-.037 6.134.17 8.604 1.386 4.881 2.403 7.731 7.646 8.6 15.82l.367 3.45h-17.45c-10.358 0-17.593-.231-17.802-.569zm-39.051 47.156c1.124-1.124 1.496-2.321 1.816-5.85.222-2.44.316-27.657.21-56.037-.19-48.966-.26-51.71-1.32-53.761-1.94-3.741-3.26-4.139-13.78-4.139-9.142 0-9.345.028-11.157 1.553-1.77 1.492-1.84 1.74-1.84 6.267 0 4.117.183 4.927 1.447 6.397 1.256 1.46 1.99 1.723 5.55 1.984l4.103.3.3 51.203.3 51.202 1.416 1.147c1.145.927 2.389 1.147 6.478 1.147 4.515 0 5.213-.152 6.474-1.413zm307.53 10.377c-3.795-.303-8.925-.891-11.4-1.307l-4.5-.756-.154-46.307-.153-46.307 3.153-.631c6.78-1.357 14.393-1.92 25.927-1.92 14.826.002 20.617 1.029 28.887 5.123 8.971 4.442 15.14 12.091 17.937 22.241.61 2.213 1.119 7.07 1.32 12.6.998 27.337-8.176 46.23-26.085 53.718-8.2 3.429-20.612 4.689-34.931 3.546zm23.344-11.687c15.142-3.57 23.091-16.55 23.866-38.976.486-14.064-1.589-21.357-7.86-27.629-6.476-6.476-13.403-8.378-28.763-7.899-5.658.177-10.895.511-11.638.744l-1.35.424v73.038l1.35.288c.743.158 1.89.402 2.55.541 3.223.682 18.25.317 21.844-.53zm-140.94-36.88v-47.4H355.188l.157 21.15.158 21.15 26.85.156 26.85.156V95.097h13.8v94.8h-13.8v-40.2h-54v40.2h-13.2v-47.4z"/>
</svg>
