<svg width="600" height="210.62" viewBox="0 0 158.75 55.727" xmlns="http://www.w3.org/2000/svg">
    <g fill="#a625aa">
        <path d="M149.527 18.55c-2.206 0-3.662.107-4.959.367l-.603.12.03 8.857.029 8.857.86.145c.474.08 1.455.192 2.18.25h.001c2.739.218 5.113-.022 6.681-.678 3.425-1.433 5.18-5.046 4.99-10.274-.04-1.058-.137-1.987-.253-2.41-.535-1.941-1.715-3.405-3.431-4.254-1.582-.783-2.69-.98-5.525-.98zm.592 2.099c2.239.025 3.388.439 4.472 1.522 1.2 1.2 1.596 2.595 1.503 5.285-.148 4.29-1.668 6.772-4.564 7.455-.688.162-3.562.232-4.178.101-.127-.026-.346-.073-.488-.104l-.258-.054v-13.97l.258-.082c.142-.044 1.144-.108 2.226-.142.367-.011.71-.015 1.03-.012zM124.573 27.86v-9.066h2.522l.03 4.045.03 4.046 5.135.03 5.136.03v-8.151h2.64v18.132h-2.64v-7.689h-10.328v7.689h-2.525V27.86z" stroke-width=".191"/>
        <path d="M2.41 0h50.902a2.404 2.404 0 0 1 2.413 2.413v50.902a2.404 2.404 0 0 1-2.413 2.413H2.41a2.404 2.404 0 0 1-2.413-2.413V2.413A2.404 2.404 0 0 1 2.41 0z"/>
    </g>
    <g fill="#fff">
        <path d="M9.12 40.38c0-.947.68-.968 1.003-.968.912 0 1.683.224 2.904.224 2.546 0 2.61-1.276 3.24-4.173H15.09c-2.946 0-3.156-2.392-3.598-3.928l-2.497-8.964s-.232-.814-.232-1.368c0-.996.688-1.192 1.319-1.192h.75c.891 0 1.088.28 1.537 1.83l2.398 9.147c.316 1.087.162 1.613 2.07 1.613l2.65-11.482c.155-.638.492-1.108 1.313-1.108h.925c.744 0 1.13.435 1.13 1.171 0 .59-.365 2.09-.365 2.09l-3.991 16.155c-.182.463-.87 3.24-5.156 3.24-2.518 0-4.222-.203-4.222-1.354zM26.751 34.35V15.131h-.75c-.744 0-1.424-.302-1.424-1.045v-1.172c0-.582.456-.981 1.227-.981h2.743c1.473 0 1.5 1.458 1.5 2.553v19.85c0 .498-.105 1.283-1.276 1.283h-.779c-.764 0-1.241-.294-1.241-1.27zM40.751 19.59c-3.949 0-6.916 1.747-6.916 7.772v1.34c0 5.414 2.778 7.133 6.523 7.133h1.747c2.686 0 4.377-.631 4.377-1.431v-.947c0-.54-.344-.961-.912-.961-.772 0-1.606.407-3.788.407-3.261 0-4.587-.386-4.587-4.04h7.814c.996 0 2.14-.4 2.14-1.936v-.716c0-4.32-2.175-6.621-6.398-6.621zm.056 2.525c2.511 0 3.325 1.803 3.325 4.054h-6.867c0-2.16.842-4.054 3.542-4.054z"/>
    </g>
    <g fill="#a625aa">
        <path d="M66.739 20.83v-2.223h14.515v2.223h-5.972v16.336h-2.63V20.83zM92.047 37.22h-3.672l-5.768-18.616h2.98L90.3 35.066l5.162-16.462h2.875zM102.894 35h8.45l-.02 2.224H99.967l-.268-2.287 4.738-4.503c.472-.45 4.041-3.662 4.041-6.769 0-1.711-.9-3.107-3.313-3.107-2.117 0-5.092 1.108-5.092 1.108l-.522-2.09s2.901-1.29 6.094-1.29c4.02 0 5.5 2.833 5.5 5.555 0 2.286-1.43 4.98-4.716 7.996-.83.785-2.147 1.964-3.535 3.163z"/>
    </g>
</svg>
