<svg width="600" height="216.95" version="1.1" viewBox="0 0 158.75 57.401662" xmlns="http://www.w3.org/2000/svg">
 <g transform="translate(-61.232 -209.33)">
  <g fill="#0099db">
   <path d="m210.48 228.45c-2.2723-1.7e-4 -3.7719 0.1106-5.1077 0.37787l-0.62144 0.12423 0.0303 9.123 0.0301 9.123 0.88655 0.14891c0.4876 0.0819 1.4984 0.19774 2.246 0.25742h4e-4c2.821 0.22521 5.2663-0.0229 6.8816-0.69838 3.5283-1.4754 5.3357-5.1972 5.1392-10.583-0.0398-1.0896-0.14002-2.0464-0.26012-2.4823-0.55104-1.9996-1.7666-3.5069-3.5339-4.382-1.6293-0.80663-2.7702-1.0087-5.691-1.0089zm0.6099 2.1617c2.3058 0.026 3.49 0.45214 4.6063 1.5684 1.2356 1.2356 1.6442 2.6725 1.5484 5.4432-0.15269 4.4181-1.7186 6.9757-4.7018 7.6788-0.70805 0.16691-3.6686 0.23893-4.3035 0.10462-0.13002-0.0275-0.35624-0.0757-0.50253-0.10704l-0.26589-0.0566v-14.389l0.26589-0.0835c0.14637-0.0459 1.1782-0.11187 2.293-0.14661 0.37825-0.0115 0.73069-0.0161 1.0601-0.0127z" stroke-width=".19701"/>
   <path d="m184.78 238.03v-9.3382h2.5975l0.0311 4.1667 0.0311 4.1668 5.2897 0.0307 5.2897 0.0307v-8.395h2.7187v18.676h-2.7187v-7.9198h-10.639v7.9198h-2.6005v-9.3382z" stroke-width=".19701"/>
   <path d="m63.719 209.33h52.429c1.3778 0 2.4869 1.1079 2.4869 2.4858v52.43c0 1.3779-1.1091 2.4858-2.4869 2.4858h-52.429c-1.3772 0-2.4865-1.1079-2.4865-2.4858v-52.43c0-1.3779 1.1093-2.4858 2.4865-2.4858z"/>
  </g>
  <g fill="#fff">
   <path d="m70.634 250.94c0-0.97632 0.69934-0.99016 1.0317-0.99016 0.9417 0 1.7387 0.22158 2.9933 0.22158 2.6222 0 2.6887-1.3156 3.3382-4.293h-1.2173c-3.0335 0-3.2502-2.465-3.7038-4.0506l-2.573-9.23s-0.2375-0.83782-0.2375-1.4056c0-1.0248 0.70974-1.2325 1.3571-1.2325h0.77482c0.91815 0 1.1203 0.29081 1.5829 1.8903l2.4657 9.4169c0.33167 1.1217 0.16826 1.6618 2.132 1.6618l2.7351-11.827c0.15579-0.65087 0.50338-1.1425 1.3461-1.1425h0.9583c0.76651 0 1.1626 0.45007 1.1626 1.2117 0 0.60934-0.37667 2.1534-0.37667 2.1534l-4.113 16.632c-0.18558 0.47777-0.89531 3.3375-5.3081 3.3375-2.589 0-4.3484-0.20081-4.3484-1.3918z"/>
   <path d="m88.79 244.72v-19.782h-0.77689c-0.76651 0-1.4617-0.31159-1.4617-1.0802v-1.2048c0-0.60241 0.46877-1.0109 1.2637-1.0109h2.8251c1.5122 0 1.5455 1.4956 1.5455 2.6243v20.447c0 0.5124-0.1129 1.3225-1.3177 1.3225h-0.79905c-0.7859 0-1.2789-0.30466-1.2789-1.3156z"/>
   <path d="m103.21 229.51c-4.07 0-7.1264 1.8072-7.1264 8.0044v1.3848c0 5.574 2.8639 7.3535 6.7158 7.3535h1.8017c2.7648 0 4.507-0.65781 4.507-1.4818v-0.97631c0-0.55394-0.35521-0.98324-0.93477-0.98324-0.79905 0-1.6604 0.41545-3.908 0.41545-3.3568 0-4.7182-0.39468-4.7182-4.1614h8.0459c1.0227 0 2.2012-0.40853 2.2012-1.9942v-0.73396c0-4.4523-2.2407-6.8273-6.5842-6.8273zm0.0533 2.6104c2.5883 0 3.4254 1.8557 3.4254 4.1684h-7.0738c0-2.2227 0.86621-4.1684 3.6484-4.1684z"/>
  </g>
  <g fill="#0099db">
   <path d="m129.97 230.8v-2.2919h14.954v2.2919h-6.1501v16.819h-2.7136v-16.819z"/>
   <path d="m156.04 247.68h-3.7813l-5.9417-19.173h3.0688l4.856 16.957 5.3171-16.957h2.9615z"/>
   <path d="m168.44 247.62v-16.701l-4.2037 0.85167-0.4293-2.0426 6.2006-1.281h1.146v19.173z"/>
  </g>
 </g>
</svg>
