<svg viewBox="0 0 474.2 579.83" xmlns="http://www.w3.org/2000/svg">
    <defs>
        <clipPath id="a">
            <path d="M118.04 296.42h228.55v228.54H118.04z"/>
        </clipPath>
    </defs>
    <path d="M159.965 478.262v12.536h-50.146v36.042h45.016v12.251H109.82v40.743H96V478.262zM180.484 579.828V478.256h64.676v12.25h-50.858v32.908h44.306v11.681h-44.306v32.481h52.283v12.252zM272.042 478.262h17.95l32.052 80.916 30.916-80.916h17.235l4.274 101.572h-14.104l-2.705-77.64-30.629 77.498h-11.112l-31.483-77.497-2.565 77.64H267.91zM-.002 369.372v-12.225H79.18v12.225H46.483v89.132H32.268v-89.132zM94.246 458.503V357.145h64.537v12.225h-50.748v32.838h44.211v11.658h-44.21v32.412h52.17v12.225zM179.537 458.503V357.145h64.539v12.225h-50.75v32.838h44.213v11.658h-44.213v32.412h52.172v12.225zM268.255 357.145h17.912l31.984 80.745L349 357.145h17.2l4.266 101.358h-14.073l-2.703-77.476-30.564 77.333h-11.087l-31.417-77.333-2.56 77.476h-13.93zM429.118 368.092l-17.344 49.612h33.406zm19.617 61.98h-41.226l-9.666 28.432h-14.359l35.966-101.785h20.188l34.543 101.785h-15.21z" fill="#040606"/>
    <g clip-path="url(#a)" transform="matrix(1.3333 0 0 -1.3333 -71.563 699.95)">
        <path d="M346.58 514.36V307.02c0-5.661-4.894-10.606-10.266-10.606h-207.55c-5.833 0-10.731 4.945-10.731 10.606v207.34c0 5.885 4.898 10.6 10.731 10.6h207.55c5.372 0 10.266-4.715 10.266-10.6" fill="#231f20"/>
        <path d="M211.62 438.2c0 2.823-1.831 4.643-4.651 4.643h-3.683c-3.19 0-4.624-1.588-5.704-6.329L187.16 391.23h-2.32c-3.514 0-4.985.884-6.23 5.843l-10.412 39.477-.116.432c-.794 3.018-1.544 5.861-5.14 5.861h-3.901c-3.141 0-4.869-1.647-4.869-4.643 0-1.822.494-4.532 1.556-8.56l11.066-39.463c1.983-7.447 6.024-10.629 13.501-10.629h4.437c-.468-2.478-1.47-7.582-2.096-9.52-2.029-6.317-5.173-7.644-10.586-7.644-4.47 0-7.404.345-9.544.595-1.287.148-2.313.271-3.254.271-2.544 0-3.996-1.536-3.996-4.214v-2.602c0-2.974 1.527-3.885 3.072-4.543 2.636-1.195 5.945-1.841 15.89-1.841 9.975 0 17.378 5.345 19.792 14.316 4.382 16.273 16.152 65.692 16.268 66.174 0 0 1.342 5.226 1.342 7.66M241.12 465.96c0 5.102-.525 10.073-6.821 10.073h-9.324c-1.683 0-6.166 0-6.166-4.43v-4.125c0-1.736.858-4.643 6.595-4.643h2.294v-77.557c0-4.141.845-6.381 5.295-6.381h3.039c4.223 0 5.088 2.548 5.088 6.381zM298.98 417.61l-28.273-.023c.425 11.648 4.856 16.632 14.585 16.638 9.584.002 13.404-5.668 13.688-16.615m12.338-2.813c0 12.668-2.912 29.788-26.259 29.788-19.563 0-28.288-10.67-28.288-34.583 0-23.308 8.14-31.972 30.024-31.972 9.765 0 16.178 1.336 18.68 2.482 1.57.666 3.099 1.563 3.099 4.557v2.377c0 2.684-1.454 4.215-3.995 4.215-.892 0-1.803-.179-2.953-.404-2.248-.443-5.642-1.114-12.232-1.114-16.421 0-18.475 2.963-18.945 16.519h31.015c7.473 0 9.854 3.251 9.854 8.135" fill="#fff"/>
    </g>
</svg>
