<svg version="1.1" viewBox="0 0 720.2 207.9" xml:space="preserve" xmlns="http://www.w3.org/2000/svg"><style type="text/css">
	.st0{fill:#00A2CF;}
	.st1{fill:#FFFFFF;}
	.st2{fill:#EE392F;}
</style><circle class="st0" cx="673.2" cy="47" r="47" fill="#00a2cf"/><g fill="#fff"><path class="st1" d="m639.8 30.9h8.2v35.8h-4.6v-31.7h-3.5v-4.1z"/><path class="st1" d="m670.4 49.1c0 6.4-0.6 11.1-1.9 13.9-1.2 2.8-3.3 4.1-6.2 4.1s-5-1.4-6.3-4.1c-1.2-2.7-1.8-7.4-1.8-14.2s0.6-11.5 1.8-14.2c1.2-2.8 3.3-4.2 6.2-4.2 2.7 0 4.7 1.2 6 3.7 1.5 2.6 2.2 7.6 2.2 15zm-4.9 0c0-5.4-0.2-9.1-0.7-11.2s-1.3-3.1-2.5-3.1-2.1 1-2.5 3.1c-0.5 2-0.7 5.7-0.7 11s0.2 9 0.7 11 1.3 3.1 2.5 3.1 2-1 2.5-3c0.4-2 0.7-5.6 0.7-10.9z"/><path class="st1" d="m673.1 30.9h16l-10.8 35.8h-5.1l9.9-31.7h-9.9v-4.1z"/><path class="st1" d="m690.3 61.3c0.8 0 1.4 0.3 2 0.9s0.8 1.2 0.8 2-0.3 1.5-0.8 2c-0.6 0.5-1.3 0.8-2 0.8-0.4 0-0.8-0.1-1.1-0.2s-0.7-0.3-0.9-0.6c-0.3-0.3-0.5-0.6-0.6-0.9s-0.2-0.7-0.2-1.1c0-0.8 0.3-1.5 0.8-2 0.5-0.6 1.2-0.9 2-0.9z"/><path class="st1" d="m696.1 30.9h8.2v35.8h-4.6v-31.7h-3.5v-4.1z"/></g><g fill="#00a2cf"><path class="st0" d="m67.2 207.8h-67.2v-2.1l22.9-52c1.7-3.1 3-5.7 4.1-7.7 1-2 1.8-3.4 2.2-4.3 0.8-1.6 2.4-4.4 4.9-8.2h-28.3v-23.4h64.7v2.7l-24 52.9c-1.6 3.4-3.1 6.7-4.7 9.9s-3.1 6.3-4.7 9.5c2.8-0.2 5-0.4 6.5-0.5 1.6-0.1 2.6-0.2 3.1-0.2l20.4-0.6z"/><path class="st0" d="m149.3 207.8h-27.3l-2-12.4h-17.8l-2.2 12.4h-27.3l23.5-97.7h32.3zm-32.3-33-1.7-11.4s-0.1-0.6-0.3-1.7c-0.1-0.9-0.5-4.6-1.3-11-0.1-0.7-0.2-1.7-0.3-2.9s-0.3-2.8-0.5-4.7l-0.8-9.2c-0.1 0.9-0.2 1.9-0.3 3s-0.3 2.3-0.5 3.6c-0.3 2.6-0.5 4.4-0.6 5.4s-0.2 1.6-0.3 1.8l-1.8 11.8-2.7 15.3z"/><path class="st0" d="m229.1 207.8h-27.3l-2-12.4h-17.8l-2.2 12.4h-27.3l23.5-97.7h32.4zm-32.3-33-1.7-11.4s-0.1-0.6-0.3-1.7c-0.1-0.9-0.5-4.6-1.3-11-0.1-0.7-0.2-1.7-0.3-2.9s-0.3-2.8-0.5-4.7l-0.8-9.2c-0.1 0.9-0.2 1.9-0.3 3s-0.3 2.3-0.5 3.6c-0.3 2.6-0.5 4.4-0.6 5.4s-0.2 1.6-0.3 1.8l-1.8 11.8-2.7 15.3z"/><path class="st0" d="m235.2 207.8v-97.7h25.2l13.2 34.3c0.7 2 1.5 4.3 2.4 7 0.9 2.6 1.9 5.6 3 9l2.7 8.6c-1-8.5-1.7-15.7-2.2-21.8-0.5-6-0.8-11.1-0.8-15.2v-22h25.4v97.7h-25.4l-14.1-35.9c-1.5-3.8-2.8-7.4-4-10.8s-2.2-6.5-3.1-9.6c1.1 6.9 1.8 12.9 2.3 18s0.7 9.6 0.7 13.4v24.9h-25.3z"/></g><g fill="#ee392f"><path class="st2" d="m386.6 207.8h-28.5l-13-34.8c-0.1-0.6-0.3-1.4-0.7-2.3-0.3-1-0.7-2.1-1.2-3.5l0.2 6.5v34.2h-26.3v-97.8h27c11.9 0 20.8 2.3 26.7 7 7.5 6 11.3 14.5 11.3 25.6 0 11.8-5 20-15.1 24.5zm-43.1-53.8h1.8c3 0 5.6-1.2 7.6-3.5s3-5.3 3-8.9c0-7.3-3.8-10.9-11.5-10.9h-0.9v23.3z"/><path class="st2" d="m466.9 207.8h-27.3l-2-12.4h-17.8l-2.2 12.4h-27.2l23.5-97.7h32.3zm-32.4-33-1.7-11.4s-0.1-0.6-0.3-1.7c-0.1-0.9-0.5-4.6-1.3-11-0.1-0.7-0.2-1.7-0.3-2.9s-0.3-2.8-0.5-4.7l-0.8-9.2c-0.1 0.9-0.2 1.9-0.3 3s-0.3 2.3-0.5 3.6c-0.3 2.6-0.5 4.4-0.6 5.4s-0.2 1.6-0.3 1.8l-1.8 11.8-2.7 15.3z"/><path class="st2" d="m473 207.8v-97.7h22.8c13 0 23.2 3.5 30.4 10.5 9.5 9.2 14.3 22 14.3 38.4 0 16.2-4 28.7-12.1 37.5-6.9 7.5-17.1 11.3-30.8 11.3zm26.4-23.4c9.5-0.5 14.2-8.6 14.2-24.4 0-7.8-1.2-14-3.6-18.5-2.4-4.6-5.7-6.8-9.7-6.8h-0.9z"/><path class="st2" d="m576.8 207.8h-26.4v-97.7h26.4z"/><path class="st2" d="m661.1 159.3c0 14.4-3.4 26.1-10.2 35.1s-15.5 13.4-26.4 13.4c-9.6 0-17.9-3.4-24.7-10.3-8.6-8.7-13-21.8-13-39.2 0-16.7 4.5-29.5 13.5-38.3 6.7-6.6 14.7-9.8 23.9-9.8 11.3 0 20.2 4.4 26.9 13.3 6.6 8.8 10 20.8 10 35.8zm-27.4 0.2c0-17.3-3.1-26-9.4-26-3.1 0-5.6 2.3-7.5 6.8-1.8 4.2-2.7 10.4-2.7 18.6 0 8.1 0.9 14.3 2.6 18.8 1.7 4.4 4.1 6.7 7.1 6.7 3.1 0 5.5-2.2 7.2-6.6 1.8-4.4 2.7-10.5 2.7-18.3z"/></g></svg>
