<svg width="494.6" height="123.28" version="1.1" viewBox="0 0 130.86 32.617" xmlns="http://www.w3.org/2000/svg">
 <path d="m42.724 32.403c-0.437-0.266-0.684-0.612-1.258-1.76-1.199-2.4-1.718-4.703-1.718-7.622 0-3.079 0.653-6.11 1.86-8.638 1.225-2.567 3.702-5.152 6.153-6.423 0.936-0.485 1.304-0.775 1.52-1.198 0.198-0.39 0.307-1.062 0.226-1.386-0.062-0.246-0.126-0.27-0.723-0.27-1.192 0-1.874-0.628-1.859-1.71 0.032-2.128 2.915-4.082 4.666-3.163 0.689 0.362 0.943 0.857 0.874 1.702-0.065 0.79-0.417 1.431-1.163 2.118-0.504 0.465-0.541 0.539-0.586 1.152-0.054 0.752 0.123 1.29 0.462 1.397 0.128 0.04 0.948 0.086 1.823 0.1 1.35 0.022 1.74 0.071 2.585 0.326 3.538 1.07 5.724 3.578 5.724 6.567 0 3.455-2.856 7.317-6.624 8.96-1.464 0.638-2.597 0.854-4.441 0.846-1.865-8e-3 -2.73-0.188-4.266-0.89-1.193-0.546-1.284-0.5-1.59 0.82-0.505 2.164-0.527 4.242-0.073 6.803 0.25 1.408 0.227 1.873-0.107 2.207-0.344 0.343-0.98 0.37-1.486 0.062zm7.456-11.985c2.71-0.837 4.735-3.538 4.257-5.675-0.613-2.74-4.631-2.731-7.142 0.015-1.14 1.247-1.648 2.807-1.297 3.988 0.476 1.603 2.188 2.288 4.182 1.672zm-45.324 5.085c-3.228-0.34-4.854-1.31-4.856-2.897-2e-3 -1.825 1.557-3.471 7.564-7.99 1.46-1.099 2.945-2.273 3.3-2.611 1.14-1.085 1.25-1.662 0.397-2.097-0.915-0.467-3.353-0.253-6.542 0.575-0.726 0.189-1.447 0.343-1.603 0.343-0.775 0-1.24-0.613-0.926-1.22 0.547-1.058 3.138-2.29 5.962-2.832 4.027-0.774 9.152-0.413 10.939 0.77 1.08 0.715 1.323 1.896 0.66 3.203-0.524 1.035-1.36 2.009-3.23 3.759-2.46 2.301-3.638 3.516-4.42 4.554-0.653 0.866-0.698 0.964-0.698 1.531 0 0.483 0.058 0.674 0.286 0.945 0.673 0.8 2.531 0.97 4.72 0.43 1.485-0.365 1.978-0.38 2.375-0.067 0.374 0.295 0.385 0.706 0.028 1.062-0.606 0.607-3.153 1.66-4.926 2.038-2.215 0.472-6.865 0.732-9.03 0.504zm20.548-0.19c-2.426-0.408-4.422-1.667-5.225-3.298-0.343-0.698-0.364-0.81-0.364-1.984 0-1.206 0.013-1.272 0.425-2.135 1.453-3.044 5.197-4.238 11.324-3.612 0.863 0.088 1.066-0.072 1.065-0.84 0-0.775-0.174-1.276-0.623-1.8-0.853-0.997-2.57-1.436-4.382-1.12-1.2 0.208-2.18 0.653-3.934 1.786-1.082 0.699-1.354 0.826-1.768 0.828-0.398 2e-3 -0.54-0.057-0.762-0.314-0.15-0.174-0.273-0.393-0.273-0.486 0-0.559 1.554-2.464 2.837-3.479 3.035-2.4 7.641-3.076 10.782-1.583 1.943 0.924 3.158 2.253 3.916 4.28 0.288 0.77 0.347 1.112 0.391 2.262 0.046 1.185 8e-3 1.582-0.297 3.162-0.577 2.98-0.613 3.347-0.527 5.322 0.068 1.554 0.053 1.873-0.1 2.17-0.427 0.824-1.144 0.751-2.153-0.217-0.94-0.903-1.102-0.921-2.429-0.268-2.162 1.064-3.71 1.413-6.153 1.388-0.807-8e-3 -1.595-0.036-1.75-0.062zm5.049-4.601c1.525-0.71 2.456-2.484 1.865-3.554-0.332-0.602-0.839-0.825-1.746-0.766-2.456 0.158-4.195 3.295-2.424 4.375 0.528 0.322 1.547 0.297 2.305-0.055zm4.774-15.658c-2.009-0.594-1.38-3.444 1.034-4.684 0.783-0.402 1.979-0.45 2.553-0.102 0.402 0.242 0.817 0.973 0.817 1.436 0 1.098-1.04 2.528-2.227 3.059-0.764 0.342-1.62 0.457-2.177 0.292zm6.397-0.031c-0.59-0.22-0.957-0.59-1.096-1.107-0.33-1.225 0.689-2.846 2.244-3.57 0.824-0.383 1.914-0.416 2.487-0.075 0.446 0.265 0.808 0.91 0.808 1.442 0 1.951-2.695 3.959-4.443 3.31z" fill="#1583bb"/>
 <path d="m83.111 6.6597q1.027 0.434 1.461 1.421 0.435 0.948 0 1.974l-5.725 13.938q-0.197 0.434-0.868 1.066-0.632 0.592-1.54 0.592-0.79 0-1.5-0.355-0.711-0.395-1.027-1.303l-5.804-13.938q-0.435-1.026 0-1.974 0.434-0.987 1.46-1.421 1.027-0.395 2.014 0.04 0.987 0.433 1.422 1.46l3.356 7.581 3.316-7.581q0.435-1.027 1.422-1.46 1.026-0.435 2.013-0.04z" fill="#19b585"/>
 <path d="m89.536 0.61871q1.027 0 1.737 0.79 0.75 0.75 0.75 1.776 0 1.027-0.75 1.817-0.71 0.75-1.737 0.75-1.145-0.04-1.895-0.71-0.711-0.712-0.711-1.975 0.04-1.027 0.79-1.737 0.79-0.711 1.816-0.711zm0 6.041q1.027 0 1.698 0.75 0.71 0.75 0.79 1.817v13.977q0 1.066-0.672 1.776-0.67 0.711-1.816 0.79-1.027 0-1.737-0.632-0.711-0.631-0.869-1.776v-14.294q0.079-1.026 0.83-1.698 0.75-0.67 1.776-0.71z" fill="#4f9ecc"/>
 <path d="m109.41 6.6597q1.027 0.434 1.461 1.421 0.434 0.948 0 1.974l-5.725 13.938q-0.197 0.434-0.869 1.066-0.631 0.592-1.54 0.592-0.79 0-1.5-0.355-0.71-0.395-1.027-1.303l-5.804-13.938q-0.434-1.026 0-1.974 0.435-0.987 1.461-1.421 1.027-0.395 2.014 0.04 0.987 0.433 1.421 1.46l3.357 7.581 3.316-7.581q0.435-1.027 1.422-1.46 1.026-0.435 2.013-0.04z" fill="#cee231"/>
 <path d="m122.42 6.5817q1.777 0.197 3.317 1.026 1.58 0.83 2.685 2.132 1.145 1.264 1.777 2.922 0.67 1.62 0.67 3.436v6.988q0 1.066-0.789 1.816-0.79 0.75-1.777 0.75-1.381 0-2.21-1.263-0.198 0.08-0.356 0.198l-0.316 0.158q-0.947 0.434-1.935 0.67-1.026 0.238-2.171 0.238-2.961 0-5.291-1.58-2.33-1.619-3.475-4.145-0.394-0.909-0.631-1.856-0.198-0.948-0.198-1.975 0-1.026 0.198-1.974 0.237-0.947 0.631-1.856 1.145-2.566 3.475-4.145 2.33-1.58 5.29-1.58h0.554q0.276 0 0.552 0.04zm-1.145 13.937q0.909 0 1.698-0.316 0.83-0.355 1.422-0.947t0.947-1.382q0.356-0.83 0.356-1.777 0-0.868-0.356-1.658-0.355-0.83-0.987-1.422-0.592-0.631-1.421-0.987-0.79-0.355-1.659-0.355-0.868 0-1.658 0.355-0.79 0.356-1.421 0.987-0.593 0.593-0.948 1.422-0.355 0.79-0.355 1.658 0 0.908 0.355 1.738 0.395 0.79 0.987 1.381 0.632 0.593 1.422 0.948t1.619 0.355z" fill="#da502f"/>
</svg>
