<svg width="1024" height="613" version="1.0" viewBox="-7.331 -7.331 432.77 259.03" xmlns="http://www.w3.org/2000/svg">
 <path d="m280.91 158.12h-25.686v-71.023h25.686c20.184 0 27.442 8.635 27.442 35.509 0 26.868-7.2588 35.514-27.442 35.514m96.429-71.023h40.775v-19.341h-49.113c-26.415 0-37.264 14.785-37.264 37.959l-0.0175 2.2662c-4.4175-27.287-20.626-40.225-50.328-40.225h-49.778c-20.029-40.168-61.494-67.752-109.42-67.752-67.46 0-122.19 54.711-122.19 122.21 0 67.484 54.734 122.16 122.19 122.16 47.644 0 88.849-27.206 109-66.915h50.776c12.158 0 23.059-0.7225 34.224-9.6163 8.0262-6.385 13.075-15.359 15.399-27.138v36.61h23.276l0.0337-43.092h54.941v-19.18h-54.975l0.31625-7.7637c0-12.581 3.78-20.178 22.146-20.178" fill="#fa7d19"/>
 <path d="m176.3 113.18h15.17c12.076 0 19.185-2.4212 19.185-12.645 0-10.505-7.1088-13.442-19.478-13.442h-51.459v-19.341h59.864c30.374 0 34.671 21.258 34.671 33.111 0 12.616-5.1475 32.628-34.711 32.628h-14.688c-18.378 0-22.336 6.6438-22.336 19.215v5.875h68.722v18.726h-92.2v-27.218c0-23.139 10.884-36.909 37.259-36.909" fill="#fff"/>
</svg>
