<svg width="600" height="175.72" viewBox="0 0 158.75 46.491" xmlns="http://www.w3.org/2000/svg">
    <g fill="#fff">
        <path d="M.709 14.71H23.67v4.96L8.788 35.405h8.93V30.3h5.953v10.205H0v-4.819l14.91-15.762H6.804v4.706H.708M55.846 40.51h13.891v-5.386h-3.685V20.383h4.819v-5.67h-4.82V13.58c0-2.07.227-2.268 1.985-2.268h3.26V5.925h-6.662c-3.543 0-5.386 2.183-5.386 5.386v3.402h-3.543v5.67h3.543v14.74h-3.402M49.573 5.87V35h3.544v5.543H42.484V37.32c-3.544 3.223-4.43 3.223-7.679 3.223-4.135 0-8.27.644-8.27-10.054v-5.027c0-10.312 3.545-10.698 8.27-10.698 4.43 0 5.021.515 7.68 2.835v-6.058H38.94V6h10.633zM35.691 20.306c-2.363 0-2.363 2.062-2.363 3.996v7.476c0 2.19 1.182 2.964 1.772 2.964h3.84c1.181 0 3.544-.902 3.544-.902V21.079s-1.477-1.16-3.84-1.031z"/>
        <path d="M146.273 28.74v4.706c0 1.644-.425 2.948-.935 2.948h-4.791c-.51 0-.936-1.332-.936-2.948V28.74c0-1.644.425-2.948.936-2.948h4.79c.54-.028.936 1.304.936 2.948zm12.473-22.877v34.755a5.844 5.844 0 0 1-5.868 5.868H84.417a5.844 5.844 0 0 1-5.868-5.868v-6.605l-8.221-8.221h8.22V5.862a5.844 5.844 0 0 1 5.869-5.867h68.489c3.232-.029 5.84 2.608 5.84 5.868zm-70.304 13.38h5.386v-4.536h-5.386zm8.08 17.151H93.97V21.653h-7.938v4.252h2.694v10.49l-2.694-.03v4.282h10.49zm23.386 0h-2.551v-9.78c0-4.025-1.22-4.961-5.443-4.961-2.07 0-2.665-.227-5.755 2.41v-2.41h-7.654v4.11h2.41v10.632h-2.551v4.252h9.78v-4.252h-1.985v-9.78c1.276-.681 2.24-.851 3.402-.851 2.126.028 2.551.312 2.551 1.7v8.93h-1.984v4.253h9.78zm13.324-21.204h-5.046c-2.608 0-3.969 1.588-3.969 3.969v2.494h-2.608v4.168h2.608v10.574h-2.494v4.252h10.375v-4.252h-2.693V25.82h3.543v-4.168h-3.543v-.822c0-1.53.141-1.672 1.417-1.672h2.41zm18.285 12.615c0-3.402-1.956-6.151-4.365-6.151h-8.391c-2.438 0-4.366 2.75-4.366 6.151v6.69c0 3.402 1.956 6.152 4.365 6.152h8.392c2.438 0 4.365-2.75 4.365-6.152z"/>
    </g>
</svg>
