<svg width="600" height="175.72" version="1.1" viewBox="0 0 158.75 46.491304" xmlns="http://www.w3.org/2000/svg">
 <g transform="translate(-4.767 -125.59)" fill="#fff">
  <path d="m5.4757 140.3h22.962v4.9609l-14.883 15.733h8.9297v-5.1027h5.9531v10.205h-23.671v-4.8192l14.911-15.762h-8.1076v4.7058h-6.0949"/>
  <path d="m60.613 166.1h13.891v-5.3862h-3.6853v-14.741h4.8192v-5.6696h-4.8192v-1.1339c0-2.0694 0.22678-2.2679 1.9844-2.2679h3.26v-5.3862h-6.6618c-3.5435 0-5.3862 2.1828-5.3862 5.3862v3.4018h-3.5435v5.6696h3.5435v14.741h-3.4018"/>
  <path d="m54.34 131.46v29.13h3.5443v5.5425h-10.633v-3.2224c-3.5443 3.2224-4.4303 3.2224-7.6792 3.2224-4.135 0-8.2699 0.64447-8.2699-10.054v-5.0269c0-10.312 3.5443-10.698 8.2699-10.698 4.4303 0 5.021 0.51557 7.6792 2.8357v-6.058h-3.5443v-5.5424h10.633zm-13.882 14.436c-2.3628 0-2.3628 2.0623-2.3628 3.9957v7.4759c0 2.1912 1.1814 2.9646 1.7721 2.9646h3.8396c1.1814 0 3.5443-0.90227 3.5443-0.90227v-12.761s-1.4768-1.1601-3.8396-1.0312z"/>
  <path d="m151.04 154.33v4.7058c0 1.6442-0.42522 2.9482-0.93549 2.9482h-4.7908c-0.51026 0-0.93548-1.3324-0.93548-2.9482v-4.7058c0-1.6442 0.42522-2.9482 0.93548-2.9482h4.7908c0.53861-0.0283 0.93549 1.304 0.93549 2.9482zm12.473-22.877v34.755c0 3.26-2.608 5.8681-5.8681 5.8681h-68.461c-3.26 0-5.8681-2.608-5.8681-5.8681v-6.6051l-8.221-8.221h8.221v-19.929c0-3.26 2.608-5.8681 5.8681-5.8681h68.489c3.2317-0.0284 5.8397 2.608 5.8397 5.8681zm-70.304 13.38h5.3862v-4.5357h-5.3862zm8.0792 17.151h-2.5513v-14.741h-7.9375v4.2522h2.6931v10.489l-2.6931-0.0283v4.2806h10.489zm23.387 0h-2.5513v-9.7801c0-4.0254-1.219-4.9609-5.4429-4.9609-2.0694 0-2.6647-0.2268-5.7547 2.4096v-2.4096h-7.654v4.1105h2.4096v10.631h-2.5513v4.2522h9.7801v-4.2522h-1.9844v-9.7801c1.2757-0.68036 2.2395-0.85045 3.4018-0.85045 2.1261 0.0283 2.5513 0.31184 2.5513 1.7009v8.9297h-1.9844v4.2522h9.7801zm13.324-21.204h-5.046c-2.608 0-3.9688 1.5875-3.9688 3.9687v2.4947h-2.608v4.1672h2.608v10.574h-2.4946v4.2522h10.375v-4.2522h-2.6931v-10.574h3.5435v-4.1672h-3.5435v-0.82212c0-1.5308 0.14166-1.6726 1.4174-1.6726h2.4096zm18.285 12.615c0-3.4018-1.956-6.1515-4.3656-6.1515h-8.3911c-2.438 0-4.3656 2.7498-4.3656 6.1515v6.6902c0 3.4018 1.956 6.1516 4.3656 6.1516h8.3911c2.438 0 4.3656-2.7498 4.3656-6.1516z"/>
 </g>
</svg>
