<svg width="600" height="105.37" version="1.1" viewBox="0 0 158.75 27.879907" xmlns="http://www.w3.org/2000/svg">
 <g transform="translate(-5.1397 -134.89)" fill="#fff">
  <path d="m49.061 143.22h-4.2804v4.3578h4.2804v14.633h4.9674v-14.633h5.7508v-4.3578h-5.8618c0-2.8189 2.3066-3.7848 4.1946-3.7848v-4.5466c-4.9391 4e-3 -9.0509 2.9812-9.0509 8.3314z"/>
  <path d="m38.09 135.12v9.6624c-1.6049-1.1807-3.4392-1.9571-5.2481-1.9571-6.0423 0-9.6666 4.7625-9.6666 9.9669 0 5.5041 4.4472 9.9655 9.933 9.9655 5.4834 0 9.9292-4.4571 9.933-9.9584v-17.679zm-5.0283 12.781c2.7774 0 5.0297 2.2578 5.0297 5.0432 0 2.7854-2.2523 5.0424-5.0297 5.0424-2.7775 0-5.029-2.2571-5.029-5.0424 0-2.7854 2.2515-5.0432 5.029-5.0432z"/>
  <path d="m6.1704 143.22v4.1883h8.9211l-9.9517 14.802h17.463v-4.1656h-9.4396l10.013-14.825z"/>
  <path d="m68.654 135.12v27.105h4.9518v-5.3354l1.7597-1.5904 6.7002 6.9258h6.1813l-9.6894-10.377 8.4824-8.6178h-5.6963l-7.738 7.7492v-15.859z"/>
  <path d="m109.55 135.12v27.105h4.9518v-27.105z"/>
  <path d="m120.88 137.33v5.8993h-4.2638v4.354h4.2638v6.452c0 5.1776 3.613 8.4373 9.069 8.4373v-4.6473c-1.9357 0-4.0946-1.2156-4.0946-4.5909v-5.6512h5.7978v-4.354h-5.7978v-5.8993z"/>
  <path d="m163.89 142.59c-5.6954 0-9.0577 3.2597-9.0577 8.4373l-0.0109 11.19h4.9067v-10.377c0-3.845 2.2973-4.5796 4.1622-4.5796v-4.6699z"/>
  <path d="m88.506 143.23v11.573c0 4.0772 3.9115 7.7944 9.0351 7.7944 5.1776 0 9.0238-3.7294 9.0238-7.7944v-11.573h-4.9518v10.614c0 2.6249-1.6163 4.5683-4.072 4.5683-2.2866 0-4.072-1.6651-4.072-4.5683v-10.614z"/>
  <path d="m134.18 143.23v11.573c0 4.0772 3.9115 7.7944 9.0351 7.7944 5.1776 0 9.0126-3.7294 9.0126-7.7944v-11.573h-4.9518v10.614c0 2.6249-1.605 4.5683-4.0607 4.5683-2.2866 0-4.072-1.6651-4.072-4.5683v-10.614z"/>
  <path d="m62.055 157.52c-1.4514 0-2.6282 1.1763-2.6282 2.6282 0 1.4519 1.1768 2.6282 2.6282 2.6282 1.4519 0 2.6282-1.1763 2.6282-2.6282 0-1.4518-1.1763-2.6282-2.6282-2.6282z"/>
  <path d="m109.55 135.12h4.9554v27.1h-4.9554z"/>
 </g>
</svg>
