<svg width="600" height="505.59" viewBox="0 0 600 505.594" xmlns="http://www.w3.org/2000/svg">
    <style>
        .st1{display:inline;fill:#e6e6e6}.st3{fill:#fff}
    </style>
    <g stroke-width="10.49">
        <path d="M274.83 446.85v58.741L600 436.36V78.67l-274.83 58.741V.001L0 69.232v436.36z" fill="#2e2a25"/>
        <path class="st3" d="M212.94 279.02v110.14l-70.28 14.685v-91.259c0-7.343-3.147-10.49-10.49-8.392l-6.294 1.05v102.8l-70.28 14.684v-101.75l-12.587 3.147v-51.399l55.594-11.538c11.538-2.098 17.832 3.147 18.881 15.734h1.05c16.782-22.028 41.957-31.469 53.495-34.615 23.077-6.294 40.91 2.098 40.91 36.713zm165.73 11.538l-87.063 18.881c2.098 14.685 8.392 18.881 17.832 16.783 7.343-2.098 15.734-6.294 23.077-14.685l39.86-8.392v33.566c-18.881 18.881-41.958 30.42-70.28 36.713-48.252 10.49-78.671-13.636-78.671-63.986 0-47.203 27.273-84.965 77.622-96.504 52.448-10.49 82.867 23.077 77.622 77.622zm-87.063-7.343l24.126-5.244c-1.049-12.587-5.245-17.832-11.538-16.783-7.343 1.049-11.538 7.342-12.587 22.028zm256.99-43.007c0 48.252-27.273 86.014-79.72 97.552-49.301 10.49-80.769-13.636-80.769-62.937 0-47.203 28.322-86.014 80.769-96.503 47.203-10.49 79.72 15.734 79.72 61.888zm-79.72-14.685c-8.392 2.098-12.587 12.587-12.587 35.664 0 24.126 4.196 33.566 12.587 31.47s11.538-12.588 12.587-36.714c0-23.077-5.245-31.469-12.587-30.42zM45.105 229.72v-17.832l35.664-53.496-19.93 4.196v9.44l-15.734 2.098v-26.224l60.839-12.587v17.832l-34.615 53.496 20.979-4.195 1.049-10.49 16.783-3.147v27.273zm146.85-54.545c0 4.196 1.049 5.245 5.245 4.196l3.147-1.05v17.833l-15.734 4.196c-7.343 2.097-11.538-1.05-11.538-7.343h-1.05c-3.146 8.391-9.44 13.636-20.978 16.783-14.685 3.147-30.42-4.196-30.42-34.615 0-29.371 10.49-45.105 31.469-50.35 7.342-2.098 14.685 1.049 17.832 6.294h1.049v-28.322l-7.343 2.097V87.062l30.42-6.293zm-22.028-11.538c0-15.734-3.147-23.077-11.538-23.077-8.392 1.049-14.685 11.538-14.685 27.273 0 13.636 4.196 20.979 11.538 20.979 9.44 0 14.685-9.44 14.685-25.175zm49.301-52.448V97.553c0-18.881 7.343-27.273 27.273-31.469 10.49-2.098 19.93-2.098 23.077-2.098v22.028l-15.734 4.196v-7.343c-2.098 0-3.147 0-5.245 1.05-5.245 1.048-7.342 4.195-7.342 9.44v13.636l19.93-4.196v17.832l-17.832 4.196v46.154l11.538-2.098v17.832l-41.958 9.44v-17.831l8.391-2.098V130.07l-8.391 2.098v-17.832z"/>
        <path d="M396.5 388.11v27.273l146.85-30.42V357.69z" fill="#fff"/>
    </g>
</svg>
