<svg width="566.52mm" height="717.392" viewBox="0 0 566.52 189.81" xmlns="http://www.w3.org/2000/svg">
    <defs>
        <radialGradient id="a" cx="88.495" cy="80.244" r="268.75" gradientTransform="rotate(45 50.117 36.164) scale(.352 .54725)" gradientUnits="userSpaceOnUse">
            <stop stop-color="#6fc7b9" offset="0"/>
            <stop stop-color="#68c5b2" offset=".255"/>
            <stop stop-color="#34ba99" offset=".451"/>
            <stop stop-color="#0c857c" offset=".746"/>
            <stop stop-color="#166063" offset=".873"/>
            <stop stop-color="#1a575a" stop-opacity="0" offset="1"/>
        </radialGradient>
        <radialGradient id="b" cx="88.495" cy="80.244" r="268.75" gradientTransform="rotate(-135 110.018 98.404) scale(.352 1.09602)" gradientUnits="userSpaceOnUse">
            <stop stop-color="#0eb19c" offset="0"/>
            <stop stop-color="#06a795" offset=".136"/>
            <stop stop-color="#009987" offset=".247"/>
            <stop stop-color="#0b746d" offset=".424"/>
            <stop stop-color="#155557" offset=".567"/>
            <stop stop-color="#1a575a" stop-opacity="0" offset="1"/>
        </radialGradient>
    </defs>
    <path d="M94.807 0C42.447 0 0 42.489 0 94.905c0 52.413 42.447 94.905 94.807 94.905 44.254 0 81.422-30.35 91.873-71.392h-32.461V70.754l18.126-.02 14.167.01C175.837 30.033 138.827 0 94.806 0zM54.85 70.825h38.787v8.046l-26.368 30.62H93.66l.013 9.02H54.039v-8.051l26.293-30.601H54.85l-.001-9.034zm86.534.264v9.002h-26.01v10.206h26.01v9.04h-26.01v10.282h26.01v9.134h-36.292V71.089l36.292-.001zm23.118 8.667v10.206h24.985a95.289 95.289 0 0 0-1.076-10.206H164.5zm0 19.246v10.282h24.03c.512-3.372.845-6.804.993-10.282z" fill="#184f54" stroke-width=".353"/>
    <path d="M94.807 0A94.807 94.905 0 0 0 0 94.905a94.807 94.905 0 0 0 94.807 94.905 94.807 94.905 0 0 0 91.772-71.392h-32.358V70.751c9.78-.01 21.915-.02 32.152-.003A94.807 94.905 0 0 0 94.81 0zM54.85 70.825h38.787v8.046l-26.368 30.62H93.66l.013 9.02H54.039v-8.051l26.293-30.601H54.85l-.001-9.034zm68.367.243l18.166.021v9.002h-26.01v10.206h26.01v9.04h-26.01v10.282h26.01v9.134h-36.292V71.089l18.127-.022zm41.285 8.688v10.206h24.865a94.807 94.905 0 0 0-1.083-10.206h-23.782zm0 19.246v10.282h23.945a94.807 94.905 0 0 0 1.022-10.282h-24.967z" fill="url(#a)" stroke-width=".353"/>
    <path d="M94.807 0A94.807 94.905 0 0 0 0 94.905a94.807 94.905 0 0 0 94.807 94.905 94.807 94.905 0 0 0 91.73-71.392h-32.316V70.754l32.215-.004A94.807 94.905 0 0 0 94.809 0zM54.85 70.825h38.787v8.046l-26.368 30.62H93.66l.013 9.02H54.039v-8.051l26.293-30.601H54.85l-.001-9.034zm68.367.243l18.166.021v9.002h-26.01v10.206h26.01v9.04h-26.01v10.282h26.01v9.134h-36.292V71.089l18.127-.022zm41.285 8.688v10.206h24.937a94.807 94.905 0 0 0-1.086-10.206h-23.85zm0 19.246v10.282H188.4a94.807 94.905 0 0 0 1.01-10.282h-24.908z" fill="url(#b)" stroke-width=".353"/>
    <g fill="#4fbe98">
        <path d="M235.84 105.68c-3.004 3.006-7.512 4.639-11.496 4.639-11.301 0-15.678-7.904-15.743-15.482-.065-7.642 4.703-15.873 15.743-15.873 3.984 0 8.034 1.372 11.04 4.311l5.747-5.552c-4.703-4.638-10.582-6.99-16.787-6.99-16.527 0-24.3 12.15-24.235 24.104.065 11.889 7.25 23.581 24.235 23.581 6.597 0 12.672-2.155 17.376-6.793zM259.653 117.467V71.666h-8.571v45.801zM302.068 100.047l-23.447-28.32h-7.315v45.678h9.024V86.607l25.156 30.864v-.066h5.605V71.664h-9.023zM357.613 108.887h-25.848V98.496h22.933v-8.09h-22.933V79.817h25.848v-8.419H323.15v46.038h34.463zM459.073 117.446h8.905l-19.42-46.14h-8.905l-19.42 46.14h8.844l3.711-8.7h22.635zm-6.927-16.808h-16.08l8.04-19.643zM404.18 117.45h8.065V71.442h-9.226l-13.38 19.783-13.381-19.783h-9.287v46.006h8.065V83.996l14.42 21.27 14.724-21.204z"/>
    </g>
    <g fill="#4fbe98">
        <path d="M478.465 118.418V70.733h9.628v18.768h18.866V70.733h9.628v47.685h-9.628v-20.85h-18.866v20.85zM526.538 70.733h17.598q5.952 0 9.075.91 4.196 1.237 7.189 4.392 2.992 3.155 4.553 7.741 1.562 4.554 1.562 11.255 0 5.887-1.464 10.148-1.789 5.205-5.107 8.425-2.504 2.44-6.765 3.806-3.188 1.008-8.523 1.008H526.54zm9.629 8.067v31.584h7.188q4.033 0 5.822-.455 2.342-.586 3.871-1.984 1.561-1.4 2.537-4.587.976-3.22.976-8.75 0-5.53-.976-8.49t-2.732-4.619q-1.757-1.658-4.456-2.244-2.017-.455-7.904-.455z"/>
    </g>
</svg>
