<svg version="1.1" viewBox="0 0 800 436.22" xmlns="http://www.w3.org/2000/svg">
 <g transform="matrix(10.668 0 0 10.668 -384.05 -224.24)" fill="none" fill-rule="evenodd">
  <g transform="translate(36,21)">
   <path transform="translate(0 .02)" d="m20.324 0c-11.225 0-20.324 9.1514-20.324 20.443 0 11.292 9.0992 20.447 20.324 20.447 9.46 0 17.412-6.5017 19.678-15.305h-6.9922v-10.336l6.9782-1e-6c-2.285-8.775-10.223-15.25-19.664-15.25z" fill="#f501a5"/>
   <path d="m30.289 17.293h-5.577v2.096h5.577v2.023h-5.577v2.17h5.577v2.023h-7.823v-10.335h7.823z" fill="#fff"/>
   <path d="m20.103 16.998-5.65 6.614h5.65v1.993h-8.556v-1.728l5.65-6.613h-5.474v-1.994h8.38z" fill="#fff"/>
  </g>
  <g fill="#f501a5">
   <path d="m71.255 38.293v2.096l5.366-0.033c-0.03679-0.69081-0.10821-1.3793-0.214-2.063h-5.152"/>
   <path d="m71.255 44.582h5.16c0.11-0.722 0.182-1.458 0.214-2.203l-5.374 0.033v2.17"/>
   <path d="m87.773 41.498v-0.03c0-2.008-1.453-3.676-3.493-3.676s-3.464 1.639-3.464 3.647v0.03c0 2.007 1.453 3.675 3.493 3.675s3.464-1.639 3.464-3.646zm-8.85 0v-0.03c0-2.908 2.231-5.344 5.386-5.344 3.156 0 5.357 2.406 5.357 5.315v0.03c0 2.907-2.23 5.343-5.386 5.343-3.155 0-5.357-2.406-5.357-5.314z"/>
   <path d="m91.78 36.301h1.672l5.503 7.145v-7.145h1.776v10.334h-1.511l-5.665-7.352v7.352h-1.776v-10.334"/>
   <path d="m103.3 36.301h7.616v1.624h-5.811v2.687h5.15v1.624h-5.15v2.775h5.885v1.624h-7.69v-10.334"/>
  </g>
 </g>
 <path d="m431.07 184.27-54.962 1e-5v22.36l57.245-0.35205c0.33775 9.2395 0.32612 12.243 0.0854 21.934l-57.33 1e-5v23.15l55.047-1e-5c-1.7444 9.4974-1.8862 10.921-4.4059 21.582l-74.602 1e-5v-110.25l74.453-1e-5c2.229 9.4974 2.5317 11.309 4.4699 21.582z" fill="#fff" fill-rule="evenodd" stroke-width="10.668"/>
</svg>
