<svg width="600" height="765.3" viewBox="0 0 158.75 202.487" xmlns="http://www.w3.org/2000/svg">
    <g fill="#e60096">
        <path d="M42.789 189.898a.452.452 0 0 1-.449.448H30.632a.448.448 0 0 1-.448-.448v-1.318c0-.248.2-.448.448-.448h9.545c.194-4.799-2.148-8.454-7.205-8.454-4.192 0-7.1 2.763-7.1 9.649 0 7.066 2.559 10.65 7.68 10.65 2.554 0 4.904-.977 6.734-2.568a.484.484 0 0 1 .316-.131c.115 0 .219.043.298.113l1.238 1.102a.448.448 0 0 1 .178.358c0 .153-.081.281-.193.369-2.33 1.832-5.048 3.272-8.712 3.272-6.148 0-10.123-3.679-10.123-13.041 0-7.089 3.448-12.197 9.666-12.197 7.276 0 10.027 5.474 9.835 12.645zM68.097 189.898a.452.452 0 0 1-.449.448H55.94a.448.448 0 0 1-.448-.448v-1.318c0-.248.2-.448.448-.448h9.545c.194-4.799-2.148-8.454-7.205-8.454-4.192 0-7.1 2.763-7.1 9.649 0 7.066 2.559 10.65 7.68 10.65 2.554 0 4.904-.977 6.734-2.568a.484.484 0 0 1 .317-.131c.114 0 .218.043.297.113l1.238 1.102a.448.448 0 0 1 .178.358c0 .153-.081.281-.193.369-2.33 1.832-5.048 3.272-8.712 3.272-6.148 0-10.123-3.679-10.123-13.041 0-7.089 3.448-12.197 9.666-12.197 7.276 0 10.027 5.474 9.835 12.645zM0 202.418v-2.127c0-.228.108-.457.3-.738l13.936-18.911c.209-.334.007-.774-.387-.774H1.363a.448.448 0 0 1-.448-.448v-1.546c0-.248.2-.448.448-.448h16.01c.248 0 .449.2.449.448v1.679c0 .228-.108.457-.3.738L3.587 199.2c-.21.334-.007.774.386.774h13.401c.248 0 .449.2.449.448v1.546c0 .248-.201.448-.449.448H0zM80.526 201.968a.448.448 0 0 1-.45.448H73.8a.448.448 0 0 1-.448-.448v-6.279c0-.247.2-.448.448-.448h6.278c.248 0 .449.201.449.448zM85.023 194.908a.45.45 0 0 0 .432.33h5.8c.248 0 .448-.2.448-.448 0-.098-.052-.179-.086-.264-.682-1.726-.752-4.291-.752-5.118 0-4.27 1.52-6.731 4.166-6.731 2.685 0 4.2 1.704 4.2 6.661 0 5.067-.93 7.294-4.27 7.294-.88 0-1.607-.196-2.195-.555a.448.448 0 0 0-.694.374v5.33c0 .175.09.351.247.4.568.18 1.64.233 2.725.233 6.448 0 10.55-3.288 10.55-13.2 0-8.76-4.359-12.18-10.564-12.18-6.345 0-10.493 4.14-10.493 12.25 0 2.255.088 4.201.485 5.623zM117.479 189.278v12.694c0 .248-.201.448-.449.448h-5.132a.448.448 0 0 1-.448-.448v-24.095c0-.248.2-.448.448-.448h4.842c.151 0 .285.075.366.189l.873 1.472c1.454-1.316 3.148-1.898 5.826-1.898 4.784 0 8.226 3.293 8.226 10.387v14.394c0 .248-.201.448-.449.448h-5.422a.448.448 0 0 1-.448-.448v-12.694c0-3.998-.678-6.525-3.989-6.525-2.603 0-4.244 1.667-4.244 6.525zM152.569 186.808c0 .248-.201.448-.449.448h-4.614c-.247 0-.448.201-.448.448v3.349c0 .248.201.448.448.448h11.231c.211-9.333-3.25-14.474-11.073-14.474-6.06 0-10.466 4.408-10.466 12.707 0 9.548 4.96 12.628 10.941 12.628 4.813 0 7.518-1.713 9.379-3.675.105-.11.218-.221.218-.385a.446.446 0 0 0-.143-.328l-3.008-2.849a.447.447 0 0 0-.304-.118c-.13 0-.234.07-.329.144-1.621 1.28-3.248 1.912-5.18 1.912-3.777 0-5.43-2.083-5.43-7.513 0-5.227 1.051-7.355 4.534-7.355 2.743 0 4.692 2.322 4.692 4.612zM.246 166.878c0-18.261 1.573-24.319 9.069-36.012L62.808 47.98H17.013V-.001h77.402c16.01 0 24.666 9.203 24.666 25.414 0 5.454-1.256 11.389-4.736 17.927-5.262 9.628-15.4 20.64-20.577 24.781l-74.963 60.952c-9.759 7.62-16.18 17.507-16.029 27.734 6.064-17.886 20.466-26.364 45.134-41.415 36.17-22.068 60.603-35.344 80.777-62.14 8.755-11.628 13.7-25.52 13.7-34.483 0-4.852-1.846-11.849-4.526-16.872 7.487 5.167 11.178 15.346 11.178 27.101 0 12.54-4.278 27.525-16.872 46.715l-28.894 44.079h55.363v47.085z"/>
    </g>
</svg>
