<?xml version="1.0" encoding="UTF-8" standalone="no"?>
<!-- Created with Inkscape (http://www.inkscape.org/) -->

<svg
   width="439"
   height="200"
   viewBox="0 0 116.15208 52.91667"
   version="1.1"
   id="svg654"
   xmlns="http://www.w3.org/2000/svg"
   xmlns:svg="http://www.w3.org/2000/svg">
  <defs
     id="defs651">
    <linearGradient
       x1="0"
       y1="0"
       x2="1"
       y2="0"
       gradientUnits="userSpaceOnUse"
       gradientTransform="matrix(69.358864,42.33683,42.33683,-69.358864,1191.1275,721.68524)"
       spreadMethod="pad"
       id="linearGradient306">
      <stop
         style="stop-opacity:1;stop-color:#e5c317"
         offset="0"
         id="stop302" />
      <stop
         style="stop-opacity:1;stop-color:#e54017"
         offset="1"
         id="stop304" />
    </linearGradient>
    <linearGradient
       x1="0"
       y1="0"
       x2="1"
       y2="0"
       gradientUnits="userSpaceOnUse"
       gradientTransform="matrix(115.66499,42.327377,42.327377,-115.66499,1167.878,296.40852)"
       spreadMethod="pad"
       id="linearGradient216">
      <stop
         style="stop-opacity:1;stop-color:#e5c317"
         offset="0"
         id="stop212" />
      <stop
         style="stop-opacity:1;stop-color:#e54017"
         offset="1"
         id="stop214" />
    </linearGradient>
    <linearGradient
       x1="0"
       y1="0"
       x2="1"
       y2="0"
       gradientUnits="userSpaceOnUse"
       gradientTransform="matrix(115.66499,42.327377,42.327377,-115.66499,1167.878,296.40853)"
       spreadMethod="pad"
       id="linearGradient236">
      <stop
         style="stop-opacity:1;stop-color:#e5c317"
         offset="0"
         id="stop232" />
      <stop
         style="stop-opacity:1;stop-color:#e54017"
         offset="1"
         id="stop234" />
    </linearGradient>
  </defs>
  <g
     id="layer1">
    <g
       id="g196"
       transform="matrix(0.6275041,0,0,-0.62728688,38.838739,0)">
      <path
         d="m 0,0 h -14.399 -45.874 v -1.955 -0.977 h 41.358 l -42.979,-81.426 h 14.399 45.874 v 1.955 0.978 h -41.358 z"
         style="fill:#b4b4bf;fill-opacity:1;fill-rule:nonzero;stroke:none"
         id="path198" />
    </g>
    <g
       id="g200"
       transform="matrix(0.6275041,0,0,-0.62728688,-689.28142,225.7002)">
      <g
         id="g202">
        <g
           id="g208">
          <g
             id="g210">
            <path
               d="m 1185.735,296.536 v 38.02 h 12.593 v 4.158 h -30.248 v -4.158 h 12.593 v -38.02 z m 35.911,0 15.847,42.178 h -5.363 l -13.437,-36.815 -13.316,36.815 h -5.483 l 15.847,-42.178 z"
               style="fill:url(#linearGradient216);stroke:none"
               id="path218" />
          </g>
        </g>
      </g>
    </g>
    <g
       id="g220"
       transform="matrix(0.6275041,0,0,-0.62728688,-689.28142,225.7002)">
      <g
         id="g222">
        <g
           id="g228">
          <g
             id="g230">
            <path
               d="m 1265.956,338.714 v -21.089 h 6.81 c 2.449,0 4.474,0.431 6.07,1.295 v 0 c 1.597,0.864 2.782,2.084 3.555,3.661 v 0 c 0.773,1.577 1.16,3.43 1.16,5.558 v 0 c 0,2.17 -0.387,4.042 -1.16,5.619 v 0 c -0.773,1.577 -1.958,2.797 -3.555,3.661 v 0 c -1.596,0.863 -3.621,1.295 -6.07,1.295 v 0 z m 3.616,-3.043 h 3.013 c 1.827,0 3.269,-0.307 4.323,-0.919 v 0 c 1.054,-0.613 1.808,-1.476 2.259,-2.591 v 0 c 0.452,-1.114 0.678,-2.455 0.678,-4.022 v 0 c 0,-1.546 -0.226,-2.876 -0.678,-3.991 v 0 c -0.451,-1.115 -1.205,-1.969 -2.259,-2.561 v 0 c -1.054,-0.593 -2.496,-0.889 -4.323,-0.889 v 0 h -3.013 z m -10.755,3.043 v -8.858 h -9.702 v 8.858 h -3.615 v -21.089 h 3.615 v 9.279 h 9.702 v -9.279 h 3.615 v 21.089 z"
               style="fill:url(#linearGradient236);stroke:none"
               id="path238" />
          </g>
        </g>
      </g>
    </g>
  </g>
</svg>
