<svg width="1292.3pt" height="538.05pt" version="1.1" viewBox="0 0 1292.3 538.05" xmlns="http://www.w3.org/2000/svg">
 <radialGradient id="a" cx="209.98" cy="402.8" r="358.33" gradientTransform="matrix(1.1394 1.1495 -.79768 .79069 175.4 -455.8)" gradientUnits="userSpaceOnUse">
  <stop stop-color="#98258c" offset="0"/>
  <stop stop-color="#98258d" offset=".29216"/>
  <stop stop-color="#b11d8b" offset=".52903"/>
  <stop stop-color="#ec0a88" offset="1"/>
 </radialGradient>
 <g transform="translate(1.8567e-7 -.001353)">
  <path d="M 537.5,269.02 A 268.75,269.02 0 0 1 268.75,538.05 268.75,269.02 0 0 1 0,269.02 268.75,269.02 0 0 1 268.75,0 268.75,269.02 0 0 1 537.5,269.02 Z" fill="url(#a)"/>
  <g fill="#fff">
   <path d="m155.48 200.78h109.95v22.808l-74.745 86.795h74.81l0.0366 25.567h-112.35v-22.821l74.531-86.742h-72.229z"/>
   <path d="m349.28 201.47 51.495 0.0586v25.52h-73.729v28.931h73.729v25.624h-73.729v29.147h73.729v25.89h-102.88v-135.11z"/>
   <path d="m488.54 200.52-51.381 0.0571v135.11h91.607c2.1843-8.538 3.9482-17.178 5.2852-25.89h-67.745v-29.147h70.607c0.27765-3.8718 0.47153-7.7492 0.58155-11.629-0.0435-4.6681-0.2088-9.3342-0.49507-13.994h-70.693v-28.932h67.619c-1.3987-8.5938-3.2133-17.115-5.4375-25.532z"/>
  </g>
  <g fill="#e70c8c" stroke-width="5.0923" aria-label="WORLD">
   <path d="m608.67 333.41h23.574l32.889-96.956 32.699 96.956h23.764l41.254-130.61h-26.045l-27.946 93.534-30.798-93.534h-25.855l-30.988 93.534-27.946-93.534h-26.045z"/>
   <path d="m844.79 335.69c37.071 0 68.44-30.988 68.44-67.679s-31.368-67.489-68.44-67.489c-37.262 0-68.63 30.798-68.63 67.489s31.368 67.679 68.63 67.679zm0-21.673c-24.144 0-44.486-20.912-44.486-46.007 0-24.904 20.342-45.817 44.486-45.817 23.954 0 44.106 20.912 44.106 45.817 0 25.095-20.152 46.007-44.106 46.007z"/>
   <path d="m1041.9 333.41-32.699-46.387c18.821-5.8934 31.558-21.102 31.558-40.874 0-25.475-20.912-43.345-48.858-43.345h-56.843v130.61h23.764v-43.915h25.285l30.798 43.915zm-83.078-108.74h30.418c16.159 0 27.376 8.1747 27.376 21.482s-11.216 21.482-27.376 21.482h-30.418z"/>
   <path d="m1084.7 311.74v-108.93h-23.574v130.61h90.682v-21.673z"/>
   <path d="m1172.7 333.41h46.007c43.155 0 73.572-27.186 73.572-65.398s-30.418-65.208-73.572-65.208h-46.007zm23.764-21.482v-87.641h24.714c27.566 0 46.957 18.06 46.957 43.725s-19.391 43.915-46.957 43.915z"/>
  </g>
 </g>
</svg>
