<svg xmlns="http://www.w3.org/2000/svg" height="222.89" width="600">
    <g stroke-width="3.145" fill="#fff">
        <path d="M579.96 196.23h-19.84v-57.14h-19.04v-17.26H600v17.26h-20.04zM471.79 121.83v74.39h19.83v-19.74h11.63c5.26 0 6.96 1 8.5 5.52 3.93 11.44 4.91 14.23 4.91 14.23h22.56c.01 0-2.2-6.09-7.24-20.15-1.8-4.99-4.07-7.67-8.84-9.22 12.53-3.44 12.53-10.59 12.53-22.52 0-18.55-8.43-22.21-25.59-22.51zm19.83 17.26H507c6.55 0 8.23 1.89 8.23 8.53 0 8.43.3 11.62-8.23 11.62h-15.38zM427.42 121.25c-20.14 0-34.42 4.36-34.42 27.27v21.04c0 22.91 14.29 27.27 34.42 27.27 20.14 0 34.42-4.36 34.42-27.27v-21.04c0-22.91-14.29-27.27-34.42-27.27zm0 17.24c10.31 0 13.7 1.09 14 12.1v16.77c-.3 11.11-3.69 12.2-14 12.2s-13.69-1.09-13.99-12.2v-16.77c.3-11.01 3.67-12.1 13.99-12.1zM322.92 121.83v74.4h19.83v-19.04h17.56c20.74 0 25.4-7.15 25.4-28.08 0-19.44-6.95-27.28-25.4-27.28zm19.84 17.27h13.59c7.73 0 8.93 2.78 8.93 10.4v.01c0 7.61-1.2 10.38-8.93 10.38h-13.59zM281.39 137.34c11.59.34 19.24.8 28.58 2.06v-16.39c-4.34-.53-15.35-1.89-25.94-1.89-.88 0-2.64.01-2.64.01l-.01.01c-19.4 0-31.37 1.38-31.37 22.66 0 21.27 10.69 21.17 28.99 22.46l4.35.29c9.3.6 10.39.5 10.39 6.93 0 6.23-3.06 6.83-12.36 6.83l-.04.03c-11.37-.34-20.62-.95-29.8-2.2v16.38c4.27.52 14.76 2.03 27.21 2.03.87 0 2.51-.01 2.51-.01l.12-.01c32.65 0 32.16-12.07 32.16-24.34 0-17.02-5.45-19.79-27.41-21.37l-8.21-.59c-5.25-.4-8.12-.6-8.12-6.53 0-4.16.89-6.34 11.58-6.34zM397.87 44.458c11.7.393 20.79.918 30.24 2.359V28.04c-4.39-.598-16.91-2.164-27.61-2.164-23.35 0-40.59 3.947-40.59 30.395v20.69c0 25.909 12.79 30.179 37.96 30.179 28.59 0 35.41-4.9 35.41-31.887V61.285h-36.37v14.82h14.72c0 11.093-2.88 13.544-13.76 13.544-11.09 0-15.99-1.491-15.99-15.679h-.01V60.137c0-14.188 4.91-15.679 16-15.679M480.59 44.458c11.71.393 20.8.918 30.24 2.359V28.04c-4.39-.598-16.9-2.164-27.61-2.164-23.35 0-40.59 3.947-40.59 30.395v20.69c0 25.909 12.8 30.179 37.97 30.179 28.58 0 35.4-4.9 35.4-31.887V61.285h-36.36v14.82h14.72c0 11.093-2.88 13.544-13.76 13.544-11.09 0-16-1.491-16-15.679h-.01V60.137c0-14.188 4.91-15.679 16-15.679M562.43 25.876c-21.65 0-37.01 4.694-37.01 29.327v22.612c0 24.635 15.36 29.325 37.01 29.325s37.01-4.69 37.01-29.325V55.203c0-24.633-15.36-29.327-37.01-29.327zm0 18.54c11.08 0 14.72 1.169 15.04 13.011V75.45c-.32 11.943-3.96 13.116-15.04 13.116-11.09 0-14.72-1.173-15.04-13.116V57.427c.32-11.842 3.95-13.011 15.04-13.011zM315.74 44.436l-38.29 42.869v.642h38.29V106.5h-65.38V88.478l37.76-42.765v-.642h-35.3V26.514h62.92zM348.27 106.5h-21.33V26.517h21.33zM172.34 173.55c-.48-9.68-7.01-24.57-23.45-26.54H90.413l67.367-64.498c2.84-2.708 9.23-11.911 4.69-21.815-3.65-7.961-9.77-11.355-20.45-11.355H58.092c.346 11.135 5.898 24.429 20.655 26.81h47.963L55.834 142.76c-2.878 2.75-7.608 11.24-3.875 19.85 3.369 7.77 9.046 10.94 19.595 10.94z"/>
        <path d="M26.539 172.75c0 6.5 2.649 12.41 6.923 16.68s10.172 6.91 16.676 6.91h122.62c6.5 0 12.4-2.64 16.67-6.91a23.505 23.505 0 0 0 6.92-16.68V73.548c0-12.515 12.63-24.184 26.54-24.209v123.41c0 13.84-5.6 26.38-14.68 35.45-9.07 9.08-21.61 14.69-35.45 14.69H50.138c-13.844 0-26.381-5.61-35.455-14.69-9.074-9.07-14.685-21.61-14.685-35.45V50.139c0-13.847 5.614-26.384 14.688-35.452C23.76 5.61 36.294-.001 50.139-.001h122.59c6.8 0 13.28 1.356 19.19 3.806 8.11 3.356 13.29 7.501 18.29 12.898 1.99 2.152 3.89 5.328 3.89 9.383 0 3.396-1.29 6.79-3.89 9.382-2.59 2.59-5.98 3.884-9.38 3.884s-6.84-1.337-9.38-3.884c-3.55-3.54-5.49-5.357-9.54-7.074a23.453 23.453 0 0 0-9.17-1.86h-122.6c-6.504 0-12.405 2.646-16.679 6.92-4.271 4.272-6.92 10.176-6.92 16.68z"/>
    </g>
</svg>
