<svg data-name="Layer 1" version="1.1" viewBox="0 0 766 600" xmlns="http://www.w3.org/2000/svg">
 <path d="m109.66 200.95c29.778 0 38.184 18.215 36.437 37.134h-119.46c-15.065 0-26.628-11.563-26.628-26.276 0-8.0613 3.5019-15.065 6.3065-19.969 16.467-29.08 58.858-69.019 86.536-95.992h-50.1c-29.778 0-38.184-18.215-36.437-37.134h111.75c17.165 0 27.678 11.563 27.678 26.276 0 7.0038-2.0996 13.31-8.7586 19.969-21.724 21.724-67.617 61.663-91.785 95.992h64.46m77.073-143.29c-10.513 0-19.272 7.3563-19.272 21.019v139.43c0 13.663 8.7586 21.019 19.272 21.019s19.272-7.3563 19.272-21.019v-139.43c0-13.663-8.7586-21.019-19.272-21.019m492.93-1.7548c46.245 0 85.487 33.632 85.487 84.782v15.418c0 51.502-39.241 84.782-85.487 84.782s-85.487-33.28-85.487-84.782v-15.418c0-51.149 39.241-84.782 85.487-84.782m46.943 85.839c0-33.632-23.471-48.697-46.943-48.697-23.471 0-46.943 15.065-46.943 48.697v13.31c0 33.985 23.471 48.697 46.943 48.697 23.471 0 46.943-14.713 46.943-48.697zm-191.29 36.084c-5.2567 13.31-12.966 25.923-38.889 25.923-21.724 0-44.843-14.713-44.843-48.697v-13.31c0-33.632 23.119-48.697 45.548-48.697 16.82 0 27.326 8.0613 32.23 11.563 4.5517 3.1494 7.7088 4.9042 12.613 4.9042 10.858 0 19.272-8.7586 19.272-19.617 0-4.2069-1.4023-9.8084-8.7586-16.115-10.858-9.1111-31.877-17.87-55.004-17.87-45.195 0-84.429 32.23-84.429 84.782v15.418c0 51.502 37.134 83.732 78.828 83.732 19.402 0 35.333-6.567 46.598-17.28v8.1762c0 35.732-28.031 45.195-45.548 45.195-16.467 0-29.08-10.858-39.586-10.858-14.36 0-22.421 12.966-26.973 25.923 20.322 15.762 48.697 22.069 64.46 22.069 50.1 0 86.184-29.778 86.184-82.682v-83.027c-30.828-2.4521-35.387 14.713-41.693 30.483m-182.88-0.0153c-5.2567 13.31-12.966 25.923-38.889 25.923-21.724 0-44.843-14.713-44.843-48.697v-13.31c0-33.632 23.119-48.697 45.548-48.697 16.82 0 27.326 8.0613 32.23 11.563 4.5517 3.1494 7.7088 4.9042 12.613 4.9042 10.858 0 19.272-8.7586 19.272-19.617 0-4.2069-1.4023-9.8084-8.7586-16.115-10.858-9.1111-31.877-17.87-55.004-17.87-45.195 0-84.429 32.23-84.429 84.782v15.418c0 51.502 37.134 83.732 78.828 83.732 19.402 0 35.333-6.567 46.598-17.28v8.1762c0 35.732-28.031 45.195-45.548 45.195-16.467 0-29.08-10.858-39.586-10.858-14.36 0-22.421 12.966-26.973 25.923 20.322 15.762 48.697 22.069 64.46 22.069 50.1 0 86.184-29.778 86.184-82.682v-83.027c-30.828-2.4521-35.387 14.713-41.693 30.483m-165.69-139.5c10.59 0 19.172-8.5824 19.172-19.172 0-10.59-8.5824-19.172-19.172-19.172-10.59 0-19.172 8.5824-19.172 19.172 0 10.59 8.5824 19.172 19.172 19.172z" fill="#ff5f00"/>
 <g transform="matrix(.76628 0 0 .76628 -227.9 -44.437)" fill="#ff5f00" stroke-width="1.305">
  <path d="m389.2 623.71c-37.27-6.29-57.47-13.48-57.47-33.4 0-28.23 31.88-32.45 50.89-32.45s32.08 3.73 42.24 6.45c6 1.61 10.33 2.77 13.94 2.77 7.89 0 16.28-5.7 16.28-16.28 0-7.14-4.14-13.23-10.68-15.85-6.41-2.75-34.19-9.65-61.79-9.65-53.58 0-84.31 24.33-84.31 66.76 0 34.37 23.4 52.55 80.75 62.72 27.4 4.86 56.64 11.92 56.64 34.29s-21.32 35.52-57.03 35.52c-19.72 0-36.54-4.13-48.82-7.14-6.98-1.71-12.03-2.95-15.71-2.95-8.31 0-16.72 5.59-16.72 16.28 0 7.25 4.32 13.34 11.29 15.92 7.82 3.16 40.83 10.45 70.39 10.45 56.37 0 90.02-25.94 90.02-69.39s-40.41-57.46-79.92-64.05z"/>
  <path d="m606.49 523.99c-64.35 0-107.58 43.41-107.58 108.02v191.39c0 10.19 7.03 17.59 16.71 17.59s16.71-7.4 16.71-17.59v-96.7c19.17 20.84 45.42 31.76 76.78 31.76s56.81-11.08 76.09-31.21c18.89-19.71 29.29-46.84 29.29-76.37v-19.31c0-62.34-45.43-107.58-108.02-107.58zm0 32.55c45.31 0 74.59 30.66 74.59 78.1v13.17c0 47.44-29.28 78.1-74.59 78.1s-74.15-30.66-74.15-78.1v-13.17c0-47.44 29.11-78.1 74.15-78.1z"/>
  <path d="m857.58 523.99c-62.59 0-108.02 45.24-108.02 107.58v19.31c0 62.34 45.43 107.58 108.02 107.58s107.58-45.24 107.58-107.58v-19.31c0-62.34-45.24-107.58-107.58-107.58zm0 201.92c-45.31 0-74.59-30.66-74.59-78.1v-13.17c0-47.44 29.28-78.1 74.59-78.1s74.15 30.66 74.15 78.1v13.17c0 47.44-29.11 78.1-74.15 78.1z"/>
  <path d="m1128.8 526.34c-6.16-1.54-15.56-2.35-27.18-2.35-59.16 0-93.09 36.17-93.09 99.24v115.01c0 10.19 7.03 17.59 16.71 17.59s16.71-7.4 16.71-17.59v-110.62c0-62.33 31.92-70.73 59.66-71.08 7.86 0 13.29 1.01 17.26 1.74 2.68 0.5 4.79 0.89 6.89 0.89 9.22 0 16.71-7.3 16.71-16.28 0-8.08-5.08-14.27-13.67-16.56z"/>
  <path d="m1279 722.4h-20.63c-28 0-43.42-16.2-43.42-45.62v-112.78h59.66c12.46 0 18.03-7.95 18.03-15.84s-5.58-15.84-18.03-15.84h-59.66v-31.57c0-10.19-7.03-17.59-16.71-17.59s-16.71 7.4-16.71 17.59v172.95c0 51.07 28.97 80.36 79.49 80.36h18c12.46 0 18.03-7.95 18.03-15.84s-5.58-15.84-18.03-15.84z"/>
 </g>
</svg>
