<svg xmlns="http://www.w3.org/2000/svg" viewBox="0 0 600 277.608" height="277.61" width="600">
    <g fill="#fff">
        <g stroke-width=".5">
            <path d="M579.96 196.23h-19.84v-57.14h-19.04v-17.26H600v17.26h-20.04v57.14zM471.79 121.83v74.4h19.84v-19.74h11.62c5.26 0 6.96.99 8.51 5.5 3.92 11.45 4.9 14.24 4.9 14.24h22.57c-.01 0-2.2-6.09-7.25-20.15-1.79-4.99-4.07-7.67-8.84-9.22 12.53-3.44 12.54-10.59 12.54-22.51 0-18.55-8.44-22.22-25.6-22.52zm19.84 17.26h15.38c6.54 0 8.22 1.88 8.22 8.53 0 8.43.3 11.61-8.22 11.61h-15.38zM427.42 121.25c-20.14 0-34.42 4.36-34.42 27.27v21.03c0 22.92 14.28 27.28 34.42 27.28s34.42-4.36 34.42-27.28v-21.03c0-22.91-14.28-27.27-34.42-27.27zm0 17.24c10.31 0 13.69 1.09 13.99 12.1v16.76c-.3 11.11-3.68 12.2-13.99 12.2-10.32 0-13.69-1.09-13.99-12.2v-16.76c.3-11.01 3.67-12.1 13.99-12.1zM322.92 121.83v74.4h19.83v-19.05h17.56c20.73 0 25.4-7.14 25.4-28.07 0-19.44-6.95-27.28-25.4-27.28zm19.85 17.27h13.58c7.74 0 8.93 2.77 8.93 10.39v.02c0 7.61-1.2 10.38-8.93 10.38h-13.58zM281.39 137.34c11.59.34 19.24.8 28.58 2.06v-16.39c-4.34-.52-15.35-1.89-25.93-1.89-.89 0-2.65.01-2.65.01l-.01.01c-19.39 0-31.37 1.39-31.37 22.66s10.69 21.17 28.99 22.46l4.36.3c9.3.59 10.39.49 10.39 6.92 0 6.24-3.07 6.83-12.37 6.83l-.03.03c-11.38-.34-20.63-.94-29.81-2.2v16.38c4.27.52 14.76 2.03 27.21 2.03.87 0 2.51-.01 2.51-.01h.12c32.65 0 32.16-12.07 32.16-24.34 0-17.02-5.45-19.79-27.41-21.38l-8.21-.59c-5.25-.39-8.12-.59-8.12-6.53 0-4.16.89-6.33 11.58-6.33zM397.86 44.459c11.71.393 20.81.917 30.25 2.359V28.042c-4.39-.598-16.91-2.166-27.61-2.166-23.35 0-40.59 3.946-40.59 30.396v20.69c0 25.908 12.79 30.178 37.96 30.178 28.58 0 35.41-4.9 35.41-31.886V61.286h-36.37v14.82h14.72c0 11.093-2.88 13.544-13.76 13.544-11.09 0-16-1.491-16-15.679V60.137c0-14.187 4.91-15.678 15.99-15.678M480.59 44.459c11.71.393 20.8.917 30.24 2.359V28.042c-4.39-.598-16.9-2.166-27.61-2.166-23.35 0-40.59 3.946-40.59 30.396v20.69c0 25.908 12.8 30.178 37.97 30.178 28.58 0 35.4-4.9 35.4-31.886V61.286h-36.36v14.82h14.72c0 11.093-2.88 13.544-13.76 13.544-11.09 0-16-1.491-16-15.679V60.137c0-14.187 4.9-15.678 15.99-15.678M562.43 25.876c-21.65 0-37.01 4.693-37.01 29.328v22.61c0 24.636 15.36 29.326 37.01 29.326s37.01-4.69 37.01-29.326v-22.61c0-24.635-15.36-29.328-37.01-29.328zm0 18.54c11.08 0 14.72 1.17 15.04 13.012v18.021c-.32 11.944-3.96 13.116-15.04 13.116-11.09 0-14.72-1.172-15.04-13.116V57.428c.32-11.842 3.95-13.012 15.04-13.012zM315.74 44.436l-38.29 42.868v.642h38.29V106.5h-65.38V88.479l37.76-42.765v-.641h-35.31V26.516h62.93zM348.27 106.5h-21.33V26.516h21.33zM172.34 173.55c-.48-9.68-7.02-24.58-23.45-26.54H90.413l67.367-64.5c2.84-2.709 9.23-11.912 4.69-21.817-3.65-7.961-9.77-11.355-20.45-11.355H58.092c.345 11.134 5.897 24.429 20.656 26.809h47.962L55.832 142.75c-2.876 2.76-7.608 11.25-3.874 19.86 3.368 7.77 9.044 10.94 19.595 10.94h100.79z"/>
            <path d="M26.538 172.75c0 6.5 2.647 12.41 6.921 16.68s10.171 6.91 16.677 6.91h122.62c6.5 0 12.4-2.64 16.67-6.91s6.92-10.18 6.92-16.68v-61.31l-.01-37.892c0-12.517 12.64-24.184 26.55-24.21v123.41c0 13.84-5.61 26.38-14.68 35.45-9.08 9.08-21.61 14.69-35.45 14.69H50.136c-13.847 0-26.382-5.61-35.455-14.69-9.074-9.07-14.685-21.61-14.685-35.45V50.138c0-13.846 5.613-26.382 14.686-35.452C23.756 5.61 36.29-.002 50.134-.002h122.59c6.8 0 13.28 1.354 19.19 3.805 8.1 3.357 13.29 7.501 18.28 12.9 1.99 2.15 3.89 5.33 3.89 9.383 0 3.397-1.29 6.791-3.89 9.383a13.204 13.204 0 0 1-9.38 3.886c-3.39 0-6.83-1.336-9.38-3.886-3.54-3.54-5.48-5.356-9.53-7.073a23.503 23.503 0 0 0-9.18-1.858H50.134c-6.506 0-12.404 2.645-16.678 6.92-4.273 4.273-6.92 10.174-6.92 16.678z"/>
        </g>
        <g stroke-width="3.838">
            <path d="M271.26 277.61h-10.9v-31.48h-10.51v-9.52h32.47v9.52h-11.06zM326.66 236.61c-10.9 0-18.66 2.38-18.66 14.78v11.4c0 12.44 7.76 14.82 18.66 14.82 10.94 0 18.66-2.38 18.66-14.82v-11.4c0-12.4-7.72-14.78-18.66-14.78zm0 9.37c5.6 0 7.45.57 7.6 6.56v9.06c-.15 6.03-2 6.64-7.6 6.64-5.57 0-7.41-.61-7.56-6.64v-9.06c.15-5.99 1.99-6.56 7.56-6.56zM524.28 270.55l2.11 7.06h11.17l-12.47-41h-16.62l-12.28 41h11.36l2.03-7.06zm-2.18-7.99h-10.18l4.99-17.73h.08zM457.22 270.55l2.11 7.06h11.17l-12.48-41h-16.58l-12.32 41h11.36l2.04-7.06zm-2.19-7.99h-10.17l4.99-17.73h.11zM574.15 268.09h17.12v9.52h-28.02v-41h10.9zM392.42 277.61h-10.94v-31.48H371v-9.52h32.44v9.52h-11.02z"/>
        </g>
    </g>
</svg>
