<svg width="490.016" height="145.954" viewBox="0 0 129.65 38.617" xmlns="http://www.w3.org/2000/svg">
    <g fill="#fff">
        <path d="M8.705 0a8.684 8.684 0 0 0-6.156 2.545A8.648 8.648 0 0 0 0 8.687V29.93a8.65 8.65 0 0 0 2.55 6.143 8.686 8.686 0 0 0 6.156 2.544h21.287a8.685 8.685 0 0 0 6.155-2.544 8.644 8.644 0 0 0 2.55-6.143V8.547c-2.417.003-4.608 2.027-4.608 4.196V29.93a4.076 4.076 0 0 1-1.201 2.891 4.093 4.093 0 0 1-2.896 1.198H8.705a4.094 4.094 0 0 1-4.098-4.09h-.001V8.688a4.071 4.071 0 0 1 1.202-2.89 4.087 4.087 0 0 1 2.897-1.2h21.284a4.085 4.085 0 0 1 1.593.323c.703.297 1.039.611 1.654 1.225a2.32 2.32 0 0 0 1.63.674c.59 0 1.178-.224 1.628-.674.451-.449.675-1.037.675-1.626 0-.702-.33-1.252-.675-1.625-.868-.935-1.767-1.653-3.175-2.235a8.7 8.7 0 0 0-3.33-.66zm1.38 8.547c.06 1.93 1.023 4.233 3.586 4.646h8.326L9.692 24.734c-.5.478-1.321 1.948-.674 3.44.586 1.347 1.571 1.896 3.402 1.896h17.5c-.083-1.677-1.22-4.258-4.072-4.598H15.695l11.697-11.176c.493-.47 1.603-2.064.814-3.78-.634-1.38-1.696-1.968-3.55-1.968z" stroke-width=".841"/>
        <g stroke-width="1.166" aria-label="EXTRA">
            <path d="M57.73 24.89h-7.642v-3.583h6.494v-4.2h-6.494v-3.415h7.642V9.493H45.133V29.09H57.73zM71.973 29.09H77.6l-6.495-9.938c2.8-3.303 4.815-6.522 6.047-9.658h-5.207c-.644 1.96-1.68 4.003-3.107 6.159l-4.032-6.159H59.18l5.906 9.042c-2.94 3.836-5.01 7.363-6.214 10.554h5.207c.98-2.715 2.099-5.039 3.33-6.998zM83.028 29.09h4.955V13.693h4.843v-4.2H78.185v4.2h4.842zM101.094 13.69c1.008 0 1.763.168 2.267.504s.756.924.756 1.735c0 1.484-1.008 2.212-2.995 2.212h-1.064v-4.423zm9.378 15.425l-2.436-5.767c-.588-1.372-1.343-2.24-2.267-2.603 1.036-.392 1.875-.98 2.491-1.764.616-.784.924-1.931.924-3.471 0-1.876-.7-3.331-2.1-4.395-1.4-1.064-3.33-1.596-5.766-1.596h-6.27v19.596h4.982v-6.802h.756c1.036 0 1.735.448 2.1 1.372l2.295 5.43zM120.444 14.78c.532 1.176 1.231 3.331 2.1 6.495h-4.2c.868-3.164 1.568-5.32 2.1-6.495zm4.087 14.305h5.123a156.452 156.452 0 0 0-3.108-10.582c-1.203-3.64-2.379-6.635-3.499-9.014h-5.15c-1.12 2.352-2.268 5.347-3.472 8.986a170.785 170.785 0 0 0-3.135 10.638h5.095l.896-3.611h6.382z"/>
        </g>
    </g>
</svg>
