<svg version="1.1" viewBox="0 0 800 799.78" xmlns="http://www.w3.org/2000/svg">
 <path d="m350.79 797.54c-88.879-11.225-166.37-48.765-230.68-111.75-78.771-77.148-120.11-175.51-120.11-285.79s41.338-208.64 120.11-285.79c76.841-75.257 172.31-114.21 279.89-114.21s203.05 38.956 279.89 114.21c78.771 77.148 120.11 175.51 120.11 285.79 0 107.58-38.956 203.05-114.21 279.89-65.47 66.849-145.33 106.32-238.12 117.68-24.084 2.9524-73.365 2.9318-96.873-0.0365zm310.7-196.75c30.454-7.181 55.77-27.505 68.714-55.165 7.146-15.273 9.3492-26.422 9.4143-47.611l0.0571-18.651-38.889-0.01 6.5556-5.9476c14.656-13.294 24.168-29.292 29.262-49.211 2.7-10.554 3.0714-17.737 3.0714-59.371v-47.365h-40.886l-9.3175-5.6127c-14.387-8.6651-27.338-12.225-47.416-13.037-24.822-1-40.698 3.473-61.302 17.273-18.752 12.562-36.003 37.711-41.227 60.106-3.0286 12.975-2.246 39.957 1.5048 51.949 5.0318 16.081 13.935 30.325 27.063 43.289 17.476 17.259 33.61 25.111 58.629 28.537 14.873 2.0365 35.303-0.5873 48.444-6.219l7.3635-3.1587v11.537c0 9.2286-0.82222 13.186-4.1079 19.781-7.3857 14.825-22.36 24.127-38.832 24.127-20.794 0-37.765-14.26-41.714-35.049l-1.4063-9.3952h-56.675l0.58254 11.322c2.2 42.711 34.927 77.598 77.073 87.873 11.741 2.8619 31.917 2.8667 44.035 0.01zm-34.424-158.82c-13.46-3.7127-23.53-12.171-29.178-24.513-4.4365-9.6936-4.3889-26.625 0.10317-36.508 10.133-22.297 38.552-32.114 60.694-20.968 14.794 7.4492 23.848 22.452 23.848 39.521 0 29.152-27.475 50.189-55.467 42.468zm-407.83 55.238c1.4159-2.3936 7.9936-13.254 14.616-24.13s11.89-19.887 11.71-20.022c-3.6-2.7032-20.79-11.008-30.49-14.73-16.556-6.354-27.438-9.0952-45.997-11.586l-15.184-2.0381 28.217-28.622c15.519-15.743 35.702-36.302 44.851-45.689l16.635-17.065-20.41-20.456-20.41-20.454-8.4492 3.8682c-35.214 16.122-78.519 14.916-113.97-2.8365l-9.4444-4.7302s-29.073 48.083-29.329 48.51c0.26032 0.19047 4.4016 2.546 9.2032 5.2349 18.438 10.325 44.038 18.338 67.284 21.059 6.8857 0.80635 12.892 1.8381 13.344 2.2905 0.45397 0.45396-12.781 14.581-29.41 31.394-16.629 16.814-36.706 37.356-44.616 45.649l-14.381 15.079 20.317 20.39 20.468 20.503 6.6143-3.5619c17.589-9.473 40.513-13.476 63.344-12.263 19.437 1.0318 35.397 5.119 50.724 12.987a421.41 421.41 0 0 0 11.97 5.8984c0.23809-0.39048 1.3698-2.2825 2.7873-4.6778zm95.043-91.656v-88.095l-27.381-0.0159-29.762 0.85556 21.889-20.232 19.505-19.357-19.903-19.905-19.903-19.902-40.444 40.444 19.429 19.476 19.429 19.473v175.35h57.143zm60.148-88.076s-1.5143-0.019-19.4-0.019h-18.525v176.19h57.143l0.0349-55.159c1.2222-49.39 1-55.757 3.6302-61.543 6.8048-14.981 21.476-21.667 34.562-21.589 13.556 0.0809 32.06 5.2667 37.075 23.683 1.3333 6.3651 0.85714 39.914 0.56825 58.527l-0.23015 56.081h57.694v-54.035c0-42.813-0.51588-56.53-2.481-66.043-6.7095-32.484-27.467-56.803-59.121-69.27-15.79-6.2175-41.106-7.7825-57.446-3.5508-10.381 2.6889-24.095 8.6508-28.749 12.794" fill="#fe3460" stroke-width="1.5873"/>
 <path d="m203.31 495.07c-17.662-9.0635-31.756-12.083-56.573-12.122-23.695-0.0381-38.584 2.927-54.048 10.762l-8.3175 4.2159-19.611-19.563c-10.786-10.762-19.611-20.079-19.611-20.708 0-0.62857 19.286-20.983 42.857-45.229 23.571-24.248 42.857-44.911 42.857-45.921 0-1.0921-5.3016-2.5762-13.095-3.6667-7.2016-1.0095-19.881-3.6794-28.175-5.9333-15.289-4.1556-43.083-16.095-45.113-19.381-0.87619-1.4159 21.456-41.463 26.029-46.681 0.59841-0.68254 6.3873 1.2714 12.863 4.3397 33.208 15.735 76.175 16.952 107.61 3.054 4.6921-2.0746 9.346-3.773 10.341-3.773 0.99683 0 10.686 8.8968 21.532 19.768l19.721 19.768-45.005 45.262c-28.067 28.225-44.16 45.516-42.762 45.941 1.2365 0.3746 9.9492 1.8635 19.365 3.3095 9.4127 1.4444 22.587 4.4127 29.27 6.5952 15.771 5.1476 40.119 16.476 40.119 18.667 0 2.3778-26.878 47.057-28.249 46.96-0.61429-0.0429-6.0159-2.5921-12.003-5.6651zm54.538-89.495v-87.302h55.556v174.6h-55.556zm-19.47-107.56-18.625-18.675 19.468-19.421 19.467-19.421 19.513 19.559 19.513 19.56-19.757 18.537c-10.865 10.194-20.025 18.535-20.354 18.535s-8.9794-8.4032-19.222-18.675zm98.835 107.56v-87.302h18.392c17.846 0 18.587-0.13968 25-4.7095 17.659-12.587 46.919-17.517 71.497-12.049 34.114 7.5889 60.311 32.187 70.329 66.038 2.0889 7.0587 2.6905 19.429 3.2524 66.99l0.68889 58.333h-55.825v-55.606c0-59.652-0.33174-62.454-8.4095-71.113-6.9016-7.4-15.2-10.411-28.892-10.483-14.038-0.073-21.667 2.8222-29.678 11.263-8.8936 9.3698-9.2857 12.086-10.337 71.314l-0.96825 54.624h-55.049zm285.71 195.84c-19.9-3.8778-39.116-14.249-53.984-29.138-17.403-17.429-25.473-34.43-27.865-58.71l-1.1-11.165h55.702l1.7143 7.9889c2.4429 11.394 6.9572 19.381 14.695 26.003 16.175 13.844 39.625 13.492 55.911-0.84445 10.594-9.3254 14.056-16.922 14.924-32.754l0.71905-13.1-10.913 4.2095c-14.359 5.5365-41.698 6.9746-58.354 3.0682-26.317-6.1714-53.083-27.768-65.733-53.046-8.4873-16.954-10.357-26.819-9.5175-50.187 0.60952-16.917 1.2476-20.433 5.5619-30.573 15.619-36.717 47.479-60.797 83.948-63.444 23.317-1.6921 44.587 3.0921 62.722 14.108 6.9937 4.2476 8.2064 4.4444 27.381 4.4444h20.062l-0.027 45.635c-0.0206 33.868-0.62699 48.5-2.3524 56.746-3.454 16.503-13.165 34.846-25.508 48.175l-10.505 11.349h38.392l-0.027 17.064c-0.0365 22.078-2.9683 35.397-11.359 51.579-11.848 22.857-32.084 39.94-58.019 48.984-9.0794 3.1651-37.438 5.3667-46.468 3.6079zm34.187-161.5c15.006-6.9889 26.13-24.311 26.13-40.69 0-18.057-13.11-36.4-30.032-42.021-20.53-6.819-45.357 3.0048-55.117 21.81-3.381 6.5111-4.6429 25.316-2.2857 34.033 2.8063 10.373 10.825 19.579 22.17 25.452 12.883 6.6698 26.773 7.1714 39.135 1.4159z" fill="#fff" stroke-width="1.5873"/>
 <path d="m616.58 600.02c-15.583-4.2778-33.724-14.327-45.397-25.151-17.808-16.508-27.663-36.538-30.089-61.146l-1.1143-11.322h55.702l1.719 8.0159c3.2 14.917 10.413 24.752 22.957 31.306 6.6159 3.4571 10.194 4.2333 19.238 4.1794 25.752-0.15714 43.651-19.333 43.651-46.767v-9.0381l-10.714 3.9984c-14.26 5.3222-41.897 6.6889-58.154 2.8762-26.363-6.181-53.043-27.659-65.633-52.835-8.6206-17.238-10.47-26.975-9.5682-50.397 0.86031-22.373 3.546-30.892 15.39-48.811 13.486-20.4 30.302-33.675 52.29-41.275 9.0317-3.1222 13.54-3.619 31.944-3.519 24.021 0.13015 33.979 2.6032 51.251 12.725 9.1778 5.3794 9.3635 5.4127 29.095 5.4127h19.856l-0.50794 50.397c-0.50793 50.376-0.50793 50.403-4.8921 62.822-5.3175 15.063-12.857 27.171-24.578 39.457l-8.8016 9.2286h38.578l-0.027 17.064c-0.0333 20.594-2.7794 34.549-9.5159 48.363-12.362 25.354-32.079 42.483-60.263 52.346-12.056 4.2222-40.486 5.3413-52.416 2.0667zm36.833-158.82c9.6667-3.2936 18.587-11.202 24.329-21.567 4.0635-7.3381 4.7064-10.141 4.6746-20.411-0.0286-9.2095-0.83968-13.421-3.581-18.606-11.202-21.179-31.879-30.16-53.744-23.344-7.1857 2.2413-11.319 4.9079-18.149 11.713-9.6444 9.6048-12.584 16.954-12.584 31.452 0 29.652 30.294 50.563 59.056 40.763z" fill="#fff" stroke-width="1.5873"/>
</svg>
