<svg xmlns="http://www.w3.org/2000/svg" height="113.32" width="600" viewBox="0 0 158.75 29.983">
    <g fill="#fff">
        <path d="M103.942.03l-7.733.885v28.678l8.473-.885v-1.34c0-4.927-.055-9.859.038-14.785.022-1.16.402-2.376.88-3.449.458-1.032 1.477-1.496 2.654-1.36 1.171.137 1.99.814 2.266 1.936.252 1.016.396 2.087.405 3.133.038 5.117.015 10.238.015 15.355v1.409c2.947-.312 5.71-.607 8.537-.907v-1.376c0-4.891-.058-9.784.043-14.672.022-1.196.41-2.45.902-3.556.461-1.026 1.507-1.48 2.673-1.316 1.152.159 1.982.822 2.24 1.966.228 1.024.39 2.087.398 3.135.04 5.118.015 10.235.015 15.355v1.368c2.941-.308 5.68-.6 8.471-.895.022-.418.055-.754.055-1.087 0-5.194.03-10.391-.027-15.584a23.721 23.721 0 0 0-.475-4.503c-1.117-5.382-4.74-7.9-10.451-7.414-2.567.221-4.678 1.37-6.442 3.225-1.731-2.237-3.965-3.386-6.712-3.29-2.778.092-4.81 1.507-6.227 3.929zM13.569 21.43C17.761 14.478 21.808 7.763 25.92.941H3.853C3.296 3.276 2.75 5.575 2.16 8.046h10.636C8.468 15.166 4.265 22.077 0 29.097h24.24c.686-2.542 1.364-5.046 2.074-7.668zM43.788 22.05c3.85-.019 7.097-3.299 7.05-7.13-.043-3.684-3.32-6.903-7.05-6.923-3.867-.019-7.171 3.223-7.163 7.032.009 3.84 3.272 7.04 7.163 7.021m-15.71-6.174C28.094 7.468 34.143.88 41.68.193c6.846-.626 12.365 1.747 15.83 7.744 4.803 8.31.153 18.905-9.173 21.426-7.627 2.065-15.38-1.155-18.738-7.804-1.04-2.057-1.553-4.252-1.52-5.683"/>
    </g>
    <path d="M88.732 6.34a4.411 4.411 0 1 1-8.823 0 4.412 4.412 0 0 1 8.823 0" fill="#a51740"/>
    <g fill="#fff">
        <path d="M91.232 8.45a7.232 7.232 0 0 1-6.917 5.128c-.063 0-.123-.009-.186-.009.104.443.162.899.164 1.36.044 3.831-3.203 7.111-7.056 7.128-3.889.019-7.155-3.187-7.157-7.024-.01-3.768 3.21-6.974 7.053-7.026.05-.003.101.005.15.005a7.284 7.284 0 0 1-.202-1.666c0-2.499 1.27-4.7 3.195-6C78.671.083 76.961.034 75.156.2 67.6.893 61.57 7.441 61.53 16.057c-.027 1.273.497 3.501 1.568 5.59 3.37 6.584 11.07 9.768 18.67 7.728 9.153-2.455 13.807-12.67 9.464-20.926M143.762 0v3.299h2.99v1.59h-2.99v6.192c0 1.42.404 2.229 1.565 2.229.549 0 .95-.071 1.212-.142l.093 1.565c-.401.166-1.043.284-1.849.284-.972 0-1.756-.31-2.255-.877-.593-.617-.806-1.639-.806-2.99V4.888h-1.78v-1.59h1.78V.547zM150.112 3.3l2.253 6.453c.38 1.043.688 1.993.926 2.94h.07c.26-.947.593-1.897.973-2.94l2.23-6.453h2.183l-4.506 11.48h-1.994L147.881 3.3z"/>
    </g>
</svg>
