<svg width="48.167mm" height="15.37mm" version="1.1" viewBox="0 0 48.167 15.37" xmlns="http://www.w3.org/2000/svg">
 <g transform="translate(28.339 -16.446)" fill="#cd203a">
  <g transform="matrix(1.0037 0 0 1.0029 6.6932 -2.8456)" style="font-feature-settings:normal;font-variant-caps:normal;font-variant-ligatures:normal;font-variant-numeric:normal" aria-label="ZOOM">
   <path d="m-25.349 28.85v2.2998l-9.553-1.78e-4 4.537-6.0656h-4.537v-2.2974h9.7791l-4.5364 6.0634z" stroke-width=".1826"/>
   <path transform="matrix(.2636 0 0 .26383 -67.352 11.945)" d="m236.67 27.639c-8.092 0-14.959 2.8164-20.602 8.4473-5.6174 5.6063-8.4258 12.453-8.4258 20.543 0 8.1143 2.8084 14.999 8.4258 20.654 5.6421 5.6309 12.51 8.4473 20.602 8.4473 8.1167 0 14.984-2.8164 20.602-8.4473 5.6421-5.6555 8.4629-12.54 8.4629-20.654-1e-5 -8.0898-2.8208-14.937-8.4629-20.543-5.6174-5.6309-12.485-8.4473-20.602-8.4473zm0 16.309c7.0438 0 12.752 5.712 12.752 12.756s-5.7101 12.754-12.754 12.754-12.754-5.7101-12.754-12.754 5.712-12.756 12.756-12.756z" stroke-width="1.0847"/>
   <path d="m3.588 31.045 3.12e-4 -9.2723-3.941e-4 2.69e-4 4.749 3.844 4.749-3.8443-1.2e-4 9.2723-2.4923 1.76e-4v-3.5908l-2.2566 1.6186-2.256-1.619-3.765e-4 3.5914z" stroke-width=".16311"/>
  </g>
  <path d="m-12.436 18.35c-1.6019 0-2.9614 0.55754-4.0783 1.6722-1.112 1.1098-1.668 2.4653-1.668 4.0667 0 1.6063 0.55596 2.9692 1.668 4.0888 1.1169 1.1147 2.4764 1.6722 4.0783 1.6722 1.6068 0 2.9663-0.55754 4.0783-1.6722 1.1169-1.1196 1.6753-2.4824 1.6753-4.0888-2.3e-6 -1.6015-0.55841-2.9569-1.6753-4.0667-1.112-1.1147-2.4715-1.6722-4.0783-1.6722zm0 3.2285c1.3944 0 2.5244 1.1308 2.5244 2.5252 0 1.3944-1.1304 2.5248-2.5248 2.5248-1.3944 0-2.5248-1.1304-2.5248-2.5248 0-1.3944 1.1308-2.5252 2.5252-2.5252z" style="font-feature-settings:normal;font-variant-caps:normal;font-variant-ligatures:normal;font-variant-numeric:normal"/>
 </g>
</svg>
