<svg width="1139.5" height="672.51" viewBox="0 0 301.49 177.93" xmlns="http://www.w3.org/2000/svg">
    <path d="M214.26 19.091a6.88 6.88 0 0 0-6.88 6.879v46.02a6.88 6.88 0 0 0 6.88 6.879h7.932a6.88 6.88 0 0 0 6.878-6.88V58.325h1.788v10.299a6.88 6.88 0 0 0 6.878 6.88h7.932a6.88 6.88 0 0 0 6.879-6.88V29.338a6.88 6.88 0 0 0-6.879-6.881h-7.932a6.88 6.88 0 0 0-6.878 6.88v8.583h-1.788V25.97a6.88 6.88 0 0 0-6.878-6.878zM279.24 22.703c-1.55-.045-3.188.02-4.994.146l-14.463 1.012a6.88 6.88 0 0 0-6.383 7.342l2.742 39.191a6.88 6.88 0 0 0 7.342 6.383l14.89-1.041c3.355-.234 6.26-.701 8.995-1.781l.024-.01c3.023-1.208 5.77-2.917 7.92-5.324 2.514-2.81 4.223-6.265 5.228-10.023h.002c.89-3.331 1.101-6.887.836-10.682-.294-4.204-1.025-7.97-2.457-11.357-1.365-3.241-3.331-6.163-5.875-8.495a20.34 20.34 0 0 0-9.332-4.843l-.018-.004c-1.447-.315-2.907-.47-4.457-.514zm-3.207 21.217c2.345.45 3.259 1.561 3.416 5.18-.047 4.117-.858 5.15-2.646 5.814z" color="#000" fill="#6f1b54" style="font-feature-settings:normal;font-variant-alternates:normal;font-variant-caps:normal;font-variant-ligatures:normal;font-variant-numeric:normal;font-variant-position:normal;isolation:auto;mix-blend-mode:normal;shape-padding:0;text-decoration-color:#000;text-decoration-line:none;text-decoration-style:solid;text-indent:0;text-orientation:mixed;text-transform:none;white-space:normal" paint-order="markers stroke fill"/>
    <g transform="matrix(4.4662 0 0 -4.4662 -2365.9 228.4)" clip-path="url(#clipPath280)">
        <path d="M577.1 28.411c-.813 12.809-13.001 21.384-22.963 22.588-9.351 1.129-22.435-4.452-24.207-16.994-1.005-7.126 2.222-12.414 6.82-16.092 4.473-3.578 10.243-5.63 14.673-6.364.337-.055.71-.094 1.054-.126 8.724-.809 25.564 2.115 24.623 16.988" fill="#6f1b54"/>
    </g>
    <g transform="matrix(4.4662 0 0 -4.4662 -2365.9 228.4)" clip-path="url(#clipPath280-2)">
        <path d="M565.92 23.268c-2.142-.467-3.837 1.19-4.652 3.03.358-2.203-.451-5.262-2.887-5.881-2.084-.529-3.739 1.173-4.7 3.027l.071-.264c.355-1.391.533-3.917-1.336-4.347-1.182-.272-2.735 1.746-2.735 1.746-.064-.015-.484-2.523-1.637-2.826-1.232-.323-2.881 1.755-2.881 1.755-.062-.015-.443-2.551-1.622-2.867-1.914-.511-2.874 2.03-3.225 3.451a17.824 17.824 0 0 0-.522 3.969c-.029 2.007.188 5.769 2.717 6.313 1.015.219 2.363-.818 2.611-.764.292.064 1.004 1.489 2.015 1.652 2.513.408 4.372-2.649 5.306-4.498.128-.253.248-.512.362-.774-.38 2.226-.192 6.101 2.845 6.181 2.336.062 4.247-2.056 5.129-4.182-.291 2.117.354 5.235 3.233 4.846 2.301-.311 4.607-2.407 5.099-4.673l.036-.168c.4-2.06-1.158-4.275-3.227-4.726m-26.437 13.6c-.417.961.793 2.411 2.701 3.238 1.909.827 3.794.718 4.21-.243a.903.903 0 0 0 .06-.189c.392-.849.04-2.642-.936-4.5.947.039 1.758-.149 2.238-.522a6.348 6.348 0 0 0-.781 2.116c-.391 2.34.49 5.644 2.893 6.623 2.515 1.024 4.071-1.844 4.638-3.909-.001.092-.001.188.001.28.025 2.324 1.147 6.502 4.155 6.486 2.972-.016 4.209-3.971 4.233-6.367.026-2.502-1.165-6.545-4.156-6.866-2.354-.252-3.504 2.111-3.97 4.29-.027-2.089-.727-4.647-3.031-4.99-1.445-.215-2.682.563-3.542 1.682.227-1.022-1.164-2.25-3.137-2.758-1.583-.408-3.063-.228-3.737.377-.756.517-.553 2.421.44 4.482-1.116-.119-2.008.145-2.279.77" fill="#fff"/>
    </g>
    <path d="M214.26 71.99V25.97h7.933V44.8h15.544V29.337h7.932v39.287h-7.932V51.446h-15.544V71.99zM260.26 30.723l14.463-1.011c3.261-.228 5.765-.152 7.511.227a13.13 13.13 0 0 1 6.161 3.196c1.76 1.613 3.156 3.647 4.188 6.1 1.03 2.436 1.673 5.49 1.93 9.161.225 3.227.019 6.035-.62 8.425-.78 2.92-2.018 5.326-3.713 7.218-1.28 1.433-3.06 2.606-5.342 3.517-1.708.675-4.024 1.114-6.947 1.318l-14.89 1.041zm8.377 6.077l1.815 25.958c12.11-1.856 15.934-3.371 15.856-14.138-.508-10.82-10.072-11.825-17.671-11.82z" fill="#fff" paint-order="markers stroke fill"/>
</svg>
