<?xml version="1.0" encoding="UTF-8" standalone="no"?>
<svg
   xmlns:dc="http://purl.org/dc/elements/1.1/"
   xmlns:cc="http://creativecommons.org/ns#"
   xmlns:rdf="http://www.w3.org/1999/02/22-rdf-syntax-ns#"
   xmlns:svg="http://www.w3.org/2000/svg"
   xmlns="http://www.w3.org/2000/svg"
   xmlns:sodipodi="http://sodipodi.sourceforge.net/DTD/sodipodi-0.dtd"
   xmlns:inkscape="http://www.inkscape.org/namespaces/inkscape"
   width="800"
   height="309.86966"
   viewBox="0 0 800 309.86966"
   version="1.1"
   id="svg27"
   sodipodi:docname="ztack.default.svg"
   inkscape:version="1.0.1 (3bc2e813f5, 2020-09-07)">
  <metadata
     id="metadata33">
    <rdf:RDF>
      <cc:Work
         rdf:about="">
        <dc:format>image/svg+xml</dc:format>
        <dc:type
           rdf:resource="http://purl.org/dc/dcmitype/StillImage" />
        <dc:title>ztack_logo_black</dc:title>
      </cc:Work>
    </rdf:RDF>
  </metadata>
  <defs
     id="defs31" />
  <sodipodi:namedview
     pagecolor="#ffffff"
     bordercolor="#666666"
     borderopacity="1"
     objecttolerance="10"
     gridtolerance="10"
     guidetolerance="10"
     inkscape:pageopacity="0"
     inkscape:pageshadow="2"
     inkscape:window-width="1920"
     inkscape:window-height="1017"
     id="namedview29"
     showgrid="false"
     fit-margin-top="0"
     fit-margin-left="0"
     fit-margin-right="0"
     fit-margin-bottom="0"
     inkscape:zoom="1"
     inkscape:cx="277.15206"
     inkscape:cy="-10.191199"
     inkscape:window-x="-8"
     inkscape:window-y="-8"
     inkscape:window-maximized="1"
     inkscape:current-layer="svg27" />
  <!-- Generator: Sketch 59.1 (86144) - https://sketch.com -->
  <title
     id="title2">ztack_logo_black</title>
  <desc
     id="desc4">Created with Sketch.</desc>
  <g
     id="Page-1"
     stroke="none"
     stroke-width="1.3425"
     fill="none"
     fill-rule="evenodd"
     transform="scale(0.74487896)">
    <g
       id="ztack_logo_black"
       style="stroke-width:1.3425">
      <g
         id="Group"
         style="stroke-width:1.3425">
        <polygon
           id="Path"
           fill="#3d3d3b"
           fill-rule="nonzero"
           points="1074,275 1048.1,416 893.9,416 900.1,376.9 1009.4,376.9 1029,275 "
           style="stroke-width:1.80632" />
        <path
           d="m 823.3,0 v 0 c 42.5,0 74.7,38.4 67.2,80.2 L 873.8,174.5 935.3,93 h 96.5 l -87.5,105.5 42,146.5 h -90.5 l -19,-91 v 0 c -13.7,15.4 -22.9,34.2 -26.5,54.5 l -6.5,36.5 h -81.5 z"
           id="path7"
           fill="#3d3d3b"
           fill-rule="nonzero"
           style="stroke-width:1.80632" />
        <path
           d="m 751.1,342.5 c -13,6 -32.5,8 -46,8 -69,0 -114,-47.5 -114,-114.5 0,-79.5 61,-148 150.5,-148 13.5,0 41.5,3.5 52.5,9 l -15,85.5 c -9.5,-7.5 -25.5,-15 -46.5,-15 -31.5,0 -57.5,28.5 -57.5,60 0,24 14.5,43.5 39,43.5 20.5,0 40,-7.5 52,-15 z"
           id="path9"
           style="stroke-width:1.3425" />
        <path
           d="m 675.1,227.5 c 0,24 14.5,43.5 39,43.5 20.5,0 40,-7.5 52,-15 l -15,86.5 c -13,6 -32.5,8 -46,8 -45.4,0 -80.3,-20.5 -99,-53.6 L 635.7,129.3 C 662,103.9 698.5,88 741.6,88 c 13.5,0 41.5,3.5 52.5,9 l -15,85.5 c -9.5,-7.5 -25.5,-15 -46.5,-15 -31.5,0 -57.5,28.5 -57.5,60 z"
           id="path11"
           fill="#3d3d3b"
           fill-rule="nonzero"
           style="stroke-width:1.80632" />
        <path
           d="m 504.3,344.8 2.1,-15.1 c -19.9,12.4 -36.1,15.6 -60.6,15.6 -58,0 -87.5,-47.8 -87.5,-108.6 0,-74.7 47.5,-143 119.5,-143 32.5,0 53.5,14.9 65.5,31.9 l 3.4,-19.7 83.1,-12.2 -44,251.2 H 504.3 Z M 489.8,167.2 c -28.5,0 -54,28.5 -54,60.5 0,24 14,43 37.5,43 28.5,0 54,-29 54,-61 0,-23.5 -14,-42.5 -37.5,-42.5 z"
           id="Shape"
           style="stroke-width:1.3425" />
        <path
           d="m 546.7,105.8 -3.4,19.7 c -12,-16.9 -33,-31.9 -65.5,-31.9 -33.2,0 -61.1,14.5 -81.6,37.4 l -28.3,160.3 c 13,32.5 39,54 77.9,54 24.5,0 40.7,-3.2 60.6,-15.6 l -2.1,15.1 h 81.5 l 44,-251.2 z m -73.4,164.9 c -23.5,0 -37.5,-19 -37.5,-43 0,-32 25.5,-60.5 54,-60.5 23.5,0 37.5,19 37.5,42.5 0,32 -25.5,61 -54,61 z"
           id="path14"
           fill="#3d3d3b"
           fill-rule="nonzero"
           style="stroke-width:1.80632" />
        <path
           d="m 402.8,25 -79.5,16.5 -9,51.5 h -37.7 l -23,69.5 h 43.7 l -18.2,102.3 c -0.7,4.1 -1.1,8.1 -1.1,12.1 0,36.9 29.9,68.1 68.3,68.1 z"
           id="path16"
           style="stroke-width:1.3425" />
        <path
           d="m 402.8,25 -79.5,16.5 -9,51.5 H 289 c -3.6,21.1 -10,41.6 -18.8,60.9 -1.3,2.9 -2.7,5.8 -4.2,8.6 h 31.2 L 279,264.8 c -0.7,4.1 -1.1,8.1 -1.1,12.1 0,36.9 29.9,68.1 68.3,68.1 z"
           id="path18"
           fill="#3d3d3b"
           fill-rule="nonzero"
           style="stroke-width:1.80632" />
        <path
           d="m 168,275.5 h 76.5 L 232,345 H 36.7 l 0.6,-3.4 c 7.2,-40.1 24.2,-77.8 49.6,-109.7 l 55.3,-69.4 h -68 L 86.7,93 h 189.8 v 0 c -7.2,42.3 -25.4,81.9 -52.7,114.9 z"
           id="path20"
           fill="#3d3d3b"
           fill-rule="nonzero"
           style="stroke-width:1.80632" />
        <polygon
           id="polygon22"
           fill="#3d3d3b"
           fill-rule="nonzero"
           points="0,162.5 26.3,25 171,25 163.6,65.1 63.8,65.1 45,162.5 "
           style="stroke-width:1.80632" />
      </g>
    </g>
  </g>
</svg>
