<svg viewBox="0 0 1000 562.83" xmlns="http://www.w3.org/2000/svg">
    <path d="M27.513 483.075l180.575-382.5H43.363V10.296h270.025V87.13L151.825 451.392v2.384h160.788v90.287H27.5z" fill="#009c96"/>
    <g fill="#006b5c">
        <path d="M285.817 163.225l-119.05 285h24.22zM337.368 459.387l-19.145.83 7.353 89.456H55.963l.533 12.403 284.85-12.504z"/>
        <path d="M175.635 426.95l-8.867 21.215h120.238l.187-10.778zM1.591 461.537L.506 522.511l15.007.387v-41.087l.54-1.124L172.54 162.75zM440.392 10.6h66.754l-5.544 352.462c0 6.224.148 12.617.546 19.012.283-7.677.92-15.97 1.989-24.964L533.75 8.835 441.56.5zM712.905 32.35l-5.402 312.487c0 23.168-1.479 44.505-4.407 64.062 3.177-14.309 5.721-29.584 7.652-45.882l38.341-326.412zM663.28 2.475l-103.257 9.994 32.527 336.338-7.065-338.15h78.588zM378.768 29.975l-23.673 2.276 31.695 327.913c.023.226.056.44.08.68a531.209 531.209 0 0 1-.221-15.16L378.768 29.97z"/>
    </g>
    <path d="M496.005 16.225v346.85c0 78.427 23.73 102.189 50.645 102.189 30.119 0 51.514-21.399 51.514-102.189V16.225h103.732v328.65c0 137.012-51.467 211.462-154.425 211.462-111.644 0-155.2-76.826-155.2-210.662V16.237z" fill="#009c96"/>
    <g fill="#91bf33">
        <path d="M996.043 16.35v65.545c0 29.09-15.29 46.83-45.36 46.83-23.407 0-39.17-9.365-43.36-29.33h-.499c-3.202 24.156-16.502 27.851-53.717 28.34-18.478.25-28.096 1.232-31.548 7.882h-1.478V97.181c4.93-3.455 11.584-4.199 18.49-4.437l33.763-.982c13.8-.492 22.177-6.661 22.177-20.946V51.832h-74.432V16.349zm-76.897 35.482V66.62c0 17.005 7.405 26.62 26.37 26.62 16.264 0 24.395-8.626 24.395-24.649V51.832z"/>
        <path d="M996.043 175.35v43.87L820.08 265.789v-36.962l37.218-8.13v-46.823l-37.218-8.137V128.77zm-109.66 4.683v34.496l79.098-17v-.496zM996.043 267.6v58.161c0 49.276-33.767 58.158-85.518 58.158-62.359 0-90.445-13.31-90.445-60.383v-55.935zm-149.838 35.482v15.775c0 24.655 15.536 29.56 63.347 29.56 39.908 0 60.36-3.19 60.36-30.297v-15.038zM820.08 396.712h175.963v35.478H820.08zM999.505 502.462c0 53.23-37.964 59.885-91.455 59.885-53.477 0-91.419-6.654-91.419-59.885 0-53.24 37.942-59.885 91.419-59.885 53.49 0 91.455 6.644 91.455 59.885zm-156.737 0c0 20.943 17.99 24.407 65.288 24.407 47.087 0 65.325-3.463 65.325-24.407 0-20.953-18.238-24.403-65.325-24.403-47.3 0-65.288 3.45-65.288 24.403"/>
    </g>
</svg>
